start_time,end_time,note_value,velocity,instrument_program_number
0.0,1.2,74,80,40
1.2,1.9825,62,80,40
2.1,2.4,62,92,40
2.4,2.475,64,80,40
2.475,2.55,62,80,40
2.55,2.625,64,80,40
2.625,2.7,62,80,40
2.7,2.775,64,80,40
2.775,2.85,62,80,40
2.85,3.0,61,80,40
3.0,3.27,62,92,40
3.3,3.57,62,92,40
3.6,4.5,62,80,40
4.5,4.8,77,80,40
4.8,5.55,77,80,40
5.55,5.7,76,80,40
5.7,5.85,74,80,40
5.85,6.0,73,80,40
6.0,6.6,70,80,40
6.6,6.9,69,80,40
6.9,7.2,67,80,40
7.2,7.35,65,80,40
7.5,7.8,70,80,40
7.8,8.1,69,80,40
8.1,8.4,68,80,40
8.4,8.9625,69,80,40
9.6,10.8,86,100,40
10.8,11.7,74,100,40
11.7,12.0,74,100,40
12.0,12.075,76,100,40
12.075,12.15,74,100,40
12.15,12.225,76,100,40
12.225,12.3,74,100,40
12.3,12.375,76,100,40
12.375,12.45,74,100,40
12.45,12.6,73,100,40
12.6,12.9,74,100,40
12.9,13.2,74,100,40
13.2,14.1,74,100,40
14.1,14.4,89,100,40
14.4,15.15,89,100,40
15.15,15.3,88,100,40
15.3,15.45,86,60,40
15.45,15.6,85,60,40
15.6,16.2,82,60,40
16.2,16.5,81,60,40
16.5,16.95,79,60,40
16.95,17.1,77,60,40
17.1,17.25,76,66,40
17.25,17.4,82,60,40
17.4,17.55,82,66,40
17.55,17.7,81,60,40
17.7,17.85,73,66,40
17.85,18.0,76,60,40
18.0,18.5625,74,60,40
19.2,20.1,57,100,40
20.1,20.4,81,69,40
20.4,20.46,81,55,40
20.475,20.55,79,69,40
20.55,20.625,81,69,40
20.625,20.7,79,69,40
20.7,20.775,78,69,40
20.775,20.8475,79,55,40
20.85,20.97,81,55,40
21.0,21.3,82,69,40
21.3,21.45,73,69,40
21.6,21.75,74,69,40
21.9,22.05,76,69,40
22.2,22.5,79,69,40
22.5,22.575,79,69,40
22.575,22.65,77,69,40
22.65,22.725,76,69,40
22.725,22.8,77,69,40
22.8,23.3625,76,69,40
24.0,24.9,57,100,40
24.9,25.2,86,69,40
25.2,25.8,86,69,40
25.8,26.1,85,69,40
26.1,26.25,82,69,40
26.4,26.55,81,69,40
26.7,26.85,79,69,40
27.0,27.075,79,69,40
27.075,27.15,77,69,40
27.15,27.225,79,69,40
27.225,27.3,77,69,40
27.3,27.375,79,69,40
27.375,27.45,77,69,40
27.45,27.525,76,69,40
27.525,27.6,77,69,40
27.6,27.75,76,115,40
27.75,27.9,80,127,40
27.9,28.05,81,102,40
28.05,28.2,80,81,40
28.2,28.35,81,81,40
28.35,28.5,80,81,40
28.5,28.65,81,81,40
28.65,28.8,77,81,40
28.8,29.0825,76,81,40
32.4,33.12,82,100,40
32.4,33.12,72,100,40
32.4,33.12,64,100,40
33.3,33.45,60,60,40
33.6,33.9,60,84,40
33.9,34.125,60,45,40
34.5,34.65,62,60,40
34.8,35.1,62,69,40
35.1,35.325,63,45,40
35.7,36.3,65,60,40
36.3,36.6,66,69,40
36.6,36.9,67,73,40
36.9,37.2,69,78,40
37.2,37.5,72,82,40
37.5,37.725,70,87,40
38.1,38.4,70,65,40
38.4,38.7,69,67,40
38.7,39.3,70,70,40
39.3,39.9,71,75,40
39.9,40.5,72,80,40
40.5,41.4,73,85,40
41.4,41.55,76,60,40
41.55,41.7,74,60,40
41.7,41.85,72,60,40
41.85,42.0,70,60,40
42.0,42.6,69,60,40
42.6,42.8825,67,60,40
43.8,44.1,74,60,40
44.1,44.4,67,60,40
44.4,44.85,67,60,40
44.85,45.0,69,60,40
45.0,45.2825,67,60,40
46.2,46.5,77,60,40
46.5,46.8,71,60,40
46.8,47.4,71,60,40
47.4,47.6825,72,60,40
48.3,48.45,65,100,40
48.6,48.9,77,100,40
48.9,49.05,75,100,40
49.2,49.8,75,100,40
49.8,50.1,73,100,40
50.1,50.4,72,100,40
50.4,51.0,72,100,40
51.0,51.6,71,100,40
51.6,52.8,70,100,40
53.1,53.25,79,100,40
53.4,53.7,84,115,40
53.7,53.85,82,100,40
54.0,54.0725,80,79,40
54.075,54.1475,81,79,40
54.3,54.3725,76,69,40
54.375,54.4475,77,69,40
54.6,54.6725,73,69,40
54.675,54.7475,74,69,40
54.9,54.9725,66,69,40
54.975,55.0475,67,69,40
55.2,55.35,72,76,40
55.35,55.4225,74,60,40
55.425,55.4975,72,60,40
55.5,55.5725,71,60,40
55.575,55.6475,72,60,40
55.65,55.725,74,76,40
55.8,56.1,65,60,40
56.1,56.4,64,60,40
56.4,56.9625,65,60,40
57.6,58.2,65,91,40
58.2,58.35,64,79,40
58.35,58.5,65,79,40
58.5,58.65,70,79,40
58.65,58.8,69,79,40
58.8,59.1,69,100,40
59.1,59.325,67,60,40
60.0,60.15,66,79,40
60.15,60.3,67,79,40
60.3,60.45,69,79,40
60.45,60.6,67,79,40
60.6,60.75,70,79,40
60.75,60.9,69,79,40
60.9,61.05,74,79,40
61.05,61.2,72,79,40
61.2,61.5,70,100,40
61.5,61.725,69,60,40
62.4,63.0,77,91,40
63.0,63.15,76,79,40
63.15,63.3,77,79,40
63.3,63.45,82,79,40
63.45,63.6,81,79,40
63.6,63.9,81,91,40
63.9,64.35,79,79,40
64.35,64.5,77,79,40
64.5,64.65,76,79,40
64.65,64.8,74,79,40
64.8,65.1,74,91,40
65.1,65.55,72,79,40
65.55,65.7,70,79,40
65.7,65.85,69,79,40
65.85,66.0,67,79,40
66.0,66.5625,65,79,40
67.2,67.58,65,79,40
67.6,67.7,64,79,40
67.7,67.8,65,79,40
67.8,67.9,69,79,40
67.9,68.0,67,79,40
68.0,68.1,65,79,40
68.1,68.2,72,79,40
68.2,68.3,70,79,40
68.3,68.4,69,79,40
68.4,68.7,66,95,40
68.7,68.925,67,60,40
69.6,69.7,82,79,40
69.7,69.8,81,79,40
69.8,69.9,79,79,40
69.9,70.0,77,79,40
70.0,70.1,76,79,40
70.1,70.2,74,79,40
70.2,70.3,72,79,40
70.3,70.4,71,79,40
70.4,70.5,72,79,40
70.5,70.6,73,79,40
70.6,70.7,74,79,40
70.7,70.8,70,79,40
70.8,71.1,68,95,40
71.1,71.325,69,60,40
72.0,72.1,65,115,40
72.1,72.2,69,115,40
72.2,72.3,72,115,40
72.3,72.4,77,115,40
72.4,72.5,81,115,40
72.5,72.6,84,115,40
72.6,72.7,89,115,40
72.7,72.8,88,115,40
72.8,72.9,86,115,40
72.9,73.0,84,115,40
73.0,73.1,82,115,40
73.1,73.2,81,115,40
73.2,73.3,79,115,40
73.3,73.4,81,115,40
73.4,73.5,78,115,40
73.5,73.6,79,115,40
73.6,73.65,82,115,40
73.7,73.75,81,115,40
73.8,73.9,82,115,40
73.9,74.0,81,115,40
74.0,74.1,79,115,40
74.1,74.18,77,92,40
74.2,74.28,76,92,40
74.3,74.38,74,92,40
74.4,74.5,72,115,40
74.5,74.6,74,115,40
74.6,74.7,71,115,40
74.7,74.8,72,115,40
74.8,74.9,77,115,40
74.9,75.0,65,115,40
75.0,75.075,67,115,40
75.075,75.15,69,115,40
75.15,75.225,67,115,40
75.225,75.3,69,115,40
75.3,75.375,67,115,40
75.375,75.45,69,115,40
75.45,75.525,65,115,40
75.525,75.6,67,115,40
75.6,76.1625,65,98,40
79.2,79.8,77,69,40
79.8,80.4,78,120,40
80.4,80.55,79,60,40
80.7,80.85,81,60,40
81.0,81.15,82,60,40
81.3,81.45,84,60,40
81.6,81.75,85,60,40
81.75,81.9,86,60,40
81.9,81.975,82,60,40
82.05,82.125,79,60,40
82.2,82.5,77,60,40
82.5,82.8,76,60,40
82.8,83.0825,77,60,40
83.4,83.55,76,60,40
83.7,83.85,76,60,40
84.0,84.15,77,60,40
84.3,84.45,77,60,40
84.6,84.75,79,60,40
84.9,84.975,81,60,40
84.975,85.05,79,60,40
85.05,85.125,77,60,40
85.125,85.2,79,60,40
85.2,85.35,81,60,40
85.5,85.65,82,60,40
85.8,85.95,84,60,40
86.1,86.25,86,60,40
86.4,86.55,86,60,40
86.55,86.7,84,60,40
86.7,86.775,82,60,40
86.85,86.925,81,60,40
87.0,87.3,81,60,40
87.3,87.375,81,60,40
87.375,87.45,79,60,40
87.45,87.525,77,60,40
87.525,87.6,79,60,40
87.6,87.8825,77,60,40
92.51641,92.620575,77,60,40
92.620575,92.72475,81,60,40
92.72475,92.82891,84,72,40
92.82891,92.881,84,60,40
92.933075,92.98516,84,60,40
93.03725,93.196815,84,60,40
93.78423,93.89293,65,65,40
93.89293,94.001625,69,65,40
94.001625,94.11032,72,66,40
94.11032,94.16467,72,67,40
94.21902,94.27337,72,68,40
94.32771,94.492546,72,68,40
95.09941,95.21178,60,73,40
95.21178,95.324135,65,74,40
95.324135,95.43649,69,75,40
95.43649,95.49267,69,75,40
95.54885,95.605034,69,76,40
95.66121,95.833626,69,77,40
96.46851,96.58616,62,82,40
96.58616,96.703804,68,82,40
96.703804,96.82146,71,83,40
96.82146,96.88028,71,84,40
96.9391,96.997925,71,85,40
97.05675,97.11699,71,85,40
97.9031,98.02655,64,90,40
98.02655,98.15001,67,91,40
98.15001,98.27347,73,92,40
98.27347,98.3352,73,92,40
98.39692,98.45865,73,93,40
98.52038,98.71025,73,94,40
99.27987,100.47987,74,80,40
100.47987,101.262375,62,80,40
101.379875,101.67987,62,92,40
101.67987,101.754875,64,80,40
101.754875,101.82987,62,80,40
101.82987,101.90487,64,80,40
101.90487,101.97987,62,80,40
101.97987,102.05487,64,80,40
102.05487,102.129875,62,80,40
102.129875,102.27987,61,80,40
102.27987,102.54987,62,92,40
102.57987,102.84987,62,92,40
102.879875,103.77987,62,80,40
103.77987,104.07987,77,80,40
104.07987,104.82987,77,80,40
104.82987,104.97987,76,80,40
104.97987,105.129875,74,80,40
105.129875,105.27987,73,80,40
105.27987,105.879875,70,80,40
105.879875,106.17987,69,80,40
106.17987,106.47987,67,80,40
106.47987,106.629875,65,80,40
106.77987,107.07987,70,80,40
107.07987,107.379875,69,80,40
107.379875,107.67987,68,80,40
107.67987,108.24237,69,80,40
108.879875,110.07987,86,100,40
110.07987,110.97987,74,100,40
110.97987,111.27987,74,100,40
111.27987,111.35487,76,100,40
111.35487,111.42987,74,100,40
111.42987,111.504875,76,100,40
111.504875,111.57987,74,100,40
111.57987,111.65487,76,100,40
111.65487,111.72987,74,100,40
111.72987,111.879875,73,100,40
111.879875,112.17987,74,100,40
112.17987,112.47987,74,100,40
112.47987,113.379875,74,100,40
113.379875,113.67987,89,100,40
113.67987,114.42987,89,100,40
114.42987,114.57987,88,100,40
114.57987,114.72987,86,60,40
114.72987,114.879875,85,60,40
114.879875,115.47987,82,60,40
115.47987,115.77987,81,60,40
115.77987,116.22987,79,60,40
116.22987,116.379875,77,60,40
116.379875,116.52987,76,66,40
116.52987,116.67987,82,60,40
116.67987,116.82987,82,66,40
116.82987,116.97987,81,60,40
116.97987,117.129875,73,66,40
117.129875,117.27987,76,60,40
117.27987,117.84237,74,60,40
118.47987,119.379875,57,100,40
119.379875,119.67987,81,69,40
119.67987,119.739876,81,55,40
119.754875,119.82987,79,69,40
119.82987,119.90487,81,69,40
119.90487,119.97987,79,69,40
119.97987,120.05487,78,69,40
120.05487,120.12737,79,55,40
120.129875,120.24987,81,55,40
120.27987,120.57987,82,69,40
120.57987,120.72987,73,69,40
120.879875,121.02987,74,69,40
121.17987,121.32987,76,69,40
121.47987,121.77987,79,69,40
121.77987,121.85487,79,69,40
121.85487,121.92987,77,69,40
121.92987,122.004875,76,69,40
122.004875,122.07987,77,69,40
122.07987,122.64237,76,69,40
123.27987,124.17987,57,100,40
124.17987,124.47987,86,69,40
124.47987,125.07987,86,69,40
125.07987,125.379875,85,69,40
125.379875,125.52987,82,69,40
125.67987,125.82987,81,69,40
125.97987,126.129875,79,69,40
126.27987,126.35487,79,69,40
126.35487,126.42987,77,69,40
126.42987,126.504875,79,69,40
126.504875,126.57987,77,69,40
126.57987,126.65487,79,69,40
126.65487,126.72987,77,69,40
126.72987,126.80487,76,69,40
126.80487,126.879875,77,69,40
126.879875,127.02987,76,115,40
127.02987,127.17987,80,127,40
127.17987,127.32987,81,102,40
127.32987,127.47987,80,81,40
127.47987,127.629875,81,81,40
127.629875,127.77987,80,81,40
127.77987,127.92987,81,81,40
127.92987,128.07986,77,81,40
128.07986,128.36237,76,81,40
131.67987,132.39987,82,100,40
131.67987,132.39987,72,100,40
131.67987,132.39987,64,100,40
132.57986,132.72987,60,60,40
132.87987,133.17987,60,84,40
133.17987,133.40488,60,45,40
133.77988,133.92987,62,60,40
134.07986,134.37987,62,69,40
134.37987,134.60487,63,45,40
134.97987,135.57986,65,60,40
135.57986,135.87987,66,69,40
135.87987,136.17987,67,73,40
136.17987,136.47987,69,78,40
136.47987,136.77988,72,82,40
136.77988,137.00487,70,87,40
137.37987,137.67987,70,65,40
137.67987,137.97987,69,67,40
137.97987,138.57986,70,70,40
138.57986,139.17987,71,75,40
139.17987,139.77988,72,80,40
139.77988,140.67987,73,85,40
140.67987,140.82986,76,60,40
140.82986,140.97987,74,60,40
140.97987,141.12987,72,60,40
141.12987,141.27988,70,60,40
141.27988,141.87987,69,60,40
141.87987,142.16237,67,60,40
143.07986,143.37987,74,60,40
143.37987,143.67987,67,60,40
143.67987,144.12987,67,60,40
144.12987,144.27988,69,60,40
144.27988,144.56238,67,60,40
145.47987,145.77988,77,60,40
145.77988,146.07986,71,60,40
146.07986,146.67987,71,60,40
146.67987,146.96237,72,60,40
147.57986,147.72987,65,100,40
147.87987,148.17987,77,100,40
148.17987,148.32986,75,100,40
148.47987,149.07986,75,100,40
149.07986,149.37987,73,100,40
149.37987,149.67987,72,100,40
149.67987,150.27988,72,100,40
150.27988,150.87987,71,100,40
150.87987,152.07986,70,100,40
152.37987,152.52988,79,100,40
152.67987,152.97987,84,115,40
152.97987,153.12987,82,100,40
153.27988,153.35237,80,79,40
153.35487,153.42737,81,79,40
153.57986,153.65237,76,69,40
153.65488,153.72737,77,69,40
153.87987,153.95238,73,69,40
153.95486,154.02737,74,69,40
154.17987,154.25237,66,69,40
154.25487,154.32738,67,69,40
154.47987,154.62987,72,76,40
154.62987,154.70238,74,60,40
154.70486,154.77737,72,60,40
154.77988,154.85237,71,60,40
154.85487,154.92737,72,60,40
154.92987,155.00487,74,76,40
155.07986,155.37987,65,60,40
155.37987,155.67987,64,60,40
155.67987,156.24237,65,60,40
156.87987,157.47987,65,91,40
157.47987,157.62987,64,79,40
157.62987,157.77988,65,79,40
157.77988,157.92987,70,79,40
157.92987,158.07986,69,79,40
158.07986,158.37987,69,100,40
158.37987,158.60487,67,60,40
159.27988,159.42987,66,79,40
159.42987,159.57986,67,79,40
159.57986,159.72987,69,79,40
159.72987,159.87987,67,79,40
159.87987,160.02988,70,79,40
160.02988,160.17987,69,79,40
160.17987,160.32986,74,79,40
160.32986,160.47987,72,79,40
160.47987,160.77988,70,100,40
160.77988,161.00487,69,60,40
161.67987,162.27988,77,105,40
162.27988,162.42987,76,91,40
162.42987,162.57986,77,91,40
162.57986,162.72987,82,91,40
162.72987,162.87987,81,91,40
162.87987,163.17987,81,105,40
163.17987,163.62987,79,91,40
163.62987,163.77988,77,91,40
163.77988,163.92987,76,91,40
163.92987,164.07986,74,91,40
164.07986,164.37987,74,105,40
164.37987,164.82986,72,91,40
164.82986,164.97987,70,91,40
164.97987,165.12987,69,91,40
165.12987,165.27988,67,91,40
165.27988,165.84238,65,91,40
166.47987,166.85988,65,79,40
166.87987,166.97987,64,79,40
166.97987,167.07986,65,79,40
167.07986,167.17987,69,79,40
167.17987,167.27988,67,79,40
167.27988,167.37987,65,79,40
167.37987,167.47987,72,79,40
167.47987,167.57986,70,79,40
167.57986,167.67987,69,79,40
167.67987,167.97987,66,95,40
167.97987,168.20486,67,60,40
168.87987,168.97987,82,79,40
168.97987,169.07986,81,79,40
169.07986,169.17987,79,79,40
169.17987,169.27988,77,79,40
169.27988,169.37987,76,79,40
169.37987,169.47987,74,79,40
169.47987,169.57986,72,79,40
169.57986,169.67987,71,79,40
169.67987,169.77988,72,79,40
169.77988,169.87987,73,79,40
169.87987,169.97987,74,79,40
169.97987,170.07986,70,79,40
170.07986,170.37987,68,95,40
170.37987,170.60487,69,60,40
171.27988,171.37987,65,115,40
171.37987,171.47987,69,115,40
171.47987,171.57986,72,115,40
171.57986,171.67987,77,115,40
171.67987,171.77988,81,115,40
171.77988,171.87987,84,115,40
171.87987,171.97987,89,115,40
171.97987,172.07986,88,115,40
172.07986,172.17987,86,115,40
172.17987,172.27988,84,115,40
172.27988,172.37987,82,115,40
172.37987,172.47987,81,115,40
172.47987,172.57986,79,115,40
172.57986,172.67987,81,115,40
172.67987,172.77988,78,115,40
172.77988,172.87987,79,115,40
172.87987,172.92987,82,115,40
172.97987,173.02988,81,115,40
173.07986,173.17987,82,115,40
173.17987,173.27988,81,115,40
173.27988,173.37987,79,115,40
173.37987,173.45987,77,92,40
173.47987,173.55988,76,92,40
173.57986,173.65987,74,92,40
173.67987,173.77988,72,115,40
173.77988,173.87987,74,115,40
173.87987,173.97987,71,115,40
173.97987,174.07986,72,115,40
174.07986,174.17987,77,115,40
174.17987,174.27988,65,115,40
174.27988,174.35487,67,115,40
174.35487,174.42987,69,115,40
174.42987,174.50487,67,115,40
174.50487,174.57986,69,115,40
174.57986,174.65488,67,115,40
174.65488,174.72987,69,115,40
174.72987,174.80487,65,115,40
174.80487,174.87987,67,115,40
174.87987,175.44237,65,98,40
178.47987,179.07986,77,69,40
179.07986,179.67987,78,120,40
179.67987,179.82986,79,60,40
179.97987,180.12987,81,60,40
180.27988,180.42987,82,60,40
180.57986,180.72987,84,60,40
180.87987,181.02988,85,60,40
181.02988,181.17987,86,60,40
181.17987,181.25487,82,60,40
181.32986,181.40488,79,60,40
181.47987,181.77988,77,60,40
181.77988,182.07986,76,60,40
182.07986,182.36237,77,60,40
182.67987,182.82986,76,60,40
182.97987,183.12987,76,60,40
183.27988,183.42987,77,60,40
183.57986,183.72987,77,60,40
183.87987,184.02988,79,60,40
184.17987,184.25487,81,60,40
184.25487,184.32986,79,60,40
184.32986,184.40488,77,60,40
184.40488,184.47987,79,60,40
184.47987,184.62987,81,60,40
184.77988,184.92987,82,60,40
185.07986,185.22987,84,60,40
185.37987,185.52988,86,60,40
185.67987,185.82986,86,60,40
185.82986,185.97987,84,60,40
185.97987,186.05487,82,60,40
186.12987,186.20486,81,60,40
186.27988,186.57986,81,60,40
186.57986,186.65488,81,60,40
186.65488,186.72987,79,60,40
186.72987,186.80487,77,60,40
186.80487,186.87987,79,60,40
186.87987,187.16237,77,60,40
191.77988,191.87987,77,60,40
191.87987,191.97987,81,60,40
191.97987,192.07986,84,72,40
192.07986,192.12987,84,60,40
192.17987,192.22987,84,60,40
192.27988,192.42987,84,60,40
192.97987,193.07986,65,65,40
193.07986,193.17987,69,65,40
193.17987,193.27988,72,66,40
193.27988,193.32986,72,67,40
193.37987,193.42987,72,68,40
193.47987,193.6345,72,68,40
194.2048,194.31119,60,73,40
194.31119,194.41757,65,74,40
194.41757,194.52396,69,75,40
194.52396,194.57715,69,75,40
194.63034,194.68353,69,76,40
194.73672,194.90157,69,77,40
195.511,195.62595,62,65,40
195.62595,195.74089,68,66,40
195.74089,195.85583,71,68,40
195.85583,195.9133,71,69,40
195.97078,196.02824,71,71,40
196.08572,196.2643,71,73,40
196.92346,197.04692,58,83,40
197.04692,197.17038,65,85,40
197.17038,197.29384,68,86,40
197.29384,197.35556,68,88,40
197.41728,197.47902,68,89,40
197.54074,197.60484,68,91,40
198.30998,198.87248,63,80,40
198.30998,198.87248,55,80,40
198.30998,199.38997,75,80,40
199.50998,200.22998,63,80,40
200.40997,200.64998,63,80,40
200.70998,200.78497,65,100,40
200.78497,200.85997,63,100,40
200.85997,200.93498,65,100,40
200.93498,201.00998,63,100,40
201.00998,201.08498,65,100,40
201.08498,201.15997,63,100,40
201.15997,201.30998,62,100,40
201.30998,201.60997,63,100,40
201.60997,201.90997,63,100,40
201.90997,203.10997,63,100,40
203.10997,203.18498,65,100,40
203.18498,203.25998,63,100,40
203.25998,203.33498,65,100,40
203.33498,203.40997,63,100,40
203.40997,203.48497,65,100,40
203.48497,203.55998,63,100,40
203.55998,203.70998,62,100,40
203.70998,204.00998,63,100,40
204.00998,204.30998,63,100,40
204.30998,205.50998,63,100,40
205.50998,205.58498,65,79,40
205.58498,205.65997,63,79,40
205.65997,205.73497,65,72,40
205.73497,205.80998,63,72,40
205.80998,205.88498,65,72,40
205.88498,205.95998,63,72,40
205.95998,206.10997,62,72,40
206.10997,206.40997,63,72,40
206.40997,206.70998,63,72,40
206.70998,207.60997,63,72,40
207.60997,207.90997,64,72,40
207.90997,209.10997,60,42,40
209.10997,210.90997,59,35,40
210.90997,211.50998,57,35,40
211.50998,213.30998,62,35,40
213.30998,213.90997,60,50,40
213.90997,214.50998,65,57,40
214.50998,215.10997,64,64,40
215.10997,216.30998,63,70,40
216.30998,217.50998,62,83,40
217.50998,217.80998,60,97,40
217.80998,218.10997,80,100,40
218.10997,218.40997,81,100,40
218.40997,218.55998,77,60,40
218.70998,218.85997,76,48,40
219.00998,219.15997,74,48,40
219.30998,219.45998,72,48,40
219.60997,219.75998,71,48,40
219.90997,222.30498,70,100,40
222.30998,222.54997,70,48,40
222.60997,222.90997,68,100,40
222.90997,223.11998,69,100,40
223.20998,223.35997,65,60,40
223.50998,223.65997,64,60,40
223.80998,223.95998,62,60,40
224.10997,224.25998,60,60,40
224.40997,224.55998,59,60,40
229.50998,230.70998,73,75,40
230.70998,231.60997,61,75,40
231.60997,231.90997,61,75,40
231.90997,232.50998,62,94,40
236.70998,237.90997,78,125,40
237.90997,238.80998,66,125,40
238.80998,239.10997,66,125,40
239.10997,239.70998,67,125,40
239.70998,240.90997,86,60,40
240.90997,241.05998,84,60,40
241.05998,241.20998,82,60,40
241.20998,241.35997,81,60,40
241.35997,241.50998,79,60,40
241.50998,241.80998,77,60,40
241.80998,242.10997,76,60,40
242.80998,242.90997,60,79,40
242.90997,243.00998,67,79,40
243.00998,243.10997,70,87,40
243.10997,243.15997,70,79,40
243.20998,243.25998,70,79,40
243.30998,243.59247,70,79,40
244.50998,245.70998,84,60,40
245.70998,245.85997,82,60,40
245.85997,246.00998,81,60,40
246.00998,246.15997,79,60,40
246.15997,246.30998,77,60,40
246.30998,246.60997,76,60,40
246.60997,246.89247,74,60,40
247.60997,247.70998,58,69,40
247.70998,247.80998,62,69,40
247.80998,247.90997,65,76,40
247.90997,247.95998,65,69,40
248.00998,248.05998,65,69,40
248.10997,248.39247,65,69,40
249.30998,250.50998,82,57,40
250.50998,251.10997,70,67,40
251.10997,251.70998,69,72,40
251.70998,252.90997,88,77,40
252.90997,253.50998,79,87,40
253.50998,253.80998,78,92,40
253.80998,254.10997,77,94,40
254.10997,254.40997,76,97,40
254.40997,254.70998,75,99,40
254.70998,254.85997,74,100,40
254.85997,255.00998,73,100,40
255.00998,255.15997,74,100,40
255.15997,255.30998,73,100,40
255.30998,255.45998,74,100,40
255.45998,255.60997,77,100,40
255.60997,255.75998,76,100,40
255.75998,255.90997,74,100,40
256.00998,256.11,73,79,40
256.11,256.20996,76,79,40
256.20996,256.30997,81,87,40
256.30997,256.36,81,79,40
256.40997,256.45996,81,79,40
256.50998,256.79248,81,79,40
258.00998,258.22247,77,60,40
258.235,258.29498,74,48,40
258.30997,258.87247,73,60,40
259.61,259.70996,61,79,40
259.70996,259.80997,64,79,40
259.80997,259.90997,69,87,40
259.90997,259.95996,69,79,40
260.00998,260.05997,69,79,40
260.11,260.25998,69,79,40
260.40997,260.70996,69,79,40
260.70996,262.00998,70,100,40
262.00998,262.11,62,69,40
262.11,262.20996,65,69,40
262.20996,262.30997,70,76,40
262.30997,262.36,70,76,40
262.40997,262.45996,70,69,40
262.50998,262.65997,70,69,40
262.80997,263.11,70,69,40
263.11,264.45267,73,115,40
264.45267,264.56378,64,69,40
264.56378,264.6749,67,69,40
264.6749,264.786,73,76,40
264.786,264.84155,73,76,40
264.8971,264.95267,73,69,40
265.0082,265.1847,73,69,40
265.36115,265.7141,73,60,40
265.7141,266.9141,74,80,40
266.9141,267.6966,62,80,40
267.8141,268.1141,62,92,40
268.1141,268.1891,64,80,40
268.1891,268.2641,62,80,40
268.2641,268.3391,64,80,40
268.3391,268.4141,62,80,40
268.4141,268.4891,64,80,40
268.4891,268.5641,62,80,40
268.5641,268.7141,61,80,40
268.7141,268.9841,62,92,40
269.0141,269.2841,62,92,40
269.3141,270.2141,62,80,40
270.2141,270.5141,77,80,40
270.5141,271.2641,77,80,40
271.2641,271.4141,76,80,40
271.4141,271.5641,74,80,40
271.5641,271.7141,73,80,40
271.7141,272.3141,70,80,40
272.3141,272.6141,69,80,40
272.6141,272.9141,67,80,40
272.9141,273.0641,65,80,40
273.2141,273.5141,70,80,40
273.5141,273.8141,69,80,40
273.8141,274.1141,68,80,40
274.1141,274.6766,69,80,40
275.1641,275.2241,62,104,40
275.2391,275.2991,74,104,40
275.3141,276.5141,86,100,40
276.5141,277.4141,74,100,40
277.4141,277.7141,74,100,40
277.7141,277.7891,76,100,40
277.7891,277.8641,74,100,40
277.8641,277.9391,76,100,40
277.9391,278.0141,74,100,40
278.0141,278.0891,76,100,40
278.0891,278.1641,74,100,40
278.1641,278.3141,73,100,40
278.3141,278.6141,74,100,40
278.6141,278.9141,74,100,40
278.9141,279.8141,74,100,40
279.8141,280.1141,89,100,40
280.1141,280.8641,89,100,40
280.8641,281.0141,88,100,40
281.0141,281.1641,86,60,40
281.1641,281.3141,85,60,40
281.3141,281.9141,82,60,40
281.9141,282.2141,81,60,40
282.2141,282.6641,79,60,40
282.6641,282.8141,77,60,40
282.8141,282.9641,76,66,40
282.9641,283.1141,82,60,40
283.1141,283.2641,82,66,40
283.2641,283.4141,81,60,40
283.4141,283.5641,73,66,40
283.5641,283.7141,76,60,40
283.7141,284.2766,74,60,40
284.9141,285.8141,57,100,40
285.8141,286.1141,81,69,40
286.1141,286.1741,81,55,40
286.1891,286.2641,79,69,40
286.2641,286.3391,81,69,40
286.3391,286.4141,79,69,40
286.4141,286.4891,78,69,40
286.4891,286.5616,79,55,40
286.5641,286.6841,81,55,40
286.7141,287.0141,82,69,40
287.0141,287.1641,73,69,40
287.3141,287.4641,74,69,40
287.6141,287.7641,76,69,40
287.9141,288.2141,79,69,40
288.2141,288.2891,79,69,40
288.2891,288.3641,77,69,40
288.3641,288.4391,76,69,40
288.4391,288.5141,77,69,40
288.5141,289.0766,76,69,40
289.7141,290.6141,57,100,40
290.6141,290.9141,86,69,40
290.9141,291.5141,86,69,40
291.5141,291.8141,85,69,40
291.8141,291.9641,82,69,40
292.1141,292.2641,81,69,40
292.4141,292.5641,79,69,40
292.7141,292.7891,79,69,40
292.7891,292.8641,77,69,40
292.8641,292.9391,79,69,40
292.9391,293.0141,77,69,40
293.0141,293.0891,79,69,40
293.0891,293.1641,77,69,40
293.1641,293.2391,76,69,40
293.2391,293.3141,77,69,40
293.3141,293.4641,76,115,40
293.4641,293.6141,80,127,40
293.6141,293.7641,81,102,40
293.7641,293.9141,80,81,40
293.9141,294.0641,81,81,40
294.0641,294.2141,80,81,40
294.2141,294.3641,81,81,40
294.3641,294.5141,77,81,40
294.5141,294.7966,76,81,40
298.1141,299.0141,82,90,40
298.1141,299.0141,55,90,40
298.1141,299.0141,64,90,40
298.1141,299.0141,73,90,40
299.0141,299.3141,61,60,40
299.3141,299.6141,62,60,40
299.6141,299.7641,62,60,40
300.2141,300.3641,62,45,40
300.8141,300.9641,63,45,40
301.4141,301.5641,66,45,40
301.7141,302.0141,69,75,40
302.0141,302.2966,67,45,40
302.6141,302.9141,64,64,40
302.9141,303.2141,65,68,40
303.2141,303.5141,66,73,40
303.5141,303.8141,67,77,40
303.8141,304.1141,68,81,40
304.1141,304.4141,71,86,40
304.4141,304.6966,69,60,40
305.0141,305.4641,69,90,40
305.4641,305.7641,70,104,40
305.7641,306.0641,71,104,40
306.0641,306.3641,72,104,40
306.3641,306.6641,73,104,40
306.6641,306.8141,74,83,40
306.8141,306.9641,77,89,40
306.9641,307.1141,76,95,40
307.1141,307.2641,79,103,40
307.2641,307.4141,77,109,40
307.4141,307.5641,81,115,40
307.5641,307.7141,79,121,40
307.7141,307.8641,82,94,40
307.8641,308.0141,81,96,40
308.0141,308.1641,84,100,40
308.1641,308.3141,82,103,40
308.3141,308.4641,81,105,40
308.4641,308.6141,79,109,40
308.6141,308.7641,77,95,40
308.7641,308.9141,76,96,40
308.9141,309.5141,74,70,40
309.5141,309.7966,73,75,40
310.7141,310.8641,76,60,40
311.0141,311.1641,76,60,40
311.3141,311.7641,76,60,40
311.7641,311.9141,77,60,40
311.9141,312.1966,76,60,40
313.1141,313.4141,86,60,40
313.4141,313.7141,80,60,40
313.7141,314.3141,80,60,40
314.3141,314.5966,81,60,40
315.2141,315.5141,62,100,40
315.5141,315.8141,74,100,40
315.8141,315.9641,72,100,40
316.1141,316.7141,72,100,40
316.7141,317.0141,70,100,40
317.0141,317.1641,69,100,40
317.3141,317.9141,69,100,40
317.9141,318.5141,68,100,40
318.5141,320.0141,67,100,40
320.0141,320.3141,76,100,40
320.3141,320.6141,81,100,40
320.6141,320.7641,79,100,40
320.9141,320.9866,76,69,40
320.9891,321.0616,77,69,40
321.2141,321.2866,73,69,40
321.2891,321.3616,74,69,40
321.5141,321.5866,69,69,40
321.5891,321.6616,70,69,40
321.8141,321.8866,66,69,40
321.8891,321.9616,67,69,40
322.1141,322.2641,69,69,40
322.2641,322.3391,70,69,40
322.3391,322.4141,69,69,40
322.4141,322.4891,67,69,40
322.4891,322.5641,69,69,40
322.5641,322.7141,70,69,40
322.7141,323.0141,62,69,40
323.0141,323.3141,61,69,40
323.3141,323.8766,62,69,40
324.5141,325.1141,74,79,40
325.1141,325.2641,73,79,40
325.2641,325.4141,74,79,40
325.4141,325.5641,77,79,40
325.5641,325.7141,76,79,40
325.7141,326.0141,73,79,40
326.0141,326.2966,74,79,40
326.9141,327.2141,74,91,40
327.2141,327.8141,81,91,40
327.8141,327.9641,79,91,40
327.9641,328.1141,77,91,40
328.1141,328.4141,76,91,40
328.4141,328.6966,74,91,40
329.3141,329.6141,74,99,40
329.6141,330.2141,86,99,40
330.2141,330.5141,77,99,40
330.5141,330.8141,75,99,40
330.8141,331.4141,79,99,40
331.4141,331.7141,82,99,40
331.7141,332.0141,82,109,40
332.0141,332.6141,81,99,40
332.6141,332.9141,73,99,40
332.9141,333.4766,74,99,40
334.1141,334.4941,74,79,40
334.5141,334.6141,73,79,40
334.6141,334.7141,74,79,40
334.7141,334.8141,77,79,40
334.8141,334.9141,76,79,40
334.9141,335.0141,74,79,40
335.0141,335.1091,81,79,40
335.1141,335.2091,79,79,40
335.2141,335.2941,77,63,40
335.3141,335.6141,76,79,40
335.6141,335.8966,74,79,40
336.5141,336.6141,62,79,40
336.6141,336.7141,73,79,40
336.7141,336.8141,74,79,40
336.8141,336.9141,75,79,40
336.9141,337.0141,76,79,40
337.0141,337.1141,77,79,40
337.1141,337.2141,78,79,40
337.2141,337.3141,79,79,40
337.3141,337.4141,80,79,40
337.4141,337.4941,81,63,40
337.5141,337.59412,79,63,40
337.6141,337.6941,77,63,40
337.7141,338.0141,76,79,40
338.0141,338.2966,74,79,40
338.9141,339.0141,62,62,40
339.0141,339.1141,65,104,40
339.1141,339.2141,69,104,40
339.2141,339.3141,74,104,40
339.3141,339.4141,77,104,40
339.4141,339.5141,81,104,40
339.5141,339.6141,86,104,40
339.6141,339.7141,84,104,40
339.7141,339.8141,82,104,40
339.8141,339.8941,81,83,40
339.9141,339.9941,79,83,40
340.0141,340.09412,77,83,40
340.1141,340.2141,76,104,40
340.2141,340.3141,77,104,40
340.3141,340.4141,75,104,40
340.4141,340.5141,76,104,40
340.5141,340.5641,79,104,40
340.6141,340.6641,78,104,40
340.7141,340.8141,79,104,40
340.8141,340.9141,77,104,40
340.9141,341.0141,76,104,40
341.0141,341.1141,74,104,40
341.1141,341.2141,72,104,40
341.2141,341.3141,70,104,40
341.3141,341.4641,69,104,40
341.4641,341.6141,81,104,40
341.6141,341.6891,79,104,40
341.6891,341.7641,77,104,40
341.7641,341.8391,76,104,40
341.8391,341.9141,74,104,40
341.9141,341.9891,77,104,40
341.9891,342.0641,76,104,40
342.0641,342.1391,77,104,40
342.1391,342.2141,76,104,40
342.2141,342.2891,77,104,40
342.2891,342.3641,76,104,40
342.3641,342.4241,74,83,40
342.4391,342.4991,76,83,40
342.5141,343.0766,74,69,40
347.3141,347.9141,74,60,40
347.9141,348.5141,75,100,40
348.5141,348.8141,74,60,40
348.8141,348.9641,78,60,40
349.1141,349.2641,79,60,40
349.4141,349.5641,81,60,40
349.7141,349.8641,82,58,40
350.0141,350.1641,83,70,40
350.3141,350.4641,84,82,40
350.6141,350.7641,85,94,40
350.9141,351.1391,86,100,40
351.1391,351.2141,81,100,40
351.2141,351.4391,82,100,40
351.4391,351.5141,79,100,40
351.5141,351.8141,77,100,40
351.8141,352.1141,76,100,40
352.1141,352.3966,74,100,40
352.7141,352.8641,73,60,40
353.0141,353.1641,73,60,40
353.3141,353.4641,74,60,40
353.6141,353.7641,74,60,40
353.9141,354.0641,76,60,40
354.2141,354.2866,77,60,40
354.2891,354.3616,76,60,40
354.3641,354.4366,74,60,40
354.4391,354.4991,76,48,40
354.5141,354.8141,77,60,40
354.8141,354.9641,78,60,40
355.1141,355.2641,79,60,40
355.4141,355.5641,80,60,40
355.7141,355.9391,81,60,40
355.9391,356.0141,77,60,40
356.0141,356.2391,82,60,40
356.2391,356.3141,79,60,40
356.3141,356.6141,77,60,40
356.6141,356.6866,77,60,40
356.6891,356.7616,76,60,40
356.7641,356.8366,74,60,40
356.8391,356.8991,76,48,40
356.9141,357.4766,74,60,40
363.0141,363.1141,74,69,40
363.1141,363.2141,77,69,40
363.2141,363.3141,81,76,40
363.3141,363.3641,81,69,40
363.4141,363.4641,81,69,40
363.5141,363.7966,81,69,40
364.2141,364.3141,62,69,40
364.3141,364.4141,65,69,40
364.4141,364.5141,69,76,40
364.5141,364.5641,69,76,40
364.6141,364.6641,69,69,40
364.7141,364.99945,69,69,40
365.42117,365.5222,57,69,40
365.5222,365.6232,62,69,40
365.6232,365.7242,65,76,40
365.7242,365.77472,65,69,40
365.82523,365.8757,65,69,40
365.9262,366.21448,65,69,40
366.6405,366.74255,57,69,40
366.74255,366.84457,60,70,40
366.84457,366.94662,66,78,40
366.94662,366.99765,66,79,40
367.04868,367.0997,66,74,40
367.1507,367.44196,66,75,40
367.87234,367.97546,55,82,40
367.97546,368.07855,62,82,40
368.07855,368.18164,67,91,40
368.18164,368.2332,67,92,40
368.28473,368.33627,67,85,40
368.38782,368.6821,67,86,40
369.11697,369.22116,56,93,40
369.22116,369.32532,62,94,40
369.32532,369.42947,68,104,40
369.42947,369.48157,68,105,40
369.53366,369.58572,68,97,40
369.63782,369.93518,68,98,40
370.37466,370.47992,57,105,40
370.47992,370.58517,62,106,40
370.58517,370.69046,69,117,40
370.69046,370.74307,69,117,40
370.79572,370.84836,69,108,40
370.90097,371.2015,69,109,40
371.64566,371.75204,55,115,40
371.75204,371.85843,63,115,40
371.85843,371.9648,70,127,40
371.9648,372.018,70,127,40
372.0712,372.1244,70,115,40
372.17758,372.48132,70,115,40
373.1488,373.45587,69,106,40
373.801,374.12708,74,106,40
374.45676,374.76718,64,106,40
375.1161,375.44577,69,106,40
375.44577,375.61243,62,104,40
375.77908,375.94577,65,104,40
376.11243,376.27908,69,104,40
376.44577,376.52908,74,90,40
376.52908,376.61243,73,90,40
376.61243,376.693,71,90,40
376.69577,376.76242,73,72,40
376.77908,377.11618,74,104,40
377.11618,377.2847,69,104,40
377.45325,377.62567,77,104,40
377.79807,377.88428,77,90,40
377.88428,377.9705,76,90,40
377.9705,378.0567,74,90,40
378.0567,378.1429,76,90,40
378.1429,378.49173,74,90,40
378.49173,378.66617,77,104,40
378.84058,379.01913,81,104,40
379.19772,379.48343,69,127,40
379.19772,379.48343,76,127,40
379.19772,379.48343,85,127,40
379.7356,380.41663,62,127,40
379.7356,380.41663,86,127,40
379.7356,380.41663,74,127,40
383.49927,384.2204,74,20,40
0.3,0.45,57,48,40
0.6,0.75,57,48,40
0.9,1.05,57,48,40
1.5,1.65,57,48,40
1.8,1.95,57,48,40
2.1,2.25,57,48,40
2.7,2.85,58,48,40
3.0,3.15,58,48,40
3.3,3.45,58,48,40
3.9,4.05,65,48,40
4.2,4.5,65,48,40
4.5,4.8,62,48,40
5.1,5.4,62,48,40
5.4,5.7,61,48,40
5.7,6.0,64,48,40
6.3,6.45,61,36,40
6.6,6.75,61,48,40
6.9,7.05,61,48,40
7.2,7.35,62,48,40
7.5,7.8,67,48,40
7.8,8.1,65,48,40
8.1,8.4,64,48,40
8.4,8.7,65,48,40
8.7,9.0,67,45,40
9.0,9.3,65,54,40
9.3,9.6,64,64,40
9.6,9.9,62,60,40
9.9,10.05,69,60,40
10.2,10.35,69,60,40
10.5,10.65,69,60,40
11.1,11.25,69,60,40
11.4,11.55,69,60,40
11.7,11.85,69,60,40
12.3,12.45,62,60,40
12.6,12.75,62,60,40
12.9,13.05,62,60,40
13.5,13.65,77,60,40
13.8,14.1,77,60,40
14.1,14.4,74,60,40
14.4,15.15,74,60,40
15.15,15.3,73,60,40
15.3,15.45,77,36,40
15.45,15.6,76,36,40
15.6,16.2,79,48,40
16.2,16.5,77,48,40
16.5,16.8,76,48,40
16.8,17.1,69,48,40
17.1,17.25,70,48,40
17.25,17.4,67,48,40
17.4,17.55,67,48,40
17.55,17.7,65,48,40
17.7,17.85,64,48,40
17.85,18.0,67,48,40
18.0,18.5625,65,48,40
19.2,20.1,57,64,40
20.1,20.4,74,38,40
20.4,21.0,74,38,40
21.0,21.3,73,38,40
21.3,21.45,70,38,40
21.6,21.75,69,38,40
21.9,22.2,69,38,40
22.2,22.5,76,38,40
22.5,22.575,76,38,40
22.575,22.65,74,38,40
22.65,22.725,73,38,40
22.725,22.8,74,38,40
22.8,23.3625,73,38,40
24.0,24.9,57,64,40
24.9,25.2,81,38,40
25.2,25.275,81,38,40
25.275,25.35,79,38,40
25.35,25.425,81,38,40
25.425,25.5,79,38,40
25.5,25.575,78,38,40
25.575,25.65,79,38,40
25.65,25.8,81,38,40
25.8,26.1,82,38,40
26.1,26.25,73,38,40
26.4,26.55,74,38,40
26.7,26.85,76,38,40
27.0,27.3,76,38,40
27.3,27.375,76,38,40
27.375,27.45,74,38,40
27.45,27.525,73,38,40
27.525,27.6,74,38,40
27.6,28.2,73,64,40
28.5,28.65,77,80,40
28.65,28.8,74,80,40
28.8,28.95,73,80,40
28.95,29.1,68,104,40
29.1,29.25,69,56,40
29.25,29.4,68,56,40
29.4,29.55,69,56,40
29.55,29.7,68,56,40
29.7,29.85,69,56,40
29.85,30.0,65,56,40
30.0,30.2825,64,56,40
32.4,33.12,64,80,40
32.4,33.12,72,80,40
32.4,33.12,79,80,40
33.3,33.45,58,48,40
33.6,33.9,57,67,40
33.9,34.125,57,36,40
34.5,34.65,58,48,40
34.8,35.1,59,55,40
35.1,35.325,60,36,40
35.7,35.85,63,60,40
36.0,36.6,62,72,40
36.6,36.9,64,73,40
36.9,37.2,65,78,40
37.2,37.7625,60,82,40
38.1,38.4,67,65,40
38.4,38.7,65,67,40
38.7,39.3,67,70,40
39.3,39.9,68,75,40
39.9,40.5,69,80,40
40.5,41.4,69,85,40
41.4,41.55,72,48,40
41.55,41.7,70,48,40
41.7,41.85,69,48,40
41.85,42.0,67,48,40
42.0,42.6,65,48,40
42.6,42.8825,64,48,40
43.8,44.4,65,48,40
44.4,44.85,64,48,40
44.85,45.0,65,48,40
45.0,45.2825,64,48,40
46.2,46.5,68,48,40
46.5,46.8,65,48,40
46.8,47.4,65,48,40
47.4,47.6825,64,48,40
48.0,49.8,60,80,40
49.8,50.1,58,80,40
50.1,50.4,60,80,40
50.4,51.6,62,80,40
51.9,52.05,67,80,40
52.2,52.5,79,92,40
52.5,52.65,77,80,40
52.8,53.4,77,80,40
53.4,53.7,76,80,40
53.7,53.85,72,80,40
54.0,54.2825,72,48,40
54.6,54.8825,67,48,40
55.2,55.5,65,48,40
55.5,55.8,62,48,40
55.8,56.1,60,48,40
56.1,56.4,58,48,40
56.55,56.7,57,48,40
56.7,56.85,65,48,40
56.85,56.925,65,48,40
57.0,57.15,65,53,40
57.15,57.3,65,48,40
57.3,57.45,65,48,40
57.45,57.6,65,48,40
57.75,57.9,60,36,40
57.9,58.05,65,36,40
58.05,58.125,65,36,40
58.2,58.35,65,40,40
58.35,58.5,65,36,40
58.5,58.65,65,36,40
58.65,58.8,65,36,40
58.95,59.1,62,36,40
59.1,59.25,65,36,40
59.25,59.325,65,36,40
59.4,59.55,65,40,40
59.55,59.7,65,36,40
59.7,59.85,65,36,40
59.85,60.0,65,36,40
60.15,60.3,58,36,40
60.3,60.45,64,36,40
60.45,60.525,64,36,40
60.6,60.75,64,40,40
60.75,60.9,64,36,40
60.9,61.05,64,36,40
61.05,61.2,64,36,40
61.35,61.5,57,36,40
61.5,61.65,65,36,40
61.65,61.725,65,36,40
61.8,61.95,65,40,40
61.95,62.1,65,36,40
62.1,62.25,65,36,40
62.25,62.4,65,36,40
62.55,62.7,60,36,40
62.7,62.85,65,36,40
62.85,62.925,65,36,40
63.0,63.15,65,40,40
63.15,63.3,65,36,40
63.3,63.45,65,36,40
63.45,63.6,65,36,40
63.75,63.9,62,36,40
63.9,64.05,65,36,40
64.05,64.125,65,36,40
64.2,64.35,65,40,40
64.35,64.5,65,40,40
64.5,64.65,65,36,40
64.65,64.8,65,36,40
64.95,65.1,58,36,40
65.1,65.25,64,36,40
65.25,65.325,64,36,40
65.4,65.55,64,40,40
65.55,65.7,64,36,40
65.7,65.85,64,36,40
65.85,66.0,64,36,40
66.0,66.075,65,36,40
66.15,66.3,69,47,40
66.3,66.45,67,50,40
66.45,66.6,65,51,40
66.6,66.75,64,53,40
66.75,66.9,65,54,40
66.9,67.05,64,56,40
67.05,67.2,62,58,40
67.2,67.35,60,48,40
67.5,67.65,60,48,40
67.8,68.1,65,48,40
68.1,68.4,60,48,40
68.7,68.85,62,48,40
69.0,69.3,74,48,40
69.3,69.6,67,48,40
69.9,70.05,60,48,40
70.2,70.5,70,48,40
70.5,70.8,67,48,40
71.1,71.3825,62,48,40
71.4,71.7,74,48,40
71.7,72.0,69,48,40
72.3,72.45,60,80,40
72.6,72.9,72,80,40
72.9,73.2,69,80,40
73.5,73.65,62,80,40
73.8,74.1,74,80,40
74.1,74.4,70,80,40
74.4,74.7,69,80,40
74.7,75.3,65,80,40
75.3,75.6,64,80,40
75.6,76.2,65,48,40
76.2,76.8,66,99,40
76.8,76.95,67,48,40
77.1,77.25,69,48,40
77.4,77.55,70,48,40
77.7,77.85,72,48,40
78.0,78.15,73,55,40
78.15,78.3,74,48,40
78.3,78.375,70,48,40
78.45,78.525,67,48,40
78.6,78.9,65,48,40
78.9,79.2,64,48,40
79.2,79.8,65,55,40
79.8,80.4,66,96,40
80.4,80.55,67,48,40
80.7,80.85,69,48,40
81.0,81.15,70,48,40
81.3,81.45,72,48,40
81.6,81.75,73,55,40
81.75,81.9,74,55,40
81.9,81.975,70,48,40
82.05,82.125,67,48,40
82.2,82.5,65,48,40
82.5,82.8,64,48,40
82.8,82.9,65,34,40
82.9,83.0,69,34,40
83.0,83.1,72,34,40
83.1,83.15,72,34,40
83.2,83.25,72,34,40
83.3,83.35,72,34,40
83.4,83.5,72,34,40
83.5,83.6,72,34,40
83.6,83.7,72,34,40
83.7,83.8,72,34,40
83.8,83.895,72,34,40
83.9,83.98,72,34,40
84.0,84.1,72,34,40
84.1,84.2,72,34,40
84.2,84.3,72,34,40
84.3,84.4,72,34,40
84.4,84.5,72,34,40
84.5,84.6,72,34,40
84.6,84.7,72,34,40
84.7,84.8,72,34,40
84.8,84.9,72,34,40
84.9,85.0,72,34,40
85.0,85.1,72,34,40
85.1,85.2,72,34,40
85.2,85.3,72,34,40
85.3,85.4,77,34,40
85.4,85.5,77,34,40
85.5,85.6,77,34,40
85.6,85.7,77,34,40
85.7,85.8,77,34,40
85.8,85.9,77,34,40
85.9,86.0,77,34,40
86.0,86.1,77,34,40
86.1,86.195,77,34,40
86.2,86.295,77,34,40
86.3,86.38,77,34,40
86.4,86.5,77,34,40
86.5,86.6,77,34,40
86.6,86.7,77,34,40
86.7,86.8,77,34,40
86.8,86.9,77,34,40
86.9,87.0,77,34,40
87.0,87.1,77,34,40
87.1,87.2,79,34,40
87.2,87.3,77,34,40
87.3,87.4,76,34,40
87.4,87.5,74,34,40
87.5,87.6,76,34,40
87.6,87.8825,77,34,40
88.2,88.35,64,48,40
88.5,88.65,64,48,40
88.8,88.95,65,48,40
89.1,89.25,65,48,40
89.4,89.55,67,48,40
89.7,89.775,69,48,40
89.775,89.85,67,48,40
89.85,89.925,65,48,40
89.925,90.0,67,48,40
90.0,90.3,69,48,40
90.3,90.45,70,48,40
90.6,90.75,72,48,40
90.9,91.05,74,48,40
91.2,91.35,74,48,40
91.35,91.5,72,48,40
91.5,91.575,70,48,40
91.65,91.725,69,48,40
91.8,92.106125,69,48,40
92.106125,92.182655,69,48,40
92.182655,92.259186,67,48,40
92.259186,92.33572,65,48,40
92.33572,92.41225,67,48,40
92.41225,92.998184,65,48,40
93.35639,93.58246,82,58,40
93.59576,93.659584,79,70,40
93.675545,94.32771,77,58,40
94.65739,94.90464,70,58,40
94.90464,94.98705,67,58,40
94.98705,95.324135,65,58,40
95.324135,95.49267,60,48,40
95.66121,95.98592,60,48,40
96.703804,96.88028,68,66,40
97.05675,97.39711,68,68,40
98.15001,98.3352,67,74,40
98.52038,98.877975,67,76,40
99.57987,99.72987,57,48,40
99.879875,100.02987,57,48,40
100.17987,100.32987,57,48,40
100.77987,100.92987,57,48,40
101.07987,101.22987,57,48,40
101.379875,101.52987,57,48,40
101.97987,102.129875,58,48,40
102.27987,102.42987,58,48,40
102.57987,102.72987,58,48,40
103.17987,103.32987,65,48,40
103.47987,103.77987,65,48,40
103.77987,104.07987,62,48,40
104.379875,104.67987,62,48,40
104.67987,104.97987,61,48,40
104.97987,105.27987,64,48,40
105.57987,105.72987,61,36,40
105.879875,106.02987,61,48,40
106.17987,106.32987,61,48,40
106.47987,106.629875,62,48,40
106.77987,107.07987,67,48,40
107.07987,107.379875,65,48,40
107.379875,107.67987,64,48,40
107.67987,107.97987,65,48,40
107.97987,108.27987,67,45,40
108.27987,108.57987,65,54,40
108.57987,108.879875,64,64,40
108.879875,109.17987,62,60,40
109.17987,109.32987,69,60,40
109.47987,109.629875,69,60,40
109.77987,109.92987,69,60,40
110.379875,110.52987,69,60,40
110.67987,110.82987,69,60,40
110.97987,111.129875,69,60,40
111.57987,111.72987,62,60,40
111.879875,112.02987,62,60,40
112.17987,112.32987,62,60,40
112.77987,112.92987,77,60,40
113.07987,113.379875,77,60,40
113.379875,113.67987,74,60,40
113.67987,114.42987,74,60,40
114.42987,114.57987,73,60,40
114.57987,114.72987,77,36,40
114.72987,114.879875,76,36,40
114.879875,115.47987,79,48,40
115.47987,115.77987,77,48,40
115.77987,116.07987,76,48,40
116.07987,116.379875,69,48,40
116.379875,116.52987,70,48,40
116.52987,116.67987,67,48,40
116.67987,116.82987,67,48,40
116.82987,116.97987,65,48,40
116.97987,117.129875,64,48,40
117.129875,117.27987,67,48,40
117.27987,117.84237,65,48,40
118.47987,119.379875,57,64,40
119.379875,119.67987,74,38,40
119.67987,120.27987,74,38,40
120.27987,120.57987,73,38,40
120.57987,120.72987,70,38,40
120.879875,121.02987,69,38,40
121.17987,121.47987,69,38,40
121.47987,121.77987,76,38,40
121.77987,121.85487,76,38,40
121.85487,121.92987,74,38,40
121.92987,122.004875,73,38,40
122.004875,122.07987,74,38,40
122.07987,122.64237,73,38,40
123.27987,124.17987,57,64,40
124.17987,124.47987,81,38,40
124.47987,124.55487,81,38,40
124.55487,124.629875,79,38,40
124.629875,124.70487,81,38,40
124.70487,124.77987,79,38,40
124.77987,124.85487,78,38,40
124.85487,124.92987,79,38,40
124.92987,125.07987,81,38,40
125.07987,125.379875,82,38,40
125.379875,125.52987,73,38,40
125.67987,125.82987,74,38,40
125.97987,126.129875,76,38,40
126.27987,126.57987,76,38,40
126.57987,126.65487,76,38,40
126.65487,126.72987,74,38,40
126.72987,126.80487,73,38,40
126.80487,126.879875,74,38,40
126.879875,127.47987,73,64,40
127.77987,127.92987,77,80,40
127.92987,128.07986,74,80,40
128.07986,128.22987,73,80,40
128.22987,128.37987,68,104,40
128.37987,128.52988,69,56,40
128.52988,128.67987,68,56,40
128.67987,128.82986,69,56,40
128.82986,128.97987,68,56,40
128.97987,129.12987,69,56,40
129.12987,129.27988,65,56,40
129.27988,129.56238,64,56,40
131.67987,132.39987,64,80,40
131.67987,132.39987,72,80,40
131.67987,132.39987,79,80,40
132.57986,132.72987,58,48,40
132.87987,133.17987,57,67,40
133.17987,133.40488,57,36,40
133.77988,133.92987,58,48,40
134.07986,134.37987,59,55,40
134.37987,134.60487,60,36,40
134.97987,135.12987,63,60,40
135.27988,135.87987,62,72,40
135.87987,136.17987,64,73,40
136.17987,136.47987,65,78,40
136.47987,137.04237,60,82,40
137.37987,137.67987,67,65,40
137.67987,137.97987,65,67,40
137.97987,138.57986,67,70,40
138.57986,139.17987,68,75,40
139.17987,139.77988,69,80,40
139.77988,140.67987,69,85,40
140.67987,140.82986,72,48,40
140.82986,140.97987,70,48,40
140.97987,141.12987,69,48,40
141.12987,141.27988,67,48,40
141.27988,141.87987,65,48,40
141.87987,142.16237,64,48,40
143.07986,143.67987,65,48,40
143.67987,144.12987,64,48,40
144.12987,144.27988,65,48,40
144.27988,144.56238,64,48,40
145.47987,145.77988,68,48,40
145.77988,146.07986,65,48,40
146.07986,146.67987,65,48,40
146.67987,146.96237,64,48,40
147.27988,149.07986,60,80,40
149.07986,149.37987,58,80,40
149.37987,149.67987,60,80,40
149.67987,150.87987,62,80,40
151.17987,151.32986,67,80,40
151.47987,151.77988,79,92,40
151.77988,151.92987,77,80,40
152.07986,152.67987,77,80,40
152.67987,152.97987,76,80,40
152.97987,153.12987,72,80,40
153.27988,153.56238,72,48,40
153.87987,154.16237,67,48,40
154.47987,154.77988,65,48,40
154.77988,155.07986,62,48,40
155.07986,155.37987,60,48,40
155.37987,155.67987,58,48,40
155.82986,155.97987,57,48,40
155.97987,156.12987,65,48,40
156.12987,156.20486,65,48,40
156.27988,156.42987,65,53,40
156.42987,156.57986,65,48,40
156.57986,156.72987,65,48,40
156.72987,156.87987,65,48,40
157.02988,157.17987,60,36,40
157.17987,157.32986,65,36,40
157.32986,157.40488,65,36,40
157.47987,157.62987,65,40,40
157.62987,157.77988,65,36,40
157.77988,157.92987,65,36,40
157.92987,158.07986,65,36,40
158.22987,158.37987,62,36,40
158.37987,158.52988,65,36,40
158.52988,158.60487,65,36,40
158.67987,158.82986,65,40,40
158.82986,158.97987,65,36,40
158.97987,159.12987,65,36,40
159.12987,159.27988,65,36,40
159.42987,159.57986,58,36,40
159.57986,159.72987,64,36,40
159.72987,159.80487,64,36,40
159.87987,160.02988,64,40,40
160.02988,160.17987,64,36,40
160.17987,160.32986,64,36,40
160.32986,160.47987,64,36,40
160.62987,160.77988,57,36,40
160.77988,160.92987,65,36,40
160.92987,161.00487,65,36,40
161.07986,161.22987,65,40,40
161.22987,161.37987,65,36,40
161.37987,161.52988,65,36,40
161.52988,161.67987,65,36,40
161.82986,161.97987,60,36,40
161.97987,162.12987,65,36,40
162.12987,162.20486,65,36,40
162.27988,162.42987,65,40,40
162.42987,162.57986,65,36,40
162.57986,162.72987,65,36,40
162.72987,162.87987,65,36,40
163.02988,163.17987,62,36,40
163.17987,163.32986,65,36,40
163.32986,163.40488,65,36,40
163.47987,163.62987,65,40,40
163.62987,163.77988,65,40,40
163.77988,163.92987,65,36,40
163.92987,164.07986,65,36,40
164.22987,164.37987,58,36,40
164.37987,164.52988,64,36,40
164.52988,164.60487,64,36,40
164.67987,164.82986,64,40,40
164.82986,164.97987,64,36,40
164.97987,165.12987,64,36,40
165.12987,165.27988,64,36,40
165.27988,165.35487,65,36,40
165.42987,165.57986,69,47,40
165.57986,165.72987,67,50,40
165.72987,165.87987,65,51,40
165.87987,166.02988,64,53,40
166.02988,166.17987,65,54,40
166.17987,166.32986,64,56,40
166.32986,166.47987,62,58,40
166.47987,166.62987,60,48,40
166.77988,166.92987,60,48,40
167.07986,167.37987,65,48,40
167.37987,167.67987,60,48,40
167.97987,168.12987,62,48,40
168.27988,168.57986,74,48,40
168.57986,168.87987,67,48,40
169.17987,169.32986,60,48,40
169.47987,169.77988,70,48,40
169.77988,170.07986,67,48,40
170.37987,170.66237,62,48,40
170.67987,170.97987,74,48,40
170.97987,171.27988,69,48,40
171.57986,171.72987,60,80,40
171.87987,172.17987,72,80,40
172.17987,172.47987,69,80,40
172.77988,172.92987,62,80,40
173.07986,173.37987,74,80,40
173.37987,173.67987,70,80,40
173.67987,173.97987,69,80,40
173.97987,174.57986,65,80,40
174.57986,174.87987,64,80,40
174.87987,175.47987,65,48,40
175.47987,176.07986,66,99,40
176.07986,176.22987,67,48,40
176.37987,176.52988,69,48,40
176.67987,176.82986,70,48,40
176.97987,177.12987,72,48,40
177.27988,177.42987,73,55,40
177.42987,177.57986,74,48,40
177.57986,177.65488,70,48,40
177.72987,177.80487,67,48,40
177.87987,178.17987,65,48,40
178.17987,178.47987,64,48,40
178.47987,179.07986,65,55,40
179.07986,179.67987,66,96,40
179.67987,179.82986,67,48,40
179.97987,180.12987,69,48,40
180.27988,180.42987,70,48,40
180.57986,180.72987,72,48,40
180.87987,181.02988,73,55,40
181.02988,181.17987,74,55,40
181.17987,181.25487,70,48,40
181.32986,181.40488,67,48,40
181.47987,181.77988,65,48,40
181.77988,182.07986,64,48,40
182.07986,182.17987,65,34,40
182.17987,182.27988,69,34,40
182.27988,182.37987,72,34,40
182.37987,182.42987,72,34,40
182.47987,182.52988,72,34,40
182.57986,182.62987,72,34,40
182.67987,182.77988,72,34,40
182.77988,182.87987,72,34,40
182.87987,182.97987,72,34,40
182.97987,183.07986,72,34,40
183.07986,183.17487,72,34,40
183.17987,183.25987,72,34,40
183.27988,183.37987,72,34,40
183.37987,183.47987,72,34,40
183.47987,183.57986,72,34,40
183.57986,183.67987,72,34,40
183.67987,183.77988,72,34,40
183.77988,183.87987,72,34,40
183.87987,183.97987,72,34,40
183.97987,184.07986,72,34,40
184.07986,184.17987,72,34,40
184.17987,184.27988,72,34,40
184.27988,184.37987,72,34,40
184.37987,184.47987,72,34,40
184.47987,184.57986,72,34,40
184.57986,184.67987,77,34,40
184.67987,184.77988,77,34,40
184.77988,184.87987,77,34,40
184.87987,184.97987,77,34,40
184.97987,185.07986,77,34,40
185.07986,185.17987,77,34,40
185.17987,185.27988,77,34,40
185.27988,185.37987,77,34,40
185.37987,185.47487,77,34,40
185.47987,185.57487,77,34,40
185.57986,185.65987,77,34,40
185.67987,185.77988,77,34,40
185.77988,185.87987,77,34,40
185.87987,185.97987,77,34,40
185.97987,186.07986,77,34,40
186.07986,186.17987,77,34,40
186.17987,186.27988,77,34,40
186.27988,186.37987,77,34,40
186.37987,186.47987,79,34,40
186.47987,186.57986,77,34,40
186.57986,186.67987,76,34,40
186.67987,186.77988,74,34,40
186.77988,186.87987,76,34,40
186.87987,187.16237,77,34,40
187.47987,187.62987,64,48,40
187.77988,187.92987,64,48,40
188.07986,188.22987,65,48,40
188.37987,188.52988,65,48,40
188.67987,188.82986,67,48,40
188.97987,189.05487,69,48,40
189.05487,189.12987,67,48,40
189.12987,189.20486,65,48,40
189.20486,189.27988,67,48,40
189.27988,189.57986,69,48,40
189.57986,189.72987,70,48,40
189.87987,190.02988,72,48,40
190.17987,190.32986,74,48,40
190.47987,190.62987,74,48,40
190.62987,190.77988,72,48,40
190.77988,190.85487,70,48,40
190.92987,191.00487,69,48,40
191.07986,191.37987,69,48,40
191.37987,191.45486,69,48,40
191.45486,191.52988,67,48,40
191.52988,191.60487,65,48,40
191.60487,191.67987,67,48,40
191.67987,192.24237,65,48,40
192.57986,192.79237,82,58,40
192.80487,192.86487,79,70,40
192.87987,193.47987,77,58,40
193.78915,194.0211,70,58,40
194.0211,194.09843,67,58,40
194.09843,194.41757,65,58,40
194.41757,194.57715,60,48,40
194.73672,195.04716,60,48,40
195.74089,196.08572,68,51,40
196.08572,197.17038,68,55,40
197.17038,197.54074,65,65,40
197.54074,197.92535,65,68,40
197.92535,198.30998,62,83,40
198.30998,198.60997,63,36,40
198.60997,198.75998,58,45,40
198.90997,199.05998,58,45,40
199.20998,199.35997,58,45,40
199.80998,199.95998,58,45,40
200.10997,200.25998,58,45,40
200.40997,200.55998,58,45,40
201.00998,201.15997,59,45,40
201.30998,201.45998,59,45,40
201.60997,201.75998,59,45,40
202.20998,202.35997,61,45,40
202.50998,202.65997,61,45,40
202.80998,202.95998,61,45,40
203.40997,203.55998,59,45,40
203.70998,203.85997,59,45,40
204.00998,204.15997,59,45,40
204.60997,204.75998,58,45,40
204.90997,205.05998,58,45,40
205.20998,205.35997,58,45,40
205.50998,210.30998,57,50,40
210.30998,212.10997,60,28,40
212.10997,212.70998,59,37,40
212.70998,213.90997,64,44,40
214.20998,214.80998,62,60,40
214.80998,215.10997,60,67,40
215.10997,216.30998,60,70,40
216.30998,217.50998,59,83,40
217.50998,217.80998,57,97,40
217.80998,218.10997,77,80,40
218.10997,218.40997,76,80,40
218.40997,218.55998,74,48,40
218.70998,218.85997,72,48,40
219.00998,219.15997,71,48,40
219.30998,219.45998,69,48,40
219.60997,219.75998,68,48,40
221.10997,221.40997,61,96,40
221.40997,222.12997,61,40,40
222.30998,222.60997,62,48,40
222.60997,222.90997,65,80,40
222.90997,223.11998,64,80,40
223.20998,223.35997,62,48,40
223.50998,223.65997,60,48,40
223.80998,223.95998,59,48,40
224.10997,224.25998,57,48,40
224.40997,224.55998,56,48,40
227.10997,228.30998,70,60,40
228.30998,229.20998,58,60,40
229.20998,229.50998,58,60,40
229.50998,229.58498,60,60,40
229.58498,229.65997,58,60,40
229.65997,229.73497,60,60,40
229.73497,229.80998,58,60,40
229.80998,229.88498,60,60,40
229.88498,229.95998,58,60,40
229.95998,230.10997,57,60,40
230.10997,230.40997,58,60,40
230.40997,230.70998,58,60,40
230.70998,231.90997,58,60,40
231.90997,232.50998,57,60,40
234.30998,235.50998,75,100,40
235.50998,236.40997,63,100,40
236.40997,236.70998,63,100,40
236.70998,236.78497,65,100,40
236.78497,236.85997,63,100,40
236.85997,236.93498,65,100,40
236.93498,237.00998,63,100,40
237.00998,237.08498,65,100,40
237.08498,237.15997,63,100,40
237.15997,237.30998,62,100,40
237.30998,237.60997,63,100,40
237.60997,237.90997,63,100,40
237.90997,239.10997,63,100,40
239.10997,239.67247,62,80,40
240.40997,240.50998,67,63,40
240.50998,240.60997,70,63,40
240.60997,240.70998,74,70,40
240.70998,240.75998,74,63,40
240.80998,240.85997,74,63,40
240.90997,241.19247,74,63,40
242.10997,243.30998,79,48,40
243.30998,243.45998,77,48,40
243.45998,243.60997,76,48,40
243.60997,243.75998,74,48,40
243.75998,243.90997,72,48,40
243.90997,244.20998,70,48,40
244.20998,244.50998,69,48,40
245.20998,245.30998,65,55,40
245.30998,245.40997,69,55,40
245.40997,245.50998,72,61,40
245.50998,245.55998,72,61,40
245.60997,245.65997,72,55,40
245.70998,245.99248,72,55,40
246.90997,248.10997,77,48,40
248.10997,248.25998,76,48,40
248.25998,248.40997,74,48,40
248.40997,248.55998,72,48,40
248.55998,248.70998,70,48,40
248.70998,249.00998,69,48,40
249.00998,249.29248,67,48,40
251.70998,252.90997,79,77,40
252.90997,253.50998,73,87,40
253.50998,253.80998,74,92,40
253.80998,254.10997,69,94,40
254.10997,254.40997,70,97,40
254.40997,255.00998,66,99,40
255.00998,255.60997,67,80,40
255.60997,255.90997,68,80,40
255.90997,256.50998,69,80,40
256.80997,257.03497,81,48,40
257.03497,257.11,77,48,40
257.11,257.6725,76,48,40
258.00998,258.22247,69,48,40
258.235,258.29498,65,48,40
258.30997,259.00998,64,48,40
259.00998,259.11,57,63,40
259.11,259.20996,61,63,40
259.20996,259.30997,64,70,40
259.30997,259.36,64,70,40
259.40997,259.45996,64,63,40
259.50998,260.70996,64,63,40
259.50998,260.70996,61,63,40
260.70996,261.30997,62,80,40
260.70996,261.30997,65,80,40
261.30997,261.36,65,55,40
261.30997,261.36,62,55,40
261.40997,261.50998,58,55,40
261.50998,261.61,62,55,40
261.61,261.70996,65,61,40
261.70996,261.75998,65,61,40
261.80997,261.86,65,55,40
261.90997,263.11,65,55,40
261.90997,263.11,62,55,40
263.11,263.81525,55,80,40
263.11,263.81525,64,80,40
263.81525,263.9205,61,55,40
263.9205,264.02576,64,55,40
264.02576,264.131,67,61,40
264.131,264.18365,67,61,40
264.2363,264.2889,67,55,40
264.34155,265.0082,57,55,40
264.34155,265.0082,67,55,40
265.0082,265.36115,67,48,40
265.0082,265.36115,57,48,40
266.0141,266.1641,57,48,40
266.3141,266.4641,57,48,40
266.6141,266.7641,57,48,40
267.2141,267.3641,57,48,40
267.5141,267.6641,57,48,40
267.8141,267.9641,57,48,40
268.4141,268.5641,58,48,40
268.7141,268.8641,58,48,40
269.0141,269.1641,58,48,40
269.6141,269.7641,65,48,40
269.9141,270.2141,65,48,40
270.2141,270.5141,62,48,40
270.8141,271.1141,62,48,40
271.1141,271.4141,61,48,40
271.4141,271.7141,64,48,40
272.0141,272.1641,61,36,40
272.3141,272.4641,61,48,40
272.6141,272.7641,61,48,40
272.9141,273.0641,62,48,40
273.2141,273.5141,67,48,40
273.5141,273.8141,65,48,40
273.8141,274.1141,64,48,40
274.1141,274.4141,65,48,40
274.4141,274.7141,67,45,40
274.7141,275.0141,65,54,40
275.0141,275.3141,64,64,40
275.3141,275.6141,62,60,40
275.6141,275.7641,69,60,40
275.9141,276.0641,69,60,40
276.2141,276.3641,69,60,40
276.8141,276.9641,69,60,40
277.1141,277.2641,69,60,40
277.4141,277.5641,69,60,40
278.0141,278.1641,62,60,40
278.3141,278.4641,62,60,40
278.6141,278.7641,62,60,40
279.2141,279.3641,77,60,40
279.5141,279.8141,77,60,40
279.8141,280.1141,74,60,40
280.1141,280.8641,74,60,40
280.8641,281.0141,73,60,40
281.0141,281.1641,77,36,40
281.1641,281.3141,76,36,40
281.3141,281.9141,79,48,40
281.9141,282.2141,77,48,40
282.2141,282.5141,76,48,40
282.5141,282.8141,69,48,40
282.8141,282.9641,70,48,40
282.9641,283.1141,67,48,40
283.1141,283.2641,67,48,40
283.2641,283.4141,65,48,40
283.4141,283.5641,64,48,40
283.5641,283.7141,67,48,40
283.7141,284.2766,65,48,40
284.9141,285.8141,57,64,40
285.8141,286.1141,74,38,40
286.1141,286.7141,74,38,40
286.7141,287.0141,73,38,40
287.0141,287.1641,70,38,40
287.3141,287.4641,69,38,40
287.6141,287.9141,69,38,40
287.9141,288.2141,76,38,40
288.2141,288.2891,76,38,40
288.2891,288.3641,74,38,40
288.3641,288.4391,73,38,40
288.4391,288.5141,74,38,40
288.5141,289.0766,73,38,40
289.7141,290.6141,57,64,40
290.6141,290.9141,81,38,40
290.9141,290.9891,81,38,40
290.9891,291.0641,79,38,40
291.0641,291.1391,81,38,40
291.1391,291.2141,79,38,40
291.2141,291.2891,78,38,40
291.2891,291.3641,79,38,40
291.3641,291.5141,81,38,40
291.5141,291.8141,82,38,40
291.8141,291.9641,73,38,40
292.1141,292.2641,74,38,40
292.4141,292.5641,76,38,40
292.7141,293.0141,76,38,40
293.0141,293.0891,76,38,40
293.0891,293.1641,74,38,40
293.1641,293.2391,73,38,40
293.2391,293.3141,74,38,40
293.3141,293.9141,73,64,40
294.2141,294.3641,77,80,40
294.3641,294.5141,74,80,40
294.5141,294.6641,73,80,40
294.6641,294.8141,68,104,40
294.8141,294.9641,69,56,40
294.9641,295.1141,68,56,40
295.1141,295.2641,69,56,40
295.2641,295.4141,68,56,40
295.4141,295.5641,69,56,40
295.5641,295.7141,65,56,40
295.7141,295.9966,64,56,40
298.1141,299.0141,64,72,40
298.1141,299.0141,73,72,40
298.1141,299.0141,55,72,40
298.1141,299.0141,82,72,40
299.0141,299.3141,61,48,40
299.3141,299.6141,62,48,40
299.6141,299.7641,62,48,40
300.2141,300.3641,62,36,40
300.8141,300.9641,63,36,40
301.4141,301.5641,66,36,40
301.7141,302.0141,69,60,40
302.0141,302.2966,67,36,40
302.6141,302.9141,64,64,40
302.9141,303.2141,65,68,40
303.2141,303.5141,66,73,40
303.5141,303.8141,67,77,40
303.8141,304.1141,68,81,40
304.1141,304.4141,65,86,40
304.4141,304.6966,64,48,40
305.3141,306.5141,69,67,40
306.8141,307.4141,69,61,40
307.4141,308.0141,69,70,40
308.0141,308.3141,67,80,40
308.3141,308.6141,74,84,40
308.6141,308.9141,70,76,40
308.9141,309.5141,65,56,40
309.5141,309.7966,64,48,40
310.7141,310.8641,74,48,40
311.0141,311.1641,74,48,40
311.3141,311.7641,73,48,40
311.7641,311.9141,74,48,40
311.9141,312.1966,73,48,40
313.1141,313.4141,77,48,40
313.4141,313.7141,74,48,40
313.7141,314.3141,74,48,40
314.3141,314.5966,73,48,40
314.9141,316.7141,57,80,40
316.7141,317.0141,55,80,40
317.0141,317.3141,57,80,40
317.3141,318.8141,59,80,40
318.8141,319.1141,64,80,40
319.1141,319.4141,76,80,40
319.4141,319.5641,74,80,40
319.7141,320.3141,74,80,40
320.3141,320.6141,73,80,40
320.6141,320.7641,69,80,40
320.9141,321.1966,69,48,40
321.5141,321.7966,64,48,40
322.1141,322.7141,62,48,40
322.7141,323.3141,57,48,40
323.4641,323.6141,57,45,40
323.6141,323.7641,62,45,40
323.7641,323.8391,62,45,40
323.9141,324.0641,62,45,40
324.0641,324.2141,62,45,40
324.2141,324.3641,62,45,40
324.3641,324.5141,62,45,40
324.6641,324.8141,57,36,40
324.8141,324.9641,62,36,40
324.9641,325.0391,62,36,40
325.1141,325.2641,62,36,40
325.2641,325.4141,62,36,40
325.4141,325.5641,62,36,40
325.5641,325.7141,62,36,40
325.8641,326.0141,58,36,40
326.0141,326.1641,62,36,40
326.1641,326.2391,62,36,40
326.3141,326.4641,62,36,40
326.4641,326.6141,62,36,40
326.6141,326.7641,62,36,40
326.7641,326.9141,62,36,40
327.0641,327.2141,57,36,40
327.2141,327.3641,65,36,40
327.3641,327.4391,65,36,40
327.5141,327.6641,65,36,40
327.6641,327.8141,65,36,40
327.8141,327.9641,65,36,40
327.9641,328.1141,65,36,40
328.2641,328.4141,62,36,40
328.4141,328.5641,65,36,40
328.5641,328.6391,65,36,40
328.7141,328.8641,65,36,40
328.8641,329.0141,65,36,40
329.0141,329.1641,65,36,40
329.1641,329.3141,65,36,40
329.4641,329.6141,62,36,40
329.6141,329.7641,69,36,40
329.7641,329.8391,69,36,40
329.9141,330.0641,69,36,40
330.0641,330.2141,69,36,40
330.2141,330.3641,69,36,40
330.3641,330.5141,69,36,40
330.6641,330.8141,67,36,40
330.8141,330.9641,70,36,40
330.9641,331.0391,70,36,40
331.1141,331.2641,70,36,40
331.2641,331.4141,70,36,40
331.4141,331.5641,67,36,40
331.5641,331.7141,67,36,40
331.8641,332.0141,64,36,40
332.0141,332.1641,65,36,40
332.1641,332.2391,65,36,40
332.3141,332.4641,65,36,40
332.4641,332.6141,65,36,40
332.6141,332.7641,67,36,40
332.7641,332.9141,67,36,40
332.9141,332.9891,65,36,40
333.0641,333.2141,70,63,40
333.2141,333.3641,69,66,40
333.3641,333.5141,68,69,40
333.5141,333.6641,69,73,40
333.6641,333.8141,67,76,40
333.8141,333.9641,65,79,40
333.9641,334.1141,64,83,40
334.1141,334.2641,62,100,40
334.4141,334.5641,62,36,40
334.7141,335.0141,69,36,40
335.0141,335.3141,65,36,40
335.6141,335.7641,64,36,40
335.9141,336.2141,70,36,40
336.2141,336.5141,67,36,40
336.8141,336.9641,62,36,40
337.1141,337.4141,74,36,40
337.4141,337.7141,69,36,40
338.0141,338.1641,62,36,40
338.3141,338.6141,74,36,40
338.6141,338.9141,70,36,40
339.2141,339.3641,69,60,40
339.5141,339.8141,77,60,40
339.8141,340.1141,74,60,40
340.4141,340.5641,58,60,40
340.7141,341.0141,70,60,40
341.0141,341.3141,67,60,40
341.3141,341.6141,65,60,40
341.6141,342.2141,62,60,40
342.2141,342.5141,61,60,40
342.5141,343.1141,62,36,40
343.1141,343.7141,63,100,40
343.7141,344.0141,62,48,40
344.0141,344.1641,66,48,40
344.3141,344.4641,67,48,40
344.6141,344.7641,69,48,40
344.9141,345.0641,70,59,40
345.2141,345.3641,71,71,40
345.5141,345.6641,72,83,40
345.8141,345.9641,73,94,40
346.1141,346.3391,74,92,40
346.3391,346.4141,69,92,40
346.4141,346.6391,70,92,40
346.6391,346.7141,67,92,40
346.7141,347.0141,65,92,40
347.0141,347.3141,64,80,40
347.3141,347.9141,62,48,40
347.9141,348.5141,63,100,40
348.5141,348.8141,62,48,40
348.8141,348.9641,66,48,40
349.1141,349.2641,67,48,40
349.4141,349.5641,69,48,40
349.7141,349.8641,70,58,40
350.0141,350.1641,71,70,40
350.3141,350.4641,72,82,40
350.6141,350.7641,73,94,40
350.9141,351.1391,74,80,40
351.1391,351.2141,69,80,40
351.2141,351.4391,70,80,40
351.4391,351.5141,67,80,40
351.5141,351.8141,65,80,40
351.8141,352.1141,64,80,40
352.1141,352.2141,62,80,40
352.2141,352.3141,65,80,40
352.3141,352.4141,69,80,40
352.4141,352.4641,69,80,40
352.5141,352.5641,69,48,40
352.6141,352.6641,69,48,40
352.7141,352.7891,69,48,40
352.8141,352.8891,69,48,40
352.9141,352.9891,69,48,40
353.0141,353.0891,69,48,40
353.1141,353.1891,69,48,40
353.2141,353.2891,69,48,40
353.3141,353.3891,69,48,40
353.4141,353.4891,69,48,40
353.5141,353.5891,69,48,40
353.6141,353.6891,69,48,40
353.7141,353.7891,69,48,40
353.8141,353.8891,69,48,40
353.9141,353.9891,69,48,40
354.0141,354.0891,69,48,40
354.1141,354.1891,69,48,40
354.2141,354.2891,69,48,40
354.3141,354.3891,69,48,40
354.4141,354.4891,69,48,40
354.5141,354.5891,69,48,40
354.6141,354.6891,74,48,40
354.7141,354.7891,74,48,40
354.8141,354.8891,74,48,40
354.9141,354.9891,74,48,40
355.0141,355.0891,74,48,40
355.1141,355.1891,74,48,40
355.2141,355.2891,74,48,40
355.3141,355.3891,74,48,40
355.4141,355.4891,74,48,40
355.5141,355.5891,74,48,40
355.6141,355.6891,74,48,40
355.7141,355.7891,74,48,40
355.8141,355.8891,74,48,40
355.9141,355.9891,74,48,40
356.0141,356.0891,74,48,40
356.1141,356.1891,74,48,40
356.2141,356.2891,74,48,40
356.3141,356.3891,74,48,40
356.4141,356.4891,76,48,40
356.5141,356.5891,74,48,40
356.6141,356.6891,73,48,40
356.7141,356.7891,71,48,40
356.8141,356.8891,73,48,40
356.9141,357.1966,74,48,40
357.5141,357.6641,61,48,40
357.8141,357.9641,61,48,40
358.1141,358.2641,62,48,40
358.4141,358.5641,62,48,40
358.7141,358.8641,64,48,40
359.0141,359.0866,65,48,40
359.0891,359.1616,64,48,40
359.1641,359.2366,62,48,40
359.2391,359.2991,64,48,40
359.3141,359.6141,65,110,40
359.6141,359.8966,66,48,40
360.5141,360.8141,67,110,40
360.8141,361.0966,68,48,40
361.7141,361.9391,69,60,40
361.9391,362.0141,65,60,40
362.0141,362.2391,70,60,40
362.2391,362.3141,67,60,40
362.3141,362.6141,65,60,40
362.6141,362.6891,65,60,40
362.6891,362.7641,64,60,40
362.7641,362.8391,62,60,40
362.8391,362.9141,64,60,40
362.9141,363.4766,62,60,40
363.8141,364.0266,79,60,40
364.0391,364.0991,76,60,40
364.1141,364.7141,74,60,40
365.01712,365.24442,67,60,40
365.24442,365.32016,64,60,40
365.32016,365.6232,62,60,40
365.6232,365.9262,57,60,40
365.9262,366.21448,57,60,40
366.84457,366.99765,57,47,40
367.1507,367.44196,57,49,40
368.07855,368.2332,57,54,40
368.38782,368.6821,57,56,40
369.32532,369.48157,59,62,40
369.63782,369.93518,59,64,40
370.58517,370.74307,62,70,40
370.90097,371.2015,62,71,40
371.85843,372.018,63,80,40
372.17758,372.50015,63,80,40
372.50015,372.82272,67,80,40
372.82272,373.4749,67,80,40
373.4749,374.12708,65,80,40
374.12708,374.45676,64,80,40
374.45676,374.7864,62,80,40
374.7864,375.44577,61,80,40
375.44577,375.55685,62,48,40
375.55685,375.66797,65,48,40
375.66797,375.77908,69,48,40
375.77908,375.8902,62,48,40
375.8902,376.0013,65,48,40
376.0013,376.11243,69,48,40
376.11243,376.22354,62,48,40
376.22354,376.33466,65,48,40
376.33466,376.44577,69,48,40
376.44577,376.55685,64,48,40
376.55685,376.64575,67,80,40
376.66797,376.75687,69,80,40
376.77908,376.89145,62,48,40
376.89145,377.0038,65,48,40
377.0038,377.11618,69,48,40
377.11618,377.22852,62,48,40
377.22852,377.34088,65,48,40
377.34088,377.45325,69,48,40
377.45325,377.56818,62,48,40
377.56818,377.68314,65,48,40
377.68314,377.79807,69,48,40
377.79807,377.91302,64,48,40
377.91302,378.02795,67,48,40
378.02795,378.1429,69,48,40
378.1429,378.2592,62,48,40
378.2592,378.37546,65,48,40
378.37546,378.49173,69,48,40
378.49173,378.60803,62,48,40
378.60803,378.7243,65,48,40
378.7243,378.84058,69,48,40
378.84058,378.95963,62,48,40
378.95963,379.07867,65,48,40
379.07867,379.19772,69,55,40
379.19772,379.31677,64,92,40
379.31677,379.41202,67,92,40
379.43582,379.53104,69,92,40
379.7356,380.41663,57,101,40
379.7356,380.41663,65,101,40
0.3,0.45,53,45,41
0.6,0.75,53,45,41
0.9,1.05,53,45,41
1.5,1.65,53,45,41
1.8,1.95,53,45,41
2.1,2.25,53,45,41
2.7,2.85,53,45,41
3.0,3.15,53,45,41
3.3,3.45,53,45,41
3.9,4.05,57,45,41
4.2,4.35,57,45,41
4.5,4.65,57,45,41
5.1,5.25,58,45,41
5.4,5.55,58,45,41
5.7,5.85,58,45,41
6.3,6.45,52,34,41
6.6,6.75,52,45,41
6.9,7.05,52,45,41
7.2,7.77,50,60,41
8.7,9.0,64,42,41
9.0,9.3,62,51,41
9.3,9.6,61,60,41
9.6,9.9,62,56,41
9.9,10.05,65,56,41
10.2,10.35,65,56,41
10.5,10.65,65,56,41
11.1,11.25,66,56,41
11.4,11.55,66,56,41
11.7,11.85,66,56,41
12.3,12.45,67,56,41
12.6,12.75,67,56,41
12.9,13.05,67,56,41
13.5,13.65,68,56,41
13.8,13.95,68,56,41
14.1,14.25,68,56,41
14.4,15.0,68,56,41
15.0,15.6,69,56,41
15.9,16.2,57,45,41
16.2,16.5,59,45,41
16.5,16.8,61,45,41
16.8,17.1,62,45,41
17.1,17.4,55,45,41
17.4,17.7,57,45,41
17.7,18.0,57,45,41
18.0,18.5625,62,45,41
20.1,20.4,65,36,41
20.4,20.475,65,36,41
20.475,20.55,64,36,41
20.55,20.625,65,36,41
20.625,20.7,64,36,41
20.7,20.775,62,36,41
20.775,20.85,64,36,41
20.85,21.0,65,36,41
21.0,21.3,67,36,41
21.3,21.6,67,36,41
21.6,21.9,65,36,41
21.9,22.2,64,36,41
22.2,22.4825,62,36,41
23.1,23.25,69,53,41
23.25,23.4,68,55,41
23.4,23.55,69,58,41
23.55,23.7,68,60,41
23.7,23.85,69,62,41
23.85,24.0,68,65,41
24.0,24.9,69,67,41
24.9,25.2,65,36,41
25.2,25.275,65,36,41
25.275,25.35,64,36,41
25.35,25.425,65,36,41
25.425,25.5,64,36,41
25.5,25.575,62,36,41
25.575,25.65,64,36,41
25.65,25.8,65,36,41
25.8,26.1,67,36,41
26.1,26.4,67,36,41
26.4,26.7,65,36,41
26.7,27.3,69,36,41
27.3,27.6,71,36,41
27.6,28.1625,64,36,41
29.7,29.85,65,75,41
29.85,30.0,62,75,41
30.0,30.15,61,75,41
30.15,30.3,56,98,41
30.3,30.45,57,69,41
30.45,30.6,56,53,41
30.6,30.75,57,53,41
30.75,30.9,56,53,41
30.9,31.05,57,53,41
31.05,31.2,53,53,41
31.2,31.4825,52,53,41
32.4,33.12,60,75,41
32.4,33.12,48,75,41
33.3,33.45,55,45,41
33.6,33.9,53,63,41
33.9,34.125,53,34,41
34.5,34.65,53,45,41
34.8,35.3625,53,45,41
35.7,35.85,60,60,41
36.0,36.3,58,72,41
36.3,36.6,60,69,41
36.6,36.9,58,73,41
36.9,37.2,57,78,41
37.2,37.7625,55,82,41
38.1,38.4,60,65,41
38.4,39.84,65,67,41
39.9,40.2,65,80,41
40.2,40.5,64,82,41
40.5,40.8,63,85,41
40.8,41.4,62,87,41
41.7,41.85,55,45,41
41.85,42.0,62,45,41
42.0,42.5625,60,45,41
45.0,45.45,48,113,41
45.45,45.6,49,92,41
45.6,45.675,51,92,41
45.675,45.75,49,92,41
45.75,45.825,51,52,41
45.825,45.9,49,52,41
45.9,45.975,51,52,41
45.975,46.05,49,52,41
46.05,46.125,51,52,41
46.125,46.2,49,52,41
46.2,46.275,51,52,41
46.275,46.35,49,52,41
46.35,46.425,51,52,41
46.425,46.5,49,52,41
46.5,46.575,51,52,41
46.575,46.65,49,52,41
46.65,46.725,48,52,41
46.725,46.785,49,55,41
46.8,47.3625,48,52,41
49.2,50.7,65,75,41
50.7,50.85,55,75,41
51.0,51.3,67,86,41
51.3,51.45,65,75,41
51.6,52.2,65,75,41
52.2,52.5,64,75,41
52.5,53.1,62,75,41
53.1,53.4,60,75,41
53.4,53.7,69,86,41
53.7,53.85,67,75,41
54.0,54.2825,65,45,41
54.6,54.8825,65,45,41
55.2,55.5,60,45,41
55.5,55.8,58,45,41
55.8,56.1,57,45,41
56.1,56.4,55,45,41
56.55,56.7,53,45,41
56.7,56.85,57,45,41
56.85,56.925,57,45,41
57.0,57.15,57,50,41
57.15,57.3,57,45,41
57.3,57.45,57,45,41
57.45,57.6,57,45,41
57.75,57.9,57,34,41
57.9,58.05,60,34,41
58.05,58.125,60,34,41
58.2,58.35,60,37,41
58.35,58.5,60,34,41
58.5,58.65,60,34,41
58.65,58.8,60,34,41
58.95,59.1,55,34,41
59.1,59.25,62,34,41
59.25,59.325,62,34,41
59.4,59.55,62,37,41
59.55,59.7,62,34,41
59.7,59.85,62,34,41
59.85,60.0,62,34,41
60.15,60.3,55,34,41
60.3,60.45,58,34,41
60.45,60.525,58,34,41
60.6,60.75,58,37,41
60.75,60.9,58,34,41
60.9,61.05,58,34,41
61.05,61.2,58,34,41
61.35,61.5,53,34,41
61.5,61.65,57,34,41
61.65,61.725,57,34,41
61.8,61.95,57,37,41
61.95,62.1,57,34,41
62.1,62.25,57,34,41
62.25,62.4,57,34,41
62.55,62.7,57,34,41
62.7,62.85,60,34,41
62.85,62.925,60,34,41
63.0,63.15,60,37,41
63.15,63.3,60,34,41
63.3,63.45,60,34,41
63.45,63.6,60,34,41
63.75,63.9,55,34,41
63.9,64.05,62,34,41
64.05,64.125,62,34,41
64.2,64.35,62,37,41
64.35,64.5,62,34,41
64.5,64.65,62,34,41
64.65,64.8,62,34,41
64.95,65.1,55,34,41
65.1,65.25,58,34,41
65.25,65.325,58,34,41
65.4,65.55,58,37,41
65.55,65.7,58,34,41
65.7,65.85,58,34,41
65.85,66.0,58,34,41
66.0,66.075,57,34,41
66.15,66.3,65,47,41
66.3,66.45,64,50,41
66.45,66.6,62,51,41
66.6,66.75,61,53,41
66.75,66.9,62,54,41
66.9,67.05,60,56,41
67.05,67.2,58,58,41
67.2,67.275,57,34,41
67.35,67.425,60,34,41
67.5,67.575,65,34,41
67.65,67.725,60,34,41
67.8,67.875,57,34,41
67.95,68.025,60,34,41
68.1,68.175,65,34,41
68.25,68.325,60,34,41
68.4,68.475,57,34,41
68.55,68.625,62,34,41
68.7,68.775,65,34,41
68.85,68.925,62,34,41
69.0,69.075,57,34,41
69.15,69.225,62,34,41
69.3,69.375,65,34,41
69.45,69.525,62,34,41
69.6,69.675,55,34,41
69.75,69.825,60,34,41
69.9,69.975,64,34,41
70.05,70.125,60,34,41
70.2,70.275,55,34,41
70.35,70.425,60,34,41
70.5,70.575,64,34,41
70.65,70.725,60,34,41
70.8,70.875,53,34,41
70.95,71.025,57,34,41
71.1,71.175,65,34,41
71.25,71.325,57,34,41
71.4,71.475,53,34,41
71.55,71.625,57,34,41
71.7,71.775,65,34,41
71.85,71.925,57,34,41
72.0,72.075,57,56,41
72.15,72.225,60,56,41
72.3,72.375,65,56,41
72.45,72.525,60,56,41
72.6,72.675,57,56,41
72.75,72.825,60,56,41
72.9,72.975,65,56,41
73.05,73.125,60,56,41
73.2,73.275,55,56,41
73.35,73.425,62,56,41
73.5,73.575,65,56,41
73.65,73.725,62,56,41
73.8,73.875,55,56,41
73.95,74.025,62,56,41
74.1,74.175,65,56,41
74.25,74.325,62,56,41
74.4,74.7,65,75,41
74.7,75.0,60,75,41
75.0,75.3,62,75,41
75.3,75.45,60,75,41
75.45,75.6,58,75,41
75.6,76.8,57,45,41
76.8,77.1,62,45,41
77.1,77.25,66,45,41
77.4,77.55,67,45,41
77.7,77.85,69,45,41
78.0,78.15,69,52,41
78.15,78.3,70,45,41
78.3,78.375,62,45,41
78.45,78.525,58,45,41
78.6,78.9,57,45,41
78.9,79.2,55,45,41
79.2,79.5,57,45,41
79.5,80.1,72,75,41
80.1,80.325,70,45,41
80.325,80.4,69,45,41
80.4,80.55,74,45,41
80.7,80.85,66,45,41
81.0,81.15,67,45,41
81.3,81.45,69,45,41
81.6,81.75,69,52,41
81.75,81.9,70,45,41
81.9,81.975,62,45,41
82.05,82.125,58,45,41
82.2,82.5,57,45,41
82.5,82.8,55,45,41
82.8,83.0825,57,45,41
83.4,83.55,70,45,41
83.7,83.85,70,45,41
84.0,84.15,69,45,41
84.3,84.45,69,45,41
84.6,84.75,64,45,41
84.9,85.05,64,45,41
85.2,85.35,65,45,41
85.5,85.65,62,45,41
85.8,85.95,57,45,41
86.1,86.25,58,45,41
86.4,86.55,57,45,41
86.7,86.85,62,45,41
87.0,87.15,60,45,41
87.3,87.45,48,45,41
87.6,87.7,53,32,41
87.7,87.8,57,32,41
87.8,87.9,60,32,41
87.9,87.975,60,32,41
88.0,88.075,60,32,41
88.1,88.175,60,32,41
88.2,88.275,60,32,41
88.3,88.375,60,32,41
88.4,88.475,60,32,41
88.5,88.575,60,32,41
88.6,88.675,60,32,41
88.7,88.775,60,32,41
88.8,88.875,60,32,41
88.9,88.975,60,32,41
89.0,89.075,60,32,41
89.1,89.175,60,32,41
89.2,89.275,60,32,41
89.3,89.375,60,32,41
89.4,89.475,60,32,41
89.5,89.575,60,32,41
89.6,89.675,60,32,41
89.7,89.775,60,32,41
89.8,89.875,60,32,41
89.9,89.975,60,32,41
90.0,90.075,60,32,41
90.1,90.175,65,32,41
90.2,90.275,65,32,41
90.3,90.375,65,32,41
90.4,90.475,65,32,41
90.5,90.575,65,32,41
90.6,90.675,65,32,41
90.7,90.775,65,32,41
90.8,90.875,65,32,41
90.9,90.975,65,32,41
91.0,91.075,65,32,41
91.1,91.175,65,32,41
91.2,91.275,65,32,41
91.3,91.375,65,32,41
91.4,91.475,65,32,41
91.5,91.575,65,32,41
91.6,91.675,65,32,41
91.7,91.775,65,32,41
91.8,91.90204,65,32,41
91.90204,92.00408,67,32,41
92.00408,92.106125,65,32,41
92.106125,92.20816,64,32,41
92.20816,92.3102,62,32,41
92.3102,92.41225,64,32,41
92.41225,92.998184,65,32,41
93.35639,93.58246,72,54,41
93.59576,93.659584,69,70,41
93.675545,94.32771,65,54,41
94.65739,94.90464,55,54,41
94.90464,94.98705,52,54,41
94.98705,95.324135,53,54,41
95.324135,95.49267,53,45,41
95.66121,95.98592,53,45,41
96.703804,96.88028,62,66,41
97.05675,97.39711,62,68,41
98.15001,98.3352,58,74,41
98.52038,98.877975,57,76,41
99.57987,99.72987,53,45,41
99.879875,100.02987,53,45,41
100.17987,100.32987,53,45,41
100.77987,100.92987,53,45,41
101.07987,101.22987,53,45,41
101.379875,101.52987,53,45,41
101.97987,102.129875,53,45,41
102.27987,102.42987,53,45,41
102.57987,102.72987,53,45,41
103.17987,103.32987,57,45,41
103.47987,103.629875,57,45,41
103.77987,103.92987,57,45,41
104.379875,104.52987,58,45,41
104.67987,104.82987,58,45,41
104.97987,105.129875,58,45,41
105.57987,105.72987,52,34,41
105.879875,106.02987,52,45,41
106.17987,106.32987,52,45,41
106.47987,107.04987,50,60,41
107.97987,108.27987,64,42,41
108.27987,108.57987,62,51,41
108.57987,108.879875,61,60,41
108.879875,109.17987,62,56,41
109.17987,109.32987,65,56,41
109.47987,109.629875,65,56,41
109.77987,109.92987,65,56,41
110.379875,110.52987,66,56,41
110.67987,110.82987,66,56,41
110.97987,111.129875,66,56,41
111.57987,111.72987,67,56,41
111.879875,112.02987,67,56,41
112.17987,112.32987,67,56,41
112.77987,112.92987,68,56,41
113.07987,113.22987,68,56,41
113.379875,113.52987,68,56,41
113.67987,114.27987,68,56,41
114.27987,114.879875,69,56,41
115.17987,115.47987,57,45,41
115.47987,115.77987,59,45,41
115.77987,116.07987,61,45,41
116.07987,116.379875,62,45,41
116.379875,116.67987,55,45,41
116.67987,116.97987,57,45,41
116.97987,117.27987,57,45,41
117.27987,117.84237,62,45,41
119.379875,119.67987,65,36,41
119.67987,119.754875,65,36,41
119.754875,119.82987,64,36,41
119.82987,119.90487,65,36,41
119.90487,119.97987,64,36,41
119.97987,120.05487,62,36,41
120.05487,120.129875,64,36,41
120.129875,120.27987,65,36,41
120.27987,120.57987,67,36,41
120.57987,120.879875,67,36,41
120.879875,121.17987,65,36,41
121.17987,121.47987,64,36,41
121.47987,121.762375,62,36,41
122.379875,122.52987,69,53,41
122.52987,122.67987,68,55,41
122.67987,122.82987,69,58,41
122.82987,122.97987,68,60,41
122.97987,123.129875,69,62,41
123.129875,123.27987,68,65,41
123.27987,124.17987,69,67,41
124.17987,124.47987,65,36,41
124.47987,124.55487,65,36,41
124.55487,124.629875,64,36,41
124.629875,124.70487,65,36,41
124.70487,124.77987,64,36,41
124.77987,124.85487,62,36,41
124.85487,124.92987,64,36,41
124.92987,125.07987,65,36,41
125.07987,125.379875,67,36,41
125.379875,125.67987,67,36,41
125.67987,125.97987,65,36,41
125.97987,126.57987,69,36,41
126.57987,126.879875,71,36,41
126.879875,127.442375,64,36,41
128.97987,129.12987,65,75,41
129.12987,129.27988,62,75,41
129.27988,129.42987,61,75,41
129.42987,129.57986,56,98,41
129.57986,129.72987,57,69,41
129.72987,129.87987,56,53,41
129.87987,130.02988,57,53,41
130.02988,130.17987,56,53,41
130.17987,130.32986,57,53,41
130.32986,130.47987,53,53,41
130.47987,130.76237,52,53,41
131.67987,132.39987,60,75,41
131.67987,132.39987,48,75,41
132.57986,132.72987,55,45,41
132.87987,133.17987,53,63,41
133.17987,133.40488,53,34,41
133.77988,133.92987,53,45,41
134.07986,134.64236,53,45,41
134.97987,135.12987,60,60,41
135.27988,135.57986,58,72,41
135.57986,135.87987,60,69,41
135.87987,136.17987,58,73,41
136.17987,136.47987,57,78,41
136.47987,137.04237,55,82,41
137.37987,137.67987,60,65,41
137.67987,139.11987,65,67,41
139.17987,139.47987,65,80,41
139.47987,139.77988,64,82,41
139.77988,140.07986,63,85,41
140.07986,140.67987,62,87,41
140.97987,141.12987,55,45,41
141.12987,141.27988,62,45,41
141.27988,141.84238,60,45,41
144.27988,144.72987,48,113,41
144.72987,144.87987,49,92,41
144.87987,144.95486,51,92,41
144.95486,145.02988,49,92,41
145.02988,145.10487,51,52,41
145.10487,145.17987,49,52,41
145.17987,145.25487,51,52,41
145.25487,145.32986,49,52,41
145.32986,145.40488,51,52,41
145.40488,145.47987,49,52,41
145.47987,145.55487,51,52,41
145.55487,145.62987,49,52,41
145.62987,145.70486,51,52,41
145.70486,145.77988,49,52,41
145.77988,145.85487,51,52,41
145.85487,145.92987,49,52,41
145.92987,146.00487,48,52,41
146.00487,146.06487,49,55,41
146.07986,146.64236,48,52,41
148.47987,149.97987,65,75,41
149.97987,150.12987,55,75,41
150.27988,150.57986,67,86,41
150.57986,150.72987,65,75,41
150.87987,151.47987,65,75,41
151.47987,151.77988,64,75,41
151.77988,152.37987,62,75,41
152.37987,152.67987,60,75,41
152.67987,152.97987,69,86,41
152.97987,153.12987,67,75,41
153.27988,153.56238,65,45,41
153.87987,154.16237,65,45,41
154.47987,154.77988,60,45,41
154.77988,155.07986,58,45,41
155.07986,155.37987,57,45,41
155.37987,155.67987,55,45,41
155.82986,155.97987,53,45,41
155.97987,156.12987,57,45,41
156.12987,156.20486,57,45,41
156.27988,156.42987,57,50,41
156.42987,156.57986,57,45,41
156.57986,156.72987,57,45,41
156.72987,156.87987,57,45,41
157.02988,157.17987,57,34,41
157.17987,157.32986,60,34,41
157.32986,157.40488,60,34,41
157.47987,157.62987,60,37,41
157.62987,157.77988,60,34,41
157.77988,157.92987,60,34,41
157.92987,158.07986,60,34,41
158.22987,158.37987,55,34,41
158.37987,158.52988,62,34,41
158.52988,158.60487,62,34,41
158.67987,158.82986,62,37,41
158.82986,158.97987,62,34,41
158.97987,159.12987,62,34,41
159.12987,159.27988,62,34,41
159.42987,159.57986,55,34,41
159.57986,159.72987,58,34,41
159.72987,159.80487,58,34,41
159.87987,160.02988,58,37,41
160.02988,160.17987,58,34,41
160.17987,160.32986,58,34,41
160.32986,160.47987,58,34,41
160.62987,160.77988,53,34,41
160.77988,160.92987,57,34,41
160.92987,161.00487,57,34,41
161.07986,161.22987,57,37,41
161.22987,161.37987,57,34,41
161.37987,161.52988,57,34,41
161.52988,161.67987,57,34,41
161.82986,161.97987,57,34,41
161.97987,162.12987,60,34,41
162.12987,162.20486,60,34,41
162.27988,162.42987,60,37,41
162.42987,162.57986,60,34,41
162.57986,162.72987,60,34,41
162.72987,162.87987,60,34,41
163.02988,163.17987,55,34,41
163.17987,163.32986,62,34,41
163.32986,163.40488,62,34,41
163.47987,163.62987,62,37,41
163.62987,163.77988,62,34,41
163.77988,163.92987,62,34,41
163.92987,164.07986,62,34,41
164.22987,164.37987,55,34,41
164.37987,164.52988,58,34,41
164.52988,164.60487,58,34,41
164.67987,164.82986,58,37,41
164.82986,164.97987,58,34,41
164.97987,165.12987,58,34,41
165.12987,165.27988,58,34,41
165.27988,165.35487,57,34,41
165.42987,165.57986,65,47,41
165.57986,165.72987,64,50,41
165.72987,165.87987,62,51,41
165.87987,166.02988,61,53,41
166.02988,166.17987,62,54,41
166.17987,166.32986,60,56,41
166.32986,166.47987,58,58,41
166.47987,166.55487,57,34,41
166.62987,166.70486,60,34,41
166.77988,166.85487,65,34,41
166.92987,167.00487,60,34,41
167.07986,167.15488,57,34,41
167.22987,167.30487,60,34,41
167.37987,167.45486,65,34,41
167.52988,167.60487,60,34,41
167.67987,167.75487,57,34,41
167.82986,167.90488,62,34,41
167.97987,168.05487,65,34,41
168.12987,168.20486,62,34,41
168.27988,168.35487,57,34,41
168.42987,168.50487,62,34,41
168.57986,168.65488,65,34,41
168.72987,168.80487,62,34,41
168.87987,168.95486,55,34,41
169.02988,169.10487,60,34,41
169.17987,169.25487,64,34,41
169.32986,169.40488,60,34,41
169.47987,169.55487,55,34,41
169.62987,169.70486,60,34,41
169.77988,169.85487,64,34,41
169.92987,170.00487,60,34,41
170.07986,170.15488,53,34,41
170.22987,170.30487,57,34,41
170.37987,170.45486,65,34,41
170.52988,170.60487,57,34,41
170.67987,170.75487,53,34,41
170.82986,170.90488,57,34,41
170.97987,171.05487,65,34,41
171.12987,171.20486,57,34,41
171.27988,171.35487,57,56,41
171.42987,171.50487,60,56,41
171.57986,171.65488,65,56,41
171.72987,171.80487,60,56,41
171.87987,171.95486,57,56,41
172.02988,172.10487,60,56,41
172.17987,172.25487,65,56,41
172.32986,172.40488,60,56,41
172.47987,172.55487,55,56,41
172.62987,172.70486,62,56,41
172.77988,172.85487,65,56,41
172.92987,173.00487,62,56,41
173.07986,173.15488,55,56,41
173.22987,173.30487,62,56,41
173.37987,173.45486,65,56,41
173.52988,173.60487,62,56,41
173.67987,173.97987,65,75,41
173.97987,174.27988,60,75,41
174.27988,174.57986,62,75,41
174.57986,174.72987,60,75,41
174.72987,174.87987,58,75,41
174.87987,176.07986,57,45,41
176.07986,176.37987,62,45,41
176.37987,176.52988,66,45,41
176.67987,176.82986,67,45,41
176.97987,177.12987,69,45,41
177.27988,177.42987,69,52,41
177.42987,177.57986,70,45,41
177.57986,177.65488,62,45,41
177.72987,177.80487,58,45,41
177.87987,178.17987,57,45,41
178.17987,178.47987,55,45,41
178.47987,178.77988,57,45,41
178.77988,179.37987,72,75,41
179.37987,179.60487,70,45,41
179.60487,179.67987,69,45,41
179.67987,179.82986,74,45,41
179.97987,180.12987,66,45,41
180.27988,180.42987,67,45,41
180.57986,180.72987,69,45,41
180.87987,181.02988,69,52,41
181.02988,181.17987,70,45,41
181.17987,181.25487,62,45,41
181.32986,181.40488,58,45,41
181.47987,181.77988,57,45,41
181.77988,182.07986,55,45,41
182.07986,182.36237,57,45,41
182.67987,182.82986,70,45,41
182.97987,183.12987,70,45,41
183.27988,183.42987,69,45,41
183.57986,183.72987,69,45,41
183.87987,184.02988,64,45,41
184.17987,184.32986,64,45,41
184.47987,184.62987,65,45,41
184.77988,184.92987,62,45,41
185.07986,185.22987,57,45,41
185.37987,185.52988,58,45,41
185.67987,185.82986,57,45,41
185.97987,186.12987,62,45,41
186.27988,186.42987,60,45,41
186.57986,186.72987,48,45,41
186.87987,186.97987,53,32,41
186.97987,187.07986,57,32,41
187.07986,187.17987,60,32,41
187.17987,187.25487,60,32,41
187.27988,187.35487,60,32,41
187.37987,187.45486,60,32,41
187.47987,187.55487,60,32,41
187.57986,187.65488,60,32,41
187.67987,187.75487,60,32,41
187.77988,187.85487,60,32,41
187.87987,187.95486,60,32,41
187.97987,188.05487,60,32,41
188.07986,188.15488,60,32,41
188.17987,188.25487,60,32,41
188.27988,188.35487,60,32,41
188.37987,188.45486,60,32,41
188.47987,188.55487,60,32,41
188.57986,188.65488,60,32,41
188.67987,188.75487,60,32,41
188.77988,188.85487,60,32,41
188.87987,188.95486,60,32,41
188.97987,189.05487,60,32,41
189.07986,189.15488,60,32,41
189.17987,189.25487,60,32,41
189.27988,189.35487,60,32,41
189.37987,189.45486,65,32,41
189.47987,189.55487,65,32,41
189.57986,189.65488,65,32,41
189.67987,189.75487,65,32,41
189.77988,189.85487,65,32,41
189.87987,189.95486,65,32,41
189.97987,190.05487,65,32,41
190.07986,190.15488,65,32,41
190.17987,190.25487,65,32,41
190.27988,190.35487,65,32,41
190.37987,190.45486,65,32,41
190.47987,190.55487,65,32,41
190.57986,190.65488,65,32,41
190.67987,190.75487,65,32,41
190.77988,190.85487,65,32,41
190.87987,190.95486,65,32,41
190.97987,191.05487,65,32,41
191.07986,191.17987,65,32,41
191.17987,191.27988,67,32,41
191.27988,191.37987,65,32,41
191.37987,191.47987,64,32,41
191.47987,191.57986,62,32,41
191.57986,191.67987,64,32,41
191.67987,192.24237,65,32,41
192.57986,192.79237,72,54,41
192.80487,192.86487,69,70,41
192.87987,193.47987,65,54,41
193.78915,194.0211,55,54,41
194.0211,194.09843,52,54,41
194.09843,194.41757,53,54,41
194.41757,194.57715,53,45,41
194.73672,195.04716,53,45,41
195.74089,196.08572,62,51,41
196.08572,196.44286,62,55,41
196.44286,197.17038,65,58,41
197.17038,197.54074,58,65,41
197.54074,197.92535,58,68,41
197.92535,198.30998,56,83,41
198.30998,198.60997,55,34,41
198.60997,198.75998,55,42,41
198.90997,199.19247,55,42,41
199.20998,199.44998,55,45,41
199.50998,199.65997,55,42,41
199.80998,199.95998,55,42,41
200.10997,200.39247,55,42,41
201.00998,201.15997,56,42,41
201.30998,201.45998,56,42,41
201.60997,201.75998,56,42,41
202.20998,202.35997,55,42,41
202.50998,202.65997,55,42,41
202.80998,202.95998,55,42,41
203.40997,203.55998,56,42,41
203.70998,203.85997,56,42,41
204.00998,204.15997,56,42,41
204.60997,204.75998,51,42,41
204.90997,205.05998,51,42,41
205.20998,205.35997,51,42,41
205.50998,207.90997,48,50,41
207.90997,209.10997,52,26,41
209.10997,209.18498,53,31,41
209.18498,209.25998,52,31,41
209.25998,209.33498,53,31,41
209.33498,209.40997,52,31,41
209.40997,209.48497,53,31,41
209.48497,209.55998,52,31,41
209.55998,209.70998,51,31,41
209.70998,209.85997,52,31,41
210.00998,210.15997,52,31,41
210.30998,211.50998,52,31,41
211.50998,211.58498,53,31,41
211.58498,211.65997,52,31,41
211.65997,211.73497,53,31,41
211.73497,211.80998,52,31,41
211.80998,211.88498,53,31,41
211.88498,211.95998,52,31,41
211.95998,212.10997,51,31,41
212.10997,212.25998,52,44,41
212.40997,212.55998,52,48,41
212.70998,213.90997,52,53,41
213.90997,213.98497,53,68,41
213.98497,214.05998,52,70,41
214.05998,214.13498,53,71,41
214.13498,214.20998,52,71,41
214.20998,214.28497,53,72,41
214.28497,214.35997,52,73,41
214.35997,214.50998,51,74,41
214.50998,214.65997,52,77,41
214.80998,214.95998,52,80,41
215.10997,215.18498,55,84,41
215.18498,215.25998,54,85,41
215.25998,215.33498,55,86,41
215.33498,215.40997,54,88,41
215.40997,215.48497,55,88,41
215.48497,215.55998,54,89,41
215.55998,215.70998,52,90,41
215.70998,215.85997,54,92,41
216.00998,216.15997,54,96,41
216.30998,216.38498,57,100,41
216.38498,216.45998,56,101,41
216.45998,216.53497,57,102,41
216.53497,216.60997,56,103,41
216.60997,216.68498,57,104,41
216.68498,216.75998,56,104,41
216.75998,216.90997,54,106,41
216.90997,217.05998,56,108,41
217.20998,217.35997,56,112,41
217.50998,217.80998,57,97,41
217.80998,218.10997,74,75,41
218.10997,218.40997,72,75,41
218.40997,218.55998,71,45,41
218.70998,218.85997,64,48,41
219.00998,219.15997,65,48,41
219.30998,219.45998,64,48,41
219.60997,219.75998,64,48,41
221.10997,221.40997,55,90,41
221.40997,222.12997,55,40,41
222.30998,222.60997,57,45,41
222.60997,222.90997,59,75,41
222.90997,223.11998,60,75,41
223.20998,223.35997,56,45,41
223.50998,223.79248,57,45,41
224.70998,225.90997,69,45,41
225.90997,226.80998,57,45,41
226.80998,227.10997,57,45,41
227.10997,227.18498,58,45,41
227.18498,227.25998,57,45,41
227.25998,227.33498,58,45,41
227.33498,227.40997,57,45,41
227.40997,227.48497,58,45,41
227.48497,227.55998,57,45,41
227.55998,227.70998,56,45,41
227.70998,228.00998,57,45,41
228.00998,228.30998,57,45,41
228.30998,229.50998,57,45,41
229.50998,231.90997,55,45,41
231.90997,232.20998,53,39,41
232.20998,232.50998,62,53,41
232.50998,232.80998,64,53,41
232.80998,233.10997,65,53,41
233.40997,233.70998,65,53,41
233.70998,234.00998,64,53,41
234.00998,234.30998,62,53,41
234.60997,234.90997,67,75,41
234.90997,235.20998,66,75,41
235.20998,235.50998,67,75,41
235.80998,236.10997,70,75,41
236.10997,236.40997,69,75,41
236.40997,236.70998,67,75,41
237.00998,237.30998,67,75,41
237.30998,237.60997,66,75,41
237.60997,237.90997,67,75,41
238.20998,238.50998,72,75,41
238.50998,238.80998,70,75,41
238.80998,239.10997,69,75,41
239.20998,239.30998,62,60,41
239.30998,239.40997,67,60,41
239.40997,239.50998,70,67,41
239.50998,239.55998,70,60,41
239.60997,239.65997,70,60,41
239.70998,239.99248,70,60,41
241.60997,241.70998,55,60,41
241.70998,241.80998,58,60,41
241.80998,241.90997,64,67,41
241.90997,241.95998,64,60,41
242.00998,242.05998,64,60,41
242.10997,242.39247,64,60,41
244.00998,244.10997,53,52,41
244.10997,244.20998,60,52,41
244.20998,244.30998,65,58,41
244.30998,244.35997,65,52,41
244.40997,244.45998,65,52,41
244.50998,244.79248,65,52,41
246.40997,246.50998,53,52,41
246.50998,246.60997,58,52,41
246.60997,246.70998,62,58,41
246.70998,246.75998,62,52,41
246.80998,246.85997,62,52,41
246.90997,247.19247,62,52,41
248.80998,248.90997,55,52,41
248.90997,249.00998,58,52,41
249.00998,249.10997,61,58,41
249.10997,249.15997,61,52,41
249.20998,249.25998,61,52,41
249.30998,249.59247,61,52,41
250.00998,250.10997,55,72,41
250.10997,250.20998,58,74,41
250.20998,250.25998,62,81,41
250.30998,250.35997,62,83,41
250.40997,250.45998,62,76,41
250.50998,250.79248,62,77,41
251.20998,251.30998,55,84,41
251.30998,251.40997,64,84,41
251.40997,251.50998,69,93,41
251.50998,251.55998,69,95,41
251.60997,251.65997,69,87,41
251.70998,251.99248,69,89,41
252.40997,252.50998,57,95,41
252.50998,252.60997,61,95,41
252.60997,252.70998,64,106,41
252.70998,252.75998,64,108,41
252.80998,252.85997,64,99,41
252.90997,253.19247,64,100,41
253.80998,254.10997,62,94,41
254.10997,254.40997,67,97,41
254.40997,255.00998,69,99,41
255.00998,255.60997,62,75,41
255.60997,255.75998,61,75,41
255.75998,255.90997,62,75,41
255.90997,256.47247,64,75,41
257.20996,257.30997,61,60,41
257.30997,257.40997,64,60,41
257.40997,257.50998,69,67,41
257.50998,257.55997,69,60,41
257.61,257.65997,69,60,41
257.70996,257.99246,69,60,41
258.40997,258.50998,49,60,41
258.50998,258.61,52,60,41
258.61,258.70996,57,67,41
258.70996,258.75998,57,67,41
258.80997,258.86,57,60,41
258.90997,260.80997,57,60,41
260.80997,260.90997,50,52,41
260.90997,261.00998,53,52,41
261.00998,261.11,57,58,41
261.11,261.15997,57,58,41
261.20996,261.25998,57,52,41
261.30997,263.20996,58,52,41
263.20996,263.30997,55,52,41
263.30997,263.40997,61,52,41
263.40997,263.50998,64,58,41
263.50998,263.55997,64,58,41
263.61,263.65997,64,52,41
263.70996,265.0082,64,52,41
265.0082,265.36115,64,45,41
266.0141,266.1641,53,45,41
266.3141,266.4641,53,45,41
266.6141,266.7641,53,45,41
267.2141,267.3641,53,45,41
267.5141,267.6641,53,45,41
267.8141,267.9641,53,45,41
268.4141,268.5641,53,45,41
268.7141,268.8641,53,45,41
269.0141,269.1641,53,45,41
269.6141,269.7641,57,45,41
269.9141,270.0641,57,45,41
270.2141,270.3641,57,45,41
270.8141,270.9641,58,45,41
271.1141,271.2641,58,45,41
271.4141,271.5641,58,45,41
272.0141,272.1641,52,34,41
272.3141,272.4641,52,45,41
272.6141,272.7641,52,45,41
272.9141,273.4841,50,60,41
274.4141,274.7141,64,42,41
274.7141,275.0141,62,51,41
275.0141,275.3141,61,60,41
275.3141,275.6141,62,56,41
275.6141,275.7641,65,56,41
275.9141,276.0641,65,56,41
276.2141,276.3641,65,56,41
276.8141,276.9641,66,56,41
277.1141,277.2641,66,56,41
277.4141,277.5641,66,56,41
278.0141,278.1641,67,56,41
278.3141,278.4641,67,56,41
278.6141,278.7641,67,56,41
279.2141,279.3641,68,56,41
279.5141,279.6641,68,56,41
279.8141,279.9641,68,56,41
280.1141,280.7141,68,56,41
280.7141,281.3141,69,56,41
281.6141,281.9141,57,45,41
281.9141,282.2141,59,45,41
282.2141,282.5141,61,45,41
282.5141,282.8141,62,45,41
282.8141,283.1141,55,45,41
283.1141,283.4141,57,45,41
283.4141,283.7141,57,45,41
283.7141,284.2766,62,45,41
285.8141,286.1141,65,36,41
286.1141,286.1891,65,36,41
286.1891,286.2641,64,36,41
286.2641,286.3391,65,36,41
286.3391,286.4141,64,36,41
286.4141,286.4891,62,36,41
286.4891,286.5641,64,36,41
286.5641,286.7141,65,36,41
286.7141,287.0141,67,36,41
287.0141,287.3141,67,36,41
287.3141,287.6141,65,36,41
287.6141,287.9141,64,36,41
287.9141,288.1966,62,36,41
288.8141,288.9641,69,53,41
288.9641,289.1141,68,55,41
289.1141,289.2641,69,58,41
289.2641,289.4141,68,60,41
289.4141,289.5641,69,62,41
289.5641,289.7141,68,65,41
289.7141,290.6141,69,67,41
290.6141,290.9141,65,36,41
290.9141,290.9891,65,36,41
290.9891,291.0641,64,36,41
291.0641,291.1391,65,36,41
291.1391,291.2141,64,36,41
291.2141,291.2891,62,36,41
291.2891,291.3641,64,36,41
291.3641,291.5141,65,36,41
291.5141,291.8141,67,36,41
291.8141,292.1141,67,36,41
292.1141,292.4141,65,36,41
292.4141,293.0141,69,36,41
293.0141,293.3141,71,36,41
293.3141,293.8766,64,36,41
295.4141,295.5641,65,75,41
295.5641,295.7141,62,75,41
295.7141,295.8641,61,75,41
295.8641,296.0141,56,98,41
296.0141,296.1641,57,69,41
296.1641,296.3141,56,53,41
296.3141,296.4641,57,53,41
296.4641,296.6141,56,53,41
296.6141,296.7641,57,53,41
296.7641,296.9141,53,53,41
296.9141,297.1966,52,45,41
298.1141,299.0141,64,68,41
299.0141,299.3141,55,45,41
299.3141,299.6141,53,45,41
299.6141,299.7641,53,45,41
300.2141,300.3641,54,34,41
300.8141,300.9641,55,34,41
301.4141,301.5641,60,34,41
301.7141,302.0141,66,56,41
302.0141,302.2966,67,34,41
302.9141,304.1141,64,68,41
304.1141,304.4141,68,86,41
304.4141,304.6966,69,45,41
305.0141,305.3141,64,82,41
305.3141,305.9141,65,71,41
305.9141,306.5141,67,62,41
306.5141,306.8141,69,45,41
306.8141,307.1141,67,61,41
307.1141,307.4141,65,66,41
307.4141,307.7141,61,70,41
307.7141,308.6141,62,75,41
308.6141,308.9141,64,76,41
308.9141,309.5141,57,56,41
309.5141,309.9641,69,77,41
309.9641,310.1141,68,45,41
310.1141,310.1891,69,45,41
310.1891,310.2641,68,45,41
310.2641,310.3391,69,45,41
310.3391,310.4141,68,45,41
310.4141,310.4891,69,45,41
310.4891,310.5641,68,45,41
310.5641,310.6391,69,45,41
310.6391,310.7141,68,45,41
310.7141,310.7891,69,45,41
310.7891,310.8641,68,45,41
310.8641,310.9391,69,45,41
310.9391,311.0141,68,45,41
311.0141,311.0891,69,45,41
311.0891,311.1616,68,45,41
311.1641,311.2241,66,48,41
311.2391,311.2991,68,48,41
311.3141,311.8766,69,45,41
313.1141,313.4141,62,45,41
313.4141,313.7141,65,45,41
313.7141,314.3141,65,45,41
314.3141,314.5966,64,45,41
316.1141,317.6141,62,75,41
317.6141,317.9141,52,75,41
317.9141,318.2141,64,75,41
318.2141,318.3641,62,75,41
318.5141,319.1141,62,75,41
319.1141,319.4141,61,75,41
319.4141,319.5641,59,75,41
319.7141,320.3141,57,75,41
320.3141,320.9141,64,75,41
320.9141,321.1966,62,45,41
321.5141,321.7966,61,45,41
322.1141,322.4141,57,45,41
322.4141,322.7141,55,45,41
322.7141,323.0141,53,45,41
323.0141,323.3141,52,45,41
323.4641,323.6141,53,42,41
323.6141,323.7641,53,42,41
323.7641,323.9141,53,42,41
323.9141,324.0641,53,42,41
324.0641,324.2141,53,42,41
324.2141,324.3641,53,42,41
324.3641,324.5141,53,42,41
324.6641,324.8141,50,34,41
324.8141,324.9641,57,34,41
324.9641,325.0391,57,34,41
325.1141,325.2641,57,34,41
325.2641,325.4141,57,34,41
325.4141,325.5641,57,34,41
325.5641,325.7141,57,34,41
325.8641,326.0141,50,34,41
326.0141,326.1641,58,34,41
326.1641,326.2391,58,34,41
326.3141,326.4641,58,34,41
326.4641,326.6141,58,34,41
326.6141,326.7641,58,34,41
326.7641,326.9141,58,34,41
327.0641,327.2141,53,34,41
327.2141,327.3641,62,34,41
327.3641,327.4391,62,34,41
327.5141,327.6641,62,34,41
327.6641,327.8141,62,34,41
327.8141,327.9641,62,34,41
327.9641,328.1141,62,34,41
328.2641,328.4141,53,34,41
328.4141,328.5641,62,34,41
328.5641,328.6391,62,34,41
328.7141,328.8641,62,34,41
328.8641,329.0141,62,34,41
329.0141,329.1641,62,34,41
329.1641,329.3141,62,34,41
329.4641,329.6141,57,34,41
329.6141,329.7641,65,34,41
329.7641,329.8391,65,34,41
329.9141,330.0641,65,34,41
330.0641,330.2141,65,34,41
330.2141,330.3641,62,34,41
330.3641,330.5141,62,34,41
330.6641,330.8141,58,34,41
330.8141,330.9641,63,34,41
330.9641,331.0391,63,34,41
331.1141,331.2641,63,34,41
331.2641,331.4141,63,34,41
331.4141,331.5641,62,34,41
331.5641,331.7141,62,34,41
331.8641,332.0141,61,34,41
332.0141,332.1641,62,34,41
332.1641,332.2391,62,34,41
332.3141,332.4641,62,34,41
332.4641,332.6141,62,34,41
332.6141,332.7641,64,34,41
332.7641,332.9141,64,34,41
332.9141,332.9891,62,34,41
333.0641,333.2141,67,63,41
333.2141,333.3641,65,66,41
333.3641,333.5141,64,69,41
333.5141,333.6641,65,73,41
333.6641,333.8141,64,76,41
333.8141,333.9641,62,79,41
333.9641,334.1141,61,83,41
334.1141,334.1891,62,100,41
334.2641,334.3391,57,34,41
334.4141,334.4891,62,34,41
334.5641,334.6391,57,34,41
334.7141,334.7891,53,34,41
334.8641,334.9391,57,34,41
335.0141,335.0891,62,34,41
335.1641,335.2391,57,34,41
335.3141,335.3891,55,34,41
335.4641,335.5391,58,34,41
335.6141,335.6891,62,34,41
335.7641,335.8391,58,34,41
335.9141,335.9891,55,34,41
336.0641,336.1391,58,34,41
336.2141,336.2891,62,34,41
336.3641,336.4391,58,34,41
336.5141,336.5891,57,34,41
336.6641,336.7391,62,34,41
336.8141,336.8891,65,34,41
336.9641,337.0391,62,34,41
337.1141,337.1891,57,34,41
337.2641,337.3391,62,34,41
337.4141,337.4891,65,34,41
337.5641,337.6391,62,34,41
337.7141,337.7891,58,34,41
337.8641,337.9391,62,34,41
338.0141,338.0891,65,34,41
338.1641,338.2391,62,34,41
338.3141,338.3891,58,34,41
338.4641,338.5391,62,34,41
338.6141,338.6891,65,34,41
338.7641,338.8391,62,34,41
338.9141,338.9891,57,56,41
339.0641,339.1391,62,56,41
339.2141,339.2891,65,56,41
339.3641,339.4391,62,56,41
339.5141,339.5891,57,56,41
339.6641,339.7391,62,56,41
339.8141,339.8891,65,56,41
339.9641,340.0391,62,56,41
340.1141,340.1891,58,56,41
340.2641,340.3391,62,56,41
340.4141,340.4891,64,56,41
340.5641,340.6391,62,56,41
340.7141,340.7891,58,56,41
340.8641,340.9391,62,56,41
341.0141,341.0891,64,56,41
341.1641,341.2391,62,56,41
341.3141,341.6141,62,56,41
341.6141,342.2141,58,56,41
342.2141,342.3641,57,56,41
342.3641,342.5141,55,56,41
342.5141,343.1141,53,45,41
343.1141,343.7141,54,100,41
343.7141,344.0141,55,45,41
344.0141,344.1641,60,45,41
344.3141,344.4641,62,45,41
344.6141,344.7641,63,45,41
344.9141,345.0641,62,59,41
345.2141,345.3641,68,71,41
345.5141,345.6641,67,83,41
345.8141,345.9641,70,94,41
346.1141,346.4141,69,75,41
346.4141,346.6391,67,75,41
346.6391,346.7141,64,75,41
346.7141,347.0141,62,75,41
347.0141,347.3141,61,75,41
347.3141,347.6141,62,45,41
347.6141,348.2141,69,100,41
348.2141,348.4391,67,45,41
348.4391,348.5141,66,45,41
348.5141,348.8141,67,45,41
348.8141,348.9641,60,45,41
349.1141,349.2641,62,45,41
349.4141,349.5641,63,45,41
349.7141,349.8641,62,58,41
350.0141,350.1641,68,70,41
350.3141,350.4641,67,82,41
350.6141,350.7641,70,94,41
350.9141,351.2141,69,75,41
351.2141,351.4391,67,75,41
351.4391,351.5141,64,75,41
351.5141,351.8141,62,75,41
351.8141,352.1141,61,75,41
352.1141,352.3966,62,75,41
352.7141,352.8641,67,45,41
353.0141,353.1641,67,45,41
353.3141,353.4641,65,45,41
353.6141,353.7641,65,45,41
353.9141,354.0641,61,45,41
354.2141,354.3641,61,45,41
354.5141,354.6641,62,45,41
354.8141,354.9641,60,45,41
355.1141,355.2641,59,45,41
355.4141,355.5641,58,45,41
355.7141,355.8641,57,45,41
356.0141,356.1641,55,45,41
356.3141,356.4641,57,45,41
356.6141,356.7641,57,45,41
356.9141,357.0141,50,45,41
357.0141,357.1141,53,45,41
357.1141,357.2141,57,45,41
357.2141,357.2641,57,45,41
357.3141,357.3641,57,45,41
357.4141,357.4641,57,45,41
357.5141,357.5641,57,45,41
357.6141,357.6641,57,45,41
357.7141,357.7641,57,45,41
357.8141,357.8641,57,45,41
357.9141,357.9641,57,45,41
358.0141,358.0641,57,45,41
358.1141,358.1641,57,45,41
358.2141,358.2641,57,45,41
358.3141,358.3641,57,45,41
358.4141,358.4641,57,45,41
358.5141,358.5641,57,45,41
358.6141,358.6641,57,45,41
358.7141,358.7641,57,41,41
358.8141,358.8641,57,41,41
358.9141,358.9641,57,45,41
359.0141,359.0641,57,45,41
359.1141,359.1641,57,45,41
359.2141,359.2641,57,45,41
359.3141,359.3641,57,45,41
359.4141,359.4641,62,45,41
359.5141,359.5641,62,45,41
359.6141,359.6641,62,45,41
359.7141,359.7641,62,45,41
359.8141,359.8641,62,45,41
359.9141,359.9641,62,37,41
360.0141,360.0641,62,90,41
360.1141,360.1641,62,45,41
360.2141,360.2641,62,45,41
360.3141,360.3641,62,45,41
360.4141,360.4641,62,45,41
360.5141,360.5641,62,45,41
360.6141,360.6641,62,45,41
360.7141,360.7641,62,45,41
360.8141,360.8641,62,45,41
360.9141,360.9641,62,45,41
361.0141,361.0641,62,45,41
361.1141,361.1641,62,81,41
361.2141,361.2641,62,81,41
361.3141,361.3641,62,45,41
361.4141,361.4641,62,45,41
361.5141,361.5641,62,45,41
361.6141,361.6641,62,45,41
361.7141,361.7641,62,60,41
361.8141,361.8641,62,60,41
361.9141,361.9641,62,60,41
362.0141,362.0641,62,60,41
362.1141,362.1641,62,60,41
362.2141,362.2641,62,60,41
362.3141,362.4141,62,60,41
362.4141,362.5141,64,60,41
362.5141,362.6141,62,60,41
362.6141,362.7141,61,60,41
362.7141,362.8141,59,60,41
362.8141,362.9141,61,60,41
362.9141,363.4766,62,60,41
363.8141,364.0266,64,60,41
364.0391,364.0991,61,60,41
364.1141,364.7141,62,60,41
365.01712,365.24442,52,60,41
365.24442,365.32016,49,60,41
365.32016,365.6232,50,60,41
365.6232,365.77472,50,60,41
365.9262,366.21448,50,60,41
366.84457,366.99765,50,47,41
367.1507,367.44196,50,49,41
368.07855,368.2332,50,54,41
368.38782,368.6821,50,56,41
369.32532,369.48157,52,62,41
369.63782,369.93518,52,64,41
370.58517,370.74307,53,70,41
370.90097,371.2015,53,71,41
371.85843,372.018,55,75,41
372.17758,372.50015,55,75,41
372.50015,372.82272,58,75,41
372.82272,373.1488,57,75,41
373.1488,373.4749,61,75,41
373.4749,373.801,62,75,41
373.801,374.12708,57,75,41
374.12708,374.45676,58,75,41
374.45676,374.7864,55,75,41
374.7864,375.1161,57,75,41
375.1161,375.44577,55,75,41
375.44577,376.07077,53,75,41
376.44577,376.77908,57,45,41
376.77908,377.4111,57,45,41
377.79807,378.1429,61,45,41
378.1429,378.79697,62,45,41
379.19772,379.48343,69,86,41
379.7356,380.41663,69,95,41
0.0,1.2,50,64,42
1.2,2.4,48,64,42
2.4,3.6,46,64,42
3.6,4.8,45,64,42
4.8,6.0,43,64,42
6.0,7.2,45,64,42
7.2,7.77,38,64,42
9.9,10.05,62,60,42
10.2,10.35,62,60,42
10.5,10.65,62,60,42
11.1,11.25,60,60,42
11.4,11.55,60,60,42
11.7,11.85,60,60,42
12.3,12.45,59,60,42
12.6,12.75,59,60,42
12.9,13.05,59,60,42
13.5,13.65,58,60,42
13.8,13.95,58,60,42
14.1,14.25,58,60,42
14.4,15.525,57,60,42
18.3,18.45,57,80,42
18.6,18.75,53,80,42
18.9,19.05,50,80,42
19.2,19.5,45,64,42
19.5,19.8,57,38,42
19.8,20.1,57,38,42
20.1,20.4,57,38,42
20.4,20.7,57,38,42
20.7,21.0,57,38,42
21.0,21.3,57,38,42
21.3,21.6,57,38,42
21.6,21.9,57,38,42
21.9,22.2,61,38,42
22.2,22.5,62,38,42
22.5,22.8,56,38,42
22.8,23.0825,57,38,42
24.0,24.3,45,64,42
24.3,24.6,57,38,42
24.6,24.9,57,38,42
24.9,25.2,57,38,42
25.2,25.5,57,38,42
25.5,25.8,57,38,42
25.8,26.1,57,38,42
26.1,26.4,57,38,42
26.4,26.7,57,38,42
26.7,27.0,61,38,42
27.0,27.3,62,38,42
27.3,27.6,56,38,42
27.6,28.1625,57,38,42
30.9,31.05,53,80,42
31.05,31.2,50,80,42
31.2,31.35,49,80,42
31.35,31.5,44,104,42
31.5,31.65,45,56,42
31.65,31.8,44,56,42
31.8,31.95,45,56,42
31.95,32.1,44,56,42
32.1,32.25,45,56,42
32.25,32.4,41,56,42
32.4,33.12,40,80,42
33.3,33.45,52,48,42
33.6,33.9,51,67,42
33.9,34.125,51,36,42
34.5,34.65,50,48,42
34.8,35.3625,45,48,42
35.7,35.85,57,60,42
36.0,36.3,58,72,42
36.3,36.6,57,69,42
36.6,36.9,55,73,42
36.9,37.2,53,78,42
37.2,37.7625,52,82,42
38.1,38.4,52,65,42
38.4,38.7,53,67,42
39.0,39.3,53,72,42
39.6,39.9,53,77,42
40.2,40.5,53,82,42
40.8,41.3625,46,87,42
41.7,42.0,46,48,42
42.0,42.6,48,48,42
42.6,43.05,60,80,42
43.05,43.2,59,80,42
43.2,43.275,60,80,42
43.275,43.35,59,80,42
43.35,43.425,60,48,42
43.425,43.5,59,48,42
43.5,43.575,60,48,42
43.575,43.65,59,48,42
43.65,43.725,60,48,42
43.725,43.8,59,48,42
43.8,43.875,60,48,42
43.875,43.95,59,48,42
43.95,44.025,60,48,42
44.025,44.1,59,48,42
44.1,44.175,60,48,42
44.175,44.25,59,48,42
44.25,44.325,57,48,42
44.325,44.385,59,48,42
44.4,44.9625,60,48,42
47.1,47.25,48,80,42
47.4,47.7,60,80,42
47.7,47.85,58,80,42
48.0,48.6,58,80,42
48.6,49.2,57,80,42
49.5,49.65,46,80,42
49.8,50.1,58,92,42
50.1,50.25,56,80,42
50.4,51.6,55,80,42
51.6,53.4,48,80,42
53.4,53.85,48,80,42
53.85,53.925,50,80,42
53.925,54.0,52,80,42
54.0,54.2825,53,48,42
54.6,54.8825,46,48,42
55.2,55.5,45,48,42
55.5,55.8,46,48,42
55.8,56.1,48,48,42
56.1,56.25,48,48,42
56.4,56.9625,41,48,42
57.6,58.1625,45,48,42
58.8,59.3625,46,48,42
60.0,60.5625,48,48,42
61.2,61.7625,50,48,42
62.4,62.9625,45,48,42
63.6,64.1625,46,48,42
64.8,65.3625,48,48,42
66.0,66.5625,53,48,42
67.2,67.7625,45,48,42
68.4,68.9625,46,48,42
69.6,70.1625,48,48,42
70.8,71.3625,50,48,42
72.0,72.5625,45,80,42
73.2,73.7625,46,80,42
74.7,75.0,45,80,42
75.0,75.3,46,80,42
75.3,75.6,48,80,42
75.6,75.9,53,48,42
75.9,76.5,51,99,42
76.5,76.7125,50,48,42
76.725,76.785,48,80,42
76.8,76.95,46,48,42
77.1,77.25,45,48,42
77.4,77.55,43,48,42
77.7,77.85,41,48,42
78.3,78.6,46,48,42
78.6,79.2,48,48,42
79.2,79.5,53,48,42
79.5,80.1,63,80,42
80.1,80.325,62,48,42
80.325,80.4,60,48,42
80.4,80.55,58,48,42
80.7,80.85,57,48,42
81.0,81.15,55,48,42
81.3,81.45,53,48,42
81.9,82.2,46,48,42
82.2,82.8,48,48,42
82.8,83.0825,41,48,42
88.2,88.35,58,48,42
88.5,88.65,58,48,42
88.8,88.95,57,48,42
89.1,89.25,57,48,42
89.4,89.55,52,48,42
89.7,89.85,52,48,42
90.0,90.15,53,48,42
90.3,90.45,50,48,42
90.6,90.75,45,48,42
90.9,91.05,46,48,42
91.2,91.5,45,48,42
91.5,91.8,50,48,42
91.8,92.106125,48,48,42
92.106125,92.41225,36,48,42
92.41225,92.998184,41,48,42
93.35639,93.65692,60,48,42
93.675545,94.32771,53,48,42
94.65739,94.98705,48,48,42
94.98705,96.006035,41,48,42
96.006035,96.35087,53,48,42
96.35087,97.41819,53,64,42
97.41819,97.77964,52,70,42
97.77964,98.90012,52,72,42
98.90012,99.27987,57,78,42
99.27987,100.47987,50,64,42
100.47987,101.67987,48,64,42
101.67987,102.879875,46,64,42
102.879875,104.07987,45,64,42
104.07987,105.27987,43,64,42
105.27987,106.47987,45,64,42
106.47987,107.04987,38,64,42
109.17987,109.32987,62,60,42
109.47987,109.629875,62,60,42
109.77987,109.92987,62,60,42
110.379875,110.52987,60,60,42
110.67987,110.82987,60,60,42
110.97987,111.129875,60,60,42
111.57987,111.72987,59,60,42
111.879875,112.02987,59,60,42
112.17987,112.32987,59,60,42
112.77987,112.92987,58,60,42
113.07987,113.22987,58,60,42
113.379875,113.52987,58,60,42
113.67987,114.80487,57,60,42
117.57987,117.72987,57,80,42
117.879875,118.02987,53,80,42
118.17987,118.32987,50,80,42
118.47987,118.77987,45,64,42
118.77987,119.07987,57,38,42
119.07987,119.379875,57,38,42
119.379875,119.67987,57,38,42
119.67987,119.97987,57,38,42
119.97987,120.27987,57,38,42
120.27987,120.57987,57,38,42
120.57987,120.879875,57,38,42
120.879875,121.17987,57,38,42
121.17987,121.47987,61,38,42
121.47987,121.77987,62,38,42
121.77987,122.07987,56,38,42
122.07987,122.36237,57,38,42
123.27987,123.57987,45,64,42
123.57987,123.879875,57,38,42
123.879875,124.17987,57,38,42
124.17987,124.47987,57,38,42
124.47987,124.77987,57,38,42
124.77987,125.07987,57,38,42
125.07987,125.379875,57,38,42
125.379875,125.67987,57,38,42
125.67987,125.97987,57,38,42
125.97987,126.27987,61,38,42
126.27987,126.57987,62,38,42
126.57987,126.879875,56,38,42
126.879875,127.442375,57,38,42
130.17987,130.32986,53,80,42
130.32986,130.47987,50,80,42
130.47987,130.62987,49,80,42
130.62987,130.77988,44,104,42
130.77988,130.92987,45,56,42
130.92987,131.07986,44,56,42
131.07986,131.22987,45,56,42
131.22987,131.37987,44,56,42
131.37987,131.52988,45,56,42
131.52988,131.67987,41,56,42
131.67987,132.39987,40,80,42
132.57986,132.72987,52,48,42
132.87987,133.17987,51,67,42
133.17987,133.40488,51,36,42
133.77988,133.92987,50,48,42
134.07986,134.64236,45,48,42
134.97987,135.12987,57,60,42
135.27988,135.57986,58,72,42
135.57986,135.87987,57,69,42
135.87987,136.17987,55,73,42
136.17987,136.47987,53,78,42
136.47987,137.04237,52,82,42
137.37987,137.67987,52,65,42
137.67987,137.97987,53,67,42
138.27988,138.57986,53,72,42
138.87987,139.17987,53,77,42
139.47987,139.77988,53,82,42
140.07986,140.64236,46,87,42
140.97987,141.27988,46,48,42
141.27988,141.87987,48,48,42
141.87987,142.32986,60,80,42
142.32986,142.47987,59,80,42
142.47987,142.55487,60,80,42
142.55487,142.62987,59,80,42
142.62987,142.70486,60,48,42
142.70486,142.77988,59,48,42
142.77988,142.85487,60,48,42
142.85487,142.92987,59,48,42
142.92987,143.00487,60,48,42
143.00487,143.07986,59,48,42
143.07986,143.15488,60,48,42
143.15488,143.22987,59,48,42
143.22987,143.30487,60,48,42
143.30487,143.37987,59,48,42
143.37987,143.45486,60,48,42
143.45486,143.52988,59,48,42
143.52988,143.60487,57,48,42
143.60487,143.66487,59,48,42
143.67987,144.24237,60,48,42
146.37987,146.52988,48,80,42
146.67987,146.97987,60,80,42
146.97987,147.12987,58,80,42
147.27988,147.87987,58,80,42
147.87987,148.47987,57,80,42
148.77988,148.92987,46,80,42
149.07986,149.37987,58,92,42
149.37987,149.52988,56,80,42
149.67987,150.87987,55,80,42
150.87987,152.67987,48,80,42
152.67987,153.12987,48,80,42
153.12987,153.20486,50,80,42
153.20486,153.27988,52,80,42
153.27988,153.56238,53,48,42
153.87987,154.16237,46,48,42
154.47987,154.77988,45,48,42
154.77988,155.07986,46,48,42
155.07986,155.37987,48,48,42
155.37987,155.52988,48,48,42
155.67987,156.24237,41,48,42
156.87987,157.44237,45,48,42
158.07986,158.64236,46,48,42
159.27988,159.84238,48,48,42
160.47987,161.04237,50,48,42
161.67987,162.24237,45,48,42
162.87987,163.44237,46,48,42
164.07986,164.64236,48,48,42
165.27988,165.84238,53,48,42
166.47987,167.04237,45,48,42
167.67987,168.24237,46,48,42
168.87987,169.44237,48,48,42
170.07986,170.64236,50,48,42
171.27988,171.84238,45,80,42
172.47987,173.04237,46,80,42
173.97987,174.27988,45,80,42
174.27988,174.57986,46,80,42
174.57986,174.87987,48,80,42
174.87987,175.17987,53,48,42
175.17987,175.77988,51,99,42
175.77988,175.99237,50,48,42
176.00487,176.06487,48,80,42
176.07986,176.22987,46,48,42
176.37987,176.52988,45,48,42
176.67987,176.82986,43,48,42
176.97987,177.12987,41,48,42
177.57986,177.87987,46,48,42
177.87987,178.47987,48,48,42
178.47987,178.77988,53,48,42
178.77988,179.37987,63,80,42
179.37987,179.60487,62,48,42
179.60487,179.67987,60,48,42
179.67987,179.82986,58,48,42
179.97987,180.12987,57,48,42
180.27988,180.42987,55,48,42
180.57986,180.72987,53,48,42
181.17987,181.47987,46,48,42
181.47987,182.07986,48,48,42
182.07986,182.36237,41,48,42
187.47987,187.62987,58,48,42
187.77988,187.92987,58,48,42
188.07986,188.22987,57,48,42
188.37987,188.52988,57,48,42
188.67987,188.82986,52,48,42
188.97987,189.12987,52,48,42
189.27988,189.42987,53,48,42
189.57986,189.72987,50,48,42
189.87987,190.02988,45,48,42
190.17987,190.32986,46,48,42
190.47987,190.77988,45,48,42
190.77988,191.07986,50,48,42
191.07986,191.37987,48,48,42
191.37987,191.67987,36,48,42
191.67987,192.24237,41,48,42
192.57986,192.86237,60,48,42
192.87987,193.47987,53,48,42
193.78915,194.09843,48,48,42
194.09843,195.06639,41,48,42
195.06639,195.39607,53,48,42
195.39607,196.44286,53,47,42
196.44286,196.8,50,58,42
196.8,197.92535,50,62,42
197.92535,198.30998,46,83,42
198.30998,199.50998,51,48,42
199.50998,200.70998,49,60,42
200.70998,201.90997,47,60,42
201.90997,203.10997,46,60,42
203.10997,204.30998,44,60,42
204.30998,205.50998,42,60,42
205.50998,207.90997,41,50,42
207.90997,207.98497,41,51,42
207.98497,208.05998,40,51,42
208.05998,208.13498,41,51,42
208.13498,208.20998,40,51,42
208.20998,208.28497,41,51,42
208.28497,208.35997,40,51,42
208.35997,208.50998,39,51,42
208.50998,208.65997,40,51,42
208.80998,208.95998,40,51,42
209.10997,210.30998,40,51,42
210.30998,210.38498,41,43,42
210.38498,210.45998,40,43,42
210.45998,210.53497,41,43,42
210.53497,210.60997,40,43,42
210.60997,210.68498,41,43,42
210.68498,210.75998,40,43,42
210.75998,210.90997,39,43,42
210.90997,211.05998,40,43,42
211.20998,211.35997,40,43,42
211.50998,212.70998,40,43,42
212.70998,212.78497,41,66,42
212.78497,212.85997,40,68,42
212.85997,212.93498,41,68,42
212.93498,213.00998,40,69,42
213.00998,213.08498,41,70,42
213.08498,213.15997,40,73,42
213.15997,213.30998,39,74,42
213.30998,213.45998,40,75,42
213.60997,213.75998,40,81,42
213.90997,217.50998,40,85,42
217.50998,217.80998,45,97,42
217.80998,218.10997,59,80,42
218.10997,218.40997,60,80,42
218.40997,218.55998,56,48,42
218.70998,218.85997,57,48,42
219.00998,219.15997,50,48,42
219.30998,219.45998,52,48,42
219.60997,219.75998,52,48,42
221.10997,221.40997,52,96,42
221.40997,222.12997,52,40,42
222.30998,222.60997,53,48,42
222.60997,222.90997,50,80,42
222.90997,223.11998,48,80,42
223.20998,223.50998,47,48,42
223.50998,223.65997,48,48,42
223.80998,223.95998,50,48,42
224.10997,224.25998,52,48,42
224.40997,224.55998,40,48,42
227.40997,227.70998,50,48,42
227.70998,228.00998,49,48,42
228.00998,228.30998,50,48,42
228.60997,228.90997,53,48,42
228.90997,229.20998,52,48,42
229.20998,229.50998,50,48,42
229.80998,230.10997,52,48,42
230.10997,230.40997,51,48,42
230.40997,230.70998,52,48,42
231.00998,231.30998,55,48,42
231.30998,231.60997,53,48,42
231.60997,231.90997,52,48,42
231.90997,233.10997,62,80,42
233.10997,234.00998,50,80,42
234.00998,234.30998,50,80,42
234.30998,234.38498,52,100,42
234.38498,234.45998,50,100,42
234.45998,234.53497,52,100,42
234.53497,234.60997,50,100,42
234.60997,234.68498,52,100,42
234.68498,234.75998,50,100,42
234.75998,234.90997,49,100,42
234.90997,235.20998,50,100,42
235.20998,235.50998,50,100,42
235.50998,236.70998,50,100,42
236.70998,239.10997,48,80,42
239.10997,239.67247,46,80,42
240.00998,240.29248,58,48,42
240.30998,241.20998,55,48,42
241.20998,241.50998,58,48,42
241.50998,242.40997,60,48,42
242.40997,242.70998,52,48,42
242.70998,243.60997,48,48,42
243.60997,243.90997,52,48,42
243.90997,244.80998,53,48,42
244.80998,245.10997,57,48,42
245.10997,246.00998,53,48,42
246.00998,246.30998,57,48,42
246.30998,247.20998,58,48,42
247.20998,247.50998,62,48,42
247.50998,248.40997,58,48,42
248.40997,248.70998,50,48,42
248.70998,249.60997,52,48,42
249.60997,249.90997,55,59,42
249.90997,250.80998,50,62,42
250.80998,251.10997,55,69,42
251.10997,252.00998,49,72,42
252.00998,252.30998,52,79,42
252.30998,253.20998,45,82,42
253.20998,253.50998,57,89,42
253.50998,254.10997,62,92,42
254.10997,254.40997,61,97,42
254.40997,254.70998,60,99,42
254.70998,255.30998,59,92,42
255.30998,255.90997,58,92,42
255.90997,256.50998,57,80,42
256.80997,257.03497,65,48,42
257.03497,257.11,62,48,42
257.11,257.6725,61,48,42
258.30997,260.70996,45,80,42
260.70996,263.11,45,80,42
263.11,265.0082,45,80,42
265.12585,265.2435,49,55,42
265.2435,265.36115,52,55,42
265.36115,265.47882,57,61,42
265.47882,265.53763,57,61,42
265.59647,265.65527,57,55,42
265.7141,266.9141,50,74,42
266.9141,268.1141,48,64,42
268.1141,269.3141,46,64,42
269.3141,270.5141,45,64,42
270.5141,271.7141,43,64,42
271.7141,272.9141,45,64,42
272.9141,273.4841,38,64,42
275.6141,275.7641,62,60,42
275.9141,276.0641,62,60,42
276.2141,276.3641,62,60,42
276.8141,276.9641,60,60,42
277.1141,277.2641,60,60,42
277.4141,277.5641,60,60,42
278.0141,278.1641,59,60,42
278.3141,278.4641,59,60,42
278.6141,278.7641,59,60,42
279.2141,279.3641,58,60,42
279.5141,279.6641,58,60,42
279.8141,279.9641,58,60,42
280.1141,281.2391,57,60,42
284.0141,284.1641,57,80,42
284.3141,284.4641,53,80,42
284.6141,284.7641,50,80,42
284.9141,285.2141,45,64,42
285.2141,285.5141,57,38,42
285.5141,285.8141,57,38,42
285.8141,286.1141,57,38,42
286.1141,286.4141,57,38,42
286.4141,286.7141,57,38,42
286.7141,287.0141,57,38,42
287.0141,287.3141,57,38,42
287.3141,287.6141,57,38,42
287.6141,287.9141,61,38,42
287.9141,288.2141,62,38,42
288.2141,288.5141,56,38,42
288.5141,288.7966,57,38,42
289.7141,290.0141,45,64,42
290.0141,290.3141,57,38,42
290.3141,290.6141,57,38,42
290.6141,290.9141,57,38,42
290.9141,291.2141,57,38,42
291.2141,291.5141,57,38,42
291.5141,291.8141,57,38,42
291.8141,292.1141,57,38,42
292.1141,292.4141,57,38,42
292.4141,292.7141,61,38,42
292.7141,293.0141,62,38,42
293.0141,293.3141,56,38,42
293.3141,293.8766,57,38,42
296.6141,296.7641,53,80,42
296.7641,296.9141,50,80,42
296.9141,297.0641,49,48,42
297.0641,297.2141,44,104,42
297.2141,297.3641,45,48,42
297.3641,297.5141,44,48,42
297.5141,297.6641,45,48,42
297.6641,297.8141,44,48,42
297.8141,297.9641,45,48,42
297.9641,298.1141,41,48,42
298.1141,299.0141,40,72,42
299.0141,299.3141,52,48,42
299.3141,299.6141,53,48,42
299.6141,299.7641,53,48,42
300.2141,300.3641,54,36,42
300.8141,300.9641,55,36,42
301.4141,301.5641,57,36,42
301.7141,302.0141,60,60,42
302.0141,302.2966,58,36,42
302.6141,302.9141,56,64,42
302.9141,303.5141,57,68,42
303.5141,304.1141,59,77,42
304.1141,304.4141,62,86,42
304.4141,304.6966,60,48,42
305.0141,305.3141,49,89,42
305.3141,305.9141,50,77,42
305.9141,306.5141,52,67,42
306.5141,306.8141,53,48,42
306.8141,307.1141,49,61,42
307.1141,307.4141,50,66,42
307.4141,307.7141,52,70,42
307.7141,308.0141,53,75,42
308.0141,308.3141,55,80,42
308.3141,308.6141,58,84,42
308.6141,308.9141,55,76,42
308.9141,309.4766,57,56,42
311.9141,312.3641,45,100,42
312.3641,312.5141,46,48,42
312.5141,312.5891,48,48,42
312.5891,312.6641,46,48,42
312.6641,312.7391,48,48,42
312.7391,312.8141,46,48,42
312.8141,312.8891,48,48,42
312.8891,312.9641,46,48,42
312.9641,313.0391,48,48,42
313.0391,313.1141,46,48,42
313.1141,313.1891,48,48,42
313.1891,313.2641,46,48,42
313.2641,313.3391,48,48,42
313.3391,313.4141,46,48,42
313.4141,313.4891,48,48,42
313.4891,313.5491,46,48,42
313.5641,313.6241,45,48,42
313.6391,313.6991,46,48,42
313.7141,314.0141,45,48,42
314.0141,314.3141,45,100,42
314.3141,314.6141,57,100,42
314.6141,314.7641,55,100,42
314.9141,315.5141,55,100,42
315.5141,316.1141,54,100,42
316.4141,316.7141,43,80,42
316.7141,317.0141,55,80,42
317.0141,317.1641,53,80,42
317.3141,318.5141,52,80,42
318.5141,320.3141,45,80,42
320.3141,320.7641,45,80,42
320.7641,320.8391,47,80,42
320.9141,321.1966,50,48,42
321.5141,321.7966,43,48,42
322.1141,322.4141,41,48,42
322.4141,322.7141,43,48,42
322.7141,323.0141,45,48,42
323.0141,323.1641,45,48,42
323.3141,323.8766,38,48,42
324.5141,325.0766,41,48,42
325.7141,326.2766,43,48,42
326.9141,327.4766,45,48,42
328.1141,328.6766,46,48,42
329.3141,329.8766,53,48,42
330.5141,331.0766,55,48,42
331.7141,332.3141,57,48,42
332.3141,332.9141,45,48,42
332.9141,333.4766,50,48,42
334.1141,334.6766,50,48,42
335.3141,335.8766,55,48,42
336.5141,337.0766,57,48,42
337.7141,338.2766,58,48,42
338.9141,339.4766,53,80,42
340.1141,340.6766,55,80,42
341.3141,341.6141,57,80,42
341.6141,341.9141,58,80,42
341.9141,342.2141,55,80,42
342.2141,342.5141,57,80,42
342.5141,342.8141,50,48,42
342.8141,343.4141,48,100,42
343.4141,343.6391,46,48,42
343.6391,343.7141,45,48,42
343.7141,344.0141,46,48,42
344.0141,344.1641,45,48,42
344.3141,344.4641,46,48,42
344.6141,344.7641,54,48,42
344.9141,345.0641,55,59,42
345.2141,345.3641,53,71,42
345.5141,345.6641,52,83,42
345.8141,345.9641,55,94,42
346.1141,346.4141,53,80,42
346.4141,346.7141,55,80,42
346.7141,347.0141,57,80,42
347.0141,347.3141,45,80,42
347.3141,347.6141,50,48,42
347.6141,348.2141,60,100,42
348.2141,348.4391,58,48,42
348.4391,348.5141,57,48,42
348.5141,348.8141,58,48,42
348.8141,348.9641,57,48,42
349.1141,349.2641,58,48,42
349.4141,349.5641,54,48,42
349.7141,349.8641,55,58,42
350.0141,350.1641,53,70,42
350.3141,350.4641,52,82,42
350.6141,350.7641,55,94,42
350.9141,351.2141,53,80,42
351.2141,351.5141,55,80,42
351.5141,351.8141,57,80,42
351.8141,352.1141,45,80,42
352.1141,352.3966,50,80,42
357.5141,357.6641,55,48,42
357.8141,357.9641,55,48,42
358.1141,358.2641,53,48,42
358.4141,358.5641,53,48,42
358.7141,358.8641,49,48,42
359.0141,359.1641,49,48,42
359.3141,359.6141,50,53,42
359.6141,359.8966,48,48,42
360.5141,360.8141,47,110,42
360.8141,361.0966,46,48,42
361.7141,361.8641,45,60,42
362.0141,362.1641,43,60,42
362.3141,362.6141,45,60,42
362.6141,362.9141,45,60,42
362.9141,363.4766,38,60,42
363.8141,364.1141,57,60,42
364.1141,364.7141,50,60,42
365.01712,365.32016,45,60,42
365.32016,366.23233,38,60,42
366.23233,366.47723,50,66,42
366.53845,366.84457,51,66,42
366.84457,367.1507,50,68,42
367.1507,367.46,48,72,42
367.46,367.7074,50,74,42
367.76926,368.70032,47,77,42
368.70032,368.95032,50,85,42
369.01282,369.32532,52,88,42
369.32532,369.63782,50,90,42
369.63782,369.9536,49,94,42
369.9536,370.20624,50,96,42
370.2694,371.22012,45,99,42
371.22012,371.47543,53,108,42
371.53928,372.50015,43,88,42
372.50015,372.82272,51,88,42
372.82272,373.1488,49,88,42
373.1488,373.4749,45,88,42
373.4749,373.801,46,88,42
373.801,374.12708,41,88,42
374.12708,374.45676,43,88,42
374.45676,374.7864,46,88,42
374.7864,375.1161,45,88,42
375.1161,375.44577,45,88,42
375.44577,376.07077,50,80,42
376.44577,376.77908,57,48,42
376.77908,377.4111,50,48,42
377.79807,378.1429,45,48,42
378.1429,378.79697,50,48,42
379.19772,379.48343,57,92,42
379.7356,380.41663,50,101,42
