start_time,end_time,note_value,velocity,instrument_program_number
19.636362,20.147726,81,93,40
20.181816,20.69318,81,93,40
20.72727,22.579544,81,62,40
22.636362,22.772726,80,62,40
22.772726,22.909088,78,62,40
22.909088,24.761362,76,62,40
24.81818,24.954544,74,62,40
24.954544,25.090906,73,62,40
25.090906,25.499998,71,62,40
25.499998,25.636362,73,62,40
25.636362,26.045452,69,62,40
26.045452,26.181816,71,62,40
26.181816,26.69318,68,62,40
28.363634,28.590906,79,93,40
28.909088,29.454542,79,93,40
29.454542,30.931816,78,62,40
30.954542,31.090906,76,62,40
31.090906,31.47727,74,62,40
31.499998,31.63636,71,62,40
31.63636,32.022724,69,62,40
32.045452,32.181816,68,62,40
32.181816,32.56818,69,62,40
32.590908,32.72727,66,62,40
32.72727,33.113632,64,62,40
33.13636,33.272724,62,62,40
33.272724,33.65909,64,62,40
33.681816,33.81818,66,62,40
33.81818,33.88636,62,62,40
33.88636,33.954544,64,62,40
33.954544,34.204544,62,62,40
34.22727,34.363632,61,62,40
34.363632,34.749996,62,62,40
34.772724,34.90909,64,62,40
34.90909,35.420452,61,62,40
55.63636,55.863632,76,62,40
56.181812,56.72727,76,62,40
56.72727,57.488632,68,62,40
57.54545,57.681812,71,62,40
57.681812,57.818176,68,62,40
57.818176,58.20454,69,62,40
58.22727,58.363632,71,62,40
58.363632,58.749996,73,62,40
58.772724,58.909084,74,62,40
58.909084,59.67045,71,62,40
59.72727,59.863632,74,62,40
59.863632,59.999996,71,62,40
59.999996,60.38636,73,62,40
60.409084,60.54545,68,62,40
60.54545,60.931812,69,62,40
60.95454,61.090904,66,62,40
61.090904,61.60227,71,62,40
63.27272,63.784084,78,93,40
63.818176,64.32954,78,93,40
64.36363,65.86363,78,62,40
65.86363,65.99999,71,66,40
65.99999,66.40909,83,68,40
66.40909,66.54545,76,73,40
66.54545,66.95454,81,75,40
66.95454,67.090904,73,79,40
67.090904,67.49999,78,81,40
67.49999,67.63636,66,86,40
67.63636,68.02272,64,88,40
68.04545,68.181816,62,93,40
68.181816,68.56818,64,93,40
68.590904,68.727264,66,93,40
68.727264,68.79545,62,93,40
68.79545,68.86363,64,93,40
68.86363,69.11363,62,93,40
69.13636,69.27272,61,93,40
69.27272,69.65909,62,93,40
69.681816,69.81818,64,93,40
69.81818,70.32954,61,93,40
79.63636,79.89772,73,62,40
79.90908,80.17045,71,62,40
80.18181,80.44318,69,62,40
80.45454,80.715904,68,62,40
80.727264,81.23863,66,62,40
81.54545,81.63636,68,62,40
81.63636,81.727264,66,62,40
81.727264,81.81818,65,62,40
81.81818,82.07954,66,62,40
82.090904,82.20454,68,62,40
82.36363,82.477264,69,62,40
82.63636,82.74999,70,62,40
82.90908,83.29545,71,62,40
83.31818,83.45454,68,62,40
83.45454,83.715904,76,62,40
83.99999,84.26136,73,62,40
84.27272,84.53408,71,62,40
84.54545,84.80681,69,62,40
84.81818,85.07954,68,62,40
85.090904,85.20454,66,62,40
85.36363,85.45454,68,62,40
85.45454,85.54545,66,62,40
85.54545,85.63636,65,62,40
85.63636,85.89772,66,62,40
85.90908,86.02272,68,62,40
86.18181,86.29545,69,62,40
86.45454,86.56818,70,62,40
86.727264,86.840904,71,62,40
86.99999,87.11363,68,62,40
87.27272,87.78408,64,62,40
113.45454,113.9659,81,93,40
113.99999,114.51135,81,93,40
114.54545,116.02272,81,62,40
116.04545,116.18181,80,65,40
116.18181,116.56817,81,66,40
116.5909,116.727264,83,69,40
116.727264,118.32954,76,70,40
118.363625,119.45454,69,84,40
119.45454,119.9659,68,93,40
119.99999,120.51135,69,93,40
121.0909,121.31817,72,62,40
121.63635,122.18181,72,62,40
122.18181,123.19317,76,62,40
123.27272,123.65908,71,62,40
123.68181,123.81817,69,62,40
123.81817,124.20454,71,62,40
124.227264,124.363625,72,62,40
124.363625,124.87499,69,62,40
125.45454,125.68181,76,62,40
125.99999,126.54544,76,62,40
126.54544,127.55681,64,62,40
127.63635,128.02272,66,62,40
128.04544,128.18181,64,62,40
128.18181,128.56818,66,62,40
128.5909,128.72726,68,62,40
128.72726,129.23863,64,62,40
129.81818,130.04544,76,62,40
130.36363,130.90907,76,62,40
130.90907,131.92044,77,62,40
131.99998,132.38635,74,69,40
132.40907,132.54544,76,72,40
132.54544,132.93181,77,73,40
132.95453,133.0909,74,76,40
133.0909,134.10226,79,77,40
134.18181,134.56818,76,85,40
134.5909,134.72726,77,88,40
134.72726,135.11363,79,89,40
135.13635,135.27272,76,92,40
135.27272,135.53407,80,93,40
135.54544,135.80681,81,87,40
135.81818,136.07953,77,82,40
136.0909,136.35226,74,77,40
136.36363,136.87498,72,72,40
136.90907,137.17044,76,62,40
137.18181,137.44318,74,62,40
137.45453,137.9659,72,62,40
138.54544,138.77272,76,62,40
139.0909,139.63635,76,62,40
139.63635,140.64772,79,62,40
140.72726,141.11363,74,62,40
141.13635,141.27272,72,62,40
141.27272,141.65907,74,62,40
141.68181,141.81818,76,62,40
141.81818,142.82953,77,62,40
142.90907,143.29544,72,62,40
143.31818,143.45453,71,62,40
143.45453,143.8409,72,62,40
143.86362,143.99998,74,62,40
143.99998,145.01135,76,62,40
145.0909,145.49998,77,62,40
145.49998,145.63635,76,62,40
145.63635,146.04544,74,62,40
146.04544,146.18181,72,62,40
146.18181,146.72726,72,62,40
146.72726,146.98862,71,62,40
147.27272,147.49998,76,62,40
147.81818,148.36362,76,62,40
148.36362,149.37498,77,62,40
149.45453,149.8409,74,62,40
149.86362,149.99998,76,65,40
149.99998,150.38635,78,67,40
150.40907,150.54544,74,71,40
150.54544,151.55681,79,72,40
151.63635,152.02272,76,82,40
152.04544,152.18181,78,86,40
152.18181,152.56818,80,87,40
152.5909,152.72726,76,91,40
152.72726,153.13635,81,93,40
153.13635,153.27272,76,85,40
153.27272,153.68181,77,82,40
153.68181,153.81818,69,74,40
153.81818,154.32953,72,72,40
154.36362,154.43181,72,62,40
154.43181,154.49998,71,62,40
154.49998,154.56818,72,62,40
154.56818,154.63635,71,62,40
154.63635,154.77272,69,62,40
154.77272,154.90907,71,62,40
154.90907,155.42044,69,62,40
163.77272,163.90907,64,62,40
163.90907,164.04544,68,62,40
164.04544,164.18181,71,62,40
164.18181,164.31816,76,62,40
164.31816,164.45453,80,62,40
164.45453,164.5909,83,62,40
164.5909,164.72726,80,62,40
164.72726,164.86362,84,62,40
164.86362,164.99998,81,62,40
164.99998,165.13635,78,62,40
165.13635,165.27272,75,62,40
165.27272,165.40907,72,62,40
165.40907,165.54544,69,62,40
165.54544,165.68181,66,62,40
165.68181,165.81816,63,62,40
165.95453,166.0909,64,62,40
166.0909,166.22726,68,62,40
166.22726,166.36362,71,62,40
166.36362,166.49998,76,62,40
166.49998,166.63635,80,62,40
166.63635,166.77272,83,62,40
166.77272,166.90907,80,62,40
166.90907,167.04544,84,62,40
167.04544,167.18181,81,62,40
167.18181,167.31816,78,62,40
167.31816,167.45453,75,62,40
167.45453,167.5909,72,62,40
167.5909,167.72726,69,62,40
167.72726,167.86362,66,62,40
167.86362,167.99998,63,62,40
167.99998,168.51135,64,62,40
183.2727,183.78407,81,93,40
183.81816,184.32953,81,93,40
184.36362,185.8409,81,62,40
185.86362,185.99998,80,65,40
185.99998,186.38635,81,66,40
186.40907,186.54544,83,69,40
186.54544,188.1477,76,70,40
188.18181,189.2727,69,84,40
189.2727,189.78407,68,93,40
189.81816,190.32953,69,93,40
200.72725,201.23862,78,93,40
201.2727,201.78407,78,93,40
201.81816,203.31816,78,62,40
203.31816,203.45453,71,66,40
203.45453,203.86362,83,68,40
203.86362,203.99998,76,73,40
203.99998,204.40907,81,75,40
204.40907,204.54544,73,79,40
204.54544,204.95453,78,81,40
204.95453,205.0909,66,86,40
205.0909,205.47725,69,88,40
205.49998,205.63635,68,93,40
205.63635,206.0227,69,93,40
206.04544,206.18181,71,93,40
206.18181,206.24998,68,93,40
206.24998,206.31816,69,93,40
206.31816,206.56816,68,93,40
206.5909,206.72725,66,93,40
206.72725,207.11362,68,93,40
207.13635,207.2727,64,93,40
207.2727,207.78407,69,93,40
212.72725,212.86362,62,93,40
212.86362,212.99998,64,93,40
212.99998,213.13635,68,93,40
213.13635,213.2727,64,93,40
213.2727,213.40907,62,93,40
213.40907,213.54544,64,93,40
213.54544,213.6818,62,93,40
213.6818,213.81816,64,93,40
213.81816,213.95453,61,93,40
213.95453,214.0909,64,93,40
214.0909,214.22725,69,93,40
214.22725,214.36362,64,93,40
214.36362,214.49998,61,93,40
214.49998,214.63635,64,93,40
214.63635,214.7727,61,93,40
214.7727,214.90907,57,93,40
214.90907,215.04544,56,93,40
215.04544,215.1818,57,93,40
215.1818,215.31816,59,93,40
215.31816,215.45453,61,93,40
215.45453,215.5909,62,93,40
215.5909,215.72725,59,93,40
215.72725,215.86362,64,93,40
215.86362,215.99998,62,93,40
215.99998,216.51135,61,93,40
217.0909,217.35225,81,62,40
217.36362,217.62498,80,62,40
217.63635,217.8977,78,62,40
217.90907,218.17044,76,62,40
218.1818,218.45453,73,78,40
218.45453,218.7159,74,62,40
218.72725,218.8409,74,62,40
218.99998,219.03407,76,62,40
219.03407,219.06816,74,62,40
219.06816,219.10225,76,62,40
219.10225,219.13635,74,62,40
219.13635,219.20453,73,62,40
219.20453,219.2727,74,62,40
219.2727,219.53407,78,62,40
219.54544,219.8068,76,62,40
219.81816,220.07953,74,62,40
220.0909,220.35225,73,62,40
220.36362,220.63635,70,78,40
220.63635,220.8977,71,62,40
220.90907,221.0227,71,62,40
221.1818,221.29544,71,62,40
221.45453,222.2159,71,93,40
222.2727,222.3409,73,93,40
222.3409,222.40907,71,93,40
222.40907,222.47725,69,93,40
222.47725,222.54544,71,93,40
222.54544,223.3068,73,93,40
223.36362,223.4318,74,93,40
223.4318,223.49998,73,93,40
223.49998,223.56816,71,93,40
223.56816,223.63635,73,93,40
223.63635,224.0227,74,93,40
224.04544,224.1818,71,93,40
224.1818,224.56816,76,93,40
224.5909,224.72725,68,93,40
224.72725,225.23862,69,93,40
235.63634,235.86362,79,93,40
236.1818,236.72725,79,93,40
236.72725,238.20453,78,62,40
238.22725,238.36362,76,62,40
238.36362,238.74998,74,62,40
238.7727,238.90907,71,62,40
238.90907,239.29544,69,62,40
239.31816,239.45453,68,62,40
239.45453,239.8409,69,62,40
239.86362,239.99998,66,62,40
239.99998,240.38634,64,62,40
240.40907,240.54544,62,62,40
240.54544,240.9318,64,62,40
240.95453,241.0909,66,62,40
241.0909,241.15907,62,62,40
241.15907,241.22725,64,62,40
241.22725,241.47725,62,62,40
241.49998,241.63634,61,62,40
241.63634,242.0227,62,62,40
242.04544,242.1818,64,62,40
242.1818,242.69316,61,62,40
243.2727,243.34088,71,62,40
243.34088,243.40907,73,62,40
243.40907,243.65907,71,62,40
243.6818,243.81816,69,62,40
243.81816,244.20453,71,62,40
244.22725,244.36362,73,62,40
244.36362,244.87498,69,62,40
247.63634,247.86362,64,62,40
247.63634,247.86362,62,62,40
248.1818,248.40907,64,62,40
248.1818,248.40907,62,62,40
248.72725,249.23862,64,62,40
248.72725,249.23862,61,62,40
249.81816,250.20453,80,62,40
250.22725,250.36362,81,62,40
250.36362,250.74998,78,62,40
250.7727,250.90907,80,62,40
250.90907,251.42044,81,62,40
19.636362,20.147726,45,93,42
20.181816,20.69318,45,93,42
20.72727,23.329544,45,62,42
23.454544,23.965906,44,62,42
23.999998,24.511362,45,62,42
24.545452,25.056816,49,62,42
25.090906,25.60227,44,62,42
25.636362,26.147724,45,62,42
26.181816,26.69318,40,62,42
28.363634,28.874998,38,93,42
28.909088,29.420452,38,93,42
29.454542,31.056816,38,62,42
31.090906,31.60227,40,62,42
31.63636,32.147724,42,62,42
32.181816,32.69318,39,62,42
32.72727,33.238632,40,62,42
33.81818,34.329544,40,62,42
34.90909,35.420452,45,62,42
54.54545,57.238632,40,62,42
57.272724,57.784084,50,62,42
57.818176,58.32954,49,62,42
58.363632,58.874996,45,62,42
58.909084,61.60227,40,62,42
63.27272,63.784084,42,93,42
63.818176,64.32954,42,93,42
64.36363,65.37499,42,62,42
65.45454,65.965904,47,62,42
65.99999,66.51136,40,68,42
66.54545,67.056816,42,74,42
67.090904,67.602264,39,80,42
67.63636,68.14772,40,86,42
68.727264,69.23863,40,93,42
69.81818,70.32954,45,93,42
80.727264,81.23863,51,62,42
81.27272,81.78408,54,62,42
81.81818,82.32954,57,62,42
82.36363,82.87499,54,62,42
82.90908,83.42045,56,62,42
83.45454,83.965904,52,62,42
83.99999,84.51136,64,62,42
84.54545,85.05681,52,62,42
85.090904,85.602264,57,62,42
85.63636,86.14772,54,62,42
86.18181,86.69318,59,62,42
86.727264,87.23863,57,62,42
87.27272,87.78408,56,62,42
113.45454,113.9659,45,93,42
113.99999,114.51135,45,93,42
114.54545,117.14772,45,62,42
117.27272,117.78408,52,77,42
117.81817,118.82954,57,82,42
119.45454,119.9659,40,93,42
119.99999,120.51135,45,93,42
139.63635,139.86363,52,62,42
140.18181,140.72726,52,62,42
140.72726,141.73862,55,62,42
141.81818,142.20453,50,62,42
142.22726,142.36362,48,62,42
142.36362,142.74998,50,62,42
142.77272,142.90907,52,62,42
142.90907,143.92044,53,62,42
143.99998,145.01135,48,62,42
145.0909,145.60226,47,62,42
145.63635,146.14772,45,62,42
146.18181,147.19318,40,62,42
163.63635,168.51135,40,62,42
183.2727,183.78407,45,93,42
183.81816,184.32953,45,93,42
184.36362,186.9659,45,62,42
187.0909,187.60226,52,77,42
187.63635,188.6477,57,82,42
189.2727,189.78407,40,93,42
189.81816,190.32953,45,93,42
200.72725,201.23862,42,93,42
201.2727,201.78407,42,93,42
201.81816,202.82953,42,62,42
202.90907,203.42044,47,62,42
203.45453,203.9659,40,68,42
203.99998,204.51135,42,74,42
204.54544,205.05681,39,80,42
205.0909,205.60225,40,86,42
206.18181,206.69316,40,93,42
207.2727,207.78407,45,93,42
212.72725,213.73862,52,93,42
213.81816,214.82953,52,93,42
214.90907,215.42044,52,93,42
215.45453,215.9659,40,93,42
215.99998,216.51135,45,93,42
217.0909,217.35225,66,62,42
217.36362,217.62498,64,62,42
217.63635,217.8977,62,62,42
217.90907,218.17044,61,62,42
218.1818,218.45453,58,78,42
218.45453,218.7159,59,62,42
218.72725,218.8409,59,62,42
218.99998,219.03407,61,62,42
219.03407,219.06816,59,62,42
219.06816,219.10225,61,62,42
219.10225,219.13635,59,62,42
219.13635,219.20453,58,62,42
219.20453,219.2727,59,62,42
219.2727,219.53407,62,62,42
219.54544,219.8068,61,62,42
219.81816,220.07953,59,62,42
220.0909,220.35225,57,62,42
220.36362,220.63635,55,78,42
220.63635,220.8977,56,62,42
220.90907,221.0227,56,62,42
221.1818,221.29544,56,62,42
221.45453,222.2159,56,93,42
222.2727,222.3409,57,93,42
222.3409,222.40907,56,93,42
222.40907,222.47725,54,93,42
222.47725,222.54544,56,93,42
222.54544,223.3068,57,93,42
223.36362,223.4318,59,93,42
223.4318,223.49998,57,93,42
223.49998,223.56816,56,93,42
223.56816,223.63635,57,93,42
223.63635,224.1477,56,93,42
224.1818,224.69316,40,93,42
224.72725,225.23862,45,93,42
235.63634,236.1477,38,93,42
236.1818,236.69316,38,93,42
236.72725,238.32953,38,62,42
238.36362,238.87498,40,62,42
238.90907,239.42044,42,62,42
239.45453,239.9659,39,62,42
239.99998,240.51134,40,62,42
241.0909,241.60225,40,62,42
242.1818,242.69316,45,62,42
249.81816,250.20453,59,62,42
250.22725,250.36362,61,62,42
250.36362,250.74998,57,62,42
250.7727,250.90907,59,62,42
250.90907,251.42044,61,62,42
1.090909,1.3181818,73,62,0
1.6363635,2.181818,73,62,0
2.181818,3.1931815,76,62,0
3.272727,3.6590905,71,62,0
3.6818178,3.8181815,69,62,0
3.8181815,4.204545,71,62,0
4.2272725,4.363636,73,62,0
4.363636,4.8749995,66,62,0
4.9090905,5.420454,68,62,0
5.454545,5.9659085,69,62,0
5.9999995,6.511363,71,62,0
6.545454,7.0568175,73,62,0
7.0909085,7.602272,69,62,0
7.636363,8.022727,74,62,0
8.045454,8.181817,76,62,0
8.181817,8.568181,73,62,0
8.590908,8.727272,74,62,0
8.727272,9.238636,71,62,0
9.272726,9.53409,64,62,0
9.818181,10.045454,73,62,0
10.363635,10.874999,73,62,0
10.90909,11.670454,76,62,0
11.727272,11.863635,74,62,0
11.863635,11.999999,73,62,0
11.999999,12.386363,71,62,0
12.40909,12.545453,70,62,0
12.545453,12.931817,71,62,0
12.954544,13.090908,73,62,0
13.090908,13.602272,66,62,0
13.636362,14.147726,68,62,0
14.181817,14.693181,69,62,0
14.727271,15.238635,71,62,0
15.272726,15.65909,73,62,0
15.681817,15.81818,71,62,0
15.81818,16.204544,73,62,0
16.227272,16.363634,74,62,0
16.363634,16.431816,71,62,0
16.431816,16.499998,73,62,0
16.499998,16.749998,71,62,0
16.772726,16.90909,69,62,0
16.90909,17.295454,71,62,0
17.31818,17.454544,73,62,0
17.454544,17.965908,69,62,0
18.545452,18.772726,73,93,0
19.090908,19.636362,73,93,0
19.636362,20.647726,76,93,0
20.72727,21.113634,71,62,0
21.136362,21.272726,69,62,0
21.272726,21.65909,71,62,0
21.681816,21.81818,73,62,0
21.81818,22.329544,66,62,0
22.363634,22.874998,68,62,0
22.909088,23.420452,69,62,0
23.454544,23.965906,71,62,0
23.999998,24.511362,73,62,0
24.545452,25.056816,69,62,0
25.090906,25.47727,74,62,0
25.499998,25.636362,76,62,0
25.636362,26.022724,73,62,0
26.045452,26.181816,74,62,0
26.181816,26.69318,71,62,0
26.72727,26.988634,64,62,0
27.272724,27.499998,73,93,0
27.81818,28.329542,73,93,0
28.363634,29.124998,76,93,0
29.181816,29.31818,74,93,0
29.31818,29.454542,73,93,0
29.454542,29.840906,71,62,0
29.863634,29.999998,70,62,0
29.999998,30.38636,71,62,0
30.409088,30.545452,73,62,0
30.545452,31.056816,66,62,0
31.090906,31.60227,68,62,0
31.63636,32.147724,69,62,0
32.181816,32.69318,71,62,0
32.72727,33.113632,73,62,0
33.13636,33.272724,71,62,0
33.272724,33.65909,73,62,0
33.681816,33.81818,74,62,0
33.81818,33.88636,71,62,0
33.88636,33.954544,73,62,0
33.954544,34.204544,71,62,0
34.22727,34.363632,69,62,0
34.363632,34.749996,71,62,0
34.772724,34.90909,73,62,0
34.90909,35.420452,69,62,0
35.999996,36.22727,76,62,0
36.545452,37.056816,76,62,0
37.090904,37.85227,68,62,0
37.90909,38.045452,71,62,0
38.045452,38.181816,68,62,0
38.181816,38.56818,69,62,0
38.590904,38.72727,71,62,0
38.72727,39.113632,73,62,0
39.13636,39.272724,74,62,0
39.272724,39.78409,71,62,0
40.363632,40.590904,76,62,0
40.90909,41.45454,76,62,0
41.45454,42.215904,68,62,0
42.272724,42.40909,71,62,0
42.40909,42.545452,68,62,0
42.545452,42.931816,69,62,0
42.95454,43.090904,71,62,0
43.090904,43.47727,73,62,0
43.499996,43.63636,75,62,0
43.63636,44.147724,76,62,0
44.72727,44.95454,73,62,0
45.272724,45.78409,73,62,0
45.818176,46.07954,76,62,0
46.090904,46.20454,75,62,0
46.363632,46.47727,74,62,0
46.63636,46.749996,73,62,0
46.90909,47.295452,71,62,0
47.318176,47.45454,70,62,0
47.45454,47.840904,71,62,0
47.863632,47.999996,73,62,0
47.999996,48.51136,66,62,0
48.545452,49.056812,68,62,0
49.090904,49.60227,69,62,0
49.63636,50.147724,71,62,0
50.181812,50.568176,73,62,0
50.590904,50.72727,71,62,0
50.72727,51.113632,73,62,0
51.13636,51.272724,74,62,0
51.272724,51.340904,71,62,0
51.340904,51.40909,73,62,0
51.40909,51.65909,71,62,0
51.681812,51.818176,69,62,0
51.818176,52.20454,71,62,0
52.22727,52.363632,73,62,0
52.363632,52.874996,69,62,0
53.45454,53.681812,76,62,0
53.999996,54.51136,76,62,0
54.54545,55.306812,68,62,0
55.363632,55.499996,71,62,0
55.499996,55.63636,68,62,0
55.63636,56.022724,69,62,0
56.04545,56.181812,71,62,0
56.181812,56.568176,73,62,0
56.590904,56.72727,74,62,0
56.72727,57.238632,71,62,0
57.818176,58.04545,76,62,0
58.363632,58.874996,76,62,0
58.909084,59.67045,68,62,0
59.72727,59.863632,71,62,0
59.863632,59.999996,68,62,0
59.999996,60.38636,69,62,0
60.409084,60.54545,71,62,0
60.54545,60.931812,73,62,0
60.95454,61.090904,75,62,0
61.090904,61.60227,76,62,0
62.181812,62.409084,73,93,0
62.72727,63.238632,73,93,0
63.27272,64.03409,76,93,0
64.090904,64.227264,74,93,0
64.227264,64.36363,73,93,0
64.36363,64.74999,71,62,0
64.77272,64.90909,70,62,0
64.90909,65.29545,71,62,0
65.31818,65.45454,73,62,0
65.45454,65.965904,66,62,0
65.99999,66.51136,68,68,0
66.54545,67.056816,69,75,0
67.090904,67.602264,71,81,0
67.63636,68.02272,73,88,0
68.04545,68.181816,71,93,0
68.181816,68.56818,73,93,0
68.590904,68.727264,74,93,0
68.727264,68.79545,71,93,0
68.79545,68.86363,73,93,0
68.86363,69.11363,71,93,0
69.13636,69.27272,69,93,0
69.27272,69.65909,71,93,0
69.681816,69.81818,73,93,0
69.81818,70.32954,69,93,0
70.90909,71.17045,73,62,0
71.18181,71.44318,71,62,0
71.45454,71.715904,69,62,0
71.727264,71.98863,68,62,0
71.99999,72.51136,66,62,0
72.81818,72.90909,68,62,0
72.90909,72.99999,66,62,0
72.99999,73.090904,65,62,0
73.090904,73.352264,66,62,0
73.36363,73.477264,68,62,0
73.63636,73.74999,69,62,0
73.90909,74.02272,70,62,0
74.18181,74.56818,71,62,0
74.590904,74.727264,68,62,0
74.727264,74.98863,76,62,0
75.27272,75.53409,73,62,0
75.54545,75.80681,71,62,0
75.81818,76.07954,69,62,0
76.090904,76.352264,68,62,0
76.36363,76.477264,66,62,0
76.63636,76.727264,68,62,0
76.727264,76.81818,66,62,0
76.81818,76.90909,65,62,0
76.90909,77.17045,66,62,0
77.18181,77.29545,68,62,0
77.45454,77.56818,69,62,0
77.727264,77.840904,70,62,0
77.99999,78.11363,71,62,0
78.27272,78.38636,68,62,0
78.54545,79.05681,64,62,0
80.86363,80.99999,66,62,0
80.99999,81.13636,81,62,0
81.13636,81.27272,80,62,0
81.27272,81.40908,78,62,0
81.40908,81.54545,76,62,0
81.54545,81.68181,75,62,0
81.68181,81.81818,73,62,0
81.81818,81.95454,71,62,0
81.95454,82.090904,69,62,0
82.090904,82.227264,68,62,0
82.227264,82.36363,66,62,0
82.36363,82.49999,64,62,0
82.49999,82.63636,63,62,0
82.63636,82.77272,61,62,0
82.77272,82.90908,59,62,0
82.90908,83.04545,64,62,0
83.04545,83.18181,59,62,0
83.18181,83.31818,68,62,0
83.31818,83.45454,64,62,0
83.45454,83.590904,71,62,0
83.590904,83.727264,68,62,0
83.727264,83.86363,76,62,0
83.86363,83.99999,71,62,0
83.99999,84.13636,73,62,0
84.13636,84.27272,81,62,0
84.27272,84.40908,71,62,0
84.40908,84.54545,80,62,0
84.54545,84.68181,69,62,0
84.68181,84.81818,78,62,0
84.81818,84.95454,68,62,0
84.95454,85.090904,76,62,0
85.090904,85.227264,66,62,0
85.227264,85.36363,75,62,0
85.36363,85.49999,85,62,0
85.49999,85.63636,83,62,0
85.63636,85.77272,81,62,0
85.77272,85.90908,80,62,0
85.90908,86.04545,78,62,0
86.04545,86.18181,76,62,0
86.18181,86.31818,75,62,0
86.31818,86.45454,73,62,0
86.45454,86.590904,71,62,0
86.590904,86.727264,69,62,0
86.727264,86.86363,68,62,0
86.86363,86.99999,66,62,0
86.99999,87.13636,64,62,0
87.13636,87.27272,63,62,0
87.27272,87.78408,64,62,0
88.36363,88.62499,76,62,0
88.63635,88.89772,77,127,0
88.90908,89.17045,78,62,0
89.18181,89.44318,73,62,0
89.45454,89.715904,74,62,0
89.727264,89.98863,75,127,0
89.99999,90.26135,76,62,0
90.27272,90.53408,71,62,0
90.54545,90.80681,73,62,0
90.81818,90.88635,74,127,0
90.88635,90.95454,73,62,0
90.95454,91.02272,71,62,0
91.02272,91.090904,73,62,0
91.090904,91.352264,74,62,0
91.36363,91.62499,70,62,0
91.63635,91.89772,71,62,0
91.90908,92.17045,72,127,0
92.18181,92.44318,73,62,0
92.45454,92.715904,68,62,0
92.727264,92.98863,69,62,0
92.99999,93.13635,71,62,0
93.13635,93.27272,73,62,0
93.27272,93.40908,71,62,0
93.40908,93.54545,69,62,0
93.54545,93.68181,68,62,0
93.68181,93.81818,66,62,0
93.81818,93.95454,64,62,0
93.95454,94.090904,63,62,0
94.090904,94.227264,66,62,0
94.227264,94.36363,64,62,0
94.36363,94.49999,68,62,0
94.49999,94.63635,66,62,0
94.63635,94.77272,69,62,0
94.77272,94.90908,68,62,0
94.90908,95.04545,71,62,0
95.04545,95.18181,69,62,0
95.18181,95.31818,73,62,0
95.31818,95.45454,71,62,0
95.45454,95.590904,75,62,0
95.590904,95.727264,73,62,0
95.727264,95.863625,76,62,0
95.863625,95.99999,75,62,0
95.99999,96.13635,78,62,0
96.13635,96.27272,76,62,0
96.27272,96.32954,71,62,0
96.40908,96.465904,80,62,0
96.54545,96.68181,81,62,0
96.68181,96.81818,80,62,0
96.81818,96.87499,76,62,0
96.95454,97.01135,83,62,0
97.090904,97.227264,85,62,0
97.227264,97.363625,83,62,0
97.363625,97.42045,81,62,0
97.49999,97.55681,80,62,0
97.63635,97.77272,80,62,0
97.77272,97.90908,78,62,0
97.90908,97.965904,76,62,0
98.04545,98.102264,75,62,0
98.18181,98.31818,78,62,0
98.31818,98.45454,76,62,0
98.45454,98.51135,71,62,0
98.590904,98.64772,80,62,0
98.727264,98.863625,81,62,0
98.863625,98.99999,80,62,0
98.99999,99.05681,76,62,0
99.13635,99.19318,83,62,0
99.27272,99.40908,85,62,0
99.40908,99.54545,83,62,0
99.54545,99.602264,81,62,0
99.68181,99.738625,80,62,0
99.81818,99.95454,80,62,0
99.95454,100.090904,78,62,0
100.090904,100.14772,76,62,0
100.227264,100.28408,75,62,0
100.363625,100.87499,76,62,0
100.90908,101.42045,77,62,0
101.45454,101.965904,78,62,0
101.99999,102.06818,80,62,0
102.06818,102.13635,78,62,0
102.13635,102.20454,77,62,0
102.20454,102.27272,78,62,0
102.27272,102.40908,80,62,0
102.40908,102.54545,81,62,0
102.54545,102.68181,81,62,0
102.68181,102.81818,80,62,0
102.81818,102.87499,78,62,0
102.95454,103.01135,76,62,0
103.090904,103.227264,76,62,0
103.227264,103.363625,74,62,0
103.363625,103.42045,73,62,0
103.49999,103.55681,71,62,0
103.63635,103.863625,73,62,0
104.18181,104.727264,73,62,0
104.727264,105.738625,76,62,0
105.81818,106.20454,71,62,0
106.227264,106.363625,69,62,0
106.363625,106.74999,71,62,0
106.77272,106.90908,73,62,0
106.90908,107.42045,66,62,0
107.45454,107.9659,68,62,0
107.99999,108.51135,69,62,0
108.54545,109.05681,71,62,0
109.0909,109.602264,73,62,0
109.63635,110.14772,69,62,0
110.18181,110.56818,74,62,0
110.5909,110.727264,76,62,0
110.727264,111.113625,73,62,0
111.13635,111.27272,74,62,0
111.27272,111.78408,71,62,0
111.81818,112.07954,64,62,0
112.363625,112.5909,73,93,0
112.90908,113.45454,73,93,0
113.45454,114.2159,76,93,0
114.27272,114.40908,74,93,0
114.40908,114.54545,73,93,0
114.54545,114.93181,71,62,0
114.95454,115.0909,70,62,0
115.0909,115.477264,71,62,0
115.49999,115.63635,73,62,0
115.63635,116.02272,66,62,0
116.04545,116.18181,64,66,0
116.18181,116.56817,66,68,0
116.5909,116.727264,68,73,0
116.727264,117.113625,69,75,0
117.13635,117.27272,68,79,0
117.27272,117.65908,69,81,0
117.68181,117.81817,71,86,0
117.81817,118.20454,73,88,0
118.227264,118.363625,71,93,0
118.363625,118.74999,73,93,0
118.77272,118.90908,74,93,0
118.90908,118.977264,71,93,0
118.977264,119.04545,73,93,0
119.04545,119.29545,71,93,0
119.31817,119.45454,69,93,0
119.45454,119.8409,71,93,0
119.863625,119.99999,73,93,0
119.99999,120.51135,69,93,0
122.18181,122.352264,60,62,0
122.363625,122.53408,64,62,0
122.54544,122.7159,69,62,0
122.727264,122.89772,64,62,0
122.90908,123.07954,60,62,0
123.0909,123.26135,57,62,0
123.27272,123.44317,62,62,0
123.45454,123.62499,64,62,0
123.63635,123.80681,68,62,0
123.81817,123.988625,64,62,0
123.99999,124.17044,62,62,0
124.18181,124.352264,59,62,0
124.363625,124.53408,60,62,0
124.54544,124.7159,64,62,0
124.727264,124.89772,69,62,0
124.90908,125.07954,64,62,0
125.0909,125.26135,60,62,0
125.27272,125.44317,57,62,0
125.45454,125.62499,60,62,0
125.63635,125.80681,64,62,0
125.81817,125.988625,69,62,0
125.99999,126.17044,64,62,0
126.18181,126.352264,60,62,0
126.363625,126.53408,57,62,0
126.54544,126.7159,56,62,0
126.727264,126.89772,59,62,0
126.90908,127.07954,64,62,0
127.0909,127.26135,59,62,0
127.27272,127.44317,56,62,0
127.45454,127.62499,52,62,0
127.63635,127.80681,57,62,0
127.81817,127.988625,59,62,0
127.99999,128.17044,63,62,0
128.18181,128.35226,59,62,0
128.36363,128.53407,57,62,0
128.54544,128.7159,54,62,0
128.72726,128.89772,56,62,0
128.90907,129.07953,59,62,0
129.0909,129.26135,64,62,0
129.27272,129.44318,59,62,0
129.45453,129.62498,62,62,0
129.63635,129.80681,64,62,0
129.81818,129.98863,57,62,0
129.99998,130.17044,60,62,0
130.18181,130.35226,64,62,0
130.36363,130.53407,56,62,0
130.54544,130.7159,59,62,0
130.72726,130.89772,64,62,0
130.90907,131.07953,57,62,0
131.0909,131.26135,60,62,0
131.27272,131.44318,62,63,0
131.45453,131.62498,65,64,0
131.63635,131.80681,62,65,0
131.81818,131.98863,60,66,0
131.99998,132.17044,59,67,0
132.18181,132.35226,62,68,0
132.36363,132.53407,65,69,0
132.54544,132.7159,67,70,0
132.72726,132.89772,65,71,0
132.90907,133.07953,62,72,0
133.0909,133.26135,56,73,0
133.27272,133.44318,60,74,0
133.45453,133.62498,64,75,0
133.63635,133.80681,67,76,0
133.81818,133.98863,64,77,0
133.99998,134.17044,62,78,0
134.18181,134.35226,61,79,0
134.36363,134.53407,64,80,0
134.54544,134.7159,67,81,0
134.72726,134.89772,69,82,0
134.90907,135.07953,67,83,0
135.0909,135.26135,64,84,0
135.27272,135.44318,57,93,0
135.45453,135.62498,62,89,0
135.63635,135.80681,65,86,0
135.81818,135.98863,69,82,0
135.99998,136.17044,65,79,0
136.18181,136.35226,62,75,0
136.36363,136.53407,64,72,0
136.54544,136.7159,67,62,0
136.72726,136.89772,60,62,0
136.90907,137.07953,65,62,0
137.0909,137.26135,67,62,0
137.27272,137.44318,59,62,0
137.45453,137.62498,60,62,0
137.63635,137.80681,64,62,0
137.81818,137.98863,65,62,0
137.99998,138.17044,67,62,0
138.18181,138.35226,72,62,0
138.36363,138.53407,67,62,0
138.54544,138.7159,64,62,0
138.72726,138.89772,67,62,0
138.90907,139.07953,64,62,0
139.0909,139.26135,60,62,0
139.27272,139.44318,64,62,0
139.45453,139.62498,60,62,0
140.18181,141.27272,72,62,0
141.27272,141.78407,71,62,0
142.36362,143.45453,70,62,0
143.45453,143.9659,69,62,0
143.99998,145.01135,69,62,0
145.0909,145.47726,74,62,0
145.49998,145.63635,72,62,0
145.63635,146.02272,71,62,0
146.04544,146.18181,69,62,0
146.18181,146.69318,69,62,0
146.72726,146.98862,68,62,0
147.27272,147.44318,56,62,0
147.45453,147.62498,59,62,0
147.63635,147.80681,64,62,0
147.81818,147.98862,68,62,0
147.99998,148.17044,64,62,0
148.18181,148.35226,59,62,0
148.36362,148.53407,69,62,0
148.54544,148.7159,65,62,0
148.72726,148.89772,62,63,0
148.90907,149.07953,57,64,0
149.0909,149.26135,62,65,0
149.27272,149.44318,65,66,0
149.45453,149.62498,69,67,0
149.63635,149.80681,66,68,0
149.81818,149.98862,62,69,0
149.99998,150.17044,57,70,0
150.18181,150.35226,62,71,0
150.36362,150.53407,66,72,0
150.54544,150.7159,71,73,0
150.72726,150.89772,67,74,0
150.90907,151.07953,62,75,0
151.0909,151.26135,59,76,0
151.27272,151.44318,62,77,0
151.45453,151.62498,67,78,0
151.63635,151.80681,71,79,0
151.81818,151.98862,68,80,0
151.99998,152.17044,64,81,0
152.18181,152.35226,59,82,0
152.36362,152.53407,64,83,0
152.54544,152.7159,68,84,0
152.72726,152.89772,69,93,0
152.90907,153.07953,64,89,0
153.0909,153.26135,60,86,0
153.27272,153.44318,59,82,0
153.45453,153.62498,62,79,0
153.63635,153.80681,65,75,0
153.81818,153.98862,64,72,0
153.99998,154.17044,60,62,0
154.18181,154.35226,57,62,0
154.36362,154.53407,56,62,0
154.54544,154.7159,62,62,0
154.72726,154.89772,64,62,0
154.90907,155.42044,60,62,0
155.99998,156.22726,72,62,0
155.99998,156.22726,69,62,0
156.54544,157.0909,69,62,0
157.0909,158.10226,76,62,0
156.54544,158.10226,72,62,0
158.18181,158.56816,71,62,0
158.18181,158.56816,68,62,0
158.5909,158.72726,69,62,0
158.5909,158.72726,66,62,0
158.72726,159.11362,71,62,0
158.72726,159.11362,68,62,0
159.13635,159.27272,72,62,0
159.13635,159.27272,69,62,0
159.27272,160.28407,74,62,0
159.27272,160.28407,71,62,0
160.36362,160.74998,69,62,0
160.36362,160.74998,66,62,0
160.77272,160.90907,68,62,0
160.77272,160.90907,64,62,0
160.90907,161.29544,69,62,0
160.90907,161.29544,66,62,0
161.31816,161.45453,71,62,0
161.31816,161.45453,68,62,0
161.45453,161.9659,72,62,0
161.99998,162.51135,73,62,0
162.54544,163.05681,74,62,0
163.0909,163.60226,75,62,0
163.63635,164.14772,76,62,0
163.63635,164.14772,68,62,0
165.27272,165.40907,75,62,0
165.40907,165.54544,78,62,0
165.54544,165.68181,81,62,0
165.68181,165.81816,84,62,0
165.81816,166.32953,83,62,0
167.45453,167.5909,75,62,0
167.5909,167.72726,78,62,0
167.72726,167.86362,81,62,0
167.86362,167.99998,84,62,0
167.99998,168.13635,83,62,0
168.13635,168.27272,64,62,0
168.27272,168.40907,68,62,0
168.40907,168.54544,71,62,0
168.54544,168.68181,76,62,0
168.68181,168.81816,80,62,0
168.81816,168.95453,83,62,0
168.95453,169.0909,88,62,0
169.0909,169.22726,78,62,0
169.22726,169.36362,87,62,0
169.36362,169.49998,77,62,0
169.49998,169.63635,86,62,0
169.63635,169.77272,76,62,0
169.77272,169.90907,85,62,0
169.90907,170.04544,75,62,0
170.04544,170.18181,84,62,0
170.18181,170.31816,74,62,0
170.31816,170.45453,78,62,0
170.45453,170.5909,85,62,0
170.5909,170.72726,83,62,0
170.72726,170.86362,73,62,0
170.86362,170.99998,76,62,0
170.99998,171.13635,83,62,0
171.13635,171.27272,81,62,0
171.27272,171.40907,71,62,0
171.40907,171.54544,74,62,0
171.54544,171.68181,81,62,0
171.68181,171.81816,80,62,0
171.81816,171.95453,69,62,0
171.95453,172.0909,73,62,0
172.0909,172.22726,80,62,0
172.22726,172.36362,78,62,0
172.36362,172.49998,68,62,0
172.49998,172.63635,71,62,0
172.63635,172.77272,78,62,0
172.77272,172.90907,76,62,0
172.90907,173.04544,64,62,0
173.04544,173.18181,68,62,0
173.18181,173.31816,76,62,0
173.31816,173.45453,74,62,0
173.45453,173.68181,73,62,0
173.99998,174.54544,73,62,0
174.54544,175.55681,76,62,0
175.63635,176.0227,71,62,0
176.04544,176.18181,69,62,0
176.18181,176.56816,71,62,0
176.5909,176.72726,73,62,0
176.72726,177.23862,66,62,0
177.2727,177.78407,68,62,0
177.81816,178.32953,69,62,0
178.36362,178.87498,71,62,0
178.90907,179.42044,73,62,0
179.45453,179.9659,69,62,0
179.99998,180.38635,74,62,0
180.40907,180.54544,76,62,0
180.54544,180.93181,73,62,0
180.95453,181.0909,74,62,0
181.0909,181.60226,71,62,0
181.63635,181.8977,64,62,0
182.18181,182.40907,73,93,0
182.72726,183.2727,73,93,0
183.2727,184.03407,76,93,0
184.0909,184.22726,74,93,0
184.22726,184.36362,73,93,0
184.36362,184.74998,71,62,0
184.7727,184.90907,70,62,0
184.90907,185.29544,71,62,0
185.31816,185.45453,73,62,0
185.45453,185.8409,66,62,0
185.86362,185.99998,64,66,0
185.99998,186.38635,66,68,0
186.40907,186.54544,68,73,0
186.54544,186.93181,69,75,0
186.95453,187.0909,68,79,0
187.0909,187.47726,69,81,0
187.49998,187.63635,71,86,0
187.63635,188.0227,73,88,0
188.04544,188.18181,71,93,0
188.18181,188.56816,73,93,0
188.5909,188.72726,74,93,0
188.72726,188.79544,71,93,0
188.79544,188.86362,73,93,0
188.86362,189.11362,71,93,0
189.13635,189.2727,69,93,0
189.2727,189.65907,71,93,0
189.68181,189.81816,73,93,0
189.81816,190.32953,69,93,0
190.90907,191.13635,72,62,0
191.45453,191.9659,72,62,0
191.99998,192.76135,68,62,0
192.81816,192.95453,71,62,0
192.95453,193.0909,68,62,0
193.0909,193.47725,69,62,0
193.49998,193.63635,71,62,0
193.63635,194.0227,73,62,0
194.04544,194.18181,74,62,0
194.18181,194.69316,71,62,0
195.2727,195.49998,76,62,0
195.81816,196.36362,76,62,0
196.36362,197.12498,68,62,0
197.18181,197.31816,71,62,0
197.31816,197.45453,68,62,0
197.45453,197.8409,69,62,0
197.86362,197.99998,71,62,0
197.99998,198.38635,73,62,0
198.40907,198.54544,75,62,0
198.54544,198.65907,76,62,0
198.81816,199.07953,76,62,0
199.0909,199.35225,75,62,0
199.36362,199.62498,74,62,0
199.63635,199.86362,73,93,0
200.18181,200.72725,73,93,0
200.72725,201.48862,76,93,0
201.54544,201.68181,74,93,0
201.68181,201.81816,73,93,0
201.81816,202.20453,71,62,0
202.22725,202.36362,70,62,0
202.36362,202.74998,71,62,0
202.7727,202.90907,73,62,0
202.90907,203.42044,66,62,0
203.45453,203.9659,68,68,0
203.99998,204.51135,69,75,0
204.54544,205.05681,71,81,0
205.0909,205.47725,73,88,0
205.49998,205.63635,71,93,0
205.63635,206.0227,73,93,0
206.04544,206.18181,74,93,0
206.18181,206.24998,71,93,0
206.24998,206.31816,73,93,0
206.31816,206.56816,71,93,0
206.5909,206.72725,69,93,0
206.72725,207.11362,71,93,0
207.13635,207.2727,73,93,0
207.2727,207.78407,69,93,0
208.36362,208.62498,81,62,0
208.63635,208.8977,80,62,0
208.90907,209.17044,78,62,0
209.1818,209.44316,76,62,0
209.45453,209.72725,73,78,0
209.72725,209.98862,74,62,0
209.99998,210.11362,74,62,0
210.2727,210.3068,76,62,0
210.3068,210.3409,74,62,0
210.3409,210.37498,76,62,0
210.37498,210.40907,74,62,0
210.40907,210.47725,73,62,0
210.47725,210.54544,74,62,0
210.54544,210.8068,78,62,0
210.81816,211.07953,76,62,0
211.0909,211.35225,74,62,0
211.36362,211.62498,73,62,0
211.63635,211.90907,70,78,0
211.90907,212.17044,71,62,0
212.1818,212.29544,71,62,0
212.45453,212.56816,71,62,0
212.72725,213.48862,71,93,0
213.54544,213.61362,73,93,0
213.61362,213.6818,71,93,0
213.6818,213.74998,69,93,0
213.74998,213.81816,71,93,0
213.81816,214.57953,73,93,0
214.63635,214.70453,74,93,0
214.70453,214.7727,73,93,0
214.7727,214.8409,71,93,0
214.8409,214.90907,73,93,0
214.90907,215.29544,74,93,0
215.31816,215.45453,71,93,0
215.45453,215.8409,76,93,0
215.86362,215.99998,68,93,0
215.99998,216.51135,69,93,0
221.45453,221.5909,86,93,0
221.5909,221.72725,85,93,0
221.72725,221.86362,83,93,0
221.86362,221.99998,81,93,0
221.99998,222.13635,80,93,0
222.13635,222.2727,78,93,0
222.2727,222.40907,76,93,0
222.40907,222.54544,74,93,0
222.54544,222.6818,73,93,0
222.6818,222.81816,71,93,0
222.81816,222.95453,69,93,0
222.95453,223.0909,68,93,0
223.0909,223.22725,66,93,0
223.22725,223.36362,64,93,0
223.36362,223.49998,62,93,0
223.49998,223.63635,61,93,0
223.63635,223.7727,59,93,0
223.7727,223.90907,57,93,0
223.90907,224.04544,56,93,0
224.04544,224.1818,57,93,0
224.1818,224.31816,59,93,0
224.31816,224.45453,61,93,0
224.45453,224.5909,62,93,0
224.5909,224.72725,64,93,0
224.72725,225.23862,61,93,0
225.81816,226.04544,73,62,0
226.36362,226.87498,73,62,0
226.90907,227.67044,76,62,0
227.72725,227.86362,74,62,0
227.86362,227.99998,73,62,0
227.99998,228.38634,71,62,0
228.40907,228.54544,70,62,0
228.54544,228.9318,71,62,0
228.95453,229.0909,73,62,0
229.0909,229.60225,66,62,0
229.63634,230.1477,68,62,0
230.1818,230.69316,69,62,0
230.72725,231.23862,71,62,0
231.2727,231.65907,73,62,0
231.6818,231.81816,71,62,0
231.81816,232.20453,73,62,0
232.22725,232.36362,74,62,0
232.36362,232.4318,71,62,0
232.4318,232.49998,73,62,0
232.49998,232.74998,71,62,0
232.7727,232.90907,69,62,0
232.90907,233.29544,71,62,0
233.31816,233.45453,73,62,0
233.45453,233.9659,69,62,0
234.54544,234.7727,73,93,0
235.0909,235.63634,73,93,0
235.63634,236.3977,76,93,0
236.45453,236.5909,74,93,0
236.5909,236.72725,73,93,0
236.72725,237.11362,71,62,0
237.13634,237.2727,70,62,0
237.2727,237.65907,71,62,0
237.6818,237.81816,73,62,0
237.81816,238.32953,66,62,0
238.36362,238.87498,68,62,0
238.90907,239.42044,69,62,0
239.45453,239.9659,71,62,0
239.99998,240.38634,73,62,0
240.40907,240.54544,71,62,0
240.54544,240.9318,73,62,0
240.95453,241.0909,74,62,0
241.0909,241.15907,71,62,0
241.15907,241.22725,73,62,0
241.22725,241.47725,71,62,0
241.49998,241.63634,69,62,0
241.63634,242.0227,71,62,0
242.04544,242.1818,73,62,0
242.1818,242.69316,69,62,0
243.2727,243.78407,64,62,0
243.2727,243.78407,62,62,0
243.81816,244.32953,64,62,0
243.81816,244.32953,62,62,0
244.36362,244.87498,64,62,0
244.36362,244.87498,61,62,0
245.45453,245.84088,71,62,0
245.86362,245.99998,73,62,0
245.99998,246.38634,74,62,0
246.40907,246.54544,75,62,0
246.54544,247.0568,76,62,0
247.63634,247.70453,71,62,0
247.70453,247.7727,73,62,0
247.7727,248.0227,71,62,0
248.04544,248.1818,69,62,0
248.1818,248.56816,71,62,0
248.59088,248.72725,73,62,0
248.72725,248.86362,69,62,0
248.86362,248.92044,71,62,0
248.99998,249.0568,73,62,0
249.13634,249.19316,74,62,0
249.2727,249.32953,76,62,0
249.40907,249.46588,78,62,0
249.54544,249.60225,80,62,0
249.6818,249.73862,81,62,0
249.81816,249.87498,83,62,0
249.95453,250.01134,85,62,0
250.09088,250.1477,86,62,0
250.22725,250.28407,87,62,0
250.36362,250.47725,88,62,0
250.63634,250.74998,88,62,0
250.90907,251.42044,81,62,0
7.636363,8.147727,71,64,0
8.181817,8.693181,69,64,0
110.18181,110.69318,71,64,0
110.727264,111.238625,69,64,0
161.45453,161.9659,69,64,0
161.99998,162.51135,70,64,0
162.54544,163.05681,69,64,0
163.0909,163.47726,72,64,0
163.49998,163.56816,71,64,0
163.56816,163.63635,69,64,0
179.99998,180.51135,71,64,0
180.54544,181.05681,69,64,0
1.090909,1.6022726,64,62,0
1.6363635,2.181818,64,62,0
2.181818,3.1931815,61,62,0
3.272727,4.7499995,62,62,0
4.772727,4.9090905,61,62,0
4.9090905,5.295454,62,62,0
5.3181815,5.454545,64,62,0
5.454545,5.9659085,61,62,0
5.9999995,6.511363,64,62,0
6.545454,7.5568175,64,62,0
8.727272,9.238636,56,62,0
9.818181,10.045454,64,62,0
10.363635,10.90909,64,62,0
10.90909,11.920454,61,62,0
11.999999,13.477272,62,62,0
13.499999,13.636362,61,62,0
13.636362,14.022726,62,62,0
14.045453,14.181817,64,62,0
14.181817,14.693181,61,62,0
14.727271,15.238635,64,62,0
15.272726,15.78409,64,62,0
15.272726,15.78409,57,62,0
16.363634,16.874998,62,62,0
16.363634,16.874998,56,62,0
16.363634,16.874998,52,62,0
17.454544,17.965908,61,62,0
17.454544,17.965908,57,62,0
17.999998,18.511362,45,62,0
18.545452,18.772726,64,93,0
19.090908,19.636362,64,93,0
19.636362,20.647726,61,93,0
20.72727,22.204544,62,62,0
22.22727,22.363634,61,62,0
22.363634,22.749998,62,62,0
22.772726,22.909088,64,62,0
22.909088,23.420452,61,62,0
23.454544,23.965906,64,62,0
23.999998,24.511362,61,62,0
24.545452,25.556816,64,62,0
25.636362,26.147724,64,62,0
26.181816,26.69318,64,62,0
27.272724,27.499998,64,93,0
27.81818,28.363634,64,93,0
28.363634,29.374998,61,93,0
29.454542,30.931816,62,62,0
30.954542,31.090906,61,62,0
31.090906,31.47727,62,62,0
31.499998,31.63636,64,62,0
31.63636,32.147724,61,62,0
32.181816,32.69318,54,62,0
32.72727,33.238632,57,62,0
32.72727,33.238632,52,62,0
33.81818,34.329544,56,62,0
33.81818,34.329544,52,62,0
34.90909,35.420452,61,62,0
34.90909,35.420452,57,62,0
35.454544,35.965904,45,62,0
37.090904,37.35227,59,62,0
37.363632,37.624996,64,62,0
37.63636,37.897724,62,62,0
37.90909,38.170452,64,62,0
38.181816,38.44318,61,62,0
38.454544,38.715904,64,62,0
38.72727,38.988632,57,62,0
38.999996,39.26136,64,62,0
39.272724,39.53409,56,62,0
39.545452,39.806816,64,62,0
39.81818,40.07954,52,62,0
40.090904,40.35227,64,62,0
40.363632,40.624996,56,62,0
40.63636,40.897724,64,62,0
40.90909,41.170452,59,62,0
41.181816,41.44318,64,62,0
41.45454,41.715904,62,62,0
41.72727,41.988632,64,62,0
41.999996,42.26136,59,62,0
42.272724,42.53409,64,62,0
42.545452,42.806816,61,62,0
42.81818,43.07954,64,62,0
43.090904,43.35227,54,62,0
43.363632,43.624996,57,62,0
43.63636,44.147724,56,62,0
43.63636,44.147724,52,62,0
44.72727,44.95454,64,62,0
45.272724,45.818176,64,62,0
45.818176,46.57954,61,62,0
46.63636,46.772724,62,62,0
46.772724,46.90909,64,62,0
46.90909,47.420452,66,62,0
47.45454,47.965904,64,62,0
47.999996,48.51136,63,62,0
48.545452,49.056812,62,62,0
49.090904,49.60227,61,62,0
49.63636,50.147724,63,62,0
49.63636,50.147724,57,62,0
50.181812,50.693176,64,62,0
50.181812,50.693176,57,62,0
50.181812,50.693176,52,62,0
51.272724,51.78409,62,62,0
51.272724,51.78409,56,62,0
51.272724,51.78409,52,62,0
52.363632,52.874996,61,62,0
52.363632,52.874996,57,62,0
52.90909,53.42045,45,62,0
54.54545,54.806812,59,62,0
54.818176,55.07954,64,62,0
55.090904,55.35227,62,62,0
55.363632,55.624996,64,62,0
55.63636,55.897724,61,62,0
55.90909,56.17045,64,62,0
56.181812,56.443176,57,62,0
56.45454,56.715904,64,62,0
56.72727,56.988632,56,62,0
56.999996,57.26136,64,62,0
57.272724,57.534084,52,62,0
57.54545,57.806812,64,62,0
57.818176,58.07954,56,62,0
58.090904,58.35227,64,62,0
58.363632,58.624996,59,62,0
58.63636,58.897724,64,62,0
58.909084,59.17045,62,62,0
59.181812,59.443176,64,62,0
59.45454,59.715904,59,62,0
59.72727,59.988632,64,62,0
59.999996,60.26136,61,62,0
60.272724,60.534084,64,62,0
60.54545,60.806812,54,62,0
60.818176,61.07954,57,62,0
61.090904,61.60227,56,62,0
61.090904,61.60227,52,62,0
62.181812,62.409084,64,93,0
62.72727,63.27272,64,93,0
63.27272,63.784084,61,93,0
63.818176,64.32954,62,93,0
64.36363,65.37499,64,62,0
65.45454,65.965904,63,62,0
65.45454,65.965904,57,62,0
65.99999,66.51136,62,68,0
65.99999,66.51136,59,68,0
66.54545,67.056816,61,74,0
66.54545,67.056816,57,74,0
67.090904,67.602264,57,80,0
67.090904,67.602264,54,80,0
67.63636,68.14772,57,86,0
67.63636,68.14772,52,86,0
68.727264,69.23863,56,93,0
68.727264,69.23863,52,93,0
69.81818,70.32954,61,93,0
69.81818,70.32954,57,93,0
70.36363,70.87499,45,93,0
71.99999,74.01136,57,62,0
71.99999,74.01136,51,62,0
71.99999,74.01136,47,62,0
74.18181,74.69318,56,62,0
74.18181,74.69318,52,62,0
76.36363,78.37499,57,62,0
76.36363,78.37499,51,62,0
76.36363,78.37499,47,62,0
78.54545,79.05681,56,62,0
78.54545,79.05681,52,62,0
79.090904,79.602264,40,62,0
80.727264,82.73863,47,62,0
82.90908,83.92045,40,62,0
85.090904,86.602264,47,62,0
86.727264,87.23863,35,62,0
87.27272,87.78408,40,62,0
87.81818,88.32954,52,62,0
90.54545,90.80681,64,62,0
90.81818,91.07954,65,127,0
91.090904,91.352264,66,62,0
91.36363,91.62499,61,62,0
91.63635,91.89772,62,62,0
91.90908,92.17045,63,127,0
92.18181,92.44318,64,62,0
92.45454,92.715904,59,62,0
92.727264,93.23863,61,62,0
93.81818,95.82954,57,62,0
93.81818,95.82954,54,62,0
95.99999,97.01135,56,62,0
95.99999,97.01135,52,62,0
97.63635,98.14772,69,62,0
97.63635,98.14772,66,62,0
97.63635,98.14772,59,62,0
98.18181,99.19318,68,62,0
98.18181,99.19318,64,62,0
99.81818,100.32954,69,62,0
99.81818,100.32954,66,62,0
99.81818,100.32954,59,62,0
100.363625,100.87499,68,62,0
100.363625,100.87499,64,62,0
103.63635,103.863625,61,62,0
104.18181,105.738625,61,62,0
105.81818,107.29545,62,62,0
107.31818,107.45454,61,62,0
107.45454,107.8409,62,62,0
107.863625,107.99999,64,62,0
107.99999,108.51135,61,62,0
108.54545,109.05681,64,62,0
109.0909,110.102264,64,62,0
111.27272,111.78408,56,62,0
112.363625,112.5909,64,93,0
112.90908,113.45454,64,93,0
113.45454,114.2159,61,93,0
114.27272,114.40908,62,93,0
114.40908,114.54545,64,93,0
114.54545,115.05681,66,62,0
115.0909,115.602264,64,62,0
115.63635,116.14772,63,62,0
116.18181,116.69317,62,68,0
116.727264,117.238625,61,74,0
119.45454,119.9659,62,93,0
119.99999,120.51135,57,93,0
120.54545,121.05681,45,93,0
122.18181,124.19317,45,62,0
122.18181,124.19317,33,62,0
124.363625,126.37499,45,62,0
124.363625,126.37499,33,62,0
126.54544,127.05681,52,62,0
126.54544,127.05681,40,62,0
127.63635,128.14772,47,62,0
127.63635,128.14772,35,62,0
128.72726,129.23863,40,62,0
130.90907,131.29544,38,62,0
131.31818,131.45453,40,64,0
131.45453,131.8409,41,65,0
131.86363,131.99998,38,68,0
131.99998,133.01135,43,69,0
133.0909,133.47726,40,77,0
133.49998,133.63635,41,80,0
133.63635,134.02272,43,81,0
134.04544,134.18181,40,84,0
134.18181,135.19318,45,85,0
135.27272,135.49998,41,93,0
135.81818,136.04544,41,82,0
136.36363,136.5909,43,72,0
136.90907,137.13635,43,62,0
137.45453,137.9659,36,62,0
139.63635,139.80681,55,62,0
139.81818,139.98863,60,62,0
139.99998,140.17044,64,62,0
140.18181,140.35226,67,62,0
140.36363,140.53407,64,62,0
140.54544,140.7159,60,62,0
140.72726,140.89772,55,62,0
140.90907,141.07953,60,62,0
141.0909,141.26135,62,62,0
141.27272,141.44318,67,62,0
141.45453,141.62498,62,62,0
141.63635,141.80681,59,62,0
141.81818,141.98862,53,62,0
141.99998,142.17044,58,62,0
142.18181,142.35226,62,62,0
142.36362,142.53407,65,62,0
142.54544,142.7159,62,62,0
142.72726,142.89772,58,62,0
142.90907,143.07953,53,62,0
143.0909,143.26135,58,62,0
143.27272,143.44318,60,62,0
143.45453,143.62498,65,62,0
143.63635,143.80681,60,62,0
143.81818,143.98862,57,62,0
143.99998,144.17044,52,62,0
144.18181,144.35226,57,62,0
144.36362,144.53407,60,62,0
144.54544,144.7159,64,62,0
144.72726,144.89772,60,62,0
144.90907,145.07953,57,62,0
145.0909,145.26135,56,62,0
145.27272,145.44318,59,62,0
145.45453,145.62498,64,62,0
145.63635,145.80681,57,62,0
145.81818,145.98862,60,62,0
145.99998,146.17044,64,62,0
146.18181,146.35226,52,62,0
146.36362,146.53407,57,62,0
146.54544,146.7159,60,62,0
146.72726,146.89772,64,62,0
146.90907,147.07953,59,62,0
147.0909,147.26135,56,62,0
147.27272,148.28407,52,62,0
148.36362,148.74998,38,62,0
148.77272,148.90907,40,64,0
148.90907,149.29544,41,65,0
149.31818,149.45453,38,68,0
149.45453,150.4659,48,69,0
150.54544,150.93181,40,77,0
150.95453,151.0909,41,80,0
151.0909,151.47726,43,81,0
151.49998,151.63635,40,84,0
151.63635,152.64772,50,85,0
152.72726,152.95453,48,93,0
153.27272,153.49998,50,82,0
153.81818,154.04544,52,72,0
154.36362,154.5909,40,62,0
154.90907,155.13635,45,62,0
155.45453,155.68181,57,62,0
157.0909,157.31818,60,62,0
157.63635,158.18181,60,62,0
158.18181,159.19316,64,62,0
159.27272,159.65907,59,62,0
159.68181,159.81816,57,62,0
159.81816,160.20453,59,62,0
160.22726,160.36362,60,62,0
160.36362,161.12498,62,62,0
161.18181,161.31816,60,62,0
161.31816,161.45453,59,62,0
161.45453,161.9659,57,62,0
161.99998,162.51135,55,62,0
162.54544,163.05681,54,62,0
163.0909,163.60226,53,62,0
163.63635,164.14772,56,62,0
163.63635,164.14772,52,62,0
165.27272,165.81816,57,62,0
165.81816,166.32953,56,62,0
165.27272,166.32953,52,62,0
167.45453,167.99998,57,62,0
167.99998,168.51135,56,62,0
167.45453,168.51135,52,62,0
173.45453,173.68181,64,62,0
173.99998,174.54544,64,62,0
174.54544,175.55681,61,62,0
175.63635,177.11362,62,62,0
177.13635,177.2727,61,62,0
177.2727,177.65907,62,62,0
177.68181,177.81816,64,62,0
177.81816,178.32953,61,62,0
178.36362,178.87498,64,62,0
178.90907,179.92044,64,62,0
181.0909,181.60226,56,62,0
182.18181,182.40907,64,93,0
182.72726,183.2727,64,93,0
183.2727,184.03407,61,93,0
184.0909,184.22726,62,93,0
184.22726,184.36362,64,93,0
184.36362,184.87498,66,62,0
184.90907,185.42044,64,62,0
185.45453,185.9659,63,62,0
185.99998,186.51135,62,68,0
186.54544,187.05681,61,74,0
189.2727,189.78407,62,93,0
189.81816,190.32953,57,93,0
190.36362,190.87498,45,93,0
191.99998,192.26135,59,93,0
192.2727,192.53407,64,93,0
192.54544,192.80681,62,93,0
192.81816,193.07953,64,93,0
193.0909,193.35225,61,93,0
193.36362,193.62498,64,93,0
193.63635,193.8977,57,93,0
193.90907,194.17044,64,93,0
194.18181,194.44316,56,93,0
194.45453,194.7159,64,93,0
194.72725,194.98862,52,93,0
194.99998,195.26135,64,93,0
195.2727,195.53407,56,93,0
195.54544,195.80681,64,93,0
195.81816,196.07953,59,93,0
196.0909,196.35225,64,93,0
196.36362,196.62498,62,93,0
196.63635,196.8977,64,93,0
196.90907,197.17044,59,93,0
197.18181,197.44316,64,93,0
197.45453,197.7159,61,93,0
197.72725,197.98862,64,93,0
197.99998,198.26135,54,93,0
198.2727,198.53407,57,93,0
198.54544,199.05681,56,93,0
198.54544,199.05681,52,93,0
199.63635,199.86362,64,93,0
200.18181,200.72725,64,93,0
200.72725,201.23862,61,93,0
201.2727,201.78407,62,93,0
201.81816,202.82953,64,62,0
202.90907,203.42044,63,62,0
202.90907,203.42044,57,62,0
203.45453,203.9659,62,68,0
203.45453,203.9659,59,68,0
203.99998,204.51135,61,74,0
203.99998,204.51135,57,74,0
204.54544,205.05681,57,80,0
204.54544,205.05681,54,80,0
205.0909,205.60225,64,86,0
205.0909,205.60225,52,86,0
206.18181,206.69316,62,93,0
206.18181,206.69316,52,93,0
207.2727,207.78407,61,93,0
207.2727,207.78407,57,93,0
207.81816,208.32953,45,93,0
208.36362,208.62498,66,62,0
208.63635,208.8977,64,62,0
208.90907,209.17044,62,62,0
209.1818,209.44316,61,62,0
209.45453,209.72725,58,78,0
209.72725,209.98862,59,62,0
209.99998,210.11362,59,62,0
210.2727,210.3068,61,62,0
210.3068,210.3409,59,62,0
210.3409,210.37498,61,62,0
210.37498,210.40907,59,62,0
210.40907,210.47725,58,62,0
210.47725,210.54544,59,62,0
210.54544,210.8068,62,62,0
210.81816,211.07953,61,62,0
211.0909,211.35225,59,62,0
211.36362,211.62498,57,62,0
211.63635,211.90907,55,78,0
211.90907,212.17044,56,62,0
212.1818,212.29544,56,62,0
212.45453,212.56816,56,62,0
212.72725,213.48862,56,93,0
213.54544,213.61362,57,93,0
213.61362,213.6818,56,93,0
213.6818,213.74998,54,93,0
213.74998,213.81816,56,93,0
213.81816,214.57953,57,93,0
214.63635,214.70453,59,93,0
214.70453,214.7727,57,93,0
214.7727,214.8409,56,93,0
214.8409,214.90907,57,93,0
214.90907,215.42044,59,93,0
214.90907,215.42044,52,93,0
215.45453,215.9659,59,93,0
215.45453,215.9659,52,93,0
215.99998,216.51135,57,93,0
221.45453,222.4659,52,93,0
221.45453,222.4659,40,93,0
222.54544,223.5568,52,93,0
222.54544,223.5568,40,93,0
223.63635,224.1477,52,93,0
223.63635,224.1477,40,93,0
224.1818,224.69316,52,93,0
224.1818,224.69316,40,93,0
224.72725,225.23862,45,93,0
226.36362,226.87498,61,62,0
226.36362,226.87498,57,62,0
226.90907,227.42044,62,62,0
226.90907,227.42044,59,62,0
227.45453,227.9659,64,62,0
227.45453,227.9659,61,62,0
227.99998,228.51134,66,62,0
227.99998,228.51134,62,62,0
228.54544,229.0568,64,62,0
228.54544,229.0568,61,62,0
229.0909,229.60225,63,62,0
229.63634,230.1477,62,62,0
230.1818,230.69316,61,62,0
230.72725,231.23862,63,62,0
230.72725,231.23862,57,62,0
231.2727,231.78407,64,62,0
231.2727,231.78407,57,62,0
231.2727,231.78407,52,62,0
232.36362,232.87498,62,62,0
232.36362,232.87498,56,62,0
232.36362,232.87498,52,62,0
233.45453,233.9659,61,62,0
233.45453,233.9659,57,62,0
234.54544,234.7727,64,93,0
235.0909,235.63634,64,93,0
235.63634,236.6477,61,93,0
236.72725,238.20453,62,62,0
238.22725,238.36362,61,62,0
238.36362,238.74998,62,62,0
238.7727,238.90907,64,62,0
238.90907,239.42044,61,62,0
239.45453,239.9659,54,62,0
239.99998,240.51134,57,62,0
239.99998,240.51134,52,62,0
241.0909,241.60225,56,62,0
241.0909,241.60225,52,62,0
242.1818,242.69316,61,62,0
242.1818,242.69316,57,62,0
245.45453,245.96588,68,62,0
245.45453,245.96588,64,62,0
245.45453,245.96588,62,62,0
245.99998,246.51134,68,62,0
245.99998,246.51134,64,62,0
245.99998,246.51134,62,62,0
246.54544,247.0568,69,62,0
246.54544,247.0568,64,62,0
246.54544,247.0568,61,62,0
249.81816,250.32953,40,62,0
250.36362,250.87498,40,62,0
250.90907,251.42044,45,62,0
1.090909,1.3181818,57,62,0
1.6363635,3.1931815,57,62,0
3.272727,5.8749995,57,62,0
5.9999995,6.511363,56,62,0
6.545454,7.0568175,57,62,0
7.0909085,7.602272,61,62,0
7.636363,8.147727,56,62,0
8.181817,8.693181,57,62,0
8.727272,9.238636,52,62,0
9.818181,10.045454,57,62,0
10.363635,11.920454,57,62,0
11.999999,14.602271,57,62,0
14.727271,15.238635,56,62,0
18.545452,18.772726,57,93,0
19.090908,20.647726,57,93,0
20.72727,23.329544,57,62,0
23.454544,23.965906,56,62,0
23.999998,24.511362,57,62,0
24.545452,25.056816,61,62,0
25.090906,25.60227,56,62,0
25.636362,26.147724,57,62,0
26.181816,26.69318,52,62,0
27.272724,27.499998,57,93,0
27.81818,28.363634,57,93,0
28.363634,29.374998,58,93,0
29.454542,31.556816,59,62,0
31.63636,32.147724,57,62,0
32.181816,32.69318,51,62,0
44.72727,44.95454,57,62,0
45.272724,45.78409,57,62,0
45.818176,46.57954,57,62,0
46.63636,46.772724,59,62,0
46.772724,46.90909,61,62,0
46.90909,47.420452,62,62,0
47.45454,47.965904,61,62,0
47.999996,48.51136,59,62,0
48.545452,49.056812,53,62,0
49.090904,50.10227,54,62,0
62.181812,62.409084,57,93,0
62.72727,63.27272,57,93,0
63.27272,63.784084,58,93,0
63.818176,64.32954,59,93,0
64.36363,64.87499,61,62,0
64.90909,65.42045,58,62,0
103.63635,103.863625,57,62,0
104.18181,105.738625,57,62,0
105.81818,108.42045,57,62,0
108.54545,109.05681,56,62,0
109.0909,109.602264,57,62,0
109.63635,110.14772,61,62,0
110.18181,110.69318,56,62,0
110.727264,111.238625,57,62,0
111.27272,111.78408,52,62,0
112.363625,112.5909,57,93,0
112.90908,115.55681,57,93,0
115.63635,117.113625,57,62,0
117.13635,117.27272,59,79,0
117.27272,117.65908,61,80,0
117.68181,117.81817,56,85,0
117.81817,118.32954,57,86,0
118.363625,118.87499,54,93,0
118.90908,119.42045,50,93,0
119.45454,119.9659,52,93,0
119.99999,120.51135,52,93,0
173.45453,173.68181,57,93,0
173.99998,175.55681,57,93,0
175.63635,178.23862,57,93,0
178.36362,178.87498,56,93,0
178.90907,179.42044,57,93,0
179.45453,179.9659,61,93,0
179.99998,180.51135,56,93,0
180.54544,181.05681,57,93,0
181.0909,181.60226,52,93,0
182.18181,182.40907,57,93,0
182.72726,185.37498,57,93,0
185.45453,186.93181,57,62,0
186.95453,187.0909,59,79,0
187.0909,187.47726,61,80,0
187.49998,187.63635,56,85,0
187.63635,188.1477,57,86,0
188.18181,188.69316,54,93,0
188.72726,189.23862,50,93,0
189.2727,189.78407,52,93,0
189.81816,190.32953,52,93,0
199.63635,199.86362,57,93,0
200.18181,200.72725,57,93,0
200.72725,201.23862,58,93,0
201.2727,201.78407,59,93,0
201.81816,202.32953,61,62,0
202.36362,202.87498,58,62,0
229.0909,229.60225,59,62,0
229.63634,230.1477,53,62,0
230.1818,231.19316,54,62,0
234.54544,234.7727,57,93,0
235.0909,235.63634,57,93,0
235.63634,236.6477,58,93,0
236.72725,238.82953,59,62,0
238.90907,239.42044,57,62,0
239.45453,239.9659,51,62,0
