start_time,end_time,note_value,velocity,instrument_program_number
13.714272,14.50445,76,67,40
14.571414,14.772306,81,67,40
14.7857,14.986592,80,67,40
14.999985,15.200877,78,67,40
15.214271,15.415163,76,67,40
15.428556,15.629449,78,67,40
15.642841,15.843734,76,67,40
15.857127,16.05802,75,67,40
16.071413,16.272305,76,67,40
16.285698,16.68302,75,67,40
17.14284,17.933018,78,67,40
17.999983,18.200874,83,67,40
18.214268,18.41516,81,67,40
18.428553,18.629446,80,67,40
18.64284,18.84373,78,67,40
18.857124,19.058016,83,67,40
19.07141,19.272303,80,67,40
19.285694,19.486588,81,67,40
19.49998,19.700872,78,67,40
19.714266,20.111588,76,67,40
20.571407,21.214264,83,83,40
21.214264,21.415157,82,67,40
21.42855,21.629442,81,67,40
21.642836,21.843729,78,67,40
21.85712,22.058014,75,67,40
22.071407,22.272299,71,67,40
22.285692,22.928549,83,83,40
22.928549,23.12944,82,67,40
23.142834,23.343727,81,67,40
23.357119,23.558012,78,67,40
23.571405,23.772297,75,67,40
23.78569,23.986584,71,67,40
23.999975,24.214262,85,67,40
24.214262,24.415154,83,67,40
24.428547,24.517832,81,67,40
24.642832,24.732119,80,67,40
24.857119,25.071404,80,67,40
25.071404,25.272297,78,67,40
25.285688,25.374975,76,67,40
25.499975,25.58926,75,67,40
25.71426,25.803545,76,67,40
25.928545,25.99551,78,67,40
25.999973,26.066938,76,67,40
26.071402,26.138367,75,67,40
26.142832,26.343723,76,67,40
26.357117,26.446402,78,71,40
26.571402,26.660688,80,75,40
26.785688,26.874973,81,79,40
26.999973,27.089258,83,83,40
27.214258,27.303545,85,87,40
27.428543,27.64283,85,91,40
27.64283,27.843721,83,96,40
27.857115,27.9464,81,96,40
28.0714,28.160686,80,96,40
28.285686,28.499971,80,96,40
28.499971,28.700865,78,96,40
28.714256,28.803543,76,96,40
28.928543,29.017828,75,96,40
29.142828,29.343721,76,96,40
29.357113,29.459791,83,96,40
29.464256,29.566935,80,96,40
29.5714,29.772291,76,96,40
29.785685,29.888363,71,96,40
29.892828,29.995506,68,96,40
29.99997,30.397291,64,96,40
39.42853,39.629425,61,67,40
39.64282,39.84371,60,74,40
39.8571,40.057995,61,81,40
40.07139,40.27228,63,88,40
40.285675,40.48657,64,96,40
40.499958,40.70085,63,88,40
40.714245,40.91514,61,81,40
40.92853,41.129425,59,74,40
41.142815,41.54014,58,67,40
49.714237,49.915127,63,67,40
49.92852,50.129414,62,74,40
50.142807,50.3437,63,81,40
50.357094,50.557983,64,88,40
50.571377,50.77227,63,96,40
50.785664,50.986557,61,88,40
50.99995,51.20084,59,81,40
51.214233,51.415127,58,74,40
51.42852,51.82584,56,67,40
52.499947,52.589233,63,67,40
52.714233,52.80352,63,67,40
52.92852,53.017803,63,67,40
53.142803,53.23209,63,67,40
53.35709,53.557983,71,67,40
53.571377,53.772266,70,67,40
53.78566,53.986553,68,67,40
53.999947,54.089233,67,67,40
54.214233,54.415123,73,67,40
54.428516,54.62941,70,67,40
54.642803,54.843697,67,67,40
54.857086,55.25441,68,67,40
55.28566,55.68298,63,67,40
55.928516,56.0178,63,67,40
56.1428,56.232086,63,67,40
56.357086,56.446373,63,67,40
56.571373,56.660656,63,67,40
56.785656,56.98655,71,67,40
56.999943,57.200836,70,67,40
57.21423,57.415123,68,67,40
57.428513,57.5178,67,67,40
57.6428,57.843693,73,67,40
57.857086,58.057976,70,67,40
58.07137,58.272263,67,67,40
58.285656,58.682976,68,67,40
60.214226,60.303513,61,67,40
60.428513,60.517796,61,67,40
60.642796,60.732082,61,67,40
60.857082,63.29458,61,67,40
63.85708,64.2544,66,67,40
64.71422,65.11154,61,67,40
65.571365,65.96868,66,67,40
66.428505,66.82583,61,67,40
67.07136,67.13833,68,67,40
67.14279,67.209755,66,67,40
67.21422,67.28118,65,67,40
67.285645,67.48654,66,68,40
67.49993,67.58922,68,69,40
67.71422,67.803505,70,70,40
67.928505,68.01779,71,72,40
68.14279,68.23207,73,73,40
68.35707,68.44636,75,75,40
68.57136,68.71422,76,76,40
68.71422,68.848145,73,78,40
68.85707,68.91511,82,78,40
68.99993,69.14279,82,78,40
69.14279,69.27672,76,78,40
69.285645,69.34368,85,78,40
69.428505,69.56243,85,78,40
69.57136,69.705284,83,78,40
69.71422,69.848145,82,78,40
69.85707,69.991005,80,78,40
69.99993,70.13386,78,78,40
70.142784,70.27672,76,78,40
70.285645,70.41957,75,78,40
70.4285,70.56243,83,78,40
70.57136,70.705284,78,78,40
70.71422,70.848145,75,78,40
70.85707,70.991,71,78,40
70.99993,71.13386,66,78,40
71.142784,71.27672,63,78,40
71.285645,71.41957,59,78,40
71.4285,71.56243,63,78,40
71.57136,71.705284,66,78,40
71.71421,71.848145,71,78,40
71.85707,71.991,75,78,40
71.99993,72.142784,76,78,40
72.142784,72.27671,73,78,40
72.285645,72.34368,82,78,40
72.4285,72.57136,82,78,40
72.57136,72.705284,76,78,40
72.71421,72.77225,85,78,40
72.85707,72.991,85,78,40
72.99992,73.13386,83,78,40
73.142784,73.27671,82,78,40
73.285645,73.41957,80,78,40
73.4285,73.56242,78,78,40
73.57136,73.705284,76,78,40
73.71421,73.84814,75,78,40
73.85707,73.991,83,78,40
73.99992,74.13386,78,78,40
74.142784,74.27671,75,78,40
74.28564,74.41957,71,78,40
74.4285,74.56242,66,78,40
74.57136,74.705284,63,78,40
74.71421,74.84814,59,78,40
74.85707,74.991,63,78,40
74.99992,75.13385,66,78,40
75.142784,75.27671,71,78,40
75.28564,75.41957,75,78,40
75.4285,75.56242,64,78,40
75.57135,75.705284,68,78,40
75.71421,75.84814,71,78,40
75.85706,75.991,76,78,40
75.99992,76.13385,80,78,40
76.142784,76.27671,81,78,40
76.28564,76.41956,83,78,40
76.4285,76.56242,80,78,40
76.57135,76.705284,76,78,40
76.71421,76.84814,71,78,40
76.85706,76.991,68,78,40
76.99992,77.13385,64,78,40
77.14278,77.27671,66,78,40
77.28564,77.41956,70,78,40
77.4285,77.56242,73,78,40
77.57135,77.70528,78,78,40
77.71421,77.84814,82,78,40
77.85706,77.99099,83,78,40
77.99992,78.13385,85,78,40
78.14278,78.27671,82,78,40
78.28564,78.41956,78,78,40
78.42849,78.56242,73,78,40
78.57135,78.70528,70,78,40
78.71421,78.84814,66,78,40
78.85706,78.99099,71,78,40
78.99992,79.13385,83,78,40
79.14278,79.2767,82,78,40
79.28564,79.41956,81,78,40
79.42849,79.56242,80,78,40
79.57135,79.70528,79,78,40
79.7142,79.84814,78,78,40
79.85706,79.99099,73,78,40
79.99992,80.13385,75,78,40
80.14278,80.2767,76,78,40
80.28564,80.41956,78,78,40
80.42849,80.562416,76,78,40
80.57135,80.70528,71,78,40
80.7142,80.84814,83,78,40
80.85706,80.99099,82,78,40
80.999916,81.13385,81,78,40
81.14278,81.2767,80,78,40
81.28563,81.41956,79,78,40
81.42849,81.562416,78,78,40
81.57135,81.70528,73,78,40
81.7142,81.84813,75,78,40
81.85706,81.99099,76,78,40
81.999916,82.13385,78,78,40
82.14278,82.2767,76,78,40
82.28563,82.41956,75,78,40
82.42849,82.562416,83,78,40
82.57134,82.70528,78,78,40
82.7142,82.84813,75,78,40
82.85706,82.99099,71,78,40
82.999916,83.13384,66,78,40
83.14278,83.2767,68,78,40
83.28563,83.419556,71,78,40
83.42849,83.562416,76,78,40
83.57134,83.70528,80,78,40
83.7142,83.84813,76,78,40
83.857056,83.99099,83,78,40
83.999916,84.10259,77,78,40
84.107056,84.20974,78,78,40
84.2142,84.31688,80,78,40
84.32134,84.42403,78,78,40
84.42849,84.531166,76,78,40
84.53563,84.638306,75,78,40
84.64277,84.74545,73,78,40
84.749916,84.85259,71,78,40
84.857056,84.92402,75,78,40
84.92849,84.99545,73,78,40
84.999916,85.06688,75,78,40
85.07134,85.138306,73,78,40
85.14277,85.20974,75,78,40
85.2142,85.281166,73,78,40
85.28563,85.35259,75,78,40
85.357056,85.42402,73,78,40
85.42849,85.49545,75,78,40
85.499916,85.56688,73,78,40
85.57134,85.638306,71,78,40
85.64277,85.70973,73,78,40
85.7142,85.84813,71,78,40
85.857056,85.99098,75,78,40
85.999916,86.13384,73,78,40
86.14277,86.2767,71,78,40
86.28563,86.419556,70,78,40
86.42848,86.562416,68,78,40
86.57134,86.70527,66,78,40
86.714195,86.84813,64,78,40
86.857056,86.99098,63,78,40
86.999916,87.13384,61,78,40
87.14277,87.276695,63,78,40
87.28563,87.419556,59,78,40
87.42848,87.825806,58,78,40
106.28561,107.07578,71,67,40
107.14275,107.34364,76,67,40
107.35703,107.55793,75,67,40
107.57132,107.77222,73,67,40
107.78561,107.986496,71,67,40
107.99989,108.20078,73,67,40
108.21418,108.41507,71,67,40
108.42847,108.62936,70,67,40
108.642746,108.84364,71,67,40
108.85703,109.25436,70,67,40
109.71417,110.50436,78,67,40
110.57132,110.77221,83,67,40
110.78561,110.986496,81,67,40
110.999886,111.20078,80,67,40
111.21417,111.41507,78,67,40
111.42846,111.62936,80,67,40
111.642746,111.843636,78,67,40
111.85703,112.05792,76,67,40
112.07132,112.27221,78,67,40
112.2856,112.68292,76,67,40
113.142746,113.93292,81,67,40
113.999886,114.200775,87,72,40
114.21417,114.41506,85,74,40
114.42846,114.62935,83,75,40
114.642746,114.843636,81,77,40
114.857025,115.05792,83,78,40
115.07131,115.27221,81,80,40
115.2856,115.48649,80,81,40
115.499886,115.700775,81,82,40
115.71417,116.11149,80,84,40
116.57131,117.36149,85,90,40
117.42845,117.62935,90,96,40
117.64274,117.843636,88,96,40
117.857025,118.057915,87,96,40
118.07131,118.2722,85,96,40
118.2856,118.682915,83,96,40
122.99988,123.42845,73,96,40
123.42845,123.62934,71,91,40
123.85702,124.28559,71,86,40
124.28559,124.48648,69,81,40
124.714165,125.14273,69,76,40
125.14273,125.540054,68,71,40
138.85701,139.64719,76,67,40
139.71414,139.91504,81,67,40
139.92844,140.12932,80,67,40
140.14272,140.34361,78,67,40
140.35701,140.55789,76,67,40
140.57129,140.77219,78,67,40
140.78557,140.98647,76,67,40
140.99986,141.20074,75,67,40
141.21414,141.41504,76,67,40
141.42844,141.82574,75,67,40
142.28557,143.07574,78,67,40
143.14272,143.34361,83,67,40
143.357,143.55789,81,67,40
143.57129,143.77217,80,67,40
143.78557,143.98647,78,67,40
143.99986,144.20074,83,67,40
144.21414,144.41504,80,67,40
144.42842,144.62932,81,67,40
144.64272,144.84361,78,67,40
144.857,145.25432,76,67,40
145.71414,146.357,83,83,40
146.357,146.55789,82,67,40
146.57129,146.77217,81,67,40
146.78557,146.98647,78,67,40
146.99985,147.20074,75,67,40
147.21414,147.41502,71,67,40
147.42842,148.07127,83,83,40
148.07127,148.27217,82,67,40
148.28557,148.48647,81,67,40
148.49985,148.70074,78,67,40
148.71414,148.91502,75,67,40
148.92842,149.12932,71,67,40
149.14272,149.357,85,67,40
149.357,149.55789,83,67,40
149.57127,149.66057,81,67,40
149.78557,149.87485,80,67,40
149.99985,150.21414,80,67,40
150.21414,150.41502,78,67,40
150.42842,150.5177,76,67,40
150.6427,150.732,75,67,40
150.857,150.94627,76,67,40
151.07127,151.13824,78,67,40
151.1427,151.20967,76,67,40
151.21414,151.2811,75,67,40
151.28557,151.48645,76,67,40
151.49985,151.58913,78,71,40
151.71413,151.80342,80,75,40
151.92842,152.0177,81,79,40
152.1427,152.232,83,83,40
152.357,152.44627,85,87,40
152.57127,152.78557,85,91,40
152.78557,152.98645,83,96,40
152.99985,153.08913,81,96,40
153.21413,153.30342,80,96,40
153.42842,153.6427,80,96,40
153.6427,153.8436,78,96,40
153.857,153.94627,76,96,40
154.07127,154.16055,75,96,40
154.28555,154.49985,78,96,40
154.49985,154.70074,76,96,40
154.71413,154.80342,75,96,40
154.92842,155.0177,73,96,40
155.1427,155.357,68,96,40
155.357,155.55788,66,96,40
155.57127,155.66055,64,96,40
155.78555,155.87485,63,96,40
155.99985,156.21413,78,96,40
156.21413,156.41502,76,96,40
156.42842,156.5177,74,96,40
156.6427,156.73198,73,96,40
156.85698,157.07127,73,96,40
157.07127,157.27217,71,96,40
157.28555,157.37485,69,96,40
157.49985,157.58913,68,96,40
157.71413,157.80342,69,96,40
157.92842,157.99538,71,67,40
157.99985,158.0668,69,67,40
158.07127,158.13823,68,67,40
158.1427,158.3436,69,67,40
158.35698,158.44627,71,67,40
158.57127,158.66055,73,67,40
158.78555,158.87485,74,67,40
158.99985,159.08913,76,67,40
159.21413,159.3034,78,67,40
159.4284,161.1427,68,67,40
161.1427,161.34358,69,67,40
161.35698,161.42395,71,67,40
161.4284,161.49538,69,67,40
161.49983,161.5668,68,67,40
161.57127,161.77216,69,67,40
161.78555,161.87483,71,67,40
161.99983,162.08913,73,67,40
162.21413,162.3034,74,67,40
162.4284,162.5177,76,67,40
162.6427,162.73198,78,67,40
162.85698,164.57126,68,67,40
164.57126,164.77216,69,67,40
164.99983,165.20073,69,67,40
165.4284,165.6293,57,67,40
165.85698,166.05788,69,67,40
166.28555,166.68288,57,67,40
174.21411,174.30339,76,67,40
174.42839,174.51768,73,67,40
174.64268,174.73196,71,67,40
174.85696,175.71411,70,67,40
175.71411,175.91501,71,67,40
175.92839,176.01768,78,67,40
176.14268,176.23196,74,67,40
176.35696,176.44626,71,67,40
176.57126,177.42839,68,67,40
177.42839,177.62929,69,67,40
177.64268,177.84357,81,67,40
177.85696,178.05786,80,67,40
178.07124,178.27214,78,67,40
178.28554,178.48643,76,67,40
178.49982,178.70071,81,67,40
178.71411,178.915,80,67,40
178.92839,179.12929,78,67,40
179.14268,179.34357,76,67,40
179.35696,179.55786,78,67,40
179.57124,179.77214,74,67,40
179.78554,179.98642,71,67,40
179.99982,181.18286,69,67,40
181.28554,181.48642,73,67,40
181.49982,181.70071,71,67,40
181.71411,182.11142,69,67,40
183.42839,184.21857,83,96,40
183.42839,184.21857,74,96,40
184.28552,185.07571,74,84,40
184.28552,185.07571,64,84,40
185.14267,185.54,73,72,40
185.14267,185.54,64,72,40
190.28552,191.0757,85,96,40
190.28552,191.0757,76,96,40
191.14267,191.93285,76,84,40
191.14267,191.93285,66,84,40
191.9998,192.39713,74,72,40
191.9998,192.39713,66,72,40
197.14265,197.93283,87,96,40
197.14265,197.93283,78,96,40
197.9998,198.78998,78,84,40
197.9998,198.78998,68,84,40
198.85695,199.25427,76,72,40
198.85695,199.25427,68,72,40
200.7855,200.85248,75,96,40
200.85695,200.9239,73,96,40
200.92838,200.99533,72,96,40
200.9998,201.2007,73,96,40
201.21408,201.30338,75,96,40
201.42838,201.51765,76,96,40
201.64265,201.73193,75,96,40
201.85693,201.94623,76,96,40
202.07123,202.1605,73,96,40
202.2855,202.4864,72,96,40
202.71408,203.14265,64,96,40
203.14265,203.34355,63,96,40
203.57123,203.9998,64,96,40
203.9998,204.20068,63,96,40
204.85693,205.03105,80,67,40
205.2855,205.45961,80,67,40
205.71408,206.14265,80,67,40
206.14265,206.34354,85,67,40
206.57123,206.99979,81,67,40
206.99979,207.20068,85,67,40
207.42836,207.82568,80,67,40
208.07123,208.1605,80,67,40
208.2855,208.4864,79,67,40
208.49979,208.70068,80,67,40
208.71408,208.91496,76,67,40
208.92836,209.12926,73,67,40
209.14265,209.34354,72,67,40
209.35693,209.55783,80,67,40
209.57121,209.77211,79,67,40
209.7855,209.9864,80,67,40
209.99979,210.08908,73,67,40
210.21408,210.41496,80,67,40
210.42836,210.62926,79,67,40
210.64264,210.84354,80,67,40
210.85693,211.25426,75,67,40
211.71408,211.88818,80,67,40
212.14264,212.31676,80,67,40
212.57121,212.96854,80,67,40
212.99979,213.39711,85,67,40
213.42836,213.82568,80,67,40
213.85693,214.25426,76,67,40
214.2855,214.87924,74,67,40
214.92836,214.98193,76,67,40
214.98193,215.03549,74,67,40
215.03549,215.08907,73,67,40
215.08907,215.14264,74,67,40
215.14264,215.53996,78,67,40
215.57121,215.96854,81,67,40
215.99979,216.39711,73,67,40
216.42836,216.82568,73,67,40
216.85693,217.05782,76,67,40
217.07121,217.27211,75,67,40
217.28549,217.48639,73,67,40
217.49979,217.70067,75,67,40
217.71407,218.11139,73,67,40
219.42834,222.72299,61,67,40
222.85692,224.96852,56,67,40
224.99977,225.3971,69,67,40
225.42834,225.82567,68,67,40
225.85692,226.25424,66,67,40
226.28549,227.99977,64,67,40
227.99977,229.58012,66,67,40
229.71405,230.5712,68,67,40
230.5712,231.36137,54,67,40
231.42834,231.82567,61,67,40
232.28548,232.4596,75,67,40
232.71405,232.88815,75,67,40
233.14262,233.5712,75,67,40
233.5712,233.7721,80,67,40
233.99977,234.42833,76,67,40
234.42833,234.62923,73,67,40
234.8569,235.25423,72,67,40
235.71405,235.88815,72,67,40
236.14262,236.31673,72,67,40
236.5712,236.77208,73,67,40
236.78548,236.98637,68,67,40
236.99976,237.20065,69,67,40
237.21405,237.41495,68,67,40
237.42833,237.62923,76,67,40
237.64262,237.8435,73,67,40
237.8569,238.0578,75,67,40
238.0712,238.27208,73,67,40
238.28548,238.6828,80,67,40
239.14262,239.31673,80,67,40
239.57118,239.7453,80,81,40
239.99976,240.78993,85,96,40
240.8569,241.64708,61,86,40
241.71405,242.77208,62,76,40
242.78548,242.98636,69,67,40
242.99976,243.20065,66,67,40
243.21404,243.41493,62,67,40
243.42833,243.82565,61,67,40
243.8569,244.25423,61,67,40
244.28548,244.48636,64,67,40
244.49976,244.70065,63,67,40
244.71404,244.91493,61,67,40
244.92833,245.12923,63,67,40
245.14261,245.53993,61,67,40
246.8569,250.68279,56,67,40
250.71404,251.11136,68,67,40
251.14261,251.53993,64,67,40
251.57118,251.96849,61,67,40
251.99974,252.39706,56,67,40
252.42831,252.82564,55,67,40
252.85689,253.25421,56,67,40
253.28546,253.68279,56,74,40
253.71404,254.50421,56,81,40
255.42831,257.00867,62,96,40
255.42831,257.00867,57,96,40
257.1426,257.53992,62,96,40
257.1426,257.53992,56,96,40
258.85687,259.64706,74,67,40
259.71402,260.5042,71,67,40
260.57117,260.96848,68,67,40
265.71402,265.91492,61,67,40
265.9283,266.1292,60,74,40
266.14258,266.34348,61,81,40
266.35687,266.55777,62,88,40
266.57117,266.77206,61,96,40
266.78546,266.98633,59,88,40
266.99973,267.20062,57,81,40
267.21402,267.41492,56,74,40
267.4283,267.82562,57,67,40
268.49973,268.58902,61,67,40
268.71402,268.8033,61,67,40
268.9283,269.01758,61,67,40
269.14258,269.23187,61,67,40
269.35687,269.55777,69,67,40
269.57117,269.77206,68,67,40
269.78543,269.98633,66,67,40
269.99973,270.08902,65,67,40
270.21402,270.41492,71,67,40
270.4283,270.62918,68,67,40
270.64258,270.84348,65,67,40
270.85687,271.28543,66,67,40
271.28543,271.68277,61,67,40
271.9283,272.01758,61,67,40
272.14258,272.23187,61,67,40
272.35687,272.44617,61,67,40
272.57117,272.66043,61,67,40
272.78543,272.98633,69,67,40
272.99973,273.20062,68,67,40
273.21402,273.41492,66,67,40
273.42828,273.51758,65,67,40
273.64258,273.84348,71,67,40
273.85687,274.05777,68,67,40
274.07117,274.27203,65,67,40
274.28543,274.68277,66,67,40
276.21402,276.30328,59,67,40
276.42828,276.51758,59,67,40
276.64258,276.73187,59,67,40
276.85687,279.29437,59,67,40
279.64258,279.73187,61,67,40
279.85687,279.94614,61,70,40
280.07114,280.16043,61,73,40
280.28543,280.87918,61,76,40
280.92828,281.03098,63,86,40
281.03543,281.13812,64,87,40
281.14258,281.5399,66,89,40
283.28543,283.68274,59,96,40
284.14258,284.5399,66,96,40
284.99973,285.39703,59,96,40
285.85684,286.25418,66,96,40
286.49973,286.56668,73,67,40
286.57114,286.6381,71,67,40
286.64258,286.70953,69,67,40
286.714,286.9149,71,67,40
286.92828,287.01758,73,68,40
287.14258,287.23184,75,70,40
287.35684,287.44614,76,71,40
287.57114,287.66043,78,73,40
287.78543,287.87473,80,75,40
287.99973,288.13364,81,76,40
288.14258,288.2765,80,78,40
288.28543,288.41934,78,78,40
288.42828,288.56223,76,78,40
288.57114,288.70508,75,78,40
288.714,288.84793,73,78,40
288.85684,288.99078,71,78,40
288.99973,289.13364,73,78,40
289.14258,289.2765,71,78,40
289.28543,289.31223,71,78,40
289.31223,289.41934,69,78,40
289.42828,289.56223,68,78,40
289.57114,289.70508,69,78,40
289.714,289.84793,68,78,40
289.85684,289.99078,64,78,40
289.9997,290.13364,68,78,40
290.14258,290.2765,71,78,40
290.28543,290.41934,76,78,40
290.42828,290.5622,80,78,40
290.57114,290.70508,83,78,40
290.714,290.84793,81,78,40
290.85684,290.99078,80,78,40
290.9997,291.13364,78,78,40
291.14258,291.2765,80,78,40
291.28543,291.41934,76,78,40
291.42828,291.5622,81,78,40
291.57114,291.70508,80,78,40
291.714,291.84793,78,78,40
291.85684,291.99078,76,78,40
291.9997,292.13364,75,78,40
292.14258,292.2765,73,78,40
292.28543,292.41934,71,78,40
292.42828,292.5622,73,78,40
292.57114,292.70508,71,78,40
292.714,292.74078,71,78,40
292.74078,292.84793,69,78,40
292.85684,292.99078,68,78,40
292.9997,293.13364,69,78,40
293.14258,293.2765,68,78,40
293.28543,293.41934,64,78,40
293.42828,293.5622,68,78,40
293.57114,293.70508,71,78,40
293.714,293.84793,76,78,40
293.85684,293.99078,80,78,40
293.9997,294.13364,83,78,40
294.14258,294.2765,81,78,40
294.28543,294.41934,80,78,40
294.42828,294.5622,78,78,40
294.57114,294.70505,80,78,40
294.714,294.84793,76,78,40
294.85684,294.99078,57,78,40
294.9997,295.13364,61,78,40
295.14255,295.2765,64,78,40
295.28543,295.41934,69,78,40
295.42828,295.5622,73,78,40
295.57114,295.70505,74,78,40
295.714,295.84793,76,78,40
295.85684,295.99078,73,78,40
295.9997,296.13364,69,78,40
296.14255,296.2765,64,78,40
296.28543,296.41934,61,78,40
296.42828,296.5622,57,78,40
296.57114,296.70505,59,78,40
296.714,296.84793,63,78,40
296.85684,296.99078,66,78,40
296.9997,297.13364,71,78,40
297.14255,297.2765,75,78,40
297.28543,297.41934,76,78,40
297.42828,297.5622,78,78,40
297.57114,297.70505,75,78,40
297.714,297.84793,71,78,40
297.85684,297.99078,66,78,40
297.9997,298.13364,63,78,40
298.14255,298.2765,56,78,40
298.28543,298.34344,64,78,40
298.42828,298.5622,76,78,40
298.57114,298.70505,75,78,40
298.714,298.8479,74,78,40
298.85684,298.99078,73,78,40
298.9997,299.13364,72,78,40
299.14255,299.2765,71,78,40
299.2854,299.41934,66,78,40
299.42828,299.5622,68,78,40
299.57114,299.70505,69,78,40
299.714,299.8479,71,78,40
299.85684,299.99078,69,78,40
299.9997,300.05774,68,78,40
300.14255,300.2765,76,78,40
300.2854,300.41934,75,78,40
300.42828,300.5622,74,78,40
300.57114,300.70505,73,78,40
300.714,300.8479,72,78,40
300.85684,300.99078,71,78,40
300.9997,301.13364,66,78,40
301.14255,301.2765,68,78,40
301.2854,301.41934,69,78,40
301.42828,301.5622,71,78,40
301.57114,301.70505,69,78,40
301.714,301.8479,68,78,40
301.85684,301.99078,71,78,40
301.9997,302.13364,76,78,40
302.14255,302.2765,80,78,40
302.2854,302.41934,76,78,40
302.42828,302.5622,83,78,40
302.57114,302.70505,69,78,40
302.714,302.8479,73,78,40
302.85684,302.99078,76,78,40
302.9997,303.13364,81,78,40
303.14255,303.2765,76,78,40
303.2854,303.41934,85,78,40
303.42825,303.53094,82,78,40
303.5354,303.6381,83,78,40
303.64255,303.74524,85,78,40
303.7497,303.8524,83,78,40
303.85684,303.9595,81,78,40
303.964,304.06665,80,78,40
304.07114,304.1738,78,78,40
304.17825,304.28094,76,78,40
304.2854,304.3524,80,78,40
304.35684,304.4238,78,78,40
304.42825,304.49524,80,78,40
304.4997,304.56665,78,78,40
304.57114,304.6381,80,78,40
304.64255,304.7095,78,78,40
304.714,304.78094,80,78,40
304.7854,304.8524,78,78,40
304.85684,304.9238,80,78,40
304.92825,304.99524,78,78,40
304.9997,305.06665,76,78,40
305.07114,305.1381,78,78,40
305.14255,305.2765,76,78,40
305.2854,305.41934,80,78,40
305.42825,305.5622,78,78,40
305.57114,305.70505,76,78,40
305.714,305.8479,75,78,40
305.85684,305.99075,73,78,40
305.9997,306.13364,71,78,40
306.14255,306.2765,69,78,40
306.2854,306.41934,68,78,40
306.42825,306.5622,66,78,40
306.57114,306.70505,68,78,40
306.714,306.8479,64,78,40
306.85684,307.25415,63,78,40
327.42825,328.2184,78,78,40
328.2854,328.48627,83,78,40
328.49966,328.70056,81,78,40
328.71396,328.91486,80,78,40
328.92825,329.12915,78,78,40
329.14252,329.3434,80,78,40
329.3568,329.5577,78,78,40
329.5711,329.772,76,78,40
329.78537,329.98627,78,78,40
329.99966,330.397,76,78,40
330.8568,331.647,82,78,40
331.71396,331.91486,87,80,40
331.92825,332.12912,85,81,40
332.14252,332.3434,83,82,40
332.3568,332.5577,82,82,40
332.5711,332.772,83,83,40
332.78537,332.98627,82,84,40
332.99966,333.20056,80,84,40
333.21396,333.41486,82,85,40
333.42825,333.82556,80,86,40
334.28537,335.07556,85,89,40
335.14252,335.3434,90,91,40
335.3568,335.5577,88,92,40
335.5711,335.77197,87,93,40
335.78537,335.98627,85,93,40
335.99966,336.39697,83,94,40
340.71396,341.14252,73,96,40
341.14252,341.3434,71,91,40
341.57108,341.99966,71,86,40
341.99966,342.20056,69,81,40
342.42822,342.8568,69,76,40
342.8568,343.25412,68,71,40
356.57108,357.36124,76,67,40
357.42822,357.62912,81,67,40
357.6425,357.84338,80,67,40
357.85678,358.05768,78,67,40
358.07108,358.27197,76,67,40
358.28537,358.48624,78,67,40
358.49963,358.70053,76,67,40
358.71393,358.91483,75,67,40
358.92822,359.12912,76,67,40
359.1425,359.53983,75,67,40
359.99963,360.78983,78,67,40
360.85678,361.05768,83,67,40
361.07108,361.27197,81,67,40
361.28534,361.48624,80,67,40
361.49963,361.70053,78,67,40
361.71393,361.91483,83,67,40
361.92822,362.1291,80,67,40
362.1425,362.34338,81,67,40
362.35678,362.55768,78,67,40
362.57108,362.96838,76,67,40
363.42822,364.07108,83,83,40
364.07108,364.27194,82,67,40
364.28534,364.48624,81,67,40
364.49963,364.70053,78,67,40
364.71393,364.91483,75,67,40
364.9282,365.1291,71,67,40
365.1425,365.78534,83,83,40
365.78534,365.98624,82,67,40
365.99963,366.20053,81,67,40
366.21393,366.41483,78,67,40
366.4282,366.6291,75,67,40
366.6425,366.84338,71,67,40
366.85678,367.07108,85,67,40
367.07108,367.27194,83,67,40
367.28534,367.37463,81,67,40
367.49963,367.58893,80,67,40
367.71393,367.9282,80,67,40
367.9282,368.1291,78,67,40
368.1425,368.23178,76,67,40
368.35678,368.44604,75,67,40
368.57104,368.66034,76,67,40
368.78534,368.8523,78,67,40
368.85678,368.92374,76,67,40
368.9282,368.99518,75,67,40
368.99963,369.20053,76,67,40
369.21393,369.3032,78,71,40
369.4282,369.5175,80,76,40
369.6425,369.73178,81,81,40
369.85678,369.94604,83,86,40
370.07104,370.16034,85,91,40
370.28534,370.49963,85,96,40
370.49963,370.70053,83,92,40
370.71393,370.8032,81,88,40
370.9282,371.0175,80,85,40
371.1425,371.35678,80,81,40
371.35678,371.55768,78,77,40
371.57104,371.66034,76,74,40
371.78534,371.87463,75,70,40
371.99963,372.20053,68,67,40
372.4282,372.85678,59,67,40
372.85678,373.05765,64,68,40
373.28534,373.7139,59,70,40
373.7139,373.9148,64,72,40
374.1425,374.57104,59,74,40
374.57104,374.77194,64,76,40
374.99963,375.20053,59,77,40
375.4282,375.6291,64,79,40
375.85678,376.28534,69,81,40
376.28534,376.48624,68,83,40
376.7139,377.1425,69,85,40
377.1425,377.34338,68,86,40
377.57104,377.99963,69,88,40
377.99963,378.2005,68,90,40
378.4282,378.6291,75,92,40
378.85675,379.2541,76,94,40
385.7139,385.8166,76,67,40
385.82104,385.9237,80,67,40
385.9282,386.03085,78,67,40
386.03534,386.138,76,68,40
386.14246,386.24515,75,68,40
386.2496,386.3523,78,69,40
386.35675,386.45944,76,69,40
386.4639,386.5666,75,69,40
386.57104,386.6737,76,70,40
386.6782,386.78085,80,70,40
386.78534,386.888,78,71,40
386.89246,386.99515,76,71,40
386.9996,387.1023,75,72,40
387.10675,387.20944,78,72,40
387.2139,387.3166,76,72,40
387.32104,387.4237,75,73,40
387.4282,387.53085,76,73,40
387.53534,387.638,80,74,40
387.64246,387.74515,78,74,40
387.7496,387.8523,76,75,40
387.85675,387.95944,75,75,40
387.9639,388.0666,78,75,40
388.07104,388.1737,76,76,40
388.1782,388.28085,75,76,40
388.28534,388.3746,76,77,40
388.4996,388.5889,76,78,40
388.7139,388.8032,78,78,40
388.9282,389.01746,78,79,40
389.14246,389.24515,80,80,40
389.2496,389.3523,83,81,40
389.35675,389.45944,81,81,40
389.4639,389.5666,80,81,40
389.57104,389.6737,78,82,40
389.6782,389.78085,81,82,40
389.78534,389.888,80,83,40
389.89246,389.99515,78,83,40
389.9996,390.1023,80,84,40
390.10675,390.20944,83,84,40
390.2139,390.31656,81,84,40
390.32104,390.4237,80,85,40
390.4282,390.53085,78,85,40
390.5353,390.638,81,86,40
390.64246,390.74515,80,86,40
390.7496,390.8523,78,87,40
390.85675,390.95944,80,87,40
390.9639,391.06656,83,87,40
391.07104,391.1737,81,88,40
391.1782,391.28085,80,88,40
391.2853,391.388,78,89,40
391.39246,391.49515,81,89,40
391.4996,391.6023,80,90,40
391.60675,391.70944,78,90,40
391.7139,391.8032,80,90,40
391.9282,392.01746,80,91,40
392.14246,392.23175,81,92,40
392.35675,392.44604,81,93,40
392.57104,392.96835,83,94,40
393.64246,393.85675,76,67,40
393.85675,393.94604,88,67,40
394.07104,394.1603,87,67,40
394.2853,394.4996,87,67,40
394.4996,394.7005,85,67,40
394.7139,394.80316,85,67,40
394.92816,395.01746,83,67,40
395.14246,395.35675,83,67,40
395.35675,395.55765,81,67,40
395.57104,395.6603,81,67,40
395.7853,395.8746,80,67,40
395.9996,396.2005,78,67,40
396.2139,396.28085,80,71,40
396.2853,396.3523,78,72,40
396.35675,396.4237,76,73,40
396.42816,396.62906,78,74,40
396.64246,396.73175,80,78,40
396.85675,396.94604,81,82,40
397.07104,397.2719,81,86,40
397.2853,397.4862,83,90,40
397.4996,397.7005,85,94,40
397.7139,397.92816,85,93,40
397.92816,398.12906,83,90,40
398.14246,398.23175,81,87,40
398.35675,398.44604,80,83,40
398.57104,398.7853,80,80,40
398.7853,398.9862,78,77,40
398.9996,399.0889,76,74,40
399.2139,399.30316,75,71,40
399.42816,399.8255,76,67,40
401.14246,401.93265,78,67,40
401.9996,402.2005,83,67,40
402.2139,402.41476,81,67,40
402.42816,402.62906,80,67,40
402.64246,402.84335,78,67,40
402.85675,403.05765,83,67,40
403.071,403.2719,80,67,40
403.2853,403.4862,81,67,40
403.4996,403.7005,78,67,40
403.71387,404.1112,76,67,40
404.571,405.3612,78,67,40
405.42816,405.62906,83,67,40
405.64246,405.84335,81,67,40
405.85675,406.05762,80,67,40
406.071,406.2719,78,67,40
406.2853,406.4862,83,67,40
406.4996,406.7005,82,67,40
406.71387,406.91476,81,67,40
406.92816,407.12906,80,67,40
407.14246,407.34335,77,67,40
407.35675,407.55762,78,67,40
407.571,407.7719,80,67,40
407.7853,407.9862,81,67,40
407.9996,409.05762,76,67,40
409.071,409.1246,78,67,40
409.1246,409.17816,76,67,40
409.17816,409.23172,75,67,40
409.23172,409.2853,76,67,40
409.2853,409.4862,80,67,40
409.4996,409.70047,78,67,40
409.71387,410.50406,76,67,40
410.571,410.7719,81,67,40
410.7853,410.9862,80,67,40
410.9996,411.20047,78,67,40
411.21387,411.41476,76,67,40
411.42816,411.62906,78,67,40
411.64246,411.84335,76,67,40
411.85672,412.05762,75,67,40
412.071,412.2719,76,67,40
412.2853,412.68262,75,67,40
413.14246,413.7362,76,67,40
413.7853,413.88797,78,67,40
413.89246,413.99512,80,67,40
413.99957,414.20047,81,67,40
414.21387,414.41476,80,67,40
414.42816,414.62906,78,67,40
414.64246,414.84332,76,67,40
414.85672,415.05762,78,67,40
415.071,415.2719,76,67,40
415.2853,415.4862,75,67,40
415.49957,415.70047,76,67,40
415.71387,416.1112,75,67,40
416.571,416.96832,76,67,40
417.42816,417.82547,73,67,40
418.49957,418.70047,68,67,40
418.71387,418.91476,71,70,40
418.92816,419.12906,68,73,40
419.14243,419.34332,71,76,40
419.35672,419.55762,68,79,40
419.571,419.7719,71,83,40
419.7853,419.98618,63,86,40
419.99957,420.3969,64,89,40
420.85672,421.25403,66,96,40
421.92816,422.12903,64,96,40
422.14243,422.34332,64,96,40
422.35672,422.55762,64,96,40
422.571,422.7719,64,96,40
422.78528,422.98618,64,96,40
422.99957,423.20047,64,96,40
423.21387,423.41476,64,96,40
423.64243,423.84332,63,96,40
423.85672,424.05762,63,96,40
424.071,424.2719,63,96,40
424.28528,424.48618,63,96,40
424.49957,424.70047,63,96,40
424.71387,424.91476,63,96,40
424.92816,425.12903,63,96,40
425.14243,425.53976,64,96,40
426.85672,428.571,69,67,40
428.571,428.77188,68,67,40
428.78528,428.85226,66,67,40
428.85672,428.92368,64,67,40
428.92813,428.99512,63,67,40
428.99957,429.20047,64,67,40
429.21387,429.30313,66,67,40
429.42813,429.51743,68,67,40
429.64243,429.73172,69,67,40
429.85672,429.94598,71,67,40
430.07098,430.16028,73,67,40
430.28528,430.68262,59,67,40
432.85672,433.25403,75,106,40
432.85672,433.25403,66,106,40
432.85672,433.25403,59,106,40
433.71387,434.3076,76,106,40
433.71387,434.3076,68,106,40
433.71387,434.3076,59,106,40
15.857127,16.031235,59,67,42
16.285698,16.459805,54,67,42
16.71427,16.888376,51,67,42
17.14284,17.316946,47,67,42
19.285694,19.459803,52,67,42
19.714266,19.888372,47,67,42
20.142838,20.316944,44,67,42
20.571407,20.745516,40,67,42
20.999979,21.3973,52,67,42
21.85712,22.254442,47,67,42
22.714264,23.111584,52,67,42
23.571405,23.968725,47,67,42
27.428543,28.218721,52,96,42
28.285686,29.075863,47,96,42
29.142828,29.54015,40,96,42
29.5714,29.96872,52,96,42
29.99997,30.397291,40,96,42
30.857113,31.64729,47,96,42
31.714254,32.504433,42,96,42
32.571396,33.361572,39,96,42
39.42853,39.629425,49,67,42
39.64282,39.84371,48,74,42
39.8571,40.057995,49,81,42
40.07139,40.27228,51,88,42
40.285675,40.48657,52,96,42
40.499958,40.70085,51,88,42
40.714245,40.91514,49,81,42
40.92853,41.129425,47,74,42
41.142815,41.54014,46,67,42
49.714237,49.915127,51,67,42
49.92852,50.129414,50,74,42
50.142807,50.3437,51,81,42
50.357094,50.557983,52,88,42
50.571377,50.77227,51,96,42
50.785664,50.986557,49,88,42
50.99995,51.20084,47,81,42
51.214233,51.415127,46,74,42
51.42852,51.82584,44,67,42
53.142803,53.540127,44,67,42
53.999947,54.397266,39,67,42
54.857086,55.25441,44,67,42
56.571373,56.968693,44,67,42
57.428513,57.825836,39,67,42
58.285656,58.682976,44,67,42
60.214226,60.303513,49,67,42
60.428513,60.517796,49,67,42
60.642796,60.732082,49,67,42
60.857082,63.29458,49,67,42
63.42851,63.82583,54,67,42
64.28565,64.68297,49,67,42
65.14279,65.540115,54,67,42
65.99993,66.397255,49,67,42
66.85708,67.254395,54,67,42
106.28561,107.99989,59,67,42
107.99989,109.580246,54,67,42
109.71417,118.682915,47,67,42
122.99988,123.42845,63,96,42
123.42845,123.62934,68,91,42
123.85702,124.28559,61,86,42
124.28559,124.48648,66,81,42
124.714165,125.14273,59,76,42
125.14273,125.540054,64,71,42
140.99986,141.17397,59,67,42
141.42844,141.60254,54,67,42
141.857,142.03111,51,67,42
142.28557,142.45969,47,67,42
144.42842,144.60254,52,67,42
144.857,145.0311,47,67,42
145.28557,145.45967,44,67,42
145.71414,145.88824,40,67,42
146.14272,146.54004,52,67,42
146.99985,147.39717,47,67,42
147.857,148.25432,52,67,42
148.71414,149.11147,47,67,42
152.57127,153.36145,52,96,42
153.42842,154.2186,47,96,42
154.28555,155.07574,49,96,42
155.1427,155.93288,44,96,42
155.99985,156.79002,45,96,42
156.85698,157.64717,40,96,42
157.71413,164.77216,45,67,42
164.99983,165.20073,57,67,42
165.4284,165.6293,45,67,42
165.85698,166.05788,57,67,42
166.28555,166.68288,45,67,42
174.85696,175.71411,42,67,42
175.71411,176.11143,47,67,42
176.57126,177.42839,40,67,42
177.42839,177.82571,42,67,42
177.85696,178.25429,38,67,42
178.28554,178.68286,37,67,42
178.71411,179.11143,38,67,42
179.14268,179.54,37,67,42
179.57124,179.96857,38,67,42
179.99982,181.71411,40,67,42
181.71411,182.11142,45,67,42
183.64267,183.70964,42,96,42
183.7141,183.78107,40,96,42
183.78554,183.8525,39,96,42
183.85696,184.05785,40,96,42
184.07124,184.16054,42,96,42
184.28552,184.37482,44,96,42
184.49982,184.5891,45,96,42
184.7141,184.80339,47,96,42
184.92839,185.01767,49,96,42
185.14267,185.54,45,96,42
190.49982,190.56677,44,96,42
190.57124,190.6382,42,96,42
190.64267,190.70963,41,96,42
190.7141,190.915,42,96,42
190.92838,191.01767,44,96,42
191.14267,191.23195,46,96,42
191.35695,191.44624,47,96,42
191.57124,191.66052,49,96,42
191.78552,191.8748,50,96,42
191.9998,192.39713,47,96,42
197.35695,197.4239,46,96,42
197.42838,197.49533,44,96,42
197.4998,197.56677,43,96,42
197.57123,197.77213,44,96,42
197.78552,197.8748,46,96,42
197.9998,198.08908,48,96,42
198.21408,198.30338,49,96,42
198.42838,198.51765,51,96,42
198.64265,198.73195,52,96,42
198.85695,199.25427,49,96,42
202.71408,203.14265,61,96,42
203.14265,203.34355,60,96,42
203.57123,203.9998,61,96,42
203.9998,204.20068,60,96,42
219.42834,222.72299,49,67,42
222.85692,224.96852,44,67,42
224.99977,225.3971,57,67,42
225.42834,225.82567,56,67,42
225.85692,226.25424,54,67,42
226.28549,227.99977,52,67,42
227.99977,229.58012,54,67,42
229.71405,230.5712,56,67,42
230.5712,231.36137,44,67,42
231.42834,231.82567,49,67,42
246.8569,250.68279,44,67,42
250.71404,251.11136,56,67,42
251.14261,251.53993,52,67,42
251.57118,251.96849,49,67,42
251.99974,252.39706,44,67,42
252.42831,252.82564,43,67,42
252.85689,253.25421,44,67,42
253.28546,253.68279,42,74,42
253.71404,254.50421,40,81,42
255.42831,256.28546,42,96,42
256.28546,257.07562,41,96,42
257.1426,257.53992,40,96,42
258.85687,259.64706,62,67,42
259.71402,260.5042,59,67,42
260.57117,260.96848,56,67,42
265.71402,265.91492,49,67,42
265.9283,266.1292,48,74,42
266.14258,266.34348,49,81,42
266.35687,266.55777,50,88,42
266.57117,266.77206,49,96,42
266.78546,266.98633,47,88,42
266.99973,267.20062,45,81,42
267.21402,267.41492,44,74,42
267.4283,267.82562,42,67,42
269.14258,269.53992,42,67,42
269.99973,270.39706,37,67,42
270.85687,271.25418,42,67,42
272.57117,272.96848,42,67,42
273.42828,273.82562,37,67,42
274.28543,274.68277,42,67,42
276.21402,276.30328,47,67,42
276.42828,276.51758,47,67,42
276.64258,276.73187,47,67,42
276.85687,279.29437,47,67,42
279.64258,279.73187,49,67,42
279.85687,279.94614,49,70,42
280.07114,280.16043,49,73,42
280.28543,280.87918,49,76,42
280.92828,281.03098,51,86,42
281.03543,281.13812,52,87,42
281.14258,281.5399,54,89,42
282.85687,283.25418,47,96,42
283.714,284.11133,42,96,42
284.57114,284.96848,47,96,42
285.42828,285.8256,42,96,42
286.28543,286.68274,47,96,42
325.71396,327.42825,52,67,42
327.42825,329.0086,47,67,42
329.14252,330.8568,40,67,42
330.8568,332.43716,39,73,42
332.5711,334.28537,44,80,42
334.28537,335.86572,42,87,42
335.99966,336.39697,47,94,42
340.71396,341.14252,63,96,42
341.14252,341.3434,68,91,42
341.57108,341.99966,61,86,42
341.99966,342.20056,66,81,42
342.42822,342.8568,59,76,42
342.8568,343.25412,64,71,42
358.71393,358.88803,59,67,42
359.1425,359.31662,54,67,42
359.57108,359.74518,51,67,42
359.99963,360.17374,47,67,42
362.1425,362.3166,52,67,42
362.57108,362.74518,47,67,42
362.99963,363.17374,44,67,42
363.42822,363.60233,40,67,42
363.85678,364.2541,52,67,42
364.71393,365.11124,47,67,42
365.57108,365.96838,52,67,42
366.4282,366.82553,47,67,42
370.28534,371.07553,52,96,42
371.1425,371.93268,47,91,42
371.99963,372.39694,52,87,42
375.85678,376.28534,47,81,42
376.28534,376.48624,52,83,42
376.7139,377.1425,47,85,42
377.1425,377.34338,52,86,42
377.57104,377.99963,47,88,42
377.99963,378.2005,52,90,42
378.4282,378.6291,47,92,42
378.85675,379.2541,40,94,42
389.14246,389.24515,64,80,42
389.2496,389.3523,68,81,42
389.35675,389.45944,66,81,42
389.4639,389.5666,64,81,42
389.57104,389.6737,63,82,42
389.6782,389.78085,66,82,42
389.78534,389.888,64,83,42
389.89246,389.99515,63,83,42
389.9996,390.1023,64,84,42
390.10675,390.20944,68,84,42
390.2139,390.31656,66,84,42
390.32104,390.4237,64,85,42
390.4282,390.53085,63,85,42
390.5353,390.638,66,86,42
390.64246,390.74515,64,86,42
390.7496,390.8523,63,87,42
390.85675,390.95944,64,87,42
390.9639,391.06656,68,87,42
391.07104,391.1737,66,88,42
391.1782,391.28085,64,88,42
391.2853,391.388,63,89,42
391.39246,391.49515,66,89,42
391.4996,391.6023,64,90,42
391.60675,391.70944,63,90,42
391.7139,391.8032,64,90,42
391.9282,392.01746,64,91,42
392.14246,392.23175,66,92,42
392.35675,392.44604,66,93,42
392.57104,392.96835,68,94,42
393.64246,393.85675,64,67,42
393.85675,394.05765,73,67,42
394.07104,394.1603,71,67,42
394.2853,394.4996,71,67,42
394.4996,394.7005,69,67,42
394.7139,394.80316,69,67,42
394.92816,395.01746,68,67,42
395.14246,395.35675,68,67,42
395.35675,395.55765,66,67,42
395.57104,395.6603,66,67,42
395.7853,395.8746,64,67,42
395.9996,396.2005,63,67,42
396.2139,396.28085,64,71,42
396.2853,396.3523,63,72,42
396.35675,396.4237,61,73,42
396.42816,396.62906,63,74,42
396.64246,396.73175,65,78,42
396.85675,396.94604,66,82,42
397.07104,397.2719,66,86,42
397.2853,397.4862,68,90,42
397.4996,397.7005,69,94,42
397.7139,397.92816,69,93,42
397.92816,398.12906,68,90,42
398.14246,398.23175,66,87,42
398.35675,398.44604,64,83,42
398.57104,398.7853,59,80,42
398.7853,398.9862,57,77,42
398.9996,399.0889,56,74,42
399.2139,399.30316,54,71,42
399.42816,399.8255,52,67,42
401.14246,401.53976,47,67,42
402.85675,403.25406,52,67,42
404.571,404.96835,47,67,42
410.14246,410.53976,52,67,42
410.571,410.96835,59,67,42
410.9996,411.3969,56,67,42
411.42816,411.82547,57,67,42
411.85672,412.25406,54,67,42
412.2853,412.68262,51,67,42
412.71387,413.1112,47,67,42
413.571,413.96832,52,67,42
413.99957,414.3969,59,67,42
414.42816,414.82547,56,67,42
414.85672,415.25406,57,67,42
415.2853,415.68262,54,67,42
415.71387,416.1112,51,67,42
416.14246,416.53976,47,67,42
416.571,416.96832,52,67,42
417.42816,417.82547,45,67,42
418.2853,418.4594,47,67,42
418.71387,418.88797,47,72,42
419.14243,419.31656,47,78,42
419.571,419.74512,47,84,42
419.99957,420.3969,44,90,42
420.85672,421.25403,61,96,42
421.92816,422.12903,56,96,42
422.14243,422.34332,56,96,42
422.35672,422.55762,56,96,42
422.571,422.7719,56,96,42
422.78528,422.98618,56,96,42
422.99957,423.20047,56,96,42
423.21387,423.41476,56,96,42
423.64243,423.84332,57,96,42
423.85672,424.05762,57,96,42
424.071,424.2719,57,96,42
424.28528,424.48618,57,96,42
424.49957,424.70047,57,96,42
424.71387,424.91476,57,96,42
424.92816,425.12903,57,96,42
425.14243,425.53976,56,96,42
426.85672,427.71387,47,67,42
427.71387,428.50403,48,67,42
428.571,428.96832,49,67,42
430.49957,430.56653,56,67,42
430.57098,430.63797,54,67,42
430.64243,430.70938,52,67,42
430.71387,430.91473,54,67,42
430.92813,431.01743,56,67,42
431.14243,431.23172,57,67,42
431.35672,431.44598,58,67,42
431.57098,431.66028,59,67,42
431.78528,431.87457,47,67,42
431.99957,432.39688,52,67,42
432.85672,433.25403,47,106,42
433.71387,434.3076,40,106,42
0.0,0.79017776,76,67,0
0.857142,1.0580347,81,67,0
1.0714275,1.2723202,80,67,0
1.285713,1.4866056,78,67,0
1.4999985,1.7008911,76,67,0
1.714284,1.9151766,78,67,0
1.9285696,2.1294622,76,67,0
2.142855,2.3437476,75,67,0
2.3571405,2.5580332,76,67,0
2.571426,2.9687471,75,67,0
3.428568,4.2187457,78,67,0
4.28571,4.486603,83,67,0
4.4999957,4.700888,81,67,0
4.714281,4.9151735,80,67,0
4.9285665,5.1294594,78,67,0
5.142852,5.3437448,83,67,0
5.3571377,5.55803,80,67,0
5.571423,5.7723155,81,67,0
5.7857084,5.9866014,78,67,0
5.999994,6.397315,76,67,0
6.857136,7.4999924,83,83,0
7.4999924,7.7008853,82,67,0
7.714278,7.9151707,81,67,0
7.9285636,8.1294565,78,67,0
8.142849,8.343741,75,67,0
8.357135,8.558027,71,67,0
8.57142,9.214276,83,83,0
9.214276,9.415169,82,67,0
9.428562,9.629455,81,67,0
9.642847,9.84374,78,67,0
9.857133,10.058025,75,67,0
10.071419,10.272311,71,67,0
10.285704,10.486597,83,67,0
10.4999895,10.700882,80,67,0
10.714275,10.915168,85,67,0
10.92856,11.129453,83,67,0
11.142846,11.343739,81,67,0
11.357132,11.558024,80,67,0
11.571417,11.772309,78,67,0
11.785703,11.986595,76,67,0
11.999988,12.214273,76,67,0
12.214273,12.415166,75,67,0
12.428559,12.642844,80,67,0
12.642844,12.843738,78,67,0
12.85713,12.910702,76,67,0
12.910702,12.9642725,78,67,0
12.9642725,13.071416,76,67,0
13.071416,13.272308,75,67,0
13.285701,13.3392725,73,67,0
13.3392725,13.392844,75,67,0
13.392844,13.499987,73,67,0
13.499987,13.700879,71,67,0
13.714272,13.915165,68,67,0
13.928557,14.12945,71,67,0
14.142843,14.343736,68,67,0
14.357128,14.558022,71,67,0
14.571414,14.772306,68,67,0
14.7857,14.986592,71,67,0
14.999985,15.200877,68,67,0
15.214271,15.415163,71,67,0
15.428556,15.629449,69,67,0
15.642841,15.843734,71,67,0
15.857127,16.05802,69,67,0
16.071413,16.272305,71,67,0
16.285698,16.486591,69,67,0
16.499983,16.700876,71,67,0
16.71427,16.915161,69,67,0
16.928555,17.129448,71,67,0
17.14284,17.343733,69,67,0
17.357126,17.558018,71,67,0
17.571411,17.772305,69,67,0
17.785696,17.98659,71,67,0
17.999983,18.200874,69,67,0
18.214268,18.41516,71,67,0
18.428553,18.629446,69,67,0
18.64284,18.84373,71,67,0
18.857124,19.058016,68,67,0
19.07141,19.272303,71,67,0
19.285694,19.486588,68,67,0
19.49998,19.700872,71,67,0
19.714266,19.91516,68,67,0
19.92855,20.129444,71,67,0
20.142838,20.343729,68,67,0
20.357122,20.558016,71,67,0
20.571407,20.7723,68,67,0
20.785694,20.986586,71,67,0
20.999979,21.200872,68,67,0
21.214264,21.415157,71,67,0
21.42855,21.629442,66,67,0
21.642836,21.843729,71,67,0
21.85712,22.058014,69,67,0
22.071407,22.272299,71,67,0
22.285692,22.486584,68,67,0
22.499977,22.70087,71,67,0
22.714264,22.915155,68,67,0
22.928549,23.12944,71,67,0
23.142834,23.343727,66,67,0
23.357119,23.558012,71,67,0
23.571405,23.772297,69,67,0
23.78569,23.986584,71,67,0
23.999975,24.214262,69,67,0
24.214262,24.415154,68,67,0
24.428547,24.517832,66,67,0
24.642832,24.732119,64,67,0
24.857119,25.071404,71,67,0
25.071404,25.272297,69,67,0
25.285688,25.374975,68,67,0
25.499975,25.58926,66,67,0
25.71426,25.803545,68,67,0
25.928545,25.99551,69,67,0
25.999973,26.066938,68,67,0
26.071402,26.138367,66,67,0
26.142832,26.343723,68,67,0
26.357117,26.446402,75,71,0
26.571402,26.660688,76,75,0
26.785688,26.874973,78,79,0
26.999973,27.089258,80,83,0
27.214258,27.303545,81,87,0
27.428543,27.64283,81,91,0
27.64283,27.843721,80,96,0
27.857115,27.9464,78,96,0
28.0714,28.160686,76,96,0
28.285686,28.499971,71,96,0
28.499971,28.700865,69,96,0
28.714256,28.803543,68,96,0
28.928543,29.017828,66,96,0
29.142828,29.54015,68,96,0
29.5714,29.96872,80,96,0
29.5714,29.96872,71,96,0
29.99997,30.397291,76,96,0
29.99997,30.397291,68,96,0
30.857113,31.64729,59,96,0
31.714254,32.504433,54,96,0
32.571396,33.361572,51,96,0
33.642822,33.73211,78,67,0
33.85711,33.946396,77,67,0
34.071396,34.16068,76,67,0
34.28568,34.374966,75,67,0
34.499966,34.589252,83,67,0
34.714252,34.803535,82,67,0
34.928535,35.017822,81,67,0
35.142822,35.23211,80,67,0
35.35711,35.446392,79,67,0
35.571392,35.66068,78,67,0
35.78568,35.874966,77,67,0
35.999966,36.21425,80,67,0
36.21425,36.415142,78,67,0
36.428535,36.825855,78,67,0
37.071392,37.272285,78,67,0
37.28568,37.48657,87,67,0
37.49996,37.700855,85,67,0
37.71425,37.92853,85,67,0
37.92853,38.129425,83,67,0
38.14282,38.357105,83,67,0
38.357105,38.558,82,67,0
38.57139,38.785675,82,67,0
38.785675,38.98657,80,67,0
38.99996,39.214245,80,67,0
39.214245,39.41514,78,67,0
39.42853,39.51782,78,67,0
39.64282,39.7321,77,67,0
39.8571,40.254425,76,67,0
41.142815,41.932995,64,96,0
41.999958,42.790134,61,96,0
42.8571,43.647278,58,96,0
43.928528,44.017815,76,67,0
44.142815,44.232098,75,67,0
44.357098,44.446384,74,67,0
44.571384,44.66067,73,67,0
44.78567,44.874954,85,67,0
44.999954,45.08924,84,67,0
45.21424,45.303528,83,67,0
45.428528,45.51781,82,67,0
45.64281,45.732098,81,67,0
45.857098,45.946384,80,67,0
46.07138,46.160667,79,67,0
46.285667,46.374954,78,67,0
46.499954,46.58924,77,67,0
46.714237,47.11156,76,67,0
47.357094,47.557987,76,67,0
47.57138,47.772274,88,67,0
47.785667,47.98656,85,67,0
47.99995,48.200844,83,67,0
48.214237,48.41513,82,67,0
48.428524,48.629417,85,67,0
48.642807,48.8437,79,67,0
48.857094,49.057987,85,67,0
49.07138,49.272274,78,67,0
49.285664,49.486557,85,67,0
49.49995,49.700844,76,67,0
49.714237,49.767807,76,67,0
49.767807,49.82138,78,67,0
49.82138,49.92852,76,67,0
49.92852,50.129414,75,67,0
50.142807,50.540127,75,67,0
50.785664,50.87495,75,67,0
50.99995,51.089233,75,67,0
51.214233,51.30352,75,67,0
51.42852,51.517807,75,67,0
51.642807,51.843697,83,67,0
51.85709,52.057983,82,67,0
52.071377,52.27227,80,67,0
52.285664,52.374947,79,67,0
52.499947,52.70084,85,67,0
52.714233,52.915127,82,67,0
52.92852,53.12941,79,67,0
53.142803,53.540127,80,67,0
53.571377,53.968697,75,67,0
54.214233,54.303516,75,67,0
54.428516,54.517803,75,67,0
54.642803,54.73209,75,67,0
54.857086,54.946373,75,67,0
55.071373,55.272266,83,67,0
55.28566,55.486553,82,67,0
55.499943,55.700836,80,67,0
55.71423,55.803516,79,67,0
55.928516,56.12941,85,67,0
56.1428,56.343693,82,67,0
56.357086,56.55798,79,67,0
56.571373,56.968693,80,67,0
56.999943,57.397263,75,67,0
57.6428,57.732086,75,67,0
57.857086,57.94637,75,67,0
58.07137,58.160656,75,67,0
58.285656,58.374943,75,67,0
58.499943,58.700832,83,67,0
58.714226,58.91512,85,67,0
58.928513,59.129406,87,67,0
59.1428,59.34369,85,67,0
59.357082,59.557976,83,67,0
59.57137,59.772263,82,67,0
59.785656,59.986546,80,67,0
59.99994,60.95976,78,67,0
60.964226,61.066902,77,67,0
61.07137,61.174046,80,67,0
61.17851,61.28119,78,67,0
61.285652,61.388332,82,67,0
61.392796,61.495476,80,67,0
61.49994,61.602615,83,67,0
61.607082,61.70976,82,67,0
61.714226,61.915115,85,67,0
61.92851,62.129402,83,67,0
62.142796,62.34369,87,67,0
62.357082,62.557972,83,67,0
62.571365,62.77226,82,67,0
62.785652,62.986546,80,67,0
62.999935,63.20083,78,67,0
63.214222,63.415115,77,67,0
63.42851,63.531185,78,67,0
63.535652,63.63833,82,67,0
63.64279,63.745472,85,67,0
63.749935,63.852615,82,67,0
63.85708,63.95976,85,67,0
63.964222,64.0669,82,67,0
64.071365,64.17404,80,67,0
64.178505,64.28119,78,67,0
64.28565,64.38833,77,67,0
64.39279,64.49547,80,67,0
64.49994,64.602615,83,67,0
64.60708,64.709755,80,67,0
64.71422,64.8169,83,67,0
64.821365,64.92404,80,67,0
64.928505,65.03118,78,67,0
65.03565,65.13833,77,67,0
65.14279,65.24547,78,67,0
65.24993,65.352615,82,67,0
65.35708,65.459755,85,67,0
65.46422,65.5669,82,67,0
65.571365,65.67404,85,67,0
65.678505,65.78118,82,67,0
65.78565,65.88833,80,67,0
65.89279,65.99547,78,67,0
65.99993,66.102615,77,67,0
66.10708,66.209755,80,67,0
66.21422,66.316895,83,67,0
66.321365,66.42404,80,67,0
66.428505,66.53118,83,67,0
66.535645,66.63833,80,67,0
66.64279,66.74547,78,67,0
66.74993,66.852615,77,67,0
66.85708,67.254395,78,67,0
68.99993,69.397255,70,67,0
68.99993,69.397255,66,67,0
68.99993,69.397255,61,67,0
69.428505,69.82582,70,67,0
69.428505,69.82582,66,67,0
69.428505,69.82582,61,67,0
69.85707,70.254395,70,67,0
69.85707,70.254395,66,67,0
69.85707,70.254395,61,67,0
70.71422,71.111534,71,67,0
70.71422,71.111534,66,67,0
70.71422,71.111534,63,67,0
71.142784,71.54011,71,67,0
71.142784,71.54011,66,67,0
71.142784,71.54011,63,67,0
71.57136,71.96868,71,67,0
71.57136,71.96868,66,67,0
71.57136,71.96868,63,67,0
72.4285,72.82582,70,67,0
72.4285,72.82582,66,67,0
72.4285,72.82582,61,67,0
72.85707,73.254395,70,67,0
72.85707,73.254395,66,67,0
72.85707,73.254395,61,67,0
73.285645,73.68296,70,67,0
73.285645,73.68296,66,67,0
73.285645,73.68296,61,67,0
74.142784,74.54011,71,67,0
74.142784,74.54011,66,67,0
74.142784,74.54011,63,67,0
74.57136,74.96867,71,67,0
74.57136,74.96867,66,67,0
74.57136,74.96867,63,67,0
74.99992,75.39725,71,67,0
74.99992,75.39725,66,67,0
74.99992,75.39725,63,67,0
75.85706,76.25439,68,67,0
75.85706,76.25439,64,67,0
75.85706,76.25439,59,67,0
76.28564,76.68296,68,67,0
76.28564,76.68296,64,67,0
76.28564,76.68296,59,67,0
76.71421,77.11153,68,67,0
76.71421,77.11153,64,67,0
76.71421,77.11153,59,67,0
77.57135,77.96867,70,67,0
77.57135,77.96867,66,67,0
77.57135,77.96867,61,67,0
77.99992,78.39724,70,67,0
77.99992,78.39724,66,67,0
77.99992,78.39724,61,67,0
78.42849,78.82581,70,67,0
78.42849,78.82581,66,67,0
78.42849,78.82581,61,67,0
78.85706,79.25439,71,67,0
78.85706,79.25439,66,67,0
78.85706,79.25439,59,67,0
80.14278,80.5401,66,67,0
80.14278,80.5401,64,67,0
80.14278,80.5401,61,67,0
80.57135,80.968666,66,67,0
80.57135,80.968666,63,67,0
80.57135,80.968666,59,67,0
81.85706,82.25438,66,67,0
81.85706,82.25438,64,67,0
81.85706,82.25438,61,67,0
82.28563,82.68295,66,67,0
82.28563,82.68295,63,67,0
82.28563,82.68295,59,67,0
82.7142,83.11153,71,67,0
82.7142,83.11153,66,67,0
82.7142,83.11153,63,67,0
83.57134,83.968666,71,67,0
83.57134,83.968666,68,67,0
83.57134,83.968666,61,67,0
84.2142,84.41509,71,67,0
84.2142,84.41509,66,67,0
84.2142,84.41509,63,67,0
84.42849,84.62938,71,67,0
84.42849,84.62938,66,67,0
84.42849,84.62938,63,67,0
84.64277,84.843666,71,67,0
84.64277,84.843666,66,67,0
84.64277,84.843666,63,67,0
85.07134,85.27224,70,67,0
85.07134,85.27224,66,67,0
85.07134,85.27224,64,67,0
85.28563,85.48652,70,67,0
85.28563,85.48652,66,67,0
85.28563,85.48652,64,67,0
85.499916,85.700806,70,67,0
85.499916,85.700806,66,67,0
85.499916,85.700806,64,67,0
85.7142,86.11152,71,67,0
85.7142,86.11152,66,67,0
85.7142,86.11152,63,67,0
87.42848,87.531166,76,67,0
87.53563,87.638306,78,67,0
87.64277,87.745445,76,67,0
87.74991,87.85259,75,67,0
87.857056,87.95973,76,67,0
87.964195,88.06688,82,67,0
88.07134,88.17402,85,67,0
88.17848,88.28116,83,67,0
88.28563,88.388306,82,67,0
88.39277,88.495445,85,67,0
88.49991,88.60259,80,67,0
88.607056,88.70973,85,67,0
88.714195,88.81688,78,67,0
88.82134,88.92402,85,67,0
88.92848,89.03116,76,67,0
89.03562,89.138306,85,67,0
89.14277,89.245445,75,67,0
89.24991,89.35259,78,67,0
89.357056,89.45973,76,67,0
89.464195,89.56687,75,67,0
89.57134,89.67402,76,67,0
89.67848,89.78116,78,67,0
89.78562,89.888306,80,67,0
89.89277,89.995445,82,67,0
89.99991,90.102585,83,67,0
90.107056,90.20973,82,67,0
90.214195,90.31687,80,67,0
90.321335,90.42402,78,67,0
90.42848,90.53116,76,67,0
90.53562,90.638306,75,67,0
90.64277,90.745445,73,67,0
90.74991,90.852585,71,67,0
90.857056,90.95973,76,67,0
90.964195,91.06687,78,67,0
91.071335,91.17402,76,67,0
91.17848,91.28116,75,67,0
91.28562,91.3883,76,67,0
91.39277,91.495445,82,67,0
91.49991,91.602585,85,67,0
91.60705,91.70973,83,67,0
91.714195,91.81687,82,67,0
91.821335,91.92402,85,67,0
91.92848,92.03116,80,67,0
92.03562,92.1383,85,67,0
92.14276,92.245445,78,67,0
92.24991,92.352585,85,67,0
92.35705,92.45973,76,67,0
92.464195,92.56687,85,67,0
92.571335,92.67401,75,67,0
92.67848,92.78116,78,67,0
92.78562,92.8883,76,67,0
92.89276,92.995445,75,67,0
92.99991,93.102585,76,67,0
93.10705,93.209724,78,67,0
93.214195,93.31687,80,67,0
93.321335,93.42401,82,67,0
93.428474,93.53116,83,67,0
93.53562,93.6383,82,67,0
93.64276,93.745445,80,67,0
93.74991,93.852585,78,67,0
93.85705,93.959724,76,67,0
93.964195,94.06687,75,67,0
94.071335,94.17401,73,67,0
94.178474,94.28116,71,67,0
94.28562,94.68294,80,67,0
94.821335,94.92401,68,67,0
94.928474,95.03116,71,67,0
95.03562,95.1383,76,67,0
95.14276,95.24544,80,67,0
95.24991,95.352585,76,67,0
95.35705,95.459724,83,67,0
95.46419,95.56687,80,67,0
95.571335,95.67401,76,67,0
95.678474,95.78115,71,67,0
95.78562,95.8883,68,67,0
95.89276,95.99544,64,67,0
95.9999,96.397224,82,67,0
96.535614,96.6383,70,67,0
96.64276,96.74544,73,67,0
96.7499,96.852585,78,67,0
96.85705,96.959724,82,67,0
96.96419,97.066864,78,67,0
97.071335,97.17401,85,67,0
97.178474,97.28115,82,67,0
97.285614,97.3883,78,67,0
97.39276,97.49544,73,67,0
97.4999,97.60258,70,67,0
97.60705,97.709724,66,67,0
97.82133,97.92401,71,67,0
97.928474,98.03115,83,67,0
98.035614,98.1383,71,67,0
98.14276,98.24544,82,67,0
98.2499,98.35258,71,67,0
98.35705,98.459724,81,67,0
98.46419,98.566864,71,67,0
98.57133,98.67401,80,67,0
98.678474,98.78115,71,67,0
98.785614,98.88829,79,67,0
98.89276,98.99544,71,67,0
98.9999,99.10258,78,67,0
99.10704,99.209724,71,67,0
99.21419,99.316864,79,67,0
99.32133,99.42401,71,67,0
99.428474,99.53115,78,67,0
99.535614,99.63829,71,67,0
99.64276,99.74544,83,67,0
99.7499,99.85258,71,67,0
99.85704,99.959724,82,67,0
99.96419,100.066864,71,67,0
100.07133,100.174,81,67,0
100.178474,100.28115,71,67,0
100.285614,100.38829,80,67,0
100.39275,100.49544,71,67,0
100.4999,100.60258,79,67,0
100.60704,100.709724,71,67,0
100.71419,100.816864,78,67,0
100.82133,100.924,71,67,0
100.92847,101.03115,79,67,0
101.035614,101.13829,71,67,0
101.14275,101.54008,78,67,0
101.67847,101.78115,75,67,0
101.785614,101.88829,78,67,0
101.89275,101.99543,83,67,0
101.9999,102.39722,73,67,0
102.535614,102.63829,75,67,0
102.64275,102.74543,76,67,0
102.7499,102.85258,80,67,0
102.85704,103.05793,66,67,0
103.07133,103.174,68,67,0
103.17847,103.28114,70,67,0
103.285614,103.38829,71,67,0
103.39275,103.49543,73,67,0
103.49989,103.60258,75,67,0
103.60704,103.70972,76,67,0
103.71418,103.816864,78,67,0
103.82133,103.924,80,67,0
103.92847,104.03114,82,67,0
104.035614,104.13829,83,67,0
104.14275,104.24543,82,67,0
104.24989,104.35258,83,67,0
104.35704,104.45972,82,67,0
104.46418,104.56686,83,67,0
104.57133,104.63829,75,67,0
104.64275,104.70972,73,67,0
104.71418,104.78114,75,67,0
104.78561,104.85258,73,67,0
104.85704,104.924,75,67,0
104.92847,104.99543,73,67,0
104.99989,105.06686,75,67,0
105.07133,105.13829,73,67,0
105.14275,105.20972,75,67,0
105.21418,105.28114,73,67,0
105.28561,105.35257,75,67,0
105.35704,105.424,73,67,0
105.42847,105.49543,75,67,0
105.49989,105.56686,73,67,0
105.57132,105.63829,75,67,0
105.64275,105.70972,73,67,0
105.71418,105.78114,75,67,0
105.78561,105.85257,73,67,0
105.85704,105.924,75,67,0
105.92847,105.99543,73,67,0
105.99989,106.06686,75,67,0
106.07132,106.13829,73,67,0
106.14275,106.20972,71,67,0
106.21418,106.28114,73,67,0
106.28561,106.68293,71,67,0
107.99989,108.79007,76,67,0
108.85703,109.05793,82,67,0
109.07132,109.27221,80,67,0
109.28561,109.486496,78,67,0
109.49989,109.70078,76,67,0
109.71417,109.91507,78,67,0
109.92846,110.12936,76,67,0
110.142746,110.34364,75,67,0
110.35703,110.55792,76,67,0
110.57132,110.968636,75,67,0
111.42846,112.218636,80,67,0
112.2856,112.486496,85,72,0
112.499886,112.70078,83,74,0
112.71417,112.91506,81,75,0
112.92846,113.12935,80,77,0
113.142746,113.343636,81,78,0
113.35703,113.55792,80,80,0
113.57131,113.77221,78,81,0
113.7856,113.986496,80,82,0
113.999886,114.39721,78,84,0
114.857025,115.64721,83,90,0
115.71417,115.91506,88,96,0
115.92846,116.12935,87,96,0
116.14274,116.343636,85,96,0
116.357025,116.55792,83,96,0
116.57131,116.7722,85,96,0
116.7856,116.98649,83,96,0
116.999886,117.200775,82,96,0
117.214165,117.41506,83,96,0
117.42845,117.825775,82,96,0
118.2856,118.48649,83,96,0
118.49988,118.700775,87,95,0
118.714165,118.91506,85,94,0
118.92845,119.12935,83,93,0
119.14274,119.34363,82,92,0
119.357025,119.557915,88,91,0
119.57131,119.7722,85,90,0
119.78559,119.98649,82,89,0
119.99988,120.13381,83,88,0
120.14274,120.276665,87,88,0
120.28559,120.419525,85,87,0
120.42845,120.56238,87,87,0
120.571304,120.70524,85,86,0
120.714165,120.84809,83,85,0
120.857025,120.99095,82,85,0
120.99988,121.133804,88,84,0
121.14274,121.276665,87,84,0
121.28559,121.419525,88,83,0
121.42845,121.56238,85,83,0
121.571304,121.70524,82,82,0
121.714165,121.915054,83,81,0
121.92845,122.12934,87,81,0
122.14274,122.34363,80,80,0
122.35702,122.557915,88,79,0
122.571304,122.7722,81,78,0
122.78559,122.98648,85,77,0
122.99988,123.20077,79,76,0
123.214165,123.415054,87,75,0
123.42845,123.62934,80,74,0
123.64273,123.84363,83,73,0
123.85702,124.057915,77,72,0
124.071304,124.272194,85,71,0
124.28559,124.48648,78,71,0
124.49988,124.70077,81,70,0
124.714165,124.915054,75,69,0
124.928444,125.12934,83,68,0
125.14273,125.93291,76,67,0
125.99987,126.20077,81,67,0
126.21416,126.415054,80,67,0
126.428444,126.62934,78,67,0
126.64273,126.84362,76,67,0
126.85702,127.05791,78,67,0
127.071304,127.272194,76,67,0
127.28558,127.48648,75,67,0
127.49987,127.70077,76,67,0
127.71416,128.11148,75,67,0
128.5713,129.36148,78,67,0
129.42844,129.62933,83,67,0
129.64273,129.84361,81,67,0
129.85701,130.0579,80,67,0
130.0713,130.27219,78,67,0
130.28558,130.48648,83,67,0
130.49986,130.70076,80,67,0
130.71416,130.91505,81,67,0
130.92844,131.12933,78,67,0
131.14273,131.54005,76,67,0
131.99986,132.64273,83,83,0
132.64273,132.84361,82,67,0
132.85701,133.0579,81,67,0
133.07129,133.27219,78,67,0
133.28558,133.48648,75,67,0
133.49986,133.70076,71,67,0
133.71416,134.35701,83,83,0
134.35701,134.5579,82,67,0
134.57129,134.77219,81,67,0
134.78558,134.98647,78,67,0
134.99986,135.20076,75,67,0
135.21416,135.41504,71,67,0
135.42844,135.62933,83,67,0
135.64272,135.84361,80,67,0
135.85701,136.0579,85,67,0
136.07129,136.27219,83,67,0
136.28558,136.48647,81,67,0
136.49986,136.70076,80,67,0
136.71414,136.91504,78,67,0
136.92844,137.12933,76,67,0
137.14272,137.35701,76,67,0
137.35701,137.55789,75,67,0
137.57129,137.78558,80,67,0
137.78558,137.98647,78,67,0
137.99986,138.05344,76,67,0
138.05344,138.10701,78,67,0
138.10701,138.21414,76,67,0
138.21414,138.41504,75,67,0
138.42844,138.48201,73,67,0
138.48201,138.53557,75,67,0
138.53557,138.64272,73,67,0
138.64272,138.84361,71,67,0
138.85701,139.05789,68,67,0
139.07129,139.27219,71,67,0
139.28557,139.48647,68,67,0
139.49986,139.70076,71,67,0
139.71414,139.91504,68,67,0
139.92844,140.12932,71,67,0
140.14272,140.34361,68,67,0
140.35701,140.55789,71,67,0
140.57129,140.77219,69,67,0
140.78557,140.98647,71,67,0
140.99986,141.20074,69,67,0
141.21414,141.41504,71,67,0
141.42844,141.62932,69,67,0
141.64272,141.84361,71,67,0
141.857,142.05789,69,67,0
142.07129,142.27219,71,67,0
142.28557,142.48647,69,67,0
142.49986,142.70074,71,67,0
142.71414,142.91504,69,67,0
142.92842,143.12932,71,67,0
143.14272,143.34361,69,67,0
143.357,143.55789,71,67,0
143.57129,143.77217,69,67,0
143.78557,143.98647,71,67,0
143.99986,144.20074,68,67,0
144.21414,144.41504,71,67,0
144.42842,144.62932,68,67,0
144.64272,144.84361,71,67,0
144.857,145.05789,68,67,0
145.07129,145.27217,71,67,0
145.28557,145.48647,68,67,0
145.49985,145.70074,71,67,0
145.71414,145.91504,68,67,0
145.92842,146.12932,71,67,0
146.14272,146.3436,68,67,0
146.357,146.55789,71,67,0
146.57129,146.77217,66,67,0
146.78557,146.98647,71,67,0
146.99985,147.20074,69,67,0
147.21414,147.41502,71,67,0
147.42842,147.62932,68,67,0
147.64272,147.8436,71,67,0
147.857,148.05789,68,67,0
148.07127,148.27217,71,67,0
148.28557,148.48647,66,67,0
148.49985,148.70074,71,67,0
148.71414,148.91502,69,67,0
148.92842,149.12932,71,67,0
149.14272,149.357,69,67,0
149.357,149.55789,68,67,0
149.57127,149.66057,66,67,0
149.78557,149.87485,64,67,0
149.99985,150.21414,71,67,0
150.21414,150.41502,69,67,0
150.42842,150.5177,68,67,0
150.6427,150.732,66,67,0
150.857,150.94627,68,67,0
151.07127,151.13824,69,67,0
151.1427,151.20967,68,67,0
151.21414,151.2811,66,67,0
151.28557,151.48645,68,67,0
151.49985,151.58913,75,71,0
151.71413,151.80342,76,75,0
151.92842,152.0177,78,79,0
152.1427,152.232,80,83,0
152.357,152.44627,81,87,0
152.57127,152.78557,81,91,0
152.78557,152.98645,80,96,0
152.99985,153.08913,78,96,0
153.21413,153.30342,76,96,0
153.42842,153.6427,71,96,0
153.6427,153.8436,69,96,0
153.857,153.94627,68,96,0
154.07127,154.16055,66,96,0
154.28555,154.49985,81,96,0
154.49985,154.70074,80,96,0
154.71413,154.80342,78,96,0
154.92842,155.0177,76,96,0
155.1427,155.357,76,96,0
155.357,155.55788,75,96,0
155.57127,155.66055,73,96,0
155.78555,155.87485,72,96,0
155.99985,156.21413,74,96,0
156.21413,156.41502,73,96,0
156.42842,156.5177,71,96,0
156.6427,156.73198,69,96,0
156.85698,157.07127,64,96,0
157.07127,157.27217,62,96,0
157.28555,157.37485,61,96,0
157.49985,157.58913,59,96,0
157.71413,158.11145,61,96,0
159.6427,159.70966,78,67,0
159.71413,159.7811,76,67,0
159.78555,159.85252,75,67,0
159.85698,160.05788,76,67,0
160.07127,160.16055,78,67,0
160.28555,160.37483,80,67,0
160.49983,160.58913,81,67,0
160.71413,160.8034,83,67,0
160.9284,161.0177,85,67,0
161.1427,161.54002,81,67,0
163.07126,163.13823,78,67,0
163.1427,163.20966,76,67,0
163.21413,163.28108,75,67,0
163.28555,163.48645,76,67,0
163.49983,163.58913,78,67,0
163.71413,163.8034,80,67,0
163.9284,164.0177,81,67,0
164.1427,164.23198,83,67,0
164.35698,164.44626,85,67,0
164.57126,164.66055,81,67,0
164.78555,164.88823,81,67,0
164.89268,164.99538,80,67,0
164.99983,165.10251,83,67,0
165.10698,165.20966,81,67,0
165.21413,165.3168,80,67,0
165.32126,165.42393,78,67,0
165.4284,165.6293,76,67,0
165.64268,165.74538,81,67,0
165.74983,165.85251,80,67,0
165.85698,165.95966,83,67,0
165.96413,166.0668,81,67,0
166.07126,166.17393,80,67,0
166.1784,166.28108,78,67,0
166.28555,166.68288,76,67,0
167.35698,167.44626,76,67,0
167.57126,167.66055,73,67,0
167.78555,167.87483,71,67,0
167.99983,168.85698,70,67,0
168.85698,169.05786,71,67,0
169.07126,169.16054,78,67,0
169.28554,169.37483,74,67,0
169.49983,169.58911,71,67,0
169.71411,170.57126,68,67,0
170.57126,170.77216,69,67,0
170.78554,170.98643,81,67,0
170.99983,171.20071,80,67,0
171.21411,171.41501,78,67,0
171.4284,171.62929,76,67,0
171.64268,171.84358,73,67,0
171.85696,172.05786,71,67,0
172.07126,172.27216,78,67,0
172.28554,172.48643,69,67,0
172.71411,172.91501,71,67,0
173.14268,173.99983,74,67,0
173.14268,173.99983,71,67,0
173.14268,173.99983,68,67,0
173.99983,174.39714,73,67,0
173.99983,174.39714,69,67,0
175.07126,175.27214,67,67,0
175.07126,175.27214,64,67,0
175.28554,175.48643,66,67,0
175.28554,175.48643,62,67,0
175.49982,175.70071,64,67,0
175.49982,175.70071,61,67,0
175.71411,176.11143,62,67,0
175.71411,176.11143,59,67,0
176.78554,176.98643,66,67,0
176.78554,176.98643,62,67,0
176.99982,177.20071,64,67,0
176.99982,177.20071,61,67,0
177.21411,177.41501,62,67,0
177.21411,177.41501,59,67,0
177.42839,177.82571,61,67,0
177.42839,177.82571,57,67,0
177.85696,178.28554,66,67,0
177.85696,178.68286,69,67,0
178.28554,178.68286,64,67,0
177.85696,178.68286,57,67,0
178.71411,179.50429,69,67,0
178.71411,179.50429,57,67,0
179.57124,179.96857,66,67,0
179.57124,179.96857,62,67,0
180.21411,180.415,64,67,0
180.42839,180.62929,61,67,0
180.42839,180.62929,57,67,0
180.64267,180.84357,64,67,0
180.85696,181.05786,61,67,0
180.85696,181.05786,57,67,0
181.07124,181.27214,64,67,0
181.28554,181.48642,62,67,0
181.28554,181.48642,56,67,0
181.49982,181.70071,64,67,0
181.71411,182.11142,61,67,0
185.35696,185.55785,69,67,0
185.57124,185.77214,76,67,0
185.78552,185.98642,73,67,0
185.99982,186.20071,81,67,0
186.2141,186.415,76,67,0
186.42839,186.62927,85,67,0
186.64267,186.84357,83,67,0
186.85695,187.05785,82,67,0
187.07124,187.27214,76,67,0
187.28552,187.48642,79,67,0
187.49982,187.7007,73,67,0
187.7141,187.915,76,67,0
187.92839,188.12927,70,67,0
188.14267,188.34357,73,67,0
188.35695,188.55785,64,67,0
188.57124,188.96857,62,67,0
192.2141,192.415,71,67,0
192.42838,192.62927,78,67,0
192.64267,192.84355,74,67,0
192.85695,193.05785,83,67,0
193.07123,193.27213,78,67,0
193.28552,193.48642,86,67,0
193.4998,193.7007,85,67,0
193.7141,193.91498,84,67,0
193.92838,194.12927,78,67,0
194.14267,194.34355,81,67,0
194.35695,194.55785,75,67,0
194.57123,194.77213,78,67,0
194.78552,194.98642,72,67,0
194.9998,195.2007,75,67,0
195.2141,195.41498,66,67,0
195.42838,195.8257,64,67,0
199.07123,199.1382,75,96,0
199.14265,199.20963,73,96,0
199.21408,199.28105,72,96,0
199.28552,199.4864,73,96,0
199.4998,199.58908,75,96,0
199.71408,199.80338,76,96,0
199.92838,200.01765,78,96,0
200.14265,200.23195,80,96,0
200.35695,200.44623,81,96,0
200.57123,202.15158,79,96,0
202.2855,202.38818,79,96,0
202.39265,202.49533,80,96,0
202.4998,202.60248,81,96,0
202.60693,202.70963,80,96,0
202.71408,202.81676,78,96,0
202.82123,202.9239,76,96,0
202.92838,203.03105,75,96,0
203.0355,203.13818,73,96,0
203.14265,203.24533,81,96,0
203.2498,203.35248,80,96,0
203.35693,203.45963,81,96,0
203.46408,203.56676,80,96,0
203.57123,203.6739,78,96,0
203.67838,203.78105,76,96,0
203.7855,203.88818,75,96,0
203.89265,203.99533,73,96,0
203.9998,204.20068,80,96,0
206.14265,206.53998,68,67,0
206.99979,207.39711,69,67,0
207.85693,208.25426,68,67,0
208.71408,209.1114,68,67,0
209.14265,210.723,68,67,0
210.85693,211.05783,63,67,0
211.07121,211.27211,68,67,0
211.2855,211.48639,66,67,0
211.49979,211.70068,68,67,0
211.71408,211.91496,64,67,0
211.92836,212.12926,68,67,0
212.14264,212.34354,63,67,0
212.35693,212.55782,68,67,0
212.99979,213.39711,68,67,0
213.85693,214.25426,68,67,0
214.49979,214.70068,57,67,0
214.71407,214.91496,66,67,0
214.71407,214.91496,62,67,0
214.92836,215.12924,57,67,0
215.14264,215.34354,66,67,0
215.14264,215.34354,62,67,0
215.35693,215.55782,57,67,0
215.57121,215.77211,66,67,0
215.57121,215.77211,62,67,0
215.78549,215.98639,57,67,0
216.21407,216.41496,56,67,0
216.42836,216.62924,64,67,0
216.42836,216.62924,61,67,0
216.64264,216.84354,56,67,0
217.07121,217.27211,54,67,0
217.28549,217.48639,60,67,0
217.28549,217.48639,56,67,0
217.49979,217.70067,54,67,0
217.71407,218.11139,61,67,0
217.71407,218.11139,52,67,0
218.57121,218.74532,80,67,0
218.99979,219.17389,80,67,0
219.42834,219.62924,80,67,0
219.64264,219.84354,85,67,0
219.85692,220.05782,84,67,0
220.07121,220.2721,83,67,0
220.28549,220.48639,82,67,0
220.49979,220.70067,81,67,0
220.71407,220.91496,80,67,0
220.92834,221.12924,79,67,0
221.14264,221.34352,80,67,0
221.35692,221.55782,79,67,0
221.57121,221.7721,78,67,0
221.78549,221.98639,77,67,0
221.99977,222.20067,76,67,0
222.21407,222.41496,75,67,0
222.42834,222.62924,74,67,0
222.64264,222.84352,73,67,0
222.85692,223.05782,72,67,0
223.07121,223.17389,80,67,0
223.17834,223.28102,81,67,0
223.28549,223.48639,80,67,0
223.49977,223.58907,72,67,0
223.71407,223.80334,73,67,0
223.92834,224.03102,80,67,0
224.03549,224.13817,81,67,0
224.14264,224.34352,80,67,0
224.35692,224.4462,73,67,0
224.5712,224.96852,75,67,0
225.42834,225.60245,80,67,0
225.85692,226.03102,80,67,0
226.28549,226.48637,80,67,0
226.49977,226.8971,88,67,0
226.92834,227.32567,85,67,0
227.35692,227.75424,80,67,0
227.78549,227.98637,76,67,0
227.99977,228.10245,74,67,0
228.10692,228.14262,76,67,0
228.14262,228.17834,74,67,0
228.17834,228.21405,73,67,0
228.21405,228.31674,74,67,0
228.3212,228.42387,76,67,0
228.42834,228.53102,78,67,0
228.53549,228.5712,80,67,0
228.5712,228.60692,78,67,0
228.60692,228.64262,76,67,0
228.64262,228.7453,78,67,0
228.74977,228.85245,80,67,0
228.85692,229.25424,81,67,0
229.49977,229.70067,81,67,0
229.71405,229.91495,81,67,0
229.92834,230.32567,73,67,0
230.35692,230.41048,75,67,0
230.41048,230.46405,73,67,0
230.46405,230.51762,72,67,0
230.51762,230.5712,73,67,0
230.5712,230.7721,76,67,0
230.78548,230.98637,75,67,0
230.99977,231.20067,73,67,0
231.21405,231.41495,75,67,0
231.42834,231.82567,73,67,0
233.3569,233.5578,60,67,0
233.5712,233.7721,68,67,0
233.5712,233.7721,63,67,0
233.78548,233.98637,60,67,0
234.21405,234.41495,61,67,0
234.42833,234.62923,68,67,0
234.42833,234.62923,64,67,0
234.64262,234.84352,61,67,0
235.0712,235.27208,63,67,0
235.28548,235.48637,68,67,0
235.28548,235.48637,66,67,0
235.49977,235.70065,63,67,0
235.71405,235.91495,68,67,0
235.71405,235.91495,66,67,0
235.92833,236.12923,63,67,0
236.14262,236.34352,68,67,0
236.14262,236.34352,66,67,0
236.3569,236.5578,63,67,0
236.78548,236.98637,61,67,0
236.99976,237.20065,68,67,0
236.99976,237.20065,64,67,0
237.21405,237.41495,61,67,0
237.64262,237.8435,61,67,0
237.8569,238.0578,68,67,0
237.8569,238.0578,64,67,0
238.0712,238.27208,61,67,0
238.28548,238.48637,68,67,0
238.28548,238.48637,60,67,0
238.49976,238.70065,63,67,0
238.71405,238.91493,66,67,0
238.71405,238.91493,61,67,0
238.92833,239.12923,57,67,0
239.14262,239.3435,64,67,0
239.14262,239.3435,61,67,0
239.3569,239.5578,56,67,0
239.57118,239.77208,63,67,0
239.57118,239.77208,60,67,0
239.78548,239.98637,56,67,0
240.21405,240.41493,56,67,0
240.42833,240.62923,64,67,0
240.42833,240.62923,61,67,0
240.64262,240.8435,56,67,0
241.07118,241.27208,56,67,0
241.28548,241.48636,64,67,0
241.28548,241.48636,61,67,0
241.49976,241.70065,56,67,0
241.92833,242.12923,57,67,0
242.14261,242.3435,66,67,0
242.14261,242.3435,62,67,0
242.3569,242.5578,57,67,0
242.57118,242.77208,66,67,0
242.57118,242.77208,62,67,0
242.78548,242.98636,57,67,0
242.99976,243.20065,66,67,0
242.99976,243.20065,62,67,0
243.21404,243.41493,57,67,0
243.64261,243.8435,56,67,0
243.8569,244.05779,64,67,0
243.8569,244.05779,61,67,0
244.07118,244.27208,56,67,0
244.49976,244.70065,54,67,0
244.71404,244.91493,60,67,0
244.71404,244.91493,56,67,0
244.92833,245.12923,54,67,0
245.14261,245.53993,61,67,0
245.14261,245.53993,52,67,0
245.99976,246.17386,75,67,0
246.42833,246.60243,75,67,0
246.8569,247.05779,75,67,0
247.07118,247.27208,80,67,0
247.28546,247.48636,79,67,0
247.49976,247.70064,78,67,0
247.71404,247.91493,77,67,0
247.92833,248.12921,76,67,0
248.14261,248.3435,75,67,0
248.35689,248.55779,73,67,0
248.57118,248.77208,72,67,0
248.78546,248.98636,68,67,0
248.99976,249.20064,67,67,0
249.21404,249.41493,68,67,0
249.42833,249.62921,69,67,0
249.64261,249.8435,70,67,0
249.85689,250.05779,71,67,0
250.07118,250.27206,72,67,0
250.28546,250.48636,73,67,0
250.49976,250.56671,75,67,0
250.57118,250.63814,73,67,0
250.64261,250.70956,72,67,0
250.71404,250.91493,73,67,0
250.92831,251.01761,75,67,0
251.14261,251.23189,76,67,0
251.35689,251.44618,77,67,0
251.57118,251.66046,78,67,0
251.78546,251.87474,79,67,0
251.99974,252.39706,80,67,0
252.85689,253.25421,80,67,0
253.28546,253.68279,80,74,0
253.71404,254.50421,85,81,0
254.57117,255.36136,61,96,0
254.57117,255.36136,56,96,0
255.42831,256.2185,62,96,0
255.42831,256.2185,57,96,0
257.1426,257.93277,74,96,0
257.99976,258.78992,71,96,0
258.85687,259.64706,68,96,0
259.9283,260.0176,74,67,0
260.1426,260.23187,73,67,0
260.35687,260.44617,72,67,0
260.57117,260.66046,71,67,0
260.78546,260.87473,83,67,0
260.99973,261.08902,82,67,0
261.21402,261.3033,81,67,0
261.4283,261.5176,80,67,0
261.6426,261.73187,79,67,0
261.85687,261.94617,78,67,0
262.07117,262.16046,77,67,0
262.28546,262.37473,76,67,0
262.49973,262.58902,75,67,0
262.71402,263.11136,74,67,0
263.35687,263.55777,74,67,0
263.57117,263.77206,86,67,0
263.78546,263.98633,83,67,0
263.99973,264.20062,81,67,0
264.21402,264.41492,80,67,0
264.4283,264.6292,83,67,0
264.64258,264.84348,77,67,0
264.85687,265.05777,83,67,0
265.07117,265.27206,76,67,0
265.28546,265.48633,83,67,0
265.49973,265.70062,74,67,0
265.71402,265.76758,74,67,0
265.76758,265.82117,76,67,0
265.82117,265.9283,74,67,0
265.9283,266.1292,73,67,0
266.14258,266.53992,73,67,0
266.78546,266.87473,73,67,0
266.99973,267.08902,73,67,0
267.21402,267.3033,73,67,0
267.4283,267.51758,73,67,0
267.64258,267.84348,81,67,0
267.85687,268.05777,80,67,0
268.07117,268.27206,78,67,0
268.28543,268.37473,77,67,0
268.49973,268.70062,83,67,0
268.71402,268.91492,80,67,0
268.9283,269.12918,77,67,0
269.14258,269.57117,78,67,0
269.57117,269.96848,73,67,0
270.21402,270.3033,73,67,0
270.4283,270.51758,73,67,0
270.64258,270.73187,73,67,0
270.85687,270.94617,73,67,0
271.07117,271.27206,81,67,0
271.28543,271.48633,80,67,0
271.49973,271.70062,78,67,0
271.71402,271.8033,77,67,0
271.9283,272.12918,83,67,0
272.14258,272.34348,80,67,0
272.35687,272.55777,77,67,0
272.57117,272.99973,78,67,0
272.99973,273.39703,73,67,0
273.64258,273.73187,73,67,0
273.85687,273.94617,73,67,0
274.07117,274.16043,73,67,0
274.28543,274.37473,73,67,0
274.49973,274.70062,81,67,0
274.71402,274.91492,83,67,0
274.92828,275.12918,85,67,0
275.14258,275.34348,83,67,0
275.35687,275.55777,81,67,0
275.57117,275.77203,80,67,0
275.78543,275.98633,78,67,0
275.99973,276.95953,76,67,0
276.96402,277.06668,75,67,0
277.07114,277.17383,78,67,0
277.17828,277.28098,76,67,0
277.28543,277.38812,80,67,0
277.39258,277.49527,78,67,0
277.49973,277.6024,81,67,0
277.60687,277.70953,80,67,0
277.71402,277.9149,83,67,0
277.92828,278.12918,81,67,0
278.14258,278.34348,85,67,0
278.35687,278.55777,81,67,0
278.57114,278.77203,80,67,0
278.78543,278.98633,78,67,0
278.99973,279.20062,76,67,0
279.21402,279.4149,75,67,0
279.42828,280.38812,78,127,0
280.39258,280.49527,76,96,0
280.49973,280.6024,80,96,0
280.60687,280.70953,78,96,0
280.71402,280.81668,76,96,0
280.82114,280.92383,75,96,0
280.92828,281.03098,73,96,0
281.03543,281.13812,71,96,0
281.14258,281.24524,70,96,0
281.24973,281.3524,68,96,0
281.35687,281.45953,66,96,0
281.464,281.56668,68,96,0
281.57114,281.67383,70,96,0
281.67828,281.78098,71,96,0
281.78543,281.88812,73,96,0
281.89258,281.99524,75,96,0
281.99973,282.1024,76,96,0
282.10687,282.20953,75,96,0
282.214,282.31668,73,96,0
282.32114,282.42383,75,96,0
282.42828,282.53098,76,96,0
282.53543,282.63812,78,96,0
282.64258,282.74524,80,96,0
282.74973,282.8524,82,96,0
282.85687,282.95953,83,96,0
282.964,283.06668,82,96,0
283.07114,283.17383,80,96,0
283.17828,283.28098,78,96,0
283.28543,283.38812,76,96,0
283.39258,283.49524,75,96,0
283.49973,283.6024,73,96,0
283.60687,283.70953,71,96,0
283.714,283.81668,70,96,0
283.82114,283.92383,71,96,0
283.92828,284.03098,73,96,0
284.03543,284.13812,75,96,0
284.14258,284.24524,76,96,0
284.24973,284.3524,78,96,0
284.35687,284.45953,80,96,0
284.464,284.56668,82,96,0
284.57114,284.67383,83,96,0
284.67828,284.78098,82,96,0
284.78543,284.88812,80,96,0
284.89258,284.99524,78,96,0
284.99973,285.1024,76,96,0
285.10687,285.20953,75,96,0
285.214,285.31668,73,96,0
285.32114,285.42383,71,96,0
285.42828,285.53098,70,96,0
285.53543,285.6381,71,96,0
285.64258,285.74524,73,96,0
285.74973,285.8524,75,96,0
285.85684,285.95953,76,96,0
285.964,286.06668,78,96,0
286.07114,286.17383,80,96,0
286.17828,286.28098,82,96,0
286.28543,286.68274,83,96,0
288.42828,288.8256,66,67,0
288.42828,288.8256,63,67,0
288.42828,288.8256,59,67,0
288.85684,289.25418,66,67,0
288.85684,289.25418,63,67,0
288.85684,289.25418,59,67,0
289.28543,289.68274,66,67,0
289.28543,289.68274,63,67,0
289.28543,289.68274,59,67,0
290.14258,290.5399,68,67,0
290.14258,290.5399,64,67,0
290.14258,290.5399,59,67,0
290.57114,290.96844,68,67,0
290.57114,290.96844,64,67,0
290.57114,290.96844,59,67,0
290.9997,291.39703,68,67,0
290.9997,291.39703,64,67,0
290.9997,291.39703,59,67,0
291.85684,292.25418,66,67,0
291.85684,292.25418,63,67,0
291.85684,292.25418,59,67,0
292.28543,292.68274,66,67,0
292.28543,292.68274,63,67,0
292.28543,292.68274,59,67,0
292.714,293.11133,66,67,0
292.714,293.11133,63,67,0
292.714,293.11133,59,67,0
293.57114,293.96844,68,67,0
293.57114,293.96844,64,67,0
293.57114,293.96844,59,67,0
293.9997,294.39703,68,67,0
293.9997,294.39703,64,67,0
293.9997,294.39703,59,67,0
294.42828,294.8256,68,67,0
294.42828,294.8256,64,67,0
294.42828,294.8256,59,67,0
295.28543,295.68274,69,67,0
295.28543,295.68274,64,67,0
295.28543,295.68274,61,67,0
295.714,296.1113,69,67,0
295.714,296.1113,64,67,0
295.714,296.1113,61,67,0
296.14255,296.5399,69,67,0
296.14255,296.5399,64,67,0
296.14255,296.5399,61,67,0
296.9997,297.39703,71,67,0
296.9997,297.39703,66,67,0
296.9997,297.39703,63,67,0
297.42828,297.8256,71,67,0
297.42828,297.8256,66,67,0
297.42828,297.8256,63,67,0
297.85684,298.25418,71,67,0
297.85684,298.25418,66,67,0
297.85684,298.25418,63,67,0
298.28543,298.68274,71,67,0
298.28543,298.68274,68,67,0
298.28543,298.68274,64,67,0
299.57114,299.9997,69,67,0
299.57114,299.9997,66,67,0
299.9997,300.39703,68,67,0
299.9997,300.39703,64,67,0
299.57114,300.39703,59,67,0
301.2854,301.714,69,67,0
301.2854,301.714,66,67,0
301.714,302.1113,68,67,0
301.714,302.1113,64,67,0
301.2854,302.1113,59,67,0
302.14255,302.5399,68,67,0
302.14255,302.5399,64,67,0
302.14255,302.5399,59,67,0
302.9997,303.397,66,67,0
302.9997,303.397,64,67,0
302.9997,303.397,61,67,0
303.64255,303.84344,64,67,0
303.64255,303.84344,59,67,0
303.64255,303.84344,56,67,0
303.85684,304.05774,64,67,0
303.85684,304.05774,56,67,0
304.07114,304.272,64,67,0
304.07114,304.272,56,67,0
304.4997,304.7006,63,67,0
304.4997,304.7006,59,67,0
304.4997,304.7006,57,67,0
304.714,304.9149,63,67,0
304.714,304.9149,59,67,0
304.714,304.9149,57,67,0
304.92825,305.12915,63,67,0
304.92825,305.12915,59,67,0
304.92825,305.12915,57,67,0
305.14255,305.5399,64,67,0
305.14255,305.5399,59,67,0
305.14255,305.5399,56,67,0
306.85684,306.9595,81,67,0
306.964,307.06665,85,67,0
307.07114,307.1738,81,67,0
307.17825,307.28094,80,67,0
307.2854,307.3881,78,67,0
307.39255,307.49524,81,67,0
307.4997,307.60236,78,67,0
307.60684,307.7095,76,67,0
307.714,307.81665,75,67,0
307.8211,307.9238,78,67,0
307.92825,308.03094,73,67,0
308.0354,308.1381,78,67,0
308.14255,308.24524,71,67,0
308.2497,308.35236,78,67,0
308.35684,308.4595,69,67,0
308.464,308.56665,78,67,0
308.5711,308.6738,68,67,0
308.67825,308.78094,71,67,0
308.7854,308.8881,69,67,0
308.89255,308.99524,68,67,0
308.9997,309.10236,69,67,0
309.10684,309.2095,71,67,0
309.214,309.31665,73,67,0
309.3211,309.4238,75,67,0
309.42825,309.53094,76,67,0
309.5354,309.6381,78,67,0
309.64255,309.74524,80,67,0
309.7497,309.85236,81,67,0
309.85684,309.9595,82,67,0
309.964,310.06665,83,67,0
310.0711,310.1738,80,67,0
310.17825,310.28094,76,67,0
310.2854,310.3881,81,67,0
310.39255,310.49524,85,67,0
310.4997,310.60236,81,67,0
310.60684,310.7095,80,67,0
310.714,310.81665,78,67,0
310.8211,310.9238,81,67,0
310.92825,311.03094,78,67,0
311.0354,311.1381,76,67,0
311.14255,311.24524,75,67,0
311.2497,311.35236,78,67,0
311.35684,311.4595,73,67,0
311.464,311.56665,78,67,0
311.5711,311.6738,71,67,0
311.67825,311.78094,78,67,0
311.7854,311.8881,69,67,0
311.89255,311.9952,78,67,0
311.9997,312.10236,68,67,0
312.10684,312.2095,71,67,0
312.21396,312.31665,69,67,0
312.3211,312.4238,68,67,0
312.42825,312.53094,69,67,0
312.5354,312.6381,71,67,0
312.64255,312.7452,73,67,0
312.7497,312.85236,75,67,0
312.85684,312.9595,76,67,0
312.96396,313.06665,78,67,0
313.0711,313.1738,80,67,0
313.17825,313.28094,81,67,0
313.2854,313.3881,82,67,0
313.39255,313.4952,83,67,0
313.4997,313.60236,80,67,0
313.60684,313.7095,76,67,0
313.71396,314.1113,73,67,0
314.2497,314.35236,73,67,0
314.35684,314.4595,76,67,0
314.46396,314.56665,81,67,0
314.5711,314.6738,85,67,0
314.67825,314.78094,83,67,0
314.7854,314.8881,81,67,0
314.89255,314.9952,80,67,0
314.9997,315.10236,78,67,0
315.10684,315.2095,76,67,0
315.21396,315.31665,74,67,0
315.3211,315.4238,73,67,0
315.42825,315.8256,75,67,0
315.96396,316.06665,75,67,0
316.0711,316.1738,78,67,0
316.17825,316.28094,83,67,0
316.2854,316.38806,87,67,0
316.39255,316.4952,85,67,0
316.4997,316.60236,83,67,0
316.6068,316.7095,81,67,0
316.71396,316.81665,80,67,0
316.8211,316.9238,78,67,0
316.92825,317.03094,76,67,0
317.0354,317.13806,75,67,0
317.2497,317.35236,76,67,0
317.3568,317.4595,88,67,0
317.46396,317.56665,76,67,0
317.5711,317.6738,87,67,0
317.67825,317.78094,76,67,0
317.7854,317.88806,86,67,0
317.89255,317.9952,76,67,0
317.9997,318.10236,85,67,0
318.1068,318.2095,76,67,0
318.21396,318.31665,84,67,0
318.3211,318.4238,76,67,0
318.42825,318.53094,83,67,0
318.5354,318.63806,76,67,0
318.64255,318.7452,84,67,0
318.7497,318.85236,76,67,0
318.8568,318.9595,83,67,0
318.96396,319.06665,76,67,0
319.0711,319.1738,88,67,0
319.17825,319.28094,76,67,0
319.2854,319.38806,87,67,0
319.39255,319.4952,76,67,0
319.4997,319.60236,86,67,0
319.6068,319.7095,76,67,0
319.71396,319.81665,85,67,0
319.8211,319.9238,76,67,0
319.92825,320.03094,84,67,0
320.0354,320.13806,76,67,0
320.14255,320.2452,83,67,0
320.2497,320.35236,76,67,0
320.3568,320.4595,84,67,0
320.46396,320.56665,76,67,0
320.5711,320.9684,83,67,0
321.1068,321.2095,80,67,0
321.21396,321.31665,83,67,0
321.3211,321.4238,88,67,0
321.42825,321.82556,78,67,0
321.96396,322.06665,80,67,0
322.0711,322.1738,81,67,0
322.17825,322.2809,85,67,0
322.2854,322.4863,71,67,0
322.49966,322.60236,73,70,0
322.6068,322.7095,75,71,0
322.71396,322.81665,76,73,0
322.8211,322.9238,78,74,0
322.92825,323.0309,80,76,0
323.0354,323.13806,81,77,0
323.14255,323.2452,83,79,0
323.24966,323.35236,85,81,0
323.3568,323.4595,87,82,0
323.46396,323.56665,88,84,0
323.5711,323.6738,87,85,0
323.67825,323.7809,88,87,0
323.7854,323.88806,87,88,0
323.89255,323.9952,88,90,0
323.99966,324.06665,80,92,0
324.0711,324.13806,78,92,0
324.14255,324.2095,80,93,0
324.21396,324.2809,78,94,0
324.2854,324.35236,80,95,0
324.3568,324.4238,78,96,0
324.42825,324.4952,80,94,0
324.49966,324.56665,78,93,0
324.5711,324.63806,80,92,0
324.64255,324.7095,78,91,0
324.71396,324.7809,80,90,0
324.7854,324.85236,78,89,0
324.8568,324.92377,80,88,0
324.92825,324.9952,78,87,0
324.99966,325.06665,80,86,0
325.0711,325.13806,78,85,0
325.14252,325.2095,80,84,0
325.21396,325.2809,78,83,0
325.2854,325.35236,80,82,0
325.3568,325.42377,78,80,0
325.42825,325.4952,80,79,0
325.49966,325.56665,78,78,0
325.5711,325.63806,76,77,0
325.64252,325.7095,78,76,0
325.71396,326.50415,76,67,0
326.5711,326.772,81,67,0
326.7854,326.98627,80,67,0
326.99966,327.20056,78,67,0
327.21396,327.41486,76,67,0
327.42825,327.62915,78,67,0
327.64252,327.8434,76,67,0
327.8568,328.0577,75,67,0
328.0711,328.272,76,67,0
328.2854,328.6827,75,67,0
329.14252,329.9327,80,67,0
329.99966,330.20056,85,70,0
330.21396,330.41486,83,71,0
330.42825,330.62912,82,72,0
330.64252,330.8434,80,73,0
330.8568,331.0577,82,74,0
331.0711,331.272,80,74,0
331.28537,331.48627,79,75,0
331.49966,331.70056,80,76,0
331.71396,332.11127,79,77,0
332.5711,333.36127,83,81,0
333.42825,333.62912,88,84,0
333.64252,333.8434,87,85,0
333.8568,334.0577,85,86,0
334.0711,334.27197,83,87,0
334.28537,334.48627,85,88,0
334.49966,334.70056,83,88,0
334.71396,334.91486,82,89,0
334.92822,335.12912,83,90,0
335.14252,335.53986,82,91,0
335.99966,336.20056,83,95,0
336.21396,336.41486,87,96,0
336.42822,336.62912,85,96,0
336.64252,336.8434,83,96,0
336.8568,337.0577,82,96,0
337.0711,337.27197,88,96,0
337.28537,337.48627,85,96,0
337.49966,337.70056,82,96,0
337.71396,337.84787,83,96,0
337.8568,337.99072,87,96,0
337.99966,338.13358,85,96,0
338.14252,338.27646,87,96,0
338.28537,338.4193,85,96,0
338.42822,338.56216,83,96,0
338.57108,338.70502,82,96,0
338.71396,338.84787,88,96,0
338.8568,338.99072,87,96,0
338.99966,339.13358,88,96,0
339.14252,339.27646,85,96,0
339.28537,339.4193,82,96,0
339.42822,339.62912,83,96,0
339.64252,339.8434,87,96,0
339.8568,340.0577,80,96,0
340.07108,340.27197,88,96,0
340.28537,340.48627,81,96,0
340.49966,340.70056,85,96,0
340.71396,340.91483,79,96,0
340.92822,341.12912,87,96,0
341.14252,341.3434,80,96,0
341.3568,341.5577,83,96,0
341.57108,341.77197,77,96,0
341.78537,341.98627,85,96,0
341.99966,342.20056,78,96,0
342.21396,342.41483,81,96,0
342.42822,342.62912,75,96,0
342.64252,342.8434,83,96,0
342.8568,343.64697,76,67,0
343.71393,343.91483,81,67,0
343.92822,344.12912,80,67,0
344.14252,344.3434,78,67,0
344.3568,344.55768,76,67,0
344.57108,344.77197,78,67,0
344.78537,344.98627,76,67,0
344.99966,345.20056,75,67,0
345.21393,345.41483,76,67,0
345.42822,345.82556,75,67,0
346.28537,347.07553,78,67,0
347.14252,347.3434,83,67,0
347.35678,347.55768,81,67,0
347.57108,347.77197,80,67,0
347.78537,347.98627,78,67,0
347.99966,348.20053,83,67,0
348.21393,348.41483,80,67,0
348.42822,348.62912,81,67,0
348.64252,348.8434,78,67,0
348.85678,349.25412,76,67,0
349.71393,350.35678,83,83,0
350.35678,350.55768,82,67,0
350.57108,350.77197,81,67,0
350.78537,350.98627,78,67,0
350.99963,351.20053,75,67,0
351.21393,351.41483,71,67,0
351.42822,352.07108,83,83,0
352.07108,352.27197,82,67,0
352.28537,352.48627,81,67,0
352.49963,352.70053,78,67,0
352.71393,352.91483,75,67,0
352.92822,353.12912,71,67,0
353.14252,353.34338,83,67,0
353.35678,353.55768,80,67,0
353.57108,353.77197,85,67,0
353.78537,353.98627,83,67,0
353.99963,354.20053,81,67,0
354.21393,354.41483,80,67,0
354.42822,354.62912,78,67,0
354.64252,354.84338,76,67,0
354.85678,355.07108,76,67,0
355.07108,355.27197,75,67,0
355.28537,355.49963,80,67,0
355.49963,355.70053,78,67,0
355.71393,355.7675,76,67,0
355.7675,355.82108,78,67,0
355.82108,355.92822,76,67,0
355.92822,356.12912,75,67,0
356.1425,356.19608,73,67,0
356.19608,356.24963,75,67,0
356.24963,356.35678,73,67,0
356.35678,356.55768,71,67,0
356.57108,356.77197,68,67,0
356.78537,356.98624,71,67,0
356.99963,357.20053,68,67,0
357.21393,357.41483,71,67,0
357.42822,357.62912,68,67,0
357.6425,357.84338,71,67,0
357.85678,358.05768,68,67,0
358.07108,358.27197,71,67,0
358.28537,358.48624,69,67,0
358.49963,358.70053,71,67,0
358.71393,358.91483,69,67,0
358.92822,359.12912,71,67,0
359.1425,359.34338,69,67,0
359.35678,359.55768,71,67,0
359.57108,359.77197,69,67,0
359.78534,359.98624,71,67,0
359.99963,360.20053,69,67,0
360.21393,360.41483,71,67,0
360.42822,360.6291,69,67,0
360.6425,360.84338,71,67,0
360.85678,361.05768,69,67,0
361.07108,361.27197,71,67,0
361.28534,361.48624,69,67,0
361.49963,361.70053,71,67,0
361.71393,361.91483,68,67,0
361.92822,362.1291,71,67,0
362.1425,362.34338,68,67,0
362.35678,362.55768,71,67,0
362.57108,362.77197,68,67,0
362.78534,362.98624,71,67,0
362.99963,363.20053,68,67,0
363.21393,363.41483,71,67,0
363.42822,363.6291,68,67,0
363.6425,363.84338,71,67,0
363.85678,364.05768,68,67,0
364.07108,364.27194,71,67,0
364.28534,364.48624,66,67,0
364.49963,364.70053,71,67,0
364.71393,364.91483,69,67,0
364.9282,365.1291,71,67,0
365.1425,365.34338,68,67,0
365.35678,365.55768,71,67,0
365.57108,365.77194,68,67,0
365.78534,365.98624,71,67,0
365.99963,366.20053,66,67,0
366.21393,366.41483,71,67,0
366.4282,366.6291,69,67,0
366.6425,366.84338,71,67,0
366.85678,367.07108,69,67,0
367.07108,367.27194,68,67,0
367.28534,367.37463,66,67,0
367.49963,367.58893,64,67,0
367.71393,367.9282,71,67,0
367.9282,368.1291,69,67,0
368.1425,368.23178,68,67,0
368.35678,368.44604,66,67,0
368.57104,368.66034,68,67,0
368.78534,368.8523,69,67,0
368.85678,368.92374,68,67,0
368.9282,368.99518,66,67,0
368.99963,369.20053,68,67,0
369.21393,369.3032,75,71,0
369.4282,369.5175,76,75,0
369.6425,369.73178,78,79,0
369.85678,369.94604,80,83,0
370.07104,370.16034,81,87,0
370.28534,370.49963,81,91,0
370.49963,370.70053,80,96,0
370.71393,370.8032,78,92,0
370.9282,371.0175,76,88,0
371.1425,371.35678,71,84,0
371.35678,371.55768,69,80,0
371.57104,371.66034,68,76,0
371.78534,371.87463,66,73,0
371.99963,372.13354,76,69,0
372.1425,372.27643,78,67,0
372.28534,372.41928,76,67,0
372.4282,372.56213,75,67,0
372.57104,372.705,73,67,0
372.71393,372.84784,71,68,0
372.85678,372.9907,76,68,0
372.99963,373.13354,78,69,0
373.1425,373.2764,76,69,0
373.28534,373.41928,75,70,0
373.4282,373.56213,73,70,0
373.57104,373.705,71,71,0
373.7139,373.84784,76,72,0
373.85678,373.9907,78,72,0
373.99963,374.13354,76,73,0
374.1425,374.2764,75,73,0
374.28534,374.41928,73,74,0
374.4282,374.56213,71,74,0
374.57104,374.705,76,75,0
374.7139,374.84784,75,76,0
374.85678,374.9907,76,76,0
374.99963,375.13354,78,77,0
375.1425,375.2764,76,77,0
375.28534,375.41928,78,78,0
375.4282,375.56213,80,78,0
375.57104,375.705,81,79,0
375.7139,375.84784,80,80,0
375.85678,375.9907,78,80,0
375.99963,376.13354,76,81,0
376.1425,376.2764,75,81,0
376.28534,376.41928,80,82,0
376.4282,376.56213,81,82,0
376.57104,376.705,80,83,0
376.7139,376.84784,78,83,0
376.85678,376.9907,76,84,0
376.99963,377.13354,75,85,0
377.1425,377.2764,80,85,0
377.28534,377.41925,81,86,0
377.4282,377.56213,80,86,0
377.57104,377.705,78,87,0
377.7139,377.84784,76,87,0
377.85675,377.9907,75,88,0
377.99963,378.13354,80,89,0
378.1425,378.2764,78,89,0
378.28534,378.41925,80,90,0
378.4282,378.56213,81,90,0
378.57104,378.705,80,91,0
378.7139,378.84784,81,91,0
378.85675,379.2541,83,92,0
379.9282,380.1425,76,67,0
380.1425,380.23175,88,67,0
380.35675,380.44604,87,67,0
380.57104,380.78534,87,67,0
380.78534,380.98624,85,67,0
380.99963,381.0889,85,67,0
381.2139,381.3032,83,67,0
381.4282,381.6425,83,67,0
381.6425,381.84335,81,67,0
381.85675,381.94604,81,67,0
382.07104,382.16034,80,67,0
382.28534,382.48624,78,67,0
382.4996,382.5666,80,71,0
382.57104,382.638,78,72,0
382.6425,382.70944,76,73,0
382.7139,382.9148,78,74,0
382.9282,383.0175,80,78,0
383.1425,383.23175,81,82,0
383.35675,383.55765,81,86,0
383.35675,383.55765,78,86,0
383.57104,383.77194,83,90,0
383.57104,383.77194,80,90,0
383.78534,383.98624,85,94,0
383.78534,383.98624,81,94,0
383.9996,384.2139,85,93,0
383.9996,384.2139,81,93,0
384.2139,384.4148,83,90,0
384.2139,384.4148,80,90,0
384.4282,384.5175,81,87,0
384.4282,384.5175,78,87,0
384.6425,384.73175,80,83,0
384.6425,384.73175,76,83,0
384.85675,385.07104,80,80,0
384.85675,385.07104,71,80,0
385.07104,385.27194,78,77,0
385.07104,385.27194,69,77,0
385.28534,385.3746,76,74,0
385.28534,385.3746,68,74,0
385.4996,385.5889,75,71,0
385.4996,385.5889,66,71,0
385.7139,385.9148,76,67,0
385.7139,385.9148,68,67,0
386.14246,386.57104,59,68,0
386.57104,386.77194,64,70,0
386.9996,387.4282,59,72,0
387.4282,387.6291,64,73,0
387.85675,388.28534,59,75,0
388.28534,388.4862,64,77,0
388.7139,388.9148,59,78,0
389.14246,389.34335,64,80,0
389.57104,389.9996,69,82,0
389.57104,390.2005,71,82,0
389.9996,390.2005,68,84,0
390.4282,390.85675,69,85,0
390.4282,391.05765,71,85,0
390.85675,391.05765,68,87,0
391.2853,391.7139,69,89,0
391.2853,391.9148,71,89,0
391.7139,391.9148,68,90,0
392.14246,392.34335,75,92,0
392.14246,392.34335,71,92,0
392.57104,392.96835,76,94,0
392.57104,392.96835,71,94,0
399.42816,400.21835,76,67,0
400.2853,400.4862,81,67,0
400.4996,400.7005,80,67,0
400.7139,400.91476,78,67,0
400.92816,401.12906,76,67,0
401.14246,401.34335,78,67,0
401.35675,401.55765,76,67,0
401.571,401.7719,75,67,0
401.7853,401.9862,76,67,0
401.9996,402.3969,75,67,0
402.85675,403.6469,76,67,0
403.71387,403.91476,81,67,0
403.92816,404.12906,80,67,0
404.14246,404.34335,78,67,0
404.35675,404.55762,76,67,0
404.571,404.7719,78,67,0
404.7853,404.9862,76,67,0
404.9996,405.2005,75,67,0
405.21387,405.41476,76,67,0
405.42816,405.8255,75,67,0
406.2853,406.68262,76,67,0
407.14246,407.53976,73,67,0
408.21387,408.41476,68,67,0
408.42816,409.21835,71,67,0
409.2853,409.68262,71,67,0
411.42816,412.21832,78,67,0
412.2853,412.4862,83,67,0
412.49957,412.70047,81,67,0
412.71387,412.91476,80,67,0
412.92816,413.12906,78,67,0
413.14246,413.23172,83,67,0
413.35672,413.4594,83,67,0
413.46387,413.56656,80,67,0
413.571,413.6603,81,67,0
413.7853,413.88797,81,67,0
413.89246,413.99512,78,67,0
413.99957,414.3969,76,67,0
414.85672,415.45047,78,67,0
415.49957,415.60226,80,67,0
415.60672,415.7094,81,67,0
415.71387,415.91476,83,67,0
415.92816,416.12906,81,67,0
416.14246,416.34332,80,67,0
416.35672,416.55762,78,67,0
416.571,416.7719,83,67,0
416.7853,416.98618,82,67,0
416.99957,417.20047,81,67,0
417.21387,417.41476,80,67,0
417.42816,417.62906,77,67,0
417.64243,417.84332,78,67,0
417.85672,418.05762,80,67,0
418.071,418.2719,81,67,0
418.2853,419.34332,76,67,0
419.35672,419.4103,78,83,0
419.4103,419.46387,76,83,0
419.46387,419.51743,75,84,0
419.51743,419.571,76,85,0
419.571,419.7719,80,86,0
419.7853,419.98618,78,89,0
419.99957,420.20047,83,92,0
420.21387,420.31656,88,96,0
420.321,420.42368,87,96,0
420.42816,420.53082,85,96,0
420.5353,420.63797,83,96,0
420.64243,420.74512,81,96,0
420.74957,420.85226,80,96,0
420.85672,421.05762,78,96,0
421.071,421.17368,81,96,0
421.17816,421.28082,80,96,0
421.28528,421.38797,78,96,0
421.39243,421.49512,76,96,0
421.49957,421.60226,75,96,0
421.60672,421.7094,73,96,0
421.71387,421.81653,73,96,0
421.821,421.92368,71,96,0
421.92816,422.03082,69,96,0
422.03528,422.13797,68,96,0
422.14243,422.24512,69,96,0
422.24957,422.35226,71,96,0
422.35672,422.4594,73,96,0
422.46387,422.56653,75,96,0
422.571,422.67368,76,96,0
422.67816,422.78082,78,96,0
422.78528,422.88797,80,96,0
422.89243,422.99512,81,96,0
422.99957,423.10226,83,96,0
423.10672,423.2094,85,96,0
423.21387,423.31653,87,96,0
423.321,423.42368,88,96,0
423.42816,423.49512,80,96,0
423.49957,423.56653,78,96,0
423.571,423.63797,80,96,0
423.64243,423.7094,78,96,0
423.71387,423.78082,80,96,0
423.78528,423.85226,78,96,0
423.85672,423.92368,80,96,0
423.92816,423.99512,78,96,0
423.99957,424.06653,80,96,0
424.071,424.13797,78,96,0
424.14243,424.2094,80,96,0
424.21387,424.28082,78,96,0
424.28528,424.35226,80,96,0
424.35672,424.42368,78,96,0
424.42816,424.49512,80,96,0
424.49957,424.56653,78,96,0
424.571,424.63797,80,96,0
424.64243,424.7094,78,96,0
424.71387,424.78082,80,96,0
424.78528,424.85226,78,96,0
424.85672,424.92368,80,96,0
424.92816,424.99512,78,96,0
424.99957,425.06653,76,96,0
425.071,425.13797,78,96,0
425.14243,425.23172,76,96,0
425.35672,425.42368,78,67,0
425.42813,425.49512,76,67,0
425.49957,425.56653,75,67,0
425.571,425.77188,76,67,0
425.78528,425.87457,78,67,0
425.99957,426.08887,80,67,0
426.21387,426.30313,81,67,0
426.42813,426.51743,83,67,0
426.64243,426.73172,85,67,0
426.85672,428.571,75,67,0
428.571,428.96832,76,67,0
429.42813,429.82547,73,67,0
429.42813,429.82547,64,67,0
430.28528,430.68262,66,67,0
430.28528,430.68262,64,67,0
431.14243,431.53973,71,67,0
431.14243,431.53973,63,67,0
431.99957,432.39688,64,67,0
432.85672,433.25403,83,106,0
432.85672,433.25403,78,106,0
432.85672,433.25403,75,106,0
432.85672,433.25403,71,106,0
433.71387,434.3076,80,106,0
433.71387,434.3076,76,106,0
433.71387,434.3076,71,106,0
13.714272,14.111593,64,64,0
14.142843,14.540164,64,64,0
14.571414,14.968735,64,64,0
14.999985,15.397306,64,64,0
15.428556,15.825877,66,64,0
15.857127,16.254448,66,64,0
16.285698,16.68302,66,64,0
16.71427,17.11159,66,64,0
17.14284,17.540161,66,64,0
17.571411,17.968733,66,64,0
17.999983,18.397303,66,64,0
18.428553,18.825874,66,64,0
18.857124,19.254444,64,64,0
19.285694,19.683016,64,64,0
19.714266,20.111588,64,64,0
20.142838,20.540157,64,64,0
20.571407,20.968729,64,64,0
20.999979,21.3973,64,64,0
21.42855,21.82587,63,64,0
21.85712,22.254442,66,64,0
22.285692,22.683014,64,64,0
22.714264,23.111584,64,64,0
23.142834,23.540155,63,64,0
23.571405,23.968725,66,64,0
101.2499,101.35258,63,64,0
101.35704,101.45972,66,64,0
101.46419,101.566864,70,64,0
101.57133,101.96865,71,64,0
102.10704,102.20972,64,64,0
102.21418,102.316864,68,64,0
102.32133,102.424,72,64,0
102.42847,102.82579,73,64,0
138.85701,139.25432,64,64,0
139.28557,139.68289,64,64,0
139.71414,140.11147,64,64,0
140.14272,140.54004,64,64,0
140.57129,140.96861,66,64,0
140.99986,141.39719,66,64,0
141.42844,141.82574,66,64,0
141.857,142.25432,66,64,0
142.28557,142.68289,66,64,0
142.71414,143.11147,66,64,0
143.14272,143.54004,66,64,0
143.57129,143.96861,66,64,0
143.99986,144.39717,64,64,0
144.42842,144.82574,64,64,0
144.857,145.25432,64,64,0
145.28557,145.68289,64,64,0
145.71414,146.11147,64,64,0
146.14272,146.54004,64,64,0
146.57129,146.9686,63,64,0
146.99985,147.39717,66,64,0
147.42842,147.82574,64,64,0
147.857,148.25432,64,64,0
148.28557,148.68289,63,64,0
148.71414,149.11147,66,64,0
178.71411,179.11143,66,64,0
179.14268,179.54,64,64,0
205.92836,206.12926,61,67,0
206.14265,206.34354,64,67,0
206.35693,206.55783,61,67,0
206.7855,206.9864,61,67,0
206.99979,207.20068,66,67,0
207.21408,207.41498,61,67,0
207.64265,207.84354,61,67,0
207.85693,208.05783,64,67,0
208.07123,208.27211,61,67,0
208.49979,208.70068,61,67,0
208.71408,208.91496,64,67,0
208.92836,209.12926,61,67,0
209.14265,209.99979,66,67,0
209.14265,209.99979,63,67,0
209.99979,210.78996,64,67,0
209.99979,210.78996,61,67,0
210.85693,211.25426,60,67,0
211.2855,211.68283,63,67,0
211.71408,212.11139,61,67,0
212.14264,212.53996,60,67,0
212.7855,212.98639,61,67,0
212.99979,213.20068,64,67,0
213.21407,213.41496,61,67,0
213.64264,213.84354,61,67,0
213.85693,214.05782,64,67,0
214.07121,214.27211,61,67,0
356.57108,356.96838,64,67,0
356.99963,357.39697,64,67,0
357.42822,357.82553,64,67,0
357.85678,358.25412,64,67,0
358.28537,358.68268,66,67,0
358.71393,359.11124,66,67,0
359.1425,359.53983,66,67,0
359.57108,359.96838,66,67,0
359.99963,360.39697,66,67,0
360.42822,360.82553,66,67,0
360.85678,361.2541,66,67,0
361.28534,361.68268,66,67,0
361.71393,362.11124,64,67,0
362.1425,362.53983,64,67,0
362.57108,362.96838,64,67,0
362.99963,363.39697,64,67,0
363.42822,363.82553,64,67,0
363.85678,364.2541,64,67,0
364.28534,364.68268,63,67,0
364.71393,365.11124,66,67,0
365.1425,365.53983,64,67,0
365.57108,365.96838,64,67,0
365.99963,366.39694,63,67,0
366.4282,366.82553,66,67,0
408.21387,408.41476,64,67,0
408.42816,408.62906,68,67,0
408.64246,408.84335,64,67,0
408.85672,409.05762,68,67,0
409.071,409.2719,64,67,0
409.2853,409.4862,69,67,0
409.4996,409.70047,63,67,0
0.0,0.20089266,68,67,0
0.2142855,0.41517815,71,67,0
0.428571,0.6294637,68,67,0
0.6428565,0.84374917,71,67,0
0.857142,1.0580347,68,67,0
1.0714275,1.2723202,71,67,0
1.285713,1.4866056,68,67,0
1.4999985,1.7008911,71,67,0
1.714284,1.9151766,69,67,0
1.9285696,2.1294622,71,67,0
2.142855,2.3437476,69,67,0
2.3571405,2.5580332,71,67,0
2.571426,2.7723186,69,67,0
2.7857115,2.9866042,71,67,0
2.999997,3.2008896,69,67,0
3.2142825,3.4151752,71,67,0
3.428568,3.6294606,69,67,0
3.6428535,3.8437462,71,67,0
3.857139,4.0580316,69,67,0
4.0714245,4.272317,71,67,0
4.28571,4.486603,69,67,0
4.4999957,4.700888,71,67,0
4.714281,4.9151735,69,67,0
4.9285665,5.1294594,71,67,0
5.142852,5.3437448,68,67,0
5.3571377,5.55803,71,67,0
5.571423,5.7723155,68,67,0
5.7857084,5.9866014,71,67,0
5.999994,6.2008867,68,67,0
6.2142797,6.415172,71,67,0
6.428565,6.6294575,68,67,0
6.6428504,6.8437433,71,67,0
6.857136,7.0580287,68,67,0
7.0714216,7.272314,71,67,0
7.285707,7.4865994,66,67,0
7.4999924,7.7008853,71,67,0
7.714278,7.9151707,63,67,0
7.9285636,8.1294565,71,67,0
8.57142,8.772313,68,67,0
8.785706,8.986598,71,67,0
8.999991,9.200884,66,67,0
9.214276,9.415169,71,67,0
9.428562,9.629455,63,67,0
9.642847,9.84374,71,67,0
10.285704,10.486597,68,67,0
10.4999895,10.700882,71,67,0
10.714275,10.915168,64,67,0
10.92856,11.129453,68,67,0
11.142846,11.343739,61,67,0
11.357132,11.558024,64,67,0
11.571417,11.772309,58,67,0
11.785703,11.986595,61,67,0
11.999988,12.397309,59,67,0
12.85713,13.254451,47,67,0
13.714272,14.111593,52,67,0
13.714272,14.111593,40,67,0
15.428556,15.825877,47,67,0
15.428556,15.825877,35,67,0
17.14284,17.540161,59,67,0
17.14284,17.540161,47,67,0
18.857124,19.254444,52,67,0
18.857124,19.254444,40,67,0
20.571407,20.968729,52,67,0
21.42855,21.82587,47,67,0
22.285692,22.683014,52,67,0
23.142834,23.540155,47,67,0
23.999975,24.397297,52,67,0
24.428547,24.825869,61,67,0
24.857119,25.254438,57,67,0
25.285688,25.68301,59,67,0
25.71426,26.111582,52,67,0
27.428543,27.825865,64,96,0
27.857115,28.254436,52,96,0
28.285686,28.683006,59,96,0
28.714256,29.111578,47,96,0
29.142828,29.54015,52,96,0
29.5714,29.96872,64,96,0
29.99997,30.397291,52,96,0
30.857113,31.64729,47,96,0
30.857113,31.64729,35,96,0
31.714254,32.504433,42,96,0
32.571396,33.361572,39,96,0
35.999966,36.200855,63,67,0
36.21425,36.415142,66,67,0
36.428535,36.62943,63,67,0
36.642822,36.84371,66,67,0
36.857105,37.058,63,67,0
37.071392,37.272285,66,67,0
37.28568,37.48657,63,67,0
37.49996,37.700855,66,67,0
37.71425,37.915142,63,67,0
37.92853,38.129425,66,67,0
38.14282,38.34371,63,67,0
38.357105,38.558,66,67,0
38.57139,38.77228,63,67,0
38.785675,38.98657,66,67,0
38.99996,39.200855,63,67,0
39.214245,39.41514,66,67,0
39.42853,40.218708,66,67,0
39.42853,40.218708,64,67,0
39.42853,40.218708,61,67,0
41.142815,41.932995,52,96,0
41.142815,41.932995,40,96,0
41.999958,42.790134,49,96,0
41.999958,42.790134,37,96,0
42.8571,43.647278,46,96,0
42.8571,43.647278,34,96,0
46.285667,46.48656,58,67,0
46.499954,46.700848,61,67,0
46.714237,46.91513,58,67,0
46.928524,47.129417,61,67,0
47.14281,47.343704,58,67,0
47.357094,47.557987,61,67,0
47.57138,47.772274,58,67,0
47.785667,47.98656,61,67,0
47.99995,48.200844,58,67,0
48.214237,48.41513,61,67,0
48.428524,48.629417,58,67,0
48.642807,48.8437,61,67,0
48.857094,49.057987,58,67,0
49.07138,49.272274,61,67,0
49.285664,49.486557,58,67,0
49.49995,49.700844,61,67,0
49.714237,51.29459,61,67,0
49.714237,51.29459,58,67,0
49.714237,51.29459,55,67,0
51.42852,51.82584,59,67,0
51.42852,51.82584,56,67,0
52.285664,52.682983,61,67,0
52.285664,52.682983,58,67,0
52.285664,52.682983,51,67,0
53.142803,53.540127,59,67,0
53.142803,53.540127,56,67,0
54.857086,55.25441,59,67,0
54.857086,55.25441,56,67,0
55.71423,56.11155,61,67,0
55.71423,56.11155,58,67,0
55.71423,56.11155,51,67,0
56.571373,56.968693,59,67,0
56.571373,56.968693,56,67,0
59.99994,63.29458,73,67,0
59.99994,63.29458,71,67,0
59.99994,63.29458,68,67,0
63.42851,63.82583,73,67,0
63.42851,63.82583,70,67,0
63.42851,63.82583,66,67,0
64.28565,64.68297,73,67,0
64.28565,64.68297,71,67,0
64.28565,64.68297,68,67,0
65.14279,65.540115,73,67,0
65.14279,65.540115,70,67,0
65.14279,65.540115,66,67,0
65.99993,66.397255,73,67,0
65.99993,66.397255,71,67,0
65.99993,66.397255,68,67,0
66.85708,67.254395,73,67,0
66.85708,67.254395,70,67,0
66.85708,67.254395,66,67,0
68.57136,68.96868,54,67,0
68.57136,68.96868,42,67,0
70.285645,70.68297,47,67,0
70.285645,70.68297,35,67,0
71.99993,72.39725,54,67,0
71.99993,72.39725,42,67,0
73.71421,74.111534,47,67,0
73.71421,74.111534,35,67,0
75.4285,75.82581,52,67,0
75.4285,75.82581,40,67,0
77.14278,77.5401,52,67,0
77.14278,77.5401,40,67,0
78.85706,79.25439,51,67,0
78.85706,79.25439,39,67,0
80.14278,80.57135,46,67,0
80.57135,80.968666,47,67,0
81.85706,82.28563,46,67,0
82.28563,82.68295,47,67,0
83.14278,83.54009,52,67,0
83.999916,84.39724,54,67,0
84.857056,85.25438,42,67,0
85.7142,86.11152,47,67,0
87.42848,88.48652,61,67,0
88.49991,88.700806,59,67,0
88.714195,88.91509,58,67,0
88.92848,89.12937,61,67,0
89.14277,89.54009,59,67,0
90.857056,91.915085,61,67,0
91.92848,92.12937,59,67,0
92.14276,92.34366,58,67,0
92.35705,92.557945,61,67,0
92.571335,92.96866,59,67,0
94.39276,94.49544,52,67,0
94.49991,94.602585,56,67,0
94.60705,94.709724,59,67,0
94.71419,94.81687,64,67,0
96.10705,96.209724,52,67,0
96.21419,96.31687,58,67,0
96.321335,96.42401,61,67,0
96.428474,96.53115,64,67,0
97.71419,98.11151,63,67,0
98.785614,98.98651,64,67,0
98.9999,99.20079,63,67,0
99.21419,99.41508,64,67,0
99.428474,99.82579,63,67,0
100.4999,100.70079,64,67,0
100.71419,100.91508,63,67,0
100.92847,101.129364,64,67,0
102.85704,103.05793,54,67,0
103.07133,103.27222,63,67,0
103.285614,103.4865,59,67,0
103.49989,103.70079,63,67,0
103.71418,103.91508,54,67,0
103.92847,104.12936,63,67,0
104.14275,104.34364,59,67,0
104.35704,104.55793,63,67,0
104.57133,104.77222,54,67,0
104.78561,104.9865,64,67,0
104.99989,105.20079,58,67,0
105.21418,105.41507,64,67,0
105.42847,105.62936,54,67,0
105.64275,105.84364,64,67,0
105.85704,106.05793,58,67,0
106.07132,106.27222,64,67,0
106.28561,106.4865,59,67,0
106.49989,106.70078,66,67,0
106.71418,106.91507,63,67,0
106.92847,107.12936,66,67,0
107.14275,107.34364,59,67,0
107.35703,107.55793,66,67,0
107.57132,107.77222,63,67,0
107.78561,107.986496,66,67,0
107.99989,108.20078,54,67,0
108.21418,108.41507,64,67,0
108.42847,108.62936,61,67,0
108.642746,108.84364,64,67,0
108.85703,109.05793,54,67,0
109.07132,109.27221,64,67,0
109.28561,109.486496,61,67,0
109.49989,109.70078,64,67,0
109.71417,109.91507,59,67,0
109.92846,110.12936,69,67,0
110.142746,110.34364,66,67,0
110.35703,110.55792,69,67,0
110.57132,110.77221,59,67,0
110.78561,110.986496,69,67,0
110.999886,111.20078,66,67,0
111.21417,111.41507,69,67,0
111.42846,111.62936,59,67,0
111.642746,111.843636,68,68,0
111.85703,112.05792,64,70,0
112.07132,112.27221,68,72,0
112.2856,112.486496,59,73,0
112.499886,112.70078,68,75,0
112.71417,112.91506,64,77,0
112.92846,113.12935,68,78,0
113.142746,113.343636,59,80,0
113.35703,113.55792,66,82,0
113.57131,113.77221,63,84,0
113.7856,113.986496,66,85,0
113.999886,114.200775,59,87,0
114.21417,114.41506,66,89,0
114.42846,114.62935,63,90,0
114.642746,114.843636,66,92,0
114.857025,115.05792,59,94,0
115.07131,115.27221,68,96,0
115.2856,115.48649,64,96,0
115.499886,115.700775,68,96,0
115.71417,115.91506,59,96,0
115.92846,116.12935,68,96,0
116.14274,116.343636,64,96,0
116.357025,116.55792,68,96,0
116.57131,116.7722,59,96,0
116.7856,116.98649,64,96,0
116.999886,117.200775,61,96,0
117.214165,117.41506,64,96,0
117.42845,117.62935,59,96,0
117.64274,117.843636,64,96,0
117.857025,118.057915,61,96,0
118.07131,118.2722,64,96,0
118.2856,118.682915,63,96,0
118.2856,118.682915,59,96,0
119.57131,119.99988,76,90,0
119.57131,119.99988,73,90,0
119.57131,119.99988,66,90,0
119.99988,120.3972,75,88,0
119.99988,120.3972,71,88,0
121.28559,121.714165,76,83,0
121.28559,121.714165,73,83,0
121.28559,121.714165,66,83,0
121.714165,122.11149,75,81,0
121.714165,122.11149,71,81,0
125.14273,125.34363,68,67,0
125.35702,125.55791,71,67,0
125.571304,125.772194,68,67,0
125.78559,125.98648,71,67,0
125.99987,126.20077,68,67,0
126.21416,126.415054,71,67,0
126.428444,126.62934,68,67,0
126.64273,126.84362,71,67,0
126.85702,127.05791,69,67,0
127.071304,127.272194,71,67,0
127.28558,127.48648,69,67,0
127.49987,127.70077,71,67,0
127.71416,127.915054,69,67,0
127.928444,128.12933,71,67,0
128.14273,128.34363,69,67,0
128.35701,128.5579,71,67,0
128.5713,128.77219,69,67,0
128.78558,128.98648,71,67,0
128.99988,129.20076,69,67,0
129.21416,129.41505,71,67,0
129.42844,129.62933,69,67,0
129.64273,129.84361,71,67,0
129.85701,130.0579,69,67,0
130.0713,130.27219,71,67,0
130.28558,130.48648,68,67,0
130.49986,130.70076,71,67,0
130.71416,130.91505,68,67,0
130.92844,131.12933,71,67,0
131.14273,131.34361,68,67,0
131.35701,131.5579,71,67,0
131.5713,131.77219,68,67,0
131.78558,131.98648,71,67,0
131.99986,132.20076,68,67,0
132.21416,132.41504,71,67,0
132.42844,132.62933,66,67,0
132.64273,132.84361,71,67,0
132.85701,133.0579,63,67,0
133.07129,133.27219,71,67,0
133.71416,133.91504,68,67,0
133.92844,134.12933,71,67,0
134.14272,134.34361,66,67,0
134.35701,134.5579,71,67,0
134.57129,134.77219,63,67,0
134.78558,134.98647,71,67,0
135.42844,135.62933,68,67,0
135.64272,135.84361,71,67,0
135.85701,136.0579,64,67,0
136.07129,136.27219,68,67,0
136.28558,136.48647,61,67,0
136.49986,136.70076,64,67,0
136.71414,136.91504,58,67,0
136.92844,137.12933,61,67,0
137.14272,137.54004,59,67,0
137.99986,138.39719,47,67,0
138.85701,139.25432,52,67,0
138.85701,139.25432,40,67,0
140.57129,140.96861,47,67,0
140.57129,140.96861,35,67,0
142.28557,142.68289,59,67,0
142.28557,142.68289,47,67,0
143.99986,144.39717,52,67,0
143.99986,144.39717,40,67,0
145.71414,146.11147,52,67,0
146.57129,146.9686,47,67,0
147.42842,147.82574,52,67,0
148.28557,148.68289,47,67,0
149.14272,149.54002,52,67,0
149.57127,149.9686,61,67,0
149.99985,150.39717,57,67,0
150.42842,150.82574,59,67,0
150.857,151.25432,52,67,0
152.57127,152.9686,64,96,0
152.99985,153.39717,52,96,0
153.42842,153.82574,59,96,0
153.857,154.2543,47,96,0
154.28555,154.68288,61,96,0
154.71413,155.11145,49,96,0
155.1427,155.54002,56,96,0
155.57127,155.9686,44,96,0
155.99985,156.39717,57,96,0
156.42842,156.82573,45,96,0
156.85698,157.2543,52,96,0
157.28555,157.68288,40,96,0
157.71413,158.11145,45,96,0
159.4284,161.1427,62,67,0
161.1427,161.54002,61,67,0
159.4284,161.54002,57,67,0
162.85698,164.57126,62,67,0
164.57126,164.77216,61,67,0
162.85698,164.77216,57,67,0
164.99983,165.4284,66,67,0
164.99983,165.4284,62,67,0
165.4284,165.6293,64,67,0
165.4284,165.6293,61,67,0
164.99983,165.6293,57,67,0
165.85698,166.28555,66,67,0
165.85698,166.28555,62,67,0
166.28555,166.68288,64,67,0
166.28555,166.68288,61,67,0
165.85698,166.68288,57,67,0
167.99983,168.85698,64,67,0
167.99983,168.85698,61,67,0
167.99983,168.85698,54,67,0
168.85698,169.25429,62,67,0
168.85698,169.25429,59,67,0
169.71411,170.57126,62,67,0
169.71411,170.57126,59,67,0
169.71411,170.57126,52,67,0
170.57126,170.96858,61,67,0
170.57126,170.96858,57,67,0
170.57126,170.96858,54,67,0
170.99983,171.4284,50,67,0
170.99983,171.82571,57,67,0
171.4284,171.82571,49,67,0
171.85696,172.25429,59,67,0
171.85696,172.25429,50,67,0
172.28554,172.48643,61,67,0
172.28554,172.48643,52,67,0
172.71411,172.91501,56,67,0
172.71411,172.91501,52,67,0
173.14268,174.32571,57,67,0
173.14268,174.32571,45,67,0
174.85696,175.71411,54,67,0
175.71411,176.11143,47,67,0
176.57126,177.42839,52,67,0
177.42839,177.82571,54,67,0
177.85696,178.25429,50,67,0
178.28554,178.68286,49,67,0
178.71411,179.11143,50,67,0
179.14268,179.54,49,67,0
179.57124,179.96857,50,67,0
179.99982,181.58017,52,67,0
179.99982,181.58017,40,67,0
181.92839,181.99536,59,96,0
181.99982,182.06679,57,96,0
182.07124,182.13821,56,96,0
182.14267,182.34357,57,96,0
182.35696,182.44624,59,96,0
182.57124,182.66054,61,96,0
182.78554,182.87482,62,96,0
182.99982,183.0891,64,96,0
183.2141,183.30339,66,96,0
183.42839,185.14267,56,96,0
185.14267,185.54,57,96,0
186.42839,187.25427,64,67,0
187.28552,188.0757,61,67,0
188.14267,188.54,58,67,0
188.78552,188.8525,61,96,0
188.85695,188.92392,59,96,0
188.92838,188.99535,58,96,0
188.99982,189.2007,59,96,0
189.2141,189.30338,61,96,0
189.42838,189.51767,62,96,0
189.64267,189.73195,64,96,0
189.85695,189.94624,66,96,0
190.07124,190.16052,67,96,0
190.28552,191.9998,58,96,0
191.9998,192.39713,59,96,0
193.28552,194.11142,66,67,0
194.14267,194.93285,63,67,0
194.9998,195.39713,60,67,0
195.64265,195.70963,63,96,0
195.7141,195.78105,61,96,0
195.78552,195.85248,60,96,0
195.85695,196.05785,61,96,0
196.07123,196.16052,63,96,0
196.28552,196.3748,64,96,0
196.4998,196.5891,66,96,0
196.7141,196.80338,68,96,0
196.92838,197.01765,69,96,0
197.14265,198.85695,60,96,0
198.85695,199.25427,61,96,0
200.57123,202.15158,57,96,0
200.57123,202.15158,45,96,0
202.2855,202.4864,44,96,0
202.71408,202.91498,56,96,0
203.14265,203.34355,44,96,0
203.57123,203.77213,56,96,0
203.9998,204.20068,44,96,0
205.71408,206.1114,49,67,0
206.57123,206.96854,49,67,0
207.42836,207.82568,49,67,0
208.2855,208.68283,49,67,0
209.14265,210.723,56,67,0
209.14265,210.723,44,67,0
210.85693,212.14264,56,67,0
210.85693,212.14264,44,67,0
212.14264,212.53996,54,67,0
212.14264,212.53996,42,67,0
212.57121,214.15157,52,67,0
212.57121,214.15157,40,67,0
214.2855,215.86586,54,67,0
214.2855,215.86586,42,67,0
215.99979,216.39711,44,67,0
216.85693,217.25424,32,67,0
217.71407,218.11139,37,67,0
219.42834,219.62924,61,67,0
219.64264,219.84354,68,67,0
219.85692,220.05782,64,67,0
220.07121,220.2721,68,67,0
220.28549,220.48639,61,67,0
220.49979,220.70067,69,67,0
220.71407,220.91496,66,67,0
220.92834,221.12924,69,67,0
221.14264,221.34352,61,67,0
221.35692,221.55782,68,67,0
221.57121,221.7721,64,67,0
221.78549,221.98639,68,67,0
221.99977,222.20067,61,67,0
222.21407,222.41496,68,67,0
222.42834,222.62924,64,67,0
222.64264,222.84352,68,67,0
222.85692,223.05782,63,67,0
223.07121,223.2721,68,67,0
223.28549,223.48639,66,67,0
223.49977,223.70067,68,67,0
223.71407,223.91495,61,67,0
223.92834,224.12924,68,67,0
224.14264,224.34352,64,67,0
224.35692,224.55782,68,67,0
224.5712,224.7721,60,67,0
224.78549,224.98639,68,67,0
224.99977,225.20067,60,67,0
225.21407,225.41495,66,67,0
225.42834,225.62924,61,67,0
225.64262,225.84352,64,67,0
225.85692,226.05782,60,67,0
226.0712,226.2721,63,67,0
226.28549,226.48637,56,67,0
226.49977,226.70067,64,67,0
226.71407,226.91495,61,67,0
226.92834,227.12924,64,67,0
227.14262,227.34352,56,67,0
227.35692,227.55782,64,67,0
227.5712,227.7721,61,67,0
227.78549,227.98637,64,67,0
227.99977,228.20067,57,67,0
228.21405,228.41495,66,67,0
228.42834,228.62924,62,67,0
228.64262,228.84352,66,67,0
228.85692,229.0578,57,67,0
229.0712,229.2721,66,67,0
229.28549,229.48637,62,67,0
229.49977,229.70067,66,67,0
229.71405,229.91495,56,67,0
229.92834,230.12923,64,67,0
230.14262,230.34352,61,67,0
230.35692,230.5578,64,67,0
230.5712,230.7721,56,67,0
230.78548,230.98637,66,67,0
230.99977,231.20067,60,67,0
231.21405,231.41495,66,67,0
231.42834,231.82567,64,67,0
231.42834,231.82567,61,67,0
233.14262,233.53995,56,67,0
233.14262,233.53995,44,67,0
233.99977,234.39708,56,67,0
233.99977,234.39708,44,67,0
234.8569,236.43727,56,67,0
234.8569,236.43727,44,67,0
236.5712,236.9685,56,67,0
236.5712,236.9685,44,67,0
237.42833,237.82565,56,67,0
237.42833,237.82565,44,67,0
238.28548,238.6828,56,67,0
238.28548,238.6828,44,67,0
238.71405,239.11137,45,67,0
239.14262,239.53993,44,67,0
239.57118,239.9685,42,67,0
239.99976,240.78993,40,67,0
240.8569,241.64708,40,67,0
241.71405,243.2944,42,67,0
243.42833,244.2185,44,67,0
244.28548,245.07565,44,67,0
245.14261,245.53993,37,67,0
246.8569,247.05779,56,67,0
247.07118,247.27208,63,67,0
247.28546,247.48636,60,67,0
247.49976,247.70064,63,67,0
247.71404,247.91493,56,67,0
247.92833,248.12921,64,67,0
248.14261,248.3435,61,67,0
248.35689,248.55779,64,67,0
248.57118,248.77208,56,67,0
248.78546,248.98636,66,67,0
248.99976,249.20064,63,67,0
249.21404,249.41493,66,67,0
249.42833,249.62921,56,67,0
249.64261,249.8435,66,67,0
249.85689,250.05779,63,67,0
250.07118,250.27206,66,67,0
250.28546,250.48636,56,67,0
250.49976,250.70064,64,67,0
250.71404,250.91493,61,67,0
250.92831,251.12921,64,67,0
251.14261,251.3435,56,67,0
251.35689,251.55779,64,67,0
251.57118,251.77206,61,67,0
251.78546,251.98636,64,67,0
251.99974,252.20064,56,67,0
252.21404,252.41493,63,67,0
252.42831,252.62921,60,67,0
252.64261,252.84349,63,67,0
252.85689,253.05779,60,67,0
253.07118,253.27206,63,70,0
253.28546,253.48636,60,74,0
253.49974,253.70064,63,77,0
253.71404,254.50421,61,81,0
254.57117,255.36136,52,96,0
254.57117,255.36136,40,96,0
255.42831,256.2185,54,96,0
255.42831,256.2185,42,96,0
257.1426,257.93277,62,96,0
257.1426,257.93277,50,96,0
257.99976,258.78992,59,96,0
257.99976,258.78992,47,96,0
258.85687,259.64706,56,96,0
258.85687,259.64706,44,96,0
262.28546,262.48636,56,67,0
262.49973,262.70062,59,67,0
262.71402,262.91492,56,67,0
262.9283,263.1292,59,67,0
263.1426,263.34348,56,67,0
263.35687,263.55777,59,67,0
263.57117,263.77206,56,67,0
263.78546,263.98633,59,67,0
263.99973,264.20062,56,67,0
264.21402,264.41492,59,67,0
264.4283,264.6292,56,67,0
264.64258,264.84348,59,67,0
264.85687,265.05777,56,67,0
265.07117,265.27206,59,67,0
265.28546,265.48633,56,67,0
265.49973,265.70062,59,67,0
265.71402,267.29437,59,67,0
265.71402,267.29437,56,67,0
265.71402,267.29437,53,67,0
267.4283,267.82562,57,67,0
267.4283,267.82562,54,67,0
268.28543,268.68277,59,67,0
268.28543,268.68277,56,67,0
268.28543,268.68277,49,67,0
269.14258,269.53992,57,67,0
269.14258,269.53992,54,67,0
270.85687,271.25418,57,67,0
270.85687,271.25418,54,67,0
271.71402,272.11133,59,67,0
271.71402,272.11133,56,67,0
271.71402,272.11133,49,67,0
272.57117,272.96848,57,67,0
272.57117,272.96848,54,67,0
275.99973,278.11133,71,67,0
275.99973,278.11133,69,67,0
275.99973,278.11133,66,67,0
279.42828,280.28543,72,127,0
279.42828,280.28543,69,127,0
279.42828,280.28543,63,127,0
280.28543,280.68277,73,96,0
280.28543,280.68277,68,96,0
280.28543,280.68277,64,96,0
281.14258,282.72293,64,96,0
281.14258,282.72293,61,96,0
281.14258,282.72293,54,96,0
282.85687,283.25418,66,96,0
282.85687,283.25418,63,96,0
282.85687,283.25418,59,96,0
283.714,284.11133,66,96,0
283.714,284.11133,64,96,0
283.714,284.11133,61,96,0
284.57114,284.96848,66,96,0
284.57114,284.96848,63,96,0
284.57114,284.96848,59,96,0
285.42828,285.8256,66,96,0
285.42828,285.8256,64,96,0
285.42828,285.8256,61,96,0
286.28543,286.68274,66,96,0
286.28543,286.68274,63,96,0
286.28543,286.68274,59,96,0
287.99973,288.39703,47,67,0
287.99973,288.39703,35,67,0
289.714,290.11133,52,67,0
289.714,290.11133,40,67,0
291.42828,291.8256,47,67,0
291.42828,291.8256,35,67,0
293.14258,293.5399,52,67,0
293.14258,293.5399,40,67,0
294.85684,295.25418,57,67,0
294.85684,295.25418,45,67,0
296.57114,296.96844,57,67,0
296.57114,296.96844,45,67,0
298.28543,298.68274,56,67,0
298.28543,298.68274,44,67,0
299.57114,299.9997,51,67,0
299.57114,299.9997,39,67,0
299.9997,300.39703,56,67,0
299.9997,300.39703,44,67,0
301.2854,301.714,51,67,0
301.2854,301.714,39,67,0
301.714,302.1113,52,67,0
301.714,302.1113,40,67,0
302.57114,302.96844,57,67,0
302.57114,302.96844,45,67,0
303.42825,303.8256,47,67,0
304.2854,304.68274,35,67,0
305.14255,305.5399,40,67,0
306.85684,307.4506,63,67,0
307.4997,307.7006,64,67,0
307.714,307.91486,66,67,0
307.92825,308.12915,64,67,0
308.14255,308.34344,63,67,0
308.35684,308.55774,66,67,0
308.5711,308.96844,64,67,0
310.2854,310.87915,63,67,0
310.92825,311.12915,64,67,0
311.14255,311.34344,66,67,0
311.35684,311.55774,64,67,0
311.5711,311.772,63,67,0
311.7854,311.9863,66,67,0
311.9997,312.397,64,67,0
313.8211,313.9238,57,67,0
313.92825,314.03094,61,67,0
314.0354,314.1381,64,67,0
314.14255,314.2452,69,67,0
315.5354,315.6381,57,67,0
315.64255,315.7452,63,67,0
315.7497,315.85236,66,67,0
315.85684,315.9595,69,67,0
317.14255,317.53986,68,67,0
318.21396,318.41486,69,67,0
318.42825,318.62915,68,67,0
318.64255,318.84344,69,67,0
318.8568,319.25415,68,67,0
319.92825,320.12915,69,67,0
320.14255,320.34344,68,67,0
320.3568,320.5577,69,67,0
320.67825,320.7809,68,67,0
320.7854,320.88806,71,67,0
320.89255,320.9952,75,67,0
320.99966,321.397,76,67,0
321.5354,321.63806,69,67,0
321.64255,321.7452,73,67,0
321.74966,321.85236,77,67,0
321.8568,322.25415,78,67,0
322.2854,322.4863,59,67,0
322.49966,322.70056,68,69,0
322.71396,322.91486,64,72,0
322.92825,323.12915,68,75,0
323.14255,323.3434,59,78,0
323.3568,323.5577,68,81,0
323.5711,323.772,64,84,0
323.7854,323.9863,68,87,0
323.99966,324.20056,59,90,0
324.21396,324.41486,69,93,0
324.42825,324.62915,63,96,0
324.64255,324.8434,69,91,0
324.8568,325.0577,59,86,0
325.0711,325.272,69,81,0
325.2854,325.48627,63,76,0
325.49966,325.70056,69,71,0
325.71396,325.91486,64,67,0
325.92825,326.12915,71,67,0
326.14252,326.3434,68,67,0
326.3568,326.5577,71,67,0
326.5711,326.772,64,67,0
326.7854,326.98627,71,67,0
326.99966,327.20056,68,67,0
327.21396,327.41486,71,67,0
327.42825,327.62915,59,67,0
327.64252,327.8434,69,67,0
327.8568,328.0577,66,67,0
328.0711,328.272,69,67,0
328.2854,328.48627,59,67,0
328.49966,328.70056,69,67,0
328.71396,328.91486,66,67,0
328.92825,329.12915,69,67,0
329.14252,329.3434,64,67,0
329.3568,329.5577,71,67,0
329.5711,329.772,68,68,0
329.78537,329.98627,71,69,0
329.99966,330.20056,64,70,0
330.21396,330.41486,71,71,0
330.42825,330.62912,68,72,0
330.64252,330.8434,71,72,0
330.8568,331.0577,63,73,0
331.0711,331.272,73,74,0
331.28537,331.48627,70,75,0
331.49966,331.70056,73,76,0
331.71396,331.91486,63,77,0
331.92825,332.12912,73,78,0
332.14252,332.3434,70,78,0
332.3568,332.5577,73,79,0
332.5711,332.772,68,80,0
332.78537,332.98627,75,81,0
332.99966,333.20056,71,82,0
333.21396,333.41486,75,83,0
333.42825,333.62912,68,84,0
333.64252,333.8434,75,84,0
333.8568,334.0577,71,85,0
334.0711,334.27197,75,86,0
334.28537,334.48627,66,87,0
334.49966,334.70056,76,88,0
334.71396,334.91486,73,89,0
334.92822,335.12912,76,90,0
335.14252,335.3434,66,90,0
335.3568,335.5577,76,91,0
335.5711,335.77197,73,92,0
335.78537,335.98627,76,93,0
335.99966,336.39697,75,94,0
335.99966,336.39697,71,94,0
337.28537,337.71396,76,96,0
337.28537,337.71396,73,96,0
337.28537,337.71396,66,96,0
337.71396,338.11127,75,96,0
337.71396,338.11127,71,96,0
338.99966,339.42822,76,96,0
338.99966,339.42822,73,96,0
338.99966,339.42822,66,96,0
339.42822,339.82556,75,96,0
339.42822,339.82556,71,96,0
342.8568,343.05768,68,67,0
343.07108,343.27197,71,67,0
343.28537,343.48627,68,67,0
343.49966,343.70056,71,67,0
343.71393,343.91483,68,67,0
343.92822,344.12912,71,67,0
344.14252,344.3434,68,67,0
344.3568,344.55768,71,67,0
344.57108,344.77197,69,67,0
344.78537,344.98627,71,67,0
344.99966,345.20056,69,67,0
345.21393,345.41483,71,67,0
345.42822,345.62912,69,67,0
345.64252,345.8434,71,67,0
345.8568,346.05768,69,67,0
346.07108,346.27197,71,67,0
346.28537,346.48627,69,67,0
346.49966,346.70053,71,67,0
346.71393,346.91483,69,67,0
346.92822,347.12912,71,67,0
347.14252,347.3434,69,67,0
347.35678,347.55768,71,67,0
347.57108,347.77197,69,67,0
347.78537,347.98627,71,67,0
347.99966,348.20053,68,67,0
348.21393,348.41483,71,67,0
348.42822,348.62912,68,67,0
348.64252,348.8434,71,67,0
348.85678,349.05768,68,67,0
349.07108,349.27197,71,67,0
349.28537,349.48627,68,67,0
349.49966,349.70053,71,67,0
349.71393,349.91483,68,67,0
349.92822,350.12912,71,67,0
350.14252,350.3434,66,67,0
350.35678,350.55768,71,67,0
350.57108,350.77197,63,67,0
350.78537,350.98627,71,67,0
351.42822,351.62912,68,67,0
351.64252,351.84338,71,67,0
351.85678,352.05768,66,67,0
352.07108,352.27197,71,67,0
352.28537,352.48627,63,67,0
352.49963,352.70053,71,67,0
353.14252,353.34338,68,67,0
353.35678,353.55768,71,67,0
353.57108,353.77197,64,67,0
353.78537,353.98627,68,67,0
353.99963,354.20053,61,67,0
354.21393,354.41483,64,67,0
354.42822,354.62912,58,67,0
354.64252,354.84338,61,67,0
354.85678,355.25412,59,67,0
355.71393,356.11124,47,67,0
356.57108,356.96838,52,67,0
356.57108,356.96838,40,67,0
358.28537,358.68268,47,67,0
358.28537,358.68268,35,67,0
359.99963,360.39697,59,67,0
359.99963,360.39697,47,67,0
361.71393,362.11124,52,67,0
361.71393,362.11124,40,67,0
363.42822,363.82553,52,67,0
364.28534,364.68268,47,67,0
365.1425,365.53983,52,67,0
365.99963,366.39694,47,67,0
366.85678,367.2541,52,67,0
367.28534,367.68268,61,67,0
367.71393,368.11124,57,67,0
368.1425,368.5398,59,67,0
368.57104,368.96838,52,67,0
370.28534,370.68268,64,88,0
370.71393,371.11124,52,96,0
371.1425,371.5398,59,88,0
371.57104,371.96838,47,81,0
371.99963,372.39694,52,74,0
375.4282,375.56213,64,79,0
375.57104,375.705,66,80,0
375.7139,375.84784,64,80,0
375.85678,375.9907,63,81,0
375.99963,376.13354,61,81,0
376.1425,376.2764,59,82,0
376.28534,376.41928,64,83,0
376.4282,376.56213,66,83,0
376.57104,376.705,64,84,0
376.7139,376.84784,63,84,0
376.85678,376.9907,61,85,0
376.99963,377.13354,59,85,0
377.1425,377.2764,64,86,0
377.28534,377.41925,66,87,0
377.4282,377.56213,64,87,0
377.57104,377.705,63,88,0
377.7139,377.84784,61,88,0
377.85675,377.9907,59,89,0
377.99963,378.13354,64,89,0
378.1425,378.2764,63,90,0
378.28534,378.41925,64,91,0
378.4282,378.56213,66,91,0
378.57104,378.705,64,92,0
378.7139,378.84784,66,92,0
378.85675,379.2541,68,93,0
382.28534,382.9282,61,67,0
382.28534,382.9282,57,67,0
382.9282,383.1291,59,79,0
382.9282,383.1291,56,79,0
383.1425,383.23175,57,83,0
383.1425,383.23175,54,83,0
383.35675,383.55765,57,87,0
383.35675,383.55765,54,87,0
383.57104,383.77194,56,91,0
383.57104,383.77194,52,91,0
383.78534,383.98624,54,96,0
383.78534,383.98624,51,96,0
383.9996,384.39694,52,92,0
384.85675,385.2541,59,79,0
384.85675,385.2541,47,79,0
385.7139,386.1112,52,67,0
385.7139,386.1112,40,67,0
389.57104,389.96835,47,82,0
389.9996,390.2005,52,84,0
390.4282,390.8255,47,85,0
390.85675,391.05765,52,87,0
391.2853,391.68265,47,89,0
391.7139,391.9148,52,90,0
392.14246,392.34335,47,92,0
392.57104,392.96835,40,94,0
395.9996,396.64246,57,67,0
395.9996,396.64246,45,67,0
396.64246,396.84335,56,67,0
396.64246,396.84335,44,67,0
396.85675,396.94604,54,67,0
396.85675,396.94604,42,67,0
397.07104,397.2719,54,67,0
397.07104,397.2719,42,67,0
397.2853,397.4862,52,67,0
397.2853,397.4862,40,67,0
397.4996,397.7005,51,67,0
397.4996,397.7005,39,67,0
397.7139,398.1112,52,67,0
397.7139,398.1112,40,67,0
398.57104,398.96835,47,67,0
398.57104,398.96835,35,67,0
399.42816,399.62906,68,67,0
399.64246,399.84335,71,67,0
399.85675,400.05765,68,67,0
400.071,400.2719,71,67,0
400.2853,400.4862,68,67,0
400.4996,400.7005,71,67,0
400.7139,400.91476,68,67,0
400.92816,401.12906,71,67,0
401.14246,401.34335,69,67,0
401.35675,401.55765,71,67,0
401.571,401.7719,69,67,0
401.7853,401.9862,71,67,0
401.9996,402.2005,69,67,0
402.2139,402.41476,71,67,0
402.42816,402.62906,69,67,0
402.64246,402.84335,71,67,0
402.85675,403.05765,68,67,0
403.071,403.2719,71,67,0
403.2853,403.4862,68,67,0
403.4996,403.7005,71,67,0
403.71387,403.91476,68,67,0
403.92816,404.12906,71,67,0
404.14246,404.34335,68,67,0
404.35675,404.55762,71,67,0
404.571,404.7719,69,67,0
404.7853,404.9862,71,67,0
404.9996,405.2005,69,67,0
405.21387,405.41476,71,67,0
405.42816,405.62906,69,67,0
405.64246,405.84335,71,67,0
405.85675,406.05762,69,67,0
406.071,406.2719,71,67,0
406.2853,406.68262,68,67,0
407.14246,407.53976,69,67,0
407.9996,409.57996,59,67,0
407.9996,409.57996,47,67,0
409.71387,409.91476,68,67,0
409.92816,410.12906,71,67,0
410.14246,410.34335,68,67,0
410.35672,410.55762,71,67,0
410.571,410.7719,68,67,0
410.7853,410.9862,71,67,0
410.9996,411.20047,68,67,0
411.21387,411.41476,71,67,0
411.42816,411.62906,66,67,0
411.64246,411.84335,71,67,0
411.85672,412.05762,66,67,0
412.071,412.2719,71,67,0
412.2853,412.4862,66,67,0
412.49957,412.70047,71,67,0
412.71387,412.91476,69,67,0
412.92816,413.12906,71,67,0
413.14246,413.34332,68,67,0
413.35672,413.55762,71,67,0
413.571,413.7719,68,67,0
413.7853,413.9862,71,67,0
413.99957,414.20047,68,67,0
414.21387,414.41476,71,67,0
414.42816,414.62906,68,67,0
414.64246,414.84332,71,67,0
414.85672,415.05762,66,67,0
415.071,415.2719,71,67,0
415.2853,415.4862,66,67,0
415.49957,415.70047,71,67,0
415.71387,415.91476,66,67,0
415.92816,416.12906,71,67,0
416.14246,416.34332,69,67,0
416.35672,416.55762,71,67,0
416.571,416.96832,68,67,0
417.42816,417.82547,69,67,0
418.2853,419.86566,59,67,0
419.99957,420.3969,59,90,0
420.85672,421.25403,57,96,0
420.85672,421.25403,45,96,0
421.71387,422.11118,59,96,0
421.71387,422.11118,47,96,0
423.42816,425.0085,47,96,0
423.42816,425.0085,35,96,0
425.14243,425.53976,52,96,0
425.14243,425.53976,40,96,0
427.071,427.13797,61,67,0
427.14243,427.20938,59,67,0
427.21387,427.28082,58,67,0
427.28528,427.48618,59,67,0
427.49957,427.58887,61,67,0
427.71387,427.80313,63,67,0
427.92813,428.01743,64,67,0
428.14243,428.23172,66,67,0
428.35672,428.446,68,67,0
428.571,428.96832,64,67,0
429.42813,429.82547,45,67,0
430.28528,430.68262,47,67,0
431.14243,431.53973,35,67,0
431.99957,432.39688,40,67,0
432.85672,433.25403,59,106,0
432.85672,433.25403,47,106,0
433.71387,434.3076,52,106,0
433.71387,434.3076,40,106,0
35.999966,37.58032,59,67,0
37.71425,39.294605,59,67,0
46.285667,47.866024,54,67,0
47.99995,49.580307,54,67,0
87.42848,89.00884,54,67,0
90.857056,92.43741,54,67,0
186.42839,186.85695,55,67,0
186.85695,188.43732,54,67,0
193.28552,193.7141,57,67,0
193.7141,195.29445,56,67,0
262.28546,263.8658,52,67,0
263.99973,265.58008,52,67,0
306.85684,308.4372,59,67,0
310.2854,311.86575,59,67,0
