start_time,end_time,note_value,velocity,instrument_program_number
0.0,0.2142855,77,70,40
0.2142855,0.428571,81,70,40
0.428571,0.857142,84,70,40
0.857142,1.0714275,84,70,40
1.285713,1.4999985,84,70,40
1.714284,1.8214267,86,48,40
1.8214267,2.999997,84,49,40
2.999997,3.1071398,86,54,40
3.1071398,4.28571,84,55,40
4.28571,4.4999957,86,66,40
4.4999957,4.714281,84,61,40
4.714281,4.9285665,86,68,40
4.9285665,5.142852,84,63,40
5.142852,5.3571377,86,70,40
5.3571377,5.571423,84,65,40
5.571423,5.7857084,86,73,40
5.7857084,5.999994,84,67,40
5.999994,6.2142797,82,68,40
6.2142797,6.428565,81,69,40
6.428565,7.285707,79,70,40
7.285707,7.4999924,79,74,40
7.714278,7.9285636,79,76,40
8.142849,8.357135,79,78,40
8.357135,8.57142,81,79,40
8.57142,8.999991,77,70,40
8.999991,9.214276,74,70,40
9.214276,9.428562,77,70,40
9.428562,9.857133,81,48,40
9.857133,10.071419,81,50,40
10.285704,10.4999895,81,53,40
10.714275,10.821418,82,55,40
10.821418,11.999988,81,56,40
11.999988,12.214273,82,63,40
12.214273,12.428559,81,64,40
12.428559,12.642844,82,65,40
12.642844,12.85713,81,66,40
12.85713,13.071416,82,68,40
13.071416,13.285701,81,69,40
13.285701,13.499987,80,70,40
13.499987,13.714272,79,71,40
13.714272,13.928557,80,73,40
13.928557,14.142843,79,74,40
14.142843,14.357128,80,75,40
14.357128,14.571414,79,76,40
14.571414,14.7857,81,78,40
14.7857,14.999985,79,79,40
14.999985,15.214271,81,76,40
15.214271,15.428556,79,70,40
15.428556,15.642841,77,76,40
15.642841,15.857127,76,70,40
15.857127,16.071413,76,70,40
16.071413,16.285698,74,70,40
16.285698,16.33927,76,70,40
16.33927,16.392841,74,70,40
16.392841,16.446413,76,70,40
16.446413,16.499983,74,70,40
16.499983,16.71427,72,70,40
16.71427,16.928555,74,70,40
16.928555,17.14284,76,70,40
17.14284,17.357126,72,70,40
17.999983,18.214268,77,70,40
18.214268,18.428553,81,70,40
18.428553,18.857124,84,70,40
18.857124,19.07141,84,70,40
19.285694,19.49998,84,70,40
19.714266,19.82141,86,48,40
19.82141,20.999979,84,49,40
20.999979,21.107122,86,54,40
21.107122,22.285692,84,55,40
22.285692,22.499977,86,66,40
22.499977,22.714264,84,61,40
22.714264,22.928549,86,68,40
22.928549,23.142834,84,63,40
23.142834,23.357119,86,70,40
23.357119,23.571405,84,65,40
23.571405,23.78569,86,73,40
23.78569,23.999975,84,67,40
23.999975,24.214262,82,68,40
24.214262,24.428547,81,69,40
24.428547,25.285688,79,70,40
25.285688,25.499975,79,74,40
25.71426,25.928545,79,76,40
26.142832,26.357117,79,78,40
26.357117,26.571402,81,79,40
26.571402,26.999973,77,70,40
26.999973,27.214258,74,70,40
27.214258,27.428543,77,70,40
27.428543,27.857115,81,48,40
27.857115,28.0714,81,50,40
28.285686,28.499971,81,53,40
28.714256,28.8214,82,55,40
28.8214,29.99997,81,56,40
29.99997,30.214256,82,63,40
30.214256,30.428541,81,64,40
30.428541,30.642826,82,65,40
30.642826,30.857113,81,66,40
30.857113,31.071398,82,68,40
31.071398,31.285683,81,69,40
31.285683,31.499968,80,70,40
31.499968,31.714254,79,71,40
31.714254,31.92854,80,73,40
31.92854,32.142826,79,74,40
32.142826,32.35711,80,75,40
32.35711,32.571396,79,76,40
32.571396,32.785683,81,78,40
32.785683,32.999966,79,79,40
32.999966,33.214252,81,76,40
33.214252,33.42854,79,70,40
33.42854,33.642822,77,76,40
33.642822,33.85711,76,70,40
33.85711,34.071396,76,70,40
34.071396,34.28568,74,70,40
34.28568,34.339252,76,70,40
34.339252,34.392822,74,70,40
34.392822,34.446396,76,70,40
34.446396,34.499966,74,70,40
34.499966,34.714252,72,70,40
34.714252,34.928535,74,70,40
34.928535,35.142822,76,70,40
35.142822,35.35711,72,70,40
37.71425,37.92853,84,100,40
37.92853,38.14282,72,100,40
38.14282,38.357105,84,100,40
38.357105,38.57139,72,100,40
38.57139,38.785675,84,100,40
38.785675,38.99996,72,100,40
38.99996,39.214245,84,100,40
39.214245,39.42853,73,100,40
39.42853,39.64282,84,100,40
39.64282,39.8571,73,100,40
39.8571,40.07139,84,100,40
40.07139,40.285675,73,100,40
40.285675,40.499958,84,100,40
40.499958,40.714245,74,100,40
40.714245,40.92853,84,100,40
40.92853,41.142815,74,100,40
41.142815,41.3571,84,100,40
41.3571,41.57139,74,100,40
41.57139,41.78567,84,100,40
41.78567,41.999958,75,100,40
41.999958,42.214245,84,100,40
42.214245,42.428528,76,100,40
42.428528,42.642815,84,100,40
42.642815,42.8571,77,100,40
42.8571,43.071384,84,60,40
43.071384,43.28567,78,61,40
43.28567,43.499958,84,63,40
43.499958,43.71424,79,65,40
43.71424,43.928528,84,67,40
43.928528,44.142815,80,68,40
44.142815,44.357098,84,70,40
44.357098,44.571384,81,72,40
44.571384,44.78567,84,73,40
44.78567,44.999954,82,75,40
44.999954,45.21424,84,77,40
45.21424,45.428528,83,78,40
45.428528,45.64281,84,80,40
45.64281,45.857098,82,82,40
45.857098,46.07138,84,83,40
46.07138,46.285667,81,85,40
46.285667,46.499954,84,87,40
46.499954,46.714237,80,88,40
46.714237,46.928524,84,90,40
46.928524,47.14281,79,92,40
47.14281,47.357094,84,93,40
47.357094,47.57138,78,95,40
47.57138,47.785667,84,97,40
47.785667,47.99995,77,98,40
47.99995,48.214237,84,100,40
48.214237,48.428524,76,100,40
48.428524,48.642807,84,100,40
48.642807,48.857094,75,100,40
48.857094,49.07138,84,100,40
49.07138,49.285664,75,100,40
49.285664,49.49995,84,100,40
49.49995,49.714237,74,100,40
49.714237,49.92852,84,100,40
49.92852,50.142807,73,100,40
50.142807,50.357094,84,100,40
50.357094,50.571377,73,100,40
50.571377,50.67852,72,100,40
50.785664,50.892807,76,100,40
50.99995,51.10709,79,100,40
51.214233,51.321377,84,100,40
51.42852,51.642807,74,100,40
51.642807,51.85709,83,100,40
51.85709,51.964233,72,100,40
52.071377,52.17852,76,100,40
52.285664,52.392803,79,100,40
52.499947,52.60709,84,100,40
52.714233,52.92852,74,100,40
52.92852,53.142803,83,100,40
53.142803,53.571377,84,100,40
56.1428,56.46423,81,100,40
56.46423,56.571373,84,100,40
56.571373,56.999943,87,100,40
57.428513,57.749943,74,100,40
57.749943,57.857086,82,100,40
57.857086,58.285656,86,100,40
58.714226,59.035656,79,100,40
59.035656,59.1428,82,100,40
59.1428,59.57137,85,100,40
59.99994,60.32137,72,100,40
60.32137,60.428513,81,100,40
60.428513,60.857082,84,100,40
61.285652,61.607082,72,100,40
61.607082,61.714226,77,100,40
61.714226,62.142796,84,100,40
62.571365,62.892796,71,100,40
62.892796,62.999935,80,100,40
62.999935,63.42851,83,100,40
63.42851,63.85708,84,100,40
63.85708,64.28565,82,100,40
64.28565,64.51065,81,100,40
64.60708,64.71422,81,100,40
64.71422,65.14279,79,100,40
65.14279,65.571365,77,100,40
65.571365,65.99993,76,100,40
65.99993,66.10708,77,100,40
66.21422,66.321365,81,100,40
66.428505,66.535645,82,100,40
66.64279,66.74993,84,100,40
66.85708,66.96422,86,100,40
67.07136,67.178505,88,100,40
67.285645,67.71422,89,70,40
67.71422,68.14279,89,70,40
68.14279,68.57136,89,70,40
68.57136,69.85707,91,70,40
69.85707,70.9285,84,70,40
70.9285,71.035645,86,70,40
71.035645,71.142784,88,70,40
71.142784,71.54457,89,70,40
73.71421,73.9285,84,100,40
73.9285,74.142784,72,100,40
74.142784,74.35707,84,100,40
74.35707,74.57136,72,100,40
74.57136,74.78564,84,100,40
74.78564,74.99992,72,100,40
74.99992,75.21421,84,100,40
75.21421,75.4285,73,100,40
75.4285,75.642784,84,100,40
75.642784,75.85706,73,100,40
75.85706,76.07135,84,100,40
76.07135,76.28564,73,100,40
76.28564,76.49992,84,100,40
76.49992,76.71421,74,100,40
76.71421,76.9285,84,100,40
76.9285,77.14278,74,100,40
77.14278,77.35706,84,100,40
77.35706,77.57135,74,100,40
77.57135,77.78564,84,100,40
77.78564,77.99992,75,100,40
77.99992,78.21421,84,100,40
78.21421,78.42849,76,100,40
78.42849,78.64278,84,100,40
78.64278,78.85706,77,100,40
78.85706,79.07135,84,60,40
79.07135,79.28564,78,61,40
79.28564,79.49992,84,63,40
79.49992,79.7142,79,65,40
79.7142,79.92849,84,67,40
79.92849,80.14278,80,68,40
80.14278,80.35706,84,70,40
80.35706,80.57135,81,72,40
80.57135,80.78564,84,73,40
80.78564,80.999916,82,75,40
80.999916,81.2142,84,77,40
81.2142,81.42849,83,78,40
81.42849,81.64278,84,80,40
81.64278,81.85706,82,82,40
81.85706,82.07135,84,83,40
82.07135,82.28563,81,85,40
82.28563,82.499916,84,87,40
82.499916,82.7142,80,88,40
82.7142,82.92849,84,90,40
82.92849,83.14278,79,92,40
83.14278,83.35706,84,93,40
83.35706,83.57134,78,95,40
83.57134,83.78563,84,97,40
83.78563,83.999916,77,98,40
83.999916,84.2142,84,100,40
84.2142,84.42849,76,100,40
84.42849,84.64277,84,100,40
84.64277,84.857056,75,100,40
84.857056,85.07134,84,100,40
85.07134,85.28563,75,100,40
85.28563,85.499916,84,100,40
85.499916,85.7142,74,100,40
85.7142,85.92848,84,100,40
85.92848,86.14277,73,100,40
86.14277,86.357056,84,100,40
86.357056,86.57134,73,100,40
86.57134,86.67848,72,100,40
86.78563,86.89277,76,100,40
86.999916,87.107056,79,100,40
87.214195,87.32134,84,100,40
87.42848,87.64277,74,100,40
87.64277,87.857056,83,100,40
87.857056,87.964195,72,100,40
88.07134,88.17848,76,100,40
88.28563,88.39277,79,100,40
88.49991,88.607056,84,100,40
88.714195,88.92848,74,100,40
88.92848,89.14277,83,100,40
89.14277,89.57134,84,100,40
92.14276,92.464195,81,100,40
92.464195,92.571335,84,100,40
92.571335,92.99991,87,100,40
93.428474,93.74991,74,100,40
93.74991,93.85705,82,100,40
93.85705,94.28562,86,100,40
94.71419,95.03562,79,100,40
95.03562,95.14276,82,100,40
95.14276,95.571335,85,100,40
95.9999,96.321335,72,100,40
96.321335,96.428474,81,100,40
96.428474,96.85705,84,100,40
97.285614,97.60705,72,100,40
97.60705,97.71419,77,100,40
97.71419,98.14276,84,100,40
98.57133,98.89276,71,100,40
98.89276,98.9999,80,100,40
98.9999,99.428474,83,100,40
99.428474,99.85704,84,100,40
99.85704,100.285614,82,100,40
100.285614,100.51061,81,100,40
100.60704,100.71419,81,100,40
100.71419,101.14275,79,100,40
101.14275,101.57133,77,100,40
101.57133,101.9999,76,100,40
101.9999,102.10704,77,100,40
102.21418,102.32133,81,100,40
102.42847,102.535614,82,100,40
102.64275,102.7499,84,100,40
102.85704,102.96418,86,100,40
103.07133,103.17847,88,100,40
103.285614,103.71418,89,70,40
103.71418,104.14275,89,70,40
104.14275,104.57133,89,70,40
104.57133,105.85704,91,70,40
105.85704,106.92847,84,70,40
106.92847,107.03561,86,70,40
107.03561,107.14275,88,70,40
107.14275,107.54453,89,70,40
108.85703,108.96418,84,70,40
109.28561,109.392746,84,70,40
109.71417,109.82132,84,70,40
110.142746,110.24989,84,70,40
110.57132,110.67846,84,70,40
110.999886,111.42846,84,70,40
111.42846,111.85703,76,70,40
111.85703,112.2856,77,70,40
112.2856,112.392746,76,70,40
112.392746,112.499886,79,70,40
112.71417,112.82131,77,70,40
112.82131,112.92846,81,70,40
113.142746,113.249886,74,70,40
113.249886,113.35703,83,70,40
113.57131,113.67846,76,70,40
113.67846,113.7856,84,70,40
115.2856,115.39274,84,70,40
115.71417,115.82131,84,70,40
116.14274,116.249886,84,70,40
116.57131,116.67845,84,70,40
116.999886,117.107025,84,70,40
117.42845,117.857025,84,70,40
117.857025,118.2856,88,70,40
118.2856,118.714165,89,70,40
118.714165,118.82131,77,70,40
118.82131,118.92845,86,70,40
119.14274,119.24988,74,70,40
119.24988,119.357025,82,70,40
119.57131,119.67845,70,70,40
119.67845,119.78559,79,70,40
119.99988,120.107025,69,70,40
120.107025,120.214165,77,70,40
121.714165,121.821304,84,70,40
122.14274,122.24988,84,70,40
122.571304,122.67845,84,70,40
122.99988,123.10702,84,70,40
123.42845,123.53559,84,70,40
123.85702,124.28559,84,70,40
124.28559,124.714165,76,70,40
124.714165,125.14273,77,70,40
125.14273,125.24988,76,70,40
125.24988,125.35702,79,70,40
125.571304,125.678444,77,70,40
125.678444,125.78559,81,70,40
125.99987,126.10702,74,70,40
126.10702,126.21416,83,70,40
126.428444,126.53559,76,70,40
126.53559,126.64273,84,70,40
128.14273,128.24988,84,70,40
128.5713,128.67844,84,70,40
128.99988,129.10701,84,70,40
129.42844,129.53558,84,70,40
129.85701,129.96416,84,70,40
130.28558,130.71416,84,70,40
130.71416,131.14273,88,70,40
131.14273,131.5713,89,70,40
131.5713,131.67844,77,70,40
131.67844,131.78558,86,70,40
131.99986,132.10701,74,70,40
132.10701,132.21416,82,70,40
132.42844,132.53558,70,70,40
132.53558,132.64273,79,70,40
132.85701,132.96416,69,70,40
132.96416,133.07129,77,70,40
133.71416,134.14272,82,100,40
134.14272,134.99986,81,100,40
134.99986,135.42844,82,100,40
135.42844,135.64272,81,100,40
135.64272,135.85701,79,100,40
135.85701,136.07129,81,100,40
136.07129,136.17844,77,100,40
136.28558,136.39272,86,100,40
136.49986,136.60701,82,100,40
136.71414,137.57129,81,100,40
137.57129,137.99986,82,100,40
137.99986,138.21414,81,100,40
138.21414,138.42844,79,100,40
138.42844,138.64272,81,100,40
138.64272,138.74986,77,100,40
138.85701,138.96414,86,100,40
139.07129,139.17844,82,100,40
139.28557,139.49986,78,100,40
139.49986,139.71414,76,100,40
139.71414,139.92844,78,100,40
139.92844,140.03557,74,100,40
140.14272,140.24986,82,100,40
140.35701,140.46414,79,100,40
140.57129,140.78557,76,100,40
140.78557,140.99986,74,100,40
140.99986,141.21414,76,100,40
141.21414,141.42844,72,100,40
141.42844,141.64272,81,100,40
141.64272,141.857,77,100,40
141.857,141.96414,78,100,40
141.96414,142.07129,79,100,40
142.28557,142.39272,81,100,40
142.39272,142.49986,82,100,40
142.71414,142.82129,85,100,40
142.82129,142.92842,86,100,40
143.14272,143.57129,77,92,40
143.57129,143.87129,76,70,40
144.857,144.96414,84,70,40
145.28557,145.39272,84,70,40
145.71414,145.82129,84,70,40
146.14272,146.24985,84,70,40
146.57129,146.67842,84,70,40
146.99985,147.42842,84,70,40
147.42842,147.857,76,70,40
147.857,148.28557,77,70,40
148.28557,148.39272,76,70,40
148.39272,148.49985,79,70,40
148.71414,148.82127,77,70,40
148.82127,148.92842,81,70,40
149.14272,149.24985,74,70,40
149.24985,149.357,83,70,40
149.57127,149.67842,76,70,40
149.67842,149.78557,84,70,40
150.42842,150.857,81,70,40
150.857,151.07127,82,70,40
151.07127,151.28557,84,70,40
151.28557,151.49985,86,70,40
151.49985,151.607,84,70,40
151.71413,151.82127,82,70,40
151.92842,152.03557,81,70,40
152.1427,152.24985,79,70,40
152.357,152.46413,81,70,40
152.57127,152.67842,82,70,40
152.78557,152.8927,81,70,40
152.99985,153.107,79,70,40
153.21413,153.32127,77,70,40
153.42842,153.53557,76,70,40
153.6427,153.74985,74,70,40
153.857,153.96413,72,70,40
154.07127,154.17842,70,70,40
154.28555,154.71413,69,70,40
159.4284,159.53555,81,70,40
159.53555,159.6427,89,70,40
159.85698,159.96413,77,70,40
159.96413,160.07127,86,70,40
160.28555,160.3927,74,70,40
160.3927,160.49983,82,70,40
160.71413,160.82127,70,70,40
160.82127,160.9284,79,70,40
161.1427,161.24983,67,70,40
161.24983,161.35698,76,70,40
161.57127,161.6784,76,70,40
161.6784,161.78555,84,70,40
161.99983,162.10698,70,70,40
162.10698,162.21413,76,70,40
162.4284,162.53555,69,70,40
162.53555,162.6427,77,70,40
163.28555,163.71413,82,100,40
163.71413,164.57126,81,100,40
164.57126,164.99983,82,100,40
164.99983,165.21413,81,100,40
165.21413,165.4284,79,100,40
165.4284,165.64268,81,100,40
165.64268,165.74983,77,100,40
165.85698,165.96413,86,100,40
166.07126,166.1784,82,100,40
166.28555,167.14268,81,100,40
167.14268,167.57126,82,100,40
167.57126,167.78555,81,100,40
167.78555,167.99983,79,100,40
167.99983,168.21411,81,100,40
168.21411,168.32126,77,100,40
168.4284,168.53555,86,100,40
168.64268,168.74983,82,100,40
168.85698,169.07126,78,100,40
169.07126,169.28554,76,100,40
169.28554,169.49983,78,100,40
169.49983,169.60698,74,100,40
169.71411,169.82126,82,100,40
169.9284,170.03554,79,100,40
170.14268,170.35698,76,100,40
170.35698,170.57126,74,100,40
170.57126,170.78554,76,100,40
170.78554,170.99983,72,100,40
170.99983,171.21411,81,100,40
171.21411,171.4284,77,100,40
171.4284,171.53554,78,100,40
171.53554,171.64268,79,100,40
171.85696,171.96411,81,100,40
171.96411,172.07126,82,100,40
172.28554,172.39268,85,100,40
172.39268,172.49983,86,100,40
172.71411,173.14268,77,92,40
173.14268,173.44269,76,70,40
174.42839,174.53554,84,70,40
174.85696,174.96411,84,70,40
175.28554,175.39268,84,70,40
175.71411,175.82126,84,70,40
176.14268,176.24982,84,70,40
176.57126,176.99982,84,70,40
176.99982,177.42839,76,70,40
177.42839,177.85696,77,70,40
177.85696,177.96411,76,70,40
177.96411,178.07124,79,70,40
178.28554,178.39268,77,70,40
178.39268,178.49982,81,70,40
178.71411,178.82124,74,70,40
178.82124,178.92839,83,70,40
179.14268,179.24982,76,70,40
179.24982,179.35696,84,70,40
179.99982,180.42839,81,70,40
180.42839,180.64267,82,70,40
180.64267,180.85696,84,70,40
180.85696,181.07124,86,70,40
181.07124,181.17839,84,70,40
181.28554,181.39267,82,70,40
181.49982,181.60696,81,70,40
181.71411,181.82124,79,70,40
181.92839,182.03554,81,70,40
182.14267,182.24982,82,70,40
182.35696,182.4641,81,70,40
182.57124,182.67839,79,70,40
182.78554,182.89267,77,70,40
182.99982,183.10696,76,70,40
183.2141,183.32124,74,70,40
183.42839,183.53554,72,70,40
183.64267,183.74982,70,70,40
183.85696,184.28552,69,70,40
188.99982,189.10695,81,70,40
189.10695,189.2141,89,70,40
189.42838,189.53552,77,70,40
189.53552,189.64267,86,70,40
189.85695,189.9641,74,70,40
189.9641,190.07124,82,70,40
190.28552,190.39267,70,70,40
190.39267,190.49982,79,70,40
190.7141,190.82124,67,70,40
190.82124,190.92838,76,70,40
191.14267,191.2498,76,70,40
191.2498,191.35695,84,70,40
191.57124,191.67838,70,70,40
191.67838,191.78552,76,70,40
191.9998,192.10695,69,70,40
192.10695,192.2141,77,70,40
192.85695,193.07123,77,70,40
193.07123,193.28552,81,70,40
193.28552,193.7141,84,70,40
193.7141,193.92838,84,70,40
194.14267,194.35695,84,70,40
194.57123,194.67838,86,48,40
194.67838,195.85695,84,49,40
195.85695,195.9641,86,54,40
195.9641,197.14265,84,55,40
197.14265,197.35695,86,66,40
197.35695,197.57123,84,61,40
197.57123,197.78552,86,68,40
197.78552,197.9998,84,63,40
197.9998,198.21408,86,70,40
198.21408,198.42838,84,65,40
198.42838,198.64265,86,73,40
198.64265,198.85695,84,67,40
198.85695,199.07123,82,68,40
199.07123,199.28552,81,69,40
199.28552,200.14265,79,70,40
200.14265,200.35695,79,74,40
200.57123,200.7855,79,76,40
200.9998,201.21408,79,78,40
201.21408,201.42838,81,79,40
201.42838,201.85693,77,70,40
201.85693,202.07123,74,70,40
202.07123,202.2855,77,70,40
202.2855,202.71408,81,48,40
202.71408,202.92838,81,50,40
203.14265,203.35693,81,53,40
203.57123,203.67838,82,55,40
203.67838,204.85693,81,56,40
204.85693,205.07123,82,63,40
205.07123,205.2855,81,64,40
205.2855,205.4998,82,65,40
205.4998,205.71408,81,66,40
205.71408,205.92836,82,68,40
205.92836,206.14265,81,69,40
206.14265,206.35693,80,70,40
206.35693,206.57123,79,71,40
206.57123,206.7855,80,73,40
206.7855,206.99979,79,74,40
206.99979,207.21408,80,75,40
207.21408,207.42836,79,76,40
207.42836,207.64265,81,78,40
207.64265,207.85693,79,79,40
207.85693,208.07123,81,76,40
208.07123,208.2855,79,70,40
208.2855,208.49979,77,76,40
208.49979,208.71408,76,70,40
208.71408,208.92836,76,70,40
208.92836,209.14265,74,70,40
209.14265,209.19621,76,70,40
209.19621,209.24979,74,70,40
209.24979,209.30336,76,70,40
209.30336,209.35693,74,70,40
209.35693,209.57121,72,70,40
209.57121,209.7855,74,70,40
209.7855,209.99979,76,70,40
209.99979,210.21408,72,70,40
212.57121,212.7855,84,100,40
212.7855,212.99979,72,100,40
212.99979,213.21407,84,100,40
213.21407,213.42836,72,100,40
213.42836,213.64264,84,100,40
213.64264,213.85693,72,100,40
213.85693,214.07121,84,100,40
214.07121,214.2855,73,100,40
214.2855,214.49979,84,100,40
214.49979,214.71407,73,100,40
214.71407,214.92836,84,100,40
214.92836,215.14264,73,100,40
215.14264,215.35693,84,100,40
215.35693,215.57121,74,100,40
215.57121,215.78549,84,100,40
215.78549,215.99979,74,100,40
215.99979,216.21407,84,100,40
216.21407,216.42836,74,100,40
216.42836,216.64264,84,100,40
216.64264,216.85693,75,100,40
216.85693,217.07121,84,100,40
217.07121,217.28549,76,100,40
217.28549,217.49979,84,100,40
217.49979,217.71407,77,100,40
217.71407,217.92836,84,60,40
217.92836,218.14264,78,61,40
218.14264,218.35692,84,63,40
218.35692,218.57121,79,65,40
218.57121,218.78549,84,67,40
218.78549,218.99979,80,68,40
218.99979,219.21407,84,70,40
219.21407,219.42834,81,72,40
219.42834,219.64264,84,73,40
219.64264,219.85692,82,75,40
219.85692,220.07121,84,77,40
220.07121,220.28549,83,78,40
220.28549,220.49979,84,80,40
220.49979,220.71407,82,82,40
220.71407,220.92834,84,83,40
220.92834,221.14264,81,85,40
221.14264,221.35692,84,87,40
221.35692,221.57121,80,88,40
221.57121,221.78549,84,90,40
221.78549,221.99977,79,92,40
221.99977,222.21407,84,93,40
222.21407,222.42834,78,95,40
222.42834,222.64264,84,97,40
222.64264,222.85692,77,98,40
222.85692,223.07121,84,100,40
223.07121,223.28549,76,100,40
223.28549,223.49977,84,100,40
223.49977,223.71407,75,100,40
223.71407,223.92834,84,100,40
223.92834,224.14264,75,100,40
224.14264,224.35692,84,100,40
224.35692,224.5712,74,100,40
224.5712,224.78549,84,100,40
224.78549,224.99977,73,100,40
224.99977,225.21407,84,100,40
225.21407,225.42834,73,100,40
225.42834,225.53549,72,100,40
225.64262,225.74977,76,100,40
225.85692,225.96407,79,100,40
226.0712,226.17834,84,100,40
226.28549,226.49977,74,100,40
226.49977,226.71407,83,100,40
226.71407,226.8212,72,100,40
226.92834,227.03549,76,100,40
227.14262,227.24977,79,100,40
227.35692,227.46407,84,100,40
227.5712,227.78549,74,100,40
227.78549,227.99977,83,100,40
227.99977,228.42834,84,100,40
230.99977,231.3212,81,100,40
231.3212,231.42834,84,100,40
231.42834,231.85692,87,100,40
232.28548,232.6069,74,100,40
232.6069,232.71405,82,100,40
232.71405,233.14262,86,100,40
233.5712,233.89262,79,100,40
233.89262,233.99977,82,100,40
233.99977,234.42833,85,100,40
234.8569,235.17833,72,100,40
235.17833,235.28548,81,100,40
235.28548,235.71405,84,100,40
236.14262,236.46405,72,100,40
236.46405,236.5712,77,100,40
236.5712,236.99976,84,100,40
237.42833,237.74976,71,100,40
237.74976,237.8569,80,100,40
237.8569,238.28548,83,100,40
238.28548,238.71405,84,100,40
238.71405,239.14262,82,100,40
239.14262,239.46405,81,100,40
239.46405,239.57118,81,100,40
239.57118,239.99976,79,100,40
239.99976,240.42833,77,100,40
240.42833,240.8569,76,100,40
240.8569,240.96405,77,100,40
241.07118,241.17833,81,100,40
241.28548,241.39261,82,100,40
241.49976,241.6069,84,100,40
241.71405,241.82118,86,100,40
241.92833,242.03548,88,100,40
242.14261,242.57118,89,70,40
242.57118,242.99976,89,70,40
242.99976,243.42833,89,70,40
243.42833,244.71404,91,70,40
244.71404,245.78546,84,70,40
245.78546,245.89261,86,70,40
245.89261,245.99976,88,70,40
245.99976,246.40154,89,70,40
247.30154,247.70332,89,70,40
1.714284,1.9285696,65,36,40
1.9285696,2.142855,69,37,40
2.142855,2.3571405,65,38,40
2.3571405,2.571426,69,38,40
2.571426,2.7857115,65,39,40
2.7857115,2.999997,69,40,40
2.999997,3.2142825,67,41,40
3.2142825,3.428568,70,41,40
3.428568,3.6428535,67,42,40
3.6428535,3.857139,70,43,40
3.857139,4.0714245,67,44,40
4.0714245,4.28571,70,44,40
4.28571,4.4999957,69,45,40
4.4999957,4.714281,72,46,40
4.714281,4.9285665,69,47,40
4.9285665,5.142852,72,47,40
5.142852,5.3571377,69,48,40
5.3571377,5.571423,72,49,40
5.571423,5.7857084,70,50,40
5.7857084,5.999994,74,50,40
5.999994,6.2142797,70,51,40
6.2142797,6.428565,74,52,40
6.428565,6.6428504,70,53,40
6.6428504,6.857136,74,53,40
6.857136,7.0714216,72,54,40
7.0714216,7.285707,76,55,40
7.285707,7.4999924,72,56,40
7.4999924,7.714278,76,56,40
7.714278,7.9285636,72,57,40
7.9285636,8.142849,76,58,40
8.142849,8.57142,65,78,40
8.999991,9.214276,62,49,40
9.214276,9.428562,65,49,40
9.428562,9.857133,69,38,40
9.857133,10.071419,69,40,40
10.285704,10.4999895,69,42,40
10.714275,10.821418,70,44,40
10.821418,11.999988,69,45,40
11.999988,12.214273,70,50,40
12.214273,12.428559,69,51,40
12.428559,12.642844,70,52,40
12.642844,12.85713,69,53,40
12.85713,13.071416,70,54,40
13.071416,13.285701,69,55,40
13.285701,13.499987,68,56,40
13.499987,13.714272,67,57,40
13.714272,13.928557,68,58,40
13.928557,14.142843,67,59,40
14.142843,14.357128,68,60,40
14.357128,14.571414,67,61,40
14.571414,14.7857,69,62,40
14.7857,14.999985,67,63,40
14.999985,15.214271,69,42,40
15.214271,15.428556,67,39,40
15.428556,15.642841,65,42,40
15.642841,15.857127,64,39,40
15.857127,16.071413,64,39,40
16.071413,16.285698,62,39,40
16.285698,16.33927,64,49,40
16.33927,16.392841,62,49,40
16.392841,16.446413,64,49,40
16.446413,16.499983,62,49,40
16.499983,16.71427,60,49,40
16.71427,16.928555,62,49,40
16.928555,17.14284,64,49,40
17.14284,17.357126,60,49,40
19.714266,19.92855,65,36,40
19.92855,20.142838,69,37,40
20.142838,20.357122,65,38,40
20.357122,20.571407,69,38,40
20.571407,20.785694,65,39,40
20.785694,20.999979,69,40,40
20.999979,21.214264,67,41,40
21.214264,21.42855,70,41,40
21.42855,21.642836,67,42,40
21.642836,21.85712,70,43,40
21.85712,22.071407,67,44,40
22.071407,22.285692,70,44,40
22.285692,22.499977,69,45,40
22.499977,22.714264,72,46,40
22.714264,22.928549,69,47,40
22.928549,23.142834,72,47,40
23.142834,23.357119,69,48,40
23.357119,23.571405,72,49,40
23.571405,23.78569,70,50,40
23.78569,23.999975,74,50,40
23.999975,24.214262,70,51,40
24.214262,24.428547,74,52,40
24.428547,24.642832,70,53,40
24.642832,24.857119,74,53,40
24.857119,25.071404,72,54,40
25.071404,25.285688,76,55,40
25.285688,25.499975,72,56,40
25.499975,25.71426,76,56,40
25.71426,25.928545,72,57,40
25.928545,26.142832,76,58,40
26.142832,26.571402,65,78,40
26.999973,27.214258,62,49,40
27.214258,27.428543,65,49,40
27.428543,27.857115,69,38,40
27.857115,28.0714,69,40,40
28.285686,28.499971,69,42,40
28.714256,28.8214,70,44,40
28.8214,29.99997,69,45,40
29.99997,30.214256,70,50,40
30.214256,30.428541,69,51,40
30.428541,30.642826,70,52,40
30.642826,30.857113,69,53,40
30.857113,31.071398,70,54,40
31.071398,31.285683,69,55,40
31.285683,31.499968,68,56,40
31.499968,31.714254,67,57,40
31.714254,31.92854,68,58,40
31.92854,32.142826,67,59,40
32.142826,32.35711,68,60,40
32.35711,32.571396,67,61,40
32.571396,32.785683,69,62,40
32.785683,32.999966,67,63,40
32.999966,33.214252,69,42,40
33.214252,33.42854,67,39,40
33.42854,33.642822,65,42,40
33.642822,33.85711,64,39,40
33.85711,34.071396,64,39,40
34.071396,34.28568,62,39,40
34.28568,34.339252,64,49,40
34.339252,34.392822,62,49,40
34.392822,34.446396,64,49,40
34.446396,34.499966,62,49,40
34.499966,34.714252,60,49,40
34.714252,34.928535,62,49,40
34.928535,35.142822,64,49,40
35.142822,35.35711,60,49,40
35.999966,36.21425,60,100,40
36.21425,36.428535,64,100,40
36.428535,36.857105,67,100,40
36.857105,37.071392,67,100,40
37.28568,37.49996,67,100,40
37.71425,37.821392,68,100,40
37.821392,38.99996,67,100,40
38.99996,39.107105,70,100,40
39.107105,40.285675,68,100,40
40.285675,40.39282,70,100,40
40.39282,41.57139,69,100,40
41.57139,42.428528,70,100,40
42.428528,42.8571,72,100,40
42.8571,47.99995,72,60,40
47.99995,48.428524,71,100,40
48.428524,49.285664,70,100,40
49.285664,49.714237,69,100,40
49.714237,50.571377,68,100,40
50.571377,50.99995,67,100,40
51.42852,51.85709,65,100,40
51.85709,52.285664,64,100,40
52.714233,53.142803,65,100,40
53.142803,53.571377,64,100,40
56.1428,56.46423,69,70,40
56.46423,56.571373,72,70,40
56.571373,56.999943,75,70,40
57.428513,57.749943,62,70,40
57.749943,57.857086,70,70,40
57.857086,58.285656,74,70,40
58.714226,59.035656,67,70,40
59.035656,59.1428,70,70,40
59.1428,59.57137,73,70,40
59.99994,60.32137,60,70,40
60.32137,60.428513,69,70,40
60.428513,60.857082,72,70,40
61.285652,61.607082,60,70,40
61.607082,61.714226,65,70,40
61.714226,62.142796,72,70,40
62.571365,62.892796,59,70,40
62.892796,62.999935,68,70,40
62.999935,63.42851,71,70,40
63.42851,63.85708,72,70,40
63.85708,64.28565,70,70,40
64.28565,64.51065,69,70,40
64.60708,64.71422,69,70,40
64.71422,65.14279,67,70,40
65.14279,65.571365,65,70,40
65.571365,65.99993,64,70,40
65.99993,66.21422,65,70,40
67.71422,67.928505,69,39,40
68.14279,68.35707,69,39,40
68.99993,69.21422,74,39,40
69.428505,69.642784,74,39,40
70.285645,70.71422,67,39,40
70.71422,71.142784,70,39,40
71.142784,71.35707,69,39,40
71.99993,72.21421,60,100,40
72.21421,72.4285,64,100,40
72.4285,72.85707,67,100,40
72.85707,73.07136,67,100,40
73.285645,73.49992,67,100,40
73.71421,73.82136,68,100,40
73.82136,74.99992,67,100,40
74.99992,75.10707,70,100,40
75.10707,76.28564,68,100,40
76.28564,76.392784,70,100,40
76.392784,77.57135,69,100,40
77.57135,78.42849,70,100,40
78.42849,78.85706,72,100,40
78.85706,83.999916,72,60,40
83.999916,84.42849,71,100,40
84.42849,85.28563,70,100,40
85.28563,85.7142,69,100,40
85.7142,86.57134,68,100,40
86.57134,86.999916,67,100,40
87.42848,87.857056,65,100,40
87.857056,88.28563,64,100,40
88.714195,89.14277,65,100,40
89.14277,89.57134,64,100,40
92.14276,92.464195,69,70,40
92.464195,92.571335,72,70,40
92.571335,92.99991,75,70,40
93.428474,93.74991,62,70,40
93.74991,93.85705,70,70,40
93.85705,94.28562,74,70,40
94.71419,95.03562,67,70,40
95.03562,95.14276,70,70,40
95.14276,95.571335,73,70,40
95.9999,96.321335,60,70,40
96.321335,96.428474,69,70,40
96.428474,96.85705,72,70,40
97.285614,97.60705,60,70,40
97.60705,97.71419,65,70,40
97.71419,98.14276,72,70,40
98.57133,98.89276,59,70,40
98.89276,98.9999,68,70,40
98.9999,99.428474,71,70,40
99.428474,99.85704,72,70,40
99.85704,100.285614,70,70,40
100.285614,100.51061,69,70,40
100.60704,100.71419,69,70,40
100.71419,101.14275,67,70,40
101.14275,101.57133,65,70,40
101.57133,101.9999,64,70,40
101.9999,102.21418,65,70,40
103.71418,103.92847,69,39,40
104.14275,104.35704,69,39,40
104.99989,105.21418,74,39,40
105.42847,105.64275,74,39,40
106.28561,106.71418,67,39,40
106.71418,107.14275,70,39,40
107.14275,107.35703,69,39,40
107.99989,108.34275,69,56,40
108.42847,108.642746,70,70,40
108.642746,108.85703,72,70,40
108.85703,109.07132,74,70,40
109.07132,109.17846,72,70,40
109.28561,109.392746,70,70,40
109.49989,109.60703,69,70,40
109.71417,109.82132,67,70,40
109.92846,110.03561,69,70,40
110.142746,110.24989,70,70,40
110.35703,110.46417,69,70,40
110.57132,110.67846,67,70,40
110.78561,110.892746,65,70,40
110.999886,111.42846,64,70,40
111.42846,111.85703,67,70,40
111.85703,112.2856,65,70,40
112.2856,112.392746,64,70,40
112.71417,112.82131,72,70,40
113.142746,113.249886,77,70,40
113.57131,113.67846,76,70,40
114.42846,114.857025,69,70,40
114.857025,115.07131,70,70,40
115.07131,115.2856,72,70,40
115.2856,115.499886,74,70,40
115.499886,115.607025,72,70,40
115.71417,115.82131,70,70,40
115.92846,116.0356,69,70,40
116.14274,116.249886,67,70,40
116.357025,116.46417,69,70,40
116.57131,116.67845,70,70,40
116.7856,116.89274,69,70,40
116.999886,117.107025,67,70,40
117.214165,117.32131,65,70,40
117.42845,117.857025,64,70,40
117.857025,118.2856,67,70,40
118.2856,118.714165,65,70,40
118.714165,118.92845,65,70,40
119.57131,119.67845,64,70,40
119.99988,120.214165,65,70,40
120.857025,121.19988,69,56,40
121.28559,121.49988,70,70,40
121.49988,121.714165,72,70,40
121.714165,121.92845,74,70,40
121.92845,122.03559,72,70,40
122.14274,122.24988,70,70,40
122.35702,122.464165,69,70,40
122.571304,122.67845,67,70,40
122.78559,122.89273,69,70,40
122.99988,123.10702,70,70,40
123.214165,123.321304,69,70,40
123.42845,123.53559,67,70,40
123.64273,123.74988,65,70,40
123.85702,124.28559,64,70,40
124.28559,124.714165,67,70,40
124.714165,125.14273,65,70,40
125.14273,125.24988,64,70,40
125.571304,125.678444,72,70,40
125.99987,126.10702,77,70,40
126.428444,126.53559,76,70,40
127.28558,127.71416,69,70,40
127.71416,127.928444,70,70,40
127.928444,128.14273,72,70,40
128.14273,128.35701,74,70,40
128.35701,128.46416,72,70,40
128.5713,128.67844,70,70,40
128.78558,128.89273,69,70,40
128.99988,129.10701,67,70,40
129.21416,129.3213,69,70,40
129.42844,129.53558,70,70,40
129.64273,129.74986,69,70,40
129.85701,129.96416,67,70,40
130.0713,130.17844,65,70,40
130.28558,130.71416,64,70,40
130.71416,131.14273,67,70,40
131.14273,131.5713,65,70,40
131.5713,131.78558,65,70,40
132.42844,132.53558,64,70,40
132.85701,133.07129,65,70,40
133.71416,133.92844,62,100,40
133.92844,134.14272,65,100,40
134.14272,134.35701,63,100,40
134.35701,134.57129,62,100,40
134.57129,134.78558,63,100,40
134.78558,134.99986,60,100,40
134.99986,135.10701,62,94,40
135.21416,135.32129,65,75,40
135.42844,135.64272,63,100,40
135.64272,135.85701,62,100,40
135.85701,136.07129,63,100,40
136.07129,136.28558,60,100,40
136.28558,136.39272,62,94,40
136.49986,136.60701,65,75,40
136.71414,136.92844,63,100,40
136.92844,137.14272,62,100,40
137.14272,137.35701,63,100,40
137.35701,137.57129,60,100,40
137.57129,137.67844,62,94,40
137.78558,137.89272,65,75,40
137.99986,138.21414,63,100,40
138.21414,138.42844,62,100,40
138.42844,138.64272,63,100,40
138.64272,138.85701,60,100,40
138.85701,138.96414,62,94,40
139.07129,139.17844,65,75,40
139.28557,139.49986,60,100,40
139.49986,139.71414,58,100,40
139.71414,139.92844,60,100,40
139.92844,140.14272,57,100,40
140.14272,140.24986,58,94,40
140.35701,140.46414,62,75,40
140.57129,140.78557,58,100,40
140.78557,140.99986,57,100,40
140.99986,141.21414,58,100,40
141.21414,141.42844,55,100,40
141.42844,141.53557,57,94,40
141.64272,141.74986,60,75,40
141.857,142.28557,62,100,40
142.71414,142.92842,65,100,40
143.14272,143.57129,69,92,40
143.57129,143.87129,67,70,40
143.99986,144.42842,69,70,40
144.42842,144.64272,70,70,40
144.64272,144.857,72,70,40
144.857,145.07129,74,70,40
145.07129,145.17842,72,70,40
145.28557,145.39272,70,70,40
145.49985,145.607,69,70,40
145.71414,145.82129,67,70,40
145.92842,146.03557,69,70,40
146.14272,146.24985,70,70,40
146.357,146.46414,69,70,40
146.57129,146.67842,67,70,40
146.78557,146.89272,65,70,40
146.99985,147.42842,64,70,40
147.42842,147.857,70,70,40
147.857,148.28557,69,70,40
148.28557,148.39272,67,70,40
148.71414,148.82127,62,70,40
149.14272,149.24985,77,70,40
149.57127,149.67842,76,70,40
156.85698,157.28555,65,70,40
157.28555,157.71413,65,70,40
157.71413,158.1427,70,70,40
158.1427,158.57127,74,70,40
158.57127,159.85698,72,70,40
159.85698,160.07127,67,70,40
161.1427,161.35698,58,70,40
161.99983,162.10698,67,70,40
162.4284,162.6427,65,70,40
163.28555,163.49983,62,100,40
163.49983,163.71413,65,100,40
163.71413,163.9284,63,100,40
163.9284,164.1427,62,100,40
164.1427,164.35698,63,100,40
164.35698,164.57126,60,100,40
164.57126,164.6784,62,94,40
164.78555,164.89268,65,75,40
164.99983,165.21413,63,100,40
165.21413,165.4284,62,100,40
165.4284,165.64268,63,100,40
165.64268,165.85698,60,100,40
165.85698,165.96413,62,94,40
166.07126,166.1784,65,75,40
166.28555,166.49983,63,100,40
166.49983,166.71413,62,100,40
166.71413,166.9284,63,100,40
166.9284,167.14268,60,100,40
167.14268,167.24983,62,94,40
167.35698,167.46411,65,75,40
167.57126,167.78555,63,100,40
167.78555,167.99983,62,100,40
167.99983,168.21411,63,100,40
168.21411,168.4284,60,100,40
168.4284,168.53555,62,94,40
168.64268,168.74983,65,75,40
168.85698,169.07126,60,100,40
169.07126,169.28554,58,100,40
169.28554,169.49983,60,100,40
169.49983,169.71411,57,100,40
169.71411,169.82126,58,94,40
169.9284,170.03554,62,75,40
170.14268,170.35698,58,100,40
170.35698,170.57126,57,100,40
170.57126,170.78554,58,100,40
170.78554,170.99983,55,100,40
170.99983,171.10698,57,94,40
171.21411,171.32126,60,75,40
171.4284,171.85696,62,100,40
172.28554,172.49983,65,100,40
172.71411,173.14268,69,92,40
173.14268,173.44269,67,70,40
173.57126,173.99983,69,70,40
173.99983,174.21411,70,70,40
174.21411,174.42839,72,70,40
174.42839,174.64268,74,70,40
174.64268,174.74983,72,70,40
174.85696,174.96411,70,70,40
175.07126,175.17839,69,70,40
175.28554,175.39268,67,70,40
175.49982,175.60696,69,70,40
175.71411,175.82126,70,70,40
175.92839,176.03554,69,70,40
176.14268,176.24982,67,70,40
176.35696,176.46411,65,70,40
176.57126,176.99982,64,70,40
176.99982,177.42839,70,70,40
177.42839,177.85696,69,70,40
177.85696,177.96411,67,70,40
178.28554,178.39268,62,70,40
178.71411,178.82124,77,70,40
179.14268,179.24982,76,70,40
186.42839,186.85695,65,70,40
186.85695,187.28552,65,70,40
187.28552,187.7141,70,70,40
187.7141,188.14267,74,70,40
188.14267,189.42838,72,70,40
189.42838,189.64267,67,70,40
190.7141,190.92838,58,70,40
191.57124,191.67838,67,70,40
191.9998,192.2141,65,70,40
194.57123,194.78552,65,36,40
194.78552,194.9998,69,37,40
194.9998,195.2141,65,38,40
195.2141,195.42838,69,38,40
195.42838,195.64265,65,39,40
195.64265,195.85695,69,40,40
195.85695,196.07123,67,41,40
196.07123,196.28552,70,41,40
196.28552,196.4998,67,42,40
196.4998,196.7141,70,43,40
196.7141,196.92838,67,44,40
196.92838,197.14265,70,44,40
197.14265,197.35695,69,45,40
197.35695,197.57123,72,46,40
197.57123,197.78552,69,47,40
197.78552,197.9998,72,47,40
197.9998,198.21408,69,48,40
198.21408,198.42838,72,49,40
198.42838,198.64265,70,50,40
198.64265,198.85695,74,50,40
198.85695,199.07123,70,51,40
199.07123,199.28552,74,52,40
199.28552,199.4998,70,53,40
199.4998,199.71408,74,53,40
199.71408,199.92838,72,54,40
199.92838,200.14265,76,55,40
200.14265,200.35695,72,56,40
200.35695,200.57123,76,56,40
200.57123,200.7855,72,57,40
200.7855,200.9998,76,58,40
200.9998,201.42838,65,78,40
201.85693,202.07123,62,49,40
202.07123,202.2855,65,49,40
202.2855,202.71408,69,38,40
202.71408,202.92838,69,40,40
203.14265,203.35693,69,42,40
203.57123,203.67838,70,44,40
203.67838,204.85693,69,45,40
204.85693,205.07123,70,50,40
205.07123,205.2855,69,51,40
205.2855,205.4998,70,52,40
205.4998,205.71408,69,53,40
205.71408,205.92836,70,54,40
205.92836,206.14265,69,55,40
206.14265,206.35693,68,56,40
206.35693,206.57123,67,57,40
206.57123,206.7855,68,58,40
206.7855,206.99979,67,59,40
206.99979,207.21408,68,60,40
207.21408,207.42836,67,61,40
207.42836,207.64265,69,62,40
207.64265,207.85693,67,63,40
207.85693,208.07123,69,42,40
208.07123,208.2855,67,39,40
208.2855,208.49979,65,42,40
208.49979,208.71408,64,39,40
208.71408,208.92836,64,39,40
208.92836,209.14265,62,39,40
209.14265,209.19621,64,49,40
209.19621,209.24979,62,49,40
209.24979,209.30336,64,49,40
209.30336,209.35693,62,49,40
209.35693,209.57121,60,49,40
209.57121,209.7855,62,49,40
209.7855,209.99979,64,49,40
209.99979,210.21408,60,49,40
210.85693,211.07121,60,100,40
211.07121,211.2855,64,100,40
211.2855,211.71408,67,100,40
211.71408,211.92836,67,100,40
212.14264,212.35693,67,100,40
212.57121,212.67836,68,100,40
212.67836,213.85693,67,100,40
213.85693,213.96407,70,100,40
213.96407,215.14264,68,100,40
215.14264,215.24979,70,100,40
215.24979,216.42836,69,100,40
216.42836,217.28549,70,100,40
217.28549,217.71407,72,100,40
217.71407,222.85692,72,60,40
222.85692,223.28549,71,100,40
223.28549,224.14264,70,100,40
224.14264,224.5712,69,100,40
224.5712,225.42834,68,100,40
225.42834,225.85692,67,100,40
226.28549,226.71407,65,100,40
226.71407,227.14262,64,100,40
227.5712,227.99977,65,100,40
227.99977,228.42834,64,100,40
230.99977,231.3212,69,70,40
231.3212,231.42834,72,70,40
231.42834,231.85692,75,70,40
232.28548,232.6069,62,70,40
232.6069,232.71405,70,70,40
232.71405,233.14262,74,70,40
233.5712,233.89262,67,70,40
233.89262,233.99977,70,70,40
233.99977,234.42833,73,70,40
234.8569,235.17833,60,70,40
235.17833,235.28548,69,70,40
235.28548,235.71405,72,70,40
236.14262,236.46405,60,70,40
236.46405,236.5712,65,70,40
236.5712,236.99976,72,70,40
237.42833,237.74976,59,70,40
237.74976,237.8569,68,70,40
237.8569,238.28548,71,70,40
238.28548,238.71405,72,70,40
238.71405,239.14262,70,70,40
239.14262,239.46405,69,70,40
239.46405,239.57118,69,70,40
239.57118,239.99976,67,70,40
239.99976,240.42833,65,70,40
240.42833,240.8569,64,70,40
240.8569,241.07118,65,70,40
242.57118,242.78548,69,49,40
242.99976,243.21404,69,49,40
243.8569,244.07118,74,49,40
244.28548,244.49976,74,49,40
245.14261,245.57118,67,49,40
245.57118,245.99976,70,49,40
245.99976,246.21404,69,49,40
9.857133,10.178561,65,50,41
10.178561,10.285704,69,52,41
10.285704,10.714275,74,53,41
11.142846,11.464274,67,58,41
11.464274,11.571417,73,60,41
11.571417,11.999988,76,60,41
12.428559,12.749988,65,65,41
12.749988,12.85713,69,67,41
12.85713,13.285701,74,68,41
13.714272,14.0357,65,73,41
14.0357,14.142843,71,74,41
14.142843,14.571414,74,75,41
14.571414,14.892842,64,78,41
14.892842,14.999985,67,79,41
14.999985,15.428556,72,70,41
15.428556,15.642841,60,70,41
15.857127,16.071413,69,70,41
16.71427,16.928555,59,70,41
17.14284,17.357126,60,70,41
27.857115,28.178543,65,50,41
28.178543,28.285686,69,52,41
28.285686,28.714256,74,53,41
29.142828,29.464256,67,58,41
29.464256,29.5714,73,60,41
29.5714,29.99997,76,60,41
30.428541,30.74997,65,65,41
30.74997,30.857113,69,67,41
30.857113,31.285683,74,68,41
31.714254,32.035683,65,73,41
32.035683,32.142826,71,74,41
32.142826,32.571396,74,75,41
32.571396,32.892826,64,78,41
32.892826,32.999966,67,79,41
32.999966,33.42854,72,70,41
33.42854,33.642822,60,70,41
33.85711,34.071396,69,70,41
34.714252,34.928535,59,70,41
35.142822,35.35711,60,70,41
35.999966,36.21425,52,100,41
36.21425,36.428535,60,100,41
36.428535,36.857105,64,100,41
36.857105,37.071392,64,100,41
37.28568,37.49996,64,100,41
37.71425,37.821392,65,100,41
37.821392,38.99996,64,100,41
38.99996,39.107105,67,100,41
39.107105,40.285675,65,100,41
40.285675,40.39282,67,100,41
40.39282,41.57139,66,100,41
41.57139,42.428528,67,100,41
42.428528,42.8571,69,100,41
42.8571,43.28567,63,60,41
43.28567,43.71424,64,63,41
43.71424,44.142815,65,67,41
44.142815,44.571384,66,70,41
44.571384,44.999954,67,73,41
44.999954,45.428528,65,77,41
45.428528,45.857098,64,80,41
45.857098,46.285667,65,83,41
46.285667,46.714237,72,87,41
46.714237,47.14281,71,90,41
47.14281,47.57138,70,93,41
47.57138,47.99995,69,97,41
47.99995,48.428524,68,100,41
48.428524,49.285664,67,100,41
49.285664,49.714237,66,100,41
49.714237,50.571377,65,100,41
50.571377,50.99995,64,100,41
51.42852,51.85709,67,100,41
51.85709,52.285664,55,100,41
52.714233,53.142803,67,100,41
53.142803,53.35709,55,100,41
53.35709,53.464233,59,100,41
53.571377,53.678516,60,100,41
53.78566,53.892803,58,100,41
53.999947,54.214233,57,100,41
54.214233,54.428516,60,100,41
54.428516,54.857086,65,100,41
54.857086,55.071373,53,100,41
55.28566,55.499943,53,100,41
55.71423,55.928516,77,70,41
55.928516,56.1428,65,70,41
56.1428,56.357086,77,70,41
56.357086,56.571373,65,70,41
56.571373,56.785656,77,70,41
56.785656,56.999943,65,70,41
56.999943,57.21423,77,70,41
57.21423,57.428513,65,70,41
57.428513,57.6428,77,70,41
57.6428,57.857086,65,70,41
57.857086,58.07137,77,70,41
58.07137,58.285656,65,70,41
58.285656,58.499943,76,70,41
58.499943,58.714226,64,70,41
58.714226,58.928513,76,70,41
58.928513,59.1428,64,70,41
59.1428,59.357082,76,70,41
59.357082,59.57137,64,70,41
59.57137,59.785656,75,70,41
59.785656,59.99994,63,70,41
59.99994,60.214226,75,70,41
60.214226,60.428513,63,70,41
60.428513,60.642796,75,70,41
60.642796,60.857082,63,70,41
60.857082,61.07137,74,70,41
61.07137,61.285652,62,70,41
61.285652,61.49994,74,70,41
61.49994,61.714226,62,70,41
61.714226,61.92851,74,70,41
61.92851,62.142796,62,70,41
62.142796,62.357082,73,70,41
62.357082,62.571365,61,70,41
62.571365,62.785652,73,70,41
62.785652,62.999935,61,70,41
62.999935,63.214222,73,70,41
63.214222,63.42851,61,70,41
63.42851,63.64279,60,70,41
63.64279,63.85708,64,70,41
63.85708,64.28565,67,70,41
64.28565,64.71422,65,70,41
64.71422,64.928505,62,70,41
64.928505,65.14279,58,70,41
65.14279,65.571365,57,70,41
65.571365,65.99993,55,70,41
65.99993,66.21422,57,70,41
67.71422,67.928505,65,39,41
68.14279,68.35707,65,39,41
68.99993,69.21422,65,39,41
69.428505,69.642784,65,39,41
70.285645,70.71422,64,39,41
70.71422,71.142784,67,39,41
71.142784,71.35707,65,39,41
71.99993,72.21421,52,100,41
72.21421,72.4285,60,100,41
72.4285,72.85707,64,100,41
72.85707,73.07136,64,100,41
73.285645,73.49992,64,100,41
73.71421,73.82136,65,100,41
73.82136,74.99992,64,100,41
74.99992,75.10707,67,100,41
75.10707,76.28564,65,100,41
76.28564,76.392784,67,100,41
76.392784,77.57135,66,100,41
77.57135,78.42849,67,100,41
78.42849,78.85706,69,100,41
78.85706,79.28564,63,60,41
79.28564,79.7142,64,63,41
79.7142,80.14278,65,67,41
80.14278,80.57135,66,70,41
80.57135,80.999916,67,73,41
80.999916,81.42849,65,77,41
81.42849,81.85706,64,80,41
81.85706,82.28563,65,83,41
82.28563,82.7142,72,87,41
82.7142,83.14278,71,90,41
83.14278,83.57134,70,93,41
83.57134,83.999916,69,97,41
83.999916,84.42849,68,100,41
84.42849,85.28563,67,100,41
85.28563,85.7142,66,100,41
85.7142,86.57134,65,100,41
86.57134,86.999916,64,100,41
87.42848,87.857056,67,100,41
87.857056,88.28563,55,100,41
88.714195,89.14277,67,100,41
89.14277,89.357056,55,100,41
89.357056,89.464195,59,100,41
89.57134,89.67848,60,100,41
89.78562,89.89277,58,100,41
89.99991,90.214195,57,100,41
90.214195,90.42848,60,100,41
90.42848,90.857056,65,100,41
90.857056,91.071335,53,100,41
91.28562,91.49991,53,100,41
91.714195,91.92848,77,70,41
91.92848,92.14276,65,70,41
92.14276,92.35705,77,70,41
92.35705,92.571335,65,70,41
92.571335,92.78562,77,70,41
92.78562,92.99991,65,70,41
92.99991,93.214195,77,70,41
93.214195,93.428474,65,70,41
93.428474,93.64276,77,70,41
93.64276,93.85705,65,70,41
93.85705,94.071335,77,70,41
94.071335,94.28562,65,70,41
94.28562,94.49991,76,70,41
94.49991,94.71419,64,70,41
94.71419,94.928474,76,70,41
94.928474,95.14276,64,70,41
95.14276,95.35705,76,70,41
95.35705,95.571335,64,70,41
95.571335,95.78562,75,70,41
95.78562,95.9999,63,70,41
95.9999,96.21419,75,70,41
96.21419,96.428474,63,70,41
96.428474,96.64276,75,70,41
96.64276,96.85705,63,70,41
96.85705,97.071335,74,70,41
97.071335,97.285614,62,70,41
97.285614,97.4999,74,70,41
97.4999,97.71419,62,70,41
97.71419,97.928474,74,70,41
97.928474,98.14276,62,70,41
98.14276,98.35705,73,70,41
98.35705,98.57133,61,70,41
98.57133,98.785614,73,70,41
98.785614,98.9999,61,70,41
98.9999,99.21419,73,70,41
99.21419,99.428474,61,70,41
99.428474,99.64276,60,70,41
99.64276,99.85704,64,70,41
99.85704,100.285614,67,70,41
100.285614,100.71419,65,70,41
100.71419,100.92847,62,70,41
100.92847,101.14275,58,70,41
101.14275,101.57133,57,70,41
101.57133,101.9999,55,70,41
101.9999,102.21418,57,70,41
103.71418,103.92847,65,39,41
104.14275,104.35704,65,39,41
104.99989,105.21418,65,39,41
105.42847,105.64275,65,39,41
106.28561,106.71418,64,39,41
106.71418,107.14275,67,39,41
107.14275,107.35703,65,39,41
107.99989,108.34275,65,56,41
108.42847,108.642746,67,70,41
108.642746,108.85703,69,70,41
108.85703,109.07132,70,70,41
109.07132,109.17846,69,70,41
109.28561,109.392746,67,70,41
109.49989,109.60703,65,70,41
109.71417,109.82132,64,70,41
109.92846,110.03561,65,70,41
110.142746,110.24989,67,70,41
110.35703,110.46417,65,70,41
110.57132,110.67846,64,70,41
110.78561,110.892746,62,70,41
110.999886,111.42846,60,70,41
111.42846,111.85703,58,70,41
111.85703,112.2856,57,70,41
112.2856,112.392746,60,70,41
112.71417,112.82131,62,70,41
113.142746,113.249886,67,70,41
113.57131,113.7856,67,70,41
114.42846,114.857025,65,70,41
114.857025,115.07131,67,70,41
115.07131,115.2856,69,70,41
115.2856,115.499886,70,70,41
115.499886,115.607025,69,70,41
115.71417,115.82131,67,70,41
115.92846,116.0356,65,70,41
116.14274,116.249886,64,70,41
116.357025,116.46417,65,70,41
116.57131,116.67845,67,70,41
116.7856,116.89274,65,70,41
116.999886,117.107025,64,70,41
117.214165,117.32131,62,70,41
117.42845,117.857025,60,70,41
117.857025,118.2856,58,70,41
118.2856,118.714165,57,70,41
118.714165,118.92845,55,70,41
119.57131,119.67845,60,70,41
119.99988,120.214165,60,70,41
120.857025,121.19988,65,56,41
121.28559,121.49988,67,70,41
121.49988,121.714165,69,70,41
121.714165,121.92845,70,70,41
121.92845,122.03559,69,70,41
122.14274,122.24988,67,70,41
122.35702,122.464165,65,70,41
122.571304,122.67845,64,70,41
122.78559,122.89273,65,70,41
122.99988,123.10702,67,70,41
123.214165,123.321304,65,70,41
123.42845,123.53559,64,70,41
123.64273,123.74988,62,70,41
123.85702,124.28559,60,70,41
124.28559,124.714165,58,70,41
124.714165,125.14273,57,70,41
125.14273,125.24988,60,70,41
125.571304,125.678444,62,70,41
125.99987,126.10702,67,70,41
126.428444,126.64273,67,70,41
127.28558,127.71416,65,70,41
127.71416,127.928444,67,70,41
127.928444,128.14273,69,70,41
128.14273,128.35701,70,70,41
128.35701,128.46416,69,70,41
128.5713,128.67844,67,70,41
128.78558,128.89273,65,70,41
128.99988,129.10701,64,70,41
129.21416,129.3213,65,70,41
129.42844,129.53558,67,70,41
129.64273,129.74986,65,70,41
129.85701,129.96416,64,70,41
130.0713,130.17844,62,70,41
130.28558,130.71416,60,70,41
130.71416,131.14273,58,70,41
131.14273,131.5713,57,70,41
131.5713,131.78558,55,70,41
132.42844,132.53558,60,70,41
132.85701,133.07129,60,70,41
133.71416,133.92844,58,100,41
133.92844,134.14272,62,100,41
134.14272,134.35701,60,100,41
134.35701,134.57129,58,100,41
134.57129,134.78558,60,100,41
134.78558,134.99986,53,100,41
134.99986,135.10701,58,94,41
135.21416,135.32129,62,75,41
135.42844,135.64272,60,100,41
135.64272,135.85701,58,100,41
135.85701,136.07129,60,100,41
136.07129,136.28558,57,100,41
136.28558,136.39272,58,94,41
136.49986,136.60701,62,75,41
136.71414,136.92844,60,100,41
136.92844,137.14272,58,100,41
137.14272,137.35701,60,100,41
137.35701,137.57129,53,100,41
137.57129,137.67844,58,94,41
137.78558,137.89272,62,75,41
137.99986,138.21414,60,100,41
138.21414,138.42844,58,100,41
138.42844,138.64272,60,100,41
138.64272,138.85701,57,100,41
138.85701,138.96414,58,94,41
139.07129,139.17844,62,75,41
139.28557,139.49986,57,100,41
139.49986,139.71414,55,100,41
139.71414,139.92844,57,100,41
139.92844,140.14272,54,100,41
140.14272,140.24986,55,94,41
140.35701,140.46414,58,75,41
140.57129,140.78557,55,100,41
140.78557,140.99986,53,100,41
140.99986,141.21414,55,100,41
141.21414,141.42844,52,100,41
141.42844,141.53557,53,94,41
141.64272,141.74986,57,75,41
141.857,142.28557,58,100,41
142.71414,142.92842,56,100,41
142.92842,143.14272,53,100,41
143.14272,143.57129,60,92,41
143.99986,144.42842,65,70,41
144.42842,144.64272,67,70,41
144.64272,144.857,69,70,41
144.857,145.07129,70,70,41
145.07129,145.17842,69,70,41
145.28557,145.39272,67,70,41
145.49985,145.607,65,70,41
145.71414,145.82129,64,70,41
145.92842,146.03557,65,70,41
146.14272,146.24985,67,70,41
146.357,146.46414,65,70,41
146.57129,146.67842,64,70,41
146.78557,146.89272,62,70,41
146.99985,147.42842,60,70,41
147.42842,147.857,67,70,41
147.857,148.28557,65,70,41
148.28557,148.39272,64,70,41
148.71414,148.82127,60,70,41
149.14272,149.24985,67,70,41
149.57127,149.67842,67,70,41
149.99985,150.107,60,70,41
151.28557,151.3927,72,70,41
151.71413,151.82127,72,70,41
152.1427,152.24985,72,70,41
152.57127,152.67842,72,70,41
152.99985,153.107,72,70,41
153.42842,153.857,72,70,41
153.857,154.28555,76,70,41
154.28555,154.71413,77,70,41
154.71413,154.82127,65,70,41
154.82127,154.92842,74,70,41
155.1427,155.24985,62,70,41
155.24985,155.357,70,70,41
155.57127,155.67842,58,70,41
155.67842,155.78555,67,70,41
155.99985,156.10698,57,70,41
156.10698,156.21413,64,70,41
156.42842,156.53555,52,70,41
156.53555,156.6427,60,70,41
157.71413,158.1427,65,70,41
158.1427,158.57127,58,70,41
158.57127,159.4284,70,70,41
159.4284,159.85698,69,70,41
159.85698,160.07127,65,70,41
161.1427,161.35698,55,70,41
161.99983,162.10698,60,70,41
162.4284,162.6427,60,70,41
163.28555,163.49983,58,100,41
163.49983,163.71413,62,100,41
163.71413,163.9284,60,100,41
163.9284,164.1427,58,100,41
164.1427,164.35698,60,100,41
164.35698,164.57126,53,100,41
164.57126,164.6784,58,94,41
164.78555,164.89268,62,75,41
164.99983,165.21413,60,100,41
165.21413,165.4284,58,100,41
165.4284,165.64268,60,100,41
165.64268,165.85698,57,100,41
165.85698,165.96413,58,94,41
166.07126,166.1784,62,75,41
166.28555,166.49983,60,100,41
166.49983,166.71413,58,100,41
166.71413,166.9284,60,100,41
166.9284,167.14268,53,100,41
167.14268,167.24983,58,94,41
167.35698,167.46411,62,75,41
167.57126,167.78555,60,100,41
167.78555,167.99983,58,100,41
167.99983,168.21411,60,100,41
168.21411,168.4284,57,100,41
168.4284,168.53555,58,94,41
168.64268,168.74983,62,75,41
168.85698,169.07126,57,100,41
169.07126,169.28554,55,100,41
169.28554,169.49983,57,100,41
169.49983,169.71411,54,100,41
169.71411,169.82126,55,94,41
169.9284,170.03554,58,75,41
170.14268,170.35698,55,100,41
170.35698,170.57126,53,100,41
170.57126,170.78554,55,100,41
170.78554,170.99983,52,100,41
170.99983,171.10698,53,94,41
171.21411,171.32126,57,75,41
171.4284,171.85696,58,100,41
172.28554,172.49983,56,100,41
172.49983,172.71411,53,100,41
172.71411,173.14268,60,92,41
173.57126,173.99983,65,70,41
173.99983,174.21411,67,70,41
174.21411,174.42839,69,70,41
174.42839,174.64268,70,70,41
174.64268,174.74983,69,70,41
174.85696,174.96411,67,70,41
175.07126,175.17839,65,70,41
175.28554,175.39268,64,70,41
175.49982,175.60696,65,70,41
175.71411,175.82126,67,70,41
175.92839,176.03554,65,70,41
176.14268,176.24982,64,70,41
176.35696,176.46411,62,70,41
176.57126,176.99982,60,70,41
176.99982,177.42839,67,70,41
177.42839,177.85696,65,70,41
177.85696,177.96411,64,70,41
178.28554,178.39268,60,70,41
178.71411,178.82124,67,70,41
179.14268,179.24982,67,70,41
179.57124,179.67839,60,70,41
180.85696,180.96411,72,70,41
181.28554,181.39267,72,70,41
181.71411,181.82124,72,70,41
182.14267,182.24982,72,70,41
182.57124,182.67839,72,70,41
182.99982,183.42839,72,70,41
183.42839,183.85696,76,70,41
183.85696,184.28552,77,70,41
184.28552,184.39267,65,70,41
184.39267,184.49982,74,70,41
184.7141,184.82124,62,70,41
184.82124,184.92839,70,70,41
185.14267,185.24982,58,70,41
185.24982,185.35696,67,70,41
185.57124,185.67839,57,70,41
185.67839,185.78552,64,70,41
185.99982,186.10696,52,70,41
186.10696,186.2141,60,70,41
187.28552,187.7141,65,70,41
187.7141,188.14267,58,70,41
188.14267,188.99982,70,70,41
188.99982,189.42838,69,70,41
189.42838,189.64267,65,70,41
190.7141,190.92838,55,70,41
191.57124,191.67838,60,70,41
191.9998,192.2141,60,70,41
202.71408,203.0355,65,50,41
203.0355,203.14265,69,52,41
203.14265,203.57123,74,53,41
203.9998,204.32123,67,58,41
204.32123,204.42836,73,60,41
204.42836,204.85693,76,60,41
205.2855,205.60693,65,65,41
205.60693,205.71408,69,67,41
205.71408,206.14265,74,68,41
206.57123,206.89265,65,73,41
206.89265,206.99979,71,74,41
206.99979,207.42836,74,75,41
207.42836,207.74979,64,78,41
207.74979,207.85693,67,79,41
207.85693,208.2855,72,70,41
208.2855,208.49979,60,70,41
208.71408,208.92836,69,70,41
209.57121,209.7855,59,70,41
209.99979,210.21408,60,49,41
210.85693,211.07121,52,100,41
211.07121,211.2855,60,100,41
211.2855,211.71408,64,100,41
211.71408,211.92836,64,100,41
212.14264,212.35693,64,100,41
212.57121,212.67836,65,100,41
212.67836,213.85693,64,100,41
213.85693,213.96407,67,100,41
213.96407,215.14264,65,100,41
215.14264,215.24979,67,100,41
215.24979,216.42836,66,100,41
216.42836,217.28549,67,100,41
217.28549,217.71407,69,100,41
217.71407,218.14264,63,60,41
218.14264,218.57121,64,63,41
218.57121,218.99979,65,67,41
218.99979,219.42834,66,70,41
219.42834,219.85692,67,73,41
219.85692,220.28549,65,77,41
220.28549,220.71407,64,80,41
220.71407,221.14264,65,83,41
221.14264,221.57121,72,87,41
221.57121,221.99977,71,90,41
221.99977,222.42834,70,93,41
222.42834,222.85692,69,97,41
222.85692,223.28549,68,100,41
223.28549,224.14264,67,100,41
224.14264,224.5712,66,100,41
224.5712,225.42834,65,100,41
225.42834,225.85692,64,100,41
226.28549,226.71407,67,100,41
226.71407,227.14262,55,100,41
227.5712,227.99977,67,100,41
227.99977,228.21405,55,100,41
228.21405,228.3212,59,100,41
228.42834,228.53549,60,100,41
228.64262,228.74977,58,100,41
228.85692,229.0712,57,100,41
229.0712,229.28549,60,100,41
229.28549,229.71405,65,100,41
229.71405,229.92834,53,100,41
230.14262,230.35692,53,100,41
230.5712,230.78548,77,70,41
230.78548,230.99977,65,70,41
230.99977,231.21405,77,70,41
231.21405,231.42834,65,70,41
231.42834,231.64262,77,70,41
231.64262,231.85692,65,70,41
231.85692,232.0712,77,70,41
232.0712,232.28548,65,70,41
232.28548,232.49977,77,70,41
232.49977,232.71405,65,70,41
232.71405,232.92834,77,70,41
232.92834,233.14262,65,70,41
233.14262,233.3569,76,70,41
233.3569,233.5712,64,70,41
233.5712,233.78548,76,70,41
233.78548,233.99977,64,70,41
233.99977,234.21405,76,70,41
234.21405,234.42833,64,70,41
234.42833,234.64262,75,70,41
234.64262,234.8569,63,70,41
234.8569,235.0712,75,70,41
235.0712,235.28548,63,70,41
235.28548,235.49977,75,70,41
235.49977,235.71405,63,70,41
235.71405,235.92833,74,70,41
235.92833,236.14262,62,70,41
236.14262,236.3569,74,70,41
236.3569,236.5712,62,70,41
236.5712,236.78548,74,70,41
236.78548,236.99976,62,70,41
236.99976,237.21405,73,70,41
237.21405,237.42833,61,70,41
237.42833,237.64262,73,70,41
237.64262,237.8569,61,70,41
237.8569,238.0712,73,70,41
238.0712,238.28548,61,70,41
238.28548,238.49976,60,70,41
238.49976,238.71405,64,70,41
238.71405,239.14262,67,70,41
239.14262,239.57118,65,70,41
239.57118,239.78548,62,70,41
239.78548,239.99976,58,70,41
239.99976,240.42833,57,70,41
240.42833,240.8569,55,70,41
240.8569,241.07118,57,70,41
242.57118,242.78548,65,49,41
242.99976,243.21404,65,49,41
243.8569,244.07118,65,49,41
244.28548,244.49976,65,49,41
245.14261,245.57118,64,49,41
245.57118,245.99976,67,49,41
245.99976,246.21404,65,49,41
9.428562,9.642847,38,38,42
9.642847,9.857133,41,39,42
9.857133,10.071419,38,40,42
10.071419,10.285704,41,42,42
10.285704,10.4999895,38,42,42
10.4999895,10.714275,41,43,42
10.714275,10.92856,40,44,42
10.92856,11.142846,49,46,42
11.142846,11.357132,40,46,42
11.357132,11.571417,49,47,42
11.571417,11.785703,40,48,42
11.785703,11.999988,49,50,42
11.999988,12.214273,41,50,42
12.214273,12.428559,50,51,42
12.428559,12.642844,41,52,42
12.642844,12.85713,50,53,42
12.85713,13.071416,41,54,42
13.071416,13.285701,50,55,42
13.285701,13.499987,38,56,42
13.499987,13.714272,47,57,42
13.714272,13.928557,38,58,42
13.928557,14.142843,47,59,42
14.142843,14.357128,38,60,42
14.357128,14.571414,47,61,42
14.571414,14.7857,40,62,42
14.7857,14.999985,48,63,42
14.999985,15.214271,40,56,42
15.214271,15.428556,48,56,42
15.428556,15.535699,45,56,42
15.642841,15.749984,48,56,42
15.857127,16.071413,41,70,42
16.71427,16.928555,43,70,42
17.14284,17.357126,36,70,42
17.571411,17.785696,48,70,42
27.428543,27.64283,38,38,42
27.64283,27.857115,41,39,42
27.857115,28.0714,38,40,42
28.0714,28.285686,41,42,42
28.285686,28.499971,38,42,42
28.499971,28.714256,41,43,42
28.714256,28.928543,40,44,42
28.928543,29.142828,49,46,42
29.142828,29.357113,40,46,42
29.357113,29.5714,49,47,42
29.5714,29.785685,40,48,42
29.785685,29.99997,49,50,42
29.99997,30.214256,41,50,42
30.214256,30.428541,50,51,42
30.428541,30.642826,41,52,42
30.642826,30.857113,50,53,42
30.857113,31.071398,41,54,42
31.071398,31.285683,50,55,42
31.285683,31.499968,38,56,42
31.499968,31.714254,47,57,42
31.714254,31.92854,38,58,42
31.92854,32.142826,47,59,42
32.142826,32.35711,38,60,42
32.35711,32.571396,47,61,42
32.571396,32.785683,40,62,42
32.785683,32.999966,48,63,42
32.999966,33.214252,40,56,42
33.214252,33.42854,48,56,42
33.42854,33.53568,45,56,42
33.642822,33.749966,48,56,42
33.85711,34.071396,41,70,42
34.714252,34.928535,43,70,42
35.142822,35.35711,36,70,42
35.571392,35.78568,48,70,42
38.14282,38.57139,36,100,42
38.57139,38.99996,48,100,42
39.42853,39.8571,36,100,42
39.8571,40.285675,48,100,42
40.714245,41.142815,36,100,42
41.142815,41.57139,48,100,42
41.57139,48.428524,48,100,42
48.428524,49.285664,36,100,42
49.285664,49.714237,48,100,42
49.714237,50.571377,36,100,42
50.571377,50.99995,48,100,42
51.42852,51.85709,43,100,42
51.85709,52.285664,48,100,42
52.714233,53.142803,43,100,42
53.142803,53.35709,48,100,42
53.35709,53.464233,47,100,42
53.571377,53.678516,48,100,42
53.78566,53.892803,46,100,42
53.999947,54.214233,45,100,42
54.214233,54.428516,48,100,42
54.428516,54.857086,53,100,42
54.857086,55.071373,41,100,42
55.28566,55.499943,41,100,42
55.71423,55.821373,43,100,42
55.821373,56.999943,41,100,42
56.999943,57.107086,43,100,42
57.107086,58.285656,41,100,42
58.285656,58.499943,43,100,42
58.499943,58.714226,41,100,42
58.714226,58.928513,43,100,42
58.928513,59.1428,41,100,42
59.1428,59.357082,43,100,42
59.357082,59.57137,41,100,42
59.57137,59.785656,43,100,42
59.785656,59.99994,41,100,42
59.99994,60.214226,43,100,42
60.214226,60.428513,41,100,42
60.428513,60.642796,43,100,42
60.642796,60.857082,41,100,42
60.857082,61.07137,43,100,42
61.07137,61.285652,41,100,42
61.285652,61.49994,43,100,42
61.49994,61.714226,41,100,42
61.714226,61.92851,43,100,42
61.92851,62.142796,41,100,42
62.142796,62.357082,43,100,42
62.357082,62.571365,41,100,42
62.571365,62.785652,43,100,42
62.785652,62.999935,41,100,42
62.999935,63.214222,43,100,42
63.214222,63.42851,41,100,42
63.42851,63.64279,40,100,42
63.64279,63.85708,43,100,42
63.85708,63.964222,36,100,42
64.071365,64.178505,40,100,42
64.28565,64.39279,41,100,42
64.49994,64.60708,45,100,42
64.71422,64.821365,46,100,42
64.928505,65.03565,43,100,42
65.14279,65.24993,48,100,42
65.35708,65.46422,46,100,42
65.571365,65.678505,48,100,42
65.78565,65.89279,36,100,42
65.99993,66.21422,41,100,42
67.71422,67.82136,62,39,42
68.14279,68.24993,62,39,42
68.99993,69.10707,58,39,42
69.428505,69.535645,58,39,42
70.285645,70.392784,60,39,42
70.71422,70.82136,60,39,42
71.142784,71.24993,53,39,42
74.142784,74.57136,36,100,42
74.57136,74.99992,48,100,42
75.4285,75.85706,36,100,42
75.85706,76.28564,48,100,42
76.71421,77.14278,36,100,42
77.14278,77.57135,48,100,42
77.57135,84.42849,48,100,42
84.42849,85.28563,36,100,42
85.28563,85.7142,48,100,42
85.7142,86.57134,36,100,42
86.57134,86.999916,48,100,42
87.42848,87.857056,43,100,42
87.857056,88.28563,48,100,42
88.714195,89.14277,43,100,42
89.14277,89.357056,48,100,42
89.357056,89.464195,47,100,42
89.57134,89.67848,48,100,42
89.78562,89.89277,46,100,42
89.99991,90.214195,45,100,42
90.214195,90.42848,48,100,42
90.42848,90.857056,53,100,42
90.857056,91.071335,41,100,42
91.28562,91.49991,41,100,42
91.714195,91.821335,43,100,42
91.821335,92.99991,41,100,42
92.99991,93.10705,43,100,42
93.10705,94.28562,41,100,42
94.28562,94.49991,43,100,42
94.49991,94.71419,41,100,42
94.71419,94.928474,43,100,42
94.928474,95.14276,41,100,42
95.14276,95.35705,43,100,42
95.35705,95.571335,41,100,42
95.571335,95.78562,43,100,42
95.78562,95.9999,41,100,42
95.9999,96.21419,43,100,42
96.21419,96.428474,41,100,42
96.428474,96.64276,43,100,42
96.64276,96.85705,41,100,42
96.85705,97.071335,43,100,42
97.071335,97.285614,41,100,42
97.285614,97.4999,43,100,42
97.4999,97.71419,41,100,42
97.71419,97.928474,43,100,42
97.928474,98.14276,41,100,42
98.14276,98.35705,43,100,42
98.35705,98.57133,41,100,42
98.57133,98.785614,43,100,42
98.785614,98.9999,41,100,42
98.9999,99.21419,43,100,42
99.21419,99.428474,41,100,42
99.428474,99.64276,40,100,42
99.64276,99.85704,43,100,42
99.85704,99.96419,36,100,42
100.07133,100.178474,40,100,42
100.285614,100.39275,41,100,42
100.4999,100.60704,45,100,42
100.71419,100.82133,46,100,42
100.92847,101.035614,43,100,42
101.14275,101.2499,48,100,42
101.35704,101.46419,46,100,42
101.57133,101.67847,48,100,42
101.785614,101.89275,36,100,42
101.9999,102.21418,41,100,42
103.71418,103.82133,62,39,42
104.14275,104.24989,62,39,42
104.99989,105.10704,58,39,42
105.42847,105.53561,58,39,42
106.28561,106.39275,60,39,42
106.71418,106.82132,60,39,42
107.14275,107.24989,53,39,42
110.999886,111.10703,48,70,42
111.85703,111.96417,53,70,42
112.2856,112.392746,48,70,42
112.71417,112.82131,41,70,42
113.142746,113.249886,43,70,42
113.57131,113.67846,36,70,42
113.999886,114.107025,48,70,42
117.42845,118.2856,48,70,42
118.2856,118.714165,50,70,42
118.714165,118.92845,46,70,42
119.57131,119.78559,48,70,42
119.99988,120.214165,41,70,42
120.42845,120.64274,53,70,42
123.85702,123.964165,48,70,42
124.714165,124.821304,53,70,42
125.14273,125.24988,48,70,42
125.571304,125.678444,41,70,42
125.99987,126.10702,43,70,42
126.428444,126.53559,36,70,42
126.85702,126.96416,48,70,42
130.28558,131.14273,48,70,42
131.14273,131.5713,50,70,42
131.5713,131.78558,46,70,42
132.42844,132.64273,48,70,42
132.85701,133.07129,41,70,42
133.28558,133.49986,53,70,42
133.71416,134.14272,41,100,42
134.14272,137.99986,41,100,42
138.42844,138.85701,53,100,42
138.85701,139.28557,46,100,42
139.71414,140.14272,50,100,42
140.14272,140.57129,43,100,42
140.99986,141.42844,48,100,42
141.42844,141.857,41,100,42
141.857,142.28557,46,100,42
142.71414,143.14272,47,100,42
143.14272,143.99986,48,92,42
146.99985,147.857,48,70,42
147.857,148.28557,53,70,42
148.28557,148.49985,60,70,42
148.71414,148.92842,53,70,42
149.14272,149.357,55,70,42
149.57127,149.78557,48,70,42
150.42842,150.857,65,70,42
150.857,151.07127,67,70,42
151.07127,151.28557,69,70,42
151.28557,151.49985,70,70,42
151.49985,151.607,69,70,42
151.71413,151.82127,67,70,42
151.92842,152.03557,65,70,42
152.1427,152.24985,64,70,42
152.357,152.46413,65,70,42
152.57127,152.67842,67,70,42
152.78557,152.8927,65,70,42
152.99985,153.107,64,70,42
153.21413,153.32127,62,70,42
153.42842,153.53557,60,70,42
153.6427,153.74985,58,70,42
153.857,153.96413,57,70,42
154.07127,154.17842,55,70,42
154.28555,154.71413,53,70,42
154.71413,155.1427,46,70,42
155.99985,156.42842,48,70,42
156.85698,156.96413,57,70,42
156.96413,157.07127,65,70,42
157.28555,157.3927,53,70,42
157.3927,157.49985,62,70,42
157.71413,157.82127,50,70,42
157.82127,157.92842,58,70,42
158.1427,158.24985,46,70,42
158.24985,158.35698,55,70,42
158.57127,158.6784,43,70,42
158.6784,158.78555,52,70,42
158.99985,159.10698,40,70,42
159.10698,159.21413,48,70,42
159.4284,159.6427,41,70,42
159.85698,160.07127,46,70,42
161.1427,161.35698,48,70,42
161.99983,162.10698,36,70,42
162.4284,162.53555,41,70,42
162.85698,162.96413,53,70,42
163.28555,163.71413,41,100,42
163.71413,167.57126,41,100,42
167.99983,168.4284,53,100,42
168.4284,168.85698,46,100,42
169.28554,169.71411,50,100,42
169.71411,170.14268,43,100,42
170.57126,170.99983,48,100,42
170.99983,171.4284,41,100,42
171.4284,171.85696,46,100,42
172.28554,172.71411,47,100,42
172.71411,173.57126,48,92,42
176.57126,177.42839,48,70,42
177.42839,177.85696,53,70,42
177.85696,178.07124,60,70,42
178.28554,178.49982,53,70,42
178.71411,178.92839,55,70,42
179.14268,179.35696,48,70,42
179.99982,180.42839,65,70,42
180.42839,180.64267,67,70,42
180.64267,180.85696,69,70,42
180.85696,181.07124,70,70,42
181.07124,181.17839,69,70,42
181.28554,181.39267,67,70,42
181.49982,181.60696,65,70,42
181.71411,181.82124,64,70,42
181.92839,182.03554,65,70,42
182.14267,182.24982,67,70,42
182.35696,182.4641,65,70,42
182.57124,182.67839,64,70,42
182.78554,182.89267,62,70,42
182.99982,183.10696,60,70,42
183.2141,183.32124,58,70,42
183.42839,183.53554,57,70,42
183.64267,183.74982,55,70,42
183.85696,184.28552,53,70,42
184.28552,184.7141,46,70,42
185.57124,185.99982,48,70,42
186.42839,186.53552,57,70,42
186.53552,186.64267,65,70,42
186.85695,186.9641,53,70,42
186.9641,187.07124,62,70,42
187.28552,187.39267,50,70,42
187.39267,187.49982,58,70,42
187.7141,187.82124,46,70,42
187.82124,187.92839,55,70,42
188.14267,188.24982,43,70,42
188.24982,188.35695,52,70,42
188.57124,188.67838,40,70,42
188.67838,188.78552,48,70,42
188.99982,189.2141,41,70,42
189.42838,189.64267,46,70,42
190.7141,190.92838,48,70,42
191.57124,191.67838,36,70,42
191.9998,192.10695,41,70,42
192.42838,192.53552,53,70,42
202.2855,202.4998,38,38,42
202.4998,202.71408,41,39,42
202.71408,202.92838,38,40,42
202.92838,203.14265,41,42,42
203.14265,203.35693,38,42,42
203.35693,203.57123,41,43,42
203.57123,203.7855,40,44,42
203.7855,203.9998,49,46,42
203.9998,204.21408,40,46,42
204.21408,204.42836,49,47,42
204.42836,204.64265,40,48,42
204.64265,204.85693,49,50,42
204.85693,205.07123,41,50,42
205.07123,205.2855,50,51,42
205.2855,205.4998,41,52,42
205.4998,205.71408,50,53,42
205.71408,205.92836,41,54,42
205.92836,206.14265,50,55,42
206.14265,206.35693,38,56,42
206.35693,206.57123,47,57,42
206.57123,206.7855,38,58,42
206.7855,206.99979,47,59,42
206.99979,207.21408,38,60,42
207.21408,207.42836,47,61,42
207.42836,207.64265,40,62,42
207.64265,207.85693,48,63,42
207.85693,208.07123,40,56,42
208.07123,208.2855,48,56,42
208.2855,208.39265,45,56,42
208.49979,208.60693,48,56,42
208.71408,208.92836,41,70,42
209.57121,209.7855,43,70,42
209.99979,210.21408,36,70,42
210.42836,210.64264,48,70,42
212.99979,213.42836,36,100,42
213.42836,213.85693,48,100,42
214.2855,214.71407,36,100,42
214.71407,215.14264,48,100,42
215.57121,215.99979,36,100,42
215.99979,216.42836,48,100,42
216.42836,223.28549,48,100,42
223.28549,224.14264,36,100,42
224.14264,224.5712,48,100,42
224.5712,225.42834,36,100,42
225.42834,225.85692,48,100,42
226.28549,226.71407,43,100,42
226.71407,227.14262,48,100,42
227.5712,227.99977,43,100,42
227.99977,228.21405,48,100,42
228.21405,228.3212,47,100,42
228.42834,228.53549,48,100,42
228.64262,228.74977,46,100,42
228.85692,229.0712,45,100,42
229.0712,229.28549,48,100,42
229.28549,229.71405,53,100,42
229.71405,229.92834,41,100,42
230.14262,230.35692,41,100,42
230.5712,230.67834,43,100,42
230.67834,231.85692,41,100,42
231.85692,231.96405,43,100,42
231.96405,233.14262,41,100,42
233.14262,233.3569,43,100,42
233.3569,233.5712,41,100,42
233.5712,233.78548,43,100,42
233.78548,233.99977,41,100,42
233.99977,234.21405,43,100,42
234.21405,234.42833,41,100,42
234.42833,234.64262,43,100,42
234.64262,234.8569,41,100,42
234.8569,235.0712,43,100,42
235.0712,235.28548,41,100,42
235.28548,235.49977,43,100,42
235.49977,235.71405,41,100,42
235.71405,235.92833,43,100,42
235.92833,236.14262,41,100,42
236.14262,236.3569,43,100,42
236.3569,236.5712,41,100,42
236.5712,236.78548,43,100,42
236.78548,236.99976,41,100,42
236.99976,237.21405,43,100,42
237.21405,237.42833,41,100,42
237.42833,237.64262,43,100,42
237.64262,237.8569,41,100,42
237.8569,238.0712,43,100,42
238.0712,238.28548,41,100,42
238.28548,238.49976,40,100,42
238.49976,238.71405,43,100,42
238.71405,238.82118,36,100,42
238.92833,239.03548,40,100,42
239.14262,239.24976,41,100,42
239.3569,239.46405,45,100,42
239.57118,239.67833,46,100,42
239.78548,239.89262,43,100,42
239.99976,240.1069,48,100,42
240.21405,240.32118,46,100,42
240.42833,240.53548,48,100,42
240.64262,240.74976,36,100,42
240.8569,241.07118,41,100,42
242.57118,242.67833,62,49,42
242.99976,243.1069,62,49,42
243.8569,243.96404,58,49,42
244.28548,244.39261,58,49,42
245.14261,245.24976,60,49,42
245.57118,245.67833,60,49,42
245.99976,246.1069,53,49,42
