start_time,end_time,note_value,velocity,instrument_program_number
0.0,1.0,57,88,40
1.0,1.45,61,40,40
1.5,2.0,64,37,40
2.0,2.4,62,37,40
3.0,4.0,59,88,40
4.0,4.45,62,40,40
4.5,5.0,66,37,40
5.0,5.4,64,37,40
6.0,6.4,76,53,40
6.5,6.9,76,58,40
7.0,7.4,76,64,40
7.5,8.0,76,70,40
8.0,8.3,74,53,40
8.375,8.475,73,53,40
8.5,8.9,71,53,40
9.0,9.4,74,53,40
9.5,9.9,74,58,40
10.0,10.4,74,64,40
10.5,11.0,74,70,40
11.0,11.3,73,53,40
11.375,11.475,71,53,40
11.5,11.9,69,53,40
12.0,13.0,69,110,40
13.0,13.45,73,92,40
13.5,14.0,78,92,40
14.0,14.4,76,92,40
15.0,16.0,76,92,40
16.0,16.45,79,92,40
16.5,17.0,84,92,40
17.0,17.4,83,92,40
18.0,19.0,76,63,40
19.0,19.45,80,63,40
19.5,20.0,85,63,40
20.0,20.4,83,63,40
24.0,24.4,83,46,40
24.5,24.9,83,50,40
25.0,25.4,83,55,40
25.5,26.0,83,60,40
26.0,26.3,81,46,40
26.375,26.475,80,46,40
26.5,26.9,78,46,40
27.0,27.4,83,46,40
27.5,27.9,83,50,40
28.0,28.4,83,55,40
28.5,29.0,83,60,40
29.0,29.3,81,46,40
29.375,29.475,80,46,40
29.5,29.9,78,46,40
30.0,30.25,83,116,40
30.5,30.75,83,116,40
31.0,31.25,83,116,40
31.5,31.75,82,116,40
31.75,31.95,78,116,40
32.0,32.75,81,116,40
32.75,32.95,80,103,40
33.0,33.2,80,92,40
33.25,33.45,78,92,40
33.5,33.9,76,92,40
34.0,34.4,75,92,40
34.5,34.625,76,92,40
34.75,35.0,80,53,40
35.0,35.25,78,53,40
35.25,35.5,76,53,40
35.5,35.75,75,53,40
35.75,36.0,73,53,40
36.0,36.4,71,46,40
36.5,36.9,71,50,40
37.0,37.4,71,55,40
37.5,38.0,71,60,40
38.0,38.3,69,46,40
38.375,38.475,68,46,40
38.5,38.9,66,46,40
39.0,39.75,69,46,40
39.75,40.0,66,46,40
40.0,40.25,69,46,40
40.25,40.45,66,46,40
40.5,40.9,64,46,40
42.0,43.0,57,88,40
43.0,43.45,61,40,40
43.5,44.0,64,37,40
44.0,44.4,62,37,40
45.0,46.0,59,88,40
46.0,46.45,62,40,40
46.5,47.0,66,37,40
47.0,47.4,64,37,40
48.0,48.4,76,53,40
48.5,48.9,76,58,40
49.0,49.4,76,64,40
49.5,50.0,76,70,40
50.0,50.3,74,53,40
50.375,50.475,73,53,40
50.5,50.9,71,53,40
51.0,51.4,74,53,40
51.5,51.9,74,58,40
52.0,52.4,74,64,40
52.5,53.0,74,70,40
53.0,53.3,73,53,40
53.375,53.475,71,53,40
53.5,53.9,69,53,40
54.0,55.0,69,110,40
55.0,55.45,73,92,40
55.5,56.0,78,92,40
56.0,56.4,76,92,40
57.0,58.0,76,92,40
58.0,58.45,79,92,40
58.5,59.0,84,92,40
59.0,59.4,83,92,40
60.0,61.0,76,63,40
61.0,61.45,80,63,40
61.5,62.0,85,63,40
62.0,62.4,83,63,40
66.0,66.4,83,46,40
66.5,66.9,83,50,40
67.0,67.4,83,55,40
67.5,68.0,83,60,40
68.0,68.3,81,46,40
68.375,68.475,80,46,40
68.5,68.9,78,46,40
69.0,69.4,83,46,40
69.5,69.9,83,50,40
70.0,70.4,83,55,40
70.5,71.0,83,60,40
71.0,71.3,81,46,40
71.375,71.475,80,46,40
71.5,71.9,78,46,40
72.0,72.25,83,116,40
72.5,72.75,83,116,40
73.0,73.25,83,116,40
73.5,73.75,82,116,40
73.75,73.95,78,116,40
74.0,74.75,81,116,40
74.75,74.95,80,103,40
75.0,75.2,80,92,40
75.25,75.45,78,92,40
75.5,75.9,76,92,40
76.0,76.4,75,92,40
76.5,76.625,76,92,40
76.75,77.0,80,53,40
77.0,77.25,78,53,40
77.25,77.5,76,53,40
77.5,77.75,75,53,40
77.75,78.0,73,53,40
78.0,78.4,71,46,40
78.5,78.9,71,50,40
79.0,79.4,71,55,40
79.5,80.0,71,60,40
80.0,80.3,69,46,40
80.375,80.475,68,46,40
80.5,80.9,66,46,40
81.0,81.75,69,46,40
81.75,82.0,66,46,40
82.0,82.25,69,46,40
82.25,82.45,66,46,40
82.5,82.9,64,46,40
84.0,84.4,71,46,40
84.5,84.9,71,50,40
85.0,85.4,71,55,40
85.5,86.0,71,60,40
86.0,86.3,69,46,40
86.375,86.475,68,46,40
86.5,86.9,66,46,40
87.0,87.4,73,46,40
87.5,87.9,73,50,40
88.0,88.4,73,55,40
88.5,89.0,73,60,40
89.0,89.3,71,46,40
89.375,89.475,69,46,40
89.5,89.9,68,46,40
93.0,94.2,73,46,40
96.0,97.2,78,46,40
97.5,97.9,79,46,40
98.0,98.4,79,50,40
98.5,98.9,79,55,40
99.0,99.5,79,60,40
99.5,99.8,78,46,40
99.875,99.975,76,46,40
100.0,100.4,74,46,40
100.5,100.9,79,46,40
101.0,101.4,79,50,40
101.5,101.9,79,55,40
102.0,102.5,79,60,40
102.5,102.8,78,46,40
102.875,102.975,76,46,40
103.0,103.4,74,46,40
103.5,103.9,83,63,40
104.0,104.4,83,68,40
104.5,104.9,83,72,40
105.0,105.4,83,77,40
106.5,107.0,73,46,40
107.0,107.5,74,46,40
107.5,108.0,71,46,40
108.0,109.0,66,46,40
109.0,109.4,64,46,40
109.5,110.0,63,46,40
110.0,110.4,64,46,40
111.0,111.5,69,46,40
111.5,112.0,67,46,40
112.0,112.4,66,46,40
112.5,113.0,65,46,40
113.0,113.4,66,46,40
114.0,114.4,69,46,40
114.5,114.9,69,46,40
115.0,115.9,69,46,40
116.0,116.3,68,46,40
116.375,116.475,64,46,40
116.5,117.4,67,46,40
117.5,117.9,66,46,40
118.0,118.4,78,92,40
118.5,119.25,76,92,40
119.25,119.375,78,92,40
119.375,119.475,80,92,40
119.5,119.9,81,92,40
120.0,120.25,74,92,40
120.25,120.5,76,92,40
120.5,120.75,74,92,40
120.75,121.0,71,92,40
121.0,121.25,73,92,40
121.25,121.5,69,92,40
121.5,121.9,64,92,40
123.0,124.0,69,46,40
124.0,124.45,73,46,40
124.5,125.0,76,46,40
125.0,125.4,74,46,40
126.0,127.0,71,46,40
127.0,127.45,74,46,40
127.5,128.0,78,46,40
128.0,128.4,76,46,40
129.0,129.25,88,92,40
129.5,129.75,88,99,40
130.0,130.25,88,107,40
130.5,131.0,88,116,40
131.0,131.3,87,92,40
131.375,131.475,85,92,40
131.5,131.9,83,92,40
132.0,132.25,86,92,40
132.5,132.75,86,99,40
133.0,133.25,86,107,40
133.5,134.0,86,116,40
134.0,134.3,85,92,40
134.375,134.475,83,92,40
134.5,134.9,81,92,40
135.0,135.25,84,63,40
135.5,135.75,84,68,40
136.0,136.25,84,72,40
136.5,136.9,84,77,40
138.0,138.4,73,46,40
138.5,138.9,73,50,40
139.0,139.4,73,55,40
139.5,140.0,73,60,40
140.0,140.3,74,46,40
140.375,140.475,75,46,40
140.5,140.9,76,46,40
141.0,142.0,73,46,40
142.0,142.4,71,46,40
142.5,142.75,69,46,40
142.75,143.0,68,46,40
143.0,143.25,69,46,40
143.25,143.5,71,46,40
143.5,143.75,73,46,40
143.75,144.0,74,46,40
144.0,144.4,76,46,40
144.5,144.9,76,50,40
145.0,145.4,76,55,40
145.5,146.0,76,60,40
146.0,146.3,74,46,40
146.375,146.475,73,46,40
146.5,146.9,71,46,40
147.0,147.75,74,46,40
147.75,148.0,71,46,40
148.0,148.25,74,46,40
148.25,148.45,71,46,40
148.5,148.9,69,46,40
150.0,150.4,71,46,40
150.5,150.9,71,50,40
151.0,151.4,71,55,40
151.5,152.0,71,60,40
152.0,152.3,69,46,40
152.375,152.475,68,46,40
152.5,152.9,66,46,40
153.0,153.4,73,46,40
153.5,153.9,73,50,40
154.0,154.4,73,55,40
154.5,155.0,73,60,40
155.0,155.3,71,46,40
155.375,155.475,69,46,40
155.5,155.9,68,46,40
159.0,160.2,73,46,40
162.0,163.2,78,46,40
163.5,163.9,79,46,40
164.0,164.4,79,50,40
164.5,164.9,79,55,40
165.0,165.5,79,60,40
165.5,165.8,78,46,40
165.875,165.975,76,46,40
166.0,166.4,74,46,40
166.5,166.9,79,46,40
167.0,167.4,79,50,40
167.5,167.9,79,55,40
168.0,168.5,79,60,40
168.5,168.8,78,46,40
168.875,168.975,76,46,40
169.0,169.4,74,46,40
169.5,169.9,83,63,40
170.0,170.4,83,68,40
170.5,170.9,83,72,40
171.0,171.4,83,77,40
172.5,173.0,73,46,40
173.0,173.5,74,46,40
173.5,174.0,71,46,40
174.0,175.0,66,46,40
175.0,175.4,64,46,40
175.5,176.0,63,46,40
176.0,176.4,64,46,40
177.0,177.5,69,46,40
177.5,178.0,67,46,40
178.0,178.4,66,46,40
178.5,179.0,65,46,40
179.0,179.4,66,46,40
180.0,180.4,69,46,40
180.5,180.9,69,46,40
181.0,181.9,69,46,40
182.0,182.3,68,46,40
182.375,182.475,64,46,40
182.5,183.4,67,46,40
183.5,183.9,66,46,40
184.0,184.4,78,92,40
184.5,185.25,76,92,40
185.25,185.375,78,92,40
185.375,185.475,80,92,40
185.5,185.9,81,92,40
186.0,186.25,74,92,40
186.25,186.5,76,92,40
186.5,186.75,74,92,40
186.75,187.0,71,92,40
187.0,187.25,73,92,40
187.25,187.5,69,92,40
187.5,187.9,64,92,40
189.0,190.0,69,46,40
190.0,190.45,73,46,40
190.5,191.0,76,46,40
191.0,191.4,74,46,40
192.0,193.0,71,46,40
193.0,193.45,74,46,40
193.5,194.0,78,46,40
194.0,194.4,76,46,40
195.0,195.25,88,92,40
195.5,195.75,88,99,40
196.0,196.25,88,107,40
196.5,197.0,88,116,40
197.0,197.3,87,92,40
197.375,197.475,85,92,40
197.5,197.9,83,92,40
198.0,198.25,86,92,40
198.5,198.75,86,99,40
199.0,199.25,86,107,40
199.5,200.0,86,116,40
200.0,200.3,85,92,40
200.375,200.475,83,92,40
200.5,200.9,81,92,40
201.0,201.25,84,63,40
201.5,201.75,84,68,40
202.0,202.25,84,72,40
202.5,202.9,84,77,40
204.0,204.4,73,46,40
204.5,204.9,73,50,40
205.0,205.4,73,55,40
205.5,206.0,73,60,40
206.0,206.3,74,46,40
206.375,206.475,75,46,40
206.5,206.9,76,46,40
207.0,208.0,73,46,40
208.0,208.4,71,46,40
208.5,208.75,69,46,40
208.75,209.0,68,46,40
209.0,209.25,69,46,40
209.25,209.5,71,46,40
209.5,209.75,73,46,40
209.75,210.0,74,46,40
210.0,210.4,76,46,40
210.5,210.9,76,50,40
211.0,211.4,76,55,40
211.5,212.0,76,60,40
212.0,212.3,74,46,40
212.375,212.475,73,46,40
212.5,212.9,71,46,40
213.0,213.75,74,46,40
213.75,214.0,71,46,40
214.0,214.25,74,46,40
214.25,214.45,71,46,40
214.5,214.9,69,46,40
216.0,217.95,68,46,40
218.0,218.5,69,69,40
218.5,218.95,66,89,40
219.0,219.15,71,103,40
219.25,219.4,76,92,40
219.5,220.7938,71,85,40
220.7938,221.0438,70,46,40
221.0438,221.2938,69,46,40
221.2938,221.5438,68,46,40
221.5438,221.7938,69,46,40
221.7938,222.0438,66,46,40
222.0438,223.7938,68,46,40
223.7938,223.8563,69,63,40
223.8563,223.9188,68,66,40
223.9188,223.9813,66,69,40
223.9813,224.0438,68,72,40
224.0438,224.55661,69,67,40
224.55661,225.06104,66,78,40
225.08759,225.83759,71,60,40
225.83759,226.08759,70,46,40
226.08759,226.33759,69,46,40
226.33759,226.53758,66,46,40
226.58759,226.98758,64,32,40
228.08759,230.03758,68,46,40
230.08759,230.58759,69,69,40
230.58759,231.03758,66,89,40
231.08759,231.23758,71,103,40
231.33759,231.48758,76,92,40
231.58759,232.88138,71,85,40
232.88138,233.13138,70,46,40
233.13138,233.38138,69,46,40
233.38138,233.63138,68,46,40
233.63138,233.88138,69,46,40
233.88138,234.13138,66,46,40
234.13138,235.88138,68,46,40
235.88138,235.94388,69,63,40
235.94388,236.00638,68,66,40
236.00638,236.06888,66,69,40
236.06888,236.13138,68,72,40
236.13138,236.6442,69,67,40
236.6442,237.14862,66,78,40
237.17517,237.92517,71,60,40
237.92517,238.17517,70,46,40
238.17517,238.42517,69,46,40
238.42517,238.62517,66,46,40
238.67517,239.07516,64,32,40
240.17517,240.3085,63,92,40
240.34184,240.47517,66,92,40
240.5085,240.64185,71,92,40
240.67517,240.8085,75,92,40
240.84184,240.97517,78,92,40
241.0085,241.14185,83,92,40
241.17517,241.3085,78,103,40
241.34184,241.47517,75,103,40
241.5085,241.64185,71,103,40
241.67517,241.8085,76,81,40
241.84184,241.97517,73,81,40
242.0085,242.14185,71,81,40
242.17517,242.3085,70,92,40
242.34184,242.47517,68,92,40
242.5085,242.64185,66,92,40
242.67517,242.84184,64,103,40
242.84184,242.97517,66,103,40
243.0085,243.14185,64,103,40
243.17517,243.3085,63,81,40
243.34184,243.47517,66,81,40
243.5085,243.64185,71,81,40
243.67517,243.8085,75,92,40
243.84184,243.97517,78,92,40
244.0085,244.14185,83,92,40
244.17517,244.3085,78,103,40
244.34184,244.47517,75,103,40
244.5085,244.64185,71,103,40
244.67517,244.8085,76,92,40
244.84184,244.97517,73,92,40
245.0085,245.14185,71,92,40
245.17517,245.3085,70,92,40
245.34184,245.47517,68,92,40
245.5085,245.64185,66,92,40
245.67517,245.84184,64,92,40
245.84184,245.97517,66,92,40
246.0085,246.14185,64,92,40
246.17517,246.3085,63,92,40
246.34184,246.47517,66,92,40
246.5085,246.64185,71,92,40
246.67517,246.8085,75,92,40
246.84184,246.97517,78,92,40
247.0085,247.14185,83,92,40
247.17517,247.34184,81,92,40
247.34184,247.47517,80,92,40
247.5085,247.64185,79,92,40
247.67517,247.84184,81,122,40
247.84184,247.97517,80,113,40
248.0085,248.14185,83,106,40
248.17517,248.31676,81,97,40
248.35216,248.49376,80,89,40
248.52916,248.67075,78,80,40
248.70615,248.85568,76,73,40
248.89307,249.04259,75,64,40
249.07997,249.2295,73,56,40
249.26689,249.46689,80,48,40
249.46689,249.62689,76,48,40
249.66689,249.82689,73,46,40
249.8669,250.31549,71,46,40
250.42764,250.64003,75,46,40
250.69313,250.90552,73,46,40
250.95862,252.66731,71,70,40
252.71948,252.95427,74,66,40
253.50209,253.76295,73,60,40
253.76295,253.99774,68,60,40
254.02383,254.2847,71,85,40
254.2847,254.51949,69,85,40
255.0673,255.32817,73,78,40
255.32817,255.53687,71,78,40
255.58905,255.83905,69,75,40
255.83905,256.08905,68,75,40
256.08905,256.33905,66,61,40
256.33905,256.58905,64,61,40
256.58905,256.83905,71,61,40
256.83905,257.07654,69,61,40
257.08905,257.58905,68,65,40
257.58905,257.98904,66,53,40
258.58905,261.98904,83,49,40
262.08905,262.58905,84,106,40
262.58905,263.03903,85,106,40
263.08905,263.58905,76,92,40
263.58905,263.73904,75,92,40
263.83905,264.08905,73,92,40
264.08905,264.33905,71,92,40
264.33905,264.53903,69,92,40
264.58905,266.28903,68,51,40
266.33905,266.40155,69,60,40
266.40155,266.46405,68,61,40
266.46405,266.52655,66,64,40
266.52655,266.58905,68,67,40
266.58905,267.08905,69,70,40
267.08905,267.53903,66,90,40
267.58905,267.71405,71,110,40
267.83905,267.96405,76,92,40
268.08905,269.33905,71,92,40
269.33905,269.58905,70,46,40
269.58905,269.83905,69,46,40
269.83905,270.08905,68,46,40
270.08905,270.33905,69,46,40
270.33905,270.53903,66,46,40
270.58905,270.7557,68,92,40
270.7557,270.9224,71,92,40
270.9224,271.05573,76,92,40
271.08905,272.28903,80,92,40
272.33905,272.40155,81,92,40
272.40155,272.46405,80,92,40
272.46405,272.52655,78,92,40
272.52655,272.58905,80,92,40
272.58905,273.08905,81,92,40
273.08905,273.48904,78,92,40
273.58905,273.83905,83,74,40
273.83905,274.08905,82,59,40
274.08905,274.33905,81,53,40
274.33905,274.58905,80,53,40
274.58905,274.83905,81,53,40
274.83905,275.03903,78,53,40
275.08905,275.50644,76,46,40
276.65427,276.7876,63,92,40
276.82092,276.95425,66,92,40
276.9876,277.12094,71,92,40
277.15427,277.2876,75,92,40
277.32092,277.45425,78,92,40
277.4876,277.62094,83,92,40
277.65427,277.7876,78,103,40
277.82092,277.95425,75,103,40
277.9876,278.12094,71,103,40
278.15427,278.2876,76,81,40
278.32092,278.45425,73,81,40
278.4876,278.62094,71,81,40
278.65427,278.7876,70,92,40
278.82092,278.95425,68,92,40
278.9876,279.12094,66,92,40
279.15427,279.32092,64,103,40
279.32092,279.45425,66,103,40
279.4876,279.62094,64,103,40
279.65427,279.7876,63,81,40
279.82092,279.95425,66,81,40
279.9876,280.12094,71,81,40
280.15427,280.2876,75,92,40
280.32092,280.45425,78,92,40
280.4876,280.62094,83,92,40
280.65427,280.7876,78,103,40
280.82092,280.95425,75,103,40
280.9876,281.12094,71,103,40
281.15427,281.2876,76,92,40
281.32092,281.45425,73,92,40
281.4876,281.62094,71,92,40
281.65427,281.7876,70,92,40
281.82092,281.95425,68,92,40
281.9876,282.12094,66,92,40
282.15427,282.32092,64,92,40
282.32092,282.45425,66,92,40
282.4876,282.62094,64,92,40
282.65427,282.7876,63,92,40
282.82092,282.95425,66,92,40
282.9876,283.12094,71,92,40
283.15427,283.2876,75,92,40
283.32092,283.45425,78,92,40
283.4876,283.62094,83,92,40
283.65427,283.82092,81,92,40
283.82092,283.95425,80,92,40
283.9876,284.12094,79,92,40
284.15427,284.32092,81,122,40
284.32092,284.45425,80,113,40
284.4876,284.62094,83,106,40
284.65427,284.79587,81,97,40
284.83127,284.97284,80,89,40
285.00824,285.14984,78,80,40
285.18524,285.33478,76,73,40
285.37216,285.5217,75,64,40
285.55908,285.7086,73,56,40
285.74597,285.94598,80,48,40
285.94598,286.106,76,48,40
286.146,286.30597,73,46,40
286.34598,286.7946,71,46,40
286.90674,287.1191,75,46,40
287.1722,287.3846,73,46,40
287.4377,289.1464,71,70,40
289.19858,289.43335,74,66,40
289.98117,290.24207,73,60,40
290.24207,290.47684,68,60,40
290.50293,290.7638,71,85,40
290.7638,290.99857,69,85,40
291.5464,291.80728,73,78,40
291.80728,292.01596,71,78,40
292.06815,292.31815,69,75,40
292.31815,292.56815,68,75,40
292.56815,292.81815,66,61,40
292.81815,293.06815,64,61,40
293.06815,293.31815,71,61,40
293.31815,293.55563,69,61,40
293.56815,294.06815,68,65,40
294.06815,294.46814,66,53,40
295.06815,298.46814,83,49,40
298.56815,299.06815,84,106,40
299.06815,299.51813,85,106,40
299.56815,300.06815,76,92,40
300.06815,300.21814,75,92,40
300.31815,300.56815,73,92,40
300.56815,300.81815,71,92,40
300.81815,301.01813,69,92,40
301.06815,302.76813,68,51,40
302.81815,302.88065,69,60,40
302.88065,302.94315,68,61,40
302.94315,303.00565,66,64,40
303.00565,303.06815,68,67,40
303.06815,303.56815,69,70,40
303.56815,304.01813,66,90,40
304.06815,304.19315,71,110,40
304.31815,304.44315,76,92,40
304.56815,305.81815,71,92,40
305.81815,306.06815,70,46,40
306.06815,306.31815,69,46,40
306.31815,306.56815,68,46,40
306.56815,306.81815,69,46,40
306.81815,307.01813,66,46,40
307.06815,307.2348,68,92,40
307.2348,307.40146,71,92,40
307.40146,307.5348,76,92,40
307.56815,308.76813,80,92,40
308.81815,308.88065,81,92,40
308.88065,308.94315,80,92,40
308.94315,309.00565,78,92,40
309.00565,309.06815,80,92,40
309.06815,309.56815,81,92,40
309.56815,309.96814,78,92,40
310.06815,310.31815,83,74,40
310.31815,310.56815,82,59,40
310.56815,310.81815,81,53,40
310.81815,311.06815,80,53,40
311.06815,311.31815,81,53,40
311.31815,311.51813,78,53,40
311.56815,311.98553,76,46,40
313.13336,314.17682,57,88,40
314.17682,314.6464,61,40,40
314.69858,315.2203,64,37,40
315.2203,315.6377,62,37,40
316.2638,317.30725,59,88,40
317.30725,317.77682,62,40,40
317.829,318.35074,66,37,40
318.35074,318.76813,64,37,40
319.39423,319.8116,76,53,40
319.91595,320.33334,76,58,40
320.4377,320.8551,76,64,40
320.95944,321.48117,76,70,40
321.48117,321.79422,74,53,40
321.87247,321.97684,73,53,40
322.00293,322.42032,71,53,40
322.52466,322.94205,74,53,40
323.0464,323.46378,74,58,40
323.56815,323.98553,74,64,40
324.08987,324.6116,74,70,40
324.6116,324.92465,73,53,40
325.00293,325.10727,71,53,40
325.13336,325.55075,69,53,40
325.6551,326.69858,69,110,40
326.69858,327.16812,73,92,40
327.2203,327.74203,78,92,40
327.74203,328.15942,76,92,40
328.78552,329.829,76,92,40
329.829,330.29855,79,92,40
330.35074,330.87247,84,92,40
330.87247,331.28986,83,92,40
331.91595,332.95944,76,63,40
332.95944,333.42902,80,63,40
333.48117,334.0029,85,63,40
334.0029,334.42032,83,63,40
338.17682,338.5942,83,46,40
338.69858,339.11597,83,50,40
339.2203,339.6377,83,55,40
339.74203,340.2638,83,60,40
340.2638,340.5768,81,46,40
340.6551,340.75943,80,46,40
340.78552,341.2029,78,46,40
341.30725,341.72464,83,46,40
341.829,342.2464,83,50,40
342.35074,342.76813,83,55,40
342.87247,343.39423,83,60,40
343.39423,343.70724,81,46,40
343.78552,343.88986,80,46,40
343.91595,344.33334,78,46,40
344.43768,344.69858,83,116,40
344.95944,345.2203,83,116,40
345.48117,345.74203,83,116,40
346.0029,346.2638,82,116,40
346.2638,346.47247,78,116,40
346.52466,347.30725,81,116,40
347.30725,347.51596,80,103,40
347.5681,347.77682,80,92,40
347.829,348.0377,78,92,40
348.08987,348.50726,76,92,40
348.6116,349.029,75,92,40
349.13333,349.2638,76,92,40
349.39423,349.6551,80,53,40
349.6551,349.91595,78,53,40
349.91595,350.17682,76,53,40
350.17682,350.43768,75,53,40
350.43768,350.69855,73,53,40
350.69855,351.11597,71,46,40
351.2203,351.6377,71,50,40
351.74203,352.15942,71,55,40
352.2638,352.78552,71,60,40
352.78552,353.09857,69,46,40
353.17682,353.28116,68,46,40
353.30725,353.72464,66,46,40
353.829,354.6116,69,46,40
354.6116,354.87247,66,46,40
354.87247,355.13333,69,46,40
355.13333,355.34204,66,46,40
355.39423,355.8116,64,46,40
356.95944,357.37683,71,46,40
357.48117,357.89856,71,50,40
358.0029,358.4203,71,55,40
358.52466,359.0464,71,60,40
359.0464,359.35944,69,46,40
359.43768,359.54205,68,46,40
359.5681,359.9855,66,46,40
360.08987,360.50726,73,46,40
360.6116,361.029,73,50,40
361.13333,361.55072,73,55,40
361.6551,362.17682,73,60,40
362.17682,362.48987,71,46,40
362.5681,362.6725,69,46,40
362.69855,363.11594,68,46,40
366.35074,367.6029,73,46,40
369.48117,370.73334,78,46,40
371.0464,371.46378,79,46,40
371.5681,371.9855,79,50,40
372.08987,372.50726,79,55,40
372.6116,373.13333,79,60,40
373.13333,373.44638,78,46,40
373.52466,373.629,76,46,40
373.6551,374.07248,74,46,40
374.17682,374.5942,79,46,40
374.69855,375.11594,79,50,40
375.2203,375.6377,79,55,40
375.74203,376.26376,79,60,40
376.26376,376.5768,78,46,40
376.6551,376.75943,76,46,40
376.78552,377.2029,74,46,40
377.30725,377.72464,83,63,40
377.82898,378.24637,83,68,40
378.35074,378.76813,83,72,40
378.87247,379.28986,83,77,40
380.43768,380.9594,73,46,40
380.9594,381.48117,74,46,40
381.48117,382.0029,71,46,40
382.0029,383.0464,66,46,40
383.0464,383.46378,64,46,40
383.5681,384.08984,63,46,40
384.08984,384.50726,64,46,40
385.13333,385.65506,69,46,40
385.65506,386.17682,67,46,40
386.17682,386.5942,66,46,40
386.69855,387.2203,65,46,40
387.2203,387.6377,66,46,40
388.26376,388.68115,69,46,40
388.78552,389.2029,69,46,40
389.30725,390.24637,69,46,40
390.35074,390.66376,68,46,40
390.74203,390.84637,64,46,40
390.87247,391.81158,67,46,40
391.91595,392.33334,66,46,40
392.43768,392.85507,78,92,40
392.9594,393.74203,76,92,40
393.74203,393.87247,78,92,40
393.87247,393.9768,80,92,40
394.0029,394.4203,81,92,40
394.52463,394.78552,74,92,40
394.78552,395.0464,76,92,40
395.0464,395.30725,74,92,40
395.30725,395.5681,71,92,40
395.5681,395.82898,73,92,40
395.82898,396.08984,69,92,40
396.08984,396.50723,64,92,40
397.65506,398.69855,69,46,40
398.69855,399.16812,73,46,40
399.22028,399.74203,76,46,40
399.74203,400.15942,74,46,40
400.7855,401.82898,71,46,40
401.82898,402.29855,74,46,40
402.3507,402.87247,78,46,40
402.87247,403.28986,76,46,40
403.91595,404.17682,88,92,40
404.43768,404.69855,88,99,40
404.9594,405.22028,88,107,40
405.48117,406.0029,88,116,40
406.0029,406.31595,87,92,40
406.3942,406.49854,85,92,40
406.52463,406.94202,83,92,40
407.0464,407.30725,86,92,40
407.5681,407.82898,86,99,40
408.08984,408.3507,86,107,40
408.6116,409.13333,86,116,40
409.13333,409.44638,85,92,40
409.52463,409.62897,83,92,40
409.65506,410.07245,81,92,40
410.17682,410.43768,84,63,40
410.69855,410.9594,84,68,40
411.22028,411.48117,84,72,40
411.74203,412.15942,84,77,40
413.30725,413.72464,73,46,40
413.82898,414.24637,73,50,40
414.3507,414.7681,73,55,40
414.87247,415.3942,73,60,40
415.3942,415.70724,74,46,40
415.7855,415.88986,75,46,40
415.91592,416.3333,76,46,40
416.43768,417.48114,73,46,40
417.48114,417.89856,71,46,40
418.0029,418.26376,69,46,40
418.26376,418.52463,68,46,40
418.52463,418.7855,69,46,40
418.7855,419.04636,71,46,40
419.04636,419.30725,73,46,40
419.30725,419.5681,74,46,40
419.5681,419.9855,76,46,40
420.08984,420.50723,76,50,40
420.6116,421.029,76,55,40
421.13333,421.65506,76,60,40
421.65506,421.9681,74,46,40
422.04636,422.15073,73,46,40
422.17682,422.5942,71,46,40
422.69855,423.48114,74,46,40
423.48114,423.74203,71,46,40
423.74203,424.0029,74,46,40
424.0029,424.21158,71,46,40
424.26376,424.68115,69,46,40
426.3507,426.48114,69,46,40
0.0,1.0,57,72,40
1.0,1.45,61,30,40
1.5,2.0,64,29,40
2.0,2.4,62,29,40
3.0,4.0,59,72,40
4.0,4.45,62,30,40
4.5,5.0,66,29,40
5.0,5.4,64,29,40
6.0,7.5,64,21,40
7.5,9.0,66,21,40
9.0,10.5,68,21,40
10.5,10.9,69,21,40
12.0,12.25,69,74,40
12.5,12.75,69,82,40
13.0,13.25,69,91,40
13.5,14.0,69,102,40
14.0,14.3,68,74,40
14.375,14.475,66,74,40
14.5,14.9,64,74,40
15.0,16.0,64,74,40
16.0,16.45,67,74,40
16.5,17.0,72,74,40
17.0,17.4,71,74,40
19.5,20.5,51,65,40
21.0,22.0,64,36,40
22.0,22.45,68,36,40
22.5,23.0,73,36,40
23.0,23.4,71,36,40
24.0,24.4,71,36,40
24.5,24.9,71,38,40
25.0,25.4,71,41,40
25.5,26.0,71,44,40
26.0,26.3,69,36,40
26.375,26.475,68,36,40
26.5,26.9,66,36,40
27.0,27.4,71,36,40
27.5,27.9,71,38,40
28.0,28.4,71,41,40
28.5,29.0,71,44,40
29.0,29.3,69,36,40
29.375,29.475,68,36,40
29.5,29.9,66,36,40
30.0,30.25,74,92,40
30.5,30.75,74,92,40
31.0,31.25,74,92,40
31.5,32.0,73,92,40
32.0,32.5,72,92,40
32.5,32.9,71,82,40
33.0,33.4,73,74,40
33.5,33.9,71,74,40
34.0,34.4,69,74,40
34.5,34.9,68,74,40
36.0,37.5,59,36,40
37.5,38.7,61,36,40
39.0,39.4,63,36,40
39.5,39.9,63,36,40
40.0,40.4,63,36,40
40.5,40.9,64,36,40
42.0,43.0,57,72,40
43.0,43.45,61,30,40
43.5,44.0,64,29,40
44.0,44.4,62,29,40
45.0,46.0,59,72,40
46.0,46.45,62,30,40
46.5,47.0,66,29,40
47.0,47.4,64,29,40
48.0,49.5,64,21,40
49.5,51.0,66,21,40
51.0,52.5,68,21,40
52.5,52.9,69,21,40
54.0,54.25,69,74,40
54.5,54.75,69,82,40
55.0,55.25,69,91,40
55.5,56.0,69,102,40
56.0,56.3,68,74,40
56.375,56.475,66,74,40
56.5,56.9,64,74,40
57.0,58.0,64,74,40
58.0,58.45,67,74,40
58.5,59.0,72,74,40
59.0,59.4,71,74,40
61.5,62.5,51,65,40
63.0,64.0,64,36,40
64.0,64.45,68,36,40
64.5,65.0,73,36,40
65.0,65.4,71,36,40
66.0,66.4,71,36,40
66.5,66.9,71,38,40
67.0,67.4,71,41,40
67.5,68.0,71,44,40
68.0,68.3,69,36,40
68.375,68.475,68,36,40
68.5,68.9,66,36,40
69.0,69.4,71,36,40
69.5,69.9,71,38,40
70.0,70.4,71,41,40
70.5,71.0,71,44,40
71.0,71.3,69,36,40
71.375,71.475,68,36,40
71.5,71.9,66,36,40
72.0,72.25,74,92,40
72.5,72.75,74,92,40
73.0,73.25,74,92,40
73.5,74.0,73,92,40
74.0,74.5,72,92,40
74.5,74.9,71,82,40
75.0,75.4,73,74,40
75.5,75.9,71,74,40
76.0,76.4,69,74,40
76.5,76.9,68,74,40
78.0,79.5,59,36,40
79.5,80.7,61,36,40
81.0,81.4,63,36,40
81.5,81.9,63,36,40
82.0,82.4,63,36,40
82.5,82.9,64,36,40
84.0,84.4,68,36,40
84.5,84.9,68,38,40
85.0,85.4,68,41,40
85.5,86.0,68,44,40
86.0,86.3,66,36,40
86.375,86.475,64,36,40
86.5,86.9,63,36,40
87.0,87.4,69,36,40
87.5,87.9,69,38,40
88.0,88.4,69,41,40
88.5,89.0,69,44,40
89.0,89.3,68,36,40
89.375,89.475,66,36,40
89.5,89.9,64,36,40
93.0,94.2,61,36,40
96.0,97.2,66,36,40
97.5,97.9,67,36,40
98.0,98.4,67,38,40
98.5,98.9,67,41,40
99.0,99.5,67,44,40
99.5,99.8,66,36,40
99.875,99.975,64,36,40
100.0,100.4,62,36,40
100.5,100.9,67,36,40
101.0,101.4,67,38,40
101.5,101.9,67,41,40
102.0,102.5,67,44,40
102.5,102.8,66,36,40
102.875,102.975,64,36,40
103.0,103.4,62,36,40
103.5,103.9,73,63,40
104.0,104.4,73,68,40
104.5,104.9,73,72,40
105.0,105.4,73,77,40
108.0,109.0,62,36,40
109.0,109.4,61,36,40
109.5,110.0,60,36,40
110.0,110.4,59,36,40
111.0,111.5,62,36,40
111.5,112.0,64,36,40
112.0,112.4,62,36,40
112.5,113.3,61,36,40
114.5,115.0,61,36,40
115.0,115.5,63,36,40
115.5,116.0,64,36,40
116.0,116.5,59,36,40
116.5,116.9,61,36,40
117.0,117.4,62,36,40
117.5,117.9,69,74,40
118.0,118.4,69,74,40
118.5,119.0,68,74,40
119.0,119.3,69,74,40
119.375,119.475,74,74,40
119.5,119.9,73,74,40
120.5,120.9,64,74,40
121.0,121.4,64,74,40
121.5,122.0,64,74,40
122.0,122.5,63,63,40
122.5,123.0,62,63,40
123.0,123.4,61,36,40
123.5,123.9,61,38,40
124.0,124.4,61,41,40
124.5,125.0,61,44,40
125.0,125.3,59,36,40
125.375,125.475,57,36,40
125.5,125.9,56,36,40
126.0,126.4,62,36,40
126.5,126.9,62,38,40
127.0,127.4,62,41,40
127.5,128.0,62,44,40
128.0,128.3,61,36,40
128.375,128.475,59,36,40
128.5,128.9,57,36,40
130.5,130.75,81,74,40
131.0,131.25,81,79,40
131.5,131.75,81,85,40
132.0,132.5,81,92,40
132.5,132.8,80,74,40
132.875,132.975,78,74,40
133.0,133.4,76,74,40
133.5,133.75,79,74,40
134.0,134.25,79,74,40
134.5,134.75,79,74,40
135.0,135.25,78,63,40
135.5,135.75,78,68,40
136.0,136.25,78,72,40
136.5,136.9,78,77,40
138.0,138.4,69,36,40
138.5,138.9,69,38,40
139.0,139.4,69,41,40
139.5,140.0,69,44,40
140.0,140.3,71,36,40
140.375,140.475,72,36,40
140.5,140.9,73,36,40
141.0,142.0,69,36,40
142.0,142.4,68,36,40
142.5,142.9,69,36,40
144.0,144.4,58,36,40
144.5,144.9,58,38,40
145.0,145.4,58,41,40
145.5,146.0,58,44,40
146.0,146.3,59,36,40
146.375,146.475,61,36,40
146.5,146.9,62,36,40
147.0,147.75,59,36,40
147.75,148.0,62,36,40
148.0,148.25,59,36,40
148.25,148.45,62,36,40
148.5,148.9,61,36,40
150.0,150.4,68,36,40
150.5,150.9,68,38,40
151.0,151.4,68,41,40
151.5,152.0,68,44,40
152.0,152.3,66,36,40
152.375,152.475,64,36,40
152.5,152.9,63,36,40
153.0,153.4,69,36,40
153.5,153.9,69,38,40
154.0,154.4,69,41,40
154.5,155.0,69,44,40
155.0,155.3,68,36,40
155.375,155.475,66,36,40
155.5,155.9,64,36,40
159.0,160.2,61,36,40
162.0,163.2,66,36,40
163.5,163.9,67,36,40
164.0,164.4,67,38,40
164.5,164.9,67,41,40
165.0,165.5,67,44,40
165.5,165.8,66,36,40
165.875,165.975,64,36,40
166.0,166.4,62,36,40
166.5,166.9,67,36,40
167.0,167.4,67,38,40
167.5,167.9,67,41,40
168.0,168.5,67,44,40
168.5,168.8,66,36,40
168.875,168.975,64,36,40
169.0,169.4,62,36,40
169.5,169.9,73,63,40
170.0,170.4,73,68,40
170.5,170.9,73,72,40
171.0,171.4,73,77,40
174.0,175.0,62,36,40
175.0,175.4,61,36,40
175.5,176.0,60,36,40
176.0,176.4,59,36,40
177.0,177.5,62,36,40
177.5,178.0,64,36,40
178.0,178.4,62,36,40
178.5,179.3,61,36,40
180.5,181.0,61,36,40
181.0,181.5,63,36,40
181.5,182.0,64,36,40
182.0,182.5,59,36,40
182.5,182.9,61,36,40
183.0,183.4,62,36,40
183.5,183.9,69,74,40
184.0,184.4,69,74,40
184.5,185.0,68,74,40
185.0,185.3,69,74,40
185.375,185.475,74,74,40
185.5,185.9,73,74,40
186.5,186.9,64,74,40
187.0,187.4,64,74,40
187.5,188.0,64,74,40
188.0,188.5,63,63,40
188.5,189.0,62,63,40
189.0,189.4,61,36,40
189.5,189.9,61,38,40
190.0,190.4,61,41,40
190.5,191.0,61,44,40
191.0,191.3,59,36,40
191.375,191.475,57,36,40
191.5,191.9,56,36,40
192.0,192.4,62,36,40
192.5,192.9,62,38,40
193.0,193.4,62,41,40
193.5,194.0,62,44,40
194.0,194.3,61,36,40
194.375,194.475,59,36,40
194.5,194.9,57,36,40
196.5,196.75,81,74,40
197.0,197.25,81,79,40
197.5,197.75,81,85,40
198.0,198.5,81,92,40
198.5,198.8,80,74,40
198.875,198.975,78,74,40
199.0,199.4,76,74,40
199.5,199.75,79,74,40
200.0,200.25,79,74,40
200.5,200.75,79,74,40
201.0,201.25,78,63,40
201.5,201.75,78,68,40
202.0,202.25,78,72,40
202.5,202.9,78,77,40
204.0,204.4,69,36,40
204.5,204.9,69,38,40
205.0,205.4,69,41,40
205.5,206.0,69,44,40
206.0,206.3,71,36,40
206.375,206.475,72,36,40
206.5,206.9,73,36,40
207.0,208.0,69,36,40
208.0,208.4,68,36,40
208.5,208.9,69,36,40
210.0,210.4,58,36,40
210.5,210.9,58,38,40
211.0,211.4,58,41,40
211.5,212.0,58,44,40
212.0,212.3,59,36,40
212.375,212.475,61,36,40
212.5,212.9,62,36,40
213.0,213.75,59,36,40
213.75,214.0,62,36,40
214.0,214.25,59,36,40
214.25,214.45,62,36,40
214.5,214.9,61,36,40
216.0,217.95,64,36,40
218.0,218.8,63,56,40
219.0,219.4,64,82,40
219.5,219.91026,66,52,40
220.01282,220.43759,68,52,40
220.5438,220.7938,69,27,40
220.7938,221.0188,66,25,40
221.0438,221.44379,66,36,40
222.0438,224.0438,64,36,40
224.0438,224.55661,63,54,40
224.55661,225.06104,61,65,40
225.08759,225.58759,59,39,40
225.58759,226.08759,61,36,40
226.08759,226.33759,59,36,40
226.33759,226.53758,57,36,40
226.58759,226.98758,56,25,40
228.08759,230.03758,64,36,40
230.08759,230.88759,63,56,40
231.08759,231.48758,64,82,40
231.58759,231.99785,66,52,40
232.1004,232.52518,68,52,40
232.63138,232.88138,69,27,40
232.88138,233.10638,66,25,40
233.13138,233.53137,66,36,40
234.13138,236.13138,64,36,40
236.13138,236.6442,63,54,40
236.6442,237.14862,61,65,40
237.17517,237.67517,59,39,40
237.67517,238.17517,61,36,40
238.17517,238.42517,59,36,40
238.42517,238.62517,57,36,40
238.67517,239.07516,56,25,40
240.17517,240.42517,66,74,40
240.42517,240.62517,63,74,40
240.67517,241.92517,66,74,40
241.92517,242.12517,73,74,40
242.17517,243.42517,66,74,40
243.42517,243.62517,63,74,40
243.67517,244.92517,66,74,40
244.92517,245.12517,73,74,40
245.17517,246.57516,66,74,40
247.17517,248.07516,71,36,40
249.8669,250.42764,63,31,40
250.42764,250.69313,66,31,40
250.69313,250.90552,64,31,40
250.95862,251.45862,63,33,40
251.45862,251.95862,64,50,40
251.95862,252.43361,66,60,40
252.45862,252.98035,68,67,40
252.98035,253.50209,69,31,40
253.50209,253.91948,71,26,40
254.02383,254.54556,66,32,40
254.54556,255.0673,68,31,40
255.0673,255.4847,69,31,40
255.58905,255.83905,63,32,40
255.83905,256.08905,64,32,40
256.08905,256.33905,63,31,40
256.33905,256.58905,64,31,40
256.58905,256.83905,68,31,40
256.83905,257.07654,66,31,40
257.08905,257.58905,64,32,40
257.58905,257.98904,63,28,40
258.58905,258.83905,59,39,40
258.83905,259.08905,61,43,40
259.08905,259.33905,63,47,40
259.33905,259.58905,64,51,40
259.58905,259.83905,66,56,40
259.83905,260.03903,68,61,40
260.08905,260.33905,69,66,40
260.33905,260.58905,71,70,40
260.58905,260.83905,73,74,40
260.83905,261.08905,75,79,40
261.08905,261.33905,76,84,40
261.33905,261.53903,78,87,40
261.58905,261.98904,80,93,40
262.58905,263.03903,76,74,40
263.08905,263.58905,68,74,40
263.58905,263.73904,66,74,40
263.83905,264.08905,69,74,40
264.08905,264.33905,68,74,40
264.33905,264.53903,66,74,40
264.58905,266.58905,64,39,40
266.58905,267.08905,66,56,40
267.08905,267.48904,63,73,40
267.58905,267.83905,64,76,40
267.83905,268.08905,63,63,40
268.08905,268.33905,66,63,40
268.33905,268.58905,64,63,40
268.58905,268.83905,68,54,40
268.83905,269.03903,66,54,40
269.08905,269.33905,69,40,40
269.33905,269.53903,66,33,40
269.58905,269.98904,63,33,40
270.58905,270.7557,64,74,40
270.7557,270.9224,68,74,40
270.9224,271.05573,71,74,40
271.08905,272.28903,76,74,40
272.33905,272.40155,78,74,40
272.40155,272.46405,76,74,40
272.46405,272.52655,75,74,40
272.52655,272.58905,76,74,40
272.58905,273.08905,78,74,40
273.08905,273.48904,75,74,40
273.58905,273.98904,76,48,40
274.08905,274.33905,78,36,40
274.33905,274.58905,76,36,40
274.58905,274.83905,78,36,40
274.83905,275.03903,75,36,40
275.08905,275.50644,76,36,40
276.65427,276.90427,66,74,40
276.90427,277.10425,63,74,40
277.15427,278.40427,66,74,40
278.40427,278.60425,73,74,40
278.65427,279.90427,66,74,40
279.90427,280.10425,63,74,40
280.15427,281.40427,66,74,40
281.40427,281.60425,73,74,40
281.65427,283.05426,66,74,40
283.65427,284.55426,71,36,40
286.34598,286.90674,63,31,40
286.90674,287.1722,66,31,40
287.1722,287.3846,64,31,40
287.4377,287.9377,63,33,40
287.9377,288.4377,64,50,40
288.4377,288.9127,66,60,40
288.9377,289.45944,68,67,40
289.45944,289.98117,69,31,40
289.98117,290.39856,71,26,40
290.50293,291.02466,66,32,40
291.02466,291.5464,68,31,40
291.5464,291.96378,69,31,40
292.06815,292.31815,63,32,40
292.31815,292.56815,64,32,40
292.56815,292.81815,63,31,40
292.81815,293.06815,64,31,40
293.06815,293.31815,68,31,40
293.31815,293.55563,66,31,40
293.56815,294.06815,64,32,40
294.06815,294.46814,63,28,40
295.06815,295.31815,59,39,40
295.31815,295.56815,61,43,40
295.56815,295.81815,63,47,40
295.81815,296.06815,64,51,40
296.06815,296.31815,66,56,40
296.31815,296.51813,68,61,40
296.56815,296.81815,69,66,40
296.81815,297.06815,71,70,40
297.06815,297.31815,73,74,40
297.31815,297.56815,75,79,40
297.56815,297.81815,76,84,40
297.81815,298.01813,78,87,40
298.06815,298.46814,80,93,40
299.06815,299.51813,76,74,40
299.56815,300.06815,68,74,40
300.06815,300.21814,66,74,40
300.31815,300.56815,69,74,40
300.56815,300.81815,68,74,40
300.81815,301.01813,66,74,40
301.06815,303.06815,64,39,40
303.06815,303.56815,66,56,40
303.56815,303.96814,63,73,40
304.06815,304.31815,64,76,40
304.31815,304.56815,63,63,40
304.56815,304.81815,66,63,40
304.81815,305.06815,64,63,40
305.06815,305.31815,68,54,40
305.31815,305.51813,66,54,40
305.56815,305.81815,69,40,40
305.81815,306.01813,66,33,40
306.06815,306.46814,63,33,40
307.06815,307.2348,64,74,40
307.2348,307.40146,68,74,40
307.40146,307.5348,71,74,40
307.56815,308.76813,76,74,40
308.81815,308.88065,78,74,40
308.88065,308.94315,76,74,40
308.94315,309.00565,75,74,40
309.00565,309.06815,76,74,40
309.06815,309.56815,78,74,40
309.56815,309.96814,75,74,40
310.06815,310.46814,76,48,40
310.56815,310.81815,78,36,40
310.81815,311.06815,76,36,40
311.06815,311.31815,78,36,40
311.31815,311.51813,75,36,40
311.56815,311.98553,76,36,40
313.13336,314.17682,57,72,40
314.17682,314.6464,61,30,40
314.69858,315.2203,64,29,40
315.2203,315.6377,62,29,40
316.2638,317.30725,59,72,40
317.30725,317.77682,62,30,40
317.829,318.35074,66,29,40
318.35074,318.76813,64,29,40
319.39423,320.95944,64,21,40
320.95944,322.52466,66,21,40
322.52466,324.08987,68,21,40
324.08987,324.50726,69,21,40
325.6551,325.91595,69,74,40
326.17682,326.4377,69,82,40
326.69858,326.95944,69,91,40
327.2203,327.74203,69,102,40
327.74203,328.05508,68,74,40
328.13336,328.2377,66,74,40
328.2638,328.68118,64,74,40
328.78552,329.829,64,74,40
329.829,330.29855,67,74,40
330.35074,330.87247,72,74,40
330.87247,331.28986,71,74,40
333.48117,334.52466,51,61,40
335.0464,336.08987,64,36,40
336.08987,336.55945,68,36,40
336.6116,337.13336,73,36,40
337.13336,337.55075,71,36,40
338.17682,338.5942,71,36,40
338.69858,339.11597,71,38,40
339.2203,339.6377,71,41,40
339.74203,340.2638,71,44,40
340.2638,340.5768,69,36,40
340.6551,340.75943,68,36,40
340.78552,341.2029,66,36,40
341.30725,341.72464,71,36,40
341.829,342.2464,71,38,40
342.35074,342.76813,71,41,40
342.87247,343.39423,71,44,40
343.39423,343.70724,69,36,40
343.78552,343.88986,68,36,40
343.91595,344.33334,66,36,40
344.43768,344.69858,74,92,40
344.95944,345.2203,74,92,40
345.48117,345.74203,74,92,40
346.0029,346.52466,73,92,40
346.52466,347.0464,72,92,40
347.0464,347.46378,71,82,40
347.5681,347.9855,73,74,40
348.08987,348.50726,71,74,40
348.6116,349.029,69,74,40
349.13333,349.55075,68,74,40
350.69855,352.2638,59,36,40
352.2638,353.51596,61,36,40
353.829,354.2464,63,36,40
354.35074,354.76813,63,36,40
354.87247,355.28986,63,36,40
355.39423,355.8116,64,36,40
356.95944,357.37683,68,36,40
357.48117,357.89856,68,38,40
358.0029,358.4203,68,41,40
358.52466,359.0464,68,44,40
359.0464,359.35944,66,36,40
359.43768,359.54205,64,36,40
359.5681,359.9855,63,36,40
360.08987,360.50726,69,36,40
360.6116,361.029,69,38,40
361.13333,361.55072,69,41,40
361.6551,362.17682,69,44,40
362.17682,362.48987,68,36,40
362.5681,362.6725,66,36,40
362.69855,363.11594,64,36,40
366.35074,367.6029,61,36,40
369.48117,370.73334,66,36,40
371.0464,371.46378,67,36,40
371.5681,371.9855,67,38,40
372.08987,372.50726,67,41,40
372.6116,373.13333,67,44,40
373.13333,373.44638,66,36,40
373.52466,373.629,64,36,40
373.6551,374.07248,62,36,40
374.17682,374.5942,67,36,40
374.69855,375.11594,67,38,40
375.2203,375.6377,67,41,40
375.74203,376.26376,67,44,40
376.26376,376.5768,66,36,40
376.6551,376.75943,64,36,40
376.78552,377.2029,62,36,40
377.30725,377.72464,73,63,40
377.82898,378.24637,73,68,40
378.35074,378.76813,73,72,40
378.87247,379.28986,73,77,40
382.0029,383.0464,62,36,40
383.0464,383.46378,61,36,40
383.5681,384.08984,60,36,40
384.08984,384.50726,59,36,40
385.13333,385.65506,62,36,40
385.65506,386.17682,64,36,40
386.17682,386.5942,62,36,40
386.69855,387.53333,61,36,40
388.78552,389.30725,61,36,40
389.30725,389.82898,63,36,40
389.82898,390.35074,64,36,40
390.35074,390.87247,59,36,40
390.87247,391.28986,61,36,40
391.3942,391.81158,62,36,40
391.91595,392.33334,69,74,40
392.43768,392.85507,69,74,40
392.9594,393.48117,68,74,40
393.48117,393.7942,69,74,40
393.87247,393.9768,74,74,40
394.0029,394.4203,73,74,40
395.0464,395.46378,64,74,40
395.5681,395.9855,64,74,40
396.08984,396.6116,64,74,40
396.6116,397.13333,63,63,40
397.13333,397.65506,62,63,40
397.65506,398.07245,61,36,40
398.17682,398.5942,61,38,40
398.69855,399.11594,61,41,40
399.22028,399.74203,61,44,40
399.74203,400.05508,59,36,40
400.13333,400.23767,57,36,40
400.26376,400.68115,56,36,40
400.7855,401.2029,62,36,40
401.30725,401.72464,62,38,40
401.82898,402.24637,62,41,40
402.3507,402.87247,62,44,40
402.87247,403.18552,61,36,40
403.26376,403.3681,59,36,40
403.3942,403.81158,57,36,40
405.48117,405.74203,81,74,40
406.0029,406.26376,81,79,40
406.52463,406.7855,81,85,40
407.0464,407.5681,81,92,40
407.5681,407.88116,80,74,40
407.9594,408.06375,78,74,40
408.08984,408.50723,76,74,40
408.6116,408.87247,79,74,40
409.13333,409.3942,79,74,40
409.65506,409.91592,79,74,40
410.17682,410.43768,78,63,40
410.69855,410.9594,78,68,40
411.22028,411.48117,78,72,40
411.74203,412.15942,78,77,40
413.30725,413.72464,69,36,40
413.82898,414.24637,69,38,40
414.3507,414.7681,69,41,40
414.87247,415.3942,69,44,40
415.3942,415.70724,71,36,40
415.7855,415.88986,72,36,40
415.91592,416.3333,73,36,40
416.43768,417.48114,69,36,40
417.48114,417.89856,68,36,40
418.0029,418.4203,69,36,40
419.5681,419.9855,58,36,40
420.08984,420.50723,58,38,40
420.6116,421.029,58,41,40
421.13333,421.65506,58,44,40
421.65506,421.9681,59,36,40
422.04636,422.15073,61,36,40
422.17682,422.5942,62,36,40
422.69855,423.48114,59,36,40
423.48114,423.74203,62,36,40
423.74203,424.0029,59,36,40
424.0029,424.21158,62,36,40
424.26376,424.68115,61,36,40
0.0,1.0,57,72,41
1.0,1.45,61,30,41
1.5,2.0,64,29,41
2.0,2.4,62,29,41
3.0,4.0,59,72,41
4.0,4.45,62,30,41
4.5,5.0,66,29,41
5.0,5.4,64,29,41
6.0,7.5,61,21,41
7.5,9.0,62,21,41
9.0,10.5,64,21,41
10.5,10.9,57,21,41
15.0,15.25,67,74,41
15.5,15.75,67,82,41
16.0,16.25,67,91,41
16.5,17.0,67,102,41
17.0,17.3,66,74,41
17.375,17.475,64,74,41
17.5,17.9,63,74,41
20.5,20.95,54,36,41
21.0,21.5,57,36,41
21.5,21.9,56,36,41
25.5,25.9,63,36,41
26.0,26.4,63,38,41
26.5,26.9,63,41,41
27.0,27.5,63,44,41
27.5,27.8,64,36,41
27.875,27.975,66,36,41
28.0,28.4,68,36,41
28.5,29.0,63,36,41
29.0,29.4,63,38,41
29.5,29.9,63,41,41
30.0,30.5,66,95,41
30.5,30.8,65,70,41
30.875,30.975,66,70,41
31.0,31.4,68,70,41
31.5,31.9,61,92,41
32.0,32.75,66,92,41
32.75,32.95,68,82,41
33.0,33.4,69,74,41
33.5,33.9,68,74,41
34.0,34.4,66,74,41
34.5,34.9,64,74,41
36.0,37.5,56,36,41
37.5,38.7,57,36,41
39.0,39.75,54,36,41
39.75,40.0,57,36,41
40.0,40.25,54,36,41
40.25,40.45,57,36,41
40.5,40.9,56,36,41
42.0,43.0,57,72,41
43.0,43.45,61,30,41
43.5,44.0,64,29,41
44.0,44.4,62,29,41
45.0,46.0,59,72,41
46.0,46.45,62,30,41
46.5,47.0,66,29,41
47.0,47.4,64,29,41
48.0,49.5,61,21,41
49.5,51.0,62,21,41
51.0,52.5,64,21,41
52.5,52.9,57,21,41
57.0,57.25,67,74,41
57.5,57.75,67,82,41
58.0,58.25,67,91,41
58.5,59.0,67,102,41
59.0,59.3,66,74,41
59.375,59.475,64,74,41
59.5,59.9,63,74,41
62.5,62.95,54,36,41
63.0,63.5,57,36,41
63.5,63.9,56,36,41
67.5,67.9,63,36,41
68.0,68.4,63,38,41
68.5,68.9,63,41,41
69.0,69.5,63,44,41
69.5,69.8,64,36,41
69.875,69.975,66,36,41
70.0,70.4,68,36,41
70.5,71.0,63,36,41
71.0,71.4,63,38,41
71.5,71.9,63,41,41
72.0,72.5,66,95,41
72.5,72.8,65,70,41
72.875,72.975,66,70,41
73.0,73.4,68,70,41
73.5,73.9,61,92,41
74.0,74.75,66,92,41
74.75,74.95,68,82,41
75.0,75.4,69,74,41
75.5,75.9,68,74,41
76.0,76.4,66,74,41
76.5,76.9,64,74,41
78.0,79.5,56,36,41
79.5,80.7,57,36,41
81.0,81.75,54,36,41
81.75,82.0,57,36,41
82.0,82.25,54,36,41
82.25,82.45,57,36,41
82.5,82.9,56,36,41
85.5,86.7,59,36,41
88.5,89.7,64,36,41
91.5,91.9,61,36,41
92.0,92.4,61,38,41
92.5,92.9,61,41,41
93.0,93.5,61,44,41
93.5,93.8,59,36,41
93.875,93.975,57,36,41
94.0,94.4,56,36,41
94.5,94.9,62,36,41
95.0,95.4,62,38,41
95.5,95.9,62,41,41
96.0,96.5,62,44,41
96.5,96.8,61,36,41
96.875,96.975,59,36,41
97.0,97.4,57,36,41
97.5,103.2,57,36,41
103.5,103.9,64,63,41
104.0,104.4,64,68,41
104.5,104.9,64,72,41
105.0,105.4,64,77,41
108.0,108.4,57,36,41
108.5,108.9,57,38,41
109.0,109.4,57,38,41
109.5,110.0,57,44,41
110.0,110.3,55,36,41
110.375,110.475,54,36,41
110.5,110.9,52,36,41
111.0,111.4,59,36,41
111.5,111.9,59,38,41
112.0,112.4,59,41,41
112.5,113.0,59,44,41
113.0,113.3,57,36,41
113.375,113.475,56,36,41
113.5,113.9,54,36,41
114.5,115.0,54,36,41
115.0,115.4,59,36,41
115.5,116.5,52,36,41
116.5,116.9,57,36,41
117.0,117.4,50,36,41
118.5,119.0,71,74,41
119.0,119.4,64,74,41
119.5,119.9,64,74,41
120.5,120.9,59,74,41
121.0,121.4,57,74,41
121.5,121.9,56,74,41
123.0,128.7,64,36,41
129.0,130.0,66,74,41
130.0,130.45,70,74,41
130.5,131.0,72,74,41
131.0,131.4,71,74,41
132.0,133.0,64,74,41
133.0,133.45,68,74,41
133.5,134.0,70,74,41
134.0,134.4,69,74,41
135.0,135.25,69,63,41
135.5,135.75,69,68,41
136.0,136.25,69,72,41
136.5,136.9,69,77,41
139.5,139.9,64,36,41
140.0,140.4,64,38,41
140.5,140.9,64,41,41
141.0,141.5,64,44,41
141.5,142.0,63,38,41
142.0,142.5,62,38,41
142.5,142.9,61,36,41
144.0,144.4,67,36,41
144.5,144.9,67,38,41
145.0,145.4,67,41,41
145.5,146.0,67,44,41
146.0,146.4,66,36,41
147.0,147.4,68,36,41
147.5,147.9,68,38,41
148.0,148.4,68,41,41
148.5,148.9,69,44,41
151.5,152.7,59,36,41
154.5,155.7,64,36,41
157.5,157.9,61,36,41
158.0,158.4,61,38,41
158.5,158.9,61,41,41
159.0,159.5,61,44,41
159.5,159.8,59,36,41
159.875,159.975,57,36,41
160.0,160.4,56,36,41
160.5,160.9,62,36,41
161.0,161.4,62,38,41
161.5,161.9,62,41,41
162.0,162.5,62,44,41
162.5,162.8,61,36,41
162.875,162.975,59,36,41
163.0,163.4,57,36,41
163.5,169.2,57,36,41
169.5,169.9,64,63,41
170.0,170.4,64,68,41
170.5,170.9,64,72,41
171.0,171.4,64,77,41
174.0,174.4,57,36,41
174.5,174.9,57,38,41
175.0,175.4,57,38,41
175.5,176.0,57,44,41
176.0,176.3,55,36,41
176.375,176.475,54,36,41
176.5,176.9,52,36,41
177.0,177.4,59,36,41
177.5,177.9,59,38,41
178.0,178.4,59,41,41
178.5,179.0,59,44,41
179.0,179.3,57,36,41
179.375,179.475,56,36,41
179.5,179.9,54,36,41
180.5,181.0,54,36,41
181.0,181.4,59,36,41
181.5,182.5,52,36,41
182.5,182.9,57,36,41
183.0,183.4,50,36,41
184.5,185.0,71,74,41
185.0,185.4,64,74,41
185.5,185.9,64,74,41
186.5,186.9,59,74,41
187.0,187.4,57,74,41
187.5,187.9,56,74,41
189.0,194.7,64,36,41
195.0,196.0,66,74,41
196.0,196.45,70,74,41
196.5,197.0,72,74,41
197.0,197.4,71,74,41
198.0,199.0,64,74,41
199.0,199.45,68,74,41
199.5,200.0,70,74,41
200.0,200.4,69,74,41
201.0,201.25,69,63,41
201.5,201.75,69,68,41
202.0,202.25,69,72,41
202.5,202.9,69,77,41
205.5,205.9,64,36,41
206.0,206.4,64,38,41
206.5,206.9,64,41,41
207.0,207.5,64,44,41
207.5,208.0,63,38,41
208.0,208.5,62,38,41
208.5,208.9,61,36,41
210.0,210.4,67,36,41
210.5,210.9,67,38,41
211.0,211.4,67,41,41
211.5,212.0,67,44,41
212.0,212.4,66,36,41
213.0,213.4,68,36,41
213.5,213.9,68,38,41
214.0,214.4,68,41,41
214.5,214.9,69,44,41
216.0,217.2,59,36,41
217.5,218.0,61,40,41
218.0,218.5,54,56,41
218.5,219.4,59,73,41
219.5,220.01282,63,52,41
220.01282,220.43759,64,52,41
220.5438,220.7938,66,27,41
220.7938,221.0188,63,25,41
221.0438,221.44379,63,36,41
222.5438,223.0438,56,36,41
223.0438,223.5438,54,36,41
223.5438,224.0438,52,38,41
224.0438,224.55661,54,54,41
224.55661,225.06104,51,65,41
225.08759,226.08759,52,39,41
226.08759,226.48758,51,36,41
226.58759,226.98758,52,25,41
228.08759,229.28758,59,36,41
229.58759,230.08759,61,40,41
230.08759,230.58759,54,56,41
230.58759,231.48758,59,73,41
231.58759,232.1004,63,52,41
232.1004,232.52518,64,52,41
232.63138,232.88138,66,27,41
232.88138,233.10638,63,25,41
233.13138,233.53137,63,36,41
234.63138,235.13138,56,36,41
235.13138,235.63138,54,36,41
235.63138,236.13138,52,38,41
236.13138,236.6442,54,54,41
236.6442,237.14862,51,65,41
237.17517,238.17517,52,39,41
238.17517,238.57516,51,36,41
238.67517,239.07516,52,25,41
240.17517,240.57516,59,74,41
241.17517,241.67517,71,82,41
241.67517,242.07516,70,66,41
242.67517,243.17517,61,82,41
243.17517,243.57516,59,66,41
243.67517,244.84184,71,74,41
244.84184,245.0085,70,74,41
245.0085,245.17517,71,74,41
245.17517,245.57516,73,74,41
245.67517,246.17517,61,74,41
246.17517,246.57516,59,74,41
247.17517,247.67517,63,36,41
247.67517,248.07516,64,36,41
250.42764,250.95862,58,31,41
250.95862,251.45862,59,33,41
251.45862,251.95862,61,50,41
251.95862,252.43361,63,60,41
252.45862,252.98035,65,67,41
252.98035,253.50209,66,31,41
253.50209,253.91948,68,26,41
254.02383,254.54556,63,32,41
254.54556,255.0673,64,31,41
255.0673,255.4847,66,31,41
255.58905,255.98904,59,32,41
256.58905,256.98904,61,31,41
257.08905,257.88904,59,31,41
259.08905,259.33905,59,47,41
259.33905,259.58905,61,51,41
259.58905,259.83905,63,56,41
259.83905,260.03903,64,61,41
260.08905,260.33905,66,66,41
260.33905,260.58905,68,70,41
260.58905,260.83905,69,74,41
260.83905,261.08905,71,79,41
261.08905,261.33905,73,84,41
261.33905,261.53903,75,87,41
261.58905,261.98904,76,93,41
262.58905,263.03903,68,74,41
263.08905,263.68906,59,74,41
263.83905,264.03903,51,74,41
264.08905,264.28903,52,74,41
264.33905,264.53903,54,74,41
264.58905,265.08905,56,39,41
265.08905,265.88904,59,36,41
266.08905,266.33905,64,39,41
266.33905,266.58905,66,47,41
266.58905,266.83905,63,56,41
266.83905,267.08905,64,64,41
267.08905,267.33905,61,73,41
267.33905,267.57654,63,81,41
267.58905,267.83905,59,76,41
267.83905,268.08905,61,63,41
268.08905,268.33905,57,63,41
268.33905,268.58905,59,63,41
268.58905,268.83905,56,54,41
268.83905,269.03903,57,54,41
269.08905,269.33905,54,40,41
269.33905,269.53903,51,33,41
269.58905,269.98904,54,33,41
270.58905,271.2557,68,74,41
271.2557,271.4224,69,74,41
271.4224,271.58905,68,74,41
271.58905,271.7557,66,74,41
271.7557,271.9224,68,74,41
271.9224,272.05573,66,74,41
272.08905,272.2557,64,74,41
272.2557,272.4224,66,74,41
272.4224,272.58905,64,74,41
272.58905,272.7557,63,74,41
272.7557,272.9224,64,74,41
272.9224,273.08905,63,74,41
273.08905,273.2557,61,74,41
273.2557,273.4224,63,74,41
273.4224,273.5307,61,74,41
273.58905,273.98904,59,48,41
274.58905,274.83905,59,36,41
274.83905,275.03903,69,36,41
275.08905,275.50644,68,36,41
276.65427,277.05426,59,74,41
277.65427,278.15427,71,82,41
278.15427,278.55426,70,66,41
279.15427,279.65427,61,82,41
279.65427,280.05426,59,66,41
280.15427,281.32092,71,74,41
281.32092,281.4876,70,74,41
281.4876,281.65427,71,74,41
281.65427,282.05426,73,74,41
282.15427,282.65427,61,74,41
282.65427,283.05426,59,74,41
283.65427,284.15427,63,36,41
284.15427,284.55426,64,36,41
286.90674,287.4377,58,31,41
287.4377,287.9377,59,33,41
287.9377,288.4377,61,50,41
288.4377,288.9127,63,60,41
288.9377,289.45944,65,67,41
289.45944,289.98117,66,31,41
289.98117,290.39856,68,26,41
290.50293,291.02466,63,32,41
291.02466,291.5464,64,31,41
291.5464,291.96378,66,31,41
292.06815,292.46814,59,32,41
293.06815,293.46814,61,31,41
293.56815,294.36813,59,31,41
295.56815,295.81815,59,47,41
295.81815,296.06815,61,51,41
296.06815,296.31815,63,56,41
296.31815,296.51813,64,61,41
296.56815,296.81815,66,66,41
296.81815,297.06815,68,70,41
297.06815,297.31815,69,74,41
297.31815,297.56815,71,79,41
297.56815,297.81815,73,84,41
297.81815,298.01813,75,87,41
298.06815,298.46814,76,93,41
299.06815,299.51813,68,74,41
299.56815,300.16815,59,74,41
300.31815,300.51813,51,74,41
300.56815,300.76813,52,74,41
300.81815,301.01813,54,74,41
301.06815,301.56815,56,39,41
301.56815,302.36813,59,36,41
302.56815,302.81815,64,39,41
302.81815,303.06815,66,47,41
303.06815,303.31815,63,56,41
303.31815,303.56815,64,64,41
303.56815,303.81815,61,73,41
303.81815,304.05563,63,81,41
304.06815,304.31815,59,76,41
304.31815,304.56815,61,63,41
304.56815,304.81815,57,63,41
304.81815,305.06815,59,63,41
305.06815,305.31815,56,54,41
305.31815,305.51813,57,54,41
305.56815,305.81815,54,40,41
305.81815,306.01813,51,33,41
306.06815,306.46814,54,33,41
307.06815,307.7348,68,74,41
307.7348,307.90146,69,74,41
307.90146,308.06815,68,74,41
308.06815,308.2348,66,74,41
308.2348,308.40146,68,74,41
308.40146,308.5348,66,74,41
308.56815,308.7348,64,74,41
308.7348,308.90146,66,74,41
308.90146,309.06815,64,74,41
309.06815,309.2348,63,74,41
309.2348,309.40146,64,74,41
309.40146,309.56815,63,74,41
309.56815,309.7348,61,74,41
309.7348,309.90146,63,74,41
309.90146,310.0098,61,74,41
310.06815,310.46814,59,48,41
311.06815,311.31815,59,36,41
311.31815,311.51813,69,36,41
311.56815,311.98553,68,36,41
313.13336,314.17682,57,72,41
314.17682,314.6464,61,30,41
314.69858,315.2203,64,29,41
315.2203,315.6377,62,29,41
316.2638,317.30725,59,72,41
317.30725,317.77682,62,30,41
317.829,318.35074,66,29,41
318.35074,318.76813,64,29,41
319.39423,320.95944,61,21,41
320.95944,322.52466,62,21,41
322.52466,324.08987,64,21,41
324.08987,324.50726,57,21,41
328.78552,329.0464,67,74,41
329.30725,329.56815,67,82,41
329.829,330.08987,67,91,41
330.35074,330.87247,67,102,41
330.87247,331.18552,66,74,41
331.2638,331.36813,64,74,41
331.39423,331.8116,63,74,41
334.52466,334.99423,54,36,41
335.0464,335.56815,57,36,41
335.56815,335.98553,56,36,41
339.74203,340.15942,63,36,41
340.2638,340.68118,63,38,41
340.78552,341.2029,63,41,41
341.30725,341.829,63,44,41
341.829,342.14203,64,36,41
342.2203,342.32465,66,36,41
342.35074,342.76813,68,36,41
342.87247,343.39423,63,36,41
343.39423,343.8116,63,38,41
343.91595,344.33334,63,41,41
344.43768,344.95944,66,95,41
344.95944,345.2725,65,70,41
345.35074,345.45508,66,70,41
345.48117,345.89856,68,70,41
346.0029,346.4203,61,92,41
346.52466,347.30725,66,92,41
347.30725,347.51596,68,82,41
347.5681,347.9855,69,74,41
348.08987,348.50726,68,74,41
348.6116,349.029,66,74,41
349.13333,349.55075,64,74,41
350.69855,352.2638,56,36,41
352.2638,353.51596,57,36,41
353.829,354.6116,54,36,41
354.6116,354.87247,57,36,41
354.87247,355.13333,54,36,41
355.13333,355.34204,57,36,41
355.39423,355.8116,56,36,41
358.52466,359.77682,59,36,41
361.6551,362.90726,64,36,41
364.78552,365.2029,61,36,41
365.30725,365.72464,61,38,41
365.82898,366.2464,61,41,41
366.35074,366.87247,61,44,41
366.87247,367.18552,59,36,41
367.26376,367.36813,57,36,41
367.3942,367.8116,56,36,41
367.91595,368.33334,62,36,41
368.43768,368.85507,62,38,41
368.95944,369.37683,62,41,41
369.48117,370.0029,62,44,41
370.0029,370.31595,61,36,41
370.3942,370.49857,59,36,41
370.52466,370.94205,57,36,41
371.0464,376.9942,57,36,41
377.30725,377.72464,64,63,41
377.82898,378.24637,64,68,41
378.35074,378.76813,64,72,41
378.87247,379.28986,64,77,41
382.0029,382.4203,57,36,41
382.52463,382.94205,57,38,41
383.0464,383.46378,57,38,41
383.5681,384.08984,57,44,41
384.08984,384.4029,55,36,41
384.48117,384.5855,54,36,41
384.6116,385.029,52,36,41
385.13333,385.55072,59,36,41
385.65506,386.07248,59,38,41
386.17682,386.5942,59,41,41
386.69855,387.2203,59,44,41
387.2203,387.53333,57,36,41
387.6116,387.71594,56,36,41
387.74203,388.15942,54,36,41
388.78552,389.30725,54,36,41
389.30725,389.72464,59,36,41
389.82898,390.87247,52,36,41
390.87247,391.28986,57,36,41
391.3942,391.81158,50,36,41
392.9594,393.48117,71,74,41
393.48117,393.89856,64,74,41
394.0029,394.4203,64,74,41
395.0464,395.46378,59,74,41
395.5681,395.9855,57,74,41
396.08984,396.50723,56,74,41
397.65506,403.6029,64,36,41
403.91595,404.9594,66,74,41
404.9594,405.429,70,74,41
405.48117,406.0029,72,74,41
406.0029,406.4203,71,74,41
407.0464,408.08984,64,74,41
408.08984,408.55942,68,74,41
408.6116,409.13333,70,74,41
409.13333,409.55072,69,74,41
410.17682,410.43768,69,63,41
410.69855,410.9594,69,68,41
411.22028,411.48117,69,72,41
411.74203,412.15942,69,77,41
414.87247,415.28986,64,36,41
415.3942,415.81158,64,38,41
415.91592,416.3333,64,41,41
416.43768,416.9594,64,44,41
416.9594,417.48114,63,38,41
417.48114,418.0029,62,38,41
418.0029,418.4203,61,36,41
419.5681,419.9855,67,36,41
420.08984,420.50723,67,38,41
420.6116,421.029,67,41,41
421.13333,421.65506,67,44,41
421.65506,422.07245,66,36,41
422.69855,423.11594,68,36,41
423.22028,423.63766,68,38,41
423.74203,424.15942,68,41,41
424.26376,424.68115,69,44,41
0.0,1.0,45,72,42
1.0,1.45,49,30,42
1.5,2.0,52,29,42
2.0,2.4,50,29,42
3.0,4.0,47,72,42
4.0,4.45,50,30,42
4.5,5.0,54,29,42
5.0,5.4,52,29,42
15.0,15.25,64,74,42
15.5,15.75,64,82,42
16.0,16.25,64,91,42
16.5,17.0,64,102,42
17.0,17.3,63,74,42
17.375,17.475,61,74,42
17.5,17.9,59,74,42
22.5,23.5,39,36,42
23.5,23.95,42,36,42
24.0,24.5,45,36,42
24.5,24.9,44,36,42
25.5,25.9,57,36,42
26.0,26.4,57,38,42
26.5,26.9,57,41,42
27.0,27.5,57,44,42
27.5,27.8,56,36,42
27.875,27.975,54,36,42
28.0,28.4,52,36,42
28.5,29.0,57,36,42
29.0,29.4,57,38,42
29.5,29.9,57,41,42
30.0,30.5,57,95,42
30.5,30.8,56,70,42
30.875,30.975,54,70,42
31.0,31.4,53,70,42
31.5,31.9,54,92,42
32.0,32.75,51,92,42
32.75,32.95,52,82,42
33.0,33.4,45,74,42
33.5,33.9,47,74,42
34.0,34.4,48,74,42
34.5,34.9,49,74,42
39.0,39.4,47,36,42
39.5,39.9,47,36,42
40.0,40.4,47,36,42
40.5,40.9,40,36,42
42.0,43.0,45,72,42
43.0,43.45,49,30,42
43.5,44.0,52,29,42
44.0,44.4,50,29,42
45.0,46.0,47,72,42
46.0,46.45,50,30,42
46.5,47.0,54,29,42
47.0,47.4,52,29,42
57.0,57.25,64,74,42
57.5,57.75,64,82,42
58.0,58.25,64,91,42
58.5,59.0,64,102,42
59.0,59.3,63,74,42
59.375,59.475,61,74,42
59.5,59.9,59,74,42
64.5,65.5,39,36,42
65.5,65.95,42,36,42
66.0,66.5,45,36,42
66.5,66.9,44,36,42
67.5,67.9,57,36,42
68.0,68.4,57,38,42
68.5,68.9,57,41,42
69.0,69.5,57,44,42
69.5,69.8,56,36,42
69.875,69.975,54,36,42
70.0,70.4,52,36,42
70.5,71.0,57,36,42
71.0,71.4,57,38,42
71.5,71.9,57,41,42
72.0,72.5,57,95,42
72.5,72.8,56,70,42
72.875,72.975,54,70,42
73.0,73.4,53,70,42
73.5,73.9,54,92,42
74.0,74.75,51,92,42
74.75,74.95,52,82,42
75.0,75.4,45,74,42
75.5,75.9,47,74,42
76.0,76.4,48,74,42
76.5,76.9,49,74,42
81.0,81.4,47,36,42
81.5,81.9,47,36,42
82.0,82.4,47,36,42
82.5,82.9,40,36,42
85.5,86.7,47,36,42
88.5,89.7,52,36,42
91.5,91.9,57,36,42
92.0,92.4,57,38,42
92.5,92.9,57,41,42
93.0,93.5,57,44,42
93.5,93.8,56,36,42
93.875,93.975,54,36,42
94.0,94.4,53,36,42
94.5,94.9,59,36,42
95.0,95.4,59,38,42
95.5,95.9,59,41,42
96.0,96.5,59,44,42
96.5,96.8,57,36,42
96.875,96.975,56,36,42
97.0,97.4,54,36,42
97.5,97.9,49,36,42
98.0,98.4,49,38,42
98.5,98.9,49,41,42
99.0,99.5,49,44,42
99.5,99.8,50,36,42
99.875,99.975,52,36,42
100.0,100.4,54,36,42
100.5,100.9,49,36,42
101.0,101.4,49,38,42
101.5,101.9,49,41,42
102.0,102.5,49,44,42
102.5,102.8,50,36,42
102.875,102.975,52,36,42
103.0,103.4,54,36,42
103.5,103.9,55,63,42
104.0,104.4,55,68,42
104.5,104.9,55,72,42
105.0,105.4,55,77,42
117.0,117.25,62,57,42
117.5,117.75,62,61,42
118.0,118.25,62,66,42
118.5,119.0,62,74,42
119.0,119.3,61,74,42
119.375,119.475,59,74,42
119.5,119.9,57,74,42
120.5,120.9,56,74,42
121.0,121.4,57,74,42
121.5,121.9,52,74,42
126.0,127.0,50,36,42
127.0,127.45,47,36,42
127.5,128.0,44,36,42
128.0,128.4,45,36,42
129.0,130.0,54,74,42
130.0,130.45,58,74,42
130.5,131.0,60,74,42
131.0,131.4,59,74,42
132.0,133.0,52,74,42
133.0,133.45,56,74,42
133.5,134.0,58,74,42
134.0,134.4,57,74,42
135.0,135.25,63,63,42
135.5,135.75,63,68,42
136.0,136.25,63,72,42
136.5,136.9,63,77,42
141.0,142.5,52,36,42
142.5,142.9,57,36,42
144.0,144.4,49,36,42
144.5,144.9,49,38,42
145.0,145.4,49,41,42
145.5,146.3,50,44,42
147.0,147.4,52,36,42
147.5,147.9,52,38,42
148.0,148.4,52,41,42
148.5,148.9,45,44,42
151.5,152.7,47,36,42
154.5,155.7,52,36,42
157.5,157.9,57,36,42
158.0,158.4,57,38,42
158.5,158.9,57,41,42
159.0,159.5,57,44,42
159.5,159.8,56,36,42
159.875,159.975,54,36,42
160.0,160.4,53,36,42
160.5,160.9,59,36,42
161.0,161.4,59,38,42
161.5,161.9,59,41,42
162.0,162.5,59,44,42
162.5,162.8,57,36,42
162.875,162.975,56,36,42
163.0,163.4,54,36,42
163.5,163.9,49,36,42
164.0,164.4,49,38,42
164.5,164.9,49,41,42
165.0,165.5,49,44,42
165.5,165.8,50,36,42
165.875,165.975,52,36,42
166.0,166.4,54,36,42
166.5,166.9,49,36,42
167.0,167.4,49,38,42
167.5,167.9,49,41,42
168.0,168.5,49,44,42
168.5,168.8,50,36,42
168.875,168.975,52,36,42
169.0,169.4,54,36,42
169.5,169.9,55,63,42
170.0,170.4,55,68,42
170.5,170.9,55,72,42
171.0,171.4,55,77,42
183.0,183.25,62,57,42
183.5,183.75,62,61,42
184.0,184.25,62,66,42
184.5,185.0,62,74,42
185.0,185.3,61,74,42
185.375,185.475,59,74,42
185.5,185.9,57,74,42
186.5,186.9,56,74,42
187.0,187.4,57,74,42
187.5,187.9,52,74,42
192.0,193.0,50,36,42
193.0,193.45,47,36,42
193.5,194.0,44,36,42
194.0,194.4,45,36,42
195.0,196.0,54,74,42
196.0,196.45,58,74,42
196.5,197.0,60,74,42
197.0,197.4,59,74,42
198.0,199.0,52,74,42
199.0,199.45,56,74,42
199.5,200.0,58,74,42
200.0,200.4,57,74,42
201.0,201.25,63,63,42
201.5,201.75,63,68,42
202.0,202.25,63,72,42
202.5,202.9,63,77,42
207.0,208.5,52,36,42
208.5,208.9,57,36,42
210.0,210.4,49,36,42
210.5,210.9,49,38,42
211.0,211.4,49,41,42
211.5,212.3,50,44,42
213.0,213.4,52,36,42
213.5,213.9,52,38,42
214.0,214.4,52,41,42
214.5,214.9,45,44,42
216.5,217.0,52,36,42
217.0,217.5,51,36,42
217.5,218.0,49,40,42
218.0,218.5,47,56,42
218.5,218.95,45,73,42
219.0,219.5,44,82,42
219.5,220.01282,42,52,42
220.01282,220.43759,40,52,42
220.5438,220.94379,39,27,42
221.0438,221.44379,47,36,42
222.5438,223.0438,52,36,42
223.0438,223.5438,51,36,42
223.5438,224.0438,49,38,42
224.0438,224.55661,47,54,42
224.55661,225.06104,45,65,42
225.08759,225.58759,44,39,42
225.58759,226.08759,45,36,42
226.08759,226.48758,47,36,42
226.58759,226.98758,52,25,42
227.08759,227.48758,47,25,42
227.58759,227.98758,40,25,42
228.58759,229.08759,52,36,42
229.08759,229.58759,51,36,42
229.58759,230.08759,49,40,42
230.08759,230.58759,47,56,42
230.58759,231.03758,45,73,42
231.08759,231.58759,44,82,42
231.58759,232.1004,42,52,42
232.1004,232.52518,40,52,42
232.63138,233.03137,39,27,42
233.13138,233.53137,47,36,42
234.63138,235.13138,52,36,42
235.13138,235.63138,51,36,42
235.63138,236.13138,49,38,42
236.13138,236.6442,47,54,42
236.6442,237.14862,45,65,42
237.17517,237.67517,44,39,42
237.67517,238.17517,45,36,42
238.17517,238.57516,47,36,42
238.67517,239.07516,52,25,42
239.17517,239.57516,47,25,42
239.67517,240.07516,40,25,42
240.17517,240.57516,47,74,42
241.17517,241.67517,63,82,42
241.67517,242.07516,61,66,42
242.67517,243.17517,46,82,42
243.17517,243.57516,47,66,42
244.17517,244.67517,63,82,42
244.67517,245.07516,61,74,42
245.67517,246.17517,46,74,42
246.17517,246.57516,47,74,42
249.8669,250.74622,54,36,42
250.95862,251.95862,59,39,42
251.95862,252.45862,57,70,42
252.45862,252.98035,56,79,42
252.98035,253.50209,54,36,42
253.50209,253.91948,53,31,42
254.02383,254.54556,54,38,42
254.54556,255.0673,52,36,42
255.0673,255.4847,51,36,42
255.58905,256.08905,52,38,42
256.08905,256.58905,49,36,42
256.58905,256.98904,45,36,42
257.08905,258.08905,47,36,42
258.08905,258.48904,45,36,42
258.58905,260.08905,44,39,42
260.08905,261.28903,42,66,42
261.58905,261.98904,40,93,42
262.58905,263.03903,46,74,42
263.08905,264.08905,47,74,42
264.08905,264.33905,49,74,42
264.33905,264.53903,51,74,42
264.58905,265.33905,52,39,42
265.33905,265.58905,54,41,42
265.58905,265.83905,51,41,42
265.83905,266.08905,52,41,42
266.08905,266.33905,49,39,42
266.33905,266.58905,51,47,42
266.58905,266.83905,47,56,42
266.83905,267.08905,49,64,42
267.08905,267.33905,45,73,42
267.33905,267.57654,47,81,42
267.58905,267.83905,44,76,42
267.83905,268.08905,45,63,42
268.08905,268.33905,42,63,42
268.33905,268.58905,44,63,42
268.58905,268.83905,40,54,42
268.83905,269.03903,42,54,42
269.08905,269.33905,39,40,42
269.33905,269.53903,42,33,42
269.58905,269.98904,47,33,42
270.58905,271.2557,64,74,42
271.2557,271.4224,66,74,42
271.4224,271.58905,64,74,42
271.58905,271.7557,63,74,42
271.7557,271.9224,64,74,42
271.9224,272.05573,63,74,42
272.08905,272.2557,61,74,42
272.2557,272.4224,63,74,42
272.4224,272.58905,61,74,42
272.58905,272.7557,59,74,42
272.7557,272.9224,61,74,42
272.9224,273.08905,59,74,42
273.08905,273.2557,57,74,42
273.2557,273.4224,59,74,42
273.4224,273.5307,57,74,42
273.58905,273.98904,56,48,42
274.58905,274.98904,59,36,42
275.08905,275.50644,52,36,42
275.61078,276.02817,64,20,42
276.65427,277.05426,47,74,42
277.65427,278.15427,63,82,42
278.15427,278.55426,61,66,42
279.15427,279.65427,46,82,42
279.65427,280.05426,47,66,42
280.65427,281.15427,63,82,42
281.15427,281.55426,61,74,42
282.15427,282.65427,46,74,42
282.65427,283.05426,47,74,42
286.34598,287.2253,54,36,42
287.4377,288.4377,59,39,42
288.4377,288.9377,57,70,42
288.9377,289.45944,56,79,42
289.45944,289.98117,54,36,42
289.98117,290.39856,53,31,42
290.50293,291.02466,54,38,42
291.02466,291.5464,52,36,42
291.5464,291.96378,51,36,42
292.06815,292.56815,52,38,42
292.56815,293.06815,49,36,42
293.06815,293.46814,45,36,42
293.56815,294.56815,47,36,42
294.56815,294.96814,45,36,42
295.06815,296.56815,44,39,42
296.56815,297.76813,42,66,42
298.06815,298.46814,40,93,42
299.06815,299.51813,46,74,42
299.56815,300.56815,47,74,42
300.56815,300.81815,49,74,42
300.81815,301.01813,51,74,42
301.06815,301.81815,52,39,42
301.81815,302.06815,54,41,42
302.06815,302.31815,51,41,42
302.31815,302.56815,52,41,42
302.56815,302.81815,49,39,42
302.81815,303.06815,51,47,42
303.06815,303.31815,47,56,42
303.31815,303.56815,49,64,42
303.56815,303.81815,45,73,42
303.81815,304.05563,47,81,42
304.06815,304.31815,44,76,42
304.31815,304.56815,45,63,42
304.56815,304.81815,42,63,42
304.81815,305.06815,44,63,42
305.06815,305.31815,40,54,42
305.31815,305.51813,42,54,42
305.56815,305.81815,39,40,42
305.81815,306.01813,42,33,42
306.06815,306.46814,47,33,42
307.06815,307.7348,64,74,42
307.7348,307.90146,66,74,42
307.90146,308.06815,64,74,42
308.06815,308.2348,63,74,42
308.2348,308.40146,64,74,42
308.40146,308.5348,63,74,42
308.56815,308.7348,61,74,42
308.7348,308.90146,63,74,42
308.90146,309.06815,61,74,42
309.06815,309.2348,59,74,42
309.2348,309.40146,61,74,42
309.40146,309.56815,59,74,42
309.56815,309.7348,57,74,42
309.7348,309.90146,59,74,42
309.90146,310.0098,57,74,42
310.06815,310.46814,56,48,42
311.06815,311.46814,59,36,42
311.56815,311.98553,52,36,42
312.08987,312.50726,64,20,42
313.13336,314.17682,45,72,42
314.17682,314.6464,49,30,42
314.69858,315.2203,52,29,42
315.2203,315.6377,50,29,42
316.2638,317.30725,47,72,42
317.30725,317.77682,50,30,42
317.829,318.35074,54,29,42
318.35074,318.76813,52,29,42
328.78552,329.0464,64,74,42
329.30725,329.56815,64,82,42
329.829,330.08987,64,91,42
330.35074,330.87247,64,102,42
330.87247,331.18552,63,74,42
331.2638,331.36813,61,74,42
331.39423,331.8116,59,74,42
336.6116,337.6551,39,36,42
337.6551,338.12466,42,36,42
338.17682,338.69858,45,36,42
338.69858,339.11597,44,36,42
339.74203,340.15942,57,36,42
340.2638,340.68118,57,38,42
340.78552,341.2029,57,41,42
341.30725,341.829,57,44,42
341.829,342.14203,56,36,42
342.2203,342.32465,54,36,42
342.35074,342.76813,52,36,42
342.87247,343.39423,57,36,42
343.39423,343.8116,57,38,42
343.91595,344.33334,57,41,42
344.43768,344.95944,57,95,42
344.95944,345.2725,56,70,42
345.35074,345.45508,54,70,42
345.48117,345.89856,53,70,42
346.0029,346.4203,54,92,42
346.52466,347.30725,51,92,42
347.30725,347.51596,52,82,42
347.5681,347.9855,45,74,42
348.08987,348.50726,47,74,42
348.6116,349.029,48,74,42
349.13333,349.55075,49,74,42
353.829,354.2464,47,36,42
354.35074,354.76813,47,36,42
354.87247,355.28986,47,36,42
355.39423,355.8116,40,36,42
358.52466,359.77682,47,36,42
361.6551,362.90726,52,36,42
364.78552,365.2029,57,36,42
365.30725,365.72464,57,38,42
365.82898,366.2464,57,41,42
366.35074,366.87247,57,44,42
366.87247,367.18552,56,36,42
367.26376,367.36813,54,36,42
367.3942,367.8116,53,36,42
367.91595,368.33334,59,36,42
368.43768,368.85507,59,38,42
368.95944,369.37683,59,41,42
369.48117,370.0029,59,44,42
370.0029,370.31595,57,36,42
370.3942,370.49857,56,36,42
370.52466,370.94205,54,36,42
371.0464,371.46378,49,36,42
371.5681,371.9855,49,38,42
372.08987,372.50726,49,41,42
372.6116,373.13333,49,44,42
373.13333,373.44638,50,36,42
373.52466,373.629,52,36,42
373.6551,374.07248,54,36,42
374.17682,374.5942,49,36,42
374.69855,375.11594,49,38,42
375.2203,375.6377,49,41,42
375.74203,376.26376,49,44,42
376.26376,376.5768,50,36,42
376.6551,376.75943,52,36,42
376.78552,377.2029,54,36,42
377.30725,377.72464,55,63,42
377.82898,378.24637,55,68,42
378.35074,378.76813,55,72,42
378.87247,379.28986,55,77,42
391.3942,391.65506,62,57,42
391.91595,392.17682,62,61,42
392.43768,392.69855,62,66,42
392.9594,393.48117,62,74,42
393.48117,393.7942,61,74,42
393.87247,393.9768,59,74,42
394.0029,394.4203,57,74,42
395.0464,395.46378,56,74,42
395.5681,395.9855,57,74,42
396.08984,396.50723,52,74,42
400.7855,401.82898,50,36,42
401.82898,402.29855,47,36,42
402.3507,402.87247,44,36,42
402.87247,403.28986,45,36,42
403.91595,404.9594,54,74,42
404.9594,405.429,58,74,42
405.48117,406.0029,60,74,42
406.0029,406.4203,59,74,42
407.0464,408.08984,52,74,42
408.08984,408.55942,56,74,42
408.6116,409.13333,58,74,42
409.13333,409.55072,57,74,42
410.17682,410.43768,63,63,42
410.69855,410.9594,63,68,42
411.22028,411.48117,63,72,42
411.74203,412.15942,63,77,42
416.43768,418.0029,52,36,42
418.0029,418.4203,57,36,42
419.5681,419.9855,49,36,42
420.08984,420.50723,49,38,42
420.6116,421.029,49,41,42
421.13333,421.9681,50,44,42
422.69855,423.11594,52,36,42
423.22028,423.63766,52,38,42
423.74203,424.15942,52,41,42
424.26376,424.68115,45,44,42
