start_time,end_time,note_value,velocity,instrument_program_number
27.81818,28.045452,70,69,40
28.363634,28.590906,70,69,40
28.909088,29.136362,70,69,40
29.454542,29.522724,70,69,40
29.522724,30.806816,79,69,40
30.81818,30.954542,80,69,40
30.954542,31.090906,79,69,40
31.090906,31.35227,77,69,40
31.363634,31.624998,75,69,40
31.63636,31.749998,74,69,40
31.909088,31.97727,75,69,40
31.97727,32.045452,74,69,40
32.045452,32.113632,72,69,40
32.113632,32.181816,74,69,40
32.181816,32.44318,75,69,40
32.454544,32.715908,77,69,40
32.72727,33.488632,70,69,40
33.545452,33.681816,74,69,40
33.681816,33.81818,72,69,40
33.81818,34.329544,70,69,40
34.363632,34.874996,75,69,40
34.90909,35.170452,74,69,40
35.181816,35.44318,72,69,40
35.454544,35.715904,70,69,40
35.72727,35.988632,68,69,40
35.999996,37.22727,67,69,40
37.22727,37.363632,65,72,40
37.363632,37.499996,68,75,40
37.499996,37.63636,67,78,40
37.63636,37.772724,70,81,40
37.772724,37.90909,68,84,40
37.90909,38.045452,72,82,40
38.045452,38.181816,70,81,40
38.181816,38.44318,74,79,40
38.454544,38.56818,72,77,40
38.72727,38.840904,70,74,40
38.999996,39.113632,68,71,40
39.272724,39.78409,65,69,40
39.81818,40.32954,66,69,40
40.363632,40.874996,67,69,40
40.90909,41.420452,58,69,40
41.45454,41.965904,63,74,40
41.999996,42.51136,67,79,40
42.545452,43.306816,67,84,40
43.363632,43.499996,68,76,40
43.499996,43.63636,65,75,40
43.63636,44.147724,63,74,40
44.181816,44.693176,63,69,40
44.72727,45.238632,67,74,40
45.272724,45.78409,70,79,40
45.818176,46.57954,70,84,40
46.63636,46.772724,74,78,40
46.772724,46.90909,72,77,40
46.90909,47.420452,70,76,40
47.45454,48.26136,68,72,40
48.272724,48.53409,67,69,40
48.545452,48.806812,68,69,40
48.818176,49.35227,70,69,40
49.363632,49.499996,74,69,40
49.499996,49.556812,72,69,40
49.63636,49.772724,70,69,40
49.772724,49.90909,68,69,40
49.90909,50.045452,67,69,40
50.045452,50.181812,65,69,40
50.181812,50.693176,63,69,40
50.72727,51.238632,64,69,40
51.272724,51.78409,65,69,40
51.818176,52.32954,70,69,40
52.363632,53.45454,68,69,40
53.45454,53.965904,67,69,40
55.090904,55.60227,79,60,40
55.63636,56.72727,79,60,40
56.72727,57.238632,77,60,40
57.272724,57.499996,75,60,40
57.818176,58.04545,74,60,40
58.363632,58.590904,72,60,40
58.909084,61.63636,70,60,40
61.63636,62.999996,63,60,40
62.999996,63.26136,60,60,40
63.27272,64.90909,58,60,40
64.90909,65.42045,62,60,40
65.45454,66.465904,63,60,40
80.18181,80.69318,77,69,40
80.727264,81.23863,86,69,40
81.27272,81.78408,82,69,40
81.81818,82.57954,81,69,40
82.63636,82.77272,84,73,40
82.77272,82.90908,82,74,40
82.90908,83.17045,81,75,40
83.18181,83.29545,77,76,40
83.45454,83.56818,79,78,40
83.727264,83.840904,81,79,40
83.99999,84.11363,82,81,40
84.27272,84.38636,83,82,40
84.54545,84.65908,84,84,40
84.81818,84.93181,86,82,40
85.090904,85.88636,87,81,40
85.90908,86.17045,84,78,40
86.18181,86.69318,81,77,40
86.727264,86.98863,84,75,40
86.99999,87.26136,82,74,40
87.27272,87.78408,81,73,40
87.81818,88.32954,79,71,40
88.36363,88.44318,77,69,40
88.54545,88.62499,76,69,40
88.727264,88.80681,77,69,40
88.90908,88.98863,79,69,40
89.090904,89.17045,75,69,40
89.27272,89.352264,72,69,40
89.45454,89.99999,70,69,40
89.99999,90.51135,71,69,40
90.54545,90.93181,72,69,40
90.95454,91.02272,74,69,40
91.02272,91.090904,72,69,40
91.090904,91.15908,70,69,40
91.15908,91.227264,72,69,40
91.227264,91.62499,77,69,40
91.63635,92.727264,75,69,40
92.727264,93.23863,74,69,40
106.363625,106.87499,82,69,40
106.90908,107.42045,80,69,40
107.45454,107.9659,79,69,40
107.99999,109.51135,84,69,40
109.63635,110.14772,76,69,40
110.18181,110.69318,77,69,40
110.727264,111.238625,84,69,40
111.27272,112.78408,82,69,40
112.90908,113.42045,74,69,40
113.45454,113.9659,75,69,40
113.99999,114.51135,82,69,40
114.54545,114.81817,82,69,40
114.81817,115.07954,80,69,40
115.0909,115.363625,80,69,40
115.363625,115.62499,79,69,40
115.63635,115.90908,79,69,40
115.90908,116.17045,77,69,40
116.18181,116.45454,77,69,40
116.45454,116.7159,75,69,40
116.727264,116.99999,75,69,40
116.99999,117.26135,74,69,40
117.27272,117.54545,74,69,40
117.54545,117.80681,72,69,40
117.81817,117.88635,72,69,40
117.88635,117.95454,74,69,40
117.95454,118.0909,72,69,40
118.0909,118.352264,70,69,40
118.363625,118.43181,70,69,40
118.43181,118.49999,72,69,40
118.49999,118.63635,70,69,40
118.63635,118.89772,68,69,40
118.90908,118.977264,68,69,40
118.977264,119.04545,70,69,40
119.04545,119.18181,68,69,40
119.18181,119.44317,67,69,40
119.45454,119.52272,67,69,40
119.52272,119.5909,68,69,40
119.5909,119.727264,67,69,40
119.727264,119.988625,65,69,40
119.99999,120.06817,65,69,40
120.06817,120.13635,67,69,40
120.13635,120.27272,65,69,40
120.27272,120.53408,63,69,40
120.54545,120.613625,63,69,40
120.613625,120.68181,65,69,40
120.68181,120.81817,63,69,40
120.81817,121.07954,62,69,40
121.0909,122.102264,63,69,40
145.63635,145.86362,70,69,40
146.18181,146.40907,70,69,40
146.72726,146.95453,70,69,40
147.27272,147.3409,70,69,40
147.3409,148.62498,79,69,40
148.63635,148.77272,80,69,40
148.77272,148.90907,79,69,40
148.90907,149.17044,77,69,40
149.18181,149.44318,75,69,40
149.45453,149.56818,74,69,40
149.72726,149.79544,75,69,40
149.79544,149.86362,74,69,40
149.86362,149.93181,72,69,40
149.93181,149.99998,74,69,40
149.99998,150.26135,75,69,40
150.27272,150.53407,77,69,40
150.54544,151.30681,70,69,40
151.36362,151.49998,74,69,40
151.49998,151.63635,72,69,40
151.63635,151.89772,70,69,40
151.90907,152.17044,75,69,40
152.18181,152.44318,74,69,40
152.45453,152.7159,75,69,40
152.72726,152.98862,74,69,40
152.99998,153.26135,72,69,40
153.27272,153.53407,70,69,40
153.54544,153.80681,68,69,40
153.81818,155.04544,67,69,40
155.04544,155.18181,65,74,40
155.18181,155.31818,64,74,40
155.31818,155.45453,65,75,40
155.45453,155.5909,67,75,40
155.5909,155.72726,65,76,40
155.72726,155.86362,68,77,40
155.86362,155.99998,67,76,40
155.99998,156.13635,70,75,40
156.13635,156.27272,68,74,40
156.27272,156.40907,72,73,40
156.40907,156.54544,70,73,40
156.54544,156.68181,74,72,40
156.68181,156.81818,72,71,40
156.81818,156.95453,70,70,40
156.95453,157.0909,68,69,40
157.0909,157.31818,65,69,40
157.63635,158.14772,66,69,40
158.18181,158.69316,67,69,40
158.72726,159.23862,58,69,40
159.27272,159.78407,63,74,40
159.81816,160.32953,67,79,40
160.36362,161.12498,67,84,40
161.18181,161.31816,68,76,40
161.31816,161.45453,65,75,40
161.45453,161.9659,63,74,40
161.99998,162.51135,63,69,40
162.54544,163.05681,67,74,40
163.0909,163.60226,70,79,40
163.63635,164.39772,70,84,40
164.45453,164.5909,74,76,40
164.5909,164.72726,72,75,40
164.72726,165.23862,70,74,40
165.27272,166.07953,68,69,40
166.0909,166.35226,67,69,40
166.36362,166.62498,68,69,40
166.63635,167.17044,70,69,40
167.18181,167.31816,74,69,40
167.31816,167.45453,72,69,40
167.45453,167.5909,70,69,40
167.5909,167.72726,68,69,40
167.72726,167.86362,67,69,40
167.86362,167.99998,65,69,40
167.99998,168.51135,63,69,40
168.54544,169.05681,64,69,40
169.0909,169.60226,65,69,40
169.63635,170.14772,70,69,40
170.18181,170.94316,68,69,40
170.99998,171.13635,70,69,40
171.13635,171.27272,68,69,40
171.27272,171.78407,67,69,40
172.90907,173.42044,79,60,40
173.45453,174.54544,79,60,40
174.54544,175.05681,77,60,40
175.0909,175.31816,75,60,40
175.63635,175.86362,74,60,40
176.18181,176.40907,72,60,40
176.72726,179.45453,70,60,40
179.45453,180.81816,63,60,40
180.81816,181.07953,60,60,40
181.0909,182.72726,58,60,40
182.72726,183.23862,62,60,40
183.2727,184.28407,63,60,40
197.99998,198.22725,72,69,40
198.54544,198.7727,73,69,40
199.0909,199.31816,74,69,40
199.63635,200.45453,75,69,40
200.45453,200.7159,72,69,40
200.72725,201.23862,68,69,40
201.2727,201.78407,68,69,40
201.81816,201.88635,72,69,40
201.88635,202.20453,70,69,40
202.22725,202.36362,68,69,40
202.36362,202.74998,70,69,40
202.7727,202.90907,72,69,40
202.90907,203.92044,68,69,40
204.54544,205.05681,68,69,40
205.0909,205.15907,72,69,40
205.15907,205.47725,70,69,40
205.49998,205.63635,68,69,40
205.63635,206.0227,70,69,40
206.04544,206.18181,72,69,40
206.18181,206.5909,68,69,40
206.5909,206.72725,70,69,40
206.72725,207.13635,67,69,40
207.13635,207.2727,68,69,40
207.2727,207.3409,67,69,40
207.3409,207.40907,65,69,40
207.40907,207.47725,67,69,40
207.47725,207.54544,65,69,40
207.54544,207.61362,67,69,40
207.61362,207.68181,65,69,40
207.68181,207.74998,67,69,40
207.74998,207.81816,65,69,40
207.81816,207.88635,67,69,40
207.88635,207.95453,65,69,40
207.95453,208.0227,67,69,40
208.0227,208.0909,65,69,40
208.0909,208.15907,67,69,40
208.15907,208.22725,65,69,40
208.22725,208.29544,67,69,40
208.29544,208.36362,65,69,40
208.36362,208.4318,67,69,40
208.4318,208.49998,65,69,40
208.49998,208.56816,67,69,40
208.56816,208.63635,65,69,40
208.63635,208.70453,67,69,40
208.70453,208.7727,65,69,40
208.7727,208.8409,67,69,40
208.8409,208.90907,65,69,40
208.90907,208.97725,67,69,40
208.97725,209.04544,65,69,40
209.04544,209.11362,67,69,40
209.11362,209.1818,65,69,40
209.1818,209.24998,67,69,40
209.24998,209.31816,65,69,40
209.31816,209.38635,63,69,40
209.38635,209.45453,65,69,40
209.45453,210.4659,63,69,40
214.36362,214.5909,75,69,40
214.90907,215.13635,75,69,40
215.45453,215.6818,75,69,40
215.99998,216.81816,82,69,40
216.81816,217.07953,79,69,40
217.0909,217.60225,73,69,40
217.63635,218.1477,73,69,40
218.1818,218.24998,73,69,40
218.24998,218.56816,72,69,40
218.5909,218.72725,70,69,40
218.72725,219.11362,72,69,40
219.13635,219.2727,73,69,40
219.2727,220.28407,70,69,40
220.90907,221.13635,75,69,40
221.45453,221.6818,75,69,40
221.99998,222.22725,75,69,40
222.54544,223.36362,82,69,40
223.36362,223.62498,79,69,40
223.63635,224.1477,75,69,40
224.1818,224.24998,77,69,40
224.24998,224.31816,75,69,40
224.31816,224.38635,77,69,40
224.38635,224.45453,75,69,40
224.45453,224.5227,77,69,40
224.5227,224.5909,75,69,40
224.5909,224.65907,74,69,40
224.65907,224.72725,75,69,40
224.72725,225.23862,85,69,40
225.2727,225.49998,84,69,40
225.81816,226.57953,84,69,40
226.63634,226.7727,85,69,40
226.7727,226.90907,84,69,40
226.90907,227.17044,82,69,40
227.1818,227.31816,84,69,40
227.31816,227.45453,82,69,40
227.45453,227.7159,80,69,40
227.72725,227.86362,82,69,40
227.86362,227.99998,80,69,40
227.99998,228.26134,79,69,40
228.2727,228.40907,80,69,40
228.40907,228.54544,79,69,40
228.54544,228.8068,77,69,40
228.81816,228.95453,79,69,40
228.95453,229.0909,77,69,40
229.0909,229.20453,75,69,40
229.36362,229.47725,74,69,40
229.63634,230.1477,73,69,40
230.72725,231.23862,72,69,40
231.2727,231.78407,73,69,40
231.81816,232.32953,75,69,40
232.36362,232.62498,76,69,40
232.63634,232.7727,79,69,40
232.7727,232.90907,77,69,40
232.90907,233.04544,75,69,40
233.04544,233.1818,73,69,40
233.1818,233.31816,72,69,40
233.31816,233.45453,70,69,40
233.45453,233.99998,68,69,40
233.99998,234.51134,69,69,40
234.54544,234.8068,70,69,40
234.81816,234.88634,72,69,40
234.88634,234.95453,70,69,40
234.95453,235.0227,68,69,40
235.0227,235.0909,70,69,40
235.0909,235.60225,75,69,40
235.63634,236.72725,73,69,40
236.72725,237.23862,72,69,40
247.09088,247.31816,63,77,40
247.63634,247.86362,63,84,40
248.1818,248.40907,63,93,40
248.72725,249.54544,75,93,40
249.54544,249.8068,72,81,40
249.81816,250.32953,68,77,40
250.36362,250.87498,68,69,40
250.90907,250.97725,72,69,40
250.97725,251.29544,70,69,40
251.31816,251.45453,68,69,40
251.45453,251.84088,70,69,40
251.86362,251.99998,72,69,40
251.99998,253.01134,68,69,40
253.63634,253.86362,60,69,40
254.1818,254.40907,60,69,40
254.72725,254.95453,60,69,40
255.2727,256.09088,72,69,40
256.09088,256.35226,68,69,40
256.36362,256.87497,65,69,40
256.90906,257.42044,65,69,40
257.45453,257.5227,68,69,40
257.5227,257.84088,67,69,40
257.86362,257.99997,65,69,40
257.99997,258.38635,67,69,40
258.40906,258.54544,68,69,40
258.54544,259.5568,65,69,40
260.1818,260.40906,68,69,40
260.72726,260.95453,68,69,40
261.2727,261.49997,68,69,40
261.81815,262.63635,80,60,40
262.63635,262.8977,77,63,40
262.90906,263.42044,74,64,40
263.45453,263.96588,74,67,40
263.99997,264.06815,77,69,40
264.06815,264.38635,75,69,40
264.40906,264.54544,74,71,40
264.54544,264.9318,75,72,40
264.95453,265.09088,77,74,40
265.09088,266.10226,74,74,40
266.72726,266.95453,68,82,40
267.2727,267.49997,68,84,40
267.81815,268.04544,68,86,40
268.36362,269.1818,80,89,40
269.1818,269.44315,77,93,40
269.45453,269.96588,74,93,40
269.99997,270.51135,75,93,40
270.54544,270.61362,74,93,40
270.61362,270.9318,72,93,40
270.95453,271.09088,71,91,40
271.09088,271.47726,72,91,40
271.49997,271.63635,74,90,40
271.63635,273.11362,70,89,40
273.13635,273.2727,69,84,40
273.2727,273.65906,70,84,40
273.6818,273.81815,72,83,40
273.81815,273.88635,72,82,40
273.88635,274.20453,68,82,40
274.22726,274.36362,67,81,40
274.36362,274.74997,68,81,40
274.7727,274.90906,70,79,40
274.90906,276.38635,67,79,40
276.40906,276.54544,66,74,40
276.54544,276.9318,67,74,40
276.95453,277.09088,68,72,40
277.09088,277.15906,67,72,40
277.15906,277.47726,65,72,40
277.49997,277.63635,64,71,40
277.63635,278.0227,65,70,40
278.04544,278.1818,67,69,40
278.1818,278.69315,63,69,40
278.1818,278.69315,55,69,40
279.2727,281.28406,70,60,40
281.45453,283.63635,70,60,40
283.63635,284.6477,68,60,40
284.72723,285.73862,67,60,40
285.81815,287.32953,68,60,40
287.45453,287.96588,65,60,40
287.99997,289.51135,70,60,40
289.63635,289.8977,72,60,40
289.90906,290.17044,70,60,40
290.1818,290.44315,68,60,40
290.45453,290.71588,67,60,40
290.72723,290.98862,65,60,40
290.99997,291.26135,63,60,40
291.2727,291.95453,63,60,40
291.95453,292.09088,67,60,40
292.09088,292.22723,65,60,40
292.22723,292.36362,62,60,40
292.36362,294.37497,63,60,40
294.54544,296.72723,65,60,40
296.72723,298.82953,63,60,40
298.90906,299.99997,70,60,40
299.99997,301.01135,62,60,40
301.09088,302.1818,65,77,40
302.1818,302.69315,63,65,40
315.81815,316.90906,75,93,40
316.90906,317.42044,87,93,40
317.45453,318.54544,87,93,40
318.54544,319.0568,86,81,40
319.09088,319.31815,84,75,40
319.63632,319.86362,82,69,40
320.1818,320.40906,80,69,40
320.72723,321.81815,80,69,40
321.81815,322.32953,79,69,40
322.36362,322.59088,77,69,40
322.90906,323.13632,75,69,40
323.45453,323.6818,74,69,40
323.99997,324.40906,75,69,40
324.40906,324.54544,70,69,40
324.54544,324.95453,72,69,40
324.95453,325.09088,63,69,40
325.09088,325.60223,63,69,40
325.90906,326.17044,63,69,40
326.1818,326.44315,67,69,40
326.45453,326.71588,65,69,40
326.72723,326.98862,64,69,40
326.99997,327.26132,65,69,40
327.2727,328.28406,63,69,40
330.54544,333.5568,67,69,40
333.81815,334.82953,68,69,40
335.45453,335.99997,72,69,40
335.99997,336.22723,80,69,40
336.54544,336.7727,80,69,40
337.09088,338.44315,80,69,40
338.45453,338.59088,82,69,40
338.59088,338.72723,80,69,40
338.72723,338.99997,79,69,40
338.99997,339.26132,77,69,40
339.2727,339.53406,75,69,40
339.54544,339.8068,74,69,40
339.81815,340.07953,77,69,40
340.09088,340.35223,68,69,40
340.36362,340.87497,70,69,40
340.90906,340.97723,70,69,40
340.97723,341.04544,68,69,40
341.04544,341.11362,70,69,40
341.11362,341.1818,68,69,40
341.1818,341.24997,70,69,40
341.24997,341.31815,68,69,40
341.31815,341.38632,67,69,40
341.38632,341.45453,68,69,40
341.45453,341.96588,67,69,40
343.63632,346.6477,67,69,40
346.90906,347.92044,68,69,40
350.1818,351.53406,80,69,40
351.5454,351.6818,82,69,40
351.6818,351.81815,80,69,40
351.81815,352.09088,79,69,40
352.09088,352.35223,77,69,40
352.36362,352.62497,75,69,40
352.63632,352.8977,74,69,40
352.90906,353.1704,77,69,40
353.1818,353.44315,68,69,40
353.45453,353.96588,67,69,40
353.99997,354.40906,79,69,40
354.40906,354.5454,75,69,40
354.5454,357.23862,82,69,40
357.2727,357.65906,79,69,40
357.6818,357.81815,75,69,40
357.81815,360.51132,70,69,40
361.09088,361.60223,63,69,40
361.09088,361.60223,58,69,40
362.1818,362.69315,63,69,40
362.1818,362.69315,58,69,40
363.2727,364.78406,63,69,40
363.2727,364.78406,58,69,40
294.54544,297.5568,58,64,40
330.54544,332.72723,58,64,40
332.72723,333.73862,61,64,40
333.81815,334.82953,60,64,40
343.63632,345.81815,58,64,40
345.81815,346.82953,61,64,40
346.90906,347.92044,60,64,40
348.54544,348.8068,72,64,40
348.81815,348.88632,74,64,40
348.88632,348.95453,72,64,40
348.95453,349.0227,71,64,40
349.0227,349.09088,72,64,40
349.09088,349.31815,80,64,40
349.63632,349.86362,80,64,40
29.454542,31.63636,51,69,42
31.63636,32.647724,53,69,42
32.72727,34.90909,55,69,42
34.90909,35.920452,56,69,42
35.999996,39.01136,58,69,42
39.272724,40.78409,51,69,42
42.545452,43.056816,58,84,42
43.090904,43.60227,56,79,42
43.63636,44.147724,55,74,42
45.818176,47.999996,50,84,42
47.999996,49.01136,51,74,42
49.090904,50.10227,56,69,42
50.181812,51.193176,58,69,42
51.272724,52.28409,46,69,42
52.363632,53.874996,51,69,42
58.909084,61.090904,38,69,42
61.090904,62.10227,39,69,42
62.181812,63.193176,44,69,42
63.27272,65.28409,46,69,42
65.45454,66.465904,39,69,42
94.90908,97.92045,41,69,42
98.18181,99.81818,42,69,42
99.81818,100.32954,43,69,42
100.363625,100.43181,46,69,42
100.43181,100.49999,45,69,42
100.49999,100.56818,46,69,42
100.56818,100.63635,45,69,42
100.63635,100.70454,46,69,42
100.70454,100.77272,45,69,42
100.77272,100.840904,46,69,42
100.840904,100.90908,45,69,42
100.90908,100.977264,46,69,42
100.977264,101.04545,45,69,42
101.04545,101.113625,46,69,42
101.113625,101.18181,45,69,42
101.18181,101.24999,46,69,42
101.24999,101.31818,45,69,42
101.31818,101.38635,43,69,42
101.38635,101.45454,45,69,42
101.45454,101.68181,46,69,42
101.99999,102.227264,39,69,42
102.54545,103.05681,41,69,42
103.63635,104.64772,41,69,42
104.727264,120.82954,46,69,42
121.0909,122.102264,39,69,42
147.27272,149.45453,51,69,42
149.45453,150.4659,53,69,42
150.54544,152.72726,55,69,42
152.72726,153.73862,56,69,42
153.81818,156.82953,58,69,42
157.0909,158.60226,51,69,42
160.36362,160.87498,58,84,42
160.90907,161.42044,56,79,42
161.45453,161.9659,55,74,42
163.63635,165.81816,50,84,42
165.81816,166.82953,51,74,42
166.90907,167.92044,56,69,42
167.99998,169.01135,58,69,42
169.0909,170.10226,46,69,42
170.18181,171.69316,51,69,42
176.72726,178.90907,38,69,42
178.90907,179.92044,39,69,42
179.99998,181.01135,44,69,42
181.0909,183.10226,46,69,42
183.2727,184.28407,39,69,42
186.54544,197.37498,63,69,42
199.63635,204.92044,63,69,42
205.0909,206.10225,64,69,42
206.18181,206.69316,65,69,42
206.72725,207.73862,63,69,42
207.81816,208.07953,62,69,42
208.0909,208.35225,60,69,42
208.36362,208.4318,63,69,42
208.4318,208.49998,62,69,42
208.49998,208.56816,63,69,42
208.56816,208.63635,62,69,42
208.63635,208.70453,63,69,42
208.70453,208.7727,62,69,42
208.7727,208.8409,63,69,42
208.8409,208.90907,62,69,42
208.90907,208.97725,63,69,42
208.97725,209.04544,62,69,42
209.04544,209.11362,63,69,42
209.11362,209.1818,62,69,42
209.1818,209.24998,63,69,42
209.24998,209.31816,62,69,42
209.31816,209.38635,60,69,42
209.38635,209.45453,62,69,42
209.45453,210.4659,63,69,42
212.72725,214.90907,43,69,42
214.90907,215.92044,44,69,42
215.99998,217.01135,39,69,42
217.0909,218.10225,43,69,42
218.1818,219.19316,44,69,42
219.2727,220.28407,39,69,42
220.36362,221.37498,43,69,42
221.45453,222.4659,44,69,42
222.54544,223.5568,39,69,42
248.72725,254.1818,63,69,42
254.1818,255.19316,64,69,42
255.2727,255.81816,65,69,42
255.81816,256.32953,60,69,42
256.36362,260.72726,60,69,42
260.72726,261.73862,59,69,42
261.81815,263.99997,58,69,42
263.99997,265.01135,59,74,42
265.09088,266.10226,58,77,42
266.1818,267.19315,46,79,42
267.2727,268.28406,47,82,42
268.36362,275.92044,46,85,42
277.09088,277.15906,63,72,42
277.15906,277.22726,62,72,42
277.22726,277.29544,63,72,42
277.29544,277.36362,62,72,42
277.36362,277.4318,63,71,42
277.4318,277.49997,62,71,42
277.49997,277.56815,63,71,42
277.56815,277.63635,62,71,42
277.63635,277.70453,63,70,42
277.70453,277.7727,62,70,42
277.7727,277.84088,63,70,42
277.84088,277.90906,62,70,42
277.90906,277.97726,63,69,42
277.97726,278.04544,62,69,42
278.04544,278.11362,60,69,42
278.11362,278.1818,62,69,42
278.1818,278.69315,63,69,42
279.2727,280.36362,67,60,42
280.36362,282.46588,68,60,42
282.54544,283.5568,67,60,42
283.63635,284.6477,65,60,42
284.72723,285.81815,63,60,42
285.81815,287.82953,62,60,42
287.99997,289.01135,62,60,42
289.09088,290.60223,63,60,42
290.72723,291.23862,58,60,42
291.2727,292.78406,58,60,42
292.90906,293.17044,60,60,42
293.1818,293.44315,58,60,42
293.45453,293.71588,56,60,42
293.72723,293.98862,55,60,42
293.99997,294.26135,53,60,42
294.2727,294.53406,51,60,42
294.54544,296.72723,50,60,42
296.72723,297.73862,51,60,42
297.81815,298.82953,56,60,42
298.90906,299.92044,55,60,42
299.99997,301.01135,56,60,42
301.09088,302.1818,62,77,42
302.1818,302.69315,63,65,42
315.81815,316.36362,48,93,42
316.36362,316.87497,56,93,42
316.90906,317.13632,55,93,42
317.45453,318.54544,55,93,42
318.54544,319.0568,53,81,42
319.09088,319.31815,51,75,42
319.63632,319.86362,50,69,42
320.1818,320.40906,48,69,42
320.72723,322.23862,46,69,42
322.36362,322.59088,44,69,42
322.90906,323.13632,43,69,42
323.45453,323.6818,41,69,42
323.99997,324.22723,39,69,42
324.54544,324.7727,56,69,42
325.09088,325.60223,58,69,42
326.1818,327.19315,46,69,42
327.2727,354.46588,39,69,42
359.99997,360.51132,39,69,42
361.09088,361.60223,39,69,42
362.1818,362.69315,39,69,42
363.2727,364.78406,39,69,42
1.6363635,1.8636363,70,69,0
2.181818,2.4090908,70,69,0
2.7272725,2.9545453,70,69,0
3.272727,3.3409088,70,69,0
3.3409088,4.6249995,79,69,0
4.636363,4.772727,80,69,0
4.772727,4.9090905,79,69,0
4.9090905,5.170454,77,69,0
5.1818175,5.4431815,75,69,0
5.454545,5.5681815,74,69,0
5.727272,5.795454,75,69,0
5.795454,5.863636,74,69,0
5.863636,5.9318175,72,69,0
5.9318175,5.9999995,74,69,0
5.9999995,6.261363,75,69,0
6.2727265,6.5340905,77,69,0
6.545454,7.3068175,70,69,0
7.3636355,7.4999995,74,69,0
7.4999995,7.636363,72,69,0
7.636363,8.147727,70,69,0
8.181817,8.693181,75,69,0
8.727272,8.988636,74,69,0
8.999999,9.261363,72,69,0
9.272726,9.53409,70,69,0
9.545454,9.806817,68,69,0
9.818181,11.045454,67,69,0
11.045454,11.181817,65,74,0
11.181817,11.318181,68,75,0
11.318181,11.454544,67,75,0
11.454544,11.590908,70,76,0
11.590908,11.727272,68,77,0
11.727272,11.863635,72,76,0
11.863635,11.999999,70,75,0
11.999999,12.261363,74,74,0
12.272726,12.386363,72,73,0
12.545453,12.65909,70,71,0
12.818181,12.931817,68,70,0
13.090908,13.602272,65,69,0
13.636362,14.147726,66,69,0
14.181817,14.693181,67,69,0
14.727271,15.238635,58,69,0
15.272726,15.78409,63,74,0
15.81818,16.329544,67,79,0
16.363634,17.124998,67,84,0
17.181816,17.31818,68,76,0
17.31818,17.454544,65,75,0
17.454544,17.965908,63,74,0
17.999998,18.511362,63,69,0
18.545452,19.056816,67,74,0
19.090908,19.602272,70,79,0
19.636362,20.397726,70,84,0
20.454544,20.590908,72,76,0
20.590908,20.72727,68,75,0
20.72727,21.238634,67,74,0
21.272726,21.78409,79,69,0
21.81818,22.090908,77,69,0
22.090908,22.204544,75,69,0
22.363634,22.636362,74,69,0
22.636362,22.749998,72,69,0
26.181816,27.272724,72,69,0
26.181816,27.272724,69,69,0
27.272724,27.784088,70,69,0
27.81818,28.329542,68,69,0
27.81818,28.329542,65,69,0
28.363634,28.874998,67,69,0
28.363634,28.874998,63,69,0
28.909088,29.420452,65,69,0
28.909088,29.420452,62,69,0
29.454542,31.465906,67,69,0
29.454542,31.465906,63,69,0
29.454542,31.465906,58,69,0
31.63636,32.647724,68,69,0
31.63636,32.647724,62,69,0
31.63636,32.647724,58,69,0
32.72727,34.738632,67,69,0
32.72727,34.738632,63,69,0
32.72727,34.738632,58,69,0
34.90909,35.920452,65,69,0
34.90909,35.920452,60,69,0
35.999996,38.181816,63,69,0
38.181816,39.19318,62,69,0
35.999996,39.19318,58,69,0
39.272724,40.363632,62,69,0
39.272724,40.363632,56,69,0
40.363632,40.874996,63,69,0
39.272724,40.874996,58,69,0
40.363632,40.874996,55,69,0
40.90909,41.420452,55,69,0
41.45454,41.965904,58,74,0
41.999996,42.51136,63,79,0
42.545452,43.306816,63,84,0
43.363632,43.499996,65,76,0
43.499996,43.63636,62,75,0
43.63636,44.147724,63,74,0
44.181816,44.693176,58,69,0
44.72727,45.238632,63,69,0
45.272724,45.78409,67,69,0
45.818176,47.999996,65,69,0
47.999996,49.01136,63,69,0
49.090904,51.10227,63,69,0
51.272724,52.28409,62,69,0
55.63636,56.397724,79,69,0
56.45454,56.590904,84,69,0
56.590904,56.72727,80,69,0
56.72727,56.988632,77,69,0
56.999996,57.13636,82,69,0
57.13636,57.272724,79,69,0
57.272724,57.534084,75,69,0
57.54545,57.681812,80,69,0
57.681812,57.818176,77,69,0
57.818176,58.07954,74,69,0
58.090904,58.22727,79,69,0
58.22727,58.363632,75,69,0
58.363632,58.624996,72,69,0
58.63636,58.772724,77,69,0
58.772724,58.909084,74,69,0
58.909084,59.17045,70,69,0
59.181812,59.318176,79,69,0
59.318176,59.45454,77,69,0
59.45454,59.590904,75,69,0
59.590904,59.72727,74,69,0
59.72727,59.863632,72,69,0
59.863632,59.999996,70,69,0
59.999996,60.54545,70,69,0
60.54545,61.35227,68,69,0
61.363632,61.624996,67,69,0
61.63636,61.89772,68,69,0
61.909084,62.17045,70,69,0
62.181812,62.318176,71,69,0
62.318176,62.45454,72,69,0
62.45454,62.590904,71,69,0
62.590904,62.72727,72,69,0
62.72727,62.863632,71,69,0
62.863632,62.999996,72,69,0
62.999996,63.13636,74,69,0
63.13636,63.27272,75,69,0
63.27272,64.62499,63,69,0
64.63636,64.70454,65,69,0
64.70454,64.77272,63,69,0
64.77272,64.840904,62,69,0
64.840904,64.90909,63,69,0
64.90909,65.17045,67,69,0
65.181816,65.44318,65,69,0
65.45454,66.465904,63,69,0
67.090904,67.602264,79,69,0
67.090904,67.602264,75,69,0
67.63636,68.14772,75,69,0
67.63636,68.14772,72,69,0
68.181816,68.69318,74,69,0
68.181816,68.69318,70,69,0
68.727264,69.48863,72,69,0
69.54545,69.681816,75,69,0
69.681816,69.81818,73,69,0
69.81818,70.32954,72,69,0
70.36363,70.87499,72,69,0
70.90909,71.17045,74,69,0
71.18181,71.24999,75,69,0
71.24999,71.31818,74,69,0
71.31818,71.38636,72,69,0
71.38636,71.45454,74,69,0
71.45454,71.965904,75,69,0
71.99999,72.26136,76,69,0
72.27272,72.340904,77,69,0
72.340904,72.40909,76,69,0
72.40909,72.477264,74,69,0
72.477264,72.54545,76,69,0
72.54545,72.93181,79,69,0
72.95454,73.090904,77,69,0
73.090904,73.602264,77,69,0
73.63636,74.14772,70,69,0
74.18181,74.69318,72,69,0
74.727264,75.23863,74,69,0
75.27272,76.03409,77,69,0
76.090904,76.352264,76,69,0
76.36363,76.74999,75,69,0
76.77272,76.840904,77,69,0
76.840904,76.90909,75,69,0
76.90909,77.17045,74,69,0
77.18181,77.44318,72,69,0
77.45454,77.56818,74,69,0
77.727264,77.79545,75,69,0
77.79545,77.86363,74,69,0
77.86363,77.93181,72,69,0
77.93181,77.99999,74,69,0
77.99999,78.26136,77,69,0
78.27272,78.53409,75,69,0
78.54545,79.63636,74,69,0
78.54545,79.63636,70,69,0
79.63636,80.14772,72,69,0
79.63636,80.14772,69,69,0
81.27272,81.78408,65,69,0
81.27272,81.78408,62,69,0
81.81818,83.32954,65,69,0
81.81818,83.32954,63,69,0
85.090904,86.602264,72,69,0
85.090904,86.602264,69,69,0
85.090904,86.602264,63,69,0
86.727264,87.73863,70,69,0
86.727264,87.73863,62,69,0
87.81818,88.32954,70,69,0
87.81818,88.32954,63,69,0
88.36363,88.590904,70,69,0
88.36363,88.590904,65,69,0
88.90908,89.13635,67,69,0
88.90908,89.13635,63,69,0
89.45454,89.965904,65,69,0
89.45454,89.965904,62,69,0
90.54545,91.05681,69,69,0
90.54545,91.05681,63,69,0
91.63635,92.727264,72,69,0
91.63635,92.727264,69,69,0
92.727264,93.23863,74,69,0
92.727264,93.23863,70,69,0
93.27272,93.78408,77,69,0
93.81818,94.32954,86,69,0
94.36363,94.87499,82,69,0
94.90908,95.67045,81,69,0
95.727264,95.863625,84,69,0
95.863625,95.99999,82,69,0
95.99999,96.17045,81,69,0
96.18181,96.26135,76,69,0
96.363625,96.44318,77,69,0
96.54545,96.62499,78,69,0
96.727264,96.80681,79,69,0
96.90908,96.988625,80,69,0
97.090904,97.17045,81,69,0
97.27272,97.352264,82,69,0
97.45454,97.53408,83,69,0
97.63635,97.715904,84,69,0
97.81818,97.89772,85,69,0
97.99999,98.07954,86,69,0
98.18181,98.99999,87,69,0
98.99999,99.26135,84,69,0
99.27272,99.53408,81,69,0
99.54545,99.613625,82,69,0
99.613625,99.68181,81,69,0
99.68181,99.74999,79,69,0
99.74999,99.81818,81,69,0
99.81818,100.07954,84,69,0
100.090904,100.352264,82,69,0
100.363625,100.49999,81,69,0
100.49999,100.63635,79,69,0
100.63635,100.77272,82,69,0
100.77272,100.90908,81,69,0
100.90908,101.04545,84,69,0
101.04545,101.18181,82,69,0
101.18181,101.31818,81,69,0
101.31818,101.45454,79,69,0
101.45454,101.727264,77,69,0
101.727264,101.988625,82,69,0
101.99999,102.27272,79,69,0
102.27272,102.53408,82,69,0
102.54545,103.05681,70,69,0
103.63635,103.89772,74,69,0
103.90908,104.17045,72,69,0
104.18181,104.44318,71,69,0
104.45454,104.7159,72,69,0
104.727264,104.988625,70,69,0
104.99999,105.26135,77,69,0
105.27272,105.53408,74,69,0
105.54545,105.80681,69,69,0
105.81818,106.07954,70,69,0
106.0909,106.352264,68,69,0
106.363625,106.62499,67,69,0
106.63635,106.89772,68,69,0
106.90908,107.17045,70,69,0
107.18181,107.44318,72,69,0
107.45454,107.7159,73,69,0
107.727264,107.988625,65,69,0
107.99999,108.26135,64,69,0
108.27272,108.53408,67,69,0
108.54545,108.80681,68,69,0
108.81818,109.07954,70,69,0
109.0909,109.352264,72,69,0
109.363625,109.62499,73,69,0
109.63635,109.89772,72,69,0
109.90908,110.17045,70,69,0
110.18181,110.44318,68,69,0
110.45454,110.7159,67,69,0
110.727264,110.988625,65,69,0
110.99999,111.26135,63,69,0
111.27272,111.53408,62,69,0
111.54545,111.80681,65,69,0
111.81818,112.07954,67,69,0
112.0909,112.352264,68,69,0
112.363625,112.62499,70,69,0
112.63635,112.89772,72,69,0
112.90908,113.17045,70,69,0
113.18181,113.44317,68,69,0
113.45454,113.7159,67,69,0
113.727264,113.988625,75,69,0
113.99999,114.27272,79,69,0
113.99999,114.27272,75,69,0
114.27272,114.53408,77,69,0
114.27272,114.53408,74,69,0
114.54545,115.05681,75,69,0
114.54545,115.05681,72,69,0
115.0909,115.602264,74,69,0
115.0909,115.602264,70,69,0
115.63635,116.14772,72,69,0
115.63635,116.14772,68,69,0
116.18181,116.69317,70,69,0
116.18181,116.69317,67,69,0
116.727264,117.238625,68,69,0
116.727264,117.238625,65,69,0
117.27272,117.78408,67,69,0
117.27272,117.78408,63,69,0
117.81817,118.32954,65,69,0
117.81817,118.32954,62,69,0
119.45454,119.68181,70,77,0
119.99999,120.227264,70,84,0
120.54545,120.77272,70,93,0
121.0909,121.15908,70,93,0
121.15908,122.44317,79,93,0
122.45454,122.5909,80,71,0
122.5909,122.727264,79,69,0
122.727264,122.988625,77,69,0
122.99999,123.26135,75,69,0
123.27272,123.38635,74,69,0
123.54544,123.613625,75,69,0
123.613625,123.68181,74,69,0
123.68181,123.74999,72,69,0
123.74999,123.81817,74,69,0
123.81817,124.07954,75,69,0
124.0909,124.352264,77,69,0
124.363625,125.12499,70,69,0
125.18181,125.31817,74,69,0
125.31817,125.45454,72,69,0
125.45454,125.7159,70,69,0
125.727264,125.988625,75,69,0
125.99999,126.26135,74,69,0
126.27272,126.53408,75,69,0
126.54544,126.80681,74,69,0
126.81817,127.07954,72,69,0
127.0909,127.352264,70,69,0
127.363625,127.62499,68,69,0
127.63635,128.86363,67,69,0
128.86363,128.99998,65,73,0
128.99998,129.13635,64,74,0
129.13635,129.27272,65,74,0
129.27272,129.40907,67,75,0
129.40907,129.54544,65,75,0
129.54544,129.68181,68,76,0
129.68181,129.81818,67,77,0
129.81818,129.95453,70,76,0
129.95453,130.0909,68,75,0
130.0909,130.22726,72,74,0
130.22726,130.36363,70,73,0
130.36363,130.49998,74,72,0
130.49998,130.63635,72,71,0
130.63635,130.77272,70,70,0
130.77272,130.90907,68,69,0
130.90907,131.42044,65,69,0
131.45453,131.9659,66,69,0
131.99998,132.51135,67,69,0
132.54544,133.05681,58,69,0
133.0909,133.60226,63,74,0
133.63635,134.14772,67,79,0
134.18181,134.94318,67,84,0
134.99998,135.13635,68,76,0
135.13635,135.27272,65,75,0
135.27272,135.78407,63,74,0
135.81818,136.32953,63,69,0
136.36363,136.87498,67,74,0
136.90907,137.42044,70,79,0
137.45453,138.2159,70,84,0
138.27272,138.40907,72,76,0
138.40907,138.54544,68,75,0
138.54544,138.80681,67,74,0
138.81818,139.07953,79,71,0
139.0909,139.35226,78,69,0
139.36363,139.62498,79,69,0
139.63635,139.89772,77,69,0
139.90907,140.17044,75,69,0
140.18181,140.44318,74,69,0
140.45453,140.7159,72,69,0
140.72726,140.98863,77,69,0
140.99998,141.13635,81,69,0
141.13635,141.27272,79,69,0
141.27272,141.40907,82,69,0
141.40907,141.54544,81,69,0
141.54544,141.68181,84,69,0
141.68181,141.81818,82,69,0
141.81818,142.32953,70,69,0
142.36362,142.62498,70,69,0
142.63635,142.70453,72,69,0
142.70453,142.77272,70,69,0
142.77272,142.8409,69,69,0
142.8409,142.90907,70,69,0
142.90907,143.42044,74,69,0
143.45453,143.9659,72,69,0
143.45453,143.9659,69,69,0
143.99998,145.0909,72,69,0
143.99998,145.0909,69,69,0
145.0909,145.60226,70,69,0
145.63635,146.14772,68,69,0
145.63635,146.14772,65,69,0
146.18181,146.69318,67,69,0
146.18181,146.69318,63,69,0
146.72726,147.23862,65,69,0
146.72726,147.23862,62,69,0
147.54544,147.80681,55,69,0
147.81818,148.07953,63,69,0
148.0909,148.35226,58,69,0
148.36362,148.62498,67,69,0
148.63635,148.89772,63,69,0
148.90907,149.17044,70,69,0
149.18181,149.44318,67,69,0
149.45453,149.7159,68,69,0
149.72726,149.98862,65,69,0
149.99998,150.26135,62,69,0
150.27272,150.53407,58,69,0
150.54544,150.80681,63,69,0
150.81818,151.07953,70,69,0
151.0909,151.35226,67,69,0
151.36362,151.62498,63,69,0
151.63635,151.89772,58,69,0
151.90907,152.17044,67,69,0
152.18181,152.44318,63,69,0
152.45453,152.7159,58,69,0
152.72726,152.98862,65,69,0
152.99998,153.26135,68,69,0
153.27272,153.53407,60,69,0
153.54544,153.80681,65,69,0
153.81818,154.07953,63,69,0
154.0909,154.35226,82,69,0
154.36362,154.62498,79,69,0
154.63635,154.89772,75,69,0
154.90907,155.17044,80,69,0
155.18181,155.44318,77,69,0
155.45453,155.7159,74,69,0
155.72726,155.98862,70,69,0
155.99998,156.26135,68,69,0
156.27272,156.53407,65,69,0
156.54544,156.80681,62,69,0
156.81818,157.07953,58,69,0
160.36362,160.62498,63,69,0
160.63635,160.89772,70,69,0
160.90907,161.17044,58,69,0
161.18181,161.44316,62,69,0
161.45453,161.7159,63,69,0
161.72726,161.98862,55,69,0
161.99998,162.26135,58,69,0
162.27272,162.53407,55,69,0
162.54544,162.80681,63,69,0
162.81816,163.07953,58,69,0
163.0909,163.35226,67,69,0
163.36362,163.62498,63,69,0
163.63635,163.89772,65,69,0
163.90907,164.17044,82,69,0
164.18181,164.44316,80,69,0
164.45453,164.7159,77,69,0
164.72726,164.98862,74,69,0
164.99998,165.26135,68,69,0
165.27272,165.53407,65,69,0
165.54544,165.80681,62,69,0
165.81816,166.07953,70,69,0
166.0909,166.35226,63,69,0
166.36362,166.62498,75,69,0
166.63635,166.89772,67,69,0
166.90907,167.17044,72,69,0
167.18181,167.44316,65,69,0
167.45453,167.7159,60,69,0
167.72726,167.98862,68,69,0
167.99998,168.26135,67,69,0
168.27272,168.53407,63,69,0
168.54544,168.80681,70,69,0
168.81816,169.07953,67,69,0
169.0909,169.35226,68,69,0
169.36362,169.62498,65,69,0
169.63635,169.89772,62,69,0
169.90907,170.17044,56,69,0
170.18181,170.44316,53,69,0
170.45453,170.7159,56,69,0
170.72726,170.98862,58,69,0
170.99998,171.26135,62,69,0
171.27272,171.78407,63,69,0
171.81816,171.88635,77,69,0
171.88635,171.95453,75,69,0
171.95453,172.02272,77,69,0
172.02272,172.0909,75,69,0
172.0909,172.15907,77,69,0
172.15907,172.22726,75,69,0
172.22726,172.29544,74,69,0
172.29544,172.36362,75,69,0
172.36362,172.87498,80,69,0
172.90907,173.13635,79,69,0
173.45453,174.2159,79,69,0
174.27272,174.40907,84,69,0
174.40907,174.54544,80,69,0
174.54544,174.80681,77,69,0
174.81816,174.95453,82,69,0
174.95453,175.0909,79,69,0
175.0909,175.35226,75,69,0
175.36362,175.49998,80,69,0
175.49998,175.63635,77,69,0
175.63635,175.8977,74,69,0
175.90907,176.04544,79,69,0
176.04544,176.18181,75,69,0
176.18181,176.44316,72,69,0
176.45453,176.5909,77,69,0
176.5909,176.72726,74,69,0
176.72726,176.98862,70,69,0
176.99998,177.13635,79,69,0
177.13635,177.2727,77,69,0
177.2727,177.40907,75,69,0
177.40907,177.54544,74,69,0
177.54544,177.68181,72,69,0
177.68181,177.81816,70,69,0
177.81816,178.36362,70,69,0
178.36362,179.17044,68,69,0
179.18181,179.44316,67,69,0
179.45453,179.7159,68,69,0
179.72726,179.98862,70,69,0
179.99998,180.13635,71,69,0
180.13635,180.2727,72,69,0
180.2727,180.40907,71,69,0
180.40907,180.54544,72,69,0
180.54544,180.68181,71,69,0
180.68181,180.81816,72,69,0
180.81816,180.95453,74,69,0
180.95453,181.0909,75,69,0
181.0909,182.44316,63,69,0
182.45453,182.5227,65,69,0
182.5227,182.5909,63,69,0
182.5909,182.65907,62,69,0
182.65907,182.72726,63,69,0
182.72726,182.98862,67,69,0
182.99998,183.26135,65,69,0
183.2727,184.28407,63,69,0
184.90907,185.13635,72,69,0
185.45453,185.68181,73,69,0
185.99998,186.22726,74,69,0
186.54544,187.36362,75,69,0
187.36362,187.62498,72,69,0
187.63635,188.1477,68,69,0
188.18181,188.69316,68,69,0
188.72726,188.79544,72,69,0
188.79544,189.11362,70,69,0
189.13635,189.2727,68,69,0
189.2727,189.65907,70,69,0
189.68181,189.81816,72,69,0
189.81816,190.82953,68,69,0
191.45453,191.9659,68,69,0
191.99998,192.06816,72,69,0
192.06816,192.38635,70,69,0
192.40907,192.54544,68,69,0
192.54544,192.93181,70,69,0
192.95453,193.0909,72,69,0
193.0909,193.85225,68,69,0
193.90907,194.04544,70,69,0
194.04544,194.18181,72,69,0
194.18181,195.53407,73,69,0
195.54544,195.80681,72,69,0
195.81816,196.07953,73,69,0
196.0909,196.35225,74,69,0
196.36362,197.18181,75,69,0
197.18181,197.44316,72,69,0
197.45453,198.4659,70,69,0
199.63635,199.8977,60,69,0
199.90907,200.17044,68,69,0
200.18181,200.44316,63,69,0
200.45453,200.7159,68,69,0
200.72725,200.98862,60,69,0
200.99998,201.26135,68,69,0
201.2727,201.53407,63,69,0
201.54544,201.80681,68,69,0
201.81816,202.07953,61,69,0
202.0909,202.35225,67,69,0
202.36362,202.62498,63,69,0
202.63635,202.8977,67,69,0
202.90907,203.17044,60,69,0
203.18181,203.44316,68,69,0
203.45453,203.7159,63,69,0
203.72725,203.98862,68,69,0
203.99998,204.26135,60,69,0
204.2727,204.53407,68,69,0
204.54544,204.80681,63,69,0
204.81816,205.07953,68,69,0
205.0909,205.35225,60,69,0
205.36362,205.62498,67,69,0
205.63635,205.8977,64,69,0
205.90907,206.17044,67,69,0
206.18181,206.44316,62,69,0
206.45453,206.7159,65,69,0
206.72725,206.98862,58,69,0
206.99998,207.26135,63,69,0
207.2727,207.53407,53,69,0
207.54544,207.80681,60,69,0
207.81816,208.07953,56,69,0
208.0909,208.35225,60,69,0
208.36362,208.62498,53,69,0
208.63635,208.8977,58,69,0
208.90907,209.17044,56,69,0
209.1818,209.44316,58,69,0
209.45453,210.4659,55,69,0
211.0909,211.31816,75,69,0
211.63635,211.86362,75,69,0
212.1818,212.40907,75,69,0
212.72725,213.54544,82,69,0
213.54544,213.8068,79,69,0
213.81816,214.32953,73,69,0
214.36362,214.87498,73,69,0
214.90907,214.97725,73,69,0
214.97725,215.29544,72,69,0
215.31816,215.45453,70,69,0
215.45453,215.8409,72,69,0
215.86362,215.99998,73,69,0
215.99998,217.01135,70,69,0
217.63635,217.86362,75,69,0
218.1818,218.40907,75,69,0
218.72725,218.95453,75,69,0
219.2727,220.0909,82,69,0
220.0909,220.35225,79,69,0
220.36362,220.87498,73,69,0
220.90907,221.42044,73,69,0
221.45453,221.5227,73,69,0
221.5227,221.8409,71,69,0
221.86362,221.99998,70,69,0
221.99998,222.38635,71,69,0
222.40907,222.54544,73,69,0
222.54544,223.5568,70,69,0
224.72725,225.23862,80,69,0
224.72725,225.23862,77,69,0
225.2727,225.78407,79,69,0
225.2727,225.78407,75,69,0
225.81816,227.32953,77,69,0
225.81816,227.32953,73,69,0
227.45453,227.6818,75,69,0
227.45453,227.6818,72,69,0
227.99998,228.22725,73,69,0
227.99998,228.22725,70,69,0
228.54544,228.7727,72,69,0
228.54544,228.7727,68,69,0
229.0909,230.10225,70,69,0
229.0909,230.10225,67,69,0
230.72725,231.73862,68,69,0
231.81816,232.87498,68,69,0
233.45453,235.0909,63,69,0
235.0909,235.60225,67,69,0
235.63634,236.72725,70,69,0
235.63634,236.72725,67,69,0
236.72725,237.23862,68,69,0
237.2727,237.3409,82,69,0
237.3409,237.40907,80,69,0
237.40907,237.47725,82,69,0
237.47725,237.54544,80,69,0
237.54544,237.61362,82,69,0
237.61362,237.6818,80,69,0
237.6818,237.74998,79,69,0
237.74998,237.81816,80,69,0
237.81816,238.32953,85,69,0
238.36362,238.5909,84,69,0
238.90907,239.5909,84,69,0
239.5909,239.72725,84,69,0
239.72725,239.86362,85,69,0
239.86362,239.99998,84,69,0
239.99998,240.13634,82,69,0
240.13634,240.2727,82,69,0
240.2727,240.40907,84,69,0
240.40907,240.54544,82,69,0
240.54544,240.6818,80,69,0
240.6818,240.81816,80,69,0
240.81816,240.95453,82,69,0
240.95453,241.0909,80,69,0
241.0909,241.22725,79,69,0
241.22725,241.36362,79,69,0
241.36362,241.49998,80,69,0
241.49998,241.63634,79,69,0
241.63634,241.7727,77,69,0
241.7727,241.90907,77,69,0
241.90907,242.04544,79,69,0
242.04544,242.1818,77,69,0
242.1818,242.29544,75,69,0
242.45453,242.56816,74,69,0
242.72725,243.23862,73,69,0
243.81816,244.32953,72,69,0
244.36362,244.87498,73,69,0
244.90907,245.42044,75,69,0
245.45453,245.59088,76,69,0
245.59088,245.72725,77,69,0
245.72725,245.86362,76,69,0
245.86362,245.99998,77,69,0
245.99998,246.13634,76,69,0
246.13634,246.2727,77,69,0
246.2727,246.40907,79,69,0
246.40907,246.54544,80,69,0
246.54544,246.61362,80,69,0
246.61362,247.0568,68,69,0
247.36362,247.62498,69,69,0
247.63634,247.70453,72,69,0
247.70453,248.0227,70,69,0
248.04544,248.1818,69,69,0
248.1818,248.56816,70,69,0
248.59088,248.72725,72,69,0
248.72725,249.73862,68,69,0
250.36362,250.59088,75,69,0
250.90907,251.13634,75,69,0
251.45453,251.6818,75,69,0
251.99998,252.81816,87,69,0
252.81816,253.07953,84,69,0
253.09088,253.60225,80,69,0
253.63634,254.1477,80,69,0
254.1818,254.24998,84,69,0
254.24998,254.56816,82,69,0
254.59088,254.72725,80,69,0
254.72725,255.11362,82,69,0
255.13634,255.2727,84,69,0
255.2727,256.28406,80,69,0
256.90906,257.13635,72,69,0
257.45453,257.6818,72,69,0
257.99997,258.22726,72,69,0
258.54544,259.36362,84,69,0
259.36362,259.62497,80,69,0
259.63635,260.1477,77,69,0
260.1818,260.69315,77,69,0
260.72726,260.79544,77,69,0
260.79544,261.11362,75,69,0
261.13635,261.2727,74,69,0
261.2727,261.65906,75,69,0
261.6818,261.81815,77,69,0
261.81815,262.82953,74,69,0
263.45453,263.6818,68,74,0
263.99997,264.22726,68,75,0
264.54544,264.7727,68,77,0
265.09088,265.90906,80,79,0
265.90906,266.17044,77,81,0
266.1818,266.69315,74,82,0
266.72726,267.23862,74,84,0
267.2727,267.34088,77,86,0
267.34088,267.65906,75,86,0
267.6818,267.81815,74,87,0
267.81815,268.20453,75,87,0
268.22726,268.36362,77,89,0
268.36362,269.37497,74,89,0
276.54544,276.7727,70,74,0
277.09088,277.31815,70,72,0
277.63635,277.86362,70,70,0
278.1818,278.24997,70,77,0
278.24997,279.53406,79,77,0
279.54544,279.6818,80,77,0
279.6818,279.81815,79,77,0
279.81815,280.07953,77,77,0
280.09088,280.35226,75,77,0
280.36362,280.47726,74,77,0
280.63635,280.70453,75,77,0
280.70453,280.7727,74,77,0
280.7727,280.84088,72,77,0
280.84088,280.90906,74,77,0
280.90906,281.17044,75,77,0
281.1818,281.44315,77,77,0
281.45453,281.5227,77,77,0
281.5227,282.21588,70,77,0
282.2727,282.40906,74,77,0
282.40906,282.54544,72,77,0
282.54544,282.8068,70,77,0
282.81815,283.07953,75,77,0
283.09088,283.35223,74,77,0
283.36362,283.62497,75,77,0
283.63635,283.8977,74,77,0
283.90906,284.17044,72,77,0
284.1818,284.44315,70,77,0
284.45453,284.71588,68,77,0
284.72723,285.95453,67,69,0
285.95453,286.09088,65,75,0
286.09088,286.22723,68,75,0
286.22723,286.36362,67,76,0
286.36362,286.49997,70,77,0
286.49997,286.63635,68,76,0
286.63635,286.7727,72,75,0
286.7727,286.90906,70,75,0
286.90906,287.17044,74,74,0
287.1818,287.29544,72,73,0
287.45453,287.56815,70,71,0
287.72723,287.84088,68,70,0
287.99997,288.51135,65,69,0
288.54544,289.0568,66,69,0
289.09088,289.60223,67,69,0
289.63635,290.1477,58,69,0
290.1818,290.69315,63,70,0
290.72723,291.23862,67,72,0
291.2727,291.95453,67,74,0
291.95453,292.09088,70,76,0
292.09088,292.22723,68,76,0
292.22723,292.36362,65,76,0
292.36362,292.87497,63,77,0
292.90906,293.17044,63,69,0
293.1818,293.24997,65,71,0
293.24997,293.31815,63,71,0
293.31815,293.38635,62,71,0
293.38635,293.45453,63,71,0
293.45453,293.96588,67,74,0
293.99997,294.51135,70,79,0
294.54544,295.22723,70,84,0
295.22723,295.36362,71,77,0
295.36362,295.49997,72,76,0
295.49997,295.63635,68,75,0
295.63635,296.1477,70,74,0
296.1818,296.98862,68,69,0
296.99997,297.26135,67,69,0
297.2727,297.53406,68,69,0
297.54544,297.8068,70,69,0
297.81815,297.95453,71,69,0
297.95453,298.09088,72,69,0
298.09088,298.22723,74,69,0
298.22723,298.36362,72,69,0
298.36362,298.49997,70,69,0
298.49997,298.63635,68,69,0
298.63635,298.7727,67,69,0
298.7727,298.90906,65,69,0
298.90906,299.42044,63,69,0
299.45453,299.96588,64,69,0
299.99997,300.26135,65,69,0
300.2727,300.34088,67,69,0
300.34088,300.40906,65,69,0
300.40906,300.47723,64,69,0
300.47723,300.54544,65,69,0
300.54544,301.0568,70,69,0
301.09088,302.1818,68,77,0
302.1818,302.69315,67,65,0
302.72723,302.79544,77,60,0
302.79544,302.86362,75,60,0
302.86362,302.9318,77,60,0
302.9318,302.99997,75,60,0
302.99997,303.06815,77,60,0
303.06815,303.13635,75,60,0
303.13635,303.20453,74,60,0
303.20453,303.2727,75,60,0
303.2727,303.78406,80,60,0
303.81815,304.32953,79,60,0
304.36362,305.04544,79,60,0
305.04544,305.1818,83,60,0
305.1818,305.31815,84,60,0
305.31815,305.45453,80,60,0
305.45453,305.59088,77,60,0
305.59088,305.72723,81,60,0
305.72723,305.86362,82,60,0
305.86362,305.99997,79,60,0
305.99997,306.13635,75,60,0
306.13635,306.2727,79,60,0
306.2727,306.40906,80,60,0
306.40906,306.54544,77,60,0
306.54544,306.6818,74,60,0
306.6818,306.81815,78,60,0
306.81815,306.95453,79,60,0
306.95453,307.09088,75,60,0
307.09088,307.22723,72,60,0
307.22723,307.36362,76,60,0
307.36362,307.49997,77,60,0
307.49997,307.63635,74,60,0
307.63635,307.7727,70,60,0
307.7727,307.90906,79,60,0
307.90906,308.04544,77,60,0
308.04544,308.1818,75,60,0
308.1818,308.31815,74,60,0
308.31815,308.45453,73,60,0
308.45453,308.59088,72,60,0
308.59088,308.72723,71,60,0
308.72723,308.84088,70,60,0
308.99997,309.11362,69,60,0
309.2727,309.98862,68,60,0
309.99997,310.07953,67,60,0
310.1818,310.26135,68,60,0
310.36362,310.44315,69,60,0
310.54544,310.62497,70,60,0
310.72723,310.8068,71,60,0
310.90906,311.04544,71,60,0
311.04544,311.1818,72,60,0
311.1818,311.31815,71,60,0
311.31815,311.45453,72,60,0
311.45453,311.59088,71,60,0
311.59088,311.72723,72,60,0
311.72723,311.86362,74,60,0
311.86362,311.99997,75,60,0
311.99997,312.13635,66,60,0
312.13635,312.2727,67,60,0
312.2727,312.40906,66,60,0
312.40906,312.54544,67,60,0
312.54544,312.6818,66,60,0
312.6818,312.81815,67,60,0
312.81815,312.95453,68,60,0
312.95453,313.09088,70,60,0
313.09088,313.20453,58,69,0
313.36362,313.4318,60,77,0
313.4318,313.49997,58,77,0
313.49997,313.56815,57,77,0
313.56815,313.63635,58,77,0
313.63635,313.8977,60,85,0
313.90906,314.17044,62,93,0
314.1818,315.2727,65,89,0
314.1818,315.2727,62,89,0
314.1818,315.2727,56,89,0
315.2727,315.78406,63,75,0
315.2727,315.78406,55,75,0
315.81815,315.88635,77,93,0
315.88635,315.95453,75,93,0
315.95453,316.0227,77,93,0
316.0227,316.09088,75,93,0
316.09088,316.15906,77,93,0
316.15906,316.22723,75,93,0
316.22723,316.29544,74,93,0
316.29544,316.36362,75,93,0
316.36362,316.87497,84,93,0
316.90906,317.13632,82,93,0
317.45453,318.54544,82,93,0
318.54544,319.0568,80,81,0
319.09088,319.31815,79,75,0
319.63632,319.86362,77,69,0
320.1818,320.40906,75,69,0
320.72723,322.23862,74,69,0
322.36362,322.59088,72,69,0
322.90906,323.13632,70,69,0
323.45453,323.6818,68,69,0
323.99997,324.51132,67,69,0
324.54544,324.7727,63,69,0
324.54544,324.7727,60,69,0
324.54544,324.7727,53,69,0
325.09088,325.60223,63,69,0
325.09088,325.60223,58,69,0
325.09088,325.60223,55,69,0
326.1818,327.19315,62,69,0
326.1818,327.19315,58,69,0
326.1818,327.19315,56,69,0
327.2727,327.78406,63,69,0
327.2727,327.78406,55,69,0
328.90906,329.45453,63,69,0
329.45453,329.96588,73,69,0
329.99997,330.22723,73,69,0
331.63632,331.70453,75,69,0
330.54544,331.7727,73,69,0
331.70453,331.7727,73,69,0
331.7727,331.84088,72,69,0
331.84088,331.90906,73,69,0
331.90906,332.04544,75,69,0
332.04544,332.1818,77,69,0
332.1818,332.44315,75,69,0
332.45453,332.71588,73,69,0
332.72723,332.99997,73,69,0
332.99997,333.26132,72,69,0
333.2727,333.54544,72,69,0
333.54544,333.8068,71,69,0
333.81815,334.90906,71,69,0
334.90906,335.42044,72,69,0
337.09088,338.31815,62,69,0
338.31815,338.45453,63,78,0
338.45453,338.59088,65,79,0
338.59088,338.72723,67,80,0
338.72723,338.86362,68,81,0
338.86362,338.99997,70,82,0
338.99997,339.13632,72,83,0
339.13632,339.2727,73,84,0
339.2727,339.40906,74,85,0
339.40906,339.54544,75,86,0
339.54544,339.6818,77,87,0
339.6818,339.81815,79,88,0
339.81815,339.95453,80,89,0
339.95453,340.09088,82,90,0
340.09088,340.22723,84,91,0
340.22723,340.36362,86,92,0
340.36362,341.45453,86,93,0
341.45453,341.96588,87,77,0
341.99997,342.26132,63,69,0
342.2727,342.34088,65,69,0
342.34088,342.40906,63,69,0
342.40906,342.47723,62,69,0
342.47723,342.54544,63,69,0
342.54544,343.0568,73,69,0
343.09088,343.31815,73,69,0
343.63632,344.98862,73,69,0
344.99997,345.13632,75,69,0
345.13632,345.2727,77,69,0
345.2727,345.53406,75,69,0
345.54544,345.8068,73,69,0
345.81815,346.09088,73,69,0
346.09088,346.35223,72,69,0
346.36362,346.63632,72,69,0
346.63632,346.8977,71,69,0
346.90906,347.99997,71,69,0
347.99997,348.51132,72,69,0
350.1818,351.40906,62,69,0
351.40906,351.5454,63,75,0
351.5454,351.6818,65,76,0
351.6818,351.81815,67,77,0
351.81815,351.95453,68,78,0
351.95453,352.09088,70,78,0
352.09088,352.22723,72,79,0
352.22723,352.36362,73,80,0
352.36362,352.49997,74,81,0
352.49997,352.63632,75,81,0
352.63632,352.7727,77,82,0
352.7727,352.90906,79,83,0
352.90906,353.0454,80,84,0
353.0454,353.1818,82,84,0
353.1818,353.31815,84,85,0
353.31815,353.45453,86,86,0
353.45453,354.46588,87,87,0
354.6818,354.81815,82,69,0
354.81815,354.95453,84,70,0
354.95453,355.09088,82,71,0
355.09088,355.22723,80,72,0
355.22723,355.36362,79,73,0
355.36362,355.49997,77,74,0
355.49997,355.63632,75,75,0
355.63632,355.7727,74,76,0
355.7727,355.82953,75,77,0
355.90906,355.96588,77,78,0
356.0454,356.10223,79,79,0
356.1818,356.23862,80,80,0
356.31815,356.37497,82,81,0
356.45453,356.51132,84,82,0
356.59088,356.6477,86,83,0
356.72723,357.73862,87,84,0
357.95453,358.09088,82,69,0
358.09088,358.22723,84,70,0
358.22723,358.36362,82,71,0
358.36362,358.49997,80,73,0
358.49997,358.63632,79,74,0
358.63632,358.7727,77,75,0
358.7727,358.90906,75,77,0
358.90906,359.0454,74,78,0
359.0454,359.10223,75,79,0
359.1818,359.23862,77,81,0
359.31815,359.37497,79,82,0
359.45453,359.51132,80,83,0
359.59088,359.6477,82,85,0
359.72723,359.78406,84,86,0
359.86362,359.9204,86,87,0
359.99997,360.38632,87,89,0
360.40906,360.5454,79,93,0
360.5454,360.61362,80,93,0
360.61362,360.6818,79,93,0
360.6818,360.74997,80,93,0
360.74997,360.81815,79,93,0
360.81815,360.88632,80,93,0
360.88632,360.95453,79,93,0
360.95453,361.0227,77,93,0
361.0227,361.09088,79,93,0
361.09088,361.47723,82,84,0
361.49997,361.63632,75,84,0
361.63632,361.70453,77,84,0
361.70453,361.7727,75,84,0
361.7727,361.84088,77,84,0
361.84088,361.90906,75,84,0
361.90906,361.97723,77,84,0
361.97723,362.0454,75,84,0
362.0454,362.11362,74,84,0
362.11362,362.1818,75,84,0
362.1818,362.56815,79,77,0
362.59088,362.72723,70,77,0
362.72723,362.7954,72,77,0
362.7954,362.86362,70,77,0
362.86362,362.9318,72,77,0
362.9318,362.99997,70,77,0
362.99997,363.06815,72,77,0
363.06815,363.13632,70,77,0
363.13632,363.20453,68,77,0
363.20453,363.2727,70,77,0
363.2727,364.78406,75,69,0
13.090908,14.181817,62,64,0
14.181817,14.693181,63,64,0
16.363634,17.124998,63,64,0
17.181816,17.44318,62,64,0
17.454544,17.965908,63,64,0
19.636362,20.72727,65,64,0
20.72727,21.238634,63,64,0
22.909088,23.545452,77,64,0
23.545452,23.636362,79,64,0
23.636362,23.72727,77,64,0
23.72727,23.81818,75,64,0
23.81818,23.909088,74,64,0
23.909088,23.999998,72,64,0
23.999998,24.511362,70,64,0
24.545452,24.806816,70,64,0
24.81818,24.886362,72,64,0
24.886362,24.954544,70,64,0
24.954544,25.022726,69,64,0
25.022726,25.090906,70,64,0
25.090906,25.60227,74,64,0
25.636362,26.147724,72,64,0
25.636362,26.147724,69,64,0
35.999996,37.01136,55,64,0
37.090904,39.10227,56,64,0
42.545452,44.056816,58,64,0
45.818176,48.82954,58,64,0
49.090904,50.10227,60,64,0
50.181812,52.193176,58,64,0
52.363632,53.45454,62,64,0
52.363632,53.45454,53,64,0
53.45454,53.965904,63,64,0
52.363632,53.965904,58,64,0
53.45454,53.965904,55,64,0
53.999996,54.068176,77,64,0
54.068176,54.13636,75,64,0
54.13636,54.20454,77,64,0
54.20454,54.272724,75,64,0
54.272724,54.340904,77,64,0
54.340904,54.40909,75,64,0
54.40909,54.47727,74,64,0
54.47727,54.54545,75,64,0
54.54545,55.056812,80,64,0
55.090904,55.318176,79,64,0
68.727264,69.73863,70,64,0
69.81818,70.32954,69,64,0
70.36363,70.87499,69,64,0
70.90909,71.42045,70,64,0
71.45454,71.965904,72,64,0
71.99999,73.51136,70,64,0
73.63636,74.14772,70,64,0
74.18181,74.69318,69,64,0
74.727264,75.23863,70,64,0
75.27272,76.78409,72,64,0
76.90909,77.17045,70,64,0
77.18181,77.44318,69,64,0
77.45454,77.965904,70,64,0
77.99999,78.51136,72,64,0
77.99999,78.51136,65,64,0
78.54545,80.05681,65,64,0
130.90907,131.99998,62,64,0
131.99998,132.51135,63,64,0
134.18181,134.94318,63,64,0
134.99998,135.26135,62,64,0
135.27272,135.78407,63,64,0
137.45453,138.54544,65,64,0
138.54544,139.05681,63,64,0
233.45453,234.4659,60,64,0
234.54544,235.5568,61,64,0
3.272727,5.2840905,58,69,0
3.272727,5.2840905,55,69,0
3.272727,5.2840905,51,69,0
5.454545,6.4659085,62,69,0
5.454545,6.4659085,56,69,0
5.454545,6.4659085,53,69,0
6.545454,10.90909,63,69,0
10.90909,12.920453,62,69,0
13.090908,14.181817,56,69,0
13.090908,14.693181,58,69,0
14.181817,14.693181,55,69,0
13.090908,14.693181,51,69,0
16.363634,16.874998,58,84,0
16.363634,16.874998,46,84,0
16.90909,17.420454,56,79,0
16.90909,17.420454,44,79,0
17.454544,17.965908,55,74,0
17.454544,17.965908,43,74,0
19.636362,20.72727,50,84,0
19.636362,21.238634,58,84,0
20.72727,21.238634,51,74,0
22.909088,23.920452,62,69,0
22.909088,23.920452,53,69,0
24.545452,25.056816,62,69,0
25.090906,25.60227,65,69,0
25.636362,26.147724,63,69,0
26.181816,27.272724,63,69,0
27.272724,27.784088,62,69,0
26.181816,27.784088,58,69,0
29.454542,31.63636,39,69,0
31.63636,32.647724,41,69,0
32.72727,34.90909,43,69,0
34.90909,35.920452,44,69,0
35.999996,39.01136,46,69,0
35.999996,39.01136,34,69,0
39.272724,40.78409,39,69,0
42.545452,43.056816,46,84,0
43.090904,43.60227,44,79,0
43.63636,44.147724,43,74,0
45.818176,47.999996,38,69,0
47.999996,49.01136,39,69,0
49.090904,50.10227,53,69,0
49.090904,50.10227,44,69,0
50.181812,51.193176,55,69,0
50.181812,51.193176,46,69,0
51.272724,52.28409,56,69,0
51.272724,52.28409,34,69,0
52.363632,53.874996,39,69,0
58.909084,61.92045,58,69,0
62.181812,63.193176,53,69,0
62.181812,63.193176,48,69,0
62.181812,63.193176,44,69,0
63.27272,64.36363,55,69,0
64.36363,65.37499,56,69,0
65.45454,65.965904,55,69,0
65.45454,65.965904,51,69,0
66.54545,67.056816,39,69,0
68.727264,70.90909,66,69,0
70.90909,71.92045,65,69,0
71.99999,73.51136,65,69,0
73.63636,74.64772,65,69,0
74.727264,75.23863,65,69,0
75.27272,76.78409,65,69,0
76.90909,77.42045,53,69,0
77.45454,77.965904,58,69,0
77.99999,78.51136,51,69,0
78.54545,80.05681,53,69,0
81.27272,81.78408,58,69,0
81.81818,83.32954,60,69,0
85.090904,86.602264,54,69,0
86.727264,87.23863,55,69,0
87.27272,87.78408,53,69,0
87.81818,88.32954,51,69,0
88.36363,88.590904,50,69,0
88.90908,89.13635,51,69,0
89.45454,89.965904,53,69,0
90.54545,91.05681,41,69,0
91.63635,93.14772,46,69,0
94.36363,94.87499,62,69,0
94.36363,94.87499,58,69,0
94.36363,94.87499,53,69,0
94.90908,97.602264,63,69,0
94.90908,97.602264,60,69,0
97.63635,98.14772,62,69,0
97.63635,98.14772,58,69,0
98.18181,99.19318,60,69,0
98.18181,99.19318,57,69,0
99.27272,99.78408,63,69,0
99.27272,99.78408,60,69,0
99.81818,100.32954,62,69,0
99.81818,100.32954,58,69,0
100.363625,100.87499,60,69,0
100.90908,101.42045,63,69,0
101.45454,101.965904,62,69,0
101.45454,101.965904,58,69,0
101.99999,102.51135,63,69,0
101.99999,102.51135,51,69,0
102.54545,103.05681,62,69,0
102.54545,103.05681,53,69,0
103.63635,104.64772,63,69,0
103.63635,104.64772,53,69,0
104.727264,105.238625,58,69,0
106.90908,108.51135,58,69,0
108.54545,109.0909,55,69,0
109.0909,111.78408,56,69,0
111.81818,112.363625,53,69,0
112.363625,113.87499,55,69,0
113.99999,114.51135,51,69,0
114.54545,117.55681,58,69,0
118.363625,118.87499,63,69,0
118.363625,118.87499,60,69,0
118.90908,119.42045,62,69,0
118.90908,119.42045,58,69,0
119.45454,119.9659,60,69,0
119.45454,119.9659,56,69,0
119.99999,120.51135,58,69,0
119.99999,120.51135,55,69,0
120.54545,121.05681,56,69,0
120.54545,121.05681,53,69,0
121.0909,123.102264,58,69,0
121.0909,123.102264,55,69,0
121.0909,123.102264,51,69,0
123.27272,124.28408,62,69,0
123.27272,124.28408,56,69,0
123.27272,124.28408,53,69,0
124.363625,128.72726,63,69,0
128.72726,130.73863,62,69,0
130.90907,131.99998,56,69,0
130.90907,132.51135,58,69,0
131.99998,132.51135,55,69,0
130.90907,132.51135,51,69,0
134.18181,134.69318,58,84,0
134.18181,134.69318,46,84,0
134.72726,135.23863,56,79,0
134.72726,135.23863,44,79,0
135.27272,135.78407,55,74,0
135.27272,135.78407,43,74,0
137.45453,138.54544,50,84,0
137.45453,139.05681,58,84,0
138.54544,139.05681,51,74,0
140.72726,141.73862,62,69,0
140.72726,141.73862,53,69,0
142.36362,142.87498,62,69,0
142.90907,143.42044,65,69,0
143.45453,143.9659,63,69,0
143.99998,145.0909,63,69,0
145.0909,145.60226,62,69,0
143.99998,145.60226,58,69,0
147.27272,149.45453,39,69,0
149.45453,150.4659,41,69,0
150.54544,152.72726,43,69,0
152.72726,153.73862,44,69,0
153.81818,156.82953,46,69,0
153.81818,156.82953,34,69,0
157.0909,157.35226,56,69,0
157.36362,157.62498,58,69,0
157.63635,157.89772,62,69,0
157.90907,158.17044,58,69,0
158.18181,158.44316,63,69,0
158.45453,158.7159,58,69,0
158.72726,158.98862,55,69,0
158.99998,159.26135,51,69,0
159.27272,159.53407,58,69,0
159.54544,159.80681,55,69,0
159.81816,160.07953,63,69,0
160.0909,160.35226,58,69,0
160.36362,160.87498,46,69,0
160.36362,160.87498,34,69,0
160.90907,161.42044,44,69,0
160.90907,161.42044,32,69,0
161.45453,161.9659,43,69,0
161.45453,161.9659,31,69,0
163.63635,165.81816,38,69,0
165.81816,166.82953,39,69,0
166.90907,167.92044,44,69,0
167.99998,169.01135,46,69,0
169.0909,170.10226,34,69,0
170.18181,171.69316,39,69,0
172.36362,172.90907,75,69,0
172.36362,172.90907,72,69,0
172.90907,173.42044,74,69,0
172.90907,173.42044,70,69,0
173.45453,174.9659,72,69,0
173.45453,174.9659,68,69,0
175.0909,175.31816,70,69,0
175.0909,175.31816,67,69,0
175.63635,175.86362,68,69,0
175.63635,175.86362,65,69,0
176.18181,176.40907,67,69,0
176.18181,176.40907,63,69,0
176.72726,179.73862,58,69,0
179.99998,181.01135,53,69,0
179.99998,181.01135,48,69,0
179.99998,181.01135,44,69,0
181.0909,182.18181,55,69,0
182.18181,183.19316,56,69,0
183.2727,183.78407,55,69,0
183.2727,183.78407,51,69,0
184.36362,184.87498,39,69,0
186.54544,186.80681,56,69,0
186.81816,187.07953,63,69,0
187.0909,187.35226,60,69,0
187.36362,187.62498,63,69,0
187.63635,187.8977,56,69,0
187.90907,188.17044,63,69,0
188.18181,188.44316,60,69,0
188.45453,188.7159,63,69,0
188.72726,188.98862,51,69,0
188.99998,189.26135,61,69,0
189.2727,189.53407,55,69,0
189.54544,189.80681,61,69,0
189.81816,190.07953,56,69,0
190.0909,190.35226,63,69,0
190.36362,190.62498,60,69,0
190.63635,190.8977,63,69,0
190.90907,191.17044,56,69,0
191.18181,191.44316,63,69,0
191.45453,191.7159,60,69,0
191.72725,191.98862,63,69,0
191.99998,192.26135,51,69,0
192.2727,192.53407,61,69,0
192.54544,192.80681,55,69,0
192.81816,193.07953,61,69,0
193.0909,193.35225,56,69,0
193.36362,193.62498,63,69,0
193.63635,193.8977,60,69,0
193.90907,194.17044,63,69,0
194.18181,194.44316,55,69,0
194.45453,194.7159,63,69,0
194.72725,194.98862,58,69,0
194.99998,195.26135,63,69,0
195.2727,195.53407,56,69,0
195.54544,195.80681,63,69,0
195.81816,196.07953,60,69,0
196.0909,196.35225,63,69,0
196.36362,197.12498,60,69,0
197.18181,197.44316,56,69,0
197.45453,198.4659,55,69,0
199.63635,200.6477,44,69,0
201.81816,202.82953,39,69,0
202.90907,203.92044,44,69,0
205.0909,206.10225,36,69,0
206.18181,206.69316,41,69,0
206.72725,207.23862,43,69,0
207.2727,207.78407,44,69,0
207.81816,208.32953,41,69,0
208.36362,208.87498,46,69,0
208.90907,209.42044,34,69,0
209.45453,210.4659,39,69,0
210.54544,211.5568,51,69,0
212.72725,212.98862,55,69,0
212.99998,213.26135,63,69,0
213.2727,213.53407,58,69,0
213.54544,213.8068,63,69,0
213.81816,214.07953,55,69,0
214.0909,214.35225,63,69,0
214.36362,214.62498,58,69,0
214.63635,214.8977,63,69,0
214.90907,215.17044,56,69,0
215.1818,215.44316,63,69,0
215.45453,215.7159,60,69,0
215.72725,215.98862,63,69,0
215.99998,216.26135,51,69,0
216.2727,216.53407,63,69,0
216.54544,216.8068,55,69,0
216.81816,217.07953,63,69,0
217.0909,217.35225,55,69,0
217.36362,217.62498,63,69,0
217.63635,217.8977,58,69,0
217.90907,218.17044,63,69,0
218.1818,218.44316,56,69,0
218.45453,218.7159,63,69,0
218.72725,218.98862,60,69,0
218.99998,219.26135,63,69,0
219.2727,219.53407,51,69,0
219.54544,219.8068,63,69,0
219.81816,220.07953,55,69,0
220.0909,220.35225,63,69,0
220.36362,220.62498,55,69,0
220.63635,220.8977,63,69,0
220.90907,221.17044,58,69,0
221.1818,221.44316,63,69,0
221.45453,221.7159,56,69,0
221.72725,221.98862,63,69,0
221.99998,222.26135,59,69,0
222.2727,222.53407,63,69,0
222.54544,223.5568,55,69,0
222.54544,223.5568,51,69,0
230.72725,231.23862,56,69,0
231.2727,231.78407,58,69,0
231.81816,232.32953,60,69,0
232.36362,232.87498,61,69,0
233.45453,235.4659,51,69,0
235.63634,237.1477,44,69,0
237.81816,238.32953,80,69,0
237.81816,238.32953,77,69,0
238.36362,238.87498,79,69,0
238.36362,238.87498,75,69,0
238.90907,240.42044,77,69,0
238.90907,240.42044,73,69,0
240.54544,240.7727,75,69,0
240.54544,240.7727,72,69,0
241.0909,241.31816,73,69,0
241.0909,241.31816,70,69,0
241.63634,241.86362,72,69,0
241.63634,241.86362,68,69,0
242.1818,243.19316,70,69,0
242.1818,243.19316,67,69,0
243.81816,244.82953,56,69,0
244.90907,245.42044,56,69,0
245.45453,245.96588,56,69,0
245.45453,245.96588,49,69,0
246.54544,247.0568,60,69,0
246.54544,247.0568,51,69,0
247.63634,248.6477,61,69,0
247.63634,248.6477,49,69,0
248.72725,248.98862,56,69,0
248.99998,249.26134,63,69,0
249.2727,249.53407,60,69,0
249.54544,249.8068,63,69,0
249.81816,250.07953,56,69,0
250.09088,250.35225,63,69,0
250.36362,250.62498,60,69,0
250.63634,250.8977,63,69,0
250.90907,251.17044,51,69,0
251.1818,251.44316,61,69,0
251.45453,251.71588,55,69,0
251.72725,251.98862,61,69,0
251.99998,252.26134,56,69,0
252.2727,252.53407,63,69,0
252.54544,252.8068,60,69,0
252.81816,253.07953,63,69,0
253.09088,253.35225,56,69,0
253.36362,253.62498,63,69,0
253.63634,253.8977,60,69,0
253.90907,254.17044,63,69,0
254.1818,254.44316,48,69,0
254.45453,254.71588,58,69,0
254.72725,254.98862,55,69,0
254.99998,255.26134,58,69,0
255.2727,255.53407,53,69,0
255.54544,255.8068,60,69,0
255.81816,256.07953,56,69,0
256.09088,256.35226,60,69,0
256.36362,256.62497,53,69,0
256.63635,256.8977,60,69,0
256.90906,257.17044,56,69,0
257.1818,257.44315,60,69,0
257.45453,257.71588,48,69,0
257.72726,257.98862,58,69,0
257.99997,258.26135,52,69,0
258.2727,258.53406,58,69,0
258.54544,258.8068,53,69,0
258.81815,259.07953,60,69,0
259.09088,259.35226,56,69,0
259.36362,259.62497,60,69,0
259.63635,259.8977,53,69,0
259.90906,260.17044,60,69,0
260.1818,260.44315,56,69,0
260.45453,260.71588,60,69,0
260.72726,260.98862,47,69,0
260.99997,261.26135,56,69,0
261.2727,261.53406,53,69,0
261.54544,261.8068,56,69,0
261.81815,262.07953,46,69,0
262.09088,262.35226,56,69,0
262.36362,262.62497,53,70,0
262.63635,262.8977,56,71,0
262.90906,263.17044,46,72,0
263.1818,263.44315,56,73,0
263.45453,263.71588,53,73,0
263.72726,263.98862,56,74,0
263.99997,264.26135,47,75,0
264.2727,264.53406,56,76,0
264.54544,264.8068,53,77,0
264.81815,265.07953,56,77,0
265.09088,265.35226,46,78,0
265.36362,265.62497,56,79,0
265.63635,265.8977,53,80,0
265.90906,266.17044,56,81,0
266.1818,266.44315,58,81,0
266.45453,266.71588,68,82,0
266.72726,266.98862,65,83,0
266.99997,267.26135,68,84,0
267.2727,267.53406,59,85,0
267.54544,267.8068,68,85,0
267.81815,268.07953,65,86,0
268.09088,268.35226,68,87,0
268.36362,269.99997,65,88,0
269.99997,270.51135,67,93,0
270.54544,272.0227,68,93,0
272.04544,272.1818,67,88,0
272.1818,272.56815,68,87,0
272.59088,272.72726,66,86,0
272.72726,273.23862,67,86,0
273.2727,273.81815,64,84,0
273.81815,275.29544,65,82,0
275.31815,275.45453,64,78,0
275.45453,275.84088,65,77,0
275.86362,275.99997,62,76,0
275.99997,276.51135,63,75,0
276.54544,277.0568,58,74,0
277.09088,278.10226,56,72,0
278.1818,278.44315,39,77,0
278.45453,278.71588,43,77,0
278.72726,278.98862,46,77,0
278.99997,279.26135,51,77,0
279.2727,279.53406,39,77,0
279.54544,279.8068,43,77,0
279.81815,280.07953,46,77,0
280.09088,280.35226,51,77,0
280.36362,280.62497,41,77,0
280.63635,280.8977,46,77,0
280.90906,281.17044,50,77,0
281.1818,281.44315,53,77,0
281.45453,281.71588,43,77,0
281.72726,281.98862,46,77,0
281.99997,282.26135,51,77,0
282.2727,282.53406,55,77,0
282.54544,282.8068,43,77,0
282.81815,283.07953,46,77,0
283.09088,283.35223,51,77,0
283.36362,283.62497,55,77,0
283.63635,283.8977,44,77,0
283.90906,284.17044,48,77,0
284.1818,284.44315,53,77,0
284.45453,284.71588,56,77,0
284.72723,284.98862,46,77,0
284.99997,285.26135,51,77,0
285.2727,285.53406,55,77,0
285.54544,285.8068,58,77,0
285.81815,286.07953,46,77,0
286.09088,286.35223,53,77,0
286.36362,286.62497,56,77,0
286.63635,286.8977,58,77,0
286.90906,287.17044,46,77,0
287.1818,287.44315,50,77,0
287.45453,287.71588,53,77,0
287.72723,287.98862,58,77,0
287.99997,288.26135,39,77,0
288.2727,288.53406,44,77,0
288.54544,288.8068,46,77,0
288.81815,289.07953,50,77,0
289.09088,289.35223,39,77,0
289.36362,289.62497,43,77,0
289.63635,289.8977,46,77,0
289.90906,290.17044,51,77,0
290.1818,290.44315,39,77,0
290.45453,290.71588,43,77,0
290.72723,290.98862,46,77,0
290.99997,291.26135,51,77,0
291.2727,291.53406,34,77,0
291.54544,291.8068,46,77,0
291.81815,292.07953,32,77,0
292.09088,292.35223,44,77,0
292.36362,292.62497,31,77,0
292.63635,292.8977,34,77,0
292.90906,293.17044,39,77,0
293.1818,293.44315,43,77,0
293.45453,293.71588,31,77,0
293.72723,293.98862,34,77,0
293.99997,294.26135,39,77,0
294.2727,294.53406,43,77,0
294.54544,294.8068,38,77,0
294.81815,295.07953,41,77,0
295.09088,295.35223,46,77,0
295.36362,295.62497,50,77,0
295.63635,295.8977,38,77,0
295.90906,296.17044,41,77,0
296.1818,296.44315,46,77,0
296.45453,296.71588,50,77,0
296.72723,296.98862,39,77,0
296.99997,297.26135,43,77,0
297.2727,297.53406,46,77,0
297.54544,297.8068,51,77,0
297.81815,298.07953,32,77,0
298.09088,298.35223,36,77,0
298.36362,298.62497,41,77,0
298.63635,298.8977,44,77,0
298.90906,299.17044,34,77,0
299.1818,299.44315,39,77,0
299.45453,299.71588,43,77,0
299.72723,299.98862,46,77,0
299.99997,300.26135,34,77,0
300.2727,300.53406,38,77,0
300.54544,300.8068,41,77,0
300.81815,301.07953,46,77,0
301.09088,301.35223,35,77,0
301.36362,301.62497,38,74,0
301.63635,301.8977,41,71,0
301.90906,302.17044,47,68,0
302.1818,302.69315,48,65,0
303.2727,303.78406,75,69,0
303.2727,303.78406,72,69,0
303.81815,304.32953,74,69,0
303.81815,304.32953,70,69,0
304.36362,305.87497,72,69,0
304.36362,305.87497,68,69,0
305.99997,306.22723,70,69,0
305.99997,306.22723,67,69,0
306.54544,306.7727,68,69,0
306.54544,306.7727,65,69,0
307.09088,307.31815,67,69,0
307.09088,307.31815,63,69,0
307.63635,310.6477,58,69,0
310.90906,312.92044,51,69,0
313.09088,314.10223,53,69,0
314.1818,315.2727,47,93,0
314.1818,315.2727,35,93,0
315.2727,315.78406,48,77,0
315.2727,315.78406,36,77,0
315.81815,315.88635,62,93,0
315.88635,315.95453,60,93,0
315.95453,316.0227,62,93,0
316.0227,316.09088,60,93,0
316.09088,316.15906,62,93,0
316.15906,316.22723,60,93,0
316.22723,316.29544,58,93,0
316.29544,316.36362,60,93,0
316.36362,316.87497,68,93,0
316.90906,317.13632,67,93,0
317.45453,318.54544,67,84,0
318.54544,318.8068,65,84,0
318.81815,318.95453,70,84,0
318.95453,319.09088,67,84,0
319.09088,319.35223,63,84,0
319.36362,319.49997,68,84,0
319.49997,319.63632,65,84,0
319.63632,319.8977,62,84,0
319.90906,320.04544,67,84,0
320.04544,320.1818,63,84,0
320.1818,320.44315,60,84,0
320.45453,320.59088,65,84,0
320.59088,320.72723,62,84,0
320.72723,321.95453,58,84,0
321.95453,322.09088,62,84,0
322.09088,322.22723,63,84,0
322.22723,322.36362,60,84,0
322.36362,322.49997,56,84,0
322.49997,322.63632,61,84,0
322.63632,322.7727,62,84,0
322.7727,322.90906,58,84,0
322.90906,323.04544,55,84,0
323.04544,323.1818,59,84,0
323.1818,323.31815,60,84,0
323.31815,323.45453,56,84,0
323.45453,323.59088,53,84,0
323.59088,323.72723,57,84,0
323.72723,323.86362,58,84,0
323.86362,323.99997,55,84,0
323.99997,324.51132,51,84,0
324.54544,324.7727,44,84,0
325.09088,325.60223,46,84,0
326.1818,327.19315,34,84,0
327.2727,327.53406,51,69,0
327.54544,327.8068,55,69,0
327.81815,328.07953,58,69,0
328.09088,328.35223,55,69,0
328.36362,328.62497,51,69,0
328.63632,328.8977,55,69,0
328.90906,329.17044,58,69,0
329.1818,329.44315,55,69,0
329.45453,329.71588,51,69,0
329.72723,329.98862,55,69,0
329.99997,330.26132,58,69,0
330.2727,330.53406,55,69,0
330.54544,330.8068,51,69,0
330.81815,331.07953,55,69,0
331.09088,331.35223,58,69,0
331.36362,331.62497,55,69,0
331.63632,331.8977,51,69,0
331.90906,332.17044,55,69,0
332.1818,332.44315,58,69,0
332.45453,332.71588,55,69,0
332.72723,332.98862,51,69,0
332.99997,333.26132,55,69,0
333.2727,333.53406,61,69,0
333.54544,333.8068,55,69,0
333.81815,334.07953,51,69,0
334.09088,334.35223,56,69,0
334.36362,334.62497,60,69,0
334.63632,334.8977,56,69,0
334.90906,335.17044,51,69,0
335.1818,335.44315,56,69,0
335.45453,335.71588,60,69,0
335.72723,335.98862,56,69,0
335.99997,336.26132,51,69,0
336.2727,336.53406,56,69,0
336.54544,336.8068,60,69,0
336.81815,337.07953,56,69,0
337.09088,337.35223,51,69,0
337.36362,337.62497,53,69,0
337.63632,337.8977,56,69,0
337.90906,338.17044,53,69,0
338.1818,338.44315,51,69,0
338.45453,338.71588,53,69,0
338.72723,338.98862,56,69,0
338.99997,339.26132,53,69,0
339.2727,339.53406,51,69,0
339.54544,339.8068,53,69,0
339.81815,340.07953,56,69,0
340.09088,340.35223,53,69,0
340.36362,340.62497,51,69,0
340.63632,340.8977,53,69,0
340.90906,341.17044,58,69,0
341.1818,341.44315,53,69,0
341.45453,341.71588,51,69,0
341.72723,341.98862,55,69,0
341.99997,342.26132,58,69,0
342.2727,342.53406,55,69,0
342.54544,342.8068,51,69,0
342.81815,343.07953,55,69,0
343.09088,343.35223,58,69,0
343.36362,343.62497,55,69,0
343.63632,343.8977,51,69,0
343.90906,344.17044,55,69,0
344.1818,344.44315,58,69,0
344.45453,344.71588,55,69,0
344.72723,344.98862,51,69,0
344.99997,345.26132,55,69,0
345.2727,345.53406,58,69,0
345.54544,345.8068,55,69,0
345.81815,346.07953,51,69,0
346.09088,346.35223,55,69,0
346.36362,346.62497,61,69,0
346.63632,346.8977,55,69,0
346.90906,347.17044,51,69,0
347.1818,347.44315,56,69,0
347.45453,347.71588,60,69,0
347.72723,347.98862,56,69,0
347.99997,348.26132,51,69,0
348.2727,348.53406,56,69,0
348.54544,348.8068,60,69,0
348.81815,349.07953,56,69,0
349.09088,349.35223,51,69,0
349.36362,349.62497,56,69,0
349.63632,349.8977,60,69,0
349.90906,350.1704,56,69,0
350.1818,350.44315,51,69,0
350.45453,350.71588,53,69,0
350.72723,350.98862,56,69,0
350.99997,351.26132,53,69,0
351.2727,351.53406,51,69,0
351.5454,351.8068,53,69,0
351.81815,352.07953,56,69,0
352.09088,352.35223,53,69,0
352.36362,352.62497,51,69,0
352.63632,352.8977,53,69,0
352.90906,353.1704,56,69,0
353.1818,353.44315,53,69,0
353.45453,354.46588,51,69,0
355.63632,356.72723,68,69,0
355.63632,356.72723,65,69,0
355.63632,356.72723,58,69,0
356.72723,357.73862,67,69,0
356.72723,357.73862,63,69,0
358.90906,359.99997,56,69,0
358.90906,359.99997,53,69,0
358.90906,359.99997,46,69,0
359.99997,360.51132,55,69,0
359.99997,360.51132,51,69,0
361.09088,361.60223,55,69,0
361.09088,361.60223,51,69,0
362.1818,362.69315,55,69,0
362.1818,362.69315,51,69,0
363.2727,364.78406,55,69,0
363.2727,364.78406,51,69,0
6.545454,8.556817,58,64,0
6.545454,8.556817,55,64,0
8.727272,9.738636,56,64,0
9.818181,12.829544,58,64,0
24.545452,25.556816,53,64,0
25.636362,26.147724,53,64,0
52.363632,53.874996,39,64,0
54.54545,55.056812,75,64,0
54.54545,55.056812,72,64,0
55.090904,55.60227,74,64,0
55.090904,55.60227,70,64,0
55.63636,57.147724,72,64,0
55.63636,57.147724,68,64,0
57.272724,57.499996,70,64,0
57.272724,57.499996,67,64,0
57.818176,58.04545,68,64,0
57.818176,58.04545,65,64,0
58.363632,58.590904,67,64,0
58.363632,58.590904,63,64,0
58.909084,61.090904,53,64,0
58.909084,61.090904,50,64,0
61.090904,62.10227,55,64,0
61.090904,62.10227,51,64,0
63.27272,65.28409,46,64,0
68.727264,71.73863,63,64,0
71.99999,73.51136,62,64,0
73.63636,74.14772,62,64,0
74.18181,74.69318,63,64,0
74.18181,74.69318,60,64,0
74.727264,75.23863,62,64,0
74.727264,75.23863,58,64,0
75.27272,76.78409,60,64,0
75.27272,76.78409,57,64,0
94.90908,97.92045,53,64,0
98.18181,99.81818,54,64,0
99.81818,100.32954,55,64,0
100.363625,101.37499,57,64,0
104.727264,110.01135,46,64,0
110.18181,113.28408,46,64,0
113.45454,117.55681,46,64,0
124.363625,126.37499,58,64,0
124.363625,126.37499,55,64,0
126.54544,127.55681,56,64,0
127.63635,130.64772,58,64,0
142.36362,143.37498,53,64,0
143.45453,143.9659,53,64,0
157.0909,158.60226,39,64,0
176.72726,178.90907,53,64,0
176.72726,178.90907,50,64,0
178.90907,179.92044,55,64,0
178.90907,179.92044,51,64,0
181.0909,183.10226,46,64,0
196.36362,198.37498,51,64,0
243.81816,244.32953,44,64,0
244.36362,244.87498,46,64,0
244.90907,245.42044,48,64,0
268.36362,276.51135,58,64,0
276.54544,277.0568,46,64,0
277.09088,278.10226,46,64,0
307.63635,309.6477,53,64,0
309.81815,310.82953,55,64,0
310.90906,311.92044,53,64,0
310.90906,311.92044,44,64,0
311.99997,313.01135,55,64,0
313.09088,314.10223,56,64,0
311.99997,314.01135,46,64,0
