start_time,end_time,note_value,velocity,instrument_program_number
14.571414,14.745521,77,93,40
14.999985,15.174092,77,93,40
15.428556,15.482127,77,93,40
15.482127,16.236591,86,93,40
16.285698,16.33927,75,93,40
16.33927,17.093733,84,93,40
17.14284,17.196411,74,93,40
17.196411,17.950874,82,93,40
17.999983,18.200874,84,93,40
18.214268,18.41516,82,93,40
18.428553,18.629446,81,93,40
18.64284,18.84373,79,93,40
18.857124,18.94641,77,93,40
19.07141,19.138374,79,93,40
19.142838,19.209803,77,93,40
19.214266,19.28123,76,93,40
19.285694,19.486588,77,93,40
19.49998,19.589266,79,93,40
19.714266,19.80355,75,93,40
19.92855,19.995516,77,93,40
19.99998,20.066944,75,93,40
20.07141,20.138372,74,93,40
20.142838,20.343729,75,93,40
20.357122,20.446407,77,93,40
20.571407,20.999979,75,93,40
20.999979,21.3973,74,93,40
21.42855,21.629442,72,93,40
21.642836,21.843729,74,93,40
21.85712,22.058014,75,93,40
22.071407,22.272299,72,93,40
22.285692,22.486584,77,93,40
22.499977,22.70087,74,93,40
22.714264,22.803549,70,93,40
22.928549,23.017834,70,93,40
23.142834,23.343727,72,93,40
23.357119,23.558012,74,93,40
23.571405,23.772297,75,93,40
23.78569,23.986584,72,93,40
23.999975,24.200869,77,93,40
24.214262,24.415154,74,93,40
24.428547,24.517832,82,93,40
24.642832,24.732119,82,93,40
24.857119,25.071404,82,93,40
25.071404,25.272297,77,93,40
25.285688,25.374975,86,93,40
25.499975,25.58926,86,93,40
25.71426,26.772295,86,93,40
26.785688,26.98658,87,93,40
26.999973,27.200865,84,93,40
27.214258,27.415152,81,93,40
27.428543,27.64283,82,93,40
27.64283,27.843721,86,93,40
27.857115,27.9464,77,93,40
28.0714,28.160686,77,93,40
28.285686,28.499971,77,93,40
28.499971,28.700865,82,93,40
28.714256,28.803543,74,93,40
28.928543,29.017828,74,93,40
29.142828,30.200863,74,93,40
30.214256,30.415148,77,93,40
30.428541,30.629435,75,93,40
30.642826,30.84372,72,93,40
30.857113,31.254433,70,93,40
44.571384,51.29459,79,93,40
51.42852,51.82584,72,93,40
53.142803,53.23209,64,93,40
53.35709,53.446377,65,93,40
53.571377,53.66066,67,93,40
53.78566,53.874947,69,93,40
53.999947,54.397266,70,93,40
54.857086,54.946373,76,93,40
55.071373,55.16066,77,93,40
55.28566,55.374943,79,93,40
55.499943,55.58923,81,93,40
55.71423,56.11155,82,93,40
58.928513,59.1428,77,77,40
59.1428,59.357082,81,93,40
59.357082,59.44637,79,77,40
59.57137,59.660656,77,77,40
59.785656,59.87494,76,77,40
59.99994,60.397263,74,77,40
60.642796,60.857082,82,77,40
60.857082,61.07137,86,93,40
61.07137,61.160652,84,77,40
61.285652,61.37494,82,77,40
61.49994,61.589226,81,77,40
61.714226,62.111546,79,77,40
62.357082,62.571365,79,77,40
62.571365,62.785652,82,93,40
62.785652,62.87494,80,77,40
62.999935,63.089222,79,77,40
63.214222,63.30351,77,77,40
63.42851,63.629402,77,77,40
63.64279,63.843685,76,77,40
63.85708,64.05797,74,77,40
64.071365,64.272255,72,77,40
64.28565,64.48654,71,77,40
64.49994,64.70083,72,77,40
64.71422,64.915115,74,77,40
64.928505,65.1294,76,77,40
65.14279,65.34368,77,77,40
65.571365,65.67404,79,77,40
65.678505,65.78118,77,77,40
65.78565,65.88833,76,77,40
65.89279,65.99547,77,77,40
65.99993,66.20083,79,77,40
66.428505,66.53118,81,77,40
66.535645,66.63833,79,77,40
66.64279,66.74547,78,77,40
66.74993,66.852615,79,77,40
66.85708,67.49993,81,77,40
67.49993,67.70083,82,77,40
67.71422,67.88833,79,77,40
68.57136,71.866,60,69,40
71.99993,73.71421,62,69,40
73.71421,75.29457,61,69,40
75.4285,77.5401,60,69,40
83.57134,83.74545,77,93,40
83.57134,83.74545,74,93,40
83.999916,84.17403,76,93,40
83.999916,84.17403,72,93,40
84.42849,84.60259,79,93,40
84.42849,84.60259,76,93,40
84.857056,85.031166,77,93,40
84.857056,85.031166,74,93,40
86.57134,86.745445,74,77,40
86.999916,87.17402,74,77,40
87.42848,87.482056,74,77,40
87.482056,88.23652,82,77,40
88.28563,88.45973,75,77,40
88.714195,88.888306,75,77,40
89.14277,89.19634,75,77,40
89.19634,89.950806,84,77,40
89.99991,90.17402,77,77,40
90.42848,90.602585,77,77,40
90.857056,90.91062,77,77,40
90.91062,91.665085,86,77,40
91.714195,91.76777,76,77,40
91.76777,92.52223,84,77,40
92.571335,92.62491,74,77,40
92.62491,92.97312,83,77,40
92.99991,93.05348,73,77,40
93.05348,93.401695,82,77,40
93.428474,93.48205,72,77,40
93.48205,94.23651,81,77,40
94.49991,94.7008,74,77,40
94.71419,94.915085,76,79,40
94.928474,95.12937,77,81,40
95.14276,95.34366,78,83,40
95.35705,95.55794,79,86,40
95.571335,95.772224,81,88,40
95.78562,95.98651,82,90,40
95.9999,97.18294,77,93,40
97.285614,97.48651,81,81,40
97.4999,97.7008,79,79,40
97.71419,97.8883,77,77,40
98.14276,98.316864,81,93,40
98.57133,98.74544,82,93,40
98.9999,99.053474,83,93,40
99.053474,99.10704,84,93,40
99.10704,99.160614,83,93,40
99.160614,99.21419,84,93,40
99.21419,99.26776,83,93,40
99.26776,99.29901,84,93,40
99.32133,99.3749,81,93,40
99.3749,99.428474,83,93,40
99.428474,99.60258,84,93,40
99.85704,100.03115,85,93,40
100.285614,100.459724,86,93,40
101.14275,101.27669,75,69,40
101.285614,101.41954,74,69,40
101.42847,101.5624,72,69,40
101.57133,101.70525,70,69,40
101.71419,101.848114,69,69,40
101.85704,101.99097,67,69,40
101.9999,102.13383,66,69,40
102.14275,102.27668,63,69,40
102.285614,102.41954,62,69,40
102.42847,102.5624,60,69,40
102.57133,102.70525,58,69,40
102.71418,102.848114,57,69,40
102.85704,103.05793,58,69,40
103.07133,103.27222,62,69,40
103.285614,103.4865,67,69,40
103.49989,103.70079,70,69,40
103.71418,103.848114,70,69,40
103.85704,103.99097,69,69,40
103.99989,104.13383,67,69,40
104.14275,104.27668,65,69,40
104.28561,104.41954,63,69,40
104.42847,104.56239,62,69,40
104.57133,104.70525,60,69,40
104.71418,104.84811,63,69,40
104.85704,104.99097,69,69,40
104.99989,105.13383,72,69,40
105.14275,105.27668,72,69,40
105.28561,105.41954,72,69,40
105.42847,105.56239,72,69,40
105.57132,105.70525,70,69,40
105.71418,105.84811,69,69,40
105.85704,105.99097,67,69,40
105.99989,106.13382,65,69,40
106.14275,106.27668,63,69,40
106.28561,106.41953,62,69,40
106.42847,106.56239,63,69,40
106.57132,106.70525,65,69,40
106.71418,106.84811,67,69,40
106.85703,106.99097,66,69,40
106.99989,107.13382,67,69,40
107.14275,107.27668,64,69,40
107.28561,107.41953,65,69,40
107.42847,107.56239,67,69,40
107.57132,107.705246,69,69,40
107.71418,107.84811,68,69,40
107.85703,107.99097,69,69,40
107.99989,108.13382,65,69,40
108.142746,108.27668,64,69,40
108.28561,108.41953,65,69,40
108.42847,108.56239,67,69,40
108.57132,108.705246,65,69,40
108.71418,108.84811,67,69,40
108.85703,108.99096,69,69,40
108.99989,109.13382,72,69,40
109.142746,109.27668,69,69,40
109.28561,109.41953,65,69,40
109.42846,109.56239,69,69,40
109.57132,109.705246,65,69,40
109.71417,110.111496,62,69,40
111.642746,111.843636,57,69,40
111.85703,112.05792,60,69,40
112.07132,112.27221,57,69,40
112.2856,112.486496,60,69,40
112.499886,112.70078,57,69,40
112.71417,112.91506,58,69,40
112.92846,113.12935,64,69,40
113.142746,113.54006,65,69,40
113.142746,113.54006,57,69,40
114.857025,115.71417,69,69,40
114.857025,115.71417,65,69,40
115.71417,116.50435,67,69,40
115.71417,116.50435,62,69,40
116.57131,117.42845,65,69,40
116.57131,117.42845,60,69,40
117.42845,118.218636,64,69,40
117.42845,118.218636,58,69,40
118.2856,118.682915,65,69,40
118.2856,118.682915,57,69,40
119.99988,120.857025,69,69,40
119.99988,120.857025,65,69,40
120.857025,121.6472,67,69,40
120.857025,121.6472,62,69,40
121.714165,122.571304,65,69,40
121.714165,122.571304,60,69,40
122.571304,123.36148,64,69,40
122.571304,123.36148,58,69,40
123.42845,123.82577,65,69,40
123.42845,123.82577,57,69,40
130.28558,131.86594,69,69,40
131.99986,132.79004,70,69,40
132.85701,133.64719,72,69,40
133.71416,134.57129,74,69,40
134.57129,136.48647,75,69,40
136.49986,136.70076,74,64,40
136.71414,136.91504,75,63,40
136.92844,137.12933,72,62,40
137.14272,137.54004,74,61,40
149.99985,150.17395,77,93,40
150.42842,150.60252,77,93,40
150.857,150.91057,77,93,40
150.91057,151.66502,86,93,40
151.71413,151.7677,75,93,40
151.7677,152.52217,84,93,40
152.57127,152.62485,74,93,40
152.62485,153.37932,82,93,40
153.42842,153.62932,84,93,40
153.6427,153.8436,82,93,40
153.857,154.05788,81,93,40
154.07127,154.27217,79,93,40
154.28555,154.37485,77,93,40
154.49985,154.5668,79,93,40
154.57127,154.63824,77,93,40
154.6427,154.70967,76,93,40
154.71413,154.91502,77,93,40
154.92842,155.0177,79,93,40
155.1427,155.232,75,93,40
155.357,155.42395,77,93,40
155.42842,155.49538,75,93,40
155.49985,155.5668,74,93,40
155.57127,155.77217,75,93,40
155.78555,155.87485,77,93,40
155.99985,156.42842,75,93,40
156.42842,156.82573,74,93,40
156.85698,157.05788,72,93,40
157.07127,157.27217,74,93,40
157.28555,157.48645,75,93,40
157.49985,157.70073,72,93,40
157.71413,157.91502,77,93,40
157.92842,158.1293,74,93,40
158.1427,158.23198,70,93,40
158.35698,158.44627,70,93,40
160.28555,160.48645,74,93,40
160.49983,160.70073,75,93,40
160.71413,160.91502,77,93,40
160.9284,161.1293,74,93,40
161.1427,161.34358,79,93,40
161.35698,161.55788,75,93,40
161.57127,161.66055,72,93,40
161.78555,161.87483,72,93,40
163.71413,163.91501,76,93,40
163.9284,164.1293,78,93,40
164.1427,164.34358,79,93,40
164.35698,164.55788,76,93,40
164.57126,164.77216,81,93,40
164.78555,164.98643,78,93,40
164.99983,165.08913,74,93,40
165.21413,165.3034,74,93,40
167.14268,167.34358,81,93,40
167.35698,167.55786,82,93,40
167.57126,167.77216,84,93,40
167.78555,167.98643,81,93,40
167.99983,168.20073,86,93,40
168.21411,168.41501,82,93,40
168.4284,168.51768,79,93,40
168.64268,168.73198,79,93,40
170.57126,170.74536,74,93,40
170.99983,171.17393,74,93,40
171.4284,171.48196,74,93,40
171.48196,172.23643,82,93,40
172.28554,172.33911,72,93,40
172.33911,173.09358,81,93,40
173.14268,173.19626,70,93,40
173.19626,173.95071,79,93,40
177.42839,177.60251,72,93,40
177.85696,178.03107,72,93,40
178.28554,178.33911,72,93,40
178.33911,179.09357,81,93,40
179.14268,179.19624,70,93,40
179.19624,179.95071,79,93,40
179.99982,180.05339,69,93,40
180.05339,180.80786,77,93,40
187.49982,187.7141,75,69,40
187.7141,187.92839,79,85,40
187.92839,188.01767,77,69,40
188.14267,188.23195,75,69,40
188.35695,188.44624,74,69,40
188.57124,188.96857,72,69,40
189.2141,189.42838,80,69,40
189.42838,189.64267,84,85,40
189.64267,189.84357,82,69,40
189.85695,190.05785,80,69,40
190.07124,190.27213,79,69,40
190.28552,190.68285,77,69,40
190.92838,191.14267,77,69,40
191.14267,191.35695,80,85,40
191.35695,191.44624,78,69,40
191.57124,191.66052,77,69,40
191.78552,191.8748,75,69,40
191.9998,192.2007,75,69,40
192.2141,192.415,74,69,40
192.42838,192.62927,72,69,40
192.64267,192.84355,70,69,40
192.85695,193.05785,69,69,40
193.07123,193.27213,70,69,40
193.28552,193.48642,72,69,40
193.4998,193.7007,74,69,40
193.7141,193.91498,75,69,40
194.14267,194.24535,77,69,40
194.2498,194.35248,75,69,40
194.35695,194.45963,74,69,40
194.4641,194.56677,75,69,40
194.57123,194.77213,77,69,40
194.9998,195.10248,79,69,40
195.10695,195.20963,77,69,40
195.2141,195.31677,76,69,40
195.32123,195.4239,77,69,40
195.42838,196.07123,79,69,40
196.07123,196.27213,80,69,40
196.28552,196.68285,77,69,40
198.85695,202.15158,60,69,40
202.2855,205.58015,61,69,40
205.71408,206.1114,60,69,40
206.35693,206.57123,79,93,40
206.57123,206.7855,84,109,40
206.7855,206.87479,82,93,40
206.99979,207.08908,80,93,40
207.21408,207.30336,79,93,40
207.42836,207.62926,82,93,40
207.64265,207.84354,80,93,40
207.85693,208.05783,79,93,40
208.07123,208.27211,77,93,40
208.2855,208.4864,76,93,40
208.49979,208.70068,77,93,40
208.71408,208.91496,79,93,40
208.92836,209.12926,80,93,40
209.14265,209.53996,82,93,40
209.57121,209.96854,70,93,40
209.99979,210.42836,82,93,40
210.42836,210.82568,80,93,40
210.85693,212.96854,79,93,40
212.99979,213.39711,68,93,40
213.42836,213.85693,80,93,40
213.85693,214.25426,79,93,40
214.2855,216.39711,77,93,40
216.42836,216.82568,67,93,40
216.85693,217.28549,79,93,40
217.28549,217.68282,77,93,40
217.71407,217.80336,75,93,40
217.92836,218.01764,74,93,40
218.14264,218.23192,72,93,40
218.35692,218.44621,70,93,40
218.57121,218.96854,69,93,40
219.21407,219.42834,81,93,40
219.42834,219.64264,86,109,40
219.64264,219.73192,84,93,40
219.85692,219.94621,82,93,40
220.07121,220.16049,81,93,40
220.28549,220.68282,79,93,40
220.92834,221.14264,79,93,40
221.14264,221.35692,84,109,40
221.35692,221.44621,82,93,40
221.57121,221.66049,81,93,40
221.78549,221.87477,79,93,40
221.99977,222.3971,78,93,40
222.64264,222.85692,78,93,40
222.85692,223.05782,82,93,40
223.07121,223.16049,81,93,40
223.28549,223.37477,79,93,40
223.49977,223.58907,77,93,40
223.71407,223.80334,76,93,40
223.92834,224.01764,74,93,40
224.14264,224.23192,72,93,40
224.35692,224.4462,70,93,40
224.5712,224.96852,69,93,40
227.78549,227.98637,72,69,40
227.99977,228.08905,77,69,40
228.21405,228.30334,72,69,40
228.42834,228.51762,77,69,40
228.64262,228.73192,79,69,40
228.85692,228.9462,81,69,40
229.0712,229.13817,82,69,40
229.14262,229.2096,81,69,40
229.21405,229.28102,79,69,40
229.28549,229.48637,81,69,40
229.49977,229.58905,82,69,40
229.71405,229.80334,79,69,40
229.92834,230.01762,72,69,40
230.14262,230.23192,79,69,40
230.35692,230.4462,81,69,40
230.5712,230.66048,82,69,40
230.78548,230.85245,84,69,40
230.85692,230.92387,82,69,40
230.92834,230.9953,81,69,40
230.99977,231.20067,82,69,40
231.21405,231.30334,84,69,40
231.42834,231.82567,81,69,40
232.28548,232.4596,72,93,40
232.71405,232.88815,72,93,40
233.14262,233.1962,72,93,40
233.1962,233.95065,79,93,40
233.99977,234.17387,72,93,40
234.42833,234.60245,72,83,40
234.8569,234.91048,72,73,40
234.91048,235.27208,81,72,40
241.71405,243.2944,69,69,40
243.42833,244.2185,70,69,40
244.28548,245.07565,72,69,40
245.14261,245.99976,74,69,40
245.99976,247.91493,75,69,40
247.92833,248.12921,74,64,40
248.14261,248.3435,75,63,40
248.35689,248.55779,72,62,40
248.57118,248.9685,74,61,40
261.4283,261.60242,77,93,40
261.85687,262.03098,77,93,40
262.28546,262.33902,77,93,40
262.33902,263.09348,86,93,40
263.1426,263.19617,75,93,40
263.19617,263.95062,84,93,40
263.99973,264.0533,74,93,40
264.0533,264.80777,82,93,40
264.85687,265.05777,84,93,40
265.07117,265.27206,82,93,40
265.28546,265.48633,81,93,40
265.49973,265.70062,79,93,40
265.71402,265.8033,77,93,40
265.9283,265.99527,79,93,40
265.99973,266.0667,77,93,40
266.07117,266.13812,76,93,40
266.14258,266.34348,77,93,40
266.35687,266.44617,79,93,40
266.57117,266.66046,75,93,40
266.78546,266.85242,77,93,40
266.85687,266.92383,75,93,40
266.9283,266.99527,74,93,40
266.99973,267.20062,75,93,40
267.21402,267.3033,77,93,40
267.4283,267.85687,75,93,40
267.85687,268.25418,74,93,40
268.28543,268.48633,72,93,40
268.49973,268.70062,74,93,40
268.71402,268.91492,75,93,40
268.9283,269.12918,72,93,40
269.14258,269.34348,77,93,40
269.35687,269.55777,74,93,40
269.57117,269.66043,70,93,40
269.78543,269.87473,70,93,40
269.99973,270.20062,72,93,40
270.21402,270.41492,74,93,40
270.4283,270.62918,75,93,40
270.64258,270.84348,72,93,40
270.85687,271.05777,77,93,40
271.07117,271.27206,74,93,40
271.28543,271.37473,82,93,40
271.49973,271.58902,82,93,40
271.71402,271.9283,82,93,40
271.9283,272.12918,77,93,40
272.14258,272.23187,86,93,40
272.35687,272.44617,86,93,40
272.57117,273.62918,86,93,40
273.64258,273.84348,87,93,40
273.85687,274.05777,84,93,40
274.07117,274.27203,81,93,40
274.28543,274.49973,82,93,40
274.49973,274.70062,86,93,40
274.71402,274.80328,77,93,40
274.92828,275.01758,77,93,40
275.14258,275.35687,77,93,40
275.35687,275.55777,82,93,40
275.57117,275.66043,74,93,40
275.78543,275.87473,74,93,40
275.99973,277.05777,74,93,40
277.07114,277.27203,77,93,40
277.28543,277.48633,75,93,40
277.49973,277.70062,72,93,40
277.71402,278.11133,70,93,40
291.42828,296.4372,72,93,40
296.57114,296.96844,65,93,40
298.28543,298.3747,69,93,40
298.4997,298.589,70,93,40
298.714,298.80328,72,93,40
298.92828,299.01755,74,93,40
299.14255,299.5399,75,93,40
299.9997,300.089,81,69,40
300.214,300.30328,82,69,40
300.42828,300.51755,84,69,40
300.64255,300.73184,86,69,40
300.85684,301.25415,87,69,40
304.07114,304.2854,70,69,40
304.2854,304.4997,74,85,40
304.4997,304.589,72,69,40
304.714,304.80325,70,69,40
304.92825,305.01755,69,69,40
305.14255,305.5399,67,69,40
305.7854,305.9997,75,69,40
305.9997,306.214,79,85,40
306.214,306.30325,77,69,40
306.42825,306.51755,75,69,40
306.64255,306.73184,74,69,40
306.85684,307.25415,72,69,40
307.4997,307.714,72,69,40
307.714,307.92825,75,85,40
307.92825,308.01755,73,69,40
308.14255,308.23184,72,69,40
308.35684,308.4461,70,69,40
308.5711,308.772,70,69,40
308.7854,308.9863,69,69,40
308.9997,309.2006,67,69,40
309.214,309.41486,65,69,40
309.42825,309.62915,64,69,40
309.64255,309.84344,65,69,40
309.85684,310.05774,67,69,40
310.0711,310.272,69,69,40
310.2854,310.4863,70,69,40
310.714,310.81665,72,69,40
310.8211,310.9238,70,69,40
310.92825,311.03094,69,69,40
311.0354,311.1381,70,69,40
311.14255,311.34344,72,69,40
311.5711,311.6738,74,69,40
311.67825,311.78094,72,69,40
311.7854,311.8881,71,69,40
311.89255,311.9952,72,69,40
311.9997,312.64255,74,69,40
312.64255,312.84344,75,69,40
312.85684,313.25415,72,69,40
313.71396,317.0086,65,69,40
317.14255,318.8568,67,69,40
318.8568,320.43716,66,69,40
320.5711,322.6827,65,69,40
328.71396,328.88806,70,93,40
328.71396,328.88806,67,93,40
329.14252,329.31662,69,93,40
329.14252,329.31662,65,93,40
329.5711,329.7452,72,93,40
329.5711,329.7452,69,93,40
329.99966,330.17377,70,93,40
329.99966,330.17377,67,93,40
331.71396,331.88806,67,69,40
332.14252,332.31662,67,69,40
332.5711,332.62466,67,69,40
332.62466,333.3702,75,69,40
333.42825,333.60236,68,69,40
333.8568,334.0309,68,69,40
334.28537,334.33896,68,69,40
334.33896,335.08447,77,69,40
335.14252,335.31662,70,69,40
335.5711,335.7452,70,69,40
335.99966,336.05322,70,69,40
336.05322,336.79877,79,69,40
336.8568,336.91037,69,69,40
336.91037,337.6559,77,69,40
337.71396,337.76752,67,69,40
337.76752,338.1202,76,69,40
338.14252,338.19608,67,69,40
338.19608,338.54877,75,69,40
338.57108,338.62466,65,69,40
338.62466,339.3702,74,69,40
339.64252,339.8434,71,69,40
339.8568,340.0577,72,69,40
340.07108,340.27197,74,69,40
340.28537,340.48627,75,69,40
340.49966,340.70056,77,69,40
340.71396,340.91483,78,69,40
340.92822,341.12912,79,69,40
341.14252,342.32556,70,69,40
342.42822,342.62912,74,69,40
342.64252,342.8434,72,69,40
342.8568,343.0309,70,69,40
343.28537,343.45947,74,93,40
343.71393,343.88806,75,93,40
344.14252,344.19608,76,93,40
344.19608,344.24966,77,93,40
344.24966,344.30322,76,93,40
344.30322,344.3568,77,93,40
344.3568,344.41037,76,93,40
344.41037,344.44162,77,93,40
344.46393,344.51752,74,93,40
344.51752,344.57108,76,93,40
344.57108,344.74518,77,93,40
344.99966,345.17377,78,93,40
345.42822,345.60233,79,93,40
346.28537,346.4193,56,69,40
346.42822,346.56216,62,69,40
346.57108,346.70502,65,69,40
346.71393,346.84787,68,69,40
346.85678,346.99072,65,69,40
346.99966,347.13358,62,69,40
347.14252,347.27643,67,69,40
347.28537,347.41928,63,69,40
347.42822,347.56216,60,69,40
347.57108,347.70502,65,69,40
347.71393,347.84787,62,69,40
347.85678,347.99072,58,69,40
347.99966,348.13358,60,69,40
348.14252,348.27643,55,69,40
348.28537,348.41928,60,69,40
348.42822,348.56216,63,69,40
348.57108,348.70502,67,69,40
348.71393,348.84787,72,69,40
348.85678,348.99072,75,69,40
348.99966,349.13358,74,69,40
349.14252,349.27643,72,69,40
349.28537,349.41928,70,69,40
349.42822,349.56216,68,69,40
349.57108,349.70502,67,69,40
349.71393,349.84787,65,69,40
349.85678,349.99072,62,69,40
349.99966,350.13358,63,69,40
350.14252,350.27643,65,69,40
350.28537,350.41928,72,69,40
350.42822,350.56216,65,69,40
350.57108,350.70502,77,69,40
350.71393,350.84787,75,69,40
350.85678,350.99072,74,69,40
350.99963,351.13358,72,69,40
351.14252,351.27643,70,69,40
351.28537,351.41928,68,69,40
351.42822,351.56213,67,69,40
351.57108,351.70502,68,69,40
351.71393,351.84787,70,69,40
351.85678,351.99072,72,69,40
351.99963,352.13358,71,69,40
352.14252,352.27643,72,69,40
352.28537,352.41928,69,69,40
352.42822,352.56213,70,69,40
352.57108,352.70502,72,69,40
352.71393,352.84787,74,69,40
352.85678,352.99072,73,69,40
352.99963,353.13358,74,69,40
353.14252,353.27643,70,69,40
353.28537,353.41928,69,69,40
353.42822,353.56213,70,69,40
353.57108,353.70502,72,69,40
353.71393,353.84787,70,69,40
353.85678,353.99072,72,69,40
353.99963,354.13358,74,69,40
354.14252,354.27643,77,69,40
354.28537,354.41928,74,69,40
354.42822,354.56213,70,69,40
354.57108,354.70502,74,69,40
354.71393,354.84787,70,69,40
354.85678,355.25412,67,69,40
358.28537,359.86572,55,93,40
359.99963,361.71393,85,93,40
361.71393,362.11124,86,93,40
364.28534,364.45944,77,93,40
364.71393,364.88803,77,93,40
365.1425,365.19608,77,93,40
365.19608,365.9416,86,93,40
365.99963,366.0532,75,93,40
366.0532,366.79874,84,93,40
366.85678,366.91034,74,93,40
366.91034,367.26303,82,93,40
367.71393,367.88803,77,93,40
368.1425,368.3166,77,93,40
368.57104,368.62463,77,93,40
368.62463,369.37018,86,93,40
369.4282,369.48178,75,93,40
369.48178,370.2273,84,93,40
370.28534,370.33893,74,93,40
370.33893,370.6916,82,93,40
371.1425,371.3166,77,93,40
371.57104,371.74518,77,93,40
371.99963,372.0532,77,93,40
372.0532,372.79874,86,93,40
372.85678,372.91034,75,93,40
372.91034,373.65588,84,93,40
373.7139,373.7675,74,93,40
373.7675,373.83444,82,93,40
373.9282,373.99515,84,69,40
373.99963,374.0666,82,69,40
374.07104,374.13803,81,69,40
374.1425,374.23178,82,69,40
374.35678,374.44604,86,69,40
374.57104,374.66034,79,69,40
374.78534,374.8523,81,69,40
374.85678,374.92374,79,69,40
374.9282,374.99515,78,69,40
374.99963,375.0889,79,69,40
375.2139,375.3032,82,69,40
375.4282,375.5175,74,69,40
375.6425,375.70944,75,69,40
375.7139,375.78088,74,69,40
375.78534,375.8523,72,69,40
375.85678,375.94604,74,69,40
376.07104,376.16034,77,69,40
376.28534,376.37463,69,69,40
376.49963,376.5666,70,69,40
376.57104,376.63803,69,69,40
376.6425,376.70944,67,69,40
376.7139,376.8032,69,69,40
376.9282,377.0175,72,69,40
377.1425,377.23175,70,69,40
377.35675,377.44604,70,93,40
377.57104,377.66034,72,93,40
377.78534,377.87463,74,93,40
377.99963,378.0889,75,93,40
378.2139,378.28088,77,93,40
378.28534,378.3523,75,93,40
378.35675,378.42374,74,93,40
378.4282,378.6291,75,93,40
378.6425,378.73175,77,93,40
378.85675,379.2541,74,93,40
379.7139,380.57104,69,93,40
380.57104,380.66034,70,93,40
380.78534,380.87463,70,93,40
380.99963,381.0889,72,93,40
381.2139,381.3032,74,93,40
381.4282,381.5175,75,93,40
381.6425,381.70944,77,93,40
381.7139,381.78085,75,93,40
381.78534,381.8523,74,93,40
381.85675,382.05765,75,93,40
382.07104,382.16034,77,93,40
382.28534,382.68265,74,93,40
383.1425,383.9996,57,93,40
383.9996,384.0889,58,93,40
384.2139,384.3032,70,90,40
384.4282,384.5175,72,88,40
384.6425,384.73175,74,86,40
384.85675,385.64694,75,84,40
385.7139,386.5041,74,69,40
386.57104,387.3612,72,69,40
387.4282,388.21835,70,69,40
388.28534,388.8791,63,69,40
388.9282,389.1291,60,69,40
389.14246,389.5398,65,69,40
389.57104,389.96835,82,93,40
389.57104,389.96835,70,93,40
390.4282,390.8255,79,93,40
390.4282,390.8255,70,93,40
390.4282,390.8255,63,93,40
391.2853,391.68265,77,93,40
391.2853,391.68265,70,93,40
391.2853,391.68265,62,93,40
392.14246,392.5398,69,93,40
392.14246,392.5398,63,93,40
392.57104,392.96835,70,93,40
392.57104,392.96835,62,93,40
394.92816,395.14246,70,69,40
395.14246,395.35675,74,85,40
395.35675,395.44604,72,69,40
395.57104,395.6603,70,69,40
395.7853,395.8746,69,69,40
395.9996,396.3969,67,69,40
396.64246,396.85675,70,69,40
396.85675,397.07104,79,85,40
397.07104,397.1603,77,69,40
397.2853,397.3746,75,69,40
397.4996,397.5889,74,69,40
397.7139,398.1112,72,69,40
398.35675,398.57104,72,69,40
398.57104,398.7853,77,85,40
398.7853,398.8746,75,69,40
398.9996,399.0889,74,69,40
399.2139,399.30316,72,69,40
399.42816,399.8255,70,69,40
400.071,400.2853,65,69,40
400.2853,400.4996,70,85,40
400.4996,400.5889,74,69,40
400.7139,400.80316,77,69,40
400.92816,401.01746,74,69,40
401.14246,401.53976,70,69,40
401.7853,401.9996,70,69,40
401.9996,402.2139,74,85,40
402.2139,402.30316,72,69,40
402.42816,402.51746,70,69,40
402.64246,402.73175,68,69,40
402.85675,403.25406,67,69,40
403.4996,403.71387,70,69,40
403.71387,403.92816,78,85,40
403.92816,404.01746,77,69,40
404.14246,404.23175,75,69,40
404.35675,404.446,73,69,40
404.571,404.96835,72,69,40
405.21387,405.42816,72,69,40
405.42816,405.64246,77,85,40
405.64246,405.73175,75,69,40
405.85675,405.946,74,69,40
406.071,406.1603,72,69,40
406.2853,406.68262,70,69,40
406.92816,407.14246,65,93,40
407.14246,407.35675,70,109,40
407.35675,407.446,74,93,40
407.571,407.6603,77,93,40
407.7853,407.8746,77,93,40
407.9996,408.3969,74,93,40
408.64246,408.85672,77,93,40
408.85672,409.071,82,109,40
409.071,409.1603,86,93,40
409.2853,409.3746,89,93,40
409.4996,409.58887,89,93,40
409.71387,410.1112,86,93,40
410.571,410.96835,82,93,40
410.571,410.96835,70,93,40
410.571,410.96835,62,93,40
411.42816,412.21832,58,93,40
15.428556,16.285698,58,93,42
16.285698,17.075876,54,93,42
17.14284,17.999983,55,93,42
17.999983,18.79016,51,93,42
18.857124,19.285694,50,93,42
19.285694,19.683016,55,93,42
19.714266,20.142838,48,93,42
20.142838,20.540157,53,93,42
20.571407,21.361586,46,93,42
21.85712,22.285692,51,93,42
22.285692,22.683014,50,93,42
23.571405,23.999975,51,93,42
23.999975,24.397297,50,93,42
25.71426,27.428543,53,93,42
27.428543,27.825865,58,93,42
29.142828,30.857113,53,93,42
30.857113,31.254433,46,93,42
47.99995,51.82584,67,69,42
53.142803,53.23209,48,69,42
53.35709,53.446377,50,69,42
53.571377,53.66066,52,69,42
53.78566,53.874947,53,69,42
53.999947,54.397266,55,69,42
54.857086,54.946373,60,69,42
55.071373,55.16066,62,69,42
55.28566,55.374943,64,69,42
55.499943,55.58923,65,69,42
55.71423,56.11155,67,69,42
56.571373,56.968693,41,69,42
56.999943,57.397263,45,69,42
57.428513,57.825836,48,69,42
57.857086,58.254406,45,69,42
58.285656,58.682976,41,69,42
58.714226,59.11155,45,69,42
59.1428,59.54012,48,69,42
59.57137,59.96869,45,69,42
59.99994,60.397263,41,69,42
60.428513,60.825832,53,69,42
60.857082,61.254402,46,69,42
61.285652,61.682976,50,69,42
61.714226,62.111546,41,69,42
62.142796,62.540115,46,69,42
62.571365,62.968685,49,69,42
62.999935,63.39726,46,69,42
63.42851,63.82583,41,69,42
63.85708,64.2544,43,69,42
64.28565,64.68297,46,69,42
64.71422,65.11154,43,69,42
65.14279,65.540115,41,69,42
65.99993,66.397255,59,69,42
66.85708,68.04011,60,69,42
68.57136,71.866,57,69,42
71.99993,77.00885,58,69,42
77.14278,77.5401,57,69,42
83.57134,83.968666,43,93,42
83.999916,84.39724,48,93,42
84.42849,84.825806,45,93,42
84.857056,85.031166,46,93,42
98.14276,98.316864,51,93,42
98.57133,98.74544,50,93,42
98.9999,99.17401,49,93,42
99.428474,99.60258,48,93,42
99.85704,100.03115,45,93,42
100.285614,100.459724,46,93,42
101.14275,101.93293,60,69,42
101.9999,102.39722,57,69,42
102.42847,102.82579,54,69,42
102.85704,103.254364,55,69,42
103.285614,103.71418,62,69,42
103.71418,104.96864,63,69,42
104.99989,105.42847,64,69,42
105.42847,106.21864,65,69,42
106.71418,107.1115,46,69,42
107.57132,107.96864,48,69,42
107.99989,108.39722,38,69,42
108.42847,108.82578,40,69,42
108.85703,109.25436,41,69,42
109.28561,109.68292,38,69,42
109.71417,110.111496,46,69,42
111.42846,111.60257,48,69,42
111.85703,112.031136,48,69,42
112.2856,112.45971,48,69,42
112.71417,112.88828,48,69,42
113.142746,113.54006,53,69,42
114.857025,115.64721,53,69,42
115.71417,116.50435,46,69,42
116.57131,118.151665,48,69,42
118.2856,118.682915,41,69,42
119.99988,120.790054,53,69,42
120.857025,121.6472,46,69,42
121.714165,122.50434,48,69,42
122.571304,123.36148,36,69,42
123.42845,123.82577,41,69,42
130.28558,135.29451,65,69,42
135.42844,136.21861,67,69,42
136.28558,137.07576,69,65,42
137.14272,137.54004,70,61,42
150.857,151.71413,58,93,42
151.71413,152.50432,54,93,42
152.57127,153.42842,55,93,42
153.42842,154.2186,51,93,42
154.28555,154.71413,50,93,42
154.71413,155.11145,55,93,42
155.1427,155.57127,48,93,42
155.57127,155.9686,53,93,42
155.99985,156.79002,46,93,42
157.28555,157.71413,63,93,42
157.71413,158.11145,62,93,42
160.71413,161.1427,65,93,42
161.1427,161.54002,63,93,42
164.1427,164.57126,67,93,42
164.57126,164.96858,66,93,42
168.85698,169.05786,45,93,42
169.07126,169.27216,46,93,42
169.28554,169.48643,48,93,42
169.49983,169.70073,45,93,42
169.71411,169.91501,50,93,42
169.9284,170.12929,46,93,42
170.14268,170.23198,43,93,42
170.35698,170.44626,43,93,42
173.99983,174.17393,55,93,42
174.42839,174.60251,55,93,42
174.85696,174.91054,55,93,42
174.91054,175.66501,63,93,42
175.71411,175.76768,53,93,42
175.76768,176.52214,62,93,42
176.57126,176.62482,51,93,42
176.62482,177.37929,60,93,42
180.85696,181.03107,53,93,42
181.28554,181.45964,53,93,42
181.71411,181.76767,53,93,42
181.76767,182.52214,62,93,42
182.57124,182.62482,51,93,42
182.62482,183.37929,60,93,42
183.42839,183.48196,50,93,42
183.48196,184.23642,58,93,42
185.14267,185.54,39,69,42
185.57124,185.96857,43,69,42
185.99982,186.39714,46,69,42
186.42839,186.8257,43,69,42
186.85695,187.25427,39,69,42
187.28552,187.68285,43,69,42
187.7141,188.11142,46,69,42
188.14267,188.54,43,69,42
188.57124,188.96857,39,69,42
188.99982,189.39713,51,69,42
189.42838,189.8257,44,69,42
189.85695,190.25427,48,69,42
190.28552,190.68285,39,69,42
190.7141,191.11142,44,69,42
191.14267,191.54,47,69,42
191.57124,191.96855,44,69,42
191.9998,192.39713,39,69,42
192.42838,192.8257,41,69,42
192.85695,193.25427,44,69,42
193.28552,193.68285,41,69,42
193.7141,194.11142,39,69,42
194.57123,194.96855,57,69,42
195.42838,196.28552,58,69,42
196.28552,196.68285,59,69,42
198.85695,202.15158,56,69,42
202.2855,207.29443,58,69,42
207.42836,207.82568,56,69,42
209.99979,211.25426,62,93,42
211.2855,211.68283,51,93,42
211.71408,212.14264,63,93,42
212.14264,212.53996,62,93,42
212.57121,214.68282,60,93,42
214.71407,215.11139,50,93,42
215.14264,215.57121,62,93,42
215.57121,215.96854,60,93,42
215.99979,217.71407,59,93,42
217.71407,218.11139,60,93,42
218.35692,218.57121,60,93,42
218.57121,218.78549,65,109,42
218.78549,218.87479,63,93,42
218.99979,219.08907,62,93,42
219.21407,219.30334,60,93,42
219.42834,219.82567,58,93,42
220.07121,220.28549,58,93,42
220.28549,220.49979,63,109,42
220.49979,220.58907,62,93,42
220.71407,220.80334,60,93,42
220.92834,221.01764,58,93,42
221.14264,221.53996,57,93,42
221.78549,221.99977,57,93,42
221.99977,222.21407,62,109,42
222.21407,222.30334,60,93,42
222.42834,222.51764,58,93,42
222.64264,222.73192,57,93,42
222.85692,222.94621,55,93,42
223.07121,223.16049,53,93,42
223.28549,223.37477,52,93,42
223.49977,223.58907,50,93,42
223.71407,223.80334,48,93,42
223.92834,224.01764,46,93,42
224.14264,224.23192,45,93,42
224.35692,224.4462,43,93,42
224.5712,224.96852,41,93,42
225.42834,225.60245,48,93,42
225.85692,226.03102,48,93,42
226.28549,226.33907,48,93,42
226.33907,227.09352,55,93,42
227.14262,227.31674,48,93,42
227.5712,227.74532,48,93,42
227.99977,228.05334,48,93,42
228.05334,228.41495,57,93,42
231.42834,233.0087,41,93,42
233.14262,234.72298,36,93,42
234.8569,235.25423,41,69,42
241.71405,246.72296,65,69,42
246.8569,247.64708,67,69,42
247.71404,248.50421,69,65,42
248.57118,248.9685,70,61,42
262.28546,263.1426,58,93,42
263.1426,263.93277,54,93,42
263.99973,264.85687,55,93,42
264.85687,265.64706,51,93,42
265.71402,266.14258,50,93,42
266.14258,266.53992,55,93,42
266.57117,266.99973,48,93,42
266.99973,267.39706,53,93,42
267.4283,268.21848,46,93,42
268.71402,269.14258,51,93,42
269.14258,269.53992,50,93,42
270.4283,270.85687,51,93,42
270.85687,271.25418,50,93,42
272.57117,274.28543,53,93,42
274.28543,274.68277,58,93,42
275.99973,277.71402,53,93,42
277.71402,278.11133,46,93,42
294.85684,296.57114,48,93,42
293.14258,296.96844,60,93,42
298.28543,298.3747,53,93,42
298.4997,298.589,55,93,42
298.714,298.80328,57,93,42
298.92828,299.01755,58,93,42
299.14255,299.5399,60,93,42
299.9997,300.089,65,69,42
300.214,300.30328,67,69,42
300.42828,300.51755,69,69,42
300.64255,300.73184,70,69,42
300.85684,301.25415,72,69,42
301.714,302.1113,46,69,42
302.14255,302.5399,50,69,42
302.57114,302.96844,53,69,42
302.9997,303.397,50,69,42
303.42825,303.8256,46,69,42
303.85684,304.25415,50,69,42
304.2854,304.68274,53,69,42
304.714,305.1113,50,69,42
305.14255,305.5399,46,69,42
305.57114,305.96844,55,69,42
305.9997,306.397,51,69,42
306.42825,306.8256,55,69,42
306.85684,307.25415,46,69,42
307.2854,307.68274,51,69,42
307.714,308.1113,54,69,42
308.14255,308.53986,51,69,42
308.5711,308.96844,46,69,42
308.9997,309.397,48,69,42
309.42825,309.8256,51,69,42
309.85684,310.25415,48,69,42
310.2854,310.68274,46,69,42
311.14255,311.53986,64,69,42
311.9997,313.1827,65,69,42
313.71396,317.0086,62,69,42
317.14255,322.15146,63,69,42
322.2854,322.6827,62,69,42
328.71396,328.88806,36,93,42
329.14252,329.31662,41,93,42
329.5711,329.7452,38,93,42
329.99966,330.17377,39,93,42
343.28537,343.45947,44,93,42
343.71393,343.88806,43,93,42
344.14252,344.31662,42,93,42
344.57108,344.74518,41,93,42
344.99966,345.17377,38,93,42
345.42822,345.60233,39,93,42
346.28537,347.07553,59,69,42
347.14252,347.53983,60,69,42
347.57108,347.9684,62,69,42
347.99966,348.39697,60,69,42
348.42822,348.82553,55,69,42
348.85678,350.11127,56,69,42
350.14252,350.57108,57,69,42
350.57108,351.36127,58,69,42
351.85678,352.25412,39,69,42
352.71393,353.11127,41,69,42
353.14252,353.53983,43,69,42
353.57108,353.96838,45,69,42
353.99963,354.39697,46,69,42
354.42822,354.82553,43,69,42
354.85678,355.25412,39,69,42
358.28537,359.86572,40,93,42
359.99963,361.71393,64,93,42
361.71393,362.11124,65,93,42
365.99963,366.17374,53,93,42
366.4282,366.60233,53,93,42
366.85678,366.91034,53,93,42
366.91034,367.65588,62,93,42
367.71393,367.7675,51,93,42
367.7675,368.51303,60,93,42
368.57104,368.62463,50,93,42
368.62463,368.9773,58,93,42
369.4282,369.6023,53,93,42
369.85678,370.03088,53,93,42
370.28534,370.33893,53,93,42
370.33893,371.08444,62,93,42
371.1425,371.19604,51,93,42
371.19604,371.9416,60,93,42
371.99963,372.0532,50,93,42
372.0532,372.40588,58,93,42
379.07104,379.16034,58,93,42
379.28534,379.37463,60,93,42
379.49963,379.5889,62,93,42
379.7139,379.8032,63,93,42
379.9282,379.99515,65,93,42
379.99963,380.0666,63,93,42
380.07104,380.138,62,93,42
380.1425,380.34338,63,93,42
380.35675,380.44604,65,93,42
380.57104,380.96838,62,93,42
381.4282,382.28534,57,93,42
382.28534,382.3746,58,93,42
382.4996,382.5889,58,93,42
382.7139,382.8032,60,93,42
382.9282,383.0175,62,93,42
383.1425,383.23175,63,93,42
383.35675,383.42374,65,93,42
383.4282,383.49515,63,93,42
383.4996,383.5666,62,93,42
383.57104,383.77194,63,93,42
383.78534,383.8746,65,93,42
389.14246,389.93265,62,93,42
389.9996,390.7898,63,93,42
390.85675,392.4371,65,93,42
392.57104,392.96835,58,93,42
395.7853,395.9996,53,69,42
395.9996,396.2139,58,85,42
396.2139,396.30316,56,69,42
396.42816,396.51746,55,69,42
396.64246,396.73175,53,69,42
396.85675,397.25406,51,69,42
397.4996,397.7139,58,69,42
397.7139,397.92816,63,85,42
397.92816,398.01746,62,69,42
398.14246,398.23175,60,69,42
398.35675,398.44604,58,69,42
398.57104,398.96835,57,69,42
399.2139,399.42816,53,69,42
399.42816,399.64246,58,85,42
399.64246,399.84335,62,69,42
399.85675,400.05765,65,69,42
400.071,400.2719,62,69,42
400.2853,400.68265,58,69,42
400.92816,401.14246,41,69,42
401.14246,401.35675,46,85,42
401.35675,401.446,50,69,42
401.571,401.6603,53,69,42
401.7853,401.8746,50,69,42
401.9996,402.3969,46,69,42
402.64246,402.85675,53,69,42
402.85675,403.071,58,85,42
403.071,403.1603,56,69,42
403.2853,403.3746,55,69,42
403.4996,403.58887,53,69,42
403.71387,404.1112,51,69,42
404.35675,404.571,58,69,42
404.571,404.7853,63,85,42
404.7853,404.8746,62,69,42
404.9996,405.08887,60,69,42
405.21387,405.30316,58,69,42
405.42816,405.8255,57,69,42
406.071,406.2853,41,93,42
406.2853,406.4996,46,109,42
406.4996,406.58887,50,93,42
406.71387,406.80316,53,93,42
406.92816,407.01746,53,93,42
407.14246,407.53976,50,93,42
407.7853,407.9996,53,93,42
407.9996,408.21387,58,109,42
408.21387,408.30316,62,93,42
408.42816,408.51746,65,93,42
408.64246,408.73172,65,93,42
408.85672,409.25406,62,93,42
409.4996,409.70047,41,93,42
409.71387,410.1112,46,93,42
410.571,410.96835,58,93,42
411.42816,412.21832,46,93,42
0.857142,1.0312489,77,69,0
1.285713,1.4598199,77,69,0
1.714284,1.7678554,77,69,0
1.7678554,2.5223188,86,69,0
2.571426,2.6249974,75,69,0
2.6249974,3.3794608,84,69,0
3.428568,3.4821393,74,69,0
3.4821393,4.236603,82,69,0
4.28571,4.486603,84,69,0
4.4999957,4.700888,82,69,0
4.714281,4.9151735,81,69,0
4.9285665,5.1294594,79,69,0
5.142852,5.2321377,77,69,0
5.3571377,5.424102,79,69,0
5.428566,5.49553,77,69,0
5.4999943,5.566959,76,69,0
5.571423,5.7723155,77,69,0
5.7857084,5.8749943,79,69,0
5.999994,6.0892797,75,69,0
6.2142797,6.281244,77,69,0
6.285708,6.352672,75,69,0
6.3571367,6.424101,74,69,0
6.428565,6.6294575,75,69,0
6.6428504,6.7321362,77,69,0
6.857136,7.285707,75,69,0
7.285707,7.683028,74,69,0
7.714278,7.9151707,72,69,0
7.9285636,8.1294565,74,69,0
8.142849,8.343741,75,69,0
8.357135,8.558027,72,69,0
8.57142,8.772313,77,69,0
8.785706,8.986598,74,69,0
8.999991,9.089276,70,69,0
9.214276,9.303562,70,69,0
9.428562,9.629455,72,69,0
9.642847,9.84374,74,69,0
9.857133,10.058025,75,69,0
10.071419,10.272311,72,69,0
10.285704,10.486597,77,69,0
10.4999895,10.700882,74,69,0
10.714275,10.80356,82,69,0
10.92856,11.017846,82,69,0
11.142846,11.357132,82,69,0
11.357132,11.558024,77,69,0
11.571417,11.660703,86,69,0
11.785703,11.874989,86,69,0
11.999988,12.200881,86,69,0
12.214273,12.415166,84,69,0
12.428559,12.629452,82,69,0
12.642844,12.843738,81,69,0
12.85713,12.910702,79,69,0
12.910702,12.9642725,81,69,0
12.9642725,13.0580225,79,69,0
13.071416,13.272308,77,69,0
13.285701,13.486593,79,69,0
13.499987,13.700879,81,69,0
13.714272,14.111593,79,69,0
14.142843,14.343736,77,69,0
14.357128,14.558022,76,72,0
14.571414,14.624986,75,75,0
14.624986,14.678556,77,75,0
14.678556,14.772306,75,75,0
14.7857,14.986592,74,79,0
14.999985,15.200877,75,82,0
15.214271,15.415163,77,86,0
15.428556,15.629449,74,89,0
15.642841,15.843734,77,93,0
15.857127,16.05802,74,93,0
16.071413,16.272305,70,93,0
16.285698,16.486591,69,93,0
16.499983,16.700876,75,93,0
16.71427,16.915161,72,93,0
16.928555,17.129448,69,93,0
17.14284,17.343733,67,93,0
17.357126,17.558018,74,93,0
17.571411,17.772305,70,93,0
17.785696,17.98659,67,93,0
17.999983,18.200874,58,93,0
18.214268,18.41516,67,93,0
18.428553,18.629446,60,93,0
18.64284,18.84373,69,93,0
18.857124,19.058016,70,93,0
19.07141,19.272303,62,93,0
19.285694,19.486588,70,93,0
19.49998,19.700872,62,93,0
19.714266,19.91516,70,93,0
19.92855,20.129444,60,93,0
20.142838,20.343729,69,93,0
20.357122,20.558016,60,93,0
20.571407,20.999979,72,93,0
20.571407,20.999979,69,93,0
20.999979,21.3973,70,93,0
21.85712,22.285692,69,93,0
21.85712,22.285692,60,93,0
22.285692,22.683014,70,93,0
21.85712,22.683014,65,93,0
22.285692,22.683014,62,93,0
23.571405,23.999975,69,93,0
23.571405,23.999975,60,93,0
23.999975,24.397297,70,93,0
23.571405,24.397297,65,93,0
23.999975,24.397297,62,93,0
25.928545,26.129438,58,93,0
26.142832,26.343723,62,93,0
26.357117,26.55801,65,93,0
26.571402,26.772295,70,93,0
26.785688,26.98658,69,93,0
26.999973,27.200865,72,93,0
27.214258,27.415152,75,93,0
27.428543,27.825865,74,93,0
29.357113,29.558006,70,93,0
29.5714,29.772291,65,93,0
29.785685,29.986578,62,93,0
29.99997,30.200863,58,93,0
30.214256,30.415148,62,93,0
30.428541,30.629435,60,93,0
30.642826,30.84372,57,93,0
30.857113,31.254433,58,93,0
31.714254,31.915146,74,69,0
31.92854,32.129433,86,69,0
32.142826,32.34372,84,69,0
32.35711,32.558002,82,69,0
32.571396,32.77229,81,69,0
32.785683,32.986572,79,69,0
32.999966,33.089252,79,69,0
33.214252,33.30354,79,69,0
33.42854,33.62943,79,69,0
33.642822,33.696396,81,69,0
33.696396,33.749966,79,69,0
33.749966,33.80354,78,69,0
33.80354,33.85711,79,69,0
33.85711,34.058002,81,69,0
34.071396,34.272285,82,69,0
34.28568,34.486572,83,69,0
34.499966,34.70086,84,69,0
34.714252,34.803535,84,69,0
34.928535,35.017822,84,69,0
35.142822,35.343716,84,69,0
35.35711,35.459785,86,69,0
35.46425,35.56693,84,69,0
35.571392,35.772285,82,69,0
35.78568,35.874966,81,69,0
35.999966,36.21425,81,69,0
36.21425,36.415142,79,69,0
36.642822,36.732105,79,69,0
36.857105,37.071392,78,69,0
37.071392,37.272285,79,69,0
37.49996,37.58925,79,69,0
37.71425,38.14282,79,69,0
38.14282,38.73657,84,127,0
38.785675,38.888355,86,69,0
38.89282,38.995495,84,69,0
38.99996,39.200855,82,69,0
39.214245,39.30353,81,69,0
39.42853,39.64282,81,69,0
39.64282,39.84371,79,69,0
40.07139,40.160675,79,69,0
40.285675,40.499958,78,69,0
40.499958,40.70085,79,69,0
40.92853,41.017815,79,69,0
41.142815,41.343708,79,69,0
41.3571,41.41067,81,69,0
41.41067,41.464245,79,69,0
41.464245,41.517815,78,69,0
41.517815,41.57139,79,69,0
41.57139,42.16514,84,127,0
42.214245,42.31692,83,69,0
42.321384,42.424065,84,69,0
42.428528,42.531208,86,69,0
42.53567,42.63835,84,69,0
42.642815,42.745495,82,69,0
42.749958,42.852634,81,69,0
42.8571,43.071384,81,69,0
43.071384,43.272278,79,69,0
43.499958,43.58924,79,69,0
43.71424,43.928528,78,69,0
43.928528,44.12942,79,69,0
44.357098,44.446384,79,69,0
44.571384,44.70531,79,69,0
44.71424,44.84817,76,69,0
44.857098,44.991028,84,69,0
44.999954,45.133884,79,69,0
45.14281,45.27674,88,69,0
45.285667,45.419598,84,69,0
45.428528,45.562454,89,69,0
45.571384,45.70531,88,69,0
45.71424,45.848167,86,69,0
45.857098,45.991024,84,69,0
45.999954,46.13388,86,69,0
46.14281,46.27674,83,69,0
46.285667,46.419598,84,69,0
46.428524,46.562454,88,69,0
46.57138,46.70531,79,69,0
46.714237,46.848167,84,69,0
46.857098,46.991024,76,69,0
46.999954,47.13388,79,69,0
47.14281,47.276737,77,69,0
47.285667,47.419594,76,69,0
47.428524,47.562454,74,69,0
47.57138,47.70531,72,69,0
47.714237,47.848167,74,69,0
47.857094,47.991024,71,69,0
47.99995,48.13388,72,69,0
48.14281,48.276737,67,69,0
48.285667,48.419594,76,69,0
48.428524,48.56245,72,69,0
48.57138,48.705307,79,69,0
48.714237,48.848164,76,69,0
48.857094,48.991024,77,69,0
48.99995,49.13388,76,69,0
49.142807,49.276737,74,69,0
49.285664,49.419594,72,69,0
49.42852,49.56245,74,69,0
49.57138,49.705307,71,69,0
49.714237,49.848164,72,69,0
49.857094,49.99102,76,69,0
49.99995,50.133877,67,69,0
50.142807,50.276737,72,69,0
50.285664,50.419594,64,69,0
50.42852,50.56245,67,69,0
50.571377,50.705307,65,69,0
50.714233,50.848164,64,69,0
50.857094,50.99102,62,69,0
50.99995,51.133877,60,69,0
51.142807,51.276733,62,69,0
51.285664,51.41959,59,69,0
51.42852,51.531197,60,69,0
51.535664,51.63834,62,69,0
51.642807,51.745483,60,69,0
51.749947,51.852627,59,69,0
51.85709,51.95977,60,69,0
51.964233,52.066914,64,69,0
52.071377,52.174053,62,69,0
52.17852,52.281197,65,69,0
52.285664,52.38834,64,69,0
52.392803,52.495483,67,69,0
52.499947,52.602627,65,69,0
52.60709,52.70977,69,69,0
52.714233,52.81691,67,69,0
52.821377,52.924053,70,69,0
52.92852,53.031197,69,69,0
53.03566,53.13834,72,69,0
53.142803,53.540127,70,69,0
53.999947,54.102623,76,69,0
54.10709,54.209766,79,69,0
54.214233,54.31691,77,69,0
54.321373,54.424053,81,69,0
54.428516,54.531197,79,69,0
54.53566,54.63834,82,69,0
54.642803,54.74548,81,69,0
54.749947,54.852623,84,69,0
54.857086,55.25441,82,69,0
56.571373,56.772266,57,69,0
56.785656,56.98655,65,69,0
56.999943,57.200836,60,69,0
57.21423,57.415123,65,69,0
57.428513,57.629406,57,69,0
57.6428,57.843693,65,69,0
57.857086,58.057976,60,69,0
58.07137,58.272263,65,69,0
58.285656,58.48655,57,69,0
58.499943,58.700832,65,69,0
58.714226,58.91512,60,69,0
58.928513,59.129406,65,69,0
59.1428,59.34369,57,69,0
59.357082,59.557976,65,69,0
59.57137,59.772263,60,69,0
59.785656,59.986546,65,69,0
59.99994,60.200832,58,69,0
60.214226,60.41512,65,69,0
60.428513,60.629402,62,69,0
60.642796,60.84369,65,69,0
60.857082,61.057976,62,69,0
61.07137,61.27226,65,69,0
61.285652,61.486546,70,69,0
61.49994,61.700832,65,69,0
61.714226,61.915115,58,69,0
61.92851,62.129402,65,69,0
62.142796,62.34369,61,69,0
62.357082,62.557972,65,69,0
62.571365,62.77226,58,69,0
62.785652,62.986546,65,69,0
62.999935,63.20083,61,69,0
63.214222,63.415115,65,69,0
63.42851,63.629402,58,69,0
63.64279,63.843685,67,69,0
63.85708,64.05797,60,69,0
64.071365,64.272255,67,69,0
64.28565,64.48654,64,69,0
64.49994,64.70083,67,69,0
64.71422,64.915115,70,69,0
64.928505,65.1294,67,69,0
65.14279,65.540115,69,69,0
65.99993,66.397255,67,69,0
65.99993,66.397255,65,69,0
65.99993,66.397255,62,69,0
66.85708,67.71422,69,69,0
66.85708,67.71422,65,69,0
67.71422,68.11154,67,69,0
67.71422,68.11154,64,69,0
70.9285,71.142784,77,77,0
71.142784,71.35707,81,93,0
71.35707,71.44636,79,77,0
71.57136,71.660645,77,77,0
71.785645,71.87493,76,77,0
71.99993,72.39725,74,77,0
72.642784,72.85707,82,77,0
72.85707,73.07136,86,93,0
73.07136,73.160645,84,77,0
73.285645,73.37492,82,77,0
73.49992,73.58921,81,77,0
73.71421,74.111534,79,77,0
74.35707,74.57136,79,77,0
74.57136,74.78564,82,93,0
74.78564,74.87492,80,77,0
74.99992,75.08921,79,77,0
75.21421,75.3035,77,77,0
75.4285,75.62939,77,77,0
75.642784,75.84367,76,77,0
75.85706,76.05796,74,77,0
76.07135,76.27225,72,77,0
76.28564,76.486534,71,77,0
76.49992,76.70081,72,77,0
76.71421,76.9151,74,77,0
76.9285,77.12939,76,77,0
77.14278,77.44189,77,77,0
77.46421,77.56689,77,77,0
77.57135,77.67403,79,77,0
77.6785,77.78117,77,77,0
77.78564,77.88831,76,77,0
77.89278,77.99546,77,77,0
77.99992,78.29903,79,77,0
78.32135,78.42403,79,77,0
78.42849,78.53117,81,77,0
78.53564,78.63831,79,77,0
78.64278,78.74546,78,77,0
78.74992,78.8526,79,77,0
78.85706,79.25439,81,77,0
79.28564,79.87939,82,127,0
79.92849,80.03117,81,69,0
80.03564,80.13831,82,69,0
80.14278,80.24545,84,69,0
80.249916,80.3526,82,69,0
80.35706,80.45974,81,69,0
80.4642,80.56689,79,69,0
80.57135,80.67403,79,69,0
80.67849,80.781166,77,69,0
80.78564,80.88831,76,69,0
80.89278,80.99545,77,69,0
80.999916,81.1026,76,69,0
81.10706,81.20974,77,69,0
81.2142,81.31688,76,69,0
81.32135,81.42403,77,69,0
81.42849,81.531166,81,69,0
81.53563,81.63831,79,69,0
81.64278,81.74545,78,69,0
81.749916,81.8526,79,69,0
81.85706,81.95974,78,69,0
81.9642,82.06688,79,69,0
82.07135,82.17403,78,69,0
82.17849,82.281166,79,69,0
82.28563,82.68295,81,69,0
82.7142,83.50438,82,127,0
82.7142,83.50438,70,127,0
83.57134,83.74545,83,93,0
83.57134,83.74545,71,93,0
83.999916,84.17403,84,93,0
83.999916,84.17403,72,93,0
84.42849,84.60259,85,93,0
84.42849,84.60259,73,93,0
84.857056,85.031166,86,93,0
84.857056,85.031166,74,93,0
85.857056,85.99098,60,69,0
85.999916,86.13384,63,69,0
86.14277,86.2767,66,69,0
86.28563,86.419556,63,69,0
86.42848,86.562416,60,69,0
86.57134,86.70527,66,69,0
86.714195,86.84813,62,69,0
86.857056,86.99098,58,69,0
86.999916,87.13384,66,69,0
87.14277,87.276695,60,69,0
87.28563,87.419556,57,69,0
87.57134,87.70527,55,69,0
87.714195,87.84813,58,69,0
87.857056,87.99098,62,69,0
87.99991,88.13384,67,69,0
88.14277,88.276695,69,69,0
88.28563,88.419556,70,69,0
88.42848,88.56241,69,69,0
88.57134,88.70527,67,69,0
88.714195,88.84812,65,69,0
88.857056,88.99098,63,69,0
88.99991,89.13384,62,69,0
89.14277,89.276695,60,69,0
89.28562,89.419556,64,69,0
89.42848,89.56241,65,69,0
89.57134,89.70527,67,69,0
89.714195,89.84812,69,69,0
89.857056,89.99098,70,69,0
89.99991,90.133835,72,69,0
90.14277,90.276695,70,69,0
90.28562,90.419556,69,69,0
90.42848,90.56241,67,69,0
90.571335,90.70527,65,69,0
90.714195,90.84812,63,69,0
90.99991,91.133835,62,69,0
91.14277,91.276695,65,69,0
91.28562,91.41955,70,69,0
91.42848,91.56241,74,69,0
91.571335,91.70527,62,69,0
91.85705,91.99098,64,69,0
91.99991,92.133835,67,69,0
92.14276,92.276695,72,69,0
92.28562,92.41955,76,69,0
92.42848,92.56241,64,69,0
92.714195,92.85705,65,69,0
92.85705,92.99098,68,69,0
93.14276,93.28562,67,69,0
93.28562,93.41955,73,69,0
93.571335,93.714195,69,69,0
93.714195,93.84812,72,69,0
93.99991,94.14276,69,69,0
94.14276,94.276695,77,69,0
94.28562,94.68294,67,69,0
94.28562,94.68294,62,69,0
96.428474,96.8258,65,69,0
96.85705,97.254364,65,69,0
97.285614,97.68294,65,69,0
97.71419,97.848114,57,69,0
97.85705,97.990974,60,69,0
97.9999,98.13383,65,69,0
98.14276,98.27669,60,93,0
98.285614,98.41955,65,93,0
98.428474,98.5624,69,93,0
98.57133,98.70526,62,93,0
98.71419,98.848114,65,93,0
98.85704,98.990974,70,93,0
98.9999,99.13383,65,93,0
99.14276,99.27669,67,93,0
99.285614,99.41954,71,93,0
99.428474,99.5624,64,93,0
99.57133,99.70526,67,93,0
99.71419,99.848114,72,93,0
99.85704,99.990974,64,93,0
99.9999,100.13383,67,93,0
100.14275,100.27669,73,93,0
100.285614,100.459724,74,93,0
100.285614,100.459724,65,93,0
100.285614,100.459724,62,93,0
101.9999,102.39722,74,77,0
102.42847,102.82579,74,77,0
102.85704,102.910614,74,77,0
102.910614,103.66508,82,77,0
103.71418,103.88829,75,77,0
104.14275,104.31686,75,77,0
104.57133,104.62489,75,77,0
104.62489,105.37936,84,77,0
105.42847,105.60257,77,77,0
105.85704,106.03114,77,77,0
106.28561,106.33918,77,77,0
106.33918,107.09364,86,77,0
107.14275,107.19632,76,77,0
107.19632,107.95078,84,77,0
107.99989,108.05347,74,77,0
108.05347,108.40168,83,77,0
108.42847,108.48203,73,77,0
108.48203,108.830246,82,77,0
108.85703,108.91061,72,77,0
108.91061,109.66507,81,77,0
109.85703,109.99096,74,77,0
109.99989,110.13382,76,77,0
110.142746,110.27667,77,77,0
110.28561,110.41953,78,77,0
110.42846,110.56239,79,77,0
110.57132,110.705246,81,77,0
110.71417,110.84811,82,77,0
110.85703,110.99096,83,77,0
110.999886,111.13382,84,77,0
111.142746,111.27667,85,77,0
111.28561,111.41953,86,77,0
111.42846,112.611496,77,77,0
112.71417,112.91506,81,77,0
112.92846,113.12935,79,77,0
113.142746,113.54006,77,77,0
113.999886,114.173996,72,77,0
114.42846,114.60256,72,77,0
114.857025,114.94631,84,77,0
115.07131,115.138275,86,77,0
115.14274,115.20971,84,77,0
115.21417,115.281136,83,77,0
115.2856,115.48649,84,77,0
115.499886,115.58917,86,77,0
115.71417,115.80346,82,77,0
115.92846,115.99542,84,77,0
115.999886,116.06685,82,77,0
116.07131,116.138275,81,77,0
116.14274,116.343636,82,77,0
116.357025,116.44631,84,77,0
116.57131,116.6606,81,77,0
116.7856,116.85256,82,77,0
116.857025,116.92399,81,77,0
116.92845,116.99542,79,77,0
116.999886,117.200775,81,77,0
117.214165,117.30345,82,77,0
117.42845,117.51774,79,77,0
117.64274,117.7097,81,77,0
117.714165,117.781136,79,77,0
117.7856,117.85256,78,77,0
117.857025,118.057915,79,77,0
118.07131,118.1606,81,77,0
118.2856,118.682915,77,77,0
119.14274,119.31685,72,77,0
119.57131,119.745415,72,77,0
119.99988,120.089165,84,77,0
120.214165,120.28113,86,77,0
120.28559,120.35256,84,77,0
120.357025,120.42399,83,77,0
120.42845,120.62934,84,77,0
120.64274,120.732025,86,77,0
120.857025,120.946304,82,77,0
121.071304,121.138275,84,77,0
121.14274,121.2097,82,77,0
121.214165,121.28113,81,77,0
121.28559,121.48649,82,77,0
121.49988,121.589165,84,77,0
121.714165,121.80345,81,77,0
121.92845,121.995415,82,77,0
121.99988,122.06684,81,77,0
122.071304,122.13827,79,77,0
122.14274,122.34363,81,77,0
122.35702,122.446304,82,77,0
122.571304,122.66059,79,77,0
122.78559,122.852554,81,77,0
122.85702,122.92398,79,77,0
122.92845,122.995415,78,77,0
122.99988,123.20077,79,77,0
123.214165,123.30345,81,77,0
123.42845,123.51773,77,77,0
123.64273,123.73202,72,77,0
123.85702,123.946304,77,77,0
124.071304,124.16059,79,77,0
124.28559,124.37488,81,77,0
124.49988,124.56684,82,77,0
124.571304,124.63827,81,77,0
124.64273,124.709694,79,77,0
124.714165,124.915054,81,77,0
124.928444,125.01773,82,77,0
125.14273,125.23202,79,77,0
125.35702,125.446304,76,77,0
125.571304,125.66059,79,77,0
125.78559,125.87488,81,77,0
125.99987,126.08916,82,77,0
126.21416,126.28112,84,77,0
126.28559,126.352554,82,77,0
126.35702,126.42398,81,77,0
126.428444,126.62934,82,77,0
126.64273,126.73202,84,77,0
126.85702,126.946304,81,77,0
127.071304,127.16058,77,77,0
127.28558,127.37487,81,77,0
127.49987,127.58916,82,77,0
127.71416,127.803444,84,77,0
127.928444,127.99541,86,77,0
127.99987,128.06683,84,77,0
128.0713,128.13826,82,77,0
128.14273,128.34363,84,77,0
128.35701,128.4463,86,77,0
128.5713,128.66058,82,77,0
128.78558,128.87488,77,77,0
128.99988,129.08916,82,77,0
129.21416,129.30344,84,77,0
129.42844,129.51773,86,77,0
129.64273,129.70969,87,77,0
129.71416,129.78111,86,77,0
129.78558,129.85255,84,77,0
129.85701,130.0579,86,77,0
130.0713,130.16058,87,77,0
130.28558,130.37486,84,77,0
130.49986,130.58916,81,77,0
130.71416,130.80344,84,77,0
130.92844,131.01773,86,77,0
131.14273,131.23201,87,77,0
131.35701,131.42398,89,77,0
131.42844,131.4954,87,77,0
131.49986,131.56683,86,77,0
131.5713,131.77219,87,77,0
131.78558,131.87486,89,77,0
131.99986,132.08916,86,77,0
132.21416,132.28111,87,77,0
132.28558,132.35254,86,77,0
132.35701,132.42398,84,77,0
132.42844,132.62933,86,77,0
132.64273,132.73201,87,77,0
132.85701,132.94629,84,77,0
133.07129,133.13826,86,77,0
133.14273,133.20969,84,77,0
133.21416,133.28111,82,77,0
133.28558,133.48648,84,77,0
133.49986,133.58916,86,77,0
133.71416,133.80344,82,77,0
133.92844,133.9954,84,77,0
133.99986,134.06683,82,77,0
134.07129,134.13826,81,77,0
134.14272,134.34361,82,77,0
134.35701,134.44629,84,77,0
134.57129,134.66058,81,77,0
134.78558,134.85254,82,77,0
134.85701,134.92397,81,77,0
134.92844,134.9954,79,77,0
134.99986,135.20076,81,77,0
135.21416,135.30344,82,77,0
135.42844,135.51772,79,77,0
135.64272,135.70969,81,77,0
135.71416,135.78111,79,77,0
135.78558,135.85254,78,77,0
135.85701,136.0579,79,77,0
136.07129,136.16058,81,77,0
136.28558,136.45969,77,77,0
136.71414,136.88826,77,77,0
137.14272,137.19629,77,77,0
137.19629,137.95076,86,77,0
137.99986,138.05344,75,77,0
138.05344,138.80789,84,77,0
138.85701,138.91057,74,77,0
138.91057,139.66504,82,77,0
139.71414,139.91504,84,77,0
139.92844,140.12932,82,77,0
140.14272,140.34361,81,77,0
140.35701,140.55789,79,77,0
140.57129,140.66057,77,77,0
140.78557,140.85254,79,77,0
140.857,140.92397,77,77,0
140.92844,140.99539,76,77,0
140.99986,141.20074,77,77,0
141.21414,141.30344,79,77,0
141.42844,141.51772,75,77,0
141.64272,141.70969,77,77,0
141.71414,141.78111,75,77,0
141.78557,141.85254,74,77,0
141.857,142.05789,75,77,0
142.07129,142.16057,77,77,0
142.28557,142.71414,75,77,0
142.71414,143.11147,74,77,0
143.14272,143.34361,72,77,0
143.357,143.55789,74,77,0
143.57129,143.77217,75,77,0
143.78557,143.98647,72,77,0
143.99986,144.20074,77,77,0
144.21414,144.41504,74,77,0
144.42842,144.51772,70,77,0
144.64272,144.732,70,77,0
144.857,145.05789,72,77,0
145.07129,145.27217,74,77,0
145.28557,145.48647,75,77,0
145.49985,145.70074,72,77,0
145.71414,145.91504,77,77,0
145.92842,146.12932,74,77,0
146.14272,146.232,82,77,0
146.357,146.44629,82,77,0
146.57129,146.78557,82,77,0
146.78557,146.98647,77,77,0
146.99985,147.08914,86,77,0
147.21414,147.30342,86,77,0
147.42842,147.62932,86,77,0
147.64272,147.8436,84,77,0
147.857,148.05789,82,77,0
148.07127,148.27217,81,77,0
148.28557,148.33914,79,77,0
148.33914,148.39272,81,77,0
148.39272,148.48647,79,77,0
148.49985,148.70074,77,77,0
148.71414,148.91502,79,77,0
148.92842,149.12932,81,77,0
149.14272,149.54002,79,77,0
149.57127,149.77217,77,77,0
149.78557,149.98645,76,77,0
149.99985,150.05342,75,77,0
150.05342,150.107,77,77,0
150.107,150.20074,75,77,0
150.21414,150.41502,74,80,0
150.42842,150.62932,75,83,0
150.6427,150.8436,77,86,0
150.857,151.05789,74,89,0
151.07127,151.27217,77,93,0
151.28557,151.48645,74,93,0
151.49985,151.70074,70,93,0
151.71413,151.91502,69,93,0
151.92842,152.12932,75,93,0
152.1427,152.3436,72,93,0
152.357,152.55788,69,93,0
152.57127,152.77217,67,93,0
152.78557,152.98645,74,93,0
152.99985,153.20074,70,93,0
153.21413,153.41502,67,93,0
153.42842,153.62932,58,93,0
153.6427,153.8436,67,93,0
153.857,154.05788,60,93,0
154.07127,154.27217,69,93,0
154.28555,154.48645,70,93,0
154.49985,154.70074,62,93,0
154.71413,154.91502,70,93,0
154.92842,155.1293,62,93,0
155.1427,155.3436,70,93,0
155.357,155.55788,60,93,0
155.57127,155.77217,69,93,0
155.78555,155.98645,60,93,0
155.99985,156.42842,72,93,0
155.99985,156.42842,69,93,0
156.42842,156.82573,70,93,0
157.28555,157.71413,69,93,0
157.28555,157.71413,60,93,0
157.71413,158.11145,70,93,0
157.28555,158.11145,65,93,0
157.71413,158.11145,62,93,0
158.57127,158.77216,72,69,0
158.78555,158.98645,74,69,0
158.99985,159.20073,75,69,0
159.21413,159.41502,72,69,0
159.4284,159.6293,77,69,0
159.6427,159.8436,74,69,0
159.85698,159.94627,70,69,0
160.07127,160.16055,70,69,0
160.71413,161.1427,71,93,0
160.71413,161.1427,62,93,0
161.1427,161.54002,72,93,0
160.71413,161.54002,67,93,0
161.1427,161.54002,63,93,0
161.99983,162.20073,74,69,0
162.21413,162.41501,75,69,0
162.4284,162.6293,77,69,0
162.6427,162.84358,74,69,0
162.85698,163.05788,79,69,0
163.07126,163.27216,75,69,0
163.28555,163.37483,72,69,0
163.49983,163.58913,72,69,0
164.1427,164.57126,73,93,0
164.1427,164.57126,64,93,0
164.57126,164.96858,74,93,0
164.1427,164.96858,69,93,0
164.57126,164.96858,66,93,0
165.4284,165.6293,76,69,0
165.64268,165.84358,78,69,0
165.85698,166.05788,79,69,0
166.07126,166.27216,76,69,0
166.28555,166.48643,81,69,0
166.49983,166.70073,78,69,0
166.71413,166.8034,74,69,0
166.9284,167.01768,74,69,0
167.57126,167.99983,69,69,0
167.57126,167.99983,66,69,0
167.57126,167.99983,63,69,0
167.99983,168.39716,70,69,0
167.99983,168.39716,67,69,0
167.99983,168.39716,62,69,0
168.85698,169.05786,57,93,0
169.07126,169.27216,58,93,0
169.28554,169.48643,60,93,0
169.49983,169.70073,57,93,0
169.71411,169.91501,62,93,0
169.9284,170.12929,58,93,0
170.14268,170.23198,55,93,0
170.35698,170.44626,55,93,0
171.57126,171.70518,86,93,0
171.71411,171.84804,84,93,0
171.85696,171.9909,82,93,0
171.99983,172.13376,81,93,0
172.14268,172.27661,79,93,0
172.28554,172.41946,78,93,0
172.4284,172.56233,75,93,0
172.57126,172.70518,74,93,0
172.71411,172.84804,72,93,0
172.85696,172.9909,70,93,0
172.99983,173.13376,69,93,0
173.14268,173.27661,67,93,0
173.28554,173.41946,70,93,0
173.42839,173.56233,74,93,0
173.57126,173.70518,68,93,0
173.71411,173.84804,71,93,0
173.85696,173.99089,74,93,0
173.99983,174.13376,67,93,0
174.14268,174.27661,71,93,0
174.28554,174.41946,74,93,0
174.42839,174.56233,65,93,0
174.57126,174.70518,71,93,0
174.71411,174.84804,74,93,0
174.85696,175.25429,72,93,0
175.71411,176.11143,74,93,0
175.71411,176.11143,71,93,0
175.71411,176.11143,67,93,0
176.57126,176.96857,75,93,0
176.57126,176.96857,72,93,0
176.57126,176.96857,67,93,0
178.42839,178.56232,84,93,0
178.57124,178.70518,82,93,0
178.71411,178.84804,81,93,0
178.85696,178.99089,79,93,0
178.99982,179.13374,77,93,0
179.14268,179.27661,76,93,0
179.28554,179.41946,74,93,0
179.42839,179.56232,72,93,0
179.57124,179.70518,70,93,0
179.71411,179.84804,69,93,0
179.85696,179.99089,67,93,0
179.99982,180.13374,65,93,0
180.14267,180.27661,69,93,0
180.28554,180.41946,72,93,0
180.42839,180.56232,66,93,0
180.57124,180.70517,69,93,0
180.71411,180.84804,72,93,0
180.85696,180.99089,65,93,0
180.99982,181.13374,69,93,0
181.14267,181.27661,72,93,0
181.28554,181.41946,63,93,0
181.42839,181.56232,69,93,0
181.57124,181.70517,72,93,0
181.71411,182.11142,70,93,0
182.57124,182.96857,72,93,0
182.57124,182.96857,69,93,0
182.57124,182.96857,65,93,0
183.42839,183.82571,74,93,0
183.42839,183.82571,70,93,0
183.42839,183.82571,65,93,0
185.14267,185.34357,55,71,0
185.35696,185.55785,63,69,0
185.57124,185.77214,58,69,0
185.78552,185.98642,63,69,0
185.99982,186.20071,55,69,0
186.2141,186.415,63,69,0
186.42839,186.62927,58,69,0
186.64267,186.84357,63,69,0
186.85695,187.05785,55,69,0
187.07124,187.27214,63,69,0
187.28552,187.48642,58,69,0
187.49982,187.7007,63,69,0
187.7141,187.915,55,69,0
187.92839,188.12927,63,69,0
188.14267,188.34357,58,69,0
188.35695,188.55785,63,69,0
188.57124,188.77213,56,69,0
188.78552,188.98642,63,69,0
188.99982,189.2007,60,69,0
189.2141,189.415,63,69,0
189.42838,189.62927,60,69,0
189.64267,189.84357,63,69,0
189.85695,190.05785,68,69,0
190.07124,190.27213,63,69,0
190.28552,190.48642,56,69,0
190.49982,190.7007,63,69,0
190.7141,190.915,59,69,0
190.92838,191.12927,63,69,0
191.14267,191.34355,56,69,0
191.35695,191.55785,63,69,0
191.57124,191.77213,59,69,0
191.78552,191.98642,63,69,0
191.9998,192.2007,56,69,0
192.2141,192.415,65,69,0
192.42838,192.62927,58,69,0
192.64267,192.84355,65,69,0
192.85695,193.05785,62,69,0
193.07123,193.27213,65,69,0
193.28552,193.48642,68,69,0
193.4998,193.7007,65,69,0
193.7141,194.11142,67,69,0
194.57123,194.96855,65,69,0
194.57123,194.96855,63,69,0
194.57123,194.96855,60,69,0
195.42838,196.28552,67,69,0
195.42838,196.28552,63,69,0
196.28552,196.68285,65,69,0
196.28552,196.68285,62,69,0
197.14265,197.78552,80,69,0
197.78552,197.9864,82,69,0
197.9998,198.39713,79,69,0
201.21408,201.42838,77,69,0
201.42838,201.64265,80,85,0
201.64265,201.73193,79,69,0
201.85693,201.94623,77,69,0
202.07123,202.1605,75,69,0
202.2855,202.68283,73,69,0
202.92838,203.14265,82,69,0
203.14265,203.35693,85,85,0
203.35693,203.44623,84,69,0
203.57123,203.6605,82,69,0
203.7855,203.8748,80,69,0
203.9998,204.39711,79,69,0
204.64265,204.85693,79,69,0
204.85693,205.07123,82,85,0
205.07123,205.1605,80,69,0
205.2855,205.3748,79,69,0
205.4998,205.58908,77,69,0
205.71408,205.91498,77,69,0
205.92836,206.12926,76,69,0
206.14265,206.34354,74,69,0
206.35693,206.55783,72,69,0
206.57123,206.77211,71,69,0
206.7855,206.9864,72,74,0
206.99979,207.20068,74,79,0
207.21408,207.41498,76,84,0
207.42836,207.56229,77,89,0
207.57123,207.70515,72,93,0
207.71408,207.848,68,93,0
207.85693,207.99086,72,93,0
207.99979,208.13373,68,93,0
208.14265,208.27658,65,93,0
208.2855,208.41943,68,93,0
208.42836,208.56229,65,93,0
208.57121,208.70515,60,93,0
208.71408,208.848,65,93,0
208.85693,208.99086,60,93,0
208.99979,209.13371,56,93,0
209.14265,209.27658,53,93,0
209.2855,209.41943,58,93,0
209.42836,209.56229,62,93,0
209.57121,209.70515,58,93,0
209.71408,209.848,62,93,0
209.85693,209.99086,65,93,0
209.99979,210.13371,62,93,0
210.14265,210.27658,65,93,0
210.2855,210.41943,70,93,0
210.42836,210.56229,65,93,0
210.57121,210.70514,70,93,0
210.71408,210.848,74,93,0
210.85693,210.99086,75,93,0
210.99979,211.13371,70,93,0
211.14264,211.27658,67,93,0
211.2855,211.41943,70,93,0
211.42836,211.56229,67,93,0
211.57121,211.70514,63,93,0
211.71408,211.848,67,93,0
211.85693,211.99086,63,93,0
211.99979,212.13371,58,93,0
212.14264,212.27658,63,93,0
212.2855,212.41943,58,93,0
212.42836,212.56229,55,93,0
212.57121,212.70514,51,93,0
212.71407,212.848,56,93,0
212.85693,212.99086,60,93,0
212.99979,213.13371,56,93,0
213.14264,213.27657,60,93,0
213.2855,213.41943,63,93,0
213.42836,213.56229,60,93,0
213.57121,213.70514,63,93,0
213.71407,213.848,68,93,0
213.85693,213.99086,63,93,0
213.99979,214.13371,68,93,0
214.14264,214.27657,72,93,0
214.2855,214.41943,74,93,0
214.42836,214.56229,69,93,0
214.57121,214.70514,65,93,0
214.71407,214.84799,69,93,0
214.85693,214.99086,65,93,0
214.99979,215.13371,62,93,0
215.14264,215.27657,65,93,0
215.28549,215.41943,62,93,0
215.42836,215.56229,57,93,0
215.57121,215.70514,62,93,0
215.71407,215.84799,57,93,0
215.85693,215.99086,53,93,0
215.99979,216.13371,50,93,0
216.14264,216.27657,55,93,0
216.28549,216.41943,59,93,0
216.42836,216.56229,55,93,0
216.57121,216.70514,59,93,0
216.71407,216.84799,62,93,0
216.85693,216.99086,59,93,0
216.99979,217.13371,62,93,0
217.14264,217.27657,67,93,0
217.28549,217.41942,62,93,0
217.42836,217.56229,67,93,0
217.57121,217.70514,71,93,0
217.85692,217.99086,72,93,0
217.99979,218.13371,75,93,0
218.14264,218.27657,79,93,0
218.28549,218.41942,84,93,0
218.42836,218.56229,87,93,0
218.71407,218.84799,72,93,0
218.85692,218.99086,75,93,0
218.99979,219.13371,81,93,0
219.14264,219.27657,84,93,0
219.28549,219.41942,87,93,0
219.57121,219.70514,70,93,0
219.71407,219.84799,74,93,0
219.85692,219.99084,77,93,0
219.99979,220.13371,82,93,0
220.14264,220.27657,86,93,0
220.42834,220.56229,70,93,0
220.57121,220.70514,74,93,0
220.71407,220.84799,79,93,0
220.85692,220.99084,82,93,0
220.99979,221.13371,86,93,0
221.28549,221.41942,69,93,0
221.42834,221.56227,72,93,0
221.57121,221.70514,76,93,0
221.71407,221.84799,81,93,0
221.85692,221.99084,84,93,0
222.14264,222.27657,69,93,0
222.28549,222.41942,72,93,0
222.42834,222.56227,78,93,0
222.57121,222.70514,81,93,0
222.71407,222.84799,84,93,0
222.85692,223.25424,70,93,0
222.85692,223.25424,67,93,0
222.85692,223.25424,62,93,0
223.71407,224.11139,76,93,0
223.71407,224.11139,70,93,0
223.71407,224.11139,67,93,0
224.35692,224.5712,72,93,0
224.5712,224.78549,84,109,0
224.5712,224.78549,81,109,0
224.78549,224.87477,82,93,0
224.78549,224.87477,79,93,0
224.99977,225.08907,81,93,0
224.99977,225.08907,77,93,0
225.21407,225.30334,79,93,0
225.21407,225.30334,76,93,0
225.42834,225.51764,77,93,0
225.42834,225.51764,74,93,0
225.64262,225.73192,76,93,0
225.64262,225.73192,72,93,0
225.85692,225.9462,74,93,0
225.85692,225.9462,70,93,0
226.0712,226.16049,72,93,0
226.0712,226.16049,69,93,0
226.28549,226.37477,70,93,0
226.28549,226.37477,67,93,0
226.49977,226.58907,69,90,0
226.49977,226.58907,65,90,0
226.71407,226.80334,67,87,0
226.71407,226.80334,64,87,0
226.92834,227.01762,65,84,0
226.92834,227.01762,62,84,0
227.14262,227.23192,64,81,0
227.14262,227.23192,60,81,0
227.35692,227.4462,62,78,0
227.35692,227.4462,58,78,0
227.5712,227.66049,60,75,0
227.5712,227.66049,57,75,0
227.78549,227.87477,58,72,0
227.78549,227.87477,55,72,0
227.99977,228.3971,57,69,0
227.99977,228.3971,53,69,0
229.71405,230.11137,64,69,0
229.71405,230.11137,58,69,0
229.71405,230.11137,55,69,0
231.21405,231.42834,60,93,0
231.42834,231.64262,72,109,0
231.42834,231.64262,69,109,0
231.64262,231.73192,70,93,0
231.64262,231.73192,67,93,0
231.85692,231.9462,69,93,0
231.85692,231.9462,65,93,0
232.0712,232.16048,67,93,0
232.0712,232.16048,64,93,0
232.28548,232.37477,65,93,0
232.28548,232.37477,62,93,0
232.49977,232.58905,64,93,0
232.49977,232.58905,60,93,0
232.71405,232.80334,62,93,0
232.71405,232.80334,58,93,0
232.92834,233.01762,60,93,0
232.92834,233.01762,57,93,0
234.64262,234.84352,69,69,0
234.8569,234.9462,77,69,0
235.0712,235.16048,72,69,0
235.28548,235.37477,77,69,0
235.49977,235.58905,79,69,0
235.71405,235.80333,81,69,0
235.92833,235.9953,82,69,0
235.99977,236.06673,81,69,0
236.0712,236.13815,79,69,0
236.14262,236.34352,81,69,0
236.3569,236.4462,82,69,0
236.5712,236.66048,79,69,0
236.78548,236.87476,76,69,0
236.99976,237.08905,79,69,0
237.21405,237.30333,81,69,0
237.42833,237.51762,82,69,0
237.64262,237.70958,84,69,0
237.71405,237.781,82,69,0
237.78548,237.85245,81,69,0
237.8569,238.0578,82,69,0
238.0712,238.16048,84,69,0
238.28548,238.37476,81,69,0
238.49976,238.58905,77,69,0
238.71405,238.80333,81,69,0
238.92833,239.01762,82,69,0
239.14262,239.2319,84,69,0
239.3569,239.42387,86,69,0
239.42833,239.4953,84,69,0
239.49976,239.56673,82,69,0
239.57118,239.77208,84,69,0
239.78548,239.87476,86,69,0
239.99976,240.08905,82,69,0
240.21405,240.30333,77,69,0
240.42833,240.51762,82,69,0
240.64262,240.7319,84,69,0
240.8569,240.94618,86,69,0
241.07118,241.13815,87,69,0
241.14261,241.20958,86,69,0
241.21405,241.281,84,69,0
241.28548,241.48636,86,69,0
241.49976,241.58905,87,69,0
241.71405,241.80333,84,69,0
241.92833,242.01761,81,69,0
242.14261,242.2319,84,69,0
242.3569,242.44618,86,69,0
242.57118,242.66048,87,69,0
242.78548,242.85243,89,69,0
242.8569,242.92386,87,69,0
242.92833,242.9953,86,69,0
242.99976,243.20065,87,69,0
243.21404,243.30333,89,69,0
243.42833,243.51761,86,69,0
243.64261,243.70958,87,69,0
243.71404,243.781,86,69,0
243.78548,243.85243,84,69,0
243.8569,244.05779,86,69,0
244.07118,244.16048,87,69,0
244.28548,244.37476,84,69,0
244.49976,244.56673,86,69,0
244.57118,244.63815,84,69,0
244.64261,244.70958,82,69,0
244.71404,244.91493,84,69,0
244.92833,245.01761,86,69,0
245.14261,245.2319,82,69,0
245.3569,245.42386,84,69,0
245.42833,245.49529,82,69,0
245.49976,245.56671,81,69,0
245.57118,245.77208,82,69,0
245.78546,245.87476,84,69,0
245.99976,246.08904,81,69,0
246.21404,246.281,82,69,0
246.28546,246.35243,81,69,0
246.3569,246.42386,79,69,0
246.42833,246.62921,81,69,0
246.64261,246.7319,82,69,0
246.8569,246.94618,79,69,0
247.07118,247.13815,81,69,0
247.14261,247.20958,79,69,0
247.21404,247.281,78,69,0
247.28546,247.48636,79,69,0
247.49976,247.58904,81,69,0
247.71404,247.88814,77,69,0
248.14261,248.31671,77,69,0
248.57118,248.62476,77,69,0
248.62476,249.37921,86,69,0
249.42833,249.48189,75,69,0
249.48189,250.23636,84,69,0
250.28546,250.33904,74,69,0
250.33904,251.0935,82,69,0
251.14261,251.3435,84,69,0
251.35689,251.55779,82,69,0
251.57118,251.77206,81,69,0
251.78546,251.98636,79,69,0
251.99974,252.08904,77,69,0
252.21404,252.28099,79,69,0
252.28546,252.35243,77,69,0
252.35689,252.42386,76,69,0
252.42831,252.62921,77,69,0
252.64261,252.73189,79,69,0
252.85689,252.94618,75,69,0
253.07118,253.13814,77,69,0
253.14261,253.20956,75,69,0
253.21404,253.28099,74,69,0
253.28546,253.48636,75,69,0
253.49974,253.58904,77,69,0
253.71404,254.14261,75,69,0
254.14261,254.53992,74,69,0
254.57117,254.77206,72,69,0
254.78546,254.98636,74,69,0
254.99974,255.20064,75,69,0
255.21404,255.41492,72,69,0
255.42831,255.62921,77,69,0
255.64261,255.84349,74,69,0
255.85689,255.94617,70,69,0
256.07117,256.16046,70,69,0
256.28546,256.48636,72,69,0
256.49976,256.70062,74,69,0
256.71402,256.91492,75,69,0
256.9283,257.1292,72,69,0
257.1426,257.3435,77,69,0
257.35687,257.55777,74,69,0
257.57117,257.66046,82,69,0
257.78546,257.87476,82,69,0
257.99976,258.21402,82,69,0
258.21402,258.41492,77,69,0
258.4283,258.5176,86,69,0
258.6426,258.73187,86,69,0
258.85687,259.05777,86,69,0
259.07117,259.27206,84,69,0
259.28546,259.48636,82,69,0
259.49973,259.70062,81,69,0
259.71402,259.7676,79,69,0
259.7676,259.82117,81,69,0
259.82117,259.91492,79,69,0
259.9283,260.1292,77,69,0
260.1426,260.34348,79,69,0
260.35687,260.55777,81,69,0
260.57117,260.96848,79,69,0
260.99973,261.20062,77,69,0
261.21402,261.41492,76,73,0
261.4283,261.48187,75,77,0
261.48187,261.53546,77,77,0
261.53546,261.6292,75,77,0
261.6426,261.84348,74,81,0
261.85687,262.05777,75,85,0
262.07117,262.27206,77,89,0
262.28546,262.48636,74,93,0
262.49973,262.70062,77,93,0
262.71402,262.91492,74,93,0
262.9283,263.1292,70,93,0
263.1426,263.34348,69,93,0
263.35687,263.55777,75,93,0
263.57117,263.77206,72,93,0
263.78546,263.98633,69,93,0
263.99973,264.20062,67,93,0
264.21402,264.41492,74,93,0
264.4283,264.6292,70,93,0
264.64258,264.84348,67,93,0
264.85687,265.05777,58,93,0
265.07117,265.27206,67,93,0
265.28546,265.48633,60,93,0
265.49973,265.70062,69,93,0
265.71402,265.91492,70,93,0
265.9283,266.1292,62,93,0
266.14258,266.34348,70,93,0
266.35687,266.55777,62,93,0
266.57117,266.77206,70,93,0
266.78546,266.98633,60,93,0
266.99973,267.20062,69,93,0
267.21402,267.41492,60,93,0
267.4283,267.85687,72,93,0
267.4283,267.85687,69,93,0
267.85687,268.25418,70,93,0
268.71402,269.14258,69,93,0
268.71402,269.14258,60,93,0
269.14258,269.53992,70,93,0
268.71402,269.53992,65,93,0
269.14258,269.53992,62,93,0
270.4283,270.85687,69,93,0
270.4283,270.85687,60,93,0
270.85687,271.25418,70,93,0
270.4283,271.25418,65,93,0
270.85687,271.25418,62,93,0
272.78543,272.98633,58,93,0
272.99973,273.20062,62,93,0
273.21402,273.41492,65,93,0
273.42828,273.62918,70,93,0
273.64258,273.84348,69,93,0
273.85687,274.05777,72,93,0
274.07117,274.27203,75,93,0
274.28543,274.68277,74,93,0
276.21402,276.41492,70,93,0
276.42828,276.62918,65,93,0
276.64258,276.84348,62,93,0
276.85687,277.05777,58,93,0
277.07114,277.27203,62,93,0
277.28543,277.48633,60,93,0
277.49973,277.70062,57,93,0
277.71402,278.11133,58,93,0
278.57114,278.77203,70,93,0
278.78543,278.98633,84,93,0
278.99973,279.20062,82,93,0
279.21402,279.4149,80,93,0
279.42828,279.64258,79,93,0
279.64258,279.84348,77,93,0
279.85687,279.94614,77,93,0
280.07114,280.16043,77,93,0
280.28543,280.48633,77,93,0
280.49973,280.55328,79,93,0
280.55328,280.60687,77,93,0
280.60687,280.66043,76,93,0
280.66043,280.71402,77,93,0
280.71402,280.9149,79,93,0
280.92828,281.12918,80,93,0
281.14258,281.35687,81,93,0
281.35687,281.55774,82,93,0
281.57114,281.66043,79,93,0
281.78543,281.87473,75,93,0
281.99973,282.20062,68,93,0
282.214,282.4149,80,93,0
282.42828,282.62918,79,93,0
282.64258,282.84348,77,93,0
282.85687,283.07114,75,93,0
283.07114,283.27203,74,93,0
283.28543,283.37473,74,93,0
283.49973,283.589,74,93,0
283.714,283.9149,74,93,0
283.92828,283.98187,75,93,0
283.98187,284.03543,74,93,0
284.03543,284.089,72,93,0
284.089,284.14258,74,93,0
284.14258,284.34348,75,93,0
284.35687,284.55774,77,93,0
284.57114,284.78543,78,93,0
284.78543,284.98633,79,93,0
284.99973,285.089,76,93,0
285.214,285.30328,72,93,0
285.42828,285.62918,72,93,0
285.64258,285.69614,74,93,0
285.69614,285.74973,72,93,0
285.74973,285.80328,71,93,0
285.80328,285.85684,72,93,0
285.85684,286.05774,74,93,0
286.07114,286.27203,75,93,0
286.28543,286.49973,76,93,0
286.49973,286.7006,77,93,0
286.714,286.80328,70,93,0
286.92828,287.01758,86,93,0
287.14258,287.23184,84,93,0
287.35684,287.44614,82,93,0
287.57114,287.66043,81,93,0
287.78543,287.87473,79,93,0
287.99973,288.214,77,93,0
288.214,288.4149,76,93,0
288.42828,289.28543,75,127,0
288.42828,289.28543,69,127,0
289.28543,289.68274,74,93,0
289.28543,289.68274,70,93,0
289.714,289.84793,74,93,0
289.85684,289.99078,71,93,0
289.9997,290.13364,72,93,0
290.14258,290.2765,74,93,0
290.28543,290.41934,75,93,0
290.42828,290.5622,77,93,0
290.57114,290.70508,79,93,0
290.714,290.84793,77,93,0
290.85684,290.99078,75,93,0
290.9997,291.13364,74,93,0
291.14258,291.2765,72,93,0
291.28543,291.41934,70,93,0
291.42828,291.5622,69,93,0
291.57114,291.70508,77,93,0
291.714,291.84793,72,93,0
291.85684,291.99078,81,93,0
291.9997,292.13364,77,93,0
292.14258,292.2765,84,93,0
292.28543,292.41934,82,93,0
292.42828,292.5622,81,93,0
292.57114,292.70508,79,93,0
292.714,292.84793,77,93,0
292.85684,292.99078,79,93,0
292.9997,293.13364,76,93,0
293.14258,293.2765,77,93,0
293.28543,293.41934,81,93,0
293.42828,293.5622,72,93,0
293.57114,293.70508,77,93,0
293.714,293.84793,69,93,0
293.85684,293.99078,72,93,0
293.9997,294.13364,70,93,0
294.14258,294.2765,69,93,0
294.28543,294.41934,67,93,0
294.42828,294.5622,65,93,0
294.57114,294.70505,67,93,0
294.714,294.84793,64,93,0
294.85684,294.99078,65,93,0
294.9997,295.13364,69,93,0
295.14255,295.2765,60,93,0
295.28543,295.41934,65,93,0
295.42828,295.5622,57,93,0
295.57114,295.70505,60,93,0
295.714,295.84793,58,93,0
295.85684,295.99078,57,93,0
295.9997,296.13364,55,93,0
296.14255,296.2765,53,93,0
296.28543,296.41934,55,93,0
296.42828,296.5622,52,93,0
296.57114,296.6738,53,93,0
296.67828,296.78094,55,93,0
296.78543,296.8881,53,93,0
296.89255,296.99524,52,93,0
296.9997,297.1024,53,93,0
297.10684,297.20953,57,93,0
297.214,297.31668,55,93,0
297.32114,297.4238,58,93,0
297.42828,297.53094,57,93,0
297.53543,297.6381,60,93,0
297.64255,297.74524,58,93,0
297.7497,297.8524,62,93,0
297.85684,297.95953,60,93,0
297.964,298.06668,63,93,0
298.07114,298.1738,62,93,0
298.17828,298.28094,65,93,0
298.28543,298.68274,63,93,0
299.14255,299.24524,81,93,0
299.2497,299.3524,84,93,0
299.35684,299.45953,82,93,0
299.464,299.56665,86,93,0
299.57114,299.6738,84,93,0
299.67828,299.78094,87,93,0
299.7854,299.8881,86,93,0
299.89255,299.99524,89,93,0
299.9997,300.39703,87,93,0
301.714,301.9149,62,69,0
301.92828,302.12915,58,69,0
302.14255,302.34344,65,69,0
302.35684,302.55774,58,69,0
302.57114,302.77203,62,69,0
302.7854,302.9863,58,69,0
302.9997,303.2006,65,69,0
303.214,303.4149,58,69,0
303.42825,303.62915,62,69,0
303.64255,303.84344,58,69,0
303.85684,304.05774,65,69,0
304.07114,304.272,58,69,0
304.2854,304.4863,70,69,0
304.4997,304.7006,58,69,0
304.714,304.9149,65,69,0
304.92825,305.12915,58,69,0
305.14255,305.34344,63,69,0
305.35684,305.55774,58,69,0
305.57114,305.772,70,69,0
305.7854,305.9863,58,69,0
305.9997,306.2006,67,69,0
306.214,306.4149,58,69,0
306.42825,306.62915,70,69,0
306.64255,306.84344,58,69,0
306.85684,307.05774,66,69,0
307.07114,307.272,58,69,0
307.2854,307.4863,70,69,0
307.4997,307.7006,58,69,0
307.714,307.91486,60,69,0
307.92825,308.12915,58,69,0
308.14255,308.34344,66,69,0
308.35684,308.55774,58,69,0
308.5711,308.772,63,69,0
308.7854,308.9863,60,69,0
308.9997,309.2006,57,69,0
309.214,309.41486,60,69,0
309.42825,309.62915,57,69,0
309.64255,309.84344,60,69,0
309.85684,310.05774,63,69,0
310.0711,310.272,60,69,0
310.2854,310.68274,62,69,0
311.14255,311.53986,70,69,0
311.14255,311.53986,67,69,0
311.14255,311.53986,60,69,0
311.9997,312.85684,74,69,0
311.9997,312.85684,62,69,0
312.85684,313.25415,72,69,0
311.9997,313.25415,65,69,0
312.85684,313.25415,60,69,0
316.0711,316.2854,70,77,0
316.2854,316.4997,74,93,0
316.4997,316.58896,72,77,0
316.71396,316.80325,70,77,0
316.92825,317.01755,69,77,0
317.14255,317.53986,67,77,0
317.7854,317.9997,75,77,0
317.9997,318.21396,79,93,0
318.21396,318.30325,77,77,0
318.42825,318.51755,75,77,0
318.64255,318.7318,74,77,0
318.8568,319.25415,72,77,0
319.4997,319.71396,84,77,0
319.71396,319.92825,87,93,0
319.92825,320.01755,85,77,0
320.14255,320.2318,84,77,0
320.3568,320.4461,82,77,0
320.5711,320.772,82,77,0
320.7854,320.9863,81,77,0
320.99966,321.20056,79,77,0
321.21396,321.41486,77,77,0
321.42825,321.62915,76,77,0
321.64255,321.8434,77,77,0
321.8568,322.0577,79,77,0
322.0711,322.272,81,77,0
322.2854,322.5845,82,77,0
322.6068,322.7095,82,77,0
322.71396,322.81665,84,77,0
322.8211,322.9238,82,77,0
322.92825,323.0309,81,77,0
323.0354,323.13806,82,77,0
323.14255,323.44165,84,77,0
323.46396,323.56665,84,77,0
323.5711,323.6738,86,77,0
323.67825,323.7809,84,77,0
323.7854,323.88806,83,77,0
323.89255,323.9952,84,77,0
323.99966,324.397,86,77,0
324.42825,325.022,87,127,0
324.42825,325.022,75,127,0
325.0711,325.17377,74,77,0
325.17825,325.2809,75,77,0
325.2854,325.38806,77,77,0
325.39252,325.4952,75,77,0
325.49966,325.60236,74,77,0
325.6068,325.7095,72,77,0
325.71396,325.81665,72,77,0
325.8211,325.92377,70,77,0
325.92825,326.0309,69,77,0
326.0354,326.13806,70,77,0
326.14252,326.2452,69,77,0
326.24966,326.35236,70,77,0
326.3568,326.4595,69,77,0
326.46396,326.56665,70,77,0
326.5711,326.67377,74,77,0
326.67825,326.7809,72,77,0
326.7854,326.88806,71,77,0
326.89252,326.9952,72,77,0
326.99966,327.10236,71,77,0
327.1068,327.2095,72,77,0
327.21396,327.31665,71,77,0
327.3211,327.42377,72,77,0
327.42825,327.82556,74,77,0
327.8568,328.647,75,127,0
327.8568,328.647,63,127,0
328.71396,328.88806,76,93,0
328.71396,328.88806,65,93,0
329.14252,329.31662,77,93,0
329.14252,329.31662,65,93,0
329.5711,329.7452,78,93,0
329.5711,329.7452,66,93,0
329.99966,330.17377,79,93,0
329.99966,330.17377,67,93,0
330.99966,331.1336,53,69,0
331.14252,331.27646,56,69,0
331.28537,331.4193,59,69,0
331.42825,331.56216,56,69,0
331.5711,331.70502,53,69,0
331.71396,331.84787,59,69,0
331.8568,331.99075,55,69,0
331.99966,332.1336,51,69,0
332.14252,332.27646,59,69,0
332.28537,332.4193,53,69,0
332.42825,332.56216,50,69,0
332.71396,332.84787,48,69,0
332.8568,332.99075,51,69,0
332.99966,333.1336,55,69,0
333.14252,333.27646,60,69,0
333.28537,333.4193,62,69,0
333.42825,333.56216,63,69,0
333.5711,333.70502,62,69,0
333.71396,333.84787,60,69,0
333.8568,333.99072,58,69,0
333.99966,334.1336,56,69,0
334.14252,334.27646,55,69,0
334.28537,334.4193,53,69,0
334.42822,334.56216,55,69,0
334.5711,334.70502,57,69,0
334.71396,334.84787,60,69,0
334.8568,334.99072,62,69,0
334.99966,335.1336,63,69,0
335.14252,335.27646,65,69,0
335.28537,335.4193,63,69,0
335.42822,335.56216,62,69,0
335.5711,335.70502,60,69,0
335.71396,335.84787,58,69,0
335.8568,335.99072,56,69,0
336.14252,336.27646,55,69,0
336.28537,336.4193,58,69,0
336.42822,336.56216,63,69,0
336.5711,336.70502,67,69,0
336.71396,336.84787,55,69,0
336.99966,337.1336,57,69,0
337.14252,337.27646,60,69,0
337.28537,337.4193,65,69,0
337.42822,337.56216,69,69,0
337.5711,337.70502,57,69,0
337.8568,337.99966,58,69,0
337.99966,338.13358,61,69,0
338.28537,338.42822,60,69,0
338.42822,338.56216,66,69,0
338.71396,338.8568,62,69,0
338.8568,338.99072,65,69,0
339.14252,339.28537,62,69,0
339.28537,339.4193,70,69,0
339.42822,339.82556,67,69,0
339.42822,339.82556,63,69,0
341.3568,341.5577,53,69,0
341.57108,341.77197,62,69,0
341.57108,341.77197,58,69,0
341.78537,341.98627,53,69,0
341.99966,342.20056,62,69,0
341.99966,342.20056,58,69,0
342.21396,342.41483,53,69,0
342.42822,342.62912,63,69,0
342.42822,342.62912,57,69,0
342.64252,342.8434,53,69,0
342.8568,342.99072,53,69,0
342.99966,343.13358,58,69,0
343.14252,343.27643,62,69,0
343.28537,343.4193,58,93,0
343.42822,343.56216,62,93,0
343.57108,343.70502,65,93,0
343.71393,343.84787,58,93,0
343.8568,343.99072,63,93,0
343.99966,344.13358,67,93,0
344.14252,344.27643,60,93,0
344.28537,344.4193,64,93,0
344.42822,344.56216,70,93,0
344.57108,344.70502,60,93,0
344.71393,344.84787,65,93,0
344.8568,344.99072,69,93,0
344.99966,345.13358,62,93,0
345.14252,345.27643,69,93,0
345.28537,345.4193,72,93,0
345.42822,345.60233,70,93,0
345.42822,345.60233,67,93,0
347.14252,347.31662,67,77,0
347.57108,347.74518,67,77,0
347.99966,348.05322,67,77,0
348.05322,348.79877,75,77,0
348.85678,349.0309,68,77,0
349.28537,349.45947,68,77,0
349.71393,349.76752,68,77,0
349.76752,350.51303,77,77,0
350.57108,350.74518,70,77,0
350.99963,351.17377,70,77,0
351.42822,351.48178,70,77,0
351.48178,352.22733,79,77,0
352.28537,352.33893,69,77,0
352.33893,353.08447,77,77,0
353.14252,353.19608,67,77,0
353.19608,353.24963,76,77,0
353.24963,353.54877,76,77,0
353.57108,353.96838,75,77,0
353.99963,354.05322,70,77,0
354.05322,354.79877,74,77,0
354.99963,355.13358,60,77,0
355.14252,355.27643,62,77,0
355.28537,355.41928,63,78,0
355.42822,355.56213,65,78,0
355.57108,355.705,67,79,0
355.71393,355.84787,69,80,0
355.85678,355.99072,71,80,0
355.99963,356.13358,72,81,0
356.1425,356.27643,74,82,0
356.28537,356.41928,75,82,0
356.42822,356.56213,76,83,0
356.57108,356.705,77,84,0
356.71393,356.84787,78,84,0
356.85678,356.99072,79,85,0
356.99963,357.13358,80,86,0
357.1425,357.27643,81,86,0
357.28537,357.41928,82,87,0
357.42822,357.56213,83,88,0
357.57108,357.705,84,88,0
357.71393,357.84787,85,89,0
357.85678,357.99072,86,90,0
357.99963,358.13358,87,90,0
358.1425,358.27643,84,91,0
358.28537,358.41928,85,93,0
358.42822,358.56213,82,93,0
358.57108,358.705,79,93,0
358.71393,358.84787,82,93,0
358.85678,358.99072,79,93,0
358.99963,359.13358,76,93,0
359.1425,359.27643,79,93,0
359.28537,359.41928,76,93,0
359.42822,359.56213,73,93,0
359.57108,359.705,76,93,0
359.71393,359.84784,73,93,0
359.85678,359.99072,70,93,0
359.99963,360.13358,73,93,0
360.1425,360.27643,70,93,0
360.28534,360.41928,67,93,0
360.42822,360.56213,70,93,0
360.57108,360.705,67,93,0
360.71393,360.84784,64,93,0
360.85678,360.99072,67,93,0
360.99963,361.13358,64,93,0
361.1425,361.27643,61,93,0
361.28534,361.41928,64,93,0
361.42822,361.56213,61,93,0
361.57108,361.705,58,93,0
361.85678,361.99072,58,93,0
361.99963,362.13358,62,93,0
362.1425,362.27643,65,93,0
362.28534,362.41928,70,93,0
362.42822,362.56213,74,93,0
362.57108,362.705,77,93,0
362.71393,362.84784,82,93,0
362.85678,362.99072,86,93,0
362.99963,363.13358,89,93,0
363.1425,363.27643,86,93,0
363.28534,363.41928,82,93,0
363.42822,363.51303,86,93,0
363.5175,363.60233,84,93,0
363.60678,363.6916,86,93,0
363.69608,363.78088,84,93,0
363.78534,363.86572,86,93,0
363.87018,363.95053,84,93,0
363.955,364.03534,86,93,0
364.03983,364.12018,84,93,0
364.12463,364.205,86,93,0
364.20944,364.28983,84,93,0
364.29428,364.37463,86,93,0
364.3791,364.45944,84,93,0
364.46393,364.54428,86,93,0
364.54874,364.6291,84,93,0
364.63358,364.71393,86,93,0
364.71838,364.79874,84,93,0
364.8032,364.88358,86,93,0
364.88803,364.96838,84,93,0
364.97284,365.0532,82,93,0
365.05768,365.13803,84,93,0
365.1425,365.27643,82,93,0
365.28534,365.41928,89,93,0
365.4282,365.56213,87,93,0
365.57108,365.705,86,93,0
365.71393,365.84784,84,93,0
365.85678,365.9907,82,93,0
365.99963,366.13358,81,93,0
366.1425,366.27643,79,93,0
366.28534,366.41928,77,93,0
366.4282,366.56213,75,93,0
366.57108,366.705,74,93,0
366.71393,366.84784,72,93,0
366.85678,367.2541,70,93,0
367.71393,368.11124,72,93,0
367.71393,368.11124,69,93,0
367.71393,368.11124,65,93,0
368.71393,368.84784,89,93,0
368.85678,368.9907,87,93,0
368.99963,369.13354,86,93,0
369.1425,369.27643,84,93,0
369.28534,369.41928,82,93,0
369.4282,369.56213,81,93,0
369.57104,369.705,79,93,0
369.71393,369.84784,77,93,0
369.85678,369.9907,75,93,0
369.99963,370.13354,74,93,0
370.1425,370.27643,72,93,0
370.28534,370.68268,70,93,0
371.1425,371.5398,72,93,0
371.1425,371.5398,69,93,0
371.1425,371.5398,65,93,0
372.1425,372.27643,89,93,0
372.28534,372.41928,87,90,0
372.4282,372.56213,86,88,0
372.57104,372.705,84,86,0
372.71393,372.84784,82,84,0
372.85678,372.9907,81,82,0
372.99963,373.13354,79,80,0
373.1425,373.2764,77,78,0
373.28534,373.41928,75,76,0
373.4282,373.56213,74,74,0
373.57104,373.705,72,72,0
373.7139,374.11124,70,69,0
376.28534,376.45944,77,93,0
376.7139,376.88803,77,93,0
377.1425,377.19604,77,93,0
377.19604,377.9416,86,93,0
377.99963,378.0532,75,93,0
378.0532,378.79874,84,93,0
378.85675,378.91034,74,93,0
378.91034,379.263,82,93,0
379.7139,379.888,77,93,0
380.1425,380.3166,77,93,0
380.57104,380.62463,77,93,0
380.62463,381.37015,86,93,0
381.4282,381.48175,75,93,0
381.48175,382.2273,84,93,0
382.28534,382.3389,74,93,0
382.3389,382.6916,82,93,0
383.1425,383.3166,77,93,0
383.57104,383.74515,77,93,0
383.9996,384.0532,77,93,0
384.0532,384.79874,86,93,0
384.85675,384.91034,75,93,0
384.91034,385.65585,84,93,0
385.7139,385.7675,74,93,0
385.7675,385.8657,82,93,0
385.9282,385.99515,84,69,0
385.9996,386.0666,82,69,0
386.07104,386.138,81,69,0
386.14246,386.34335,82,69,0
386.35675,386.44604,86,69,0
386.57104,386.66034,79,69,0
386.78534,386.8523,81,69,0
386.85675,386.9237,79,69,0
386.9282,386.99515,78,69,0
386.9996,387.2005,79,69,0
387.2139,387.3032,82,69,0
387.4282,387.51746,74,69,0
387.64246,387.70944,75,69,0
387.7139,387.78085,74,69,0
387.78534,387.8523,72,69,0
387.85675,388.05765,74,69,0
388.07104,388.16034,77,69,0
388.28534,388.3746,69,69,0
388.4996,388.5666,70,69,0
388.57104,388.638,69,69,0
388.64246,388.70944,67,69,0
388.7139,388.9148,69,69,0
388.9282,389.01746,72,69,0
389.14246,389.5398,82,93,0
389.14246,389.5398,77,93,0
389.14246,389.5398,70,93,0
389.9996,390.39694,79,93,0
389.9996,390.39694,75,93,0
389.9996,390.39694,70,93,0
390.85675,391.25406,77,93,0
390.85675,391.25406,74,93,0
390.85675,391.25406,70,93,0
391.7139,392.1112,69,93,0
391.7139,392.1112,63,93,0
391.7139,392.1112,60,93,0
392.57104,392.77194,50,69,0
392.7853,392.9862,58,69,0
392.9996,393.2005,53,69,0
393.2139,393.4148,58,69,0
393.4282,393.62906,50,69,0
393.64246,393.84335,58,69,0
393.85675,394.05765,53,69,0
394.07104,394.27194,58,69,0
394.2853,394.4862,50,69,0
394.4996,394.7005,58,69,0
394.7139,394.9148,53,69,0
394.92816,395.12906,58,69,0
395.14246,395.34335,50,69,0
395.35675,395.55765,58,69,0
395.57104,395.7719,53,69,0
395.7853,395.9862,58,69,0
395.9996,396.2005,51,69,0
396.2139,396.4148,58,69,0
396.42816,396.62906,63,69,0
396.64246,396.84335,58,69,0
396.85675,397.05765,55,69,0
397.07104,397.2719,58,69,0
397.2853,397.4862,51,69,0
397.4996,397.7005,58,69,0
397.7139,397.9148,51,69,0
397.92816,398.12906,55,69,0
398.14246,398.34335,57,69,0
398.35675,398.55765,58,69,0
398.57104,398.7719,60,69,0
398.7853,398.9862,57,69,0
398.9996,399.2005,53,69,0
399.2139,399.41476,57,69,0
399.42816,399.62906,50,69,0
399.64246,399.84335,58,69,0
399.85675,400.05765,53,69,0
400.071,400.2719,58,69,0
400.2853,400.4862,62,69,0
400.4996,400.7005,58,69,0
400.7139,400.91476,62,69,0
400.92816,401.12906,58,69,0
401.14246,401.34335,50,69,0
401.35675,401.55765,58,69,0
401.571,401.7719,53,69,0
401.7853,401.9862,58,69,0
401.9996,402.2005,50,69,0
402.2139,402.41476,58,69,0
402.42816,402.62906,53,69,0
402.64246,402.84335,58,69,0
402.85675,403.05765,51,69,0
403.071,403.2719,58,69,0
403.2853,403.4862,63,69,0
403.4996,403.7005,58,69,0
403.71387,403.91476,60,69,0
403.92816,404.12906,58,69,0
404.14246,404.34335,51,69,0
404.35675,404.55762,58,69,0
404.571,404.7719,51,69,0
404.7853,404.9862,55,69,0
404.9996,405.2005,57,69,0
405.21387,405.41476,58,69,0
405.42816,405.62906,60,69,0
405.64246,405.84335,57,69,0
405.85675,406.05762,53,69,0
406.071,406.2719,57,69,0
406.2853,406.41925,70,93,0
406.42816,406.5621,62,93,0
406.571,406.70496,58,93,0
406.71387,406.8478,72,93,0
406.85675,406.99066,69,93,0
406.9996,407.1335,65,93,0
407.14246,407.27637,74,93,0
407.2853,407.41925,70,93,0
407.42816,407.5621,65,93,0
407.571,407.70496,75,93,0
407.71387,407.8478,72,93,0
407.85672,407.99066,69,93,0
407.9996,408.1335,82,93,0
408.14246,408.27637,74,93,0
408.2853,408.41922,70,93,0
408.42816,408.5621,84,93,0
408.571,408.70496,81,93,0
408.71387,408.8478,77,93,0
408.85672,408.99066,86,93,0
408.9996,409.1335,82,93,0
409.14246,409.27637,77,93,0
409.2853,409.41922,87,93,0
409.42816,409.5621,84,93,0
409.571,409.70496,81,93,0
409.71387,410.1112,82,93,0
410.571,410.96835,86,93,0
410.571,410.96835,82,93,0
410.571,410.96835,77,93,0
411.42816,412.21832,82,93,0
411.42816,412.21832,77,93,0
411.42816,412.21832,74,93,0
96.21419,96.415085,57,64,0
96.428474,96.629364,60,64,0
96.64276,96.84365,57,64,0
96.85705,97.05794,60,64,0
97.071335,97.272224,57,64,0
97.285614,97.48651,60,64,0
97.4999,97.7008,58,64,0
2.142855,2.540176,70,69,0
2.999997,3.3973181,66,69,0
3.857139,4.647317,67,69,0
4.714281,5.111602,69,69,0
5.142852,6.3258867,70,69,0
6.428565,6.8258862,69,69,0
6.857136,7.254457,70,69,0
6.857136,7.254457,58,69,0
8.142849,8.57142,57,69,0
8.142849,8.57142,51,69,0
8.57142,8.968741,58,69,0
8.142849,8.968741,53,69,0
8.57142,8.968741,50,69,0
9.857133,10.285704,57,69,0
9.857133,10.285704,51,69,0
10.285704,10.683025,58,69,0
9.857133,10.683025,53,69,0
10.285704,10.683025,50,69,0
11.999988,12.790166,69,69,0
12.85713,14.111593,70,69,0
14.142843,14.540164,69,69,0
15.857127,16.254448,58,93,0
15.857127,16.254448,46,93,0
16.71427,17.11159,54,93,0
16.71427,17.11159,42,93,0
17.571411,17.968733,55,93,0
17.571411,17.968733,43,93,0
17.999983,18.79016,51,93,0
17.999983,18.79016,39,93,0
18.857124,19.254444,50,93,0
18.857124,19.254444,38,93,0
19.285694,19.683016,55,93,0
19.285694,19.683016,43,93,0
19.714266,20.111588,48,93,0
19.714266,20.111588,36,93,0
20.142838,20.540157,53,93,0
20.142838,20.540157,41,93,0
20.571407,21.361586,46,93,0
20.571407,21.361586,34,93,0
21.85712,22.285692,51,93,0
21.85712,22.285692,39,93,0
22.285692,22.683014,50,93,0
22.285692,22.683014,38,93,0
23.571405,23.999975,51,93,0
23.571405,23.999975,39,93,0
23.999975,24.397297,50,93,0
23.999975,24.397297,38,93,0
25.71426,27.294615,53,93,0
25.71426,27.294615,41,93,0
27.428543,27.825865,58,93,0
27.428543,27.825865,46,93,0
29.142828,30.723183,53,93,0
29.142828,30.723183,41,93,0
30.857113,31.254433,46,93,0
30.857113,31.254433,34,93,0
31.285683,31.683004,58,93,0
32.571396,34.151752,76,69,0
32.571396,34.151752,72,69,0
32.571396,34.151752,70,69,0
34.28568,35.866035,77,69,0
34.28568,35.866035,72,69,0
34.28568,35.866035,69,69,0
36.428535,36.602642,77,69,0
36.428535,36.602642,74,69,0
36.428535,36.602642,70,69,0
37.28568,37.459785,77,69,0
37.28568,37.459785,74,69,0
37.28568,37.459785,71,69,0
37.71425,38.11157,76,69,0
37.71425,38.11157,72,69,0
38.14282,39.325855,77,127,0
38.14282,39.325855,69,127,0
39.8571,40.03121,77,69,0
39.8571,40.03121,74,69,0
39.8571,40.03121,70,69,0
40.714245,40.88835,77,69,0
40.714245,40.88835,74,69,0
40.714245,40.88835,71,69,0
41.142815,41.54014,76,69,0
41.142815,41.54014,72,69,0
41.57139,42.75442,77,127,0
41.57139,42.75442,69,127,0
43.28567,43.459778,77,69,0
43.28567,43.459778,74,69,0
43.28567,43.459778,70,69,0
44.142815,44.31692,77,69,0
44.142815,44.31692,74,69,0
44.142815,44.31692,71,69,0
44.571384,44.968704,76,69,0
44.571384,44.968704,72,69,0
45.857098,46.285667,77,69,0
45.857098,46.285667,74,69,0
45.857098,46.285667,67,69,0
46.285667,46.682987,76,69,0
46.285667,46.682987,72,69,0
47.57138,47.99995,65,69,0
47.57138,47.99995,62,69,0
47.57138,47.99995,55,69,0
47.99995,48.397274,64,69,0
47.99995,48.397274,60,69,0
49.285664,49.714237,65,69,0
49.285664,49.714237,62,69,0
49.285664,49.714237,55,69,0
49.714237,50.111557,64,69,0
49.714237,50.111557,60,69,0
50.99995,51.42852,53,69,0
50.99995,51.42852,50,69,0
50.99995,51.42852,43,69,0
51.42852,51.82584,52,69,0
51.42852,51.82584,48,69,0
56.571373,56.968693,53,69,0
56.571373,56.968693,41,69,0
58.285656,58.682976,53,69,0
58.285656,58.682976,41,69,0
59.99994,60.397263,53,69,0
59.99994,60.397263,41,69,0
61.714226,62.111546,53,69,0
61.714226,62.111546,41,69,0
63.42851,63.82583,53,69,0
63.42851,63.82583,41,69,0
65.14279,65.540115,53,69,0
65.14279,65.540115,41,69,0
65.99993,66.397255,59,69,0
65.99993,66.397255,47,69,0
66.85708,68.04011,60,69,0
66.85708,68.04011,48,69,0
68.57136,68.772255,41,69,0
68.785645,68.98654,53,69,0
68.99993,69.20082,45,69,0
69.21422,69.41511,53,69,0
69.428505,69.629395,48,69,0
69.642784,69.84368,53,69,0
69.85707,70.05797,45,69,0
70.07136,70.272255,53,69,0
70.285645,70.486534,41,69,0
70.49993,70.70082,53,69,0
70.71422,70.91511,45,69,0
70.9285,71.129395,53,69,0
71.142784,71.34368,48,69,0
71.35707,71.55796,53,69,0
71.57136,71.77225,45,69,0
71.785645,71.986534,53,69,0
71.99993,72.20082,41,69,0
72.21421,72.41511,53,69,0
72.4285,72.629395,50,69,0
72.642784,72.84367,53,69,0
72.85707,73.05796,46,69,0
73.07136,73.27225,53,69,0
73.285645,73.486534,50,69,0
73.49992,73.70082,53,69,0
73.71421,73.91511,41,69,0
73.9285,74.12939,53,69,0
74.142784,74.34367,49,69,0
74.35707,74.55796,53,69,0
74.57136,74.77225,46,69,0
74.78564,74.986534,53,69,0
74.99992,75.20082,49,69,0
75.21421,75.4151,53,69,0
75.4285,75.62939,41,69,0
75.642784,75.84367,53,69,0
75.85706,76.05796,43,69,0
76.07135,76.27225,53,69,0
76.28564,76.486534,46,69,0
76.49992,76.70081,53,69,0
76.71421,76.9151,43,69,0
76.9285,77.12939,53,69,0
77.14278,77.5401,41,69,0
77.99992,78.39724,65,69,0
77.99992,78.39724,59,69,0
78.85706,79.25439,65,69,0
79.28564,80.468666,65,127,0
80.57135,80.968666,65,69,0
80.57135,80.968666,57,69,0
81.42849,81.82581,65,69,0
81.42849,81.82581,58,69,0
82.28563,82.68295,65,69,0
82.28563,82.68295,60,69,0
82.7142,83.50438,65,127,0
82.7142,83.50438,62,127,0
83.57134,83.74545,55,93,0
83.57134,83.74545,43,93,0
83.999916,84.17403,60,93,0
83.999916,84.17403,48,93,0
84.42849,84.60259,57,93,0
84.42849,84.60259,45,93,0
84.857056,85.031166,58,93,0
84.857056,85.031166,46,93,0
85.7142,87.294556,50,69,0
85.7142,87.294556,38,69,0
87.42848,89.00884,43,69,0
89.14277,90.72312,45,69,0
90.857056,91.64723,46,69,0
91.714195,92.50437,48,69,0
92.571335,92.96866,50,69,0
92.99991,93.397224,52,69,0
93.428474,93.8258,53,69,0
93.85705,94.25437,50,69,0
94.28562,94.68294,46,69,0
95.9999,97.58026,48,69,0
95.9999,97.58026,36,69,0
97.71419,97.8883,53,69,0
97.71419,97.8883,41,69,0
98.14276,98.316864,51,93,0
98.14276,98.316864,39,93,0
98.57133,98.74544,50,93,0
98.57133,98.74544,38,93,0
98.9999,99.17401,49,93,0
98.9999,99.17401,37,93,0
99.428474,99.60258,48,93,0
99.428474,99.60258,36,93,0
99.85704,100.03115,45,93,0
99.85704,100.03115,33,93,0
100.285614,100.459724,46,93,0
100.285614,100.459724,34,93,0
101.14275,102.723114,50,93,0
101.14275,102.723114,38,93,0
102.85704,104.04008,55,77,0
102.85704,104.04008,43,77,0
104.14275,104.54008,55,77,0
104.14275,104.54008,43,77,0
104.57133,105.75436,57,77,0
104.57133,105.75436,45,77,0
105.85704,106.25436,57,77,0
105.85704,106.25436,45,77,0
106.28561,106.68293,58,77,0
106.28561,106.68293,46,77,0
107.14275,107.54007,60,77,0
107.14275,107.54007,48,77,0
107.99989,108.39722,56,77,0
107.99989,108.39722,50,77,0
108.42847,108.82578,61,77,0
108.42847,108.82578,52,77,0
108.85703,109.25436,60,77,0
108.85703,109.25436,53,77,0
109.28561,109.68292,62,77,0
109.28561,109.68292,50,77,0
109.71417,110.111496,58,77,0
112.2856,112.45971,60,77,0
112.71417,112.88828,60,77,0
113.142746,113.19631,60,77,0
113.19631,113.950775,69,77,0
113.999886,114.05346,58,77,0
114.05346,114.80792,67,77,0
114.857025,114.9106,57,77,0
114.9106,115.25881,65,77,0
117.42845,117.60256,60,77,0
117.857025,118.031136,60,77,0
118.2856,118.339165,60,77,0
118.339165,119.09363,69,77,0
119.14274,119.19631,58,77,0
119.19631,119.950775,67,77,0
119.99988,120.05345,57,77,0
120.05345,120.401665,65,77,0
124.28559,125.14273,72,77,0
125.14273,125.540054,70,77,0
124.28559,125.540054,65,77,0
125.99987,126.85702,76,77,0
126.85702,127.25433,75,77,0
125.99987,127.25433,65,77,0
127.71416,128.5713,75,77,0
128.5713,128.96863,74,77,0
127.71416,128.96863,65,77,0
129.42844,130.28558,70,77,0
130.28558,130.6829,69,77,0
129.42844,130.6829,65,77,0
137.57129,137.96861,70,77,0
138.42844,138.82576,66,77,0
139.28557,140.07576,67,77,0
140.14272,140.54004,69,77,0
140.57129,141.75432,70,77,0
141.857,142.25432,69,77,0
142.28557,142.68289,70,77,0
142.28557,142.68289,58,77,0
143.57129,143.99986,57,77,0
143.57129,143.99986,51,77,0
143.99986,144.39717,58,77,0
143.57129,144.39717,53,77,0
143.99986,144.39717,50,77,0
145.28557,145.71414,57,77,0
145.28557,145.71414,51,77,0
145.71414,146.11147,58,77,0
145.28557,146.11147,53,77,0
145.71414,146.11147,50,77,0
147.42842,148.2186,69,77,0
148.28557,149.54002,70,77,0
149.57127,149.9686,69,77,0
151.28557,151.68288,58,93,0
151.28557,151.68288,46,93,0
152.1427,152.54002,54,93,0
152.1427,152.54002,42,93,0
152.99985,153.39717,55,93,0
152.99985,153.39717,43,93,0
153.42842,154.2186,51,93,0
153.42842,154.2186,39,93,0
154.28555,154.68288,50,93,0
154.28555,154.68288,38,93,0
154.71413,155.11145,55,93,0
154.71413,155.11145,43,93,0
155.1427,155.54002,48,93,0
155.1427,155.54002,36,93,0
155.57127,155.9686,53,93,0
155.57127,155.9686,41,93,0
155.99985,156.79002,46,93,0
155.99985,156.79002,34,93,0
157.28555,157.71413,51,93,0
157.28555,157.71413,39,93,0
157.71413,158.11145,50,93,0
157.71413,158.11145,38,93,0
158.99985,159.4284,66,69,0
158.99985,159.4284,63,69,0
159.4284,159.82573,65,69,0
159.4284,159.82573,62,69,0
160.71413,161.1427,53,93,0
160.71413,161.1427,41,93,0
161.1427,161.54002,51,93,0
161.1427,161.54002,39,93,0
162.4284,162.85698,68,69,0
162.4284,162.85698,65,69,0
162.85698,163.2543,67,69,0
162.85698,163.2543,63,69,0
164.1427,164.57126,55,93,0
164.1427,164.57126,43,93,0
164.57126,164.96858,54,93,0
164.57126,164.96858,42,93,0
165.85698,166.28555,70,69,0
165.85698,166.28555,67,69,0
166.28555,166.68288,69,69,0
166.28555,166.68288,66,69,0
167.57126,167.99983,60,69,0
167.57126,167.99983,48,69,0
167.99983,168.39716,58,69,0
167.99983,168.39716,46,69,0
168.85698,169.05786,45,93,0
169.07126,169.27216,46,93,0
169.28554,169.48643,48,93,0
169.49983,169.70073,45,93,0
169.71411,169.91501,50,93,0
169.9284,170.12929,46,93,0
170.14268,170.23198,43,93,0
170.35698,170.44626,43,93,0
174.99983,175.13376,67,93,0
175.14268,175.27661,65,93,0
175.28554,175.41946,63,93,0
175.42839,175.56232,62,93,0
175.57126,175.70518,60,93,0
175.71411,175.84804,59,93,0
175.85696,175.99089,56,93,0
175.99982,176.13376,55,93,0
176.14268,176.27661,53,93,0
176.28554,176.41946,51,93,0
176.42839,176.56232,50,93,0
176.57126,176.70518,48,93,0
176.71411,176.84804,51,93,0
176.85696,176.99089,55,93,0
176.99982,177.13376,46,93,0
177.14268,177.27661,52,93,0
177.28554,177.41946,55,93,0
177.42839,177.56232,45,93,0
177.57126,177.70518,48,93,0
177.71411,177.84804,53,93,0
177.85696,177.99089,43,93,0
177.99982,178.13374,46,93,0
178.14268,178.27661,52,93,0
178.28554,178.68286,41,93,0
179.14268,179.54,48,93,0
179.99982,180.39714,53,93,0
181.85696,181.99089,65,93,0
181.99982,182.13374,63,93,0
182.14267,182.2766,62,93,0
182.28554,182.41946,60,93,0
182.42839,182.56232,58,93,0
182.57124,182.70517,57,93,0
182.7141,182.84804,55,93,0
182.85696,182.99089,53,93,0
182.99982,183.13374,51,93,0
183.14267,183.2766,50,93,0
183.28554,183.41946,48,93,0
183.42839,183.56232,46,93,0
183.57124,183.70517,50,91,0
183.7141,183.84804,53,90,0
183.85696,183.99089,44,88,0
183.99982,184.13374,50,87,0
184.14267,184.2766,53,85,0
184.28552,184.41946,43,84,0
184.42839,184.56232,46,82,0
184.57124,184.70517,51,81,0
184.7141,184.84802,41,79,0
184.85696,184.99089,44,78,0
184.99982,185.13374,50,76,0
185.14267,185.54,39,75,0
186.85695,187.25427,51,69,0
186.85695,187.25427,39,69,0
188.57124,188.96857,51,69,0
188.57124,188.96857,39,69,0
190.28552,190.68285,51,69,0
190.28552,190.68285,39,69,0
191.9998,192.39713,51,69,0
191.9998,192.39713,39,69,0
193.7141,194.11142,51,69,0
193.7141,194.11142,39,69,0
194.57123,194.96855,57,69,0
194.57123,194.96855,45,69,0
195.42838,196.28552,58,69,0
195.42838,196.28552,46,69,0
196.28552,196.68285,59,69,0
196.28552,196.68285,47,69,0
197.14265,197.9998,65,69,0
197.9998,198.39713,64,69,0
197.14265,198.39713,60,69,0
198.85695,199.05783,41,69,0
199.07123,199.27213,53,69,0
199.28552,199.4864,44,69,0
199.4998,199.7007,53,69,0
199.71408,199.91498,48,69,0
199.92838,200.12926,53,69,0
200.14265,200.34355,44,69,0
200.35695,200.55783,53,69,0
200.57123,200.77213,41,69,0
200.7855,200.9864,53,69,0
200.9998,201.2007,44,69,0
201.21408,201.41498,53,69,0
201.42838,201.62926,48,69,0
201.64265,201.84355,53,69,0
201.85693,202.05783,44,69,0
202.07123,202.27213,53,69,0
202.2855,202.4864,41,69,0
202.4998,202.70068,53,69,0
202.71408,202.91498,49,69,0
202.92838,203.12926,53,69,0
203.14265,203.34355,46,69,0
203.35693,203.55783,53,69,0
203.57123,203.77213,49,69,0
203.7855,203.9864,53,69,0
203.9998,204.20068,41,69,0
204.21408,204.41498,53,69,0
204.42836,204.62926,49,69,0
204.64265,204.84355,53,69,0
204.85693,205.05783,46,69,0
205.07123,205.27211,53,69,0
205.2855,205.4864,49,69,0
205.4998,205.70068,53,69,0
205.71408,205.91498,41,69,0
205.92836,206.12926,53,69,0
206.14265,206.34354,43,69,0
206.35693,206.55783,53,69,0
206.57123,206.77211,46,69,0
206.7855,206.9864,53,73,0
206.99979,207.20068,43,77,0
207.21408,207.41498,53,81,0
207.42836,207.82568,41,85,0
208.07123,208.2855,41,93,0
208.2855,208.49979,44,109,0
208.49979,208.58908,43,93,0
208.71408,208.80336,41,93,0
208.92836,209.01765,39,93,0
209.14265,209.53996,38,93,0
209.7855,209.99979,53,93,0
209.99979,210.21408,58,109,0
210.21408,210.30336,56,93,0
210.42836,210.51764,55,93,0
210.64264,210.73193,53,93,0
210.85693,211.25426,51,93,0
211.49979,211.71408,34,93,0
211.71408,211.92836,39,109,0
211.92836,212.01764,38,93,0
212.14264,212.23193,36,93,0
212.35693,212.44621,34,93,0
212.57121,212.96854,32,93,0
213.21407,213.42836,51,93,0
213.42836,213.64264,56,109,0
213.64264,213.73193,55,93,0
213.85693,213.94621,53,93,0
214.07121,214.1605,51,93,0
214.2855,214.68282,50,93,0
214.92836,215.14264,33,93,0
215.14264,215.35693,38,109,0
215.35693,215.44621,36,93,0
215.57121,215.66049,35,93,0
215.78549,215.87479,33,93,0
215.99979,216.39711,31,93,0
216.64264,216.85693,50,93,0
216.85693,217.07121,55,109,0
217.07121,217.16049,53,93,0
217.28549,217.37479,51,93,0
217.49979,217.58907,50,93,0
217.71407,218.11139,48,93,0
218.57121,218.96854,53,93,0
218.57121,218.96854,41,93,0
219.42834,219.82567,46,93,0
219.42834,219.82567,34,93,0
220.28549,220.68282,51,93,0
220.28549,220.68282,39,93,0
221.14264,221.53996,45,93,0
221.14264,221.53996,33,93,0
221.99977,222.3971,50,93,0
221.99977,222.3971,38,93,0
222.85692,223.25424,43,93,0
222.85692,223.25424,31,93,0
223.71407,224.11139,48,93,0
223.71407,224.11139,36,93,0
224.5712,226.15157,53,93,0
224.5712,226.15157,41,93,0
226.28549,227.86584,48,93,0
226.28549,227.86584,36,93,0
227.99977,228.3971,41,69,0
227.99977,228.3971,29,69,0
229.71405,230.11137,53,69,0
229.71405,230.11137,41,69,0
233.14262,233.2319,58,93,0
233.14262,233.2319,55,93,0
233.3569,233.4462,57,90,0
233.3569,233.4462,53,90,0
233.5712,233.66048,55,87,0
233.5712,233.66048,52,87,0
233.78548,233.87477,53,84,0
233.78548,233.87477,50,84,0
233.99977,234.08905,52,81,0
233.99977,234.08905,48,81,0
234.21405,234.30334,50,78,0
234.21405,234.30334,46,78,0
234.42833,234.51762,48,75,0
234.42833,234.51762,45,75,0
234.64262,234.7319,46,72,0
234.64262,234.7319,43,72,0
234.8569,235.25423,45,69,0
234.8569,235.25423,41,69,0
235.71405,236.5712,72,69,0
236.5712,236.9685,70,69,0
235.71405,236.9685,65,69,0
237.42833,238.28548,76,69,0
238.28548,238.6828,75,69,0
237.42833,238.6828,65,69,0
239.14262,239.99976,75,69,0
239.99976,240.39708,74,69,0
239.14262,240.39708,65,69,0
240.8569,241.71405,70,69,0
241.71405,242.11136,69,69,0
240.8569,242.11136,65,69,0
248.99976,249.39708,70,69,0
249.85689,250.25421,66,69,0
250.71404,251.50421,67,69,0
251.57118,251.96849,69,69,0
251.99974,253.18279,70,69,0
253.28546,253.68279,69,69,0
253.71404,254.11136,70,69,0
253.71404,254.11136,58,69,0
254.99974,255.42831,57,69,0
254.99974,255.42831,51,69,0
255.42831,255.82564,58,69,0
254.99974,255.82564,53,69,0
255.42831,255.82564,50,69,0
256.71402,257.1426,57,69,0
256.71402,257.1426,51,69,0
257.1426,257.53992,58,69,0
256.71402,257.53992,53,69,0
257.1426,257.53992,50,69,0
258.85687,259.64706,69,69,0
259.71402,260.96848,70,69,0
260.99973,261.39706,69,69,0
262.71402,263.11136,58,69,0
262.71402,263.11136,46,69,0
263.57117,263.96848,54,69,0
263.57117,263.96848,42,69,0
264.4283,264.82562,55,69,0
264.4283,264.82562,43,69,0
264.85687,265.64706,51,69,0
264.85687,265.64706,39,69,0
265.71402,266.11133,50,69,0
265.71402,266.11133,38,69,0
266.14258,266.53992,55,69,0
266.14258,266.53992,43,69,0
266.57117,266.96848,48,69,0
266.57117,266.96848,36,69,0
266.99973,267.39706,53,69,0
266.99973,267.39706,41,69,0
267.4283,268.21848,46,69,0
267.4283,268.21848,34,69,0
268.71402,269.14258,51,69,0
268.71402,269.14258,39,69,0
269.14258,269.53992,50,69,0
269.14258,269.53992,38,69,0
270.4283,270.85687,51,69,0
270.4283,270.85687,39,69,0
270.85687,271.25418,50,69,0
270.85687,271.25418,38,69,0
272.57117,274.15152,53,69,0
272.57117,274.15152,41,69,0
274.28543,274.68277,58,69,0
274.28543,274.68277,46,69,0
275.99973,277.58008,53,69,0
275.99973,277.58008,41,69,0
277.71402,278.11133,46,69,0
277.71402,278.11133,34,69,0
278.14258,278.5399,58,69,0
279.42828,281.14258,74,69,0
279.42828,281.14258,68,69,0
281.14258,281.5399,75,69,0
279.42828,281.5399,70,69,0
281.14258,281.5399,67,69,0
282.85687,284.43723,71,69,0
282.85687,284.43723,68,69,0
282.85687,284.43723,65,69,0
284.57114,285.36133,70,69,0
284.57114,285.36133,67,69,0
284.57114,285.36133,64,69,0
285.42828,286.21848,69,69,0
285.42828,286.21848,66,69,0
285.42828,286.21848,63,69,0
286.28543,286.68274,70,69,0
286.28543,286.68274,65,69,0
286.28543,286.68274,62,69,0
288.42828,289.28543,60,127,0
288.42828,289.28543,54,127,0
289.28543,289.68274,58,69,0
289.28543,289.68274,55,69,0
289.714,290.50418,55,69,0
290.57114,291.36133,60,69,0
291.42828,291.8256,60,69,0
292.714,293.14258,70,69,0
292.714,293.14258,67,69,0
292.714,293.14258,60,69,0
293.14258,293.5399,69,69,0
293.14258,293.5399,65,69,0
294.42828,294.85684,58,69,0
294.42828,294.85684,55,69,0
294.42828,294.85684,48,69,0
294.85684,295.25418,57,69,0
294.85684,295.25418,53,69,0
296.14255,296.57114,46,69,0
296.14255,296.57114,43,69,0
296.14255,296.57114,36,69,0
296.57114,296.96844,45,69,0
296.57114,296.96844,41,69,0
301.714,302.1113,46,69,0
301.714,302.1113,34,69,0
302.57114,302.96844,46,69,0
302.57114,302.96844,34,69,0
303.42825,303.8256,46,69,0
303.42825,303.8256,34,69,0
304.2854,304.68274,46,69,0
304.2854,304.68274,34,69,0
305.14255,305.5399,46,69,0
305.14255,305.5399,34,69,0
305.9997,306.397,46,69,0
305.9997,306.397,34,69,0
306.85684,307.25415,46,69,0
306.85684,307.25415,34,69,0
307.714,308.1113,46,69,0
307.714,308.1113,34,69,0
308.5711,308.96844,46,69,0
308.5711,308.96844,34,69,0
309.42825,309.8256,46,69,0
309.42825,309.8256,34,69,0
310.2854,310.68274,46,69,0
310.2854,310.68274,34,69,0
311.14255,311.53986,52,69,0
311.14255,311.53986,40,69,0
311.9997,313.1827,53,69,0
311.9997,313.1827,41,69,0
313.71396,313.91486,34,69,0
313.92825,314.12915,46,69,0
314.14255,314.34344,38,69,0
314.35684,314.5577,46,69,0
314.5711,314.772,41,69,0
314.7854,314.9863,46,69,0
314.9997,315.2006,38,69,0
315.21396,315.41486,46,69,0
315.42825,315.62915,34,69,0
315.64255,315.84344,46,69,0
315.85684,316.0577,38,69,0
316.0711,316.272,46,69,0
316.2854,316.4863,41,69,0
316.4997,316.70056,46,69,0
316.71396,316.91486,38,69,0
316.92825,317.12915,46,69,0
317.14255,317.34344,34,69,0
317.3568,317.5577,46,69,0
317.5711,317.772,43,69,0
317.7854,317.9863,46,69,0
317.9997,318.20056,39,69,0
318.21396,318.41486,46,69,0
318.42825,318.62915,43,69,0
318.64255,318.84344,46,69,0
318.8568,319.0577,34,69,0
319.0711,319.272,46,69,0
319.2854,319.4863,39,69,0
319.4997,319.70056,46,69,0
319.71396,319.91486,42,69,0
319.92825,320.12915,46,69,0
320.14255,320.34344,39,69,0
320.3568,320.5577,46,69,0
320.5711,320.772,34,69,0
320.7854,320.9863,46,69,0
320.99966,321.20056,36,69,0
321.21396,321.41486,46,69,0
321.42825,321.62915,39,69,0
321.64255,321.8434,46,69,0
321.8568,322.0577,36,69,0
322.0711,322.272,46,69,0
322.2854,322.6827,34,69,0
323.14255,323.53986,70,69,0
323.14255,323.53986,64,69,0
323.99966,324.397,70,69,0
323.99966,324.397,65,69,0
324.42825,325.2184,70,127,0
324.42825,325.2184,67,127,0
325.2854,325.6827,58,69,0
325.2854,325.6827,51,69,0
325.71396,326.11127,58,69,0
325.71396,326.11127,50,69,0
326.5711,326.9684,58,69,0
326.5711,326.9684,51,69,0
327.42825,327.82556,58,69,0
327.42825,327.82556,53,69,0
327.8568,328.647,58,127,0
327.8568,328.647,55,127,0
328.71396,328.88806,48,93,0
328.71396,328.88806,36,93,0
329.14252,329.31662,53,93,0
329.14252,329.31662,41,93,0
329.5711,329.7452,50,93,0
329.5711,329.7452,38,93,0
329.99966,330.17377,51,93,0
329.99966,330.17377,39,93,0
330.8568,332.43716,43,69,0
330.8568,332.43716,31,69,0
332.5711,334.15146,36,69,0
334.28537,335.86572,38,69,0
335.99966,336.78986,39,69,0
336.8568,337.64697,41,69,0
337.71396,338.11127,43,69,0
338.14252,338.53983,45,69,0
338.57108,338.9684,46,69,0
338.99966,339.39697,43,69,0
339.42822,339.82556,39,69,0
341.14252,342.72287,41,69,0
342.8568,343.0309,46,69,0
343.28537,343.45947,56,93,0
343.28537,343.45947,44,93,0
343.71393,343.88806,55,93,0
343.71393,343.88806,43,93,0
344.14252,344.31662,54,93,0
344.14252,344.31662,42,93,0
344.57108,344.74518,53,93,0
344.57108,344.74518,41,93,0
344.99966,345.17377,50,93,0
344.99966,345.17377,38,93,0
345.42822,345.60233,51,93,0
345.42822,345.60233,39,93,0
346.28537,347.86572,43,69,0
346.28537,347.86572,31,69,0
347.99966,349.18268,48,69,0
347.99966,349.18268,36,69,0
349.28537,349.68268,48,69,0
349.28537,349.68268,36,69,0
349.71393,350.89697,50,69,0
349.71393,350.89697,38,69,0
350.99963,351.39697,50,69,0
350.99963,351.39697,38,69,0
351.42822,351.82553,51,69,0
351.42822,351.82553,39,69,0
352.28537,352.68268,53,69,0
353.14252,353.53983,61,69,0
353.14252,353.53983,55,69,0
353.57108,353.96838,66,69,0
353.57108,353.96838,57,69,0
353.99963,354.39697,65,69,0
353.99963,354.39697,58,69,0
354.42822,354.82553,67,69,0
354.42822,354.82553,55,69,0
354.85678,358.15143,55,69,0
354.85678,358.15143,51,69,0
358.28537,359.99963,61,93,0
358.28537,359.99963,52,93,0
359.99963,360.39697,62,93,0
358.28537,360.39697,58,93,0
358.28537,360.39697,55,93,0
359.99963,360.39697,51,93,0
361.28534,361.68268,55,93,0
361.28534,361.68268,43,93,0
361.71393,362.11124,53,93,0
361.71393,362.11124,41,93,0
363.42822,363.56213,65,93,0
363.57108,363.705,69,93,0
363.71393,363.84784,75,93,0
363.85678,363.99072,65,93,0
363.99963,364.13358,69,93,0
364.1425,364.27643,75,93,0
364.28534,364.41928,65,93,0
364.4282,364.56213,69,93,0
364.57108,364.705,75,93,0
364.71393,364.84784,65,93,0
364.85678,364.9907,69,93,0
364.99963,365.13358,75,93,0
365.1425,365.53983,74,93,0
365.1425,365.53983,70,93,0
366.99963,367.13358,65,93,0
367.1425,367.27643,63,93,0
367.28534,367.41928,62,93,0
367.4282,367.56213,60,93,0
367.57108,367.705,58,93,0
367.71393,367.84784,57,93,0
367.85678,367.9907,55,93,0
367.99963,368.13358,53,93,0
368.1425,368.27643,51,93,0
368.28534,368.41928,50,93,0
368.4282,368.56213,48,93,0
368.57104,368.96838,46,93,0
369.4282,369.82553,53,93,0
369.4282,369.82553,41,93,0
370.4282,370.56213,65,93,0
370.57104,370.705,63,93,0
370.71393,370.84784,62,93,0
370.85678,370.9907,60,93,0
370.99963,371.13354,58,93,0
371.1425,371.27643,57,93,0
371.28534,371.41928,55,93,0
371.4282,371.56213,53,93,0
371.57104,371.705,51,93,0
371.71393,371.84784,50,93,0
371.85678,371.9907,48,93,0
371.99963,372.39694,46,93,0
372.85678,373.2541,53,93,0
372.85678,373.2541,41,93,0
373.7139,374.5041,58,69,0
373.7139,374.5041,55,69,0
374.57104,375.4282,60,69,0
374.57104,375.4282,51,69,0
375.4282,376.21838,62,69,0
374.57104,376.21838,58,69,0
376.28534,377.07553,63,69,0
377.1425,377.5398,62,69,0
377.1425,377.5398,58,69,0
377.99963,378.17374,65,93,0
378.4282,378.6023,65,93,0
378.85675,378.91034,65,93,0
378.91034,379.65588,74,93,0
379.7139,379.7675,63,93,0
379.7675,380.513,72,93,0
380.57104,380.62463,62,93,0
380.62463,380.9773,70,93,0
381.4282,381.6023,65,93,0
381.85675,382.03085,65,93,0
382.28534,382.3389,65,93,0
382.3389,383.08444,74,93,0
383.1425,383.19604,63,93,0
383.19604,383.9416,72,93,0
383.9996,384.0532,62,93,0
384.0532,384.40585,70,93,0
385.07104,385.27194,54,93,0
385.28534,385.48624,57,93,0
385.4996,385.7005,54,93,0
385.7139,386.1112,58,93,0
385.7139,386.1112,55,93,0
386.57104,387.3612,51,69,0
386.57104,387.3612,39,69,0
387.4282,389.00854,53,69,0
387.4282,389.00854,41,69,0
389.14246,389.2764,38,93,0
389.28534,389.41925,50,93,0
389.4282,389.5621,49,93,0
389.57104,389.70496,50,93,0
389.7139,389.84784,49,93,0
389.85675,389.9907,50,93,0
389.9996,390.13354,38,93,0
390.14246,390.2764,51,93,0
390.2853,390.41925,50,93,0
390.4282,390.5621,51,93,0
390.57104,390.70496,50,93,0
390.7139,390.8478,51,93,0
390.85675,390.9907,41,93,0
390.9996,391.13354,53,93,0
391.14246,391.2764,52,93,0
391.2853,391.41925,53,93,0
391.4282,391.5621,52,93,0
391.57104,391.70496,53,93,0
391.7139,391.8478,29,93,0
391.85675,391.9907,41,93,0
391.9996,392.13354,40,93,0
392.14246,392.2764,41,93,0
392.2853,392.41925,40,93,0
392.4282,392.5621,41,93,0
392.57104,392.96835,34,69,0
392.9996,393.39694,38,69,0
393.4282,393.8255,41,69,0
393.85675,394.25406,38,69,0
394.2853,394.68265,34,69,0
394.7139,395.1112,38,69,0
395.14246,395.5398,41,69,0
395.57104,395.96835,38,69,0
395.9996,396.3969,34,69,0
396.42816,396.8255,46,69,0
396.85675,397.25406,39,69,0
397.2853,397.68265,43,69,0
397.7139,398.1112,34,69,0
398.14246,398.5398,39,69,0
398.57104,398.96835,36,69,0
398.9996,399.3969,39,69,0
399.42816,399.8255,34,69,0
399.85675,400.25406,38,69,0
400.2853,400.68265,41,69,0
400.7139,401.1112,46,69,0
401.14246,401.53976,34,69,0
401.571,401.96835,38,69,0
401.9996,402.3969,41,69,0
402.42816,402.8255,38,69,0
402.85675,403.25406,34,69,0
403.2853,403.68262,46,69,0
403.71387,404.1112,39,69,0
404.14246,404.53976,42,69,0
404.571,404.96835,34,69,0
404.9996,405.3969,39,69,0
405.42816,405.8255,36,69,0
405.85675,406.25406,39,69,0
406.2853,406.4862,46,93,0
406.2853,406.4862,34,93,0
406.71387,406.91476,41,93,0
407.14246,407.34335,46,93,0
407.571,407.7719,41,93,0
407.9996,408.20047,46,93,0
408.42816,408.62906,53,93,0
408.42816,408.62906,41,93,0
408.85672,409.05762,58,93,0
408.85672,409.05762,46,93,0
409.2853,409.4862,53,93,0
409.2853,409.4862,41,93,0
409.71387,410.1112,58,93,0
409.71387,410.1112,46,93,0
410.571,410.96835,58,93,0
410.571,410.96835,46,93,0
411.42816,412.21832,46,93,0
411.42816,412.21832,34,93,0
4.28571,5.0758877,63,64,0
5.142852,5.540173,62,64,0
5.571423,5.968744,67,64,0
5.999994,6.397315,60,64,0
6.428565,6.8258862,65,64,0
11.999988,13.580343,60,64,0
13.714272,14.50445,65,64,0
68.57136,70.15172,41,64,0
70.285645,71.866,41,64,0
71.99993,73.580284,41,64,0
73.71421,75.29457,41,64,0
75.4285,77.00885,41,64,0
78.85706,79.25439,60,64,0
79.28564,80.14278,62,127,0
80.14278,80.5401,58,69,0
139.71414,140.50432,63,69,0
140.57129,140.96861,62,69,0
140.99986,141.39719,67,69,0
141.42844,141.82574,60,69,0
141.857,142.25432,65,69,0
147.42842,149.00877,60,69,0
149.14272,149.93289,65,69,0
198.85695,200.4373,41,69,0
200.57123,202.15158,41,69,0
202.2855,203.86586,41,69,0
203.9998,205.58015,41,69,0
205.71408,207.29443,41,69,0
251.14261,251.93279,63,69,0
251.99974,252.39706,62,69,0
252.42831,252.82564,67,69,0
252.85689,253.25421,60,69,0
253.28546,253.68279,65,69,0
258.85687,260.43723,60,69,0
260.57117,261.36136,65,69,0
289.714,290.89703,51,69,0
290.9997,291.39703,52,69,0
291.42828,291.8256,53,69,0
313.71396,315.29434,34,69,0
315.42825,317.0086,34,69,0
317.14255,318.7229,34,69,0
318.8568,320.43716,34,69,0
320.5711,322.15146,34,69,0
375.4282,377.00854,53,69,0
392.57104,394.1514,34,69,0
394.2853,395.86566,34,69,0
395.9996,397.57996,34,69,0
397.7139,399.29425,34,69,0
399.42816,401.0085,34,69,0
401.14246,402.7228,34,69,0
402.85675,404.4371,34,69,0
404.571,406.15137,34,69,0
376.28534,376.8791,60,69,0
376.9282,377.1291,57,69,0
