start_time,end_time,note_value,velocity,instrument_program_number
14.675,15.275,79,93,40
14.5375,15.275,72,93,40
14.4,15.275,64,93,40
15.3,15.45,81,69,40
15.45,15.6,79,69,40
15.6,15.75,77,69,40
15.75,15.9,76,69,40
15.9,16.05,74,69,40
16.05,16.2,72,69,40
16.2,16.7625,72,69,40
16.8,17.3625,72,69,40
17.4,17.9625,72,69,40
18.0,18.8375,72,93,40
18.9,19.05,74,69,40
19.05,19.2,72,69,40
19.2,19.35,71,69,40
19.35,19.5,72,69,40
19.5,19.65,74,69,40
19.65,19.8,76,69,40
19.8,20.3625,77,69,40
20.7,20.85,76,69,40
20.85,21.0,74,69,40
21.0,21.15,72,69,40
21.15,21.3,74,69,40
21.3,21.45,76,69,40
21.45,21.6,77,69,40
21.6,22.1625,79,69,40
22.5,22.65,77,69,40
22.65,22.8,76,69,40
22.8,22.95,74,69,40
22.95,23.1,76,69,40
23.1,23.25,77,69,40
23.25,23.4,79,69,40
23.4,23.9625,81,69,40
24.0,24.6,69,69,40
24.6,25.1625,74,69,40
25.2,26.0375,71,127,40
26.1,26.175,72,69,40
26.175,26.25,71,69,40
26.25,26.325,69,69,40
26.325,26.4,71,69,40
26.4,26.825,74,69,40
26.85,27.0,72,69,40
27.0,27.5625,72,69,40
31.2,31.8,69,69,40
31.8,32.3625,81,69,40
32.4,33.2375,71,127,40
33.3,33.375,72,69,40
33.375,33.45,71,69,40
33.45,33.525,69,69,40
33.525,33.6,71,69,40
33.6,34.025,74,69,40
34.05,34.2,72,69,40
34.2,34.7625,72,69,40
49.2,49.8,84,69,40
49.8,50.3625,81,69,40
50.4,51.2375,81,69,40
51.3,51.45,80,69,40
51.45,51.6,81,69,40
51.6,51.75,83,69,40
51.75,51.9,84,69,40
51.9,52.05,86,69,40
52.05,52.2,80,69,40
52.2,52.7625,81,69,40
60.3,60.45,79,93,40
60.45,60.6,78,90,40
60.6,60.75,76,88,40
60.75,60.9,74,85,40
60.9,61.05,72,83,40
61.05,61.2,71,81,40
61.2,61.7625,69,78,40
63.75,63.9,81,93,40
63.9,64.05,79,90,40
64.05,64.2,78,88,40
64.2,64.35,76,86,40
64.35,64.5,74,84,40
64.5,64.65,72,82,40
64.65,64.8,71,79,40
64.8,65.3625,69,77,40
67.35,67.5,79,69,40
67.5,67.65,81,69,40
67.65,67.8,83,69,40
67.8,67.95,81,69,40
67.95,68.1,79,69,40
68.1,68.25,78,69,40
68.25,68.4,76,69,40
68.4,68.9625,74,69,40
69.0,69.8375,73,69,40
69.9,70.1875,74,69,40
70.2,71.4,76,69,40
71.4,71.9625,67,69,40
72.0,73.8,67,69,40
72.0,74.3625,69,69,40
73.8,74.3625,66,69,40
77.4,78.2375,74,93,40
78.3,78.45,76,84,40
78.45,78.6,74,82,40
78.6,78.75,72,81,40
78.75,78.9,71,79,40
78.9,79.05,69,78,40
79.05,79.2,67,76,40
79.2,79.45,67,75,40
79.8,80.05,67,69,40
80.4,80.65,67,69,40
81.0,83.3625,67,69,40
83.4,84.2375,66,69,40
84.3,84.5875,67,69,40
84.6,85.8,69,69,40
85.8,86.3625,66,69,40
86.4,86.9625,67,69,40
88.2,89.0375,79,69,40
89.1,89.25,81,69,40
89.25,89.4,79,69,40
89.4,89.55,79,69,40
89.55,89.7,78,69,40
89.7,89.85,76,69,40
89.85,90.0,78,69,40
90.0,90.5625,79,69,40
91.8,92.6375,79,69,40
92.7,92.85,81,69,40
92.85,93.0,79,69,40
93.0,93.15,79,69,40
93.15,93.3,78,69,40
93.3,93.45,76,69,40
93.45,93.6,78,69,40
93.6,94.1625,79,69,40
108.0,108.8375,75,69,40
108.9,109.05,77,70,40
109.05,109.2,75,71,40
109.2,109.35,73,71,40
109.35,109.5,72,71,40
109.5,109.65,70,72,40
109.65,109.8,68,72,40
109.8,110.4,67,72,40
110.4,110.9625,70,74,40
111.6,112.4375,75,76,40
112.5,112.65,77,78,40
112.65,112.8,75,78,40
112.8,112.95,73,79,40
112.95,113.1,72,79,40
113.1,113.25,70,79,40
113.25,113.4,68,80,40
113.4,114.0,67,80,40
114.0,114.5625,70,81,40
115.2,115.7625,75,84,40
115.8,116.3625,72,85,40
116.4,116.9625,68,86,40
117.0,117.5625,73,87,40
117.6,118.1625,70,89,40
118.2,118.7625,67,90,40
118.8,119.3625,74,91,40
120.6,121.4375,74,93,40
121.5,121.7875,71,81,40
121.8,121.9875,74,77,40
122.0,122.1875,72,75,40
122.2,122.3875,69,73,40
122.4,122.9625,67,69,40
124.5,124.8,55,69,40
124.8,125.0875,67,69,40
125.1,125.3875,67,69,40
125.4,125.6875,67,69,40
125.7,125.9875,67,69,40
126.0,128.0875,67,69,40
128.1,128.4,55,69,40
128.4,128.6875,67,69,40
128.7,128.9875,67,69,40
129.0,129.2875,67,69,40
129.3,129.5875,67,69,40
129.6,131.6875,67,69,40
131.7,132.0,55,69,40
132.0,132.2875,67,69,40
132.3,132.5875,67,69,40
132.6,132.8875,67,69,40
132.9,133.1875,67,69,40
133.2,133.7625,67,69,40
138.6,139.1625,72,69,40
139.2,139.7625,71,69,40
139.8,140.3625,69,69,40
140.4,141.0,68,85,40
141.0,141.75,69,69,40
141.75,141.9,71,69,40
141.9,142.05,72,69,40
142.05,142.2,74,69,40
142.2,142.7625,76,69,40
142.8,143.3625,74,69,40
143.4,143.9625,72,69,40
144.0,144.6,71,85,40
144.6,145.35,72,69,40
145.35,145.5,74,69,40
145.5,145.65,76,69,40
145.65,145.8,78,69,40
145.8,146.3625,79,69,40
146.4,146.9625,78,69,40
147.0,147.5625,76,69,40
147.6,147.8875,74,69,40
147.9,148.1875,79,69,40
148.2,148.4875,74,69,40
148.5,148.7875,71,69,40
148.8,149.0875,69,69,40
149.1,149.3875,76,69,40
149.4,149.6875,74,69,40
149.7,149.85,71,69,40
149.85,150.0,67,69,40
150.0,150.125,62,69,40
150.3,150.425,62,69,40
150.6,150.9,62,69,40
150.9,151.1875,66,69,40
151.2,151.7625,67,69,40
152.1,152.25,72,77,40
152.25,152.4,71,77,40
152.4,152.55,74,77,40
152.55,152.7,72,77,40
152.7,152.85,71,77,40
152.85,153.0,69,77,40
153.0,153.5625,67,77,40
165.875,166.475,79,93,40
165.7375,166.475,72,93,40
165.6,166.475,63,93,40
166.5,166.65,80,69,40
166.65,166.8,79,69,40
166.8,166.95,77,69,40
166.95,167.1,75,69,40
167.1,167.25,74,69,40
167.25,167.4,72,69,40
167.4,167.9625,72,69,40
168.0,168.5625,72,69,40
168.6,169.1625,72,69,40
169.2,170.0375,72,69,40
170.1,170.25,70,69,40
170.25,170.4,72,69,40
170.4,170.55,74,69,40
170.55,170.7,75,69,40
170.7,170.85,77,69,40
170.85,171.0,79,69,40
171.0,171.5625,80,69,40
173.7,173.85,72,69,40
173.85,174.0,70,69,40
174.0,174.15,68,69,40
174.15,174.3,67,69,40
174.3,174.45,65,69,40
174.45,174.6,63,69,40
174.6,175.1625,62,69,40
175.2,175.7625,62,69,40
175.8,176.3625,62,69,40
176.4,176.9625,63,69,40
180.9,181.05,68,93,40
181.05,181.2,67,93,40
181.2,181.35,70,93,40
181.35,181.5,68,93,40
181.5,181.65,67,93,40
181.65,181.8,65,93,40
181.8,182.3625,63,93,40
186.3,186.45,63,93,40
186.45,186.6,62,93,40
186.6,186.75,65,93,40
186.75,186.9,63,93,40
186.9,187.05,62,93,40
187.05,187.2,60,93,40
187.2,187.7625,58,93,40
187.8,188.3625,61,69,40
188.4,188.9625,63,69,40
189.0,189.5625,64,69,40
189.6,190.1625,65,69,40
190.2,191.0875,70,69,40
191.1,191.3875,69,69,40
191.4,191.9625,68,69,40
193.5,193.65,65,93,40
193.65,193.8,64,93,40
193.8,193.95,67,93,40
193.95,194.1,65,93,40
194.1,194.25,63,93,40
194.25,194.4,62,93,40
194.4,194.9625,60,93,40
195.0,195.5625,63,69,40
195.6,196.1625,65,69,40
196.2,196.7625,66,69,40
196.8,197.3625,67,69,40
197.4,198.2875,72,69,40
198.3,198.5875,71,69,40
198.6,199.1625,70,69,40
200.7,200.85,67,93,40
200.85,201.0,66,93,40
201.0,201.15,69,93,40
201.15,201.3,67,93,40
201.3,201.45,65,93,40
201.45,201.6,64,93,40
201.6,202.1625,62,93,40
202.2,202.7625,65,69,40
202.8,203.3625,67,73,40
203.4,203.9625,68,77,40
204.0,204.5625,69,82,40
204.6,205.4875,74,86,40
205.5,205.7875,73,93,40
205.8,206.3625,72,93,40
206.4,206.9625,71,93,40
207.0,207.6,70,93,40
207.6,208.7125,69,93,40
208.8,209.3625,68,93,40
209.7,209.85,72,93,40
209.85,210.0,71,93,40
210.0,210.15,74,93,40
210.15,210.3,72,93,40
210.3,210.45,71,93,40
210.45,210.6,69,93,40
210.6,211.1625,76,93,40
211.5,211.65,60,93,40
211.65,211.8,59,93,40
211.8,211.95,62,93,40
211.95,212.1,60,93,40
212.1,212.25,59,93,40
212.25,212.4,57,93,40
212.4,212.9625,64,93,40
215.1,215.25,64,69,40
215.25,215.4,63,69,40
215.4,215.55,66,69,40
215.55,215.7,64,69,40
215.7,215.85,63,69,40
215.85,216.0,61,69,40
216.0,216.5625,59,69,40
216.6,217.1625,59,69,40
217.2,217.7625,59,69,40
217.8,218.3625,59,69,40
218.7,218.85,64,69,40
218.85,219.0,63,69,40
219.0,219.15,66,69,40
219.15,219.3,64,69,40
219.3,219.45,62,69,40
219.45,219.6,60,69,40
219.6,220.1625,59,69,40
220.2,220.7625,59,69,40
220.8,221.3625,59,73,40
221.4,221.9625,59,77,40
222.3,222.45,64,83,40
222.45,222.6,63,84,40
222.6,222.75,66,85,40
222.75,222.9,64,86,40
222.9,223.05,62,87,40
223.05,223.2,60,88,40
223.2,223.7625,59,89,40
223.8,224.3625,59,93,40
224.4,224.9625,59,93,40
225.0,225.5625,59,93,40
225.9,226.05,65,93,40
226.05,226.2,64,93,40
226.2,226.35,67,93,40
226.35,226.5,65,93,40
226.5,226.65,64,93,40
226.65,226.8,62,93,40
226.8,227.9125,60,93,40
239.55,239.7,67,69,40
239.7,239.85,69,71,40
239.85,240.0,71,73,40
240.0,240.15,72,75,40
240.15,240.3,71,77,40
240.3,240.45,74,79,40
240.45,240.6,72,82,40
240.6,240.75,76,84,40
240.75,240.9,74,86,40
240.9,241.05,77,88,40
241.05,241.2,76,90,40
241.475,242.075,79,93,40
241.3375,242.075,72,93,40
241.2,242.075,64,93,40
242.1,242.25,81,69,40
242.25,242.4,79,69,40
242.4,242.55,77,69,40
242.55,242.7,76,69,40
242.7,242.85,74,69,40
242.85,243.0,72,69,40
243.0,243.5625,72,69,40
243.6,244.1625,72,69,40
244.2,244.7625,72,69,40
244.8,245.6375,72,127,40
245.7,245.85,74,69,40
245.85,246.0,72,69,40
246.0,246.15,71,69,40
246.15,246.3,72,69,40
246.3,246.45,74,69,40
246.45,246.6,76,69,40
246.6,247.1875,77,69,40
247.5,247.65,76,69,40
247.65,247.8,74,69,40
247.8,247.95,72,69,40
247.95,248.1,74,69,40
248.1,248.25,76,69,40
248.25,248.4,77,69,40
248.4,248.9875,79,69,40
249.3,249.45,77,72,40
249.45,249.6,76,73,40
249.6,249.75,74,73,40
249.75,249.9,76,74,40
249.9,250.05,77,75,40
250.05,250.2,79,75,40
250.2,250.7875,81,76,40
251.1,251.25,79,79,40
251.25,251.4,77,80,40
251.4,251.55,76,81,40
251.55,251.7,77,81,40
251.7,251.85,79,82,40
251.85,252.0,81,82,40
252.0,252.5875,82,83,40
252.9,253.05,81,87,40
253.05,253.2,79,87,40
253.2,253.35,77,88,40
253.35,253.5,79,88,40
253.5,253.65,81,89,40
253.65,253.8,82,90,40
253.8,254.3875,84,90,40
254.4,254.9625,81,93,40
255.0,255.5625,79,93,40
255.6,256.1625,79,93,40
256.2,257.0375,78,93,40
257.1,257.3875,79,93,40
257.4,257.9625,81,93,40
258.0,258.5625,78,93,40
258.6,259.1625,72,93,40
259.2,261.0,72,93,40
261.0,261.5625,71,75,40
259.2,261.5625,62,93,40
264.6,265.4375,67,93,40
265.5,265.65,69,84,40
265.65,265.8,67,82,40
265.8,265.95,65,81,40
265.95,266.1,64,79,40
266.1,266.25,62,78,40
266.25,266.4,60,76,40
266.4,266.65,60,75,40
267.0,267.25,60,69,40
267.6,267.85,60,69,40
268.2,270.5625,60,69,40
270.6,271.4375,59,69,40
271.5,271.7875,60,69,40
271.8,273.0,62,69,40
273.0,273.5625,59,69,40
273.6,274.1625,60,69,40
275.4,276.2375,72,69,40
276.3,276.45,74,69,40
276.45,276.6,72,69,40
276.6,276.75,72,69,40
276.75,276.9,71,69,40
276.9,277.05,69,69,40
277.05,277.2,71,69,40
277.2,277.7625,72,69,40
279.0,279.8375,84,69,40
279.9,280.05,86,69,40
280.05,280.2,84,69,40
280.2,280.35,84,69,40
280.35,280.5,83,69,40
280.5,280.65,81,69,40
280.65,280.8,83,69,40
280.8,281.3625,84,69,40
293.4,294.2375,66,69,40
294.3,294.45,68,70,40
294.45,294.6,66,70,40
294.6,294.75,65,71,40
294.75,294.9,63,71,40
294.9,295.05,61,71,40
295.05,295.2,60,72,40
295.2,295.8,68,72,40
295.8,296.3625,65,73,40
297.0,297.8375,78,75,40
297.9,298.05,80,77,40
298.05,298.2,78,77,40
298.2,298.35,77,77,40
298.35,298.5,75,78,40
298.5,298.65,73,78,40
298.65,298.8,72,78,40
298.8,299.4,80,78,40
299.4,299.9625,77,79,40
300.6,301.4375,75,82,40
301.5,301.65,77,83,40
301.65,301.8,75,84,40
301.8,301.95,73,84,40
301.95,302.1,72,84,40
302.1,302.25,70,84,40
302.25,302.4,68,85,40
302.4,302.9625,80,85,40
303.0,303.5625,77,86,40
303.6,304.1625,73,87,40
304.2,304.7625,78,88,40
304.8,305.3625,75,89,40
305.4,305.9625,72,90,40
306.0,306.5625,79,91,40
308.1,308.175,69,93,40
308.175,308.25,67,93,40
308.25,308.325,66,93,40
308.325,308.4,67,93,40
308.4,308.6875,72,89,40
308.7,308.9875,64,86,40
309.0,309.2875,65,82,40
309.3,309.5875,62,79,40
309.6,310.1625,60,75,40
311.7,312.0,72,69,40
312.0,312.2875,84,69,40
312.3,312.5875,84,69,40
312.6,312.8875,84,69,40
312.9,313.1875,84,69,40
313.2,315.2875,84,69,40
315.3,315.6,72,69,40
315.6,315.8875,84,69,40
315.9,316.1875,84,69,40
316.2,316.4875,84,69,40
316.5,316.7875,84,69,40
316.8,318.8875,84,69,40
318.9,319.2,72,69,40
319.2,319.4875,84,69,40
319.5,319.7875,84,69,40
319.8,320.0875,84,69,40
320.1,320.3875,84,69,40
320.4,320.9625,84,69,40
325.8,326.3625,77,69,40
326.4,326.9625,76,69,40
327.0,327.5625,74,69,40
327.6,328.2,73,85,40
328.2,328.95,74,69,40
328.95,329.1,76,69,40
329.1,329.25,77,69,40
329.25,329.4,79,69,40
329.4,329.9625,81,69,40
330.0,330.5625,79,69,40
330.6,331.1625,77,69,40
331.2,331.8,76,85,40
331.8,332.55,77,69,40
332.55,332.7,79,69,40
332.7,332.85,81,69,40
332.85,333.0,83,69,40
333.0,333.5625,84,69,40
333.6,334.1625,83,69,40
334.2,334.7625,81,69,40
334.8,335.0875,79,69,40
335.1,335.3875,84,69,40
335.4,335.6875,79,69,40
335.7,335.9875,76,69,40
336.0,336.2875,74,69,40
336.3,336.5875,81,69,40
336.6,336.8875,79,69,40
336.9,337.05,76,69,40
337.05,337.2,72,69,40
337.2,337.4875,67,69,40
337.5,337.7875,67,69,40
337.8,338.1,67,69,40
338.1,338.3875,71,69,40
338.4,338.9625,72,69,40
339.3,339.45,65,69,40
339.45,339.6,64,69,40
339.6,339.75,67,69,40
339.75,339.9,65,69,40
339.9,340.05,64,69,40
340.05,340.2,62,69,40
340.2,340.7625,60,69,40
342.3,342.45,84,69,40
342.45,342.6,83,69,40
342.6,342.75,86,69,40
342.75,342.9,84,69,40
342.9,343.05,83,69,40
343.05,343.2,81,69,40
343.2,344.3625,79,69,40
344.4,344.9625,77,69,40
345.0,345.75,76,69,40
345.75,345.9,74,69,40
345.9,346.05,76,69,40
346.05,346.2,77,69,40
346.2,346.8,72,69,40
346.8,347.3625,71,69,40
347.4,347.9625,72,69,40
348.3,348.45,74,69,40
348.45,348.6,72,69,40
348.6,348.75,76,69,40
348.75,348.9,74,69,40
348.9,349.05,72,69,40
349.05,349.2,71,69,40
349.2,349.7625,69,69,40
349.8,350.25,74,69,40
350.25,350.4,71,69,40
350.4,350.65,72,69,40
351.0,351.45,72,69,40
351.45,351.6,69,69,40
351.6,352.1625,67,69,40
352.2,352.275,67,69,40
352.275,352.65,65,69,40
352.65,352.7125,64,69,40
352.8,353.3625,64,69,40
355.5,355.65,65,69,40
355.65,355.8,64,69,40
355.8,355.95,67,69,40
355.95,356.1,65,69,40
356.1,356.25,64,69,40
356.25,356.4,62,69,40
356.4,356.9625,60,69,40
357.6,358.1625,79,93,40
357.6,358.1625,71,93,40
357.6,358.1625,62,93,40
358.2,358.7625,76,93,40
358.2,358.7625,72,93,40
358.2,358.7625,67,93,40
14.4,15.5125,60,93,42
16.8,17.3625,60,69,42
17.4,17.9625,60,69,42
18.0,19.6625,55,93,42
25.2,27.0,55,127,42
27.0,27.5625,48,69,42
32.4,34.2,43,127,42
34.2,34.7625,36,69,42
50.4,52.2,52,69,42
52.2,52.7625,45,69,42
61.2,68.1125,62,69,42
68.4,71.7125,45,69,42
72.0,73.6625,38,69,42
73.95,74.1,51,69,42
74.1,74.25,52,71,42
74.25,74.4,54,73,42
74.4,74.55,55,75,42
74.55,74.7,54,77,42
74.7,74.85,57,79,42
74.85,75.0,55,82,42
75.0,75.15,59,84,42
75.15,75.3,57,86,42
75.3,75.45,60,88,42
75.45,75.6,59,90,42
75.6,76.4375,62,93,42
76.5,76.65,64,84,42
76.65,76.8,62,82,42
76.8,76.95,60,81,42
76.95,77.1,59,79,42
77.1,77.25,57,78,42
77.25,77.4,55,76,42
77.4,77.65,55,75,42
78.0,78.25,55,69,42
78.6,78.85,55,69,42
79.2,79.7625,48,69,42
79.8,80.3625,52,69,42
80.4,80.9625,55,69,42
81.0,81.5625,52,69,42
81.6,82.1625,49,69,42
82.8,83.3625,38,69,42
83.4,83.9625,42,69,42
84.0,84.5625,45,69,42
84.6,85.1625,42,69,42
85.2,85.7625,38,69,42
86.4,87.2375,62,69,42
87.3,87.45,64,69,42
87.45,87.6,62,69,42
87.6,87.75,62,69,42
87.75,87.9,60,69,42
87.9,88.05,59,69,42
88.05,88.2,60,69,42
88.2,88.7625,59,69,42
90.0,90.8375,62,69,42
90.9,91.05,64,69,42
91.05,91.2,62,69,42
91.2,91.35,62,69,42
91.35,91.5,60,69,42
91.5,91.65,59,69,42
91.65,91.8,60,69,42
91.8,92.3625,59,69,42
106.2,107.0375,61,69,42
107.1,107.25,63,70,42
107.25,107.4,61,71,42
107.4,107.55,60,71,42
107.55,107.7,58,71,42
107.7,107.85,56,71,42
107.85,108.0,55,72,42
108.0,108.6,63,72,42
108.6,109.1625,60,73,42
109.8,110.6375,61,75,42
110.7,110.85,63,77,42
110.85,111.0,61,77,42
111.0,111.15,60,78,42
111.15,111.3,58,78,42
111.3,111.45,56,78,42
111.45,111.6,55,79,42
111.6,112.2,63,79,42
112.2,112.7625,60,80,42
113.4,114.2375,61,82,42
114.3,114.45,63,84,42
114.45,114.6,61,84,42
114.6,114.75,60,85,42
114.75,114.9,58,85,42
114.9,115.05,56,85,42
115.05,115.2,55,85,42
115.2,115.7625,51,86,42
115.8,116.3625,51,87,42
116.4,116.9625,51,88,42
117.0,117.5625,51,89,42
117.6,118.1625,51,90,42
118.2,118.7625,51,91,42
118.8,119.3625,50,93,42
122.7,123.0,43,69,42
123.0,123.2875,55,69,42
123.3,123.5875,55,69,42
123.6,123.8875,55,69,42
123.9,124.1875,55,69,42
124.2,126.2875,55,69,42
126.3,126.6,43,69,42
126.6,126.8875,55,69,42
126.9,127.1875,55,69,42
127.2,127.4875,55,69,42
127.5,127.7875,55,69,42
127.8,129.8875,55,69,42
129.9,130.2,43,69,42
130.2,130.4875,55,69,42
130.5,130.7875,55,69,42
130.8,131.0875,55,69,42
131.1,131.3875,55,69,42
131.4,133.7625,55,69,42
138.6,139.1625,64,69,42
139.2,139.7625,62,69,42
139.8,140.3625,60,69,42
140.4,141.0,59,85,42
141.0,141.75,60,69,42
141.75,141.9,62,69,42
141.9,142.05,60,69,42
142.05,142.2,59,69,42
142.2,142.7625,60,69,42
142.8,143.3625,59,69,42
143.4,143.9625,57,69,42
144.0,144.6,56,85,42
144.6,145.35,57,69,42
145.35,145.5,59,69,42
145.5,145.65,60,69,42
145.65,145.8,62,69,42
145.8,146.3625,64,69,42
146.4,146.9625,62,69,42
147.0,147.5625,60,69,42
147.6,148.1625,59,69,42
150.3,150.45,48,69,42
150.45,150.6,47,69,42
150.6,150.75,50,69,42
150.75,150.9,48,69,42
150.9,151.05,47,69,42
151.05,151.2,45,69,42
151.2,151.7625,43,69,42
173.7,173.85,56,69,42
173.85,174.0,55,69,42
174.0,174.15,53,69,42
174.15,174.3,51,69,42
174.3,174.45,50,69,42
174.45,174.6,48,69,42
174.6,175.1625,46,69,42
175.2,175.7625,46,69,42
175.8,176.3625,46,69,42
176.4,176.9625,48,69,42
179.1,179.25,44,93,42
179.25,179.4,43,93,42
179.4,179.55,46,93,42
179.55,179.7,44,93,42
179.7,179.85,43,93,42
179.85,180.0,41,93,42
180.0,180.5625,39,93,42
186.3,186.45,51,93,42
186.45,186.6,50,93,42
186.6,186.75,53,93,42
186.75,186.9,51,93,42
186.9,187.05,50,93,42
187.05,187.2,48,93,42
187.2,187.7625,46,93,42
187.8,188.3625,58,69,42
188.4,188.9625,60,69,42
189.0,189.5625,61,69,42
189.6,190.1625,62,69,42
190.2,190.7625,64,69,42
190.8,191.3625,65,69,42
193.5,193.65,53,93,42
193.65,193.8,52,93,42
193.8,193.95,55,93,42
193.95,194.1,53,93,42
194.1,194.25,51,93,42
194.25,194.4,50,93,42
194.4,194.9625,48,93,42
195.0,195.5625,60,69,42
195.6,196.1625,62,69,42
196.2,196.7625,63,69,42
196.8,197.3625,64,69,42
197.4,197.9625,66,69,42
198.0,198.5625,67,69,42
200.7,200.85,55,93,42
200.85,201.0,54,93,42
201.0,201.15,57,93,42
201.15,201.3,55,93,42
201.3,201.45,53,93,42
201.45,201.6,52,93,42
201.6,202.1625,50,93,42
202.2,202.7625,62,69,42
202.8,203.3625,64,72,42
203.4,203.9625,65,75,42
204.0,204.5625,66,79,42
204.6,205.1625,68,82,42
205.2,205.7625,69,86,42
205.8,206.3625,57,89,42
206.4,206.9625,56,93,42
207.0,207.5625,55,93,42
207.6,208.1625,54,93,42
208.2,208.7625,53,93,42
208.8,209.3625,52,93,42
211.5,211.65,48,93,42
211.65,211.8,47,93,42
211.8,211.95,50,93,42
211.95,212.1,48,93,42
212.1,212.25,47,93,42
212.25,212.4,45,93,42
212.4,212.9625,52,93,42
213.0,213.5625,40,69,42
213.6,214.1625,44,69,42
214.2,214.7625,47,69,42
214.8,215.3625,52,69,42
215.4,215.9625,56,69,42
216.0,216.5625,59,69,42
216.6,217.1625,64,69,42
217.2,217.7625,59,69,42
217.8,218.3625,55,69,42
218.4,218.9625,52,69,42
219.0,219.5625,47,69,42
219.6,220.1625,43,69,42
220.2,220.7625,40,69,42
220.8,221.3625,43,73,42
221.4,221.9625,47,77,42
222.0,222.5625,52,81,42
222.6,223.1625,55,85,42
223.2,223.7625,59,89,42
223.8,224.3625,55,93,42
224.4,224.9625,53,93,42
225.0,225.5625,50,93,42
225.6,226.1625,47,93,42
226.2,226.7625,43,93,42
226.8,227.9125,48,93,42
241.2,242.3125,60,93,42
243.6,244.1625,60,69,42
244.2,244.7625,60,69,42
244.8,246.4625,55,127,42
255.6,257.1,57,84,42
257.1,257.3875,59,84,42
257.4,257.9625,60,84,42
258.0,258.5625,57,84,42
258.6,259.1625,66,84,42
259.2,260.8625,66,93,42
261.0,261.5625,67,75,42
262.8,263.3625,36,69,42
263.4,263.9625,40,69,42
264.0,264.5625,43,69,42
264.6,265.1625,40,69,42
265.2,265.7625,36,69,42
268.2,269.0375,57,93,42
269.1,269.25,59,81,42
269.25,269.4,57,79,42
269.4,269.55,55,77,42
269.55,269.7,54,75,42
269.7,269.85,52,73,42
269.85,270.0,50,71,42
270.0,270.25,50,69,42
270.6,270.85,50,69,42
271.2,271.45,50,69,42
271.8,272.3625,50,69,42
272.4,272.9625,47,69,42
273.0,273.5625,43,69,42
273.6,274.4375,55,69,42
274.5,274.65,57,69,42
274.65,274.8,55,69,42
274.8,274.95,55,69,42
274.95,275.1,53,69,42
275.1,275.25,52,69,42
275.25,275.4,53,69,42
275.4,275.9625,52,69,42
277.2,278.0375,67,69,42
278.1,278.25,69,69,42
278.25,278.4,67,69,42
278.4,278.55,67,69,42
278.55,278.7,65,69,42
278.7,278.85,64,69,42
278.85,279.0,65,69,42
279.0,279.5625,64,69,42
295.2,296.0375,56,69,42
296.1,296.25,58,70,42
296.25,296.4,56,71,42
296.4,296.55,54,71,42
296.55,296.7,53,71,42
296.7,296.85,51,72,42
296.85,297.0,49,72,42
297.0,297.6,48,72,42
297.6,298.1625,51,74,42
298.8,299.6375,68,76,42
299.7,299.85,70,78,42
299.85,300.0,68,78,42
300.0,300.15,66,79,42
300.15,300.3,65,79,42
300.3,300.45,63,79,42
300.45,300.6,61,80,42
300.6,301.2,60,80,42
301.2,301.7625,63,81,42
302.4,302.9625,44,84,42
303.0,303.5625,44,85,42
303.6,304.1625,44,86,42
304.2,304.7625,44,87,42
304.8,305.3625,44,89,42
305.4,305.9625,44,90,42
306.0,306.5625,43,91,42
309.9,310.2,36,69,42
310.2,310.4875,48,69,42
310.5,310.7875,48,69,42
310.8,311.0875,48,69,42
311.1,311.3875,48,69,42
311.4,313.4875,48,69,42
313.5,313.8,36,69,42
313.8,314.0875,48,69,42
314.1,314.3875,48,69,42
314.4,314.6875,48,69,42
314.7,314.9875,48,69,42
315.0,317.0875,48,69,42
317.1,317.4,36,69,42
317.4,317.6875,48,69,42
317.7,317.9875,48,69,42
318.0,318.2875,48,69,42
318.3,318.5875,48,69,42
318.6,320.9625,48,69,42
325.8,326.3625,69,69,42
326.4,326.9625,67,69,42
327.0,327.5625,65,69,42
327.6,328.2,64,85,42
328.2,328.95,65,69,42
328.95,329.1,67,69,42
329.1,329.25,65,69,42
329.25,329.4,64,69,42
329.4,329.9625,65,69,42
330.0,330.5625,64,69,42
330.6,331.1625,62,69,42
331.2,331.8,61,85,42
331.8,332.55,62,69,42
332.55,332.7,64,69,42
332.7,332.85,65,69,42
332.85,333.0,67,69,42
333.0,333.5625,69,69,42
333.6,334.1625,67,69,42
334.2,334.7625,65,69,42
334.8,335.3625,64,69,42
337.5,337.65,41,69,42
337.65,337.8,40,69,42
337.8,337.95,43,69,42
337.95,338.1,41,69,42
338.1,338.25,40,69,42
338.25,338.4,38,69,42
338.4,338.9625,36,69,42
344.7,344.85,43,69,42
344.85,345.0,41,69,42
345.0,345.15,45,69,42
345.15,345.3,43,69,42
345.3,345.45,41,69,42
345.45,345.6,40,69,42
345.6,346.1625,41,69,42
346.2,346.7625,43,69,42
346.8,347.3625,43,69,42
347.4,347.9625,48,69,42
348.9,349.05,64,69,42
349.05,349.2,62,69,42
349.2,349.35,65,69,42
349.35,349.5,64,69,42
349.5,349.65,62,69,42
349.65,349.8,60,69,42
349.8,350.3625,59,69,42
350.4,350.6875,52,69,42
350.7,350.85,53,69,42
350.85,351.0,55,69,42
351.0,351.45,57,69,42
351.45,351.6,65,69,42
351.6,352.1625,64,69,42
352.2,352.65,59,69,42
352.65,352.7125,60,69,42
352.8,353.3625,60,69,42
357.3,357.45,41,93,42
357.45,357.6,40,93,42
357.6,357.75,43,93,42
357.75,357.9,41,93,42
357.9,358.05,40,93,42
358.05,358.2,38,93,42
358.2,358.7625,36,93,42
0.3,0.875,79,93,0
0.2,0.875,76,93,0
0.1,0.875,72,93,0
0.0,0.875,67,93,0
0.9,1.05,81,69,0
1.05,1.2,79,69,0
1.2,1.35,77,69,0
1.35,1.5,76,69,0
1.5,1.65,74,69,0
1.65,1.8,72,69,0
1.8,2.3625,72,69,0
2.4,2.9625,72,69,0
3.0,3.5625,72,69,0
3.6,4.4375,72,93,0
4.5,4.65,74,69,0
4.65,4.8,72,69,0
4.8,4.95,71,69,0
4.95,5.1,72,69,0
5.1,5.25,74,69,0
5.25,5.4,76,69,0
5.4,5.9625,77,69,0
6.3,6.45,76,69,0
6.45,6.6,74,69,0
6.6,6.75,72,69,0
6.75,6.9,74,69,0
6.9,7.05,76,69,0
7.05,7.2,77,69,0
7.2,7.7625,79,69,0
8.1,8.25,77,69,0
8.25,8.4,76,69,0
8.4,8.55,74,69,0
8.55,8.7,76,69,0
8.7,8.85,77,69,0
8.85,9.0,79,69,0
9.0,9.5625,81,69,0
9.6,10.2,69,69,0
10.2,10.7625,74,69,0
10.8,11.55,72,69,0
11.55,11.7,71,69,0
11.7,11.85,72,69,0
11.85,12.0,71,69,0
12.0,12.15,74,69,0
12.15,12.3,72,69,0
12.3,12.45,69,69,0
12.45,12.6,66,69,0
12.6,13.1625,67,69,0
14.4,14.9625,64,93,0
14.4,14.9625,60,93,0
14.4,14.9625,55,93,0
16.8,17.3625,64,69,0
16.8,17.3625,60,69,0
16.8,17.3625,55,69,0
17.4,17.9625,64,69,0
17.4,17.9625,60,69,0
17.4,17.9625,55,69,0
18.0,19.6625,65,93,0
18.0,19.6625,62,93,0
18.0,19.6625,55,93,0
21.6,22.1625,67,69,0
21.6,22.1625,60,69,0
21.6,22.1625,55,69,0
23.4,25.0625,65,69,0
23.4,25.0625,62,69,0
23.4,25.0625,57,69,0
25.2,26.8625,65,127,0
25.2,26.8625,55,127,0
27.0,27.5625,64,69,0
27.0,27.5625,60,69,0
27.0,27.5625,55,69,0
27.6,28.2,69,69,0
28.2,28.7625,77,69,0
28.8,29.6375,71,127,0
29.7,29.775,72,69,0
29.775,29.85,71,69,0
29.85,29.925,69,69,0
29.925,30.0,71,69,0
30.0,30.425,74,69,0
30.45,30.6,72,69,0
30.6,31.1625,72,69,0
31.8,32.3625,62,69,0
31.8,32.3625,57,69,0
32.4,34.2,65,127,0
32.4,34.2,62,127,0
32.4,34.2,59,127,0
34.2,34.7625,64,69,0
34.2,34.7625,60,69,0
35.4,36.0,71,69,0
35.4,36.0,65,69,0
36.0,36.5625,72,69,0
35.4,36.5625,67,69,0
36.0,36.5625,64,69,0
37.2,37.8,77,77,0
37.2,37.8,71,77,0
37.8,38.3625,76,77,0
37.8,38.3625,72,77,0
37.2,38.3625,67,77,0
39.0,39.6,83,84,0
39.0,39.6,77,84,0
39.6,40.1625,84,93,0
39.0,40.1625,79,84,0
39.6,40.1625,76,93,0
40.5,40.65,60,69,0
40.65,40.8,59,70,0
40.8,40.95,62,71,0
40.95,41.1,60,72,0
41.1,41.25,64,73,0
41.25,41.4,62,74,0
41.4,41.55,65,75,0
41.55,41.7,64,76,0
41.7,41.85,67,77,0
41.85,42.0,65,78,0
42.0,42.15,69,79,0
42.15,42.3,67,80,0
42.3,42.45,71,81,0
42.45,42.6,69,82,0
42.6,42.75,72,83,0
42.75,42.9,71,84,0
42.9,43.05,74,85,0
43.05,43.2,72,86,0
43.5,44.075,76,87,0
43.4,44.075,72,87,0
43.3,44.075,69,87,0
43.2,44.075,64,87,0
44.1,44.25,77,69,0
44.25,44.4,76,69,0
44.4,44.55,74,69,0
44.55,44.7,72,69,0
44.7,44.85,71,69,0
44.85,45.0,69,69,0
45.0,45.5625,69,69,0
45.6,46.2,84,69,0
46.2,46.7625,81,69,0
46.8,47.6375,81,69,0
47.7,47.85,80,69,0
47.85,48.0,81,69,0
48.0,48.15,83,69,0
48.15,48.3,84,69,0
48.3,48.45,86,69,0
48.45,48.6,80,69,0
48.6,49.1625,81,69,0
50.4,52.2,62,69,0
50.4,52.2,59,69,0
50.4,52.7625,64,69,0
52.2,52.7625,60,69,0
52.2,52.7625,57,69,0
52.95,53.1,75,69,0
53.1,53.25,77,69,0
53.25,53.4,76,69,0
53.4,53.55,74,69,0
53.55,53.7,72,69,0
53.7,53.85,71,69,0
53.85,54.0,69,69,0
54.0,54.75,67,69,0
54.75,54.9,66,69,0
54.9,55.05,72,69,0
55.05,55.2,71,69,0
55.2,55.35,69,69,0
55.35,55.5,76,69,0
55.5,55.65,74,69,0
55.65,55.8,72,69,0
55.8,55.95,81,69,0
55.95,56.1,79,69,0
56.1,56.25,78,69,0
56.25,56.4,84,69,0
56.4,56.55,83,69,0
56.55,56.7,81,69,0
56.7,56.85,79,69,0
56.85,57.0,78,69,0
57.0,57.15,76,69,0
57.15,57.3,74,69,0
57.3,57.45,72,69,0
57.45,57.6,76,69,0
57.6,58.35,74,69,0
58.35,58.5,72,69,0
58.5,58.65,71,69,0
58.65,58.8,72,69,0
58.8,58.95,71,69,0
58.95,59.1,72,69,0
59.1,59.25,74,69,0
59.25,59.4,72,69,0
59.4,59.9625,71,69,0
62.1,62.25,69,69,0
62.25,62.4,71,71,0
62.4,62.55,72,73,0
62.55,62.7,74,76,0
62.7,62.85,76,78,0
62.85,63.0,78,81,0
63.0,63.5625,79,83,0
65.55,65.7,68,69,0
65.7,65.85,69,71,0
65.85,66.0,71,73,0
66.0,66.15,72,75,0
66.15,66.3,74,77,0
66.3,66.45,76,79,0
66.45,66.6,78,82,0
66.6,67.1625,79,84,0
69.15,69.3,79,69,0
69.3,69.45,81,69,0
69.45,69.6,83,69,0
69.6,69.75,81,69,0
69.75,69.9,79,69,0
69.9,70.05,78,69,0
70.05,70.2,76,69,0
70.2,70.35,74,69,0
70.35,70.5,73,69,0
70.5,70.65,76,69,0
70.65,70.8,74,69,0
70.8,70.95,78,69,0
70.95,71.1,76,69,0
71.1,71.25,79,69,0
71.25,71.4,78,69,0
71.4,71.55,81,69,0
71.55,71.7,79,69,0
71.7,71.85,76,69,0
71.85,72.0,73,69,0
72.0,72.8375,76,69,0
72.9,73.05,75,69,0
73.05,73.2,76,69,0
73.2,73.35,75,69,0
73.35,73.5,76,69,0
73.5,73.65,78,69,0
73.65,73.8,76,69,0
73.8,74.3625,74,69,0
79.2,80.0375,76,93,0
80.1,80.25,77,84,0
80.25,80.4,76,82,0
80.4,80.55,74,81,0
80.55,80.7,72,79,0
80.7,80.85,71,78,0
80.85,81.0,69,76,0
81.0,81.25,69,75,0
81.6,81.85,69,69,0
82.2,82.45,69,69,0
82.8,83.6375,84,93,0
83.7,83.85,86,87,0
83.85,84.0,84,86,0
84.0,84.15,83,85,0
84.15,84.3,81,84,0
84.3,84.45,79,83,0
84.45,84.6,78,82,0
84.6,84.75,76,81,0
84.75,84.9,74,80,0
84.9,85.05,73,79,0
85.05,85.2,74,78,0
85.2,85.35,73,77,0
85.35,85.5,74,76,0
85.5,85.65,76,75,0
85.65,85.8,75,74,0
85.8,85.95,78,73,0
85.95,86.1,76,72,0
86.1,86.25,74,71,0
86.25,86.4,72,70,0
86.4,86.6875,71,69,0
86.7,86.9875,67,69,0
87.0,87.2875,71,69,0
87.3,87.5875,74,69,0
87.6,87.8875,79,69,0
87.9,88.1875,78,69,0
88.5,88.7875,74,69,0
88.8,89.0875,79,69,0
89.1,89.3875,83,69,0
89.4,89.6875,86,69,0
89.7,89.9875,84,69,0
90.0,90.2875,71,69,0
90.3,90.5875,67,69,0
90.6,90.8875,71,69,0
90.9,91.1875,74,69,0
91.2,91.4875,79,69,0
91.5,91.7875,78,69,0
92.1,92.3875,74,69,0
92.4,92.6875,79,69,0
92.7,92.9875,83,69,0
93.0,93.2875,86,69,0
93.3,93.5875,84,69,0
93.75,93.9,83,69,0
93.9,94.05,86,69,0
94.05,94.2,84,69,0
94.2,94.35,83,69,0
94.35,94.5,81,69,0
94.5,94.65,79,69,0
94.65,94.8,78,69,0
94.8,94.95,76,69,0
94.95,95.1,74,69,0
95.1,95.25,72,69,0
95.25,95.4,71,69,0
95.4,95.55,69,69,0
95.55,95.7,67,69,0
95.7,95.85,66,69,0
95.85,96.0,67,69,0
96.0,96.15,66,69,0
96.15,96.3,67,69,0
96.3,96.45,66,69,0
96.45,96.6,67,69,0
96.6,96.75,69,69,0
96.75,96.9,67,69,0
96.9,97.05,71,69,0
97.05,97.2,67,69,0
97.2,97.7625,64,69,0
98.1,98.3875,68,69,0
98.4,98.6875,69,69,0
98.7,98.9875,71,69,0
99.0,99.15,72,69,0
99.15,99.2,74,69,0
99.2,99.25,72,69,0
99.25,99.3,71,69,0
99.3,99.45,72,69,0
99.45,99.6,74,69,0
99.6,99.75,76,69,0
99.75,99.8,78,69,0
99.8,99.85,76,69,0
99.85,99.9,74,69,0
99.9,100.05,76,69,0
100.05,100.2,78,69,0
100.2,100.4875,79,69,0
100.5,100.7875,79,69,0
100.8,100.925,79,69,0
101.1,101.225,71,69,0
101.4,101.525,72,69,0
101.7,101.825,73,69,0
102.0,102.125,74,69,0
102.3,102.425,75,69,0
102.6,102.85,76,69,0
103.2,103.8,64,69,0
103.8,104.3625,66,69,0
104.4,105.2375,66,69,0
105.3,105.375,67,70,0
105.375,105.45,66,70,0
105.45,105.525,64,70,0
105.525,105.6,66,70,0
105.6,106.025,69,71,0
106.05,106.2,67,71,0
106.2,107.0375,67,72,0
107.1,107.175,68,73,0
107.175,107.25,67,73,0
107.25,107.325,66,73,0
107.325,107.4,67,73,0
107.4,107.825,70,74,0
107.85,108.0,68,74,0
108.0,108.8375,68,75,0
108.9,108.975,70,76,0
108.975,109.05,68,76,0
109.05,109.125,67,76,0
109.125,109.2,68,76,0
109.2,109.625,72,77,0
109.65,109.8,70,77,0
109.8,110.6375,70,78,0
110.7,110.775,72,79,0
110.775,110.85,70,79,0
110.85,110.925,69,79,0
110.925,111.0,70,79,0
111.0,111.425,73,80,0
111.45,111.6,72,80,0
111.6,112.4375,72,81,0
112.5,112.575,73,82,0
112.575,112.65,72,82,0
112.65,112.725,71,82,0
112.725,112.8,72,82,0
112.8,113.225,75,83,0
113.25,113.4,73,83,0
113.4,114.2375,73,84,0
114.3,114.375,75,85,0
114.375,114.45,73,85,0
114.45,114.525,72,85,0
114.525,114.6,73,85,0
114.6,115.025,79,86,0
115.05,115.2,80,86,0
115.2,116.0375,80,87,0
116.1,116.175,82,88,0
116.175,116.25,80,88,0
116.25,116.325,79,88,0
116.325,116.4,80,88,0
116.4,116.6875,84,89,0
116.7,116.9875,80,89,0
117.0,117.425,85,90,0
117.45,117.6,82,90,0
117.6,117.8875,79,91,0
117.9,117.975,84,91,0
117.975,118.05,82,91,0
118.05,118.125,81,91,0
118.125,118.2,82,91,0
118.2,118.65,85,92,0
118.65,118.8,82,92,0
118.8,119.6375,86,93,0
119.7,119.9875,83,84,0
120.0,120.1875,86,81,0
120.2,120.3875,83,79,0
120.4,120.5875,79,78,0
120.6,121.1625,74,76,0
121.8,122.4,78,69,0
121.8,122.4,72,69,0
121.8,122.4,69,69,0
122.4,122.9625,79,69,0
122.4,122.9625,71,69,0
122.4,122.9625,67,69,0
124.2,124.7625,72,69,0
124.8,125.3625,71,69,0
125.4,125.9625,69,69,0
126.0,126.6,68,85,0
126.6,127.35,69,69,0
127.35,127.5,71,69,0
127.5,127.65,72,69,0
127.65,127.8,74,69,0
127.8,128.3625,76,69,0
128.4,128.9625,74,69,0
129.0,129.5625,72,69,0
129.6,130.2,71,85,0
130.2,130.95,72,69,0
130.95,131.1,74,69,0
131.1,131.25,76,69,0
131.25,131.4,78,69,0
131.4,131.9625,79,69,0
132.0,132.5625,78,69,0
132.6,133.1625,76,69,0
133.2,133.4875,74,69,0
133.5,133.7875,79,69,0
133.8,134.0875,74,69,0
134.1,134.3875,71,69,0
134.4,134.6875,69,69,0
134.7,134.9875,76,69,0
135.0,135.425,74,69,0
135.45,135.6,71,69,0
135.6,135.8875,67,69,0
135.9,135.975,69,69,0
135.975,136.05,67,69,0
136.05,136.125,66,69,0
136.125,136.2,67,69,0
136.2,136.4875,72,69,0
136.5,136.7875,66,69,0
136.8,137.9125,67,69,0
140.85,141.0,79,69,0
141.0,141.15,78,69,0
141.15,141.3,79,69,0
141.3,141.45,81,69,0
141.45,141.6,79,69,0
141.6,142.1625,79,69,0
144.45,144.6,79,69,0
144.6,144.75,78,69,0
144.75,144.9,79,69,0
144.9,145.05,81,69,0
145.05,145.2,79,69,0
145.2,145.7625,79,69,0
148.8,149.3625,69,69,0
148.8,149.3625,64,69,0
148.8,149.3625,60,69,0
149.4,149.9625,67,69,0
149.4,149.9625,62,69,0
149.4,149.9625,59,69,0
150.6,151.1625,66,69,0
150.6,151.1625,60,69,0
150.6,151.1625,57,69,0
151.2,151.7625,67,69,0
151.2,151.7625,59,69,0
151.2,151.7625,55,69,0
153.9,154.05,84,84,0
154.05,154.2,83,84,0
154.2,154.35,86,84,0
154.35,154.5,84,84,0
154.5,154.65,83,84,0
154.65,154.8,81,84,0
154.8,155.3625,79,93,0
155.7,155.85,67,69,0
155.85,156.0,66,70,0
156.0,156.15,69,71,0
156.15,156.3,67,72,0
156.3,156.45,71,73,0
156.45,156.6,69,74,0
156.6,156.75,72,75,0
156.75,156.9,71,76,0
156.9,157.05,74,77,0
157.05,157.2,72,78,0
157.2,157.35,75,79,0
157.35,157.5,74,80,0
157.5,157.65,77,81,0
157.65,157.8,75,82,0
157.8,157.95,79,83,0
157.95,158.1,77,84,0
158.1,158.25,80,85,0
158.25,158.4,79,86,0
158.7,159.275,79,87,0
158.6,159.275,75,87,0
158.5,159.275,72,87,0
158.4,159.275,67,87,0
159.3,159.45,80,69,0
159.45,159.6,79,69,0
159.6,159.75,77,69,0
159.75,159.9,75,69,0
159.9,160.05,74,69,0
160.05,160.2,72,69,0
160.2,160.7625,72,69,0
160.8,161.3625,72,69,0
161.4,161.9625,72,69,0
162.0,162.8375,72,127,0
162.9,163.05,74,69,0
163.05,163.2,72,69,0
163.2,163.35,71,69,0
163.35,163.5,72,69,0
163.5,163.65,74,69,0
163.65,163.8,75,69,0
163.8,164.3625,77,69,0
165.6,166.1625,63,93,0
165.6,166.1625,60,93,0
165.6,166.1625,55,93,0
168.0,168.5625,63,69,0
168.6,169.1625,63,69,0
169.2,171.5625,68,69,0
169.2,171.5625,65,69,0
171.9,172.05,74,69,0
172.05,172.2,75,69,0
172.2,172.35,77,69,0
172.35,172.5,79,69,0
172.5,172.65,80,69,0
172.65,172.8,82,69,0
172.8,173.3625,84,69,0
173.4,173.9625,84,69,0
174.0,174.5625,84,69,0
174.6,175.1625,84,69,0
175.2,175.7625,82,69,0
175.8,176.3625,80,69,0
176.4,176.9625,79,69,0
177.3,177.375,80,69,0
177.375,177.45,79,69,0
177.45,177.525,77,69,0
177.525,177.6,79,69,0
177.6,177.8875,84,69,0
177.9,178.1875,77,69,0
178.2,178.4875,82,69,0
178.5,178.65,79,69,0
178.65,178.8,75,69,0
178.8,179.0875,70,69,0
179.1,179.3875,70,69,0
179.4,179.7,70,69,0
179.7,179.9875,74,69,0
180.0,180.5625,75,69,0
182.7,182.85,80,93,0
182.85,183.0,79,93,0
183.0,183.15,82,93,0
183.15,183.3,80,93,0
183.3,183.45,79,93,0
183.45,183.6,77,93,0
183.6,184.1625,75,93,0
184.2,184.7625,67,69,0
184.2,184.7625,63,69,0
184.8,185.3625,68,69,0
184.8,185.3625,65,69,0
185.4,185.9625,69,69,0
185.4,185.9625,66,69,0
186.0,186.5625,70,69,0
186.0,186.5625,67,69,0
186.6,187.2,69,69,0
186.6,187.4875,75,69,0
187.5,187.7875,74,69,0
187.8,188.3625,73,69,0
189.9,190.05,58,93,0
190.05,190.2,57,93,0
190.2,190.35,60,93,0
190.35,190.5,58,93,0
190.5,190.65,56,93,0
190.65,190.8,55,93,0
190.8,191.3625,53,93,0
191.4,191.9625,68,69,0
191.4,191.9625,65,69,0
192.0,192.5625,70,69,0
192.0,192.5625,67,69,0
192.6,193.1625,71,69,0
192.6,193.1625,68,69,0
193.2,193.7625,72,69,0
193.2,193.7625,69,69,0
193.8,194.4,71,69,0
193.8,194.6875,77,69,0
194.7,194.9875,76,69,0
195.0,195.5625,75,69,0
197.1,197.25,60,93,0
197.25,197.4,59,93,0
197.4,197.55,62,93,0
197.55,197.7,60,93,0
197.7,197.85,58,93,0
197.85,198.0,57,93,0
198.0,198.5625,55,93,0
198.6,199.1625,70,69,0
198.6,199.1625,67,69,0
199.2,199.7625,72,69,0
199.2,199.7625,69,69,0
199.8,200.3625,73,69,0
199.8,200.3625,70,69,0
200.4,200.9625,74,69,0
200.4,200.9625,71,69,0
201.0,201.6,73,69,0
201.0,201.8875,79,69,0
201.9,202.1875,78,69,0
202.2,202.7625,77,69,0
204.3,204.45,62,93,0
204.45,204.6,61,93,0
204.6,204.75,64,93,0
204.75,204.9,62,93,0
204.9,205.05,60,93,0
205.05,205.2,59,93,0
205.2,205.7625,57,93,0
207.9,208.05,72,93,0
208.05,208.2,71,93,0
208.2,208.35,74,93,0
208.35,208.5,72,93,0
208.5,208.65,71,93,0
208.65,208.8,69,93,0
208.8,209.3625,76,93,0
210.0,210.5625,69,93,0
210.0,210.5625,64,93,0
210.0,210.5625,60,93,0
210.6,211.1625,68,93,0
210.6,211.1625,64,93,0
210.6,211.1625,59,93,0
211.5,211.65,60,93,0
211.65,211.8,59,93,0
211.8,211.95,62,93,0
211.95,212.1,60,93,0
212.1,212.25,59,93,0
212.25,212.4,57,93,0
212.4,212.9625,64,93,0
213.3,213.45,76,69,0
213.45,213.6,75,69,0
213.6,213.75,78,69,0
213.75,213.9,76,69,0
213.9,214.05,75,69,0
214.05,214.2,73,69,0
214.2,214.7625,71,69,0
214.8,215.3625,71,69,0
215.4,215.9625,71,69,0
216.0,216.5625,71,69,0
216.9,217.05,76,69,0
217.05,217.2,75,69,0
217.2,217.35,78,69,0
217.35,217.5,76,69,0
217.5,217.65,75,69,0
217.65,217.8,73,69,0
217.8,218.3625,71,69,0
218.4,218.9625,71,69,0
219.0,219.5625,71,69,0
219.6,220.1625,71,69,0
220.5,220.65,76,69,0
220.65,220.8,75,69,0
220.8,220.95,78,70,0
220.95,221.1,76,71,0
221.1,221.25,74,72,0
221.25,221.4,72,73,0
221.4,221.9625,71,74,0
222.0,222.5625,71,78,0
222.6,223.1625,71,82,0
223.2,223.7625,71,86,0
224.1,224.25,76,92,0
224.25,224.4,74,93,0
224.4,224.55,77,93,0
224.55,224.7,76,93,0
224.7,224.85,74,93,0
224.85,225.0,72,93,0
225.0,225.5625,71,93,0
225.6,226.1625,71,93,0
226.2,226.7625,71,93,0
227.1,227.675,79,93,0
227.0,227.675,76,93,0
226.9,227.675,72,93,0
226.8,227.675,67,93,0
227.7,227.85,81,69,0
227.85,228.0,79,69,0
228.0,228.15,77,69,0
228.15,228.3,76,69,0
228.3,228.45,74,69,0
228.45,228.6,72,69,0
228.6,229.1625,72,69,0
229.2,229.7625,72,69,0
229.8,230.3625,72,69,0
230.4,231.2375,72,93,0
231.3,231.45,74,69,0
231.45,231.6,72,69,0
231.6,231.75,71,69,0
231.75,231.9,72,69,0
231.9,232.05,74,69,0
232.05,232.2,76,69,0
232.2,232.7625,77,69,0
233.1,233.25,76,69,0
233.25,233.4,74,69,0
233.4,233.55,72,69,0
233.55,233.7,74,69,0
233.7,233.85,76,69,0
233.85,234.0,77,69,0
234.0,234.5625,79,69,0
234.9,235.05,77,69,0
235.05,235.2,76,69,0
235.2,235.35,74,69,0
235.35,235.5,76,69,0
235.5,235.65,77,69,0
235.65,235.8,79,69,0
235.8,236.3625,81,69,0
236.4,237.0,69,69,0
237.0,237.5625,74,69,0
237.6,238.35,72,69,0
238.35,238.5,71,69,0
238.5,238.65,72,69,0
238.65,238.8,71,69,0
238.8,238.95,74,69,0
238.95,239.1,72,69,0
239.1,239.25,69,69,0
239.25,239.4,66,69,0
239.4,239.9625,67,69,0
241.2,241.7625,64,93,0
241.2,241.7625,60,93,0
241.2,241.7625,55,93,0
243.6,244.1625,64,69,0
243.6,244.1625,60,69,0
243.6,244.1625,55,69,0
244.2,244.7625,64,69,0
244.2,244.7625,60,69,0
244.2,244.7625,55,69,0
244.8,245.9125,65,127,0
244.8,245.9125,62,127,0
244.8,245.9125,55,127,0
246.3,246.45,62,69,0
246.45,246.6,60,69,0
246.6,246.75,59,69,0
246.75,246.9,60,69,0
246.9,247.05,62,69,0
247.05,247.2,64,69,0
247.2,247.7625,65,69,0
248.1,248.25,64,69,0
248.25,248.4,62,69,0
248.4,248.55,60,69,0
248.55,248.7,62,70,0
248.7,248.85,64,70,0
248.85,249.0,65,71,0
249.0,249.5625,67,71,0
249.9,250.05,65,74,0
250.05,250.2,64,75,0
250.2,250.35,62,75,0
250.35,250.5,64,76,0
250.5,250.65,65,76,0
250.65,250.8,67,77,0
250.8,251.3625,69,77,0
251.7,251.85,67,80,0
251.85,252.0,65,81,0
252.0,252.15,64,81,0
252.15,252.3,65,81,0
252.3,252.45,67,82,0
252.45,252.6,69,82,0
252.6,253.1625,70,83,0
253.5,253.65,69,86,0
253.65,253.8,67,86,0
253.8,253.95,65,87,0
253.95,254.1,67,87,0
254.1,254.25,69,88,0
254.25,254.4,70,88,0
254.4,254.9625,72,89,0
255.6,256.4375,84,93,0
256.5,256.65,86,93,0
256.65,256.8,88,93,0
256.8,256.95,86,93,0
256.95,257.1,84,93,0
257.1,257.25,83,93,0
257.25,257.4,81,93,0
257.4,257.55,79,93,0
257.55,257.7,78,93,0
257.7,257.85,81,93,0
257.85,258.0,80,93,0
258.0,258.15,83,93,0
258.15,258.3,81,93,0
258.3,258.45,84,93,0
258.45,258.6,83,93,0
258.6,258.75,86,93,0
258.75,258.9,84,93,0
258.9,259.05,81,93,0
259.05,259.2,78,93,0
259.2,260.0375,81,93,0
260.1,260.25,80,84,0
260.25,260.4,81,82,0
260.4,260.55,80,81,0
260.55,260.7,81,79,0
260.7,260.85,83,78,0
260.85,261.0,81,76,0
261.0,261.5625,79,75,0
266.4,267.2375,69,93,0
267.3,267.45,70,81,0
267.45,267.6,69,79,0
267.6,267.75,67,77,0
267.75,267.9,65,75,0
267.9,268.05,64,73,0
268.05,268.2,62,71,0
268.2,268.45,62,69,0
268.8,269.05,62,69,0
269.4,269.65,62,69,0
270.0,270.8375,77,93,0
270.9,271.05,79,87,0
271.05,271.2,77,86,0
271.2,271.35,76,85,0
271.35,271.5,74,84,0
271.5,271.65,72,83,0
271.65,271.8,71,82,0
271.8,271.95,69,81,0
271.95,272.1,67,80,0
272.1,272.25,66,79,0
272.25,272.4,67,78,0
272.4,272.55,66,77,0
272.55,272.7,67,76,0
272.7,272.85,69,75,0
272.85,273.0,68,74,0
273.0,273.15,71,73,0
273.15,273.3,69,72,0
273.3,273.45,67,71,0
273.45,273.6,65,70,0
273.6,273.8875,64,69,0
273.9,274.1875,60,69,0
274.2,274.4875,64,69,0
274.5,274.7875,67,69,0
274.8,275.0875,72,69,0
275.1,275.3875,71,69,0
275.7,275.9875,67,69,0
276.0,276.2875,72,69,0
276.3,276.5875,76,69,0
276.6,276.8875,79,69,0
276.9,277.1875,77,69,0
277.5,277.575,77,69,0
277.575,277.65,76,69,0
277.65,277.725,74,69,0
277.725,277.8,76,69,0
277.8,278.0875,79,69,0
278.1,278.225,72,69,0
278.4,278.7,71,69,0
278.7,278.9875,83,69,0
279.3,279.375,81,69,0
279.375,279.45,79,69,0
279.45,279.525,78,69,0
279.525,279.6,79,69,0
279.6,279.8875,84,69,0
279.9,280.025,76,69,0
280.2,280.5,77,69,0
280.5,280.7875,89,69,0
280.95,281.1,72,69,0
281.1,281.25,76,71,0
281.25,281.4,74,73,0
281.4,281.55,77,75,0
281.55,281.7,76,77,0
281.7,281.85,79,79,0
281.85,282.0,77,82,0
282.0,282.15,81,84,0
282.15,282.3,79,86,0
282.3,282.45,82,88,0
282.45,282.6,81,90,0
282.6,282.75,84,93,0
282.75,282.9,82,91,0
282.9,283.05,81,89,0
283.05,283.2,79,87,0
283.2,283.35,77,85,0
283.35,283.5,76,83,0
283.5,283.65,74,81,0
283.65,283.8,72,79,0
283.8,283.95,71,77,0
283.95,284.1,72,75,0
284.1,284.25,74,73,0
284.25,284.4,70,71,0
284.4,284.9625,69,69,0
285.3,285.425,73,69,0
285.6,285.725,74,69,0
285.9,286.025,76,69,0
286.2,286.35,77,69,0
286.35,286.4,79,69,0
286.4,286.45,77,69,0
286.45,286.5,76,69,0
286.5,286.65,77,69,0
286.65,286.8,79,69,0
286.8,286.95,81,69,0
286.95,287.0,83,69,0
287.0,287.05,81,69,0
287.05,287.1,80,69,0
287.1,287.25,81,69,0
287.25,287.4,83,69,0
287.4,287.6875,84,69,0
287.7,287.9875,84,69,0
288.0,288.3,84,85,0
288.3,288.425,76,69,0
288.6,288.725,77,69,0
288.9,289.025,78,69,0
289.2,289.325,79,69,0
289.5,289.625,80,69,0
289.8,290.05,81,69,0
290.4,291.0,69,69,0
291.0,291.5625,71,69,0
291.6,292.4375,71,69,0
292.5,292.575,72,70,0
292.575,292.65,71,70,0
292.65,292.725,69,70,0
292.725,292.8,71,70,0
292.8,293.225,74,70,0
293.25,293.4,72,71,0
293.4,294.2375,72,71,0
294.3,294.375,74,73,0
294.375,294.45,72,73,0
294.45,294.525,70,73,0
294.525,294.6,72,73,0
294.6,295.025,75,73,0
295.05,295.2,73,74,0
295.2,296.0375,73,74,0
296.1,296.175,75,76,0
296.175,296.25,73,76,0
296.25,296.325,72,76,0
296.325,296.4,73,76,0
296.4,296.825,77,76,0
296.85,297.0,75,77,0
297.0,297.8375,75,77,0
297.9,297.975,77,79,0
297.975,298.05,75,79,0
298.05,298.125,74,79,0
298.125,298.2,75,79,0
298.2,298.625,78,79,0
298.65,298.8,77,80,0
298.8,299.6375,77,80,0
299.7,299.775,78,82,0
299.775,299.85,77,82,0
299.85,299.925,76,82,0
299.925,300.0,77,82,0
300.0,300.425,80,82,0
300.45,300.6,78,83,0
300.6,301.4375,78,83,0
301.5,301.575,80,85,0
301.575,301.65,78,85,0
301.65,301.725,77,85,0
301.725,301.8,78,85,0
301.8,302.225,84,85,0
302.25,302.4,85,86,0
302.4,302.825,85,86,0
302.85,303.0,80,87,0
303.0,303.425,77,87,0
303.45,303.5125,85,88,0
303.6,303.675,87,88,0
303.675,303.75,85,88,0
303.75,303.825,87,88,0
303.825,303.9,85,88,0
303.9,303.975,87,89,0
303.975,304.05,85,89,0
304.05,304.125,84,89,0
304.125,304.2,85,89,0
304.2,304.625,87,89,0
304.65,304.8,84,90,0
304.8,305.225,78,90,0
305.25,305.3125,87,91,0
305.4,305.475,89,91,0
305.475,305.55,87,91,0
305.55,305.625,89,91,0
305.625,305.7,87,91,0
305.7,305.775,89,92,0
305.775,305.85,87,92,0
305.85,305.925,86,92,0
305.925,306.0,87,92,0
306.0,306.125,88,92,0
306.3,306.375,81,93,0
306.375,306.45,79,93,0
306.45,306.525,78,93,0
306.525,306.6,79,93,0
306.6,306.8875,84,89,0
306.9,307.1875,76,86,0
307.2,307.4875,79,82,0
307.5,307.7875,72,79,0
307.8,308.3625,76,75,0
309.0,309.5625,71,69,0
309.0,309.5625,65,69,0
309.0,309.5625,62,69,0
309.6,310.1625,72,69,0
309.6,310.1625,64,69,0
309.6,310.1625,60,69,0
311.4,311.9625,77,69,0
312.0,312.5625,76,69,0
312.6,313.1625,74,69,0
313.2,313.8,73,85,0
313.8,314.55,74,69,0
314.55,314.7,76,69,0
314.7,314.85,77,69,0
314.85,315.0,79,69,0
315.0,315.5625,81,69,0
315.6,316.1625,79,69,0
316.2,316.7625,77,69,0
316.8,317.4,76,85,0
317.4,318.15,77,69,0
318.15,318.3,79,69,0
318.3,318.45,81,69,0
318.45,318.6,83,69,0
318.6,319.1625,84,69,0
319.2,319.7625,83,69,0
319.8,320.3625,81,69,0
320.4,320.6875,79,69,0
320.7,320.9875,84,69,0
321.0,321.2875,79,69,0
321.3,321.5875,76,69,0
321.6,321.8875,74,69,0
321.9,322.1875,81,69,0
322.2,322.625,79,69,0
322.65,322.8,76,69,0
322.8,323.0875,72,69,0
323.1,323.175,74,69,0
323.175,323.25,72,69,0
323.25,323.325,71,69,0
323.325,323.4,72,69,0
323.4,323.6875,77,69,0
323.7,323.9875,71,69,0
324.0,325.1125,72,69,0
328.05,328.2,84,69,0
328.2,328.35,83,69,0
328.35,328.5,84,69,0
328.5,328.65,86,69,0
328.65,328.8,84,69,0
328.8,329.3625,84,69,0
331.65,331.8,84,69,0
331.8,331.95,83,69,0
331.95,332.1,84,69,0
332.1,332.25,86,69,0
332.25,332.4,84,69,0
332.4,332.9625,84,69,0
333.45,333.6,84,69,0
333.6,333.75,83,69,0
333.75,333.9,84,69,0
333.9,334.05,86,69,0
334.05,334.2,84,69,0
334.2,334.35,83,69,0
334.35,334.5,84,69,0
334.5,334.65,86,69,0
334.65,334.8,84,69,0
334.8,335.3625,84,69,0
336.0,336.5625,74,69,0
336.0,336.5625,69,69,0
336.0,336.5625,65,69,0
336.6,337.1625,72,69,0
336.6,337.1625,67,69,0
336.6,337.1625,64,69,0
337.8,338.3625,71,69,0
337.8,338.3625,65,69,0
337.8,338.3625,62,69,0
338.4,338.9625,72,69,0
338.4,338.9625,64,69,0
338.4,338.9625,60,69,0
341.1,341.25,77,69,0
341.25,341.4,76,69,0
341.4,341.55,79,69,0
341.55,341.7,77,69,0
341.7,341.85,76,69,0
341.85,342.0,74,69,0
342.0,342.5625,72,69,0
342.9,343.05,74,69,0
343.05,343.2,72,69,0
343.2,343.35,76,69,0
343.35,343.5,74,69,0
343.5,343.65,72,69,0
343.65,343.8,71,69,0
343.8,344.3625,69,69,0
344.4,344.85,74,69,0
344.85,345.0,71,69,0
345.0,345.5625,72,69,0
345.6,346.1625,69,69,0
346.2,346.7625,67,69,0
346.8,347.3625,65,69,0
347.4,347.6875,64,69,0
347.7,347.85,84,69,0
347.85,348.0,83,69,0
348.0,348.15,86,69,0
348.15,348.3,84,69,0
348.3,348.45,83,69,0
348.45,348.6,81,69,0
348.6,348.8875,79,69,0
348.9,349.1875,79,69,0
349.2,349.3,78,69,0
349.3,349.4,79,69,0
349.4,349.5,81,69,0
349.5,349.7875,79,69,0
349.8,350.3625,77,69,0
350.4,351.15,76,69,0
351.15,351.3,74,69,0
351.3,351.45,77,69,0
351.45,351.6,81,69,0
351.6,352.1625,72,69,0
352.2,352.275,76,69,0
352.275,352.625,74,69,0
352.65,352.8,72,69,0
352.8,353.3625,72,69,0
353.7,353.85,77,69,0
353.85,354.0,76,69,0
354.0,354.15,79,69,0
354.15,354.3,77,69,0
354.3,354.45,76,69,0
354.45,354.6,74,69,0
354.6,355.1625,72,69,0
355.8,356.3625,74,69,0
355.8,356.3625,71,69,0
355.8,356.3625,67,69,0
356.4,356.9625,76,69,0
356.4,356.9625,72,69,0
356.4,356.9625,67,69,0
357.6,358.1625,83,93,0
357.6,358.1625,79,93,0
357.6,358.1625,77,93,0
357.6,358.1625,74,93,0
358.2,358.7625,84,93,0
358.2,358.7625,79,93,0
358.2,358.7625,76,93,0
358.2,358.7625,72,93,0
25.2,26.3125,62,127,0
26.4,26.9625,59,69,0
28.8,30.6,65,127,0
30.6,31.1625,64,69,0
187.2,188.8625,70,69,0
194.4,195.5125,72,69,0
201.6,203.2625,74,69,0
0.0,0.5625,60,93,0
0.0,0.5625,55,93,0
0.0,0.5625,52,93,0
0.0,0.5625,48,93,0
2.4,2.9625,64,69,0
2.4,2.9625,60,69,0
3.0,3.5625,64,69,0
3.0,3.5625,60,69,0
3.6,5.2625,65,93,0
3.6,5.2625,62,93,0
3.6,5.2625,55,93,0
7.2,7.7625,60,69,0
7.2,7.7625,52,69,0
9.0,10.2,53,69,0
10.2,10.7625,54,69,0
10.8,13.1625,55,69,0
14.4,14.9625,48,93,0
14.4,14.9625,36,93,0
16.8,17.3625,48,69,0
17.4,17.9625,48,69,0
18.0,19.6625,43,93,0
18.0,19.6625,31,93,0
21.6,22.1625,52,69,0
21.6,22.1625,40,69,0
23.4,25.0625,53,69,0
23.4,25.0625,41,69,0
25.2,26.8625,43,127,0
27.0,27.5625,36,69,0
28.8,30.6,55,127,0
30.6,31.1625,57,69,0
31.8,32.3625,53,69,0
31.8,32.3625,41,69,0
32.4,34.2,55,93,0
32.4,34.2,43,93,0
34.2,34.7625,48,69,0
34.2,34.7625,36,69,0
35.1,35.25,53,69,0
35.25,35.4,52,69,0
35.4,35.55,55,69,0
35.55,35.7,53,69,0
35.7,35.85,52,69,0
35.85,36.0,50,69,0
36.0,36.5625,48,69,0
36.9,37.05,53,69,0
37.05,37.2,52,69,0
37.2,37.35,55,77,0
37.35,37.5,53,77,0
37.5,37.65,52,77,0
37.65,37.8,50,77,0
37.8,38.3625,48,77,0
38.7,38.85,53,77,0
38.85,39.0,52,77,0
39.0,39.15,55,84,0
39.15,39.3,53,84,0
39.3,39.45,52,84,0
39.45,39.6,50,84,0
39.6,40.1625,48,93,0
43.2,43.7625,57,93,0
43.2,43.7625,52,93,0
43.2,43.7625,48,93,0
43.2,43.7625,45,93,0
45.6,46.2,76,69,0
46.2,46.7625,72,69,0
45.6,46.7625,69,69,0
46.8,48.6,74,69,0
46.8,48.6,71,69,0
46.8,48.6,64,69,0
48.6,49.1625,72,69,0
48.6,49.1625,69,69,0
50.4,52.2,52,69,0
50.4,52.2,40,69,0
52.2,52.7625,45,69,0
54.0,57.3125,50,69,0
57.6,59.4,66,69,0
57.6,59.4,57,69,0
59.4,59.9625,67,69,0
59.4,59.9625,59,69,0
57.6,59.9625,55,69,0
60.0,60.5625,43,69,0
61.8,62.3625,66,69,0
61.8,62.3625,62,69,0
61.8,62.3625,60,69,0
63.6,64.1625,67,69,0
63.6,64.1625,62,69,0
63.6,64.1625,59,69,0
65.4,65.9625,66,69,0
65.4,65.9625,62,69,0
65.4,65.9625,60,69,0
67.2,67.7625,67,69,0
67.2,67.7625,62,69,0
67.2,67.7625,59,69,0
68.4,70.0625,67,69,0
68.4,70.0625,64,69,0
70.2,71.3125,67,69,0
70.2,71.3125,64,69,0
71.4,71.9625,64,69,0
71.4,71.9625,61,69,0
72.0,73.8,61,69,0
72.0,73.8,55,69,0
73.8,74.3625,62,69,0
72.0,74.3625,57,69,0
73.8,74.3625,54,69,0
72.0,74.3625,50,69,0
75.6,76.1625,43,69,0
76.2,76.7625,47,69,0
76.8,77.3625,50,69,0
77.4,77.9625,47,69,0
78.0,78.5625,43,69,0
81.0,81.8375,64,93,0
81.9,82.05,66,84,0
82.05,82.2,64,82,0
82.2,82.35,62,81,0
82.35,82.5,61,79,0
82.5,82.65,59,78,0
82.65,82.8,57,76,0
82.8,83.05,57,75,0
83.4,83.65,57,69,0
84.0,84.25,57,69,0
84.6,85.1625,57,69,0
85.2,85.7625,54,69,0
85.8,86.3625,50,69,0
86.4,86.9625,55,69,0
87.6,88.1625,57,69,0
87.6,88.1625,50,69,0
88.2,88.7625,55,69,0
88.2,88.7625,43,69,0
89.4,89.9625,57,69,0
89.4,89.9625,50,69,0
90.0,90.5625,55,69,0
91.2,91.7625,57,69,0
91.2,91.7625,50,69,0
91.8,92.3625,55,69,0
91.8,92.3625,43,69,0
93.0,93.5625,57,69,0
93.0,93.5625,50,69,0
93.6,94.1625,59,69,0
93.6,94.1625,55,69,0
95.4,97.2,50,69,0
95.4,97.2,47,69,0
95.4,97.7625,55,69,0
97.2,97.7625,52,69,0
97.2,97.7625,48,69,0
100.2,100.7625,58,69,0
100.2,100.7625,55,69,0
100.2,100.7625,52,69,0
100.2,100.7625,49,69,0
100.8,101.05,59,69,0
100.8,101.05,55,69,0
100.8,101.05,50,69,0
103.8,104.3625,60,69,0
103.8,104.3625,57,69,0
103.8,104.3625,50,69,0
104.4,107.7125,51,69,0
108.0,111.3125,51,75,0
111.6,114.9125,51,81,0
115.2,118.5125,51,87,0
118.8,119.3625,59,93,0
118.8,119.3625,55,93,0
118.8,119.3625,50,93,0
121.8,122.4,50,93,0
122.4,122.9625,43,93,0
124.2,124.7625,64,93,0
124.8,125.3625,62,93,0
125.4,125.9625,60,93,0
126.0,126.6,59,109,0
126.6,127.35,60,93,0
127.35,127.5,62,93,0
127.5,127.65,60,93,0
127.65,127.8,59,93,0
127.8,128.3625,60,93,0
128.4,128.9625,59,93,0
129.0,129.5625,57,93,0
129.6,130.2,56,109,0
130.2,130.95,57,93,0
130.95,131.1,59,93,0
131.1,131.25,60,93,0
131.25,131.4,62,93,0
131.4,131.9625,64,93,0
132.0,132.5625,62,93,0
132.6,133.1625,60,93,0
133.2,133.7625,59,93,0
134.4,134.9625,57,93,0
134.4,134.9625,48,93,0
135.0,135.5625,59,93,0
135.0,135.5625,50,93,0
136.2,136.7625,60,93,0
136.2,136.7625,57,93,0
136.2,136.7625,50,93,0
136.8,137.0875,59,93,0
136.8,137.0875,55,93,0
137.1,137.3875,55,93,0
137.4,137.6875,43,93,0
137.7,137.9875,55,93,0
138.0,138.2875,43,93,0
138.3,138.5875,55,93,0
138.6,138.8875,43,93,0
138.9,139.1875,55,93,0
139.2,139.4875,43,93,0
139.5,139.7875,55,93,0
139.8,140.0875,43,93,0
140.1,140.3875,55,93,0
140.4,140.6875,43,93,0
140.7,140.9875,55,93,0
141.0,141.2875,43,93,0
141.3,141.5875,55,93,0
141.6,141.8875,43,93,0
141.9,142.1875,55,93,0
142.2,142.4875,43,93,0
142.5,142.7875,55,93,0
142.8,143.0875,43,93,0
143.1,143.3875,55,93,0
143.4,143.6875,43,93,0
143.7,143.9875,55,93,0
144.0,144.2875,43,93,0
144.3,144.5875,55,93,0
144.6,144.8875,43,93,0
144.9,145.1875,55,93,0
145.2,145.4875,43,93,0
145.5,145.7875,55,93,0
145.8,146.0875,43,93,0
146.1,146.3875,55,93,0
146.4,146.6875,43,93,0
146.7,146.9875,55,93,0
147.0,147.2875,43,93,0
147.3,147.5875,55,93,0
147.6,148.1625,43,93,0
148.8,149.3625,48,93,0
149.4,149.9625,50,93,0
150.6,151.1625,38,93,0
151.2,151.7625,43,93,0
152.4,152.9625,60,77,0
152.4,152.9625,54,77,0
152.4,152.9625,50,77,0
153.0,153.5625,59,77,0
153.0,153.5625,55,77,0
154.2,154.7625,72,84,0
154.2,154.7625,66,84,0
154.2,154.7625,62,84,0
154.8,155.3625,71,93,0
154.8,155.3625,67,93,0
158.4,158.9625,60,93,0
158.4,158.9625,55,93,0
158.4,158.9625,51,93,0
158.4,158.9625,48,93,0
160.8,161.3625,63,69,0
160.8,161.3625,60,69,0
161.4,161.9625,63,69,0
161.4,161.9625,60,69,0
162.0,163.6625,65,127,0
162.0,163.6625,62,127,0
162.0,163.6625,55,127,0
165.6,166.1625,48,93,0
165.6,166.1625,36,93,0
168.0,168.5625,60,69,0
168.6,169.1625,60,69,0
169.2,171.5625,62,69,0
171.9,172.05,58,69,0
172.05,172.2,60,69,0
172.2,172.35,62,69,0
172.35,172.5,63,69,0
172.5,172.65,65,69,0
172.65,172.8,67,69,0
172.8,173.3625,68,69,0
173.4,173.9625,68,69,0
174.0,174.5625,68,69,0
174.6,175.1625,68,69,0
175.2,175.7625,67,69,0
175.8,176.3625,65,69,0
176.4,176.9625,63,69,0
177.6,178.1625,65,69,0
177.6,178.1625,60,69,0
177.6,178.1625,56,69,0
178.2,178.7625,67,69,0
178.2,178.7625,63,69,0
178.2,178.7625,58,69,0
179.4,179.9625,68,69,0
179.4,179.9625,65,69,0
179.4,179.9625,58,69,0
180.0,180.5625,67,69,0
180.0,180.5625,63,69,0
181.2,181.7625,56,69,0
181.2,181.7625,50,69,0
181.2,181.7625,46,69,0
181.8,182.3625,55,69,0
181.8,182.3625,51,69,0
183.0,183.5625,68,69,0
183.0,183.5625,62,69,0
183.0,183.5625,58,69,0
183.6,184.1625,67,69,0
183.6,184.1625,63,69,0
189.9,190.05,46,93,0
190.05,190.2,45,93,0
190.2,190.35,48,93,0
190.35,190.5,46,93,0
190.5,190.65,44,93,0
190.65,190.8,43,93,0
190.8,191.3625,41,93,0
197.1,197.25,48,93,0
197.25,197.4,47,93,0
197.4,197.55,50,93,0
197.55,197.7,48,93,0
197.7,197.85,46,93,0
197.85,198.0,45,93,0
198.0,198.5625,43,93,0
204.3,204.45,50,93,0
204.45,204.6,49,93,0
204.6,204.75,52,93,0
204.75,204.9,50,93,0
204.9,205.05,48,93,0
205.05,205.2,47,93,0
205.2,205.7625,45,93,0
205.8,206.3625,63,93,0
205.8,206.3625,57,93,0
206.4,206.9625,64,93,0
206.4,206.9625,56,93,0
207.0,207.5625,61,93,0
207.0,207.5625,55,93,0
207.6,208.1625,62,93,0
207.6,208.1625,54,93,0
208.2,208.7625,63,93,0
208.2,208.7625,53,93,0
208.8,209.3625,64,93,0
208.8,209.3625,59,93,0
208.8,209.3625,52,93,0
210.0,210.5625,57,93,0
210.6,211.1625,52,93,0
211.5,211.65,48,93,0
211.65,211.8,47,93,0
211.8,211.95,50,93,0
211.95,212.1,48,93,0
212.1,212.25,47,93,0
212.25,212.4,45,93,0
212.4,212.9625,52,93,0
214.8,215.3625,68,69,0
214.8,215.3625,64,69,0
215.4,215.9625,68,69,0
215.4,215.9625,64,69,0
216.0,216.5625,68,69,0
216.0,216.5625,64,69,0
218.4,218.9625,67,69,0
218.4,218.9625,64,69,0
219.0,219.5625,67,69,0
219.0,219.5625,64,69,0
219.6,220.1625,67,69,0
219.6,220.1625,64,69,0
222.0,222.5625,67,77,0
222.0,222.5625,64,77,0
222.6,223.1625,67,81,0
222.6,223.1625,64,81,0
223.2,223.7625,67,85,0
223.2,223.7625,65,85,0
223.2,223.7625,62,85,0
225.6,226.1625,67,93,0
225.6,226.1625,65,93,0
225.6,226.1625,62,93,0
226.2,226.7625,67,93,0
226.2,226.7625,65,93,0
226.2,226.7625,62,93,0
226.8,227.3625,60,93,0
226.8,227.3625,55,93,0
226.8,227.3625,52,93,0
226.8,227.3625,48,93,0
229.2,229.7625,64,69,0
229.2,229.7625,60,69,0
229.8,230.3625,64,69,0
229.8,230.3625,60,69,0
230.4,232.0625,65,93,0
230.4,232.0625,62,93,0
230.4,232.0625,55,93,0
234.0,234.5625,60,69,0
234.0,234.5625,52,69,0
235.8,237.0,53,69,0
237.0,237.5625,54,69,0
237.6,239.9625,55,69,0
241.2,241.7625,48,93,0
241.2,241.7625,36,93,0
243.6,244.1625,48,69,0
244.2,244.7625,48,69,0
244.8,246.4625,43,127,0
244.8,246.4625,31,127,0
247.2,247.7625,59,69,0
247.2,247.7625,53,69,0
247.2,247.7625,50,69,0
249.0,249.5625,61,77,0
249.0,249.5625,58,77,0
249.0,249.5625,55,77,0
249.0,249.5625,52,77,0
250.8,251.3625,62,84,0
250.8,251.3625,57,84,0
250.8,251.3625,53,84,0
252.6,253.1625,64,93,0
252.6,253.1625,60,93,0
252.6,253.1625,58,93,0
252.6,253.1625,55,93,0
254.4,254.9625,65,93,0
254.4,254.9625,60,93,0
254.4,254.9625,57,93,0
255.6,258.9125,50,93,0
255.6,258.9125,38,93,0
259.2,260.8625,43,93,0
259.2,260.8625,31,93,0
261.15,261.3,43,69,0
261.3,261.45,45,71,0
261.45,261.6,47,74,0
261.6,261.75,48,77,0
261.75,261.9,47,79,0
261.9,262.05,50,82,0
262.05,262.2,48,85,0
262.2,262.35,52,87,0
262.35,262.5,50,90,0
262.5,262.65,53,93,0
262.65,262.8,52,91,0
262.8,263.6375,55,90,0
263.7,263.85,57,82,0
263.85,264.0,55,81,0
264.0,264.15,53,79,0
264.15,264.3,52,78,0
264.3,264.45,50,77,0
264.45,264.6,48,75,0
264.6,264.85,48,74,0
265.2,265.45,48,69,0
265.8,266.05,48,69,0
266.4,266.9625,41,69,0
267.0,267.5625,45,69,0
267.6,268.1625,48,69,0
268.2,268.7625,45,69,0
268.8,269.3625,42,69,0
270.0,270.5625,43,93,0
270.0,270.5625,31,93,0
270.6,271.1625,47,93,0
270.6,271.1625,35,93,0
271.2,271.7625,50,93,0
271.2,271.7625,38,93,0
271.8,272.3625,47,93,0
271.8,272.3625,35,93,0
272.4,272.9625,43,93,0
272.4,272.9625,31,93,0
273.6,274.1625,48,69,0
273.6,274.1625,36,69,0
274.8,275.3625,50,69,0
274.8,275.3625,43,69,0
275.4,275.9625,48,69,0
275.4,275.9625,36,69,0
276.6,277.1625,50,69,0
276.6,277.1625,43,69,0
277.2,277.7625,52,69,0
277.2,277.7625,48,69,0
278.4,278.9625,62,69,0
278.4,278.9625,52,69,0
279.0,279.5625,60,69,0
279.0,279.5625,48,69,0
280.2,280.7625,62,69,0
280.2,280.7625,55,69,0
280.8,281.3625,64,69,0
280.8,281.3625,60,69,0
282.6,284.2625,60,69,0
282.6,284.2625,55,69,0
282.6,284.2625,52,69,0
284.4,284.9625,60,69,0
284.4,284.9625,57,69,0
284.4,284.9625,53,69,0
287.4,287.9625,63,69,0
287.4,287.9625,57,69,0
287.4,287.9625,54,69,0
288.0,288.5625,64,69,0
288.0,288.5625,60,69,0
288.0,288.5625,55,69,0
291.0,291.5625,65,69,0
291.0,291.5625,62,69,0
291.0,291.5625,55,69,0
291.6,294.9125,56,69,0
295.2,298.5125,56,75,0
298.8,302.1125,56,81,0
302.4,305.7125,56,87,0
306.0,306.5625,67,93,0
306.0,306.5625,64,93,0
306.0,306.5625,60,93,0
306.0,306.5625,55,93,0
309.0,309.5625,55,93,0
309.6,310.1625,48,93,0
311.4,311.9625,69,69,0
312.0,312.5625,67,69,0
312.6,313.1625,65,69,0
313.2,313.8,64,85,0
313.8,314.55,65,69,0
314.55,314.7,67,69,0
314.7,314.85,65,69,0
314.85,315.0,64,69,0
315.0,315.5625,65,69,0
315.6,316.1625,64,69,0
316.2,316.7625,62,69,0
316.8,317.4,61,85,0
317.4,318.15,62,69,0
318.15,318.3,64,69,0
318.3,318.45,65,69,0
318.45,318.6,67,69,0
318.6,319.1625,69,69,0
319.2,319.7625,67,69,0
319.8,320.3625,65,69,0
320.4,320.9625,64,69,0
321.6,322.1625,62,69,0
321.6,322.1625,53,69,0
322.2,322.7625,64,69,0
322.2,322.7625,55,69,0
323.4,323.9625,65,69,0
323.4,323.9625,62,69,0
323.4,323.9625,55,69,0
324.0,324.2875,64,69,0
324.0,324.2875,60,69,0
324.3,324.5875,48,69,0
324.6,324.8875,36,69,0
324.9,325.1875,48,69,0
325.2,325.4875,36,69,0
325.5,325.7875,48,69,0
325.8,326.0875,36,69,0
326.1,326.3875,48,69,0
326.4,326.6875,36,69,0
326.7,326.9875,48,69,0
327.0,327.2875,36,69,0
327.3,327.5875,48,69,0
327.6,327.8875,36,69,0
327.9,328.1875,48,69,0
328.2,328.4875,36,69,0
328.5,328.7875,48,69,0
328.8,329.0875,36,69,0
329.1,329.3875,48,69,0
329.4,329.6875,36,69,0
329.7,329.9875,48,69,0
330.0,330.2875,36,69,0
330.3,330.5875,48,69,0
330.6,330.8875,36,69,0
330.9,331.1875,48,69,0
331.2,331.4875,36,69,0
331.5,331.7875,48,69,0
331.8,332.0875,36,69,0
332.1,332.3875,48,69,0
332.4,332.6875,36,69,0
332.7,332.9875,48,69,0
333.0,333.2875,36,69,0
333.3,333.5875,48,69,0
333.6,333.8875,36,69,0
333.9,334.1875,48,69,0
334.2,334.4875,36,69,0
334.5,334.7875,48,69,0
334.8,335.3625,48,69,0
336.0,336.5625,53,69,0
336.6,337.1625,55,69,0
337.8,338.3625,43,69,0
338.4,338.9625,48,69,0
339.6,340.1625,53,69,0
339.6,340.1625,47,69,0
339.6,340.1625,43,69,0
340.2,340.7625,52,69,0
340.2,340.7625,48,69,0
341.4,341.9625,65,69,0
341.4,341.9625,59,69,0
341.4,341.9625,55,69,0
342.0,342.5625,64,69,0
342.0,342.5625,60,69,0
344.1,344.25,53,69,0
344.25,344.4,52,69,0
344.4,344.55,55,69,0
344.55,344.7,53,69,0
344.7,344.85,52,69,0
344.85,345.0,50,69,0
345.0,345.5625,48,69,0
345.6,346.1625,53,69,0
346.2,347.3125,55,69,0
347.4,347.9625,60,69,0
350.1,350.25,43,69,0
350.25,350.4,41,69,0
350.4,350.55,45,69,0
350.55,350.7,43,69,0
350.7,350.85,41,69,0
350.85,351.0,40,69,0
351.0,351.5625,41,69,0
351.6,352.1625,43,69,0
352.2,352.7625,43,69,0
352.8,353.3625,36,69,0
354.0,354.5625,65,69,0
354.0,354.5625,59,69,0
354.0,354.5625,55,69,0
354.6,355.1625,64,69,0
354.6,355.1625,60,69,0
355.8,356.3625,55,69,0
355.8,356.3625,43,69,0
356.4,356.9625,60,69,0
356.4,356.9625,48,69,0
357.6,358.1625,55,93,0
357.6,358.1625,43,93,0
358.2,358.7625,48,93,0
358.2,358.7625,36,93,0
9.0,9.6,60,64,0
9.6,11.9125,62,64,0
12.0,12.5625,60,64,0
12.6,13.1625,59,64,0
28.8,29.9125,62,127,0
30.0,30.5625,59,69,0
30.6,31.1625,60,69,0
54.0,55.8,60,69,0
54.0,57.4625,57,69,0
55.8,57.4625,54,69,0
68.4,71.7125,57,69,0
104.4,106.0625,60,69,0
106.2,107.8625,55,72,0
108.0,109.6625,56,75,0
109.8,111.4625,55,78,0
111.6,113.2625,60,81,0
111.6,113.2625,56,81,0
113.4,114.5125,58,84,0
113.4,114.5125,55,84,0
114.6,115.1625,61,86,0
114.6,115.1625,58,86,0
115.2,116.8625,60,87,0
115.2,116.8625,56,87,0
117.0,118.6625,58,90,0
117.0,118.6625,55,90,0
235.8,236.4,60,93,0
236.4,238.7125,62,93,0
238.8,239.3625,60,93,0
239.4,239.9625,59,93,0
291.6,293.2625,65,69,0
293.4,295.0625,60,72,0
295.2,296.8625,65,75,0
295.2,296.8625,61,75,0
297.0,298.6625,60,78,0
298.8,300.4625,65,81,0
298.8,300.4625,61,81,0
300.6,301.8,60,84,0
301.8,302.3625,66,86,0
300.6,302.3625,63,84,0
302.4,304.0625,65,87,0
302.4,304.0625,61,87,0
304.2,305.8625,63,90,0
304.2,305.8625,60,90,0
343.5,343.65,64,93,0
343.65,343.8,62,93,0
343.8,343.95,65,93,0
343.95,344.1,64,93,0
344.1,344.25,62,93,0
344.25,344.4,60,93,0
344.4,344.9625,59,93,0
345.0,345.5625,52,93,0
345.6,346.1625,57,93,0
346.2,346.7625,64,93,0
346.8,347.3625,62,93,0
347.4,347.9625,60,93,0
349.5,349.65,53,93,0
349.65,349.8,52,93,0
349.8,349.95,55,93,0
349.95,350.1,53,93,0
350.1,350.25,52,93,0
350.25,350.4,50,93,0
350.4,350.9625,48,93,0
104.4,105.6,57,69,0
105.6,106.1625,54,71,0
106.2,107.4,58,72,0
107.4,107.9625,61,74,0
108.0,109.6625,60,75,0
109.8,111.0,61,78,0
111.0,111.5625,58,80,0
291.6,292.8,62,69,0
292.8,293.3625,59,71,0
293.4,294.6,63,72,0
294.6,295.1625,66,74,0
297.0,298.2,66,78,0
298.2,298.7625,63,80,0
