start_time,end_time,note_value,velocity,instrument_program_number
12.230757,12.447103,74,83,40
12.461526,12.783641,79,83,40
12.807679,12.918257,81,83,40
12.923064,13.13941,79,83,40
13.153833,13.370179,78,83,40
13.615371,13.831717,74,83,40
13.84614,14.168255,79,83,40
14.192293,14.302871,81,83,40
14.307678,14.524024,79,83,40
14.538447,14.754793,84,83,40
14.999985,15.216331,83,83,40
15.230754,15.552869,81,83,40
15.576907,15.687485,83,83,40
15.692292,15.908638,81,83,40
15.923061,16.139406,76,83,40
16.3846,16.600945,81,83,40
16.615368,17.307674,79,83,40
17.307674,17.524021,78,83,40
17.769213,17.98556,74,83,40
17.999983,18.322098,79,83,40
18.346136,18.456713,81,83,40
18.46152,18.677866,79,83,40
18.69229,18.908634,78,83,40
19.153828,19.370173,74,83,40
19.384596,19.70671,79,83,40
19.73075,19.841326,81,83,40
19.846134,20.062479,79,83,40
20.076902,20.29325,84,83,40
20.53844,20.754787,83,83,40
20.76921,21.091326,81,83,40
21.115364,21.22594,83,83,40
21.230747,21.447094,84,83,40
21.461517,21.677862,76,83,40
21.923056,22.1394,78,83,40
22.153824,22.84613,81,83,40
22.84613,23.062477,79,83,40
28.846125,29.062471,69,83,40
29.076895,29.39901,79,83,40
29.423048,29.533625,81,83,40
29.538431,29.754778,79,83,40
29.769201,29.985546,78,83,40
30.23074,30.447084,86,83,40
30.461508,30.783623,79,83,40
30.807661,30.918238,81,83,40
30.923046,31.139393,79,83,40
31.153814,31.370161,78,83,40
31.615353,31.8317,86,83,40
31.846123,32.06247,76,83,40
32.30766,32.524006,83,83,40
32.53843,32.754776,69,83,40
32.999966,33.216312,73,83,40
33.230736,33.923042,76,83,40
33.923042,34.13939,74,83,40
45.461494,45.677837,74,83,40
45.69226,46.014378,79,83,40
46.038414,46.14899,81,83,40
46.1538,46.370148,79,83,40
46.384567,46.600914,78,83,40
46.846107,47.062454,74,83,40
47.076878,47.39899,79,83,40
47.42303,47.533607,81,83,40
47.538414,47.75476,79,83,40
47.769184,47.985527,84,83,40
48.23072,48.447067,83,83,40
48.46149,48.783604,81,83,40
48.807644,48.91822,83,83,40
48.923027,49.139374,84,83,40
49.153797,49.370144,76,83,40
49.615334,49.83168,78,83,40
49.846104,50.53841,81,83,40
50.53841,50.754757,79,83,40
51.461487,51.677834,62,62,40
51.461487,51.677834,58,62,40
51.692257,51.908604,62,62,40
51.692257,51.908604,58,62,40
52.153793,52.37014,62,62,40
52.153793,52.37014,60,62,40
52.384563,52.60091,62,62,40
52.384563,52.60091,60,62,40
52.8461,53.062447,58,62,40
53.07687,53.293217,60,62,40
53.30764,53.523987,62,62,40
53.538406,53.754753,60,62,40
53.769176,53.985523,58,62,40
54.230717,54.44706,62,62,40
54.230717,54.44706,57,62,40
54.461483,54.67783,62,62,40
54.461483,54.67783,57,62,40
54.923023,55.139366,62,62,40
54.923023,55.139366,58,62,40
55.15379,55.370136,62,62,40
55.15379,55.370136,58,62,40
55.61533,55.831676,57,62,40
55.8461,56.062443,58,62,40
56.076866,56.293213,60,62,40
56.307636,56.523983,58,62,40
56.538406,56.75475,57,62,40
56.999943,57.21629,62,62,40
57.230713,57.44706,62,63,40
57.69225,57.92302,63,66,40
57.92302,58.139366,64,68,40
58.15379,58.370132,65,70,40
58.384556,58.600903,63,71,40
58.615326,58.831673,60,73,40
58.846096,59.062443,58,74,40
59.076862,59.29321,62,76,40
59.307632,59.52398,65,78,40
59.769173,59.985516,67,81,40
59.99994,60.216286,67,83,40
60.46148,60.677822,63,83,40
60.692245,60.908592,63,83,40
60.923016,61.615322,69,83,40
61.615322,61.83167,70,83,40
62.5384,62.754745,62,62,40
62.5384,62.754745,58,62,40
62.76917,62.985516,62,62,40
62.76917,62.985516,58,62,40
63.230705,63.447052,62,62,40
63.230705,63.447052,60,62,40
63.461475,63.677822,62,62,40
63.461475,63.677822,60,62,40
63.92301,64.13936,58,62,40
64.153786,64.370125,60,62,40
64.38455,64.6009,62,62,40
64.61532,64.831665,60,62,40
64.84609,65.06243,58,62,40
65.307625,65.52397,62,62,40
65.307625,65.52397,57,62,40
65.5384,65.754745,62,62,40
65.5384,65.754745,57,62,40
65.99993,66.21628,62,62,40
65.99993,66.21628,58,62,40
66.230705,66.44705,62,62,40
66.230705,66.44705,58,62,40
66.69224,66.908585,57,62,40
66.92301,67.13936,58,62,40
67.15378,67.370125,60,62,40
67.384544,67.60089,58,62,40
67.61532,67.831665,57,62,40
68.07686,68.2932,62,62,40
68.307625,68.52397,62,63,40
68.769165,68.99993,63,66,40
68.99993,69.21628,64,68,40
69.2307,69.447044,65,70,40
69.46147,69.67782,63,71,40
69.69224,69.908585,60,73,40
69.923004,70.13935,58,74,40
70.15378,70.370125,62,76,40
70.384544,70.60089,65,78,40
70.846085,71.06243,67,81,40
71.07685,71.2932,67,83,40
71.53839,71.75474,63,83,40
71.76916,71.985504,63,83,40
71.99993,72.69224,69,83,40
72.69224,72.908585,70,83,40
73.15377,73.37012,70,62,40
73.384544,73.70666,74,62,40
73.7307,73.84127,75,62,40
73.84608,74.06242,74,62,40
74.07685,74.2932,74,62,40
74.30762,74.523964,75,62,40
74.53838,74.75473,77,62,40
74.76916,74.99992,77,62,40
74.99992,75.21627,72,62,40
75.923004,76.13934,62,62,40
76.15377,76.47588,70,62,40
76.49992,76.6105,72,62,40
76.61531,76.83166,70,62,40
76.84608,77.06242,70,62,40
77.07684,77.29319,72,62,40
77.30762,77.523964,74,62,40
77.53838,77.76915,74,62,40
77.76915,77.9855,69,62,40
78.69223,78.90858,74,62,40
78.923,79.24511,75,62,40
79.26915,79.37973,77,64,40
79.38454,79.60088,75,65,40
79.6153,80.04319,75,66,40
80.07684,80.29319,75,69,40
80.30761,80.62973,74,71,40
80.65376,80.76434,81,73,40
80.76915,80.9855,84,74,40
80.999916,81.21626,82,76,40
81.46146,81.6778,79,79,40
81.69222,82.01434,81,80,40
82.038376,82.14896,82,83,40
82.15376,82.37011,84,83,40
82.38454,82.70665,74,83,40
82.73069,82.84126,76,83,40
82.84607,83.062416,78,83,40
83.07684,83.76915,81,83,40
83.76915,83.9855,79,83,40
84.23068,84.44703,70,62,40
84.46146,84.78357,74,62,40
84.80761,84.91818,75,62,40
84.92299,85.139336,74,62,40
85.15376,85.37011,74,62,40
85.38453,85.600876,75,62,40
85.615295,85.83164,77,62,40
85.84607,86.076836,77,62,40
86.076836,86.29318,72,62,40
86.999916,87.216255,62,62,40
87.23068,87.552795,70,62,40
87.576836,87.687416,72,62,40
87.69222,87.90857,70,62,40
87.92299,88.139336,70,62,40
88.153755,88.3701,72,62,40
88.38453,88.600876,74,62,40
88.615295,88.84606,74,62,40
88.84606,89.06241,69,62,40
89.76914,89.98549,74,62,40
89.99991,90.32202,75,62,40
90.34606,90.45664,77,64,40
90.46145,90.677795,75,65,40
90.692215,91.1201,75,66,40
91.153755,91.3701,75,69,40
91.38452,91.70664,74,71,40
91.730675,91.841255,81,73,40
91.84606,92.06241,84,74,40
92.07683,92.293175,82,76,40
92.53837,92.754715,79,79,40
92.769135,93.091255,81,80,40
93.11529,93.22587,82,83,40
93.230675,93.44702,84,83,40
93.46145,93.78356,74,83,40
93.8076,93.918175,76,83,40
93.92298,94.13933,78,83,40
94.153755,94.84606,81,83,40
94.84606,95.06241,79,83,40
106.38451,106.60085,74,83,40
106.61528,106.93739,79,83,40
106.96143,107.07201,81,83,40
107.07681,107.29316,79,83,40
107.30759,107.52393,78,83,40
107.76912,107.985466,74,83,40
107.99989,108.32201,79,83,40
108.34605,108.45662,81,83,40
108.46143,108.67777,79,83,40
108.6922,108.90855,84,83,40
109.15374,109.37009,83,83,40
109.38451,109.70662,81,83,40
109.73066,109.84124,83,83,40
109.84605,110.06239,81,83,40
110.07681,110.29316,76,83,40
110.53835,110.7547,81,83,40
110.76912,111.461426,79,83,40
111.461426,111.67777,78,83,40
111.922966,112.13931,74,83,40
112.15373,112.475845,79,83,40
112.499886,112.610466,81,83,40
112.61527,112.83162,79,83,40
112.84604,113.062386,78,83,40
113.30758,113.523926,74,83,40
113.538345,113.860466,79,83,40
113.8845,113.99508,81,83,40
113.999886,114.21623,79,83,40
114.23065,114.447,84,83,40
114.69219,114.90854,83,83,40
114.92296,115.24508,81,83,40
115.26912,115.37969,83,83,40
115.3845,115.600845,84,83,40
115.61527,115.83161,76,83,40
116.076805,116.29315,78,83,40
116.30758,116.999886,81,83,40
116.999886,117.21623,79,83,40
119.99988,120.216225,86,83,40
120.23065,120.447,84,80,40
120.46142,120.677765,83,78,40
120.692184,120.90853,81,76,40
120.92296,121.139305,79,74,40
121.153725,121.37007,77,72,40
121.38449,121.60084,76,70,40
121.615265,121.83161,74,68,40
121.84603,122.06238,72,66,40
122.0768,122.293144,64,64,40
122.0768,122.293144,55,64,40
122.30757,122.52392,64,62,40
122.30757,122.52392,55,62,40
122.76911,122.98545,64,62,40
122.76911,122.98545,55,62,40
122.99988,123.216225,64,62,40
122.99988,123.216225,55,62,40
123.46142,123.67776,67,62,40
123.46142,123.67776,55,62,40
123.692184,123.90853,67,62,40
123.692184,123.90853,55,62,40
124.153725,124.37007,65,62,40
124.153725,124.37007,55,62,40
124.38449,124.60084,65,62,40
124.38449,124.60084,55,62,40
124.84603,125.06238,64,62,40
124.84603,125.06238,55,62,40
125.0768,125.293144,64,62,40
125.0768,125.293144,55,62,40
125.53834,125.754684,65,62,40
125.53834,125.754684,57,62,40
125.769104,125.98545,65,62,40
125.769104,125.98545,57,62,40
126.230644,126.44699,64,62,40
126.230644,126.44699,55,62,40
126.46141,126.67776,64,62,40
126.46141,126.67776,55,62,40
126.692184,126.90852,62,62,40
126.692184,126.90852,55,62,40
127.15372,127.37006,67,83,40
127.38449,127.480644,72,83,40
127.61526,127.644104,74,83,40
127.644104,127.72583,72,83,40
127.730644,127.84122,71,83,40
127.84602,127.956604,72,83,40
127.96141,128.07199,74,83,40
128.0768,128.17294,76,83,40
128.30757,128.33641,77,83,40
128.33641,128.41814,76,83,40
128.42294,128.53352,74,83,40
128.53833,128.64891,76,83,40
128.65372,128.7643,77,83,40
128.7691,128.86525,79,83,40
128.99988,129.02872,81,83,40
129.02872,129.11044,79,83,40
129.11525,129.22583,78,83,40
129.23064,129.34122,79,83,40
129.34602,129.4566,81,83,40
129.46141,129.55756,83,83,40
129.69218,129.72102,84,83,40
129.72102,129.80275,83,83,40
129.80756,129.91814,81,83,40
129.92294,130.03352,83,83,40
130.03833,130.14891,84,83,40
130.15372,130.37006,86,83,40
130.38449,130.60083,83,83,40
130.61525,130.8316,79,83,40
130.84602,131.06236,84,83,40
131.0768,131.29314,81,83,40
131.30756,131.52391,78,83,40
131.53833,132.23064,81,83,40
132.23064,132.44698,79,83,40
132.92294,133.1393,72,66,40
133.15372,133.37006,64,64,40
133.15372,133.37006,55,64,40
133.38448,133.60083,64,62,40
133.38448,133.60083,55,62,40
133.84602,134.06236,64,62,40
133.84602,134.06236,55,62,40
134.07678,134.29314,64,62,40
134.07678,134.29314,55,62,40
134.53833,134.75467,67,62,40
134.53833,134.75467,55,62,40
134.76909,134.98544,67,62,40
134.76909,134.98544,55,62,40
135.23064,135.44698,65,62,40
135.23064,135.44698,55,62,40
135.46141,135.67775,65,62,40
135.46141,135.67775,55,62,40
135.92294,136.13928,64,62,40
135.92294,136.13928,55,62,40
136.15372,136.37006,64,62,40
136.15372,136.37006,55,62,40
136.61525,136.83159,65,62,40
136.61525,136.83159,57,62,40
136.84602,137.06236,65,62,40
136.84602,137.06236,57,62,40
137.30756,137.5239,64,62,40
137.30756,137.5239,55,62,40
137.53833,137.75467,64,62,40
137.53833,137.75467,55,62,40
137.76909,137.98544,62,62,40
137.76909,137.98544,55,62,40
138.23064,138.44698,67,83,40
138.4614,138.55756,72,83,40
138.69217,138.72101,74,83,40
138.72101,138.80275,72,83,40
138.80756,138.91814,71,83,40
138.92294,139.03351,72,83,40
139.03833,139.1489,74,83,40
139.1537,139.24986,76,83,40
139.38448,139.41331,77,83,40
139.41331,139.49506,76,83,40
139.49986,139.61044,74,83,40
139.61525,139.72581,76,83,40
139.73064,139.8412,77,83,40
139.84601,139.94217,79,83,40
140.07678,140.10564,81,83,40
140.10564,140.18736,79,83,40
140.19217,140.30275,78,83,40
140.30756,140.41812,79,83,40
140.42294,140.53351,81,83,40
140.53831,140.63448,83,83,40
140.76909,140.79794,84,83,40
140.79794,140.87967,83,83,40
140.88448,140.99506,81,83,40
140.99986,141.11044,83,83,40
141.11525,141.22581,84,83,40
141.23062,141.44698,86,83,40
141.4614,141.67775,83,83,40
141.69217,141.90851,79,83,40
141.92293,142.13928,84,83,40
142.1537,142.37006,81,83,40
142.38448,142.60081,78,83,40
142.61523,143.30756,81,83,40
143.30756,143.5239,79,83,40
144.23062,144.44698,59,62,40
144.4614,144.67773,59,62,40
144.92293,145.13928,60,62,40
145.1537,145.37004,60,62,40
145.61523,145.83159,62,62,40
145.84601,146.06235,62,62,40
146.30754,146.5239,64,62,40
146.53831,146.75465,64,62,40
146.99985,147.2162,67,62,40
147.23062,147.44696,67,62,40
147.69215,147.90851,68,62,40
147.92293,148.13928,68,62,40
148.38446,148.60081,69,62,40
148.61523,148.83159,69,62,40
148.84601,149.07677,62,62,40
149.07677,149.29312,67,62,40
149.30754,149.5239,67,83,40
149.53831,149.63446,72,83,40
149.76907,149.79793,74,83,40
149.79793,149.87965,72,83,40
149.88446,149.99504,71,83,40
149.99985,150.11043,72,83,40
150.11523,150.22581,74,83,40
150.23062,150.32677,76,83,40
150.4614,150.49023,77,83,40
150.49023,150.57196,76,83,40
150.57677,150.68735,74,83,40
150.69215,150.80273,76,83,40
150.80754,150.91812,77,83,40
150.92293,151.01907,79,83,40
151.1537,151.18254,81,83,40
151.18254,151.26427,79,83,40
151.26907,151.37965,78,83,40
151.38446,151.49504,79,83,40
151.49985,151.61043,81,83,40
151.61523,151.83157,77,83,40
152.07677,152.29312,74,83,40
152.30754,152.40369,76,83,40
152.53831,152.64888,79,83,40
152.65369,152.76427,78,83,40
152.76907,152.87965,79,83,40
152.88446,152.99504,76,83,40
152.99985,153.09601,74,83,40
153.23062,153.34119,77,83,40
153.346,153.45657,76,83,40
153.46138,153.57196,77,83,40
153.57677,153.68735,74,83,40
153.69215,153.9085,67,83,40
153.92293,154.0335,68,83,40
154.03831,154.14888,69,83,40
154.15369,154.26427,70,83,40
154.26907,154.37965,71,83,40
154.38446,154.6008,72,83,40
155.30754,155.52388,59,62,40
155.5383,155.75465,59,62,40
155.99985,156.21619,60,62,40
156.2306,156.44696,60,62,40
156.69215,156.9085,62,62,40
156.92291,157.13927,62,62,40
157.38446,157.6008,64,62,40
157.61523,157.83157,64,62,40
158.07677,158.2931,67,62,40
158.30754,158.52388,67,62,40
158.76907,158.98541,68,62,40
158.99985,159.21619,68,62,40
159.46138,159.67772,69,62,40
159.69215,159.9085,69,62,40
159.92291,160.15369,62,62,40
160.15369,160.37003,67,62,40
160.38446,160.6008,67,83,40
160.61522,160.71138,72,83,40
160.846,160.87483,74,83,40
160.87483,160.95657,72,83,40
160.96138,161.07196,71,83,40
161.07677,161.18733,72,83,40
161.19215,161.30272,74,83,40
161.30753,161.40369,76,83,40
161.5383,161.56714,77,83,40
161.56714,161.64888,76,83,40
161.65369,161.76427,74,83,40
161.76907,161.87964,76,83,40
161.88446,161.99503,77,83,40
161.99983,162.096,79,83,40
162.2306,162.25946,81,83,40
162.25946,162.34119,79,83,40
162.346,162.45657,78,83,40
162.46138,162.57195,79,83,40
162.57677,162.68733,81,83,40
162.69214,162.9085,77,83,40
163.15369,163.37003,74,83,40
163.38445,163.4806,76,83,40
163.61522,163.7258,79,83,40
163.7306,163.84119,78,83,40
163.846,163.95657,79,83,40
163.96138,164.07195,76,83,40
164.07675,164.17291,74,83,40
164.30753,164.4181,77,83,40
164.42291,164.5335,76,83,40
164.5383,164.64888,77,83,40
164.65369,164.76425,74,83,40
164.76907,164.98541,67,83,40
164.99983,165.11041,68,83,40
165.11522,165.2258,69,83,40
165.2306,165.34119,70,83,40
165.346,165.45656,71,83,40
165.46138,165.67772,72,83,40
169.61522,169.83156,74,62,40
169.84598,169.95656,75,62,40
169.96136,170.07195,76,62,40
170.07675,170.18733,77,62,40
170.19214,170.30272,78,62,40
170.30753,170.73541,79,62,40
170.76906,170.82675,81,67,40
170.82675,170.88445,79,67,40
170.88445,170.94214,78,68,40
170.94214,170.99983,79,69,40
170.99983,171.46136,82,69,40
171.46136,171.67772,73,75,40
171.69214,172.12003,74,77,40
172.38445,172.48059,79,83,40
172.61522,172.64406,81,83,40
172.64406,172.72578,79,83,40
172.73059,172.84117,78,83,40
172.84598,172.95656,79,83,40
172.96136,173.07195,81,83,40
173.07675,173.30753,78,83,40
173.30753,173.52386,86,83,40
173.76906,173.8652,74,83,40
173.99983,174.02867,76,83,40
174.02867,174.1104,74,83,40
174.1152,174.22578,73,83,40
174.23059,174.34117,74,83,40
174.34598,174.45656,76,83,40
174.46136,174.69214,73,83,40
174.69214,174.90848,81,83,40
175.15367,175.24983,72,83,40
175.38445,175.41328,74,83,40
175.41328,175.49501,72,83,40
175.49982,175.6104,71,83,40
175.6152,175.72578,72,83,40
175.73059,175.84117,74,83,40
175.84598,176.07675,71,83,40
176.07675,176.29309,79,83,40
176.53828,176.75462,70,83,40
176.76906,176.7979,72,83,40
176.7979,176.87962,70,83,40
176.88445,176.99501,69,83,40
176.99982,177.1104,70,83,40
177.1152,177.22578,67,83,40
177.23059,177.44695,62,83,40
179.76906,179.99982,65,62,40
179.99982,180.21617,66,62,40
180.46136,180.69212,66,62,40
180.69212,180.90848,67,62,40
181.15367,181.38443,68,62,40
181.38443,181.70654,69,62,40
182.53828,182.76904,68,62,40
182.76904,182.9854,69,62,40
183.23059,183.46135,70,67,40
183.46135,183.6777,71,70,40
183.9229,184.15366,71,76,40
184.15366,184.47578,72,78,40
196.38441,196.60077,74,93,40
196.61519,196.9373,79,93,40
196.96133,197.07191,81,93,40
197.07672,197.29308,79,93,40
197.3075,197.52383,78,93,40
197.76903,197.98538,74,93,40
197.9998,198.32191,79,93,40
198.34596,198.45653,81,93,40
198.46133,198.67769,79,93,40
198.69211,198.90846,84,93,40
199.15364,199.37,83,93,40
199.38441,199.70653,81,93,40
199.73058,199.84114,83,93,40
199.84595,200.0623,81,93,40
200.07672,200.29308,76,93,40
200.53825,200.75461,81,93,40
200.76903,201.46133,79,93,40
201.46133,201.67769,78,93,40
201.92288,202.13922,74,93,40
202.15364,202.47575,79,93,40
202.4998,202.61037,81,93,40
202.61519,202.83153,79,93,40
202.84595,203.0623,78,93,40
203.3075,203.52383,74,93,40
203.53825,203.86037,79,93,40
203.88441,203.995,81,93,40
203.9998,204.21614,79,93,40
204.23056,204.44691,84,93,40
204.69211,204.90845,83,93,40
204.92287,205.24498,81,93,40
205.26903,205.37961,83,93,40
205.38441,205.60075,84,93,40
205.61517,205.83153,76,93,40
206.07672,206.29306,78,93,40
206.30748,206.99979,81,93,40
206.99979,207.21614,79,93,40
207.6921,208.01422,76,93,40
208.03825,208.14883,78,93,40
208.15364,208.36998,79,93,40
208.3844,208.81229,79,93,40
208.84595,209.06229,79,93,40
209.07672,209.39883,79,93,40
209.42287,209.53345,81,93,40
209.53825,209.7546,83,93,40
209.76903,210.1969,83,93,40
210.23056,210.4469,74,93,40
210.46133,210.78345,76,93,40
210.80748,210.91806,78,93,40
210.92287,211.1392,79,93,40
211.15364,211.36998,79,93,40
211.3844,211.60075,79,93,40
211.61517,211.83151,79,93,40
211.84595,212.16806,79,93,40
212.1921,212.30267,81,93,40
212.30748,212.52382,83,93,40
212.53825,212.7546,83,93,40
218.53824,218.7546,74,93,40
218.76901,219.09113,76,93,40
219.11516,219.22574,78,93,40
219.23055,219.4469,79,93,40
219.46132,219.8892,79,93,40
219.92285,220.1392,79,93,40
220.15363,220.47574,79,93,40
220.49979,220.61035,81,93,40
220.61516,220.83151,83,93,40
220.84593,221.27382,83,93,40
221.30746,221.52382,74,93,40
221.53824,221.86035,76,93,40
221.8844,221.99496,78,93,40
221.99977,222.21613,79,93,40
222.23055,222.4469,79,93,40
222.46132,222.67766,79,93,40
222.69208,222.90843,79,93,40
222.92285,223.24496,79,93,40
223.26901,223.37958,81,93,40
223.3844,223.60074,83,93,40
223.61516,223.83151,83,93,40
228.69208,228.90843,79,62,40
228.92285,229.13919,78,66,40
229.15361,229.36996,76,70,40
229.38438,229.60074,74,75,40
229.61516,229.8315,73,79,40
229.84592,230.06227,74,84,40
230.07669,230.29305,71,88,40
230.30746,230.5238,71,93,40
230.53824,230.75458,71,93,40
230.769,230.98535,71,93,40
230.99977,231.21611,71,93,40
231.23055,231.44688,72,93,40
231.4613,231.67766,72,93,40
231.69208,231.90842,72,93,40
231.92285,232.13919,66,93,40
232.15361,232.36996,66,93,40
232.38438,232.60072,66,93,40
232.61516,232.8315,67,93,40
233.07669,233.29303,67,62,40
233.30746,233.62958,74,62,40
233.65361,233.76419,76,62,40
233.769,233.98534,74,62,40
233.99977,234.4613,74,62,40
234.4613,234.67764,72,62,40
234.69208,235.15361,72,62,40
235.15361,235.36995,71,62,40
235.38438,235.60072,68,62,40
235.61514,235.8315,69,62,40
235.84592,236.06227,72,62,40
236.07669,236.50458,71,62,40
236.53822,236.65361,74,62,40
236.65361,236.76419,72,62,40
236.769,236.98534,71,62,40
237.23053,237.44688,67,62,40
237.4613,237.78342,74,62,40
237.80745,237.91803,76,62,40
237.92284,238.13919,74,62,40
238.15361,238.61514,74,62,40
238.61514,238.8315,72,62,40
238.84592,239.30745,72,62,40
239.30745,239.5238,71,62,40
239.53822,239.75456,69,62,40
239.99976,240.21611,72,62,40
240.23053,240.4613,66,62,40
240.4613,240.67764,67,62,40
240.92284,241.13918,67,62,40
241.38437,241.49976,72,62,40
241.49976,241.61034,69,62,40
241.61514,241.84592,66,62,40
241.84592,242.06226,67,62,40
246.92284,247.13918,67,93,40
247.1536,247.47571,72,93,40
247.49976,247.61034,74,93,40
247.61514,247.83148,72,93,40
247.8459,248.06226,71,93,40
248.30745,248.52379,79,93,40
248.53821,248.5959,78,93,40
248.5959,248.6536,79,93,40
248.6536,248.71129,78,93,40
248.71129,248.76898,79,93,40
248.76898,248.82668,78,93,40
248.82668,248.86032,79,93,40
248.88437,248.99495,76,93,40
248.99976,249.2161,78,93,40
249.23051,249.44687,79,93,40
249.69206,249.9084,67,93,40
249.92282,250.24495,72,93,40
250.26898,250.37956,74,93,40
250.38437,250.60071,72,93,40
250.61513,250.83148,71,93,40
251.07668,251.29301,79,93,40
251.30743,251.36513,78,93,40
251.36513,251.42282,79,93,40
251.42282,251.48051,78,93,40
251.48051,251.53821,79,93,40
251.53821,251.5959,78,93,40
251.5959,251.62956,79,93,40
251.6536,251.76418,76,93,40
251.76898,251.98532,78,93,40
251.99974,252.2161,79,93,40
252.46129,252.69206,72,84,40
252.69206,252.9084,71,80,40
253.1536,253.38437,66,72,40
253.38437,253.70648,67,68,40
12.461526,14.062486,62,83,42
14.076909,14.293255,59,83,42
14.307678,14.524024,55,83,42
14.538447,14.999985,54,83,42
14.999985,15.216331,55,83,42
15.230754,15.923061,48,83,42
15.923061,16.562483,49,83,42
16.615368,16.831715,50,83,42
16.846136,17.062483,55,83,42
17.076906,17.293251,59,83,42
17.307674,17.524021,62,83,42
17.538445,17.75479,60,83,42
17.769213,17.98556,57,83,42
17.999983,18.216328,55,83,42
18.230751,18.447098,59,83,42
18.46152,18.677866,62,83,42
18.69229,20.658632,62,83,42
20.76921,21.408632,60,83,42
21.461517,21.923056,57,83,42
21.923056,22.1394,62,83,42
22.153824,23.062477,55,83,42
29.076895,31.735546,57,83,42
31.846123,32.485546,55,83,42
32.53843,33.177853,57,83,42
33.230736,34.13939,50,83,42
45.69226,47.29322,62,83,42
47.307644,47.52399,59,83,42
47.538414,47.75476,55,83,42
47.769184,48.23072,54,83,42
48.23072,48.447067,55,83,42
48.46149,49.100914,60,83,42
49.153797,49.615334,57,83,42
49.615334,49.83168,62,83,42
49.846104,50.754757,55,83,42
51.461487,51.677834,55,62,42
51.692257,51.908604,55,62,42
52.153793,52.37014,57,62,42
52.384563,52.60091,57,62,42
52.8461,53.062447,55,62,42
53.07687,53.293217,57,62,42
53.30764,53.523987,58,62,42
53.538406,53.754753,57,62,42
53.769176,53.985523,55,62,42
54.230717,54.44706,54,62,42
54.461483,54.67783,54,62,42
54.923023,55.139366,55,62,42
55.15379,55.370136,55,62,42
55.61533,55.831676,54,62,42
55.8461,56.062443,55,62,42
56.076866,56.293213,57,62,42
56.307636,56.523983,55,62,42
56.538406,56.75475,54,62,42
56.999943,57.21629,58,62,42
57.230713,57.44706,58,63,42
57.69225,57.908596,58,66,42
57.92302,58.139366,58,68,42
58.15379,58.615326,60,70,42
58.615326,58.831673,57,73,42
58.846096,59.062443,58,74,42
59.769173,59.985516,63,81,42
59.99994,60.216286,63,83,42
60.46148,60.677822,60,83,42
60.692245,60.908592,60,83,42
60.923016,61.615322,63,83,42
61.615322,61.83167,62,83,42
62.5384,62.754745,55,62,42
62.76917,62.985516,55,62,42
63.230705,63.447052,57,62,42
63.461475,63.677822,57,62,42
63.92301,64.13936,55,62,42
64.153786,64.370125,57,62,42
64.38455,64.6009,58,62,42
64.61532,64.831665,57,62,42
64.84609,65.06243,55,62,42
65.307625,65.52397,54,62,42
65.5384,65.754745,54,62,42
65.99993,66.21628,55,62,42
66.230705,66.44705,55,62,42
66.69224,66.908585,54,62,42
66.92301,67.13936,55,62,42
67.15378,67.370125,57,62,42
67.384544,67.60089,55,62,42
67.61532,67.831665,54,62,42
68.07686,68.2932,58,62,42
68.307625,68.52397,58,63,42
68.769165,68.985504,58,66,42
68.99993,69.21628,58,68,42
69.2307,69.69224,60,70,42
69.69224,69.908585,57,73,42
69.923004,70.13935,58,74,42
70.846085,71.06243,63,81,42
71.07685,71.2932,63,83,42
71.53839,71.75474,60,83,42
71.76916,71.985504,60,83,42
71.99993,72.69224,63,83,42
72.69224,72.908585,62,83,42
73.384544,74.65858,46,62,42
74.76916,75.923004,41,62,42
75.923004,76.13934,42,62,42
76.15377,77.42781,43,62,42
77.53838,78.1778,38,62,42
78.23069,79.56242,50,62,42
79.6153,79.83165,48,66,42
79.84608,80.06242,45,68,42
80.07684,80.29319,43,69,42
80.30761,80.94704,42,71,42
80.999916,81.46146,43,75,42
81.46146,81.6778,46,78,42
81.69222,82.12011,48,80,42
82.38454,82.812416,50,83,42
83.07684,83.9855,43,83,42
84.46146,85.73549,46,62,42
85.84607,86.999916,41,62,42
86.999916,87.216255,42,62,42
87.23068,88.50472,43,62,42
88.615295,89.254715,38,62,42
89.3076,90.639336,50,62,42
90.692215,90.90856,48,66,42
90.92299,91.139336,45,68,42
91.153755,91.3701,43,69,42
91.38452,92.02395,42,71,42
92.07683,92.53837,43,75,42
92.53837,92.754715,46,78,42
92.769135,93.19702,48,80,42
93.46145,93.88933,50,83,42
94.153755,95.06241,43,83,42
106.61528,107.30759,43,83,42
107.30759,107.94701,45,83,42
107.99989,108.63931,43,83,42
108.6922,109.12009,42,83,42
109.15374,109.37009,43,83,42
109.38451,110.07681,36,83,42
110.07681,110.71623,37,83,42
110.76912,111.67777,38,83,42
112.15373,112.84604,43,83,42
112.84604,113.485466,45,83,42
113.538345,114.17777,43,83,42
114.23065,114.65854,42,83,42
114.69219,114.90854,43,83,42
114.92296,115.83161,36,83,42
115.84604,116.062386,33,83,42
116.076805,116.29315,38,83,42
116.30758,117.21623,43,83,42
119.99988,120.216225,71,83,42
120.23065,120.447,69,80,42
120.46142,120.677765,67,78,42
120.692184,120.90853,65,76,42
120.92296,121.139305,64,74,42
121.153725,121.37007,62,72,42
121.38449,121.60084,60,70,42
121.615265,121.83161,59,68,42
121.84603,122.06238,60,66,42
122.0768,122.293144,60,64,42
122.30757,122.52392,60,62,42
122.76911,122.98545,60,62,42
122.99988,123.216225,60,62,42
123.46142,123.67776,62,62,42
123.692184,123.90853,62,62,42
124.153725,124.37007,62,62,42
124.38449,124.60084,62,62,42
124.84603,125.06238,60,62,42
125.0768,125.293144,60,62,42
125.53834,125.754684,62,62,42
125.769104,125.98545,62,62,42
126.230644,126.44699,60,62,42
126.46141,126.67776,60,62,42
126.692184,126.92295,59,62,42
126.92295,127.1393,55,62,42
127.38449,128.65852,60,83,42
128.7691,129.46141,59,83,42
129.46141,130.10083,64,83,42
130.15372,130.79314,62,83,42
130.84602,131.48544,50,83,42
131.53833,132.23064,55,83,42
132.23064,132.44698,43,83,42
132.92294,133.1393,60,66,42
133.15372,133.37006,60,64,42
133.38448,133.60083,60,62,42
133.84602,134.06236,60,62,42
134.07678,134.29314,60,62,42
134.53833,134.75467,62,62,42
134.76909,134.98544,62,62,42
135.23064,135.44698,62,62,42
135.46141,135.67775,62,62,42
135.92294,136.13928,60,62,42
136.15372,136.37006,60,62,42
136.61525,136.83159,62,62,42
136.84602,137.06236,62,62,42
137.30756,137.5239,60,62,42
137.53833,137.75467,60,62,42
137.76909,137.99986,59,62,42
137.99986,138.2162,55,62,42
138.4614,139.73544,60,83,42
139.84601,140.53831,59,83,42
140.53831,141.17775,64,83,42
141.23062,141.87006,62,83,42
141.92293,142.56236,50,83,42
142.61523,143.30756,55,83,42
143.30756,143.5239,43,83,42
144.23062,144.44698,55,62,42
144.4614,144.67773,55,62,42
144.92293,145.13928,57,62,42
145.1537,145.37004,57,62,42
145.61523,145.83159,59,62,42
145.84601,146.06235,59,62,42
146.30754,146.5239,60,62,42
146.53831,146.75465,60,62,42
146.99985,147.2162,63,62,42
147.23062,147.44696,63,62,42
147.69215,147.90851,65,62,42
147.92293,148.13928,65,62,42
148.38446,148.60081,66,62,42
148.61523,148.83159,66,62,42
148.84601,149.2739,67,62,42
149.53831,150.81235,60,83,42
150.92293,151.61523,59,83,42
151.61523,152.25465,55,83,42
152.30754,152.94696,60,83,42
152.99985,153.63927,53,83,42
153.69215,154.38446,55,83,42
154.38446,154.6008,48,83,42
155.30754,155.52388,55,62,42
155.5383,155.75465,55,62,42
155.99985,156.21619,57,62,42
156.2306,156.44696,57,62,42
156.69215,156.9085,59,62,42
156.92291,157.13927,59,62,42
157.38446,157.6008,60,62,42
157.61523,157.83157,60,62,42
158.07677,158.2931,63,62,42
158.30754,158.52388,63,62,42
158.76907,158.98541,65,62,42
158.99985,159.21619,65,62,42
159.46138,159.67772,66,62,42
159.69215,159.9085,66,62,42
159.92291,160.3508,67,62,42
160.61522,161.88927,60,83,42
161.99983,162.69214,59,83,42
162.69214,163.33157,55,83,42
163.38445,164.02388,60,83,42
164.07675,164.71619,53,83,42
164.76907,165.46138,55,83,42
165.46138,165.67772,48,83,42
167.5383,167.75464,64,62,42
167.76906,167.87964,65,62,42
167.88445,167.99503,66,62,42
167.99983,168.11041,66,62,42
168.11522,168.2258,67,62,42
168.2306,168.44695,69,62,42
171.69214,171.78828,62,83,42
171.92291,171.95175,64,83,42
171.95175,172.03348,62,83,42
172.03828,172.14886,61,83,42
172.15367,172.26425,62,83,42
172.26906,172.37964,64,83,42
172.38445,172.61522,61,83,42
172.61522,172.83156,69,83,42
173.07675,173.1729,60,83,42
173.30753,173.33636,62,83,42
173.33636,173.41809,60,83,42
173.4229,173.53348,59,83,42
173.53828,173.64886,60,83,42
173.65367,173.76425,62,83,42
173.76906,173.99983,59,83,42
173.99983,174.21617,67,83,42
174.46136,174.55751,55,83,42
174.69214,174.72098,57,83,42
174.72098,174.8027,55,83,42
174.80751,174.91809,54,83,42
174.9229,175.03348,55,83,42
175.03828,175.14886,57,83,42
175.15367,175.38445,54,83,42
175.38445,175.60078,62,83,42
175.84598,175.94214,55,83,42
176.07675,176.10559,57,83,42
176.10559,176.18732,55,83,42
176.19214,176.3027,54,83,42
176.30751,176.41809,55,83,42
176.4229,176.53348,59,83,42
176.53828,177.23059,49,83,42
177.23059,177.44695,50,83,42
179.76906,179.99982,61,62,42
179.99982,180.21617,62,62,42
180.46136,180.69212,63,62,42
180.69212,180.90848,64,62,42
181.15367,181.38443,65,62,42
181.38443,181.70654,66,62,42
182.53828,182.76904,65,62,42
182.76904,182.9854,66,62,42
183.23059,183.46135,66,67,42
183.46135,183.6777,67,70,42
183.9229,184.15366,68,76,42
184.15366,184.47578,69,78,42
196.61519,197.3075,55,93,42
197.3075,197.94691,57,93,42
197.9998,198.63922,55,93,42
198.69211,199.15364,54,93,42
199.15364,199.37,55,93,42
199.38441,200.07672,60,93,42
200.07672,200.71614,61,93,42
200.76903,200.98538,62,93,42
200.9998,201.21614,59,93,42
201.23058,201.44691,55,93,42
201.46133,201.67769,50,93,42
202.15364,202.84595,55,93,42
202.84595,203.48537,57,93,42
203.53825,204.17767,55,93,42
204.23056,204.69211,54,93,42
204.69211,204.90845,55,93,42
204.92287,205.83153,48,93,42
205.84595,206.06229,45,93,42
206.07672,206.29306,50,93,42
206.30748,207.21614,55,93,42
207.46133,207.67767,59,93,42
207.6921,208.01422,60,93,42
208.03825,208.14883,62,93,42
208.15364,208.36998,64,93,42
208.3844,208.81229,64,93,42
208.84595,209.06229,64,93,42
209.07672,209.39883,59,93,42
209.42287,209.53345,60,93,42
209.53825,209.7546,62,93,42
209.76903,210.1969,62,93,42
210.23056,210.4469,59,93,42
210.46133,210.78345,60,93,42
210.80748,210.91806,62,93,42
210.92287,211.1392,64,93,42
211.15364,211.36998,64,93,42
211.3844,211.60075,64,93,42
211.61517,211.83151,64,93,42
211.84595,212.16806,59,93,42
212.1921,212.30267,60,93,42
212.30748,212.52382,62,93,42
212.53825,212.7546,62,93,42
218.76901,219.09113,60,93,42
219.11516,219.22574,62,93,42
219.23055,219.4469,64,93,42
219.46132,219.8892,64,93,42
219.92285,220.1392,64,93,42
220.15363,220.47574,59,93,42
220.49979,220.61035,60,93,42
220.61516,220.83151,62,93,42
220.84593,221.27382,62,93,42
221.30746,221.52382,59,93,42
221.53824,221.86035,60,93,42
221.8844,221.99496,62,93,42
221.99977,222.21613,64,93,42
222.23055,222.4469,64,93,42
222.46132,222.67766,64,93,42
222.69208,222.90843,64,93,42
222.92285,223.24496,59,93,42
223.26901,223.37958,60,93,42
223.3844,223.60074,62,93,42
223.61516,223.83151,62,93,42
228.69208,228.90843,61,62,42
228.92285,229.13919,62,66,42
229.15361,229.36996,64,70,42
229.38438,229.60074,66,75,42
229.61516,229.8315,67,79,42
230.07669,230.29305,67,88,42
230.30746,230.5238,67,93,42
230.53824,230.75458,67,93,42
230.769,230.98535,67,93,42
230.99977,231.21611,67,93,42
231.23055,231.44688,66,93,42
231.4613,231.67766,66,93,42
231.69208,231.90842,66,93,42
231.92285,232.13919,60,93,42
232.15361,232.36996,60,93,42
232.38438,232.60072,60,93,42
232.61516,233.04303,59,93,42
233.769,233.98534,47,62,42
233.99977,234.32188,52,62,42
234.34592,234.4565,54,62,42
234.4613,234.67764,52,62,42
234.69208,235.15361,50,62,42
235.15361,235.36995,43,62,42
235.38438,235.81227,48,62,42
235.84592,236.06227,60,62,42
236.07669,236.53822,62,62,42
236.53822,236.75458,66,62,42
236.769,237.19688,67,62,42
237.92284,238.13919,47,62,42
238.15361,238.47572,52,62,42
238.49976,238.61034,54,62,42
238.61514,238.8315,52,62,42
238.84592,239.30745,50,62,42
239.30745,239.5238,44,62,42
239.53822,239.75456,45,62,42
239.99976,240.23053,42,62,42
240.23053,240.44687,43,62,42
240.69206,240.92284,46,62,42
240.92284,241.13918,45,62,42
241.38437,241.61514,54,62,42
241.61514,241.83148,55,62,42
246.92284,247.13918,59,93,42
247.1536,247.47571,57,93,42
247.49976,247.61034,59,93,42
247.61514,247.83148,57,93,42
247.8459,248.06226,55,93,42
248.30745,248.52379,59,93,42
248.53821,248.5959,60,93,42
248.5959,248.6536,62,93,42
248.6536,248.71129,60,93,42
248.71129,248.76898,62,93,42
248.76898,248.82668,60,93,42
248.82668,248.86032,62,93,42
248.88437,248.99495,62,93,42
248.99976,249.2161,60,93,42
249.23051,249.44687,59,93,42
249.69206,249.9084,59,93,42
249.92282,250.24495,57,93,42
250.26898,250.37956,59,93,42
250.38437,250.60071,57,93,42
250.61513,250.83148,55,93,42
251.07668,251.29301,59,93,42
251.30743,251.36513,60,93,42
251.36513,251.42282,62,93,42
251.42282,251.48051,60,93,42
251.48051,251.53821,62,93,42
251.53821,251.5959,60,93,42
251.5959,251.62956,62,93,42
251.6536,251.76418,62,93,42
251.76898,251.98532,60,93,42
251.99974,252.2161,59,93,42
252.46129,252.69206,66,84,42
252.69206,252.9084,67,80,42
253.1536,253.38437,60,72,42
253.38437,253.70648,59,68,42
1.153845,1.370191,74,62,0
1.384614,1.706729,79,62,0
1.7307675,1.8413444,81,62,0
1.846152,2.0624979,79,62,0
2.076921,2.293267,78,62,0
2.538459,2.7548048,74,62,0
2.769228,3.0913432,79,62,0
3.1153815,3.2259583,81,62,0
3.230766,3.4471118,79,62,0
3.461535,3.677881,84,62,0
3.923073,4.139419,83,62,0
4.153842,4.475957,81,62,0
4.4999957,4.6105723,83,62,0
4.61538,4.831726,81,62,0
4.846149,5.0624948,76,62,0
5.307687,5.524033,81,62,0
5.538456,6.230763,79,62,0
6.230763,6.4471087,78,62,0
6.692301,6.908647,74,62,0
6.92307,7.245185,79,62,0
7.2692237,7.3798003,81,62,0
7.384608,7.600954,79,62,0
7.615377,7.8317227,78,62,0
8.076915,8.293261,74,62,0
8.307684,8.629799,79,62,0
8.653837,8.764415,81,62,0
8.769222,8.985568,79,62,0
8.999991,9.216337,84,62,0
9.461529,9.677875,83,62,0
9.692298,10.014413,81,62,0
10.038451,10.149029,83,62,0
10.153836,10.370182,84,62,0
10.384605,10.600951,76,62,0
10.846143,11.062489,78,62,0
11.076912,11.769219,81,62,0
11.769219,11.985565,79,62,0
12.692295,12.908641,67,83,0
12.692295,12.908641,62,83,0
12.692295,12.908641,59,83,0
12.923064,13.13941,67,83,0
12.923064,13.13941,62,83,0
12.923064,13.13941,59,83,0
13.384602,13.600948,66,83,0
13.384602,13.600948,62,83,0
13.384602,13.600948,60,83,0
13.615371,13.831717,66,83,0
13.615371,13.831717,62,83,0
13.615371,13.831717,60,83,0
14.076909,14.293255,67,83,0
14.076909,14.293255,62,83,0
14.076909,14.293255,59,83,0
14.307678,14.524024,67,83,0
14.307678,14.524024,62,83,0
14.307678,14.524024,59,83,0
14.769216,14.985562,72,83,0
14.769216,14.985562,69,83,0
14.769216,14.985562,62,83,0
14.999985,15.216331,71,83,0
14.999985,15.216331,67,83,0
14.999985,15.216331,62,83,0
15.461523,15.677869,69,83,0
15.461523,15.677869,64,83,0
15.692292,15.908638,69,83,0
15.692292,15.908638,64,83,0
16.15383,16.370176,69,83,0
16.15383,16.370176,64,83,0
16.15383,16.370176,57,83,0
16.3846,16.600945,69,83,0
16.3846,16.600945,64,83,0
16.3846,16.600945,57,83,0
16.846136,17.062483,67,83,0
16.846136,17.062483,62,83,0
16.846136,17.062483,59,83,0
17.076906,17.293251,67,83,0
17.076906,17.293251,62,83,0
17.076906,17.293251,59,83,0
17.307674,17.524021,66,83,0
17.307674,17.524021,62,83,0
17.307674,17.524021,57,83,0
18.230751,18.447098,67,83,0
18.230751,18.447098,62,83,0
18.230751,18.447098,59,83,0
18.46152,18.677866,67,83,0
18.46152,18.677866,62,83,0
18.46152,18.677866,59,83,0
18.923058,19.139404,66,83,0
18.923058,19.139404,62,83,0
18.923058,19.139404,60,83,0
19.153828,19.370173,66,83,0
19.153828,19.370173,62,83,0
19.153828,19.370173,60,83,0
19.615364,19.83171,67,83,0
19.615364,19.83171,62,83,0
19.615364,19.83171,59,83,0
19.846134,20.062479,67,83,0
19.846134,20.062479,62,83,0
19.846134,20.062479,59,83,0
20.307673,20.524017,72,83,0
20.307673,20.524017,69,83,0
20.307673,20.524017,62,83,0
20.53844,20.754787,71,83,0
20.53844,20.754787,67,83,0
20.53844,20.754787,62,83,0
20.999979,21.216326,69,83,0
20.999979,21.216326,64,83,0
20.999979,21.216326,60,83,0
21.230747,21.447094,69,83,0
21.230747,21.447094,64,83,0
21.230747,21.447094,60,83,0
21.692286,21.908632,64,83,0
21.692286,21.908632,60,83,0
21.692286,21.908632,57,83,0
21.923056,22.1394,66,83,0
21.923056,22.1394,60,83,0
21.923056,22.1394,57,83,0
22.153824,22.84613,69,83,0
22.153824,22.84613,66,83,0
22.153824,22.84613,60,83,0
22.84613,23.062477,67,83,0
22.153824,23.062477,62,83,0
22.84613,23.062477,59,83,0
23.307669,23.524015,74,62,0
23.538439,23.860554,83,62,0
23.884592,23.995169,85,62,0
23.999975,24.216322,86,62,0
24.230745,24.44709,81,62,0
24.692284,24.908628,78,62,0
24.923052,25.245167,79,62,0
25.269205,25.379782,81,62,0
25.38459,25.600937,83,62,0
25.615358,25.831705,78,62,0
26.076897,26.293243,78,62,0
26.307667,26.629782,76,62,0
26.65382,26.764397,78,62,0
26.769203,26.98555,75,62,0
26.999973,27.216318,76,62,0
27.461512,27.677856,83,62,0
27.69228,28.384586,74,62,0
28.384586,28.600933,73,62,0
29.307663,29.52401,64,83,0
29.307663,29.52401,61,83,0
29.307663,29.52401,57,83,0
29.538431,29.754778,64,83,0
29.538431,29.754778,61,83,0
29.538431,29.754778,57,83,0
29.99997,30.216316,66,83,0
29.99997,30.216316,62,83,0
29.99997,30.216316,57,83,0
30.23074,30.447084,66,83,0
30.23074,30.447084,62,83,0
30.23074,30.447084,57,83,0
30.692278,30.908623,64,83,0
30.692278,30.908623,61,83,0
30.692278,30.908623,57,83,0
30.923046,31.139393,64,83,0
30.923046,31.139393,61,83,0
30.923046,31.139393,57,83,0
31.384584,31.60093,66,83,0
31.384584,31.60093,62,83,0
31.384584,31.60093,57,83,0
31.615353,31.8317,66,83,0
31.615353,31.8317,62,83,0
31.615353,31.8317,57,83,0
32.076893,32.293236,64,83,0
32.076893,32.293236,59,83,0
32.076893,32.293236,55,83,0
32.30766,32.524006,64,83,0
32.30766,32.524006,59,83,0
32.30766,32.524006,55,83,0
32.7692,32.985542,64,83,0
32.7692,32.985542,57,83,0
32.7692,32.985542,55,83,0
32.999966,33.216312,64,83,0
32.999966,33.216312,57,83,0
32.999966,33.216312,55,83,0
33.230736,33.87016,61,83,0
33.230736,33.87016,57,83,0
33.230736,33.87016,55,83,0
33.923042,34.13939,62,83,0
33.923042,34.13939,57,83,0
33.923042,34.13939,54,83,0
34.384583,34.600925,74,62,0
34.61535,34.937466,86,62,0
34.961502,35.07208,83,62,0
35.07689,35.293236,80,62,0
35.307655,35.524002,81,62,0
35.769196,35.985542,76,62,0
35.999966,36.32208,84,62,0
36.34612,36.456696,81,62,0
36.461502,36.67785,78,62,0
36.692272,36.908615,79,62,0
37.15381,37.370155,79,62,0
37.38458,37.70669,83,62,0
37.730732,37.84131,79,62,0
37.846115,38.06246,76,62,0
38.076885,38.399,79,62,0
38.42304,38.533615,76,62,0
38.53842,38.75477,73,62,0
38.76919,39.4615,76,62,0
38.76919,39.4615,67,62,0
39.4615,39.677845,74,62,0
39.4615,39.677845,66,62,0
39.92304,40.13938,74,62,0
40.153805,40.47592,79,62,0
40.499958,40.610535,81,62,0
40.615345,40.83169,79,62,0
40.84611,41.062458,78,62,0
41.30765,41.524,74,62,0
41.53842,41.860535,79,62,0
41.884575,41.99515,81,62,0
41.999958,42.216305,79,62,0
42.23073,42.44707,84,62,0
42.692265,42.90861,83,62,0
42.923035,43.245148,81,62,0
43.269188,43.379765,83,62,0
43.38457,43.600918,81,62,0
43.61534,43.831688,76,62,0
44.076878,44.293224,81,62,0
44.307648,44.999954,79,62,0
44.999954,45.2163,78,62,0
45.92303,46.139378,67,62,0
45.92303,46.139378,62,62,0
45.92303,46.139378,59,62,0
46.1538,46.370148,67,62,0
46.1538,46.370148,62,62,0
46.1538,46.370148,59,62,0
46.615337,46.831684,66,62,0
46.615337,46.831684,62,62,0
46.615337,46.831684,60,62,0
46.846107,47.062454,66,62,0
46.846107,47.062454,62,62,0
46.846107,47.062454,60,62,0
47.307644,47.52399,67,62,0
47.307644,47.52399,62,62,0
47.307644,47.52399,59,62,0
47.538414,47.75476,67,62,0
47.538414,47.75476,62,62,0
47.538414,47.75476,59,62,0
47.99995,48.216297,72,62,0
47.99995,48.216297,69,62,0
47.99995,48.216297,62,62,0
48.23072,48.447067,71,62,0
48.23072,48.447067,67,62,0
48.23072,48.447067,62,62,0
48.69226,48.908604,69,62,0
48.69226,48.908604,64,62,0
48.69226,48.908604,60,62,0
48.923027,49.139374,69,62,0
48.923027,49.139374,64,62,0
48.923027,49.139374,60,62,0
49.384567,49.60091,64,62,0
49.384567,49.60091,60,62,0
49.384567,49.60091,57,62,0
49.615334,49.83168,66,62,0
49.615334,49.83168,60,62,0
49.615334,49.83168,57,62,0
49.846104,50.53841,69,62,0
49.846104,50.53841,66,62,0
49.846104,50.53841,60,62,0
50.53841,50.754757,67,62,0
49.846104,50.754757,62,62,0
50.53841,50.754757,59,62,0
50.99995,51.216293,74,62,0
51.230717,51.552834,82,62,0
51.57687,51.687447,81,62,0
51.692257,51.908604,79,62,0
51.923023,52.24514,78,62,0
52.26918,52.379757,79,62,0
52.384563,52.60091,81,62,0
52.615334,53.043217,79,62,0
53.769176,53.985523,74,62,0
53.999947,54.32206,86,62,0
54.3461,54.456676,81,62,0
54.461483,54.67783,78,62,0
54.692253,55.01437,79,62,0
55.038406,55.148983,81,62,0
55.15379,55.370136,82,62,0
55.38456,55.812443,74,62,0
56.538406,56.75475,74,62,0
56.769173,57.09129,82,62,0
57.115326,57.225903,84,64,0
57.230713,57.44706,82,65,0
57.46148,57.889366,82,67,0
57.92302,58.139366,82,70,0
58.15379,58.475903,81,72,0
58.499943,58.61052,84,75,0
58.615326,58.831673,87,76,0
58.846096,59.062443,86,77,0
59.307632,59.52398,82,81,0
59.538403,59.860516,84,83,0
59.884556,59.995132,86,83,0
59.99994,60.216286,87,83,0
60.23071,60.552826,77,83,0
60.576862,60.68744,79,83,0
60.692245,60.908592,81,83,0
60.923016,61.615322,84,83,0
61.615322,61.83167,82,83,0
62.076862,62.293205,74,62,0
62.30763,62.629745,82,62,0
62.65378,62.76436,81,62,0
62.76917,62.985516,79,62,0
62.999935,63.322052,78,62,0
63.346092,63.45667,79,62,0
63.461475,63.677822,81,62,0
63.692245,64.120125,79,62,0
64.84609,65.06243,74,62,0
65.07686,65.39897,86,62,0
65.42301,65.533585,81,62,0
65.5384,65.754745,78,62,0
65.769165,66.09128,79,62,0
66.11532,66.2259,81,62,0
66.230705,66.44705,82,62,0
66.46147,66.88936,74,62,0
67.61532,67.831665,74,62,0
67.846085,68.1682,82,62,0
68.19224,68.30282,84,64,0
68.307625,68.52397,82,65,0
68.53839,68.96628,82,67,0
68.99993,69.21628,82,70,0
69.2307,69.55282,81,72,0
69.57685,69.68743,84,75,0
69.69224,69.908585,87,76,0
69.923004,70.13935,86,77,0
70.384544,70.60089,82,81,0
70.61531,70.93743,84,83,0
70.961464,71.072044,86,83,0
71.07685,71.2932,87,83,0
71.30762,71.62974,77,83,0
71.65378,71.76435,79,83,0
71.76916,71.985504,81,83,0
71.99993,72.69224,84,83,0
72.69224,72.908585,82,83,0
73.61531,73.83166,65,62,0
73.61531,73.83166,62,62,0
73.61531,73.83166,58,62,0
73.84608,74.06242,65,62,0
73.84608,74.06242,62,62,0
73.84608,74.06242,58,62,0
74.30762,74.523964,65,62,0
74.30762,74.523964,62,62,0
74.30762,74.523964,58,62,0
74.53838,74.75473,65,62,0
74.53838,74.75473,62,62,0
74.53838,74.75473,58,62,0
74.99992,75.21627,60,62,0
74.99992,75.21627,57,62,0
75.2307,75.44704,62,62,0
75.2307,75.44704,58,62,0
75.461464,75.67781,63,62,0
75.461464,75.67781,60,62,0
75.69223,75.90858,62,62,0
75.69223,75.90858,58,62,0
75.923004,76.13934,60,62,0
75.923004,76.13934,57,62,0
76.38454,76.60088,62,62,0
76.38454,76.60088,58,62,0
76.38454,76.60088,55,62,0
76.61531,76.83166,62,62,0
76.61531,76.83166,58,62,0
76.61531,76.83166,55,62,0
77.07684,77.29319,62,62,0
77.07684,77.29319,58,62,0
77.07684,77.29319,55,62,0
77.30762,77.523964,62,62,0
77.30762,77.523964,58,62,0
77.30762,77.523964,55,62,0
77.76915,77.9855,57,62,0
77.76915,77.9855,54,62,0
77.99992,78.21627,58,62,0
77.99992,78.21627,55,62,0
78.23069,78.44704,60,62,0
78.23069,78.44704,57,62,0
78.46146,78.6778,58,62,0
78.46146,78.6778,55,62,0
78.69223,78.90858,57,62,0
78.69223,78.90858,54,62,0
79.15377,79.37011,67,62,0
79.15377,79.37011,63,62,0
79.15377,79.37011,58,62,0
79.38454,79.60088,67,63,0
79.38454,79.60088,63,63,0
79.38454,79.60088,58,63,0
79.84608,80.06242,66,67,0
79.84608,80.06242,63,67,0
79.84608,80.06242,60,67,0
80.07684,80.29319,67,69,0
80.07684,80.29319,63,69,0
80.07684,80.29319,60,69,0
80.53838,80.75473,69,72,0
80.53838,80.75473,62,72,0
80.53838,80.75473,60,72,0
80.76915,80.9855,69,74,0
80.76915,80.9855,62,74,0
80.76915,80.9855,60,74,0
81.23069,81.44704,67,77,0
81.23069,81.44704,62,77,0
81.23069,81.44704,58,77,0
81.46146,81.6778,67,79,0
81.46146,81.6778,62,79,0
81.46146,81.6778,58,79,0
81.923,82.13934,67,83,0
81.923,82.13934,63,83,0
81.923,82.13934,57,83,0
82.15376,82.37011,67,83,0
82.15376,82.37011,63,83,0
82.15376,82.37011,57,83,0
82.6153,82.83165,66,83,0
82.6153,82.83165,62,83,0
82.6153,82.83165,57,83,0
82.84607,83.062416,66,83,0
82.84607,83.062416,62,83,0
82.84607,83.062416,57,83,0
83.07684,83.76915,66,83,0
83.07684,83.76915,60,83,0
83.07684,83.76915,57,83,0
83.76915,83.9855,67,83,0
83.07684,83.9855,62,83,0
83.76915,83.9855,58,83,0
83.76915,83.9855,55,83,0
84.69222,84.90857,65,62,0
84.69222,84.90857,62,62,0
84.69222,84.90857,58,62,0
84.92299,85.139336,65,62,0
84.92299,85.139336,62,62,0
84.92299,85.139336,58,62,0
85.38453,85.600876,65,62,0
85.38453,85.600876,62,62,0
85.38453,85.600876,58,62,0
85.615295,85.83164,65,62,0
85.615295,85.83164,62,62,0
85.615295,85.83164,58,62,0
86.076836,86.29318,60,62,0
86.076836,86.29318,57,62,0
86.30761,86.52395,62,62,0
86.30761,86.52395,58,62,0
86.538376,86.75472,63,62,0
86.538376,86.75472,60,62,0
86.76914,86.98549,62,62,0
86.76914,86.98549,58,62,0
86.999916,87.216255,60,62,0
86.999916,87.216255,57,62,0
87.46145,87.677795,62,62,0
87.46145,87.677795,58,62,0
87.46145,87.677795,55,62,0
87.69222,87.90857,62,62,0
87.69222,87.90857,58,62,0
87.69222,87.90857,55,62,0
88.153755,88.3701,62,62,0
88.153755,88.3701,58,62,0
88.153755,88.3701,55,62,0
88.38453,88.600876,62,62,0
88.38453,88.600876,58,62,0
88.38453,88.600876,55,62,0
88.84606,89.06241,57,62,0
88.84606,89.06241,54,62,0
89.076836,89.29318,58,62,0
89.076836,89.29318,55,62,0
89.3076,89.52395,60,62,0
89.3076,89.52395,57,62,0
89.53837,89.754715,58,62,0
89.53837,89.754715,55,62,0
89.76914,89.98549,57,62,0
89.76914,89.98549,54,62,0
90.23068,90.44702,67,62,0
90.23068,90.44702,63,62,0
90.23068,90.44702,58,62,0
90.46145,90.677795,67,63,0
90.46145,90.677795,63,63,0
90.46145,90.677795,58,63,0
90.92299,91.139336,66,67,0
90.92299,91.139336,63,67,0
90.92299,91.139336,60,67,0
91.153755,91.3701,67,69,0
91.153755,91.3701,63,69,0
91.153755,91.3701,60,69,0
91.615295,91.83164,69,72,0
91.615295,91.83164,62,72,0
91.615295,91.83164,60,72,0
91.84606,92.06241,69,74,0
91.84606,92.06241,62,74,0
91.84606,92.06241,60,74,0
92.3076,92.52395,67,77,0
92.3076,92.52395,62,77,0
92.3076,92.52395,58,77,0
92.53837,92.754715,67,79,0
92.53837,92.754715,62,79,0
92.53837,92.754715,58,79,0
92.99991,93.216255,67,83,0
92.99991,93.216255,63,83,0
92.99991,93.216255,57,83,0
93.230675,93.44702,67,83,0
93.230675,93.44702,63,83,0
93.230675,93.44702,57,83,0
93.692215,93.90856,66,83,0
93.692215,93.90856,62,83,0
93.692215,93.90856,57,83,0
93.92298,94.13933,66,83,0
93.92298,94.13933,62,83,0
93.92298,94.13933,57,83,0
94.153755,94.84606,66,83,0
94.153755,94.84606,60,83,0
94.153755,94.84606,57,83,0
94.84606,95.06241,67,83,0
94.153755,95.06241,62,83,0
94.84606,95.06241,58,83,0
94.84606,95.06241,55,83,0
95.307594,95.52394,74,62,0
95.53837,95.86048,79,62,0
95.88452,95.995094,81,62,0
95.9999,96.21625,79,62,0
96.230675,96.44702,78,62,0
96.69221,96.908554,74,62,0
96.92298,97.245094,79,62,0
97.269135,97.37971,81,62,0
97.38452,97.60086,79,62,0
97.61529,97.831635,84,62,0
98.07683,98.293175,83,62,0
98.307594,98.62971,81,62,0
98.65375,98.76433,83,62,0
98.769135,98.98548,81,62,0
98.9999,99.21625,76,62,0
99.46144,99.67779,81,62,0
99.69221,100.384514,79,62,0
100.384514,100.60086,78,62,0
100.846054,101.0624,74,62,0
101.07682,101.39893,79,62,0
101.42297,101.533554,81,62,0
101.53836,101.75471,79,62,0
101.76913,101.98547,78,62,0
102.23067,102.447014,74,62,0
102.46143,102.783554,79,62,0
102.80759,102.91817,81,62,0
102.92297,103.13932,79,62,0
103.15374,103.37009,84,62,0
103.61528,103.83163,83,62,0
103.84605,104.16817,81,62,0
104.1922,104.30278,83,62,0
104.30759,104.52393,84,62,0
104.53836,104.7547,76,62,0
104.99989,105.21624,78,62,0
105.23067,105.92297,81,62,0
105.92297,106.13932,79,62,0
106.61528,106.72585,59,83,0
106.73066,106.84124,62,83,0
106.84605,106.95663,67,83,0
106.96143,107.07201,62,83,0
107.07681,107.18739,59,83,0
107.1922,107.30278,62,83,0
107.30759,107.41816,60,83,0
107.422966,107.53355,62,83,0
107.53835,107.64893,66,83,0
107.65374,107.76431,62,83,0
107.76912,107.8797,60,83,0
107.88451,107.99509,62,83,0
107.99989,108.110466,59,83,0
108.11528,108.22585,62,83,0
108.23066,108.34124,67,83,0
108.34605,108.45662,62,83,0
108.46143,108.57201,59,83,0
108.57681,108.68739,62,83,0
108.6922,108.80277,57,83,0
108.80759,108.91816,62,83,0
108.922966,109.03355,66,83,0
109.03835,109.148926,69,83,0
109.15374,109.26431,62,83,0
109.26912,109.3797,67,83,0
109.38451,109.49508,64,83,0
109.49989,109.610466,69,83,0
109.61527,109.72585,72,83,0
109.73066,109.84124,69,83,0
109.84605,109.95662,64,83,0
109.961426,110.07201,69,83,0
110.07681,110.18739,64,83,0
110.1922,110.30277,67,83,0
110.30758,110.41816,69,83,0
110.422966,110.53355,67,83,0
110.53835,110.648926,64,83,0
110.65373,110.76431,67,83,0
110.76912,110.8797,62,83,0
110.88451,110.99508,67,83,0
110.999886,111.110466,71,83,0
111.11527,111.22585,67,83,0
111.23066,111.34123,74,83,0
111.34604,111.45662,71,83,0
111.461426,111.57201,72,83,0
111.57681,111.687386,69,83,0
111.6922,111.80277,66,83,0
111.80758,111.91816,62,83,0
111.922966,112.03354,60,83,0
112.03835,112.148926,57,83,0
112.15373,112.26431,59,83,0
112.26912,112.37969,62,83,0
112.38451,112.49508,67,83,0
112.499886,112.610466,62,83,0
112.61527,112.725845,59,83,0
112.73066,112.84123,62,83,0
112.84604,112.95662,60,83,0
112.961426,113.072,62,83,0
113.07681,113.187386,66,83,0
113.19219,113.30277,62,83,0
113.30758,113.41816,60,83,0
113.422966,113.53354,62,83,0
113.538345,113.648926,59,83,0
113.65373,113.76431,62,83,0
113.76912,113.87969,67,83,0
113.8845,113.99508,62,83,0
113.999886,114.110466,59,83,0
114.11527,114.225845,62,83,0
114.23065,114.34123,57,83,0
114.34604,114.45662,62,83,0
114.461426,114.572,66,83,0
114.576805,114.687386,69,83,0
114.69219,114.80277,62,83,0
114.80758,114.91815,67,83,0
114.92296,115.03354,60,83,0
115.038345,115.148926,64,83,0
115.15373,115.264305,69,83,0
115.26912,115.37969,64,83,0
115.3845,115.49508,60,83,0
115.499886,115.61046,64,83,0
115.61527,115.725845,57,83,0
115.73065,115.84123,60,83,0
115.84604,115.95661,64,83,0
115.961426,116.072,60,83,0
116.076805,116.187386,57,83,0
116.19219,116.302765,60,83,0
116.30758,116.999886,66,83,0
116.30758,116.999886,60,83,0
116.999886,117.21623,67,83,0
116.30758,117.21623,62,83,0
116.999886,117.21623,59,83,0
117.46142,117.69219,73,62,0
117.46142,117.69219,70,62,0
117.69219,117.90854,74,62,0
117.69219,117.90854,71,62,0
118.153725,118.3845,75,69,0
118.153725,118.3845,71,69,0
118.3845,118.600845,76,72,0
118.3845,118.600845,72,72,0
118.84603,119.06238,76,79,0
118.84603,119.06238,73,79,0
119.076805,119.76911,79,83,0
119.076805,119.76911,76,83,0
119.76911,119.98546,77,67,0
119.76911,119.98546,74,67,0
121.615265,121.83161,67,62,0
121.84603,121.942184,72,62,0
122.0768,122.105644,74,62,0
122.105644,122.18738,72,62,0
122.192184,122.302765,71,62,0
122.30757,122.418144,72,62,0
122.42295,122.53353,74,62,0
122.53834,122.63449,76,62,0
122.76911,122.79795,77,62,0
122.79795,122.879684,76,62,0
122.88449,122.99507,74,62,0
122.99988,123.11045,76,62,0
123.115265,123.22584,77,62,0
123.230644,123.3268,79,62,0
123.46142,123.490265,81,62,0
123.490265,123.57199,79,62,0
123.5768,123.68738,78,62,0
123.692184,123.80276,79,62,0
123.80757,123.918144,81,62,0
123.92295,124.1393,77,62,0
124.38449,124.60084,74,62,0
124.61526,124.71141,76,62,0
124.84603,124.87488,77,62,0
124.87488,124.956604,76,62,0
124.96141,125.07199,74,62,0
125.0768,125.18738,76,62,0
125.192184,125.30276,79,62,0
125.30756,125.40372,74,62,0
125.53834,125.567184,76,62,0
125.567184,125.64891,74,62,0
125.65372,125.7643,73,62,0
125.769104,125.879684,74,62,0
125.88449,125.99506,77,62,0
125.99987,126.09603,72,62,0
126.230644,126.25949,74,62,0
126.25949,126.34122,72,62,0
126.34603,126.456604,71,62,0
126.46141,126.57199,72,62,0
126.5768,126.68737,76,62,0
126.692184,126.90852,71,62,0
127.61526,127.831604,64,83,0
127.61526,127.831604,60,83,0
127.61526,127.831604,55,83,0
127.84602,128.06238,64,83,0
127.84602,128.06238,60,83,0
127.84602,128.06238,55,83,0
128.30757,128.52391,64,83,0
128.30757,128.52391,60,83,0
128.30757,128.52391,55,83,0
128.53833,128.75468,64,83,0
128.53833,128.75468,60,83,0
128.53833,128.75468,55,83,0
128.99988,129.21622,67,83,0
128.99988,129.21622,62,83,0
128.99988,129.21622,55,83,0
129.23064,129.44699,67,83,0
129.23064,129.44699,62,83,0
129.23064,129.44699,55,83,0
129.69218,129.90852,67,83,0
129.69218,129.90852,64,83,0
129.69218,129.90852,59,83,0
129.92294,130.1393,67,83,0
129.92294,130.1393,64,83,0
129.92294,130.1393,59,83,0
130.38449,130.60083,67,83,0
130.38449,130.60083,62,83,0
130.38449,130.60083,59,83,0
130.61525,130.8316,67,83,0
130.61525,130.8316,62,83,0
130.61525,130.8316,59,83,0
131.0768,131.29314,66,83,0
131.0768,131.29314,62,83,0
131.0768,131.29314,57,83,0
131.30756,131.52391,66,83,0
131.30756,131.52391,62,83,0
131.30756,131.52391,57,83,0
131.53833,132.23064,66,83,0
131.53833,132.23064,60,83,0
132.23064,132.44698,67,83,0
131.53833,132.44698,62,83,0
132.23064,132.44698,59,83,0
132.69217,132.90852,67,62,0
132.92294,133.0191,72,62,0
133.15372,133.18256,74,62,0
133.18256,133.26428,72,62,0
133.2691,133.37967,71,62,0
133.38448,133.49506,72,62,0
133.49986,133.61044,74,62,0
133.61525,133.71141,76,62,0
133.84602,133.87486,77,62,0
133.87486,133.9566,76,62,0
133.96141,134.07198,74,62,0
134.07678,134.18736,76,62,0
134.19217,134.30275,77,62,0
134.30756,134.40372,79,62,0
134.53833,134.56717,81,62,0
134.56717,134.64891,79,62,0
134.65372,134.76428,78,62,0
134.76909,134.87967,79,62,0
134.88448,134.99506,81,62,0
134.99986,135.21622,77,62,0
135.46141,135.67775,74,62,0
135.69217,135.78833,76,62,0
135.92294,135.95178,77,62,0
135.95178,136.03352,76,62,0
136.03833,136.1489,74,62,0
136.15372,136.26428,76,62,0
136.26909,136.37967,79,62,0
136.38448,136.48064,74,62,0
136.61525,136.64409,76,62,0
136.64409,136.72583,74,62,0
136.73064,136.8412,73,62,0
136.84602,136.95659,74,62,0
136.9614,137.07198,77,62,0
137.07678,137.17294,72,62,0
137.30756,137.3364,74,62,0
137.3364,137.41814,72,62,0
137.42294,137.53352,71,62,0
137.53833,137.6489,72,62,0
137.6537,137.76428,76,62,0
137.76909,137.98544,71,62,0
138.69217,138.90851,64,83,0
138.69217,138.90851,60,83,0
138.69217,138.90851,55,83,0
138.92294,139.13928,64,83,0
138.92294,139.13928,60,83,0
138.92294,139.13928,55,83,0
139.38448,139.60081,64,83,0
139.38448,139.60081,60,83,0
139.38448,139.60081,55,83,0
139.61525,139.83159,64,83,0
139.61525,139.83159,60,83,0
139.61525,139.83159,55,83,0
140.07678,140.29312,67,83,0
140.07678,140.29312,62,83,0
140.07678,140.29312,55,83,0
140.30756,140.5239,67,83,0
140.30756,140.5239,62,83,0
140.30756,140.5239,55,83,0
140.76909,140.98544,67,83,0
140.76909,140.98544,64,83,0
140.76909,140.98544,59,83,0
140.99986,141.2162,67,83,0
140.99986,141.2162,64,83,0
140.99986,141.2162,59,83,0
141.4614,141.67775,67,83,0
141.4614,141.67775,62,83,0
141.4614,141.67775,59,83,0
141.69217,141.90851,67,83,0
141.69217,141.90851,62,83,0
141.69217,141.90851,59,83,0
142.1537,142.37006,66,83,0
142.1537,142.37006,62,83,0
142.1537,142.37006,57,83,0
142.38448,142.60081,66,83,0
142.38448,142.60081,62,83,0
142.38448,142.60081,57,83,0
142.61523,143.30756,66,83,0
142.61523,143.30756,60,83,0
143.30756,143.5239,67,83,0
142.61523,143.5239,62,83,0
143.30756,143.5239,59,83,0
143.76909,143.98543,67,62,0
143.99986,144.09601,79,62,0
144.23062,144.25948,81,62,0
144.25948,144.3412,79,62,0
144.34601,144.45659,78,62,0
144.4614,144.57198,79,62,0
144.57678,144.68736,81,62,0
144.69217,144.90851,78,62,0
144.92293,145.13928,86,62,0
145.38448,145.48062,77,62,0
145.61523,145.64409,79,62,0
145.64409,145.72581,77,62,0
145.73062,145.8412,76,62,0
145.84601,145.95659,77,62,0
145.9614,146.07198,79,62,0
146.07678,146.29312,76,62,0
146.30754,146.5239,84,62,0
146.76909,146.86523,75,62,0
146.99985,147.0287,78,62,0
147.0287,147.11043,75,62,0
147.11523,147.22581,74,62,0
147.23062,147.3412,75,62,0
147.34601,147.45659,77,62,0
147.4614,147.67773,74,62,0
147.69215,147.90851,80,62,0
148.1537,148.37004,69,62,0
148.38446,148.60081,76,62,0
148.61523,148.83159,74,62,0
148.84601,149.06235,72,62,0
149.07677,149.29312,71,62,0
149.76907,149.98543,64,83,0
149.76907,149.98543,60,83,0
149.76907,149.98543,55,83,0
149.99985,150.2162,64,83,0
149.99985,150.2162,60,83,0
149.99985,150.2162,55,83,0
150.4614,150.67773,64,83,0
150.4614,150.67773,60,83,0
150.4614,150.67773,55,83,0
150.69215,150.90851,64,83,0
150.69215,150.90851,60,83,0
150.69215,150.90851,55,83,0
151.1537,151.37004,67,83,0
151.1537,151.37004,62,83,0
151.1537,151.37004,55,83,0
151.38446,151.60081,67,83,0
151.38446,151.60081,62,83,0
151.38446,151.60081,55,83,0
151.84601,152.06235,67,83,0
151.84601,152.06235,62,83,0
151.84601,152.06235,55,83,0
152.07677,152.29312,67,83,0
152.07677,152.29312,62,83,0
152.07677,152.29312,55,83,0
152.53831,152.75465,67,83,0
152.53831,152.75465,64,83,0
152.53831,152.75465,60,83,0
152.76907,152.98543,67,83,0
152.76907,152.98543,64,83,0
152.76907,152.98543,60,83,0
153.23062,153.44696,65,83,0
153.23062,153.44696,62,83,0
153.23062,153.44696,57,83,0
153.46138,153.67773,65,83,0
153.46138,153.67773,62,83,0
153.46138,153.67773,57,83,0
153.92293,154.13927,65,83,0
153.92293,154.13927,62,83,0
153.92293,154.13927,55,83,0
154.15369,154.37004,65,83,0
154.15369,154.37004,62,83,0
154.15369,154.37004,55,83,0
154.38446,154.6008,64,83,0
154.38446,154.6008,60,83,0
154.38446,154.6008,55,83,0
154.846,155.06235,67,62,0
155.07677,155.17293,79,62,0
155.30754,155.33638,81,62,0
155.33638,155.41812,79,62,0
155.42293,155.5335,78,62,0
155.5383,155.64888,79,62,0
155.65369,155.76427,81,62,0
155.76907,155.98543,78,62,0
155.99985,156.21619,86,62,0
156.46138,156.55754,77,62,0
156.69215,156.721,79,62,0
156.721,156.80273,77,62,0
156.80754,156.9181,76,62,0
156.92291,157.0335,77,62,0
157.0383,157.14888,79,62,0
157.15369,157.37004,76,62,0
157.38446,157.6008,84,62,0
157.846,157.94215,75,62,0
158.07677,158.1056,78,62,0
158.1056,158.18735,75,62,0
158.19215,158.30272,74,62,0
158.30754,158.4181,75,62,0
158.42291,158.5335,77,62,0
158.5383,158.75465,74,62,0
158.76907,158.98541,80,62,0
159.2306,159.44696,69,62,0
159.46138,159.67772,76,62,0
159.69215,159.9085,74,62,0
159.92291,160.13927,72,62,0
160.15369,160.37003,71,62,0
160.846,161.06233,64,83,0
160.846,161.06233,60,83,0
160.846,161.06233,55,83,0
161.07677,161.2931,64,83,0
161.07677,161.2931,60,83,0
161.07677,161.2931,55,83,0
161.5383,161.75464,64,83,0
161.5383,161.75464,60,83,0
161.5383,161.75464,55,83,0
161.76907,161.98541,64,83,0
161.76907,161.98541,60,83,0
161.76907,161.98541,55,83,0
162.2306,162.44696,67,83,0
162.2306,162.44696,62,83,0
162.2306,162.44696,55,83,0
162.46138,162.67772,67,83,0
162.46138,162.67772,62,83,0
162.46138,162.67772,55,83,0
162.92291,163.13927,67,83,0
162.92291,163.13927,62,83,0
162.92291,163.13927,55,83,0
163.15369,163.37003,67,83,0
163.15369,163.37003,62,83,0
163.15369,163.37003,55,83,0
163.61522,163.83157,67,83,0
163.61522,163.83157,64,83,0
163.61522,163.83157,60,83,0
163.846,164.06233,67,83,0
163.846,164.06233,64,83,0
163.846,164.06233,60,83,0
164.30753,164.52388,65,83,0
164.30753,164.52388,62,83,0
164.30753,164.52388,57,83,0
164.5383,164.75464,65,83,0
164.5383,164.75464,62,83,0
164.5383,164.75464,57,83,0
164.99983,165.21619,65,83,0
164.99983,165.21619,62,83,0
164.99983,165.21619,55,83,0
165.2306,165.44695,65,83,0
165.2306,165.44695,62,83,0
165.2306,165.44695,55,83,0
165.46138,165.67772,64,83,0
165.46138,165.67772,60,83,0
165.46138,165.67772,55,83,0
166.15369,166.37003,79,62,0
166.38445,166.49503,80,62,0
166.49983,166.61041,81,62,0
166.61522,166.7258,82,62,0
166.7306,166.84119,83,62,0
166.846,167.06233,84,62,0
167.5383,167.75464,76,62,0
167.76906,167.98541,75,62,0
167.99983,168.21617,74,62,0
168.2306,168.44695,72,62,0
168.92291,169.13925,74,62,0
168.92291,169.13925,71,62,0
169.15367,169.37003,73,62,0
169.15367,169.37003,70,62,0
169.38445,169.6008,72,62,0
169.38445,169.6008,69,62,0
169.61522,169.83156,71,62,0
169.61522,169.83156,67,62,0
170.53828,170.75464,70,65,0
170.53828,170.75464,67,65,0
170.53828,170.75464,61,65,0
170.76906,170.98541,70,68,0
170.76906,170.98541,67,68,0
170.76906,170.98541,61,68,0
171.23059,171.44695,67,74,0
171.23059,171.44695,61,74,0
171.23059,171.44695,55,74,0
171.46136,171.67772,67,77,0
171.46136,171.67772,61,77,0
171.46136,171.67772,55,77,0
171.92291,172.13925,66,83,0
171.92291,172.13925,62,83,0
171.92291,172.13925,57,83,0
172.15367,172.37003,66,83,0
172.15367,172.37003,62,83,0
172.15367,172.37003,57,83,0
172.61522,172.83156,64,83,0
172.61522,172.83156,61,83,0
172.61522,172.83156,57,83,0
172.84598,173.06233,64,83,0
172.84598,173.06233,61,83,0
172.84598,173.06233,57,83,0
173.30753,173.52386,66,83,0
173.30753,173.52386,62,83,0
173.30753,173.52386,57,83,0
173.53828,173.75464,66,83,0
173.53828,173.75464,62,83,0
173.53828,173.75464,57,83,0
173.99983,174.21617,67,83,0
173.99983,174.21617,59,83,0
173.99983,174.21617,55,83,0
174.23059,174.44695,67,83,0
174.23059,174.44695,59,83,0
174.23059,174.44695,55,83,0
174.69214,174.90848,64,83,0
174.69214,174.90848,61,83,0
174.69214,174.90848,57,83,0
174.9229,175.13925,64,83,0
174.9229,175.13925,61,83,0
174.9229,175.13925,57,83,0
175.38445,175.60078,66,83,0
175.38445,175.60078,62,83,0
175.38445,175.60078,57,83,0
175.6152,175.83156,66,83,0
175.6152,175.83156,62,83,0
175.6152,175.83156,57,83,0
176.07675,176.29309,67,83,0
176.07675,176.29309,62,83,0
176.07675,176.29309,59,83,0
176.30751,176.52386,67,83,0
176.30751,176.52386,62,83,0
176.30751,176.52386,59,83,0
177.23059,177.32675,74,83,0
177.46136,177.55751,86,83,0
177.69212,177.9229,73,83,0
177.9229,178.13925,74,83,0
178.15367,178.24982,86,83,0
178.38443,178.6152,73,83,0
178.6152,178.83156,74,83,0
178.84598,179.06232,86,79,0
179.07674,179.29309,86,76,0
179.30751,179.52386,86,72,0
179.53828,179.75462,86,69,0
179.76906,179.9854,86,65,0
179.99982,180.21617,86,62,0
180.23059,180.44693,86,62,0
180.46136,180.6777,86,62,0
180.69212,180.90848,86,62,0
180.9229,181.13924,86,62,0
181.15367,181.37001,86,62,0
181.38443,181.60078,86,62,0
181.6152,181.83154,86,62,0
181.84598,182.06232,86,62,0
182.07674,182.29309,86,62,0
182.30751,182.52385,86,62,0
182.53828,182.75462,86,62,0
182.76904,182.9854,86,62,0
182.99982,183.21616,86,63,0
183.23059,183.44693,86,64,0
183.46135,183.6777,86,66,0
183.69212,183.90846,86,67,0
183.9229,184.13924,86,68,0
184.15366,184.47578,86,70,0
185.30751,185.52385,74,72,0
185.53827,185.8604,79,72,0
185.88443,185.99501,81,72,0
185.99982,186.21616,79,72,0
186.23058,186.44693,78,72,0
186.69212,186.90846,74,72,0
186.9229,187.24501,79,72,0
187.26904,187.37962,81,72,0
187.38443,187.60077,79,72,0
187.6152,187.83154,84,72,0
188.07674,188.29308,83,72,0
188.30751,188.62962,81,72,0
188.65366,188.76424,83,72,0
188.76904,188.98538,81,72,0
188.99982,189.21616,76,72,0
189.46135,189.67769,81,72,0
189.69212,190.38443,79,72,0
190.38443,190.60077,78,72,0
190.84596,191.0623,74,72,0
191.07674,191.39885,79,72,0
191.42288,191.53346,81,72,0
191.53827,191.75462,79,72,0
191.76904,191.98538,78,72,0
192.23058,192.44693,74,72,0
192.46135,192.78346,79,72,0
192.8075,192.91808,81,72,0
192.92288,193.13924,79,72,0
193.15366,193.37,84,72,0
193.61519,193.83154,83,72,0
193.84596,194.16808,81,72,0
194.19211,194.30269,83,72,0
194.3075,194.52385,84,72,0
194.53827,194.75461,76,72,0
194.9998,195.21616,78,72,0
195.23058,195.92288,81,72,0
195.92288,196.13922,79,72,0
196.61519,196.72577,74,93,0
196.73058,196.84116,71,93,0
196.84596,196.95653,67,93,0
196.96133,197.07191,62,93,0
197.07672,197.1873,74,93,0
197.19211,197.30269,71,93,0
197.3075,197.41808,74,93,0
197.42288,197.53346,72,93,0
197.53827,197.64883,69,93,0
197.65366,197.76422,62,93,0
197.76903,197.87961,74,93,0
197.88441,197.995,72,93,0
197.9998,198.11038,74,93,0
198.11519,198.22577,71,93,0
198.23058,198.34114,67,93,0
198.34596,198.45653,62,93,0
198.46133,198.57191,74,93,0
198.57672,198.6873,71,93,0
198.69211,198.80269,74,93,0
198.8075,198.91808,69,93,0
198.92288,199.03345,66,93,0
199.03827,199.14883,62,93,0
199.15364,199.26422,74,93,0
199.26903,199.37961,71,93,0
199.38441,199.495,76,93,0
199.4998,199.61038,72,93,0
199.61519,199.72577,69,93,0
199.73058,199.84114,64,93,0
199.84595,199.95653,76,93,0
199.96133,200.07191,72,93,0
200.07672,200.1873,76,93,0
200.19211,200.30269,69,93,0
200.3075,200.41808,67,93,0
200.42288,200.53345,64,93,0
200.53825,200.64883,76,93,0
200.65364,200.76422,69,93,0
200.76903,200.87961,74,93,0
200.88441,200.995,71,93,0
200.9998,201.11038,67,93,0
201.11519,201.22575,62,93,0
201.23058,201.34114,74,93,0
201.34595,201.45653,71,93,0
201.46133,201.57191,72,93,0
201.57672,201.6873,69,93,0
201.69211,201.80269,66,93,0
201.8075,201.91806,62,93,0
201.92288,202.03345,69,93,0
202.03825,202.14883,66,93,0
202.15364,202.26422,74,93,0
202.26903,202.37961,71,93,0
202.38441,202.495,67,93,0
202.4998,202.61037,62,93,0
202.61519,202.72575,74,93,0
202.73056,202.84114,71,93,0
202.84595,202.95653,74,93,0
202.96133,203.07191,72,93,0
203.07672,203.1873,69,93,0
203.19211,203.30269,62,93,0
203.3075,203.41806,74,93,0
203.42287,203.53345,72,93,0
203.53825,203.64883,74,93,0
203.65364,203.76422,71,93,0
203.76903,203.87961,67,93,0
203.88441,203.995,62,93,0
203.9998,204.11037,74,93,0
204.11517,204.22575,71,93,0
204.23056,204.34114,74,93,0
204.34595,204.45653,69,93,0
204.46133,204.57191,66,93,0
204.57672,204.6873,62,93,0
204.69211,204.80267,74,93,0
204.8075,204.91806,71,93,0
204.92287,205.03345,76,93,0
205.03825,205.14883,72,93,0
205.15364,205.26422,69,93,0
205.26903,205.37961,64,93,0
205.38441,205.49498,76,93,0
205.4998,205.61037,72,93,0
205.61517,205.72575,76,93,0
205.73056,205.84114,72,93,0
205.84595,205.95653,69,93,0
205.96133,206.07191,64,93,0
206.07672,206.18729,72,93,0
206.19211,206.30267,69,93,0
206.30748,206.41806,72,93,0
206.42287,206.53345,69,93,0
206.53825,206.64883,66,93,0
206.65364,206.76422,62,93,0
206.76903,206.87961,69,93,0
206.88441,206.99498,66,93,0
206.99979,207.11037,71,93,0
207.11517,207.22575,67,93,0
207.23056,207.34114,62,93,0
207.34595,207.45653,59,93,0
207.46133,207.57191,74,93,0
207.57672,207.68729,71,93,0
207.6921,207.80267,76,93,0
207.80748,207.91806,72,93,0
207.92287,208.03345,67,93,0
208.03825,208.14883,64,93,0
208.15364,208.26422,76,93,0
208.26903,208.3796,72,93,0
208.3844,208.49498,76,93,0
208.49979,208.61037,72,93,0
208.61517,208.72575,67,93,0
208.73056,208.84114,64,93,0
208.84595,208.95653,76,93,0
208.96133,209.0719,72,93,0
209.07672,209.18729,74,93,0
209.1921,209.30267,71,93,0
209.30748,209.41806,67,93,0
209.42287,209.53345,62,93,0
209.53825,209.64883,74,93,0
209.65364,209.7642,71,93,0
209.76903,209.8796,74,93,0
209.8844,209.99498,71,93,0
209.99979,210.11037,67,93,0
210.11517,210.22575,62,93,0
210.23056,210.34114,74,93,0
210.34595,210.45653,71,93,0
210.46133,210.5719,76,93,0
210.5767,210.68729,72,93,0
210.6921,210.80267,67,93,0
210.80748,210.91806,64,93,0
210.92287,211.03345,76,93,0
211.03825,211.14883,72,93,0
211.15364,211.2642,76,93,0
211.26901,211.3796,72,93,0
211.3844,211.49498,67,93,0
211.49979,211.61037,64,93,0
211.61517,211.72575,76,93,0
211.73056,211.84114,72,93,0
211.84595,211.95651,74,93,0
211.96132,212.0719,71,93,0
212.0767,212.18729,67,93,0
212.1921,212.30267,62,93,0
212.30748,212.41806,74,93,0
212.42287,212.53345,71,93,0
212.53825,212.64882,79,93,0
212.65364,212.7642,74,89,0
212.76901,212.8796,83,86,0
212.8844,212.99498,79,82,0
212.99979,213.11037,86,79,0
213.11517,213.22575,83,75,0
213.23056,213.55267,84,72,0
213.5767,213.68729,86,62,0
213.6921,213.90845,88,62,0
213.92287,214.3844,79,62,0
214.3844,214.60075,81,62,0
214.61517,214.93729,83,62,0
214.96132,215.0719,84,62,0
215.0767,215.29306,86,62,0
215.30748,215.76901,78,62,0
215.76901,215.98537,80,62,0
215.99979,216.3219,81,62,0
216.34593,216.45651,83,62,0
216.46132,216.67767,84,62,0
216.6921,217.15363,76,62,0
217.15363,217.36998,78,62,0
217.3844,218.02382,81,62,0
218.0767,218.29305,79,62,0
218.30748,218.52382,78,62,0
218.53824,218.7546,77,62,0
218.76901,218.8796,76,93,0
218.8844,218.99498,72,93,0
218.99979,219.11035,67,93,0
219.11516,219.22574,64,93,0
219.23055,219.34113,76,93,0
219.34593,219.45651,72,93,0
219.46132,219.5719,76,93,0
219.5767,219.68729,72,93,0
219.6921,219.80266,67,93,0
219.80748,219.91805,64,93,0
219.92285,220.03343,76,93,0
220.03824,220.14882,72,93,0
220.15363,220.2642,74,93,0
220.26901,220.3796,71,93,0
220.3844,220.49496,67,93,0
220.49979,220.61035,62,93,0
220.61516,220.72574,74,93,0
220.73055,220.84113,71,93,0
220.84593,220.95651,74,93,0
220.96132,221.0719,71,93,0
221.0767,221.18729,67,93,0
221.1921,221.30266,62,93,0
221.30746,221.41805,74,93,0
221.42285,221.53343,71,93,0
221.53824,221.64882,76,93,0
221.65363,221.7642,72,93,0
221.76901,221.8796,67,93,0
221.8844,221.99496,64,93,0
221.99977,222.11035,76,93,0
222.11516,222.22574,72,93,0
222.23055,222.34113,76,93,0
222.34593,222.45651,72,93,0
222.46132,222.5719,67,93,0
222.5767,222.68727,64,93,0
222.69208,222.80266,76,93,0
222.80746,222.91805,72,93,0
222.92285,223.03343,74,93,0
223.03824,223.14882,71,93,0
223.15363,223.2642,67,93,0
223.26901,223.37958,62,93,0
223.3844,223.49496,74,93,0
223.49977,223.61035,71,93,0
223.61516,223.72574,79,93,0
223.73055,223.84113,74,89,0
223.84593,223.95651,83,86,0
223.96132,224.07188,79,82,0
224.0767,224.18727,86,79,0
224.19208,224.30266,83,75,0
224.30746,224.62958,84,72,0
224.65363,224.7642,86,62,0
224.76901,224.98535,88,62,0
224.99977,225.46132,79,62,0
225.46132,225.67766,81,62,0
225.69208,226.01419,83,62,0
226.03824,226.14882,84,62,0
226.15363,226.36996,86,62,0
226.38438,226.84593,78,62,0
226.84593,227.06227,80,62,0
227.07669,227.29305,81,62,0
227.30746,227.5238,88,62,0
227.53824,227.75458,86,62,0
227.769,227.98535,84,62,0
227.99977,228.21613,83,62,0
228.23055,228.44688,81,62,0
228.4613,229.73535,79,62,0
229.84592,230.41805,62,85,0
230.42285,230.48055,64,93,0
230.48055,230.53824,66,93,0
230.53824,230.59592,67,93,0
230.59592,230.65361,69,93,0
230.65361,230.7113,71,93,0
230.7113,230.769,72,93,0
230.769,230.82669,74,93,0
230.82669,230.88438,76,93,0
230.88438,230.94208,78,93,0
230.94208,230.99977,79,93,0
230.99977,231.05746,81,93,0
231.05746,231.11516,83,93,0
231.11516,231.17285,84,93,0
231.17285,231.23055,86,93,0
231.23055,231.30266,83,93,0
231.30746,231.37958,81,93,0
231.38438,231.4565,83,93,0
231.4613,231.53342,81,93,0
231.53822,231.61035,83,93,0
231.61516,231.68727,81,93,0
231.69208,231.76419,83,93,0
231.769,231.84111,81,93,0
231.84592,231.91803,83,93,0
231.92285,231.99496,81,93,0
231.99977,232.07188,83,93,0
232.07669,232.1488,81,93,0
232.15361,232.22572,83,93,0
232.23053,232.30266,81,93,0
232.30746,232.37958,83,93,0
232.38438,232.4565,81,93,0
232.4613,232.53342,79,93,0
232.53822,232.61035,81,93,0
232.61516,233.04303,79,93,0
234.4613,234.67764,79,62,0
234.69208,235.01419,86,62,0
235.03822,235.1488,88,62,0
235.15361,235.36995,86,62,0
235.38438,235.60072,86,62,0
235.61514,235.8315,84,62,0
235.84592,236.06227,81,62,0
236.07669,236.50458,79,62,0
236.53822,236.6488,83,62,0
236.65361,236.76419,81,62,0
236.769,237.19688,79,62,0
238.61514,238.8315,79,62,0
238.84592,239.16803,86,62,0
239.19206,239.30264,88,62,0
239.30745,239.5238,86,62,0
239.53822,239.75456,86,62,0
239.769,239.98534,85,62,0
239.99976,240.21611,81,62,0
240.23053,240.44687,84,62,0
240.4613,240.67764,83,62,0
240.69206,240.90842,79,62,0
240.92284,241.13918,86,62,0
241.15361,241.36995,85,62,0
241.38437,241.60072,81,62,0
241.61514,241.83148,84,62,0
241.84592,242.06226,83,62,0
242.07668,242.29303,79,62,0
242.30745,242.41803,76,62,0
242.42284,242.53342,78,62,0
242.53822,242.64879,79,63,0
242.65361,242.76418,81,64,0
242.76898,242.87956,83,65,0
242.88437,242.99495,84,65,0
242.99976,243.11034,86,66,0
243.11514,243.22572,88,67,0
243.23053,243.34111,86,68,0
243.34592,243.45648,84,69,0
243.46129,243.57187,83,69,0
243.57668,243.68726,81,70,0
243.69206,243.80264,79,71,0
243.80745,243.91803,81,72,0
243.92284,244.03342,82,73,0
244.03822,244.14879,83,73,0
244.1536,244.26418,84,74,0
244.26898,244.37956,85,75,0
244.38437,244.49495,88,76,0
244.49976,244.61034,86,77,0
244.61514,244.72572,84,77,0
244.73053,244.8411,83,78,0
244.8459,244.95648,81,79,0
244.96129,245.07187,79,80,0
245.07668,245.14879,83,81,0
245.1536,245.22572,81,81,0
245.23053,245.30264,83,81,0
245.30745,245.37956,81,82,0
245.38437,245.45648,83,82,0
245.46129,245.5334,81,83,0
245.53822,245.61034,83,83,0
245.61514,245.68726,81,83,0
245.69206,245.76418,83,84,0
245.76898,245.8411,81,84,0
245.8459,245.91803,83,85,0
245.92284,245.99495,81,85,0
245.99976,246.07187,83,85,0
246.07668,246.14879,81,86,0
246.1536,246.22571,83,86,0
246.23053,246.30264,81,87,0
246.30745,246.37956,79,87,0
246.38437,246.45648,81,87,0
246.46129,246.7834,79,88,0
246.80745,246.91803,81,93,0
246.92284,247.13918,79,93,0
247.1536,247.36995,78,93,0
247.61514,247.83148,74,93,0
247.8459,248.16801,79,93,0
248.19206,248.30264,81,93,0
248.30745,248.52379,79,93,0
248.53821,248.75456,86,93,0
248.99976,249.2161,74,93,0
249.23051,249.55263,79,93,0
249.57668,249.68726,81,93,0
249.69206,249.9084,79,93,0
249.92282,250.13918,78,93,0
250.38437,250.60071,74,93,0
250.61513,250.93726,79,93,0
250.96129,251.07187,81,93,0
251.07668,251.29301,79,93,0
251.30743,251.52379,86,93,0
251.76898,251.99974,74,93,0
251.99974,252.2161,79,93,0
252.23051,252.32668,86,88,0
252.46129,252.69206,74,84,0
252.69206,252.9084,79,80,0
252.92282,253.01898,86,76,0
253.1536,253.38437,74,72,0
253.38437,253.70648,79,68,0
167.5383,167.96617,72,64,0
167.99983,168.21617,71,64,0
168.2306,168.44695,69,64,0
1.384614,1.8124982,71,62,0
1.384614,1.8124982,67,62,0
1.846152,2.0624979,71,62,0
1.846152,2.0624979,67,62,0
2.076921,2.293267,72,62,0
2.076921,2.293267,69,62,0
2.769228,3.197112,71,62,0
2.769228,3.197112,67,62,0
3.230766,3.4471118,71,62,0
3.230766,3.4471118,67,62,0
3.461535,3.677881,69,62,0
3.461535,3.677881,66,62,0
3.923073,4.139419,67,62,0
4.153842,4.7932644,64,62,0
4.153842,4.7932644,60,62,0
4.846149,5.4855714,69,62,0
4.846149,5.4855714,61,62,0
5.538456,6.230763,71,62,0
6.230763,6.4471087,69,62,0
5.538456,6.4471087,62,62,0
6.92307,7.350954,71,62,0
6.92307,7.350954,67,62,0
7.384608,7.600954,71,62,0
7.384608,7.600954,67,62,0
7.615377,7.8317227,72,62,0
7.615377,7.8317227,69,62,0
8.307684,8.735568,71,62,0
8.307684,8.735568,67,62,0
8.769222,8.985568,71,62,0
8.769222,8.985568,67,62,0
8.999991,9.216337,69,62,0
8.999991,9.216337,66,62,0
9.461529,9.677875,67,62,0
9.692298,10.120182,64,62,0
9.692298,10.120182,60,62,0
10.846143,11.062489,72,62,0
10.846143,11.062489,62,62,0
11.076912,11.769219,72,62,0
11.769219,11.985565,71,62,0
11.076912,11.985565,67,62,0
12.461526,12.677872,55,83,0
12.461526,12.677872,43,83,0
13.153833,13.370179,57,83,0
13.153833,13.370179,45,83,0
13.84614,14.062486,55,83,0
13.84614,14.062486,43,83,0
14.538447,14.9663315,54,83,0
14.538447,14.9663315,42,83,0
14.999985,15.216331,55,83,0
14.999985,15.216331,43,83,0
15.230754,15.4471,48,83,0
15.230754,15.4471,36,83,0
15.923061,16.139406,49,83,0
15.923061,16.139406,37,83,0
16.615368,17.524021,50,83,0
16.615368,17.524021,38,83,0
17.999983,18.216328,55,83,0
17.999983,18.216328,43,83,0
18.69229,18.908634,57,83,0
18.69229,18.908634,45,83,0
19.384596,19.600943,55,83,0
19.384596,19.600943,43,83,0
20.076902,20.504787,54,83,0
20.076902,20.504787,42,83,0
20.53844,20.754787,55,83,0
20.53844,20.754787,43,83,0
20.76921,20.985556,48,83,0
20.76921,20.985556,36,83,0
21.461517,21.8894,45,83,0
21.923056,22.1394,50,83,0
22.153824,23.062477,55,83,0
22.153824,23.062477,43,83,0
23.538439,23.966322,74,62,0
23.538439,23.966322,67,62,0
23.999975,24.216322,74,62,0
23.999975,24.216322,67,62,0
24.230745,24.44709,74,62,0
24.230745,24.44709,66,62,0
24.923052,25.350937,74,62,0
24.923052,25.350937,71,62,0
25.38459,25.600937,74,62,0
25.38459,25.600937,71,62,0
25.615358,25.831705,74,62,0
25.615358,25.831705,69,62,0
26.307667,26.73555,71,62,0
26.307667,26.73555,67,62,0
26.769203,26.98555,72,62,0
26.769203,26.98555,69,62,0
26.999973,27.216318,71,62,0
26.999973,27.216318,67,62,0
27.69228,27.908627,66,62,0
27.92305,28.139395,67,62,0
28.153818,28.370165,68,62,0
28.384586,28.600933,69,62,0
29.076895,29.29324,45,83,0
29.769201,29.985546,50,83,0
30.461508,30.677855,45,83,0
31.153814,31.370161,50,83,0
31.846123,32.06247,43,83,0
32.53843,32.754776,45,83,0
33.230736,34.13939,50,83,0
33.230736,34.13939,38,83,0
35.07689,35.293236,71,62,0
35.07689,35.293236,62,62,0
35.307655,35.524002,72,62,0
35.307655,35.524002,62,62,0
36.461502,36.67785,69,62,0
36.461502,36.67785,62,62,0
36.692272,36.908615,71,62,0
36.692272,36.908615,62,62,0
37.38458,37.81246,67,62,0
37.38458,37.81246,62,62,0
38.076885,38.50477,64,62,0
38.076885,38.50477,62,62,0
38.76919,39.677845,62,62,0
38.76919,39.677845,50,62,0
40.153805,40.58169,71,62,0
40.153805,40.58169,67,62,0
40.615345,40.83169,71,62,0
40.615345,40.83169,67,62,0
40.84611,41.062458,72,62,0
40.84611,41.062458,69,62,0
41.53842,41.966305,71,62,0
41.53842,41.966305,67,62,0
41.999958,42.216305,71,62,0
41.999958,42.216305,67,62,0
42.23073,42.44707,69,62,0
42.23073,42.44707,66,62,0
42.692265,42.90861,67,62,0
42.923035,43.562458,64,62,0
42.923035,43.562458,60,62,0
43.61534,44.254765,69,62,0
43.61534,44.254765,61,62,0
44.307648,44.999954,71,62,0
44.999954,45.2163,69,62,0
44.307648,45.2163,62,62,0
45.69226,45.908607,55,62,0
45.69226,45.908607,43,62,0
46.384567,46.600914,57,62,0
46.384567,46.600914,45,62,0
47.076878,47.29322,55,62,0
47.076878,47.29322,43,62,0
47.769184,48.197067,54,62,0
47.769184,48.197067,42,62,0
48.23072,48.447067,55,62,0
48.23072,48.447067,43,62,0
48.46149,48.677837,48,62,0
48.46149,48.677837,36,62,0
49.153797,49.58168,45,62,0
49.615334,49.83168,50,62,0
49.846104,50.754757,55,62,0
49.846104,50.754757,43,62,0
51.230717,51.658604,43,62,0
51.923023,52.35091,38,62,0
52.615334,53.043217,43,62,0
53.999947,54.42783,38,62,0
54.692253,55.120136,43,62,0
55.38456,55.812443,38,62,0
56.769173,57.408596,55,62,0
56.769173,57.408596,43,62,0
57.46148,58.100903,54,67,0
57.46148,58.100903,42,67,0
58.15379,58.79321,53,72,0
58.15379,58.79321,41,72,0
58.846096,59.062443,55,77,0
58.846096,59.062443,43,77,0
59.307632,59.52398,50,81,0
59.538403,59.966286,51,83,0
60.23071,60.658592,53,83,0
60.923016,61.83167,58,83,0
60.923016,61.83167,46,83,0
62.30763,62.735516,43,62,0
62.999935,63.427822,38,62,0
63.692245,64.120125,43,62,0
65.07686,65.504745,38,62,0
65.769165,66.19705,43,62,0
66.46147,66.88936,38,62,0
67.846085,68.48551,55,62,0
67.846085,68.48551,43,62,0
68.53839,69.17782,54,67,0
68.53839,69.17782,42,67,0
69.2307,69.870125,53,72,0
69.2307,69.870125,41,72,0
69.923004,70.13935,55,77,0
69.923004,70.13935,43,77,0
70.384544,70.60089,50,81,0
70.61531,71.0432,51,83,0
71.30762,71.735504,53,83,0
71.99993,72.908585,58,83,0
71.99993,72.908585,46,83,0
73.384544,73.81242,46,62,0
74.07685,74.50473,46,62,0
74.76916,75.923004,41,62,0
75.923004,76.13934,42,62,0
76.15377,76.58166,43,62,0
76.84608,77.273964,43,62,0
77.53838,78.81242,38,62,0
78.923,79.56242,50,62,0
79.6153,79.83165,48,62,0
79.84608,80.06242,45,63,0
80.07684,80.29319,43,65,0
80.30761,80.94704,42,67,0
80.999916,81.46146,43,73,0
81.46146,81.6778,46,77,0
81.69222,82.12011,48,79,0
82.38454,82.812416,50,83,0
83.07684,83.9855,43,83,0
84.46146,84.889336,46,62,0
85.15376,85.58164,46,62,0
85.84607,86.999916,41,62,0
86.999916,87.216255,42,62,0
87.23068,87.65857,43,62,0
87.92299,88.350876,43,62,0
88.615295,89.889336,38,62,0
89.99991,90.639336,50,62,0
90.692215,90.90856,48,62,0
90.92299,91.139336,45,63,0
91.153755,91.3701,43,65,0
91.38452,92.02395,42,67,0
92.07683,92.53837,43,73,0
92.53837,92.754715,46,77,0
92.769135,93.19702,48,79,0
93.46145,93.88933,50,83,0
94.153755,95.06241,43,83,0
95.53837,95.96625,71,62,0
95.53837,95.96625,67,62,0
95.9999,96.21625,71,62,0
95.9999,96.21625,67,62,0
96.230675,96.44702,72,62,0
96.230675,96.44702,69,62,0
96.92298,97.35086,71,62,0
96.92298,97.35086,67,62,0
97.38452,97.60086,71,62,0
97.38452,97.60086,67,62,0
97.61529,97.831635,69,62,0
97.61529,97.831635,66,62,0
98.07683,98.293175,67,62,0
98.307594,98.947014,64,62,0
98.307594,98.947014,60,62,0
98.9999,99.63932,69,62,0
98.9999,99.63932,61,62,0
99.69221,100.384514,71,62,0
100.384514,100.60086,69,62,0
99.69221,100.60086,62,62,0
101.07682,101.50471,71,62,0
101.07682,101.50471,67,62,0
101.53836,101.75471,71,62,0
101.53836,101.75471,67,62,0
101.76913,101.98547,72,62,0
101.76913,101.98547,69,62,0
102.46143,102.88932,71,62,0
102.46143,102.88932,67,62,0
102.92297,103.13932,71,62,0
102.92297,103.13932,67,62,0
103.15374,103.37009,69,62,0
103.15374,103.37009,66,62,0
103.61528,103.83163,67,62,0
103.84605,104.27393,64,62,0
103.84605,104.27393,60,62,0
104.99989,105.21624,72,62,0
104.99989,105.21624,62,62,0
105.23067,105.92297,72,62,0
105.92297,106.13932,71,62,0
105.23067,106.13932,67,62,0
106.61528,107.2547,55,83,0
107.30759,107.94701,57,83,0
107.99989,108.63931,55,83,0
108.6922,109.12009,54,83,0
109.15374,109.37009,55,83,0
109.38451,110.023926,48,83,0
110.07681,110.71623,49,83,0
110.76912,111.40854,50,83,0
111.461426,111.67777,38,83,0
112.15373,112.79316,55,83,0
112.84604,113.485466,57,83,0
113.538345,114.17777,55,83,0
114.23065,114.65854,54,83,0
114.69219,114.90854,55,83,0
114.92296,115.562386,48,83,0
115.61527,115.83161,48,83,0
115.84604,116.062386,45,83,0
116.076805,116.29315,50,83,0
116.30758,117.21623,55,83,0
116.30758,117.21623,43,83,0
117.92296,118.139305,67,83,0
117.92296,118.139305,55,83,0
118.615265,118.83161,67,83,0
118.615265,118.83161,55,83,0
119.076805,119.98546,55,83,0
119.076805,119.98546,43,83,0
121.84603,122.27392,48,62,0
122.53834,122.966225,48,62,0
123.230644,123.65853,47,62,0
123.92295,124.35084,47,62,0
124.61526,125.043144,48,62,0
125.30756,125.73545,53,62,0
125.99987,126.42776,55,62,0
126.692184,127.12006,43,62,0
127.38449,127.81237,36,83,0
128.0768,128.50468,48,83,0
128.7691,129.19699,47,83,0
129.46141,129.8893,52,83,0
130.15372,130.5816,50,83,0
130.84602,131.27391,38,83,0
131.53833,132.44698,55,83,0
131.53833,132.44698,43,83,0
132.92294,133.35083,48,62,0
133.61525,134.04314,48,62,0
134.30756,134.73544,47,62,0
134.99986,135.42775,47,62,0
135.69217,136.12006,48,62,0
136.38448,136.81236,53,62,0
137.07678,137.50467,55,62,0
137.76909,138.19698,43,62,0
138.4614,138.88928,36,83,0
139.1537,139.58159,48,83,0
139.84601,140.2739,47,83,0
140.53831,140.9662,52,83,0
141.23062,141.65851,50,83,0
141.92293,142.35081,38,83,0
142.61523,143.5239,55,83,0
142.61523,143.5239,43,83,0
143.99986,144.42773,43,62,0
144.69217,145.12004,43,62,0
145.38448,145.81235,43,62,0
146.07678,146.50465,43,62,0
146.76909,147.19698,55,62,0
146.76909,147.19698,43,62,0
147.4614,147.88928,55,62,0
147.4614,147.88928,43,62,0
148.1537,148.58159,55,62,0
148.1537,148.58159,43,62,0
148.84601,149.2739,55,62,0
148.84601,149.2739,43,62,0
149.53831,149.9662,36,83,0
150.23062,150.65851,48,83,0
150.92293,151.35081,47,83,0
151.61523,152.04312,43,83,0
152.30754,152.73543,48,83,0
152.99985,153.42773,41,83,0
153.69215,154.12004,43,83,0
154.38446,154.6008,36,83,0
155.07677,155.50465,43,62,0
155.76907,156.19696,43,62,0
156.46138,156.88927,43,62,0
157.15369,157.58157,43,62,0
157.846,158.27388,55,62,0
157.846,158.27388,43,62,0
158.5383,158.96619,55,62,0
158.5383,158.96619,43,62,0
159.2306,159.6585,55,62,0
159.2306,159.6585,43,62,0
159.92291,160.3508,55,62,0
159.92291,160.3508,43,62,0
160.61522,161.0431,36,83,0
161.30753,161.73541,48,83,0
161.99983,162.42772,47,83,0
162.69214,163.12003,43,83,0
163.38445,163.81233,48,83,0
164.07675,164.50464,41,83,0
164.76907,165.19695,43,83,0
165.46138,165.67772,36,83,0
166.15369,166.846,77,62,0
166.15369,166.846,74,62,0
166.15369,166.846,67,62,0
166.846,167.06233,76,62,0
166.846,167.06233,72,62,0
167.5383,168.2306,52,62,0
168.2306,168.44695,45,62,0
168.92291,169.13925,38,62,0
169.15367,169.26425,39,62,0
169.26906,169.37964,40,62,0
169.38445,169.49503,41,62,0
169.49983,169.61041,42,62,0
169.61522,169.83156,43,62,0
170.30753,170.52386,51,62,0
170.30753,170.52386,39,62,0
170.99983,171.21617,51,71,0
170.99983,171.21617,39,71,0
171.69214,171.90848,50,80,0
171.69214,171.90848,38,80,0
172.38445,172.60078,50,83,0
172.38445,172.60078,38,83,0
173.07675,173.50464,50,83,0
173.07675,173.50464,38,83,0
173.76906,174.19695,50,83,0
173.76906,174.19695,38,83,0
174.46136,174.88925,50,83,0
174.46136,174.88925,38,83,0
175.15367,175.58156,50,83,0
175.15367,175.58156,38,83,0
175.84598,176.27386,50,83,0
175.84598,176.27386,38,83,0
176.53828,177.23059,67,83,0
176.53828,177.23059,64,83,0
177.23059,177.44695,66,83,0
177.23059,177.44695,62,83,0
177.69212,177.9229,67,83,0
177.69212,177.9229,63,83,0
177.9229,178.13925,66,83,0
177.9229,178.13925,62,83,0
178.38443,178.6152,67,83,0
178.38443,178.6152,63,83,0
178.6152,179.04309,66,83,0
178.6152,179.04309,62,83,0
182.99982,183.21616,50,64,0
183.23059,183.44693,48,67,0
183.46135,183.6777,47,70,0
183.69212,183.90846,45,73,0
183.9229,184.13924,43,76,0
184.15366,184.47578,42,78,0
185.53827,185.96616,71,83,0
185.53827,185.96616,67,83,0
185.99982,186.21616,71,83,0
185.99982,186.21616,67,83,0
186.23058,186.44693,72,83,0
186.23058,186.44693,69,83,0
186.9229,187.35077,71,83,0
186.9229,187.35077,67,83,0
187.38443,187.60077,71,83,0
187.38443,187.60077,67,83,0
187.6152,187.83154,69,83,0
187.6152,187.83154,66,83,0
188.07674,188.29308,67,83,0
188.30751,188.94693,64,83,0
188.30751,188.94693,60,83,0
188.99982,189.63924,69,83,0
188.99982,189.63924,61,83,0
189.69212,190.38443,71,83,0
190.38443,190.60077,69,83,0
189.69212,190.60077,62,83,0
191.07674,191.50462,71,83,0
191.07674,191.50462,67,83,0
191.53827,191.75462,71,83,0
191.53827,191.75462,67,83,0
191.76904,191.98538,72,83,0
191.76904,191.98538,69,83,0
192.46135,192.88924,71,83,0
192.46135,192.88924,67,83,0
192.92288,193.13924,71,83,0
192.92288,193.13924,67,83,0
193.15366,193.37,69,83,0
193.15366,193.37,66,83,0
193.61519,193.83154,67,83,0
193.84596,194.27385,64,83,0
193.84596,194.27385,60,83,0
194.9998,195.21616,72,83,0
194.9998,195.21616,62,83,0
195.23058,195.92288,72,83,0
195.92288,196.13922,71,83,0
195.23058,196.13922,67,83,0
196.61519,196.72577,43,93,0
196.73058,196.84116,47,93,0
196.84596,196.95653,50,93,0
196.96133,197.07191,55,93,0
197.07672,197.1873,43,93,0
197.19211,197.30269,47,93,0
197.3075,197.41808,45,93,0
197.42288,197.53346,48,93,0
197.53827,197.64883,50,93,0
197.65366,197.76422,57,93,0
197.76903,197.87961,45,93,0
197.88441,197.995,48,93,0
197.9998,198.11038,43,93,0
198.11519,198.22577,47,93,0
198.23058,198.34114,50,93,0
198.34596,198.45653,55,93,0
198.46133,198.57191,43,93,0
198.57672,198.6873,47,93,0
198.69211,198.80269,42,93,0
198.8075,198.91808,45,93,0
198.92288,199.03345,50,93,0
199.03827,199.14883,54,93,0
199.15364,199.26422,43,93,0
199.26903,199.37961,47,93,0
199.38441,199.495,48,93,0
199.4998,199.61038,52,93,0
199.61519,199.72577,57,93,0
199.73058,199.84114,60,93,0
199.84595,199.95653,48,93,0
199.96133,200.07191,52,93,0
200.07672,200.1873,49,93,0
200.19211,200.30269,52,93,0
200.3075,200.41808,57,93,0
200.42288,200.53345,61,93,0
200.53825,200.64883,49,93,0
200.65364,200.76422,52,93,0
200.76903,200.87961,38,93,0
200.88441,200.995,43,93,0
200.9998,201.11038,47,93,0
201.11519,201.22575,50,93,0
201.23058,201.34114,38,93,0
201.34595,201.45653,43,93,0
201.46133,201.57191,38,93,0
201.57672,201.6873,42,93,0
201.69211,201.80269,45,93,0
201.8075,201.91806,50,93,0
201.92288,202.03345,48,93,0
202.03825,202.14883,45,93,0
202.15364,202.26422,43,93,0
202.26903,202.37961,47,93,0
202.38441,202.495,50,93,0
202.4998,202.61037,55,93,0
202.61519,202.72575,43,93,0
202.73056,202.84114,47,93,0
202.84595,202.95653,45,93,0
202.96133,203.07191,48,93,0
203.07672,203.1873,50,93,0
203.19211,203.30269,57,93,0
203.3075,203.41806,45,93,0
203.42287,203.53345,48,93,0
203.53825,203.64883,43,93,0
203.65364,203.76422,47,93,0
203.76903,203.87961,50,93,0
203.88441,203.995,55,93,0
203.9998,204.11037,43,93,0
204.11517,204.22575,47,93,0
204.23056,204.34114,42,93,0
204.34595,204.45653,45,93,0
204.46133,204.57191,50,93,0
204.57672,204.6873,54,93,0
204.69211,204.80267,43,93,0
204.8075,204.91806,47,93,0
204.92287,205.03345,48,93,0
205.03825,205.14883,52,93,0
205.15364,205.26422,57,93,0
205.26903,205.37961,60,93,0
205.38441,205.49498,48,93,0
205.4998,205.61037,52,93,0
205.61517,205.72575,45,93,0
205.73056,205.84114,48,93,0
205.84595,205.95653,52,93,0
205.96133,206.07191,57,93,0
206.07672,206.18729,50,93,0
206.19211,206.30267,54,93,0
206.30748,206.41806,43,93,0
206.42287,206.53345,48,93,0
206.53825,206.64883,50,93,0
206.65364,206.76422,54,93,0
206.76903,206.87961,48,93,0
206.88441,206.99498,50,93,0
206.99979,207.11037,43,93,0
207.11517,207.22575,47,93,0
207.23056,207.34114,50,93,0
207.34595,207.45653,55,93,0
207.46133,207.57191,47,93,0
207.57672,207.68729,50,93,0
207.6921,207.80267,43,93,0
207.80748,207.91806,48,93,0
207.92287,208.03345,52,93,0
208.03825,208.14883,55,93,0
208.15364,208.26422,48,93,0
208.26903,208.3796,52,93,0
208.3844,208.49498,43,93,0
208.49979,208.61037,48,93,0
208.61517,208.72575,52,93,0
208.73056,208.84114,55,93,0
208.84595,208.95653,48,93,0
208.96133,209.0719,52,93,0
209.07672,209.18729,43,93,0
209.1921,209.30267,47,93,0
209.30748,209.41806,50,93,0
209.42287,209.53345,55,93,0
209.53825,209.64883,43,93,0
209.65364,209.7642,47,93,0
209.76903,209.8796,43,93,0
209.8844,209.99498,47,93,0
209.99979,210.11037,50,93,0
210.11517,210.22575,55,93,0
210.23056,210.34114,43,93,0
210.34595,210.45653,47,93,0
210.46133,210.5719,43,93,0
210.5767,210.68729,48,93,0
210.6921,210.80267,52,93,0
210.80748,210.91806,55,93,0
210.92287,211.03345,48,93,0
211.03825,211.14883,52,93,0
211.15364,211.2642,43,93,0
211.26901,211.3796,48,93,0
211.3844,211.49498,52,93,0
211.49979,211.61037,55,93,0
211.61517,211.72575,48,93,0
211.73056,211.84114,52,93,0
211.84595,211.95651,43,93,0
211.96132,212.0719,47,93,0
212.0767,212.18729,50,93,0
212.1921,212.30267,55,93,0
212.30748,212.41806,43,93,0
212.42287,212.53345,47,93,0
212.53825,212.7546,43,93,0
213.23056,213.65845,67,74,0
213.23056,213.65845,64,74,0
214.15363,214.36998,72,62,0
214.15363,214.36998,64,62,0
214.3844,214.60075,72,62,0
214.3844,214.60075,66,62,0
214.61517,215.04306,71,62,0
214.61517,215.04306,67,62,0
215.53824,215.7546,72,62,0
215.53824,215.7546,69,62,0
215.76901,215.98537,74,62,0
215.76901,215.98537,71,62,0
215.99979,216.42767,76,62,0
215.99979,216.42767,72,62,0
216.92287,217.1392,69,62,0
216.92287,217.1392,60,62,0
217.15363,217.36998,72,62,0
217.15363,217.36998,62,62,0
217.3844,218.0767,72,62,0
218.0767,218.29305,71,62,0
217.3844,218.29305,67,62,0
218.76901,218.8796,43,93,0
218.8844,218.99498,48,93,0
218.99979,219.11035,52,93,0
219.11516,219.22574,55,93,0
219.23055,219.34113,48,93,0
219.34593,219.45651,52,93,0
219.46132,219.5719,43,93,0
219.5767,219.68729,48,93,0
219.6921,219.80266,52,93,0
219.80748,219.91805,55,93,0
219.92285,220.03343,48,93,0
220.03824,220.14882,52,93,0
220.15363,220.2642,43,93,0
220.26901,220.3796,47,93,0
220.3844,220.49496,50,93,0
220.49979,220.61035,55,93,0
220.61516,220.72574,43,93,0
220.73055,220.84113,47,93,0
220.84593,220.95651,43,93,0
220.96132,221.0719,47,93,0
221.0767,221.18729,50,93,0
221.1921,221.30266,55,93,0
221.30746,221.41805,43,93,0
221.42285,221.53343,47,93,0
221.53824,221.64882,43,93,0
221.65363,221.7642,48,93,0
221.76901,221.8796,52,93,0
221.8844,221.99496,55,93,0
221.99977,222.11035,48,93,0
222.11516,222.22574,52,93,0
222.23055,222.34113,43,93,0
222.34593,222.45651,48,93,0
222.46132,222.5719,52,93,0
222.5767,222.68727,55,93,0
222.69208,222.80266,48,93,0
222.80746,222.91805,52,93,0
222.92285,223.03343,43,93,0
223.03824,223.14882,47,93,0
223.15363,223.2642,50,93,0
223.26901,223.37958,55,93,0
223.3844,223.49496,43,93,0
223.49977,223.61035,47,93,0
223.61516,223.83151,43,93,0
224.30746,224.73535,67,74,0
224.30746,224.73535,64,74,0
225.23055,225.44688,72,62,0
225.23055,225.44688,64,62,0
225.46132,225.67766,72,62,0
225.46132,225.67766,66,62,0
225.69208,226.11996,71,62,0
225.69208,226.11996,67,62,0
226.61516,226.8315,72,62,0
226.61516,226.8315,69,62,0
226.84593,227.06227,74,62,0
226.84593,227.06227,71,62,0
227.07669,227.50458,76,62,0
227.07669,227.50458,72,62,0
228.4613,229.10074,70,62,0
228.4613,229.10074,61,62,0
229.15361,229.79305,52,75,0
229.15361,229.79305,40,75,0
229.84592,230.06227,50,88,0
229.84592,230.06227,38,88,0
230.53824,230.75458,50,93,0
230.53824,230.75458,38,93,0
231.23055,231.44688,50,93,0
231.23055,231.44688,38,93,0
231.92285,232.13919,50,93,0
231.92285,232.13919,38,93,0
232.38438,232.60072,62,93,0
232.61516,232.93727,67,62,0
232.9613,233.07188,69,62,0
233.07669,233.29303,67,62,0
233.30746,233.73534,66,62,0
233.769,233.98534,66,62,0
233.99977,234.63919,67,62,0
234.69208,235.11996,66,62,0
235.15361,235.36995,65,62,0
235.38438,235.81227,64,62,0
236.53822,236.75458,62,62,0
236.769,237.09111,67,62,0
237.11514,237.22572,69,62,0
237.23053,237.44688,67,62,0
237.4613,237.88919,66,62,0
237.92284,238.13919,66,62,0
238.15361,238.79303,67,62,0
238.84592,239.2738,66,62,0
239.30745,239.53822,65,62,0
239.53822,239.75456,64,62,0
239.99976,240.23053,63,62,0
240.23053,240.44687,62,62,0
240.69206,240.92284,62,62,0
240.92284,241.13918,64,62,0
241.38437,241.61514,63,62,0
241.61514,241.83148,62,62,0
242.07668,242.29303,67,62,0
242.07668,242.29303,59,62,0
242.30745,243.58148,69,62,0
242.30745,243.58148,60,62,0
243.92284,244.13918,71,73,0
243.92284,244.13918,67,73,0
244.1536,244.36995,71,75,0
244.1536,244.36995,67,75,0
244.61514,244.83148,71,78,0
244.61514,244.83148,67,78,0
244.8459,245.06226,71,80,0
244.8459,245.06226,67,80,0
245.30745,245.52379,72,83,0
245.30745,245.52379,66,83,0
245.53822,245.75456,72,85,0
245.53822,245.75456,66,85,0
245.99976,246.2161,72,88,0
245.99976,246.2161,66,88,0
246.23053,246.44687,72,90,0
246.23053,246.44687,66,90,0
246.46129,246.57187,43,92,0
246.57668,246.68726,55,93,0
246.69206,246.80264,54,93,0
246.80745,246.91803,55,93,0
246.92284,247.0334,43,93,0
247.03821,247.14879,55,93,0
247.1536,247.26418,38,93,0
247.26898,247.37956,50,93,0
247.38437,247.49495,49,93,0
247.49976,247.61034,50,93,0
247.61514,247.72571,38,93,0
247.73051,247.8411,50,93,0
247.8459,247.95648,43,93,0
247.96129,248.07187,55,93,0
248.07668,248.18726,54,93,0
248.19206,248.30264,55,93,0
248.30745,248.41801,43,93,0
248.42282,248.5334,55,93,0
248.53821,248.64879,38,93,0
248.6536,248.76418,50,93,0
248.76898,248.87956,49,93,0
248.88437,248.99495,50,93,0
248.99976,249.11032,38,93,0
249.11514,249.22571,50,93,0
249.23051,249.3411,43,93,0
249.3459,249.45648,55,93,0
249.46129,249.57187,54,93,0
249.57668,249.68726,55,93,0
249.69206,249.80263,43,93,0
249.80745,249.91801,55,93,0
249.92282,250.0334,38,93,0
250.03821,250.14879,50,93,0
250.1536,250.26418,49,93,0
250.26898,250.37956,50,93,0
250.38437,250.49495,38,93,0
250.49976,250.61032,50,93,0
250.61513,250.72571,43,93,0
250.73051,250.8411,55,93,0
250.8459,250.95648,54,93,0
250.96129,251.07187,55,93,0
251.07668,251.18726,43,93,0
251.19206,251.30263,55,93,0
251.30743,251.41801,38,93,0
251.42282,251.5334,50,93,0
251.53821,251.64879,49,93,0
251.6536,251.76418,50,93,0
251.76898,251.87956,38,93,0
251.88437,251.99493,50,93,0
251.99974,252.2161,43,93,0
252.46129,252.69206,50,84,0
252.69206,252.9084,43,80,0
253.1536,253.38437,50,72,0
253.38437,253.70648,43,68,0
27.69228,28.370165,57,64,0
243.69206,244.33148,62,64,0
244.38437,245.02379,62,64,0
245.07668,245.7161,62,64,0
245.76898,246.4084,62,64,0
