start_time,end_time,note_value,velocity,instrument_program_number
0.0,0.70854974,73,50,0
0.70854974,0.92164826,74,43,0
0.92164826,1.4308997,73,43,0
1.4308997,2.3756328,76,48,0
2.3756328,2.8590705,76,42,0
2.9127858,3.604774,71,50,0
3.604774,3.8178725,73,45,0
3.8178725,4.3019776,71,45,0
4.3019776,5.2138314,74,49,0
5.2138314,5.672158,74,45,0
5.723083,6.645734,69,53,0
6.645734,7.129839,69,46,0
7.129839,8.05249,71,50,0
8.05249,8.555255,71,46,0
8.555255,9.417076,73,53,0
9.417076,9.639859,76,49,0
9.639859,9.891242,74,47,0
9.417076,9.891242,71,35,0
9.891242,10.847722,69,45,0
9.891242,10.847722,73,53,0
10.847722,11.318269,68,41,0
10.847722,11.318269,71,49,0
11.370552,12.079102,73,50,0
12.079102,12.2922,74,43,0
12.2922,12.801452,73,43,0
12.801452,13.746185,76,48,0
13.746185,14.229623,76,42,0
14.283338,14.975327,71,50,0
14.975327,15.188425,73,45,0
15.188425,15.67253,71,45,0
15.67253,16.584383,74,49,0
16.584383,17.036873,74,45,0
17.087149,18.031881,69,55,0
18.031881,18.528242,71,63,0
18.528242,19.472975,73,68,0
19.472975,20.025257,66,56,0
19.472975,20.025257,74,67,0
19.472975,20.025257,71,56,0
20.025257,21.084953,69,47,0
20.025257,21.084953,73,56,0
20.025257,21.084953,64,47,0
21.084953,21.70736,64,34,0
21.084953,21.70736,68,34,0
21.084953,21.70736,62,34,0
21.084953,21.70736,71,40,0
21.70736,22.827599,61,32,0
21.70736,22.827599,64,32,0
21.70736,22.827599,69,38,0
23.387718,24.096268,73,42,0
24.096268,24.309366,74,36,0
24.309366,24.818619,73,36,0
24.818619,25.763351,76,40,0
25.763351,26.24679,76,35,0
26.300505,26.992493,71,42,0
26.992493,27.205591,73,38,0
27.205591,27.689695,71,38,0
27.689695,28.601551,74,41,0
28.601551,29.059877,74,38,0
29.110802,30.033453,69,45,0
30.033453,30.517557,69,39,0
30.517557,31.440208,71,42,0
31.440208,31.942974,71,39,0
31.942974,32.804794,73,45,0
32.804794,33.027576,76,41,0
33.027576,33.27896,74,39,0
32.804794,33.27896,71,29,0
33.27896,34.23544,69,38,0
33.27896,34.23544,73,45,0
34.23544,34.70599,68,34,0
34.23544,34.70599,71,41,0
34.75827,35.46682,73,50,0
35.46682,35.67992,74,43,0
35.67992,36.18917,73,43,0
36.18917,37.133904,76,48,0
37.133904,37.61734,76,42,0
37.67106,38.363045,71,50,0
38.363045,38.576145,73,45,0
38.576145,39.06025,71,45,0
39.06025,39.972103,74,49,0
39.972103,40.42459,74,45,0
40.47487,41.4196,69,55,0
41.4196,41.915962,71,63,0
41.915962,42.860695,73,68,0
42.860695,43.412975,71,56,0
42.860695,43.412975,74,67,0
42.860695,43.412975,66,56,0
43.412975,44.47267,69,47,0
43.412975,44.47267,64,47,0
43.412975,44.47267,73,56,0
44.47267,45.095078,71,40,0
44.47267,45.095078,64,34,0
44.47267,45.095078,68,34,0
44.47267,45.095078,62,34,0
45.095078,46.215317,61,32,0
45.095078,46.215317,64,32,0
45.095078,46.215317,69,38,0
46.775436,47.44708,76,50,0
47.44708,47.66018,78,45,0
47.66018,48.144283,76,46,0
48.144283,49.013847,78,53,0
49.013847,49.328075,78,42,0
49.390923,49.453766,78,49,0
49.453766,49.516613,80,53,0
49.516613,50.19843,81,57,0
50.19843,50.41153,80,47,0
50.41153,50.895634,78,50,0
50.895634,51.346355,78,53,0
51.346355,51.813137,76,45,0
51.813137,52.059036,76,42,0
52.30494,52.727474,76,59,0
52.727474,53.173042,73,50,0
53.173042,53.291134,69,49,0
53.64541,54.067944,76,61,0
54.067944,54.513508,74,53,0
54.513508,54.6316,71,48,0
54.985874,55.402542,76,62,0
55.402542,55.84811,73,51,0
55.84811,56.312088,69,45,0
56.354267,57.26612,73,44,0
56.354267,57.26612,69,44,0
57.26612,57.77023,71,37,0
57.26612,57.77023,68,37,0
57.82624,58.53479,73,50,0
58.53479,58.74789,74,43,0
58.74789,59.25714,73,43,0
59.25714,60.201874,76,48,0
60.201874,60.68531,76,42,0
60.739025,61.431015,71,50,0
61.431015,61.64411,73,45,0
61.64411,62.12822,71,45,0
62.12822,63.040073,74,49,0
63.040073,63.49256,74,45,0
63.54284,64.48757,69,55,0
64.48757,65.01742,71,63,0
65.01742,65.96215,73,68,0
65.96215,66.484985,74,67,0
65.96215,66.484985,66,56,0
65.96215,66.484985,71,56,0
66.484985,67.44146,69,47,0
66.484985,67.44146,73,56,0
66.484985,67.44146,64,47,0
67.44146,68.00975,64,42,0
67.44146,68.00975,71,50,0
67.44146,68.00975,68,42,0
68.00975,69.05541,68,40,0
68.00975,69.05541,71,47,0
69.05541,69.57824,69,47,0
69.05541,69.57824,73,47,0
68.00975,69.57824,64,40,0
69.57824,70.57096,64,63,0
69.57824,70.57096,69,63,0
69.57824,70.57096,73,75,0
70.57096,71.108116,64,63,0
70.57096,71.108116,68,63,0
70.57096,71.108116,74,75,0
71.108116,72.12576,69,68,0
71.108116,72.12576,76,80,0
71.108116,72.12576,64,68,0
72.12576,72.390686,78,56,0
72.390686,72.52315,80,44,0
72.52315,72.65561,81,46,0
72.65561,73.72992,69,53,0
73.72992,74.02701,73,41,0
74.02701,74.32409,71,39,0
73.72992,74.32409,68,34,0
74.32409,75.51244,69,39,0
76.10662,76.77827,76,50,0
76.77827,76.99136,78,45,0
76.99136,77.47547,76,46,0
77.47547,78.34503,78,53,0
78.34503,78.65926,78,42,0
78.72211,78.78495,78,49,0
78.78495,78.8478,80,53,0
78.8478,79.52962,81,57,0
79.52962,79.742714,80,47,0
79.742714,80.22682,78,50,0
80.22682,80.67754,78,53,0
80.67754,81.144325,76,45,0
81.144325,81.39895,76,42,0
81.65357,82.07611,76,59,0
82.07611,82.521675,73,50,0
82.521675,82.63977,69,49,0
82.99404,83.41658,76,61,0
83.41658,83.862144,74,53,0
83.862144,83.98023,71,48,0
84.33451,84.75704,76,62,0
84.75704,85.202614,73,51,0
85.202614,85.65761,69,45,0
85.698975,86.610825,73,44,0
85.698975,86.610825,69,44,0
86.610825,87.11494,68,37,0
86.610825,87.11494,71,37,0
87.170944,87.87949,73,42,0
87.87949,88.09259,74,36,0
88.09259,88.601845,73,36,0
88.601845,89.54658,76,40,0
89.54658,90.030014,76,35,0
90.08373,90.77572,71,42,0
90.77572,90.988815,73,38,0
90.988815,91.47292,71,38,0
91.47292,92.38477,74,41,0
92.38477,92.837265,74,38,0
92.88754,93.832275,69,55,0
93.832275,94.36212,71,63,0
94.36212,95.306854,73,68,0
95.306854,95.85914,66,56,0
95.306854,95.85914,71,56,0
95.306854,95.85914,74,67,0
95.85914,96.81562,64,54,0
95.85914,96.81562,73,64,0
95.85914,96.81562,69,54,0
96.81562,97.37574,71,57,0
96.81562,97.37574,64,48,0
96.81562,97.37574,68,48,0
97.37574,98.4214,68,51,0
97.37574,98.4214,71,61,0
98.4214,98.965965,69,54,0
98.4214,98.965965,73,54,0
97.37574,98.965965,64,46,0
98.965965,99.97828,69,63,0
98.965965,99.97828,73,75,0
98.965965,99.97828,64,63,0
99.97828,100.54156,68,63,0
99.97828,100.54156,64,63,0
99.97828,100.54156,74,75,0
100.54156,101.68784,76,80,0
100.54156,101.68784,69,68,0
100.54156,101.68784,64,68,0
101.68784,101.969475,78,56,0
101.969475,102.108055,80,44,0
102.108055,102.246635,81,46,0
102.246635,103.369354,69,51,0
103.369354,103.675476,73,36,0
103.675476,104.04133,71,35,0
103.369354,104.04133,68,30,0
104.04133,105.504745,69,35,0
108.668884,108.8433,72,50,0
108.8433,108.9933,73,46,0
109.20626,109.384834,73,45,0
109.384834,109.5634,72,45,0
109.5634,109.75327,73,46,0
109.75327,109.92373,75,50,0
109.92373,110.07007,76,46,0
110.27811,110.45668,76,47,0
110.45668,110.63525,78,50,0
110.63525,110.81172,76,48,0
110.81172,110.98217,76,50,0
110.98217,111.12765,71,47,0
111.35389,111.52732,71,48,0
111.52732,111.70379,70,49,0
111.70379,111.88026,71,50,0
111.88026,112.05883,73,51,0
112.05883,112.20341,74,48,0
112.41299,112.59155,74,49,0
112.59155,112.77013,76,52,0
112.77013,112.90567,74,50,0
112.95085,113.11939,74,53,0
113.11939,113.27324,69,47,0
113.48716,113.665726,69,51,0
113.665726,113.8443,68,52,0
113.8443,114.03417,69,52,0
114.03417,114.20463,70,57,0
114.20463,114.352776,71,50,0
114.575,114.74941,71,52,0
114.74941,114.923836,70,52,0
114.923836,115.10241,71,52,0
115.10241,115.28533,72,61,0
115.28533,115.46826,73,56,0
115.46826,115.66563,72,62,0
115.66563,115.84005,73,54,0
115.84005,116.01515,76,62,0
116.01515,116.1925,74,53,0
116.1925,116.37304,73,56,0
116.37304,116.553764,71,58,0
116.553764,116.73448,69,61,0
116.73448,116.91521,68,64,0
116.91521,117.09593,66,66,0
117.09593,117.2933,64,69,0
117.2933,118.01619,64,64,0
117.2933,118.01619,69,64,0
117.2933,118.01619,73,77,0
118.01619,118.391716,71,64,0
118.01619,118.391716,74,77,0
118.391716,118.75317,72,69,0
118.391716,118.75317,75,82,0
118.75317,119.11461,76,78,0
118.75317,119.11461,73,66,0
119.295334,119.47606,69,64,0
119.295334,119.47606,73,77,0
119.47606,119.8375,68,69,0
119.47606,119.8375,71,82,0
119.47606,119.8375,64,69,0
119.8375,120.19895,68,64,0
119.8375,120.19895,64,64,0
119.8375,120.19895,71,77,0
120.19895,120.5787,64,68,0
120.19895,120.5787,73,80,0
120.19895,120.5787,69,68,0
120.5787,120.93584,73,82,0
120.5787,120.93584,70,69,0
120.93584,121.292984,74,80,0
120.93584,121.292984,71,68,0
120.5787,121.292984,64,69,0
121.478165,121.66335,71,70,0
121.478165,121.66335,68,59,0
121.66335,121.83982,69,76,0
122.0163,122.192764,69,70,0
122.375694,122.43452,71,70,0
122.43452,122.49334,73,68,0
122.49334,122.55216,71,68,0
122.55216,122.640396,69,70,0
122.640396,122.72863,71,70,0
122.72863,122.905106,73,77,0
123.08157,123.26676,73,70,0
123.45194,123.804886,74,73,0
123.45194,123.804886,66,62,0
123.45194,123.804886,71,62,0
123.804886,124.15783,73,76,0
123.804886,124.15783,64,64,0
123.804886,124.15783,69,64,0
124.15783,124.53283,64,62,0
124.15783,124.53283,73,74,0
124.15783,124.53283,69,62,0
124.53283,124.90783,64,61,0
124.53283,124.90783,71,72,0
124.53283,124.90783,62,61,0
124.53283,124.90783,68,61,0
124.90783,125.28283,64,64,0
124.90783,125.28283,61,64,0
124.90783,125.28283,69,76,0
126.03283,126.207245,72,50,0
126.207245,126.34842,73,46,0
126.56444,126.74301,73,45,0
126.74301,126.92158,72,45,0
126.92158,127.1023,73,46,0
127.1023,127.28749,75,50,0
127.28749,127.43383,76,46,0
127.643845,127.82242,76,47,0
127.82242,128.00099,78,50,0
128.00099,128.18617,76,48,0
128.18617,128.35663,76,50,0
128.35663,128.50478,71,47,0
128.72253,128.90326,71,48,0
128.90326,129.07973,70,49,0
129.07973,129.26266,71,50,0
129.26266,129.45016,73,51,0
129.45016,129.60205,74,48,0
129.81148,129.99005,74,49,0
129.99005,130.16862,76,52,0
130.16862,130.30417,74,50,0
130.34935,130.52582,74,53,0
130.52582,130.67966,69,47,0
130.89156,131.07013,69,51,0
131.07013,131.2487,68,52,0
131.2487,131.4362,69,52,0
131.4362,131.60666,70,57,0
131.60666,131.7548,71,50,0
131.96329,132.13771,71,52,0
132.13771,132.31212,70,52,0
132.31212,132.49284,71,52,0
132.49284,132.67577,72,61,0
132.67577,132.8587,73,56,0
132.8587,133.0535,72,62,0
133.0535,133.22792,73,54,0
133.22792,133.40303,76,62,0
133.40303,133.58037,74,53,0
133.58037,133.76091,73,56,0
133.76091,133.94164,71,58,0
133.94164,134.12236,69,61,0
134.12236,134.30309,68,64,0
134.30309,134.48381,66,66,0
134.48381,134.68117,64,69,0
134.68117,135.40407,69,64,0
134.68117,135.40407,73,77,0
134.68117,135.40407,64,64,0
135.40407,135.7796,74,77,0
135.40407,135.7796,71,64,0
135.7796,136.14104,72,69,0
135.7796,136.14104,75,82,0
136.14104,136.50249,76,78,0
136.14104,136.50249,73,66,0
136.68321,136.86394,73,77,0
136.68321,136.86394,69,64,0
136.86394,137.22537,64,69,0
136.86394,137.22537,71,82,0
136.86394,137.22537,68,69,0
137.22537,137.58682,68,64,0
137.22537,137.58682,64,64,0
137.22537,137.58682,71,77,0
137.58682,137.96657,73,80,0
137.58682,137.96657,69,68,0
137.58682,137.96657,64,68,0
137.96657,138.32372,70,69,0
137.96657,138.32372,73,82,0
138.32372,138.68086,71,68,0
138.32372,138.68086,74,80,0
137.96657,138.68086,64,69,0
138.86604,139.05122,71,70,0
138.86604,139.05122,68,59,0
139.05122,139.22769,69,76,0
139.40417,139.58064,69,70,0
139.76357,139.82239,71,70,0
139.82239,139.88121,73,68,0
139.88121,139.94003,71,68,0
139.94003,140.02827,69,70,0
140.02827,140.1165,71,70,0
140.1165,140.29298,73,77,0
140.46945,140.65463,73,70,0
140.83981,141.19276,66,62,0
140.83981,141.19276,71,62,0
140.83981,141.19276,74,73,0
141.19276,141.5457,64,64,0
141.19276,141.5457,69,64,0
141.19276,141.5457,73,76,0
141.5457,141.9207,69,62,0
141.5457,141.9207,73,74,0
141.5457,141.9207,64,62,0
141.9207,142.2957,71,72,0
141.9207,142.2957,62,61,0
141.9207,142.2957,64,61,0
141.9207,142.2957,68,61,0
142.2957,142.6707,69,76,0
142.2957,142.6707,64,64,0
142.2957,142.6707,61,64,0
143.4207,143.59512,75,50,0
143.59512,143.74512,76,46,0
143.95605,144.13463,76,45,0
144.13463,144.31319,75,45,0
144.31319,144.50307,76,46,0
144.50307,144.67352,77,50,0
144.67352,144.81987,78,46,0
145.02988,145.20845,78,47,0
145.20845,145.38702,77,50,0
145.38702,145.56349,78,48,0
145.56349,145.74103,80,55,0
145.74103,145.8865,81,47,0
145.92287,146.09729,79,55,0
146.09729,146.24637,80,48,0
146.28365,146.46011,77,55,0
146.46011,146.60469,78,47,0
146.64084,146.82376,75,55,0
146.82376,146.97377,76,46,0
147.19876,147.36543,76,55,0
147.38396,147.55061,76,57,0
147.56914,147.74913,76,58,0
147.76913,147.95432,76,72,0
147.95432,148.13951,73,64,0
148.13951,148.32469,69,59,0
148.32469,148.49136,76,57,0
148.50987,148.67654,76,59,0
148.69507,148.8727,76,61,0
148.89243,149.07762,76,70,0
149.07762,149.2628,74,62,0
149.2628,149.44798,68,58,0
149.44798,149.61465,76,59,0
149.63318,149.79984,76,62,0
149.81836,149.99599,76,64,0
150.01573,150.20091,76,69,0
150.20091,150.3861,73,63,0
150.3861,150.59737,69,48,0
150.59737,150.78487,76,52,0
150.78487,150.97968,73,51,0
150.97968,151.19707,69,49,0
151.19707,152.00787,69,43,0
151.19707,152.00787,73,51,0
152.00787,152.41327,68,39,0
152.00787,152.41327,71,47,0
152.41327,152.58769,72,50,0
152.58769,152.7377,73,46,0
152.94862,153.1272,73,45,0
153.1272,153.30577,72,45,0
153.30577,153.50847,73,46,0
153.50847,153.67892,75,50,0
153.67892,153.81847,76,46,0
154.03192,154.21048,76,47,0
154.21048,154.38905,78,50,0
154.38905,154.52795,76,48,0
154.57425,154.7447,76,50,0
154.7447,154.89659,71,47,0
155.1153,155.29602,71,48,0
155.29602,155.47675,70,49,0
155.47675,155.66425,71,50,0
155.66425,155.84717,73,51,0
155.84717,156.001,74,48,0
156.23178,156.41035,74,49,0
156.41035,156.58893,76,52,0
156.58893,156.73503,74,50,0
156.78374,156.95227,74,53,0
156.95227,157.10611,69,47,0
157.33446,157.51302,69,51,0
157.51302,157.69159,73,52,0
157.69159,157.86807,71,52,0
157.86807,158.03851,74,57,0
158.03851,158.18666,73,50,0
158.40889,158.58331,73,52,0
158.58331,158.76189,76,57,0
158.76189,158.9542,74,54,0
158.9542,159.13277,72,60,0
159.13277,159.2866,73,54,0
159.51494,159.69351,73,55,0
159.69351,159.87209,74,59,0
159.87209,160.07756,71,54,0
160.07756,160.66197,71,60,0
160.66197,160.85678,72,59,0
160.07756,160.85678,68,48,0
160.85678,161.26775,73,64,0
160.85678,161.26775,69,51,0
161.26775,161.54213,64,64,0
161.26775,161.54213,69,64,0
161.26775,161.54213,73,76,0
161.63359,161.90799,64,64,0
161.63359,161.90799,69,64,0
161.63359,161.90799,73,76,0
161.99945,162.28654,68,60,0
161.99945,162.28654,74,71,0
161.99945,162.28654,64,60,0
162.39072,162.6651,76,75,0
162.39072,162.6651,69,63,0
162.39072,162.6651,64,63,0
162.75656,163.04819,69,57,0
162.75656,163.04819,76,68,0
163.15688,163.35168,69,61,0
163.15688,163.35168,78,72,0
163.35168,163.46362,80,68,0
163.46362,163.57556,81,68,0
163.57556,163.94594,64,64,0
163.57556,163.94594,61,64,0
163.57556,163.94594,69,76,0
163.94594,164.34593,69,74,0
163.94594,164.34593,61,62,0
163.94594,164.34593,64,62,0
164.34593,164.74594,62,61,0
164.34593,164.74594,64,61,0
164.34593,164.74594,68,61,0
164.34593,164.74594,71,72,0
164.74594,165.14594,61,64,0
164.74594,165.14594,69,76,0
164.74594,165.14594,64,64,0
165.94594,166.12036,75,50,0
166.12036,166.27036,76,46,0
166.4854,166.66397,76,45,0
166.66397,166.84253,75,45,0
166.84253,167.03241,76,46,0
167.03241,167.20287,77,50,0
167.20287,167.3492,78,46,0
167.55724,167.73581,78,47,0
167.73581,167.91438,77,50,0
167.91438,168.09085,78,48,0
168.09085,168.26428,80,55,0
168.26428,168.41428,81,47,0
168.45178,168.6262,79,55,0
168.6262,168.78004,80,48,0
168.81851,168.99498,77,55,0
168.99498,169.13956,78,47,0
169.1757,169.35863,75,55,0
169.35863,169.50862,76,46,0
169.73363,169.9003,76,55,0
169.91881,170.08548,76,57,0
170.104,170.284,76,58,0
170.304,170.48918,76,72,0
170.48918,170.67436,73,64,0
170.67436,170.85956,69,59,0
170.85956,171.02621,76,57,0
171.04474,171.21141,76,59,0
171.22992,171.40756,76,61,0
171.42729,171.61247,76,70,0
171.61247,171.79767,74,62,0
171.79767,171.98285,68,58,0
171.98285,172.14952,76,59,0
172.16803,172.3347,76,62,0
172.35323,172.53085,76,64,0
172.55058,172.73578,76,69,0
172.73578,172.92096,73,63,0
172.92096,173.13223,69,48,0
173.13223,173.31973,76,52,0
173.31973,173.51453,73,51,0
173.51453,173.73192,69,49,0
173.73192,174.54274,69,43,0
173.73192,174.54274,73,51,0
174.54274,174.94814,68,39,0
174.54274,174.94814,71,47,0
174.94814,175.12256,72,50,0
175.12256,175.27255,73,46,0
175.48552,175.6641,73,45,0
175.6641,175.84267,72,45,0
175.84267,176.04536,73,46,0
176.04536,176.21582,75,50,0
176.21582,176.36215,76,46,0
176.57217,176.75075,76,47,0
176.75075,176.92932,78,50,0
176.92932,177.0682,76,48,0
177.1145,177.28496,76,50,0
177.28496,177.43686,71,47,0
177.65555,177.83627,71,48,0
177.83627,178.017,70,49,0
178.017,178.19772,71,50,0
178.19772,178.38065,73,51,0
178.38065,178.5345,74,48,0
178.76526,178.94383,74,49,0
178.94383,179.1224,76,52,0
179.1224,179.26851,74,50,0
179.31721,179.48575,74,53,0
179.48575,179.6396,69,47,0
179.86794,180.04651,69,51,0
180.04651,180.22508,73,52,0
180.22508,180.40155,71,52,0
180.40155,180.572,74,57,0
180.572,180.72015,73,50,0
180.94237,181.11679,73,52,0
181.11679,181.29536,76,57,0
181.29536,181.48767,74,54,0
181.48767,181.66624,72,60,0
181.66624,181.82008,73,54,0
182.04842,182.22699,73,55,0
182.22699,182.40556,74,59,0
182.40556,182.61104,71,54,0
182.61104,183.19547,71,60,0
183.19547,183.39027,72,59,0
182.61104,183.39027,68,48,0
183.39027,183.80122,73,64,0
183.39027,183.80122,69,51,0
183.80122,184.07562,69,64,0
183.80122,184.07562,64,64,0
183.80122,184.07562,73,76,0
184.16708,184.44147,73,76,0
184.16708,184.44147,64,64,0
184.16708,184.44147,69,64,0
184.53293,184.8294,68,60,0
184.53293,184.8294,64,60,0
184.53293,184.8294,74,71,0
184.93358,185.22203,64,63,0
184.93358,185.22203,76,75,0
184.93358,185.22203,69,63,0
185.31819,185.62079,69,57,0
185.31819,185.62079,76,68,0
185.73108,185.93379,69,61,0
185.73108,185.93379,78,72,0
185.93379,186.04742,80,68,0
186.04742,186.16106,81,68,0
186.16106,186.56107,61,64,0
186.16106,186.56107,64,64,0
186.16106,186.56107,69,76,0
186.56107,186.98964,61,62,0
186.56107,186.98964,69,74,0
186.56107,186.98964,64,62,0
186.98964,187.45839,62,61,0
186.98964,187.45839,64,61,0
186.98964,187.45839,71,72,0
186.98964,187.45839,68,61,0
187.45839,187.92714,61,64,0
187.45839,187.92714,64,64,0
187.45839,187.92714,69,76,0
191.67714,191.76537,73,53,0
192.03008,192.1183,73,49,0
192.38947,192.44829,74,49,0
192.44829,192.50711,76,47,0
192.50711,192.56593,74,47,0
192.56593,192.65417,73,49,0
192.65417,192.74242,74,49,0
192.74242,193.09535,76,53,0
193.45879,193.55331,78,53,0
193.54463,193.64095,76,52,0
193.63211,193.73001,74,51,0
193.72101,193.82086,73,49,0
193.81204,193.90027,71,53,0
194.16498,194.25322,71,49,0
194.52438,194.5832,73,49,0
194.5832,194.64203,74,47,0
194.64203,194.70085,73,47,0
194.70085,194.78908,71,49,0
194.78908,194.87732,73,49,0
194.87732,195.23026,74,53,0
195.59369,195.68823,76,53,0
195.67953,195.77585,74,52,0
195.76703,195.86493,73,51,0
195.85593,195.95576,71,49,0
195.94695,196.03519,69,53,0
196.29988,196.38812,69,49,0
196.65929,196.71811,69,49,0
196.71811,196.77693,71,47,0
196.77693,196.83575,69,47,0
196.83575,196.924,68,49,0
196.924,197.01222,69,49,0
197.01222,197.10046,71,53,0
197.36517,197.4534,71,49,0
197.72456,197.78339,71,49,0
197.78339,197.84221,73,47,0
197.84221,197.90103,71,47,0
197.90103,197.98927,69,49,0
197.98927,198.0775,71,49,0
198.0775,198.16574,73,58,0
198.43045,198.51868,73,54,0
198.80173,198.88995,76,61,0
198.88995,199.18367,74,51,0
198.80173,199.18367,71,61,0
199.18367,199.92441,73,55,0
199.18367,199.92441,69,55,0
199.92441,200.29478,68,53,0
199.92441,200.29478,71,53,0
200.29478,200.43596,73,74,0
200.41243,200.5536,69,53,0
200.53008,200.64772,64,53,0
200.64772,200.7889,73,72,0
200.76537,200.90956,69,53,0
200.88516,201.00713,64,53,0
201.00713,201.1483,74,71,0
201.12477,201.26595,71,53,0
201.24242,201.36006,64,53,0
201.36006,201.50124,76,70,0
201.4777,201.61888,73,53,0
201.59535,201.713,64,53,0
201.713,201.85417,76,71,0
201.83064,201.97807,73,53,0
201.95276,202.07643,64,53,0
202.07643,202.16228,78,68,0
202.16228,202.24977,76,66,0
202.24977,202.33867,74,64,0
202.33867,202.42969,73,62,0
202.42969,202.57086,71,74,0
202.54733,202.6885,68,53,0
202.66498,202.78262,64,53,0
202.78262,202.92381,71,72,0
202.90028,203.04446,68,53,0
203.02008,203.14203,64,53,0
203.14203,203.2832,73,71,0
203.25967,203.40085,69,53,0
203.37732,203.49496,64,53,0
203.49496,203.63614,74,70,0
203.61261,203.75378,71,53,0
203.73026,203.84792,64,53,0
203.84792,203.98909,74,71,0
203.96556,204.11299,71,53,0
204.08768,204.21133,64,53,0
204.21133,204.2972,76,68,0
204.2972,204.38467,74,66,0
204.38467,204.47357,73,64,0
204.47357,204.56459,71,62,0
204.56459,204.70576,69,74,0
204.68224,204.82343,64,53,0
204.7999,204.91754,61,53,0
204.91754,205.05872,69,72,0
205.03519,205.17636,64,53,0
205.15283,205.27048,61,53,0
205.27048,205.4053,71,71,0
205.38284,205.51767,64,53,0
205.4952,205.60756,62,53,0
205.60756,205.74873,73,74,0
205.7252,205.86638,69,53,0
205.84285,205.9605,64,53,0
205.9605,206.10167,73,72,0
206.07814,206.21931,69,53,0
206.19579,206.31343,64,53,0
206.31343,206.45297,74,71,0
206.42972,206.56926,71,53,0
206.54599,206.66228,66,53,0
206.66228,206.80345,73,74,0
206.77992,206.9211,69,53,0
206.89757,207.01521,64,53,0
207.01521,207.15639,73,72,0
207.13286,207.27403,69,53,0
207.2505,207.36816,64,53,0
207.36816,207.50934,71,71,0
207.48581,207.62698,68,53,0
207.60345,207.7211,62,53,0
207.7211,207.86925,69,74,0
207.84456,207.9927,64,53,0
207.96802,208.11617,61,53,0
208.09148,208.27666,57,72,0
208.83221,208.92044,73,53,0
209.18515,209.27339,73,49,0
209.54456,209.60338,74,49,0
209.60338,209.6622,76,47,0
209.6622,209.72102,74,47,0
209.72102,209.80925,73,49,0
209.80925,209.89749,74,49,0
209.89749,210.25043,76,53,0
210.61386,210.70839,78,53,0
210.6997,210.79602,76,52,0
210.78719,210.88509,74,51,0
210.8761,210.97594,73,49,0
210.96712,211.05536,71,53,0
211.32005,211.4083,71,49,0
211.67946,211.73828,73,49,0
211.73828,211.7971,74,47,0
211.7971,211.85593,73,47,0
211.85593,211.94417,71,49,0
211.94417,212.0324,73,49,0
212.0324,212.38533,74,53,0
212.74876,212.8433,76,53,0
212.83461,212.93092,74,52,0
212.9221,213.02,73,51,0
213.011,213.11084,71,49,0
213.10202,213.19026,69,53,0
213.45497,213.5432,69,49,0
213.81436,213.87318,69,49,0
213.87318,213.932,71,47,0
213.932,213.99083,69,47,0
213.99083,214.07907,68,49,0
214.07907,214.1673,69,49,0
214.1673,214.25554,71,53,0
214.52025,214.60847,71,49,0
214.87964,214.93846,71,49,0
214.93846,214.99728,73,47,0
214.99728,215.0561,71,47,0
215.0561,215.14435,69,49,0
215.14435,215.23257,71,49,0
215.23257,215.32082,73,58,0
215.58553,215.67375,73,54,0
215.9568,216.04503,76,61,0
216.04503,216.33875,74,51,0
215.9568,216.33875,71,61,0
216.33875,217.07948,73,55,0
216.33875,217.07948,69,55,0
217.07948,217.44986,68,53,0
217.07948,217.44986,71,53,0
217.44986,217.59103,73,74,0
217.5675,217.70868,69,53,0
217.68515,217.8028,64,53,0
217.8028,217.94398,73,72,0
217.92044,218.06464,69,53,0
218.04025,218.1622,64,53,0
218.1622,218.30338,74,71,0
218.27985,218.42102,71,53,0
218.39603,218.51367,64,53,0
218.51514,218.65631,76,70,0
218.63278,218.77396,73,53,0
218.75043,218.86809,64,53,0
218.86809,219.00926,76,71,0
218.98573,219.13316,73,53,0
219.10785,219.2315,64,53,0
219.2315,219.31735,78,68,0
219.31735,219.40485,76,66,0
219.40485,219.49374,74,64,0
219.49374,219.58476,73,62,0
219.58476,219.72594,71,74,0
219.70241,219.8436,68,53,0
219.82007,219.93771,64,53,0
219.93771,220.07889,71,72,0
220.05536,220.19954,68,53,0
220.17516,220.2971,64,53,0
220.2971,220.43828,73,71,0
220.41475,220.55592,69,53,0
220.5324,220.65004,64,53,0
220.65004,220.79123,74,70,0
220.7677,220.90887,71,53,0
220.88535,221.00299,64,53,0
221.00299,221.14417,74,71,0
221.12064,221.26807,71,53,0
221.24275,221.36642,64,53,0
221.36642,221.45227,76,68,0
221.45227,221.53975,74,66,0
221.53975,221.62865,73,64,0
221.62865,221.71968,71,62,0
221.71968,221.86086,69,74,0
221.83733,221.9785,64,53,0
221.95497,222.07262,61,53,0
222.07262,222.21379,69,72,0
222.19026,222.33144,64,53,0
222.3079,222.42555,61,53,0
222.42555,222.5604,71,71,0
222.53792,222.67274,64,53,0
222.65027,222.76263,62,53,0
222.76263,222.90381,73,74,0
222.88028,223.02145,69,53,0
222.99792,223.11557,64,53,0
223.11557,223.25674,73,72,0
223.23322,223.3744,69,53,0
223.35088,223.46852,64,53,0
223.46852,223.60805,74,71,0
223.5848,223.72433,71,53,0
223.70108,223.81735,66,53,0
223.81735,223.95853,73,74,0
223.935,224.07617,69,53,0
224.05264,224.17029,64,53,0
224.17029,224.31148,73,72,0
224.28795,224.42912,69,53,0
224.4056,224.52324,64,53,0
224.52324,224.66441,71,71,0
224.64088,224.78206,68,53,0
224.75853,224.87617,62,53,0
224.87617,225.02432,69,74,0
224.99963,225.14778,64,53,0
225.1231,225.27124,61,53,0
225.24655,225.43173,57,72,0
225.98729,226.07988,76,50,0
226.35765,226.45026,74,48,0
226.72803,226.8267,76,50,0
227.12277,227.30795,78,50,0
227.86351,227.8973,78,50,0
227.8973,227.93108,80,44,0
227.93108,227.96486,78,44,0
227.96486,228.06621,76,50,0
228.06621,228.16756,78,49,0
228.16756,228.2689,80,49,0
228.2689,228.45879,81,56,0
228.64867,228.74359,80,52,0
229.02841,229.12334,78,50,0
229.40816,229.59334,76,50,0
230.1489,230.18268,73,50,0
230.18268,230.21646,74,44,0
230.21646,230.25024,73,44,0
230.25024,230.3516,71,50,0
230.3516,230.45294,73,51,0
230.45294,230.5543,74,55,0
230.5543,230.93405,76,60,0
230.93405,231.02898,73,58,0
231.61784,231.7192,69,58,0
231.7192,232.09895,76,65,0
232.09895,232.19388,74,59,0
232.78275,232.8841,71,66,0
232.8841,233.26384,76,73,0
233.26384,233.68639,73,66,0
233.68639,233.80002,69,50,0
234.14093,235.0105,69,50,0
234.14093,235.0105,73,50,0
235.0105,235.44527,68,46,0
235.0105,235.44527,71,46,0
235.44527,235.53351,73,53,0
235.79822,235.88644,73,49,0
236.15761,236.21643,74,49,0
236.21643,236.27525,76,47,0
236.27525,236.33408,74,47,0
236.33408,236.42232,73,49,0
236.42232,236.51056,74,49,0
236.51056,236.8635,76,53,0
237.22693,237.32146,78,53,0
237.31277,237.40907,76,52,0
237.40025,237.49815,74,51,0
237.48915,237.589,73,49,0
237.58018,237.66841,71,53,0
237.93312,238.02136,71,49,0
238.29253,238.35135,73,49,0
238.35135,238.41017,74,47,0
238.41017,238.469,73,47,0
238.469,238.55722,71,49,0
238.55722,238.64546,73,49,0
238.64546,238.9984,74,53,0
239.36183,239.45636,76,53,0
239.44768,239.54399,74,52,0
239.53516,239.63306,73,51,0
239.62407,239.7239,71,49,0
239.71509,239.80333,69,53,0
240.06802,240.15627,69,49,0
240.42743,240.48625,71,49,0
240.48625,240.54507,73,47,0
240.54507,240.6039,71,47,0
240.6039,240.69214,69,49,0
240.69214,240.78036,71,49,0
240.78036,240.8686,73,53,0
241.1333,241.22154,73,49,0
241.4927,241.55153,74,49,0
241.55153,241.61035,76,47,0
241.61035,241.66917,74,47,0
241.66917,241.75742,73,49,0
241.75742,241.84564,74,49,0
241.84564,241.93388,73,53,0
242.1986,242.28682,73,49,0
242.55798,242.6168,71,49,0
242.6168,242.67563,73,47,0
242.67563,242.73445,71,47,0
242.73445,242.8227,69,49,0
242.8227,242.91092,71,49,0
242.91092,243.29066,71,53,0
243.29066,243.67043,72,55,0
242.91092,243.67043,68,45,0
243.67043,244.05017,73,56,0
243.67043,244.05017,69,47,0
244.05017,244.19135,73,74,0
244.16782,244.30899,69,53,0
244.28546,244.4031,64,53,0
244.4031,244.54428,73,72,0
244.52075,244.66193,69,53,0
244.6384,244.75604,64,53,0
244.75604,244.89088,74,71,0
244.86841,245.00323,68,53,0
244.98077,245.09312,64,53,0
245.09312,245.2343,76,74,0
245.21077,245.35194,73,53,0
245.32841,245.44606,69,53,0
245.44606,245.58725,76,72,0
245.56372,245.7049,73,53,0
245.68137,245.79901,69,53,0
245.79901,245.93854,78,71,0
245.91528,246.05482,71,53,0
246.03157,246.14784,69,53,0
246.14784,246.28902,73,74,0
246.26549,246.40666,69,53,0
246.38313,246.5008,64,53,0
246.5008,246.64197,73,72,0
246.61844,246.75961,69,53,0
246.73608,246.85373,64,53,0
246.85373,246.9949,71,71,0
246.97137,247.11255,68,53,0
247.08902,247.20667,62,53,0
247.20667,247.35481,69,74,0
247.33012,247.47827,64,53,0
247.45358,247.60173,61,53,0
247.57704,247.76222,57,72,0
248.31778,248.41037,76,50,0
248.68816,248.78075,74,48,0
249.05852,249.15721,76,50,0
249.45326,249.63844,78,50,0
250.194,250.22778,78,50,0
250.22778,250.26157,80,44,0
250.26157,250.29535,78,44,0
250.29535,250.3967,76,50,0
250.3967,250.49805,78,49,0
250.49805,250.59941,80,49,0
250.59941,250.78928,81,56,0
250.97916,251.07408,80,52,0
251.3589,251.45384,78,50,0
251.73865,251.92383,76,50,0
252.47939,252.51317,73,50,0
252.51317,252.54695,74,44,0
252.54695,252.58073,73,44,0
252.58073,252.68208,71,50,0
252.68208,252.78345,73,51,0
252.78345,252.8848,74,55,0
252.8848,253.26454,76,60,0
253.26454,253.35948,73,58,0
253.94833,254.0497,69,58,0
254.0497,254.42944,76,65,0
254.42944,254.52437,74,59,0
255.11324,255.21458,71,66,0
255.21458,255.59435,76,73,0
255.59435,256.01688,73,66,0
256.01688,256.13052,69,50,0
256.4714,257.34097,73,50,0
256.4714,257.34097,69,50,0
257.34097,257.77576,68,46,0
257.34097,257.77576,71,46,0
257.77576,257.864,73,53,0
258.1287,258.21695,73,49,0
258.4881,258.54694,74,49,0
258.54694,258.60574,76,47,0
258.60574,258.66458,74,47,0
258.66458,258.7528,73,49,0
258.7528,258.84103,74,49,0
258.84103,259.194,76,53,0
259.5574,259.65195,78,53,0
259.64328,259.73956,76,52,0
259.73074,259.82864,74,51,0
259.81964,259.9195,73,49,0
259.91068,259.9989,71,53,0
260.2636,260.35184,71,49,0
260.62302,260.68182,73,49,0
260.68182,260.74066,74,47,0
260.74066,260.79947,73,47,0
260.79947,260.88773,71,49,0
260.88773,260.97595,73,49,0
260.97595,261.3289,74,53,0
261.69232,261.78687,76,53,0
261.77817,261.87448,74,52,0
261.86566,261.96356,73,51,0
261.95456,262.0544,71,49,0
262.0456,262.13382,69,53,0
262.39853,262.48676,69,49,0
262.7579,262.81674,71,49,0
262.81674,262.87558,73,47,0
262.87558,262.9344,71,47,0
262.9344,263.0226,69,49,0
263.0226,263.11087,71,49,0
263.11087,263.1991,73,53,0
263.4638,263.55203,73,49,0
263.8232,263.88202,74,49,0
263.88202,263.94086,76,47,0
263.94086,263.99966,74,47,0
263.99966,264.0879,73,49,0
264.0879,264.17615,74,49,0
264.17615,264.26437,73,53,0
264.52908,264.6173,73,49,0
264.8885,264.9473,71,49,0
264.9473,265.00613,73,47,0
265.00613,265.06494,71,47,0
265.06494,265.15317,69,49,0
265.15317,265.24142,71,49,0
265.24142,265.62115,71,53,0
265.62115,266.00092,72,55,0
265.24142,266.00092,68,45,0
266.00092,266.38065,69,47,0
266.00092,266.38065,73,56,0
266.38065,266.52182,73,74,0
266.4983,266.6395,69,53,0
266.61597,266.7336,64,53,0
266.7336,266.8748,73,72,0
266.85126,266.99243,69,53,0
266.9689,267.08655,64,53,0
267.08655,267.22137,74,71,0
267.1989,267.33374,68,53,0
267.31125,267.4236,64,53,0
267.4236,267.5648,76,74,0
267.54126,267.68243,73,53,0
267.6589,267.77655,69,53,0
267.77655,267.91772,76,72,0
267.8942,268.03537,73,53,0
268.01184,268.1295,69,53,0
268.1295,268.2795,78,71,0
268.2545,268.4045,71,53,0
268.3795,268.5045,69,53,0
268.5045,268.64908,73,74,0
268.62497,268.76956,69,53,0
268.74545,268.86594,64,53,0
268.86594,269.01053,73,72,0
268.98642,269.131,69,53,0
269.1069,269.2274,64,53,0
269.2274,269.38123,71,71,0
269.3556,269.50943,68,53,0
269.4838,269.612,62,53,0
269.612,269.7787,69,74,0
269.7509,269.91757,64,53,0
269.8898,270.05646,61,53,0
270.0287,270.237,57,72,0
273.362,273.69534,72,50,0
273.69534,273.98947,71,47,0
273.98947,274.2725,69,50,0
274.2725,274.5666,71,46,0
274.5666,274.8496,72,47,0
274.8496,275.14963,74,48,0
275.14963,275.45575,76,50,0
275.45575,275.7442,75,46,0
275.7442,276.0442,77,55,0
276.0442,276.32196,76,53,0
276.32196,276.6161,74,51,0
276.6161,276.94943,72,48,0
276.94943,277.2686,71,50,0
277.2686,277.56857,69,47,0
277.56857,277.84634,68,50,0
277.84634,278.12936,69,46,0
278.12936,278.4235,71,47,0
278.4235,278.71762,72,48,0
278.71762,279.0176,74,50,0
279.0176,279.29538,73,46,0
279.29538,279.58383,76,54,0
279.58383,279.85657,74,52,0
279.85657,280.1507,72,51,0
280.1507,280.4448,71,49,0
280.4448,280.7573,69,50,0
280.7573,281.0351,76,47,0
281.0351,281.32355,75,50,0
281.32355,281.612,76,46,0
281.612,281.91202,72,47,0
281.91202,282.212,69,48,0
282.212,282.5381,68,50,0
282.5381,282.8159,76,46,0
282.8159,283.11,77,55,0
283.11,283.38776,76,53,0
283.38776,283.6819,74,51,0
283.6819,284.02414,71,48,0
284.03903,284.3651,71,50,0
284.3651,284.66513,69,47,0
284.66513,284.96512,68,50,0
284.96512,285.2651,69,46,0
285.2651,285.58426,71,47,0
285.58426,285.9146,72,48,0
285.9414,287.2394,69,41,0
285.9414,287.2394,72,41,0
287.2394,287.8916,71,41,0
287.2394,287.8916,68,41,0
287.8916,288.2249,72,44,0
287.8916,288.2249,84,53,0
288.2249,288.51904,83,48,0
288.2249,288.51904,71,40,0
288.51904,288.80206,81,55,0
288.51904,288.80206,69,46,0
288.80206,289.0962,83,52,0
288.80206,289.0962,71,44,0
289.0962,289.3903,84,55,0
289.0962,289.3903,72,47,0
289.3903,289.6903,74,43,0
289.3903,289.6903,86,52,0
289.6903,289.99643,88,63,0
289.6903,289.99643,76,53,0
289.99643,290.28488,75,43,0
289.99643,290.28488,87,58,0
290.28488,290.5679,89,63,0
290.28488,290.5679,77,53,0
290.5679,290.85635,76,50,0
290.5679,290.85635,88,60,0
290.85635,291.15048,74,54,0
290.85635,291.15048,86,64,0
291.15048,291.48383,84,57,0
291.15048,291.48383,72,48,0
291.48383,291.80295,71,56,0
291.48383,291.80295,83,66,0
291.80295,292.10297,69,49,0
291.80295,292.10297,81,58,0
292.10297,292.39142,80,64,0
292.10297,292.39142,68,54,0
292.39142,292.67444,69,49,0
292.39142,292.67444,81,58,0
292.67444,292.96857,71,54,0
292.67444,292.96857,83,64,0
292.96857,293.26266,72,51,0
292.96857,293.26266,84,60,0
293.26266,293.56268,86,66,0
293.26266,293.56268,74,49,0
293.56268,293.84045,73,45,0
293.56268,293.84045,85,60,0
293.84045,294.1289,88,71,0
293.84045,294.1289,76,60,0
294.1289,294.40164,74,57,0
294.1289,294.40164,86,68,0
294.40164,294.69577,72,55,0
294.40164,294.69577,84,65,0
294.69577,294.98987,71,52,0
294.69577,294.98987,83,62,0
294.98987,295.296,81,65,0
294.98987,295.296,69,55,0
295.296,295.59012,80,60,0
295.296,295.59012,68,51,0
295.59012,295.87857,69,56,0
295.59012,295.87857,81,66,0
295.87857,296.16705,72,51,0
295.87857,296.16705,84,60,0
296.16705,296.46704,83,63,0
296.16705,296.46704,71,53,0
296.46704,296.76703,74,53,0
296.46704,296.76703,86,63,0
296.76703,297.07315,84,66,0
296.76703,297.07315,72,56,0
297.07315,297.36163,71,51,0
297.07315,297.36163,83,60,0
297.36163,297.65573,84,71,0
297.36163,297.65573,72,60,0
297.65573,297.9442,76,56,0
297.65573,297.9442,88,67,0
297.9442,298.2383,86,65,0
297.9442,298.2383,74,55,0
298.2383,298.59546,77,55,0
298.2383,298.59546,89,65,0
298.59546,298.90796,76,56,0
298.59546,298.90796,88,67,0
298.90796,299.22046,75,50,0
298.90796,299.22046,87,59,0
299.22046,299.5396,88,66,0
299.22046,299.5396,76,56,0
299.5396,299.87296,64,51,0
299.5396,299.87296,76,60,0
299.87296,300.21387,78,63,0
299.87296,300.21387,66,53,0
300.21387,300.60858,68,53,0
300.21387,300.60858,80,63,0
300.60858,302.0404,81,63,0
300.60858,302.0404,69,53,0
302.7904,303.12375,72,50,0
303.12375,303.4122,71,47,0
303.4122,303.69522,69,50,0
303.69522,303.98935,71,46,0
303.98935,304.27237,72,47,0
304.27237,304.57236,74,48,0
304.57236,304.8608,76,50,0
304.8608,305.1493,75,46,0
305.1493,305.43774,77,55,0
305.43774,305.7155,76,53,0
305.7155,306.00964,74,51,0
306.00964,306.343,72,48,0
306.343,306.6621,71,50,0
306.6621,306.96213,69,47,0
306.96213,307.2399,68,50,0
307.2399,307.52292,69,46,0
307.52292,307.81705,71,47,0
307.81705,308.11115,72,48,0
308.11115,308.39417,74,50,0
308.39417,308.67197,73,46,0
308.67197,308.96606,76,54,0
308.96606,309.2388,74,52,0
309.2388,309.53293,72,51,0
309.53293,309.82703,71,49,0
309.82703,310.13953,69,50,0
310.13953,310.4173,76,47,0
310.4173,310.70578,75,50,0
310.70578,310.99423,76,46,0
310.99423,311.29422,72,47,0
311.29422,311.59424,69,48,0
311.59424,311.92032,68,50,0
311.92032,312.1981,76,46,0
312.1981,312.48657,77,55,0
312.48657,312.76434,76,53,0
312.76434,313.05844,74,51,0
313.05844,313.38287,71,48,0
313.4156,313.7417,71,50,0
313.7417,314.0417,69,47,0
314.0417,314.33014,68,50,0
314.33014,314.63016,69,46,0
314.63016,314.94928,71,47,0
314.94928,315.27667,72,48,0
315.30643,316.60443,69,41,0
315.30643,316.60443,72,41,0
316.60443,317.25662,71,41,0
316.60443,317.25662,68,41,0
317.25662,317.58997,72,44,0
317.25662,317.58997,84,53,0
317.58997,317.88406,71,40,0
317.58997,317.88406,83,48,0
317.88406,318.16708,81,55,0
317.88406,318.16708,69,46,0
318.16708,318.4612,83,52,0
318.16708,318.4612,71,44,0
318.4612,318.7553,84,55,0
318.4612,318.7553,72,47,0
318.7553,319.05533,74,43,0
318.7553,319.05533,86,52,0
319.05533,319.34946,76,53,0
319.05533,319.34946,88,63,0
319.34946,319.6379,87,58,0
319.34946,319.6379,75,43,0
319.6379,319.91064,77,53,0
319.6379,319.91064,89,63,0
319.91064,320.1991,76,50,0
319.91064,320.1991,88,60,0
320.1991,320.4932,74,54,0
320.1991,320.4932,86,64,0
320.4932,320.82654,84,57,0
320.4932,320.82654,72,48,0
320.82654,321.1457,71,56,0
320.82654,321.1457,83,66,0
321.1457,321.44568,81,58,0
321.1457,321.44568,69,49,0
321.44568,321.73416,80,64,0
321.44568,321.73416,68,54,0
321.73416,322.002,81,58,0
321.73416,322.002,69,49,0
322.002,322.29614,83,64,0
322.002,322.29614,71,54,0
322.29614,322.59024,72,51,0
322.29614,322.59024,84,60,0
322.59024,322.8787,86,66,0
322.59024,322.8787,74,49,0
322.8787,323.1565,73,45,0
322.8787,323.1565,85,60,0
323.1565,323.44495,76,60,0
323.1565,323.44495,88,71,0
323.44495,323.71768,86,68,0
323.44495,323.71768,74,57,0
323.71768,324.01178,72,55,0
323.71768,324.01178,84,65,0
324.01178,324.3059,83,62,0
324.01178,324.3059,71,52,0
324.3059,324.6059,69,55,0
324.3059,324.6059,81,65,0
324.6059,324.90002,80,60,0
324.6059,324.90002,68,51,0
324.90002,325.18304,69,56,0
324.90002,325.18304,81,66,0
325.18304,325.4715,84,60,0
325.18304,325.4715,72,51,0
325.4715,325.7715,83,63,0
325.4715,325.7715,71,53,0
325.7715,326.0715,74,53,0
325.7715,326.0715,86,63,0
326.0715,326.37762,84,66,0
326.0715,326.37762,72,56,0
326.37762,326.66608,83,60,0
326.37762,326.66608,71,51,0
326.66608,326.9602,84,71,0
326.66608,326.9602,72,60,0
326.9602,327.24866,76,56,0
326.9602,327.24866,88,67,0
327.24866,327.5428,74,55,0
327.24866,327.5428,86,65,0
327.5428,327.89993,89,65,0
327.5428,327.89993,77,55,0
327.89993,328.21243,76,56,0
327.89993,328.21243,88,67,0
328.21243,328.52493,75,50,0
328.21243,328.52493,87,59,0
328.52493,328.8441,76,56,0
328.52493,328.8441,88,66,0
328.8441,329.1774,64,51,0
328.8441,329.1774,76,60,0
329.1774,329.5183,78,63,0
329.1774,329.5183,66,53,0
329.5183,329.91306,68,53,0
329.5183,329.91306,80,63,0
329.91306,331.34488,81,63,0
329.91306,331.34488,69,53,0
332.09488,332.42096,69,50,0
332.42096,332.72708,68,46,0
332.72708,333.0101,69,50,0
333.0101,333.31012,81,55,0
333.31012,333.5879,80,54,0
333.5879,333.88135,79,53,0
333.91397,334.20242,79,50,0
334.20242,334.4909,77,48,0
334.4909,334.76868,76,48,0
334.76868,335.06277,77,48,0
335.06277,335.3569,76,50,0
335.3569,335.71405,77,48,0
335.71405,335.99707,81,50,0
335.99707,336.2698,80,45,0
336.2698,336.54758,81,50,0
336.54758,336.83603,80,45,0
336.83603,337.13016,81,50,0
337.13016,337.43015,77,46,0
337.46347,337.7576,77,50,0
337.7576,338.04062,76,47,0
338.04062,338.32907,75,47,0
338.32907,338.61755,76,47,0
338.61755,338.906,75,50,0
338.906,339.19324,76,45,0
339.22516,339.52515,76,50,0
339.52515,339.80817,74,46,0
339.80817,340.09665,72,46,0
340.09665,340.37967,71,46,0
340.37967,340.67377,69,44,0
340.67377,341.0071,76,50,0
341.0071,341.31323,77,47,0
341.31323,341.60168,74,47,0
341.60168,341.9017,71,47,0
341.9017,342.19016,69,47,0
342.19016,342.49014,68,50,0
342.49014,342.77737,71,47,0
342.8093,343.10342,71,50,0
343.10342,343.42258,69,43,0
343.42258,343.71667,72,55,0
343.71667,344.05002,71,49,0
344.05002,344.35614,74,58,0
344.35614,344.65027,72,51,0
344.65027,344.75894,71,54,0
344.75894,344.86765,72,56,0
344.86765,344.97635,74,58,0
344.97635,346.19257,72,65,0
344.97635,346.19257,69,55,0
346.19257,346.72827,71,51,0
346.19257,346.72827,68,36,0
346.90686,347.22598,72,50,0
347.22598,347.5201,71,47,0
347.5201,347.80313,69,50,0
347.80313,348.09726,71,46,0
348.09726,348.38028,72,47,0
348.38028,348.68027,74,48,0
348.68027,348.9864,76,50,0
348.9864,349.27484,75,46,0
349.27484,349.57486,77,55,0
349.57486,349.85263,76,53,0
349.85263,350.14676,74,51,0
350.14676,350.48007,72,48,0
350.48007,350.7801,71,50,0
350.7801,351.08008,69,47,0
351.08008,351.35785,68,50,0
351.35785,351.64087,69,46,0
351.64087,351.935,71,47,0
351.935,352.22913,72,48,0
352.22913,352.5291,74,50,0
352.5291,352.8069,73,46,0
352.8069,353.113,76,54,0
353.113,353.38574,74,52,0
353.38574,353.67987,72,51,0
353.67987,353.97397,71,49,0
353.97397,354.2681,69,50,0
354.2681,354.54587,68,47,0
354.54587,354.83432,69,50,0
354.83432,355.1228,72,46,0
355.1228,355.4228,71,52,0
355.4228,355.7228,74,48,0
355.7228,356.0489,72,56,0
356.0489,356.32666,71,50,0
356.32666,356.6208,72,54,0
356.6208,356.89856,76,50,0
356.89856,357.1927,74,55,0
357.1927,357.5498,77,48,0
357.5498,357.87592,76,60,0
357.87592,358.1759,75,54,0
358.1759,358.4759,76,56,0
358.4759,358.7759,64,43,0
358.7759,359.09506,66,43,0
359.09506,359.4522,68,46,0
359.4522,359.78552,69,51,0
359.78552,360.09802,68,44,0
360.09802,360.40414,69,50,0
360.40414,360.71027,64,45,0
360.71027,361.02942,60,49,0
361.02942,361.34857,64,46,0
361.34857,361.66772,81,65,0
361.34857,361.66772,69,55,0
361.66772,361.96185,68,51,0
361.66772,361.96185,80,60,0
361.96185,362.2503,69,56,0
361.96185,362.2503,81,66,0
362.2503,362.53876,84,60,0
362.2503,362.53876,72,51,0
362.53876,362.83878,71,53,0
362.53876,362.83878,83,63,0
362.83878,363.13876,74,53,0
362.83878,363.13876,86,63,0
363.13876,363.45126,84,66,0
363.13876,363.45126,72,56,0
363.45126,363.73972,83,60,0
363.45126,363.73972,71,51,0
363.73972,364.03384,72,60,0
363.73972,364.03384,84,71,0
364.03384,364.3223,76,56,0
364.03384,364.3223,88,67,0
364.3223,364.61642,86,65,0
364.3223,364.61642,74,55,0
364.61642,364.97357,89,65,0
364.61642,364.97357,77,55,0
364.97357,365.28607,88,67,0
364.97357,365.28607,76,56,0
365.28607,365.59857,75,50,0
365.28607,365.59857,87,59,0
365.59857,365.91772,88,66,0
365.59857,365.91772,76,56,0
365.91772,366.25104,76,60,0
365.91772,366.25104,64,51,0
366.25104,366.59195,66,53,0
366.25104,366.59195,78,63,0
366.59195,366.9867,68,53,0
366.59195,366.9867,80,63,0
366.9867,368.41852,69,53,0
366.9867,368.41852,81,63,0
369.16852,369.47464,69,50,0
369.47464,369.78076,68,46,0
369.78076,370.06378,69,50,0
370.06378,370.36377,81,55,0
370.36377,370.64154,80,54,0
370.64154,370.93503,79,53,0
370.96765,371.2561,79,50,0
371.2561,371.54456,77,48,0
371.54456,371.82233,76,48,0
371.82233,372.11646,77,48,0
372.11646,372.41058,76,50,0
372.41058,372.76773,77,48,0
372.76773,373.06183,81,50,0
373.06183,373.33456,80,45,0
373.33456,373.61234,81,50,0
373.61234,373.9008,80,45,0
373.9008,374.19492,81,50,0
374.19492,374.4949,77,46,0
374.52826,374.83438,77,50,0
374.83438,375.1174,76,47,0
375.1174,375.40585,75,47,0
375.40585,375.68362,76,47,0
375.68362,375.96664,75,50,0
375.96664,376.25388,76,45,0
376.2858,376.5983,76,50,0
376.5983,376.88132,74,46,0
376.88132,377.16977,72,46,0
377.16977,377.4528,71,46,0
377.4528,377.74692,69,44,0
377.74692,378.08026,76,50,0
378.08026,378.39276,77,47,0
378.39276,378.6812,74,47,0
378.6812,378.9812,71,47,0
378.9812,379.26968,69,47,0
379.26968,379.56967,68,50,0
379.56967,379.8569,71,47,0
379.88882,380.18295,71,50,0
380.18295,380.50208,69,43,0
380.50208,380.7962,72,55,0
380.7962,381.12955,71,49,0
381.12955,381.43567,74,58,0
381.43567,381.72977,72,51,0
381.72977,381.83847,71,54,0
381.83847,381.94717,72,56,0
381.94717,382.05588,74,58,0
382.05588,383.2721,69,55,0
382.05588,383.2721,72,65,0
383.2721,383.8078,71,51,0
383.2721,383.8078,68,36,0
383.98636,384.31247,72,50,0
384.31247,384.60657,71,47,0
384.60657,384.8896,69,50,0
384.8896,385.17804,71,46,0
385.17804,385.46106,72,47,0
385.46106,385.76108,74,48,0
385.76108,386.0672,76,50,0
386.0672,386.35565,75,46,0
386.35565,386.65567,77,55,0
386.65567,386.93344,76,53,0
386.93344,387.22754,74,51,0
387.22754,387.56088,72,48,0
387.56088,387.86087,71,50,0
387.86087,388.1609,69,47,0
388.1609,388.43866,68,50,0
388.43866,388.72168,69,46,0
388.72168,389.0158,71,47,0
389.0158,389.3099,72,48,0
389.3099,389.60992,74,50,0
389.60992,389.88263,73,46,0
389.88263,390.17676,76,54,0
390.17676,390.4495,74,52,0
390.4495,390.74362,72,51,0
390.74362,391.03772,71,49,0
391.03772,391.34384,69,50,0
391.34384,391.6216,68,47,0
391.6216,391.8994,69,50,0
391.8994,392.18787,72,46,0
392.18787,392.48785,71,52,0
392.48785,392.78787,74,48,0
392.78787,393.08197,72,56,0
393.08197,393.35977,71,50,0
393.35977,393.65387,72,54,0
393.65387,393.93164,76,50,0
393.93164,394.22577,74,55,0
394.22577,394.58292,77,48,0
394.58292,394.909,76,60,0
394.909,395.209,75,54,0
395.209,395.509,76,56,0
395.509,395.809,64,43,0
395.809,396.12814,66,43,0
396.12814,396.4853,68,46,0
396.4853,396.81863,69,51,0
396.81863,397.13113,68,44,0
397.13113,397.43726,69,50,0
397.43726,397.74338,64,45,0
397.74338,398.06253,60,49,0
398.06253,398.38168,64,46,0
398.38168,398.67578,81,65,0
398.38168,398.67578,69,55,0
398.67578,398.95355,68,51,0
398.67578,398.95355,80,60,0
398.95355,399.24203,69,56,0
398.95355,399.24203,81,66,0
399.24203,399.5305,72,51,0
399.24203,399.5305,84,60,0
399.5305,399.83047,83,63,0
399.5305,399.83047,71,53,0
399.83047,400.1305,74,53,0
399.83047,400.1305,86,63,0
400.1305,400.43048,72,56,0
400.1305,400.43048,84,66,0
400.43048,400.70825,71,51,0
400.43048,400.70825,83,60,0
400.70825,401.00238,72,60,0
400.70825,401.00238,84,71,0
401.00238,401.29083,88,67,0
401.00238,401.29083,76,56,0
401.29083,401.58496,86,65,0
401.29083,401.58496,74,55,0
401.58496,401.9421,89,65,0
401.58496,401.9421,77,55,0
401.9421,402.2546,76,56,0
401.9421,402.2546,88,67,0
402.2546,402.5671,75,50,0
402.2546,402.5671,87,59,0
402.5671,402.88626,76,56,0
402.5671,402.88626,88,66,0
402.88626,403.21957,76,60,0
402.88626,403.21957,64,51,0
403.21957,403.5605,78,63,0
403.21957,403.5605,66,53,0
403.5605,403.9659,68,53,0
403.5605,403.9659,80,63,0
403.9659,405.5625,69,53,0
403.9659,405.5625,81,63,0
410.35788,410.6038,69,50,0
410.35788,410.6038,73,50,0
410.6038,410.84967,64,50,0
410.84967,411.058,73,44,0
410.84967,411.058,69,44,0
411.058,411.27542,64,49,0
410.84967,411.27542,85,52,0
410.84967,411.27542,81,52,0
411.27542,411.4754,71,45,0
411.27542,411.4754,74,45,0
411.4754,411.68375,64,50,0
411.27542,411.68375,83,53,0
411.27542,411.68375,86,53,0
411.68375,411.88644,73,46,0
411.68375,411.88644,76,46,0
411.88644,412.0794,64,50,0
411.68375,412.0794,85,55,0
411.68375,412.0794,88,55,0
412.0794,412.2794,71,45,0
412.0794,412.2794,74,45,0
412.2794,412.48773,64,49,0
412.0794,412.48773,83,53,0
412.0794,412.48773,86,53,0
412.48773,412.7083,69,44,0
412.48773,412.7083,73,44,0
412.7083,412.9289,64,48,0
412.48773,412.9289,85,52,0
412.48773,412.9289,81,52,0
412.9289,413.15277,71,50,0
412.9289,413.15277,68,50,0
413.15277,413.37668,64,50,0
413.37668,413.58215,71,44,0
413.37668,413.58215,68,44,0
413.58215,413.79343,64,49,0
413.37668,413.79343,83,52,0
413.37668,413.79343,80,52,0
413.79343,413.99078,69,45,0
413.79343,413.99078,73,45,0
413.99078,414.19913,64,50,0
413.79343,414.19913,81,53,0
413.79343,414.19913,85,53,0
414.19913,414.3991,71,46,0
414.19913,414.3991,74,46,0
414.3991,414.59393,64,50,0
414.19913,414.59393,83,55,0
414.19913,414.59393,86,55,0
414.59393,414.7939,73,45,0
414.59393,414.7939,69,45,0
414.7939,415.0052,64,49,0
414.59393,415.0052,85,53,0
414.59393,415.0052,81,53,0
415.0052,415.22256,71,44,0
415.0052,415.22256,68,44,0
415.22256,415.43997,64,48,0
415.0052,415.43997,83,52,0
415.0052,415.43997,80,52,0
415.43997,415.65735,69,54,0
415.43997,415.65735,64,54,0
415.65735,415.88126,61,50,0
415.88126,416.0925,64,45,0
415.88126,416.0925,69,45,0
416.0925,416.2952,61,50,0
415.88126,416.2952,81,54,0
416.2952,416.4952,64,54,0
416.2952,416.4952,69,54,0
416.4952,416.7095,61,50,0
416.7095,416.90686,71,55,0
416.7095,416.90686,68,55,0
416.90686,417.10956,64,51,0
417.10956,417.30957,68,47,0
417.10956,417.30957,71,47,0
417.30957,417.52084,64,51,0
417.10956,417.52084,83,56,0
417.52084,417.7351,68,50,0
417.52084,417.7351,71,50,0
417.7351,417.9494,64,48,0
417.9494,418.15488,73,46,0
417.9494,418.15488,69,46,0
418.15488,418.36917,64,50,0
417.9494,418.36917,85,55,0
417.9494,418.36917,81,55,0
418.36917,418.56918,71,45,0
418.36917,418.56918,74,45,0
418.56918,418.7775,64,49,0
418.36917,418.7775,83,53,0
418.36917,418.7775,86,53,0
418.7775,418.9918,69,44,0
418.7775,418.9918,73,44,0
418.9918,419.21567,64,48,0
418.7775,419.21567,85,52,0
418.7775,419.21567,81,52,0
419.21567,419.43954,71,44,0
419.21567,419.43954,68,44,0
419.43954,419.66342,64,49,0
419.21567,419.66342,83,52,0
419.21567,419.66342,80,52,0
419.66342,419.8978,75,56,0
419.8978,420.13217,76,53,0
420.13217,420.40005,75,56,0
420.40005,420.6679,76,53,0
420.6679,420.9138,73,60,0
420.6679,420.9138,69,60,0
420.9138,421.1597,64,60,0
421.1597,421.36804,73,52,0
421.1597,421.36804,69,52,0
421.36804,421.58542,64,58,0
421.1597,421.58542,85,68,0
421.1597,421.58542,81,57,0
421.58542,421.78543,71,54,0
421.58542,421.78543,74,54,0
421.78543,421.99374,64,60,0
421.58542,421.99374,86,69,0
421.58542,421.99374,83,58,0
421.99374,422.19647,76,55,0
421.99374,422.19647,73,55,0
422.19647,422.3894,64,60,0
421.99374,422.3894,88,72,0
421.99374,422.3894,85,61,0
422.3894,422.58942,74,54,0
422.3894,422.58942,71,54,0
422.58942,422.79773,64,58,0
422.3894,422.79773,83,58,0
422.3894,422.79773,86,69,0
422.79773,423.01202,69,52,0
422.79773,423.01202,73,52,0
423.01202,423.2326,64,57,0
422.79773,423.2326,85,68,0
422.79773,423.2326,81,57,0
423.2326,423.4565,71,60,0
423.2326,423.4565,68,60,0
423.4565,423.6804,64,60,0
423.6804,423.88586,68,52,0
423.6804,423.88586,71,52,0
423.88586,424.09714,64,58,0
423.6804,424.09714,83,68,0
423.6804,424.09714,80,57,0
424.09714,424.29984,69,54,0
424.09714,424.29984,73,54,0
424.29984,424.50815,64,60,0
424.09714,424.50815,81,58,0
424.09714,424.50815,85,69,0
424.50815,424.70816,71,55,0
424.50815,424.70816,74,55,0
424.70816,424.90295,64,60,0
424.50815,424.90295,83,61,0
424.50815,424.90295,86,72,0
424.90295,425.10297,73,54,0
424.90295,425.10297,69,54,0
425.10297,425.31424,64,58,0
424.90295,425.31424,85,69,0
424.90295,425.31424,81,58,0
425.31424,425.53482,71,52,0
425.31424,425.53482,68,52,0
425.53482,425.7554,64,57,0
425.31424,425.7554,80,57,0
425.31424,425.7554,83,68,0
425.7554,425.96088,64,64,0
425.7554,425.96088,69,64,0
425.96088,426.16922,61,60,0
426.16922,426.37192,69,54,0
426.16922,426.37192,64,54,0
426.37192,426.5862,61,60,0
426.16922,426.5862,81,70,0
426.16922,426.5862,73,59,0
426.5862,426.7917,68,64,0
426.5862,426.7917,71,64,0
426.7917,427.00598,64,60,0
426.5862,427.00598,83,70,0
426.5862,427.00598,76,59,0
427.00598,427.21146,69,66,0
427.00598,427.21146,73,66,0
427.21146,427.41693,64,61,0
427.00598,427.41693,85,73,0
427.00598,427.41693,81,61,0
427.41693,427.6282,69,56,0
427.41693,427.6282,73,56,0
427.6282,427.8488,66,61,0
427.8488,428.05713,74,60,0
427.8488,428.05713,71,60,0
428.05713,428.2745,66,57,0
428.2745,428.4888,69,60,0
428.2745,428.4888,73,60,0
428.4888,428.71268,64,66,0
428.71268,428.93008,73,47,0
428.71268,428.93008,69,47,0
428.93008,429.15735,64,50,0
428.71268,429.15735,85,60,0
428.71268,429.15735,81,50,0
429.15735,429.38812,68,45,0
429.15735,429.38812,71,45,0
429.38812,429.6189,64,49,0
429.15735,429.6189,83,59,0
429.15735,429.6189,80,49,0
429.6189,429.8689,69,53,0
429.8689,430.1189,64,48,0
429.6189,430.1189,81,53,0
430.1189,430.38205,61,50,0
430.38205,430.67615,64,41,0
430.67615,431.11734,69,48,0
431.5585,431.8044,69,50,0
431.5585,431.8044,73,50,0
431.8044,432.05032,64,50,0
432.05032,432.25864,69,44,0
432.05032,432.25864,73,44,0
432.25864,432.47604,64,49,0
432.05032,432.47604,81,52,0
432.05032,432.47604,85,52,0
432.47604,432.67606,74,45,0
432.47604,432.67606,71,45,0
432.67606,432.88437,64,50,0
432.47604,432.88437,86,53,0
432.47604,432.88437,83,53,0
432.88437,433.08707,73,46,0
432.88437,433.08707,76,46,0
433.08707,433.28003,64,50,0
432.88437,433.28003,88,55,0
432.88437,433.28003,85,55,0
433.28003,433.48004,71,45,0
433.28003,433.48004,74,45,0
433.48004,433.68835,64,49,0
433.28003,433.68835,86,53,0
433.28003,433.68835,83,53,0
433.68835,433.90894,73,44,0
433.68835,433.90894,69,44,0
433.90894,434.12955,64,48,0
433.68835,434.12955,81,52,0
433.68835,434.12955,85,52,0
434.12955,434.35342,71,50,0
434.12955,434.35342,68,50,0
434.35342,434.5773,64,50,0
434.5773,434.78278,68,44,0
434.5773,434.78278,71,44,0
434.78278,434.99405,64,49,0
434.5773,434.99405,83,52,0
434.5773,434.99405,80,52,0
434.99405,435.1914,73,45,0
434.99405,435.1914,69,45,0
435.1914,435.39975,64,50,0
434.99405,435.39975,85,53,0
434.99405,435.39975,81,53,0
435.39975,435.59973,71,46,0
435.39975,435.59973,74,46,0
435.59973,435.79456,64,50,0
435.39975,435.79456,86,55,0
435.39975,435.79456,83,55,0
435.79456,435.99454,73,45,0
435.79456,435.99454,69,45,0
435.99454,436.2058,64,49,0
435.79456,436.2058,85,53,0
435.79456,436.2058,81,53,0
436.2058,436.42322,68,44,0
436.2058,436.42322,71,44,0
436.42322,436.6406,64,48,0
436.2058,436.6406,80,52,0
436.2058,436.6406,83,52,0
436.6406,436.858,69,54,0
436.6406,436.858,64,54,0
436.858,437.08188,61,50,0
437.08188,437.29315,69,45,0
437.08188,437.29315,64,45,0
437.29315,437.49863,61,50,0
437.08188,437.49863,81,54,0
437.49863,437.6986,69,54,0
437.49863,437.6986,64,54,0
437.6986,437.9129,61,50,0
437.9129,438.11026,68,55,0
437.9129,438.11026,71,55,0
438.11026,438.313,64,51,0
438.313,438.5157,71,47,0
438.313,438.5157,68,47,0
438.5157,438.72696,64,51,0
438.313,438.72696,83,56,0
438.72696,438.94122,68,50,0
438.72696,438.94122,71,50,0
438.94122,439.15552,64,48,0
439.15552,439.361,69,46,0
439.15552,439.361,73,46,0
439.361,439.5753,64,50,0
439.15552,439.5753,85,55,0
439.15552,439.5753,81,55,0
439.5753,439.7753,71,45,0
439.5753,439.7753,74,45,0
439.7753,439.9836,64,49,0
439.5753,439.9836,83,53,0
439.5753,439.9836,86,53,0
439.9836,440.1979,73,44,0
439.9836,440.1979,69,44,0
440.1979,440.42178,64,48,0
439.9836,440.42178,85,52,0
439.9836,440.42178,81,52,0
440.42178,440.64566,71,44,0
440.42178,440.64566,68,44,0
440.64566,440.86954,64,49,0
440.42178,440.86954,83,52,0
440.42178,440.86954,80,52,0
440.86954,441.1039,75,56,0
441.1039,441.3383,76,53,0
441.3383,441.60614,75,56,0
441.60614,441.87402,76,53,0
441.87402,442.1199,73,60,0
441.87402,442.1199,69,60,0
442.1199,442.3658,64,60,0
442.3658,442.57416,69,52,0
442.3658,442.57416,73,52,0
442.57416,442.79153,64,58,0
442.3658,442.79153,85,68,0
442.3658,442.79153,81,57,0
442.79153,442.99155,71,54,0
442.79153,442.99155,74,54,0
442.99155,443.19986,64,60,0
442.79153,443.19986,83,58,0
442.79153,443.19986,86,69,0
443.19986,443.4026,76,55,0
443.19986,443.4026,73,55,0
443.4026,443.59552,64,60,0
443.19986,443.59552,85,61,0
443.19986,443.59552,88,72,0
443.59552,443.79553,74,54,0
443.59552,443.79553,71,54,0
443.79553,444.00385,64,58,0
443.59552,444.00385,83,58,0
443.59552,444.00385,86,69,0
444.00385,444.21814,69,52,0
444.00385,444.21814,73,52,0
444.21814,444.43872,64,57,0
444.00385,444.43872,85,68,0
444.00385,444.43872,81,57,0
444.43872,444.6626,71,60,0
444.43872,444.6626,68,60,0
444.6626,444.8865,64,60,0
444.8865,445.09198,68,52,0
444.8865,445.09198,71,52,0
445.09198,445.30322,64,58,0
444.8865,445.30322,80,57,0
444.8865,445.30322,83,68,0
445.30322,445.50595,73,54,0
445.30322,445.50595,69,54,0
445.50595,445.71426,64,60,0
445.30322,445.71426,81,58,0
445.30322,445.71426,85,69,0
445.71426,445.91428,74,55,0
445.71426,445.91428,71,55,0
445.91428,446.10907,64,60,0
445.71426,446.10907,86,72,0
445.71426,446.10907,83,61,0
446.10907,446.30908,69,54,0
446.10907,446.30908,73,54,0
446.30908,446.52036,64,58,0
446.10907,446.52036,81,58,0
446.10907,446.52036,85,69,0
446.52036,446.74094,68,52,0
446.52036,446.74094,71,52,0
446.74094,446.96152,64,57,0
446.52036,446.96152,80,57,0
446.52036,446.96152,83,68,0
446.96152,447.167,64,64,0
446.96152,447.167,69,64,0
447.167,447.37534,61,60,0
447.37534,447.57803,69,54,0
447.37534,447.57803,64,54,0
447.57803,447.79233,61,60,0
447.37534,447.79233,81,70,0
447.37534,447.79233,73,59,0
447.79233,447.9978,71,64,0
447.79233,447.9978,68,64,0
447.9978,448.2121,64,60,0
447.79233,448.2121,76,59,0
447.79233,448.2121,83,70,0
448.2121,448.41757,73,66,0
448.2121,448.41757,69,66,0
448.41757,448.62305,64,61,0
448.2121,448.62305,85,73,0
448.2121,448.62305,81,61,0
448.62305,448.83432,69,56,0
448.62305,448.83432,73,56,0
448.83432,449.0549,66,61,0
449.0549,449.26324,74,60,0
449.0549,449.26324,71,60,0
449.26324,449.48062,66,57,0
449.48062,449.69492,73,60,0
449.48062,449.69492,69,60,0
449.69492,449.9188,64,66,0
449.9188,450.1362,73,47,0
449.9188,450.1362,69,47,0
450.1362,450.36346,64,50,0
449.9188,450.36346,81,50,0
449.9188,450.36346,85,60,0
450.36346,450.59424,68,45,0
450.36346,450.59424,71,45,0
450.59424,450.825,64,49,0
450.36346,450.825,83,59,0
450.36346,450.825,80,49,0
450.825,451.075,69,53,0
451.075,451.325,64,48,0
450.825,451.325,81,53,0
451.325,451.58817,61,50,0
451.58817,451.88226,64,41,0
451.88226,452.32346,69,48,0
452.76462,453.44412,76,54,0
453.44412,453.56708,78,54,0
453.56708,453.68427,76,50,0
453.68427,453.79138,74,55,0
453.79138,453.89853,73,54,0
453.89853,454.01218,71,53,0
454.01218,454.12582,69,52,0
454.12582,454.37582,77,57,0
454.37582,454.59503,78,54,0
454.60657,454.83734,78,54,0
455.56366,455.80176,81,58,0
455.80176,456.03986,80,55,0
456.03986,456.26373,83,58,0
456.26373,456.4981,81,58,0
456.4981,456.73248,80,59,0
456.73248,456.99673,78,60,0
456.99673,457.23483,75,62,0
457.23483,457.45703,76,57,0
457.47293,457.72714,76,57,0
458.48987,459.19162,76,63,0
459.19162,459.3088,78,55,0
459.3088,459.426,76,50,0
459.426,459.53632,74,58,0
459.53632,459.6466,73,56,0
459.6466,459.7569,71,54,0
459.7569,459.8672,69,53,0
459.8672,460.13504,76,63,0
460.13504,460.61905,74,63,0
460.61905,460.731,78,55,0
460.731,460.84293,76,50,0
460.84293,460.95486,74,58,0
460.95486,461.0668,73,56,0
461.0668,461.17874,71,54,0
461.17874,461.29068,69,53,0
461.29068,461.79068,69,62,0
461.79068,462.29916,68,58,0
462.29916,462.8547,69,59,0
462.29916,462.8547,63,50,0
462.8547,463.96582,73,63,0
462.8547,463.96582,69,53,0
463.96582,464.52136,68,39,0
463.96582,464.52136,71,47,0
462.8547,464.52136,64,53,0
464.52136,464.77136,69,49,0
464.52136,464.77136,73,49,0
464.77136,465.02136,64,49,0
465.02136,465.24527,69,43,0
465.02136,465.24527,73,43,0
465.24527,465.47253,64,48,0
465.02136,465.47253,85,56,0
465.02136,465.47253,81,47,0
465.47253,465.68088,74,44,0
465.47253,465.68088,71,44,0
465.68088,465.89825,64,49,0
465.47253,465.89825,86,57,0
465.47253,465.89825,83,48,0
465.89825,466.10095,73,45,0
465.89825,466.10095,76,45,0
466.10095,466.2939,64,49,0
465.89825,466.2939,88,59,0
465.89825,466.2939,85,50,0
466.2939,466.4939,74,44,0
466.2939,466.4939,71,44,0
466.4939,466.70224,64,48,0
466.2939,466.70224,86,57,0
466.2939,466.70224,83,48,0
466.70224,466.91653,73,43,0
466.70224,466.91653,69,43,0
466.91653,467.13712,64,47,0
466.70224,467.13712,85,56,0
466.70224,467.13712,81,47,0
467.13712,467.361,68,49,0
467.13712,467.361,71,49,0
467.361,467.58487,64,49,0
467.58487,467.79034,68,43,0
467.58487,467.79034,71,43,0
467.79034,468.00162,64,48,0
467.58487,468.00162,80,47,0
467.58487,468.00162,83,56,0
468.00162,468.2043,73,44,0
468.00162,468.2043,69,44,0
468.2043,468.41266,64,49,0
468.00162,468.41266,81,48,0
468.00162,468.41266,85,57,0
468.41266,468.61267,74,45,0
468.41266,468.61267,71,45,0
468.61267,468.80746,64,49,0
468.41266,468.80746,83,50,0
468.41266,468.80746,86,59,0
468.80746,469.00748,69,44,0
468.80746,469.00748,73,44,0
469.00748,469.21872,64,48,0
468.80746,469.21872,85,57,0
468.80746,469.21872,81,48,0
469.21872,469.43933,71,43,0
469.21872,469.43933,68,43,0
469.43933,469.6599,64,47,0
469.21872,469.6599,80,47,0
469.21872,469.6599,83,56,0
469.6599,469.8654,64,53,0
469.6599,469.8654,69,53,0
469.8654,470.07373,61,49,0
470.07373,470.27643,64,44,0
470.07373,470.27643,69,44,0
470.27643,470.4907,61,49,0
470.07373,470.4907,73,48,0
470.07373,470.4907,81,58,0
470.4907,470.6962,68,53,0
470.4907,470.6962,71,53,0
470.6962,470.91046,64,49,0
470.4907,470.91046,83,58,0
470.4907,470.91046,76,48,0
470.91046,471.11597,69,54,0
470.91046,471.11597,73,54,0
471.11597,471.32144,64,50,0
470.91046,471.32144,81,50,0
470.91046,471.32144,85,60,0
471.32144,471.53268,69,46,0
471.32144,471.53268,73,46,0
471.53268,471.7533,66,50,0
471.7533,471.9616,74,49,0
471.7533,471.9616,71,49,0
471.9616,472.17902,66,47,0
472.17902,472.38736,69,49,0
472.17902,472.38736,73,49,0
472.38736,472.59567,64,54,0
472.59567,472.80115,73,39,0
472.59567,472.80115,69,39,0
472.80115,473.01544,64,44,0
472.59567,473.01544,81,41,0
472.59567,473.01544,85,49,0
473.01544,473.22092,71,37,0
473.01544,473.22092,68,37,0
473.22092,473.43832,64,40,0
473.01544,473.43832,83,48,0
473.01544,473.43832,80,40,0
473.43832,473.64957,68,44,0
473.43832,473.64957,71,44,0
473.64957,473.87347,64,46,0
473.43832,473.87347,83,49,0
473.87347,474.10074,72,43,0
473.87347,474.10074,68,42,0
474.10074,474.3351,64,45,0
473.43832,474.3351,80,49,0
473.87347,474.3351,84,49,0
474.3351,474.58765,73,42,0
474.3351,474.58765,69,42,0
474.56354,474.8267,64,42,0
474.3351,474.8508,81,49,0
474.3351,474.8508,85,49,0
474.8508,475.0682,69,60,0
474.8508,475.0682,73,60,0
475.0682,475.29208,64,56,0
475.29208,475.49478,69,50,0
475.29208,475.49478,73,50,0
475.49478,475.70908,64,56,0
475.29208,475.70908,85,66,0
475.29208,475.70908,81,55,0
475.70908,475.91455,74,60,0
475.70908,475.91455,71,60,0
475.91455,476.12885,64,56,0
475.70908,476.12885,86,66,0
475.70908,476.12885,83,55,0
476.12885,476.33432,76,62,0
476.12885,476.33432,73,62,0
476.33432,476.5398,69,57,0
476.12885,476.5398,85,57,0
476.12885,476.5398,88,69,0
476.5398,476.75107,73,52,0
476.5398,476.75107,76,52,0
476.75107,476.97165,69,57,0
476.97165,477.18,74,56,0
476.97165,477.18,78,56,0
477.18,477.39737,69,54,0
477.39737,477.61166,69,56,0
477.39737,477.61166,73,56,0
477.61166,477.83554,64,62,0
477.83554,478.05295,73,55,0
477.83554,478.05295,69,55,0
478.05295,478.2802,64,59,0
477.83554,478.2802,85,71,0
477.83554,478.2802,81,59,0
478.2802,478.511,71,54,0
478.2802,478.511,68,54,0
478.511,478.74176,64,58,0
478.2802,478.74176,83,70,0
478.2802,478.74176,80,58,0
478.74176,478.99176,69,63,0
478.99176,479.24176,64,56,0
478.74176,479.24176,81,63,0
479.24176,479.5049,61,59,0
479.5049,479.799,64,49,0
479.799,480.2402,69,57,0
480.68137,481.36087,76,54,0
481.36087,481.48383,78,54,0
481.48383,481.601,76,50,0
481.601,481.70816,74,55,0
481.70816,481.81528,73,54,0
481.81528,481.92892,71,53,0
481.92892,482.04257,69,52,0
482.04257,482.29257,77,57,0
482.29257,482.506,78,54,0
482.52332,482.7541,78,54,0
483.4804,483.7185,81,58,0
483.7185,483.9566,80,55,0
483.9566,484.18048,83,58,0
484.18048,484.41486,81,58,0
484.41486,484.64923,80,59,0
484.64923,484.91348,78,60,0
484.91348,485.15158,75,62,0
485.15158,485.3738,76,57,0
485.38968,485.6439,76,57,0
486.40662,487.1084,76,63,0
487.1084,487.2256,78,55,0
487.2256,487.34277,76,50,0
487.34277,487.45306,74,58,0
487.45306,487.56335,73,56,0
487.56335,487.67365,71,54,0
487.67365,487.78394,69,53,0
487.78394,488.0518,76,63,0
488.0518,488.5358,74,63,0
488.5358,488.64774,78,55,0
488.64774,488.75967,76,50,0
488.75967,488.8716,74,58,0
488.8716,488.98355,73,56,0
488.98355,489.0955,71,54,0
489.0955,489.20743,69,53,0
489.20743,489.70743,69,62,0
489.70743,490.2159,68,58,0
490.2159,490.77145,69,59,0
490.2159,490.77145,63,50,0
490.77145,491.88257,69,53,0
490.77145,491.88257,73,63,0
491.88257,492.43814,68,39,0
491.88257,492.43814,71,47,0
490.77145,492.43814,64,53,0
492.43814,492.7159,69,49,0
492.43814,492.7159,73,49,0
492.7159,492.99368,64,49,0
492.99368,493.21756,69,43,0
492.99368,493.21756,73,43,0
493.21756,493.44833,64,48,0
492.99368,493.44833,81,47,0
492.99368,493.44833,85,56,0
493.44833,493.65668,71,44,0
493.44833,493.65668,74,44,0
493.65668,493.87094,64,49,0
493.44833,493.87094,83,48,0
493.44833,493.87094,86,57,0
493.87094,494.07364,73,45,0
493.87094,494.07364,76,45,0
494.07364,494.2666,64,49,0
493.87094,494.2666,85,50,0
493.87094,494.2666,88,59,0
494.2666,494.4666,71,44,0
494.2666,494.4666,74,44,0
494.4666,494.67493,64,48,0
494.2666,494.67493,83,48,0
494.2666,494.67493,86,57,0
494.67493,494.88922,69,43,0
494.67493,494.88922,73,43,0
494.88922,495.1098,64,47,0
494.67493,495.1098,85,56,0
494.67493,495.1098,81,47,0
495.1098,495.33368,71,49,0
495.1098,495.33368,68,49,0
495.33368,495.55756,64,49,0
495.55756,495.76306,71,43,0
495.55756,495.76306,68,43,0
495.76306,495.9743,64,48,0
495.55756,495.9743,80,47,0
495.55756,495.9743,83,56,0
495.9743,496.17703,73,44,0
495.9743,496.17703,69,44,0
496.17703,496.38535,64,49,0
495.9743,496.38535,85,57,0
495.9743,496.38535,81,48,0
496.38535,496.58536,71,45,0
496.38535,496.58536,74,45,0
496.58536,496.78015,64,49,0
496.38535,496.78015,86,59,0
496.38535,496.78015,83,50,0
496.78015,496.98016,73,44,0
496.78015,496.98016,69,44,0
496.98016,497.19144,64,48,0
496.78015,497.19144,81,48,0
496.78015,497.19144,85,57,0
497.19144,497.41202,68,43,0
497.19144,497.41202,71,43,0
497.41202,497.6326,64,47,0
497.19144,497.6326,80,47,0
497.19144,497.6326,83,56,0
497.6326,497.83807,69,53,0
497.6326,497.83807,64,53,0
497.83807,498.04642,61,49,0
498.04642,498.2491,64,44,0
498.04642,498.2491,69,44,0
498.2491,498.4634,61,49,0
498.04642,498.4634,73,48,0
498.04642,498.4634,81,58,0
498.4634,498.66888,71,53,0
498.4634,498.66888,68,53,0
498.66888,498.88318,64,49,0
498.4634,498.88318,76,48,0
498.4634,498.88318,83,58,0
498.88318,499.08865,73,54,0
498.88318,499.08865,69,54,0
499.08865,499.29413,64,50,0
498.88318,499.29413,85,60,0
498.88318,499.29413,81,50,0
499.29413,499.5054,73,46,0
499.29413,499.5054,69,46,0
499.5054,499.72598,66,50,0
499.72598,499.93433,74,49,0
499.72598,499.93433,71,49,0
499.93433,500.1517,66,47,0
500.1517,500.36005,69,49,0
500.1517,500.36005,73,49,0
500.36005,500.5684,64,54,0
500.5684,500.77386,73,39,0
500.5684,500.77386,69,39,0
500.77386,500.98813,64,44,0
500.5684,500.98813,81,41,0
500.5684,500.98813,85,49,0
500.98813,501.19363,68,37,0
500.98813,501.19363,71,37,0
501.19363,501.411,64,40,0
500.98813,501.411,80,40,0
500.98813,501.411,83,48,0
501.411,501.62228,71,44,0
501.411,501.62228,68,44,0
501.62228,501.84616,64,46,0
501.411,501.84616,83,49,0
501.84616,502.07343,72,43,0
501.84616,502.07343,68,42,0
502.07343,502.3078,64,45,0
501.84616,502.3078,84,49,0
501.411,502.3078,80,49,0
502.3078,502.56036,69,42,0
502.3078,502.56036,73,42,0
502.53622,502.79938,64,42,0
502.3078,502.82352,81,49,0
502.3078,502.82352,85,49,0
502.82352,503.0409,69,60,0
502.82352,503.0409,73,60,0
503.0409,503.26477,64,56,0
503.26477,503.4675,69,50,0
503.26477,503.4675,73,50,0
503.4675,503.68176,64,56,0
503.26477,503.68176,85,66,0
503.26477,503.68176,81,55,0
503.68176,503.88724,71,60,0
503.68176,503.88724,74,60,0
503.88724,504.10153,64,56,0
503.68176,504.10153,83,55,0
503.68176,504.10153,86,66,0
504.10153,504.307,73,62,0
504.10153,504.307,76,62,0
504.307,504.51248,69,57,0
504.10153,504.51248,85,57,0
504.10153,504.51248,88,69,0
504.51248,504.72375,76,52,0
504.51248,504.72375,73,52,0
504.72375,504.94437,69,57,0
504.94437,505.15268,78,56,0
504.94437,505.15268,74,56,0
505.15268,505.3701,69,54,0
505.3701,505.58435,69,56,0
505.3701,505.58435,73,56,0
505.58435,505.80826,64,62,0
505.80826,506.03214,73,55,0
505.80826,506.03214,69,55,0
506.03214,506.27023,64,59,0
505.80826,506.27023,81,59,0
505.80826,506.27023,85,71,0
506.27023,506.51215,68,54,0
506.27023,506.51215,71,54,0
506.51215,506.7541,64,58,0
506.27023,506.7541,80,58,0
506.27023,506.7541,83,70,0
506.7541,507.04254,69,63,0
507.04254,507.33102,64,56,0
506.7541,507.33102,81,63,0
507.33102,507.67194,61,59,0
507.67194,508.05655,64,49,0
508.05655,508.4977,69,57,0
514.23303,515.363,73,50,0
515.363,516.8998,73,50,0
516.8998,517.4514,74,53,0
517.4514,517.9777,78,56,0
517.9777,518.504,76,50,0
518.99585,519.54126,76,50,0
519.54126,519.79553,78,54,0
519.79553,520.04974,76,50,0
520.04974,520.304,74,50,0
520.304,520.5658,73,50,0
520.58704,521.12274,73,54,0
521.12274,521.63586,71,50,0
521.64905,523.1337,71,50,0
523.1337,523.6607,73,54,0
523.6607,524.1964,76,57,0
524.1964,524.6882,74,53,0
525.18,525.7157,74,50,0
525.7157,525.97437,76,56,0
525.97437,526.233,74,50,0
526.233,526.4916,73,50,0
526.4916,526.75574,71,50,0
526.7746,527.3009,71,57,0
527.3009,527.8009,69,53,0
528.039,528.2771,69,53,0
528.2771,528.5313,68,56,0
528.5313,528.77325,69,53,0
528.77325,529.01917,71,58,0
529.01917,529.2651,69,55,0
529.2651,529.5237,74,62,0
529.5237,529.78235,73,58,0
529.78235,530.30444,70,63,0
530.30444,530.81287,71,58,0
531.0588,531.3047,71,49,0
531.3047,531.53906,70,53,0
531.53906,531.77344,71,49,0
531.77344,532.02344,73,53,0
532.02344,532.27344,71,49,0
532.27344,532.53204,76,53,0
532.53204,532.7907,74,49,0
532.7907,533.0251,74,53,0
533.0251,533.2595,73,45,0
533.2595,533.50543,72,49,0
533.50543,533.7514,73,46,0
533.7514,533.9858,74,55,0
533.9858,534.2202,73,46,0
534.2202,534.4788,72,50,0
534.4788,534.7374,73,47,0
534.7374,534.9682,76,59,0
534.9682,535.199,74,51,0
535.199,535.4371,73,53,0
535.4371,535.6752,74,51,0
535.6752,535.90955,73,62,0
535.90955,536.1439,71,52,0
536.1439,536.382,70,53,0
536.382,536.6201,71,49,0
536.6201,536.8582,69,63,0
536.8582,537.0963,68,50,0
537.0963,537.3344,67,54,0
537.3344,537.5833,68,51,0
537.5833,537.8203,66,64,0
537.8203,538.06635,64,54,0
538.06635,538.3223,63,56,0
538.3223,538.5948,64,54,0
538.5948,539.14026,69,71,0
538.5948,539.14026,73,71,0
539.14026,540.1584,73,65,0
539.14026,540.1584,69,65,0
540.1584,540.6847,70,50,0
540.1584,540.6847,73,50,0
540.6847,541.1686,71,50,0
540.6847,541.1686,74,50,0
541.1686,541.6549,75,50,0
541.1686,541.6549,72,50,0
541.6549,541.9008,76,53,0
541.6549,541.9008,73,53,0
541.9008,542.0299,69,49,0
542.1467,542.2758,71,50,0
542.39264,542.5217,73,51,0
542.6405,542.7675,74,52,0
542.88245,543.00946,76,53,0
543.1244,543.2514,78,54,0
543.3663,543.4933,80,55,0
543.61835,543.86835,81,56,0
543.86835,544.11835,83,57,0
544.11835,544.41547,85,58,0
544.7125,544.98816,73,71,0
544.7125,544.98816,69,71,0
544.98816,545.23627,68,62,0
544.98816,545.23627,71,63,0
545.2638,546.2819,71,65,0
545.2638,546.2819,68,65,0
546.2819,546.8082,68,50,0
546.2819,546.8082,71,50,0
546.8082,547.30005,72,50,0
546.8082,547.30005,69,50,0
547.30005,547.80853,70,50,0
547.30005,547.80853,73,50,0
547.80853,548.06274,74,53,0
547.80853,548.06274,71,53,0
548.06274,548.1962,71,49,0
548.32196,548.4532,73,50,0
548.57196,548.7032,74,51,0
548.82196,548.95105,76,52,0
549.0679,549.19696,78,53,0
549.3137,549.4429,80,54,0
549.55963,549.6887,81,55,0
549.80554,550.05554,83,56,0
550.05554,550.30554,85,57,0
550.30554,550.58856,86,58,0
550.8716,551.1216,71,57,0
551.1216,551.3466,69,53,0
551.3716,552.13007,69,53,0
552.13007,552.38007,69,53,0
552.38007,552.6387,74,56,0
552.6387,552.8887,73,53,0
552.8887,553.1346,70,55,0
553.1346,553.3805,71,52,0
553.3805,553.6391,76,52,0
553.6391,553.8977,74,53,0
553.8977,554.1436,72,58,0
554.1436,554.3895,73,53,0
554.3895,554.5835,81,54,0
554.64813,554.8421,81,55,0
554.9068,555.10077,81,57,0
555.1654,555.3594,81,55,0
555.424,555.62494,81,55,0
555.6919,555.9041,81,55,0
555.9749,556.24274,81,58,0
556.24274,556.5106,78,52,0
556.5106,556.77844,74,54,0
556.77844,557.0463,71,52,0
557.0463,557.3348,76,59,0
557.3348,557.4309,78,54,0
557.4309,557.5271,76,54,0
557.5271,557.6232,75,54,0
557.6232,557.9117,76,59,0
557.9117,558.2088,78,56,0
558.2088,559.9858,69,58,0
559.9858,560.3126,73,53,0
560.3126,560.70044,71,50,0
559.9858,560.70044,68,53,0
560.70044,562.17645,68,45,0
560.70044,562.17645,71,53,0
562.17645,562.8286,69,44,0
560.70044,563.48035,64,45,0
563.31775,563.48035,64,43,0
563.48035,563.6167,66,46,0
563.6167,563.7513,69,42,0
563.7513,563.88416,68,46,0
563.88416,564.0146,71,44,0
564.0146,564.1439,69,44,0
564.1439,564.27454,73,40,0
564.27454,564.4098,71,44,0
564.4098,564.5694,74,41,0
564.5694,565.69934,73,50,0
565.69934,567.23615,73,50,0
567.23615,567.7878,74,53,0
567.7878,568.3141,78,56,0
568.3141,568.8404,76,50,0
569.3322,569.8777,76,50,0
569.8777,570.1319,78,54,0
570.1319,570.3861,76,50,0
570.3861,570.6404,74,50,0
570.6404,570.8951,73,50,0
570.9234,571.4591,73,54,0
571.4591,571.9679,71,50,0
571.9854,573.4701,71,50,0
573.4701,573.9971,73,54,0
573.9971,574.5328,76,57,0
574.5328,575.0246,74,53,0
575.51636,576.05206,74,50,0
576.05206,576.3107,76,56,0
576.3107,576.56934,74,50,0
576.56934,576.82794,73,50,0
576.82794,577.08264,71,50,0
577.11096,577.63727,71,57,0
577.63727,578.13727,69,53,0
578.37537,578.61346,69,53,0
578.61346,578.86774,68,56,0
578.86774,579.1097,69,53,0
579.1097,579.3555,71,58,0
579.3555,579.60144,69,55,0
579.60144,579.86005,74,62,0
579.86005,580.1187,73,58,0
580.1187,580.6408,70,63,0
580.6408,581.1493,71,58,0
581.39514,581.64105,71,49,0
581.64105,581.8754,70,53,0
581.8754,582.1098,71,49,0
582.1098,582.3598,73,53,0
582.3598,582.6098,71,49,0
582.6098,582.86847,76,53,0
582.86847,583.1012,74,49,0
583.1271,583.3652,74,53,0
583.3652,583.6033,73,49,0
583.6033,583.8533,72,49,0
583.8533,584.1033,73,49,0
584.1033,584.33765,74,55,0
584.33765,584.572,73,50,0
584.572,584.8306,72,50,0
584.8306,585.08923,73,50,0
585.08923,585.3236,76,59,0
585.3236,585.558,74,53,0
585.558,585.7999,73,53,0
585.7999,586.0419,74,53,0
586.0419,586.27625,73,62,0
586.27625,586.5106,71,53,0
586.5106,586.75256,70,53,0
586.75256,586.9945,71,53,0
586.9945,587.2326,69,63,0
587.2326,587.4707,68,54,0
587.4707,587.70874,67,54,0
587.70874,587.95764,68,54,0
587.95764,588.19464,66,64,0
588.19464,588.44073,64,56,0
588.44073,588.69666,63,56,0
588.69666,588.9692,64,56,0
588.9692,589.5146,69,71,0
588.9692,589.5146,73,71,0
589.5146,590.5327,69,65,0
589.5146,590.5327,73,65,0
590.5327,591.059,73,50,0
590.5327,591.059,70,50,0
591.059,591.5429,74,50,0
591.059,591.5429,71,50,0
591.5429,592.02924,75,50,0
591.5429,592.02924,72,50,0
592.02924,592.27515,76,53,0
592.02924,592.27515,73,53,0
592.27515,592.40424,69,49,0
592.52106,592.65015,71,50,0
592.76697,592.89606,73,51,0
593.01483,593.14185,74,52,0
593.2568,593.3838,76,53,0
593.4987,593.62573,78,54,0
593.74066,593.8677,80,55,0
593.99274,594.24274,81,56,0
594.24274,594.49274,83,57,0
594.49274,594.7898,85,58,0
595.0869,595.36255,69,71,0
595.0869,595.36255,73,71,0
595.36255,595.6106,71,63,0
595.36255,595.6106,68,62,0
595.6382,596.6563,68,65,0
595.6382,596.6563,71,65,0
596.6563,597.1826,68,50,0
596.6563,597.1826,71,50,0
597.1826,597.67444,69,50,0
597.1826,597.67444,72,50,0
597.67444,598.18286,73,50,0
597.67444,598.18286,70,50,0
598.18286,598.43713,74,53,0
598.18286,598.43713,71,53,0
598.43713,598.5706,71,49,0
598.6963,598.8276,73,50,0
598.9463,599.0776,74,51,0
599.1963,599.3254,76,52,0
599.4422,599.5713,78,53,0
599.6881,599.8172,80,54,0
599.934,600.0631,81,55,0
600.17993,600.42993,83,56,0
600.42993,600.67993,85,57,0
600.67993,600.96295,86,58,0
601.246,601.5002,71,57,0
601.5002,601.7544,69,53,0
601.7544,602.5129,69,53,0
602.5129,602.7629,69,53,0
602.7629,603.02155,74,56,0
603.02155,603.27155,73,53,0
603.27155,603.5174,70,55,0
603.5174,603.7633,71,52,0
603.7633,604.0219,76,52,0
604.0219,604.2806,74,53,0
604.2806,604.5265,72,58,0
604.5265,604.77234,73,53,0
604.77234,604.9663,81,54,0
605.031,605.225,81,55,0
605.2896,605.4836,81,57,0
605.5482,605.7422,81,55,0
605.8068,606.00775,81,55,0
606.0747,606.287,81,55,0
606.3577,606.6256,81,58,0
606.6256,606.89343,78,56,0
606.89343,607.1613,74,54,0
607.1613,607.42914,71,49,0
607.42914,607.697,76,59,0
607.697,607.7863,78,54,0
607.7863,607.8756,76,54,0
607.8756,607.96484,75,54,0
607.96484,608.2327,76,59,0
608.2327,608.5298,78,56,0
608.5298,610.30676,69,58,0
610.30676,610.63367,73,53,0
610.63367,611.0214,71,50,0
610.30676,611.0214,68,53,0
611.0214,612.41693,71,53,0
611.0214,612.41693,68,45,0
612.41693,612.69995,69,46,0
612.69995,612.79425,71,43,0
612.79425,612.8886,69,45,0
612.8886,612.983,68,46,0
612.983,613.266,69,52,0
613.266,613.56006,71,54,0
611.0214,613.56006,64,45,0
613.56006,613.8328,73,55,0
613.8328,613.9254,74,40,0
613.9254,614.018,73,40,0
614.018,614.1106,71,40,0
614.1106,614.42975,73,51,0
614.42975,614.80475,74,52,0
614.80475,615.61334,76,57,0
615.61334,615.74493,78,47,0
615.74493,615.8765,76,47,0
615.8765,616.39374,74,58,0
616.39374,616.92944,73,53,0
616.92944,617.46515,71,57,0
617.46515,618.0392,69,52,0
618.0392,618.8427,69,64,0
618.8427,619.1106,78,57,0
619.1106,620.12756,78,61,0
620.12756,621.3329,62,68,0
621.3329,621.4668,66,44,0
621.4668,621.60077,64,45,0
621.60077,621.7347,62,46,0
621.7347,621.8686,64,47,0
621.8686,622.00256,66,48,0
622.00256,622.1365,67,49,0
622.1365,622.28015,69,50,0
622.28015,622.41174,71,51,0
622.41174,622.54333,73,52,0
622.54333,622.67487,74,53,0
622.67487,622.80646,76,54,0
622.80646,622.98193,78,55,0
622.98193,623.1169,79,56,0
623.16516,623.31,81,57,0
623.3583,623.57056,83,62,0
623.6413,623.8536,85,68,0
623.9243,624.4233,86,75,0
624.4233,624.60205,78,61,0
624.60205,625.4933,81,68,0
625.4933,625.7904,78,60,0
625.7904,626.2998,76,65,0
626.35645,626.86584,76,57,0
626.9225,627.4319,76,57,0
627.4885,628.00775,76,57,0
628.0654,628.3334,78,59,0
628.3334,628.59906,76,47,0
628.59906,628.85767,73,47,0
628.85767,629.1461,71,47,0
629.1461,629.6916,69,53,0
629.6916,630.1825,76,47,0
630.23706,630.72797,76,47,0
630.7825,631.2734,76,47,0
631.32794,631.601,78,58,0
631.601,631.8642,76,48,0
631.8642,632.13727,74,48,0
632.13727,632.4236,71,48,0
632.4236,632.9792,68,52,0
632.9792,633.4792,76,49,0
633.5347,634.0347,76,51,0
634.0903,634.5903,76,53,0
634.6458,634.909,78,65,0
634.909,635.1721,76,55,0
635.1721,635.4353,73,58,0
635.4353,635.72375,69,55,0
635.72375,635.98236,78,68,0
635.98236,636.241,76,57,0
636.241,636.49963,74,59,0
636.49963,636.7774,71,57,0
636.7774,637.0406,78,70,0
637.0406,637.3037,76,57,0
637.3037,637.5669,73,60,0
637.5669,637.88464,69,57,0
637.88464,639.0286,73,71,0
639.0286,639.31464,71,61,0
639.31464,639.6006,64,43,0
639.6006,639.87384,76,53,0
639.87384,640.1483,64,43,0
640.1483,640.4268,75,51,0
640.4268,640.70856,64,43,0
640.70856,640.99445,74,52,0
640.99445,641.28424,64,42,0
641.28424,642.3953,73,55,0
642.3953,643.6898,73,51,0
643.6898,643.77454,74,48,0
643.77454,643.8593,73,47,0
643.8593,643.94403,71,47,0
643.94403,644.2168,73,47,0
644.2168,644.50525,74,51,0
644.50525,645.03156,78,54,0
645.03156,645.30426,76,51,0
645.5927,646.1285,87,62,0
646.1285,646.42175,88,57,0
646.5684,646.7151,76,51,0
646.7151,646.9693,78,57,0
646.9693,647.2236,76,51,0
647.2236,647.4778,74,51,0
647.4778,647.7778,73,51,0
647.7778,648.3135,73,55,0
648.3135,649.3968,71,55,0
650.17523,650.26294,73,47,0
649.3968,650.35065,71,51,0
650.26294,650.35065,71,47,0
650.35065,650.43835,70,47,0
650.43835,650.7214,71,51,0
650.7214,651.0275,73,51,0
651.0275,651.54474,76,54,0
651.54474,651.8226,74,51,0
652.10034,652.63605,85,60,0
652.63605,652.9245,86,57,0
653.0687,653.21295,74,51,0
653.21295,653.47614,76,57,0
653.47614,653.73926,74,51,0
653.73926,654.00244,73,51,0
654.00244,654.27167,71,51,0
654.2909,654.8095,71,57,0
654.8095,655.59924,69,54,0
655.59924,655.85785,69,57,0
655.85785,656.13684,74,61,0
656.13684,656.45026,73,57,0
656.45026,656.7134,70,61,0
656.7134,656.97656,71,57,0
656.97656,657.23975,76,57,0
657.23975,657.50287,74,57,0
657.50287,657.78064,72,60,0
657.78064,658.0584,73,57,0
658.0584,658.3084,81,60,0
658.33624,658.5819,81,61,0
658.6083,658.84515,81,62,0
658.87195,659.1139,81,64,0
659.1412,659.38934,81,66,0
659.4171,659.67114,81,68,0
659.7,659.98303,81,69,0
659.98303,660.26605,78,59,0
660.26605,660.5491,74,62,0
660.5491,660.8321,71,59,0
660.8321,661.12915,76,64,0
661.12915,661.2282,78,59,0
661.2282,661.3272,76,59,0
661.3272,661.4263,75,59,0
661.4263,661.7233,76,64,0
661.7233,662.02045,78,61,0
662.02045,663.74994,69,66,0
663.74994,664.33746,68,45,0
663.74994,664.33746,71,45,0
664.3684,666.1812,71,52,0
666.1812,666.78326,72,51,0
664.3684,666.78326,68,52,0
666.78326,667.85077,69,51,0
666.78326,667.85077,73,51,0
667.85077,667.92706,64,61,0
667.92706,668.0033,69,62,0
668.0033,669.2946,73,68,0
669.2946,669.4701,76,63,0
669.4701,669.6455,74,63,0
669.6455,669.8209,73,66,0
669.8209,669.9964,74,62,0
669.9964,670.1718,76,62,0
670.1718,670.3473,74,66,0
670.3473,670.5227,78,62,0
670.5227,670.6981,76,62,0
670.6981,670.8736,74,66,0
670.8736,671.049,76,63,0
671.049,671.23486,78,63,0
671.23486,671.3738,76,62,0
671.3738,671.51263,69,63,0
671.51263,671.65155,71,64,0
671.65155,671.7904,73,65,0
671.7904,671.9293,74,65,0
671.9293,672.0628,76,65,0
672.0628,672.19916,78,66,0
672.19916,672.3355,80,67,0
672.3355,672.4719,81,68,0
672.4719,672.6083,83,69,0
672.6083,672.7446,85,70,0
672.7446,672.881,83,71,0
672.881,673.0149,81,71,0
673.0149,673.15326,80,70,0
673.15326,673.2928,78,70,0
673.2928,673.4325,77,69,0
673.4325,673.5737,78,68,0
673.5737,673.71497,80,67,0
673.71497,673.8562,81,65,0
673.8562,673.9991,80,64,0
673.9991,674.1421,83,62,0
674.1421,674.2856,81,61,0
674.2856,674.43036,80,59,0
674.43036,674.5752,78,58,0
674.5752,674.73865,76,62,0
674.90204,675.2103,88,52,0
675.2103,675.4981,85,52,0
675.4981,675.8073,81,60,0
675.8073,675.96844,76,52,0
676.1296,676.4156,81,52,0
676.4156,676.70154,76,51,0
676.70154,677.01935,73,51,0
677.01935,677.33716,76,57,0
677.33716,677.6305,74,51,0
677.6305,677.9276,73,51,0
677.9276,678.2696,71,51,0
678.2908,679.5797,71,58,0
678.2908,679.5797,68,51,0
679.5797,679.785,69,52,0
679.785,679.9292,64,45,0
679.97644,680.11774,66,45,0
680.164,680.3023,67,50,0
680.3478,680.4832,68,47,0
680.5279,680.66064,69,47,0
680.70447,680.83466,70,49,0
680.87775,681.0088,71,44,0
681.05334,681.1885,72,44,0
681.234,681.37354,73,48,0
681.41986,681.5575,74,44,0
681.6042,681.7549,75,44,0
681.8059,682.6351,76,57,0
682.6351,682.76666,78,47,0
682.76666,682.89825,76,47,0
682.89825,683.4155,74,58,0
683.4155,683.95123,73,53,0
683.95123,684.48694,71,57,0
684.48694,685.0609,69,52,0
685.0609,685.8645,69,61,0
685.8645,686.1078,78,55,0
686.1323,687.1493,78,59,0
687.1493,688.3546,62,68,0
688.3546,688.4886,66,44,0
688.4886,688.6225,64,45,0
688.6225,688.7564,62,46,0
688.7564,688.8904,64,47,0
688.8904,689.0243,66,48,0
689.0243,689.1582,67,49,0
689.1582,689.3019,69,50,0
689.3019,689.4335,71,51,0
689.4335,689.56506,73,52,0
689.56506,689.69666,74,53,0
689.69666,689.82825,76,54,0
689.82825,690.00366,78,55,0
690.00366,690.18695,79,56,0
690.18695,690.38,81,57,0
690.38,690.663,83,62,0
690.663,690.94604,85,68,0
690.94604,691.44507,86,75,0
691.44507,691.6238,78,61,0
691.6238,692.5151,81,68,0
692.5151,692.81213,78,60,0
692.81213,693.34985,76,65,0
693.3782,693.9159,76,57,0
693.9442,694.48193,76,57,0
694.51025,695.05835,76,57,0
695.08716,695.3551,78,60,0
695.3551,695.62305,76,50,0
695.62305,695.8862,73,50,0
695.8862,696.1747,71,50,0
696.1747,696.72015,69,55,0
696.72015,697.23834,76,46,0
697.26556,697.78375,76,46,0
697.81104,698.3292,76,46,0
698.3565,698.6151,78,61,0
698.6151,698.8783,76,51,0
698.8783,699.15137,74,51,0
699.15137,699.4377,71,51,0
699.4377,699.9932,68,54,0
699.9932,700.52106,76,52,0
700.5488,701.0766,76,53,0
701.1044,701.63214,76,55,0
701.6599,701.9278,78,65,0
701.9278,702.1956,76,55,0
702.1956,702.4635,73,58,0
702.4635,702.75195,69,54,0
702.75195,703.01056,78,68,0
703.01056,703.26917,76,56,0
703.26917,703.52783,74,59,0
703.52783,703.8056,71,54,0
703.8056,704.0598,78,70,0
704.0598,704.3141,76,56,0
704.3141,704.5683,73,60,0
704.5683,704.8861,69,55,0
704.8861,706.03,73,71,0
706.03,706.31604,71,61,0
706.31604,706.602,64,44,0
706.602,706.8753,76,53,0
706.8753,707.1498,64,40,0
707.1498,707.4282,75,51,0
707.4282,707.70996,64,39,0
707.70996,707.9959,74,52,0
707.9959,708.28564,64,40,0
708.28564,709.40985,73,55,0
709.40985,710.73236,73,51,0
710.73236,710.8157,74,48,0
710.8157,710.899,73,47,0
710.899,710.98236,71,47,0
710.98236,711.25507,73,47,0
711.25507,711.5435,74,51,0
711.5435,712.0608,78,54,0
712.0608,712.3335,76,51,0
712.62195,713.15765,87,61,0
713.15765,713.451,88,57,0
713.59766,713.7443,76,51,0
713.7443,713.99854,78,57,0
713.99854,714.2528,76,51,0
714.2528,714.507,74,51,0
714.507,714.787,73,51,0
714.807,715.3333,73,55,0
715.3333,716.40485,71,55,0
717.1899,717.2776,73,47,0
716.40485,717.3653,71,51,0
717.2776,717.3653,71,47,0
717.3653,717.453,70,47,0
717.453,717.736,71,51,0
717.736,718.0361,73,51,0
718.0361,718.5533,76,54,0
718.5533,718.83105,74,51,0
719.1088,719.6446,85,60,0
719.6446,719.93304,86,57,0
720.0773,720.2215,74,51,0
720.2215,720.4846,76,57,0
720.4846,720.7478,74,51,0
720.7478,721.011,73,51,0
721.011,721.27057,71,51,0
721.29944,721.83075,71,57,0
721.83075,722.6091,69,54,0
722.6091,722.8722,69,57,0
722.8722,723.1512,74,61,0
723.1512,723.4646,73,57,0
723.4646,723.7277,70,61,0
723.7277,723.9909,71,57,0
723.9909,724.2541,76,57,0
724.2541,724.5172,74,57,0
724.5172,724.795,72,60,0
724.795,725.07275,73,57,0
725.07275,725.30963,81,60,0
725.33594,725.5834,81,61,0
725.6123,725.8536,81,62,0
725.8804,726.13947,81,64,0
726.16876,726.4361,81,66,0
726.4662,726.74225,81,68,0
726.7732,727.0562,81,69,0
727.0562,727.33923,78,57,0
727.33923,727.62225,74,62,0
727.62225,727.9053,71,55,0
727.9053,728.20233,76,64,0
728.20233,728.3014,78,59,0
728.3014,728.4004,76,59,0
728.4004,728.49945,75,59,0
728.49945,728.7965,76,64,0
728.7965,729.0936,78,61,0
729.0936,730.8231,69,66,0
730.8231,731.41064,71,45,0
730.8231,731.41064,68,45,0
731.4416,733.2544,71,52,0
733.2544,733.85645,72,51,0
731.4416,733.85645,68,52,0
733.85645,734.92395,73,51,0
733.85645,734.92395,69,51,0
734.92395,735.00024,64,61,0
735.00024,735.0765,69,62,0
735.0765,736.3678,73,68,0
736.3678,736.5433,76,63,0
736.5433,736.7187,74,63,0
736.7187,736.8941,73,66,0
736.8941,737.0696,74,62,0
737.0696,737.245,76,62,0
737.245,737.4205,74,66,0
737.4205,737.5959,78,62,0
737.5959,737.7713,76,62,0
737.7713,737.9468,74,66,0
737.9468,738.1222,76,63,0
738.1222,738.30804,78,63,0
738.30804,738.44696,76,62,0
738.44696,738.5858,69,63,0
738.5858,738.72473,71,64,0
738.72473,738.8636,73,65,0
738.8636,739.0025,74,65,0
739.0025,739.136,76,65,0
739.136,739.27234,78,66,0
739.27234,739.4087,80,67,0
739.4087,739.5451,81,68,0
739.5451,739.68146,83,69,0
739.68146,739.8178,85,70,0
739.8178,739.95416,83,71,0
739.95416,740.0881,81,71,0
740.0881,740.2265,80,70,0
740.2265,740.36597,78,70,0
740.36597,740.5057,77,69,0
740.5057,740.6469,78,68,0
740.6469,740.78815,80,67,0
740.78815,740.9294,81,65,0
740.9294,741.07227,80,64,0
741.07227,741.2153,83,62,0
741.2153,741.35876,81,61,0
741.35876,741.50354,80,59,0
741.50354,741.6484,78,58,0
741.6484,741.7932,76,62,0
741.938,742.22766,88,52,0
742.22766,742.51544,85,52,0
742.51544,742.82465,81,60,0
742.82465,742.9858,76,52,0
743.1469,743.43286,81,52,0
743.43286,743.7189,76,51,0
743.7189,744.0367,73,51,0
744.0367,744.3545,76,57,0
744.3545,744.67365,74,47,0
744.67365,744.9928,73,51,0
744.9928,745.5017,71,46,0
745.5285,747.3467,71,41,0
745.5285,747.3467,68,36,0
745.5285,747.3467,64,32,0
747.3467,749.16486,69,34,0
753.8862,753.9435,73,50,0
754.0852,754.11237,74,47,0
754.11237,754.2203,73,47,0
754.2203,754.3282,71,52,0
754.3282,754.38135,73,47,0
754.54095,754.5953,74,51,0
754.75836,754.9839,78,53,0
754.9839,755.1997,76,46,0
755.1997,755.25366,74,51,0
755.4156,755.4719,73,49,0
755.6411,755.6988,71,50,0
755.841,755.8678,73,46,0
755.8678,755.9749,71,46,0
755.9749,756.08203,70,50,0
756.08203,756.13525,71,46,0
756.2948,756.34875,73,47,0
756.5107,756.73456,76,50,0
756.73456,756.9504,74,47,0
756.9504,757.00433,73,47,0
757.1662,757.2226,71,47,0
757.3917,757.6076,68,53,0
757.6076,757.6636,69,50,0
758.0473,758.10284,70,50,0
758.48535,758.54047,71,50,0
758.92175,758.9777,72,50,0
759.1177,759.1456,74,41,0
759.1456,759.1996,73,54,0
759.36145,759.4154,73,50,0
759.5503,759.5773,76,41,0
759.5773,759.632,74,50,0
759.79626,759.8535,74,50,0
760.02527,760.46326,73,55,0
760.46326,760.68713,71,50,0
760.911,761.0189,73,78,0
761.0189,761.12683,69,63,0
761.12683,761.23474,64,63,0
761.23474,761.34265,69,63,0
761.34265,761.45056,73,78,0
761.45056,761.5585,69,64,0
761.5585,761.6704,74,78,0
761.6704,761.78235,71,64,0
761.78235,761.888,76,79,0
761.888,761.9936,73,66,0
761.9936,762.09924,76,81,0
762.09924,762.2049,73,68,0
762.2049,762.3144,78,84,0
762.3144,762.4239,76,82,0
762.4239,762.5333,74,80,0
762.5333,762.6428,73,79,0
762.6428,762.75073,71,77,0
762.75073,762.85864,68,64,0
762.85864,762.9666,64,64,0
762.9666,763.0745,68,64,0
763.0745,763.18243,71,78,0
763.18243,763.29034,68,63,0
763.29034,763.40063,73,79,0
763.40063,763.5109,69,63,0
763.5109,763.6166,74,80,0
763.6166,763.72217,71,64,0
763.72217,763.8278,74,80,0
763.8278,763.9335,71,69,0
763.9335,764.0406,76,84,0
764.0406,764.1477,74,84,0
764.1477,764.2549,73,81,0
764.2549,764.362,71,79,0
764.362,764.47394,69,82,0
764.47394,764.5859,73,66,0
764.5859,764.6946,71,66,0
764.6946,764.8033,69,66,0
764.8033,764.9161,71,85,0
764.9161,765.0289,74,66,0
765.0289,765.1368,73,66,0
765.1368,765.2447,71,66,0
765.2447,765.355,73,82,0
765.355,765.4653,76,69,0
765.4653,765.5732,81,74,0
765.5732,765.6811,76,69,0
765.6811,765.789,78,83,0
765.789,765.8969,81,71,0
765.8969,766.0097,74,71,0
766.0097,766.1225,78,71,0
766.1225,766.2312,73,84,0
766.2312,766.3399,76,69,0
766.3399,766.4486,69,80,0
766.4486,766.55725,73,69,0
766.55725,766.66675,71,81,0
766.66675,766.77625,74,69,0
766.77625,766.88574,68,81,0
766.88574,766.99524,71,69,0
766.99524,767.1055,69,79,0
767.1055,767.2158,64,69,0
767.2158,767.3261,61,69,0
767.3261,767.4364,64,69,0
767.4364,767.9137,69,82,0
767.9819,768.0391,73,50,0
768.1808,768.20795,74,47,0
768.20795,768.31586,73,47,0
768.31586,768.42377,71,52,0
768.42377,768.477,73,47,0
768.63654,768.6909,74,51,0
768.85394,769.0795,78,53,0
769.0795,769.29535,76,46,0
769.29535,769.3493,74,51,0
769.51117,769.56757,73,49,0
769.73676,769.79443,71,50,0
769.9366,769.9634,73,46,0
769.9634,770.0705,71,46,0
770.0705,770.1777,70,50,0
770.1777,770.23083,71,46,0
770.39044,770.4444,73,47,0
770.60626,770.83014,76,50,0
770.83014,771.04596,74,47,0
771.04596,771.0999,73,47,0
771.2618,771.3182,71,47,0
771.48737,771.7032,68,53,0
771.7032,771.75916,69,50,0
772.1429,772.1984,70,50,0
772.58093,772.6361,71,50,0
773.01733,773.0733,72,50,0
773.21326,773.2412,74,41,0
773.2412,773.2952,73,54,0
773.4571,773.51105,73,50,0
773.64594,773.6729,76,41,0
773.6729,773.72766,74,50,0
773.89185,773.9491,74,50,0
774.1209,774.55884,73,55,0
774.55884,774.7827,71,50,0
775.0066,775.1145,73,78,0
775.1145,775.2224,69,63,0
775.2224,775.3303,64,63,0
775.3303,775.43823,69,63,0
775.43823,775.54614,73,78,0
775.54614,775.65405,69,64,0
775.65405,775.766,74,78,0
775.766,775.878,71,64,0
775.878,775.9836,76,79,0
775.9836,776.08923,73,66,0
776.08923,776.1949,76,81,0
776.1949,776.3005,73,68,0
776.3005,776.41,78,84,0
776.41,776.5195,76,82,0
776.5195,776.62897,74,80,0
776.62897,776.73846,73,79,0
776.73846,776.8464,71,77,0
776.8464,776.9543,68,64,0
776.9543,777.0622,64,64,0
777.0622,777.1701,68,64,0
777.1701,777.278,71,78,0
777.278,777.3859,68,63,0
777.3859,777.4962,73,79,0
777.4962,777.6065,69,63,0
777.6065,777.71216,74,80,0
777.71216,777.8178,71,64,0
777.8178,777.9234,74,80,0
777.9234,778.02905,71,69,0
778.02905,778.1362,76,84,0
778.1362,778.24335,74,84,0
778.24335,778.35046,73,81,0
778.35046,778.45764,71,79,0
778.45764,778.5696,69,82,0
778.5696,778.6815,73,66,0
778.6815,778.7902,71,66,0
778.7902,778.8989,69,66,0
778.8989,779.01166,71,85,0
779.01166,779.12445,74,66,0
779.12445,779.23236,73,66,0
779.23236,779.3403,71,66,0
779.3403,779.45056,73,82,0
779.45056,779.56085,76,69,0
779.56085,779.6688,81,74,0
779.6688,779.77673,76,69,0
779.77673,779.88464,78,83,0
779.88464,779.99255,81,71,0
779.99255,780.10535,74,71,0
780.10535,780.2181,78,71,0
780.2181,780.3268,73,84,0
780.3268,780.4355,76,69,0
780.4355,780.5442,69,80,0
780.5442,780.6529,73,69,0
780.6529,780.7624,71,81,0
780.7624,780.8719,74,69,0
780.8719,780.9813,68,81,0
780.9813,781.0908,71,69,0
781.0908,781.2011,69,79,0
781.2011,781.3114,64,69,0
781.3114,781.4217,61,69,0
781.4217,781.53204,64,69,0
781.53204,782.03204,69,82,0
782.03204,782.13916,69,55,0
782.13916,782.2463,71,49,0
782.2463,782.35345,73,50,0
782.35345,782.4606,74,50,0
782.4606,782.56775,76,51,0
782.56775,782.67487,78,52,0
782.67487,782.78204,80,53,0
782.78204,782.89655,81,54,0
782.89655,783.00366,80,56,0
783.00366,783.11237,78,50,0
783.11237,783.22266,77,52,0
783.22266,783.33295,78,50,0
783.33295,783.44324,77,52,0
783.44324,783.5535,78,50,0
783.5535,783.6638,77,52,0
783.6638,783.78015,78,50,0
783.78015,783.8896,81,55,0
783.8896,783.9991,80,51,0
783.9991,784.1086,81,55,0
784.1086,784.2181,80,51,0
784.2181,784.3276,83,54,0
784.3276,784.4371,81,55,0
784.4371,784.5466,80,56,0
784.5466,784.6656,78,58,0
784.6656,784.7735,78,59,0
784.7735,784.88385,76,54,0
784.88385,784.99664,75,58,0
784.99664,785.10944,76,52,0
785.10944,785.2222,75,54,0
785.2222,785.33496,76,50,0
785.33496,785.44775,75,55,0
785.44775,785.61865,76,51,0
785.61865,785.7266,76,74,0
785.7266,785.83453,81,72,0
785.83453,785.94244,85,75,0
785.94244,786.05035,83,71,0
786.05035,786.15826,81,74,0
786.15826,786.2662,80,74,0
786.2662,786.3781,78,73,0
786.3781,786.49005,76,72,0
786.49005,786.5957,74,74,0
786.5957,786.7013,80,69,0
786.7013,786.80695,83,77,0
786.80695,786.9126,81,73,0
786.9126,787.0221,80,76,0
787.0221,787.13153,78,74,0
787.13153,787.241,76,73,0
787.241,787.3505,74,71,0
787.3505,787.4737,73,73,0
787.46246,787.58563,76,70,0
787.5744,787.6976,81,73,0
787.68634,787.8095,80,70,0
787.7983,787.92145,78,73,0
787.9102,788.0332,76,71,0
788.02216,788.1435,74,73,0
788.13245,788.25336,73,70,0
788.24274,788.35895,71,72,0
788.3484,788.4646,69,68,0
788.45404,788.57025,68,66,0
788.5597,788.676,66,64,0
788.6653,788.772,64,61,0
789.0993,789.15656,73,50,0
789.2983,789.32544,74,47,0
789.32544,789.43335,73,47,0
789.43335,789.54126,71,52,0
789.54126,789.5944,73,47,0
789.754,789.80835,74,51,0
789.97144,790.19696,78,53,0
790.19696,790.4128,76,46,0
790.4128,790.46674,74,51,0
790.6286,790.685,73,49,0
790.8542,790.91187,71,50,0
791.0541,791.0809,73,46,0
791.0809,791.188,71,46,0
791.188,791.2951,70,50,0
791.2951,791.3483,71,46,0
791.5079,791.5618,73,47,0
791.7237,791.94763,76,50,0
791.94763,792.16345,74,47,0
792.16345,792.2174,73,47,0
792.3793,792.43567,71,47,0
792.6048,792.8207,68,53,0
792.8207,792.87665,69,50,0
793.2604,793.3159,71,50,0
793.67145,793.6984,72,40,0
793.6984,793.75354,73,50,0
794.10785,794.1348,76,40,0
794.1348,794.1908,74,50,0
794.54755,794.5745,74,40,0
794.5745,794.6285,73,50,0
794.98193,795.00934,73,40,0
795.00934,795.0763,71,50,0
795.2772,795.5358,71,51,0
795.5358,795.79443,72,51,0
795.2772,795.79443,68,43,0
795.79443,796.03064,73,48,0
795.79443,796.03064,69,40,0
796.26685,796.3788,73,82,0
796.3788,796.4908,69,66,0
796.4908,796.5994,76,81,0
796.5994,796.7081,73,66,0
796.7081,796.8209,74,85,0
796.8209,796.9337,71,66,0
796.9337,797.0416,78,79,0
797.0416,797.14954,74,66,0
797.14954,797.2598,76,82,0
797.2598,797.3701,73,69,0
797.3701,797.478,81,74,0
797.478,797.58594,76,69,0
797.58594,797.69385,80,83,0
797.69385,797.80176,78,71,0
797.80176,797.91455,76,71,0
797.91455,798.02734,74,71,0
798.02734,798.13605,73,84,0
798.13605,798.24475,76,69,0
798.24475,798.35345,69,80,0
798.35345,798.4621,73,69,0
798.4621,798.5716,71,81,0
798.5716,798.6811,74,69,0
798.6811,798.7906,68,81,0
798.7906,798.9001,71,69,0
798.9001,799.0104,69,79,0
799.0104,799.12067,64,69,0
799.12067,799.23096,61,69,0
799.23096,799.34125,64,69,0
799.34125,799.81854,69,82,0
799.8867,799.99384,69,55,0
799.99384,800.101,71,49,0
800.101,800.2081,73,50,0
800.2081,800.3153,74,50,0
800.3153,800.4224,76,51,0
800.4224,800.52954,78,52,0
800.52954,800.6367,80,53,0
800.6367,800.7512,81,54,0
800.7512,800.85834,80,56,0
800.85834,800.9671,78,50,0
800.9671,801.0774,77,52,0
801.0774,801.1877,78,50,0
801.1877,801.298,77,52,0
801.298,801.40826,78,50,0
801.40826,801.51855,77,52,0
801.51855,801.6348,78,50,0
801.6348,801.7443,81,55,0
801.7443,801.8538,80,51,0
801.8538,801.9633,81,55,0
801.9633,802.07275,80,51,0
802.07275,802.18225,83,54,0
802.18225,802.29175,81,55,0
802.29175,802.40125,80,56,0
802.40125,802.5203,78,58,0
802.5203,802.62823,78,59,0
802.62823,802.7386,76,54,0
802.7386,802.8513,75,58,0
802.8513,802.9641,76,52,0
802.9641,803.0769,75,54,0
803.0769,803.1897,76,50,0
803.1897,803.3025,75,55,0
803.3025,803.4734,76,51,0
803.4734,803.5813,76,74,0
803.5813,803.6892,81,72,0
803.6892,803.7971,85,75,0
803.7971,803.905,83,71,0
803.905,804.01294,81,74,0
804.01294,804.12085,80,74,0
804.12085,804.2328,78,73,0
804.2328,804.3447,76,72,0
804.3447,804.4504,74,74,0
804.4504,804.556,80,69,0
804.556,804.6616,83,77,0
804.6616,804.7673,81,73,0
804.7673,804.8768,80,76,0
804.8768,804.98627,78,74,0
804.98627,805.09576,76,73,0
805.09576,805.20526,74,71,0
805.20526,805.32837,73,73,0
805.3172,805.4403,76,70,0
805.42914,805.55225,81,73,0
805.5411,805.6642,80,70,0
805.653,805.7761,78,73,0
805.76495,805.8879,76,71,0
805.8769,805.9982,74,73,0
805.9872,806.10803,73,70,0
806.0975,806.2137,71,72,0
806.2031,806.3193,69,68,0
806.3087,806.4249,68,66,0
806.41437,806.5307,66,64,0
806.52,806.62665,64,61,0
806.95404,807.0113,73,50,0
807.15295,807.1801,74,47,0
807.1801,807.288,73,47,0
807.288,807.39594,71,52,0
807.39594,807.44916,73,47,0
807.6087,807.6631,74,51,0
807.8261,808.0517,78,53,0
808.0517,808.2675,76,46,0
808.2675,808.3215,74,51,0
808.48334,808.53973,73,49,0
808.7089,808.7666,71,50,0
808.90875,808.93555,73,46,0
808.93555,809.04266,71,46,0
809.04266,809.14984,70,50,0
809.14984,809.203,71,46,0
809.3626,809.41656,73,47,0
809.5784,809.8023,76,50,0
809.8023,810.0181,74,47,0
810.0181,810.0721,73,47,0
810.23395,810.29034,71,47,0
810.45953,810.67535,68,53,0
810.67535,810.7313,69,50,0
811.11505,811.1706,71,50,0
811.5261,811.5531,72,40,0
811.5531,811.6083,73,50,0
811.9625,811.9895,76,40,0
811.9895,812.0455,74,50,0
812.4022,812.42926,74,40,0
812.42926,812.4832,73,50,0
812.8367,812.864,73,40,0
812.864,812.93097,71,50,0
813.1319,813.3905,71,51,0
813.3905,813.6491,72,51,0
813.1319,813.6491,68,43,0
813.6491,813.8854,73,48,0
813.6491,813.8854,69,40,0
814.1216,814.2335,73,82,0
814.2335,814.34546,69,66,0
814.34546,814.45416,76,81,0
814.45416,814.56287,73,66,0
814.56287,814.6756,74,85,0
814.6756,814.7884,71,66,0
814.7884,814.8963,78,79,0
814.8963,815.0042,74,66,0
815.0042,815.1145,76,82,0
815.1145,815.22485,73,69,0
815.22485,815.33276,81,74,0
815.33276,815.4407,76,69,0
815.4407,815.5486,80,83,0
815.5486,815.6565,78,71,0
815.6565,815.7693,76,71,0
815.7693,815.882,74,71,0
815.882,815.9907,73,84,0
815.9907,816.0994,76,69,0
816.0994,816.2081,69,80,0
816.2081,816.31683,73,69,0
816.31683,816.42633,71,81,0
816.42633,816.5358,74,69,0
816.5358,816.6453,68,81,0
816.6453,816.7703,71,69,0
816.7817,816.89197,69,51,0
816.89197,817.00226,71,49,0
817.00226,817.11255,73,50,0
817.11255,817.2225,74,51,0
817.2225,817.33167,76,52,0
817.33167,817.44214,78,53,0
817.44214,817.5538,80,54,0
817.5538,817.64795,81,55,0
817.6669,817.77637,80,55,0
817.77637,817.88586,78,51,0
817.88586,817.99536,77,55,0
817.99536,818.10486,78,51,0
818.10486,818.21436,83,48,0
818.21436,818.32385,81,50,0
818.32385,818.37854,80,52,0
818.4333,818.49286,78,54,0
818.55237,818.6603,78,56,0
818.6603,818.7706,76,47,0
818.7706,818.8834,75,54,0
818.8834,818.9962,76,47,0
818.9962,819.10895,69,52,0
819.10895,819.22174,73,46,0
819.22174,819.338,76,52,0
819.338,819.4543,81,46,0
819.4543,819.5638,80,55,0
819.5638,819.6733,78,51,0
819.6733,819.7828,77,55,0
819.7828,819.8923,78,51,0
819.8923,820.0018,83,48,0
820.0018,820.11127,81,50,0
820.11127,820.166,80,52,0
820.2207,820.2803,78,54,0
820.3398,820.6269,76,52,0
820.6301,820.68256,76,52,0
820.68256,820.71265,78,38,0
820.71265,820.7428,76,37,0
820.7428,820.7729,75,37,0
820.7729,821.15753,76,52,0
821.4423,821.4959,74,52,0
821.4959,821.5257,76,35,0
821.5257,821.5554,74,35,0
821.5554,821.5852,73,35,0
821.5852,821.9748,74,52,0
822.26514,822.3199,73,52,0
822.3199,822.3493,74,36,0
822.3493,822.3787,73,36,0
822.3787,822.4081,71,36,0
822.4081,822.7977,73,52,0
823.0862,823.1413,71,52,0
823.1413,823.1704,73,35,0
823.1704,823.19946,71,35,0
823.19946,823.2285,69,35,0
823.2285,823.6259,71,52,0
823.737,823.8481,76,60,0
823.8481,823.95526,75,71,0
823.95526,824.0624,76,64,0
824.0624,824.16956,78,71,0
824.16956,824.2767,76,64,0
824.2767,824.3912,75,64,0
824.3912,824.5057,76,64,0
824.6168,824.7279,74,60,0
824.7279,824.83704,73,71,0
824.83704,824.94415,74,64,0
824.94415,825.05133,76,71,0
825.05133,825.15845,74,64,0
825.15845,825.2706,73,64,0
825.2706,825.3878,74,64,0
825.4973,825.6068,73,60,0
825.6068,825.7155,72,71,0
825.7155,825.8234,73,64,0
825.8234,825.93134,74,71,0
825.93134,826.03925,73,64,0
826.03925,826.1512,72,64,0
826.1512,826.2631,73,64,0
826.3734,826.4837,71,60,0
826.4837,826.5908,70,71,0
826.5908,826.698,71,64,0
826.698,826.8051,73,71,0
826.8051,826.9123,71,64,0
826.9123,827.0234,70,64,0
827.0234,827.1345,71,64,0
827.1345,827.2565,69,73,0
827.3784,827.4863,73,50,0
827.4863,827.59424,69,49,0
827.59424,827.70215,76,55,0
827.70215,827.81006,74,48,0
827.81006,827.864,71,48,0
827.91797,827.9719,68,47,0
828.0259,828.4575,69,60,0
828.4575,828.56866,76,80,0
828.4575,828.56866,71,67,0
828.4575,828.56866,68,67,0
828.902,829.022,81,86,0
828.902,829.022,69,73,0
828.902,829.022,73,73,0
828.902,829.022,76,73,0
829.14197,829.2572,73,52,0
829.24835,829.35474,69,50,0
829.35474,829.46265,76,57,0
829.46265,829.57056,74,50,0
829.57056,829.6245,71,50,0
829.67847,829.7324,68,50,0
829.7864,829.9027,69,62,0
830.2515,830.3797,76,82,0
830.2515,830.3797,71,70,0
830.2515,830.3797,68,70,0
830.76434,830.9032,81,89,0
830.76434,830.9032,69,75,0
830.76434,830.9032,73,75,0
830.76434,830.9032,76,75,0
0.0,0.70854974,57,45,0
0.70854974,0.92164826,59,35,0
0.0,0.92164826,64,38,0
0.92164826,1.4308997,64,29,0
0.92164826,1.4308997,57,35,0
1.4308997,2.3756328,61,39,0
1.4308997,2.3756328,64,29,0
2.3756328,2.8590705,64,23,0
2.3756328,2.8590705,61,32,0
2.9127858,3.604774,56,45,0
3.604774,3.8178725,57,38,0
2.9127858,3.8178725,64,38,0
3.8178725,4.3019776,64,32,0
3.8178725,4.3019776,56,38,0
4.3019776,5.2138314,59,38,0
4.3019776,5.2138314,64,36,0
5.2138314,5.672158,59,31,0
5.2138314,5.672158,64,28,0
5.723083,6.645734,64,36,0
5.723083,6.645734,54,43,0
6.645734,7.129839,54,38,0
6.645734,7.129839,64,32,0
7.129839,8.05249,64,39,0
7.129839,8.05249,56,46,0
8.05249,8.555255,64,34,0
8.05249,8.555255,56,41,0
8.555255,9.417076,57,45,0
8.555255,9.417076,64,38,0
9.417076,9.891242,50,38,0
9.891242,11.370552,52,45,0
11.370552,12.079102,57,45,0
12.079102,12.2922,59,35,0
11.370552,12.2922,64,38,0
12.2922,12.801452,57,35,0
12.2922,12.801452,64,29,0
12.801452,13.746185,64,29,0
12.801452,13.746185,61,39,0
13.746185,14.229623,61,32,0
13.746185,14.229623,64,23,0
14.283338,14.975327,56,45,0
14.975327,15.188425,57,38,0
14.283338,15.188425,64,38,0
15.188425,15.67253,56,38,0
15.188425,15.67253,64,32,0
15.67253,16.584383,64,36,0
15.67253,16.584383,59,40,0
16.584383,17.036873,59,31,0
16.584383,17.036873,64,28,0
17.087149,18.031881,54,45,0
17.087149,18.031881,64,37,0
18.031881,18.528242,64,49,0
18.031881,18.528242,56,49,0
18.528242,19.472975,64,55,0
18.528242,19.472975,57,55,0
19.472975,20.025257,50,55,0
20.025257,21.084953,52,46,0
21.084953,21.70736,40,36,0
21.70736,22.827599,45,34,0
23.387718,24.096268,57,38,0
24.096268,24.309366,59,29,0
23.387718,24.309366,64,32,0
24.309366,24.818619,64,24,0
24.309366,24.818619,57,29,0
24.818619,25.763351,61,33,0
24.818619,25.763351,64,29,0
25.763351,26.24679,61,26,0
25.763351,26.24679,64,23,0
26.300505,26.992493,56,38,0
26.992493,27.205591,57,32,0
26.300505,27.205591,64,32,0
27.205591,27.689695,56,32,0
27.205591,27.689695,64,27,0
27.689695,28.601551,64,30,0
27.689695,28.601551,59,32,0
28.601551,29.059877,59,26,0
28.601551,29.059877,64,23,0
29.110802,30.033453,54,36,0
29.110802,30.033453,64,30,0
30.033453,30.517557,64,27,0
30.033453,30.517557,54,32,0
30.517557,31.440208,56,39,0
30.517557,31.440208,64,33,0
31.440208,31.942974,56,34,0
31.440208,31.942974,64,28,0
31.942974,32.804794,64,32,0
31.942974,32.804794,57,38,0
32.804794,33.27896,50,32,0
33.27896,34.75827,52,38,0
34.75827,35.46682,57,45,0
35.46682,35.67992,59,35,0
34.75827,35.67992,64,38,0
35.67992,36.18917,57,35,0
35.67992,36.18917,64,29,0
36.18917,37.133904,64,35,0
36.18917,37.133904,61,39,0
37.133904,37.61734,64,28,0
37.133904,37.61734,61,32,0
37.67106,38.363045,56,45,0
38.363045,38.576145,57,38,0
37.67106,38.576145,64,38,0
38.576145,39.06025,56,38,0
38.576145,39.06025,64,32,0
39.06025,39.972103,64,36,0
39.06025,39.972103,59,40,0
39.972103,40.42459,64,28,0
39.972103,40.42459,59,31,0
40.47487,41.4196,54,45,0
40.47487,41.4196,64,37,0
41.4196,41.915962,56,49,0
41.4196,41.915962,64,49,0
41.915962,42.860695,64,55,0
41.915962,42.860695,57,55,0
42.860695,43.412975,50,55,0
43.412975,44.47267,52,46,0
44.47267,45.095078,40,36,0
45.095078,46.215317,45,34,0
46.775436,47.223198,57,39,0
47.223198,47.66018,61,33,0
47.66018,48.144283,64,34,0
48.144283,48.579063,57,37,0
48.579063,49.013847,62,32,0
49.013847,49.516613,66,32,0
49.516613,49.971157,57,39,0
49.971157,50.41153,62,33,0
50.41153,50.895634,66,34,0
50.895634,51.346355,57,37,0
51.346355,51.813137,61,32,0
51.813137,52.059036,64,32,0
52.30494,53.173042,57,51,0
52.30494,53.173042,61,51,0
53.64541,54.513508,62,43,0
53.64541,54.513508,56,43,0
54.985874,55.84811,57,50,0
54.985874,55.84811,61,50,0
55.84811,56.312088,63,48,0
55.84811,56.312088,54,48,0
56.354267,57.77023,52,40,0
56.354267,57.77023,64,40,0
57.82624,58.53479,57,45,0
58.53479,58.74789,59,35,0
57.82624,58.74789,64,38,0
58.74789,59.25714,64,29,0
58.74789,59.25714,57,35,0
59.25714,60.201874,61,39,0
59.25714,60.201874,64,35,0
60.201874,60.68531,61,32,0
60.201874,60.68531,64,28,0
60.739025,61.431015,56,45,0
61.431015,61.64411,57,38,0
60.739025,61.64411,64,38,0
61.64411,62.12822,64,32,0
61.64411,62.12822,56,38,0
62.12822,63.040073,64,36,0
62.12822,63.040073,59,40,0
63.040073,63.49256,59,31,0
63.040073,63.49256,64,28,0
63.54284,64.48757,54,45,0
63.54284,64.48757,64,37,0
64.48757,65.01742,64,49,0
64.48757,65.01742,56,49,0
65.01742,65.96215,64,55,0
65.01742,65.96215,57,55,0
65.96215,66.484985,50,55,0
66.484985,67.44146,52,46,0
67.44146,68.00975,40,45,0
68.00975,69.57824,45,42,0
69.57824,70.57096,45,48,0
69.57824,70.57096,57,57,0
70.57096,71.108116,59,63,0
70.57096,71.108116,47,53,0
71.108116,72.12576,61,69,0
71.108116,72.12576,49,57,0
72.12576,72.65561,50,32,0
72.12576,72.65561,62,38,0
72.65561,73.72992,61,41,0
72.65561,73.72992,52,34,0
73.72992,74.32409,52,34,0
73.72992,74.32409,62,40,0
74.32409,75.51244,57,34,0
74.32409,75.51244,61,40,0
76.10662,76.55438,57,39,0
76.55438,76.99136,61,33,0
76.99136,77.47547,64,34,0
77.47547,77.91025,57,37,0
77.91025,78.34503,62,32,0
78.34503,78.8478,66,32,0
78.8478,79.302345,57,39,0
79.302345,79.742714,62,33,0
79.742714,80.22682,66,34,0
80.22682,80.67754,57,37,0
80.67754,81.144325,61,32,0
81.144325,81.39895,64,32,0
81.65357,82.521675,61,51,0
81.65357,82.521675,57,51,0
82.99404,83.862144,56,43,0
82.99404,83.862144,62,43,0
84.33451,85.202614,61,50,0
84.33451,85.202614,57,50,0
85.202614,85.65761,54,48,0
85.202614,85.65761,63,48,0
85.698975,87.11494,64,40,0
85.698975,87.11494,52,40,0
87.170944,87.87949,57,38,0
87.87949,88.09259,59,29,0
87.170944,88.09259,64,32,0
88.09259,88.601845,57,29,0
88.09259,88.601845,64,24,0
88.601845,89.54658,64,29,0
88.601845,89.54658,61,33,0
89.54658,90.030014,64,23,0
89.54658,90.030014,61,26,0
90.08373,90.77572,56,38,0
90.77572,90.988815,57,32,0
90.08373,90.988815,64,32,0
90.988815,91.47292,64,27,0
90.988815,91.47292,56,32,0
91.47292,92.38477,64,30,0
91.47292,92.38477,59,34,0
92.38477,92.837265,64,23,0
92.38477,92.837265,59,26,0
92.88754,93.832275,54,45,0
92.88754,93.832275,64,37,0
93.832275,94.36212,56,49,0
93.832275,94.36212,64,49,0
94.36212,95.306854,57,55,0
94.36212,95.306854,64,55,0
95.306854,95.85914,50,55,0
95.85914,96.81562,52,52,0
96.81562,97.37574,40,51,0
97.37574,98.965965,45,48,0
98.965965,99.97828,45,48,0
98.965965,99.97828,57,57,0
99.97828,100.54156,59,63,0
99.97828,100.54156,47,53,0
100.54156,101.68784,61,69,0
100.54156,101.68784,49,57,0
101.68784,102.246635,50,32,0
101.68784,102.246635,62,38,0
102.246635,103.369354,61,39,0
102.246635,103.369354,52,32,0
103.369354,104.04133,62,36,0
103.369354,104.04133,52,30,0
104.04133,105.504745,57,30,0
104.04133,105.504745,61,36,0
109.0308,109.16239,57,30,0
109.0308,109.16239,64,39,0
110.10666,110.235245,64,39,0
110.10666,110.235245,61,30,0
111.16402,111.30642,64,39,0
111.16402,111.30642,56,30,0
112.239555,112.36963,64,39,0
112.239555,112.36963,59,30,0
113.3117,113.44329,64,45,0
113.3117,113.44329,54,34,0
114.38981,114.5287,56,35,0
114.38981,114.5287,64,46,0
115.10241,115.84005,57,33,0
115.10241,115.84005,64,42,0
115.84005,116.1925,50,33,0
115.84005,116.1925,54,39,0
116.1925,116.91521,56,42,0
116.1925,116.91521,52,33,0
117.2933,117.47402,45,65,0
117.47402,117.609566,57,59,0
117.65475,117.79029,57,59,0
117.835464,117.97101,57,59,0
118.01619,118.15173,57,59,0
118.196915,118.34302,57,59,0
118.391716,118.57244,45,65,0
118.57244,118.707985,57,59,0
118.75317,118.88871,57,59,0
118.93389,119.06943,57,58,0
119.11461,119.25015,57,58,0
119.295334,119.43088,57,58,0
119.47606,119.656784,40,65,0
119.656784,119.79232,52,57,0
119.8375,119.973045,52,57,0
120.01823,120.15377,52,57,0
120.19895,120.341354,52,57,0
120.388824,120.53123,52,57,0
120.5787,120.75727,40,65,0
120.75727,120.8912,52,58,0
120.93584,121.06977,52,58,0
121.11441,121.24834,52,58,0
121.292984,121.43187,52,58,0
121.478165,121.61706,52,58,0
121.66335,121.83982,42,65,0
121.83982,121.972176,54,57,0
122.0163,122.14864,54,57,0
122.192764,122.329956,54,57,0
122.375694,122.55216,44,65,0
122.55216,122.72863,56,57,0
122.72863,122.905106,45,65,0
122.905106,123.03745,57,58,0
123.08157,123.22046,57,58,0
123.26676,123.40565,57,59,0
123.45194,123.62841,38,65,0
123.62841,123.804886,50,59,0
123.804886,123.98135,40,65,0
123.98135,124.11371,52,58,0
124.15783,124.298454,52,58,0
124.34533,124.485954,52,58,0
124.53283,124.72033,40,65,0
124.72033,124.90783,52,56,0
124.90783,125.28283,33,75,0
125.28283,125.65783,45,67,0
126.38371,126.51926,64,39,0
126.38371,126.51926,57,30,0
127.47041,127.60049,64,39,0
127.47041,127.60049,61,30,0
128.54181,128.67735,64,39,0
128.54181,128.67735,56,30,0
129.64003,129.76862,64,39,0
129.64003,129.76862,59,30,0
130.71812,130.84819,64,45,0
130.71812,130.84819,54,34,0
131.79184,131.92043,56,35,0
131.79184,131.92043,64,46,0
132.49284,133.22792,57,33,0
132.49284,133.22792,64,42,0
133.22792,133.58037,50,33,0
133.22792,133.58037,54,39,0
133.58037,134.30309,52,33,0
133.58037,134.30309,56,42,0
134.68117,134.8619,45,65,0
134.8619,134.99744,57,59,0
135.04262,135.17816,57,59,0
135.22334,135.35889,57,59,0
135.40407,135.53961,57,59,0
135.5848,135.7309,57,59,0
135.7796,135.96031,45,65,0
135.96031,136.09586,57,59,0
136.14104,136.27658,57,59,0
136.32176,136.4573,57,58,0
136.50249,136.63803,57,58,0
136.68321,136.81876,57,58,0
136.86394,137.04466,40,65,0
137.04466,137.18019,52,57,0
137.22537,137.36092,52,57,0
137.4061,137.54164,52,57,0
137.58682,137.72923,52,57,0
137.7767,137.9191,52,57,0
137.96657,138.14514,40,65,0
138.14514,138.27907,52,58,0
138.32372,138.45764,52,58,0
138.50229,138.63622,52,58,0
138.68086,138.81975,52,58,0
138.86604,139.00493,52,58,0
139.05122,139.22769,42,65,0
139.22769,139.36005,54,57,0
139.40417,139.53653,54,57,0
139.58064,139.71783,54,57,0
139.76357,139.94003,44,65,0
139.94003,140.1165,56,57,0
140.1165,140.29298,45,65,0
140.29298,140.42534,57,58,0
140.46945,140.60834,57,58,0
140.65463,140.79352,57,59,0
140.83981,141.0163,38,65,0
141.0163,141.19276,50,59,0
141.19276,141.36923,40,65,0
141.36923,141.50159,52,58,0
141.5457,141.68633,52,58,0
141.7332,141.87383,52,58,0
141.9207,142.1082,40,65,0
142.1082,142.2957,52,56,0
142.2957,142.6707,33,75,0
142.6707,143.0457,45,67,0
143.78262,143.91269,57,30,0
143.78262,143.91269,61,39,0
144.85645,144.98653,62,39,0
144.85645,144.98653,57,30,0
145.56349,145.69664,57,26,0
145.56349,145.69664,66,31,0
145.92287,146.05368,64,29,0
145.92287,146.05368,57,24,0
146.28365,146.416,62,29,0
146.28365,146.416,57,24,0
147.01126,147.15189,57,31,0
147.01126,147.15189,61,37,0
147.76913,148.89243,61,46,0
147.76913,148.89243,64,55,0
147.76913,148.89243,57,46,0
148.89243,150.01573,62,43,0
148.89243,150.01573,59,43,0
148.89243,150.01573,64,51,0
150.01573,150.78487,61,50,0
150.01573,150.78487,64,59,0
150.78487,151.19707,63,31,0
150.78487,151.19707,54,26,0
150.78487,151.19707,57,26,0
151.19707,152.41327,52,34,0
151.19707,152.41327,64,40,0
152.77519,152.90527,64,39,0
152.77519,152.90527,57,30,0
153.85335,153.98727,61,30,0
153.85335,153.98727,64,39,0
154.93457,155.07011,56,34,0
154.93457,155.07011,64,44,0
156.03947,156.1837,59,34,0
156.03947,156.1837,64,44,0
157.14458,157.51302,64,53,0
157.14458,157.51302,54,45,0
157.51302,157.86807,64,51,0
157.51302,157.86807,56,43,0
158.22371,158.58331,64,53,0
158.22371,158.58331,56,45,0
158.58331,158.9542,50,44,0
158.58331,158.9542,59,52,0
159.32507,159.69351,52,48,0
159.32507,159.69351,57,57,0
159.69351,160.07756,52,43,0
159.69351,160.07756,56,51,0
160.07756,160.46718,57,61,0
160.46718,160.85678,52,55,0
160.85678,161.26775,45,55,0
161.26775,161.45067,33,71,0
161.45067,161.58786,45,60,0
161.63359,161.7708,45,60,0
161.81653,161.95372,45,60,0
161.99945,162.18237,35,67,0
162.18237,162.39072,47,59,0
162.39072,162.57364,37,66,0
162.57364,162.71083,49,59,0
162.75656,162.89375,49,57,0
162.93948,163.10254,49,57,0
163.15688,163.35168,38,68,0
163.35168,163.57556,50,62,0
163.57556,163.76076,40,69,0
163.76076,163.89964,52,55,0
163.94594,164.09593,52,55,0
164.14594,164.29594,52,55,0
164.34593,164.54594,40,64,0
164.54594,164.74594,52,55,0
164.74594,165.14594,33,73,0
165.14594,165.54594,45,67,0
166.30786,166.44101,61,39,0
166.30786,166.44101,57,30,0
167.38579,167.51437,57,30,0
167.38579,167.51437,62,39,0
168.09085,168.22093,66,31,0
168.09085,168.22093,57,26,0
168.45178,168.5826,64,29,0
168.45178,168.5826,57,24,0
168.81851,168.95087,57,24,0
168.81851,168.95087,62,29,0
169.54613,169.68675,57,31,0
169.54613,169.68675,61,37,0
170.304,171.42729,57,46,0
170.304,171.42729,61,46,0
170.304,171.42729,64,55,0
171.42729,172.55058,62,43,0
171.42729,172.55058,64,51,0
171.42729,172.55058,59,43,0
172.55058,173.31973,64,59,0
172.55058,173.31973,61,50,0
173.31973,173.73192,57,26,0
173.31973,173.73192,63,31,0
173.31973,173.73192,54,26,0
173.73192,174.94814,64,40,0
173.73192,174.94814,52,34,0
175.31006,175.44165,64,39,0
175.31006,175.44165,57,30,0
176.39874,176.52882,61,30,0
176.39874,176.52882,64,39,0
177.47484,177.61037,56,34,0
177.47484,177.61037,64,44,0
178.57295,178.7172,64,44,0
178.57295,178.7172,59,34,0
179.67805,180.04651,54,45,0
179.67805,180.04651,64,53,0
180.04651,180.40155,64,51,0
180.04651,180.40155,56,43,0
180.75719,181.11679,64,53,0
180.75719,181.11679,56,45,0
181.11679,181.48767,59,52,0
181.11679,181.48767,50,44,0
181.85855,182.22699,52,48,0
181.85855,182.22699,57,57,0
182.22699,182.61104,52,43,0
182.22699,182.61104,56,51,0
182.61104,183.00066,57,61,0
183.00066,183.39027,52,55,0
183.39027,183.80122,45,55,0
183.80122,183.98415,33,71,0
183.98415,184.12135,45,60,0
184.16708,184.30428,45,60,0
184.35,184.4872,45,60,0
184.53293,184.72523,35,67,0
184.72523,184.93358,47,59,0
184.93358,185.12589,37,66,0
185.12589,185.27011,49,59,0
185.31819,185.46242,49,57,0
185.5105,185.67593,49,57,0
185.73108,185.93379,38,68,0
185.93379,186.16106,50,62,0
186.16106,186.36105,40,69,0
186.36105,186.51106,52,55,0
186.56107,186.72177,52,55,0
186.77534,186.93607,52,55,0
186.98964,187.22401,40,64,0
187.22401,187.45839,52,55,0
187.45839,187.92714,33,73,0
187.92714,188.39589,45,67,0
191.67714,191.81831,57,44,0
191.79478,191.93596,63,31,0
191.91243,192.03008,64,31,0
192.03008,192.17125,57,40,0
192.14772,192.29192,63,30,0
192.26752,192.38947,64,30,0
192.38947,192.53064,59,40,0
192.50711,192.6483,63,30,0
192.62477,192.74242,64,30,0
192.74242,192.88359,61,41,0
192.86006,193.00124,63,29,0
192.9777,193.09535,64,29,0
193.09535,193.23653,61,40,0
193.213,193.36043,63,31,0
193.33511,193.45879,64,31,0
193.45879,193.59692,57,40,0
193.57367,193.71506,63,36,0
193.69125,193.81204,64,36,0
193.81204,193.95322,56,44,0
193.92969,194.07086,63,31,0
194.04733,194.16498,64,31,0
194.16498,194.30615,56,40,0
194.28262,194.42682,63,33,0
194.40242,194.52438,64,33,0
194.52438,194.66556,57,40,0
194.64203,194.7832,63,34,0
194.75967,194.87732,64,34,0
194.87732,195.0185,59,45,0
194.99496,195.13614,63,34,0
195.11261,195.23026,64,34,0
195.23026,195.37143,59,38,0
195.3479,195.49533,63,31,0
195.47002,195.59369,64,31,0
195.59369,195.73183,56,40,0
195.70857,195.84998,63,36,0
195.82616,195.94695,64,36,0
195.94695,196.08812,54,44,0
196.06459,196.20576,63,33,0
196.18224,196.29988,64,33,0
196.29988,196.44107,54,40,0
196.41753,196.56172,63,35,0
196.53734,196.65929,64,35,0
196.65929,196.80046,54,40,0
196.77693,196.9181,63,35,0
196.89458,197.01222,64,36,0
197.01222,197.1534,56,44,0
197.12987,197.27104,62,35,0
197.24751,197.36517,64,35,0
197.36517,197.50635,56,40,0
197.48282,197.627,62,35,0
197.60262,197.72456,64,35,0
197.72456,197.86574,56,40,0
197.84221,197.98338,62,34,0
197.95985,198.0775,64,34,0
198.0775,198.21867,57,44,0
198.19514,198.33633,61,34,0
198.3128,198.43045,64,34,0
198.43045,198.57162,57,40,0
198.5481,198.69783,61,33,0
198.67184,198.80173,64,33,0
198.80173,198.9429,50,42,0
198.91937,199.07408,54,37,0
199.04669,199.18367,59,37,0
199.18367,199.33182,52,44,0
199.30713,199.45528,57,40,0
199.43059,199.55405,61,40,0
199.55405,199.7022,52,44,0
199.6775,199.82565,57,42,0
199.80095,199.92441,61,44,0
199.92441,200.07256,52,48,0
200.04787,200.19601,56,41,0
200.17133,200.29478,59,42,0
200.29478,200.47125,45,74,0
200.6036,200.64772,56,67,0
200.64772,200.82419,57,74,0
201.36006,201.53653,45,74,0
201.66888,201.713,56,67,0
201.713,201.88948,57,72,0
202.42969,202.60616,40,74,0
202.6944,202.73851,51,67,0
202.78262,202.9591,52,74,0
203.49496,203.67143,40,74,0
203.75967,203.80379,51,67,0
203.84792,204.02438,52,72,0
204.56459,204.74107,40,74,0
204.8293,204.87341,53,59,0
204.91754,205.09401,54,68,0
205.18224,205.27048,55,62,0
205.27048,205.43901,56,70,0
205.60756,205.78403,45,74,0
205.87227,205.91638,56,63,0
205.9605,206.13696,57,67,0
206.2252,206.31343,49,63,0
206.31343,206.48785,50,69,0
206.66228,206.83875,40,74,0
206.92699,206.9711,51,62,0
207.01521,207.19168,52,67,0
207.27992,207.36816,51,61,0
207.36816,207.54463,52,68,0
207.7211,207.90628,33,74,0
207.99887,208.04517,44,61,0
208.09148,208.27666,45,67,0
208.83221,208.97339,57,44,0
208.94986,209.09103,63,33,0
209.0675,209.18515,64,33,0
209.18515,209.32632,57,40,0
209.3028,209.44699,63,32,0
209.42259,209.54456,64,32,0
209.54456,209.68573,59,40,0
209.6622,209.80338,63,32,0
209.77985,209.89749,64,32,0
209.89749,210.03867,61,41,0
210.01514,210.15631,63,30,0
210.13278,210.25043,64,30,0
210.25043,210.3916,61,40,0
210.36807,210.5155,63,28,0
210.49019,210.61386,64,28,0
210.61386,210.752,57,40,0
210.72874,210.87015,63,34,0
210.84633,210.96712,64,36,0
210.96712,211.10829,56,44,0
211.08476,211.22594,63,33,0
211.20241,211.32005,64,33,0
211.32005,211.46123,56,40,0
211.4377,211.5819,63,33,0
211.55751,211.67946,64,33,0
211.67946,211.82063,57,40,0
211.7971,211.93828,63,33,0
211.91475,212.0324,64,33,0
212.0324,212.17357,59,45,0
212.15004,212.29121,63,34,0
212.26768,212.38533,64,34,0
212.38533,212.52652,59,38,0
212.50299,212.65042,63,30,0
212.62509,212.74876,64,31,0
212.74876,212.8869,56,40,0
212.86365,213.00505,63,36,0
212.98123,213.10202,64,36,0
213.10202,213.2432,54,44,0
213.21967,213.36084,63,35,0
213.33731,213.45497,64,35,0
213.45497,213.59615,54,40,0
213.57262,213.7168,63,32,0
213.69241,213.81436,64,32,0
213.81436,213.95554,54,40,0
213.932,214.07318,63,32,0
214.04965,214.1673,64,32,0
214.1673,214.30847,56,44,0
214.28494,214.42613,62,34,0
214.4026,214.52025,64,34,0
214.52025,214.66142,56,40,0
214.6379,214.78207,62,32,0
214.75769,214.87964,64,32,0
214.87964,215.02081,56,40,0
214.99728,215.13846,62,32,0
215.11493,215.23257,64,32,0
215.23257,215.37376,57,44,0
215.35023,215.49141,61,35,0
215.46788,215.58553,64,33,0
215.58553,215.7267,57,40,0
215.70317,215.8529,61,35,0
215.82693,215.9568,64,35,0
215.9568,216.09798,50,42,0
216.07445,216.22916,54,37,0
216.20177,216.33875,59,37,0
216.33875,216.4869,52,44,0
216.4622,216.61035,57,40,0
216.58566,216.70912,61,40,0
216.70912,216.85727,52,44,0
216.83258,216.98073,57,42,0
216.95604,217.07948,61,44,0
217.07948,217.22763,52,48,0
217.20294,217.35109,56,41,0
217.32486,217.44832,59,42,0
217.44986,217.62633,45,74,0
217.75868,217.8028,56,67,0
217.8028,217.97928,57,74,0
218.51514,218.6916,45,74,0
218.82396,218.86809,56,67,0
218.86809,219.04456,57,72,0
219.58476,219.76123,40,74,0
219.84947,219.89359,51,67,0
219.93771,220.11418,52,74,0
220.65004,220.82652,40,74,0
220.91475,220.95886,51,67,0
221.00299,221.17946,52,72,0
221.71968,221.89615,40,74,0
221.98438,222.0285,53,59,0
222.07262,222.24908,54,68,0
222.33733,222.42555,55,62,0
222.42555,222.5941,56,70,0
222.76263,222.9391,45,74,0
223.02734,223.07146,56,63,0
223.11557,223.29205,57,67,0
223.38028,223.46852,49,63,0
223.46852,223.64293,50,69,0
223.81735,223.99382,40,74,0
224.08206,224.12617,51,62,0
224.17029,224.34677,52,67,0
224.435,224.52324,51,61,0
224.52324,224.6997,52,68,0
224.87617,225.06136,33,74,0
225.15396,225.20026,44,61,0
225.24655,225.43173,45,67,0
225.98729,226.13544,57,37,0
226.11075,226.2589,61,30,0
226.23575,226.3592,64,29,0
226.35765,226.50581,57,38,0
226.48111,226.62926,59,30,0
226.60457,226.72803,62,30,0
226.72803,226.88593,57,38,0
226.8596,227.0175,61,30,0
226.99118,227.12277,64,30,0
227.12277,227.27092,57,38,0
227.24622,227.39436,62,28,0
227.36967,227.49313,66,28,0
227.49313,227.64128,57,35,0
227.6166,227.76474,62,28,0
227.74005,227.86351,66,28,0
227.86351,228.02567,57,38,0
227.99864,228.1608,62,32,0
228.13377,228.2689,66,32,0
228.2689,228.4208,57,37,0
228.3955,228.5474,66,33,0
228.52208,228.64867,69,33,0
228.64867,228.80055,57,38,0
228.77524,228.92714,64,33,0
228.90182,229.02841,68,33,0
229.02841,229.1803,57,38,0
229.15498,229.30688,62,34,0
229.28157,229.40816,66,31,0
229.40816,229.5563,57,36,0
229.53162,229.67976,61,27,0
229.65506,229.77852,64,27,0
229.77852,229.92667,57,35,0
229.90198,230.05013,61,28,0
230.02544,230.1489,64,28,0
230.1489,230.31105,57,38,0
230.28403,230.4462,61,33,0
230.41916,230.5543,64,33,0
230.5543,230.70619,57,42,0
230.68088,230.83278,61,34,0
230.80746,230.93405,64,34,0
230.93405,231.08595,57,38,0
231.06062,231.21252,61,33,0
231.18721,231.3138,64,33,0
231.3138,231.47595,57,38,0
231.44893,231.61108,61,34,0
231.58406,231.7192,64,35,0
231.7192,231.8711,59,41,0
231.84578,231.99768,62,36,0
231.97237,232.09895,64,37,0
232.09895,232.25084,59,44,0
232.22552,232.37743,62,37,0
232.35211,232.4787,64,39,0
232.4787,232.64085,59,46,0
232.61383,232.77599,62,41,0
232.74896,232.8841,64,42,0
232.8841,233.036,57,47,0
233.01068,233.16258,61,40,0
233.13727,233.26384,64,40,0
233.26384,233.43286,57,47,0
233.4047,233.5737,61,38,0
233.54553,233.68639,64,33,0
233.68639,233.8682,54,38,0
233.83789,234.01971,57,29,0
233.98941,234.14093,63,29,0
234.14093,235.44527,64,29,0
234.14093,235.44527,52,23,0
235.44527,235.58646,57,44,0
235.56293,235.7041,63,34,0
235.68057,235.79822,64,34,0
235.79822,235.93939,57,40,0
235.91586,236.06006,63,31,0
236.03566,236.15761,64,31,0
236.15761,236.29878,59,40,0
236.27525,236.41644,63,32,0
236.3929,236.51056,64,32,0
236.51056,236.65173,61,41,0
236.6282,236.76938,63,31,0
236.74585,236.8635,64,31,0
236.8635,237.00467,61,40,0
236.98114,237.12857,63,30,0
237.10326,237.22693,64,30,0
237.22693,237.36507,57,40,0
237.34181,237.4832,63,35,0
237.4594,237.58018,64,35,0
237.58018,237.72136,56,44,0
237.69783,237.839,63,31,0
237.81548,237.93312,64,32,0
237.93312,238.0743,56,40,0
238.05077,238.19496,63,35,0
238.17056,238.29253,64,35,0
238.29253,238.4337,57,40,0
238.41017,238.55135,63,33,0
238.52782,238.64546,64,35,0
238.64546,238.78664,59,45,0
238.7631,238.90428,63,34,0
238.88075,238.9984,64,34,0
238.9984,239.13957,59,38,0
239.11604,239.26347,63,28,0
239.23816,239.36183,64,28,0
239.36183,239.49997,56,40,0
239.47672,239.61812,63,35,0
239.5943,239.71509,64,35,0
239.71509,239.85626,54,44,0
239.83273,239.9739,63,35,0
239.95038,240.06802,64,35,0
240.06802,240.2092,54,40,0
240.18567,240.32986,63,35,0
240.30548,240.42743,64,34,0
240.42743,240.5686,54,40,0
240.54507,240.68625,62,35,0
240.66272,240.78036,64,35,0
240.78036,240.92154,57,44,0
240.89801,241.03918,61,35,0
241.01566,241.1333,64,33,0
241.1333,241.27449,57,40,0
241.25096,241.39514,61,33,0
241.37076,241.4927,64,33,0
241.4927,241.63388,50,40,0
241.61035,241.75153,54,33,0
241.728,241.84564,59,33,0
241.84564,241.98682,52,44,0
241.96329,242.10446,57,35,0
242.08093,242.1986,61,33,0
242.1986,242.33977,52,40,0
242.31624,242.46042,57,35,0
242.43604,242.55798,61,35,0
242.55798,242.69916,52,40,0
242.67563,242.8168,56,35,0
242.79327,242.91092,62,35,0
242.91092,243.67043,62,40,0
243.67043,244.05017,61,45,0
242.91092,244.05017,64,34,0
242.91092,244.05017,57,34,0
244.05017,244.22664,45,74,0
244.31487,244.359,56,59,0
244.4031,244.57957,57,68,0
244.66782,244.75604,58,62,0
244.75604,244.92459,59,70,0
245.09312,245.26959,52,74,0
245.35783,245.40195,60,63,0
245.44606,245.62254,61,67,0
245.71077,245.79901,61,63,0
245.79901,245.97343,62,69,0
246.14784,246.32431,40,74,0
246.41255,246.45667,51,62,0
246.5008,246.67726,52,67,0
246.76549,246.85373,51,61,0
246.85373,247.0302,52,68,0
247.20667,247.39186,33,74,0
247.48445,247.53075,44,61,0
247.57704,247.76222,45,67,0
248.31778,248.46593,57,37,0
248.44124,248.58939,61,31,0
248.56624,248.6897,64,32,0
248.68816,248.8363,57,38,0
248.81161,248.95976,59,30,0
248.93506,249.05852,62,30,0
249.05852,249.21642,57,38,0
249.1901,249.34799,61,30,0
249.32169,249.45326,64,30,0
249.45326,249.60141,57,38,0
249.57672,249.72487,62,27,0
249.70016,249.82362,66,27,0
249.82362,249.97177,57,35,0
249.94708,250.09523,62,28,0
250.07054,250.194,66,26,0
250.194,250.35616,57,38,0
250.32913,250.4913,62,32,0
250.46426,250.59941,66,32,0
250.59941,250.7513,57,37,0
250.72598,250.87788,66,31,0
250.85257,250.97916,69,32,0
250.97916,251.13106,57,38,0
251.10573,251.25763,64,30,0
251.23232,251.3589,68,30,0
251.3589,251.5108,57,38,0
251.48547,251.63737,62,34,0
251.61206,251.73865,66,31,0
251.73865,251.8868,57,36,0
251.8621,252.01025,61,27,0
251.98557,252.10901,64,27,0
252.10901,252.25717,57,35,0
252.23247,252.38062,61,28,0
252.35593,252.47939,64,28,0
252.47939,252.64156,57,38,0
252.61452,252.77669,61,32,0
252.74966,252.8848,64,32,0
252.8848,253.0367,57,42,0
253.01137,253.16327,61,33,0
253.13795,253.26454,64,33,0
253.26454,253.41644,57,38,0
253.39113,253.54301,61,33,0
253.5177,253.64429,64,31,0
253.64429,253.80644,57,38,0
253.77942,253.94159,61,34,0
253.91455,254.0497,64,35,0
254.0497,254.20158,59,41,0
254.17627,254.32817,62,36,0
254.30286,254.42944,64,37,0
254.42944,254.58134,59,44,0
254.55602,254.70792,62,37,0
254.6826,254.80919,64,39,0
254.80919,254.97134,59,46,0
254.94432,255.10648,62,41,0
255.07945,255.21458,64,42,0
255.21458,255.36649,57,47,0
255.34117,255.49307,61,40,0
255.46776,255.59435,64,40,0
255.59435,255.76335,57,47,0
255.73518,255.90419,61,38,0
255.87602,256.01688,64,33,0
256.01688,256.1987,54,38,0
256.1684,256.35022,57,29,0
256.31992,256.4714,63,29,0
256.4714,257.77576,64,29,0
256.4714,257.77576,52,23,0
257.77576,257.91693,57,44,0
257.8934,258.03458,63,32,0
258.01105,258.1287,64,32,0
258.1287,258.2699,57,40,0
258.24637,258.39053,63,32,0
258.36615,258.4881,64,32,0
258.4881,258.62927,59,40,0
258.60574,258.74692,63,34,0
258.7234,258.84103,64,34,0
258.84103,258.9822,61,41,0
258.95868,259.09985,63,31,0
259.07632,259.194,64,31,0
259.194,259.33517,61,40,0
259.31165,259.45908,63,30,0
259.43375,259.5574,64,30,0
259.5574,259.69556,57,40,0
259.6723,259.8137,63,36,0
259.7899,259.91068,64,36,0
259.91068,260.05185,56,44,0
260.02832,260.1695,63,33,0
260.14597,260.2636,64,33,0
260.2636,260.4048,56,40,0
260.38126,260.52545,63,33,0
260.50107,260.62302,64,33,0
260.62302,260.7642,57,40,0
260.74066,260.88184,63,33,0
260.8583,260.97595,64,33,0
260.97595,261.11713,59,45,0
261.0936,261.23477,63,33,0
261.21124,261.3289,64,33,0
261.3289,261.47006,59,38,0
261.44653,261.59396,63,29,0
261.56866,261.69232,64,29,0
261.69232,261.83047,56,40,0
261.80722,261.9486,63,35,0
261.9248,262.0456,64,36,0
262.0456,262.18677,54,44,0
262.16324,262.3044,63,34,0
262.28088,262.39853,64,34,0
262.39853,262.5397,54,40,0
262.51617,262.66037,63,33,0
262.63596,262.7579,64,33,0
262.7579,262.8991,54,40,0
262.87558,263.01675,62,33,0
262.99323,263.11087,64,33,0
263.11087,263.25204,57,44,0
263.22852,263.3697,61,35,0
263.34616,263.4638,64,33,0
263.4638,263.60498,57,40,0
263.58145,263.72565,61,33,0
263.70123,263.8232,64,33,0
263.8232,263.9644,50,40,0
263.94086,264.08203,54,31,0
264.0585,264.17615,59,31,0
264.17615,264.31732,52,44,0
264.2938,264.43497,57,33,0
264.41144,264.52908,61,33,0
264.52908,264.67026,52,40,0
264.64673,264.79092,57,35,0
264.7665,264.8885,61,35,0
264.8885,265.02966,52,40,0
265.00613,265.1473,56,35,0
265.12378,265.24142,62,35,0
265.24142,266.00092,62,40,0
266.00092,266.38065,61,45,0
265.24142,266.38065,57,34,0
265.24142,266.38065,64,34,0
266.38065,266.55713,45,74,0
266.64536,266.68948,56,59,0
266.7336,266.91006,57,68,0
266.9983,267.08655,58,62,0
267.08655,267.25507,59,70,0
267.4236,267.6001,52,74,0
267.68832,267.73245,60,63,0
267.77655,267.95303,61,67,0
268.04126,268.1295,61,63,0
268.1295,268.317,62,69,0
268.5045,268.6852,40,74,0
268.77557,268.82077,51,62,0
268.86594,269.04666,52,67,0
269.13702,269.2274,51,61,0
269.2274,269.4197,52,68,0
269.612,269.82034,33,74,0
269.9245,269.9766,44,61,0
270.0287,270.237,45,67,0
273.362,273.69534,57,43,0
273.69534,273.98947,64,34,0
273.98947,274.2725,60,40,0
274.2725,274.5666,64,35,0
274.5666,274.8496,57,41,0
274.8496,275.14963,64,34,0
275.14963,275.45575,57,42,0
275.45575,275.7442,64,36,0
275.7442,276.0442,60,41,0
276.0442,276.32196,64,36,0
276.32196,276.6161,57,41,0
276.6161,276.94943,64,36,0
276.94943,277.2686,52,43,0
277.2686,277.56857,64,34,0
277.56857,277.84634,59,40,0
277.84634,278.12936,64,35,0
278.12936,278.4235,52,41,0
278.4235,278.71762,64,34,0
278.71762,279.0176,52,42,0
279.0176,279.29538,64,36,0
279.29538,279.58383,59,41,0
279.58383,279.85657,64,36,0
279.85657,280.1507,52,41,0
280.1507,280.4448,64,36,0
280.4448,280.7573,57,43,0
280.7573,281.0351,64,34,0
281.0351,281.32355,60,40,0
281.32355,281.612,64,35,0
281.612,281.91202,57,41,0
281.91202,282.212,64,34,0
282.212,282.5381,59,42,0
282.5381,282.8159,64,36,0
282.8159,283.11,62,41,0
283.11,283.38776,64,36,0
283.38776,283.6819,59,41,0
283.6819,284.03903,64,36,0
284.03903,284.3651,60,43,0
284.3651,284.66513,64,34,0
284.66513,284.96512,59,40,0
284.96512,285.2651,64,35,0
285.2651,285.58426,57,41,0
285.58426,285.9414,64,34,0
285.9414,286.27475,52,42,0
286.27475,286.58725,64,36,0
286.58725,286.91333,63,41,0
286.91333,287.2394,64,36,0
287.2394,287.5655,52,41,0
287.5655,287.8916,64,36,0
287.8916,288.2249,57,41,0
288.2249,288.51904,64,33,0
288.51904,288.80206,60,39,0
288.80206,289.0962,64,36,0
289.0962,289.3903,57,43,0
289.3903,289.6903,64,36,0
289.6903,289.99643,57,46,0
289.99643,290.28488,64,39,0
290.28488,290.5679,60,46,0
290.5679,290.85635,64,40,0
290.85635,291.15048,57,46,0
291.15048,291.48383,64,40,0
291.48383,291.80295,52,49,0
291.80295,292.10297,64,39,0
292.10297,292.39142,59,46,0
292.39142,292.67444,64,40,0
292.67444,292.96857,52,47,0
292.96857,293.26266,64,39,0
293.26266,293.56268,52,48,0
293.56268,293.84045,64,41,0
293.84045,294.1289,59,47,0
294.1289,294.40164,64,41,0
294.40164,294.69577,52,47,0
294.69577,294.98987,64,41,0
294.98987,295.296,57,49,0
295.296,295.59012,64,39,0
295.59012,295.87857,60,46,0
295.87857,296.16705,64,40,0
296.16705,296.46704,56,47,0
296.46704,296.76703,64,39,0
296.76703,297.07315,57,48,0
297.07315,297.36163,64,41,0
297.36163,297.65573,60,47,0
297.65573,297.9442,64,41,0
297.9442,298.2383,53,47,0
298.2383,298.59546,62,41,0
298.59546,298.90796,52,49,0
298.90796,299.22046,60,39,0
299.22046,299.5396,57,46,0
299.5396,299.87296,60,40,0
299.87296,300.21387,52,47,0
300.21387,300.60858,59,39,0
300.60858,300.69382,45,54,0
300.9495,301.03473,48,52,0
301.2904,301.38416,52,57,0
301.6654,301.75916,57,54,0
302.0404,302.2279,45,60,0
302.7904,303.12375,57,43,0
303.12375,303.4122,64,34,0
303.4122,303.69522,60,40,0
303.69522,303.98935,64,35,0
303.98935,304.27237,57,41,0
304.27237,304.57236,64,34,0
304.57236,304.8608,57,42,0
304.8608,305.1493,64,36,0
305.1493,305.43774,60,41,0
305.43774,305.7155,64,36,0
305.7155,306.00964,57,41,0
306.00964,306.343,64,36,0
306.343,306.6621,52,43,0
306.6621,306.96213,64,34,0
306.96213,307.2399,59,40,0
307.2399,307.52292,64,35,0
307.52292,307.81705,52,41,0
307.81705,308.11115,64,34,0
308.11115,308.39417,52,42,0
308.39417,308.67197,64,36,0
308.67197,308.96606,59,41,0
308.96606,309.2388,64,36,0
309.2388,309.53293,52,41,0
309.53293,309.82703,64,36,0
309.82703,310.13953,57,43,0
310.13953,310.4173,64,34,0
310.4173,310.70578,60,40,0
310.70578,310.99423,64,35,0
310.99423,311.29422,57,41,0
311.29422,311.59424,64,34,0
311.59424,311.92032,59,42,0
311.92032,312.1981,64,36,0
312.1981,312.48657,62,41,0
312.48657,312.76434,64,36,0
312.76434,313.05844,59,41,0
313.05844,313.4156,64,36,0
313.4156,313.7417,60,43,0
313.7417,314.0417,64,34,0
314.0417,314.33014,59,40,0
314.33014,314.63016,64,35,0
314.63016,314.94928,57,41,0
314.94928,315.30643,64,34,0
315.30643,315.63977,52,42,0
315.63977,315.95227,64,36,0
315.95227,316.27835,63,41,0
316.27835,316.60443,64,36,0
316.60443,316.93054,52,41,0
316.93054,317.25662,64,36,0
317.25662,317.58997,57,41,0
317.58997,317.88406,64,33,0
317.88406,318.16708,60,39,0
318.16708,318.4612,64,36,0
318.4612,318.7553,57,43,0
318.7553,319.05533,64,36,0
319.05533,319.34946,57,46,0
319.34946,319.6379,64,39,0
319.6379,319.91064,60,46,0
319.91064,320.1991,64,40,0
320.1991,320.4932,57,46,0
320.4932,320.82654,64,40,0
320.82654,321.1457,52,49,0
321.1457,321.44568,64,39,0
321.44568,321.73416,59,46,0
321.73416,322.002,64,40,0
322.002,322.29614,52,47,0
322.29614,322.59024,64,39,0
322.59024,322.8787,52,48,0
322.8787,323.1565,64,41,0
323.1565,323.44495,59,47,0
323.44495,323.71768,64,41,0
323.71768,324.01178,52,47,0
324.01178,324.3059,64,41,0
324.3059,324.6059,57,49,0
324.6059,324.90002,64,39,0
324.90002,325.18304,60,46,0
325.18304,325.4715,64,40,0
325.4715,325.7715,56,47,0
325.7715,326.0715,64,39,0
326.0715,326.37762,57,48,0
326.37762,326.66608,64,41,0
326.66608,326.9602,60,47,0
326.9602,327.24866,64,41,0
327.24866,327.5428,53,47,0
327.5428,327.89993,62,41,0
327.89993,328.21243,52,49,0
328.21243,328.52493,60,39,0
328.52493,328.8441,57,46,0
328.8441,329.1774,60,40,0
329.1774,329.5183,52,47,0
329.5183,329.91306,59,39,0
329.91306,329.9983,45,54,0
330.25397,330.3392,48,52,0
330.59488,330.68863,52,57,0
330.96988,331.06363,57,54,0
331.34488,331.53238,45,60,0
332.09488,333.31012,60,44,0
333.31012,333.91397,61,44,0
332.09488,333.91397,57,37,0
333.91397,335.71405,62,44,0
333.91397,335.71405,57,37,0
335.71405,335.99707,65,41,0
335.99707,336.2698,64,39,0
336.2698,336.54758,65,41,0
336.54758,336.83603,64,37,0
336.83603,337.13016,65,41,0
337.13016,337.43015,62,38,0
335.71405,337.46347,57,34,0
337.46347,337.7576,62,41,0
337.7576,338.04062,60,37,0
338.04062,338.32907,59,41,0
338.32907,338.61755,60,38,0
338.61755,338.906,59,41,0
338.906,339.19324,60,38,0
337.46347,339.22516,57,34,0
339.22516,339.52515,60,41,0
339.52515,339.80817,62,39,0
339.80817,340.09665,64,39,0
340.09665,340.37967,62,41,0
340.37967,341.0071,60,39,0
339.22516,341.0071,57,34,0
341.0071,341.31323,56,28,0
341.0071,341.31323,59,34,0
341.31323,341.60168,60,36,0
341.31323,341.60168,57,30,0
341.60168,341.9017,62,37,0
341.60168,341.9017,59,31,0
341.9017,342.19016,60,32,0
341.9017,342.19016,64,38,0
342.19016,342.8093,65,40,0
342.19016,342.8093,62,34,0
342.8093,343.42258,60,32,0
342.8093,343.42258,64,38,0
343.42258,344.05002,64,41,0
343.42258,344.05002,56,34,0
344.05002,344.65027,64,44,0
344.05002,344.65027,57,37,0
344.97635,346.19257,51,49,0
346.19257,346.72827,52,33,0
346.90686,347.22598,57,43,0
347.22598,347.5201,64,34,0
347.5201,347.80313,60,40,0
347.80313,348.09726,64,35,0
348.09726,348.38028,57,41,0
348.38028,348.68027,64,34,0
348.68027,348.9864,57,42,0
348.9864,349.27484,64,36,0
349.27484,349.57486,60,41,0
349.57486,349.85263,64,36,0
349.85263,350.14676,57,41,0
350.14676,350.48007,64,36,0
350.48007,350.7801,52,43,0
350.7801,351.08008,64,34,0
351.08008,351.35785,59,40,0
351.35785,351.64087,64,35,0
351.64087,351.935,52,41,0
351.935,352.22913,64,34,0
352.22913,352.5291,52,42,0
352.5291,352.8069,64,36,0
352.8069,353.113,59,41,0
353.113,353.38574,64,36,0
353.38574,353.67987,52,41,0
353.67987,353.97397,64,36,0
353.97397,354.2681,57,43,0
354.2681,354.54587,64,34,0
354.54587,354.83432,60,40,0
354.83432,355.1228,64,35,0
355.1228,355.4228,56,41,0
355.4228,355.7228,64,34,0
355.7228,356.0489,57,42,0
356.0489,356.32666,64,36,0
356.32666,356.6208,60,41,0
356.6208,356.89856,64,36,0
356.89856,357.1927,53,41,0
357.1927,357.5498,62,36,0
357.5498,357.87592,52,43,0
357.87592,358.1759,60,34,0
358.1759,358.4759,57,40,0
358.4759,358.7759,60,35,0
358.7759,359.09506,52,41,0
359.09506,359.4522,59,34,0
359.4522,360.71027,45,43,0
359.4522,360.71027,57,46,0
361.34857,361.66772,45,49,0
361.66772,361.96185,52,39,0
361.96185,362.2503,48,46,0
362.2503,362.53876,52,40,0
362.53876,362.83878,44,47,0
362.83878,363.13876,52,39,0
363.13876,363.45126,45,48,0
363.45126,363.73972,52,41,0
363.73972,364.03384,48,47,0
364.03384,364.3223,52,41,0
364.3223,364.61642,41,47,0
364.61642,364.97357,50,41,0
364.97357,365.28607,40,49,0
365.28607,365.59857,48,39,0
365.59857,365.91772,45,46,0
365.91772,366.25104,48,40,0
366.25104,366.59195,40,47,0
366.59195,366.9867,47,39,0
366.9867,367.07193,33,54,0
367.3276,367.4128,36,52,0
367.66852,367.76227,40,57,0
368.04352,368.13727,45,54,0
368.41852,368.60602,33,60,0
369.16852,370.36377,60,44,0
370.36377,370.96765,61,44,0
369.16852,370.96765,57,37,0
370.96765,372.76773,62,44,0
370.96765,372.76773,57,37,0
372.76773,373.06183,65,41,0
373.06183,373.33456,64,39,0
373.33456,373.61234,65,41,0
373.61234,373.9008,64,37,0
373.9008,374.19492,65,41,0
374.19492,374.4949,62,38,0
372.76773,374.52826,57,34,0
374.52826,374.83438,62,41,0
374.83438,375.1174,60,37,0
375.1174,375.40585,59,41,0
375.40585,375.68362,60,38,0
375.68362,375.96664,59,41,0
375.96664,376.25388,60,38,0
374.52826,376.2858,57,34,0
376.2858,376.5983,60,41,0
376.5983,376.88132,62,39,0
376.88132,377.16977,64,39,0
377.16977,377.4528,62,41,0
377.4528,378.08026,60,39,0
376.2858,378.08026,57,34,0
378.08026,378.39276,56,28,0
378.08026,378.39276,59,34,0
378.39276,378.6812,60,36,0
378.39276,378.6812,57,30,0
378.6812,378.9812,62,37,0
378.6812,378.9812,59,31,0
378.9812,379.26968,64,38,0
378.9812,379.26968,60,32,0
379.26968,379.88882,65,40,0
379.26968,379.88882,62,34,0
379.88882,380.50208,64,38,0
379.88882,380.50208,60,32,0
380.50208,381.12955,64,41,0
380.50208,381.12955,56,34,0
381.12955,381.72977,57,37,0
381.12955,381.72977,64,44,0
382.05588,383.2721,51,49,0
383.2721,383.8078,52,33,0
383.98636,384.31247,57,43,0
384.31247,384.60657,64,34,0
384.60657,384.8896,60,40,0
384.8896,385.17804,64,35,0
385.17804,385.46106,57,41,0
385.46106,385.76108,64,34,0
385.76108,386.0672,57,42,0
386.0672,386.35565,64,36,0
386.35565,386.65567,60,41,0
386.65567,386.93344,64,36,0
386.93344,387.22754,57,41,0
387.22754,387.56088,64,36,0
387.56088,387.86087,52,43,0
387.86087,388.1609,64,34,0
388.1609,388.43866,59,40,0
388.43866,388.72168,64,35,0
388.72168,389.0158,52,41,0
389.0158,389.3099,64,34,0
389.3099,389.60992,52,42,0
389.60992,389.88263,64,36,0
389.88263,390.17676,59,41,0
390.17676,390.4495,64,36,0
390.4495,390.74362,52,41,0
390.74362,391.03772,64,36,0
391.03772,391.34384,57,43,0
391.34384,391.6216,64,34,0
391.6216,391.8994,60,40,0
391.8994,392.18787,64,35,0
392.18787,392.48785,56,41,0
392.48785,392.78787,64,34,0
392.78787,393.08197,57,42,0
393.08197,393.35977,64,36,0
393.35977,393.65387,60,41,0
393.65387,393.93164,64,36,0
393.93164,394.22577,53,41,0
394.22577,394.58292,62,36,0
394.58292,394.909,52,43,0
394.909,395.209,60,34,0
395.209,395.509,57,40,0
395.509,395.809,60,35,0
395.809,396.12814,52,41,0
396.12814,396.4853,59,34,0
396.4853,397.74338,45,43,0
396.4853,397.74338,57,46,0
398.38168,398.67578,45,49,0
398.67578,398.95355,52,39,0
398.95355,399.24203,48,46,0
399.24203,399.5305,52,40,0
399.5305,399.83047,44,47,0
399.83047,400.1305,52,39,0
400.1305,400.43048,45,48,0
400.43048,400.70825,52,41,0
400.70825,401.00238,48,47,0
401.00238,401.29083,52,41,0
401.29083,401.58496,41,47,0
401.58496,401.9421,50,41,0
401.9421,402.2546,40,49,0
402.2546,402.5671,48,39,0
402.5671,402.88626,45,46,0
402.88626,403.21957,48,40,0
403.21957,403.5605,40,47,0
403.5605,403.9659,47,39,0
403.9659,404.05966,33,52,0
404.3409,404.43466,36,49,0
404.7159,404.81726,40,56,0
405.1213,405.2316,45,51,0
405.5625,405.78308,33,58,0
410.35788,410.84967,57,47,0
410.35788,410.84967,45,39,0
412.9289,413.37668,52,47,0
412.9289,413.37668,40,39,0
415.43997,415.88126,57,52,0
415.43997,415.88126,45,44,0
416.2952,416.7095,45,39,0
416.2952,416.7095,57,47,0
416.7095,417.10956,52,51,0
416.7095,417.10956,40,43,0
417.52084,417.9494,52,47,0
417.52084,417.9494,40,39,0
419.66342,419.8978,64,48,0
420.13217,420.40005,52,43,0
420.6679,421.1597,57,80,0
420.6679,421.1597,45,65,0
423.2326,423.6804,52,80,0
423.2326,423.6804,40,65,0
425.7554,426.16922,57,77,0
425.7554,426.16922,45,65,0
427.41693,427.8488,54,76,0
427.41693,427.8488,42,63,0
427.8488,428.2745,38,57,0
427.8488,428.2745,50,70,0
428.2745,428.71268,40,71,0
428.2745,428.71268,52,84,0
430.1189,430.38205,57,49,0
430.67615,431.11734,45,44,0
431.5585,432.05032,57,47,0
431.5585,432.05032,45,39,0
434.12955,434.5773,52,47,0
434.12955,434.5773,40,39,0
436.6406,437.08188,45,44,0
436.6406,437.08188,57,52,0
437.49863,437.9129,45,39,0
437.49863,437.9129,57,47,0
437.9129,438.313,40,43,0
437.9129,438.313,52,51,0
438.72696,439.15552,52,47,0
438.72696,439.15552,40,39,0
440.86954,441.1039,64,48,0
441.3383,441.60614,52,43,0
441.87402,442.3658,57,80,0
441.87402,442.3658,45,65,0
444.43872,444.8865,40,65,0
444.43872,444.8865,52,80,0
446.96152,447.37534,45,65,0
446.96152,447.37534,57,77,0
448.62305,449.0549,54,76,0
448.62305,449.0549,42,63,0
449.0549,449.48062,50,70,0
449.0549,449.48062,38,57,0
449.48062,449.9188,40,71,0
449.48062,449.9188,52,84,0
451.325,451.58817,57,49,0
451.88226,452.32346,45,44,0
452.76462,452.9954,57,42,0
452.9954,453.22983,61,31,0
453.22983,453.44412,64,34,0
453.44412,453.68427,61,32,0
453.68427,453.89853,64,34,0
453.89853,454.12582,61,30,0
454.12582,454.37582,57,40,0
454.37582,454.60657,62,30,0
454.60657,454.83734,66,33,0
454.83734,455.07928,62,31,0
455.07928,455.31366,66,33,0
455.31366,455.56366,62,32,0
455.56366,455.80176,57,40,0
455.80176,456.03986,62,31,0
456.03986,456.26373,66,34,0
456.26373,456.4981,62,34,0
456.4981,456.73248,66,39,0
456.73248,456.99673,62,33,0
456.99673,457.23483,57,43,0
457.23483,457.47293,61,33,0
457.47293,457.72714,64,33,0
457.72714,457.98138,61,31,0
457.98138,458.23563,64,33,0
458.23563,458.48987,61,31,0
458.48987,458.72424,49,52,0
458.48987,458.72424,45,52,0
458.94162,459.19162,57,45,0
458.94162,459.19162,61,45,0
459.8672,460.13504,50,52,0
459.8672,460.13504,47,52,0
460.37314,460.61905,62,45,0
460.37314,460.61905,59,45,0
461.29068,461.79068,64,43,0
461.29068,461.79068,61,37,0
461.79068,462.29916,59,35,0
461.79068,462.29916,62,42,0
462.29916,462.8547,61,43,0
462.29916,462.8547,57,36,0
462.8547,463.96582,61,50,0
462.8547,463.96582,57,42,0
463.96582,464.52136,56,32,0
463.96582,464.52136,59,38,0
462.8547,464.52136,52,42,0
464.52136,465.02136,45,53,0
464.52136,465.02136,57,66,0
467.13712,467.58487,40,53,0
467.13712,467.58487,52,66,0
469.6599,470.07373,57,63,0
469.6599,470.07373,45,53,0
471.32144,471.7533,42,52,0
471.32144,471.7533,54,63,0
471.7533,472.17902,38,47,0
471.7533,472.17902,50,58,0
472.17902,472.59567,52,69,0
472.17902,472.59567,40,58,0
474.8508,475.29208,57,72,0
474.8508,475.29208,45,60,0
476.5398,476.97165,57,72,0
476.5398,476.97165,45,59,0
476.97165,477.39737,50,66,0
476.97165,477.39737,38,54,0
477.39737,477.83554,40,66,0
477.39737,477.83554,52,79,0
479.24176,479.5049,57,58,0
479.799,480.2402,45,52,0
480.68137,480.91214,57,42,0
480.91214,481.14658,61,31,0
481.14658,481.36087,64,34,0
481.36087,481.601,61,32,0
481.601,481.81528,64,34,0
481.81528,482.04257,61,30,0
482.04257,482.29257,57,40,0
482.29257,482.52332,62,30,0
482.52332,482.7541,66,33,0
482.7541,482.99603,62,31,0
482.99603,483.2304,66,33,0
483.2304,483.4804,62,32,0
483.4804,483.7185,57,40,0
483.7185,483.9566,62,31,0
483.9566,484.18048,66,34,0
484.18048,484.41486,62,34,0
484.41486,484.64923,66,39,0
484.64923,484.91348,62,33,0
484.91348,485.15158,57,43,0
485.15158,485.38968,61,33,0
485.38968,485.6439,64,33,0
485.6439,485.89813,61,31,0
485.89813,486.15237,64,33,0
486.15237,486.40662,61,31,0
486.40662,486.641,45,52,0
486.40662,486.641,49,52,0
486.8584,487.1084,57,45,0
486.8584,487.1084,61,45,0
487.78394,488.0518,47,52,0
487.78394,488.0518,50,52,0
488.2899,488.5358,59,45,0
488.2899,488.5358,62,45,0
489.20743,489.70743,64,43,0
489.20743,489.70743,61,37,0
489.70743,490.2159,62,42,0
489.70743,490.2159,59,35,0
490.2159,490.77145,57,36,0
490.2159,490.77145,61,43,0
490.77145,491.88257,57,42,0
490.77145,491.88257,61,50,0
491.88257,492.43814,56,32,0
491.88257,492.43814,59,38,0
490.77145,492.43814,52,42,0
492.43814,492.99368,45,53,0
492.43814,492.99368,57,66,0
495.1098,495.55756,52,66,0
495.1098,495.55756,40,53,0
497.6326,498.04642,45,53,0
497.6326,498.04642,57,63,0
499.29413,499.72598,54,63,0
499.29413,499.72598,42,52,0
499.72598,500.1517,50,58,0
499.72598,500.1517,38,47,0
500.1517,500.5684,40,58,0
500.1517,500.5684,52,69,0
502.82352,503.26477,57,72,0
502.82352,503.26477,45,60,0
504.51248,504.94437,57,72,0
504.51248,504.94437,45,59,0
504.94437,505.3701,38,54,0
504.94437,505.3701,50,66,0
505.3701,505.80826,40,66,0
505.3701,505.80826,52,79,0
507.33102,507.67194,57,58,0
508.05655,508.4977,45,52,0
514.23303,514.5155,57,43,0
514.5155,514.798,64,26,0
514.798,515.08044,61,30,0
515.08044,515.363,64,21,0
515.363,515.6308,57,36,0
515.6308,515.8987,64,29,0
515.8987,516.1573,61,30,0
516.1573,516.4159,64,28,0
516.4159,516.65784,57,38,0
516.65784,516.8998,64,31,0
516.8998,517.16296,59,33,0
517.16296,517.4514,64,35,0
517.4514,517.71454,61,41,0
517.71454,517.9777,64,30,0
517.9777,518.24084,57,30,0
518.24084,518.504,64,30,0
518.504,518.74994,61,36,0
518.74994,518.99585,64,25,0
518.99585,519.26855,57,29,0
519.26855,519.54126,64,27,0
519.54126,519.79553,61,36,0
519.79553,520.04974,64,30,0
520.04974,520.304,57,30,0
520.304,520.58704,64,24,0
520.58704,520.85486,56,38,0
520.85486,521.12274,64,23,0
521.12274,521.38586,63,25,0
521.38586,521.64905,64,23,0
521.64905,521.90326,56,36,0
521.90326,522.15753,64,25,0
522.15753,522.40753,63,28,0
522.40753,522.65753,64,25,0
522.65753,522.8956,56,41,0
522.8956,523.1337,64,29,0
523.1337,523.38794,57,32,0
523.38794,523.6607,64,29,0
523.6607,523.9285,58,40,0
523.9285,524.1964,64,28,0
524.1964,524.4423,63,31,0
524.4423,524.6882,64,29,0
524.6882,524.9341,59,36,0
524.9341,525.18,64,25,0
525.18,525.4479,63,29,0
525.4479,525.7157,64,26,0
525.7157,525.97437,56,36,0
525.97437,526.233,64,28,0
526.233,526.4916,52,30,0
526.4916,526.7746,64,28,0
526.7746,527.0378,54,38,0
527.0378,527.3009,64,28,0
527.3009,527.5509,63,30,0
527.5509,527.8009,64,26,0
527.8009,528.77325,54,40,0
529.78235,530.0502,56,43,0
530.0502,530.30444,64,34,0
530.30444,530.55865,63,34,0
530.55865,530.81287,64,34,0
530.81287,531.77344,56,47,0
532.7907,533.7514,57,39,0
532.7907,533.7514,64,47,0
533.7514,534.7374,57,48,0
533.7514,534.7374,54,40,0
534.7374,535.6752,59,51,0
534.7374,535.6752,50,43,0
535.6752,536.6201,52,44,0
535.6752,536.6201,56,52,0
538.5948,538.86755,45,64,0
538.86755,539.0721,57,48,0
539.14026,539.33765,57,51,0
539.40344,539.60077,57,49,0
539.66656,539.851,57,50,0
539.9125,540.0969,57,35,0
540.1584,540.3558,57,38,0
540.4215,540.6189,57,37,0
540.6847,540.86615,57,42,0
540.92664,541.1081,57,37,0
541.1686,541.35004,57,40,0
541.4105,541.592,57,37,0
541.6549,542.6405,57,47,0
544.7125,544.98816,40,64,0
544.98816,545.1949,52,46,0
545.2638,545.4612,52,51,0
545.527,545.72437,52,47,0
545.7901,545.97455,52,50,0
546.036,546.22046,52,36,0
546.2819,546.4793,52,40,0
546.5451,546.74243,52,36,0
546.8082,546.9927,52,42,0
547.05414,547.2386,52,35,0
547.30005,547.4907,52,38,0
547.55426,547.745,52,38,0
547.80853,548.82196,52,47,0
551.88007,552.8887,54,40,0
551.88007,552.8887,64,40,0
552.8887,553.8977,64,40,0
552.8887,553.8977,56,40,0
553.8977,554.9068,64,40,0
553.8977,554.9068,57,40,0
555.9749,557.0463,54,39,0
555.9749,557.0463,50,39,0
555.9749,557.0463,59,47,0
557.0463,559.3673,61,47,0
557.0463,559.3673,57,39,0
559.3673,560.70044,59,30,0
559.3673,560.70044,62,40,0
557.0463,560.70044,52,39,0
560.70044,562.17645,62,34,0
562.17645,563.48035,61,30,0
560.70044,563.48035,57,28,0
564.5694,564.85187,57,43,0
564.85187,565.13434,64,26,0
565.13434,565.4169,61,30,0
565.4169,565.69934,64,25,0
565.69934,565.96716,57,42,0
565.96716,566.23505,64,29,0
566.23505,566.49365,61,32,0
566.49365,566.75226,64,29,0
566.75226,566.9942,57,43,0
566.9942,567.23615,64,31,0
567.23615,567.4993,59,33,0
567.4993,567.7878,64,30,0
567.7878,568.0509,61,42,0
568.0509,568.3141,64,29,0
568.3141,568.5773,57,31,0
568.5773,568.8404,64,28,0
568.8404,569.0863,61,36,0
569.0863,569.3322,64,26,0
569.3322,569.6049,57,29,0
569.6049,569.8777,64,26,0
569.8777,570.1319,61,36,0
570.1319,570.3861,64,28,0
570.3861,570.6404,57,30,0
570.6404,570.9234,64,26,0
570.9234,571.1912,56,38,0
571.1912,571.4591,64,22,0
571.4591,571.7223,63,27,0
571.7223,571.9854,64,23,0
571.9854,572.2397,56,36,0
572.2397,572.4939,64,26,0
572.4939,572.7439,63,30,0
572.7439,572.9939,64,29,0
572.9939,573.232,56,39,0
573.232,573.4701,64,31,0
573.4701,573.7243,57,33,0
573.7243,573.9971,64,38,0
573.9971,574.2649,58,42,0
574.2649,574.5328,64,28,0
574.5328,574.7787,63,31,0
574.7787,575.0246,64,28,0
575.0246,575.27045,59,36,0
575.27045,575.51636,64,27,0
575.51636,575.78424,63,29,0
575.78424,576.05206,64,27,0
576.05206,576.3107,56,36,0
576.3107,576.56934,64,28,0
576.56934,576.82794,52,30,0
576.82794,577.11096,64,28,0
577.11096,577.37415,54,38,0
577.37415,577.63727,64,29,0
577.63727,577.88727,63,30,0
577.88727,578.13727,64,28,0
578.13727,579.1097,54,40,0
580.1187,580.38654,56,43,0
580.38654,580.6408,64,32,0
580.6408,580.895,63,34,0
580.895,581.1493,64,30,0
581.1493,582.1098,56,47,0
583.1271,584.1033,64,42,0
583.1271,584.1033,57,35,0
584.1033,585.08923,54,36,0
584.1033,585.08923,57,43,0
585.08923,586.0419,50,38,0
585.08923,586.0419,59,45,0
586.0419,586.9945,56,46,0
586.0419,586.9945,52,39,0
588.9692,589.2419,45,64,0
589.2419,589.4464,57,47,0
589.5146,589.712,57,51,0
589.7778,589.97516,57,46,0
590.04095,590.22534,57,50,0
590.2868,590.47125,57,32,0
590.5327,590.7301,57,37,0
590.7959,590.9933,57,33,0
591.059,591.2405,57,42,0
591.30096,591.4824,57,35,0
591.5429,591.72437,57,39,0
591.78485,591.9663,57,34,0
592.02924,593.01483,57,47,0
595.0869,595.36255,40,64,0
595.36255,595.5693,52,46,0
595.6382,595.8355,52,51,0
595.9013,596.0987,52,46,0
596.1645,596.34894,52,50,0
596.4104,596.5948,52,34,0
596.6563,596.85364,52,38,0
596.91943,597.1168,52,34,0
597.1826,597.367,52,42,0
597.4285,597.6129,52,34,0
597.67444,597.8651,52,38,0
597.92865,598.1193,52,35,0
598.18286,599.1963,52,47,0
602.2629,603.27155,54,43,0
602.2629,603.27155,64,43,0
603.27155,604.2806,56,43,0
603.27155,604.2806,64,43,0
604.2806,605.2896,57,43,0
604.2806,605.2896,64,43,0
606.3577,607.42914,54,39,0
606.3577,607.42914,59,47,0
606.3577,607.42914,50,39,0
607.42914,609.68835,61,47,0
607.42914,609.68835,57,39,0
609.68835,611.0214,59,30,0
609.68835,611.0214,62,40,0
607.42914,611.0214,52,39,0
611.0214,612.41693,62,34,0
612.41693,613.56006,61,33,0
611.0214,613.56006,57,28,0
614.80475,615.07745,57,43,0
615.07745,615.3502,69,32,0
615.3502,615.61334,61,37,0
615.61334,615.8765,69,32,0
615.8765,616.13513,57,45,0
616.13513,616.39374,68,34,0
616.39374,616.6616,59,37,0
616.6616,616.92944,68,34,0
616.92944,617.1973,57,47,0
617.1973,617.46515,67,36,0
617.46515,617.73303,61,42,0
617.73303,618.0392,67,38,0
618.0392,618.307,57,50,0
618.307,618.5749,66,43,0
618.5749,618.8427,62,46,0
618.8427,619.1106,66,43,0
619.1106,619.3648,54,54,0
619.3648,619.6191,62,44,0
619.6191,619.8733,57,47,0
619.8733,620.1233,62,44,0
620.12756,620.3954,50,51,0
620.3954,620.66327,57,43,0
620.66327,620.9311,54,46,0
620.9311,621.199,57,43,0
621.199,621.4668,45,56,0
621.4668,621.7347,54,46,0
621.7347,622.00256,50,49,0
622.00256,622.28015,54,47,0
622.28015,622.54333,45,60,0
622.54333,622.80646,54,52,0
622.80646,623.06964,50,55,0
623.06964,623.3583,54,58,0
623.3583,623.6413,45,70,0
623.6413,623.9243,54,57,0
623.9243,624.24457,50,61,0
624.24457,624.60205,54,59,0
624.60205,625.7904,50,70,0
624.60205,625.7904,45,70,0
625.7904,626.9225,49,53,0
625.7904,626.9225,45,53,0
628.0654,631.32794,64,51,0
628.0654,631.32794,57,43,0
628.0654,631.32794,61,43,0
631.32794,634.6458,62,43,0
631.32794,634.6458,64,51,0
631.32794,634.6458,59,43,0
634.6458,635.72375,61,45,0
634.6458,635.72375,57,45,0
634.6458,635.72375,64,54,0
635.72375,636.7774,64,53,0
635.72375,636.7774,59,45,0
635.72375,636.7774,56,45,0
636.7774,637.88464,61,45,0
636.7774,637.88464,64,53,0
636.7774,637.88464,57,45,0
637.88464,639.0286,57,48,0
637.88464,639.0286,61,57,0
639.0286,640.1483,59,51,0
639.0286,640.1483,56,43,0
637.88464,640.1483,52,43,0
641.28424,641.562,57,37,0
641.562,641.8398,64,28,0
641.8398,642.11755,61,33,0
642.11755,642.3953,64,28,0
642.3953,642.668,57,42,0
642.668,642.9267,64,31,0
642.9267,643.1853,61,37,0
643.1853,643.43555,64,33,0
643.43555,643.6898,57,42,0
643.6898,643.94403,64,32,0
643.94403,644.2168,59,37,0
644.2168,644.50525,64,32,0
644.50525,644.7684,61,44,0
644.7684,645.03156,64,28,0
645.03156,645.30426,57,31,0
645.30426,645.5927,64,27,0
645.5927,645.8606,61,34,0
645.8606,646.1285,64,22,0
646.1285,646.42175,57,28,0
646.42175,646.7151,64,23,0
646.7151,646.9693,61,37,0
646.9693,647.2236,64,28,0
647.2236,647.4778,57,32,0
647.4778,647.7778,64,28,0
647.7778,648.04565,56,37,0
648.04565,648.3135,64,29,0
648.3135,648.5965,63,33,0
648.5965,648.8795,64,30,0
648.8795,649.1382,56,37,0
649.1382,649.3968,64,31,0
649.3968,649.65784,63,33,0
649.65784,649.91205,64,30,0
649.91205,650.17523,56,37,0
650.17523,650.43835,64,30,0
650.43835,650.7214,57,33,0
650.7214,651.0275,64,30,0
651.0275,651.28613,59,37,0
651.28613,651.54474,64,29,0
651.54474,651.8226,63,31,0
651.8226,652.10034,64,28,0
652.10034,652.36816,56,34,0
652.36816,652.63605,64,25,0
652.63605,652.9245,59,28,0
652.9245,653.21295,64,26,0
653.21295,653.47614,52,40,0
653.47614,653.73926,64,30,0
653.73926,654.00244,56,33,0
654.00244,654.2909,64,30,0
654.2909,654.5636,54,39,0
654.5636,654.8095,64,28,0
654.8095,655.07745,63,31,0
655.07745,655.34064,64,27,0
655.34064,655.59924,54,42,0
655.59924,655.85785,64,32,0
655.85785,656.13684,63,36,0
656.13684,656.45026,64,34,0
656.45026,656.7134,56,42,0
656.7134,656.97656,64,35,0
656.97656,657.23975,63,36,0
657.23975,657.50287,64,34,0
657.50287,658.6083,57,42,0
659.7,660.8321,59,51,0
659.7,660.8321,54,43,0
659.7,660.8321,50,37,0
660.8321,663.13153,61,54,0
660.8321,663.13153,57,44,0
663.13153,664.3684,59,34,0
663.13153,664.3684,62,46,0
660.8321,664.3684,52,44,0
664.3684,666.78326,62,33,0
666.78326,668.0033,61,39,0
664.3684,668.0033,64,39,0
664.3684,668.0033,57,33,0
668.0033,668.28107,45,61,0
668.28107,668.55884,49,50,0
668.55884,668.8366,52,54,0
668.8366,669.1144,57,50,0
669.1144,669.3823,45,61,0
669.3823,669.6455,49,50,0
669.6455,669.9087,52,54,0
669.9087,670.1718,57,50,0
670.1718,670.435,47,61,0
670.435,670.6981,50,52,0
670.6981,670.9613,56,56,0
670.9613,671.23486,59,52,0
671.23486,673.4325,57,61,0
671.23486,673.4325,49,51,0
673.4325,674.5752,57,66,0
673.4325,674.5752,50,56,0
674.5752,675.8073,61,42,0
674.5752,675.8073,52,35,0
675.8073,677.01935,61,42,0
675.8073,677.01935,52,35,0
677.01935,678.2908,62,37,0
677.01935,678.2908,56,31,0
677.01935,678.2908,52,31,0
678.2908,679.5797,62,41,0
679.5797,680.70447,61,41,0
678.2908,680.70447,57,34,0
681.8059,682.0889,57,39,0
682.0889,682.37195,69,29,0
682.37195,682.6351,61,36,0
682.6351,682.89825,69,32,0
682.89825,683.15686,57,45,0
683.15686,683.4155,68,34,0
683.4155,683.68335,59,37,0
683.68335,683.95123,68,34,0
683.95123,684.21906,57,47,0
684.21906,684.48694,67,36,0
684.48694,684.75476,61,42,0
684.75476,685.0609,67,38,0
685.0609,685.32874,57,48,0
685.32874,685.5966,66,41,0
685.5966,685.8645,62,44,0
685.8645,686.1323,66,41,0
686.1323,686.3866,54,52,0
686.3866,686.6408,62,41,0
686.6408,686.895,57,45,0
686.895,687.145,62,41,0
687.1493,687.4171,50,51,0
687.4171,687.685,57,43,0
687.685,687.9529,54,46,0
687.9529,688.2207,57,43,0
688.2207,688.4886,45,56,0
688.4886,688.7564,54,47,0
688.7564,689.0243,50,49,0
689.0243,689.3019,54,47,0
689.3019,689.56506,45,60,0
689.56506,689.82825,54,52,0
689.82825,690.0914,50,55,0
690.0914,690.38,54,58,0
690.38,690.663,45,70,0
690.663,690.94604,54,59,0
690.94604,691.2663,50,61,0
691.2663,691.6238,54,57,0
691.6238,692.81213,50,70,0
691.6238,692.81213,45,70,0
692.81213,693.9442,49,53,0
692.81213,693.9442,45,53,0
695.08716,698.3565,64,51,0
695.08716,698.3565,57,43,0
695.08716,698.3565,61,43,0
698.3565,701.6599,62,43,0
698.3565,701.6599,64,51,0
698.3565,701.6599,59,43,0
701.6599,702.75195,61,45,0
701.6599,702.75195,57,45,0
701.6599,702.75195,64,54,0
702.75195,703.8056,64,53,0
702.75195,703.8056,59,45,0
702.75195,703.8056,56,45,0
703.8056,704.8861,61,45,0
703.8056,704.8861,64,53,0
703.8056,704.8861,57,45,0
704.8861,706.03,57,48,0
704.8861,706.03,61,57,0
706.03,707.1498,59,51,0
706.03,707.1498,56,43,0
704.8861,707.1498,52,43,0
708.28564,708.56866,57,37,0
708.56866,708.8517,64,29,0
708.8517,709.1321,61,33,0
709.1321,709.40985,64,28,0
709.40985,709.6929,57,42,0
709.6929,709.95605,64,33,0
709.95605,710.2192,61,37,0
710.2192,710.48236,64,28,0
710.48236,710.73236,57,42,0
710.73236,710.98236,64,30,0
710.98236,711.25507,59,37,0
711.25507,711.5435,64,30,0
711.5435,711.8022,61,44,0
711.8022,712.0608,64,27,0
712.0608,712.3335,57,31,0
712.3335,712.62195,64,27,0
712.62195,712.88983,61,34,0
712.88983,713.15765,64,26,0
713.15765,713.451,57,28,0
713.451,713.7443,64,26,0
713.7443,713.99854,61,37,0
713.99854,714.2528,64,29,0
714.2528,714.507,57,32,0
714.507,714.807,64,28,0
714.807,715.0702,56,37,0
715.0702,715.3333,64,30,0
715.3333,715.60126,63,33,0
715.60126,715.86914,64,29,0
715.86914,716.137,56,37,0
716.137,716.40485,64,30,0
716.40485,716.6681,63,33,0
716.6681,716.9267,64,28,0
716.9267,717.1899,56,37,0
717.1899,717.453,64,30,0
717.453,717.736,57,33,0
717.736,718.0361,64,28,0
718.0361,718.2947,59,37,0
718.2947,718.5533,64,28,0
718.5533,718.83105,63,31,0
718.83105,719.1088,64,27,0
719.1088,719.3767,56,34,0
719.3767,719.6446,64,25,0
719.6446,719.93304,59,28,0
719.93304,720.2215,64,25,0
720.2215,720.4846,52,40,0
720.4846,720.7478,64,30,0
720.7478,721.011,56,33,0
721.011,721.29944,64,29,0
721.29944,721.57214,54,39,0
721.57214,721.83075,64,28,0
721.83075,722.0895,63,31,0
722.0895,722.3459,64,30,0
722.3459,722.6091,54,42,0
722.6091,722.8722,64,34,0
722.8722,723.1512,63,36,0
723.1512,723.4646,64,33,0
723.4646,723.7277,56,42,0
723.7277,723.9909,64,33,0
723.9909,724.2541,63,36,0
724.2541,724.5172,64,34,0
724.5172,725.6123,57,42,0
726.7732,727.9053,59,51,0
726.7732,727.9053,54,43,0
726.7732,727.9053,50,37,0
727.9053,730.2047,61,54,0
727.9053,730.2047,57,44,0
730.2047,731.4416,59,34,0
730.2047,731.4416,62,46,0
727.9053,731.4416,52,44,0
731.4416,733.85645,62,33,0
733.85645,735.0765,61,39,0
731.4416,735.0765,64,39,0
731.4416,735.0765,57,33,0
735.0765,735.35425,45,61,0
735.35425,735.632,49,51,0
735.632,735.9098,52,54,0
735.9098,736.18756,57,51,0
736.18756,736.4555,45,61,0
736.4555,736.7187,49,51,0
736.7187,736.9819,52,54,0
736.9819,737.245,57,51,0
737.245,737.5082,47,61,0
737.5082,737.7713,50,52,0
737.7713,738.0345,56,56,0
738.0345,738.30804,59,51,0
738.30804,740.5057,57,61,0
738.30804,740.5057,49,51,0
740.5057,741.6484,57,66,0
740.5057,741.6484,50,56,0
741.6484,742.82465,61,42,0
741.6484,742.82465,52,35,0
742.82465,744.0367,61,42,0
742.82465,744.0367,52,35,0
744.0367,745.5285,62,37,0
744.0367,745.5285,56,31,0
744.0367,745.5285,52,31,0
745.5285,747.3467,62,28,0
747.3467,749.16486,61,22,0
745.5285,749.16486,57,24,0
753.8862,754.11237,57,41,0
754.11237,754.3282,64,32,0
754.3282,754.54095,59,37,0
754.54095,754.75836,64,32,0
754.75836,754.9839,61,42,0
754.9839,755.1997,64,33,0
755.1997,755.4156,57,36,0
755.4156,755.6411,64,33,0
755.6411,755.8678,56,42,0
755.8678,756.08203,64,33,0
756.08203,756.2948,57,36,0
756.2948,756.5107,64,33,0
756.5107,756.73456,59,42,0
756.73456,756.9504,64,31,0
756.9504,757.1662,62,35,0
757.1662,757.3917,64,31,0
757.3917,757.6076,61,40,0
757.6076,757.8315,64,31,0
757.8315,758.0473,61,34,0
758.0473,758.26953,64,31,0
758.26953,758.48535,56,39,0
758.48535,758.70593,64,31,0
758.70593,758.92175,56,33,0
758.92175,759.1456,64,31,0
759.1456,759.36145,57,40,0
759.36145,759.5773,64,31,0
759.5773,759.79626,59,34,0
759.79626,760.02527,64,31,0
760.02527,760.46326,57,38,0
760.46326,760.68713,56,41,0
760.02527,760.68713,52,31,0
760.911,761.12683,45,80,0
760.827,761.12683,33,64,0
760.85504,761.12683,37,70,0
760.883,761.12683,40,75,0
761.78235,761.9936,69,71,0
761.6984,761.9936,57,58,0
761.7264,761.9936,61,62,0
761.7544,761.9936,64,68,0
762.6428,762.85864,52,80,0
762.5607,762.85864,40,70,0
762.5881,762.85864,44,72,0
762.6155,762.85864,47,77,0
763.5109,763.72217,64,71,0
763.4282,763.72217,52,58,0
763.45575,763.72217,56,68,0
763.48334,763.72217,59,62,0
764.362,764.41797,42,80,0
764.5859,764.64026,54,73,0
764.8033,764.8597,44,80,0
765.0289,765.0828,56,73,0
765.2447,765.2998,57,75,0
765.4653,765.5192,61,77,0
765.6811,765.73505,62,83,0
765.8969,765.9533,56,78,0
766.1225,766.1768,57,84,0
766.3399,766.3942,54,77,0
766.55725,766.612,50,80,0
766.77625,766.831,52,79,0
766.99524,767.4364,45,75,0
767.4364,767.9137,40,78,0
767.4364,767.9137,37,61,0
767.4364,767.9137,33,61,0
767.9819,768.20795,57,41,0
768.20795,768.42377,64,32,0
768.42377,768.63654,59,37,0
768.63654,768.85394,64,32,0
768.85394,769.0795,61,42,0
769.0795,769.29535,64,33,0
769.29535,769.51117,57,36,0
769.51117,769.73676,64,33,0
769.73676,769.9634,56,42,0
769.9634,770.1777,64,33,0
770.1777,770.39044,57,36,0
770.39044,770.60626,64,33,0
770.60626,770.83014,59,42,0
770.83014,771.04596,64,31,0
771.04596,771.2618,62,35,0
771.2618,771.48737,64,31,0
771.48737,771.7032,61,40,0
771.7032,771.92706,64,31,0
771.92706,772.1429,61,34,0
772.1429,772.3651,64,31,0
772.3651,772.58093,56,39,0
772.58093,772.8015,64,31,0
772.8015,773.01733,56,33,0
773.01733,773.2412,64,31,0
773.2412,773.4571,57,40,0
773.4571,773.6729,64,31,0
773.6729,773.89185,59,34,0
773.89185,774.1209,64,31,0
774.1209,774.55884,57,38,0
774.55884,774.7827,56,41,0
774.1209,774.7827,52,31,0
775.0066,775.2224,45,80,0
774.92267,775.2224,33,59,0
774.9506,775.2224,37,70,0
774.97864,775.2224,40,75,0
775.878,776.08923,69,71,0
775.794,776.08923,57,58,0
775.82196,776.08923,61,62,0
775.85,776.08923,64,68,0
776.73846,776.9543,52,80,0
776.6563,776.9543,40,70,0
776.6837,776.9543,44,72,0
776.71106,776.9543,47,77,0
777.6065,777.8178,64,71,0
777.5238,777.8178,52,58,0
777.5514,777.8178,56,68,0
777.579,777.8178,59,62,0
778.45764,778.5136,42,80,0
778.6815,778.73584,54,73,0
778.8989,778.95526,44,80,0
779.12445,779.1784,56,73,0
779.3403,779.39545,57,75,0
779.56085,779.6148,61,77,0
779.77673,779.8307,62,83,0
779.99255,780.04895,56,78,0
780.2181,780.27246,57,84,0
780.4355,780.48987,54,77,0
780.6529,780.70764,50,80,0
780.8719,780.9266,52,79,0
781.0908,781.53204,45,75,0
781.53204,782.03204,40,78,0
781.53204,782.03204,37,61,0
781.53204,782.03204,33,61,0
782.03204,782.2463,57,40,0
782.2463,782.4606,64,36,0
782.4606,782.67487,61,36,0
782.67487,782.89655,64,36,0
782.89655,783.11237,57,43,0
783.11237,783.33295,66,35,0
783.33295,783.5535,62,35,0
783.5535,783.78015,66,35,0
783.78015,783.9991,57,43,0
783.9991,784.2181,66,35,0
784.2181,784.4371,62,37,0
784.4371,784.6656,66,39,0
784.6656,784.88385,57,44,0
784.88385,785.10944,64,35,0
785.10944,785.33496,61,35,0
785.33496,785.61865,64,35,0
785.61865,785.83453,57,68,0
785.5892,785.83453,52,65,0
785.55963,785.83453,49,59,0
785.5213,785.83453,45,55,0
786.49005,786.7013,59,68,0
786.40607,786.7013,47,55,0
786.4341,786.7013,50,59,0
786.46204,786.7013,56,65,0
787.3232,787.56506,57,66,0
787.26843,787.5744,49,59,0
787.2958,787.5744,52,61,0
787.3505,787.5744,61,68,0
787.7703,788.0129,59,66,0
787.71436,788.02216,50,59,0
787.7423,788.02216,54,61,0
787.7983,788.02216,62,68,0
788.24274,788.45404,64,68,0
788.16003,788.45404,52,55,0
788.1876,788.45404,56,65,0
788.2152,788.45404,59,59,0
788.772,788.8797,62,47,0
788.8797,788.98883,61,44,0
788.98883,789.0993,59,41,0
789.0993,789.32544,57,41,0
789.32544,789.54126,64,32,0
789.54126,789.754,59,37,0
789.754,789.97144,64,32,0
789.97144,790.19696,61,42,0
790.19696,790.4128,64,33,0
790.4128,790.6286,57,36,0
790.6286,790.8542,64,33,0
790.8542,791.0809,56,42,0
791.0809,791.2951,64,33,0
791.2951,791.5079,57,36,0
791.5079,791.7237,64,33,0
791.7237,791.94763,59,42,0
791.94763,792.16345,64,31,0
792.16345,792.3793,56,35,0
792.3793,792.6048,64,31,0
792.6048,792.8207,54,40,0
792.8207,793.04456,64,31,0
793.04456,793.2604,56,34,0
793.2604,793.4826,64,31,0
793.4826,793.6984,57,39,0
793.6984,793.919,64,31,0
793.919,794.1348,50,33,0
794.1348,794.3587,59,31,0
794.3587,794.5745,52,40,0
794.5745,794.79034,57,31,0
794.79034,795.00934,52,34,0
795.00934,795.2772,56,31,0
795.2772,795.79443,62,38,0
795.79443,796.03064,61,31,0
795.2772,796.03064,57,26,0
795.2772,796.03064,64,32,0
796.26685,796.3788,45,66,0
796.3788,796.4908,49,56,0
796.4908,796.5994,52,55,0
796.5994,796.7081,57,55,0
796.7081,796.8209,47,66,0
796.8209,796.9337,50,56,0
796.9337,797.0416,56,56,0
797.0416,797.14954,59,56,0
797.14954,797.2598,49,66,0
797.2598,797.3701,52,55,0
797.3701,797.478,57,55,0
797.478,797.58594,61,55,0
797.58594,797.69385,50,66,0
797.69385,797.80176,54,53,0
797.80176,797.91455,59,53,0
797.91455,798.02734,62,53,0
798.02734,798.13605,52,66,0
798.13605,798.24475,57,56,0
798.24475,798.35345,61,55,0
798.35345,798.4621,64,55,0
798.4621,798.5716,40,67,0
798.5716,798.6811,44,56,0
798.6811,798.7906,47,56,0
798.7906,798.9001,52,56,0
798.9001,799.0104,45,68,0
799.0104,799.12067,49,57,0
799.12067,799.23096,52,57,0
799.23096,799.34125,57,57,0
799.34125,799.81854,45,67,0
799.8867,800.101,57,40,0
800.101,800.3153,64,36,0
800.3153,800.52954,61,36,0
800.52954,800.7512,64,36,0
800.7512,800.9671,57,43,0
800.9671,801.1877,66,35,0
801.1877,801.40826,62,35,0
801.40826,801.6348,66,35,0
801.6348,801.8538,57,43,0
801.8538,802.07275,66,35,0
802.07275,802.29175,62,37,0
802.29175,802.5203,66,39,0
802.5203,802.7386,57,44,0
802.7386,802.9641,64,35,0
802.9641,803.1897,61,35,0
803.1897,803.4734,64,35,0
803.4734,803.6892,57,68,0
803.44385,803.6892,52,65,0
803.4143,803.6892,49,59,0
803.376,803.6892,45,55,0
804.3447,804.556,59,68,0
804.2608,804.556,47,55,0
804.28876,804.556,50,59,0
804.3168,804.556,56,65,0
805.17786,805.4198,57,59,0
805.1231,805.42914,49,53,0
805.1505,805.42914,52,56,0
805.20526,805.42914,61,63,0
805.625,805.86755,59,60,0
805.56903,805.8769,50,55,0
805.59705,805.8769,54,58,0
805.653,805.8769,62,64,0
806.0975,806.3087,64,66,0
806.0148,806.3087,52,56,0
806.0423,806.3087,56,59,0
806.0699,806.3087,59,63,0
806.62665,806.7344,62,47,0
806.7344,806.8435,61,44,0
806.8435,806.95404,59,41,0
806.95404,807.1801,57,41,0
807.1801,807.39594,64,32,0
807.39594,807.6087,59,37,0
807.6087,807.8261,64,32,0
807.8261,808.0517,61,42,0
808.0517,808.2675,64,33,0
808.2675,808.48334,57,36,0
808.48334,808.7089,64,33,0
808.7089,808.93555,56,42,0
808.93555,809.14984,64,33,0
809.14984,809.3626,57,36,0
809.3626,809.5784,64,33,0
809.5784,809.8023,59,42,0
809.8023,810.0181,64,31,0
810.0181,810.23395,56,35,0
810.23395,810.45953,64,31,0
810.45953,810.67535,54,40,0
810.67535,810.89923,64,31,0
810.89923,811.11505,56,34,0
811.11505,811.3373,64,31,0
811.3373,811.5531,57,39,0
811.5531,811.7737,64,31,0
811.7737,811.9895,50,33,0
811.9895,812.2134,59,31,0
812.2134,812.42926,52,40,0
812.42926,812.6451,57,31,0
812.6451,812.864,52,34,0
812.864,813.1319,56,31,0
813.1319,813.6491,62,38,0
813.6491,813.8854,61,31,0
813.1319,813.8854,57,26,0
813.1319,813.8854,64,32,0
814.1216,814.2335,45,66,0
814.2335,814.34546,49,56,0
814.34546,814.45416,52,55,0
814.45416,814.56287,57,55,0
814.56287,814.6756,47,66,0
814.6756,814.7884,50,56,0
814.7884,814.8963,56,56,0
814.8963,815.0042,59,56,0
815.0042,815.1145,49,66,0
815.1145,815.22485,52,55,0
815.22485,815.33276,57,55,0
815.33276,815.4407,61,55,0
815.4407,815.5486,50,66,0
815.5486,815.6565,54,53,0
815.6565,815.7693,59,53,0
815.7693,815.882,62,53,0
815.882,815.9907,52,66,0
815.9907,816.0994,57,56,0
816.0994,816.2081,61,55,0
816.2081,816.31683,64,55,0
816.31683,816.42633,52,67,0
816.42633,816.5358,56,56,0
816.5358,816.6453,59,56,0
816.6453,816.7703,62,56,0
816.7817,817.00226,61,43,0
816.7817,817.00226,57,36,0
817.00226,817.2116,64,36,0
817.00226,817.2116,61,30,0
817.2225,817.431,64,36,0
817.2225,817.431,61,30,0
817.44214,817.64795,64,34,0
817.44214,817.64795,61,28,0
817.6669,817.88586,57,41,0
817.88586,818.0939,66,33,0
817.88586,818.0939,62,28,0
818.10486,818.31287,66,33,0
818.10486,818.31287,62,28,0
818.32385,818.55237,66,33,0
818.32385,818.55237,62,28,0
818.55237,818.7706,57,37,0
818.7706,818.9849,64,32,0
818.7706,818.9849,61,27,0
818.9962,819.21045,64,32,0
818.9962,819.21045,61,27,0
819.22174,819.4543,64,32,0
819.22174,819.4543,61,27,0
819.4543,819.6733,57,41,0
819.6733,819.8813,66,33,0
819.6733,819.8813,62,28,0
819.8923,820.1003,66,33,0
819.8923,820.1003,62,28,0
820.11127,820.3398,66,33,0
820.11127,820.3398,62,28,0
820.3398,820.5333,64,41,0
820.3398,820.5333,61,41,0
820.3398,820.5333,57,41,0
821.15753,821.3474,59,41,0
821.15753,821.3474,50,41,0
821.9748,822.16833,57,41,0
821.9748,822.16833,52,41,0
822.7977,822.99005,56,41,0
822.7977,822.99005,50,41,0
823.6259,823.8481,57,63,0
823.6259,823.8481,49,63,0
824.5057,824.7279,59,63,0
824.5057,824.7279,50,63,0
825.3878,825.6068,57,63,0
825.3878,825.6068,52,63,0
826.2631,826.4837,56,63,0
826.2631,826.4837,52,63,0
827.1345,827.59424,57,63,0
828.4575,828.56866,64,73,0
828.4575,828.56866,52,61,0
828.4575,828.56866,56,61,0
828.4575,828.56866,59,61,0
828.902,829.022,57,79,0
828.902,829.022,45,67,0
828.902,829.022,49,67,0
828.902,829.022,52,67,0
830.2515,830.3797,64,75,0
830.2515,830.3797,52,63,0
830.2515,830.3797,56,63,0
830.2515,830.3797,59,63,0
830.76434,830.9032,57,82,0
830.76434,830.9032,45,70,0
830.76434,830.9032,49,70,0
830.76434,830.9032,52,70,0
