start_time,end_time,note_value,velocity,instrument_program_number
0.397351,0.49668875,71,66,0
0.49668875,0.5960265,69,64,0
0.5960265,0.69536424,68,64,0
0.69536424,0.80814624,69,64,0
0.80814624,0.907484,72,71,0
1.2189415,1.3189415,74,66,0
1.3189415,1.4189415,72,63,0
1.4189415,1.5189415,71,63,0
1.5189415,1.6325778,72,63,0
1.6325778,1.7319155,76,72,0
2.040885,2.1402228,77,66,0
2.1402228,2.2395606,76,63,0
2.2395606,2.3388982,75,63,0
2.3388982,2.443065,76,63,0
2.443065,2.5424027,83,70,0
2.5424027,2.6417406,81,64,0
2.6417406,2.7410781,80,64,0
2.7410781,2.840416,81,64,0
2.840416,2.9417672,83,69,0
2.9417672,3.0431185,81,64,0
3.0431185,3.1444697,80,64,0
3.1444697,3.2589736,81,64,0
3.2589736,3.685717,84,72,0
3.685717,3.7850547,81,68,0
3.8843925,3.9915352,84,65,0
4.0643506,4.0866723,79,63,0
4.0866723,4.1089935,81,63,0
4.1089935,4.210345,83,80,0
4.311696,4.4130473,81,64,0
4.311696,4.4130473,78,54,0
4.5143986,4.613736,79,69,0
4.5143986,4.613736,76,58,0
4.713074,4.8202167,81,64,0
4.713074,4.8202167,78,54,0
4.8916454,4.9141006,79,65,0
4.9141006,4.936556,81,65,0
4.936556,5.0379066,83,82,0
5.139258,5.240609,81,66,0
5.139258,5.240609,78,56,0
5.3419604,5.4412985,79,69,0
5.3419604,5.4412985,76,58,0
5.540636,5.64855,81,65,0
5.540636,5.64855,78,55,0
5.717357,5.739547,79,64,0
5.739547,5.786904,81,64,0
5.761736,5.862407,83,79,0
5.9630785,6.06375,81,68,0
5.9630785,6.06375,78,57,0
6.164421,6.27391,79,69,0
6.164421,6.27391,76,58,0
6.383399,6.499678,78,66,0
6.383399,6.499678,75,56,0
6.615957,7.073274,76,69,0
7.103762,7.2030997,71,66,0
7.2030997,7.3024373,69,64,0
7.3024373,7.4017754,68,64,0
7.4017754,7.5145574,69,64,0
7.5145574,7.613895,72,71,0
7.9253526,8.0253525,74,66,0
8.0253525,8.125353,72,63,0
8.125353,8.225352,71,63,0
8.225352,8.338988,72,63,0
8.338988,8.438327,76,72,0
8.747296,8.846634,77,66,0
8.846634,8.9459715,76,63,0
8.9459715,9.045309,75,63,0
9.045309,9.149476,76,63,0
9.149476,9.248814,83,70,0
9.248814,9.348151,81,64,0
9.348151,9.447489,80,64,0
9.447489,9.546827,81,64,0
9.546827,9.648178,83,69,0
9.648178,9.74953,81,64,0
9.74953,9.850881,80,64,0
9.850881,9.9653845,81,64,0
9.9653845,10.392128,84,72,0
10.392128,10.491466,81,68,0
10.590803,10.697947,84,65,0
10.7707615,10.793083,79,63,0
10.793083,10.815405,81,63,0
10.815405,10.916756,83,80,0
11.018107,11.119458,81,64,0
11.018107,11.119458,78,54,0
11.22081,11.3201475,79,69,0
11.22081,11.3201475,76,58,0
11.419485,11.526628,81,64,0
11.419485,11.526628,78,54,0
11.598057,11.620512,79,65,0
11.620512,11.642966,81,65,0
11.642966,11.744318,83,82,0
11.845669,11.947021,81,66,0
11.845669,11.947021,78,56,0
12.048371,12.14771,79,69,0
12.048371,12.14771,76,58,0
12.247047,12.35496,81,65,0
12.247047,12.35496,78,55,0
12.423768,12.445957,79,64,0
12.445957,12.493147,81,64,0
12.468147,12.568147,83,79,0
12.668147,12.768147,81,68,0
12.668147,12.768147,78,57,0
12.868147,12.976843,79,69,0
12.868147,12.976843,76,58,0
13.085539,13.208489,78,66,0
13.085539,13.208489,75,56,0
13.33144,13.764132,76,69,0
13.792978,13.901673,76,56,0
13.792978,13.901673,72,56,0
14.010369,14.116753,77,56,0
14.010369,14.116753,74,56,0
14.223136,14.327302,79,66,0
14.223136,14.327302,76,66,0
14.431469,14.535636,79,57,0
14.431469,14.535636,76,57,0
14.639803,14.742542,81,64,0
14.742542,14.845282,79,57,0
14.845282,14.953043,77,57,0
14.953043,15.0658245,76,57,0
15.0658245,15.281652,71,65,0
15.281652,15.499234,67,59,0
15.0658245,15.499234,74,65,0
15.499234,15.60793,76,56,0
15.499234,15.60793,72,56,0
15.716626,15.823009,77,56,0
15.716626,15.823009,74,56,0
15.929392,16.033558,79,66,0
15.929392,16.033558,76,66,0
16.137726,16.241892,79,57,0
16.137726,16.241892,76,57,0
16.346058,16.4488,81,64,0
16.4488,16.551538,79,57,0
16.551538,16.6593,77,57,0
16.6593,16.772081,76,57,0
16.772081,17.20549,71,65,0
16.772081,17.20549,74,65,0
17.20549,17.319126,72,56,0
17.20549,17.319126,69,56,0
17.432762,17.539146,74,56,0
17.432762,17.539146,71,56,0
17.645529,17.749695,76,66,0
17.645529,17.749695,72,66,0
17.853863,17.958029,76,57,0
17.853863,17.958029,72,57,0
18.062197,18.164936,77,64,0
18.164936,18.267675,76,57,0
18.267675,18.375437,74,57,0
18.375437,18.488218,72,57,0
18.488218,18.704046,68,65,0
18.704046,18.919874,64,59,0
18.488218,18.919874,71,65,0
18.919874,19.028568,72,56,0
18.919874,19.028568,69,56,0
19.137264,19.243649,74,56,0
19.137264,19.243649,71,56,0
19.35003,19.454197,76,66,0
19.35003,19.454197,72,66,0
19.558365,19.66253,76,57,0
19.558365,19.66253,72,57,0
19.766697,19.869438,77,64,0
19.869438,19.972178,76,57,0
19.972178,20.079939,74,57,0
20.079939,20.19272,72,57,0
20.19272,20.624374,68,65,0
20.19272,20.624374,71,65,0
20.624374,20.723713,71,56,0
20.723713,20.823051,69,56,0
20.823051,20.922388,68,56,0
20.922388,21.03517,69,56,0
21.03517,21.134508,72,59,0
21.445965,21.545965,74,62,0
21.545965,21.645966,72,57,0
21.645966,21.745966,71,57,0
21.745966,21.859602,72,57,0
21.859602,21.95894,76,66,0
22.26791,22.367247,77,63,0
22.367247,22.466585,76,58,0
22.466585,22.565922,75,58,0
22.565922,22.67009,76,58,0
22.67009,22.770088,83,70,0
22.770088,22.870089,81,63,0
22.870089,22.970089,80,63,0
22.970089,23.07009,81,63,0
23.07009,23.173538,83,71,0
23.173538,23.276985,81,64,0
23.276985,23.380434,80,64,0
23.380434,23.508638,81,64,0
23.508638,23.935383,84,76,0
23.935383,24.038122,81,62,0
24.140862,24.248005,83,62,0
24.355148,24.4565,84,70,0
24.55785,24.6592,83,62,0
24.760553,24.85989,81,62,0
24.959229,25.06637,80,62,0
25.173513,25.274864,81,71,0
25.376217,25.477568,76,64,0
25.58223,25.681568,77,64,0
25.777594,25.885508,74,64,0
25.993422,26.40438,72,74,0
26.40438,26.458729,71,64,0
26.458729,26.513077,72,57,0
26.513077,26.567425,71,57,0
26.567425,26.621773,72,57,0
26.621773,26.625532,71,57,0
26.659367,26.69689,72,57,0
26.69689,26.735996,71,57,0
26.735996,26.803053,69,64,0
26.803053,26.87885,71,57,0
26.87885,27.321764,69,65,0
27.351292,27.459988,76,56,0
27.351292,27.459988,72,56,0
27.568682,27.675066,77,56,0
27.568682,27.675066,74,56,0
27.781448,27.885616,79,66,0
27.781448,27.885616,76,66,0
27.989782,28.093948,79,57,0
27.989782,28.093948,76,57,0
28.198116,28.300856,81,64,0
28.300856,28.403595,79,57,0
28.403595,28.511356,77,57,0
28.511356,28.624138,76,57,0
28.624138,28.839966,71,65,0
28.839966,29.057547,67,59,0
28.624138,29.057547,74,65,0
29.057547,29.166243,76,56,0
29.057547,29.166243,72,56,0
29.274939,29.38132,77,56,0
29.274939,29.38132,74,56,0
29.487705,29.591871,79,66,0
29.487705,29.591871,76,66,0
29.69604,29.800205,79,57,0
29.69604,29.800205,76,57,0
29.904371,30.007113,81,64,0
30.007113,30.109852,79,57,0
30.109852,30.217611,77,57,0
30.217611,30.330395,76,57,0
30.330395,30.763803,71,65,0
30.330395,30.763803,74,65,0
30.763803,30.87744,72,56,0
30.763803,30.87744,69,56,0
30.991076,31.09746,74,56,0
30.991076,31.09746,71,56,0
31.203842,31.308008,76,66,0
31.203842,31.308008,72,66,0
31.412176,31.516342,76,57,0
31.412176,31.516342,72,57,0
31.620508,31.72325,77,64,0
31.72325,31.825989,76,57,0
31.825989,31.93375,74,57,0
31.93375,32.04653,72,57,0
32.04653,32.26236,68,65,0
32.26236,32.478188,64,59,0
32.04653,32.478188,71,65,0
32.478188,32.586884,72,56,0
32.478188,32.586884,69,56,0
32.69558,32.80196,74,56,0
32.69558,32.80196,71,56,0
32.908344,33.012512,76,66,0
32.908344,33.012512,72,66,0
33.116676,33.220844,76,57,0
33.116676,33.220844,72,57,0
33.325012,33.42775,77,64,0
33.42775,33.53049,76,57,0
33.53049,33.638252,74,57,0
33.638252,33.751034,72,57,0
33.751034,34.18269,68,65,0
33.751034,34.18269,71,65,0
34.18269,34.282024,71,56,0
34.282024,34.381363,69,56,0
34.381363,34.4807,68,56,0
34.4807,34.593483,69,56,0
34.593483,34.69282,72,59,0
35.00428,35.10428,74,62,0
35.10428,35.204277,72,57,0
35.204277,35.30428,71,57,0
35.30428,35.417915,72,57,0
35.417915,35.517254,76,66,0
35.82622,35.92556,77,63,0
35.92556,36.0249,76,58,0
36.0249,36.124237,75,58,0
36.124237,36.2284,76,58,0
36.2284,36.328403,83,70,0
36.328403,36.428402,81,63,0
36.428402,36.5284,80,63,0
36.5284,36.628403,81,63,0
36.628403,36.73185,83,71,0
36.73185,36.8353,81,64,0
36.8353,36.938747,80,64,0
36.938747,37.06695,81,64,0
37.06695,37.493694,84,76,0
37.493694,37.596436,81,62,0
37.699177,37.806316,83,62,0
37.91346,38.014812,84,70,0
38.11616,38.217514,83,62,0
38.318867,38.418205,81,62,0
38.51754,38.624683,80,62,0
38.731827,38.83318,81,71,0
38.93453,39.03588,76,64,0
39.140545,39.23988,77,64,0
39.335907,39.44382,74,64,0
39.551735,39.962692,72,74,0
39.962692,40.01704,71,64,0
40.01704,40.07139,72,57,0
40.07139,40.125736,71,57,0
40.125736,40.180084,72,57,0
40.180084,40.183846,71,57,0
40.217678,40.255203,72,57,0
40.255203,40.294308,71,57,0
40.294308,40.361366,69,64,0
40.361366,40.437164,71,57,0
40.437164,40.880077,69,65,0
40.909603,41.01524,81,84,0
40.909603,41.01524,69,73,0
41.120872,41.228786,83,84,0
41.120872,41.228786,71,73,0
41.3367,41.75205,85,90,0
41.3367,41.75205,73,78,0
41.75205,41.855495,81,84,0
41.75205,41.855495,69,73,0
41.958946,42.06458,83,84,0
41.958946,42.06458,71,73,0
42.17021,42.27225,85,91,0
42.17021,42.27225,73,79,0
42.374294,42.47703,83,82,0
42.374294,42.47703,71,72,0
42.579773,42.682514,81,89,0
42.579773,42.682514,69,77,0
42.78525,42.897194,80,84,0
42.78525,42.897194,68,73,0
43.009132,43.111874,78,92,0
43.009132,43.111874,66,80,0
43.21461,43.319508,80,78,0
43.21461,43.319508,68,69,0
43.424404,43.52714,81,86,0
43.424404,43.52714,69,75,0
43.629883,43.74182,83,80,0
43.629883,43.74182,71,70,0
43.853764,44.06653,80,90,0
43.853764,44.06653,68,78,0
44.06653,44.180164,76,84,0
44.06653,44.180164,64,73,0
44.2938,44.39797,81,84,0
44.2938,44.39797,69,73,0
44.502136,44.60703,83,84,0
44.502136,44.60703,71,73,0
44.711926,45.125797,85,90,0
44.711926,45.125797,73,78,0
45.125797,45.227837,81,84,0
45.125797,45.227837,69,73,0
45.329876,45.435513,83,84,0
45.329876,45.435513,71,73,0
45.541145,45.643887,85,91,0
45.541145,45.643887,73,79,0
45.746624,45.850075,83,82,0
45.746624,45.850075,71,72,0
45.95352,46.05769,81,89,0
45.95352,46.05769,69,77,0
46.161854,46.27055,80,84,0
46.161854,46.27055,68,73,0
46.379246,46.482693,78,92,0
46.379246,46.482693,66,80,0
46.586143,46.69484,83,78,0
46.586143,46.69484,71,69,0
46.803535,46.916317,80,86,0
46.803535,46.916317,68,75,0
47.0291,47.14538,76,80,0
47.0291,47.14538,64,70,0
47.261658,47.68459,81,90,0
47.261658,47.68459,69,78,0
47.712784,47.818417,81,84,0
47.712784,47.818417,69,73,0
47.924053,48.031967,83,84,0
47.924053,48.031967,71,73,0
48.139877,48.55523,85,90,0
48.139877,48.55523,73,78,0
48.55523,48.658676,81,84,0
48.55523,48.658676,69,73,0
48.762123,48.868507,83,84,0
48.762123,48.868507,71,73,0
48.97489,49.07693,85,91,0
48.97489,49.07693,73,79,0
49.17897,49.283867,83,82,0
49.17897,49.283867,71,72,0
49.388763,49.4915,81,89,0
49.388763,49.4915,69,77,0
49.594242,49.701385,80,84,0
49.594242,49.701385,68,73,0
49.80853,49.911266,78,92,0
49.80853,49.911266,66,80,0
50.014008,50.12192,80,78,0
50.014008,50.12192,68,69,0
50.229836,50.334,81,86,0
50.229836,50.334,69,75,0
50.438168,50.547657,83,80,0
50.438168,50.547657,71,70,0
50.657146,50.86991,80,90,0
50.657146,50.86991,68,78,0
50.86991,50.980206,76,84,0
50.86991,50.980206,64,73,0
51.0905,51.196884,81,84,0
51.0905,51.196884,69,73,0
51.303265,51.40816,83,84,0
51.303265,51.40816,71,73,0
51.513054,51.926926,85,90,0
51.513054,51.926926,73,78,0
51.926926,52.02897,81,84,0
51.926926,52.02897,69,73,0
52.13101,52.238922,83,84,0
52.13101,52.238922,71,73,0
52.346836,52.449577,85,91,0
52.346836,52.449577,73,79,0
52.552315,52.655766,83,82,0
52.552315,52.655766,71,72,0
52.759212,52.86338,81,89,0
52.759212,52.86338,69,77,0
52.967545,53.07624,80,84,0
52.967545,53.07624,68,73,0
53.184937,53.288387,78,92,0
53.184937,53.288387,66,80,0
53.391834,53.50547,83,78,0
53.391834,53.50547,71,69,0
53.619106,53.731888,80,86,0
53.619106,53.731888,68,75,0
53.84467,53.96095,76,80,0
53.84467,53.96095,64,70,0
54.07723,54.500393,81,90,0
54.07723,54.500393,69,78,0
54.529198,54.646736,85,60,0
54.636635,54.74783,86,52,0
54.73734,54.853104,85,52,0
54.842236,54.961643,83,52,0
54.950928,55.068787,81,58,0
55.05807,55.17556,83,50,0
55.165215,55.279007,81,50,0
55.26866,55.382675,80,50,0
55.372112,55.488308,78,56,0
55.477745,55.594017,81,50,0
55.583378,55.7004,80,46,0
55.689762,55.80656,78,46,0
55.796146,55.91073,77,58,0
55.90031,56.01497,78,47,0
56.00448,56.11986,80,49,0
56.109375,56.22476,77,46,0
56.214268,56.329655,73,56,0
56.319164,56.434624,75,47,0
56.424057,56.540257,77,50,0
56.529694,56.64589,73,47,0
56.635326,56.751522,78,56,0
56.74096,56.857082,77,47,0
56.846592,56.96198,78,51,0
56.95149,57.06687,80,48,0
57.056385,57.17177,81,58,0
57.161278,57.276737,80,54,0
57.266174,57.38237,81,56,0
57.371807,57.487858,83,59,0
57.47744,57.592026,85,68,0
57.581608,57.69598,84,62,0
57.685776,57.79802,85,66,0
57.787815,57.889854,84,59,0
57.889854,58.00444,85,61,0
57.994022,58.10883,86,55,0
58.09819,58.215935,85,55,0
58.20457,58.328697,83,55,0
58.31821,58.433594,81,58,0
58.423103,58.538345,83,47,0
58.528,58.641792,81,53,0
58.631447,58.74531,80,47,0
58.734894,58.84948,78,54,0
58.83906,58.95387,81,47,0
58.94323,59.06025,80,50,0
59.04961,59.166634,78,46,0
59.155994,59.273018,76,56,0
59.26238,59.379177,78,47,0
59.36876,59.483345,80,50,0
59.472927,59.587585,76,47,0
59.577095,59.69248,73,54,0
59.681988,59.7976,75,47,0
59.786884,59.90474,76,53,0
59.894028,60.011658,73,47,0
60.00117,60.116554,75,53,0
60.106064,60.22145,76,47,0
60.21096,60.326344,78,51,0
60.315853,60.43124,75,47,0
60.42075,60.537373,72,50,0
60.526737,60.644417,73,47,0
60.633625,60.753716,75,50,0
60.741997,60.870052,72,46,0
60.859184,61.266792,73,52,0
61.29552,61.416924,85,60,0
61.406616,61.518192,86,52,0
61.5077,61.623466,85,52,0
61.612595,61.732082,83,52,0
61.72129,61.839996,81,58,0
61.829205,61.94768,83,50,0
61.93712,62.053318,81,50,0
62.042755,62.15895,80,50,0
62.148388,62.264584,78,56,0
62.25402,62.370293,81,50,0
62.359653,62.476677,80,46,0
62.466038,62.583214,78,46,0
62.572422,62.691124,77,58,0
62.680336,62.798737,78,47,0
62.78825,62.903633,80,49,0
62.893143,63.008526,77,46,0
62.99804,63.113422,73,56,0
63.102932,63.21839,75,47,0
63.20783,63.324024,77,50,0
63.31346,63.42966,73,47,0
63.419094,63.535294,78,56,0
63.52473,63.640854,77,47,0
63.630363,63.745747,78,51,0
63.735256,63.850643,80,48,0
63.840153,63.955536,81,58,0
63.94505,64.06051,80,54,0
64.04994,64.16614,81,56,0
64.15558,64.27185,83,59,0
64.26121,64.378235,85,68,0
64.36759,64.48432,84,62,0
64.473976,64.58777,85,66,0
64.57742,64.68087,84,59,0
64.68087,64.79466,85,64,0
64.784325,64.89841,86,57,0
64.88777,65.00479,85,57,0
64.994156,65.11102,83,57,0
65.10053,65.21592,81,60,0
65.20543,65.32067,83,51,0
65.310326,65.42412,81,55,0
65.41377,65.527565,80,47,0
65.51722,65.63101,78,54,0
65.62067,65.73476,81,47,0
65.72412,65.84114,80,50,0
65.830505,65.94745,78,46,0
65.93688,66.053085,76,53,0
66.04252,66.158424,78,47,0
66.148155,66.26117,80,50,0
66.25089,66.36405,76,47,0
66.35363,66.468216,73,54,0
66.4578,66.57268,75,47,0
66.561966,66.679825,76,53,0
66.669106,66.786964,73,47,0
66.77625,66.894104,75,53,0
66.88339,67.00102,76,47,0
66.99054,67.10592,78,51,0
67.09543,67.210815,75,47,0
67.200325,67.31695,72,50,0
67.30631,67.423996,73,47,0
67.4132,67.533295,75,50,0
67.521576,67.64963,72,46,0
67.63876,68.04637,73,52,0
68.07354,68.188126,76,69,0
68.17771,68.292366,74,59,0
68.281876,68.397644,73,59,0
68.38677,68.50618,71,59,0
68.49547,68.61333,69,66,0
68.60261,68.720314,71,57,0
68.709755,68.82595,73,57,0
68.815384,68.93159,74,57,0
68.92102,69.03722,76,64,0
69.02666,69.14293,78,57,0
69.132286,69.249306,80,56,0
69.23867,69.34062,81,56,0
69.345055,69.45807,81,66,0
69.44779,69.56102,80,60,0
69.55053,69.66592,78,60,0
69.655426,69.75595,76,57,0
69.76032,69.87571,76,64,0
69.86522,69.980675,74,59,0
69.970116,70.08631,73,59,0
70.075745,70.19158,71,59,0
70.18138,70.293625,69,64,0
70.283424,70.39595,71,54,0
70.38546,70.50085,73,57,0
70.49036,70.60574,74,54,0
70.59525,70.71064,76,64,0
70.70015,70.81649,78,58,0
70.80504,70.93184,80,60,0
70.91955,71.042496,81,63,0
71.042496,71.26977,82,75,0
71.26977,71.38435,83,69,0
71.478615,71.59683,76,69,0
71.58636,71.699715,74,59,0
71.689224,71.80499,73,59,0
71.79412,71.91353,71,59,0
71.90282,72.020676,69,66,0
72.00996,72.12766,71,57,0
72.1171,72.2333,73,57,0
72.22273,72.338936,74,57,0
72.32837,72.444565,76,64,0
72.434006,72.55028,78,57,0
72.539635,72.65666,80,56,0
72.64602,72.74797,81,56,0
72.7524,72.86542,81,66,0
72.85514,72.96837,80,57,0
72.957886,73.073265,78,60,0
73.062775,73.1633,76,57,0
73.16767,73.28306,76,64,0
73.27257,73.38802,74,59,0
73.377464,73.49366,73,59,0
73.48309,73.59893,71,59,0
73.58873,73.70097,73,64,0
73.69077,73.8033,76,54,0
73.79281,73.908195,69,57,0
73.897705,74.01288,73,54,0
74.0026,74.115616,71,64,0
74.10534,74.21903,74,58,0
74.208084,74.32852,68,60,0
74.31757,74.427055,71,55,0
74.427055,74.751816,69,66,0
74.85714,74.97954,85,60,0
74.968994,75.082184,86,52,0
75.07169,75.187454,85,52,0
75.17659,75.29592,83,52,0
75.285286,75.402306,81,58,0
75.39166,75.50861,83,50,0
75.49805,75.61424,81,50,0
75.60368,75.71988,80,50,0
75.70931,75.825516,78,56,0
75.81495,75.93122,81,50,0
75.920586,76.037605,80,46,0
76.02697,76.14391,78,46,0
76.13335,76.24955,77,58,0
76.23898,76.35511,78,47,0
76.34462,76.46,80,49,0
76.44951,76.564896,77,46,0
76.554405,76.66979,73,56,0
76.6593,76.77476,75,47,0
76.7642,76.880394,77,50,0
76.86983,76.98626,73,47,0
76.975464,77.09417,78,56,0
77.08338,77.20178,77,47,0
77.19129,77.30668,78,50,0
77.29619,77.411575,80,47,0
77.401085,77.516464,81,56,0
77.505974,77.62144,80,51,0
77.61087,77.727066,81,53,0
77.71651,77.83241,83,55,0
77.822136,77.93515,85,62,0
77.92488,78.03803,84,57,0
78.02762,78.142204,85,60,0
78.13178,78.235954,84,54,0
78.235954,78.35053,85,62,0
78.34012,78.454926,86,56,0
78.44428,78.56131,85,65,0
78.55067,78.66776,82,60,0
78.65705,78.77491,86,69,0
78.7642,78.88175,85,63,0
78.87134,78.98592,86,69,0
78.9755,79.09009,85,64,0
79.07967,79.19425,86,68,0
79.18384,79.298645,85,66,0
79.288,79.40503,86,72,0
79.39439,79.511406,85,68,0
79.50077,79.61779,86,70,0
79.607155,79.72395,85,69,0
79.71354,79.82812,83,67,0
79.8177,79.93229,81,66,0
79.92187,80.03645,80,64,0
80.02604,80.140915,81,61,0
80.1302,80.24806,83,64,0
80.23734,80.354904,80,61,0
80.34449,80.459076,81,57,0
80.448654,80.56331,83,49,0
80.552826,80.668205,85,55,0
80.657715,80.7731,78,50,0
80.76261,80.879234,77,53,0
80.8686,80.98628,78,47,0
80.97549,81.09668,80,54,0
81.08386,81.22293,77,47,0
81.21207,81.619675,78,54,0
81.64685,81.76143,76,69,0
81.751015,81.86567,74,59,0
81.85518,81.97095,73,59,0
81.960075,82.07948,71,59,0
82.06877,82.18663,69,66,0
82.17591,82.29362,71,57,0
82.28306,82.399254,73,57,0
82.38869,82.505035,74,57,0
82.49432,82.61218,76,64,0
82.60147,82.71948,78,57,0
82.70861,82.82818,80,56,0
82.81731,82.92147,81,56,0
82.926,83.04059,81,66,0
83.03017,83.14482,80,60,0
83.13434,83.24972,78,60,0
83.23923,83.33975,76,57,0
83.344124,83.45951,76,64,0
83.44902,83.564476,74,59,0
83.55392,83.67011,73,59,0
83.659546,83.77538,71,59,0
83.76518,83.877426,69,64,0
83.867226,83.97975,71,54,0
83.96926,84.08465,73,57,0
84.07416,84.189545,74,54,0
84.179054,84.29444,76,64,0
84.28395,84.40029,78,58,0
84.38885,84.51606,80,60,0
84.50335,84.63047,81,63,0
84.63047,84.864845,82,75,0
84.864845,84.97942,83,69,0
85.07317,85.18776,76,69,0
85.177345,85.292,74,59,0
85.28151,85.39727,73,59,0
85.386406,85.50581,71,59,0
85.4951,85.61295,69,66,0
85.60224,85.71995,71,57,0
85.70938,85.825584,73,57,0
85.81502,85.931366,74,57,0
85.920654,86.03851,76,64,0
86.027794,86.14558,78,57,0
86.13494,86.25196,80,56,0
86.24132,86.34327,81,56,0
86.3477,86.46229,81,66,0
86.45187,86.56653,80,57,0
86.55604,86.671425,78,60,0
86.660934,86.76146,76,57,0
86.76583,86.88121,76,64,0
86.87072,86.98618,74,59,0
86.97562,87.09181,73,59,0
87.08125,87.19709,71,59,0
87.18688,87.29913,73,64,0
87.288925,87.40146,76,54,0
87.39097,87.50635,69,57,0
87.495865,87.61103,73,54,0
87.60075,87.71377,71,64,0
87.7035,87.817184,74,58,0
87.80624,87.926674,68,60,0
87.915726,88.025215,71,55,0
88.025215,88.353714,69,66,0
88.46297,88.58722,85,60,0
88.57685,88.68893,86,52,0
88.67844,88.7942,85,52,0
88.78333,88.902664,83,52,0
88.89203,89.00905,81,58,0
88.99841,89.11536,83,50,0
89.10479,89.22099,81,50,0
89.21043,89.32662,80,50,0
89.31606,89.43226,78,56,0
89.42169,89.537964,81,50,0
89.52733,89.64435,80,46,0
89.63371,89.750656,78,46,0
89.7401,89.85629,77,58,0
89.845726,89.96185,78,47,0
89.95136,90.06674,80,49,0
90.05626,90.17164,77,46,0
90.16115,90.276535,73,56,0
90.266045,90.38151,75,47,0
90.37094,90.48714,77,50,0
90.47658,90.593,73,47,0
90.58221,90.70091,78,56,0
90.690125,90.808525,77,47,0
90.798035,90.91342,78,50,0
90.90293,91.01832,80,47,0
91.00783,91.12321,81,56,0
91.112724,91.22818,80,51,0
91.21761,91.33382,81,53,0
91.32325,91.4393,83,55,0
91.42889,91.543465,85,62,0
91.53305,91.64764,84,57,0
91.637215,91.7518,85,60,0
91.74139,91.84555,84,54,0
91.84555,91.96014,85,62,0
91.949715,92.06452,86,56,0
92.05389,92.170906,85,65,0
92.16026,92.27737,82,60,0
92.26665,92.38451,86,69,0
92.373795,92.491425,85,63,0
92.480934,92.59632,86,69,0
92.58583,92.70122,85,64,0
92.69073,92.80611,86,68,0
92.79562,92.911156,85,66,0
92.90051,93.01754,86,72,0
93.0069,93.12392,85,68,0
93.11328,93.2303,86,70,0
93.219666,93.336464,85,69,0
93.32605,93.44063,83,67,0
93.430214,93.5448,81,66,0
93.53438,93.648964,80,64,0
93.63855,93.753426,81,61,0
93.742714,93.86057,83,64,0
93.84985,93.967415,80,61,0
93.957,94.07159,81,57,0
94.061165,94.17582,83,49,0
94.16534,94.280716,85,55,0
94.270226,94.38561,78,50,0
94.37512,94.491745,77,53,0
94.48111,94.59879,78,47,0
94.588,94.70919,80,54,0
94.69637,94.836975,77,47,0
94.82458,95.28945,78,54,0
95.32044,95.42759,81,84,0
95.32044,95.42759,69,73,0
95.53473,95.64264,83,84,0
95.53473,95.64264,71,73,0
95.75056,96.1659,85,90,0
95.75056,96.1659,73,78,0
96.1659,96.269356,81,84,0
96.1659,96.269356,69,73,0
96.3728,96.47843,83,84,0
96.3728,96.47843,71,73,0
96.58407,96.68611,85,91,0
96.58407,96.68611,73,79,0
96.78815,96.89089,83,82,0
96.78815,96.89089,71,72,0
96.99363,97.09637,81,89,0
96.99363,97.09637,69,77,0
97.19911,97.31105,80,84,0
97.19911,97.31105,68,73,0
97.42299,97.52573,78,92,0
97.42299,97.52573,66,80,0
97.62847,97.73337,80,78,0
97.62847,97.73337,68,69,0
97.83826,97.94464,81,86,0
97.83826,97.94464,69,75,0
98.051025,98.162964,83,80,0
98.051025,98.162964,71,70,0
98.2749,98.48767,80,90,0
98.2749,98.48767,68,78,0
98.48767,98.60131,76,84,0
98.48767,98.60131,64,73,0
98.71494,98.82133,81,84,0
98.71494,98.82133,69,73,0
98.92771,99.03261,83,84,0
98.92771,99.03261,71,73,0
99.1375,99.55137,85,90,0
99.1375,99.55137,73,78,0
99.55137,99.65341,81,84,0
99.55137,99.65341,69,73,0
99.755455,99.861084,83,84,0
99.755455,99.861084,71,73,0
99.96672,100.06946,85,91,0
99.96672,100.06946,73,79,0
100.1722,100.27565,83,82,0
100.1722,100.27565,71,72,0
100.3791,100.48326,81,89,0
100.3791,100.48326,69,77,0
100.58743,100.69613,80,84,0
100.58743,100.69613,68,73,0
100.804825,100.90827,78,92,0
100.804825,100.90827,66,80,0
101.01172,101.120415,83,78,0
101.01172,101.120415,71,69,0
101.22911,101.34189,80,86,0
101.22911,101.34189,68,75,0
101.45467,101.57095,76,80,0
101.45467,101.57095,64,70,0
101.68723,102.11016,81,90,0
101.68723,102.11016,69,78,0
102.13836,102.243256,81,84,0
102.13836,102.243256,69,73,0
102.34815,102.45606,83,84,0
102.34815,102.45606,71,73,0
102.56398,102.979324,85,90,0
102.56398,102.979324,73,78,0
102.979324,103.08277,81,84,0
102.979324,103.08277,69,73,0
103.186226,103.2926,83,84,0
103.186226,103.2926,71,73,0
103.39899,103.50103,85,91,0
103.39899,103.50103,73,79,0
103.60307,103.70796,83,82,0
103.60307,103.70796,71,72,0
103.81286,103.9156,81,89,0
103.81286,103.9156,69,77,0
104.01834,104.12548,80,84,0
104.01834,104.12548,68,73,0
104.23263,104.335365,78,92,0
104.23263,104.335365,66,80,0
104.4381,104.54602,80,78,0
104.4381,104.54602,68,69,0
104.65393,104.76185,81,86,0
104.65393,104.76185,69,75,0
104.86976,104.9817,83,80,0
104.86976,104.9817,71,70,0
105.09364,105.306404,80,90,0
105.09364,105.306404,68,78,0
105.306404,105.420044,76,84,0
105.306404,105.420044,64,73,0
105.533676,105.63785,81,84,0
105.533676,105.63785,69,73,0
105.74201,105.84691,83,84,0
105.74201,105.84691,71,73,0
105.951805,106.36568,85,90,0
105.951805,106.36568,73,78,0
106.36568,106.46771,81,84,0
106.36568,106.46771,69,73,0
106.569756,106.677666,83,84,0
106.569756,106.677666,71,73,0
106.78558,106.88832,85,91,0
106.78558,106.88832,73,79,0
106.991066,107.09451,83,82,0
106.991066,107.09451,71,72,0
107.19796,107.302124,81,89,0
107.19796,107.302124,69,77,0
107.406296,107.51499,80,84,0
107.406296,107.51499,68,73,0
107.62368,107.727135,78,92,0
107.62368,107.727135,66,80,0
107.83058,107.944214,83,78,0
107.83058,107.944214,71,69,0
108.05785,108.17063,80,86,0
108.05785,108.17063,68,75,0
108.28342,108.3997,76,80,0
108.28342,108.3997,64,70,0
108.515976,109.07291,81,90,0
108.515976,109.07291,69,78,0
109.11003,109.20937,71,66,0
109.20937,109.30871,69,64,0
109.30871,109.40805,68,64,0
109.40805,109.52083,69,64,0
109.52083,109.62017,72,71,0
109.931625,110.031624,74,66,0
110.031624,110.13162,72,63,0
110.13162,110.23162,71,63,0
110.23162,110.34526,72,63,0
110.34526,110.444595,76,72,0
110.75357,110.852905,77,66,0
110.852905,110.95224,76,63,0
110.95224,111.05158,75,63,0
111.05158,111.15575,76,63,0
111.15575,111.25509,83,70,0
111.25509,111.35442,81,64,0
111.35442,111.45376,80,64,0
111.45376,111.5531,81,64,0
111.5531,111.65445,83,69,0
111.65445,111.7558,81,64,0
111.7558,111.857155,80,64,0
111.857155,111.97166,81,64,0
111.97166,112.3984,84,72,0
112.3984,112.497734,81,68,0
112.59708,112.704216,84,65,0
112.77703,112.799355,79,63,0
112.799355,112.82168,81,63,0
112.82168,112.92303,83,80,0
113.024376,113.12573,81,64,0
113.024376,113.12573,78,54,0
113.22708,113.326416,79,69,0
113.22708,113.326416,76,58,0
113.42576,113.5329,81,64,0
113.42576,113.5329,78,54,0
113.60433,113.626785,79,65,0
113.626785,113.64924,81,65,0
113.64924,113.75059,83,82,0
113.851944,113.95329,81,66,0
113.851944,113.95329,78,56,0
114.05464,114.153984,79,69,0
114.05464,114.153984,76,58,0
114.25332,114.36124,81,65,0
114.25332,114.36124,78,55,0
114.43004,114.45223,79,64,0
114.45223,114.49959,81,64,0
114.47442,114.57509,83,79,0
114.67576,114.776436,81,68,0
114.67576,114.776436,78,57,0
114.877106,114.986595,79,69,0
114.877106,114.986595,76,58,0
115.096085,115.212364,78,66,0
115.096085,115.212364,75,56,0
115.328636,115.78596,76,69,0
115.816444,115.91578,71,66,0
115.91578,116.01512,69,64,0
116.01512,116.114456,68,64,0
116.114456,116.22724,69,64,0
116.22724,116.32658,72,71,0
116.63804,116.73804,74,66,0
116.73804,116.838036,72,63,0
116.838036,116.938034,71,63,0
116.938034,117.051674,72,63,0
117.051674,117.15101,76,72,0
117.45998,117.55932,77,66,0
117.55932,117.65865,76,63,0
117.65865,117.757996,75,63,0
117.757996,117.86216,76,63,0
117.86216,117.961494,83,70,0
117.961494,118.06084,81,64,0
118.06084,118.16017,80,64,0
118.16017,118.25951,81,64,0
118.25951,118.36086,83,69,0
118.36086,118.46221,81,64,0
118.46221,118.56356,80,64,0
118.56356,118.67807,81,64,0
118.67807,119.10481,84,72,0
119.10481,119.20415,81,68,0
119.30349,119.41063,84,65,0
119.483444,119.50577,79,63,0
119.50577,119.52808,81,63,0
119.52808,119.62944,83,80,0
119.73079,119.83214,81,64,0
119.73079,119.83214,78,54,0
119.933495,120.03283,79,69,0
119.933495,120.03283,76,58,0
120.13217,120.23931,81,64,0
120.13217,120.23931,78,54,0
120.31074,120.33319,79,65,0
120.33319,120.35565,81,65,0
120.35565,120.457,83,82,0
120.55835,120.659706,81,66,0
120.55835,120.659706,78,56,0
120.761055,120.86039,79,69,0
120.761055,120.86039,76,58,0
120.95973,121.06764,81,65,0
120.95973,121.06764,78,55,0
121.13645,121.15864,79,64,0
121.15864,121.20583,81,64,0
121.18083,121.28083,83,79,0
121.38083,121.48083,81,68,0
121.38083,121.48083,78,57,0
121.58083,121.68953,79,69,0
121.58083,121.68953,76,58,0
121.79822,121.92117,78,66,0
121.79822,121.92117,75,56,0
122.04412,122.476814,76,69,0
122.50566,122.61436,76,56,0
122.50566,122.61436,72,56,0
122.72305,122.82944,77,56,0
122.72305,122.82944,74,56,0
122.93582,123.039986,79,66,0
122.93582,123.039986,76,66,0
123.14415,123.24832,79,57,0
123.14415,123.24832,76,57,0
123.352486,123.45522,81,64,0
123.45522,123.55797,79,57,0
123.55797,123.665726,77,57,0
123.665726,123.77851,76,57,0
123.77851,123.99434,71,65,0
123.99434,124.211914,67,59,0
123.77851,124.211914,74,65,0
124.211914,124.32061,76,56,0
124.211914,124.32061,72,56,0
124.429306,124.53569,77,56,0
124.429306,124.53569,74,56,0
124.642075,124.74624,79,66,0
124.642075,124.74624,76,66,0
124.85041,124.954575,79,57,0
124.85041,124.954575,76,57,0
125.05874,125.16148,81,64,0
125.16148,125.26422,79,57,0
125.26422,125.37198,77,57,0
125.37198,125.484764,76,57,0
125.484764,125.918175,71,65,0
125.484764,125.918175,74,65,0
125.918175,126.03181,72,56,0
125.918175,126.03181,69,56,0
126.14545,126.25183,74,56,0
126.14545,126.25183,71,56,0
126.358215,126.46238,76,66,0
126.358215,126.46238,72,66,0
126.56654,126.670715,76,57,0
126.56654,126.670715,72,57,0
126.77488,126.87762,77,64,0
126.87762,126.98036,76,57,0
126.98036,127.08812,74,57,0
127.08812,127.200905,72,57,0
127.200905,127.416725,68,65,0
127.416725,127.63255,64,59,0
127.200905,127.63255,71,65,0
127.63255,127.74125,72,56,0
127.63255,127.74125,69,56,0
127.849945,127.95633,74,56,0
127.849945,127.95633,71,56,0
128.06271,128.16689,76,66,0
128.06271,128.16689,72,66,0
128.27104,128.37521,76,57,0
128.27104,128.37521,72,57,0
128.47939,128.58212,77,64,0
128.58212,128.68486,76,57,0
128.68486,128.79262,74,57,0
128.79262,128.9054,72,57,0
128.9054,129.33705,68,65,0
128.9054,129.33705,71,65,0
129.33705,129.4364,71,56,0
129.4364,129.53574,69,56,0
129.53574,129.63507,68,56,0
129.63507,129.74785,69,56,0
129.74785,129.8472,72,59,0
130.15865,130.25865,74,62,0
130.25865,130.35864,72,57,0
130.35864,130.45865,71,57,0
130.45865,130.57228,72,57,0
130.57228,130.67162,76,66,0
130.98059,131.07993,77,63,0
131.07993,131.17926,76,58,0
131.17926,131.27861,75,58,0
131.27861,131.38277,76,58,0
131.38277,131.48277,83,70,0
131.48277,131.58278,81,63,0
131.58278,131.68277,80,63,0
131.68277,131.78278,81,63,0
131.78278,131.88622,83,71,0
131.88622,131.98967,81,64,0
131.98967,132.09312,80,64,0
132.09312,132.22133,81,64,0
132.22133,132.64807,84,76,0
132.64807,132.75081,81,62,0
132.85355,132.9607,83,62,0
133.06783,133.16917,84,70,0
133.27054,133.37189,83,62,0
133.47324,133.57597,81,62,0
133.67871,133.78586,80,62,0
133.893,133.99435,81,71,0
134.0957,134.19705,76,64,0
134.30185,134.4053,77,64,0
134.5053,134.61322,74,64,0
134.72113,135.1321,72,74,0
135.1321,135.18643,71,64,0
135.18643,135.24078,72,57,0
135.24078,135.29514,71,57,0
135.29514,135.34949,72,57,0
135.34949,135.35324,71,57,0
135.38707,135.42459,72,57,0
135.42459,135.4637,71,57,0
135.4637,135.53076,69,64,0
135.53076,135.60655,71,57,0
135.60655,136.04947,69,65,0
136.079,136.1877,76,56,0
136.079,136.1877,72,56,0
136.29639,136.40277,77,56,0
136.29639,136.40277,74,56,0
136.50916,136.61333,79,66,0
136.50916,136.61333,76,66,0
136.71748,136.82166,79,57,0
136.71748,136.82166,76,57,0
136.92583,137.02856,81,64,0
137.02856,137.1313,79,57,0
137.1313,137.23906,77,57,0
137.23906,137.35185,76,57,0
137.35185,137.56767,71,65,0
137.56767,137.78525,67,59,0
137.35185,137.78525,74,65,0
137.78525,137.89395,76,56,0
137.78525,137.89395,72,56,0
138.00264,138.10902,77,56,0
138.00264,138.10902,74,56,0
138.21541,138.31958,79,66,0
138.21541,138.31958,76,66,0
138.42375,138.52791,79,57,0
138.42375,138.52791,76,57,0
138.63208,138.73482,81,64,0
138.73482,138.83755,79,57,0
138.83755,138.94531,77,57,0
138.94531,139.0581,76,57,0
139.0581,139.49152,71,65,0
139.0581,139.49152,74,65,0
139.49152,139.60515,72,56,0
139.49152,139.60515,69,56,0
139.71878,139.82516,74,56,0
139.71878,139.82516,71,56,0
139.93155,140.03572,76,66,0
139.93155,140.03572,72,66,0
140.13988,140.24405,76,57,0
140.13988,140.24405,72,57,0
140.34822,140.45096,77,64,0
140.45096,140.5537,76,57,0
140.5537,140.66145,74,57,0
140.66145,140.77425,72,57,0
140.77425,140.99007,68,65,0
140.99007,141.20589,64,59,0
140.77425,141.20589,71,65,0
141.20589,141.31459,72,56,0
141.20589,141.31459,69,56,0
141.42328,141.52966,74,56,0
141.42328,141.52966,71,56,0
141.63605,141.74022,76,66,0
141.63605,141.74022,72,66,0
141.84439,141.94855,76,57,0
141.84439,141.94855,72,57,0
142.05272,142.15546,77,64,0
142.15546,142.2582,76,57,0
142.2582,142.36595,74,57,0
142.36595,142.47874,72,57,0
142.47874,142.9104,68,65,0
142.47874,142.9104,71,65,0
142.9104,143.00974,71,56,0
143.00974,143.10907,69,56,0
143.10907,143.2084,68,56,0
143.2084,143.3212,69,56,0
143.3212,143.42053,72,59,0
143.73198,143.83199,74,62,0
143.83199,143.93199,72,57,0
143.93199,144.03198,71,57,0
144.03198,144.14563,72,57,0
144.14563,144.24496,76,66,0
144.55392,144.65327,77,63,0
144.65327,144.75261,76,58,0
144.75261,144.85194,75,58,0
144.85194,144.95612,76,58,0
144.95612,145.0561,83,70,0
145.0561,145.15611,81,63,0
145.15611,145.2561,80,63,0
145.2561,145.35611,81,63,0
145.35611,145.45956,83,71,0
145.45956,145.563,81,64,0
145.563,145.66646,80,64,0
145.66646,145.79466,81,64,0
145.79466,146.2214,84,76,0
146.2214,146.32414,81,62,0
146.42688,146.53403,83,62,0
146.64117,146.74252,84,70,0
146.84387,146.94522,83,62,0
147.04657,147.15002,81,62,0
147.25346,147.36061,80,62,0
147.46776,147.5691,81,71,0
147.67046,147.7718,76,64,0
147.87663,147.9808,77,64,0
148.0815,148.1894,74,64,0
148.29732,148.70828,72,74,0
148.70828,148.76263,71,64,0
148.76263,148.81697,72,57,0
148.81697,148.87132,71,57,0
148.87132,148.92567,72,57,0
148.92567,148.92943,71,57,0
148.96327,149.0008,72,57,0
149.0008,149.0399,71,57,0
149.0399,149.10695,69,64,0
149.10695,149.18275,71,57,0
149.18275,149.62566,69,65,0
149.6552,149.75864,69,82,0
149.75864,149.86209,81,79,0
149.86209,149.97,71,83,0
149.97,150.07791,83,80,0
150.07791,150.17996,73,89,0
150.17996,150.282,85,84,0
150.49327,150.59671,69,85,0
150.59671,150.70016,81,73,0
150.70016,150.8058,71,84,0
150.8058,150.91142,83,72,0
150.91142,151.01347,73,90,0
151.01347,151.11551,85,75,0
151.11551,151.21825,71,84,0
151.21825,151.32098,83,73,0
151.32098,151.42372,69,87,0
151.42372,151.52647,81,74,0
151.52647,151.63841,68,83,0
151.63841,151.75035,80,76,0
151.75035,151.85309,66,88,0
151.85309,151.95583,78,75,0
151.95583,152.06073,68,83,0
152.06073,152.16562,80,69,0
152.16562,152.27353,69,79,0
152.27353,152.38144,81,71,0
152.38144,152.4934,71,81,0
152.4934,152.60533,83,73,0
152.60533,152.71172,68,86,0
152.71172,152.8181,80,73,0
152.8181,152.93173,64,81,0
152.93173,153.04536,76,72,0
153.04536,153.1447,69,83,0
153.1447,153.24403,81,73,0
153.24403,153.34894,71,82,0
153.34894,153.45383,83,73,0
153.45383,153.55588,73,89,0
153.55588,153.65791,85,77,0
153.8677,153.96974,69,85,0
153.96974,154.07178,81,76,0
154.07178,154.17741,71,84,0
154.17741,154.28305,83,77,0
154.28305,154.38579,73,92,0
154.38579,154.48853,85,77,0
154.48853,154.59198,71,84,0
154.59198,154.69543,83,75,0
154.69543,154.79959,69,88,0
154.79959,154.90376,81,77,0
154.90376,155.01245,68,84,0
155.01245,155.12115,80,75,0
155.12115,155.2246,66,91,0
155.2246,155.32805,78,79,0
155.32805,155.43674,71,82,0
155.43674,155.54544,83,72,0
155.54544,155.65822,68,86,0
155.65822,155.77101,80,75,0
155.77101,155.88728,64,80,0
155.88728,156.00356,76,74,0
156.00356,156.4265,81,90,0
156.00356,156.4265,69,78,0
156.4547,156.55605,69,82,0
156.55605,156.6574,81,79,0
156.6574,156.7653,71,83,0
156.7653,156.87321,83,80,0
156.87321,156.97527,73,89,0
156.97527,157.0773,85,84,0
157.28857,157.39201,69,85,0
157.39201,157.49547,81,73,0
157.49547,157.6011,71,84,0
157.6011,157.70673,83,72,0
157.70673,157.80878,73,90,0
157.80878,157.91081,85,75,0
157.91081,158.01355,71,84,0
158.01355,158.11629,83,73,0
158.11629,158.21904,69,87,0
158.21904,158.32178,81,74,0
158.32178,158.43372,68,83,0
158.43372,158.54565,80,76,0
158.54565,158.64839,66,88,0
158.64839,158.75113,78,75,0
158.75113,158.85603,68,83,0
158.85603,158.96092,80,69,0
158.96092,159.06883,69,79,0
159.06883,159.17676,81,71,0
159.17676,159.2887,71,81,0
159.2887,159.40063,83,73,0
159.40063,159.50702,68,86,0
159.50702,159.6134,80,73,0
159.6134,159.7237,64,81,0
159.7237,159.83398,76,72,0
159.83398,159.93332,69,83,0
159.93332,160.03265,81,73,0
160.03265,160.13756,71,82,0
160.13756,160.24245,83,73,0
160.24245,160.3445,73,89,0
160.3445,160.44653,85,77,0
160.65633,160.75836,69,85,0
160.75836,160.8604,81,76,0
160.8604,160.96603,71,84,0
160.96603,161.07167,83,77,0
161.07167,161.17441,73,92,0
161.17441,161.27715,85,77,0
161.27715,161.3806,71,84,0
161.3806,161.48405,83,75,0
161.48405,161.58821,69,88,0
161.58821,161.69238,81,77,0
161.69238,161.80107,68,84,0
161.80107,161.90977,80,75,0
161.90977,162.01321,66,91,0
162.01321,162.11667,78,79,0
162.11667,162.22537,71,82,0
162.22537,162.33406,83,72,0
162.33406,162.44684,68,86,0
162.44684,162.55963,80,75,0
162.55963,162.6759,64,80,0
162.6759,162.78154,76,74,0
162.78154,163.19391,81,90,0
162.78154,163.19391,69,78,0
163.19391,163.51094,85,90,0
163.51094,163.59016,85,90,0
163.19391,163.61658,73,78,0
163.59016,163.61658,73,74,0
163.60777,164.02895,81,80,0
163.59897,164.02895,76,77,0
163.61658,164.45161,85,90,0
164.4252,164.864,73,74,0
164.44281,164.864,81,80,0
164.434,164.864,76,77,0
164.45161,165.28665,85,90,0
165.28665,165.38939,86,90,0
165.38939,165.49213,85,87,0
165.49213,165.54385,83,86,0
165.59558,165.64731,85,86,0
165.69904,165.80319,86,90,0
165.80319,165.90736,85,84,0
165.90736,165.96172,83,84,0
166.01605,166.0742,85,85,0
166.13234,166.96738,86,90,0
166.94096,166.96738,86,76,0
166.13234,166.96738,78,80,0
166.13234,166.96738,81,80,0
166.96738,167.02019,85,90,0
166.96738,167.02019,81,76,0
166.96738,167.02019,76,76,0
167.15224,167.17865,86,76,0
167.17865,167.23036,85,85,0
167.17865,167.23036,81,72,0
167.17865,167.23036,76,72,0
167.35968,167.38554,86,76,0
167.38554,167.43762,85,85,0
167.38554,167.43762,81,72,0
167.38554,167.43762,76,72,0
167.56784,167.59387,86,76,0
167.59387,167.64822,85,85,0
167.59387,167.64822,81,72,0
167.59387,167.64822,76,72,0
167.8082,168.53922,83,90,0
168.53922,168.6564,88,103,0
167.8082,168.69547,80,80,0
167.8082,168.69547,76,80,0
168.66942,168.69547,76,77,0
168.68243,169.10783,81,80,0
168.6564,169.10783,73,74,0
168.69547,169.5305,85,90,0
169.50409,169.94287,73,74,0
169.5217,169.94287,81,80,0
169.5129,169.94287,76,77,0
169.5305,170.36554,85,90,0
170.36554,170.46828,86,90,0
170.46828,170.57101,85,87,0
170.57101,170.62274,83,86,0
170.67447,170.72618,85,86,0
170.77791,170.88208,86,90,0
170.88208,170.98625,85,84,0
170.98625,171.04059,83,84,0
171.09494,171.15308,85,85,0
171.21123,172.04626,86,90,0
172.01985,172.04626,86,76,0
171.21123,172.04626,78,80,0
171.21123,172.04626,81,80,0
172.04626,172.88708,85,90,0
172.86067,172.88708,85,76,0
172.04626,172.88708,76,76,0
172.04626,172.88708,81,76,0
172.88708,172.93846,83,90,0
172.88708,172.93846,80,76,0
172.88708,172.93846,76,76,0
173.06688,173.09256,85,76,0
173.09256,173.14429,83,85,0
173.09256,173.14429,80,72,0
173.09256,173.14429,76,72,0
173.2736,173.29947,85,76,0
173.29947,173.35155,83,85,0
173.29947,173.35155,80,72,0
173.29947,173.35155,76,72,0
173.48175,173.5078,85,76,0
173.5078,173.56215,83,85,0
173.5078,173.56215,80,72,0
173.5078,173.56215,76,72,0
173.72519,174.10562,81,90,0
174.10562,174.1328,76,55,0
174.1328,174.15997,81,60,0
174.15997,174.477,85,67,0
174.477,174.52982,85,63,0
174.52982,174.55623,76,55,0
174.55623,174.58263,81,60,0
174.58263,175.36485,85,70,0
175.36485,175.39127,76,55,0
175.39127,175.41768,81,60,0
175.41768,176.25272,85,69,0
176.25272,176.35545,86,69,0
176.35545,176.45819,85,60,0
176.45819,176.50992,83,60,0
176.56165,176.61336,85,60,0
176.66508,176.76926,86,68,0
176.76926,176.87343,85,61,0
176.87343,176.92776,83,61,0
176.98212,177.04025,85,61,0
177.09839,177.93344,86,67,0
177.90703,177.93344,86,59,0
177.93344,177.98625,85,71,0
178.11829,178.1447,86,56,0
178.1447,178.19643,85,64,0
178.32573,178.3516,86,57,0
178.3516,178.40369,85,65,0
178.53389,178.55994,86,59,0
178.55994,178.61427,85,66,0
178.77426,179.50366,83,67,0
179.50366,179.61081,88,94,0
179.63461,180.0589,81,80,0
179.61081,180.0589,73,74,0
179.62271,180.0589,76,77,0
179.64653,180.48157,85,90,0
180.45515,180.89394,73,74,0
180.47276,180.89394,81,80,0
180.46396,180.89394,76,77,0
180.48157,181.3166,85,90,0
181.3166,181.41934,86,90,0
181.41934,181.52208,85,87,0
181.52208,181.5738,83,86,0
181.62553,181.67726,85,86,0
181.72897,181.83315,86,90,0
181.83315,181.93732,85,84,0
181.93732,181.99165,83,84,0
182.046,182.10414,85,85,0
182.1623,182.99733,86,90,0
182.97092,182.99733,86,76,0
182.1623,182.99733,78,80,0
182.1623,182.99733,81,80,0
182.99733,183.83815,85,90,0
183.81174,183.83815,85,76,0
182.99733,183.83815,76,76,0
182.99733,183.83815,81,76,0
183.83815,183.88953,83,90,0
183.83815,183.88953,80,76,0
183.83815,183.88953,76,76,0
184.01794,184.04362,85,76,0
184.04362,184.09535,83,85,0
184.04362,184.09535,80,72,0
184.04362,184.09535,76,72,0
184.22467,184.25053,85,76,0
184.25053,184.30261,83,85,0
184.25053,184.30261,80,72,0
184.25053,184.30261,76,72,0
184.43282,184.45886,85,76,0
184.45886,184.51321,83,85,0
184.45886,184.51321,80,72,0
184.45886,184.51321,76,72,0
184.67319,185.30699,81,90,0
184.67319,185.30699,69,90,0
184.67319,185.30699,73,90,0
184.67319,185.30699,76,90,0
185.30699,185.36469,85,87,0
185.30699,185.36469,73,73,0
185.53777,186.17157,81,90,0
185.53777,186.17157,69,90,0
186.17157,186.23016,85,87,0
186.17157,186.23016,73,73,0
186.40594,187.03975,81,90,0
186.40594,187.03975,69,90,0
187.03975,187.097,85,87,0
187.03975,187.097,73,73,0
187.26875,187.37514,81,97,0
187.26875,187.37514,69,82,0
187.48152,187.58568,85,92,0
187.48152,187.58568,73,78,0
187.68985,187.79402,81,99,0
187.68985,187.79402,69,83,0
187.89818,188.01012,85,93,0
187.89818,188.01012,73,79,0
188.12207,188.58008,81,108,0
188.12207,188.58008,69,90,0
188.58008,189.08008,81,97,0
188.58008,189.08008,69,82,0
188.58008,189.08008,73,82,0
188.58008,189.08008,76,82,0
189.08008,189.58008,81,103,0
189.08008,189.58008,69,86,0
189.08008,189.58008,73,86,0
189.08008,189.58008,76,86,0
0.80814624,0.907484,57,57,0
1.0068218,1.1061594,60,43,0
1.0068218,1.1061594,64,52,0
1.2189415,1.3189415,64,52,0
1.2189415,1.3189415,60,43,0
1.4189415,1.5189415,64,51,0
1.4189415,1.5189415,60,42,0
1.6325778,1.7319155,57,57,0
1.8312533,1.930591,60,43,0
1.8312533,1.930591,64,52,0
2.040885,2.1402228,60,43,0
2.040885,2.1402228,64,52,0
2.2395606,2.3388982,60,43,0
2.2395606,2.3388982,64,52,0
2.443065,2.5424027,57,57,0
2.6417406,2.7410781,60,42,0
2.6417406,2.7410781,64,50,0
2.840416,2.9417672,57,57,0
3.0431185,3.1444697,60,43,0
3.0431185,3.1444697,64,52,0
3.2589736,3.3610144,57,57,0
3.463055,3.569438,60,42,0
3.463055,3.569438,64,50,0
3.685717,3.7850547,60,42,0
3.685717,3.7850547,64,50,0
3.8843925,3.9915352,60,42,0
3.8843925,3.9915352,64,50,0
4.1089935,4.210345,52,65,0
4.311696,4.4130473,59,44,0
4.311696,4.4130473,64,53,0
4.5143986,4.613736,59,44,0
4.5143986,4.613736,64,53,0
4.713074,4.8202167,59,44,0
4.713074,4.8202167,64,53,0
4.936556,5.0379066,52,66,0
5.139258,5.240609,59,43,0
5.139258,5.240609,64,52,0
5.3419604,5.4412985,59,43,0
5.3419604,5.4412985,64,52,0
5.540636,5.64855,59,43,0
5.540636,5.64855,64,52,0
5.761736,5.862407,52,67,0
5.9630785,6.06375,59,43,0
5.9630785,6.06375,64,52,0
6.164421,6.27391,47,52,0
6.383399,6.499678,59,52,0
6.615957,7.073274,52,57,0
7.5145574,7.613895,57,57,0
7.7132325,7.8125706,60,43,0
7.7132325,7.8125706,64,52,0
7.9253526,8.0253525,64,52,0
7.9253526,8.0253525,60,43,0
8.125353,8.225352,64,51,0
8.125353,8.225352,60,42,0
8.338988,8.438327,57,57,0
8.537664,8.637002,60,43,0
8.537664,8.637002,64,52,0
8.747296,8.846634,60,43,0
8.747296,8.846634,64,52,0
8.9459715,9.045309,60,43,0
8.9459715,9.045309,64,52,0
9.149476,9.248814,57,57,0
9.348151,9.447489,60,42,0
9.348151,9.447489,64,50,0
9.546827,9.648178,57,57,0
9.74953,9.850881,60,43,0
9.74953,9.850881,64,52,0
9.9653845,10.067425,57,57,0
10.169466,10.275849,60,42,0
10.169466,10.275849,64,50,0
10.392128,10.491466,60,42,0
10.392128,10.491466,64,50,0
10.590803,10.697947,60,42,0
10.590803,10.697947,64,50,0
10.815405,10.916756,52,65,0
11.018107,11.119458,59,44,0
11.018107,11.119458,64,53,0
11.22081,11.3201475,59,44,0
11.22081,11.3201475,64,53,0
11.419485,11.526628,59,44,0
11.419485,11.526628,64,53,0
11.642966,11.744318,52,66,0
11.845669,11.947021,59,43,0
11.845669,11.947021,64,52,0
12.048371,12.14771,59,43,0
12.048371,12.14771,64,52,0
12.247047,12.35496,59,43,0
12.247047,12.35496,64,52,0
12.468147,12.568147,52,67,0
12.668147,12.768147,59,43,0
12.668147,12.768147,64,52,0
12.868147,12.976843,47,52,0
13.085539,13.208489,59,52,0
13.33144,13.764132,52,57,0
14.223136,14.327302,48,59,0
14.431469,14.535636,60,53,0
14.639803,14.742542,52,59,0
14.845282,14.953043,64,57,0
15.0658245,15.499234,55,60,0
15.929392,16.033558,48,59,0
16.137726,16.241892,60,53,0
16.346058,16.4488,52,59,0
16.551538,16.6593,64,57,0
16.772081,17.20549,55,60,0
17.645529,17.749695,45,59,0
17.853863,17.958029,57,53,0
18.062197,18.164936,48,59,0
18.267675,18.375437,60,57,0
18.488218,18.919874,52,60,0
19.35003,19.454197,45,59,0
19.558365,19.66253,57,53,0
19.766697,19.869438,48,59,0
19.972178,20.079939,60,57,0
20.19272,20.624374,52,60,0
21.03517,21.134508,57,53,0
21.233847,21.333183,60,47,0
21.233847,21.333183,64,47,0
21.445965,21.545965,64,47,0
21.445965,21.545965,60,47,0
21.645966,21.745966,64,47,0
21.645966,21.745966,60,47,0
21.859602,21.95894,57,54,0
22.058277,22.157616,60,48,0
22.058277,22.157616,64,48,0
22.26791,22.367247,60,48,0
22.26791,22.367247,64,48,0
22.466585,22.565922,60,48,0
22.466585,22.565922,64,48,0
22.67009,22.770088,57,56,0
22.870089,22.970089,60,49,0
22.870089,22.970089,64,49,0
23.07009,23.173538,57,57,0
23.276985,23.380434,60,43,0
23.276985,23.380434,64,52,0
23.508638,23.61068,53,57,0
23.71272,23.819103,57,51,0
23.71272,23.819103,63,51,0
23.935383,24.038122,57,43,0
23.935383,24.038122,63,43,0
24.140862,24.248005,57,39,0
24.140862,24.248005,63,39,0
24.355148,24.4565,52,46,0
24.55785,24.6592,57,42,0
24.55785,24.6592,64,42,0
24.760553,24.85989,50,42,0
24.959229,25.06637,53,42,0
24.959229,25.06637,59,42,0
25.173513,25.274864,48,47,0
25.376217,25.477568,52,39,0
25.376217,25.477568,57,39,0
25.578918,25.678257,50,41,0
25.777594,25.885508,53,41,0
25.777594,25.885508,59,41,0
25.993422,26.09616,57,48,0
25.993422,26.09616,52,48,0
26.1989,26.301641,52,41,0
26.1989,26.301641,57,41,0
26.4001,26.508547,52,41,0
26.40438,26.513077,56,41,0
26.621773,26.735996,56,41,0
26.621773,26.735996,52,41,0
26.87885,27.321764,57,46,0
26.87885,27.351292,45,46,0
27.781448,27.885616,48,59,0
27.989782,28.093948,60,53,0
28.198116,28.300856,52,59,0
28.403595,28.511356,64,57,0
28.624138,29.057547,55,60,0
29.487705,29.591871,48,59,0
29.69604,29.800205,60,53,0
29.904371,30.007113,52,59,0
30.109852,30.217611,64,57,0
30.330395,30.763803,55,60,0
31.203842,31.308008,45,59,0
31.412176,31.516342,57,53,0
31.620508,31.72325,48,59,0
31.825989,31.93375,60,57,0
32.04653,32.478188,52,60,0
32.908344,33.012512,45,59,0
33.116676,33.220844,57,53,0
33.325012,33.42775,48,59,0
33.53049,33.638252,60,57,0
33.751034,34.18269,52,60,0
34.593483,34.69282,57,53,0
34.79216,34.8915,60,47,0
34.79216,34.8915,64,47,0
35.00428,35.10428,64,47,0
35.00428,35.10428,60,47,0
35.204277,35.30428,64,47,0
35.204277,35.30428,60,47,0
35.417915,35.517254,57,54,0
35.61659,35.715927,60,48,0
35.61659,35.715927,64,48,0
35.82622,35.92556,60,48,0
35.82622,35.92556,64,48,0
36.0249,36.124237,60,48,0
36.0249,36.124237,64,48,0
36.2284,36.328403,57,56,0
36.428402,36.5284,60,49,0
36.428402,36.5284,64,49,0
36.628403,36.73185,57,57,0
36.8353,36.938747,60,43,0
36.8353,36.938747,64,52,0
37.06695,37.16899,53,57,0
37.271034,37.37742,57,51,0
37.271034,37.37742,63,51,0
37.493694,37.596436,57,43,0
37.493694,37.596436,63,43,0
37.699177,37.806316,57,39,0
37.699177,37.806316,63,39,0
37.91346,38.014812,52,46,0
38.11616,38.217514,57,42,0
38.11616,38.217514,64,42,0
38.318867,38.418205,50,42,0
38.51754,38.624683,53,42,0
38.51754,38.624683,59,42,0
38.731827,38.83318,48,47,0
38.93453,39.03588,52,39,0
38.93453,39.03588,57,39,0
39.13723,39.23657,50,41,0
39.335907,39.44382,53,41,0
39.335907,39.44382,59,41,0
39.551735,39.654476,57,48,0
39.551735,39.654476,52,48,0
39.757214,39.859955,52,41,0
39.757214,39.859955,57,41,0
39.958412,40.06686,52,41,0
39.962692,40.07139,56,41,0
40.180084,40.294308,56,41,0
40.180084,40.294308,52,41,0
40.437164,40.880077,57,46,0
40.437164,40.909603,45,46,0
41.228786,41.264755,45,64,0
41.264755,41.300728,49,64,0
41.300728,41.3367,52,64,0
41.3367,41.43874,57,73,0
41.54078,41.646416,57,69,0
41.75205,41.855495,57,69,0
41.958946,42.06458,57,69,0
42.06458,42.09979,45,60,0
42.09979,42.135002,49,60,0
42.135002,42.17021,52,60,0
42.17021,42.27225,57,72,0
42.374294,42.47703,57,64,0
42.579773,42.682514,57,65,0
42.78525,42.897194,57,67,0
42.897194,42.934505,38,63,0
42.934505,42.97182,42,63,0
42.97182,43.009132,45,63,0
43.009132,43.111874,50,73,0
43.21461,43.319508,50,69,0
43.319508,43.354473,39,63,0
43.354473,43.38944,42,63,0
43.38944,43.424404,45,63,0
43.424404,43.52714,51,73,0
43.629883,43.74182,51,71,0
43.74182,43.779137,40,63,0
43.779137,43.81645,44,63,0
43.81645,43.853764,47,63,0
43.853764,44.06653,52,73,0
44.06653,44.180164,52,73,0
44.60703,44.641994,45,64,0
44.641994,44.67696,49,64,0
44.67696,44.711926,52,64,0
44.711926,44.813965,57,73,0
44.916008,45.0209,57,69,0
45.125797,45.227837,57,69,0
45.329876,45.435513,57,69,0
45.435513,45.470722,45,60,0
45.470722,45.505936,49,60,0
45.505936,45.541145,52,60,0
45.541145,45.643887,57,72,0
45.746624,45.850075,57,64,0
45.95352,46.05769,57,65,0
46.161854,46.27055,57,67,0
46.27055,46.30678,38,63,0
46.30678,46.343014,42,63,0
46.343014,46.379246,45,63,0
46.379246,46.482693,50,73,0
46.586143,46.69484,50,69,0
46.69484,46.73107,40,63,0
46.73107,46.767303,44,63,0
46.767303,46.803535,47,63,0
46.803535,46.916317,52,73,0
47.0291,47.14538,52,71,0
47.261658,47.68459,45,73,0
48.031967,48.067936,45,64,0
48.067936,48.10391,49,64,0
48.10391,48.139877,52,64,0
48.139877,48.24192,57,73,0
48.34396,48.449593,57,69,0
48.55523,48.658676,57,69,0
48.762123,48.868507,57,69,0
48.868507,48.90397,45,60,0
48.90397,48.93943,49,60,0
48.93943,48.97489,52,60,0
48.97489,49.07693,57,72,0
49.17897,49.283867,57,64,0
49.388763,49.4915,57,65,0
49.594242,49.701385,57,67,0
49.701385,49.7371,38,63,0
49.7371,49.77281,42,63,0
49.77281,49.80853,45,63,0
49.80853,49.911266,50,73,0
50.014008,50.12192,50,69,0
50.12192,50.15789,39,63,0
50.15789,50.193863,42,63,0
50.193863,50.229836,45,63,0
50.229836,50.334,51,73,0
50.438168,50.547657,51,71,0
50.547657,50.584152,40,63,0
50.584152,50.62065,44,63,0
50.62065,50.657146,47,63,0
50.657146,50.86991,52,73,0
50.86991,50.980206,52,73,0
51.40816,51.443127,45,64,0
51.443127,51.478092,49,64,0
51.478092,51.513054,52,64,0
51.513054,51.615097,57,73,0
51.717136,51.822033,57,69,0
51.926926,52.02897,57,69,0
52.13101,52.238922,57,69,0
52.238922,52.274895,45,60,0
52.274895,52.310863,49,60,0
52.310863,52.346836,52,60,0
52.346836,52.449577,57,72,0
52.552315,52.655766,57,64,0
52.759212,52.86338,57,65,0
52.967545,53.07624,57,67,0
53.07624,53.112473,38,63,0
53.112473,53.148705,42,63,0
53.148705,53.184937,45,63,0
53.184937,53.288387,50,73,0
53.391834,53.50547,50,69,0
53.50547,53.54335,40,63,0
53.54335,53.581226,44,63,0
53.581226,53.619106,47,63,0
53.619106,53.731888,52,73,0
53.84467,53.96095,52,71,0
54.07723,54.500393,45,73,0
54.950928,55.05807,54,50,0
55.165215,55.26866,57,31,0
55.165215,55.26866,61,37,0
55.372112,55.477745,57,31,0
55.372112,55.477745,61,37,0
55.583378,55.689762,57,31,0
55.583378,55.689762,61,37,0
55.796146,55.90031,56,50,0
56.00448,56.109375,59,30,0
56.00448,56.109375,61,36,0
56.214268,56.319164,59,30,0
56.214268,56.319164,61,36,0
56.424057,56.529694,59,30,0
56.424057,56.529694,61,36,0
56.635326,56.74096,54,50,0
56.846592,56.95149,57,30,0
56.846592,56.95149,61,36,0
57.056385,57.161278,57,31,0
57.056385,57.161278,61,37,0
57.266174,57.371807,57,32,0
57.266174,57.371807,61,38,0
57.47744,57.581608,53,55,0
57.685776,57.787815,56,31,0
57.685776,57.787815,61,38,0
57.889854,57.994022,56,31,0
57.889854,57.994022,61,38,0
58.09819,58.20457,56,31,0
58.09819,58.20457,61,38,0
58.31821,58.423103,54,50,0
58.528,58.631447,57,30,0
58.528,58.631447,61,36,0
58.734894,58.83906,57,30,0
58.734894,58.83906,61,36,0
58.94323,59.04961,57,30,0
58.94323,59.04961,61,36,0
59.155994,59.26238,56,50,0
59.36876,59.472927,61,30,0
59.36876,59.472927,64,36,0
59.577095,59.681988,61,30,0
59.577095,59.681988,64,36,0
59.786884,59.894028,61,30,0
59.786884,59.894028,64,36,0
60.00117,60.106064,56,50,0
60.21096,60.315853,63,31,0
60.21096,60.315853,66,37,0
60.42075,60.526737,66,37,0
60.42075,60.526737,63,31,0
60.633625,60.741997,66,37,0
60.633625,60.741997,63,31,0
60.859184,61.266792,61,42,0
60.859184,61.266792,64,50,0
61.72129,61.829205,54,50,0
61.93712,62.042755,57,31,0
61.93712,62.042755,61,37,0
62.148388,62.25402,57,31,0
62.148388,62.25402,61,37,0
62.359653,62.466038,57,31,0
62.359653,62.466038,61,37,0
62.572422,62.680336,56,50,0
62.78825,62.893143,59,30,0
62.78825,62.893143,61,36,0
62.99804,63.102932,59,30,0
62.99804,63.102932,61,36,0
63.20783,63.31346,59,30,0
63.20783,63.31346,61,36,0
63.419094,63.52473,54,50,0
63.630363,63.735256,57,30,0
63.630363,63.735256,61,36,0
63.840153,63.94505,57,31,0
63.840153,63.94505,61,37,0
64.04994,64.15558,57,32,0
64.04994,64.15558,61,38,0
64.26121,64.36759,53,55,0
64.473976,64.57742,56,31,0
64.473976,64.57742,61,38,0
64.68087,64.784325,56,31,0
64.68087,64.784325,61,38,0
64.88777,64.994156,56,31,0
64.88777,64.994156,61,38,0
65.10053,65.20543,54,50,0
65.310326,65.41377,57,30,0
65.310326,65.41377,61,36,0
65.51722,65.62067,57,30,0
65.51722,65.62067,61,36,0
65.72412,65.830505,57,30,0
65.72412,65.830505,61,36,0
65.93688,66.04252,56,50,0
66.148155,66.25089,61,30,0
66.148155,66.25089,64,36,0
66.35363,66.4578,61,30,0
66.35363,66.4578,64,36,0
66.561966,66.669106,61,30,0
66.561966,66.669106,64,36,0
66.77625,66.88339,56,50,0
66.99054,67.09543,63,31,0
66.99054,67.09543,66,37,0
67.200325,67.30631,66,37,0
67.200325,67.30631,63,31,0
67.4132,67.521576,66,37,0
67.4132,67.521576,63,31,0
67.63876,68.04637,61,42,0
67.63876,68.04637,64,50,0
68.49547,68.60261,57,57,0
68.709755,68.815384,61,36,0
68.709755,68.815384,64,43,0
68.92102,69.02666,61,36,0
68.92102,69.02666,64,43,0
69.132286,69.23867,61,36,0
69.132286,69.23867,64,43,0
69.345055,69.44779,59,57,0
69.55053,69.655426,62,35,0
69.55053,69.655426,64,42,0
69.76032,69.86522,56,57,0
69.970116,70.075745,62,35,0
69.970116,70.075745,64,42,0
70.18138,70.283424,57,57,0
70.38546,70.49036,61,35,0
70.38546,70.49036,64,41,0
70.59525,70.70015,61,35,0
70.59525,70.70015,64,41,0
70.80504,70.91955,61,35,0
70.80504,70.91955,64,41,0
71.042496,71.26977,52,57,0
71.26977,71.37394,56,33,0
71.26977,71.37394,62,39,0
71.478615,71.58636,62,39,0
71.478615,71.58636,56,33,0
71.689224,71.79412,62,39,0
71.689224,71.79412,56,33,0
71.90282,72.00996,57,57,0
72.1171,72.22273,61,36,0
72.1171,72.22273,64,43,0
72.32837,72.434006,61,36,0
72.32837,72.434006,64,43,0
72.539635,72.64602,61,36,0
72.539635,72.64602,64,43,0
72.7524,72.85514,59,57,0
72.957886,73.062775,62,35,0
72.957886,73.062775,64,42,0
73.16767,73.27257,56,57,0
73.377464,73.48309,62,35,0
73.377464,73.48309,64,42,0
73.58873,73.69077,57,57,0
73.79281,73.897705,54,46,0
74.0026,74.10534,50,46,0
74.208084,74.31757,52,46,0
74.427055,74.647644,45,57,0
74.647644,74.751816,57,44,0
75.285286,75.39166,52,50,0
75.49805,75.60368,57,35,0
75.49805,75.60368,61,42,0
75.70931,75.81495,57,35,0
75.70931,75.81495,61,42,0
75.920586,76.02697,57,35,0
75.920586,76.02697,61,42,0
76.13335,76.23898,56,50,0
76.34462,76.44951,59,34,0
76.34462,76.44951,61,41,0
76.554405,76.6593,59,34,0
76.554405,76.6593,61,41,0
76.7642,76.86983,59,34,0
76.7642,76.86983,61,41,0
76.975464,77.08338,54,50,0
77.19129,77.29619,57,34,0
77.19129,77.29619,61,40,0
77.401085,77.505974,57,34,0
77.401085,77.505974,61,40,0
77.61087,77.71651,57,34,0
77.61087,77.71651,61,40,0
77.822136,77.92488,49,50,0
78.02762,78.13178,56,41,0
78.02762,78.13178,61,49,0
78.235954,78.34012,55,40,0
78.235954,78.34012,61,48,0
78.44428,78.55067,54,40,0
78.44428,78.55067,61,48,0
78.65705,78.7642,47,59,0
78.87134,78.9755,54,45,0
78.87134,78.9755,59,53,0
79.07967,79.18384,54,47,0
79.07967,79.18384,59,56,0
79.288,79.39439,54,45,0
79.288,79.39439,59,54,0
79.50077,79.607155,47,65,0
79.71354,79.8177,56,45,0
79.71354,79.8177,59,54,0
79.92187,80.02604,56,51,0
79.92187,80.02604,59,60,0
80.1302,80.23734,56,45,0
80.1302,80.23734,59,54,0
80.34449,80.448654,49,58,0
80.552826,80.657715,54,39,0
80.552826,80.657715,57,47,0
80.76261,80.8686,49,55,0
80.97549,81.08386,59,49,0
80.97549,81.08386,56,41,0
81.21207,81.619675,54,39,0
81.21207,81.619675,57,46,0
82.06877,82.17591,57,57,0
82.28306,82.38869,61,36,0
82.28306,82.38869,64,43,0
82.49432,82.60147,61,36,0
82.49432,82.60147,64,43,0
82.70861,82.81731,61,36,0
82.70861,82.81731,64,43,0
82.926,83.03017,59,57,0
83.13434,83.23923,62,35,0
83.13434,83.23923,64,42,0
83.344124,83.44902,56,57,0
83.55392,83.659546,62,35,0
83.55392,83.659546,64,42,0
83.76518,83.867226,57,57,0
83.96926,84.07416,61,35,0
83.96926,84.07416,64,41,0
84.179054,84.28395,61,35,0
84.179054,84.28395,64,41,0
84.38885,84.50335,61,35,0
84.38885,84.50335,64,41,0
84.63047,84.864845,52,57,0
84.864845,84.96901,56,33,0
84.864845,84.96901,62,39,0
85.07317,85.177345,62,39,0
85.07317,85.177345,56,33,0
85.28151,85.386406,62,39,0
85.28151,85.386406,56,33,0
85.4951,85.60224,57,57,0
85.70938,85.81502,61,36,0
85.70938,85.81502,64,43,0
85.920654,86.027794,61,36,0
85.920654,86.027794,64,43,0
86.13494,86.24132,61,36,0
86.13494,86.24132,64,43,0
86.3477,86.45187,59,57,0
86.55604,86.660934,62,35,0
86.55604,86.660934,64,42,0
86.76583,86.87072,56,57,0
86.97562,87.08125,62,35,0
86.97562,87.08125,64,42,0
87.18688,87.288925,57,57,0
87.39097,87.495865,54,46,0
87.60075,87.7035,50,46,0
87.80624,87.915726,52,46,0
88.025215,88.245804,45,57,0
88.245804,88.353714,57,44,0
88.89203,88.99841,52,50,0
89.10479,89.21043,57,35,0
89.10479,89.21043,61,42,0
89.31606,89.42169,57,35,0
89.31606,89.42169,61,42,0
89.52733,89.63371,57,35,0
89.52733,89.63371,61,42,0
89.7401,89.845726,56,50,0
89.95136,90.05626,59,34,0
89.95136,90.05626,61,41,0
90.16115,90.266045,59,34,0
90.16115,90.266045,61,41,0
90.37094,90.47658,59,34,0
90.37094,90.47658,61,41,0
90.58221,90.690125,54,50,0
90.798035,90.90293,57,34,0
90.798035,90.90293,61,40,0
91.00783,91.112724,57,34,0
91.00783,91.112724,61,40,0
91.21761,91.32325,57,34,0
91.21761,91.32325,61,40,0
91.42889,91.53305,49,50,0
91.637215,91.74139,56,41,0
91.637215,91.74139,61,49,0
91.84555,91.949715,55,40,0
91.84555,91.949715,61,48,0
92.05389,92.16026,54,40,0
92.05389,92.16026,61,48,0
92.26665,92.373795,47,59,0
92.480934,92.58583,54,45,0
92.480934,92.58583,59,53,0
92.69073,92.79562,54,47,0
92.69073,92.79562,59,56,0
92.90051,93.0069,54,45,0
92.90051,93.0069,59,54,0
93.11328,93.219666,47,65,0
93.32605,93.430214,56,45,0
93.32605,93.430214,59,54,0
93.53438,93.63855,56,51,0
93.53438,93.63855,59,60,0
93.742714,93.84985,56,45,0
93.742714,93.84985,59,54,0
93.957,94.061165,49,58,0
94.16534,94.270226,54,39,0
94.16534,94.270226,57,47,0
94.37512,94.48111,49,55,0
94.588,94.69637,59,49,0
94.588,94.69637,56,41,0
94.82458,95.28945,54,39,0
94.82458,95.28945,57,46,0
95.64264,95.67861,45,64,0
95.67861,95.714584,49,64,0
95.714584,95.75056,52,64,0
95.75056,95.8526,57,73,0
95.954636,96.06027,57,69,0
96.1659,96.269356,57,69,0
96.3728,96.47843,57,69,0
96.47843,96.51365,45,60,0
96.51365,96.54886,49,60,0
96.54886,96.58407,52,60,0
96.58407,96.68611,57,72,0
96.78815,96.89089,57,64,0
96.99363,97.09637,57,65,0
97.19911,97.31105,57,67,0
97.31105,97.348366,38,63,0
97.348366,97.38567,42,63,0
97.38567,97.42299,45,63,0
97.42299,97.52573,50,73,0
97.62847,97.73337,50,69,0
97.73337,97.768326,39,63,0
97.768326,97.80329,42,63,0
97.80329,97.83826,45,63,0
97.83826,97.94464,51,73,0
98.051025,98.162964,51,71,0
98.162964,98.20028,40,63,0
98.20028,98.237595,44,63,0
98.237595,98.2749,47,63,0
98.2749,98.48767,52,73,0
98.48767,98.60131,52,73,0
99.03261,99.06757,45,64,0
99.06757,99.10254,49,64,0
99.10254,99.1375,52,64,0
99.1375,99.23954,57,73,0
99.34158,99.44648,57,69,0
99.55137,99.65341,57,69,0
99.755455,99.861084,57,69,0
99.861084,99.8963,45,60,0
99.8963,99.93151,49,60,0
99.93151,99.96672,52,60,0
99.96672,100.06946,57,72,0
100.1722,100.27565,57,64,0
100.3791,100.48326,57,65,0
100.58743,100.69613,57,67,0
100.69613,100.73236,38,63,0
100.73236,100.76859,42,63,0
100.76859,100.804825,45,63,0
100.804825,100.90827,50,73,0
101.01172,101.120415,50,69,0
101.120415,101.15665,40,63,0
101.15665,101.19288,44,63,0
101.19288,101.22911,47,63,0
101.22911,101.34189,52,73,0
101.45467,101.57095,52,71,0
101.68723,102.11016,45,73,0
102.45606,102.492035,45,64,0
102.492035,102.52801,49,64,0
102.52801,102.56398,52,64,0
102.56398,102.666016,57,73,0
102.76806,102.873695,57,69,0
102.979324,103.08277,57,69,0
103.186226,103.2926,57,69,0
103.2926,103.328064,45,60,0
103.328064,103.363525,49,60,0
103.363525,103.39899,52,60,0
103.39899,103.50103,57,72,0
103.60307,103.70796,57,64,0
103.81286,103.9156,57,65,0
104.01834,104.12548,57,67,0
104.12548,104.161194,38,63,0
104.161194,104.196915,42,63,0
104.196915,104.23263,45,63,0
104.23263,104.335365,50,73,0
104.4381,104.54602,50,69,0
104.54602,104.58199,39,63,0
104.58199,104.61796,42,63,0
104.61796,104.65393,45,63,0
104.65393,104.76185,51,73,0
104.86976,104.9817,51,71,0
104.9817,105.01901,40,63,0
105.01901,105.05633,44,63,0
105.05633,105.09364,47,63,0
105.09364,105.306404,52,73,0
105.306404,105.420044,52,73,0
105.84691,105.881874,45,64,0
105.881874,105.91684,49,64,0
105.91684,105.951805,52,64,0
105.951805,106.05384,57,73,0
106.15588,106.26078,57,69,0
106.36568,106.46771,57,69,0
106.569756,106.677666,57,69,0
106.677666,106.71364,45,60,0
106.71364,106.74961,49,60,0
106.74961,106.78558,52,60,0
106.78558,106.88832,57,72,0
106.991066,107.09451,57,64,0
107.19796,107.302124,57,65,0
107.406296,107.51499,57,67,0
107.51499,107.55122,38,63,0
107.55122,107.587456,42,63,0
107.587456,107.62368,45,63,0
107.62368,107.727135,50,73,0
107.83058,107.944214,50,69,0
107.944214,107.98209,40,63,0
107.98209,108.01997,44,63,0
108.01997,108.05785,47,63,0
108.05785,108.17063,52,73,0
108.28342,108.3997,52,71,0
108.515976,109.07291,45,73,0
109.52083,109.62017,57,57,0
109.719505,109.81884,60,43,0
109.719505,109.81884,64,52,0
109.931625,110.031624,64,52,0
109.931625,110.031624,60,43,0
110.13162,110.23162,64,51,0
110.13162,110.23162,60,42,0
110.34526,110.444595,57,57,0
110.54394,110.64327,60,43,0
110.54394,110.64327,64,52,0
110.75357,110.852905,60,43,0
110.75357,110.852905,64,52,0
110.95224,111.05158,60,43,0
110.95224,111.05158,64,52,0
111.15575,111.25509,57,57,0
111.35442,111.45376,60,42,0
111.35442,111.45376,64,50,0
111.5531,111.65445,57,57,0
111.7558,111.857155,60,43,0
111.7558,111.857155,64,52,0
111.97166,112.0737,57,57,0
112.175735,112.28212,60,42,0
112.175735,112.28212,64,50,0
112.3984,112.497734,60,42,0
112.3984,112.497734,64,50,0
112.59708,112.704216,60,42,0
112.59708,112.704216,64,50,0
112.82168,112.92303,52,65,0
113.024376,113.12573,59,44,0
113.024376,113.12573,64,53,0
113.22708,113.326416,59,44,0
113.22708,113.326416,64,53,0
113.42576,113.5329,59,44,0
113.42576,113.5329,64,53,0
113.64924,113.75059,52,66,0
113.851944,113.95329,59,43,0
113.851944,113.95329,64,52,0
114.05464,114.153984,59,43,0
114.05464,114.153984,64,52,0
114.25332,114.36124,59,43,0
114.25332,114.36124,64,52,0
114.47442,114.57509,52,67,0
114.67576,114.776436,59,43,0
114.67576,114.776436,64,52,0
114.877106,114.986595,47,52,0
115.096085,115.212364,59,52,0
115.328636,115.78596,52,57,0
116.22724,116.32658,57,57,0
116.42592,116.52525,60,43,0
116.42592,116.52525,64,52,0
116.63804,116.73804,64,52,0
116.63804,116.73804,60,43,0
116.838036,116.938034,64,51,0
116.838036,116.938034,60,42,0
117.051674,117.15101,57,57,0
117.25035,117.349686,60,43,0
117.25035,117.349686,64,52,0
117.45998,117.55932,60,43,0
117.45998,117.55932,64,52,0
117.65865,117.757996,60,43,0
117.65865,117.757996,64,52,0
117.86216,117.961494,57,57,0
118.06084,118.16017,60,42,0
118.06084,118.16017,64,50,0
118.25951,118.36086,57,57,0
118.46221,118.56356,60,43,0
118.46221,118.56356,64,52,0
118.67807,118.780106,57,57,0
118.88215,118.98853,60,42,0
118.88215,118.98853,64,50,0
119.10481,119.20415,60,42,0
119.10481,119.20415,64,50,0
119.30349,119.41063,60,42,0
119.30349,119.41063,64,50,0
119.52808,119.62944,52,65,0
119.73079,119.83214,59,44,0
119.73079,119.83214,64,53,0
119.933495,120.03283,59,44,0
119.933495,120.03283,64,53,0
120.13217,120.23931,59,44,0
120.13217,120.23931,64,53,0
120.35565,120.457,52,66,0
120.55835,120.659706,59,43,0
120.55835,120.659706,64,52,0
120.761055,120.86039,59,43,0
120.761055,120.86039,64,52,0
120.95973,121.06764,59,43,0
120.95973,121.06764,64,52,0
121.18083,121.28083,52,67,0
121.38083,121.48083,59,43,0
121.38083,121.48083,64,52,0
121.58083,121.68953,47,52,0
121.79822,121.92117,59,52,0
122.04412,122.476814,52,57,0
122.93582,123.039986,48,59,0
123.14415,123.24832,60,53,0
123.352486,123.45522,52,59,0
123.55797,123.665726,64,57,0
123.77851,124.211914,55,60,0
124.642075,124.74624,48,59,0
124.85041,124.954575,60,53,0
125.05874,125.16148,52,59,0
125.26422,125.37198,64,57,0
125.484764,125.918175,55,60,0
126.358215,126.46238,45,59,0
126.56654,126.670715,57,53,0
126.77488,126.87762,48,59,0
126.98036,127.08812,60,57,0
127.200905,127.63255,52,60,0
128.06271,128.16689,45,59,0
128.27104,128.37521,57,53,0
128.47939,128.58212,48,59,0
128.68486,128.79262,60,57,0
128.9054,129.33705,52,60,0
129.74785,129.8472,57,53,0
129.94653,130.04587,60,47,0
129.94653,130.04587,64,47,0
130.15865,130.25865,64,47,0
130.15865,130.25865,60,47,0
130.35864,130.45865,64,47,0
130.35864,130.45865,60,47,0
130.57228,130.67162,57,54,0
130.77097,130.8703,60,48,0
130.77097,130.8703,64,48,0
130.98059,131.07993,60,48,0
130.98059,131.07993,64,48,0
131.17926,131.27861,60,48,0
131.17926,131.27861,64,48,0
131.38277,131.48277,57,56,0
131.58278,131.68277,60,49,0
131.58278,131.68277,64,49,0
131.78278,131.88622,57,57,0
131.98967,132.09312,60,43,0
131.98967,132.09312,64,52,0
132.22133,132.32336,53,57,0
132.4254,132.53178,57,51,0
132.4254,132.53178,63,51,0
132.64807,132.75081,57,43,0
132.64807,132.75081,63,43,0
132.85355,132.9607,57,39,0
132.85355,132.9607,63,39,0
133.06783,133.16917,52,46,0
133.27054,133.37189,57,42,0
133.27054,133.37189,64,42,0
133.47324,133.57597,50,42,0
133.67871,133.78586,53,42,0
133.67871,133.78586,59,42,0
133.893,133.99435,48,47,0
134.0957,134.19705,52,39,0
134.0957,134.19705,57,39,0
134.2984,134.40186,50,41,0
134.5053,134.61322,53,41,0
134.5053,134.61322,59,41,0
134.72113,134.82387,57,48,0
134.72113,134.82387,52,48,0
134.9266,135.02934,52,41,0
134.9266,135.02934,57,41,0
135.1278,135.23625,52,41,0
135.1321,135.24078,56,41,0
135.34949,135.4637,56,41,0
135.34949,135.4637,52,41,0
135.60655,136.04947,57,46,0
135.60655,136.079,45,46,0
136.50916,136.61333,48,59,0
136.71748,136.82166,60,53,0
136.92583,137.02856,52,59,0
137.1313,137.23906,64,57,0
137.35185,137.78525,55,60,0
138.21541,138.31958,48,59,0
138.42375,138.52791,60,53,0
138.63208,138.73482,52,59,0
138.83755,138.94531,64,57,0
139.0581,139.49152,55,60,0
139.93155,140.03572,45,59,0
140.13988,140.24405,57,53,0
140.34822,140.45096,48,59,0
140.5537,140.66145,60,57,0
140.77425,141.20589,52,60,0
141.63605,141.74022,45,59,0
141.84439,141.94855,57,53,0
142.05272,142.15546,48,59,0
142.2582,142.36595,60,57,0
142.47874,142.9104,52,60,0
143.3212,143.42053,57,53,0
143.51987,143.6192,60,47,0
143.51987,143.6192,64,47,0
143.73198,143.83199,64,47,0
143.73198,143.83199,60,47,0
143.93199,144.03198,64,47,0
143.93199,144.03198,60,47,0
144.14563,144.24496,57,54,0
144.3443,144.44363,60,48,0
144.3443,144.44363,64,48,0
144.55392,144.65327,60,48,0
144.55392,144.65327,64,48,0
144.75261,144.85194,60,48,0
144.75261,144.85194,64,48,0
144.95612,145.0561,57,56,0
145.15611,145.2561,60,49,0
145.15611,145.2561,64,49,0
145.35611,145.45956,57,57,0
145.563,145.66646,60,43,0
145.563,145.66646,64,52,0
145.79466,145.8967,57,57,0
145.99875,146.10512,57,51,0
145.99875,146.10512,63,51,0
146.2214,146.32414,57,43,0
146.2214,146.32414,63,43,0
146.42688,146.53403,57,39,0
146.42688,146.53403,63,39,0
146.64117,146.74252,52,46,0
146.84387,146.94522,57,42,0
146.84387,146.94522,64,42,0
147.04657,147.15002,50,42,0
147.25346,147.36061,53,42,0
147.25346,147.36061,59,42,0
147.46776,147.5691,48,47,0
147.67046,147.7718,52,39,0
147.67046,147.7718,57,39,0
147.87315,147.97733,50,41,0
148.0815,148.1894,53,41,0
148.0815,148.1894,59,41,0
148.29732,148.40005,57,48,0
148.29732,148.40005,52,48,0
148.5028,148.60555,52,41,0
148.5028,148.60555,57,41,0
148.704,148.81245,52,41,0
148.70828,148.81697,56,41,0
148.92567,149.0399,56,41,0
148.92567,149.0399,52,41,0
149.18275,149.62566,57,46,0
149.18275,149.6552,45,46,0
149.97,150.00597,45,64,0
150.00597,150.04195,49,70,0
150.04195,150.07791,52,76,0
150.07791,150.17996,57,87,0
150.282,150.38763,57,69,0
150.49327,150.59671,57,69,0
150.70016,150.8058,57,69,0
150.8058,150.841,45,65,0
150.841,150.87622,49,69,0
150.87622,150.91142,52,73,0
150.91142,151.01347,57,85,0
151.11551,151.21825,57,64,0
151.32098,151.42372,57,65,0
151.52647,151.63841,57,67,0
151.63841,151.67572,38,66,0
151.67572,151.71304,42,71,0
151.71304,151.75035,45,77,0
151.75035,151.85309,50,85,0
151.95583,152.06073,50,69,0
152.06073,152.09569,39,68,0
152.09569,152.13066,42,72,0
152.13066,152.16562,45,75,0
152.16562,152.27353,51,85,0
152.38144,152.4934,51,71,0
152.4934,152.5307,40,64,0
152.5307,152.56801,44,69,0
152.56801,152.60533,47,74,0
152.60533,152.8181,52,85,0
152.8181,152.93173,52,73,0
153.34894,153.3839,45,67,0
153.3839,153.41887,49,71,0
153.41887,153.45383,52,76,0
153.45383,153.55588,57,84,0
153.65791,153.7628,57,69,0
153.8677,153.96974,57,69,0
154.07178,154.17741,57,69,0
154.17741,154.21263,45,61,0
154.21263,154.24783,49,66,0
154.24783,154.28305,52,72,0
154.28305,154.38579,57,87,0
154.48853,154.59198,57,64,0
154.69543,154.79959,57,65,0
154.90376,155.01245,57,67,0
155.01245,155.04869,38,68,0
155.04869,155.08492,42,72,0
155.08492,155.12115,45,76,0
155.12115,155.2246,50,83,0
155.32805,155.43674,50,69,0
155.43674,155.47298,40,67,0
155.47298,155.5092,44,72,0
155.5092,155.54544,47,78,0
155.54544,155.65822,52,82,0
155.77101,155.88728,52,71,0
156.00356,156.4265,45,84,0
156.7653,156.80128,45,64,0
156.80128,156.83725,49,70,0
156.83725,156.87321,52,76,0
156.87321,156.97527,57,87,0
157.0773,157.18294,57,69,0
157.28857,157.39201,57,69,0
157.49547,157.6011,57,69,0
157.6011,157.6363,45,65,0
157.6363,157.67152,49,69,0
157.67152,157.70673,52,73,0
157.70673,157.80878,57,85,0
157.91081,158.01355,57,64,0
158.11629,158.21904,57,65,0
158.32178,158.43372,57,67,0
158.43372,158.47102,38,66,0
158.47102,158.50835,42,71,0
158.50835,158.54565,45,77,0
158.54565,158.64839,50,85,0
158.75113,158.85603,50,69,0
158.85603,158.89099,39,68,0
158.89099,158.92596,42,72,0
158.92596,158.96092,45,75,0
158.96092,159.06883,51,85,0
159.17676,159.2887,51,71,0
159.2887,159.326,40,64,0
159.326,159.36331,44,69,0
159.36331,159.40063,47,74,0
159.40063,159.6134,52,85,0
159.6134,159.7237,52,73,0
160.13756,160.17252,45,67,0
160.17252,160.20749,49,71,0
160.20749,160.24245,52,76,0
160.24245,160.3445,57,84,0
160.44653,160.55142,57,69,0
160.65633,160.75836,57,69,0
160.8604,160.96603,57,69,0
160.96603,161.00125,45,61,0
161.00125,161.03645,49,66,0
161.03645,161.07167,52,72,0
161.07167,161.17441,57,87,0
161.27715,161.3806,57,64,0
161.48405,161.58821,57,65,0
161.69238,161.80107,57,67,0
161.80107,161.83731,38,68,0
161.83731,161.87354,42,72,0
161.87354,161.90977,45,76,0
161.90977,162.01321,50,83,0
162.11667,162.22537,50,69,0
162.22537,162.2616,40,67,0
162.2616,162.29784,44,72,0
162.29784,162.33406,47,78,0
162.33406,162.44684,52,82,0
162.55963,162.6759,52,71,0
162.6759,162.71112,45,61,0
162.71112,162.74632,49,66,0
162.74632,162.78154,52,72,0
162.78154,162.88428,57,87,0
162.98701,163.09047,57,64,0
163.19391,163.29808,57,65,0
163.40225,163.51094,57,64,0
163.51094,163.54616,45,61,0
163.54616,163.58136,49,66,0
163.58136,163.61658,52,72,0
163.61658,163.71931,57,87,0
163.82205,163.9255,57,68,0
164.02895,164.13312,57,68,0
164.23729,164.34598,57,68,0
164.34598,164.3812,45,61,0
164.3812,164.4164,49,66,0
164.4164,164.45161,52,72,0
164.45161,164.55435,57,87,0
164.65709,164.76054,57,68,0
164.864,164.96815,57,68,0
165.07233,165.18102,57,68,0
165.18102,165.21623,45,61,0
165.21623,165.25145,49,66,0
165.25145,165.28665,52,72,0
165.28665,165.38939,57,87,0
165.49213,165.59558,57,67,0
165.69904,165.80319,57,67,0
165.90736,166.01605,57,67,0
166.01605,166.05482,38,61,0
166.05482,166.09358,42,66,0
166.09358,166.13234,45,72,0
166.13234,166.23508,50,87,0
166.33781,166.44127,50,67,0
166.54471,166.64888,50,67,0
166.74698,166.85541,50,67,0
166.86174,166.89696,45,61,0
166.89696,166.93216,49,66,0
166.93216,166.96738,52,72,0
166.96738,167.02019,57,87,0
167.17865,167.23036,57,67,0
167.38554,167.43762,57,67,0
167.59387,167.64822,57,67,0
167.70258,167.73778,40,61,0
167.73778,167.773,44,66,0
167.773,167.8082,47,72,0
167.8082,167.91095,52,87,0
168.01369,168.11713,52,66,0
168.22058,168.32475,52,66,0
168.42891,168.53922,52,66,0
168.53922,168.5913,45,61,0
168.5913,168.64337,49,66,0
168.64337,168.69547,52,72,0
168.69547,168.7982,57,87,0
168.90094,169.00438,57,68,0
169.10783,169.212,57,68,0
169.31616,169.42487,57,68,0
169.42487,169.46007,45,61,0
169.46007,169.49529,49,66,0
169.49529,169.5305,52,72,0
169.5305,169.63324,57,87,0
169.73598,169.83943,57,66,0
169.94287,170.04704,57,66,0
170.1512,170.2599,57,66,0
170.2599,170.29512,45,61,0
170.29512,170.33032,49,66,0
170.33032,170.36554,52,72,0
170.36554,170.46828,57,87,0
170.57101,170.67447,57,66,0
170.77791,170.88208,57,66,0
170.98625,171.09494,57,66,0
171.09494,171.1337,38,61,0
171.1337,171.17245,42,66,0
171.17245,171.21123,45,72,0
171.21123,171.31396,50,87,0
171.4167,171.52014,50,66,0
171.6236,171.72777,50,66,0
171.82585,171.93428,50,66,0
171.94063,171.97583,45,61,0
171.97583,172.01105,49,66,0
172.01105,172.04626,52,72,0
172.04626,172.15189,57,87,0
172.25752,172.36098,57,66,0
172.46442,172.56859,57,66,0
172.67276,172.78145,57,66,0
172.78145,172.81667,40,61,0
172.81667,172.85187,44,66,0
172.85187,172.88708,47,72,0
172.88708,172.93846,52,87,0
173.09256,173.14429,52,66,0
173.29947,173.35155,52,65,0
173.5078,173.56215,52,65,0
173.72519,173.83388,57,64,0
173.83388,173.94258,64,54,0
173.94258,174.05127,61,54,0
174.05127,174.15997,64,54,0
174.15997,174.26413,57,40,0
174.26413,174.3683,64,31,0
174.3683,174.477,61,31,0
174.477,174.58263,64,31,0
174.58263,174.68538,57,40,0
174.68538,174.78812,64,31,0
174.78812,174.89156,61,31,0
174.89156,174.99501,64,31,0
174.99501,175.09918,57,40,0
175.09918,175.20334,64,31,0
175.20334,175.31204,61,31,0
175.31204,175.41768,64,31,0
175.41768,175.52042,57,40,0
175.52042,175.62315,64,31,0
175.62315,175.7266,61,31,0
175.7266,175.83005,64,31,0
175.83005,175.93422,57,40,0
175.93422,176.03838,64,31,0
176.03838,176.14708,61,31,0
176.14708,176.25272,64,31,0
176.25272,176.35545,57,40,0
176.35545,176.45819,64,31,0
176.45819,176.56165,61,31,0
176.56165,176.66508,64,31,0
176.66508,176.76926,57,40,0
176.76926,176.87343,64,31,0
176.87343,176.98212,61,31,0
176.98212,177.09839,64,31,0
177.09839,177.20114,57,40,0
177.20114,177.30388,66,31,0
177.30388,177.40732,62,31,0
177.40732,177.51077,66,31,0
177.51077,177.61494,57,40,0
177.61494,177.7191,66,31,0
177.7191,177.8278,62,31,0
177.8278,177.93344,66,31,0
177.93344,178.03906,57,40,0
178.03906,178.1447,64,31,0
178.1447,178.24815,61,31,0
178.24815,178.3516,64,31,0
178.3516,178.45576,57,40,0
178.45576,178.55994,64,31,0
178.55994,178.66862,61,31,0
178.66862,178.77426,64,31,0
178.77426,178.877,52,40,0
178.877,178.97974,64,31,0
178.97974,179.08319,59,31,0
179.08319,179.18663,64,31,0
179.18663,179.2908,52,40,0
179.2908,179.39497,64,31,0
179.39497,179.50366,59,31,0
179.50366,179.57509,64,31,0
179.57509,179.5989,45,61,0
179.5989,179.62271,49,61,0
179.62271,179.64653,52,61,0
179.64653,179.74927,57,87,0
179.852,179.95544,57,67,0
180.0589,180.16307,57,67,0
180.26723,180.37593,57,64,0
180.37593,180.41115,45,61,0
180.41115,180.44635,49,66,0
180.44635,180.48157,52,72,0
180.48157,180.5843,57,87,0
180.68704,180.7905,57,66,0
180.89394,180.99811,57,66,0
181.10228,181.21097,57,66,0
181.21097,181.24619,45,61,0
181.24619,181.28139,49,66,0
181.28139,181.3166,52,72,0
181.3166,181.41934,57,87,0
181.52208,181.62553,57,67,0
181.72897,181.83315,57,67,0
181.93732,182.046,57,67,0
182.046,182.08476,38,61,0
182.08476,182.12352,42,66,0
182.12352,182.1623,45,72,0
182.1623,182.26503,50,87,0
182.36777,182.4712,50,68,0
182.57466,182.67883,50,68,0
182.77692,182.88535,50,68,0
182.8917,182.92691,45,61,0
182.92691,182.96211,49,66,0
182.96211,182.99733,52,72,0
182.99733,183.10297,57,87,0
183.20859,183.31204,57,67,0
183.4155,183.51965,57,67,0
183.62383,183.73251,57,67,0
183.73251,183.76773,40,61,0
183.76773,183.80295,44,66,0
183.80295,183.83815,47,72,0
183.83815,183.88953,52,87,0
184.04362,184.09535,52,67,0
184.25053,184.30261,52,67,0
184.45886,184.51321,52,67,0
184.56755,184.60277,45,61,0
184.60277,184.63799,49,66,0
184.63799,184.67319,52,72,0
184.67319,184.77882,57,87,0
184.88446,184.9901,57,67,0
185.09573,185.20135,57,67,0
185.30699,185.42238,57,67,0
185.42238,185.46085,45,61,0
185.46085,185.4993,49,66,0
185.4993,185.53777,52,72,0
185.53777,185.6434,57,87,0
185.74902,185.85466,57,66,0
185.9603,186.06593,57,66,0
186.17157,186.28876,57,66,0
186.28876,186.32782,45,61,0
186.32782,186.36688,49,66,0
186.36688,186.40594,52,72,0
186.40594,186.51158,57,87,0
186.6172,186.72284,57,67,0
186.82848,186.93411,57,67,0
187.03975,187.15425,57,67,0
187.15425,187.19241,45,61,0
187.19241,187.23058,49,66,0
187.23058,187.26875,52,72,0
187.26875,187.37514,57,95,0
187.48152,187.58568,57,70,0
187.58568,187.6204,45,67,0
187.6204,187.65512,49,72,0
187.65512,187.68985,52,79,0
187.68985,187.79402,57,95,0
187.89818,188.01012,57,70,0
188.12207,188.58008,45,88,0
188.58008,189.08008,57,88,0
189.08008,189.58008,57,88,0
189.08008,189.58008,45,74,0
189.08008,189.58008,49,74,0
189.08008,189.58008,52,74,0
