start_time,end_time,note_value,velocity,instrument_program_number
1.398384,1.514916,79,57,0
1.514916,1.631448,77,56,0
1.631448,1.74798,75,54,0
1.74798,1.864512,74,52,0
1.864512,2.1006024,72,60,0
2.1006024,2.326856,70,54,0
2.336693,3.0449646,70,51,0
3.0449646,3.2780285,74,57,0
3.2780285,3.5110924,79,60,0
3.5110924,3.752405,74,55,0
3.752405,4.224586,77,60,0
4.224586,4.9328575,75,56,0
4.9328575,5.0493894,77,60,0
5.0493894,5.1659217,79,56,0
5.1659217,5.2824535,77,61,0
5.2824535,5.3989854,75,54,0
5.3989854,5.5155177,74,58,0
5.5155177,5.6320496,72,53,0
5.6320496,6.1053634,70,66,0
6.1053634,6.7977576,69,57,0
6.8045554,7.0376196,69,62,0
7.0376196,7.2706833,70,65,0
7.2706833,7.506108,72,61,0
7.5163436,7.9926476,72,61,0
7.5163436,7.9926476,69,52,0
7.9926476,8.468951,74,58,0
7.9926476,8.468951,70,49,0
8.707104,8.822648,77,64,0
8.822648,8.938192,76,63,0
8.938192,9.053737,79,66,0
9.053737,9.169282,77,63,0
9.169282,9.284826,75,63,0
9.284826,9.390741,74,61,0
9.400371,9.637487,74,68,0
9.637487,10.11172,72,61,0
10.11172,10.344784,70,61,0
10.344784,10.581901,74,67,0
10.581901,11.056133,72,62,0
11.056133,11.289198,69,64,0
11.289198,11.405233,70,68,0
11.405233,11.52127,72,59,0
11.52127,11.637306,70,62,0
11.637306,11.753343,69,58,0
11.753343,11.869379,70,66,0
11.869379,11.985415,72,60,0
11.985415,12.101451,74,63,0
12.101451,12.217159,75,61,0
12.217159,12.332705,76,69,0
12.332705,12.448249,77,65,0
12.448249,12.563631,76,69,0
12.563631,12.684823,77,65,0
12.684823,12.799397,79,69,0
12.799397,12.913971,77,67,0
12.913971,13.028544,75,66,0
13.028544,13.140134,74,65,0
13.150278,13.382351,74,72,0
13.382351,13.6047535,72,54,0
13.614423,13.846496,72,56,0
13.846496,14.078568,70,54,0
14.078568,14.31064,74,65,0
14.31064,14.533043,72,54,0
14.542713,14.774785,72,57,0
14.774785,15.006858,69,53,0
15.006858,15.238931,70,66,0
15.238931,15.354967,72,57,0
15.354967,15.471003,74,58,0
15.471003,15.587039,75,59,0
15.587039,15.703075,77,60,0
15.703075,15.819112,79,61,0
15.819112,15.935148,81,64,0
15.935148,16.051184,82,66,0
16.051184,16.167221,84,67,0
16.167221,16.283092,86,68,0
16.283092,16.398638,87,69,0
16.398638,16.514181,89,76,0
16.629402,16.74446,89,75,0
16.859516,17.09459,89,76,0
17.09459,17.564735,87,74,0
17.564735,17.799809,86,73,0
17.799809,18.034882,86,75,0
16.859516,18.034882,77,76,0
18.034882,18.150917,84,64,0
18.034882,18.150917,75,64,0
18.266954,18.383238,82,72,0
18.266954,18.383238,74,72,0
18.500523,18.62735,81,64,0
18.500523,18.62735,72,64,0
18.754179,18.99233,74,76,0
18.754179,18.99233,82,76,0
19.231539,19.47796,70,72,0
20.251822,20.368353,67,52,0
20.368353,20.484886,65,49,0
20.484886,20.601418,63,52,0
20.601418,20.717949,62,50,0
20.717949,20.955067,60,56,0
20.955067,21.182302,58,53,0
21.192183,21.903532,58,53,0
21.903532,22.143782,70,63,0
22.143782,22.384031,69,58,0
22.384031,22.636515,67,56,0
22.636515,23.117014,65,64,0
23.117014,23.714046,64,51,0
23.714046,23.830578,67,52,0
23.830578,23.947111,65,56,0
23.947111,24.063643,69,52,0
24.063643,24.180174,67,56,0
24.180174,24.296707,70,53,0
24.296707,24.413239,69,56,0
24.413239,24.52977,72,53,0
24.52977,24.645807,70,56,0
24.645807,24.761843,67,58,0
24.761843,24.877388,76,61,0
24.877388,24.992931,72,62,0
24.992931,25.10799,79,64,0
25.10799,25.223047,76,67,0
25.223047,25.33762,82,70,0
25.33762,25.452194,81,69,0
25.452194,25.566288,82,71,0
25.566288,25.680542,81,67,0
25.680542,25.795116,79,69,0
25.795116,25.910013,77,65,0
25.910013,26.02515,76,66,0
26.02515,26.140696,74,65,0
26.140696,26.256487,72,64,0
26.256487,26.362852,70,63,0
26.372522,26.49212,70,69,0
26.49212,26.615507,69,56,0
26.615507,26.735632,74,64,0
26.735632,26.845745,72,54,0
26.855757,27.336256,72,54,0
27.816757,27.933289,86,69,0
27.933289,28.04982,84,66,0
28.04982,28.166351,82,69,0
28.166351,28.282885,81,66,0
28.282885,28.991156,79,72,0
28.991156,29.227245,76,63,0
29.227245,29.286268,77,66,0
29.345291,29.484535,84,70,0
29.461329,29.60057,83,70,0
29.577364,29.716608,84,67,0
29.6934,29.832644,86,73,0
29.809437,29.94868,84,68,0
29.925472,30.064716,82,71,0
30.04151,30.18157,81,68,0
30.157545,30.27767,79,81,0
30.397795,30.872028,79,75,0
30.872028,31.109144,76,64,0
31.109144,31.168425,77,63,0
31.227703,31.366947,84,70,0
31.343739,31.482983,83,69,0
31.459776,31.599018,84,68,0
31.575811,31.715055,86,75,0
31.691849,31.83109,84,69,0
31.807884,31.935524,82,71,0
31.92392,32.039955,81,67,0
32.039955,32.277073,81,73,0
32.277073,32.51419,79,70,0
32.751305,32.978542,79,72,0
32.988422,33.22554,79,78,0
33.22554,33.462654,77,72,0
33.69977,33.930862,77,72,0
33.930862,34.046406,76,73,0
34.046406,34.16195,77,66,0
34.16195,34.277496,76,68,0
34.277496,34.39304,72,65,0
34.39304,34.508583,77,75,0
34.508583,34.624126,79,68,0
34.624126,34.739674,77,68,0
34.739674,34.855217,72,65,0
34.855217,34.97076,79,80,0
34.97076,35.086308,81,68,0
35.086308,35.20185,79,72,0
35.20185,35.317394,72,67,0
35.317394,35.43294,81,81,0
35.43294,35.548485,82,74,0
35.548485,35.66403,81,76,0
35.66403,35.77957,72,69,0
35.77957,35.897617,82,85,0
36.015663,36.13371,82,83,0
36.487846,36.604877,79,77,0
36.72191,36.955975,82,81,0
36.955975,37.073006,81,71,0
37.190037,37.307068,79,76,0
37.4241,37.541134,77,73,0
37.658165,37.77371,76,78,0
37.77371,37.889256,72,72,0
37.889256,38.0048,83,72,0
38.0048,38.120342,84,68,0
38.120342,38.235886,77,80,0
38.235886,38.351433,72,73,0
38.351433,38.466976,83,73,0
38.466976,38.58252,84,69,0
38.58252,38.698067,79,81,0
38.698067,38.81361,72,76,0
38.81361,38.929153,83,76,0
38.929153,39.0447,84,73,0
39.0447,39.160244,81,84,0
39.160244,39.275787,72,76,0
39.275787,39.39133,83,76,0
39.39133,39.506878,84,75,0
39.506878,39.625435,82,89,0
39.74399,39.862553,82,84,0
40.218227,40.277504,79,69,0
40.277504,40.336784,81,66,0
40.336784,40.396065,79,69,0
40.396065,40.45534,81,67,0
40.45534,40.69246,82,79,0
40.69246,40.811016,81,76,0
40.929577,41.048134,79,76,0
41.16669,41.28525,77,75,0
41.40381,41.518383,76,79,0
41.518383,41.632957,84,71,0
41.632957,41.74753,79,72,0
41.74753,41.862103,76,70,0
41.862103,41.976677,72,76,0
41.976677,42.09125,67,69,0
42.09125,42.207047,64,71,0
42.207047,42.32596,60,70,0
43.29121,43.990402,72,70,0
43.29121,43.990402,69,70,0
43.29121,43.990402,65,70,0
43.29121,43.990402,60,70,0
43.990402,44.106934,74,48,0
44.106934,44.223465,72,48,0
44.223465,44.339996,70,52,0
44.456528,44.57306,69,48,0
44.689594,44.806126,67,48,0
44.922657,45.03919,65,48,0
45.15572,45.392838,65,54,0
45.382957,45.6348,74,50,0
45.64532,46.35795,74,72,0
45.64532,46.35795,65,72,0
46.35795,46.591015,72,53,0
46.591015,46.824078,76,56,0
46.824078,47.05714,77,53,0
47.05714,47.28629,77,61,0
47.28629,47.75242,67,53,0
47.75242,47.98548,69,53,0
47.98548,48.21463,77,61,0
48.21463,48.680756,67,53,0
48.680756,48.913822,69,53,0
48.913822,49.38608,72,58,0
49.38608,49.44485,70,52,0
49.44485,49.503616,72,48,0
49.503616,49.562386,70,52,0
49.562386,49.621155,72,48,0
49.621155,49.66033,70,52,0
49.66033,49.699512,72,48,0
49.699512,49.73869,70,48,0
49.73869,49.79746,69,52,0
49.79746,49.856228,70,49,0
49.856228,49.973763,69,57,0
50.0913,50.324364,69,53,0
50.324364,50.55743,70,56,0
50.55743,50.790493,72,53,0
50.790493,51.02761,73,65,0
51.02761,51.493736,74,54,0
51.493736,51.608795,72,54,0
51.608795,51.72385,70,50,0
51.72385,51.956917,69,54,0
51.956917,52.18998,67,53,0
52.18998,52.423042,69,54,0
52.423042,52.65611,70,52,0
52.65611,52.89426,74,63,0
52.89426,53.360386,72,53,0
53.360386,53.475933,70,54,0
53.475933,53.591476,69,52,0
53.591476,53.82454,67,56,0
53.82454,54.057606,65,54,0
54.057606,54.29067,67,54,0
54.29067,54.52373,69,54,0
54.52373,54.761883,72,63,0
54.761883,55.228012,70,51,0
55.228012,55.461075,67,51,0
55.461075,55.69923,70,62,0
55.69923,56.163372,69,52,0
56.163372,56.395447,65,52,0
56.395447,56.512478,64,61,0
56.512478,56.62951,65,53,0
56.62951,56.74654,67,53,0
56.74654,56.863575,69,50,0
56.863575,56.97961,71,59,0
56.97961,57.095646,72,54,0
57.095646,57.21168,71,54,0
57.21168,57.32772,72,51,0
57.32772,57.791862,60,56,0
58.265175,58.964367,69,71,0
58.265175,58.964367,72,71,0
58.964367,59.0809,74,51,0
59.0809,59.19743,72,51,0
59.19743,59.31396,70,57,0
59.430496,59.547028,69,50,0
59.66356,59.78009,67,50,0
59.89662,60.013153,65,50,0
60.12969,60.366802,65,54,0
60.366802,60.604366,74,50,0
60.614697,61.326046,65,71,0
60.614697,61.326046,74,71,0
61.326046,61.55911,72,53,0
61.55911,61.792175,76,66,0
61.792175,62.25047,77,63,0
62.25047,62.483532,67,53,0
62.483532,62.7166,69,53,0
62.7166,63.174892,77,69,0
63.174892,63.407955,67,53,0
63.407955,63.64102,69,53,0
63.64102,63.757553,77,69,0
63.874084,64.34832,72,54,0
64.34832,64.585434,71,53,0
64.585434,64.82255,70,53,0
64.82255,64.94111,69,48,0
65.05967,65.29174,69,54,0
65.29174,65.52381,70,60,0
65.52381,65.75588,72,64,0
65.75588,65.8139,73,75,0
65.8139,66.4521,74,70,0
66.4521,66.56814,76,70,0
66.56814,66.6832,78,67,0
66.6832,66.798256,79,70,0
66.798256,66.91331,81,67,0
66.91331,67.028366,82,70,0
67.028366,67.143425,81,67,0
67.143425,67.258484,79,70,0
67.258484,67.373535,81,67,0
67.373535,67.488594,77,70,0
67.488594,67.60365,79,67,0
67.60365,67.71822,76,71,0
67.71822,67.8328,77,66,0
67.8328,67.94786,74,71,0
67.94786,68.06291,76,67,0
68.06291,68.17846,72,70,0
68.17846,68.29401,74,65,0
68.29401,68.41004,70,68,0
68.41004,68.52608,72,61,0
68.52608,68.64211,69,66,0
68.64211,68.75815,70,64,0
68.75815,68.87402,72,68,0
68.87402,68.98956,74,64,0
68.98956,69.10511,76,71,0
69.10511,69.22033,77,68,0
69.22033,69.33539,76,71,0
69.33539,69.45446,77,68,0
69.45446,69.56904,79,72,0
69.56904,69.68361,77,70,0
69.68361,69.79819,76,69,0
69.79819,69.91623,74,67,0
69.91623,70.03129,76,72,0
70.03129,70.14635,74,70,0
70.14635,70.2614,72,69,0
70.2614,70.37646,70,67,0
70.37646,70.8466,69,71,0
70.8466,70.90667,67,58,0
70.90667,70.96673,69,51,0
70.96673,71.026794,67,58,0
71.026794,71.08685,69,52,0
71.08685,71.1269,67,58,0
71.1269,71.16694,69,53,0
71.16694,71.20698,67,53,0
71.20698,71.267044,65,66,0
71.267044,71.3271,67,62,0
70.8466,71.3271,64,58,0
71.3271,71.8076,65,75,0
73.24911,73.48622,82,96,0
73.48622,73.60478,79,62,0
73.723335,73.841896,76,66,0
73.96046,74.07901,76,62,0
74.19757,74.434685,82,96,0
74.434685,74.553246,79,59,0
74.67181,74.79036,76,63,0
74.90892,75.02748,76,60,0
75.146034,75.262566,77,62,0
75.3791,75.495636,79,63,0
75.61217,75.7287,81,64,0
75.84523,75.96176,82,66,0
76.082954,76.31802,83,93,0
76.31802,76.5531,84,75,0
76.5531,76.78817,83,93,0
76.78817,77.02325,84,75,0
77.02325,77.26036,82,95,0
77.26036,77.37892,79,62,0
77.497475,77.616035,76,67,0
77.7346,77.85315,76,62,0
77.97171,78.208824,82,97,0
78.208824,78.327385,79,59,0
78.445946,78.5645,76,65,0
78.68306,78.80162,76,60,0
78.92017,79.03671,77,62,0
79.153244,79.269775,79,63,0
79.38631,79.50284,81,64,0
79.61937,79.7359,82,66,0
79.85656,80.09265,83,93,0
80.09265,80.328735,84,75,0
80.328735,80.56483,83,93,0
80.56483,80.826385,84,75,0
80.826385,81.77075,86,78,0
80.826385,81.77075,74,78,0
81.77075,82.71511,64,64,0
81.77075,82.71511,76,64,0
82.71511,83.65947,82,71,0
82.71511,83.65947,70,71,0
83.65947,84.603836,81,66,0
83.65947,84.603836,69,66,0
84.603836,84.71987,81,75,0
84.71987,84.83591,79,68,0
84.83591,84.95194,82,72,0
84.95194,85.06798,81,68,0
85.06798,85.18401,84,72,0
85.18401,85.30006,82,71,0
85.30006,85.41609,81,71,0
85.41609,85.53213,79,69,0
85.53213,86.0169,77,72,0
86.0169,86.51953,76,63,0
86.75873,86.9918,77,45,0
86.9918,87.22486,76,49,0
87.22486,87.457924,77,45,0
87.69504,87.9281,75,45,0
87.9281,88.16117,74,50,0
88.16117,88.39423,75,46,0
88.63135,88.87373,74,54,0
88.87373,89.11612,86,67,0
89.11612,89.23731,86,63,0
89.60089,89.83495,86,61,0
89.83495,90.069016,74,51,0
90.069016,90.18605,74,47,0
90.5402,90.77731,72,49,0
90.77731,91.01443,84,62,0
91.01443,91.13299,84,57,0
91.48866,91.72373,84,56,0
91.72373,91.95881,72,48,0
91.95881,92.07635,72,45,0
92.19388,92.428955,73,46,0
92.428955,92.664024,74,50,0
92.664024,92.897095,76,54,0
92.897095,93.13016,77,49,0
93.13016,93.60855,65,45,0
93.60855,93.86339,69,42,0
93.86339,94.11823,67,42,0
93.60855,94.11823,64,42,0
94.11823,94.24565,65,45,0
94.37308,94.48961,65,47,0
94.48961,94.60614,69,45,0
94.60614,94.72267,67,47,0
94.72267,94.8392,70,45,0
94.8392,94.955734,69,47,0
94.955734,95.072266,72,45,0
95.072266,95.19239,70,48,0
95.312515,95.42905,65,52,0
95.42905,95.54558,69,48,0
95.54558,95.66211,67,52,0
95.66211,95.77864,70,48,0
95.77864,95.89518,69,52,0
95.89518,96.01171,72,48,0
96.01171,96.130264,70,52,0
96.248825,96.36536,65,48,0
96.36536,96.48189,69,50,0
96.48189,96.59842,67,52,0
96.59842,96.71495,70,53,0
96.71495,96.83148,69,54,0
96.83148,96.94801,72,57,0
96.94801,97.06455,70,58,0
97.06455,97.18108,74,60,0
97.18108,97.297615,72,61,0
97.297615,97.41415,75,63,0
97.41415,97.53068,74,64,0
97.53068,97.64721,77,65,0
97.64721,97.76577,76,67,0
97.76577,97.88432,79,69,0
97.88432,98.000854,77,70,0
98.000854,98.117386,79,72,0
98.117386,98.233925,81,75,0
98.233925,98.35046,79,75,0
98.35046,98.46699,77,73,0
98.46699,98.58352,75,72,0
98.58352,98.70207,74,71,0
98.70207,98.82063,73,70,0
98.82063,98.937164,74,72,0
98.937164,99.053696,72,69,0
99.053696,99.17023,70,71,0
99.17023,99.28676,69,68,0
99.28676,99.4033,67,70,0
99.4033,99.51983,65,67,0
99.51983,99.63636,64,69,0
99.63636,99.75289,62,65,0
99.75289,99.87093,60,68,0
99.87093,99.98898,65,65,0
99.98898,100.107025,69,68,0
100.107025,100.22507,72,65,0
100.22507,100.34626,77,72,0
100.46745,100.5855,69,59,0
100.46745,100.5855,65,59,0
100.703545,100.94593,72,64,0
100.703545,100.94593,69,64,0
100.94593,101.06712,67,60,0
100.94593,101.06712,70,60,0
101.18832,101.3134,65,61,0
101.18832,101.3134,69,61,0
101.438484,101.56357,67,58,0
101.438484,101.56357,64,58,0
101.68865,101.813736,65,61,0
101.93882,102.05535,77,47,0
102.05535,102.17188,81,45,0
102.17188,102.288414,79,47,0
102.288414,102.404945,82,45,0
102.404945,102.52148,81,47,0
102.52148,102.63801,84,45,0
102.63801,102.75813,82,48,0
102.87826,102.99479,77,54,0
102.99479,103.11132,81,50,0
103.11132,103.22785,79,54,0
103.22785,103.34439,82,51,0
103.34439,103.46092,81,54,0
103.46092,103.57745,84,50,0
103.57745,103.69601,82,54,0
103.81457,103.9311,77,55,0
103.9311,104.04763,81,56,0
104.04763,104.16416,79,58,0
104.16416,104.28069,82,59,0
104.28069,104.397224,81,61,0
104.397224,104.51376,84,63,0
104.51376,104.630295,82,64,0
104.630295,104.746826,77,67,0
104.746826,104.86336,84,68,0
104.86336,104.97989,77,69,0
104.97989,105.096504,86,70,0
105.096504,105.21371,77,72,0
105.21371,105.33158,88,74,0
105.33158,105.452415,77,75,0
105.452415,105.568954,89,78,0
105.568954,105.685486,88,78,0
105.685486,105.80202,86,77,0
105.80202,105.91855,84,75,0
105.91855,106.03508,82,74,0
106.03508,106.15161,81,73,0
106.15161,106.26814,79,72,0
106.26814,106.390976,77,71,0
106.390976,106.50751,86,79,0
106.50751,106.62404,84,75,0
106.62404,106.74057,82,78,0
106.74057,106.8571,81,77,0
106.8571,106.97363,79,75,0
106.97363,107.090164,77,71,0
107.090164,107.206696,76,73,0
107.206696,107.32323,74,70,0
107.32323,107.55629,72,78,0
107.55629,107.67434,84,75,0
107.79238,107.91043,84,78,0
108.02847,108.14652,84,77,0
108.264565,108.381096,84,75,0
108.381096,108.49763,81,72,0
108.49763,108.61416,77,70,0
108.61416,108.73069,72,70,0
108.73069,108.84722,77,75,0
108.84722,108.96375,72,73,0
108.96375,109.08029,69,70,0
109.08029,109.19682,65,70,0
109.19682,109.274086,67,51,0
109.274086,109.35106,69,46,0
109.35106,109.423676,67,51,0
109.423676,109.4949,69,46,0
109.4949,109.565956,67,51,0
109.565956,109.63724,69,46,0
109.63724,109.70839,67,51,0
109.70839,109.7793,69,46,0
109.7793,109.85066,67,51,0
109.85066,109.922165,69,46,0
109.922165,109.994255,67,51,0
109.994255,110.06605,69,46,0
110.06605,110.13849,67,51,0
110.13849,110.212296,69,46,0
110.212296,110.28652,67,51,0
110.28652,110.35998,69,48,0
110.35998,110.4351,67,51,0
110.4351,110.50919,69,47,0
110.50919,110.56629,67,51,0
110.56629,110.62418,69,48,0
110.62418,110.68163,67,51,0
110.68163,110.73975,69,47,0
110.73975,110.77855,67,51,0
110.77855,110.81722,69,48,0
110.81722,110.856255,67,48,0
110.856255,110.91605,65,62,0
110.91605,110.97585,67,58,0
110.97585,111.20609,65,71,0
111.2161,111.45635,77,54,0
111.6966,111.930504,77,53,0
111.930504,112.167366,76,51,0
112.167366,112.40736,77,58,0
112.40736,112.65055,79,60,0
112.65055,112.89705,81,66,0
112.89705,113.01358,82,70,0
113.01358,113.13011,84,68,0
113.13011,113.24665,86,72,0
113.24665,113.36318,84,67,0
113.36318,113.47971,82,70,0
113.47971,113.596245,80,67,0
113.596245,113.712776,79,68,0
113.712776,113.832375,77,65,0
113.832375,113.948906,76,67,0
113.948906,114.06594,77,68,0
114.06594,114.18347,79,69,0
114.18347,114.30152,77,68,0
114.30152,114.420074,76,67,0
114.420074,114.539154,74,65,0
114.539154,114.65875,72,64,0
114.65875,114.77888,70,63,0
114.77888,114.899536,69,62,0
115.02019,115.14085,69,49,0
115.502815,115.744125,65,53,0
115.744125,115.986694,64,49,0
115.986694,116.23301,65,49,0
116.23301,116.483376,67,49,0
116.483376,116.737724,69,49,0
116.737724,116.86635,70,52,0
116.99497,117.05928,72,52,0
117.05928,117.1236,70,49,0
117.1236,117.187904,69,52,0
117.187904,117.25222,70,49,0
117.25222,117.50946,72,58,0
117.50946,117.77886,74,59,0
117.79057,118.06055,74,50,0
117.79057,118.06055,70,50,0
118.06055,118.33053,69,46,0
118.06055,118.33053,72,46,0
118.59272,118.87239,64,33,0
118.59272,118.87239,58,33,0
118.87239,120.12624,67,45,0
118.87239,120.12624,58,45,0
120.12624,120.622055,65,34,0
120.12624,120.622055,57,34,0
121.06888,121.18542,79,57,0
121.18542,121.30195,77,56,0
121.30195,121.41848,75,54,0
121.41848,121.53501,74,52,0
121.53501,121.7711,72,60,0
121.7711,121.99735,70,54,0
122.00719,122.71546,70,51,0
122.71546,122.948524,74,57,0
122.948524,123.18159,79,60,0
123.18159,123.422905,74,55,0
123.422905,123.89508,77,60,0
123.89508,124.603355,75,56,0
124.603355,124.71989,77,60,0
124.71989,124.83642,79,56,0
124.83642,124.95295,77,61,0
124.95295,125.06948,75,54,0
125.06948,125.18601,74,58,0
125.18601,125.30254,72,53,0
125.30254,125.77586,70,66,0
125.77586,126.468254,69,57,0
126.47505,126.708115,69,62,0
126.708115,126.94118,70,65,0
126.94118,127.179214,72,61,0
127.18957,127.66587,72,61,0
127.18957,127.66587,69,52,0
127.66587,128.14218,74,58,0
127.66587,128.14218,70,49,0
128.38033,128.49586,77,64,0
128.49586,128.61142,76,63,0
128.61142,128.72696,79,66,0
128.72696,128.8425,77,63,0
128.8425,128.95805,75,63,0
128.95805,129.06396,74,61,0
129.0736,129.30211,74,68,0
129.30211,129.77167,72,61,0
129.77167,130.00473,70,61,0
130.00473,130.24185,74,67,0
130.24185,130.71608,72,62,0
130.71608,130.94916,69,64,0
130.94916,131.06519,70,68,0
131.06519,131.18123,72,59,0
131.18123,131.29726,70,62,0
131.29726,131.4133,69,58,0
131.4133,131.52933,70,66,0
131.52933,131.64537,72,60,0
131.64537,131.7614,74,63,0
131.7614,131.8771,75,61,0
131.8771,131.99266,76,69,0
131.99266,132.1082,77,65,0
132.1082,132.22359,76,69,0
132.22359,132.34477,77,65,0
132.34477,132.45935,79,69,0
132.45935,132.57393,77,67,0
132.57393,132.68849,75,66,0
132.68849,132.80328,74,65,0
132.81372,133.0458,74,72,0
133.0458,133.2682,72,54,0
133.27788,133.50995,72,56,0
133.50995,133.74202,70,54,0
133.74202,133.97409,74,65,0
133.97409,134.19649,72,54,0
134.20616,134.43823,72,57,0
134.43823,134.6806,69,53,0
134.6806,134.91176,70,66,0
134.91176,135.02734,72,57,0
135.02734,135.14291,74,58,0
135.14291,135.2585,75,59,0
135.2585,135.37408,77,60,0
135.37408,135.48965,79,61,0
135.48965,135.60524,81,64,0
135.60524,135.72128,82,66,0
135.72128,135.83731,84,67,0
135.83731,135.95319,86,68,0
135.95319,136.06873,87,69,0
136.06873,136.18428,89,76,0
136.2995,136.41455,89,75,0
136.52962,136.76468,89,76,0
136.76468,137.23483,87,74,0
137.23483,137.46991,86,73,0
137.46991,137.70497,86,75,0
136.52962,137.70497,77,76,0
137.70497,137.82101,84,64,0
137.70497,137.82101,75,64,0
137.93704,138.05333,82,72,0
137.93704,138.05333,74,72,0
138.17061,138.3013,81,64,0
138.17061,138.3013,72,64,0
138.43199,138.67014,74,76,0
138.43199,138.67014,82,76,0
138.90935,139.15576,70,72,0
139.92963,140.04616,67,52,0
140.04616,140.16269,65,49,0
140.16269,140.27922,63,52,0
140.27922,140.39575,62,50,0
140.39575,140.63287,60,56,0
140.63287,140.8601,58,53,0
140.87,141.58134,58,53,0
141.58134,141.8216,70,63,0
141.8216,142.06184,69,58,0
142.06184,142.31432,67,56,0
142.31432,142.79482,65,64,0
142.79482,143.39185,64,51,0
143.39185,143.50839,67,52,0
143.50839,143.62492,65,56,0
143.62492,143.74146,69,52,0
143.74146,143.85799,67,56,0
143.85799,143.97452,70,53,0
143.97452,144.09105,69,56,0
144.09105,144.20758,72,53,0
144.20758,144.32361,70,56,0
144.32361,144.43965,67,58,0
144.43965,144.55519,76,61,0
144.55519,144.67075,72,62,0
144.67075,144.7858,79,64,0
144.7858,144.90085,76,67,0
144.90085,145.01543,82,70,0
145.01543,145.13,81,69,0
145.13,145.2441,82,71,0
145.2441,145.35835,81,67,0
145.35835,145.47292,79,69,0
145.47292,145.58781,77,65,0
145.58781,145.70296,76,66,0
145.70296,145.8185,74,65,0
145.8185,145.9343,72,64,0
145.9343,146.04066,70,63,0
146.05032,146.16992,70,69,0
146.16992,146.29332,69,56,0
146.29332,146.41344,74,64,0
146.41344,146.52356,72,54,0
146.53357,147.01407,72,54,0
147.49457,147.6111,86,69,0
147.6111,147.72763,84,66,0
147.72763,147.84416,82,69,0
147.84416,147.9607,81,66,0
147.9607,148.66896,79,72,0
148.66896,148.90506,76,63,0
148.90506,148.96408,77,66,0
149.0231,149.16234,84,70,0
149.13913,149.27838,83,70,0
149.25517,149.39441,84,67,0
149.3712,149.51045,86,73,0
149.48724,149.62648,84,68,0
149.60329,149.74252,82,71,0
149.71931,149.85938,81,68,0
149.83536,149.95547,79,81,0
150.0756,150.54984,79,75,0
150.54984,150.78696,76,64,0
150.78696,150.84624,77,63,0
150.9055,151.04475,84,70,0
151.02155,151.16078,83,69,0
151.13759,151.27682,84,68,0
151.25362,151.39287,86,75,0
151.36966,151.5089,84,69,0
151.48569,151.61333,82,71,0
151.60173,151.7081,81,67,0
151.71776,151.94716,81,73,0
151.94716,152.18011,79,70,0
152.41307,152.63632,79,72,0
152.64603,152.87898,79,78,0
152.87898,153.11194,77,72,0
153.3449,153.57597,77,72,0
153.57597,153.69153,76,73,0
153.69153,153.80707,77,66,0
153.80707,153.9226,76,68,0
153.9226,154.03816,72,65,0
154.03816,154.1537,77,75,0
154.1537,154.26924,79,68,0
154.26924,154.3848,77,68,0
154.3848,154.50034,72,65,0
154.50034,154.61588,79,80,0
154.61588,154.73143,81,68,0
154.73143,154.84697,79,72,0
154.84697,154.96251,72,67,0
154.96251,155.07806,81,81,0
155.07806,155.1936,82,74,0
155.1936,155.30914,81,76,0
155.30914,155.4247,72,69,0
155.4247,155.54274,82,85,0
155.66078,155.77882,82,83,0
156.13297,156.25,79,77,0
156.36702,156.60109,82,81,0
156.60109,156.71812,81,71,0
156.83516,156.95218,79,76,0
157.06921,157.18625,77,73,0
157.30328,157.41882,76,78,0
157.41882,157.53438,72,72,0
157.53438,157.64992,83,72,0
157.64992,157.76546,84,68,0
157.76546,157.88101,77,80,0
157.88101,157.99655,72,73,0
157.99655,158.11209,83,73,0
158.11209,158.22763,84,69,0
158.22763,158.34319,79,81,0
158.34319,158.45872,72,76,0
158.45872,158.57426,83,76,0
158.57426,158.68982,84,73,0
158.68982,158.80536,81,84,0
158.80536,158.9209,72,76,0
158.9209,159.03645,83,76,0
159.03645,159.152,84,75,0
159.152,159.27055,82,89,0
159.38911,159.50768,82,84,0
159.86334,159.92262,79,69,0
159.92262,159.9819,81,66,0
159.9819,160.04118,79,69,0
160.04118,160.10046,81,67,0
160.10046,160.33757,82,79,0
160.33757,160.45613,81,76,0
160.57469,160.69325,79,76,0
160.81181,160.93202,77,75,0
161.05223,161.16681,76,79,0
161.16681,161.28139,84,71,0
161.28139,161.39595,79,72,0
161.39595,161.51053,76,70,0
161.51053,161.6251,72,76,0
161.6251,161.73967,67,69,0
161.73967,161.85547,64,71,0
161.85547,161.97438,60,70,0
162.93964,163.63882,72,70,0
162.93964,163.63882,69,70,0
162.93964,163.63882,65,70,0
162.93964,163.63882,60,70,0
163.63882,163.75536,74,48,0
163.75536,163.87189,72,48,0
163.87189,163.98842,70,52,0
164.10495,164.22148,69,48,0
164.33801,164.45454,67,48,0
164.57108,164.6876,65,48,0
164.80414,165.04126,65,54,0
165.03139,165.28322,74,50,0
165.29375,166.00638,74,72,0
165.29375,166.00638,65,72,0
166.00638,166.23944,72,53,0
166.23944,166.4725,76,56,0
166.4725,166.70557,77,53,0
166.70557,166.93471,77,61,0
166.93471,167.40085,67,53,0
167.40085,167.63391,69,53,0
167.63391,167.86305,77,61,0
167.86305,168.32918,67,53,0
168.32918,168.56224,69,53,0
168.56224,169.0345,72,58,0
169.0345,169.09328,70,52,0
169.09328,169.15204,72,48,0
169.15204,169.21082,70,52,0
169.21082,169.26958,72,48,0
169.26958,169.30876,70,52,0
169.30876,169.34793,72,48,0
169.34793,169.38712,70,48,0
169.38712,169.44588,69,52,0
169.44588,169.50465,70,49,0
169.50465,169.6222,69,57,0
169.73973,169.9728,69,53,0
169.9728,170.20586,70,56,0
170.20586,170.43892,72,53,0
170.43892,170.67603,73,65,0
170.67603,171.14217,74,54,0
171.14217,171.25722,72,54,0
171.25722,171.37227,70,50,0
171.37227,171.60533,69,54,0
171.60533,171.83841,67,53,0
171.83841,172.07147,69,54,0
172.07147,172.30453,70,52,0
172.30453,172.54268,74,63,0
172.54268,173.0088,72,53,0
173.0088,173.12436,70,54,0
173.12436,173.2399,69,52,0
173.2399,173.47296,67,56,0
173.47296,173.70602,65,54,0
173.70602,173.93909,67,54,0
173.93909,174.17215,69,54,0
174.17215,174.41031,72,63,0
174.41031,174.87643,70,51,0
174.87643,175.1095,67,51,0
175.1095,175.34766,70,62,0
175.34766,175.8118,69,52,0
175.8118,176.04387,65,52,0
176.04387,176.1609,64,61,0
176.1609,176.27794,65,53,0
176.27794,176.39496,67,53,0
176.39496,176.512,69,50,0
176.512,176.62804,71,59,0
176.62804,176.74406,72,54,0
176.74406,176.8601,71,54,0
176.8601,176.97614,72,51,0
176.97614,177.44029,60,56,0
177.9136,178.6128,69,71,0
177.9136,178.6128,72,71,0
178.6128,178.72932,74,51,0
178.72932,178.84586,72,51,0
178.84586,178.96417,70,57,0
179.08249,179.2008,69,50,0
179.31912,179.43742,67,50,0
179.55574,179.67406,65,50,0
179.79237,180.0295,65,54,0
180.0295,180.26706,74,50,0
180.27739,180.98874,65,71,0
180.27739,180.98874,74,71,0
180.98874,181.2218,72,53,0
181.2218,181.45486,76,66,0
181.45486,181.91316,77,63,0
181.91316,182.14622,67,53,0
182.14622,182.37929,69,53,0
182.37929,182.83759,77,69,0
182.83759,183.07065,67,53,0
183.07065,183.30371,69,53,0
183.30371,183.42024,77,69,0
183.53677,184.011,72,54,0
184.011,184.24812,71,53,0
184.24812,184.48524,70,53,0
184.48524,184.60379,69,48,0
184.72235,184.95442,69,54,0
184.95442,185.18651,70,60,0
185.18651,185.41858,72,64,0
185.41858,185.47421,73,75,0
185.47421,186.09995,74,70,0
186.09995,186.21465,76,70,0
186.21465,186.3297,78,67,0
186.3297,186.44475,79,70,0
186.44475,186.55981,81,67,0
186.55981,186.67487,82,70,0
186.67487,186.78993,81,67,0
186.78993,186.90498,79,70,0
186.90498,187.02003,81,67,0
187.02003,187.1351,77,70,0
187.1351,187.25015,79,67,0
187.25015,187.36473,76,71,0
187.36473,187.47931,77,66,0
187.47931,187.59436,74,71,0
187.59436,187.70941,76,67,0
187.70941,187.82497,72,70,0
187.82497,187.9405,74,65,0
187.9405,188.05655,70,68,0
188.05655,188.17258,72,61,0
188.17258,188.28862,69,66,0
188.28862,188.40465,70,64,0
188.40465,188.52052,72,68,0
188.52052,188.63606,74,64,0
188.63606,188.75162,76,71,0
188.75162,188.86684,77,68,0
188.86684,188.98189,76,71,0
188.98189,189.10097,77,68,0
189.10097,189.21555,79,72,0
189.21555,189.33011,77,70,0
189.33011,189.44469,76,69,0
189.44469,189.56273,74,67,0
189.56273,189.6778,76,72,0
189.6778,189.79285,74,70,0
189.79285,189.9079,72,69,0
189.9079,190.02296,70,67,0
190.02296,190.4931,69,71,0
190.4931,190.55318,67,58,0
190.55318,190.61324,69,51,0
190.61324,190.6733,67,58,0
190.6733,190.73335,69,52,0
190.73335,190.7734,67,58,0
190.7734,190.81345,69,53,0
190.81345,190.85349,67,53,0
190.85349,190.91354,65,66,0
190.91354,190.9736,67,62,0
190.4931,190.9736,64,58,0
190.9736,191.4541,65,75,0
192.89561,193.13272,82,96,0
193.13272,193.25128,79,62,0
193.36984,193.4884,76,66,0
193.60696,193.72551,76,62,0
193.84407,194.08119,82,96,0
194.08119,194.19975,79,59,0
194.31831,194.43686,76,63,0
194.55542,194.67398,76,60,0
194.79254,194.90907,77,62,0
195.0256,195.14214,79,63,0
195.25867,195.3752,81,64,0
195.49173,195.60826,82,66,0
195.72946,195.96452,83,93,0
195.96452,196.1996,84,75,0
196.1996,196.43468,83,93,0
196.43468,196.66975,84,75,0
196.66975,196.8974,82,95,0
196.8974,197.01123,79,62,0
197.12955,197.24786,76,67,0
197.36617,197.48448,76,62,0
197.6028,197.83495,82,97,0
197.83495,197.95233,79,59,0
198.06972,198.18712,76,65,0
198.3045,198.42189,76,60,0
198.53928,198.6558,77,62,0
198.77234,198.88887,79,63,0
199.0054,199.12193,81,64,0
199.23846,199.35501,82,66,0
199.47566,199.71175,83,93,0
199.71175,199.94785,84,75,0
199.94785,200.18393,83,93,0
200.18393,200.44792,84,75,0
200.44792,201.39229,86,78,0
200.44792,201.39229,74,78,0
201.39229,202.33664,64,64,0
201.39229,202.33664,76,64,0
202.33664,203.281,82,71,0
202.33664,203.281,70,71,0
203.281,204.22537,81,66,0
203.281,204.22537,69,66,0
204.22537,204.3414,81,75,0
204.3414,204.45744,79,68,0
204.45744,204.57347,82,72,0
204.57347,204.68951,81,68,0
204.68951,204.80554,84,72,0
204.80554,204.92159,82,71,0
204.92159,205.03763,81,71,0
205.03763,205.15366,79,69,0
205.15366,205.63843,77,72,0
205.63843,206.14107,76,63,0
206.38026,206.61333,77,45,0
206.61333,206.84639,76,49,0
206.84639,207.07945,77,45,0
207.31657,207.54964,75,45,0
207.54964,207.7827,74,50,0
207.7827,208.01576,75,46,0
208.25288,208.49527,74,54,0
208.49527,208.73766,86,67,0
208.73766,208.85884,86,63,0
209.22241,209.45648,86,61,0
209.45648,209.69055,74,51,0
209.69055,209.80759,74,47,0
210.16173,210.39885,72,49,0
210.39885,210.63596,84,62,0
210.63596,210.75452,84,57,0
211.1102,211.34526,84,56,0
211.34526,211.58034,72,48,0
211.58034,211.69788,72,45,0
211.81541,212.05049,73,46,0
212.05049,212.28555,74,50,0
212.28555,212.51862,76,54,0
212.51862,212.7517,77,49,0
212.7517,213.23009,65,45,0
213.23009,213.48492,69,42,0
213.48492,213.73976,67,42,0
213.23009,213.73976,64,42,0
213.73976,213.86719,65,45,0
213.99461,214.11115,65,47,0
214.11115,214.22768,69,45,0
214.22768,214.34421,67,47,0
214.34421,214.46074,70,45,0
214.46074,214.57727,69,47,0
214.57727,214.6938,72,45,0
214.6938,214.81392,70,48,0
214.93405,215.05058,65,52,0
215.05058,215.16711,69,48,0
215.16711,215.28365,67,52,0
215.28365,215.40018,70,48,0
215.40018,215.51671,69,52,0
215.51671,215.63324,72,48,0
215.63324,215.7518,70,52,0
215.87036,215.9869,65,48,0
215.9869,216.10342,69,50,0
216.10342,216.21996,67,52,0
216.21996,216.33649,70,53,0
216.33649,216.45302,69,54,0
216.45302,216.56955,72,57,0
216.56955,216.68608,70,58,0
216.68608,216.80261,74,60,0
216.80261,216.91914,72,61,0
216.91914,217.03568,75,63,0
217.03568,217.1522,74,64,0
217.1522,217.26874,77,65,0
217.26874,217.3873,76,67,0
217.3873,217.50586,79,69,0
217.50586,217.62239,77,70,0
217.62239,217.73892,79,72,0
217.73892,217.85545,81,75,0
217.85545,217.97198,79,75,0
217.97198,218.08852,77,73,0
218.08852,218.20505,75,72,0
218.20505,218.32361,74,71,0
218.32361,218.44217,73,70,0
218.44217,218.5587,74,72,0
218.5587,218.67523,72,69,0
218.67523,218.79176,70,71,0
218.79176,218.9083,69,68,0
218.9083,219.02483,67,70,0
219.02483,219.14136,65,67,0
219.14136,219.25789,64,69,0
219.25789,219.37442,62,65,0
219.37442,219.48912,60,68,0
219.48912,219.60382,65,65,0
219.60382,219.71764,69,68,0
219.71764,219.83147,72,65,0
219.83147,219.95364,77,72,0
220.0758,220.19385,69,59,0
220.0758,220.19385,65,59,0
220.31189,220.55428,72,64,0
220.31189,220.55428,69,64,0
220.55428,220.67548,67,60,0
220.55428,220.67548,70,60,0
220.79666,220.92175,65,61,0
220.79666,220.92175,69,61,0
221.04683,221.17192,67,58,0
221.04683,221.17192,64,58,0
221.297,221.42209,65,61,0
221.54716,221.6637,77,47,0
221.6637,221.78023,81,45,0
221.78023,221.89676,79,47,0
221.89676,222.01329,82,45,0
222.01329,222.12982,81,47,0
222.12982,222.24635,84,45,0
222.24635,222.36649,82,48,0
222.4866,222.60313,77,54,0
222.60313,222.71968,81,50,0
222.71968,222.83621,79,54,0
222.83621,222.95274,82,51,0
222.95274,223.06927,81,54,0
223.06927,223.1858,84,50,0
223.1858,223.30437,82,54,0
223.42291,223.53944,77,55,0
223.53944,223.65598,81,56,0
223.65598,223.7725,79,58,0
223.7725,223.88905,82,59,0
223.88905,224.00558,81,61,0
224.00558,224.12212,84,63,0
224.12212,224.23865,82,64,0
224.23865,224.35518,77,67,0
224.35518,224.47171,84,68,0
224.47171,224.58824,77,69,0
224.58824,224.70485,86,70,0
224.70485,224.82205,77,72,0
224.82205,224.93993,88,74,0
224.93993,225.06078,77,75,0
225.06078,225.1773,89,78,0
225.1773,225.29384,88,78,0
225.29384,225.41037,86,77,0
225.41037,225.5269,84,75,0
225.5269,225.64343,82,74,0
225.64343,225.75996,81,73,0
225.75996,225.8765,79,72,0
225.8765,225.99933,77,71,0
225.99933,226.11586,86,79,0
226.11586,226.23239,84,75,0
226.23239,226.34892,82,78,0
226.34892,226.46545,81,77,0
226.46545,226.58199,79,75,0
226.58199,226.69852,77,71,0
226.69852,226.81505,76,73,0
226.81505,226.93158,74,70,0
226.93158,227.16464,72,78,0
227.16464,227.28268,84,75,0
227.40073,227.51878,84,78,0
227.63683,227.75487,84,77,0
227.87291,227.98944,84,75,0
227.98944,228.10597,81,72,0
228.10597,228.2225,77,70,0
228.2225,228.33904,72,70,0
228.33904,228.45558,77,75,0
228.45558,228.57211,72,73,0
228.57211,228.68864,69,70,0
228.68864,228.80566,65,70,0
228.80566,228.8869,67,51,0
228.8869,228.96512,69,46,0
228.96512,229.03847,67,51,0
229.03847,229.1097,69,46,0
229.1097,229.18074,67,51,0
229.18074,229.25203,69,46,0
229.25203,229.32318,67,51,0
229.32318,229.39409,69,46,0
229.39409,229.46545,67,51,0
229.46545,229.53696,69,46,0
229.53696,229.60904,67,51,0
229.60904,229.68085,69,46,0
229.68085,229.75328,67,51,0
229.75328,229.82709,69,46,0
229.82709,229.9013,67,51,0
229.9013,229.97476,69,48,0
229.97476,230.04988,67,51,0
230.04988,230.12398,69,47,0
230.12398,230.18108,67,51,0
230.18108,230.23897,69,48,0
230.23897,230.29642,67,51,0
230.29642,230.35454,69,47,0
230.35454,230.39334,67,51,0
230.39334,230.432,69,48,0
230.432,230.47104,67,48,0
230.47104,230.53084,65,62,0
230.53084,230.59064,67,58,0
230.59064,230.82088,65,71,0
230.83089,231.07114,77,54,0
231.31139,231.54529,77,53,0
231.54529,231.78215,76,51,0
231.78215,232.02214,77,58,0
232.02214,232.26535,79,60,0
232.26535,232.51184,81,66,0
232.51184,232.62837,82,70,0
232.62837,232.7449,84,68,0
232.7449,232.86143,86,72,0
232.86143,232.97797,84,67,0
232.97797,233.0945,82,70,0
233.0945,233.21103,80,67,0
233.21103,233.32756,79,68,0
233.32756,233.44716,77,65,0
233.44716,233.56369,76,67,0
233.56369,233.68073,77,68,0
233.68073,233.79826,79,69,0
233.79826,233.9163,77,68,0
233.9163,234.03487,76,67,0
234.03487,234.15395,74,65,0
234.15395,234.27354,72,64,0
234.27354,234.39366,70,63,0
234.39366,234.51433,69,62,0
234.63498,234.75563,69,49,0
235.1176,235.35892,65,53,0
235.35892,235.60149,64,49,0
235.60149,235.8478,65,49,0
235.8478,236.09816,67,49,0
236.09816,236.35251,69,49,0
236.35251,236.48114,70,52,0
236.60976,236.67407,72,52,0
236.67407,236.73839,70,49,0
236.73839,236.80269,69,52,0
236.80269,236.867,70,49,0
236.867,237.12425,72,58,0
237.12425,237.39365,74,59,0
237.40536,237.67534,74,50,0
237.40536,237.67534,70,50,0
237.67534,237.94531,69,46,0
237.67534,237.94531,72,46,0
238.2075,238.48718,64,33,0
238.2075,238.48718,58,33,0
238.48718,239.74103,67,45,0
238.48718,239.74103,58,45,0
239.74103,240.23685,65,34,0
239.74103,240.23685,57,34,0
240.68367,240.8002,74,57,0
240.8002,240.91673,72,56,0
240.91673,241.03326,70,54,0
241.03326,241.1498,69,52,0
241.1498,241.3859,67,60,0
241.3859,241.61214,65,47,0
241.62198,242.33025,65,47,0
242.33025,242.56331,77,52,0
242.56331,242.79637,79,57,0
242.97118,243.02945,76,55,0
242.79637,243.02945,81,61,0
243.02945,243.38358,82,69,0
243.38358,243.50162,79,64,0
243.50162,243.9738,76,56,0
244.44598,244.56252,72,48,0
244.56252,244.67905,70,48,0
244.67905,244.79558,69,48,0
244.79558,244.91211,67,46,0
244.91211,245.14923,65,53,0
245.14923,245.37646,64,47,0
245.38635,246.0977,64,47,0
246.0977,246.33176,79,53,0
246.33176,246.56583,81,58,0
246.74138,246.79988,78,52,0
246.56583,246.79988,82,63,0
246.79988,247.15556,84,68,0
247.15556,247.27412,81,65,0
247.27412,247.74835,78,57,0
247.98547,248.21854,81,60,0
248.21854,248.4516,82,64,0
248.6342,248.69507,79,66,0
248.4516,248.69507,84,69,0
248.69507,249.05074,86,84,0
249.05074,249.1693,82,77,0
249.1693,249.40642,79,72,0
249.59067,249.65207,76,71,0
249.65207,250.00775,82,85,0
250.00775,250.12631,79,76,0
250.12631,250.36342,76,72,0
250.54602,250.60689,71,68,0
250.60689,250.96257,77,79,0
250.96257,251.08113,74,73,0
251.08113,251.55536,71,69,0
251.80103,252.02826,71,68,0
252.03813,252.26537,71,69,0
252.27525,252.50249,71,67,0
252.51237,252.6289,72,76,0
252.6289,252.74544,81,69,0
252.74544,252.86197,77,72,0
252.86197,252.9785,72,70,0
252.9785,253.09503,69,76,0
253.09503,253.21156,77,70,0
253.21156,253.3281,72,72,0
253.3281,253.43782,69,67,0
253.44463,253.69365,72,72,0
253.44463,253.69365,69,61,0
253.69365,253.94267,70,63,0
253.69365,253.94267,67,53,0
253.94267,254.0701,69,61,0
253.94267,254.0701,65,51,0
254.19751,254.32494,67,58,0
254.19751,254.32494,64,49,0
254.45236,254.92659,65,54,0
255.51938,255.63794,65,54,0
255.63794,255.7565,67,58,0
255.7565,255.87506,68,61,0
255.87506,255.9936,70,63,0
255.9936,256.11218,72,65,0
256.11218,256.23074,74,68,0
256.23074,256.34927,76,71,0
256.34927,256.46783,77,75,0
256.46783,256.5941,72,71,0
256.5941,256.71265,80,75,0
256.71265,256.8312,79,72,0
256.8312,256.94977,77,75,0
256.94977,257.07205,72,71,0
257.07205,257.1906,80,72,0
257.1906,257.30917,79,70,0
257.30917,257.45142,77,72,0
257.4277,257.56998,79,67,0
257.54626,257.68854,75,71,0
257.66483,257.8071,77,64,0
257.7834,257.92566,74,70,0
257.90195,258.04422,75,63,0
258.0205,258.16278,72,68,0
258.13907,258.2824,74,64,0
258.25763,258.50552,71,67,0
258.50552,258.97568,89,90,0
258.97568,259.4458,87,89,0
259.4458,259.91595,86,88,0
259.91595,260.3861,84,87,0
260.3861,260.85626,83,84,0
260.85626,261.3264,80,78,0
261.3264,261.79654,79,83,0
261.79654,262.02676,77,78,0
262.0368,262.27704,77,80,0
262.27704,262.5173,76,77,0
262.5173,262.9978,75,67,0
263.11792,263.25836,75,65,0
263.23495,263.3754,74,68,0
263.352,263.49243,75,66,0
263.46902,263.60944,77,68,0
263.58603,263.72647,75,66,0
263.70306,263.8435,74,68,0
263.8201,263.96097,75,65,0
263.93713,264.29437,78,77,0
264.29437,264.40118,75,69,0
264.4109,264.46918,75,65,0
264.46918,264.52744,77,62,0
264.52744,264.5857,75,65,0
264.5857,264.64395,77,63,0
264.64395,264.6828,75,66,0
264.6828,264.72165,77,64,0
264.72165,264.7605,75,64,0
264.7605,264.81876,74,71,0
264.81876,264.877,75,69,0
264.877,265.23425,82,78,0
265.23425,265.34106,75,68,0
265.3508,265.40906,75,64,0
265.40906,265.46732,77,62,0
265.46732,265.52557,75,64,0
265.52557,265.58386,77,62,0
265.58386,265.62268,75,64,0
265.62268,265.66153,77,63,0
265.66153,265.70038,75,63,0
265.70038,265.75864,74,71,0
265.75864,265.81693,75,68,0
265.81693,265.93497,81,81,0
266.053,266.17105,84,85,0
266.2891,266.8778,87,89,0
266.8778,267.01764,89,71,0
266.99435,267.1342,86,77,0
267.11087,267.2507,87,71,0
267.22742,267.36725,84,77,0
267.34393,267.48376,86,71,0
267.46048,267.6003,82,77,0
267.577,267.71683,84,71,0
267.69354,267.83337,81,72,0
267.81006,267.9499,82,73,0
267.9266,268.06644,84,77,0
268.04312,268.18286,82,72,0
268.15967,268.2992,81,71,0
268.27585,268.4164,82,72,0
268.39288,268.5345,84,73,0
268.51077,268.6535,86,70,0
268.62958,268.7731,87,75,0
268.74918,268.89224,86,70,0
268.86844,269.01105,84,72,0
268.98734,269.12952,82,72,0
269.1059,269.24756,81,71,0
269.22394,269.36514,79,70,0
269.34164,269.48242,77,69,0
269.459,269.5653,75,68,0
269.57605,269.6369,75,68,0
269.6369,269.69778,77,64,0
269.69778,269.73837,75,65,0
269.73837,269.77893,77,63,0
269.77893,269.81952,75,63,0
269.81952,270.05872,74,68,0
270.05872,270.7763,74,68,0
270.7763,271.0155,74,72,0
271.0155,271.2547,86,81,0
271.2547,271.7331,84,77,0
271.7331,272.2115,82,78,0
272.2115,272.5672,81,77,0
272.5672,272.70706,79,70,0
272.68375,272.82358,82,73,0
272.80026,272.94012,81,70,0
272.9168,273.05664,84,73,0
273.03333,273.1732,82,69,0
273.14987,273.2897,81,73,0
273.2664,273.40625,79,67,0
273.38293,273.4412,78,71,0
273.49945,273.61905,74,58,0
273.61905,273.73865,86,57,0
273.73865,273.85825,85,57,0
273.85825,273.97784,86,56,0
273.97784,274.09744,85,56,0
274.09744,274.21704,86,57,0
274.21704,274.33664,85,58,0
274.33664,274.4532,86,59,0
274.4532,274.5697,87,59,0
274.5697,274.68625,84,60,0
274.68625,274.8028,86,58,0
274.8028,274.9193,82,62,0
274.9193,275.03586,84,60,0
275.03586,275.15237,81,63,0
275.15237,275.26892,82,61,0
275.26892,275.40875,79,64,0
275.38544,275.5254,81,63,0
275.50198,275.64243,77,66,0
275.61902,275.75955,79,63,0
275.73602,275.87708,75,67,0
275.85358,275.99472,77,62,0
275.9711,276.11276,74,69,0
276.08914,276.23093,75,64,0
276.2072,276.32574,73,70,0
276.4443,276.6867,82,69,0
276.6867,276.92908,81,70,0
276.92908,277.17148,79,68,0
277.17148,277.23206,78,71,0
277.29266,277.41278,73,52,0
277.41278,277.53293,74,57,0
277.53293,277.65305,73,52,0
277.65305,277.77316,74,57,0
277.77316,277.89328,73,53,0
277.89328,278.01343,74,57,0
278.01343,278.13354,73,53,0
278.13354,278.25006,74,54,0
278.25006,278.3666,75,51,0
278.3666,278.48312,72,53,0
278.48312,278.59967,74,49,0
278.59967,278.7162,70,52,0
278.7162,278.83273,72,49,0
278.83273,278.94925,69,50,0
278.94925,279.0658,70,46,0
279.0658,279.20514,67,48,0
279.18192,279.32178,69,46,0
279.29837,279.439,65,46,0
279.41547,279.5568,67,45,0
279.53317,279.6751,63,45,0
279.6514,279.79404,65,44,0
279.77023,279.91357,62,43,0
279.88965,280.0338,63,42,0
280.00967,280.13034,61,41,0
280.251,280.4923,67,41,0
280.4923,280.7336,70,45,0
280.7336,280.97495,61,42,0
280.97495,281.09348,62,39,0
281.21204,281.33542,74,46,0
281.7056,281.94272,74,49,0
282.1798,282.41797,74,46,0
282.65613,282.8943,74,48,0
283.13245,283.36853,74,43,0
283.36853,283.60565,73,46,0
283.60565,283.84378,74,49,0
283.84378,284.08298,73,53,0
284.08298,284.32324,74,56,0
284.32324,284.56454,73,60,0
284.56454,284.80704,74,63,0
284.80704,285.29395,77,66,0
285.29395,285.78088,75,64,0
285.90262,286.0233,75,53,0
286.0233,286.14368,74,56,0
286.14368,286.2637,75,53,0
286.2637,286.3833,77,56,0
286.3833,286.50256,75,54,0
286.50256,286.62164,74,56,0
286.62164,286.74966,75,53,0
286.74966,287.23444,82,70,0
287.23444,287.7192,81,66,0
287.8404,287.95947,81,61,0
287.95947,288.07855,79,63,0
288.07855,288.1976,81,61,0
288.1976,288.31668,82,63,0
288.31668,288.43576,81,61,0
288.43576,288.55484,79,63,0
288.55484,288.68347,81,61,0
288.68347,289.16824,89,77,0
289.16824,289.653,87,75,0
289.7742,289.89703,87,66,0
289.89703,290.01987,86,68,0
290.01987,290.1427,87,65,0
290.1427,290.26175,89,68,0
290.26175,290.38083,87,65,0
290.38083,290.4999,85,68,0
290.4999,290.619,84,65,0
290.619,291.10376,82,77,0
291.10376,291.58853,81,69,0
291.70972,291.8526,87,67,0
291.8288,291.97168,86,69,0
291.94788,292.09076,87,66,0
292.06696,292.20984,89,70,0
292.18604,292.32892,87,67,0
292.3051,292.448,85,68,0
292.4242,292.54324,84,67,0
292.54324,292.6869,82,66,0
292.66232,292.80887,81,65,0
292.78516,292.92743,87,69,0
292.90372,293.046,86,66,0
293.02228,293.16455,89,71,0
293.14084,293.2831,87,68,0
293.2594,293.40167,85,69,0
293.37796,293.52023,84,67,0
293.49652,293.63953,82,66,0
293.61508,293.76105,81,65,0
293.73734,293.8796,87,70,0
293.8559,293.99817,86,67,0
293.97446,294.11673,89,71,0
294.09302,294.2353,87,68,0
294.21158,294.35385,85,70,0
294.33014,294.4487,84,69,0
294.4487,294.5916,82,68,0
294.56726,294.7127,81,67,0
294.689,294.83127,84,68,0
294.80756,294.95013,83,64,0
294.92612,295.07025,86,68,0
295.04623,295.19037,84,67,0
295.16635,295.31052,82,65,0
295.28647,295.43063,81,63,0
295.40662,295.55164,79,63,0
295.52673,295.6756,77,61,0
295.65125,295.79733,79,59,0
295.77298,295.91907,78,58,0
295.8947,296.0408,81,59,0
296.01645,296.1621,79,57,0
296.13818,296.2817,77,56,0
296.25778,296.37738,75,54,0
296.37738,296.62195,74,52,0
296.62195,296.8721,72,52,0
296.8721,296.9972,74,54,0
297.12225,297.24734,75,56,0
297.37244,297.50876,76,58,0
297.6451,297.79575,77,61,0
297.9464,298.06293,79,57,0
298.06293,298.17947,77,56,0
298.17947,298.296,75,54,0
298.296,298.41254,74,52,0
298.41254,298.64862,72,60,0
298.64862,298.87488,70,54,0
298.8847,299.593,70,51,0
299.593,299.82605,74,57,0
299.82605,300.0591,79,60,0
300.0591,300.3004,74,55,0
300.3004,300.7726,77,60,0
300.7726,301.48087,75,56,0
301.48087,301.5974,77,60,0
301.5974,301.71396,79,56,0
301.71396,301.83047,77,61,0
301.83047,301.94702,75,54,0
301.94702,302.06354,74,58,0
302.06354,302.18008,72,53,0
302.18008,302.65338,70,66,0
302.65338,303.3458,69,57,0
303.35257,303.58563,69,62,0
303.58563,303.8187,70,65,0
303.8187,304.05414,72,61,0
304.06436,304.54068,72,61,0
304.06436,304.54068,69,52,0
304.54068,305.01697,74,58,0
304.54068,305.01697,70,49,0
305.25513,305.37067,77,64,0
305.37067,305.4862,76,63,0
305.4862,305.60175,79,66,0
305.60175,305.71732,77,63,0
305.71732,305.83286,75,63,0
305.83286,305.93875,74,61,0
305.9484,306.18552,74,68,0
306.18552,306.65973,72,61,0
306.65973,306.89282,70,61,0
306.89282,307.1299,74,67,0
307.1299,307.60416,72,62,0
307.60416,307.83722,69,64,0
307.83722,307.95325,70,68,0
307.95325,308.0693,72,59,0
308.0693,308.18533,70,62,0
308.18533,308.30136,69,58,0
308.30136,308.4174,70,66,0
308.4174,308.53345,72,60,0
308.53345,308.64948,74,63,0
308.64948,308.7652,75,61,0
308.7652,308.88074,76,69,0
308.88074,308.99628,77,65,0
308.99628,309.11166,76,69,0
309.11166,309.23285,77,65,0
309.23285,309.3474,79,69,0
309.3474,309.462,77,67,0
309.462,309.57657,75,66,0
309.57657,309.68817,74,65,0
309.6983,309.93036,74,72,0
309.93036,310.15277,72,54,0
310.16245,310.39453,72,56,0
310.39453,310.6266,70,54,0
310.6266,310.85867,74,65,0
310.85867,311.08105,72,54,0
311.09073,311.3228,72,57,0
311.3228,311.55487,69,53,0
311.55487,311.78696,70,66,0
311.78696,311.90298,72,57,0
311.90298,312.019,74,58,0
312.019,312.13507,75,59,0
312.13507,312.2511,77,60,0
312.2511,312.36713,79,61,0
312.36713,312.4832,81,64,0
312.4832,312.5992,82,66,0
312.5992,312.71524,84,67,0
312.71524,312.83112,86,68,0
312.83112,312.94666,87,69,0
312.94666,313.0622,89,76,0
313.17743,313.29248,89,75,0
313.40753,313.6426,89,76,0
313.6426,314.11276,87,74,0
314.11276,314.34784,86,73,0
314.34784,314.58292,86,75,0
313.40753,314.58292,77,76,0
314.58292,314.69894,84,64,0
314.58292,314.69894,75,64,0
314.81497,314.93127,82,72,0
314.81497,314.93127,74,72,0
315.04855,315.17538,81,64,0
315.04855,315.17538,72,64,0
315.30222,315.54034,74,76,0
315.30222,315.54034,82,76,0
315.77957,316.02597,70,72,0
316.79984,316.9297,67,52,0
316.9297,317.05954,65,48,0
317.05954,317.1894,63,52,0
317.1894,317.31924,62,48,0
317.31924,317.55637,60,56,0
317.55637,317.79346,58,53,0
317.79346,318.50482,58,53,0
318.50482,318.62494,70,54,0
318.74506,318.98532,70,54,0
318.98532,319.22556,72,51,0
319.22556,319.46902,70,61,0
319.46902,319.7125,69,53,0
319.7125,320.43277,68,51,0
320.4429,320.66916,68,58,0
320.679,320.90524,68,65,0
320.91507,321.15118,68,72,0
321.15118,321.2677,80,78,0
321.2677,321.38425,82,71,0
321.38425,321.50076,79,78,0
321.50076,321.6173,80,70,0
321.6173,321.73383,77,79,0
321.73383,321.85037,79,69,0
321.85037,321.9669,75,77,0
321.9669,322.08344,77,70,0
322.08344,322.19995,74,79,0
322.19995,322.3165,75,70,0
322.3165,322.433,72,75,0
322.433,322.54956,74,69,0
322.54956,322.66608,70,76,0
322.66608,322.78262,72,70,0
322.78262,322.89914,68,72,0
322.89914,323.02255,70,67,0
323.02255,323.26602,68,72,0
323.26602,323.49933,67,67,0
323.50946,324.23987,67,59,0
324.23987,324.3616,79,54,0
324.48334,324.7184,79,60,0
324.7184,324.9437,77,54,0
324.9535,325.19586,77,63,0
325.19586,325.42816,76,54,0
325.43826,326.1732,76,54,0
326.1732,326.2944,85,59,0
326.4156,326.65796,85,61,0
326.65796,326.90036,76,56,0
326.90036,327.14273,79,61,0
327.14273,327.37503,77,54,0
327.38513,328.11227,77,54,0
328.11227,328.3494,78,52,0
328.3494,328.58652,79,54,0
328.58652,328.8325,75,52,0
328.8325,329.07706,73,57,0
329.07706,329.3114,74,52,0
329.3216,329.81073,74,52,0
330.05527,330.29138,77,54,0
330.29138,330.40942,79,61,0
330.40942,330.52747,77,57,0
330.52747,330.6455,75,61,0
330.6455,330.76355,74,56,0
330.76355,331.47183,72,61,0
331.47183,331.70792,69,52,0
331.70792,331.76694,70,52,0
331.82596,331.9658,77,56,0
331.9425,332.08234,76,56,0
332.05902,332.19885,77,52,0
332.17557,332.3154,79,63,0
332.29208,332.43192,77,54,0
332.40863,332.54846,75,59,0
332.52515,332.6658,74,53,0
332.6417,332.76233,72,63,0
332.883,333.35724,72,63,0
333.35724,333.59433,69,54,0
333.59433,333.65363,70,54,0
333.7129,333.85275,77,51,0
333.82944,333.96927,76,56,0
333.94595,334.08582,77,53,0
334.0625,334.20233,79,62,0
334.17902,334.31888,77,53,0
334.29556,334.4354,75,57,0
334.4121,334.51892,74,54,0
334.52863,334.76575,74,63,0
334.76575,335.00287,72,60,0
335.24,335.47305,72,59,0
335.47305,335.71014,72,63,0
335.71014,335.94727,70,59,0
336.1844,336.41547,70,52,0
336.41547,336.53104,69,64,0
336.53104,336.64658,70,58,0
336.64658,336.76212,69,62,0
336.76212,336.87766,65,58,0
336.87766,336.9932,70,69,0
336.9932,337.10873,72,62,0
337.10873,337.2243,70,67,0
337.2243,337.33984,65,59,0
337.33984,337.45538,72,70,0
337.45538,337.57092,74,64,0
337.57092,337.68646,72,69,0
337.68646,337.802,65,63,0
337.802,337.91757,74,77,0
337.91757,338.0331,75,67,0
338.0331,338.14865,74,72,0
338.14865,338.2642,65,67,0
338.2642,338.38223,75,78,0
338.50027,338.61832,75,78,0
338.97247,339.0895,72,73,0
339.2065,339.44058,75,79,0
339.44058,339.55762,74,72,0
339.67465,339.7917,72,74,0
339.90872,340.02576,70,71,0
340.1428,340.25833,69,67,0
340.25833,340.37387,65,59,0
340.37387,340.4894,76,61,0
340.4894,340.60495,77,59,0
340.60495,340.72052,70,70,0
340.72052,340.83606,65,59,0
340.83606,340.9516,76,66,0
340.9516,341.06714,77,61,0
341.06714,341.18268,72,74,0
341.18268,341.29822,65,64,0
341.29822,341.41376,76,69,0
341.41376,341.52933,77,62,0
341.52933,341.64487,74,79,0
341.64487,341.7604,65,69,0
341.7604,341.87595,76,73,0
341.87595,341.9915,77,69,0
341.9915,342.11005,75,79,0
342.2286,342.34717,75,79,0
342.70285,342.76212,72,57,0
342.75916,342.81845,74,52,0
342.8214,342.88068,72,57,0
342.88068,342.93997,74,52,0
342.93997,343.17706,75,72,0
343.17706,343.29562,74,71,0
343.41418,343.53275,72,71,0
343.6513,343.76987,70,68,0
343.88843,344.00446,69,78,0
344.00446,344.1205,77,69,0
344.1205,344.23654,72,73,0
344.23654,344.35257,69,70,0
344.35257,344.4686,65,77,0
344.4686,344.5863,60,69,0
344.5863,344.70575,57,70,0
344.70575,344.82703,53,67,0
345.80527,346.50446,65,72,0
345.80527,346.50446,53,72,0
345.80527,346.50446,58,72,0
345.80527,346.50446,62,72,0
346.50446,346.62097,67,48,0
346.62097,346.73752,65,45,0
346.73752,346.85406,63,52,0
346.97058,347.08713,62,48,0
347.20364,347.3202,60,52,0
347.4367,347.55325,58,48,0
347.66977,347.9069,58,54,0
347.9069,348.14886,67,49,0
348.15936,348.872,67,72,0
348.15936,348.872,58,72,0
348.872,349.10507,65,53,0
349.10507,349.33813,69,53,0
349.33813,349.5615,70,52,0
349.5712,349.80035,70,61,0
349.80035,350.26648,60,53,0
350.26648,350.49954,62,53,0
350.49954,350.72867,70,61,0
350.72867,351.19482,60,51,0
351.19482,351.4279,62,53,0
351.4279,351.90015,65,58,0
351.90015,351.9589,63,52,0
351.9589,352.01767,65,47,0
352.01767,352.07645,63,52,0
352.07645,352.13522,65,49,0
352.13522,352.17438,63,52,0
352.17438,352.21356,65,49,0
352.21356,352.25275,63,49,0
352.25275,352.31152,62,52,0
352.31152,352.37027,63,48,0
352.37027,352.48782,62,57,0
352.60535,352.8384,62,51,0
352.8384,353.07147,63,53,0
353.07147,353.30453,65,51,0
353.30453,353.54166,66,65,0
353.54166,354.00778,67,54,0
354.00778,354.12283,65,53,0
354.12283,354.2379,63,50,0
354.2379,354.47098,62,54,0
354.47098,354.70404,60,51,0
354.70404,354.9371,62,52,0
354.9371,355.17017,63,51,0
355.17017,355.40833,67,63,0
355.40833,355.87445,65,53,0
355.87445,355.99,63,54,0
355.99,356.10553,62,49,0
356.10553,356.3386,60,56,0
356.3386,356.57166,58,52,0
356.57166,356.80472,60,54,0
356.80472,357.03778,62,50,0
357.03778,357.27594,65,63,0
357.27594,357.74207,63,51,0
357.74207,357.97513,60,51,0
357.97513,358.2133,63,62,0
358.2133,358.67743,62,52,0
358.67743,358.9095,58,52,0
358.9095,359.04993,57,48,0
359.02652,359.16696,58,49,0
359.14355,359.284,59,50,0
359.2606,359.40085,60,51,0
359.37762,359.51688,61,52,0
359.49365,359.6329,62,53,0
359.6097,359.74893,63,54,0
359.72574,359.865,64,54,0
359.84177,360.3059,65,56,0
360.77924,361.47842,77,73,0
360.77924,361.47842,65,73,0
360.77924,361.47842,70,73,0
360.77924,361.47842,74,73,0
361.47842,361.59494,79,51,0
361.59494,361.7115,77,49,0
361.7115,361.828,75,57,0
361.94455,362.06107,74,50,0
362.1776,362.29416,72,50,0
362.41068,362.52722,70,47,0
362.64374,362.88086,70,53,0
362.88086,363.1184,79,50,0
363.12875,363.8401,79,71,0
363.12875,363.8401,70,64,0
363.8401,364.07315,77,53,0
364.07315,364.3062,81,66,0
364.3062,364.76453,82,63,0
364.76453,364.9976,72,53,0
364.9976,365.23065,74,53,0
365.23065,365.68893,82,68,0
365.68893,365.922,72,53,0
365.922,366.15506,74,53,0
366.15506,366.2716,82,67,0
366.38815,366.86237,77,54,0
366.86237,367.0995,76,53,0
367.0995,367.3366,75,53,0
367.3366,367.45517,74,48,0
367.57373,367.8058,74,54,0
367.8058,368.03787,75,60,0
368.03787,368.26993,77,64,0
368.26993,368.96616,79,70,0
368.96616,369.08218,81,70,0
369.08218,369.19724,83,67,0
369.19724,369.31232,84,70,0
369.31232,369.42737,86,67,0
369.42737,369.54242,87,70,0
369.54242,369.65747,86,66,0
369.65747,369.77252,84,70,0
369.77252,369.8876,86,67,0
369.8876,370.00266,82,70,0
370.00266,370.1177,84,67,0
370.1177,370.23227,81,69,0
370.23227,370.34686,82,66,0
370.34686,370.4619,79,69,0
370.4619,370.57697,81,64,0
370.57697,370.6925,77,71,0
370.6925,370.80804,79,67,0
370.80804,370.9241,75,71,0
370.9241,371.04013,77,67,0
371.04013,371.15616,74,68,0
371.15616,371.27222,75,64,0
371.27222,371.38806,77,68,0
371.38806,371.50363,79,65,0
371.50363,371.61917,81,70,0
371.61917,371.73438,82,66,0
371.73438,371.84943,81,69,0
371.84943,371.9685,82,65,0
371.9685,372.0831,84,72,0
372.0831,372.19766,82,70,0
372.19766,372.31223,81,69,0
372.31223,372.4303,79,67,0
372.4303,372.54535,81,72,0
372.54535,372.6604,79,70,0
372.6604,372.77545,77,69,0
372.77545,372.8905,75,67,0
372.8905,373.36066,74,71,0
373.36066,373.42072,72,58,0
373.42072,373.48077,74,54,0
373.48077,373.54083,72,58,0
373.54083,373.60092,74,53,0
373.60092,373.64096,72,58,0
373.64096,373.681,74,54,0
373.681,373.72104,72,54,0
373.72104,373.7811,70,66,0
373.7811,373.84116,72,62,0
373.36066,373.84116,69,58,0
373.84116,374.32166,70,75,0
375.76315,376.00027,75,85,0
376.00027,376.11884,72,56,0
376.2374,376.35596,69,62,0
376.47452,376.59308,69,56,0
376.71164,376.94873,75,85,0
376.94873,377.0673,72,54,0
377.18585,377.3044,69,60,0
377.42297,377.54153,69,54,0
377.6601,377.7766,70,62,0
377.89316,378.00967,72,63,0
378.12622,378.24274,74,64,0
378.35928,378.4758,75,66,0
378.59702,378.8321,76,88,0
378.8321,379.06714,77,75,0
379.06714,379.30222,76,87,0
379.30222,379.5373,77,75,0
379.5373,379.7744,75,82,0
379.5373,379.7744,87,97,0
379.7744,379.89297,72,48,0
379.7744,379.89297,84,57,0
380.01154,380.1301,69,52,0
380.01154,380.1301,81,62,0
380.24866,380.36722,69,47,0
380.24866,380.36722,81,56,0
380.48578,380.72287,75,82,0
380.48578,380.72287,87,97,0
380.72287,380.84143,72,45,0
380.72287,380.84143,84,54,0
380.96,381.07855,69,51,0
380.96,381.07855,81,60,0
381.1971,381.31567,69,45,0
381.1971,381.31567,81,54,0
381.43423,381.55075,70,52,0
381.43423,381.55075,82,62,0
381.6673,381.7838,72,53,0
381.6673,381.7838,84,63,0
381.90036,382.01688,74,54,0
381.90036,382.01688,86,64,0
382.13342,382.24997,75,56,0
382.13342,382.24997,87,66,0
382.3706,382.6067,76,76,0
382.3706,382.6067,88,90,0
382.6067,382.8428,77,63,0
382.6067,382.8428,89,75,0
382.8428,383.0789,76,77,0
382.8428,383.0789,88,91,0
383.0789,383.34045,77,63,0
383.0789,383.34045,89,75,0
383.34045,384.2848,79,66,0
383.34045,384.2848,67,56,0
384.2848,385.22916,69,54,0
384.2848,385.22916,57,45,0
385.22916,386.17352,87,77,0
385.22916,386.17352,75,65,0
386.17352,387.1179,86,68,0
386.17352,387.1179,74,57,0
387.1179,387.25714,86,75,0
387.23392,387.37317,84,68,0
387.34998,387.4892,87,72,0
387.466,387.60526,86,67,0
387.58203,387.72128,89,75,0
387.69806,387.8373,87,71,0
387.81412,387.95334,86,72,0
387.93015,388.0704,84,68,0
388.04617,388.53094,82,75,0
388.53094,389.0336,81,63,0
389.2728,389.50586,82,47,0
389.50586,389.73892,81,50,0
389.73892,389.972,82,47,0
390.2091,390.44217,80,46,0
390.44217,390.67523,79,51,0
390.67523,390.9083,80,46,0
391.14642,391.3795,79,44,0
391.3795,391.61258,78,48,0
391.61258,391.84564,79,45,0
392.08273,392.323,79,44,0
392.323,392.56323,91,51,0
392.56323,392.68338,91,48,0
393.04062,393.27368,91,50,0
393.27368,393.50674,77,44,0
393.50674,393.62326,77,44,0
393.979,394.2151,77,46,0
394.2151,394.45117,86,51,0
394.45117,394.5692,86,48,0
394.92648,395.16052,86,49,0
395.16052,395.3946,75,45,0
395.3946,395.51163,75,45,0
395.86682,396.09888,75,44,0
396.09888,396.33096,84,50,0
396.33096,396.447,84,47,0
396.80118,397.03424,84,48,0
397.03424,397.2673,74,44,0
397.2673,397.38385,74,44,0
397.73853,397.98093,74,44,0
397.98093,398.2233,82,49,0
398.2233,398.34448,82,46,0
398.46567,398.71024,82,54,0
398.71024,398.83252,72,44,0
399.4439,399.68524,82,63,0
399.68524,399.80588,74,52,0
400.40918,400.64838,82,69,0
400.64838,400.76797,75,54,0
401.36594,401.6041,82,81,0
401.6041,401.72318,76,67,0
402.31857,402.55566,82,89,0
402.55566,402.67422,77,83,0
402.7928,403.02786,82,89,0
403.02786,403.14542,78,83,0
403.26294,403.49402,82,89,0
403.49402,403.72513,79,85,0
403.72513,403.95236,87,89,0
403.95236,404.1796,81,85,0
404.1796,404.22504,86,82,0
404.22504,404.27048,87,81,0
404.27048,404.31595,86,85,0
404.31595,404.3614,87,78,0
404.3614,404.40683,86,78,0
404.40683,404.64163,89,94,0
404.64163,404.68707,82,81,0
404.68707,404.73254,84,76,0
404.73254,404.77798,82,81,0
404.77798,404.82343,84,75,0
404.82343,404.86887,82,75,0
404.86887,405.10175,86,92,0
405.10175,405.1472,79,75,0
405.1472,405.19266,81,69,0
405.19266,405.2381,79,75,0
405.2381,405.28354,81,71,0
405.28732,405.32898,79,71,0
405.32898,405.5628,82,88,0
405.5628,405.60828,72,71,0
405.60828,405.65372,74,66,0
405.65372,405.69916,72,71,0
405.69916,405.7446,74,67,0
405.7446,405.79007,72,67,0
405.79007,406.0173,75,79,0
406.0173,406.07736,65,74,0
406.13742,406.27725,77,76,0
406.25394,406.3938,79,78,0
406.37048,406.5103,77,76,0
406.487,406.62686,75,76,0
406.60355,406.74338,74,71,0
406.7201,406.85992,72,72,0
406.8366,406.97696,70,70,0
406.95316,407.0127,72,54,0
407.0127,407.0722,74,50,0
407.0722,407.13174,72,54,0
407.13174,407.19128,74,49,0
407.19128,407.25082,72,54,0
407.25082,407.31036,74,49,0
407.31036,407.3699,72,54,0
407.3699,407.42944,74,49,0
407.42944,407.48898,72,54,0
407.48898,407.54852,74,49,0
407.54852,407.60806,72,54,0
407.60806,407.6676,74,51,0
407.6676,407.70728,72,54,0
407.70728,407.74698,74,50,0
407.74698,407.78668,72,50,0
407.78668,407.84622,70,66,0
407.84622,407.90576,72,62,0
407.90576,408.02484,70,70,0
408.1439,408.26044,58,47,0
408.26044,408.37695,62,45,0
408.37695,408.4935,60,47,0
408.4935,408.61002,63,45,0
408.61002,408.72656,62,47,0
408.72656,408.8431,65,45,0
408.8431,408.96323,63,48,0
409.08334,409.1999,58,52,0
409.1999,409.3164,62,48,0
409.3164,409.43295,60,52,0
409.43295,409.54947,63,48,0
409.54947,409.66602,62,52,0
409.66602,409.78253,65,48,0
409.78253,409.9011,63,52,0
410.01965,410.1362,58,52,0
410.1362,410.25272,62,55,0
410.25272,410.36926,60,57,0
410.36926,410.48578,63,58,0
410.48578,410.60233,62,59,0
410.60233,410.71884,65,62,0
410.71884,410.8354,63,63,0
410.8354,410.9519,67,66,0
410.9519,411.06845,65,67,0
411.06845,411.18497,68,69,0
411.18497,411.3015,67,70,0
411.3015,411.41803,70,71,0
411.41803,411.5366,69,73,0
411.5366,411.65515,72,75,0
411.65515,411.7717,70,77,0
411.7717,411.8882,72,79,0
411.8882,412.00476,74,82,0
412.00476,412.12128,72,82,0
412.12128,412.23782,70,80,0
412.23782,412.35434,68,79,0
412.35434,412.4729,67,78,0
412.4729,412.59146,66,77,0
412.59146,412.708,67,78,0
412.708,412.82452,72,79,0
412.82452,412.94107,75,80,0
412.94107,413.0576,74,79,0
413.0576,413.17413,72,79,0
413.17413,413.29065,70,78,0
413.29065,413.4072,69,75,0
413.4072,413.5237,67,74,0
413.5237,413.64175,65,75,0
413.64175,413.7598,70,79,0
413.7598,413.87787,74,82,0
413.87787,413.9959,77,88,0
413.9959,414.1171,82,94,0
414.23828,414.35632,74,64,0
414.23828,414.35632,70,64,0
414.47437,414.71677,77,70,0
414.47437,414.71677,74,70,0
414.71677,414.83795,75,66,0
414.71677,414.83795,72,66,0
414.95914,415.08423,74,67,0
414.95914,415.08423,70,67,0
415.20932,415.33438,72,67,0
415.20932,415.33438,69,67,0
415.45947,415.58456,70,67,0
415.70966,415.82617,70,47,0
415.82617,415.94272,74,45,0
415.94272,416.05923,72,47,0
416.05923,416.17578,75,45,0
416.17578,416.2923,74,47,0
416.2923,416.40884,77,45,0
416.40884,416.52896,75,48,0
416.64908,416.76562,82,62,0
416.76562,416.88214,86,58,0
416.88214,416.9987,84,62,0
416.9987,417.1152,87,59,0
417.1152,417.23175,86,62,0
417.23175,417.34827,89,58,0
417.34827,417.46683,87,68,0
417.5854,417.70193,70,55,0
417.70193,417.81845,74,56,0
417.81845,417.935,72,58,0
417.935,418.0515,75,59,0
418.0515,418.16806,74,61,0
418.16806,418.28458,77,63,0
418.28458,418.40112,75,64,0
418.40112,418.51764,70,67,0
418.51764,418.6342,77,68,0
418.6342,418.7507,70,69,0
418.7507,418.86734,79,70,0
418.86734,418.98453,70,72,0
418.98453,419.10242,81,74,0
419.10242,419.22324,70,75,0
419.22324,419.33978,82,78,0
419.33978,419.4563,84,78,0
419.4563,419.57285,86,77,0
419.57285,419.68936,84,75,0
419.68936,419.8059,82,74,0
419.8059,419.92242,80,73,0
419.92242,420.03897,79,72,0
420.03897,420.1618,78,71,0
420.1618,420.27832,79,79,0
420.27832,420.39487,77,79,0
420.39487,420.51138,75,78,0
420.51138,420.62793,74,77,0
420.62793,420.74445,72,75,0
420.74445,420.861,70,74,0
420.861,420.97754,69,73,0
420.97754,421.09406,67,73,0
421.09406,421.32712,65,82,0
421.32712,421.44516,89,82,0
421.5632,421.68124,89,82,0
421.79932,421.91736,89,82,0
422.0354,422.15192,89,81,0
422.15192,422.26846,86,76,0
422.26846,422.38498,82,71,0
422.38498,422.50143,77,69,0
422.50143,422.61697,82,81,0
422.61697,422.7325,77,75,0
422.7325,422.84808,74,71,0
422.84808,422.96387,70,69,0
422.96387,423.03854,72,51,0
423.03854,423.11224,74,46,0
423.11224,423.18555,72,51,0
423.18555,423.2581,74,46,0
423.2581,423.33014,72,51,0
423.33014,423.4028,74,46,0
423.4028,423.47446,72,51,0
423.47446,423.54617,74,46,0
423.54617,423.61765,72,51,0
423.61765,423.69016,74,46,0
423.69016,423.76266,72,51,0
423.76266,423.8375,74,46,0
423.8375,423.9135,72,51,0
423.9135,423.99057,74,46,0
423.99057,424.06824,72,51,0
424.06824,424.14627,74,48,0
424.14627,424.22446,72,51,0
424.22446,424.30283,74,47,0
424.30283,424.36185,72,51,0
424.36185,424.42087,74,48,0
424.42087,424.48013,72,51,0
424.48013,424.53943,74,47,0
424.53943,424.5791,72,51,0
424.5791,424.6188,74,48,0
424.6188,424.65848,72,48,0
424.65848,424.7183,70,62,0
424.7183,424.77808,72,58,0
424.77808,425.01434,70,69,0
425.01834,425.25858,82,54,0
425.49884,425.73273,82,58,0
425.73273,425.9696,81,56,0
425.9696,426.2096,82,61,0
426.2096,426.4528,84,68,0
426.4528,426.69928,86,72,0
426.69928,426.81583,87,79,0
426.81583,426.93234,86,73,0
426.93234,427.0489,87,76,0
427.0489,427.1654,86,70,0
427.1654,427.28195,87,75,0
427.28195,427.39847,85,67,0
427.39847,427.515,84,69,0
427.515,427.6346,82,65,0
427.6346,427.75113,81,67,0
427.75113,427.86816,82,70,0
427.86816,427.98572,84,72,0
427.98572,428.10376,82,67,0
428.10376,428.22232,81,69,0
428.22232,428.3414,79,66,0
428.3414,428.461,77,66,0
428.461,428.58112,75,65,0
428.58112,428.70178,74,63,0
428.82242,428.94308,74,49,0
429.30505,429.54636,70,53,0
429.54636,429.78894,69,49,0
429.78894,430.03525,70,49,0
430.03525,430.2856,72,49,0
430.2856,430.53995,74,49,0
430.53995,430.66858,75,52,0
430.7972,430.8615,77,52,0
430.8615,430.92584,75,49,0
430.92584,430.99014,74,52,0
430.99014,431.05444,75,48,0
431.05444,431.3117,77,54,0
431.3117,431.5811,79,61,0
431.5928,431.8628,79,49,0
431.5928,431.8628,75,49,0
431.8628,432.13278,77,42,0
431.8628,432.13278,74,42,0
432.39496,432.67462,69,30,0
432.39496,432.67462,63,30,0
432.67462,433.92847,72,45,0
432.67462,433.92847,63,45,0
433.92847,434.4243,70,32,0
433.92847,434.4243,62,32,0
434.87112,434.98764,74,57,0
434.98764,435.1042,72,56,0
435.1042,435.2207,70,54,0
435.2207,435.33725,69,52,0
435.33725,435.57333,67,60,0
435.57333,435.7996,65,47,0
435.80942,436.5177,65,47,0
436.5177,436.75076,77,52,0
436.75076,436.98383,79,57,0
437.15863,437.2169,76,55,0
436.98383,437.2169,81,61,0
437.2169,437.571,82,69,0
437.571,437.6891,79,64,0
437.6891,438.16125,76,56,0
438.63342,438.74997,72,48,0
438.74997,438.8665,70,48,0
438.8665,438.98303,69,48,0
438.98303,439.09955,67,46,0
439.09955,439.33667,65,53,0
439.33667,439.5639,64,47,0
439.5738,440.28516,64,47,0
440.28516,440.5192,79,53,0
440.5192,440.75327,81,58,0
440.92883,440.98734,78,52,0
440.75327,440.98734,82,63,0
440.98734,441.34302,84,68,0
441.34302,441.46158,81,65,0
441.46158,441.9358,78,57,0
442.1729,442.40598,81,60,0
442.40598,442.63904,82,64,0
442.82166,442.8825,79,66,0
442.63904,442.8825,84,69,0
442.8825,443.2382,86,84,0
443.2382,443.35675,82,77,0
443.35675,443.5844,79,72,0
443.76865,443.83005,76,71,0
443.83005,444.18573,82,85,0
444.18573,444.3043,79,76,0
444.3043,444.53024,76,72,0
444.71283,444.7737,71,68,0
444.7737,445.12936,77,79,0
445.12936,445.24792,74,73,0
445.24792,445.72217,71,69,0
445.96783,446.19507,71,68,0
446.20493,446.4322,71,69,0
446.44205,446.66928,71,67,0
446.67917,446.79572,72,76,0
446.79572,446.91223,81,69,0
446.91223,447.02878,77,72,0
447.02878,447.1453,72,70,0
447.1453,447.26184,69,76,0
447.26184,447.37836,77,70,0
447.37836,447.4949,72,72,0
447.4949,447.60464,69,67,0
447.61142,447.85577,72,72,0
447.61142,447.85577,69,61,0
447.85577,448.1001,70,63,0
447.85577,448.1001,67,53,0
448.1001,448.22855,69,61,0
448.1001,448.22855,65,51,0
448.357,448.48544,67,58,0
448.357,448.48544,64,49,0
448.6139,449.08813,65,54,0
449.6809,449.79947,65,54,0
449.79947,449.91803,67,58,0
449.91803,450.0366,68,61,0
450.0366,450.15515,70,63,0
450.15515,450.2737,72,65,0
450.2737,450.39227,74,68,0
450.39227,450.51083,76,71,0
450.51083,450.6294,77,75,0
450.6294,450.7556,72,71,0
450.7556,450.87418,80,75,0
450.87418,450.99274,79,72,0
450.99274,451.1113,77,75,0
451.1113,451.23358,72,71,0
451.23358,451.35214,80,72,0
451.35214,451.4707,79,70,0
451.4707,451.61298,77,72,0
451.58926,451.73154,79,67,0
451.70782,451.8501,75,71,0
451.8264,451.96863,77,64,0
451.94492,452.0872,74,70,0
452.06348,452.20575,75,63,0
452.18204,452.3243,72,68,0
452.3006,452.44394,74,64,0
452.41916,452.66705,71,67,0
452.66705,453.1372,89,90,0
453.1372,453.60736,87,89,0
453.60736,454.07748,86,88,0
454.07748,454.54764,84,87,0
454.54764,455.0178,83,84,0
455.0178,455.48795,80,78,0
455.48795,455.95807,79,83,0
455.95807,456.19415,77,78,0
456.20444,456.44202,77,80,0
456.44202,456.6768,76,77,0
456.6768,457.14636,75,67,0
457.26376,457.40417,75,65,0
457.38077,457.5212,74,68,0
457.4978,457.63824,75,66,0
457.61484,457.75528,77,68,0
457.73187,457.8723,75,66,0
457.8489,457.98935,74,68,0
457.96594,458.10678,75,65,0
458.08298,458.44022,78,77,0
458.44022,458.54703,75,69,0
458.55673,458.615,75,65,0
458.615,458.67328,77,62,0
458.67328,458.73154,75,65,0
458.73154,458.7898,77,63,0
458.7898,458.82864,75,66,0
458.82864,458.8675,77,64,0
458.8675,458.90634,75,64,0
458.90634,458.9646,74,71,0
458.9646,459.02286,75,69,0
459.02286,459.3801,82,78,0
459.3801,459.4869,75,68,0
459.4966,459.5549,75,64,0
459.5549,459.61316,77,62,0
459.61316,459.67142,75,64,0
459.67142,459.72968,77,62,0
459.72968,459.76852,75,64,0
459.76852,459.80737,77,63,0
459.80737,459.84622,75,63,0
459.84622,459.90448,74,71,0
459.90448,459.96274,75,68,0
459.96274,460.08078,81,81,0
460.19885,460.3169,84,85,0
460.43494,461.02365,87,89,0
461.02365,461.16348,89,71,0
461.14017,461.28,86,77,0
461.2567,461.39655,87,71,0
461.37323,461.5131,84,77,0
461.48978,461.6296,86,71,0
461.6063,461.74615,82,77,0
461.72284,461.86267,84,71,0
461.83936,461.97922,81,72,0
461.9559,462.09573,82,73,0
462.07242,462.21228,84,77,0
462.18896,462.3287,82,72,0
462.30548,462.445,81,71,0
462.4217,462.56223,82,72,0
462.53873,462.68033,84,73,0
462.65662,462.79935,86,70,0
462.77542,462.91895,87,75,0
462.89502,463.0381,86,70,0
463.01428,463.1569,84,72,0
463.13318,463.27533,82,72,0
463.25174,463.39337,81,71,0
463.36978,463.511,79,70,0
463.4875,463.62827,77,69,0
463.60486,463.71115,75,68,0
463.7219,463.78275,75,68,0
463.78275,463.84363,77,64,0
463.84363,463.8842,75,65,0
463.8842,463.92477,77,63,0
463.92477,463.96536,75,63,0
463.96536,464.20456,74,68,0
464.20456,464.92215,74,68,0
464.92215,465.16135,74,72,0
465.16135,465.40054,86,81,0
465.40054,465.87894,84,77,0
465.87894,466.35733,82,78,0
466.35733,466.71304,81,77,0
466.71304,466.85287,79,70,0
466.8296,466.96942,82,73,0
466.9461,467.08594,81,70,0
467.06265,467.20248,84,73,0
467.17917,467.319,82,69,0
467.29572,467.43555,81,73,0
467.41223,467.55515,79,67,0
467.52878,467.5947,78,71,0
467.6606,467.7802,74,58,0
467.7802,467.8998,86,57,0
467.8998,468.0194,85,57,0
468.0194,468.139,86,56,0
468.139,468.2586,85,56,0
468.2586,468.3782,86,57,0
468.3782,468.4978,85,58,0
468.4978,468.61432,86,59,0
468.61432,468.73087,87,59,0
468.73087,468.84738,84,60,0
468.84738,468.96393,86,58,0
468.96393,469.08044,82,62,0
469.08044,469.197,84,60,0
469.197,469.3135,81,63,0
469.3135,469.43005,82,61,0
469.43005,469.5699,79,64,0
469.54657,469.68652,81,63,0
469.66312,469.80356,77,66,0
469.78015,469.9207,79,63,0
469.8972,470.0382,75,67,0
470.0147,470.15585,77,62,0
470.13223,470.2739,74,69,0
470.2503,470.39206,75,64,0
470.36835,470.4869,73,70,0
470.60547,470.84784,82,69,0
470.84784,471.0902,81,70,0
471.0902,471.3326,79,68,0
471.3326,471.39322,78,71,0
471.4538,471.5739,73,52,0
471.5739,471.69406,74,57,0
471.69406,471.81418,73,52,0
471.81418,471.9343,74,57,0
471.9343,472.0544,73,53,0
472.0544,472.17456,74,57,0
472.17456,472.29468,73,53,0
472.29468,472.4112,74,54,0
472.4112,472.52774,75,51,0
472.52774,472.6443,72,53,0
472.6443,472.7608,74,49,0
472.7608,472.87735,70,52,0
472.87735,472.99387,72,49,0
472.99387,473.1104,69,50,0
473.1104,473.22693,70,46,0
473.22693,473.36627,67,48,0
473.34305,473.4829,69,46,0
473.4595,473.60013,65,46,0
473.57663,473.71793,67,45,0
473.69434,473.83624,63,45,0
473.81253,473.95517,65,44,0
473.93137,474.0747,62,43,0
474.05078,474.19495,63,42,0
474.1708,474.29147,61,41,0
474.41214,474.65344,67,41,0
474.65344,474.89474,70,45,0
474.89474,475.13608,61,42,0
475.13608,475.25464,62,39,0
475.37317,475.49658,74,46,0
475.86673,476.10385,74,49,0
476.34097,476.5791,74,46,0
476.81726,477.05542,74,48,0
477.29358,477.52966,74,43,0
477.52966,477.76678,73,46,0
477.76678,478.0049,74,49,0
478.0049,478.2441,73,53,0
478.2441,478.48438,74,56,0
478.48438,478.72568,73,60,0
478.72568,478.96817,74,63,0
478.96817,479.4551,77,66,0
479.4551,479.94202,75,64,0
480.06375,480.18442,75,53,0
480.18442,480.3048,74,56,0
480.3048,480.42484,75,53,0
480.42484,480.54443,77,56,0
480.54443,480.6637,75,54,0
480.6637,480.78278,74,56,0
480.78278,480.9108,75,53,0
480.9108,481.39557,82,70,0
481.39557,481.88034,81,66,0
482.00153,482.1206,81,61,0
482.1206,482.2397,79,63,0
482.2397,482.35876,81,61,0
482.35876,482.4778,82,63,0
482.4778,482.5969,81,61,0
482.5969,482.71597,79,63,0
482.71597,482.8446,81,61,0
482.8446,483.32938,89,77,0
483.32938,483.81415,87,75,0
483.93533,484.05817,87,66,0
484.05817,484.181,86,68,0
484.181,484.30383,87,65,0
484.30383,484.4229,89,68,0
484.4229,484.54196,87,65,0
484.54196,484.66104,85,68,0
484.66104,484.78012,84,65,0
484.78012,485.2649,82,77,0
485.2649,485.74966,81,69,0
485.87085,486.01376,87,67,0
485.98993,486.1328,86,69,0
486.109,486.2519,87,66,0
486.2281,486.37097,89,70,0
486.34717,486.49005,87,67,0
486.46625,486.60913,85,68,0
486.58533,486.7044,84,67,0
486.7044,486.84802,82,66,0
486.82346,486.97,81,65,0
486.9463,487.08856,87,69,0
487.06485,487.20712,86,66,0
487.1834,487.32568,89,71,0
487.30197,487.44424,87,68,0
487.42053,487.5628,85,69,0
487.5391,487.68137,84,67,0
487.65765,487.80066,82,66,0
487.7762,487.9222,81,65,0
487.8985,488.04074,87,70,0
488.01703,488.1593,86,67,0
488.1356,488.27786,89,71,0
488.25415,488.39642,87,68,0
488.3727,488.51498,85,70,0
488.49127,488.60983,84,69,0
488.60983,488.75275,82,68,0
488.7284,488.87384,81,67,0
488.85013,488.9924,84,68,0
488.9687,489.11127,83,64,0
489.08725,489.23138,86,68,0
489.20737,489.35153,84,67,0
489.32748,489.47165,82,65,0
489.44763,489.59177,81,63,0
489.56775,489.71277,79,63,0
489.68787,489.83673,77,61,0
489.81238,489.95847,79,59,0
489.9341,490.0802,78,58,0
490.05585,490.20193,81,59,0
490.17758,490.32324,79,57,0
490.29932,490.44284,77,56,0
490.4189,490.5385,75,54,0
490.5385,490.78308,74,52,0
490.78308,491.03323,72,52,0
491.03323,491.15833,74,54,0
491.28342,491.40848,75,56,0
491.53357,491.67148,76,58,0
491.80936,491.97458,77,61,0
492.13983,492.25635,79,57,0
492.25635,492.3729,77,56,0
492.3729,492.4894,75,54,0
492.4894,492.60596,74,52,0
492.60596,492.84204,72,60,0
492.84204,493.0683,70,54,0
493.07812,493.7864,70,51,0
493.7864,494.01947,74,57,0
494.01947,494.25253,79,60,0
494.25253,494.49384,74,55,0
494.49384,494.96603,77,60,0
494.96603,495.6743,75,56,0
495.6743,495.79083,77,60,0
495.79083,495.90735,79,56,0
495.90735,496.0239,77,61,0
496.0239,496.14044,75,54,0
496.14044,496.25696,74,58,0
496.25696,496.3735,72,53,0
496.3735,496.8468,70,66,0
496.8468,497.53918,69,57,0
497.546,497.77905,69,62,0
497.77905,498.01212,70,65,0
498.01212,498.24756,72,61,0
498.25778,498.7341,72,61,0
498.25778,498.7341,69,52,0
498.7341,499.2104,74,58,0
498.7341,499.2104,70,49,0
499.44855,499.5641,77,64,0
499.5641,499.67963,76,63,0
499.67963,499.79517,79,66,0
499.79517,499.91074,77,63,0
499.91074,500.02628,75,63,0
500.02628,500.13217,74,61,0
500.1418,500.37894,74,68,0
500.37894,500.85315,72,61,0
500.85315,501.0862,70,61,0
501.0862,501.32333,74,67,0
501.32333,501.79758,72,62,0
501.79758,502.03064,69,64,0
502.03064,502.14667,70,68,0
502.14667,502.26273,72,59,0
502.26273,502.37875,70,62,0
502.37875,502.49478,69,58,0
502.49478,502.6108,70,66,0
502.6108,502.72687,72,60,0
502.72687,502.8429,74,63,0
502.8429,502.9586,75,61,0
502.9586,503.07416,76,69,0
503.07416,503.1897,77,65,0
503.1897,503.30508,76,69,0
503.30508,503.42627,77,65,0
503.42627,503.54083,79,69,0
503.54083,503.65543,77,67,0
503.65543,503.77,75,66,0
503.77,503.88156,74,65,0
503.89172,504.12378,74,72,0
504.12378,504.3462,72,54,0
504.35587,504.58795,72,56,0
504.58795,504.82,70,54,0
504.82,505.0521,74,65,0
505.0521,505.27448,72,54,0
505.28415,505.51624,72,57,0
505.51624,505.7483,69,53,0
505.7483,505.98038,70,66,0
505.98038,506.0964,72,57,0
506.0964,506.21243,74,58,0
506.21243,506.3285,75,59,0
506.3285,506.44452,77,60,0
506.44452,506.56055,79,61,0
506.56055,506.67657,81,64,0
506.67657,506.79263,82,66,0
506.79263,506.90866,84,67,0
506.90866,507.02454,86,68,0
507.02454,507.14008,87,69,0
507.14008,507.2556,89,76,0
507.37085,507.4859,89,75,0
507.60095,507.83603,89,76,0
507.83603,508.30618,87,74,0
508.30618,508.54126,86,73,0
508.54126,508.77634,86,75,0
507.60095,508.77634,77,76,0
508.77634,508.89236,84,64,0
508.77634,508.89236,75,64,0
509.0084,509.12466,82,72,0
509.0084,509.12466,74,72,0
509.24197,509.3688,81,64,0
509.24197,509.3688,72,64,0
509.4956,509.73376,74,76,0
509.4956,509.73376,82,76,0
509.973,510.2194,70,72,0
510.99326,511.1231,67,52,0
511.1231,511.24628,65,48,0
511.24628,511.36945,63,52,0
511.36945,511.49265,62,48,0
511.49265,511.72974,60,56,0
511.72974,511.96686,58,53,0
511.96686,512.6782,58,53,0
512.6782,512.79834,70,54,0
512.91846,513.1587,70,54,0
513.1587,513.4071,72,51,0
513.4071,513.6506,70,61,0
513.6506,513.89404,69,53,0
513.89404,514.6143,68,51,0
514.62445,514.8507,68,58,0
514.86053,515.0868,68,65,0
515.0966,515.3327,68,72,0
515.3327,515.4492,80,78,0
515.4492,515.5658,82,71,0
515.5658,515.6823,79,78,0
515.6823,515.7988,80,70,0
515.7988,515.91534,77,79,0
515.91534,516.0319,79,69,0
516.0319,516.14844,75,77,0
516.14844,516.26495,77,70,0
516.26495,516.3815,74,79,0
516.3815,516.49805,75,70,0
516.49805,516.61456,72,75,0
516.61456,516.7311,74,69,0
516.7311,516.8476,70,76,0
516.8476,516.9642,72,70,0
516.9642,517.0807,68,72,0
517.0807,517.21027,70,67,0
517.21027,517.45374,68,72,0
517.45374,517.687,67,67,0
517.6972,518.42755,67,59,0
518.42755,518.5493,79,54,0
518.671,518.9061,79,60,0
518.9061,519.1314,77,54,0
519.1412,519.38354,77,63,0
519.38354,519.61584,76,54,0
519.626,520.3609,76,54,0
520.3609,520.4821,85,59,0
520.6033,520.84564,85,61,0
520.84564,521.0881,76,56,0
521.0881,521.33044,79,61,0
521.33044,521.56274,77,54,0
521.5728,522.3,77,54,0
522.3,522.5371,78,52,0
522.5371,522.77423,79,54,0
522.77423,523.0319,75,52,0
523.0319,523.2765,73,57,0
523.2765,523.51086,74,52,0
523.52106,524.0102,74,52,0
524.25476,524.49084,77,54,0
524.49084,524.6089,79,61,0
524.6089,524.7269,77,57,0
524.7269,524.845,75,61,0
524.845,524.963,74,56,0
524.963,525.67126,72,61,0
525.67126,525.90735,69,52,0
525.90735,525.9664,70,52,0
526.0254,526.1652,77,56,0
526.14197,526.2818,76,56,0
526.2585,526.3983,77,52,0
526.375,526.51483,79,63,0
526.4915,526.63135,77,54,0
526.6081,526.7479,75,59,0
526.7246,526.8653,74,53,0
526.8411,526.9618,72,63,0
527.08246,527.5567,72,63,0
527.5567,527.7938,69,54,0
527.7938,527.8531,70,54,0
527.91235,528.0522,77,51,0
528.0289,528.1687,76,56,0
528.14545,528.2853,77,53,0
528.26196,528.4018,79,62,0
528.3785,528.5183,77,53,0
528.495,528.6348,75,57,0
528.6116,528.7184,74,54,0
528.7281,528.9652,74,63,0
528.9652,529.20233,72,60,0
529.43945,529.6725,72,59,0
529.6725,529.9096,72,63,0
529.9096,530.1467,70,59,0
530.38385,530.6149,70,52,0
530.6149,530.73047,69,64,0
530.73047,530.846,70,58,0
530.846,530.96155,69,62,0
530.96155,531.0771,65,58,0
531.0771,531.1926,70,69,0
531.1926,531.3082,72,62,0
531.3082,531.42377,70,67,0
531.42377,531.5393,65,59,0
531.5393,531.65485,72,70,0
531.65485,531.7704,74,64,0
531.7704,531.8859,72,69,0
531.8859,532.00146,65,63,0
532.00146,532.117,74,77,0
532.117,532.23254,75,67,0
532.23254,532.3481,74,72,0
532.3481,532.4636,65,67,0
532.4636,532.58167,75,78,0
532.6997,532.81775,75,78,0
533.17194,533.28894,72,73,0
533.406,533.64,75,79,0
533.64,533.7571,74,72,0
533.8741,533.99115,72,74,0
534.10815,534.2252,70,71,0
534.3422,534.45776,69,67,0
534.45776,534.5733,65,59,0
534.5733,534.68884,76,61,0
534.68884,534.8044,77,59,0
534.8044,534.92,70,70,0
534.92,535.0355,65,59,0
535.0355,535.15106,76,66,0
535.15106,535.2666,77,61,0
535.2666,535.38214,72,74,0
535.38214,535.4977,65,64,0
535.4977,535.6132,76,69,0
535.6132,535.72876,77,62,0
535.72876,535.8443,74,79,0
535.8443,535.95984,65,69,0
535.95984,536.0754,76,73,0
536.0754,536.1909,77,69,0
536.1909,536.3095,75,79,0
536.42804,536.54663,75,79,0
536.9023,536.96155,72,57,0
536.9586,537.0179,74,52,0
537.0209,537.08014,72,57,0
537.08014,537.1394,74,52,0
537.1394,537.3765,75,72,0
537.3765,537.4951,74,71,0
537.61365,537.7322,72,71,0
537.85077,537.9693,70,68,0
538.0879,538.2039,69,78,0
538.2039,538.31995,77,69,0
538.31995,538.436,72,73,0
538.436,538.552,69,70,0
538.552,538.6681,65,77,0
538.6681,538.78577,60,69,0
538.78577,538.9052,57,70,0
538.9052,539.0265,53,67,0
540.0047,540.7039,65,72,0
540.0047,540.7039,53,72,0
540.0047,540.7039,58,72,0
540.0047,540.7039,62,72,0
540.7039,540.82043,67,48,0
540.82043,540.93695,65,45,0
540.93695,541.0535,63,52,0
541.17004,541.28656,62,48,0
541.4031,541.51965,60,52,0
541.63617,541.7527,58,48,0
541.8692,542.1136,58,54,0
542.1136,542.3555,67,49,0
542.366,543.0787,67,72,0
542.366,543.0787,58,72,0
543.0787,543.31177,65,53,0
543.31177,543.5448,69,53,0
543.5448,543.7682,70,52,0
543.7779,544.007,70,61,0
544.007,544.47314,60,53,0
544.47314,544.70624,62,53,0
544.70624,544.93536,70,61,0
544.93536,545.4015,60,51,0
545.4015,545.6345,62,53,0
545.6345,546.1068,65,58,0
546.1068,546.1656,63,52,0
546.1656,546.22437,65,47,0
546.22437,546.28314,63,52,0
546.28314,546.34186,65,49,0
546.34186,546.38104,63,52,0
546.38104,546.4202,65,49,0
546.4202,546.4594,63,49,0
546.4594,546.5182,62,52,0
546.5182,546.57697,63,48,0
546.57697,546.6945,62,57,0
546.812,547.0451,62,51,0
547.0451,547.27814,63,53,0
547.27814,547.5112,65,51,0
547.5112,547.74835,66,65,0
547.74835,548.2145,67,54,0
548.2145,548.3295,65,53,0
548.3295,548.4446,63,50,0
548.4446,548.6777,62,54,0
548.6777,548.9107,60,51,0
548.9107,549.1438,62,52,0
549.1438,549.37683,63,51,0
549.37683,549.615,67,63,0
549.615,550.0811,65,53,0
550.0811,550.19666,63,54,0
550.19666,550.3122,62,49,0
550.3122,550.5453,60,56,0
550.5453,550.7783,58,52,0
550.7783,551.0114,60,54,0
551.0114,551.24445,62,50,0
551.24445,551.4826,65,63,0
551.4826,551.9487,63,51,0
551.9487,552.1818,60,51,0
552.1818,552.42,63,62,0
552.42,552.8841,62,52,0
552.8841,553.11615,58,52,0
553.11615,553.2566,57,48,0
553.2332,553.37366,58,49,0
553.3502,553.49066,59,50,0
553.4673,553.6075,60,51,0
553.5843,553.7236,61,52,0
553.7003,553.8396,62,53,0
553.81635,553.9556,63,54,0
553.93243,554.07166,64,54,0
554.04846,554.5126,65,56,0
554.9859,555.6851,77,73,0
554.9859,555.6851,65,73,0
554.9859,555.6851,70,73,0
554.9859,555.6851,74,73,0
555.6851,555.80164,79,51,0
555.80164,555.91815,77,49,0
555.91815,556.03467,75,57,0
556.15125,556.26776,74,50,0
556.3843,556.5008,72,50,0
556.6174,556.7395,70,47,0
556.8617,557.0988,70,53,0
557.0988,557.33636,79,50,0
557.3467,558.05804,79,71,0
557.3467,558.05804,70,64,0
558.05804,558.29114,77,53,0
558.29114,558.5242,81,66,0
558.5242,558.9825,82,63,0
558.9825,559.2155,72,53,0
559.2155,559.4486,74,53,0
559.4486,559.9069,82,68,0
559.9069,560.13995,72,53,0
560.13995,560.37305,74,53,0
560.37305,560.48956,82,67,0
560.6061,561.0803,77,54,0
561.0803,561.31744,76,53,0
561.31744,561.55457,75,53,0
561.55457,561.6731,74,48,0
561.7917,562.02374,74,54,0
562.02374,562.2558,75,60,0
562.2558,562.4879,77,64,0
562.4879,563.1841,79,70,0
563.1841,563.3002,81,70,0
563.3002,563.4152,83,67,0
563.4152,563.5303,84,70,0
563.5303,563.6453,86,67,0
563.6453,563.7604,87,70,0
563.7604,563.8754,86,66,0
563.8754,563.9905,84,70,0
563.9905,564.1055,86,67,0
564.1055,564.2206,82,70,0
564.2206,564.33563,84,67,0
564.33563,564.45026,81,69,0
564.45026,564.5648,82,66,0
564.5648,564.6799,79,69,0
564.6799,564.7949,81,64,0
564.7949,564.91046,77,71,0
564.91046,565.026,79,67,0
565.026,565.142,75,71,0
565.142,565.25806,77,67,0
565.25806,565.37415,74,68,0
565.37415,565.4902,75,64,0
565.4902,565.606,77,68,0
565.606,565.72156,79,65,0
565.72156,565.8371,81,70,0
565.8371,565.95233,82,66,0
565.95233,566.0674,81,69,0
566.0674,566.18646,82,65,0
566.18646,566.29944,84,72,0
566.29944,566.4124,82,70,0
566.4124,566.5254,81,69,0
566.5254,566.64343,79,67,0
566.64343,566.7585,81,72,0
566.7585,566.8706,79,70,0
566.8706,566.9827,77,69,0
566.9827,567.09485,75,67,0
567.09485,567.565,74,71,0
567.565,567.62506,72,58,0
567.62506,567.6851,74,54,0
567.6851,567.7452,72,58,0
567.7452,567.80524,74,53,0
567.80524,567.8453,72,58,0
567.8453,567.8853,74,54,0
567.8853,567.92535,72,54,0
567.92535,567.9854,70,66,0
567.9854,568.0455,72,62,0
567.565,568.0455,69,58,0
568.0455,568.526,70,75,0
569.96747,570.2046,75,85,0
570.2046,570.3232,72,56,0
570.4417,570.5603,69,62,0
570.67883,570.7974,69,56,0
570.91595,571.1531,75,85,0
571.1531,571.2716,72,54,0
571.3902,571.5087,69,60,0
571.6273,571.74585,69,54,0
571.86444,571.98096,70,62,0
572.0975,572.21405,72,63,0
572.33057,572.4471,74,64,0
572.5636,572.6802,75,66,0
572.80133,573.03644,76,88,0
573.03644,573.2715,77,75,0
573.2715,573.5066,76,87,0
573.5066,573.74164,77,75,0
573.74164,573.9693,75,82,0
573.74164,573.9693,87,97,0
573.9693,574.0867,72,48,0
573.9693,574.0867,84,57,0
574.20404,574.3215,69,52,0
574.20404,574.3215,81,62,0
574.43884,574.5562,69,47,0
574.43884,574.5562,81,56,0
574.67365,574.9084,75,82,0
574.67365,574.9084,87,97,0
574.9084,575.0258,72,45,0
574.9084,575.0258,84,54,0
575.1432,575.26056,69,51,0
575.1432,575.26056,81,60,0
575.3779,575.49536,69,45,0
575.3779,575.49536,81,54,0
575.61273,575.72485,70,52,0
575.61273,575.72485,82,62,0
575.837,575.9491,72,53,0
575.837,575.9491,84,63,0
576.0647,576.1803,74,54,0
576.0647,576.1803,86,64,0
576.29584,576.41144,75,56,0
576.29584,576.41144,87,66,0
576.5321,576.7682,76,76,0
576.5321,576.7682,88,90,0
576.7682,577.0043,77,63,0
576.7682,577.0043,89,75,0
577.0043,577.24036,76,77,0
577.0043,577.24036,88,91,0
577.24036,577.5019,77,63,0
577.24036,577.5019,89,75,0
577.5019,578.4463,79,66,0
577.5019,578.4463,67,56,0
578.4463,579.3906,69,54,0
578.4463,579.3906,57,45,0
579.3906,580.335,87,77,0
579.3906,580.335,75,65,0
580.335,581.27936,86,68,0
580.335,581.27936,74,57,0
581.27936,581.41864,86,75,0
581.3954,581.53467,84,68,0
581.5114,581.6507,87,72,0
581.6275,581.7667,86,67,0
581.7435,581.88275,89,75,0
581.85956,581.9988,87,71,0
581.9756,582.1148,86,72,0
582.0916,582.2319,84,68,0
582.20764,582.69244,82,75,0
582.69244,583.19507,81,63,0
583.43427,583.6673,82,47,0
583.6673,583.9004,81,50,0
583.9004,584.1335,82,47,0
584.37054,584.60364,80,46,0
584.60364,584.8367,79,51,0
584.8367,585.06976,80,46,0
585.3079,585.54095,79,44,0
585.54095,585.77405,78,48,0
585.77405,586.0071,79,45,0
586.2442,586.4845,79,44,0
586.4845,586.72473,91,51,0
586.72473,586.84485,91,48,0
587.2021,587.4352,91,50,0
587.4352,587.6682,77,44,0
587.6682,587.7847,77,44,0
588.1405,588.3766,77,46,0
588.3766,588.6127,86,51,0
588.6127,588.7307,86,48,0
589.08795,589.322,86,49,0
589.322,589.5561,75,45,0
589.5561,589.6731,75,45,0
590.0283,590.2604,75,44,0
590.2604,590.49243,84,50,0
590.49243,590.60846,84,47,0
590.96265,591.19574,84,48,0
591.19574,591.4288,74,44,0
591.4288,591.54535,74,44,0
591.9,592.1424,74,44,0
592.1424,592.38477,82,49,0
592.38477,592.506,82,46,0
592.62714,592.8717,82,54,0
592.8717,592.994,72,44,0
593.6054,593.8467,82,63,0
593.8467,593.96735,74,52,0
594.5706,594.8098,82,69,0
594.8098,594.92944,75,54,0
595.5274,595.76556,82,81,0
595.76556,595.88464,76,67,0
596.48004,596.71716,82,89,0
596.71716,596.8357,77,83,0
596.9543,597.18933,82,89,0
597.18933,597.3069,78,83,0
597.42444,597.6555,82,89,0
597.6555,597.8866,79,85,0
597.8866,598.11383,87,89,0
598.11383,598.34106,81,85,0
598.34106,598.38654,86,82,0
598.38654,598.43195,87,81,0
598.43195,598.4774,86,85,0
598.4774,598.5229,87,78,0
598.5229,598.5683,86,78,0
598.5683,598.79944,89,94,0
598.79944,598.8449,82,81,0
598.8449,598.8904,84,76,0
598.8904,598.9358,82,81,0
598.9358,598.98126,84,75,0
598.98126,599.02673,82,75,0
599.02673,599.2573,86,92,0
599.2573,599.3028,79,75,0
599.3028,599.34827,81,69,0
599.34827,599.3937,79,75,0
599.3937,599.43915,81,71,0
599.44293,599.4846,79,71,0
599.4846,599.71625,82,88,0
599.71625,599.7617,72,71,0
599.7617,599.8071,74,66,0
599.8071,599.8526,72,71,0
599.8526,599.8981,74,67,0
599.8981,599.9435,72,67,0
599.9435,600.1707,75,79,0
600.1707,600.2308,65,74,0
600.29083,600.4307,77,76,0
600.4074,600.54724,79,78,0
600.5239,600.66376,77,76,0
600.64044,600.7803,75,76,0
600.75696,600.89685,74,71,0
600.87354,601.01337,72,72,0
600.99005,601.1304,70,70,0
601.10657,601.1667,72,54,0
601.1667,601.22815,74,50,0
601.22815,601.2889,72,54,0
601.2889,601.3492,74,49,0
601.3492,601.4088,72,54,0
601.4088,601.4678,74,49,0
601.4678,601.52484,72,54,0
601.52484,601.5813,74,49,0
601.5813,601.63794,72,54,0
601.63794,601.6953,74,49,0
601.6953,601.7538,72,54,0
601.7538,601.8112,74,51,0
601.8112,601.8488,72,54,0
601.8488,601.8867,74,50,0
601.8867,601.9253,72,50,0
601.9253,601.98303,70,66,0
601.98303,602.041,72,62,0
602.041,602.1575,70,70,0
602.274,602.3905,58,47,0
602.3905,602.507,62,45,0
602.507,602.62354,60,47,0
602.62354,602.7401,63,45,0
602.7401,602.8566,62,47,0
602.8566,602.97314,65,45,0
602.97314,603.09326,63,48,0
603.2134,603.32996,58,52,0
603.32996,603.4465,62,48,0
603.4465,603.563,60,52,0
603.563,603.6795,63,48,0
603.6795,603.7961,62,52,0
603.7961,603.9126,65,48,0
603.9126,604.0311,63,52,0
604.1497,604.26624,58,52,0
604.26624,604.38275,62,55,0
604.38275,604.4993,60,57,0
604.4993,604.61584,63,58,0
604.61584,604.73236,62,59,0
604.73236,604.8489,65,62,0
604.8489,604.96545,63,63,0
604.96545,605.082,67,66,0
605.082,605.1985,65,67,0
605.1985,605.315,68,69,0
605.315,605.4316,67,70,0
605.4316,605.5481,70,71,0
605.5481,605.6666,69,73,0
605.6666,605.7852,72,75,0
605.7852,605.90173,70,77,0
605.90173,606.01825,72,79,0
606.01825,606.1348,74,82,0
606.1348,606.25134,72,82,0
606.25134,606.36786,70,80,0
606.36786,606.4844,68,79,0
606.4844,606.60297,67,78,0
606.60297,606.7215,66,77,0
606.7215,606.8381,67,78,0
606.8381,606.9546,72,79,0
606.9546,607.0711,75,80,0
607.0711,607.1876,74,79,0
607.1876,607.3042,72,79,0
607.3042,607.4207,70,78,0
607.4207,607.53723,69,75,0
607.53723,607.65375,67,74,0
607.65375,607.7718,65,75,0
607.7718,607.8899,70,79,0
607.8899,608.00793,74,82,0
608.00793,608.126,77,88,0
608.126,608.24713,82,94,0
608.36835,608.4864,74,64,0
608.36835,608.4864,70,64,0
608.60443,608.8468,77,70,0
608.60443,608.8468,74,70,0
608.8468,608.968,75,66,0
608.8468,608.968,72,66,0
609.0892,609.2143,74,67,0
609.0892,609.2143,70,67,0
609.33936,609.4645,72,67,0
609.33936,609.4645,69,67,0
609.58954,609.7146,70,67,0
609.8397,609.95624,70,47,0
609.95624,610.07275,74,45,0
610.07275,610.1893,72,47,0
610.1893,610.30585,75,45,0
610.30585,610.42236,74,47,0
610.42236,610.5389,77,45,0
610.5389,610.659,75,48,0
610.7791,610.8957,82,62,0
610.8957,611.0122,86,58,0
611.0122,611.1287,84,62,0
611.1287,611.2453,87,59,0
611.2453,611.3618,86,62,0
611.3618,611.47833,89,58,0
611.47833,611.59686,87,68,0
611.71545,611.832,70,55,0
611.832,611.9485,74,56,0
611.9485,612.06506,72,58,0
612.06506,612.1816,75,59,0
612.1816,612.2981,74,61,0
612.2981,612.4147,77,63,0
612.4147,612.5312,75,64,0
612.5312,612.6477,70,67,0
612.6477,612.7642,77,68,0
612.7642,612.8808,70,69,0
612.8808,612.9974,79,70,0
612.9974,613.11456,70,72,0
613.11456,613.2325,81,74,0
613.2325,613.3533,70,75,0
613.3533,613.46985,82,78,0
613.46985,613.58636,84,78,0
613.58636,613.7029,86,77,0
613.7029,613.81946,84,75,0
613.81946,613.936,82,74,0
613.936,614.0525,80,73,0
614.0525,614.169,79,72,0
614.169,614.2919,78,71,0
614.2919,614.4084,79,79,0
614.4084,614.5249,77,79,0
614.5249,614.6415,75,78,0
614.6415,614.758,74,77,0
614.758,614.8745,72,75,0
614.8745,614.991,70,74,0
614.991,615.1076,69,73,0
615.1076,615.2241,67,73,0
615.2241,615.45715,65,82,0
615.45715,615.5752,89,82,0
615.69324,615.81134,89,82,0
615.9294,616.0474,89,82,0
616.16547,616.282,89,81,0
616.282,616.3985,86,76,0
616.3985,616.515,82,71,0
616.515,616.6315,77,69,0
616.6315,616.747,82,81,0
616.747,616.8626,77,75,0
616.8626,616.97815,74,71,0
616.97815,617.09393,70,69,0
617.09393,617.16864,72,51,0
617.16864,617.2423,74,46,0
617.2423,617.3156,72,51,0
617.3156,617.3881,74,46,0
617.3881,617.4602,72,51,0
617.4602,617.53284,74,46,0
617.53284,617.6045,72,51,0
617.6045,617.6762,74,46,0
617.6762,617.7477,72,51,0
617.7477,617.8202,74,46,0
617.8202,617.8927,72,51,0
617.8927,617.9675,74,46,0
617.9675,618.0436,72,51,0
618.0436,618.1206,74,46,0
618.1206,618.1983,72,51,0
618.1983,618.2763,74,48,0
618.2763,618.3545,72,51,0
618.3545,618.43286,74,47,0
618.43286,618.4919,72,51,0
618.4919,618.5509,74,48,0
618.5509,618.61017,72,51,0
618.61017,618.6695,74,47,0
618.6695,618.70917,72,51,0
618.70917,618.74884,74,48,0
618.74884,618.7886,72,48,0
618.7886,618.8483,70,62,0
618.8483,618.90814,72,58,0
618.90814,619.1444,70,69,0
619.1484,619.3887,82,54,0
619.6289,619.8628,82,58,0
619.8628,620.0997,81,56,0
620.0997,620.33966,82,61,0
620.33966,620.5828,84,68,0
620.5828,620.82935,86,72,0
620.82935,620.94586,87,79,0
620.94586,621.0624,86,73,0
621.0624,621.17896,87,76,0
621.17896,621.2955,86,70,0
621.2955,621.412,87,75,0
621.412,621.52856,85,67,0
621.52856,621.6451,84,69,0
621.6451,621.76465,82,65,0
621.76465,621.8812,81,67,0
621.8812,621.9982,82,70,0
621.9982,622.1158,84,72,0
622.1158,622.2338,82,67,0
622.2338,622.35236,81,69,0
622.35236,622.47144,79,66,0
622.47144,622.59106,77,66,0
622.59106,622.7112,75,65,0
622.7112,622.83185,74,63,0
622.95245,623.0731,74,49,0
623.4351,623.6764,70,53,0
623.6764,623.919,69,49,0
623.919,624.1653,70,49,0
624.1653,624.41565,72,49,0
624.41565,624.67004,74,49,0
624.67004,624.79865,75,52,0
624.92725,624.9916,77,52,0
624.9916,625.0559,75,49,0
625.0559,625.1202,74,52,0
625.1202,625.1845,75,48,0
625.1845,625.4418,77,54,0
625.4418,625.7112,79,61,0
625.72284,625.99286,79,49,0
625.72284,625.99286,75,49,0
625.99286,626.2628,77,42,0
625.99286,626.2628,74,42,0
626.525,626.8054,69,30,0
626.525,626.8054,63,30,0
626.8054,628.3391,72,45,0
626.8054,628.3391,63,45,0
628.3391,629.3352,70,32,0
628.3391,629.3352,62,32,0
2.1006024,2.336693,58,37,0
2.336693,2.5727835,62,37,0
2.5727835,2.808874,65,33,0
2.808874,3.0449646,62,36,0
3.0449646,3.2780285,58,33,0
3.2780285,3.5110924,62,41,0
3.5110924,3.752405,67,38,0
3.9884956,4.224586,60,34,0
4.224586,4.4606767,63,39,0
4.4606767,4.696767,67,36,0
4.696767,4.9328575,63,44,0
4.9328575,5.1659217,60,37,0
5.1659217,5.3989854,63,38,0
5.3989854,5.6320496,67,34,0
5.8651137,6.1053634,53,35,0
6.1053634,6.3384275,60,35,0
6.3384275,6.5714917,63,34,0
6.5714917,6.8045554,60,47,0
6.8045554,7.0376196,53,36,0
7.0376196,7.2706833,60,43,0
7.2706833,7.5163436,63,36,0
7.7544956,7.9926476,58,42,0
7.9926476,8.2308,62,42,0
8.2308,8.468951,65,36,0
8.468951,8.707104,62,45,0
8.707104,8.938192,58,42,0
8.938192,9.169282,62,42,0
9.169282,9.400371,65,39,0
9.400371,9.637487,63,45,0
9.637487,9.874603,67,37,0
9.874603,10.11172,62,40,0
10.11172,10.344784,65,35,0
10.344784,10.581901,63,45,0
10.581901,10.819017,67,35,0
10.819017,11.056133,60,38,0
11.056133,11.289198,63,32,0
11.289198,11.753343,65,42,0
11.289198,11.753343,62,42,0
13.150278,13.382351,63,47,0
13.382351,13.614423,67,36,0
13.614423,13.846496,62,40,0
13.846496,14.078568,65,33,0
14.078568,14.31064,63,47,0
14.31064,14.542713,67,37,0
14.542713,14.774785,60,39,0
14.774785,15.006858,63,32,0
15.006858,15.471003,62,47,0
15.006858,15.471003,65,47,0
16.859516,17.329662,57,61,0
17.329662,17.799809,58,55,0
17.799809,18.266954,51,63,0
18.266954,18.754179,53,57,0
18.99233,19.111235,46,52,0
19.231539,19.35373,50,55,0
19.47796,19.604107,53,50,0
19.732431,20.251822,58,61,0
20.955067,21.192183,46,34,0
21.192183,21.429298,50,37,0
21.429298,21.666416,53,35,0
21.666416,21.903532,50,43,0
21.903532,22.143782,46,39,0
22.143782,22.384031,50,39,0
22.384031,22.636515,55,35,0
22.876764,23.117014,48,36,0
23.117014,23.357265,55,39,0
23.357265,23.597515,58,35,0
23.597515,23.830578,55,42,0
23.830578,24.063643,48,34,0
24.063643,24.296707,55,38,0
24.296707,24.52977,58,34,0
24.761843,24.992931,52,39,0
24.992931,25.223047,55,43,0
25.223047,25.452194,60,46,0
25.452194,25.680542,55,49,0
25.680542,25.910013,52,47,0
25.910013,26.140696,55,50,0
26.140696,26.372522,60,54,0
26.615507,26.855757,53,42,0
26.855757,27.096006,57,41,0
27.096006,27.336256,60,34,0
27.336256,27.576506,57,37,0
27.576506,27.816757,53,34,0
27.816757,28.04982,57,36,0
28.04982,28.282885,60,32,0
28.282885,28.518974,58,47,0
28.518974,28.755066,60,32,0
28.755066,28.991156,58,37,0
28.991156,29.227245,60,31,0
29.227245,29.461329,57,50,0
29.461329,29.6934,60,41,0
29.6934,29.925472,57,44,0
29.925472,30.157545,60,41,0
30.157545,30.397795,58,49,0
30.397795,30.634912,60,36,0
30.634912,30.872028,58,42,0
30.872028,31.109144,60,36,0
31.109144,31.343739,57,53,0
31.343739,31.575811,60,45,0
31.575811,31.807884,57,46,0
31.807884,32.039955,60,44,0
32.039955,32.277073,58,51,0
32.277073,32.51419,62,46,0
32.51419,32.751305,58,51,0
32.751305,32.988422,62,46,0
32.988422,33.22554,59,50,0
33.22554,33.462654,62,46,0
33.462654,33.69977,59,52,0
33.69977,33.930862,62,48,0
33.930862,34.39304,60,59,0
34.39304,34.855217,62,61,0
34.855217,35.317394,64,63,0
35.317394,35.77957,65,65,0
35.77957,36.015663,67,65,0
36.015663,36.251755,72,53,0
36.251755,36.487846,64,60,0
36.487846,36.72191,72,53,0
36.72191,36.955975,65,59,0
36.955975,37.190037,72,50,0
37.190037,37.4241,62,56,0
37.4241,37.658165,72,52,0
37.658165,38.120342,60,60,0
38.120342,38.58252,62,62,0
38.58252,39.0447,64,65,0
39.0447,39.506878,65,68,0
39.506878,39.625435,67,66,0
39.625435,39.74399,72,44,0
39.74399,39.862553,71,47,0
39.862553,39.98111,72,44,0
39.98111,40.099667,64,57,0
40.099667,40.218227,72,45,0
40.218227,40.336784,71,48,0
40.336784,40.45534,72,44,0
40.45534,40.573902,65,57,0
40.573902,40.69246,72,44,0
40.69246,40.811016,71,46,0
40.811016,40.929577,72,44,0
40.929577,41.048134,62,56,0
41.048134,41.16669,71,45,0
41.16669,41.28525,69,45,0
41.28525,41.40381,71,43,0
41.40381,41.85733,60,56,0
41.40381,41.85733,72,56,0
42.32596,42.567272,36,73,0
42.32596,42.567272,48,73,0
43.29121,44.223465,53,66,0
43.29121,44.223465,41,66,0
45.64532,46.591015,46,68,0
45.64532,46.591015,58,68,0
46.591015,47.05714,57,44,0
47.05714,47.519352,62,38,0
47.05714,47.519352,59,38,0
47.519352,47.98548,60,38,0
47.98548,48.447693,59,38,0
47.98548,48.447693,62,38,0
48.447693,48.913822,60,40,0
48.913822,49.38608,62,39,0
49.38608,49.856228,64,35,0
49.856228,50.324364,65,35,0
51.02761,51.260674,46,45,0
51.260674,51.493736,50,46,0
51.493736,51.72385,55,45,0
51.72385,52.18998,58,52,0
52.89426,53.127323,45,44,0
53.127323,53.360386,48,44,0
53.360386,53.591476,53,42,0
53.591476,54.057606,57,52,0
54.52373,54.99495,55,44,0
54.99495,55.461075,52,41,0
55.461075,55.9313,53,43,0
55.9313,56.395447,50,42,0
56.395447,56.863575,48,44,0
57.32772,57.443756,48,53,0
57.443756,57.55979,50,49,0
57.55979,57.675827,46,54,0
57.675827,57.791862,48,49,0
57.791862,57.9079,45,54,0
57.9079,58.02544,46,49,0
58.02544,58.144516,43,56,0
58.144516,58.265175,45,49,0
58.265175,58.731304,41,66,0
58.731304,59.19743,53,46,0
60.614697,61.55911,58,59,0
60.614697,61.55911,46,59,0
61.55911,62.02132,57,43,0
62.02132,62.483532,62,43,0
62.02132,62.483532,59,43,0
62.483532,62.945744,60,43,0
62.945744,63.407955,59,43,0
62.945744,63.407955,62,43,0
63.407955,63.874084,60,43,0
63.874084,64.34832,62,43,0
63.874084,64.34832,65,43,0
64.34832,64.82255,64,43,0
64.34832,64.82255,67,43,0
64.82255,65.29174,65,46,0
65.98795,66.22003,50,54,0
66.22003,66.33607,62,61,0
66.4521,66.56814,60,53,0
66.6832,66.798256,58,60,0
66.91331,67.143425,46,53,0
67.143425,67.258484,58,61,0
67.373535,67.488594,57,53,0
67.60365,67.8328,55,57,0
67.8328,68.06291,53,53,0
68.06291,68.29401,52,53,0
68.29401,68.52608,48,53,0
68.52608,68.98956,53,60,0
68.98956,69.45446,45,56,0
69.45446,69.91623,46,59,0
69.91623,70.37646,58,53,0
70.37646,70.8466,60,54,0
70.8466,71.3271,48,53,0
71.3271,71.44723,53,53,0
71.44723,71.56735,60,46,0
71.56735,71.68748,59,49,0
71.68748,71.8076,60,46,0
71.8076,71.92773,62,53,0
71.92773,72.04785,60,46,0
72.04785,72.16798,59,49,0
72.16798,72.2881,60,46,0
72.2881,72.408226,58,53,0
72.408226,72.52835,60,50,0
72.52835,72.64848,57,53,0
72.64848,72.76861,60,49,0
72.76861,72.88873,55,53,0
72.88873,73.00886,60,50,0
73.00886,73.12898,53,53,0
73.12898,73.24911,60,50,0
73.24911,73.36766,52,48,0
73.36766,73.48622,60,42,0
73.48622,73.60478,55,42,0
73.60478,73.723335,60,40,0
73.723335,73.841896,58,48,0
73.841896,73.96046,60,42,0
73.96046,74.07901,58,42,0
74.07901,74.19757,60,41,0
74.19757,74.31613,52,47,0
74.31613,74.434685,60,43,0
74.434685,74.553246,55,43,0
74.553246,74.67181,60,42,0
74.67181,74.79036,58,48,0
74.79036,74.90892,60,42,0
74.90892,75.02748,58,42,0
75.02748,75.146034,60,42,0
75.146034,75.262566,57,44,0
75.262566,75.3791,60,45,0
75.3791,75.495636,52,45,0
75.495636,75.61217,60,45,0
75.61217,75.7287,53,46,0
75.7287,75.84523,60,47,0
75.84523,75.96176,55,48,0
75.96176,76.082954,60,49,0
76.082954,76.20049,56,53,0
76.20049,76.31802,60,48,0
76.31802,76.43556,57,53,0
76.43556,76.5531,60,46,0
76.5531,76.67064,56,53,0
76.67064,76.78817,60,46,0
76.78817,76.90571,57,53,0
76.90571,77.02325,60,47,0
77.02325,77.1418,52,48,0
77.1418,77.26036,60,38,0
77.26036,77.37892,55,42,0
77.37892,77.497475,60,39,0
77.497475,77.616035,58,48,0
77.616035,77.7346,60,39,0
77.7346,77.85315,58,42,0
77.85315,77.97171,60,40,0
77.97171,78.09027,52,47,0
78.09027,78.208824,60,41,0
78.208824,78.327385,55,43,0
78.327385,78.445946,60,40,0
78.445946,78.5645,58,48,0
78.5645,78.68306,60,38,0
78.68306,78.80162,58,42,0
78.80162,78.92017,60,40,0
78.92017,79.03671,57,44,0
79.03671,79.153244,60,43,0
79.153244,79.269775,52,45,0
79.269775,79.38631,60,45,0
79.38631,79.50284,53,46,0
79.50284,79.61937,60,45,0
79.61937,79.7359,55,48,0
79.7359,79.85656,60,47,0
79.85656,79.9746,56,53,0
79.9746,80.09265,60,48,0
80.09265,80.21069,57,53,0
80.21069,80.328735,60,46,0
80.328735,80.446785,56,53,0
80.446785,80.56483,60,46,0
80.56483,80.68288,57,53,0
80.68288,80.826385,60,47,0
81.06248,81.29857,58,36,0
81.29857,81.53466,57,38,0
81.53466,81.77075,58,36,0
82.00684,82.24293,60,34,0
82.24293,82.47902,59,38,0
82.47902,82.71511,60,33,0
82.9512,83.187294,61,34,0
83.187294,83.423386,59,36,0
83.423386,83.65947,61,34,0
83.89556,84.13165,62,38,0
84.13165,84.367744,61,40,0
84.367744,84.603836,62,38,0
85.06798,85.53213,67,54,0
85.06798,85.53213,58,54,0
85.53213,86.0169,69,54,0
86.0169,86.51953,70,45,0
85.53213,86.51953,60,54,0
86.51953,87.457924,65,34,0
86.51953,87.457924,69,40,0
87.457924,88.39423,65,30,0
87.457924,88.39423,69,36,0
88.39423,89.358505,60,36,0
88.39423,89.358505,57,30,0
88.39423,89.358505,54,30,0
89.358505,90.30308,58,36,0
89.358505,90.30308,55,30,0
90.30308,91.25155,55,29,0
90.30308,91.25155,58,35,0
90.30308,91.25155,52,29,0
91.25155,92.19388,53,29,0
91.25155,92.19388,57,35,0
92.664024,93.13016,47,32,0
92.664024,93.13016,55,32,0
93.13016,93.60855,57,36,0
93.60855,94.11823,58,35,0
93.13016,94.11823,48,36,0
94.11823,94.24565,53,43,0
94.11823,94.24565,57,43,0
94.60614,94.8392,64,35,0
94.8392,95.072266,63,35,0
95.072266,95.19239,53,43,0
95.072266,95.19239,62,43,0
95.54558,95.77864,64,35,0
95.77864,96.01171,63,35,0
96.01171,96.130264,53,42,0
96.01171,96.130264,62,42,0
96.48189,96.71495,64,43,0
96.71495,96.94801,63,43,0
96.94801,97.18108,62,47,0
97.18108,97.41415,57,44,0
97.41415,97.64721,58,46,0
97.64721,97.88432,55,44,0
97.88432,98.35046,57,52,0
98.82063,99.28676,58,49,0
99.75289,99.98898,48,48,0
99.98898,100.22507,53,44,0
100.22507,100.34626,57,44,0
100.46745,100.703545,53,41,0
100.703545,100.94593,48,49,0
100.94593,101.06712,55,43,0
101.18832,101.3134,58,45,0
101.438484,101.56357,55,43,0
101.68865,101.813736,53,51,0
101.68865,101.813736,57,51,0
101.93882,102.17188,65,35,0
102.17188,102.404945,64,35,0
102.404945,102.63801,63,32,0
102.63801,102.75813,62,43,0
102.63801,102.75813,53,43,0
102.87826,103.11132,65,32,0
103.11132,103.34439,64,35,0
103.34439,103.57745,63,33,0
103.57745,103.69601,62,42,0
103.57745,103.69601,53,42,0
103.81457,104.04763,65,35,0
104.04763,104.28069,64,43,0
104.28069,104.51376,63,43,0
104.51376,104.746826,62,47,0
104.746826,104.97989,57,44,0
104.97989,105.21371,58,46,0
105.21371,105.452415,55,44,0
105.452415,105.91855,45,62,0
105.452415,105.91855,57,62,0
106.390976,106.8571,58,63,0
106.390976,106.8571,46,63,0
107.32323,107.43976,48,48,0
107.43976,107.55629,57,40,0
107.55629,107.67434,53,44,0
107.67434,107.79238,57,41,0
107.79238,107.91043,48,48,0
107.91043,108.02847,57,40,0
108.02847,108.14652,53,44,0
108.14652,108.264565,57,40,0
108.264565,108.381096,48,48,0
108.381096,108.49763,57,42,0
108.49763,108.61416,53,46,0
108.61416,108.73069,57,42,0
108.73069,108.84722,48,48,0
108.84722,108.96375,57,43,0
108.96375,109.08029,53,46,0
109.08029,109.19682,57,43,0
109.19682,109.31307,48,48,0
109.31307,109.423676,58,40,0
109.423676,109.53031,52,43,0
109.53031,109.63724,58,40,0
109.63724,109.743935,48,48,0
109.743935,109.85066,58,42,0
109.85066,109.95804,52,43,0
109.95804,110.06605,58,42,0
110.06605,110.175545,48,48,0
110.175545,110.28652,58,41,0
110.28652,110.39748,52,43,0
110.39748,110.50919,58,41,0
110.50919,110.62418,48,48,0
110.62418,110.73975,58,42,0
110.73975,110.856255,52,45,0
110.856255,110.97585,58,42,0
110.97585,111.2161,53,51,0
111.2161,111.45635,65,44,0
111.45635,111.6966,64,44,0
111.6966,111.930504,65,44,0
111.930504,112.167366,67,45,0
112.167366,112.40736,65,48,0
112.40736,112.65055,64,51,0
112.65055,112.89705,63,54,0
112.89705,113.13011,62,59,0
113.13011,113.36318,53,45,0
113.36318,113.596245,61,53,0
113.596245,113.832375,53,45,0
113.832375,114.06594,60,52,0
114.06594,114.30152,53,44,0
114.30152,114.539154,64,50,0
114.539154,114.77888,53,44,0
114.77888,114.899536,65,53,0
115.02019,115.261505,53,41,0
115.261505,115.502815,52,41,0
115.502815,115.744125,53,41,0
115.744125,115.986694,55,45,0
115.986694,116.23301,53,43,0
116.23301,116.483376,52,43,0
116.483376,116.737724,51,43,0
116.737724,117.25222,50,45,0
117.25222,117.79057,46,35,0
117.79057,118.33053,48,35,0
118.33053,118.87239,48,35,0
118.87239,119.46516,53,37,0
119.46516,120.12624,48,28,0
120.12624,120.622055,41,28,0
121.7711,122.00719,58,37,0
122.00719,122.24328,62,37,0
122.24328,122.47937,65,33,0
122.47937,122.71546,62,36,0
122.71546,122.948524,58,33,0
122.948524,123.18159,62,41,0
123.18159,123.422905,67,38,0
123.659,123.89508,60,34,0
123.89508,124.13117,63,39,0
124.13117,124.36726,67,36,0
124.36726,124.603355,63,44,0
124.603355,124.83642,60,37,0
124.83642,125.06948,63,38,0
125.06948,125.30254,67,34,0
125.535614,125.77586,53,35,0
125.77586,126.00893,60,35,0
126.00893,126.24199,63,34,0
126.24199,126.47505,60,47,0
126.47505,126.708115,53,36,0
126.708115,126.94118,60,43,0
126.94118,127.18957,63,36,0
127.42772,127.66587,58,42,0
127.66587,127.90402,62,42,0
127.90402,128.14218,65,36,0
128.14218,128.38033,62,45,0
128.38033,128.61142,58,42,0
128.61142,128.8425,62,42,0
128.8425,129.0736,65,39,0
129.0736,129.30211,63,45,0
129.30211,129.5369,67,37,0
129.5369,129.77167,62,40,0
129.77167,130.00473,65,35,0
130.00473,130.24185,63,45,0
130.24185,130.47897,67,35,0
130.47897,130.71608,60,38,0
130.71608,130.94916,63,32,0
130.94916,131.4133,65,42,0
130.94916,131.4133,62,42,0
132.81372,133.0458,63,47,0
133.0458,133.27788,67,36,0
133.27788,133.50995,62,40,0
133.50995,133.74202,65,33,0
133.74202,133.97409,63,47,0
133.97409,134.20616,67,37,0
134.20616,134.43823,60,39,0
134.43823,134.6806,63,32,0
134.6806,135.14291,62,47,0
134.6806,135.14291,65,47,0
136.52962,136.99976,57,61,0
136.99976,137.46991,58,55,0
137.46991,137.93704,51,63,0
137.93704,138.43199,53,57,0
138.67014,138.78905,46,52,0
138.90935,139.03154,50,55,0
139.15576,139.28192,53,50,0
139.41023,139.92963,58,61,0
140.63287,140.87,46,34,0
140.87,141.1071,50,37,0
141.1071,141.34422,53,35,0
141.34422,141.58134,50,43,0
141.58134,141.8216,46,39,0
141.8216,142.06184,50,39,0
142.06184,142.31432,55,35,0
142.55457,142.79482,48,36,0
142.79482,143.03506,55,39,0
143.03506,143.27531,58,35,0
143.27531,143.50839,55,42,0
143.50839,143.74146,48,34,0
143.74146,143.97452,55,38,0
143.97452,144.20758,58,34,0
144.43965,144.67075,52,39,0
144.67075,144.90085,55,43,0
144.90085,145.13,60,46,0
145.13,145.35835,55,49,0
145.35835,145.58781,52,47,0
145.58781,145.8185,55,50,0
145.8185,146.05032,60,54,0
146.29332,146.53357,53,42,0
146.53357,146.77382,57,41,0
146.77382,147.01407,60,34,0
147.01407,147.25432,57,37,0
147.25432,147.49457,53,34,0
147.49457,147.72763,57,36,0
147.72763,147.9607,60,32,0
147.9607,148.19678,58,47,0
148.19678,148.43288,60,32,0
148.43288,148.66896,58,37,0
148.66896,148.90506,60,31,0
148.90506,149.13913,57,50,0
149.13913,149.3712,60,41,0
149.3712,149.60329,57,44,0
149.60329,149.83536,60,41,0
149.83536,150.0756,58,49,0
150.0756,150.31271,60,36,0
150.31271,150.54984,58,42,0
150.54984,150.78696,60,36,0
150.78696,151.02155,57,53,0
151.02155,151.25362,60,45,0
151.25362,151.48569,57,46,0
151.48569,151.71776,60,44,0
151.71776,151.94716,58,51,0
151.94716,152.18011,62,46,0
152.18011,152.41307,58,51,0
152.41307,152.64603,62,46,0
152.64603,152.87898,59,50,0
152.87898,153.11194,62,46,0
153.11194,153.3449,59,52,0
153.3449,153.57597,62,48,0
153.57597,154.03816,60,59,0
154.03816,154.50034,62,61,0
154.50034,154.96251,64,63,0
154.96251,155.4247,65,65,0
155.4247,155.66078,67,65,0
155.66078,155.89687,72,53,0
155.89687,156.13297,64,60,0
156.13297,156.36702,72,53,0
156.36702,156.60109,65,59,0
156.60109,156.83516,72,50,0
156.83516,157.06921,62,56,0
157.06921,157.30328,72,52,0
157.30328,157.76546,60,60,0
157.76546,158.22763,62,62,0
158.22763,158.68982,64,65,0
158.68982,159.152,65,68,0
159.152,159.27055,67,66,0
159.27055,159.38911,72,44,0
159.38911,159.50768,71,47,0
159.50768,159.62622,72,44,0
159.62622,159.74478,64,57,0
159.74478,159.86334,72,45,0
159.86334,159.9819,71,48,0
159.9819,160.10046,72,44,0
160.10046,160.21902,65,57,0
160.21902,160.33757,72,44,0
160.33757,160.45613,71,46,0
160.45613,160.57469,72,44,0
160.57469,160.69325,62,56,0
160.69325,160.81181,71,45,0
160.81181,160.93202,69,45,0
160.93202,161.05223,71,43,0
161.05223,161.50575,60,56,0
161.05223,161.50575,72,56,0
161.97438,162.2157,36,73,0
161.97438,162.2157,48,73,0
162.93964,163.87189,53,66,0
162.93964,163.87189,41,66,0
165.29375,166.23944,46,68,0
165.29375,166.23944,58,68,0
166.23944,166.70557,57,44,0
166.70557,167.16777,62,38,0
166.70557,167.16777,59,38,0
167.16777,167.63391,60,38,0
167.63391,168.09612,59,38,0
167.63391,168.09612,62,38,0
168.09612,168.56224,60,40,0
168.56224,169.0345,62,39,0
169.0345,169.50465,64,35,0
169.50465,169.9728,65,35,0
170.67603,170.9091,46,45,0
170.9091,171.14217,50,46,0
171.14217,171.37227,55,45,0
171.37227,171.83841,58,52,0
172.54268,172.77574,45,44,0
172.77574,173.0088,48,44,0
173.0088,173.2399,53,42,0
173.2399,173.70602,57,52,0
174.17215,174.64337,55,44,0
174.64337,175.1095,52,41,0
175.1095,175.57973,53,43,0
175.57973,176.04387,50,42,0
176.04387,176.512,48,44,0
176.97614,177.09218,48,53,0
177.09218,177.20822,50,49,0
177.20822,177.32425,46,54,0
177.32425,177.44029,48,49,0
177.44029,177.55632,45,54,0
177.55632,177.67386,46,49,0
177.67386,177.79294,43,56,0
177.79294,177.9136,45,49,0
177.9136,178.37973,41,66,0
178.37973,178.84586,53,46,0
180.27739,181.2218,58,59,0
180.27739,181.2218,46,59,0
181.2218,181.684,57,43,0
181.684,182.14622,62,43,0
181.684,182.14622,59,43,0
182.14622,182.60843,60,43,0
182.60843,183.07065,59,43,0
182.60843,183.07065,62,43,0
183.07065,183.53677,60,43,0
183.53677,184.011,62,43,0
183.53677,184.011,65,43,0
184.011,184.48524,64,43,0
184.011,184.48524,67,43,0
184.48524,184.95442,65,46,0
185.64116,185.87054,50,54,0
185.87054,185.98524,62,61,0
186.09995,186.21465,60,53,0
186.3297,186.44475,58,60,0
186.55981,186.78993,46,53,0
186.78993,186.90498,58,61,0
187.02003,187.1351,57,53,0
187.25015,187.47931,55,57,0
187.47931,187.70941,53,53,0
187.70941,187.9405,52,53,0
187.9405,188.17258,48,53,0
188.17258,188.63606,53,60,0
188.63606,189.10097,45,56,0
189.10097,189.56273,46,59,0
189.56273,190.02296,58,53,0
190.02296,190.4931,60,54,0
190.4931,190.9736,48,53,0
190.9736,191.09373,53,53,0
191.09373,191.21385,60,46,0
191.21385,191.33398,59,49,0
191.33398,191.4541,60,46,0
191.4541,191.57423,62,53,0
191.57423,191.69435,60,46,0
191.69435,191.81448,59,49,0
191.81448,191.9346,60,46,0
191.9346,192.05473,58,53,0
192.05473,192.17485,60,50,0
192.17485,192.29498,57,53,0
192.29498,192.41512,60,49,0
192.41512,192.53523,55,53,0
192.53523,192.65536,60,50,0
192.65536,192.77548,53,53,0
192.77548,192.89561,60,50,0
192.89561,193.01416,52,48,0
193.01416,193.13272,60,42,0
193.13272,193.25128,55,42,0
193.25128,193.36984,60,40,0
193.36984,193.4884,58,48,0
193.4884,193.60696,60,42,0
193.60696,193.72551,58,42,0
193.72551,193.84407,60,41,0
193.84407,193.96263,52,47,0
193.96263,194.08119,60,43,0
194.08119,194.19975,55,43,0
194.19975,194.31831,60,42,0
194.31831,194.43686,58,48,0
194.43686,194.55542,60,42,0
194.55542,194.67398,58,42,0
194.67398,194.79254,60,42,0
194.79254,194.90907,57,44,0
194.90907,195.0256,60,45,0
195.0256,195.14214,52,45,0
195.14214,195.25867,60,45,0
195.25867,195.3752,53,46,0
195.3752,195.49173,60,47,0
195.49173,195.60826,55,48,0
195.60826,195.72946,60,49,0
195.72946,195.847,56,53,0
195.847,195.96452,60,48,0
195.96452,196.08206,57,53,0
196.08206,196.1996,60,46,0
196.1996,196.31714,56,53,0
196.31714,196.43468,60,46,0
196.43468,196.55222,57,53,0
196.55222,196.66975,60,47,0
196.66975,196.78357,52,48,0
196.78357,196.8974,60,38,0
196.8974,197.01123,55,42,0
197.01123,197.12955,60,39,0
197.12955,197.24786,58,48,0
197.24786,197.36617,60,39,0
197.36617,197.48448,58,42,0
197.48448,197.6028,60,40,0
197.6028,197.72112,52,47,0
197.72112,197.83495,60,41,0
197.83495,197.95233,55,43,0
197.95233,198.06972,60,40,0
198.06972,198.18712,58,48,0
198.18712,198.3045,60,38,0
198.3045,198.42189,58,42,0
198.42189,198.53928,60,40,0
198.53928,198.6558,57,44,0
198.6558,198.77234,60,43,0
198.77234,198.88887,52,45,0
198.88887,199.0054,60,45,0
199.0054,199.12193,53,46,0
199.12193,199.23846,60,45,0
199.23846,199.35501,55,48,0
199.35501,199.47566,60,47,0
199.47566,199.5937,56,53,0
199.5937,199.71175,60,48,0
199.71175,199.82979,57,53,0
199.82979,199.94785,60,46,0
199.94785,200.06589,56,53,0
200.06589,200.18393,60,46,0
200.18393,200.30197,57,53,0
200.30197,200.44792,60,47,0
200.684,200.9201,58,36,0
200.9201,201.15619,57,38,0
201.15619,201.39229,58,36,0
201.62837,201.86446,60,34,0
201.86446,202.10056,59,38,0
202.10056,202.33664,60,33,0
202.57274,202.80882,61,34,0
202.80882,203.04492,59,36,0
203.04492,203.281,61,34,0
203.51709,203.75319,62,38,0
203.75319,203.98927,61,40,0
203.98927,204.22537,62,38,0
204.68951,205.15366,67,54,0
204.68951,205.15366,58,54,0
205.15366,205.63843,69,54,0
205.63843,206.14107,70,45,0
205.15366,206.14107,60,54,0
206.14107,207.07945,65,34,0
206.14107,207.07945,69,40,0
207.07945,208.01576,65,30,0
207.07945,208.01576,69,36,0
208.01576,208.98004,60,36,0
208.01576,208.98004,57,30,0
208.01576,208.98004,54,30,0
208.98004,209.9246,58,36,0
208.98004,209.9246,55,30,0
209.9246,210.87308,55,29,0
209.9246,210.87308,58,35,0
209.9246,210.87308,52,29,0
210.87308,211.81541,53,29,0
210.87308,211.81541,57,35,0
212.28555,212.7517,47,32,0
212.28555,212.7517,55,32,0
212.7517,213.23009,57,36,0
213.23009,213.73976,58,35,0
212.7517,213.73976,48,36,0
213.73976,213.86719,53,43,0
213.73976,213.86719,57,43,0
214.22768,214.46074,64,35,0
214.46074,214.6938,63,35,0
214.6938,214.81392,53,43,0
214.6938,214.81392,62,43,0
215.16711,215.40018,64,35,0
215.40018,215.63324,63,35,0
215.63324,215.7518,53,42,0
215.63324,215.7518,62,42,0
216.10342,216.33649,64,43,0
216.33649,216.56955,63,43,0
216.56955,216.80261,62,47,0
216.80261,217.03568,57,44,0
217.03568,217.26874,58,46,0
217.26874,217.50586,55,44,0
217.50586,217.97198,57,52,0
218.44217,218.9083,58,49,0
219.37442,219.60382,48,48,0
219.60382,219.83147,53,44,0
219.83147,219.95364,57,44,0
220.0758,220.31189,53,41,0
220.31189,220.55428,48,49,0
220.55428,220.67548,55,43,0
220.79666,220.92175,58,45,0
221.04683,221.17192,55,43,0
221.297,221.42209,53,51,0
221.297,221.42209,57,51,0
221.54716,221.78023,65,35,0
221.78023,222.01329,64,35,0
222.01329,222.24635,63,32,0
222.24635,222.36649,62,43,0
222.24635,222.36649,53,43,0
222.4866,222.71968,65,32,0
222.71968,222.95274,64,35,0
222.95274,223.1858,63,33,0
223.1858,223.30437,62,42,0
223.1858,223.30437,53,42,0
223.42291,223.65598,65,35,0
223.65598,223.88905,64,43,0
223.88905,224.12212,63,43,0
224.12212,224.35518,62,47,0
224.35518,224.58824,57,44,0
224.58824,224.82205,58,46,0
224.82205,225.06078,55,44,0
225.06078,225.5269,45,62,0
225.06078,225.5269,57,62,0
225.99933,226.46545,58,63,0
225.99933,226.46545,46,63,0
226.93158,227.04811,48,48,0
227.04811,227.16464,57,40,0
227.16464,227.28268,53,44,0
227.28268,227.40073,57,41,0
227.40073,227.51878,48,48,0
227.51878,227.63683,57,40,0
227.63683,227.75487,53,44,0
227.75487,227.87291,57,40,0
227.87291,227.98944,48,48,0
227.98944,228.10597,57,42,0
228.10597,228.2225,53,46,0
228.2225,228.33904,57,42,0
228.33904,228.45558,48,48,0
228.45558,228.57211,57,43,0
228.57211,228.68864,53,46,0
228.68864,228.80566,57,43,0
228.80566,228.92644,48,48,0
228.92644,229.03847,58,40,0
229.03847,229.1451,52,43,0
229.1451,229.25203,58,40,0
229.25203,229.35872,48,48,0
229.35872,229.46545,58,42,0
229.46545,229.57283,52,43,0
229.57283,229.68085,58,42,0
229.68085,229.79033,48,48,0
229.79033,229.9013,58,41,0
229.9013,230.01227,52,43,0
230.01227,230.12398,58,41,0
230.12398,230.23897,48,48,0
230.23897,230.35454,58,42,0
230.35454,230.47104,52,45,0
230.47104,230.59064,58,42,0
230.59064,230.83089,53,51,0
230.83089,231.07114,65,44,0
231.07114,231.31139,64,44,0
231.31139,231.54529,65,44,0
231.54529,231.78215,67,45,0
231.78215,232.02214,65,48,0
232.02214,232.26535,64,51,0
232.26535,232.51184,63,54,0
232.51184,232.7449,62,59,0
232.7449,232.97797,53,45,0
232.97797,233.21103,61,53,0
233.21103,233.44716,53,45,0
233.44716,233.68073,60,52,0
233.68073,233.9163,53,44,0
233.9163,234.15395,64,50,0
234.15395,234.39366,53,44,0
234.39366,234.51433,65,53,0
234.63498,234.8763,53,41,0
234.8763,235.1176,52,41,0
235.1176,235.35892,53,41,0
235.35892,235.60149,55,45,0
235.60149,235.8478,53,43,0
235.8478,236.09816,52,43,0
236.09816,236.35251,51,43,0
236.35251,236.867,50,45,0
236.867,237.40536,46,35,0
237.40536,237.94531,48,35,0
237.94531,238.48718,48,35,0
238.48718,239.07994,53,37,0
239.07994,239.74103,48,28,0
239.74103,240.23685,41,28,0
241.3859,241.62198,41,33,0
241.62198,241.85806,45,35,0
241.85806,242.09416,48,33,0
242.09416,242.33025,45,38,0
242.33025,242.56331,41,32,0
242.56331,242.79637,45,34,0
242.79637,243.02945,48,32,0
243.26553,243.50162,55,32,0
243.50162,243.73772,58,35,0
243.73772,243.9738,64,33,0
243.9738,244.2099,58,34,0
244.2099,244.44598,55,30,0
244.44598,244.67905,58,34,0
244.67905,244.91211,64,30,0
245.14923,245.38635,43,32,0
245.38635,245.62346,46,35,0
245.62346,245.86058,52,32,0
245.86058,246.0977,46,39,0
246.0977,246.33176,43,33,0
246.33176,246.56583,46,35,0
246.56583,246.79988,52,33,0
247.037,247.27412,57,33,0
247.27412,247.51123,60,35,0
247.51123,247.74835,63,34,0
247.74835,247.98547,60,37,0
247.98547,248.21854,57,32,0
248.21854,248.4516,60,34,0
248.4516,248.69507,63,34,0
248.93219,249.1693,46,41,0
249.1693,249.40642,50,47,0
249.40642,249.65207,55,44,0
249.88919,250.12631,48,46,0
250.12631,250.36342,55,49,0
250.36342,250.60689,58,46,0
250.84401,251.08113,50,48,0
251.08113,251.31824,53,50,0
251.31824,251.55536,56,45,0
251.55536,251.80103,53,52,0
251.80103,252.03813,50,49,0
252.03813,252.27525,53,53,0
252.27525,252.51237,56,50,0
252.51237,253.44463,57,63,0
252.51237,253.44463,48,63,0
253.44463,253.94267,60,48,0
253.94267,254.45236,48,45,0
254.45236,254.5709,53,41,0
254.5709,254.68947,60,34,0
254.68947,254.80803,56,37,0
254.80803,254.92659,60,34,0
254.92659,255.06886,53,41,0
255.04515,255.18742,60,34,0
255.16371,255.30597,56,37,0
255.28226,255.42453,60,34,0
255.40082,255.54309,53,46,0
255.51938,255.66165,60,36,0
255.63794,255.78021,56,41,0
255.7565,255.89877,60,37,0
255.87506,256.01733,53,49,0
255.9936,256.1359,60,39,0
256.11218,256.25446,56,44,0
256.23074,256.373,60,39,0
256.34927,256.4931,53,49,0
256.46783,256.6178,60,43,0
256.5941,256.73636,56,45,0
256.71265,256.85492,60,43,0
256.8312,256.9742,53,49,0
256.94977,257.09576,60,43,0
257.07205,257.21432,56,45,0
257.1906,257.33286,60,43,0
257.30917,257.45142,53,48,0
257.4277,257.56998,62,39,0
257.54626,257.68854,56,45,0
257.66483,257.8071,62,40,0
257.7834,257.92566,53,47,0
257.90195,258.04422,62,40,0
258.0205,258.16278,56,45,0
258.13907,258.2824,62,40,0
258.25763,258.38156,55,54,0
258.38156,258.50552,65,46,0
258.50552,258.62305,62,48,0
258.62305,258.7406,65,45,0
258.7406,258.85812,55,54,0
258.85812,258.97568,65,45,0
258.97568,259.0932,62,48,0
259.0932,259.21072,65,45,0
259.21072,259.32828,55,54,0
259.32828,259.4458,65,46,0
259.4458,259.56335,62,48,0
259.56335,259.68088,65,45,0
259.68088,259.79843,55,52,0
259.79843,259.91595,65,45,0
259.91595,260.03348,62,48,0
260.03348,260.15103,65,45,0
260.15103,260.26855,55,53,0
260.26855,260.3861,65,45,0
260.3861,260.50363,62,48,0
260.50363,260.6212,65,45,0
260.6212,260.7387,55,53,0
260.7387,260.85626,65,45,0
260.85626,260.9738,62,48,0
260.9738,261.0913,65,45,0
261.0913,261.20886,55,53,0
261.20886,261.3264,62,46,0
261.3264,261.44394,59,48,0
261.44394,261.56146,62,45,0
261.56146,261.67902,55,53,0
261.67902,261.79654,62,45,0
261.79654,261.91666,59,48,0
261.91666,262.0368,62,45,0
262.0368,262.15692,55,48,0
262.15692,262.27704,64,39,0
262.27704,262.39716,60,44,0
262.39716,262.5173,64,39,0
262.5173,262.63742,55,48,0
262.63742,262.75754,63,41,0
262.75754,262.87766,60,44,0
262.87766,262.9978,63,41,0
262.9978,263.14133,55,48,0
263.11792,263.25836,63,40,0
263.23495,263.3754,60,44,0
263.352,263.49243,63,38,0
263.46902,263.60944,55,48,0
263.58603,263.72647,63,40,0
263.70306,263.8435,60,45,0
263.8201,263.96097,63,40,0
263.93713,264.0562,54,54,0
264.0562,264.1753,63,40,0
264.1753,264.29437,58,44,0
264.29437,264.4109,63,41,0
264.4109,264.52744,54,49,0
264.52744,264.64395,63,42,0
264.64395,264.7605,58,45,0
264.7605,264.877,63,40,0
264.877,264.9961,54,54,0
264.9961,265.11517,63,42,0
265.11517,265.23425,58,45,0
265.23425,265.3508,63,42,0
265.3508,265.46732,54,48,0
265.46732,265.58386,63,40,0
265.58386,265.70038,58,45,0
265.70038,265.81693,63,40,0
265.81693,265.93497,53,49,0
265.93497,266.053,63,40,0
266.053,266.17105,60,45,0
266.17105,266.2891,63,41,0
266.2891,266.40714,53,50,0
266.40714,266.52518,63,42,0
266.52518,266.64322,60,45,0
266.64322,266.7613,63,40,0
266.7613,266.90112,53,50,0
266.8778,267.01764,63,43,0
266.99435,267.1342,60,48,0
267.11087,267.2507,63,43,0
267.22742,267.36725,53,54,0
267.34393,267.48376,63,45,0
267.46048,267.6003,60,48,0
267.577,267.71683,63,45,0
267.69354,267.83337,53,54,0
267.81006,267.9499,63,45,0
267.9266,268.06644,60,48,0
268.04312,268.18286,63,44,0
268.15967,268.2992,53,54,0
268.27585,268.4164,63,45,0
268.39288,268.5345,60,48,0
268.51077,268.6535,63,44,0
268.62958,268.7731,53,52,0
268.74918,268.89224,60,44,0
268.86844,269.01105,57,48,0
268.98734,269.12952,60,44,0
269.1059,269.24756,53,53,0
269.22394,269.36514,60,44,0
269.34164,269.48242,57,47,0
269.459,269.6004,60,44,0
269.57605,269.69778,54,44,0
269.69778,269.81952,60,39,0
269.81952,269.96304,57,40,0
269.93912,270.08264,60,35,0
270.05872,270.1783,54,44,0
270.1783,270.2979,60,33,0
270.2979,270.4175,57,39,0
270.4175,270.5371,60,34,0
270.5371,270.6567,54,44,0
270.6567,270.7763,60,33,0
270.7763,270.8959,57,39,0
270.8959,271.0155,60,33,0
271.0155,271.1351,54,44,0
271.1351,271.2547,62,35,0
271.2547,271.3743,57,39,0
271.3743,271.4939,62,34,0
271.4939,271.6135,55,48,0
271.6135,271.7331,62,39,0
271.7331,271.8527,58,44,0
271.8527,271.9723,62,39,0
271.9723,272.0919,53,48,0
272.0919,272.2115,62,38,0
272.2115,272.3311,57,44,0
272.3311,272.45068,62,38,0
272.45068,272.5905,52,48,0
272.5672,272.70706,62,38,0
272.68375,272.82358,55,44,0
272.80026,272.94012,62,37,0
272.9168,273.05664,51,48,0
273.03333,273.1732,61,38,0
273.14987,273.2897,55,44,0
273.2664,273.40625,61,39,0
273.38293,273.85825,62,38,0
273.38293,273.85825,50,38,0
274.8028,275.26892,66,45,0
274.8028,275.26892,62,45,0
275.26892,275.73602,67,45,0
275.26892,275.73602,63,45,0
276.6867,277.17148,61,54,0
276.6867,277.17148,51,54,0
277.17148,277.65305,62,49,0
277.17148,277.65305,50,49,0
278.59967,279.0658,60,45,0
278.59967,279.0658,50,45,0
279.0658,279.53317,58,42,0
279.0658,279.53317,51,42,0
280.4923,280.97495,55,32,0
280.4923,280.97495,51,32,0
280.97495,281.21204,54,24,0
280.97495,281.21204,50,24,0
281.45883,281.7056,58,27,0
281.45883,281.7056,55,27,0
281.45883,281.7056,50,27,0
281.94272,282.1798,57,28,0
281.94272,282.1798,54,28,0
281.94272,282.1798,50,28,0
282.41797,282.65613,58,32,0
282.41797,282.65613,55,32,0
282.41797,282.65613,50,32,0
282.8943,283.36853,57,34,0
282.8943,283.36853,54,34,0
282.8943,283.36853,50,34,0
285.0505,285.29395,69,34,0
285.0505,285.29395,65,30,0
285.0505,285.29395,60,30,0
285.29395,285.5374,69,37,0
285.29395,285.5374,65,33,0
285.29395,285.5374,60,33,0
285.5374,285.78088,69,40,0
285.5374,285.78088,65,36,0
285.5374,285.78088,60,36,0
285.78088,286.2637,69,44,0
285.78088,286.2637,65,39,0
285.78088,286.2637,60,39,0
286.99203,287.23444,75,36,0
286.99203,287.23444,72,32,0
286.99203,287.23444,65,32,0
287.23444,287.4768,75,40,0
287.23444,287.4768,72,36,0
287.23444,287.4768,65,36,0
287.4768,287.7192,75,44,0
287.4768,287.7192,72,39,0
287.4768,287.7192,65,39,0
287.7192,288.1976,75,47,0
287.7192,288.1976,72,42,0
287.7192,288.1976,65,42,0
288.92584,289.16824,65,47,0
289.16824,289.4106,72,45,0
289.4106,289.653,75,45,0
289.653,290.619,66,47,0
290.8614,291.10376,65,38,0
291.10376,291.34616,72,41,0
291.34616,291.58853,75,37,0
291.58853,292.54324,66,49,0
292.54324,292.78516,65,46,0
293.02228,293.49652,66,52,0
293.49652,293.97446,65,49,0
293.02228,293.97446,75,52,0
293.02228,293.97446,72,52,0
293.97446,294.4487,66,53,0
294.4487,294.92612,65,50,0
293.97446,294.92612,75,53,0
293.97446,294.92612,72,53,0
298.64862,298.8847,58,37,0
298.8847,299.12082,62,37,0
299.12082,299.3569,65,33,0
299.3569,299.593,62,36,0
299.593,299.82605,58,33,0
299.82605,300.0591,62,41,0
300.0591,300.3004,67,38,0
300.53653,300.7726,60,34,0
300.7726,301.0087,63,39,0
301.0087,301.24478,67,36,0
301.24478,301.48087,63,44,0
301.48087,301.71396,60,37,0
301.71396,301.94702,63,38,0
301.94702,302.18008,67,34,0
302.41315,302.65338,53,35,0
302.65338,302.88644,60,35,0
302.88644,303.1195,63,34,0
303.1195,303.35257,60,47,0
303.35257,303.58563,53,36,0
303.58563,303.8187,60,43,0
303.8187,304.06436,63,36,0
304.30252,304.54068,58,42,0
304.54068,304.7788,62,42,0
304.7788,305.01697,65,36,0
305.01697,305.25513,62,45,0
305.25513,305.4862,58,42,0
305.4862,305.71732,62,42,0
305.71732,305.9484,65,39,0
305.9484,306.18552,63,45,0
306.18552,306.42264,67,37,0
306.42264,306.65973,62,40,0
306.65973,306.89282,65,35,0
306.89282,307.1299,63,45,0
307.1299,307.36703,67,35,0
307.36703,307.60416,60,38,0
307.60416,307.83722,63,32,0
307.83722,308.30136,65,42,0
307.83722,308.30136,62,42,0
309.6983,309.93036,63,47,0
309.93036,310.16245,67,36,0
310.16245,310.39453,62,40,0
310.39453,310.6266,65,33,0
310.6266,310.85867,63,47,0
310.85867,311.09073,67,37,0
311.09073,311.3228,60,39,0
311.3228,311.55487,63,32,0
311.55487,312.019,62,47,0
311.55487,312.019,65,47,0
313.40753,313.8777,57,61,0
313.8777,314.34784,58,55,0
314.34784,314.81497,51,63,0
314.81497,315.30222,53,57,0
315.54034,315.65927,46,52,0
315.77957,315.90176,50,55,0
316.02597,316.15213,53,50,0
316.28046,316.79984,58,61,0
317.55637,317.79346,46,34,0
317.79346,318.03058,50,37,0
318.03058,318.2677,53,34,0
318.2677,318.50482,50,43,0
318.50482,318.74506,46,35,0
318.74506,318.98532,50,39,0
318.98532,319.22556,53,39,0
319.46902,319.7125,46,37,0
319.7125,319.95596,50,41,0
319.95596,320.19943,53,37,0
320.19943,320.4429,50,43,0
320.4429,320.679,46,38,0
320.679,320.91507,50,38,0
320.91507,321.15118,53,34,0
321.38425,321.6173,46,47,0
321.6173,321.85037,50,47,0
321.85037,322.08344,53,45,0
322.08344,322.3165,56,53,0
322.3165,322.54956,53,45,0
322.54956,322.78262,50,48,0
322.78262,323.02255,46,45,0
323.26602,323.50946,47,36,0
323.50946,323.75293,50,36,0
323.75293,323.9964,53,36,0
323.9964,324.23987,55,41,0
324.23987,324.48334,53,33,0
324.48334,324.7184,50,34,0
324.7184,324.9535,47,32,0
325.19586,325.43826,58,33,0
325.43826,325.68063,61,36,0
325.68063,325.92303,64,32,0
325.92303,326.4156,67,40,0
327.14273,327.38513,57,34,0
327.38513,327.6275,60,34,0
327.6275,327.8699,65,32,0
327.8699,328.3494,69,39,0
329.07706,329.3216,58,32,0
329.3216,329.56616,62,34,0
329.56616,329.81073,65,30,0
329.81073,330.29138,70,38,0
330.76355,330.99963,63,42,0
330.99963,331.23572,67,38,0
331.23572,331.47183,63,42,0
331.47183,331.70792,65,38,0
331.70792,331.9425,62,41,0
331.9425,332.17557,65,38,0
332.17557,332.40863,62,41,0
332.40863,332.6417,65,38,0
332.6417,332.883,63,41,0
332.883,333.12012,65,38,0
333.12012,333.35724,63,41,0
333.35724,333.59433,65,38,0
333.59433,333.82944,62,41,0
333.82944,334.0625,65,38,0
334.0625,334.29556,62,41,0
334.29556,334.52863,65,38,0
334.52863,334.76575,63,41,0
334.76575,335.00287,67,38,0
335.00287,335.24,63,41,0
335.24,335.47305,67,38,0
335.47305,335.71014,64,41,0
335.71014,335.94727,67,38,0
335.94727,336.1844,64,41,0
336.1844,336.41547,67,38,0
336.41547,336.87766,53,41,0
336.87766,337.33984,55,47,0
337.33984,337.802,57,52,0
337.802,338.2642,58,58,0
338.2642,338.50027,60,64,0
338.50027,338.73636,65,45,0
338.73636,338.97247,57,51,0
338.97247,339.2065,65,46,0
339.2065,339.44058,58,52,0
339.44058,339.67465,65,46,0
339.67465,339.90872,55,52,0
339.90872,340.1428,65,46,0
340.1428,340.60495,53,40,0
340.60495,341.06714,55,46,0
341.06714,341.52933,57,51,0
341.52933,341.9915,58,58,0
341.9915,342.11005,60,64,0
342.11005,342.2286,65,45,0
342.2286,342.34717,64,49,0
342.34717,342.46573,65,45,0
342.46573,342.5843,57,56,0
342.5843,342.70285,65,46,0
342.70285,342.8214,64,49,0
342.8214,342.93997,65,46,0
342.93997,343.05853,58,56,0
343.05853,343.17706,65,46,0
343.17706,343.29562,64,49,0
343.29562,343.41418,65,47,0
343.41418,343.53275,55,57,0
343.53275,343.6513,64,45,0
343.6513,343.76987,62,49,0
343.76987,343.88843,64,46,0
343.88843,344.34775,65,59,0
343.88843,344.34775,53,59,0
344.82703,345.0716,41,75,0
344.82703,345.0716,29,75,0
345.80527,346.73752,46,58,0
345.80527,346.73752,34,58,0
348.15936,349.10507,51,57,0
348.15936,349.10507,39,57,0
349.10507,349.5712,50,44,0
349.5712,350.03342,55,38,0
349.5712,350.03342,52,38,0
350.03342,350.49954,53,38,0
350.49954,350.96176,52,38,0
350.49954,350.96176,55,38,0
350.96176,351.4279,53,40,0
351.4279,351.90015,55,39,0
351.90015,352.37027,57,35,0
352.37027,352.8384,58,35,0
353.54166,353.77472,39,46,0
353.77472,354.00778,43,46,0
354.00778,354.2379,48,45,0
354.2379,354.70404,51,52,0
355.40833,355.6414,38,44,0
355.6414,355.87445,41,44,0
355.87445,356.10553,46,43,0
356.10553,356.57166,50,52,0
357.03778,357.509,48,44,0
357.509,357.97513,45,41,0
357.97513,358.44534,46,43,0
358.44534,358.9095,43,42,0
358.9095,359.37762,41,44,0
359.84177,359.9578,53,53,0
359.9578,360.07385,55,49,0
360.07385,360.18988,51,54,0
360.18988,360.3059,53,49,0
360.3059,360.42197,50,54,0
360.42197,360.5395,51,49,0
360.5395,360.65857,48,56,0
360.65857,360.77924,50,49,0
360.77924,361.24536,46,69,0
361.24536,361.7115,58,58,0
363.12875,364.07315,63,59,0
363.12875,364.07315,51,59,0
364.07315,364.53537,62,43,0
364.53537,364.9976,67,43,0
364.53537,364.9976,64,43,0
364.9976,365.4598,65,43,0
365.4598,365.922,67,43,0
365.4598,365.922,64,43,0
365.922,366.38815,65,41,0
366.38815,366.86237,70,43,0
366.38815,366.86237,67,43,0
366.86237,367.3366,72,43,0
366.86237,367.3366,69,43,0
367.3366,367.8058,70,46,0
368.502,368.73407,55,54,0
368.73407,368.85013,67,61,0
368.96616,369.08218,65,53,0
369.19724,369.31232,63,60,0
369.42737,369.65747,51,53,0
369.65747,369.77252,63,61,0
369.8876,370.00266,62,53,0
370.1177,370.34686,60,57,0
370.34686,370.57697,58,53,0
370.57697,370.80804,57,53,0
370.80804,371.04013,53,53,0
371.04013,371.50363,58,60,0
371.50363,371.9685,50,54,0
371.9685,372.4303,51,59,0
372.4303,372.8905,63,53,0
372.8905,373.36066,65,54,0
373.36066,373.84116,53,53,0
373.84116,373.96127,58,53,0
373.96127,374.08142,65,46,0
374.08142,374.20154,64,49,0
374.20154,374.32166,65,46,0
374.32166,374.44177,67,53,0
374.44177,374.56192,65,47,0
374.56192,374.68204,64,49,0
374.68204,374.80215,65,46,0
374.80215,374.92227,63,53,0
374.92227,375.04242,65,51,0
375.04242,375.16254,62,53,0
375.16254,375.28265,65,49,0
375.28265,375.40277,60,53,0
375.40277,375.52292,65,50,0
375.52292,375.64304,58,53,0
375.64304,375.76315,65,50,0
375.76315,375.8817,57,48,0
375.8817,376.00027,65,40,0
376.00027,376.11884,60,42,0
376.11884,376.2374,65,38,0
376.2374,376.35596,63,48,0
376.35596,376.47452,65,40,0
376.47452,376.59308,63,42,0
376.59308,376.71164,65,39,0
376.71164,376.83017,57,47,0
376.83017,376.94873,65,40,0
376.94873,377.0673,60,43,0
377.0673,377.18585,65,40,0
377.18585,377.3044,63,48,0
377.3044,377.42297,65,42,0
377.42297,377.54153,63,42,0
377.54153,377.6601,65,42,0
377.6601,377.7766,62,44,0
377.7766,377.89316,65,45,0
377.89316,378.00967,57,45,0
378.00967,378.12622,65,45,0
378.12622,378.24274,58,46,0
378.24274,378.35928,65,47,0
378.35928,378.4758,60,48,0
378.4758,378.59702,65,49,0
378.59702,378.71454,61,53,0
378.71454,378.8321,65,48,0
378.8321,378.94962,62,53,0
378.94962,379.06714,65,46,0
379.06714,379.1847,61,53,0
379.1847,379.30222,65,46,0
379.30222,379.41977,62,53,0
379.41977,379.5373,65,47,0
379.5373,379.65585,57,48,0
379.65585,379.7744,65,39,0
379.7744,379.89297,60,42,0
379.89297,380.01154,65,39,0
380.01154,380.1301,63,48,0
380.1301,380.24866,65,40,0
380.24866,380.36722,63,42,0
380.36722,380.48578,65,39,0
380.48578,380.6043,57,47,0
380.6043,380.72287,65,39,0
380.72287,380.84143,60,43,0
380.84143,380.96,65,39,0
380.96,381.07855,63,48,0
381.07855,381.1971,65,42,0
381.1971,381.31567,63,42,0
381.31567,381.43423,65,42,0
381.43423,381.55075,62,44,0
381.55075,381.6673,65,45,0
381.6673,381.7838,57,45,0
381.7838,381.90036,65,45,0
381.90036,382.01688,58,46,0
382.01688,382.13342,65,47,0
382.13342,382.24997,60,48,0
382.24997,382.3706,65,49,0
382.3706,382.48865,61,53,0
382.48865,382.6067,65,48,0
382.6067,382.72476,62,53,0
382.72476,382.8428,65,46,0
382.8428,382.96085,61,53,0
382.96085,383.0789,65,46,0
383.0789,383.19693,62,53,0
383.19693,383.34045,65,47,0
383.57654,383.81262,51,38,0
383.81262,384.0487,50,40,0
384.0487,384.2848,51,38,0
384.5209,384.757,53,38,0
384.757,384.99307,52,40,0
384.99307,385.22916,53,38,0
385.46527,385.70135,54,38,0
385.70135,385.93744,52,42,0
385.93744,386.17352,54,38,0
386.4096,386.64572,55,40,0
386.64572,386.8818,54,42,0
386.8818,387.1179,55,39,0
387.58203,388.04617,72,54,0
387.58203,388.04617,63,54,0
388.04617,388.53094,74,54,0
388.53094,389.0336,75,45,0
388.04617,389.0336,65,54,0
389.0336,389.972,74,41,0
389.0336,389.972,70,34,0
389.972,390.9083,74,34,0
389.972,390.9083,70,28,0
390.9083,391.84564,77,35,0
390.9083,391.84564,74,29,0
390.9083,391.84564,71,29,0
391.84564,392.8035,75,34,0
391.84564,392.8035,72,28,0
392.8035,393.7398,75,35,0
392.8035,393.7398,72,29,0
392.8035,393.7398,69,29,0
393.7398,394.6873,74,33,0
393.7398,394.6873,70,28,0
394.6873,395.62866,74,35,0
394.6873,395.62866,70,29,0
394.6873,395.62866,67,29,0
395.62866,396.56302,72,33,0
395.62866,396.56302,69,28,0
396.56302,397.50037,72,33,0
396.56302,397.50037,69,28,0
396.56302,397.50037,66,28,0
397.50037,398.46567,70,34,0
397.50037,398.46567,67,28,0
398.71024,398.95377,70,36,0
398.71024,398.95377,64,30,0
398.9548,399.19833,70,42,0
398.9548,399.19937,64,35,0
399.19937,399.4439,70,38,0
399.19937,399.4439,64,32,0
399.68524,399.92654,70,41,0
399.68524,399.92654,65,34,0
399.92654,400.16785,70,46,0
399.92654,400.16785,65,39,0
400.16785,400.40918,70,44,0
400.16785,400.40918,65,37,0
400.64838,400.88757,70,46,0
400.64838,400.88757,67,39,0
400.88757,401.12677,70,53,0
400.88757,401.12677,67,45,0
401.12677,401.36594,70,50,0
401.12677,401.36594,67,42,0
401.6041,401.84225,70,63,0
401.6041,401.84225,66,53,0
401.84225,402.0804,70,69,0
401.84225,402.0804,66,58,0
402.0804,402.31857,70,64,0
402.0804,402.31857,66,54,0
402.31857,402.7928,70,63,0
402.31857,402.7928,65,53,0
402.7928,403.26294,70,63,0
402.7928,403.26294,62,53,0
403.26294,403.72513,70,63,0
403.26294,403.72513,63,53,0
403.72513,404.1796,65,63,0
403.72513,404.1796,60,53,0
404.1796,404.64163,65,60,0
404.1796,404.64163,58,51,0
404.64163,405.10175,53,51,0
404.64163,405.10175,50,43,0
405.10175,405.5628,58,50,0
405.10175,405.5628,51,42,0
405.5628,406.0173,55,46,0
405.5628,406.0173,51,39,0
406.487,406.95316,50,46,0
406.95316,407.42944,51,46,0
406.487,407.42944,58,46,0
407.42944,407.90576,53,46,0
407.42944,407.90576,57,46,0
407.90576,408.02484,58,52,0
407.90576,408.02484,46,52,0
408.37695,408.61002,57,35,0
408.61002,408.8431,56,33,0
408.8431,408.96323,55,43,0
408.8431,408.96323,46,43,0
409.3164,409.54947,57,35,0
409.54947,409.78253,56,33,0
409.78253,409.9011,55,42,0
409.78253,409.9011,46,42,0
410.25272,410.48578,57,47,0
410.48578,410.71884,56,47,0
410.71884,410.9519,55,51,0
410.9519,411.18497,50,50,0
411.18497,411.41803,51,50,0
411.41803,411.65515,48,50,0
411.65515,412.12128,50,57,0
412.59146,413.0576,51,53,0
413.5237,413.7598,53,52,0
413.7598,413.9959,58,48,0
413.9959,414.23828,62,48,0
414.23828,414.47437,58,48,0
414.47437,414.71677,53,53,0
414.71677,414.95914,60,49,0
414.95914,415.20932,63,49,0
415.20932,415.45947,60,48,0
415.45947,415.58456,62,56,0
415.45947,415.58456,58,56,0
415.94272,416.17578,69,35,0
416.17578,416.40884,68,35,0
416.40884,416.52896,67,43,0
416.40884,416.52896,58,43,0
416.64908,416.88214,70,35,0
416.88214,417.1152,69,35,0
417.1152,417.34827,68,35,0
417.34827,417.46683,67,46,0
417.34827,417.46683,58,46,0
417.5854,417.81845,70,38,0
417.81845,418.0515,69,47,0
418.0515,418.28458,68,47,0
418.28458,418.51764,67,51,0
418.51764,418.7507,62,49,0
418.7507,418.98453,63,50,0
418.98453,419.22324,60,50,0
419.22324,419.68936,62,68,0
419.22324,419.68936,50,68,0
420.1618,420.62793,51,69,0
420.1618,420.62793,63,69,0
421.09406,421.2106,53,48,0
421.2106,421.32712,62,41,0
421.32712,421.44516,58,44,0
421.44516,421.5632,62,39,0
421.5632,421.68124,53,48,0
421.68124,421.79932,62,40,0
421.79932,421.91736,58,44,0
421.91736,422.0354,62,41,0
422.0354,422.15192,53,48,0
422.15192,422.26846,62,42,0
422.26846,422.38498,58,46,0
422.38498,422.50143,62,42,0
422.50143,422.61697,53,48,0
422.61697,422.7325,62,44,0
422.7325,422.84808,58,46,0
422.84808,422.96387,62,43,0
422.96387,423.07526,53,48,0
423.07526,423.18555,63,40,0
423.18555,423.294,57,43,0
423.294,423.4028,63,40,0
423.4028,423.51028,53,48,0
423.51028,423.61765,63,39,0
423.61765,423.72638,57,43,0
423.72638,423.8375,63,39,0
423.8375,423.95172,53,48,0
423.95172,424.06824,63,39,0
424.06824,424.18527,57,43,0
424.18527,424.30283,63,38,0
424.30283,424.42087,53,48,0
424.42087,424.53943,63,42,0
424.53943,424.65848,57,45,0
424.65848,424.77808,63,40,0
424.77808,425.01834,58,51,0
425.01834,425.25858,70,44,0
425.25858,425.49884,69,44,0
425.49884,425.73273,70,48,0
425.73273,425.9696,72,49,0
425.9696,426.2096,70,52,0
426.2096,426.4528,69,56,0
426.4528,426.69928,68,59,0
426.69928,426.93234,67,64,0
426.93234,427.1654,58,49,0
427.1654,427.39847,66,58,0
427.39847,427.6346,58,49,0
427.6346,427.86816,65,57,0
427.86816,428.10376,58,48,0
428.10376,428.3414,69,55,0
428.3414,428.58112,58,48,0
428.58112,428.70178,70,53,0
428.82242,429.06375,58,41,0
429.06375,429.30505,57,41,0
429.30505,429.54636,58,37,0
429.54636,429.78894,60,45,0
429.78894,430.03525,58,43,0
430.03525,430.2856,57,43,0
430.2856,430.53995,56,38,0
430.53995,431.05444,55,45,0
431.05444,431.5928,51,35,0
431.5928,432.13278,53,35,0
432.13278,432.67462,53,35,0
432.67462,433.2674,58,37,0
433.2674,433.92847,53,28,0
433.92847,434.4243,46,28,0
435.57333,435.80942,41,33,0
435.80942,436.04553,45,35,0
436.04553,436.28162,48,33,0
436.28162,436.5177,45,38,0
436.5177,436.75076,41,32,0
436.75076,436.98383,45,34,0
436.98383,437.2169,48,32,0
437.45297,437.6891,55,32,0
437.6891,437.92517,58,35,0
437.92517,438.16125,64,33,0
438.16125,438.39734,58,34,0
438.39734,438.63342,55,30,0
438.63342,438.8665,58,34,0
438.8665,439.09955,64,30,0
439.33667,439.5738,43,32,0
439.5738,439.8109,46,35,0
439.8109,440.04803,52,32,0
440.04803,440.28516,46,39,0
440.28516,440.5192,43,33,0
440.5192,440.75327,46,35,0
440.75327,440.98734,52,33,0
441.22446,441.46158,57,33,0
441.46158,441.6987,60,35,0
441.6987,441.9358,63,34,0
441.9358,442.1729,60,37,0
442.1729,442.40598,57,32,0
442.40598,442.63904,60,34,0
442.63904,442.8825,63,34,0
443.11963,443.35675,46,41,0
443.35675,443.5844,50,47,0
443.5844,443.83005,55,44,0
444.06717,444.3043,48,46,0
444.3043,444.53024,55,49,0
444.53024,444.7737,58,46,0
445.0108,445.24792,50,48,0
445.24792,445.48505,53,50,0
445.48505,445.72217,56,45,0
445.72217,445.96783,53,52,0
445.96783,446.20493,50,49,0
446.20493,446.44205,53,53,0
446.44205,446.67917,56,50,0
446.67917,447.61142,57,63,0
446.67917,447.61142,48,63,0
447.61142,448.1001,60,48,0
448.1001,448.6139,48,45,0
448.6139,448.73245,53,41,0
448.73245,448.851,60,34,0
448.851,448.96957,56,37,0
448.96957,449.08813,60,34,0
449.08813,449.2304,53,41,0
449.2067,449.34897,60,34,0
449.32526,449.46753,56,37,0
449.44382,449.58606,60,34,0
449.56235,449.70462,53,46,0
449.6809,449.82318,60,36,0
449.79947,449.94174,56,41,0
449.91803,450.0603,60,37,0
450.0366,450.17886,53,49,0
450.15515,450.29742,60,39,0
450.2737,450.416,56,44,0
450.39227,450.53455,60,39,0
450.51083,450.65463,53,49,0
450.6294,450.77933,60,43,0
450.7556,450.8979,56,45,0
450.87418,451.01645,60,43,0
450.99274,451.13574,53,49,0
451.1113,451.2573,60,43,0
451.23358,451.37585,56,45,0
451.35214,451.49442,60,43,0
451.4707,451.61298,53,48,0
451.58926,451.73154,62,39,0
451.70782,451.8501,56,45,0
451.8264,451.96863,62,40,0
451.94492,452.0872,53,47,0
452.06348,452.20575,62,40,0
452.18204,452.3243,56,45,0
452.3006,452.44394,62,40,0
452.41916,452.54312,55,54,0
452.54312,452.66705,65,46,0
452.66705,452.7846,62,48,0
452.7846,452.90213,65,45,0
452.90213,453.01965,55,54,0
453.01965,453.1372,65,45,0
453.1372,453.25473,62,48,0
453.25473,453.37228,65,45,0
453.37228,453.4898,55,54,0
453.4898,453.60736,65,46,0
453.60736,453.72488,62,48,0
453.72488,453.8424,65,45,0
453.8424,453.95996,55,52,0
453.95996,454.07748,65,45,0
454.07748,454.19504,62,48,0
454.19504,454.31256,65,45,0
454.31256,454.4301,55,53,0
454.4301,454.54764,65,45,0
454.54764,454.66516,62,48,0
454.66516,454.7827,65,45,0
454.7827,454.90024,55,53,0
454.90024,455.0178,65,45,0
455.0178,455.1353,62,48,0
455.1353,455.25287,65,45,0
455.25287,455.3704,55,53,0
455.3704,455.48795,62,46,0
455.48795,455.60547,59,48,0
455.60547,455.723,62,45,0
455.723,455.84055,55,53,0
455.84055,455.95807,62,45,0
455.95807,456.08124,59,48,0
456.08124,456.20444,62,45,0
456.20444,456.32465,55,48,0
456.32465,456.44202,64,39,0
456.44202,456.55942,60,44,0
456.55942,456.6768,64,39,0
456.6768,456.7942,55,48,0
456.7942,456.9116,63,41,0
456.9116,457.02896,60,44,0
457.02896,457.14636,63,41,0
457.14636,457.28717,55,48,0
457.26376,457.40417,63,40,0
457.38077,457.5212,60,44,0
457.4978,457.63824,63,38,0
457.61484,457.75528,55,48,0
457.73187,457.8723,63,40,0
457.8489,457.98935,60,45,0
457.96594,458.10678,63,40,0
458.08298,458.20206,54,54,0
458.20206,458.32114,63,40,0
458.32114,458.44022,58,44,0
458.44022,458.55673,63,41,0
458.55673,458.67328,54,49,0
458.67328,458.7898,63,42,0
458.7898,458.90634,58,45,0
458.90634,459.02286,63,40,0
459.02286,459.14194,54,54,0
459.14194,459.26102,63,42,0
459.26102,459.3801,58,45,0
459.3801,459.4966,63,42,0
459.4966,459.61316,54,48,0
459.61316,459.72968,63,40,0
459.72968,459.84622,58,45,0
459.84622,459.96274,63,40,0
459.96274,460.08078,53,49,0
460.08078,460.19885,63,40,0
460.19885,460.3169,60,45,0
460.3169,460.43494,63,41,0
460.43494,460.55298,53,50,0
460.55298,460.67102,63,42,0
460.67102,460.78906,60,45,0
460.78906,460.9071,63,40,0
460.9071,461.04694,53,50,0
461.02365,461.16348,63,43,0
461.14017,461.28,60,48,0
461.2567,461.39655,63,43,0
461.37323,461.5131,53,54,0
461.48978,461.6296,63,45,0
461.6063,461.74615,60,48,0
461.72284,461.86267,63,45,0
461.83936,461.97922,53,54,0
461.9559,462.09573,63,45,0
462.07242,462.21228,60,48,0
462.18896,462.3287,63,44,0
462.30548,462.445,53,54,0
462.4217,462.56223,63,45,0
462.53873,462.68033,60,48,0
462.65662,462.79935,63,44,0
462.77542,462.91895,53,52,0
462.89502,463.0381,60,44,0
463.01428,463.1569,57,48,0
463.13318,463.27533,60,44,0
463.25174,463.39337,53,53,0
463.36978,463.511,60,44,0
463.4875,463.62827,57,47,0
463.60486,463.74622,60,44,0
463.7219,463.84363,54,44,0
463.84363,463.96536,60,39,0
463.96536,464.10886,57,40,0
464.08496,464.22845,60,35,0
464.20456,464.32416,54,44,0
464.32416,464.44376,60,33,0
464.44376,464.56335,57,39,0
464.56335,464.68295,60,34,0
464.68295,464.80255,54,44,0
464.80255,464.92215,60,33,0
464.92215,465.04175,57,39,0
465.04175,465.16135,60,33,0
465.16135,465.28094,54,44,0
465.28094,465.40054,62,35,0
465.40054,465.52014,57,39,0
465.52014,465.63974,62,34,0
465.63974,465.75934,55,48,0
465.75934,465.87894,62,39,0
465.87894,465.99854,58,44,0
465.99854,466.11813,62,39,0
466.11813,466.23773,53,48,0
466.23773,466.35733,62,38,0
466.35733,466.47693,57,44,0
466.47693,466.59653,62,38,0
466.59653,466.73636,52,48,0
466.71304,466.85287,62,38,0
466.8296,466.96942,55,44,0
466.9461,467.08594,62,37,0
467.06265,467.20248,51,48,0
467.17917,467.319,61,38,0
467.29572,467.43555,55,44,0
467.41223,467.55515,61,39,0
467.52878,468.0194,62,38,0
467.52878,468.0194,50,38,0
468.96393,469.43005,66,45,0
468.96393,469.43005,62,45,0
469.43005,469.8972,67,45,0
469.43005,469.8972,63,45,0
470.84784,471.3326,61,54,0
470.84784,471.3326,51,54,0
471.3326,471.81418,62,49,0
471.3326,471.81418,50,49,0
472.7608,473.22693,60,45,0
472.7608,473.22693,50,45,0
473.22693,473.69434,58,42,0
473.22693,473.69434,51,42,0
474.65344,475.13608,55,32,0
474.65344,475.13608,51,32,0
475.13608,475.37317,54,24,0
475.13608,475.37317,50,24,0
475.61996,475.86673,58,27,0
475.61996,475.86673,55,27,0
475.61996,475.86673,50,27,0
476.10385,476.34097,57,28,0
476.10385,476.34097,54,28,0
476.10385,476.34097,50,28,0
476.5791,476.81726,58,32,0
476.5791,476.81726,55,32,0
476.5791,476.81726,50,32,0
477.05542,477.52966,57,34,0
477.05542,477.52966,54,34,0
477.05542,477.52966,50,34,0
479.21164,479.4551,69,34,0
479.21164,479.4551,65,30,0
479.21164,479.4551,60,30,0
479.4551,479.69855,69,37,0
479.4551,479.69855,65,33,0
479.4551,479.69855,60,33,0
479.69855,479.94202,69,40,0
479.69855,479.94202,65,36,0
479.69855,479.94202,60,36,0
479.94202,480.42484,69,44,0
479.94202,480.42484,65,39,0
479.94202,480.42484,60,39,0
481.15317,481.39557,75,36,0
481.15317,481.39557,72,32,0
481.15317,481.39557,65,32,0
481.39557,481.63794,75,40,0
481.39557,481.63794,72,36,0
481.39557,481.63794,65,36,0
481.63794,481.88034,75,44,0
481.63794,481.88034,72,39,0
481.63794,481.88034,65,39,0
481.88034,482.35876,75,47,0
481.88034,482.35876,72,42,0
481.88034,482.35876,65,42,0
483.08698,483.32938,65,47,0
483.32938,483.57175,72,45,0
483.57175,483.81415,75,45,0
483.81415,484.78012,66,47,0
485.02252,485.2649,65,38,0
485.2649,485.5073,72,41,0
485.5073,485.74966,75,37,0
485.74966,486.7044,66,49,0
486.7044,486.9463,65,46,0
487.1834,487.65765,66,52,0
487.65765,488.1356,65,49,0
487.1834,488.1356,75,52,0
487.1834,488.1356,72,52,0
488.1356,488.60983,66,53,0
488.60983,489.08725,65,50,0
488.1356,489.08725,75,53,0
488.1356,489.08725,72,53,0
492.84204,493.07812,58,37,0
493.07812,493.31424,62,37,0
493.31424,493.55032,65,33,0
493.55032,493.7864,62,36,0
493.7864,494.01947,58,33,0
494.01947,494.25253,62,41,0
494.25253,494.49384,67,38,0
494.72995,494.96603,60,34,0
494.96603,495.20212,63,39,0
495.20212,495.4382,67,36,0
495.4382,495.6743,63,44,0
495.6743,495.90735,60,37,0
495.90735,496.14044,63,38,0
496.14044,496.3735,67,34,0
496.60657,496.8468,53,35,0
496.8468,497.07986,60,35,0
497.07986,497.31293,63,34,0
497.31293,497.546,60,47,0
497.546,497.77905,53,36,0
497.77905,498.01212,60,43,0
498.01212,498.25778,63,36,0
498.49594,498.7341,58,42,0
498.7341,498.97223,62,42,0
498.97223,499.2104,65,36,0
499.2104,499.44855,62,45,0
499.44855,499.67963,58,42,0
499.67963,499.91074,62,42,0
499.91074,500.1418,65,39,0
500.1418,500.37894,63,45,0
500.37894,500.61606,67,37,0
500.61606,500.85315,62,40,0
500.85315,501.0862,65,35,0
501.0862,501.32333,63,45,0
501.32333,501.56046,67,35,0
501.56046,501.79758,60,38,0
501.79758,502.03064,63,32,0
502.03064,502.49478,65,42,0
502.03064,502.49478,62,42,0
503.89172,504.12378,63,47,0
504.12378,504.35587,67,36,0
504.35587,504.58795,62,40,0
504.58795,504.82,65,33,0
504.82,505.0521,63,47,0
505.0521,505.28415,67,37,0
505.28415,505.51624,60,39,0
505.51624,505.7483,63,32,0
505.7483,506.21243,62,47,0
505.7483,506.21243,65,47,0
507.60095,508.0711,57,61,0
508.0711,508.54126,58,55,0
508.54126,509.0084,51,63,0
509.0084,509.4956,53,57,0
509.73376,509.85266,46,52,0
509.973,510.09518,50,55,0
510.2194,510.34555,53,50,0
510.47388,510.99326,58,61,0
511.72974,511.96686,46,34,0
511.96686,512.204,50,37,0
512.204,512.4411,53,34,0
512.4411,512.6782,50,43,0
512.6782,512.91846,46,35,0
512.91846,513.1587,50,39,0
513.1587,513.4071,53,39,0
513.6506,513.89404,46,37,0
513.89404,514.1375,50,41,0
514.1375,514.381,53,37,0
514.381,514.62445,50,43,0
514.62445,514.86053,46,38,0
514.86053,515.0966,50,38,0
515.0966,515.3327,53,34,0
515.5658,515.7988,46,47,0
515.7988,516.0319,50,47,0
516.0319,516.26495,53,45,0
516.26495,516.49805,56,53,0
516.49805,516.7311,53,45,0
516.7311,516.9642,50,48,0
516.9642,517.21027,46,45,0
517.45374,517.6972,47,36,0
517.6972,517.9406,50,36,0
517.9406,518.1841,53,36,0
518.1841,518.42755,55,41,0
518.42755,518.671,53,33,0
518.671,518.9061,50,34,0
518.9061,519.1412,47,32,0
519.38354,519.626,58,33,0
519.626,519.86835,61,36,0
519.86835,520.1107,64,32,0
520.1107,520.6033,67,40,0
521.33044,521.5728,57,34,0
521.5728,521.8152,60,34,0
521.8152,522.0576,65,32,0
522.0576,522.5371,69,39,0
523.2765,523.52106,58,32,0
523.52106,523.7656,62,34,0
523.7656,524.0102,65,30,0
524.0102,524.49084,70,38,0
524.963,525.1991,63,42,0
525.1991,525.4352,67,38,0
525.4352,525.67126,63,42,0
525.67126,525.90735,65,38,0
525.90735,526.14197,62,41,0
526.14197,526.375,65,38,0
526.375,526.6081,62,41,0
526.6081,526.8411,65,38,0
526.8411,527.08246,63,41,0
527.08246,527.3196,65,38,0
527.3196,527.5567,63,41,0
527.5567,527.7938,65,38,0
527.7938,528.0289,62,41,0
528.0289,528.26196,65,38,0
528.26196,528.495,62,41,0
528.495,528.7281,65,38,0
528.7281,528.9652,63,41,0
528.9652,529.20233,67,38,0
529.20233,529.43945,63,41,0
529.43945,529.6725,67,38,0
529.6725,529.9096,64,41,0
529.9096,530.1467,67,38,0
530.1467,530.38385,64,41,0
530.38385,530.6149,67,38,0
530.6149,531.0771,53,41,0
531.0771,531.5393,55,47,0
531.5393,532.00146,57,52,0
532.00146,532.4636,58,58,0
532.4636,532.6997,60,64,0
532.6997,532.93585,65,45,0
532.93585,533.17194,57,51,0
533.17194,533.406,65,46,0
533.406,533.64,58,52,0
533.64,533.8741,65,46,0
533.8741,534.10815,55,52,0
534.10815,534.3422,65,46,0
534.3422,534.8044,53,40,0
534.8044,535.2666,55,46,0
535.2666,535.72876,57,51,0
535.72876,536.1909,58,58,0
536.1909,536.3095,60,64,0
536.3095,536.42804,65,45,0
536.42804,536.54663,64,49,0
536.54663,536.66516,65,45,0
536.66516,536.78375,57,56,0
536.78375,536.9023,65,46,0
536.9023,537.0209,64,49,0
537.0209,537.1394,65,46,0
537.1394,537.258,58,56,0
537.258,537.3765,65,46,0
537.3765,537.4951,64,49,0
537.4951,537.61365,65,47,0
537.61365,537.7322,55,57,0
537.7322,537.85077,64,45,0
537.85077,537.9693,62,49,0
537.9693,538.0879,64,46,0
538.0879,538.5472,65,59,0
538.0879,538.5472,53,59,0
539.0265,539.27106,41,75,0
539.0265,539.27106,29,75,0
540.0047,540.93695,46,58,0
540.0047,540.93695,34,58,0
542.366,543.31177,51,57,0
542.366,543.31177,39,57,0
543.31177,543.7779,50,44,0
543.7779,544.2401,55,38,0
543.7779,544.2401,52,38,0
544.2401,544.70624,53,38,0
544.70624,545.1684,52,38,0
544.70624,545.1684,55,38,0
545.1684,545.6345,53,40,0
545.6345,546.1068,55,39,0
546.1068,546.57697,57,35,0
546.57697,547.0451,58,35,0
547.74835,547.9814,39,46,0
547.9814,548.2145,43,46,0
548.2145,548.4446,48,45,0
548.4446,548.9107,51,52,0
549.615,549.848,38,44,0
549.848,550.0811,41,44,0
550.0811,550.3122,46,43,0
550.3122,550.7783,50,52,0
551.24445,551.7157,48,44,0
551.7157,552.1818,45,41,0
552.1818,552.65204,46,43,0
552.65204,553.11615,43,42,0
553.11615,553.5843,41,44,0
554.04846,554.1645,53,53,0
554.1645,554.2805,55,49,0
554.2805,554.39655,51,54,0
554.39655,554.5126,53,49,0
554.5126,554.6286,50,54,0
554.6286,554.74615,51,49,0
554.74615,554.86523,48,56,0
554.86523,554.9859,50,49,0
554.9859,555.452,46,69,0
555.452,555.91815,58,58,0
557.3467,558.29114,63,59,0
557.3467,558.29114,51,59,0
558.29114,558.7533,62,43,0
558.7533,559.2155,67,43,0
558.7533,559.2155,64,43,0
559.2155,559.67773,65,43,0
559.67773,560.13995,67,43,0
559.67773,560.13995,64,43,0
560.13995,560.6061,65,41,0
560.6061,561.0803,70,43,0
560.6061,561.0803,67,43,0
561.0803,561.55457,72,43,0
561.0803,561.55457,69,43,0
561.55457,562.02374,70,46,0
562.72,562.952,55,54,0
562.952,563.06805,67,61,0
563.1841,563.3002,65,53,0
563.4152,563.5303,63,60,0
563.6453,563.8754,51,53,0
563.8754,563.9905,63,61,0
564.1055,564.2206,62,53,0
564.33563,564.5648,60,57,0
564.5648,564.7949,58,53,0
564.7949,565.026,57,53,0
565.026,565.25806,53,53,0
565.25806,565.72156,58,60,0
565.72156,566.18646,50,54,0
566.18646,566.64343,51,59,0
566.64343,567.09485,63,53,0
567.09485,567.565,65,54,0
567.565,568.0455,53,53,0
568.0455,568.16565,58,53,0
568.16565,568.28577,65,46,0
568.28577,568.4059,64,49,0
568.4059,568.526,65,46,0
568.526,568.6461,67,53,0
568.6461,568.76624,65,47,0
568.76624,568.88635,64,49,0
568.88635,569.0065,65,46,0
569.0065,569.12665,63,53,0
569.12665,569.24677,65,51,0
569.24677,569.3669,62,53,0
569.3669,569.487,65,49,0
569.487,569.6071,60,53,0
569.6071,569.72723,65,50,0
569.72723,569.84735,58,53,0
569.84735,569.96747,65,50,0
569.96747,570.08606,57,48,0
570.08606,570.2046,65,40,0
570.2046,570.3232,60,42,0
570.3232,570.4417,65,38,0
570.4417,570.5603,63,48,0
570.5603,570.67883,65,40,0
570.67883,570.7974,63,42,0
570.7974,570.91595,65,39,0
570.91595,571.03455,57,47,0
571.03455,571.1531,65,40,0
571.1531,571.2716,60,43,0
571.2716,571.3902,65,40,0
571.3902,571.5087,63,48,0
571.5087,571.6273,65,42,0
571.6273,571.74585,63,42,0
571.74585,571.86444,65,42,0
571.86444,571.98096,62,44,0
571.98096,572.0975,65,45,0
572.0975,572.21405,57,45,0
572.21405,572.33057,65,45,0
572.33057,572.4471,58,46,0
572.4471,572.5636,65,47,0
572.5636,572.6802,60,48,0
572.6802,572.80133,65,49,0
572.80133,572.9189,61,53,0
572.9189,573.03644,65,48,0
573.03644,573.15393,62,53,0
573.15393,573.2715,65,46,0
573.2715,573.38904,61,53,0
573.38904,573.5066,65,46,0
573.5066,573.6241,62,53,0
573.6241,573.74164,65,47,0
573.74164,573.85547,57,48,0
573.85547,573.9693,65,39,0
573.9693,574.0867,60,42,0
574.0867,574.20404,65,39,0
574.20404,574.3215,63,48,0
574.3215,574.43884,65,40,0
574.43884,574.5562,63,42,0
574.5562,574.67365,65,39,0
574.67365,574.791,57,47,0
574.791,574.9084,65,39,0
574.9084,575.0258,60,43,0
575.0258,575.1432,65,39,0
575.1432,575.26056,63,48,0
575.26056,575.3779,65,42,0
575.3779,575.49536,63,42,0
575.49536,575.61273,65,42,0
575.61273,575.72485,62,44,0
575.72485,575.837,65,45,0
575.837,575.9491,57,45,0
575.9491,576.0647,65,45,0
576.0647,576.1803,58,46,0
576.1803,576.29584,65,47,0
576.29584,576.41144,60,48,0
576.41144,576.5321,65,49,0
576.5321,576.65015,61,53,0
576.65015,576.7682,65,48,0
576.7682,576.8862,62,53,0
576.8862,577.0043,65,46,0
577.0043,577.1223,61,53,0
577.1223,577.24036,65,46,0
577.24036,577.3584,62,53,0
577.3584,577.5019,65,47,0
577.73804,577.9741,51,38,0
577.9741,578.2102,50,40,0
578.2102,578.4463,51,38,0
578.6824,578.91846,53,38,0
578.91846,579.15454,52,40,0
579.15454,579.3906,53,38,0
579.6267,579.8628,54,38,0
579.8628,580.09894,52,42,0
580.09894,580.335,54,38,0
580.5711,580.8072,55,40,0
580.8072,581.0433,54,42,0
581.0433,581.27936,55,39,0
581.7435,582.20764,72,54,0
581.7435,582.20764,63,54,0
582.20764,582.69244,74,54,0
582.69244,583.19507,75,45,0
582.20764,583.19507,65,54,0
583.19507,584.1335,74,41,0
583.19507,584.1335,70,34,0
584.1335,585.06976,74,34,0
584.1335,585.06976,70,28,0
585.06976,586.0071,77,35,0
585.06976,586.0071,74,29,0
585.06976,586.0071,71,29,0
586.0071,586.96497,75,34,0
586.0071,586.96497,72,28,0
586.96497,587.9013,75,35,0
586.96497,587.9013,72,29,0
586.96497,587.9013,69,29,0
587.9013,588.84875,74,33,0
587.9013,588.84875,70,28,0
588.84875,589.79016,74,35,0
588.84875,589.79016,70,29,0
588.84875,589.79016,67,29,0
589.79016,590.7245,72,33,0
589.79016,590.7245,69,28,0
590.7245,591.66187,72,33,0
590.7245,591.66187,69,28,0
590.7245,591.66187,66,28,0
591.66187,592.62714,70,34,0
591.66187,592.62714,67,28,0
592.8717,593.11523,70,36,0
592.8717,593.11523,64,30,0
593.1163,593.3598,70,42,0
593.1163,593.36084,64,35,0
593.36084,593.6054,70,38,0
593.36084,593.6054,64,32,0
593.8467,594.088,70,41,0
593.8467,594.088,65,34,0
594.088,594.32935,70,46,0
594.088,594.32935,65,39,0
594.32935,594.5706,70,44,0
594.32935,594.5706,65,37,0
594.8098,595.049,70,46,0
594.8098,595.049,67,39,0
595.049,595.2882,70,53,0
595.049,595.2882,67,45,0
595.2882,595.5274,70,50,0
595.2882,595.5274,67,42,0
595.76556,596.0037,70,63,0
595.76556,596.0037,66,53,0
596.0037,596.2419,70,69,0
596.0037,596.2419,66,58,0
596.2419,596.48004,70,64,0
596.2419,596.48004,66,54,0
596.48004,596.9543,70,63,0
596.48004,596.9543,65,53,0
596.9543,597.42444,70,63,0
596.9543,597.42444,62,53,0
597.42444,597.8866,70,63,0
597.42444,597.8866,63,53,0
597.8866,598.34106,65,63,0
597.8866,598.34106,60,53,0
598.34106,598.79944,65,60,0
598.34106,598.79944,58,51,0
598.79944,599.2573,53,51,0
598.79944,599.2573,50,43,0
599.2573,599.71625,58,50,0
599.2573,599.71625,51,42,0
599.71625,600.1707,55,46,0
599.71625,600.1707,51,39,0
600.64044,601.10657,50,46,0
601.10657,601.5813,51,46,0
600.64044,601.5813,58,46,0
601.5813,602.041,53,46,0
601.5813,602.041,57,46,0
602.041,602.1575,58,52,0
602.041,602.1575,46,52,0
602.507,602.7401,57,35,0
602.7401,602.97314,56,33,0
602.97314,603.09326,55,43,0
602.97314,603.09326,46,43,0
603.4465,603.6795,57,35,0
603.6795,603.9126,56,33,0
603.9126,604.0311,55,42,0
603.9126,604.0311,46,42,0
604.38275,604.61584,57,47,0
604.61584,604.8489,56,47,0
604.8489,605.082,55,51,0
605.082,605.315,50,50,0
605.315,605.5481,51,50,0
605.5481,605.7852,48,50,0
605.7852,606.25134,50,57,0
606.7215,607.1876,51,53,0
607.65375,607.8899,53,52,0
607.8899,608.126,58,48,0
608.126,608.36835,62,48,0
608.36835,608.60443,58,48,0
608.60443,608.8468,53,53,0
608.8468,609.0892,60,49,0
609.0892,609.33936,63,49,0
609.33936,609.58954,60,48,0
609.58954,609.7146,62,56,0
609.58954,609.7146,58,56,0
610.07275,610.30585,69,35,0
610.30585,610.5389,68,35,0
610.5389,610.659,67,43,0
610.5389,610.659,58,43,0
610.7791,611.0122,70,35,0
611.0122,611.2453,69,35,0
611.2453,611.47833,68,35,0
611.47833,611.59686,67,46,0
611.47833,611.59686,58,46,0
611.71545,611.9485,70,38,0
611.9485,612.1816,69,47,0
612.1816,612.4147,68,47,0
612.4147,612.6477,67,51,0
612.6477,612.8808,62,49,0
612.8808,613.11456,63,50,0
613.11456,613.3533,60,50,0
613.3533,613.81946,62,68,0
613.3533,613.81946,50,68,0
614.2919,614.758,51,69,0
614.2919,614.758,63,69,0
615.2241,615.34064,53,48,0
615.34064,615.45715,62,41,0
615.45715,615.5752,58,44,0
615.5752,615.69324,62,39,0
615.69324,615.81134,53,48,0
615.81134,615.9294,62,40,0
615.9294,616.0474,58,44,0
616.0474,616.16547,62,41,0
616.16547,616.282,53,48,0
616.282,616.3985,62,42,0
616.3985,616.515,58,46,0
616.515,616.6315,62,42,0
616.6315,616.747,53,48,0
616.747,616.8626,62,44,0
616.8626,616.97815,58,46,0
616.97815,617.09393,62,43,0
617.09393,617.2053,53,48,0
617.2053,617.3156,63,40,0
617.3156,617.4241,57,43,0
617.4241,617.53284,63,40,0
617.53284,617.6403,53,48,0
617.6403,617.7477,63,39,0
617.7477,617.85645,57,43,0
617.85645,617.9675,63,39,0
617.9675,618.0818,53,48,0
618.0818,618.1983,63,39,0
618.1983,618.3153,57,43,0
618.3153,618.43286,63,38,0
618.43286,618.5509,53,48,0
618.5509,618.6695,63,42,0
618.6695,618.7886,57,45,0
618.7886,618.90814,63,40,0
618.90814,619.1484,58,51,0
619.1484,619.3887,70,44,0
619.3887,619.6289,69,44,0
619.6289,619.8628,70,48,0
619.8628,620.0997,72,49,0
620.0997,620.33966,70,52,0
620.33966,620.5828,69,56,0
620.5828,620.82935,68,59,0
620.82935,621.0624,67,64,0
621.0624,621.2955,58,49,0
621.2955,621.52856,66,58,0
621.52856,621.76465,58,49,0
621.76465,621.9982,65,57,0
621.9982,622.2338,58,48,0
622.2338,622.47144,69,55,0
622.47144,622.7112,58,48,0
622.7112,622.83185,70,53,0
622.95245,623.1938,58,41,0
623.1938,623.4351,57,41,0
623.4351,623.6764,58,37,0
623.6764,623.919,60,45,0
623.919,624.1653,58,43,0
624.1653,624.41565,57,43,0
624.41565,624.67004,56,38,0
624.67004,625.1845,55,45,0
625.1845,625.72284,51,35,0
625.72284,626.2628,53,35,0
626.2628,626.8054,53,35,0
626.8054,627.4565,58,37,0
627.4565,628.3391,53,28,0
628.3391,629.3352,46,28,0
