start_time,end_time,note_value,velocity,instrument_program_number
1.996798,2.6709554,72,50,0
2.6709554,3.345113,72,50,0
3.345113,4.0192704,72,50,0
4.0192704,4.344509,72,52,0
4.344509,4.452922,74,47,0
4.452922,4.5613346,72,46,0
4.5613346,4.6697474,71,46,0
4.6697474,4.9822474,72,52,0
4.9822474,5.2947474,77,40,0
5.2947474,5.610537,72,44,0
5.9263263,6.600484,69,43,0
6.600484,7.2746415,72,48,0
7.2746415,7.98069,64,44,0
7.98069,9.329005,67,53,0
9.329005,10.003162,65,48,0
10.003162,10.65933,65,73,0
10.003162,10.65933,60,40,0
10.65933,11.315498,67,75,0
10.65933,11.315498,64,51,0
11.315498,11.971666,69,76,0
11.315498,11.971666,65,52,0
11.315498,11.971666,60,40,0
11.971666,12.950641,70,77,0
11.971666,12.950641,65,63,0
12.950641,13.094209,72,61,0
13.094209,13.23984,74,57,0
13.23984,13.580749,72,55,0
13.921658,14.565573,65,46,0
14.565573,15.235814,64,52,0
15.235814,15.962911,65,46,0
14.565573,15.962911,59,25,0
15.962911,17.361837,69,47,0
15.962911,17.361837,65,32,0
17.361837,18.0613,64,21,0
17.361837,18.0613,67,46,0
18.0613,18.705215,67,54,0
15.962911,18.705215,60,32,0
18.705215,19.34913,67,59,0
19.34913,19.843939,67,65,0
19.843939,20.01679,67,66,0
20.01679,20.982662,79,74,0
20.982662,21.143642,74,50,0
21.143642,21.30462,71,46,0
21.30462,21.948536,67,48,0
21.948536,22.592451,67,55,0
22.592451,23.236364,67,63,0
23.236364,23.744936,67,69,0
23.744936,23.93155,67,68,0
23.93155,25.737932,79,73,0
25.737932,25.824358,81,56,0
25.824358,25.910784,83,49,0
25.910784,26.256485,84,55,0
26.256485,26.602186,83,49,0
26.602186,26.927355,81,55,0
26.927355,27.252523,79,46,0
27.252523,27.57769,77,51,0
27.57769,27.902859,76,47,0
27.902859,28.241459,73,52,0
28.241459,28.58006,74,48,0
28.58006,28.918661,77,49,0
28.918661,29.283535,81,46,0
29.283535,31.315138,72,54,0
31.315138,31.653738,76,48,0
31.653738,31.99234,74,47,0
31.315138,31.99234,71,37,0
31.99234,33.34674,72,47,0
34.07845,34.75516,72,50,0
34.75516,35.429317,72,50,0
35.429317,36.103474,72,50,0
36.103474,36.428715,72,52,0
36.428715,36.537125,74,47,0
36.537125,36.64554,72,46,0
36.64554,36.753952,71,46,0
36.753952,37.060074,72,52,0
37.060074,37.366196,77,43,0
37.366196,37.688778,72,47,0
38.011356,38.685516,69,47,0
38.685516,39.359673,72,48,0
39.359673,40.065723,64,45,0
40.065723,41.414036,67,54,0
41.414036,42.088196,65,48,0
42.088196,42.74436,65,73,0
42.088196,42.74436,60,40,0
42.74436,43.40053,67,75,0
42.74436,43.40053,64,51,0
43.40053,44.056698,69,76,0
43.40053,44.056698,60,40,0
43.40053,44.056698,65,52,0
44.056698,45.02381,70,77,0
44.056698,45.02381,65,63,0
45.02381,45.164684,72,59,0
45.164684,45.30754,74,56,0
45.30754,45.64462,72,56,0
45.981697,46.625614,65,47,0
46.625614,47.295853,64,52,0
47.295853,48.02295,65,45,0
46.625614,48.02295,59,31,0
48.02295,49.42188,69,47,0
48.02295,49.42188,65,32,0
49.42188,50.12134,67,46,0
49.42188,50.12134,64,31,0
50.12134,50.765255,67,54,0
48.02295,50.765255,60,32,0
50.765255,51.409172,67,59,0
51.409172,51.90398,67,65,0
51.90398,52.07683,67,66,0
52.07683,53.0427,79,74,0
53.0427,53.203682,74,50,0
53.203682,53.364662,71,46,0
53.364662,54.008575,67,51,0
54.008575,54.65249,67,59,0
54.65249,55.296406,67,63,0
55.296406,55.804977,67,69,0
55.804977,55.99159,67,68,0
55.99159,57.797974,79,73,0
57.797974,57.8844,81,56,0
57.8844,57.970825,83,49,0
57.970825,58.316525,84,53,0
58.316525,58.662228,83,49,0
58.662228,58.987396,81,52,0
58.987396,59.312565,79,49,0
59.312565,59.63773,77,51,0
59.63773,59.9629,76,50,0
59.9629,60.3015,73,52,0
60.3015,60.6401,74,48,0
60.6401,60.9787,77,49,0
60.9787,61.343575,81,48,0
61.343575,63.37518,72,54,0
63.37518,63.71378,76,48,0
63.71378,64.052376,74,47,0
63.37518,64.052376,71,43,0
64.052376,65.406784,72,47,0
66.104454,66.74962,72,50,0
66.74962,67.09908,74,54,0
67.0722,67.42166,72,50,0
67.394775,67.746956,70,55,0
67.71736,68.10025,69,49,0
68.07247,69.40581,67,61,0
69.40581,70.044106,66,51,0
70.044106,70.67568,66,63,0
70.67568,71.30726,67,65,0
71.30726,71.8245,69,66,0
71.30726,71.8245,66,52,0
71.99692,73.3156,69,65,0
71.99692,73.3156,66,51,0
73.3156,73.909004,70,56,0
73.3156,73.909004,67,45,0
73.97494,74.613235,64,51,0
74.613235,75.25153,65,55,0
75.25153,75.730255,67,53,0
75.25153,75.730255,64,53,0
75.88983,76.52813,69,61,0
76.52813,77.16643,70,68,0
77.16643,77.804726,72,67,0
77.804726,78.44302,73,70,0
78.44302,78.79629,76,72,0
75.88983,79.0952,65,55,0
78.76911,79.122375,74,58,0
79.0952,79.45088,72,65,0
79.42129,79.80418,70,55,0
79.42129,79.80418,67,55,0
79.7764,81.10973,65,46,0
79.7764,81.10973,69,57,0
81.10973,81.7764,67,51,0
81.10973,81.7764,64,40,0
81.7764,82.42857,72,65,0
82.42857,83.08075,72,66,0
83.08075,83.7704,72,72,0
83.7704,85.72692,82,81,0
85.72692,86.36522,81,69,0
86.36522,87.00352,70,58,0
86.36522,87.00352,79,70,0
87.00352,87.67019,77,66,0
87.00352,87.67019,69,56,0
87.67019,89.04887,77,66,0
89.04887,89.74654,76,56,0
89.74654,90.4132,75,51,0
87.67019,90.4132,67,55,0
83.7704,90.4132,72,81,0
90.4132,91.07987,75,48,0
91.07987,91.740486,75,47,0
91.740486,91.81411,75,39,0
91.81411,91.88698,77,40,0
91.88698,91.958954,75,42,0
91.958954,92.030205,77,42,0
92.030205,92.10074,75,42,0
92.10074,92.17217,77,42,0
92.17217,92.246155,75,39,0
92.246155,92.31454,77,38,0
92.31454,92.62994,75,46,0
92.62994,92.97085,77,50,0
92.97085,93.652664,79,55,0
93.652664,93.993576,77,54,0
93.993576,94.33448,75,51,0
94.33448,94.67539,75,53,0
94.67539,94.99925,74,49,0
95.016304,95.35721,74,52,0
95.35721,95.72332,73,50,0
95.749466,97.105705,73,55,0
97.105705,97.77238,74,50,0
97.77238,98.094955,77,54,0
98.094955,98.417534,76,51,0
98.417534,98.74012,79,59,0
98.74012,99.0627,77,53,0
99.0627,99.41984,76,54,0
99.41984,99.77427,74,49,0
99.79958,101.1479,74,49,0
101.1479,101.82206,72,48,0
101.82206,102.276985,77,57,0
102.276985,102.434875,72,51,0
102.434875,102.8898,81,65,0
102.8898,103.0477,77,58,0
103.0477,103.521385,72,66,0
103.521385,103.679276,69,57,0
103.679276,104.60711,72,69,0
104.60711,104.91639,71,55,0
104.91639,105.53495,70,55,0
105.53495,105.99284,64,67,0
105.99284,106.150734,60,64,0
105.53495,106.150734,67,75,0
106.150734,106.602745,65,69,0
106.602745,106.76064,60,65,0
106.150734,106.76064,69,76,0
106.76064,107.209404,67,70,0
107.209404,107.36404,60,69,0
106.76064,107.36404,70,78,0
107.36404,107.71698,72,80,0
107.71698,108.05406,74,53,0
107.36404,108.05406,69,70,0
108.05406,108.391136,76,54,0
108.391136,108.72822,77,47,0
108.72822,110.70624,65,49,0
108.72822,110.70624,60,38,0
110.70624,111.05664,69,47,0
111.05664,111.420364,67,44,0
110.70624,111.420364,64,37,0
111.420364,112.74663,65,47,0
113.40975,114.05492,72,50,0
114.05492,114.40438,74,54,0
114.377495,114.72696,72,50,0
114.70008,115.05225,70,55,0
115.02266,115.40555,69,49,0
115.37777,116.711105,67,61,0
116.711105,117.336105,66,51,0
117.3494,117.98098,66,63,0
117.98098,118.612564,67,65,0
118.612564,119.1298,69,66,0
118.612564,119.1298,66,52,0
119.302216,120.620895,69,65,0
119.302216,120.620895,66,51,0
120.620895,121.2143,70,56,0
120.620895,121.2143,67,45,0
121.280235,121.91853,64,51,0
121.91853,122.55683,65,55,0
122.55683,123.03556,67,53,0
122.55683,123.03556,64,53,0
123.19513,123.83343,69,61,0
123.83343,124.471725,70,68,0
124.471725,125.11002,72,70,0
125.11002,125.74832,73,70,0
125.74832,126.101585,76,70,0
123.19513,126.4005,65,55,0
126.07441,126.42767,74,58,0
126.4005,126.75376,72,65,0
126.726585,127.08045,70,55,0
126.726585,127.08045,67,55,0
127.05267,128.386,65,46,0
127.05267,128.386,69,57,0
128.386,129.05267,67,51,0
128.386,129.05267,64,40,0
129.05267,129.70485,72,65,0
129.70485,130.35703,72,66,0
130.35703,131.04668,72,72,0
131.04668,133.00319,82,81,0
133.00319,133.6415,81,69,0
133.6415,134.27979,79,70,0
133.6415,134.27979,70,58,0
134.27979,134.94646,77,66,0
134.27979,134.94646,69,56,0
134.94646,136.32513,77,60,0
136.32513,137.02281,76,56,0
137.02281,137.68947,75,51,0
134.94646,137.68947,67,60,0
131.04668,137.68947,72,81,0
137.68947,138.35614,75,50,0
138.35614,139.01434,75,46,0
139.01434,139.08781,75,40,0
139.08781,139.16017,77,42,0
139.16017,139.23155,75,43,0
139.23155,139.30205,77,45,0
139.30205,139.37192,75,45,0
139.37192,139.44377,77,45,0
139.44377,139.5179,75,43,0
139.5179,139.58995,77,42,0
139.58995,139.91003,75,47,0
139.91003,140.25093,77,47,0
140.25093,140.93275,79,54,0
140.93275,141.27367,77,54,0
141.27367,141.60037,75,51,0
141.61458,141.95547,75,54,0
141.95547,142.28502,74,49,0
142.29639,142.6373,74,53,0
142.6373,143.03397,73,49,0
143.05121,144.43881,73,55,0
144.43881,145.10548,74,50,0
145.10548,145.42805,77,56,0
145.42805,145.75064,76,53,0
145.75064,146.07321,79,59,0
146.07321,146.3958,77,53,0
146.3958,146.75294,76,54,0
146.75294,147.11017,74,50,0
147.1257,148.47401,74,49,0
148.47401,149.14818,72,48,0
149.14818,149.60608,77,57,0
149.60608,149.76396,72,51,0
149.76396,150.2249,81,65,0
150.2249,150.38278,77,58,0
150.38278,150.85648,72,66,0
150.85648,151.01437,69,57,0
151.01437,151.9422,72,69,0
151.9422,152.25148,71,65,0
152.25148,152.87004,70,65,0
152.87004,153.32332,64,67,0
153.32332,153.47957,60,64,0
152.87004,153.47957,67,75,0
153.47957,153.93285,65,69,0
153.93285,154.0891,60,65,0
153.47957,154.0891,69,76,0
154.0891,154.54535,67,71,0
154.54535,154.7016,60,69,0
154.0891,154.7016,70,78,0
154.7016,155.05453,72,80,0
155.05453,155.39162,74,51,0
154.7016,155.39162,69,71,0
155.39162,155.7287,76,54,0
155.7287,156.06578,77,47,0
156.06578,158.0438,65,49,0
156.06578,158.0438,60,38,0
158.0438,158.38087,69,47,0
158.38087,158.71796,67,44,0
158.0438,158.71796,64,37,0
158.71796,160.06627,65,47,0
160.74042,161.38087,60,37,0
160.74042,161.38087,68,37,0
161.41458,162.05504,60,37,0
161.41458,162.05504,68,37,0
162.08875,162.7665,68,37,0
162.08875,162.7665,60,37,0
162.80287,164.74112,60,40,0
162.80287,164.74112,68,40,0
164.74112,165.38654,58,37,0
164.74112,165.38654,67,37,0
165.38654,166.03355,61,37,0
165.38654,166.03355,70,37,0
166.03355,166.7232,64,37,0
166.03355,166.7232,55,37,0
166.7232,168.63762,56,42,0
166.7232,168.63762,65,42,0
168.63762,169.24323,68,42,0
168.63762,169.24323,72,42,0
169.27481,169.893,68,44,0
169.27481,169.893,72,44,0
169.92528,170.61201,72,40,0
169.92528,170.61201,68,40,0
170.64816,172.56326,72,50,0
172.56326,173.20734,73,51,0
173.20734,173.86203,72,50,0
173.86203,174.35646,70,48,0
174.35646,174.52516,72,46,0
170.64816,174.52516,67,50,0
174.52516,175.17233,67,53,0
174.52516,175.17233,70,53,0
175.17233,175.81819,68,44,0
175.17233,175.81819,65,44,0
176.46059,177.09888,68,53,0
177.09888,177.73718,70,58,0
177.73718,178.37547,72,53,0
178.37547,179.02065,75,61,0
179.02065,179.6658,73,57,0
180.23032,180.31096,72,60,0
180.31096,180.87122,73,74,0
180.87122,180.95273,72,64,0
180.95273,181.53745,73,80,0
181.53745,181.62364,72,68,0
181.62364,182.35535,73,89,0
182.35535,182.68869,73,90,0
182.68869,182.78757,75,64,0
182.78757,182.88533,73,57,0
182.88533,182.98543,72,64,0
182.98543,183.30458,73,64,0
183.30458,183.66173,75,56,0
183.66173,185.63976,77,47,0
185.63976,185.96942,75,47,0
185.96942,186.29909,73,47,0
186.29909,186.62875,72,51,0
186.62875,186.95844,75,47,0
186.95844,187.2881,73,47,0
187.2881,187.61777,70,47,0
187.61777,189.5958,68,53,0
189.5958,189.92912,72,43,0
189.92912,190.26245,70,43,0
189.5958,190.26245,67,43,0
190.26245,191.5958,68,47,0
192.3275,192.96794,68,37,0
192.3275,192.96794,60,37,0
193.00165,193.6421,68,37,0
193.00165,193.6421,60,37,0
193.67581,194.3415,68,37,0
193.67581,194.3415,60,37,0
194.37703,196.31526,68,40,0
194.37703,196.31526,60,40,0
196.31526,196.94817,67,37,0
196.31526,196.94817,58,37,0
196.94817,197.59517,70,37,0
196.94817,197.59517,61,37,0
197.59517,198.28484,64,37,0
197.59517,198.28484,55,37,0
198.28484,200.19876,65,42,0
198.28484,200.19876,56,42,0
200.19876,200.80382,72,42,0
200.19876,200.80382,68,42,0
200.83539,201.4536,72,44,0
200.83539,201.4536,68,44,0
201.48586,202.17259,72,40,0
201.48586,202.17259,68,40,0
202.20874,204.12141,72,50,0
204.12141,204.76549,73,51,0
204.76549,205.42018,72,50,0
205.42018,205.91461,70,48,0
205.91461,206.08331,72,46,0
202.20874,206.08331,67,50,0
206.08331,206.73048,70,53,0
206.08331,206.73048,67,53,0
206.73048,207.37634,68,44,0
206.73048,207.37634,65,44,0
208.01874,208.65704,68,53,0
208.65704,209.29533,70,58,0
209.29533,209.93364,72,53,0
209.93364,210.5788,75,61,0
210.5788,211.22395,73,57,0
211.78847,211.86911,72,57,0
211.86911,212.42848,73,72,0
212.42848,212.50912,72,63,0
212.50912,213.09642,73,78,0
213.09642,213.18465,72,69,0
213.18465,213.91637,73,86,0
213.91637,214.25343,73,95,0
214.25343,214.35324,75,60,0
214.35324,214.4494,73,56,0
214.4494,214.54941,72,60,0
214.54941,214.85869,73,61,0
214.85869,215.21584,75,53,0
215.21584,217.19386,77,47,0
217.19386,217.52353,75,47,0
217.52353,217.8532,73,44,0
217.8532,218.18286,72,51,0
218.18286,218.51254,75,44,0
218.51254,218.84221,73,47,0
218.84221,219.17188,70,46,0
219.17188,221.1499,68,53,0
221.1499,221.48323,72,43,0
221.48323,221.81656,70,43,0
221.1499,221.81656,67,43,0
221.81656,223.1499,68,47,0
223.7882,224.40675,63,53,0
224.40675,225.00676,68,53,0
225.00676,225.61281,72,51,0
225.61281,227.34401,75,58,0
227.34401,227.65329,73,50,0
227.65329,227.96257,72,47,0
227.96257,228.55663,70,50,0
228.55663,229.0405,68,47,0
229.20178,230.41391,72,53,0
230.41391,230.98534,70,49,0
230.98534,231.56786,60,67,0
231.56786,232.14479,65,69,0
232.14479,232.73885,68,67,0
232.73885,234.46591,72,71,0
234.46591,234.75717,70,53,0
234.75717,235.04843,68,50,0
235.04843,235.63097,67,53,0
235.63097,236.12009,65,44,0
236.28314,237.53314,68,49,0
236.28314,237.53314,65,49,0
237.53314,238.10457,64,46,0
237.53314,238.10457,67,46,0
238.10457,238.676,72,60,0
238.676,239.24203,77,60,0
239.24203,239.80807,80,59,0
239.80807,240.3741,79,66,0
240.3741,240.91464,77,65,0
241.47762,242.04364,72,66,0
242.04364,242.5992,77,68,0
242.5992,243.15475,80,66,0
243.15475,243.72618,79,72,0
243.72618,244.2976,77,69,0
244.85837,245.42897,72,61,0
244.85837,245.42897,69,61,0
244.85837,245.42897,75,72,0
244.85837,245.42897,77,72,0
245.45868,246.04031,77,73,0
245.45868,246.04031,75,73,0
245.45868,246.04031,69,61,0
245.45868,246.04031,72,61,0
246.07092,246.66852,77,72,0
246.07092,246.66852,75,72,0
246.07092,246.66852,69,60,0
246.07092,246.66852,72,60,0
246.70027,247.0064,73,63,0
246.70027,247.0064,77,63,0
247.0064,247.29672,70,55,0
247.0064,247.29672,73,55,0
247.32898,247.63785,73,53,0
247.32898,247.63785,70,53,0
247.63785,247.92816,67,48,0
247.63785,247.92816,70,48,0
247.96042,249.08945,68,46,0
247.96042,249.08945,65,46,0
249.08945,249.25075,68,46,0
249.25075,249.87917,64,49,0
249.25075,249.87917,67,49,0
249.87917,250.20526,65,46,0
250.20526,250.54617,67,43,0
250.54617,251.9098,65,49,0
252.56198,253.17422,63,53,0
253.17422,253.75674,68,53,0
253.75674,254.35675,72,51,0
254.35675,256.07114,75,58,0
256.07114,256.3804,73,50,0
256.3804,256.6897,72,47,0
256.6897,257.28375,70,50,0
257.28375,257.7676,68,47,0
257.92892,259.14102,72,53,0
259.14102,259.71246,70,49,0
259.71246,260.29498,60,67,0
260.29498,260.87192,65,69,0
260.87192,261.46597,68,67,0
261.46597,263.19305,72,71,0
263.19305,263.4843,70,53,0
263.4843,263.77557,68,50,0
263.77557,264.3581,67,53,0
264.3581,264.84723,65,47,0
265.01025,266.26025,68,49,0
265.01025,266.26025,65,49,0
266.26025,266.8317,67,46,0
266.26025,266.8317,64,46,0
266.8317,267.4031,72,60,0
267.4031,267.96915,77,60,0
267.96915,268.5352,80,59,0
268.5352,269.10123,79,66,0
269.10123,269.64178,77,65,0
270.20474,270.77078,72,66,0
270.77078,271.32632,77,68,0
271.32632,271.8819,80,66,0
271.8819,272.4533,79,72,0
272.4533,273.02475,77,69,0
273.58548,274.1561,77,72,0
273.58548,274.1561,72,61,0
273.58548,274.1561,69,61,0
273.58548,274.1561,75,72,0
274.1858,274.76743,77,73,0
274.1858,274.76743,69,61,0
274.1858,274.76743,72,61,0
274.1858,274.76743,75,73,0
274.79803,275.4144,77,72,0
274.79803,275.4144,69,60,0
274.79803,275.4144,72,60,0
274.79803,275.4144,75,72,0
275.44684,275.7561,77,63,0
275.44684,275.7561,73,63,0
275.7561,276.04333,73,55,0
275.7561,276.04333,70,55,0
276.07526,276.3783,73,53,0
276.07526,276.3783,70,53,0
276.3783,276.6686,67,48,0
276.3783,276.6686,70,48,0
276.70087,277.8299,68,46,0
276.70087,277.8299,65,46,0
277.8299,277.9912,68,46,0
277.9912,278.61963,67,49,0
277.9912,278.61963,64,49,0
278.61963,278.9457,65,46,0
278.9457,279.28662,67,43,0
279.28662,280.65027,65,49,0
281.33206,281.9798,60,37,0
281.33206,281.9798,68,37,0
282.0139,282.66162,68,37,0
282.0139,282.66162,60,37,0
282.6957,283.34344,68,35,0
282.6957,283.34344,60,35,0
283.37753,285.32285,68,40,0
283.37753,285.32285,60,40,0
285.32285,285.96698,58,37,0
285.32285,285.96698,67,37,0
285.96698,286.61227,61,39,0
285.96698,286.61227,70,39,0
286.61227,287.29166,64,37,0
286.61227,287.29166,55,37,0
287.29166,289.23328,65,42,0
287.29166,289.23328,56,42,0
289.23328,289.85876,68,34,0
289.23328,289.85876,72,34,0
289.8925,290.52332,68,35,0
289.8925,290.52332,72,35,0
290.5559,291.28473,72,34,0
290.5559,291.28473,68,34,0
291.31735,293.27084,68,38,0
291.31735,293.27084,72,38,0
293.27084,293.96463,70,34,0
293.27084,293.96463,67,34,0
293.96463,294.6592,73,37,0
293.96463,294.6592,70,37,0
291.31735,294.6592,64,38,0
294.6592,295.51706,64,32,0
294.6592,295.51706,60,32,0
294.68353,295.5404,58,32,0
295.51706,297.11707,65,32,0
295.51706,297.11707,60,32,0
295.51706,297.11707,56,32,0
297.91705,298.59378,72,50,0
298.59378,299.26794,72,50,0
299.26794,299.94208,72,50,0
299.94208,300.26733,72,52,0
300.26733,300.37573,74,47,0
300.37573,300.48416,72,46,0
300.48416,300.59256,71,46,0
300.59256,300.8956,72,52,0
300.8956,301.20486,77,49,0
301.20486,301.52747,72,47,0
301.85004,302.5242,69,47,0
302.5242,303.19836,72,48,0
303.19836,303.9044,64,47,0
303.9044,305.25272,67,54,0
305.25272,305.92688,65,48,0
305.92688,306.58304,65,73,0
305.92688,306.58304,60,40,0
306.58304,307.2392,67,75,0
306.58304,307.2392,64,51,0
307.2392,307.8954,69,76,0
307.2392,307.8954,60,40,0
307.2392,307.8954,65,52,0
307.8954,308.85617,70,77,0
307.8954,308.85617,65,63,0
308.85617,308.9938,72,63,0
308.9938,309.1438,74,57,0
309.1438,309.4771,72,56,0
309.81046,310.45438,65,51,0
310.45438,311.1246,64,52,0
311.1246,311.8517,65,45,0
310.45438,311.8517,59,36,0
311.8517,313.25064,69,47,0
311.8517,313.25064,65,32,0
313.25064,313.9501,67,46,0
313.25064,313.9501,64,31,0
313.9501,314.59402,67,54,0
311.8517,314.59402,60,32,0
314.59402,315.23795,67,59,0
315.23795,315.73273,67,65,0
315.73273,315.90558,67,65,0
315.90558,316.87146,79,73,0
316.87146,317.03244,74,50,0
317.03244,317.19342,71,46,0
317.19342,317.83734,67,49,0
317.83734,318.48126,67,59,0
318.48126,319.12515,67,63,0
319.12515,319.63373,67,69,0
319.63373,319.82034,67,67,0
319.82034,321.62674,79,72,0
321.62674,321.71317,81,56,0
321.71317,321.7996,83,49,0
321.7996,322.1453,84,58,0
322.1453,322.491,83,51,0
322.491,322.81616,81,56,0
322.81616,323.14133,79,50,0
323.14133,323.4665,77,54,0
323.4665,323.79166,76,52,0
323.79166,324.13025,73,54,0
324.13025,324.46887,74,49,0
324.46887,324.80746,77,49,0
324.80746,325.17233,81,48,0
325.17233,327.20395,72,54,0
327.20395,327.54254,76,48,0
327.54254,327.88113,74,47,0
327.20395,327.88113,71,48,0
327.88113,329.23553,72,47,0
329.93323,330.57837,72,50,0
330.57837,330.92783,74,54,0
330.90097,331.25043,72,50,0
331.22354,331.573,70,55,0
331.5461,331.89648,69,49,0
331.8687,333.20203,67,61,0
333.20203,333.82703,66,51,0
333.84033,334.47192,66,63,0
334.47192,335.1035,67,65,0
335.1035,335.62073,69,66,0
335.1035,335.62073,66,52,0
335.79315,337.11182,69,65,0
335.79315,337.11182,66,51,0
337.11182,337.70523,70,56,0
337.11182,337.70523,67,45,0
337.77118,338.40945,64,51,0
338.40945,339.04776,65,55,0
339.04776,339.5265,67,53,0
339.04776,339.5265,64,53,0
339.68607,340.32437,69,61,0
340.32437,340.96265,70,68,0
340.96265,341.60095,72,67,0
341.60095,342.23926,73,70,0
342.23926,342.5925,76,72,0
339.68607,342.89142,65,56,0
342.56534,342.91733,74,65,0
342.89142,343.2313,72,64,0
343.20236,343.57706,70,58,0
343.20236,343.57706,67,47,0
343.5493,344.8826,65,46,0
343.5493,344.8826,69,57,0
344.8826,345.5493,67,51,0
344.8826,345.5493,64,40,0
345.5493,346.16882,72,65,0
346.20145,346.821,72,66,0
346.8536,347.5088,72,72,0
347.54327,349.4998,82,81,0
349.4998,350.1381,81,69,0
350.1381,350.7764,79,70,0
350.1381,350.7764,70,58,0
350.7764,351.44305,77,66,0
350.7764,351.44305,69,56,0
351.44305,352.82175,77,66,0
352.82175,353.48453,76,56,0
353.5194,354.15274,75,51,0
351.44305,354.18607,67,55,0
347.54327,354.18607,72,81,0
354.18607,354.8194,75,50,0
354.85275,355.4802,75,47,0
355.5096,355.58267,75,39,0
355.58267,355.65454,77,39,0
355.65454,355.72598,75,39,0
355.72598,355.7965,77,40,0
355.7965,355.86618,75,42,0
355.86618,355.93738,77,40,0
355.93738,356.01044,75,40,0
356.01044,356.08292,77,40,0
356.08292,356.39606,75,42,0
356.39606,356.73697,77,47,0
356.73697,357.41876,79,58,0
357.41876,357.75967,77,54,0
357.75967,358.0665,75,51,0
358.1006,358.4415,75,54,0
358.4415,358.74832,74,51,0
358.7824,359.12332,74,53,0
359.12332,359.47635,73,51,0
359.5156,360.87183,73,55,0
360.87183,361.53177,74,51,0
361.53177,361.85434,77,56,0
361.85434,362.17694,76,53,0
362.17694,362.4995,79,58,0
362.4995,362.82208,77,53,0
362.82208,363.17923,76,52,0
363.17923,363.54633,74,49,0
363.559,364.9073,74,49,0
364.9073,365.58145,72,48,0
365.58145,366.03638,77,57,0
366.03638,366.19427,72,51,0
366.19427,366.6492,81,65,0
366.6492,366.8071,77,58,0
366.8071,367.2808,72,66,0
367.2808,367.43866,69,57,0
367.43866,368.36652,72,69,0
368.36652,368.67578,71,65,0
368.67578,369.29434,70,65,0
369.29434,369.75223,64,67,0
369.75223,369.91013,60,64,0
369.29434,369.91013,67,75,0
369.91013,370.36215,65,67,0
370.36215,370.52005,60,63,0
369.91013,370.52005,69,75,0
370.52005,370.96878,67,67,0
370.96878,371.12344,60,64,0
370.52005,371.12344,70,75,0
371.12344,371.47638,72,76,0
371.47638,371.81345,74,53,0
371.12344,371.81345,69,61,0
371.81345,372.15054,76,57,0
372.15054,372.4876,77,53,0
372.4876,374.46564,65,49,0
372.4876,374.46564,60,38,0
374.46564,374.8027,69,47,0
374.8027,375.1398,67,44,0
374.46564,375.1398,64,37,0
375.1398,376.4881,65,47,0
377.1858,377.82623,69,37,0
377.1858,377.82623,60,33,0
377.85992,378.5004,69,40,0
377.85992,378.5004,60,36,0
378.5341,379.17453,69,37,0
378.5341,379.17453,60,33,0
379.20825,381.16476,60,36,0
379.20825,381.16476,69,40,0
381.16476,381.81696,57,37,0
381.16476,381.81696,65,42,0
381.81696,382.46912,70,45,0
381.81696,382.46912,67,39,0
382.46912,383.1213,67,42,0
382.46912,383.1213,64,37,0
383.1213,385.07782,69,44,0
383.1213,385.07782,72,49,0
385.07782,385.71115,69,48,0
385.07782,385.71115,77,54,0
385.74448,386.3778,77,56,0
385.74448,386.3778,69,50,0
386.41116,387.1308,69,47,0
386.41116,387.1308,77,53,0
387.17108,389.1605,65,42,0
387.17108,389.1605,69,47,0
389.1605,389.85815,72,34,0
389.1605,389.85815,69,30,0
389.85815,390.5684,70,33,0
389.85815,390.5684,67,29,0
390.5684,391.61395,67,30,0
390.5684,391.61395,58,27,0
390.5684,391.61395,64,30,0
391.61395,393.0257,57,27,0
391.61395,393.0257,65,30,0
4.0192704,6.600484,60,34,0
4.0192704,6.600484,57,30,0
4.0192704,6.600484,53,30,0
6.600484,7.98069,48,27,0
6.600484,7.98069,58,30,0
6.600484,7.98069,55,27,0
7.98069,9.329005,58,37,0
9.329005,10.003162,57,37,0
7.98069,10.003162,50,37,0
10.003162,10.65933,57,57,0
10.003162,10.65933,45,57,0
10.65933,11.315498,55,59,0
10.65933,11.315498,43,59,0
11.315498,11.971666,53,57,0
11.315498,11.971666,41,57,0
11.971666,12.627834,50,49,0
11.971666,12.627834,62,56,0
12.627834,13.23984,58,44,0
12.627834,13.23984,46,44,0
13.23984,13.580749,45,19,0
13.23984,13.580749,57,27,0
14.565573,15.962911,50,29,0
15.962911,18.705215,48,27,0
18.705215,20.01679,64,39,0
18.705215,20.01679,60,39,0
20.01679,22.592451,62,51,0
20.01679,22.592451,65,51,0
20.01679,22.592451,59,51,0
22.592451,23.93155,60,43,0
22.592451,23.93155,64,43,0
23.93155,25.21938,50,52,0
23.93155,25.21938,59,52,0
23.93155,25.21938,53,52,0
25.21938,26.602186,52,37,0
25.21938,26.602186,60,37,0
25.21938,26.602186,55,37,0
28.58006,29.283535,53,30,0
28.58006,29.283535,62,30,0
28.58006,29.283535,57,30,0
29.283535,30.637938,64,27,0
29.283535,30.637938,60,24,0
30.637938,31.99234,62,23,0
30.637938,31.99234,65,26,0
29.283535,31.99234,55,25,0
31.99234,33.34674,64,34,0
31.99234,33.34674,60,30,0
33.34674,34.07845,48,26,0
36.103474,38.685516,60,34,0
36.103474,38.685516,57,30,0
36.103474,38.685516,53,30,0
38.685516,40.065723,58,30,0
38.685516,40.065723,55,27,0
38.685516,40.065723,48,27,0
40.065723,41.414036,58,37,0
41.414036,42.088196,57,37,0
40.065723,42.088196,50,37,0
42.088196,42.74436,57,57,0
42.088196,42.74436,45,57,0
42.74436,43.40053,55,59,0
42.74436,43.40053,43,59,0
43.40053,44.056698,53,57,0
43.40053,44.056698,41,57,0
44.056698,44.712868,62,56,0
44.056698,44.712868,50,49,0
44.712868,45.30754,58,45,0
44.712868,45.30754,46,45,0
45.30754,45.64462,57,29,0
46.625614,48.02295,50,34,0
48.02295,50.765255,48,27,0
50.765255,52.07683,64,39,0
50.765255,52.07683,60,39,0
52.07683,54.65249,65,51,0
52.07683,54.65249,62,51,0
52.07683,54.65249,59,51,0
54.65249,55.99159,64,43,0
54.65249,55.99159,60,43,0
55.99159,57.27942,59,52,0
55.99159,57.27942,53,52,0
55.99159,57.27942,50,52,0
57.27942,58.662228,60,37,0
57.27942,58.662228,55,37,0
57.27942,58.662228,52,37,0
60.6401,61.343575,53,30,0
60.6401,61.343575,57,30,0
60.6401,61.343575,62,30,0
61.343575,62.69798,60,24,0
61.343575,62.69798,64,27,0
62.69798,64.052376,62,23,0
62.69798,64.052376,65,26,0
61.343575,64.052376,55,24,0
64.052376,65.406784,60,30,0
64.052376,65.406784,64,34,0
65.406784,66.104454,48,27,0
68.07247,70.044106,63,46,0
68.07247,70.044106,60,42,0
70.044106,70.67568,60,46,0
70.044106,70.67568,63,46,0
70.67568,71.30726,58,47,0
70.67568,71.30726,62,47,0
71.30726,71.99692,60,47,0
71.30726,71.99692,62,47,0
71.30726,71.99692,57,47,0
71.99692,73.3156,60,50,0
73.3156,73.909004,58,48,0
71.99692,73.97494,62,50,0
71.99692,73.97494,55,50,0
73.97494,74.613235,61,44,0
73.97494,74.613235,58,44,0
74.613235,75.25153,57,48,0
74.613235,75.25153,60,48,0
75.25153,75.88983,58,45,0
75.25153,75.88983,60,45,0
75.25153,75.88983,55,45,0
75.88983,76.52813,53,48,0
75.88983,76.52813,60,48,0
75.88983,76.52813,57,48,0
76.52813,77.16643,50,50,0
77.16643,78.44302,45,54,0
78.44302,79.0952,46,49,0
79.0952,79.42129,43,46,0
79.7764,82.42857,48,43,0
83.7704,84.748665,48,64,0
83.7704,84.748665,36,53,0
84.748665,85.07475,50,60,0
84.748665,85.07475,38,51,0
85.07475,85.56388,40,53,0
85.07475,85.56388,52,64,0
85.72692,86.20565,53,48,0
85.72692,86.20565,41,40,0
86.36522,86.84395,43,45,0
86.36522,86.84395,55,53,0
87.00352,87.50352,57,50,0
87.00352,87.50352,45,42,0
87.67019,90.4132,58,53,0
87.67019,90.4132,46,45,0
91.740486,92.97085,60,37,0
91.740486,92.97085,57,37,0
91.740486,92.97085,65,43,0
92.97085,94.33448,60,37,0
92.97085,94.33448,57,37,0
92.97085,94.33448,65,43,0
94.33448,95.749466,63,33,0
94.33448,95.749466,57,33,0
94.33448,95.749466,65,37,0
95.749466,98.417534,65,28,0
95.749466,98.417534,58,22,0
95.749466,98.417534,62,22,0
99.79958,101.1479,62,35,0
99.79958,101.1479,58,28,0
101.1479,102.434875,60,33,0
101.1479,102.434875,57,26,0
99.79958,102.434875,53,28,0
103.679276,105.53495,55,43,0
103.679276,105.53495,60,43,0
103.679276,105.53495,52,43,0
105.53495,106.150734,46,42,0
105.53495,106.150734,58,48,0
106.150734,106.76064,45,44,0
106.150734,106.76064,57,50,0
106.76064,107.36404,43,44,0
106.76064,107.36404,55,50,0
107.36404,108.05406,41,49,0
107.36404,108.05406,53,54,0
108.72822,110.0469,57,38,0
110.0469,111.420364,58,32,0
108.72822,111.420364,48,33,0
111.420364,112.74663,57,34,0
111.420364,112.74663,53,28,0
112.74663,113.40975,41,28,0
115.37777,117.3494,60,46,0
115.37777,117.3494,63,46,0
117.3494,117.98098,60,46,0
117.3494,117.98098,63,46,0
117.98098,118.612564,58,47,0
117.98098,118.612564,62,47,0
118.612564,119.302216,62,47,0
118.612564,119.302216,60,47,0
118.612564,119.302216,57,47,0
119.302216,120.620895,60,50,0
120.620895,121.2143,58,48,0
119.302216,121.280235,55,50,0
119.302216,121.280235,62,50,0
121.280235,121.91853,58,44,0
121.280235,121.91853,61,44,0
121.91853,122.55683,57,48,0
121.91853,122.55683,60,48,0
122.55683,123.19513,60,45,0
122.55683,123.19513,58,45,0
122.55683,123.19513,55,45,0
123.19513,123.83343,60,48,0
123.19513,123.83343,57,48,0
123.19513,123.83343,53,48,0
123.83343,124.471725,50,50,0
124.471725,125.74832,45,54,0
125.74832,126.4005,46,53,0
126.4005,126.726585,43,46,0
127.05267,129.70485,48,43,0
131.04668,132.02493,48,64,0
131.04668,132.02493,36,53,0
132.02493,132.35103,50,60,0
132.02493,132.35103,38,51,0
132.35103,132.84015,52,64,0
132.35103,132.84015,40,53,0
133.00319,133.48192,53,48,0
133.00319,133.48192,41,40,0
133.6415,134.12022,55,53,0
133.6415,134.12022,43,45,0
134.27979,134.77979,57,50,0
134.27979,134.77979,45,42,0
134.94646,137.68947,58,53,0
134.94646,137.68947,46,45,0
139.01434,140.25093,57,37,0
139.01434,140.25093,60,37,0
139.01434,140.25093,65,43,0
140.25093,141.61458,60,37,0
140.25093,141.61458,57,37,0
140.25093,141.61458,65,43,0
141.61458,143.05121,63,33,0
141.61458,143.05121,57,33,0
141.61458,143.05121,65,37,0
143.05121,145.75064,65,28,0
143.05121,145.75064,58,22,0
143.05121,145.75064,62,22,0
147.1257,148.47401,62,35,0
147.1257,148.47401,58,28,0
148.47401,149.76396,60,33,0
148.47401,149.76396,57,26,0
147.1257,149.76396,53,28,0
151.01437,152.87004,52,43,0
151.01437,152.87004,60,43,0
151.01437,152.87004,55,43,0
152.87004,153.47957,58,48,0
152.87004,153.47957,46,42,0
153.47957,154.0891,45,44,0
153.47957,154.0891,57,50,0
154.0891,154.7016,43,44,0
154.0891,154.7016,55,50,0
154.7016,155.39162,53,54,0
154.7016,155.39162,41,49,0
156.06578,157.38446,57,37,0
157.38446,158.71796,58,28,0
156.06578,158.71796,48,29,0
158.71796,160.06627,57,32,0
158.71796,160.06627,53,32,0
160.06627,160.74042,41,26,0
162.80287,163.12146,41,40,0
163.12146,163.41277,53,26,0
163.44469,163.74031,53,28,0
163.77257,164.064,53,26,0
164.09695,164.3885,53,24,0
164.42076,164.70953,53,22,0
164.74112,165.03317,53,25,0
165.06615,165.35356,53,22,0
165.38654,165.68019,53,29,0
165.7121,166.00128,53,25,0
166.03355,166.34389,53,27,0
166.37837,166.68872,53,25,0
166.7232,167.04416,41,34,0
167.04416,167.33798,53,24,0
167.37096,167.6607,53,26,0
167.69368,167.98317,53,23,0
168.01578,168.29413,53,25,0
168.32506,168.60571,53,22,0
168.63762,168.9252,53,25,0
168.95679,169.24323,53,22,0
169.27481,169.56796,53,28,0
169.60092,169.893,53,25,0
169.92528,170.25056,53,28,0
170.28671,170.61201,53,27,0
170.64816,170.96733,40,33,0
170.96733,171.2577,52,29,0
171.28996,171.58278,52,27,0
171.61436,171.90942,52,24,0
171.94168,172.22269,52,29,0
172.25394,172.53201,52,23,0
172.56326,172.85269,52,25,0
172.8853,173.17508,52,22,0
173.20734,173.50276,52,29,0
173.53467,173.82907,52,27,0
173.86203,174.15178,52,29,0
174.18404,174.4929,52,26,0
174.52516,174.84264,41,29,0
174.84264,175.13972,53,28,0
175.17233,175.46176,53,29,0
175.49437,175.78523,53,26,0
175.81819,177.09888,53,32,0
179.02065,179.63354,56,33,0
179.02065,179.63354,53,33,0
179.02065,179.63354,61,33,0
179.6658,180.2787,56,36,0
179.6658,180.2787,53,36,0
179.6658,180.2787,61,36,0
180.31096,180.92012,56,40,0
180.31096,180.92012,53,40,0
180.31096,180.92012,61,40,0
180.95273,181.58916,61,46,0
180.95273,181.58916,53,46,0
180.95273,181.58916,56,46,0
181.62364,182.31877,56,49,0
181.62364,182.31877,53,49,0
181.62364,182.31877,61,49,0
182.35535,184.98041,58,49,0
182.35535,184.98041,61,49,0
182.35535,184.98041,63,58,0
182.35535,184.98041,55,49,0
186.29909,186.95844,56,34,0
186.95844,187.61777,49,30,0
186.95844,187.61777,58,30,0
187.61777,188.93645,60,34,0
188.93645,190.26245,61,24,0
187.61777,190.26245,51,34,0
190.26245,191.5958,60,34,0
190.26245,191.5958,56,29,0
191.5958,192.3275,44,27,0
194.37703,194.69562,41,40,0
194.69562,194.98692,53,26,0
195.01884,195.31447,53,29,0
195.34673,195.63815,53,26,0
195.67111,195.96266,53,27,0
195.99492,196.28369,53,23,0
196.31526,196.59651,53,26,0
196.62776,196.91519,53,23,0
196.94817,197.2418,53,29,0
197.27373,197.56291,53,25,0
197.59517,197.90552,53,27,0
197.94,198.25035,53,26,0
198.28484,198.60579,41,34,0
198.60579,198.89961,53,26,0
198.93259,199.22514,53,27,0
199.2581,199.54759,53,23,0
199.5802,199.85855,53,26,0
199.88948,200.16783,53,23,0
200.19876,200.48578,53,25,0
200.51736,200.80382,53,23,0
200.83539,201.12854,53,28,0
201.1615,201.4536,53,26,0
201.48586,201.81116,53,28,0
201.84729,202.17259,53,26,0
202.20874,202.52791,40,33,0
202.52791,202.81828,52,29,0
202.85054,203.14381,52,27,0
203.17607,203.46758,52,27,0
203.49983,203.78084,52,28,0
203.81209,204.09016,52,23,0
204.12141,204.41084,52,26,0
204.44345,204.73323,52,24,0
204.76549,205.06091,52,29,0
205.09282,205.38722,52,27,0
205.42018,205.70993,52,29,0
205.74219,206.05106,52,26,0
206.08331,206.40079,41,29,0
206.40079,206.69788,53,27,0
206.73048,207.01991,53,29,0
207.05252,207.34338,53,28,0
207.37634,208.65704,53,33,0
210.5788,211.1917,53,33,0
210.5788,211.1917,56,33,0
210.5788,211.1917,61,33,0
211.22395,211.83685,53,36,0
211.22395,211.83685,56,36,0
211.22395,211.83685,61,36,0
211.86911,212.47687,53,40,0
211.86911,212.47687,56,40,0
211.86911,212.47687,61,40,0
212.50912,213.14935,53,46,0
212.50912,213.14935,56,46,0
212.50912,213.14935,61,46,0
213.18465,213.87978,53,49,0
213.18465,213.87978,56,49,0
213.18465,213.87978,61,49,0
213.91637,216.53452,55,48,0
213.91637,216.53452,63,57,0
213.91637,216.53452,61,48,0
213.91637,216.53452,58,48,0
217.8532,218.51254,56,34,0
218.51254,219.17188,58,30,0
218.51254,219.17188,49,30,0
219.17188,220.49055,60,34,0
220.49055,221.81656,61,23,0
219.17188,221.81656,51,34,0
221.81656,223.1499,60,34,0
221.81656,223.1499,56,29,0
223.1499,223.7882,44,30,0
226.20105,226.77797,56,43,0
226.77797,227.34401,60,45,0
227.34401,227.96257,63,45,0
227.96257,228.55663,53,47,0
228.55663,229.20178,62,43,0
229.80785,230.41391,51,40,0
230.41391,230.98534,55,40,0
230.98534,231.56786,52,58,0
230.98534,231.56786,58,58,0
231.56786,232.73885,53,58,0
231.56786,232.73885,56,58,0
233.87631,234.46591,53,52,0
234.46591,235.04843,56,45,0
235.04843,235.63097,58,45,0
235.63097,236.28314,59,42,0
233.30489,236.28314,49,54,0
236.28314,238.10457,60,37,0
236.28314,238.10457,48,37,0
239.24203,239.80807,44,49,0
239.80807,240.3741,46,53,0
240.3741,240.91464,58,51,0
240.91464,241.47762,59,53,0
241.47762,242.04364,60,51,0
242.5992,243.15475,48,56,0
243.15475,243.72618,49,58,0
243.72618,244.2976,61,58,0
244.2976,244.85837,63,65,0
244.85837,245.42897,48,51,0
244.85837,245.42897,60,61,0
245.45868,246.04031,57,59,0
245.45868,246.04031,45,50,0
246.07092,246.66852,53,59,0
246.07092,246.66852,41,50,0
246.70027,247.96042,46,46,0
246.70027,247.96042,58,46,0
247.96042,249.25075,48,37,0
247.96042,249.25075,60,37,0
249.25075,250.54617,58,37,0
249.25075,250.54617,48,37,0
250.54617,251.9098,53,37,0
250.54617,251.9098,56,37,0
251.9098,252.56198,41,30,0
254.92818,255.5051,56,45,0
255.5051,256.07114,60,48,0
256.07114,256.6897,63,45,0
256.6897,257.28375,53,49,0
257.28375,257.92892,62,43,0
258.53497,259.14102,51,40,0
259.14102,259.71246,55,40,0
259.71246,260.29498,58,58,0
259.71246,260.29498,52,58,0
260.29498,261.46597,56,58,0
260.29498,261.46597,53,58,0
262.60342,263.19305,53,52,0
263.19305,263.77557,56,45,0
263.77557,264.3581,58,45,0
264.3581,265.01025,59,39,0
262.032,265.01025,49,54,0
265.01025,266.8317,60,37,0
265.01025,266.8317,48,37,0
267.96915,268.5352,44,49,0
268.5352,269.10123,46,53,0
269.10123,269.64178,58,51,0
269.64178,270.20474,59,53,0
270.20474,270.77078,60,51,0
271.32632,271.8819,48,56,0
271.8819,272.4533,49,58,0
272.4533,273.02475,61,58,0
273.02475,273.58548,63,65,0
273.58548,274.1561,60,61,0
273.58548,274.1561,48,51,0
274.1858,274.76743,57,59,0
274.1858,274.76743,45,50,0
274.79803,275.4144,53,59,0
274.79803,275.4144,41,50,0
275.44684,276.70087,58,46,0
275.44684,276.70087,46,46,0
276.70087,277.9912,60,37,0
276.70087,277.9912,48,37,0
277.9912,279.28662,58,37,0
277.9912,279.28662,48,37,0
279.28662,280.65027,56,37,0
279.28662,280.65027,53,37,0
280.65027,281.33206,41,28,0
283.37753,283.7002,41,40,0
283.7002,283.99283,53,27,0
284.0258,284.31628,53,29,0
284.34964,284.64078,53,28,0
284.67233,284.96738,53,29,0
284.99963,285.2899,53,25,0
285.32285,285.60977,53,28,0
285.64203,285.93506,53,26,0
285.96698,286.25708,53,29,0
286.2897,286.58002,53,27,0
286.61227,286.9191,53,29,0
286.9532,287.2594,53,27,0
287.29166,287.61713,41,34,0
287.61713,287.9079,53,26,0
287.94016,288.23007,53,28,0
288.26196,288.55743,53,26,0
288.58936,288.8798,53,25,0
288.91138,289.20102,53,23,0
289.23328,289.52905,53,26,0
289.56277,289.85876,53,23,0
289.8925,290.1927,53,28,0
290.22678,290.52332,53,27,0
290.5559,290.90207,53,28,0
290.94052,291.28473,53,27,0
291.31735,291.64264,41,33,0
291.64264,291.937,53,22,0
291.96893,292.2613,53,26,0
292.29355,292.5876,53,24,0
292.62054,292.9125,53,26,0
292.9451,293.23825,53,23,0
293.27084,293.58252,53,26,0
293.617,293.92935,53,23,0
293.96463,294.2747,53,24,0
294.30997,294.62433,53,22,0
294.6592,295.0342,53,24,0
295.0759,295.47296,53,23,0
295.51706,297.11707,53,30,0
299.94208,302.5242,60,34,0
299.94208,302.5242,57,34,0
299.94208,302.5242,53,34,0
302.5242,303.9044,58,30,0
302.5242,303.9044,55,30,0
302.5242,303.9044,48,30,0
303.9044,305.25272,58,37,0
305.25272,305.92688,57,37,0
303.9044,305.92688,50,37,0
305.92688,306.58304,57,57,0
305.92688,306.58304,45,57,0
306.58304,307.2392,55,59,0
306.58304,307.2392,43,59,0
307.2392,307.8954,53,57,0
307.2392,307.8954,41,57,0
307.8954,308.55154,62,56,0
307.8954,308.55154,50,49,0
308.55154,309.1438,58,54,0
308.55154,309.1438,46,48,0
309.1438,309.4771,57,29,0
309.1438,309.4771,45,24,0
310.45438,311.8517,50,34,0
311.8517,314.59402,48,27,0
314.59402,315.90558,64,39,0
314.59402,315.90558,60,39,0
315.90558,318.48126,65,51,0
315.90558,318.48126,62,51,0
315.90558,318.48126,59,51,0
318.48126,319.82034,64,43,0
318.48126,319.82034,60,43,0
319.82034,321.1082,59,51,0
319.82034,321.1082,53,51,0
319.82034,321.1082,50,51,0
321.1082,322.491,60,37,0
321.1082,322.491,55,37,0
321.1082,322.491,52,37,0
324.46887,325.17233,53,30,0
324.46887,325.17233,57,30,0
324.46887,325.17233,62,30,0
325.17233,326.52673,60,21,0
325.17233,326.52673,64,27,0
326.52673,327.88113,62,23,0
326.52673,327.88113,65,29,0
325.17233,327.88113,55,21,0
327.88113,329.23553,60,27,0
327.88113,329.23553,64,34,0
329.23553,329.93323,48,29,0
331.8687,333.84033,60,46,0
331.8687,333.84033,63,46,0
333.84033,334.47192,60,46,0
333.84033,334.47192,63,46,0
334.47192,335.1035,58,47,0
334.47192,335.1035,62,47,0
335.1035,335.79315,62,47,0
335.1035,335.79315,60,47,0
335.1035,335.79315,57,47,0
335.79315,337.11182,60,50,0
337.11182,337.70523,58,48,0
335.79315,337.77118,55,50,0
335.79315,337.77118,62,50,0
337.77118,338.40945,58,44,0
337.77118,338.40945,61,44,0
338.40945,339.04776,57,48,0
338.40945,339.04776,60,48,0
339.04776,339.68607,60,45,0
339.04776,339.68607,58,45,0
339.04776,339.68607,55,45,0
339.68607,340.32437,60,48,0
339.68607,340.32437,57,48,0
339.68607,340.32437,53,48,0
340.32437,340.96265,50,50,0
340.96265,342.23926,45,56,0
342.23926,342.89142,46,53,0
342.89142,343.20236,43,46,0
343.5493,346.20145,48,43,0
347.54327,348.52155,48,64,0
347.54327,348.52155,36,53,0
348.52155,348.84763,50,60,0
348.52155,348.84763,38,51,0
348.84763,349.33676,52,64,0
348.84763,349.33676,40,53,0
349.4998,349.97852,53,48,0
349.4998,349.97852,41,40,0
350.1381,350.61682,55,53,0
350.1381,350.61682,43,45,0
350.7764,351.2764,57,50,0
350.7764,351.2764,45,42,0
351.44305,354.18607,58,53,0
351.44305,354.18607,46,45,0
355.5096,356.73697,57,37,0
355.5096,356.73697,60,37,0
355.5096,356.73697,65,43,0
356.73697,358.1006,57,37,0
356.73697,358.1006,65,43,0
356.73697,358.1006,60,37,0
358.1006,359.5156,63,37,0
358.1006,359.5156,57,33,0
358.1006,359.5156,65,37,0
359.5156,362.17694,65,36,0
359.5156,362.17694,58,28,0
359.5156,362.17694,62,28,0
363.559,364.9073,62,35,0
363.559,364.9073,58,28,0
364.9073,366.19427,60,33,0
364.9073,366.19427,57,26,0
363.559,366.19427,53,28,0
367.43866,369.29434,52,43,0
367.43866,369.29434,60,43,0
367.43866,369.29434,55,43,0
369.29434,369.91013,58,48,0
369.29434,369.91013,46,42,0
369.91013,370.52005,45,44,0
369.91013,370.52005,57,50,0
370.52005,371.12344,55,50,0
370.52005,371.12344,43,44,0
371.12344,371.81345,53,54,0
371.12344,371.81345,41,49,0
372.4876,373.8063,57,37,0
373.8063,375.1398,58,29,0
372.4876,375.1398,48,29,0
375.1398,376.4881,57,33,0
375.1398,376.4881,53,33,0
376.4881,377.1858,41,29,0
379.20825,379.53433,41,40,0
379.53433,379.82782,53,28,0
379.8604,380.1539,53,29,0
380.18652,380.47998,53,28,0
380.5126,380.8061,53,32,0
380.83868,381.13217,53,29,0
381.16476,381.45825,53,29,0
381.49088,381.78433,53,28,0
381.81696,382.1104,53,32,0
382.14304,382.43652,53,29,0
382.46912,382.7626,53,30,0
382.7952,383.08868,53,28,0
383.1213,383.4474,41,40,0
383.4474,383.74088,53,28,0
383.77347,384.06696,53,31,0
384.09955,384.39304,53,28,0
384.42566,384.75174,38,48,0
384.75174,385.0452,50,33,0
385.07782,385.3778,50,37,0
385.41116,385.71115,50,33,0
385.74448,386.07782,35,50,0
386.07782,386.3778,47,38,0
386.41116,386.73257,47,42,0
386.76828,387.1308,47,38,0
387.17108,387.50266,36,33,0
387.50266,387.80106,48,26,0
387.83423,388.13263,48,28,0
388.16577,388.4642,48,26,0
388.49734,388.79575,48,30,0
388.82892,389.12732,48,22,0
389.1605,389.47443,48,25,0
389.5093,389.82327,48,23,0
389.85815,390.17776,48,28,0
390.21326,390.53287,48,24,0
390.5684,390.97452,48,26,0
391.01965,391.5545,48,24,0
391.61395,393.0257,41,28,0
