start_time,end_time,note_value,velocity,instrument_program_number
0.4983725,0.598047,69,42,0
0.598047,1.000759,81,47,0
1.000759,1.151776,78,44,0
1.151776,1.202115,76,44,0
1.202115,1.2776235,74,49,0
1.403471,1.4789795,73,44,0
1.604827,1.6829575,74,44,0
1.761088,1.813175,76,43,0
1.813175,1.8886836,74,47,0
2.014531,2.0900395,73,43,0
2.215887,2.2971203,74,42,0
2.432509,2.855074,74,41,0
2.432509,2.855074,78,49,0
2.855074,2.9860897,73,35,0
2.855074,2.9860897,76,41,0
2.9860897,3.0857642,67,42,0
3.0857642,3.4884763,79,47,0
3.4884763,3.6394932,76,44,0
3.6394932,3.6898322,74,44,0
3.6898322,3.7653408,73,49,0
3.8911881,3.9666967,71,44,0
4.092544,4.170675,73,44,0
4.3008924,4.376401,69,47,0
4.5022483,4.577757,76,43,0
4.703604,4.7848377,81,42,0
4.920226,5.342791,76,41,0
4.920226,5.342791,79,49,0
5.342791,5.501253,74,35,0
5.342791,5.501253,78,41,0
5.501253,5.554074,74,48,0
5.554074,5.9595065,78,52,0
5.9595065,6.1664176,79,48,0
6.1664176,6.267776,83,59,0
6.267776,6.3691344,81,57,0
6.3691344,6.4704924,79,55,0
6.4704924,6.571851,78,53,0
6.571851,6.681348,76,51,0
6.681348,6.7315245,74,47,0
6.7332544,6.785161,74,46,0
6.785161,7.1892295,78,58,0
7.1892295,7.3975773,79,49,0
7.3975773,7.4985943,83,59,0
7.4985943,7.5996113,81,57,0
7.5996113,7.7006283,79,55,0
7.7006283,7.8016453,78,53,0
7.8016453,7.913178,76,51,0
7.913178,7.9568872,74,51,0
7.965629,8.018081,74,46,0
8.018081,8.422149,83,58,0
8.422149,8.629059,85,49,0
8.629059,8.730076,86,59,0
8.730076,8.831093,85,57,0
8.831093,8.93211,83,55,0
8.93211,9.033127,81,53,0
9.033127,9.135874,79,51,0
9.135874,9.238621,78,51,0
9.238621,9.339638,83,59,0
9.339638,9.440655,81,58,0
9.440655,9.541672,79,56,0
9.541672,9.642689,78,55,0
9.642689,9.747959,76,58,0
9.747959,9.870419,74,62,0
9.870419,10.078766,81,59,0
9.870419,10.078766,76,50,0
9.870419,10.078766,73,50,0
10.391288,10.490963,69,45,0
10.490963,10.893675,81,47,0
10.893675,11.044692,78,44,0
11.044692,11.095031,76,44,0
11.095031,11.170539,74,49,0
11.296387,11.371895,73,44,0
11.497743,11.575873,74,44,0
11.654004,11.706091,76,43,0
11.706091,11.781599,74,47,0
11.907447,11.982955,73,43,0
12.108803,12.190036,74,42,0
12.325425,12.74799,74,41,0
12.325425,12.74799,78,49,0
12.74799,12.879005,73,35,0
12.74799,12.879005,76,41,0
12.879005,12.97868,67,42,0
12.97868,13.381392,79,47,0
13.381392,13.532409,76,44,0
13.532409,13.582748,74,44,0
13.582748,13.658257,73,49,0
13.784104,13.859612,71,44,0
13.98546,14.06359,73,44,0
14.193808,14.269317,69,47,0
14.395164,14.470673,76,43,0
14.59652,14.677753,81,42,0
14.813142,15.235707,79,49,0
14.813142,15.235707,76,41,0
15.235707,15.394169,78,41,0
15.235707,15.394169,74,35,0
15.394169,15.446989,74,48,0
15.446989,15.852423,78,52,0
15.852423,16.059334,79,48,0
16.059334,16.160692,83,59,0
16.160692,16.26205,81,57,0
16.26205,16.363409,79,55,0
16.363409,16.464766,78,53,0
16.464766,16.574263,76,51,0
16.574263,16.62271,74,47,0
16.626171,16.678078,74,46,0
16.678078,17.082378,83,58,0
17.082378,17.289085,85,49,0
17.289085,17.390306,88,59,0
17.390306,17.491323,86,57,0
17.491323,17.59234,85,55,0
17.59234,17.693357,83,53,0
17.693357,17.79596,81,51,0
17.79596,17.898706,79,51,0
17.898706,17.999868,85,59,0
17.999868,18.100885,83,58,0
18.100885,18.201902,81,56,0
18.201902,18.30292,79,55,0
18.30292,18.407835,78,54,0
18.407835,18.528862,76,52,0
18.528862,18.630081,83,63,0
18.630081,18.731098,81,61,0
18.731098,18.832115,79,59,0
18.832115,18.933132,78,57,0
18.933132,19.035734,76,56,0
19.035734,19.138481,74,54,0
19.138481,19.239643,81,59,0
19.239643,19.34066,79,61,0
19.34066,19.441677,78,60,0
19.441677,19.542694,76,59,0
19.542694,19.64761,74,58,0
19.64761,19.768637,73,61,0
19.768637,19.873173,74,63,0
20.186785,20.287127,62,66,0
20.287127,20.391663,66,66,0
20.391663,20.494059,69,73,0
20.801247,20.90092,66,70,0
20.90092,21.006563,69,70,0
21.006563,21.10896,74,75,0
21.416147,21.516487,69,69,0
21.516487,21.62213,74,69,0
21.62213,21.724525,78,81,0
22.031713,22.132391,74,70,0
22.132391,22.238405,78,70,0
22.238405,22.340801,81,82,0
23.467157,23.979137,81,45,0
23.979137,24.08478,83,42,0
24.08478,24.494364,74,47,0
24.518337,24.723587,73,47,0
24.699856,24.85241,74,55,0
24.90326,25.003601,86,54,0
25.103943,25.204283,85,52,0
25.304625,25.404966,83,50,0
25.505308,25.605648,81,49,0
25.70599,25.809444,80,47,0
25.9129,26.1721,81,45,0
26.1721,26.22295,83,35,0
26.22295,26.273802,81,35,0
26.273802,26.324652,80,35,0
26.324652,26.426353,81,45,0
26.426353,26.533888,83,42,0
26.533888,26.943472,74,47,0
26.967447,27.172697,73,47,0
27.148966,27.30152,74,55,0
27.35237,27.452711,86,54,0
27.553053,27.653393,85,52,0
27.753735,27.854076,83,50,0
27.954416,28.054758,81,49,0
28.1551,28.258554,80,47,0
28.362011,28.62121,81,45,0
28.62121,28.67206,83,35,0
28.67206,28.722912,81,35,0
28.722912,28.773762,80,35,0
28.773762,28.875463,81,45,0
28.875463,28.982998,83,42,0
28.982998,29.392582,74,47,0
29.417233,29.627596,73,47,0
29.603865,29.807268,74,52,0
30.214075,30.824286,59,29,0
30.214075,30.824286,54,29,0
30.214075,30.824286,62,35,0
30.824286,31.428354,62,32,0
30.824286,31.428354,64,38,0
30.824286,31.428354,59,32,0
31.428354,32.040695,61,33,0
31.428354,32.040695,69,39,0
31.428354,32.040695,64,33,0
32.040695,32.2441,66,35,0
32.040695,32.2441,62,29,0
32.040695,32.2441,57,29,0
32.85431,32.92982,62,61,0
33.055668,33.133526,62,62,0
33.15948,33.194084,64,40,0
33.194084,33.22869,62,40,0
33.229553,33.264145,61,40,0
33.263294,33.671486,62,69,0
33.671486,33.74802,62,60,0
33.773533,33.80755,64,40,0
33.80755,33.841564,62,40,0
33.842415,33.87643,61,40,0
33.87558,34.28377,62,64,0
34.28377,34.362175,62,59,0
34.492844,34.901035,61,66,0
35.003082,35.105133,76,54,0
35.105133,35.921513,81,63,0
35.921513,35.99702,85,45,0
36.12287,36.19838,83,43,0
36.324226,36.399734,81,41,0
36.52558,36.602642,80,39,0
36.731075,36.8138,78,37,0
36.95168,37.566055,76,35,0
37.566055,37.783463,74,35,0
37.783463,37.85897,59,61,0
37.984818,38.06268,59,62,0
38.08863,38.123238,61,40,0
38.123238,38.15784,59,40,0
38.158707,38.193295,58,40,0
38.192448,38.600636,59,69,0
38.600636,38.677174,59,60,0
38.702686,38.736702,59,40,0
38.736702,38.770718,57,40,0
38.77157,38.805584,56,40,0
38.804733,39.212925,57,64,0
39.212925,39.291325,57,59,0
39.421997,39.62609,56,66,0
39.932236,40.034283,76,54,0
40.034283,40.74862,86,63,0
40.74862,40.850666,85,53,0
40.850666,40.952713,83,53,0
40.952713,41.05476,81,52,0
41.05476,41.15681,80,51,0
41.15681,41.260975,78,51,0
41.260975,41.363018,76,54,0
41.363018,41.465057,78,49,0
41.465057,41.567097,76,50,0
41.567097,41.66914,74,49,0
41.66914,41.77118,73,48,0
41.77118,41.878323,71,47,0
41.878323,41.980362,73,47,0
41.980362,42.082405,76,47,0
42.082405,42.184444,78,48,0
42.184444,42.286484,80,50,0
42.286484,42.388527,81,52,0
42.388527,42.493057,83,53,0
42.493057,42.595097,85,55,0
42.595097,42.697136,86,57,0
42.697136,42.79918,88,61,0
42.79918,42.90122,85,57,0
42.90122,43.003258,83,57,0
43.003258,43.109642,81,53,0
43.109642,43.21168,86,62,0
43.21168,43.313725,85,60,0
43.313725,43.415764,83,58,0
43.415764,43.517807,81,57,0
43.517807,43.619846,80,55,0
43.619846,43.725853,78,53,0
43.725853,43.827892,76,59,0
43.827892,43.929935,78,58,0
43.929935,44.031975,76,56,0
44.031975,44.134018,74,55,0
44.134018,44.236057,73,53,0
44.236057,44.34282,71,52,0
44.34282,44.44486,73,48,0
44.44486,44.5469,76,50,0
44.5469,44.64894,78,51,0
44.64894,44.75098,80,52,0
44.75098,44.853024,81,54,0
44.853024,44.957188,83,55,0
44.957188,45.05923,85,56,0
45.05923,45.16127,86,58,0
45.16127,45.26331,88,60,0
45.26331,45.365353,85,52,0
45.365353,45.467392,83,51,0
45.467392,45.574535,81,51,0
45.574535,45.676575,86,63,0
45.676575,45.778618,85,59,0
45.778618,45.880657,83,59,0
45.880657,45.982697,81,58,0
45.982697,46.08474,80,56,0
46.08474,46.1915,78,54,0
46.1915,46.293194,76,60,0
46.293194,46.39489,78,58,0
46.39489,46.496586,76,56,0
46.496586,46.59828,74,55,0
46.59828,46.699974,73,54,0
46.699974,46.806736,71,52,0
46.806736,46.90878,73,56,0
46.90878,47.01082,76,50,0
47.01082,47.112858,78,52,0
47.112858,47.2149,80,53,0
47.2149,47.31694,81,55,0
47.31694,47.423702,83,57,0
47.423702,47.5254,85,62,0
47.5254,47.62709,83,57,0
47.62709,47.728786,81,56,0
47.728786,47.830482,80,54,0
47.830482,47.93218,78,53,0
47.93218,48.03856,76,52,0
48.03856,48.140255,78,60,0
48.140255,48.24195,76,59,0
48.24195,48.343647,74,57,0
48.343647,48.44534,73,56,0
48.44534,48.547035,71,55,0
48.547035,48.65356,69,53,0
48.65356,48.75657,74,52,0
48.75657,48.85852,73,54,0
48.85852,48.95949,71,57,0
48.95949,49.0595,69,60,0
49.0595,49.1612,68,64,0
49.1612,49.26537,66,67,0
49.26537,49.349014,64,70,0
49.48842,49.56574,71,52,0
49.48842,49.56574,76,62,0
49.48842,49.56574,68,52,0
49.694603,49.77439,76,62,0
49.694603,49.77439,68,52,0
49.694603,49.77439,71,52,0
49.90737,49.991325,68,56,0
49.90737,49.991325,76,67,0
49.90737,49.991325,71,56,0
50.57901,51.22445,64,42,0
50.57901,51.22445,73,50,0
51.22445,51.439598,71,47,0
51.439598,51.653286,73,44,0
51.653286,51.874447,71,44,0
51.22445,51.874447,62,39,0
51.874447,53.59788,69,50,0
51.874447,53.59788,61,42,0
53.59788,53.810844,73,50,0
53.810844,54.24114,74,50,0
54.24114,54.460003,78,54,0
53.810844,54.460003,69,42,0
54.460003,54.67441,68,45,0
54.67441,54.88882,69,50,0
54.460003,54.88882,76,53,0
54.88882,55.10618,74,50,0
54.88882,55.10618,71,42,0
55.10618,55.536472,73,54,0
55.10618,55.536472,69,45,0
55.760773,56.621357,71,50,0
56.621357,56.83505,73,44,0
56.83505,57.056206,71,44,0
57.056206,57.91679,71,50,0
57.91679,58.13048,73,45,0
58.13048,58.354782,74,46,0
58.354782,58.57594,76,52,0
58.57594,58.73839,81,49,0
58.792545,58.95726,80,48,0
59.012165,59.174618,78,49,0
59.22877,59.391224,76,48,0
59.445377,59.61978,74,46,0
59.677917,60.131615,73,45,0
60.131615,60.25006,74,42,0
60.25006,60.371696,73,43,0
60.371696,60.606823,71,37,0
61.07708,61.72252,73,50,0
61.07708,61.72252,64,42,0
61.72252,61.937664,71,47,0
61.937664,62.151356,73,44,0
62.151356,62.372513,71,44,0
61.72252,62.372513,62,39,0
62.372513,63.017952,61,42,0
63.017952,63.665657,61,42,0
63.017952,63.665657,67,42,0
63.665657,64.09595,62,42,0
63.665657,64.09595,66,42,0
62.372513,64.09595,69,50,0
64.09595,64.308914,70,50,0
64.09595,64.308914,64,50,0
64.308914,64.739204,71,50,0
64.308914,64.739204,66,42,0
64.308914,64.739204,62,42,0
64.739204,64.95807,73,54,0
64.739204,64.95807,78,54,0
64.95807,65.38689,71,45,0
64.95807,65.38689,76,53,0
65.38689,65.60425,68,42,0
65.38689,65.60425,74,50,0
65.60425,66.03454,69,45,0
65.60425,66.03454,73,54,0
66.25341,66.46855,71,50,0
66.46855,66.576126,83,55,0
66.6837,66.791275,83,55,0
66.89885,67.00642,83,59,0
67.11399,67.22084,83,53,0
67.32768,67.43826,83,53,0
67.54884,67.763985,83,60,0
67.763985,67.87156,76,53,0
67.97913,68.08671,88,53,0
68.19428,68.30186,88,62,0
68.409424,68.51627,81,56,0
68.623116,68.733696,81,56,0
68.84428,68.95486,81,57,0
69.06543,69.17374,78,53,0
69.06543,69.17374,74,45,0
69.282036,69.391846,73,45,0
69.282036,69.391846,76,54,0
69.501656,69.608864,74,56,0
69.501656,69.608864,71,47,0
69.716064,69.82437,73,58,0
69.716064,69.82437,69,49,0
69.93267,70.04894,68,50,0
69.93267,70.04894,71,59,0
70.165215,70.783165,69,65,0
70.783165,71.4054,85,65,0
71.4054,71.50779,86,67,0
71.50779,71.61018,85,65,0
71.61018,71.71257,83,64,0
71.71257,71.81496,81,63,0
71.81496,71.91735,80,61,0
72.02411,72.1265,83,65,0
72.1265,72.22889,81,64,0
72.22889,72.331276,80,62,0
72.331276,72.43367,78,61,0
72.43367,72.53606,76,60,0
72.53606,72.64515,74,58,0
72.64515,72.747536,73,61,0
72.84992,72.95373,76,49,0
73.05753,73.16135,81,52,0
73.26515,73.36896,85,55,0
73.47276,73.57657,88,58,0
73.887985,73.99038,86,67,0
73.99038,74.092766,85,65,0
74.092766,74.19515,83,64,0
74.19515,74.29755,81,63,0
74.29755,74.39993,80,61,0
74.50669,74.609085,83,65,0
74.609085,74.71147,81,64,0
74.71147,74.81386,80,62,0
74.81386,74.91625,78,61,0
74.91625,75.01864,76,60,0
75.01864,75.12773,74,58,0
75.12773,75.23012,73,61,0
75.332504,75.43632,76,49,0
75.54012,75.64393,81,52,0
75.747734,75.85154,85,55,0
75.955345,76.05915,88,58,0
76.586395,76.79619,77,45,0
76.79619,77.005974,78,45,0
77.2218,77.43086,81,45,0
77.43086,77.63992,78,45,0
77.85498,78.064766,75,45,0
78.064766,78.27456,76,45,0
78.49039,78.70017,78,45,0
78.70017,78.909966,74,45,0
79.125015,79.33555,72,45,0
79.33555,79.546074,73,45,0
79.76268,79.973946,74,45,0
79.973946,80.18521,71,45,0
80.18521,80.80316,69,65,0
80.80316,81.42541,85,65,0
81.42541,81.527794,86,67,0
81.527794,81.63018,85,65,0
81.63018,81.732574,83,64,0
81.732574,81.83496,81,63,0
81.83496,81.93735,80,61,0
82.04411,82.1465,83,65,0
82.1465,82.248886,81,64,0
82.248886,82.35128,80,62,0
82.35128,82.45367,78,61,0
82.45367,82.55605,76,60,0
82.55605,82.665146,74,58,0
82.665146,82.76753,73,61,0
82.86993,82.97373,76,49,0
83.07754,83.18134,81,52,0
83.28515,83.388954,85,55,0
83.49276,83.596565,88,58,0
83.90799,84.010376,86,67,0
84.010376,84.11276,85,65,0
84.11276,84.21516,83,64,0
84.21516,84.31754,81,63,0
84.31754,84.41993,80,61,0
84.526695,84.62908,83,65,0
84.62908,84.73147,81,64,0
84.73147,84.83386,80,62,0
84.83386,84.93625,78,61,0
84.93625,85.038635,76,60,0
85.038635,85.14773,74,58,0
85.14773,85.25012,73,61,0
85.35251,85.456314,76,49,0
85.56012,85.663925,81,52,0
85.76773,85.87154,85,55,0
85.97534,86.079155,88,58,0
86.60718,86.8177,77,45,0
86.8177,87.02823,78,43,0
87.24406,87.45385,81,45,0
87.45385,87.663635,78,41,0
87.87946,88.088524,75,45,0
88.088524,88.297585,76,44,0
88.51341,88.7232,78,45,0
88.7232,88.93299,74,43,0
89.1496,89.35939,72,45,0
89.35939,89.569176,73,43,0
89.78578,89.99631,74,45,0
89.99631,90.20683,71,43,0
90.42189,90.526054,65,58,0
90.42189,90.526054,77,69,0
90.630226,90.73439,78,67,0
90.630226,90.73439,66,56,0
91.05284,91.15629,69,58,0
91.05284,91.15629,81,69,0
91.25974,91.36319,78,67,0
91.25974,91.36319,66,56,0
91.68016,91.784325,63,58,0
91.68016,91.784325,75,69,0
91.88849,91.99266,76,67,0
91.88849,91.99266,64,56,0
92.31035,92.41451,78,69,0
92.31035,92.41451,66,58,0
92.518684,92.62285,74,67,0
92.518684,92.62285,62,56,0
92.93978,93.04323,60,58,0
92.93978,93.04323,72,69,0
93.146675,93.25013,61,56,0
93.146675,93.25013,73,67,0
93.56484,93.66865,74,69,0
93.56484,93.66865,62,58,0
93.77245,93.87626,59,56,0
93.77245,93.87626,71,67,0
93.980064,94.184845,61,72,0
93.980064,94.184845,69,72,0
94.59802,95.22026,81,73,0
94.59802,95.22026,73,62,0
95.22026,95.629814,83,75,0
95.22026,95.629814,74,63,0
95.629814,95.784836,86,71,0
95.629814,95.784836,78,60,0
95.784836,95.83746,71,65,0
95.83746,96.24843,81,76,0
96.24843,96.28315,80,69,0
96.28315,96.31787,81,62,0
96.31787,96.35259,80,63,0
96.35259,96.40468,78,70,0
96.40468,96.45676,80,64,0
96.45676,96.66154,81,72,0
97.07471,97.1771,81,73,0
97.07471,97.1771,73,62,0
97.27949,97.381874,81,73,0
97.27949,97.381874,73,62,0
97.48427,97.586655,81,73,0
97.48427,97.586655,73,62,0
97.69695,98.10651,83,75,0
97.69695,98.10651,74,63,0
98.10651,98.26153,86,71,0
98.10651,98.26153,78,60,0
98.26153,98.314156,71,65,0
98.314156,98.72512,81,76,0
98.72512,98.75984,80,69,0
98.75984,98.79456,81,62,0
98.79456,98.829285,80,63,0
98.829285,98.88137,78,70,0
98.88137,98.93345,80,64,0
98.93345,99.03584,81,72,0
99.13823,99.34301,73,45,0
99.34301,99.54778,74,39,0
99.54778,99.75256,76,45,0
99.75256,99.957344,78,41,0
99.957344,100.16713,80,42,0
100.16713,100.37191,81,47,0
100.37191,100.57668,73,40,0
100.57668,100.78146,74,37,0
100.78146,100.986244,76,45,0
100.986244,101.19102,78,42,0
101.19102,101.40081,80,44,0
101.40081,101.60559,81,45,0
102.4247,102.63449,74,45,0
102.4247,102.63449,64,38,0
102.4247,102.63449,71,38,0
102.63449,102.73688,69,38,0
102.63449,102.73688,64,38,0
102.63449,102.73688,73,45,0
103.65838,103.763275,64,38,0
103.65838,103.763275,71,38,0
103.65838,103.763275,74,45,0
104.07796,104.28486,72,43,0
104.28486,104.49175,73,40,0
104.70228,104.90918,73,46,0
104.90918,105.11607,74,45,0
105.32809,105.53642,75,65,0
105.53642,105.74475,76,61,0
105.95981,106.171074,77,74,0
106.171074,106.38234,78,70,0
106.6149,106.88639,78,77,0
106.88639,107.126396,79,75,0
108.446396,108.54607,69,42,0
108.54607,108.948784,81,47,0
108.948784,109.0998,78,44,0
109.0998,109.15014,76,44,0
109.15014,109.22565,74,49,0
109.351494,109.427,73,44,0
109.55285,109.63098,74,44,0
109.70911,109.7612,76,43,0
109.7612,109.83671,74,47,0
109.962555,110.03806,73,43,0
110.16391,110.24514,74,42,0
110.38053,110.80309,78,49,0
110.38053,110.80309,74,41,0
110.80309,110.93411,76,41,0
110.80309,110.93411,73,35,0
110.93411,111.03378,67,42,0
111.03378,111.4365,79,47,0
111.4365,111.58752,76,44,0
111.58752,111.637856,74,44,0
111.637856,111.71336,73,49,0
111.83921,111.91472,71,44,0
112.040565,112.1187,73,44,0
112.24892,112.324425,69,47,0
112.45027,112.52578,76,43,0
112.65163,112.73286,81,42,0
112.86825,113.29081,79,49,0
112.86825,113.29081,76,41,0
113.29081,113.44927,78,41,0
113.29081,113.44927,74,35,0
113.44927,113.5021,74,48,0
113.5021,113.90753,78,52,0
113.90753,114.11444,79,48,0
114.11444,114.2158,83,59,0
114.2158,114.317154,81,57,0
114.317154,114.41851,79,55,0
114.41851,114.519875,78,53,0
114.519875,114.62937,76,51,0
114.62937,114.67868,74,47,0
114.681274,114.733185,74,46,0
114.733185,115.13725,78,58,0
115.13725,115.3456,79,49,0
115.3456,115.44662,83,59,0
115.44662,115.54763,81,57,0
115.54763,115.64865,79,55,0
115.64865,115.749664,78,53,0
115.749664,115.8612,76,51,0
115.8612,115.90491,74,51,0
115.91365,115.9661,74,46,0
115.9661,116.37017,83,58,0
116.37017,116.57708,85,49,0
116.57708,116.6781,86,59,0
116.6781,116.77911,85,57,0
116.77911,116.880135,83,55,0
116.880135,116.98115,81,53,0
116.98115,117.08389,79,51,0
117.08389,117.186646,78,51,0
117.186646,117.28766,83,59,0
117.28766,117.38868,81,58,0
117.38868,117.48969,79,56,0
117.48969,117.59071,78,55,0
117.59071,117.695984,76,58,0
117.695984,117.81844,74,62,0
117.81844,118.02679,73,50,0
117.81844,118.02679,81,59,0
117.81844,118.02679,76,50,0
118.33931,118.43899,69,42,0
118.43899,118.8417,81,47,0
118.8417,118.992714,78,44,0
118.992714,119.04305,76,44,0
119.04305,119.11856,74,49,0
119.24441,119.319916,73,44,0
119.44576,119.523895,74,44,0
119.60203,119.65411,76,43,0
119.65411,119.72962,74,47,0
119.85547,119.93098,73,43,0
120.05682,120.138054,74,42,0
120.273445,120.696014,74,41,0
120.273445,120.696014,78,49,0
120.696014,120.82703,76,41,0
120.696014,120.82703,73,35,0
120.82703,120.926704,67,42,0
120.926704,121.329414,79,47,0
121.329414,121.48043,76,44,0
121.48043,121.53077,74,44,0
121.53077,121.60628,73,49,0
121.732124,121.80763,71,44,0
121.93348,122.01161,73,44,0
122.14183,122.21734,69,47,0
122.343185,122.41869,76,43,0
122.54454,122.62578,81,42,0
122.76116,123.18373,79,49,0
122.76116,123.18373,76,41,0
123.18373,123.34219,78,41,0
123.18373,123.34219,74,35,0
123.34219,123.39501,74,48,0
123.39501,123.800446,78,52,0
123.800446,124.007355,79,48,0
124.007355,124.10871,83,59,0
124.10871,124.21007,81,57,0
124.21007,124.31143,79,55,0
124.31143,124.41279,78,53,0
124.41279,124.522285,76,51,0
124.522285,124.57073,74,47,0
124.58284,124.63475,74,46,0
124.6261,125.0304,83,58,0
125.0304,125.23711,85,49,0
125.23711,125.338326,88,59,0
125.338326,125.43935,86,57,0
125.43935,125.54036,85,55,0
125.54036,125.64138,83,53,0
125.64138,125.74398,81,51,0
125.74398,125.846725,79,51,0
125.846725,125.94789,85,59,0
125.94789,126.048904,83,58,0
126.048904,126.149925,81,56,0
126.149925,126.25094,79,55,0
126.25094,126.35586,78,54,0
126.35586,126.47688,76,52,0
126.47688,126.5781,83,63,0
126.5781,126.67912,81,61,0
126.67912,126.780136,79,59,0
126.780136,126.88116,78,57,0
126.88116,126.98376,76,56,0
126.98376,127.0865,74,54,0
127.0865,127.18767,81,59,0
127.18767,127.28868,79,61,0
127.28868,127.3897,78,60,0
127.3897,127.490715,76,59,0
127.490715,127.595634,74,58,0
127.595634,127.71666,73,61,0
127.71666,127.8212,74,63,0
128.13481,128.23515,66,66,0
128.23515,128.33969,69,66,0
128.33969,128.44208,74,73,0
128.74927,128.84894,69,70,0
128.84894,128.95459,74,70,0
128.95459,129.05698,78,75,0
129.36417,129.46451,74,69,0
129.46451,129.57014,78,69,0
129.57014,129.67255,81,81,0
129.98785,130.10368,78,56,0
130.10368,130.233,81,56,0
130.233,130.33539,84,65,0
131.46175,131.97722,74,45,0
131.97722,132.0859,76,42,0
132.0859,132.49971,67,47,0
132.52368,132.72893,66,47,0
132.7052,132.85776,67,55,0
132.9086,133.00894,79,54,0
133.10928,133.20963,78,52,0
133.30997,133.41031,76,50,0
133.51065,133.611,74,49,0
133.71133,133.81479,73,47,0
133.91824,134.17888,74,45,0
134.17888,134.22974,76,35,0
134.22974,134.28058,74,35,0
134.28058,134.33144,73,35,0
134.33144,134.43314,74,45,0
134.43314,134.54066,76,42,0
134.54066,134.95305,67,47,0
134.97702,135.18156,66,47,0
135.15854,135.30656,67,55,0
135.35591,135.45625,79,54,0
135.5566,135.65692,78,52,0
135.75726,135.8576,76,50,0
135.95795,136.05829,74,49,0
136.15863,136.26208,73,47,0
136.36554,136.62767,74,45,0
136.62767,136.67851,76,35,0
136.67851,136.72937,74,35,0
136.72937,136.78021,73,35,0
136.78021,136.88191,74,45,0
136.88191,136.98946,76,42,0
136.98946,137.39903,67,47,0
137.39903,137.61032,66,47,0
137.61032,137.81372,67,52,0
138.22054,138.87508,67,35,0
138.22054,138.87508,59,29,0
138.22054,138.87508,64,29,0
138.87508,139.50008,67,32,0
138.87508,139.50008,69,38,0
138.87508,139.50008,64,32,0
139.50008,140.15225,74,39,0
139.50008,140.15225,69,33,0
139.50008,140.15225,66,33,0
140.15225,140.38214,67,29,0
140.15225,140.38214,71,35,0
140.15225,140.38214,62,29,0
140.8419,141.51105,60,43,0
140.8419,141.51105,55,43,0
140.8419,141.51105,64,52,0
141.51105,142.16322,64,48,0
141.51105,142.16322,60,48,0
141.51105,142.16322,66,57,0
142.16322,142.82672,71,58,0
142.16322,142.82672,63,49,0
142.16322,142.82672,66,49,0
142.82672,143.05748,59,43,0
142.82672,143.05748,67,52,0
142.82672,143.05748,64,43,0
143.51903,144.19066,62,35,0
143.51903,144.19066,54,29,0
143.51903,144.19066,59,29,0
144.19066,144.84048,62,32,0
144.19066,144.84048,59,32,0
144.19066,144.84048,64,38,0
144.84048,145.49826,69,39,0
144.84048,145.49826,64,33,0
144.84048,145.49826,61,33,0
145.49826,145.72903,62,29,0
145.49826,145.72903,57,29,0
145.49826,145.72903,66,35,0
146.19057,146.86473,67,43,0
146.19057,146.86473,64,43,0
146.19057,146.86473,73,52,0
146.86473,147.52893,66,48,0
146.86473,147.52893,74,57,0
146.86473,147.52893,62,48,0
147.52893,148.20818,71,51,0
147.52893,148.20818,77,60,0
148.20818,148.42372,73,45,0
148.20818,148.42372,78,54,0
148.20818,148.42372,70,45,0
149.72226,149.8304,78,52,0
149.93817,150.04594,78,48,0
150.15674,150.21063,79,44,0
150.21063,150.26451,81,44,0
150.26451,150.37228,79,53,0
150.37228,150.48006,78,49,0
150.58783,150.6956,78,46,0
150.8068,150.86134,79,48,0
150.86134,150.9159,81,48,0
150.9159,151.0234,79,52,0
151.0234,151.13094,78,52,0
151.23846,151.346,78,48,0
151.45758,151.89119,78,52,0
151.89119,151.9972,79,46,0
151.9972,152.10838,81,49,0
152.10838,152.32619,83,52,0
152.32619,152.4341,76,48,0
152.54202,152.64993,76,48,0
152.76073,152.81462,78,48,0
152.81462,152.8685,79,48,0
152.8685,152.97627,78,52,0
152.97627,153.08405,76,52,0
153.19182,153.2996,76,48,0
153.4104,153.46428,76,48,0
153.46428,153.51817,78,48,0
153.51817,153.62595,76,56,0
153.62595,153.73372,74,48,0
153.84149,153.94926,74,52,0
154.06085,154.49379,74,52,0
154.49379,154.5998,76,47,0
154.5998,154.71178,78,50,0
154.71178,154.93079,79,53,0
154.93079,155.0391,72,50,0
155.14738,155.25569,72,50,0
155.36688,155.40298,74,53,0
155.40298,155.43909,72,43,0
155.43909,155.47517,71,43,0
155.47517,155.8001,72,49,0
155.8001,156.0216,79,53,0
156.0216,156.24101,78,53,0
156.24101,156.34932,71,50,0
156.45763,156.56593,71,50,0
156.67993,156.71616,73,49,0
156.71616,156.7524,71,34,0
156.7524,156.78862,70,34,0
156.78862,157.1147,71,40,0
157.1147,157.33618,78,46,0
157.33618,157.55322,78,50,0
157.55322,157.77025,76,46,0
157.77025,157.87875,73,46,0
157.98994,158.20622,76,53,0
158.20622,158.4225,74,47,0
158.4225,158.53064,71,46,0
158.64342,158.7653,70,53,0
158.75423,158.8761,71,48,0
158.86502,158.98691,73,54,0
158.97581,159.0977,74,50,0
159.08662,159.20903,73,54,0
159.19742,159.32463,74,47,0
159.31352,159.53589,73,52,0
159.98064,160.09181,74,56,0
160.09181,160.203,83,48,0
160.203,160.31114,74,48,0
160.31114,160.41891,83,48,0
160.41891,160.52669,74,56,0
160.52669,160.63748,83,47,0
160.63748,160.7454,74,47,0
160.7454,160.85333,83,46,0
160.85333,160.96126,74,56,0
160.96126,161.06917,83,47,0
161.06917,161.1771,74,47,0
161.1771,161.28828,83,47,0
161.28828,161.39946,73,56,0
161.39946,161.51065,83,48,0
161.51065,161.61879,73,48,0
161.61879,161.72632,83,48,0
161.72632,161.83386,73,56,0
161.83386,161.94466,83,47,0
161.94466,162.05258,73,47,0
162.05258,162.1605,81,46,0
162.1605,162.26842,73,56,0
162.26842,162.37634,81,47,0
162.37634,162.48273,73,47,0
162.48273,162.5951,81,47,0
162.5951,162.70619,75,56,0
162.70619,162.8173,81,48,0
162.8173,162.92545,76,48,0
162.92545,163.03322,79,48,0
163.03322,163.14114,76,56,0
163.14114,163.25194,79,47,0
163.25194,163.35986,71,47,0
163.35986,163.46779,79,46,0
163.46779,163.5757,71,56,0
163.5757,163.68362,79,47,0
163.68362,163.79155,73,47,0
163.79155,163.90274,79,47,0
163.90274,164.01392,69,56,0
164.01392,164.1251,79,48,0
164.1251,164.23325,69,48,0
164.23325,164.34102,79,48,0
164.34102,164.44879,69,56,0
164.44879,164.55959,79,47,0
164.55959,164.66751,69,47,0
164.66751,164.77544,78,46,0
164.77544,164.88336,69,56,0
164.88336,164.99127,78,47,0
164.99127,165.0992,69,47,0
165.0992,165.21039,78,47,0
165.21039,165.32156,71,56,0
165.32156,165.43275,78,48,0
165.43275,165.5409,71,48,0
165.5409,165.64867,76,48,0
165.64867,165.75644,71,56,0
165.75644,165.86725,75,47,0
165.86725,165.97516,76,47,0
165.97516,166.08308,83,46,0
166.08308,166.19101,76,56,0
166.19101,166.29892,81,47,0
166.29892,166.40685,76,47,0
166.40685,166.51804,80,47,0
166.51804,166.62923,76,56,0
166.62923,166.7404,81,48,0
166.7404,166.84854,74,48,0
166.84854,166.95631,81,48,0
166.95631,167.06409,73,56,0
167.06409,167.1749,81,47,0
167.1749,167.28267,79,47,0
167.28267,167.39044,82,46,0
167.39044,167.49821,78,56,0
167.49821,167.60599,83,47,0
167.60599,167.71376,76,47,0
167.71376,167.82495,85,47,0
167.82495,167.93103,74,56,0
167.93103,168.03711,85,48,0
168.03711,168.14525,74,48,0
168.14525,168.25096,85,48,0
168.25096,168.35666,74,56,0
168.35666,168.46504,83,47,0
168.46504,168.5707,73,47,0
168.5707,168.67633,83,46,0
168.67633,168.78197,73,56,0
168.78197,168.88762,83,47,0
168.88762,168.99326,73,47,0
168.99326,169.10204,81,47,0
169.10204,169.21321,71,56,0
169.21321,169.3244,81,48,0
169.3244,169.43086,71,48,0
169.43086,169.53864,81,48,0
169.53864,169.64641,71,56,0
169.64641,169.7572,79,47,0
169.7572,169.86292,69,47,0
169.86292,169.96863,79,46,0
169.96863,170.07433,69,56,0
170.07433,170.18004,79,47,0
170.18004,170.28575,69,47,0
170.28575,170.39491,78,47,0
170.39491,170.50449,67,56,0
170.50449,170.61406,78,48,0
170.61406,170.72014,67,48,0
170.72014,170.82791,78,48,0
170.82791,170.93324,67,56,0
170.93324,171.04163,76,47,0
171.04163,171.14734,66,47,0
171.14734,171.25305,76,46,0
171.25305,171.35875,66,56,0
171.35875,171.46446,76,47,0
171.46446,171.57018,66,47,0
171.57018,171.67856,74,47,0
171.67856,171.78812,64,56,0
171.78812,171.89769,74,48,0
171.89769,172.00377,64,48,0
172.00377,172.10948,74,48,0
172.10948,172.2152,64,56,0
172.2152,172.32356,72,47,0
172.32356,172.42891,62,47,0
172.42891,172.53424,72,46,0
172.53424,172.63959,62,56,0
172.63959,172.74492,72,47,0
172.74492,172.85025,62,47,0
172.85025,172.96144,71,47,0
172.96144,173.07288,64,53,0
173.07288,173.18369,71,44,0
173.18369,173.29378,69,45,0
173.29378,173.4031,68,45,0
173.4031,173.51176,69,46,0
173.51176,173.62096,71,47,0
173.62096,173.72917,72,49,0
173.72917,173.83807,74,51,0
173.83807,173.94748,76,51,0
173.94748,174.05759,72,50,0
174.05759,174.16827,71,49,0
174.16827,174.27905,69,48,0
174.27905,174.98991,67,55,0
174.27905,174.98991,59,55,0
174.98991,175.22159,57,47,0
174.98991,175.22159,66,47,0
175.93283,176.0538,74,48,0
176.17526,176.29478,74,49,0
176.4143,176.5343,74,51,0
176.65431,176.7743,74,52,0
176.8943,177.02531,74,54,0
177.15631,177.89368,74,56,0
177.89368,178.1366,66,52,0
178.86206,178.9811,67,50,0
179.10014,179.21643,71,51,0
179.3327,179.44899,74,53,0
179.56526,179.68431,79,54,0
179.80336,179.92682,83,56,0
180.05028,180.77924,86,57,0
180.77924,181.02116,84,55,0
181.74698,181.86325,83,52,0
181.86325,181.97952,84,54,0
181.97952,182.09581,86,55,0
182.09581,182.22029,83,51,0
182.22029,182.33656,79,55,0
182.45285,182.56912,79,53,0
182.56912,182.68541,81,55,0
182.68541,182.80168,83,58,0
182.80168,182.92566,79,52,0
182.92566,183.04149,76,55,0
183.15732,183.27315,76,51,0
183.27315,183.38898,78,54,0
183.38898,183.5048,79,56,0
183.5048,183.62027,76,51,0
183.62027,183.73521,73,55,0
183.85016,183.9651,73,51,0
183.9651,184.08005,74,53,0
184.08005,184.19499,76,56,0
184.19499,184.31769,73,52,0
184.31769,184.54916,74,54,0
184.54916,184.78474,76,56,0
184.78474,185.02667,78,58,0
185.02667,185.26862,79,61,0
185.26862,185.38957,76,58,0
185.51054,185.63766,72,54,0
185.76479,186.50859,71,55,0
185.76479,186.50859,67,55,0
186.50859,186.75652,69,50,0
186.50859,186.75652,66,50,0
187.49048,187.61446,74,48,0
187.73842,187.86238,74,49,0
187.98634,188.04834,76,51,0
188.04834,188.11032,78,51,0
188.11032,188.23428,76,51,0
188.23428,188.35825,74,52,0
188.48222,188.60318,74,54,0
188.72415,189.46188,74,56,0
189.46188,189.7088,66,52,0
190.31627,190.43391,67,50,0
190.43391,190.55156,71,52,0
190.55156,190.66922,67,52,0
190.66922,190.78285,74,53,0
190.78285,190.89648,71,54,0
190.89648,191.01012,79,55,0
191.01012,191.12376,74,56,0
191.12376,191.2396,83,57,0
191.2396,191.35542,79,58,0
191.35542,191.4759,86,59,0
191.4759,191.59637,83,60,0
191.59637,192.21878,86,66,0
192.21878,192.34326,85,57,0
192.34326,192.5912,84,64,0
193.335,193.44995,83,52,0
193.44995,193.5649,84,54,0
193.5649,193.67984,86,55,0
193.67984,193.8008,83,51,0
193.8008,193.91663,79,55,0
194.03246,194.14828,79,53,0
194.14828,194.26411,81,55,0
194.26411,194.37994,83,58,0
194.37994,194.5014,79,52,0
194.5014,194.61769,76,55,0
194.73396,194.85025,76,51,0
194.85025,194.96652,78,54,0
194.96652,195.08281,79,56,0
195.08281,195.20425,76,51,0
195.20425,195.31877,73,55,0
195.43327,195.54778,73,51,0
195.54778,195.66228,74,53,0
195.66228,195.77678,76,56,0
195.77678,195.89647,73,52,0
195.89647,196.12943,74,54,0
196.12943,196.37099,73,56,0
196.37099,196.61588,72,58,0
196.61588,196.86078,71,61,0
196.86078,197.10568,72,58,0
197.10568,197.14555,69,55,0
197.14555,197.18542,71,50,0
197.18542,197.2253,69,51,0
197.2253,197.28511,67,54,0
197.28511,197.34491,69,49,0
197.34491,197.45778,67,55,0
197.79639,197.89673,59,66,0
197.89673,198.00125,62,66,0
198.00125,198.10365,67,73,0
198.41084,198.51051,62,70,0
198.51051,198.61617,67,70,0
198.61617,198.71855,71,75,0
199.02574,199.12608,67,69,0
199.12608,199.23172,71,69,0
199.23172,199.33412,74,81,0
199.64131,199.74199,71,70,0
199.74199,199.848,74,70,0
199.848,199.9504,79,82,0
201.07675,201.58873,83,45,0
201.58873,201.69438,84,42,0
201.69438,202.10396,76,47,0
202.10396,202.30945,75,47,0
202.30945,202.462,76,55,0
202.51285,202.61319,88,54,0
202.71353,202.81387,86,52,0
202.91422,203.01456,84,50,0
203.1149,203.21524,83,49,0
203.31558,203.41904,82,47,0
203.52249,203.7817,83,45,0
203.7817,203.83255,84,35,0
203.83255,203.88339,83,35,0
203.88339,203.93425,82,35,0
203.93425,204.03595,83,45,0
204.03595,204.14348,84,42,0
204.14348,204.55307,76,47,0
204.57704,204.78229,75,47,0
204.75856,204.91112,76,55,0
204.96196,205.0623,88,54,0
205.16264,205.26299,86,52,0
205.36333,205.46367,84,50,0
205.56401,205.66435,83,49,0
205.7647,205.86815,82,47,0
205.9716,206.2308,81,45,0
206.2308,206.28166,83,35,0
206.28166,206.3325,81,35,0
206.3325,206.38336,80,35,0
206.38336,206.48506,81,45,0
206.48506,206.59259,83,42,0
206.59259,207.00218,74,47,0
207.02682,207.2372,73,47,0
207.21346,207.36601,74,55,0
207.41687,207.51721,86,54,0
207.61755,207.71788,85,52,0
207.81822,207.91856,83,50,0
208.0189,208.11925,81,49,0
208.21959,208.32304,80,47,0
208.4265,208.6857,81,45,0
208.6857,208.73656,83,35,0
208.73656,208.7874,81,35,0
208.7874,208.83826,80,35,0
208.83826,208.93996,81,45,0
208.93996,209.04749,83,42,0
209.04749,209.45708,74,47,0
209.48105,209.6863,73,47,0
209.66257,209.81512,74,55,0
209.86597,209.96631,78,54,0
210.06665,210.16699,76,52,0
210.26733,210.36768,74,50,0
210.46802,210.56836,73,49,0
210.6687,210.77216,71,47,0
210.87561,211.13481,76,45,0
211.13481,211.18567,78,35,0
211.18567,211.23651,76,35,0
211.23651,211.28737,75,35,0
211.28737,211.38907,76,45,0
211.38907,211.4966,78,42,0
211.4966,211.90619,69,47,0
211.90619,212.11746,68,47,0
212.11746,212.27002,69,55,0
212.32088,212.42122,81,54,0
212.52156,212.6219,80,52,0
212.72224,212.82259,78,50,0
212.92291,213.02325,76,49,0
213.1236,213.22705,75,47,0
213.33052,213.5897,76,45,0
213.5897,213.64056,78,35,0
213.64056,213.69142,76,35,0
213.69142,213.74226,75,35,0
213.74226,213.84396,76,45,0
213.84396,213.9515,78,42,0
213.9515,214.36108,69,47,0
214.36108,214.57237,68,47,0
214.57237,214.67801,69,36,0
214.67801,214.78365,64,28,0
214.78365,214.88675,61,28,0
214.88675,214.98985,64,28,0
214.98985,215.09296,69,28,0
215.09296,215.19604,64,28,0
215.19604,215.29915,69,36,0
215.29915,215.40225,64,27,0
215.40225,215.50536,61,27,0
215.50536,215.60844,64,27,0
215.60844,215.71484,69,28,0
215.71484,215.82123,64,28,0
215.82123,215.92761,71,38,0
215.92761,216.03401,64,30,0
216.03401,216.13782,62,31,0
216.13782,216.24164,64,32,0
216.24164,216.34544,71,33,0
216.34544,216.44926,64,35,0
216.44926,216.55307,71,46,0
216.55307,216.65689,64,35,0
216.65689,216.76071,62,36,0
216.76071,216.86452,64,36,0
216.86452,216.9709,71,38,0
216.9709,217.0773,64,39,0
217.0773,217.1804,73,52,0
217.1804,217.2835,67,41,0
217.2835,217.3866,64,42,0
217.3866,217.4897,67,44,0
217.4897,217.598,73,45,0
217.598,217.7063,64,45,0
217.7063,217.81084,74,60,0
217.81084,217.91536,69,49,0
217.91536,218.0199,66,50,0
218.0199,218.12442,69,51,0
218.12442,218.23471,74,53,0
218.23471,218.34502,69,54,0
218.34502,218.45064,76,69,0
218.45064,218.55627,73,58,0
218.55627,218.66191,69,59,0
218.66191,218.76755,73,61,0
218.76755,218.87825,76,63,0
218.87825,218.98895,73,65,0
218.98895,219.0957,78,77,0
219.0957,219.20247,74,66,0
219.20247,219.30923,69,68,0
219.30923,219.416,74,70,0
219.416,219.5271,78,72,0
219.5271,219.68288,74,73,0
219.68288,221.96136,73,63,0
219.68288,221.96136,79,75,0
219.68288,221.96136,76,63,0
219.68288,221.96136,69,63,0
221.96136,222.46422,79,74,0
222.46422,222.63184,76,69,0
222.63184,223.13467,85,76,0
223.13467,223.30229,79,69,0
223.30229,224.308,88,77,0
224.308,224.64323,86,64,0
224.64323,224.99522,85,66,0
224.97847,225.33046,83,63,0
225.31369,225.6657,81,63,0
225.64893,226.00018,80,60,0
225.98405,226.16402,81,57,0
226.1477,226.32527,82,53,0
226.30927,226.48347,83,53,0
226.46777,226.63911,81,54,0
226.62364,226.79192,79,54,0
226.77676,226.94228,78,57,0
226.92735,227.09003,81,60,0
227.07538,227.23457,79,57,0
227.22035,227.37457,83,60,0
227.36075,227.51062,81,57,0
227.49716,227.64348,79,58,0
227.63036,227.77194,78,58,0
227.75945,227.89597,76,62,0
227.88362,228.01816,78,58,0
228.00601,228.13872,79,58,0
228.12674,228.25739,78,59,0
228.24567,228.37434,81,64,0
228.36267,228.49055,79,61,0
228.47897,228.60599,78,63,0
228.5945,228.72072,76,60,0
228.70927,228.8347,74,63,0
228.82333,228.94835,73,62,0
228.93698,229.062,71,62,0
229.05063,229.18309,69,63,0
229.16747,229.24539,67,62,0
229.24539,229.32268,69,53,0
229.32268,229.39926,67,62,0
229.39926,229.47516,69,53,0
229.47516,229.55042,67,63,0
229.55042,229.62502,69,53,0
229.62502,229.69896,67,61,0
229.69896,229.77232,69,53,0
229.77232,229.84502,67,62,0
229.84502,229.9171,69,53,0
229.9171,229.98868,67,65,0
229.98868,230.05957,69,57,0
230.05957,230.13045,67,68,0
230.13045,230.20169,69,60,0
230.20169,230.27316,67,66,0
230.27316,230.34499,69,57,0
230.34499,230.44122,67,66,0
230.44122,230.53806,69,60,0
230.53806,230.63539,67,68,0
230.63539,230.78249,66,59,0
230.78249,230.93272,67,63,0
230.93272,231.01904,68,64,0
231.01904,231.10588,69,64,0
231.10588,231.19324,70,63,0
231.19324,231.28113,71,62,0
231.28113,231.36957,72,61,0
231.36957,231.45854,73,60,0
231.45854,231.54807,74,59,0
231.54807,231.63817,75,58,0
231.63817,231.72882,76,57,0
231.72882,231.82004,77,56,0
231.82004,231.91185,78,55,0
231.91185,232.00424,79,54,0
232.00424,232.12831,80,53,0
232.12831,232.25255,81,53,0
232.25255,232.37679,82,52,0
232.37679,232.88525,83,50,0
234.10974,234.48474,81,56,0
234.48474,235.26515,79,51,0
236.07596,236.41687,78,53,0
236.41687,237.16875,76,47,0
237.99066,238.43842,78,53,0
238.43842,238.54405,79,43,0
238.54405,238.64969,78,43,0
238.64969,238.75533,76,43,0
238.75533,238.86096,78,43,0
238.86096,239.54211,81,55,0
239.54211,239.7878,79,50,0
239.80074,240.26949,79,54,0
240.26949,240.38667,81,41,0
240.38667,240.50386,79,41,0
240.50386,240.62105,78,41,0
240.62105,240.73824,79,41,0
240.73824,241.67574,80,53,0
241.67574,242.87573,83,50,0
242.87573,244.45468,81,41,0
244.45468,244.55435,69,40,0
244.55435,244.95706,81,45,0
244.95706,245.10808,78,42,0
245.10808,245.15842,76,42,0
245.15842,245.23393,74,46,0
245.35979,245.43529,73,42,0
245.56114,245.63927,74,42,0
245.71739,245.76949,76,41,0
245.76949,245.84499,74,45,0
245.97084,246.04634,73,41,0
246.1722,246.25343,74,40,0
246.38882,246.81139,78,46,0
246.38882,246.81139,74,39,0
246.81139,246.9424,76,39,0
246.81139,246.9424,73,33,0
246.9424,247.04207,67,40,0
247.04207,247.44478,79,45,0
247.44478,247.5958,76,42,0
247.5958,247.64613,74,42,0
247.64613,247.72165,73,46,0
247.8475,247.923,71,42,0
248.04886,248.12698,73,42,0
248.2572,248.3327,69,45,0
248.45856,248.53406,76,41,0
248.65991,248.74115,81,40,0
248.87654,249.2991,76,39,0
248.87654,249.2991,79,46,0
249.2991,249.45493,74,33,0
249.2991,249.45757,78,39,0
249.45757,249.51038,74,48,0
249.51038,249.91582,78,52,0
249.91582,250.12273,79,48,0
250.12273,250.22409,83,59,0
250.22409,250.32544,81,57,0
250.32544,250.4268,79,55,0
250.4268,250.52815,78,53,0
250.52815,250.63765,76,51,0
250.63765,250.68697,74,47,0
250.68956,250.74147,74,46,0
250.74147,251.14554,78,58,0
251.14554,251.35388,79,49,0
251.35388,251.45491,83,59,0
251.45491,251.55592,81,57,0
251.55592,251.65694,79,55,0
251.65694,251.75795,78,53,0
251.75795,251.86949,76,51,0
251.86949,251.9132,74,51,0
251.92194,251.9744,74,46,0
251.9744,252.37846,83,58,0
252.37846,252.58537,85,49,0
252.58537,252.68639,86,59,0
252.68639,252.7874,85,57,0
252.7874,252.88841,83,55,0
252.88841,252.98944,81,53,0
252.98944,253.09218,79,51,0
253.09218,253.19493,78,51,0
253.19493,253.29594,83,59,0
253.29594,253.39696,81,58,0
253.39696,253.49799,79,56,0
253.49799,253.599,78,55,0
253.599,253.70427,76,58,0
253.70427,253.82672,74,62,0
253.82672,254.03508,73,50,0
253.82672,254.03508,76,50,0
253.82672,254.03508,81,59,0
254.3476,254.44727,57,40,0
254.44727,254.84998,69,45,0
254.84998,255.001,66,42,0
255.001,255.05135,64,42,0
255.05135,255.12685,62,46,0
255.2527,255.3282,61,42,0
255.45406,255.53218,62,42,0
255.6103,255.6624,64,41,0
255.6624,255.73792,62,45,0
255.86375,255.93927,61,41,0
256.06512,256.14633,62,40,0
256.28174,256.70428,66,46,0
256.28174,256.70428,62,39,0
256.70428,256.83533,64,39,0
256.70428,256.83533,61,33,0
256.83533,256.935,55,40,0
256.935,257.3377,67,45,0
257.3377,257.4887,64,42,0
257.4887,257.53906,62,42,0
257.53906,257.61456,61,46,0
257.74042,257.81592,59,42,0
257.94177,258.0199,61,42,0
258.15012,258.22562,57,45,0
258.35147,258.42697,64,41,0
258.55283,258.63406,69,40,0
258.76944,259.19202,64,39,0
258.76944,259.19202,67,46,0
259.19202,259.35046,66,39,0
259.19202,259.35046,62,33,0
259.35046,259.4033,74,48,0
259.4033,259.80872,78,52,0
259.80872,260.01566,79,48,0
260.01566,260.117,83,59,0
260.117,260.21835,81,57,0
260.21835,260.3197,79,55,0
260.3197,260.42108,78,53,0
260.42108,260.53058,76,51,0
260.53058,260.5825,74,47,0
260.5825,260.6344,79,46,0
260.6344,261.0387,83,58,0
261.0387,261.2454,85,49,0
261.2454,261.34662,88,59,0
261.34662,261.44763,86,57,0
261.44763,261.54865,85,55,0
261.54865,261.64966,83,53,0
261.64966,261.75226,81,51,0
261.75226,261.855,79,51,0
261.855,261.95618,85,59,0
261.95618,262.0572,83,58,0
262.0572,262.1582,81,56,0
262.1582,262.25922,79,55,0
262.25922,262.36414,78,54,0
262.36414,262.48517,76,52,0
262.48517,262.5864,83,63,0
262.5864,262.6874,81,61,0
262.6874,262.78842,79,59,0
262.78842,262.88943,78,57,0
262.88943,262.99203,76,56,0
262.99203,263.0948,74,54,0
263.0948,263.19595,81,59,0
263.19595,263.29697,79,61,0
263.29697,263.39798,78,60,0
263.39798,263.499,76,59,0
263.499,263.6039,74,58,0
263.6039,263.72495,73,61,0
263.72495,263.82947,74,63,0
264.56125,264.63675,62,61,0
264.7626,264.84045,62,62,0
264.86642,264.901,64,40,0
264.901,264.9356,62,40,0
264.9365,264.97107,61,40,0
264.9702,265.37842,62,69,0
265.37842,265.45496,62,60,0
265.48047,265.51447,64,40,0
265.51447,265.5485,62,40,0
265.54935,265.58337,61,40,0
265.58252,265.9907,62,64,0
265.9907,266.0691,62,59,0
266.19977,266.64752,60,66,0
266.74957,266.85162,69,54,0
266.85162,267.66797,81,63,0
267.66797,267.74347,84,45,0
267.86932,267.94482,83,43,0
268.07068,268.14618,81,41,0
268.27203,268.3491,79,39,0
268.4775,268.56024,78,37,0
268.69812,269.3125,81,35,0
269.3125,269.5487,79,35,0
269.5487,269.62424,59,61,0
269.7501,269.82794,59,62,0
269.85388,269.8885,59,40,0
269.8885,269.9231,57,40,0
269.9231,269.9577,56,40,0
269.9577,270.3659,57,69,0
270.3659,270.44244,57,60,0
270.46796,270.50195,57,40,0
270.50195,270.53598,55,40,0
270.53598,270.56998,54,40,0
270.56998,270.97818,55,64,0
270.97818,271.05658,55,59,0
271.18726,271.65237,54,66,0
271.75443,271.85645,74,54,0
271.85645,272.5708,84,63,0
272.5708,272.67285,83,53,0
272.67285,272.7749,81,53,0
272.7749,272.87692,79,52,0
272.87692,272.97897,78,51,0
272.97897,273.08316,76,51,0
273.08316,273.18518,74,54,0
273.18518,273.28723,76,49,0
273.28723,273.38928,74,50,0
273.38928,273.4913,72,49,0
273.4913,273.59335,71,48,0
273.59335,273.7005,69,47,0
273.7005,273.80313,71,47,0
273.80313,273.9056,74,47,0
273.9056,274.00772,76,48,0
274.00772,274.10995,78,50,0
274.10995,274.2124,79,52,0
274.2124,274.31696,81,53,0
274.31696,274.41898,83,55,0
274.41898,274.52103,84,57,0
274.52103,274.6234,86,61,0
274.6234,274.7258,83,57,0
274.7258,274.8282,81,57,0
274.8282,274.93457,79,53,0
274.93457,275.03662,84,62,0
275.03662,275.13867,83,60,0
275.13867,275.24106,81,58,0
275.24106,275.34344,79,57,0
275.34344,275.44583,78,55,0
275.44583,275.55182,76,53,0
275.55182,275.65387,74,59,0
275.65387,275.75592,76,58,0
275.75592,275.8583,74,56,0
275.8583,275.9607,72,55,0
275.9607,276.06308,71,53,0
276.06308,276.16983,69,52,0
276.16983,276.27243,71,48,0
276.27243,276.37442,74,50,0
276.37442,276.47583,76,51,0
276.47583,276.57748,78,52,0
276.57748,276.6795,79,54,0
276.6795,276.78366,81,55,0
276.78366,276.8857,83,56,0
276.8857,276.98776,84,58,0
276.98776,277.08978,86,60,0
277.08978,277.19183,83,52,0
277.19183,277.29822,81,51,0
277.29822,277.41772,79,47,0
277.41772,277.52432,81,53,0
277.52432,277.6269,79,51,0
277.6269,277.72888,78,51,0
277.72888,277.83072,76,50,0
277.83072,277.9329,75,49,0
277.9329,278.03967,72,48,0
278.03967,278.1424,71,52,0
278.1424,278.24515,72,52,0
278.24515,278.34683,71,51,0
278.34683,278.44852,69,51,0
278.44852,278.55023,67,50,0
278.55023,278.65665,66,50,0
278.65665,278.75928,67,56,0
278.75928,278.8615,71,50,0
278.8615,278.96326,73,52,0
278.96326,279.06497,75,53,0
279.06497,279.1668,76,55,0
279.1668,279.27356,78,57,0
279.27356,279.37527,79,62,0
279.37527,279.47696,81,57,0
279.47696,279.579,83,56,0
279.579,279.68103,79,54,0
279.68103,279.78308,78,53,0
279.78308,279.88858,76,52,0
279.88858,279.99106,79,63,0
279.99106,280.09293,78,61,0
280.09293,280.19427,76,59,0
280.19427,280.2959,74,58,0
280.2959,280.3978,73,56,0
280.3978,280.50452,71,54,0
280.50452,280.60706,69,60,0
280.60706,280.7089,71,58,0
280.7089,280.81027,69,56,0
280.81027,280.91202,67,55,0
280.91202,281.0142,66,54,0
281.0142,281.12006,64,52,0
281.12006,281.223,66,56,0
281.223,281.32553,69,50,0
281.32553,281.4276,71,52,0
281.4276,281.52985,73,53,0
281.52985,281.63235,74,55,0
281.63235,281.7391,76,57,0
281.7391,281.8422,78,62,0
281.8422,281.94528,79,57,0
281.94528,282.04733,81,56,0
282.04733,282.14938,83,54,0
282.14938,282.2514,85,53,0
282.2514,282.3578,86,52,0
282.3578,282.46417,83,60,0
282.46417,282.57056,81,59,0
282.57056,282.67694,79,57,0
282.67694,282.78333,78,56,0
282.78333,282.8897,76,55,0
282.8897,282.99625,74,53,0
282.99625,283.09924,79,52,0
283.09924,283.2012,78,54,0
283.2012,283.30215,76,57,0
283.30215,283.40216,74,60,0
283.40216,283.50388,73,64,0
283.50388,283.60803,71,67,0
283.60803,283.69168,69,70,0
283.8311,283.90842,81,62,0
283.8311,283.90842,73,52,0
283.8311,283.90842,76,52,0
284.0373,284.11707,81,62,0
284.0373,284.11707,76,52,0
284.0373,284.11707,73,52,0
284.25003,284.33792,73,56,0
284.25003,284.33792,81,67,0
284.25003,284.33792,76,56,0
284.95316,285.5986,78,50,0
284.95316,285.5986,69,42,0
285.5986,285.81375,76,47,0
285.81375,286.02744,78,44,0
286.02744,286.2486,76,44,0
285.5986,286.2486,67,39,0
286.2486,287.97205,74,50,0
286.2486,287.97205,66,42,0
287.97205,288.185,78,50,0
288.185,288.6153,79,50,0
288.6153,288.83417,83,54,0
288.185,288.83417,74,42,0
288.83417,289.04855,73,45,0
289.04855,289.26297,74,50,0
288.83417,289.26297,81,53,0
289.26297,289.48035,76,42,0
289.26297,289.48035,79,50,0
289.48035,289.91064,74,45,0
289.48035,289.91064,78,54,0
290.13492,290.9955,76,50,0
290.9955,291.2092,78,44,0
291.2092,291.43036,76,44,0
291.43036,292.29095,76,50,0
292.29095,292.50464,78,45,0
292.50464,292.72894,79,46,0
292.72894,292.9501,81,52,0
292.9501,293.11255,86,49,0
293.1667,293.33142,85,48,0
293.38632,293.54877,83,49,0
293.60294,293.76538,81,48,0
293.81955,293.99393,79,46,0
294.05206,294.50577,78,45,0
294.50577,294.6242,79,42,0
294.6242,294.74585,78,43,0
294.74585,294.981,76,37,0
295.45123,296.09668,78,50,0
295.45123,296.09668,69,42,0
296.09668,296.31183,76,47,0
296.31183,296.5255,78,44,0
296.5255,296.74667,76,44,0
296.09668,296.74667,67,39,0
296.74667,297.39212,66,42,0
297.39212,298.03983,72,42,0
297.39212,298.03983,66,42,0
298.03983,298.4701,67,42,0
298.03983,298.4701,71,42,0
296.74667,298.4701,74,50,0
298.4701,298.68307,71,50,0
298.4701,298.68307,69,50,0
298.4701,298.68307,75,50,0
298.68307,299.11337,71,42,0
298.68307,299.11337,67,42,0
298.68307,299.11337,76,50,0
299.11337,299.3322,83,54,0
299.11337,299.3322,78,54,0
299.3322,299.76105,81,53,0
299.3322,299.76105,76,45,0
299.76105,299.9784,79,50,0
299.76105,299.9784,73,42,0
299.9784,300.4087,74,45,0
299.9784,300.4087,78,54,0
300.62756,300.84653,76,50,0
300.84653,300.95407,88,55,0
301.06158,301.16913,88,55,0
301.27664,301.3842,88,59,0
301.4917,301.59854,88,53,0
301.70538,301.81598,88,53,0
301.92654,302.1417,88,60,0
302.1417,302.24927,81,53,0
302.35684,302.46442,81,53,0
302.572,302.67957,81,62,0
302.78714,302.89398,86,56,0
303.00082,303.11142,86,56,0
303.222,303.33255,86,57,0
303.44315,303.55145,79,45,0
303.44315,303.55145,83,53,0
303.65976,303.76956,81,54,0
303.65976,303.76956,78,45,0
303.87936,303.98657,79,56,0
303.87936,303.98657,76,47,0
304.09378,304.2021,78,58,0
304.09378,304.2021,74,49,0
304.3104,304.42667,76,59,0
304.3104,304.42667,73,50,0
304.54294,305.1609,74,65,0
305.1609,305.7831,78,65,0
305.7831,305.8855,79,67,0
305.8855,305.98788,78,65,0
305.98788,306.09027,76,64,0
306.09027,306.19266,74,63,0
306.19266,306.29507,73,61,0
306.40182,306.5042,76,65,0
306.5042,306.6066,74,64,0
306.6066,306.70898,73,62,0
306.70898,306.81137,71,61,0
306.81137,306.91376,69,60,0
306.91376,307.02286,67,58,0
307.02286,307.12524,66,61,0
307.22763,307.33145,69,49,0
307.43524,307.53906,74,52,0
307.64285,307.74667,78,55,0
307.85046,307.95428,81,58,0
308.2657,308.36807,79,67,0
308.36807,308.4705,78,65,0
308.4705,308.57288,76,64,0
308.57288,308.67526,74,63,0
308.67526,308.77765,73,61,0
308.8844,308.9868,76,65,0
308.9868,309.08917,74,64,0
309.08917,309.19156,73,62,0
309.19156,309.29395,71,61,0
309.29395,309.39636,69,60,0
309.39636,309.50543,67,58,0
309.50543,309.60782,66,61,0
309.7102,309.81403,69,49,0
309.91782,310.02164,74,52,0
310.12546,310.22925,78,55,0
310.33307,310.43686,81,58,0
310.9618,311.17087,82,45,0
311.17087,311.3799,83,45,0
311.5942,311.80255,86,45,0
311.80255,312.01086,83,45,0
312.22592,312.435,80,45,0
312.435,312.64404,81,45,0
312.85834,313.0681,83,45,0
313.0681,313.27792,79,45,0
313.4922,313.70126,77,45,0
313.70126,313.9103,78,45,0
314.12384,314.33435,79,45,0
314.33435,314.5449,76,45,0
314.5449,315.16284,74,65,0
315.16284,315.7851,78,65,0
315.7851,315.88748,79,67,0
315.88748,315.98987,78,65,0
315.98987,316.09225,76,64,0
316.09225,316.19464,74,63,0
316.19464,316.29703,73,61,0
316.40378,316.50616,76,65,0
316.50616,316.60858,74,64,0
316.60858,316.71097,73,62,0
316.71097,316.81335,71,61,0
316.81335,316.91574,69,60,0
316.91574,317.0248,67,58,0
317.0248,317.12723,66,61,0
317.2296,317.3334,69,49,0
317.43723,317.54102,74,52,0
317.64484,317.74863,78,55,0
317.85245,317.95624,81,58,0
318.26767,318.37006,79,67,0
318.37006,318.47244,78,65,0
318.47244,318.57483,76,64,0
318.57483,318.67722,74,63,0
318.67722,318.7796,73,61,0
318.88638,318.98877,76,65,0
318.98877,319.09116,74,64,0
319.09116,319.19354,73,62,0
319.19354,319.29593,71,61,0
319.29593,319.39832,69,60,0
319.39832,319.50742,67,58,0
319.50742,319.6098,66,61,0
319.7122,319.81598,69,49,0
319.9198,320.0236,74,52,0
320.1274,320.23123,78,55,0
320.33502,320.43884,81,58,0
320.96765,321.17596,82,45,0
321.17596,321.3843,83,43,0
321.59784,321.80615,86,45,0
321.80615,322.0145,83,41,0
322.2288,322.4371,80,45,0
322.4371,322.64545,81,44,0
322.85898,323.0673,83,45,0
323.0673,323.27563,79,43,0
323.49146,323.70126,77,45,0
323.70126,323.91104,78,43,0
324.1261,324.33664,79,45,0
324.33664,324.55246,76,43,0
324.77225,324.87604,82,69,0
324.77225,324.87604,70,58,0
324.97986,325.08365,71,56,0
324.97986,325.08365,83,67,0
325.4033,325.50674,86,69,0
325.4033,325.50674,74,58,0
325.6102,325.71362,83,67,0
325.6102,325.71362,71,56,0
326.03214,326.13666,80,69,0
326.03214,326.13666,68,58,0
326.24118,326.34573,81,67,0
326.24118,326.34573,69,56,0
326.66687,326.77176,83,69,0
326.66687,326.77176,71,58,0
326.87665,326.98154,67,56,0
326.87665,326.98154,79,67,0
327.30304,327.40686,65,58,0
327.30304,327.40686,77,69,0
327.51065,327.61447,66,56,0
327.51065,327.61447,78,67,0
327.9318,328.0356,79,69,0
327.9318,328.0356,67,58,0
328.1394,328.24323,76,67,0
328.1394,328.24323,64,56,0
328.34702,328.5518,66,72,0
328.34702,328.5518,74,72,0
328.96497,329.58722,66,62,0
328.96497,329.58722,74,73,0
329.58722,329.99677,76,75,0
329.58722,329.99677,67,63,0
329.99677,330.1518,79,71,0
329.99677,330.1518,71,60,0
330.1518,330.2044,64,65,0
330.2044,330.6154,74,76,0
330.6154,330.6501,73,69,0
330.6501,330.6848,74,62,0
330.6848,330.71954,73,63,0
330.71954,330.77164,71,70,0
330.77164,330.8237,73,64,0
330.8237,331.0285,74,72,0
331.44165,331.54404,66,62,0
331.44165,331.54404,74,73,0
331.64645,331.74884,66,62,0
331.64645,331.74884,74,73,0
331.85123,331.9536,74,73,0
331.85123,331.9536,66,62,0
332.0639,332.47345,67,63,0
332.0639,332.47345,76,75,0
332.47345,332.62848,71,60,0
332.47345,332.62848,79,71,0
332.62848,332.68112,64,65,0
332.68112,333.09207,74,76,0
333.09207,333.12766,73,69,0
333.12766,333.16324,74,62,0
333.16324,333.19882,73,63,0
333.19882,333.2522,71,70,0
333.2522,333.3056,73,64,0
333.3056,333.5222,74,72,0
333.5222,333.73126,66,45,0
333.73126,333.9403,69,39,0
333.9403,334.14938,71,45,0
334.14938,334.35916,73,41,0
334.35916,334.57422,74,42,0
334.57422,334.79083,76,47,0
334.79083,335.0006,69,40,0
335.0006,335.21042,71,37,0
335.21042,335.4202,73,46,0
335.4202,335.6322,74,44,0
335.6322,335.8496,76,47,0
335.8496,336.07266,78,49,0
336.07266,336.2854,69,44,0
336.07266,336.2854,66,37,0
336.2854,336.49817,69,34,0
336.2854,336.49817,73,41,0
336.49817,336.71094,71,44,0
336.49817,336.71094,74,52,0
336.71094,336.9237,73,42,0
336.71094,336.9237,76,50,0
336.9237,337.1411,74,45,0
336.9237,337.1411,78,54,0
337.1411,337.365,79,57,0
337.1411,337.365,76,48,0
337.365,337.57852,73,52,0
337.365,337.57852,69,45,0
337.57852,337.7951,71,42,0
337.57852,337.7951,74,50,0
337.7951,338.01306,73,53,0
337.7951,338.01306,76,62,0
338.01306,338.2394,74,50,0
338.01306,338.2394,78,59,0
338.2394,338.4853,76,54,0
338.2394,338.4853,79,65,0
338.4853,338.95404,81,69,0
338.4853,338.95404,78,58,0
339.65717,339.75684,69,45,0
339.75684,340.15955,81,50,0
340.15955,340.31058,78,47,0
340.31058,340.36093,76,47,0
340.36093,340.43643,74,52,0
340.5623,340.6378,73,47,0
340.76364,340.84177,74,47,0
340.9199,340.972,76,46,0
340.972,341.0475,74,50,0
341.17334,341.24884,73,46,0
341.3747,341.45593,74,45,0
341.5913,342.0139,74,44,0
341.5913,342.0139,78,52,0
342.0139,342.1449,76,44,0
342.0139,342.1449,73,37,0
342.1449,342.24457,67,45,0
342.24457,342.64728,79,50,0
342.64728,342.7983,76,47,0
342.7983,342.84863,74,47,0
342.84863,342.92413,73,52,0
343.05,343.1255,71,47,0
343.25134,343.32947,73,47,0
343.4597,343.53522,69,50,0
343.66104,343.73657,76,46,0
343.8624,343.94363,81,45,0
344.07904,344.5016,76,44,0
344.07904,344.5016,79,52,0
344.5016,344.66006,78,44,0
344.5016,344.66006,74,37,0
344.66006,344.7129,74,48,0
344.7129,345.11832,78,52,0
345.11832,345.32523,79,48,0
345.32523,345.42657,83,59,0
345.42657,345.52792,81,57,0
345.52792,345.6293,79,55,0
345.6293,345.73065,78,53,0
345.73065,345.84015,76,51,0
345.84015,345.89206,74,47,0
345.89206,345.94397,79,46,0
345.94397,346.34802,83,58,0
346.34802,346.55493,85,49,0
346.55493,346.65594,88,59,0
346.65594,346.757,86,57,0
346.757,346.858,85,55,0
346.858,346.959,83,53,0
346.959,347.06177,81,51,0
347.06177,347.1645,79,51,0
347.1645,347.26553,85,59,0
347.26553,347.36655,83,58,0
347.36655,347.46756,81,56,0
347.46756,347.56857,79,55,0
347.56857,347.67383,78,58,0
347.67383,347.7963,76,62,0
347.7963,347.89752,83,63,0
347.89752,347.99854,81,61,0
347.99854,348.09955,79,59,0
348.09955,348.20056,78,57,0
348.20056,348.30316,76,56,0
348.30316,348.4059,74,54,0
348.4059,348.50708,81,59,0
348.50708,348.6081,79,61,0
348.6081,348.7091,78,60,0
348.7091,348.81012,76,59,0
348.81012,348.91504,74,58,0
348.91504,349.03607,73,61,0
349.03607,349.14062,74,63,0
349.45422,349.55457,62,66,0
349.55457,349.6591,66,66,0
349.6591,349.7615,69,73,0
350.0687,350.16837,66,70,0
350.16837,350.27402,69,70,0
350.27402,350.3764,74,75,0
350.6836,350.78394,69,69,0
350.78394,350.88956,74,69,0
350.88956,350.99197,78,81,0
351.29916,351.39984,74,70,0
351.39984,351.50586,78,70,0
351.50586,351.60825,81,82,0
352.7346,353.24658,81,45,0
353.24658,353.35223,83,42,0
353.35223,353.7618,74,47,0
353.78577,353.99103,73,47,0
353.9673,354.11984,74,55,0
354.1707,354.27103,86,54,0
354.37137,354.4717,85,52,0
354.57205,354.6724,83,50,0
354.77274,354.87308,81,49,0
354.97342,355.07687,80,47,0
355.18033,355.43954,81,45,0
355.43954,355.4904,83,35,0
355.4904,355.54123,81,35,0
355.54123,355.5921,80,35,0
355.5921,355.6938,81,45,0
355.6938,355.80133,83,42,0
355.80133,356.2109,74,47,0
356.2349,356.44012,73,47,0
356.4164,356.56897,74,55,0
356.6198,356.72015,86,54,0
356.8205,356.92084,85,52,0
357.02118,357.12152,83,50,0
357.22186,357.3222,81,49,0
357.42255,357.526,80,47,0
357.62946,357.88864,81,45,0
357.88864,357.9395,83,35,0
357.9395,357.99036,81,35,0
357.99036,358.0412,80,35,0
358.0412,358.1429,81,45,0
358.1429,358.25043,83,42,0
358.25043,358.66003,74,47,0
358.68466,358.89505,73,47,0
358.8713,359.0747,74,52,0
359.4815,360.11087,54,29,0
359.4815,360.11087,62,35,0
359.4815,360.11087,59,29,0
360.11087,360.72107,62,32,0
360.11087,360.72107,64,38,0
360.11087,360.72107,59,32,0
360.72107,361.3455,61,33,0
360.72107,361.3455,64,33,0
360.72107,361.3455,69,39,0
361.3455,361.5531,62,29,0
361.3455,361.5531,57,29,0
361.3455,361.5531,66,35,0
361.96832,362.07364,78,44,0
361.96832,362.07364,83,52,0
362.07364,362.17853,86,47,0
362.17853,362.28278,78,44,0
362.17853,362.28278,83,52,0
362.28278,362.3863,86,47,0
362.3863,362.48917,83,53,0
362.3863,362.48917,78,45,0
362.48917,362.5913,86,49,0
362.5913,362.69302,76,50,0
362.5913,362.69302,83,59,0
362.69302,362.7947,86,53,0
362.7947,362.8964,83,62,0
362.7947,362.8964,76,51,0
362.8964,362.9981,86,57,0
362.9981,363.0998,76,53,0
362.9981,363.0998,83,64,0
363.0998,363.20148,86,59,0
363.20148,363.3032,76,57,0
363.20148,363.3032,79,68,0
363.3032,363.40488,85,62,0
363.40488,363.50656,79,71,0
363.40488,363.50656,76,60,0
363.50656,363.6092,85,64,0
363.6092,363.71594,79,73,0
363.6092,363.71594,76,62,0
363.71594,363.82272,85,68,0
363.82272,363.93222,74,73,0
363.82272,363.93222,86,88,0
363.82272,363.93222,81,73,0
363.82272,363.93222,78,73,0
364.47964,364.59076,81,85,0
364.47964,364.59076,78,72,0
364.47964,364.59076,74,72,0
364.47964,364.59076,69,72,0
365.14633,365.25742,69,72,0
365.14633,365.25742,74,72,0
365.14633,365.25742,78,85,0
1.202115,1.813175,66,33,0
1.202115,1.813175,62,27,0
1.813175,2.432509,68,33,0
1.813175,2.432509,59,27,0
2.432509,3.0857642,69,33,0
2.432509,3.0857642,57,27,0
3.6898322,4.3008924,57,27,0
3.6898322,4.3008924,64,33,0
4.3008924,4.920226,64,33,0
4.3008924,4.920226,61,27,0
4.920226,5.554074,69,33,0
4.920226,5.554074,62,27,0
5.554074,5.75679,50,51,0
5.75679,5.8581486,62,45,0
5.9595065,6.062962,64,48,0
6.1664176,6.3691344,66,52,0
6.785161,6.987195,50,50,0
6.987195,7.088212,62,44,0
7.1892295,7.293403,64,48,0
7.3975773,7.5996113,66,53,0
8.018081,8.220115,55,50,0
8.220115,8.321132,67,44,0
8.422149,8.525603,64,48,0
8.629059,8.831093,66,53,0
8.629059,8.831093,54,45,0
9.238621,9.440655,55,45,0
9.238621,9.440655,67,53,0
9.870419,10.078766,57,45,0
9.870419,10.078766,69,53,0
11.095031,11.706091,62,27,0
11.095031,11.706091,66,33,0
11.706091,12.325425,68,33,0
11.706091,12.325425,59,27,0
12.325425,12.97868,57,27,0
12.325425,12.97868,69,33,0
13.582748,14.193808,57,27,0
13.582748,14.193808,64,33,0
14.193808,14.813142,61,27,0
14.193808,14.813142,64,33,0
14.813142,15.446989,69,33,0
14.813142,15.446989,62,27,0
15.446989,15.649706,50,51,0
15.649706,15.751064,62,45,0
15.852423,15.955878,64,48,0
16.059334,16.26205,66,52,0
16.678078,16.880344,43,50,0
16.880344,16.981361,55,44,0
17.082378,17.18563,59,48,0
17.289085,17.491323,59,53,0
17.898706,17.999868,59,45,0
17.898706,17.999868,64,53,0
17.907269,18.008286,55,45,0
18.528862,18.630081,57,45,0
18.528862,18.630081,62,45,0
18.537483,18.6385,66,53,0
19.138481,19.239643,57,45,0
19.138481,19.239643,64,45,0
19.147043,19.24806,67,53,0
19.768637,19.873173,62,45,0
19.768637,19.873173,66,53,0
20.186785,20.287127,38,45,0
20.287127,20.391663,42,45,0
20.391663,20.494059,45,52,0
20.801247,20.90092,42,48,0
20.90092,21.006563,45,48,0
21.006563,21.10896,50,57,0
21.416147,21.516487,45,51,0
21.516487,21.62213,50,51,0
21.62213,21.724525,54,57,0
22.031713,22.132391,50,48,0
22.132391,22.238405,54,48,0
22.238405,22.340801,57,57,0
23.467157,24.08478,62,29,0
23.467157,24.08478,66,35,0
24.08478,24.699856,67,32,0
24.08478,24.699856,64,27,0
24.699856,24.90326,66,35,0
24.699856,24.90326,62,29,0
23.467157,24.90326,57,29,0
25.9129,26.533888,66,35,0
25.9129,26.533888,62,29,0
26.533888,27.148966,64,27,0
26.533888,27.148966,67,32,0
27.148966,27.35237,66,35,0
27.148966,27.35237,62,29,0
25.9129,27.35237,57,29,0
28.362011,28.982998,66,35,0
28.362011,28.982998,62,29,0
28.982998,29.603865,64,27,0
28.982998,29.603865,67,32,0
28.362011,29.603865,57,29,0
29.603865,29.807268,66,32,0
29.603865,29.807268,62,24,0
30.214075,30.824286,47,35,0
30.824286,31.428354,43,37,0
31.428354,32.040695,45,39,0
32.040695,32.2441,38,35,0
32.85431,32.92982,50,44,0
32.85431,32.92982,38,44,0
33.055668,33.133526,50,44,0
33.055668,33.133526,38,44,0
33.263294,33.671486,38,52,0
33.263294,33.671486,50,52,0
33.671486,33.74802,38,44,0
33.671486,33.74802,50,44,0
33.87558,34.28377,38,44,0
33.87558,34.28377,50,44,0
34.28377,34.362175,50,44,0
34.28377,34.362175,38,44,0
34.492844,34.901035,37,52,0
34.492844,34.901035,49,52,0
35.71742,35.793953,69,30,0
35.71742,35.793953,61,25,0
35.921513,35.99702,61,25,0
35.921513,35.99702,69,30,0
36.12287,36.19838,69,30,0
36.12287,36.19838,61,25,0
36.324226,36.399734,69,30,0
36.324226,36.399734,61,25,0
36.52558,36.602642,61,25,0
36.52558,36.602642,69,30,0
36.731075,36.8138,61,25,0
36.731075,36.8138,69,30,0
36.95168,37.783463,59,29,0
36.95168,37.783463,69,35,0
37.783463,37.85897,35,44,0
37.783463,37.85897,47,44,0
37.984818,38.06268,35,44,0
37.984818,38.06268,47,44,0
38.192448,38.600636,47,52,0
38.192448,38.600636,35,52,0
38.600636,38.677174,47,44,0
38.600636,38.677174,35,44,0
38.804733,39.212925,45,44,0
38.804733,39.212925,33,44,0
39.212925,39.291325,45,44,0
39.212925,39.291325,33,44,0
39.421997,39.62609,32,52,0
39.421997,39.62609,44,52,0
40.850666,41.05476,59,30,0
41.05476,41.260975,64,26,0
40.646572,41.260975,56,40,0
41.465057,41.66914,59,30,0
41.66914,41.878323,64,27,0
41.260975,41.878323,56,40,0
42.082405,42.286484,61,33,0
42.286484,42.493057,64,36,0
41.878323,42.493057,57,40,0
42.697136,42.90122,61,33,0
42.90122,43.109642,64,33,0
42.493057,43.109642,57,40,0
43.313725,43.517807,59,34,0
43.517807,43.725853,64,31,0
43.109642,43.725853,56,40,0
43.929935,44.134018,59,33,0
44.134018,44.34282,64,28,0
43.725853,44.34282,56,40,0
44.5469,44.75098,61,34,0
44.75098,44.957188,64,37,0
44.34282,44.957188,57,40,0
45.16127,45.365353,61,34,0
45.365353,45.574535,64,34,0
44.957188,45.574535,57,40,0
45.778618,45.982697,59,33,0
45.982697,46.1915,64,30,0
45.574535,46.1915,56,40,0
46.39489,46.59828,59,34,0
46.59828,46.806736,64,32,0
46.1915,46.806736,56,40,0
46.806736,47.2149,57,46,0
47.423702,47.830482,57,42,0
47.423702,47.830482,49,42,0
48.03856,48.44534,50,46,0
48.03856,48.44534,57,46,0
48.65356,48.75657,62,45,0
48.75657,48.85852,61,42,0
48.85852,48.95949,59,43,0
48.95949,49.0595,57,46,0
49.0595,49.1612,56,48,0
49.1612,49.26537,54,51,0
49.26537,49.349014,52,54,0
49.48842,49.56574,52,50,0
49.694603,49.77439,52,50,0
49.90737,49.991325,52,54,0
51.874447,52.519886,57,41,0
52.519886,52.73503,56,46,0
52.73503,52.948723,57,44,0
52.948723,53.167587,56,44,0
53.167587,54.24114,54,51,0
54.24114,54.460003,50,36,0
54.460003,54.67441,52,41,0
54.67441,54.88882,54,37,0
54.88882,55.10618,56,37,0
55.10618,55.321327,57,42,0
55.321327,55.536472,59,38,0
55.536472,55.760773,61,38,0
55.760773,56.40621,62,42,0
56.40621,57.056206,63,42,0
55.760773,57.056206,69,35,0
55.760773,57.056206,66,35,0
57.056206,57.701645,68,35,0
57.056206,57.701645,64,42,0
57.701645,58.354782,68,35,0
57.701645,58.354782,62,42,0
57.701645,58.354782,64,35,0
58.354782,58.57594,61,29,0
58.354782,58.57594,69,35,0
58.354782,58.57594,64,29,0
59.012165,59.445377,62,35,0
59.445377,59.677917,54,26,0
59.445377,59.677917,57,31,0
59.677917,60.371696,57,36,0
60.371696,60.606823,56,32,0
59.677917,60.606823,52,30,0
62.372513,63.017952,54,41,0
63.017952,63.2331,52,46,0
63.2331,63.44679,54,44,0
63.44679,63.665657,52,44,0
63.665657,64.09595,50,51,0
64.09595,64.308914,49,36,0
64.308914,64.739204,47,51,0
64.739204,64.95807,45,36,0
64.95807,65.38689,44,41,0
65.38689,65.60425,40,37,0
65.60425,65.8194,45,42,0
65.8194,66.03454,47,38,0
66.03454,66.25341,49,38,0
66.25341,66.89885,50,42,0
66.89885,67.54884,51,42,0
66.25341,67.54884,54,35,0
66.25341,67.54884,57,35,0
67.54884,68.19428,50,42,0
67.54884,68.19428,52,42,0
67.54884,68.19428,56,35,0
68.19428,68.84428,52,35,0
68.19428,68.84428,49,42,0
68.19428,68.84428,55,35,0
68.84428,68.95486,54,42,0
68.84428,68.95486,50,35,0
69.501656,69.608864,52,47,0
70.165215,70.2676,57,60,0
70.2676,70.36999,64,44,0
70.36999,70.47238,61,44,0
70.47238,70.57477,64,44,0
70.57477,70.677155,61,44,0
70.677155,70.783165,64,44,0
70.783165,70.88555,57,55,0
70.88555,70.987946,64,48,0
70.987946,71.09033,61,45,0
71.09033,71.19272,64,43,0
71.19272,71.29511,61,43,0
71.29511,71.4054,64,43,0
71.4054,71.50779,59,60,0
71.50779,71.61018,64,44,0
71.61018,71.71257,62,44,0
71.71257,71.81496,64,44,0
71.81496,71.91735,62,44,0
71.91735,72.02411,64,44,0
72.02411,72.1265,56,55,0
72.1265,72.22889,64,42,0
72.22889,72.331276,59,42,0
72.331276,72.43367,64,42,0
72.43367,72.53606,59,42,0
72.53606,72.64515,64,42,0
72.64515,72.747536,57,51,0
72.747536,72.84992,64,39,0
72.84992,72.95373,61,39,0
72.95373,73.05753,64,39,0
73.05753,73.16135,61,39,0
73.16135,73.26515,64,39,0
73.26515,73.36896,57,50,0
73.36896,73.47276,64,40,0
73.47276,73.57657,61,40,0
73.57657,73.680374,64,40,0
73.680374,73.78418,61,40,0
73.78418,73.887985,64,40,0
73.887985,73.99038,59,60,0
73.99038,74.092766,64,44,0
74.092766,74.19515,62,44,0
74.19515,74.29755,64,44,0
74.29755,74.39993,62,44,0
74.39993,74.50669,64,44,0
74.50669,74.609085,56,55,0
74.609085,74.71147,64,42,0
74.71147,74.81386,59,42,0
74.81386,74.91625,64,42,0
74.91625,75.01864,59,42,0
75.01864,75.12773,64,42,0
75.12773,75.23012,57,51,0
75.23012,75.332504,64,39,0
75.332504,75.43632,61,39,0
75.43632,75.54012,64,39,0
75.54012,75.64393,61,39,0
75.64393,75.747734,64,39,0
75.747734,75.85154,57,50,0
75.85154,75.955345,64,40,0
75.955345,76.05915,61,40,0
76.05915,76.16296,64,40,0
76.16296,76.26676,61,40,0
76.26676,76.37057,64,40,0
76.37057,76.478485,62,45,0
77.005974,77.11389,69,40,0
77.005974,77.11389,62,34,0
77.63992,77.74745,61,34,0
77.63992,77.74745,69,40,0
78.27456,78.38247,62,34,0
78.27456,78.38247,69,40,0
78.909966,79.017494,64,34,0
78.909966,79.017494,69,40,0
79.546074,79.65437,64,34,0
79.546074,79.65437,68,40,0
80.18521,80.287605,57,60,0
80.287605,80.38999,64,44,0
80.38999,80.49238,61,44,0
80.49238,80.59477,64,44,0
80.59477,80.69716,61,44,0
80.69716,80.80316,64,44,0
80.80316,80.905556,57,55,0
80.905556,81.00794,64,48,0
81.00794,81.11033,61,45,0
81.11033,81.21272,64,43,0
81.21272,81.31511,61,43,0
81.31511,81.42541,64,43,0
81.42541,81.527794,59,60,0
81.527794,81.63018,64,44,0
81.63018,81.732574,62,44,0
81.732574,81.83496,64,44,0
81.83496,81.93735,62,44,0
81.93735,82.04411,64,44,0
82.04411,82.1465,56,55,0
82.1465,82.248886,64,42,0
82.248886,82.35128,59,42,0
82.35128,82.45367,64,42,0
82.45367,82.55605,59,42,0
82.55605,82.665146,64,42,0
82.665146,82.76753,57,51,0
82.76753,82.86993,64,39,0
82.86993,82.97373,61,39,0
82.97373,83.07754,64,39,0
83.07754,83.18134,61,39,0
83.18134,83.28515,64,39,0
83.28515,83.388954,57,50,0
83.388954,83.49276,64,40,0
83.49276,83.596565,61,40,0
83.596565,83.70037,64,40,0
83.70037,83.804184,61,40,0
83.804184,83.90799,64,40,0
83.90799,84.010376,59,60,0
84.010376,84.11276,64,44,0
84.11276,84.21516,62,44,0
84.21516,84.31754,64,44,0
84.31754,84.41993,62,44,0
84.41993,84.526695,64,44,0
84.526695,84.62908,56,55,0
84.62908,84.73147,64,42,0
84.73147,84.83386,59,42,0
84.83386,84.93625,64,42,0
84.93625,85.038635,59,42,0
85.038635,85.14773,64,42,0
85.14773,85.25012,57,51,0
85.25012,85.35251,64,39,0
85.35251,85.456314,61,39,0
85.456314,85.56012,64,39,0
85.56012,85.663925,61,39,0
85.663925,85.76773,64,39,0
85.76773,85.87154,57,50,0
85.87154,85.97534,64,40,0
85.97534,86.079155,61,40,0
86.079155,86.18296,64,40,0
86.18296,86.286766,61,40,0
86.286766,86.39057,64,40,0
86.39057,86.49887,62,45,0
87.02823,87.13615,69,40,0
87.02823,87.13615,62,34,0
87.663635,87.77155,69,40,0
87.663635,87.77155,61,34,0
88.297585,88.405495,62,34,0
88.297585,88.405495,69,40,0
88.93299,89.04129,64,34,0
88.93299,89.04129,69,40,0
89.569176,89.67748,64,34,0
89.569176,89.67748,68,40,0
90.20683,90.31436,57,63,0
90.20683,90.31436,50,55,0
90.838554,90.9457,50,48,0
90.838554,90.9457,57,57,0
91.46664,91.573395,57,57,0
91.46664,91.573395,49,48,0
92.096825,92.20359,57,57,0
92.096825,92.20359,50,48,0
92.72701,92.8334,52,48,0
92.72701,92.8334,57,57,0
93.35358,93.459206,56,57,0
93.35358,93.459206,52,48,0
93.980064,94.08246,45,67,0
94.08246,94.184845,57,44,0
94.184845,94.28723,56,48,0
94.28723,94.389626,57,44,0
94.389626,94.49201,56,48,0
94.49201,94.59802,57,44,0
94.59802,94.70041,42,62,0
94.70041,94.802795,54,43,0
94.802795,94.90519,53,47,0
94.90519,95.007576,54,43,0
95.007576,95.10996,53,47,0
95.10996,95.22026,54,43,0
95.22026,95.32265,38,67,0
95.32265,95.42503,50,46,0
95.42503,95.52743,49,50,0
95.52743,95.629814,50,46,0
95.629814,95.7322,49,51,0
95.7322,95.83746,50,46,0
95.83746,95.94021,40,55,0
95.94021,96.042946,52,46,0
96.042946,96.14568,51,49,0
96.14568,96.24843,52,46,0
96.24843,96.35259,51,50,0
96.35259,96.45676,52,46,0
96.45676,96.55915,45,67,0
96.55915,96.66154,57,44,0
96.66154,96.76392,56,48,0
96.76392,96.86632,57,44,0
96.86632,96.968704,56,48,0
96.968704,97.07471,57,44,0
97.07471,97.1771,42,62,0
97.1771,97.27949,54,43,0
97.27949,97.381874,53,47,0
97.381874,97.48427,54,43,0
97.48427,97.586655,53,47,0
97.586655,97.69695,54,43,0
97.69695,97.79934,38,67,0
97.79934,97.901726,50,46,0
97.901726,98.00412,49,50,0
98.00412,98.10651,50,46,0
98.10651,98.20889,49,51,0
98.20889,98.314156,50,46,0
98.314156,98.4169,40,55,0
98.4169,98.51964,52,46,0
98.51964,98.622375,51,49,0
98.622375,98.72512,52,46,0
98.72512,98.829285,51,50,0
98.829285,98.93345,52,46,0
98.93345,99.03584,45,67,0
99.957344,100.16713,52,32,0
99.957344,100.16713,59,32,0
99.957344,100.16713,62,38,0
100.16713,100.269516,61,38,0
100.16713,100.269516,57,32,0
101.19102,101.40081,59,32,0
101.19102,101.40081,52,32,0
101.19102,101.40081,62,38,0
101.40081,101.5032,61,38,0
101.40081,101.5032,57,32,0
101.60559,101.81036,49,39,0
101.81036,102.015144,50,40,0
102.015144,102.219925,52,42,0
102.219925,102.4247,54,39,0
102.4247,102.63449,56,43,0
102.63449,102.83927,57,46,0
102.83927,103.044044,49,41,0
103.044044,103.248825,50,41,0
103.248825,103.453606,52,45,0
103.453606,103.65838,54,41,0
103.65838,103.86817,56,45,0
103.86817,103.97307,57,40,0
104.49175,104.597015,59,41,0
104.49175,104.597015,57,35,0
105.11607,105.22208,61,49,0
105.11607,105.22208,57,41,0
105.74475,105.85228,57,44,0
105.74475,105.85228,62,53,0
106.38234,106.49862,64,60,0
106.38234,106.49862,57,50,0
109.15014,109.7612,62,27,0
109.15014,109.7612,66,33,0
109.7612,110.38053,68,33,0
109.7612,110.38053,59,27,0
110.38053,111.03378,57,27,0
110.38053,111.03378,69,33,0
111.637856,112.24892,57,27,0
111.637856,112.24892,64,33,0
112.24892,112.86825,61,27,0
112.24892,112.86825,64,33,0
112.86825,113.5021,62,27,0
112.86825,113.5021,69,33,0
113.5021,113.70481,50,51,0
113.70481,113.80617,62,45,0
113.90753,114.01099,64,48,0
114.11444,114.317154,66,52,0
114.733185,114.93522,50,50,0
114.93522,115.03623,62,44,0
115.13725,115.241425,64,48,0
115.3456,115.54763,66,53,0
115.9661,116.16814,55,50,0
116.16814,116.26915,67,44,0
116.37017,116.473625,64,48,0
116.57708,116.77911,54,45,0
116.57708,116.77911,66,53,0
117.186646,117.38868,55,45,0
117.186646,117.38868,67,53,0
117.81844,118.02679,57,45,0
117.81844,118.02679,69,53,0
119.04305,119.65411,62,27,0
119.04305,119.65411,66,33,0
119.65411,120.273445,68,33,0
119.65411,120.273445,59,27,0
120.273445,120.926704,57,27,0
120.273445,120.926704,69,33,0
121.53077,122.14183,57,27,0
121.53077,122.14183,64,33,0
122.14183,122.76116,64,33,0
122.14183,122.76116,61,27,0
122.76116,123.39501,69,33,0
122.76116,123.39501,62,27,0
123.39501,123.597725,50,51,0
123.597725,123.69909,62,45,0
123.800446,123.9039,64,48,0
124.007355,124.21007,66,52,0
124.6261,124.82837,43,50,0
124.82837,124.92938,55,44,0
125.0304,125.13365,59,48,0
125.23711,125.43935,59,53,0
125.846725,125.94789,64,53,0
125.846725,125.94789,59,45,0
125.85529,125.95631,55,45,0
126.47688,126.5781,62,45,0
126.47688,126.5781,57,45,0
126.485504,126.58652,66,53,0
127.0865,127.18767,57,45,0
127.0865,127.18767,64,45,0
127.09506,127.19608,67,53,0
127.71666,127.8212,62,45,0
127.71666,127.8212,66,53,0
128.13481,128.23515,42,45,0
128.23515,128.33969,45,45,0
128.33969,128.44208,50,52,0
128.74927,128.84894,45,48,0
128.84894,128.95459,50,48,0
128.95459,129.05698,54,57,0
129.36417,129.46451,50,51,0
129.46451,129.57014,54,51,0
129.57014,129.67255,57,57,0
129.98785,130.10368,54,44,0
130.10368,130.233,57,44,0
130.233,130.33539,60,53,0
131.46175,132.0859,55,29,0
131.46175,132.0859,59,35,0
132.0859,132.7052,60,32,0
132.0859,132.7052,57,27,0
132.7052,132.9086,59,35,0
132.7052,132.9086,55,29,0
131.46175,132.9086,50,29,0
133.91824,134.54066,55,29,0
133.91824,134.54066,59,35,0
134.54066,135.15854,60,32,0
134.54066,135.15854,57,27,0
135.15854,135.35591,59,35,0
135.15854,135.35591,55,29,0
133.91824,135.35591,50,29,0
136.36554,136.98946,55,29,0
136.36554,136.98946,59,35,0
136.98946,137.61032,57,27,0
136.98946,137.61032,60,32,0
136.36554,137.61032,50,29,0
137.61032,137.81372,59,32,0
137.61032,137.81372,55,24,0
138.22054,138.87508,52,35,0
138.87508,139.50008,48,37,0
139.50008,140.15225,50,39,0
140.15225,140.38214,43,35,0
140.8419,141.51105,48,52,0
140.8419,141.51105,36,43,0
141.51105,142.16322,45,55,0
141.51105,142.16322,33,46,0
142.16322,142.82672,35,49,0
142.16322,142.82672,47,58,0
142.82672,143.05748,40,52,0
143.51903,144.19066,47,35,0
144.19066,144.84048,43,37,0
144.84048,145.49826,45,39,0
145.49826,145.72903,38,35,0
146.19057,146.86473,46,43,0
146.19057,146.86473,58,52,0
146.86473,147.52893,59,55,0
146.86473,147.52893,47,46,0
147.52893,148.20818,43,49,0
147.52893,148.20818,55,58,0
148.20818,148.31595,42,48,0
148.20818,148.31595,54,52,0
148.42372,148.53151,55,52,0
148.63928,148.74706,54,52,0
148.85483,148.9626,52,52,0
149.07037,149.17815,50,52,0
149.28592,149.39595,49,52,0
149.50598,149.72226,47,52,0
150.15674,150.26451,71,40,0
150.26451,150.37228,74,30,0
150.37228,150.48006,71,33,0
150.48006,150.58783,74,30,0
150.58783,150.6956,71,33,0
150.6956,150.8068,74,30,0
150.8068,150.9159,70,40,0
150.9159,151.0234,73,30,0
151.0234,151.13094,70,33,0
151.13094,151.23846,73,30,0
151.23846,151.346,70,33,0
151.346,151.45758,73,31,0
151.45758,151.56535,69,40,0
151.56535,151.67313,73,29,0
151.67313,151.7809,69,32,0
151.7809,151.89119,73,30,0
151.89119,151.9972,69,32,0
151.9972,152.10838,73,30,0
152.10838,152.21828,68,40,0
152.21828,152.32619,71,31,0
152.32619,152.4341,68,33,0
152.4341,152.54202,71,29,0
152.54202,152.64993,68,33,0
152.64993,152.76073,71,31,0
152.76073,152.8685,67,40,0
152.8685,152.97627,71,31,0
152.97627,153.08405,67,34,0
153.08405,153.19182,71,31,0
153.19182,153.2996,67,34,0
153.2996,153.4104,71,30,0
153.4104,153.51817,66,45,0
153.51817,153.62595,71,32,0
153.62595,153.73372,66,35,0
153.73372,153.84149,71,32,0
153.84149,153.94926,66,35,0
153.94926,154.06085,71,33,0
154.06085,154.16862,66,46,0
154.16862,154.2764,69,33,0
154.2764,154.3851,66,35,0
154.3851,154.49379,69,33,0
154.49379,154.5998,66,35,0
154.5998,154.71178,69,32,0
154.71178,154.82248,64,40,0
154.82248,154.93079,67,33,0
154.93079,155.0391,64,35,0
155.0391,155.14738,67,33,0
155.14738,155.25569,64,35,0
155.25569,155.36688,67,33,0
155.36688,155.47517,64,40,0
155.47517,155.58348,67,32,0
155.58348,155.69179,64,35,0
155.69179,155.8001,67,32,0
155.8001,155.9084,64,35,0
155.9084,156.0216,67,33,0
156.0216,156.1327,62,40,0
156.1327,156.24101,66,33,0
156.24101,156.34932,62,35,0
156.34932,156.45763,66,33,0
156.45763,156.56593,62,35,0
156.56593,156.67993,66,33,0
156.67993,156.78862,62,35,0
156.78862,156.89732,66,29,0
156.89732,157.00601,62,29,0
157.00601,157.1147,66,27,0
157.1147,157.2234,62,29,0
157.2234,157.33618,66,28,0
157.33618,157.4447,58,39,0
157.4447,157.55322,66,30,0
157.55322,157.66173,58,35,0
157.66173,157.77025,66,29,0
157.77025,157.87875,58,36,0
157.87875,157.98994,66,33,0
157.98994,158.09808,59,40,0
158.09808,158.20622,66,33,0
158.20622,158.31436,59,35,0
158.31436,158.4225,66,33,0
158.4225,158.53064,59,35,0
158.53064,158.64342,66,33,0
158.64342,158.86502,54,33,0
159.31352,159.43582,54,44,0
159.4247,159.54701,55,46,0
159.53589,159.65819,54,47,0
159.64708,159.76938,52,49,0
159.75826,159.88057,50,51,0
159.86945,159.99174,49,52,0
159.98064,160.203,47,58,0
160.203,160.31114,66,52,0
160.41891,160.52669,66,48,0
160.63748,160.69145,67,44,0
160.69145,160.7454,69,44,0
160.7454,160.85333,67,53,0
160.85333,160.96126,66,49,0
161.06917,161.1771,66,46,0
161.28828,161.34387,67,48,0
161.34387,161.39946,69,48,0
161.39946,161.51065,67,52,0
161.51065,161.61879,66,52,0
161.72632,161.83386,66,48,0
161.94466,162.37634,66,52,0
162.37634,162.48273,67,46,0
162.48273,162.5951,69,49,0
162.5951,162.8173,71,52,0
162.8173,162.92545,64,48,0
163.03322,163.14114,64,48,0
163.25194,163.30591,66,48,0
163.30591,163.35986,67,48,0
163.35986,163.46779,66,52,0
163.46779,163.5757,64,52,0
163.68362,163.79155,64,48,0
163.90274,163.95833,64,48,0
163.95833,164.01392,66,48,0
164.01392,164.1251,64,56,0
164.1251,164.23325,62,48,0
164.34102,164.44879,62,52,0
164.55959,164.99127,62,52,0
164.99127,165.0992,64,47,0
165.0992,165.21039,66,50,0
165.21039,165.43275,67,53,0
165.43275,165.5409,55,50,0
165.64867,165.75644,55,50,0
165.86725,166.29892,55,49,0
166.29892,166.40685,57,47,0
166.40685,166.51804,59,50,0
166.51804,166.7404,61,53,0
166.7404,166.84854,54,47,0
166.95631,167.06409,54,47,0
167.1749,167.60599,54,49,0
167.60599,167.71376,56,47,0
167.71376,167.82495,58,50,0
167.82495,168.03711,59,58,0
168.03711,168.25096,54,49,0
168.25096,168.35666,55,49,0
168.46504,168.5707,52,53,0
168.67633,168.78197,49,49,0
168.88762,168.99326,66,49,0
169.10204,169.3244,63,53,0
169.3244,169.53864,59,49,0
169.53864,169.64641,64,49,0
169.7572,169.86292,61,53,0
169.96863,170.07433,57,49,0
170.18004,170.28575,50,49,0
170.39491,170.61406,47,54,0
170.61406,170.72014,43,50,0
170.82791,170.93324,49,50,0
171.04163,171.14734,46,53,0
171.25305,171.35875,42,49,0
171.46446,171.57018,59,49,0
171.67856,171.89769,56,53,0
171.89769,172.00377,52,49,0
172.10948,172.2152,57,49,0
172.32356,172.53424,54,53,0
172.53424,172.63959,50,50,0
172.74492,172.85025,55,50,0
172.96144,174.27905,48,59,0
172.96144,174.27905,36,59,0
174.50984,174.62794,50,47,0
174.74606,174.868,50,47,0
174.98991,175.10576,50,53,0
175.10576,175.22159,52,47,0
175.22159,175.33742,50,53,0
175.33742,175.45325,48,51,0
175.45325,175.56908,47,50,0
175.56908,175.6849,45,48,0
175.6849,175.93283,43,47,0
177.39825,177.5212,62,30,0
177.39825,177.5212,57,25,0
177.39825,177.5212,60,25,0
177.64415,177.7671,60,25,0
177.64415,177.7671,62,30,0
177.64415,177.7671,57,25,0
177.89368,178.01514,62,34,0
177.89368,178.01514,60,28,0
177.89368,178.01514,57,28,0
178.1366,178.25806,62,30,0
178.1366,178.25806,60,25,0
178.1366,178.25806,57,25,0
178.38202,178.50299,60,25,0
178.38202,178.50299,57,25,0
178.38202,178.50299,62,29,0
178.62396,178.86206,62,41,0
178.62396,178.86206,59,34,0
180.28743,180.41037,57,28,0
180.28743,180.41037,54,28,0
180.28743,180.41037,62,33,0
180.53333,180.65628,62,32,0
180.53333,180.65628,57,27,0
180.53333,180.65628,54,27,0
180.77924,180.90019,54,30,0
180.77924,180.90019,62,36,0
180.77924,180.90019,57,30,0
181.02116,181.14214,54,26,0
181.02116,181.14214,62,31,0
181.02116,181.14214,57,26,0
181.2631,181.38406,54,25,0
181.2631,181.38406,57,25,0
181.2631,181.38406,62,31,0
181.50504,181.626,55,35,0
181.50504,181.626,62,42,0
182.22029,182.33656,62,42,0
182.22029,182.33656,59,35,0
182.92566,183.04149,60,35,0
182.92566,183.04149,67,42,0
183.62027,183.73521,64,35,0
183.62027,183.73521,67,42,0
184.31769,184.54916,62,38,0
184.54916,184.78474,61,40,0
184.78474,185.02667,60,42,0
185.02667,185.26862,59,44,0
185.26862,185.51054,60,43,0
185.51054,185.76479,64,39,0
186.01271,186.13669,62,41,0
186.26065,186.38461,62,41,0
186.50859,186.63255,62,38,0
186.63255,186.75652,64,40,0
186.75652,186.8805,62,42,0
186.8805,187.00446,60,44,0
187.00446,187.12842,59,42,0
187.12842,187.25238,57,40,0
187.25238,187.49048,55,47,0
188.96805,189.0915,62,30,0
188.96805,189.0915,57,25,0
188.96805,189.0915,60,25,0
189.21497,189.33842,57,25,0
189.21497,189.33842,60,25,0
189.21497,189.33842,62,30,0
189.46188,189.58534,62,34,0
189.46188,189.58534,57,28,0
189.46188,189.58534,60,28,0
189.7088,189.83226,57,25,0
189.7088,189.83226,60,25,0
189.7088,189.83226,62,30,0
189.9557,190.07716,57,25,0
189.9557,190.07716,60,25,0
189.9557,190.07716,62,29,0
190.19862,190.43391,62,41,0
190.19862,190.43391,59,34,0
191.84534,191.96982,62,33,0
191.84534,191.96982,57,28,0
191.84534,191.96982,54,28,0
192.0943,192.21878,62,32,0
192.0943,192.21878,57,27,0
192.0943,192.21878,54,27,0
192.34326,192.46724,54,30,0
192.34326,192.46724,57,30,0
192.34326,192.46724,62,36,0
192.5912,192.71516,54,26,0
192.5912,192.71516,57,26,0
192.5912,192.71516,62,31,0
192.83914,192.9631,57,25,0
192.83914,192.9631,54,25,0
192.83914,192.9631,62,31,0
193.08707,193.21104,62,42,0
193.08707,193.21104,55,35,0
193.8008,193.91663,62,42,0
193.8008,193.91663,59,35,0
194.5014,194.61769,67,42,0
194.5014,194.61769,60,35,0
195.20425,195.31877,67,42,0
195.20425,195.31877,64,35,0
195.89647,197.34491,62,38,0
195.89647,197.34491,50,38,0
197.34491,197.45778,55,46,0
197.79639,197.89673,47,45,0
197.89673,198.00125,50,45,0
198.00125,198.10365,55,52,0
198.41084,198.51051,50,48,0
198.51051,198.61617,55,48,0
198.61617,198.71855,59,57,0
199.02574,199.12608,55,51,0
199.12608,199.23172,59,51,0
199.23172,199.33412,62,57,0
199.64131,199.74199,59,48,0
199.74199,199.848,62,48,0
199.848,199.9504,67,57,0
201.69438,202.30945,59,29,0
201.69438,202.30945,69,32,0
201.69438,202.30945,66,27,0
202.30945,202.51285,64,29,0
202.30945,202.51285,67,35,0
204.14348,204.75856,59,29,0
204.14348,204.75856,66,27,0
204.14348,204.75856,69,32,0
204.75856,204.96196,67,35,0
204.75856,204.96196,64,29,0
206.59259,207.21346,67,32,0
206.59259,207.21346,64,27,0
206.59259,207.21346,57,29,0
207.21346,207.41687,62,29,0
207.21346,207.41687,66,35,0
209.04749,209.66257,67,32,0
209.04749,209.66257,57,29,0
209.04749,209.66257,64,27,0
209.66257,209.86597,66,35,0
209.66257,209.86597,62,29,0
211.4966,212.11746,62,32,0
211.4966,212.11746,52,29,0
211.4966,212.11746,59,27,0
212.11746,212.32088,61,35,0
212.11746,212.32088,57,29,0
213.9515,214.57237,59,27,0
213.9515,214.57237,52,29,0
213.9515,214.57237,62,32,0
214.57237,214.77309,45,25,0
214.57237,214.77309,57,30,0
214.78365,214.97954,57,24,0
214.78365,214.97954,45,20,0
214.98985,215.18575,57,24,0
214.98985,215.18575,45,20,0
215.19604,215.39194,57,30,0
215.19604,215.39194,45,25,0
215.40225,215.59814,45,19,0
215.40225,215.59814,57,23,0
215.60844,215.8106,45,19,0
215.60844,215.8106,57,23,0
215.82123,216.02338,45,27,0
215.82123,216.02338,56,32,0
216.03401,216.23126,45,23,0
216.03401,216.23126,56,27,0
216.24164,216.43889,56,28,0
216.24164,216.43889,45,23,0
216.44926,216.64651,45,32,0
216.44926,216.64651,56,38,0
216.65689,216.85414,56,30,0
216.65689,216.85414,45,24,0
216.86452,217.06667,45,27,0
216.86452,217.06667,56,32,0
217.0773,217.2732,45,37,0
217.0773,217.2732,55,44,0
217.2835,217.47939,55,36,0
217.2835,217.47939,45,30,0
217.4897,217.69548,55,38,0
217.4897,217.69548,45,32,0
217.7063,217.9049,54,50,0
217.7063,217.9049,45,42,0
217.91536,218.11397,54,40,0
217.91536,218.11397,45,33,0
218.12442,218.33398,45,35,0
218.12442,218.33398,54,42,0
218.34502,218.54572,45,48,0
218.34502,218.54572,52,57,0
218.55627,218.75699,52,50,0
218.55627,218.75699,45,42,0
218.76755,218.97787,52,54,0
218.76755,218.97787,45,45,0
218.98895,219.19179,45,53,0
218.98895,219.19179,50,64,0
219.20247,219.40532,45,47,0
219.20247,219.40532,50,56,0
219.416,219.66731,45,49,0
219.416,219.66731,50,59,0
219.68288,221.96136,45,49,0
219.68288,221.96136,57,58,0
219.68288,221.96136,52,49,0
219.68288,221.96136,49,49,0
245.15842,245.76949,66,31,0
245.15842,245.76949,62,26,0
245.76949,246.38882,59,26,0
245.76949,246.38882,68,31,0
246.38882,247.04207,57,26,0
246.38882,247.04207,69,31,0
247.64613,248.2572,57,26,0
247.64613,248.2572,64,31,0
248.2572,248.87654,64,31,0
248.2572,248.87654,61,26,0
248.87654,249.51038,69,31,0
248.87654,249.51038,62,26,0
249.51038,249.7131,50,51,0
249.7131,249.81445,62,45,0
249.91582,250.01927,64,48,0
250.12273,250.32544,66,52,0
250.74147,250.9435,50,50,0
250.9435,251.04453,62,44,0
251.14554,251.24971,64,48,0
251.35388,251.55592,66,53,0
251.9744,252.17642,55,50,0
252.17642,252.27744,67,44,0
252.37846,252.48192,64,48,0
252.58537,252.7874,66,53,0
252.58537,252.7874,54,45,0
253.19493,253.39696,55,45,0
253.19493,253.39696,67,53,0
253.82672,254.03508,69,53,0
253.82672,254.03508,57,45,0
255.05135,255.6624,54,31,0
255.05135,255.6624,50,26,0
255.6624,256.28174,47,26,0
255.6624,256.28174,56,31,0
256.28174,256.935,57,31,0
256.28174,256.935,45,26,0
257.53906,258.15012,45,26,0
257.53906,258.15012,52,31,0
258.15012,258.76944,49,26,0
258.15012,258.76944,52,31,0
258.76944,259.4033,50,26,0
258.76944,259.4033,57,31,0
259.4033,259.60602,50,51,0
259.60602,259.70737,62,45,0
259.80872,259.9122,64,48,0
260.01566,260.21835,66,52,0
260.6344,260.83664,43,50,0
260.83664,260.93768,55,44,0
261.0387,261.14194,57,48,0
261.2454,261.44763,59,53,0
261.855,261.95618,59,45,0
261.855,261.95618,64,53,0
261.8636,261.9646,55,45,0
262.48517,262.5864,57,45,0
262.48517,262.5864,62,45,0
262.48517,262.5864,66,53,0
263.0948,263.19595,57,45,0
263.0948,263.19595,64,45,0
263.0948,263.19595,67,53,0
263.72495,263.82947,62,45,0
263.72495,263.82947,66,53,0
264.56125,264.63675,50,44,0
264.56125,264.63675,38,44,0
264.7626,264.84045,38,44,0
264.7626,264.84045,50,44,0
264.9702,265.37842,38,52,0
264.9702,265.37842,50,52,0
265.37842,265.45496,50,44,0
265.37842,265.45496,38,44,0
265.58252,265.9907,50,44,0
265.58252,265.9907,38,44,0
265.9907,266.0691,38,44,0
265.9907,266.0691,50,44,0
266.19977,266.64752,48,52,0
266.19977,266.64752,36,52,0
267.46387,267.5404,72,25,0
267.46387,267.5404,74,30,0
267.66797,267.74347,72,25,0
267.66797,267.74347,74,30,0
267.86932,267.94482,74,30,0
267.86932,267.94482,72,25,0
268.07068,268.14618,74,30,0
268.07068,268.14618,72,25,0
268.27203,268.3491,74,30,0
268.27203,268.3491,72,25,0
268.4775,268.56024,72,25,0
268.4775,268.56024,74,30,0
268.69812,269.5487,71,29,0
268.69812,269.5487,74,35,0
269.5487,269.62424,47,44,0
269.5487,269.62424,35,44,0
269.7501,269.82794,47,44,0
269.7501,269.82794,35,44,0
269.9577,270.3659,45,52,0
269.9577,270.3659,33,52,0
270.3659,270.44244,33,44,0
270.3659,270.44244,45,44,0
270.56998,270.97818,43,44,0
270.56998,270.97818,31,44,0
270.97818,271.05658,43,44,0
270.97818,271.05658,31,44,0
271.18726,271.65237,30,52,0
271.18726,271.65237,42,52,0
272.67285,272.87692,57,30,0
272.87692,273.08316,62,26,0
272.46875,273.08316,54,40,0
273.28723,273.4913,57,30,0
273.4913,273.7005,62,27,0
273.08316,273.7005,54,40,0
273.9056,274.10995,59,33,0
274.10995,274.31696,62,36,0
273.7005,274.31696,55,40,0
274.52103,274.7258,59,33,0
274.7258,274.93457,62,33,0
274.31696,274.93457,55,40,0
275.13867,275.34344,57,34,0
275.34344,275.55182,62,31,0
274.93457,275.55182,54,40,0
275.75592,275.9607,57,33,0
275.9607,276.16983,62,28,0
275.55182,276.16983,54,40,0
276.37442,276.57748,59,34,0
276.57748,276.78366,62,37,0
276.16983,276.78366,55,40,0
276.98776,277.19183,59,34,0
277.19183,277.41772,62,34,0
276.78366,277.41772,55,40,0
277.6269,277.83072,54,33,0
277.83072,278.03967,59,30,0
277.41772,278.03967,51,40,0
278.24515,278.44852,54,34,0
278.44852,278.65665,59,32,0
278.03967,278.65665,51,40,0
278.8615,279.06497,55,33,0
279.06497,279.27356,59,30,0
278.65665,279.27356,52,40,0
279.47696,279.68103,55,34,0
279.68103,279.88858,59,32,0
279.27356,279.88858,52,40,0
280.09293,280.2959,52,33,0
280.2959,280.50452,57,30,0
279.88858,280.50452,49,40,0
280.7089,280.91202,52,34,0
280.91202,281.12006,57,32,0
280.50452,281.12006,49,40,0
281.32553,281.52985,54,33,0
281.52985,281.7391,57,30,0
281.12006,281.7391,50,40,0
281.94528,282.14938,54,34,0
282.14938,282.3578,57,32,0
281.7391,282.3578,50,40,0
282.3578,282.78333,55,46,0
282.99625,283.09924,67,45,0
283.09924,283.2012,66,42,0
283.2012,283.30215,64,43,0
283.30215,283.40216,62,46,0
283.40216,283.50388,61,48,0
283.50388,283.60803,59,51,0
283.60803,283.69168,57,54,0
283.8311,283.90842,57,50,0
283.8311,283.90842,45,42,0
284.0373,284.11707,57,50,0
284.0373,284.11707,45,42,0
284.25003,284.33792,57,54,0
284.25003,284.33792,45,45,0
286.2486,286.89404,62,41,0
286.89404,287.1092,61,46,0
287.1092,287.32288,62,44,0
287.32288,287.54175,61,44,0
287.54175,288.6153,59,51,0
288.6153,288.83417,55,36,0
288.83417,289.04855,57,41,0
289.04855,289.26297,59,37,0
289.26297,289.48035,61,37,0
289.48035,289.6955,62,42,0
289.6955,289.91064,64,38,0
289.91064,290.13492,66,38,0
290.13492,290.78036,67,42,0
290.78036,291.43036,68,42,0
290.13492,291.43036,74,35,0
290.13492,291.43036,71,35,0
291.43036,292.0758,69,42,0
291.43036,292.0758,73,35,0
292.0758,292.72894,67,42,0
292.0758,292.72894,73,35,0
292.0758,292.72894,69,35,0
292.72894,292.9501,66,29,0
292.72894,292.9501,69,29,0
292.72894,292.9501,74,35,0
293.38632,293.81955,67,35,0
293.81955,294.05206,59,26,0
293.81955,294.05206,62,31,0
294.05206,294.74585,62,36,0
294.74585,294.981,61,32,0
294.05206,294.981,57,30,0
296.74667,297.39212,59,41,0
297.39212,297.60727,57,46,0
297.60727,297.82095,59,44,0
297.82095,298.03983,57,44,0
298.03983,298.4701,55,51,0
298.4701,298.68307,54,36,0
298.68307,299.11337,52,51,0
299.11337,299.3322,50,36,0
299.3322,299.76105,49,41,0
299.76105,299.9784,45,37,0
299.9784,300.19354,50,42,0
300.19354,300.4087,52,38,0
300.4087,300.62756,54,38,0
300.62756,301.27664,55,42,0
301.27664,301.92654,56,42,0
300.62756,301.92654,62,35,0
300.62756,301.92654,59,35,0
301.92654,302.572,57,42,0
301.92654,302.572,55,42,0
301.92654,302.572,61,35,0
302.572,303.222,54,42,0
302.572,303.222,57,35,0
302.572,303.222,60,35,0
303.222,303.33255,55,35,0
303.222,303.33255,59,42,0
303.87936,303.98657,57,47,0
304.54294,304.64532,50,60,0
304.64532,304.7477,57,44,0
304.7477,304.8501,54,44,0
304.8501,304.95248,57,44,0
304.95248,305.05487,54,44,0
305.05487,305.1609,57,44,0
305.1609,305.26328,50,55,0
305.26328,305.36566,57,48,0
305.36566,305.46805,54,45,0
305.46805,305.57043,57,43,0
305.57043,305.67282,54,43,0
305.67282,305.7831,57,43,0
305.7831,305.8855,52,60,0
305.8855,305.98788,57,44,0
305.98788,306.09027,55,44,0
306.09027,306.19266,57,44,0
306.19266,306.29507,55,44,0
306.29507,306.40182,57,44,0
306.40182,306.5042,49,55,0
306.5042,306.6066,57,42,0
306.6066,306.70898,52,42,0
306.70898,306.81137,57,42,0
306.81137,306.91376,52,42,0
306.91376,307.02286,57,42,0
307.02286,307.12524,50,51,0
307.12524,307.22763,57,39,0
307.22763,307.33145,54,39,0
307.33145,307.43524,57,39,0
307.43524,307.53906,54,39,0
307.53906,307.64285,57,39,0
307.64285,307.74667,50,50,0
307.74667,307.85046,57,40,0
307.85046,307.95428,54,40,0
307.95428,308.05807,57,40,0
308.05807,308.1619,54,40,0
308.1619,308.2657,57,40,0
308.2657,308.36807,52,60,0
308.36807,308.4705,57,44,0
308.4705,308.57288,55,44,0
308.57288,308.67526,57,44,0
308.67526,308.77765,55,44,0
308.77765,308.8844,57,44,0
308.8844,308.9868,49,55,0
308.9868,309.08917,57,42,0
309.08917,309.19156,52,42,0
309.19156,309.29395,57,42,0
309.29395,309.39636,52,42,0
309.39636,309.50543,57,42,0
309.50543,309.60782,50,51,0
309.60782,309.7102,57,39,0
309.7102,309.81403,54,39,0
309.81403,309.91782,57,39,0
309.91782,310.02164,54,39,0
310.02164,310.12546,57,39,0
310.12546,310.22925,50,50,0
310.22925,310.33307,57,40,0
310.33307,310.43686,54,40,0
310.43686,310.54068,57,40,0
310.54068,310.64447,54,40,0
310.64447,310.7483,57,40,0
310.7483,310.85504,55,45,0
311.3799,311.48706,74,40,0
311.3799,311.48706,67,34,0
312.01086,312.1184,74,40,0
312.01086,312.1184,66,34,0
312.64404,312.7512,67,34,0
312.64404,312.7512,74,40,0
313.27792,313.38504,74,40,0
313.27792,313.38504,69,34,0
313.9103,314.0171,73,40,0
313.9103,314.0171,69,34,0
314.5449,314.64728,50,60,0
314.64728,314.74966,57,44,0
314.74966,314.85205,54,44,0
314.85205,314.95444,57,44,0
314.95444,315.05682,54,44,0
315.05682,315.16284,57,44,0
315.16284,315.26523,50,55,0
315.26523,315.3676,57,48,0
315.3676,315.47,54,45,0
315.47,315.5724,57,43,0
315.5724,315.67477,54,43,0
315.67477,315.7851,57,43,0
315.7851,315.88748,52,60,0
315.88748,315.98987,57,44,0
315.98987,316.09225,55,44,0
316.09225,316.19464,57,44,0
316.19464,316.29703,55,44,0
316.29703,316.40378,57,44,0
316.40378,316.50616,49,55,0
316.50616,316.60858,57,42,0
316.60858,316.71097,52,42,0
316.71097,316.81335,57,42,0
316.81335,316.91574,52,42,0
316.91574,317.0248,57,42,0
317.0248,317.12723,50,51,0
317.12723,317.2296,57,39,0
317.2296,317.3334,54,39,0
317.3334,317.43723,57,39,0
317.43723,317.54102,54,39,0
317.54102,317.64484,57,39,0
317.64484,317.74863,50,50,0
317.74863,317.85245,57,40,0
317.85245,317.95624,54,40,0
317.95624,318.06006,57,40,0
318.06006,318.16385,54,40,0
318.16385,318.26767,57,40,0
318.26767,318.37006,52,60,0
318.37006,318.47244,57,44,0
318.47244,318.57483,55,44,0
318.57483,318.67722,57,44,0
318.67722,318.7796,55,44,0
318.7796,318.88638,57,44,0
318.88638,318.98877,49,55,0
318.98877,319.09116,57,42,0
319.09116,319.19354,52,42,0
319.19354,319.29593,57,42,0
319.29593,319.39832,52,42,0
319.39832,319.50742,57,42,0
319.50742,319.6098,50,51,0
319.6098,319.7122,57,39,0
319.7122,319.81598,54,39,0
319.81598,319.9198,57,39,0
319.9198,320.0236,54,39,0
320.0236,320.1274,57,39,0
320.1274,320.23123,50,50,0
320.23123,320.33502,57,40,0
320.33502,320.43884,54,40,0
320.43884,320.54263,57,40,0
320.54263,320.64645,54,40,0
320.64645,320.75024,57,40,0
320.75024,320.85895,55,45,0
321.3843,321.49106,67,34,0
321.3843,321.49106,74,40,0
322.0145,322.12164,66,34,0
322.0145,322.12164,74,40,0
322.64545,322.7522,67,34,0
322.64545,322.7522,74,40,0
323.27563,323.38354,69,34,0
323.27563,323.38354,74,40,0
323.91104,324.0186,69,34,0
323.91104,324.0186,73,40,0
324.55246,324.66235,62,63,0
324.55246,324.66235,55,55,0
325.18747,325.29538,55,48,0
325.18747,325.29538,62,57,0
325.81708,325.92462,54,48,0
325.81708,325.92462,62,57,0
326.45026,326.55856,62,57,0
326.45026,326.55856,55,48,0
327.08643,327.19473,57,48,0
327.08643,327.19473,62,57,0
327.71826,327.82504,61,57,0
327.71826,327.82504,57,48,0
328.34702,328.4494,50,67,0
328.4494,328.5518,62,44,0
328.5518,328.65417,61,48,0
328.65417,328.75656,62,44,0
328.75656,328.85898,61,48,0
328.85898,328.96497,62,44,0
328.96497,329.06735,47,62,0
329.06735,329.16974,59,43,0
329.16974,329.27213,58,47,0
329.27213,329.3745,59,43,0
329.3745,329.47693,58,47,0
329.47693,329.58722,59,43,0
329.58722,329.6896,43,67,0
329.6896,329.792,55,46,0
329.792,329.89438,54,50,0
329.89438,329.99677,55,46,0
329.99677,330.09915,54,51,0
330.09915,330.2044,55,46,0
330.2044,330.30716,45,55,0
330.30716,330.4099,57,46,0
330.4099,330.51263,56,49,0
330.51263,330.6154,57,46,0
330.6154,330.71954,56,50,0
330.71954,330.8237,57,46,0
330.8237,330.9261,50,67,0
330.9261,331.0285,62,44,0
331.0285,331.1309,61,48,0
331.1309,331.23328,62,44,0
331.23328,331.33566,61,48,0
331.33566,331.44165,62,44,0
331.44165,331.54404,47,62,0
331.54404,331.64645,59,43,0
331.64645,331.74884,58,47,0
331.74884,331.85123,59,43,0
331.85123,331.9536,58,47,0
331.9536,332.0639,59,43,0
332.0639,332.1663,43,67,0
332.1663,332.26868,55,46,0
332.26868,332.37106,54,50,0
332.37106,332.47345,55,46,0
332.47345,332.57584,54,51,0
332.57584,332.68112,55,46,0
332.68112,332.78384,45,55,0
332.78384,332.8866,57,46,0
332.8866,332.98932,56,49,0
332.98932,333.09207,57,46,0
333.09207,333.19882,56,50,0
333.19882,333.3056,57,46,0
334.57422,334.79083,57,32,0
334.57422,334.79083,61,38,0
335.8496,336.07266,50,34,0
335.8496,336.07266,62,41,0
337.1411,337.365,61,41,0
337.1411,337.365,64,48,0
337.1411,337.365,57,41,0
338.4853,338.95404,62,48,0
338.4853,338.95404,66,58,0
340.36093,340.972,66,35,0
340.36093,340.972,62,29,0
340.972,341.5913,59,29,0
340.972,341.5913,68,35,0
341.5913,342.24457,57,29,0
341.5913,342.24457,69,35,0
342.84863,343.4597,57,29,0
342.84863,343.4597,64,35,0
343.4597,344.07904,64,35,0
343.4597,344.07904,61,29,0
344.07904,344.7129,69,35,0
344.07904,344.7129,62,29,0
344.7129,344.9156,50,51,0
344.9156,345.01694,62,45,0
345.11832,345.22177,64,48,0
345.32523,345.52792,66,52,0
345.94397,346.146,55,50,0
346.146,346.247,67,44,0
346.34802,346.45148,69,48,0
346.55493,346.757,71,53,0
347.1645,347.36655,55,45,0
347.1645,347.36655,64,53,0
347.1645,347.36655,59,45,0
347.7963,347.89752,57,45,0
347.7963,347.89752,62,45,0
347.80493,347.90594,66,53,0
348.4059,348.50708,57,45,0
348.4059,348.50708,64,45,0
348.4145,348.5155,67,53,0
349.03607,349.14062,62,45,0
349.03607,349.14062,66,53,0
349.45422,349.55457,38,45,0
349.55457,349.6591,42,45,0
349.6591,349.7615,45,52,0
350.0687,350.16837,42,48,0
350.16837,350.27402,45,48,0
350.27402,350.3764,50,57,0
350.6836,350.78394,45,51,0
350.78394,350.88956,50,51,0
350.88956,350.99197,54,57,0
351.29916,351.39984,50,48,0
351.39984,351.50586,54,48,0
351.50586,351.60825,57,57,0
352.7346,353.35223,62,29,0
352.7346,353.35223,66,35,0
353.35223,353.9673,67,32,0
353.35223,353.9673,64,27,0
353.9673,354.1707,66,35,0
353.9673,354.1707,62,29,0
352.7346,354.1707,57,29,0
355.18033,355.80133,66,35,0
355.18033,355.80133,62,29,0
355.80133,356.4164,64,27,0
355.80133,356.4164,67,32,0
356.4164,356.6198,66,35,0
356.4164,356.6198,62,29,0
355.18033,356.6198,57,29,0
357.62946,358.25043,66,35,0
357.62946,358.25043,62,29,0
358.25043,358.8713,64,27,0
358.25043,358.8713,67,32,0
357.62946,358.8713,57,29,0
358.8713,359.0747,66,32,0
358.8713,359.0747,62,24,0
359.4815,360.11087,47,35,0
360.11087,360.72107,43,37,0
360.72107,361.3455,45,39,0
361.3455,361.5531,38,35,0
361.96832,362.07364,59,60,0
361.96832,362.07364,47,50,0
362.17853,362.28278,59,53,0
362.17853,362.28278,47,45,0
362.3863,362.48917,59,55,0
362.3863,362.48917,47,46,0
362.5913,362.69302,55,71,0
362.5913,362.69302,43,59,0
362.7947,362.8964,55,63,0
362.7947,362.8964,43,52,0
362.9981,363.0998,55,66,0
362.9981,363.0998,43,55,0
363.20148,363.3032,57,80,0
363.20148,363.3032,45,67,0
363.40488,363.50656,57,72,0
363.40488,363.50656,45,61,0
363.6092,363.71594,57,74,0
363.6092,363.71594,45,62,0
363.82272,363.93222,50,93,0
363.82272,363.93222,38,78,0
364.47964,364.59076,50,85,0
364.47964,364.59076,38,72,0
364.47964,364.59076,45,72,0
364.47964,364.59076,42,72,0
365.14633,365.25742,50,85,0
365.14633,365.25742,38,72,0
365.14633,365.25742,42,72,0
365.14633,365.25742,45,72,0
