start_time,end_time,note_value,velocity,instrument_program_number
0.0,0.06637163,61,64,0
0.06637163,0.13274325,64,64,0
0.13274325,1.061946,69,76,0
1.061946,1.538136,64,70,0
1.538136,1.78607,73,72,0
1.78607,1.902349,74,74,0
1.902349,2.018628,71,70,0
2.018628,2.258628,69,70,0
2.978628,3.218628,73,50,0
3.218628,3.338628,74,52,0
3.338628,3.458628,71,46,0
3.458628,3.950729,69,49,0
3.950729,4.1869497,85,57,0
4.432851,4.905292,75,50,0
4.905292,5.6139536,76,52,0
5.6139536,5.830489,77,51,0
5.850174,6.082732,80,57,0
6.082732,6.3189526,78,56,0
6.3189526,6.5497217,76,54,0
6.5497217,6.7840967,74,53,0
6.7840967,7.0148654,73,52,0
7.0148654,7.260767,71,51,0
7.260767,7.4969873,69,51,0
7.4969873,7.733208,68,46,0
7.733208,7.9604807,76,53,0
7.9604807,8.19125,74,51,0
8.663691,8.899911,71,57,0
8.899911,9.136131,69,53,0
9.136131,9.363404,78,57,0
9.363404,9.595962,76,56,0
10.06474,10.299115,73,63,0
10.299115,10.526388,71,59,0
10.526388,10.755396,79,62,0
10.755396,10.989771,78,59,0
11.458521,11.927271,66,51,0
11.927271,12.154543,76,53,0
12.154543,12.385312,74,51,0
12.385312,12.61432,73,51,0
12.61432,12.852414,71,49,0
12.852414,13.086789,69,51,0
13.086789,13.321164,68,48,0
13.321164,13.797355,69,51,0
14.094974,14.154497,71,68,0
14.154497,14.214021,76,71,0
14.214021,14.273544,80,74,0
14.273544,15.679794,83,77,0
15.679794,15.795179,83,73,0
15.795179,15.910563,81,72,0
15.910563,16.025948,80,71,0
16.025948,16.13364,78,70,0
16.141333,16.256718,78,72,0
16.256718,16.3721,76,71,0
16.3721,16.487486,75,69,0
16.487486,16.60287,73,68,0
16.60287,16.720058,71,70,0
16.720058,16.837246,69,67,0
16.837246,16.956293,68,67,0
16.956293,17.07534,69,67,0
17.07534,17.19162,68,67,0
17.19162,17.307898,71,69,0
17.307898,17.424177,76,70,0
17.424177,17.540457,80,72,0
17.540457,18.45654,83,73,0
18.45654,18.571924,83,73,0
18.571924,18.68731,81,72,0
18.68731,18.802692,80,71,0
18.802692,18.913269,78,70,0
18.918077,19.033463,78,72,0
19.033463,19.148846,76,71,0
19.148846,19.26423,75,69,0
19.26423,19.379616,73,68,0
19.379616,19.496803,71,70,0
19.496803,19.61399,69,67,0
19.61399,19.733038,68,67,0
19.733038,19.852085,69,67,0
19.852085,19.968365,68,67,0
19.968365,20.084644,71,64,0
20.084644,20.199148,69,70,0
20.199148,20.31365,68,64,0
20.306973,20.420658,69,68,0
20.427288,20.540924,71,68,0
20.540924,20.65456,73,69,0
20.65456,20.768196,75,70,0
20.768196,20.883581,76,70,0
20.883581,20.998964,78,71,0
20.998964,21.11435,80,72,0
21.11435,21.229094,81,72,0
21.229094,21.34273,83,73,0
21.34273,21.45554,85,74,0
21.45554,21.567677,87,74,0
21.567677,21.679146,88,75,0
21.679146,21.790258,87,72,0
21.790258,21.90137,85,70,0
21.90137,22.01248,83,68,0
22.01248,22.122995,81,65,0
22.122995,22.233402,80,63,0
22.233402,22.345623,78,61,0
22.345623,22.45987,76,59,0
22.45987,22.575254,75,57,0
22.575254,22.807812,73,50,0
22.924091,23.040369,85,50,0
23.040369,23.470327,76,54,0
23.470327,23.543142,80,50,0
23.543142,24.083685,78,53,0
23.543142,24.083685,75,53,0
24.083685,24.624226,76,51,0
25.705307,25.771679,61,64,0
25.771679,25.83805,64,64,0
25.83805,26.767254,69,76,0
26.767254,27.243443,64,70,0
27.243443,27.491377,73,72,0
27.491377,27.607656,74,74,0
27.607656,27.723934,71,70,0
27.723934,27.963936,69,70,0
28.683935,28.923935,73,50,0
28.923935,29.043936,74,52,0
29.043936,29.163935,71,46,0
29.163935,29.656036,69,49,0
29.656036,29.892256,85,57,0
30.138159,30.6106,75,50,0
30.6106,31.319262,76,52,0
31.319262,31.535795,77,51,0
31.555481,31.78625,80,57,0
31.78625,32.022472,78,56,0
32.022472,32.255028,76,54,0
32.255028,32.49125,74,53,0
32.49125,32.725624,73,52,0
32.725624,32.971527,71,51,0
32.971527,33.207745,69,51,0
33.207745,33.443966,68,46,0
33.443966,33.671238,76,53,0
33.671238,33.902008,74,51,0
34.37445,34.61067,71,57,0
34.61067,34.84689,69,53,0
34.84689,35.07416,78,57,0
35.07416,35.30672,76,56,0
35.775497,36.009872,73,63,0
36.009872,36.23888,71,59,0
36.23888,36.467888,79,62,0
36.467888,36.702263,78,59,0
37.171013,37.639763,66,51,0
37.639763,37.867035,76,53,0
37.867035,38.097805,74,51,0
38.097805,38.325077,73,51,0
38.325077,38.56317,71,49,0
38.56317,38.797546,69,51,0
38.797546,39.03192,68,48,0
39.03192,39.508114,69,51,0
39.805733,39.865257,71,68,0
39.865257,39.924778,76,71,0
39.924778,39.984303,80,74,0
39.984303,41.390553,83,77,0
41.390553,41.50594,83,73,0
41.50594,41.621323,81,72,0
41.621323,41.736706,80,71,0
41.736706,41.852093,78,70,0
41.852093,41.96363,78,72,0
41.967476,42.08286,76,71,0
42.08286,42.198246,75,69,0
42.198246,42.31363,73,68,0
42.31363,42.430817,71,70,0
42.430817,42.548004,69,67,0
42.548004,42.667053,68,67,0
42.667053,42.7861,69,67,0
42.7861,42.902378,68,67,0
42.902378,43.018658,71,69,0
43.018658,43.134937,76,70,0
43.134937,43.251217,80,72,0
43.251217,44.167297,83,73,0
44.167297,44.282684,83,73,0
44.282684,44.398067,81,72,0
44.398067,44.51345,80,71,0
44.51345,44.62499,78,70,0
44.628838,44.74422,78,72,0
44.74422,44.859604,76,71,0
44.859604,44.97499,75,69,0
44.97499,45.090374,73,68,0
45.090374,45.20756,71,70,0
45.20756,45.32475,69,67,0
45.32475,45.443798,68,67,0
45.443798,45.562843,69,67,0
45.562843,45.679123,68,67,0
45.679123,45.795403,71,64,0
45.795403,45.911682,69,70,0
45.911682,46.02796,68,64,0
46.021175,46.134968,69,68,0
46.141598,46.255234,71,68,0
46.255234,46.36887,73,69,0
46.36887,46.482506,75,70,0
46.482506,46.59789,76,70,0
46.59789,46.713276,78,71,0
46.713276,46.82866,80,72,0
46.82866,46.9434,81,72,0
46.9434,47.057037,83,73,0
47.057037,47.16985,85,74,0
47.16985,47.281986,87,74,0
47.281986,47.393456,88,75,0
47.393456,47.504566,87,72,0
47.504566,47.615677,85,70,0
47.615677,47.726788,83,68,0
47.726788,47.837303,81,65,0
47.837303,47.947712,80,63,0
47.947712,48.059933,78,61,0
48.059933,48.17418,76,59,0
48.17418,48.289562,75,57,0
48.289562,48.52212,73,50,0
48.6384,48.754677,85,50,0
48.754677,49.184635,76,54,0
49.184635,49.257454,80,50,0
49.257454,49.797993,78,53,0
49.257454,49.797993,75,53,0
49.797993,50.338535,76,51,0
51.352047,51.47914,64,61,0
51.419617,51.83628,76,74,0
51.83628,51.95533,66,61,0
51.895805,52.312473,78,70,0
52.312473,52.43152,67,61,0
52.371998,52.852028,79,70,0
52.852028,53.328217,71,56,0
53.328217,53.79333,70,52,0
54.148674,54.26964,70,51,0
54.26964,54.742085,73,57,0
54.742085,55.20362,71,56,0
55.557953,55.676064,71,63,0
55.676064,56.14121,74,66,0
56.14121,56.60996,73,60,0
56.96152,57.07871,73,68,0
57.07871,57.309475,76,72,0
57.309475,57.547573,74,68,0
57.547573,57.774845,77,72,0
57.774845,58.011063,76,67,0
58.011063,58.24362,79,70,0
58.24362,58.479843,77,66,0
58.479843,58.952282,69,56,0
58.952282,59.4174,68,52,0
59.772743,59.89371,68,51,0
59.89371,60.36615,71,57,0
60.36615,60.82769,69,56,0
61.18202,61.30013,69,63,0
61.30013,61.76891,72,66,0
61.76891,62.24135,71,60,0
62.59568,62.71379,71,68,0
62.71379,62.94456,74,72,0
62.94456,63.182655,72,68,0
63.182655,63.413425,71,72,0
63.413425,63.649643,69,67,0
63.649643,63.824062,81,73,0
63.882202,64.059364,81,70,0
64.11842,64.354645,83,78,0
64.354645,64.590866,81,78,0
64.590866,64.823425,79,77,0
64.823425,65.05598,77,75,0
65.05598,65.2922,76,79,0
65.2922,65.5422,75,75,0
65.5422,66.4797,84,81,0
66.4797,66.96751,75,55,0
66.96751,67.67063,76,55,0
67.67063,67.791595,78,57,0
67.791595,67.882324,76,46,0
67.91257,68.03353,76,55,0
68.03353,68.1545,74,53,0
68.1545,68.27547,73,52,0
68.27547,68.40591,71,51,0
68.40591,68.472275,61,64,0
68.472275,68.53865,64,64,0
68.53865,69.46785,69,76,0
69.46785,69.94404,64,70,0
69.94404,70.19197,73,72,0
70.19197,70.30825,74,74,0
70.30825,70.42453,71,70,0
70.42453,70.66453,69,70,0
71.38453,71.624535,73,50,0
71.624535,71.74453,74,52,0
71.74453,71.86453,71,46,0
71.86453,72.356636,69,49,0
72.356636,72.59285,85,57,0
72.83875,73.311195,75,50,0
73.311195,74.01986,76,52,0
74.01986,74.23639,77,51,0
74.25608,74.485085,80,57,0
74.485085,74.721306,78,56,0
74.721306,74.95207,76,54,0
74.95207,75.18829,74,53,0
75.18829,75.42085,73,52,0
75.42085,75.666756,71,51,0
75.666756,75.90298,69,51,0
75.90298,76.13374,68,46,0
76.13374,76.361015,76,53,0
76.361015,76.59179,74,51,0
77.064224,77.300446,71,57,0
77.300446,77.533005,69,53,0
77.533005,77.76028,78,57,0
77.76028,77.992836,76,56,0
78.46162,78.69599,71,63,0
78.69599,78.93989,69,59,0
78.93989,79.1689,81,62,0
79.1689,79.403275,79,59,0
79.872025,80.10458,79,55,0
80.10458,80.340805,78,52,0
80.340805,80.57703,76,51,0
80.57703,80.81324,74,50,0
80.81324,81.04946,73,49,0
81.04946,81.295364,71,47,0
81.295364,81.41832,76,49,0
81.41832,81.45708,78,45,0
81.45708,81.495834,76,45,0
81.495834,81.53459,74,45,0
81.53459,81.65087,76,51,0
81.65087,81.78849,78,52,0
81.78849,82.27629,69,51,0
82.64069,82.70022,69,66,0
82.70022,82.75974,73,67,0
82.27629,82.75974,68,48,0
82.75974,83.22313,76,67,0
83.22313,84.15699,76,69,0
84.15699,84.27238,76,65,0
84.27238,84.387764,74,64,0
84.387764,84.50314,73,63,0
84.50314,84.607956,71,63,0
84.61853,84.73392,71,64,0
84.73392,84.8493,69,63,0
84.8493,84.96468,68,62,0
84.96468,85.08007,66,61,0
85.08007,85.19726,64,63,0
85.19726,85.314445,62,60,0
85.314445,85.43349,61,60,0
85.43349,85.552536,62,60,0
85.552536,85.668816,61,60,0
85.668816,85.785095,64,62,0
85.785095,85.901375,69,63,0
85.901375,86.017654,73,64,0
86.017654,86.702965,76,65,0
86.702965,86.92989,88,65,0
86.93374,87.04912,88,70,0
87.04912,87.164505,86,70,0
87.164505,87.27989,85,69,0
87.27989,87.390465,83,69,0
87.39527,87.51066,83,68,0
87.51066,87.626045,81,67,0
87.626045,87.74143,80,67,0
87.74143,87.85681,78,66,0
87.85681,87.974,76,66,0
87.974,88.09119,74,65,0
88.09119,88.210236,73,65,0
88.210236,88.329285,74,64,0
88.329285,88.445564,73,63,0
88.445564,88.561844,76,64,0
88.561844,88.67722,74,60,0
88.67722,88.79261,73,61,0
88.79261,88.90625,74,62,0
88.90625,89.01988,76,63,0
89.01988,89.13352,78,64,0
89.13352,89.247154,80,66,0
89.247154,89.36254,81,67,0
89.36254,89.47792,83,68,0
89.47792,89.59331,85,70,0
89.59331,89.70805,86,71,0
89.70805,89.821686,88,72,0
89.821686,89.9345,86,71,0
89.9345,90.04664,85,69,0
90.04664,90.158104,83,68,0
90.158104,90.26922,81,66,0
90.26922,90.380325,80,65,0
90.380325,90.49144,78,63,0
90.49144,90.60195,76,62,0
90.60195,90.712364,74,60,0
90.712364,90.824585,73,59,0
90.824585,90.93883,71,57,0
90.93883,91.075195,69,56,0
91.075195,91.15784,78,59,0
91.15784,91.24048,80,55,0
91.24048,91.32313,78,59,0
91.32313,91.38511,77,59,0
91.38511,91.44709,78,55,0
91.44709,91.50908,80,55,0
91.50908,91.57106,81,55,0
91.57106,92.02523,69,59,0
92.02523,92.098045,73,50,0
92.098045,92.60652,71,53,0
92.098045,92.60652,68,53,0
92.60652,93.15698,69,51,0
94.189095,94.316185,64,61,0
94.25666,94.673325,76,74,0
94.673325,94.79144,66,61,0
94.73285,95.143005,78,70,0
95.143005,95.26066,67,61,0
95.2016,95.68372,79,70,0
95.68372,96.156166,71,56,0
96.156166,96.62128,70,52,0
96.97662,97.09759,70,51,0
97.09759,97.57003,73,57,0
97.57003,98.03157,71,56,0
98.3859,98.504005,71,63,0
98.504005,98.96924,74,66,0
98.96924,99.44168,73,60,0
99.796005,99.914116,73,68,0
99.914116,100.14139,76,72,0
100.14139,100.379486,74,68,0
100.379486,100.61025,77,72,0
100.61025,100.84647,76,67,0
100.84647,101.07903,79,70,0
101.07903,101.315254,77,66,0
101.315254,101.78224,69,56,0
101.78224,102.24202,68,52,0
102.59737,102.71833,68,51,0
102.71833,103.19077,71,57,0
103.19077,103.65231,69,56,0
104.00664,104.12475,69,63,0
104.12475,104.59719,72,66,0
104.59719,105.06231,71,60,0
105.41664,105.53475,71,68,0
105.53475,105.76552,74,72,0
105.76552,106.00362,72,68,0
106.00362,106.23438,71,72,0
106.23438,106.470604,69,67,0
106.470604,106.64502,81,73,0
106.70316,106.880325,81,70,0
106.939384,107.17015,83,78,0
107.17015,107.40637,81,78,0
107.40637,107.64259,79,77,0
107.64259,107.878815,77,75,0
107.878815,108.11503,76,79,0
108.11503,108.371445,75,75,0
108.371445,109.308945,84,81,0
109.308945,109.796745,75,55,0
109.796745,110.49987,76,55,0
110.49987,110.62084,78,57,0
110.62084,110.735756,76,46,0
110.741806,110.85992,76,55,0
110.85992,110.97803,74,53,0
110.97803,111.09998,73,52,0
111.09998,111.230415,71,51,0
111.230415,111.29678,61,64,0
111.29678,111.36316,64,64,0
111.36316,112.29236,69,76,0
112.29236,112.76855,64,70,0
112.76855,113.01649,73,72,0
113.01649,113.13277,74,74,0
113.13277,113.24904,71,70,0
113.24904,113.489044,69,70,0
114.209045,114.4462,73,50,0
114.4462,114.5662,74,52,0
114.5662,114.6862,71,46,0
114.6862,115.1783,69,49,0
115.1783,115.41452,85,57,0
115.66042,116.132866,75,50,0
116.132866,116.84152,76,52,0
116.84152,117.05806,77,51,0
117.07774,117.306755,80,57,0
117.306755,117.54298,78,56,0
117.54298,117.77374,76,54,0
117.77374,118.009964,74,53,0
118.009964,118.246185,73,52,0
118.246185,118.49209,71,51,0
118.49209,118.72831,69,51,0
118.72831,118.95731,68,46,0
118.95731,119.184586,76,53,0
119.184586,119.41535,74,51,0
119.887794,120.124016,71,57,0
120.124016,120.356575,69,53,0
120.356575,120.58385,78,57,0
120.58385,120.81641,76,56,0
121.28519,121.51956,71,63,0
121.51956,121.76346,69,59,0
121.76346,121.99247,81,62,0
121.99247,122.226845,79,59,0
122.695595,122.928154,79,55,0
122.928154,123.164375,78,52,0
123.164375,123.40059,76,51,0
123.40059,123.63681,74,50,0
123.63681,123.87303,73,49,0
123.87303,124.118935,71,47,0
124.118935,124.24188,76,49,0
124.24188,124.28065,78,45,0
124.28065,124.319405,76,45,0
124.319405,124.35816,74,45,0
124.35816,124.47444,76,51,0
124.47444,124.61206,78,52,0
124.61206,125.09986,69,51,0
125.464264,125.52379,69,66,0
125.52379,125.58331,73,67,0
125.09986,125.58331,68,48,0
125.58331,126.05206,76,67,0
126.05206,126.98593,76,69,0
126.98593,127.10131,76,65,0
127.10131,127.2167,74,64,0
127.2167,127.33034,73,63,0
127.33034,127.433556,71,63,0
127.44397,127.55847,71,64,0
127.55847,127.67298,69,63,0
127.67298,127.78748,68,62,0
127.78748,127.901985,66,61,0
127.901985,128.01918,64,63,0
128.01918,128.13637,62,60,0
128.13637,128.2554,61,60,0
128.2554,128.37445,62,60,0
128.37445,128.49074,61,60,0
128.49074,128.60701,64,62,0
128.60701,128.7233,69,63,0
128.7233,128.83957,73,64,0
128.83957,129.52489,76,65,0
129.52489,129.75084,88,65,0
129.75566,129.8693,88,70,0
129.8693,129.98293,86,70,0
129.98293,130.09743,85,69,0
130.09743,130.2024,83,69,0
130.21193,130.32643,83,68,0
130.32643,130.44095,81,67,0
130.44095,130.55545,80,67,0
130.55545,130.66995,78,66,0
130.66995,130.78714,76,66,0
130.78714,130.90433,74,65,0
130.90433,131.02338,73,65,0
131.02338,131.14243,74,64,0
131.14243,131.2587,73,63,0
131.2587,131.37498,76,64,0
131.37498,131.49126,74,60,0
131.49126,131.60753,73,61,0
131.60753,131.72118,74,62,0
131.72118,131.83481,76,63,0
131.83481,131.94844,78,64,0
131.94844,132.06209,80,66,0
132.06209,132.17746,81,67,0
132.17746,132.29285,83,68,0
132.29285,132.40823,85,70,0
132.40823,132.52298,86,71,0
132.52298,132.63661,88,72,0
132.63661,132.74942,86,71,0
132.74942,132.86156,85,69,0
132.86156,132.97304,83,68,0
132.97304,133.08414,81,66,0
133.08414,133.19525,80,65,0
133.19525,133.30637,78,63,0
133.30637,133.41689,76,62,0
133.41689,133.52728,74,60,0
133.52728,133.63951,73,59,0
133.63951,133.75375,71,57,0
133.75375,133.89012,69,56,0
133.89012,133.97415,78,59,0
133.97415,134.05818,80,55,0
134.05818,134.14221,78,59,0
134.14221,134.20525,77,59,0
134.20525,134.26826,78,55,0
134.26826,134.3313,80,55,0
134.3313,134.39432,81,55,0
134.39432,134.85844,69,59,0
134.85844,134.93126,73,50,0
134.93126,135.4718,68,53,0
134.93126,135.4718,71,53,0
135.4718,136.01233,69,51,0
138.71504,138.99806,69,50,0
138.71504,138.99806,66,42,0
138.99806,139.26833,57,45,0
139.26833,139.52473,66,50,0
139.26833,139.52473,62,42,0
139.52473,139.77065,57,47,0
139.77065,140.02275,67,52,0
139.77065,140.02275,64,44,0
140.02275,140.29301,57,49,0
140.29301,140.55617,66,45,0
140.29301,140.55617,69,54,0
140.55617,140.80411,57,48,0
140.80411,141.05205,66,50,0
140.80411,141.05205,62,42,0
141.05205,141.30205,64,47,0
141.05205,141.30205,61,39,0
141.30205,141.55627,66,50,0
141.30205,141.55627,62,42,0
141.55627,141.80627,67,47,0
141.55627,141.80627,64,39,0
141.80627,142.05421,69,50,0
141.80627,142.05421,66,42,0
142.05421,142.30632,62,45,0
142.30632,142.55632,71,53,0
142.30632,142.55632,67,45,0
142.55632,142.81947,62,47,0
142.81947,143.07158,73,54,0
142.81947,143.07158,67,45,0
143.07158,143.33473,64,47,0
143.33473,143.5956,74,54,0
143.33473,143.5956,66,45,0
143.5956,143.85648,69,49,0
143.85648,144.1044,66,50,0
143.85648,144.1044,62,42,0
144.1044,144.3544,64,47,0
144.1044,144.3544,61,39,0
144.3544,144.60864,66,50,0
144.3544,144.60864,62,42,0
144.60864,144.85864,67,47,0
144.60864,144.85864,64,39,0
144.85864,145.10657,69,50,0
144.85864,145.10657,66,42,0
145.10657,145.36081,62,45,0
145.36081,145.61505,71,53,0
145.36081,145.61505,67,45,0
145.61505,145.87592,62,47,0
145.87592,146.13016,73,54,0
145.87592,146.13016,67,45,0
146.13016,146.39801,64,47,0
146.39801,146.66586,74,54,0
146.39801,146.66586,66,45,0
146.66586,146.94365,69,49,0
146.94365,147.19789,74,54,0
146.94365,147.19789,66,45,0
147.19789,147.45651,73,49,0
147.19789,147.45651,64,41,0
147.45651,147.70444,71,49,0
147.45651,147.70444,62,41,0
147.70444,147.97717,69,49,0
147.70444,147.97717,61,41,0
147.97717,148.23358,68,54,0
147.97717,148.23358,59,45,0
148.23358,148.49445,64,47,0
148.49445,148.74869,69,51,0
148.49445,148.74869,61,43,0
148.74869,149.00731,64,42,0
149.00731,149.25941,73,52,0
149.00731,149.25941,69,44,0
149.25941,149.5115,64,42,0
149.5115,149.76361,71,51,0
149.5115,149.76361,68,43,0
149.76361,150.03146,64,44,0
150.03146,150.2794,74,54,0
150.03146,150.2794,66,45,0
150.2794,150.53581,73,49,0
150.2794,150.53581,64,41,0
150.53581,150.79005,71,49,0
150.53581,150.79005,62,41,0
150.79005,151.05554,69,49,0
150.79005,151.05554,61,41,0
151.05554,151.30144,68,54,0
151.05554,151.30144,59,45,0
151.30144,151.54533,64,47,0
151.54533,151.79124,69,51,0
151.54533,151.79124,61,43,0
151.79124,152.03317,64,42,0
152.03317,152.27708,73,52,0
152.03317,152.27708,69,44,0
152.27708,152.52708,64,42,0
152.52708,152.77708,71,51,0
152.52708,152.77708,68,43,0
152.77708,153.04024,64,44,0
153.04024,153.29665,73,64,0
153.29665,153.54459,71,59,0
153.54459,153.78848,73,61,0
153.78848,154.03848,74,54,0
154.03848,154.28238,76,66,0
154.28238,154.53662,69,59,0
153.04024,154.53662,64,64,0
154.53662,154.78053,73,64,0
154.78053,155.03694,64,58,0
154.53662,155.03694,69,64,0
155.03694,155.28084,71,64,0
155.28084,155.53946,64,58,0
155.03694,155.53946,68,64,0
155.53946,155.7874,69,64,0
155.7874,156.05055,64,58,0
156.05055,156.30696,73,64,0
156.05055,156.30696,69,64,0
156.30696,156.5549,71,59,0
156.30696,156.5549,68,59,0
156.5549,156.80699,73,61,0
156.5549,156.80699,69,61,0
156.80699,157.05699,74,54,0
156.80699,157.05699,71,54,0
157.05699,157.3009,76,66,0
157.05699,157.3009,73,66,0
157.3009,157.55513,64,59,0
157.55513,157.79904,73,64,0
157.55513,157.79904,69,64,0
157.79904,158.05545,64,58,0
158.05545,158.29935,71,64,0
158.05545,158.29935,68,64,0
158.29935,158.55797,64,58,0
158.55797,158.80591,69,64,0
158.80591,159.06015,64,58,0
159.06015,159.30405,66,61,0
159.30405,159.55405,74,53,0
159.55405,159.79994,71,61,0
159.79994,160.05418,68,55,0
160.05418,160.30212,69,59,0
160.30212,160.55005,64,50,0
160.55005,160.80005,66,56,0
160.80005,161.05646,74,50,0
161.05646,161.31288,71,57,0
161.31288,161.57603,68,48,0
161.57603,161.82396,69,52,0
161.82396,162.0719,68,46,0
162.0719,162.31984,69,52,0
162.31984,162.56776,71,45,0
162.56776,162.83325,67,48,0
162.83325,163.13937,64,48,0
163.13937,163.4224,69,50,0
163.13937,163.4224,66,42,0
163.4224,163.69267,57,45,0
163.69267,163.94908,66,50,0
163.69267,163.94908,62,42,0
163.94908,164.19498,57,47,0
164.19498,164.44708,67,52,0
164.19498,164.44708,64,44,0
164.44708,164.71735,57,49,0
164.71735,164.98051,66,45,0
164.71735,164.98051,69,54,0
164.98051,165.22844,57,48,0
165.22844,165.47638,66,50,0
165.22844,165.47638,62,42,0
165.47638,165.72638,64,47,0
165.47638,165.72638,61,39,0
165.72638,165.98062,66,50,0
165.72638,165.98062,62,42,0
165.98062,166.23062,67,47,0
165.98062,166.23062,64,39,0
166.23062,166.47855,69,50,0
166.23062,166.47855,66,42,0
166.47855,166.73065,62,45,0
166.73065,166.98065,71,53,0
166.73065,166.98065,67,45,0
166.98065,167.2438,62,47,0
167.2438,167.49591,73,54,0
167.2438,167.49591,67,45,0
167.49591,167.75906,64,47,0
167.75906,168.01994,74,54,0
167.75906,168.01994,66,45,0
168.01994,168.2808,69,49,0
168.2808,168.52873,66,50,0
168.2808,168.52873,62,42,0
168.52873,168.77873,64,47,0
168.52873,168.77873,61,39,0
168.77873,169.03297,66,50,0
168.77873,169.03297,62,42,0
169.03297,169.28297,67,47,0
169.03297,169.28297,64,39,0
169.28297,169.53091,69,50,0
169.28297,169.53091,66,42,0
169.53091,169.78514,62,45,0
169.78514,170.03938,71,53,0
169.78514,170.03938,67,45,0
170.03938,170.30026,62,47,0
170.30026,170.55449,73,54,0
170.30026,170.55449,67,45,0
170.55449,170.82236,64,47,0
170.82236,171.09021,74,54,0
170.82236,171.09021,66,45,0
171.09021,171.36798,69,49,0
171.36798,171.62222,74,54,0
171.36798,171.62222,66,45,0
171.62222,171.88084,73,49,0
171.62222,171.88084,64,41,0
171.88084,172.12878,71,49,0
171.88084,172.12878,62,41,0
172.12878,172.4015,69,49,0
172.12878,172.4015,61,41,0
172.4015,172.65791,68,54,0
172.4015,172.65791,59,45,0
172.65791,172.91878,64,47,0
172.91878,173.17302,69,51,0
172.91878,173.17302,61,43,0
173.17302,173.43164,64,42,0
173.43164,173.68375,73,52,0
173.43164,173.68375,69,44,0
173.68375,173.93584,64,42,0
173.93584,174.18794,71,51,0
173.93584,174.18794,68,43,0
174.18794,174.4558,64,44,0
174.4558,174.70374,74,54,0
174.4558,174.70374,66,45,0
174.70374,174.96014,73,49,0
174.70374,174.96014,64,41,0
174.96014,175.21439,71,49,0
174.96014,175.21439,62,41,0
175.21439,175.47987,69,49,0
175.21439,175.47987,61,41,0
175.47987,175.72577,68,54,0
175.47987,175.72577,59,45,0
175.72577,175.96968,64,47,0
175.96968,176.21558,69,51,0
175.96968,176.21558,61,43,0
176.21558,176.4575,64,42,0
176.4575,176.70142,73,52,0
176.4575,176.70142,69,44,0
176.70142,176.95142,64,42,0
176.95142,177.20142,71,51,0
176.95142,177.20142,68,43,0
177.20142,177.46457,64,44,0
177.46457,177.72098,73,64,0
177.72098,177.96892,71,59,0
177.96892,178.21281,73,61,0
178.21281,178.46281,74,54,0
178.46281,178.70673,76,66,0
178.70673,178.96095,69,59,0
177.46457,178.96095,64,64,0
178.96095,179.20486,73,64,0
179.20486,179.46127,64,58,0
178.96095,179.46127,69,64,0
179.46127,179.70517,71,64,0
179.70517,179.96379,64,58,0
179.46127,179.96379,68,64,0
179.96379,180.21173,69,64,0
180.21173,180.47488,64,58,0
180.47488,180.7313,73,64,0
180.47488,180.7313,69,64,0
180.7313,180.97923,71,59,0
180.7313,180.97923,68,59,0
180.97923,181.23134,73,61,0
180.97923,181.23134,69,61,0
181.23134,181.48134,74,54,0
181.23134,181.48134,71,54,0
181.48134,181.72523,76,66,0
181.48134,181.72523,73,66,0
181.72523,181.97948,64,59,0
181.97948,182.22337,73,64,0
181.97948,182.22337,69,64,0
182.22337,182.47978,64,58,0
182.47978,182.7237,71,64,0
182.47978,182.7237,68,64,0
182.7237,182.98232,64,58,0
182.98232,183.23024,69,64,0
183.23024,183.48448,64,58,0
183.48448,183.72838,66,61,0
183.72838,183.97838,74,53,0
183.97838,184.22429,71,61,0
184.22429,184.47852,68,55,0
184.47852,184.72646,69,59,0
184.72646,184.9744,64,50,0
184.9744,185.2244,66,56,0
185.2244,185.4808,74,50,0
185.4808,185.73721,71,57,0
185.73721,186.00037,68,48,0
186.00037,186.2483,69,52,0
186.2483,186.49623,68,46,0
186.49623,186.74417,69,52,0
186.74417,186.99211,71,45,0
186.99211,187.24634,67,48,0
187.24634,187.52412,64,48,0
187.52412,187.80714,69,50,0
187.52412,187.80714,66,42,0
187.80714,188.07741,59,45,0
188.07741,188.33382,66,50,0
188.07741,188.33382,63,42,0
188.33382,188.57973,59,47,0
188.57973,188.83182,67,52,0
188.57973,188.83182,64,44,0
188.83182,189.1021,59,49,0
189.1021,189.36525,66,45,0
189.1021,189.36525,69,54,0
189.36525,189.61319,59,48,0
189.61319,189.86319,66,45,0
189.61319,189.86319,63,37,0
189.86319,190.10909,59,42,0
190.10909,190.35703,67,46,0
190.10909,190.35703,64,39,0
190.35703,190.61565,59,44,0
190.61565,190.86565,66,40,0
190.61565,190.86565,69,48,0
190.86565,191.11357,59,43,0
191.11357,191.36151,66,45,0
191.11357,191.36151,63,37,0
191.36151,191.6074,59,42,0
191.6074,191.85332,67,46,0
191.6074,191.85332,64,39,0
191.85332,192.11194,59,44,0
192.11194,192.63861,66,40,0
192.11194,192.63861,69,48,0
192.63861,192.85635,83,71,0
192.63861,192.85635,71,60,0
192.88055,193.10007,81,66,0
192.88055,193.10007,69,56,0
193.12445,193.3476,79,71,0
193.12445,193.3476,67,60,0
193.37239,193.60315,78,67,0
193.37239,193.60315,66,56,0
193.6288,194.10667,76,74,0
193.6288,194.10667,64,62,0
194.15977,194.6213,76,71,0
194.15977,194.6213,64,60,0
194.67259,195.13412,83,73,0
194.67259,195.13412,71,61,0
195.18541,195.6317,76,71,0
195.18541,195.6317,64,60,0
195.68127,195.90079,83,71,0
195.68127,195.90079,71,60,0
195.92519,196.14832,81,66,0
195.92519,196.14832,69,56,0
196.17311,196.40001,79,71,0
196.17311,196.40001,67,60,0
196.42522,196.66,78,67,0
196.42522,196.66,66,56,0
196.68608,197.16396,76,74,0
196.68608,197.16396,64,62,0
197.21706,197.6786,76,71,0
197.21706,197.6786,64,60,0
197.72987,198.19142,83,73,0
197.72987,198.19142,71,61,0
198.2427,198.72058,76,71,0
198.2427,198.72058,64,60,0
198.77368,198.96275,76,50,0
199.02577,199.21974,74,46,0
199.2844,199.47346,76,50,0
199.5365,199.73047,77,47,0
199.79512,200.30797,79,51,0
200.30797,201.0707,79,53,0
201.0707,201.3271,79,50,0
201.3271,201.83557,84,55,0
201.83557,202.33557,79,50,0
202.8442,203.3422,79,56,0
203.3422,204.09644,79,58,0
204.09644,204.35068,79,55,0
204.35068,204.84868,84,60,0
204.84868,205.34454,79,55,0
205.72847,205.8624,79,61,0
205.8624,206.3583,88,70,0
206.3583,206.8583,79,55,0
207.23874,207.36917,79,65,0
207.36917,207.86307,88,74,0
207.86307,208.35692,79,61,0
208.73529,208.86572,79,55,0
208.86572,209.10963,79,60,0
209.10963,209.35353,77,58,0
209.35353,209.60147,76,58,0
209.60147,209.8494,77,54,0
209.8494,210.09734,76,58,0
210.09734,210.34528,74,55,0
210.34528,210.59117,73,58,0
210.59117,210.84328,80,55,0
210.84328,211.0852,81,58,0
211.0852,211.33112,80,55,0
211.33112,211.57701,81,58,0
211.57701,211.8229,76,55,0
211.8229,212.06682,79,60,0
212.06682,212.31071,77,58,0
212.31071,212.55865,76,58,0
212.55865,212.80658,77,54,0
212.80658,213.05452,76,58,0
213.05452,213.30246,74,55,0
213.30246,213.54636,81,58,0
213.54636,213.79846,80,55,0
213.79846,214.04039,81,58,0
214.04039,214.28833,76,55,0
214.28833,214.53625,77,58,0
214.53625,214.7842,74,55,0
214.7842,215.02809,81,58,0
215.02809,215.2802,80,55,0
215.2802,215.52213,81,58,0
215.52213,215.76804,76,55,0
215.76804,216.01393,77,58,0
216.01393,216.2599,74,49,0
216.2599,216.50993,69,51,0
216.50993,216.76228,68,45,0
216.76228,217.01657,69,51,0
217.01657,217.27298,68,47,0
217.27298,217.53355,69,51,0
217.53355,217.8498,68,44,0
217.8498,218.1328,69,50,0
217.8498,218.1328,66,42,0
218.1328,218.40308,57,45,0
218.40308,218.65948,66,50,0
218.40308,218.65948,62,42,0
218.65948,218.90538,57,47,0
218.90538,219.15749,67,52,0
218.90538,219.15749,64,44,0
219.15749,219.42776,57,49,0
219.42776,219.69092,66,45,0
219.42776,219.69092,69,54,0
219.69092,219.93884,62,48,0
219.93884,220.18678,74,50,0
219.93884,220.18678,71,42,0
220.18678,220.43678,73,47,0
220.18678,220.43678,69,39,0
220.43678,220.69102,71,50,0
220.43678,220.69102,67,42,0
220.69102,220.94102,69,47,0
220.69102,220.94102,66,39,0
220.94102,221.18895,67,50,0
221.18895,221.44106,62,45,0
221.44106,221.69106,69,53,0
221.44106,221.69106,66,45,0
221.69106,221.95421,62,47,0
221.95421,222.20631,71,54,0
221.95421,222.20631,67,45,0
222.20631,222.46947,62,47,0
222.46947,222.73264,66,45,0
222.46947,222.73264,69,54,0
222.73264,222.98056,62,48,0
222.98056,223.2285,74,47,0
222.98056,223.2285,71,39,0
223.2285,223.4785,73,44,0
223.2285,223.4785,69,37,0
223.4785,223.73274,71,47,0
223.4785,223.73274,67,39,0
223.73274,223.98274,69,44,0
223.73274,223.98274,66,37,0
223.98274,224.23067,67,47,0
223.98274,224.23067,64,42,0
224.23067,224.48277,62,42,0
224.48277,224.73277,69,50,0
224.48277,224.73277,66,42,0
224.73277,224.99593,62,44,0
224.99593,225.24803,71,51,0
224.99593,225.24803,67,42,0
225.24803,225.51118,62,44,0
225.51118,225.77435,66,42,0
225.51118,225.77435,69,51,0
225.77435,226.02228,62,45,0
226.02228,226.27022,71,50,0
226.02228,226.27022,67,42,0
226.27022,226.52022,69,47,0
226.27022,226.52022,66,39,0
226.52022,226.77446,67,50,0
226.52022,226.77446,64,42,0
226.77446,227.02446,66,47,0
226.77446,227.02446,62,39,0
227.02446,227.27238,64,50,0
227.02446,227.27238,61,45,0
227.27238,227.52449,57,45,0
227.52449,227.77449,69,53,0
227.52449,227.77449,62,45,0
227.77449,228.03764,57,47,0
228.03764,228.28975,66,54,0
228.03764,228.28975,62,45,0
228.28975,228.5529,57,47,0
228.5529,228.81606,61,45,0
228.5529,228.81606,64,54,0
228.81606,229.064,57,48,0
229.064,229.31194,71,47,0
229.064,229.31194,67,39,0
229.31194,229.56194,69,44,0
229.31194,229.56194,66,37,0
229.56194,229.81616,67,47,0
229.56194,229.81616,64,39,0
229.81616,230.06616,66,44,0
229.81616,230.06616,62,37,0
230.06616,230.31207,64,47,0
230.06616,230.31207,61,42,0
230.31207,230.56416,57,42,0
230.56416,230.81007,69,50,0
230.56416,230.81007,66,42,0
230.81007,231.06218,57,44,0
231.06218,231.3101,66,51,0
231.06218,231.3101,62,42,0
231.3101,231.56221,57,44,0
231.56221,231.82536,61,42,0
231.56221,231.82536,64,51,0
231.82536,232.0733,69,45,0
232.0733,232.32971,74,64,0
232.32971,232.57765,73,59,0
232.57765,232.82155,74,61,0
232.82155,233.07155,71,54,0
233.07155,233.31544,69,63,0
232.0733,233.31544,62,50,0
233.31544,233.56969,57,55,0
233.56969,233.81358,64,54,0
233.81358,234.07,59,54,0
233.56969,234.07,67,61,0
234.07,234.3139,61,54,0
234.3139,234.57253,57,51,0
234.07,234.57253,64,61,0
234.57253,234.82045,66,64,0
234.57253,234.94107,62,52,0
234.82045,235.08362,69,55,0
235.08362,235.34003,74,64,0
235.08362,235.34003,71,64,0
235.34003,235.58797,73,56,0
235.34003,235.58797,70,56,0
235.58797,235.84006,74,61,0
235.58797,235.84006,71,61,0
235.84006,236.09006,71,54,0
235.84006,236.09006,67,54,0
236.09006,236.33397,69,66,0
236.09006,236.33397,66,56,0
236.33397,236.5882,62,51,0
236.5882,236.8321,67,64,0
236.5882,236.8321,64,54,0
236.8321,237.08852,59,51,0
237.08852,237.33241,64,64,0
237.08852,237.33241,61,54,0
237.33241,237.59103,57,52,0
237.59103,237.83897,66,64,0
237.59103,237.83897,62,54,0
237.83897,238.0932,69,54,0
238.0932,238.33711,69,61,0
238.0932,238.46211,59,50,0
238.33711,238.58711,67,51,0
238.58711,238.83301,64,61,0
238.83301,239.08725,61,52,0
239.08725,239.33519,62,59,0
239.33519,239.58311,66,50,0
239.58311,239.83311,69,56,0
239.58311,239.96132,59,50,0
239.83311,240.08952,67,50,0
240.08952,240.34593,64,57,0
240.34593,240.6091,61,48,0
240.6091,240.85703,62,52,0
240.85703,241.10497,61,46,0
241.10497,241.3529,62,52,0
241.3529,241.60083,64,45,0
241.60083,241.87357,66,48,0
241.87357,242.18285,67,48,0
242.18285,242.46585,69,50,0
242.18285,242.46585,66,42,0
242.46585,242.73613,59,45,0
242.73613,242.99254,66,50,0
242.73613,242.99254,63,42,0
242.99254,243.23843,59,47,0
243.23843,243.49054,67,52,0
243.23843,243.49054,64,44,0
243.49054,243.76082,59,49,0
243.76082,244.02397,66,45,0
243.76082,244.02397,69,54,0
244.02397,244.2719,59,48,0
244.2719,244.5219,66,45,0
244.2719,244.5219,63,37,0
244.5219,244.7678,59,42,0
244.7678,245.01573,67,46,0
244.7678,245.01573,64,39,0
245.01573,245.27435,59,44,0
245.27435,245.52435,66,40,0
245.27435,245.52435,69,48,0
245.52435,245.7723,59,43,0
245.7723,246.02023,66,45,0
245.7723,246.02023,63,37,0
246.02023,246.26613,59,42,0
246.26613,246.51202,67,46,0
246.26613,246.51202,64,39,0
246.51202,246.77065,59,44,0
246.77065,247.29733,66,40,0
246.77065,247.29733,69,48,0
247.29733,247.51508,83,71,0
247.29733,247.51508,71,60,0
247.53926,247.75877,81,66,0
247.53926,247.75877,69,56,0
247.78317,248.00632,79,71,0
247.78317,248.00632,67,60,0
248.0311,248.26187,78,67,0
248.0311,248.26187,66,56,0
248.28752,248.7654,76,74,0
248.28752,248.7654,64,62,0
248.81848,249.28003,76,71,0
248.81848,249.28003,64,60,0
249.33131,249.79285,83,73,0
249.33131,249.79285,71,61,0
249.84413,250.2904,76,71,0
249.84413,250.2904,64,60,0
250.34,250.55951,83,71,0
250.34,250.55951,71,60,0
250.5839,250.80704,81,66,0
250.5839,250.80704,69,56,0
250.83183,251.05873,79,71,0
250.83183,251.05873,67,60,0
251.08394,251.31871,78,67,0
251.08394,251.31871,66,56,0
251.3448,251.82268,76,74,0
251.3448,251.82268,64,62,0
251.87578,252.33731,76,71,0
251.87578,252.33731,64,60,0
252.3886,252.85014,83,73,0
252.3886,252.85014,71,61,0
252.90141,253.3793,76,71,0
252.90141,253.3793,64,60,0
253.43239,253.62148,76,50,0
253.6845,253.87846,74,46,0
253.94312,254.13219,76,50,0
254.19522,254.38918,77,47,0
254.45384,254.96669,79,51,0
254.96669,255.7294,79,53,0
255.7294,255.98581,79,50,0
255.98581,256.4943,84,55,0
256.4943,256.9943,79,50,0
257.5029,258.00092,79,56,0
258.00092,258.75516,79,58,0
258.75516,259.0094,79,55,0
259.0094,259.5074,84,60,0
259.5074,260.00327,79,55,0
260.38718,260.52112,79,61,0
260.52112,261.01703,88,70,0
261.01703,261.51703,79,55,0
261.89746,262.0279,79,65,0
262.0279,262.5218,88,74,0
262.5218,263.01566,79,61,0
263.394,263.52444,79,55,0
263.52444,263.76834,79,60,0
263.76834,264.01224,77,58,0
264.01224,264.2602,76,58,0
264.2602,264.50812,77,54,0
264.50812,264.75604,76,58,0
264.75604,265.004,74,55,0
265.004,265.24988,73,58,0
265.24988,265.50198,80,55,0
265.50198,265.74393,81,58,0
265.74393,265.98984,80,55,0
265.98984,266.23572,81,58,0
266.23572,266.48163,76,55,0
266.48163,266.72552,79,60,0
266.72552,266.96942,77,58,0
266.96942,267.21738,76,58,0
267.21738,267.4653,77,54,0
267.4653,267.71323,76,58,0
267.71323,267.96118,74,55,0
267.96118,268.20508,81,58,0
268.20508,268.45718,80,55,0
268.45718,268.6991,81,58,0
268.6991,268.94705,76,55,0
268.94705,269.19498,77,58,0
269.19498,269.4429,74,55,0
269.4429,269.68683,81,58,0
269.68683,269.9389,80,55,0
269.9389,270.18085,81,58,0
270.18085,270.42676,76,55,0
270.42676,270.67267,77,58,0
270.67267,270.9186,74,49,0
270.9186,271.16867,69,51,0
271.16867,271.42102,68,45,0
271.42102,271.6753,69,51,0
271.6753,271.9317,68,47,0
271.9317,272.1939,69,51,0
272.1939,272.4939,68,44,0
272.4939,272.77692,69,50,0
272.4939,272.77692,66,42,0
272.77692,273.0472,57,45,0
273.0472,273.30362,66,50,0
273.0472,273.30362,62,42,0
273.30362,273.5495,57,47,0
273.5495,273.8016,67,52,0
273.5495,273.8016,64,44,0
273.8016,274.0719,57,49,0
274.0719,274.33505,66,45,0
274.0719,274.33505,69,54,0
274.33505,274.58298,62,48,0
274.58298,274.8309,74,50,0
274.58298,274.8309,71,42,0
274.8309,275.0809,73,47,0
274.8309,275.0809,69,39,0
275.0809,275.33514,71,50,0
275.0809,275.33514,67,42,0
275.33514,275.58514,69,47,0
275.33514,275.58514,66,39,0
275.58514,275.83307,67,50,0
275.83307,276.08517,62,45,0
276.08517,276.33517,69,53,0
276.08517,276.33517,66,45,0
276.33517,276.59833,62,47,0
276.59833,276.85043,71,54,0
276.59833,276.85043,67,45,0
276.85043,277.1136,62,47,0
277.1136,277.37677,66,45,0
277.1136,277.37677,69,54,0
277.37677,277.6247,62,48,0
277.6247,277.87262,74,47,0
277.6247,277.87262,71,39,0
277.87262,278.12262,73,44,0
277.87262,278.12262,69,37,0
278.12262,278.37686,71,47,0
278.12262,278.37686,67,39,0
278.37686,278.62686,69,44,0
278.37686,278.62686,66,37,0
278.62686,278.8748,67,47,0
278.62686,278.8748,64,42,0
278.8748,279.1269,62,42,0
279.1269,279.3769,69,50,0
279.1269,279.3769,66,42,0
279.3769,279.64005,62,44,0
279.64005,279.89215,71,51,0
279.64005,279.89215,67,42,0
279.89215,280.1553,62,44,0
280.1553,280.4185,66,42,0
280.1553,280.4185,69,51,0
280.4185,280.6664,62,45,0
280.6664,280.91434,71,50,0
280.6664,280.91434,67,42,0
280.91434,281.16434,69,47,0
280.91434,281.16434,66,39,0
281.16434,281.41858,67,50,0
281.16434,281.41858,64,42,0
281.41858,281.66858,66,47,0
281.41858,281.66858,62,39,0
281.66858,281.9165,64,50,0
281.66858,281.9165,61,45,0
281.9165,282.1686,57,45,0
282.1686,282.4186,69,53,0
282.1686,282.4186,62,45,0
282.4186,282.68176,57,47,0
282.68176,282.93387,66,54,0
282.68176,282.93387,62,45,0
282.93387,283.19702,57,47,0
283.19702,283.46017,61,45,0
283.19702,283.46017,64,54,0
283.46017,283.70813,57,48,0
283.70813,283.95605,71,47,0
283.70813,283.95605,67,39,0
283.95605,284.20605,69,44,0
283.95605,284.20605,66,37,0
284.20605,284.4603,67,47,0
284.20605,284.4603,64,39,0
284.4603,284.7103,66,44,0
284.4603,284.7103,62,37,0
284.7103,284.9562,64,47,0
284.7103,284.9562,61,42,0
284.9562,285.20828,57,42,0
285.20828,285.4542,69,50,0
285.20828,285.4542,66,42,0
285.4542,285.7063,57,44,0
285.7063,285.95422,66,51,0
285.7063,285.95422,62,42,0
285.95422,286.20633,57,44,0
286.20633,286.46948,61,42,0
286.20633,286.46948,64,51,0
286.46948,286.71744,69,45,0
286.71744,286.97385,74,64,0
286.97385,287.22177,73,59,0
287.22177,287.46567,74,61,0
287.46567,287.71567,71,54,0
287.71567,287.95956,69,63,0
286.71744,287.95956,62,50,0
287.95956,288.2138,57,55,0
288.2138,288.4577,64,54,0
288.4577,288.7141,59,54,0
288.2138,288.7141,67,61,0
288.7141,288.95804,61,54,0
288.95804,289.21664,57,51,0
288.7141,289.21664,64,61,0
289.21664,289.46457,66,64,0
289.21664,289.5852,62,52,0
289.46457,289.72775,69,55,0
289.72775,289.98416,74,64,0
289.72775,289.98416,71,64,0
289.98416,290.2321,73,56,0
289.98416,290.2321,70,56,0
290.2321,290.4842,74,61,0
290.2321,290.4842,71,61,0
290.4842,290.7342,71,54,0
290.4842,290.7342,67,54,0
290.7342,290.9781,69,66,0
290.7342,290.9781,66,56,0
290.9781,291.23233,62,51,0
291.23233,291.47623,67,64,0
291.23233,291.47623,64,54,0
291.47623,291.73264,59,51,0
291.73264,291.97653,64,64,0
291.73264,291.97653,61,54,0
291.97653,292.23517,57,52,0
292.23517,292.4831,66,64,0
292.23517,292.4831,62,54,0
292.4831,292.73734,69,54,0
292.73734,292.98123,69,61,0
292.73734,293.10623,59,50,0
292.98123,293.23123,67,51,0
293.23123,293.47714,64,61,0
293.47714,293.73138,61,52,0
293.73138,293.9793,62,59,0
293.9793,294.22723,66,50,0
294.22723,294.47723,69,56,0
294.22723,294.60544,59,50,0
294.47723,294.73364,67,50,0
294.73364,294.99005,64,57,0
294.99005,295.25323,61,48,0
295.25323,295.87177,62,52,0
297.1089,297.17526,61,64,0
297.17526,297.24164,64,64,0
297.24164,298.17084,69,76,0
298.17084,298.64703,64,70,0
298.64703,298.89496,73,72,0
298.89496,299.01123,74,74,0
299.01123,299.12753,71,70,0
299.12753,299.36752,69,70,0
300.08752,300.3275,73,50,0
300.3275,300.4475,74,52,0
300.4475,300.56754,71,46,0
300.56754,301.05963,69,49,0
301.05963,301.29584,85,57,0
301.54175,302.0142,75,50,0
302.0142,302.72284,76,52,0
302.72284,302.9394,77,51,0
302.95908,303.18808,80,57,0
303.18808,303.4243,78,56,0
303.4243,303.65158,76,54,0
303.65158,303.8878,74,53,0
303.8878,304.12402,73,52,0
304.12402,304.3699,71,51,0
304.3699,304.60614,69,51,0
304.60614,304.84235,68,46,0
304.84235,305.0696,76,53,0
305.0696,305.30038,74,51,0
305.77283,306.00906,71,57,0
306.00906,306.24527,69,53,0
306.24527,306.47253,78,57,0
306.47253,306.7051,76,56,0
307.1739,307.40826,73,63,0
307.40826,307.63553,71,59,0
307.63553,307.86453,79,62,0
307.86453,308.0989,78,59,0
308.56766,309.0364,66,51,0
309.0364,309.262,76,53,0
309.262,309.49454,74,51,0
309.49454,309.72708,73,51,0
309.72708,309.96518,71,49,0
309.96518,310.19955,69,51,0
310.19955,310.43393,68,48,0
310.43393,310.91013,69,51,0
311.20773,311.26727,71,68,0
311.26727,311.32678,76,71,0
311.32678,311.38632,80,74,0
311.38632,312.79257,83,77,0
312.79257,312.90796,83,73,0
312.90796,313.02335,81,72,0
313.02335,313.13873,80,71,0
313.13873,313.24255,78,70,0
313.25412,313.3695,78,72,0
313.3695,313.48486,76,71,0
313.48486,313.60025,75,69,0
313.60025,313.71564,73,68,0
313.71564,313.83282,71,70,0
313.83282,313.95,69,67,0
313.95,314.06906,68,67,0
314.06906,314.1881,69,67,0
314.1881,314.30438,68,67,0
314.30438,314.4207,71,69,0
314.4207,314.53696,76,70,0
314.53696,314.65323,80,72,0
314.65323,315.5693,83,73,0
315.5693,315.6847,83,73,0
315.6847,315.80008,81,72,0
315.80008,315.91547,80,71,0
315.91547,316.02124,78,70,0
316.03085,316.14624,78,72,0
316.14624,316.26163,76,71,0
316.26163,316.377,75,69,0
316.377,316.4924,73,68,0
316.4924,316.6096,71,70,0
316.6096,316.72678,69,67,0
316.72678,316.84583,68,67,0
316.84583,316.96487,69,67,0
316.96487,317.08115,68,67,0
317.08115,317.19742,71,64,0
317.19742,317.31192,69,70,0
317.31192,317.42642,68,64,0
317.41974,317.53345,69,68,0
317.54007,317.6537,71,68,0
317.6537,317.76733,73,69,0
317.76733,317.88098,75,70,0
317.88098,317.99637,76,70,0
317.99637,318.11172,78,71,0
318.11172,318.2271,80,72,0
318.2271,318.34186,81,72,0
318.34186,318.4555,83,73,0
318.4555,318.56833,85,74,0
318.56833,318.68045,87,74,0
318.68045,318.79193,88,75,0
318.79193,318.90305,87,72,0
318.90305,319.01413,85,70,0
319.01413,319.12524,83,68,0
319.12524,319.23578,81,65,0
319.23578,319.3462,80,63,0
319.3462,319.4584,78,61,0
319.4584,319.57263,76,59,0
319.57263,319.68802,75,57,0
319.68802,319.9206,73,50,0
320.03687,320.15314,85,50,0
320.15314,320.5831,76,54,0
320.5831,320.6559,80,50,0
320.6559,321.19647,78,53,0
320.6559,321.19647,75,53,0
321.19647,321.737,76,51,0
322.75052,322.8776,64,61,0
322.81808,323.23474,76,74,0
323.23474,323.35287,66,61,0
323.29428,323.70444,78,70,0
323.70444,323.82208,67,61,0
323.76303,324.24515,79,70,0
324.24515,324.7176,71,56,0
324.7176,325.1827,70,52,0
325.53806,325.659,70,51,0
325.659,326.13144,73,57,0
326.13144,326.593,71,56,0
326.94733,327.06543,71,63,0
327.06543,327.53067,74,66,0
327.53067,328.0031,73,60,0
328.35742,328.47556,73,68,0
328.47556,328.70282,76,72,0
328.70282,328.94092,74,68,0
328.94092,329.1717,77,72,0
329.1717,329.4079,76,67,0
329.4079,329.64044,79,70,0
329.64044,329.87668,77,66,0
329.87668,330.34366,69,56,0
330.34366,330.80344,68,52,0
331.15878,331.27975,68,51,0
331.27975,331.7522,71,57,0
331.7522,332.21375,69,56,0
332.56805,332.6862,69,63,0
332.6862,333.1586,72,66,0
333.1586,333.62372,71,60,0
333.97806,334.09616,71,68,0
334.09616,334.32693,74,72,0
334.32693,334.56503,72,68,0
334.56503,334.7958,71,72,0
334.7958,335.032,69,67,0
335.032,335.20645,81,73,0
335.2646,335.44174,81,70,0
335.5008,335.73157,83,78,0
335.73157,335.9678,81,78,0
335.9678,336.204,79,77,0
336.204,336.44025,77,75,0
336.44025,336.67645,76,79,0
336.67645,336.93286,75,75,0
336.93286,337.87036,84,81,0
337.87036,338.3582,75,55,0
338.3582,339.0613,76,55,0
339.0613,339.18225,78,57,0
339.18225,339.27298,76,46,0
339.30322,339.42133,76,55,0
339.42133,339.53946,74,53,0
339.53946,339.6614,73,52,0
339.6614,339.79184,71,51,0
339.79184,339.85822,61,64,0
339.85822,339.9246,64,64,0
339.9246,340.8538,69,76,0
340.8538,341.33,64,70,0
341.33,341.5779,73,72,0
341.5779,341.69418,74,74,0
341.69418,341.81046,71,70,0
341.81046,342.05048,69,70,0
342.77048,343.00763,73,50,0
343.00763,343.12762,74,52,0
343.12762,343.24762,71,46,0
343.24762,343.73972,69,49,0
343.73972,343.97595,85,57,0
344.22183,344.69427,75,50,0
344.69427,345.40295,76,52,0
345.40295,345.61948,77,51,0
345.63916,345.86646,80,57,0
345.86646,346.10266,78,56,0
346.10266,346.32993,76,54,0
346.32993,346.56616,74,53,0
346.56616,346.79517,73,52,0
346.79517,347.04108,71,51,0
347.04108,347.27728,69,51,0
347.27728,347.5063,68,46,0
347.5063,347.73355,76,53,0
347.73355,347.96432,74,51,0
348.43677,348.673,71,57,0
348.673,348.90555,69,53,0
348.90555,349.1328,78,57,0
349.1328,349.3654,76,56,0
349.83417,350.06854,71,63,0
350.06854,350.31244,69,59,0
350.31244,350.54144,81,62,0
350.54144,350.77582,79,59,0
351.24457,351.47714,79,55,0
351.47714,351.71335,78,52,0
351.71335,351.9496,76,51,0
351.9496,352.1858,74,50,0
352.1858,352.422,73,49,0
352.422,352.6679,71,47,0
352.6679,352.79086,76,49,0
352.79086,352.82962,78,45,0
352.82962,352.86838,76,45,0
352.86838,352.90714,74,45,0
352.90714,353.0234,76,51,0
353.0234,353.16104,78,52,0
353.16104,353.64883,69,51,0
354.01324,354.07275,69,66,0
354.07275,354.1323,73,67,0
353.64883,354.1323,68,48,0
354.1323,354.60104,76,67,0
354.60104,355.5349,76,69,0
355.5349,355.6503,76,65,0
355.6503,355.7657,74,64,0
355.7657,355.8793,73,63,0
355.8793,355.98444,71,63,0
355.99295,356.10745,71,64,0
356.10745,356.22195,69,63,0
356.22195,356.33646,68,62,0
356.33646,356.45096,66,61,0
356.45096,356.56815,64,63,0
356.56815,356.68533,62,60,0
356.68533,356.80438,61,60,0
356.80438,356.92343,62,60,0
356.92343,357.0397,61,60,0
357.0397,357.156,64,62,0
357.156,357.27228,69,63,0
357.27228,357.38855,73,64,0
357.38855,358.07385,76,65,0
358.07385,358.29407,88,65,0
358.30463,358.41827,88,70,0
358.41827,358.5319,86,70,0
358.5319,358.64642,85,69,0
358.64642,358.75232,83,69,0
358.76093,358.87543,83,68,0
358.87543,358.98993,81,67,0
358.98993,359.10443,80,67,0
359.10443,359.21893,78,66,0
359.21893,359.33612,76,66,0
359.33612,359.4533,74,65,0
359.4533,359.57236,73,65,0
359.57236,359.6914,74,64,0
359.6914,359.80768,73,63,0
359.80768,359.92395,76,64,0
359.92395,360.04022,74,60,0
360.04022,360.15652,73,61,0
360.15652,360.27014,74,62,0
360.27014,360.3838,76,63,0
360.3838,360.49744,78,64,0
360.49744,360.61105,80,66,0
360.61105,360.72644,81,67,0
360.72644,360.84183,83,68,0
360.84183,360.9572,85,70,0
360.9572,361.07196,86,71,0
361.07196,361.18558,88,72,0
361.18558,361.2984,86,71,0
361.2984,361.41055,85,69,0
361.41055,361.522,83,68,0
361.522,361.63312,81,66,0
361.63312,361.74423,80,65,0
361.74423,361.85535,78,63,0
361.85535,361.96585,76,62,0
361.96585,362.07626,74,60,0
362.07626,362.18848,73,59,0
362.18848,362.30273,71,57,0
362.30273,362.4391,69,56,0
362.4391,362.52313,78,59,0
362.52313,362.60718,80,55,0
362.60718,362.6912,78,59,0
362.6912,362.7542,77,59,0
362.7542,362.81726,78,55,0
362.81726,362.88028,80,55,0
362.88028,362.9433,81,55,0
362.9433,363.4074,69,59,0
363.4074,363.48022,73,50,0
363.48022,364.10522,68,53,0
363.48022,364.10522,71,53,0
364.10522,364.7949,69,51,0
0.13274325,1.061946,57,70,0
0.13274325,1.061946,45,59,0
1.061946,1.538136,52,63,0
1.061946,1.538136,40,53,0
1.538136,2.018628,61,57,0
1.538136,2.018628,49,48,0
2.018628,2.258628,57,53,0
2.018628,2.258628,45,45,0
3.950729,4.1869497,66,40,0
3.950729,4.1869497,57,40,0
4.432851,4.905292,69,40,0
4.432851,4.905292,59,40,0
4.905292,5.377733,68,40,0
4.905292,5.377733,64,40,0
7.260767,7.4969873,52,39,0
7.4969873,7.733208,62,33,0
7.733208,7.9604807,59,33,0
7.9604807,8.19125,62,28,0
8.19125,8.42747,59,31,0
8.42747,8.663691,62,29,0
8.663691,8.899911,52,40,0
8.899911,9.136131,61,34,0
9.136131,9.363404,57,34,0
9.363404,9.595962,61,30,0
9.595962,9.82852,57,32,0
9.82852,10.06474,61,28,0
10.06474,10.299115,50,42,0
10.299115,10.526388,59,36,0
10.526388,10.755396,54,36,0
10.755396,10.989771,59,34,0
10.989771,11.224146,54,36,0
11.224146,11.458521,59,34,0
11.458521,11.927271,50,39,0
12.852414,13.321164,62,39,0
12.852414,13.321164,52,33,0
13.321164,13.797355,61,39,0
13.321164,13.797355,57,33,0
14.273544,14.507919,52,60,0
14.507919,14.742294,56,52,0
14.742294,14.976669,59,56,0
14.976669,15.211044,56,52,0
15.211044,15.445419,54,56,0
15.445419,15.679794,52,51,0
15.679794,15.910563,51,60,0
15.910563,16.141333,52,50,0
16.141333,16.3721,54,50,0
16.3721,16.60287,47,51,0
16.60287,16.837246,49,54,0
16.837246,17.07534,51,51,0
17.07534,17.307898,52,60,0
17.307898,17.540457,56,52,0
17.540457,17.767729,59,52,0
17.767729,17.995,56,52,0
17.995,18.22577,54,55,0
18.22577,18.45654,52,52,0
18.45654,18.68731,51,60,0
18.68731,18.918077,52,50,0
18.918077,19.148846,54,50,0
19.148846,19.379616,47,51,0
19.379616,19.61399,49,54,0
19.61399,19.852085,51,51,0
19.852085,20.31365,52,60,0
22.575254,23.040369,66,45,0
22.575254,23.040369,57,38,0
23.040369,23.543142,68,39,0
23.543142,24.083685,69,39,0
23.040369,24.083685,59,33,0
24.083685,24.624226,68,42,0
24.083685,24.624226,64,35,0
24.594946,25.135487,52,35,0
25.83805,26.767254,57,70,0
25.83805,26.767254,45,59,0
26.767254,27.243443,52,63,0
26.767254,27.243443,40,53,0
27.243443,27.723934,61,57,0
27.243443,27.723934,49,48,0
27.723934,27.963936,57,53,0
27.723934,27.963936,45,45,0
29.656036,29.892256,66,40,0
29.656036,29.892256,57,40,0
30.138159,30.6106,69,40,0
30.138159,30.6106,59,40,0
30.6106,31.08304,68,40,0
30.6106,31.08304,64,40,0
32.971527,33.207745,52,39,0
33.207745,33.443966,62,33,0
33.443966,33.671238,59,33,0
33.671238,33.902008,62,28,0
33.902008,34.13823,59,31,0
34.13823,34.37445,62,29,0
34.37445,34.61067,52,40,0
34.61067,34.84689,61,34,0
34.84689,35.07416,57,34,0
35.07416,35.30672,61,30,0
35.30672,35.53928,57,32,0
35.53928,35.775497,61,28,0
35.775497,36.009872,50,42,0
36.009872,36.23888,59,36,0
36.23888,36.467888,54,36,0
36.467888,36.702263,59,34,0
36.702263,36.936638,54,36,0
36.936638,37.171013,59,34,0
37.171013,37.639763,50,39,0
38.56317,39.03192,62,39,0
38.56317,39.03192,52,33,0
39.03192,39.508114,61,39,0
39.03192,39.508114,57,33,0
39.984303,40.218678,52,60,0
40.218678,40.453053,56,52,0
40.453053,40.687428,59,56,0
40.687428,40.921803,56,52,0
40.921803,41.156178,54,56,0
41.156178,41.390553,52,51,0
41.390553,41.621323,51,60,0
41.621323,41.852093,52,50,0
41.852093,42.08286,54,50,0
42.08286,42.31363,47,51,0
42.31363,42.548004,49,54,0
42.548004,42.7861,51,51,0
42.7861,43.018658,52,60,0
43.018658,43.251217,56,52,0
43.251217,43.47849,59,52,0
43.47849,43.70576,56,52,0
43.70576,43.936527,54,55,0
43.936527,44.167297,52,52,0
44.167297,44.398067,51,60,0
44.398067,44.628838,52,50,0
44.628838,44.859604,54,50,0
44.859604,45.090374,47,51,0
45.090374,45.32475,49,54,0
45.32475,45.562843,51,51,0
45.562843,46.02796,52,60,0
48.289562,48.754677,66,45,0
48.289562,48.754677,57,38,0
48.754677,49.257454,68,39,0
49.257454,49.797993,69,39,0
48.754677,49.797993,59,33,0
49.797993,50.338535,68,42,0
49.797993,50.338535,64,35,0
50.309254,50.849796,52,35,0
52.852028,53.090122,54,47,0
53.090122,53.328217,61,39,0
53.328217,53.560776,66,39,0
53.560776,53.79333,64,39,0
53.79333,54.027706,62,39,0
54.027706,54.26964,61,39,0
54.26964,54.505863,54,47,0
54.505863,54.742085,62,42,0
54.742085,54.972855,66,42,0
54.972855,55.20362,62,42,0
55.20362,55.439842,61,42,0
55.439842,55.676064,59,42,0
55.676064,55.906834,54,56,0
55.906834,56.14121,58,47,0
56.14121,56.375584,64,47,0
56.375584,56.60996,61,47,0
56.60996,56.844334,59,47,0
56.844334,57.07871,58,47,0
57.07871,57.547573,59,57,0
58.479843,58.716064,52,47,0
58.716064,58.952282,59,39,0
58.952282,59.18484,64,39,0
59.18484,59.4174,62,39,0
59.4174,59.651775,60,39,0
59.651775,59.89371,59,39,0
59.89371,60.129932,52,47,0
60.129932,60.36615,60,42,0
60.36615,60.59692,64,42,0
60.59692,60.82769,60,42,0
60.82769,61.06391,59,42,0
61.06391,61.30013,57,42,0
61.30013,61.53269,52,56,0
61.53269,61.76891,56,47,0
61.76891,62.00513,62,47,0
62.00513,62.24135,59,47,0
62.24135,62.47757,57,47,0
62.47757,62.71379,56,47,0
62.71379,63.649643,57,57,0
63.649643,64.11842,55,69,0
63.649643,64.11842,43,69,0
64.11842,65.05598,53,72,0
64.11842,65.05598,41,72,0
65.5422,65.77657,57,61,0
65.77657,66.01095,56,42,0
66.01095,66.24532,57,46,0
66.24532,66.4797,60,41,0
66.4797,66.7236,59,46,0
66.7236,66.96751,57,41,0
65.5422,66.96751,53,61,0
66.96751,67.43626,56,57,0
66.96751,67.43626,52,57,0
68.53865,69.46785,57,70,0
68.53865,69.46785,45,59,0
69.46785,69.94404,52,63,0
69.46785,69.94404,40,53,0
69.94404,70.42453,61,57,0
69.94404,70.42453,49,48,0
70.42453,70.66453,57,53,0
70.42453,70.66453,45,45,0
72.356636,72.59285,66,40,0
72.356636,72.59285,57,40,0
72.83875,73.311195,69,40,0
72.83875,73.311195,59,40,0
73.311195,73.78364,68,40,0
73.311195,73.78364,64,40,0
75.666756,75.90298,52,39,0
75.90298,76.13374,62,33,0
76.13374,76.361015,59,33,0
76.361015,76.59179,62,28,0
76.59179,76.828,59,31,0
76.828,77.064224,62,29,0
77.064224,77.300446,52,40,0
77.300446,77.533005,61,34,0
77.533005,77.76028,57,34,0
77.76028,77.992836,61,30,0
77.992836,78.225395,57,32,0
78.225395,78.46162,61,28,0
78.46162,78.69599,52,42,0
78.69599,78.93989,61,36,0
78.93989,79.1689,57,36,0
79.1689,79.403275,61,34,0
79.403275,79.63765,57,36,0
79.63765,79.872025,61,34,0
79.872025,80.340805,62,34,0
79.872025,80.340805,57,28,0
79.872025,80.340805,50,28,0
81.295364,81.65087,49,40,0
81.65087,81.78849,50,33,0
81.78849,82.27629,61,38,0
82.27629,82.75974,59,32,0
81.78849,82.75974,52,38,0
82.75974,82.988754,57,54,0
82.988754,83.22313,61,46,0
83.22313,83.457504,64,50,0
83.457504,83.69188,61,46,0
83.69188,83.92443,59,50,0
83.92443,84.15699,57,45,0
84.15699,84.387764,56,54,0
84.387764,84.61853,57,45,0
84.61853,84.8493,59,45,0
84.8493,85.08007,52,45,0
85.08007,85.314445,54,48,0
85.314445,85.552536,56,45,0
85.552536,85.785095,57,54,0
85.785095,86.017654,61,46,0
86.017654,86.24493,64,46,0
86.24493,86.4722,61,46,0
86.4722,86.702965,59,49,0
86.702965,86.93374,57,46,0
86.93374,87.164505,56,52,0
87.164505,87.39527,57,44,0
87.39527,87.626045,59,51,0
87.626045,87.85681,52,44,0
87.85681,88.09119,54,50,0
88.09119,88.329285,56,46,0
88.329285,88.79261,57,51,0
88.79261,89.247154,57,48,0
88.79261,89.247154,54,40,0
89.247154,89.70805,57,52,0
89.247154,89.70805,54,44,0
89.247154,89.70805,50,44,0
89.70805,90.158104,57,56,0
89.70805,90.158104,52,47,0
89.70805,90.158104,49,47,0
91.075195,91.57106,59,45,0
91.075195,91.57106,50,38,0
91.57106,92.098045,61,39,0
92.098045,92.60652,62,39,0
91.57106,92.60652,52,33,0
92.60652,93.15698,61,42,0
92.60652,93.15698,57,35,0
93.15698,93.70744,45,35,0
95.68372,95.919945,54,47,0
95.919945,96.156166,61,39,0
96.156166,96.38872,66,39,0
96.38872,96.62128,64,39,0
96.62128,96.85565,62,39,0
96.85565,97.09759,61,39,0
97.09759,97.33381,54,47,0
97.33381,97.57003,62,42,0
97.57003,97.8008,66,42,0
97.8008,98.03157,62,42,0
98.03157,98.26779,61,42,0
98.26779,98.504005,59,42,0
98.504005,98.73302,54,56,0
98.73302,98.96924,58,47,0
98.96924,99.20546,64,47,0
99.20546,99.44168,61,47,0
99.44168,99.6779,59,47,0
99.6779,99.914116,58,47,0
99.914116,100.379486,59,57,0
101.315254,101.54602,52,47,0
101.54602,101.78224,59,39,0
101.78224,102.01125,64,39,0
102.01125,102.24202,62,39,0
102.24202,102.476395,60,39,0
102.476395,102.71833,59,39,0
102.71833,102.95455,52,47,0
102.95455,103.19077,60,42,0
103.19077,103.42154,64,42,0
103.42154,103.65231,60,42,0
103.65231,103.88853,59,42,0
103.88853,104.12475,57,42,0
104.12475,104.36097,52,56,0
104.36097,104.59719,56,47,0
104.59719,104.82975,62,47,0
104.82975,105.06231,59,47,0
105.06231,105.29853,57,47,0
105.29853,105.53475,56,47,0
105.53475,106.470604,57,57,0
106.470604,106.939384,55,69,0
106.470604,106.939384,43,69,0
106.939384,107.878815,53,72,0
106.939384,107.878815,41,72,0
108.371445,108.60582,57,61,0
108.60582,108.840195,56,42,0
108.840195,109.07457,57,46,0
109.07457,109.308945,60,41,0
109.308945,109.55284,59,46,0
109.55284,109.796745,57,41,0
108.371445,109.796745,53,61,0
109.796745,110.265495,56,57,0
109.796745,110.265495,52,57,0
111.36316,112.29236,57,70,0
111.36316,112.29236,45,59,0
112.29236,112.76855,52,63,0
112.29236,112.76855,40,53,0
112.76855,113.24904,61,57,0
112.76855,113.24904,49,48,0
113.24904,113.489044,57,53,0
113.24904,113.489044,45,45,0
115.1783,115.41452,66,40,0
115.1783,115.41452,57,40,0
115.66042,116.132866,69,40,0
115.66042,116.132866,59,40,0
116.132866,116.60531,68,40,0
116.132866,116.60531,64,40,0
118.49209,118.72831,52,39,0
118.72831,118.95731,62,33,0
118.95731,119.184586,59,33,0
119.184586,119.41535,62,28,0
119.41535,119.65157,59,31,0
119.65157,119.887794,62,29,0
119.887794,120.124016,52,40,0
120.124016,120.356575,61,34,0
120.356575,120.58385,57,34,0
120.58385,120.81641,61,30,0
120.81641,121.048965,57,32,0
121.048965,121.28519,61,28,0
121.28519,121.51956,52,42,0
121.51956,121.76346,61,36,0
121.76346,121.99247,57,36,0
121.99247,122.226845,61,34,0
122.226845,122.46122,57,36,0
122.46122,122.695595,61,34,0
122.695595,123.164375,62,34,0
122.695595,123.164375,57,28,0
122.695595,123.164375,50,28,0
124.118935,124.47444,49,40,0
124.47444,124.61206,50,33,0
124.61206,125.09986,61,38,0
125.09986,125.58331,59,32,0
124.61206,125.58331,52,38,0
125.58331,125.81769,57,54,0
125.81769,126.05206,61,46,0
126.05206,126.28462,64,50,0
126.28462,126.51718,61,46,0
126.51718,126.75156,59,50,0
126.75156,126.98593,57,45,0
126.98593,127.2167,56,54,0
127.2167,127.44397,57,45,0
127.44397,127.67298,59,45,0
127.67298,127.901985,52,45,0
127.901985,128.13637,54,48,0
128.13637,128.37445,56,45,0
128.37445,128.60701,57,54,0
128.60701,128.83957,61,46,0
128.83957,129.06685,64,46,0
129.06685,129.29411,61,46,0
129.29411,129.52489,59,49,0
129.52489,129.75566,57,46,0
129.75566,129.98293,56,52,0
129.98293,130.21193,57,44,0
130.21193,130.44095,59,51,0
130.44095,130.66995,52,44,0
130.66995,130.90433,54,50,0
130.90433,131.14243,56,46,0
131.14243,131.60753,57,51,0
131.60753,132.06209,57,48,0
131.60753,132.06209,54,40,0
132.06209,132.52298,57,52,0
132.06209,132.52298,54,44,0
132.06209,132.52298,50,44,0
132.52298,132.97304,57,56,0
132.52298,132.97304,52,47,0
132.52298,132.97304,49,47,0
133.89012,134.39432,59,45,0
133.89012,134.39432,50,38,0
134.39432,134.93126,61,39,0
134.93126,135.4718,62,39,0
134.39432,135.4718,52,33,0
135.4718,136.01233,61,42,0
135.4718,136.01233,57,35,0
136.01233,136.55287,45,35,0
138.71504,140.80411,50,44,0
138.71504,140.80411,38,37,0
142.81947,143.33473,57,41,0
142.81947,143.33473,45,34,0
143.33473,143.85648,50,41,0
143.33473,143.85648,38,34,0
143.85648,144.1044,78,55,0
144.1044,144.3544,76,46,0
144.3544,144.60864,78,54,0
144.60864,144.85864,79,47,0
144.85864,145.36081,81,53,0
145.36081,145.87592,83,53,0
145.87592,146.39801,85,53,0
146.39801,146.94365,86,54,0
147.97717,148.49445,52,41,0
148.49445,149.00731,49,35,0
149.00731,149.5115,45,35,0
149.5115,150.03146,52,40,0
150.03146,150.2794,86,60,0
150.2794,150.53581,85,58,0
150.53581,150.79005,83,56,0
150.79005,150.98917,81,56,0
150.98917,151.05554,87,54,0
151.05554,151.48436,88,65,0
151.48436,151.54533,87,54,0
151.54533,151.97269,88,65,0
151.97269,152.03317,87,54,0
152.03317,152.46458,88,66,0
152.46458,152.52708,87,54,0
152.52708,153.04024,88,65,0
153.04024,153.29665,45,51,0
153.29665,153.54459,44,47,0
153.54459,153.78848,45,51,0
153.78848,154.03848,47,47,0
154.03848,154.53662,49,51,0
154.53662,155.03694,52,46,0
155.03694,155.53946,40,49,0
155.53946,156.05055,45,49,0
156.05055,156.30696,85,58,0
156.30696,156.5549,83,53,0
156.5549,156.80699,85,59,0
156.80699,157.05699,86,52,0
157.05699,157.55513,88,58,0
157.55513,158.05545,85,62,0
158.05545,158.55797,83,59,0
158.55797,159.06015,81,56,0
159.06015,159.55405,59,43,0
159.06015,159.55405,50,36,0
159.55405,160.05418,52,32,0
159.55405,160.05418,62,38,0
160.05418,160.55005,57,36,0
160.05418,160.55005,61,43,0
160.55005,161.05646,59,38,0
160.55005,161.05646,50,32,0
161.05646,161.57603,52,36,0
161.05646,161.57603,62,43,0
161.57603,162.0719,61,40,0
161.57603,162.0719,57,34,0
163.13937,165.22844,50,44,0
163.13937,165.22844,38,37,0
167.2438,167.75906,57,41,0
167.2438,167.75906,45,34,0
167.75906,168.2808,50,41,0
167.75906,168.2808,38,34,0
168.2808,168.52873,78,55,0
168.52873,168.77873,76,46,0
168.77873,169.03297,78,54,0
169.03297,169.28297,79,47,0
169.28297,169.78514,81,53,0
169.78514,170.30026,83,53,0
170.30026,170.82236,85,53,0
170.82236,171.36798,86,54,0
172.4015,172.91878,52,41,0
172.91878,173.43164,49,35,0
173.43164,173.93584,45,35,0
173.93584,174.4558,52,40,0
174.4558,174.70374,86,60,0
174.70374,174.96014,85,58,0
174.96014,175.21439,83,56,0
175.21439,175.4135,81,56,0
175.4135,175.47987,87,54,0
175.47987,175.90869,88,65,0
175.90869,175.96968,87,54,0
175.96968,176.39703,88,65,0
176.39703,176.4575,87,54,0
176.4575,176.88892,88,66,0
176.88892,176.95142,87,54,0
176.95142,177.46457,88,65,0
177.46457,177.72098,45,51,0
177.72098,177.96892,44,47,0
177.96892,178.21281,45,51,0
178.21281,178.46281,47,47,0
178.46281,178.96095,49,51,0
178.96095,179.46127,52,46,0
179.46127,179.96379,40,49,0
179.96379,180.47488,45,49,0
180.47488,180.7313,85,58,0
180.7313,180.97923,83,53,0
180.97923,181.23134,85,59,0
181.23134,181.48134,86,52,0
181.48134,181.97948,88,58,0
181.97948,182.47978,85,62,0
182.47978,182.98232,83,59,0
182.98232,183.48448,81,56,0
183.48448,183.97838,59,43,0
183.48448,183.97838,50,36,0
183.97838,184.47852,52,32,0
183.97838,184.47852,62,38,0
184.47852,184.9744,57,36,0
184.47852,184.9744,61,43,0
184.9744,185.4808,59,38,0
184.9744,185.4808,50,32,0
185.4808,186.00037,52,36,0
185.4808,186.00037,62,43,0
186.00037,186.49623,61,40,0
186.00037,186.49623,57,34,0
187.52412,189.61319,47,44,0
187.52412,189.61319,35,37,0
189.61319,189.86319,84,54,0
189.86319,190.10909,83,50,0
190.10909,190.35703,81,54,0
190.35703,190.61565,79,50,0
190.61565,191.11357,78,54,0
191.11357,191.36151,81,54,0
191.36151,191.6074,79,50,0
191.6074,191.85332,78,55,0
191.85332,192.11194,76,50,0
192.11194,192.63861,75,54,0
192.63861,192.85635,59,59,0
192.63861,192.85635,47,49,0
192.88055,193.10007,57,55,0
192.88055,193.10007,45,46,0
193.12445,193.3476,55,59,0
193.12445,193.3476,43,49,0
193.37239,193.60315,54,55,0
193.37239,193.60315,42,46,0
193.6288,194.10667,52,60,0
193.6288,194.10667,40,50,0
194.15977,194.6213,52,55,0
194.15977,194.6213,40,46,0
194.67259,195.13412,59,60,0
194.67259,195.13412,47,50,0
195.18541,195.6317,52,55,0
195.18541,195.6317,40,46,0
195.68127,195.90079,59,59,0
195.68127,195.90079,47,49,0
195.92519,196.14832,57,55,0
195.92519,196.14832,45,46,0
196.17311,196.40001,55,59,0
196.17311,196.40001,43,49,0
196.42522,196.66,54,55,0
196.42522,196.66,42,46,0
196.68608,197.16396,52,60,0
196.68608,197.16396,40,50,0
197.21706,197.6786,52,55,0
197.21706,197.6786,40,46,0
197.72987,198.19142,59,60,0
197.72987,198.19142,47,50,0
198.2427,198.72058,52,55,0
198.2427,198.72058,40,46,0
200.05374,200.30797,64,39,0
200.30797,200.56221,67,42,0
200.56221,200.81645,64,39,0
199.79512,200.81645,60,42,0
200.81645,201.0707,65,42,0
201.0707,201.3271,62,37,0
200.81645,201.3271,59,35,0
201.58133,201.83557,64,37,0
201.83557,202.08557,67,42,0
202.08557,202.33557,64,37,0
201.3271,202.33557,60,42,0
202.33557,202.58557,65,42,0
202.58557,202.8442,62,38,0
202.33557,202.8442,59,35,0
203.0963,203.3422,64,42,0
203.3422,203.5922,67,46,0
203.5922,203.8422,64,42,0
202.8442,203.8422,60,46,0
203.8422,204.09644,65,46,0
204.09644,204.35068,62,40,0
203.8422,204.35068,59,38,0
204.60277,204.84868,64,40,0
204.84868,205.0966,67,46,0
205.0966,205.34454,64,40,0
204.35068,205.34454,60,46,0
205.34454,205.59454,60,46,0
205.59454,205.8624,64,41,0
206.1124,206.3583,60,45,0
206.3583,206.6083,64,51,0
206.6083,206.8583,67,43,0
205.8624,206.8583,58,53,0
206.8583,207.1083,64,52,0
207.1083,207.36917,60,46,0
207.61917,207.86307,61,51,0
207.86307,208.109,64,58,0
208.109,208.35692,67,50,0
207.36917,208.35692,57,58,0
208.35692,208.60486,64,58,0
208.60486,208.86572,61,51,0
208.86572,209.8494,62,57,0
208.86572,209.8494,57,48,0
209.8494,210.09734,64,49,0
210.09734,210.34528,65,43,0
209.8494,210.34528,56,41,0
210.34528,210.84328,64,52,0
210.34528,210.84328,57,44,0
211.8229,213.30246,68,51,0
211.8229,213.30246,58,43,0
211.8229,213.30246,62,43,0
213.30246,213.79846,69,52,0
213.30246,213.79846,57,44,0
213.30246,213.79846,61,44,0
214.28833,214.7842,65,44,0
214.28833,214.7842,62,37,0
214.28833,214.7842,57,37,0
214.7842,215.2802,64,52,0
214.7842,215.2802,57,44,0
214.7842,215.2802,61,44,0
215.76804,216.2599,65,44,0
215.76804,216.2599,62,37,0
215.76804,216.2599,57,37,0
216.2599,216.76228,64,52,0
216.2599,216.76228,61,44,0
216.2599,216.76228,57,44,0
217.8498,219.93884,50,44,0
217.8498,219.93884,38,37,0
220.94102,221.44106,47,53,0
221.44106,221.95421,45,49,0
221.95421,222.46947,43,47,0
222.46947,222.98056,50,53,0
222.98056,223.2285,86,55,0
223.2285,223.4785,85,51,0
223.4785,223.73274,83,55,0
223.73274,223.98274,81,51,0
223.98274,224.48277,79,55,0
224.48277,224.99593,81,58,0
224.99593,225.51118,83,59,0
225.51118,226.02228,81,59,0
227.02446,227.52449,45,53,0
227.52449,228.03764,42,49,0
228.03764,228.5529,38,47,0
228.5529,229.064,45,53,0
229.064,229.31194,83,55,0
229.31194,229.56194,81,51,0
229.56194,229.81616,79,55,0
229.81616,230.00366,78,51,0
230.00366,230.06616,80,48,0
230.06616,230.43813,81,63,0
230.50114,230.56416,80,48,0
230.56416,230.93613,81,63,0
230.99915,231.06218,80,48,0
231.06218,231.43616,81,64,0
231.49918,231.56221,80,48,0
231.56221,232.0733,81,64,0
232.0733,232.32971,59,46,0
232.32971,232.57765,58,41,0
232.57765,232.82155,59,47,0
232.82155,233.07155,55,41,0
233.07155,233.56969,54,48,0
233.56969,234.07,52,44,0
234.07,234.57253,45,44,0
234.57253,235.08362,50,49,0
235.08362,235.34003,86,58,0
235.34003,235.58797,85,53,0
235.58797,235.84006,86,59,0
235.84006,236.09006,83,52,0
236.09006,236.5882,81,58,0
236.5882,237.08852,79,62,0
237.08852,237.59103,76,59,0
237.59103,238.0932,74,56,0
238.0932,238.58711,43,43,0
238.58711,239.08725,45,32,0
238.58711,239.08725,55,38,0
239.08725,239.58311,50,36,0
239.08725,239.58311,54,43,0
239.58311,240.08952,43,38,0
240.08952,240.6091,45,36,0
240.08952,240.6091,55,43,0
240.6091,241.10497,54,40,0
240.6091,241.10497,50,34,0
242.18285,244.2719,47,44,0
242.18285,244.2719,35,37,0
244.2719,244.5219,84,54,0
244.5219,244.7678,83,50,0
244.7678,245.01573,81,54,0
245.01573,245.27435,79,50,0
245.27435,245.7723,78,54,0
245.7723,246.02023,81,54,0
246.02023,246.26613,79,50,0
246.26613,246.51202,78,55,0
246.51202,246.77065,76,50,0
246.77065,247.29733,75,54,0
247.29733,247.51508,59,59,0
247.29733,247.51508,47,49,0
247.53926,247.75877,57,55,0
247.53926,247.75877,45,46,0
247.78317,248.00632,55,59,0
247.78317,248.00632,43,49,0
248.0311,248.26187,54,55,0
248.0311,248.26187,42,46,0
248.28752,248.7654,52,60,0
248.28752,248.7654,40,50,0
248.81848,249.28003,52,55,0
248.81848,249.28003,40,46,0
249.33131,249.79285,59,60,0
249.33131,249.79285,47,50,0
249.84413,250.2904,52,55,0
249.84413,250.2904,40,46,0
250.34,250.55951,59,59,0
250.34,250.55951,47,49,0
250.5839,250.80704,57,55,0
250.5839,250.80704,45,46,0
250.83183,251.05873,55,59,0
250.83183,251.05873,43,49,0
251.08394,251.31871,54,55,0
251.08394,251.31871,42,46,0
251.3448,251.82268,52,60,0
251.3448,251.82268,40,50,0
251.87578,252.33731,52,55,0
251.87578,252.33731,40,46,0
252.3886,252.85014,59,60,0
252.3886,252.85014,47,50,0
252.90141,253.3793,52,55,0
252.90141,253.3793,40,46,0
254.71246,254.96669,64,39,0
254.96669,255.22093,67,42,0
255.22093,255.47517,64,39,0
254.45384,255.47517,60,42,0
255.47517,255.7294,65,42,0
255.7294,255.98581,62,37,0
255.47517,255.98581,59,35,0
256.24005,256.4943,64,37,0
256.4943,256.7443,67,42,0
256.7443,256.9943,64,37,0
255.98581,256.9943,60,42,0
256.9943,257.2443,65,42,0
257.2443,257.5029,62,38,0
256.9943,257.5029,59,35,0
257.755,258.00092,64,42,0
258.00092,258.25092,67,46,0
258.25092,258.50092,64,42,0
257.5029,258.50092,60,46,0
258.50092,258.75516,65,46,0
258.75516,259.0094,62,40,0
258.50092,259.0094,59,38,0
259.2615,259.5074,64,40,0
259.5074,259.75534,67,46,0
259.75534,260.00327,64,40,0
259.0094,260.00327,60,46,0
260.00327,260.25327,60,46,0
260.25327,260.52112,64,41,0
260.77112,261.01703,60,45,0
261.01703,261.26703,64,51,0
261.26703,261.51703,67,43,0
260.52112,261.51703,58,53,0
261.51703,261.76703,64,52,0
261.76703,262.0279,60,46,0
262.2779,262.5218,61,51,0
262.5218,262.7677,64,58,0
262.7677,263.01566,67,50,0
262.0279,263.01566,57,58,0
263.01566,263.26358,64,58,0
263.26358,263.52444,61,51,0
263.52444,264.50812,62,57,0
263.52444,264.50812,57,48,0
264.50812,264.75604,64,49,0
264.75604,265.004,65,43,0
264.50812,265.004,56,41,0
265.004,265.50198,64,52,0
265.004,265.50198,57,44,0
266.48163,267.96118,68,51,0
266.48163,267.96118,58,43,0
266.48163,267.96118,62,43,0
267.96118,268.45718,69,52,0
267.96118,268.45718,57,44,0
267.96118,268.45718,61,44,0
268.94705,269.4429,65,44,0
268.94705,269.4429,62,37,0
268.94705,269.4429,57,37,0
269.4429,269.9389,64,52,0
269.4429,269.9389,57,44,0
269.4429,269.9389,61,44,0
270.42676,270.9186,65,44,0
270.42676,270.9186,62,37,0
270.42676,270.9186,57,37,0
270.9186,271.42102,64,52,0
270.9186,271.42102,61,44,0
270.9186,271.42102,57,44,0
272.4939,274.58298,50,44,0
272.4939,274.58298,38,37,0
275.58514,276.08517,47,53,0
276.08517,276.59833,45,49,0
276.59833,277.1136,43,47,0
277.1136,277.6247,50,53,0
277.6247,277.87262,86,55,0
277.87262,278.12262,85,51,0
278.12262,278.37686,83,55,0
278.37686,278.62686,81,51,0
278.62686,279.1269,79,55,0
279.1269,279.64005,81,58,0
279.64005,280.1553,83,59,0
280.1553,280.6664,81,59,0
281.66858,282.1686,45,53,0
282.1686,282.68176,42,49,0
282.68176,283.19702,38,47,0
283.19702,283.70813,45,53,0
283.70813,283.95605,83,55,0
283.95605,284.20605,81,51,0
284.20605,284.4603,79,55,0
284.4603,284.6478,78,51,0
284.6478,284.7103,80,48,0
284.7103,285.08224,81,63,0
285.14526,285.20828,80,48,0
285.20828,285.58026,81,63,0
285.64328,285.7063,80,48,0
285.7063,286.0803,81,64,0
286.1433,286.20633,80,48,0
286.20633,286.71744,81,64,0
286.71744,286.97385,59,46,0
286.97385,287.22177,58,41,0
287.22177,287.46567,59,47,0
287.46567,287.71567,55,41,0
287.71567,288.2138,54,48,0
288.2138,288.7141,52,44,0
288.7141,289.21664,45,44,0
289.21664,289.72775,50,49,0
289.72775,289.98416,86,58,0
289.98416,290.2321,85,53,0
290.2321,290.4842,86,59,0
290.4842,290.7342,83,52,0
290.7342,291.23233,81,58,0
291.23233,291.73264,79,62,0
291.73264,292.23517,76,59,0
292.23517,292.73734,74,56,0
292.73734,293.23123,43,43,0
293.23123,293.73138,45,32,0
293.23123,293.73138,55,38,0
293.73138,294.22723,50,36,0
293.73138,294.22723,54,43,0
294.22723,294.73364,43,38,0
294.73364,295.25323,45,36,0
294.73364,295.25323,55,43,0
295.25323,295.87177,54,40,0
295.25323,295.87177,50,34,0
295.87177,296.18106,38,40,0
297.24164,298.17084,57,70,0
297.24164,298.17084,45,59,0
298.17084,298.64703,52,63,0
298.17084,298.64703,40,53,0
298.64703,299.12753,61,57,0
298.64703,299.12753,49,48,0
299.12753,299.36752,57,53,0
299.12753,299.36752,45,45,0
301.05963,301.29584,66,40,0
301.05963,301.29584,57,40,0
301.54175,302.0142,69,40,0
301.54175,302.0142,59,40,0
302.0142,302.48663,68,40,0
302.0142,302.48663,64,40,0
304.3699,304.60614,52,39,0
304.60614,304.84235,62,33,0
304.84235,305.0696,59,33,0
305.0696,305.30038,62,28,0
305.30038,305.53662,59,31,0
305.53662,305.77283,62,29,0
305.77283,306.00906,52,40,0
306.00906,306.24527,61,34,0
306.24527,306.47253,57,34,0
306.47253,306.7051,61,30,0
306.7051,306.93765,57,32,0
306.93765,307.1739,61,28,0
307.1739,307.40826,50,42,0
307.40826,307.63553,59,36,0
307.63553,307.86453,54,36,0
307.86453,308.0989,59,34,0
308.0989,308.33328,54,36,0
308.33328,308.56766,59,34,0
308.56766,309.0364,50,39,0
309.96518,310.43393,62,39,0
309.96518,310.43393,52,33,0
310.43393,310.91013,61,39,0
310.43393,310.91013,57,33,0
311.38632,311.6207,52,60,0
311.6207,311.85507,56,52,0
311.85507,312.08945,59,56,0
312.08945,312.32382,56,52,0
312.32382,312.5582,54,56,0
312.5582,312.79257,52,51,0
312.79257,313.02335,51,60,0
313.02335,313.25412,52,50,0
313.25412,313.48486,54,50,0
313.48486,313.71564,47,51,0
313.71564,313.95,49,54,0
313.95,314.1881,51,51,0
314.1881,314.4207,52,60,0
314.4207,314.65323,56,52,0
314.65323,314.8805,59,52,0
314.8805,315.1078,56,52,0
315.1078,315.33853,54,55,0
315.33853,315.5693,52,52,0
315.5693,315.80008,51,60,0
315.80008,316.03085,52,50,0
316.03085,316.26163,54,50,0
316.26163,316.4924,47,51,0
316.4924,316.72678,49,54,0
316.72678,316.96487,51,51,0
316.96487,317.42642,52,60,0
319.68802,320.15314,66,45,0
319.68802,320.15314,57,38,0
320.15314,320.6559,68,39,0
320.6559,321.19647,69,39,0
320.15314,321.19647,59,33,0
321.19647,321.737,68,42,0
321.19647,321.737,64,35,0
321.70773,322.24826,52,35,0
324.24515,324.48135,54,47,0
324.48135,324.7176,61,39,0
324.7176,324.95013,66,39,0
324.95013,325.1827,64,39,0
325.1827,325.41708,62,39,0
325.41708,325.659,61,39,0
325.659,325.89523,54,47,0
325.89523,326.13144,62,42,0
326.13144,326.3622,66,42,0
326.3622,326.593,62,42,0
326.593,326.82922,61,42,0
326.82922,327.06543,59,42,0
327.06543,327.29443,54,56,0
327.29443,327.53067,58,47,0
327.53067,327.76688,64,47,0
327.76688,328.0031,61,47,0
328.0031,328.23932,59,47,0
328.23932,328.47556,58,47,0
328.47556,328.94092,59,57,0
329.87668,330.10745,52,47,0
330.10745,330.34366,59,39,0
330.34366,330.57266,64,39,0
330.57266,330.80344,62,39,0
330.80344,331.0378,60,39,0
331.0378,331.27975,59,39,0
331.27975,331.51596,52,47,0
331.51596,331.7522,60,42,0
331.7522,331.98297,64,42,0
331.98297,332.21375,60,42,0
332.21375,332.44995,59,42,0
332.44995,332.6862,57,42,0
332.6862,332.9224,52,56,0
332.9224,333.1586,56,47,0
333.1586,333.39117,62,47,0
333.39117,333.62372,59,47,0
333.62372,333.85995,57,47,0
333.85995,334.09616,56,47,0
334.09616,335.032,57,57,0
335.032,335.5008,55,69,0
335.032,335.5008,43,69,0
335.5008,336.44025,53,72,0
335.5008,336.44025,41,72,0
336.93286,337.16724,57,61,0
337.16724,337.4016,56,42,0
337.4016,337.636,57,46,0
337.636,337.87036,60,41,0
337.87036,338.11426,59,46,0
338.11426,338.3582,57,41,0
336.93286,338.3582,53,61,0
338.3582,338.82693,56,57,0
338.3582,338.82693,52,57,0
339.9246,340.8538,57,70,0
339.9246,340.8538,45,59,0
340.8538,341.33,52,63,0
340.8538,341.33,40,53,0
341.33,341.81046,61,57,0
341.33,341.81046,49,48,0
341.81046,342.05048,57,53,0
341.81046,342.05048,45,45,0
343.73972,343.97595,66,40,0
343.73972,343.97595,57,40,0
344.22183,344.69427,69,40,0
344.22183,344.69427,59,40,0
344.69427,345.16672,68,40,0
344.69427,345.16672,64,40,0
347.04108,347.27728,52,39,0
347.27728,347.5063,62,33,0
347.5063,347.73355,59,33,0
347.73355,347.96432,62,28,0
347.96432,348.20056,59,31,0
348.20056,348.43677,62,29,0
348.43677,348.673,52,40,0
348.673,348.90555,61,34,0
348.90555,349.1328,57,34,0
349.1328,349.3654,61,30,0
349.3654,349.59793,57,32,0
349.59793,349.83417,61,28,0
349.83417,350.06854,52,42,0
350.06854,350.31244,61,36,0
350.31244,350.54144,57,36,0
350.54144,350.77582,61,34,0
350.77582,351.0102,57,36,0
351.0102,351.24457,61,34,0
351.24457,351.71335,62,34,0
351.24457,351.71335,57,28,0
351.24457,351.71335,50,28,0
352.6679,353.0234,49,40,0
353.0234,353.16104,50,33,0
353.16104,353.64883,61,38,0
353.64883,354.1323,59,32,0
353.16104,354.1323,52,38,0
354.1323,354.36667,57,54,0
354.36667,354.60104,61,46,0
354.60104,354.8336,64,50,0
354.8336,355.06616,61,46,0
355.06616,355.30054,59,50,0
355.30054,355.5349,57,45,0
355.5349,355.7657,56,54,0
355.7657,355.99295,57,45,0
355.99295,356.22195,59,45,0
356.22195,356.45096,52,45,0
356.45096,356.68533,54,48,0
356.68533,356.92343,56,45,0
356.92343,357.156,57,54,0
357.156,357.38855,61,46,0
357.38855,357.6158,64,46,0
357.6158,357.8431,61,46,0
357.8431,358.07385,59,49,0
358.07385,358.30463,57,46,0
358.30463,358.5319,56,52,0
358.5319,358.76093,57,44,0
358.76093,358.98993,59,51,0
358.98993,359.21893,52,44,0
359.21893,359.4533,54,50,0
359.4533,359.6914,56,46,0
359.6914,360.15652,57,51,0
360.15652,360.61105,57,48,0
360.15652,360.61105,54,40,0
360.61105,361.07196,57,52,0
360.61105,361.07196,54,44,0
360.61105,361.07196,50,44,0
361.07196,361.522,57,56,0
361.07196,361.522,52,47,0
361.07196,361.522,49,47,0
362.4391,362.9433,59,45,0
362.4391,362.9433,50,38,0
362.9433,363.48022,61,39,0
363.48022,364.10522,62,39,0
362.9433,364.10522,52,33,0
364.10522,364.7949,61,42,0
364.10522,364.7949,57,35,0
364.7949,365.63995,45,35,0
