start_time,end_time,note_value,velocity,instrument_program_number
0.0,0.423042,66,60,0
0.0,0.423042,74,73,0
0.0,0.423042,69,60,0
0.846084,0.9576988,79,66,0
0.947552,1.0591668,78,55,0
1.04902,1.1606348,76,54,0
1.150488,1.2621028,78,54,0
1.251956,1.3635708,81,65,0
1.353424,1.4659352,79,55,0
1.454892,1.5763675,78,55,0
1.5653243,1.6858351,79,55,0
1.6757565,2.0789015,81,62,0
2.4875374,2.5379307,81,50,0
2.68911,2.7395031,83,45,0
2.8906825,2.9410756,85,45,0
3.092255,3.1444,86,45,0
3.3008344,3.7039795,81,54,0
3.7039795,4.1071243,78,45,0
4.1071243,4.2079105,81,50,0
4.2079105,4.308697,79,44,0
4.308697,4.4094834,78,44,0
4.4094834,4.5102696,79,44,0
4.5102696,4.5606627,81,49,0
4.711842,4.765865,79,46,0
4.9279337,5.136513,77,54,0
5.136513,5.33674,78,45,0
5.751019,5.8626337,79,66,0
5.852487,5.964102,78,55,0
5.953955,6.06557,76,54,0
6.055423,6.167038,78,54,0
6.156891,6.2685056,81,65,0
6.258359,6.37087,79,55,0
6.359827,6.4813023,78,55,0
6.470259,6.5907702,79,55,0
6.5806913,6.9838367,81,62,0
7.3924723,7.442866,81,50,0
7.594045,7.6444383,83,45,0
7.7956176,7.8460107,85,45,0
7.99719,8.049335,86,45,0
8.20577,8.608914,81,54,0
8.608914,9.012059,78,45,0
9.012059,9.112845,81,50,0
9.112845,9.213632,79,44,0
9.213632,9.314418,78,44,0
9.314418,9.415204,79,44,0
9.415204,9.515991,81,50,0
9.515991,9.616777,79,44,0
9.616777,9.721066,78,44,0
9.721066,9.8253565,76,44,0
9.8253565,9.9296465,74,50,0
10.234163,10.334276,69,42,0
10.636407,10.71453,78,47,0
10.7074795,10.784156,79,43,0
10.777251,10.852532,78,48,0
10.845768,10.919691,79,43,0
10.912183,10.985173,78,48,0
10.978543,11.051072,79,44,0
11.044528,11.11665,78,48,0
11.110063,11.182606,79,44,0
11.175975,11.248944,78,44,0
11.243104,11.353229,76,48,0
11.343218,11.453342,74,44,0
11.443331,11.543445,73,50,0
11.843785,11.943898,69,42,0
12.244239,12.345025,76,50,0
13.050947,13.155237,76,50,0
13.459754,13.559868,69,42,0
13.861998,13.940122,79,47,0
13.933071,14.0097475,81,43,0
14.002843,14.078123,79,48,0
14.071359,14.145282,81,43,0
14.1377735,14.210764,79,48,0
14.204134,14.276663,81,44,0
14.27012,14.34224,79,48,0
14.335654,14.408196,81,44,0
14.4015665,14.474535,79,44,0
14.468695,14.57882,78,48,0
14.568809,14.678933,76,44,0
14.668921,14.769035,74,50,0
15.069376,15.16949,69,42,0
15.46983,15.570616,78,50,0
16.276539,16.380474,78,54,0
16.380474,16.495115,74,47,0
16.484758,16.598684,76,48,0
16.588327,16.701645,78,49,0
16.691359,16.80408,79,50,0
16.793863,16.906162,81,51,0
16.896015,17.007631,83,52,0
16.997484,17.108297,85,53,0
17.098417,17.207092,86,55,0
17.197212,17.30645,85,56,0
17.296505,17.406303,83,56,0
17.396292,17.506657,81,56,0
17.496578,17.607517,79,56,0
17.59737,17.708986,78,55,0
17.69884,17.811047,76,50,0
17.80083,17.913631,74,49,0
17.903345,18.01649,76,51,0
18.006205,18.11935,78,48,0
18.109064,18.22196,76,45,0
18.211742,18.324118,75,43,0
18.313902,18.426277,76,45,0
18.416061,18.527843,78,47,0
18.517696,18.62931,79,49,0
18.619164,18.730536,81,51,0
18.720457,18.831322,83,53,0
18.821243,18.932108,81,54,0
18.92203,19.033308,79,53,0
19.02316,19.134777,78,51,0
19.12463,19.236319,76,49,0
19.226103,19.338478,74,48,0
19.328262,19.440638,73,46,0
19.430422,19.543015,71,44,0
19.532936,19.6438,73,50,0
19.633722,19.744587,74,42,0
19.734509,19.846258,73,42,0
19.835295,19.954998,69,40,0
19.94492,20.045706,74,47,0
20.356533,20.467398,79,55,0
20.45732,20.568184,81,46,0
20.558105,20.66897,79,46,0
20.658892,20.769756,76,46,0
20.759678,20.870543,79,56,0
20.860464,20.971329,78,47,0
20.96125,21.07308,76,48,0
21.062037,21.18248,74,48,0
21.172468,21.282593,73,57,0
21.272583,21.382708,74,44,0
21.372696,21.48282,73,44,0
21.472809,21.582933,69,44,0
21.572922,21.673037,74,57,0
21.98467,22.095535,79,65,0
22.085457,22.196321,81,54,0
22.186243,22.297108,79,54,0
22.28703,22.397894,76,56,0
22.387815,22.49868,79,69,0
22.488602,22.599817,78,56,0
22.589388,22.704107,76,56,0
22.693678,22.80798,74,59,0
22.797968,22.89808,73,79,0
22.89808,22.998194,76,63,0
22.998194,23.098309,73,63,0
23.098309,23.205582,69,63,0
23.205582,23.305695,78,74,0
23.305695,23.405807,81,64,0
23.405807,23.51308,78,64,0
23.51308,23.620354,74,64,0
23.620354,23.721823,73,77,0
23.721823,23.82329,76,64,0
23.82329,23.924759,73,64,0
23.924759,24.03127,69,64,0
24.03127,24.132738,78,77,0
24.132738,24.234205,81,64,0
24.234205,24.341478,78,64,0
24.341478,24.448751,74,64,0
24.448751,24.525896,76,84,0
24.448751,24.525896,73,69,0
24.65447,24.731615,76,60,0
24.65447,24.731615,73,60,0
24.65447,24.731615,81,74,0
24.86019,24.937334,81,74,0
24.86019,24.937334,73,60,0
24.86019,24.937334,76,60,0
25.065908,25.143053,81,74,0
25.065908,25.143053,73,60,0
25.065908,25.143053,76,60,0
25.271627,25.774538,76,60,0
25.271627,25.774538,81,74,0
25.271627,25.774538,73,60,0
25.774538,25.826683,74,41,0
25.826683,25.930254,73,42,0
25.930254,26.033823,71,40,0
26.033823,26.137394,73,40,0
26.137394,26.25293,74,40,0
26.25293,26.465952,75,45,0
26.465952,26.673092,76,42,0
26.89075,27.09647,76,40,0
27.09647,27.302189,81,46,0
27.302189,27.507908,80,42,0
27.507908,27.713627,78,44,0
27.713627,27.931286,76,42,0
27.931286,28.141327,73,48,0
28.141327,28.344263,74,42,0
28.561922,28.767641,74,40,0
28.767641,28.97336,76,45,0
28.97336,29.17908,74,42,0
29.17908,29.384798,73,45,0
29.384798,29.604048,71,42,0
29.604048,29.811188,68,48,0
29.811188,30.014124,69,44,0
30.21706,30.430082,71,45,0
30.430082,30.637222,72,50,0
30.637222,30.838795,73,46,0
30.989973,31.040367,76,42,0
31.040367,31.256458,74,47,0
31.256458,31.891022,73,51,0
31.891022,31.996782,74,44,0
31.996782,32.102543,73,42,0
32.102543,32.314064,71,47,0
32.314064,32.420444,73,42,0
32.52683,32.63632,74,44,0
32.745808,32.85789,75,47,0
32.96997,33.182995,75,43,0
33.182995,33.390137,76,42,0
33.607796,33.659225,78,40,0
33.659225,33.710655,76,37,0
33.710655,33.762085,75,37,0
33.762085,33.813515,76,37,0
33.813515,33.916374,81,46,0
34.019234,34.122093,80,42,0
34.224953,34.327812,78,44,0
34.43067,34.5395,76,42,0
34.64833,34.85837,73,48,0
34.85837,35.061306,74,42,0
35.278965,35.330395,76,40,0
35.330395,35.381824,74,37,0
35.381824,35.433254,73,37,0
35.433254,35.484684,74,37,0
35.484684,35.587543,76,45,0
35.690403,35.793262,74,42,0
35.896122,35.99898,73,45,0
36.10184,36.211468,71,42,0
36.32109,36.649967,73,45,0
36.649967,36.75959,76,42,0
36.75959,37.088467,66,45,0
37.088467,37.19809,71,41,0
37.19809,37.636593,69,45,0
37.636593,37.691402,68,43,0
37.691402,37.746216,69,39,0
37.746216,37.80103,68,43,0
37.80103,37.855843,69,40,0
37.855843,37.928925,68,43,0
37.928925,38.002007,66,40,0
38.002007,38.075092,68,40,0
38.075092,38.185524,69,46,0
38.185524,38.295956,76,44,0
38.295956,38.398815,75,47,0
38.398815,38.501675,76,43,0
38.501675,38.604534,78,50,0
38.604534,38.707394,76,47,0
38.707394,38.81702,75,51,0
38.81702,38.926643,76,51,0
38.926643,39.031662,74,59,0
39.031662,39.136684,76,50,0
39.136684,39.239544,74,52,0
39.239544,39.342403,76,50,0
39.342403,39.445263,74,62,0
39.445263,39.548122,76,49,0
39.548122,39.65695,74,52,0
39.65695,39.76578,76,49,0
39.76578,39.876213,73,50,0
39.876213,39.986645,76,44,0
39.986645,40.088806,75,47,0
40.088806,40.190964,76,43,0
40.190964,40.29312,78,50,0
40.29312,40.395283,76,47,0
40.395283,40.504906,75,51,0
40.504906,40.614532,76,51,0
40.614532,40.72029,74,59,0
40.72029,40.826054,76,50,0
40.826054,40.928913,74,52,0
40.928913,41.031773,76,50,0
41.031773,41.134632,74,62,0
41.134632,41.23749,76,49,0
41.23749,41.34632,74,52,0
41.34632,41.45515,76,49,0
41.45515,41.881733,69,41,0
42.09007,42.19721,81,57,0
42.30435,42.409374,83,63,0
42.514393,42.617252,81,58,0
42.72011,42.82297,80,63,0
42.92583,43.03466,76,58,0
43.14349,43.570072,81,60,0
43.77579,43.885418,45,57,0
43.995045,44.102314,47,63,0
44.209587,44.31233,45,58,0
44.41507,44.517807,44,60,0
44.62055,44.729378,40,58,0
44.838207,45.273525,45,60,0
45.273525,45.696568,76,50,0
45.696568,46.12566,74,47,0
46.12566,46.57399,73,46,0
46.57399,46.89813,78,50,0
46.89813,46.937862,80,45,0
46.937862,46.9776,78,45,0
46.978592,47.01823,76,45,0
47.017338,47.12461,78,50,0
47.23188,47.343964,80,47,0
47.456047,47.66907,83,50,0
47.66907,47.88209,81,45,0
47.88209,48.095116,80,47,0
48.095116,48.326187,78,45,0
48.326187,48.553753,76,50,0
48.78132,49.20436,76,60,0
49.20436,49.633453,74,60,0
49.633453,50.081783,73,59,0
50.081783,50.405922,71,68,0
50.405922,50.52513,78,53,0
50.52513,50.6324,76,60,0
50.6324,50.739674,74,58,0
50.739674,50.851757,73,58,0
50.851757,50.96384,71,58,0
50.96384,51.389885,69,63,0
51.389885,51.44405,71,55,0
51.44405,51.500515,73,49,0
51.500515,51.556145,71,56,0
51.556145,51.61096,73,50,0
51.61096,51.685013,71,56,0
51.685013,51.761448,69,48,0
51.761448,51.837883,71,48,0
51.837883,52.05243,69,66,0
52.298203,52.721245,76,50,0
52.721245,53.150337,74,47,0
53.150337,53.598667,73,46,0
53.598667,53.922806,78,50,0
53.922806,53.96254,80,45,0
53.96254,54.002277,78,45,0
54.00327,54.042908,76,45,0
54.04201,54.149284,78,50,0
54.256557,54.36864,80,47,0
54.480724,54.69375,83,50,0
54.69375,54.90677,81,45,0
54.90677,55.119793,80,47,0
55.119793,55.350864,78,45,0
55.350864,55.57843,76,50,0
55.805996,56.22904,76,60,0
56.22904,56.65813,74,60,0
56.65813,57.10646,73,59,0
57.10646,57.4306,71,68,0
57.4306,57.549805,78,53,0
57.549805,57.657078,76,60,0
57.657078,57.76435,74,58,0
57.76435,57.876434,73,58,0
57.876434,57.988518,71,58,0
57.988518,58.414562,69,63,0
58.414562,58.468727,71,55,0
58.468727,58.525192,73,49,0
58.525192,58.58082,71,56,0
58.58082,58.635635,73,50,0
58.635635,58.70969,71,56,0
58.70969,58.786125,69,48,0
58.786125,58.86256,71,48,0
58.86256,58.969833,69,66,0
58.969833,59.077106,64,59,0
59.077106,59.18438,69,66,0
59.18438,59.291653,73,58,0
59.291653,59.398926,76,66,0
59.398926,59.5062,73,60,0
59.5062,59.61912,74,66,0
59.61912,59.732048,71,59,0
59.732048,59.83932,69,66,0
59.83932,59.946594,64,59,0
59.946594,60.053867,69,66,0
60.053867,60.16114,73,58,0
60.16114,60.268414,76,66,0
60.268414,60.38134,73,60,0
60.38134,60.494267,74,66,0
60.494267,60.607193,71,59,0
60.607193,60.84561,69,75,0
61.084026,61.33438,74,64,0
61.084026,61.33438,71,64,0
61.084026,61.33438,80,75,0
61.584736,61.83509,69,64,0
61.584736,61.83509,73,64,0
61.584736,61.83509,81,75,0
62.586155,62.80702,74,47,0
62.586155,62.80702,66,39,0
62.80702,62.92529,73,43,0
62.80702,62.92529,64,36,0
63.043556,63.26941,64,39,0
63.043556,63.26941,73,47,0
63.26941,63.39153,71,42,0
63.26941,63.39153,62,35,0
63.51365,63.74472,62,39,0
63.51365,63.74472,71,47,0
63.74472,63.87422,69,41,0
63.74472,63.87422,61,34,0
64.00372,64.25201,69,47,0
64.00372,64.25201,61,39,0
64.25201,64.39509,59,34,0
64.25201,64.39509,68,41,0
64.53818,65.71059,68,54,0
64.53818,65.71059,59,37,0
64.53818,65.71059,62,45,0
65.71059,66.28294,69,42,0
65.71059,66.28294,61,35,0
66.8553,67.27834,74,73,0
66.8553,67.27834,69,60,0
66.8553,67.27834,66,60,0
67.701385,67.8144,79,66,0
67.80412,67.91714,78,55,0
67.90686,68.019875,76,54,0
68.009605,68.122475,78,54,0
68.11234,68.22383,81,65,0
68.21369,68.32609,79,55,0
68.31504,68.436516,78,55,0
68.425476,68.54599,79,55,0
68.53591,68.93906,81,62,0
69.34769,69.39808,81,50,0
69.54926,69.599655,83,45,0
69.75083,69.80123,85,45,0
69.95241,70.004555,86,45,0
70.16099,70.56413,81,54,0
70.56413,70.96728,78,45,0
70.96728,71.06806,81,50,0
71.06806,71.168846,79,44,0
71.168846,71.26964,78,44,0
71.26964,71.37042,79,44,0
71.37042,71.420815,81,49,0
71.57199,71.626015,79,46,0
71.788086,71.996666,77,54,0
71.996666,72.19689,78,45,0
72.63221,72.74383,79,66,0
72.73368,72.84529,78,55,0
72.835144,72.94676,76,54,0
72.936615,73.04823,78,54,0
73.038086,73.1497,81,65,0
73.13955,73.25206,79,55,0
73.24102,73.362495,78,55,0
73.35145,73.47196,79,55,0
73.46188,73.86503,81,62,0
74.27367,74.32406,81,50,0
74.475235,74.52563,83,45,0
74.67681,74.7272,85,45,0
74.87838,74.93053,86,45,0
75.08696,75.490105,81,54,0
75.490105,75.89325,78,45,0
75.89325,75.99404,81,50,0
75.99404,76.094826,79,44,0
76.094826,76.19561,78,44,0
76.19561,76.296394,79,44,0
76.296394,76.39719,81,50,0
76.39719,76.49797,79,44,0
76.49797,76.60226,78,44,0
76.60226,76.70655,76,44,0
76.70655,76.81084,74,50,0
77.11536,77.21547,69,42,0
77.5176,77.595726,78,47,0
77.58867,77.665344,79,43,0
77.65844,77.73373,78,48,0
77.72696,77.80088,79,43,0
77.79337,77.86636,78,48,0
77.85973,77.93227,79,44,0
77.92572,77.99784,78,48,0
77.99126,78.0638,79,44,0
78.05717,78.130135,78,44,0
78.1243,78.23442,76,48,0
78.22441,78.33453,74,44,0
78.324524,78.42464,73,50,0
78.724976,78.82509,69,42,0
79.12543,79.22622,76,50,0
79.93214,80.03643,76,50,0
80.34094,80.44106,69,42,0
80.74319,80.82131,79,47,0
80.81426,80.89094,81,43,0
80.88403,80.95931,79,48,0
80.95255,81.026474,81,43,0
81.01897,81.09196,79,48,0
81.08533,81.15785,81,44,0
81.15131,81.223434,79,48,0
81.21684,81.28939,81,44,0
81.28276,81.35573,79,44,0
81.349884,81.460014,78,48,0
81.45,81.56013,76,44,0
81.55012,81.65023,74,50,0
81.95057,82.05068,69,42,0
82.35102,82.451805,78,50,0
83.15773,83.261665,78,54,0
83.261665,83.376305,74,47,0
83.36595,83.47987,76,48,0
83.46952,83.58284,78,49,0
83.57255,83.68527,79,50,0
83.67506,83.78735,81,51,0
83.77721,83.888824,83,52,0
83.87868,83.98949,85,53,0
83.97961,84.08829,86,55,0
84.07841,84.187645,85,56,0
84.1777,84.2875,83,56,0
84.27748,84.38785,81,56,0
84.37777,84.487434,79,56,0
84.47743,84.58872,78,55,0
84.578514,84.691414,76,50,0
84.68107,84.794785,74,49,0
84.78449,84.897644,76,51,0
84.88735,85.0005,78,48,0
84.99021,85.10311,76,45,0
85.092896,85.20527,75,43,0
85.19505,85.30743,76,45,0
85.29721,85.409,78,47,0
85.39885,85.51046,79,49,0
85.50031,85.61169,81,51,0
85.60161,85.71247,83,53,0
85.70239,85.813255,81,54,0
85.80318,85.91446,79,53,0
85.90431,86.01593,78,51,0
86.00578,86.11747,76,49,0
86.107254,86.21963,74,48,0
86.20941,86.321785,73,46,0
86.31157,86.424164,71,44,0
86.414085,86.52495,73,50,0
86.51487,86.62574,74,42,0
86.61566,86.72741,73,42,0
86.716446,86.83615,69,40,0
86.82607,86.92686,74,47,0
87.246895,87.35776,79,55,0
87.34768,87.45854,81,46,0
87.44846,87.55933,79,46,0
87.549255,87.66012,76,46,0
87.65004,87.7609,79,56,0
87.750824,87.86169,78,47,0
87.85161,87.96344,76,48,0
87.9524,88.07284,74,48,0
88.06283,88.17295,73,57,0
88.16294,88.27306,74,47,0
88.263054,88.373184,73,47,0
88.36317,88.4733,69,47,0
88.46328,88.5634,74,57,0
88.87934,88.990204,79,65,0
88.980125,89.09099,81,54,0
89.08091,89.19177,79,54,0
89.181694,89.292564,76,56,0
89.282486,89.39335,79,70,0
89.38327,89.494484,78,56,0
89.484055,89.59877,76,56,0
89.58835,89.702644,74,59,0
89.692635,89.79275,73,79,0
89.79275,89.89286,76,63,0
89.89286,89.99297,73,63,0
89.99297,90.10025,69,63,0
90.10025,90.20036,78,74,0
90.20036,90.300476,81,64,0
90.300476,90.407745,78,64,0
90.407745,90.51502,74,64,0
90.51502,90.616486,73,77,0
90.616486,90.71796,76,62,0
90.71796,90.81943,73,62,0
90.81943,90.925934,69,62,0
90.925934,91.027405,78,77,0
91.027405,91.128876,81,64,0
91.128876,91.236145,78,64,0
91.236145,91.34342,74,64,0
91.34342,91.42056,76,84,0
91.34342,91.42056,73,69,0
91.54914,91.62628,76,60,0
91.54914,91.62628,81,74,0
91.54914,91.62628,73,60,0
91.75486,91.832,76,60,0
91.75486,91.832,73,60,0
91.75486,91.832,81,74,0
91.96058,92.03772,81,74,0
91.96058,92.03772,73,60,0
91.96058,92.03772,76,60,0
92.1663,92.664375,76,60,0
92.1663,92.664375,73,60,0
92.1663,92.664375,81,74,0
92.664375,92.71616,74,41,0
92.71616,92.81973,73,42,0
92.81973,92.9233,71,40,0
92.9233,93.02687,73,40,0
93.02687,93.1424,74,40,0
93.1424,93.35543,75,45,0
93.35543,93.56257,76,42,0
93.78023,93.98595,76,40,0
93.98595,94.191666,81,46,0
94.191666,94.397385,80,42,0
94.397385,94.6031,78,44,0
94.6031,94.82076,76,42,0
94.82076,95.0308,73,48,0
95.0308,95.23374,74,42,0
95.4514,95.65712,74,40,0
95.65712,95.86284,76,45,0
95.86284,96.06856,74,42,0
96.06856,96.27428,73,45,0
96.27428,96.49352,71,42,0
96.49352,96.70066,68,48,0
96.70066,96.9036,69,44,0
97.10654,97.31956,71,45,0
97.31956,97.526695,72,50,0
97.526695,97.72827,73,46,0
97.87945,97.92984,76,42,0
97.92984,98.145935,74,47,0
98.145935,98.780495,73,51,0
98.780495,98.88626,74,44,0
98.88626,98.99202,73,42,0
98.99202,99.20354,71,47,0
99.20354,99.3093,73,42,0
99.41506,99.52455,74,44,0
99.63404,99.74854,75,47,0
99.863045,100.07607,75,45,0
100.07607,100.28321,76,42,0
100.50087,100.5523,78,40,0
100.5523,100.60373,76,37,0
100.60373,100.65516,75,37,0
100.65516,100.70659,76,37,0
100.70659,100.80945,81,46,0
100.91231,101.01517,80,42,0
101.11803,101.22089,78,44,0
101.323746,101.43257,76,42,0
101.541405,101.75144,73,48,0
101.75144,101.95438,74,42,0
102.17204,102.22347,76,40,0
102.22347,102.2749,74,37,0
102.2749,102.32633,73,37,0
102.32633,102.37776,74,37,0
102.37776,102.48062,76,45,0
102.58348,102.68634,74,42,0
102.7892,102.89206,73,45,0
102.99492,103.10454,71,42,0
103.214165,103.54304,73,45,0
103.54304,103.652664,76,42,0
103.652664,103.98154,66,45,0
103.98154,104.09116,71,41,0
104.09116,104.52966,69,45,0
104.52966,104.58448,68,43,0
104.58448,104.63929,69,39,0
104.63929,104.6941,68,43,0
104.6941,104.74892,69,40,0
104.74892,104.822,68,43,0
104.822,104.89508,66,40,0
104.89508,104.96816,68,40,0
104.96816,105.0786,69,46,0
105.0786,105.189026,76,44,0
105.189026,105.291885,75,47,0
105.291885,105.394745,76,43,0
105.394745,105.49964,78,50,0
105.49964,105.60454,76,47,0
105.60454,105.714165,75,51,0
105.714165,105.82379,76,51,0
105.82379,105.92881,74,59,0
105.92881,106.03383,76,50,0
106.03383,106.13669,74,52,0
106.13669,106.23955,76,50,0
106.23955,106.34241,74,62,0
106.34241,106.44527,76,49,0
106.44527,106.5541,74,52,0
106.5541,106.662926,76,49,0
106.662926,106.77336,73,50,0
106.77336,106.88379,76,44,0
106.88379,106.98595,75,47,0
106.98595,107.08811,76,43,0
107.08811,107.19027,78,50,0
107.19027,107.29243,76,47,0
107.29243,107.402054,75,51,0
107.402054,107.51167,76,51,0
107.51167,107.61744,74,59,0
107.61744,107.7232,76,50,0
107.7232,107.82606,74,52,0
107.82606,107.92892,76,50,0
107.92892,108.03178,74,62,0
108.03178,108.134636,76,49,0
108.134636,108.24346,74,52,0
108.24346,108.352295,76,49,0
108.352295,108.77888,69,41,0
108.98867,109.09658,81,57,0
109.2045,109.30952,83,63,0
109.414536,109.517395,81,58,0
109.620255,109.723114,80,63,0
109.82597,109.93481,76,58,0
110.04363,110.470215,81,60,0
110.68149,110.7894,45,57,0
110.89731,111.004585,47,63,0
111.111855,111.21603,45,58,0
111.32019,111.424355,44,60,0
111.52853,111.63735,40,58,0
111.746185,112.1815,45,60,0
112.1815,112.604546,76,50,0
112.604546,113.03364,74,47,0
113.03364,113.481964,73,46,0
113.481964,113.80611,78,50,0
113.80611,113.84584,80,45,0
113.84584,113.885574,78,45,0
113.88657,113.92621,76,45,0
113.925316,114.032585,78,50,0
114.13986,114.251945,80,47,0
114.36402,114.57705,83,50,0
114.57705,114.79007,81,45,0
114.79007,115.00309,80,47,0
115.00309,115.23416,78,45,0
115.23416,115.46173,76,50,0
115.6893,116.112335,76,60,0
116.112335,116.54143,74,60,0
116.54143,116.98976,73,59,0
116.98976,117.313896,71,68,0
117.313896,117.433105,78,53,0
117.433105,117.54038,76,60,0
117.54038,117.64765,74,58,0
117.64765,117.759735,73,58,0
117.759735,117.87182,71,58,0
117.87182,118.29787,69,63,0
118.29787,118.35203,71,55,0
118.35203,118.40849,73,49,0
118.40849,118.46412,71,56,0
118.46412,118.518936,73,50,0
118.518936,118.59299,71,56,0
118.59299,118.669426,69,48,0
118.669426,118.74586,71,48,0
118.74586,118.9604,69,66,0
119.20618,119.62922,76,50,0
119.62922,120.05831,74,47,0
120.05831,120.506645,73,46,0
120.506645,120.83078,78,50,0
120.83078,120.87052,80,45,0
120.87052,120.910255,78,45,0
120.91125,120.95088,76,45,0
120.94999,121.05727,78,50,0
121.164536,121.27662,80,47,0
121.3887,121.60172,83,50,0
121.60172,121.81475,81,45,0
121.81475,122.02777,80,47,0
122.02777,122.25884,78,45,0
122.25884,122.486404,76,50,0
122.713974,123.13702,76,60,0
123.13702,123.56611,74,60,0
123.56611,124.014435,73,59,0
124.014435,124.33858,71,68,0
124.33858,124.45779,78,53,0
124.45779,124.565056,76,60,0
124.565056,124.67233,74,58,0
124.67233,124.78441,73,58,0
124.78441,124.89649,71,58,0
124.89649,125.32254,69,63,0
125.32254,125.3767,71,55,0
125.3767,125.43317,73,49,0
125.43317,125.4888,71,56,0
125.4888,125.54361,73,50,0
125.54361,125.61767,71,56,0
125.61767,125.6941,69,48,0
125.6941,125.77054,71,48,0
125.77054,125.87781,69,66,0
125.87781,125.985085,64,59,0
125.985085,126.092354,69,66,0
126.092354,126.19963,73,58,0
126.19963,126.3069,76,66,0
126.3069,126.41418,73,60,0
126.41418,126.5271,74,66,0
126.5271,126.64003,71,59,0
126.64003,126.7473,69,66,0
126.7473,126.854576,64,59,0
126.854576,126.961845,69,66,0
126.961845,127.06912,73,58,0
127.06912,127.17639,76,66,0
127.17639,127.28932,73,60,0
127.28932,127.402245,74,66,0
127.402245,127.51517,71,59,0
127.51517,127.753586,69,75,0
127.992004,128.24236,74,64,0
127.992004,128.24236,80,75,0
127.992004,128.24236,71,64,0
128.4927,128.74307,81,75,0
128.4927,128.74307,69,64,0
128.4927,128.74307,73,64,0
129.49413,129.715,74,47,0
129.49413,129.715,66,39,0
129.715,129.83327,64,36,0
129.715,129.83327,73,43,0
129.95154,130.17738,64,39,0
129.95154,130.17738,73,47,0
130.17738,130.2995,62,35,0
130.17738,130.2995,71,42,0
130.42163,130.6527,71,47,0
130.42163,130.6527,62,39,0
130.6527,130.7822,69,41,0
130.6527,130.7822,61,34,0
130.9117,131.15997,69,47,0
130.9117,131.15997,61,39,0
131.15997,131.30307,68,41,0
131.15997,131.30307,59,34,0
131.44615,132.61856,62,45,0
131.44615,132.61856,68,54,0
131.44615,132.61856,59,37,0
132.61856,133.19092,69,42,0
132.61856,133.19092,61,35,0
133.76328,133.97186,81,47,0
133.97186,134.08148,79,43,0
134.1911,134.39969,79,47,0
134.39969,134.50931,78,42,0
134.61894,134.82751,78,51,0
134.82751,134.93713,76,45,0
135.04677,135.2568,76,55,0
135.2568,135.37059,75,50,0
135.48438,135.6873,72,62,0
135.6873,135.79694,71,55,0
135.90656,136.11087,71,61,0
136.11087,136.22131,69,53,0
136.33174,136.53746,69,58,0
136.53746,136.64871,67,49,0
136.75996,136.97,67,58,0
136.97,137.08043,66,44,0
135.48438,137.19087,75,62,0
137.19087,137.40852,75,47,0
137.40852,137.51,76,43,0
137.82755,138.0421,79,43,0
138.0421,138.26295,77,47,0
138.26295,138.36725,78,43,0
138.68608,138.90063,81,43,0
138.90063,139.75594,75,57,0
138.90063,139.75594,78,57,0
139.75594,140.18684,79,51,0
139.75594,140.18684,76,51,0
140.61958,140.82115,79,47,0
140.82115,140.93,78,43,0
141.03882,141.24313,78,47,0
141.24313,141.35196,76,42,0
141.4608,141.66512,76,51,0
141.66512,141.77473,74,45,0
141.88437,142.09294,74,55,0
142.09294,142.20587,73,50,0
142.3188,142.52594,70,68,0
142.52594,142.63637,69,60,0
142.74599,142.95457,69,67,0
142.95457,143.0642,67,58,0
143.17383,143.3824,67,63,0
143.3824,143.49202,66,53,0
143.60165,143.81169,66,63,0
143.81169,143.92377,64,48,0
142.3188,144.03586,73,62,0
144.03586,144.25351,73,47,0
144.25351,144.35498,74,43,0
144.67255,144.88708,78,43,0
144.88708,145.10796,75,47,0
145.10796,145.21011,76,43,0
145.52682,145.74136,79,43,0
145.74136,146.58852,73,57,0
145.74136,146.58852,76,57,0
146.58852,147.01491,78,51,0
146.58852,147.01491,74,51,0
147.45251,147.55754,78,47,0
147.55754,147.66255,86,44,0
147.66255,147.77219,78,48,0
147.77219,147.8818,86,44,0
147.8818,147.98683,78,51,0
147.98683,148.09184,86,47,0
148.09184,148.20148,78,52,0
148.20148,148.3111,86,47,0
148.3111,148.4161,78,55,0
148.4161,148.52113,86,50,0
148.52113,148.63156,78,57,0
148.63156,148.742,86,51,0
148.742,148.84851,78,58,0
148.84851,148.95502,86,55,0
148.95502,149.0688,78,60,0
149.0688,149.18224,86,55,0
149.18224,149.29431,76,64,0
149.29431,149.4064,86,57,0
149.4064,149.5179,76,63,0
149.5179,149.62915,86,57,0
149.62915,149.73964,76,63,0
149.73964,149.84854,86,57,0
149.84854,149.95569,76,63,0
149.95569,150.06491,86,57,0
150.06491,150.17375,76,63,0
150.17375,150.28258,85,57,0
150.28258,150.3914,76,62,0
150.3914,150.50023,85,57,0
150.50023,150.60907,76,60,0
150.60907,150.7179,85,55,0
150.7179,150.82672,76,59,0
150.82672,150.93555,85,52,0
150.93555,151.03984,74,47,0
151.03984,151.14413,85,44,0
151.14413,151.25456,74,48,0
151.25456,151.36499,85,44,0
151.36499,151.47002,74,51,0
151.47002,151.57504,85,47,0
151.57504,151.68466,74,52,0
151.68466,151.79428,85,47,0
151.79428,151.8993,74,55,0
151.8993,152.00433,83,50,0
152.00433,152.11476,74,57,0
152.11476,152.22519,83,51,0
152.22519,152.33171,74,58,0
152.33171,152.43822,83,55,0
152.43822,152.552,74,60,0
152.552,152.66579,83,55,0
152.66579,152.77538,73,64,0
152.77538,152.88463,83,57,0
152.88463,152.99347,73,63,0
152.99347,153.10155,83,57,0
153.10155,153.20923,73,63,0
153.20923,153.31674,83,57,0
153.31674,153.42636,73,63,0
153.42636,153.53648,83,57,0
153.53648,153.64532,72,63,0
153.64532,153.75415,81,57,0
153.75415,153.86298,72,62,0
153.86298,153.97182,81,57,0
153.97182,154.08064,72,60,0
154.08064,154.18947,81,55,0
154.18947,154.2983,72,59,0
154.2983,154.40714,81,52,0
154.40714,154.61717,81,51,0
154.61717,154.7816,79,47,0
154.40714,154.83643,71,41,0
154.83643,155.04646,79,51,0
155.04646,155.22112,78,46,0
155.27933,155.4879,86,51,0
155.4879,155.65479,85,47,0
155.27933,155.7104,77,40,0
155.7104,155.92044,85,51,0
155.92044,156.08858,83,46,0
156.1446,156.35464,79,59,0
156.35464,156.5203,78,52,0
156.57552,156.78555,78,59,0
156.78555,156.95367,76,51,0
156.1446,157.00972,82,59,0
157.00972,157.21976,74,61,0
157.21976,157.38664,73,51,0
157.44226,157.6523,73,61,0
157.6523,157.81918,71,55,0
157.00972,157.8748,83,61,0
157.8748,158.0909,76,47,0
157.8748,158.0909,67,39,0
158.0909,158.20468,66,36,0
158.0909,158.20468,74,43,0
158.31847,158.53612,74,47,0
158.31847,158.53612,66,39,0
158.53612,158.6499,64,35,0
158.53612,158.6499,73,42,0
158.76369,158.98294,64,39,0
158.76369,158.98294,73,47,0
158.98294,159.1031,62,34,0
158.98294,159.1031,71,41,0
159.22327,159.44743,62,39,0
159.22327,159.44743,71,47,0
159.44743,159.5657,70,41,0
159.44743,159.5657,61,34,0
159.68398,160.73097,61,37,0
159.68398,160.73097,70,54,0
159.68398,160.73097,64,45,0
160.73097,161.23169,71,42,0
160.73097,161.23169,62,35,0
161.73239,162.73381,62,57,0
161.73239,162.73381,66,57,0
161.73239,162.73381,71,68,0
162.73381,163.23453,72,61,0
162.73381,163.23453,66,51,0
162.73381,163.23453,62,51,0
163.73523,164.4863,74,46,0
164.4863,164.75456,75,40,0
163.73523,164.75456,71,39,0
164.75456,165.29109,76,46,0
164.75456,165.29109,72,39,0
166.36415,166.78719,74,60,0
166.78719,167.21628,72,56,0
167.21628,167.66461,71,55,0
167.66461,167.98874,76,60,0
167.98874,168.02849,78,54,0
168.02849,168.06822,76,54,0
168.06921,168.10886,74,54,0
168.10796,168.21523,76,60,0
168.3225,168.43459,78,56,0
168.54666,168.75969,81,60,0
168.75969,168.8662,79,54,0
168.97272,169.18573,78,56,0
169.18573,169.30127,76,54,0
169.41681,169.64438,74,60,0
169.87193,170.29498,74,49,0
170.29498,170.72408,72,49,0
170.72408,171.17241,71,48,0
171.17241,171.49654,69,56,0
171.49654,171.61575,76,43,0
171.61575,171.72302,74,49,0
171.72302,171.83029,72,48,0
171.83029,171.94238,71,48,0
171.94238,172.05446,69,48,0
172.05446,172.4805,67,52,0
172.4805,172.53467,69,45,0
172.53467,172.59114,71,40,0
172.59114,172.64676,69,46,0
172.64676,172.70157,71,41,0
172.70157,172.77563,69,46,0
172.77563,172.85207,67,39,0
172.85207,172.9285,69,39,0
172.9285,173.14305,67,54,0
173.38882,173.81186,74,60,0
173.81186,174.24095,72,56,0
174.24095,174.68929,71,55,0
174.68929,175.01343,76,60,0
175.01343,175.05316,78,54,0
175.05316,175.0929,76,54,0
175.09389,175.13353,74,54,0
175.13263,175.2399,76,60,0
175.34718,175.45912,78,56,0
175.57106,175.78232,81,60,0
175.78232,175.8887,79,54,0
175.99509,176.20786,78,56,0
176.20786,176.3234,76,54,0
176.43893,176.66649,74,60,0
176.89406,177.31711,74,49,0
177.31711,177.7462,72,49,0
177.7462,178.19452,71,48,0
178.19452,178.51866,69,56,0
178.51866,178.63786,76,43,0
178.63786,178.74515,74,49,0
178.74515,178.85242,72,48,0
178.85242,178.9645,71,48,0
178.9645,179.07658,69,48,0
179.07658,179.50262,67,52,0
179.50262,179.5568,69,45,0
179.5568,179.61325,71,40,0
179.61325,179.66888,69,46,0
179.66888,179.7237,71,41,0
179.7237,179.79776,69,46,0
179.79776,179.87419,67,39,0
179.87419,179.95062,69,39,0
179.95062,180.05492,67,59,0
180.05492,180.15921,69,53,0
180.15921,180.26349,67,59,0
180.26349,180.36778,66,52,0
180.36778,180.47208,67,59,0
180.47208,180.57635,71,54,0
180.57635,180.68599,69,59,0
180.68599,180.79561,72,53,0
180.79561,180.8999,71,59,0
180.8999,181.0042,69,53,0
181.0042,181.10847,67,59,0
181.10847,181.21277,66,52,0
181.21277,181.31706,67,59,0
181.31706,181.42589,71,54,0
181.42589,181.53471,69,59,0
181.53471,181.64355,72,53,0
181.64355,181.74783,71,59,0
181.74783,181.85213,69,53,0
181.85213,181.95642,67,59,0
181.95642,182.06071,66,52,0
182.06071,182.165,67,59,0
182.165,182.26929,71,54,0
182.26929,182.37733,69,59,0
182.37733,182.48538,72,53,0
182.48538,182.5904,71,59,0
182.5904,182.69542,74,53,0
182.69542,182.80106,72,59,0
182.80106,182.9067,69,52,0
182.9067,183.01233,71,59,0
183.01233,183.12262,74,54,0
183.12262,183.23291,73,59,0
183.23291,183.3432,76,53,0
183.3432,183.4475,74,59,0
183.4475,183.55179,76,53,0
183.55179,183.65607,74,59,0
183.65607,183.76036,73,52,0
183.76036,183.86465,74,59,0
183.86465,183.96895,78,54,0
183.96895,184.07857,76,59,0
184.07857,184.18819,79,53,0
184.18819,184.29248,78,59,0
184.29248,184.39677,76,53,0
184.39677,184.50107,74,59,0
184.50107,184.60535,73,52,0
184.60535,184.70964,74,59,0
184.70964,184.81926,78,54,0
184.81926,184.9289,76,59,0
184.9289,185.03851,79,53,0
185.03851,185.14209,78,59,0
185.14209,185.24565,76,53,0
185.24565,185.34923,74,59,0
185.34923,185.45279,73,52,0
185.45279,185.55637,74,59,0
185.55637,185.65993,76,54,0
185.65993,185.76797,78,64,0
185.76797,185.87602,81,58,0
185.87602,185.9796,79,64,0
185.9796,186.08316,78,58,0
186.08316,186.18674,76,64,0
186.18674,186.2903,75,57,0
186.2903,186.39388,76,64,0
186.39388,186.50192,78,59,0
186.50192,186.60997,79,64,0
186.60997,186.71802,81,58,0
186.71802,186.8223,79,69,0
186.8223,186.92659,78,67,0
186.92659,187.03088,76,65,0
187.03088,187.13518,75,62,0
187.13518,187.23946,76,64,0
187.23946,187.34375,78,65,0
187.34375,187.45258,79,67,0
187.45258,187.56142,83,60,0
187.56142,187.66498,81,67,0
187.66498,187.76855,79,60,0
187.76855,187.87212,78,67,0
187.87212,187.9757,76,59,0
187.9757,188.07925,78,67,0
188.07925,188.1881,79,61,0
188.1881,188.29692,81,67,0
188.29692,188.40575,83,60,0
188.40575,188.5086,81,67,0
188.5086,188.61147,79,66,0
188.61147,188.71432,78,65,0
188.71432,188.81718,76,64,0
188.81718,188.92928,78,67,0
188.92928,189.04135,79,61,0
189.04135,189.15018,81,67,0
189.15018,189.259,84,60,0
189.259,189.36478,83,67,0
189.36478,189.47054,86,57,0
189.47054,189.572,81,62,0
189.572,189.67346,86,57,0
189.67346,189.77493,83,67,0
189.77493,189.8764,86,56,0
189.8764,189.98143,78,62,0
189.98143,190.08719,83,56,0
190.08719,190.19075,79,67,0
190.19075,190.29433,83,57,0
190.29433,190.39511,78,62,0
190.39511,190.4959,83,57,0
190.4959,190.59668,79,67,0
190.59668,190.69746,83,58,0
190.69746,190.80104,76,62,0
190.80104,190.9046,81,57,0
190.9046,191.00471,78,67,0
191.00471,191.10483,81,57,0
191.10483,191.20494,76,62,0
191.20494,191.30507,81,57,0
191.30507,191.40863,78,67,0
191.40863,191.5122,81,57,0
191.5122,191.61577,73,62,0
191.61577,191.71935,78,57,0
191.71935,191.81879,74,67,0
191.81879,191.91824,78,59,0
191.91824,192.02254,73,61,0
192.02254,192.12682,78,58,0
192.12682,192.22627,74,67,0
192.22627,192.32571,78,59,0
192.32571,192.43001,75,62,0
192.43001,192.53426,78,59,0
192.53426,192.63371,76,67,0
192.63371,192.73317,75,61,0
192.73317,192.83261,76,65,0
192.83261,192.93207,78,60,0
192.93207,193.03151,79,70,0
193.03151,193.13104,78,60,0
193.13104,193.23251,79,65,0
193.23251,193.33896,81,60,0
193.33896,193.45836,83,59,0
193.44771,193.56308,85,60,0
193.55273,193.66536,86,61,0
193.65515,193.76752,85,64,0
193.75731,193.86967,83,65,0
193.85947,193.97125,81,66,0
193.9611,194.07271,79,66,0
194.06256,194.17393,78,65,0
194.16386,194.27472,76,63,0
194.26465,194.3755,78,64,0
194.36543,194.47672,79,67,0
194.46657,194.57819,78,70,0
194.56804,194.67972,76,68,0
194.66951,194.78188,74,67,0
194.77167,194.88403,73,65,0
194.87383,194.98642,71,64,0
194.97633,195.0872,73,67,0
195.07713,195.18799,74,67,0
195.17792,195.28966,73,57,0
195.2787,195.3984,69,57,0
195.38832,195.4891,74,66,0
195.79994,195.9108,79,66,0
195.90073,196.01158,81,56,0
196.00151,196.11237,79,56,0
196.1023,196.21317,76,56,0
196.20308,196.31395,79,66,0
196.30386,196.41473,78,57,0
196.40465,196.51648,76,57,0
196.50543,196.62589,74,57,0
196.61588,196.726,73,68,0
196.71599,196.82611,74,56,0
196.8161,196.92622,73,55,0
196.91621,197.02634,69,55,0
197.01633,197.11644,74,68,0
197.42807,197.53894,79,68,0
197.52885,197.63972,81,56,0
197.62964,197.74051,79,56,0
197.73044,197.8413,76,58,0
197.83122,197.94208,79,70,0
197.932,198.04321,78,58,0
198.03279,198.1475,76,58,0
198.13708,198.25139,74,61,0
198.24136,198.34149,73,79,0
198.34149,198.4416,76,63,0
198.4416,198.54172,73,63,0
198.54172,198.64899,69,63,0
198.64899,198.7491,78,74,0
198.7491,198.84921,81,64,0
198.84921,198.95648,78,64,0
198.95648,199.06375,74,64,0
199.06375,199.16522,73,77,0
199.16522,199.2667,76,59,0
199.2667,199.36816,73,60,0
199.36816,199.47467,69,60,0
199.47467,199.57614,78,77,0
199.57614,199.67761,81,64,0
199.67761,199.78488,78,64,0
199.78488,199.89215,74,64,0
199.89215,199.9693,73,69,0
199.89215,199.9693,76,84,0
200.09787,200.17502,73,60,0
200.09787,200.17502,81,74,0
200.09787,200.17502,76,60,0
200.30359,200.38074,76,60,0
200.30359,200.38074,73,60,0
200.30359,200.38074,81,74,0
200.50931,200.58646,81,74,0
200.50931,200.58646,76,60,0
200.50931,200.58646,73,60,0
200.71503,201.15474,76,60,0
200.71503,201.15474,73,60,0
200.71503,201.15474,81,74,0
201.15474,201.20653,79,41,0
201.20653,201.3101,78,42,0
201.3101,201.41367,76,40,0
201.41367,201.51724,78,40,0
201.51724,201.63278,79,40,0
201.63278,201.8458,80,45,0
201.8458,202.05293,81,42,0
202.2706,202.47632,81,40,0
202.47632,202.68204,86,46,0
202.68204,202.88776,85,42,0
202.88776,203.09348,83,44,0
203.09348,203.31113,81,42,0
203.31113,203.52118,78,48,0
203.52118,203.7241,79,42,0
203.94177,204.14749,79,40,0
204.14749,204.35321,81,45,0
204.35321,204.55893,79,42,0
204.55893,204.76465,78,45,0
204.76465,204.9839,76,42,0
204.9839,205.19104,73,48,0
205.19104,205.39397,74,44,0
205.59691,205.80994,76,45,0
205.80994,206.01707,77,50,0
206.01707,206.21864,78,46,0
206.36983,206.42021,81,42,0
206.42021,206.6363,79,47,0
206.6363,207.27087,78,51,0
207.27087,207.37663,79,44,0
207.37663,207.48239,78,42,0
207.48239,207.70627,76,47,0
207.70627,207.81265,78,42,0
207.91904,208.02618,79,44,0
208.13332,208.2454,80,47,0
208.35748,208.57646,80,45,0
208.57646,208.7848,81,42,0
209.00246,209.20818,81,40,0
209.20818,209.31104,86,46,0
209.4139,209.51675,84,42,0
209.61961,209.72247,82,44,0
209.82533,209.93416,81,42,0
210.043,210.25304,78,48,0
210.25304,210.45596,79,42,0
210.67363,210.72505,81,40,0
210.72505,210.77649,79,37,0
210.77649,210.82791,78,37,0
210.82791,210.87935,79,37,0
210.87935,210.98221,81,45,0
211.08507,211.18793,79,42,0
211.29079,211.39365,77,45,0
211.4965,211.60612,76,42,0
211.71576,211.92877,79,45,0
211.92877,212.13591,77,42,0
212.35358,212.5593,76,40,0
212.5593,212.76501,73,46,0
212.76501,212.97073,74,42,0
213.17645,213.39412,80,46,0
213.39412,214.26476,80,49,0
214.26476,214.4824,81,42,0
215.13539,215.24582,78,46,0
215.24582,215.35625,81,44,0
215.35625,215.4591,80,47,0
215.4591,215.56197,81,43,0
215.56197,215.66483,83,50,0
215.66483,215.76768,81,47,0
215.76768,215.87732,80,53,0
215.87732,215.98694,81,53,0
215.98694,216.09196,79,62,0
216.09196,216.19698,81,53,0
216.19698,216.29984,79,55,0
216.29984,216.4027,81,52,0
216.4027,216.50555,79,64,0
216.50555,216.60841,81,51,0
216.60841,216.71725,79,55,0
216.71725,216.82608,81,49,0
216.82608,216.93651,78,56,0
216.93651,217.04694,81,49,0
217.04694,217.14911,80,51,0
217.14911,217.25127,81,47,0
217.25127,217.35342,83,54,0
217.35342,217.45558,81,47,0
217.45558,217.56349,80,51,0
217.56349,217.6714,81,53,0
217.6714,217.77716,79,59,0
217.77716,217.88293,81,50,0
217.88293,217.9858,79,55,0
217.9858,218.08865,81,52,0
218.08865,218.19151,79,62,0
218.19151,218.29437,81,49,0
218.29437,218.4032,79,55,0
218.4032,218.51202,81,49,0
218.51202,218.93051,78,41,0
219.13623,219.24187,86,57,0
219.3475,219.45251,88,63,0
219.55754,219.6604,86,58,0
219.76326,219.86612,85,63,0
219.96898,220.0778,81,58,0
220.18663,220.61322,86,60,0
220.81894,220.92609,50,57,0
221.03322,221.14049,52,63,0
221.24777,221.34993,50,58,0
221.45209,221.55424,49,60,0
221.6564,221.76523,45,58,0
221.87407,222.30939,50,60,0
222.30939,222.73242,81,50,0
222.73242,223.16151,79,47,0
223.16151,223.60985,78,46,0
223.60985,223.93399,83,50,0
223.93399,223.97372,85,45,0
223.97372,224.01346,83,45,0
224.01445,224.0541,81,45,0
224.05319,224.16046,83,50,0
224.26773,224.37982,85,47,0
224.4919,224.70493,88,50,0
224.70493,224.81143,86,45,0
224.91795,225.13097,85,47,0
225.13097,225.2465,83,45,0
225.36205,225.58961,81,50,0
225.81717,226.24022,81,60,0
226.24022,226.66931,79,60,0
226.66931,227.11765,78,59,0
227.11765,227.44177,76,68,0
227.44177,227.56099,83,53,0
227.56099,227.66826,81,60,0
227.66826,227.77553,79,58,0
227.77553,227.88762,78,58,0
227.88762,227.9997,76,58,0
227.9997,228.42574,74,63,0
228.42574,228.4799,76,55,0
228.4799,228.53638,78,49,0
228.53638,228.592,76,56,0
228.592,228.64682,78,50,0
228.64682,228.72087,76,56,0
228.72087,228.7973,74,48,0
228.7973,228.87373,76,48,0
228.87373,229.08829,74,66,0
229.33406,229.7571,69,50,0
229.7571,230.18619,67,47,0
230.18619,230.63452,66,46,0
230.63452,230.95866,71,50,0
230.95866,230.9984,73,45,0
230.9984,231.03813,71,45,0
231.03912,231.07877,69,45,0
231.07787,231.18513,71,50,0
231.29242,231.4045,73,47,0
231.51659,231.7296,76,50,0
231.7296,231.94263,74,45,0
231.94263,232.15565,73,47,0
232.15565,232.38672,71,45,0
232.38672,232.61429,69,50,0
232.84186,233.2649,81,66,0
232.84186,233.2649,69,56,0
233.2649,233.69398,67,56,0
233.2649,233.69398,79,66,0
233.69398,234.14232,78,64,0
233.69398,234.14232,66,55,0
234.14232,234.46645,76,70,0
234.14232,234.46645,64,57,0
234.46645,234.58566,83,58,0
234.58566,234.69293,81,66,0
234.69293,234.8002,79,63,0
234.8002,234.9123,78,63,0
234.9123,235.02437,76,63,0
235.02437,235.45042,74,69,0
235.45042,235.50458,76,60,0
235.50458,235.56105,78,53,0
235.56105,235.61667,76,61,0
235.61667,235.6715,78,55,0
235.6715,235.74554,76,61,0
235.74554,235.82198,74,52,0
235.82198,235.89842,76,52,0
235.89842,236.32146,66,62,0
235.89842,236.32146,74,74,0
235.89842,236.32146,69,62,0
236.74449,236.85611,79,66,0
236.84596,236.95758,78,55,0
236.94743,237.05905,76,54,0
237.0489,237.16052,78,54,0
237.15038,237.262,81,65,0
237.25185,237.36435,79,55,0
237.3533,237.47478,78,55,0
237.46375,237.58424,79,55,0
237.57417,237.97731,81,62,0
238.38596,238.43634,81,50,0
238.58752,238.63792,83,45,0
238.7891,238.8395,85,45,0
238.99068,239.04282,86,45,0
239.19925,239.6024,81,54,0
239.6024,240.00554,78,45,0
240.00554,240.10632,81,50,0
240.10632,240.2071,79,44,0
240.2071,240.30789,78,44,0
240.30789,240.40869,79,44,0
240.40869,240.45908,81,49,0
240.61026,240.66428,79,46,0
240.82635,241.03493,77,54,0
241.03493,241.23515,78,45,0
241.6356,241.74722,79,66,0
241.73708,241.8487,78,55,0
241.83855,241.95016,76,54,0
241.94002,242.05162,78,54,0
242.04149,242.15309,81,65,0
242.14294,242.25546,79,55,0
242.24442,242.36589,78,55,0
242.35484,242.47536,79,55,0
242.46529,242.86842,81,62,0
243.27707,243.32745,81,50,0
243.47864,243.52902,83,45,0
243.6802,243.7306,85,45,0
243.88177,243.93393,86,45,0
244.09036,244.4935,81,54,0
244.4935,244.89665,78,45,0
244.89665,244.99744,81,50,0
244.99744,245.09822,79,44,0
245.09822,245.199,78,44,0
245.199,245.29979,79,44,0
245.29979,245.40057,81,50,0
245.40057,245.50137,79,44,0
245.50137,245.60565,78,44,0
245.60565,245.70905,76,44,0
245.70905,245.81183,74,45,0
245.81183,245.91399,76,46,0
245.91399,246.01553,78,48,0
246.01553,246.11674,79,49,0
246.11674,246.21745,81,50,0
246.21745,246.31757,83,51,0
246.31757,246.41768,85,53,0
246.41768,246.52042,86,54,0
246.52975,246.9329,86,58,0
246.9329,247.03369,83,49,0
247.23526,247.3441,79,54,0
247.3441,247.74455,78,59,0
247.74455,247.94478,81,54,0
248.04489,248.15216,74,54,0
248.15216,248.55261,76,59,0
248.55261,248.75284,79,54,0
248.85295,248.961,73,54,0
248.961,249.06541,74,53,0
249.06541,249.16997,76,53,0
249.16997,249.27382,78,54,0
249.27382,249.37694,79,55,0
249.37694,249.47935,81,56,0
249.47935,249.58109,83,56,0
249.58109,249.68256,85,57,0
249.68256,249.79298,86,60,0
249.79298,249.89801,88,63,0
249.89801,249.9988,86,55,0
249.9988,250.09958,85,55,0
250.09958,250.20036,86,55,0
250.20036,250.30115,85,63,0
250.30115,250.40195,83,51,0
250.40195,250.50273,81,54,0
250.50273,250.61078,79,54,0
250.61078,250.71729,78,61,0
250.71729,250.81807,79,51,0
250.81807,250.91885,80,54,0
250.91885,251.01964,81,54,0
251.01964,251.12042,79,58,0
251.12042,251.2212,78,51,0
251.2212,251.322,76,54,0
251.322,251.43083,74,50,0
251.43083,251.53513,75,59,0
251.53513,251.63591,76,51,0
251.63591,251.7367,78,54,0
251.7367,251.83748,79,54,0
251.83748,251.93826,78,57,0
251.93826,252.03905,76,53,0
252.03905,252.13983,74,56,0
252.13983,252.24947,73,54,0
252.24947,252.35674,74,66,0
252.35674,252.464,69,59,0
252.464,252.57129,74,66,0
252.57129,252.67856,78,58,0
252.67856,252.78583,81,66,0
252.78583,252.8931,78,60,0
252.8931,253.00603,79,66,0
253.00603,253.11896,76,59,0
253.11896,253.22623,74,66,0
253.22623,253.3335,69,59,0
253.3335,253.44077,74,66,0
253.44077,253.54805,78,58,0
253.54805,253.65532,81,66,0
253.65532,253.76825,78,60,0
253.76825,253.88116,79,66,0
253.88116,253.9941,76,59,0
253.9941,254.23251,74,75,0
254.47093,254.72128,76,64,0
254.47093,254.72128,79,64,0
254.47093,254.72128,85,75,0
254.97163,255.222,74,64,0
254.97163,255.222,86,75,0
254.97163,255.222,78,64,0
255.97305,256.1939,71,39,0
255.97305,256.1939,79,47,0
256.1939,256.3122,78,43,0
256.1939,256.3122,69,36,0
256.43045,256.6563,78,47,0
256.43045,256.6563,69,39,0
256.6563,256.77844,67,35,0
256.6563,256.77844,76,42,0
256.90054,257.13162,67,39,0
256.90054,257.13162,76,47,0
257.13162,257.2611,66,34,0
257.13162,257.2611,74,41,0
257.39062,257.63892,74,47,0
257.39062,257.63892,66,39,0
257.63892,257.78198,73,41,0
257.63892,257.78198,64,34,0
257.92508,259.0975,64,37,0
257.92508,259.0975,73,54,0
257.92508,259.0975,67,45,0
259.0975,259.66986,74,42,0
259.0975,259.66986,66,35,0
0.0,0.423042,50,69,0
0.0,0.423042,38,57,0
0.0,0.423042,45,57,0
0.846084,1.251956,62,37,0
0.846084,1.251956,66,45,0
1.251956,1.6757565,67,45,0
1.251956,1.6757565,64,37,0
1.6757565,2.0789015,66,37,0
1.6757565,2.0789015,69,45,0
3.3008344,3.502407,54,38,0
3.502407,3.7039795,62,32,0
3.7039795,3.905552,50,38,0
3.905552,4.1071243,62,33,0
4.1071243,4.308697,52,37,0
4.308697,4.5102696,62,32,0
4.5102696,4.5606627,57,37,0
4.711842,4.765865,61,30,0
4.9279337,5.33674,62,42,0
4.9279337,5.33674,50,42,0
5.751019,6.156891,66,45,0
5.751019,6.156891,62,37,0
6.156891,6.5806913,67,45,0
6.156891,6.5806913,64,37,0
6.5806913,6.9838367,69,45,0
6.5806913,6.9838367,66,37,0
8.20577,8.407342,54,38,0
8.407342,8.608914,62,32,0
8.608914,8.810487,50,38,0
8.810487,9.012059,62,33,0
9.012059,9.213632,52,37,0
9.213632,9.415204,62,32,0
9.415204,9.616777,57,37,0
9.616777,9.8253565,61,32,0
9.8253565,9.9296465,62,37,0
10.033936,10.134049,66,26,0
10.234163,10.334276,62,35,0
10.43439,10.534504,66,28,0
10.636407,10.742548,62,36,0
10.845768,10.946222,66,26,0
11.045346,11.143818,62,35,0
11.243104,11.343218,66,30,0
11.443331,11.543445,64,37,0
11.643558,11.743671,67,29,0
11.843785,11.943898,64,37,0
12.044012,12.144125,67,29,0
12.244239,12.3551035,64,43,0
12.345025,12.455823,66,38,0
12.445811,12.555936,67,38,0
12.545925,12.655983,66,38,0
12.646038,12.755666,64,38,0
12.745654,12.856419,62,40,0
12.846272,12.958302,61,40,0
12.948086,13.061377,59,40,0
13.050947,13.155237,57,37,0
13.259527,13.35964,61,26,0
13.459754,13.559868,57,35,0
13.659981,13.760095,61,28,0
13.861998,13.96814,57,36,0
14.071359,14.171813,61,26,0
14.270937,14.369409,55,35,0
14.468695,14.568809,61,30,0
14.668921,14.769035,54,37,0
14.869149,14.969262,62,29,0
15.069376,15.16949,54,37,0
15.269603,15.369717,62,29,0
15.46983,15.580695,54,43,0
15.570616,15.681414,50,36,0
15.671402,15.7815275,52,37,0
15.771516,15.881575,54,38,0
15.87163,15.9812565,55,39,0
15.971245,16.08201,57,40,0
16.071863,16.183893,59,41,0
16.173677,16.286896,61,42,0
16.276539,16.691359,62,44,0
17.296505,17.396292,54,31,0
17.296505,17.396292,57,37,0
17.496578,17.59737,57,37,0
17.496578,17.59737,54,31,0
17.69884,17.80083,54,31,0
17.69884,17.80083,57,37,0
17.903345,18.313902,59,44,0
17.903345,18.313902,55,37,0
18.92203,19.02316,59,36,0
18.92203,19.02316,55,30,0
19.12463,19.226103,55,30,0
19.12463,19.226103,59,36,0
19.328262,19.430422,56,30,0
19.328262,19.430422,59,36,0
19.532936,19.734509,57,46,0
19.734509,19.94492,55,40,0
19.94492,20.045706,54,40,0
20.146492,20.251513,50,40,0
20.356533,20.558105,49,50,0
20.558105,20.759678,45,44,0
20.759678,20.860464,50,44,0
20.96125,21.062037,54,44,0
21.172468,21.372696,57,51,0
21.372696,21.572922,55,44,0
21.572922,21.673037,54,45,0
21.77315,21.87891,50,45,0
21.98467,22.186243,49,54,0
22.186243,22.387815,45,47,0
22.387815,22.488602,50,48,0
22.589388,22.693678,54,48,0
22.797968,22.998194,45,50,0
22.797968,22.998194,57,60,0
22.797968,22.998194,52,50,0
23.205582,23.405807,54,51,0
23.205582,23.405807,57,60,0
23.205582,23.405807,50,51,0
23.620354,23.82329,45,51,0
23.620354,23.82329,52,51,0
23.620354,23.82329,57,61,0
24.03127,24.234205,57,62,0
24.03127,24.234205,54,52,0
24.03127,24.234205,50,52,0
24.65447,24.731615,49,45,0
24.65447,24.731615,45,45,0
24.65447,24.731615,57,55,0
24.65447,24.731615,52,45,0
24.86019,24.937334,57,55,0
24.86019,24.937334,52,45,0
24.86019,24.937334,49,45,0
24.86019,24.937334,45,45,0
25.065908,25.143053,57,55,0
25.065908,25.143053,45,45,0
25.065908,25.143053,52,45,0
25.065908,25.143053,49,45,0
25.271627,25.774538,45,49,0
25.271627,25.774538,49,49,0
25.271627,25.774538,57,58,0
25.271627,25.774538,52,49,0
26.25293,26.465952,57,34,0
26.465952,26.673092,61,27,0
26.673092,26.89075,59,30,0
26.89075,27.09647,62,27,0
27.09647,27.302189,61,32,0
27.302189,27.507908,64,26,0
27.507908,27.713627,57,29,0
27.713627,27.931286,61,26,0
27.931286,28.141327,59,34,0
28.141327,28.344263,66,28,0
28.344263,28.561922,62,32,0
28.561922,28.767641,59,28,0
28.767641,28.97336,56,34,0
28.97336,29.17908,59,29,0
29.17908,29.384798,52,30,0
29.384798,29.604048,62,28,0
29.604048,29.811188,61,34,0
29.811188,30.014124,64,28,0
30.014124,30.21706,56,30,0
30.21706,30.430082,64,28,0
30.430082,30.637222,57,34,0
30.637222,30.838795,64,26,0
30.838795,31.040367,54,29,0
31.040367,31.256458,57,26,0
31.256458,31.46798,52,34,0
31.46798,31.6795,57,27,0
31.6795,31.891022,61,30,0
31.891022,32.102543,57,27,0
32.102543,32.52683,56,33,0
32.102543,32.52683,52,33,0
32.96997,33.182995,57,34,0
33.182995,33.390137,61,27,0
33.390137,33.607796,59,30,0
33.607796,33.813515,62,27,0
33.813515,34.019234,61,32,0
34.019234,34.122093,64,26,0
34.224953,34.43067,57,29,0
34.43067,34.5395,61,26,0
34.64833,34.85837,59,34,0
34.85837,35.061306,66,28,0
35.061306,35.278965,62,32,0
35.278965,35.484684,59,28,0
35.484684,35.690403,56,34,0
35.690403,35.793262,59,29,0
35.896122,36.10184,52,30,0
36.10184,36.211468,56,28,0
36.32109,36.75959,57,30,0
36.75959,37.19809,50,30,0
36.75959,37.19809,62,30,0
37.19809,37.636593,61,30,0
37.636593,38.075092,59,30,0
37.19809,38.075092,52,30,0
38.075092,38.501675,57,38,0
38.707394,38.81702,69,49,0
38.926643,39.031662,71,55,0
39.136684,39.239544,69,49,0
39.342403,39.445263,68,56,0
39.548122,39.65695,64,48,0
39.76578,40.190964,69,55,0
40.395283,40.504906,57,50,0
40.614532,40.72029,59,56,0
40.826054,40.928913,57,50,0
41.031773,41.134632,56,56,0
41.23749,41.34632,52,51,0
41.45515,41.565582,57,45,0
41.565582,41.676014,64,35,0
41.676014,41.778873,63,37,0
41.778873,41.881733,64,34,0
41.881733,41.9859,66,40,0
41.9859,42.09007,64,37,0
42.09007,42.19721,63,40,0
42.19721,42.30435,64,40,0
42.30435,42.409374,62,47,0
42.409374,42.514393,64,39,0
42.514393,42.617252,62,41,0
42.617252,42.72011,64,39,0
42.72011,42.82297,62,49,0
42.82297,42.92583,64,39,0
42.92583,43.03466,62,41,0
43.03466,43.14349,64,39,0
43.14349,43.25392,61,39,0
43.25392,43.364353,64,35,0
43.364353,43.467213,63,37,0
43.467213,43.570072,64,34,0
43.570072,43.67293,66,40,0
43.67293,43.77579,64,37,0
43.77579,43.885418,63,40,0
43.885418,43.995045,64,40,0
43.995045,44.102314,62,47,0
44.102314,44.209587,64,39,0
44.209587,44.31233,62,41,0
44.31233,44.41507,64,39,0
44.41507,44.517807,62,49,0
44.517807,44.62055,64,39,0
44.62055,44.729378,62,41,0
44.729378,44.838207,64,39,0
44.838207,45.273525,61,41,0
45.273525,45.379288,61,35,0
45.379288,45.485046,69,29,0
45.485046,45.59081,61,29,0
45.59081,45.696568,69,29,0
45.696568,45.80384,59,35,0
45.80384,45.911114,69,30,0
45.911114,46.018387,59,30,0
46.018387,46.12566,69,30,0
46.12566,46.237743,57,35,0
46.237743,46.349827,69,31,0
46.349827,46.461906,57,31,0
46.461906,46.57399,69,31,0
46.57399,46.682037,62,35,0
46.682037,46.79008,69,30,0
46.79008,46.89813,68,30,0
46.89813,47.017338,69,30,0
47.017338,47.12461,62,35,0
47.12461,47.23188,69,30,0
47.23188,47.343964,68,30,0
47.343964,47.456047,69,30,0
47.456047,47.562557,62,30,0
47.562557,47.66907,69,32,0
47.66907,47.77558,68,32,0
47.77558,47.88209,69,32,0
47.88209,47.988605,62,34,0
47.988605,48.095116,69,30,0
48.095116,48.21065,68,30,0
48.21065,48.326187,69,30,0
48.326187,48.439972,61,37,0
48.439972,48.553753,69,37,0
48.553753,48.667538,68,28,0
48.667538,48.78132,69,28,0
48.78132,48.88708,61,45,0
48.88708,48.99284,69,37,0
48.99284,49.098602,61,37,0
49.098602,49.20436,69,37,0
49.20436,49.311634,59,45,0
49.311634,49.418907,69,39,0
49.418907,49.52618,59,39,0
49.52618,49.633453,69,39,0
49.633453,49.745537,57,45,0
49.745537,49.85762,69,40,0
49.85762,49.9697,57,40,0
49.9697,50.081783,69,40,0
50.081783,50.18983,50,45,0
50.18983,50.297874,59,39,0
50.297874,50.405922,54,39,0
50.405922,50.52513,59,39,0
50.52513,50.6324,50,45,0
50.6324,50.739674,59,39,0
50.739674,50.851757,54,39,0
50.851757,50.96384,59,39,0
50.96384,51.07035,52,39,0
51.07035,51.176865,61,41,0
51.176865,51.283375,57,41,0
51.283375,51.389885,61,41,0
51.389885,51.500515,52,44,0
51.500515,51.61096,62,39,0
51.61096,51.72323,56,39,0
51.72323,51.837883,62,39,0
51.837883,51.945156,57,48,0
51.945156,52.05243,64,42,0
52.05243,52.16286,61,36,0
52.16286,52.298203,64,36,0
52.298203,52.403965,61,35,0
52.403965,52.509724,69,29,0
52.509724,52.615486,61,29,0
52.615486,52.721245,69,29,0
52.721245,52.828518,59,35,0
52.828518,52.93579,69,30,0
52.93579,53.043064,59,30,0
53.043064,53.150337,69,30,0
53.150337,53.26242,57,35,0
53.26242,53.3745,69,31,0
53.3745,53.486584,57,31,0
53.486584,53.598667,69,31,0
53.598667,53.706715,62,35,0
53.706715,53.81476,69,30,0
53.81476,53.922806,68,30,0
53.922806,54.04201,69,30,0
54.04201,54.149284,62,35,0
54.149284,54.256557,69,30,0
54.256557,54.36864,68,30,0
54.36864,54.480724,69,30,0
54.480724,54.587234,62,30,0
54.587234,54.69375,69,32,0
54.69375,54.80026,68,32,0
54.80026,54.90677,69,32,0
54.90677,55.013283,62,34,0
55.013283,55.119793,69,30,0
55.119793,55.23533,68,30,0
55.23533,55.350864,69,30,0
55.350864,55.46465,61,37,0
55.46465,55.57843,69,37,0
55.57843,55.692215,68,28,0
55.692215,55.805996,69,28,0
55.805996,55.91176,61,45,0
55.91176,56.017517,69,37,0
56.017517,56.12328,61,37,0
56.12328,56.22904,69,37,0
56.22904,56.33631,59,45,0
56.33631,56.443584,69,39,0
56.443584,56.550858,59,39,0
56.550858,56.65813,69,39,0
56.65813,56.770214,57,45,0
56.770214,56.882294,69,40,0
56.882294,56.994377,57,40,0
56.994377,57.10646,69,40,0
57.10646,57.214504,50,45,0
57.214504,57.32255,59,39,0
57.32255,57.4306,54,39,0
57.4306,57.549805,59,39,0
57.549805,57.657078,50,45,0
57.657078,57.76435,59,39,0
57.76435,57.876434,54,39,0
57.876434,57.988518,59,39,0
57.988518,58.095028,52,39,0
58.095028,58.20154,61,41,0
58.20154,58.308052,57,41,0
58.308052,58.414562,61,41,0
58.414562,58.525192,52,44,0
58.525192,58.635635,62,39,0
58.635635,58.747906,56,39,0
58.747906,58.86256,62,39,0
58.86256,59.291653,57,45,0
58.86256,59.291653,61,54,0
59.5062,59.61912,59,55,0
59.5062,59.61912,56,46,0
59.5062,59.61912,52,46,0
59.732048,60.16114,61,54,0
59.732048,60.16114,57,45,0
60.38134,60.494267,56,46,0
60.38134,60.494267,59,55,0
60.38134,60.494267,52,46,0
60.607193,60.84561,57,52,0
60.607193,60.84561,61,63,0
61.084026,61.33438,53,63,0
61.084026,61.33438,41,52,0
61.584736,61.83509,54,63,0
61.584736,61.83509,42,52,0
62.586155,63.51365,50,40,0
63.51365,64.53818,52,40,0
64.53818,65.08448,57,39,0
65.08448,65.71059,52,39,0
65.71059,66.28294,45,35,0
66.8553,67.27834,45,57,0
66.8553,67.27834,50,69,0
66.8553,67.27834,38,57,0
67.701385,68.11234,62,37,0
67.701385,68.11234,66,45,0
68.11234,68.53591,64,37,0
68.11234,68.53591,67,45,0
68.53591,68.93906,69,45,0
68.53591,68.93906,66,37,0
70.16099,70.36256,54,38,0
70.36256,70.56413,62,32,0
70.56413,70.7657,50,38,0
70.7657,70.96728,62,33,0
70.96728,71.168846,52,37,0
71.168846,71.37042,62,32,0
71.37042,71.420815,57,37,0
71.57199,71.626015,61,30,0
71.788086,72.19689,50,42,0
71.788086,72.19689,62,42,0
72.63221,73.038086,66,45,0
72.63221,73.038086,62,37,0
73.038086,73.46188,64,37,0
73.038086,73.46188,67,45,0
73.46188,73.86503,66,37,0
73.46188,73.86503,69,45,0
75.08696,75.288536,54,38,0
75.288536,75.490105,62,32,0
75.490105,75.69168,50,38,0
75.69168,75.89325,62,33,0
75.89325,76.094826,52,37,0
76.094826,76.296394,62,32,0
76.296394,76.49797,57,37,0
76.49797,76.70655,61,32,0
76.70655,76.81084,62,37,0
76.91513,77.01524,66,26,0
77.11536,77.21547,62,35,0
77.31558,77.415695,66,28,0
77.5176,77.62374,62,36,0
77.72696,77.827415,66,26,0
77.92654,78.02501,62,35,0
78.1243,78.22441,66,30,0
78.324524,78.42464,64,37,0
78.52475,78.62486,67,29,0
78.724976,78.82509,64,37,0
78.9252,79.025314,67,29,0
79.12543,79.2363,64,43,0
79.22622,79.33701,66,38,0
79.327,79.437126,67,38,0
79.42712,79.53718,66,38,0
79.52723,79.636856,64,38,0
79.62685,79.73761,62,40,0
79.72746,79.83949,61,40,0
79.82928,79.942566,59,40,0
79.93214,80.03643,57,37,0
80.14072,80.24083,61,26,0
80.34094,80.44106,57,35,0
80.541176,80.64129,61,28,0
80.74319,80.849335,57,36,0
80.95255,81.053,61,26,0
81.15213,81.2506,55,35,0
81.349884,81.45,61,30,0
81.55012,81.65023,54,37,0
81.75034,81.85046,62,29,0
81.95057,82.05068,54,37,0
82.150795,82.25091,62,29,0
82.35102,82.46188,54,43,0
82.451805,82.56261,50,36,0
82.5526,82.66272,52,37,0
82.65271,82.762764,54,38,0
82.75282,82.86245,55,39,0
82.85244,82.9632,57,40,0
82.95306,83.06509,59,41,0
83.05487,83.16809,61,42,0
83.15773,83.57255,62,44,0
84.1777,84.27748,54,31,0
84.1777,84.27748,57,37,0
84.37777,84.47743,54,31,0
84.37777,84.47743,57,37,0
84.578514,84.68107,54,31,0
84.578514,84.68107,57,37,0
84.78449,85.19505,55,37,0
84.78449,85.19505,59,44,0
85.80318,85.90431,55,30,0
85.80318,85.90431,59,36,0
86.00578,86.107254,55,30,0
86.00578,86.107254,59,36,0
86.20941,86.31157,59,36,0
86.20941,86.31157,56,30,0
86.414085,86.61566,57,46,0
86.61566,86.82607,55,40,0
86.82607,86.92686,54,40,0
87.02764,87.13727,50,40,0
87.246895,87.44846,49,50,0
87.44846,87.65004,45,44,0
87.65004,87.750824,50,44,0
87.85161,87.9524,54,44,0
88.06283,88.263054,57,51,0
88.263054,88.46328,55,44,0
88.46328,88.5634,54,45,0
88.66351,88.77142,50,45,0
88.87934,89.08091,49,54,0
89.08091,89.282486,45,47,0
89.282486,89.38327,50,48,0
89.484055,89.58835,54,48,0
89.692635,89.89286,52,50,0
89.692635,89.89286,57,60,0
89.692635,89.89286,45,50,0
90.10025,90.300476,57,60,0
90.10025,90.300476,50,51,0
90.10025,90.300476,54,51,0
90.51502,90.71796,57,61,0
90.51502,90.71796,45,51,0
90.51502,90.71796,52,51,0
90.925934,91.128876,57,62,0
90.925934,91.128876,54,52,0
90.925934,91.128876,50,52,0
91.54914,91.62628,52,45,0
91.54914,91.62628,45,45,0
91.54914,91.62628,49,45,0
91.54914,91.62628,57,55,0
91.75486,91.832,45,45,0
91.75486,91.832,49,45,0
91.75486,91.832,57,55,0
91.75486,91.832,52,45,0
91.96058,92.03772,45,45,0
91.96058,92.03772,49,45,0
91.96058,92.03772,52,45,0
91.96058,92.03772,57,55,0
92.1663,92.664375,45,49,0
92.1663,92.664375,52,49,0
92.1663,92.664375,57,58,0
92.1663,92.664375,49,49,0
93.1424,93.35543,57,34,0
93.35543,93.56257,61,27,0
93.56257,93.78023,59,30,0
93.78023,93.98595,62,27,0
93.98595,94.191666,61,32,0
94.191666,94.397385,64,26,0
94.397385,94.6031,57,29,0
94.6031,94.82076,61,26,0
94.82076,95.0308,59,34,0
95.0308,95.23374,66,28,0
95.23374,95.4514,62,32,0
95.4514,95.65712,59,28,0
95.65712,95.86284,56,34,0
95.86284,96.06856,59,29,0
96.06856,96.27428,52,30,0
96.27428,96.49352,62,28,0
96.49352,96.70066,61,34,0
96.70066,96.9036,64,28,0
96.9036,97.10654,56,30,0
97.10654,97.31956,64,28,0
97.31956,97.526695,57,34,0
97.526695,97.72827,64,26,0
97.72827,97.92984,54,29,0
97.92984,98.145935,57,26,0
98.145935,98.35745,52,34,0
98.35745,98.56898,57,27,0
98.56898,98.780495,61,30,0
98.780495,98.99202,57,27,0
98.99202,99.41506,52,33,0
98.99202,99.41506,56,33,0
99.863045,100.07607,57,34,0
100.07607,100.28321,61,27,0
100.28321,100.50087,59,30,0
100.50087,100.70659,62,27,0
100.70659,100.91231,61,32,0
100.91231,101.01517,64,26,0
101.11803,101.323746,57,29,0
101.323746,101.43257,61,26,0
101.541405,101.75144,59,34,0
101.75144,101.95438,66,28,0
101.95438,102.17204,62,32,0
102.17204,102.37776,59,28,0
102.37776,102.58348,56,34,0
102.58348,102.68634,59,29,0
102.7892,102.99492,52,30,0
102.99492,103.10454,56,28,0
103.214165,103.652664,57,30,0
103.652664,104.09116,50,30,0
103.652664,104.09116,62,30,0
104.09116,104.52966,61,30,0
104.52966,104.96816,59,30,0
104.09116,104.96816,52,30,0
104.96816,105.394745,57,38,0
105.60454,105.714165,69,51,0
105.82379,105.92881,71,55,0
106.03383,106.13669,69,51,0
106.23955,106.34241,68,58,0
106.44527,106.5541,64,53,0
106.662926,107.08811,69,55,0
107.29243,107.402054,57,52,0
107.51167,107.61744,59,57,0
107.7232,107.82606,57,51,0
107.92892,108.03178,56,57,0
108.134636,108.24346,52,53,0
108.352295,108.46273,57,56,0
108.46273,108.57316,64,35,0
108.57316,108.67602,63,37,0
108.67602,108.77888,64,34,0
108.77888,108.88377,66,40,0
108.88377,108.98867,64,37,0
108.98867,109.09658,63,40,0
109.09658,109.2045,64,40,0
109.2045,109.30952,62,47,0
109.30952,109.414536,64,39,0
109.414536,109.517395,62,41,0
109.517395,109.620255,64,39,0
109.620255,109.723114,62,49,0
109.723114,109.82597,64,39,0
109.82597,109.93481,62,41,0
109.93481,110.04363,64,39,0
110.04363,110.15407,61,39,0
110.15407,110.264496,64,35,0
110.264496,110.367355,63,37,0
110.367355,110.470215,64,34,0
110.470215,110.57585,66,40,0
110.57585,110.68149,64,37,0
110.68149,110.7894,63,40,0
110.7894,110.89731,64,40,0
110.89731,111.004585,62,47,0
111.004585,111.111855,64,39,0
111.111855,111.21603,62,41,0
111.21603,111.32019,64,39,0
111.32019,111.424355,62,49,0
111.424355,111.52853,64,39,0
111.52853,111.63735,62,41,0
111.63735,111.746185,64,39,0
111.746185,112.1815,61,41,0
112.1815,112.28726,61,35,0
112.28726,112.39303,69,29,0
112.39303,112.49879,61,29,0
112.49879,112.604546,69,29,0
112.604546,112.711815,59,35,0
112.711815,112.81909,69,30,0
112.81909,112.92636,59,30,0
112.92636,113.03364,69,30,0
113.03364,113.14572,57,35,0
113.14572,113.257805,69,31,0
113.257805,113.36989,57,31,0
113.36989,113.481964,69,31,0
113.481964,113.59001,62,35,0
113.59001,113.69806,69,30,0
113.69806,113.80611,68,30,0
113.80611,113.925316,69,30,0
113.925316,114.032585,62,35,0
114.032585,114.13986,69,30,0
114.13986,114.251945,68,30,0
114.251945,114.36402,69,30,0
114.36402,114.470535,62,30,0
114.470535,114.57705,69,32,0
114.57705,114.683556,68,32,0
114.683556,114.79007,69,32,0
114.79007,114.89658,62,34,0
114.89658,115.00309,69,30,0
115.00309,115.11863,68,30,0
115.11863,115.23416,69,30,0
115.23416,115.347946,61,37,0
115.347946,115.46173,69,37,0
115.46173,115.575516,68,28,0
115.575516,115.6893,69,28,0
115.6893,115.79506,61,45,0
115.79506,115.90082,69,37,0
115.90082,116.00658,61,37,0
116.00658,116.112335,69,37,0
116.112335,116.21961,59,45,0
116.21961,116.32688,69,39,0
116.32688,116.43416,59,39,0
116.43416,116.54143,69,39,0
116.54143,116.65351,57,45,0
116.65351,116.765594,69,40,0
116.765594,116.87768,57,40,0
116.87768,116.98976,69,40,0
116.98976,117.09781,50,45,0
117.09781,117.20585,59,39,0
117.20585,117.313896,54,39,0
117.313896,117.433105,59,39,0
117.433105,117.54038,50,45,0
117.54038,117.64765,59,39,0
117.64765,117.759735,54,39,0
117.759735,117.87182,59,39,0
117.87182,117.97833,52,39,0
117.97833,118.08484,61,41,0
118.08484,118.19135,57,41,0
118.19135,118.29787,61,41,0
118.29787,118.40849,52,44,0
118.40849,118.518936,62,39,0
118.518936,118.63121,56,39,0
118.63121,118.74586,62,39,0
118.74586,118.853134,57,48,0
118.853134,118.9604,64,42,0
118.9604,119.07084,61,36,0
119.07084,119.20618,64,36,0
119.20618,119.31194,61,35,0
119.31194,119.4177,69,29,0
119.4177,119.52346,61,29,0
119.52346,119.62922,69,29,0
119.62922,119.736496,59,35,0
119.736496,119.843765,69,30,0
119.843765,119.95104,59,30,0
119.95104,120.05831,69,30,0
120.05831,120.170395,57,35,0
120.170395,120.28248,69,31,0
120.28248,120.39456,57,31,0
120.39456,120.506645,69,31,0
120.506645,120.61469,62,35,0
120.61469,120.72273,69,30,0
120.72273,120.83078,68,30,0
120.83078,120.94999,69,30,0
120.94999,121.05727,62,35,0
121.05727,121.164536,69,30,0
121.164536,121.27662,68,30,0
121.27662,121.3887,69,30,0
121.3887,121.49522,62,30,0
121.49522,121.60172,69,32,0
121.60172,121.70824,68,32,0
121.70824,121.81475,69,32,0
121.81475,121.92126,62,34,0
121.92126,122.02777,69,30,0
122.02777,122.1433,68,30,0
122.1433,122.25884,69,30,0
122.25884,122.37263,61,37,0
122.37263,122.486404,69,37,0
122.486404,122.60019,68,28,0
122.60019,122.713974,69,28,0
122.713974,122.81973,61,45,0
122.81973,122.92549,69,37,0
122.92549,123.03126,61,37,0
123.03126,123.13702,69,37,0
123.13702,123.244286,59,45,0
123.244286,123.35156,69,39,0
123.35156,123.45883,59,39,0
123.45883,123.56611,69,39,0
123.56611,123.67819,57,45,0
123.67819,123.790276,69,40,0
123.790276,123.90235,57,40,0
123.90235,124.014435,69,40,0
124.014435,124.12248,50,45,0
124.12248,124.23053,59,39,0
124.23053,124.33858,54,39,0
124.33858,124.45779,59,39,0
124.45779,124.565056,50,45,0
124.565056,124.67233,59,39,0
124.67233,124.78441,54,39,0
124.78441,124.89649,59,39,0
124.89649,125.003006,52,39,0
125.003006,125.10952,61,41,0
125.10952,125.21603,57,41,0
125.21603,125.32254,61,41,0
125.32254,125.43317,52,44,0
125.43317,125.54361,62,39,0
125.54361,125.65588,56,39,0
125.65588,125.77054,62,39,0
125.77054,126.19963,61,54,0
125.77054,126.19963,57,45,0
126.41418,126.5271,59,55,0
126.41418,126.5271,52,46,0
126.41418,126.5271,56,46,0
126.64003,127.06912,61,54,0
126.64003,127.06912,57,45,0
127.28932,127.402245,56,46,0
127.28932,127.402245,59,55,0
127.28932,127.402245,52,46,0
127.51517,127.753586,61,63,0
127.51517,127.753586,57,52,0
127.992004,128.24236,53,63,0
127.992004,128.24236,41,52,0
128.4927,128.74307,54,63,0
128.4927,128.74307,42,52,0
129.49413,130.42163,50,40,0
130.42163,131.44615,52,40,0
131.44615,131.99246,57,39,0
131.99246,132.61856,52,39,0
132.61856,133.19092,45,35,0
135.48438,137.19087,59,44,0
135.48438,137.19087,47,44,0
137.61147,137.82755,67,36,0
137.61147,137.82755,71,43,0
138.47154,138.68608,71,43,0
138.47154,138.68608,63,36,0
138.90063,139.10495,47,69,0
139.10495,139.21704,45,62,0
139.32912,139.53343,45,67,0
139.53343,139.64468,43,59,0
139.75594,139.96597,43,61,0
139.96597,140.07642,42,52,0
140.18684,140.39542,42,51,0
140.39542,140.5075,40,45,0
142.3188,144.03586,57,44,0
142.3188,144.03586,45,44,0
144.45645,144.67255,69,43,0
144.45645,144.67255,66,36,0
145.31227,145.52682,61,36,0
145.31227,145.52682,69,43,0
145.74136,145.9443,45,69,0
145.9443,146.05392,43,62,0
146.16354,146.36926,43,67,0
146.36926,146.4789,42,59,0
146.58852,146.79565,42,61,0
146.79565,146.90529,40,52,0
147.01491,147.22495,40,51,0
147.22495,147.33873,38,45,0
147.45251,147.66255,62,47,0
147.66255,147.77219,61,42,0
147.8818,148.09184,61,53,0
148.09184,148.20148,59,46,0
148.3111,148.52113,59,58,0
148.52113,148.63156,57,50,0
148.742,148.95502,57,60,0
148.95502,149.0688,56,52,0
149.18224,150.06491,44,56,0
149.18224,150.06491,56,66,0
150.06491,150.93555,46,51,0
150.06491,150.93555,58,61,0
150.93555,151.14413,59,47,0
151.14413,151.25456,57,42,0
151.36499,151.57504,57,53,0
151.57504,151.68466,55,46,0
151.79428,152.00433,55,58,0
152.00433,152.11476,54,50,0
152.22519,152.43822,54,60,0
152.43822,152.552,53,52,0
152.66579,153.53648,53,66,0
152.66579,153.53648,41,56,0
153.53648,154.40714,54,61,0
153.53648,154.40714,42,51,0
154.40714,154.51215,55,41,0
154.51215,154.61717,62,36,0
154.61717,154.72679,59,41,0
154.72679,154.83643,62,35,0
154.83643,154.94144,55,41,0
154.94144,155.04646,62,36,0
155.04646,155.16289,59,41,0
155.16289,155.27933,62,35,0
155.27933,155.38362,55,41,0
155.38362,155.4879,62,36,0
155.4879,155.59915,59,41,0
155.59915,155.7104,62,35,0
155.7104,155.81543,55,41,0
155.81543,155.92044,62,36,0
155.92044,156.03253,59,41,0
156.03253,156.1446,62,35,0
156.1446,156.24963,54,45,0
156.24963,156.35464,61,39,0
156.35464,156.46509,58,45,0
156.46509,156.57552,61,38,0
156.57552,156.68054,54,45,0
156.68054,156.78555,61,39,0
156.78555,156.89764,58,45,0
156.89764,157.00972,61,38,0
157.00972,157.11475,53,45,0
157.11475,157.21976,62,39,0
157.21976,157.33101,56,45,0
157.33101,157.44226,62,38,0
157.44226,157.54729,53,45,0
157.54729,157.6523,62,39,0
157.6523,157.76355,56,45,0
157.76355,157.8748,62,38,0
157.8748,158.76369,54,40,0
158.76369,159.68398,42,40,0
159.68398,160.18468,47,39,0
160.18468,160.73097,42,39,0
160.73097,161.23169,35,35,0
161.73239,162.73381,59,65,0
161.73239,162.73381,47,54,0
162.73381,163.23453,57,58,0
162.73381,163.23453,45,49,0
163.73523,164.75456,43,32,0
163.73523,164.75456,55,38,0
164.75456,165.29109,42,32,0
164.75456,165.29109,54,38,0
166.36415,166.46991,59,42,0
166.46991,166.57567,67,34,0
166.57567,166.68143,59,34,0
166.68143,166.78719,67,34,0
166.78719,166.89445,57,42,0
166.89445,167.00174,67,36,0
167.00174,167.10901,57,36,0
167.10901,167.21628,67,36,0
167.21628,167.32835,55,42,0
167.32835,167.44044,67,37,0
167.44044,167.55252,55,37,0
167.55252,167.66461,67,37,0
167.66461,167.77266,60,42,0
167.77266,167.8807,67,36,0
167.8807,167.98874,66,36,0
167.98874,168.10796,67,36,0
168.10796,168.21523,60,42,0
168.21523,168.3225,67,36,0
168.3225,168.43459,66,36,0
168.43459,168.54666,67,36,0
168.54666,168.65318,60,36,0
168.65318,168.75969,67,38,0
168.75969,168.8662,66,38,0
168.8662,168.97272,67,38,0
168.97272,169.07922,60,40,0
169.07922,169.18573,67,36,0
169.18573,169.30127,66,36,0
169.30127,169.41681,67,36,0
169.41681,169.5306,59,44,0
169.5306,169.64438,67,44,0
169.64438,169.75815,66,33,0
169.75815,169.87193,67,33,0
169.87193,169.97769,59,37,0
169.97769,170.08347,67,30,0
170.08347,170.18922,59,30,0
170.18922,170.29498,67,30,0
170.29498,170.40225,57,37,0
170.40225,170.50952,67,32,0
170.50952,170.6168,57,32,0
170.6168,170.72408,67,32,0
170.72408,170.83615,55,37,0
170.83615,170.94824,67,33,0
170.94824,171.06032,55,33,0
171.06032,171.17241,67,33,0
171.17241,171.28044,48,37,0
171.28044,171.38849,57,32,0
171.38849,171.49654,52,32,0
171.49654,171.61575,57,32,0
171.61575,171.72302,48,37,0
171.72302,171.83029,57,32,0
171.83029,171.94238,52,32,0
171.94238,172.05446,57,32,0
172.05446,172.16096,50,32,0
172.16096,172.26749,59,34,0
172.26749,172.374,55,34,0
172.374,172.4805,59,34,0
172.4805,172.59114,50,36,0
172.59114,172.70157,60,32,0
172.70157,172.81384,54,32,0
172.81384,172.9285,60,32,0
172.9285,173.03577,55,39,0
173.03577,173.14305,62,34,0
173.14305,173.25348,59,29,0
173.25348,173.38882,62,29,0
173.38882,173.49458,59,42,0
173.49458,173.60034,67,34,0
173.60034,173.7061,59,34,0
173.7061,173.81186,67,34,0
173.81186,173.91914,57,42,0
173.91914,174.02641,67,36,0
174.02641,174.13368,57,36,0
174.13368,174.24095,67,36,0
174.24095,174.35304,55,42,0
174.35304,174.46512,67,37,0
174.46512,174.57721,55,37,0
174.57721,174.68929,67,37,0
174.68929,174.79733,60,42,0
174.79733,174.90538,67,36,0
174.90538,175.01343,66,36,0
175.01343,175.13263,67,36,0
175.13263,175.2399,60,42,0
175.2399,175.34718,67,36,0
175.34718,175.45912,66,36,0
175.45912,175.57106,67,36,0
175.57106,175.6767,60,36,0
175.6767,175.78232,67,38,0
175.78232,175.8887,66,38,0
175.8887,175.99509,67,38,0
175.99509,176.10147,60,40,0
176.10147,176.20786,67,36,0
176.20786,176.3234,66,36,0
176.3234,176.43893,67,36,0
176.43893,176.55272,59,44,0
176.55272,176.66649,67,44,0
176.66649,176.78027,66,33,0
176.78027,176.89406,67,33,0
176.89406,176.99982,59,37,0
176.99982,177.10558,67,30,0
177.10558,177.21135,59,30,0
177.21135,177.31711,67,30,0
177.31711,177.42438,57,37,0
177.42438,177.53165,67,32,0
177.53165,177.63892,57,32,0
177.63892,177.7462,67,32,0
177.7462,177.85828,55,37,0
177.85828,177.97037,67,33,0
177.97037,178.08244,55,33,0
178.08244,178.19452,67,33,0
178.19452,178.30257,48,37,0
178.30257,178.41061,57,32,0
178.41061,178.51866,52,32,0
178.51866,178.63786,57,32,0
178.63786,178.74515,48,37,0
178.74515,178.85242,57,32,0
178.85242,178.9645,52,32,0
178.9645,179.07658,57,32,0
179.07658,179.18309,50,32,0
179.18309,179.28961,59,34,0
179.28961,179.39612,55,34,0
179.39612,179.50262,59,34,0
179.50262,179.61325,50,36,0
179.61325,179.7237,60,32,0
179.7237,179.83597,54,32,0
179.83597,179.95062,60,32,0
179.95062,180.36778,55,44,0
179.95062,180.36778,59,52,0
180.57635,180.68599,62,48,0
180.57635,180.68599,54,40,0
180.79561,181.21277,55,44,0
180.79561,181.21277,62,52,0
181.42589,181.53471,62,47,0
181.42589,181.53471,54,39,0
181.64355,182.06071,62,51,0
181.64355,182.06071,55,43,0
182.26929,182.37733,54,39,0
182.26929,182.37733,62,46,0
182.48538,182.5904,55,42,0
182.48538,182.5904,62,50,0
182.69542,182.80106,54,39,0
182.69542,182.80106,62,46,0
182.9067,183.01233,55,39,0
182.9067,183.01233,62,46,0
183.12262,183.23291,52,39,0
183.12262,183.23291,55,46,0
183.3432,183.76036,54,42,0
183.3432,183.76036,57,50,0
183.96895,184.07857,57,50,0
183.96895,184.07857,49,42,0
184.18819,184.60535,50,44,0
184.18819,184.60535,57,52,0
184.81926,184.9289,49,42,0
184.81926,184.9289,57,50,0
185.03851,185.45279,57,54,0
185.03851,185.45279,50,45,0
185.65993,185.76797,59,54,0
185.65993,185.76797,51,45,0
185.87602,186.2903,52,47,0
185.87602,186.2903,59,56,0
186.50192,186.60997,51,45,0
186.50192,186.60997,59,53,0
186.71802,187.13518,59,60,0
186.71802,187.13518,52,51,0
187.34375,187.45258,52,46,0
187.34375,187.45258,61,55,0
187.56142,187.9757,54,52,0
187.56142,187.9757,62,62,0
188.1881,188.29692,61,57,0
188.1881,188.29692,52,48,0
188.40575,188.81718,62,62,0
188.40575,188.81718,54,52,0
189.04135,189.15018,66,54,0
189.259,189.36478,67,62,0
189.47054,189.572,66,56,0
189.67346,189.77493,67,61,0
189.8764,189.98143,63,53,0
190.08719,190.19075,64,62,0
190.29433,190.39511,63,56,0
190.4959,190.59668,64,64,0
190.69746,190.80104,61,56,0
190.9046,191.00471,62,66,0
191.10483,191.20494,61,57,0
191.30507,191.40863,62,66,0
191.5122,191.61577,58,57,0
191.71935,191.81879,59,66,0
191.91824,192.02254,58,57,0
192.12682,192.22627,59,63,0
192.32571,192.43001,57,57,0
192.32571,192.43001,60,57,0
192.53426,192.93207,55,53,0
192.53426,192.93207,59,64,0
193.33896,193.44771,55,42,0
193.33896,193.44771,64,50,0
193.55273,193.65515,64,40,0
193.55273,193.65515,55,34,0
193.75731,193.85947,55,34,0
193.75731,193.85947,64,40,0
193.9611,194.06256,64,40,0
193.9611,194.06256,55,34,0
194.16386,194.26465,55,42,0
194.16386,194.26465,64,50,0
194.36543,194.46657,55,34,0
194.36543,194.46657,64,40,0
194.56804,194.66951,64,40,0
194.56804,194.66951,56,34,0
194.77167,194.87383,56,34,0
194.77167,194.87383,64,40,0
194.97633,195.17792,57,48,0
195.17792,195.38832,55,42,0
195.38832,195.4891,54,42,0
195.58989,195.69492,50,42,0
195.79994,196.00151,49,52,0
196.00151,196.20308,45,46,0
196.20308,196.30386,50,46,0
196.40465,196.50543,54,46,0
196.61588,196.8161,57,53,0
196.8161,197.01633,55,46,0
197.01633,197.11644,54,47,0
197.21655,197.32231,50,47,0
197.42807,197.62964,49,56,0
197.62964,197.83122,45,49,0
197.83122,197.932,50,50,0
198.03279,198.13708,54,50,0
198.24136,198.4416,52,50,0
198.24136,198.4416,45,50,0
198.24136,198.4416,57,60,0
198.64899,198.84921,54,51,0
198.64899,198.84921,50,51,0
198.64899,198.84921,57,60,0
199.06375,199.2667,52,51,0
199.06375,199.2667,45,51,0
199.06375,199.2667,57,61,0
199.47467,199.67761,57,62,0
199.47467,199.67761,50,52,0
199.47467,199.67761,54,52,0
200.09787,200.17502,57,55,0
200.09787,200.17502,52,45,0
200.09787,200.17502,45,45,0
200.09787,200.17502,49,45,0
200.30359,200.38074,57,55,0
200.30359,200.38074,52,45,0
200.30359,200.38074,49,45,0
200.30359,200.38074,45,45,0
200.50931,200.58646,57,55,0
200.50931,200.58646,52,45,0
200.50931,200.58646,49,45,0
200.50931,200.58646,45,45,0
200.71503,201.15474,52,49,0
200.71503,201.15474,49,49,0
200.71503,201.15474,57,58,0
200.71503,201.15474,45,49,0
201.63278,201.8458,62,30,0
201.8458,202.05293,66,23,0
202.05293,202.2706,64,30,0
202.2706,202.47632,67,27,0
202.47632,202.68204,66,32,0
202.68204,202.88776,69,26,0
202.88776,203.09348,62,29,0
203.09348,203.31113,66,26,0
203.31113,203.52118,64,34,0
203.52118,203.7241,71,28,0
203.7241,203.94177,67,32,0
203.94177,204.14749,64,28,0
204.14749,204.35321,61,34,0
204.35321,204.55893,64,29,0
204.55893,204.76465,57,30,0
204.76465,204.9839,67,28,0
204.9839,205.19104,66,34,0
205.19104,205.39397,69,28,0
205.39397,205.59691,61,30,0
205.59691,205.80994,69,28,0
205.80994,206.01707,62,34,0
206.01707,206.21864,69,26,0
206.21864,206.42021,59,29,0
206.42021,206.6363,62,26,0
206.6363,206.84782,57,34,0
206.84782,207.05934,62,27,0
207.05934,207.27087,66,30,0
207.27087,207.48239,62,27,0
207.48239,207.91904,57,33,0
207.48239,207.91904,61,33,0
208.35748,208.57646,62,34,0
208.57646,208.7848,65,27,0
208.7848,209.00246,64,30,0
209.00246,209.20818,67,27,0
209.20818,209.4139,65,32,0
209.4139,209.51675,69,26,0
209.61961,209.82533,62,29,0
209.82533,209.93416,65,26,0
210.043,210.25304,64,34,0
210.25304,210.45596,70,28,0
210.45596,210.67363,67,32,0
210.67363,210.87935,64,28,0
210.87935,211.08507,61,34,0
211.08507,211.18793,64,29,0
211.29079,211.4965,57,30,0
211.4965,211.60612,61,28,0
211.71576,211.92877,62,34,0
211.92877,212.13591,69,27,0
212.13591,212.35358,60,30,0
212.35358,212.5593,69,27,0
212.5593,212.76501,58,32,0
212.76501,212.97073,65,26,0
212.97073,213.17645,64,29,0
213.17645,213.39412,62,26,0
213.39412,213.61177,57,33,0
213.61177,213.82944,62,22,0
213.82944,214.04709,65,28,0
214.04709,214.26476,62,24,0
214.26476,214.4824,57,24,0
214.26476,214.4824,61,31,0
214.4824,214.59123,55,53,0
214.4824,214.59123,43,45,0
214.70007,214.8089,54,57,0
214.70007,214.8089,42,48,0
214.91772,215.02657,40,51,0
214.91772,215.02657,52,61,0
215.13539,215.56197,38,55,0
215.13539,215.56197,50,65,0
215.76768,215.87732,74,49,0
215.98694,216.09196,76,55,0
216.19698,216.29984,74,49,0
216.4027,216.50555,73,58,0
216.60841,216.71725,69,48,0
216.82608,217.25127,74,54,0
217.45558,217.56349,62,49,0
217.6714,217.77716,64,55,0
217.88293,217.9858,62,48,0
218.08865,218.19151,61,54,0
218.29437,218.4032,57,47,0
218.51202,218.61841,62,52,0
218.61841,218.7248,69,35,0
218.7248,218.82765,68,42,0
218.82765,218.93051,69,38,0
218.93051,219.03337,71,47,0
219.03337,219.13623,69,39,0
219.13623,219.24187,68,44,0
219.24187,219.3475,69,40,0
219.3475,219.45251,67,47,0
219.45251,219.55754,69,39,0
219.55754,219.6604,67,41,0
219.6604,219.76326,69,39,0
219.76326,219.86612,67,49,0
219.86612,219.96898,69,39,0
219.96898,220.0778,67,44,0
220.0778,220.18663,69,39,0
220.18663,220.29707,66,39,0
220.29707,220.4075,69,38,0
220.4075,220.51036,68,41,0
220.51036,220.61322,69,37,0
220.61322,220.71608,71,40,0
220.71608,220.81894,69,37,0
220.81894,220.92609,68,44,0
220.92609,221.03322,69,40,0
221.03322,221.14049,67,47,0
221.14049,221.24777,69,42,0
221.24777,221.34993,67,44,0
221.34993,221.45209,69,39,0
221.45209,221.55424,67,49,0
221.55424,221.6564,69,43,0
221.6564,221.76523,67,47,0
221.76523,221.87407,69,39,0
221.87407,222.30939,66,41,0
222.30939,222.41515,66,35,0
222.41515,222.5209,74,29,0
222.5209,222.62666,66,29,0
222.62666,222.73242,74,29,0
222.73242,222.83969,64,35,0
222.83969,222.94698,74,30,0
222.94698,223.05424,64,30,0
223.05424,223.16151,74,30,0
223.16151,223.2736,62,35,0
223.2736,223.38568,74,31,0
223.38568,223.49776,62,31,0
223.49776,223.60985,74,31,0
223.60985,223.7179,67,35,0
223.7179,223.82594,74,30,0
223.82594,223.93399,73,30,0
223.93399,224.05319,74,30,0
224.05319,224.16046,67,35,0
224.16046,224.26773,74,30,0
224.26773,224.37982,73,30,0
224.37982,224.4919,74,30,0
224.4919,224.59842,67,30,0
224.59842,224.70493,74,32,0
224.70493,224.81143,73,32,0
224.81143,224.91795,74,32,0
224.91795,225.02446,67,34,0
225.02446,225.13097,74,30,0
225.13097,225.2465,73,30,0
225.2465,225.36205,74,30,0
225.36205,225.47583,66,37,0
225.47583,225.58961,74,37,0
225.58961,225.7034,73,28,0
225.7034,225.81717,74,28,0
225.81717,225.92294,66,45,0
225.92294,226.0287,74,37,0
226.0287,226.13446,66,37,0
226.13446,226.24022,74,37,0
226.24022,226.34749,64,45,0
226.34749,226.45476,74,39,0
226.45476,226.56204,64,39,0
226.56204,226.66931,74,39,0
226.66931,226.78139,62,45,0
226.78139,226.89348,74,40,0
226.89348,227.00555,62,40,0
227.00555,227.11765,74,40,0
227.11765,227.2257,55,45,0
227.2257,227.33372,64,39,0
227.33372,227.44177,59,39,0
227.44177,227.56099,64,39,0
227.56099,227.66826,55,45,0
227.66826,227.77553,64,39,0
227.77553,227.88762,59,39,0
227.88762,227.9997,64,39,0
227.9997,228.1062,57,39,0
228.1062,228.21272,66,41,0
228.21272,228.31923,62,41,0
228.31923,228.42574,66,41,0
228.42574,228.53638,57,44,0
228.53638,228.64682,67,39,0
228.64682,228.75908,61,39,0
228.75908,228.87373,67,39,0
228.87373,228.98102,62,48,0
228.98102,229.08829,66,42,0
229.08829,229.19872,62,36,0
229.19872,229.33406,66,36,0
229.33406,229.43982,54,35,0
229.43982,229.54558,62,29,0
229.54558,229.65134,54,29,0
229.65134,229.7571,62,29,0
229.7571,229.86438,52,35,0
229.86438,229.97165,62,30,0
229.97165,230.07892,52,30,0
230.07892,230.18619,62,30,0
230.18619,230.29828,50,35,0
230.29828,230.41035,62,31,0
230.41035,230.52245,50,31,0
230.52245,230.63452,62,31,0
230.63452,230.74257,55,35,0
230.74257,230.85062,62,30,0
230.85062,230.95866,61,30,0
230.95866,231.07787,62,30,0
231.07787,231.18513,55,35,0
231.18513,231.29242,62,30,0
231.29242,231.4045,61,30,0
231.4045,231.51659,62,30,0
231.51659,231.6231,55,30,0
231.6231,231.7296,62,32,0
231.7296,231.83612,61,32,0
231.83612,231.94263,62,32,0
231.94263,232.04913,55,34,0
232.04913,232.15565,62,30,0
232.15565,232.27118,61,30,0
232.27118,232.38672,62,30,0
232.38672,232.5005,54,37,0
232.5005,232.61429,62,37,0
232.61429,232.72807,61,28,0
232.72807,232.84186,62,28,0
232.84186,232.94762,42,49,0
232.94762,233.05338,50,40,0
233.05338,233.15913,42,40,0
233.15913,233.2649,50,40,0
233.2649,233.37216,40,49,0
233.37216,233.47945,50,42,0
233.47945,233.58672,40,42,0
233.58672,233.69398,50,42,0
233.69398,233.80608,38,49,0
233.80608,233.91815,50,44,0
233.91815,234.03023,38,44,0
234.03023,234.14232,50,44,0
234.14232,234.25037,43,49,0
234.25037,234.35841,52,42,0
234.35841,234.46645,47,42,0
234.46645,234.58566,52,42,0
234.58566,234.69293,43,49,0
234.69293,234.8002,52,42,0
234.8002,234.9123,47,42,0
234.9123,235.02437,52,42,0
235.02437,235.13089,45,42,0
235.13089,235.2374,54,45,0
235.2374,235.3439,50,45,0
235.3439,235.45042,54,45,0
235.45042,235.56105,45,48,0
235.56105,235.6715,55,42,0
235.6715,235.78377,49,42,0
235.78377,235.89842,55,42,0
235.89842,236.32146,45,59,0
235.89842,236.32146,50,70,0
235.89842,236.32146,38,59,0
236.74449,237.15038,66,45,0
236.74449,237.15038,62,37,0
237.15038,237.57417,67,45,0
237.15038,237.57417,64,37,0
237.57417,237.97731,66,37,0
237.57417,237.97731,69,45,0
239.19925,239.40082,54,38,0
239.40082,239.6024,62,32,0
239.6024,239.80397,50,38,0
239.80397,240.00554,62,33,0
240.00554,240.2071,52,37,0
240.2071,240.40869,62,32,0
240.40869,240.45908,57,37,0
240.61026,240.66428,61,30,0
240.82635,241.23515,50,42,0
240.82635,241.23515,62,42,0
241.6356,241.73708,66,45,0
241.6356,241.73708,62,37,0
241.83855,241.94002,66,38,0
241.83855,241.94002,62,31,0
242.04149,242.14294,67,45,0
242.04149,242.14294,64,37,0
242.24442,242.35484,64,31,0
242.24442,242.35484,67,38,0
242.46529,242.86842,69,45,0
242.46529,242.86842,66,37,0
244.09036,244.29193,54,38,0
244.29193,244.4935,62,32,0
244.4935,244.69508,50,38,0
244.69508,244.89665,62,33,0
244.89665,245.09822,52,37,0
245.09822,245.29979,62,32,0
245.29979,245.50137,57,37,0
245.50137,245.70905,61,32,0
245.70905,245.81183,54,47,0
245.81183,245.91399,62,39,0
245.91399,246.01553,57,39,0
246.01553,246.11674,62,39,0
246.11674,246.21745,54,48,0
246.21745,246.31757,62,40,0
246.31757,246.41768,57,40,0
246.41768,246.52975,62,40,0
246.52975,246.63055,55,48,0
246.63055,246.73134,62,40,0
246.73134,246.83212,59,40,0
246.83212,246.9329,62,40,0
246.9329,247.03369,55,49,0
247.03369,247.13448,62,40,0
247.13448,247.23526,59,40,0
247.23526,247.3441,62,40,0
247.3441,247.44421,57,47,0
247.44421,247.54433,66,38,0
247.54433,247.64444,62,38,0
247.64444,247.74455,66,38,0
247.74455,247.84467,57,48,0
247.84467,247.94478,66,40,0
247.94478,248.04489,62,40,0
248.04489,248.15216,66,40,0
248.15216,248.25227,57,48,0
248.25227,248.35239,67,39,0
248.35239,248.4525,64,39,0
248.4525,248.55261,67,39,0
248.55261,248.65273,57,49,0
248.65273,248.75284,67,40,0
248.75284,248.85295,64,40,0
248.85295,248.961,67,40,0
248.961,249.06541,54,47,0
249.06541,249.16997,62,39,0
249.16997,249.27382,57,41,0
249.27382,249.37694,62,42,0
249.37694,249.47935,54,48,0
249.47935,249.58109,62,41,0
249.58109,249.68256,57,42,0
249.68256,249.79298,62,44,0
249.79298,249.89801,55,52,0
249.89801,249.9988,62,43,0
249.9988,250.09958,59,43,0
250.09958,250.20036,62,43,0
250.20036,250.30115,55,49,0
250.30115,250.40195,62,40,0
250.40195,250.50273,59,40,0
250.50273,250.61078,62,40,0
250.61078,250.71729,57,47,0
250.71729,250.81807,66,37,0
250.81807,250.91885,62,37,0
250.91885,251.01964,66,37,0
251.01964,251.12042,57,48,0
251.12042,251.2212,66,39,0
251.2212,251.322,62,39,0
251.322,251.43083,66,39,0
251.43083,251.53513,57,47,0
251.53513,251.63591,67,37,0
251.63591,251.7367,64,37,0
251.7367,251.83748,67,37,0
251.83748,251.93826,57,48,0
251.93826,252.03905,67,38,0
252.03905,252.13983,64,38,0
252.13983,252.24947,67,38,0
252.24947,252.67856,66,54,0
252.24947,252.67856,62,45,0
252.8931,253.00603,64,55,0
252.8931,253.00603,57,46,0
253.11896,253.54805,66,54,0
253.11896,253.54805,62,45,0
253.76825,253.88116,64,55,0
253.76825,253.88116,57,46,0
253.9941,254.23251,62,52,0
253.9941,254.23251,66,63,0
254.47093,254.72128,58,63,0
254.47093,254.72128,46,52,0
254.97163,255.222,59,63,0
254.97163,255.222,47,52,0
255.97305,256.90054,55,40,0
255.97305,256.90054,43,40,0
256.90054,257.92508,57,40,0
256.90054,257.92508,45,40,0
257.92508,258.47137,50,39,0
258.47137,259.0975,45,39,0
259.0975,259.66986,38,35,0
