start_time,end_time,note_value,velocity,instrument_program_number
0.0019210083,0.230521,79,79,0
0.461042,1.137632,79,71,0
1.137632,1.2458884,77,71,0
1.2458884,1.3487319,76,69,0
1.3541447,1.4624012,76,70,0
1.4624012,1.5706575,74,64,0
1.5706575,1.6789138,72,67,0
1.6789138,1.7871703,71,66,0
1.7871703,1.8704542,72,47,0
1.8612005,1.9444844,74,49,0
1.9352306,2.0185146,72,55,0
2.0092607,2.0925448,74,52,0
2.0832908,2.166575,72,57,0
2.157321,2.240605,74,51,0
2.2313511,2.3146353,72,59,0
2.3053813,2.3886654,74,56,0
2.3794117,2.4895272,72,63,0
2.4534419,2.5616982,74,62,0
2.5616982,2.6699545,76,63,0
2.6699545,3.1178496,67,69,0
3.556318,3.6680915,79,77,0
3.779865,3.8916385,79,73,0
4.003412,4.674053,79,69,0
4.674053,4.7823095,77,64,0
4.7823095,4.885153,76,61,0
4.890566,4.998822,76,64,0
4.998822,5.1070786,74,60,0
5.1070786,5.215335,72,61,0
5.215335,5.323591,71,60,0
5.323591,5.406875,72,47,0
5.3976216,5.4809055,74,49,0
5.4716516,5.5549355,72,55,0
5.545682,5.628966,74,52,0
5.619712,5.702996,72,57,0
5.6937423,5.777026,74,51,0
5.767772,5.851056,72,59,0
5.8418026,5.9250865,74,56,0
5.9158325,6.025948,72,63,0
5.989863,6.0981193,74,62,0
6.0981193,6.2063756,76,63,0
6.2063756,6.6510177,67,62,0
7.086431,7.193574,69,54,0
7.300717,7.40786,72,53,0
7.5150027,7.6174617,77,54,0
7.7199206,7.834582,81,52,0
7.949243,8.165351,84,58,0
8.812894,8.918811,67,56,0
9.024729,9.130646,72,54,0
9.236563,9.338341,76,56,0
9.440119,9.553053,79,53,0
9.665988,9.882095,84,61,0
10.422363,10.5304165,67,63,0
10.5304165,11.827061,79,83,0
11.827061,11.8990965,77,60,0
11.8990965,11.971132,79,68,0
11.971132,12.043167,77,68,0
12.043167,12.151221,76,76,0
12.151221,12.2592745,77,71,0
12.2592745,12.709252,75,78,0
12.709252,13.142278,76,76,0
13.993305,14.20514,69,57,0
14.20514,14.311057,72,57,0
14.311057,14.416974,69,52,0
14.416974,14.522892,77,57,0
14.522892,14.628809,72,51,0
14.628809,14.734726,81,55,0
14.734726,14.840643,77,50,0
14.840643,15.062964,84,63,0
15.714716,15.92655,67,59,0
15.92655,16.032467,72,59,0
16.032467,16.138386,67,53,0
16.138386,16.244303,76,59,0
16.244303,16.35022,72,52,0
16.35022,16.456137,79,57,0
16.456137,16.562054,76,50,0
16.562054,16.782837,84,63,0
17.436022,17.649302,81,85,0
17.649302,17.862581,79,74,0
17.862581,17.969221,77,79,0
18.075863,18.182503,76,73,0
18.289143,18.502422,76,85,0
18.502422,18.715702,74,73,0
18.715702,18.822344,72,79,0
18.928984,19.035624,71,73,0
19.142263,19.271984,72,82,0
19.250364,19.380085,67,69,0
19.358463,19.488184,69,70,0
19.466564,19.596285,71,68,0
19.574665,19.704386,72,73,0
19.682766,19.812485,74,72,0
19.790865,19.920586,76,76,0
19.898966,20.028687,77,74,0
20.007067,20.136787,79,77,0
20.115168,20.244886,81,72,0
20.223267,20.352987,83,77,0
20.331367,20.439468,84,71,0
20.439468,20.551962,79,75,0
20.664457,20.77695,79,72,0
21.00194,21.114433,79,54,0
21.114433,21.226929,81,54,0
21.226929,21.339422,79,51,0
21.451918,21.564411,77,54,0
21.564411,21.676907,79,54,0
21.676907,21.7894,77,51,0
21.901896,22.014389,76,54,0
22.014389,22.126883,77,54,0
22.126883,22.239378,76,50,0
22.351871,22.464367,74,54,0
22.464367,22.57686,76,54,0
22.57686,22.689356,74,53,0
22.689356,22.819263,72,79,0
22.797611,22.927519,67,72,0
22.905869,23.035776,69,76,0
23.014124,23.144032,71,73,0
23.122381,23.252289,72,79,0
23.230637,23.360544,74,75,0
23.338894,23.468801,76,80,0
23.44715,23.577057,77,74,0
23.555407,23.685314,79,78,0
23.663662,23.79357,81,74,0
23.77192,23.901827,83,79,0
23.880175,23.988432,84,72,0
23.988432,24.100925,79,75,0
24.21342,24.325914,79,72,0
24.550903,24.663399,79,54,0
24.663399,24.775892,81,54,0
24.775892,24.888388,79,51,0
25.000881,25.113375,77,54,0
25.113375,25.22587,79,54,0
25.22587,25.338364,77,50,0
25.45086,25.563353,76,54,0
25.563353,25.675848,77,54,0
25.675848,25.788342,76,51,0
25.900837,26.01333,74,54,0
26.01333,26.125826,76,54,0
26.125826,26.23832,74,51,0
26.23832,26.917086,72,81,0
26.917086,27.025341,74,73,0
27.025341,27.133598,76,68,0
27.133598,27.24909,77,82,0
27.36458,27.797606,77,79,0
27.797606,27.905863,79,76,0
27.905863,28.014118,81,71,0
28.014118,28.23063,79,83,0
28.23063,28.447144,76,78,0
28.447144,28.559639,84,81,0
28.672132,28.784628,84,79,0
28.897121,29.005817,86,78,0
29.005817,29.114513,84,71,0
29.114513,29.22321,83,74,0
29.22321,29.32647,81,68,0
29.331903,29.446566,81,69,0
29.446566,29.561228,79,63,0
29.561228,29.691866,77,67,0
29.691866,29.822506,76,64,0
29.822506,30.488777,79,68,0
30.488777,30.710867,76,67,0
30.710867,31.162336,74,61,0
31.62583,31.849377,73,60,0
31.849377,32.072926,74,56,0
32.072926,32.18118,72,55,0
32.18118,32.289436,71,52,0
32.289436,32.397694,69,55,0
32.397694,32.50595,67,53,0
32.50595,32.729496,73,61,0
32.729496,32.953045,74,59,0
32.953045,33.0613,72,55,0
33.0613,33.169556,71,52,0
33.169556,33.291687,69,55,0
33.291687,33.413815,67,53,0
33.413815,33.6403,75,64,0
33.6403,33.866783,76,60,0
33.866783,33.980026,76,63,0
34.093266,34.20651,76,57,0
34.31975,34.764393,76,63,0
35.084312,35.190952,69,64,0
35.190952,35.844074,81,82,0
35.844074,35.91664,79,72,0
35.91664,35.989212,78,69,0
35.989212,36.06178,76,66,0
36.06178,36.300747,74,80,0
36.300747,36.41473,86,75,0
36.52871,36.642693,86,78,0
36.756676,36.876846,86,74,0
36.99702,37.56893,86,85,0
37.56893,37.689106,83,70,0
37.689106,37.80928,86,73,0
37.80928,37.92945,83,70,0
37.92945,38.38119,79,72,0
38.854095,39.078915,73,60,0
39.078915,39.303738,74,58,0
39.303738,39.41199,72,54,0
39.41199,39.52025,71,51,0
39.52025,39.628506,69,54,0
39.628506,39.736763,67,52,0
39.736763,39.847805,73,54,0
39.847805,39.95885,74,53,0
39.95885,40.069897,76,55,0
40.069897,40.180943,74,57,0
40.180943,40.2892,72,56,0
40.2892,40.397457,71,55,0
40.397457,40.519585,69,54,0
40.519585,40.641716,67,54,0
40.641716,40.87055,75,64,0
40.87055,41.093662,76,63,0
41.09938,41.2138,76,63,0
41.328213,41.44263,76,60,0
41.55705,42.011456,76,63,0
42.443855,42.573578,81,77,0
42.551956,42.68168,83,71,0
42.660057,42.78978,84,77,0
42.768158,42.897877,83,72,0
42.87626,43.005978,81,78,0
42.98436,43.11408,79,74,0
43.09246,43.22218,78,78,0
43.200558,43.33028,76,73,0
43.30866,43.43838,74,73,0
43.41676,43.546482,78,75,0
43.52486,43.65458,81,77,0
43.63296,43.76268,79,72,0
43.741062,43.87078,78,75,0
43.849163,43.97888,76,72,0
43.957264,44.086983,74,74,0
44.06536,44.19611,72,67,0
44.173462,44.39995,71,78,0
44.62643,44.683052,72,67,0
44.683052,44.73967,74,63,0
44.73967,44.79629,72,67,0
44.79629,44.852913,74,63,0
44.852913,44.909534,72,67,0
44.92841,45.003902,71,76,0
45.003902,45.079395,72,72,0
45.079395,45.29591,74,81,0
45.801105,45.883587,76,53,0
45.883587,45.955757,78,53,0
45.955757,46.388783,79,61,0
46.388783,46.713554,79,56,0
46.713554,46.821808,79,54,0
46.821808,47.254833,79,56,0
47.254833,47.36309,78,55,0
47.36309,47.471348,76,52,0
47.471348,47.579605,74,53,0
47.579605,47.68786,72,51,0
47.68786,47.90995,71,77,0
48.132042,48.187565,72,67,0
48.187565,48.243088,74,63,0
48.243088,48.29861,72,67,0
48.29861,48.35413,74,63,0
48.35413,48.409653,72,67,0
48.42816,48.502193,71,76,0
48.502193,48.57622,72,72,0
48.57622,48.792736,74,82,0
49.29793,49.377586,76,53,0
49.377586,49.45724,78,51,0
49.45724,49.89027,79,61,0
49.89027,50.21504,79,55,0
50.21504,50.323296,79,54,0
50.323296,50.75632,79,55,0
50.75632,50.864574,78,54,0
50.864574,50.97283,76,53,0
50.97283,51.08109,74,54,0
51.08109,51.189346,72,50,0
51.189346,51.305626,71,79,0
51.4219,51.55181,79,70,0
51.53016,51.66007,81,72,0
51.638416,51.768322,83,76,0
51.746674,51.87658,81,72,0
51.854927,51.984837,79,77,0
51.963184,52.093094,78,72,0
52.07144,52.201347,76,77,0
52.1797,52.310204,74,72,0
52.288414,52.41953,72,77,0
52.3976,52.529316,71,72,0
52.507248,52.639656,69,74,0
52.617588,52.75061,67,72,0
52.7284,52.86204,66,75,0
52.839687,52.976517,64,69,0
52.951942,53.19768,62,81,0
53.443424,54.36735,60,89,0
54.36735,54.82932,59,72,0
55.060303,55.168556,57,55,0
55.276814,55.38507,60,55,0
55.49333,55.60158,64,53,0
55.70984,55.926353,68,55,0
55.926353,56.142864,69,53,0
56.142864,56.368732,72,55,0
56.368732,56.594604,76,54,0
56.594604,56.827164,76,63,0
56.827164,57.04034,67,55,0
57.05972,57.963432,67,55,0
57.963432,58.188423,71,56,0
58.188423,58.41341,69,54,0
57.963432,58.41341,66,56,0
58.41341,58.87853,67,54,0
59.343643,59.560158,74,75,0
59.560158,59.77667,71,67,0
59.77667,59.993183,79,54,0
59.993183,60.102833,78,53,0
60.21248,60.32213,76,51,0
60.431778,60.541428,74,49,0
60.651077,60.760727,72,48,0
60.870377,60.980022,71,50,0
61.089672,61.311764,69,53,0
61.533855,61.755943,71,54,0
61.978035,62.201584,74,58,0
62.201584,62.42513,73,54,0
62.42513,62.648678,72,51,0
62.872223,63.088737,71,51,0
63.088737,63.30525,72,54,0
63.30525,63.521763,74,57,0
63.521763,63.630016,75,59,0
63.738274,63.8049,76,49,0
63.8049,63.87153,78,51,0
63.87153,63.938156,76,54,0
63.938156,64.00478,78,56,0
64.00478,64.07141,76,58,0
64.07141,64.179665,78,62,0
64.179665,64.287926,79,68,0
64.39618,64.50443,78,64,0
64.61269,64.72095,76,63,0
64.8292,64.93769,74,59,0
65.04664,65.15559,72,60,0
65.26501,65.38204,71,56,0
65.49462,65.8321,74,64,0
65.8321,65.944595,71,59,0
65.944595,66.18,69,55,0
66.415405,66.74017,74,86,0
66.74017,66.794304,76,81,0
66.794304,66.848434,78,78,0
66.848434,67.06495,79,86,0
67.06495,67.1732,78,62,0
67.281456,67.38972,76,62,0
67.49797,67.60623,74,58,0
67.714485,67.82274,72,62,0
67.931,68.03925,71,57,0
68.14751,68.368195,69,63,0
68.58888,68.80956,71,70,0
69.03025,69.25094,72,72,0
69.47209,69.69418,73,78,0
69.917244,70.14079,74,83,0
70.365776,70.59126,75,83,0
70.81775,71.15969,76,87,0
71.15969,71.26795,64,82,0
71.26795,71.597824,72,72,0
71.597824,71.70936,69,72,0
72.10309,72.15933,71,57,0
71.70936,72.15933,67,69,0
72.15933,72.59236,66,63,0
72.15933,72.59236,69,63,0
72.59236,73.02538,67,71,0
73.13364,73.2419,79,74,0
73.2419,73.35015,81,77,0
73.35015,73.45841,79,73,0
73.45841,73.566666,76,78,0
73.566666,73.67492,79,74,0
73.67492,73.78318,81,77,0
73.78318,73.89143,79,74,0
73.89143,73.99969,84,81,0
73.99969,74.10795,79,76,0
74.10795,74.2162,76,78,0
74.2162,74.32446,72,73,0
74.32446,74.43695,79,83,0
74.549446,74.66194,79,81,0
74.88269,74.99095,79,73,0
74.99095,75.099205,81,77,0
75.099205,75.207466,79,73,0
75.207466,75.31572,76,78,0
75.31572,75.42397,79,74,0
75.42397,75.532234,81,76,0
75.532234,75.64049,79,74,0
75.64049,75.74874,84,81,0
75.74874,75.857,79,75,0
75.857,75.965256,76,77,0
75.965256,76.07352,72,73,0
76.07352,76.18529,79,84,0
76.29706,76.40884,79,82,0
76.62887,76.73712,74,55,0
76.73712,76.845375,78,55,0
76.845375,76.953636,74,53,0
76.953636,77.06468,79,59,0
77.17573,77.286766,79,59,0
77.50607,77.61433,74,54,0
77.61433,77.72258,78,54,0
77.72258,77.83084,74,52,0
77.83084,77.94189,79,59,0
78.05293,78.16398,79,59,0
78.38328,78.49153,74,67,0
78.49153,78.59979,81,71,0
78.59979,78.708046,74,69,0
78.708046,78.8163,83,75,0
78.8163,78.92502,74,73,0
78.92502,79.0342,83,79,0
79.0342,79.14385,74,76,0
79.14385,79.254425,84,83,0
79.254425,79.36547,74,81,0
79.36547,79.47725,84,88,0
79.47725,79.5895,74,84,0
79.5895,79.81599,86,91,0
79.81599,80.042465,83,79,0
80.042465,80.26895,79,84,0
80.26895,80.49544,83,73,0
80.49544,80.72192,74,78,0
80.72192,80.9484,79,70,0
80.9484,81.17489,71,72,0
81.17489,81.40137,74,68,0
81.40137,81.622055,69,60,0
81.622055,81.84274,76,63,0
81.84274,81.95309,74,63,0
81.95309,82.06342,72,60,0
82.06342,82.17377,71,63,0
82.17377,82.28411,69,60,0
82.28411,82.737076,67,63,0
82.737076,82.79747,66,60,0
82.79747,82.85787,67,63,0
82.85787,82.91827,66,60,0
82.91827,82.97866,67,63,0
82.97866,83.039055,66,63,0
83.039055,83.11455,64,63,0
83.11455,83.19005,66,60,0
83.19005,83.62307,67,77,0
83.73133,83.839584,79,74,0
83.839584,83.94784,81,77,0
83.94784,84.0561,79,75,0
84.0561,84.16435,76,81,0
84.16435,84.272606,79,75,0
84.272606,84.38087,81,79,0
84.38087,84.48912,79,75,0
84.48912,84.59738,84,81,0
84.59738,84.705635,79,78,0
84.705635,84.81389,76,79,0
84.81389,84.92215,72,75,0
84.92215,85.03392,79,84,0
85.14569,85.25747,79,81,0
85.4775,85.585754,79,75,0
85.585754,85.69401,81,77,0
85.69401,85.80227,79,73,0
85.80227,85.91052,76,81,0
85.91052,86.018776,79,75,0
86.018776,86.12704,81,78,0
86.12704,86.23529,79,77,0
86.23529,86.34355,84,81,0
86.34355,86.451805,79,76,0
86.451805,86.56006,76,78,0
86.56006,86.66832,72,75,0
86.66832,86.779366,79,84,0
86.89041,87.00146,79,82,0
87.22076,87.32901,74,54,0
87.32901,87.43727,78,54,0
87.43727,87.545525,74,50,0
87.545525,87.65657,79,56,0
87.76762,87.87866,79,57,0
88.09796,88.206215,74,54,0
88.206215,88.314476,78,54,0
88.314476,88.42273,74,50,0
88.42273,88.53451,79,57,0
88.64628,88.75805,79,57,0
88.97808,89.086334,74,67,0
89.086334,89.194595,81,71,0
89.194595,89.30285,74,66,0
89.30285,89.41111,83,75,0
89.41111,89.51982,74,73,0
89.51982,89.629005,83,81,0
89.629005,89.738655,74,77,0
89.738655,89.849236,84,84,0
89.849236,89.96027,74,82,0
89.96027,90.07205,84,90,0
90.07205,90.1843,74,85,0
90.1843,90.29608,86,94,0
90.29608,90.40785,83,85,0
90.40785,90.51962,86,89,0
90.51962,90.6314,83,83,0
90.6314,90.74317,79,87,0
90.74317,90.85494,83,81,0
90.85494,90.96672,79,85,0
90.96672,91.07849,83,81,0
91.07849,91.19027,74,86,0
91.19027,91.30204,79,80,0
91.30204,91.41381,74,81,0
91.41381,91.52559,79,74,0
91.52559,91.63736,71,73,0
91.63736,91.74913,74,68,0
91.74913,91.86091,71,68,0
91.86091,91.97268,74,63,0
91.97268,92.08896,69,54,0
92.08896,92.20524,76,51,0
92.20524,92.32152,75,54,0
92.32152,92.4378,76,52,0
92.4378,92.55408,74,54,0
92.55408,92.67036,72,51,0
92.67036,92.78664,71,54,0
92.78664,92.902916,69,52,0
92.902916,93.35588,67,63,0
93.35588,93.416275,66,60,0
93.416275,93.47667,67,63,0
93.47667,93.53707,66,60,0
93.53707,93.598915,67,63,0
93.598915,93.66513,66,63,0
93.66513,93.7479,64,63,0
93.7479,93.830666,66,60,0
93.830666,94.16947,67,86,0
94.16947,94.28241,62,81,0
94.28241,94.62121,71,86,0
94.62121,94.734146,67,81,0
94.734146,94.973305,74,87,0
95.21246,95.34237,81,54,0
95.32072,95.45062,79,51,0
95.42898,95.55888,78,54,0
95.53723,95.667694,76,52,0
95.645485,95.86758,74,57,0
96.08967,96.219574,76,54,0
96.19792,96.327835,74,51,0
96.30618,96.43609,72,54,0
96.41444,96.54491,71,51,0
96.5227,96.74478,69,57,0
96.96687,97.09679,74,56,0
97.075134,97.20504,72,56,0
97.18339,97.31329,71,56,0
97.29164,97.4224,69,53,0
97.3999,97.5124,67,84,0
97.5124,97.62489,62,80,0
97.62489,97.73738,67,84,0
97.73738,97.84988,62,80,0
97.84988,97.96237,71,84,0
97.96237,98.07487,67,80,0
98.07487,98.18736,71,84,0
98.18736,98.29986,67,80,0
98.29986,98.54289,74,84,0
98.78592,98.91583,81,55,0
98.89418,99.024086,79,52,0
99.00243,99.13234,78,55,0
99.11069,99.24159,76,52,0
99.21895,99.33219,74,58,0
99.445435,99.55867,74,58,0
99.67191,99.80182,76,54,0
99.780174,99.91008,74,51,0
99.88843,100.01833,72,54,0
99.99668,100.12701,71,50,0
100.10494,100.21625,69,57,0
100.32949,100.44273,69,57,0
100.55598,100.68588,74,55,0
100.66423,100.794136,72,53,0
100.772484,100.9024,71,55,0
100.880745,101.013306,69,52,0
100.989,101.47507,67,58,0
101.47507,101.72789,62,54,0
101.47507,101.72789,71,54,0
101.98071,102.22375,59,56,0
101.98071,102.22375,67,56,0
102.954765,103.183365,79,79,0
103.41389,104.09048,79,71,0
104.09048,104.19873,77,71,0
104.19873,104.301575,76,69,0
104.30699,104.415245,76,70,0
104.415245,104.5235,74,64,0
104.5235,104.63176,72,67,0
104.63176,104.74001,71,66,0
104.74001,104.823296,72,47,0
104.81404,104.89733,74,49,0
104.88808,104.97136,72,55,0
104.962105,105.04539,74,52,0
105.03613,105.119415,72,57,0
105.11017,105.19345,74,51,0
105.1842,105.26748,72,59,0
105.258224,105.34151,74,56,0
105.33225,105.44237,72,63,0
105.40629,105.51454,74,62,0
105.51454,105.622795,76,63,0
105.622795,106.070694,67,69,0
106.50916,106.62093,79,77,0
106.73271,106.84448,79,73,0
106.95625,107.6269,79,69,0
107.6269,107.73515,77,64,0
107.73515,107.838,76,61,0
107.84341,107.95167,76,64,0
107.95167,108.05992,74,60,0
108.05992,108.16818,72,61,0
108.16818,108.276436,71,60,0
108.276436,108.35972,72,47,0
108.350464,108.43375,74,49,0
108.4245,108.50778,72,55,0
108.49853,108.58181,74,52,0
108.572556,108.65584,72,57,0
108.64658,108.72987,74,51,0
108.72062,108.8039,72,59,0
108.79465,108.87793,74,56,0
108.868675,108.97879,72,63,0
108.9427,109.050964,74,62,0
109.050964,109.15922,76,63,0
109.15922,109.60386,67,62,0
110.039276,110.141014,69,54,0
110.242744,110.34448,72,53,0
110.44622,110.54796,77,54,0
110.6497,110.76435,81,52,0
110.87901,111.09512,84,58,0
111.74267,111.8458,67,56,0
111.94894,112.05207,72,54,0
112.155205,112.25699,76,56,0
112.358765,112.471695,79,53,0
112.58463,112.80074,84,61,0
113.34101,113.44906,67,63,0
113.44906,114.745705,79,83,0
114.745705,114.81774,77,60,0
114.81774,114.88978,79,68,0
114.88978,114.961815,77,68,0
114.961815,115.06986,76,76,0
115.06986,115.17792,77,71,0
115.17792,115.6279,75,78,0
115.6279,116.06092,76,76,0
116.91195,117.12379,69,57,0
117.12379,117.2297,72,57,0
117.2297,117.33562,69,52,0
117.33562,117.43467,77,57,0
117.43467,117.533714,72,51,0
117.533714,117.63277,81,55,0
117.63277,117.73182,77,50,0
117.73182,117.95414,84,63,0
118.60589,118.817726,67,59,0
118.817726,118.92364,72,59,0
118.92364,119.02956,67,53,0
119.02956,119.12861,76,59,0
119.12861,119.22765,72,52,0
119.22765,119.326706,79,57,0
119.326706,119.42575,76,50,0
119.42575,119.64654,84,63,0
120.29972,120.513,81,85,0
120.513,120.72628,79,74,0
120.72628,120.832924,77,79,0
120.93956,121.0462,76,73,0
121.15284,121.36612,76,85,0
121.36612,121.5794,74,73,0
121.5794,121.68604,72,79,0
121.79269,121.89932,71,73,0
122.00597,122.13568,72,82,0
122.11407,122.24378,67,69,0
122.22216,122.35188,69,70,0
122.33026,122.459984,71,68,0
122.43836,122.568085,72,73,0
122.54646,122.676186,74,72,0
122.654564,122.78429,76,76,0
122.762665,122.89239,77,74,0
122.870766,123.00049,79,77,0
122.97887,123.10859,81,72,0
123.08697,123.21669,83,77,0
123.19507,123.30317,84,71,0
123.30317,123.415665,79,75,0
123.52815,123.64065,79,72,0
123.86564,123.978134,79,54,0
123.978134,124.09063,81,54,0
124.09063,124.203125,79,51,0
124.31562,124.42811,77,54,0
124.42811,124.5406,79,54,0
124.5406,124.6531,77,51,0
124.765594,124.87809,76,54,0
124.87809,124.990585,77,54,0
124.990585,125.10308,76,50,0
125.21557,125.328064,74,54,0
125.328064,125.44056,76,54,0
125.44056,125.553055,74,53,0
125.553055,125.68296,72,79,0
125.66131,125.79122,67,72,0
125.76957,125.899475,69,76,0
125.87782,126.00773,71,73,0
125.986084,126.11599,72,79,0
126.09434,126.22424,74,75,0
126.20259,126.332504,76,80,0
126.31085,126.44076,77,74,0
126.419106,126.54901,79,78,0
126.52736,126.65727,81,74,0
126.63562,126.765526,83,79,0
126.74387,126.852135,84,72,0
126.852135,126.96462,79,75,0
127.07712,127.1967,79,72,0
127.42869,127.5411,79,54,0
127.5411,127.65351,81,54,0
127.65351,127.76592,79,51,0
127.87833,127.99074,77,54,0
127.99074,128.10315,79,54,0
128.10315,128.21556,77,50,0
128.32797,128.44038,76,54,0
128.44038,128.5528,77,54,0
128.5528,128.6652,76,51,0
128.7776,128.89001,74,54,0
128.89001,129.00243,76,54,0
129.00243,129.11484,74,51,0
129.11484,129.79361,72,81,0
129.79361,129.90186,74,73,0
129.90186,130.01012,76,68,0
130.01012,130.12561,77,82,0
130.2411,130.67413,77,79,0
130.67413,130.78238,79,76,0
130.78238,130.89064,81,71,0
130.89064,131.10715,79,83,0
131.10715,131.32367,76,78,0
131.32367,131.43616,84,81,0
131.54866,131.66115,84,79,0
131.77364,131.88234,86,78,0
131.88234,131.99103,84,71,0
131.99103,132.09973,83,74,0
132.09973,132.20299,81,68,0
132.20842,132.32309,81,69,0
132.32309,132.43774,79,63,0
132.43774,132.57481,77,67,0
132.57481,132.71187,76,64,0
132.71187,133.37814,79,68,0
133.37814,133.60023,76,67,0
133.60023,134.0517,74,61,0
134.5152,134.73874,73,60,0
134.73874,134.9623,74,56,0
134.9623,135.07054,72,55,0
135.07054,135.1788,71,52,0
135.1788,135.28706,69,55,0
135.28706,135.39531,67,53,0
135.39531,135.61887,73,61,0
135.61887,135.8424,74,59,0
135.8424,135.95067,72,55,0
135.95067,136.05891,71,52,0
136.05891,136.18105,69,55,0
136.18105,136.30318,67,53,0
136.30318,136.53494,75,64,0
136.53494,136.75977,76,60,0
136.75977,136.87218,76,63,0
136.98459,137.097,76,57,0
137.20941,137.65405,76,63,0
137.97397,138.08061,69,64,0
138.08061,138.73373,81,82,0
138.73373,138.8063,79,72,0
138.8063,138.87888,78,69,0
138.87888,138.95145,76,66,0
138.95145,139.19041,74,80,0
139.19041,139.30438,86,75,0
139.41837,139.53235,86,78,0
139.64633,139.76651,86,74,0
139.88667,140.45859,86,85,0
140.45859,140.57877,83,70,0
140.57877,140.69894,86,73,0
140.69894,140.8191,83,70,0
140.8191,141.27084,79,72,0
141.74376,141.96858,73,60,0
141.96858,142.19339,74,58,0
142.19339,142.30165,72,54,0
142.30165,142.40991,71,51,0
142.40991,142.51816,69,54,0
142.51816,142.62642,67,52,0
142.62642,142.73747,73,54,0
142.73747,142.84851,74,53,0
142.84851,142.95956,76,55,0
142.95956,143.0706,74,57,0
143.0706,143.17886,72,56,0
143.17886,143.28711,71,55,0
143.28711,143.40924,69,54,0
143.40924,143.53137,67,54,0
143.53137,143.76021,75,64,0
143.76021,143.98332,76,63,0
143.98904,144.10345,76,63,0
144.21788,144.33229,76,60,0
144.4467,144.90111,76,63,0
145.33351,145.46324,81,77,0
145.44162,145.57133,83,71,0
145.54971,145.67944,84,77,0
145.65782,145.78754,83,72,0
145.76591,145.89565,81,78,0
145.87402,146.00374,79,74,0
145.98212,146.11183,78,78,0
146.09023,146.21994,76,73,0
146.19832,146.32803,74,73,0
146.30643,146.43614,78,75,0
146.41452,146.54424,81,77,0
146.52261,146.65234,79,72,0
146.63072,146.76044,78,75,0
146.73882,146.86855,76,72,0
146.84692,146.97664,74,74,0
146.95502,147.08577,72,67,0
147.06313,147.28961,71,78,0
147.51608,147.57271,72,67,0
147.57271,147.62933,74,63,0
147.62933,147.68596,72,67,0
147.68596,147.74257,74,63,0
147.74257,147.7992,72,67,0
147.81807,147.89355,71,76,0
147.89355,147.96906,72,72,0
147.96906,148.18556,74,81,0
148.69077,148.77324,76,53,0
148.77324,148.84541,78,53,0
148.84541,149.27844,79,61,0
149.27844,149.60321,79,56,0
149.60321,149.71147,79,54,0
149.71147,150.1445,79,56,0
150.1445,150.25275,78,55,0
150.25275,150.36101,76,52,0
150.36101,150.46927,74,53,0
150.46927,150.57751,72,51,0
150.57751,150.7996,71,77,0
151.0217,151.07722,72,67,0
151.07722,151.13275,74,63,0
151.13275,151.18826,72,67,0
151.18826,151.24379,74,63,0
151.24379,151.29932,72,67,0
151.31783,151.39185,71,76,0
151.39185,151.46588,72,72,0
151.46588,151.68239,74,82,0
152.18759,152.26724,76,53,0
152.26724,152.34691,78,51,0
152.34691,152.77992,79,61,0
152.77992,153.10469,79,55,0
153.10469,153.21295,79,54,0
153.21295,153.64598,79,55,0
153.64598,153.75424,78,54,0
153.75424,153.86249,76,53,0
153.86249,153.97075,74,54,0
153.97075,154.07901,72,50,0
154.07901,154.19528,71,79,0
154.31157,154.44147,79,70,0
154.41982,154.54973,81,72,0
154.52808,154.65799,83,76,0
154.63634,154.76624,81,72,0
154.74458,154.8745,79,77,0
154.85284,154.98276,78,72,0
154.9611,155.091,76,77,0
155.06935,155.19986,74,72,0
155.17807,155.30919,72,77,0
155.28726,155.41898,71,72,0
155.39691,155.52931,69,74,0
155.50725,155.64027,67,72,0
155.61806,155.75171,66,75,0
155.72935,155.86618,64,69,0
155.8416,156.08734,62,81,0
156.33308,157.25702,60,89,0
157.25702,157.71898,59,72,0
157.94997,158.05821,57,55,0
158.16647,158.27473,60,55,0
158.38298,158.49124,64,53,0
158.5995,158.81601,68,55,0
158.81601,159.03253,69,53,0
159.03253,159.25839,72,55,0
159.25839,159.48427,76,54,0
159.48427,159.71683,76,63,0
159.71683,159.93,67,55,0
159.94939,160.85309,67,55,0
160.85309,161.07808,71,56,0
161.07808,161.30307,69,54,0
160.85309,161.30307,66,56,0
161.30307,161.76819,67,54,0
162.2333,162.44981,74,75,0
162.44981,162.66634,71,67,0
162.66634,162.88284,79,54,0
162.88284,162.9925,78,53,0
163.10214,163.21179,76,51,0
163.32144,163.43109,74,49,0
163.54074,163.65039,72,48,0
163.76004,163.86969,71,50,0
163.97934,164.20142,69,53,0
164.42351,164.6456,71,54,0
164.86769,165.09125,74,58,0
165.09125,165.31479,73,54,0
165.31479,165.53833,72,51,0
165.76189,165.9784,71,51,0
165.9784,166.19492,72,54,0
166.19492,166.41142,74,57,0
166.41142,166.51968,75,59,0
166.62793,166.69456,76,49,0
166.69456,166.76118,78,51,0
166.76118,166.82782,76,54,0
166.82782,166.89444,78,56,0
166.89444,166.96107,76,58,0
166.96107,167.06932,78,62,0
167.06932,167.17758,79,68,0
167.28584,167.39409,78,64,0
167.50235,167.61061,76,63,0
167.71886,167.82735,74,59,0
167.9363,168.04524,72,60,0
168.15466,168.2717,71,56,0
168.38428,168.72176,74,64,0
168.72176,168.83426,71,59,0
168.83426,169.06966,69,55,0
169.30507,169.62984,74,86,0
169.62984,169.68396,76,81,0
169.68396,169.7381,78,78,0
169.7381,169.9546,79,86,0
169.9546,170.06287,78,62,0
170.17111,170.27937,76,62,0
170.38763,170.49588,74,58,0
170.60414,170.7124,72,62,0
170.82066,170.92891,71,57,0
171.03717,171.25786,69,63,0
171.47855,171.69922,71,70,0
171.9199,172.1406,72,72,0
172.36176,172.58385,73,78,0
172.8069,173.03046,74,83,0
173.25543,173.48093,75,83,0
173.70741,174.04935,76,87,0
174.04935,174.15761,64,82,0
174.15761,174.48749,72,72,0
174.48749,174.59901,69,72,0
174.99275,175.049,71,57,0
174.59901,175.049,67,69,0
175.049,175.48203,66,63,0
175.049,175.48203,69,63,0
175.48203,175.91895,67,71,0
176.025,176.13104,79,74,0
176.13104,176.23709,81,77,0
176.23709,176.34315,79,73,0
176.34315,176.4492,76,78,0
176.4492,176.55525,79,74,0
176.55525,176.6613,81,77,0
176.6613,176.76736,79,74,0
176.76736,176.87341,84,81,0
176.87341,176.97946,79,76,0
176.97946,177.08551,76,78,0
177.08551,177.19156,72,73,0
177.19156,177.30406,79,83,0
177.41655,177.53067,79,81,0
177.75305,177.86131,79,73,0
177.86131,177.96956,81,77,0
177.96956,178.07782,79,73,0
178.07782,178.18608,76,78,0
178.18608,178.29433,79,74,0
178.29433,178.40259,81,76,0
178.40259,178.51085,79,74,0
178.51085,178.61911,84,81,0
178.61911,178.72736,79,75,0
178.72736,178.83562,76,77,0
178.83562,178.94388,72,73,0
178.94388,179.05565,79,84,0
179.16742,179.28513,79,82,0
179.51108,179.61934,74,55,0
179.61934,179.72247,78,55,0
179.72247,179.8256,74,53,0
179.8256,179.93665,79,59,0
180.0477,180.15874,79,59,0
180.37805,180.4863,74,54,0
180.4863,180.58943,78,54,0
180.58943,180.69257,74,52,0
180.69257,180.80362,79,59,0
180.91466,181.02571,79,59,0
181.24501,181.35327,74,67,0
181.35327,181.46152,81,71,0
181.46152,181.56978,74,69,0
181.56978,181.67804,83,75,0
181.67804,181.78676,74,73,0
181.78676,181.89594,83,79,0
181.89594,182.00558,74,76,0
182.00558,182.11617,84,83,0
182.11617,182.2272,74,81,0
182.2272,182.33897,84,88,0
182.33897,182.45123,74,84,0
182.45123,182.67772,86,91,0
182.67772,182.9042,83,79,0
182.9042,183.13069,79,84,0
183.13069,183.35716,83,73,0
183.35716,183.58365,74,78,0
183.58365,183.81013,79,70,0
183.81013,184.03662,71,72,0
184.03662,184.2631,74,68,0
184.2631,184.48378,69,60,0
184.48378,184.70447,76,63,0
184.70447,184.81482,74,63,0
184.81482,184.92516,72,60,0
184.92516,185.0355,71,63,0
185.0355,185.14584,69,60,0
185.14584,185.59882,67,63,0
185.59882,185.65921,66,60,0
185.65921,185.7196,67,63,0
185.7196,185.78,66,60,0
185.78,185.8404,67,63,0
185.8404,185.90079,66,63,0
185.90079,185.97629,64,63,0
185.97629,186.05177,66,60,0
186.05177,186.4848,67,77,0
186.59306,186.70131,79,74,0
186.70131,186.80957,81,77,0
186.80957,186.91783,79,75,0
186.91783,187.02608,76,81,0
187.02608,187.13434,79,75,0
187.13434,187.2426,81,79,0
187.2426,187.35086,79,75,0
187.35086,187.4591,84,81,0
187.4591,187.56737,79,78,0
187.56737,187.67563,76,79,0
187.67563,187.78387,72,75,0
187.78387,187.89566,79,84,0
188.00743,188.1192,79,81,0
188.33923,188.44748,79,75,0
188.44748,188.55574,81,77,0
188.55574,188.664,79,73,0
188.664,188.77226,76,81,0
188.77226,188.88051,79,75,0
188.88051,188.98877,81,78,0
188.98877,189.09703,79,77,0
189.09703,189.20528,84,81,0
189.20528,189.31354,79,76,0
189.31354,189.4218,76,78,0
189.4218,189.53004,72,75,0
189.53004,189.6411,79,84,0
189.75214,189.86319,79,82,0
190.08249,190.19075,74,54,0
190.19075,190.29388,78,54,0
190.29388,190.39702,74,50,0
190.39702,190.50806,79,56,0
190.61911,190.73015,79,57,0
190.94945,191.05771,74,54,0
191.05771,191.16084,78,54,0
191.16084,191.26398,74,50,0
191.26398,191.37575,79,57,0
191.48752,191.5993,79,57,0
191.81934,191.92758,74,67,0
191.92758,192.03584,81,71,0
192.03584,192.1441,74,66,0
192.1441,192.25235,83,75,0
192.25235,192.36107,74,73,0
192.36107,192.47026,83,81,0
192.47026,192.57991,74,77,0
192.57991,192.69048,84,84,0
192.69048,192.80153,74,82,0
192.80153,192.9133,84,90,0
192.9133,193.02556,74,85,0
193.02556,193.13733,86,94,0
193.13733,193.2491,83,85,0
193.2491,193.36087,86,89,0
193.36087,193.47264,83,83,0
193.47264,193.58443,79,87,0
193.58443,193.6962,83,81,0
193.6962,193.80797,79,85,0
193.80797,193.91974,83,81,0
193.91974,194.03151,74,86,0
194.03151,194.1433,79,80,0
194.1433,194.25507,74,81,0
194.25507,194.36684,79,74,0
194.36684,194.4786,71,73,0
194.4786,194.59038,74,68,0
194.59038,194.70215,71,68,0
194.70215,194.81393,74,63,0
194.81393,194.9302,69,54,0
194.9302,195.0465,76,51,0
195.0465,195.16277,75,54,0
195.16277,195.27905,76,52,0
195.27905,195.39532,74,54,0
195.39532,195.5116,72,51,0
195.5116,195.62788,71,54,0
195.62788,195.74416,69,52,0
195.74416,196.19713,67,63,0
196.19713,196.25752,66,60,0
196.25752,196.31792,67,63,0
196.31792,196.37831,66,60,0
196.37831,196.44017,67,63,0
196.44017,196.50638,66,63,0
196.50638,196.58914,64,63,0
196.58914,196.67192,66,60,0
196.67192,197.01073,67,86,0
197.01073,197.12366,62,81,0
197.12366,197.46246,71,86,0
197.46246,197.5754,67,81,0
197.5754,197.81454,74,87,0
198.05371,198.18362,81,54,0
198.16197,198.29187,79,51,0
198.27022,198.40013,78,54,0
198.37848,198.50894,76,52,0
198.48674,198.70883,74,57,0
198.93092,199.06082,76,54,0
199.03917,199.16908,74,51,0
199.14743,199.27734,72,54,0
199.25569,199.38615,71,51,0
199.36394,199.58603,69,57,0
199.80812,199.93803,74,56,0
199.91638,200.04628,72,56,0
200.02464,200.15454,71,56,0
200.13289,200.26364,69,53,0
200.24115,200.35364,67,84,0
200.35364,200.46614,62,80,0
200.46614,200.57863,67,84,0
200.57863,200.69113,62,80,0
200.69113,200.80362,71,84,0
200.80362,200.91612,67,80,0
200.91612,201.02861,71,84,0
201.02861,201.1411,67,80,0
201.1411,201.38414,74,84,0
201.62717,201.75708,81,55,0
201.73543,201.86534,79,52,0
201.84369,201.97359,78,55,0
201.95193,202.08284,76,52,0
202.0602,202.17343,74,58,0
202.28668,202.39992,74,58,0
202.51317,202.64307,76,54,0
202.62141,202.75133,74,51,0
202.72968,202.85959,72,54,0
202.83794,202.96826,71,50,0
202.94618,203.0575,69,57,0
203.17075,203.28398,69,57,0
203.39722,203.52713,74,55,0
203.50548,203.63539,72,53,0
203.61374,203.74364,71,55,0
203.72198,203.85455,69,52,0
203.83025,204.31631,67,58,0
204.31631,204.56914,62,54,0
204.31631,204.56914,71,54,0
204.82196,205.06499,59,56,0
204.82196,205.06499,67,56,0
205.7941,206.48236,74,51,0
206.48236,206.71098,75,53,0
206.71098,206.93394,76,54,0
206.93394,207.15689,78,55,0
207.15689,207.37984,79,56,0
207.37984,207.60278,71,53,0
207.60278,207.82999,74,54,0
207.82999,208.05719,72,53,0
208.2844,208.50734,71,51,0
208.50734,208.7303,72,54,0
208.7303,208.95325,74,55,0
208.95325,209.1762,76,56,0
209.1762,209.39914,68,50,0
209.39914,209.62776,71,54,0
209.62776,209.85638,69,51,0
210.085,210.30795,68,51,0
210.30795,210.53091,69,54,0
210.53091,210.75386,71,54,0
210.75386,210.9768,72,56,0
210.9768,211.19975,66,50,0
211.19975,211.4227,69,54,0
211.4227,211.65926,67,51,0
211.65926,211.88177,76,72,0
211.88177,212.1043,66,54,0
212.1043,212.32681,69,56,0
212.32681,212.54933,67,51,0
212.54933,212.77185,76,72,0
212.77185,212.99437,66,51,0
212.99437,213.22011,69,55,0
213.22011,213.46045,67,50,0
213.46045,213.68977,75,71,0
213.68977,213.9191,66,51,0
213.9191,214.1463,69,55,0
214.1463,214.3735,67,51,0
214.3735,214.60071,75,67,0
214.60071,214.82791,66,49,0
214.82791,215.05086,67,72,0
215.05086,215.18463,69,64,0
215.16234,215.29611,71,65,0
215.27382,215.40758,72,67,0
215.38528,215.51906,74,68,0
215.49677,215.63052,76,69,0
215.60823,215.742,78,71,0
215.71971,215.85349,79,72,0
215.83118,215.96568,81,70,0
215.94312,216.07855,83,74,0
216.05598,216.1922,78,72,0
216.16934,216.30652,79,73,0
216.28365,216.42163,74,69,0
216.39848,216.53743,76,71,0
216.51427,216.65315,71,68,0
216.63058,217.53351,74,81,0
217.53351,217.61816,72,62,0
217.60876,217.6934,74,56,0
217.684,217.76866,72,58,0
217.75925,217.8439,74,56,0
217.83449,217.91914,72,57,0
217.90974,217.99438,74,53,0
217.98499,218.06963,72,59,0
218.06023,218.14488,74,56,0
218.13547,218.24834,72,63,0
218.21072,218.32358,71,61,0
218.32358,218.43645,72,59,0
218.43645,219.32825,71,66,0
219.49545,219.5512,69,38,0
219.5512,219.66267,67,48,0
219.66267,219.77414,66,44,0
219.77414,219.82988,67,51,0
219.99709,220.05717,71,51,0
220.23744,220.70682,76,55,0
220.70682,221.17497,74,51,0
221.3405,221.39566,72,37,0
221.39566,221.50601,71,48,0
221.50601,221.61635,69,45,0
221.61635,221.67152,71,54,0
221.83704,221.89618,74,54,0
222.0736,222.5482,79,64,0
222.5482,223.02281,77,56,0
223.18938,223.2449,76,54,0
223.2449,223.35594,74,67,0
223.35594,223.467,73,61,0
223.467,223.5225,74,71,0
223.68909,223.7446,77,74,0
223.91116,224.14691,84,75,0
224.14691,224.61838,83,71,0
224.61838,225.08986,86,81,0
225.08986,225.54579,80,73,0
225.54579,226.00171,83,81,0
226.00171,226.47319,74,78,0
226.47319,226.94466,77,84,0
226.94466,227.40352,76,81,0
227.40352,227.63295,74,72,0
227.63295,228.68788,72,61,0
228.68788,228.7434,74,46,0
228.7434,228.85445,72,54,0
228.85445,228.96548,71,48,0
228.96548,229.19269,72,54,0
229.19269,229.30629,74,53,0
229.41989,230.34383,72,56,0
230.34383,230.43045,70,62,0
230.42082,230.50745,72,56,0
230.49782,230.58444,70,58,0
230.57481,230.66142,72,56,0
230.65181,230.73842,70,57,0
230.7288,230.81541,72,53,0
230.80579,230.89241,70,59,0
230.88278,230.9694,72,56,0
230.95978,231.07527,70,63,0
231.03677,231.15227,69,61,0
231.15227,231.26776,70,59,0
231.26776,231.5035,69,68,0
231.5035,231.97498,72,71,0
231.97498,232.44644,77,76,0
232.44644,232.90842,81,77,0
232.90842,233.15672,82,78,0
233.15672,234.0602,81,83,0
234.0602,234.51193,79,77,0
234.9907,235.66135,79,70,0
235.66135,235.8939,78,61,0
235.8939,236.12334,77,57,0
236.81161,237.48659,77,61,0
237.48659,237.72067,76,55,0
237.72067,237.95166,75,54,0
238.6446,238.87402,75,63,0
238.87402,239.10345,74,60,0
239.10345,239.21895,74,57,0
239.33444,239.44994,74,60,0
239.56541,240.03053,74,60,0
240.03053,240.4987,74,60,0
240.4987,240.91743,74,62,0
240.91743,240.97842,77,64,0
240.97842,241.84277,75,72,0
241.84277,241.90292,74,57,0
241.90292,242.36179,72,63,0
242.36179,242.59122,71,54,0
242.59122,242.82065,79,54,0
243.04958,243.27754,79,56,0
243.50403,243.7295,78,57,0
243.95403,244.17757,77,60,0
244.17757,244.407,77,64,0
244.407,244.63643,76,61,0
244.86292,245.0879,75,59,0
245.31096,245.53258,74,56,0
245.7528,245.97118,72,54,0
245.97118,246.20059,72,60,0
246.20059,246.43002,71,54,0
246.54474,246.65945,79,56,0
246.65945,246.77417,81,60,0
246.77417,246.88889,79,55,0
247.0036,247.1183,78,61,0
247.1183,247.23302,79,66,0
247.23302,247.34773,78,60,0
247.46245,247.57716,77,63,0
247.57716,247.69188,79,70,0
247.69188,247.8066,77,65,0
247.92131,248.03603,76,73,0
248.03603,248.15074,77,76,0
248.15074,248.26544,76,71,0
248.37943,248.49341,75,73,0
248.49341,248.60739,77,80,0
248.60739,248.72137,75,73,0
248.83463,248.94786,74,79,0
248.94786,249.0611,75,83,0
249.0611,249.17435,74,79,0
249.28683,249.39934,72,82,0
249.39934,249.51183,74,87,0
249.51183,249.62431,72,86,0
249.62431,249.7361,71,88,0
249.79198,249.84787,72,71,0
249.84787,249.95964,71,75,0
249.95964,250.07141,69,75,0
250.07141,250.29497,71,79,0
250.29497,250.40674,72,76,0
250.51851,250.63028,74,79,0
250.68617,250.74205,76,68,0
250.74205,250.85455,74,72,0
250.85455,250.96754,73,72,0
250.96754,251.19452,74,79,0
251.19452,251.30875,76,79,0
251.42346,251.87653,77,73,0
251.98758,252.09862,79,54,0
252.09862,252.20967,76,56,0
252.20967,252.32071,79,54,0
252.32071,252.7649,77,54,0
252.87595,252.98698,79,53,0
252.98698,253.09802,76,56,0
253.09802,253.20908,79,53,0
253.20908,253.65326,77,53,0
253.7643,253.87535,79,55,0
253.87535,253.98639,76,57,0
253.98639,254.09744,79,61,0
254.09744,254.20848,77,63,0
254.20848,254.31953,79,66,0
254.31953,254.4313,76,70,0
254.4313,254.54308,79,68,0
254.54308,254.65556,77,75,0
254.65556,254.76807,79,73,0
254.76807,254.8813,76,81,0
254.8813,254.99455,79,79,0
254.99455,255.22102,77,86,0
255.22102,255.33427,76,72,0
255.44751,255.56076,74,77,0
255.674,255.78725,72,72,0
255.90048,256.01752,71,60,0
256.13455,256.25162,72,62,0
256.36865,256.4857,74,59,0
256.60272,256.71976,76,56,0
256.83682,256.95386,77,62,0
257.0709,257.18793,76,57,0
257.30496,257.42203,74,61,0
257.53906,257.6561,76,64,0
257.77313,257.89206,77,67,0
258.01212,258.1335,76,71,0
258.2561,258.38013,77,73,0
258.50537,258.63214,78,77,0
258.76016,258.99274,79,86,0
259.22528,259.92297,79,82,0
259.92297,260.03122,77,71,0
260.03122,260.13947,76,69,0
260.13947,260.2405,76,70,0
260.24774,260.356,74,66,0
260.356,260.46423,72,67,0
260.46423,260.5725,71,66,0
260.5725,260.6558,72,47,0
260.64655,260.72983,74,49,0
260.72055,260.80386,72,55,0
260.7946,260.87787,74,52,0
260.86862,260.9519,72,57,0
260.94266,261.02594,74,51,0
261.0167,261.09998,72,59,0
261.09073,261.174,74,56,0
261.16473,261.27487,72,63,0
261.23877,261.34705,74,62,0
261.34705,261.4553,76,63,0
261.4553,261.91632,67,71,0
262.3579,262.47495,79,86,0
262.59198,262.709,79,78,0
262.82605,263.52832,79,76,0
263.52832,263.63657,77,64,0
263.63657,263.7376,76,61,0
263.7448,263.8531,76,64,0
263.8531,263.96133,74,61,0
263.96133,264.06958,72,61,0
264.06958,264.17786,71,60,0
264.17786,264.26114,72,47,0
264.2519,264.33517,74,49,0
264.3259,264.40918,72,55,0
264.39993,264.48322,74,52,0
264.47397,264.55725,72,57,0
264.548,264.6313,74,51,0
264.62204,264.70532,72,59,0
264.69604,264.77936,74,56,0
264.77008,264.88022,72,63,0
264.84412,264.95236,74,62,0
264.95236,265.06064,76,63,0
265.06064,265.5085,67,65,0
265.9501,266.06302,69,56,0
266.17596,266.28403,72,54,0
266.39206,266.4986,77,56,0
266.6051,266.71875,81,54,0
266.83237,266.9468,84,66,0
267.06122,267.2807,89,70,0
267.71918,267.8251,67,58,0
267.931,268.03693,72,56,0
268.14285,268.24936,76,58,0
268.3559,268.4688,79,55,0
268.58176,268.6921,84,66,0
268.80243,269.02313,88,74,0
269.35416,269.4645,67,63,0
269.4645,270.83228,79,84,0
270.83228,270.90826,77,60,0
270.90826,270.98425,79,68,0
270.98425,271.06024,77,68,0
271.06024,271.17422,76,76,0
271.17422,271.2882,77,71,0
271.2882,271.74707,75,78,0
271.74707,272.19122,76,75,0
273.0796,273.18695,69,61,0
273.18695,273.2943,72,57,0
273.2943,273.40143,74,61,0
273.40143,273.5081,76,56,0
273.5081,273.61398,77,61,0
273.61398,273.71997,79,58,0
273.71997,273.82736,81,61,0
273.82736,273.937,83,57,0
273.937,274.177,84,72,0
274.8409,274.94827,67,63,0
274.94827,275.0556,72,58,0
275.0556,275.16226,74,63,0
275.16226,275.2689,76,56,0
275.2689,275.37555,77,63,0
275.37555,275.48254,79,58,0
275.48254,275.5899,81,63,0
275.5899,275.6975,83,58,0
275.6975,275.93146,84,72,0
276.58917,276.8039,81,85,0
276.8039,277.01862,79,79,0
277.01862,277.12598,77,82,0
277.23334,277.3407,76,78,0
277.44806,277.66275,76,85,0
277.66275,277.87747,74,74,0
277.87747,277.98483,72,77,0
278.0922,278.19955,71,76,0
278.30692,278.43765,72,77,0
278.41586,278.5466,67,68,0
278.5248,278.65555,69,72,0
278.63376,278.7645,71,70,0
278.7427,278.87344,72,75,0
278.85165,278.9824,74,73,0
278.9606,279.09134,76,78,0
279.06955,279.2003,77,76,0
279.1785,279.30923,79,80,0
279.28745,279.41818,81,77,0
279.3964,279.52713,83,78,0
279.50534,279.63678,84,75,0
279.6143,279.72678,79,81,0
279.83926,279.95178,79,79,0
280.17676,280.28925,79,54,0
280.28925,280.40176,81,57,0
280.40176,280.51425,79,54,0
280.62674,280.73923,77,54,0
280.73923,280.8517,79,57,0
280.8517,280.96423,77,54,0
281.07672,281.1892,76,54,0
281.1892,281.3017,77,56,0
281.3017,281.41418,76,54,0
281.5267,281.6392,74,54,0
281.6392,281.75168,76,56,0
281.75168,281.86417,74,54,0
281.86417,281.99408,72,83,0
281.97244,282.10233,67,76,0
282.0807,282.2106,69,79,0
282.18893,282.31885,71,75,0
282.2972,282.42712,72,81,0
282.40546,282.53537,74,79,0
282.5137,282.64362,76,82,0
282.62198,282.7519,77,78,0
282.73022,282.86014,79,81,0
282.83847,282.96838,81,76,0
282.94675,283.07666,83,80,0
283.055,283.18576,84,75,0
283.16324,283.27576,79,82,0
283.38824,283.50073,79,80,0
283.72574,283.83823,79,54,0
283.83823,283.9507,81,56,0
283.9507,284.0632,79,54,0
284.1757,284.2882,77,54,0
284.2882,284.4007,79,56,0
284.4007,284.51318,77,54,0
284.62567,284.73816,76,54,0
284.73816,284.85068,77,56,0
284.85068,284.96317,76,54,0
285.07565,285.18814,74,54,0
285.18814,285.30066,76,54,0
285.30066,285.41315,74,54,0
285.41315,285.536,72,81,0
285.65887,286.09192,72,81,0
286.09192,286.20016,74,73,0
286.20016,286.3084,76,70,0
286.3084,286.42392,77,82,0
286.5394,286.9724,77,79,0
286.9724,287.0807,79,76,0
287.0807,287.18893,81,76,0
287.18893,287.40546,79,83,0
287.40546,287.62198,76,80,0
287.62198,287.73447,84,83,0
287.84695,287.95944,84,80,0
288.07193,288.20184,86,84,0
288.1802,288.31012,84,76,0
288.28845,288.41837,83,78,0
288.3967,288.49774,81,73,0
288.50497,288.6349,81,73,0
288.61322,288.74808,79,66,0
288.72147,288.881,77,68,0
288.85443,288.9874,76,64,0
288.9874,289.65366,79,68,0
289.65366,289.87576,76,69,0
289.87576,290.31436,74,67,0
290.77017,290.9937,73,60,0
290.9937,291.2173,74,56,0
291.2173,291.32553,72,55,0
291.32553,291.43378,71,52,0
291.43378,291.54205,69,55,0
291.54205,291.6503,67,53,0
291.6503,291.87384,73,61,0
291.87384,292.09738,74,59,0
292.09738,292.20566,72,55,0
292.20566,292.3139,71,54,0
292.3139,292.42856,69,55,0
292.42856,292.5432,67,53,0
292.5432,292.77374,75,64,0
292.77374,293.00427,76,61,0
293.00427,293.11954,76,63,0
293.2348,293.35004,76,59,0
293.4653,293.90994,76,63,0
294.24344,294.35458,69,60,0
294.35458,295.00772,81,87,0
295.00772,295.0803,79,76,0
295.0803,295.15286,78,72,0
295.15286,295.22543,76,76,0
295.22543,295.4644,74,84,0
295.4644,295.57837,86,82,0
295.69235,295.80634,86,82,0
295.92032,296.04318,86,79,0
296.16605,296.75125,86,90,0
296.75125,296.86832,83,74,0
296.86832,296.98535,86,77,0
296.98535,297.1024,83,76,0
297.1024,297.34027,79,77,0
297.34027,297.5809,74,54,0
297.34027,297.5809,71,54,0
297.5809,297.8215,72,54,0
297.5809,297.8215,76,54,0
297.8215,298.07672,74,50,0
297.8215,298.07672,77,50,0
298.07672,298.30927,78,60,0
298.30927,298.54184,79,58,0
298.54184,298.6501,77,54,0
298.6501,298.75833,76,51,0
298.75833,298.8666,74,54,0
298.8666,298.97485,72,52,0
298.97485,299.08957,78,54,0
299.08957,299.20428,79,53,0
299.20428,299.319,81,55,0
299.319,299.43372,79,57,0
299.43372,299.54196,77,56,0
299.54196,299.65024,76,55,0
299.65024,299.75848,74,54,0
299.75848,299.86673,72,54,0
299.86673,300.10083,80,62,0
300.10083,300.3349,81,56,0
300.3349,300.45193,81,60,0
300.569,300.68604,81,56,0
300.80307,301.27124,81,63,0
301.7394,301.87097,86,81,0
301.84906,301.98062,88,77,0
301.9587,302.09027,89,81,0
302.06836,302.19992,88,77,0
302.178,302.30957,86,79,0
302.28766,302.41922,84,73,0
302.3973,302.52887,83,77,0
302.50693,302.63852,81,75,0
302.61658,302.74817,79,78,0
302.72623,302.85782,83,73,0
302.83588,302.96747,86,81,0
302.94553,303.07712,84,74,0
303.05518,303.18677,83,81,0
303.16483,303.29642,81,75,0
303.27448,303.40607,79,81,0
303.38412,303.51642,77,76,0
303.49377,303.72028,76,86,0
303.94675,304.0034,79,71,0
304.0034,304.06,77,66,0
304.06,304.1166,79,71,0
304.1166,304.17325,77,67,0
304.17325,304.28647,76,81,0
304.28647,304.39972,77,79,0
304.39972,304.61624,79,89,0
305.12143,305.20392,81,53,0
305.20392,305.2761,83,49,0
305.2761,305.7037,84,61,0
305.7091,306.02847,84,56,0
306.03387,306.13672,84,54,0
306.14212,306.57516,84,56,0
306.57516,306.6834,83,55,0
306.6834,306.79166,81,50,0
306.79166,306.89993,79,53,0
306.89993,307.00818,77,51,0
307.00818,307.2303,76,78,0
307.45236,307.50787,77,67,0
307.50787,307.56342,79,63,0
307.56342,307.61893,77,67,0
307.61893,307.67444,79,63,0
307.67444,307.72998,77,67,0
307.74847,307.8225,76,76,0
307.8225,307.89655,77,72,0
307.89655,308.11307,79,87,0
308.61826,308.6979,81,53,0
308.6979,308.77756,83,48,0
308.77756,309.20517,84,61,0
309.2106,309.52994,84,55,0
309.53537,309.6382,84,52,0
309.64362,310.07663,84,55,0
310.07663,310.1849,83,54,0
310.1849,310.29315,81,52,0
310.29315,310.4014,79,54,0
310.4014,310.50967,77,53,0
310.50967,310.62595,76,83,0
310.74222,310.87213,84,78,0
310.8505,310.98038,86,78,0
310.95874,311.08865,88,81,0
311.067,311.1969,86,78,0
311.17526,311.30515,84,81,0
311.2835,311.41342,83,78,0
311.39175,311.52167,81,81,0
311.50003,311.63052,79,78,0
311.60873,311.73984,77,81,0
311.71793,311.84964,76,76,0
311.82758,311.96,74,81,0
311.9379,312.07092,72,76,0
312.04874,312.18237,71,81,0
312.16,312.29684,69,73,0
312.27228,312.518,67,85,0
312.76373,313.68768,65,90,0
313.68768,314.14963,64,76,0
314.3806,314.4889,62,55,0
314.59714,314.70538,65,54,0
314.81366,314.9219,69,53,0
315.03015,315.24667,73,55,0
315.24667,315.4632,74,54,0
315.4632,315.6797,77,55,0
315.6797,315.8962,81,53,0
315.8962,316.12878,81,61,0
316.12878,316.3555,72,55,0
316.36133,317.26505,72,54,0
317.26505,317.49002,76,56,0
317.49002,317.71503,74,54,0
317.26505,317.71503,71,56,0
317.71503,318.18015,72,54,0
318.64526,318.86176,79,76,0
318.86176,319.07828,76,72,0
319.07828,319.2948,84,57,0
319.2948,319.40445,83,53,0
319.5141,319.62375,81,51,0
319.7334,319.84305,79,49,0
319.9527,320.06235,77,54,0
320.172,320.28165,76,50,0
320.3913,320.61337,74,53,0
320.83545,321.05756,76,54,0
321.27963,321.5032,79,58,0
321.5032,321.72675,78,54,0
321.72675,321.9503,77,54,0
322.17383,322.39035,76,51,0
322.39035,322.60684,77,54,0
322.60684,322.82336,79,57,0
322.82336,322.93164,80,59,0
323.0399,323.1065,81,49,0
323.1065,323.17313,83,51,0
323.17313,323.23978,81,54,0
323.23978,323.3064,83,56,0
323.3064,323.37302,81,58,0
323.37302,323.48126,83,62,0
323.48126,323.58954,84,68,0
323.69778,323.80603,83,61,0
323.9143,324.02255,81,62,0
324.1308,324.2393,79,57,0
324.34824,324.45718,77,60,0
324.56662,324.68365,76,57,0
324.79623,325.1337,79,64,0
325.1337,325.24622,76,61,0
325.24622,325.4712,74,61,0
325.6962,326.02097,79,86,0
326.02097,326.07507,81,81,0
326.07507,326.1292,83,76,0
326.1292,326.34573,84,85,0
326.34573,326.45398,83,62,0
326.56223,326.6705,81,62,0
326.77875,326.887,79,60,0
326.99527,327.10352,77,62,0
327.21176,327.32004,76,59,0
327.42828,327.64896,74,63,0
327.86966,328.09033,76,70,0
328.31104,328.5317,77,72,0
328.75287,328.97495,78,78,0
329.19803,329.42157,79,79,0
329.64655,329.87204,80,82,0
330.0985,330.44046,81,85,0
330.44046,330.54874,69,79,0
330.54874,330.8786,77,84,0
330.8786,330.99014,74,81,0
331.38385,331.4401,76,64,0
330.99014,331.4401,72,77,0
331.4401,331.87314,71,71,0
331.4401,331.87314,74,71,0
331.87314,332.32022,72,71,0
332.4285,332.53674,72,64,0
332.53674,332.645,74,65,0
332.645,332.75327,76,66,0
332.75327,332.81305,77,68,0
332.81305,332.87283,79,68,0
332.87283,332.9299,77,59,0
332.9299,333.04074,76,70,0
332.98694,333.0945,77,71,0
333.0945,333.2021,79,72,0
333.2021,333.25113,81,66,0
333.26096,333.31,83,65,0
333.3198,333.4357,81,70,0
333.37775,333.48947,79,75,0
333.4357,333.54324,81,76,0
333.54324,333.65082,83,78,0
333.65082,333.76334,84,87,0
333.87582,333.9883,84,84,0
334.20908,334.31732,72,63,0
334.31732,334.42557,74,65,0
334.42557,334.53384,76,66,0
334.53384,334.59363,77,68,0
334.59363,334.6534,79,68,0
334.6534,334.71048,77,59,0
334.71048,334.82132,76,70,0
334.76755,334.87512,77,71,0
334.87512,334.98267,79,72,0
334.98267,335.03174,81,66,0
335.04153,335.09058,83,65,0
335.10037,335.21628,81,70,0
335.15833,335.27005,79,75,0
335.21628,335.32385,81,76,0
335.32385,335.43143,83,78,0
335.43143,335.53897,84,88,0
335.64655,335.75412,84,86,0
335.96997,336.07822,79,55,0
336.07822,336.18646,83,58,0
336.18646,336.29474,79,55,0
336.29474,336.40576,84,59,0
336.5168,336.62787,84,59,0
336.84717,336.9554,79,54,0
336.9554,337.0637,83,57,0
337.0637,337.17194,79,54,0
337.17194,337.283,84,59,0
337.39404,337.50507,84,66,0
337.72437,337.83264,79,67,0
337.83264,337.9409,83,71,0
337.9409,338.04913,79,68,0
338.04913,338.1574,84,75,0
338.1574,338.2661,79,72,0
338.2661,338.3753,84,79,0
338.3753,338.48495,79,75,0
338.48495,338.59552,86,83,0
338.59552,338.70657,79,81,0
338.70657,338.81836,86,88,0
338.81836,338.9306,79,83,0
338.9306,339.15707,88,91,0
339.15707,339.38358,84,80,0
339.38358,339.61005,79,82,0
339.61005,339.83655,84,79,0
339.83655,340.06302,76,78,0
340.06302,340.2895,79,71,0
340.2895,340.516,72,72,0
340.516,340.74246,76,69,0
340.74246,340.96317,69,60,0
340.96317,341.18384,81,60,0
341.18384,341.2942,79,63,0
341.2942,341.4045,77,58,0
341.4045,341.51486,76,63,0
341.51486,341.6252,74,58,0
341.6252,342.0782,72,63,0
342.0782,342.13858,71,60,0
342.13858,342.19897,72,63,0
342.19897,342.25937,71,60,0
342.25937,342.31976,72,63,0
342.31976,342.38016,71,63,0
342.38016,342.45566,69,63,0
342.45566,342.53113,71,60,0
342.53113,342.97824,72,71,0
343.0865,343.19476,72,64,0
343.19476,343.303,74,65,0
343.303,343.41125,76,66,0
343.41125,343.47104,77,68,0
343.47104,343.53085,79,68,0
343.53085,343.5879,77,59,0
343.5879,343.69876,76,70,0
343.64496,343.75253,77,71,0
343.75253,343.8601,79,72,0
343.8601,343.90915,81,66,0
343.91895,343.968,83,65,0
343.9778,344.0937,81,70,0
344.03577,344.1475,79,75,0
344.0937,344.20126,81,76,0
344.20126,344.30884,83,78,0
344.30884,344.4164,84,84,0
344.524,344.63156,84,81,0
344.84738,344.95566,72,63,0
344.95566,345.0639,74,65,0
345.0639,345.17215,76,66,0
345.17215,345.23193,77,68,0
345.23193,345.29175,79,68,0
345.29175,345.3488,77,59,0
345.3488,345.45966,76,70,0
345.40585,345.51343,77,71,0
345.51343,345.621,79,72,0
345.621,345.67004,81,66,0
345.67987,345.7289,83,65,0
345.7387,345.85458,81,70,0
345.79666,345.9084,79,75,0
345.85458,345.96216,81,76,0
345.96216,346.06973,83,78,0
346.06973,346.1773,84,84,0
346.28488,346.39246,84,80,0
346.60828,346.71655,79,55,0
346.71655,346.8248,83,59,0
346.8248,346.93304,79,55,0
346.93304,347.0441,84,59,0
347.15515,347.2662,84,59,0
347.4855,347.59375,79,54,0
347.59375,347.702,83,56,0
347.702,347.81027,79,54,0
347.81027,347.9213,84,59,0
348.03235,348.1434,84,59,0
348.3627,348.47095,79,67,0
348.47095,348.57922,83,71,0
348.57922,348.68747,79,68,0
348.68747,348.79572,84,75,0
348.79572,348.90445,79,73,0
348.90445,349.0136,84,79,0
349.0136,349.12326,79,77,0
349.12326,349.23386,86,83,0
349.23386,349.3449,79,81,0
349.3449,349.45667,86,88,0
349.45667,349.5689,79,82,0
349.5689,349.68216,88,88,0
349.68216,349.7954,84,78,0
349.7954,349.90866,88,84,0
349.90866,350.02188,84,80,0
350.02188,350.13513,79,82,0
350.13513,350.24838,84,74,0
350.24838,350.3616,79,79,0
350.3616,350.47485,84,71,0
350.47485,350.5881,76,78,0
350.5881,350.70135,79,71,0
350.70135,350.81458,76,76,0
350.81458,350.92783,79,71,0
350.92783,351.04108,72,72,0
351.04108,351.1543,76,67,0
351.1543,351.26755,72,71,0
351.26755,351.3808,76,63,0
351.3808,351.60147,69,60,0
351.60147,351.82217,81,63,0
351.82217,351.9325,79,63,0
351.9325,352.04285,77,58,0
352.04285,352.1532,76,63,0
352.1532,352.26352,74,60,0
352.26352,352.7165,72,63,0
352.7165,352.7769,71,60,0
352.7769,352.83728,72,63,0
352.83728,352.89767,71,60,0
352.89767,352.95807,72,63,0
352.95807,353.01846,71,63,0
353.01846,353.09396,69,63,0
353.09396,353.16946,71,60,0
353.16946,353.51782,72,82,0
353.51782,353.63394,67,78,0
353.63394,353.9823,76,82,0
353.9823,354.0984,72,76,0
354.0984,354.34265,79,81,0
354.5869,354.71683,86,54,0
354.6952,354.82507,84,50,0
354.80344,354.93335,83,54,0
354.91168,355.04214,81,49,0
355.01996,355.24203,79,57,0
355.46414,355.59402,81,54,0
355.5724,355.7023,79,50,0
355.68063,355.81055,77,54,0
355.7889,355.91937,76,50,0
355.89716,356.11923,74,57,0
356.34134,356.47125,79,56,0
356.4496,356.5795,77,53,0
356.55786,356.68774,76,56,0
356.6661,356.79724,74,52,0
356.77435,356.88876,72,81,0
356.88876,357.0032,67,75,0
357.0032,357.1176,72,82,0
357.1176,357.23203,67,78,0
357.23203,357.34644,76,82,0
357.34644,357.46085,72,78,0
357.46085,357.5753,76,82,0
357.5753,357.6897,72,76,0
357.6897,357.938,79,82,0
358.1863,358.3162,86,55,0
358.29456,358.42447,84,53,0
358.4028,358.5327,83,55,0
358.51108,358.64197,81,53,0
358.61932,358.73257,79,58,0
358.8458,358.95905,79,58,0
359.0723,359.2022,81,54,0
359.18054,359.31046,79,50,0
359.28882,359.4187,77,54,0
359.39706,359.52737,76,50,0
359.5053,359.61664,74,57,0
359.72986,359.8431,74,57,0
359.95636,360.08627,79,55,0
360.0646,360.19452,77,51,0
360.17285,360.30276,76,55,0
360.28113,360.41193,74,51,0
360.38937,360.84042,72,62,0
361.06598,361.28806,80,57,0
361.28806,361.51038,81,62,0
361.51038,361.7327,83,64,0
361.7327,361.95502,84,70,0
361.95502,362.17734,76,62,0
362.17734,362.4053,79,66,0
362.4053,362.63327,77,62,0
362.86124,363.0833,76,55,0
363.0833,363.30542,77,60,0
363.30542,363.5275,79,62,0
363.5275,363.74982,81,65,0
363.74982,363.97214,73,57,0
363.97214,364.2001,76,63,0
364.2001,364.42807,74,57,0
364.65604,364.8781,73,49,0
364.8781,365.10022,74,52,0
365.10022,365.3223,76,54,0
365.3223,365.5444,77,57,0
365.5444,365.76648,71,49,0
365.76648,365.99445,74,50,0
365.99445,366.2224,72,49,0
366.2224,366.44452,81,70,0
366.44452,366.6666,71,49,0
366.6666,366.89456,74,51,0
366.89456,367.12253,72,49,0
367.12253,367.3446,81,70,0
367.3446,367.5667,71,49,0
367.79468,367.9094,74,49,0
367.9094,368.0241,72,43,0
368.25507,368.37137,80,57,0
368.37137,368.48816,71,43,0
368.72278,368.84064,74,51,0
368.84064,368.95905,72,43,0
369.19635,369.33032,80,55,0
369.33032,369.5295,71,41,0
369.5295,370.86227,65,45,0
369.5295,370.86227,71,54,0
369.5295,370.86227,74,54,0
369.5295,370.86227,67,45,0
370.86227,371.38483,67,34,0
370.86227,371.38483,64,34,0
370.86227,371.38483,72,40,0
371.90738,372.59564,74,51,0
372.59564,372.82428,75,53,0
372.82428,373.0472,76,54,0
373.0472,373.27017,78,55,0
373.27017,373.49313,79,56,0
373.49313,373.71606,71,53,0
373.71606,373.94327,74,54,0
373.94327,374.17047,72,53,0
374.39767,374.62064,71,51,0
374.62064,374.84357,72,54,0
374.84357,375.06653,74,55,0
375.06653,375.2895,76,56,0
375.2895,375.51242,68,50,0
375.51242,375.74106,71,54,0
375.74106,375.96967,69,51,0
376.1983,376.42123,68,51,0
376.42123,376.6442,69,54,0
376.6442,376.86713,71,54,0
376.86713,377.0901,72,56,0
377.0901,377.31305,66,50,0
377.31305,377.52914,69,54,0
377.52914,377.7657,67,51,0
377.7657,377.98822,76,72,0
377.98822,378.21075,66,54,0
378.21075,378.4208,69,56,0
378.4208,378.6433,67,51,0
378.6433,378.86584,76,72,0
378.86584,379.08835,66,51,0
379.08835,379.30444,69,55,0
379.30444,379.5448,67,50,0
379.5448,379.77414,75,71,0
379.77414,380.00345,66,51,0
380.00345,380.23065,69,55,0
380.23065,380.45786,67,51,0
380.45786,380.68506,75,67,0
380.68506,380.91226,66,49,0
380.91226,381.13522,67,72,0
381.13522,381.26898,69,64,0
381.24667,381.38046,71,65,0
381.35815,381.49194,72,67,0
381.46964,381.6034,74,68,0
381.58112,381.71487,76,69,0
381.6926,381.82635,78,71,0
381.80405,381.93784,79,72,0
381.91553,382.05005,81,70,0
382.02747,382.1629,83,74,0
382.14032,382.27655,78,72,0
382.2537,382.39087,79,73,0
382.368,382.50598,74,69,0
382.48282,382.62177,76,71,0
382.59863,382.73752,71,68,0
382.71494,383.61786,74,81,0
383.61786,383.7025,72,62,0
383.6931,383.77777,74,56,0
383.76834,383.853,72,58,0
383.8436,383.92825,74,56,0
383.91885,384.0035,72,57,0
383.99408,384.07874,74,53,0
384.06934,384.154,72,59,0
384.1446,384.22922,74,56,0
384.21982,384.3327,72,63,0
384.29507,384.40793,71,61,0
384.40793,384.5208,72,59,0
384.5208,385.4126,71,66,0
385.5798,385.63556,69,38,0
385.63556,385.747,67,48,0
385.747,385.8585,66,44,0
385.8585,385.91425,67,51,0
386.08145,386.14154,71,51,0
386.32178,386.79117,76,55,0
386.79117,387.25934,74,51,0
387.42484,387.48,72,37,0
387.48,387.59036,71,48,0
387.59036,387.7007,69,45,0
387.7007,387.75586,71,54,0
387.9214,387.98346,74,54,0
388.16968,388.6428,79,64,0
388.6428,389.1159,77,56,0
389.28247,389.338,76,54,0
389.338,389.44904,74,67,0
389.44904,389.5601,73,61,0
389.5601,389.61563,74,71,0
389.7822,389.8377,77,74,0
390.00427,390.24002,84,75,0
390.24002,390.7115,83,71,0
390.7115,391.18295,86,81,0
391.18295,391.6389,80,73,0
391.6389,392.09482,83,81,0
392.09482,392.56628,74,78,0
392.56628,393.03778,77,84,0
393.03778,393.4966,76,81,0
393.4966,393.72604,74,72,0
393.72604,394.78098,72,61,0
394.78098,394.83652,74,46,0
394.83652,394.94754,72,54,0
394.94754,395.0586,71,48,0
395.0586,395.2858,72,54,0
395.2858,395.3994,74,53,0
395.513,396.43692,72,56,0
396.43692,396.52356,70,62,0
396.51392,396.60056,72,56,0
396.5909,396.67755,70,58,0
396.6679,396.75455,72,56,0
396.7449,396.83154,70,57,0
396.8219,396.9085,72,53,0
396.8989,396.9855,70,59,0
396.9759,397.0625,72,56,0
397.0529,397.16837,70,63,0
397.12988,397.24536,69,61,0
397.24536,397.36087,70,59,0
397.36087,397.5966,69,68,0
397.5966,398.06808,72,71,0
398.06808,398.53955,77,76,0
398.53955,399.00153,81,77,0
399.00153,399.24982,82,78,0
399.24982,400.1533,81,83,0
400.1533,400.60504,79,77,0
401.0877,401.75836,79,70,0
401.75836,401.9909,78,61,0
401.9909,402.22034,77,57,0
402.9275,403.61548,77,61,0
403.61548,403.84955,76,55,0
403.84955,404.08054,75,54,0
404.77347,405.0029,75,63,0
405.0029,405.23233,74,60,0
405.23233,405.34784,74,57,0
405.46332,405.5788,74,60,0
405.6943,406.15942,74,60,0
406.15942,406.6276,74,60,0
406.6276,407.0463,74,62,0
407.0463,407.1073,77,64,0
407.1073,407.97165,75,72,0
407.97165,408.0318,74,57,0
408.0318,408.49066,72,63,0
408.49066,408.7201,71,54,0
408.7201,408.94952,79,54,0
409.17847,409.40643,79,56,0
409.6329,409.8584,78,57,0
410.08292,410.30646,77,60,0
410.30646,410.5359,77,64,0
410.5359,410.76532,76,61,0
410.9918,411.21677,75,59,0
411.43985,411.66147,74,56,0
411.88168,412.10004,72,54,0
412.10004,412.32947,72,60,0
412.32947,412.5589,71,54,0
412.6736,412.78833,79,56,0
412.78833,412.90305,81,60,0
412.90305,413.01776,79,55,0
413.13248,413.2472,78,61,0
413.2472,413.3619,79,66,0
413.3619,413.47662,78,60,0
413.59134,413.70605,77,63,0
413.70605,413.82077,79,70,0
413.82077,413.9355,77,65,0
414.05017,414.1649,76,73,0
414.1649,414.2796,77,76,0
414.2796,414.39432,76,71,0
414.5083,414.62228,75,73,0
414.62228,414.73627,77,80,0
414.73627,414.85025,75,73,0
414.9635,415.07675,74,79,0
415.07675,415.18997,75,83,0
415.18997,415.30322,74,79,0
415.4157,415.5282,72,82,0
415.5282,415.64072,74,87,0
415.64072,415.7532,72,86,0
415.7532,415.86496,71,88,0
415.92087,415.97675,72,71,0
415.97675,416.08853,71,75,0
416.08853,416.2003,69,75,0
416.2003,416.42383,71,79,0
416.42383,416.5356,72,76,0
416.6474,416.75916,74,79,0
416.81503,416.87094,76,68,0
416.87094,416.98343,74,72,0
416.98343,417.09644,73,72,0
417.09644,417.3234,74,79,0
417.3234,417.43762,76,79,0
417.55234,418.0054,77,73,0
418.11646,418.2275,79,54,0
418.2275,418.33853,76,56,0
418.33853,418.4496,79,54,0
418.4496,418.89377,77,54,0
419.00482,419.11588,79,53,0
419.11588,419.2269,76,56,0
419.2269,419.33795,79,53,0
419.33795,419.78214,77,53,0
419.8932,420.0042,79,55,0
420.0042,420.11526,76,57,0
420.11526,420.22632,79,61,0
420.22632,420.33737,77,63,0
420.33737,420.4484,79,66,0
420.4484,420.56018,76,70,0
420.56018,420.67197,79,68,0
420.67197,420.78445,77,75,0
420.78445,420.89694,79,73,0
420.89694,421.0102,76,81,0
421.0102,421.1234,79,79,0
421.1234,421.3499,77,86,0
421.3499,421.46317,76,72,0
421.5764,421.68964,74,77,0
421.8029,421.9161,72,72,0
422.02936,422.1464,71,60,0
422.26343,422.3805,72,62,0
422.49753,422.61456,74,59,0
422.7316,422.84866,76,56,0
422.9657,423.08273,77,62,0
423.19977,423.3168,76,57,0
423.43387,423.5509,74,61,0
423.66794,423.78497,76,64,0
423.902,424.02094,77,67,0
424.141,424.26242,76,71,0
424.38498,424.509,77,73,0
424.63425,424.77737,78,77,0
424.92047,425.153,79,86,0
425.3856,426.08325,79,82,0
426.08325,426.1915,77,71,0
426.1915,426.29977,76,69,0
426.29977,426.40082,76,70,0
426.40802,426.5163,74,66,0
426.5163,426.62454,72,67,0
426.62454,426.7328,71,66,0
426.7328,426.81607,72,47,0
426.80682,426.8901,74,49,0
426.88086,426.96414,72,55,0
426.9549,427.03818,74,52,0
427.02893,427.1122,72,57,0
427.10294,427.18622,74,51,0
427.17697,427.26025,72,59,0
427.251,427.3343,74,56,0
427.32504,427.43515,72,63,0
427.39908,427.50732,74,62,0
427.50732,427.61557,76,63,0
427.61557,428.07663,67,71,0
428.5182,428.63522,79,86,0
428.75226,428.86932,79,78,0
428.98636,429.6886,79,76,0
429.6886,429.79684,77,64,0
429.79684,429.8979,76,61,0
429.90512,430.01337,76,64,0
430.01337,430.1216,74,61,0
430.1216,430.2299,72,61,0
430.2299,430.33813,71,60,0
430.33813,430.42142,72,47,0
430.41217,430.49545,74,49,0
430.4862,430.5695,72,55,0
430.56024,430.64352,74,52,0
430.63425,430.71753,72,57,0
430.70828,430.79156,74,51,0
430.78232,430.8656,72,59,0
430.85635,430.93964,74,56,0
430.9304,431.0405,72,63,0
431.0044,431.11267,74,62,0
431.11267,431.22092,76,63,0
431.22092,431.66882,67,65,0
432.11038,432.22333,69,56,0
432.33624,432.4475,72,54,0
432.55878,432.66528,77,56,0
432.77182,432.88544,81,54,0
432.99908,433.1135,84,66,0
433.2279,433.3378,89,70,0
433.88586,433.9918,67,58,0
434.09772,434.2036,72,56,0
434.30954,434.41608,76,58,0
434.52258,434.63553,79,55,0
434.74844,434.8588,84,66,0
434.96915,435.07947,88,74,0
435.52084,435.6312,67,63,0
435.6312,436.99896,79,84,0
436.99896,437.07495,77,60,0
437.07495,437.15094,79,68,0
437.15094,437.22693,77,68,0
437.22693,437.3409,76,76,0
437.3409,437.4549,77,71,0
437.4549,437.91376,75,78,0
437.91376,438.35794,76,75,0
439.2463,439.35367,69,61,0
439.35367,439.46103,72,57,0
439.46103,439.56815,74,61,0
439.56815,439.67477,76,56,0
439.67477,439.7807,77,61,0
439.7807,439.88666,79,58,0
439.88666,439.99408,81,61,0
439.99408,440.10373,83,57,0
440.10373,440.34372,84,72,0
441.0076,441.11496,67,63,0
441.11496,441.22232,72,58,0
441.22232,441.32895,74,63,0
441.32895,441.4356,76,56,0
441.4356,441.54224,77,63,0
441.54224,441.64926,79,58,0
441.64926,441.75662,81,63,0
441.75662,441.86423,83,58,0
441.86423,442.09814,84,72,0
442.7559,442.9706,81,85,0
442.9706,443.18533,79,79,0
443.18533,443.29266,77,82,0
443.40002,443.5074,76,78,0
443.61475,443.82947,76,85,0
443.82947,444.0442,74,74,0
444.0442,444.15155,72,77,0
444.2589,444.36624,71,76,0
444.4736,444.60434,72,77,0
444.58255,444.7133,67,68,0
444.6915,444.82224,69,72,0
444.80045,444.93118,71,70,0
444.9094,445.04013,72,75,0
445.01834,445.14908,74,73,0
445.1273,445.25803,76,78,0
445.23624,445.36697,77,76,0
445.34518,445.47592,79,80,0
445.45413,445.58487,81,77,0
445.56308,445.69382,83,78,0
445.67203,445.8035,84,75,0
445.78098,445.8935,79,81,0
446.00598,446.11847,79,79,0
446.34348,446.45596,79,54,0
446.45596,446.56845,81,57,0
446.56845,446.68094,79,54,0
446.79343,446.90594,77,54,0
446.90594,447.01843,79,57,0
447.01843,447.13092,77,54,0
447.2434,447.35593,76,54,0
447.35593,447.4684,77,56,0
447.4684,447.5809,76,54,0
447.6934,447.80588,74,54,0
447.80588,447.9184,76,56,0
447.9184,448.03088,74,54,0
448.03088,448.1608,72,83,0
448.13913,448.26904,67,76,0
448.24738,448.3773,69,79,0
448.35565,448.48557,71,75,0
448.4639,448.5938,72,81,0
448.57217,448.70206,74,79,0
448.68042,448.81033,76,82,0
448.78867,448.91858,77,78,0
448.89694,449.02682,79,81,0
449.0052,449.1351,81,76,0
449.11343,449.24335,83,80,0
449.2217,449.35245,84,75,0
449.32996,449.44244,79,82,0
449.55493,449.66745,79,80,0
449.89243,450.0049,79,54,0
450.0049,450.1174,81,56,0
450.1174,450.22992,79,54,0
450.3424,450.4549,77,54,0
450.4549,450.56738,79,56,0
450.56738,450.6799,77,54,0
450.7924,450.90488,76,54,0
450.90488,451.01736,77,56,0
451.01736,451.12985,76,54,0
451.24237,451.35486,74,54,0
451.35486,451.46735,76,54,0
451.46735,451.57983,74,54,0
451.57983,451.7027,72,81,0
451.8256,452.2586,72,81,0
452.2586,452.36685,74,73,0
452.36685,452.47513,76,70,0
452.47513,452.5906,77,82,0
452.70612,453.13913,77,79,0
453.13913,453.24738,79,76,0
453.24738,453.35565,81,76,0
453.35565,453.57214,79,83,0
453.57214,453.78867,76,80,0
453.78867,453.90115,84,83,0
454.01364,454.12616,84,80,0
454.23865,454.36856,86,84,0
454.3469,454.4768,84,76,0
454.45517,454.58505,83,78,0
454.56342,454.66446,81,73,0
454.67166,454.80157,81,73,0
454.77994,454.91476,79,66,0
454.88818,455.04773,77,68,0
455.02115,455.15408,76,64,0
455.15408,455.82037,79,68,0
455.82037,456.04245,76,69,0
456.04245,456.48105,74,67,0
456.94928,457.17282,73,60,0
457.17282,457.39636,74,56,0
457.39636,457.5046,72,55,0
457.5046,457.61288,71,52,0
457.61288,457.72113,69,55,0
457.72113,457.82938,67,53,0
457.82938,458.05292,73,61,0
458.05292,458.2765,74,59,0
458.2765,458.38474,72,55,0
458.38474,458.49298,71,54,0
458.49298,458.60767,69,55,0
458.60767,458.72232,67,53,0
458.72232,458.95285,75,64,0
458.95285,459.18335,76,61,0
459.18335,459.2986,76,63,0
459.41388,459.52914,76,59,0
459.6444,460.08905,76,63,0
460.42252,460.5337,69,60,0
460.5337,461.1868,81,87,0
461.1868,461.25937,79,76,0
461.25937,461.33194,78,72,0
461.33194,461.4045,76,76,0
461.4045,461.64346,74,84,0
461.64346,461.75745,86,82,0
461.87143,461.9854,86,82,0
462.0994,462.22226,86,79,0
462.34515,462.93036,86,90,0
462.93036,463.0474,83,74,0
463.0474,463.16443,86,77,0
463.16443,463.28146,83,76,0
463.28146,463.51935,79,77,0
463.51935,463.75998,74,54,0
463.51935,463.75998,71,54,0
463.75998,464.00058,72,54,0
463.75998,464.00058,76,54,0
464.00058,464.2558,74,50,0
464.00058,464.2558,77,50,0
464.2558,464.48837,78,60,0
464.48837,464.72092,79,58,0
464.72092,464.82916,77,54,0
464.82916,464.93744,76,51,0
464.93744,465.0457,74,54,0
465.0457,465.15393,72,52,0
465.15393,465.26865,78,54,0
465.26865,465.38336,79,53,0
465.38336,465.49808,81,55,0
465.49808,465.6128,79,57,0
465.6128,465.72107,77,56,0
465.72107,465.8293,76,55,0
465.8293,465.94226,74,54,0
465.94226,466.05518,72,54,0
466.05518,466.28928,80,62,0
466.28928,466.52335,81,56,0
466.52335,466.64038,81,60,0
466.75742,466.87448,81,56,0
466.99152,467.4597,81,63,0
467.92786,468.05942,86,81,0
468.0375,468.16907,88,77,0
468.14713,468.27872,89,81,0
468.25677,468.38837,88,77,0
468.36642,468.49802,86,79,0
468.47607,468.60767,84,73,0
468.58572,468.71732,83,77,0
468.69537,468.82697,81,75,0
468.80502,468.9366,79,78,0
468.91467,469.04626,83,73,0
469.02432,469.1559,86,81,0
469.13397,469.26556,84,74,0
469.24362,469.3752,83,81,0
469.35327,469.48486,81,75,0
469.46292,469.5945,79,81,0
469.57257,469.70486,77,76,0
469.68222,469.90872,76,86,0
470.1352,470.1918,79,71,0
470.1918,470.24844,77,66,0
470.24844,470.30505,79,71,0
470.30505,470.36166,77,67,0
470.36166,470.4749,76,81,0
470.4749,470.58817,77,79,0
470.58817,470.8047,79,89,0
471.30988,471.39236,81,53,0
471.39236,471.4645,83,49,0
471.4645,471.89215,84,61,0
471.89755,472.21692,84,56,0
472.22232,472.32516,84,54,0
472.33057,472.7636,84,56,0
472.7636,472.87186,83,55,0
472.87186,472.9801,81,50,0
472.9801,473.08838,79,53,0
473.08838,473.19662,77,51,0
473.19662,473.4187,76,78,0
473.6408,473.69632,77,67,0
473.69632,473.75186,79,63,0
473.75186,473.80737,77,67,0
473.80737,473.86288,79,63,0
473.86288,473.91843,77,67,0
473.93692,474.01096,76,76,0
474.01096,474.085,77,72,0
474.085,474.3015,79,87,0
474.8067,474.88635,81,53,0
474.88635,474.966,83,48,0
474.966,475.39362,84,61,0
475.39905,475.71838,84,55,0
475.72382,475.82666,84,52,0
475.83206,476.26508,84,55,0
476.26508,476.37335,83,54,0
476.37335,476.4816,81,52,0
476.4816,476.58984,79,54,0
476.58984,476.69812,77,53,0
476.69812,476.8144,76,83,0
476.93066,477.06058,84,78,0
477.0389,477.16882,86,78,0
477.1472,477.2771,88,81,0
477.25543,477.38535,86,78,0
477.3637,477.4936,84,81,0
477.47195,477.60187,83,78,0
477.5802,477.7101,81,81,0
477.68848,477.81897,79,78,0
477.79718,477.92828,77,81,0
477.90637,478.0381,76,76,0
478.01602,478.14844,74,81,0
478.12634,478.25937,72,76,0
478.23715,478.37082,71,81,0
478.34845,478.4853,69,73,0
478.4607,478.70645,67,85,0
478.95218,479.87613,65,90,0
479.87613,480.33807,64,76,0
480.56906,480.67734,62,55,0
480.78558,480.89383,65,54,0
481.0021,481.11035,69,53,0
481.2186,481.43512,73,55,0
481.43512,481.65164,74,54,0
481.65164,481.86813,77,55,0
481.86813,482.08466,81,53,0
482.08466,482.3172,81,61,0
482.3172,482.54395,72,55,0
482.54977,483.4535,72,54,0
483.4535,483.67847,76,56,0
483.67847,483.90347,74,54,0
483.4535,483.90347,71,56,0
483.90347,484.3686,72,54,0
484.8337,485.0502,79,76,0
485.0502,485.26672,76,72,0
485.26672,485.48325,84,57,0
485.48325,485.5929,83,53,0
485.70255,485.8122,81,51,0
485.92184,486.0315,79,49,0
486.1411,486.25076,77,54,0
486.3604,486.47006,76,50,0
486.5797,486.80182,74,53,0
487.0239,487.246,76,54,0
487.46808,487.69162,79,58,0
487.69162,487.9152,78,54,0
487.9152,488.13873,77,54,0
488.36227,488.5788,76,51,0
488.5788,488.7953,77,54,0
488.7953,489.0118,79,57,0
489.0118,489.12006,80,59,0
489.22833,489.29495,81,49,0
489.29495,489.36157,83,51,0
489.36157,489.4282,81,54,0
489.4282,489.49484,83,56,0
489.49484,489.56146,81,58,0
489.56146,489.6697,83,62,0
489.6697,489.77798,84,68,0
489.88623,489.99448,83,61,0
490.10275,490.211,81,62,0
490.31924,490.42773,79,57,0
490.53668,490.64563,77,60,0
490.75507,490.8721,76,57,0
490.98468,491.32214,79,64,0
491.32214,491.43466,76,61,0
491.43466,491.65964,74,61,0
491.8846,492.20938,79,86,0
492.20938,492.26352,81,81,0
492.26352,492.31766,83,76,0
492.31766,492.53418,84,85,0
492.53418,492.64243,83,62,0
492.75067,492.85895,81,62,0
492.9672,493.07544,79,60,0
493.18372,493.29196,77,62,0
493.4002,493.50848,76,59,0
493.61673,493.8374,74,63,0
494.0581,494.27878,76,70,0
494.49948,494.72015,77,72,0
494.9413,495.1634,78,78,0
495.38647,495.61002,79,79,0
495.835,496.0605,80,82,0
496.28696,496.6289,81,85,0
496.6289,496.73718,69,79,0
496.73718,497.06705,77,84,0
497.06705,497.1786,74,81,0
497.5723,497.62854,76,64,0
497.1786,497.62854,72,77,0
497.62854,498.06158,71,71,0
497.62854,498.06158,74,71,0
498.06158,498.50867,72,71,0
498.6169,498.7252,72,64,0
498.7252,498.83344,74,65,0
498.83344,498.9417,76,66,0
498.9417,499.0015,77,68,0
499.0015,499.06128,79,68,0
499.06128,499.11835,77,59,0
499.11835,499.2292,76,70,0
499.17538,499.28296,77,71,0
499.28296,499.39053,79,72,0
499.39053,499.43958,81,66,0
499.4494,499.49844,83,65,0
499.50824,499.6241,81,70,0
499.5662,499.67792,79,75,0
499.6241,499.7317,81,76,0
499.7317,499.83926,83,78,0
499.83926,499.95178,84,87,0
500.06427,500.17676,84,84,0
500.39752,500.50577,72,63,0
500.50577,500.614,74,65,0
500.614,500.7223,76,66,0
500.7223,500.78207,77,68,0
500.78207,500.84186,79,68,0
500.84186,500.89893,77,59,0
500.89893,501.00977,76,70,0
500.95596,501.06354,77,71,0
501.06354,501.1711,79,72,0
501.1711,501.22015,81,66,0
501.22998,501.27902,83,65,0
501.28882,501.40472,81,70,0
501.34677,501.4585,79,75,0
501.40472,501.5123,81,76,0
501.5123,501.61984,83,78,0
501.61984,501.72742,84,88,0
501.835,501.94257,84,86,0
502.15842,502.26666,79,55,0
502.26666,502.3749,83,58,0
502.3749,502.4832,79,55,0
502.4832,502.5942,84,59,0
502.70526,502.8163,84,59,0
503.0356,503.14386,79,54,0
503.14386,503.25214,83,57,0
503.25214,503.36038,79,54,0
503.36038,503.47144,84,59,0
503.58246,503.6935,84,66,0
503.9128,504.0211,79,67,0
504.0211,504.12933,83,71,0
504.12933,504.23758,79,68,0
504.23758,504.34586,84,75,0
504.34586,504.45456,79,72,0
504.45456,504.56375,84,79,0
504.56375,504.6734,79,75,0
504.6734,504.78397,86,83,0
504.78397,504.89502,79,81,0
504.89502,505.00677,86,88,0
505.00677,505.11905,79,83,0
505.11905,505.34552,88,91,0
505.34552,505.57202,84,80,0
505.57202,505.7985,79,82,0
505.7985,506.02496,84,79,0
506.02496,506.25146,76,78,0
506.25146,506.47794,79,71,0
506.47794,506.70444,72,72,0
506.70444,506.9309,76,69,0
506.9309,507.15158,69,60,0
507.15158,507.37228,81,60,0
507.37228,507.48264,79,63,0
507.48264,507.59296,77,58,0
507.59296,507.7033,76,63,0
507.7033,507.81366,74,58,0
507.81366,508.26663,72,63,0
508.26663,508.32703,71,60,0
508.32703,508.38742,72,63,0
508.38742,508.4478,71,60,0
508.4478,508.5082,72,63,0
508.5082,508.5686,71,63,0
508.5686,508.6441,69,63,0
508.6441,508.71957,71,60,0
508.71957,509.1667,72,71,0
509.27493,509.38318,72,64,0
509.38318,509.49146,74,65,0
509.49146,509.5997,76,66,0
509.5997,509.6595,77,68,0
509.6595,509.7193,79,68,0
509.7193,509.77634,77,59,0
509.77634,509.8872,76,70,0
509.8334,509.94098,77,71,0
509.94098,510.04855,79,72,0
510.04855,510.0976,81,66,0
510.1074,510.15643,83,65,0
510.16626,510.28214,81,70,0
510.22418,510.33594,79,75,0
510.28214,510.3897,81,76,0
510.3897,510.49728,83,78,0
510.49728,510.60486,84,84,0
510.71243,510.82,84,81,0
511.03583,511.1441,72,63,0
511.1441,511.25235,74,65,0
511.25235,511.3606,76,66,0
511.3606,511.42038,77,68,0
511.42038,511.4802,79,68,0
511.4802,511.53723,77,59,0
511.53723,511.6481,76,70,0
511.5943,511.70187,77,71,0
511.70187,511.80945,79,72,0
511.80945,511.8585,81,66,0
511.8683,511.91733,83,65,0
511.92715,512.043,81,70,0
511.9851,512.0968,79,75,0
512.043,512.15063,81,76,0
512.15063,512.2582,83,78,0
512.2582,512.3658,84,84,0
512.4733,512.5809,84,80,0
512.79675,512.90497,79,55,0
512.90497,513.01324,83,59,0
513.01324,513.1215,79,55,0
513.1215,513.23254,84,59,0
513.34357,513.45465,84,59,0
513.67395,513.78217,79,54,0
513.78217,513.89044,83,56,0
513.89044,513.9987,79,54,0
513.9987,514.10974,84,59,0
514.2208,514.33185,84,59,0
514.55115,514.6594,79,67,0
514.6594,514.76764,83,71,0
514.76764,514.8759,79,68,0
514.8759,514.98096,84,75,0
514.98096,515.08856,79,73,0
515.08856,515.1951,84,79,0
515.1951,515.3048,79,77,0
515.3048,515.41534,86,83,0
515.41534,515.5264,79,81,0
515.5264,515.6382,86,88,0
515.6382,515.7504,79,82,0
515.7504,515.8637,88,88,0
515.8637,515.9769,84,78,0
515.9769,516.09015,88,84,0
516.09015,516.2034,84,80,0
516.2034,516.31665,79,82,0
516.31665,516.4299,84,74,0
516.4299,516.54315,79,79,0
516.54315,516.6564,84,71,0
516.6564,516.7696,76,78,0
516.7696,516.8829,79,71,0
516.8829,516.9961,76,76,0
516.9961,517.1094,79,71,0
517.1094,517.2226,72,72,0
517.2226,517.3358,76,67,0
517.3358,517.4491,72,71,0
517.4491,517.5623,76,63,0
517.5623,517.783,69,60,0
517.783,518.00366,81,63,0
518.00366,518.114,79,63,0
518.114,518.22437,77,58,0
518.22437,518.3347,76,63,0
518.3347,518.44507,74,60,0
518.44507,518.898,72,63,0
518.898,518.95844,71,60,0
518.95844,519.0188,72,63,0
519.0188,519.0792,71,60,0
519.0792,519.1396,72,63,0
519.1396,519.2,71,63,0
519.2,519.2755,69,63,0
519.2755,519.351,71,60,0
519.351,519.69934,72,82,0
519.69934,519.8154,67,78,0
519.8154,520.1638,76,82,0
520.1638,520.2799,72,76,0
520.2799,520.5242,79,81,0
520.76843,520.8984,86,54,0
520.8767,521.0066,84,50,0
520.985,521.11487,83,54,0
521.0932,521.2237,81,49,0
521.2015,521.4236,79,57,0
521.6456,521.7756,81,54,0
521.7539,521.8838,79,50,0
521.8622,521.99207,77,54,0
521.9704,522.1009,76,50,0
522.0787,522.3008,74,57,0
522.5229,522.6528,79,56,0
522.6311,522.76105,77,53,0
522.7394,522.86926,76,56,0
522.84766,522.97876,74,52,0
522.9559,523.0703,72,81,0
523.0703,523.1847,67,75,0
523.1847,523.29913,72,82,0
523.29913,523.4136,67,78,0
523.4136,523.52795,76,82,0
523.52795,523.6424,72,78,0
523.6424,523.7568,76,82,0
523.7568,523.8712,72,76,0
523.8712,524.1195,79,82,0
524.3678,524.4921,86,55,0
524.4714,524.5957,84,53,0
524.57495,524.6993,83,55,0
524.6785,524.8048,81,53,0
524.7821,524.8954,79,58,0
525.0086,525.1218,79,58,0
525.2351,525.36115,81,54,0
525.34015,525.4662,79,50,0
525.4451,525.57117,77,54,0
525.5502,525.67725,76,50,0
525.6552,525.76654,74,57,0
525.87976,525.993,74,57,0
526.10626,526.23615,79,55,0
526.2145,526.3444,77,51,0
526.32275,526.45264,76,55,0
526.431,526.5618,74,51,0
526.53925,526.99036,72,62,0
527.2159,527.4379,80,57,0
527.4379,527.6603,81,62,0
527.6603,527.88257,83,64,0
527.88257,528.1049,84,70,0
528.1049,528.3272,76,62,0
528.3272,528.5552,79,66,0
528.5552,528.78314,77,62,0
529.0111,529.2332,76,55,0
529.2332,529.4553,77,60,0
529.4553,529.67737,79,62,0
529.67737,529.8997,81,65,0
529.8997,530.122,73,57,0
530.122,530.35,76,63,0
530.35,530.57794,74,57,0
530.8059,531.028,73,49,0
531.028,531.2501,74,52,0
531.2501,531.47217,76,54,0
531.47217,531.6943,77,57,0
531.6943,531.9164,71,49,0
531.9164,532.14435,74,50,0
532.14435,532.3723,72,49,0
532.3723,532.5944,81,70,0
532.5944,532.81647,71,49,0
532.81647,533.04443,74,51,0
533.04443,533.2724,72,49,0
533.2724,533.4945,81,70,0
533.4945,533.7166,71,49,0
533.9446,534.05927,74,49,0
534.05927,534.174,72,43,0
534.40497,534.52124,80,57,0
534.52124,534.63806,71,43,0
534.8743,534.9922,74,51,0
534.9922,535.1106,72,43,0
535.35486,535.50977,80,55,0
535.50977,535.74115,71,41,0
535.74115,537.15594,65,45,0
535.74115,537.15594,71,54,0
535.74115,537.15594,74,54,0
535.74115,537.15594,67,45,0
537.15594,537.7631,67,34,0
537.15594,537.7631,64,34,0
537.15594,537.7631,72,40,0
0.0019210083,0.230521,64,50,0
0.230521,0.461042,60,36,0
0.461042,0.686572,64,43,0
0.686572,0.912102,60,38,0
0.912102,1.137632,64,51,0
1.137632,1.3541447,60,40,0
1.3541447,1.5706575,64,45,0
1.5706575,1.7871703,60,43,0
1.7871703,2.0092607,64,51,0
2.0092607,2.2313511,60,45,0
2.2313511,2.4534419,64,51,0
2.4534419,2.6699545,60,40,0
2.6699545,2.893902,64,42,0
2.893902,3.1178496,60,28,0
3.1178496,3.3370838,64,33,0
3.3370838,3.556318,60,27,0
3.556318,3.779865,64,51,0
3.779865,4.003412,60,36,0
4.003412,4.226959,64,43,0
4.226959,4.450506,60,36,0
4.450506,4.674053,64,43,0
4.674053,4.890566,60,36,0
4.890566,5.1070786,65,40,0
5.1070786,5.323591,60,36,0
5.323591,5.545682,64,38,0
5.545682,5.767772,60,34,0
5.767772,5.989863,64,39,0
5.989863,6.2063756,60,33,0
6.2063756,6.4286966,64,34,0
6.4286966,6.6510177,60,27,0
6.6510177,6.8687243,64,31,0
6.8687243,7.086431,60,27,0
7.086431,7.300717,65,34,0
7.300717,7.5150027,60,29,0
7.5150027,7.7199206,65,34,0
7.7199206,7.949243,60,30,0
7.949243,8.165351,65,34,0
8.165351,8.381457,60,26,0
8.381457,8.596693,65,31,0
8.596693,8.812894,60,26,0
8.812894,9.024729,64,36,0
9.024729,9.236563,60,32,0
9.236563,9.440119,64,36,0
9.440119,9.665988,60,30,0
9.665988,9.882095,64,36,0
9.882095,10.098203,60,26,0
10.098203,10.314309,64,32,0
10.314309,10.5304165,60,27,0
10.5304165,10.746524,60,57,0
10.746524,10.962631,55,50,0
10.5304165,10.962631,64,57,0
10.962631,11.178739,60,57,0
11.178739,11.394846,55,50,0
10.962631,11.394846,64,57,0
11.394846,11.610953,59,54,0
11.610953,11.827061,55,46,0
11.394846,11.827061,62,54,0
11.827061,12.043167,59,50,0
12.043167,12.2592745,55,46,0
11.827061,12.2592745,62,50,0
12.2592745,12.484263,60,48,0
12.484263,12.709252,48,43,0
12.709252,12.925765,52,48,0
12.925765,13.142278,55,43,0
13.142278,13.35879,60,57,0
13.35879,13.575303,64,47,0
13.575303,13.784305,67,52,0
13.784305,13.993305,64,46,0
13.993305,14.20514,65,37,0
14.20514,14.416974,60,28,0
14.416974,14.628809,65,37,0
14.628809,14.840643,60,29,0
14.840643,15.062964,65,37,0
15.062964,15.285285,60,29,0
15.285285,15.500001,65,33,0
15.500001,15.714716,60,29,0
15.714716,15.92655,64,37,0
15.92655,16.138386,60,29,0
16.138386,16.35022,64,37,0
16.35022,16.562054,60,28,0
16.562054,16.782837,64,37,0
16.782837,17.00362,60,27,0
17.00362,17.21982,64,32,0
17.21982,17.436022,60,29,0
17.436022,17.649302,60,48,0
17.649302,17.862581,55,42,0
17.436022,17.862581,64,48,0
17.862581,18.075863,60,45,0
18.075863,18.289143,55,40,0
17.862581,18.289143,64,45,0
18.289143,18.502422,62,48,0
18.502422,18.715702,55,42,0
18.289143,18.715702,65,48,0
18.715702,18.928984,62,45,0
18.928984,19.142263,55,40,0
18.715702,19.142263,65,45,0
19.142263,20.007067,64,56,0
19.142263,20.007067,60,56,0
20.889446,21.339422,64,45,0
20.889446,21.339422,55,45,0
21.339422,21.7894,62,41,0
21.339422,21.7894,55,41,0
21.7894,22.239378,55,46,0
21.7894,22.239378,60,46,0
22.239378,22.689356,55,41,0
22.239378,22.689356,59,41,0
22.689356,23.555407,60,58,0
24.43841,24.888388,55,48,0
24.43841,24.888388,64,48,0
24.888388,25.338364,62,45,0
24.888388,25.338364,55,45,0
25.338364,25.788342,55,47,0
25.338364,25.788342,60,47,0
25.788342,26.23832,55,45,0
25.788342,26.23832,59,45,0
26.23832,26.361189,48,58,0
26.48406,26.700573,60,64,0
26.700573,26.917086,59,56,0
26.917086,27.133598,58,56,0
27.133598,27.24909,57,59,0
27.36458,27.581093,57,57,0
27.581093,27.797606,55,57,0
27.797606,28.014118,53,54,0
28.014118,28.23063,52,57,0
28.447144,28.672132,48,57,0
29.331903,29.822506,60,48,0
29.331903,29.822506,48,48,0
29.822506,30.488777,64,48,0
30.488777,30.710867,60,54,0
29.822506,30.710867,55,48,0
30.943102,31.162336,43,65,0
30.710867,31.162336,59,48,0
31.162336,31.38157,47,72,0
31.38157,31.62583,50,69,0
31.62583,31.849377,55,45,0
31.849377,32.072926,59,43,0
32.072926,32.289436,62,41,0
32.50595,32.729496,55,45,0
32.729496,32.953045,59,43,0
32.953045,33.169556,62,41,0
33.413815,33.6403,55,44,0
33.6403,33.866783,60,40,0
33.866783,34.093266,64,43,0
34.093266,34.31975,60,40,0
34.31975,34.542072,55,44,0
34.542072,34.764393,60,40,0
34.764393,34.977673,64,43,0
34.977673,35.190952,60,40,0
35.190952,35.40866,54,57,0
35.40866,35.626366,57,54,0
35.626366,35.844074,60,49,0
36.06178,36.300747,54,57,0
36.300747,36.52871,57,54,0
36.52871,36.756676,60,51,0
36.99702,37.22289,55,57,0
37.22289,37.44876,59,51,0
37.44876,37.56893,62,53,0
37.689106,37.80928,62,50,0
37.92945,38.15532,55,57,0
38.15532,38.38119,59,39,0
38.38119,38.494125,62,42,0
38.60706,38.73058,62,37,0
38.854095,39.078915,55,44,0
39.078915,39.303738,59,41,0
39.303738,39.52025,62,41,0
39.736763,39.95885,55,44,0
39.95885,40.180943,59,41,0
40.180943,40.397457,62,41,0
40.641716,40.87055,55,43,0
40.87055,41.09938,60,40,0
41.09938,41.328213,64,40,0
41.328213,41.55705,60,40,0
41.55705,41.784252,55,45,0
41.784252,42.011456,60,38,0
42.011456,42.227657,64,42,0
42.227657,42.443855,60,40,0
42.443855,44.173462,57,52,0
42.443855,44.173462,54,52,0
42.443855,44.173462,60,52,0
42.443855,44.173462,62,62,0
44.173462,44.32445,55,61,0
44.32445,44.47544,59,54,0
44.47544,44.62643,67,51,0
44.62643,44.77742,57,61,0
44.77742,44.92841,60,53,0
44.92841,45.079395,67,50,0
45.079395,45.22374,59,61,0
45.22374,45.36808,62,57,0
45.36808,45.51242,67,49,0
45.51242,45.656765,55,61,0
45.656765,45.801105,59,48,0
45.801105,45.955757,67,45,0
45.955757,46.1001,60,43,0
46.1001,46.244442,64,40,0
46.244442,46.388783,67,37,0
46.388783,46.533127,60,43,0
46.533127,46.677467,64,40,0
46.677467,46.821808,67,38,0
46.821808,46.966152,60,43,0
46.966152,47.110493,64,40,0
47.110493,47.254833,67,38,0
47.254833,47.399178,60,43,0
47.399178,47.543518,64,41,0
47.543518,47.68786,67,39,0
47.68786,47.83592,55,57,0
47.83592,47.983982,59,50,0
47.983982,48.132042,67,50,0
48.132042,48.2801,57,57,0
48.2801,48.42816,60,51,0
48.42816,48.57622,67,48,0
48.57622,48.720562,59,57,0
48.720562,48.864906,62,52,0
48.864906,49.009247,67,46,0
49.009247,49.15359,55,57,0
49.15359,49.29793,59,50,0
49.29793,49.45724,67,47,0
49.45724,49.601585,60,38,0
49.601585,49.745926,64,36,0
49.745926,49.89027,67,36,0
49.89027,50.03461,60,38,0
50.03461,50.17895,64,36,0
50.17895,50.323296,67,36,0
50.323296,50.467636,60,45,0
50.467636,50.611977,64,43,0
50.611977,50.75632,67,40,0
50.75632,50.90066,60,45,0
50.90066,51.045002,64,44,0
51.045002,51.189346,67,41,0
51.189346,51.4219,55,61,0
52.07144,52.288414,48,61,0
52.951942,53.19768,50,63,0
53.443424,54.36735,57,63,0
53.443424,54.36735,51,53,0
53.443424,54.36735,54,53,0
54.36735,54.82932,55,48,0
54.36735,54.82932,52,40,0
54.82932,55.276814,52,43,0
54.82932,55.276814,48,36,0
57.05972,57.524837,59,44,0
57.524837,58.41341,60,44,0
57.05972,58.41341,50,44,0
58.41341,58.64597,55,46,0
58.41341,58.87853,59,46,0
58.87853,59.111084,43,44,0
62.42513,62.872223,54,40,0
62.872223,63.30525,55,43,0
62.42513,63.30525,62,40,0
63.738274,64.61269,55,43,0
63.738274,64.61269,48,43,0
65.04664,65.49462,49,43,0
65.04664,65.49462,52,43,0
65.49462,65.944595,55,43,0
65.944595,66.415405,54,41,0
65.49462,66.415405,50,43,0
66.415405,66.74017,62,77,0
66.74017,66.794304,64,70,0
66.794304,66.848434,66,66,0
66.848434,67.06495,67,71,0
67.06495,67.1732,66,56,0
67.281456,67.38972,64,56,0
67.49797,67.60623,62,52,0
67.714485,67.82274,60,56,0
67.931,68.03925,59,52,0
68.14751,68.368195,57,57,0
68.58888,68.80956,59,62,0
69.03025,69.25094,60,67,0
69.47209,69.69418,61,65,0
69.917244,70.14079,62,70,0
70.365776,70.59126,63,66,0
70.81775,71.1407,64,72,0
71.26795,71.70936,57,43,0
71.26795,71.70936,48,43,0
71.70936,72.15933,59,43,0
72.15933,72.59236,60,43,0
71.70936,72.59236,50,43,0
72.59236,72.80887,55,60,0
72.80887,73.02538,59,50,0
73.02538,73.2419,62,54,0
73.2419,73.45841,59,48,0
73.45841,73.67492,55,56,0
73.67492,73.89143,60,45,0
73.89143,74.10795,64,49,0
74.10795,74.32446,60,47,0
74.32446,74.549446,55,56,0
74.549446,74.77444,59,50,0
74.77444,74.99095,62,54,0
74.99095,75.207466,59,47,0
75.207466,75.42397,55,56,0
75.42397,75.64049,60,50,0
75.64049,75.857,64,54,0
75.857,76.07352,60,49,0
76.07352,76.52061,55,56,0
76.07352,76.52061,62,56,0
76.07352,76.52061,59,56,0
76.52061,76.953636,72,41,0
76.953636,77.39781,71,44,0
77.39781,77.83084,72,43,0
77.83084,78.275024,71,45,0
78.275024,78.38328,66,52,0
78.49153,78.59979,66,54,0
78.708046,78.8163,67,57,0
78.92502,79.0342,67,60,0
79.14385,79.254425,69,62,0
79.36547,79.47725,69,65,0
79.5895,80.042465,71,67,0
81.84274,82.28411,52,44,0
81.84274,82.28411,57,44,0
81.84274,82.28411,48,44,0
82.28411,82.737076,59,44,0
82.28411,82.737076,55,44,0
82.737076,83.19005,57,44,0
82.737076,83.19005,60,44,0
82.28411,83.19005,50,44,0
83.19005,83.406555,55,51,0
83.406555,83.62307,59,46,0
83.62307,83.839584,62,54,0
83.839584,84.0561,59,49,0
84.0561,84.272606,55,54,0
84.272606,84.48912,60,50,0
84.48912,84.705635,64,54,0
84.705635,84.92215,60,50,0
84.92215,85.14569,55,58,0
85.14569,85.36924,59,50,0
85.36924,85.585754,62,54,0
85.585754,85.80227,59,54,0
85.80227,86.018776,55,54,0
86.018776,86.23529,60,50,0
86.23529,86.451805,64,54,0
86.451805,86.66832,60,50,0
86.66832,87.112495,55,58,0
86.66832,87.112495,62,58,0
86.66832,87.112495,59,58,0
87.112495,87.545525,72,43,0
87.545525,87.98971,71,45,0
87.98971,88.42273,72,43,0
88.42273,88.86983,71,45,0
88.86983,88.97808,66,48,0
89.086334,89.194595,66,51,0
89.30285,89.41111,67,54,0
89.51982,89.629005,67,57,0
89.738655,89.849236,69,61,0
89.96027,90.07205,69,64,0
90.1843,90.6314,71,67,0
92.4378,92.902916,52,44,0
92.4378,92.902916,48,44,0
92.4378,92.902916,57,44,0
92.902916,93.35588,55,44,0
92.902916,93.35588,59,44,0
93.35588,93.830666,60,44,0
93.35588,93.830666,57,44,0
92.902916,93.830666,50,44,0
93.830666,94.16947,55,78,0
94.16947,94.28241,50,72,0
94.28241,94.62121,59,78,0
94.62121,94.734146,55,72,0
94.734146,94.973305,62,77,0
95.645485,95.86758,50,41,0
95.645485,95.86758,59,41,0
95.645485,95.86758,55,41,0
96.5227,96.74478,60,41,0
96.5227,96.74478,54,41,0
96.5227,96.74478,50,41,0
97.3999,97.5124,55,72,0
97.5124,97.62489,50,67,0
97.62489,97.73738,55,72,0
97.73738,97.84988,50,67,0
97.84988,97.96237,59,72,0
97.96237,98.07487,55,67,0
98.07487,98.18736,59,72,0
98.18736,98.29986,55,66,0
98.29986,98.54289,62,72,0
99.21895,99.445435,55,45,0
99.21895,99.445435,50,45,0
99.21895,99.445435,59,45,0
100.10494,100.32949,50,45,0
100.10494,100.32949,60,45,0
100.10494,100.32949,54,45,0
100.989,101.47507,55,46,0
100.989,101.47507,59,46,0
101.47507,101.72789,55,46,0
101.98071,102.22375,43,46,0
102.954765,103.183365,64,50,0
103.183365,103.41389,60,36,0
103.41389,103.63942,64,43,0
103.63942,103.864944,60,38,0
103.864944,104.09048,64,51,0
104.09048,104.30699,60,40,0
104.30699,104.5235,64,45,0
104.5235,104.74001,60,43,0
104.74001,104.962105,64,51,0
104.962105,105.1842,60,45,0
105.1842,105.40629,64,51,0
105.40629,105.622795,60,40,0
105.622795,105.84675,64,42,0
105.84675,106.070694,60,28,0
106.070694,106.289925,64,33,0
106.289925,106.50916,60,27,0
106.50916,106.73271,64,51,0
106.73271,106.95625,60,36,0
106.95625,107.1798,64,43,0
107.1798,107.40335,60,36,0
107.40335,107.6269,64,43,0
107.6269,107.84341,60,36,0
107.84341,108.05992,65,40,0
108.05992,108.276436,60,36,0
108.276436,108.49853,64,38,0
108.49853,108.72062,60,34,0
108.72062,108.9427,64,39,0
108.9427,109.15922,60,33,0
109.15922,109.38154,64,34,0
109.38154,109.60386,60,27,0
109.60386,109.82157,64,31,0
109.82157,110.039276,60,27,0
110.039276,110.242744,65,34,0
110.242744,110.44622,60,29,0
110.44622,110.6497,65,34,0
110.6497,110.87901,60,30,0
110.87901,111.09512,65,34,0
111.09512,111.31123,60,26,0
111.31123,111.52647,65,31,0
111.52647,111.74267,60,26,0
111.74267,111.94894,64,36,0
111.94894,112.155205,60,32,0
112.155205,112.358765,64,36,0
112.358765,112.58463,60,30,0
112.58463,112.80074,64,36,0
112.80074,113.016846,60,26,0
113.016846,113.232956,64,32,0
113.232956,113.44906,60,27,0
113.44906,113.66517,60,57,0
113.66517,113.88128,55,50,0
113.44906,113.88128,64,57,0
113.88128,114.09738,60,57,0
114.09738,114.31349,55,50,0
113.88128,114.31349,64,57,0
114.31349,114.529594,59,54,0
114.529594,114.745705,55,46,0
114.31349,114.745705,62,54,0
114.745705,114.961815,59,50,0
114.961815,115.17792,55,46,0
114.745705,115.17792,62,50,0
115.17792,115.40291,60,48,0
115.40291,115.6279,48,43,0
115.6279,115.844406,52,48,0
115.844406,116.06092,55,43,0
116.06092,116.277435,60,57,0
116.277435,116.49395,64,47,0
116.49395,116.70295,67,52,0
116.70295,116.91195,64,46,0
116.91195,117.12379,65,37,0
117.12379,117.33562,60,28,0
117.33562,117.533714,65,37,0
117.533714,117.73182,60,29,0
117.73182,117.95414,65,37,0
117.95414,118.17646,60,29,0
118.17646,118.391174,65,33,0
118.391174,118.60589,60,29,0
118.60589,118.817726,64,37,0
118.817726,119.02956,60,29,0
119.02956,119.22765,64,37,0
119.22765,119.42575,60,28,0
119.42575,119.64654,64,37,0
119.64654,119.86732,60,27,0
119.86732,120.08352,64,32,0
120.08352,120.29972,60,29,0
120.29972,120.513,60,48,0
120.513,120.72628,55,42,0
120.29972,120.72628,64,48,0
120.72628,120.93956,60,45,0
120.93956,121.15284,55,40,0
120.72628,121.15284,64,45,0
121.15284,121.36612,62,48,0
121.36612,121.5794,55,42,0
121.15284,121.5794,65,48,0
121.5794,121.79269,62,45,0
121.79269,122.00597,55,40,0
121.5794,122.00597,65,45,0
122.00597,122.870766,64,56,0
122.00597,122.870766,60,56,0
123.75314,124.203125,64,45,0
123.75314,124.203125,55,45,0
124.203125,124.6531,62,41,0
124.203125,124.6531,55,41,0
124.6531,125.10308,55,46,0
124.6531,125.10308,60,46,0
125.10308,125.553055,55,41,0
125.10308,125.553055,59,41,0
125.553055,126.419106,60,58,0
127.31628,127.76592,55,48,0
127.31628,127.76592,64,48,0
127.76592,128.21556,62,45,0
127.76592,128.21556,55,45,0
128.21556,128.6652,55,47,0
128.21556,128.6652,60,47,0
128.6652,129.11484,55,45,0
128.6652,129.11484,59,45,0
129.11484,129.23772,48,58,0
129.36058,129.57709,60,64,0
129.57709,129.79361,59,56,0
129.79361,130.01012,58,56,0
130.01012,130.12561,57,59,0
130.2411,130.45761,57,57,0
130.45761,130.67413,55,57,0
130.67413,130.89064,53,54,0
130.89064,131.10715,52,57,0
131.32367,131.54866,48,57,0
132.20842,132.71187,60,48,0
132.20842,132.71187,48,48,0
132.71187,133.37814,64,48,0
133.37814,133.60023,60,54,0
132.71187,133.60023,55,48,0
133.83247,134.0517,43,65,0
133.60023,134.0517,59,48,0
134.0517,134.27094,47,72,0
134.27094,134.5152,50,69,0
134.5152,134.73874,55,45,0
134.73874,134.9623,59,43,0
134.9623,135.1788,62,41,0
135.39531,135.61887,55,45,0
135.61887,135.8424,59,43,0
135.8424,136.05891,62,41,0
136.30318,136.53494,55,44,0
136.53494,136.75977,60,40,0
136.75977,136.98459,64,43,0
136.98459,137.20941,60,40,0
137.20941,137.43173,55,44,0
137.43173,137.65405,60,40,0
137.65405,137.86732,64,43,0
137.86732,138.08061,60,40,0
138.08061,138.29832,54,57,0
138.29832,138.51602,57,54,0
138.51602,138.73373,60,49,0
138.95145,139.19041,54,57,0
139.19041,139.41837,57,54,0
139.41837,139.64633,60,51,0
139.88667,140.11255,55,57,0
140.11255,140.33842,59,51,0
140.33842,140.45859,62,53,0
140.57877,140.69894,62,50,0
140.8191,141.04498,55,57,0
141.04498,141.27084,59,39,0
141.27084,141.38379,62,42,0
141.49672,141.62024,62,37,0
141.74376,141.96858,55,44,0
141.96858,142.19339,59,41,0
142.19339,142.40991,62,41,0
142.62642,142.84851,55,44,0
142.84851,143.0706,59,41,0
143.0706,143.28711,62,41,0
143.53137,143.76021,55,43,0
143.76021,143.98904,60,40,0
143.98904,144.21788,64,40,0
144.21788,144.4467,60,40,0
144.4467,144.6739,55,45,0
144.6739,144.90111,60,38,0
144.90111,145.11731,64,42,0
145.11731,145.33351,60,40,0
145.33351,147.06313,57,52,0
145.33351,147.06313,54,52,0
145.33351,147.06313,60,52,0
145.33351,147.06313,62,62,0
147.06313,147.21411,55,61,0
147.21411,147.3651,59,54,0
147.3651,147.51608,67,51,0
147.51608,147.66708,57,61,0
147.66708,147.81807,60,53,0
147.81807,147.96906,67,50,0
147.96906,148.1134,59,61,0
148.1134,148.25774,62,57,0
148.25774,148.40208,67,49,0
148.40208,148.54642,55,61,0
148.54642,148.69077,59,48,0
148.69077,148.84541,67,45,0
148.84541,148.98976,60,43,0
148.98976,149.1341,64,40,0
149.1341,149.27844,67,37,0
149.27844,149.42279,60,43,0
149.42279,149.56712,64,40,0
149.56712,149.71147,67,38,0
149.71147,149.8558,60,43,0
149.8558,150.00015,64,40,0
150.00015,150.1445,67,38,0
150.1445,150.28883,60,43,0
150.28883,150.43318,64,41,0
150.43318,150.57751,67,39,0
150.57751,150.72559,55,57,0
150.72559,150.87364,59,50,0
150.87364,151.0217,67,50,0
151.0217,151.16975,57,57,0
151.16975,151.31783,60,51,0
151.31783,151.46588,67,48,0
151.46588,151.61023,59,57,0
151.61023,151.75456,62,52,0
151.75456,151.89891,67,46,0
151.89891,152.04324,55,57,0
152.04324,152.18759,59,50,0
152.18759,152.34691,67,47,0
152.34691,152.49124,60,38,0
152.49124,152.63559,64,36,0
152.63559,152.77992,67,36,0
152.77992,152.92427,60,38,0
152.92427,153.06862,64,36,0
153.06862,153.21295,67,36,0
153.21295,153.3573,60,45,0
153.3573,153.50163,64,43,0
153.50163,153.64598,67,40,0
153.64598,153.79031,60,45,0
153.79031,153.93466,64,44,0
153.93466,154.07901,67,41,0
154.07901,154.31157,55,61,0
154.9611,155.17807,48,61,0
155.8416,156.08734,50,63,0
156.33308,157.25702,57,63,0
156.33308,157.25702,51,53,0
156.33308,157.25702,54,53,0
157.25702,157.71898,55,48,0
157.25702,157.71898,52,40,0
157.71898,158.16647,52,43,0
157.71898,158.16647,48,36,0
159.94939,160.41449,59,44,0
160.41449,161.30307,60,44,0
159.94939,161.30307,50,44,0
161.30307,161.53563,55,46,0
161.30307,161.76819,59,46,0
161.76819,162.00075,43,44,0
165.31479,165.76189,54,40,0
165.76189,166.19492,55,43,0
165.31479,166.19492,62,40,0
166.62793,167.50235,55,43,0
166.62793,167.50235,48,43,0
167.9363,168.38428,49,43,0
167.9363,168.38428,52,43,0
168.38428,168.83426,55,43,0
168.83426,169.30507,54,41,0
168.38428,169.30507,50,43,0
169.30507,169.62984,62,77,0
169.62984,169.68396,64,70,0
169.68396,169.7381,66,66,0
169.7381,169.9546,67,71,0
169.9546,170.06287,66,56,0
170.17111,170.27937,64,56,0
170.38763,170.49588,62,52,0
170.60414,170.7124,60,56,0
170.82066,170.92891,59,52,0
171.03717,171.25786,57,57,0
171.47855,171.69922,59,62,0
171.9199,172.1406,60,67,0
172.36176,172.58385,61,65,0
172.8069,173.03046,62,70,0
173.25543,173.48093,63,66,0
173.70741,174.03035,64,72,0
174.15761,174.59901,57,43,0
174.15761,174.59901,48,43,0
174.59901,175.049,59,43,0
175.049,175.48203,60,43,0
174.59901,175.48203,50,43,0
175.48203,175.70683,55,60,0
175.70683,175.91895,59,50,0
175.91895,176.13104,62,54,0
176.13104,176.34315,59,48,0
176.34315,176.55525,55,56,0
176.55525,176.76736,60,45,0
176.76736,176.97946,64,49,0
176.97946,177.19156,60,47,0
177.19156,177.41655,55,56,0
177.41655,177.64479,59,50,0
177.64479,177.86131,62,54,0
177.86131,178.07782,59,47,0
178.07782,178.29433,55,56,0
178.29433,178.51085,60,50,0
178.51085,178.72736,64,54,0
178.72736,178.94388,60,49,0
178.94388,179.40282,55,56,0
178.94388,179.40282,62,56,0
178.94388,179.40282,59,56,0
179.40282,179.8256,72,41,0
179.8256,180.26979,71,44,0
180.26979,180.69257,72,43,0
180.69257,181.13675,71,45,0
181.13675,181.24501,66,52,0
181.35327,181.46152,66,54,0
181.56978,181.67804,67,57,0
181.78676,181.89594,67,60,0
182.00558,182.11617,69,62,0
182.2272,182.33897,69,65,0
182.45123,182.9042,71,67,0
184.70447,185.14584,52,44,0
184.70447,185.14584,57,44,0
184.70447,185.14584,48,44,0
185.14584,185.59882,59,44,0
185.14584,185.59882,55,44,0
185.59882,186.05177,57,44,0
185.59882,186.05177,60,44,0
185.14584,186.05177,50,44,0
186.05177,186.2683,55,51,0
186.2683,186.4848,59,46,0
186.4848,186.70131,62,54,0
186.70131,186.91783,59,49,0
186.91783,187.13434,55,54,0
187.13434,187.35086,60,50,0
187.35086,187.56737,64,54,0
187.56737,187.78387,60,50,0
187.78387,188.00743,55,58,0
188.00743,188.23097,59,50,0
188.23097,188.44748,62,54,0
188.44748,188.664,59,54,0
188.664,188.88051,55,54,0
188.88051,189.09703,60,50,0
189.09703,189.31354,64,54,0
189.31354,189.53004,60,50,0
189.53004,189.97423,55,58,0
189.53004,189.97423,62,58,0
189.53004,189.97423,59,58,0
189.97423,190.39702,72,43,0
190.39702,190.8412,71,45,0
190.8412,191.26398,72,43,0
191.26398,191.71107,71,45,0
191.71107,191.81934,66,48,0
191.92758,192.03584,66,51,0
192.1441,192.25235,67,54,0
192.36107,192.47026,67,57,0
192.57991,192.69048,69,61,0
192.80153,192.9133,69,64,0
193.02556,193.47264,71,67,0
195.27905,195.74416,52,44,0
195.27905,195.74416,48,44,0
195.27905,195.74416,57,44,0
195.74416,196.19713,55,44,0
195.74416,196.19713,59,44,0
196.19713,196.67192,60,44,0
196.19713,196.67192,57,44,0
195.74416,196.67192,50,44,0
196.67192,197.01073,55,78,0
197.01073,197.12366,50,72,0
197.12366,197.46246,59,78,0
197.46246,197.5754,55,72,0
197.5754,197.81454,62,77,0
198.48674,198.70883,50,41,0
198.48674,198.70883,59,41,0
198.48674,198.70883,55,41,0
199.36394,199.58603,60,41,0
199.36394,199.58603,54,41,0
199.36394,199.58603,50,41,0
200.24115,200.35364,55,72,0
200.35364,200.46614,50,67,0
200.46614,200.57863,55,72,0
200.57863,200.69113,50,67,0
200.69113,200.80362,59,72,0
200.80362,200.91612,55,67,0
200.91612,201.02861,59,72,0
201.02861,201.1411,55,66,0
201.1411,201.38414,62,72,0
202.0602,202.28668,55,45,0
202.0602,202.28668,50,45,0
202.0602,202.28668,59,45,0
202.94618,203.17075,50,45,0
202.94618,203.17075,60,45,0
202.94618,203.17075,54,45,0
203.83025,204.31631,55,46,0
203.83025,204.31631,59,46,0
204.31631,204.56914,55,46,0
204.82196,205.06499,43,46,0
205.7941,206.02512,67,40,0
206.02512,206.25374,71,36,0
206.25374,206.48236,67,36,0
206.48236,206.71098,71,31,0
206.71098,206.93394,67,40,0
206.93394,207.15689,71,36,0
207.15689,207.37984,65,40,0
207.37984,207.60278,68,36,0
207.60278,207.82999,64,40,0
207.82999,208.05719,67,36,0
208.05719,208.2844,64,38,0
208.2844,208.50734,67,32,0
208.50734,208.7303,64,40,0
208.7303,208.95325,67,36,0
208.95325,209.1762,62,40,0
209.1762,209.39914,65,36,0
209.39914,209.62776,60,40,0
209.62776,209.85638,64,35,0
209.85638,210.085,60,40,0
210.085,210.30795,64,35,0
210.30795,210.53091,60,40,0
210.53091,210.75386,64,35,0
210.75386,210.9768,60,40,0
210.9768,211.19975,63,35,0
211.19975,211.4227,59,38,0
211.4227,211.65926,62,35,0
211.65926,211.88177,60,38,0
211.88177,212.1043,62,35,0
212.1043,212.32681,59,38,0
212.32681,212.54933,62,35,0
212.54933,212.77185,60,38,0
212.77185,212.99437,62,35,0
212.99437,213.22011,59,38,0
213.22011,213.46045,62,35,0
213.46045,213.68977,60,38,0
213.68977,213.9191,63,35,0
213.9191,214.1463,59,38,0
214.1463,214.3735,62,36,0
214.3735,214.60071,60,38,0
214.60071,214.82791,63,35,0
214.82791,215.71971,62,43,0
214.82791,215.71971,59,43,0
216.63058,216.85631,50,54,0
216.85631,217.08205,59,50,0
217.08205,217.30779,55,54,0
217.30779,217.53351,59,50,0
217.53351,217.75925,50,54,0
217.75925,217.98499,57,49,0
217.98499,218.21072,54,54,0
218.21072,218.43645,57,50,0
218.43645,218.6594,55,46,0
218.6594,218.88235,59,43,0
218.88235,219.1053,62,45,0
219.1053,219.32825,59,40,0
219.32825,219.77414,55,50,0
220.23744,220.47273,55,40,0
220.47273,220.70682,59,32,0
220.70682,220.9409,62,36,0
220.9409,221.17497,59,31,0
221.17497,221.61635,55,40,0
222.0736,222.3109,55,40,0
222.3109,222.5482,59,36,0
222.5482,222.7855,62,40,0
222.7855,223.02281,59,38,0
223.02281,223.467,55,44,0
223.91116,224.38264,56,64,0
224.38264,224.85413,59,64,0
224.85413,225.31783,62,69,0
225.31783,225.77374,65,65,0
225.77374,226.23746,59,69,0
226.23746,226.70892,57,63,0
226.70892,227.17409,56,67,0
227.17409,227.63295,64,63,0
227.63295,227.85504,57,38,0
227.85504,228.07713,60,35,0
228.07713,228.29922,64,35,0
228.29922,228.52132,60,35,0
228.52132,228.7434,57,38,0
228.7434,228.96548,60,35,0
228.96548,229.19269,65,35,0
229.19269,229.41989,60,35,0
229.41989,229.65088,55,38,0
229.65088,229.88187,62,35,0
229.88187,230.11284,65,35,0
230.11284,230.34383,62,35,0
230.34383,230.57481,55,43,0
230.57481,230.80579,60,39,0
230.80579,231.03677,64,39,0
231.03677,231.26776,60,39,0
231.26776,231.5035,53,48,0
231.5035,231.73923,60,39,0
231.73923,231.97498,65,54,0
231.97498,232.21071,60,43,0
232.21071,232.44644,53,54,0
232.44644,232.67743,57,48,0
232.67743,232.90842,62,59,0
232.90842,233.15672,57,51,0
233.15672,233.38258,52,59,0
233.38258,233.60846,57,46,0
233.60846,233.83432,61,51,0
233.83432,234.0602,57,45,0
234.0602,234.28606,52,56,0
234.28606,234.51193,57,45,0
234.51193,234.73781,61,50,0
234.73781,234.9907,57,45,0
234.9907,235.21426,50,36,0
235.21426,235.4378,57,32,0
235.4378,235.66135,60,32,0
235.66135,235.8939,57,32,0
235.8939,236.12334,50,36,0
236.12334,236.35277,55,33,0
236.35277,236.5822,59,33,0
236.5822,236.81161,55,33,0
236.81161,237.0366,48,38,0
237.0366,237.2616,55,36,0
237.2616,237.48659,60,36,0
237.48659,237.72067,55,36,0
237.72067,237.95166,48,38,0
237.95166,238.18263,55,34,0
238.18263,238.41362,60,34,0
238.41362,238.6446,55,34,0
238.6446,238.87402,53,43,0
238.87402,239.10345,56,38,0
239.10345,239.33444,60,38,0
239.33444,239.56541,56,38,0
239.56541,239.79797,53,43,0
239.79797,240.03053,56,38,0
240.03053,240.26462,60,38,0
240.26462,240.4987,56,38,0
240.4987,240.73444,54,43,0
240.73444,240.97842,57,45,0
240.97842,241.20639,60,48,0
241.20639,241.43436,57,45,0
241.43436,241.66231,54,43,0
241.66231,241.90292,57,39,0
241.90292,242.13235,60,39,0
242.13235,242.36179,57,39,0
242.36179,242.7977,55,39,0
242.82065,243.25475,55,41,0
243.27754,243.70702,55,45,0
243.27754,243.70702,57,45,0
243.7295,244.15521,55,46,0
243.7295,244.15521,59,46,0
244.17757,244.61348,55,50,0
244.17757,244.61348,60,50,0
244.63643,245.0654,55,48,0
244.63643,245.0654,67,48,0
245.0879,245.51051,55,46,0
245.0879,245.51051,65,46,0
245.53258,245.94939,55,44,0
245.53258,245.94939,63,44,0
245.97118,246.40709,55,45,0
245.97118,246.40709,62,45,0
246.43002,246.86594,55,48,0
246.43002,246.86594,59,48,0
246.88889,247.3248,55,51,0
246.88889,247.3248,57,51,0
247.34773,247.78365,55,54,0
247.34773,247.78365,59,54,0
247.8066,248.24251,55,57,0
247.8066,248.24251,60,57,0
248.26544,248.69858,55,61,0
248.26544,248.69858,67,61,0
248.72137,249.15169,55,64,0
248.72137,249.15169,65,64,0
249.17435,249.60182,54,67,0
249.17435,249.60182,63,67,0
249.62431,250.07141,62,71,0
249.62431,250.07141,55,71,0
251.42346,251.87653,55,38,0
251.42346,251.87653,62,38,0
252.09862,252.32071,61,38,0
252.32071,252.7649,55,38,0
252.32071,252.7649,62,38,0
252.98698,253.20908,61,38,0
253.20908,253.65326,55,38,0
253.20908,253.65326,62,38,0
253.87535,254.09744,61,40,0
254.09744,254.31953,62,45,0
254.31953,254.54308,61,49,0
254.09744,254.54308,55,45,0
254.54308,254.76807,62,54,0
254.76807,254.99455,61,59,0
254.54308,254.99455,55,54,0
254.99455,255.90048,55,63,0
254.99455,255.90048,62,63,0
256.13455,256.25162,57,54,0
256.36865,256.4857,59,54,0
256.60272,256.71976,60,54,0
256.83682,256.95386,62,52,0
257.0709,257.18793,60,55,0
257.30496,257.42203,59,59,0
257.53906,257.6561,60,62,0
257.77313,257.89206,62,65,0
258.01212,258.1335,61,67,0
258.2561,258.38013,62,71,0
258.50537,258.63214,63,73,0
258.76016,258.99274,64,50,0
258.99274,259.22528,60,45,0
259.22528,259.45786,64,51,0
259.45786,259.6904,60,45,0
259.6904,259.92297,64,51,0
259.92297,260.13947,60,40,0
260.13947,260.356,64,45,0
260.356,260.5725,60,43,0
260.5725,260.7946,64,51,0
260.7946,261.0167,60,45,0
261.0167,261.23877,64,51,0
261.23877,261.4553,60,40,0
261.4553,261.68582,64,46,0
261.68582,261.91632,60,31,0
261.91632,262.13712,64,35,0
262.13712,262.3579,60,31,0
262.3579,262.59198,64,51,0
262.59198,262.82605,60,36,0
262.82605,263.06015,64,43,0
263.06015,263.29422,60,36,0
263.29422,263.52832,64,43,0
263.52832,263.7448,60,36,0
263.7448,263.96133,65,40,0
263.96133,264.17786,60,36,0
264.17786,264.39993,64,38,0
264.39993,264.62204,60,34,0
264.62204,264.84412,64,39,0
264.84412,265.06064,60,33,0
265.06064,265.28458,64,38,0
265.28458,265.5085,60,30,0
265.5085,265.7293,64,33,0
265.7293,265.9501,60,29,0
265.9501,266.17596,65,34,0
266.17596,266.39206,60,29,0
266.39206,266.6051,65,34,0
266.6051,266.83237,60,30,0
266.83237,267.06122,65,34,0
267.06122,267.2807,60,30,0
267.2807,267.49994,65,34,0
267.49994,267.71918,60,30,0
267.71918,267.931,64,36,0
267.931,268.14285,60,32,0
268.14285,268.3559,64,36,0
268.3559,268.58176,60,30,0
268.58176,268.80243,64,36,0
268.80243,269.02313,60,30,0
269.02313,269.2438,64,36,0
269.2438,269.4645,60,30,0
269.4645,269.69244,60,57,0
269.69244,269.9204,55,50,0
269.4645,269.9204,64,57,0
269.9204,270.14838,60,57,0
270.14838,270.37634,55,50,0
269.9204,270.37634,64,57,0
270.37634,270.6043,59,54,0
270.6043,270.83228,55,46,0
270.37634,270.83228,62,54,0
270.83228,271.06024,59,51,0
271.06024,271.2882,55,44,0
270.83228,271.2882,62,51,0
271.2882,271.51764,60,48,0
271.51764,271.74707,48,45,0
271.74707,271.96915,52,48,0
271.96915,272.19122,55,45,0
272.19122,272.41333,60,57,0
272.41333,272.6354,64,48,0
272.6354,272.8575,67,52,0
272.8575,273.0796,64,48,0
273.0796,273.2943,65,37,0
273.2943,273.5081,60,28,0
273.5081,273.71997,65,37,0
273.71997,273.937,60,29,0
273.937,274.177,65,37,0
274.177,274.39932,60,27,0
274.39932,274.62012,65,32,0
274.62012,274.8409,60,29,0
274.8409,275.0556,64,37,0
275.0556,275.2689,60,29,0
275.2689,275.48254,64,37,0
275.48254,275.6975,60,28,0
275.6975,275.93146,64,37,0
275.93146,276.15378,60,27,0
276.15378,276.3715,64,33,0
276.3715,276.58917,60,29,0
276.58917,276.8039,60,51,0
276.8039,277.01862,55,45,0
276.58917,277.01862,64,51,0
277.01862,277.23334,60,51,0
277.23334,277.44806,55,45,0
277.01862,277.44806,64,51,0
277.44806,277.66275,62,51,0
277.66275,277.87747,55,43,0
277.44806,277.87747,65,51,0
277.87747,278.0922,62,48,0
278.0922,278.30692,55,45,0
277.87747,278.30692,65,48,0
278.30692,279.1785,60,56,0
278.30692,279.1785,64,56,0
280.06427,280.51425,55,46,0
280.06427,280.51425,64,46,0
280.51425,280.96423,55,40,0
280.51425,280.96423,62,40,0
280.96423,281.41418,55,46,0
280.96423,281.41418,60,46,0
281.41418,281.86417,55,42,0
281.41418,281.86417,59,42,0
281.86417,282.73022,60,58,0
283.61322,284.0632,55,46,0
283.61322,284.0632,64,46,0
284.0632,284.51318,55,42,0
284.0632,284.51318,62,42,0
284.51318,284.96317,55,45,0
284.51318,284.96317,60,45,0
284.96317,285.41315,55,45,0
284.96317,285.41315,59,45,0
285.41315,285.536,48,62,0
285.65887,285.8754,60,68,0
285.8754,286.09192,59,59,0
286.09192,286.3084,58,59,0
286.3084,286.42392,57,63,0
286.5394,286.75592,57,67,0
286.75592,286.9724,55,61,0
286.9724,287.18893,53,61,0
287.18893,287.40546,52,60,0
287.62198,287.84695,48,60,0
288.50497,288.9874,48,51,0
288.50497,288.9874,60,51,0
288.9874,289.65366,64,51,0
289.65366,289.87576,60,54,0
288.9874,289.87576,55,51,0
290.09784,290.31436,43,71,0
289.87576,290.31436,59,54,0
290.31436,290.5383,47,72,0
290.5383,290.77017,50,69,0
290.77017,290.9937,55,45,0
290.9937,291.2173,59,42,0
291.2173,291.43378,62,40,0
291.6503,291.87384,55,45,0
291.87384,292.09738,59,43,0
292.09738,292.3139,62,41,0
292.5432,292.77374,55,44,0
292.77374,293.00427,60,40,0
293.00427,293.2348,64,43,0
293.2348,293.4653,60,41,0
293.4653,293.68762,55,44,0
293.68762,293.90994,60,40,0
293.90994,294.13226,64,43,0
294.13226,294.35458,60,40,0
294.35458,294.5723,54,57,0
294.5723,294.79,57,51,0
294.79,295.00772,60,54,0
295.22543,295.4644,54,57,0
295.4644,295.69235,57,51,0
295.69235,295.92032,60,54,0
296.16605,296.40015,53,57,0
296.40015,296.63422,57,52,0
296.63422,296.86832,59,57,0
296.86832,297.1024,62,52,0
297.1024,297.5809,65,62,0
297.5809,297.8215,64,43,0
297.8215,298.07672,62,45,0
298.07672,298.30927,60,44,0
298.30927,298.54184,64,39,0
298.54184,298.75833,67,41,0
298.97485,299.20428,60,44,0
299.20428,299.43372,64,39,0
299.43372,299.65024,67,41,0
299.86673,300.10083,60,43,0
300.10083,300.3349,65,37,0
300.3349,300.569,69,40,0
300.569,300.80307,65,38,0
300.80307,301.03714,60,45,0
301.03714,301.27124,65,39,0
301.27124,301.5053,69,41,0
301.5053,301.7394,65,40,0
301.7394,303.49377,67,62,0
301.7394,303.49377,59,62,0
301.7394,303.49377,62,62,0
301.7394,303.49377,65,62,0
303.49377,303.64478,60,61,0
303.64478,303.79578,64,57,0
303.79578,303.94675,72,53,0
303.94675,304.09775,62,61,0
304.09775,304.24872,65,57,0
304.24872,304.39972,72,53,0
304.39972,304.54407,64,61,0
304.54407,304.68842,67,57,0
304.68842,304.83273,72,53,0
304.83273,304.97708,60,61,0
304.97708,305.12143,64,48,0
305.12143,305.2761,72,48,0
305.2761,305.4204,65,43,0
305.4204,305.56476,69,40,0
305.56476,305.7091,72,38,0
305.7091,305.85345,65,43,0
305.85345,305.9978,69,40,0
305.9978,306.14212,72,39,0
306.14212,306.28647,65,43,0
306.28647,306.43082,69,41,0
306.43082,306.57516,72,40,0
306.57516,306.7195,65,43,0
306.7195,306.86383,69,41,0
306.86383,307.00818,72,40,0
307.00818,307.15625,60,57,0
307.15625,307.3043,64,55,0
307.3043,307.45236,72,50,0
307.45236,307.60043,62,57,0
307.60043,307.74847,65,54,0
307.74847,307.89655,72,51,0
307.89655,308.0409,64,57,0
308.0409,308.18524,67,54,0
308.18524,308.32956,72,51,0
308.32956,308.4739,60,57,0
308.4739,308.61826,64,54,0
308.61826,308.77756,72,49,0
308.77756,308.9219,65,38,0
308.9219,309.06625,69,36,0
309.06625,309.2106,72,36,0
309.2106,309.35492,65,38,0
309.35492,309.49927,69,36,0
309.49927,309.64362,72,36,0
309.64362,309.78796,65,43,0
309.78796,309.9323,69,39,0
309.9323,310.07663,72,39,0
310.07663,310.22098,65,43,0
310.22098,310.36533,69,40,0
310.36533,310.50967,72,40,0
310.50967,310.74222,60,64,0
311.39175,311.60873,53,64,0
312.27228,312.518,55,60,0
312.76373,313.68768,56,59,0
312.76373,313.68768,62,59,0
312.76373,313.68768,59,59,0
313.68768,314.14963,60,51,0
313.68768,314.14963,57,51,0
314.14963,314.59714,57,43,0
314.14963,314.59714,53,43,0
316.36133,316.82645,64,44,0
316.82645,317.71503,65,44,0
316.36133,317.71503,55,44,0
317.71503,317.94757,60,46,0
317.71503,318.18015,64,46,0
318.18015,318.4127,48,44,0
321.72675,322.17383,59,43,0
322.17383,322.60684,60,43,0
321.72675,322.60684,67,43,0
323.0399,323.9143,60,43,0
323.0399,323.9143,53,43,0
324.34824,324.79623,57,40,0
324.34824,324.79623,54,40,0
324.79623,325.24622,60,43,0
325.24622,325.6962,59,40,0
324.79623,325.6962,55,43,0
325.6962,326.02097,67,77,0
326.02097,326.07507,69,68,0
326.07507,326.1292,71,63,0
326.1292,326.34573,72,69,0
326.34573,326.45398,71,56,0
326.56223,326.6705,69,56,0
326.77875,326.887,67,52,0
326.99527,327.10352,65,56,0
327.21176,327.32004,64,52,0
327.42828,327.64896,62,57,0
327.86966,328.09033,64,62,0
328.31104,328.5317,65,67,0
328.75287,328.97495,66,69,0
329.19803,329.42157,67,70,0
329.64655,329.87204,68,72,0
330.0985,330.54874,69,77,0
330.54874,330.99014,62,48,0
330.54874,330.99014,53,48,0
330.99014,331.4401,64,48,0
331.4401,331.87314,65,48,0
330.99014,331.87314,55,48,0
331.87314,332.09668,60,60,0
332.09668,332.32022,64,52,0
332.32022,332.53674,67,57,0
332.53674,332.75327,64,53,0
332.75327,332.98694,60,60,0
332.98694,333.2021,65,53,0
333.2021,333.4357,69,57,0
333.4357,333.65082,65,51,0
333.65082,333.87582,60,60,0
333.87582,334.1008,64,47,0
334.1008,334.31732,67,54,0
334.31732,334.53384,64,49,0
334.53384,334.76755,60,60,0
334.76755,334.98267,65,53,0
334.98267,335.21628,69,57,0
335.21628,335.43143,65,52,0
335.43143,335.8617,60,58,0
335.43143,335.8617,64,58,0
335.43143,335.8617,67,58,0
335.8617,336.29474,65,46,0
336.29474,336.73892,64,44,0
335.8617,336.73892,67,46,0
336.73892,337.17194,65,43,0
337.17194,337.61612,64,45,0
336.73892,337.61612,67,43,0
337.61612,337.83264,67,52,0
337.61612,337.83264,65,52,0
337.83264,338.04913,67,54,0
337.83264,338.04913,65,52,0
338.04913,338.2661,67,57,0
338.04913,338.2661,64,52,0
338.2661,338.48495,67,60,0
338.2661,338.48495,64,52,0
338.48495,338.70657,67,62,0
338.48495,338.70657,59,52,0
338.70657,338.9306,67,65,0
338.70657,338.9306,59,52,0
338.9306,339.38358,67,67,0
338.9306,339.38358,60,67,0
341.18384,341.6252,62,44,0
341.18384,341.6252,57,44,0
341.18384,341.6252,53,44,0
341.6252,342.0782,60,44,0
341.6252,342.0782,64,44,0
342.0782,342.53113,65,43,0
342.0782,342.53113,62,43,0
341.6252,342.53113,55,44,0
342.53113,342.7547,60,60,0
342.7547,342.97824,64,52,0
342.97824,343.19476,67,57,0
343.19476,343.41125,64,52,0
343.41125,343.64496,60,60,0
343.64496,343.8601,65,53,0
343.8601,344.0937,69,57,0
344.0937,344.30884,65,57,0
344.30884,344.524,60,60,0
344.524,344.73914,64,52,0
344.73914,344.95566,67,57,0
344.95566,345.17215,64,51,0
345.17215,345.40585,60,60,0
345.40585,345.621,65,53,0
345.621,345.85458,69,57,0
345.85458,346.06973,65,51,0
346.06973,346.50003,60,60,0
346.06973,346.50003,64,60,0
346.06973,346.50003,67,60,0
346.50003,346.93304,65,46,0
346.93304,347.37723,64,44,0
346.50003,347.37723,67,46,0
347.37723,347.81027,65,42,0
347.81027,348.25446,64,45,0
347.37723,348.25446,67,42,0
348.25446,348.46014,67,52,0
348.25446,348.46014,65,52,0
348.47095,348.67664,67,54,0
348.47095,348.67664,65,52,0
348.68747,348.89355,67,57,0
348.68747,348.89355,64,52,0
348.90445,349.1123,67,60,0
348.90445,349.1123,64,52,0
349.12326,349.3338,67,62,0
349.12326,349.3338,59,52,0
349.3449,349.55768,67,65,0
349.3449,349.55768,59,52,0
349.5689,350.02188,67,67,0
349.5689,350.02188,60,67,0
351.82217,352.26352,62,44,0
351.82217,352.26352,57,44,0
351.82217,352.26352,53,44,0
352.26352,352.7165,60,44,0
352.26352,352.7165,64,44,0
352.7165,353.16946,65,41,0
352.7165,353.16946,62,41,0
352.26352,353.16946,55,44,0
353.16946,353.51782,60,78,0
353.51782,353.63394,55,71,0
353.63394,353.9823,64,76,0
353.9823,354.0984,60,68,0
354.0984,354.34265,67,74,0
355.01996,355.24203,64,41,0
355.01996,355.24203,60,41,0
355.01996,355.24203,55,41,0
355.89716,356.11923,59,41,0
355.89716,356.11923,65,41,0
355.89716,356.11923,55,41,0
356.77435,356.88876,60,70,0
356.88876,357.0032,55,65,0
357.0032,357.1176,60,70,0
357.1176,357.23203,55,65,0
357.23203,357.34644,64,70,0
357.34644,357.46085,60,64,0
357.46085,357.5753,64,71,0
357.5753,357.6897,60,65,0
357.6897,357.938,67,71,0
358.61932,358.8458,60,45,0
358.61932,358.8458,64,45,0
358.61932,358.8458,55,45,0
359.5053,359.72986,65,45,0
359.5053,359.72986,55,45,0
359.5053,359.72986,59,45,0
360.38937,360.6149,64,51,0
360.6149,360.84042,60,41,0
360.84042,361.06598,64,51,0
361.06598,361.28806,60,41,0
361.28806,361.51038,65,51,0
361.51038,361.7327,60,41,0
361.7327,361.95502,67,51,0
361.95502,362.17734,60,41,0
362.17734,362.4053,69,51,0
362.4053,362.63327,60,43,0
362.63327,362.86124,70,51,0
362.86124,363.0833,60,43,0
363.0833,363.30542,69,51,0
363.30542,363.5275,60,43,0
363.5275,363.74982,67,51,0
363.74982,363.97214,60,43,0
363.97214,364.2001,65,51,0
364.2001,364.42807,60,43,0
364.42807,364.65604,64,51,0
364.65604,364.8781,60,35,0
364.8781,365.10022,65,40,0
365.10022,365.3223,60,37,0
365.3223,365.5444,62,40,0
365.5444,365.76648,60,36,0
365.76648,365.99445,64,39,0
365.99445,366.2224,60,36,0
366.2224,366.44452,65,40,0
366.44452,366.6666,60,34,0
366.6666,366.89456,64,40,0
366.89456,367.12253,60,38,0
367.12253,367.3446,65,41,0
367.3446,367.5667,60,34,0
367.5667,367.79468,64,41,0
367.79468,368.0241,60,37,0
368.0241,368.25507,65,40,0
368.25507,368.48816,60,33,0
368.48816,368.72278,64,41,0
368.72278,368.95905,60,37,0
368.95905,369.19635,65,41,0
369.19635,369.5295,60,35,0
369.5295,371.38483,60,39,0
369.5295,371.38483,48,33,0
371.90738,372.1384,67,40,0
372.1384,372.36703,71,36,0
372.36703,372.59564,67,36,0
372.59564,372.82428,71,31,0
372.82428,373.0472,67,40,0
373.0472,373.27017,71,36,0
373.27017,373.49313,65,40,0
373.49313,373.71606,68,36,0
373.71606,373.94327,64,40,0
373.94327,374.17047,67,36,0
374.17047,374.39767,64,38,0
374.39767,374.62064,67,32,0
374.62064,374.84357,64,40,0
374.84357,375.06653,67,36,0
375.06653,375.2895,62,40,0
375.2895,375.51242,65,36,0
375.51242,375.74106,60,40,0
375.74106,375.96967,64,35,0
375.96967,376.1983,60,40,0
376.1983,376.42123,64,35,0
376.42123,376.6442,60,40,0
376.6442,376.86713,64,35,0
376.86713,377.0901,60,40,0
377.0901,377.31305,63,35,0
377.31305,377.52914,59,38,0
377.52914,377.7657,62,35,0
377.7657,377.98822,60,38,0
377.98822,378.21075,62,35,0
378.21075,378.4208,59,38,0
378.4208,378.6433,62,35,0
378.6433,378.86584,60,38,0
378.86584,379.08835,62,35,0
379.08835,379.30444,59,38,0
379.30444,379.5448,62,35,0
379.5448,379.77414,60,38,0
379.77414,380.00345,63,35,0
380.00345,380.23065,59,38,0
380.23065,380.45786,62,36,0
380.45786,380.68506,60,38,0
380.68506,380.91226,63,35,0
380.91226,381.80405,62,43,0
380.91226,381.80405,59,43,0
382.71494,382.94067,50,54,0
382.94067,383.1664,59,50,0
383.1664,383.39212,55,54,0
383.39212,383.61786,59,50,0
383.61786,383.8436,50,54,0
383.8436,384.06934,57,49,0
384.06934,384.29507,54,54,0
384.29507,384.5208,57,50,0
384.5208,384.74374,55,46,0
384.74374,384.9667,59,43,0
384.9667,385.18964,62,45,0
385.18964,385.4126,59,40,0
385.4126,385.8585,55,50,0
386.32178,386.55707,55,40,0
386.55707,386.79117,59,32,0
386.79117,387.02524,62,36,0
387.02524,387.25934,59,31,0
387.25934,387.7007,55,40,0
388.16968,388.40625,55,40,0
388.40625,388.6428,59,36,0
388.6428,388.87936,62,40,0
388.87936,389.1159,59,38,0
389.1159,389.5601,55,44,0
390.00427,390.47574,56,64,0
390.47574,390.94724,59,64,0
390.94724,391.41092,62,69,0
391.41092,391.86685,65,65,0
391.86685,392.33057,59,69,0
392.33057,392.80203,57,63,0
392.80203,393.26718,56,67,0
393.26718,393.72604,64,63,0
393.72604,393.94815,57,38,0
393.94815,394.17023,60,35,0
394.17023,394.39233,64,35,0
394.39233,394.6144,60,35,0
394.6144,394.83652,57,38,0
394.83652,395.0586,60,35,0
395.0586,395.2858,65,35,0
395.2858,395.513,60,35,0
395.513,395.744,55,38,0
395.744,395.97498,62,35,0
395.97498,396.20596,65,35,0
396.20596,396.43692,62,35,0
396.43692,396.6679,55,43,0
396.6679,396.8989,60,39,0
396.8989,397.12988,64,39,0
397.12988,397.36087,60,39,0
397.36087,397.5966,53,48,0
397.5966,397.83234,60,39,0
397.83234,398.06808,65,54,0
398.06808,398.3038,60,43,0
398.3038,398.53955,53,54,0
398.53955,398.77054,57,48,0
398.77054,399.00153,62,59,0
399.00153,399.24982,57,51,0
399.24982,399.47568,52,59,0
399.47568,399.70157,57,46,0
399.70157,399.92743,61,51,0
399.92743,400.1533,57,45,0
400.1533,400.37918,52,56,0
400.37918,400.60504,57,45,0
400.60504,400.8309,61,50,0
400.8309,401.0877,57,45,0
401.0877,401.31125,50,36,0
401.31125,401.53482,57,32,0
401.53482,401.75836,60,32,0
401.75836,401.9909,57,32,0
401.9909,402.22034,50,36,0
402.22034,402.44977,55,33,0
402.44977,402.6792,59,33,0
402.6792,402.9275,55,33,0
402.9275,403.15683,48,38,0
403.15683,403.38614,55,36,0
403.38614,403.61548,60,36,0
403.61548,403.84955,55,36,0
403.84955,404.08054,48,38,0
404.08054,404.31152,55,34,0
404.31152,404.5425,60,34,0
404.5425,404.77347,55,34,0
404.77347,405.0029,53,43,0
405.0029,405.23233,56,38,0
405.23233,405.46332,60,38,0
405.46332,405.6943,56,38,0
405.6943,405.92685,53,43,0
405.92685,406.15942,56,38,0
406.15942,406.3935,60,38,0
406.3935,406.6276,56,38,0
406.6276,406.8633,54,43,0
406.8633,407.1073,57,45,0
407.1073,407.33527,60,48,0
407.33527,407.56323,57,45,0
407.56323,407.7912,54,43,0
407.7912,408.0318,57,39,0
408.0318,408.26123,60,39,0
408.26123,408.49066,57,39,0
408.49066,408.92657,55,39,0
408.94952,409.38364,55,41,0
409.40643,409.8359,55,45,0
409.40643,409.8359,57,45,0
409.8584,410.2841,55,46,0
409.8584,410.2841,59,46,0
410.30646,410.74237,55,50,0
410.30646,410.74237,60,50,0
410.76532,411.19427,55,48,0
410.76532,411.19427,67,48,0
411.21677,411.6394,55,46,0
411.21677,411.6394,65,46,0
411.66147,412.07825,55,44,0
411.66147,412.07825,63,44,0
412.10004,412.53595,55,45,0
412.10004,412.53595,62,45,0
412.5589,412.9948,55,48,0
412.5589,412.9948,59,48,0
413.01776,413.45367,55,51,0
413.01776,413.45367,57,51,0
413.47662,413.91254,55,54,0
413.47662,413.91254,59,54,0
413.9355,414.3714,55,57,0
413.9355,414.3714,60,57,0
414.39432,414.82745,55,61,0
414.39432,414.82745,67,61,0
414.85025,415.28058,55,64,0
414.85025,415.28058,65,64,0
415.30322,415.7307,54,67,0
415.30322,415.7307,63,67,0
415.7532,416.2003,62,71,0
415.7532,416.2003,55,71,0
417.55234,418.0054,55,38,0
417.55234,418.0054,62,38,0
418.2275,418.4496,61,38,0
418.4496,418.89377,55,38,0
418.4496,418.89377,62,38,0
419.11588,419.33795,61,38,0
419.33795,419.78214,55,38,0
419.33795,419.78214,62,38,0
420.0042,420.22632,61,40,0
420.22632,420.4484,62,45,0
420.4484,420.67197,61,49,0
420.22632,420.67197,55,45,0
420.67197,420.89694,62,54,0
420.89694,421.1234,61,59,0
420.67197,421.1234,55,54,0
421.1234,422.02936,55,63,0
421.1234,422.02936,62,63,0
422.26343,422.3805,57,54,0
422.49753,422.61456,59,54,0
422.7316,422.84866,60,54,0
422.9657,423.08273,62,52,0
423.19977,423.3168,60,55,0
423.43387,423.5509,59,59,0
423.66794,423.78497,60,62,0
423.902,424.02094,62,65,0
424.141,424.26242,61,67,0
424.38498,424.509,62,71,0
424.63425,424.77737,63,73,0
424.92047,425.153,64,50,0
425.153,425.3856,60,45,0
425.3856,425.61813,64,51,0
425.61813,425.8507,60,45,0
425.8507,426.08325,64,51,0
426.08325,426.29977,60,40,0
426.29977,426.5163,64,45,0
426.5163,426.7328,60,43,0
426.7328,426.9549,64,51,0
426.9549,427.17697,60,45,0
427.17697,427.39908,64,51,0
427.39908,427.61557,60,40,0
427.61557,427.8461,64,46,0
427.8461,428.07663,60,31,0
428.07663,428.2974,64,35,0
428.2974,428.5182,60,31,0
428.5182,428.75226,64,51,0
428.75226,428.98636,60,36,0
428.98636,429.22043,64,43,0
429.22043,429.45453,60,36,0
429.45453,429.6886,64,43,0
429.6886,429.90512,60,36,0
429.90512,430.1216,65,40,0
430.1216,430.33813,60,36,0
430.33813,430.56024,64,38,0
430.56024,430.78232,60,34,0
430.78232,431.0044,64,39,0
431.0044,431.22092,60,33,0
431.22092,431.44485,64,38,0
431.44485,431.66882,60,30,0
431.66882,431.8896,64,33,0
431.8896,432.11038,60,29,0
432.11038,432.33624,65,34,0
432.33624,432.55878,60,29,0
432.55878,432.77182,65,34,0
432.77182,432.99908,60,30,0
432.99908,433.2279,65,34,0
433.2279,433.44742,60,30,0
433.44742,433.66666,65,34,0
433.66666,433.88586,60,30,0
433.88586,434.09772,64,36,0
434.09772,434.30954,60,32,0
434.30954,434.52258,64,36,0
434.52258,434.74844,60,30,0
434.74844,434.96915,64,36,0
434.96915,435.18982,60,30,0
435.18982,435.41052,64,36,0
435.41052,435.6312,60,30,0
435.6312,435.85916,60,57,0
435.85916,436.08713,55,50,0
435.6312,436.08713,64,57,0
436.08713,436.3151,60,57,0
436.3151,436.54306,55,50,0
436.08713,436.54306,64,57,0
436.54306,436.77103,59,54,0
436.77103,436.99896,55,46,0
436.54306,436.99896,62,54,0
436.99896,437.22693,59,51,0
437.22693,437.4549,55,44,0
436.99896,437.4549,62,51,0
437.4549,437.68433,60,48,0
437.68433,437.91376,48,45,0
437.91376,438.13586,52,48,0
438.13586,438.35794,55,45,0
438.35794,438.58002,60,57,0
438.58002,438.80212,64,48,0
438.80212,439.0242,67,52,0
439.0242,439.2463,64,48,0
439.2463,439.46103,65,37,0
439.46103,439.67477,60,28,0
439.67477,439.88666,65,37,0
439.88666,440.10373,60,29,0
440.10373,440.34372,65,37,0
440.34372,440.56604,60,27,0
440.56604,440.78683,65,32,0
440.78683,441.0076,60,29,0
441.0076,441.22232,64,37,0
441.22232,441.4356,60,29,0
441.4356,441.64926,64,37,0
441.64926,441.86423,60,28,0
441.86423,442.09814,64,37,0
442.09814,442.32047,60,27,0
442.32047,442.53818,64,33,0
442.53818,442.7559,60,29,0
442.7559,442.9706,60,51,0
442.9706,443.18533,55,45,0
442.7559,443.18533,64,51,0
443.18533,443.40002,60,51,0
443.40002,443.61475,55,45,0
443.18533,443.61475,64,51,0
443.61475,443.82947,62,51,0
443.82947,444.0442,55,43,0
443.61475,444.0442,65,51,0
444.0442,444.2589,62,48,0
444.2589,444.4736,55,45,0
444.0442,444.4736,65,48,0
444.4736,445.34518,60,56,0
444.4736,445.34518,64,56,0
446.23096,446.68094,55,46,0
446.23096,446.68094,64,46,0
446.68094,447.13092,55,40,0
446.68094,447.13092,62,40,0
447.13092,447.5809,55,46,0
447.13092,447.5809,60,46,0
447.5809,448.03088,55,42,0
447.5809,448.03088,59,42,0
448.03088,448.89694,60,58,0
449.77994,450.22992,55,46,0
449.77994,450.22992,64,46,0
450.22992,450.6799,55,42,0
450.22992,450.6799,62,42,0
450.6799,451.12985,55,45,0
450.6799,451.12985,60,45,0
451.12985,451.57983,55,45,0
451.12985,451.57983,59,45,0
451.57983,451.7027,48,62,0
451.8256,452.04208,60,68,0
452.04208,452.2586,59,59,0
452.2586,452.47513,58,59,0
452.47513,452.5906,57,63,0
452.70612,452.9226,57,67,0
452.9226,453.13913,55,61,0
453.13913,453.35565,53,61,0
453.35565,453.57214,52,60,0
453.78867,454.01364,48,60,0
454.67166,455.15408,48,51,0
454.67166,455.15408,60,51,0
455.15408,455.82037,64,51,0
455.82037,456.04245,60,54,0
455.15408,456.04245,55,51,0
456.26456,456.48105,43,71,0
456.04245,456.48105,59,54,0
456.48105,456.70502,47,72,0
456.70502,456.94928,50,69,0
456.94928,457.17282,55,45,0
457.17282,457.39636,59,42,0
457.39636,457.61288,62,40,0
457.82938,458.05292,55,45,0
458.05292,458.2765,59,43,0
458.2765,458.49298,62,41,0
458.72232,458.95285,55,44,0
458.95285,459.18335,60,40,0
459.18335,459.41388,64,43,0
459.41388,459.6444,60,41,0
459.6444,459.86673,55,44,0
459.86673,460.08905,60,40,0
460.08905,460.31137,64,43,0
460.31137,460.5337,60,40,0
460.5337,460.7514,54,57,0
460.7514,460.9691,57,51,0
460.9691,461.1868,60,54,0
461.4045,461.64346,54,57,0
461.64346,461.87143,57,51,0
461.87143,462.0994,60,54,0
462.34515,462.57922,53,57,0
462.57922,462.81332,57,52,0
462.81332,463.0474,59,57,0
463.0474,463.28146,62,52,0
463.28146,463.75998,65,62,0
463.75998,464.00058,64,43,0
464.00058,464.2558,62,45,0
464.2558,464.48837,60,44,0
464.48837,464.72092,64,39,0
464.72092,464.93744,67,41,0
465.15393,465.38336,60,44,0
465.38336,465.6128,64,39,0
465.6128,465.8293,67,41,0
466.05518,466.28928,60,43,0
466.28928,466.52335,65,37,0
466.52335,466.75742,69,40,0
466.75742,466.99152,65,38,0
466.99152,467.2256,60,45,0
467.2256,467.4597,65,39,0
467.4597,467.69376,69,41,0
467.69376,467.92786,65,40,0
467.92786,469.68222,67,62,0
467.92786,469.68222,59,62,0
467.92786,469.68222,62,62,0
467.92786,469.68222,65,62,0
469.68222,469.83322,60,61,0
469.83322,469.9842,64,57,0
469.9842,470.1352,72,53,0
470.1352,470.2862,62,61,0
470.2862,470.43716,65,57,0
470.43716,470.58817,72,53,0
470.58817,470.7325,64,61,0
470.7325,470.87683,67,57,0
470.87683,471.02118,72,53,0
471.02118,471.16553,60,61,0
471.16553,471.30988,64,48,0
471.30988,471.4645,72,48,0
471.4645,471.60886,65,43,0
471.60886,471.7532,69,40,0
471.7532,471.89755,72,38,0
471.89755,472.0419,65,43,0
472.0419,472.18622,69,40,0
472.18622,472.33057,72,39,0
472.33057,472.4749,65,43,0
472.4749,472.61926,69,41,0
472.61926,472.7636,72,40,0
472.7636,472.90793,65,43,0
472.90793,473.05228,69,41,0
473.05228,473.19662,72,40,0
473.19662,473.3447,60,57,0
473.3447,473.49274,64,55,0
473.49274,473.6408,72,50,0
473.6408,473.78888,62,57,0
473.78888,473.93692,65,54,0
473.93692,474.085,72,51,0
474.085,474.22934,64,57,0
474.22934,474.37366,67,54,0
474.37366,474.518,72,51,0
474.518,474.66235,60,57,0
474.66235,474.8067,64,54,0
474.8067,474.966,72,49,0
474.966,475.11035,65,38,0
475.11035,475.2547,69,36,0
475.2547,475.39905,72,36,0
475.39905,475.54337,65,38,0
475.54337,475.6877,69,36,0
475.6877,475.83206,72,36,0
475.83206,475.9764,65,43,0
475.9764,476.12076,69,39,0
476.12076,476.26508,72,39,0
476.26508,476.40942,65,43,0
476.40942,476.55377,69,40,0
476.55377,476.69812,72,40,0
476.69812,476.93066,60,64,0
477.5802,477.79718,53,64,0
478.4607,478.70645,55,60,0
478.95218,479.87613,56,59,0
478.95218,479.87613,62,59,0
478.95218,479.87613,59,59,0
479.87613,480.33807,60,51,0
479.87613,480.33807,57,51,0
480.33807,480.78558,57,43,0
480.33807,480.78558,53,43,0
482.54977,483.0149,64,44,0
483.0149,483.90347,65,44,0
482.54977,483.90347,55,44,0
483.90347,484.13602,60,46,0
483.90347,484.3686,64,46,0
484.3686,484.60114,48,44,0
487.9152,488.36227,59,43,0
488.36227,488.7953,60,43,0
487.9152,488.7953,67,43,0
489.22833,490.10275,60,43,0
489.22833,490.10275,53,43,0
490.53668,490.98468,57,40,0
490.53668,490.98468,54,40,0
490.98468,491.43466,60,43,0
491.43466,491.8846,59,40,0
490.98468,491.8846,55,43,0
491.8846,492.20938,67,77,0
492.20938,492.26352,69,68,0
492.26352,492.31766,71,63,0
492.31766,492.53418,72,69,0
492.53418,492.64243,71,56,0
492.75067,492.85895,69,56,0
492.9672,493.07544,67,52,0
493.18372,493.29196,65,56,0
493.4002,493.50848,64,52,0
493.61673,493.8374,62,57,0
494.0581,494.27878,64,62,0
494.49948,494.72015,65,67,0
494.9413,495.1634,66,69,0
495.38647,495.61002,67,70,0
495.835,496.0605,68,72,0
496.28696,496.73718,69,77,0
496.73718,497.1786,62,48,0
496.73718,497.1786,53,48,0
497.1786,497.62854,64,48,0
497.62854,498.06158,65,48,0
497.1786,498.06158,55,48,0
498.06158,498.28513,60,60,0
498.28513,498.50867,64,52,0
498.50867,498.7252,67,57,0
498.7252,498.9417,64,53,0
498.9417,499.17538,60,60,0
499.17538,499.39053,65,53,0
499.39053,499.6241,69,57,0
499.6241,499.83926,65,51,0
499.83926,500.06427,60,60,0
500.06427,500.28925,64,47,0
500.28925,500.50577,67,54,0
500.50577,500.7223,64,49,0
500.7223,500.95596,60,60,0
500.95596,501.1711,65,53,0
501.1711,501.40472,69,57,0
501.40472,501.61984,65,52,0
501.61984,502.05014,60,58,0
501.61984,502.05014,64,58,0
501.61984,502.05014,67,58,0
502.05014,502.4832,65,46,0
502.4832,502.92737,64,44,0
502.05014,502.92737,67,46,0
502.92737,503.36038,65,43,0
503.36038,503.80457,64,45,0
502.92737,503.80457,67,43,0
503.80457,504.0211,67,52,0
503.80457,504.0211,65,52,0
504.0211,504.23758,67,54,0
504.0211,504.23758,65,52,0
504.23758,504.45456,67,57,0
504.23758,504.45456,64,52,0
504.45456,504.6734,67,60,0
504.45456,504.6734,64,52,0
504.6734,504.89502,67,62,0
504.6734,504.89502,59,52,0
504.89502,505.11905,67,65,0
504.89502,505.11905,59,52,0
505.11905,505.57202,67,67,0
505.11905,505.57202,60,67,0
507.37228,507.81366,62,44,0
507.37228,507.81366,57,44,0
507.37228,507.81366,53,44,0
507.81366,508.26663,60,44,0
507.81366,508.26663,64,44,0
508.26663,508.71957,65,43,0
508.26663,508.71957,62,43,0
507.81366,508.71957,55,44,0
508.71957,508.94315,60,60,0
508.94315,509.1667,64,52,0
509.1667,509.38318,67,57,0
509.38318,509.5997,64,52,0
509.5997,509.8334,60,60,0
509.8334,510.04855,65,53,0
510.04855,510.28214,69,57,0
510.28214,510.49728,65,57,0
510.49728,510.71243,60,60,0
510.71243,510.92758,64,52,0
510.92758,511.1441,67,57,0
511.1441,511.3606,64,51,0
511.3606,511.5943,60,60,0
511.5943,511.80945,65,53,0
511.80945,512.043,69,57,0
512.043,512.2582,65,51,0
512.2582,512.6885,60,60,0
512.2582,512.6885,64,60,0
512.2582,512.6885,67,60,0
512.6885,513.1215,65,46,0
513.1215,513.5657,64,44,0
512.6885,513.5657,67,46,0
513.5657,513.9987,65,42,0
513.9987,514.4429,64,45,0
513.5657,514.4429,67,42,0
514.4429,514.64856,67,52,0
514.4429,514.64856,65,52,0
514.6594,514.8651,67,54,0
514.6594,514.8651,65,52,0
514.8759,515.0777,67,57,0
514.8759,515.0777,64,52,0
515.08856,515.2938,67,60,0
515.08856,515.2938,64,52,0
515.3048,515.5153,67,62,0
515.3048,515.5153,59,52,0
515.5264,515.7392,67,65,0
515.5264,515.7392,59,52,0
515.7504,516.2034,67,67,0
515.7504,516.2034,60,67,0
518.00366,518.44507,62,44,0
518.00366,518.44507,57,44,0
518.00366,518.44507,53,44,0
518.44507,518.898,60,44,0
518.44507,518.898,64,44,0
518.898,519.351,65,41,0
518.898,519.351,62,41,0
518.44507,519.351,55,44,0
519.351,519.69934,60,78,0
519.69934,519.8154,55,71,0
519.8154,520.1638,64,76,0
520.1638,520.2799,60,68,0
520.2799,520.5242,67,74,0
521.2015,521.4236,64,41,0
521.2015,521.4236,60,41,0
521.2015,521.4236,55,41,0
522.0787,522.3008,59,41,0
522.0787,522.3008,65,41,0
522.0787,522.3008,55,41,0
522.9559,523.0703,60,70,0
523.0703,523.1847,55,65,0
523.1847,523.29913,60,70,0
523.29913,523.4136,55,65,0
523.4136,523.52795,64,70,0
523.52795,523.6424,60,64,0
523.6424,523.7568,64,71,0
523.7568,523.8712,60,65,0
523.8712,524.1195,67,71,0
524.7821,525.0086,60,45,0
524.7821,525.0086,64,45,0
524.7821,525.0086,55,45,0
525.6552,525.87976,65,45,0
525.6552,525.87976,55,45,0
525.6552,525.87976,59,45,0
526.53925,526.7648,64,51,0
526.7648,526.99036,60,41,0
526.99036,527.2159,64,51,0
527.2159,527.4379,60,41,0
527.4379,527.6603,65,51,0
527.6603,527.88257,60,41,0
527.88257,528.1049,67,51,0
528.1049,528.3272,60,41,0
528.3272,528.5552,69,51,0
528.5552,528.78314,60,43,0
528.78314,529.0111,70,51,0
529.0111,529.2332,60,43,0
529.2332,529.4553,69,51,0
529.4553,529.67737,60,43,0
529.67737,529.8997,67,51,0
529.8997,530.122,60,43,0
530.122,530.35,65,51,0
530.35,530.57794,60,43,0
530.57794,530.8059,64,51,0
530.8059,531.028,60,35,0
531.028,531.2501,65,40,0
531.2501,531.47217,60,37,0
531.47217,531.6943,62,40,0
531.6943,531.9164,60,36,0
531.9164,532.14435,64,39,0
532.14435,532.3723,60,36,0
532.3723,532.5944,65,40,0
532.5944,532.81647,60,34,0
532.81647,533.04443,64,40,0
533.04443,533.2724,60,38,0
533.2724,533.4945,65,41,0
533.4945,533.7166,60,34,0
533.7166,533.9446,64,41,0
533.9446,534.174,60,37,0
534.174,534.40497,65,40,0
534.40497,534.63806,60,33,0
534.63806,534.8743,64,41,0
534.8743,535.1106,60,37,0
535.1106,535.35486,65,41,0
535.35486,535.74115,60,35,0
535.74115,537.7631,60,39,0
535.74115,537.7631,48,33,0
