start_time,end_time,note_value,velocity,instrument_program_number
0.0021976084,1.0570496,67,59,0
0.0021976084,1.0570496,70,59,0
1.054852,1.6262301,68,55,0
1.054852,1.6262301,65,55,0
1.582278,2.1513083,63,53,0
1.582278,2.1513083,67,53,0
2.109704,2.6543682,68,54,0
2.109704,2.6543682,72,54,0
2.608955,3.1085007,67,52,0
2.608955,3.1085007,70,52,0
3.153914,4.16777,67,59,0
3.153914,4.16777,70,59,0
4.16777,5.166272,68,53,0
4.16777,5.166272,65,53,0
5.166272,6.212662,67,51,0
5.166272,6.212662,63,51,0
6.212662,7.242528,64,65,0
7.242528,7.769954,65,55,0
7.769954,8.280853,72,55,0
8.280853,8.536303,70,53,0
8.536303,8.791752,68,51,0
8.791752,9.047201,67,53,0
9.047201,9.302651,65,52,0
9.302651,10.374654,63,59,0
9.302651,10.374654,55,59,0
10.374654,10.638367,62,53,0
10.374654,10.638367,53,53,0
10.770224,10.90208,58,47,0
10.90208,11.0339365,62,51,0
11.0339365,11.165088,60,49,0
11.165088,11.295887,63,52,0
11.295887,11.426685,62,51,0
11.426685,11.557484,65,53,0
11.557484,11.688283,63,51,0
11.688283,11.818734,67,54,0
11.818734,11.948492,65,54,0
11.948492,12.07825,68,57,0
12.07825,12.208008,67,54,0
12.208008,12.337766,70,59,0
12.337766,12.466841,68,56,0
12.466841,12.598697,72,60,0
12.598697,13.257979,70,61,0
13.257979,13.389835,72,53,0
13.389835,13.521692,70,50,0
12.598697,13.521692,67,61,0
13.521692,13.787556,68,53,0
13.787556,14.053419,67,51,0
14.053419,14.319283,65,53,0
14.319283,14.594058,63,52,0
14.594058,14.857771,79,62,0
14.857771,15.121484,74,54,0
15.121484,15.385197,75,58,0
15.385197,15.64891,72,52,0
15.64891,16.720913,70,56,0
16.720913,16.834347,68,50,0
16.834347,16.944023,70,48,0
16.944023,17.053259,68,50,0
17.053259,17.159508,70,48,0
17.159508,17.26126,68,50,0
17.26126,17.36445,70,49,0
17.36445,17.465378,68,49,0
17.463425,17.582006,67,57,0
17.582006,17.707201,68,55,0
17.707201,17.838802,67,60,0
17.970406,18.236269,75,65,0
18.236269,18.502132,74,62,0
18.502132,18.767994,73,59,0
19.003794,19.082394,74,53,0
18.767994,19.082394,71,57,0
19.309484,19.38518,70,53,0
19.082394,19.38518,72,61,0
19.612268,19.687965,67,47,0
19.38518,19.687965,68,57,0
19.687965,20.025045,65,55,0
20.025045,21.808636,63,51,0
21.808636,22.11426,67,50,0
22.11426,22.419884,65,47,0
21.808636,22.419884,62,50,0
22.419884,23.474735,63,46,0
24.002161,24.51306,70,49,0
24.002161,24.51306,67,49,0
24.51306,25.023958,70,52,0
24.51306,25.023958,67,52,0
25.023958,25.564402,70,46,0
25.023958,25.564402,67,46,0
25.564402,26.091827,75,57,0
26.091827,27.14668,74,50,0
25.564402,27.14668,68,57,0
27.14668,27.453218,82,54,0
27.40213,27.65758,80,51,0
27.65758,27.964119,79,54,0
27.913029,28.219568,77,52,0
28.168478,28.475018,75,52,0
28.423927,28.679377,74,49,0
28.679377,28.766577,77,54,0
28.766577,29.464169,75,52,0
29.464169,29.594969,74,45,0
29.594969,29.725767,72,44,0
29.725767,30.248962,70,45,0
30.248962,30.759861,70,45,0
30.248962,30.759861,67,45,0
30.759861,31.27076,70,50,0
30.759861,31.27076,67,50,0
31.27076,31.793955,67,45,0
31.27076,31.793955,70,45,0
31.793955,32.31715,75,56,0
32.31715,33.36354,74,46,0
31.793955,33.36354,68,56,0
33.36354,33.667698,82,53,0
33.617004,33.87047,80,50,0
33.87047,34.174625,79,53,0
34.12393,34.42809,77,50,0
34.377396,34.681553,75,52,0
34.63086,34.884323,74,50,0
34.884323,35.137787,75,53,0
35.137787,35.222275,77,43,0
35.222275,35.306763,75,43,0
35.306763,35.39125,74,43,0
35.39125,35.517982,75,43,0
35.517982,35.644714,77,44,0
35.644714,35.771446,79,45,0
35.771446,35.89818,75,44,0
35.89818,36.151646,70,43,0
36.40511,36.950066,67,48,0
36.40511,36.950066,70,48,0
36.950066,37.518787,68,45,0
36.950066,37.518787,65,45,0
37.518787,38.141582,67,49,0
37.518787,38.141582,63,49,0
38.141582,38.994663,70,53,0
38.994663,39.279022,67,39,0
38.141582,39.279022,63,53,0
39.279022,40.39195,65,35,0
39.279022,40.39195,62,35,0
41.33039,41.46332,65,67,0
41.46332,43.0456,77,72,0
43.0456,43.17746,75,70,0
43.17746,43.309315,74,62,0
43.309315,43.44117,72,65,0
43.44117,43.57303,70,63,0
43.57303,44.100452,69,71,0
44.100452,44.62788,70,70,0
44.62788,45.182102,69,67,0
44.62788,45.182102,72,67,0
45.182102,45.313957,75,65,0
45.313957,45.445812,74,62,0
45.445812,45.57767,72,65,0
45.57767,45.709526,74,61,0
45.182102,45.709526,70,65,0
45.709526,46.236954,75,65,0
45.709526,46.236954,72,65,0
46.236954,46.781914,65,49,0
46.781914,47.32687,65,53,0
47.32687,47.87183,65,50,0
47.87183,49.45411,75,72,0
49.45411,49.585964,77,69,0
49.585964,49.71782,75,63,0
49.71782,49.849678,74,69,0
49.849678,49.981533,72,63,0
49.981533,50.50896,70,73,0
50.50896,51.036385,72,70,0
50.50896,51.036385,69,70,0
51.036385,51.585938,70,71,0
51.036385,51.585938,74,71,0
51.585938,51.719936,77,67,0
51.719936,51.85394,75,67,0
51.85394,51.987938,74,67,0
51.987938,52.121937,75,64,0
51.585938,52.121937,72,67,0
52.121937,52.38994,77,72,0
52.121937,52.38994,74,72,0
54.292816,55.875095,80,76,0
55.875095,56.00695,79,67,0
56.00695,56.13881,77,63,0
56.13881,56.270664,75,67,0
56.270664,56.40252,74,64,0
56.40252,56.961494,75,72,0
56.961494,57.253433,77,74,0
57.545376,59.15338,78,80,0
59.15338,59.405483,80,72,0
59.405483,59.67097,79,69,0
59.67097,59.925205,77,70,0
59.925205,60.190693,75,67,0
60.190693,60.44493,74,67,0
60.44493,60.69917,72,64,0
60.69917,60.87081,77,75,0
60.87081,61.042458,76,71,0
61.042458,61.2141,77,73,0
61.2141,61.385746,79,75,0
61.385746,61.55739,67,67,0
61.55739,61.755566,75,69,0
61.755566,62.810417,70,75,0
62.810417,63.07129,74,68,0
63.07129,63.346516,72,60,0
63.346516,63.609676,70,66,0
63.609676,63.882404,72,59,0
62.810417,63.882404,69,62,0
63.882404,64.9408,70,60,0
65.46823,65.99213,77,75,0
65.46823,65.99213,70,75,0
65.99213,66.521706,72,80,0
65.99213,66.521706,77,59,0
66.521706,67.05773,77,76,0
66.521706,67.05773,74,76,0
67.05773,67.71173,77,80,0
67.71173,67.84253,79,69,0
67.84253,67.97333,77,67,0
67.97333,68.104126,76,70,0
68.104126,68.36572,77,76,0
67.05773,68.62732,75,63,0
68.62732,69.15904,77,75,0
68.62732,69.15904,69,75,0
69.15904,69.68647,79,76,0
69.15904,69.68647,70,76,0
69.68647,70.20966,81,75,0
69.68647,70.20966,72,75,0
70.20966,70.85402,82,86,0
70.85402,70.98275,84,75,0
70.98275,71.11148,86,76,0
71.11148,71.24021,82,72,0
71.24021,71.49768,77,78,0
70.20966,71.75515,70,86,0
71.75515,72.29559,77,54,0
71.75515,72.29559,74,54,0
72.29559,72.83458,75,54,0
72.29559,72.83458,72,54,0
72.83458,73.418465,74,54,0
72.83458,73.418465,70,54,0
73.418465,74.06725,72,57,0
74.06725,74.197014,74,52,0
74.197014,74.32677,75,54,0
74.32677,74.45653,72,52,0
74.45653,74.71604,79,59,0
74.97556,75.507286,75,49,0
74.97556,75.507286,67,49,0
75.507286,76.03901,70,52,0
75.507286,76.03901,65,52,0
76.03901,76.597984,72,49,0
76.03901,76.597984,69,49,0
76.597984,77.43644,72,54,0
77.43644,77.71593,73,50,0
76.597984,77.71593,69,54,0
77.71593,78.274895,74,45,0
77.71593,78.274895,70,45,0
78.274895,78.8109,77,74,0
78.274895,78.8109,70,74,0
78.8109,79.3469,77,59,0
78.8109,79.3469,72,80,0
79.3469,79.882904,74,75,0
79.3469,79.882904,77,75,0
79.882904,80.536896,77,83,0
80.536896,80.667694,79,69,0
80.667694,80.79849,77,71,0
80.79849,80.92929,76,67,0
80.92929,81.19089,77,77,0
79.882904,81.45044,75,83,0
81.45044,81.964806,77,76,0
81.45044,81.964806,69,76,0
81.964806,82.503075,70,81,0
81.964806,82.503075,79,81,0
82.503075,83.054985,81,76,0
82.503075,83.054985,72,76,0
83.054985,83.69933,82,86,0
83.69933,83.828064,84,67,0
83.828064,83.9568,86,70,0
83.9568,84.08553,82,66,0
84.08553,84.343,77,63,0
83.054985,84.600464,70,86,0
84.600464,85.14091,77,54,0
84.600464,85.14091,74,54,0
85.14091,85.6799,75,54,0
85.14091,85.6799,72,54,0
85.6799,86.26379,74,54,0
85.6799,86.26379,70,54,0
86.26379,86.409325,71,45,0
86.409325,86.55317,72,45,0
86.55317,86.69618,74,46,0
86.69618,86.83755,72,45,0
86.83755,86.978096,75,50,0
86.978096,87.11704,74,47,0
87.11704,87.25521,77,52,0
87.25521,87.39183,75,50,0
87.39183,88.446686,79,60,0
88.446686,88.97411,77,54,0
89.4044,89.54784,69,50,0
89.54784,90.56963,70,51,0
91.08053,91.59277,80,66,0
91.59277,92.11113,79,70,0
92.11113,92.636444,81,73,0
92.636444,93.16817,84,76,0
93.16817,93.6999,82,71,0
94.23162,94.77736,68,69,0
94.77736,95.33476,67,69,0
95.33476,95.988785,69,63,0
95.33476,95.988785,63,63,0
95.988785,97.35118,63,54,0
95.988785,97.35118,72,54,0
97.35118,98.03238,62,42,0
97.35118,98.03238,70,42,0
98.03238,98.655174,65,47,0
98.03238,98.655174,62,47,0
98.655174,99.23906,67,52,0
98.655174,99.23906,63,52,0
99.23906,99.87398,68,55,0
99.23906,99.87398,65,55,0
99.87618,100.93103,67,59,0
99.87618,100.93103,70,59,0
100.92883,101.50021,68,55,0
100.92883,101.50021,65,55,0
101.45626,102.02529,63,53,0
101.45626,102.02529,67,53,0
101.98369,102.52835,68,54,0
101.98369,102.52835,72,54,0
102.48293,102.98248,67,52,0
102.48293,102.98248,70,52,0
103.02789,104.04175,67,59,0
103.02789,104.04175,70,59,0
104.04175,105.04025,68,53,0
104.04175,105.04025,65,53,0
105.04025,106.08665,67,51,0
105.04025,106.08665,63,51,0
106.08665,107.11651,64,65,0
107.11651,107.643936,65,55,0
107.643936,108.15483,72,55,0
108.15483,108.410286,70,53,0
108.410286,108.66573,68,51,0
108.66573,108.92118,67,53,0
108.92118,109.176636,65,52,0
109.176636,110.248634,63,59,0
109.176636,110.248634,55,59,0
110.248634,110.51235,62,53,0
110.248634,110.51235,53,53,0
110.6442,110.77606,58,47,0
110.77606,110.90792,62,51,0
110.90792,111.03907,60,49,0
111.03907,111.16987,63,52,0
111.16987,111.30067,62,51,0
111.30067,111.431465,65,53,0
111.431465,111.56226,63,51,0
111.56226,111.69272,67,54,0
111.69272,111.82247,65,54,0
111.82247,111.95223,68,57,0
111.95223,112.081985,67,54,0
112.081985,112.21175,70,59,0
112.21175,112.34082,68,56,0
112.34082,112.47268,72,60,0
112.47268,113.13196,70,61,0
113.13196,113.26382,72,53,0
113.26382,113.395676,70,50,0
112.47268,113.395676,67,61,0
113.395676,113.66154,68,53,0
113.66154,113.9274,67,51,0
113.9274,114.19326,65,53,0
114.19326,114.46804,63,52,0
114.46804,114.73175,79,62,0
114.73175,114.99547,74,54,0
114.99547,115.25918,75,58,0
115.25918,115.52289,72,52,0
115.52289,116.594894,70,56,0
116.594894,116.70917,68,50,0
116.70917,116.82125,70,48,0
116.82125,116.935524,68,50,0
116.935524,117.0498,70,48,0
117.0498,117.16188,68,50,0
117.16188,117.27615,70,49,0
117.27615,117.38823,68,49,0
117.38603,117.51789,67,57,0
117.51789,117.64974,68,55,0
117.64974,117.7883,67,60,0
117.92686,118.19272,75,65,0
118.19272,118.45858,74,62,0
118.45858,118.72445,73,59,0
118.96024,119.03885,74,53,0
118.72445,119.03885,71,57,0
119.25115,119.321915,70,53,0
119.03885,119.321915,72,61,0
119.534225,119.60499,67,47,0
119.321915,119.60499,68,57,0
119.60499,119.98009,65,55,0
119.98009,121.74618,63,51,0
121.74618,122.0518,67,50,0
122.0518,122.35743,65,47,0
121.74618,122.35743,62,50,0
122.35743,123.41228,63,46,0
123.939705,124.4506,70,49,0
123.939705,124.4506,67,49,0
124.4506,124.9615,70,52,0
124.4506,124.9615,67,52,0
124.9615,125.501945,70,46,0
124.9615,125.501945,67,46,0
125.501945,126.02937,75,57,0
126.02937,127.08422,74,50,0
125.501945,127.08422,68,57,0
127.08422,127.39076,82,54,0
127.339676,127.59512,80,51,0
127.59512,127.901665,79,54,0
127.85057,128.1571,77,52,0
128.10602,128.41257,75,52,0
128.36147,128.61691,74,49,0
128.61691,128.70412,77,54,0
128.70412,129.40172,75,52,0
129.40172,129.53252,74,45,0
129.53252,129.66331,72,44,0
129.66331,130.18651,70,45,0
130.18651,130.6974,70,45,0
130.18651,130.6974,67,45,0
130.6974,131.2083,70,50,0
130.6974,131.2083,67,50,0
131.2083,131.73149,67,45,0
131.2083,131.73149,70,45,0
131.73149,132.2547,75,56,0
132.2547,133.30109,74,46,0
131.73149,133.30109,68,56,0
133.30109,133.60524,82,53,0
133.55455,133.80801,80,50,0
133.80801,134.11217,79,53,0
134.06148,134.36563,77,50,0
134.31494,134.6191,75,52,0
134.5684,134.82187,74,50,0
134.82187,135.07533,75,53,0
135.07533,135.15982,77,43,0
135.15982,135.24431,75,43,0
135.24431,135.3288,74,43,0
135.3288,135.45552,75,43,0
135.45552,135.58226,77,44,0
135.58226,135.70898,79,45,0
135.70898,135.83572,75,44,0
135.83572,136.08919,70,43,0
136.34265,136.86906,67,48,0
136.34265,136.86906,70,48,0
136.86906,137.45741,68,45,0
136.86906,137.45741,65,45,0
137.45741,138.0802,67,49,0
137.45741,138.0802,63,49,0
138.0802,138.93329,70,53,0
138.93329,139.21765,67,39,0
138.0802,139.21765,63,53,0
139.21765,140.33057,65,35,0
139.21765,140.33057,62,35,0
141.26901,141.40195,65,67,0
141.40195,142.98422,77,72,0
142.98422,143.11607,75,70,0
143.11607,143.24794,74,62,0
143.24794,143.37979,72,65,0
143.37979,143.51164,70,63,0
143.51164,144.03908,69,71,0
144.03908,144.5665,70,70,0
144.5665,145.12073,69,67,0
144.5665,145.12073,72,67,0
145.12073,145.25258,75,65,0
145.25258,145.38443,74,62,0
145.38443,145.5163,72,65,0
145.5163,145.64815,74,61,0
145.12073,145.64815,70,65,0
145.64815,146.17557,75,65,0
145.64815,146.17557,72,65,0
146.17557,146.72054,65,49,0
146.72054,147.26549,65,53,0
147.26549,147.81046,65,50,0
147.81046,149.39273,75,72,0
149.39273,149.52458,77,69,0
149.52458,149.65645,75,63,0
149.65645,149.7883,74,69,0
149.7883,149.92015,72,63,0
149.92015,150.44759,70,73,0
150.44759,150.975,72,70,0
150.44759,150.975,69,70,0
150.975,151.52457,70,71,0
150.975,151.52457,74,71,0
151.52457,151.65855,77,67,0
151.65855,151.79256,75,67,0
151.79256,151.92656,74,67,0
151.92656,152.06056,75,64,0
151.52457,152.06056,72,67,0
152.06056,152.32857,77,72,0
152.06056,152.32857,74,72,0
154.23145,155.81372,80,76,0
155.81372,155.94557,79,67,0
155.94557,156.07742,77,63,0
156.07742,156.20929,75,67,0
156.20929,156.34114,74,64,0
156.34114,156.90012,75,72,0
156.90012,157.19206,77,74,0
157.484,159.09201,78,80,0
159.09201,159.3441,80,72,0
159.3441,159.60959,79,69,0
159.60959,159.86383,77,70,0
159.86383,160.12932,75,67,0
160.12932,160.38356,74,67,0
160.38356,160.63779,72,64,0
160.63779,160.80943,77,75,0
160.80943,160.98108,76,71,0
160.98108,161.15273,77,73,0
161.15273,161.32437,79,75,0
161.32437,161.49602,67,67,0
161.49602,161.69418,75,69,0
161.69418,162.74904,70,75,0
162.74904,163.0099,74,68,0
163.0099,163.28514,72,60,0
163.28514,163.5483,70,66,0
163.5483,163.82103,72,59,0
162.74904,163.82103,69,62,0
163.82103,164.87943,70,60,0
165.40685,165.93076,77,75,0
165.40685,165.93076,70,75,0
165.93076,166.46033,72,80,0
165.93076,166.46033,77,59,0
166.46033,166.99635,77,76,0
166.46033,166.99635,74,76,0
166.99635,167.65034,77,80,0
167.65034,167.78114,79,69,0
167.78114,167.91194,77,67,0
167.91194,168.04274,76,70,0
168.04274,168.30434,77,76,0
166.99635,168.56595,75,63,0
168.56595,169.09767,77,75,0
168.56595,169.09767,69,75,0
169.09767,169.62509,79,76,0
169.09767,169.62509,70,76,0
169.62509,170.14828,81,75,0
169.62509,170.14828,72,75,0
170.14828,170.79263,82,86,0
170.79263,170.92137,84,75,0
170.92137,171.05011,86,76,0
171.05011,171.17883,82,72,0
171.17883,171.43631,77,78,0
170.14828,171.69377,70,86,0
171.69377,172.2342,77,54,0
171.69377,172.2342,74,54,0
172.2342,172.77321,75,54,0
172.2342,172.77321,72,54,0
172.77321,173.35709,74,54,0
172.77321,173.35709,70,54,0
173.35709,174.00587,72,57,0
174.00587,174.13564,74,52,0
174.13564,174.2654,75,54,0
174.2654,174.39516,72,52,0
174.39516,174.65466,79,59,0
174.91418,175.4459,75,49,0
174.91418,175.4459,67,49,0
175.4459,175.97763,70,52,0
175.4459,175.97763,65,52,0
175.97763,176.5366,72,49,0
175.97763,176.5366,69,49,0
176.5366,177.37506,72,54,0
177.37506,177.65456,73,50,0
176.5366,177.65456,69,54,0
177.65456,178.21352,74,45,0
177.65456,178.21352,70,45,0
178.21352,178.74953,77,74,0
178.21352,178.74953,70,74,0
178.74953,179.28552,77,59,0
178.74953,179.28552,72,80,0
179.28552,179.82152,74,75,0
179.28552,179.82152,77,75,0
179.82152,180.47552,77,83,0
180.47552,180.60632,79,69,0
180.60632,180.73712,77,71,0
180.73712,180.86792,76,67,0
180.86792,181.12952,77,77,0
179.82152,181.38905,75,83,0
181.38905,181.90343,77,76,0
181.38905,181.90343,69,76,0
181.90343,182.4417,70,81,0
181.90343,182.4417,79,81,0
182.4417,182.9936,81,76,0
182.4417,182.9936,72,76,0
182.9936,183.63795,82,86,0
183.63795,183.7667,84,67,0
183.7667,183.88576,86,70,0
183.88576,184.00482,82,66,0
184.00482,184.27272,77,63,0
182.9936,184.54063,70,86,0
184.54063,185.08107,77,54,0
184.54063,185.08107,74,54,0
185.08107,185.62007,75,54,0
185.08107,185.62007,72,54,0
185.62007,186.20395,74,54,0
185.62007,186.20395,70,54,0
186.20395,186.34949,71,45,0
186.34949,186.49333,72,45,0
186.49333,186.63635,74,46,0
186.63635,186.77771,72,45,0
186.77771,186.91826,75,50,0
186.91826,187.0572,74,47,0
187.0572,187.19537,77,52,0
187.19537,187.332,75,50,0
187.332,188.38686,79,60,0
188.38686,188.91428,77,54,0
189.34457,189.488,69,50,0
189.488,190.5098,70,51,0
191.02069,191.53294,80,66,0
191.53294,192.0513,79,70,0
192.0513,192.57661,81,73,0
192.57661,193.10834,84,76,0
193.10834,193.64006,82,71,0
194.17178,194.71753,68,69,0
194.71753,195.27493,67,69,0
195.27493,195.92896,69,63,0
195.27493,195.92896,63,63,0
195.92896,197.29135,63,54,0
195.92896,197.29135,72,54,0
197.29135,197.97255,62,42,0
197.29135,197.97255,70,42,0
197.97255,198.59534,65,47,0
197.97255,198.59534,62,47,0
198.59534,199.17923,67,52,0
198.59534,199.17923,63,52,0
199.17923,199.83154,68,55,0
199.17923,199.83154,65,55,0
199.83154,201.0818,69,67,0
199.83154,201.0818,66,67,0
201.0818,201.62224,70,62,0
201.0818,201.62224,67,62,0
201.62224,202.16269,73,54,0
201.62224,202.16269,70,54,0
202.16269,202.72166,67,56,0
202.16269,202.72166,64,56,0
202.72166,203.30554,72,51,0
202.72166,203.30554,68,51,0
203.30554,204.43315,70,55,0
203.30554,204.43315,67,55,0
204.43315,204.99696,68,52,0
204.43315,204.99696,65,52,0
204.99696,205.47163,77,54,0
205.52438,205.99907,77,54,0
206.0518,206.52649,77,54,0
206.57924,207.64268,78,62,0
207.64268,208.15762,79,56,0
208.15762,209.18748,82,63,0
209.18748,209.71068,76,57,0
209.71068,210.76553,79,64,0
210.76553,211.29295,77,60,0
213.45473,213.95398,80,59,0
213.95398,214.20361,79,61,0
214.20361,214.45323,77,59,0
214.45323,214.69324,75,57,0
214.69324,214.94533,73,57,0
214.94533,215.2028,72,59,0
215.2028,215.46027,73,62,0
215.46027,215.708,77,66,0
215.708,215.95572,73,60,0
215.95572,217.00212,72,57,0
217.00212,219.15749,71,47,0
215.95572,219.15749,68,57,0
215.95572,219.15749,62,57,0
219.68921,220.20415,72,53,0
220.20415,220.46161,71,56,0
220.46161,220.71907,72,58,0
219.68921,220.71907,63,53,0
220.71907,220.97058,74,59,0
220.97058,221.22209,72,56,0
221.22209,221.47957,71,56,0
221.47957,221.73703,72,59,0
220.71907,221.73703,63,50,0
221.73703,221.98854,75,61,0
221.98854,222.26102,74,60,0
222.26102,223.31587,71,66,0
221.73703,223.31587,63,61,0
223.31587,225.40039,72,60,0
223.31587,225.40039,63,60,0
225.91942,226.38286,72,62,0
225.91942,226.38286,63,62,0
226.43436,226.89517,72,64,0
226.43436,226.89517,63,64,0
226.94626,227.40448,72,67,0
226.94626,227.40448,63,67,0
227.45517,227.91083,72,70,0
227.45517,227.91083,63,70,0
227.96112,228.44353,72,72,0
227.96112,228.44353,63,72,0
228.49713,229.15112,73,74,0
229.15112,229.28192,72,62,0
229.28192,229.41272,70,57,0
229.41272,229.54352,68,54,0
229.54352,230.06671,67,66,0
228.49713,230.06671,63,74,0
230.06671,230.5776,79,67,0
230.5776,231.0885,80,67,0
231.0885,231.87138,72,65,0
231.87138,232.12683,70,56,0
232.12683,232.38228,73,60,0
232.38228,232.67955,77,55,0
232.67955,234.27089,68,63,0
234.27089,234.56024,72,55,0
234.56024,234.8496,70,55,0
234.27089,234.8496,67,55,0
234.8496,235.87947,68,46,0
236.3944,236.9053,72,46,0
236.3944,236.9053,68,46,0
236.9053,237.4162,72,49,0
236.9053,237.4162,68,49,0
237.4162,237.94792,72,46,0
237.4162,237.94792,68,46,0
237.94792,238.47534,77,58,0
238.47534,239.49715,76,46,0
237.94792,239.49715,72,58,0
237.94792,239.49715,70,58,0
239.49715,240.00804,72,47,0
239.49715,240.00804,70,47,0
240.00804,240.51895,72,51,0
240.00804,240.51895,70,51,0
240.51895,241.02985,72,47,0
240.51895,241.02985,70,47,0
241.02985,241.55727,79,59,0
241.55727,242.57907,77,51,0
241.02985,242.57907,72,59,0
241.02985,242.57907,68,59,0
242.57907,243.0981,72,51,0
242.57907,243.0981,68,51,0
243.0981,243.62129,72,54,0
243.0981,243.62129,68,54,0
243.62129,244.16174,72,49,0
243.62129,244.16174,68,49,0
244.16174,244.68494,80,64,0
244.68494,245.72305,78,60,0
244.16174,245.72305,72,64,0
244.16174,245.72305,68,64,0
245.72305,246.17929,72,50,0
245.72305,246.17929,68,50,0
246.22998,246.68622,72,55,0
246.22998,246.68622,68,55,0
246.73692,247.19315,72,51,0
246.73692,247.19315,68,51,0
247.24385,247.77127,78,61,0
247.77127,248.79308,76,56,0
247.24385,248.79308,73,61,0
247.24385,248.79308,68,61,0
248.79308,249.30397,76,59,0
248.79308,249.30397,68,59,0
249.30397,249.823,76,64,0
249.30397,249.823,68,64,0
249.823,250.36343,75,59,0
249.823,250.36343,68,59,0
250.36343,251.1741,75,65,0
251.1741,251.30284,77,52,0
251.30284,251.43158,75,49,0
251.43158,251.9465,74,52,0
250.36343,251.9465,68,65,0
251.9465,252.48251,68,45,0
251.9465,252.48251,62,45,0
252.48251,253.01851,68,47,0
252.48251,253.01851,62,47,0
253.01851,253.5545,68,45,0
253.01851,253.5545,62,45,0
253.5545,254.62651,68,47,0
253.5545,254.62651,62,47,0
255.16252,255.66132,80,39,0
255.16252,255.66132,74,39,0
255.71674,256.21555,80,39,0
255.71674,256.21555,74,39,0
256.27097,256.79645,80,39,0
256.27097,256.79645,74,39,0
256.85483,257.5155,80,43,0
257.5155,257.5912,82,34,0
257.5912,257.66687,80,36,0
257.66687,257.74258,79,39,0
257.74258,257.81827,80,41,0
257.81827,257.96967,82,40,0
257.96967,258.12106,84,37,0
256.85483,258.12106,74,43,0
258.12106,258.38907,82,43,0
258.38907,258.65707,80,40,0
258.65707,258.92505,79,44,0
258.92505,259.19305,77,44,0
259.19305,259.45892,75,46,0
259.45892,259.73065,74,44,0
259.73065,260.00626,72,44,0
260.00626,260.29443,70,44,0
260.32285,261.11398,70,46,0
261.1118,261.24362,72,46,0
261.24362,261.3755,70,46,0
260.32285,261.37762,67,46,0
261.3755,261.8904,68,44,0
261.3755,261.8904,65,44,0
261.8904,262.40536,67,42,0
261.8904,262.40536,63,42,0
262.40536,262.9328,72,43,0
262.40536,262.9328,68,43,0
262.9328,263.44644,70,41,0
262.9328,263.44644,67,41,0
263.46878,264.2292,70,45,0
264.2292,264.3559,72,42,0
264.3559,264.48264,70,42,0
263.46878,264.48264,67,45,0
264.48264,265.5207,68,47,0
265.5207,266.81827,67,47,0
266.81827,267.0778,64,44,0
267.0778,267.33698,65,45,0
267.33698,267.59445,67,46,0
267.59445,267.8509,68,49,0
267.8509,268.10635,69,51,0
268.10635,268.36047,70,52,0
268.36047,268.61392,71,54,0
268.61392,268.74066,74,56,0
268.74066,268.86774,72,54,0
268.86774,268.99545,71,52,0
268.99545,269.12384,72,54,0
269.12384,269.2526,70,52,0
269.2526,269.38235,68,49,0
269.38235,269.51245,67,51,0
269.51245,269.64325,65,50,0
269.64325,270.6981,63,54,0
269.64325,270.6981,55,54,0
270.6981,270.82925,62,47,0
270.6981,270.82925,53,47,0
270.82925,270.96005,58,49,0
270.96005,271.09085,57,50,0
271.09085,271.22165,58,51,0
271.22165,271.35175,59,52,0
271.35175,271.4815,60,53,0
271.4815,271.61127,61,54,0
271.61127,271.74103,62,54,0
271.74103,271.8701,63,55,0
271.8701,271.99884,64,56,0
271.99884,272.12756,65,57,0
272.12756,272.2563,66,59,0
272.2563,272.38437,67,60,0
272.38437,272.5121,68,61,0
272.5121,272.6461,69,62,0
272.6461,272.75775,70,63,0
272.7801,273.55457,70,63,0
273.55457,273.68228,72,57,0
273.68228,273.81003,70,53,0
272.7801,273.81003,67,63,0
273.81003,273.93707,68,55,0
273.93707,274.06448,67,54,0
274.06448,274.19287,72,56,0
274.19287,274.32263,70,53,0
274.32263,274.45343,75,57,0
274.45343,274.58423,74,55,0
274.58423,274.71503,77,61,0
274.71503,274.84583,75,55,0
274.84583,274.9777,80,63,0
274.9777,275.10953,79,59,0
275.10953,275.2414,78,61,0
275.2414,275.37326,79,61,0
275.37326,275.5051,77,61,0
275.5051,275.63696,75,59,0
275.63696,275.76883,74,57,0
275.76883,275.90067,72,55,0
275.90067,276.4281,70,60,0
276.4281,277.48294,69,63,0
277.48294,278.27408,68,63,0
278.27408,278.52954,67,66,0
278.52954,278.785,75,68,0
278.785,279.0552,73,64,0
279.0552,279.31473,71,67,0
279.31473,279.57425,72,64,0
279.57425,279.82574,74,69,0
279.82574,280.0563,75,64,0
280.07727,280.60898,75,70,0
280.60898,281.38138,70,66,0
281.38138,281.51013,72,54,0
281.51013,281.6174,70,50,0
281.63885,281.76758,70,53,0
281.76758,281.89633,68,45,0
281.89633,282.02505,67,51,0
282.02505,282.15378,65,45,0
282.15378,283.20865,63,46,0
283.73605,284.24695,70,46,0
283.73605,284.24695,67,46,0
284.24695,284.75787,70,50,0
284.24695,284.75787,67,50,0
284.75787,285.2983,70,46,0
284.75787,285.2983,67,46,0
285.2983,285.82574,75,54,0
285.82574,286.88058,74,46,0
285.2983,286.88058,68,54,0
286.88058,287.13605,82,50,0
287.13605,287.39148,80,47,0
287.39148,287.64694,79,52,0
287.64694,287.90237,77,47,0
287.90237,288.15784,75,49,0
288.15784,288.41327,74,45,0
288.41327,288.5005,77,54,0
288.5005,289.15448,75,52,0
289.19806,289.32886,74,49,0
289.32886,289.45966,72,45,0
289.45966,289.96106,70,50,0
289.98288,290.4427,70,49,0
289.98288,290.4427,67,49,0
290.49377,290.95358,70,53,0
290.49377,290.95358,67,53,0
291.00467,291.47552,70,49,0
291.00467,291.47552,67,49,0
291.52786,291.78946,75,62,0
291.78946,292.05106,74,55,0
291.52786,292.05106,68,62,0
292.05106,293.09744,84,60,0
293.09744,293.22418,82,50,0
293.22418,293.35092,80,49,0
293.35092,293.47763,84,52,0
293.47763,293.60437,80,49,0
293.60437,293.7311,79,51,0
293.7311,293.85785,77,49,0
293.85785,293.98456,80,51,0
293.98456,294.1113,77,49,0
294.1113,294.23804,75,51,0
294.23804,294.36478,74,49,0
294.36478,294.4915,77,52,0
294.4915,294.61823,74,49,0
294.61823,294.74496,75,54,0
294.74496,294.8717,77,52,0
294.8717,294.9984,75,52,0
294.9984,295.12515,74,52,0
295.12515,295.20898,75,50,0
295.20898,295.29315,76,47,0
295.29315,295.37766,77,50,0
295.37766,295.50537,78,53,0
295.50537,295.63443,79,54,0
295.63443,296.14136,70,50,0
296.14136,296.68634,70,45,0
296.14136,296.68634,67,45,0
296.68634,297.25504,68,47,0
296.68634,297.25504,65,47,0
297.25504,297.8248,67,51,0
297.25504,297.8248,63,51,0
297.84958,298.11188,70,58,0
298.11188,298.37775,69,49,0
298.37775,298.6476,70,53,0
298.6476,298.93195,67,42,0
297.84958,298.93195,63,58,0
298.93195,300.00745,65,38,0
298.93195,300.00745,62,38,0
300.93225,301.0652,70,67,0
301.0652,302.64746,82,73,0
302.64746,302.77933,80,70,0
302.77933,302.91116,79,66,0
302.91116,303.04303,77,70,0
303.04303,303.1749,75,64,0
303.1749,303.7023,74,74,0
303.7023,304.22974,75,72,0
304.22974,304.78397,77,67,0
304.22974,304.78397,74,67,0
304.78397,304.9158,80,69,0
304.9158,305.04767,79,65,0
305.04767,305.17953,77,66,0
305.17953,305.31137,79,65,0
304.78397,305.31137,75,69,0
305.31137,305.8388,80,70,0
305.31137,305.8388,77,70,0
305.8388,306.32928,70,57,0
306.38376,306.87424,70,59,0
306.92874,307.4192,70,59,0
307.4737,309.05597,80,72,0
309.05597,309.1878,82,69,0
309.1878,309.31967,80,65,0
309.31967,309.45154,79,69,0
309.45154,309.5834,77,64,0
309.5834,310.1108,75,73,0
310.1108,310.63824,77,70,0
310.1108,310.63824,74,70,0
310.63824,311.1878,79,71,0
310.63824,311.1878,75,71,0
311.1878,311.3218,82,67,0
311.3218,311.45578,80,63,0
311.45578,311.58978,79,67,0
311.58978,311.7238,80,64,0
311.1878,311.7238,77,67,0
311.7238,311.9918,82,72,0
311.7238,311.9918,79,72,0
313.89468,315.21323,73,83,0
315.21323,315.27917,75,62,0
315.27917,315.3451,73,58,0
315.3451,315.411,72,62,0
315.411,315.47696,73,59,0
315.47696,315.74066,75,67,0
315.74066,316.00436,77,67,0
316.00436,316.26917,75,67,0
316.26917,316.5379,73,60,0
316.5379,316.81,72,67,0
316.81,317.07443,71,61,0
317.09772,318.4377,71,70,0
318.4377,318.70572,72,67,0
318.70572,318.96732,75,69,0
318.96732,319.2289,74,69,0
319.2289,319.48315,77,69,0
319.48315,319.751,75,64,0
319.751,320.00525,74,68,0
320.00525,320.2684,72,61,0
320.2684,320.4796,70,59,0
320.43738,320.6486,71,60,0
320.60635,320.81757,72,62,0
320.77533,320.98654,73,66,0
320.9443,321.15552,74,68,0
321.11328,321.28226,75,69,0
321.28226,321.41412,75,60,0
321.41412,322.33713,63,73,0
322.33713,322.60028,67,59,0
322.60028,322.8755,65,64,0
322.8755,323.13867,63,64,0
323.13867,323.41388,65,59,0
322.33713,323.41388,62,59,0
323.41388,324.48184,63,55,0
325.00928,325.48044,70,75,0
325.00928,325.48044,63,75,0
325.53317,326.00958,70,59,0
325.53317,326.00958,65,80,0
326.06274,326.54474,70,75,0
326.06274,326.54474,67,75,0
326.5988,327.25278,70,80,0
327.25278,327.38358,72,76,0
327.38358,327.51437,70,70,0
327.51437,327.64517,69,69,0
327.64517,327.90677,70,79,0
326.5988,328.16837,68,63,0
328.16837,328.7001,70,74,0
328.16837,328.7001,62,74,0
328.7001,329.2275,72,76,0
328.7001,329.2275,63,76,0
329.2275,329.75073,74,72,0
329.2275,329.75073,65,72,0
329.75073,330.39508,75,81,0
330.39508,330.5238,77,70,0
330.5238,330.65253,79,72,0
330.65253,330.78128,75,66,0
330.78128,331.03873,70,69,0
329.75073,331.2962,63,81,0
331.2962,331.83664,70,52,0
331.2962,331.83664,67,52,0
331.83664,332.37564,68,54,0
331.83664,332.37564,65,54,0
332.37564,332.95953,67,52,0
332.37564,332.95953,63,52,0
332.95953,333.6083,65,57,0
333.6083,333.73807,67,50,0
333.73807,333.86783,68,52,0
333.86783,333.9976,65,50,0
333.9976,334.2571,72,56,0
334.5166,335.04834,65,46,0
334.5166,335.04834,60,46,0
335.04834,335.58008,63,49,0
335.04834,335.58008,58,49,0
335.58008,336.11575,65,46,0
335.58008,336.11575,62,46,0
336.13904,336.9775,65,54,0
336.9775,337.257,66,50,0
336.13904,337.257,62,54,0
337.257,337.81595,67,45,0
337.257,337.81595,63,45,0
337.81595,338.29834,82,76,0
337.81595,338.29834,75,76,0
338.35196,338.83435,82,77,0
338.35196,338.83435,77,77,0
338.88794,339.37036,82,76,0
338.88794,339.37036,79,76,0
339.42395,340.07794,82,81,0
340.07794,340.20874,84,73,0
340.20874,340.33954,82,69,0
340.33954,340.47034,81,70,0
340.47034,340.73193,82,78,0
339.42395,340.9915,80,81,0
340.9915,341.50586,82,76,0
340.9915,341.50586,74,76,0
341.50586,342.04413,84,80,0
341.50586,342.04413,75,80,0
342.04413,342.59604,86,75,0
342.04413,342.59604,77,75,0
342.59604,343.2404,87,86,0
343.2404,343.3691,86,68,0
343.3691,343.49786,87,70,0
343.49786,343.6266,82,66,0
343.6266,343.88406,79,61,0
342.59604,344.1415,75,86,0
344.1415,344.68198,82,54,0
344.1415,344.68198,79,54,0
344.68198,345.22095,80,54,0
344.68198,345.22095,77,54,0
345.22095,345.80484,79,54,0
345.22095,345.80484,75,54,0
345.80484,345.95038,76,51,0
345.95038,346.0942,77,50,0
346.0942,346.23724,79,56,0
346.23724,346.3786,77,55,0
346.3786,346.51913,80,59,0
346.51913,346.65808,79,58,0
346.65808,346.79626,82,62,0
346.79626,346.9329,80,60,0
346.9329,347.98773,84,66,0
347.98773,348.51517,82,59,0
348.94547,349.0889,74,53,0
349.0889,350.1107,75,56,0
350.62158,351.13382,85,69,0
351.13382,351.6522,84,72,0
351.6522,352.1775,86,75,0
352.1775,352.70923,89,81,0
352.70923,353.24094,87,78,0
353.77267,354.31842,73,72,0
354.31842,354.87582,72,74,0
354.87582,355.52985,74,69,0
354.87582,355.52985,68,69,0
355.52985,356.89224,68,59,0
355.52985,356.89224,77,59,0
356.89224,357.57343,75,52,0
356.89224,357.57343,67,52,0
357.57343,358.19623,65,47,0
357.57343,358.19623,62,47,0
358.19623,358.78012,67,52,0
358.19623,358.78012,63,52,0
358.78012,359.40524,68,54,0
358.78012,359.40524,65,54,0
359.40524,360.48166,69,67,0
359.40524,360.48166,66,67,0
360.48166,361.02213,70,62,0
360.48166,361.02213,67,62,0
361.02213,361.56256,73,54,0
361.02213,361.56256,70,54,0
361.56256,362.12152,67,56,0
361.56256,362.12152,64,56,0
362.12152,362.7054,72,51,0
362.12152,362.7054,68,51,0
362.7054,363.833,70,55,0
362.7054,363.833,67,55,0
363.833,364.39682,68,52,0
363.833,364.39682,65,52,0
364.39682,364.87152,77,54,0
364.92426,365.39893,77,54,0
365.4517,365.92636,77,54,0
365.9791,367.04254,78,62,0
367.04254,367.5575,79,56,0
367.5575,368.58734,82,63,0
368.58734,369.11057,76,57,0
369.11057,370.1654,79,64,0
370.1654,370.69284,77,60,0
372.8546,373.35385,80,59,0
373.35385,373.6035,79,61,0
373.6035,373.8531,77,59,0
373.8531,374.0931,75,57,0
374.0931,374.3452,73,57,0
374.3452,374.60266,72,59,0
374.60266,374.86014,73,62,0
374.86014,375.10788,77,66,0
375.10788,375.3556,73,60,0
375.3556,376.40198,72,57,0
376.40198,378.54785,71,47,0
375.3556,378.54785,68,57,0
375.3556,378.54785,62,57,0
379.0796,379.5945,72,53,0
379.5945,379.852,71,56,0
379.852,380.10944,72,58,0
379.0796,380.10944,63,53,0
380.10944,380.36096,74,59,0
380.36096,380.61246,72,56,0
380.61246,380.8667,71,56,0
380.8667,381.12094,72,59,0
380.10944,381.12094,63,50,0
381.12094,381.37244,75,61,0
381.37244,381.64493,74,60,0
381.64493,382.69977,71,66,0
381.12094,382.69977,63,61,0
382.69977,384.81082,72,60,0
382.69977,384.81082,63,60,0
385.31503,385.77847,72,62,0
385.31503,385.77847,63,62,0
385.82996,386.29077,72,64,0
385.82996,386.29077,63,64,0
386.34186,386.80008,72,67,0
386.34186,386.80008,63,67,0
386.85077,387.29507,72,70,0
386.85077,387.29507,63,70,0
387.3454,387.8278,72,72,0
387.3454,387.8278,63,72,0
387.88138,388.53537,73,74,0
388.53537,388.66617,72,62,0
388.66617,388.79697,70,57,0
388.79697,388.92776,68,54,0
388.92776,389.45096,67,66,0
387.88138,389.45096,63,74,0
389.45096,389.96188,79,67,0
389.96188,390.47278,80,67,0
390.47278,391.25565,72,65,0
391.25565,391.50156,70,56,0
391.50156,391.74744,73,60,0
391.74744,392.0447,77,55,0
392.0447,393.62656,68,63,0
393.62656,393.91592,72,55,0
393.91592,394.20526,70,55,0
393.62656,394.20526,67,55,0
394.20526,395.23514,68,46,0
395.75006,396.26096,72,46,0
395.75006,396.26096,68,46,0
396.26096,396.77188,72,49,0
396.26096,396.77188,68,49,0
396.77188,397.3036,72,46,0
396.77188,397.3036,68,46,0
397.3036,397.83102,77,58,0
397.83102,398.8528,76,46,0
397.3036,398.8528,72,58,0
397.3036,398.8528,70,58,0
398.8528,399.3637,72,47,0
398.8528,399.3637,70,47,0
399.3637,399.8746,72,51,0
399.3637,399.8746,70,51,0
399.8746,400.42017,72,47,0
399.8746,400.42017,70,47,0
400.42017,400.9476,79,59,0
400.9476,401.9694,77,51,0
400.42017,401.9694,72,59,0
400.42017,401.9694,68,59,0
401.9694,402.48843,72,51,0
401.9694,402.48843,68,51,0
402.48843,403.01163,72,54,0
402.48843,403.01163,68,54,0
403.01163,403.5673,72,49,0
403.01163,403.5673,68,49,0
403.5673,404.09048,80,64,0
404.09048,405.1286,78,60,0
403.5673,405.1286,72,64,0
403.5673,405.1286,68,64,0
405.1286,405.58484,72,50,0
405.1286,405.58484,68,50,0
405.63553,406.09177,72,55,0
405.63553,406.09177,68,55,0
406.14246,406.5987,72,51,0
406.14246,406.5987,68,51,0
406.64938,407.17682,78,61,0
407.17682,408.1986,76,56,0
406.64938,408.1986,73,61,0
406.64938,408.1986,68,61,0
408.1986,408.7095,76,59,0
408.1986,408.7095,68,59,0
408.7095,409.22855,76,64,0
408.7095,409.22855,68,64,0
409.22855,409.76898,75,59,0
409.22855,409.76898,68,59,0
409.76898,410.57965,75,65,0
410.57965,410.70837,77,52,0
410.70837,410.83713,75,49,0
410.83713,411.35205,74,52,0
409.76898,411.35205,68,65,0
411.35205,411.88806,68,45,0
411.35205,411.88806,62,45,0
411.88806,412.42404,68,47,0
411.88806,412.42404,62,47,0
412.42404,412.96005,68,45,0
412.42404,412.96005,62,45,0
412.96005,414.03204,68,47,0
412.96005,414.03204,62,47,0
414.56805,415.06686,80,39,0
414.56805,415.06686,74,39,0
415.12228,415.62106,80,39,0
415.12228,415.62106,74,39,0
415.67648,416.202,80,39,0
415.67648,416.202,74,39,0
416.26038,416.92102,80,43,0
416.92102,416.99918,82,34,0
416.99918,417.0773,80,36,0
417.0773,417.15546,79,39,0
417.15546,417.23358,80,41,0
417.23358,417.40408,82,40,0
417.40408,417.5746,84,37,0
416.26038,417.5746,74,43,0
417.5746,417.8426,82,43,0
417.8426,418.1106,80,40,0
418.1106,418.37857,79,44,0
418.37857,418.64658,77,44,0
418.64658,418.91245,75,46,0
418.91245,419.1823,74,44,0
419.1823,419.46103,72,44,0
419.46103,419.74924,70,44,0
419.77762,420.5687,70,46,0
420.56656,420.69476,72,46,0
420.69476,420.82297,70,46,0
419.77762,420.82513,67,46,0
420.82297,421.33792,68,44,0
420.82297,421.33792,65,44,0
421.33792,421.84537,67,42,0
421.33792,421.84537,63,42,0
421.84537,422.3728,72,43,0
421.84537,422.3728,68,43,0
422.3728,422.88647,70,41,0
422.3728,422.88647,67,41,0
422.9088,423.6692,70,45,0
423.6692,423.79593,72,42,0
423.79593,423.92267,70,42,0
422.9088,423.92267,67,45,0
423.92267,424.96072,68,47,0
424.96072,426.2583,67,47,0
426.2583,426.51782,64,44,0
426.51782,426.77698,65,45,0
426.77698,427.03445,67,46,0
427.03445,427.29092,68,49,0
427.29092,427.54636,69,51,0
427.54636,427.8005,70,52,0
427.8005,428.05396,71,54,0
428.05396,428.1807,74,56,0
428.1807,428.30774,72,54,0
428.30774,428.4355,71,52,0
428.4355,428.56387,72,54,0
428.56387,428.6926,70,52,0
428.6926,428.82236,68,49,0
428.82236,428.95245,67,51,0
428.95245,429.08328,65,50,0
429.08328,430.13812,63,54,0
429.08328,430.13812,55,54,0
430.13812,430.26926,62,47,0
430.13812,430.26926,53,47,0
430.26926,430.40005,58,49,0
430.40005,430.53085,57,50,0
430.53085,430.66168,58,51,0
430.66168,430.79178,59,52,0
430.79178,430.92154,60,53,0
430.92154,431.0513,61,54,0
431.0513,431.18103,62,54,0
431.18103,431.31012,63,55,0
431.31012,431.43884,64,56,0
431.43884,431.5676,65,57,0
431.5676,431.69632,66,59,0
431.69632,431.82437,67,60,0
431.82437,431.95212,68,61,0
431.95212,432.08612,69,62,0
432.08612,432.19778,70,63,0
432.2201,432.9946,70,63,0
432.9946,433.1223,72,57,0
433.1223,433.25003,70,53,0
432.2201,433.25003,67,63,0
433.25003,433.3771,68,55,0
433.3771,433.5045,67,54,0
433.5045,433.6329,72,56,0
433.6329,433.76263,70,53,0
433.76263,433.89343,75,57,0
433.89343,434.02423,74,55,0
434.02423,434.15503,77,61,0
434.15503,434.28583,75,55,0
434.28583,434.4177,80,63,0
434.4177,434.54956,79,59,0
434.54956,434.68143,78,61,0
434.68143,434.81326,79,61,0
434.81326,434.94513,77,61,0
434.94513,435.077,75,59,0
435.077,435.20883,74,57,0
435.20883,435.3407,72,55,0
435.3407,435.8408,70,60,0
435.8408,436.89877,69,63,0
436.89877,437.70248,68,63,0
437.70248,437.95795,67,66,0
437.95795,438.21338,75,68,0
438.21338,438.4912,73,64,0
438.4912,438.75073,71,67,0
438.75073,439.01025,72,64,0
439.01025,439.26175,74,69,0
439.26175,439.4923,75,64,0
439.51328,440.04498,75,70,0
440.04498,440.81738,70,66,0
440.81738,440.94614,72,54,0
440.94614,441.0534,70,50,0
441.07486,441.20358,70,53,0
441.20358,441.33234,68,45,0
441.33234,441.46106,67,51,0
441.46106,441.58978,65,45,0
441.58978,442.64465,63,46,0
443.17206,443.68298,70,46,0
443.17206,443.68298,67,46,0
443.68298,444.19388,70,50,0
443.68298,444.19388,67,50,0
444.19388,444.7343,70,46,0
444.19388,444.7343,67,46,0
444.7343,445.26175,75,54,0
445.26175,446.3166,74,46,0
444.7343,446.3166,68,54,0
446.3166,446.57205,82,50,0
446.57205,446.82748,80,47,0
446.82748,447.08295,79,52,0
447.08295,447.33838,77,47,0
447.33838,447.59384,75,49,0
447.59384,447.84927,74,45,0
447.84927,447.9355,77,54,0
447.9355,448.58392,75,52,0
448.6274,448.75784,74,49,0
448.75784,448.88828,72,45,0
448.88828,449.38828,70,50,0
449.41,449.8698,70,49,0
449.41,449.8698,67,49,0
449.9209,450.3807,70,53,0
449.9209,450.3807,67,53,0
450.4318,450.90268,70,49,0
450.4318,450.90268,67,49,0
450.955,451.205,75,62,0
451.205,451.46362,74,55,0
450.955,451.46362,68,62,0
451.46362,452.4981,84,60,0
452.4981,452.62485,82,50,0
452.62485,452.75156,80,49,0
452.75156,452.8783,84,52,0
452.8783,453.00504,80,49,0
453.00504,453.13177,79,51,0
453.13177,453.25848,77,49,0
453.25848,453.38522,80,51,0
453.38522,453.51196,77,49,0
453.51196,453.6387,75,51,0
453.6387,453.7654,74,49,0
453.7654,453.89215,77,52,0
453.89215,454.0189,74,49,0
454.0189,454.14563,75,54,0
454.14563,454.27234,77,52,0
454.27234,454.39908,75,52,0
454.39908,454.52582,74,52,0
454.52582,454.60965,75,50,0
454.60965,454.69382,76,47,0
454.69382,454.7783,77,50,0
454.7783,454.90604,78,53,0
454.90604,455.0351,79,54,0
455.0351,455.54202,70,50,0
455.54202,456.08698,70,45,0
455.54202,456.08698,67,45,0
456.08698,456.6557,68,47,0
456.08698,456.6557,65,47,0
456.6557,457.24255,67,51,0
456.6557,457.24255,63,51,0
457.26807,457.53036,70,58,0
457.53036,457.79623,69,49,0
457.79623,458.0661,70,53,0
458.0661,458.35046,67,42,0
457.26807,458.35046,63,58,0
458.35046,459.42596,65,38,0
458.35046,459.42596,62,38,0
460.346,460.4742,70,67,0
460.4742,462.0565,82,73,0
462.0565,462.18835,80,70,0
462.18835,462.32022,79,66,0
462.32022,462.45206,77,70,0
462.45206,462.58392,75,64,0
462.58392,463.11136,74,74,0
463.11136,463.6388,75,72,0
463.6388,464.18137,77,67,0
463.6388,464.18137,74,67,0
464.18137,464.31323,80,69,0
464.31323,464.4451,79,65,0
464.4451,464.57693,77,66,0
464.57693,464.7088,79,65,0
464.18137,464.7088,75,69,0
464.7088,465.23624,80,70,0
464.7088,465.23624,77,70,0
465.23624,465.72668,70,57,0
465.7812,466.27164,70,59,0
466.32614,466.81662,70,59,0
466.8711,468.4534,80,72,0
468.4534,468.58524,82,69,0
468.58524,468.7171,80,65,0
468.7171,468.84897,79,69,0
468.84897,468.9808,77,64,0
468.9808,469.50824,75,73,0
469.50824,470.03568,77,70,0
469.50824,470.03568,74,70,0
470.03568,470.5736,79,71,0
470.03568,470.5736,75,71,0
470.5736,470.7076,82,67,0
470.7076,470.84158,80,63,0
470.84158,470.9756,79,67,0
470.9756,471.1096,80,64,0
470.5736,471.1096,77,67,0
471.1096,471.3776,82,72,0
471.1096,471.3776,79,72,0
473.2805,474.59903,73,83,0
474.59903,474.66498,75,62,0
474.66498,474.7309,73,58,0
474.7309,474.7968,72,62,0
474.7968,474.86276,73,59,0
474.86276,475.12592,75,67,0
475.12592,475.38916,77,67,0
475.38916,475.65396,75,67,0
475.65396,475.9227,73,60,0
475.9227,476.1948,72,67,0
476.1948,476.4592,71,61,0
476.4825,477.8225,71,70,0
477.8225,478.0905,72,67,0
478.0905,478.3521,75,69,0
478.3521,478.6137,74,69,0
478.6137,478.87012,77,69,0
478.87012,479.13797,75,64,0
479.13797,479.39658,74,68,0
479.39658,479.66446,72,61,0
479.66446,479.87634,70,59,0
479.83395,480.04587,71,60,0
480.00348,480.21335,72,62,0
480.173,480.37466,73,66,0
480.33432,480.54895,74,68,0
480.50427,480.6829,75,69,0
480.6829,480.81476,75,60,0
480.81476,481.73773,63,73,0
481.73773,481.99197,67,59,0
481.99197,482.2647,65,64,0
482.2647,482.52332,63,64,0
482.52332,482.79855,65,59,0
481.73773,482.79855,62,59,0
482.79855,483.86652,63,55,0
484.39395,484.8651,70,75,0
484.39395,484.8651,63,75,0
484.91785,485.39426,70,59,0
484.91785,485.39426,65,80,0
485.44742,485.9294,70,75,0
485.44742,485.9294,67,75,0
485.98346,486.63745,70,80,0
486.63745,486.76825,72,76,0
486.76825,486.89905,70,70,0
486.89905,487.02985,69,69,0
487.02985,487.29144,70,79,0
485.98346,487.55304,68,63,0
487.55304,488.08478,70,74,0
487.55304,488.08478,62,74,0
488.08478,488.61218,72,76,0
488.08478,488.61218,63,76,0
488.61218,489.13538,74,72,0
488.61218,489.13538,65,72,0
489.13538,489.77496,75,81,0
489.77496,489.89893,77,70,0
489.89893,490.02505,79,72,0
490.02505,490.1555,75,66,0
490.1555,490.4119,70,69,0
489.13538,490.6683,63,81,0
490.6683,491.20877,70,52,0
490.6683,491.20877,67,52,0
491.20877,491.74774,68,54,0
491.20877,491.74774,65,54,0
491.74774,492.33163,67,52,0
491.74774,492.33163,63,52,0
492.33163,492.9804,65,57,0
492.9804,493.11017,67,50,0
493.11017,493.23993,68,52,0
493.23993,493.3697,65,50,0
493.3697,493.6292,72,56,0
493.88873,494.42044,65,46,0
493.88873,494.42044,60,46,0
494.42044,494.95218,63,49,0
494.42044,494.95218,58,49,0
494.95218,495.48785,65,46,0
494.95218,495.48785,62,46,0
495.51114,496.3496,65,54,0
496.3496,496.6291,66,50,0
495.51114,496.6291,62,54,0
496.6291,497.18805,67,45,0
496.6291,497.18805,63,45,0
497.18805,497.67047,82,76,0
497.18805,497.67047,75,76,0
497.72406,498.20645,82,77,0
497.72406,498.20645,77,77,0
498.26007,498.74246,82,76,0
498.26007,498.74246,79,76,0
498.79608,499.45007,82,81,0
499.45007,499.58087,84,73,0
499.58087,499.71167,82,69,0
499.71167,499.84247,81,70,0
499.84247,500.10406,82,78,0
498.79608,500.36362,80,81,0
500.36362,500.87796,82,76,0
500.36362,500.87796,74,76,0
500.87796,501.41623,84,80,0
500.87796,501.41623,75,80,0
501.41623,501.96814,86,75,0
501.41623,501.96814,77,75,0
501.96814,502.60876,87,86,0
502.60876,502.73376,86,68,0
502.73376,502.86652,87,70,0
502.86652,502.99924,82,66,0
502.99924,503.25568,79,61,0
501.96814,503.5121,75,86,0
503.5121,504.05252,82,54,0
503.5121,504.05252,79,54,0
504.05252,504.5915,80,54,0
504.05252,504.5915,77,54,0
504.5915,505.17538,79,54,0
504.5915,505.17538,75,54,0
505.17538,505.32092,76,51,0
505.32092,505.46478,77,50,0
505.46478,505.6078,79,56,0
505.6078,505.74915,77,55,0
505.74915,505.8897,80,59,0
505.8897,506.02866,79,58,0
506.02866,506.1668,82,62,0
506.1668,506.30344,80,60,0
506.30344,507.35828,84,66,0
507.35828,507.8857,82,59,0
508.316,508.45944,74,53,0
508.45944,509.48123,75,56,0
509.99213,510.5044,85,69,0
510.5044,511.02274,84,72,0
511.02274,511.54807,86,75,0
511.54807,512.0798,89,81,0
512.0798,512.6115,87,78,0
513.14325,513.68896,73,72,0
513.68896,514.2464,72,74,0
514.2464,514.9004,74,69,0
514.2464,514.9004,68,69,0
514.9004,516.20844,68,54,0
514.9004,516.20844,77,54,0
516.20844,516.8624,75,42,0
516.20844,516.8624,67,42,0
516.8624,517.54443,65,41,0
516.8624,517.54443,62,41,0
517.54443,518.18286,67,46,0
517.54443,518.18286,63,46,0
518.18286,519.0402,68,45,0
518.18286,519.0402,65,45,0
519.0402,521.7075,68,37,0
519.0402,521.7075,65,37,0
519.0402,521.7075,62,34,0
521.7075,522.3743,67,36,0
521.7075,522.3743,63,36,0
0.0021976084,2.1117842,51,51,0
3.153914,4.16777,51,50,0
4.16777,5.166272,53,46,0
5.166272,6.212662,55,45,0
6.212662,7.242528,61,55,0
6.212662,7.242528,58,55,0
7.242528,8.280853,56,51,0
7.242528,8.280853,60,51,0
9.302651,9.570652,45,47,0
9.570652,9.838653,46,50,0
9.838653,10.106653,48,53,0
10.106653,10.352321,46,51,0
10.374654,11.426685,46,49,0
12.466841,13.521692,51,53,0
12.466841,13.521692,39,53,0
14.594058,15.64891,60,49,0
14.594058,15.64891,51,49,0
15.64891,16.720913,53,53,0
15.64891,16.720913,60,53,0
16.720913,17.707201,62,50,0
16.720913,17.707201,58,50,0
17.707201,18.236269,63,49,0
17.707201,18.236269,60,49,0
18.767994,20.025045,56,54,0
18.767994,20.025045,44,54,0
20.025045,21.214106,55,50,0
21.214106,22.419884,56,40,0
20.025045,22.419884,46,50,0
22.419884,22.683596,51,32,0
22.683596,22.94731,55,32,0
22.94731,23.211021,58,30,0
23.211021,23.474735,55,27,0
23.474735,23.738447,51,33,0
23.738447,24.002161,55,29,0
24.002161,24.25761,58,31,0
24.25761,24.51306,55,29,0
24.51306,24.768509,51,33,0
24.768509,25.023958,55,29,0
25.023958,25.29418,58,31,0
25.29418,25.564402,55,29,0
25.564402,25.828115,51,36,0
25.828115,26.091827,53,27,0
26.091827,26.355541,56,30,0
26.355541,26.619253,53,27,0
26.619253,26.882967,51,32,0
26.882967,27.14668,53,27,0
27.14668,27.40213,56,30,0
27.40213,27.65758,53,27,0
27.65758,27.913029,51,32,0
27.913029,28.168478,53,27,0
28.168478,28.423927,56,30,0
28.423927,28.679377,53,27,0
28.679377,28.940975,51,33,0
28.940975,29.202572,55,27,0
29.202572,29.464169,58,30,0
29.464169,29.725767,55,27,0
29.725767,29.987364,51,29,0
29.987364,30.248962,55,27,0
30.248962,30.504412,58,30,0
30.504412,30.759861,55,27,0
30.759861,31.01531,51,29,0
31.01531,31.27076,55,27,0
31.27076,31.532358,58,30,0
31.532358,31.793955,55,27,0
31.793955,32.055553,51,35,0
32.055553,32.31715,53,29,0
32.31715,32.578747,56,30,0
32.578747,32.840343,53,29,0
32.840343,33.101944,51,32,0
33.101944,33.36354,53,27,0
33.36354,33.617004,56,27,0
33.617004,33.87047,53,27,0
33.87047,34.12393,51,32,0
34.12393,34.377396,53,27,0
34.377396,34.63086,56,27,0
34.63086,34.884323,53,27,0
34.884323,35.89818,51,27,0
34.884323,35.89818,55,27,0
36.40511,36.950066,55,32,0
36.40511,36.950066,58,32,0
36.950066,37.518787,60,34,0
36.950066,37.518787,56,34,0
37.518787,38.141582,60,35,0
37.518787,38.141582,57,35,0
38.141582,39.279022,58,37,0
39.847744,40.39195,58,46,0
40.39195,40.930172,53,46,0
40.930172,41.46332,50,46,0
41.46332,41.99075,46,53,0
41.99075,42.518177,50,45,0
42.518177,43.0456,53,47,0
43.0456,43.57303,58,45,0
43.57303,44.100452,63,51,0
44.100452,44.62788,62,47,0
43.57303,44.62788,65,51,0
44.62788,45.182102,60,51,0
44.62788,45.182102,63,51,0
45.182102,45.709526,58,47,0
45.182102,45.709526,62,47,0
45.709526,46.236954,57,47,0
45.709526,46.236954,60,47,0
48.399258,48.92668,53,45,0
48.92668,49.45411,57,45,0
49.45411,49.981533,60,45,0
49.981533,50.50896,62,50,0
50.50896,51.036385,63,45,0
51.036385,51.585938,62,51,0
50.50896,51.585938,65,45,0
51.585938,52.121937,63,45,0
51.585938,52.121937,60,45,0
52.121937,52.65794,58,50,0
52.121937,52.65794,62,50,0
52.65794,53.148403,46,54,0
53.2029,53.693363,46,57,0
53.74786,54.23832,46,54,0
54.820244,55.347668,50,54,0
55.347668,55.875095,53,56,0
55.875095,56.40252,56,52,0
56.40252,56.961494,55,56,0
56.961494,57.253433,50,53,0
58.08138,58.617382,51,53,0
58.08138,58.617382,58,53,0
58.617382,59.15338,51,53,0
58.617382,59.15338,58,53,0
59.15338,59.67097,51,55,0
59.15338,59.67097,59,55,0
59.67097,60.190693,60,55,0
59.67097,60.190693,51,55,0
60.190693,60.69917,51,53,0
60.190693,60.69917,57,53,0
60.69917,61.2141,50,54,0
60.69917,61.2141,58,54,0
61.2141,61.755566,58,50,0
61.2141,61.755566,51,50,0
61.755566,62.282993,62,50,0
61.755566,62.282993,53,50,0
62.282993,62.810417,53,46,0
62.282993,62.810417,62,46,0
62.810417,63.346516,53,42,0
62.810417,63.346516,63,42,0
63.346516,63.882404,53,42,0
63.346516,63.882404,63,42,0
63.882404,64.14789,58,45,0
63.882404,64.14789,62,45,0
64.14789,64.413376,58,50,0
64.413376,64.677086,62,54,0
64.677086,64.9408,65,57,0
64.9408,65.20451,63,63,0
65.20451,65.46823,65,54,0
65.46823,65.72983,62,63,0
65.72983,65.99213,65,54,0
65.99213,66.255844,60,63,0
66.255844,66.521706,65,56,0
66.521706,66.788994,58,63,0
66.788994,67.05773,65,55,0
67.05773,67.31933,57,63,0
67.31933,67.580925,60,53,0
67.580925,67.84253,63,56,0
67.84253,68.104126,62,53,0
68.104126,68.36572,60,61,0
68.36572,68.62732,58,54,0
68.62732,68.89318,57,56,0
68.89318,69.15904,55,54,0
69.15904,69.42276,53,56,0
69.42276,69.68647,55,54,0
69.68647,69.94807,51,56,0
69.94807,70.20966,53,54,0
70.20966,70.46782,50,61,0
70.46782,70.72528,53,52,0
70.72528,70.98275,58,54,0
70.98275,71.24021,53,51,0
71.24021,71.49768,62,57,0
71.75515,72.29559,62,41,0
71.75515,72.29559,58,41,0
72.29559,72.83458,63,43,0
72.29559,72.83458,60,43,0
72.83458,73.418465,62,39,0
72.83458,73.418465,65,39,0
73.418465,74.45653,63,46,0
73.418465,74.45653,67,46,0
74.97556,75.507286,51,41,0
74.97556,75.507286,60,41,0
75.507286,76.03901,62,43,0
76.03901,76.597984,63,42,0
75.507286,76.597984,53,43,0
76.597984,77.71593,63,45,0
77.71593,77.995415,62,35,0
76.597984,77.995415,58,45,0
77.995415,78.274895,58,51,0
78.274895,78.5429,62,54,0
78.5429,78.8109,65,51,0
78.8109,79.0789,63,57,0
79.0789,79.3469,62,54,0
79.3469,79.6149,60,55,0
79.6149,79.882904,58,53,0
79.882904,80.1445,57,63,0
80.1445,80.4061,60,54,0
80.4061,80.667694,63,56,0
80.667694,80.92929,62,54,0
80.92929,81.19089,60,61,0
81.19089,81.45044,58,54,0
81.45044,81.70589,57,56,0
81.70589,81.964806,55,54,0
81.964806,82.23209,53,56,0
82.23209,82.503075,55,54,0
82.503075,82.777084,51,56,0
82.777084,83.054985,53,54,0
83.054985,83.31313,50,61,0
83.31313,83.5706,53,46,0
83.5706,83.828064,58,51,0
83.828064,84.08553,53,45,0
84.08553,84.343,62,50,0
84.600464,85.14091,62,41,0
84.600464,85.14091,58,41,0
85.14091,85.6799,63,43,0
85.14091,85.6799,60,43,0
85.6799,86.26379,62,42,0
85.6799,86.26379,65,42,0
86.26379,87.39183,67,43,0
86.26379,87.39183,63,43,0
88.446686,88.97411,57,43,0
88.97411,89.54784,60,43,0
88.446686,89.54784,53,43,0
88.446686,89.54784,63,43,0
89.54784,89.80328,58,43,0
89.80328,90.05873,62,39,0
90.05873,90.31418,65,40,0
90.31418,90.56963,62,42,0
90.56963,90.82508,58,46,0
90.82508,91.08053,62,44,0
91.08053,91.33598,65,45,0
91.33598,91.59277,62,46,0
91.59277,91.85092,63,53,0
91.85092,92.11113,60,50,0
92.11113,92.372734,65,51,0
92.372734,92.636444,63,53,0
92.636444,92.902306,62,56,0
92.902306,93.16817,65,51,0
93.16817,93.43404,62,53,0
93.43404,93.6999,60,50,0
93.6999,93.96576,58,64,0
93.96576,94.23162,56,56,0
94.23162,94.50335,53,59,0
94.50335,94.77736,50,56,0
94.77736,95.054474,51,64,0
95.054474,95.33476,48,59,0
95.33476,95.66177,53,64,0
95.66177,95.988785,41,54,0
95.988785,98.03238,46,46,0
98.03238,98.655174,56,42,0
98.655174,99.23906,55,45,0
99.23906,99.87398,53,49,0
99.87618,101.98576,51,51,0
103.02789,104.04175,51,50,0
104.04175,105.04025,53,46,0
105.04025,106.08665,55,45,0
106.08665,107.11651,61,55,0
106.08665,107.11651,58,55,0
107.11651,108.15483,56,51,0
107.11651,108.15483,60,51,0
109.176636,109.44463,45,47,0
109.44463,109.71263,46,50,0
109.71263,109.98064,48,53,0
109.98064,110.2263,46,51,0
110.248634,111.30067,46,49,0
112.34082,113.395676,51,53,0
112.34082,113.395676,39,53,0
114.46804,115.52289,60,49,0
114.46804,115.52289,51,49,0
115.52289,116.594894,53,53,0
115.52289,116.594894,60,53,0
116.594894,117.64974,62,50,0
116.594894,117.64974,58,50,0
117.64974,118.19272,63,49,0
117.64974,118.19272,60,49,0
118.72445,119.98009,56,54,0
118.72445,119.98009,44,54,0
119.98009,121.16914,55,50,0
121.16914,122.35743,56,40,0
119.98009,122.35743,46,50,0
122.35743,122.62114,51,32,0
122.62114,122.88485,55,32,0
122.88485,123.14857,58,30,0
123.14857,123.41228,55,27,0
123.41228,123.675995,51,33,0
123.675995,123.939705,55,29,0
123.939705,124.19515,58,31,0
124.19515,124.4506,55,29,0
124.4506,124.706055,51,33,0
124.706055,124.9615,55,29,0
124.9615,125.23172,58,31,0
125.23172,125.501945,55,29,0
125.501945,125.765656,51,36,0
125.765656,126.02937,53,27,0
126.02937,126.29308,56,30,0
126.29308,126.5568,53,27,0
126.5568,126.82051,51,32,0
126.82051,127.08422,53,27,0
127.08422,127.339676,56,30,0
127.339676,127.59512,53,27,0
127.59512,127.85057,51,32,0
127.85057,128.10602,53,27,0
128.10602,128.36147,56,30,0
128.36147,128.61691,53,27,0
128.61691,128.87852,51,33,0
128.87852,129.14012,55,27,0
129.14012,129.40172,58,30,0
129.40172,129.66331,55,27,0
129.66331,129.92491,51,29,0
129.92491,130.18651,55,27,0
130.18651,130.44196,58,30,0
130.44196,130.6974,55,27,0
130.6974,130.95285,51,29,0
130.95285,131.2083,55,27,0
131.2083,131.4699,58,30,0
131.4699,131.73149,55,27,0
131.73149,131.9931,51,35,0
131.9931,132.2547,53,29,0
132.2547,132.5163,56,30,0
132.5163,132.7779,53,29,0
132.7779,133.03949,51,32,0
133.03949,133.30109,53,27,0
133.30109,133.55455,56,27,0
133.55455,133.80801,53,27,0
133.80801,134.06148,51,32,0
134.06148,134.31494,53,27,0
134.31494,134.5684,56,27,0
134.5684,134.82187,53,27,0
134.82187,135.83572,51,27,0
134.82187,135.83572,55,27,0
136.34265,136.86906,55,32,0
136.34265,136.86906,58,32,0
136.86906,137.45741,60,34,0
136.86906,137.45741,56,34,0
137.45741,138.0802,60,35,0
137.45741,138.0802,57,35,0
138.0802,139.21765,58,37,0
139.78636,140.33057,58,46,0
140.33057,140.86879,53,46,0
140.86879,141.40195,50,46,0
141.40195,141.92937,46,53,0
141.92937,142.4568,50,45,0
142.4568,142.98422,53,47,0
142.98422,143.51164,58,45,0
143.51164,144.03908,63,51,0
144.03908,144.5665,62,47,0
143.51164,144.5665,65,51,0
144.5665,145.12073,60,51,0
144.5665,145.12073,63,51,0
145.12073,145.64815,58,47,0
145.12073,145.64815,62,47,0
145.64815,146.17557,57,47,0
145.64815,146.17557,60,47,0
148.33788,148.86531,53,45,0
148.86531,149.39273,57,45,0
149.39273,149.92015,60,45,0
149.92015,150.44759,62,50,0
150.44759,150.975,63,45,0
150.975,151.52457,62,51,0
150.44759,151.52457,65,45,0
151.52457,152.06056,63,45,0
151.52457,152.06056,60,45,0
152.06056,152.59656,58,50,0
152.06056,152.59656,62,50,0
152.59656,153.08702,46,54,0
153.14153,153.63199,46,57,0
153.68648,154.17694,46,54,0
154.75887,155.28629,50,54,0
155.28629,155.81372,53,56,0
155.81372,156.34114,56,52,0
156.34114,156.90012,55,56,0
156.90012,157.19206,50,53,0
158.02,158.556,51,53,0
158.02,158.556,58,53,0
158.556,159.09201,51,53,0
158.556,159.09201,58,53,0
159.09201,159.60959,51,55,0
159.09201,159.60959,59,55,0
159.60959,160.12932,60,55,0
159.60959,160.12932,51,55,0
160.12932,160.63779,51,53,0
160.12932,160.63779,57,53,0
160.63779,161.15273,50,54,0
160.63779,161.15273,58,54,0
161.15273,161.69418,58,50,0
161.15273,161.69418,51,50,0
161.69418,162.22162,62,50,0
161.69418,162.22162,53,50,0
162.22162,162.74904,53,46,0
162.22162,162.74904,62,46,0
162.74904,163.28514,53,42,0
162.74904,163.28514,63,42,0
163.28514,163.82103,53,42,0
163.28514,163.82103,63,42,0
163.82103,164.08652,58,45,0
163.82103,164.08652,62,45,0
164.08652,164.352,58,50,0
164.352,164.6157,62,54,0
164.6157,164.87943,65,57,0
164.87943,165.14314,63,63,0
165.14314,165.40685,65,54,0
165.40685,165.66844,62,63,0
165.66844,165.93076,65,54,0
165.93076,166.19446,60,63,0
166.19446,166.46033,65,56,0
166.46033,166.72762,58,63,0
166.72762,166.99635,65,55,0
166.99635,167.25795,57,63,0
167.25795,167.51955,60,53,0
167.51955,167.78114,63,56,0
167.78114,168.04274,62,53,0
168.04274,168.30434,60,61,0
168.30434,168.56595,58,54,0
168.56595,168.8318,57,56,0
168.8318,169.09767,55,54,0
169.09767,169.36137,53,56,0
169.36137,169.62509,55,54,0
169.62509,169.88669,51,56,0
169.88669,170.14828,53,54,0
170.14828,170.40643,50,61,0
170.40643,170.66391,53,52,0
170.66391,170.92137,58,54,0
170.92137,171.17883,53,51,0
171.17883,171.43631,62,57,0
171.69377,172.2342,62,41,0
171.69377,172.2342,58,41,0
172.2342,172.77321,63,43,0
172.2342,172.77321,60,43,0
172.77321,173.35709,62,39,0
172.77321,173.35709,65,39,0
173.35709,174.39516,63,46,0
173.35709,174.39516,67,46,0
174.91418,175.4459,51,41,0
174.91418,175.4459,60,41,0
175.4459,175.97763,62,43,0
175.97763,176.5366,63,42,0
175.4459,176.5366,53,43,0
176.5366,177.65456,63,45,0
177.65456,177.93404,62,35,0
176.5366,177.93404,58,45,0
177.93404,178.21352,58,51,0
178.21352,178.48152,62,54,0
178.48152,178.74953,65,51,0
178.74953,179.01752,63,57,0
179.01752,179.28552,62,54,0
179.28552,179.55353,60,55,0
179.55353,179.82152,58,53,0
179.82152,180.08313,57,63,0
180.08313,180.34473,60,54,0
180.34473,180.60632,63,56,0
180.60632,180.86792,62,54,0
180.86792,181.12952,60,61,0
181.12952,181.38905,58,54,0
181.38905,181.64452,57,56,0
181.64452,181.90343,55,54,0
181.90343,182.17072,53,56,0
182.17072,182.4417,55,54,0
182.4417,182.7157,51,56,0
182.7157,182.9936,53,54,0
182.9936,183.25175,50,61,0
183.25175,183.50922,53,46,0
183.50922,183.7667,58,51,0
183.7667,184.00482,53,45,0
184.00482,184.27272,62,50,0
184.54063,185.08107,62,41,0
184.54063,185.08107,58,41,0
185.08107,185.62007,63,43,0
185.08107,185.62007,60,43,0
185.62007,186.20395,62,42,0
185.62007,186.20395,65,42,0
186.20395,187.332,67,43,0
186.20395,187.332,63,43,0
188.38686,188.91428,57,43,0
188.91428,189.488,60,43,0
188.38686,189.488,53,43,0
188.38686,189.488,63,43,0
189.488,189.74345,58,43,0
189.74345,189.9989,62,39,0
189.9989,190.25435,65,40,0
190.25435,190.5098,62,42,0
190.5098,190.76524,58,46,0
190.76524,191.02069,62,44,0
191.02069,191.27614,65,45,0
191.27614,191.53294,62,46,0
191.53294,191.79109,63,53,0
191.79109,192.0513,60,50,0
192.0513,192.3129,65,51,0
192.3129,192.57661,63,53,0
192.57661,192.84247,62,56,0
192.84247,193.10834,65,51,0
193.10834,193.3742,62,53,0
193.3742,193.64006,60,50,0
193.64006,193.90593,58,64,0
193.90593,194.17178,56,56,0
194.17178,194.44351,53,59,0
194.44351,194.71753,50,56,0
194.71753,194.99464,51,64,0
194.99464,195.27493,48,59,0
195.27493,195.60194,53,64,0
195.60194,195.92896,41,54,0
195.92896,197.97255,46,46,0
197.97255,198.59534,56,42,0
198.59534,199.17923,55,45,0
199.17923,199.83154,53,49,0
199.83154,202.16269,52,56,0
202.16269,203.30554,48,46,0
203.30554,205.52438,49,53,0
205.52438,206.57924,56,43,0
205.52438,206.57924,60,43,0
206.57924,207.64268,61,43,0
206.57924,207.64268,58,43,0
208.67255,209.71068,70,43,0
208.67255,209.71068,60,43,0
209.71068,210.76553,70,43,0
210.76553,211.29295,68,36,0
209.71068,211.29295,65,43,0
211.29295,211.77936,41,45,0
211.8334,212.3198,41,46,0
212.37384,212.86024,41,44,0
212.91429,215.95572,41,52,0
215.95572,217.52531,41,42,0
217.52531,218.00386,41,45,0
218.05704,218.53558,41,46,0
218.58876,219.10062,41,45,0
219.15749,222.26102,42,54,0
222.26102,223.84329,43,49,0
223.84329,224.31042,43,48,0
224.36232,224.82945,43,50,0
224.88136,225.34848,43,47,0
225.40039,227.45517,44,55,0
227.45517,228.49713,45,62,0
228.49713,229.54352,46,62,0
229.54352,230.5776,49,48,0
230.5776,231.61594,48,54,0
231.61594,232.67955,49,44,0
232.67955,233.72594,60,43,0
232.67955,233.72594,51,43,0
233.72594,234.8496,61,36,0
233.72594,234.8496,51,36,0
234.8496,235.10707,56,33,0
235.10707,235.36453,60,26,0
235.36453,235.622,63,27,0
235.622,235.87947,60,25,0
235.87947,236.13693,56,30,0
236.13693,236.3944,60,26,0
236.3944,236.64984,63,29,0
236.64984,236.9053,60,26,0
236.9053,237.16075,56,33,0
237.16075,237.4162,60,27,0
237.4162,237.68205,63,29,0
237.68205,237.94792,60,27,0
237.94792,238.21164,55,36,0
238.21164,238.47534,58,26,0
238.47534,238.7308,60,27,0
238.7308,238.98625,58,26,0
238.98625,239.2417,55,32,0
239.2417,239.49715,58,26,0
239.49715,239.7526,60,27,0
239.7526,240.00804,58,25,0
240.00804,240.26349,55,32,0
240.26349,240.51895,58,27,0
240.51895,240.7744,60,27,0
240.7744,241.02985,58,25,0
241.02985,241.29356,53,36,0
241.29356,241.55727,56,27,0
241.55727,241.81271,60,30,0
241.81271,242.06818,56,27,0
242.06818,242.32362,53,32,0
242.32362,242.57907,56,26,0
242.57907,242.83858,60,27,0
242.83858,243.0981,56,26,0
243.0981,243.3597,53,32,0
243.3597,243.62129,56,27,0
243.62129,243.89151,60,29,0
243.89151,244.16174,56,27,0
244.16174,244.42334,51,36,0
244.42334,244.68494,54,30,0
244.68494,244.94653,56,32,0
244.94653,245.20813,54,29,0
245.20813,245.46559,51,36,0
245.46559,245.72305,54,29,0
245.72305,245.97652,56,32,0
245.97652,246.22998,54,29,0
246.22998,246.48346,51,35,0
246.48346,246.73692,54,29,0
246.73692,246.99039,56,31,0
246.99039,247.24385,54,27,0
247.24385,247.50755,49,40,0
247.50755,247.77127,52,34,0
247.77127,248.02672,56,36,0
248.02672,248.28217,52,33,0
248.28217,248.53761,49,40,0
248.53761,248.79308,52,33,0
248.79308,249.04852,56,36,0
249.04852,249.30397,52,33,0
249.30397,249.56348,47,39,0
249.56348,249.823,51,34,0
249.823,250.09322,56,36,0
250.09322,250.36343,51,33,0
250.36343,251.9465,53,36,0
250.36343,251.9465,46,36,0
251.9465,252.48251,53,29,0
251.9465,252.48251,46,29,0
252.48251,253.01851,53,32,0
252.48251,253.01851,46,32,0
253.01851,253.5545,53,29,0
253.01851,253.5545,46,29,0
253.5545,254.62651,53,32,0
253.5545,254.62651,46,32,0
255.16252,255.66132,58,27,0
255.16252,255.66132,65,27,0
255.71674,256.21555,58,27,0
255.71674,256.21555,65,27,0
256.27097,256.79645,58,27,0
256.27097,256.79645,65,27,0
256.85483,258.12106,65,31,0
256.85483,258.12106,58,31,0
260.32285,262.40756,51,39,0
263.46878,263.72226,51,37,0
263.72226,263.9757,55,33,0
263.9757,264.2292,58,36,0
264.2292,264.48264,51,33,0
264.48264,264.74216,53,40,0
264.74216,265.00168,56,32,0
265.00168,265.2612,62,35,0
265.2612,265.5207,53,33,0
265.5207,265.7802,55,40,0
265.7802,266.03973,58,32,0
266.03973,266.29926,63,36,0
266.29926,266.55878,55,33,0
266.55878,269.64325,60,41,0
266.55878,269.64325,56,41,0
269.64325,269.90695,45,44,0
269.90695,270.1707,46,46,0
270.1707,270.4344,48,49,0
270.4344,270.67612,46,45,0
270.6981,271.74103,46,45,0
272.7801,273.81003,51,45,0
272.7801,273.81003,39,45,0
274.84583,275.90067,60,53,0
274.84583,275.90067,51,53,0
275.90067,276.95554,60,51,0
275.90067,276.95554,53,51,0
276.95554,277.48294,58,46,0
277.48294,278.01038,59,40,0
276.95554,278.01038,62,46,0
278.01038,278.52954,60,47,0
278.52954,279.0552,55,45,0
279.0552,279.57425,56,50,0
278.01038,279.57425,63,47,0
280.07727,281.12393,55,51,0
281.12393,282.15378,56,37,0
280.07727,282.15378,46,51,0
282.15378,282.4175,51,30,0
282.4175,282.6812,55,26,0
282.6812,282.94492,58,27,0
282.94492,283.20865,55,27,0
283.20865,283.47235,51,30,0
283.47235,283.73605,55,27,0
283.73605,283.99152,58,29,0
283.99152,284.24695,55,27,0
284.24695,284.5024,51,33,0
284.5024,284.75787,55,27,0
284.75787,285.02808,58,29,0
285.02808,285.2983,55,27,0
285.2983,285.562,51,36,0
285.562,285.82574,53,27,0
285.82574,286.08945,56,30,0
286.08945,286.35315,53,27,0
286.35315,286.61688,51,32,0
286.61688,286.88058,53,27,0
286.88058,287.13605,56,27,0
287.13605,287.39148,53,26,0
287.39148,287.64694,51,32,0
287.64694,287.90237,53,27,0
287.90237,288.15784,56,27,0
288.15784,288.41327,53,27,0
288.41327,288.67487,51,33,0
288.67487,288.93646,55,26,0
288.93646,289.19806,58,27,0
289.19806,289.45966,55,26,0
289.45966,289.72125,51,31,0
289.72125,289.98288,55,26,0
289.98288,290.2383,58,27,0
290.2383,290.49377,55,26,0
290.49377,290.7492,51,33,0
290.7492,291.00467,55,27,0
291.00467,291.26627,58,30,0
291.26627,291.52786,55,27,0
291.52786,291.78946,51,36,0
291.78946,292.05106,53,25,0
292.05106,292.31265,56,27,0
292.31265,292.57425,53,24,0
292.57425,292.83585,51,29,0
292.83585,293.09744,53,23,0
293.09744,293.35092,56,27,0
293.35092,293.60437,53,23,0
293.60437,293.85785,51,30,0
293.85785,294.1113,53,26,0
294.1113,294.36478,56,26,0
294.36478,294.61823,53,25,0
294.61823,295.63443,55,27,0
294.61823,295.63443,51,27,0
296.14136,296.68634,55,32,0
296.68634,297.25504,56,34,0
297.25504,297.84958,57,35,0
297.84958,299.2163,58,37,0
299.2163,299.48004,59,41,0
299.48004,299.74374,60,45,0
299.74374,299.98547,58,43,0
300.00745,300.27118,58,45,0
300.27118,300.53488,56,44,0
300.53488,300.79932,55,45,0
300.79932,301.0652,53,45,0
301.0652,301.5926,51,53,0
301.5926,302.12003,55,45,0
302.12003,302.64746,58,47,0
302.64746,303.1749,63,45,0
303.1749,303.7023,68,51,0
303.7023,304.22974,67,47,0
304.22974,304.78397,65,51,0
304.22974,304.78397,68,51,0
304.78397,305.31137,63,47,0
304.78397,305.31137,67,47,0
305.31137,305.8388,65,47,0
305.31137,305.8388,62,47,0
308.0011,308.52853,58,45,0
308.52853,309.05597,62,45,0
309.05597,309.5834,65,45,0
309.5834,310.1108,67,50,0
310.1108,310.63824,68,45,0
310.63824,311.1878,67,51,0
310.1108,311.1878,70,45,0
311.1878,311.7238,68,45,0
311.1878,311.7238,65,45,0
311.7238,312.2598,67,50,0
311.7238,312.2598,63,50,0
312.2598,312.75024,51,54,0
312.2598,312.75024,39,54,0
312.80475,313.29523,51,56,0
312.80475,313.29523,39,56,0
313.3497,313.84018,51,54,0
313.3497,313.84018,39,54,0
314.4221,314.8968,55,47,0
314.4221,314.8968,63,47,0
314.94952,315.4242,63,49,0
314.94952,315.4242,55,49,0
315.47696,315.95163,63,48,0
315.47696,315.95163,55,48,0
316.00436,316.48386,63,51,0
316.00436,316.48386,55,51,0
316.5379,317.0415,63,45,0
316.5379,317.0415,55,45,0
317.63373,318.1697,55,47,0
318.1697,318.70572,56,50,0
317.63373,318.70572,63,47,0
318.70572,319.1766,56,55,0
318.70572,319.1766,63,55,0
319.2289,319.69745,63,55,0
319.2289,319.69745,56,55,0
319.751,320.21576,63,50,0
319.751,320.21576,56,50,0
320.2684,320.77533,63,53,0
320.2684,320.77533,55,53,0
320.77533,321.28226,63,48,0
320.77533,321.28226,56,48,0
321.28226,321.75696,55,50,0
321.28226,321.75696,46,50,0
321.8097,322.28436,55,46,0
321.8097,322.28436,46,46,0
322.33713,322.82047,56,39,0
322.33713,322.82047,46,39,0
322.8755,323.35886,56,39,0
322.8755,323.35886,46,39,0
323.41388,323.68414,55,45,0
323.41388,323.68414,51,45,0
323.68414,323.95444,51,50,0
323.95444,324.21814,55,54,0
324.21814,324.48184,58,57,0
324.48184,324.74557,56,63,0
324.74557,325.00928,58,56,0
325.00928,325.27087,55,63,0
325.27087,325.53317,58,56,0
325.53317,325.7969,53,63,0
325.7969,326.06274,58,56,0
326.06274,326.33005,51,63,0
326.33005,326.5988,58,56,0
326.5988,326.86038,50,63,0
326.86038,327.12198,53,54,0
327.12198,327.38358,56,56,0
327.38358,327.64517,55,53,0
327.64517,327.90677,53,61,0
327.90677,328.16837,51,54,0
328.16837,328.43423,50,56,0
328.43423,328.7001,48,54,0
328.7001,328.9638,46,56,0
328.9638,329.2275,48,54,0
329.2275,329.48914,44,56,0
329.48914,329.75073,46,52,0
329.75073,330.00888,43,61,0
330.00888,330.26633,46,47,0
330.26633,330.5238,51,52,0
330.5238,330.78128,46,47,0
330.78128,331.03873,55,52,0
331.2962,331.83664,55,43,0
331.2962,331.83664,51,43,0
331.83664,332.37564,56,43,0
331.83664,332.37564,53,43,0
332.37564,332.95953,58,43,0
332.37564,332.95953,55,43,0
332.95953,333.9976,60,46,0
332.95953,333.9976,56,46,0
334.5166,335.04834,53,36,0
334.5166,335.04834,44,36,0
335.04834,335.58008,55,43,0
335.58008,336.11575,56,36,0
335.04834,336.13904,46,43,0
336.13904,337.257,56,45,0
337.257,337.53647,55,35,0
336.13904,337.53647,51,45,0
337.53647,337.81595,63,52,0
337.81595,338.08395,67,54,0
338.08395,338.35196,70,51,0
338.35196,338.61996,68,57,0
338.61996,338.88794,67,52,0
338.88794,339.15594,65,54,0
339.15594,339.42395,63,53,0
339.42395,339.68555,62,63,0
339.68555,339.94714,65,54,0
339.94714,340.20874,68,56,0
340.20874,340.47034,67,54,0
340.47034,340.73193,65,61,0
340.73193,340.9915,63,54,0
340.9915,341.24695,62,56,0
341.24695,341.50586,60,54,0
341.50586,341.77316,58,56,0
341.77316,342.04413,60,54,0
342.04413,342.31815,56,56,0
342.31815,342.59604,58,53,0
342.59604,342.8542,55,61,0
342.8542,343.11166,58,45,0
343.11166,343.3691,60,49,0
343.3691,343.6266,62,45,0
343.6266,343.88406,63,46,0
344.1415,344.68198,67,43,0
344.1415,344.68198,63,43,0
344.68198,345.22095,68,43,0
344.68198,345.22095,65,43,0
345.22095,345.80484,70,36,0
345.22095,345.80484,67,36,0
345.80484,346.3786,72,43,0
345.80484,346.3786,68,43,0
347.98773,348.51517,62,43,0
348.51517,349.0889,65,43,0
347.98773,349.0889,68,43,0
347.98773,349.0889,58,43,0
349.0889,349.34433,63,43,0
349.34433,349.5998,67,39,0
349.5998,349.85522,70,40,0
349.85522,350.1107,67,42,0
350.1107,350.36612,63,46,0
350.36612,350.62158,67,44,0
350.62158,350.87704,70,49,0
350.87704,351.13382,67,50,0
351.13382,351.39197,68,58,0
351.39197,351.6522,65,55,0
351.6522,351.9138,70,56,0
351.9138,352.1775,68,58,0
352.1775,352.44336,67,62,0
352.44336,352.70923,70,56,0
352.70923,352.9751,67,53,0
352.9751,353.24094,65,55,0
353.24094,353.5068,63,70,0
353.5068,353.77267,61,61,0
353.77267,354.0444,58,64,0
354.0444,354.31842,55,61,0
354.31842,354.59552,56,70,0
354.59552,354.87582,53,64,0
354.87582,355.20282,58,70,0
355.20282,355.52985,46,59,0
355.52985,357.57343,51,50,0
357.57343,358.19623,56,42,0
358.19623,358.78012,55,45,0
358.78012,359.40524,53,47,0
359.40524,361.56256,52,56,0
361.56256,362.7054,48,46,0
362.7054,364.92426,49,53,0
364.92426,365.9791,56,43,0
364.92426,365.9791,60,43,0
365.9791,367.04254,61,43,0
365.9791,367.04254,58,43,0
368.07242,369.11057,70,43,0
368.07242,369.11057,60,43,0
369.11057,370.1654,70,43,0
370.1654,370.69284,68,36,0
369.11057,370.69284,65,43,0
370.69284,371.17923,41,45,0
371.23328,371.71967,41,46,0
371.7737,372.2601,41,44,0
372.31415,375.3556,41,52,0
375.3556,376.91568,41,42,0
376.91568,377.39423,41,45,0
377.44742,377.92596,41,46,0
377.97913,378.491,41,45,0
378.54785,381.64493,42,54,0
381.64493,383.2272,43,49,0
383.2272,383.69434,43,48,0
383.74625,384.21338,43,50,0
384.26526,384.75626,43,47,0
384.81082,386.85077,44,55,0
386.85077,387.88138,45,62,0
387.88138,388.92776,46,62,0
388.92776,389.96188,49,48,0
389.96188,391.00018,48,54,0
391.00018,392.0447,49,44,0
392.0447,393.0816,60,43,0
392.0447,393.0816,51,43,0
393.0816,394.20526,61,36,0
393.0816,394.20526,51,36,0
394.20526,394.46274,56,33,0
394.46274,394.7202,60,26,0
394.7202,394.97766,63,27,0
394.97766,395.23514,60,25,0
395.23514,395.4926,56,30,0
395.4926,395.75006,60,26,0
395.75006,396.00552,63,29,0
396.00552,396.26096,60,26,0
396.26096,396.51642,56,33,0
396.51642,396.77188,60,27,0
396.77188,397.03772,63,29,0
397.03772,397.3036,60,27,0
397.3036,397.56732,55,36,0
397.56732,397.83102,58,26,0
397.83102,398.08646,60,27,0
398.08646,398.34192,58,26,0
398.34192,398.59738,55,32,0
398.59738,398.8528,58,26,0
398.8528,399.10828,60,27,0
399.10828,399.3637,58,25,0
399.3637,399.61917,55,32,0
399.61917,399.8746,58,27,0
399.8746,400.1474,60,27,0
400.1474,400.42017,58,25,0
400.42017,400.68387,53,36,0
400.68387,400.9476,56,27,0
400.9476,401.20303,60,30,0
401.20303,401.4585,56,27,0
401.4585,401.71396,53,32,0
401.71396,401.9694,56,26,0
401.9694,402.2289,60,27,0
402.2289,402.48843,56,26,0
402.48843,402.75003,53,32,0
402.75003,403.01163,56,27,0
403.01163,403.28946,60,29,0
403.28946,403.5673,56,27,0
403.5673,403.8289,51,36,0
403.8289,404.09048,54,30,0
404.09048,404.35208,56,32,0
404.35208,404.61368,54,29,0
404.61368,404.87112,51,36,0
404.87112,405.1286,54,29,0
405.1286,405.38208,56,32,0
405.38208,405.63553,54,29,0
405.63553,405.889,51,35,0
405.889,406.14246,54,29,0
406.14246,406.39594,56,31,0
406.39594,406.64938,54,27,0
406.64938,406.9131,49,40,0
406.9131,407.17682,52,34,0
407.17682,407.43225,56,36,0
407.43225,407.6877,52,33,0
407.6877,407.94315,49,40,0
407.94315,408.1986,52,33,0
408.1986,408.45407,56,36,0
408.45407,408.7095,52,33,0
408.7095,408.96902,47,39,0
408.96902,409.22855,51,34,0
409.22855,409.49875,56,36,0
409.49875,409.76898,51,33,0
409.76898,411.35205,53,36,0
409.76898,411.35205,46,36,0
411.35205,411.88806,53,29,0
411.35205,411.88806,46,29,0
411.88806,412.42404,53,32,0
411.88806,412.42404,46,32,0
412.42404,412.96005,53,29,0
412.42404,412.96005,46,29,0
412.96005,414.03204,53,32,0
412.96005,414.03204,46,32,0
414.56805,415.06686,58,27,0
414.56805,415.06686,65,27,0
415.12228,415.62106,58,27,0
415.12228,415.62106,65,27,0
415.67648,416.202,58,27,0
415.67648,416.202,65,27,0
416.26038,417.5746,65,31,0
416.26038,417.5746,58,31,0
419.77762,421.84756,51,39,0
422.9088,423.16226,51,37,0
423.16226,423.41574,55,33,0
423.41574,423.6692,58,36,0
423.6692,423.92267,51,33,0
423.92267,424.1822,53,40,0
424.1822,424.44168,56,32,0
424.44168,424.7012,62,35,0
424.7012,424.96072,53,33,0
424.96072,425.22025,55,40,0
425.22025,425.47977,58,32,0
425.47977,425.73926,63,36,0
425.73926,425.99878,55,33,0
425.99878,429.08328,60,41,0
425.99878,429.08328,56,41,0
429.08328,429.347,45,44,0
429.347,429.6107,46,46,0
429.6107,429.87442,48,49,0
429.87442,430.11615,46,45,0
430.13812,431.18103,46,45,0
432.2201,433.25003,51,45,0
432.2201,433.25003,39,45,0
434.28583,435.3407,60,53,0
434.28583,435.3407,51,53,0
435.3407,436.3766,60,51,0
435.3407,436.3766,53,51,0
436.3766,436.89877,58,46,0
436.89877,437.43457,59,40,0
436.3766,437.43457,62,46,0
437.43457,437.95795,60,47,0
437.95795,438.4912,55,45,0
438.4912,439.01025,56,50,0
437.43457,439.01025,63,47,0
439.51328,440.55994,55,51,0
440.55994,441.58978,56,37,0
439.51328,441.58978,46,51,0
441.58978,441.85352,51,30,0
441.85352,442.11722,55,26,0
442.11722,442.38092,58,27,0
442.38092,442.64465,55,27,0
442.64465,442.90836,51,30,0
442.90836,443.17206,55,27,0
443.17206,443.42752,58,29,0
443.42752,443.68298,55,27,0
443.68298,443.93842,51,33,0
443.93842,444.19388,55,27,0
444.19388,444.46408,58,29,0
444.46408,444.7343,55,27,0
444.7343,444.99802,51,36,0
444.99802,445.26175,53,27,0
445.26175,445.52545,56,30,0
445.52545,445.78915,53,27,0
445.78915,446.0529,51,32,0
446.0529,446.3166,53,27,0
446.3166,446.57205,56,27,0
446.57205,446.82748,53,26,0
446.82748,447.08295,51,32,0
447.08295,447.33838,53,27,0
447.33838,447.59384,56,27,0
447.59384,447.84927,53,27,0
447.84927,448.1079,51,33,0
448.1079,448.36652,55,26,0
448.36652,448.6274,58,27,0
448.6274,448.88828,55,26,0
448.88828,449.14914,51,31,0
449.14914,449.41,55,26,0
449.41,449.66547,58,27,0
449.66547,449.9209,55,26,0
449.9209,450.17636,51,33,0
450.17636,450.4318,55,27,0
450.4318,450.6934,58,30,0
450.6934,450.955,55,27,0
450.955,451.205,51,36,0
451.205,451.46362,53,25,0
451.46362,451.72223,56,27,0
451.72223,451.98087,53,24,0
451.98087,452.23947,51,29,0
452.23947,452.4981,53,23,0
452.4981,452.75156,56,27,0
452.75156,453.00504,53,23,0
453.00504,453.25848,51,30,0
453.25848,453.51196,53,26,0
453.51196,453.7654,56,26,0
453.7654,454.0189,53,25,0
454.0189,455.0351,55,27,0
454.0189,455.0351,51,27,0
455.54202,456.08698,55,32,0
456.08698,456.6557,56,34,0
456.6557,457.26807,57,35,0
457.26807,458.63483,58,37,0
458.63483,458.89853,59,41,0
458.89853,459.16223,60,45,0
459.16223,459.404,58,43,0
459.42596,459.68967,58,45,0
459.68967,459.95337,56,44,0
459.95337,460.2178,55,45,0
460.2178,460.4742,53,45,0
460.4742,461.00165,51,53,0
461.00165,461.52908,55,45,0
461.52908,462.0565,58,47,0
462.0565,462.58392,63,45,0
462.58392,463.11136,68,51,0
463.11136,463.6388,67,47,0
463.6388,464.18137,65,51,0
463.6388,464.18137,68,51,0
464.18137,464.7088,63,47,0
464.18137,464.7088,67,47,0
464.7088,465.23624,65,47,0
464.7088,465.23624,62,47,0
467.39853,467.92596,58,45,0
467.92596,468.4534,62,45,0
468.4534,468.9808,65,45,0
468.9808,469.50824,67,50,0
469.50824,470.03568,68,45,0
470.03568,470.5736,67,51,0
469.50824,470.5736,70,45,0
470.5736,471.1096,68,45,0
470.5736,471.1096,65,45,0
471.1096,471.6456,67,50,0
471.1096,471.6456,63,50,0
471.6456,472.13605,51,54,0
471.6456,472.13605,39,54,0
472.19055,472.68103,51,56,0
472.19055,472.68103,39,56,0
472.7355,473.22598,51,54,0
472.7355,473.22598,39,54,0
473.8079,474.2826,55,47,0
473.8079,474.2826,63,47,0
474.33533,474.81,63,49,0
474.33533,474.81,55,49,0
474.86276,475.33643,63,48,0
474.86276,475.33643,55,48,0
475.38916,475.86865,63,51,0
475.38916,475.86865,55,51,0
475.9227,476.42627,63,45,0
475.9227,476.42627,55,45,0
477.0185,477.5545,55,47,0
477.5545,478.0905,56,50,0
477.0185,478.0905,63,47,0
478.0905,478.56137,56,55,0
478.0905,478.56137,63,55,0
478.6137,479.0844,63,55,0
478.6137,479.0844,56,55,0
479.13797,479.61087,63,50,0
479.13797,479.61087,56,50,0
479.66446,480.173,63,53,0
479.66446,480.173,55,53,0
480.173,480.6829,63,48,0
480.173,480.6829,56,48,0
480.6829,481.15756,55,50,0
480.6829,481.15756,46,50,0
481.21033,481.685,55,46,0
481.21033,481.685,46,46,0
481.73773,482.21014,56,39,0
481.73773,482.21014,46,39,0
482.2647,482.7435,56,39,0
482.2647,482.7435,46,39,0
482.79855,483.06882,55,45,0
482.79855,483.06882,51,45,0
483.06882,483.33908,51,50,0
483.33908,483.6028,55,54,0
483.6028,483.86652,58,57,0
483.86652,484.13025,56,63,0
484.13025,484.39395,58,56,0
484.39395,484.65555,55,63,0
484.65555,484.91785,58,56,0
484.91785,485.18155,53,63,0
485.18155,485.44742,58,56,0
485.44742,485.71472,51,63,0
485.71472,485.98346,58,56,0
485.98346,486.24506,50,63,0
486.24506,486.50665,53,54,0
486.50665,486.76825,56,56,0
486.76825,487.02985,55,53,0
487.02985,487.29144,53,61,0
487.29144,487.55304,51,54,0
487.55304,487.8189,50,56,0
487.8189,488.08478,48,54,0
488.08478,488.34848,46,56,0
488.34848,488.61218,48,54,0
488.61218,488.87378,44,56,0
488.87378,489.13538,46,52,0
489.13538,489.39352,43,61,0
489.39352,489.651,46,47,0
489.651,489.89893,51,52,0
489.89893,490.1555,46,47,0
490.1555,490.4119,55,52,0
490.6683,491.20877,55,43,0
490.6683,491.20877,51,43,0
491.20877,491.74774,56,43,0
491.20877,491.74774,53,43,0
491.74774,492.33163,58,43,0
491.74774,492.33163,55,43,0
492.33163,493.3697,60,46,0
492.33163,493.3697,56,46,0
493.88873,494.42044,53,36,0
493.88873,494.42044,44,36,0
494.42044,494.95218,55,43,0
494.95218,495.48785,56,36,0
494.42044,495.51114,46,43,0
495.51114,496.6291,56,45,0
496.6291,496.90857,55,35,0
495.51114,496.90857,51,45,0
496.90857,497.18805,63,52,0
497.18805,497.45605,67,54,0
497.45605,497.72406,70,51,0
497.72406,497.99207,68,57,0
497.99207,498.26007,67,52,0
498.26007,498.52808,65,54,0
498.52808,498.79608,63,53,0
498.79608,499.05768,62,63,0
499.05768,499.31927,65,54,0
499.31927,499.58087,68,56,0
499.58087,499.84247,67,54,0
499.84247,500.10406,65,61,0
500.10406,500.36362,63,54,0
500.36362,500.61905,62,56,0
500.61905,500.87796,60,54,0
500.87796,501.14526,58,56,0
501.14526,501.41623,60,54,0
501.41623,501.69025,56,56,0
501.69025,501.96814,58,53,0
501.96814,502.2263,55,61,0
502.2263,502.48376,58,45,0
502.48376,502.73376,60,49,0
502.73376,502.99924,62,45,0
502.99924,503.25568,63,46,0
503.5121,504.05252,67,43,0
503.5121,504.05252,63,43,0
504.05252,504.5915,68,43,0
504.05252,504.5915,65,43,0
504.5915,505.17538,70,36,0
504.5915,505.17538,67,36,0
505.17538,505.74915,72,43,0
505.17538,505.74915,68,43,0
507.35828,507.8857,62,43,0
507.8857,508.45944,65,43,0
507.35828,508.45944,68,43,0
507.35828,508.45944,58,43,0
508.45944,508.71487,63,43,0
508.71487,508.97034,67,39,0
508.97034,509.2258,70,40,0
509.2258,509.48123,67,42,0
509.48123,509.7367,63,46,0
509.7367,509.99213,67,44,0
509.99213,510.2476,70,49,0
510.2476,510.5044,67,50,0
510.5044,510.76254,68,58,0
510.76254,511.02274,65,55,0
511.02274,511.28433,70,56,0
511.28433,511.54807,68,58,0
511.54807,511.8139,67,62,0
511.8139,512.0798,70,56,0
512.0798,512.34564,67,53,0
512.34564,512.6115,65,55,0
512.6115,512.8774,63,70,0
512.8774,513.14325,61,61,0
513.14325,513.415,58,64,0
513.415,513.68896,55,61,0
513.68896,513.96606,56,70,0
513.96606,514.2464,53,64,0
514.2464,514.57336,58,70,0
514.57336,514.9004,46,59,0
514.9004,516.8624,51,46,0
518.18286,519.0402,46,36,0
519.0402,522.3743,51,31,0
519.0402,522.3743,39,27,0
