start_time,end_time,note_value,velocity,instrument_program_number
0.0014269417,0.513699,76,60,0
0.513699,0.5993155,77,54,0
0.5993155,0.684932,79,54,0
0.684932,1.027398,72,60,0
1.027398,1.369864,74,49,0
1.027398,1.369864,71,49,0
1.369864,1.6267135,74,53,0
1.6267135,1.71233,77,48,0
1.369864,1.71233,71,53,0
1.71233,2.054796,72,53,0
1.71233,2.054796,76,53,0
2.054796,2.788907,74,50,0
2.054796,2.788907,71,50,0
2.788907,3.302606,76,60,0
3.302606,3.3882225,77,56,0
3.3882225,3.473839,79,56,0
3.473839,3.816305,72,61,0
3.816305,3.987538,71,49,0
3.816305,3.987538,74,49,0
4.158771,4.501237,77,54,0
4.158771,4.501237,74,54,0
4.501237,4.570457,76,49,0
4.570457,4.639677,77,49,0
4.639677,4.708897,76,49,0
4.708897,4.778117,77,49,0
4.778117,4.8473377,76,49,0
4.501237,4.8473377,72,49,0
4.8473377,5.571831,74,52,0
4.8473377,5.571831,71,52,0
5.571831,6.08553,77,64,0
6.08553,6.1711464,79,60,0
6.1711464,6.256763,77,60,0
6.256763,6.599229,76,64,0
6.599229,6.774156,76,62,0
6.949083,7.462782,81,69,0
7.462782,7.5483985,83,63,0
7.5483985,7.634015,84,63,0
7.634015,7.976481,79,69,0
7.976481,8.147714,79,69,0
8.318947,8.49018,79,68,0
8.49018,8.618605,77,63,0
8.661413,8.832646,77,64,0
8.832646,8.961071,74,63,0
9.003879,9.175112,77,69,0
9.175112,9.303536,76,64,0
9.346345,9.517578,76,66,0
9.517578,9.646003,72,64,0
9.688811,9.860044,73,64,0
9.860044,10.031879,74,60,0
10.031879,10.204321,76,64,0
10.204321,10.377371,74,62,0
10.377371,10.551365,72,63,0
10.551365,10.725981,71,61,0
10.725981,10.901222,69,61,0
10.901222,11.08728,67,60,0
11.08728,11.600979,76,70,0
11.600979,11.686596,77,64,0
11.686596,11.772212,79,64,0
11.772212,12.114678,72,70,0
12.114678,12.457144,71,60,0
12.114678,12.457144,74,60,0
12.457144,12.713994,74,63,0
12.713994,12.79961,77,57,0
12.457144,12.79961,71,63,0
12.79961,13.1420765,76,63,0
12.79961,13.1420765,72,63,0
13.1420765,13.854075,74,61,0
13.1420765,13.854075,71,61,0
13.854075,14.367774,76,70,0
14.367774,14.453391,77,67,0
14.453391,14.539007,79,67,0
14.539007,14.881474,72,71,0
14.881474,15.052706,71,60,0
14.881474,15.052706,74,60,0
15.223939,15.566405,74,64,0
15.223939,15.566405,77,64,0
15.566405,15.635625,76,60,0
15.635625,15.704845,77,60,0
15.704845,15.774065,76,60,0
15.774065,15.843286,77,60,0
15.843286,15.912506,76,60,0
15.566405,15.912506,72,60,0
15.912506,16.62399,74,62,0
15.912506,16.62399,71,62,0
16.62399,17.137688,77,77,0
17.137688,17.223305,79,70,0
17.223305,17.30892,77,70,0
17.30892,17.651386,76,77,0
17.651386,17.826313,76,74,0
18.00124,18.51494,81,78,0
18.51494,18.600555,83,71,0
18.600555,18.686172,84,69,0
18.686172,19.028639,79,79,0
19.028639,19.199871,79,77,0
19.371105,19.5451,80,77,0
19.5451,19.719091,81,74,0
19.719091,19.890326,77,75,0
19.890326,20.061558,74,72,0
20.061558,20.421055,72,75,0
20.421055,20.80085,71,71,0
20.80085,20.916845,72,75,0
20.916845,21.03284,67,69,0
21.03284,21.148838,76,66,0
21.148838,21.264833,72,75,0
21.264833,21.380829,79,69,0
21.380829,21.496824,76,66,0
21.496824,21.61098,84,73,0
21.61098,21.725136,83,66,0
21.725136,21.83929,81,65,0
21.83929,21.953445,79,70,0
21.953445,22.067602,77,67,0
22.067602,22.181757,76,65,0
22.181757,22.298374,73,63,0
22.298374,22.414993,74,60,0
22.414993,22.53161,77,60,0
22.53161,22.645311,81,62,0
22.645311,22.759012,77,57,0
22.759012,22.872713,74,57,0
22.872713,22.986414,79,61,0
22.986414,23.100115,76,57,0
23.100115,23.213818,72,57,0
23.213818,23.329584,77,61,0
23.329584,23.445353,74,55,0
23.445353,23.584259,71,55,0
23.584259,23.700552,72,75,0
23.700552,23.816845,67,69,0
23.816845,23.933138,76,67,0
23.933138,24.04943,72,75,0
24.04943,24.165724,79,69,0
24.165724,24.282017,76,67,0
24.282017,24.396172,84,73,0
24.396172,24.510326,83,66,0
24.510326,24.624481,81,64,0
24.624481,24.738638,79,70,0
24.738638,24.852793,77,67,0
24.852793,24.966948,76,65,0
24.966948,25.083567,73,63,0
25.083567,25.200184,74,60,0
25.200184,25.316769,77,59,0
25.316769,25.4298,81,62,0
25.4298,25.542833,77,57,0
25.542833,25.655867,74,55,0
25.655867,25.768898,79,61,0
25.768898,25.881931,76,57,0
25.881931,25.994965,72,54,0
25.994965,26.110731,77,61,0
26.110731,26.2265,74,55,0
26.2265,26.341251,71,55,0
26.341251,26.436188,72,52,0
26.720999,26.831293,67,50,0
27.162174,28.120247,60,50,0
28.120247,28.81792,76,50,0
28.81792,28.90513,77,46,0
28.90513,28.99234,76,46,0
28.99234,29.079115,74,46,0
29.079115,29.165321,76,46,0
29.165321,29.336885,79,50,0
29.336885,29.507053,77,46,0
29.507053,29.677507,76,51,0
29.677507,29.847961,74,49,0
29.847961,30.018417,72,49,0
30.018417,30.209856,71,49,0
30.209856,30.300217,72,52,0
30.56958,30.65883,73,55,0
30.922716,31.009926,74,56,0
31.269314,31.354542,75,60,0
31.610224,31.695452,76,63,0
31.961422,32.13447,79,62,0
32.13447,32.30752,77,57,0
32.30752,32.83045,76,62,0
32.83045,32.916973,77,55,0
32.916973,33.003498,76,55,0
33.003498,33.349598,74,56,0
33.711044,34.41004,77,58,0
34.41004,34.494312,79,48,0
34.494312,34.578583,77,49,0
34.578583,34.662853,76,49,0
34.662853,34.74712,77,49,0
34.74712,34.91566,81,55,0
34.91566,35.0842,79,52,0
35.0842,35.25274,77,52,0
35.25274,35.42128,76,50,0
35.42128,35.589817,74,50,0
35.589817,35.767605,72,50,0
35.767605,35.93884,71,49,0
35.93884,36.024456,72,50,0
36.110073,36.19569,74,51,0
36.281303,36.36692,76,53,0
36.452538,36.53771,77,54,0
36.622875,36.708046,79,55,0
36.793514,36.87913,81,56,0
36.964745,37.050514,83,58,0
37.13658,37.22265,84,60,0
37.30872,37.395245,86,61,0
37.48177,37.568295,88,62,0
37.65482,37.754818,89,63,0
37.85482,38.56987,87,79,0
38.56987,38.9274,88,75,0
39.3283,39.79796,76,64,0
39.79796,39.91166,81,60,0
39.91166,40.02536,84,60,0
40.02536,40.13906,88,60,0
40.13906,40.25276,84,58,0
40.25276,40.366463,81,58,0
40.366463,40.480164,84,60,0
40.480164,40.594543,81,58,0
40.594543,40.709618,76,58,0
40.709618,41.179276,74,64,0
41.179276,41.292976,79,60,0
41.292976,41.406677,83,60,0
41.406677,41.52038,86,60,0
41.52038,41.63408,83,59,0
41.63408,41.74778,79,59,0
41.74778,41.86148,83,60,0
41.86148,41.97518,79,58,0
41.97518,42.096085,74,58,0
42.209785,42.323486,74,60,0
42.323486,42.43719,81,60,0
42.43719,42.55089,84,60,0
42.55089,42.664593,81,58,0
42.664593,42.789436,74,60,0
42.903137,43.016838,74,60,0
43.016838,43.13054,79,60,0
43.13054,43.24424,83,60,0
43.24424,43.37759,79,59,0
43.37759,43.51094,74,60,0
43.51094,43.77142,81,68,0
43.77142,43.858246,78,63,0
43.858246,44.205547,74,60,0
44.830627,44.929325,67,43,0
44.929325,45.782085,79,64,0
45.782085,45.952637,78,50,0
45.952637,46.123188,76,50,0
46.123188,46.288055,74,50,0
46.29374,46.46429,74,53,0
46.46429,46.634842,72,49,0
46.634842,46.805393,71,50,0
46.805393,46.975945,69,47,0
46.975945,47.060215,74,54,0
47.313023,47.397293,72,51,0
47.68707,48.032295,70,53,0
48.032295,48.377518,71,51,0
50.3536,50.453613,67,43,0
50.453613,51.305885,79,64,0
51.305885,51.476337,78,50,0
51.476337,51.646793,76,50,0
51.646793,51.810146,74,48,0
51.81725,51.9877,74,53,0
51.9877,52.158157,72,47,0
52.158157,52.328613,71,50,0
52.328613,52.499065,69,50,0
52.499065,52.585373,74,54,0
52.84429,52.930595,72,51,0
53.209236,53.55034,71,54,0
53.89144,53.976715,76,52,0
53.976715,54.061993,78,55,0
54.061993,54.14727,76,53,0
54.14727,54.232544,78,62,0
54.232544,54.403095,79,62,0
54.403095,54.488373,79,60,0
54.573647,54.91475,79,60,0
55.280132,55.365368,81,52,0
55.365368,55.450607,83,55,0
55.450607,55.535843,81,52,0
55.535843,55.62108,83,62,0
55.62108,55.791553,84,62,0
55.791553,55.876793,84,60,0
55.96203,56.302975,84,60,0
56.652534,56.73781,84,51,0
56.73781,56.823086,86,54,0
56.823086,56.90836,84,51,0
56.90836,56.993637,86,63,0
56.993637,57.16419,88,63,0
57.16419,57.249462,88,60,0
57.33474,57.50529,88,60,0
57.50529,57.675842,86,61,0
57.675842,57.761116,84,56,0
57.846394,57.93167,83,56,0
58.016945,58.101215,81,56,0
58.354023,58.438293,86,56,0
58.72259,59.069893,84,62,0
59.069893,59.43107,83,58,0
59.43107,59.516342,76,51,0
59.516342,59.60162,78,54,0
59.60162,59.686893,76,51,0
59.686893,59.77217,78,64,0
59.77217,59.942722,79,64,0
59.942722,60.027996,79,60,0
60.113274,60.454376,79,60,0
60.81245,60.897686,81,50,0
60.897686,60.982925,83,54,0
60.982925,61.06816,81,51,0
61.06816,61.1534,83,66,0
61.1534,61.32387,84,66,0
61.32387,61.40911,84,60,0
61.494347,61.835297,84,60,0
62.184853,62.270126,84,50,0
62.270126,62.355404,86,54,0
62.355404,62.440678,84,51,0
62.440678,62.525955,86,64,0
62.525955,62.696507,88,64,0
62.696507,62.78178,88,61,0
62.867058,63.03761,88,62,0
63.03761,63.20816,86,61,0
63.20816,63.293438,84,61,0
63.37871,63.46399,83,61,0
63.549263,63.719814,83,62,0
63.719814,63.890366,81,61,0
63.890366,63.975643,79,61,0
64.06092,64.16366,78,61,0
64.266396,64.72947,86,84,0
64.72947,64.84524,83,61,0
64.84524,64.961006,79,61,0
64.961006,65.07677,78,63,0
65.07677,65.192535,81,63,0
65.192535,65.308304,74,61,0
65.308304,65.42407,79,63,0
65.42407,65.5469,83,61,0
65.5469,65.67679,74,61,0
65.67679,66.139336,81,70,0
66.139336,66.25546,78,58,0
66.25546,66.37283,74,59,0
66.37283,66.49111,73,61,0
66.49111,66.61069,74,57,0
66.61069,66.73121,69,57,0
66.73121,66.85307,72,60,0
66.85307,66.98116,74,57,0
66.98116,67.114494,69,57,0
67.114494,67.57757,86,77,0
67.57757,67.69333,83,61,0
67.69333,67.8091,79,61,0
67.8091,67.924866,78,63,0
67.924866,68.040634,81,63,0
68.040634,68.1564,74,61,0
68.1564,68.27217,79,63,0
68.27217,68.3933,83,61,0
68.3933,68.519806,74,61,0
68.519806,68.98236,81,71,0
68.98236,69.09848,78,55,0
69.09848,69.21585,74,55,0
69.21585,69.33414,73,57,0
69.33414,69.45371,74,54,0
69.45371,69.57423,69,54,0
69.57423,69.69609,72,55,0
69.69609,69.81994,74,53,0
69.81994,69.94478,69,53,0
69.94478,70.069626,71,53,0
70.069626,70.18958,67,54,0
70.18958,70.30466,71,56,0
70.30466,70.41973,74,57,0
70.41973,70.534805,71,58,0
70.534805,70.64989,74,61,0
70.64989,70.76496,79,61,0
70.76496,70.880035,74,63,0
70.880035,70.99511,79,64,0
70.99511,71.11018,83,64,0
71.11018,71.22526,79,67,0
71.22526,71.34033,83,68,0
71.34033,71.45682,86,69,0
71.45682,71.573296,83,70,0
71.573296,71.70024,86,73,0
71.70024,71.81815,89,73,0
71.81815,71.936615,86,70,0
71.936615,72.05564,83,68,0
72.05564,72.17522,79,66,0
72.17522,72.29535,77,64,0
72.29535,72.41625,74,61,0
72.41625,72.53773,71,60,0
72.53773,72.65979,67,56,0
72.65979,72.78243,65,54,0
72.78243,72.878586,64,51,0
72.97474,73.1561,76,48,0
73.1561,73.33745,75,48,0
73.33745,73.51881,76,48,0
73.51881,73.700165,75,49,0
73.700165,73.88152,76,49,0
73.88152,74.06902,75,49,0
74.06902,74.25652,76,49,0
74.25652,75.3622,67,53,0
75.3622,75.55321,71,49,0
75.55321,75.7645,69,49,0
75.3622,75.7645,66,49,0
75.89018,76.01056,67,54,0
76.01056,76.12563,71,56,0
76.12563,76.24071,74,57,0
76.24071,76.35578,71,58,0
76.35578,76.470856,74,61,0
76.470856,76.58593,79,61,0
76.58593,76.701004,74,63,0
76.701004,76.81608,79,64,0
76.81608,76.93115,83,64,0
76.93115,77.046234,79,67,0
77.046234,77.16131,83,68,0
77.16131,77.27779,86,69,0
77.27779,77.39427,83,70,0
77.39427,77.52121,86,73,0
77.52121,77.63912,89,73,0
77.63912,77.75759,86,70,0
77.75759,77.87661,83,68,0
77.87661,77.996185,79,66,0
77.996185,78.11632,77,64,0
78.11632,78.23723,74,61,0
78.23723,78.3587,71,60,0
78.3587,78.48076,67,56,0
78.48076,78.6034,65,54,0
78.6034,78.699554,64,51,0
78.79571,78.97822,76,48,0
78.97822,79.16072,75,48,0
79.16072,79.34322,76,46,0
79.34322,79.52573,75,49,0
79.52573,79.70823,76,47,0
79.70823,79.89073,75,49,0
79.89073,80.084335,76,47,0
80.26684,80.44934,79,54,0
80.44934,80.63146,78,58,0
80.63146,80.81282,79,55,0
80.81282,80.99418,78,61,0
80.99418,81.17457,79,59,0
81.17457,81.354774,78,61,0
81.354774,81.52714,79,64,0
81.5346,81.72187,79,62,0
81.72187,81.893524,74,51,0
81.909134,81.99596,74,54,0
82.08279,82.16961,74,51,0
82.25644,82.430084,76,57,0
82.430084,82.589264,74,53,0
82.60374,82.692726,72,52,0
82.781715,82.870705,71,51,0
82.959694,83.31565,71,49,0
83.67161,83.75688,69,48,0
83.75688,83.842155,71,45,0
83.842155,83.92744,69,48,0
83.92744,84.01271,71,45,0
84.01271,84.07166,69,48,0
84.07166,84.13062,71,46,0
84.132095,84.19105,69,46,0
84.189575,84.27801,67,51,0
84.27801,84.36644,69,48,0
84.36644,84.72018,67,50,0
85.09444,85.56345,74,50,0
85.56345,85.60609,78,48,0
85.60609,85.69137,76,48,0
85.69137,85.77664,74,48,0
85.77664,85.86453,86,57,0
86.12822,86.21611,84,56,0
86.47979,86.56769,83,54,0
86.83137,86.919266,81,51,0
87.182945,87.8861,79,55,0
87.8861,88.35511,74,50,0
88.35511,88.39775,78,48,0
88.39775,88.483025,76,48,0
88.483025,88.568306,74,48,0
88.568306,88.65674,86,56,0
88.922035,89.01271,84,53,0
89.284744,89.37543,83,52,0
89.64746,89.74363,81,49,0
90.03213,90.38586,79,53,0
90.68063,90.739586,74,56,0
90.739586,91.25124,86,70,0
91.25124,91.3081,84,52,0
91.3081,91.364944,83,51,0
91.364944,91.4218,81,48,0
91.4218,91.77553,79,53,0
92.070305,92.12926,74,56,0
92.12926,92.640915,86,71,0
92.640915,92.69776,84,53,0
92.69776,92.754616,83,51,0
92.754616,92.81146,81,49,0
92.81146,93.22819,79,53,0
93.22819,93.516655,62,42,0
93.516655,93.61281,67,41,0
93.61281,93.805115,71,43,0
93.99742,94.452034,60,36,0
93.99742,94.452034,69,36,0
94.452034,95.48154,69,36,0
94.452034,95.48154,60,36,0
95.48154,96.11835,59,37,0
95.48154,96.11835,67,37,0
96.462906,96.975174,76,60,0
96.975174,97.06079,77,54,0
97.06079,97.14641,79,54,0
97.14641,97.48888,72,60,0
97.48888,97.831345,74,49,0
97.48888,97.831345,71,49,0
97.831345,98.08819,74,53,0
98.08819,98.173805,77,48,0
97.831345,98.173805,71,53,0
98.173805,98.51627,72,53,0
98.173805,98.51627,76,53,0
98.51627,99.25038,74,50,0
98.51627,99.25038,71,50,0
99.25038,99.764084,76,60,0
99.764084,99.8497,77,56,0
99.8497,99.93532,79,56,0
99.93532,100.27778,72,61,0
100.27778,100.44901,71,49,0
100.27778,100.44901,74,49,0
100.62025,100.962715,77,54,0
100.62025,100.962715,74,54,0
100.962715,101.03194,76,49,0
101.03194,101.10115,77,49,0
101.10115,101.17037,76,49,0
101.17037,101.23959,77,49,0
101.23959,101.308815,76,49,0
100.962715,101.308815,72,49,0
101.308815,102.03331,74,52,0
101.308815,102.03331,71,52,0
102.03331,102.547005,77,64,0
102.547005,102.63262,79,60,0
102.63262,102.71824,77,60,0
102.71824,103.06071,76,64,0
103.06071,103.235634,76,62,0
103.41056,103.924255,81,69,0
103.924255,104.00987,83,63,0
104.00987,104.09549,84,63,0
104.09549,104.43796,79,69,0
104.43796,104.60919,79,69,0
104.780426,104.95166,79,68,0
104.95166,105.08008,77,63,0
105.12289,105.29412,77,64,0
105.29412,105.42255,74,63,0
105.465355,105.63659,77,69,0
105.63659,105.765015,76,64,0
105.80782,105.97906,76,66,0
105.97906,106.10748,72,64,0
106.15029,106.32152,73,64,0
106.32152,106.493355,74,60,0
106.493355,106.665794,76,64,0
106.665794,106.838844,74,62,0
106.838844,107.01284,72,63,0
107.01284,107.187454,71,61,0
107.187454,107.3627,69,61,0
107.3627,107.54876,67,60,0
107.54876,108.062454,76,70,0
108.062454,108.14807,77,64,0
108.14807,108.23369,79,64,0
108.23369,108.57616,72,70,0
108.57616,108.918625,71,60,0
108.57616,108.918625,74,60,0
108.918625,109.17547,74,63,0
109.17547,109.261086,77,57,0
108.918625,109.261086,71,63,0
109.261086,109.60355,76,63,0
109.261086,109.60355,72,63,0
109.60355,110.31555,74,61,0
109.60355,110.31555,71,61,0
110.31555,110.829254,76,70,0
110.829254,110.91487,77,67,0
110.91487,111.00048,79,67,0
111.00048,111.34295,72,71,0
111.34295,111.51418,71,60,0
111.34295,111.51418,74,60,0
111.68542,112.027885,74,64,0
111.68542,112.027885,77,64,0
112.027885,112.0971,76,60,0
112.0971,112.16632,77,60,0
112.16632,112.23554,76,60,0
112.23554,112.30476,77,60,0
112.30476,112.373985,76,60,0
112.027885,112.373985,72,60,0
112.373985,113.085464,74,62,0
112.373985,113.085464,71,62,0
113.085464,113.59917,77,77,0
113.59917,113.684784,79,70,0
113.684784,113.7704,77,70,0
113.7704,114.11286,76,77,0
114.11286,114.28779,76,74,0
114.462715,114.97642,81,78,0
114.97642,115.062035,83,71,0
115.062035,115.14765,84,69,0
115.14765,115.49011,79,79,0
115.49011,115.66135,79,77,0
115.83258,116.00658,80,77,0
116.00658,116.18057,81,74,0
116.18057,116.3518,77,75,0
116.3518,116.52303,74,72,0
116.52303,116.88253,72,75,0
116.88253,117.26233,71,71,0
117.26233,117.37832,72,75,0
117.37832,117.494316,67,69,0
117.494316,117.61031,76,66,0
117.61031,117.72631,72,75,0
117.72631,117.84231,79,69,0
117.84231,117.958305,76,66,0
117.958305,118.07246,84,73,0
118.07246,118.186615,83,66,0
118.186615,118.300766,81,65,0
118.300766,118.414925,79,70,0
118.414925,118.529076,77,67,0
118.529076,118.643234,76,65,0
118.643234,118.75985,73,63,0
118.75985,118.87647,74,60,0
118.87647,118.99309,77,60,0
118.99309,119.10679,81,62,0
119.10679,119.22049,77,57,0
119.22049,119.33419,74,57,0
119.33419,119.44789,79,61,0
119.44789,119.56159,76,57,0
119.56159,119.67529,72,57,0
119.67529,119.79106,77,61,0
119.79106,119.90683,74,55,0
119.90683,120.04574,71,55,0
120.04574,120.16203,72,75,0
120.16203,120.27832,67,69,0
120.27832,120.394615,76,67,0
120.394615,120.51091,72,75,0
120.51091,120.6272,79,69,0
120.6272,120.74349,76,67,0
120.74349,120.85765,84,73,0
120.85765,120.9718,83,66,0
120.9718,121.08596,81,64,0
121.08596,121.20011,79,70,0
121.20011,121.31427,77,67,0
121.31427,121.42843,76,65,0
121.42843,121.545044,73,63,0
121.545044,121.66166,74,60,0
121.66166,121.778244,77,59,0
121.778244,121.89128,81,62,0
121.89128,122.00431,77,57,0
122.00431,122.11734,74,55,0
122.11734,122.23038,79,61,0
122.23038,122.34341,76,57,0
122.34341,122.45644,72,54,0
122.45644,122.572205,77,61,0
122.572205,122.68797,74,55,0
122.68797,122.80273,71,55,0
122.80273,122.89767,72,52,0
123.18247,123.29277,67,50,0
123.62365,124.581726,60,50,0
124.581726,125.279396,76,50,0
125.279396,125.36661,77,46,0
125.36661,125.45382,76,46,0
125.45382,125.54059,74,46,0
125.54059,125.6268,76,46,0
125.6268,125.79836,79,50,0
125.79836,125.96853,77,46,0
125.96853,126.138985,76,51,0
126.138985,126.30944,74,49,0
126.30944,126.4799,72,49,0
126.4799,126.67133,71,49,0
126.67133,126.761696,72,52,0
127.03106,127.12031,73,55,0
127.38419,127.471405,74,56,0
127.73079,127.81602,75,60,0
128.0717,128.15692,76,63,0
128.4229,128.59595,79,62,0
128.59595,128.769,77,57,0
128.769,129.29193,76,62,0
129.29193,129.37845,77,55,0
129.37845,129.46498,76,55,0
129.46498,129.81108,74,56,0
130.17252,130.87152,77,58,0
130.87152,130.9558,79,48,0
130.9558,131.04005,77,49,0
131.04005,131.12433,76,49,0
131.12433,131.2086,77,49,0
131.2086,131.37714,81,55,0
131.37714,131.54567,79,52,0
131.54567,131.71422,77,52,0
131.71422,131.88275,76,50,0
131.88275,132.0513,74,50,0
132.0513,132.22908,72,50,0
132.22908,132.40031,71,49,0
132.40031,132.48593,72,50,0
132.57155,132.65717,74,51,0
132.74278,132.8284,76,53,0
132.91402,132.99919,77,54,0
133.08435,133.16953,79,55,0
133.25499,133.3406,81,56,0
133.42622,133.512,83,58,0
133.59805,133.68413,84,60,0
133.7702,133.85672,86,61,0
133.94325,134.02977,88,62,0
134.1163,134.2163,89,63,0
134.3163,135.03134,87,79,0
135.03134,135.38887,88,75,0
135.78978,136.25943,76,64,0
136.25943,136.37314,81,60,0
136.37314,136.48683,84,60,0
136.48683,136.60054,88,60,0
136.60054,136.71423,84,58,0
136.71423,136.82794,81,58,0
136.82794,136.94164,84,60,0
136.94164,137.05602,81,58,0
137.05602,137.1711,76,58,0
137.1711,137.64075,74,64,0
137.64075,137.75446,79,60,0
137.75446,137.86815,83,60,0
137.86815,137.98186,86,60,0
137.98186,138.09555,83,59,0
138.09555,138.20926,79,59,0
138.20926,138.32295,83,60,0
138.32295,138.43666,79,58,0
138.43666,138.55756,74,58,0
138.67126,138.78496,74,60,0
138.78496,138.89867,81,60,0
138.89867,139.01237,84,60,0
139.01237,139.12607,81,58,0
139.12607,139.25092,74,60,0
139.36461,139.47832,74,60,0
139.47832,139.59201,79,60,0
139.59201,139.70572,83,60,0
139.70572,139.83907,79,59,0
139.83907,139.97241,74,60,0
139.97241,140.2329,81,68,0
140.2329,140.31972,78,63,0
140.31972,140.66702,74,60,0
141.2921,141.39081,67,43,0
141.39081,142.24356,79,64,0
142.24356,142.41411,78,50,0
142.41411,142.58467,76,50,0
142.58467,142.74953,74,50,0
142.75522,142.92577,74,53,0
142.92577,143.09631,72,49,0
143.09631,143.26688,71,50,0
143.26688,143.43742,69,47,0
143.43742,143.5217,74,54,0
143.7745,143.85876,72,51,0
144.14854,144.49377,70,53,0
144.49377,144.83899,71,51,0
146.81508,146.91508,67,43,0
146.91508,147.76736,79,64,0
147.76736,147.93782,78,50,0
147.93782,148.10828,76,50,0
148.10828,148.27162,74,48,0
148.27873,148.44917,74,53,0
148.44917,148.61963,72,47,0
148.61963,148.79008,71,50,0
148.79008,148.96054,69,50,0
148.96054,149.04684,74,54,0
149.30577,149.39207,72,51,0
149.67072,150.01181,71,54,0
150.35292,150.43819,76,52,0
150.43819,150.52347,78,55,0
150.52347,150.60875,76,53,0
150.60875,150.69402,78,62,0
150.69402,150.86458,79,62,0
150.86458,150.94984,79,60,0
151.03513,151.37622,79,60,0
151.74161,151.82684,81,52,0
151.82684,151.91208,83,55,0
151.91208,151.99731,81,52,0
151.99731,152.08255,83,62,0
152.08255,152.25304,84,62,0
152.25304,152.33827,84,60,0
152.42351,152.76445,84,60,0
153.11401,153.19928,84,51,0
153.19928,153.28456,86,54,0
153.28456,153.36984,84,51,0
153.36984,153.45511,86,63,0
153.45511,153.62567,88,63,0
153.62567,153.71094,88,60,0
153.79622,153.96677,88,60,0
153.96677,154.13731,86,61,0
154.13731,154.2226,84,56,0
154.30788,154.39314,83,56,0
154.47842,154.5627,81,56,0
154.8155,154.89977,86,56,0
155.18407,155.53137,84,62,0
155.53137,155.89255,83,58,0
155.89255,155.97781,76,51,0
155.97781,156.0631,78,54,0
156.0631,156.14838,76,51,0
156.14838,156.23364,78,64,0
156.23364,156.4042,79,64,0
156.4042,156.48947,79,60,0
156.57475,156.91585,79,60,0
157.27393,157.35916,81,50,0
157.35916,157.4444,83,54,0
157.4444,157.52963,81,51,0
157.52963,157.61488,83,66,0
157.61488,157.78535,84,66,0
157.78535,157.87059,84,60,0
157.95583,158.29677,84,60,0
158.64633,158.7316,84,50,0
158.7316,158.81688,86,54,0
158.81688,158.90216,84,51,0
158.90216,158.98743,86,64,0
158.98743,159.15799,88,64,0
159.15799,159.24326,88,61,0
159.32854,159.49908,88,62,0
159.49908,159.66963,86,61,0
159.66963,159.75491,84,61,0
159.8402,159.92546,83,61,0
160.01074,160.18129,83,62,0
160.18129,160.35184,81,61,0
160.35184,160.43712,79,61,0
160.5224,160.62514,78,61,0
160.72787,161.19095,86,84,0
161.19095,161.30672,83,61,0
161.30672,161.42249,79,61,0
161.42249,161.53825,78,63,0
161.53825,161.65402,81,63,0
161.65402,161.76978,74,61,0
161.76978,161.88554,79,63,0
161.88554,162.00838,83,61,0
162.00838,162.13826,74,61,0
162.13826,162.60081,81,70,0
162.60081,162.71693,78,58,0
162.71693,162.8343,74,59,0
162.8343,162.95259,73,61,0
162.95259,163.07217,74,57,0
163.07217,163.19269,69,57,0
163.19269,163.31454,72,60,0
163.31454,163.44264,74,57,0
163.44264,163.57597,69,57,0
163.57597,164.03905,86,77,0
164.03905,164.15482,83,61,0
164.15482,164.27058,79,61,0
164.27058,164.38634,78,63,0
164.38634,164.5021,81,63,0
164.5021,164.61787,74,61,0
164.61787,164.73364,79,63,0
164.73364,164.85478,83,61,0
164.85478,164.98128,74,61,0
164.98128,165.44383,81,71,0
165.44383,165.55995,78,55,0
165.55995,165.67734,74,55,0
165.67734,165.79561,73,57,0
165.79561,165.91519,74,54,0
165.91519,166.0357,69,54,0
166.0357,166.15758,72,55,0
166.15758,166.28142,74,53,0
166.28142,166.40627,69,53,0
166.40627,166.5311,71,53,0
166.5311,166.65106,67,54,0
166.65106,166.76614,71,56,0
166.76614,166.88121,74,57,0
166.88121,166.99629,71,58,0
166.99629,167.11136,74,61,0
167.11136,167.22644,79,61,0
167.22644,167.3415,74,63,0
167.3415,167.45659,79,64,0
167.45659,167.57166,83,64,0
167.57166,167.68674,79,67,0
167.68674,167.8018,83,68,0
167.8018,167.91829,86,69,0
167.91829,168.03477,83,70,0
168.03477,168.16171,86,73,0
168.16171,168.27963,89,73,0
168.27963,168.3981,86,70,0
168.3981,168.51712,83,68,0
168.51712,168.63669,79,66,0
168.63669,168.75682,77,64,0
168.75682,168.87773,74,61,0
168.87773,168.9992,71,60,0
168.9992,169.12126,67,56,0
169.12126,169.24391,65,54,0
169.24391,169.34006,64,51,0
169.43622,169.61757,76,48,0
169.61757,169.79893,75,48,0
169.79893,169.98029,76,48,0
169.98029,170.16164,75,49,0
170.16164,170.343,76,49,0
170.343,170.5305,75,49,0
170.5305,170.718,76,49,0
170.718,171.82367,67,53,0
171.82367,172.01468,71,49,0
172.01468,172.22598,69,49,0
171.82367,172.22598,66,49,0
172.35165,172.47203,67,54,0
172.47203,172.58711,71,56,0
172.58711,172.70218,74,57,0
172.70218,172.81726,71,58,0
172.81726,172.93233,74,61,0
172.93233,173.04741,79,61,0
173.04741,173.16248,74,63,0
173.16248,173.27756,79,64,0
173.27756,173.39264,83,64,0
173.39264,173.5077,79,67,0
173.5077,173.62279,83,68,0
173.62279,173.73926,86,69,0
173.73926,173.85574,83,70,0
173.85574,173.9827,86,73,0
173.9827,174.1006,89,73,0
174.1006,174.21907,86,70,0
174.21907,174.33809,83,68,0
174.33809,174.45766,79,66,0
174.45766,174.5778,77,64,0
174.5778,174.6987,74,61,0
174.6987,174.82018,71,60,0
174.82018,174.94223,67,56,0
174.94223,175.06488,65,54,0
175.06488,175.16104,64,51,0
175.25719,175.4397,76,48,0
175.4397,175.6222,75,48,0
175.6222,175.8047,76,46,0
175.8047,175.9872,75,49,0
175.9872,176.16971,76,47,0
176.16971,176.35222,75,49,0
176.35222,176.5458,76,47,0
176.72832,176.91081,79,54,0
176.91081,177.09294,78,58,0
177.09294,177.27429,79,55,0
177.27429,177.45566,78,61,0
177.45566,177.63605,79,59,0
177.63605,177.81625,78,61,0
177.81625,177.98862,79,64,0
177.99608,178.18335,79,62,0
178.18335,178.35501,74,51,0
178.3706,178.45744,74,54,0
178.54427,178.63109,74,51,0
178.71791,178.89157,76,57,0
178.89157,179.05075,74,53,0
179.06522,179.1542,72,52,0
179.2432,179.33218,71,51,0
179.42117,179.77713,71,49,0
180.13309,180.21835,69,48,0
180.21835,180.30363,71,45,0
180.30363,180.38892,69,48,0
180.38892,180.47418,71,45,0
180.47418,180.53314,69,48,0
180.53314,180.5921,71,46,0
180.59357,180.65253,69,46,0
180.65105,180.73949,67,51,0
180.73949,180.82793,69,48,0
180.82793,181.18166,67,50,0
181.55591,182.02493,74,50,0
182.02493,182.06757,78,48,0
182.06757,182.15285,76,48,0
182.15285,182.23811,74,48,0
182.23811,182.32602,86,57,0
182.58969,182.67758,84,56,0
182.94127,183.02916,83,54,0
183.29285,183.38074,81,51,0
183.64442,184.34758,79,55,0
184.34758,184.81659,74,50,0
184.81659,184.85922,78,48,0
184.85922,184.9445,76,48,0
184.9445,185.02979,74,48,0
185.02979,185.11821,86,56,0
185.38351,185.4742,84,53,0
185.74623,185.8369,83,52,0
186.10893,186.20511,81,49,0
186.4936,186.84734,79,53,0
187.1421,187.20107,74,56,0
187.20107,187.71272,86,70,0
187.71272,187.76958,84,52,0
187.76958,187.82642,83,51,0
187.82642,187.88327,81,48,0
187.88327,188.237,79,53,0
188.53178,188.59074,74,56,0
188.59074,189.10239,86,71,0
189.10239,189.15924,84,53,0
189.15924,189.2161,83,51,0
189.2161,189.27295,81,49,0
189.27295,189.68967,79,53,0
189.68967,189.97813,62,42,0
189.97813,190.07428,67,41,0
190.07428,190.26659,71,43,0
190.4589,190.91351,60,36,0
190.4589,190.91351,69,36,0
190.91351,191.94301,69,36,0
190.91351,191.94301,60,36,0
191.94301,192.57982,59,37,0
191.94301,192.57982,67,37,0
192.92296,193.26608,74,47,0
193.26608,193.43654,71,43,0
193.607,193.77745,71,43,0
193.9479,193.98589,71,36,0
193.98589,194.02385,72,36,0
194.02385,194.06183,71,36,0
194.06183,194.09981,72,36,0
194.09981,194.13777,71,36,0
194.13777,194.23271,69,41,0
194.23271,194.32765,71,41,0
194.32765,194.6935,74,49,0
194.6935,194.7836,72,43,0
195.04568,195.74275,69,43,0
195.74275,196.08588,72,51,0
196.08588,196.17734,71,44,0
196.45174,196.79903,74,53,0
196.79903,196.90466,72,43,0
197.22157,197.9379,76,60,0
197.9379,198.28734,74,49,0
198.6368,198.97789,74,60,0
198.97789,199.14845,67,50,0
199.319,199.6601,67,50,0
199.6601,199.69548,68,42,0
199.69548,199.73085,69,42,0
199.73085,199.76622,68,42,0
199.76622,199.80159,69,42,0
199.80159,199.83696,68,42,0
199.83696,199.9254,66,43,0
199.9254,200.01384,68,43,0
200.01384,200.35493,69,50,0
200.35493,200.44229,72,50,0
200.70438,201.41135,76,60,0
201.41135,201.75244,74,48,0
201.75244,201.84503,67,43,0
202.12282,202.47878,72,47,0
202.47878,202.5841,66,43,0
202.90012,203.66934,69,43,0
203.66934,204.04637,67,41,0
204.38748,204.72858,74,47,0
204.72858,204.89914,71,43,0
205.06969,205.24023,71,43,0
205.41078,205.44594,71,36,0
205.44594,205.48111,72,36,0
205.48111,205.51627,71,36,0
205.51627,205.55142,72,36,0
205.55142,205.58658,71,36,0
205.58658,205.67447,69,41,0
205.67447,205.76236,71,41,0
205.76236,206.10347,74,49,0
206.10347,206.18874,72,43,0
206.44456,207.1345,69,43,0
207.1345,207.46385,72,51,0
207.46385,207.55315,71,44,0
207.821,208.14659,74,53,0
208.14659,208.23918,72,43,0
208.51695,209.19112,76,60,0
209.19112,209.5243,74,49,0
209.86137,210.19072,74,54,0
210.19072,210.276,72,47,0
210.53183,210.86118,76,55,0
210.86118,210.9496,74,43,0
211.2149,211.88515,77,61,0
211.88515,212.22026,76,51,0
212.55539,212.88474,76,56,0
212.88474,212.97194,74,49,0
213.23357,213.56291,77,57,0
213.56291,213.65327,76,47,0
213.92436,214.5946,79,64,0
214.5946,214.92972,77,54,0
215.27495,215.76897,76,56,0
215.76897,215.8513,77,53,0
215.8513,215.93364,79,53,0
215.93364,216.26297,77,56,0
216.26297,216.42764,76,56,0
216.59232,217.251,74,55,0
217.58035,217.7489,79,64,0
217.91743,218.28015,77,63,0
218.28015,218.62125,75,44,0
218.96236,219.12991,72,43,0
219.29747,219.66019,71,50,0
219.66019,220.00128,74,47,0
220.34239,220.50995,79,64,0
221.01862,221.18617,77,47,0
221.18617,221.35373,75,47,0
221.69484,221.86143,74,43,0
221.86143,222.02803,72,43,0
222.02803,222.36913,71,51,0
222.36913,222.71024,74,43,0
222.89316,223.06071,79,61,0
223.06071,223.22827,78,62,0
223.22827,223.39584,79,61,0
223.57056,223.74112,75,57,0
223.74112,223.91167,74,60,0
223.91167,224.08221,75,58,0
224.25694,224.4285,72,55,0
224.4285,224.60007,71,57,0
224.60007,224.77164,72,56,0
224.77164,225.11273,71,64,0
225.11273,225.20341,74,56,0
225.47545,225.81656,71,62,0
225.81656,225.90839,74,56,0
226.18388,226.525,71,62,0
226.525,226.61026,74,54,0
227.5483,227.90204,74,37,0
227.90204,227.99883,77,34,0
228.28923,228.64296,74,37,0
228.64296,228.74109,77,34,0
229.03548,229.4125,74,37,0
229.4125,229.50204,77,35,0
230.48843,231.0007,76,60,0
231.0007,231.08632,77,54,0
231.08632,231.17194,79,54,0
231.17194,231.5144,72,60,0
231.5144,231.85686,74,49,0
231.5144,231.85686,71,49,0
231.85686,232.11371,74,53,0
232.11371,232.19933,77,48,0
231.85686,232.19933,71,53,0
232.19933,232.5418,72,53,0
232.19933,232.5418,76,53,0
232.5418,233.27591,74,50,0
232.5418,233.27591,71,50,0
233.27591,233.78961,76,60,0
233.78961,233.87523,77,56,0
233.87523,233.96085,79,56,0
233.96085,234.3033,72,61,0
234.3033,234.47453,71,49,0
234.3033,234.47453,74,49,0
234.64577,234.98824,77,54,0
234.64577,234.98824,74,54,0
234.98824,235.05746,76,49,0
235.05746,235.12668,77,49,0
235.12668,235.19589,76,49,0
235.19589,235.26512,77,49,0
235.26512,235.33434,76,49,0
234.98824,235.33434,72,49,0
235.33434,236.05884,74,52,0
235.33434,236.05884,71,52,0
236.05884,236.57253,77,64,0
236.57253,236.65814,79,60,0
236.65814,236.74376,77,60,0
236.74376,237.08623,76,64,0
237.08623,237.26115,76,62,0
237.43608,237.94978,81,69,0
237.94978,238.0354,83,63,0
238.0354,238.12102,84,63,0
238.12102,238.46349,79,69,0
238.46349,238.63472,79,69,0
238.80595,238.97717,79,68,0
238.97717,239.1056,77,63,0
239.1484,239.31964,77,64,0
239.31964,239.44807,74,63,0
239.49088,239.66211,77,69,0
239.66211,239.79054,76,64,0
239.83334,240.00458,76,66,0
240.00458,240.133,72,64,0
240.17581,240.34705,73,64,0
240.34705,240.51888,74,60,0
240.51888,240.69131,76,64,0
240.69131,240.86436,74,62,0
240.86436,241.03836,72,63,0
241.03836,241.21298,71,61,0
241.21298,241.38823,69,61,0
241.38823,241.57428,67,60,0
241.57428,242.08798,76,70,0
242.08798,242.1736,77,64,0
242.1736,242.25922,79,64,0
242.25922,242.60168,72,70,0
242.60168,242.94414,71,60,0
242.60168,242.94414,74,60,0
242.94414,243.20099,74,63,0
243.20099,243.2866,77,57,0
242.94414,243.2866,71,63,0
243.2866,243.62907,76,63,0
243.2866,243.62907,72,63,0
243.62907,244.34108,74,61,0
243.62907,244.34108,71,61,0
244.34108,244.85477,76,70,0
244.85477,244.94038,77,67,0
244.94038,245.026,79,67,0
245.026,245.36847,72,71,0
245.36847,245.5397,71,60,0
245.36847,245.5397,74,60,0
245.71094,246.0534,74,64,0
245.71094,246.0534,77,64,0
246.0534,246.12262,76,60,0
246.12262,246.19185,77,60,0
246.19185,246.26106,76,60,0
246.26106,246.33029,77,60,0
246.33029,246.3995,76,60,0
246.0534,246.3995,72,60,0
246.3995,247.111,74,62,0
246.3995,247.111,71,62,0
247.111,247.6247,77,77,0
247.6247,247.71031,79,70,0
247.71031,247.79591,77,70,0
247.79591,248.13838,76,77,0
248.13838,248.31331,76,74,0
248.48824,249.00194,81,78,0
249.00194,249.08755,83,71,0
249.08755,249.17317,84,69,0
249.17317,249.51564,79,79,0
249.51564,249.68687,79,77,0
249.85811,250.0321,80,77,0
250.0321,250.20609,81,74,0
250.20609,250.37732,77,75,0
250.37732,250.54855,74,72,0
250.54855,250.90805,72,75,0
250.90805,251.28786,71,71,0
251.28786,251.40384,72,75,0
251.40384,251.51984,67,69,0
251.51984,251.63583,76,66,0
251.63583,251.75183,72,75,0
251.75183,251.86783,79,69,0
251.86783,251.98383,76,66,0
251.98383,252.09798,84,73,0
252.09798,252.21214,83,66,0
252.21214,252.3263,81,65,0
252.3263,252.44044,79,70,0
252.44044,252.5546,77,67,0
252.5546,252.66876,76,65,0
252.66876,252.78537,73,63,0
252.78537,252.902,74,60,0
252.902,253.01862,77,60,0
253.01862,253.13231,81,62,0
253.13231,253.24602,77,57,0
253.24602,253.35971,74,57,0
253.35971,253.47342,79,61,0
253.47342,253.58711,76,57,0
253.58711,253.70082,72,57,0
253.70082,253.81659,77,61,0
253.81659,253.93236,74,55,0
253.93236,254.07126,71,55,0
254.07126,254.18755,72,75,0
254.18755,254.30385,67,69,0
254.30385,254.42014,76,67,0
254.42014,254.53644,72,75,0
254.53644,254.65273,79,69,0
254.65273,254.76901,76,67,0
254.76901,254.88318,84,73,0
254.88318,254.99733,83,66,0
254.99733,255.11148,81,64,0
255.11148,255.22563,79,70,0
255.22563,255.3398,77,67,0
255.3398,255.45395,76,65,0
255.45395,255.57057,73,63,0
255.57057,255.68718,74,60,0
255.68718,255.80377,77,59,0
255.80377,255.9168,81,62,0
255.9168,256.02985,77,57,0
256.02985,256.14285,74,55,0
256.14285,256.2559,79,61,0
256.2559,256.36893,76,57,0
256.36893,256.48196,72,54,0
256.48196,256.59772,77,61,0
256.59772,256.7135,74,55,0
256.7135,256.82825,71,55,0
256.82825,256.9232,72,52,0
257.208,257.3183,67,50,0
257.64917,258.60724,60,50,0
258.60724,259.30493,76,50,0
259.30493,259.39212,77,46,0
259.39212,259.47934,76,46,0
259.47934,259.5661,74,46,0
259.5661,259.6523,76,46,0
259.6523,259.82388,79,50,0
259.82388,259.99405,77,46,0
259.99405,260.16452,76,51,0
260.16452,260.33496,74,49,0
260.33496,260.50543,72,49,0
260.50543,260.69687,71,49,0
260.69687,260.78723,72,52,0
261.05658,261.14584,73,55,0
261.40973,261.49692,74,56,0
261.75632,261.84155,75,60,0
262.09723,262.18246,76,63,0
262.44843,262.62146,79,62,0
262.62146,262.79453,77,57,0
262.79453,263.31744,76,62,0
263.31744,263.40396,77,55,0
263.40396,263.4905,76,55,0
263.4905,263.8366,74,56,0
264.19806,264.89703,77,58,0
264.89703,264.98132,79,48,0
264.98132,265.06558,77,49,0
265.06558,265.14984,76,49,0
265.14984,265.23413,77,49,0
265.23413,265.40265,81,55,0
265.40265,265.5712,79,52,0
265.5712,265.73975,77,52,0
265.73975,265.90826,76,50,0
265.90826,266.0768,74,50,0
266.0768,266.2546,72,50,0
266.2546,266.42584,71,49,0
266.42584,266.51144,72,50,0
266.59708,266.68268,74,51,0
266.7683,266.8539,76,53,0
266.93954,267.02472,77,54,0
267.10986,267.19504,79,55,0
267.28052,267.36612,81,56,0
267.45175,267.5375,83,58,0
267.6236,267.70966,84,60,0
267.79572,267.88223,86,61,0
267.96878,268.0553,88,62,0
268.1418,268.24182,89,63,0
268.34183,269.0569,87,79,0
269.0569,269.4144,88,75,0
269.8153,270.3516,70,64,0
270.3516,270.4653,76,60,0
270.4653,270.579,79,60,0
270.579,270.6927,82,60,0
270.6927,270.8064,79,58,0
270.8064,270.9201,76,58,0
270.9201,271.0338,79,60,0
271.0338,271.1482,76,58,0
271.1482,271.26324,70,58,0
271.26324,271.7329,69,64,0
271.7329,271.84662,72,60,0
271.84662,271.96033,77,58,0
271.96033,272.074,81,60,0
272.074,272.1877,77,59,0
272.1877,272.30142,72,59,0
272.30142,272.41513,77,60,0
272.41513,272.5288,72,59,0
272.5288,272.64972,69,59,0
272.64972,273.1194,67,64,0
273.1194,273.2331,73,60,0
273.2331,273.34677,76,58,0
273.34677,273.46,79,60,0
273.46,273.57437,76,58,0
273.57437,273.68997,73,58,0
273.68997,273.8068,76,60,0
273.8068,273.92435,73,58,0
273.92435,274.04526,67,58,0
274.04526,274.517,66,64,0
274.517,274.63275,69,60,0
274.63275,274.74854,74,57,0
274.74854,274.8622,78,60,0
274.8622,274.97592,74,58,0
274.97592,275.08963,69,58,0
275.08963,275.20334,74,60,0
275.20334,275.31702,69,58,0
275.31702,275.43793,66,58,0
275.43793,275.90897,65,64,0
275.90897,276.02405,71,60,0
276.02405,276.1391,74,58,0
276.1391,276.25418,77,60,0
276.25418,276.36926,74,58,0
276.36926,276.48434,71,58,0
276.48434,276.5994,74,60,0
276.5994,276.71448,71,58,0
276.71448,276.8354,65,59,0
276.8354,277.30505,64,64,0
277.30505,277.41876,67,60,0
277.41876,277.53244,72,60,0
277.53244,277.64615,76,60,0
277.64615,277.75986,72,58,0
277.75986,277.87357,67,58,0
277.87357,277.98724,72,60,0
277.98724,278.10095,67,57,0
278.10095,278.22186,64,57,0
278.33557,278.44925,62,60,0
278.44925,278.56296,69,58,0
278.56296,278.67667,74,58,0
278.67667,278.79037,69,60,0
278.79037,278.91522,62,58,0
279.0289,279.1426,62,60,0
279.1426,279.25632,69,57,0
279.25632,279.37003,72,60,0
279.37003,279.49442,69,58,0
279.49442,279.62958,62,58,0
279.62958,279.98114,71,63,0
280.51675,280.60822,79,62,0
280.69968,280.79584,81,64,0
280.89197,280.99615,83,68,0
281.1003,281.9903,84,64,0
281.9903,282.16394,83,50,0
282.16394,282.3376,81,51,0
282.3376,282.504,79,50,0
282.51126,282.6849,79,53,0
282.6849,282.85855,77,50,0
282.85855,283.0322,76,51,0
283.0322,283.20584,74,50,0
283.20584,283.29114,79,54,0
283.54697,283.63223,77,51,0
283.89886,284.24832,75,53,0
284.24832,284.59775,76,51,0
285.79163,285.8769,79,54,0
285.96216,286.0504,80,57,0
286.13864,286.22687,81,61,0
286.3151,286.41003,82,64,0
286.50497,286.60367,83,67,0
286.69724,287.58722,84,73,0
287.58722,287.76086,83,48,0
287.76086,287.9345,81,50,0
287.9345,288.10236,79,47,0
288.10815,288.2818,79,53,0
288.2818,288.45547,77,47,0
288.45547,288.62912,76,50,0
288.62912,288.80276,74,48,0
288.80276,288.88803,79,54,0
289.14386,289.22916,77,51,0
289.4958,289.8585,76,51,0
290.1996,290.28488,81,63,0
290.28488,290.37015,83,56,0
290.37015,290.4554,81,62,0
290.4554,290.54068,83,61,0
290.54068,290.71124,84,68,0
290.71124,290.7965,84,66,0
290.8818,291.2229,84,64,0
291.564,291.6493,86,68,0
291.6493,291.73456,88,59,0
291.73456,291.81982,86,65,0
291.81982,291.90512,88,68,0
291.90512,292.07565,89,68,0
292.07565,292.16092,89,64,0
292.24622,292.5873,89,64,0
292.93695,293.02222,77,62,0
293.02222,293.10748,79,54,0
293.10748,293.19278,77,59,0
293.19278,293.27805,79,56,0
293.27805,293.4486,81,66,0
293.4486,293.53387,81,60,0
293.61914,293.7897,81,60,0
293.7897,293.96027,79,61,0
293.96027,294.04553,77,56,0
294.1308,294.2161,76,56,0
294.30136,294.4699,74,56,0
294.63843,294.80698,79,56,0
294.99548,295.3428,77,62,0
295.3428,295.69666,76,58,0
295.69666,295.78192,69,57,0
295.78192,295.8672,71,60,0
295.8672,295.95248,69,57,0
295.95248,296.03775,71,61,0
296.03775,296.2083,72,66,0
296.2083,296.29358,72,60,0
296.37885,296.71994,72,60,0
297.06107,297.14633,74,57,0
297.14633,297.2316,76,60,0
297.2316,297.3169,74,57,0
297.3169,297.40216,76,64,0
297.40216,297.58124,77,66,0
297.58124,297.67078,77,60,0
297.7603,298.10144,77,60,0
298.45105,298.54062,77,57,0
298.54062,298.63016,79,60,0
298.63016,298.7197,77,57,0
298.7197,298.80923,79,68,0
298.80923,298.9883,81,64,0
298.9883,299.07785,81,61,0
299.1674,299.34647,81,62,0
299.34647,299.52557,79,61,0
299.52557,299.6151,77,61,0
299.70465,299.7942,76,61,0
299.88373,300.0628,76,62,0
300.0628,300.24188,74,60,0
300.24188,300.33142,72,61,0
300.421,300.5237,71,59,0
300.62646,301.08954,79,78,0
301.08954,301.2053,76,61,0
301.2053,301.32108,72,61,0
301.32108,301.43683,71,63,0
301.43683,301.55258,74,63,0
301.55258,301.66837,67,61,0
301.66837,301.78412,72,63,0
301.78412,301.90527,76,61,0
301.90527,302.03177,67,59,0
302.03177,302.49432,74,77,0
302.49432,302.61044,71,55,0
302.61044,302.7278,67,52,0
302.7278,302.8461,66,57,0
302.8461,302.96567,67,54,0
302.96567,303.08618,62,54,0
303.08618,303.20807,65,55,0
303.20807,303.3409,67,53,0
303.3409,303.48376,62,53,0
303.48376,303.94684,79,75,0
303.94684,304.0626,76,61,0
304.0626,304.17838,72,60,0
304.17838,304.29413,71,63,0
304.29413,304.4099,74,63,0
304.4099,304.52567,67,61,0
304.52567,304.64145,72,63,0
304.64145,304.76257,76,61,0
304.76257,304.88907,67,61,0
304.88907,305.35162,74,77,0
305.35162,305.46774,71,55,0
305.46774,305.5851,67,55,0
305.5851,305.7034,66,57,0
305.7034,305.82297,67,54,0
305.82297,305.94348,62,54,0
305.94348,306.06537,65,55,0
306.06537,306.1931,67,53,0
306.1931,306.32578,62,53,0
306.32578,306.45312,64,53,0
306.45312,306.5743,60,54,0
306.5743,306.6894,64,56,0
306.6894,306.80447,67,57,0
306.80447,306.91956,64,58,0
306.91956,307.0346,67,61,0
307.0346,307.1497,72,61,0
307.1497,307.26477,67,63,0
307.26477,307.37985,72,64,0
307.37985,307.49493,76,64,0
307.49493,307.61,72,67,0
307.61,307.72507,76,68,0
307.72507,307.84155,79,69,0
307.84155,307.95804,76,70,0
307.95804,308.085,79,73,0
308.085,308.20288,82,73,0
308.20288,308.32135,79,70,0
308.32135,308.44037,76,68,0
308.44037,308.55994,72,66,0
308.55994,308.68008,70,64,0
308.68008,308.801,67,61,0
308.801,308.92245,72,60,0
308.92245,309.04453,70,56,0
309.04453,309.16718,68,54,0
309.16718,309.2633,69,51,0
309.35947,309.54083,81,52,0
309.54083,309.7222,80,51,0
309.7222,309.90353,81,48,0
309.90353,310.0849,80,52,0
310.0849,310.26813,81,49,0
310.26813,310.45554,80,52,0
310.45554,310.648,81,49,0
310.648,311.38284,72,53,0
311.38284,311.47586,74,46,0
311.47586,311.56888,72,45,0
311.56888,311.66193,71,46,0
311.66193,311.75494,72,49,0
311.75494,311.94595,76,44,0
311.94595,312.13696,74,49,0
311.75494,312.13696,71,44,0
312.13696,312.26263,72,54,0
312.26263,312.38303,67,54,0
312.38303,312.4981,72,56,0
312.4981,312.61316,76,57,0
312.61316,312.72824,72,58,0
312.72824,312.84332,76,61,0
312.84332,312.9584,79,61,0
312.9584,313.07346,76,63,0
313.07346,313.18854,79,64,0
313.18854,313.30362,84,64,0
313.30362,313.4187,86,67,0
313.4187,313.53375,84,68,0
313.53375,313.65024,82,69,0
313.65024,313.76672,81,70,0
313.76672,313.89368,79,73,0
313.89368,314.0116,77,73,0
314.0116,314.13007,76,70,0
314.13007,314.24908,74,68,0
314.24908,314.36865,72,66,0
314.36865,314.48877,74,64,0
314.48877,314.60968,72,61,0
314.60968,314.73117,70,60,0
314.73117,314.8532,69,56,0
314.8532,314.97586,68,54,0
314.97586,315.0786,69,51,0
315.18134,315.36386,81,48,0
315.36386,315.54636,80,51,0
315.54636,315.72885,81,48,0
315.72885,315.91135,80,52,0
315.91135,316.09387,81,49,0
316.09387,316.27637,80,51,0
316.27637,316.46997,81,49,0
316.65247,316.83496,84,60,0
316.83496,317.0171,83,60,0
317.0171,317.19846,84,57,0
317.19846,317.38834,83,60,0
317.38834,317.57013,84,61,0
317.57013,317.75034,83,63,0
317.75034,317.925,84,66,0
317.9399,318.12717,84,68,0
318.12717,318.29883,79,60,0
318.31445,318.40128,79,60,0
318.4881,318.5807,79,60,0
318.67328,318.85184,81,62,0
318.85184,319.03043,79,58,0
319.03043,319.11942,77,57,0
319.2084,319.3039,76,56,0
319.3994,319.75314,76,54,0
320.10687,320.19214,74,48,0
320.19214,320.27744,76,45,0
320.27744,320.3627,74,48,0
320.3627,320.44797,76,45,0
320.44797,320.50693,74,48,0
320.50693,320.5659,76,46,0
320.56735,320.6263,74,46,0
320.62485,320.7133,72,51,0
320.7133,320.8017,74,48,0
320.8017,321.15543,72,55,0
321.50916,321.97818,67,50,0
321.97818,322.0208,71,48,0
322.0208,322.1061,69,48,0
322.1061,322.19138,67,48,0
322.19138,322.27927,79,57,0
322.54294,322.63086,77,56,0
322.89453,322.98242,76,54,0
323.2461,323.33398,74,51,0
323.5977,324.30084,72,55,0
324.30084,324.76984,67,50,0
324.76984,324.8125,71,48,0
324.8125,324.89777,69,48,0
324.89777,324.98303,67,48,0
324.98303,325.07147,79,56,0
325.33676,325.4252,77,53,0
325.6905,325.77893,76,52,0
326.04422,326.13492,74,49,0
326.4131,326.7668,72,53,0
327.06158,327.12054,67,56,0
327.12054,327.6322,79,66,0
327.6322,327.68906,77,56,0
327.68906,327.7459,76,56,0
327.7459,327.80276,74,52,0
327.80276,328.1565,72,53,0
328.45126,328.51022,67,56,0
328.51022,329.02188,79,66,0
329.02188,329.10715,81,60,0
329.10715,329.19244,83,55,0
329.19244,329.54187,84,67,0
329.89133,330.00504,79,69,0
330.00504,330.1187,81,63,0
330.1187,330.23242,79,63,0
330.23242,330.34613,77,65,0
330.34613,330.45984,76,63,0
330.45984,330.57352,74,59,0
330.57352,330.9251,72,60,0
331.27667,331.38904,78,72,0
331.38904,331.5014,79,65,0
331.5014,331.61377,80,66,0
331.61377,331.7261,81,69,0
331.7261,331.83847,82,67,0
331.83847,331.95084,83,65,0
331.95084,332.34558,84,60,0
332.34558,332.6176,67,42,0
332.6176,332.70828,72,42,0
332.70828,332.80133,76,44,0
333.0804,333.1813,74,41,0
333.0804,333.1813,65,41,0
333.48395,334.29105,74,42,0
333.48395,334.29105,65,42,0
334.29105,334.6946,72,36,0
334.29105,334.6946,64,36,0
335.09818,335.28802,69,66,0
335.09818,335.28802,81,79,0
335.09818,335.28802,77,66,0
335.09818,335.28802,74,66,0
335.85767,336.04752,71,79,0
335.85767,336.04752,62,66,0
335.85767,336.04752,65,66,0
335.85767,336.04752,67,66,0
336.61716,336.7838,72,79,0
336.61716,336.7838,67,66,0
336.61716,336.7838,60,66,0
336.61716,336.7838,64,66,0
337.95047,338.2936,74,47,0
338.2936,338.46408,71,43,0
338.63452,338.805,71,43,0
338.97543,339.0134,71,36,0
339.0134,339.0514,72,36,0
339.0514,339.08936,71,36,0
339.08936,339.12732,72,36,0
339.12732,339.1653,71,36,0
339.1653,339.26025,69,41,0
339.26025,339.3552,71,41,0
339.3552,339.72104,74,49,0
339.72104,339.81113,72,43,0
340.0732,340.77026,69,43,0
340.77026,341.1134,72,51,0
341.1134,341.20486,71,44,0
341.47925,341.82657,74,53,0
341.82657,341.9322,72,43,0
342.24908,342.96542,76,60,0
342.96542,343.31488,74,49,0
343.6643,344.00543,74,60,0
344.00543,344.17596,67,50,0
344.34653,344.68762,67,50,0
344.68762,344.723,68,42,0
344.723,344.75836,69,42,0
344.75836,344.79376,68,42,0
344.79376,344.82913,69,42,0
344.82913,344.8645,68,42,0
344.8645,344.95294,66,43,0
344.95294,345.04135,68,43,0
345.04135,345.38248,69,50,0
345.38248,345.46982,72,50,0
345.7319,346.43887,76,60,0
346.43887,346.77997,74,48,0
346.77997,346.87256,67,43,0
347.15033,347.5063,72,47,0
347.5063,347.61163,66,43,0
347.92764,348.69687,69,43,0
348.69687,349.0739,67,41,0
349.415,349.7561,74,47,0
349.7561,349.92667,71,43,0
350.0972,350.26776,71,43,0
350.43832,350.47348,71,36,0
350.47348,350.50864,72,36,0
350.50864,350.5438,71,36,0
350.5438,350.57895,72,36,0
350.57895,350.6141,71,36,0
350.6141,350.702,69,41,0
350.702,350.7899,71,41,0
350.7899,351.13098,74,49,0
351.13098,351.21628,72,43,0
351.4721,352.17905,69,43,0
352.17905,352.5084,72,51,0
352.5084,352.5977,71,44,0
352.86554,353.19113,74,53,0
353.19113,353.28372,72,43,0
353.5615,354.23566,76,60,0
354.23566,354.56885,74,49,0
354.9059,355.23526,74,54,0
355.23526,355.32056,72,47,0
355.5764,355.90573,76,55,0
355.90573,355.99414,74,43,0
356.25946,356.9297,77,61,0
356.9297,357.2648,76,51,0
357.61365,357.943,76,56,0
357.943,358.0302,74,49,0
358.29184,358.6212,77,57,0
358.6212,358.71155,76,47,0
358.9826,359.65286,79,64,0
359.65286,359.98798,77,54,0
360.3332,360.8272,76,56,0
360.8272,360.90955,77,53,0
360.90955,360.99188,79,53,0
360.99188,361.32123,77,56,0
361.32123,361.4859,76,56,0
361.65057,362.30927,74,55,0
362.6386,362.80908,79,64,0
362.97952,363.34222,77,63,0
363.34222,363.68335,75,44,0
364.02444,364.19202,72,43,0
364.35956,364.7223,71,50,0
364.7223,365.0634,74,47,0
365.40448,365.57205,79,64,0
366.08072,366.24826,77,47,0
366.24826,366.41583,75,47,0
366.75693,366.92352,74,43,0
366.92352,367.09012,72,43,0
367.09012,367.4312,71,51,0
367.4312,367.7723,74,43,0
367.95526,368.1228,79,61,0
368.1228,368.29037,78,62,0
368.29037,368.45792,79,61,0
368.63266,368.8032,75,57,0
368.8032,368.97375,74,60,0
368.97375,369.14432,75,58,0
369.31903,369.4906,72,55,0
369.4906,369.66217,71,57,0
369.66217,369.83374,72,56,0
369.83374,370.17484,71,64,0
370.17484,370.2655,74,56,0
370.53754,370.87866,71,62,0
370.87866,370.9705,74,56,0
371.24597,371.5871,71,62,0
371.5871,371.67236,74,54,0
372.61038,372.97183,74,37,0
372.97183,373.06863,77,34,0
373.35904,373.7205,74,37,0
373.7205,373.8186,77,34,0
374.113,374.49002,74,37,0
374.49002,374.57956,77,35,0
375.56595,376.07822,76,60,0
376.07822,376.16385,77,54,0
376.16385,376.24945,79,54,0
376.24945,376.59192,72,60,0
376.59192,376.9344,71,49,0
376.59192,376.9344,74,49,0
376.9344,377.19122,74,53,0
377.19122,377.27686,77,48,0
376.9344,377.27686,71,53,0
377.27686,377.61932,72,53,0
377.27686,377.61932,76,53,0
377.61932,378.35342,74,50,0
377.61932,378.35342,71,50,0
378.35342,378.86713,76,60,0
378.86713,378.95273,77,56,0
378.95273,379.03836,79,56,0
379.03836,379.38083,72,61,0
379.38083,379.55206,71,49,0
379.38083,379.55206,74,49,0
379.7233,380.06577,74,54,0
379.7233,380.06577,77,54,0
380.06577,380.13498,76,49,0
380.13498,380.2042,77,49,0
380.2042,380.2734,76,49,0
380.2734,380.34265,77,49,0
380.34265,380.41187,76,49,0
380.06577,380.41187,72,49,0
380.41187,381.13635,74,52,0
380.41187,381.13635,71,52,0
381.13635,381.65005,77,64,0
381.65005,381.73566,79,60,0
381.73566,381.8213,77,60,0
381.8213,382.16376,76,64,0
382.16376,382.33868,76,62,0
382.5136,383.0273,81,69,0
383.0273,383.1129,83,63,0
383.1129,383.19855,84,63,0
383.19855,383.54102,79,69,0
383.54102,383.71225,79,69,0
383.88345,384.0547,79,68,0
384.0547,384.18314,77,63,0
384.22592,384.39716,77,64,0
384.39716,384.5256,74,63,0
384.5684,384.73962,77,69,0
384.73962,384.86807,76,64,0
384.91086,385.0821,76,66,0
385.0821,385.2105,72,64,0
385.25333,385.42456,73,64,0
385.42456,385.5964,74,60,0
385.5964,385.76883,76,64,0
385.76883,385.9419,74,62,0
385.9419,386.11588,72,63,0
386.11588,386.2905,71,61,0
386.2905,386.46573,69,61,0
386.46573,386.6518,67,60,0
386.6518,387.1655,76,70,0
387.1655,387.25113,77,64,0
387.25113,387.33673,79,64,0
387.33673,387.6792,72,70,0
387.6792,388.02167,74,60,0
387.6792,388.02167,71,60,0
388.02167,388.2785,74,63,0
388.2785,388.36414,77,57,0
388.02167,388.36414,71,63,0
388.36414,388.7066,76,63,0
388.36414,388.7066,72,63,0
388.7066,389.4186,74,61,0
388.7066,389.4186,71,61,0
389.4186,389.93228,76,70,0
389.93228,390.0179,77,67,0
390.0179,390.10352,79,67,0
390.10352,390.44598,72,71,0
390.44598,390.61722,71,60,0
390.44598,390.61722,74,60,0
390.78845,391.13092,77,64,0
390.78845,391.13092,74,64,0
391.13092,391.20013,76,60,0
391.20013,391.26938,77,60,0
391.26938,391.3386,76,60,0
391.3386,391.4078,77,60,0
391.4078,391.47702,76,60,0
391.13092,391.47702,72,60,0
391.47702,392.1885,74,62,0
391.47702,392.1885,71,62,0
392.1885,392.7022,77,77,0
392.7022,392.7878,79,70,0
392.7878,392.87344,77,70,0
392.87344,393.2159,76,77,0
393.2159,393.39084,76,74,0
393.56577,394.07947,81,78,0
394.07947,394.16507,83,71,0
394.16507,394.2507,84,69,0
394.2507,394.59317,79,79,0
394.59317,394.7644,79,77,0
394.93564,395.10962,80,77,0
395.10962,395.2836,81,74,0
395.2836,395.45483,77,75,0
395.45483,395.62607,74,72,0
395.62607,395.98557,72,75,0
395.98557,396.36536,71,71,0
396.36536,396.48135,72,75,0
396.48135,396.59735,67,69,0
396.59735,396.71335,76,66,0
396.71335,396.82935,72,75,0
396.82935,396.94534,79,69,0
396.94534,397.06134,76,66,0
397.06134,397.1755,84,73,0
397.1755,397.28964,83,66,0
397.28964,397.4038,81,65,0
397.4038,397.51797,79,70,0
397.51797,397.6321,77,67,0
397.6321,397.74628,76,65,0
397.74628,397.86288,73,63,0
397.86288,397.97952,74,60,0
397.97952,398.09613,77,60,0
398.09613,398.20984,81,62,0
398.20984,398.32355,77,57,0
398.32355,398.43723,74,57,0
398.43723,398.55093,79,61,0
398.55093,398.66464,76,57,0
398.66464,398.77835,72,57,0
398.77835,398.8941,77,61,0
398.8941,399.0099,74,55,0
399.0099,399.14877,71,55,0
399.14877,399.26508,72,75,0
399.26508,399.38138,67,69,0
399.38138,399.49765,76,67,0
399.49765,399.61395,72,75,0
399.61395,399.73026,79,69,0
399.73026,399.84653,76,67,0
399.84653,399.9607,84,73,0
399.9607,400.07486,83,66,0
400.07486,400.189,81,64,0
400.189,400.30316,79,70,0
400.30316,400.41733,77,67,0
400.41733,400.53146,76,65,0
400.53146,400.6481,73,63,0
400.6481,400.7647,74,60,0
400.7647,400.8813,77,59,0
400.8813,400.99432,81,62,0
400.99432,401.10736,77,57,0
401.10736,401.2204,74,55,0
401.2204,401.3334,79,61,0
401.3334,401.44644,76,57,0
401.44644,401.55948,72,54,0
401.55948,401.67526,77,61,0
401.67526,401.79102,74,55,0
401.79102,401.90576,71,55,0
401.90576,402.0071,72,52,0
402.3112,402.42148,67,50,0
402.75235,403.71042,60,50,0
403.71042,404.4081,76,50,0
404.4081,404.4953,77,46,0
404.4953,404.58252,76,46,0
404.58252,404.66928,74,46,0
404.66928,404.7555,76,46,0
404.7555,404.92706,79,50,0
404.92706,405.09723,77,46,0
405.09723,405.2677,76,51,0
405.2677,405.43814,74,49,0
405.43814,405.60858,72,49,0
405.60858,405.80005,71,49,0
405.80005,405.8904,72,52,0
406.15976,406.24902,73,55,0
406.5129,406.6001,74,56,0
406.8595,406.94473,75,60,0
407.2004,407.28564,76,63,0
407.5516,407.72464,79,62,0
407.72464,407.8977,77,57,0
407.8977,408.42062,76,62,0
408.42062,408.50714,77,55,0
408.50714,408.5937,76,55,0
408.5937,408.9398,74,56,0
409.30124,410.0002,77,58,0
410.0002,410.0845,79,48,0
410.0845,410.16876,77,49,0
410.16876,410.25302,76,49,0
410.25302,410.3373,77,49,0
410.3373,410.50583,81,55,0
410.50583,410.67438,79,52,0
410.67438,410.84293,77,52,0
410.84293,411.01144,76,50,0
411.01144,411.18,74,50,0
411.18,411.3578,72,50,0
411.3578,411.52902,71,49,0
411.52902,411.61462,72,50,0
411.70026,411.78586,74,51,0
411.8715,411.9571,76,53,0
412.04272,412.1279,77,54,0
412.21304,412.29822,79,55,0
412.3837,412.4693,81,56,0
412.55493,412.6407,83,58,0
412.72678,412.81284,84,60,0
412.8989,412.9854,86,61,0
413.07196,413.15848,88,62,0
413.245,413.345,89,63,0
413.445,414.16006,87,79,0
414.16006,414.51758,88,75,0
414.9185,415.45477,70,64,0
415.45477,415.56848,76,60,0
415.56848,415.6822,79,60,0
415.6822,415.7933,82,60,0
415.7933,415.9044,79,58,0
415.9044,416.0155,76,58,0
416.0155,416.1292,79,60,0
416.1292,416.2436,76,58,0
416.2436,416.35867,70,58,0
416.35867,416.8283,69,64,0
416.8283,416.94202,72,60,0
416.94202,417.05573,77,58,0
417.05573,417.16684,81,60,0
417.16684,417.27795,77,59,0
417.27795,417.38907,72,59,0
417.38907,417.50018,77,60,0
417.50018,417.61127,72,59,0
417.61127,417.73218,69,59,0
417.73218,418.20184,67,64,0
418.20184,418.31555,73,60,0
418.31555,418.42923,76,58,0
418.42923,418.54245,79,60,0
418.54245,418.65683,76,58,0
418.65683,418.77243,73,58,0
418.77243,418.88925,76,60,0
418.88925,419.0068,73,58,0
419.0068,419.12772,67,58,0
419.12772,419.59946,66,64,0
419.59946,419.7152,69,60,0
419.7152,419.831,74,57,0
419.831,419.94467,78,60,0
419.94467,420.05838,74,58,0
420.05838,420.1721,69,58,0
420.1721,420.2858,74,60,0
420.2858,420.39948,69,58,0
420.39948,420.5204,66,58,0
420.5204,420.99142,65,64,0
420.99142,421.1065,71,60,0
421.1065,421.22156,74,58,0
421.22156,421.33664,77,60,0
421.33664,421.45172,74,58,0
421.45172,421.5668,71,58,0
421.5668,421.6819,74,60,0
421.6819,421.79694,71,58,0
421.79694,421.91785,65,59,0
421.91785,422.3875,64,64,0
422.3875,422.50122,67,60,0
422.50122,422.6149,72,60,0
422.6149,422.7286,76,60,0
422.7286,422.84232,72,58,0
422.84232,422.95602,67,58,0
422.95602,423.0697,72,60,0
423.0697,423.1834,67,57,0
423.1834,423.30432,64,57,0
423.41803,423.5317,62,60,0
423.5317,423.64542,69,58,0
423.64542,423.75912,74,58,0
423.75912,423.87283,69,60,0
423.87283,423.99768,62,58,0
424.11136,424.22507,62,60,0
424.22507,424.33878,69,57,0
424.33878,424.45248,72,60,0
424.45248,424.5769,69,58,0
424.5769,424.71204,62,58,0
424.71204,425.0636,71,63,0
425.5992,425.69067,79,62,0
425.78214,425.88214,81,64,0
425.98212,426.09082,83,68,0
426.19952,427.0895,84,64,0
427.0895,427.26315,83,50,0
427.26315,427.4368,81,51,0
427.4368,427.6032,79,50,0
427.61044,427.78412,79,53,0
427.78412,427.95776,77,50,0
427.95776,428.1314,76,51,0
428.1314,428.30505,74,50,0
428.30505,428.39035,79,54,0
428.64618,428.73145,77,51,0
428.99808,429.34753,75,53,0
429.34753,429.69696,76,51,0
430.89084,430.9761,79,54,0
431.06137,431.1486,80,57,0
431.2358,431.323,81,61,0
431.41022,431.5089,82,64,0
431.60757,431.71786,83,67,0
431.81918,432.70917,84,73,0
432.70917,432.8828,83,48,0
432.8828,433.05646,81,50,0
433.05646,433.22433,79,47,0
433.2301,433.40375,79,53,0
433.40375,433.57742,77,47,0
433.57742,433.75107,76,50,0
433.75107,433.9247,74,48,0
433.9247,434.00998,79,54,0
434.2658,434.3511,77,51,0
434.61774,434.98044,76,51,0
435.32153,435.40683,81,63,0
435.40683,435.4921,83,56,0
435.4921,435.57736,81,62,0
435.57736,435.66266,83,61,0
435.66266,435.8332,84,68,0
435.8332,435.9185,84,66,0
436.00375,436.34485,84,64,0
436.68594,436.77124,86,68,0
436.77124,436.8565,88,59,0
436.8565,436.94177,86,65,0
436.94177,437.02707,88,68,0
437.02707,437.1976,89,68,0
437.1976,437.2829,89,64,0
437.36816,437.70926,89,64,0
438.0589,438.14417,77,62,0
438.14417,438.22946,79,54,0
438.22946,438.31473,77,59,0
438.31473,438.4,79,56,0
438.4,438.57056,81,66,0
438.57056,438.65582,81,60,0
438.7411,438.91165,81,60,0
438.91165,439.0822,79,61,0
439.0822,439.16748,77,56,0
439.25275,439.33804,76,56,0
439.4233,439.59186,74,56,0
439.76038,439.92892,79,56,0
440.11743,440.46475,77,62,0
440.46475,440.8186,76,58,0
440.8186,440.90387,69,57,0
440.90387,440.98914,71,60,0
440.98914,441.07443,69,57,0
441.07443,441.1597,71,61,0
441.1597,441.33026,72,66,0
441.33026,441.41553,72,60,0
441.5008,441.84192,72,60,0
442.183,442.26828,74,57,0
442.26828,442.35355,76,60,0
442.35355,442.43884,74,57,0
442.43884,442.5241,76,64,0
442.5241,442.7032,77,66,0
442.7032,442.79272,77,60,0
442.88226,443.2234,77,60,0
443.57303,443.66257,77,57,0
443.66257,443.7521,79,60,0
443.7521,443.84164,77,57,0
443.84164,443.93118,79,68,0
443.93118,444.11026,81,64,0
444.11026,444.1998,81,61,0
444.28934,444.46844,81,62,0
444.46844,444.64752,79,61,0
444.64752,444.73706,77,61,0
444.8266,444.91614,76,61,0
445.00568,445.18475,76,62,0
445.18475,445.36383,74,60,0
445.36383,445.4534,72,61,0
445.54294,445.64566,71,59,0
445.7484,446.2115,79,78,0
446.2115,446.32724,76,61,0
446.32724,446.44302,72,61,0
446.44302,446.55878,71,63,0
446.55878,446.67456,74,63,0
446.67456,446.7903,67,61,0
446.7903,446.9061,72,63,0
446.9061,447.02722,76,61,0
447.02722,447.15372,67,59,0
447.15372,447.61627,74,77,0
447.61627,447.7324,71,55,0
447.7324,447.84976,67,52,0
447.84976,447.96805,66,57,0
447.96805,448.08762,67,54,0
448.08762,448.20813,62,54,0
448.20813,448.33002,65,55,0
448.33002,448.46286,67,53,0
448.46286,448.6057,62,53,0
448.6057,449.0688,79,75,0
449.0688,449.18454,76,61,0
449.18454,449.30032,72,60,0
449.30032,449.41608,71,63,0
449.41608,449.53186,74,63,0
449.53186,449.6476,67,61,0
449.6476,449.7634,72,63,0
449.7634,449.88452,76,61,0
449.88452,450.01102,67,61,0
450.01102,450.47357,74,77,0
450.47357,450.5897,71,55,0
450.5897,450.70706,67,55,0
450.70706,450.82535,66,57,0
450.82535,450.94492,67,54,0
450.94492,451.06546,62,54,0
451.06546,451.18732,65,55,0
451.18732,451.31506,67,53,0
451.31506,451.44772,62,53,0
451.44772,451.57507,64,53,0
451.57507,451.69626,60,54,0
451.69626,451.81134,64,56,0
451.81134,451.92642,67,57,0
451.92642,452.0415,64,58,0
452.0415,452.1566,67,61,0
452.1566,452.27164,72,61,0
452.27164,452.38672,67,63,0
452.38672,452.5018,72,64,0
452.5018,452.61688,76,64,0
452.61688,452.73193,72,67,0
452.73193,452.84702,76,68,0
452.84702,452.9635,79,69,0
452.9635,453.08,76,70,0
453.08,453.20694,79,73,0
453.20694,453.32483,82,73,0
453.32483,453.4433,79,70,0
453.4433,453.56232,76,68,0
453.56232,453.68192,72,66,0
453.68192,453.80203,70,64,0
453.80203,453.92294,67,61,0
453.92294,454.0444,72,60,0
454.0444,454.16647,70,56,0
454.16647,454.28912,68,54,0
454.28912,454.38528,69,51,0
454.4814,454.66278,81,52,0
454.66278,454.84415,80,51,0
454.84415,455.02548,81,48,0
455.02548,455.20685,80,52,0
455.20685,455.39008,81,49,0
455.39008,455.5775,80,52,0
455.5775,455.76996,81,49,0
455.76996,456.5048,72,53,0
456.5048,456.5978,74,46,0
456.5978,456.69086,72,45,0
456.69086,456.78387,71,46,0
456.78387,456.8769,72,49,0
456.8769,457.0679,76,44,0
457.0679,457.2589,74,49,0
456.8769,457.2589,71,44,0
457.2589,457.38458,72,54,0
457.38458,457.50497,67,54,0
457.50497,457.62006,72,56,0
457.62006,457.7351,76,57,0
457.7351,457.8502,72,58,0
457.8502,457.96527,76,61,0
457.96527,458.08035,79,61,0
458.08035,458.1954,76,63,0
458.1954,458.3105,79,64,0
458.3105,458.42557,84,64,0
458.42557,458.54065,86,67,0
458.54065,458.65573,84,68,0
458.65573,458.7722,82,69,0
458.7722,458.88867,81,70,0
458.88867,459.01562,79,73,0
459.01562,459.13354,77,73,0
459.13354,459.252,76,70,0
459.252,459.37103,74,68,0
459.37103,459.4906,72,66,0
459.4906,459.61075,74,64,0
459.61075,459.73163,72,61,0
459.73163,459.85312,70,60,0
459.85312,459.97516,69,56,0
459.97516,460.0978,68,54,0
460.0978,460.20056,69,51,0
460.30328,460.4858,81,48,0
460.4858,460.6683,80,51,0
460.6683,460.8508,81,48,0
460.8508,461.03333,80,52,0
461.03333,461.21582,81,49,0
461.21582,461.39832,80,51,0
461.39832,461.59192,81,49,0
461.7744,461.95694,84,60,0
461.95694,462.13904,83,60,0
462.13904,462.3204,84,57,0
462.3204,462.51028,83,60,0
462.51028,462.69208,84,61,0
462.69208,462.87228,83,63,0
462.87228,463.04694,84,66,0
463.06186,463.2491,84,68,0
463.2491,463.42078,79,60,0
463.4364,463.52322,79,60,0
463.61005,463.70264,79,60,0
463.79523,463.9738,81,62,0
463.9738,464.15237,79,58,0
464.15237,464.24136,77,57,0
464.33035,464.42584,76,56,0
464.52136,464.8751,76,54,0
465.22882,465.3141,74,48,0
465.3141,465.39938,76,45,0
465.39938,465.48465,74,48,0
465.48465,465.56992,76,45,0
465.56992,465.62888,74,48,0
465.62888,465.68784,76,46,0
465.6893,465.74826,74,46,0
465.7468,465.83524,72,51,0
465.83524,465.92365,74,48,0
465.92365,466.27737,72,55,0
466.63113,467.10013,67,50,0
467.10013,467.14276,71,48,0
467.14276,467.22806,69,48,0
467.22806,467.31332,67,48,0
467.31332,467.4012,79,57,0
467.66492,467.7528,77,56,0
468.01648,468.10437,76,54,0
468.36804,468.45596,74,51,0
468.71964,469.4228,72,55,0
469.4228,469.89178,67,50,0
469.89178,469.93445,71,48,0
469.93445,470.0197,69,48,0
470.0197,470.10498,67,48,0
470.10498,470.19342,79,56,0
470.4587,470.54715,77,53,0
470.81244,470.90088,76,52,0
471.1662,471.25687,74,49,0
471.53503,471.88876,72,53,0
472.18356,472.2425,67,56,0
472.2425,472.75415,79,66,0
472.75415,472.811,77,56,0
472.811,472.86786,76,56,0
472.86786,472.9247,74,52,0
472.9247,473.27844,72,53,0
473.5732,473.63217,67,56,0
473.63217,474.14383,79,66,0
474.14383,474.2291,81,60,0
474.2291,474.3144,83,55,0
474.3144,474.66382,84,67,0
475.01328,475.12198,79,69,0
475.12198,475.23065,81,63,0
475.23065,475.33936,79,63,0
475.33936,475.44806,77,65,0
475.44806,475.55676,76,63,0
475.55676,475.66544,74,59,0
475.66544,476.01703,72,60,0
476.3686,476.4785,78,72,0
476.4785,476.58838,79,65,0
476.58838,476.69827,80,66,0
476.69827,476.80817,81,69,0
476.80817,476.91806,82,67,0
476.91806,477.02795,83,65,0
477.02795,477.42267,84,60,0
477.42267,477.6947,67,42,0
477.6947,477.7854,72,42,0
477.7854,477.87842,76,44,0
478.1575,478.26465,74,41,0
478.1575,478.26465,65,41,0
478.5861,479.39688,74,42,0
478.5861,479.39688,65,42,0
479.39688,479.8023,72,36,0
479.39688,479.8023,64,36,0
480.2077,480.4077,69,69,0
480.2077,480.4077,81,82,0
480.2077,480.4077,77,69,0
480.2077,480.4077,74,69,0
481.0077,481.2283,71,82,0
481.0077,481.2283,62,69,0
481.0077,481.2283,65,69,0
481.0077,481.2283,67,69,0
481.89005,482.10132,72,82,0
481.89005,482.10132,67,69,0
481.89005,482.10132,60,69,0
481.89005,482.10132,64,69,0
0.342466,0.684932,48,40,0
0.684932,1.027398,52,40,0
1.027398,1.369864,55,40,0
1.369864,1.71233,60,43,0
1.71233,2.054796,48,40,0
2.054796,2.4042425,55,43,0
2.4042425,2.788907,43,40,0
3.131373,3.473839,48,40,0
3.473839,3.816305,52,40,0
3.816305,4.158771,55,43,0
4.158771,4.501237,60,44,0
4.501237,4.8473377,48,41,0
4.8473377,5.196784,55,43,0
5.196784,5.571831,43,41,0
5.571831,5.914297,57,47,0
5.914297,6.256763,60,46,0
6.256763,6.599229,55,49,0
6.599229,6.949083,60,45,0
6.949083,7.291549,53,49,0
7.291549,7.634015,60,47,0
7.634015,7.976481,52,50,0
7.976481,8.318947,60,46,0
8.661413,9.003879,59,43,0
8.661413,9.003879,67,43,0
9.346345,9.688811,60,43,0
9.346345,9.688811,67,43,0
9.688811,10.377371,55,44,0
9.688811,10.377371,59,44,0
11.08728,11.258513,36,64,0
11.258513,11.429747,40,56,0
11.429747,11.600979,43,57,0
11.600979,11.772212,48,56,0
11.772212,11.943445,40,60,0
11.943445,12.114678,52,57,0
12.114678,12.285912,43,60,0
12.285912,12.457144,55,57,0
12.457144,12.628377,48,60,0
12.628377,12.79961,52,55,0
12.79961,12.970843,55,57,0
12.970843,13.1420765,60,56,0
13.1420765,13.315126,43,60,0
13.315126,13.488176,47,57,0
13.488176,13.671126,50,59,0
13.671126,13.854075,55,57,0
13.854075,14.025309,36,60,0
14.025309,14.196541,40,56,0
14.196541,14.367774,43,57,0
14.367774,14.539007,48,55,0
14.539007,14.71024,40,60,0
14.71024,14.881474,52,57,0
14.881474,15.052706,43,58,0
15.052706,15.223939,55,57,0
15.223939,15.395172,48,60,0
15.395172,15.566405,52,55,0
15.566405,15.739455,55,57,0
15.739455,15.912506,60,56,0
15.912506,16.085556,43,62,0
16.085556,16.258606,47,56,0
16.258606,16.431656,50,57,0
16.431656,16.62399,55,56,0
16.62399,16.795221,57,53,0
16.795221,16.966455,60,49,0
16.966455,17.137688,57,53,0
17.137688,17.30892,60,49,0
17.30892,17.480154,55,53,0
17.480154,17.651386,60,50,0
17.651386,17.826313,55,53,0
17.826313,18.00124,60,50,0
18.00124,18.172474,53,57,0
18.172474,18.343706,60,53,0
18.343706,18.51494,53,57,0
18.51494,18.686172,60,53,0
18.686172,18.857407,52,57,0
18.857407,19.028639,60,53,0
19.028639,19.199871,52,57,0
19.199871,19.371105,60,52,0
19.719091,19.890326,53,49,0
19.719091,19.890326,62,49,0
20.061558,20.421055,64,49,0
20.421055,20.80085,62,49,0
20.061558,20.80085,55,49,0
20.80085,21.496824,60,49,0
20.80085,21.496824,64,49,0
22.53161,22.872713,57,38,0
22.53161,22.872713,53,38,0
22.53161,22.872713,62,38,0
22.872713,23.213818,64,38,0
22.872713,23.213818,60,38,0
23.213818,23.584259,62,44,0
23.213818,23.584259,65,44,0
22.872713,23.584259,55,38,0
23.584259,24.282017,64,49,0
23.584259,24.282017,60,49,0
25.316769,25.655867,53,38,0
25.316769,25.655867,62,38,0
25.316769,25.655867,57,38,0
25.655867,25.994965,64,38,0
25.655867,25.994965,60,38,0
25.994965,26.341251,62,40,0
25.994965,26.341251,65,40,0
25.655867,26.341251,55,38,0
26.341251,26.436188,64,38,0
26.341251,26.436188,60,38,0
26.720999,26.831293,55,38,0
27.162174,28.120247,48,38,0
27.162174,28.120247,36,38,0
28.120247,28.294666,60,37,0
28.294666,28.469084,67,30,0
28.469084,28.643503,66,33,0
28.643503,28.81792,67,30,0
28.81792,28.99234,60,37,0
28.99234,29.165321,67,30,0
29.165321,29.336885,62,33,0
29.336885,29.507053,67,30,0
29.507053,29.677507,64,37,0
29.677507,29.847961,67,30,0
29.847961,30.018417,65,33,0
30.018417,30.209856,67,30,0
30.209856,30.39058,64,37,0
30.39058,30.56958,67,30,0
30.56958,30.747066,58,33,0
30.747066,30.922716,67,31,0
30.922716,31.0969,59,38,0
31.0969,31.269314,67,31,0
31.269314,31.43977,59,35,0
31.43977,31.610224,67,32,0
31.610224,31.780678,60,41,0
31.780678,31.961422,67,33,0
31.961422,32.13447,62,37,0
32.13447,32.30752,67,33,0
32.30752,32.48057,60,40,0
32.48057,32.653625,67,30,0
32.653625,32.83045,66,33,0
32.83045,33.003498,67,30,0
33.003498,33.176548,59,37,0
33.176548,33.349598,67,31,0
33.349598,33.530323,66,33,0
33.530323,33.711044,67,32,0
33.711044,33.88228,59,37,0
33.88228,34.053513,67,31,0
34.053513,34.224743,66,33,0
34.224743,34.41004,67,31,0
34.41004,34.578583,59,37,0
34.578583,34.74712,67,31,0
34.74712,34.91566,60,33,0
34.91566,35.0842,67,31,0
35.0842,35.25274,62,37,0
35.25274,35.42128,67,31,0
35.42128,35.589817,64,33,0
35.589817,35.767605,67,31,0
35.767605,35.93884,65,37,0
35.93884,36.110073,67,32,0
36.110073,36.281303,62,34,0
36.281303,36.452538,67,31,0
36.452538,36.622875,59,40,0
36.622875,36.793514,67,31,0
36.793514,36.964745,62,34,0
36.964745,37.13658,67,31,0
37.13658,37.30872,59,46,0
37.30872,37.48177,67,35,0
37.48177,37.65482,55,37,0
37.65482,37.85482,67,35,0
37.85482,38.03358,60,44,0
38.03358,38.212345,67,37,0
38.212345,38.39111,65,40,0
38.39111,38.56987,67,37,0
38.56987,38.748634,60,44,0
38.748634,38.9274,67,37,0
38.9274,39.117004,64,40,0
39.117004,39.3283,67,37,0
39.3283,39.446953,60,48,0
39.446953,39.565605,64,43,0
39.565605,39.684258,67,43,0
39.684258,40.02536,72,46,0
40.709618,40.82827,59,48,0
40.82827,40.946922,62,43,0
40.946922,41.065575,67,43,0
41.065575,41.406677,71,48,0
42.096085,42.43719,54,50,0
42.096085,42.43719,62,50,0
42.096085,42.43719,57,50,0
42.789436,43.13054,62,52,0
42.789436,43.13054,55,52,0
42.789436,43.13054,59,52,0
43.51094,43.684593,50,57,0
43.684593,43.858246,62,39,0
43.858246,44.031895,61,40,0
44.031895,44.205547,62,41,0
44.205547,44.379196,61,44,0
44.379196,44.55285,62,45,0
44.55285,44.731934,60,47,0
44.731934,44.929325,62,49,0
44.929325,45.099876,59,49,0
45.099876,45.270428,62,44,0
45.270428,45.440983,55,35,0
45.440983,45.611534,62,30,0
45.611534,45.782085,59,37,0
45.782085,45.952637,62,32,0
45.952637,46.123188,55,35,0
46.123188,46.29374,62,34,0
46.29374,46.46429,57,37,0
46.46429,46.634842,62,34,0
46.634842,46.805393,55,37,0
46.805393,46.975945,62,34,0
46.975945,47.144485,54,37,0
47.144485,47.313023,62,34,0
47.313023,47.481564,50,37,0
47.481564,47.68707,62,34,0
47.68707,47.85968,55,38,0
47.85968,48.032295,62,34,0
48.032295,48.204906,61,34,0
48.204906,48.377518,62,34,0
48.377518,48.54807,61,39,0
48.54807,48.71862,62,41,0
48.71862,48.88917,64,44,0
48.88917,49.059727,62,41,0
49.059727,49.230278,60,49,0
49.230278,49.40083,62,47,0
49.40083,49.57138,59,49,0
49.57138,49.741932,62,47,0
49.741932,49.912483,60,49,0
49.912483,50.083035,62,47,0
50.083035,50.253586,57,49,0
50.253586,50.453613,62,47,0
50.453613,50.624065,59,49,0
50.624065,50.79452,62,42,0
50.79452,50.964977,55,35,0
50.964977,51.13543,62,30,0
51.13543,51.305885,59,37,0
51.305885,51.476337,62,30,0
51.476337,51.646793,55,35,0
51.646793,51.81725,62,30,0
51.81725,51.9877,57,37,0
51.9877,52.158157,62,34,0
52.158157,52.328613,55,37,0
52.328613,52.499065,62,34,0
52.499065,52.671677,54,37,0
52.671677,52.84429,62,34,0
52.84429,53.016903,50,37,0
53.016903,53.209236,62,34,0
53.209236,53.379787,55,37,0
53.379787,53.55034,62,34,0
53.55034,53.72089,59,37,0
53.72089,53.89144,62,34,0
53.89144,54.061993,55,37,0
54.061993,54.232544,64,29,0
54.232544,54.403095,60,32,0
54.403095,54.573647,64,29,0
54.573647,54.744198,55,32,0
54.744198,54.91475,62,30,0
54.91475,55.0853,59,32,0
55.0853,55.280132,62,31,0
55.280132,55.450607,53,32,0
55.450607,55.62108,60,30,0
55.62108,55.791553,57,32,0
55.791553,55.96203,60,30,0
55.96203,56.132504,52,32,0
56.132504,56.302975,60,30,0
56.302975,56.47345,55,32,0
56.47345,56.652534,60,30,0
56.652534,56.823086,48,40,0
56.823086,56.993637,55,34,0
56.993637,57.16419,52,40,0
57.16419,57.33474,55,33,0
57.33474,57.50529,50,39,0
57.50529,57.675842,59,34,0
57.675842,57.846394,55,39,0
57.846394,58.016945,59,34,0
58.016945,58.185486,50,39,0
58.185486,58.354023,60,34,0
58.354023,58.522564,54,38,0
58.522564,58.72259,60,33,0
58.72259,58.89624,55,40,0
58.89624,59.069893,62,35,0
59.069893,59.24354,59,40,0
59.24354,59.43107,62,34,0
59.43107,59.60162,55,32,0
59.60162,59.77217,64,30,0
59.77217,59.942722,60,32,0
59.942722,60.113274,64,30,0
60.113274,60.283825,55,32,0
60.283825,60.454376,62,30,0
60.454376,60.624928,59,32,0
60.624928,60.81245,62,30,0
60.81245,60.982925,53,32,0
60.982925,61.1534,60,29,0
61.1534,61.32387,57,32,0
61.32387,61.494347,60,29,0
61.494347,61.66482,52,34,0
61.66482,61.835297,60,30,0
61.835297,62.005768,55,33,0
62.005768,62.184853,60,29,0
62.184853,62.355404,48,41,0
62.355404,62.525955,55,38,0
62.525955,62.696507,52,40,0
62.696507,62.867058,55,37,0
62.867058,63.03761,50,40,0
63.03761,63.20816,59,37,0
63.20816,63.37871,55,39,0
63.37871,63.549263,59,32,0
63.549263,63.719814,50,38,0
63.719814,63.890366,60,33,0
63.890366,64.06092,57,38,0
64.06092,64.266396,60,32,0
64.6137,64.961006,55,38,0
64.6137,64.961006,59,38,0
64.961006,65.308304,60,44,0
64.961006,65.308304,57,44,0
65.308304,65.67679,62,49,0
65.308304,65.67679,59,49,0
66.024086,66.37283,50,37,0
66.024086,66.37283,54,37,0
66.37283,66.73121,52,40,0
66.37283,66.73121,55,40,0
66.73121,67.114494,54,44,0
66.73121,67.114494,57,44,0
67.4618,67.8091,59,38,0
67.4618,67.8091,55,38,0
67.8091,68.1564,60,44,0
67.8091,68.1564,57,44,0
68.1564,68.519806,59,49,0
68.1564,68.519806,62,49,0
68.86711,69.21585,54,37,0
68.86711,69.21585,50,37,0
69.21585,69.57423,52,40,0
69.21585,69.57423,55,40,0
69.57423,69.94478,54,44,0
69.57423,69.94478,57,44,0
69.94478,70.64989,55,44,0
71.34033,72.78243,47,44,0
71.34033,72.78243,50,44,0
71.34033,72.78243,43,44,0
72.78243,73.51881,48,38,0
71.34033,73.51881,55,44,0
74.617966,74.99008,58,37,0
74.617966,74.99008,49,37,0
74.99008,75.3622,59,40,0
74.99008,75.3622,50,40,0
75.3622,75.7645,60,44,0
75.7645,76.470856,59,44,0
75.7645,76.470856,55,44,0
77.16131,78.6034,47,44,0
77.16131,78.6034,50,44,0
77.16131,78.6034,43,44,0
78.6034,79.34322,48,38,0
77.16131,79.34322,55,44,0
80.084335,80.81282,49,41,0
80.084335,80.81282,58,41,0
81.5346,81.72187,50,48,0
81.72187,81.909134,59,40,0
81.909134,82.08279,55,41,0
82.08279,82.25644,59,39,0
82.25644,82.430084,50,48,0
82.430084,82.60374,59,40,0
82.60374,82.781715,55,41,0
82.781715,82.959694,59,40,0
82.959694,83.13767,50,43,0
83.13767,83.31565,62,37,0
83.31565,83.49363,55,38,0
83.49363,83.67161,62,36,0
83.67161,83.842155,50,39,0
83.842155,84.01271,60,30,0
84.01271,84.189575,54,32,0
84.189575,84.36644,60,30,0
84.36644,84.54331,55,35,0
84.54331,84.72018,59,30,0
84.72018,84.89704,67,32,0
84.89704,85.09444,59,30,0
85.09444,85.264984,55,35,0
85.264984,85.43554,59,30,0
85.43554,85.60609,67,32,0
85.60609,85.77664,59,30,0
85.77664,85.95243,55,35,0
85.95243,86.12822,57,30,0
86.12822,86.30401,66,32,0
86.30401,86.47979,57,30,0
86.47979,86.65558,55,35,0
86.65558,86.83137,60,30,0
86.83137,87.00716,66,32,0
87.00716,87.182945,60,30,0
87.182945,87.358734,55,35,0
87.358734,87.53452,59,30,0
87.53452,87.71031,67,32,0
87.71031,87.8861,59,31,0
87.8861,88.05665,55,35,0
88.05665,88.2272,59,30,0
88.2272,88.39775,67,32,0
88.39775,88.568306,59,30,0
88.568306,88.74517,55,35,0
88.74517,88.922035,57,30,0
88.922035,89.10339,66,32,0
89.10339,89.284744,57,30,0
89.284744,89.4661,55,35,0
89.4661,89.64746,60,30,0
89.64746,89.83979,66,32,0
89.83979,90.03213,60,30,0
90.03213,90.20899,55,35,0
90.20899,90.38586,59,30,0
90.38586,90.56272,67,32,0
90.56272,90.739586,59,30,0
90.739586,90.91014,55,35,0
90.91014,91.080696,60,30,0
91.080696,91.25124,66,32,0
91.25124,91.4218,60,30,0
91.4218,91.59866,55,35,0
91.59866,91.77553,59,30,0
91.77553,91.95239,67,32,0
91.95239,92.12926,59,30,0
92.12926,92.29981,55,35,0
92.29981,92.47036,60,30,0
92.47036,92.640915,66,32,0
92.640915,92.81146,60,30,0
92.81146,93.22819,55,31,0
92.81146,93.22819,59,31,0
92.81146,93.22819,67,31,0
93.99742,94.452034,50,30,0
94.452034,94.93598,55,33,0
94.93598,95.48154,50,32,0
95.48154,96.11835,43,33,0
96.80394,97.14641,48,40,0
97.14641,97.48888,52,40,0
97.48888,97.831345,55,40,0
97.831345,98.173805,60,43,0
98.173805,98.51627,48,40,0
98.51627,98.86572,55,43,0
98.86572,99.25038,43,40,0
99.59285,99.93532,48,40,0
99.93532,100.27778,52,40,0
100.27778,100.62025,55,43,0
100.62025,100.962715,60,44,0
100.962715,101.308815,48,41,0
101.308815,101.658264,55,43,0
101.658264,102.03331,43,41,0
102.03331,102.37577,57,47,0
102.37577,102.71824,60,46,0
102.71824,103.06071,55,49,0
103.06071,103.41056,60,45,0
103.41056,103.75303,53,49,0
103.75303,104.09549,60,47,0
104.09549,104.43796,52,50,0
104.43796,104.780426,60,46,0
105.12289,105.465355,59,43,0
105.12289,105.465355,67,43,0
105.80782,106.15029,60,43,0
105.80782,106.15029,67,43,0
106.15029,106.838844,55,44,0
106.15029,106.838844,59,44,0
107.54876,107.71999,36,64,0
107.71999,107.89122,40,56,0
107.89122,108.062454,43,57,0
108.062454,108.23369,48,56,0
108.23369,108.40492,40,60,0
108.40492,108.57616,52,57,0
108.57616,108.74739,43,60,0
108.74739,108.918625,55,57,0
108.918625,109.08985,48,60,0
109.08985,109.261086,52,55,0
109.261086,109.43232,55,57,0
109.43232,109.60355,60,56,0
109.60355,109.7766,43,60,0
109.7766,109.94965,47,57,0
109.94965,110.13261,50,59,0
110.13261,110.31555,55,57,0
110.31555,110.486786,36,60,0
110.486786,110.65802,40,56,0
110.65802,110.829254,43,57,0
110.829254,111.00048,48,55,0
111.00048,111.171715,40,60,0
111.171715,111.34295,52,57,0
111.34295,111.51418,43,58,0
111.51418,111.68542,55,57,0
111.68542,111.85665,48,60,0
111.85665,112.027885,52,55,0
112.027885,112.200935,55,57,0
112.200935,112.373985,60,56,0
112.373985,112.547035,43,62,0
112.547035,112.720085,47,56,0
112.720085,112.893135,50,57,0
112.893135,113.085464,55,56,0
113.085464,113.2567,57,53,0
113.2567,113.42793,60,49,0
113.42793,113.59917,57,53,0
113.59917,113.7704,60,49,0
113.7704,113.94163,55,53,0
113.94163,114.11286,60,50,0
114.11286,114.28779,55,53,0
114.28779,114.462715,60,50,0
114.462715,114.63395,53,57,0
114.63395,114.80518,60,53,0
114.80518,114.97642,53,57,0
114.97642,115.14765,60,53,0
115.14765,115.318886,52,57,0
115.318886,115.49011,60,53,0
115.49011,115.66135,52,57,0
115.66135,115.83258,60,52,0
116.18057,116.3518,53,49,0
116.18057,116.3518,62,49,0
116.52303,116.88253,64,49,0
116.88253,117.26233,62,49,0
116.52303,117.26233,55,49,0
117.26233,117.958305,60,49,0
117.26233,117.958305,64,49,0
118.99309,119.33419,57,38,0
118.99309,119.33419,53,38,0
118.99309,119.33419,62,38,0
119.33419,119.67529,64,38,0
119.33419,119.67529,60,38,0
119.67529,120.04574,62,44,0
119.67529,120.04574,65,44,0
119.33419,120.04574,55,38,0
120.04574,120.74349,64,49,0
120.04574,120.74349,60,49,0
121.778244,122.11734,53,38,0
121.778244,122.11734,62,38,0
121.778244,122.11734,57,38,0
122.11734,122.45644,64,38,0
122.11734,122.45644,60,38,0
122.45644,122.80273,62,40,0
122.45644,122.80273,65,40,0
122.11734,122.80273,55,38,0
122.80273,122.89767,64,38,0
122.80273,122.89767,60,38,0
123.18247,123.29277,55,38,0
123.62365,124.581726,48,38,0
123.62365,124.581726,36,38,0
124.581726,124.75614,60,37,0
124.75614,124.930565,67,30,0
124.930565,125.10498,66,33,0
125.10498,125.279396,67,30,0
125.279396,125.45382,60,37,0
125.45382,125.6268,67,30,0
125.6268,125.79836,62,33,0
125.79836,125.96853,67,30,0
125.96853,126.138985,64,37,0
126.138985,126.30944,67,30,0
126.30944,126.4799,65,33,0
126.4799,126.67133,67,30,0
126.67133,126.85206,64,37,0
126.85206,127.03106,67,30,0
127.03106,127.20854,58,33,0
127.20854,127.38419,67,31,0
127.38419,127.55838,59,38,0
127.55838,127.73079,67,31,0
127.73079,127.901245,59,35,0
127.901245,128.0717,67,32,0
128.0717,128.24216,60,41,0
128.24216,128.4229,67,33,0
128.4229,128.59595,62,37,0
128.59595,128.769,67,33,0
128.769,128.94205,60,40,0
128.94205,129.1151,67,30,0
129.1151,129.29193,66,33,0
129.29193,129.46498,67,30,0
129.46498,129.63803,59,37,0
129.63803,129.81108,67,31,0
129.81108,129.9918,66,33,0
129.9918,130.17252,67,32,0
130.17252,130.34375,59,37,0
130.34375,130.51498,67,31,0
130.51498,130.68622,66,33,0
130.68622,130.87152,67,31,0
130.87152,131.04005,59,37,0
131.04005,131.2086,67,31,0
131.2086,131.37714,60,33,0
131.37714,131.54567,67,31,0
131.54567,131.71422,62,37,0
131.71422,131.88275,67,31,0
131.88275,132.0513,64,33,0
132.0513,132.22908,67,31,0
132.22908,132.40031,65,37,0
132.40031,132.57155,67,32,0
132.57155,132.74278,62,34,0
132.74278,132.91402,67,31,0
132.91402,133.08435,59,40,0
133.08435,133.25499,67,31,0
133.25499,133.42622,62,34,0
133.42622,133.59805,67,31,0
133.59805,133.7702,59,46,0
133.7702,133.94325,67,35,0
133.94325,134.1163,55,37,0
134.1163,134.3163,67,35,0
134.3163,134.49506,60,44,0
134.49506,134.67383,67,37,0
134.67383,134.85258,65,40,0
134.85258,135.03134,67,37,0
135.03134,135.21011,60,44,0
135.21011,135.38887,67,37,0
135.38887,135.57848,64,40,0
135.57848,135.78978,67,37,0
135.78978,135.90843,60,48,0
135.90843,136.02708,64,43,0
136.02708,136.14574,67,43,0
136.14574,136.48683,72,46,0
137.1711,137.28975,59,48,0
137.28975,137.4084,62,43,0
137.4084,137.52705,67,43,0
137.52705,137.86815,71,48,0
138.55756,138.89867,54,50,0
138.55756,138.89867,62,50,0
138.55756,138.89867,57,50,0
139.25092,139.59201,62,52,0
139.25092,139.59201,55,52,0
139.25092,139.59201,59,52,0
139.97241,140.14607,50,57,0
140.14607,140.31972,62,39,0
140.31972,140.49338,61,40,0
140.49338,140.66702,62,41,0
140.66702,140.84067,61,44,0
140.84067,141.01433,62,45,0
141.01433,141.1934,60,47,0
141.1934,141.39081,62,49,0
141.39081,141.56136,59,49,0
141.56136,141.7319,62,44,0
141.7319,141.90245,55,35,0
141.90245,142.07301,62,30,0
142.07301,142.24356,59,37,0
142.24356,142.41411,62,32,0
142.41411,142.58467,55,35,0
142.58467,142.75522,62,34,0
142.75522,142.92577,57,37,0
142.92577,143.09631,62,34,0
143.09631,143.26688,55,37,0
143.26688,143.43742,62,34,0
143.43742,143.60596,54,37,0
143.60596,143.7745,62,34,0
143.7745,143.94304,50,37,0
143.94304,144.14854,62,34,0
144.14854,144.32115,55,38,0
144.32115,144.49377,62,34,0
144.49377,144.66638,61,34,0
144.66638,144.83899,62,34,0
144.83899,145.00955,61,39,0
145.00955,145.1801,62,41,0
145.1801,145.35065,64,44,0
145.35065,145.5212,62,41,0
145.5212,145.69176,60,49,0
145.69176,145.8623,62,47,0
145.8623,146.03285,59,49,0
146.03285,146.20341,62,47,0
146.20341,146.37396,60,49,0
146.37396,146.54451,62,47,0
146.54451,146.71506,57,49,0
146.71506,146.91508,62,47,0
146.91508,147.08554,59,49,0
147.08554,147.256,62,42,0
147.256,147.42645,55,35,0
147.42645,147.59691,62,30,0
147.59691,147.76736,59,37,0
147.76736,147.93782,62,30,0
147.93782,148.10828,55,35,0
148.10828,148.27873,62,30,0
148.27873,148.44917,57,37,0
148.44917,148.61963,62,34,0
148.61963,148.79008,55,37,0
148.79008,148.96054,62,34,0
148.96054,149.13315,54,37,0
149.13315,149.30577,62,34,0
149.30577,149.47838,50,37,0
149.47838,149.67072,62,34,0
149.67072,149.84126,55,37,0
149.84126,150.01181,62,34,0
150.01181,150.18237,59,37,0
150.18237,150.35292,62,34,0
150.35292,150.52347,55,37,0
150.52347,150.69402,64,29,0
150.69402,150.86458,60,32,0
150.86458,151.03513,64,29,0
151.03513,151.20567,55,32,0
151.20567,151.37622,62,30,0
151.37622,151.54678,59,32,0
151.54678,151.74161,62,31,0
151.74161,151.91208,53,32,0
151.91208,152.08255,60,30,0
152.08255,152.25304,57,32,0
152.25304,152.42351,60,30,0
152.42351,152.59398,52,32,0
152.59398,152.76445,60,30,0
152.76445,152.93492,55,32,0
152.93492,153.11401,60,30,0
153.11401,153.28456,48,40,0
153.28456,153.45511,55,34,0
153.45511,153.62567,52,40,0
153.62567,153.79622,55,33,0
153.79622,153.96677,50,39,0
153.96677,154.13731,59,34,0
154.13731,154.30788,55,39,0
154.30788,154.47842,59,34,0
154.47842,154.64696,50,39,0
154.64696,154.8155,60,34,0
154.8155,154.98404,54,38,0
154.98404,155.18407,60,33,0
155.18407,155.35771,55,40,0
155.35771,155.53137,62,35,0
155.53137,155.70502,59,40,0
155.70502,155.89255,62,34,0
155.89255,156.0631,55,32,0
156.0631,156.23364,64,30,0
156.23364,156.4042,60,32,0
156.4042,156.57475,64,30,0
156.57475,156.7453,55,32,0
156.7453,156.91585,62,30,0
156.91585,157.08641,59,32,0
157.08641,157.27393,62,30,0
157.27393,157.4444,53,32,0
157.4444,157.61488,60,29,0
157.61488,157.78535,57,32,0
157.78535,157.95583,60,29,0
157.95583,158.1263,52,34,0
158.1263,158.29677,60,30,0
158.29677,158.46724,55,33,0
158.46724,158.64633,60,29,0
158.64633,158.81688,48,41,0
158.81688,158.98743,55,38,0
158.98743,159.15799,52,40,0
159.15799,159.32854,55,37,0
159.32854,159.49908,50,40,0
159.49908,159.66963,59,37,0
159.66963,159.8402,55,39,0
159.8402,160.01074,59,32,0
160.01074,160.18129,50,38,0
160.18129,160.35184,60,33,0
160.35184,160.5224,57,38,0
160.5224,160.72787,60,32,0
161.07518,161.42249,55,38,0
161.07518,161.42249,59,38,0
161.42249,161.76978,60,44,0
161.42249,161.76978,57,44,0
161.76978,162.13826,62,49,0
161.76978,162.13826,59,49,0
162.48557,162.8343,50,37,0
162.48557,162.8343,54,37,0
162.8343,163.19269,52,40,0
162.8343,163.19269,55,40,0
163.19269,163.57597,54,44,0
163.19269,163.57597,57,44,0
163.92328,164.27058,59,38,0
163.92328,164.27058,55,38,0
164.27058,164.61787,60,44,0
164.27058,164.61787,57,44,0
164.61787,164.98128,59,49,0
164.61787,164.98128,62,49,0
165.32858,165.67734,54,37,0
165.32858,165.67734,50,37,0
165.67734,166.0357,52,40,0
165.67734,166.0357,55,40,0
166.0357,166.40627,54,44,0
166.0357,166.40627,57,44,0
166.40627,167.11136,55,44,0
167.8018,169.24391,47,44,0
167.8018,169.24391,50,44,0
167.8018,169.24391,43,44,0
169.24391,169.98029,48,38,0
167.8018,169.98029,55,44,0
171.07944,171.45155,58,37,0
171.07944,171.45155,49,37,0
171.45155,171.82367,59,40,0
171.45155,171.82367,50,40,0
171.82367,172.22598,60,44,0
172.22598,172.93233,59,44,0
172.22598,172.93233,55,44,0
173.62279,175.06488,47,44,0
173.62279,175.06488,50,44,0
173.62279,175.06488,43,44,0
175.06488,175.8047,48,38,0
173.62279,175.8047,55,44,0
176.5458,177.27429,49,41,0
176.5458,177.27429,58,41,0
177.99608,178.18335,50,48,0
178.18335,178.3706,59,40,0
178.3706,178.54427,55,41,0
178.54427,178.71791,59,39,0
178.71791,178.89157,50,48,0
178.89157,179.06522,59,40,0
179.06522,179.2432,55,41,0
179.2432,179.42117,59,40,0
179.42117,179.59915,50,43,0
179.59915,179.77713,62,37,0
179.77713,179.95511,55,38,0
179.95511,180.13309,62,36,0
180.13309,180.30363,50,39,0
180.30363,180.47418,60,30,0
180.47418,180.65105,54,32,0
180.65105,180.82793,60,30,0
180.82793,181.00479,55,35,0
181.00479,181.18166,59,30,0
181.18166,181.35852,67,32,0
181.35852,181.55591,59,30,0
181.55591,181.72647,55,35,0
181.72647,181.89702,59,30,0
181.89702,182.06757,67,32,0
182.06757,182.23811,59,30,0
182.23811,182.41391,55,35,0
182.41391,182.58969,57,30,0
182.58969,182.76549,66,32,0
182.76549,182.94127,57,30,0
182.94127,183.11707,55,35,0
183.11707,183.29285,60,30,0
183.29285,183.46863,66,32,0
183.46863,183.64442,60,30,0
183.64442,183.8202,55,35,0
183.8202,183.996,59,30,0
183.996,184.17178,67,32,0
184.17178,184.34758,59,31,0
184.34758,184.51813,55,35,0
184.51813,184.68867,59,30,0
184.68867,184.85922,67,32,0
184.85922,185.02979,59,30,0
185.02979,185.20665,55,35,0
185.20665,185.38351,57,30,0
185.38351,185.56487,66,32,0
185.56487,185.74623,57,30,0
185.74623,185.92758,55,35,0
185.92758,186.10893,60,30,0
186.10893,186.30127,66,32,0
186.30127,186.4936,60,30,0
186.4936,186.67047,55,35,0
186.67047,186.84734,59,30,0
186.84734,187.0242,67,32,0
187.0242,187.20107,59,30,0
187.20107,187.37161,55,35,0
187.37161,187.54218,60,30,0
187.54218,187.71272,66,32,0
187.71272,187.88327,60,30,0
187.88327,188.06013,55,35,0
188.06013,188.237,59,30,0
188.237,188.41386,67,32,0
188.41386,188.59074,59,30,0
188.59074,188.76129,55,35,0
188.76129,188.93184,60,30,0
188.93184,189.10239,66,32,0
189.10239,189.27295,60,30,0
189.27295,189.68967,55,31,0
189.27295,189.68967,59,31,0
189.27295,189.68967,67,31,0
190.4589,190.91351,50,30,0
190.91351,191.39746,55,33,0
191.39746,191.94301,50,32,0
191.94301,192.57982,43,33,0
192.92296,193.26608,59,39,0
193.26608,193.43654,55,38,0
192.92296,193.607,62,39,0
193.607,193.77745,55,40,0
193.607,193.77745,62,40,0
193.9479,194.32765,55,38,0
193.9479,194.32765,62,38,0
194.32765,194.6935,59,40,0
194.6935,194.7836,57,38,0
194.32765,195.04568,62,40,0
195.04568,195.74275,62,38,0
195.04568,195.74275,54,38,0
195.74275,196.08588,57,41,0
196.08588,196.17734,55,38,0
195.74275,196.45174,62,41,0
196.45174,196.79903,59,40,0
196.79903,196.90466,57,38,0
196.45174,197.22157,62,40,0
197.22157,197.9379,60,50,0
197.9379,198.28734,59,40,0
197.22157,198.28734,62,50,0
199.319,200.01384,50,38,0
199.319,200.01384,47,38,0
200.01384,200.70438,52,38,0
200.01384,200.70438,48,38,0
200.70438,201.41135,55,40,0
200.70438,201.41135,49,40,0
201.41135,202.12282,59,34,0
202.12282,202.90012,57,34,0
201.41135,202.90012,50,34,0
202.90012,203.66934,60,39,0
203.66934,204.04637,59,35,0
202.90012,204.04637,55,39,0
204.38748,204.55803,59,38,0
204.55803,204.72858,62,30,0
204.72858,204.89914,55,35,0
204.89914,205.06969,62,30,0
205.06969,205.24023,55,38,0
205.24023,205.41078,62,32,0
205.41078,205.58658,56,37,0
205.58658,205.76236,62,32,0
205.76236,205.9329,57,40,0
205.9329,206.10347,62,31,0
206.10347,206.27402,55,35,0
206.27402,206.44456,62,30,0
206.44456,206.61513,54,38,0
206.61513,206.78568,62,35,0
206.78568,206.96008,50,38,0
206.96008,207.1345,62,34,0
207.1345,207.29918,55,38,0
207.29918,207.46385,67,34,0
207.46385,207.64243,59,38,0
207.64243,207.821,67,33,0
207.821,207.9838,57,40,0
207.9838,208.14659,67,38,0
208.14659,208.33177,60,40,0
208.33177,208.51695,67,38,0
208.51695,208.6855,60,47,0
208.6855,208.85403,67,38,0
208.85403,209.02258,64,40,0
209.02258,209.19112,67,38,0
209.19112,209.35771,59,40,0
209.35771,209.5243,67,33,0
209.5243,209.69284,62,38,0
209.69284,209.86137,67,34,0
209.86137,210.02605,57,39,0
210.02605,210.19072,67,35,0
210.19072,210.36128,60,39,0
210.36128,210.53183,67,34,0
210.53183,210.6965,59,41,0
210.6965,210.86118,67,37,0
210.86118,211.03804,62,40,0
211.03804,211.2149,67,37,0
211.2149,211.38246,62,50,0
211.38246,211.55002,67,38,0
211.55002,211.71759,65,41,0
211.71759,211.88515,67,38,0
211.88515,212.0527,60,41,0
212.0527,212.22026,67,37,0
212.22026,212.38783,64,39,0
212.38783,212.55539,67,37,0
212.55539,212.72006,59,40,0
212.72006,212.88474,67,38,0
212.88474,213.05914,62,40,0
213.05914,213.23357,67,37,0
213.23357,213.39824,60,45,0
213.39824,213.56291,67,40,0
213.56291,213.74364,64,45,0
213.74364,213.92436,67,40,0
213.92436,214.09192,64,52,0
214.09192,214.25948,67,41,0
214.25948,214.42703,66,45,0
214.42703,214.5946,67,40,0
214.5946,214.76216,62,45,0
214.76216,214.92972,67,38,0
214.92972,215.10233,66,40,0
215.10233,215.27495,67,38,0
215.27495,215.43962,60,40,0
215.43962,215.6043,67,35,0
215.6043,215.76897,66,37,0
215.76897,215.93364,67,35,0
215.93364,216.09831,59,40,0
216.09831,216.26297,67,35,0
216.26297,216.42764,60,37,0
216.42764,216.59232,67,34,0
216.59232,216.75699,55,37,0
216.75699,216.92166,67,30,0
216.92166,217.08633,59,33,0
217.08633,217.251,67,30,0
217.251,217.41568,55,38,0
217.41568,217.58035,67,33,0
217.58035,217.7489,59,31,0
217.7489,217.91743,67,31,0
217.91743,218.09879,55,34,0
218.09879,218.28015,67,29,0
218.28015,218.4507,60,31,0
218.4507,218.62125,67,30,0
218.62125,218.7918,55,33,0
218.7918,218.96236,67,30,0
218.96236,219.12991,63,31,0
219.12991,219.29747,67,29,0
219.29747,219.47884,55,32,0
219.47884,219.66019,67,30,0
219.66019,219.83073,62,32,0
219.83073,220.00128,67,30,0
220.00128,220.17184,55,37,0
220.17184,220.34239,67,30,0
220.34239,220.50995,59,32,0
220.50995,220.6775,67,30,0
220.6775,220.84807,55,35,0
220.84807,221.01862,67,30,0
221.01862,221.18617,60,32,0
221.18617,221.35373,67,30,0
221.35373,221.52429,55,37,0
221.52429,221.69484,67,30,0
221.69484,221.86143,63,33,0
221.86143,222.02803,67,30,0
222.02803,222.19858,55,35,0
222.19858,222.36913,67,30,0
222.36913,222.53967,62,32,0
222.53967,222.71024,67,30,0
222.71024,222.89316,55,45,0
222.89316,223.06071,67,35,0
223.06071,223.22827,59,38,0
223.22827,223.39584,67,36,0
223.39584,223.57056,56,45,0
223.57056,223.74112,67,30,0
223.74112,223.91167,60,33,0
223.91167,224.08221,67,30,0
224.08221,224.25694,56,45,0
224.25694,224.4285,66,33,0
224.4285,224.60007,60,33,0
224.60007,224.77164,66,33,0
224.77164,225.11273,67,45,0
224.77164,225.11273,55,45,0
225.47545,225.81656,67,43,0
225.47545,225.81656,55,43,0
226.18388,226.525,67,44,0
226.18388,226.525,55,44,0
227.5483,227.90204,65,24,0
227.5483,227.90204,55,24,0
227.5483,227.90204,59,24,0
227.5483,227.90204,62,24,0
228.28923,228.64296,65,24,0
228.28923,228.64296,55,24,0
228.28923,228.64296,59,24,0
228.28923,228.64296,62,24,0
229.03548,229.4125,65,24,0
229.03548,229.4125,55,24,0
229.03548,229.4125,59,24,0
229.03548,229.4125,62,24,0
230.82947,231.17194,48,40,0
231.17194,231.5144,52,40,0
231.5144,231.85686,55,40,0
231.85686,232.19933,60,43,0
232.19933,232.5418,48,40,0
232.5418,232.89124,55,43,0
232.89124,233.27591,43,40,0
233.61838,233.96085,48,40,0
233.96085,234.3033,52,40,0
234.3033,234.64577,55,43,0
234.64577,234.98824,60,44,0
234.98824,235.33434,48,41,0
235.33434,235.68378,55,43,0
235.68378,236.05884,43,41,0
236.05884,236.40129,57,47,0
236.40129,236.74376,60,46,0
236.74376,237.08623,55,49,0
237.08623,237.43608,60,45,0
237.43608,237.77855,53,49,0
237.77855,238.12102,60,47,0
238.12102,238.46349,52,50,0
238.46349,238.80595,60,46,0
239.1484,239.49088,59,43,0
239.1484,239.49088,67,43,0
239.83334,240.17581,60,43,0
239.83334,240.17581,67,43,0
240.17581,240.86436,55,44,0
240.17581,240.86436,59,44,0
241.57428,241.74551,36,64,0
241.74551,241.91675,40,56,0
241.91675,242.08798,43,57,0
242.08798,242.25922,48,56,0
242.25922,242.43045,40,60,0
242.43045,242.60168,52,57,0
242.60168,242.77292,43,60,0
242.77292,242.94414,55,57,0
242.94414,243.11537,48,60,0
243.11537,243.2866,52,55,0
243.2866,243.45784,55,57,0
243.45784,243.62907,60,56,0
243.62907,243.80212,43,60,0
243.80212,243.97517,47,57,0
243.97517,244.15813,50,59,0
244.15813,244.34108,55,57,0
244.34108,244.51231,36,60,0
244.51231,244.68355,40,56,0
244.68355,244.85477,43,57,0
244.85477,245.026,48,55,0
245.026,245.19724,40,60,0
245.19724,245.36847,52,57,0
245.36847,245.5397,43,58,0
245.5397,245.71094,55,57,0
245.71094,245.88217,48,60,0
245.88217,246.0534,52,55,0
246.0534,246.22646,55,57,0
246.22646,246.3995,60,56,0
246.3995,246.57256,43,62,0
246.57256,246.7456,47,56,0
246.7456,246.91866,50,57,0
246.91866,247.111,55,56,0
247.111,247.28223,57,53,0
247.28223,247.45346,60,49,0
247.45346,247.6247,57,53,0
247.6247,247.79591,60,49,0
247.79591,247.96715,55,53,0
247.96715,248.13838,60,50,0
248.13838,248.31331,55,53,0
248.31331,248.48824,60,50,0
248.48824,248.65947,53,57,0
248.65947,248.8307,60,53,0
248.8307,249.00194,53,57,0
249.00194,249.17317,60,53,0
249.17317,249.3444,52,57,0
249.3444,249.51564,60,53,0
249.51564,249.68687,52,57,0
249.68687,249.85811,60,52,0
250.20609,250.37732,53,49,0
250.20609,250.37732,62,49,0
250.54855,250.90805,64,49,0
250.90805,251.28786,62,49,0
250.54855,251.28786,55,49,0
251.28786,251.98383,60,49,0
251.28786,251.98383,64,49,0
253.01862,253.35971,57,38,0
253.01862,253.35971,53,38,0
253.01862,253.35971,62,38,0
253.35971,253.70082,64,38,0
253.35971,253.70082,60,38,0
253.70082,254.07126,62,44,0
253.70082,254.07126,65,44,0
253.35971,254.07126,55,38,0
254.07126,254.76901,64,49,0
254.07126,254.76901,60,49,0
255.80377,256.14285,53,38,0
255.80377,256.14285,62,38,0
255.80377,256.14285,57,38,0
256.14285,256.48196,64,38,0
256.14285,256.48196,60,38,0
256.48196,256.82825,62,40,0
256.48196,256.82825,65,40,0
256.14285,256.82825,55,38,0
256.82825,256.9232,64,38,0
256.82825,256.9232,60,38,0
257.208,257.3183,55,38,0
257.64917,258.60724,48,38,0
257.64917,258.60724,36,38,0
258.60724,258.78168,60,37,0
258.78168,258.9561,67,30,0
258.9561,259.1305,66,33,0
259.1305,259.30493,67,30,0
259.30493,259.47934,60,37,0
259.47934,259.6523,67,30,0
259.6523,259.82388,62,33,0
259.82388,259.99405,67,30,0
259.99405,260.16452,64,37,0
260.16452,260.33496,67,30,0
260.33496,260.50543,65,33,0
260.50543,260.69687,67,30,0
260.69687,260.8776,64,37,0
260.8776,261.05658,67,30,0
261.05658,261.23407,58,33,0
261.23407,261.40973,67,31,0
261.40973,261.5839,59,38,0
261.5839,261.75632,67,31,0
261.75632,261.92676,59,35,0
261.92676,262.09723,67,32,0
262.09723,262.26767,60,41,0
262.26767,262.44843,67,33,0
262.44843,262.62146,62,37,0
262.62146,262.79453,67,33,0
262.79453,262.96756,60,40,0
262.96756,263.14062,67,30,0
263.14062,263.31744,66,33,0
263.31744,263.4905,67,30,0
263.4905,263.66354,59,37,0
263.66354,263.8366,67,31,0
263.8366,264.01733,66,33,0
264.01733,264.19806,67,32,0
264.19806,264.3693,59,37,0
264.3693,264.5405,67,31,0
264.5405,264.71173,66,33,0
264.71173,264.89703,67,31,0
264.89703,265.06558,59,37,0
265.06558,265.23413,67,31,0
265.23413,265.40265,60,33,0
265.40265,265.5712,67,31,0
265.5712,265.73975,62,37,0
265.73975,265.90826,67,31,0
265.90826,266.0768,64,33,0
266.0768,266.2546,67,31,0
266.2546,266.42584,65,37,0
266.42584,266.59708,67,32,0
266.59708,266.7683,62,34,0
266.7683,266.93954,67,31,0
266.93954,267.10986,59,40,0
267.10986,267.28052,67,31,0
267.28052,267.45175,62,34,0
267.45175,267.6236,67,31,0
267.6236,267.79572,59,46,0
267.79572,267.96878,67,35,0
267.96878,268.1418,55,37,0
268.1418,268.34183,67,35,0
268.34183,268.52057,60,44,0
268.52057,268.69934,67,37,0
268.69934,268.8781,65,40,0
268.8781,269.0569,67,37,0
269.0569,269.23563,60,44,0
269.23563,269.4144,67,37,0
269.4144,269.604,64,40,0
269.604,269.8153,67,37,0
269.8153,269.95618,48,48,0
269.95618,270.09705,52,43,0
270.09705,270.23788,55,41,0
270.23788,270.579,60,46,0
271.26324,271.3819,41,48,0
271.3819,271.50055,45,43,0
271.50055,271.6192,48,41,0
271.6192,271.96033,53,48,0
272.64972,272.76837,45,48,0
272.76837,272.88702,49,43,0
272.88702,273.00568,52,40,0
273.00568,273.34677,57,48,0
274.04526,274.1639,50,48,0
274.1639,274.28256,54,43,0
274.28256,274.4012,57,40,0
274.4012,274.74854,62,48,0
275.43793,275.55658,47,48,0
275.55658,275.67523,50,43,0
275.67523,275.79388,55,40,0
275.79388,276.1391,59,48,0
276.8354,276.95404,48,48,0
276.95404,277.0727,52,43,0
277.0727,277.19135,55,40,0
277.19135,277.53244,60,48,0
278.22186,278.56296,57,50,0
278.22186,278.56296,53,50,0
278.91522,279.25632,54,52,0
278.91522,279.25632,57,52,0
279.62958,279.71747,55,57,0
279.80536,279.98114,67,40,0
279.98114,280.15692,66,44,0
280.15692,280.3338,67,40,0
280.3338,280.51675,66,44,0
280.51675,280.69968,67,41,0
280.69968,280.89197,65,44,0
280.89197,281.1003,67,40,0
281.1003,281.2794,64,49,0
281.2794,281.45847,67,40,0
281.45847,281.63757,60,35,0
281.63757,281.81665,67,30,0
281.81665,281.9903,64,37,0
281.9903,282.16394,67,31,0
282.16394,282.3376,60,35,0
282.3376,282.51126,67,31,0
282.51126,282.6849,62,37,0
282.6849,282.85855,67,34,0
282.85855,283.0322,60,37,0
283.0322,283.20584,67,34,0
283.20584,283.3764,59,37,0
283.3764,283.54697,67,34,0
283.54697,283.7175,55,37,0
283.7175,283.89886,67,34,0
283.89886,284.07358,60,38,0
284.07358,284.24832,67,31,0
284.24832,284.42303,66,34,0
284.42303,284.59775,67,31,0
284.59775,284.7683,66,39,0
284.7683,284.93887,67,41,0
284.93887,285.1094,69,44,0
285.1094,285.27997,67,41,0
285.27997,285.4505,65,49,0
285.4505,285.62106,67,47,0
285.62106,285.79163,64,49,0
285.79163,285.96216,67,45,0
285.96216,286.13864,65,49,0
286.13864,286.3151,67,46,0
286.3151,286.50497,62,49,0
286.50497,286.69724,67,46,0
286.69724,286.8763,64,49,0
286.8763,287.0554,67,41,0
287.0554,287.23447,60,35,0
287.23447,287.41354,67,31,0
287.41354,287.58722,64,37,0
287.58722,287.76086,67,31,0
287.76086,287.9345,60,35,0
287.9345,288.10815,67,31,0
288.10815,288.2818,62,37,0
288.2818,288.45547,67,34,0
288.45547,288.62912,60,37,0
288.62912,288.80276,67,34,0
288.80276,288.97333,59,37,0
288.97333,289.14386,67,34,0
289.14386,289.31442,55,37,0
289.31442,289.4958,67,34,0
289.4958,289.67712,60,34,0
289.67712,289.8585,67,32,0
289.8585,290.02905,64,32,0
290.02905,290.1996,67,32,0
290.1996,290.37015,60,37,0
290.37015,290.54068,69,29,0
290.54068,290.71124,65,32,0
290.71124,290.8818,69,29,0
290.8818,291.05234,60,32,0
291.05234,291.2229,67,30,0
291.2229,291.39346,64,32,0
291.39346,291.564,67,31,0
291.564,291.73456,58,32,0
291.73456,291.90512,65,30,0
291.90512,292.07565,62,32,0
292.07565,292.24622,65,30,0
292.24622,292.41675,57,32,0
292.41675,292.5873,65,30,0
292.5873,292.75787,60,32,0
292.75787,292.93695,65,30,0
292.93695,293.10748,53,40,0
293.10748,293.27805,62,34,0
293.27805,293.4486,57,40,0
293.4486,293.61914,62,33,0
293.61914,293.7897,55,39,0
293.7897,293.96027,64,34,0
293.96027,294.1308,60,39,0
294.1308,294.30136,64,34,0
294.30136,294.4699,55,39,0
294.4699,294.63843,65,34,0
294.63843,294.80698,59,38,0
294.80698,294.99548,65,33,0
294.99548,295.16913,48,40,0
295.16913,295.3428,55,35,0
295.3428,295.51645,52,40,0
295.51645,295.69666,55,34,0
295.69666,295.8672,48,32,0
295.8672,296.03775,57,30,0
296.03775,296.2083,53,32,0
296.2083,296.37885,57,30,0
296.37885,296.5494,48,32,0
296.5494,296.71994,55,30,0
296.71994,296.8905,52,32,0
296.8905,297.06107,55,30,0
297.06107,297.2316,46,32,0
297.2316,297.40216,53,29,0
297.40216,297.58124,50,32,0
297.58124,297.7603,53,29,0
297.7603,297.93088,45,34,0
297.93088,298.10144,53,30,0
298.10144,298.27197,48,33,0
298.27197,298.45105,53,29,0
298.45105,298.63016,41,41,0
298.63016,298.80923,50,38,0
298.80923,298.9883,45,40,0
298.9883,299.1674,50,37,0
299.1674,299.34647,43,40,0
299.34647,299.52557,52,37,0
299.52557,299.70465,48,39,0
299.70465,299.88373,52,32,0
299.88373,300.0628,43,38,0
300.0628,300.24188,53,33,0
300.24188,300.421,50,38,0
300.421,300.62646,53,32,0
300.97375,301.32108,52,38,0
300.97375,301.32108,48,38,0
301.32108,301.66837,53,44,0
301.32108,301.66837,50,44,0
301.66837,302.03177,52,49,0
301.66837,302.03177,55,49,0
302.37906,302.7278,47,37,0
302.37906,302.7278,43,37,0
302.7278,303.08618,48,40,0
302.7278,303.08618,45,40,0
303.08618,303.48376,50,44,0
303.08618,303.48376,47,44,0
303.83105,304.17838,52,38,0
303.83105,304.17838,48,38,0
304.17838,304.52567,53,44,0
304.17838,304.52567,50,44,0
304.52567,304.88907,52,49,0
304.52567,304.88907,55,49,0
305.2364,305.5851,47,37,0
305.2364,305.5851,43,37,0
305.5851,305.94348,48,40,0
305.5851,305.94348,45,40,0
305.94348,306.32578,50,44,0
305.94348,306.32578,47,44,0
306.32578,307.0346,48,44,0
307.72507,308.801,55,44,0
308.801,309.16718,58,44,0
307.72507,309.16718,52,44,0
309.16718,309.90353,53,38,0
307.72507,309.90353,60,44,0
311.0107,311.38284,63,37,0
311.0107,311.38284,54,37,0
311.38284,311.75494,64,40,0
311.38284,311.75494,55,40,0
311.75494,312.13696,65,44,0
312.13696,312.84332,60,44,0
312.13696,312.84332,64,44,0
313.53375,314.60968,55,44,0
314.60968,314.97586,58,44,0
313.53375,314.97586,52,44,0
314.97586,315.72885,53,38,0
314.97586,315.72885,57,38,0
313.53375,315.72885,60,44,0
316.46997,317.19846,63,41,0
316.46997,317.19846,54,41,0
317.9399,318.12717,55,48,0
318.12717,318.31445,64,39,0
318.31445,318.4881,60,41,0
318.4881,318.67328,64,39,0
318.67328,318.85184,55,48,0
318.85184,319.03043,64,38,0
319.03043,319.2084,60,41,0
319.2084,319.3994,64,39,0
319.3994,319.57626,55,43,0
319.57626,319.75314,67,36,0
319.75314,319.93,60,38,0
319.93,320.10687,67,35,0
320.10687,320.27744,55,39,0
320.27744,320.44797,65,30,0
320.44797,320.62485,59,32,0
320.62485,320.8017,65,30,0
320.8017,320.97858,48,35,0
320.97858,321.15543,52,30,0
321.15543,321.3323,60,32,0
321.3323,321.50916,52,30,0
321.50916,321.67972,48,35,0
321.67972,321.85028,52,30,0
321.85028,322.0208,60,32,0
322.0208,322.19138,52,30,0
322.19138,322.36716,48,35,0
322.36716,322.54294,50,30,0
322.54294,322.71875,59,32,0
322.71875,322.89453,50,30,0
322.89453,323.0703,48,35,0
323.0703,323.2461,53,30,0
323.2461,323.4219,59,32,0
323.4219,323.5977,53,30,0
323.5977,323.77347,48,35,0
323.77347,323.94925,52,30,0
323.94925,324.12503,60,32,0
324.12503,324.30084,52,30,0
324.30084,324.47137,48,35,0
324.47137,324.64194,52,30,0
324.64194,324.8125,60,32,0
324.8125,324.98303,52,30,0
324.98303,325.1599,48,35,0
325.1599,325.33676,50,30,0
325.33676,325.51364,59,32,0
325.51364,325.6905,50,30,0
325.6905,325.86737,48,35,0
325.86737,326.04422,53,30,0
326.04422,326.2256,59,32,0
326.2256,326.4131,53,30,0
326.4131,326.58997,48,35,0
326.58997,326.7668,52,30,0
326.7668,326.9437,60,32,0
326.9437,327.12054,52,30,0
327.12054,327.2911,48,35,0
327.2911,327.46167,53,30,0
327.46167,327.6322,59,32,0
327.6322,327.80276,53,30,0
327.80276,327.9796,48,35,0
327.9796,328.1565,52,30,0
328.1565,328.33334,60,32,0
328.33334,328.51022,52,30,0
328.51022,328.6808,48,35,0
328.6808,328.85132,53,30,0
328.85132,329.02188,59,32,0
329.02188,329.19244,53,30,0
329.19244,329.36716,48,35,0
329.36716,329.54187,52,30,0
329.54187,329.7166,60,32,0
329.7166,329.89133,52,31,0
329.89133,330.06186,48,41,0
330.06186,330.23242,53,35,0
330.23242,330.40298,59,35,0
330.40298,330.57352,53,32,0
330.57352,330.74933,48,35,0
330.74933,330.9251,52,30,0
330.9251,331.1009,60,32,0
331.1009,331.27667,52,30,0
331.27667,331.44522,48,41,0
331.44522,331.61377,53,35,0
331.61377,331.7823,59,32,0
331.7823,331.95084,53,30,0
331.95084,332.70828,52,35,0
331.95084,332.70828,48,35,0
333.0804,333.1813,56,33,0
333.48395,334.6946,57,33,0
335.09818,335.28802,53,59,0
335.09818,335.28802,41,50,0
335.85767,336.04752,55,59,0
335.85767,336.04752,43,50,0
336.61716,336.7838,48,57,0
336.61716,336.7838,36,47,0
336.61716,336.7838,40,47,0
336.61716,336.7838,43,47,0
337.95047,338.2936,59,39,0
338.2936,338.46408,55,38,0
337.95047,338.63452,62,39,0
338.63452,338.805,55,40,0
338.63452,338.805,62,40,0
338.97543,339.3552,55,38,0
338.97543,339.3552,62,38,0
339.3552,339.72104,59,40,0
339.72104,339.81113,57,38,0
339.3552,340.0732,62,40,0
340.0732,340.77026,62,38,0
340.0732,340.77026,54,38,0
340.77026,341.1134,57,41,0
341.1134,341.20486,55,38,0
340.77026,341.47925,62,41,0
341.47925,341.82657,59,40,0
341.82657,341.9322,57,38,0
341.47925,342.24908,62,40,0
342.24908,342.96542,60,50,0
342.96542,343.31488,59,40,0
342.24908,343.31488,62,50,0
344.34653,345.04135,50,38,0
344.34653,345.04135,47,38,0
345.04135,345.7319,48,38,0
345.04135,345.7319,52,38,0
345.7319,346.43887,55,40,0
345.7319,346.43887,49,40,0
346.43887,347.15033,59,34,0
347.15033,347.92764,57,34,0
346.43887,347.92764,50,34,0
347.92764,348.69687,60,39,0
348.69687,349.0739,59,35,0
347.92764,349.0739,55,39,0
349.415,349.58557,59,38,0
349.58557,349.7561,62,30,0
349.7561,349.92667,55,35,0
349.92667,350.0972,62,30,0
350.0972,350.26776,55,38,0
350.26776,350.43832,62,32,0
350.43832,350.6141,56,37,0
350.6141,350.7899,62,32,0
350.7899,350.96045,57,40,0
350.96045,351.13098,62,31,0
351.13098,351.30154,55,35,0
351.30154,351.4721,62,30,0
351.4721,351.64264,54,38,0
351.64264,351.8132,62,35,0
351.8132,351.99612,50,38,0
351.99612,352.17905,62,34,0
352.17905,352.34372,55,38,0
352.34372,352.5084,67,34,0
352.5084,352.68698,59,38,0
352.68698,352.86554,67,33,0
352.86554,353.02835,57,40,0
353.02835,353.19113,67,38,0
353.19113,353.3763,60,40,0
353.3763,353.5615,67,38,0
353.5615,353.73004,60,47,0
353.73004,353.8986,67,38,0
353.8986,354.0671,64,40,0
354.0671,354.23566,67,38,0
354.23566,354.40225,59,40,0
354.40225,354.56885,67,33,0
354.56885,354.7374,62,38,0
354.7374,354.9059,67,34,0
354.9059,355.0706,57,39,0
355.0706,355.23526,67,35,0
355.23526,355.40582,60,39,0
355.40582,355.5764,67,34,0
355.5764,355.74106,59,41,0
355.74106,355.90573,67,37,0
355.90573,356.08258,62,40,0
356.08258,356.25946,67,37,0
356.25946,356.427,62,50,0
356.427,356.59457,67,38,0
356.59457,356.76212,65,41,0
356.76212,356.9297,67,38,0
356.9297,357.09726,60,41,0
357.09726,357.2648,67,37,0
357.2648,357.43924,64,39,0
357.43924,357.61365,67,37,0
357.61365,357.77832,59,40,0
357.77832,357.943,67,38,0
357.943,358.1174,62,40,0
358.1174,358.29184,67,37,0
358.29184,358.4565,60,45,0
358.4565,358.6212,67,40,0
358.6212,358.8019,64,45,0
358.8019,358.9826,67,40,0
358.9826,359.15018,64,52,0
359.15018,359.31775,67,41,0
359.31775,359.4853,66,45,0
359.4853,359.65286,67,40,0
359.65286,359.82043,62,45,0
359.82043,359.98798,67,38,0
359.98798,360.16058,66,40,0
360.16058,360.3332,67,38,0
360.3332,360.49786,60,40,0
360.49786,360.66254,67,35,0
360.66254,360.8272,66,37,0
360.8272,360.99188,67,35,0
360.99188,361.15656,59,40,0
361.15656,361.32123,67,35,0
361.32123,361.4859,60,37,0
361.4859,361.65057,67,34,0
361.65057,361.81525,55,37,0
361.81525,361.97992,67,30,0
361.97992,362.1446,59,33,0
362.1446,362.30927,67,30,0
362.30927,362.47394,55,38,0
362.47394,362.6386,67,33,0
362.6386,362.80908,59,31,0
362.80908,362.97952,67,31,0
362.97952,363.1609,55,34,0
363.1609,363.34222,67,29,0
363.34222,363.5128,60,31,0
363.5128,363.68335,67,30,0
363.68335,363.85388,55,33,0
363.85388,364.02444,67,30,0
364.02444,364.19202,63,31,0
364.19202,364.35956,67,29,0
364.35956,364.54092,55,32,0
364.54092,364.7223,67,30,0
364.7223,364.89282,62,32,0
364.89282,365.0634,67,30,0
365.0634,365.23395,55,37,0
365.23395,365.40448,67,30,0
365.40448,365.57205,59,32,0
365.57205,365.7396,67,30,0
365.7396,365.91016,55,35,0
365.91016,366.08072,67,30,0
366.08072,366.24826,60,32,0
366.24826,366.41583,67,30,0
366.41583,366.5864,55,37,0
366.5864,366.75693,67,30,0
366.75693,366.92352,63,33,0
366.92352,367.09012,67,30,0
367.09012,367.26068,55,35,0
367.26068,367.4312,67,30,0
367.4312,367.60178,62,32,0
367.60178,367.7723,67,30,0
367.7723,367.95526,55,45,0
367.95526,368.1228,67,35,0
368.1228,368.29037,59,38,0
368.29037,368.45792,67,36,0
368.45792,368.63266,56,45,0
368.63266,368.8032,67,30,0
368.8032,368.97375,60,33,0
368.97375,369.14432,67,30,0
369.14432,369.31903,56,45,0
369.31903,369.4906,66,33,0
369.4906,369.66217,60,33,0
369.66217,369.83374,66,33,0
369.83374,370.17484,55,45,0
369.83374,370.17484,67,45,0
370.53754,370.87866,67,43,0
370.53754,370.87866,55,43,0
371.24597,371.5871,67,44,0
371.24597,371.5871,55,44,0
372.61038,372.97183,65,24,0
372.61038,372.97183,59,24,0
372.61038,372.97183,55,24,0
372.61038,372.97183,62,24,0
373.35904,373.7205,59,24,0
373.35904,373.7205,65,24,0
373.35904,373.7205,62,24,0
373.35904,373.7205,55,24,0
374.113,374.49002,65,24,0
374.113,374.49002,55,24,0
374.113,374.49002,59,24,0
374.113,374.49002,62,24,0
375.90698,376.24945,48,40,0
376.24945,376.59192,52,40,0
376.59192,376.9344,55,40,0
376.9344,377.27686,60,43,0
377.27686,377.61932,48,40,0
377.61932,377.96875,55,43,0
377.96875,378.35342,43,40,0
378.6959,379.03836,48,40,0
379.03836,379.38083,52,40,0
379.38083,379.7233,55,43,0
379.7233,380.06577,60,44,0
380.06577,380.41187,48,41,0
380.41187,380.7613,55,43,0
380.7613,381.13635,43,41,0
381.13635,381.47882,57,47,0
381.47882,381.8213,60,46,0
381.8213,382.16376,55,49,0
382.16376,382.5136,60,45,0
382.5136,382.85608,53,49,0
382.85608,383.19855,60,47,0
383.19855,383.54102,52,50,0
383.54102,383.88345,60,46,0
384.22592,384.5684,59,43,0
384.22592,384.5684,67,43,0
384.91086,385.25333,67,43,0
384.91086,385.25333,60,43,0
385.25333,385.9419,59,44,0
385.25333,385.9419,55,44,0
386.6518,386.82303,36,64,0
386.82303,386.99426,40,56,0
386.99426,387.1655,43,57,0
387.1655,387.33673,48,56,0
387.33673,387.50797,40,60,0
387.50797,387.6792,52,57,0
387.6792,387.85043,43,60,0
387.85043,388.02167,55,57,0
388.02167,388.1929,48,60,0
388.1929,388.36414,52,55,0
388.36414,388.53537,55,57,0
388.53537,388.7066,60,56,0
388.7066,388.87964,43,60,0
388.87964,389.0527,47,57,0
389.0527,389.23566,50,59,0
389.23566,389.4186,55,57,0
389.4186,389.58984,36,60,0
389.58984,389.76105,40,56,0
389.76105,389.93228,43,57,0
389.93228,390.10352,48,55,0
390.10352,390.27475,40,60,0
390.27475,390.44598,52,57,0
390.44598,390.61722,43,58,0
390.61722,390.78845,55,57,0
390.78845,390.9597,48,60,0
390.9597,391.13092,52,55,0
391.13092,391.304,55,57,0
391.304,391.47702,60,56,0
391.47702,391.6501,43,62,0
391.6501,391.82312,47,56,0
391.82312,391.9962,50,57,0
391.9962,392.1885,55,56,0
392.1885,392.35974,57,53,0
392.35974,392.53098,60,49,0
392.53098,392.7022,57,53,0
392.7022,392.87344,60,49,0
392.87344,393.04468,55,53,0
393.04468,393.2159,60,50,0
393.2159,393.39084,55,53,0
393.39084,393.56577,60,50,0
393.56577,393.737,53,57,0
393.737,393.90823,60,53,0
393.90823,394.07947,53,57,0
394.07947,394.2507,60,53,0
394.2507,394.42194,52,57,0
394.42194,394.59317,60,53,0
394.59317,394.7644,52,57,0
394.7644,394.93564,60,52,0
395.2836,395.45483,53,49,0
395.2836,395.45483,62,49,0
395.62607,395.98557,64,49,0
395.98557,396.36536,62,49,0
395.62607,396.36536,55,49,0
396.36536,397.06134,60,49,0
396.36536,397.06134,64,49,0
398.09613,398.43723,62,38,0
398.09613,398.43723,57,38,0
398.09613,398.43723,53,38,0
398.43723,398.77835,64,38,0
398.43723,398.77835,60,38,0
398.77835,399.14877,65,44,0
398.77835,399.14877,62,44,0
398.43723,399.14877,55,38,0
399.14877,399.84653,64,49,0
399.14877,399.84653,60,49,0
400.8813,401.2204,62,38,0
400.8813,401.2204,53,38,0
400.8813,401.2204,57,38,0
401.2204,401.55948,64,38,0
401.2204,401.55948,60,38,0
401.55948,401.90576,65,40,0
401.55948,401.90576,62,40,0
401.2204,401.90576,55,38,0
401.90576,402.0071,64,38,0
401.90576,402.0071,60,38,0
402.3112,402.42148,55,38,0
402.75235,403.71042,36,38,0
402.75235,403.71042,48,38,0
403.71042,403.88486,60,37,0
403.88486,404.05927,67,30,0
404.05927,404.23367,66,33,0
404.23367,404.4081,67,30,0
404.4081,404.58252,60,37,0
404.58252,404.7555,67,30,0
404.7555,404.92706,62,33,0
404.92706,405.09723,67,30,0
405.09723,405.2677,64,37,0
405.2677,405.43814,67,30,0
405.43814,405.60858,65,33,0
405.60858,405.80005,67,30,0
405.80005,405.98074,64,37,0
405.98074,406.15976,67,30,0
406.15976,406.33725,58,33,0
406.33725,406.5129,67,31,0
406.5129,406.68707,59,38,0
406.68707,406.8595,67,31,0
406.8595,407.02994,59,35,0
407.02994,407.2004,67,32,0
407.2004,407.37085,60,41,0
407.37085,407.5516,67,33,0
407.5516,407.72464,62,37,0
407.72464,407.8977,67,33,0
407.8977,408.07074,60,40,0
408.07074,408.2438,67,30,0
408.2438,408.42062,66,33,0
408.42062,408.5937,67,30,0
408.5937,408.76672,59,37,0
408.76672,408.9398,67,31,0
408.9398,409.1205,66,33,0
409.1205,409.30124,67,32,0
409.30124,409.47244,59,37,0
409.47244,409.64368,67,31,0
409.64368,409.8149,66,33,0
409.8149,410.0002,67,31,0
410.0002,410.16876,59,37,0
410.16876,410.3373,67,31,0
410.3373,410.50583,60,33,0
410.50583,410.67438,67,31,0
410.67438,410.84293,62,37,0
410.84293,411.01144,67,31,0
411.01144,411.18,64,33,0
411.18,411.3578,67,31,0
411.3578,411.52902,65,37,0
411.52902,411.70026,67,32,0
411.70026,411.8715,62,34,0
411.8715,412.04272,67,31,0
412.04272,412.21304,59,40,0
412.21304,412.3837,67,31,0
412.3837,412.55493,62,34,0
412.55493,412.72678,67,31,0
412.72678,412.8989,59,46,0
412.8989,413.07196,67,35,0
413.07196,413.245,55,37,0
413.245,413.445,67,35,0
413.445,413.62375,60,44,0
413.62375,413.80252,67,37,0
413.80252,413.9813,65,40,0
413.9813,414.16006,67,37,0
414.16006,414.3388,60,44,0
414.3388,414.51758,67,37,0
414.51758,414.70718,64,40,0
414.70718,414.9185,67,37,0
414.9185,415.05936,48,48,0
415.05936,415.20023,52,43,0
415.20023,415.34106,55,41,0
415.34106,415.6822,60,46,0
416.35867,416.47733,41,48,0
416.47733,416.59598,45,43,0
416.59598,416.71463,48,41,0
416.71463,417.05573,53,48,0
417.73218,417.85083,45,48,0
417.85083,417.96948,49,43,0
417.96948,418.08813,52,40,0
418.08813,418.42923,57,48,0
419.12772,419.24637,50,48,0
419.24637,419.36502,54,43,0
419.36502,419.48367,57,40,0
419.48367,419.831,62,48,0
420.5204,420.63904,47,48,0
420.63904,420.7577,50,43,0
420.7577,420.87634,55,40,0
420.87634,421.22156,59,48,0
421.91785,422.0365,48,48,0
422.0365,422.15515,52,43,0
422.15515,422.2738,55,40,0
422.2738,422.6149,60,48,0
423.30432,423.64542,57,50,0
423.30432,423.64542,53,50,0
423.99768,424.33878,54,52,0
423.99768,424.33878,57,52,0
424.71204,424.79993,55,57,0
424.88782,425.0636,67,40,0
425.0636,425.23938,66,44,0
425.23938,425.4163,67,40,0
425.4163,425.5992,66,44,0
425.5992,425.78214,67,41,0
425.78214,425.98212,65,44,0
425.98212,426.19952,67,40,0
426.19952,426.3786,64,49,0
426.3786,426.55768,67,40,0
426.55768,426.73676,60,35,0
426.73676,426.91586,67,30,0
426.91586,427.0895,64,37,0
427.0895,427.26315,67,31,0
427.26315,427.4368,60,35,0
427.4368,427.61044,67,31,0
427.61044,427.78412,62,37,0
427.78412,427.95776,67,34,0
427.95776,428.1314,60,37,0
428.1314,428.30505,67,34,0
428.30505,428.47562,59,37,0
428.47562,428.64618,67,34,0
428.64618,428.8167,55,37,0
428.8167,428.99808,67,34,0
428.99808,429.1728,60,38,0
429.1728,429.34753,67,31,0
429.34753,429.52225,66,34,0
429.52225,429.69696,67,31,0
429.69696,429.86752,66,39,0
429.86752,430.03806,67,41,0
430.03806,430.20862,69,44,0
430.20862,430.37918,67,41,0
430.37918,430.5497,65,49,0
430.5497,430.72028,67,47,0
430.72028,430.89084,64,49,0
430.89084,431.06137,67,45,0
431.06137,431.2358,65,49,0
431.2358,431.41022,67,46,0
431.41022,431.60757,62,49,0
431.60757,431.81918,67,46,0
431.81918,431.99826,64,49,0
431.99826,432.17734,67,41,0
432.17734,432.3564,60,35,0
432.3564,432.5355,67,31,0
432.5355,432.70917,64,37,0
432.70917,432.8828,67,31,0
432.8828,433.05646,60,35,0
433.05646,433.2301,67,31,0
433.2301,433.40375,62,37,0
433.40375,433.57742,67,34,0
433.57742,433.75107,60,37,0
433.75107,433.9247,67,34,0
433.9247,434.09528,59,37,0
434.09528,434.2658,67,34,0
434.2658,434.43637,55,37,0
434.43637,434.61774,67,34,0
434.61774,434.79907,60,34,0
434.79907,434.98044,67,32,0
434.98044,435.151,64,32,0
435.151,435.32153,67,32,0
435.32153,435.4921,60,37,0
435.4921,435.66266,69,29,0
435.66266,435.8332,65,32,0
435.8332,436.00375,69,29,0
436.00375,436.1743,60,32,0
436.1743,436.34485,67,30,0
436.34485,436.5154,64,32,0
436.5154,436.68594,67,31,0
436.68594,436.8565,58,32,0
436.8565,437.02707,65,30,0
437.02707,437.1976,62,32,0
437.1976,437.36816,65,30,0
437.36816,437.53873,57,32,0
437.53873,437.70926,65,30,0
437.70926,437.87982,60,32,0
437.87982,438.0589,65,30,0
438.0589,438.22946,53,40,0
438.22946,438.4,62,34,0
438.4,438.57056,57,40,0
438.57056,438.7411,62,33,0
438.7411,438.91165,55,39,0
438.91165,439.0822,64,34,0
439.0822,439.25275,60,39,0
439.25275,439.4233,64,34,0
439.4233,439.59186,55,39,0
439.59186,439.76038,65,34,0
439.76038,439.92892,59,38,0
439.92892,440.11743,65,33,0
440.11743,440.2911,48,40,0
440.2911,440.46475,55,35,0
440.46475,440.6384,52,40,0
440.6384,440.8186,55,34,0
440.8186,440.98914,48,32,0
440.98914,441.1597,57,30,0
441.1597,441.33026,53,32,0
441.33026,441.5008,57,30,0
441.5008,441.67136,48,32,0
441.67136,441.84192,55,30,0
441.84192,442.01245,52,32,0
442.01245,442.183,55,30,0
442.183,442.35355,46,32,0
442.35355,442.5241,53,29,0
442.5241,442.7032,50,32,0
442.7032,442.88226,53,29,0
442.88226,443.05283,45,34,0
443.05283,443.2234,53,30,0
443.2234,443.39392,48,33,0
443.39392,443.57303,53,29,0
443.57303,443.7521,41,41,0
443.7521,443.93118,50,38,0
443.93118,444.11026,45,40,0
444.11026,444.28934,50,37,0
444.28934,444.46844,43,40,0
444.46844,444.64752,52,37,0
444.64752,444.8266,48,39,0
444.8266,445.00568,52,32,0
445.00568,445.18475,43,38,0
445.18475,445.36383,53,33,0
445.36383,445.54294,50,38,0
445.54294,445.7484,53,32,0
446.0957,446.44302,52,38,0
446.0957,446.44302,48,38,0
446.44302,446.7903,53,44,0
446.44302,446.7903,50,44,0
446.7903,447.15372,52,49,0
446.7903,447.15372,55,49,0
447.501,447.84976,47,37,0
447.501,447.84976,43,37,0
447.84976,448.20813,48,40,0
447.84976,448.20813,45,40,0
448.20813,448.6057,50,44,0
448.20813,448.6057,47,44,0
448.953,449.30032,52,38,0
448.953,449.30032,48,38,0
449.30032,449.6476,53,44,0
449.30032,449.6476,50,44,0
449.6476,450.01102,52,49,0
449.6476,450.01102,55,49,0
450.35834,450.70706,47,37,0
450.35834,450.70706,43,37,0
450.70706,451.06546,48,40,0
450.70706,451.06546,45,40,0
451.06546,451.44772,50,44,0
451.06546,451.44772,47,44,0
451.44772,452.1566,48,44,0
452.84702,453.92294,55,44,0
453.92294,454.28912,58,44,0
452.84702,454.28912,52,44,0
454.28912,455.02548,53,38,0
452.84702,455.02548,60,44,0
456.13266,456.5048,63,37,0
456.13266,456.5048,54,37,0
456.5048,456.8769,64,40,0
456.5048,456.8769,55,40,0
456.8769,457.2589,65,44,0
457.2589,457.96527,60,44,0
457.2589,457.96527,64,44,0
458.65573,459.73163,55,44,0
459.73163,460.0978,58,44,0
458.65573,460.0978,52,44,0
460.0978,460.8508,53,38,0
460.0978,460.8508,57,38,0
458.65573,460.8508,60,44,0
461.59192,462.3204,63,41,0
461.59192,462.3204,54,41,0
463.06186,463.2491,55,48,0
463.2491,463.4364,64,39,0
463.4364,463.61005,60,41,0
463.61005,463.79523,64,39,0
463.79523,463.9738,55,48,0
463.9738,464.15237,64,38,0
464.15237,464.33035,60,41,0
464.33035,464.52136,64,39,0
464.52136,464.6982,55,43,0
464.6982,464.8751,67,36,0
464.8751,465.05194,60,38,0
465.05194,465.22882,67,35,0
465.22882,465.39938,55,39,0
465.39938,465.56992,65,30,0
465.56992,465.7468,59,32,0
465.7468,465.92365,65,30,0
465.92365,466.10052,48,35,0
466.10052,466.27737,52,30,0
466.27737,466.45425,60,32,0
466.45425,466.63113,52,30,0
466.63113,466.80167,48,35,0
466.80167,466.97223,52,30,0
466.97223,467.14276,60,32,0
467.14276,467.31332,52,30,0
467.31332,467.4891,48,35,0
467.4891,467.66492,50,30,0
467.66492,467.8407,59,32,0
467.8407,468.01648,50,30,0
468.01648,468.19226,48,35,0
468.19226,468.36804,53,30,0
468.36804,468.54385,59,32,0
468.54385,468.71964,53,30,0
468.71964,468.89542,48,35,0
468.89542,469.0712,52,30,0
469.0712,469.247,60,32,0
469.247,469.4228,52,30,0
469.4228,469.59332,48,35,0
469.59332,469.7639,52,30,0
469.7639,469.93445,60,32,0
469.93445,470.10498,52,30,0
470.10498,470.28186,48,35,0
470.28186,470.4587,50,30,0
470.4587,470.6356,59,32,0
470.6356,470.81244,50,30,0
470.81244,470.98932,48,35,0
470.98932,471.1662,53,30,0
471.1662,471.34753,59,32,0
471.34753,471.53503,53,30,0
471.53503,471.7119,48,35,0
471.7119,471.88876,52,30,0
471.88876,472.06564,60,32,0
472.06564,472.2425,52,30,0
472.2425,472.41306,48,35,0
472.41306,472.58362,53,30,0
472.58362,472.75415,59,32,0
472.75415,472.9247,53,30,0
472.9247,473.10156,48,35,0
473.10156,473.27844,52,30,0
473.27844,473.45532,60,32,0
473.45532,473.63217,52,30,0
473.63217,473.80273,48,35,0
473.80273,473.97327,53,30,0
473.97327,474.14383,59,32,0
474.14383,474.3144,53,30,0
474.3144,474.4891,48,35,0
474.4891,474.66382,52,30,0
474.66382,474.83856,60,32,0
474.83856,475.01328,52,31,0
475.01328,475.17633,48,41,0
475.17633,475.33936,53,35,0
475.33936,475.5024,59,35,0
475.5024,475.66544,53,32,0
475.66544,475.84125,48,35,0
475.84125,476.01703,52,30,0
476.01703,476.1928,60,32,0
476.1928,476.3686,52,30,0
476.3686,476.53345,48,41,0
476.53345,476.69827,53,35,0
476.69827,476.8631,59,32,0
476.8631,477.02795,53,30,0
477.02795,477.7854,52,35,0
477.02795,477.7854,48,35,0
478.1575,478.26465,56,33,0
478.5861,479.8023,57,33,0
480.2077,480.4077,53,61,0
480.2077,480.4077,41,52,0
481.0077,481.2283,55,61,0
481.0077,481.2283,43,52,0
481.89005,482.10132,48,59,0
481.89005,482.10132,36,49,0
481.89005,482.10132,40,49,0
481.89005,482.10132,43,49,0
