start_time,end_time,note_value,velocity,instrument_program_number
0.0,0.821856,65,50,0
0.821856,1.2385205,69,47,0
1.2385205,2.055467,72,52,0
2.055467,2.470433,69,46,0
2.470433,3.296879,70,50,0
3.296879,3.716606,79,47,0
3.716606,3.920051,77,47,0
3.920051,4.1299143,76,44,0
4.1299143,4.5496416,76,44,0
4.9728193,5.3925724,77,50,0
5.3925724,5.8090367,69,46,0
5.8090367,6.2287893,74,46,0
6.2287893,6.6518316,67,50,0
6.6518316,7.281515,72,54,0
7.281515,7.4947343,69,45,0
7.4947343,9.16059,65,50,0
9.16059,9.212648,64,42,0
9.212648,9.264707,65,37,0
9.264707,9.368822,64,48,0
9.368822,9.577054,62,48,0
9.577054,10.000096,64,50,0
8.744126,10.000096,67,50,0
10.000096,10.419824,69,48,0
10.419824,10.829884,70,52,0
10.829884,11.246347,74,55,0
11.246347,11.451378,74,58,0
11.451378,11.654822,72,57,0
10.000096,11.654822,65,48,0
11.654822,11.858268,70,56,0
11.858268,12.061712,69,54,0
12.061712,12.265158,67,53,0
12.265158,12.471769,65,51,0
12.471769,12.875592,67,54,0
12.875592,12.980524,70,50,0
13.295319,13.721758,64,54,0
13.295319,13.721758,58,54,0
13.721758,14.138222,57,56,0
13.721758,14.138222,65,56,0
14.554686,14.867034,84,50,0
14.867034,14.975385,82,44,0
14.975385,15.0795,81,50,0
15.391849,15.495964,81,50,0
15.812547,16.124895,81,47,0
16.124895,16.22901,79,42,0
16.22901,16.333126,77,48,0
16.645475,16.74959,77,44,0
17.065228,17.481691,77,44,0
17.481691,17.585808,79,46,0
17.481691,17.585808,76,46,0
17.898155,18.002272,79,44,0
17.898155,18.002272,76,44,0
18.31462,18.42038,76,44,0
18.31462,18.42038,79,44,0
18.737661,19.154125,79,50,0
18.737661,19.154125,76,50,0
19.154125,19.57669,77,44,0
19.154125,19.57669,81,44,0
19.57669,19.674461,84,50,0
19.674461,19.772232,86,44,0
19.772232,19.870003,84,44,0
19.870003,19.967773,82,44,0
19.967773,20.07189,81,50,0
20.384237,20.488354,81,50,0
20.800701,20.89653,81,47,0
20.89653,20.992357,82,42,0
20.992357,21.088186,81,42,0
21.088186,21.184015,79,42,0
21.184015,21.28813,77,48,0
21.60048,21.704594,77,44,0
22.016943,22.12106,77,44,0
22.433407,22.843466,79,49,0
22.843466,22.9527,82,44,0
23.280403,23.703445,70,35,0
23.280403,23.703445,76,44,0
23.703445,24.126486,77,48,0
23.703445,24.126486,69,38,0
24.549528,24.97257,84,44,0
24.97257,25.395613,77,48,0
25.818655,26.241697,72,39,0
26.241697,26.664738,65,43,0
27.08778,27.515741,61,80,0
27.515741,28.139225,62,85,0
28.139225,28.24094,65,78,0
28.24094,28.342655,69,81,0
28.342655,28.44437,74,84,0
28.546087,28.647802,69,79,0
28.647802,28.749517,74,82,0
28.749517,28.851233,77,86,0
28.952948,29.054665,74,79,0
29.054665,29.15638,77,82,0
29.15638,29.25955,81,87,0
29.36272,29.569063,81,80,0
29.569063,29.778399,77,80,0
29.778399,29.887825,74,80,0
29.887825,29.9243,73,70,0
29.9243,29.960773,76,70,0
29.960773,29.99725,79,70,0
29.99725,30.6284,82,90,0
30.6284,30.741888,81,71,0
30.731571,30.844791,79,68,0
30.834742,30.945288,77,68,0
30.935238,31.045782,76,68,0
31.035732,31.147512,74,69,0
31.136229,31.25969,73,72,0
31.24907,31.881706,82,90,0
31.881706,31.996012,81,71,0
31.98562,32.099655,79,68,0
32.089535,32.200855,77,68,0
32.190735,32.302055,76,68,0
32.29194,32.40326,74,69,0
32.39314,32.504677,73,72,0
32.49434,33.11456,74,88,0
33.11456,33.216274,65,70,0
33.216274,33.31799,69,72,0
33.31799,33.419704,74,84,0
33.52142,33.623135,69,71,0
33.623135,33.72485,74,73,0
33.72485,33.826565,77,86,0
33.92828,34.03,74,71,0
34.03,34.131714,77,73,0
34.131714,34.234882,81,87,0
34.338055,34.544395,81,80,0
34.544395,34.75373,77,80,0
34.75373,34.972584,74,80,0
34.972584,35.603733,71,75,0
34.972584,35.603733,74,75,0
34.972584,35.603733,80,90,0
34.972584,35.603733,77,75,0
35.603733,35.71722,79,71,0
35.706905,35.820194,77,68,0
35.810074,35.921394,75,68,0
35.911274,36.0226,74,68,0
36.012478,36.125328,72,69,0
36.113678,36.240784,71,72,0
36.230164,36.8628,80,90,0
36.8628,36.977108,79,71,0
36.966717,37.080822,77,68,0
37.07063,37.182728,75,68,0
37.17254,37.284637,74,68,0
37.27445,37.386547,72,69,0
37.376358,37.4886,71,72,0
37.478264,37.995113,72,88,0
37.995113,38.098484,67,69,0
38.098484,38.2002,72,74,0
38.2002,38.301914,67,70,0
38.301914,38.40363,75,74,0
38.40363,38.505344,72,71,0
38.505344,38.60706,75,75,0
38.60706,38.70878,72,70,0
38.70878,38.810493,79,74,0
38.810493,38.91221,75,71,0
38.91221,39.013924,79,74,0
39.013924,39.13136,75,71,0
39.13136,39.336235,84,91,0
39.964245,40.483814,72,88,0
40.483814,40.587727,68,69,0
40.587727,40.68944,72,74,0
40.68944,40.79116,68,70,0
40.79116,40.892876,75,74,0
40.892876,40.99459,72,71,0
40.99459,41.096306,75,75,0
41.096306,41.19802,72,70,0
41.19802,41.299736,80,74,0
41.299736,41.40145,75,71,0
41.40145,41.503166,80,74,0
41.503166,41.6206,75,71,0
41.6206,41.825478,84,91,0
42.453487,42.973057,72,88,0
42.973057,43.076973,66,69,0
43.076973,43.178688,72,74,0
43.178688,43.280403,66,70,0
43.280403,43.38212,75,74,0
43.38212,43.483833,72,71,0
43.483833,43.58555,75,75,0
43.58555,43.687263,72,70,0
43.687263,43.788982,78,74,0
43.788982,43.890697,75,71,0
43.890697,43.992413,78,74,0
43.992413,44.109848,75,71,0
44.109848,44.52406,84,91,0
44.52406,44.84606,78,81,0
44.84606,44.882538,67,70,0
44.882538,44.919014,71,70,0
44.919014,44.95549,74,70,0
44.95549,45.80157,79,90,0
45.80157,45.9121,77,72,0
45.9036,46.01413,75,72,0
46.005627,46.117058,74,73,0
46.107655,46.220493,72,76,0
46.220493,47.05311,79,90,0
47.05311,47.16286,77,72,0
47.154415,47.264168,75,72,0
47.255726,47.36548,74,73,0
47.357037,47.458347,72,76,0
47.458347,48.08034,79,90,0
48.08034,48.190464,80,79,0
48.18194,48.293636,79,78,0
48.28499,48.398304,77,76,0
48.389526,48.504505,75,75,0
48.4956,48.61336,74,74,0
48.60346,48.731285,72,72,0
48.72227,48.83041,79,79,0
49.154827,49.26297,67,72,0
49.965874,50.019943,67,41,0
50.019943,50.1257,76,45,0
50.442986,50.548744,76,43,0
50.866028,50.98785,76,43,0
51.269485,51.322754,71,42,0
51.322754,51.962006,79,45,0
51.962006,52.17509,77,41,0
52.17509,52.61757,74,41,0
52.61757,52.83065,74,45,0
52.83065,53.043736,72,41,0
52.61757,53.043736,64,45,0
53.043736,53.66468,67,45,0
53.043736,53.66468,72,45,0
53.66468,53.88259,74,45,0
53.66468,53.88259,71,45,0
53.88259,54.73507,71,49,0
53.88259,54.73507,74,49,0
54.73507,55.170895,76,45,0
54.73507,55.170895,72,45,0
55.170895,55.804665,77,45,0
55.804665,55.85716,79,46,0
55.85716,55.909657,77,42,0
55.909657,55.96215,76,42,0
55.96215,55.997147,77,45,0
56.014645,56.224625,79,49,0
56.224625,56.438908,81,47,0
56.44254,56.64952,81,55,0
56.64952,56.856503,79,49,0
56.856503,57.063484,78,52,0
57.063484,57.270466,79,45,0
57.270466,57.477448,77,50,0
57.477448,57.69702,74,45,0
57.69702,57.910103,75,49,0
57.910103,58.123188,76,45,0
58.123188,58.328693,77,50,0
58.328693,58.534203,76,45,0
58.534203,58.739708,79,49,0
58.739708,58.962658,77,45,0
58.962658,59.175743,76,52,0
59.175743,59.382725,74,45,0
59.382725,59.589706,72,48,0
59.589706,59.796688,71,45,0
59.796688,60.009773,69,46,0
60.009773,60.222855,67,45,0
60.222855,60.43594,75,49,0
60.43594,60.64902,76,42,0
60.64902,60.862106,75,49,0
60.862106,61.075188,76,41,0
61.075188,61.28193,75,52,0
61.28193,61.502907,76,48,0
61.502907,61.715748,78,58,0
61.715748,61.92859,79,53,0
61.92859,62.14143,78,58,0
62.14143,62.35427,79,46,0
62.35427,62.567116,77,46,0
62.567116,62.788094,74,37,0
62.788094,63.000935,74,45,0
63.000935,63.213776,72,41,0
63.213776,63.420757,74,45,0
63.420757,63.62774,72,41,0
63.213776,63.62774,67,41,0
63.62774,63.83472,76,45,0
63.83472,64.052635,74,45,0
63.62774,64.052635,71,41,0
64.052635,64.69359,74,49,0
64.69359,64.905106,75,49,0
64.052635,64.905106,71,49,0
64.905106,65.340935,72,45,0
64.905106,65.340935,76,45,0
65.340935,65.97471,77,45,0
65.97471,66.0272,79,46,0
66.0272,66.0797,77,42,0
66.0797,66.13219,76,42,0
66.13219,66.16719,77,45,0
66.184685,66.39467,79,49,0
66.39467,66.61258,81,47,0
66.61258,66.819565,81,55,0
66.819565,67.02654,79,49,0
67.02654,67.23353,78,52,0
67.23353,67.440506,79,45,0
67.440506,67.64749,77,50,0
67.64749,67.86706,74,45,0
67.86706,68.08015,75,49,0
68.08015,68.29323,76,45,0
68.29323,68.49873,79,50,0
68.49873,68.70424,77,45,0
68.70424,68.90975,74,49,0
68.90975,69.1327,71,45,0
69.1327,69.34578,72,52,0
69.34578,69.549835,67,34,0
69.75389,69.85592,67,34,0
70.161995,70.26776,67,34,0
70.37352,70.47627,67,40,0
70.37352,70.47627,65,34,0
70.579025,70.68178,65,28,0
70.579025,70.68178,67,33,0
70.98859,71.090614,67,33,0
70.98859,71.090614,65,28,0
71.39815,71.50469,65,28,0
71.39815,71.50469,67,33,0
71.61124,71.71326,67,40,0
71.61124,71.71326,63,34,0
71.815285,71.91731,67,34,0
71.815285,71.91731,63,28,0
72.2234,72.325424,67,34,0
72.2234,72.325424,63,28,0
72.6315,72.73727,63,28,0
72.6315,72.73727,67,34,0
72.843025,72.94505,65,34,0
72.843025,72.94505,67,40,0
73.04708,73.14911,65,28,0
73.04708,73.14911,67,33,0
73.455185,73.55721,65,28,0
73.455185,73.55721,67,33,0
73.8633,73.96983,67,33,0
73.8633,73.96983,65,28,0
74.07638,74.178406,63,63,0
74.07638,74.178406,67,63,0
74.28043,74.38246,67,50,0
74.28043,74.38246,63,50,0
74.68854,74.790565,63,33,0
74.68854,74.790565,67,33,0
75.09665,75.20089,63,33,0
75.09665,75.20089,67,33,0
75.30512,75.40503,63,63,0
75.30512,75.40503,68,63,0
75.50494,75.606964,68,50,0
75.50494,75.606964,63,50,0
75.91305,76.015076,68,33,0
75.91305,76.015076,63,33,0
76.32115,76.42539,63,33,0
76.32115,76.42539,68,33,0
76.52963,76.62886,68,63,0
76.52963,76.62886,62,63,0
76.72809,76.83011,62,50,0
76.72809,76.83011,68,50,0
77.13619,77.23822,62,33,0
77.13619,77.23822,68,33,0
77.544304,77.64779,68,33,0
77.544304,77.64779,62,33,0
77.75128,77.85051,67,63,0
77.75128,77.85051,62,63,0
77.94974,78.051765,62,50,0
77.94974,78.051765,67,50,0
78.35784,78.45987,67,33,0
78.35784,78.45987,62,33,0
78.76595,78.87094,62,33,0
78.76595,78.87094,67,33,0
78.97593,79.075836,67,63,0
78.97593,79.075836,60,63,0
79.17574,79.27565,67,50,0
79.17574,79.27565,60,50,0
79.58107,79.68382,67,33,0
79.58107,79.68382,60,33,0
79.786575,79.88718,65,63,0
79.786575,79.88718,60,63,0
79.98778,80.08839,60,50,0
79.98778,80.08839,65,50,0
80.39304,80.49507,65,33,0
80.39304,80.49507,60,33,0
80.5971,80.69632,59,63,0
80.5971,80.69632,65,63,0
80.79555,80.894775,65,50,0
80.79555,80.894775,59,50,0
81.19805,81.30008,65,33,0
81.19805,81.30008,59,33,0
81.60332,81.70392,60,33,0
81.60332,81.70392,63,33,0
82.008575,82.1106,60,33,0
82.008575,82.1106,63,33,0
82.42238,82.52725,63,33,0
82.42238,82.52725,60,33,0
82.632126,82.84364,62,38,0
82.632126,82.84364,59,32,0
82.84364,83.0562,67,37,0
82.84364,83.0562,63,31,0
83.0477,83.260254,65,33,0
83.0477,83.260254,62,28,0
83.251755,83.46431,60,26,0
83.251755,83.46431,63,31,0
83.4558,83.66874,59,28,0
83.4558,83.66874,62,33,0
83.65986,83.88145,63,30,0
83.65986,83.88145,60,25,0
83.87294,84.076996,59,32,0
83.87294,84.076996,62,38,0
84.076996,84.28955,63,31,0
84.076996,84.28955,67,37,0
84.28105,84.49361,62,28,0
84.28105,84.49361,65,33,0
84.48511,84.69766,60,26,0
84.48511,84.69766,63,31,0
84.689156,84.90202,62,33,0
84.689156,84.90202,59,28,0
84.89321,85.113235,60,25,0
84.89321,85.113235,63,30,0
85.10474,85.31729,62,37,0
85.10474,85.31729,59,31,0
85.308784,85.52135,63,32,0
85.308784,85.52135,60,27,0
85.51284,85.725395,59,31,0
85.51284,85.725395,62,37,0
85.716896,85.92945,60,28,0
85.716896,85.92945,63,34,0
85.92095,86.13351,62,37,0
85.92095,86.13351,59,31,0
86.12501,86.33756,63,34,0
86.12501,86.33756,60,28,0
86.329056,86.53311,59,31,0
86.329056,86.53311,62,37,0
86.53311,86.74567,58,33,0
86.53311,86.74567,61,33,0
86.73717,86.950836,59,35,0
86.73717,86.950836,62,35,0
86.942215,87.158966,64,36,0
86.942215,87.158966,61,36,0
87.15022,87.37013,65,38,0
87.15022,87.37013,62,38,0
87.36125,87.58321,67,40,0
87.36125,87.58321,64,40,0
87.57434,88.0005,69,42,0
87.57434,88.0005,65,35,0
88.0005,88.426674,69,40,0
88.0005,88.426674,65,34,0
88.0005,88.426674,60,34,0
88.426674,88.85923,60,34,0
88.426674,88.85923,69,40,0
88.426674,88.85923,65,34,0
88.85923,89.705315,65,35,0
88.85923,89.705315,69,42,0
89.705315,90.14391,67,34,0
89.705315,90.14391,64,28,0
88.85923,90.14391,60,35,0
90.14391,90.35239,67,42,0
90.35239,90.56547,65,38,0
90.14391,90.56547,62,35,0
90.14391,90.56547,59,35,0
90.56547,90.99164,62,35,0
90.56547,90.99164,59,35,0
90.56547,90.99164,65,42,0
90.99164,91.43078,59,32,0
90.99164,91.43078,62,32,0
90.99164,91.43078,65,38,0
91.43078,92.27686,65,42,0
91.43078,92.27686,62,35,0
91.43078,92.27686,59,35,0
92.27686,92.7062,60,33,0
92.27686,92.7062,64,39,0
92.7062,92.91171,64,35,0
92.7062,92.91171,67,42,0
92.91171,93.12169,62,31,0
92.91171,93.12169,65,37,0
93.12169,93.54166,64,42,0
93.12169,93.54166,60,35,0
93.54166,93.96782,62,36,0
93.54166,93.96782,59,30,0
93.96782,94.18739,64,42,0
93.96782,94.18739,60,35,0
94.18739,94.380455,72,35,0
94.39796,94.589714,74,37,0
94.607086,94.79766,76,38,0
94.81491,95.00431,77,40,0
95.02143,95.20966,79,41,0
95.22667,95.65284,81,46,0
95.65284,96.079,81,44,0
96.079,96.51156,81,44,0
96.51156,97.146126,81,46,0
97.146126,97.251884,83,39,0
97.251884,97.35764,81,39,0
97.35764,97.7902,79,46,0
97.7902,97.99868,79,46,0
97.99868,98.21176,77,41,0
97.7902,98.21176,71,35,0
98.21176,98.63793,77,46,0
98.21176,98.63793,71,35,0
98.63793,99.07707,71,32,0
98.63793,99.07707,77,41,0
99.07707,99.92316,77,46,0
99.07707,99.92316,71,35,0
99.92316,100.35249,72,33,0
99.92316,100.35249,76,42,0
100.35249,100.558,76,35,0
100.35249,100.558,79,46,0
100.558,100.76798,74,31,0
100.558,100.76798,77,40,0
100.76798,101.18794,72,35,0
100.76798,101.18794,76,46,0
101.18794,101.61411,74,39,0
101.18794,101.61411,71,30,0
101.61411,101.71402,76,63,0
101.61411,101.71402,79,63,0
101.81393,101.91383,76,50,0
101.81393,101.91383,79,50,0
102.21494,102.31555,77,33,0
102.21494,102.31555,74,33,0
102.62021,102.72224,76,33,0
102.62021,102.72224,72,33,0
103.02831,103.13034,65,33,0
103.02831,103.13034,74,33,0
103.43218,103.53209,64,33,0
103.43218,103.53209,72,33,0
103.8375,103.940254,71,33,0
103.8375,103.940254,62,33,0
104.14577,104.24852,76,72,0
104.24852,104.35127,79,75,0
104.35127,104.454025,76,72,0
104.55393,104.65384,74,70,0
104.65384,104.753746,77,75,0
104.753746,104.85365,74,70,0
104.956406,105.05916,72,72,0
105.05916,105.16191,76,75,0
105.16191,105.26466,72,71,0
105.365974,105.467285,65,71,0
105.467285,105.568596,74,75,0
105.568596,105.66991,65,71,0
105.77051,105.87112,64,71,0
105.87112,105.97172,72,75,0
105.97172,106.07232,64,71,0
106.17581,106.279305,62,71,0
106.279305,106.3828,71,75,0
106.3828,106.48638,62,71,0
106.48638,106.899055,72,75,0
106.48638,106.899055,67,75,0
106.48638,106.899055,64,75,0
107.30747,107.35879,76,70,0
107.35879,107.41048,77,65,0
107.41048,107.46262,76,70,0
107.46262,107.51535,77,66,0
107.51535,107.55073,76,70,0
107.55073,107.586426,77,66,0
107.586426,107.62226,76,66,0
107.62226,107.676575,74,70,0
107.676575,107.73098,72,66,0
107.73098,108.54116,79,75,0
108.54116,108.59257,83,70,0
108.59257,108.64435,84,66,0
108.64435,108.6965,83,70,0
108.6965,108.74923,84,66,0
108.74923,108.7846,83,70,0
108.7846,108.82011,84,65,0
108.82011,108.85584,83,66,0
108.85584,108.90985,81,70,0
108.90985,108.963486,79,65,0
108.963486,109.78456,84,75,0
109.78456,109.83588,76,70,0
109.83588,109.88744,77,65,0
109.88744,109.93953,76,70,0
109.93953,109.99219,77,66,0
109.99219,110.027504,76,70,0
110.027504,110.06314,77,66,0
110.06314,110.09891,76,66,0
110.09891,110.153145,74,70,0
110.153145,110.20756,72,66,0
110.20756,110.41141,79,75,0
110.61195,110.81573,79,75,0
111.018326,111.06967,83,70,0
111.06967,111.12138,84,66,0
111.12138,111.17348,83,70,0
111.17348,111.226135,84,66,0
111.226135,111.261444,83,70,0
111.261444,111.29692,84,65,0
111.29692,111.33263,83,66,0
111.33263,111.38649,81,70,0
111.38649,111.44062,79,65,0
111.44062,111.54818,84,75,0
111.87174,112.48319,88,88,0
112.48319,112.68741,80,75,0
112.68741,112.79462,81,75,0
113.11583,113.72729,84,89,0
113.72729,113.93121,76,75,0
113.93121,113.982895,77,70,0
113.982895,114.034584,79,65,0
114.034584,114.086266,77,70,0
114.086266,114.13795,79,66,0
114.13795,114.17241,77,70,0
114.17241,114.20686,79,66,0
114.20686,114.24132,77,66,0
114.24132,114.29301,76,70,0
114.29301,114.34469,74,66,0
114.34469,114.44806,79,84,0
114.7584,114.86482,83,86,0
114.7584,114.86482,74,72,0
114.7584,114.86482,79,72,0
115.18408,115.290504,79,72,0
115.18408,115.290504,76,72,0
115.18408,115.290504,84,86,0
115.609764,115.71619,60,79,0
116.46113,117.28299,65,50,0
117.28299,117.69965,69,47,0
117.69965,118.516594,72,52,0
118.516594,118.931564,69,46,0
118.931564,119.75801,70,50,0
119.75801,120.177734,79,47,0
120.177734,120.38118,77,47,0
120.38118,120.588425,76,44,0
120.59104,121.01077,76,44,0
121.4383,121.858055,77,50,0
121.858055,122.27452,69,46,0
122.27452,122.694275,74,46,0
122.694275,123.11732,67,50,0
123.11732,123.746994,72,54,0
123.746994,123.96022,69,45,0
123.96022,125.626076,65,50,0
125.626076,125.67813,64,42,0
125.67813,125.73019,65,37,0
125.73019,125.834305,64,48,0
125.834305,126.042534,62,48,0
126.042534,126.465576,64,50,0
125.20961,126.465576,67,50,0
126.465576,126.88531,69,48,0
126.88531,127.295364,70,52,0
127.295364,127.70923,74,55,0
127.71183,127.91686,74,58,0
127.91686,128.1203,72,57,0
126.465576,128.1203,65,48,0
128.1203,128.32375,70,56,0
128.32375,128.52719,69,54,0
128.52719,128.73064,67,53,0
128.73064,128.93726,65,51,0
128.93726,129.34108,67,54,0
129.34108,129.446,70,50,0
129.7608,130.18724,58,54,0
129.7608,130.18724,64,54,0
130.18724,130.6037,57,56,0
130.18724,130.6037,65,56,0
131.02017,131.33252,84,50,0
131.33252,131.44087,82,44,0
131.44087,131.54498,81,50,0
131.85733,131.96144,81,50,0
132.27803,132.59038,81,47,0
132.59038,132.69449,79,42,0
132.69449,132.79861,77,48,0
133.11096,133.21507,77,44,0
133.53072,133.94717,77,44,0
133.94717,134.05128,79,46,0
133.94717,134.05128,76,46,0
134.36363,134.46776,76,44,0
134.36363,134.46776,79,44,0
134.7801,134.88586,76,44,0
134.7801,134.88586,79,44,0
135.20314,135.61961,76,50,0
135.20314,135.61961,79,50,0
135.61961,136.04529,77,44,0
135.61961,136.04529,81,44,0
136.04529,136.14241,84,50,0
136.14241,136.23952,86,44,0
136.23952,136.33662,84,44,0
136.33662,136.43375,82,44,0
136.43375,136.53786,81,50,0
136.8502,136.95432,81,50,0
137.26666,137.36378,81,47,0
137.36378,137.46089,82,42,0
137.46089,137.558,81,42,0
137.558,137.67021,79,42,0
137.67021,137.77432,77,48,0
138.08667,138.19078,77,44,0
138.50313,138.60725,77,44,0
138.9196,139.32965,79,49,0
139.32965,139.43889,82,44,0
139.7666,140.18964,76,44,0
139.7666,140.18964,70,35,0
140.18964,140.61267,69,38,0
140.18964,140.61267,77,48,0
141.03572,141.45876,84,44,0
141.45876,141.8818,77,48,0
142.30484,142.72789,72,39,0
142.72789,143.15092,65,43,0
143.57397,144.00194,61,80,0
144.00194,144.62541,62,85,0
144.62541,144.72713,65,70,0
144.72713,144.82884,69,72,0
144.82884,144.93056,74,84,0
145.03227,145.13399,69,71,0
145.13399,145.2357,74,73,0
145.2357,145.33742,77,86,0
145.43913,145.54086,74,71,0
145.54086,145.64258,77,73,0
145.64258,145.74574,81,87,0
145.8489,146.05525,81,80,0
146.05525,146.26459,77,80,0
146.26459,146.37401,74,80,0
146.37401,146.41049,73,70,0
146.41049,146.44696,76,70,0
146.44696,146.48344,79,70,0
146.48344,147.1146,82,90,0
147.1146,147.22807,81,71,0
147.21776,147.33098,79,68,0
147.32094,147.43147,77,68,0
147.42143,147.53197,76,68,0
147.52193,147.6337,74,69,0
147.62242,147.74588,73,72,0
147.73526,148.3679,82,90,0
148.3679,148.47768,81,71,0
148.4677,148.5777,79,68,0
148.5675,148.6796,77,68,0
148.6694,148.78151,76,68,0
148.77132,148.88342,74,69,0
148.87323,148.98552,73,72,0
148.97513,149.59862,74,88,0
149.59862,149.70033,65,70,0
149.70033,149.80205,69,72,0
149.80205,149.90376,74,84,0
150.00548,150.1072,69,71,0
150.1072,150.20891,74,73,0
150.20891,150.31062,77,86,0
150.41234,150.51405,74,71,0
150.51405,150.61577,77,73,0
150.61577,150.71895,81,87,0
150.82211,151.02846,81,80,0
151.02846,151.2378,77,80,0
151.2378,151.45665,74,80,0
151.45665,152.08386,77,75,0
151.45665,152.08386,71,75,0
151.45665,152.08386,80,90,0
151.45665,152.08386,74,75,0
152.08386,152.19518,79,71,0
152.18506,152.29637,77,68,0
152.28625,152.39758,75,68,0
152.38745,152.49878,74,68,0
152.48866,152.60152,72,69,0
152.58986,152.71696,71,72,0
152.70634,153.33899,80,90,0
153.33899,153.4533,79,71,0
153.4429,153.55708,77,68,0
153.54681,153.65971,75,68,0
153.64944,153.76234,74,68,0
153.75208,153.86497,72,69,0
153.85472,153.96774,71,72,0
153.95735,154.47691,72,88,0
154.47691,154.58083,67,69,0
154.58083,154.68256,72,74,0
154.68256,154.78427,67,70,0
154.78427,154.88599,75,74,0
154.88599,154.9877,72,71,0
154.9877,155.08942,75,75,0
155.08942,155.19113,72,70,0
155.19113,155.29285,79,74,0
155.29285,155.39456,75,71,0
155.39456,155.49628,79,74,0
155.49628,155.61371,75,71,0
155.61371,155.81859,84,91,0
156.4466,156.96616,72,88,0
156.96616,157.07008,68,69,0
157.07008,157.1718,72,74,0
157.1718,157.27351,68,70,0
157.27351,157.37523,75,74,0
157.37523,157.47694,72,71,0
157.47694,157.57866,75,75,0
157.57866,157.68037,72,70,0
157.68037,157.78209,80,74,0
157.78209,157.8838,75,71,0
157.8838,157.98552,80,74,0
157.98552,158.10295,75,71,0
158.10295,158.30783,84,91,0
158.93584,159.45541,72,88,0
159.45541,159.55933,66,69,0
159.55933,159.66104,72,74,0
159.66104,159.76276,66,70,0
159.76276,159.86447,75,74,0
159.86447,159.96619,72,71,0
159.96619,160.0679,75,75,0
160.0679,160.16962,72,70,0
160.16962,160.27133,78,74,0
160.27133,160.37305,75,71,0
160.37305,160.47476,78,74,0
160.47476,160.5922,75,71,0
160.5922,161.00641,84,91,0
161.00641,161.32841,78,81,0
161.32841,161.36488,67,70,0
161.36488,161.40137,71,70,0
161.40137,161.43784,74,70,0
161.43784,162.28392,79,90,0
162.28392,162.39279,77,72,0
162.38441,162.49329,75,72,0
162.48491,162.59482,74,73,0
162.5854,162.69826,72,76,0
162.69826,163.53087,79,90,0
163.53087,163.63823,77,72,0
163.62997,163.73735,75,72,0
163.7291,163.83647,74,73,0
163.8282,163.92732,72,76,0
163.92732,164.54932,79,90,0
164.54932,164.65944,80,79,0
164.65091,164.7626,79,78,0
164.75397,164.86728,77,76,0
164.8585,164.97348,75,75,0
164.96457,165.08234,74,74,0
165.07243,165.20026,72,72,0
165.19124,165.29938,79,79,0
165.6238,165.73193,67,72,0
166.43484,166.48892,67,41,0
166.48892,166.59468,76,45,0
166.91196,167.01772,76,43,0
167.335,167.45682,76,43,0
167.73846,167.79173,71,42,0
167.79173,168.43098,79,45,0
168.43098,168.64406,77,41,0
168.64406,169.08653,74,41,0
169.08653,169.29962,74,45,0
169.29962,169.51093,72,41,0
169.08653,169.51271,64,45,0
169.51271,170.13365,67,45,0
169.51271,170.13365,72,45,0
170.13365,170.35156,74,45,0
170.13365,170.35156,71,45,0
170.35156,171.20404,74,49,0
170.35156,171.20404,71,49,0
171.20404,171.63986,76,45,0
171.20404,171.63986,72,45,0
171.63986,172.27364,77,45,0
172.27364,172.32613,79,46,0
172.32613,172.37863,77,42,0
172.37863,172.43112,76,42,0
172.43112,172.46613,77,45,0
172.48361,172.6936,79,49,0
172.6936,172.91151,81,47,0
172.91151,173.1185,81,55,0
173.1185,173.32547,79,49,0
173.32547,173.53246,78,52,0
173.53246,173.73944,79,45,0
173.73944,173.94643,77,50,0
173.94643,174.16599,74,45,0
174.16599,174.37907,75,49,0
174.37907,174.59216,76,45,0
174.59216,174.79767,77,50,0
174.79767,175.00317,76,45,0
175.00317,175.20868,79,49,0
175.20868,175.43163,77,45,0
175.43163,175.64471,76,52,0
175.64471,175.8517,74,45,0
175.8517,176.05869,72,48,0
176.05869,176.26566,71,45,0
176.26566,176.47874,69,46,0
176.47874,176.69183,67,45,0
176.69183,176.9049,75,49,0
176.9049,177.118,76,42,0
177.118,177.33109,75,49,0
177.33109,177.54416,76,41,0
177.54416,177.7524,75,52,0
177.7524,177.96063,76,48,0
177.96063,178.17346,78,58,0
178.17346,178.3863,79,53,0
178.3863,178.59605,78,58,0
178.59605,178.8058,79,46,0
178.8058,179.01865,77,46,0
179.01865,179.23149,74,37,0
179.23149,179.44276,74,45,0
179.44276,179.65405,72,41,0
179.65405,179.86104,74,45,0
179.86104,180.06801,72,41,0
179.65405,180.06801,67,41,0
180.06801,180.275,76,45,0
180.275,180.4929,74,45,0
180.06801,180.4929,71,41,0
180.4929,181.13387,74,49,0
181.13387,181.34538,75,49,0
180.4929,181.34538,71,49,0
181.34538,181.7812,76,45,0
181.34538,181.7812,72,45,0
181.7812,182.41498,77,45,0
182.41498,182.46747,79,46,0
182.46747,182.51997,77,42,0
182.51997,182.57246,76,42,0
182.57246,182.60747,77,45,0
182.62495,182.83495,79,49,0
182.83495,183.05286,81,47,0
183.05286,183.25984,81,55,0
183.25984,183.46681,79,49,0
183.46681,183.6738,78,52,0
183.6738,183.88078,79,45,0
183.88078,184.08777,77,50,0
184.08777,184.30733,74,45,0
184.30733,184.52042,75,49,0
184.52042,184.7335,76,45,0
184.7335,184.93901,79,50,0
184.93901,185.14452,77,45,0
185.14452,185.35002,74,49,0
185.35002,185.57297,71,45,0
185.57297,185.78606,72,52,0
185.78606,185.99011,67,34,0
186.19417,186.29619,67,34,0
186.60228,186.70804,67,34,0
186.8138,186.91655,65,34,0
186.8138,186.91655,67,40,0
187.0193,187.12206,65,28,0
187.0193,187.12206,67,33,0
187.42886,187.53088,67,33,0
187.42886,187.53088,65,28,0
187.83842,187.94496,65,28,0
187.83842,187.94496,67,33,0
188.05151,188.15353,63,34,0
188.05151,188.15353,67,40,0
188.25555,188.35759,63,28,0
188.25555,188.35759,67,34,0
188.66367,188.7657,67,34,0
188.66367,188.7657,63,28,0
189.07178,189.17754,67,34,0
189.07178,189.17754,63,28,0
189.2833,189.38533,65,34,0
189.2833,189.38533,67,40,0
189.48735,189.58939,67,33,0
189.48735,189.58939,65,28,0
189.89546,189.99748,65,28,0
189.89546,189.99748,67,33,0
190.30357,190.41011,65,28,0
190.30357,190.41011,67,33,0
190.51665,190.61868,63,63,0
190.51665,190.61868,67,63,0
190.7207,190.82274,63,50,0
190.7207,190.82274,67,50,0
191.12881,191.23083,63,33,0
191.12881,191.23083,67,33,0
191.53693,191.64116,67,33,0
191.53693,191.64116,63,33,0
191.7454,191.8453,63,63,0
191.7454,191.8453,68,63,0
191.9452,192.04724,68,50,0
191.9452,192.04724,63,50,0
192.35332,192.45535,63,33,0
192.35332,192.45535,68,33,0
192.76143,192.86566,68,33,0
192.76143,192.86566,63,33,0
192.96991,193.06914,68,63,0
192.96991,193.06914,62,63,0
193.16837,193.27039,68,50,0
193.16837,193.27039,62,50,0
193.57646,193.6785,62,33,0
193.57646,193.6785,68,33,0
193.98457,194.08807,62,33,0
193.98457,194.08807,68,33,0
194.19156,194.29079,67,63,0
194.19156,194.29079,62,63,0
194.39001,194.49203,67,50,0
194.39001,194.49203,62,50,0
194.79811,194.90015,62,33,0
194.79811,194.90015,67,33,0
195.20622,195.31122,67,33,0
195.20622,195.31122,62,33,0
195.4162,195.51611,60,63,0
195.4162,195.51611,67,63,0
195.61601,195.71593,60,50,0
195.61601,195.71593,67,50,0
196.02135,196.1241,60,33,0
196.02135,196.1241,67,33,0
196.22685,196.32745,60,63,0
196.22685,196.32745,65,63,0
196.42805,196.52866,65,50,0
196.42805,196.52866,60,50,0
196.83331,196.93535,65,33,0
196.83331,196.93535,60,33,0
197.03737,197.1366,65,63,0
197.03737,197.1366,59,63,0
197.23582,197.33505,59,50,0
197.23582,197.33505,65,50,0
197.63832,197.74036,59,33,0
197.63832,197.74036,65,33,0
198.0436,198.1442,63,33,0
198.0436,198.1442,60,33,0
198.45154,198.5549,63,33,0
198.45154,198.5549,60,33,0
198.86955,198.9752,60,33,0
198.86955,198.9752,63,33,0
199.08084,199.29686,62,38,0
199.08084,199.29686,59,32,0
199.29686,199.50941,63,31,0
199.29686,199.50941,67,37,0
199.50092,199.71347,65,33,0
199.50092,199.71347,62,28,0
199.70496,199.91751,63,31,0
199.70496,199.91751,60,26,0
199.90901,200.12195,62,33,0
199.90901,200.12195,59,28,0
200.11307,200.33466,60,25,0
200.11307,200.33466,63,30,0
200.32616,200.53021,59,32,0
200.32616,200.53021,62,38,0
200.53021,200.74277,63,31,0
200.53021,200.74277,67,37,0
200.73427,200.94682,62,28,0
200.73427,200.94682,65,33,0
200.93831,201.15088,63,31,0
200.93831,201.15088,60,26,0
201.14236,201.35524,59,28,0
201.14236,201.35524,62,33,0
201.34642,201.56645,60,25,0
201.34642,201.56645,63,30,0
201.55794,201.77051,59,31,0
201.55794,201.77051,62,37,0
201.762,201.97455,60,27,0
201.762,201.97455,63,32,0
201.96605,202.1786,59,31,0
201.96605,202.1786,62,37,0
202.1701,202.38266,60,28,0
202.1701,202.38266,63,34,0
202.37416,202.58672,59,31,0
202.37416,202.58672,62,37,0
202.57822,202.79077,63,34,0
202.57822,202.79077,60,28,0
202.78227,202.98633,62,37,0
202.78227,202.98633,59,31,0
202.98633,203.19888,61,33,0
202.98633,203.19888,58,33,0
203.19038,203.40405,59,35,0
203.19038,203.40405,62,35,0
203.39543,203.61218,64,36,0
203.39543,203.61218,61,36,0
203.60342,203.82388,62,38,0
203.60342,203.82388,65,38,0
203.81447,204.0495,67,40,0
203.81447,204.0495,64,40,0
204.04062,204.46631,69,42,0
204.04062,204.46631,65,35,0
204.46631,204.892,69,40,0
204.46631,204.892,65,34,0
204.46631,204.892,60,34,0
204.892,205.32455,60,34,0
204.892,205.32455,69,40,0
204.892,205.32455,65,34,0
205.32455,206.17064,69,42,0
205.32455,206.17064,65,35,0
206.17064,206.6032,64,28,0
206.17064,206.6032,67,34,0
205.32455,206.6032,60,35,0
206.6032,206.81166,67,42,0
206.81166,207.02475,65,38,0
206.6032,207.02475,59,35,0
206.6032,207.02475,62,35,0
207.02475,207.45091,65,42,0
207.02475,207.45091,59,35,0
207.02475,207.45091,62,35,0
207.45091,207.89006,65,38,0
207.45091,207.89006,59,32,0
207.45091,207.89006,62,32,0
207.89006,208.73615,59,35,0
207.89006,208.73615,62,35,0
207.89006,208.73615,65,42,0
208.73615,209.16548,60,33,0
208.73615,209.16548,64,39,0
209.16548,209.37099,67,42,0
209.16548,209.37099,64,35,0
209.37099,209.58096,62,31,0
209.37099,209.58096,65,37,0
209.58096,210.00093,64,42,0
209.58096,210.00093,60,35,0
210.00093,210.4271,62,36,0
210.00093,210.4271,59,30,0
210.4271,210.64667,64,42,0
210.4271,210.64667,60,35,0
210.64667,210.83974,72,35,0
210.85724,211.049,74,37,0
211.06638,211.25694,76,38,0
211.27419,211.4636,77,40,0
211.48071,211.66895,79,41,0
211.68594,212.11212,81,46,0
212.11212,212.53828,81,44,0
212.53828,212.97084,81,44,0
212.97084,213.60541,81,46,0
213.60541,213.71117,83,39,0
213.71117,213.81693,81,39,0
213.81693,214.24948,79,46,0
214.24948,214.45796,79,46,0
214.45796,214.67104,77,41,0
214.24948,214.67104,71,35,0
214.67104,215.09721,71,35,0
214.67104,215.09721,77,46,0
215.09721,215.53635,71,32,0
215.09721,215.53635,77,41,0
215.53635,216.38243,71,35,0
215.53635,216.38243,77,46,0
216.38243,216.81177,76,42,0
216.38243,216.81177,72,33,0
216.81177,217.01727,79,46,0
216.81177,217.01727,76,35,0
217.01727,217.22726,74,31,0
217.01727,217.22726,77,40,0
217.22726,217.64722,72,35,0
217.22726,217.64722,76,46,0
217.64722,218.0734,71,30,0
217.64722,218.0734,74,39,0
218.0734,218.1733,79,63,0
218.0734,218.1733,76,63,0
218.27321,218.37311,76,50,0
218.27321,218.37311,79,50,0
218.67422,218.77483,74,33,0
218.67422,218.77483,77,33,0
219.07948,219.18152,76,33,0
219.07948,219.18152,72,33,0
219.4876,219.58961,74,33,0
219.4876,219.58961,65,33,0
219.89146,219.99136,64,33,0
219.89146,219.99136,72,33,0
220.29678,220.39954,62,33,0
220.29678,220.39954,71,33,0
220.60504,220.7078,76,72,0
220.7078,220.81055,79,75,0
220.81055,220.9133,76,72,0
221.01321,221.11311,74,70,0
221.11311,221.21303,77,75,0
221.21303,221.31293,74,70,0
221.41568,221.51843,72,72,0
221.51843,221.62119,76,75,0
221.62119,221.72395,72,71,0
221.82526,221.92656,65,71,0
221.92656,222.02788,74,75,0
222.02788,222.12918,65,71,0
222.2298,222.3304,64,71,0
222.3304,222.431,72,75,0
222.431,222.5316,64,71,0
222.63509,222.73859,62,71,0
222.73859,222.84207,71,75,0
222.84207,222.94566,62,71,0
222.94566,223.35834,72,75,0
222.94566,223.35834,67,75,0
222.94566,223.35834,64,75,0
223.76675,223.81807,76,70,0
223.81807,223.86975,77,65,0
223.86975,223.9219,76,70,0
223.9219,223.97462,77,66,0
223.97462,224.01001,76,70,0
224.01001,224.04572,77,66,0
224.04572,224.08154,76,66,0
224.08154,224.13585,74,70,0
224.13585,224.19026,72,66,0
224.19026,225.00044,79,75,0
225.00044,225.05185,83,70,0
225.05185,225.10362,84,66,0
225.10362,225.15578,83,70,0
225.15578,225.20851,84,66,0
225.20851,225.24388,83,70,0
225.24388,225.27939,84,65,0
225.27939,225.31512,83,66,0
225.31512,225.36913,81,70,0
225.36913,225.42276,79,65,0
225.42276,226.24384,84,75,0
226.24384,226.29515,76,70,0
226.29515,226.34673,77,65,0
226.34673,226.3988,76,70,0
226.3988,226.45146,77,66,0
226.45146,226.48679,76,70,0
226.48679,226.52242,77,66,0
226.52242,226.55818,76,66,0
226.55818,226.61243,74,70,0
226.61243,226.66684,72,66,0
226.66684,226.87068,79,75,0
227.07123,227.27501,79,75,0
227.4776,227.52895,83,70,0
227.52895,227.58066,84,66,0
227.58066,227.63275,83,70,0
227.63275,227.68541,84,66,0
227.68541,227.72073,83,70,0
227.72073,227.7562,84,65,0
227.7562,227.7919,83,66,0
227.7919,227.84578,81,70,0
227.84578,227.8999,79,65,0
227.8999,228.00746,84,75,0
228.33102,228.94247,88,88,0
228.94247,229.14668,80,75,0
229.14668,229.25389,81,75,0
229.5751,230.18657,84,89,0
230.18657,230.39049,76,75,0
230.39049,230.44217,77,70,0
230.44217,230.49387,79,65,0
230.49387,230.54555,77,70,0
230.54555,230.59723,79,66,0
230.59723,230.63168,77,70,0
230.63168,230.66614,79,66,0
230.66614,230.7006,77,66,0
230.7006,230.75229,76,70,0
230.75229,230.80397,74,66,0
230.80397,230.90733,79,84,0
231.21768,231.3241,74,72,0
231.21768,231.3241,79,72,0
231.21768,231.3241,83,86,0
231.64336,231.74979,84,86,0
231.64336,231.74979,76,72,0
231.64336,231.74979,79,72,0
232.06905,232.17546,60,79,0
233.33737,233.74547,72,46,0
233.74547,234.18076,76,46,0
232.92041,234.18076,67,50,0
234.18076,234.99698,72,48,0
234.18076,234.99698,76,53,0
234.99698,235.41393,74,43,0
234.99698,235.41393,71,43,0
234.18076,235.41393,67,45,0
235.41393,235.81917,79,50,0
235.81917,236.22159,72,46,0
236.22159,236.64156,76,46,0
235.81917,236.64156,67,40,0
236.64156,237.46358,76,53,0
236.64156,237.46358,72,48,0
237.46358,237.88054,71,43,0
237.46358,237.88054,74,43,0
236.64156,237.88054,67,45,0
237.88054,238.28578,69,50,0
238.28578,238.69102,74,50,0
238.69102,239.09023,77,50,0
239.09023,239.49263,76,50,0
239.49263,239.91519,74,50,0
239.91519,240.74911,81,50,0
240.74911,241.15721,79,50,0
241.15721,241.56532,71,50,0
241.56532,241.76938,72,50,0
241.76938,241.97343,67,50,0
241.97343,242.17749,64,50,0
242.17749,242.38155,67,50,0
242.38155,242.5856,65,50,0
242.5856,242.80516,62,50,0
242.80516,243.11789,60,50,0
243.11789,243.22212,55,43,0
243.22212,243.63023,60,46,0
243.63023,244.05905,64,48,0
244.05905,244.87526,64,55,0
244.05905,244.87526,60,50,0
244.87526,245.29222,59,43,0
244.87526,245.29222,62,43,0
245.29222,245.69746,67,50,0
245.69746,246.09987,60,46,0
246.09987,246.52869,64,48,0
245.69746,246.52869,55,40,0
246.52869,247.35072,64,55,0
246.52869,247.35072,60,50,0
247.35072,247.76767,62,43,0
247.35072,247.76767,59,43,0
247.76767,248.17291,57,50,0
248.17291,248.57816,62,50,0
248.57816,248.98917,65,50,0
248.98917,249.39159,64,50,0
249.39159,249.81415,62,50,0
249.81415,250.64807,69,50,0
250.64807,251.05617,67,50,0
251.05617,251.46428,59,50,0
251.46428,251.67737,60,52,0
251.67737,251.88142,67,34,0
252.08124,252.18114,67,34,0
252.48366,252.58943,67,34,0
252.69519,252.79579,67,40,0
252.69519,252.79579,65,34,0
252.8964,252.997,67,33,0
252.8964,252.997,65,28,0
253.29881,253.39941,67,33,0
253.29881,253.39941,65,28,0
253.70552,253.81206,65,28,0
253.70552,253.81206,67,33,0
253.91861,254.01991,63,34,0
253.91861,254.01991,67,40,0
254.12123,254.22253,63,28,0
254.12123,254.22253,67,34,0
254.5279,254.62993,63,28,0
254.5279,254.62993,67,34,0
254.936,255.04176,63,28,0
254.936,255.04176,67,34,0
255.14752,255.24814,67,40,0
255.14752,255.24814,65,34,0
255.34874,255.44934,67,33,0
255.34874,255.44934,65,28,0
255.75256,255.85387,67,33,0
255.75256,255.85387,65,28,0
256.1578,256.26434,67,33,0
256.1578,256.26434,65,23,0
256.37088,256.4715,67,63,0
256.37088,256.4715,63,53,0
256.57208,256.67413,63,42,0
256.57208,256.67413,67,50,0
256.9802,257.08224,63,28,0
256.9802,257.08224,67,33,0
257.3883,257.49255,67,33,0
257.3883,257.49255,63,28,0
257.5968,257.6959,66,63,0
257.5968,257.6959,60,53,0
257.5968,257.6959,63,53,0
257.795,257.89703,66,50,0
257.795,257.89703,60,42,0
257.795,257.89703,63,42,0
258.20312,258.30515,60,28,0
258.20312,258.30515,63,28,0
258.20312,258.30515,66,33,0
258.61124,258.71548,66,33,0
258.61124,258.71548,63,28,0
258.61124,258.71548,60,28,0
258.8197,258.91895,67,63,0
258.8197,258.91895,62,53,0
259.01816,259.12018,62,42,0
259.01816,259.12018,67,50,0
259.42462,259.52582,62,28,0
259.42462,259.52582,67,33,0
259.83084,259.93433,67,33,0
259.83084,259.93433,62,28,0
260.0378,260.13705,72,63,0
260.0378,260.13705,62,53,0
260.0378,260.13705,69,53,0
260.23627,260.3361,69,42,0
260.23627,260.3361,72,50,0
260.23627,260.3361,62,42,0
260.64114,260.74377,62,28,0
260.64114,260.74377,72,33,0
260.64114,260.74377,69,28,0
261.05167,261.15668,69,28,0
261.05167,261.15668,62,28,0
261.05167,261.15668,72,33,0
261.26166,261.3609,62,53,0
261.26166,261.3609,67,53,0
261.26166,261.3609,70,63,0
261.4601,261.56213,70,50,0
261.4601,261.56213,67,42,0
261.4601,261.56213,62,42,0
261.86517,261.96567,67,28,0
261.86517,261.96567,70,33,0
261.86517,261.96567,62,28,0
262.26996,262.37497,67,28,0
262.26996,262.37497,70,33,0
262.26996,262.37497,62,28,0
262.47995,262.57916,73,63,0
262.47995,262.57916,67,53,0
262.47995,262.57916,70,53,0
262.6784,262.7782,67,42,0
262.6784,262.7782,73,50,0
262.6784,262.7782,70,42,0
263.0804,263.1816,73,33,0
263.0804,263.1816,70,28,0
263.0804,263.1816,67,28,0
263.4852,263.5902,67,28,0
263.4852,263.5902,70,28,0
263.4852,263.5902,73,33,0
263.6952,263.7944,69,53,0
263.6952,263.7944,74,63,0
263.89365,263.99344,74,50,0
263.89365,263.99344,69,42,0
264.29565,264.39685,74,33,0
264.29565,264.39685,69,28,0
264.70044,264.80545,74,33,0
264.70044,264.80545,69,28,0
264.91043,265.00964,79,63,0
264.91043,265.00964,69,53,0
264.91043,265.00964,76,53,0
265.1089,265.2109,76,42,0
265.1089,265.2109,69,42,0
265.1089,265.2109,79,50,0
265.517,265.61902,69,28,0
265.517,265.61902,76,28,0
265.517,265.61902,79,33,0
265.9251,266.0301,69,28,0
265.9251,266.0301,79,33,0
265.9251,266.0301,76,28,0
266.13507,266.2343,69,53,0
266.13507,266.2343,77,63,0
266.13507,266.2343,74,53,0
266.33353,266.43555,74,42,0
266.33353,266.43555,77,50,0
266.33353,266.43555,69,42,0
266.74164,266.84366,69,28,0
266.74164,266.84366,74,28,0
266.74164,266.84366,77,33,0
267.14975,267.25858,69,28,0
267.14975,267.25858,77,33,0
267.14975,267.25858,74,28,0
267.3674,267.4666,74,53,0
267.3674,267.4666,80,65,0
267.56586,267.66788,74,42,0
267.56586,267.66788,80,54,0
267.97394,268.076,74,28,0
267.97394,268.076,80,33,0
268.38205,268.49426,80,33,0
268.38205,268.49426,74,28,0
268.60645,268.818,73,32,0
268.60645,268.818,81,38,0
268.818,269.03055,77,31,0
268.818,269.03055,81,37,0
269.02203,269.2346,76,28,0
269.02203,269.2346,79,33,0
269.22607,269.43863,77,31,0
269.22607,269.43863,74,26,0
269.43015,269.64307,73,28,0
269.43015,269.64307,76,33,0
269.6342,269.85577,77,30,0
269.6342,269.85577,74,25,0
269.8473,270.05133,73,32,0
269.8473,270.05133,76,38,0
270.05133,270.26364,65,31,0
270.05133,270.26364,69,37,0
270.25516,270.46747,67,33,0
270.25516,270.46747,64,28,0
270.45895,270.67126,62,26,0
270.45895,270.67126,65,31,0
270.66278,270.87543,64,33,0
270.66278,270.87543,61,28,0
270.8666,271.08646,65,30,0
270.8666,271.08646,62,25,0
271.07812,271.28632,61,31,0
271.07812,271.28632,64,37,0
271.27795,271.48746,65,32,0
271.27795,271.48746,62,27,0
271.47916,271.68735,61,31,0
271.47916,271.68735,64,37,0
271.67896,271.88843,65,34,0
271.67896,271.88843,62,28,0
271.88016,272.08694,61,31,0
271.88016,272.08694,64,37,0
272.0786,272.27844,62,28,0
272.0786,272.27844,65,34,0
272.27844,272.67532,61,31,0
272.27844,272.67532,64,37,0
273.47696,273.68225,64,29,0
273.47696,273.68225,60,24,0
273.67383,273.8845,65,25,0
273.67383,273.8845,62,21,0
273.87622,274.08273,64,29,0
273.87622,274.08273,60,24,0
274.07446,274.28122,62,22,0
274.07446,274.28122,65,27,0
274.27292,274.48105,64,29,0
274.27292,274.48105,60,24,0
274.4725,274.68597,65,27,0
274.4725,274.68597,62,22,0
274.67776,275.07196,60,31,0
274.67776,275.07196,64,29,0
275.86035,276.06696,64,59,0
276.0586,276.26794,65,51,0
276.2598,276.4638,64,59,0
276.45554,276.66214,65,55,0
276.654,276.85803,64,59,0
276.84976,277.05643,65,55,0
275.86035,277.4424,58,49,0
275.86035,277.4424,60,49,0
277.04822,277.4424,64,59,0
278.23077,278.44193,82,37,0
278.4332,278.6515,81,32,0
278.64294,278.85706,82,37,0
278.8482,279.0698,81,34,0
279.06104,279.28,82,37,0
279.27078,279.49176,81,34,0
279.49176,279.88867,82,37,0
278.23077,279.88867,76,31,0
280.68793,281.50977,65,50,0
281.50977,281.92645,69,47,0
281.92645,282.74338,72,52,0
282.74338,283.15836,69,46,0
283.15836,283.9848,70,50,0
283.9848,284.40454,79,47,0
284.40454,284.60797,77,47,0
284.60797,284.81522,76,44,0
284.81784,285.23758,76,44,0
285.66074,286.0805,77,50,0
286.0805,286.49695,69,46,0
286.49695,286.91672,74,46,0
286.91672,287.33975,67,50,0
287.33975,287.96945,72,54,0
287.96945,288.18265,69,45,0
288.18265,289.8485,65,50,0
289.8485,289.90057,64,42,0
289.90057,289.95264,65,37,0
289.95264,290.05673,64,48,0
290.05673,290.26498,62,48,0
290.26498,290.68802,64,50,0
289.43204,290.68802,67,50,0
290.68802,291.10776,69,48,0
291.10776,291.5178,70,52,0
291.5178,291.9308,74,55,0
291.93427,292.1393,74,58,0
292.1393,292.34274,72,57,0
290.68802,292.34274,65,48,0
292.34274,292.5462,70,56,0
292.5462,292.74963,69,54,0
292.74963,292.9531,67,53,0
292.9531,293.1597,65,51,0
293.1597,293.5635,67,54,0
293.5635,293.66846,70,50,0
293.98325,294.40967,64,54,0
293.98325,294.40967,58,54,0
294.40967,294.82614,57,56,0
294.40967,294.82614,65,56,0
295.2426,295.55496,84,50,0
295.55496,295.6633,82,44,0
295.6633,295.76743,81,50,0
296.07977,296.1839,81,50,0
296.50046,296.8128,81,47,0
296.8128,296.91693,79,42,0
296.91693,297.02106,77,48,0
297.3334,297.4375,77,44,0
297.75314,298.16962,77,44,0
298.16962,298.27374,79,46,0
298.16962,298.27374,76,46,0
298.5861,298.6902,79,44,0
298.5861,298.6902,76,44,0
299.00253,299.1083,76,44,0
299.00253,299.1083,79,44,0
299.4256,299.84204,79,50,0
299.4256,299.84204,76,50,0
299.84204,300.26773,77,44,0
299.84204,300.26773,81,44,0
300.26773,300.36484,84,50,0
300.36484,300.46194,86,44,0
300.46194,300.55908,84,44,0
300.55908,300.6562,82,44,0
300.6562,300.76028,81,50,0
301.07263,301.17676,81,50,0
301.4891,301.58557,81,47,0
301.58557,301.68204,82,42,0
301.68204,301.7785,81,42,0
301.7785,301.875,79,42,0
301.875,301.9791,77,48,0
302.29144,302.39557,77,44,0
302.70792,302.81204,77,44,0
303.1244,303.53442,79,49,0
303.53442,303.64368,82,44,0
303.97137,304.3944,70,35,0
303.97137,304.3944,76,44,0
304.3944,304.81744,77,48,0
304.3944,304.81744,69,38,0
305.2405,305.66354,84,44,0
305.66354,306.08658,77,48,0
306.5096,306.93268,72,39,0
306.93268,307.3557,65,43,0
307.77875,308.20758,61,80,0
308.20758,308.83105,62,85,0
308.83105,308.93277,65,70,0
308.93277,309.0345,69,72,0
309.0345,309.1362,74,84,0
309.2379,309.33963,69,71,0
309.33963,309.44135,74,73,0
309.44135,309.54306,77,86,0
309.64478,309.7465,74,71,0
309.7465,309.8482,77,73,0
309.8482,309.9514,81,87,0
310.05453,310.2609,81,80,0
310.2609,310.4702,77,80,0
310.4702,310.57965,74,80,0
310.57965,310.61612,73,70,0
310.61612,310.6526,76,70,0
310.6526,310.6891,79,70,0
310.6891,311.31488,82,90,0
311.31488,311.4254,81,71,0
311.41537,311.5259,79,68,0
311.51587,311.6264,77,68,0
311.61636,311.7269,76,68,0
311.71686,311.82864,74,69,0
311.81735,311.94083,73,72,0
311.9302,312.56284,82,90,0
312.56284,312.67715,81,71,0
312.66675,312.78107,79,68,0
312.77066,312.88498,77,68,0
312.87457,312.9889,76,68,0
312.9785,313.0928,74,69,0
313.0824,313.19672,73,72,0
313.1863,313.8098,74,88,0
313.8098,313.91153,65,70,0
313.91153,314.01324,69,72,0
314.01324,314.11496,74,84,0
314.21667,314.3184,69,71,0
314.3184,314.4201,74,73,0
314.4201,314.52182,77,86,0
314.62354,314.72525,74,71,0
314.72525,314.82697,77,73,0
314.82697,314.9301,81,87,0
315.0333,315.23965,81,80,0
315.23965,315.44897,77,80,0
315.44897,315.66782,74,80,0
315.66782,316.29645,71,75,0
315.66782,316.29645,74,75,0
315.66782,316.29645,80,90,0
315.66782,316.29645,77,75,0
316.29645,316.40857,79,71,0
316.39838,316.51047,77,68,0
316.50027,316.61237,75,68,0
316.60217,316.7143,74,68,0
316.7041,316.81766,72,69,0
316.806,316.9331,71,72,0
316.9225,317.5551,80,90,0
317.5551,317.66943,79,71,0
317.65903,317.77335,77,68,0
317.76294,317.87726,75,68,0
317.86685,317.98117,74,68,0
317.9708,318.08508,72,69,0
318.0747,318.189,71,72,0
318.17862,318.8021,72,88,0
318.8021,318.9038,63,70,0
318.9038,319.00552,67,72,0
319.00552,319.10724,72,84,0
319.20895,319.31067,67,71,0
319.31067,319.41238,72,73,0
319.41238,319.5141,75,86,0
319.6158,319.71753,72,71,0
319.71753,319.81924,75,73,0
319.81924,319.92242,79,87,0
320.02557,320.23193,79,80,0
320.23193,320.44125,75,80,0
320.44125,320.66013,72,80,0
320.66013,321.29126,69,75,0
320.66013,321.29126,72,75,0
320.66013,321.29126,78,90,0
320.66013,321.29126,75,75,0
321.29126,321.40182,77,71,0
321.39175,321.50232,75,68,0
321.49225,321.6028,73,68,0
321.59274,321.7033,72,68,0
321.69324,321.8054,70,69,0
321.79373,321.92087,69,72,0
321.91025,322.54288,78,90,0
322.54288,322.65265,77,71,0
322.64267,322.75244,75,68,0
322.74246,322.85226,73,68,0
322.8423,322.95206,72,68,0
322.94208,323.05185,70,69,0
323.04187,323.15195,69,72,0
323.14166,323.65485,70,88,0
323.65485,323.75748,65,69,0
323.75748,323.8592,70,74,0
323.8592,323.9609,65,70,0
323.9609,324.06262,73,74,0
324.06262,324.16434,70,71,0
324.16434,324.26605,73,75,0
324.26605,324.36777,70,70,0
324.36777,324.46948,77,74,0
324.46948,324.5712,73,71,0
324.5712,324.6729,77,74,0
324.6729,324.79034,73,71,0
324.79034,325.20456,82,91,0
325.62323,326.14282,69,88,0
326.14282,326.24673,65,69,0
326.24673,326.34845,69,74,0
326.34845,326.45016,65,70,0
326.45016,326.55188,72,74,0
326.55188,326.6536,69,71,0
326.6536,326.7553,72,75,0
326.7553,326.85703,69,70,0
326.85703,326.95874,77,74,0
326.95874,327.06046,72,71,0
327.06046,327.16217,77,74,0
327.16217,327.2796,72,71,0
327.2796,327.69382,81,91,0
328.12582,328.6454,68,88,0
328.6454,328.74933,65,69,0
328.74933,328.85104,68,74,0
328.85104,328.95276,65,70,0
328.95276,329.05447,74,74,0
329.05447,329.1562,68,71,0
329.1562,329.2579,74,75,0
329.2579,329.35962,68,70,0
329.35962,329.46133,77,74,0
329.46133,329.56305,74,71,0
329.56305,329.66476,77,74,0
329.66476,329.7822,74,71,0
329.7822,330.1964,80,91,0
330.1964,330.5104,77,81,0
330.5104,330.54688,72,70,0
330.54688,330.58334,76,70,0
330.58334,330.61984,79,70,0
330.61984,331.4659,84,90,0
331.4659,331.57645,82,72,0
331.56793,331.67847,80,72,0
331.66998,331.7814,79,73,0
331.772,331.88483,77,76,0
331.88483,332.71744,84,90,0
332.71744,332.8272,82,72,0
332.81876,332.92853,80,72,0
332.92007,333.02982,79,73,0
333.0214,333.12268,77,76,0
333.12268,333.7447,72,90,0
333.7447,333.8548,73,79,0
333.84628,333.95798,72,78,0
333.94934,334.06265,70,76,0
334.05386,334.16885,68,75,0
334.15994,334.2777,67,74,0
334.2678,334.39563,65,72,0
334.38663,334.49475,72,79,0
334.81918,334.9273,60,72,0
335.63022,335.6843,60,41,0
335.6843,335.79004,69,45,0
336.10733,336.2131,69,43,0
336.53036,336.6522,69,43,0
336.93384,336.9871,64,42,0
336.9871,337.62634,72,45,0
337.62634,337.83945,70,41,0
337.83945,338.28192,67,41,0
338.28192,338.495,67,45,0
338.495,338.70807,65,41,0
338.28192,338.70807,57,45,0
338.70807,339.329,60,45,0
338.70807,339.329,65,45,0
339.329,339.54694,67,45,0
339.329,339.54694,64,45,0
339.54694,340.3994,64,49,0
339.54694,340.3994,67,49,0
340.3994,340.83524,69,45,0
340.3994,340.83524,65,45,0
340.83524,341.469,70,45,0
341.469,341.5215,72,46,0
341.5215,341.574,70,42,0
341.574,341.6265,69,42,0
341.6265,341.6615,70,45,0
341.679,341.88898,72,49,0
341.88898,342.10687,74,47,0
342.10687,342.31387,74,55,0
342.31387,342.52084,72,49,0
342.52084,342.7278,71,52,0
342.7278,342.9348,72,45,0
342.9348,343.14178,70,50,0
343.14178,343.36136,67,45,0
343.36136,343.57443,68,49,0
343.57443,343.78754,69,45,0
343.78754,343.99304,70,50,0
343.99304,344.19855,69,45,0
344.19855,344.40405,72,49,0
344.40405,344.627,70,45,0
344.627,344.8401,69,52,0
344.8401,345.04706,67,45,0
345.04706,345.25406,65,48,0
345.25406,345.46103,64,45,0
345.46103,345.6741,62,46,0
345.6741,345.8872,60,45,0
345.8872,346.10028,80,49,0
345.8872,346.10028,68,39,0
346.10028,346.31335,81,42,0
346.10028,346.31335,69,33,0
346.31335,346.5231,80,49,0
346.31335,346.5231,68,39,0
346.5231,346.73285,81,41,0
346.5231,346.73285,69,32,0
346.73285,346.9457,80,52,0
346.73285,346.9457,68,41,0
346.9457,347.165,81,48,0
346.9457,347.165,69,38,0
347.165,347.37784,83,58,0
347.165,347.37784,71,46,0
347.37784,347.59067,84,53,0
347.37784,347.59067,72,42,0
347.59067,347.8004,83,58,0
347.59067,347.8004,71,46,0
347.8004,348.01016,84,46,0
347.8004,348.01016,72,36,0
348.01016,348.22302,82,49,0
348.22302,348.43585,79,39,0
348.43585,348.64893,79,45,0
348.64893,348.86203,77,41,0
348.86203,349.069,79,45,0
349.069,349.276,77,41,0
348.86203,349.276,72,41,0
349.276,349.48297,81,45,0
349.48297,349.70087,79,45,0
349.276,349.70087,76,41,0
349.70087,350.34183,79,49,0
350.34183,350.55334,80,49,0
349.70087,350.55334,76,49,0
350.55334,350.98917,77,45,0
350.55334,350.98917,81,45,0
350.98917,351.62296,82,49,0
351.62296,351.67545,84,50,0
351.67545,351.72794,82,46,0
351.72794,351.78043,81,46,0
351.78043,351.81543,82,49,0
351.83295,352.0429,84,53,0
352.0429,352.26083,86,51,0
352.26083,352.4678,86,60,0
352.4678,352.6748,84,53,0
352.6748,352.88177,83,57,0
352.88177,353.08875,84,49,0
353.08875,353.29575,82,55,0
353.29575,353.51532,79,49,0
353.51532,353.7284,80,53,0
353.7284,353.94147,81,49,0
353.94147,354.14697,84,55,0
354.14697,354.35248,82,49,0
354.35248,354.55798,79,53,0
354.55798,354.78094,76,49,0
354.78094,354.99402,77,54,0
354.99402,355.1981,72,35,0
355.40213,355.50415,72,35,0
355.81024,355.91602,72,35,0
356.02176,356.1245,72,42,0
356.02176,356.1245,70,35,0
356.22726,356.33002,70,29,0
356.22726,356.33002,72,34,0
356.63684,356.73886,72,34,0
356.63684,356.73886,70,29,0
357.0464,357.15292,70,29,0
357.0464,357.15292,72,34,0
357.2595,357.36,72,42,0
357.2595,357.36,68,35,0
357.46048,357.56238,72,35,0
357.46048,357.56238,68,29,0
357.86835,357.97037,72,35,0
357.86835,357.97037,68,29,0
358.27646,358.3822,68,29,0
358.27646,358.3822,72,35,0
358.48798,358.58847,70,35,0
358.48798,358.58847,72,42,0
358.68896,358.7916,70,29,0
358.68896,358.7916,72,34,0
359.0983,359.20032,70,29,0
359.0983,359.20032,72,34,0
359.5064,359.61295,72,34,0
359.5064,359.61295,70,29,0
359.71948,359.8215,68,63,0
359.71948,359.8215,72,63,0
359.92352,360.02557,72,50,0
359.92352,360.02557,68,50,0
360.33163,360.43365,68,33,0
360.33163,360.43365,72,33,0
360.73975,360.844,68,33,0
360.73975,360.844,72,33,0
360.9482,361.04813,68,63,0
360.9482,361.04813,73,63,0
361.14804,361.25006,73,50,0
361.14804,361.25006,68,50,0
361.55615,361.65817,73,33,0
361.55615,361.65817,68,33,0
361.96426,362.06848,68,33,0
361.96426,362.06848,73,33,0
362.17273,362.27197,73,63,0
362.17273,362.27197,67,63,0
362.3712,362.4732,67,50,0
362.3712,362.4732,73,50,0
362.7793,362.88132,67,33,0
362.7793,362.88132,73,33,0
363.1874,363.2909,73,33,0
363.1874,363.2909,67,33,0
363.39438,363.49362,72,63,0
363.39438,363.49362,67,63,0
363.59283,363.69485,67,50,0
363.59283,363.69485,72,50,0
364.00095,364.10297,72,33,0
364.00095,364.10297,67,33,0
364.40906,364.51404,67,33,0
364.40906,364.51404,72,33,0
364.61902,364.71893,72,63,0
364.61902,364.71893,65,63,0
364.81885,364.91876,72,50,0
364.81885,364.91876,65,50,0
365.22418,365.32693,72,33,0
365.22418,365.32693,65,33,0
365.4297,365.53027,70,63,0
365.4297,365.53027,65,63,0
365.6309,365.73148,65,50,0
365.6309,365.73148,70,50,0
366.03613,366.13818,70,33,0
366.03613,366.13818,65,33,0
366.2402,366.33942,64,63,0
366.2402,366.33942,70,63,0
366.43866,366.53787,70,50,0
366.43866,366.53787,64,50,0
366.84116,366.94318,70,33,0
366.84116,366.94318,64,33,0
367.24643,367.34702,65,33,0
367.24643,367.34702,68,33,0
367.65167,367.7537,65,33,0
367.65167,367.7537,68,33,0
368.0627,368.1662,68,33,0
368.0627,368.1662,65,33,0
368.26968,368.4812,67,38,0
368.26968,368.4812,64,32,0
368.4812,368.6938,72,37,0
368.4812,368.6938,68,31,0
368.68527,368.89783,70,33,0
368.68527,368.89783,67,28,0
368.8893,369.10187,65,26,0
368.8893,369.10187,68,31,0
369.09338,369.3063,64,28,0
369.09338,369.3063,67,33,0
369.29742,369.519,68,30,0
369.29742,369.519,65,25,0
369.51053,369.71457,64,32,0
369.51053,369.71457,67,38,0
369.71457,369.92712,68,31,0
369.71457,369.92712,72,37,0
369.9186,370.13116,67,28,0
369.9186,370.13116,70,33,0
370.12268,370.33524,65,26,0
370.12268,370.33524,68,31,0
370.32672,370.5396,67,33,0
370.32672,370.5396,64,28,0
370.5308,370.75073,65,25,0
370.5308,370.75073,68,30,0
370.7423,370.9533,67,37,0
370.7423,370.9533,64,31,0
370.9447,371.15988,68,32,0
370.9447,371.15988,65,27,0
371.15146,371.36246,64,31,0
371.15146,371.36246,67,37,0
371.35385,371.56903,65,28,0
371.35385,371.56903,68,34,0
371.56058,371.77173,67,37,0
371.56058,371.77173,64,31,0
371.763,371.98123,68,34,0
371.763,371.98123,65,28,0
371.97275,372.17654,64,31,0
371.97275,372.17654,67,37,0
372.17654,372.3889,63,33,0
372.17654,372.3889,66,33,0
372.3804,372.59406,64,35,0
372.3804,372.59406,67,35,0
372.58545,372.8022,69,36,0
372.58545,372.8022,66,36,0
372.79346,373.01437,70,38,0
372.79346,373.01437,67,38,0
373.0045,373.25067,72,40,0
373.0045,373.25067,69,40,0
373.2418,373.66748,74,42,0
373.2418,373.66748,70,35,0
373.66748,374.09314,74,40,0
373.66748,374.09314,70,34,0
373.66748,374.09314,65,34,0
374.09314,374.52573,65,34,0
374.09314,374.52573,74,40,0
374.09314,374.52573,70,34,0
374.52573,375.3718,70,35,0
374.52573,375.3718,74,42,0
375.3718,375.8104,72,34,0
375.3718,375.8104,69,28,0
374.52573,375.8104,65,35,0
375.8104,376.01886,72,42,0
376.01886,376.23196,70,38,0
375.8104,376.23196,67,35,0
375.8104,376.23196,64,35,0
376.23196,376.6581,67,35,0
376.23196,376.6581,64,35,0
376.23196,376.6581,70,42,0
376.6581,377.09726,64,32,0
376.6581,377.09726,67,32,0
376.6581,377.09726,70,38,0
377.09726,377.94336,70,42,0
377.09726,377.94336,67,35,0
377.09726,377.94336,64,35,0
377.94336,378.37268,65,33,0
377.94336,378.37268,69,39,0
378.37268,378.5782,69,35,0
378.37268,378.5782,72,42,0
378.5782,378.78818,67,31,0
378.5782,378.78818,70,37,0
378.78818,379.20813,69,42,0
378.78818,379.20813,65,35,0
379.20813,379.6343,67,36,0
379.20813,379.6343,64,30,0
379.6343,379.85388,69,42,0
379.6343,379.85388,65,35,0
379.85388,380.04694,77,35,0
380.06442,380.2562,79,37,0
380.27356,380.46414,81,38,0
380.48138,380.67078,82,40,0
380.68793,380.87616,84,41,0
380.89316,381.3193,86,46,0
381.3193,381.74548,86,44,0
381.74548,382.17804,86,44,0
382.17804,382.8126,86,46,0
382.8126,382.91837,88,39,0
382.91837,383.02414,86,39,0
383.02414,383.4567,84,46,0
383.4567,383.66516,84,46,0
383.66516,383.87823,82,41,0
383.4567,383.87823,76,35,0
383.87823,384.3044,82,46,0
383.87823,384.3044,76,35,0
384.3044,384.74356,76,32,0
384.3044,384.74356,82,41,0
384.74356,385.58963,82,46,0
384.74356,385.58963,76,35,0
385.58963,386.01898,77,33,0
385.58963,386.01898,81,42,0
386.01898,386.2245,81,35,0
386.01898,386.2245,84,46,0
386.2245,386.43448,79,31,0
386.2245,386.43448,82,40,0
386.43448,386.85443,77,35,0
386.43448,386.85443,81,46,0
386.85443,387.28058,79,39,0
386.85443,387.28058,76,30,0
387.28058,387.3805,81,63,0
387.28058,387.3805,84,63,0
387.4804,387.58032,81,50,0
387.4804,387.58032,84,50,0
387.88144,387.98203,82,33,0
387.88144,387.98203,79,33,0
388.28668,388.3887,81,33,0
388.28668,388.3887,77,33,0
388.6948,388.7968,70,33,0
388.6948,388.7968,79,33,0
389.09866,389.19858,69,33,0
389.09866,389.19858,77,33,0
389.504,389.60675,76,33,0
389.504,389.60675,67,33,0
389.81226,389.915,81,72,0
389.915,390.01776,84,75,0
390.01776,390.1205,81,72,0
390.22043,390.3203,79,70,0
390.3203,390.42023,82,75,0
390.42023,390.52014,79,70,0
390.6229,390.72565,77,72,0
390.72565,390.8284,81,75,0
390.8284,390.93115,77,71,0
391.03247,391.13376,70,71,0
391.13376,391.23508,79,75,0
391.23508,391.3364,70,71,0
391.43698,391.5376,69,71,0
391.5376,391.6382,77,75,0
391.6382,391.7388,69,71,0
391.8423,391.9458,67,71,0
391.9458,392.0493,76,75,0
392.0493,392.15286,67,71,0
392.15286,392.56555,77,75,0
392.15286,392.56555,72,75,0
392.15286,392.56555,69,75,0
392.97394,393.02527,69,70,0
393.02527,393.07697,70,65,0
393.07697,393.12912,69,70,0
393.12912,393.18182,70,66,0
393.18182,393.2172,69,70,0
393.2172,393.2529,70,66,0
393.2529,393.28876,69,66,0
393.28876,393.34305,67,70,0
393.34305,393.39746,65,66,0
393.39746,394.20764,72,75,0
394.20764,394.25906,76,70,0
394.25906,394.31082,77,66,0
394.31082,394.36298,76,70,0
394.36298,394.4157,77,66,0
394.4157,394.45108,76,70,0
394.45108,394.4866,77,65,0
394.4866,394.52234,76,66,0
394.52234,394.57632,74,70,0
394.57632,394.62997,72,65,0
394.62997,395.45105,77,75,0
395.45105,395.50235,81,70,0
395.50235,395.55392,82,65,0
395.55392,395.60602,81,70,0
395.60602,395.65866,82,66,0
395.65866,395.69397,81,70,0
395.69397,395.7296,82,66,0
395.7296,395.76538,81,66,0
395.76538,395.81964,79,70,0
395.81964,395.87405,77,66,0
395.87405,396.07788,84,75,0
396.27844,396.4822,84,75,0
396.6848,396.73615,88,70,0
396.73615,396.78787,89,66,0
396.78787,396.83997,88,70,0
396.83997,396.8926,89,66,0
396.8926,396.92792,88,70,0
396.92792,396.9634,89,65,0
396.9634,396.9991,88,66,0
396.9991,397.05298,86,70,0
397.05298,397.1071,84,65,0
397.1071,397.21466,89,75,0
397.53824,398.1497,81,88,0
398.1497,398.35388,73,75,0
398.35388,398.4611,74,75,0
398.78232,399.39377,77,89,0
399.39377,399.5977,69,75,0
399.5977,399.64938,70,70,0
399.64938,399.70105,72,65,0
399.70105,399.75275,70,70,0
399.75275,399.80444,72,66,0
399.80444,399.8389,70,70,0
399.8389,399.87335,72,66,0
399.87335,399.9078,70,66,0
399.9078,399.95947,69,70,0
399.95947,400.01117,67,66,0
400.01117,400.11453,72,84,0
400.42487,400.5313,76,86,0
400.42487,400.5313,67,72,0
400.42487,400.5313,72,72,0
400.85056,400.95697,72,72,0
400.85056,400.95697,69,72,0
400.85056,400.95697,77,86,0
401.27625,401.38266,65,79,0
402.54456,402.95267,72,46,0
402.95267,403.38797,76,46,0
402.12762,403.38797,67,50,0
403.38797,404.2042,72,48,0
403.38797,404.2042,76,53,0
404.2042,404.62112,74,43,0
404.2042,404.62112,71,43,0
403.38797,404.62112,67,45,0
404.62112,405.02637,79,50,0
405.02637,405.4288,72,46,0
405.4288,405.84875,76,46,0
405.02637,405.84875,67,40,0
405.84875,406.67078,76,53,0
405.84875,406.67078,72,48,0
406.67078,407.08774,71,43,0
406.67078,407.08774,74,43,0
405.84875,407.08774,67,45,0
407.08774,407.49298,69,50,0
407.49298,407.89822,74,50,0
407.89822,408.29742,77,50,0
408.29742,408.69983,76,50,0
408.69983,409.11084,74,50,0
409.11084,409.94476,81,50,0
409.94476,410.35287,79,50,0
410.35287,410.761,71,50,0
410.761,410.96503,72,50,0
410.96503,411.1691,67,50,0
411.1691,411.37314,64,50,0
411.37314,411.5772,67,50,0
411.5772,411.78125,65,50,0
411.78125,412.00082,62,50,0
412.00082,412.31354,60,50,0
412.31354,412.4178,55,43,0
412.4178,412.8259,60,46,0
412.8259,413.2547,64,48,0
413.2547,414.07092,64,55,0
413.2547,414.07092,60,50,0
414.07092,414.48788,59,43,0
414.07092,414.48788,62,43,0
414.48788,414.89313,67,50,0
414.89313,415.29553,60,46,0
415.29553,415.72433,64,48,0
414.89313,415.72433,55,40,0
415.72433,416.5464,64,55,0
415.72433,416.5464,60,50,0
416.5464,416.96332,62,43,0
416.5464,416.96332,59,43,0
416.96332,417.36856,57,50,0
417.36856,417.7738,62,50,0
417.7738,418.1848,65,50,0
418.1848,418.58725,64,50,0
418.58725,418.99826,62,50,0
418.99826,419.83215,69,50,0
419.83215,420.24026,67,50,0
420.24026,420.64838,59,50,0
420.64838,420.86148,60,52,0
420.86148,421.06552,67,34,0
421.26532,421.36523,67,34,0
421.66776,421.77353,67,34,0
421.8793,421.9799,67,40,0
421.8793,421.9799,65,34,0
422.0805,422.1811,67,33,0
422.0805,422.1811,65,28,0
422.4829,422.58353,67,33,0
422.4829,422.58353,65,28,0
422.88962,422.99615,65,28,0
422.88962,422.99615,67,33,0
423.10272,423.204,63,34,0
423.10272,423.204,67,40,0
423.30533,423.40665,63,28,0
423.30533,423.40665,67,34,0
423.712,423.81403,63,28,0
423.712,423.81403,67,34,0
424.12012,424.22586,63,28,0
424.12012,424.22586,67,34,0
424.33163,424.43222,67,40,0
424.33163,424.43222,65,34,0
424.53284,424.63345,67,33,0
424.53284,424.63345,65,28,0
424.93668,425.03796,67,33,0
424.93668,425.03796,65,28,0
425.34192,425.44846,67,33,0
425.34192,425.44846,65,23,0
425.555,425.6556,67,63,0
425.555,425.6556,63,53,0
425.7562,425.85822,63,42,0
425.7562,425.85822,67,50,0
426.1643,426.26633,63,28,0
426.1643,426.26633,67,33,0
426.57242,426.67667,67,33,0
426.57242,426.67667,63,28,0
426.78088,426.88,66,63,0
426.78088,426.88,60,53,0
426.78088,426.88,63,53,0
426.97913,427.08115,66,50,0
426.97913,427.08115,60,42,0
426.97913,427.08115,63,42,0
427.38724,427.48926,60,28,0
427.38724,427.48926,63,28,0
427.38724,427.48926,66,33,0
427.79535,427.89957,66,33,0
427.79535,427.89957,63,28,0
427.79535,427.89957,60,28,0
428.0038,428.10303,67,63,0
428.0038,428.10303,62,53,0
428.20227,428.3043,62,42,0
428.20227,428.3043,67,50,0
428.60873,428.70993,62,28,0
428.60873,428.70993,67,33,0
429.01495,429.11844,67,33,0
429.01495,429.11844,62,28,0
429.22192,429.32114,72,63,0
429.22192,429.32114,62,53,0
429.22192,429.32114,69,53,0
429.42038,429.52017,69,42,0
429.42038,429.52017,72,50,0
429.42038,429.52017,62,42,0
429.82526,429.9279,62,28,0
429.82526,429.9279,72,33,0
429.82526,429.9279,69,28,0
430.23578,430.34076,69,28,0
430.23578,430.34076,62,28,0
430.23578,430.34076,72,33,0
430.44577,430.54498,62,53,0
430.44577,430.54498,67,53,0
430.44577,430.54498,70,63,0
430.64423,430.74625,70,50,0
430.64423,430.74625,67,42,0
430.64423,430.74625,62,42,0
431.04926,431.14975,67,28,0
431.04926,431.14975,70,33,0
431.04926,431.14975,62,28,0
431.45407,431.55905,67,28,0
431.45407,431.55905,70,33,0
431.45407,431.55905,62,28,0
431.66406,431.76328,73,63,0
431.66406,431.76328,67,53,0
431.66406,431.76328,70,53,0
431.86252,431.9623,67,42,0
431.86252,431.9623,73,50,0
431.86252,431.9623,70,42,0
432.2645,432.36572,73,33,0
432.2645,432.36572,70,28,0
432.2645,432.36572,67,28,0
432.6693,432.7743,67,28,0
432.6693,432.7743,70,28,0
432.6693,432.7743,73,33,0
432.8793,432.97852,69,53,0
432.8793,432.97852,74,63,0
433.07776,433.17755,74,50,0
433.07776,433.17755,69,42,0
433.47974,433.58096,74,33,0
433.47974,433.58096,69,28,0
433.88455,433.98953,74,33,0
433.88455,433.98953,69,28,0
434.09454,434.19376,79,63,0
434.09454,434.19376,69,53,0
434.09454,434.19376,76,53,0
434.293,434.39502,76,42,0
434.293,434.39502,69,42,0
434.293,434.39502,79,50,0
434.70108,434.80313,69,28,0
434.70108,434.80313,76,28,0
434.70108,434.80313,79,33,0
435.1092,435.2142,69,28,0
435.1092,435.2142,79,33,0
435.1092,435.2142,76,28,0
435.31918,435.4184,69,53,0
435.31918,435.4184,77,63,0
435.31918,435.4184,74,53,0
435.51764,435.61966,74,42,0
435.51764,435.61966,77,50,0
435.51764,435.61966,69,42,0
435.92575,436.02777,69,28,0
435.92575,436.02777,74,28,0
435.92575,436.02777,77,33,0
436.33386,436.44266,69,28,0
436.33386,436.44266,77,33,0
436.33386,436.44266,74,28,0
436.55148,436.65073,74,53,0
436.55148,436.65073,80,65,0
436.74994,436.85196,74,42,0
436.74994,436.85196,80,54,0
437.15805,437.26007,74,28,0
437.15805,437.26007,80,33,0
437.56616,437.67838,80,33,0
437.56616,437.67838,74,28,0
437.79056,437.99768,73,32,0
437.79056,437.99768,81,38,0
438.00208,438.21463,77,31,0
438.00208,438.21463,81,37,0
438.20615,438.4187,76,28,0
438.20615,438.4187,79,33,0
438.4102,438.62274,77,31,0
438.4102,438.62274,74,26,0
438.61426,438.82718,73,28,0
438.61426,438.82718,76,33,0
438.8183,439.0399,77,30,0
438.8183,439.0399,74,25,0
439.03137,439.23544,73,32,0
439.03137,439.23544,76,38,0
439.23544,439.44775,65,31,0
439.23544,439.44775,69,37,0
439.43924,439.65155,67,33,0
439.43924,439.65155,64,28,0
439.64307,439.85538,62,26,0
439.64307,439.85538,65,31,0
439.8469,440.0595,64,33,0
439.8469,440.0595,61,28,0
440.05072,440.27054,65,30,0
440.05072,440.27054,62,25,0
440.26224,440.47043,61,31,0
440.26224,440.47043,64,37,0
440.46204,440.67157,65,32,0
440.46204,440.67157,62,27,0
440.66324,440.87146,61,31,0
440.66324,440.87146,64,37,0
440.86307,441.07254,65,34,0
440.86307,441.07254,62,28,0
441.06427,441.27106,61,31,0
441.06427,441.27106,64,37,0
441.26273,441.46252,62,28,0
441.26273,441.46252,65,34,0
441.46252,441.85944,61,31,0
441.46252,441.85944,64,37,0
442.66104,442.86636,64,29,0
442.66104,442.86636,60,24,0
442.8579,443.06857,65,25,0
442.8579,443.06857,62,21,0
443.06033,443.2668,64,29,0
443.06033,443.2668,60,24,0
443.25854,443.46533,62,22,0
443.25854,443.46533,65,27,0
443.457,443.66516,64,29,0
443.457,443.66516,60,24,0
443.65662,443.8701,65,27,0
443.65662,443.8701,62,22,0
443.86188,444.25607,60,31,0
443.86188,444.25607,64,29,0
445.04446,445.25107,64,59,0
445.24268,445.45206,65,51,0
445.44388,445.64792,64,59,0
445.63965,445.84625,65,55,0
445.8381,446.0421,64,59,0
446.03384,446.2405,65,55,0
445.04446,446.6265,58,49,0
445.04446,446.6265,60,49,0
446.2323,446.6265,64,59,0
447.4149,447.62604,82,37,0
447.61728,447.8356,81,32,0
447.82703,448.04117,82,37,0
448.0323,448.25388,81,34,0
448.24515,448.4641,82,37,0
448.4549,448.67587,81,34,0
448.67587,449.07278,82,37,0
447.4149,449.07278,76,31,0
449.87204,450.69388,65,50,0
450.69388,451.11053,69,47,0
451.11053,451.9275,72,52,0
451.9275,452.34247,69,46,0
452.34247,453.1689,70,50,0
453.1689,453.58862,79,47,0
453.58862,453.79208,77,47,0
453.79208,454.00195,76,44,0
454.00195,454.42166,76,44,0
454.84485,455.2646,77,50,0
455.2646,455.68106,69,46,0
455.68106,456.10083,74,46,0
456.10083,456.52386,67,50,0
456.52386,457.15353,72,54,0
457.15353,457.36676,69,45,0
457.36676,459.03262,65,50,0
459.03262,459.0847,64,42,0
459.0847,459.13672,65,37,0
459.13672,459.24084,64,48,0
459.24084,459.44907,62,48,0
459.44907,459.87213,64,50,0
458.61615,459.87213,67,50,0
459.87213,460.29184,69,48,0
460.29184,460.7019,70,52,0
460.7019,461.11838,74,55,0
461.11838,461.3234,74,58,0
461.3234,461.52686,72,57,0
459.87213,461.52686,65,48,0
461.52686,461.7303,70,56,0
461.7303,461.93375,69,54,0
461.93375,462.13718,67,53,0
462.13718,462.34378,65,51,0
462.34378,462.74762,67,54,0
462.74762,462.85254,70,50,0
463.16736,463.59378,64,54,0
463.16736,463.59378,58,54,0
463.59378,464.01025,57,56,0
463.59378,464.01025,65,56,0
464.4267,464.73907,84,50,0
464.73907,464.8474,82,44,0
464.8474,464.95154,81,50,0
465.2639,465.36798,81,50,0
465.68457,465.99692,81,47,0
465.99692,466.10104,79,42,0
466.10104,466.20514,77,48,0
466.5175,466.6216,77,44,0
466.93726,467.35373,77,44,0
467.35373,467.45782,79,46,0
467.35373,467.45782,76,46,0
467.77017,467.8743,79,44,0
467.77017,467.8743,76,44,0
468.18665,468.29242,76,44,0
468.18665,468.29242,79,44,0
468.60968,469.02615,79,50,0
468.60968,469.02615,76,50,0
469.02615,469.46143,77,44,0
469.02615,469.46143,81,44,0
469.46143,469.55856,84,50,0
469.55856,469.65567,86,44,0
469.65567,469.75278,84,44,0
469.75278,469.84988,82,44,0
469.84988,469.954,81,50,0
470.26636,470.37048,81,50,0
470.68283,470.77994,81,47,0
470.77994,470.87704,82,42,0
470.87704,470.97415,81,42,0
470.97415,471.0855,79,42,0
471.0855,471.1896,77,48,0
471.50195,471.60608,77,44,0
471.91843,472.02255,77,44,0
472.3349,472.74493,79,49,0
472.74493,472.8542,82,44,0
473.1819,473.60492,70,35,0
473.1819,473.60492,76,44,0
473.60492,474.02795,77,48,0
473.60492,474.02795,69,38,0
474.45102,474.87405,84,44,0
474.87405,475.2971,77,48,0
475.72012,476.1432,72,39,0
476.1432,476.56622,65,43,0
476.98926,477.4181,61,80,0
477.4181,478.04156,62,85,0
478.04156,478.14328,65,70,0
478.14328,478.245,69,72,0
478.245,478.3467,74,84,0
478.44843,478.55014,69,71,0
478.55014,478.65186,74,73,0
478.65186,478.75357,77,86,0
478.8553,478.957,74,71,0
478.957,479.05872,77,73,0
479.05872,479.1619,81,87,0
479.26505,479.4714,81,80,0
479.4714,479.68073,77,80,0
479.68073,479.79016,74,80,0
479.79016,479.82663,73,70,0
479.82663,479.8631,76,70,0
479.8631,479.8996,79,70,0
479.8996,480.53073,82,90,0
480.53073,480.6405,81,71,0
480.63052,480.74033,79,68,0
480.73035,480.84012,77,68,0
480.83014,480.9399,76,68,0
480.92993,481.04102,74,69,0
481.02975,481.1532,73,72,0
481.14258,481.7752,82,90,0
481.7752,481.88577,81,71,0
481.8757,481.98627,79,68,0
481.9762,482.08676,77,68,0
482.0767,482.18726,76,68,0
482.17722,482.28775,74,69,0
482.2777,482.38852,73,72,0
482.3782,482.9984,74,88,0
482.9984,483.10013,65,70,0
483.10013,483.20184,69,72,0
483.20184,483.30356,74,84,0
483.40527,483.507,69,71,0
483.507,483.6087,74,73,0
483.6087,483.71042,77,86,0
483.81213,483.91385,74,71,0
483.91385,484.01556,77,73,0
484.01556,484.11874,81,87,0
484.2219,484.42825,81,80,0
484.42825,484.63757,77,80,0
484.63757,484.85645,74,80,0
484.85645,485.48758,71,75,0
484.85645,485.48758,74,75,0
484.85645,485.48758,80,90,0
484.85645,485.48758,77,75,0
485.48758,485.59738,79,71,0
485.5874,485.69717,77,68,0
485.6872,485.79697,75,68,0
485.787,485.89676,74,68,0
485.88678,485.99823,72,69,0
485.9866,486.1137,71,72,0
486.1031,486.73572,80,90,0
486.73572,486.84705,79,71,0
486.8369,486.94824,77,68,0
486.9381,487.04944,75,68,0
487.0393,487.15063,74,68,0
487.1405,487.25183,72,69,0
487.24173,487.35318,71,72,0
487.34293,487.9587,72,88,0
487.9587,488.06042,63,70,0
488.06042,488.16217,67,72,0
488.16217,488.2639,72,84,0
488.3656,488.46732,67,71,0
488.46732,488.56903,72,73,0
488.56903,488.67075,75,86,0
488.77246,488.87418,72,71,0
488.87418,488.9759,75,73,0
488.9759,489.07904,79,87,0
489.18222,489.38855,79,80,0
489.38855,489.5979,75,80,0
489.5979,489.81674,72,80,0
489.81674,490.4479,69,75,0
489.81674,490.4479,72,75,0
489.81674,490.4479,78,90,0
489.81674,490.4479,75,75,0
490.4479,490.55768,77,71,0
490.5477,490.65747,75,68,0
490.6475,490.7573,73,68,0
490.7473,490.8571,72,68,0
490.8471,490.95856,70,69,0
490.9469,491.074,69,72,0
491.0634,491.696,78,90,0
491.696,491.81033,77,71,0
491.79993,491.91425,75,68,0
491.90384,492.01816,73,68,0
492.00778,492.12207,72,68,0
492.1117,492.22598,70,69,0
492.2156,492.3299,69,72,0
492.31952,492.83908,70,88,0
492.83908,492.943,65,69,0
492.943,493.0447,70,74,0
493.0447,493.14642,65,70,0
493.14642,493.24814,73,74,0
493.24814,493.34985,70,71,0
493.34985,493.45157,73,75,0
493.45157,493.55328,70,70,0
493.55328,493.655,77,74,0
493.655,493.7567,73,71,0
493.7567,493.85843,77,74,0
493.85843,493.97586,73,71,0
493.97586,494.39008,82,91,0
494.80875,495.32834,69,88,0
495.32834,495.43225,65,69,0
495.43225,495.53397,69,74,0
495.53397,495.63568,65,70,0
495.63568,495.7374,72,74,0
495.7374,495.8391,69,71,0
495.8391,495.94083,72,75,0
495.94083,496.04254,69,70,0
496.04254,496.14426,77,74,0
496.14426,496.24597,72,71,0
496.24597,496.3477,77,74,0
496.3477,496.46512,72,71,0
496.46512,496.87933,81,91,0
497.31134,497.8309,68,88,0
497.8309,497.93484,65,69,0
497.93484,498.03656,68,74,0
498.03656,498.13828,65,70,0
498.13828,498.24,74,74,0
498.24,498.3417,68,71,0
498.3417,498.44342,74,75,0
498.44342,498.54514,68,70,0
498.54514,498.64685,77,74,0
498.64685,498.74857,74,71,0
498.74857,498.85028,77,74,0
498.85028,498.9677,74,71,0
498.9677,499.38193,80,91,0
499.38193,499.69592,77,81,0
499.69592,499.7324,72,70,0
499.7324,499.76886,76,70,0
499.76886,499.80536,79,70,0
499.80536,500.65143,84,90,0
500.65143,500.76196,82,72,0
500.75345,500.86398,80,72,0
500.8555,500.96692,79,73,0
500.95752,501.07034,77,76,0
501.07034,501.90295,84,90,0
501.90295,502.01273,82,72,0
502.00427,502.114,80,72,0
502.1056,502.21533,79,73,0
502.2069,502.3082,77,76,0
502.3082,502.9302,72,90,0
502.9302,503.0403,73,79,0
503.0318,503.1435,72,78,0
503.13486,503.24817,70,76,0
503.23938,503.35437,68,75,0
503.34546,503.46323,67,74,0
503.4533,503.58115,65,72,0
503.57214,503.68027,72,79,0
504.0047,504.11282,60,72,0
504.81573,504.8698,60,41,0
504.8698,504.97556,69,45,0
505.29285,505.3986,69,43,0
505.71588,505.8377,69,43,0
506.11935,506.1726,64,42,0
506.1726,506.81186,72,45,0
506.81186,507.02496,70,41,0
507.02496,507.46744,67,41,0
507.46744,507.6805,67,45,0
507.6805,507.8936,65,41,0
507.46744,507.8936,57,45,0
507.8936,508.51453,60,45,0
507.8936,508.51453,65,45,0
508.51453,508.73245,67,45,0
508.51453,508.73245,64,45,0
508.73245,509.58493,64,49,0
508.73245,509.58493,67,49,0
509.58493,510.02075,69,45,0
509.58493,510.02075,65,45,0
510.02075,510.6545,70,45,0
510.6545,510.70703,72,46,0
510.70703,510.75952,70,42,0
510.75952,510.812,69,42,0
510.812,510.84702,70,45,0
510.8645,511.0745,72,49,0
511.0745,511.2924,74,47,0
511.2924,511.4994,74,55,0
511.4994,511.70636,72,49,0
511.70636,511.91333,71,52,0
511.91333,512.1203,72,45,0
512.1203,512.32733,70,50,0
512.32733,512.5469,67,45,0
512.5469,512.75995,68,49,0
512.75995,512.973,69,45,0
512.973,513.1785,70,50,0
513.1785,513.38403,69,45,0
513.38403,513.58954,72,49,0
513.58954,513.8125,70,45,0
513.8125,514.0256,69,52,0
514.0256,514.2326,67,45,0
514.2326,514.4396,65,48,0
514.4396,514.64655,64,45,0
514.64655,514.8596,62,46,0
514.8596,515.0727,60,45,0
515.0727,515.2858,80,49,0
515.0727,515.2858,68,39,0
515.2858,515.4989,81,42,0
515.2858,515.4989,69,33,0
515.4989,515.7086,80,49,0
515.4989,515.7086,68,39,0
515.7086,515.9184,81,41,0
515.7086,515.9184,69,32,0
515.9184,516.1312,80,52,0
515.9184,516.1312,68,41,0
516.1312,516.3505,81,48,0
516.1312,516.3505,69,38,0
516.3505,516.56335,83,58,0
516.3505,516.56335,71,46,0
516.56335,516.7762,84,53,0
516.56335,516.7762,72,42,0
516.7762,516.98596,83,58,0
516.7762,516.98596,71,46,0
516.98596,517.1957,84,46,0
516.98596,517.1957,72,36,0
517.1957,517.4085,82,49,0
517.4085,517.6214,79,39,0
517.6214,517.8345,79,45,0
517.8345,518.04755,77,41,0
518.04755,518.2545,79,45,0
518.2545,518.4615,77,41,0
518.04755,518.4615,72,41,0
518.4615,518.66846,81,45,0
518.66846,518.8864,79,45,0
518.4615,518.8864,76,41,0
518.8864,519.52734,79,49,0
519.52734,519.7389,80,49,0
518.8864,519.7389,76,49,0
519.7389,520.1747,77,45,0
519.7389,520.1747,81,45,0
520.1747,520.8085,82,49,0
520.8085,520.86096,84,50,0
520.86096,520.91345,82,46,0
520.91345,520.96594,81,46,0
520.96594,521.001,82,49,0
521.01843,521.22845,84,53,0
521.22845,521.44635,86,51,0
521.44635,521.6533,86,60,0
521.6533,521.8603,84,53,0
521.8603,522.06726,83,57,0
522.06726,522.2743,84,49,0
522.2743,522.48126,82,55,0
522.48126,522.7008,79,49,0
522.7008,522.9139,80,53,0
522.9139,523.127,81,49,0
523.127,523.3325,84,55,0
523.3325,523.538,82,49,0
523.538,523.7435,79,53,0
523.7435,523.9665,76,49,0
523.9665,524.17957,77,54,0
524.17957,524.3836,72,35,0
524.58765,524.6897,72,35,0
524.9958,525.1015,72,35,0
525.2073,525.31006,72,42,0
525.2073,525.31006,70,35,0
525.4128,525.51556,70,29,0
525.4128,525.51556,72,34,0
525.8223,525.9244,72,34,0
525.8223,525.9244,70,29,0
526.23193,526.33844,70,29,0
526.23193,526.33844,72,34,0
526.445,526.5455,72,42,0
526.445,526.5455,68,35,0
526.646,526.7479,72,35,0
526.646,526.7479,68,29,0
527.05383,527.1559,72,35,0
527.05383,527.1559,68,29,0
527.462,527.56775,68,29,0
527.462,527.56775,72,35,0
527.67346,527.774,70,35,0
527.67346,527.774,72,42,0
527.87445,527.9771,70,29,0
527.87445,527.9771,72,34,0
528.2838,528.3858,70,29,0
528.2838,528.3858,72,34,0
528.6919,528.79846,72,34,0
528.6919,528.79846,70,29,0
528.90497,529.007,68,63,0
528.90497,529.007,72,63,0
529.1091,529.21106,72,50,0
529.1091,529.21106,68,50,0
529.51715,529.6192,68,33,0
529.51715,529.6192,72,33,0
529.9253,530.0295,68,33,0
529.9253,530.0295,72,33,0
530.1337,530.23364,68,63,0
530.1337,530.23364,73,63,0
530.33356,530.4356,73,50,0
530.33356,530.4356,68,50,0
530.74164,530.8437,73,33,0
530.74164,530.8437,68,33,0
531.1498,531.254,68,33,0
531.1498,531.254,73,33,0
531.3583,531.45746,73,63,0
531.3583,531.45746,67,63,0
531.5567,531.65875,67,50,0
531.5567,531.65875,73,50,0
531.9648,532.06683,67,33,0
531.9648,532.06683,73,33,0
532.3729,532.4764,73,33,0
532.3729,532.4764,67,33,0
532.5799,532.67914,72,63,0
532.5799,532.67914,67,63,0
532.7784,532.8804,67,50,0
532.7784,532.8804,72,50,0
533.18646,533.2885,72,33,0
533.18646,533.2885,67,33,0
533.59454,533.6996,67,33,0
533.59454,533.6996,72,33,0
533.80457,533.9045,72,63,0
533.80457,533.9045,65,63,0
534.00433,534.10425,72,50,0
534.00433,534.10425,65,50,0
534.40967,534.51245,72,33,0
534.40967,534.51245,65,33,0
534.6152,534.7158,70,63,0
534.6152,534.7158,65,63,0
534.8164,534.917,65,50,0
534.8164,534.917,70,50,0
535.2217,535.32367,70,33,0
535.2217,535.32367,65,33,0
535.4257,535.52496,64,63,0
535.4257,535.52496,70,63,0
535.62415,535.7234,70,50,0
535.62415,535.7234,64,50,0
536.0267,536.1287,70,33,0
536.0267,536.1287,64,33,0
536.43195,536.53253,65,33,0
536.43195,536.53253,68,33,0
536.8372,536.9392,65,33,0
536.8372,536.9392,68,33,0
537.2482,537.35175,68,33,0
537.2482,537.35175,65,33,0
537.4552,537.66675,67,38,0
537.4552,537.66675,64,32,0
537.66675,537.8793,72,37,0
537.66675,537.8793,68,31,0
537.8708,538.0833,70,33,0
537.8708,538.0833,67,28,0
538.0748,538.2874,65,26,0
538.0748,538.2874,68,31,0
538.2789,538.4918,64,28,0
538.2789,538.4918,67,33,0
538.483,538.7045,68,30,0
538.483,538.7045,65,25,0
538.69604,538.9001,64,32,0
538.69604,538.9001,67,38,0
538.9001,539.1127,68,31,0
538.9001,539.1127,72,37,0
539.1041,539.3167,67,28,0
539.1041,539.3167,70,33,0
539.30817,539.52075,65,26,0
539.30817,539.52075,68,31,0
539.51227,539.7251,67,33,0
539.51227,539.7251,64,28,0
539.7163,539.9363,65,25,0
539.7163,539.9363,68,30,0
539.9278,540.13885,67,37,0
539.9278,540.13885,64,31,0
540.13025,540.3454,68,32,0
540.13025,540.3454,65,27,0
540.337,540.548,64,31,0
540.337,540.548,67,37,0
540.53937,540.7545,65,28,0
540.53937,540.7545,68,34,0
540.7461,540.9573,67,37,0
540.7461,540.9573,64,31,0
540.9485,541.16675,68,34,0
540.9485,541.16675,65,28,0
541.15826,541.36206,64,31,0
541.15826,541.36206,67,37,0
541.36206,541.5744,63,33,0
541.36206,541.5744,66,33,0
541.5659,541.7796,64,35,0
541.5659,541.7796,67,35,0
541.77094,541.98773,69,36,0
541.77094,541.98773,66,36,0
541.97894,542.19995,70,38,0
541.97894,542.19995,67,38,0
542.19,542.4382,72,40,0
542.19,542.4382,69,40,0
542.42926,542.855,74,42,0
542.42926,542.855,70,35,0
542.855,543.28064,74,40,0
542.855,543.28064,70,34,0
542.855,543.28064,65,34,0
543.28064,543.7132,65,34,0
543.28064,543.7132,74,40,0
543.28064,543.7132,70,34,0
543.7132,544.55927,70,35,0
543.7132,544.55927,74,42,0
544.55927,545.00464,72,34,0
544.55927,545.00464,69,28,0
543.7132,545.00464,65,35,0
545.00464,545.21313,72,42,0
545.21313,545.4262,70,38,0
545.00464,545.4262,67,35,0
545.00464,545.4262,64,35,0
545.4262,545.85236,67,35,0
545.4262,545.85236,64,35,0
545.4262,545.85236,70,42,0
545.85236,546.2915,64,32,0
545.85236,546.2915,67,32,0
545.85236,546.2915,70,38,0
546.2915,547.1376,70,42,0
546.2915,547.1376,67,35,0
546.2915,547.1376,64,35,0
547.1376,547.56696,65,33,0
547.1376,547.56696,69,39,0
547.56696,547.77246,69,35,0
547.56696,547.77246,72,42,0
547.77246,547.9824,67,31,0
547.77246,547.9824,70,37,0
547.9824,548.4024,69,42,0
547.9824,548.4024,65,35,0
548.4024,548.82855,67,36,0
548.4024,548.82855,64,30,0
548.82855,549.04816,69,42,0
548.82855,549.04816,65,35,0
549.04816,549.2412,77,35,0
549.25867,549.45044,79,37,0
549.46783,549.6584,81,38,0
549.67566,549.86505,82,40,0
549.8822,550.0704,84,41,0
550.0874,550.51355,86,46,0
550.51355,550.93976,86,44,0
550.93976,551.3723,86,44,0
551.3723,552.00684,86,46,0
552.00684,552.1126,88,39,0
552.1126,552.2184,86,39,0
552.2184,552.65094,84,46,0
552.65094,552.85944,84,46,0
552.85944,553.0725,82,41,0
552.65094,553.0725,76,35,0
553.0725,553.49866,82,46,0
553.0725,553.49866,76,35,0
553.49866,553.9378,76,32,0
553.49866,553.9378,82,41,0
553.9378,554.7839,82,46,0
553.9378,554.7839,76,35,0
554.7839,555.21326,77,33,0
554.7839,555.21326,81,42,0
555.21326,555.41876,81,35,0
555.21326,555.41876,84,46,0
555.41876,555.6287,79,31,0
555.41876,555.6287,82,40,0
555.6287,556.0487,77,35,0
555.6287,556.0487,81,46,0
556.0487,556.47485,79,39,0
556.0487,556.47485,76,30,0
556.47485,556.5733,81,63,0
556.47485,556.5733,84,63,0
556.67175,556.77014,81,50,0
556.67175,556.77014,84,50,0
557.0698,557.1704,82,33,0
557.0698,557.1704,79,33,0
557.4751,557.5771,81,33,0
557.4751,557.5771,77,33,0
557.8832,557.9852,70,33,0
557.8832,557.9852,79,33,0
558.28705,558.38696,69,33,0
558.28705,558.38696,77,33,0
558.6924,558.7951,76,33,0
558.6924,558.7951,67,33,0
559.0006,559.1034,81,72,0
559.1034,559.2061,84,75,0
559.2061,559.3089,81,72,0
559.4088,559.5087,79,70,0
559.5087,559.6086,82,75,0
559.6086,559.7085,79,70,0
559.8113,559.914,77,72,0
559.914,560.0168,81,75,0
560.0168,560.1195,77,71,0
560.2208,560.32214,70,71,0
560.32214,560.42346,79,75,0
560.42346,560.5248,70,71,0
560.62537,560.72595,69,71,0
560.72595,560.8266,77,75,0
560.8266,560.9272,69,71,0
561.0307,561.13416,67,71,0
561.13416,561.2377,76,75,0
561.2377,561.34125,67,71,0
561.34125,561.7539,77,75,0
561.34125,561.7539,72,75,0
561.34125,561.7539,69,75,0
562.16235,562.2136,69,70,0
562.2136,562.2653,70,65,0
562.2653,562.3175,69,70,0
562.3175,562.37024,70,66,0
562.37024,562.4056,69,70,0
562.4056,562.4413,70,66,0
562.4413,562.4771,69,66,0
562.4771,562.53143,67,70,0
562.53143,562.5859,65,66,0
562.5859,563.396,72,75,0
563.396,563.44745,76,70,0
563.44745,563.4992,77,66,0
563.4992,563.5514,76,70,0
563.5514,563.60406,77,66,0
563.60406,563.63947,76,70,0
563.63947,563.675,77,65,0
563.675,563.7107,76,66,0
563.7107,563.7647,74,70,0
563.7647,563.81836,72,65,0
563.81836,564.6394,77,75,0
564.6394,564.69073,81,70,0
564.69073,564.7423,82,65,0
564.7423,564.7944,81,70,0
564.7944,564.84705,82,66,0
564.84705,564.8824,81,70,0
564.8824,564.918,82,66,0
564.918,564.9538,81,66,0
564.9538,565.008,79,70,0
565.008,565.06244,77,66,0
565.06244,565.2663,84,75,0
565.4668,565.6706,84,75,0
565.87317,565.92456,88,70,0
565.92456,565.97626,89,66,0
565.97626,566.0283,88,70,0
566.0283,566.081,89,66,0
566.081,566.11633,88,70,0
566.11633,566.1518,89,65,0
566.1518,566.1875,88,66,0
566.1875,566.24133,86,70,0
566.24133,566.2955,84,65,0
566.2955,566.403,89,75,0
566.7266,567.3381,81,88,0
567.3381,567.5423,73,75,0
567.5423,567.6495,74,75,0
567.9707,568.58215,77,89,0
568.58215,568.7861,69,75,0
568.7861,568.83777,70,70,0
568.83777,568.88947,72,65,0
568.88947,568.9411,70,70,0
568.9411,568.9928,72,66,0
568.9928,569.0273,70,70,0
569.0273,569.0617,72,66,0
569.0617,569.0962,70,66,0
569.0962,569.1479,69,70,0
569.1479,569.1995,67,66,0
569.1995,569.3121,72,84,0
569.64923,569.767,76,86,0
569.64923,569.767,67,72,0
569.64923,569.767,72,72,0
570.12054,570.2422,72,72,0
570.12054,570.2422,69,72,0
570.12054,570.2422,77,86,0
570.6072,570.7288,65,79,0
0.0,0.211521,53,40,0
0.211521,0.414966,57,30,0
0.414966,0.618411,60,33,0
0.618411,0.821856,57,30,0
0.821856,1.025301,60,34,0
1.025301,1.2385205,57,30,0
1.2385205,1.445132,53,40,0
1.445132,1.648577,60,29,0
1.648577,1.852022,63,31,0
1.852022,2.055467,60,27,0
2.055467,2.258912,63,31,0
2.258912,2.470433,60,28,0
2.470433,2.6770444,53,40,0
2.6770444,2.883656,58,30,0
2.883656,3.0902674,62,33,0
3.0902674,3.296879,58,30,0
3.296879,3.5067425,62,33,0
3.5067425,3.716606,58,30,0
3.716606,3.920051,53,40,0
3.920051,4.1299143,55,23,0
4.1299143,4.339778,58,28,0
4.339778,4.5496416,55,24,0
4.5496416,4.7578735,58,29,0
4.7578735,4.9728193,55,24,0
4.9728193,5.3925724,57,30,0
4.9728193,5.3925724,53,30,0
7.4947343,7.9111986,53,47,0
7.9111986,8.327662,45,44,0
8.327662,8.744126,50,48,0
8.744126,9.16059,43,48,0
9.16059,9.788575,48,49,0
9.788575,10.000096,45,47,0
10.000096,10.419824,41,52,0
10.419824,10.829884,50,40,0
10.829884,11.246347,46,44,0
11.246347,11.654822,45,47,0
12.061712,12.471769,50,40,0
12.471769,12.875592,46,40,0
13.295319,13.721758,48,41,0
13.721758,14.138222,41,43,0
14.554686,14.867034,69,32,0
14.554686,14.867034,72,40,0
14.867034,14.975385,70,35,0
14.867034,14.975385,67,28,0
14.975385,15.0795,65,32,0
14.975385,15.0795,69,40,0
15.391849,15.495964,69,40,0
15.391849,15.495964,65,32,0
15.812547,16.124895,69,37,0
15.812547,16.124895,65,29,0
16.124895,16.22901,60,26,0
16.124895,16.22901,67,33,0
16.22901,16.333126,57,30,0
16.22901,16.333126,65,38,0
16.645475,16.74959,57,28,0
16.645475,16.74959,65,35,0
17.065228,17.481691,57,28,0
17.065228,17.481691,65,35,0
17.481691,17.585808,67,36,0
17.481691,17.585808,60,28,0
17.898155,18.002272,60,28,0
17.898155,18.002272,67,35,0
18.31462,18.42038,67,35,0
18.31462,18.42038,60,28,0
18.737661,19.154125,60,32,0
18.737661,19.154125,67,40,0
19.154125,19.57669,65,28,0
19.154125,19.57669,69,35,0
19.57669,19.870003,69,32,0
19.57669,19.870003,72,40,0
19.870003,19.967773,67,28,0
19.870003,19.967773,70,35,0
19.967773,20.07189,69,40,0
19.967773,20.07189,65,32,0
20.384237,20.488354,69,40,0
20.384237,20.488354,65,32,0
20.800701,21.088186,65,29,0
20.800701,21.088186,69,37,0
21.088186,21.184015,60,26,0
21.088186,21.184015,67,33,0
21.184015,21.28813,57,30,0
21.184015,21.28813,65,38,0
21.60048,21.704594,65,35,0
21.60048,21.704594,57,28,0
22.016943,22.12106,65,35,0
22.016943,22.12106,57,28,0
22.433407,22.843466,60,29,0
22.433407,22.843466,67,37,0
23.280403,23.703445,67,35,0
23.280403,23.703445,60,28,0
23.703445,24.126486,65,39,0
24.549528,24.97257,64,28,0
24.549528,24.97257,60,28,0
24.549528,24.97257,70,35,0
24.97257,25.395613,65,31,0
24.97257,25.395613,69,39,0
25.818655,26.241697,48,25,0
25.818655,26.241697,52,25,0
25.818655,26.241697,58,31,0
26.241697,26.664738,57,35,0
26.241697,26.664738,53,27,0
27.08778,27.515741,49,60,0
27.08778,27.515741,37,51,0
27.515741,27.723568,38,56,0
27.515741,27.723568,50,66,0
27.723568,27.931396,53,60,0
27.931396,28.139225,57,60,0
28.139225,28.342655,53,60,0
28.342655,28.546087,57,63,0
28.546087,28.749517,53,60,0
28.749517,28.952948,50,65,0
28.952948,29.15638,53,60,0
29.15638,29.36272,57,63,0
29.36272,29.569063,53,60,0
29.569063,29.778399,57,60,0
29.778399,29.99725,53,62,0
29.99725,30.103453,52,71,0
29.99725,30.103453,40,60,0
30.422058,30.525229,61,71,0
30.422058,30.525229,55,60,0
30.422058,30.525229,52,60,0
30.422058,30.525229,58,60,0
31.24907,31.355272,40,60,0
31.24907,31.355272,52,71,0
31.67388,31.777794,58,60,0
31.67388,31.777794,61,71,0
31.67388,31.777794,52,60,0
31.67388,31.777794,55,60,0
32.49434,32.70108,53,66,0
32.70108,32.907818,57,60,0
32.907818,33.11456,62,60,0
33.11456,33.31799,57,60,0
33.31799,33.52142,62,63,0
33.52142,33.72485,57,60,0
33.72485,33.92828,53,65,0
33.92828,34.131714,57,60,0
34.131714,34.338055,62,63,0
34.338055,34.544395,57,60,0
34.544395,34.75373,62,60,0
34.75373,34.972584,57,62,0
34.972584,35.078785,50,71,0
34.972584,35.078785,38,60,0
35.397392,35.50056,53,60,0
35.397392,35.50056,56,60,0
35.397392,35.50056,50,60,0
35.397392,35.50056,59,71,0
36.230164,36.336365,50,71,0
36.230164,36.336365,38,60,0
36.654972,36.75889,50,60,0
36.654972,36.75889,53,60,0
36.654972,36.75889,59,71,0
36.654972,36.75889,56,60,0
37.478264,37.685005,51,66,0
37.685005,37.891743,55,60,0
37.891743,38.098484,60,60,0
38.098484,38.301914,55,60,0
38.301914,38.505344,60,63,0
38.505344,38.70878,55,60,0
38.70878,38.91221,51,66,0
38.91221,39.13136,55,60,0
39.13136,39.336235,60,60,0
39.336235,39.54557,55,60,0
39.54557,39.754906,60,63,0
39.754906,39.964245,55,60,0
39.964245,40.172073,48,66,0
40.172073,40.3799,51,60,0
40.3799,40.587727,56,60,0
40.587727,40.79116,51,60,0
40.79116,40.99459,56,63,0
40.99459,41.19802,51,60,0
41.19802,41.40145,48,66,0
41.40145,41.6206,51,60,0
41.6206,41.825478,56,60,0
41.825478,42.034817,51,60,0
42.034817,42.244152,56,63,0
42.244152,42.453487,51,60,0
42.453487,42.661316,44,66,0
42.661316,42.869144,48,60,0
42.869144,43.076973,51,60,0
43.076973,43.280403,48,60,0
43.280403,43.483833,51,63,0
43.483833,43.687263,48,60,0
43.687263,43.890697,44,66,0
43.890697,44.109848,48,60,0
44.109848,44.314724,51,60,0
44.314724,44.52406,48,60,0
44.52406,44.738728,51,63,0
44.738728,44.84606,48,60,0
44.95549,45.167007,43,66,0
45.167007,45.37853,47,60,0
45.37853,45.59005,50,60,0
45.59005,45.80157,55,60,0
45.80157,46.005627,48,63,0
46.005627,46.220493,51,60,0
46.220493,46.428974,43,66,0
46.428974,46.63745,47,60,0
46.63745,46.84528,50,60,0
46.84528,47.05311,55,60,0
47.05311,47.255726,48,63,0
47.255726,47.458347,51,60,0
47.458347,48.08034,43,72,0
47.46874,48.09044,55,72,0
48.08034,48.190464,56,63,0
48.18194,48.293636,55,62,0
48.28499,48.398304,53,60,0
48.389526,48.504505,51,60,0
48.4956,48.61336,50,59,0
48.60346,48.731285,48,57,0
48.72227,48.83041,55,63,0
49.154827,49.26297,43,57,0
49.857735,49.911804,48,35,0
49.911804,49.965874,55,35,0
50.019943,50.442986,60,35,0
51.16294,51.216213,55,34,0
51.216213,51.269485,62,34,0
51.322754,51.748924,65,35,0
52.61757,53.043736,48,35,0
53.043736,53.4577,52,31,0
53.4577,53.88259,55,31,0
53.88259,54.312027,60,35,0
54.312027,54.73507,48,31,0
55.60061,56.014645,65,33,0
55.60061,56.014645,60,33,0
55.170895,56.014645,57,35,0
56.856503,57.270466,62,35,0
56.856503,57.270466,67,35,0
56.44254,57.270466,59,38,0
57.69702,58.123188,60,41,0
58.123188,58.534203,60,37,0
58.123188,58.534203,57,37,0
58.534203,58.962658,62,35,0
58.534203,58.962658,53,35,0
58.962658,59.382725,59,41,0
58.962658,59.382725,55,41,0
60.222855,60.36491,60,39,0
60.36491,60.506966,64,31,0
60.506966,60.64902,67,31,0
60.64902,60.791077,60,39,0
60.791077,60.933132,64,32,0
60.933132,61.075188,67,32,0
61.075188,61.213017,60,40,0
61.213017,61.355587,64,32,0
61.355587,61.502907,67,32,0
61.502907,61.644802,59,43,0
61.644802,61.786694,62,36,0
61.786694,61.92859,67,35,0
61.92859,62.070484,59,40,0
62.070484,62.21238,62,33,0
62.21238,62.35427,67,29,0
62.35427,62.496166,59,37,0
62.496166,62.640774,65,29,0
62.640774,62.788094,67,29,0
62.788094,63.213776,64,35,0
62.788094,63.213776,60,29,0
63.213776,63.62774,52,31,0
63.62774,64.052635,55,31,0
64.052635,64.48206,60,35,0
64.48206,64.905106,55,31,0
64.905106,65.340935,48,31,0
65.340935,65.56217,57,35,0
65.56217,65.77065,60,31,0
65.77065,65.97471,65,32,0
65.97471,66.184685,60,33,0
66.184685,66.39467,57,35,0
66.39467,66.61258,60,38,0
66.61258,66.819565,59,40,0
66.819565,67.02654,62,35,0
67.02654,67.23353,67,42,0
67.23353,67.440506,62,35,0
67.440506,67.64749,59,35,0
67.64749,67.86706,62,34,0
67.86706,68.29323,60,41,0
68.29323,68.70424,62,37,0
68.29323,68.70424,53,37,0
68.70424,69.1327,65,35,0
68.70424,69.1327,55,35,0
69.1327,69.549835,60,32,0
69.1327,69.549835,64,37,0
69.549835,69.95795,64,40,0
69.95795,70.37352,60,37,0
70.37352,70.78453,62,40,0
70.78453,71.19264,59,38,0
71.19264,71.61124,55,38,0
71.61124,72.01934,48,40,0
72.01934,72.42745,51,40,0
72.42745,72.843025,48,37,0
72.843025,73.25113,50,40,0
73.25113,73.65924,47,38,0
73.65924,74.07638,43,38,0
74.07638,74.48449,48,69,0
74.07638,74.48449,36,58,0
74.48449,74.89259,51,40,0
74.89259,75.30512,55,40,0
75.30512,75.70899,41,58,0
75.30512,75.70899,53,69,0
75.70899,76.1171,56,40,0
76.1171,76.52963,60,40,0
76.52963,76.93214,34,58,0
76.52963,76.93214,46,69,0
76.93214,77.34025,50,40,0
77.34025,77.75128,53,40,0
77.75128,78.153786,51,69,0
77.75128,78.153786,39,58,0
78.153786,78.5619,55,40,0
78.5619,78.97593,58,40,0
78.97593,79.37556,44,69,0
78.97593,79.37556,32,58,0
79.37556,79.786575,56,40,0
79.786575,80.18899,38,58,0
79.786575,80.18899,50,69,0
80.18899,80.5971,62,40,0
80.5971,80.994,43,69,0
80.5971,80.994,31,58,0
80.994,81.40211,55,40,0
81.40211,81.80452,56,45,0
81.80452,82.21263,55,39,0
82.21263,82.632126,54,39,0
82.632126,83.0477,55,44,0
83.65986,83.87294,54,41,0
83.87294,84.28105,55,44,0
84.89321,85.113235,54,32,0
85.10474,85.31729,55,39,0
85.308784,85.52135,54,35,0
85.51284,85.725395,55,39,0
85.716896,85.92945,54,31,0
85.92095,86.13351,55,39,0
86.12501,86.33756,54,32,0
86.329056,86.73717,55,38,0
87.57434,88.0005,53,33,0
88.0005,88.426674,53,31,0
88.426674,88.85923,53,31,0
88.85923,89.705315,53,33,0
89.705315,90.14391,48,31,0
90.14391,90.56547,43,33,0
90.56547,90.99164,43,30,0
90.99164,91.43078,43,30,0
91.43078,92.27686,43,33,0
92.27686,92.7062,45,30,0
92.7062,93.12169,41,33,0
93.12169,93.54166,43,32,0
93.54166,93.96782,43,32,0
93.96782,94.39796,48,33,0
95.22667,95.65284,65,33,0
95.22667,95.65284,60,28,0
95.65284,96.079,65,31,0
95.65284,96.079,60,26,0
96.079,96.51156,60,26,0
96.079,96.51156,65,31,0
96.51156,97.35764,65,33,0
97.35764,97.7902,64,31,0
96.51156,97.7902,60,28,0
97.7902,98.21176,62,33,0
97.7902,98.21176,55,28,0
98.21176,98.63793,55,25,0
98.21176,98.63793,62,30,0
98.63793,99.07707,55,25,0
98.63793,99.07707,62,30,0
99.07707,99.92316,62,33,0
99.07707,99.92316,55,28,0
99.92316,100.35249,57,25,0
99.92316,100.35249,60,30,0
100.35249,100.76798,53,33,0
100.76798,101.18794,55,32,0
101.18794,101.61411,53,32,0
101.61411,101.81393,52,69,0
101.61411,101.81393,40,58,0
102.01374,102.11434,56,40,0
102.41615,102.51818,57,40,0
102.82426,102.926285,53,40,0
103.23237,103.332275,55,40,0
103.631996,103.73475,53,40,0
104.04301,104.14577,52,75,0
104.04301,104.14577,40,75,0
104.454025,104.55393,56,73,0
104.454025,104.55393,44,73,0
104.85365,104.956406,45,73,0
104.85365,104.956406,57,73,0
105.26466,105.365974,53,75,0
105.26466,105.365974,41,75,0
105.66991,105.77051,43,73,0
105.66991,105.77051,55,73,0
106.07232,106.17581,43,73,0
106.07232,106.17581,55,73,0
106.48638,106.588234,48,64,0
106.588234,106.69316,52,59,0
106.69316,106.796036,55,59,0
106.796036,106.899055,60,59,0
106.899055,107.00056,48,63,0
107.00056,107.101715,52,58,0
107.101715,107.20528,55,58,0
107.20528,107.30747,60,58,0
107.30747,107.41048,48,63,0
107.41048,107.51535,52,57,0
107.51535,107.62226,55,58,0
107.62226,107.73098,60,58,0
107.73098,107.83184,48,63,0
107.83184,107.93405,52,58,0
107.93405,108.03423,55,59,0
108.03423,108.13456,60,59,0
108.13456,108.23837,48,63,0
108.23837,108.33832,52,57,0
108.33832,108.44021,55,57,0
108.44021,108.54116,60,57,0
108.54116,108.64435,48,63,0
108.64435,108.74923,53,57,0
108.74923,108.85584,55,57,0
108.85584,108.963486,62,57,0
108.963486,109.066124,48,63,0
109.066124,109.168755,52,57,0
109.168755,109.271385,55,57,0
109.271385,109.37402,60,57,0
109.37402,109.476654,48,63,0
109.476654,109.57929,52,57,0
109.57929,109.68192,55,57,0
109.68192,109.78456,60,57,0
109.78456,109.88744,48,63,0
109.88744,109.99219,52,57,0
109.99219,110.09891,55,58,0
110.09891,110.20756,60,58,0
110.20756,110.30896,48,63,0
110.30896,110.41141,52,58,0
110.41141,110.5115,55,59,0
110.5115,110.61195,60,59,0
110.61195,110.71536,48,63,0
110.71536,110.81573,52,57,0
110.81573,110.91744,55,57,0
110.91744,111.018326,60,57,0
111.018326,111.12138,48,63,0
111.12138,111.226135,53,57,0
111.226135,111.33263,55,57,0
111.33263,111.44062,62,57,0
111.44062,111.54818,55,63,0
111.44062,111.54818,60,63,0
111.44062,111.54818,48,63,0
111.44062,111.54818,52,63,0
111.87174,112.48319,52,58,0
111.87174,112.48319,64,69,0
112.48319,112.68741,44,63,0
112.48319,112.68741,56,63,0
112.68741,112.79462,45,63,0
112.68741,112.79462,57,63,0
113.11583,113.72729,48,60,0
113.11583,113.72729,60,71,0
113.72729,113.93121,52,63,0
113.93121,113.982895,53,56,0
113.982895,114.034584,55,52,0
114.034584,114.086266,53,56,0
114.086266,114.13795,55,52,0
114.13795,114.17241,53,56,0
114.17241,114.20686,55,52,0
114.20686,114.24132,53,52,0
114.24132,114.29301,52,56,0
114.29301,114.34469,50,52,0
114.34469,114.44806,55,63,0
114.7584,114.86482,43,56,0
114.7584,114.86482,55,67,0
115.18408,115.290504,60,72,0
115.18408,115.290504,48,60,0
115.609764,115.71619,36,58,0
115.609764,115.71619,48,69,0
116.46113,116.67265,53,40,0
116.67265,116.8761,57,30,0
116.8761,117.079544,60,33,0
117.079544,117.28299,57,30,0
117.28299,117.486435,60,34,0
117.486435,117.69965,57,30,0
117.69965,117.906265,53,40,0
117.906265,118.10971,60,29,0
118.10971,118.31315,63,31,0
118.31315,118.516594,60,27,0
118.516594,118.72004,63,31,0
118.72004,118.931564,60,28,0
118.931564,119.138176,53,40,0
119.138176,119.34479,58,30,0
119.34479,119.5514,62,33,0
119.5514,119.75801,58,30,0
119.75801,119.96787,62,33,0
119.96787,120.177734,58,30,0
120.177734,120.38118,53,40,0
120.38118,120.59104,55,23,0
120.59104,120.80091,58,28,0
120.80091,121.01077,55,24,0
121.01077,121.219,58,29,0
121.219,121.4383,55,24,0
121.4383,121.858055,53,30,0
121.4383,121.858055,57,30,0
123.96022,124.37668,53,47,0
124.37668,124.793144,45,44,0
124.793144,125.20961,50,48,0
125.20961,125.626076,43,48,0
125.626076,126.25406,48,49,0
126.25406,126.465576,45,47,0
126.465576,126.88531,41,52,0
126.88531,127.295364,50,40,0
127.295364,127.71183,46,44,0
127.71183,128.1203,45,47,0
128.52719,128.93726,50,40,0
128.93726,129.34108,46,40,0
129.7608,130.18724,48,41,0
130.18724,130.6037,41,43,0
131.02017,131.33252,72,40,0
131.02017,131.33252,69,32,0
131.33252,131.44087,70,35,0
131.33252,131.44087,67,28,0
131.44087,131.54498,65,32,0
131.44087,131.54498,69,40,0
131.85733,131.96144,65,32,0
131.85733,131.96144,69,40,0
132.27803,132.59038,69,37,0
132.27803,132.59038,65,29,0
132.59038,132.69449,67,33,0
132.59038,132.69449,60,26,0
132.69449,132.79861,57,30,0
132.69449,132.79861,65,38,0
133.11096,133.21507,65,35,0
133.11096,133.21507,57,28,0
133.53072,133.94717,65,35,0
133.53072,133.94717,57,28,0
133.94717,134.05128,60,28,0
133.94717,134.05128,67,36,0
134.36363,134.46776,60,28,0
134.36363,134.46776,67,35,0
134.7801,134.88586,67,35,0
134.7801,134.88586,60,28,0
135.20314,135.61961,67,40,0
135.20314,135.61961,60,32,0
135.61961,136.04529,65,28,0
135.61961,136.04529,69,35,0
136.04529,136.33662,72,40,0
136.04529,136.33662,69,32,0
136.33662,136.43375,70,35,0
136.33662,136.43375,67,28,0
136.43375,136.53786,69,40,0
136.43375,136.53786,65,32,0
136.8502,136.95432,69,40,0
136.8502,136.95432,65,32,0
137.26666,137.558,69,37,0
137.26666,137.558,65,29,0
137.558,137.67021,67,33,0
137.558,137.67021,60,26,0
137.67021,137.77432,65,38,0
137.67021,137.77432,57,30,0
138.08667,138.19078,57,28,0
138.08667,138.19078,65,35,0
138.50313,138.60725,65,35,0
138.50313,138.60725,57,28,0
138.9196,139.32965,60,29,0
138.9196,139.32965,67,37,0
139.7666,140.18964,67,35,0
139.7666,140.18964,60,28,0
140.18964,140.61267,65,39,0
141.03572,141.45876,70,35,0
141.03572,141.45876,60,28,0
141.03572,141.45876,64,28,0
141.45876,141.8818,65,31,0
141.45876,141.8818,69,39,0
142.30484,142.72789,48,25,0
142.30484,142.72789,52,25,0
142.30484,142.72789,58,31,0
142.72789,143.15092,57,35,0
142.72789,143.15092,53,27,0
143.57397,144.00194,49,60,0
143.57397,144.00194,37,51,0
144.00194,144.20976,38,56,0
144.00194,144.20976,50,66,0
144.20976,144.41759,53,60,0
144.41759,144.62541,57,60,0
144.62541,144.82884,53,60,0
144.82884,145.03227,57,63,0
145.03227,145.2357,53,60,0
145.2357,145.43913,50,65,0
145.43913,145.64258,53,60,0
145.64258,145.8489,57,63,0
145.8489,146.05525,53,60,0
146.05525,146.26459,57,60,0
146.26459,146.48344,53,62,0
146.48344,146.58965,40,60,0
146.48344,146.58965,52,71,0
146.90825,147.01141,61,71,0
146.90825,147.01141,55,60,0
146.90825,147.01141,52,60,0
146.90825,147.01141,58,60,0
147.73526,147.84146,40,60,0
147.73526,147.84146,52,71,0
148.16006,148.26398,55,60,0
148.16006,148.26398,58,60,0
148.16006,148.26398,61,71,0
148.16006,148.26398,52,60,0
148.97513,149.18297,53,66,0
149.18297,149.3908,57,60,0
149.3908,149.59862,62,60,0
149.59862,149.80205,57,60,0
149.80205,150.00548,62,63,0
150.00548,150.20891,57,60,0
150.20891,150.41234,53,65,0
150.41234,150.61577,57,60,0
150.61577,150.82211,62,63,0
150.82211,151.02846,57,60,0
151.02846,151.2378,62,60,0
151.2378,151.45665,57,62,0
151.45665,151.56285,50,71,0
151.45665,151.56285,38,60,0
151.88145,151.98265,53,60,0
151.88145,151.98265,59,71,0
151.88145,151.98265,56,60,0
151.88145,151.98265,50,60,0
152.70634,152.81255,50,71,0
152.70634,152.81255,38,60,0
153.13115,153.23508,56,60,0
153.13115,153.23508,53,60,0
153.13115,153.23508,50,60,0
153.13115,153.23508,59,71,0
153.95735,154.16518,51,66,0
154.16518,154.373,55,60,0
154.373,154.58083,60,60,0
154.58083,154.78427,55,60,0
154.78427,154.9877,60,63,0
154.9877,155.19113,55,60,0
155.19113,155.39456,51,66,0
155.39456,155.61371,55,60,0
155.61371,155.81859,60,60,0
155.81859,156.02792,55,60,0
156.02792,156.23726,60,63,0
156.23726,156.4466,55,60,0
156.4466,156.65442,48,66,0
156.65442,156.86224,51,60,0
156.86224,157.07008,56,60,0
157.07008,157.27351,51,60,0
157.27351,157.47694,56,63,0
157.47694,157.68037,51,60,0
157.68037,157.8838,48,66,0
157.8838,158.10295,51,60,0
158.10295,158.30783,56,60,0
158.30783,158.51717,51,60,0
158.51717,158.7265,56,63,0
158.7265,158.93584,51,60,0
158.93584,159.14366,44,66,0
159.14366,159.35149,48,60,0
159.35149,159.55933,51,60,0
159.55933,159.76276,48,60,0
159.76276,159.96619,51,63,0
159.96619,160.16962,48,60,0
160.16962,160.37305,44,66,0
160.37305,160.5922,48,60,0
160.5922,160.79707,51,60,0
160.79707,161.00641,48,60,0
161.00641,161.22108,51,63,0
161.22108,161.32841,48,60,0
161.43784,161.64935,43,66,0
161.64935,161.86089,47,60,0
161.86089,162.0724,50,60,0
162.0724,162.28392,55,60,0
162.28392,162.48491,48,63,0
162.48491,162.69826,51,60,0
162.69826,162.90672,43,66,0
162.90672,163.1152,47,60,0
163.1152,163.32303,50,60,0
163.32303,163.53087,55,60,0
163.53087,163.7291,48,63,0
163.7291,163.92732,51,60,0
163.92732,164.54932,43,72,0
163.93771,164.55942,55,72,0
164.54932,164.65944,56,63,0
164.65091,164.7626,55,62,0
164.75397,164.86728,53,60,0
164.8585,164.97348,51,60,0
164.96457,165.08234,50,59,0
165.07243,165.20026,48,57,0
165.19124,165.29938,55,63,0
165.6238,165.73193,43,57,0
166.3267,166.38078,48,35,0
166.38078,166.43484,55,35,0
166.48892,166.91196,60,35,0
167.63191,167.68518,55,34,0
167.68518,167.73846,62,34,0
167.79173,168.2179,65,35,0
169.08653,169.51271,48,35,0
169.51271,169.92667,52,31,0
169.92667,170.35156,55,31,0
170.35156,170.781,60,35,0
170.781,171.20404,48,31,0
172.06958,172.48361,60,33,0
172.06958,172.48361,65,33,0
171.63986,172.48361,57,35,0
173.32547,173.73944,67,35,0
173.32547,173.73944,62,35,0
172.91151,173.73944,59,38,0
174.16599,174.59216,60,41,0
174.59216,175.00317,60,37,0
174.59216,175.00317,57,37,0
175.00317,175.43163,53,35,0
175.00317,175.43163,62,35,0
175.43163,175.8517,59,41,0
175.43163,175.8517,55,41,0
176.69183,176.83388,60,39,0
176.83388,176.97594,64,31,0
176.97594,177.118,67,31,0
177.118,177.26006,60,39,0
177.26006,177.4021,64,32,0
177.4021,177.54416,67,32,0
177.54416,177.68298,60,40,0
177.68298,177.82181,64,32,0
177.82181,177.96063,67,32,0
177.96063,178.10252,59,43,0
178.10252,178.24442,62,36,0
178.24442,178.3863,67,35,0
178.3863,178.52614,59,40,0
178.52614,178.66597,62,33,0
178.66597,178.8058,67,29,0
178.8058,178.9477,59,37,0
178.9477,179.08958,65,29,0
179.08958,179.23149,67,29,0
179.23149,179.65405,60,29,0
179.23149,179.65405,64,35,0
179.65405,180.06801,52,31,0
180.06801,180.4929,55,31,0
180.4929,180.92235,60,35,0
180.92235,181.34538,55,31,0
181.34538,181.7812,48,31,0
181.7812,182.00244,57,35,0
182.00244,182.21092,60,31,0
182.21092,182.41498,65,32,0
182.41498,182.62495,60,33,0
182.62495,182.83495,57,35,0
182.83495,183.05286,60,38,0
183.05286,183.25984,59,40,0
183.25984,183.46681,62,35,0
183.46681,183.6738,67,42,0
183.6738,183.88078,62,35,0
183.88078,184.08777,59,35,0
184.08777,184.30733,62,34,0
184.30733,184.7335,60,41,0
184.7335,185.14452,53,37,0
184.7335,185.14452,62,37,0
185.14452,185.57297,65,35,0
185.14452,185.57297,55,35,0
185.57297,185.99011,60,32,0
185.57297,185.99011,64,37,0
185.99011,186.39822,64,40,0
186.39822,186.8138,60,37,0
186.8138,187.22481,62,40,0
187.22481,187.63292,59,38,0
187.63292,188.05151,55,38,0
188.05151,188.45961,48,40,0
188.45961,188.86772,51,40,0
188.86772,189.2833,48,37,0
189.2833,189.6914,50,40,0
189.6914,190.09952,47,38,0
190.09952,190.51665,43,38,0
190.51665,190.92476,36,58,0
190.51665,190.92476,48,69,0
190.92476,191.33287,51,40,0
191.33287,191.7454,55,40,0
191.7454,192.14926,53,69,0
191.7454,192.14926,41,58,0
192.14926,192.55737,56,40,0
192.55737,192.96991,60,40,0
192.96991,193.3724,46,69,0
192.96991,193.3724,34,58,0
193.3724,193.78052,50,40,0
193.78052,194.19156,53,40,0
194.19156,194.59407,39,58,0
194.19156,194.59407,51,69,0
194.59407,195.00217,55,40,0
195.00217,195.4162,58,40,0
195.4162,195.81583,32,58,0
195.4162,195.81583,44,69,0
195.81583,196.22685,56,40,0
196.22685,196.62926,50,69,0
196.22685,196.62926,38,58,0
196.62926,197.03737,62,40,0
197.03737,197.43428,31,58,0
197.03737,197.43428,43,69,0
197.43428,197.84238,55,40,0
197.84238,198.2448,56,45,0
198.2448,198.65828,55,39,0
198.65828,199.08084,54,39,0
199.08084,199.50092,55,44,0
200.11307,200.32616,54,41,0
200.32616,200.73427,55,44,0
201.34642,201.56645,54,32,0
201.55794,201.77051,55,39,0
201.762,201.97455,54,35,0
201.96605,202.1786,55,39,0
202.1701,202.38266,54,31,0
202.37416,202.58672,55,39,0
202.57822,202.79077,54,32,0
202.78227,203.19038,55,38,0
204.04062,204.46631,53,33,0
204.46631,204.892,53,31,0
204.892,205.32455,53,31,0
205.32455,206.17064,53,33,0
206.17064,206.6032,48,31,0
206.6032,207.02475,43,33,0
207.02475,207.45091,43,30,0
207.45091,207.89006,43,30,0
207.89006,208.73615,43,33,0
208.73615,209.16548,45,30,0
209.16548,209.58096,41,33,0
209.58096,210.00093,43,32,0
210.00093,210.4271,43,32,0
210.4271,210.85724,48,33,0
211.68594,212.11212,65,33,0
211.68594,212.11212,60,28,0
212.11212,212.53828,65,31,0
212.11212,212.53828,60,26,0
212.53828,212.97084,60,26,0
212.53828,212.97084,65,31,0
212.97084,213.81693,65,33,0
213.81693,214.24948,64,31,0
212.97084,214.24948,60,28,0
214.24948,214.67104,62,33,0
214.24948,214.67104,55,28,0
214.67104,215.09721,62,30,0
214.67104,215.09721,55,25,0
215.09721,215.53635,62,30,0
215.09721,215.53635,55,25,0
215.53635,216.38243,62,33,0
215.53635,216.38243,55,28,0
216.38243,216.81177,57,25,0
216.38243,216.81177,60,30,0
216.81177,217.22726,53,33,0
217.22726,217.64722,55,32,0
217.64722,218.0734,53,32,0
218.0734,218.27321,52,69,0
218.0734,218.27321,40,58,0
218.47302,218.57362,56,40,0
218.87543,218.97746,57,40,0
219.28354,219.38556,53,40,0
219.69165,219.79155,55,40,0
220.09128,220.19403,53,40,0
220.50229,220.60504,52,75,0
220.50229,220.60504,40,75,0
220.9133,221.01321,56,73,0
220.9133,221.01321,44,73,0
221.31293,221.41568,45,73,0
221.31293,221.41568,57,73,0
221.72395,221.82526,53,75,0
221.72395,221.82526,41,75,0
222.12918,222.2298,43,73,0
222.12918,222.2298,55,73,0
222.5316,222.63509,43,73,0
222.5316,222.63509,55,73,0
222.94566,223.04752,48,64,0
223.04752,223.15244,52,59,0
223.15244,223.25531,55,59,0
223.25531,223.35834,60,59,0
223.35834,223.45984,48,63,0
223.45984,223.56099,52,58,0
223.56099,223.66455,55,58,0
223.66455,223.76675,60,58,0
223.76675,223.86975,48,63,0
223.86975,223.97462,52,57,0
223.97462,224.08154,55,58,0
224.08154,224.19026,60,58,0
224.19026,224.29112,48,63,0
224.29112,224.39333,52,58,0
224.39333,224.49352,55,59,0
224.49352,224.59384,60,59,0
224.59384,224.69765,48,63,0
224.69765,224.79759,52,57,0
224.79759,224.89949,55,57,0
224.89949,225.00044,60,57,0
225.00044,225.10362,48,63,0
225.10362,225.20851,53,57,0
225.20851,225.31512,55,57,0
225.31512,225.42276,62,57,0
225.42276,225.5254,48,63,0
225.5254,225.62804,52,57,0
225.62804,225.73067,55,57,0
225.73067,225.8333,60,57,0
225.8333,225.93594,48,63,0
225.93594,226.03857,52,57,0
226.03857,226.1412,55,57,0
226.1412,226.24384,60,57,0
226.24384,226.34673,48,63,0
226.34673,226.45146,52,57,0
226.45146,226.55818,55,58,0
226.55818,226.66684,60,58,0
226.66684,226.76825,48,63,0
226.76825,226.87068,52,58,0
226.87068,226.97078,55,59,0
226.97078,227.07123,60,59,0
227.07123,227.17464,48,63,0
227.17464,227.27501,52,57,0
227.27501,227.37672,55,57,0
227.37672,227.4776,60,57,0
227.4776,227.58066,48,63,0
227.58066,227.68541,53,57,0
227.68541,227.7919,55,57,0
227.7919,227.8999,62,57,0
227.8999,228.00746,60,63,0
227.8999,228.00746,52,63,0
227.8999,228.00746,48,63,0
227.8999,228.00746,55,63,0
228.33102,228.94247,64,69,0
228.33102,228.94247,52,58,0
228.94247,229.14668,44,63,0
228.94247,229.14668,56,63,0
229.14668,229.25389,57,63,0
229.14668,229.25389,45,63,0
229.5751,230.18657,48,60,0
229.5751,230.18657,60,71,0
230.18657,230.39049,52,63,0
230.39049,230.44217,53,56,0
230.44217,230.49387,55,52,0
230.49387,230.54555,53,56,0
230.54555,230.59723,55,52,0
230.59723,230.63168,53,56,0
230.63168,230.66614,55,52,0
230.66614,230.7006,53,52,0
230.7006,230.75229,52,56,0
230.75229,230.80397,50,52,0
230.80397,230.90733,55,63,0
231.21768,231.3241,55,67,0
231.21768,231.3241,43,56,0
231.64336,231.74979,48,60,0
231.64336,231.74979,60,72,0
232.06905,232.17546,36,58,0
232.06905,232.17546,48,69,0
233.33737,233.74547,52,46,0
233.74547,234.18076,48,42,0
234.18076,235.41393,55,46,0
235.81917,236.22159,52,46,0
236.22159,236.64156,48,42,0
236.64156,237.88054,55,46,0
237.88054,238.28578,57,29,0
237.88054,238.28578,53,29,0
237.88054,238.28578,62,35,0
239.09023,239.49263,57,29,0
239.09023,239.49263,53,29,0
239.09023,239.49263,62,35,0
240.33215,241.56532,65,32,0
240.33215,241.56532,55,27,0
240.33215,241.56532,62,27,0
241.56532,241.97343,60,35,0
241.56532,241.97343,64,42,0
243.22212,243.63023,52,46,0
243.63023,244.05905,48,44,0
244.05905,245.29222,55,47,0
244.05905,245.29222,43,48,0
245.69746,246.09987,52,46,0
246.09987,246.52869,48,44,0
246.52869,247.76767,55,47,0
246.52869,247.76767,43,48,0
247.76767,248.17291,50,35,0
247.76767,248.17291,41,29,0
247.76767,248.17291,45,29,0
248.98917,249.39159,50,35,0
248.98917,249.39159,41,29,0
248.98917,249.39159,45,29,0
250.23111,250.64807,43,30,0
250.23111,250.64807,50,30,0
250.23111,250.64807,53,36,0
251.46428,251.88142,52,37,0
251.46428,251.88142,48,32,0
251.88142,252.28105,64,40,0
252.28105,252.69519,60,37,0
252.69519,253.0976,62,40,0
253.0976,253.50002,59,38,0
253.50002,253.91861,55,38,0
253.91861,254.32385,48,40,0
254.32385,254.73195,51,40,0
254.73195,255.14752,48,37,0
255.14752,255.54994,50,40,0
255.54994,255.95518,47,38,0
255.95518,256.37088,43,38,0
256.37088,256.77615,36,58,0
256.37088,256.77615,48,69,0
256.77615,257.18427,60,40,0
257.18427,257.5968,48,40,0
257.5968,257.99908,33,58,0
257.5968,257.99908,45,69,0
257.99908,258.40717,57,40,0
258.40717,258.8197,45,40,0
258.8197,259.22223,46,69,0
258.8197,259.22223,34,58,0
259.22223,259.627,58,40,0
259.627,260.0378,46,40,0
260.0378,260.43588,42,69,0
260.0378,260.43588,30,58,0
260.43588,260.8464,54,40,0
260.8464,261.26166,42,40,0
261.26166,261.66415,31,58,0
261.26166,261.66415,43,69,0
261.66415,262.06616,55,40,0
262.06616,262.47995,43,40,0
262.47995,262.878,52,69,0
262.47995,262.878,40,58,0
262.878,263.2828,64,40,0
263.2828,263.6952,52,40,0
263.6952,264.09323,53,69,0
263.6952,264.09323,41,58,0
264.09323,264.49805,65,40,0
264.49805,264.91043,53,40,0
264.91043,265.31293,49,69,0
264.91043,265.31293,37,58,0
265.31293,265.72104,61,40,0
265.72104,266.13507,49,40,0
266.13507,266.5376,38,58,0
266.13507,266.5376,50,69,0
266.5376,266.94568,62,40,0
266.94568,267.3674,50,40,0
267.3674,267.7699,34,58,0
267.3674,267.7699,46,69,0
267.7699,268.178,58,40,0
268.178,268.60645,46,40,0
268.60645,269.02203,45,44,0
269.6342,269.8473,68,38,0
269.8473,270.25516,69,41,0
270.8666,271.08646,56,32,0
271.07812,271.28632,57,39,0
271.27795,271.48746,56,35,0
271.47916,271.68735,57,39,0
271.67896,271.88843,56,31,0
271.88016,272.08694,57,39,0
272.0786,272.2867,56,32,0
272.27844,272.67532,57,39,0
273.47696,273.68225,57,31,0
273.67383,273.8845,56,28,0
273.87622,274.08273,57,31,0
274.07446,274.28122,56,24,0
274.27292,274.48105,57,31,0
274.4725,274.68597,56,25,0
274.67776,275.07196,57,31,0
275.86035,276.06696,55,63,0
276.0586,276.26794,57,57,0
276.2598,276.4638,55,63,0
276.45554,276.66214,57,49,0
276.654,276.85803,55,63,0
276.84976,277.05643,57,51,0
277.04822,277.4424,55,63,0
278.23077,278.44193,67,39,0
278.4332,278.6515,66,35,0
278.64294,278.85706,67,39,0
278.8482,279.0698,66,31,0
279.06104,279.28,67,39,0
279.27078,279.50003,66,32,0
279.49176,279.88867,67,39,0
278.23077,279.88867,60,29,0
280.68793,280.89944,53,40,0
280.89944,281.10287,57,30,0
281.10287,281.30634,60,33,0
281.30634,281.50977,57,30,0
281.50977,281.71323,60,34,0
281.71323,281.92645,57,30,0
281.92645,282.13306,53,40,0
282.13306,282.3365,60,29,0
282.3365,282.53995,63,31,0
282.53995,282.74338,60,27,0
282.74338,282.94684,63,31,0
282.94684,283.15836,60,28,0
283.15836,283.36496,53,40,0
283.36496,283.5716,58,30,0
283.5716,283.7782,62,33,0
283.7782,283.9848,58,30,0
283.9848,284.19467,62,33,0
284.19467,284.40454,58,30,0
284.40454,284.60797,53,40,0
284.60797,284.81784,55,23,0
284.81784,285.0277,58,28,0
285.0277,285.23758,55,24,0
285.23758,285.4458,58,29,0
285.4458,285.66074,55,24,0
285.66074,286.0805,57,30,0
285.66074,286.0805,53,30,0
288.18265,288.59912,53,47,0
288.59912,289.0156,45,44,0
289.0156,289.43204,50,48,0
289.43204,289.8485,43,48,0
289.8485,290.4765,48,49,0
290.4765,290.68802,45,47,0
290.68802,291.10776,41,52,0
291.10776,291.5178,50,40,0
291.5178,291.93427,46,44,0
291.93427,292.34274,45,47,0
292.74963,293.1597,50,40,0
293.1597,293.5635,46,40,0
293.98325,294.40967,48,41,0
294.40967,294.82614,41,43,0
295.2426,295.55496,69,32,0
295.2426,295.55496,72,40,0
295.55496,295.6633,70,35,0
295.55496,295.6633,67,28,0
295.6633,295.76743,65,32,0
295.6633,295.76743,69,40,0
296.07977,296.1839,69,40,0
296.07977,296.1839,65,32,0
296.50046,296.8128,69,37,0
296.50046,296.8128,65,29,0
296.8128,296.91693,60,26,0
296.8128,296.91693,67,33,0
296.91693,297.02106,57,30,0
296.91693,297.02106,65,38,0
297.3334,297.4375,57,28,0
297.3334,297.4375,65,35,0
297.75314,298.16962,57,28,0
297.75314,298.16962,65,35,0
298.16962,298.27374,67,36,0
298.16962,298.27374,60,28,0
298.5861,298.6902,60,28,0
298.5861,298.6902,67,35,0
299.00253,299.1083,67,35,0
299.00253,299.1083,60,28,0
299.4256,299.84204,60,32,0
299.4256,299.84204,67,40,0
299.84204,300.26773,65,28,0
299.84204,300.26773,69,35,0
300.26773,300.55908,69,32,0
300.26773,300.55908,72,40,0
300.55908,300.6562,67,28,0
300.55908,300.6562,70,35,0
300.6562,300.76028,69,40,0
300.6562,300.76028,65,32,0
301.07263,301.17676,69,40,0
301.07263,301.17676,65,32,0
301.4891,301.7785,65,29,0
301.4891,301.7785,69,37,0
301.7785,301.875,60,26,0
301.7785,301.875,67,33,0
301.875,301.9791,57,30,0
301.875,301.9791,65,38,0
302.29144,302.39557,65,35,0
302.29144,302.39557,57,28,0
302.70792,302.81204,65,35,0
302.70792,302.81204,57,28,0
303.1244,303.53442,60,29,0
303.1244,303.53442,67,37,0
303.97137,304.3944,67,35,0
303.97137,304.3944,60,28,0
304.3944,304.81744,65,39,0
305.2405,305.66354,64,28,0
305.2405,305.66354,60,28,0
305.2405,305.66354,70,35,0
305.66354,306.08658,65,31,0
305.66354,306.08658,69,39,0
306.5096,306.93268,48,25,0
306.5096,306.93268,52,25,0
306.5096,306.93268,58,31,0
306.93268,307.3557,57,35,0
306.93268,307.3557,53,27,0
307.77875,308.20758,49,60,0
307.77875,308.20758,37,51,0
308.20758,308.4154,38,56,0
308.20758,308.4154,50,66,0
308.4154,308.62323,53,60,0
308.62323,308.83105,57,60,0
308.83105,309.0345,53,60,0
309.0345,309.2379,57,63,0
309.2379,309.44135,53,60,0
309.44135,309.64478,50,65,0
309.64478,309.8482,53,60,0
309.8482,310.05453,57,63,0
310.05453,310.2609,53,60,0
310.2609,310.4702,57,60,0
310.4702,310.6891,53,62,0
310.6891,310.7953,52,71,0
310.6891,310.7953,40,60,0
311.1139,311.2144,61,71,0
311.1139,311.2144,55,60,0
311.1139,311.2144,52,60,0
311.1139,311.2144,58,60,0
311.9302,312.0364,40,60,0
311.9302,312.0364,52,71,0
312.355,312.45892,58,60,0
312.355,312.45892,61,71,0
312.355,312.45892,52,60,0
312.355,312.45892,55,60,0
313.1863,313.39413,53,66,0
313.39413,313.602,57,60,0
313.602,313.8098,62,60,0
313.8098,314.01324,57,60,0
314.01324,314.21667,62,63,0
314.21667,314.4201,57,60,0
314.4201,314.62354,53,65,0
314.62354,314.82697,57,60,0
314.82697,315.0333,62,63,0
315.0333,315.23965,57,60,0
315.23965,315.44897,62,60,0
315.44897,315.66782,57,62,0
315.66782,315.77402,50,71,0
315.66782,315.77402,38,60,0
316.09265,316.19455,53,60,0
316.09265,316.19455,56,60,0
316.09265,316.19455,50,60,0
316.09265,316.19455,59,71,0
316.9225,317.0287,50,71,0
316.9225,317.0287,38,60,0
317.3473,317.4512,50,60,0
317.3473,317.4512,53,60,0
317.3473,317.4512,59,71,0
317.3473,317.4512,56,60,0
318.17862,318.38644,51,66,0
318.38644,318.59427,55,60,0
318.59427,318.8021,60,60,0
318.8021,319.00552,55,60,0
319.00552,319.20895,60,63,0
319.20895,319.41238,55,60,0
319.41238,319.6158,51,65,0
319.6158,319.81924,55,60,0
319.81924,320.02557,60,63,0
320.02557,320.23193,55,60,0
320.23193,320.44125,60,60,0
320.44125,320.66013,55,62,0
320.66013,320.76633,39,71,0
321.08493,321.1881,51,60,0
321.08493,321.1881,57,60,0
321.08493,321.1881,54,60,0
321.08493,321.1881,60,71,0
321.91025,322.01645,39,71,0
322.33505,322.43896,54,60,0
322.33505,322.43896,51,60,0
322.33505,322.43896,60,71,0
322.33505,322.43896,57,60,0
323.14166,323.34695,49,66,0
323.34695,323.55222,53,60,0
323.55222,323.75748,58,60,0
323.75748,323.9609,53,60,0
323.9609,324.16434,58,63,0
324.16434,324.36777,53,60,0
324.36777,324.5712,49,66,0
324.5712,324.79034,53,60,0
324.79034,324.99524,58,60,0
324.99524,325.20456,53,60,0
325.20456,325.4139,58,63,0
325.4139,325.62323,53,60,0
325.62323,325.83105,48,66,0
325.83105,326.0389,53,60,0
326.0389,326.24673,57,60,0
326.24673,326.45016,53,60,0
326.45016,326.6536,57,63,0
326.6536,326.85703,53,60,0
326.85703,327.06046,48,66,0
327.06046,327.2796,53,60,0
327.2796,327.48447,57,60,0
327.48447,327.69382,53,60,0
327.69382,327.90314,57,63,0
327.90314,328.12582,53,60,0
328.12582,328.33365,47,66,0
328.33365,328.54147,53,60,0
328.54147,328.74933,56,60,0
328.74933,328.95276,53,60,0
328.95276,329.1562,56,63,0
329.1562,329.35962,53,60,0
329.35962,329.56305,47,66,0
329.56305,329.7822,53,60,0
329.7822,329.98706,56,60,0
329.98706,330.1964,53,60,0
330.1964,330.40573,56,63,0
330.40573,330.61984,53,60,0
330.61984,330.83136,48,66,0
330.83136,331.04288,52,60,0
331.04288,331.2544,55,60,0
331.2544,331.4659,60,60,0
331.4659,331.66998,53,63,0
331.66998,331.88483,56,60,0
331.88483,332.09332,48,66,0
332.09332,332.3018,52,60,0
332.3018,332.5096,55,60,0
332.5096,332.71744,60,60,0
332.71744,332.92007,53,63,0
332.92007,333.12268,56,60,0
333.12268,333.7447,60,72,0
333.7447,333.8548,61,63,0
333.84628,333.95798,60,62,0
333.94934,334.06265,58,60,0
334.05386,334.16885,56,60,0
334.15994,334.2777,55,59,0
334.2678,334.39563,53,57,0
334.38663,334.49475,60,63,0
334.81918,334.9273,36,48,0
334.81918,334.9273,48,57,0
335.52206,335.57614,41,35,0
335.57614,335.63022,48,35,0
335.6843,336.10733,53,35,0
336.8273,336.88055,48,34,0
336.88055,336.93384,55,34,0
336.9871,337.41327,58,35,0
338.28192,338.70807,41,35,0
338.70807,339.12204,45,31,0
339.12204,339.54694,48,31,0
339.54694,339.97638,53,35,0
339.97638,340.3994,41,31,0
341.26495,341.679,58,33,0
341.26495,341.679,53,33,0
340.83524,341.679,50,35,0
342.52084,342.9348,55,35,0
342.52084,342.9348,60,35,0
342.10687,342.9348,52,38,0
343.36136,343.78754,53,41,0
343.78754,344.19855,53,37,0
343.78754,344.19855,50,31,0
344.19855,344.627,55,35,0
344.19855,344.627,46,29,0
344.627,345.04706,52,41,0
344.627,345.04706,48,34,0
345.8872,346.02927,53,39,0
346.02927,346.1713,57,31,0
346.1713,346.31335,60,31,0
346.31335,346.4532,53,39,0
346.4532,346.59302,57,32,0
346.59302,346.73285,60,32,0
346.73285,346.87476,53,40,0
346.87476,347.0188,57,32,0
347.0188,347.165,60,32,0
347.165,347.3069,52,43,0
347.3069,347.4488,55,36,0
347.4488,347.59067,60,35,0
347.59067,347.7305,52,40,0
347.7305,347.87033,55,33,0
347.87033,348.01016,60,29,0
348.01016,348.15207,52,37,0
348.15207,348.29398,58,29,0
348.29398,348.43585,60,29,0
348.43585,348.86203,57,35,0
348.43585,348.86203,53,29,0
348.86203,349.276,57,31,0
349.276,349.70087,60,31,0
349.70087,350.1303,65,35,0
350.1303,350.55334,60,31,0
350.55334,350.98917,53,31,0
350.98917,351.21042,62,35,0
351.21042,351.41888,65,31,0
351.41888,351.62296,70,32,0
351.62296,351.83295,65,33,0
351.83295,352.0429,62,35,0
352.0429,352.26083,65,38,0
352.26083,352.4678,64,40,0
352.4678,352.6748,67,35,0
352.6748,352.88177,72,42,0
352.88177,353.08875,67,35,0
353.08875,353.29575,64,35,0
353.29575,353.51532,67,34,0
353.51532,353.94147,65,41,0
353.94147,354.35248,67,37,0
353.94147,354.35248,58,37,0
354.35248,354.78094,70,35,0
354.35248,354.78094,60,35,0
354.78094,355.1981,65,32,0
354.78094,355.1981,69,37,0
355.1981,355.6062,69,40,0
355.6062,356.02176,65,37,0
356.02176,356.43277,67,40,0
356.43277,356.84088,64,38,0
356.84088,357.2595,60,38,0
357.2595,357.66428,53,40,0
357.66428,358.0724,56,40,0
358.0724,358.48798,53,37,0
358.48798,358.89423,55,40,0
358.89423,359.30234,52,38,0
359.30234,359.71948,48,38,0
359.71948,360.1276,53,69,0
359.71948,360.1276,41,58,0
360.1276,360.5357,56,40,0
360.5357,360.9482,60,40,0
360.9482,361.35208,46,58,0
360.9482,361.35208,58,69,0
361.35208,361.7602,61,40,0
361.7602,362.17273,65,40,0
362.17273,362.57523,39,58,0
362.17273,362.57523,51,69,0
362.57523,362.98334,55,40,0
362.98334,363.39438,58,40,0
363.39438,363.79688,56,69,0
363.39438,363.79688,44,58,0
363.79688,364.205,60,40,0
364.205,364.61902,63,40,0
364.61902,365.01865,49,69,0
364.61902,365.01865,37,58,0
365.01865,365.4297,61,40,0
365.4297,365.8321,43,58,0
365.4297,365.8321,55,69,0
365.8321,366.2402,67,40,0
366.2402,366.63712,48,69,0
366.2402,366.63712,36,58,0
366.63712,367.0452,60,40,0
367.0452,367.44763,61,45,0
367.44763,367.85574,60,39,0
367.85574,368.26968,59,39,0
368.26968,368.68527,60,44,0
369.29742,369.51053,59,41,0
369.51053,369.9186,60,44,0
370.5308,370.75073,59,32,0
370.7423,370.9533,60,39,0
370.9447,371.15988,59,35,0
371.15146,371.36246,60,39,0
371.35385,371.56903,59,31,0
371.56058,371.77173,60,39,0
371.763,371.98123,59,32,0
371.97275,372.3804,60,38,0
373.2418,373.66748,58,33,0
373.66748,374.09314,58,31,0
374.09314,374.52573,58,31,0
374.52573,375.3718,58,33,0
375.3718,375.8104,53,31,0
375.8104,376.23196,48,33,0
376.23196,376.6581,48,30,0
376.6581,377.09726,48,30,0
377.09726,377.94336,48,33,0
377.94336,378.37268,50,30,0
378.37268,378.78818,46,33,0
378.78818,379.20813,48,32,0
379.20813,379.6343,48,32,0
379.6343,380.06442,53,33,0
380.89316,381.3193,70,33,0
380.89316,381.3193,65,28,0
381.3193,381.74548,70,31,0
381.3193,381.74548,65,26,0
381.74548,382.17804,65,26,0
381.74548,382.17804,70,31,0
382.17804,383.02414,70,33,0
383.02414,383.4567,69,31,0
382.17804,383.4567,65,28,0
383.4567,383.87823,67,33,0
383.4567,383.87823,60,28,0
383.87823,384.3044,60,25,0
383.87823,384.3044,67,30,0
384.3044,384.74356,60,25,0
384.3044,384.74356,67,30,0
384.74356,385.58963,67,33,0
384.74356,385.58963,60,28,0
385.58963,386.01898,62,25,0
385.58963,386.01898,65,30,0
386.01898,386.43448,58,33,0
386.43448,386.85443,60,32,0
386.85443,387.28058,58,32,0
387.28058,387.4804,57,69,0
387.28058,387.4804,45,58,0
387.6802,387.78082,61,40,0
388.08264,388.18466,62,40,0
388.49075,388.59277,58,40,0
388.89886,388.99875,60,40,0
389.29846,389.40125,58,40,0
389.7095,389.81226,57,75,0
389.7095,389.81226,45,75,0
390.1205,390.22043,61,73,0
390.1205,390.22043,49,73,0
390.52014,390.6229,50,73,0
390.52014,390.6229,62,73,0
390.93115,391.03247,58,75,0
390.93115,391.03247,46,75,0
391.3364,391.43698,48,73,0
391.3364,391.43698,60,73,0
391.7388,391.8423,36,73,0
391.7388,391.8423,48,73,0
392.15286,392.2547,41,64,0
392.2547,392.35965,45,59,0
392.35965,392.46252,48,59,0
392.46252,392.56555,53,59,0
392.56555,392.66705,41,63,0
392.66705,392.7682,45,58,0
392.7682,392.87177,48,58,0
392.87177,392.97394,53,58,0
392.97394,393.07697,41,63,0
393.07697,393.18182,45,57,0
393.18182,393.28876,48,58,0
393.28876,393.39746,53,58,0
393.39746,393.49832,41,63,0
393.49832,393.60052,45,58,0
393.60052,393.7007,48,59,0
393.7007,393.80103,53,59,0
393.80103,393.90485,41,63,0
393.90485,394.0048,45,57,0
394.0048,394.1067,48,57,0
394.1067,394.20764,53,57,0
394.20764,394.31082,41,63,0
394.31082,394.4157,46,57,0
394.4157,394.52234,48,57,0
394.52234,394.62997,55,57,0
394.62997,394.7326,41,63,0
394.7326,394.83524,45,57,0
394.83524,394.93787,48,57,0
394.93787,395.0405,53,57,0
395.0405,395.14313,41,63,0
395.14313,395.2458,45,57,0
395.2458,395.34842,48,57,0
395.34842,395.45105,53,57,0
395.45105,395.55392,41,63,0
395.55392,395.65866,45,57,0
395.65866,395.76538,48,58,0
395.76538,395.87405,53,58,0
395.87405,395.97543,41,63,0
395.97543,396.07788,45,58,0
396.07788,396.17798,48,59,0
396.17798,396.27844,53,59,0
396.27844,396.38184,41,63,0
396.38184,396.4822,45,57,0
396.4822,396.58392,48,57,0
396.58392,396.6848,53,57,0
396.6848,396.78787,41,63,0
396.78787,396.8926,46,57,0
396.8926,396.9991,48,57,0
396.9991,397.1071,55,57,0
397.1071,397.21466,60,63,0
397.1071,397.21466,65,63,0
397.1071,397.21466,53,63,0
397.1071,397.21466,57,63,0
397.53824,398.1497,45,58,0
397.53824,398.1497,57,69,0
398.1497,398.35388,49,63,0
398.1497,398.35388,61,63,0
398.35388,398.4611,50,63,0
398.35388,398.4611,62,63,0
398.78232,399.39377,53,60,0
398.78232,399.39377,65,71,0
399.39377,399.5977,57,63,0
399.5977,399.64938,58,56,0
399.64938,399.70105,60,52,0
399.70105,399.75275,58,56,0
399.75275,399.80444,60,52,0
399.80444,399.8389,58,56,0
399.8389,399.87335,60,52,0
399.87335,399.9078,58,52,0
399.9078,399.95947,57,56,0
399.95947,400.01117,55,52,0
400.01117,400.11453,60,63,0
400.42487,400.5313,48,56,0
400.42487,400.5313,60,67,0
400.85056,400.95697,65,72,0
400.85056,400.95697,53,60,0
401.27625,401.38266,41,58,0
401.27625,401.38266,53,69,0
402.54456,402.95267,52,46,0
402.95267,403.38797,48,42,0
403.38797,404.62112,55,46,0
405.02637,405.4288,52,46,0
405.4288,405.84875,48,42,0
405.84875,407.08774,55,46,0
407.08774,407.49298,57,29,0
407.08774,407.49298,53,29,0
407.08774,407.49298,62,35,0
408.29742,408.69983,57,29,0
408.29742,408.69983,53,29,0
408.29742,408.69983,62,35,0
409.5278,410.761,65,32,0
409.5278,410.761,55,27,0
409.5278,410.761,62,27,0
410.761,411.1691,60,35,0
410.761,411.1691,64,42,0
412.4178,412.8259,52,46,0
412.8259,413.2547,48,44,0
413.2547,414.48788,55,47,0
413.2547,414.48788,43,48,0
414.89313,415.29553,52,46,0
415.29553,415.72433,48,44,0
415.72433,416.96332,55,47,0
415.72433,416.96332,43,48,0
416.96332,417.36856,50,35,0
416.96332,417.36856,41,29,0
416.96332,417.36856,45,29,0
418.1848,418.58725,50,35,0
418.1848,418.58725,41,29,0
418.1848,418.58725,45,29,0
419.41522,419.83215,43,30,0
419.41522,419.83215,50,30,0
419.41522,419.83215,53,36,0
420.64838,421.06552,52,37,0
420.64838,421.06552,48,32,0
421.06552,421.46515,64,40,0
421.46515,421.8793,60,37,0
421.8793,422.2817,62,40,0
422.2817,422.6841,59,38,0
422.6841,423.10272,55,38,0
423.10272,423.50793,48,40,0
423.50793,423.91605,51,40,0
423.91605,424.33163,48,37,0
424.33163,424.73404,50,40,0
424.73404,425.13928,47,38,0
425.13928,425.555,43,38,0
425.555,425.96027,36,58,0
425.555,425.96027,48,69,0
425.96027,426.36835,60,40,0
426.36835,426.78088,48,40,0
426.78088,427.18317,33,58,0
426.78088,427.18317,45,69,0
427.18317,427.59128,57,40,0
427.59128,428.0038,45,40,0
428.0038,428.4063,46,69,0
428.0038,428.4063,34,58,0
428.4063,428.81113,58,40,0
428.81113,429.22192,46,40,0
429.22192,429.61996,42,69,0
429.22192,429.61996,30,58,0
429.61996,430.03052,54,40,0
430.03052,430.44577,42,40,0
430.44577,430.84827,31,58,0
430.44577,430.84827,43,69,0
430.84827,431.25024,55,40,0
431.25024,431.66406,43,40,0
431.66406,432.0621,52,69,0
431.66406,432.0621,40,58,0
432.0621,432.46692,64,40,0
432.46692,432.8793,52,40,0
432.8793,433.27734,53,69,0
432.8793,433.27734,41,58,0
433.27734,433.68216,65,40,0
433.68216,434.09454,53,40,0
434.09454,434.49704,49,69,0
434.09454,434.49704,37,58,0
434.49704,434.90515,61,40,0
434.90515,435.31918,49,40,0
435.31918,435.72168,38,58,0
435.31918,435.72168,50,69,0
435.72168,436.1298,62,40,0
436.1298,436.55148,50,40,0
436.55148,436.954,34,58,0
436.55148,436.954,46,69,0
436.954,437.36212,58,40,0
437.36212,437.79056,46,40,0
437.79056,438.20615,45,44,0
438.8183,439.03137,68,38,0
439.03137,439.43924,69,41,0
440.05072,440.27054,56,32,0
440.26224,440.47043,57,39,0
440.46204,440.67157,56,35,0
440.66324,440.87146,57,39,0
440.86307,441.07254,56,31,0
441.06427,441.27106,57,39,0
441.26273,441.4708,56,32,0
441.46252,441.85944,57,39,0
442.66104,442.86636,57,31,0
442.8579,443.06857,56,28,0
443.06033,443.2668,57,31,0
443.25854,443.46533,56,24,0
443.457,443.66516,57,31,0
443.65662,443.8701,56,25,0
443.86188,444.25607,57,31,0
445.04446,445.25107,55,63,0
445.24268,445.45206,57,57,0
445.44388,445.64792,55,63,0
445.63965,445.84625,57,49,0
445.8381,446.0421,55,63,0
446.03384,446.2405,57,51,0
446.2323,446.6265,55,63,0
447.4149,447.62604,67,39,0
447.61728,447.8356,66,35,0
447.82703,448.04117,67,39,0
448.0323,448.25388,66,31,0
448.24515,448.4641,67,39,0
448.4549,448.68414,66,32,0
448.67587,449.07278,67,39,0
447.4149,449.07278,60,29,0
449.87204,450.08356,53,40,0
450.08356,450.287,57,30,0
450.287,450.49045,60,33,0
450.49045,450.69388,57,30,0
450.69388,450.89734,60,34,0
450.89734,451.11053,57,30,0
451.11053,451.31717,53,40,0
451.31717,451.5206,60,29,0
451.5206,451.72406,63,31,0
451.72406,451.9275,60,27,0
451.9275,452.13095,63,31,0
452.13095,452.34247,60,28,0
452.34247,452.54907,53,40,0
452.54907,452.75568,58,30,0
452.75568,452.96228,62,33,0
452.96228,453.1689,58,30,0
453.1689,453.37875,62,33,0
453.37875,453.58862,58,30,0
453.58862,453.79208,53,40,0
453.79208,454.00195,55,23,0
454.00195,454.2118,58,28,0
454.2118,454.42166,55,24,0
454.42166,454.6299,58,29,0
454.6299,454.84485,55,24,0
454.84485,455.2646,57,30,0
454.84485,455.2646,53,30,0
457.36676,457.78323,53,47,0
457.78323,458.19968,45,44,0
458.19968,458.61615,50,48,0
458.61615,459.03262,43,48,0
459.03262,459.6606,48,49,0
459.6606,459.87213,45,47,0
459.87213,460.29184,41,52,0
460.29184,460.7019,50,40,0
460.7019,461.11838,46,44,0
461.11838,461.52686,45,47,0
461.93375,462.34378,50,40,0
462.34378,462.74762,46,40,0
463.16736,463.59378,48,41,0
463.59378,464.01025,41,43,0
464.4267,464.73907,69,32,0
464.4267,464.73907,72,40,0
464.73907,464.8474,70,35,0
464.73907,464.8474,67,28,0
464.8474,464.95154,65,32,0
464.8474,464.95154,69,40,0
465.2639,465.36798,69,40,0
465.2639,465.36798,65,32,0
465.68457,465.99692,69,37,0
465.68457,465.99692,65,29,0
465.99692,466.10104,60,26,0
465.99692,466.10104,67,33,0
466.10104,466.20514,57,30,0
466.10104,466.20514,65,38,0
466.5175,466.6216,57,28,0
466.5175,466.6216,65,35,0
466.93726,467.35373,57,28,0
466.93726,467.35373,65,35,0
467.35373,467.45782,67,36,0
467.35373,467.45782,60,28,0
467.77017,467.8743,60,28,0
467.77017,467.8743,67,35,0
468.18665,468.29242,67,35,0
468.18665,468.29242,60,28,0
468.60968,469.02615,60,32,0
468.60968,469.02615,67,40,0
469.02615,469.46143,65,28,0
469.02615,469.46143,69,35,0
469.46143,469.75278,69,32,0
469.46143,469.75278,72,40,0
469.75278,469.84988,67,28,0
469.75278,469.84988,70,35,0
469.84988,469.954,69,40,0
469.84988,469.954,65,32,0
470.26636,470.37048,69,40,0
470.26636,470.37048,65,32,0
470.68283,470.97415,65,29,0
470.68283,470.97415,69,37,0
470.97415,471.0855,60,26,0
470.97415,471.0855,67,33,0
471.0855,471.1896,57,30,0
471.0855,471.1896,65,38,0
471.50195,471.60608,65,35,0
471.50195,471.60608,57,28,0
471.91843,472.02255,65,35,0
471.91843,472.02255,57,28,0
472.3349,472.74493,60,29,0
472.3349,472.74493,67,37,0
473.1819,473.60492,67,35,0
473.1819,473.60492,60,28,0
473.60492,474.02795,65,39,0
474.45102,474.87405,64,28,0
474.45102,474.87405,60,28,0
474.45102,474.87405,70,35,0
474.87405,475.2971,65,31,0
474.87405,475.2971,69,39,0
475.72012,476.1432,48,25,0
475.72012,476.1432,52,25,0
475.72012,476.1432,58,31,0
476.1432,476.56622,57,35,0
476.1432,476.56622,53,27,0
476.98926,477.4181,49,60,0
476.98926,477.4181,37,51,0
477.4181,477.62592,38,56,0
477.4181,477.62592,50,66,0
477.62592,477.83374,53,60,0
477.83374,478.04156,57,60,0
478.04156,478.245,53,60,0
478.245,478.44843,57,63,0
478.44843,478.65186,53,60,0
478.65186,478.8553,50,65,0
478.8553,479.05872,53,60,0
479.05872,479.26505,57,63,0
479.26505,479.4714,53,60,0
479.4714,479.68073,57,60,0
479.68073,479.8996,53,62,0
479.8996,480.0058,52,71,0
479.8996,480.0058,40,60,0
480.3244,480.42758,61,71,0
480.3244,480.42758,55,60,0
480.3244,480.42758,52,60,0
480.3244,480.42758,58,60,0
481.14258,481.24878,40,60,0
481.14258,481.24878,52,71,0
481.56738,481.6713,58,60,0
481.56738,481.6713,61,71,0
481.56738,481.6713,52,60,0
481.56738,481.6713,55,60,0
482.3782,482.58493,53,66,0
482.58493,482.79166,57,60,0
482.79166,482.9984,62,60,0
482.9984,483.20184,57,60,0
483.20184,483.40527,62,63,0
483.40527,483.6087,57,60,0
483.6087,483.81213,53,65,0
483.81213,484.01556,57,60,0
484.01556,484.2219,62,63,0
484.2219,484.42825,57,60,0
484.42825,484.63757,62,60,0
484.63757,484.85645,57,62,0
484.85645,484.96265,50,71,0
484.85645,484.96265,38,60,0
485.28125,485.38443,53,60,0
485.28125,485.38443,56,60,0
485.28125,485.38443,50,60,0
485.28125,485.38443,59,71,0
486.1031,486.2093,50,71,0
486.1031,486.2093,38,60,0
486.5279,486.6318,50,60,0
486.5279,486.6318,53,60,0
486.5279,486.6318,59,71,0
486.5279,486.6318,56,60,0
487.34293,487.5482,51,66,0
487.5482,487.75345,55,60,0
487.75345,487.9587,60,60,0
487.9587,488.16217,55,60,0
488.16217,488.3656,60,63,0
488.3656,488.56903,55,60,0
488.56903,488.77246,51,65,0
488.77246,488.9759,55,60,0
488.9759,489.18222,60,63,0
489.18222,489.38855,55,60,0
489.38855,489.5979,60,60,0
489.5979,489.81674,55,62,0
489.81674,489.92294,39,71,0
490.24155,490.34473,51,60,0
490.24155,490.34473,57,60,0
490.24155,490.34473,54,60,0
490.24155,490.34473,60,71,0
491.0634,491.1696,39,71,0
491.4882,491.5921,54,60,0
491.4882,491.5921,51,60,0
491.4882,491.5921,60,71,0
491.4882,491.5921,57,60,0
492.31952,492.52734,49,66,0
492.52734,492.73517,53,60,0
492.73517,492.943,58,60,0
492.943,493.14642,53,60,0
493.14642,493.34985,58,63,0
493.34985,493.55328,53,60,0
493.55328,493.7567,49,66,0
493.7567,493.97586,53,60,0
493.97586,494.18076,58,60,0
494.18076,494.39008,53,60,0
494.39008,494.59943,58,63,0
494.59943,494.80875,53,60,0
494.80875,495.01657,48,66,0
495.01657,495.2244,53,60,0
495.2244,495.43225,57,60,0
495.43225,495.63568,53,60,0
495.63568,495.8391,57,63,0
495.8391,496.04254,53,60,0
496.04254,496.24597,48,66,0
496.24597,496.46512,53,60,0
496.46512,496.66998,57,60,0
496.66998,496.87933,53,60,0
496.87933,497.08865,57,63,0
497.08865,497.31134,53,60,0
497.31134,497.51917,47,66,0
497.51917,497.727,53,60,0
497.727,497.93484,56,60,0
497.93484,498.13828,53,60,0
498.13828,498.3417,56,63,0
498.3417,498.54514,53,60,0
498.54514,498.74857,47,66,0
498.74857,498.9677,53,60,0
498.9677,499.17258,56,60,0
499.17258,499.38193,53,60,0
499.38193,499.59125,56,63,0
499.59125,499.80536,53,60,0
499.80536,500.01688,48,66,0
500.01688,500.2284,52,60,0
500.2284,500.4399,55,60,0
500.4399,500.65143,60,60,0
500.65143,500.8555,53,63,0
500.8555,501.07034,56,60,0
501.07034,501.27884,48,66,0
501.27884,501.4873,52,60,0
501.4873,501.69513,55,60,0
501.69513,501.90295,60,60,0
501.90295,502.1056,53,63,0
502.1056,502.3082,56,60,0
502.3082,502.9302,60,72,0
502.9302,503.0403,61,63,0
503.0318,503.1435,60,62,0
503.13486,503.24817,58,60,0
503.23938,503.35437,56,60,0
503.34546,503.46323,55,59,0
503.4533,503.58115,53,57,0
503.57214,503.68027,60,63,0
504.0047,504.11282,36,48,0
504.0047,504.11282,48,57,0
504.70758,504.76166,41,35,0
504.76166,504.81573,48,35,0
504.8698,505.29285,53,35,0
506.0128,506.06607,48,34,0
506.06607,506.11935,55,34,0
506.1726,506.5988,58,35,0
507.46744,507.8936,41,35,0
507.8936,508.30756,45,31,0
508.30756,508.73245,48,31,0
508.73245,509.1619,53,35,0
509.1619,509.58493,41,31,0
510.45047,510.8645,58,33,0
510.45047,510.8645,53,33,0
510.02075,510.8645,50,35,0
511.70636,512.1203,55,35,0
511.70636,512.1203,60,35,0
511.2924,512.1203,52,38,0
512.5469,512.973,53,41,0
512.973,513.38403,53,37,0
512.973,513.38403,50,31,0
513.38403,513.8125,55,35,0
513.38403,513.8125,46,29,0
513.8125,514.2326,52,41,0
513.8125,514.2326,48,34,0
515.0727,515.2148,53,39,0
515.2148,515.3568,57,31,0
515.3568,515.4989,60,31,0
515.4989,515.63873,53,39,0
515.63873,515.77856,57,32,0
515.77856,515.9184,60,32,0
515.9184,516.06024,53,40,0
516.06024,516.2043,57,32,0
516.2043,516.3505,60,32,0
516.3505,516.49243,52,43,0
516.49243,516.6343,55,36,0
516.6343,516.7762,60,35,0
516.7762,516.916,52,40,0
516.916,517.05585,55,33,0
517.05585,517.1957,60,29,0
517.1957,517.3376,52,37,0
517.3376,517.4795,58,29,0
517.4795,517.6214,60,29,0
517.6214,518.04755,57,35,0
517.6214,518.04755,53,29,0
518.04755,518.4615,57,31,0
518.4615,518.8864,60,31,0
518.8864,519.31586,65,35,0
519.31586,519.7389,60,31,0
519.7389,520.1747,53,31,0
520.1747,520.39594,62,35,0
520.39594,520.60443,65,31,0
520.60443,520.8085,70,32,0
520.8085,521.01843,65,33,0
521.01843,521.22845,62,35,0
521.22845,521.44635,65,38,0
521.44635,521.6533,64,40,0
521.6533,521.8603,67,35,0
521.8603,522.06726,72,42,0
522.06726,522.2743,67,35,0
522.2743,522.48126,64,35,0
522.48126,522.7008,67,34,0
522.7008,523.127,65,41,0
523.127,523.538,67,37,0
523.127,523.538,58,37,0
523.538,523.9665,70,35,0
523.538,523.9665,60,35,0
523.9665,524.3836,65,32,0
523.9665,524.3836,69,37,0
524.3836,524.7917,69,40,0
524.7917,525.2073,65,37,0
525.2073,525.6183,67,40,0
525.6183,526.0264,64,38,0
526.0264,526.445,60,38,0
526.445,526.8498,53,40,0
526.8498,527.25793,56,40,0
527.25793,527.67346,53,37,0
527.67346,528.0798,55,40,0
528.0798,528.48785,52,38,0
528.48785,528.90497,48,38,0
528.90497,529.3131,53,69,0
528.90497,529.3131,41,58,0
529.3131,529.7212,56,40,0
529.7212,530.1337,60,40,0
530.1337,530.5376,46,58,0
530.1337,530.5376,58,69,0
530.5376,530.94574,61,40,0
530.94574,531.3583,65,40,0
531.3583,531.76074,39,58,0
531.3583,531.76074,51,69,0
531.76074,532.1689,55,40,0
532.1689,532.5799,58,40,0
532.5799,532.9824,56,69,0
532.5799,532.9824,44,58,0
532.9824,533.3905,60,40,0
533.3905,533.80457,63,40,0
533.80457,534.20416,49,69,0
533.80457,534.20416,37,58,0
534.20416,534.6152,61,40,0
534.6152,535.0176,43,58,0
534.6152,535.0176,55,69,0
535.0176,535.4257,67,40,0
535.4257,535.82263,48,69,0
535.4257,535.82263,36,58,0
535.82263,536.2307,60,40,0
536.2307,536.6331,61,45,0
536.6331,537.04126,60,39,0
537.04126,537.4552,59,39,0
537.4552,537.8708,60,44,0
538.483,538.69604,59,41,0
538.69604,539.1041,60,44,0
539.7163,539.9363,59,32,0
539.9278,540.13885,60,39,0
540.13025,540.3454,59,35,0
540.337,540.548,60,39,0
540.53937,540.7545,59,31,0
540.7461,540.9573,60,39,0
540.9485,541.16675,59,32,0
541.15826,541.5659,60,38,0
542.42926,542.855,58,33,0
542.855,543.28064,58,31,0
543.28064,543.7132,58,31,0
543.7132,544.55927,58,33,0
544.55927,545.00464,53,31,0
545.00464,545.4262,48,33,0
545.4262,545.85236,48,30,0
545.85236,546.2915,48,30,0
546.2915,547.1376,48,33,0
547.1376,547.56696,50,30,0
547.56696,547.9824,46,33,0
547.9824,548.4024,48,32,0
548.4024,548.82855,48,32,0
548.82855,549.25867,53,33,0
550.0874,550.51355,70,33,0
550.0874,550.51355,65,28,0
550.51355,550.93976,70,31,0
550.51355,550.93976,65,26,0
550.93976,551.3723,65,26,0
550.93976,551.3723,70,31,0
551.3723,552.2184,70,33,0
552.2184,552.65094,69,31,0
551.3723,552.65094,65,28,0
552.65094,553.0725,67,33,0
552.65094,553.0725,60,28,0
553.0725,553.49866,60,25,0
553.0725,553.49866,67,30,0
553.49866,553.9378,60,25,0
553.49866,553.9378,67,30,0
553.9378,554.7839,67,33,0
553.9378,554.7839,60,28,0
554.7839,555.21326,62,25,0
554.7839,555.21326,65,30,0
555.21326,555.6287,58,33,0
555.6287,556.0487,60,32,0
556.0487,556.47485,58,32,0
556.47485,556.67175,57,69,0
556.47485,556.67175,45,58,0
556.8686,556.9692,61,40,0
557.271,557.37305,62,40,0
557.67914,557.7811,58,40,0
558.0872,558.18713,60,40,0
558.4869,558.5896,58,40,0
558.8979,559.0006,57,75,0
558.8979,559.0006,45,75,0
559.3089,559.4088,61,73,0
559.3089,559.4088,49,73,0
559.7085,559.8113,50,73,0
559.7085,559.8113,62,73,0
560.1195,560.2208,58,75,0
560.1195,560.2208,46,75,0
560.5248,560.62537,48,73,0
560.5248,560.62537,60,73,0
560.9272,561.0307,36,73,0
560.9272,561.0307,48,73,0
561.34125,561.4431,41,64,0
561.4431,561.54803,45,59,0
561.54803,561.6509,48,59,0
561.6509,561.7539,53,59,0
561.7539,561.8554,41,63,0
561.8554,561.9566,45,58,0
561.9566,562.0601,48,58,0
562.0601,562.16235,53,58,0
562.16235,562.2653,41,63,0
562.2653,562.37024,45,57,0
562.37024,562.4771,48,58,0
562.4771,562.5859,53,58,0
562.5859,562.6867,41,63,0
562.6867,562.78894,45,58,0
562.78894,562.8891,48,59,0
562.8891,562.98944,53,59,0
562.98944,563.09326,41,63,0
563.09326,563.1932,45,57,0
563.1932,563.29504,48,57,0
563.29504,563.396,53,57,0
563.396,563.4992,41,63,0
563.4992,563.60406,46,57,0
563.60406,563.7107,48,57,0
563.7107,563.81836,55,57,0
563.81836,563.92096,41,63,0
563.92096,564.0236,45,57,0
564.0236,564.1263,48,57,0
564.1263,564.2289,53,57,0
564.2289,564.33154,41,63,0
564.33154,564.43414,45,57,0
564.43414,564.5368,48,57,0
564.5368,564.6394,53,57,0
564.6394,564.7423,41,63,0
564.7423,564.84705,45,57,0
564.84705,564.9538,48,58,0
564.9538,565.06244,53,58,0
565.06244,565.1638,41,63,0
565.1638,565.2663,45,58,0
565.2663,565.36633,48,59,0
565.36633,565.4668,53,59,0
565.4668,565.57025,41,63,0
565.57025,565.6706,45,57,0
565.6706,565.7723,48,57,0
565.7723,565.87317,53,57,0
565.87317,565.97626,41,63,0
565.97626,566.081,46,57,0
566.081,566.1875,48,57,0
566.1875,566.2955,55,57,0
566.2955,566.403,60,63,0
566.2955,566.403,65,63,0
566.2955,566.403,53,63,0
566.2955,566.403,57,63,0
566.7266,567.3381,45,58,0
566.7266,567.3381,57,69,0
567.3381,567.5423,49,63,0
567.3381,567.5423,61,63,0
567.5423,567.6495,50,63,0
567.5423,567.6495,62,63,0
567.9707,568.58215,53,60,0
567.9707,568.58215,65,71,0
568.58215,568.7861,57,63,0
568.7861,568.83777,58,56,0
568.83777,568.88947,60,52,0
568.88947,568.9411,58,56,0
568.9411,568.9928,60,52,0
568.9928,569.0273,58,56,0
569.0273,569.0617,60,52,0
569.0617,569.0962,58,52,0
569.0962,569.1479,57,56,0
569.1479,569.1995,55,52,0
569.1995,569.3121,60,63,0
569.64923,569.767,48,56,0
569.64923,569.767,60,67,0
570.12054,570.2422,65,72,0
570.12054,570.2422,53,60,0
570.6072,570.7288,41,58,0
570.6072,570.7288,53,69,0
