start_time,end_time,note_value,velocity,instrument_program_number
0.0,1.607286,70,50,0
1.607286,2.0091076,74,50,0
2.0091076,2.13674,75,46,0
2.13674,2.2643726,74,41,0
2.2643726,2.392005,72,42,0
2.392005,2.7889354,74,50,0
2.7889354,3.220961,75,50,0
3.220961,4.4264255,76,55,0
4.4264255,4.860516,77,49,0
4.860516,5.2623377,72,42,0
6.490915,6.8978047,75,50,0
6.8978047,7.033435,77,46,0
7.033435,7.161067,75,42,0
7.161067,7.2886996,74,44,0
7.2886996,7.6955895,75,50,0
7.6955895,8.10248,77,50,0
8.10248,8.50937,79,52,0
8.50937,8.635505,81,49,0
8.635505,8.76164,79,49,0
8.76164,8.887775,77,49,0
8.887775,9.294665,79,57,0
9.294665,9.705177,81,59,0
9.715887,10.915065,81,68,0
10.915065,11.339213,82,54,0
11.339213,11.746103,77,54,0
12.988271,14.198051,79,59,0
14.198051,14.401496,80,50,0
14.401496,14.604941,79,50,0
14.604941,15.022304,77,55,0
15.022304,15.4291935,75,52,0
15.4291935,15.836083,74,48,0
15.836083,16.266315,72,48,0
16.266315,16.678799,76,58,0
16.678799,17.503769,77,51,0
17.503769,17.69749,79,55,0
17.69749,17.891214,77,52,0
17.891214,18.308577,75,54,0
18.308577,18.626122,74,55,0
18.705507,19.035133,72,56,0
19.117538,19.474363,70,59,0
19.56357,19.965015,77,66,0
19.965015,20.783936,75,54,0
20.783936,21.218027,72,51,0
21.218027,21.630058,75,65,0
21.630058,22.45412,74,54,0
22.45412,22.888212,70,54,0
22.888212,24.124306,74,59,0
24.124306,24.330322,75,43,0
24.330322,24.536337,74,43,0
24.536337,24.970428,72,50,0
24.970428,25.38246,77,53,0
25.38246,25.79449,75,49,0
25.79449,26.206522,72,47,0
26.206522,26.618555,70,50,0
26.618555,26.749256,72,43,0
26.749256,26.879957,70,38,0
26.879957,27.01066,69,38,0
27.01066,27.41755,70,45,0
27.41755,27.82444,72,50,0
27.82444,28.231329,73,50,0
28.231329,28.36048,75,44,0
28.36048,28.489628,73,40,0
28.489628,28.618776,72,41,0
28.618776,29.025665,73,50,0
29.025665,29.471697,75,50,0
29.471697,30.686619,76,55,0
30.686619,31.115005,77,49,0
31.115005,31.527039,72,49,0
32.75934,33.171368,75,55,0
33.171368,33.300518,77,49,0
33.300518,33.429665,75,44,0
33.429665,33.558815,74,44,0
33.558815,33.970848,75,59,0
33.970848,34.382877,77,53,0
34.382877,34.79491,78,56,0
34.79491,34.924057,80,55,0
34.924057,35.053207,78,56,0
35.053207,35.182358,77,56,0
35.182358,35.589245,78,63,0
35.589245,36.017635,80,61,0
36.017635,37.24737,81,68,0
37.24737,37.68146,82,64,0
37.68146,38.088352,77,59,0
39.105576,39.330364,76,69,0
39.330364,41.364815,85,94,0
41.364815,41.565536,84,60,0
41.565536,41.76626,82,55,0
41.76626,41.96698,80,57,0
41.96698,42.1677,79,51,0
42.1677,42.368427,77,54,0
42.368427,42.59663,76,50,0
42.59663,43.41041,79,57,0
43.41041,44.60959,77,62,0
44.60959,45.40188,75,55,0
45.40188,45.820114,73,56,0
45.820114,46.232143,72,50,0
46.232143,46.362846,73,43,0
46.362846,46.49355,72,44,0
46.49355,46.62425,70,44,0
46.62425,47.03114,72,45,0
47.03114,47.43803,73,50,0
47.43803,48.232365,65,50,0
48.232365,48.639256,68,50,0
48.639256,49.085285,67,46,0
48.232365,49.085285,64,38,0
49.085285,50.728596,65,53,0
52.37293,53.186405,70,45,0
54.016235,54.42827,67,45,0
54.824413,55.220554,64,42,0
55.66057,56.273323,72,53,0
56.273323,56.474045,69,49,0
56.474045,56.87549,72,53,0
58.948208,59.761684,70,45,0
60.59152,61.003548,67,45,0
61.399693,61.795837,64,42,0
62.235847,62.848602,72,53,0
62.848602,63.049324,69,50,0
63.049324,63.45077,72,53,0
63.879158,64.29119,81,70,0
63.879158,64.29119,77,59,0
64.29119,64.68733,76,54,0
64.29119,64.68733,79,64,0
64.68733,65.04386,77,57,0
64.68733,65.04386,74,48,0
65.08348,65.45471,76,57,0
65.08348,65.45471,73,48,0
65.495964,65.9142,74,59,0
65.495964,65.9142,77,70,0
65.9142,66.31564,76,64,0
65.9142,66.31564,72,54,0
66.31564,66.67694,74,59,0
66.31564,66.67694,70,50,0
66.71709,67.0935,69,50,0
66.71709,67.0935,73,59,0
67.13532,67.55356,74,70,0
67.13532,67.55356,70,59,0
67.55356,67.96045,72,63,0
67.55356,67.96045,69,53,0
67.96045,68.326645,70,59,0
67.96045,68.326645,67,50,0
68.36734,68.733536,66,49,0
68.36734,68.733536,69,58,0
68.77423,70.40179,69,58,0
68.77423,70.40179,66,58,0
70.40179,70.80868,67,41,0
68.77423,70.80868,62,49,0
70.40179,71.01212,70,49,0
71.01212,71.06298,72,45,0
71.06298,71.113846,70,45,0
71.113846,71.1647,69,45,0
71.1647,71.21557,70,45,0
71.21557,71.62246,72,50,0
71.62246,72.02935,74,48,0
72.02935,72.289085,72,49,0
72.289085,72.55409,70,45,0
72.55409,72.82436,69,45,0
72.82436,73.087524,67,48,0
73.087524,73.35609,70,45,0
73.35609,73.63006,74,45,0
73.63006,74.44087,65,50,0
74.44087,75.268814,67,45,0
74.44087,75.268814,64,38,0
75.268814,75.88156,67,48,0
75.88156,76.08229,68,35,0
75.268814,76.08229,64,40,0
76.08229,76.91212,65,38,0
76.08229,76.91212,69,44,0
78.55645,79.36993,70,45,0
80.19976,80.61179,67,45,0
81.007935,81.40408,64,42,0
81.84409,82.45685,72,53,0
82.45685,82.65757,69,49,0
82.65757,83.05901,72,53,0
85.13173,85.945206,70,45,0
86.77504,87.18707,67,45,0
87.58321,87.97936,64,42,0
88.41937,89.03213,72,53,0
89.03213,89.23285,77,50,0
89.23285,89.63429,72,53,0
90.06268,90.47472,77,59,0
90.06268,90.47472,81,70,0
90.47472,90.87086,79,64,0
90.47472,90.87086,76,54,0
90.87086,91.22739,77,57,0
90.87086,91.22739,74,48,0
91.267,91.63824,76,57,0
91.267,91.63824,73,48,0
91.67949,92.097725,77,70,0
91.67949,92.097725,74,59,0
92.097725,92.49917,76,64,0
92.097725,92.49917,72,54,0
92.49917,92.860466,74,59,0
92.49917,92.860466,70,50,0
92.90061,93.27702,69,50,0
92.90061,93.27702,73,59,0
93.31885,93.73708,74,70,0
93.31885,93.73708,70,59,0
93.73708,94.143974,69,53,0
93.73708,94.143974,72,63,0
94.143974,94.51017,67,50,0
94.143974,94.51017,70,59,0
94.55086,94.958565,69,58,0
94.55086,94.958565,66,49,0
95.00564,96.633194,66,58,0
95.00564,96.633194,69,58,0
96.633194,97.040085,67,41,0
95.00564,97.040085,62,49,0
96.633194,97.24353,70,49,0
97.24353,97.294395,72,45,0
97.294395,97.34525,70,45,0
97.34525,97.39612,69,45,0
97.39612,97.446976,70,45,0
97.446976,97.85387,72,50,0
97.85387,98.26076,74,48,0
98.26076,98.52839,72,49,0
98.52839,98.79601,77,45,0
98.79601,99.063644,69,42,0
99.063644,99.33491,67,48,0
99.33491,99.60616,70,45,0
99.60616,99.90218,74,43,0
99.90218,100.715965,65,50,0
100.715965,101.47889,64,45,0
101.47889,101.52975,69,56,0
101.52975,102.66408,81,73,0
102.66408,102.767204,77,49,0
102.767204,102.84643,77,53,0
102.84643,102.92566,79,50,0
102.92566,103.00489,77,54,0
103.00489,103.084114,76,52,0
103.084114,103.163345,77,54,0
103.163345,103.26791,70,60,0
103.21562,104.31349,82,74,0
104.31349,104.41805,79,56,0
104.41805,104.49625,79,56,0
104.49625,104.57444,81,52,0
104.57444,104.65264,79,56,0
104.65264,104.730835,78,54,0
104.730835,104.80903,79,56,0
104.80903,105.414505,84,74,0
105.414505,105.62363,81,61,0
105.62363,106.85049,77,69,0
106.85049,107.26297,75,62,0
107.26297,107.67545,74,67,0
107.67545,108.087944,73,62,0
108.087944,108.512085,74,69,0
108.512085,108.61381,76,62,0
108.71553,108.81725,78,63,0
108.918976,109.0207,79,64,0
109.12242,109.224144,81,65,0
109.32587,109.425865,82,66,0
109.52587,109.74282,85,67,0
109.72587,109.82759,86,68,0
109.92931,110.14971,84,66,0
110.13276,110.23448,82,65,0
110.336205,110.5566,81,64,0
110.53965,110.64137,79,63,0
110.743095,110.96349,77,62,0
110.94654,111.04826,76,61,0
111.14999,111.364265,74,60,0
111.364265,112.17508,72,60,0
112.17508,113.256165,84,64,0
113.256165,113.52643,81,55,0
113.52643,113.7967,77,51,0
113.7967,113.999405,72,58,0
113.999405,114.20211,69,51,0
114.20211,114.40481,77,56,0
114.506165,114.6112,65,44,0
114.6112,114.70137,67,44,0
114.70137,114.78859,69,41,0
114.78859,114.877235,67,44,0
114.87552,114.96319,69,39,0
114.96319,115.048035,67,44,0
115.048035,115.13426,69,39,0
115.13426,115.21798,67,44,0
115.21798,115.30281,69,39,0
115.301155,115.38509,67,44,0
115.38509,115.46633,69,39,0
115.46633,115.54703,67,44,0
115.54703,115.626144,69,38,0
115.626144,115.70668,67,44,0
115.70512,115.784805,69,38,0
115.784805,115.86293,67,44,0
115.86293,115.942444,69,38,0
115.942444,116.01961,67,43,0
116.01961,116.098305,69,38,0
116.09676,116.17547,67,43,0
116.17547,116.25263,69,36,0
116.25263,116.33134,67,42,0
116.33134,116.40849,69,36,0
116.40849,116.4872,67,42,0
116.48566,116.56329,69,36,0
116.54893,116.63615,67,42,0
116.63615,116.72438,69,36,0
116.72438,116.812614,67,42,0
116.812614,116.90034,69,37,0
116.90034,116.98755,67,42,0
116.98755,117.07579,69,36,0
117.07579,117.168144,67,42,0
117.168144,117.26715,69,37,0
117.26715,117.40544,67,38,0
117.40544,117.553085,65,48,0
117.553085,117.698135,67,42,0
117.698135,118.51192,65,53,0
118.817085,118.919464,77,49,0
118.919464,118.99933,77,50,0
118.99933,119.077614,79,48,0
119.077614,119.1543,77,51,0
119.1543,119.22965,76,50,0
119.22965,119.3049,77,54,0
119.3049,119.71179,84,63,0
119.71179,120.11868,82,58,0
120.11868,120.52557,81,53,0
120.52557,120.932465,79,53,0
120.932465,121.339355,79,62,0
121.339355,121.74625,77,51,0
122.051414,122.153786,77,49,0
122.153786,122.23366,77,50,0
122.23366,122.31194,79,48,0
122.31194,122.38862,77,51,0
122.38862,122.463974,76,51,0
122.463974,122.53923,77,54,0
122.53923,122.94612,84,63,0
122.94612,123.35301,82,58,0
123.35301,123.7599,81,53,0
123.7599,124.166084,79,53,0
124.166084,124.56892,79,56,0
124.56892,124.97793,77,50,0
124.97793,125.40816,77,53,0
125.84284,126.27158,77,53,0
126.71622,127.18951,77,62,0
127.742546,129.7185,77,65,0
129.7185,129.95494,76,55,0
129.93675,130.17319,77,53,0
130.155,130.39143,79,56,0
130.37325,130.5824,77,51,0
130.59149,130.82124,77,55,0
130.80356,131.03331,75,49,0
131.01564,131.26343,74,50,0
131.24318,131.48616,72,47,0
131.48616,131.88799,70,50,0
131.88799,132.02193,72,46,0
132.02193,132.15587,70,46,0
132.15587,132.28981,69,46,0
132.28981,132.69164,70,50,0
132.69164,133.09344,72,50,0
133.09344,133.49527,74,50,0
133.49527,133.62291,75,46,0
133.62291,133.75053,74,46,0
133.75053,133.87817,72,46,0
133.87817,134.2751,74,50,0
134.2751,134.70712,75,50,0
134.70712,135.9126,76,55,0
135.9126,136.34668,77,49,0
136.34668,136.7485,72,49,0
137.97708,138.38397,75,50,0
138.38397,138.5196,77,46,0
138.5196,138.64723,75,44,0
138.64723,138.77487,74,43,0
138.77487,139.18176,75,50,0
139.18176,139.58864,77,50,0
139.58864,139.99553,79,52,0
139.99553,140.12167,81,49,0
140.12167,140.2478,79,46,0
140.2478,140.37395,77,44,0
140.37395,140.78084,79,57,0
140.78084,141.1842,81,59,0
141.20206,142.40123,81,68,0
142.40123,142.82538,82,54,0
142.82538,143.23227,77,52,0
144.47444,144.88133,78,56,0
144.88133,145.68422,79,59,0
145.68422,145.88766,80,50,0
145.88766,146.09111,79,50,0
146.09111,146.50847,77,55,0
146.50847,146.83398,75,52,0
146.91536,147.24088,74,53,0
147.32225,147.66643,72,53,0
147.75249,148.16496,79,59,0
148.16496,148.98993,77,54,0
148.98993,149.18365,79,55,0
149.18365,149.36124,77,52,0
149.37738,149.58606,77,54,0
149.58606,149.77736,75,51,0
149.79474,149.99321,75,55,0
149.99321,150.17514,74,50,0
150.19168,150.39769,74,56,0
150.39769,150.58653,72,53,0
150.6037,150.81204,72,59,0
150.81204,151.003,70,59,0
151.02037,151.12073,77,58,0
151.2211,151.32146,76,56,0
151.42181,152.24074,75,59,0
152.24074,152.64615,72,51,0
152.64615,152.74915,75,58,0
152.85216,152.95517,73,55,0
153.05818,153.88223,74,58,0
153.88223,154.31633,70,54,0
154.31633,155.55243,74,59,0
155.55243,155.75844,75,43,0
155.75844,155.96446,74,43,0
155.96446,156.1815,72,50,0
156.25385,156.46832,77,45,0
156.53809,156.74742,75,42,0
156.81718,157.02948,75,50,0
157.02948,157.24176,74,43,0
157.24176,157.45404,75,40,0
157.45404,157.68967,72,41,0
157.68967,158.10255,70,50,0
158.10255,158.23325,72,43,0
158.23325,158.36395,70,44,0
158.36395,158.49466,69,41,0
158.49466,158.90155,70,45,0
158.90155,159.30844,72,50,0
159.30844,159.71533,73,53,0
159.71533,159.84447,75,44,0
159.84447,159.97362,73,44,0
159.97362,160.10277,72,41,0
160.10277,160.50966,73,51,0
160.50966,160.95569,75,52,0
160.95569,162.17061,76,61,0
162.17061,162.599,77,56,0
162.599,163.01103,72,56,0
164.24333,165.16058,63,73,0
165.16231,165.2796,65,45,0
165.2796,165.3975,63,46,0
165.39581,165.51237,62,47,0
165.51237,165.62595,63,47,0
165.62595,165.74016,64,48,0
165.73851,165.85333,65,49,0
165.85333,165.95073,66,49,0
165.95073,166.0472,67,51,0
166.0472,166.14305,68,52,0
166.14305,166.23798,69,53,0
166.23798,166.33484,70,55,0
166.33484,166.4317,71,56,0
166.4317,166.52856,72,57,0
166.52856,166.62543,73,58,0
166.62543,166.72716,74,60,0
166.72716,166.82887,75,61,0
166.82887,166.9306,76,62,0
166.9306,167.03232,77,64,0
167.03232,167.13942,78,65,0
167.13942,167.2465,79,66,0
167.2465,167.3536,80,67,0
167.3536,167.46071,81,69,0
167.46071,167.8676,81,73,0
167.8676,168.00322,82,63,0
168.00322,168.13885,81,61,0
168.13885,168.27449,79,61,0
168.27449,168.69044,81,60,0
168.69044,169.12453,82,64,0
169.12453,169.53142,77,59,0
170.54865,170.77344,76,69,0
170.77344,172.80789,85,93,0
172.80789,173.0086,84,60,0
173.0086,173.20934,82,58,0
173.20934,173.41005,80,57,0
173.41005,173.61078,79,56,0
173.61078,173.8115,77,54,0
173.8115,174.0397,76,50,0
174.0397,174.85349,79,57,0
174.85349,176.05266,77,62,0
176.05266,176.4488,76,53,0
176.4488,176.7129,75,55,0
176.7129,176.98436,74,52,0
176.98436,177.26318,73,52,0
177.26318,177.67522,72,50,0
177.67522,177.80592,73,43,0
177.80592,177.93661,72,44,0
177.93661,178.06732,70,44,0
178.06732,178.47421,72,45,0
178.47421,178.8811,73,50,0
178.8811,179.73138,65,50,0
179.73138,180.15596,68,50,0
180.15596,180.65051,67,50,0
179.73138,180.65051,64,44,0
180.65051,181.05911,65,53,0
183.93816,184.75163,75,45,0
185.58147,185.9935,72,45,0
186.38963,186.78578,69,42,0
187.24268,187.85544,77,53,0
187.85544,188.05615,74,49,0
188.05615,188.45761,77,53,0
190.53032,190.94235,77,49,0
190.94235,191.3438,75,45,0
192.17363,192.58566,74,45,0
192.58566,192.78374,72,41,0
192.98181,193.37794,70,42,0
193.37794,193.59796,69,39,0
193.81796,194.43073,77,53,0
194.43073,194.63144,74,50,0
194.63144,195.03288,77,53,0
195.46127,195.8733,82,59,0
195.46127,195.8733,86,70,0
195.8733,196.26945,84,64,0
195.8733,196.26945,81,54,0
196.26945,196.62598,79,48,0
196.26945,196.62598,82,57,0
196.66559,197.03683,81,57,0
196.66559,197.03683,78,48,0
197.07808,197.4963,79,59,0
197.07808,197.4963,82,70,0
197.4963,197.89775,77,54,0
197.4963,197.89775,81,64,0
197.89775,198.25906,75,50,0
197.89775,198.25906,79,59,0
198.29921,198.67561,78,59,0
198.29921,198.67561,74,50,0
198.71744,199.13567,79,70,0
198.71744,199.13567,75,59,0
199.13567,199.54256,77,63,0
199.13567,199.54256,74,53,0
199.54256,199.90877,72,50,0
199.54256,199.90877,75,59,0
199.94945,200.35243,74,58,0
199.94945,200.35243,71,49,0
200.39722,202.01883,71,49,0
200.39722,202.01883,74,67,0
202.01883,202.42424,72,41,0
200.39722,202.42424,67,49,0
202.01883,202.62694,75,49,0
202.62694,202.6945,79,45,0
202.6945,202.76208,77,45,0
202.76208,202.82965,75,45,0
202.82965,203.23505,77,50,0
203.23505,203.64046,79,48,0
203.64046,203.84315,79,49,0
203.84315,204.04587,77,45,0
204.04587,204.24857,75,45,0
204.24857,204.45126,74,45,0
204.45126,204.65398,71,49,0
204.65398,204.85667,72,42,0
204.85667,205.05937,75,42,0
205.05937,205.28326,79,42,0
205.28326,206.1404,70,50,0
206.1404,206.95122,69,38,0
206.1404,206.95122,72,45,0
206.95122,207.56396,72,48,0
207.56396,207.7647,73,35,0
206.95122,207.7647,69,38,0
207.7647,208.59451,70,38,0
207.7647,208.59451,74,44,0
210.23885,210.65088,77,45,0
210.65088,211.05232,75,45,0
211.88216,212.29419,74,45,0
212.29419,212.69034,72,43,0
212.69034,213.08649,70,42,0
213.08649,213.52649,69,40,0
213.52649,214.13925,77,53,0
214.13925,214.33997,74,49,0
214.33997,214.74141,77,53,0
216.81413,216.91714,77,50,0
217.02014,217.12315,76,48,0
217.22617,217.62761,75,45,0
218.41367,218.51108,74,49,0
218.60847,218.80328,74,43,0
218.80328,219.00136,75,45,0
219.00136,219.19942,72,40,0
219.19942,219.29846,70,47,0
219.39749,219.59557,70,41,0
219.59557,219.81557,72,46,0
219.81557,220.0406,69,40,0
220.0406,220.24661,77,53,0
220.24661,220.31528,79,47,0
220.31528,220.38396,77,47,0
220.38396,220.45262,76,46,0
220.45262,220.65335,77,53,0
220.65335,220.85408,82,50,0
220.85408,221.25552,77,53,0
221.88992,222.294,86,59,0
221.88992,222.294,82,50,0
222.294,222.69016,81,45,0
222.294,222.69016,84,54,0
222.69016,223.09447,82,48,0
222.69016,223.09447,79,40,0
223.09447,223.50983,78,40,0
223.09447,223.50983,81,48,0
223.50983,223.91966,79,50,0
223.50983,223.91966,82,59,0
223.91966,224.3211,81,54,0
223.91966,224.3211,77,45,0
224.3211,224.73096,75,42,0
224.3211,224.73096,79,50,0
224.73096,225.14919,74,42,0
224.73096,225.14919,78,50,0
225.14919,225.56175,79,59,0
225.14919,225.56175,75,50,0
225.56175,225.96864,77,53,0
225.56175,225.96864,74,45,0
225.96864,226.39055,72,42,0
225.96864,226.39055,75,50,0
226.39055,226.61723,74,49,0
226.39055,226.61723,71,41,0
226.63783,228.2654,71,49,0
226.63783,228.2654,74,58,0
228.2654,228.67229,72,41,0
226.63783,228.67229,67,49,0
228.2654,228.87573,75,49,0
228.87573,228.94354,79,45,0
228.94354,229.01135,77,41,0
229.01135,229.07918,75,41,0
229.07918,229.48607,77,50,0
229.48607,229.91121,79,48,0
229.91121,230.1791,77,49,0
230.1791,230.44696,82,45,0
230.44696,230.71484,74,45,0
230.71484,230.98611,72,48,0
230.98611,231.25737,75,45,0
231.25737,231.55339,79,45,0
231.55339,232.36717,70,50,0
232.36717,233.15213,69,45,0
233.15213,233.20445,62,56,0
233.20445,234.32446,74,73,0
234.32446,234.42628,70,49,0
234.42628,234.50551,70,53,0
234.50551,234.58475,72,50,0
234.58475,234.66397,70,54,0
234.66397,234.7432,69,51,0
234.7432,234.82243,70,54,0
234.82243,234.92699,63,60,0
234.87471,235.97258,75,74,0
235.97258,236.07713,72,53,0
236.07713,236.15533,72,56,0
236.15533,236.23352,74,54,0
236.23352,236.31172,72,56,0
236.31172,236.38992,71,53,0
236.38992,236.46811,72,56,0
236.46811,237.0736,77,74,0
237.0736,237.28271,74,61,0
237.28271,238.50957,82,69,0
238.50957,238.92206,80,62,0
238.92206,239.33453,79,67,0
239.33453,239.95909,78,62,0
239.95909,240.17117,79,69,0
240.17117,240.37462,82,62,0
240.37462,240.57806,79,63,0
240.57806,240.78151,74,64,0
240.78151,240.98495,75,60,0
240.98495,241.1958,79,60,0
241.1958,241.431,75,60,0
241.41405,241.6175,71,68,0
241.6175,241.83789,72,60,0
241.82094,242.02438,75,60,0
242.02438,242.24478,74,60,0
242.22783,242.43127,77,63,0
242.43127,242.65167,75,62,0
242.63472,242.83817,74,60,0
242.83817,242.93988,72,58,0
242.93988,243.0416,65,46,0
243.0416,243.44849,77,60,0
243.44849,244.26227,77,60,0
244.26227,244.8726,77,64,0
244.8726,245.07605,75,60,0
245.07605,245.2795,74,60,0
245.2795,245.48294,75,60,0
245.48294,245.68639,77,60,0
245.68639,245.88983,79,61,0
245.88983,246.09328,81,62,0
246.09328,246.20357,82,63,0
246.20357,246.26958,70,44,0
246.26958,246.306,72,44,0
246.306,246.3424,74,44,0
246.3424,246.43437,72,44,0
246.43437,246.52228,74,41,0
246.52228,246.61093,72,44,0
246.6092,246.6961,74,39,0
246.6961,246.77931,72,44,0
246.77931,246.86327,74,39,0
246.86327,246.944,72,44,0
246.944,247.02504,74,39,0
247.02345,247.10449,72,44,0
247.10449,247.18272,74,39,0
247.18272,247.26242,72,44,0
247.26242,247.34055,74,38,0
247.34055,247.42023,72,44,0
247.41867,247.49835,74,38,0
247.49835,247.57594,72,44,0
247.57594,247.65465,74,38,0
247.65465,247.7318,72,43,0
247.7318,247.8105,74,38,0
247.80896,247.88779,72,43,0
247.88779,247.9669,74,36,0
247.9669,248.04759,72,42,0
248.04759,248.12671,74,36,0
248.12671,248.2074,72,42,0
248.20583,248.28531,74,36,0
248.2706,248.35938,72,42,0
248.35938,248.44867,74,40,0
248.44867,248.53821,72,42,0
248.53821,248.6271,74,39,0
248.6271,248.71504,72,42,0
248.71504,248.8085,74,36,0
248.8085,248.90286,72,42,0
248.90286,248.99844,74,37,0
248.99844,249.13579,72,38,0
249.13579,249.28343,70,48,0
249.28343,249.42848,72,42,0
249.42848,250.24226,70,53,0
250.54744,250.64981,70,49,0
250.64981,250.72968,70,50,0
250.72968,250.80797,72,51,0
250.80797,250.88464,70,51,0
250.88464,250.95999,69,54,0
250.95999,251.03525,70,54,0
251.03525,251.44214,77,63,0
251.44214,251.84903,75,58,0
251.84903,252.25592,74,53,0
252.25592,252.64586,72,53,0
252.66281,253.0697,72,62,0
253.0697,253.4766,70,51,0
253.78175,253.88414,70,49,0
253.88414,253.964,70,50,0
253.964,254.0423,72,51,0
254.0423,254.11897,70,51,0
254.11897,254.19432,69,54,0
254.19432,254.26958,70,54,0
254.26958,254.67647,77,63,0
254.67647,255.08336,75,58,0
255.08336,255.49025,74,53,0
255.49025,255.89644,72,53,0
255.89644,256.29926,70,59,0
256.70828,257.335,75,48,0
257.335,257.54706,69,50,0
257.54706,257.97055,70,56,0
258.41202,259.13123,79,64,0
259.13123,259.4721,69,45,0
259.4721,261.54108,63,36,0
259.4721,261.54108,69,45,0
259.4721,261.54108,60,36,0
261.54108,263.38272,70,31,0
261.54108,263.38272,62,24,0
259.4721,263.38272,65,36,0
0.0,0.4018215,58,36,0
0.4018215,0.803643,65,27,0
0.803643,1.2054645,62,27,0
1.2054645,1.607286,65,27,0
1.607286,2.0091076,58,36,0
2.0091076,2.392005,65,28,0
2.392005,2.7889354,62,28,0
2.7889354,3.220961,65,28,0
3.220961,3.6227825,57,36,0
3.6227825,4.024604,65,25,0
4.024604,4.4264255,60,27,0
4.4264255,4.860516,65,24,0
4.860516,5.2623377,57,30,0
5.2623377,5.664159,65,22,0
5.664159,6.0659804,60,27,0
6.0659804,6.490915,65,23,0
6.490915,6.8978047,55,36,0
6.8978047,7.2886996,63,32,0
7.2886996,7.6955895,58,32,0
7.6955895,8.10248,63,32,0
8.10248,8.50937,51,36,0
8.50937,8.887775,58,33,0
8.887775,9.294665,55,35,0
9.294665,9.715887,58,36,0
9.715887,10.122777,50,41,0
10.122777,10.518921,58,30,0
10.518921,10.915065,53,35,0
10.915065,11.339213,58,28,0
11.339213,11.746103,50,36,0
11.746103,12.152993,58,26,0
12.152993,12.559883,53,31,0
12.559883,12.988271,58,27,0
12.988271,13.395162,51,36,0
13.395162,13.796606,55,27,0
13.796606,14.198051,51,31,0
14.198051,14.604941,59,27,0
14.604941,15.022304,51,34,0
15.022304,15.4291935,60,27,0
15.4291935,15.836083,51,27,0
15.836083,16.266315,63,27,0
16.266315,16.678799,50,36,0
16.678799,17.091284,53,29,0
17.091284,17.503769,50,33,0
17.503769,17.891214,57,33,0
17.891214,18.308577,50,36,0
18.308577,18.705507,58,30,0
18.705507,19.117538,50,31,0
19.117538,19.56357,62,33,0
19.56357,19.965015,53,36,0
19.965015,20.371904,65,30,0
20.371904,20.783936,60,30,0
20.783936,21.218027,65,25,0
21.218027,21.630058,58,36,0
21.630058,22.04209,65,28,0
22.04209,22.45412,62,31,0
22.45412,22.888212,65,30,0
22.888212,23.300243,53,36,0
23.300243,23.712275,62,25,0
23.712275,24.124306,58,25,0
24.124306,24.536337,62,25,0
24.536337,25.38246,57,36,0
24.536337,25.38246,60,36,0
24.536337,25.38246,53,36,0
26.206522,26.618555,58,36,0
26.618555,27.01066,65,31,0
27.01066,27.41755,61,31,0
27.41755,27.82444,65,31,0
27.82444,28.231329,58,36,0
28.231329,28.618776,65,31,0
28.618776,29.025665,61,31,0
29.025665,29.471697,65,31,0
29.471697,29.883728,56,36,0
29.883728,30.285173,65,27,0
30.285173,30.686619,60,29,0
30.686619,31.115005,65,27,0
31.115005,31.527039,56,36,0
31.527039,31.923182,65,27,0
31.923182,32.319324,60,30,0
32.319324,32.75934,65,26,0
32.75934,33.171368,54,36,0
33.171368,33.558815,63,32,0
33.558815,33.970848,58,32,0
33.970848,34.382877,63,32,0
34.382877,34.79491,51,39,0
34.79491,35.182358,58,33,0
35.182358,35.589245,54,36,0
35.589245,36.017635,58,36,0
36.017635,36.424522,50,44,0
36.424522,36.831413,58,35,0
36.831413,37.24737,53,42,0
37.24737,37.68146,58,40,0
37.68146,38.088352,49,46,0
38.088352,38.495243,58,45,0
38.495243,38.90213,53,50,0
38.90213,39.330364,58,45,0
39.330364,39.73725,48,54,0
39.73725,40.144142,58,36,0
40.144142,40.551033,55,36,0
40.551033,40.957924,58,36,0
40.957924,41.364815,48,37,0
41.364815,41.76626,58,24,0
41.76626,42.1677,55,27,0
42.1677,42.59663,58,23,0
42.59663,43.00352,49,34,0
43.00352,43.41041,56,22,0
43.41041,43.817303,53,27,0
43.817303,44.213448,56,23,0
44.213448,44.60959,46,29,0
44.60959,45.005733,55,22,0
45.005733,45.40188,49,23,0
45.40188,45.820114,55,22,0
45.820114,46.232143,48,30,0
46.232143,46.62425,56,26,0
46.62425,47.03114,53,26,0
47.03114,47.43803,56,26,0
47.43803,47.84492,48,30,0
47.84492,48.232365,58,26,0
48.232365,48.639256,55,26,0
48.639256,49.085285,58,26,0
49.085285,49.49732,57,38,0
49.49732,49.69804,60,30,0
49.085285,49.89876,53,27,0
49.89876,50.099487,60,30,0
50.30021,50.5144,60,30,0
50.728596,51.14063,57,38,0
51.14063,51.53677,60,28,0
50.728596,51.53677,53,32,0
51.53677,51.932915,58,28,0
51.932915,52.37293,60,28,0
51.53677,52.37293,55,23,0
52.37293,52.784958,55,35,0
52.784958,52.98568,60,30,0
52.37293,53.186405,52,29,0
53.186405,53.387127,60,30,0
53.58785,53.802044,60,30,0
54.016235,54.42827,52,34,0
54.42827,54.824413,60,31,0
54.016235,54.824413,48,28,0
54.824413,55.220554,58,31,0
55.220554,55.66057,60,31,0
54.824413,55.66057,55,26,0
55.66057,56.072598,57,38,0
56.072598,56.273323,60,30,0
55.66057,56.474045,53,32,0
56.474045,56.674767,60,30,0
56.87549,57.089684,60,30,0
57.30388,57.715908,57,38,0
57.715908,58.112053,60,28,0
57.30388,58.112053,53,32,0
58.112053,58.508198,58,28,0
58.508198,58.948208,60,28,0
58.112053,58.948208,55,23,0
58.948208,59.36024,55,35,0
59.36024,59.560963,60,30,0
58.948208,59.761684,52,29,0
59.761684,59.962406,60,30,0
60.163128,60.377323,60,30,0
60.59152,61.003548,52,34,0
61.003548,61.399693,60,31,0
60.59152,61.399693,48,28,0
61.399693,61.795837,58,31,0
61.795837,62.235847,60,31,0
61.399693,62.235847,55,26,0
62.235847,63.049324,53,32,0
62.235847,63.049324,57,38,0
68.77423,70.40179,57,27,0
68.77423,70.40179,54,27,0
68.77423,70.40179,50,27,0
68.77423,70.40179,60,32,0
70.40179,71.21557,58,42,0
71.21557,72.02935,64,44,0
70.40179,72.02935,55,35,0
72.02935,72.82436,65,48,0
72.02935,72.82436,57,40,0
72.82436,73.63006,62,45,0
72.82436,73.63006,58,38,0
73.63006,74.44087,57,44,0
74.44087,75.268814,58,40,0
73.63006,75.268814,48,37,0
75.268814,75.68084,57,38,0
75.68084,75.88156,60,30,0
75.268814,76.08229,53,32,0
76.08229,76.28301,60,30,0
76.483734,76.69793,60,30,0
76.91212,77.32415,57,33,0
77.32415,77.7203,60,27,0
76.91212,77.7203,53,28,0
77.7203,78.11644,58,27,0
78.11644,78.55645,60,27,0
77.7203,78.55645,55,22,0
78.55645,78.96848,55,35,0
78.96848,79.169205,60,30,0
78.55645,79.36993,52,29,0
79.36993,79.57065,60,30,0
79.77137,79.985565,60,30,0
80.19976,80.61179,52,34,0
80.61179,81.007935,60,31,0
80.19976,81.007935,48,28,0
81.007935,81.40408,58,31,0
81.40408,81.84409,60,31,0
81.007935,81.84409,55,26,0
81.84409,82.25613,57,38,0
82.25613,82.45685,60,30,0
81.84409,82.65757,53,32,0
82.65757,82.85829,60,30,0
83.05901,83.27321,60,30,0
83.487404,83.89943,57,38,0
83.89943,84.29558,60,28,0
83.487404,84.29558,53,32,0
84.29558,84.69172,58,28,0
84.69172,85.13173,60,28,0
84.29558,85.13173,55,23,0
85.13173,85.54376,55,35,0
85.54376,85.744484,60,30,0
85.13173,85.945206,52,29,0
85.945206,86.145935,60,30,0
86.34666,86.560844,60,30,0
86.77504,87.18707,52,34,0
87.18707,87.58321,60,31,0
86.77504,87.58321,48,28,0
87.58321,87.97936,58,31,0
87.97936,88.41937,60,31,0
87.58321,88.41937,55,26,0
88.41937,89.23285,57,38,0
88.41937,89.23285,53,32,0
95.00564,96.633194,50,29,0
95.00564,96.633194,60,34,0
95.00564,96.633194,54,29,0
95.00564,96.633194,57,29,0
96.633194,97.446976,58,42,0
97.446976,98.26076,64,44,0
96.633194,98.26076,55,35,0
98.26076,99.063644,57,40,0
98.26076,99.063644,65,48,0
99.063644,99.90218,58,38,0
99.063644,99.90218,62,45,0
99.90218,100.715965,57,42,0
100.715965,101.52975,55,40,0
99.90218,101.52975,48,33,0
101.94223,102.35471,53,50,0
102.35471,102.767204,57,54,0
102.767204,103.163345,62,50,0
103.58158,103.99982,55,50,0
103.99982,104.41805,58,54,0
104.41805,104.80903,64,50,0
105.20539,105.62363,57,50,0
105.62363,106.041855,60,54,0
106.041855,107.26297,65,45,0
107.26297,108.087944,63,47,0
106.438,108.087944,57,49,0
108.087944,108.918976,58,40,0
108.087944,108.918976,62,40,0
108.087944,108.918976,65,48,0
109.72587,110.53965,58,40,0
109.72587,110.53965,67,48,0
109.72587,110.53965,62,40,0
111.364265,111.76968,48,50,0
111.76968,112.17508,57,43,0
112.17508,112.58048,53,50,0
112.58048,112.98589,57,38,0
112.98589,113.3913,48,43,0
113.3913,113.7967,57,31,0
113.7967,114.20211,53,35,0
114.20211,114.6112,57,33,0
114.6112,115.02767,48,38,0
115.02767,115.42749,58,31,0
115.42749,115.80668,52,33,0
115.80668,116.17856,58,31,0
116.17856,116.54893,48,37,0
116.54893,116.90034,58,32,0
116.90034,117.26715,52,32,0
117.26715,117.698135,58,32,0
118.10503,118.51192,60,35,0
118.51192,118.919464,65,39,0
118.919464,119.3049,63,35,0
119.3049,120.11868,62,37,0
120.11868,120.932465,60,34,0
117.698135,120.932465,53,37,0
120.932465,121.339355,57,35,0
121.339355,121.74625,60,35,0
121.74625,122.153786,65,39,0
122.153786,122.53923,63,35,0
122.53923,123.35301,62,37,0
123.35301,124.166084,58,34,0
120.932465,124.166084,53,37,0
124.166084,124.56892,57,41,0
124.56892,124.97793,58,37,0
124.56892,124.97793,55,37,0
124.97793,125.40816,57,40,0
124.97793,125.40816,60,40,0
125.40816,125.84284,58,37,0
125.40816,125.84284,62,37,0
125.84284,126.27158,60,38,0
125.84284,126.27158,63,38,0
126.27158,126.71622,59,41,0
126.27158,126.71622,62,41,0
126.71622,127.18951,63,44,0
126.71622,127.18951,60,44,0
127.18951,127.742546,62,47,0
127.18951,127.742546,59,47,0
127.742546,129.7185,63,53,0
127.742546,129.7185,60,53,0
124.166084,129.7185,53,41,0
131.48616,131.88799,58,36,0
131.88799,132.28981,65,27,0
132.28981,132.69164,62,27,0
132.69164,133.09344,65,27,0
133.09344,133.49527,58,36,0
133.49527,133.87817,65,28,0
133.87817,134.2751,62,28,0
134.2751,134.70712,65,28,0
134.70712,135.10895,57,36,0
135.10895,135.51077,65,25,0
135.51077,135.9126,60,27,0
135.9126,136.34668,65,24,0
136.34668,136.7485,57,36,0
136.7485,137.15033,65,23,0
137.15033,137.55214,60,29,0
137.55214,137.97708,65,23,0
137.97708,138.38397,55,36,0
138.38397,138.77487,63,32,0
138.77487,139.18176,58,32,0
139.18176,139.58864,63,32,0
139.58864,139.99553,51,36,0
139.99553,140.37395,58,33,0
140.37395,140.78084,55,35,0
140.78084,141.20206,58,36,0
141.20206,141.60895,50,41,0
141.60895,142.00508,58,30,0
142.00508,142.40123,53,35,0
142.40123,142.82538,58,28,0
142.82538,143.23227,50,36,0
143.23227,143.63916,58,25,0
143.63916,144.04605,53,29,0
144.04605,144.47444,58,26,0
144.47444,144.88133,51,36,0
144.88133,145.28278,55,27,0
145.28278,145.68422,51,31,0
145.68422,146.09111,59,27,0
146.09111,146.50847,51,34,0
146.50847,146.91536,60,27,0
146.91536,147.32225,51,27,0
147.32225,147.75249,63,27,0
147.75249,148.16496,50,36,0
148.16496,148.57745,53,31,0
148.57745,148.98993,50,33,0
148.98993,149.37738,57,33,0
149.37738,149.79474,50,36,0
149.79474,150.19168,58,30,0
150.19168,150.6037,50,31,0
150.6037,151.02037,62,33,0
151.02037,151.42181,53,36,0
151.42181,151.8287,65,30,0
151.8287,152.24074,60,30,0
152.24074,152.64615,65,30,0
152.64615,153.05818,58,36,0
153.05818,153.4702,65,30,0
153.4702,153.88223,62,31,0
153.88223,154.31633,65,30,0
154.31633,154.72836,53,36,0
154.72836,155.1404,62,25,0
155.1404,155.55243,58,25,0
155.55243,155.96446,62,25,0
155.96446,156.81718,53,36,0
155.96446,156.81718,57,36,0
155.96446,156.81718,60,36,0
157.68967,158.10255,58,36,0
158.10255,158.49466,65,31,0
158.49466,158.90155,61,35,0
158.90155,159.30844,65,31,0
159.30844,159.71533,58,40,0
159.71533,160.10277,65,36,0
160.10277,160.50966,61,38,0
160.50966,160.95569,65,31,0
160.95569,161.36772,56,46,0
161.36772,161.76917,65,36,0
161.76917,162.17061,60,41,0
162.17061,162.599,65,31,0
162.599,163.01103,56,41,0
163.01103,163.40718,65,31,0
163.40718,163.80333,60,40,0
163.80333,164.24333,65,32,0
164.24333,164.65536,54,36,0
164.65536,165.04282,58,32,0
165.04282,165.45494,54,39,0
165.45494,165.85333,58,38,0
165.85333,166.23798,51,53,0
166.23798,166.62543,58,45,0
166.62543,167.03232,54,57,0
167.03232,167.46071,58,52,0
167.46071,167.8676,50,63,0
167.8676,168.27449,58,54,0
168.27449,168.69044,53,60,0
168.69044,169.12453,58,51,0
169.12453,169.53142,49,63,0
169.53142,169.93831,58,55,0
169.93831,170.3452,53,62,0
170.3452,170.77344,58,57,0
170.77344,171.18033,48,69,0
171.18033,171.58722,58,53,0
171.58722,171.99411,55,62,0
171.99411,172.401,58,48,0
172.401,172.80789,48,44,0
172.80789,173.20934,58,29,0
173.20934,173.61078,55,32,0
173.61078,174.0397,58,28,0
174.0397,174.4466,49,41,0
174.4466,174.85349,56,27,0
174.85349,175.26038,53,32,0
175.26038,175.65652,56,28,0
175.65652,176.05266,46,36,0
176.05266,176.4488,55,27,0
176.4488,176.84496,49,28,0
176.84496,177.26318,55,27,0
177.26318,177.67522,48,36,0
177.67522,178.06732,56,31,0
178.06732,178.47421,53,31,0
178.47421,178.8811,56,31,0
178.8811,179.288,48,36,0
179.288,179.73138,58,31,0
179.73138,180.15596,55,31,0
180.15596,180.65051,58,31,0
180.65051,181.06255,57,38,0
181.06255,181.26328,65,30,0
180.65051,181.46399,53,32,0
181.46399,181.66472,65,30,0
181.86543,182.07964,65,30,0
182.29382,182.70586,62,38,0
182.70586,183.102,65,28,0
182.29382,183.102,58,32,0
183.102,183.49814,63,28,0
183.49814,183.93816,65,28,0
183.102,183.93816,60,23,0
183.93816,184.35019,60,35,0
184.35019,184.5509,65,30,0
183.93816,184.75163,57,29,0
184.75163,184.95235,65,28,0
185.15308,185.36726,65,28,0
185.58147,185.9935,57,34,0
185.9935,186.38963,65,31,0
185.58147,186.38963,53,28,0
186.38963,186.78578,63,27,0
186.78578,187.24268,65,27,0
186.38963,187.24268,60,27,0
187.24268,187.65471,62,38,0
187.65471,187.85544,65,30,0
187.24268,188.05615,58,32,0
188.05615,188.25688,65,29,0
188.45761,188.6718,65,30,0
188.88599,189.29802,62,38,0
189.29802,189.69417,65,28,0
188.88599,189.69417,58,32,0
189.69417,190.09032,63,28,0
190.09032,190.53032,65,28,0
189.69417,190.53032,60,23,0
190.53032,190.94235,60,35,0
190.94235,191.14308,65,30,0
190.53032,191.3438,57,29,0
191.3438,191.54453,65,27,0
191.74524,191.95944,65,27,0
192.17363,192.58566,57,34,0
192.58566,192.98181,65,31,0
192.17363,192.98181,53,28,0
192.98181,193.37794,63,29,0
193.37794,193.81796,65,29,0
192.98181,193.81796,60,29,0
193.81796,194.63144,58,32,0
193.81796,194.63144,62,38,0
195.46127,195.8733,74,56,0
195.46127,195.8733,70,47,0
195.8733,196.26945,72,51,0
195.8733,196.26945,69,43,0
196.26945,196.62598,67,38,0
196.26945,196.62598,70,45,0
196.66559,197.03683,69,45,0
196.66559,197.03683,66,38,0
197.07808,197.4963,70,56,0
197.07808,197.4963,67,47,0
197.4963,197.89775,69,51,0
197.4963,197.89775,65,43,0
197.89775,198.25906,67,47,0
197.89775,198.25906,63,40,0
198.29921,198.67561,62,40,0
198.29921,198.67561,66,47,0
198.71744,199.13567,67,56,0
198.71744,199.13567,63,47,0
199.13567,199.54256,65,50,0
199.13567,199.54256,62,42,0
199.54256,199.90877,63,47,0
199.54256,199.90877,60,40,0
199.94945,200.35243,59,39,0
199.94945,200.35243,62,46,0
200.39722,202.01883,59,33,0
200.39722,202.01883,62,33,0
200.39722,202.01883,65,39,0
200.39722,202.01883,55,30,0
202.01883,202.82965,63,42,0
202.82965,203.64046,69,44,0
202.01883,203.64046,60,35,0
203.64046,204.45126,62,33,0
203.64046,204.45126,70,44,0
204.45126,205.28326,67,43,0
204.45126,205.28326,63,35,0
205.28326,206.1404,62,44,0
206.1404,206.95122,63,36,0
205.28326,206.95122,53,37,0
206.95122,207.36324,62,38,0
207.36324,207.56396,65,30,0
206.95122,207.7647,58,30,0
207.7647,207.96541,65,30,0
208.16614,208.38033,65,30,0
208.59451,209.00655,62,33,0
209.00655,209.4027,65,27,0
208.59451,209.4027,58,28,0
209.4027,209.79884,63,27,0
209.79884,210.23885,65,27,0
209.4027,210.23885,60,22,0
210.23885,210.65088,60,33,0
210.65088,210.85161,65,26,0
210.23885,211.05232,57,33,0
211.05232,211.25305,65,30,0
211.45377,211.66797,65,26,0
211.88216,212.29419,57,34,0
212.29419,212.69034,65,31,0
211.88216,212.69034,53,28,0
212.69034,213.08649,63,31,0
213.08649,213.52649,65,31,0
212.69034,213.52649,60,26,0
213.52649,213.93852,62,38,0
213.93852,214.13925,65,30,0
213.52649,214.33997,58,32,0
214.33997,214.5407,65,30,0
214.74141,214.95561,65,30,0
215.1698,215.58183,62,38,0
215.58183,215.97798,65,28,0
215.1698,215.97798,58,32,0
215.97798,216.37411,63,28,0
216.37411,216.81413,65,28,0
215.97798,216.81413,60,23,0
216.81413,217.22617,60,35,0
217.22617,217.42688,65,28,0
216.81413,217.62761,57,29,0
217.62761,217.82834,65,30,0
218.02905,218.22136,65,26,0
218.41367,218.80328,57,34,0
218.80328,219.19942,65,25,0
218.41367,219.19942,53,28,0
219.19942,219.59557,63,31,0
219.59557,220.0406,65,26,0
219.19942,220.0406,60,26,0
220.0406,220.85408,58,32,0
220.0406,220.85408,62,38,0
221.6839,222.09593,70,47,0
221.6839,222.09593,74,56,0
222.09593,222.49208,69,43,0
222.09593,222.49208,72,51,0
222.49208,222.88823,70,45,0
222.49208,222.88823,67,38,0
222.88823,223.3007,66,38,0
222.88823,223.3007,69,45,0
223.3007,223.71895,70,56,0
223.3007,223.71895,67,47,0
223.71895,224.12039,69,51,0
223.71895,224.12039,65,43,0
224.12039,224.52184,67,47,0
224.12039,224.52184,63,40,0
224.52184,224.94006,62,40,0
224.52184,224.94006,66,47,0
224.94006,225.3583,67,56,0
224.94006,225.3583,63,47,0
225.3583,225.7652,62,42,0
225.3583,225.7652,65,50,0
225.7652,226.17209,63,47,0
225.7652,226.17209,60,40,0
226.17209,226.61723,59,39,0
226.17209,226.61723,62,46,0
226.63783,228.2654,55,33,0
226.63783,228.2654,65,46,0
226.63783,228.2654,59,35,0
226.63783,228.2654,62,36,0
228.2654,229.07918,63,42,0
229.07918,229.91121,69,44,0
228.2654,229.91121,60,35,0
229.91121,230.71484,62,40,0
229.91121,230.71484,70,48,0
230.71484,231.55339,67,45,0
230.71484,231.55339,63,38,0
231.55339,232.36717,62,44,0
232.36717,233.20445,60,40,0
231.55339,233.20445,53,37,0
233.61172,234.01901,46,50,0
234.01901,234.42628,50,54,0
234.42628,234.82243,55,50,0
235.24066,235.6589,48,50,0
235.6589,236.07713,51,54,0
236.07713,236.46811,57,50,0
236.86447,237.28271,50,50,0
237.28271,237.70094,53,54,0
237.70094,238.92206,58,45,0
238.92206,239.74702,56,47,0
238.09709,239.74702,50,49,0
239.74702,240.57806,58,48,0
239.74702,240.57806,51,40,0
239.74702,240.57806,55,40,0
241.41405,242.22783,60,48,0
241.41405,242.22783,55,40,0
241.41405,242.22783,51,40,0
243.0416,243.44849,53,50,0
243.44849,243.85538,62,43,0
243.85538,244.26227,58,50,0
244.26227,244.66916,62,38,0
244.66916,245.07605,53,43,0
245.07605,245.48294,62,35,0
245.48294,245.88983,58,35,0
245.88983,246.3424,62,35,0
246.3424,246.75948,53,38,0
246.75948,247.14523,63,33,0
247.14523,247.52023,57,33,0
247.52023,247.89095,63,33,0
247.89095,248.2706,53,37,0
248.2706,248.6271,63,32,0
248.6271,248.99844,57,32,0
248.99844,249.42848,63,32,0
249.83537,250.24226,62,35,0
250.24226,250.64981,65,39,0
250.64981,251.03525,68,35,0
251.03525,251.84903,67,37,0
251.84903,252.66281,63,34,0
249.42848,252.66281,58,37,0
252.66281,253.0697,62,35,0
253.0697,253.4766,65,35,0
253.4766,253.88414,68,39,0
253.88414,254.26958,66,35,0
254.26958,255.08336,67,37,0
255.08336,255.89644,63,34,0
252.66281,255.89644,58,37,0
256.29926,256.70828,65,35,0
256.29926,256.70828,62,26,0
255.89644,256.70828,58,32,0
256.70828,257.1244,63,32,0
256.70828,257.1244,67,40,0
257.1244,257.54706,60,29,0
257.1244,257.54706,63,37,0
257.54706,257.97055,62,38,0
257.97055,258.41202,62,28,0
257.97055,258.41202,65,36,0
257.54706,258.41202,58,32,0
258.41202,258.88123,63,32,0
258.41202,258.88123,67,40,0
258.88123,259.45792,60,24,0
258.88123,259.4721,63,30,0
261.54108,263.38272,53,20,0
259.4721,263.38272,58,27,0
259.4721,263.38272,46,21,0
261.54108,263.38272,50,18,0
