start_time,end_time,note_value,velocity,instrument_program_number
0.000757575,0.5462116,77,60,0
0.545454,0.727272,74,53,0
0.727272,0.818181,70,55,0
1.090908,1.1852475,70,55,0
1.468266,1.831902,75,60,0
1.831902,1.922811,79,55,0
2.195538,2.56251,69,52,0
2.929482,3.1113,72,55,0
3.1113,3.202209,70,53,0
3.293118,3.474936,74,57,0
3.474936,3.565845,72,54,0
3.656754,3.838572,75,58,0
3.838572,3.929481,74,56,0
4.02039,4.2050056,77,60,0
4.2050056,4.297313,75,57,0
4.389621,4.938402,74,60,0
4.938402,5.0298653,75,57,0
5.0298653,5.121329,74,53,0
5.121329,5.304256,72,52,0
5.304256,5.4923086,74,54,0
5.4923086,5.682434,75,55,0
5.682434,5.8742824,76,57,0
5.8742824,6.4197364,77,59,0
6.4197364,6.4803424,75,53,0
6.4803424,6.5409484,74,53,0
6.5409484,6.6015544,72,53,0
6.6015544,6.691644,70,56,0
6.9619145,7.054794,70,56,0
7.3334312,7.6970673,75,60,0
7.6970673,7.7879763,79,55,0
8.060703,8.424339,69,58,0
8.606157,8.787975,69,52,0
8.787975,8.969336,70,58,0
8.969336,9.060245,74,55,0
9.151384,9.334126,67,58,0
9.334126,9.425822,72,55,0
9.517659,9.892659,70,58,0
9.892659,10.267659,69,55,0
10.267659,10.455159,70,58,0
10.455159,10.546622,65,56,0
10.637947,10.729133,67,60,0
10.820042,10.910813,69,63,0
11.001448,11.091809,70,67,0
11.182035,11.272125,72,70,0
11.361945,11.451632,74,74,0
11.54114,11.636987,75,77,0
11.733591,12.279045,77,85,0
12.278287,12.460105,74,74,0
12.460105,12.641923,70,78,0
12.823741,13.008926,70,78,0
13.194111,13.266838,75,85,0
13.266838,13.339565,77,72,0
13.339565,13.4122925,75,61,0
13.4122925,13.48502,74,70,0
13.48502,13.557747,75,72,0
13.557747,13.921383,79,78,0
13.921383,14.288355,69,81,0
14.655327,14.837145,72,78,0
14.837145,14.928054,70,74,0
15.018963,15.200781,74,81,0
15.200781,15.29169,72,77,0
15.382599,15.564417,75,82,0
15.564417,15.655326,74,79,0
15.746235,15.930851,77,85,0
15.930851,16.023159,75,81,0
16.115465,16.664248,74,85,0
16.664248,16.75571,75,81,0
16.75571,16.847174,74,81,0
16.847174,17.030102,72,73,0
17.030102,17.218153,74,77,0
17.218153,17.40828,75,78,0
17.40828,17.600128,76,81,0
17.600128,18.145582,77,83,0
18.145582,18.206188,75,74,0
18.206188,18.266794,74,74,0
18.266794,18.3274,72,74,0
18.3274,18.41749,70,79,0
18.50758,18.59767,70,76,0
18.68776,18.78064,70,79,0
18.873518,18.966396,70,76,0
19.059277,19.132004,75,85,0
19.132004,19.204731,77,72,0
19.204731,19.277458,75,61,0
19.277458,19.350185,74,70,0
19.350185,19.422913,75,72,0
19.422913,19.786549,79,78,0
19.786549,20.150185,69,82,0
20.33537,20.516092,81,77,0
20.516092,20.636574,82,85,0
20.636574,20.757057,77,74,0
20.757057,20.877539,74,72,0
20.877539,20.99802,79,84,0
20.99802,21.118502,75,73,0
21.118502,21.238985,72,74,0
21.238985,21.359467,77,84,0
21.359467,21.480131,74,75,0
21.480131,21.600977,70,74,0
21.600977,21.722189,75,84,0
21.722189,21.843584,72,74,0
21.843584,21.965166,69,74,0
21.965166,22.356045,70,83,0
22.551483,22.741358,65,53,0
22.741358,22.836294,70,58,0
22.93123,23.026167,69,53,0
23.121105,23.216042,70,55,0
23.310978,23.405914,72,53,0
23.50085,23.60019,74,55,0
23.898203,24.043835,70,56,0
23.898203,24.043835,74,56,0
24.286552,24.674902,74,59,0
24.286552,24.674902,70,59,0
24.674902,25.067059,72,55,0
24.674902,25.067059,75,55,0
25.067059,25.459217,69,54,0
25.067059,25.459217,72,54,0
25.655294,25.843384,65,55,0
25.843384,25.937428,72,57,0
26.031471,26.125515,70,55,0
26.219559,26.314495,72,56,0
26.409433,26.50437,74,53,0
26.599306,26.69964,75,56,0
27.000645,27.144875,75,56,0
27.000645,27.144875,67,56,0
27.38526,27.778702,75,58,0
27.38526,27.778702,72,58,0
27.778702,28.172146,69,56,0
27.778702,28.172146,77,56,0
28.172146,28.565588,74,54,0
28.172146,28.565588,70,54,0
28.76231,28.948645,70,73,0
28.948645,29.041525,74,79,0
29.134403,29.22709,72,72,0
29.319685,29.412182,74,75,0
29.50449,29.596798,76,72,0
29.688822,30.056076,77,79,0
30.177288,30.2985,77,77,0
30.2985,30.419712,79,79,0
30.419712,30.540924,81,82,0
30.540924,30.662136,79,76,0
30.662136,30.783348,77,76,0
30.783348,30.904514,76,79,0
30.904514,31.026653,74,77,0
31.026653,31.149778,72,76,0
31.149778,31.521296,70,75,0
31.641777,31.762259,76,73,0
31.762259,31.88274,77,76,0
31.88274,32.003223,79,80,0
32.003223,32.123707,77,79,0
32.123707,32.244186,76,78,0
32.244186,32.36444,74,77,0
32.36444,32.485245,72,76,0
32.485245,32.60664,70,75,0
32.60664,32.699234,69,73,0
32.699234,32.790417,72,69,0
32.790417,32.881603,70,71,0
32.881603,32.972744,69,72,0
32.972744,33.063652,70,74,0
33.063652,33.15456,72,76,0
33.15456,33.24533,74,77,0
33.24533,33.335968,76,79,0
33.335968,33.4266,77,81,0
33.4266,33.517056,79,82,0
33.517056,33.607414,81,84,0
33.607414,33.697777,82,86,0
33.697777,33.792713,84,87,0
33.88765,33.970985,65,59,0
33.88765,33.970985,69,59,0
34.072834,34.439808,65,56,0
34.072834,34.439808,69,56,0
34.439808,34.623295,64,52,0
34.439808,34.623295,67,52,0
34.811382,35.356834,79,76,0
35.356834,35.447746,76,60,0
35.447746,35.538654,72,60,0
35.538654,35.909744,77,67,0
35.909744,36.27672,78,70,0
36.27672,36.82217,79,74,0
36.82217,36.913082,76,61,0
36.913082,37.00399,72,61,0
37.00399,37.367626,77,65,0
37.7381,37.829006,79,75,0
37.919914,38.28355,79,75,0
38.28355,38.375294,76,61,0
38.375294,38.467037,72,61,0
38.467037,38.55878,77,64,0
38.650524,38.742268,77,68,0
38.834007,38.92575,78,71,0
39.017216,39.108402,78,71,0
39.19931,39.289944,79,77,0
39.38058,39.74312,79,77,0
39.74312,39.83375,76,60,0
39.83375,39.924385,72,62,0
39.924385,40.28802,77,66,0
40.651657,40.759903,78,69,0
40.741886,40.850227,79,70,0
40.832157,40.94078,81,71,0
40.922653,41.031563,79,71,0
41.01338,41.12262,77,72,0
41.10438,41.213905,76,73,0
41.195614,41.305424,74,74,0
41.287075,41.397224,72,75,0
41.37882,41.470844,77,80,0
41.470844,41.56268,72,76,0
41.56268,41.65433,81,80,0
41.65433,41.745792,77,76,0
41.745792,41.83698,84,80,0
41.83698,41.92798,81,76,0
41.92798,42.0188,84,80,0
42.0188,42.109432,81,75,0
42.109432,42.217865,84,78,0
42.199795,42.308327,82,78,0
42.2902,42.398964,81,77,0
42.380836,42.489834,79,76,0
42.471653,42.5808,77,76,0
42.56256,42.671986,75,76,0
42.653748,42.763363,74,75,0
42.74507,42.854885,72,75,0
42.836536,42.928093,74,79,0
42.928093,43.019463,70,74,0
43.019463,43.11065,77,81,0
43.11065,43.201557,74,75,0
43.201557,43.292236,82,84,0
43.292236,43.382736,77,79,0
43.382736,43.473053,86,82,0
43.473053,43.56314,82,80,0
43.56314,43.670925,86,78,0
43.65296,43.7608,84,76,0
43.742783,43.85089,82,75,0
43.832874,43.941036,81,73,0
43.922962,44.031395,79,72,0
44.013325,44.12181,77,69,0
44.103687,44.21245,76,67,0
44.19432,44.303135,74,65,0
44.284954,45.012226,72,63,0
45.012226,45.072834,79,67,0
45.072834,45.13344,81,61,0
45.13344,45.194046,79,59,0
45.194046,45.25465,81,67,0
45.25465,45.315258,79,59,0
45.315258,45.375862,81,59,0
45.375862,45.43647,79,61,0
45.43647,45.497074,81,67,0
45.497074,45.557682,79,67,0
45.557682,45.64859,77,69,0
45.64859,45.7395,79,70,0
45.7395,45.830776,81,72,0
45.830776,45.921642,82,74,0
45.921642,46.012,84,74,0
46.012,46.1025,82,72,0
46.1025,46.193134,81,71,0
46.193134,46.284042,79,70,0
46.284042,46.37509,77,68,0
46.37509,46.466274,76,67,0
46.466274,46.557556,77,69,0
46.557556,46.64819,79,71,0
46.64819,46.73828,81,72,0
46.73828,46.828506,79,70,0
46.828506,46.918865,77,69,0
46.918865,47.009502,75,69,0
47.009502,47.100273,74,68,0
47.100273,47.19118,73,67,0
47.19118,47.28182,74,67,0
47.28182,47.372177,76,70,0
47.372177,47.46227,77,72,0
47.46227,47.55254,76,71,0
47.55254,47.643036,74,70,0
47.643036,47.733765,72,69,0
47.733765,47.82472,70,68,0
47.82472,47.915905,69,68,0
47.915905,48.00723,67,67,0
48.00723,48.098,69,68,0
48.098,48.188408,70,69,0
48.188408,48.27918,69,68,0
48.27918,48.370274,67,66,0
48.370274,48.46178,65,65,0
48.46178,48.553665,64,63,0
48.553665,48.645927,62,61,0
48.645927,48.828297,60,60,0
48.828297,48.91921,62,60,0
48.91921,49.010117,64,61,0
49.010117,49.10075,65,62,0
49.10075,49.191383,67,64,0
49.191383,49.281746,69,65,0
49.281746,49.37211,70,66,0
49.37211,49.462196,72,67,0
49.462196,49.552288,74,69,0
49.552288,49.64211,76,70,0
49.64211,49.73193,77,71,0
49.73193,49.82148,79,73,0
49.82148,49.911034,81,74,0
49.911034,50.000317,82,75,0
50.000317,50.093422,84,77,0
50.093422,50.158253,77,71,0
50.158253,50.2221,79,64,0
50.2221,50.284996,81,58,0
50.284996,50.346893,79,64,0
50.346893,50.408657,81,58,0
50.408657,50.46998,79,65,0
50.46998,50.531994,81,62,0
50.531994,50.592403,79,67,0
50.592403,50.65282,81,61,0
50.65282,50.713238,79,68,0
50.713238,50.773388,81,61,0
50.773388,50.833763,79,69,0
50.833763,50.894005,81,64,0
50.894005,50.954384,79,70,0
50.954384,51.014942,81,64,0
51.014942,51.07564,79,70,0
51.07564,51.136456,81,66,0
51.136456,51.197468,79,69,0
51.197468,51.289433,81,72,0
51.289433,51.381847,79,72,0
51.381847,51.475082,77,73,0
51.475082,51.57312,79,70,0
51.57312,51.664032,77,76,0
51.75494,51.845848,77,72,0
52.118576,52.209484,77,55,0
52.300392,52.391304,77,57,0
52.482212,52.57312,77,54,0
52.845848,52.936756,77,55,0
53.027664,53.118576,77,57,0
53.209484,53.300392,77,53,0
53.57312,53.66403,77,60,0
53.754936,53.845848,77,64,0
53.936756,54.027664,77,60,0
54.300392,54.3913,77,69,0
54.48221,54.572845,77,72,0
54.663708,54.75485,77,69,0
55.029797,55.121964,77,79,0
55.214413,55.307102,77,82,0
55.400078,55.493343,77,78,0
55.774693,55.86903,77,80,0
55.96367,56.146038,77,86,0
56.146038,56.237225,81,81,0
56.32841,56.51078,81,86,0
56.51078,56.601967,84,81,0
56.693153,56.875523,84,86,0
56.875523,56.96671,87,81,0
57.057896,57.240265,87,86,0
57.240265,57.33145,84,75,0
57.422638,57.60612,84,81,0
57.60612,57.697865,81,73,0
57.789608,57.973095,81,79,0
57.973095,58.06484,77,71,0
58.15658,58.34636,77,68,0
58.34636,58.442307,76,57,0
58.53903,58.73474,76,57,0
58.73474,58.859222,77,57,0
58.98446,59.529915,77,67,0
59.529156,59.710976,74,53,0
59.710976,59.801884,70,55,0
60.07461,60.16895,70,53,0
60.45197,60.815605,75,60,0
60.815605,60.906513,79,55,0
61.17924,61.54621,69,57,0
61.913185,62.095,72,55,0
62.095,62.18591,70,53,0
62.27682,62.458637,74,57,0
62.458637,62.549545,72,54,0
62.640457,62.822273,75,58,0
62.822273,62.91318,74,56,0
63.004093,63.18871,77,60,0
63.18871,63.281013,75,57,0
63.37332,63.922104,74,60,0
63.922104,64.013565,75,57,0
64.013565,64.105034,74,57,0
64.105034,64.28796,72,52,0
64.28796,64.47601,74,54,0
64.47601,64.66614,75,55,0
64.66614,64.85799,76,57,0
64.85799,65.403435,77,59,0
65.403435,65.46404,75,53,0
65.46404,65.52465,74,53,0
65.52465,65.58526,72,53,0
65.58526,65.67535,70,56,0
65.94562,66.0385,70,56,0
66.31713,66.68077,75,60,0
66.68077,66.771675,79,55,0
67.0444,67.40804,69,58,0
67.58986,67.771675,69,54,0
67.771675,67.95304,70,58,0
67.95304,68.043945,74,55,0
68.135086,68.317825,67,58,0
68.317825,68.40952,72,55,0
68.50136,68.87636,70,58,0
68.87636,69.25136,69,55,0
69.25136,69.43886,70,58,0
69.43886,69.53033,65,56,0
69.62165,69.71284,67,60,0
69.80374,69.894516,69,63,0
69.98515,70.07551,70,67,0
70.16574,70.25583,72,70,0
70.34565,70.43533,74,74,0
70.52484,70.62069,75,77,0
70.71729,71.26275,77,85,0
71.261986,71.44381,74,74,0
71.44381,71.625626,70,78,0
71.80744,71.99263,70,78,0
72.17781,72.25054,75,85,0
72.25054,72.323265,77,61,0
72.323265,72.395996,75,61,0
72.395996,72.46872,74,61,0
72.46872,72.54145,75,61,0
72.54145,72.90508,79,78,0
72.90508,73.27206,69,81,0
73.63903,73.82085,72,78,0
73.82085,73.91176,70,71,0
74.00266,74.18449,74,81,0
74.18449,74.27539,72,75,0
74.3663,74.54812,75,82,0
74.54812,74.63903,74,77,0
74.729935,74.91455,77,85,0
74.91455,75.00686,75,81,0
75.09917,75.64795,74,85,0
75.64795,75.73941,75,78,0
75.73941,75.83088,74,76,0
75.83088,76.0138,72,73,0
76.0138,76.20186,74,77,0
76.20186,76.39198,75,78,0
76.39198,76.58383,76,81,0
76.58383,77.12928,77,83,0
77.12928,77.18989,75,74,0
77.18989,77.250496,74,74,0
77.250496,77.311104,72,74,0
77.311104,77.40119,70,79,0
77.49128,77.581375,70,79,0
77.67146,77.76434,70,79,0
77.85722,77.950096,70,79,0
78.04298,78.11571,75,85,0
78.11571,78.18843,77,61,0
78.18843,78.26116,75,61,0
78.26116,78.333885,74,61,0
78.333885,78.40662,75,61,0
78.40662,78.77025,79,78,0
78.77025,79.13389,69,82,0
79.31907,79.499794,81,77,0
79.499794,79.62028,82,85,0
79.62028,79.74076,77,75,0
79.74076,79.861244,74,74,0
79.861244,79.98172,79,84,0
79.98172,80.1022,75,75,0
80.1022,80.22269,72,75,0
80.22269,80.34317,77,84,0
80.34317,80.46383,74,74,0
80.46383,80.58468,70,74,0
80.58468,80.70589,75,84,0
80.70589,80.827286,72,74,0
80.827286,80.94887,69,72,0
80.94887,81.339745,70,83,0
81.53519,81.72506,65,55,0
81.72506,81.82,70,58,0
81.91493,82.00987,69,52,0
82.104805,82.199745,70,55,0
82.29468,82.38962,72,51,0
82.48455,82.58389,74,55,0
82.881905,83.027534,74,56,0
82.881905,83.027534,70,56,0
83.270256,83.65861,74,59,0
83.270256,83.65861,70,59,0
83.65861,84.05076,75,55,0
83.65861,84.05076,72,55,0
84.05076,84.44292,69,54,0
84.05076,84.44292,72,54,0
84.639,84.82709,65,55,0
84.82709,84.92113,72,57,0
85.015175,85.109215,70,54,0
85.20326,85.298195,72,56,0
85.393135,85.48807,74,54,0
85.58301,85.68334,75,56,0
85.984344,86.12858,75,56,0
85.984344,86.12858,67,56,0
86.36896,86.737816,72,58,0
86.36896,86.737816,75,58,0
86.762405,87.155846,69,56,0
86.762405,87.155846,77,56,0
87.155846,87.54929,70,54,0
87.155846,87.54929,74,54,0
87.74601,87.93293,70,58,0
87.93293,88.02638,74,64,0
88.11984,88.2133,72,59,0
88.30676,88.400215,74,64,0
88.493675,88.587135,75,67,0
88.680595,88.97861,77,71,0
89.07794,89.37662,77,76,0
89.476616,89.7783,77,79,0
89.8793,90.184044,77,82,0
90.49087,90.674355,72,59,0
90.674355,90.857834,74,59,0
90.857834,90.9901,75,63,0
91.04132,91.22824,75,63,0
91.22824,91.36842,74,62,0
91.41515,91.603836,74,61,0
91.603836,91.745346,72,57,0
90.28609,91.79251,78,91,0
91.79251,92.56182,79,70,0
91.79251,92.56182,70,70,0
92.56182,93.33481,73,64,0
93.33481,93.72697,74,69,0
94.02108,94.119125,62,63,0
94.119125,94.48677,74,80,0
94.51128,94.903435,74,76,0
94.903435,95.48021,82,85,0
95.48021,95.54175,81,75,0
95.54175,95.60329,79,72,0
95.60329,95.664825,78,72,0
95.664825,96.03406,79,79,0
96.03406,96.42367,74,73,0
96.42367,96.81328,75,80,0
97.08935,97.18137,67,71,0
97.18137,97.52647,79,86,0
97.54947,97.93042,79,83,0
97.93042,98.49542,87,101,0
98.49542,98.55677,86,75,0
98.55677,98.618126,84,71,0
98.618126,98.679474,83,71,0
98.679474,99.04757,84,79,0
99.04757,99.44361,75,78,0
99.44361,99.83965,74,74,0
100.037674,100.223915,73,69,0
100.223915,100.41309,74,73,0
100.41309,100.5105,82,72,0
100.607895,100.7053,81,71,0
100.802704,100.90011,79,69,0
100.997505,101.28971,78,74,0
101.28971,101.33842,79,64,0
101.33842,101.387115,81,64,0
101.387115,101.482056,79,78,0
101.57699,101.677666,79,74,0
101.778336,101.97314,85,83,0
101.97314,102.167946,86,78,0
102.167946,102.26328,82,74,0
102.35913,102.458466,79,74,0
102.55781,102.84719,78,77,0
102.84719,102.895424,79,66,0
102.895424,102.94366,81,66,0
102.94366,103.04012,79,77,0
103.136635,103.33097,74,67,0
103.33097,103.42885,79,71,0
103.52721,103.62605,79,71,0
103.725395,103.825226,79,71,0
103.92556,104.026405,79,71,0
104.127815,104.43365,79,78,0
104.43365,104.48203,81,63,0
104.48203,104.53042,82,63,0
104.53042,104.6272,81,75,0
104.72397,104.82074,79,72,0
104.91752,105.01497,77,72,0
105.11275,105.21089,75,70,0
105.30947,105.408424,74,68,0
105.50787,105.607704,73,67,0
105.70793,105.90927,73,71,0
105.90927,106.11061,74,68,0
106.11061,106.40569,74,59,0
106.50406,106.80306,74,58,0
106.902725,107.20885,74,54,0
107.31089,107.37892,73,40,0
107.37892,107.446945,74,44,0
107.446945,107.51497,75,49,0
107.51497,108.925385,74,62,0
108.925385,110.51039,77,72,0
110.51039,112.06883,56,74,0
110.51039,112.06883,62,74,0
112.06883,112.45844,55,74,0
112.06883,113.0948,63,74,0
113.0948,113.185715,58,45,0
113.185715,113.461784,62,49,0
113.461784,113.55381,58,46,0
113.55381,113.82989,63,52,0
113.82989,113.921906,58,49,0
113.921906,114.19542,65,51,0
114.19542,114.28726,58,51,0
114.28726,114.56475,67,53,0
114.56475,114.65797,58,54,0
114.65797,114.946434,68,56,0
114.946434,115.04259,58,54,0
115.04259,116.05869,65,57,0
116.05869,116.149605,58,50,0
116.149605,116.425674,64,52,0
116.425674,116.5177,58,53,0
116.5177,116.79378,65,55,0
116.79378,116.8858,58,51,0
116.8858,117.15852,67,52,0
117.15852,117.249435,58,54,0
117.249435,117.52216,68,56,0
117.52216,117.613075,58,56,0
117.613075,117.90719,70,57,0
117.90719,118.005226,58,55,0
118.005226,118.381485,67,58,0
118.56167,118.65176,70,63,0
118.741844,119.012115,75,67,0
119.012115,119.1022,77,69,0
119.1022,119.38522,79,72,0
119.38522,119.43054,70,63,0
119.47586,119.747765,72,66,0
119.747765,119.8384,74,68,0
119.8384,120.11965,75,71,0
120.11965,120.16496,67,63,0
120.21028,120.482185,68,65,0
120.482185,120.57282,70,67,0
120.57282,120.84889,72,70,0
120.84889,120.896515,68,63,0
120.94413,121.30722,67,61,0
121.48849,121.579124,70,63,0
121.669754,121.94166,75,65,0
121.94166,122.032295,77,67,0
122.032295,122.3118,79,70,0
122.3118,122.35684,71,63,0
122.401886,122.67216,72,66,0
122.67216,122.762245,74,67,0
122.762245,123.042625,75,71,0
123.042625,123.08807,67,61,0
123.13353,123.40626,68,63,0
123.40626,123.49717,70,64,0
123.49717,123.77495,72,68,0
123.77495,123.82256,68,61,0
123.870186,124.25114,67,57,0
124.44161,124.6251,67,49,0
124.6251,124.81143,70,53,0
124.81143,124.997765,69,49,0
125.18825,125.37117,69,54,0
125.37117,125.5575,72,58,0
125.5575,125.74384,70,55,0
125.93432,126.11725,71,61,0
126.11725,126.30017,74,66,0
126.30017,126.39163,72,60,0
126.4831,126.66602,75,71,0
126.66602,126.75749,74,62,0
126.84895,127.03188,77,74,0
127.03188,127.123344,75,63,0
127.214806,127.397736,77,79,0
127.397736,127.4892,76,69,0
127.58066,127.76359,79,86,0
127.76359,127.85505,77,74,0
127.94652,128.12944,80,91,0
128.12944,128.2209,79,83,0
128.31236,128.49812,82,99,0
128.49812,128.591,80,83,0
129.59853,129.78145,77,49,0
129.78145,130.05583,79,52,0
130.05583,130.14731,75,49,0
130.14731,130.42169,72,53,0
130.42169,130.51315,77,49,0
130.51315,130.88239,75,53,0
130.88239,131.27327,74,49,0
131.27327,131.4596,82,97,0
131.4596,131.64594,80,87,0
132.56058,132.7435,77,48,0
132.7435,133.01788,79,51,0
133.01788,133.10936,75,48,0
133.10936,133.38374,72,51,0
133.38374,133.4752,77,48,0
133.4752,133.84558,75,51,0
133.84558,134.23143,74,48,0
134.23143,134.3279,67,69,0
134.3279,134.80362,79,74,0
134.80362,134.98994,75,56,0
134.98994,135.17628,72,51,0
135.36263,135.55371,72,47,0
135.74478,136.11288,77,55,0
136.11288,136.49144,80,56,0
136.49144,136.68071,71,46,0
137.05927,137.24275,71,46,0
137.24275,137.42622,74,52,0
137.42622,137.60971,72,49,0
137.60971,137.7932,75,55,0
137.7932,137.97668,74,50,0
137.97668,138.15796,77,58,0
138.15796,138.33923,75,53,0
138.52498,138.70625,71,46,0
138.70625,138.88753,74,50,0
138.88753,139.06879,72,48,0
139.06879,139.25006,75,55,0
139.25006,139.43134,74,51,0
139.43134,139.61269,77,58,0
139.61269,139.7947,75,51,0
139.7947,139.97734,77,62,0
139.97734,140.16904,76,56,0
140.16904,140.7145,77,75,0
140.7145,140.8963,74,44,0
140.8963,141.07812,70,48,0
141.25995,141.44571,70,48,0
141.63145,141.9962,75,52,0
141.9962,142.36095,78,49,0
142.36095,142.5467,69,52,0
142.91823,143.10115,69,44,0
143.10115,143.28407,72,49,0
143.28407,143.467,70,47,0
143.467,143.64993,73,51,0
143.64993,143.83286,72,47,0
143.83286,144.02153,75,54,0
144.02153,144.21022,73,51,0
144.3989,144.5807,69,45,0
144.5807,144.76253,72,50,0
144.76253,144.94435,70,45,0
144.94435,145.12616,73,52,0
145.12616,145.30798,72,48,0
145.30798,145.4949,75,55,0
145.4949,145.68181,73,50,0
145.86873,145.95937,73,51,0
146.05,146.23349,73,55,0
146.23349,146.41698,71,52,0
146.5977,146.76938,71,48,0
146.77841,146.96078,71,53,0
146.96078,147.14316,70,49,0
147.32388,147.49557,70,52,0
147.50461,147.68979,70,71,0
147.68979,147.87497,80,73,0
148.05624,148.23056,80,74,0
148.23973,148.42322,80,78,0
148.42322,148.6067,78,75,0
148.78851,148.96124,78,76,0
148.97034,149.15382,78,81,0
149.15382,149.33731,77,78,0
149.51859,149.69078,77,84,0
149.69984,149.88278,77,89,0
149.88278,150.0657,76,84,0
150.24863,150.43156,76,91,0
150.43156,150.61119,82,93,0
150.61119,150.67108,84,76,0
150.67108,150.73096,82,78,0
150.73096,150.79083,81,80,0
150.79083,150.97047,82,79,0
150.97047,151.15067,84,86,0
151.15067,151.5121,85,92,0
151.5121,151.87685,76,89,0
151.87685,152.05757,77,91,0
152.05757,152.2383,76,79,0
152.2383,152.41902,77,85,0
152.41902,152.59975,72,74,0
152.59975,152.78033,75,78,0
152.78033,152.96223,73,70,0
152.96223,153.14563,72,68,0
153.14563,153.33044,70,64,0
153.33044,153.51117,78,76,0
153.51117,153.69188,77,71,0
153.69188,153.8726,76,71,0
153.8726,154.05333,77,61,0
154.05333,154.23909,75,66,0
154.23909,154.42485,73,60,0
154.42485,154.61061,72,56,0
154.61061,154.79637,70,53,0
154.79637,155.16788,72,50,0
154.79637,155.16788,69,50,0
155.16788,155.53262,73,62,0
155.16788,155.53262,70,62,0
155.53262,155.89737,69,57,0
155.53262,155.89737,72,57,0
155.89737,156.27354,76,62,0
155.89737,156.27354,70,62,0
156.27354,156.64278,69,65,0
156.27354,156.64278,77,65,0
156.64278,157.00531,70,62,0
156.64278,157.00531,73,62,0
157.00531,157.37828,69,57,0
157.00531,157.37828,72,57,0
157.37828,157.74637,76,62,0
157.37828,157.74637,70,62,0
157.74637,157.9191,69,68,0
157.74637,157.9191,77,68,0
157.92819,158.11,77,68,0
158.29182,158.46455,77,60,0
158.47365,158.64638,77,64,0
158.65546,158.83728,77,60,0
159.0191,159.19182,77,60,0
159.20091,159.37364,77,63,0
159.38274,159.56454,77,60,0
159.74637,159.9191,77,64,0
159.92819,160.10092,77,67,0
160.11,160.29182,77,64,0
160.47365,160.64636,77,69,0
160.65546,160.82787,77,72,0
160.83696,161.01947,77,74,0
161.20305,161.3784,77,79,0
161.38766,161.56401,77,82,0
161.57333,161.7601,77,84,0
161.94794,162.12746,77,86,0
162.13692,162.2281,77,86,0
162.31929,162.50166,65,67,0
162.50166,162.68404,64,66,0
162.68404,162.86641,65,65,0
162.86641,163.04877,66,64,0
163.04877,163.23114,67,63,0
163.23114,163.41351,68,62,0
163.41351,163.59589,69,61,0
163.59589,163.77826,70,60,0
163.77826,163.96063,71,59,0
163.96063,164.143,72,58,0
164.143,164.32536,73,57,0
164.32536,164.51,74,56,0
164.51,164.69556,75,55,0
164.69556,164.8854,76,54,0
164.8854,165.10849,77,52,0
165.11722,165.66267,77,66,0
165.66191,165.84373,74,53,0
165.84373,165.93463,70,55,0
166.20737,166.3017,70,55,0
166.58472,166.94836,75,60,0
166.94836,167.03926,79,55,0
167.312,167.67897,69,57,0
168.04594,168.22775,72,55,0
168.22775,168.31866,70,53,0
168.40958,168.59138,74,57,0
168.59138,168.6823,72,54,0
168.77321,168.95503,75,58,0
168.95503,169.04593,74,56,0
169.13684,169.32146,77,60,0
169.32146,169.41377,75,57,0
169.50607,170.05486,74,60,0
170.05486,170.14632,75,57,0
170.14632,170.23778,74,55,0
170.23778,170.42072,72,52,0
170.42072,170.60876,74,54,0
170.60876,170.79889,75,55,0
170.79889,170.99074,76,57,0
170.99074,171.5362,77,59,0
171.5362,171.5968,75,53,0
171.5968,171.65741,74,53,0
171.65741,171.718,72,53,0
171.718,171.8081,70,56,0
172.07837,172.17125,70,56,0
172.44989,172.81352,75,60,0
172.81352,172.90443,79,55,0
173.17715,173.5408,69,58,0
173.72261,173.90443,69,54,0
173.90443,174.08578,70,58,0
174.08578,174.1767,74,55,0
174.26784,174.45058,67,58,0
174.45058,174.54228,72,55,0
174.63411,175.00911,70,58,0
175.00911,175.38411,69,55,0
175.38411,175.57161,70,58,0
175.57161,175.66307,65,56,0
175.75441,175.84558,67,60,0
175.9365,176.02727,69,63,0
176.1179,176.20827,70,67,0
176.2985,176.38858,72,70,0
176.4784,176.56808,74,74,0
176.6576,176.75345,75,77,0
176.85005,177.3955,77,85,0
177.39474,177.57655,74,74,0
177.57655,177.75838,70,78,0
177.9402,178.12538,70,78,0
178.31056,178.3833,75,85,0
178.3833,178.45602,77,61,0
178.45602,178.52875,75,61,0
178.52875,178.60147,74,61,0
178.60147,178.67421,75,61,0
178.67421,179.03784,79,78,0
179.03784,179.40482,69,81,0
179.77179,179.9536,72,78,0
179.9536,180.04451,70,73,0
180.13542,180.31723,74,81,0
180.31723,180.40814,72,75,0
180.49905,180.68088,75,82,0
180.68088,180.77177,74,77,0
180.86269,181.0473,77,85,0
181.0473,181.13962,75,81,0
181.23192,181.7807,74,85,0
181.7807,181.87216,75,81,0
181.87216,181.96362,74,76,0
181.96362,182.14656,72,73,0
182.14656,182.33461,74,77,0
182.33461,182.52473,75,78,0
182.52473,182.71658,76,81,0
182.71658,183.26204,77,83,0
183.26204,183.32265,75,74,0
183.32265,183.38326,74,74,0
183.38326,183.44385,72,74,0
183.44385,183.53395,70,79,0
183.62404,183.71413,70,76,0
183.80421,183.8971,70,79,0
183.98997,184.08286,70,77,0
184.17574,184.24846,75,85,0
184.24846,184.32118,77,61,0
184.32118,184.3939,75,61,0
184.3939,184.46664,74,61,0
184.46664,184.53937,75,61,0
184.53937,184.903,79,78,0
184.903,185.26663,69,82,0
185.45183,185.63255,81,77,0
185.63255,185.75304,82,85,0
185.75304,185.8735,77,75,0
185.8735,185.99399,74,74,0
185.99399,186.11447,79,84,0
186.11447,186.23495,75,76,0
186.23495,186.35544,72,75,0
186.35544,186.47592,77,84,0
186.47592,186.59659,74,76,0
186.59659,186.71744,70,77,0
186.71744,186.83864,75,84,0
186.83864,186.96004,72,76,0
186.96004,187.08162,69,75,0
187.08162,187.4725,70,83,0
187.66794,187.85782,65,55,0
187.85782,187.95274,70,58,0
188.04768,188.14262,69,53,0
188.23756,188.33249,70,55,0
188.42743,188.52237,72,52,0
188.61731,188.71664,74,55,0
189.01466,189.1603,74,56,0
189.01466,189.1603,70,56,0
189.40302,189.79135,74,59,0
189.40302,189.79135,70,59,0
189.79135,190.18352,75,55,0
189.79135,190.18352,72,55,0
190.18352,190.57567,69,54,0
190.18352,190.57567,72,54,0
190.77174,190.95984,65,55,0
190.95984,191.05388,72,57,0
191.14792,191.24197,70,53,0
191.33601,191.43095,72,56,0
191.5259,191.62082,74,52,0
191.71576,191.8161,75,56,0
192.1171,192.26134,75,56,0
192.1171,192.26134,67,56,0
192.50171,192.89516,72,58,0
192.50171,192.89516,75,58,0
192.89516,193.2886,69,56,0
192.89516,193.2886,77,56,0
193.2886,193.68204,74,54,0
193.2886,193.68204,70,54,0
193.87877,194.0651,70,56,0
194.0651,194.15797,74,60,0
194.25085,194.34355,75,64,0
194.43614,194.52864,77,68,0
194.62094,194.71326,79,72,0
194.80528,194.99278,80,76,0
195.18028,195.38028,58,64,0
195.18028,195.38028,68,72,0
195.18028,195.38028,65,72,0
195.58028,195.78027,65,73,0
195.58028,195.78027,58,65,0
195.58028,195.78027,68,73,0
195.98027,196.19688,60,63,0
195.98027,196.19688,65,71,0
195.98027,196.19688,68,71,0
196.41348,196.79688,67,72,0
196.41348,196.79688,62,64,0
196.41348,196.79688,65,72,0
196.98857,197.17206,74,53,0
197.17206,197.2638,79,58,0
197.35555,197.44728,78,53,0
197.53903,197.63191,79,56,0
197.7248,197.81767,74,53,0
197.91054,198.10347,77,57,0
198.10347,198.2964,75,53,0
198.48932,198.67091,67,53,0
198.67091,198.76132,72,54,0
198.76132,198.8515,71,58,0
198.8515,198.9414,74,61,0
198.9414,199.0311,72,65,0
199.0311,199.12051,75,69,0
199.12051,199.20972,74,73,0
199.20972,199.29865,77,76,0
199.29865,199.38731,75,80,0
199.38731,199.57365,79,84,0
199.76,199.96133,63,74,0
199.76,199.96133,60,66,0
199.76,199.96133,67,74,0
200.16267,200.36401,67,74,0
200.16267,200.36401,63,74,0
200.16267,200.36401,60,66,0
200.56535,200.78275,63,72,0
200.56535,200.78275,66,72,0
200.56535,200.78275,60,64,0
201.00014,201.38353,60,63,0
201.00014,201.38353,65,71,0
201.00014,201.38353,63,71,0
201.57523,201.75926,72,52,0
201.75926,201.85129,77,55,0
201.94331,202.03534,76,52,0
202.12737,202.22025,77,55,0
202.31313,202.406,72,52,0
202.49889,202.69058,75,55,0
202.69058,202.88228,74,52,0
203.00311,203.12396,82,73,0
203.12396,203.24669,81,69,0
203.24669,203.36754,82,77,0
203.36754,203.48848,81,69,0
203.48848,203.60983,79,70,0
203.60983,203.7316,77,73,0
203.7316,203.85378,75,72,0
203.85378,203.97638,74,71,0
203.97638,204.161,72,70,0
204.4683,204.59073,72,70,0
204.59073,204.71281,74,72,0
204.71281,204.83464,75,74,0
204.83464,204.95612,74,73,0
204.95612,205.07729,72,68,0
205.07729,205.19814,79,73,0
205.19814,205.31898,77,72,0
205.31898,205.43982,75,71,0
205.43982,205.80237,74,69,0
205.9232,206.04405,82,74,0
206.04405,206.16737,81,74,0
206.16737,206.28822,82,76,0
206.28822,206.40906,80,72,0
206.40906,206.5299,79,71,0
206.5299,206.65224,77,73,0
206.65224,206.77455,75,71,0
206.77455,206.89688,74,70,0
206.89688,207.26385,75,74,0
207.3847,207.50554,75,71,0
207.50554,207.62639,77,72,0
207.62639,207.74724,79,74,0
207.74724,207.86809,77,73,0
207.86809,207.99303,75,72,0
207.99303,208.11725,82,79,0
208.11725,208.24147,80,72,0
208.24147,208.36569,79,70,0
208.36569,208.7338,77,72,0
208.85501,208.97621,82,74,0
208.97621,209.09743,81,71,0
209.09743,209.21837,82,76,0
209.21837,209.33977,80,72,0
209.33977,209.46162,79,73,0
209.46162,209.5838,77,71,0
209.5838,209.70543,79,72,0
209.70543,209.82646,80,74,0
209.82646,209.94978,79,72,0
209.94978,210.07062,82,78,0
210.07062,210.19183,81,75,0
210.19183,210.31332,79,71,0
210.31332,210.43509,81,73,0
210.43509,210.55713,82,75,0
210.55713,210.67929,75,70,0
210.67929,210.79977,79,74,0
210.79977,210.92026,77,69,0
210.92026,211.04074,75,70,0
211.04074,211.16122,77,72,0
211.16122,211.28171,79,75,0
211.28171,211.40367,72,73,0
211.40367,211.52415,75,76,0
211.52415,211.64464,74,74,0
211.64464,211.76512,72,73,0
211.76512,211.8856,74,74,0
211.8856,212.00609,75,69,0
212.00609,212.12823,67,72,0
212.12823,212.24944,70,74,0
212.24944,212.37065,69,72,0
212.37065,212.49164,67,68,0
212.49164,212.61317,69,70,0
212.61317,212.7353,70,71,0
212.7353,212.82748,69,71,0
212.82748,212.9184,65,69,0
212.9184,213.00926,67,70,0
213.00926,213.0999,69,71,0
213.0999,213.19054,70,72,0
213.19054,213.28094,72,73,0
213.28094,213.3713,74,74,0
213.3713,213.46153,76,76,0
213.46153,213.55162,77,77,0
213.55162,213.64166,79,78,0
213.64166,213.73148,81,79,0
213.73148,213.8213,82,80,0
213.8213,213.91304,84,93,0
214.00479,214.09653,75,76,0
214.18828,214.2797,74,74,0
214.2797,214.37033,70,69,0
214.37033,214.46097,72,71,0
214.46097,214.55138,74,72,0
214.55138,214.64174,75,74,0
214.64174,214.73192,77,75,0
214.73192,214.822,79,77,0
214.822,214.912,81,78,0
214.912,215.00182,82,80,0
215.00182,215.0916,84,81,0
215.0916,215.18115,86,83,0
215.18115,215.2707,87,84,0
215.2707,215.363,89,99,0
215.45532,215.54762,82,82,0
215.63994,215.73112,81,78,0
215.73112,215.82231,82,81,0
215.82231,215.91348,84,83,0
215.91348,216.00467,82,80,0
216.00467,216.09554,81,79,0
216.09554,216.18608,82,82,0
216.18608,216.2763,84,85,0
216.2763,216.36621,86,88,0
216.36621,216.45576,87,89,0
216.45576,216.5456,86,87,0
216.5456,216.63568,84,86,0
216.63568,216.72604,82,84,0
216.72604,216.81668,81,82,0
216.81668,216.9076,79,80,0
216.9076,216.99876,77,78,0
216.99876,217.09024,75,77,0
217.09024,217.18198,74,75,0
217.18198,217.27373,77,75,0
217.27373,217.36546,75,74,0
217.36546,217.4572,74,73,0
217.4572,217.54886,75,71,0
217.54886,217.64005,77,73,0
217.64005,217.73077,79,76,0
217.73077,217.821,81,78,0
217.821,217.9109,82,79,0
217.9109,218.00117,81,78,0
218.00117,218.09195,79,77,0
218.09195,218.18314,77,76,0
218.18314,218.27478,75,75,0
218.27478,218.3669,74,74,0
218.3669,218.45949,72,72,0
218.45949,218.55252,70,71,0
218.55252,218.64656,72,70,0
218.55252,218.64656,69,70,0
218.55252,218.64656,77,70,0
218.9287,219.12286,65,71,0
219.31705,219.8625,72,76,0
219.8625,219.9534,69,60,0
219.9534,220.04431,65,60,0
220.04431,220.4154,70,67,0
220.4154,220.78238,71,70,0
220.78238,221.32784,72,74,0
221.32784,221.41875,69,61,0
221.41875,221.50966,65,61,0
221.50966,221.87329,70,65,0
222.24376,222.33467,72,75,0
222.42558,222.78922,72,75,0
222.78922,222.88095,69,61,0
222.88095,222.9727,65,61,0
222.9727,223.06444,70,64,0
223.15619,223.24792,70,68,0
223.33968,223.43141,71,71,0
223.52287,223.61406,71,71,0
223.70497,223.79561,72,77,0
223.88625,224.24878,72,77,0
224.24878,224.33942,69,60,0
224.33942,224.43005,65,62,0
224.43005,224.79369,70,66,0
225.15732,225.26556,83,65,0
225.24754,225.3559,84,68,0
225.33781,225.44644,86,70,0
225.42831,225.53722,84,73,0
225.51904,225.62828,82,76,0
225.61005,225.71957,81,77,0
225.70128,225.81108,79,80,0
225.79274,225.9029,77,79,0
225.88448,225.9765,82,85,0
225.9765,226.06834,77,75,0
226.06834,226.15999,86,85,0
226.15999,226.25145,82,79,0
226.25145,226.34264,89,85,0
226.34264,226.43364,86,78,0
226.43364,226.52446,89,85,0
226.52446,226.6151,86,77,0
226.6151,226.72353,89,83,0
226.70546,226.814,87,83,0
226.79587,226.90462,86,82,0
226.88649,226.9955,84,81,0
226.97731,227.08646,82,81,0
227.06822,227.17764,81,80,0
227.15941,227.26903,79,79,0
227.25073,227.36055,77,79,0
227.3422,227.43376,79,87,0
227.43376,227.52522,75,78,0
227.52522,227.61559,82,86,0
227.61559,227.70595,79,76,0
227.70595,227.7963,82,86,0
227.7963,227.88666,81,77,0
227.88666,227.97702,82,83,0
227.97702,228.06738,81,77,0
228.06738,228.15747,82,79,0
228.15747,228.24779,81,73,0
228.24779,228.33833,79,76,0
228.33833,228.42911,77,68,0
228.42911,228.52011,75,72,0
228.52011,228.61134,74,67,0
228.61134,228.7028,72,68,0
228.7028,228.79454,70,63,0
228.79454,228.84,65,67,0
228.88545,228.97636,77,67,0
228.97636,229.06728,79,69,0
229.06728,229.15819,77,67,0
229.15819,229.2491,75,67,0
229.2491,229.34,74,64,0
229.34,229.43091,72,67,0
229.43091,229.52182,70,64,0
229.52182,229.58243,72,67,0
229.58243,229.64304,74,61,0
229.64304,229.70364,72,59,0
229.70364,229.76424,74,67,0
229.76424,229.82484,72,59,0
229.82484,229.88545,74,59,0
229.88545,229.94606,72,61,0
229.94606,230.00667,74,67,0
230.00667,230.06728,72,67,0
230.06728,230.15819,70,69,0
230.15819,230.24908,72,70,0
230.24908,230.34036,74,72,0
230.34036,230.43123,75,74,0
230.43123,230.52159,77,74,0
230.52159,230.61209,75,72,0
230.61209,230.70273,74,71,0
230.70273,230.79364,72,70,0
230.79364,230.88469,70,68,0
230.88469,230.97588,69,67,0
230.97588,231.06715,70,69,0
231.06715,231.15778,72,71,0
231.15778,231.24788,74,72,0
231.24788,231.3381,72,70,0
231.3381,231.42847,70,69,0
231.42847,231.51909,68,69,0
231.51909,231.60986,67,68,0
231.60986,231.70078,66,67,0
231.70078,231.79141,67,67,0
231.79141,231.88177,69,70,0
231.88177,231.97186,70,72,0
231.97186,232.06213,69,71,0
232.06213,232.15263,67,70,0
232.15263,232.24336,65,69,0
232.24336,232.3343,63,68,0
232.3343,232.42549,62,68,0
232.42549,232.51682,60,67,0
232.51682,232.60759,62,68,0
232.60759,232.698,63,69,0
232.698,232.78877,62,68,0
232.78877,232.87987,60,66,0
232.87987,232.97137,58,65,0
232.97137,233.06326,57,63,0
233.06326,233.15552,55,61,0
233.15552,233.33789,53,60,0
233.33789,233.4288,55,62,0
233.4288,233.51971,57,64,0
233.51971,233.61034,58,66,0
233.61034,233.70097,60,68,0
233.70097,233.79134,62,70,0
233.79134,233.8817,63,69,0
233.8817,233.97179,67,72,0
233.97179,234.06215,65,71,0
234.06215,234.15279,63,70,0
234.15279,234.2437,62,69,0
234.2437,234.33488,63,67,0
234.33488,234.4258,65,67,0
234.4258,234.51642,67,68,0
234.51642,234.60678,69,69,0
234.60678,234.69687,70,71,0
234.69687,234.78697,69,71,0
234.78697,234.87733,67,70,0
234.87733,234.96768,65,69,0
234.96768,235.05832,67,68,0
235.05832,235.14877,69,69,0
235.14877,235.23904,70,70,0
235.23904,235.32913,72,71,0
235.32913,235.41896,74,73,0
235.41896,235.50905,72,73,0
235.50905,235.59941,70,72,0
235.59941,235.69005,69,71,0
235.69005,235.78096,70,70,0
235.78096,235.87167,72,71,0
235.87167,235.96222,74,73,0
235.96222,236.05258,75,75,0
236.05258,236.14285,77,76,0
236.14285,236.23294,74,71,0
236.23294,236.32303,77,76,0
236.32303,236.41313,74,70,0
236.41313,236.50322,82,82,0
236.50322,236.59317,77,76,0
236.59317,236.683,82,82,0
236.683,236.77281,77,76,0
236.77281,236.86263,86,88,0
236.86263,236.95245,82,83,0
236.95245,237.04219,86,88,0
237.04219,237.13173,82,83,0
237.13173,237.22128,89,95,0
237.22128,237.31084,86,88,0
237.31084,237.40039,89,95,0
237.40039,237.4899,86,85,0
237.4899,237.5792,82,93,0
237.5792,237.66847,86,89,0
237.66847,237.75775,82,93,0
237.75775,237.84721,86,87,0
237.84721,237.93677,77,89,0
237.93677,238.02632,82,84,0
238.02632,238.11601,77,90,0
238.11601,238.20583,82,84,0
238.20583,238.29565,74,87,0
238.29565,238.38556,77,80,0
238.38556,238.47565,74,87,0
238.47565,238.56573,77,80,0
238.56573,238.65588,70,81,0
238.65588,238.74625,74,73,0
238.74625,238.8366,70,81,0
238.8366,238.92696,74,73,0
238.92696,239.11272,65,83,0
239.29848,239.84229,77,91,0
239.84229,239.93292,79,77,0
239.93292,240.02356,77,76,0
240.02356,240.1142,75,76,0
240.1142,240.20482,74,75,0
240.20482,240.29546,72,74,0
240.29546,240.3861,70,73,0
240.3861,240.44725,70,53,0
240.44725,240.50842,72,48,0
240.50842,240.5694,74,49,0
240.5694,240.63037,72,53,0
240.63037,240.69116,74,51,0
240.69116,240.75195,72,55,0
240.75195,240.81256,74,52,0
240.81256,240.87315,72,56,0
240.87315,240.93358,74,52,0
240.93358,240.994,72,56,0
240.994,241.05424,74,54,0
241.05424,241.1144,72,58,0
241.1144,241.17464,74,55,0
241.17464,241.23502,72,59,0
241.23502,241.29553,74,54,0
241.29553,241.35623,72,60,0
241.35623,241.41707,74,56,0
241.41707,241.47809,72,57,0
241.47809,241.56993,74,65,0
241.56993,241.6621,72,61,0
241.6621,241.75464,70,67,0
241.75464,241.84761,72,64,0
241.84761,242.02888,70,70,0
242.02888,242.21014,70,59,0
242.39142,242.5727,70,56,0
242.5727,242.75395,70,57,0
242.75395,242.93523,70,57,0
243.1165,243.29776,70,56,0
243.29776,243.47903,72,60,0
243.47903,243.56967,72,57,0
243.84157,244.02284,72,57,0
244.02284,244.2041,72,60,0
244.2041,244.38538,72,57,0
244.56665,244.74791,72,61,0
244.74791,244.92918,74,65,0
244.92918,245.01982,74,61,0
245.29172,245.47299,74,70,0
245.47299,245.65427,75,72,0
245.65427,245.74489,75,70,0
246.0168,246.19807,76,77,0
246.19807,246.37933,77,81,0
246.37933,246.46997,77,78,0
246.74188,246.92314,78,85,0
246.92314,247.10497,79,92,0
247.10497,247.19656,79,92,0
247.28859,247.38109,81,96,0
247.47406,247.56752,81,96,0
247.66142,247.75179,74,109,0
247.75179,247.84215,82,93,0
247.84215,247.93251,86,105,0
247.93251,248.02287,82,96,0
248.02287,248.11322,86,105,0
248.11322,248.20358,82,96,0
248.20358,248.29395,86,103,0
248.29395,248.38431,82,94,0
248.38431,248.47467,74,110,0
248.47467,248.56503,82,94,0
248.56503,248.6554,86,103,0
248.6554,248.74576,82,100,0
248.74576,248.83612,86,105,0
248.83612,248.92648,82,94,0
248.92648,249.01685,86,100,0
249.01685,249.10721,82,95,0
249.10721,249.19757,74,109,0
249.19757,249.28793,82,95,0
249.28793,249.37828,86,100,0
249.37828,249.46864,82,93,0
249.46864,249.559,86,105,0
249.559,249.64937,82,95,0
249.64937,249.73973,86,100,0
249.73973,249.8301,82,93,0
249.8301,249.92046,74,109,0
249.92046,250.01082,82,95,0
250.01082,250.10118,86,101,0
250.10118,250.19154,82,94,0
250.19154,250.2819,86,105,0
250.2819,250.37227,82,96,0
250.37227,250.4643,86,100,0
250.4643,250.55632,82,93,0
250.55632,250.64833,74,109,0
250.64833,250.74036,82,95,0
250.74036,250.83238,86,100,0
250.83238,250.92441,82,95,0
250.92441,251.01643,86,104,0
251.01643,251.11105,82,94,0
251.11105,251.21066,86,101,0
251.21066,251.30997,82,93,0
251.30997,251.41266,74,109,0
251.41266,251.51794,82,95,0
251.51794,251.6254,86,100,0
251.6254,251.73581,82,95,0
251.73581,251.84875,86,104,0
251.84875,251.96474,82,95,0
251.96474,252.08377,86,100,0
252.08377,252.31279,82,95,0
252.31279,253.00642,77,99,0
252.31279,253.00642,74,99,0
252.31279,253.00642,82,99,0
252.31279,253.70007,86,99,0
253.87602,253.964,65,57,0
253.964,254.05197,69,59,0
254.05197,254.13995,67,61,0
254.13995,254.22792,70,62,0
254.22792,254.3159,69,64,0
254.3159,254.40388,72,66,0
254.40388,254.50322,70,68,0
254.60255,254.69211,69,54,0
254.69211,254.78166,72,56,0
254.78166,254.87122,70,58,0
254.87122,254.96077,74,60,0
254.96077,255.05032,72,61,0
255.05032,255.13986,75,63,0
255.13986,255.23451,74,65,0
255.32845,255.42328,72,56,0
255.42328,255.51918,75,58,0
255.51918,255.61719,74,59,0
255.61719,255.71764,77,60,0
255.71764,255.81963,75,62,0
255.81963,255.95538,79,63,0
255.95613,256.5016,77,69,0
256.50082,256.68265,74,66,0
256.68265,256.86447,70,70,0
257.0463,257.23148,70,70,0
257.41666,257.48938,75,76,0
257.48938,257.5621,77,54,0
257.5621,257.63483,75,54,0
257.63483,257.70755,74,54,0
257.70755,257.7803,75,54,0
257.7803,258.14392,79,70,0
258.14392,258.5109,69,72,0
258.88382,259.4293,77,68,0
259.42853,259.61035,73,59,0
259.61035,259.79214,70,63,0
259.97397,260.15915,70,63,0
260.34433,260.41708,75,68,0
260.41708,260.4898,77,48,0
260.4898,260.56253,75,48,0
260.56253,260.63525,74,48,0
260.63525,260.70798,75,48,0
260.70798,261.07162,78,63,0
261.07162,261.4386,69,64,0
261.80557,261.8973,70,76,0
261.98904,262.17032,82,79,0
262.17032,262.3516,84,81,0
262.3516,262.53677,85,77,0
262.53677,262.7176,84,84,0
262.7176,262.89905,82,77,0
262.89905,263.08118,80,79,0
263.08118,263.26398,78,78,0
263.26398,263.9986,77,76,0
263.9986,264.7303,76,72,0
264.7303,264.8212,77,86,0
264.9121,265.00302,77,86,0
265.27576,265.36667,77,60,0
265.45755,265.54846,77,65,0
265.63937,265.7303,77,60,0
266.00302,266.09393,77,60,0
266.18484,266.27576,77,65,0
266.36667,266.45755,77,60,0
266.7303,266.8212,77,64,0
266.9121,267.00302,77,66,0
267.09393,267.18484,77,64,0
267.45755,267.54846,77,69,0
267.63937,267.73,77,72,0
267.8209,267.91202,77,72,0
268.18698,268.27914,77,79,0
268.37158,268.46426,77,82,0
268.55725,268.6505,77,84,0
268.93185,269.0262,77,86,0
269.12085,269.30322,77,86,0
269.30322,269.3944,81,81,0
269.4856,269.66794,81,86,0
269.66794,269.75912,84,81,0
269.8503,270.03268,84,86,0
270.03268,270.12387,87,81,0
270.21506,270.39743,87,86,0
270.39743,270.48862,84,75,0
270.5798,270.7633,84,81,0
270.7633,270.85504,81,73,0
270.94678,271.13028,81,79,0
271.13028,271.22202,77,71,0
271.31375,271.50354,77,68,0
271.50354,271.5995,76,57,0
271.6962,271.8919,76,60,0
271.8919,272.0064,77,57,0
272.1209,272.31635,77,57,0
272.31635,272.5118,76,56,0
272.5118,273.2791,75,54,0
273.2791,274.01816,75,66,0
274.01816,274.29855,75,68,0
274.39258,274.67398,75,70,0
274.76688,275.04266,75,76,0
275.1337,275.50638,74,84,0
275.50638,275.86746,77,58,0
275.50638,275.86746,68,58,0
275.86746,276.23105,67,54,0
275.86746,276.23105,75,54,0
276.23105,276.5972,74,48,0
276.23105,276.5972,66,48,0
276.5972,276.971,75,48,0
276.5972,276.971,67,48,0
276.971,277.33234,70,56,0
276.971,277.33234,79,56,0
277.33234,277.69653,68,54,0
277.33234,277.69653,77,54,0
277.69653,278.06363,67,51,0
277.69653,278.06363,76,51,0
278.06363,278.43286,77,56,0
278.06363,278.43286,68,56,0
278.43286,278.7954,77,63,0
278.43286,278.7954,80,63,0
278.7954,279.15796,75,69,0
278.7954,279.15796,79,69,0
279.15796,279.52048,74,78,0
279.15796,279.52048,77,78,0
279.52048,279.6111,77,78,0
279.52048,279.6111,74,66,0
279.52048,279.6111,79,78,0
279.70175,279.7924,77,78,0
279.70175,279.7924,74,66,0
279.70175,279.7924,79,78,0
280.0643,280.24722,79,78,0
280.0643,280.24722,77,78,0
280.0643,280.24722,74,66,0
280.24722,280.33868,87,82,0
280.24722,280.33868,79,69,0
280.24722,280.33868,75,69,0
280.43015,280.5216,75,66,0
280.43015,280.5216,87,78,0
280.43015,280.5216,79,66,0
280.796,280.9767,75,63,0
280.796,280.9767,72,63,0
280.796,280.9767,79,75,0
280.9767,281.06708,77,78,0
280.9767,281.06708,72,66,0
280.9767,281.06708,75,78,0
281.15744,281.2478,77,75,0
281.15744,281.2478,75,75,0
281.15744,281.2478,72,63,0
281.5189,281.69962,77,82,0
281.5189,281.69962,72,69,0
281.5189,281.69962,75,82,0
281.69962,281.78998,86,86,0
281.69962,281.78998,77,73,0
281.69962,281.78998,74,73,0
281.88034,281.9707,86,81,0
281.88034,281.9707,77,68,0
281.88034,281.9707,74,68,0
282.2418,282.4247,74,63,0
282.2418,282.4247,77,75,0
282.2418,282.4247,70,63,0
282.4247,282.51617,75,78,0
282.4247,282.51617,70,66,0
282.4247,282.51617,74,78,0
282.60764,282.6991,74,74,0
282.60764,282.6991,75,74,0
282.60764,282.6991,70,62,0
282.97348,283.15585,70,67,0
282.97348,283.15585,74,79,0
282.97348,283.15585,75,79,0
283.15585,283.24704,75,71,0
283.15585,283.24704,72,71,0
283.15585,283.24704,84,84,0
283.33823,283.4294,75,65,0
283.33823,283.4294,84,77,0
283.33823,283.4294,72,65,0
283.70297,283.88647,72,62,0
283.70297,283.88647,69,62,0
283.70297,283.88647,75,74,0
283.88647,283.9782,74,78,0
283.88647,283.9782,72,78,0
283.88647,283.9782,69,66,0
284.06995,284.16168,69,62,0
284.06995,284.16168,72,74,0
284.06995,284.16168,74,74,0
284.43692,284.6182,74,76,0
284.43692,284.6182,72,76,0
284.43692,284.6182,69,64,0
284.6182,284.70883,70,70,0
284.6182,284.70883,74,70,0
284.6182,284.70883,82,83,0
284.79947,284.8901,74,65,0
284.79947,284.8901,82,77,0
284.79947,284.8901,70,65,0
285.162,285.3455,67,63,0
285.162,285.3455,70,63,0
285.162,285.3455,74,75,0
285.3455,285.43723,70,78,0
285.3455,285.43723,72,78,0
285.3455,285.43723,67,66,0
285.52896,285.6207,70,75,0
285.52896,285.6207,67,63,0
285.52896,285.6207,72,75,0
285.89594,286.07666,72,78,0
286.07666,286.16702,82,86,0
286.2574,286.34775,82,82,0
286.4381,286.61884,82,84,0
286.61884,286.80176,72,76,0
286.80176,286.89322,74,79,0
286.98468,287.07614,74,79,0
287.35052,287.53018,74,74,0
287.53018,287.62,82,86,0
287.7098,287.79965,82,82,0
287.88947,288.0691,82,82,0
288.0691,288.25146,74,76,0
288.25146,288.34265,75,80,0
288.43384,288.52502,75,80,0
288.79858,288.98096,76,77,0
288.98096,289.07214,77,82,0
289.16333,289.25452,77,82,0
289.52808,289.71045,78,79,0
289.71045,289.80164,79,80,0
289.893,289.98456,79,82,0
290.0763,290.16833,81,83,0
290.26053,290.35294,81,85,0
290.44553,290.53793,82,86,0
290.63086,290.72437,82,88,0
290.81845,290.91306,84,89,0
291.00824,291.10403,84,91,0
291.20044,291.7811,85,98,0
291.7811,291.82947,84,84,0
291.82947,291.87787,82,87,0
291.87787,291.92624,81,89,0
291.92624,291.97464,82,92,0
291.97464,292.57465,85,94,0
292.57465,292.62463,84,87,0
292.62463,292.67465,82,89,0
292.67465,292.72464,81,91,0
292.72464,292.77463,82,94,0
292.77463,293.97708,85,95,0
293.97708,294.06436,82,87,0
294.06436,294.15283,79,86,0
294.15283,294.24243,76,84,0
294.24243,294.33337,73,83,0
294.33337,294.42554,70,82,0
294.42554,294.519,67,81,0
294.519,294.61383,64,79,0
297.26657,297.39764,62,74,0
297.35294,297.48184,63,76,0
297.43784,297.56464,65,78,0
297.52133,297.64612,67,79,0
297.60345,297.72626,69,81,0
297.68423,297.80515,70,83,0
297.76376,297.8828,72,84,0
297.84204,297.95932,74,86,0
297.91913,298.0347,75,88,0
297.99503,298.10938,77,89,0
298.0703,298.18292,79,91,0
298.14447,298.2554,81,93,0
298.21753,298.32687,82,94,0
298.2895,298.39734,84,94,0
298.36044,298.4668,86,96,0
298.43042,298.53534,87,98,0
298.49942,298.57104,89,99,0
299.46768,299.61102,70,63,0
299.65817,299.75134,70,64,0
299.75134,299.84338,72,60,0
299.84338,299.93393,74,65,0
299.93393,300.02322,72,60,0
300.02322,300.11145,74,66,0
300.11145,300.1985,72,61,0
300.1985,300.2842,74,67,0
300.2842,300.36896,72,63,0
300.36896,300.4526,74,68,0
300.4526,300.53516,72,63,0
300.53516,300.6167,74,69,0
300.6167,300.6972,72,65,0
300.6972,300.7767,74,70,0
300.7767,300.85522,72,65,0
300.85522,300.93295,74,69,0
300.93295,301.01068,72,64,0
301.01068,301.08838,74,68,0
301.08838,301.1661,72,67,0
301.1661,301.24384,74,66,0
301.24384,301.32156,72,62,0
301.32156,301.39926,74,65,0
301.39926,301.477,72,64,0
301.477,301.59628,71,63,0
301.55673,301.67474,72,65,0
301.63568,301.7522,74,66,0
301.71356,301.82883,75,68,0
301.79065,301.9045,77,69,0
301.86676,301.97943,79,71,0
301.9421,302.05344,81,72,0
302.0165,302.1267,82,74,0
302.0902,302.19913,84,75,0
302.163,302.2708,86,76,0
302.2351,302.34167,87,78,0
302.3063,302.4053,86,79,0
302.3769,302.50473,89,96,0
302.46213,302.58997,87,94,0
302.54733,302.61127,86,91,0
302.63257,302.6752,84,89,0
302.7178,302.84564,87,92,0
302.80304,302.93088,86,91,0
302.88824,302.95218,84,89,0
302.97348,303.01608,82,87,0
303.05872,303.18655,86,91,0
303.14395,303.2718,84,89,0
303.22916,303.2931,82,87,0
303.3144,303.357,81,85,0
303.39963,303.52747,84,89,0
303.48483,303.6127,82,88,0
303.57007,303.634,81,86,0
303.6553,303.6979,79,88,0
303.74054,303.99493,82,90,0
304.08014,304.16537,79,80,0
303.91,304.16537,81,82,0
304.25095,304.33664,77,75,0
304.42236,304.68115,81,81,0
304.76785,304.85455,77,71,0
304.5948,304.85455,79,74,0
304.9416,305.0288,75,67,0
305.11603,305.37933,79,72,0
305.4676,305.55582,75,65,0
305.29144,305.55582,77,68,0
305.6444,305.73315,74,62,0
305.82193,306.2505,77,64,0
306.17905,306.5362,75,60,0
306.5362,306.71478,74,56,0
306.89334,307.07193,72,52,0
307.2503,307.3421,70,51,0
307.44247,307.53824,72,49,0
307.63635,307.737,73,48,0
307.84027,307.94623,74,46,0
308.05508,309.35886,75,47,0
309.35886,310.93698,76,40,0
310.93774,311.4832,77,60,0
311.48242,311.66425,74,53,0
311.66425,311.75516,70,55,0
312.0279,312.12222,70,55,0
312.40524,312.47797,75,60,0
312.47797,312.5507,77,47,0
312.5507,312.6234,75,47,0
312.6234,312.69617,74,47,0
312.69617,312.7689,75,49,0
312.7689,313.1325,79,55,0
313.1325,313.49948,69,57,0
313.68298,313.86646,69,52,0
313.86646,314.04828,72,55,0
314.04828,314.1392,70,53,0
314.2301,314.41193,74,57,0
314.41193,314.50284,72,54,0
314.59372,314.77554,75,58,0
314.77554,314.86646,74,56,0
314.95737,315.142,77,60,0
315.142,315.23428,75,57,0
315.3266,315.87537,74,60,0
315.87537,315.96686,75,57,0
315.96686,316.05832,74,54,0
316.05832,316.24124,72,52,0
316.24124,316.4293,74,58,0
316.4293,316.61942,75,64,0
316.61942,316.81125,76,69,0
316.81125,317.35672,77,76,0
317.35672,317.41733,75,68,0
317.41733,317.47794,74,68,0
317.47794,317.53854,72,68,0
317.53854,317.71872,70,72,0
317.71872,317.8088,70,65,0
317.8989,317.99176,70,65,0
318.08466,318.17752,70,65,0
318.27042,318.34314,75,78,0
318.34314,318.41586,77,60,0
318.41586,318.4886,75,60,0
318.4886,318.5613,74,60,0
318.5613,318.63403,75,60,0
318.63403,318.99768,79,71,0
318.99768,319.36133,69,75,0
319.54312,319.72495,77,77,0
319.72495,319.84616,74,84,0
319.84616,319.96738,77,74,0
319.96738,320.0886,82,78,0
320.0886,320.2098,79,89,0
320.2098,320.33102,75,76,0
320.33102,320.45224,72,76,0
320.45224,320.57343,77,88,0
320.57343,320.69464,74,76,0
320.69464,320.81586,70,76,0
320.81586,320.93933,75,85,0
320.93933,321.06277,72,76,0
321.06277,321.18622,69,76,0
321.18622,321.3097,70,90,0
321.3097,321.40228,82,86,0
321.43314,321.52573,82,82,0
321.5566,321.6492,82,87,0
321.68005,321.77264,82,79,0
321.80353,321.89612,82,80,0
321.92697,322.0468,82,86,0
322.0468,322.1671,81,77,0
322.1671,322.28787,79,77,0
322.28787,322.40918,77,81,0
322.40918,322.53094,75,78,0
322.53094,322.65317,74,77,0
322.65317,322.77588,72,88,0
322.77588,322.8679,79,77,0
322.8986,322.9906,79,77,0
323.02127,323.1133,79,83,0
323.14398,323.236,79,76,0
323.26666,323.38937,79,76,0
323.38937,323.50986,79,80,0
323.50986,323.63034,77,76,0
323.63034,323.75082,75,75,0
323.75082,323.8713,74,78,0
323.8713,323.9918,75,73,0
323.9918,324.11227,72,73,0
324.11227,324.2207,76,81,0
324.20264,324.31107,77,83,0
324.293,324.40143,79,85,0
324.38336,324.49173,77,83,0
324.47372,324.58197,75,80,0
324.5639,324.6726,74,79,0
324.65445,324.76367,72,77,0
324.74545,324.83682,70,76,0
324.83682,324.89798,72,74,0
324.89798,324.95914,74,68,0
324.95914,325.02048,72,68,0
325.02048,325.08188,74,66,0
325.08188,325.14343,72,63,0
325.14343,325.20505,74,66,0
325.20505,325.26678,72,66,0
325.26678,325.3287,74,66,0
325.3287,325.39066,72,66,0
325.39066,325.48383,70,69,0
325.48383,325.5773,72,69,0
325.5773,325.67105,70,74,0
325.7648,325.85855,82,74,0
325.85855,325.9523,81,72,0
325.9523,326.04404,82,74,0
326.04404,326.13577,81,70,0
326.13577,326.2275,82,74,0
326.2275,326.31927,81,71,0
326.31927,326.41074,82,74,0
326.41074,326.5022,81,74,0
326.5022,326.59357,79,73,0
326.59357,326.68475,77,72,0
326.68475,326.77594,75,71,0
326.77594,326.86694,74,70,0
326.86694,326.95786,72,70,0
326.95786,327.04877,70,69,0
327.04877,327.1422,67,77,0
327.23566,327.3277,79,75,0
327.3277,327.4197,78,72,0
327.4197,327.51175,79,75,0
327.51175,327.60376,78,71,0
327.60376,327.6958,79,75,0
327.6958,327.7878,78,72,0
327.7878,327.8804,79,74,0
327.8804,327.97275,77,74,0
327.97275,328.06488,75,73,0
328.06488,328.15677,74,72,0
328.15677,328.24838,72,71,0
328.24838,328.33975,70,70,0
328.33975,328.43088,69,70,0
328.43088,328.52173,67,69,0
328.52173,328.70694,65,77,0
328.70694,328.81735,67,70,0
328.79895,328.9091,69,72,0
328.89075,329.00055,70,73,0
328.98224,329.09177,72,74,0
329.07352,329.1827,74,76,0
329.16452,329.27344,75,77,0
329.2553,329.36386,77,79,0
329.3458,329.4541,79,80,0
329.43607,329.54404,81,82,0
329.52606,329.63376,82,83,0
329.61584,329.7232,84,84,0
329.70535,329.81244,86,86,0
329.79465,329.90143,87,87,0
329.88367,329.9909,89,89,0
329.9724,330.03412,82,71,0
330.03412,330.0955,84,66,0
330.0955,330.1569,86,67,0
330.1569,330.2175,84,72,0
330.2175,330.27863,86,69,0
330.27863,330.33868,84,73,0
330.33868,330.39917,86,69,0
330.39917,330.4597,84,74,0
330.4597,330.5199,86,71,0
330.5199,330.57993,84,75,0
330.57993,330.6403,86,71,0
330.6403,330.7007,84,75,0
330.7007,330.76096,86,71,0
330.76096,330.82126,84,77,0
330.82126,330.88168,86,73,0
330.88168,330.9422,84,79,0
330.9422,331.0028,86,74,0
331.0028,331.06354,84,79,0
331.06354,331.15482,86,82,0
331.15482,331.24634,84,79,0
331.24634,331.33807,82,87,0
331.33807,331.43008,84,85,0
331.43008,331.7982,82,93,0
332.71283,332.90515,70,51,0
332.90515,333.45392,80,54,0
333.45392,333.63684,77,52,0
333.63684,333.81976,74,50,0
334.0027,334.18564,74,51,0
334.36856,334.55374,75,56,0
334.73892,334.9241,77,57,0
335.10928,335.29446,79,61,0
335.66486,335.84668,79,53,0
335.84668,336.0485,77,57,0
336.03015,336.232,75,57,0
336.21365,336.41547,74,56,0
336.39713,336.59897,72,56,0
336.5806,336.78244,70,55,0
336.7641,336.96646,69,55,0
336.94757,337.15512,75,62,0
337.13626,337.32495,69,58,0
337.32495,337.41586,70,58,0
337.50674,337.59766,72,60,0
337.68857,337.77948,74,61,0
337.8704,337.9613,75,63,0
338.05222,338.14377,76,65,0
338.23584,338.3285,77,67,0
338.4216,338.5153,78,69,0
338.60956,338.70435,79,71,0
338.7997,339.34518,80,73,0
339.34518,339.4058,79,58,0
339.4058,339.4664,77,58,0
339.4664,339.527,75,58,0
339.527,339.6179,74,63,0
339.7088,339.7997,74,60,0
339.89062,339.98154,74,64,0
340.07245,340.16336,74,60,0
340.25427,340.62238,75,66,0
340.62238,340.68372,77,59,0
340.68372,340.74506,79,59,0
340.74506,340.80643,77,60,0
340.80643,340.85242,79,60,0
340.86777,340.9138,77,60,0
340.89844,340.94446,75,59,0
340.94446,340.99045,77,63,0
340.99045,341.35855,79,66,0
341.5426,341.72665,79,55,0
341.72665,341.9291,77,59,0
341.9107,342.11316,75,58,0
342.09476,342.2972,74,57,0
342.2788,342.48148,72,57,0
342.46286,342.66782,70,56,0
342.6492,342.85464,69,56,0
342.8355,343.04572,75,60,0
343.0266,343.2368,69,57,0
343.21768,343.59985,70,61,0
343.79095,343.97614,74,53,0
343.97614,344.16132,77,56,0
344.16132,344.3465,75,54,0
344.3465,344.53458,72,54,0
344.53458,344.72266,69,54,0
344.72266,345.09885,70,57,0
345.28693,345.38562,74,50,0
345.38562,345.4843,70,48,0
345.4843,345.676,77,54,0
345.676,345.86768,75,51,0
345.86768,346.06378,72,51,0
346.06378,346.25986,69,49,0
346.25986,346.67508,70,55,0
346.87115,347.06723,77,91,0
347.06723,347.2633,77,96,0
347.06723,347.2633,81,96,0
347.06723,347.2633,72,81,0
347.06723,347.2633,75,81,0
347.45938,347.66278,81,96,0
347.45938,347.66278,72,81,0
347.45938,347.66278,75,81,0
347.45938,347.66278,77,96,0
347.86618,348.06955,82,99,0
347.86618,348.06955,74,84,0
347.86618,348.06955,77,99,0
347.86618,348.06955,70,84,0
0.363636,0.727272,58,42,0
0.727272,0.818181,62,48,0
1.090908,1.1852475,67,47,0
1.468266,1.831902,60,52,0
1.831902,1.922811,63,47,0
2.195538,2.56251,65,48,0
2.56251,2.929482,63,46,0
2.929482,3.293118,62,53,0
3.293118,3.656754,57,47,0
3.656754,4.02039,58,51,0
4.02039,4.389621,60,51,0
4.02039,4.389621,51,51,0
4.389621,5.121329,58,52,0
5.121329,5.4923086,57,47,0
4.389621,5.4923086,53,52,0
6.2379184,6.6015544,58,39,0
6.6015544,6.691644,62,47,0
6.9619145,7.054794,67,46,0
7.3334312,7.6970673,60,51,0
7.6970673,7.7879763,63,45,0
8.060703,8.424339,65,48,0
8.424339,8.787975,63,43,0
8.787975,9.151384,62,51,0
9.151384,9.517659,63,47,0
9.151384,9.517659,51,47,0
9.517659,9.892659,62,50,0
9.892659,10.267659,60,48,0
9.517659,10.267659,53,50,0
10.267659,10.637947,58,51,0
11.732833,11.914651,58,64,0
11.914651,12.096469,65,54,0
12.096469,12.278287,62,59,0
12.278287,12.460105,65,54,0
12.460105,12.641923,55,63,0
12.641923,12.823741,62,56,0
12.823741,13.008926,58,59,0
13.008926,13.194111,62,55,0
13.194111,13.375929,51,64,0
13.375929,13.557747,60,54,0
13.557747,13.739565,55,59,0
13.739565,13.921383,60,55,0
13.921383,14.104869,53,64,0
14.104869,14.288355,63,54,0
14.288355,14.471841,60,60,0
14.471841,14.655327,63,56,0
14.655327,15.018963,62,66,0
15.018963,15.382599,57,60,0
15.382599,15.746235,58,64,0
15.018963,15.746235,62,60,0
15.746235,16.115465,60,64,0
15.746235,16.115465,51,64,0
16.115465,16.847174,58,65,0
16.847174,17.218153,57,60,0
16.115465,17.218153,53,65,0
17.600128,17.781946,58,65,0
17.781946,17.963764,65,55,0
17.963764,18.145582,62,60,0
18.145582,18.3274,65,55,0
18.3274,18.41749,55,64,0
18.50758,18.59767,62,57,0
18.68776,18.78064,58,60,0
18.873518,18.966396,62,57,0
19.059277,19.241095,51,64,0
19.241095,19.422913,60,55,0
19.422913,19.60473,55,59,0
19.60473,19.786549,60,55,0
19.786549,19.968367,53,64,0
19.968367,20.150185,63,55,0
20.150185,20.33537,60,59,0
20.33537,20.516092,63,55,0
20.516092,20.877539,50,59,0
20.877539,21.238985,51,55,0
20.516092,21.238985,58,59,0
21.238985,21.600977,62,59,0
21.600977,21.965166,63,56,0
21.238985,21.965166,53,59,0
21.965166,22.356045,62,59,0
21.965166,22.356045,58,59,0
22.356045,22.741358,46,64,0
23.898203,24.043835,58,48,0
24.286552,24.674902,55,48,0
24.674902,25.067059,51,45,0
25.067059,25.459217,53,47,0
25.459217,25.843384,41,55,0
27.000645,27.144875,60,45,0
27.38526,27.778702,57,45,0
27.778702,28.172146,53,42,0
28.172146,28.565588,58,46,0
28.565588,28.948645,46,65,0
29.872683,30.056076,57,53,0
30.056076,30.237894,60,57,0
30.237894,30.419712,57,53,0
30.419712,30.783348,65,67,0
31.335537,31.521296,55,53,0
31.521296,31.702019,58,58,0
31.702019,31.88274,55,54,0
31.88274,32.244186,64,66,0
32.60664,32.972744,65,69,0
33.697777,34.072834,53,53,0
34.072834,34.25632,48,53,0
34.25632,34.439808,60,47,0
34.439808,34.623295,59,49,0
34.623295,34.811382,60,47,0
34.811382,34.9932,58,54,0
34.9932,35.17502,60,50,0
35.17502,35.356834,58,45,0
35.356834,35.538654,60,41,0
35.538654,35.72047,57,48,0
35.72047,35.909744,60,45,0
35.909744,36.09323,57,51,0
36.09323,36.27672,60,47,0
36.27672,36.458534,58,53,0
36.458534,36.640354,60,50,0
36.640354,36.82217,58,47,0
36.82217,37.00399,60,43,0
37.00399,37.185806,57,46,0
37.185806,37.367626,60,36,0
37.367626,37.549442,57,43,0
37.549442,37.7381,60,36,0
37.7381,37.919914,58,56,0
37.919914,38.101734,60,55,0
38.101734,38.28355,58,49,0
38.28355,38.467037,60,46,0
38.467037,38.650524,57,48,0
38.650524,38.834007,60,45,0
38.834007,39.017216,57,50,0
39.017216,39.19931,60,47,0
39.19931,39.38058,58,53,0
39.38058,39.561848,60,50,0
39.561848,39.74312,58,48,0
39.74312,39.924385,60,45,0
39.924385,40.106205,57,53,0
40.106205,40.28802,60,49,0
40.28802,40.46984,57,53,0
40.46984,40.651657,60,49,0
40.651657,40.832157,58,54,0
40.832157,41.01338,60,48,0
41.01338,41.195614,58,57,0
41.195614,41.37882,60,52,0
41.37882,41.745792,57,64,0
42.471653,42.836536,57,71,0
42.471653,42.836536,65,71,0
42.836536,43.201557,65,81,0
42.836536,43.201557,58,81,0
43.922962,44.284954,58,51,0
43.922962,44.284954,67,51,0
43.922962,44.284954,65,51,0
44.284954,44.466774,60,55,0
44.466774,44.64859,69,51,0
44.64859,44.83041,65,56,0
44.83041,45.012226,69,51,0
45.012226,45.194046,60,55,0
45.194046,45.375862,70,49,0
45.375862,45.557682,64,55,0
45.557682,45.7395,70,49,0
45.7395,46.1025,65,55,0
46.284042,46.466274,67,61,0
46.466274,46.828506,69,66,0
47.009502,47.19118,57,60,0
47.19118,47.55254,58,66,0
47.915905,48.27918,46,67,0
47.915905,48.27918,34,67,0
48.645927,48.828297,48,57,0
48.828297,49.010117,57,54,0
49.010117,49.191383,53,57,0
49.191383,49.37211,57,54,0
49.37211,49.552288,48,63,0
49.552288,49.73193,57,57,0
49.73193,49.911034,53,67,0
49.911034,50.093422,57,61,0
50.093422,50.284996,48,57,0
50.284996,50.46998,58,53,0
50.46998,50.65282,52,57,0
50.65282,50.833763,58,53,0
50.833763,51.014942,48,57,0
51.014942,51.197468,58,53,0
51.197468,51.381847,52,57,0
51.381847,51.57312,58,52,0
51.57312,51.664032,57,57,0
51.57312,51.664032,53,57,0
51.936756,52.300392,53,47,0
51.936756,52.300392,57,47,0
52.66403,53.027664,53,47,0
52.66403,53.027664,57,47,0
53.027664,53.118576,53,50,0
53.027664,53.118576,58,50,0
53.027664,53.118576,55,50,0
53.3913,53.754936,58,50,0
53.3913,53.754936,55,50,0
53.3913,53.754936,53,50,0
54.118572,54.48221,59,54,0
54.118572,54.48221,56,54,0
54.118572,54.48221,53,54,0
54.48221,54.84622,57,55,0
54.48221,54.84622,60,55,0
54.84622,55.214413,61,61,0
54.84622,55.214413,57,61,0
54.48221,55.214413,53,55,0
55.214413,55.58685,62,66,0
55.214413,55.58685,58,66,0
55.58685,55.96367,62,71,0
55.58685,55.96367,59,71,0
55.214413,55.96367,53,66,0
55.96367,57.422638,63,77,0
55.96367,57.422638,53,77,0
55.96367,57.422638,60,77,0
59.34734,59.710976,58,45,0
59.710976,59.801884,62,48,0
60.07461,60.16895,67,46,0
60.45197,60.815605,60,52,0
60.815605,60.906513,63,46,0
61.17924,61.54621,65,48,0
61.54621,61.913185,63,46,0
61.913185,62.27682,62,53,0
62.27682,62.640457,57,47,0
62.640457,63.004093,58,51,0
63.004093,63.37332,51,49,0
63.004093,63.37332,60,49,0
63.37332,64.105034,58,52,0
64.105034,64.47601,57,47,0
63.37332,64.47601,53,52,0
65.22162,65.58526,58,41,0
65.58526,65.67535,62,47,0
65.94562,66.0385,67,45,0
66.31713,66.68077,60,51,0
66.68077,66.771675,63,47,0
67.0444,67.40804,65,48,0
67.40804,67.771675,63,45,0
67.771675,68.135086,62,51,0
68.135086,68.50136,51,47,0
68.135086,68.50136,63,47,0
68.50136,68.87636,62,50,0
68.87636,69.25136,60,48,0
68.50136,69.25136,53,50,0
69.25136,69.62165,58,51,0
70.71654,70.89835,58,64,0
70.89835,71.08017,65,54,0
71.08017,71.261986,62,59,0
71.261986,71.44381,65,54,0
71.44381,71.625626,55,63,0
71.625626,71.80744,62,55,0
71.80744,71.99263,58,59,0
71.99263,72.17781,62,55,0
72.17781,72.359634,51,64,0
72.359634,72.54145,60,56,0
72.54145,72.72327,55,59,0
72.72327,72.90508,60,55,0
72.90508,73.08857,53,64,0
73.08857,73.27206,63,56,0
73.27206,73.45554,60,60,0
73.45554,73.63903,63,56,0
73.63903,74.00266,62,66,0
74.00266,74.3663,57,57,0
74.3663,74.729935,58,64,0
74.00266,74.729935,62,57,0
74.729935,75.09917,60,64,0
74.729935,75.09917,51,64,0
75.09917,75.83088,58,65,0
75.83088,76.20186,57,60,0
75.09917,76.20186,53,65,0
76.58383,76.76565,58,65,0
76.76565,76.947464,65,55,0
76.947464,77.12928,62,60,0
77.12928,77.311104,65,55,0
77.311104,77.40119,55,64,0
77.49128,77.581375,62,56,0
77.67146,77.76434,58,60,0
77.85722,77.950096,62,55,0
78.04298,78.2248,51,64,0
78.2248,78.40662,60,55,0
78.40662,78.58843,55,59,0
78.58843,78.77025,60,55,0
78.77025,78.95207,53,64,0
78.95207,79.13389,63,55,0
79.13389,79.31907,60,59,0
79.31907,79.499794,63,54,0
79.499794,79.861244,50,59,0
79.861244,80.22269,51,56,0
79.499794,80.22269,58,59,0
80.22269,80.58468,62,59,0
80.58468,80.94887,63,56,0
80.22269,80.94887,53,59,0
80.94887,81.339745,58,59,0
80.94887,81.339745,62,59,0
81.339745,81.72506,46,63,0
82.881905,83.027534,58,46,0
83.270256,83.65861,55,48,0
83.65861,84.05076,51,46,0
84.05076,84.44292,53,47,0
84.44292,84.82709,41,57,0
85.984344,86.12858,60,45,0
86.36896,86.762405,57,45,0
86.762405,87.155846,53,42,0
87.155846,87.54929,58,46,0
87.54929,87.93293,46,58,0
89.07794,89.37662,58,53,0
89.07794,89.37662,62,53,0
89.476616,89.7783,62,56,0
89.476616,89.7783,58,56,0
89.8793,90.184044,58,60,0
89.8793,90.184044,62,60,0
90.28609,91.04132,60,68,0
90.28609,91.04132,57,68,0
91.04132,91.79251,50,54,0
91.04132,91.79251,57,54,0
91.99318,92.1801,55,52,0
92.1801,92.36701,57,54,0
92.36701,92.50744,58,57,0
92.56182,92.753204,58,57,0
92.753204,92.89197,57,55,0
92.94582,93.13969,57,55,0
93.13969,93.28595,55,54,0
91.79251,93.33481,51,53,0
93.33481,93.72697,54,47,0
93.33481,93.72697,50,47,0
94.903435,95.09952,55,58,0
95.09952,95.29559,58,50,0
95.29559,95.48021,62,54,0
95.48021,95.664825,58,50,0
95.664825,95.84944,55,54,0
95.84944,96.03406,58,47,0
96.03406,96.22886,62,50,0
96.22886,96.42367,58,47,0
96.42367,96.61847,55,58,0
96.61847,96.81328,60,51,0
96.81328,96.99732,63,54,0
96.99732,97.18137,60,51,0
97.18137,97.365425,55,53,0
97.365425,97.54947,60,49,0
97.54947,97.739944,63,51,0
97.739944,97.93042,60,48,0
97.93042,98.120895,53,58,0
98.120895,98.31138,60,51,0
98.31138,98.49542,63,54,0
98.49542,98.679474,60,51,0
98.679474,98.863525,55,56,0
98.863525,99.04757,60,50,0
99.04757,99.24559,63,52,0
99.24559,99.44361,60,49,0
99.44361,99.64163,55,53,0
99.64163,99.83965,58,50,0
99.83965,100.037674,62,50,0
100.997505,101.387115,63,50,0
100.997505,101.387115,57,50,0
100.997505,101.387115,60,50,0
101.387115,101.57699,62,46,0
101.387115,101.57699,58,46,0
102.55781,102.94366,60,49,0
102.55781,102.94366,57,49,0
102.55781,102.94366,63,49,0
102.94366,103.136635,62,45,0
102.94366,103.136635,58,45,0
104.127815,104.91752,58,53,0
104.91752,105.70793,55,47,0
104.127815,105.70793,51,53,0
105.70793,106.093834,54,40,0
105.70793,106.10139,57,40,0
106.11061,106.40569,57,34,0
106.11061,106.40569,54,28,0
106.11061,106.40569,50,28,0
106.50406,106.80306,57,35,0
106.50406,106.80306,54,29,0
106.50406,106.80306,50,29,0
106.902725,107.20885,57,34,0
106.902725,107.20885,54,28,0
106.902725,107.20885,50,28,0
107.71041,108.00357,50,27,0
107.71041,108.00357,57,37,0
107.71041,108.00357,53,27,0
108.10129,108.39445,50,27,0
108.10129,108.39445,57,37,0
108.10129,108.39445,53,27,0
108.49217,108.81708,50,26,0
108.49217,108.81708,57,36,0
108.49217,108.81708,53,26,0
109.31626,109.60942,53,38,0
109.31626,109.60942,58,51,0
109.31626,109.60942,50,38,0
109.70714,110.0003,58,56,0
109.70714,110.0003,53,41,0
109.70714,110.0003,50,41,0
110.09802,110.407295,58,60,0
110.09802,110.407295,53,45,0
110.09802,110.407295,50,45,0
110.9,111.19221,46,45,0
110.9,111.19221,53,60,0
111.28961,111.58182,53,63,0
111.28961,111.58182,46,48,0
111.67922,111.97143,46,45,0
111.67922,111.97143,53,60,0
112.06883,112.45844,51,63,0
112.06883,112.45844,39,48,0
112.45844,112.822075,51,46,0
112.822075,113.185715,55,41,0
113.185715,113.55381,56,38,0
113.55381,113.921906,55,44,0
113.921906,114.28726,50,35,0
114.28726,114.65797,51,41,0
114.65797,115.04259,53,46,0
115.42233,115.785965,46,41,0
115.785965,116.149605,50,45,0
116.149605,116.5177,49,41,0
116.5177,116.8858,50,47,0
116.8858,117.249435,52,38,0
117.249435,117.613075,53,42,0
117.613075,118.005226,50,48,0
118.005226,118.381485,51,50,0
118.381485,118.741844,39,45,0
119.1022,119.47586,63,49,0
119.1022,119.47586,55,49,0
119.8384,120.21028,63,47,0
119.8384,120.21028,56,47,0
120.57282,120.94413,63,46,0
120.57282,120.94413,60,46,0
120.94413,121.12595,63,46,0
120.94413,121.12595,58,46,0
121.30722,121.48849,46,58,0
122.032295,122.401886,63,47,0
122.032295,122.401886,55,47,0
122.762245,123.13353,63,47,0
122.762245,123.13353,56,47,0
123.49717,123.870186,60,47,0
123.49717,123.870186,63,47,0
123.870186,124.06066,58,52,0
123.870186,124.06066,63,52,0
124.25114,124.44161,46,62,0
124.997765,125.37117,63,47,0
124.997765,125.37117,60,47,0
125.74384,126.11725,55,49,0
125.74384,126.11725,63,49,0
126.11725,126.4831,63,52,0
126.11725,126.4831,56,52,0
126.4831,126.84895,53,55,0
126.4831,126.84895,56,55,0
126.84895,127.214806,55,56,0
126.84895,127.214806,58,56,0
127.214806,127.58066,58,57,0
127.214806,127.58066,55,57,0
127.58066,127.94652,58,57,0
127.58066,127.94652,56,57,0
127.58066,127.94652,53,57,0
127.94652,128.31236,58,59,0
127.94652,128.31236,55,59,0
127.94652,128.31236,51,59,0
128.31236,128.68388,58,65,0
128.31236,128.68388,53,65,0
128.31236,128.68388,50,65,0
129.78145,130.14731,70,48,0
129.78145,130.14731,63,48,0
130.14731,130.51315,56,47,0
130.14731,130.51315,68,47,0
130.51315,130.88239,67,48,0
130.88239,131.27327,65,45,0
130.51315,131.27327,58,48,0
131.27327,131.64594,58,68,0
131.27327,131.64594,53,68,0
131.27327,131.64594,50,68,0
132.7435,133.10936,70,46,0
132.7435,133.10936,63,46,0
133.10936,133.4752,56,43,0
133.10936,133.4752,68,43,0
133.4752,133.84558,67,46,0
133.84558,134.23143,65,43,0
133.4752,134.23143,58,46,0
134.98994,135.74478,63,44,0
134.98994,135.74478,67,44,0
135.74478,136.48749,71,49,0
135.74478,136.49144,62,49,0
136.49144,136.86998,68,46,0
136.49144,136.86998,65,46,0
137.24275,137.60971,63,40,0
137.60971,137.97668,59,42,0
137.97668,138.33923,60,45,0
138.33923,138.70625,62,46,0
137.24275,138.70625,67,40,0
138.70625,139.06879,63,42,0
139.06879,139.43134,59,46,0
139.43134,139.7947,60,49,0
138.70625,139.7947,67,42,0
140.8963,141.63145,62,41,0
140.8963,141.63145,65,41,0
141.63145,142.35715,69,49,0
141.63145,142.36095,60,49,0
142.36095,142.73247,63,40,0
142.36095,142.73247,66,40,0
143.10115,143.467,61,42,0
143.467,143.83286,57,44,0
143.83286,144.21022,58,47,0
144.21022,144.5807,60,42,0
143.10115,144.5807,65,42,0
144.5807,144.94435,61,43,0
144.94435,145.30798,57,46,0
145.30798,145.68181,58,48,0
144.5807,145.68181,65,43,0
145.68181,146.05,65,44,0
145.68181,146.05,58,44,0
146.41698,146.77841,56,49,0
146.41698,146.77841,65,49,0
147.14316,147.50461,61,49,0
147.14316,147.50461,54,49,0
147.87497,148.23973,62,49,0
147.87497,148.23973,53,49,0
148.6067,148.97034,51,58,0
148.6067,148.97034,63,58,0
149.33731,149.69984,61,66,0
149.33731,149.69984,53,66,0
150.0657,150.43156,54,71,0
150.0657,150.43156,61,71,0
150.43156,151.15067,64,71,0
151.15067,151.87685,58,76,0
150.43156,151.87685,54,71,0
151.87685,152.59975,57,74,0
152.59975,153.33044,58,65,0
151.87685,153.33044,53,74,0
153.33044,154.05333,57,59,0
154.05333,154.79637,58,47,0
153.33044,154.79637,53,59,0
154.79637,154.97284,65,47,0
154.98212,155.16788,65,47,0
155.35025,155.5235,65,45,0
155.53262,155.70587,65,47,0
155.715,155.89737,65,47,0
156.08545,156.26414,65,44,0
156.27354,156.44893,65,47,0
156.45816,156.64278,65,47,0
156.82404,156.99625,65,44,0
157.00531,157.17752,65,47,0
157.18658,157.37828,65,47,0
157.56232,157.73717,65,47,0
157.74637,158.1032,65,53,0
157.74637,158.1032,53,53,0
158.11,158.47365,57,50,0
158.11,158.47365,53,50,0
158.83728,159.20091,57,50,0
158.83728,159.20091,53,50,0
159.20091,159.55774,58,53,0
159.20091,159.55774,55,53,0
159.20091,159.55774,53,53,0
159.56454,159.92819,55,50,0
159.56454,159.92819,58,50,0
159.56454,159.92819,53,50,0
160.29182,160.65546,56,54,0
160.29182,160.65546,59,54,0
160.29182,160.65546,53,54,0
160.65546,161.01947,57,55,0
160.65546,161.01947,60,55,0
161.01947,161.38766,61,61,0
161.01947,161.38766,57,61,0
160.65546,161.38766,53,55,0
161.38766,161.7601,58,66,0
161.38766,161.7601,62,66,0
161.7601,162.13692,62,71,0
161.7601,162.13692,59,71,0
161.38766,162.13692,53,66,0
162.13692,163.59589,53,77,0
162.13692,163.59589,60,77,0
162.13692,163.59589,63,77,0
165.48009,165.84373,58,42,0
165.84373,165.93463,62,48,0
166.20737,166.3017,67,46,0
166.58472,166.94836,60,52,0
166.94836,167.03926,63,46,0
167.312,167.67897,65,48,0
167.67897,168.04594,63,47,0
168.04594,168.40958,62,53,0
168.40958,168.77321,57,47,0
168.77321,169.13684,58,51,0
169.13684,169.50607,60,51,0
169.13684,169.50607,51,51,0
169.50607,170.23778,58,52,0
170.23778,170.60876,57,47,0
169.50607,170.60876,53,52,0
171.35437,171.718,58,45,0
171.718,171.8081,62,47,0
172.07837,172.17125,67,47,0
172.44989,172.81352,60,51,0
172.81352,172.90443,63,46,0
173.17715,173.5408,65,48,0
173.5408,173.90443,63,48,0
173.90443,174.26784,62,51,0
174.26784,174.63411,63,47,0
174.26784,174.63411,51,47,0
174.63411,175.00911,62,50,0
175.00911,175.38411,60,48,0
174.63411,175.38411,53,50,0
175.38411,175.75441,58,51,0
176.84929,177.03111,58,64,0
177.03111,177.21292,65,56,0
177.21292,177.39474,62,59,0
177.39474,177.57655,65,56,0
177.57655,177.75838,55,63,0
177.75838,177.9402,62,57,0
177.9402,178.12538,58,59,0
178.12538,178.31056,62,56,0
178.31056,178.49239,51,64,0
178.49239,178.67421,60,56,0
178.67421,178.85602,55,59,0
178.85602,179.03784,60,56,0
179.03784,179.22133,53,64,0
179.22133,179.40482,63,57,0
179.40482,179.5883,60,60,0
179.5883,179.77179,63,57,0
179.77179,180.13542,62,66,0
180.13542,180.49905,57,60,0
180.49905,180.86269,58,64,0
180.13542,180.86269,65,60,0
180.86269,181.23192,60,58,0
180.86269,181.23192,51,58,0
181.23192,181.96362,58,65,0
181.96362,182.33461,57,60,0
181.23192,182.33461,53,65,0
182.71658,182.8984,58,65,0
182.8984,183.08022,65,57,0
183.08022,183.26204,62,60,0
183.26204,183.44385,65,56,0
183.44385,183.53395,55,64,0
183.62404,183.71413,62,57,0
183.80421,183.8971,58,60,0
183.98997,184.08286,62,57,0
184.17574,184.35754,51,64,0
184.35754,184.53937,60,56,0
184.53937,184.72119,55,59,0
184.72119,184.903,60,56,0
184.903,185.08482,53,64,0
185.08482,185.26663,63,56,0
185.26663,185.45183,60,59,0
185.45183,185.63255,63,55,0
185.63255,185.99399,50,59,0
185.99399,186.35544,51,57,0
185.63255,186.35544,58,59,0
186.35544,186.71744,62,59,0
186.71744,187.08162,63,57,0
186.35544,187.08162,53,59,0
187.08162,187.4725,62,59,0
187.08162,187.4725,58,59,0
187.4725,187.85782,46,63,0
189.01466,189.1603,58,47,0
189.40302,189.79135,55,48,0
189.79135,190.18352,51,46,0
190.18352,190.57567,53,47,0
190.57567,190.95984,41,57,0
192.1171,192.26134,60,45,0
192.50171,192.89516,57,45,0
192.89516,193.2886,53,45,0
193.2886,193.68204,58,46,0
193.68204,194.0651,46,70,0
195.18028,195.38028,38,53,0
195.18028,195.38028,50,59,0
195.58028,195.78027,50,64,0
195.58028,195.78027,38,57,0
195.98027,196.19688,36,52,0
195.98027,196.19688,48,58,0
196.41348,196.79688,35,51,0
196.41348,196.79688,47,57,0
196.79688,197.17206,59,66,0
197.53903,197.91054,58,47,0
197.53903,197.91054,67,47,0
197.91054,198.2964,67,48,0
197.91054,198.2964,60,48,0
198.2964,198.67091,48,55,0
199.76,199.96133,48,58,0
199.76,199.96133,36,52,0
200.16267,200.36401,36,55,0
200.16267,200.36401,48,62,0
200.56535,200.78275,46,58,0
200.56535,200.78275,34,52,0
201.00014,201.38353,33,51,0
201.00014,201.38353,45,57,0
201.38353,201.75926,57,60,0
202.12737,202.49889,65,44,0
202.12737,202.49889,57,44,0
202.49889,202.88228,65,44,0
202.49889,202.88228,58,44,0
202.88228,203.24669,46,51,0
204.161,204.34561,51,52,0
204.34561,204.52957,58,55,0
204.52957,204.71281,55,51,0
204.71281,205.07729,60,60,0
205.6211,205.80237,53,57,0
205.80237,205.98363,58,60,0
205.98363,206.16737,56,54,0
206.16737,206.5299,62,68,0
207.08037,207.26385,55,54,0
207.26385,207.44513,63,58,0
207.44513,207.62639,58,54,0
207.62639,207.99303,67,65,0
208.54974,208.7338,50,55,0
208.7338,208.9156,58,58,0
208.9156,209.09743,53,55,0
209.09743,209.46162,62,64,0
210.55713,211.28171,55,70,0
211.28171,212.00609,60,74,0
209.82646,212.00609,51,73,0
212.00609,212.7353,52,70,0
212.00609,212.7353,60,70,0
212.7353,212.9184,53,65,0
212.9184,213.0999,60,60,0
213.0999,213.28094,57,68,0
213.28094,213.46153,60,66,0
213.46153,213.64166,53,69,0
213.64166,213.8213,60,65,0
213.8213,213.91304,57,71,0
214.00479,214.09653,60,66,0
214.18828,214.37033,53,65,0
214.37033,214.55138,62,58,0
214.55138,214.73192,58,66,0
214.73192,214.912,62,62,0
214.912,215.0916,53,69,0
215.0916,215.2707,62,64,0
215.2707,215.363,58,71,0
215.45532,215.54762,62,66,0
215.63994,215.82231,53,71,0
215.82231,216.00467,63,67,0
216.00467,216.18608,60,71,0
216.18608,216.36621,63,66,0
216.36621,216.5456,53,75,0
216.5456,216.72604,60,71,0
216.72604,216.9076,57,73,0
216.9076,217.09024,60,66,0
217.09024,217.27373,53,69,0
217.27373,217.4572,62,65,0
217.4572,217.64005,58,67,0
217.64005,217.821,62,63,0
217.821,218.00117,53,68,0
218.00117,218.18314,62,63,0
218.18314,218.3669,58,65,0
218.3669,218.55252,62,56,0
218.55252,218.64656,53,60,0
218.55252,218.64656,60,60,0
218.55252,218.64656,57,60,0
219.31705,219.49886,51,54,0
219.49886,219.68068,53,50,0
219.68068,219.8625,51,45,0
219.8625,220.04431,53,41,0
220.04431,220.22614,50,48,0
220.22614,220.4154,53,45,0
220.4154,220.59889,50,51,0
220.59889,220.78238,53,47,0
220.78238,220.9642,51,53,0
220.9642,221.14601,53,50,0
221.14601,221.32784,51,47,0
221.32784,221.50966,53,43,0
221.50966,221.69147,50,46,0
221.69147,221.87329,53,38,0
221.87329,222.0551,50,44,0
222.0551,222.24376,53,42,0
222.24376,222.42558,51,56,0
222.42558,222.60739,53,55,0
222.60739,222.78922,51,49,0
222.78922,222.9727,53,46,0
222.9727,223.15619,50,48,0
223.15619,223.33968,53,45,0
223.33968,223.52287,50,50,0
223.52287,223.70497,53,47,0
223.70497,223.88625,51,53,0
223.88625,224.0675,53,50,0
224.0675,224.24878,51,48,0
224.24878,224.43005,53,45,0
224.43005,224.61186,50,53,0
224.61186,224.79369,65,49,0
224.79369,224.97551,62,53,0
224.97551,225.15732,65,49,0
225.15732,225.33781,63,54,0
225.33781,225.51904,65,48,0
225.51904,225.70128,63,57,0
225.70128,225.88448,65,52,0
225.88448,226.25145,62,64,0
226.97731,227.3422,50,75,0
226.97731,227.3422,58,75,0
227.3422,227.70595,58,85,0
227.3422,227.70595,51,85,0
228.42911,228.79454,51,57,0
228.42911,228.79454,60,57,0
228.42911,228.79454,58,57,0
228.79454,228.97636,53,61,0
228.97636,229.15819,62,57,0
229.15819,229.34,58,62,0
229.34,229.52182,62,57,0
229.52182,229.70364,53,61,0
229.70364,229.88545,63,55,0
229.88545,230.06728,57,61,0
230.06728,230.24908,63,55,0
230.24908,230.61209,58,61,0
230.79364,230.97588,60,69,0
230.97588,231.3381,62,74,0
231.51909,231.70078,50,64,0
231.51909,231.70078,38,64,0
231.70078,232.06213,51,69,0
231.70078,232.06213,39,69,0
233.15552,234.60678,29,88,0
233.15552,234.60678,41,88,0
234.60678,234.96768,46,70,0
234.60678,234.96768,50,70,0
234.60678,234.96768,41,70,0
235.32913,235.69005,41,71,0
235.32913,235.69005,50,71,0
235.32913,235.69005,46,71,0
236.05258,236.41313,62,81,0
236.05258,236.41313,53,81,0
236.05258,236.41313,58,81,0
238.92696,239.11272,53,57,0
239.11272,239.29848,62,54,0
239.29848,239.47975,58,57,0
239.47975,239.66101,62,53,0
239.66101,239.84229,53,57,0
239.84229,240.02356,62,52,0
240.02356,240.20482,58,57,0
240.20482,240.3861,62,53,0
240.3861,240.5694,53,66,0
240.5694,240.75195,63,59,0
240.75195,240.93358,57,65,0
240.93358,241.1144,63,61,0
241.1144,241.29553,53,65,0
241.29553,241.47809,63,61,0
241.47809,241.6621,57,65,0
241.6621,241.84761,63,61,0
241.84761,242.21014,62,52,0
241.84761,242.21014,58,52,0
242.21014,242.5727,58,52,0
242.21014,242.5727,62,52,0
242.93523,243.29776,58,56,0
242.93523,243.29776,62,56,0
243.29776,243.66031,69,58,0
243.29776,243.66031,58,58,0
243.66031,244.02284,69,54,0
243.66031,244.02284,58,54,0
244.38538,244.74791,69,61,0
244.38538,244.74791,58,61,0
244.74791,245.11046,68,67,0
244.74791,245.11046,58,67,0
245.11046,245.47299,58,62,0
245.11046,245.47299,68,62,0
245.47299,245.83553,58,71,0
245.47299,245.83553,67,71,0
245.83553,246.19807,58,68,0
245.83553,246.19807,67,68,0
246.19807,246.56061,58,82,0
246.19807,246.56061,62,82,0
246.56061,246.92314,62,76,0
246.56061,246.92314,58,76,0
246.92314,247.28859,63,85,0
246.92314,247.28859,58,85,0
247.28859,247.66142,60,91,0
247.28859,247.66142,58,91,0
247.66142,247.75179,46,76,0
247.66142,247.75179,58,90,0
247.84215,247.93251,46,73,0
247.84215,247.93251,58,87,0
248.20358,248.38431,58,84,0
248.20358,248.38431,46,71,0
248.38431,248.47467,50,76,0
248.38431,248.47467,62,90,0
248.56503,248.6554,62,88,0
248.56503,248.6554,50,74,0
248.92648,249.10721,58,85,0
248.92648,249.10721,46,72,0
249.10721,249.19757,55,90,0
249.10721,249.19757,43,76,0
249.28793,249.37828,55,88,0
249.28793,249.37828,43,74,0
249.64937,249.8301,55,84,0
249.64937,249.8301,43,71,0
249.8301,249.92046,46,76,0
249.8301,249.92046,58,90,0
250.01082,250.10118,46,73,0
250.01082,250.10118,58,87,0
250.37227,250.55632,55,84,0
250.37227,250.55632,43,71,0
250.55632,250.64833,50,90,0
250.55632,250.64833,38,76,0
250.74036,250.83238,38,75,0
250.74036,250.83238,50,89,0
251.11105,251.30997,50,88,0
251.11105,251.30997,38,74,0
251.30997,251.41266,39,77,0
251.30997,251.41266,51,91,0
251.51794,251.6254,51,91,0
251.51794,251.6254,39,77,0
251.73581,251.84875,40,81,0
251.73581,251.84875,52,96,0
251.96474,252.08377,52,92,0
251.96474,252.08377,40,78,0
252.31279,253.70007,53,93,0
252.31279,253.70007,41,79,0
255.95538,256.1372,53,51,0
256.1372,256.319,62,45,0
256.319,256.50082,58,47,0
256.50082,256.68265,62,44,0
256.68265,256.86447,53,50,0
256.86447,257.0463,62,44,0
257.0463,257.23148,58,47,0
257.23148,257.41666,62,44,0
257.41666,257.59848,53,51,0
257.59848,257.7803,63,44,0
257.7803,257.9621,60,47,0
257.9621,258.14392,63,45,0
258.14392,258.32742,53,50,0
258.32742,258.5109,63,39,0
258.5109,258.6944,60,44,0
258.6944,258.88306,63,38,0
258.88306,259.06488,53,51,0
259.06488,259.2467,61,41,0
259.2467,259.42853,58,45,0
259.42853,259.61035,61,41,0
259.61035,259.79214,53,47,0
259.79214,259.97397,61,40,0
259.97397,260.15915,58,45,0
260.15915,260.34433,61,40,0
260.34433,260.52615,53,48,0
260.52615,260.70798,63,40,0
260.70798,260.8898,60,45,0
260.8898,261.07162,63,40,0
261.07162,261.2551,53,48,0
261.2551,261.4386,63,36,0
261.4386,261.62207,60,41,0
261.62207,261.80557,63,35,0
261.80557,262.17032,61,75,0
261.80557,262.17032,54,75,0
263.44745,263.62927,58,63,0
263.62927,263.8111,60,66,0
263.8111,263.89313,61,70,0
263.9986,264.18152,61,70,0
264.18152,264.26154,60,65,0
264.36444,264.54736,60,69,0
264.54736,264.63882,58,66,0
263.26398,264.7303,54,66,0
264.7303,264.8212,53,47,0
264.7303,264.8212,57,67,0
265.09393,265.45755,53,35,0
265.09393,265.45755,57,50,0
265.8212,266.18484,57,50,0
265.8212,266.18484,53,35,0
266.18484,266.27576,55,38,0
266.18484,266.27576,58,53,0
266.18484,266.27576,53,38,0
266.54846,266.9121,53,35,0
266.54846,266.9121,58,50,0
266.54846,266.9121,55,35,0
267.27576,267.63937,53,38,0
267.27576,267.63937,59,54,0
267.27576,267.63937,56,54,0
267.63937,268.0034,60,55,0
267.63937,268.0034,57,39,0
268.0034,268.37158,61,61,0
268.0034,268.37158,57,43,0
267.63937,268.37158,53,39,0
268.37158,268.74402,62,66,0
268.37158,268.74402,58,47,0
268.74402,269.12085,62,71,0
268.74402,269.12085,59,51,0
268.37158,269.12085,53,47,0
269.12085,270.5798,60,55,0
269.12085,270.5798,53,55,0
269.12085,270.5798,63,77,0
272.1209,272.31635,53,36,0
272.31635,272.4043,57,36,0
272.5118,272.70602,57,42,0
272.70602,272.79254,60,42,0
272.89758,273.08646,60,50,0
273.08646,273.17383,63,48,0
273.2791,273.46375,63,56,0
273.46375,273.55606,60,51,0
273.64835,273.8327,60,55,0
273.8327,273.91602,57,53,0
274.01816,274.2048,57,55,0
274.2048,274.39258,53,51,0
274.39258,274.58066,54,56,0
274.58066,274.76688,55,59,0
274.76688,274.9512,56,62,0
274.9512,275.1337,57,65,0
275.1337,275.22687,58,69,0
275.32004,275.4132,58,46,0
275.6866,275.77698,58,46,0
275.86746,275.9581,58,48,0
276.04895,276.13986,58,46,0
276.4138,276.50546,58,46,0
276.5972,276.69064,58,49,0
276.78412,276.87756,58,46,0
277.15134,277.2417,58,46,0
277.33234,277.4231,58,49,0
277.514,277.6052,58,46,0
277.87973,277.97162,58,45,0
278.06363,278.15594,58,48,0
278.24826,278.34058,58,51,0
278.61414,278.70477,58,57,0
278.7954,278.88605,58,60,0
278.97668,279.06732,58,64,0
279.3392,279.42984,58,70,0
279.52048,279.88303,59,66,0
279.88303,280.24722,59,66,0
279.88303,280.24722,47,56,0
280.24722,280.61307,48,60,0
280.24722,280.61307,60,71,0
280.61307,280.9767,46,56,0
280.61307,280.9767,58,66,0
280.9767,281.33817,57,72,0
280.9767,281.33817,45,61,0
281.33817,281.69962,45,56,0
281.33817,281.69962,57,66,0
281.69962,282.06107,58,69,0
281.69962,282.06107,46,58,0
282.06107,282.4247,45,56,0
282.06107,282.4247,57,66,0
282.4247,282.79056,43,59,0
282.4247,282.79056,55,70,0
282.79056,283.15585,55,66,0
282.79056,283.15585,43,56,0
283.15585,283.5206,45,58,0
283.15585,283.5206,57,69,0
283.5206,283.88647,55,66,0
283.5206,283.88647,43,56,0
283.88647,284.25345,42,57,0
283.88647,284.25345,54,68,0
284.25345,284.6182,42,56,0
284.25345,284.6182,54,66,0
284.6182,284.9807,55,70,0
284.6182,284.9807,43,59,0
284.9807,285.3455,41,56,0
284.9807,285.3455,53,66,0
285.3455,285.52896,51,73,0
285.3455,285.52896,39,62,0
285.52896,285.71246,55,65,0
285.71246,285.89594,58,65,0
285.89594,286.07666,55,65,0
286.07666,286.2574,51,71,0
286.2574,286.4381,55,65,0
286.4381,286.61884,58,65,0
286.61884,286.80176,55,60,0
286.80176,286.98468,53,69,0
286.98468,287.1676,56,60,0
287.1676,287.35052,58,65,0
287.35052,287.53018,56,60,0
287.53018,287.7098,53,69,0
287.7098,287.88947,56,61,0
287.88947,288.0691,58,65,0
288.0691,288.25146,56,61,0
288.25146,288.43384,55,71,0
288.43384,288.6162,58,64,0
288.6162,288.79858,63,68,0
288.79858,288.98096,58,65,0
288.98096,289.16333,50,78,0
289.16333,289.3457,56,66,0
289.3457,289.52808,58,71,0
289.52808,289.71045,56,69,0
289.71045,289.893,51,79,0
289.893,290.0763,63,72,0
290.0763,290.26053,48,82,0
290.26053,290.44553,60,73,0
290.44553,290.63086,50,83,0
290.63086,290.81845,62,76,0
290.81845,291.00824,45,84,0
291.00824,291.20044,57,78,0
291.20044,291.97464,58,90,0
291.20044,291.97464,46,90,0
291.97464,292.77463,54,89,0
291.97464,292.77463,42,89,0
292.77463,293.89093,52,89,0
292.77463,293.89093,40,89,0
294.61383,294.71005,61,69,0
294.71005,294.80774,58,71,0
294.80774,294.90683,55,74,0
294.90683,295.00745,52,77,0
295.00745,295.10968,49,80,0
295.10968,295.2135,46,82,0
295.2135,295.31897,43,85,0
295.31897,295.42615,40,88,0
295.42615,296.52203,41,108,0
295.42615,296.621,53,108,0
296.621,296.76907,57,66,0
296.71848,296.86377,55,67,0
296.8141,296.95673,53,69,0
296.9079,297.04797,55,70,0
297.0,297.1376,57,71,0
297.09042,297.22556,58,72,0
297.17926,297.312,60,74,0
300.85522,303.05872,57,54,0
300.85522,303.05872,60,54,0
300.85522,303.05872,63,54,0
300.85522,303.05872,53,54,0
311.30063,311.66425,58,42,0
311.66425,311.75516,62,48,0
312.0279,312.12222,67,46,0
312.40524,312.7689,60,52,0
312.7689,313.1325,63,47,0
313.1325,313.49948,65,48,0
313.49948,313.86646,63,45,0
313.86646,314.2301,62,53,0
314.2301,314.59372,57,47,0
314.59372,314.95737,58,51,0
314.2301,314.95737,65,47,0
314.95737,315.3266,60,48,0
314.95737,315.3266,51,48,0
315.3266,316.05832,58,52,0
316.05832,316.4293,57,47,0
315.3266,316.4293,53,52,0
316.81125,316.90216,46,62,0
316.99307,317.1749,58,50,0
317.1749,317.35672,62,53,0
317.35672,317.53854,58,50,0
317.53854,317.62863,43,62,0
317.71872,317.8088,55,52,0
317.8989,317.99176,58,54,0
318.08466,318.17752,55,52,0
318.27042,318.36133,36,64,0
318.45224,318.63403,48,51,0
318.63403,318.81586,51,54,0
318.81586,318.99768,48,52,0
318.99768,319.0886,41,64,0
319.1795,319.36133,53,53,0
319.36133,319.54312,57,54,0
319.54312,319.72495,53,54,0
319.72495,320.0886,58,63,0
320.0886,320.45224,51,54,0
320.45224,320.81586,53,57,0
320.81586,321.18622,41,54,0
321.18622,321.5566,58,69,0
321.18622,321.5566,50,69,0
322.28787,322.65317,58,63,0
322.28787,322.65317,50,63,0
322.65317,323.02127,51,68,0
322.65317,323.02127,58,68,0
323.75082,324.11227,57,64,0
323.75082,324.11227,51,64,0
324.11227,324.47372,50,69,0
324.47372,324.83682,55,59,0
324.83682,325.20505,51,66,0
324.11227,325.20505,58,69,0
325.20505,325.5773,53,59,0
325.20505,325.5773,57,59,0
325.5773,325.9523,58,64,0
325.5773,325.9523,50,64,0
326.68475,327.04877,50,54,0
326.68475,327.04877,58,54,0
327.04877,327.4197,51,58,0
327.04877,327.4197,58,58,0
328.15677,328.52173,60,55,0
328.15677,328.52173,51,55,0
328.52173,328.70694,53,64,0
328.70694,328.89075,62,57,0
328.89075,329.07352,58,64,0
329.07352,329.2553,62,58,0
329.2553,329.43607,53,64,0
329.43607,329.61584,62,58,0
329.61584,329.79465,58,64,0
329.79465,329.9724,62,58,0
329.9724,330.1569,53,64,0
330.1569,330.33868,63,64,0
330.33868,330.5199,57,67,0
330.5199,330.7007,63,64,0
330.7007,330.88168,53,70,0
330.88168,331.06354,63,64,0
331.06354,331.24634,57,71,0
331.24634,331.43008,63,66,0
331.43008,331.61414,62,66,0
331.61414,331.7982,58,49,0
331.7982,331.9811,62,41,0
331.9811,332.16406,58,34,0
332.16406,332.347,62,40,0
332.347,332.5299,58,35,0
332.5299,332.71283,62,40,0
332.71283,332.90515,58,35,0
332.90515,333.08807,65,43,0
333.08807,333.271,58,39,0
333.271,333.45392,65,44,0
333.45392,333.63684,58,38,0
333.63684,333.81976,68,44,0
333.81976,334.0027,58,38,0
334.0027,334.18564,68,44,0
334.18564,334.36856,58,38,0
334.36856,334.55374,67,44,0
334.55374,334.73892,58,42,0
334.73892,334.9241,62,47,0
334.9241,335.10928,58,44,0
335.10928,335.29446,63,50,0
335.29446,335.47968,58,46,0
335.47968,335.66486,63,44,0
335.66486,335.84668,58,44,0
335.84668,336.03015,60,43,0
336.03015,336.21365,58,38,0
336.21365,336.39713,60,41,0
336.39713,336.5806,58,40,0
336.5806,336.7641,60,48,0
336.7641,336.94757,58,43,0
336.94757,337.13626,60,43,0
337.13626,337.32495,58,39,0
337.32495,337.68857,62,45,0
337.32495,337.68857,58,45,0
338.7997,338.98154,65,42,0
338.98154,339.16336,58,38,0
339.16336,339.34518,65,42,0
339.34518,339.527,58,39,0
339.527,339.6179,68,42,0
339.7088,339.7997,58,39,0
339.89062,339.98154,68,42,0
340.07245,340.16336,58,38,0
340.25427,340.43832,67,42,0
340.43832,340.62238,58,42,0
340.62238,340.80643,62,46,0
340.80643,340.99045,58,42,0
340.99045,341.1745,63,45,0
341.1745,341.35855,58,34,0
341.35855,341.5426,63,39,0
341.5426,341.72665,58,35,0
341.72665,341.9107,60,45,0
341.9107,342.09476,58,42,0
342.09476,342.2788,60,45,0
342.2788,342.46286,58,42,0
342.46286,342.6492,60,46,0
342.6492,342.8355,58,42,0
342.8355,343.0266,60,46,0
343.0266,343.21768,58,44,0
343.21768,343.59985,58,49,0
343.21768,343.59985,62,49,0
343.97614,344.3465,60,39,0
344.3465,344.72266,63,39,0
343.97614,344.72266,53,39,0
344.72266,345.09885,58,46,0
344.72266,345.09885,62,46,0
345.4843,345.86768,60,37,0
345.86768,346.25986,63,37,0
345.4843,346.25986,53,37,0
346.25986,346.67508,62,43,0
346.25986,346.67508,58,43,0
347.06723,347.2633,41,71,0
347.06723,347.2633,53,84,0
347.45938,347.66278,53,84,0
347.45938,347.66278,41,71,0
347.86618,348.06955,46,89,0
347.86618,348.06955,34,75,0
