start_time,end_time,note_value,velocity,instrument_program_number
0.0963205,0.20227306,84,66,0
0.192641,0.29859355,83,68,0
0.2889615,0.39491406,84,69,0
0.385282,0.49155408,89,70,0
0.4816025,0.5906888,84,63,0
0.5811182,0.6863949,82,70,0
0.6768243,0.78210086,81,66,0
0.77253026,0.87780684,80,64,0
0.86823624,0.9735128,81,64,0
0.9639422,1.0695342,84,70,0
1.0596483,1.168018,81,64,0
1.158508,1.2631172,79,70,0
1.2536073,1.3582164,77,64,0
1.3487065,1.4533156,76,64,0
1.4438057,1.548415,77,64,0
1.538905,1.6438903,81,70,0
1.6340042,1.7424346,77,65,0
1.732864,1.8381406,74,70,0
1.82857,1.9338466,72,65,0
1.924276,2.0295527,71,65,0
2.019982,2.1252587,72,65,0
2.115688,2.2214794,77,70,0
2.211394,2.321758,72,65,0
2.312248,2.4168572,70,70,0
2.4073472,2.5123324,69,66,0
2.5024464,2.6111922,68,66,0
2.6013062,2.710052,69,66,0
2.700166,2.811149,72,70,0
2.7990258,2.930343,69,64,0
2.9202576,3.0211115,65,70,0
3.0211115,3.117432,77,64,0
3.117432,3.2137525,64,70,0
3.2137525,3.310073,77,64,0
3.310073,3.4063935,65,70,0
3.4063935,3.50793,77,64,0
3.50793,3.603636,67,70,0
3.603636,3.699342,77,64,0
3.699342,3.795048,65,65,0
3.795048,3.890754,77,58,0
3.890754,3.98646,67,67,0
3.98646,4.087314,77,61,0
4.087314,4.182413,69,70,0
4.182413,4.2775126,77,60,0
4.2775126,4.3726115,67,66,0
4.3726115,4.467711,77,62,0
4.467711,4.5628104,69,67,0
4.5628104,4.6775503,77,62,0
4.6775503,4.773871,70,74,0
4.773871,4.8701916,77,61,0
4.8701916,4.966512,70,65,0
4.966512,5.0628324,77,61,0
5.0628324,5.159153,69,65,0
5.159153,5.262794,77,60,0
5.262794,5.3585005,70,70,0
5.3585005,5.4542065,77,60,0
5.4542065,5.5499125,70,65,0
5.5499125,5.6456184,77,60,0
5.6456184,5.7413244,69,65,0
5.7413244,5.857531,77,54,0
5.857531,5.953237,68,49,0
5.953237,6.048943,77,41,0
6.048943,6.144649,68,49,0
6.144649,6.240355,77,42,0
6.240355,6.3360615,68,49,0
6.3360615,6.4397025,77,40,0
6.4397025,6.6498895,76,48,0
6.4397025,6.6498895,67,48,0
7.166584,7.2725368,84,66,0
7.2629046,7.368857,83,68,0
7.359225,7.4651775,84,69,0
7.4555454,7.5618176,89,70,0
7.551866,7.6609526,84,63,0
7.651382,7.7566586,82,70,0
7.747088,7.8523645,81,66,0
7.842794,7.9480705,80,64,0
7.9385,8.0437765,81,64,0
8.034205,8.139798,84,70,0
8.129911,8.238281,81,64,0
8.228771,8.333381,79,70,0
8.323871,8.42848,77,64,0
8.41897,8.52358,76,64,0
8.51407,8.618678,77,64,0
8.609168,8.714153,81,70,0
8.7042675,8.812698,77,65,0
8.803127,8.908404,74,70,0
8.898833,9.00411,72,65,0
8.994539,9.099816,71,65,0
9.090245,9.195522,72,65,0
9.185951,9.291743,77,70,0
9.281657,9.392021,72,65,0
9.382511,9.487121,70,70,0
9.477611,9.582596,69,66,0
9.57271,9.681456,68,66,0
9.67157,9.780315,69,66,0
9.77043,9.8814125,72,70,0
9.869289,10.000539,69,64,0
9.990521,10.090701,65,70,0
10.090701,10.186407,77,64,0
10.186407,10.282113,64,70,0
10.282113,10.377819,77,64,0
10.377819,10.473525,65,70,0
10.473525,10.575062,77,64,0
10.575062,10.670768,67,70,0
10.670768,10.766474,77,64,0
10.766474,10.86218,65,65,0
10.86218,10.957886,77,58,0
10.957886,11.053592,67,67,0
11.053592,11.154446,77,61,0
11.154446,11.249545,69,70,0
11.249545,11.344645,77,60,0
11.344645,11.439743,67,66,0
11.439743,11.5348425,77,62,0
11.5348425,11.629942,69,67,0
11.629942,11.744682,77,62,0
11.744682,11.841002,70,74,0
11.841002,11.937324,77,61,0
11.937324,12.033644,70,65,0
12.033644,12.129964,77,61,0
12.129964,12.226285,69,65,0
12.226285,12.329926,77,60,0
12.329926,12.425632,70,70,0
12.425632,12.521338,77,60,0
12.521338,12.617044,70,65,0
12.617044,12.71275,77,60,0
12.71275,12.808456,69,65,0
12.808456,12.911386,77,46,0
12.911386,13.031309,68,42,0
13.031309,13.151233,77,37,0
13.588102,13.706139,67,42,0
13.706139,13.824175,76,36,0
14.268435,14.386471,66,42,0
14.386471,14.504506,75,35,0
15.141239,15.240755,62,58,0
15.240755,15.34027,67,59,0
15.34027,15.439786,70,60,0
15.439786,15.539302,74,61,0
15.539302,15.648769,72,62,0
15.638818,15.748285,70,62,0
15.738334,15.847801,69,60,0
15.83785,15.948582,67,59,0
15.937365,16.060747,65,57,0
16.049532,16.17165,64,55,0
16.161697,16.261213,65,58,0
16.36073,16.559761,60,49,0
16.559761,16.71373,60,49,0
16.71373,16.768185,64,41,0
16.768185,17.56431,70,49,0
17.56431,17.663826,69,43,0
17.763342,17.862858,67,43,0
17.970982,18.170013,67,49,0
18.170013,18.568077,65,45,0
18.568077,19.120913,65,45,0
19.120913,19.176168,64,41,0
19.176168,19.972294,70,49,0
19.972294,20.07181,69,43,0
20.171326,20.270842,67,43,0
20.388277,20.985373,71,51,0
20.985373,21.184402,72,45,0
21.53271,21.587162,64,41,0
21.587162,22.38329,70,49,0
22.38329,22.482805,69,43,0
22.582321,22.681835,67,43,0
22.789959,23.188023,65,54,0
23.188023,23.785118,69,60,0
23.785118,24.382212,72,60,0
24.382212,24.979307,70,58,0
24.979307,25.173193,67,50,0
25.173193,25.372223,65,56,0
25.571255,25.770287,57,71,0
25.770287,25.86764,58,78,0
25.96499,26.062344,67,73,0
26.159695,26.259642,59,72,0
26.359589,26.45694,60,78,0
26.554293,26.651644,69,73,0
26.748997,26.847628,61,73,0
26.94626,27.043613,62,78,0
27.140965,27.238317,70,72,0
27.335669,27.434954,64,72,0
27.534239,28.313055,82,68,0
28.313055,28.407944,81,62,0
28.407944,28.502832,79,61,0
28.502832,28.597721,77,59,0
28.597721,28.69261,76,57,0
28.69261,28.789963,77,56,0
28.887314,28.984667,79,49,0
29.082018,29.188402,81,54,0
29.294785,29.684193,72,46,0
29.294785,29.684193,69,46,0
29.684193,29.89546,67,40,0
29.684193,29.89546,70,40,0
29.89546,30.503567,67,46,0
29.89546,30.503567,70,46,0
30.503567,30.702242,69,41,0
30.503567,30.702242,65,41,0
31.496944,31.695976,57,71,0
31.695976,31.793327,58,78,0
31.89068,31.988031,67,73,0
32.085384,32.18533,59,72,0
32.28528,32.38263,60,78,0
32.47998,32.577335,69,73,0
32.674686,32.77332,61,73,0
32.871952,32.969303,62,78,0
33.066654,33.164005,70,72,0
33.261356,33.360645,64,72,0
33.45993,34.238747,82,68,0
34.238747,34.333633,81,62,0
34.333633,34.428524,79,61,0
34.428524,34.52341,77,59,0
34.52341,34.6183,76,57,0
34.6183,34.681816,77,56,0
34.681816,34.74533,79,49,0
34.74533,34.80885,81,49,0
35.274853,35.338367,74,47,0
35.338367,35.401882,76,41,0
35.401882,35.4654,77,41,0
35.96752,36.486183,65,44,0
36.486183,36.598057,69,39,0
36.598057,37.04555,64,36,0
36.598057,37.04555,67,44,0
37.04555,37.283497,65,41,0
37.684837,37.880814,69,39,0
37.283497,37.880814,65,41,0
37.880814,38.07808,72,44,0
38.07808,38.275345,70,39,0
38.275345,38.477936,67,39,0
37.880814,38.477936,64,37,0
38.6752,38.87,60,40,0
38.872467,39.0737,69,40,0
38.477936,39.0737,65,44,0
39.0737,39.270966,72,44,0
39.270966,39.468227,70,40,0
39.468227,39.670822,67,40,0
39.0737,39.670822,64,37,0
39.670822,39.868088,65,44,0
39.868088,40.062885,60,41,0
40.06535,40.275024,69,41,0
40.275024,40.473595,65,44,0
40.473595,40.67693,60,40,0
40.680378,40.977173,69,40,0
40.977173,41.78017,67,42,0
40.977173,41.78017,58,36,0
41.78017,42.047836,57,31,0
41.78017,42.047836,65,36,0
42.583168,43.17888,81,80,0
42.583168,43.17888,69,68,0
43.17888,43.77459,69,65,0
43.17888,43.77459,79,77,0
43.77459,44.3703,69,66,0
43.77459,44.3703,77,78,0
44.3703,44.966015,76,76,0
44.3703,44.966015,69,65,0
44.966015,45.561726,74,79,0
44.966015,45.561726,69,67,0
45.561726,46.190742,69,65,0
45.561726,46.190742,73,76,0
45.561726,46.190742,67,65,0
46.190742,46.290028,74,65,0
46.290028,46.389313,69,54,0
46.389313,46.48604,65,54,0
46.48604,46.582764,69,54,0
46.582764,46.685448,74,65,0
46.685448,46.788128,69,54,0
46.788128,46.88676,76,65,0
46.88676,46.985394,69,54,0
46.985394,47.081497,67,54,0
47.081497,47.177605,69,54,0
47.177605,47.27822,76,65,0
47.27822,47.378838,69,55,0
47.378838,47.476826,77,65,0
47.476826,47.574814,74,55,0
47.574814,47.672802,69,55,0
47.672802,47.77079,74,55,0
47.77079,47.871407,77,65,0
47.871407,47.972023,74,55,0
47.972023,48.07001,78,65,0
48.07001,48.168,74,55,0
48.168,48.264103,69,55,0
48.264103,48.360207,74,55,0
48.360207,48.460827,78,65,0
48.460827,48.561443,74,56,0
48.561443,48.95597,79,65,0
48.95597,49.05332,81,59,0
49.05332,49.150677,79,59,0
49.150677,49.547817,77,65,0
49.547817,49.645805,79,57,0
49.645805,49.743793,77,57,0
49.743793,50.143578,76,65,0
50.143578,50.24221,77,57,0
50.24221,50.340843,76,57,0
50.340843,50.74063,74,65,0
50.74063,50.83862,76,59,0
50.83862,50.936607,74,59,0
50.936607,51.336395,72,65,0
51.336395,51.434383,74,59,0
51.434383,51.53237,72,59,0
51.53237,51.932156,71,65,0
51.932156,52.033455,72,56,0
52.033455,52.13475,71,56,0
52.13475,52.24469,74,62,0
52.234695,52.34464,72,54,0
52.334644,52.444584,71,54,0
52.43459,52.544533,72,54,0
52.53454,52.644753,71,53,0
52.634483,52.747097,72,55,0
52.737167,52.846382,76,59,0
52.836452,52.945667,74,55,0
52.935738,53.044952,73,55,0
53.035023,53.144238,74,55,0
53.134308,53.24393,73,55,0
53.233593,53.346912,74,55,0
53.336983,53.446198,76,59,0
53.436268,53.545483,74,54,0
53.535557,53.644768,72,54,0
53.634842,53.744053,74,54,0
53.734127,53.843338,76,54,0
53.833412,53.942623,77,54,0
53.932697,54.04191,79,59,0
54.031982,54.141193,77,55,0
54.131268,54.24048,76,55,0
54.230553,54.339764,77,55,0
54.329838,54.43946,79,55,0
54.429123,54.542442,80,55,0
54.532513,54.631798,81,59,0
54.631798,54.741013,82,55,0
54.731083,54.840298,81,55,0
54.830368,54.939583,79,55,0
54.929653,55.038868,77,55,0
55.02894,55.13871,76,54,0
55.128223,55.233063,74,59,0
55.233063,55.342274,85,54,0
55.332348,55.44156,86,63,0
55.431633,55.540844,84,62,0
55.53092,55.6404,83,60,0
55.630203,55.742115,81,59,0
55.73219,55.831474,79,59,0
55.831474,55.93076,81,60,0
55.93076,56.030045,79,60,0
56.030045,56.12933,77,60,0
56.12933,56.228615,76,60,0
56.228615,56.3279,74,59,0
56.3279,56.432735,72,59,0
56.432735,56.54195,83,56,0
56.53202,56.641235,84,63,0
56.631306,56.74052,83,62,0
56.73059,56.839806,81,60,0
56.829876,56.93972,79,59,0
56.92916,57.034737,77,56,0
57.034737,57.13337,85,61,0
57.13337,57.232002,86,68,0
57.232002,57.33063,83,63,0
57.33063,57.429264,79,63,0
57.429264,57.527897,77,63,0
57.527897,57.632732,76,60,0
57.632732,57.74123,83,53,0
57.731365,57.839863,84,59,0
57.829998,57.938496,79,54,0
57.92863,58.037193,77,54,0
58.027264,58.13641,76,54,0
58.12655,58.22518,74,59,0
58.22518,58.333675,76,58,0
58.323814,58.43231,74,62,0
58.422443,58.53094,72,61,0
58.521076,58.629574,71,60,0
58.61971,58.728184,69,59,0
58.71834,58.826435,67,57,0
59.36449,60.160618,75,49,0
60.160618,60.25925,74,43,0
60.35788,60.456512,72,43,0
60.564636,60.9627,78,49,0
60.9627,61.16173,79,43,0
61.16173,61.559795,74,43,0
61.769825,62.56595,80,58,0
62.56595,62.66458,79,49,0
62.763214,62.861847,77,49,0
62.96997,63.169003,75,60,0
63.169003,63.23699,77,42,0
63.23699,63.30498,75,42,0
63.30498,63.372974,74,42,0
63.372974,63.475655,75,51,0
63.475655,63.59186,77,44,0
63.59186,63.989002,79,51,0
64.1988,64.802505,84,66,0
64.802505,65.1999,82,54,0
65.1999,65.405396,84,50,0
65.405396,65.80277,82,57,0
65.80277,66.00146,80,52,0
66.00146,66.60293,79,55,0
66.60293,67.000305,77,59,0
67.000305,67.199,75,53,0
67.199,67.596375,74,57,0
67.596375,67.807655,72,47,0
67.807655,68.403725,75,53,0
68.403725,68.60241,74,45,0
69.01238,69.80714,75,49,0
69.80714,69.90577,74,43,0
70.0044,70.103035,72,43,0
70.21116,70.60922,78,49,0
70.60922,70.80825,79,43,0
70.80825,71.206314,74,43,0
71.41634,72.21247,80,58,0
72.21247,72.311104,79,49,0
72.40974,72.50836,77,49,0
72.616486,72.81552,76,60,0
73.01949,73.12218,77,51,0
73.12218,73.23838,79,44,0
73.23838,73.63552,77,51,0
73.84532,74.44902,87,71,0
74.65026,74.74704,86,58,0
74.849785,74.94913,84,58,0
75.04847,75.64454,83,66,0
75.64454,76.041916,84,68,0
76.041916,76.23673,80,46,0
76.23673,76.78313,72,55,0
76.78313,76.8328,75,40,0
76.8328,77.44672,71,51,0
76.8328,77.44672,74,51,0
77.44672,77.54794,72,74,0
77.54794,77.647224,79,62,0
77.647224,77.74423,78,62,0
77.74423,77.84096,79,62,0
77.84096,77.94299,81,69,0
77.94299,78.04568,79,62,0
78.04568,78.14303,77,65,0
78.14303,78.24038,79,60,0
78.24038,78.33649,77,65,0
78.33649,78.43259,79,59,0
78.43259,78.532715,77,65,0
78.532715,78.63333,79,59,0
78.63333,78.732765,76,74,0
78.732765,78.83205,79,62,0
78.83205,78.92905,78,62,0
78.92905,79.02577,79,62,0
79.02577,79.127815,84,74,0
79.127815,79.2305,79,62,0
79.2305,79.32848,77,65,0
79.32848,79.42647,79,60,0
79.42647,79.521965,77,65,0
79.521965,79.617455,79,59,0
79.617455,79.71752,77,65,0
79.71752,79.81814,79,59,0
79.81814,79.917564,76,74,0
79.917564,80.01685,79,62,0
80.01685,80.11385,78,62,0
80.11385,80.21058,79,62,0
80.21058,80.312614,84,72,0
80.312614,80.4153,79,62,0
80.4153,80.511406,77,65,0
80.511406,80.607506,79,60,0
80.607506,80.70361,77,65,0
80.70361,80.79971,79,59,0
80.79971,80.89984,77,65,0
80.89984,81.00046,79,59,0
81.00046,81.09989,76,74,0
81.09989,81.19917,79,62,0
81.19917,81.29618,84,71,0
81.29618,81.3929,76,60,0
81.3929,81.49494,74,70,0
81.49494,81.59661,83,62,0
81.59661,81.694664,72,70,0
81.694664,81.79145,81,62,0
81.79145,81.88644,71,69,0
81.88644,81.98117,79,60,0
81.98117,82.07546,69,67,0
82.07546,82.17,77,58,0
82.17,82.2637,67,69,0
82.2637,82.35741,76,62,0
82.35741,82.45111,65,67,0
82.45111,82.544815,74,59,0
82.544815,82.63852,64,66,0
82.63852,82.73222,72,56,0
82.73222,82.828804,62,62,0
82.828804,82.926956,71,54,0
82.926956,83.026405,60,63,0
83.026405,83.12719,69,55,0
83.12719,83.229355,59,62,0
83.229355,83.332924,67,51,0
83.332924,83.9287,66,55,0
83.332924,83.9287,57,45,0
83.9287,84.52055,65,55,0
83.9287,84.52055,56,45,0
84.52055,85.11511,77,55,0
84.52055,85.11511,68,45,0
85.11511,85.704414,71,55,0
85.11511,85.704414,62,45,0
85.90565,86.003,79,49,0
86.10035,86.1977,79,49,0
86.49629,86.59364,81,49,0
86.690994,86.79298,81,49,0
86.894966,87.44836,72,47,0
86.894966,87.44836,67,39,0
87.44836,87.498665,76,40,0
87.498665,88.12332,74,44,0
87.498665,88.12332,71,37,0
88.12332,88.22275,72,74,0
88.22275,88.32204,79,62,0
88.32204,88.41904,78,62,0
88.41904,88.51576,79,62,0
88.51576,88.6178,81,68,0
88.6178,88.72048,79,62,0
88.72048,88.81955,77,65,0
88.81955,88.91818,79,60,0
88.91818,89.014565,77,65,0
89.014565,89.110664,79,59,0
89.110664,89.21079,77,65,0
89.21079,89.31141,79,59,0
89.31141,89.41084,76,74,0
89.41084,89.510124,79,62,0
89.510124,89.60713,78,62,0
89.60713,89.70385,79,62,0
89.70385,89.80589,84,74,0
89.80589,89.90858,79,62,0
89.90858,90.007645,77,65,0
90.007645,90.10628,79,60,0
90.10628,90.20266,77,65,0
90.20266,90.29876,79,59,0
90.29876,90.39889,77,65,0
90.39889,90.499504,79,59,0
90.499504,90.59894,76,74,0
90.59894,90.69822,79,62,0
90.69822,90.79522,78,62,0
90.79522,90.891945,79,62,0
90.891945,90.99399,84,72,0
90.99399,91.09667,79,62,0
91.09667,91.19574,77,65,0
91.19574,91.29437,79,60,0
91.29437,91.39075,77,65,0
91.39075,91.486855,79,59,0
91.486855,91.58698,77,65,0
91.58698,91.6876,79,59,0
91.6876,91.78703,76,74,0
91.78703,91.886314,79,62,0
91.886314,91.983315,84,71,0
91.983315,92.08071,76,60,0
92.08071,92.1805,74,70,0
92.1805,92.279655,83,62,0
92.279655,92.37809,72,70,0
92.37809,92.47521,81,62,0
92.47521,92.57123,71,69,0
92.57123,92.66636,79,60,0
92.66636,92.760475,69,67,0
92.760475,92.853745,77,58,0
92.853745,92.94629,67,69,0
92.94629,93.03884,76,62,0
93.03884,93.131386,65,67,0
93.131386,93.22393,74,59,0
93.22393,93.31648,64,66,0
93.31648,93.40903,72,56,0
93.40903,93.50168,62,64,0
93.50168,93.59655,71,55,0
93.59655,93.69388,60,63,0
93.69388,93.79454,69,55,0
93.79454,93.896706,59,62,0
93.896706,94.000275,67,51,0
94.000275,94.596054,57,45,0
94.000275,94.596054,66,55,0
94.596054,95.187904,65,55,0
94.596054,95.187904,56,45,0
95.187904,95.78246,68,45,0
95.187904,95.78246,77,55,0
95.78246,96.371765,71,55,0
95.78246,96.371765,62,45,0
96.573,96.67035,79,49,0
96.7677,96.86506,79,49,0
97.16364,97.260994,81,49,0
97.358345,97.46033,81,49,0
97.56232,98.166016,72,47,0
98.166016,98.79928,71,37,0
97.56232,98.79928,67,39,0
98.79928,98.90196,78,71,0
98.90196,99.01457,79,55,0
99.00465,99.11385,78,55,0
99.10393,99.21314,79,55,0
99.20322,99.315796,78,55,0
99.30553,99.40821,79,55,0
99.40821,99.51964,80,62,0
99.50951,99.620735,81,55,0
99.6108,99.72002,80,55,0
99.71009,99.819305,81,55,0
99.80937,99.91991,83,59,0
99.90985,100.01047,84,55,0
100.01047,100.56386,72,47,0
100.56386,100.61417,76,37,0
100.61417,101.0306,71,43,0
100.61417,101.13471,74,43,0
101.13471,101.23448,72,37,0
101.23882,101.35334,72,71,0
101.342926,101.45696,76,64,0
101.44704,101.55625,79,67,0
101.546326,101.65534,84,68,0
101.64561,101.75269,83,69,0
101.74296,101.850044,81,69,0
101.84031,101.947395,79,71,0
101.93766,102.044754,81,67,0
102.03502,102.142105,79,67,0
102.13237,102.239456,77,67,0
102.22972,102.33794,76,67,0
102.32707,102.43571,74,67,0
102.43571,102.550224,72,71,0
102.53981,102.653786,76,64,0
102.64392,102.75242,74,64,0
102.74255,102.85092,72,68,0
102.84119,102.94827,71,64,0
102.93854,103.04562,69,64,0
103.03589,103.142975,67,69,0
103.13324,103.24033,69,63,0
103.2306,103.337685,67,63,0
103.32795,103.435036,65,63,0
103.4253,103.53344,64,63,0
103.52265,103.6305,62,63,0
103.6305,103.74268,60,71,0
103.73249,103.84427,64,63,0
103.83447,103.94226,62,63,0
103.93246,104.040184,60,63,0
104.03045,104.137535,59,63,0
104.1278,104.234886,57,64,0
104.22515,104.33224,55,71,0
104.3225,104.42959,57,64,0
104.41985,104.52695,55,64,0
104.51721,104.6243,53,64,0
104.61456,104.722694,52,64,0
104.711914,104.81976,50,64,0
104.81976,104.92038,48,81,0
105.020996,105.12161,52,70,0
105.22223,105.322845,55,70,0
105.42347,105.524086,60,78,0
105.6247,105.72532,64,70,0
105.825935,105.92655,67,70,0
106.02717,106.23254,72,88,0
106.64327,107.07468,67,69,0
106.64327,107.07468,76,69,0
106.64327,107.07468,79,82,0
106.64327,107.07468,72,69,0
107.290375,107.72179,72,72,0
107.290375,107.72179,79,74,0
107.290375,107.72179,76,74,0
107.290375,107.72179,84,86,0
108.680916,108.78687,84,66,0
108.77724,108.88319,83,68,0
108.87356,108.97951,84,69,0
108.96988,109.07615,89,70,0
109.0662,109.175285,84,63,0
109.16572,109.27099,82,70,0
109.26142,109.3667,81,66,0
109.357124,109.4624,80,64,0
109.452835,109.558105,81,64,0
109.54854,109.65413,84,70,0
109.64424,109.75262,81,64,0
109.7431,109.84771,79,70,0
109.8382,109.94281,77,64,0
109.933304,110.03791,76,64,0
110.028404,110.13301,77,64,0
110.123505,110.228485,81,70,0
110.2186,110.327034,77,65,0
110.31746,110.42274,74,70,0
110.41317,110.51844,72,65,0
110.50887,110.61415,71,65,0
110.604576,110.709854,72,65,0
110.70029,110.806076,77,70,0
110.79599,110.90636,72,65,0
110.89684,111.00145,70,70,0
110.99194,111.09693,69,66,0
111.08704,111.195786,68,66,0
111.185905,111.29465,69,66,0
111.28476,111.395744,72,70,0
111.38362,111.51487,69,64,0
111.50485,111.605034,65,70,0
111.605034,111.700134,77,64,0
111.700134,111.795235,64,70,0
111.795235,111.890335,77,64,0
111.890335,111.98543,65,70,0
111.98543,112.08697,77,64,0
112.08697,112.18267,67,70,0
112.18267,112.27838,77,64,0
112.27838,112.374084,65,65,0
112.374084,112.469795,77,58,0
112.469795,112.5655,67,67,0
112.5655,112.66635,77,61,0
112.66635,112.76145,69,70,0
112.76145,112.85655,77,60,0
112.85655,112.95165,67,66,0
112.95165,113.046745,77,62,0
113.046745,113.141846,69,67,0
113.141846,113.256584,77,62,0
113.256584,113.352905,70,74,0
113.352905,113.44923,77,61,0
113.44923,113.54555,70,65,0
113.54555,113.64187,77,61,0
113.64187,113.73819,69,65,0
113.73819,113.841835,77,60,0
113.841835,113.93754,70,70,0
113.93754,114.03324,77,60,0
114.03324,114.12895,70,65,0
114.12895,114.224655,77,60,0
114.224655,114.32036,69,65,0
114.32036,114.43933,77,54,0
114.43933,114.53504,68,49,0
114.53504,114.630745,77,41,0
114.630745,114.72645,68,49,0
114.72645,114.82216,77,42,0
114.82216,114.91786,68,49,0
114.91786,115.02151,77,40,0
115.02151,115.23169,76,48,0
115.02151,115.23169,67,48,0
115.74839,115.85434,84,66,0
115.8447,115.95066,83,68,0
115.941025,116.04698,84,69,0
116.037346,116.14362,89,70,0
116.13367,116.24275,84,63,0
116.233185,116.33846,82,70,0
116.32889,116.434166,81,66,0
116.4246,116.52987,80,64,0
116.5203,116.62558,81,64,0
116.616005,116.7216,84,70,0
116.711716,116.82008,81,64,0
116.81058,116.915184,79,70,0
116.90567,117.010284,77,64,0
117.00077,117.105385,76,64,0
117.09587,117.20048,77,64,0
117.19097,117.29596,81,70,0
117.28607,117.3945,77,65,0
117.38493,117.490204,74,70,0
117.48064,117.585915,72,65,0
117.57634,117.68162,71,65,0
117.67205,117.77732,72,65,0
117.76775,117.87354,77,70,0
117.86346,117.97382,72,65,0
117.96432,118.068924,70,70,0
118.05941,118.1644,69,66,0
118.15451,118.26326,68,66,0
118.25337,118.36212,69,66,0
118.352234,118.46321,72,70,0
118.45109,118.582405,69,64,0
118.57233,118.67318,65,70,0
118.67318,118.76888,77,64,0
118.76888,118.864586,64,70,0
118.864586,118.9603,77,64,0
118.9603,119.056,65,70,0
119.056,119.15754,77,64,0
119.15754,119.25324,67,70,0
119.25324,119.34895,77,64,0
119.34895,119.44466,65,65,0
119.44466,119.54036,77,58,0
119.54036,119.63607,67,67,0
119.63607,119.73692,77,61,0
119.73692,119.83202,69,70,0
119.83202,119.927124,77,60,0
119.927124,120.02222,67,66,0
120.02222,120.11732,77,62,0
120.11732,120.21242,69,67,0
120.21242,120.327156,77,62,0
120.327156,120.42348,70,74,0
120.42348,120.5198,77,61,0
120.5198,120.61612,70,65,0
120.61612,120.71244,77,61,0
120.71244,120.80876,69,65,0
120.80876,120.9124,77,60,0
120.9124,121.00811,70,70,0
121.00811,121.10381,77,60,0
121.10381,121.199524,70,65,0
121.199524,121.29523,77,60,0
121.29523,121.39093,69,65,0
121.39093,121.493866,77,46,0
121.493866,121.60918,68,45,0
121.60918,121.72449,77,36,0
122.15244,122.26775,67,42,0
122.26775,122.38307,76,34,0
122.81376,122.92996,66,44,0
122.92996,123.04617,75,35,0
123.66455,123.76406,62,58,0
123.76406,123.86358,67,59,0
123.86358,123.9631,70,60,0
123.9631,124.062614,74,61,0
124.062614,124.17208,72,62,0
124.162125,124.27159,70,62,0
124.26164,124.37111,69,60,0
124.36116,124.47189,67,59,0
124.46067,124.58405,65,57,0
124.57284,124.69496,64,55,0
124.685005,124.78452,65,58,0
124.88404,125.08307,60,49,0
125.08307,125.23704,60,49,0
125.23704,125.2915,64,41,0
125.2915,126.087616,70,49,0
126.087616,126.18713,69,43,0
126.28665,126.38617,67,43,0
126.49429,126.69332,67,49,0
126.69332,127.091385,65,45,0
127.091385,127.64422,65,45,0
127.64422,127.69948,64,41,0
127.69948,128.4956,70,49,0
128.4956,128.59512,69,43,0
128.69464,128.79414,67,43,0
128.91159,129.50868,71,51,0
129.50868,129.70772,72,45,0
130.05602,130.11047,64,41,0
130.11047,130.9066,70,49,0
130.9066,131.00612,69,43,0
131.10562,131.20514,67,43,0
131.31326,131.71133,65,54,0
131.71133,132.30843,69,60,0
132.30843,132.90552,72,60,0
132.90552,133.50261,70,58,0
133.50261,133.6965,67,50,0
133.6965,133.89554,65,56,0
134.09456,134.2936,57,71,0
134.2936,134.39095,58,78,0
134.4883,134.58565,67,73,0
134.683,134.78294,59,72,0
134.8829,134.98026,60,78,0
135.0776,135.17496,69,73,0
135.27231,135.37094,61,73,0
135.46957,135.56693,62,78,0
135.66428,135.76163,70,72,0
135.85898,135.95827,64,72,0
136.05754,136.83636,82,68,0
136.83636,136.93126,81,62,0
136.93126,137.02614,79,61,0
137.02614,137.12103,77,59,0
137.12103,137.21591,76,57,0
137.21591,137.31328,77,56,0
137.41063,137.50798,79,49,0
137.60533,137.71246,81,54,0
137.81961,138.20901,69,46,0
137.81961,138.20901,72,46,0
138.20901,138.42178,67,40,0
138.20901,138.42178,70,40,0
138.42178,139.03403,67,46,0
138.42178,139.03403,70,46,0
139.03403,139.2314,65,41,0
139.03403,139.2314,69,41,0
140.02087,140.21991,57,71,0
140.21991,140.31726,58,78,0
140.41461,140.51196,67,73,0
140.60931,140.70926,59,72,0
140.8092,140.90656,60,78,0
141.0039,141.10126,69,73,0
141.19861,141.29724,61,73,0
141.39587,141.49323,62,78,0
141.59058,141.68794,70,72,0
141.7853,141.88457,64,72,0
141.98386,142.76268,82,68,0
142.76268,142.85756,81,62,0
142.85756,142.95245,79,61,0
142.95245,143.04733,77,59,0
143.04733,143.14223,76,57,0
143.14223,143.20522,77,56,0
143.20522,143.26819,79,49,0
143.26819,143.33118,81,49,0
143.79665,143.86017,74,46,0
143.86017,143.92368,76,38,0
143.92368,143.9872,77,38,0
144.4835,145.00217,65,44,0
145.00217,145.11404,69,39,0
145.11404,145.56154,67,44,0
145.11404,145.56154,64,36,0
145.56154,145.79948,65,41,0
146.20082,146.3968,69,39,0
145.79948,146.3968,65,41,0
146.3968,146.59407,72,44,0
146.59407,146.79134,70,39,0
146.79134,146.99393,67,39,0
146.3968,146.99393,64,37,0
147.1912,147.38599,60,40,0
147.38846,147.58969,69,40,0
146.99393,147.58969,65,44,0
147.58969,147.78696,72,44,0
147.78696,147.98422,70,40,0
147.98422,148.18681,67,40,0
147.58969,148.18681,64,37,0
148.18681,148.38408,65,44,0
148.38408,148.57805,60,41,0
148.58134,148.79102,69,41,0
148.79102,148.98958,65,44,0
148.98958,149.19292,60,40,0
149.19637,149.49316,69,40,0
149.49316,150.29616,67,42,0
149.49316,150.29616,58,36,0
150.29616,150.56383,65,36,0
150.29616,150.56383,57,31,0
151.09915,151.69487,69,68,0
151.09915,151.69487,81,80,0
151.69487,152.29057,69,65,0
151.69487,152.29057,79,77,0
152.29057,152.88629,77,78,0
152.29057,152.88629,69,66,0
152.88629,153.482,69,65,0
152.88629,153.482,76,76,0
153.482,154.07771,69,67,0
153.482,154.07771,74,79,0
154.07771,154.70673,67,65,0
154.07771,154.70673,73,76,0
154.07771,154.70673,69,65,0
154.70673,154.80602,74,65,0
154.80602,154.9053,69,54,0
154.9053,155.00203,65,54,0
155.00203,155.09875,69,54,0
155.09875,155.20143,74,65,0
155.20143,155.30412,69,54,0
155.30412,155.40276,76,65,0
155.40276,155.50139,69,54,0
155.50139,155.59749,67,54,0
155.59749,155.69359,69,54,0
155.69359,155.7942,76,65,0
155.7942,155.89482,69,55,0
155.89482,155.99281,77,65,0
155.99281,156.0908,74,55,0
156.0908,156.18878,69,55,0
156.18878,156.28677,74,55,0
156.28677,156.38739,77,65,0
156.38739,156.488,74,55,0
156.488,156.586,78,65,0
156.586,156.68399,74,55,0
156.68399,156.78009,69,55,0
156.78009,156.87619,74,55,0
156.87619,156.9768,78,65,0
156.9768,157.07742,74,56,0
157.07742,157.47195,79,65,0
157.47195,157.5693,81,59,0
157.5693,157.66666,79,59,0
157.66666,158.0638,77,65,0
158.0638,158.16179,79,57,0
158.16179,158.25978,77,57,0
158.25978,158.65956,76,65,0
158.65956,158.7582,77,57,0
158.7582,158.85683,76,57,0
158.85683,159.25662,74,65,0
159.25662,159.3546,76,59,0
159.3546,159.45259,74,59,0
159.45259,159.85239,72,65,0
159.85239,159.95036,74,59,0
159.95036,160.04836,72,59,0
160.04836,160.44815,71,65,0
160.44815,160.54944,72,56,0
160.54944,160.65074,71,56,0
160.65074,160.76068,74,62,0
160.75069,160.86063,72,54,0
160.85063,160.96057,71,54,0
160.95058,161.06052,72,54,0
161.05052,161.16074,71,53,0
161.15047,161.26308,72,55,0
161.25316,161.36237,76,59,0
161.35245,161.46165,74,55,0
161.45172,161.56094,73,55,0
161.55101,161.66022,74,55,0
161.6503,161.75992,73,55,0
161.74959,161.8629,74,55,0
161.85297,161.96219,76,59,0
161.95226,162.06148,74,54,0
162.05154,162.16075,72,54,0
162.15083,162.26004,74,54,0
162.2501,162.35933,76,54,0
162.3494,162.45862,77,54,0
162.44868,162.55789,79,59,0
162.54797,162.65718,77,55,0
162.64725,162.75647,76,55,0
162.74654,162.85576,77,55,0
162.84583,162.95544,79,55,0
162.94511,163.05843,80,55,0
163.04851,163.14778,81,59,0
163.14778,163.257,82,55,0
163.24707,163.3563,81,55,0
163.34636,163.45557,79,55,0
163.44565,163.55486,77,55,0
163.54492,163.6547,76,54,0
163.64421,163.74905,74,59,0
163.74905,163.85826,85,54,0
163.84833,163.95755,86,63,0
163.94762,164.05684,84,62,0
164.0469,164.15639,83,60,0
164.1462,164.2581,81,59,0
164.24817,164.34746,79,59,0
164.34746,164.44675,81,60,0
164.44675,164.54604,79,60,0
164.54604,164.64531,77,60,0
164.64531,164.7446,76,60,0
164.7446,164.84389,74,59,0
164.84389,164.94873,72,59,0
164.94873,165.05794,83,56,0
165.048,165.15723,84,63,0
165.1473,165.2565,83,62,0
165.24658,165.35579,81,60,0
165.34587,165.4557,79,59,0
165.44514,165.55072,77,56,0
165.55072,165.64935,85,61,0
165.64935,165.74799,86,68,0
165.74799,165.84662,83,63,0
165.84662,165.94525,79,63,0
165.94525,166.04388,77,63,0
166.04388,166.14873,76,60,0
166.14873,166.25722,83,53,0
166.24736,166.35585,84,59,0
166.346,166.45448,79,54,0
166.44463,166.55318,77,54,0
166.54324,166.6524,76,54,0
166.64253,166.74117,74,59,0
166.74117,166.84967,76,58,0
166.8398,166.9483,74,62,0
166.93843,167.04692,72,61,0
167.03706,167.14555,71,60,0
167.1357,167.24417,69,59,0
167.23433,167.34242,67,57,0
167.88048,168.6766,75,49,0
168.6766,168.77524,74,43,0
168.87387,168.9725,72,43,0
169.08063,169.47868,78,49,0
169.47868,169.67772,79,43,0
169.67772,170.07578,74,43,0
170.28581,171.08194,80,58,0
171.08194,171.18057,79,49,0
171.2792,171.37784,77,49,0
171.48596,171.68498,75,60,0
171.68498,171.75298,77,42,0
171.75298,171.82097,75,42,0
171.82097,171.88896,74,42,0
171.88896,171.99164,75,51,0
171.99164,172.10785,77,44,0
172.10785,172.50499,79,51,0
172.7148,173.3185,84,66,0
173.3185,173.71327,82,54,0
173.71327,173.91196,84,50,0
173.91196,174.31198,82,57,0
174.31198,174.512,80,52,0
174.512,175.11612,79,55,0
175.11612,175.51614,77,59,0
175.51614,175.71617,75,53,0
175.71617,176.1162,74,57,0
176.1162,176.32169,72,47,0
176.32169,176.92172,75,53,0
176.92172,177.12173,74,45,0
177.52176,178.31789,75,49,0
178.31789,178.41652,74,43,0
178.51515,178.61378,72,43,0
178.72191,179.11998,78,49,0
179.11998,179.319,79,43,0
179.319,179.71707,74,43,0
179.9271,180.72322,80,58,0
180.72322,180.82185,79,49,0
180.92049,181.01912,77,49,0
181.12724,181.32628,76,60,0
181.53024,181.63293,77,51,0
181.63293,181.74913,79,44,0
181.74913,182.14629,77,51,0
182.35608,182.95978,87,71,0
183.16101,183.25842,86,58,0
183.36118,183.46051,84,58,0
183.55986,184.1599,83,66,0
184.1599,184.55992,84,68,0
184.55992,184.76402,80,46,0
184.76402,185.31041,72,55,0
185.31041,185.36009,75,40,0
185.36009,185.98135,71,51,0
185.36009,185.98135,74,51,0
185.98135,186.08202,72,74,0
186.08202,186.1813,79,62,0
186.1813,186.2783,78,62,0
186.2783,186.37503,79,62,0
186.37503,186.47707,81,69,0
186.47707,186.57976,79,62,0
186.57976,186.67711,77,65,0
186.67711,186.77446,79,60,0
186.77446,186.87056,77,65,0
186.87056,186.96666,79,59,0
186.96666,187.06679,77,65,0
187.06679,187.1674,79,59,0
187.1674,187.26685,76,74,0
187.26685,187.36612,79,62,0
187.36612,187.46312,78,62,0
187.46312,187.55984,79,62,0
187.55984,187.66188,84,74,0
187.66188,187.76457,79,62,0
187.76457,187.86256,77,65,0
187.86256,187.96054,79,60,0
187.96054,188.05605,77,65,0
188.05605,188.15154,79,59,0
188.15154,188.25159,77,65,0
188.25159,188.35222,79,59,0
188.35222,188.45164,76,74,0
188.45164,188.55092,79,62,0
188.55092,188.64793,78,62,0
188.64793,188.74466,79,62,0
188.74466,188.8467,84,72,0
188.8467,188.94937,79,62,0
188.94937,189.04547,77,65,0
189.04547,189.14159,79,60,0
189.14159,189.23769,77,65,0
189.23769,189.33379,79,59,0
189.33379,189.43391,77,65,0
189.43391,189.53453,79,59,0
189.53453,189.63397,76,74,0
189.63397,189.73325,79,62,0
189.73325,189.83025,84,71,0
189.83025,189.92697,76,60,0
189.92697,190.02902,74,70,0
190.02902,190.13069,83,62,0
190.13069,190.22874,72,70,0
190.22874,190.32553,81,62,0
190.32553,190.4205,71,69,0
190.4205,190.51524,79,60,0
190.51524,190.60954,69,67,0
190.60954,190.70407,77,58,0
190.70407,190.79778,67,69,0
190.79778,190.89148,76,62,0
190.89148,190.98518,65,67,0
190.98518,191.07889,74,59,0
191.07889,191.17259,64,66,0
191.17259,191.2663,72,56,0
191.2663,191.36288,62,62,0
191.36288,191.46103,71,54,0
191.46103,191.56049,60,63,0
191.56049,191.66127,69,55,0
191.66127,191.76343,59,62,0
191.76343,191.867,67,51,0
191.867,192.46278,66,55,0
191.867,192.46278,57,45,0
192.46278,193.05463,65,55,0
192.46278,193.05463,56,45,0
193.05463,193.64919,77,55,0
193.05463,193.64919,68,45,0
193.64919,194.2385,71,55,0
193.64919,194.2385,62,45,0
194.43973,194.53708,79,49,0
194.63443,194.73178,79,49,0
195.03036,195.12772,81,49,0
195.22507,195.32706,81,49,0
195.42905,195.98244,72,47,0
195.42905,195.98244,67,39,0
195.98244,196.03275,76,40,0
196.03275,196.6574,71,37,0
196.03275,196.6574,74,44,0
196.6574,196.75682,72,74,0
196.75682,196.85611,79,62,0
196.85611,196.95311,78,62,0
196.95311,197.04984,79,62,0
197.04984,197.15187,81,68,0
197.15187,197.25456,79,62,0
197.25456,197.35362,77,65,0
197.35362,197.45226,79,60,0
197.45226,197.54865,77,65,0
197.54865,197.64474,79,59,0
197.64474,197.74487,77,65,0
197.74487,197.84549,79,59,0
197.84549,197.94492,76,74,0
197.94492,198.0442,79,62,0
198.0442,198.1412,78,62,0
198.1412,198.23793,79,62,0
198.23793,198.33997,84,74,0
198.33997,198.44266,79,62,0
198.44266,198.54172,77,65,0
198.54172,198.64035,79,60,0
198.64035,198.73672,77,65,0
198.73672,198.83284,79,59,0
198.83284,198.93297,77,65,0
198.93297,199.03358,79,59,0
199.03358,199.13301,76,74,0
199.13301,199.2323,79,62,0
199.2323,199.3293,78,62,0
199.3293,199.42603,79,62,0
199.42603,199.52806,84,72,0
199.52806,199.63074,79,62,0
199.63074,199.72981,77,65,0
199.72981,199.82845,79,60,0
199.82845,199.92482,77,65,0
199.92482,200.02094,79,59,0
200.02094,200.12106,77,65,0
200.12106,200.22168,79,59,0
200.22168,200.3211,76,74,0
200.3211,200.4204,79,62,0
200.4204,200.5174,84,71,0
200.5174,200.61479,76,60,0
200.61479,200.71457,74,70,0
200.71457,200.81374,83,62,0
200.81374,200.91217,72,70,0
200.91217,201.0093,81,62,0
201.0093,201.1053,71,69,0
201.1053,201.20042,79,60,0
201.20042,201.29454,69,67,0
201.29454,201.38782,77,58,0
201.38782,201.48036,67,69,0
201.48036,201.5729,76,62,0
201.5729,201.66547,65,67,0
201.66547,201.75801,74,59,0
201.75801,201.85056,64,66,0
201.85056,201.9431,72,56,0
201.9431,202.03575,62,64,0
202.03575,202.13063,71,55,0
202.13063,202.22795,60,63,0
202.22795,202.32861,69,55,0
202.32861,202.43079,59,62,0
202.43079,202.53435,67,51,0
202.53435,203.13013,66,55,0
202.53435,203.13013,57,45,0
203.13013,203.72198,56,45,0
203.13013,203.72198,65,55,0
203.72198,204.31654,77,55,0
203.72198,204.31654,68,45,0
204.31654,204.90584,71,55,0
204.31654,204.90584,62,45,0
205.10707,205.20442,79,49,0
205.30177,205.39912,79,49,0
205.69772,205.79507,81,49,0
205.89243,205.9944,81,49,0
206.09639,206.70009,72,47,0
206.70009,207.33334,71,37,0
206.09639,207.33334,67,39,0
207.33334,207.43604,78,71,0
207.43604,207.54865,79,55,0
207.53871,207.64793,78,55,0
207.638,207.74722,79,55,0
207.73729,207.84987,78,55,0
207.8396,207.94229,79,55,0
207.94229,208.05371,80,62,0
208.04358,208.15482,81,55,0
208.14488,208.25409,80,55,0
208.24417,208.35338,81,55,0
208.34344,208.45398,83,59,0
208.44392,208.54454,84,55,0
208.54454,209.09793,72,47,0
209.09793,209.14824,76,37,0
209.14824,209.56468,71,43,0
209.14824,209.6688,74,43,0
209.6688,209.77289,72,37,0
209.77289,209.88742,72,71,0
209.877,209.99104,76,64,0
209.98111,210.09033,79,67,0
210.0804,210.18942,84,68,0
210.17969,210.28677,83,69,0
210.27704,210.38412,81,69,0
210.37439,210.48148,79,71,0
210.47174,210.57883,81,67,0
210.56909,210.67618,79,67,0
210.66644,210.77353,77,67,0
210.7638,210.87201,76,67,0
210.86115,210.96977,74,67,0
210.96977,211.0843,72,71,0
211.07388,211.18787,76,64,0
211.178,211.2865,74,64,0
211.27663,211.385,72,68,0
211.37526,211.48235,71,64,0
211.47261,211.5797,69,64,0
211.56996,211.67705,67,69,0
211.66731,211.7744,69,63,0
211.76466,211.87175,67,63,0
211.86201,211.96912,65,63,0
211.95938,212.0675,64,63,0
212.05673,212.16458,62,63,0
212.16458,212.27676,60,71,0
212.26656,212.37834,64,63,0
212.36855,212.47633,62,63,0
212.46654,212.57426,60,63,0
212.56453,212.67162,59,63,0
212.66188,212.76897,57,64,0
212.75923,212.86632,55,71,0
212.85658,212.96367,57,64,0
212.95393,213.06102,55,64,0
213.05128,213.15837,53,64,0
213.14864,213.25677,52,64,0
213.24599,213.35384,50,64,0
213.35384,213.45445,48,81,0
213.55507,213.65569,52,70,0
213.7563,213.85692,55,70,0
213.95753,214.05815,60,78,0
214.15877,214.2594,64,70,0
214.36002,214.46063,67,70,0
214.56125,214.76662,72,88,0
215.17734,215.60875,76,69,0
215.17734,215.60875,67,69,0
215.17734,215.60875,72,69,0
215.17734,215.60875,79,82,0
215.82445,216.25586,72,72,0
215.82445,216.25586,79,74,0
215.82445,216.25586,76,74,0
215.82445,216.25586,84,86,0
217.215,217.32094,79,66,0
217.31131,217.41727,78,68,0
217.40764,217.51358,79,69,0
217.50395,217.61023,84,70,0
217.60028,217.70937,79,63,0
217.69978,217.80507,77,70,0
217.7955,217.90077,75,66,0
217.8912,217.99648,74,64,0
217.98691,218.09218,75,64,0
218.08261,218.1882,79,70,0
218.17831,218.28668,75,64,0
218.27718,218.38179,74,70,0
218.37228,218.47688,72,64,0
218.46738,218.57199,71,64,0
218.56247,218.66708,72,64,0
218.65758,218.76256,75,70,0
218.75267,218.8611,72,65,0
218.85153,218.95682,68,70,0
218.94724,219.05252,67,65,0
219.04295,219.14822,66,65,0
219.13866,219.24393,67,65,0
219.23436,219.34015,72,70,0
219.33006,219.44043,67,65,0
219.43092,219.53552,65,70,0
219.52602,219.631,63,66,0
219.62112,219.72986,62,66,0
219.71997,219.82872,63,66,0
219.81883,219.92982,67,70,0
219.9177,220.04915,63,64,0
220.03893,220.14116,60,70,0
220.14116,220.23625,72,64,0
220.23625,220.33136,59,70,0
220.33136,220.42645,72,64,0
220.42645,220.52156,60,70,0
220.52156,220.6231,72,64,0
220.6231,220.7188,62,70,0
220.7188,220.8145,72,64,0
220.8145,220.9102,60,65,0
220.9102,221.00592,72,58,0
221.00592,221.10162,62,67,0
221.10162,221.20247,72,61,0
221.20247,221.29758,64,70,0
221.29758,221.39267,72,60,0
221.39267,221.48778,62,66,0
221.48778,221.58287,72,62,0
221.58287,221.67798,64,67,0
221.67798,221.79271,72,62,0
221.79271,221.88904,65,74,0
221.88904,221.98535,72,61,0
221.98535,222.08168,65,65,0
222.08168,222.178,72,61,0
222.178,222.2743,63,65,0
222.2743,222.37796,72,60,0
222.37796,222.47366,65,70,0
222.47366,222.56937,72,60,0
222.56937,222.66507,65,65,0
222.66507,222.76077,72,60,0
222.76077,222.85649,63,65,0
222.85649,222.95941,72,54,0
223.05511,223.15083,72,43,0
222.95941,223.1588,62,49,0
223.24654,223.34224,72,45,0
223.15083,223.34224,63,52,0
223.43794,223.53365,72,52,0
223.34224,223.54163,62,55,0
223.62936,223.73134,72,59,0
223.53365,223.73134,63,59,0
223.82683,223.92233,72,55,0
223.73134,223.93028,65,66,0
224.01782,224.12146,72,43,0
223.92233,224.12146,63,52,0
224.21695,224.31245,72,44,0
224.12146,224.3204,62,50,0
224.40794,224.50343,72,49,0
224.31245,224.50343,63,54,0
224.59892,224.69441,72,53,0
224.50343,224.70238,62,57,0
224.78992,224.8912,72,55,0
224.69441,224.8912,63,59,0
224.9867,225.0822,72,54,0
224.8912,225.09015,65,64,0
225.17769,225.28133,72,43,0
225.0822,225.28133,63,56,0
225.28133,225.35905,62,60,0
225.78232,225.88031,66,51,0
225.88031,225.95786,72,55,0
225.9837,226.08105,62,48,0
226.08105,226.1784,66,51,0
226.1784,226.27576,69,53,0
226.27576,226.35277,72,56,0
226.37845,226.4758,78,53,0
226.4758,226.57315,84,62,0
226.57315,226.6705,82,61,0
226.6705,226.76785,81,60,0
226.76785,226.8652,79,59,0
226.8652,226.96255,78,58,0
226.96255,227.0599,79,55,0
227.0599,227.15726,78,59,0
227.15726,227.25925,79,55,0
227.25925,227.3566,78,58,0
227.3566,227.45395,75,57,0
227.45395,227.5513,74,56,0
227.5513,227.64865,72,55,0
227.74435,227.84006,77,43,0
227.64865,227.84804,71,49,0
227.93578,228.03148,77,45,0
227.84006,228.03148,72,52,0
228.12718,228.22289,77,52,0
228.03148,228.23087,71,55,0
228.31859,228.42058,77,60,0
228.22289,228.42058,72,62,0
228.51607,228.61156,77,55,0
228.42058,228.61952,73,67,0
228.70706,228.8107,77,43,0
228.61156,228.8107,72,52,0
228.90619,229.00168,77,44,0
228.8107,229.00964,71,50,0
229.09718,229.19267,77,49,0
229.00168,229.19267,72,54,0
229.28816,229.38365,77,53,0
229.19267,229.39162,71,57,0
229.47914,229.58044,77,55,0
229.38365,229.58044,72,63,0
229.67593,229.77142,77,54,0
229.58044,229.77939,73,68,0
229.86693,229.97057,77,43,0
229.77142,229.97057,72,56,0
229.97057,230.0483,71,60,0
230.47156,230.56955,71,51,0
230.56955,230.6471,77,55,0
230.67294,230.7703,67,48,0
230.7703,230.86765,71,51,0
230.86765,230.965,74,53,0
230.965,231.042,77,56,0
231.06767,231.16502,83,53,0
231.16502,231.26239,89,62,0
231.26239,231.35974,87,61,0
231.35974,231.45709,86,60,0
231.45709,231.55444,84,59,0
231.55444,231.6518,83,58,0
231.6518,231.74915,80,55,0
231.74915,231.8465,79,59,0
231.8465,231.94849,78,55,0
231.94849,232.04584,79,58,0
232.04584,232.14319,80,57,0
232.14319,232.24054,79,56,0
232.24054,232.33789,77,55,0
232.4336,232.5293,67,43,0
232.33789,232.53728,76,49,0
232.625,232.72072,67,45,0
232.5293,232.72072,77,52,0
232.81642,232.91212,67,52,0
232.72072,232.9201,76,55,0
233.00783,233.10982,67,53,0
232.91212,233.10982,77,59,0
233.2053,233.3008,67,55,0
233.10982,233.30876,76,59,0
233.39629,233.49994,67,43,0
233.3008,233.49994,77,52,0
233.59543,233.69092,67,44,0
233.49994,233.69888,76,50,0
233.7864,233.88191,67,49,0
233.69092,233.88191,77,54,0
233.9774,234.07289,67,53,0
233.88191,234.08086,76,57,0
234.16838,234.26968,67,55,0
234.07289,234.26968,77,61,0
234.36517,234.46066,67,50,0
234.26968,234.46863,76,60,0
234.55615,234.6598,67,43,0
234.46066,234.6598,77,56,0
234.6598,234.73753,76,60,0
235.1608,235.25879,64,51,0
235.25879,235.33633,70,55,0
235.36218,235.45953,60,48,0
235.45953,235.55688,64,51,0
235.55688,235.65424,67,53,0
235.65424,235.73125,70,56,0
235.75691,235.85426,76,53,0
235.85426,235.95161,82,62,0
235.95161,236.04897,81,61,0
236.04897,236.14632,79,60,0
236.14632,236.24368,77,59,0
236.24368,236.34103,76,58,0
236.34103,236.43839,74,55,0
236.43839,236.53574,72,59,0
236.53574,236.63771,74,55,0
236.63771,236.73506,72,58,0
236.73506,236.83243,70,57,0
236.83243,236.92978,69,56,0
236.92978,237.02713,67,55,0
237.12283,237.21854,75,43,0
237.02713,237.22652,65,49,0
237.31424,237.40994,75,45,0
237.21854,237.40994,66,52,0
237.50566,237.60136,75,52,0
237.40994,237.60933,65,55,0
237.69707,237.79906,75,56,0
237.60136,237.79906,66,62,0
237.89455,237.99004,75,55,0
237.79906,237.998,68,65,0
238.08553,238.18918,75,43,0
237.99004,238.18918,66,52,0
238.28467,238.38016,75,44,0
238.18918,238.3881,65,50,0
238.47565,238.57114,75,49,0
238.38016,238.57114,66,54,0
238.66664,238.76213,75,53,0
238.57114,238.77008,65,57,0
238.85762,238.95892,75,55,0
238.76213,238.95892,66,63,0
239.05441,239.1499,75,54,0
238.95892,239.15787,68,66,0
239.24539,239.34903,75,43,0
239.1499,239.34903,66,56,0
239.34903,239.42677,65,60,0
239.85004,239.94803,69,51,0
239.94803,240.02556,75,55,0
240.0514,240.14876,65,48,0
240.14876,240.24611,69,51,0
240.24611,240.34348,72,53,0
240.34348,240.42049,75,56,0
240.44615,240.5435,81,53,0
240.5435,240.64085,87,62,0
240.64085,240.7382,86,61,0
240.7382,240.83556,84,60,0
240.83556,240.9329,82,59,0
240.9329,241.03026,81,58,0
241.03026,241.12761,79,55,0
241.12761,241.22496,77,59,0
241.22496,241.32695,79,55,0
241.32695,241.4243,77,56,0
241.4243,241.52165,75,54,0
241.52165,241.619,74,52,0
241.619,241.73344,72,50,0
241.73344,241.92815,74,54,0
242.12285,242.31755,74,42,0
242.31755,242.51225,72,46,0
242.70697,242.9077,72,45,0
242.9077,243.87439,75,52,0
243.87439,244.07242,74,42,0
244.07242,244.26712,75,46,0
244.46057,244.65593,75,42,0
244.65593,244.85063,74,43,0
245.04533,245.2433,74,43,0
245.2433,246.21815,79,52,0
246.21815,246.4175,77,44,0
246.4175,246.61417,77,47,0
246.61417,246.81015,76,44,0
246.81015,247.2021,72,48,0
247.2021,247.3943,74,45,0
247.3943,247.58833,75,45,0
247.5917,247.78767,75,45,0
247.78767,247.98366,74,42,0
247.98366,248.37823,70,46,0
248.37823,248.58034,72,46,0
248.58034,248.97769,73,51,0
248.97769,249.17366,72,51,0
249.17366,249.56561,73,55,0
249.56561,249.7616,72,50,0
249.7616,249.96172,70,51,0
249.96172,250.56949,69,57,0
250.56949,250.77208,72,55,0
251.17726,251.27461,74,75,0
251.27461,251.37198,70,57,0
251.37198,251.46933,65,57,0
251.46933,251.56668,70,57,0
251.56668,251.66403,74,57,0
251.66403,251.76138,70,57,0
251.76138,251.85873,72,73,0
251.85873,251.95609,69,56,0
251.95609,252.05344,65,56,0
252.05344,252.15079,69,56,0
252.15079,252.24814,72,56,0
252.24814,252.35153,69,56,0
252.35153,252.44888,75,76,0
252.44888,252.54623,70,55,0
252.54623,252.64359,67,55,0
252.64359,252.74094,70,55,0
252.74094,252.83643,75,60,0
252.83643,252.93193,70,53,0
252.93193,253.02742,75,59,0
253.02742,253.12477,70,52,0
253.12477,253.2215,75,60,0
253.2215,253.31822,70,48,0
253.31822,253.41495,74,74,0
253.41495,253.51624,69,51,0
253.51624,253.61359,75,78,0
253.61359,253.71094,70,53,0
253.71094,253.80766,67,54,0
253.80766,253.90439,70,54,0
253.90439,254.00111,75,60,0
254.00111,254.09975,70,54,0
254.09975,254.1971,74,64,0
254.1971,254.29445,69,52,0
254.29445,254.3918,65,53,0
254.3918,254.48915,69,53,0
254.48915,254.5865,74,73,0
254.5865,254.68712,69,57,0
254.68712,254.78447,79,75,0
254.78447,254.88184,70,52,0
254.88184,254.97855,67,52,0
254.97855,255.07527,70,52,0
255.07527,255.17522,79,61,0
255.17522,255.27258,70,51,0
255.27258,255.36993,79,63,0
255.36993,255.46729,70,52,0
255.46729,255.56464,79,65,0
255.56464,255.66199,70,53,0
255.66199,255.75934,77,51,0
255.75934,255.86133,70,45,0
256.15723,256.25586,67,51,0
256.25586,256.3545,70,44,0
256.3545,256.46005,76,44,0
256.75595,256.85458,69,51,0
256.85458,256.95322,72,46,0
256.95322,257.05878,75,46,0
257.35468,257.4533,67,51,0
257.4533,257.55194,70,44,0
257.55194,257.65753,74,44,0
257.95148,258.04947,63,57,0
258.04947,258.14746,67,48,0
258.14746,258.2516,72,49,0
258.5475,258.64612,62,56,0
258.64612,258.74475,65,48,0
258.74475,258.8503,70,48,0
259.15112,259.25687,63,59,0
259.25687,259.36557,65,52,0
259.36557,259.49942,69,52,0
261.47205,261.6693,62,51,0
261.6693,261.87134,65,56,0
261.87134,262.0686,66,57,0
262.0686,262.2633,69,58,0
262.2633,262.458,72,60,0
262.458,262.6527,75,61,0
262.6527,262.8474,78,63,0
262.8474,263.04745,81,64,0
263.04745,263.24472,84,66,0
263.24472,263.43942,81,64,0
263.43942,263.63412,78,62,0
263.63412,263.82883,75,60,0
263.82883,264.02353,74,58,0
264.02353,264.225,66,57,0
264.225,264.42227,69,55,0
264.42227,264.61954,67,45,0
264.61954,264.823,73,45,0
264.823,265.02026,74,50,0
265.02026,265.21753,78,47,0
265.21753,265.4248,79,47,0
265.4248,265.62604,85,52,0
265.62604,265.82727,86,45,0
265.82727,266.0373,81,41,0
266.0373,266.23853,82,49,0
266.23853,266.43976,78,43,0
266.43976,266.6498,79,43,0
266.85104,267.05228,77,39,0
267.05228,267.26196,76,35,0
267.46185,267.66174,76,35,0
267.66174,267.86853,85,41,0
268.06842,268.2683,85,41,0
268.2683,268.47092,84,43,0
268.6708,268.8707,84,43,0
268.8707,269.07892,76,41,0
269.2788,269.4787,76,56,0
269.4787,269.6786,77,53,0
269.6786,269.87848,84,63,0
269.87848,270.07837,79,56,0
270.07837,270.27826,82,56,0
270.27826,270.47815,80,63,0
270.47815,270.67807,76,56,0
270.67807,270.87796,79,56,0
270.87796,271.07785,77,60,0
271.07785,271.27774,75,52,0
271.27774,271.48453,73,52,0
271.48453,272.08154,72,51,0
272.08154,272.68127,71,45,0
272.68127,273.28098,77,50,0
273.28098,273.88754,71,45,0
274.0929,274.29147,67,55,0
274.0929,274.29147,72,66,0
274.0929,274.29147,64,55,0
274.29147,274.39075,74,73,0
274.29147,274.39075,65,60,0
274.29147,274.39075,71,60,0
274.69684,274.8941,71,55,0
274.69684,274.8941,65,55,0
274.69684,274.8941,74,66,0
274.8941,274.99274,76,74,0
274.8941,274.99274,67,61,0
274.8941,274.99274,70,61,0
275.29395,275.49252,70,55,0
275.29395,275.49252,76,66,0
275.29395,275.49252,67,55,0
275.49252,275.5918,77,72,0
275.49252,275.5918,69,60,0
275.49252,275.5918,72,60,0
275.89368,276.09225,69,55,0
275.89368,276.09225,72,55,0
275.89368,276.09225,78,66,0
276.09225,276.19153,70,59,0
276.09225,276.19153,76,59,0
276.09225,276.19153,79,71,0
276.4962,276.69476,79,66,0
276.4962,276.69476,70,55,0
276.4962,276.69476,76,55,0
276.69476,276.79404,77,60,0
276.69476,276.79404,72,60,0
276.69476,276.79404,81,73,0
277.0987,277.30692,81,66,0
277.0987,277.30692,72,55,0
277.0987,277.30692,78,55,0
277.30692,277.4188,79,58,0
277.30692,277.4188,82,70,0
277.30692,277.4188,76,58,0
277.53067,278.7434,76,71,0
277.53067,278.7434,79,71,0
277.53067,278.84402,82,86,0
278.84402,278.95392,84,63,0
278.944,279.05313,86,66,0
279.04324,279.1506,84,65,0
279.1408,279.24896,82,63,0
279.23907,279.34836,81,62,0
279.33835,279.4483,79,62,0
279.4383,279.5477,81,64,0
279.53778,279.64664,82,67,0
279.63678,279.74527,81,66,0
279.7354,279.8445,79,64,0
279.8346,279.944,77,62,0
279.93408,280.04428,76,63,0
280.0343,280.14386,77,63,0
280.13394,280.24234,79,64,0
280.23254,280.3399,77,64,0
280.33017,280.4383,76,62,0
280.42838,280.53766,74,60,0
280.52765,280.6376,72,62,0
280.6276,280.73798,73,62,0
280.72794,280.8379,74,64,0
280.82797,280.93686,72,63,0
280.92694,281.03696,70,61,0
281.02692,281.13846,69,60,0
281.12833,281.23938,67,59,0
281.22934,281.3395,69,61,0
281.32953,281.43823,70,64,0
281.42844,281.53687,69,63,0
281.52695,281.6365,67,61,0
281.62653,281.73734,65,60,0
281.72723,281.83792,64,60,0
281.8279,281.9371,65,62,0
281.92725,282.0347,67,63,0
282.02502,282.13205,65,62,0
282.12225,282.23065,64,60,0
282.2207,282.3204,62,59,0
284.761,284.86694,84,66,0
284.8573,284.96326,83,68,0
284.95364,285.05957,84,69,0
285.04996,285.15622,89,70,0
285.14627,285.25537,84,63,0
285.2458,285.35107,82,70,0
285.3415,285.44678,81,66,0
285.4372,285.54248,80,64,0
285.5329,285.63818,81,64,0
285.6286,285.7342,84,70,0
285.7243,285.8327,81,64,0
285.82318,285.9278,79,70,0
285.91827,286.0229,77,64,0
286.01337,286.11798,76,64,0
286.1085,286.21307,77,64,0
286.20358,286.30856,81,70,0
286.29868,286.4071,77,65,0
286.39752,286.5028,74,70,0
286.49326,286.5985,72,65,0
286.58896,286.6942,71,65,0
286.68466,286.78992,72,65,0
286.78036,286.88614,77,70,0
286.87607,286.98642,72,65,0
286.97693,287.0815,70,70,0
287.07202,287.177,69,66,0
287.1671,287.27585,68,66,0
287.266,287.37473,69,66,0
287.36484,287.47583,72,70,0
287.46368,287.59494,69,64,0
287.58493,287.68512,65,70,0
287.68512,287.78082,77,64,0
287.78082,287.87653,64,70,0
287.87653,287.97223,77,64,0
287.97223,288.06793,65,70,0
288.06793,288.16946,77,64,0
288.16946,288.26517,67,70,0
288.26517,288.36087,77,64,0
288.36087,288.45657,65,65,0
288.45657,288.5523,77,58,0
288.5523,288.648,67,67,0
288.648,288.74884,77,61,0
288.74884,288.84396,69,70,0
288.84396,288.93906,77,60,0
288.93906,289.03415,67,66,0
289.03415,289.12924,77,62,0
289.12924,289.22433,69,67,0
289.22433,289.33908,77,62,0
289.33908,289.43542,70,74,0
289.43542,289.53174,77,61,0
289.53174,289.62805,70,65,0
289.62805,289.72437,77,61,0
289.72437,289.82068,69,65,0
289.82068,289.92435,77,60,0
289.92435,290.02005,70,70,0
290.02005,290.11575,77,60,0
290.11575,290.21146,70,65,0
290.21146,290.30716,77,60,0
290.30716,290.40286,69,65,0
290.40286,290.52673,77,54,0
290.52673,290.62247,68,49,0
290.62247,290.71817,77,41,0
290.71817,290.81387,68,49,0
290.81387,290.90958,77,42,0
290.90958,291.00528,68,49,0
291.00528,291.10892,77,40,0
291.10892,291.3191,76,48,0
291.10892,291.3191,67,48,0
291.83582,291.94174,84,66,0
291.93213,292.0381,83,68,0
292.02844,292.1344,84,69,0
292.12476,292.23105,89,70,0
292.22107,292.33017,84,63,0
292.3206,292.42587,82,70,0
292.4163,292.52158,81,66,0
292.51202,292.61728,80,64,0
292.60773,292.71298,81,64,0
292.70343,292.80902,84,70,0
292.79913,292.9075,81,64,0
292.89798,293.0026,79,70,0
292.99307,293.0977,77,64,0
293.0882,293.1928,76,64,0
293.1833,293.2879,77,64,0
293.27838,293.38336,81,70,0
293.37347,293.4819,77,65,0
293.47235,293.5776,74,70,0
293.56805,293.67334,72,65,0
293.66376,293.76904,71,65,0
293.75946,293.86475,72,65,0
293.85516,293.96097,77,70,0
293.95087,294.06125,72,65,0
294.05173,294.15634,70,70,0
294.14682,294.2518,69,66,0
294.2419,294.35068,68,66,0
294.3408,294.44952,69,66,0
294.43964,294.55063,72,70,0
294.5385,294.66968,69,64,0
294.65973,294.75925,65,70,0
294.75925,294.85495,77,64,0
294.85495,294.95065,64,70,0
294.95065,295.0464,77,64,0
295.0464,295.1421,65,70,0
295.1421,295.24362,77,64,0
295.24362,295.33932,67,70,0
295.33932,295.43503,77,64,0
295.43503,295.53073,65,65,0
295.53073,295.62643,77,58,0
295.62643,295.72214,67,67,0
295.72214,295.823,77,61,0
295.823,295.9181,69,70,0
295.9181,296.01318,77,60,0
296.01318,296.1083,67,66,0
296.1083,296.2034,77,62,0
296.2034,296.2985,69,67,0
296.2985,296.41324,77,62,0
296.41324,296.50955,70,74,0
296.50955,296.60587,77,61,0
296.60587,296.7022,70,65,0
296.7022,296.79852,77,61,0
296.79852,296.89484,69,65,0
296.89484,296.99847,77,60,0
296.99847,297.09418,70,70,0
297.09418,297.18988,77,60,0
297.18988,297.28558,70,65,0
297.28558,297.38132,77,60,0
297.38132,297.47702,69,65,0
297.47702,297.57993,77,46,0
297.57993,297.70383,68,44,0
297.70383,297.8277,77,36,0
298.2493,298.3655,67,42,0
298.3655,298.4817,76,34,0
298.91025,299.0292,66,43,0
299.0292,299.1482,75,36,0
299.76657,299.8661,62,58,0
299.8661,299.96558,67,59,0
299.96558,300.0651,70,60,0
300.0651,300.1646,74,61,0
300.1646,300.27408,72,62,0
300.26413,300.3736,70,62,0
300.36365,300.4731,69,60,0
300.46317,300.5739,67,59,0
300.56268,300.68607,65,57,0
300.67487,300.79697,64,55,0
300.78702,300.88654,65,58,0
300.98605,301.1851,60,49,0
301.1851,301.33905,60,49,0
301.33905,301.3935,64,41,0
301.3935,302.18964,70,49,0
302.18964,302.28915,69,43,0
302.38867,302.4882,67,43,0
302.5963,302.79535,67,49,0
302.79535,303.1934,65,45,0
303.1934,303.74625,65,45,0
303.74625,303.80148,64,41,0
303.80148,304.59763,70,49,0
304.59763,304.69714,69,43,0
304.79666,304.89615,67,43,0
305.0136,305.6107,71,51,0
305.6107,305.80972,72,45,0
306.15802,306.2125,64,41,0
306.2125,307.0086,70,49,0
307.0086,307.10812,69,43,0
307.20764,307.30716,67,43,0
307.41528,307.81335,65,54,0
307.81335,308.41043,69,60,0
308.41043,309.00754,72,60,0
309.00754,309.6046,70,58,0
309.6046,309.79852,67,50,0
309.79852,309.99756,65,56,0
310.3956,310.9927,85,82,0
310.3956,310.9927,73,69,0
310.9927,311.5884,86,88,0
310.9927,311.5884,74,74,0
311.5884,312.1841,74,71,0
311.5884,312.1841,84,84,0
312.1841,312.77985,82,85,0
312.1841,312.77985,74,72,0
312.77985,313.37555,81,76,0
312.77985,313.37555,74,65,0
313.37555,313.97125,74,67,0
313.37555,313.97125,79,79,0
313.97125,314.60028,74,65,0
313.97125,314.60028,78,76,0
313.97125,314.60028,72,65,0
314.60028,314.69955,79,65,0
314.69955,314.79886,74,54,0
314.79886,314.89557,70,54,0
314.89557,314.9923,74,54,0
314.9923,315.09497,79,65,0
315.09497,315.19766,74,54,0
315.19766,315.2963,81,65,0
315.2963,315.39493,74,54,0
315.39493,315.49103,72,54,0
315.49103,315.58713,74,54,0
315.58713,315.68774,81,65,0
315.68774,315.78836,74,55,0
315.78836,315.88635,82,65,0
315.88635,315.98434,79,55,0
315.98434,316.08234,74,55,0
316.08234,316.18033,79,55,0
316.18033,316.28094,82,65,0
316.28094,316.38156,79,55,0
316.38156,316.47955,83,65,0
316.47955,316.57755,79,55,0
316.57755,316.67365,74,55,0
316.67365,316.76974,79,55,0
316.76974,316.87036,83,65,0
316.87036,316.97098,79,56,0
316.97098,317.3655,84,65,0
317.3655,317.46286,86,59,0
317.46286,317.5602,84,59,0
317.5602,317.95734,82,65,0
317.95734,318.05533,84,57,0
318.05533,318.15332,82,57,0
318.15332,318.5531,81,65,0
318.5531,318.65173,82,57,0
318.65173,318.75037,81,57,0
318.75037,319.15018,79,65,0
319.15018,319.24814,81,59,0
319.24814,319.34613,79,59,0
319.34613,319.74594,77,65,0
319.74594,319.8439,79,59,0
319.8439,319.9419,77,59,0
319.9419,320.3417,76,65,0
320.3417,320.443,77,56,0
320.443,320.54428,76,56,0
320.54428,320.65424,79,62,0
320.64423,320.75418,77,54,0
320.74417,320.85413,76,54,0
320.84412,320.95407,77,54,0
320.94406,321.0543,76,53,0
321.044,321.15662,77,55,0
321.1467,321.25592,81,59,0
321.246,321.3552,79,55,0
321.34528,321.4545,78,55,0
321.44455,321.55377,79,55,0
321.54385,321.65347,78,55,0
321.64313,321.75644,79,55,0
321.74652,321.85574,81,59,0
321.8458,321.95502,79,54,0
321.9451,322.0543,77,54,0
322.04437,322.1536,79,54,0
322.14365,322.25287,81,54,0
322.24295,322.35217,82,54,0
322.34222,322.45145,84,59,0
322.44153,322.55072,82,55,0
322.5408,322.65002,81,55,0
322.64008,322.7493,82,55,0
322.73938,322.849,84,55,0
322.83865,322.95197,85,55,0
322.94205,323.04132,86,59,0
323.04132,323.15054,74,55,0
323.14062,323.24985,86,55,0
323.2399,323.34912,84,55,0
323.3392,323.4484,82,55,0
323.43848,323.54825,81,54,0
323.53775,323.6426,79,59,0
323.6426,323.7518,78,54,0
323.74188,323.8511,79,63,0
323.84116,323.95038,81,62,0
323.94046,324.04993,82,60,0
324.03973,324.15164,83,59,0
324.14172,324.241,84,59,0
324.241,324.3403,72,60,0
324.3403,324.43958,84,60,0
324.43958,324.53885,82,60,0
324.53885,324.63815,81,60,0
324.63815,324.73743,79,59,0
324.73743,324.8423,77,59,0
324.8423,324.95148,76,56,0
324.94156,325.05078,77,63,0
325.04083,325.15005,79,62,0
325.14014,325.24933,80,60,0
325.2394,325.33868,81,59,0
325.33868,325.438,82,59,0
325.438,325.53726,84,60,0
325.53726,325.63657,82,60,0
325.63657,325.73584,81,60,0
325.73584,325.8351,79,60,0
325.8351,325.93442,77,59,0
325.93442,326.03925,76,59,0
326.03925,326.14847,77,56,0
326.13852,326.24774,76,63,0
326.23782,326.34702,74,62,0
326.3371,326.44632,72,60,0
326.43637,326.5456,70,59,0
326.53568,326.63495,69,56,0
326.63495,326.73358,72,61,0
326.73358,326.8322,77,68,0
326.8322,326.93085,79,62,0
326.93085,327.02948,77,63,0
327.02948,327.1281,76,63,0
327.1281,327.23294,74,60,0
327.23294,327.34146,72,53,0
327.33157,327.4401,70,59,0
327.4302,327.53873,69,54,0
327.52884,327.63742,67,54,0
327.62747,327.73663,65,54,0
327.72678,327.8254,64,59,0
327.8254,327.9339,65,58,0
327.92404,328.03253,67,62,0
328.02267,328.13116,65,61,0
328.1213,328.2298,64,60,0
328.21994,328.3284,62,59,0
328.31857,328.42667,60,57,0
328.96472,329.76083,68,49,0
329.76083,329.85947,67,43,0
329.9581,330.05673,65,43,0
330.16486,330.56293,71,49,0
330.56293,330.76196,72,43,0
330.76196,331.16,67,43,0
331.37006,332.16617,73,58,0
332.16617,332.2648,72,49,0
332.36343,332.46207,70,49,0
332.5702,332.76923,68,60,0
332.76923,332.83722,70,42,0
332.83722,332.9052,68,42,0
332.9052,332.9732,67,42,0
332.9732,333.07587,68,51,0
333.07587,333.19208,70,44,0
333.19208,333.58923,72,51,0
333.799,334.4027,77,66,0
334.4027,334.8001,75,54,0
334.8001,335.00146,77,50,0
335.00146,335.4015,75,57,0
335.4015,335.6015,73,52,0
335.6015,336.20844,72,55,0
336.20844,336.6058,70,59,0
336.6058,336.8045,68,53,0
336.8045,337.20187,67,57,0
337.20187,337.41315,65,47,0
337.41315,338.00922,68,53,0
338.00922,338.20792,67,45,0
338.6194,339.41415,68,41,0
338.6194,339.41415,80,49,0
339.41415,339.51276,79,43,0
339.41415,339.51276,67,36,0
339.6114,339.71002,65,36,0
339.6114,339.71002,77,43,0
339.81815,340.21622,83,49,0
339.81815,340.21622,71,41,0
340.21622,340.41525,72,36,0
340.21622,340.41525,84,43,0
340.41525,340.81332,79,43,0
340.41525,340.81332,67,36,0
341.02335,341.81946,85,58,0
341.02335,341.81946,73,49,0
341.81946,341.9181,84,49,0
341.81946,341.9181,72,41,0
342.01672,342.11536,70,41,0
342.01672,342.11536,82,49,0
342.22348,342.6265,69,51,0
342.22348,342.6265,81,60,0
342.6265,342.8454,72,43,0
342.6265,342.8454,84,51,0
342.8454,343.24252,70,43,0
342.8454,343.24252,82,51,0
343.45233,344.05603,71,56,0
343.45233,344.05603,83,71,0
344.05603,344.65973,84,71,0
344.05603,344.65973,72,56,0
344.65973,345.26343,73,54,0
344.65973,345.26343,85,69,0
345.26343,345.46466,84,71,0
345.26343,345.46466,72,56,0
345.76724,345.86862,89,53,0
345.86862,346.41864,77,64,0
346.41864,346.46866,80,40,0
345.86862,346.46866,72,51,0
346.46866,347.0909,79,51,0
346.46866,347.0909,76,51,0
347.0909,347.1915,77,74,0
347.1915,347.29077,72,62,0
347.29077,347.3878,71,62,0
347.3878,347.4845,72,62,0
347.4845,347.58655,74,69,0
347.58655,347.6892,72,62,0
347.6892,347.78656,70,65,0
347.78656,347.8839,72,60,0
347.8839,347.98004,70,65,0
347.98004,348.07614,72,59,0
348.07614,348.17627,70,65,0
348.17627,348.2769,72,59,0
348.2769,348.3763,69,74,0
348.3763,348.4756,72,62,0
348.4756,348.5726,71,62,0
348.5726,348.6693,72,62,0
348.6693,348.77136,77,74,0
348.77136,348.87405,72,62,0
348.87405,348.97202,70,65,0
348.97202,349.07,72,60,0
349.07,349.1655,70,65,0
349.1655,349.26102,72,59,0
349.26102,349.36105,70,65,0
349.36105,349.46167,72,59,0
349.46167,349.5611,69,74,0
349.5611,349.6604,84,62,0
349.6604,349.7574,83,62,0
349.7574,349.85413,84,62,0
349.85413,349.95615,86,72,0
349.95615,350.05884,84,62,0
350.05884,350.15494,82,65,0
350.15494,350.25107,84,60,0
350.25107,350.34717,82,65,0
350.34717,350.44327,84,59,0
350.44327,350.5434,82,65,0
350.5434,350.644,84,59,0
350.644,350.74344,81,74,0
350.74344,350.8427,84,62,0
350.8427,350.93973,83,62,0
350.93973,351.03644,84,62,0
351.03644,351.1385,89,69,0
351.1385,351.24118,84,62,0
351.24118,351.33728,82,65,0
351.33728,351.43338,84,60,0
351.43338,351.52948,82,65,0
351.52948,351.62558,84,59,0
351.62558,351.7257,82,65,0
351.7257,351.82632,84,59,0
351.82632,351.92575,81,74,0
351.92575,352.02505,84,62,0
352.02505,352.12204,89,71,0
352.12204,352.21878,81,60,0
352.21878,352.3208,79,70,0
352.3208,352.4225,88,62,0
352.4225,352.52054,77,70,0
352.52054,352.61734,86,62,0
352.61734,352.7123,76,69,0
352.7123,352.80704,84,60,0
352.80704,352.90134,74,67,0
352.90134,352.99588,82,58,0
352.99588,353.08957,72,69,0
353.08957,353.1833,81,62,0
353.1833,353.27698,70,67,0
353.27698,353.3707,79,59,0
353.3707,353.4644,69,66,0
353.4644,353.5581,77,56,0
353.5581,353.65466,67,62,0
353.65466,353.75284,76,54,0
353.75284,353.85226,65,63,0
353.85226,353.95306,74,55,0
353.95306,354.05524,64,62,0
354.05524,354.15878,72,51,0
354.15878,354.75458,62,45,0
354.15878,354.75458,71,55,0
354.75458,355.34644,61,45,0
354.75458,355.34644,70,55,0
355.34644,355.94098,73,45,0
355.34644,355.94098,82,55,0
355.94098,356.53027,67,45,0
355.94098,356.53027,76,55,0
356.7315,356.82886,84,49,0
356.9262,357.0236,84,49,0
357.32217,357.41953,86,49,0
357.51688,357.61884,86,49,0
357.72083,358.27423,77,47,0
357.72083,358.27423,72,39,0
358.27423,358.32452,81,40,0
358.32452,358.9492,76,37,0
358.32452,358.9492,79,44,0
358.9492,359.0486,77,74,0
359.0486,359.14792,72,62,0
359.14792,359.2449,71,62,0
359.2449,359.34164,72,62,0
359.34164,359.44366,74,68,0
359.44366,359.54636,72,62,0
359.54636,359.64542,70,65,0
359.64542,359.74405,72,60,0
359.74405,359.84042,70,65,0
359.84042,359.93655,72,59,0
359.93655,360.03668,70,65,0
360.03668,360.1373,72,59,0
360.1373,360.23672,69,74,0
360.23672,360.336,72,62,0
360.336,360.433,71,62,0
360.433,360.52972,72,62,0
360.52972,360.63177,77,74,0
360.63177,360.73444,72,62,0
360.73444,360.83353,70,65,0
360.83353,360.93216,72,60,0
360.93216,361.02853,70,65,0
361.02853,361.12463,72,59,0
361.12463,361.22476,70,65,0
361.22476,361.32538,72,59,0
361.32538,361.4248,69,74,0
361.4248,361.52408,84,62,0
361.52408,361.6211,83,62,0
361.6211,361.7178,84,62,0
361.7178,361.81985,86,72,0
361.81985,361.92255,84,62,0
361.92255,362.0216,82,65,0
362.0216,362.12024,84,60,0
362.12024,362.2166,82,65,0
362.2166,362.3127,84,59,0
362.3127,362.41284,82,65,0
362.41284,362.51346,84,59,0
362.51346,362.6129,81,74,0
362.6129,362.7122,84,62,0
362.7122,362.80917,83,62,0
362.80917,362.9059,84,62,0
362.9059,363.00793,89,72,0
363.00793,363.11063,84,62,0
363.11063,363.20972,82,65,0
363.20972,363.30835,84,60,0
363.30835,363.40472,82,65,0
363.40472,363.50082,84,59,0
363.50082,363.60095,82,65,0
363.60095,363.70157,84,59,0
363.70157,363.801,81,74,0
363.801,363.90027,84,62,0
363.90027,363.99728,89,71,0
363.99728,364.09467,81,60,0
364.09467,364.19446,79,70,0
364.19446,364.2936,88,62,0
364.2936,364.39206,77,70,0
364.39206,364.48917,86,62,0
364.48917,364.5852,76,69,0
364.5852,364.68033,84,60,0
364.68033,364.77444,74,67,0
364.77444,364.8677,82,58,0
364.8677,364.96027,72,69,0
364.96027,365.0528,81,62,0
365.0528,365.14536,70,67,0
365.14536,365.23788,79,59,0
365.23788,365.33044,69,66,0
365.33044,365.423,77,56,0
365.423,365.51566,67,64,0
365.51566,365.6105,76,55,0
365.6105,365.70786,65,63,0
365.70786,365.8085,74,55,0
365.8085,365.91068,64,62,0
365.91068,366.01425,72,51,0
366.01425,366.61002,62,45,0
366.01425,366.61002,71,55,0
366.61002,367.20187,61,45,0
366.61002,367.20187,70,55,0
367.20187,367.79642,73,45,0
367.20187,367.79642,82,55,0
367.79642,368.38574,67,45,0
367.79642,368.38574,76,55,0
368.58698,368.68433,84,49,0
368.78168,368.87903,84,49,0
369.1776,369.27496,86,49,0
369.3723,369.4743,86,49,0
369.5763,370.18,77,47,0
370.18,370.81323,76,37,0
369.5763,370.81323,72,39,0
370.81323,370.91592,83,71,0
370.91592,371.02853,84,55,0
371.01862,371.1278,83,55,0
371.1179,371.2271,84,55,0
371.21716,371.32977,83,55,0
371.3195,371.42218,84,55,0
371.42218,371.5336,85,62,0
371.52347,371.6347,86,55,0
371.62476,371.73398,85,55,0
371.72406,371.83328,86,55,0
371.82333,371.93387,88,59,0
371.92383,372.02444,89,54,0
372.02444,372.57782,77,47,0
372.57782,372.62814,81,37,0
372.02444,372.62814,72,39,0
372.62814,373.04456,76,43,0
372.62814,373.14868,79,43,0
373.14868,373.25278,77,37,0
373.25278,373.3673,77,71,0
373.3569,373.47092,81,64,0
373.461,373.57022,84,67,0
373.56027,373.6693,89,68,0
373.65958,373.76666,88,69,0
373.75693,373.864,86,69,0
373.85428,373.96136,84,71,0
373.95163,374.05872,86,67,0
374.04898,374.15607,84,67,0
374.14633,374.25342,82,67,0
374.24368,374.3519,81,67,0
374.34103,374.44968,79,67,0
374.44968,374.56418,77,71,0
374.55377,374.66776,81,64,0
374.6579,374.7664,79,64,0
374.75653,374.8649,77,68,0
374.85516,374.96225,76,64,0
374.9525,375.0596,74,64,0
375.04987,375.15695,72,69,0
375.14722,375.2543,74,63,0
375.24457,375.35165,72,63,0
375.34192,375.449,70,63,0
375.43927,375.5474,69,63,0
375.53662,375.64447,67,63,0
375.64447,375.75665,65,71,0
375.74646,375.85825,69,63,0
375.84845,375.95624,67,63,0
375.9464,376.05414,65,63,0
376.0444,376.1515,64,63,0
376.14175,376.24884,62,64,0
376.2391,376.3462,60,71,0
376.33646,376.44354,62,64,0
376.4338,376.5409,60,64,0
376.53116,376.63828,58,64,0
376.62854,376.73666,57,64,0
376.7259,376.83374,55,64,0
376.83374,376.93436,53,81,0
377.03497,377.1356,57,70,0
377.2362,377.33682,60,70,0
377.43744,377.53806,65,78,0
377.63867,377.7393,69,70,0
377.8399,377.94052,72,70,0
378.04114,378.2415,77,88,0
378.6422,379.04294,72,75,0
378.6422,379.04294,84,90,0
378.6422,379.04294,81,75,0
379.2433,379.6467,84,81,0
379.2433,379.6467,77,79,0
379.2433,379.6467,87,94,0
380.45355,380.85696,82,74,0
380.45355,380.85696,77,74,0
380.45355,380.85696,86,86,0
381.6638,382.0672,77,74,0
381.6638,382.0672,80,74,0
381.6638,382.0672,86,86,0
381.6638,382.0672,89,74,0
382.88068,383.98813,65,47,0
383.98813,384.0888,69,47,0
382.88068,384.0888,60,39,0
384.0888,385.1162,67,50,0
385.1162,385.36267,65,41,0
384.0888,385.36267,64,42,0
385.36267,385.62878,65,46,0
384.0888,385.62878,60,42,0
385.89493,386.09393,57,71,0
386.09393,386.19128,58,78,0
386.28867,386.38602,67,73,0
386.48337,386.5833,59,72,0
386.68326,386.7806,60,78,0
386.87796,386.9753,69,73,0
387.07266,387.1713,61,73,0
387.26993,387.36728,62,78,0
387.46463,387.56198,70,72,0
387.65933,387.7586,64,72,0
387.8579,388.63672,82,68,0
388.63672,388.7316,81,62,0
388.7316,388.8265,79,61,0
388.8265,388.9214,77,59,0
388.9214,389.01627,76,57,0
389.01627,389.11362,77,56,0
389.21097,389.30832,79,49,0
389.40567,389.51358,81,54,0
389.62152,390.01093,72,46,0
389.62152,390.01093,69,46,0
390.01093,390.22675,67,40,0
390.01093,390.22675,70,40,0
390.22675,390.85175,67,46,0
390.22675,390.85175,70,46,0
390.85175,391.0504,69,41,0
390.85175,391.0504,65,41,0
391.84512,392.0438,57,71,0
392.0438,392.14056,58,78,0
392.23737,392.33414,67,73,0
392.4309,392.53027,59,72,0
392.6296,392.72638,60,78,0
392.82318,392.91995,69,73,0
393.01672,393.11606,61,73,0
393.21542,393.31284,62,78,0
393.41025,393.50763,70,72,0
393.60504,393.70505,64,72,0
393.80505,394.60513,82,68,0
394.60513,394.7,81,62,0
394.7,394.7949,79,61,0
394.7949,394.8898,77,59,0
394.8898,394.98468,76,57,0
394.98468,395.0398,77,56,0
395.0398,395.0949,79,49,0
395.0949,395.15002,81,49,0
395.62283,395.69247,74,46,0
395.69247,395.7621,76,39,0
395.7621,395.82318,77,39,0
396.32922,396.8479,65,44,0
396.8479,396.95978,69,39,0
396.95978,397.40726,64,36,0
396.95978,397.40726,67,44,0
397.40726,397.6452,65,41,0
396.32922,397.6452,60,37,0
398.04654,398.24252,69,39,0
397.6452,398.24252,65,41,0
398.24252,398.4398,72,44,0
398.4398,398.63705,70,39,0
398.63705,398.83966,67,39,0
398.24252,398.83966,64,37,0
399.03693,399.2309,60,40,0
399.2342,399.43542,69,40,0
398.83966,399.43542,65,44,0
399.43542,399.6327,72,44,0
399.6327,399.82993,70,40,0
399.82993,400.03723,67,40,0
399.43542,400.03723,64,37,0
400.03723,400.23892,65,44,0
400.23892,400.4373,60,41,0
400.44064,400.66498,69,41,0
400.66498,400.87225,65,44,0
400.87225,401.12332,60,40,0
401.12653,401.4924,69,40,0
401.4924,402.43002,58,36,0
401.4924,402.43002,67,42,0
402.43002,402.74255,57,31,0
402.43002,402.74255,65,36,0
403.46393,403.5699,79,66,0
403.56024,403.6662,78,68,0
403.65656,403.7625,79,69,0
403.7529,403.85916,84,70,0
403.8492,403.95828,79,63,0
403.94873,404.054,77,70,0
404.04443,404.14972,75,66,0
404.14014,404.24542,74,64,0
404.23584,404.34113,75,64,0
404.33154,404.43713,79,70,0
404.42725,404.5356,75,64,0
404.52612,404.63074,74,70,0
404.62122,404.72583,72,64,0
404.7163,404.82092,71,64,0
404.8114,404.91602,72,64,0
404.90652,405.0115,75,70,0
405.00162,405.11005,72,65,0
405.10046,405.20575,68,70,0
405.19617,405.30145,67,65,0
405.29187,405.39716,66,65,0
405.38757,405.49286,67,65,0
405.4833,405.58908,72,70,0
405.579,405.68936,67,65,0
405.67984,405.78445,65,70,0
405.77496,405.87994,63,66,0
405.87006,405.9788,62,66,0
405.9689,406.07767,63,66,0
406.06778,406.17874,67,70,0
406.16663,406.29813,63,64,0
406.28787,406.39062,60,70,0
406.39062,406.48615,72,64,0
406.48615,406.5817,59,70,0
406.5817,406.67725,72,64,0
406.67725,406.7728,60,70,0
406.7728,406.87433,72,64,0
406.87433,406.97003,62,70,0
406.97003,407.06573,72,64,0
407.06573,407.16147,60,65,0
407.16147,407.25717,72,58,0
407.25717,407.35287,62,67,0
407.35287,407.45374,72,61,0
407.45374,407.54883,64,70,0
407.54883,407.64392,72,60,0
407.64392,407.739,62,66,0
407.739,407.8341,72,62,0
407.8341,407.92923,64,67,0
407.92923,408.04395,72,62,0
408.04395,408.1403,65,74,0
408.1403,408.2366,72,61,0
408.2366,408.33292,65,65,0
408.33292,408.42923,72,61,0
408.42923,408.52557,63,65,0
408.52557,408.6292,72,60,0
408.6292,408.7249,65,70,0
408.7249,408.82062,72,60,0
408.82062,408.91632,65,65,0
408.91632,409.01202,72,60,0
409.01202,409.10773,63,65,0
409.10773,409.21066,72,54,0
409.30637,409.40207,72,43,0
409.21066,409.41003,62,49,0
409.49777,409.59348,72,45,0
409.40207,409.59348,63,52,0
409.68918,409.78488,72,52,0
409.59348,409.79288,62,55,0
409.8806,409.98257,72,59,0
409.78488,409.98257,63,59,0
410.0781,410.17358,72,55,0
409.98257,410.18152,65,66,0
410.26907,410.3727,72,43,0
410.17358,410.3727,63,52,0
410.4682,410.5637,72,44,0
410.3727,410.57166,62,50,0
410.65918,410.75467,72,49,0
410.5637,410.75467,63,54,0
410.85016,410.94568,72,53,0
410.75467,410.9536,62,57,0
411.04117,411.14246,72,55,0
410.94568,411.14246,63,59,0
411.23795,411.33344,72,54,0
411.14246,411.3414,65,64,0
411.42892,411.53256,72,43,0
411.33344,411.53256,63,56,0
411.53256,411.6103,62,60,0
412.03357,412.13156,66,51,0
412.13156,412.2091,72,55,0
412.23495,412.3323,62,48,0
412.3323,412.42966,66,51,0
412.42966,412.527,69,53,0
412.527,412.604,72,56,0
412.6297,412.72705,78,53,0
412.72705,412.8244,84,62,0
412.8244,412.92175,82,61,0
412.92175,413.0191,81,60,0
413.0191,413.11646,79,59,0
413.11646,413.2138,78,58,0
413.2138,413.31116,79,55,0
413.31116,413.4085,78,59,0
413.4085,413.5105,79,55,0
413.5105,413.60785,78,58,0
413.60785,413.7052,75,57,0
413.7052,413.80255,74,56,0
413.80255,413.8999,72,55,0
413.9956,414.0913,77,43,0
413.8999,414.09927,71,49,0
414.187,414.2827,77,45,0
414.0913,414.2827,72,52,0
414.37842,414.47412,77,52,0
414.2827,414.48212,71,55,0
414.56982,414.6718,77,60,0
414.47412,414.6718,72,62,0
414.7673,414.86282,77,55,0
414.6718,414.87076,73,67,0
414.9583,415.06195,77,43,0
414.86282,415.06195,72,52,0
415.15744,415.25293,77,44,0
415.06195,415.2609,71,50,0
415.34842,415.4439,77,49,0
415.25293,415.4439,72,54,0
415.5394,415.6349,77,53,0
415.4439,415.64285,71,57,0
415.7304,415.8317,77,55,0
415.6349,415.8317,72,63,0
415.9272,416.02267,77,54,0
415.8317,416.03064,73,68,0
416.11816,416.2218,77,43,0
416.02267,416.2218,72,56,0
416.2218,416.29953,71,60,0
416.7228,416.8208,71,51,0
416.8208,416.89835,77,55,0
416.9242,417.02155,67,48,0
417.02155,417.1189,71,51,0
417.1189,417.21625,74,53,0
417.21625,417.29324,77,56,0
417.31894,417.4163,83,53,0
417.4163,417.51364,89,62,0
417.51364,417.611,87,61,0
417.611,417.70834,86,60,0
417.70834,417.8057,84,59,0
417.8057,417.90305,83,58,0
417.90305,418.0004,80,55,0
418.0004,418.09775,79,59,0
418.09775,418.19974,78,55,0
418.19974,418.2971,79,58,0
418.2971,418.39444,80,57,0
418.39444,418.4918,79,56,0
418.4918,418.58914,77,55,0
418.68484,418.78055,67,43,0
418.58914,418.7885,76,49,0
418.87625,418.97195,67,45,0
418.78055,418.97195,77,52,0
419.06766,419.16336,67,52,0
418.97195,419.17136,76,55,0
419.25906,419.36105,67,53,0
419.16336,419.36105,77,59,0
419.45654,419.55203,67,55,0
419.36105,419.56,76,59,0
419.64755,419.7512,67,43,0
419.55203,419.7512,77,52,0
419.84668,419.94217,67,44,0
419.7512,419.95013,76,50,0
420.03766,420.13315,67,49,0
419.94217,420.13315,77,54,0
420.22864,420.32413,67,53,0
420.13315,420.3321,76,57,0
420.41962,420.52094,67,55,0
420.32413,420.52094,77,61,0
420.61642,420.7119,67,50,0
420.52094,420.71988,76,60,0
420.8074,420.91104,67,43,0
420.7119,420.91104,77,56,0
420.91104,420.98877,76,60,0
421.41205,421.51004,64,51,0
421.51004,421.5876,70,55,0
421.61343,421.7108,60,48,0
421.7108,421.80814,64,51,0
421.80814,421.9055,67,53,0
421.9055,421.98248,70,56,0
422.00815,422.1055,76,53,0
422.1055,422.20285,82,62,0
422.20285,422.30023,81,61,0
422.30023,422.39758,79,60,0
422.39758,422.49493,77,59,0
422.49493,422.5923,76,58,0
422.5923,422.68964,74,55,0
422.68964,422.787,72,59,0
422.787,422.88898,74,55,0
422.88898,422.98633,72,58,0
422.98633,423.08368,70,57,0
423.08368,423.18103,69,56,0
423.18103,423.27838,67,55,0
423.37408,423.4698,75,43,0
423.27838,423.47775,65,49,0
423.5655,423.6612,75,45,0
423.4698,423.6612,66,52,0
423.7569,423.8526,75,52,0
423.6612,423.8606,65,55,0
423.9483,424.0503,75,56,0
423.8526,424.0503,66,62,0
424.14578,424.24127,75,55,0
424.0503,424.24924,68,65,0
424.33676,424.44043,75,43,0
424.24127,424.44043,66,52,0
424.53592,424.6314,75,44,0
424.44043,424.63937,65,50,0
424.7269,424.8224,75,49,0
424.6314,424.8224,66,54,0
424.91788,425.01337,75,53,0
424.8224,425.02133,65,57,0
425.10886,425.21017,75,55,0
425.01337,425.21017,66,63,0
425.30566,425.40115,75,54,0
425.21017,425.40912,68,66,0
425.49664,425.60028,75,43,0
425.40115,425.60028,66,56,0
425.60028,425.678,65,60,0
426.1013,426.19928,69,51,0
426.19928,426.27682,75,55,0
426.30264,426.40002,65,48,0
426.40002,426.49738,69,51,0
426.49738,426.59473,72,53,0
426.59473,426.67172,75,56,0
426.6974,426.79474,81,53,0
426.79474,426.8921,87,62,0
426.8921,426.98944,86,61,0
426.98944,427.0868,84,60,0
427.0868,427.18414,82,59,0
427.18414,427.28152,81,58,0
427.28152,427.37888,79,55,0
427.37888,427.47623,77,59,0
427.47623,427.5782,79,55,0
427.5782,427.67554,77,56,0
427.67554,427.7729,75,54,0
427.7729,427.87027,74,52,0
427.87027,427.98468,72,50,0
427.98468,428.17938,74,54,0
428.37408,428.5688,74,42,0
428.5688,428.76352,72,46,0
428.95822,429.15897,72,45,0
429.15897,430.12564,75,52,0
430.12564,430.32367,74,42,0
430.32367,430.51837,75,46,0
430.71182,430.90717,75,42,0
430.90717,431.10187,74,43,0
431.29657,431.49454,74,43,0
431.49454,432.4694,79,52,0
432.4694,432.66873,77,44,0
432.66873,432.86542,77,47,0
432.86542,433.0614,76,44,0
433.0614,433.45334,72,48,0
433.45334,433.64554,74,45,0
433.64554,433.83957,75,45,0
433.84296,434.03894,75,45,0
434.03894,434.2349,74,42,0
434.2349,434.6295,70,46,0
434.6295,434.83157,72,46,0
434.83157,435.22894,73,51,0
435.22894,435.42493,72,51,0
435.42493,435.81686,73,55,0
435.81686,436.01285,72,50,0
436.01285,436.21295,70,51,0
436.21295,436.82074,69,57,0
436.82074,437.02332,72,55,0
437.42853,437.52588,74,75,0
437.52588,437.62323,70,57,0
437.62323,437.72058,65,57,0
437.72058,437.81793,70,57,0
437.81793,437.91528,74,57,0
437.91528,438.01263,70,57,0
438.01263,438.11,72,73,0
438.11,438.20734,69,56,0
438.20734,438.3047,65,56,0
438.3047,438.40204,69,56,0
438.40204,438.4994,72,56,0
438.4994,438.60278,69,56,0
438.60278,438.70013,75,76,0
438.70013,438.7975,70,55,0
438.7975,438.89484,67,55,0
438.89484,438.9922,70,55,0
438.9922,439.08768,75,60,0
439.08768,439.18317,70,53,0
439.18317,439.27866,75,59,0
439.27866,439.376,70,52,0
439.376,439.47275,75,60,0
439.47275,439.56946,70,48,0
439.56946,439.6662,74,74,0
439.6662,439.7675,69,51,0
439.7675,439.86484,75,78,0
439.86484,439.9622,70,53,0
439.9622,440.0589,67,54,0
440.0589,440.15564,70,54,0
440.15564,440.25235,75,60,0
440.25235,440.35098,70,54,0
440.35098,440.44833,74,64,0
440.44833,440.5457,69,52,0
440.5457,440.64304,65,53,0
440.64304,440.7404,69,53,0
440.7404,440.83777,74,73,0
440.83777,440.9384,69,57,0
440.9384,441.03574,79,75,0
441.03574,441.1331,70,52,0
441.1331,441.2298,67,52,0
441.2298,441.3265,70,52,0
441.3265,441.42648,79,61,0
441.42648,441.52383,70,51,0
441.52383,441.6212,79,63,0
441.6212,441.71854,70,52,0
441.71854,441.8159,79,65,0
441.8159,441.91324,70,53,0
441.91324,442.0106,77,51,0
442.0106,442.11258,70,45,0
442.40848,442.5071,67,51,0
442.5071,442.6057,70,44,0
442.6057,442.7113,76,44,0
443.0072,443.10583,69,51,0
443.10583,443.20447,72,46,0
443.20447,443.31003,75,46,0
443.60593,443.70456,67,51,0
443.70456,443.8032,70,44,0
443.8032,443.90878,74,44,0
444.20273,444.30072,63,57,0
444.30072,444.3987,67,48,0
444.3987,444.5028,72,49,0
444.7987,444.89734,62,56,0
444.89734,444.99597,65,48,0
444.99597,445.10156,70,48,0
445.40237,445.50812,63,59,0
445.50812,445.61682,65,52,0
445.61682,445.75064,69,52,0
447.7233,447.92056,62,51,0
447.92056,448.1226,65,56,0
448.1226,448.31985,66,57,0
448.31985,448.51456,69,58,0
448.51456,448.70926,72,60,0
448.70926,448.90396,75,61,0
448.90396,449.09866,78,63,0
449.09866,449.2987,81,64,0
449.2987,449.49597,84,66,0
449.49597,449.69067,81,64,0
449.69067,449.88538,78,62,0
449.88538,450.08008,75,60,0
450.08008,450.27478,74,58,0
450.27478,450.47626,66,57,0
450.47626,450.67352,69,55,0
450.67352,450.8708,67,45,0
450.8708,451.07425,73,45,0
451.07425,451.2715,74,50,0
451.2715,451.46878,78,47,0
451.46878,451.67603,79,47,0
451.67603,451.87726,85,52,0
451.87726,452.0785,86,45,0
452.0785,452.28854,81,41,0
452.28854,452.48978,82,49,0
452.48978,452.691,78,43,0
452.691,452.90106,79,43,0
453.1023,453.30353,77,39,0
453.30353,453.51318,76,35,0
453.7131,453.913,76,35,0
453.913,454.11978,85,41,0
454.31967,454.51956,85,41,0
454.51956,454.72214,84,43,0
454.92203,455.12195,84,43,0
455.12195,455.33014,76,41,0
455.53006,455.72995,76,56,0
455.72995,455.92984,77,53,0
455.92984,456.12973,84,63,0
456.12973,456.32962,79,56,0
456.32962,456.5295,82,56,0
456.5295,456.7294,80,63,0
456.7294,456.9293,76,56,0
456.9293,457.12918,79,56,0
457.12918,457.3291,77,60,0
457.3291,457.529,75,52,0
457.529,457.73578,73,52,0
457.73578,458.3328,72,51,0
458.3328,458.93253,71,45,0
458.93253,459.53223,77,50,0
459.53223,460.1388,71,45,0
460.34415,460.54272,67,55,0
460.34415,460.54272,72,66,0
460.34415,460.54272,64,55,0
460.54272,460.642,74,73,0
460.54272,460.642,65,60,0
460.54272,460.642,71,60,0
460.94806,461.14532,71,55,0
460.94806,461.14532,65,55,0
460.94806,461.14532,74,66,0
461.14532,461.24396,76,74,0
461.14532,461.24396,67,61,0
461.14532,461.24396,70,61,0
461.5452,461.74377,70,55,0
461.5452,461.74377,76,66,0
461.5452,461.74377,67,55,0
461.74377,461.84305,77,72,0
461.74377,461.84305,69,60,0
461.74377,461.84305,72,60,0
462.14493,462.3435,69,55,0
462.14493,462.3435,72,55,0
462.14493,462.3435,78,66,0
462.3435,462.44278,70,59,0
462.3435,462.44278,76,59,0
462.3435,462.44278,79,71,0
462.74744,462.946,79,66,0
462.74744,462.946,70,55,0
462.74744,462.946,76,55,0
462.946,463.0453,77,60,0
462.946,463.0453,72,60,0
462.946,463.0453,81,73,0
463.34995,463.55817,81,66,0
463.34995,463.55817,72,55,0
463.34995,463.55817,78,55,0
463.55817,463.67004,79,58,0
463.55817,463.67004,82,70,0
463.55817,463.67004,76,58,0
463.78192,464.99466,76,71,0
463.78192,464.99466,79,71,0
463.78192,465.09528,82,86,0
465.09528,465.20517,84,63,0
465.19525,465.30435,86,66,0
465.2945,465.40186,84,65,0
465.39206,465.5002,82,63,0
465.49033,465.59958,81,62,0
465.5896,465.69952,79,62,0
465.68954,465.79895,81,64,0
465.789,465.8979,82,67,0
465.888,465.99652,81,66,0
465.98663,466.09576,79,64,0
466.08582,466.19525,77,62,0
466.18533,466.29553,76,63,0
466.28555,466.3951,77,63,0
466.38516,466.4936,79,64,0
466.4838,466.59116,77,64,0
466.58142,466.68954,76,62,0
466.67963,466.7889,74,60,0
466.7789,466.88885,72,62,0
466.87885,466.98923,73,62,0
466.9792,467.08914,74,64,0
467.0792,467.1881,72,63,0
467.1782,467.2882,70,61,0
467.27814,467.3897,69,60,0
467.37958,467.49063,67,59,0
467.4806,467.59076,69,61,0
467.58078,467.68948,70,64,0
467.6797,467.78812,69,63,0
467.7782,467.88776,67,61,0
467.87778,467.9886,65,60,0
467.97845,468.08917,64,60,0
468.07916,468.18835,65,62,0
468.1785,468.28595,67,63,0
468.27628,468.3833,65,62,0
468.3735,468.48187,64,60,0
468.47195,468.57166,62,59,0
471.01224,471.1182,84,66,0
471.10855,471.2145,83,68,0
471.20486,471.31082,84,69,0
471.3012,471.40747,89,70,0
471.39752,471.5066,84,63,0
471.49704,471.60233,82,70,0
471.59274,471.69803,81,66,0
471.68845,471.79373,80,64,0
471.78415,471.88943,81,64,0
471.87985,471.98544,84,70,0
471.97556,472.08392,81,64,0
472.07443,472.17905,79,70,0
472.16953,472.27414,77,64,0
472.26462,472.36923,76,64,0
472.3597,472.46432,77,64,0
472.45483,472.5598,81,70,0
472.54993,472.65836,77,65,0
472.64877,472.75406,74,70,0
472.74448,472.84976,72,65,0
472.84018,472.94547,71,65,0
472.9359,473.04117,72,65,0
473.03162,473.1374,77,70,0
473.12732,473.23767,72,65,0
473.22815,473.33276,70,70,0
473.32327,473.42825,69,66,0
473.41837,473.5271,68,66,0
473.5172,473.62598,69,66,0
473.6161,473.72705,72,70,0
473.71494,473.8463,69,64,0
473.83618,473.9377,65,70,0
473.9377,474.03342,77,64,0
474.03342,474.12912,64,70,0
474.12912,474.22482,77,64,0
474.22482,474.32053,65,70,0
474.32053,474.42206,77,64,0
474.42206,474.5178,67,70,0
474.5178,474.6135,77,64,0
474.6135,474.7092,65,65,0
474.7092,474.8049,77,58,0
474.8049,474.9006,67,67,0
474.9006,475.00146,77,61,0
475.00146,475.09656,69,70,0
475.09656,475.19165,77,60,0
475.19165,475.28674,67,66,0
475.28674,475.38187,77,62,0
475.38187,475.47696,69,67,0
475.47696,475.5917,77,62,0
475.5917,475.68802,70,74,0
475.68802,475.78433,77,61,0
475.78433,475.88065,70,65,0
475.88065,475.97696,77,61,0
475.97696,476.0733,69,65,0
476.0733,476.17694,77,60,0
476.17694,476.27264,70,70,0
476.27264,476.36835,77,60,0
476.36835,476.46405,70,65,0
476.46405,476.55975,77,60,0
476.55975,476.65546,69,65,0
476.65546,476.77832,77,54,0
476.77832,476.87405,68,49,0
476.87405,476.96976,77,41,0
476.96976,477.06546,68,49,0
477.06546,477.16116,77,42,0
477.16116,477.25687,68,49,0
477.25687,477.3605,77,40,0
477.3605,477.57068,76,48,0
477.3605,477.57068,67,48,0
478.0874,478.19333,84,66,0
478.18372,478.28967,83,68,0
478.28003,478.386,84,69,0
478.37634,478.48264,89,70,0
478.47266,478.58176,84,63,0
478.57217,478.67746,82,70,0
478.66788,478.77316,81,66,0
478.7636,478.86887,80,64,0
478.8593,478.96457,81,64,0
478.95502,479.0606,84,70,0
479.05072,479.1591,81,64,0
479.14957,479.25418,79,70,0
479.2447,479.34927,77,64,0
479.33978,479.4444,76,64,0
479.43488,479.5395,77,64,0
479.52997,479.63495,81,70,0
479.62506,479.7335,77,65,0
479.72394,479.8292,74,70,0
479.81964,479.92493,72,65,0
479.91534,480.02063,71,65,0
480.01105,480.11633,72,65,0
480.10675,480.21255,77,70,0
480.20245,480.31284,72,65,0
480.3033,480.40793,70,70,0
480.3984,480.5034,69,66,0
480.4935,480.60226,68,66,0
480.59238,480.7011,69,66,0
480.69122,480.80222,72,70,0
480.7901,480.92154,69,64,0
480.91132,481.01355,65,70,0
481.01355,481.10925,77,64,0
481.10925,481.20496,64,70,0
481.20496,481.30066,77,64,0
481.30066,481.39636,65,70,0
481.39636,481.49792,77,64,0
481.49792,481.59363,67,70,0
481.59363,481.68933,77,64,0
481.68933,481.78503,65,65,0
481.78503,481.88074,77,58,0
481.88074,481.97644,67,67,0
481.97644,482.0773,77,61,0
482.0773,482.1724,69,70,0
482.1724,482.2675,77,60,0
482.2675,482.3626,67,66,0
482.3626,482.4577,77,62,0
482.4577,482.5528,69,67,0
482.5528,482.66754,77,62,0
482.66754,482.76385,70,74,0
482.76385,482.86017,77,61,0
482.86017,482.95648,70,65,0
482.95648,483.05283,77,61,0
483.05283,483.14914,69,65,0
483.14914,483.25278,77,60,0
483.25278,483.34848,70,70,0
483.34848,483.44418,77,60,0
483.44418,483.5399,70,65,0
483.5399,483.6356,77,60,0
483.6356,483.73132,69,65,0
483.73132,483.83423,77,46,0
483.83423,483.95227,68,44,0
483.95227,484.0703,77,36,0
484.49188,484.6081,67,42,0
484.6081,484.7243,76,34,0
485.155,485.2712,66,43,0
485.2712,485.38742,75,36,0
486.0058,486.1053,62,58,0
486.1053,486.2048,67,59,0
486.2048,486.30432,70,60,0
486.30432,486.40384,74,61,0
486.40384,486.5133,72,62,0
486.50336,486.61282,70,62,0
486.60287,486.71234,69,60,0
486.7024,486.81314,67,59,0
486.8019,486.9253,65,57,0
486.91406,487.0362,64,55,0
487.02625,487.12576,65,58,0
487.22528,487.42432,60,49,0
487.42432,487.57828,60,49,0
487.57828,487.63272,64,41,0
487.63272,488.42886,70,49,0
488.42886,488.52838,69,43,0
488.6279,488.72742,67,43,0
488.83554,489.03455,67,49,0
489.03455,489.43262,65,45,0
489.43262,489.98544,65,45,0
489.98544,490.0407,64,41,0
490.0407,490.83685,70,49,0
490.83685,490.93637,69,43,0
491.03586,491.13538,67,43,0
491.2528,491.8499,71,51,0
491.8499,492.04895,72,45,0
492.39725,492.45172,64,41,0
492.45172,493.24783,70,49,0
493.24783,493.34735,69,43,0
493.44687,493.5464,67,43,0
493.6545,494.05258,65,54,0
494.05258,494.64966,69,60,0
494.64966,495.24677,72,60,0
495.24677,495.84384,70,58,0
495.84384,496.03775,67,50,0
496.03775,496.23676,65,56,0
496.63483,497.23193,85,82,0
496.63483,497.23193,73,69,0
497.23193,497.82764,86,88,0
497.23193,497.82764,74,74,0
497.82764,498.42334,74,71,0
497.82764,498.42334,84,84,0
498.42334,499.01907,82,85,0
498.42334,499.01907,74,72,0
499.01907,499.61478,81,76,0
499.01907,499.61478,74,65,0
499.61478,500.21048,74,67,0
499.61478,500.21048,79,79,0
500.21048,500.8395,74,65,0
500.21048,500.8395,78,76,0
500.21048,500.8395,72,65,0
500.8395,500.93878,79,65,0
500.93878,501.0381,74,54,0
501.0381,501.1348,70,54,0
501.1348,501.23154,74,54,0
501.23154,501.3342,79,65,0
501.3342,501.4369,74,54,0
501.4369,501.53552,81,65,0
501.53552,501.63416,74,54,0
501.63416,501.73026,72,54,0
501.73026,501.82635,74,54,0
501.82635,501.92697,81,65,0
501.92697,502.0276,74,55,0
502.0276,502.12558,82,65,0
502.12558,502.22357,79,55,0
502.22357,502.32156,74,55,0
502.32156,502.41956,79,55,0
502.41956,502.52017,82,65,0
502.52017,502.6208,79,55,0
502.6208,502.71878,83,65,0
502.71878,502.81677,79,55,0
502.81677,502.91287,74,55,0
502.91287,503.00897,79,55,0
503.00897,503.1096,83,65,0
503.1096,503.2102,79,56,0
503.2102,503.60474,84,65,0
503.60474,503.7021,86,59,0
503.7021,503.79944,84,59,0
503.79944,504.19656,82,65,0
504.19656,504.29456,84,57,0
504.29456,504.39255,82,57,0
504.39255,504.79233,81,65,0
504.79233,504.89096,82,57,0
504.89096,504.9896,81,57,0
504.9896,505.3894,79,65,0
505.3894,505.48737,81,59,0
505.48737,505.58536,79,59,0
505.58536,505.98514,77,65,0
505.98514,506.08313,79,59,0
506.08313,506.18112,77,59,0
506.18112,506.5809,76,65,0
506.5809,506.68222,77,56,0
506.68222,506.7835,76,56,0
506.7835,506.89346,79,62,0
506.88345,506.9934,77,54,0
506.9834,507.09335,76,54,0
507.08334,507.1933,77,54,0
507.1833,507.29352,76,53,0
507.28323,507.39584,77,55,0
507.38593,507.49515,81,59,0
507.4852,507.59442,79,55,0
507.5845,507.69373,78,55,0
507.68378,507.793,79,55,0
507.78308,507.8927,78,55,0
507.88235,507.99567,79,55,0
507.98575,508.09497,81,59,0
508.08502,508.19424,79,54,0
508.18433,508.29352,77,54,0
508.2836,508.39282,79,54,0
508.38287,508.4921,81,54,0
508.48218,508.59137,82,54,0
508.58145,508.69067,84,59,0
508.68076,508.78995,82,55,0
508.78003,508.88925,81,55,0
508.8793,508.98853,82,55,0
508.9786,509.08823,84,55,0
509.07788,509.1912,85,55,0
509.18127,509.28055,86,59,0
509.28055,509.38977,74,55,0
509.37985,509.48904,86,55,0
509.47913,509.58835,84,55,0
509.5784,509.68762,82,55,0
509.6777,509.78748,81,54,0
509.77698,509.88184,79,59,0
509.88184,509.99103,78,54,0
509.9811,510.09033,79,63,0
510.08038,510.1896,81,62,0
510.1797,510.28915,82,60,0
510.27896,510.39087,83,59,0
510.38095,510.48022,84,59,0
510.48022,510.57953,72,60,0
510.57953,510.6788,84,60,0
510.6788,510.77808,82,60,0
510.77808,510.87738,81,60,0
510.87738,510.97665,79,59,0
510.97665,511.08148,77,59,0
511.08148,511.1907,76,56,0
511.1808,511.29,77,63,0
511.28006,511.38928,79,62,0
511.37936,511.48856,80,60,0
511.47864,511.5779,81,59,0
511.5779,511.67722,82,59,0
511.67722,511.7765,84,60,0
511.7765,511.87576,82,60,0
511.87576,511.97507,81,60,0
511.97507,512.07434,79,60,0
512.07434,512.17365,77,59,0
512.17365,512.27844,76,59,0
512.27844,512.3877,77,56,0
512.37775,512.48694,76,63,0
512.47705,512.58624,74,62,0
512.57635,512.68555,72,60,0
512.6756,512.78485,70,59,0
512.7749,512.8742,69,56,0
512.8742,512.97284,72,61,0
512.97284,513.0715,77,68,0
513.0715,513.1701,79,62,0
513.1701,513.26874,77,63,0
513.26874,513.3674,76,63,0
513.3674,513.47217,74,60,0
513.47217,513.5807,72,53,0
513.5708,513.6793,70,59,0
513.66943,513.77795,69,54,0
513.76807,513.87665,67,54,0
513.8667,513.9758,65,54,0
513.966,514.06464,64,59,0
514.06464,514.1731,65,58,0
514.16327,514.2717,67,62,0
514.2619,514.37036,65,61,0
514.36053,514.469,64,60,0
514.45917,514.5676,62,59,0
514.5578,514.6659,60,57,0
515.2039,516.00006,68,49,0
516.00006,516.0987,67,43,0
516.1973,516.29596,65,43,0
516.40405,516.8021,71,49,0
516.8021,517.00116,72,43,0
517.00116,517.39923,67,43,0
517.60925,518.4054,73,58,0
518.4054,518.504,72,49,0
518.60266,518.7013,70,49,0
518.8094,519.0084,68,60,0
519.0084,519.0764,70,42,0
519.0764,519.1444,68,42,0
519.1444,519.2124,67,42,0
519.2124,519.3151,68,51,0
519.3151,519.43134,70,44,0
519.43134,519.8284,72,51,0
520.03827,520.64197,77,66,0
520.64197,521.04443,75,54,0
521.04443,521.24567,77,50,0
521.24567,521.64813,75,57,0
521.64813,521.84937,73,52,0
521.84937,522.45306,72,55,0
522.45306,522.8555,70,59,0
522.8555,523.05676,68,53,0
523.05676,523.4592,67,57,0
523.4592,523.66046,65,47,0
523.66046,524.26416,68,53,0
524.26416,524.4654,67,45,0
524.86786,525.664,68,41,0
524.86786,525.664,80,49,0
525.664,525.76263,79,43,0
525.664,525.76263,67,36,0
525.86127,525.9599,65,36,0
525.86127,525.9599,77,43,0
526.068,526.46606,83,49,0
526.068,526.46606,71,41,0
526.46606,526.6651,72,36,0
526.46606,526.6651,84,43,0
526.6651,527.0632,79,43,0
526.6651,527.0632,67,36,0
527.2732,528.06934,85,58,0
527.2732,528.06934,73,49,0
528.06934,528.16797,84,49,0
528.06934,528.16797,72,41,0
528.2666,528.36523,70,41,0
528.2666,528.36523,82,49,0
528.4733,528.87634,69,51,0
528.4733,528.87634,81,60,0
528.87634,529.0952,72,43,0
528.87634,529.0952,84,51,0
529.0952,529.4924,70,43,0
529.0952,529.4924,82,51,0
529.70215,530.30585,71,56,0
529.70215,530.30585,83,71,0
530.30585,530.9096,84,71,0
530.30585,530.9096,72,56,0
530.9096,531.5133,73,54,0
530.9096,531.5133,85,69,0
531.5133,531.7174,84,71,0
531.5133,531.7174,72,56,0
532.0174,532.11743,89,53,0
532.11743,532.6674,77,64,0
532.6674,532.71747,80,40,0
532.11743,532.71747,72,51,0
532.71747,533.3333,79,51,0
532.71747,533.3333,76,51,0
533.3333,533.43353,77,74,0
533.43353,533.53284,72,62,0
533.53284,533.6298,71,62,0
533.6298,533.72656,72,62,0
533.72656,533.8286,74,69,0
533.8286,533.9313,72,62,0
533.9313,534.0286,70,65,0
534.0286,534.126,72,60,0
534.126,534.22205,70,65,0
534.22205,534.3182,72,59,0
534.3182,534.41833,70,65,0
534.41833,534.5189,72,59,0
534.5189,534.61835,69,74,0
534.61835,534.71765,72,62,0
534.71765,534.81464,71,62,0
534.81464,534.9114,72,62,0
534.9114,535.0134,77,74,0
535.0134,535.1161,72,62,0
535.1161,535.21405,70,65,0
535.21405,535.3121,72,60,0
535.3121,535.40753,70,65,0
535.40753,535.50305,72,59,0
535.50305,535.6031,70,65,0
535.6031,535.70374,72,59,0
535.70374,535.80316,69,74,0
535.80316,535.90247,84,62,0
535.90247,535.99945,83,62,0
535.99945,536.0962,84,62,0
536.0962,536.1982,86,72,0
536.1982,536.3009,84,62,0
536.3009,536.397,82,65,0
536.397,536.4931,84,60,0
536.4931,536.58923,82,65,0
536.58923,536.6853,84,59,0
536.6853,536.78546,82,65,0
536.78546,536.88605,84,59,0
536.88605,536.9855,81,74,0
536.9855,537.0848,84,62,0
537.0848,537.18176,83,62,0
537.18176,537.2785,84,62,0
537.2785,537.38055,89,69,0
537.38055,537.4832,84,62,0
537.4832,537.57935,82,65,0
537.57935,537.6754,84,60,0
537.6754,537.77155,82,65,0
537.77155,537.8676,84,59,0
537.8676,537.9678,82,65,0
537.9678,538.06836,84,59,0
538.06836,538.1678,81,74,0
538.1678,538.2671,84,62,0
538.2671,538.3641,89,71,0
538.3641,538.4608,81,60,0
538.4608,538.56287,79,70,0
538.56287,538.66455,88,62,0
538.66455,538.7626,77,70,0
538.7626,538.8594,86,62,0
538.8594,538.95435,76,69,0
538.95435,539.0491,84,60,0
539.0491,539.1434,74,67,0
539.1434,539.2379,82,58,0
539.2379,539.3316,72,69,0
539.3316,539.42535,81,62,0
539.42535,539.51904,70,67,0
539.51904,539.61273,79,59,0
539.61273,539.7064,69,66,0
539.7064,539.8001,77,56,0
539.8001,539.8967,67,62,0
539.8967,539.9949,76,54,0
539.9949,540.0943,65,63,0
540.0943,540.1951,74,55,0
540.1951,540.29724,64,62,0
540.29724,540.4008,72,51,0
540.4008,540.99664,62,45,0
540.4008,540.99664,71,55,0
540.99664,541.58844,61,45,0
540.99664,541.58844,70,55,0
541.58844,542.18304,73,45,0
541.58844,542.18304,82,55,0
542.18304,542.77234,67,45,0
542.18304,542.77234,76,55,0
542.9736,543.0709,84,49,0
543.1683,543.2656,84,49,0
543.5642,543.66156,86,49,0
543.7589,543.8609,86,49,0
543.9629,544.5163,77,47,0
543.9629,544.5163,72,39,0
544.5163,544.5666,81,40,0
544.5666,545.1912,76,37,0
544.5666,545.1912,79,44,0
545.1912,545.29065,77,74,0
545.29065,545.38995,72,62,0
545.38995,545.48694,71,62,0
545.48694,545.5837,72,62,0
545.5837,545.6857,74,68,0
545.6857,545.7884,72,62,0
545.7884,545.88745,70,65,0
545.88745,545.9861,72,60,0
545.9861,546.08246,70,65,0
546.08246,546.1786,72,59,0
546.1786,546.2787,70,65,0
546.2787,546.37933,72,59,0
546.37933,546.47876,69,74,0
546.47876,546.57806,72,62,0
546.57806,546.67505,71,62,0
546.67505,546.7718,72,62,0
546.7718,546.8738,77,74,0
546.8738,546.9765,72,62,0
546.9765,547.07556,70,65,0
547.07556,547.1742,72,60,0
547.1742,547.27057,70,65,0
547.27057,547.3667,72,59,0
547.3667,547.4668,70,65,0
547.4668,547.56744,72,59,0
547.56744,547.6669,69,74,0
547.6669,547.7661,84,62,0
547.7661,547.86316,83,62,0
547.86316,547.95984,84,62,0
547.95984,548.0619,86,72,0
548.0619,548.1646,84,62,0
548.1646,548.2637,82,65,0
548.2637,548.3623,84,60,0
548.3623,548.4587,82,65,0
548.4587,548.55475,84,59,0
548.55475,548.6549,82,65,0
548.6549,548.7555,84,59,0
548.7555,548.8549,81,74,0
548.8549,548.9542,84,62,0
548.9542,549.0512,83,62,0
549.0512,549.14795,84,62,0
549.14795,549.25,89,72,0
549.25,549.35266,84,62,0
549.35266,549.4517,82,65,0
549.4517,549.55035,84,60,0
549.55035,549.6468,82,65,0
549.6468,549.74286,84,59,0
549.74286,549.843,82,65,0
549.843,549.9436,84,59,0
549.9436,550.043,81,74,0
550.043,550.14233,84,62,0
550.14233,550.2393,89,71,0
550.2393,550.33673,81,60,0
550.33673,550.4365,79,70,0
550.4365,550.53564,88,62,0
550.53564,550.6341,77,70,0
550.6341,550.7312,86,62,0
550.7312,550.8273,76,69,0
550.8273,550.92236,84,60,0
550.92236,551.0165,74,67,0
551.0165,551.10974,82,58,0
551.10974,551.20233,72,69,0
551.20233,551.29486,81,62,0
551.29486,551.3874,70,67,0
551.3874,551.4799,79,59,0
551.4799,551.5725,69,66,0
551.5725,551.66504,77,56,0
551.66504,551.7577,67,64,0
551.7577,551.85254,76,55,0
551.85254,551.9499,65,63,0
551.9499,552.05054,74,55,0
552.05054,552.1527,64,62,0
552.1527,552.2563,72,51,0
552.2563,552.85205,62,45,0
552.2563,552.85205,71,55,0
552.85205,553.4439,61,45,0
552.85205,553.4439,70,55,0
553.4439,554.03845,73,45,0
553.4439,554.03845,82,55,0
554.03845,554.62775,67,45,0
554.03845,554.62775,76,55,0
554.82904,554.9264,84,49,0
555.02374,555.1211,84,49,0
555.4197,555.517,86,49,0
555.6144,555.7164,86,49,0
555.8183,556.42206,77,47,0
556.42206,557.0553,76,37,0
555.8183,557.0553,72,39,0
557.0553,557.15796,83,71,0
557.15796,557.27057,84,55,0
557.2607,557.3699,83,55,0
557.3599,557.4692,84,55,0
557.4592,557.57184,83,55,0
557.5615,557.66425,84,55,0
557.66425,557.77563,85,62,0
557.7655,557.8768,86,55,0
557.8668,557.976,85,55,0
557.9661,558.0753,86,55,0
558.06537,558.1759,88,59,0
558.16583,558.2665,89,54,0
558.2665,558.8199,77,47,0
558.8199,558.8702,81,37,0
558.2665,558.8702,72,39,0
558.8702,559.2866,76,43,0
558.8702,559.39075,79,43,0
559.39075,559.4948,77,37,0
559.4948,559.6094,77,71,0
559.59894,559.71295,81,64,0
559.70306,559.81226,84,67,0
559.8023,559.9114,89,68,0
559.9016,560.0087,88,69,0
559.99896,560.1061,86,69,0
560.0963,560.2034,84,71,0
560.19366,560.3008,86,67,0
560.291,560.39813,84,67,0
560.38837,560.4955,82,67,0
560.4857,560.59393,81,67,0
560.58307,560.6917,79,67,0
560.6917,560.8062,77,71,0
560.79584,560.9098,81,64,0
560.89996,561.0084,79,64,0
560.99854,561.10693,77,68,0
561.09717,561.2043,76,64,0
561.1946,561.30164,74,64,0
561.29193,561.399,72,69,0
561.3893,561.49634,74,63,0
561.48663,561.5937,72,63,0
561.584,561.69104,70,63,0
561.68134,561.7894,69,63,0
561.7787,561.88654,67,63,0
561.88654,561.9987,65,71,0
561.9885,562.1003,69,63,0
562.09045,562.19824,67,63,0
562.1885,562.2962,65,63,0
562.28644,562.39355,64,63,0
562.3838,562.4909,62,64,0
562.48114,562.58826,60,71,0
562.5785,562.6856,62,64,0
562.67584,562.78296,60,64,0
562.7732,562.8803,58,64,0
562.87054,562.9787,57,64,0
562.9679,563.0758,55,64,0
563.0758,563.1764,53,81,0
563.27704,563.3776,57,70,0
563.4783,563.57886,60,70,0
563.6795,563.7801,65,78,0
563.88074,563.9813,69,70,0
564.082,564.18256,72,70,0
564.2832,564.4835,77,88,0
564.8843,565.285,72,75,0
564.8843,565.285,84,90,0
564.8843,565.285,81,75,0
565.48535,565.88873,84,81,0
565.48535,565.88873,77,79,0
565.48535,565.88873,87,94,0
566.6956,567.099,82,74,0
566.6956,567.099,77,74,0
566.6956,567.099,86,86,0
567.9058,568.30927,77,74,0
567.9058,568.30927,80,74,0
567.9058,568.30927,86,86,0
567.9058,568.30927,89,74,0
569.1161,570.22546,65,47,0
570.22546,570.32635,69,47,0
569.1161,570.32635,60,39,0
570.32635,571.3548,67,50,0
571.3548,571.60126,65,41,0
570.32635,571.60126,64,42,0
571.60126,571.8674,65,46,0
570.32635,571.8674,60,42,0
572.1335,572.3325,57,71,0
572.3325,572.4299,58,78,0
572.5272,572.6246,67,73,0
572.7219,572.8219,59,72,0
572.9218,573.01917,60,78,0
573.1165,573.21387,69,73,0
573.3112,573.40985,61,73,0
573.5085,573.60583,62,78,0
573.7032,573.80054,70,72,0
573.8979,573.9972,64,72,0
574.0965,574.8753,82,68,0
574.8753,574.97015,81,62,0
574.97015,575.06506,79,61,0
575.06506,575.16,77,59,0
575.16,575.2548,76,57,0
575.2548,575.3522,77,56,0
575.4495,575.5469,79,49,0
575.6442,575.7546,81,54,0
575.86487,576.2543,72,46,0
575.86487,576.2543,69,46,0
576.2543,576.4655,67,40,0
576.2543,576.4655,70,40,0
576.4655,577.082,67,46,0
576.4655,577.082,70,46,0
577.082,577.28064,69,41,0
577.082,577.28064,65,41,0
578.0753,578.274,57,71,0
578.274,578.3714,58,78,0
578.4688,578.5662,67,73,0
578.66364,578.7623,59,72,0
578.861,578.9578,60,78,0
579.05457,579.15137,69,73,0
579.24817,579.34686,61,73,0
579.44556,579.5423,62,78,0
579.6391,579.7359,70,72,0
579.83264,579.93134,64,72,0
580.03,580.8196,82,68,0
580.8196,580.9144,81,62,0
580.9144,581.00934,79,61,0
581.00934,581.10425,77,59,0
581.10425,581.1991,76,57,0
581.1991,581.2542,77,56,0
581.2542,581.3093,79,49,0
581.3093,581.36444,81,49,0
581.8373,581.9069,74,46,0
581.9069,581.9765,76,39,0
581.9765,582.03766,77,39,0
582.5457,583.0644,65,44,0
583.0644,583.1763,69,39,0
583.1763,583.6237,64,36,0
583.1763,583.6237,67,44,0
583.6237,583.8617,65,41,0
582.5457,583.8617,60,37,0
584.263,584.459,69,39,0
583.8617,584.459,65,41,0
584.459,584.65625,72,44,0
584.65625,584.8535,70,39,0
584.8535,585.0561,67,39,0
584.459,585.0561,64,37,0
585.25336,585.4474,60,40,0
585.4506,585.65186,69,40,0
585.0561,585.65186,65,44,0
585.65186,585.8491,72,44,0
585.8491,586.0464,70,40,0
586.0464,586.2537,67,40,0
585.65186,586.2537,64,37,0
586.2537,586.4554,65,44,0
586.4554,586.65375,60,41,0
586.6571,586.8815,69,41,0
586.8815,587.09576,65,44,0
587.09576,587.3651,60,40,0
587.36847,587.80585,69,40,0
587.80585,589.39624,58,36,0
587.80585,589.39624,67,42,0
589.39624,589.9264,57,31,0
589.39624,589.9264,65,36,0
0.0,0.385282,41,59,0
0.0,0.385282,53,70,0
0.0,0.385282,45,59,0
0.0,0.385282,48,59,0
2.9202576,3.0211115,57,70,0
3.117432,3.2137525,55,66,0
3.310073,3.4063935,57,66,0
3.50793,3.603636,58,70,0
3.699342,3.795048,57,67,0
3.890754,3.98646,58,67,0
4.087314,4.182413,60,70,0
4.2775126,4.3726115,58,67,0
4.467711,4.5628104,60,67,0
4.6775503,5.0628324,61,74,0
5.0628324,5.159153,60,67,0
5.262794,5.6456184,61,74,0
5.6456184,5.7413244,60,66,0
5.857531,5.953237,59,47,0
6.048943,6.144649,59,47,0
6.240355,6.3360615,59,47,0
6.4397025,6.6498895,60,50,0
7.0702634,7.4555454,41,59,0
7.0702634,7.4555454,45,59,0
7.0702634,7.4555454,48,59,0
7.0702634,7.4555454,53,70,0
9.990521,10.090701,57,70,0
10.186407,10.282113,55,66,0
10.377819,10.473525,57,66,0
10.575062,10.670768,58,70,0
10.766474,10.86218,57,67,0
10.957886,11.053592,58,67,0
11.154446,11.249545,60,70,0
11.344645,11.439743,58,67,0
11.5348425,11.629942,60,67,0
11.744682,12.129964,61,74,0
12.129964,12.226285,60,67,0
12.329926,12.71275,61,74,0
12.71275,12.808456,60,66,0
12.911386,13.031309,59,35,0
13.588102,13.706139,58,34,0
14.268435,14.386471,57,34,0
14.942207,15.041723,46,58,0
15.041723,15.141239,58,61,0
15.539302,16.161697,48,36,0
15.539302,16.161697,58,57,0
15.539302,16.161697,52,36,0
16.161697,16.36073,57,51,0
16.161697,16.36073,53,32,0
16.768185,16.967216,48,41,0
16.967216,17.066732,58,24,0
16.967216,17.066732,60,31,0
17.166248,17.265764,58,24,0
17.166248,17.265764,60,31,0
17.36528,17.464796,60,31,0
17.36528,17.464796,58,24,0
17.56431,17.663826,60,31,0
17.56431,17.663826,58,24,0
17.763342,17.862858,60,31,0
17.763342,17.862858,58,24,0
17.970982,18.170013,53,41,0
18.170013,18.26953,60,31,0
18.170013,18.26953,57,24,0
18.369045,18.468561,60,31,0
18.369045,18.468561,57,24,0
18.568077,18.667593,57,24,0
18.568077,18.667593,60,31,0
18.767109,18.866623,57,24,0
18.767109,18.866623,60,31,0
18.966139,19.065655,57,24,0
18.966139,19.065655,60,31,0
19.176168,19.3752,48,41,0
19.3752,19.474716,60,31,0
19.3752,19.474716,55,24,0
19.574232,19.673748,60,31,0
19.574232,19.673748,55,24,0
19.773264,19.87278,55,24,0
19.773264,19.87278,60,31,0
19.972294,20.07181,60,31,0
19.972294,20.07181,55,24,0
20.171326,20.270842,60,31,0
20.171326,20.270842,55,24,0
20.388277,20.587309,53,41,0
20.587309,20.686825,60,31,0
20.587309,20.686825,57,24,0
20.78634,20.885857,57,24,0
20.78634,20.885857,60,31,0
20.985373,21.084887,60,31,0
20.985373,21.084887,57,24,0
21.184402,21.283918,60,31,0
21.184402,21.283918,57,24,0
21.383434,21.48295,57,24,0
21.383434,21.48295,60,31,0
21.587162,21.786194,48,41,0
21.786194,21.88571,60,31,0
21.786194,21.88571,58,24,0
21.985226,22.084742,58,24,0
21.985226,22.084742,60,31,0
22.184258,22.283773,58,24,0
22.184258,22.283773,60,31,0
22.38329,22.482805,58,24,0
22.38329,22.482805,60,31,0
22.582321,22.681835,58,24,0
22.582321,22.681835,60,31,0
22.789959,22.98899,53,41,0
22.98899,23.088507,57,24,0
22.98899,23.088507,60,31,0
23.188023,23.287539,60,31,0
23.188023,23.287539,57,24,0
23.387054,23.48657,57,24,0
23.387054,23.48657,60,31,0
23.586086,23.685602,60,31,0
23.586086,23.685602,57,24,0
23.785118,23.884632,57,24,0
23.785118,23.884632,60,31,0
23.984148,24.18318,48,41,0
24.18318,24.282696,60,31,0
24.18318,24.282696,55,24,0
24.382212,24.481728,60,31,0
24.382212,24.481728,55,24,0
24.581244,24.68076,58,24,0
24.581244,24.68076,60,31,0
24.780275,24.879791,60,31,0
24.780275,24.879791,58,24,0
24.979307,25.07625,60,31,0
24.979307,25.07625,58,24,0
25.173193,25.372223,60,41,0
25.173193,25.372223,57,32,0
25.173193,25.372223,53,32,0
25.571255,25.770287,45,60,0
25.770287,25.86764,46,66,0
25.96499,26.062344,55,61,0
26.159695,26.259642,47,61,0
26.359589,26.45694,48,66,0
26.554293,26.651644,57,61,0
26.748997,26.847628,49,61,0
26.94626,27.043613,50,66,0
27.140965,27.238317,58,61,0
27.335669,27.434954,52,61,0
28.118351,28.69261,64,28,0
28.118351,28.69261,58,28,0
28.118351,28.69261,60,28,0
28.118351,28.69261,67,34,0
28.69261,28.887314,65,49,0
28.69261,28.887314,57,41,0
28.69261,28.887314,60,41,0
29.294785,29.684193,60,42,0
29.684193,29.89546,61,42,0
29.89546,30.702242,62,47,0
31.496944,31.695976,45,60,0
31.695976,31.793327,46,66,0
31.89068,31.988031,55,61,0
32.085384,32.18533,47,61,0
32.28528,32.38263,48,66,0
32.47998,32.577335,57,61,0
32.674686,32.77332,49,61,0
32.871952,32.969303,50,66,0
33.066654,33.164005,58,61,0
33.261356,33.360645,52,61,0
34.04404,34.6183,64,28,0
34.04404,34.6183,58,28,0
34.04404,34.6183,60,28,0
34.04404,34.6183,67,34,0
34.6183,34.872364,65,49,0
34.6183,34.872364,60,41,0
34.6183,34.872364,57,41,0
35.274853,35.528915,58,33,0
35.274853,35.528915,65,42,0
35.274853,35.528915,62,33,0
35.96752,36.598057,57,32,0
36.598057,37.283497,58,28,0
35.96752,37.283497,48,27,0
37.48886,37.684837,57,24,0
37.684837,37.880814,60,24,0
37.283497,37.880814,53,28,0
38.07808,38.275345,55,26,0
38.275345,38.477936,58,26,0
37.880814,38.477936,53,28,0
38.6752,38.872467,57,24,0
38.872467,39.0737,60,24,0
38.477936,39.0737,53,28,0
39.270966,39.468227,55,24,0
39.468227,39.670822,58,24,0
39.0737,39.670822,53,28,0
39.868088,40.06535,57,24,0
40.06535,40.275024,60,24,0
39.670822,40.275024,53,28,0
40.473595,40.680378,57,24,0
40.680378,40.977173,60,24,0
40.275024,40.977173,53,28,0
40.977173,42.047836,41,23,0
40.977173,42.047836,53,28,0
43.77459,44.3703,57,74,0
43.77459,44.3703,45,63,0
44.3703,44.966015,43,63,0
44.3703,44.966015,55,74,0
44.966015,45.561726,41,63,0
44.966015,45.561726,53,74,0
45.561726,46.190742,52,74,0
45.561726,46.190742,40,63,0
46.190742,46.389313,50,59,0
46.389313,46.582764,53,54,0
46.582764,46.788128,57,54,0
46.788128,46.985394,49,59,0
46.985394,47.177605,52,54,0
47.177605,47.378838,57,54,0
47.378838,47.574814,50,59,0
47.574814,47.77079,53,54,0
47.77079,47.972023,57,54,0
47.972023,48.168,48,59,0
48.168,48.360207,54,53,0
48.360207,48.561443,57,53,0
48.561443,48.95597,47,58,0
49.743793,50.340843,67,54,0
50.340843,50.936607,67,52,0
50.340843,50.936607,65,44,0
50.936607,51.53237,67,47,0
50.936607,51.53237,64,40,0
51.53237,52.13475,62,39,0
51.53237,52.13475,65,39,0
51.53237,52.13475,67,46,0
52.13475,52.234695,60,44,0
52.334644,52.43459,64,37,0
52.53454,52.634483,67,37,0
52.737167,52.836452,59,43,0
52.935738,53.035023,65,37,0
53.134308,53.233593,67,37,0
53.336983,53.535557,67,46,0
53.336983,53.535557,64,46,0
53.336983,53.535557,60,46,0
54.532513,54.631798,53,41,0
54.731083,54.830368,65,35,0
55.128223,55.233063,47,43,0
55.332348,55.431633,59,38,0
55.73219,55.831474,52,44,0
55.93076,56.030045,64,40,0
56.3279,56.432735,45,43,0
56.53202,56.631306,57,40,0
56.92916,57.034737,50,48,0
57.33063,57.429264,59,43,0
57.527897,57.632732,60,49,0
57.92863,58.027264,48,40,0
58.12655,58.22518,55,47,0
58.81657,58.92593,69,57,0
58.915936,59.02668,67,56,0
59.01655,59.12871,65,55,0
59.118443,59.236015,64,52,0
59.22174,59.36449,62,51,0
59.36449,59.563522,60,41,0
59.563522,59.762554,63,31,0
59.762554,59.961586,67,31,0
59.961586,60.160618,60,37,0
60.160618,60.35788,63,31,0
60.35788,60.564636,67,31,0
60.564636,60.763668,59,41,0
60.763668,60.9627,62,31,0
60.9627,61.16173,67,31,0
61.16173,61.360764,59,36,0
61.360764,61.559795,62,31,0
61.559795,61.769825,67,31,0
61.769825,61.968857,59,41,0
61.968857,62.16789,62,31,0
62.16789,62.36692,65,31,0
62.36692,62.56595,59,37,0
62.56595,62.763214,62,31,0
62.763214,62.96997,67,31,0
62.96997,63.169003,60,41,0
63.169003,63.372974,63,31,0
63.372974,63.59186,67,31,0
63.59186,63.790432,60,36,0
63.790432,63.989002,63,31,0
63.989002,64.1988,67,31,0
64.1988,64.40004,63,47,0
64.40004,64.60127,67,36,0
64.60127,64.802505,72,36,0
64.802505,64.999886,62,44,0
64.999886,65.1999,65,32,0
65.1999,65.405396,70,33,0
65.405396,65.60408,60,48,0
65.60408,65.80277,63,36,0
65.80277,66.00146,68,36,0
66.00146,66.20015,58,45,0
66.20015,66.398834,62,31,0
66.398834,66.60293,67,31,0
66.60293,66.80162,56,46,0
66.80162,67.000305,60,35,0
67.000305,67.199,65,35,0
67.199,67.39768,56,43,0
67.39768,67.596375,60,36,0
67.596375,67.807655,66,34,0
67.807655,68.00635,55,43,0
68.00635,68.20503,60,29,0
68.20503,68.403725,67,30,0
68.403725,68.60241,55,39,0
68.60241,68.8011,59,27,0
68.8011,69.01238,67,27,0
69.01238,69.21107,60,41,0
69.21107,69.40976,63,31,0
69.40976,69.608444,67,31,0
69.608444,69.80714,60,37,0
69.80714,70.0044,63,31,0
70.0044,70.21116,67,31,0
70.21116,70.41019,59,41,0
70.41019,70.60922,62,31,0
70.60922,70.80825,67,31,0
70.80825,71.00728,59,36,0
71.00728,71.206314,62,31,0
71.206314,71.41634,67,31,0
71.41634,71.61537,59,41,0
71.61537,71.81441,62,31,0
71.81441,72.013435,65,31,0
72.013435,72.21247,59,37,0
72.21247,72.40974,62,31,0
72.40974,72.616486,67,31,0
72.616486,72.81552,58,41,0
72.81552,73.01949,61,31,0
73.01949,73.23838,67,31,0
73.23838,73.43695,57,36,0
73.43695,73.63552,60,31,0
73.63552,73.84532,65,31,0
73.84532,74.046555,56,52,0
74.046555,74.24779,60,41,0
74.24779,74.44902,66,41,0
74.44902,74.65026,55,51,0
74.65026,74.849785,60,36,0
74.849785,75.04847,67,36,0
75.04847,75.24716,53,56,0
75.24716,75.44585,56,36,0
75.44585,75.64454,62,36,0
75.64454,75.84322,51,45,0
75.84322,76.041916,60,31,0
76.041916,76.23673,53,31,0
76.23673,76.435425,55,45,0
76.435425,76.63411,60,30,0
76.63411,76.8328,63,30,0
76.8328,77.03149,55,38,0
77.03149,77.23018,62,31,0
77.23018,77.44672,65,31,0
77.44672,77.84096,64,67,0
77.44672,77.84096,60,67,0
78.04568,78.14303,62,67,0
78.24038,78.33649,59,62,0
78.43259,78.532715,55,62,0
78.63333,79.02577,60,67,0
79.2305,79.32848,62,67,0
79.42647,79.521965,59,62,0
79.617455,79.71752,55,62,0
79.81814,80.21058,60,67,0
80.4153,80.511406,62,67,0
80.607506,80.70361,59,62,0
80.79971,80.89984,55,62,0
81.00046,81.3929,60,67,0
83.53416,83.74999,45,46,0
83.73013,83.9483,48,49,0
83.9287,84.14428,51,51,0
84.12468,84.340645,50,46,0
84.320656,84.723145,48,46,0
84.723145,84.93758,47,45,0
84.91785,85.13458,50,46,0
85.11511,85.329285,56,51,0
85.309814,85.52451,55,46,0
85.504524,85.72454,53,46,0
85.704414,85.90565,52,36,0
86.29506,86.49629,53,40,0
86.894966,87.498665,64,40,0
87.498665,88.12332,65,40,0
86.894966,88.12332,55,34,0
88.12332,88.51576,60,67,0
88.12332,88.51576,64,67,0
88.72048,88.81955,62,67,0
88.91818,89.014565,59,62,0
89.110664,89.21079,55,62,0
89.31141,89.70385,60,67,0
89.90858,90.007645,62,67,0
90.10628,90.20266,59,62,0
90.29876,90.39889,55,62,0
90.499504,90.891945,60,67,0
91.09667,91.19574,62,67,0
91.29437,91.39075,59,62,0
91.486855,91.58698,55,62,0
91.6876,92.08071,60,67,0
94.20151,94.41734,45,46,0
94.397484,94.615654,48,49,0
94.596054,94.81163,51,51,0
94.79203,95.007996,50,46,0
94.98801,95.390495,48,46,0
95.390495,95.60493,47,45,0
95.5852,95.80193,50,46,0
95.78246,95.996635,56,51,0
95.977165,96.191864,55,46,0
96.171875,96.39189,53,46,0
96.371765,96.573,52,36,0
96.96241,97.16364,53,40,0
97.56232,98.166016,64,40,0
97.56232,98.166016,55,34,0
98.166016,98.79928,53,32,0
98.166016,98.79928,62,40,0
98.79928,99.00465,52,64,0
99.00465,99.20322,55,53,0
99.20322,99.40821,60,53,0
99.40821,99.6108,53,61,0
99.6108,99.80937,57,53,0
99.80937,100.01047,62,50,0
100.01047,100.2117,55,38,0
100.2117,100.41293,60,34,0
100.41293,100.61417,64,34,0
100.61417,100.82239,55,39,0
100.82239,101.0306,62,33,0
101.0306,101.23882,65,33,0
101.23882,101.64561,60,56,0
101.23882,101.64561,64,66,0
101.84031,102.22972,55,56,0
101.84031,102.22972,65,66,0
101.84031,102.22972,59,66,0
102.43571,102.84119,64,66,0
102.43571,102.84119,60,56,0
103.03589,103.4253,65,66,0
103.03589,103.4253,55,56,0
103.03589,103.4253,59,56,0
103.6305,104.03045,48,56,0
103.6305,104.03045,52,66,0
104.22515,104.61456,47,56,0
104.22515,104.61456,53,66,0
104.22515,104.61456,43,56,0
104.81976,104.92038,36,70,0
105.020996,105.12161,40,63,0
105.22223,105.322845,43,63,0
105.42347,105.524086,48,70,0
105.6247,105.72532,52,64,0
105.825935,105.92655,55,64,0
106.02717,106.23254,60,74,0
106.64327,107.07468,60,74,0
106.64327,107.07468,52,62,0
106.64327,107.07468,48,62,0
106.64327,107.07468,55,62,0
107.290375,107.72179,52,62,0
107.290375,107.72179,48,62,0
107.290375,107.72179,60,74,0
107.290375,107.72179,55,62,0
108.584595,108.96988,45,59,0
108.584595,108.96988,53,70,0
108.584595,108.96988,48,59,0
108.584595,108.96988,41,59,0
111.50485,111.605034,57,70,0
111.700134,111.795235,55,66,0
111.890335,111.98543,57,66,0
112.08697,112.18267,58,70,0
112.27838,112.374084,57,67,0
112.469795,112.5655,58,67,0
112.66635,112.76145,60,70,0
112.85655,112.95165,58,67,0
113.046745,113.141846,60,67,0
113.256584,113.64187,61,74,0
113.64187,113.73819,60,67,0
113.841835,114.224655,61,74,0
114.224655,114.32036,60,66,0
114.43933,114.53504,59,47,0
114.630745,114.72645,59,47,0
114.82216,114.91786,59,47,0
115.02151,115.23169,60,50,0
115.65207,116.037346,48,59,0
115.65207,116.037346,45,59,0
115.65207,116.037346,53,70,0
115.65207,116.037346,41,59,0
118.57233,118.67318,57,70,0
118.76888,118.864586,55,66,0
118.9603,119.056,57,66,0
119.15754,119.25324,58,70,0
119.34895,119.44466,57,67,0
119.54036,119.63607,58,67,0
119.73692,119.83202,60,70,0
119.927124,120.02222,58,67,0
120.11732,120.21242,60,67,0
120.327156,120.71244,61,74,0
120.71244,120.80876,60,67,0
120.9124,121.29523,61,74,0
121.29523,121.39093,60,66,0
121.493866,121.60918,59,37,0
122.15244,122.26775,58,37,0
122.81376,122.92996,57,37,0
123.465515,123.56503,46,58,0
123.56503,123.66455,58,61,0
124.062614,124.685005,58,57,0
124.062614,124.685005,48,45,0
124.062614,124.685005,52,45,0
124.685005,124.88404,53,40,0
124.685005,124.88404,57,51,0
125.2915,125.490524,48,41,0
125.490524,125.59004,58,24,0
125.490524,125.59004,60,31,0
125.68956,125.78907,58,24,0
125.68956,125.78907,60,31,0
125.88859,125.988106,58,24,0
125.88859,125.988106,60,31,0
126.087616,126.18713,58,24,0
126.087616,126.18713,60,31,0
126.28665,126.38617,58,24,0
126.28665,126.38617,60,31,0
126.49429,126.69332,53,41,0
126.69332,126.79284,57,24,0
126.69332,126.79284,60,31,0
126.89236,126.99187,57,24,0
126.89236,126.99187,60,31,0
127.091385,127.1909,60,31,0
127.091385,127.1909,57,24,0
127.29041,127.38993,60,31,0
127.29041,127.38993,57,24,0
127.48945,127.58897,60,31,0
127.48945,127.58897,57,24,0
127.69948,127.898506,48,41,0
127.898506,127.998024,60,31,0
127.898506,127.998024,55,24,0
128.09753,128.19705,60,31,0
128.09753,128.19705,55,24,0
128.29657,128.39609,60,31,0
128.29657,128.39609,55,24,0
128.4956,128.59512,55,24,0
128.4956,128.59512,60,31,0
128.69464,128.79414,60,31,0
128.69464,128.79414,55,24,0
128.91159,129.11061,53,41,0
129.11061,129.21013,57,24,0
129.11061,129.21013,60,31,0
129.30965,129.40916,60,31,0
129.30965,129.40916,57,24,0
129.50868,129.6082,57,24,0
129.50868,129.6082,60,31,0
129.70772,129.80722,60,31,0
129.70772,129.80722,57,24,0
129.90674,130.00626,57,24,0
129.90674,130.00626,60,31,0
130.11047,130.30951,48,41,0
130.30951,130.40901,60,31,0
130.30951,130.40901,58,24,0
130.50853,130.60805,58,24,0
130.50853,130.60805,60,31,0
130.70757,130.80708,58,24,0
130.70757,130.80708,60,31,0
130.9066,131.00612,58,24,0
130.9066,131.00612,60,31,0
131.10562,131.20514,58,24,0
131.10562,131.20514,60,31,0
131.31326,131.5123,53,41,0
131.5123,131.61182,57,24,0
131.5123,131.61182,60,31,0
131.71133,131.81085,60,31,0
131.71133,131.81085,57,24,0
131.91037,132.00987,57,24,0
131.91037,132.00987,60,31,0
132.10939,132.20891,60,31,0
132.10939,132.20891,57,24,0
132.30843,132.40794,57,24,0
132.30843,132.40794,60,31,0
132.50746,132.70648,48,41,0
132.70648,132.806,60,31,0
132.70648,132.806,55,24,0
132.90552,133.00504,55,24,0
132.90552,133.00504,60,31,0
133.10455,133.20407,58,24,0
133.10455,133.20407,60,31,0
133.30359,133.4031,58,24,0
133.30359,133.4031,60,31,0
133.50261,133.59956,60,31,0
133.50261,133.59956,58,24,0
133.6965,133.89554,53,32,0
133.6965,133.89554,60,41,0
133.6965,133.89554,57,32,0
134.09456,134.2936,45,60,0
134.2936,134.39095,46,66,0
134.4883,134.58565,55,61,0
134.683,134.78294,47,61,0
134.8829,134.98026,48,66,0
135.0776,135.17496,57,61,0
135.27231,135.37094,49,61,0
135.46957,135.56693,50,66,0
135.66428,135.76163,58,61,0
135.85898,135.95827,52,61,0
136.64166,137.21591,64,28,0
136.64166,137.21591,60,28,0
136.64166,137.21591,58,28,0
136.64166,137.21591,67,34,0
137.21591,137.41063,60,41,0
137.21591,137.41063,65,49,0
137.21591,137.41063,57,41,0
137.81961,138.20901,60,42,0
138.20901,138.42178,61,42,0
138.42178,139.2314,62,47,0
140.02087,140.21991,45,60,0
140.21991,140.31726,46,66,0
140.41461,140.51196,55,61,0
140.60931,140.70926,47,61,0
140.8092,140.90656,48,66,0
141.0039,141.10126,57,61,0
141.19861,141.29724,49,61,0
141.39587,141.49323,50,66,0
141.59058,141.68794,58,61,0
141.7853,141.88457,52,61,0
142.56796,143.14223,67,34,0
142.56796,143.14223,60,28,0
142.56796,143.14223,58,28,0
142.56796,143.14223,64,28,0
143.14223,143.39417,65,49,0
143.14223,143.39417,57,41,0
143.14223,143.39417,60,41,0
143.79665,144.0507,65,40,0
143.79665,144.0507,58,32,0
143.79665,144.0507,62,32,0
144.4835,145.11404,57,32,0
145.11404,145.79948,58,28,0
144.4835,145.79948,48,27,0
146.00485,146.20082,57,24,0
146.20082,146.3968,60,24,0
145.79948,146.3968,53,28,0
146.59407,146.79134,55,26,0
146.79134,146.99393,58,26,0
146.3968,146.99393,53,28,0
147.1912,147.38846,57,24,0
147.38846,147.58969,60,24,0
146.99393,147.58969,53,28,0
147.78696,147.98422,55,24,0
147.98422,148.18681,58,24,0
147.58969,148.18681,53,28,0
148.38408,148.58134,57,24,0
148.58134,148.79102,60,24,0
148.18681,148.79102,53,28,0
148.98958,149.19637,57,24,0
149.19637,149.49316,60,24,0
148.79102,149.49316,53,28,0
149.49316,150.56383,41,23,0
149.49316,150.56383,53,28,0
152.29057,152.88629,57,74,0
152.29057,152.88629,45,63,0
152.88629,153.482,43,63,0
152.88629,153.482,55,74,0
153.482,154.07771,41,63,0
153.482,154.07771,53,74,0
154.07771,154.70673,40,63,0
154.07771,154.70673,52,74,0
154.70673,154.9053,50,59,0
154.9053,155.09875,53,54,0
155.09875,155.30412,57,54,0
155.30412,155.50139,49,59,0
155.50139,155.69359,52,54,0
155.69359,155.89482,57,54,0
155.89482,156.0908,50,59,0
156.0908,156.28677,53,54,0
156.28677,156.488,57,54,0
156.488,156.68399,48,59,0
156.68399,156.87619,54,53,0
156.87619,157.07742,57,53,0
157.07742,157.47195,47,58,0
158.25978,158.85683,67,54,0
158.85683,159.45259,65,44,0
158.85683,159.45259,67,52,0
159.45259,160.04836,64,40,0
159.45259,160.04836,67,47,0
160.04836,160.65074,67,46,0
160.04836,160.65074,62,39,0
160.04836,160.65074,65,39,0
160.65074,160.75069,60,44,0
160.85063,160.95058,64,37,0
161.05052,161.15047,67,37,0
161.25316,161.35245,59,43,0
161.45172,161.55101,65,37,0
161.6503,161.74959,67,37,0
161.85297,162.05154,64,46,0
161.85297,162.05154,60,46,0
161.85297,162.05154,67,46,0
163.04851,163.14778,53,41,0
163.24707,163.34636,65,35,0
163.64421,163.74905,47,43,0
163.84833,163.94762,59,38,0
164.24817,164.34746,52,44,0
164.44675,164.54604,64,40,0
164.84389,164.94873,45,43,0
165.048,165.1473,57,40,0
165.44514,165.55072,50,48,0
165.84662,165.94525,59,43,0
166.04388,166.14873,60,49,0
166.44463,166.54324,48,40,0
166.64253,166.74117,55,47,0
167.33257,167.44193,69,57,0
167.43193,167.54266,67,56,0
167.53253,167.6447,65,55,0
167.63443,167.752,64,52,0
167.73773,167.88048,62,51,0
167.88048,168.07951,60,41,0
168.07951,168.27853,63,31,0
168.27853,168.47757,67,31,0
168.47757,168.6766,60,37,0
168.6766,168.87387,63,31,0
168.87387,169.08063,67,31,0
169.08063,169.27966,59,41,0
169.27966,169.47868,62,31,0
169.47868,169.67772,67,31,0
169.67772,169.87675,59,36,0
169.87675,170.07578,62,31,0
170.07578,170.28581,67,31,0
170.28581,170.48485,59,41,0
170.48485,170.68387,62,31,0
170.68387,170.8829,65,31,0
170.8829,171.08194,59,37,0
171.08194,171.2792,62,31,0
171.2792,171.48596,67,31,0
171.48596,171.68498,60,41,0
171.68498,171.88896,63,31,0
171.88896,172.10785,67,31,0
172.10785,172.30643,60,36,0
172.30643,172.50499,63,31,0
172.50499,172.7148,67,31,0
172.7148,172.91603,63,47,0
172.91603,173.11726,67,36,0
173.11726,173.3185,72,36,0
173.3185,173.51459,62,44,0
173.51459,173.71327,65,32,0
173.71327,173.91196,70,33,0
173.91196,174.11197,60,48,0
174.11197,174.31198,63,36,0
174.31198,174.512,68,36,0
174.512,174.71202,58,45,0
174.71202,174.91203,62,31,0
174.91203,175.11612,67,31,0
175.11612,175.31613,56,46,0
175.31613,175.51614,60,35,0
175.51614,175.71617,65,35,0
175.71617,175.91618,56,43,0
175.91618,176.1162,60,36,0
176.1162,176.32169,66,34,0
176.32169,176.5217,55,43,0
176.5217,176.72171,60,29,0
176.72171,176.92172,67,30,0
176.92172,177.12173,55,39,0
177.12173,177.32175,59,27,0
177.32175,177.52176,67,27,0
177.52176,177.7208,60,41,0
177.7208,177.91983,63,31,0
177.91983,178.11887,67,31,0
178.11887,178.31789,60,37,0
178.31789,178.51515,63,31,0
178.51515,178.72191,67,31,0
178.72191,178.92094,59,41,0
178.92094,179.11998,62,31,0
179.11998,179.319,67,31,0
179.319,179.51804,59,36,0
179.51804,179.71707,62,31,0
179.71707,179.9271,67,31,0
179.9271,180.12613,59,41,0
180.12613,180.32516,62,31,0
180.32516,180.5242,65,31,0
180.5242,180.72322,59,37,0
180.72322,180.92049,62,31,0
180.92049,181.12724,67,31,0
181.12724,181.32628,58,41,0
181.32628,181.53024,61,31,0
181.53024,181.74913,67,31,0
181.74913,181.94771,57,36,0
181.94771,182.14629,60,31,0
182.14629,182.35608,65,31,0
182.35608,182.55731,56,52,0
182.55731,182.75854,60,41,0
182.75854,182.95978,66,41,0
182.95978,183.16101,55,51,0
183.16101,183.36118,60,36,0
183.36118,183.55986,67,36,0
183.55986,183.75987,53,56,0
183.75987,183.95988,56,36,0
183.95988,184.1599,62,36,0
184.1599,184.35991,51,45,0
184.35991,184.55992,60,31,0
184.55992,184.76402,53,31,0
184.76402,184.9627,55,45,0
184.9627,185.16139,60,30,0
185.16139,185.36009,63,30,0
185.36009,185.55878,55,38,0
185.55878,185.75746,62,31,0
185.75746,185.98135,65,31,0
185.98135,186.37503,60,67,0
185.98135,186.37503,64,67,0
186.57976,186.67711,62,67,0
186.77446,186.87056,59,62,0
186.96666,187.06679,55,62,0
187.1674,187.55984,60,67,0
187.76457,187.86256,62,67,0
187.96054,188.05605,59,62,0
188.15154,188.25159,55,62,0
188.35222,188.74466,60,67,0
188.94937,189.04547,62,67,0
189.14159,189.23769,59,62,0
189.33379,189.43391,55,62,0
189.53453,189.92697,60,67,0
192.06824,192.28407,45,46,0
192.2642,192.48238,48,49,0
192.46278,192.67836,51,51,0
192.65875,192.87473,50,46,0
192.85474,193.25722,48,46,0
193.25722,193.47165,47,45,0
193.45192,193.66866,50,46,0
193.64919,193.86336,56,51,0
193.84389,194.05858,55,46,0
194.03859,194.2586,53,46,0
194.2385,194.43973,52,36,0
194.82913,195.03036,53,40,0
195.42905,196.03275,64,40,0
196.03275,196.6574,65,40,0
195.42905,196.6574,55,34,0
196.6574,197.04984,60,67,0
196.6574,197.04984,64,67,0
197.25456,197.35362,62,67,0
197.45226,197.54865,59,62,0
197.64474,197.74487,55,62,0
197.84549,198.23793,60,67,0
198.44266,198.54172,62,67,0
198.64035,198.73672,59,62,0
198.83284,198.93297,55,62,0
199.03358,199.42603,60,67,0
199.63074,199.72981,62,67,0
199.82845,199.92482,59,62,0
200.02094,200.12106,55,62,0
200.22168,200.61479,60,67,0
202.73558,202.95142,45,46,0
202.93156,203.14973,48,49,0
203.13013,203.3457,51,51,0
203.32611,203.54207,50,46,0
203.52208,203.92458,48,46,0
203.92458,204.139,47,45,0
204.11928,204.33601,50,46,0
204.31654,204.53072,56,51,0
204.51125,204.72594,55,46,0
204.70595,204.92596,53,46,0
204.90584,205.10707,52,36,0
205.49648,205.69772,53,40,0
206.09639,206.70009,64,40,0
206.09639,206.70009,55,34,0
206.70009,207.33334,53,32,0
206.70009,207.33334,62,40,0
207.33334,207.53871,52,64,0
207.53871,207.73729,55,53,0
207.73729,207.94229,60,53,0
207.94229,208.14488,53,61,0
208.14488,208.34344,57,53,0
208.34344,208.54454,62,50,0
208.54454,208.74577,55,38,0
208.74577,208.947,60,34,0
208.947,209.14824,64,34,0
209.14824,209.35646,55,39,0
209.35646,209.56468,62,33,0
209.56468,209.77289,65,33,0
209.77289,210.17969,64,66,0
209.77289,210.17969,60,56,0
210.37439,210.7638,65,66,0
210.37439,210.7638,59,66,0
210.37439,210.7638,55,56,0
210.96977,211.37526,60,56,0
210.96977,211.37526,64,66,0
211.56996,211.95938,55,56,0
211.56996,211.95938,59,56,0
211.56996,211.95938,65,66,0
212.16458,212.56453,48,56,0
212.16458,212.56453,52,66,0
212.75923,213.14864,53,66,0
212.75923,213.14864,47,56,0
212.75923,213.14864,43,56,0
213.35384,213.45445,36,70,0
213.55507,213.65569,40,63,0
213.7563,213.85692,43,63,0
213.95753,214.05815,48,70,0
214.15877,214.2594,52,64,0
214.36002,214.46063,55,64,0
214.56125,214.76662,60,74,0
215.17734,215.60875,55,62,0
215.17734,215.60875,52,62,0
215.17734,215.60875,60,74,0
215.17734,215.60875,48,62,0
215.82445,216.25586,55,62,0
215.82445,216.25586,48,62,0
215.82445,216.25586,52,62,0
215.82445,216.25586,60,74,0
217.11867,217.50395,36,59,0
217.11867,217.50395,48,70,0
217.11867,217.50395,39,59,0
217.11867,217.50395,43,59,0
220.03893,220.14116,51,70,0
220.23625,220.33136,50,66,0
220.42645,220.52156,51,66,0
220.6231,220.7188,53,70,0
220.8145,220.9102,51,67,0
221.00592,221.10162,53,67,0
221.20247,221.29758,55,70,0
221.39267,221.48778,53,67,0
221.58287,221.67798,55,67,0
221.79271,222.178,56,74,0
222.178,222.2743,55,67,0
222.37796,222.76077,56,74,0
222.76077,222.85649,55,66,0
222.95941,223.1588,54,44,0
223.15083,223.34224,55,38,0
223.34224,223.54163,54,55,0
223.53365,223.73134,55,60,0
223.73134,223.93028,56,63,0
223.92233,224.12146,55,47,0
224.12146,224.3204,54,47,0
224.31245,224.50343,55,42,0
224.50343,224.70238,54,59,0
224.69441,224.8912,55,53,0
224.8912,225.09015,56,64,0
225.0822,225.28133,55,41,0
225.38496,225.48296,54,42,0
225.48296,225.58095,57,44,0
225.58095,225.67894,60,46,0
225.67894,225.78232,62,48,0
227.64865,227.84804,55,44,0
227.84006,228.03148,56,38,0
228.03148,228.23087,55,55,0
228.22289,228.42058,56,55,0
228.42058,228.61952,58,63,0
228.61156,228.8107,56,47,0
228.8107,229.00964,55,47,0
229.00168,229.19267,56,42,0
229.19267,229.39162,55,59,0
229.38365,229.58044,56,53,0
229.58044,229.77939,58,64,0
229.77142,229.97057,56,41,0
230.0742,230.1722,55,42,0
230.1722,230.27019,59,44,0
230.27019,230.36816,62,46,0
230.36816,230.47156,65,48,0
232.33789,232.53728,60,44,0
232.5293,232.72072,59,38,0
232.72072,232.9201,60,45,0
232.91212,233.10982,61,54,0
233.10982,233.30876,60,49,0
233.3008,233.49994,59,44,0
233.49994,233.69888,60,47,0
233.69092,233.88191,59,42,0
233.88191,234.08086,60,48,0
234.07289,234.26968,61,51,0
234.26968,234.46863,60,46,0
234.46066,234.6598,59,41,0
234.76344,234.86143,48,42,0
234.86143,234.95941,52,44,0
234.95941,235.0574,55,46,0
235.0574,235.1608,58,48,0
237.02713,237.22652,57,44,0
237.21854,237.40994,58,38,0
237.40994,237.60933,57,55,0
237.60136,237.79906,58,55,0
237.79906,237.998,59,63,0
237.99004,238.18918,58,47,0
238.18918,238.3881,57,47,0
238.38016,238.57114,58,42,0
238.57114,238.77008,57,59,0
238.76213,238.95892,58,53,0
238.95892,239.15787,59,64,0
239.1499,239.34903,58,41,0
239.45268,239.55066,57,42,0
239.55066,239.64865,60,44,0
239.64865,239.74664,63,46,0
239.74664,239.85004,65,48,0
241.73344,241.92815,58,29,0
241.92815,242.12285,62,25,0
242.12285,242.31755,65,25,0
242.31755,242.51225,57,30,0
242.51225,242.70697,60,26,0
242.70697,242.9077,65,26,0
242.9077,243.10242,55,30,0
243.10242,243.29712,58,27,0
243.29712,243.4881,63,27,0
243.4881,243.68094,54,29,0
243.68094,243.87439,57,25,0
243.87439,244.07242,62,25,0
244.07242,244.26712,55,32,0
244.26712,244.46057,58,25,0
244.46057,244.65593,63,25,0
244.65593,244.85063,53,31,0
244.85063,245.04533,57,27,0
245.04533,245.2433,62,27,0
245.2433,245.438,51,37,0
245.438,245.63145,55,32,0
245.63145,245.82875,60,32,0
245.82875,246.02345,50,34,0
246.02345,246.21815,53,28,0
246.21815,246.4175,58,24,0
246.4175,246.61417,48,32,0
246.61417,246.81015,55,27,0
246.81015,247.00612,58,27,0
247.00612,247.2021,53,33,0
247.2021,247.3943,57,29,0
247.3943,247.5917,60,29,0
247.5917,247.78767,46,36,0
247.78767,247.98366,53,31,0
247.98366,248.17963,58,29,0
248.17963,248.37823,54,33,0
248.37823,248.58034,58,33,0
248.58034,248.7763,61,33,0
248.7763,248.97769,51,39,0
248.97769,249.17366,54,35,0
249.17366,249.36964,58,36,0
249.36964,249.56561,52,45,0
249.56561,249.7616,55,38,0
249.7616,249.96172,61,39,0
249.96172,250.1643,53,47,0
250.1643,250.3669,57,40,0
250.3669,250.56949,60,40,0
250.56949,250.77208,53,48,0
250.77208,250.97467,51,42,0
250.97467,251.17726,48,43,0
251.17726,251.56668,46,49,0
251.17726,251.56668,58,58,0
251.76138,252.15079,57,58,0
251.76138,252.15079,45,49,0
252.35153,253.31822,55,58,0
252.35153,253.31822,43,49,0
253.31822,253.51624,42,48,0
253.31822,253.51624,54,57,0
253.51624,253.90439,43,48,0
253.51624,253.90439,55,57,0
254.09975,254.48915,53,57,0
254.09975,254.48915,41,48,0
254.68712,255.66199,39,39,0
254.68712,255.66199,51,47,0
255.66199,255.86133,50,42,0
255.66199,255.86133,38,35,0
255.86133,255.95996,48,51,0
255.95996,256.0586,55,44,0
256.0586,256.15723,58,44,0
256.46005,256.5587,54,51,0
256.5587,256.65732,57,42,0
256.65732,256.75595,60,44,0
257.05878,257.1574,55,51,0
257.1574,257.25604,58,42,0
257.25604,257.35468,62,42,0
257.65753,257.75552,51,57,0
257.75552,257.85352,55,49,0
257.85352,257.95148,60,49,0
258.2516,258.35022,41,63,0
258.35022,258.44885,50,56,0
258.44885,258.5475,53,56,0
258.8503,258.9496,41,70,0
258.9496,259.04898,48,61,0
259.04898,259.15112,53,61,0
259.49942,260.28848,34,72,0
260.28848,260.48572,38,42,0
260.48572,260.68298,41,44,0
260.88025,261.0775,50,48,0
261.0775,261.27478,53,50,0
261.27478,261.47205,58,52,0
260.68298,261.87134,46,46,0
261.87134,263.04745,51,45,0
263.04745,264.225,54,45,0
261.87134,264.225,48,45,0
261.87134,264.225,45,45,0
264.225,266.6498,46,45,0
264.225,266.6498,50,45,0
264.225,266.6498,55,45,0
266.6498,267.05228,58,26,0
266.6498,267.05228,61,33,0
267.26196,267.66174,58,26,0
267.26196,267.66174,61,33,0
267.86853,268.2683,60,33,0
267.86853,268.2683,58,26,0
268.47092,268.8707,58,26,0
268.47092,268.8707,60,33,0
269.07892,271.48453,56,60,0
269.07892,271.48453,44,50,0
271.68442,271.883,64,41,0
271.883,272.08154,65,41,0
272.08154,272.28012,68,45,0
272.28012,272.4787,64,41,0
272.4787,272.68127,65,41,0
271.48453,272.68127,62,45,0
272.68127,272.8812,68,54,0
272.8812,273.0811,64,42,0
273.0811,273.28098,65,42,0
273.28098,273.48087,68,52,0
273.48087,273.68076,67,47,0
273.68076,273.88754,65,52,0
272.68127,273.88754,61,45,0
273.88754,274.29147,60,58,0
273.88754,274.29147,48,49,0
274.49005,274.8941,48,49,0
274.49005,274.8941,60,58,0
275.09137,275.49252,60,57,0
275.09137,275.49252,48,49,0
275.6911,276.09225,48,49,0
275.6911,276.09225,60,57,0
276.29083,276.69476,60,57,0
276.29083,276.69476,48,49,0
276.89334,277.30692,48,48,0
276.89334,277.30692,60,56,0
277.53067,277.6313,36,72,0
277.7319,277.83252,40,60,0
277.93314,278.03375,43,60,0
278.13437,278.235,48,69,0
278.3356,278.43622,52,60,0
278.53683,278.64023,55,60,0
278.7434,278.944,60,69,0
282.3204,282.4311,60,59,0
282.42102,282.53143,61,60,0
282.52142,282.6312,62,62,0
282.62134,282.72983,60,63,0
282.71997,282.82892,58,62,0
282.819,282.92822,57,60,0
282.91846,283.0256,55,59,0
283.0159,283.12213,57,61,0
283.1125,283.21777,58,62,0
283.20825,283.31323,57,61,0
283.30365,283.4097,55,59,0
283.4,283.5072,53,57,0
283.49738,283.6054,52,58,0
283.59558,283.70325,53,60,0
283.69348,283.8004,55,62,0
283.7908,283.89706,53,61,0
283.88736,283.99445,52,61,0
283.9847,284.09277,50,60,0
284.0829,284.19095,48,59,0
284.18118,284.28766,50,60,0
284.27805,284.38287,48,61,0
284.37344,284.4781,46,61,0
284.46854,284.57486,45,60,0
284.56512,284.66467,43,58,0
284.66467,285.04996,41,59,0
284.66467,285.04996,53,70,0
284.66467,285.04996,45,59,0
284.66467,285.04996,48,59,0
287.58493,287.68512,57,70,0
287.78082,287.87653,55,66,0
287.97223,288.06793,57,66,0
288.16946,288.26517,58,70,0
288.36087,288.45657,57,67,0
288.5523,288.648,58,67,0
288.74884,288.84396,60,70,0
288.93906,289.03415,58,67,0
289.12924,289.22433,60,67,0
289.33908,289.72437,61,74,0
289.72437,289.82068,60,67,0
289.92435,290.30716,61,74,0
290.30716,290.40286,60,66,0
290.52673,290.62247,59,47,0
290.71817,290.81387,59,47,0
290.90958,291.00528,59,47,0
291.10892,291.3191,60,50,0
291.73947,292.12476,41,59,0
291.73947,292.12476,45,59,0
291.73947,292.12476,48,59,0
291.73947,292.12476,53,70,0
294.65973,294.75925,57,70,0
294.85495,294.95065,55,66,0
295.0464,295.1421,57,66,0
295.24362,295.33932,58,70,0
295.43503,295.53073,57,67,0
295.62643,295.72214,58,67,0
295.823,295.9181,60,70,0
296.01318,296.1083,58,67,0
296.2034,296.2985,60,67,0
296.41324,296.79852,61,74,0
296.79852,296.89484,60,67,0
296.99847,297.38132,61,74,0
297.38132,297.47702,60,66,0
297.57993,297.70383,59,36,0
298.2493,298.3655,58,36,0
298.91025,299.0292,57,35,0
299.56754,299.66705,46,58,0
299.66705,299.76657,58,61,0
300.1646,300.78702,48,45,0
300.1646,300.78702,58,57,0
300.1646,300.78702,52,45,0
300.78702,300.98605,57,51,0
300.78702,300.98605,53,40,0
301.3935,301.59253,48,41,0
301.59253,301.69205,58,24,0
301.59253,301.69205,60,31,0
301.79156,301.89108,58,24,0
301.79156,301.89108,60,31,0
301.9906,302.09012,58,24,0
301.9906,302.09012,60,31,0
302.18964,302.28915,58,24,0
302.18964,302.28915,60,31,0
302.38867,302.4882,58,24,0
302.38867,302.4882,60,31,0
302.5963,302.79535,53,41,0
302.79535,302.89484,60,31,0
302.79535,302.89484,57,24,0
302.99435,303.09387,60,31,0
302.99435,303.09387,57,24,0
303.1934,303.2929,57,24,0
303.1934,303.2929,60,31,0
303.39243,303.49194,57,24,0
303.39243,303.49194,60,31,0
303.59146,303.69098,57,24,0
303.59146,303.69098,60,31,0
303.80148,304.00052,48,41,0
304.00052,304.10004,60,31,0
304.00052,304.10004,55,24,0
304.19955,304.29907,60,31,0
304.19955,304.29907,55,24,0
304.3986,304.4981,60,31,0
304.3986,304.4981,55,24,0
304.59763,304.69714,60,31,0
304.59763,304.69714,55,24,0
304.79666,304.89615,60,31,0
304.79666,304.89615,55,24,0
305.0136,305.21262,53,41,0
305.21262,305.31213,60,31,0
305.21262,305.31213,57,24,0
305.41165,305.51117,60,31,0
305.41165,305.51117,57,24,0
305.6107,305.7102,60,31,0
305.6107,305.7102,57,24,0
305.80972,305.90924,60,31,0
305.80972,305.90924,57,24,0
306.00876,306.10828,60,31,0
306.00876,306.10828,57,24,0
306.2125,306.41153,48,41,0
306.41153,306.51102,58,24,0
306.41153,306.51102,60,31,0
306.61053,306.71005,58,24,0
306.61053,306.71005,60,31,0
306.80957,306.9091,58,24,0
306.80957,306.9091,60,31,0
307.0086,307.10812,58,24,0
307.0086,307.10812,60,31,0
307.20764,307.30716,60,31,0
307.20764,307.30716,58,24,0
307.41528,307.61432,53,41,0
307.61432,307.71384,60,31,0
307.61432,307.71384,57,24,0
307.81335,307.91287,60,31,0
307.81335,307.91287,57,24,0
308.0124,308.11188,57,24,0
308.0124,308.11188,60,31,0
308.2114,308.3109,57,24,0
308.2114,308.3109,60,31,0
308.41043,308.50995,57,24,0
308.41043,308.50995,60,31,0
308.60947,308.8085,48,41,0
308.8085,308.90802,60,31,0
308.8085,308.90802,55,24,0
309.00754,309.10706,55,24,0
309.00754,309.10706,60,31,0
309.20657,309.3061,60,31,0
309.20657,309.3061,58,24,0
309.4056,309.5051,58,24,0
309.4056,309.5051,60,31,0
309.6046,309.70157,60,31,0
309.6046,309.70157,58,24,0
309.79852,309.99756,57,32,0
309.79852,309.99756,53,32,0
309.79852,309.99756,60,41,0
310.3956,310.9927,61,62,0
310.3956,310.9927,55,52,0
310.3956,310.9927,51,52,0
310.9927,311.5884,50,57,0
310.9927,311.5884,54,57,0
310.9927,311.5884,62,68,0
312.1841,312.77985,62,74,0
312.1841,312.77985,50,63,0
312.77985,313.37555,60,74,0
312.77985,313.37555,48,63,0
313.37555,313.97125,58,74,0
313.37555,313.97125,46,63,0
313.97125,314.60028,57,74,0
313.97125,314.60028,45,63,0
314.60028,314.79886,55,59,0
314.79886,314.9923,58,54,0
314.9923,315.19766,62,54,0
315.19766,315.39493,54,59,0
315.39493,315.58713,57,54,0
315.58713,315.78836,62,54,0
315.78836,315.98434,55,59,0
315.98434,316.18033,58,54,0
316.18033,316.38156,62,54,0
316.38156,316.57755,53,59,0
316.57755,316.76974,59,53,0
316.76974,316.97098,62,53,0
316.97098,317.3655,52,58,0
318.15332,318.75037,72,54,0
318.75037,319.34613,72,52,0
318.75037,319.34613,70,44,0
319.34613,319.9419,69,40,0
319.34613,319.9419,72,47,0
319.9419,320.54428,67,39,0
319.9419,320.54428,72,46,0
319.9419,320.54428,70,39,0
320.54428,320.64423,65,44,0
320.74417,320.84412,69,37,0
320.94406,321.044,72,37,0
321.1467,321.246,64,43,0
321.34528,321.44455,67,37,0
321.54385,321.64313,72,37,0
321.74652,321.9451,65,46,0
321.74652,321.9451,72,46,0
321.74652,321.9451,69,46,0
322.94205,323.04132,46,49,0
323.14062,323.2399,58,40,0
323.53775,323.6426,52,48,0
323.74188,323.84116,64,43,0
324.14172,324.241,45,50,0
324.3403,324.43958,57,43,0
324.73743,324.8423,50,47,0
324.94156,325.04083,62,40,0
325.33868,325.438,43,45,0
325.53726,325.63657,45,47,0
325.73584,325.8351,46,49,0
325.93442,326.03925,48,51,0
326.13852,326.23782,50,53,0
326.3371,326.43637,52,55,0
326.53568,326.63495,53,57,0
326.93085,327.02948,45,49,0
327.1281,327.23294,46,59,0
327.52884,327.62747,47,50,0
327.72678,327.8254,48,56,0
328.41678,328.52615,62,57,0
328.51614,328.6269,60,56,0
328.61676,328.72894,58,55,0
328.71866,328.83624,57,52,0
328.82196,328.96472,55,51,0
328.96472,329.16376,53,41,0
329.16376,329.36276,56,31,0
329.36276,329.5618,60,31,0
329.5618,329.76083,53,37,0
329.76083,329.9581,56,31,0
329.9581,330.16486,60,31,0
330.16486,330.3639,52,41,0
330.3639,330.56293,55,31,0
330.56293,330.76196,60,31,0
330.76196,330.961,52,36,0
330.961,331.16,55,31,0
331.16,331.37006,60,31,0
331.37006,331.56906,52,41,0
331.56906,331.7681,55,31,0
331.7681,331.96713,58,31,0
331.96713,332.16617,52,37,0
332.16617,332.36343,55,31,0
332.36343,332.5702,60,31,0
332.5702,332.76923,53,41,0
332.76923,332.9732,56,31,0
332.9732,333.19208,60,31,0
333.19208,333.39066,53,36,0
333.39066,333.58923,56,31,0
333.58923,333.799,60,31,0
333.799,334.00024,56,47,0
334.00024,334.20148,60,36,0
334.20148,334.4027,65,36,0
334.4027,334.6014,55,44,0
334.6014,334.8001,58,32,0
334.8001,335.00146,63,33,0
335.00146,335.20148,53,48,0
335.20148,335.4015,56,36,0
335.4015,335.6015,61,36,0
335.6015,335.8015,51,45,0
335.8015,336.00153,55,31,0
336.00153,336.20844,60,31,0
336.20844,336.40714,49,46,0
336.40714,336.6058,53,35,0
336.6058,336.8045,58,35,0
336.8045,337.0032,49,43,0
337.0032,337.20187,53,36,0
337.20187,337.41315,59,34,0
337.41315,337.61185,48,43,0
337.61185,337.81055,53,29,0
337.81055,338.00922,60,30,0
338.00922,338.20792,48,39,0
338.20792,338.40662,52,27,0
338.40662,338.6194,60,27,0
338.6194,338.81808,53,41,0
338.81808,339.01675,56,31,0
339.01675,339.21545,60,31,0
339.21545,339.41415,53,37,0
339.41415,339.6114,56,31,0
339.6114,339.81815,60,31,0
339.81815,340.01718,52,41,0
340.01718,340.21622,55,31,0
340.21622,340.41525,60,31,0
340.41525,340.6143,52,36,0
340.6143,340.81332,55,31,0
340.81332,341.02335,60,31,0
341.02335,341.22238,52,41,0
341.22238,341.42142,55,31,0
341.42142,341.62045,58,31,0
341.62045,341.81946,52,37,0
341.81946,342.01672,55,31,0
342.01672,342.22348,60,31,0
342.2268,342.42593,51,41,0
342.42252,342.6265,54,31,0
342.6265,342.8454,57,31,0
342.8454,343.04395,50,36,0
343.04395,343.24252,53,31,0
343.24252,343.45233,58,31,0
343.45233,343.65356,49,57,0
343.65356,343.8548,53,46,0
343.8548,344.05603,56,47,0
344.05603,344.25726,48,55,0
344.25726,344.4585,53,46,0
344.4585,344.65973,56,46,0
344.65973,344.86096,46,59,0
344.86096,345.0622,52,39,0
345.0622,345.26343,55,39,0
345.26343,345.46466,44,45,0
345.46466,345.6659,48,31,0
345.6659,345.86862,53,31,0
345.86862,346.06863,48,45,0
346.06863,346.26865,53,30,0
346.26865,346.46866,56,30,0
346.46866,346.66867,48,38,0
346.66867,346.86868,55,31,0
346.86868,347.0909,58,31,0
347.0909,347.4845,57,67,0
347.0909,347.4845,53,67,0
347.6892,347.78656,55,67,0
347.8839,347.98004,52,62,0
348.07614,348.17627,48,62,0
348.2769,348.6693,53,67,0
348.87405,348.97202,55,67,0
349.07,349.1655,52,62,0
349.26102,349.36105,48,62,0
349.46167,349.85413,53,67,0
350.05884,350.15494,67,67,0
350.25107,350.34717,64,62,0
350.44327,350.5434,60,62,0
350.644,351.03644,65,67,0
351.24118,351.33728,67,67,0
351.43338,351.52948,64,62,0
351.62558,351.7257,60,62,0
351.82632,352.21878,65,67,0
354.36002,354.57587,50,49,0
354.556,354.77417,53,52,0
354.75458,354.97015,56,54,0
354.95056,355.1665,55,49,0
355.1465,355.549,53,49,0
355.549,355.76346,52,47,0
355.7437,355.96045,55,49,0
355.94098,356.15515,61,54,0
356.13568,356.35037,60,49,0
356.33038,356.5504,58,49,0
356.53027,356.7315,57,38,0
357.12094,357.32217,58,40,0
357.72083,358.32452,69,40,0
358.32452,358.9492,70,40,0
357.72083,358.9492,60,34,0
358.9492,359.34164,65,67,0
358.9492,359.34164,69,67,0
359.54636,359.64542,55,67,0
359.74405,359.84042,52,62,0
359.93655,360.03668,48,62,0
360.1373,360.52972,53,67,0
360.73444,360.83353,55,67,0
360.93216,361.02853,52,62,0
361.12463,361.22476,48,62,0
361.32538,361.7178,53,67,0
361.92255,362.0216,67,67,0
362.12024,362.2166,64,62,0
362.3127,362.41284,60,62,0
362.51346,362.9059,65,67,0
363.11063,363.20972,67,67,0
363.30835,363.40472,64,62,0
363.50082,363.60095,60,62,0
363.70157,364.09467,65,67,0
366.21548,366.4313,50,49,0
366.41144,366.6296,53,52,0
366.61002,366.8256,56,54,0
366.806,367.02197,55,49,0
367.00198,367.40445,53,49,0
367.40445,367.6189,52,47,0
367.59915,367.8159,55,49,0
367.79642,368.0106,61,54,0
367.99112,368.20584,60,49,0
368.18582,368.40585,58,49,0
368.38574,368.58698,57,38,0
368.97638,369.1776,58,40,0
369.5763,370.18,69,40,0
369.5763,370.18,60,34,0
370.18,370.81323,67,40,0
370.18,370.81323,58,32,0
370.81323,371.01862,57,64,0
371.01862,371.21716,60,53,0
371.21716,371.42218,65,53,0
371.42218,371.62476,58,61,0
371.62476,371.82333,62,53,0
371.82333,372.02444,67,50,0
372.02444,372.22568,60,38,0
372.22568,372.4269,65,34,0
372.4269,372.62814,69,34,0
372.62814,372.83636,60,39,0
372.83636,373.04456,67,33,0
373.04456,373.25278,70,33,0
373.25278,373.65958,65,56,0
373.25278,373.65958,69,66,0
373.85428,374.24368,64,66,0
373.85428,374.24368,60,56,0
373.85428,374.24368,70,66,0
374.44968,374.85516,69,66,0
374.44968,374.85516,65,56,0
375.04987,375.43927,64,56,0
375.04987,375.43927,60,56,0
375.04987,375.43927,70,66,0
375.64447,376.0444,53,56,0
375.64447,376.0444,57,66,0
376.2391,376.62854,58,66,0
376.2391,376.62854,52,56,0
376.2391,376.62854,48,56,0
376.83374,376.93436,41,70,0
377.03497,377.1356,45,63,0
377.2362,377.33682,48,63,0
377.43744,377.53806,53,70,0
377.63867,377.7393,57,64,0
377.8399,377.94052,60,64,0
378.04114,378.2415,65,74,0
378.6422,379.04294,53,62,0
378.6422,379.04294,65,74,0
379.2433,379.6467,57,74,0
379.2433,379.6467,45,62,0
380.45355,380.85696,58,74,0
380.45355,380.85696,46,62,0
381.6638,382.0672,59,74,0
381.6638,382.0672,47,62,0
382.88068,384.0888,48,35,0
382.88068,384.0888,57,42,0
384.0888,385.36267,48,35,0
384.0888,385.36267,58,42,0
385.36267,385.62878,53,35,0
385.36267,385.62878,57,42,0
385.89493,386.09393,45,60,0
386.09393,386.19128,46,66,0
386.28867,386.38602,55,61,0
386.48337,386.5833,47,61,0
386.68326,386.7806,48,66,0
386.87796,386.9753,57,61,0
387.07266,387.1713,49,61,0
387.26993,387.36728,50,66,0
387.46463,387.56198,58,61,0
387.65933,387.7586,52,61,0
388.44202,389.01627,64,28,0
388.44202,389.01627,58,28,0
388.44202,389.01627,60,28,0
388.44202,389.01627,67,34,0
389.01627,389.21097,65,49,0
389.01627,389.21097,57,41,0
389.01627,389.21097,60,41,0
389.62152,390.01093,60,42,0
390.01093,390.22675,61,42,0
390.22675,391.0504,62,47,0
391.84512,392.0438,45,60,0
392.0438,392.14056,46,66,0
392.23737,392.33414,55,61,0
392.4309,392.53027,47,61,0
392.6296,392.72638,48,66,0
392.82318,392.91995,57,61,0
393.01672,393.11606,49,61,0
393.21542,393.31284,50,66,0
393.41025,393.50763,58,61,0
393.60504,393.70505,52,61,0
394.40512,394.98468,67,34,0
394.40512,394.98468,58,28,0
394.40512,394.98468,60,28,0
394.40512,394.98468,64,28,0
394.98468,395.20514,60,41,0
394.98468,395.20514,65,49,0
394.98468,395.20514,57,41,0
395.62283,395.8843,65,41,0
395.62283,395.8843,62,32,0
395.62283,395.8843,58,32,0
396.32922,396.95978,57,32,0
396.95978,397.6452,58,28,0
396.32922,397.6452,48,27,0
397.8506,398.04654,57,24,0
398.04654,398.24252,60,24,0
397.6452,398.24252,53,28,0
398.4398,398.63705,55,26,0
398.63705,398.83966,58,26,0
398.24252,398.83966,53,28,0
399.03693,399.2342,57,24,0
399.2342,399.43542,60,24,0
398.83966,399.43542,53,28,0
399.6327,399.82993,55,24,0
399.82993,400.03723,58,24,0
399.43542,400.03723,53,28,0
400.23892,400.44064,57,24,0
400.44064,400.66498,60,24,0
400.03723,400.66498,53,28,0
400.87225,401.12653,57,24,0
401.12653,401.4924,60,24,0
400.66498,401.4924,53,28,0
401.4924,402.74255,41,23,0
401.4924,402.74255,53,28,0
403.3676,403.7529,36,59,0
403.3676,403.7529,48,70,0
403.3676,403.7529,39,59,0
403.3676,403.7529,43,59,0
406.28787,406.39062,51,70,0
406.48615,406.5817,50,66,0
406.67725,406.7728,51,66,0
406.87433,406.97003,53,70,0
407.06573,407.16147,51,67,0
407.25717,407.35287,53,67,0
407.45374,407.54883,55,70,0
407.64392,407.739,53,67,0
407.8341,407.92923,55,67,0
408.04395,408.42923,56,74,0
408.42923,408.52557,55,67,0
408.6292,409.01202,56,74,0
409.01202,409.10773,55,66,0
409.21066,409.41003,54,44,0
409.40207,409.59348,55,38,0
409.59348,409.79288,54,55,0
409.78488,409.98257,55,60,0
409.98257,410.18152,56,63,0
410.17358,410.3727,55,47,0
410.3727,410.57166,54,47,0
410.5637,410.75467,55,42,0
410.75467,410.9536,54,59,0
410.94568,411.14246,55,53,0
411.14246,411.3414,56,64,0
411.33344,411.53256,55,41,0
411.6362,411.7342,54,42,0
411.7342,411.83218,57,44,0
411.83218,411.93018,60,46,0
411.93018,412.03357,62,48,0
413.8999,414.09927,55,44,0
414.0913,414.2827,56,38,0
414.2827,414.48212,55,55,0
414.47412,414.6718,56,55,0
414.6718,414.87076,58,63,0
414.86282,415.06195,56,47,0
415.06195,415.2609,55,47,0
415.25293,415.4439,56,42,0
415.4439,415.64285,55,59,0
415.6349,415.8317,56,53,0
415.8317,416.03064,58,64,0
416.02267,416.2218,56,41,0
416.32544,416.42343,55,42,0
416.42343,416.52142,59,44,0
416.52142,416.61942,62,46,0
416.61942,416.7228,65,48,0
418.58914,418.7885,60,44,0
418.78055,418.97195,59,38,0
418.97195,419.17136,60,45,0
419.16336,419.36105,61,54,0
419.36105,419.56,60,49,0
419.55203,419.7512,59,44,0
419.7512,419.95013,60,47,0
419.94217,420.13315,59,42,0
420.13315,420.3321,60,48,0
420.32413,420.52094,61,51,0
420.52094,420.71988,60,46,0
420.7119,420.91104,59,41,0
421.01468,421.11267,48,42,0
421.11267,421.21066,52,44,0
421.21066,421.30865,55,46,0
421.30865,421.41205,58,48,0
423.27838,423.47775,57,44,0
423.4698,423.6612,58,38,0
423.6612,423.8606,57,55,0
423.8526,424.0503,58,55,0
424.0503,424.24924,59,63,0
424.24127,424.44043,58,47,0
424.44043,424.63937,57,47,0
424.6314,424.8224,58,42,0
424.8224,425.02133,57,59,0
425.01337,425.21017,58,53,0
425.21017,425.40912,59,64,0
425.40115,425.60028,58,41,0
425.70392,425.8019,57,42,0
425.8019,425.8999,60,44,0
425.8999,425.9979,63,46,0
425.9979,426.1013,65,48,0
427.98468,428.17938,58,29,0
428.17938,428.37408,62,25,0
428.37408,428.5688,65,25,0
428.5688,428.76352,57,30,0
428.76352,428.95822,60,26,0
428.95822,429.15897,65,26,0
429.15897,429.35367,55,30,0
429.35367,429.54837,58,27,0
429.54837,429.73935,63,27,0
429.73935,429.9322,54,29,0
429.9322,430.12564,57,25,0
430.12564,430.32367,62,25,0
430.32367,430.51837,55,32,0
430.51837,430.71182,58,25,0
430.71182,430.90717,63,25,0
430.90717,431.10187,53,31,0
431.10187,431.29657,57,27,0
431.29657,431.49454,62,27,0
431.49454,431.68924,51,37,0
431.68924,431.8827,55,32,0
431.8827,432.08,60,32,0
432.08,432.2747,50,34,0
432.2747,432.4694,53,28,0
432.4694,432.66873,58,24,0
432.66873,432.86542,48,32,0
432.86542,433.0614,55,27,0
433.0614,433.25735,58,27,0
433.25735,433.45334,53,33,0
433.45334,433.64554,57,29,0
433.64554,433.84296,60,29,0
433.84296,434.03894,46,36,0
434.03894,434.2349,53,31,0
434.2349,434.43088,58,29,0
434.43088,434.6295,54,33,0
434.6295,434.83157,58,33,0
434.83157,435.02756,61,33,0
435.02756,435.22894,51,39,0
435.22894,435.42493,54,35,0
435.42493,435.62088,58,36,0
435.62088,435.81686,52,45,0
435.81686,436.01285,55,38,0
436.01285,436.21295,61,39,0
436.21295,436.41556,53,47,0
436.41556,436.61813,57,40,0
436.61813,436.82074,60,40,0
436.82074,437.02332,53,48,0
437.02332,437.22592,51,42,0
437.22592,437.42853,48,43,0
437.42853,437.81793,46,49,0
437.42853,437.81793,58,58,0
438.01263,438.40204,57,58,0
438.01263,438.40204,45,49,0
438.60278,439.56946,55,58,0
438.60278,439.56946,43,49,0
439.56946,439.7675,42,48,0
439.56946,439.7675,54,57,0
439.7675,440.15564,43,48,0
439.7675,440.15564,55,57,0
440.35098,440.7404,53,57,0
440.35098,440.7404,41,48,0
440.9384,441.91324,39,39,0
440.9384,441.91324,51,47,0
441.91324,442.11258,50,42,0
441.91324,442.11258,38,35,0
442.11258,442.2112,48,51,0
442.2112,442.30984,55,44,0
442.30984,442.40848,58,44,0
442.7113,442.80994,54,51,0
442.80994,442.90857,57,42,0
442.90857,443.0072,60,44,0
443.31003,443.40866,55,51,0
443.40866,443.5073,58,42,0
443.5073,443.60593,62,42,0
443.90878,444.00677,51,57,0
444.00677,444.10474,55,49,0
444.10474,444.20273,60,49,0
444.5028,444.60144,41,63,0
444.60144,444.70007,50,56,0
444.70007,444.7987,53,56,0
445.10156,445.20084,41,70,0
445.20084,445.30023,48,61,0
445.30023,445.40237,53,61,0
445.75064,446.5397,34,72,0
446.5397,446.73697,38,42,0
446.73697,446.93423,41,44,0
447.1315,447.32877,50,48,0
447.32877,447.52603,53,50,0
447.52603,447.7233,58,52,0
446.93423,448.1226,46,46,0
448.1226,449.2987,51,45,0
449.2987,450.47626,54,45,0
448.1226,450.47626,48,45,0
448.1226,450.47626,45,45,0
450.47626,452.90106,46,45,0
450.47626,452.90106,50,45,0
450.47626,452.90106,55,45,0
452.90106,453.30353,58,26,0
452.90106,453.30353,61,33,0
453.51318,453.913,58,26,0
453.51318,453.913,61,33,0
454.11978,454.51956,60,33,0
454.11978,454.51956,58,26,0
454.72214,455.12195,58,26,0
454.72214,455.12195,60,33,0
455.33014,457.73578,56,60,0
455.33014,457.73578,44,50,0
457.93567,458.13422,64,41,0
458.13422,458.3328,65,41,0
458.3328,458.53137,68,45,0
458.53137,458.72995,64,41,0
458.72995,458.93253,65,41,0
457.73578,458.93253,62,45,0
458.93253,459.13242,68,54,0
459.13242,459.3323,64,42,0
459.3323,459.53223,65,42,0
459.53223,459.73212,68,52,0
459.73212,459.932,67,47,0
459.932,460.1388,65,52,0
458.93253,460.1388,61,45,0
460.1388,460.54272,60,58,0
460.1388,460.54272,48,49,0
460.7413,461.14532,48,49,0
460.7413,461.14532,60,58,0
461.3426,461.74377,60,57,0
461.3426,461.74377,48,49,0
461.94232,462.3435,48,49,0
461.94232,462.3435,60,57,0
462.54208,462.946,60,57,0
462.54208,462.946,48,49,0
463.1446,463.55817,48,48,0
463.1446,463.55817,60,56,0
463.78192,463.88254,36,72,0
463.98315,464.08377,40,60,0
464.1844,464.285,43,60,0
464.38562,464.48624,48,69,0
464.58685,464.68747,52,60,0
464.7881,464.89148,55,60,0
464.99466,465.19525,60,69,0
468.57166,468.68234,60,59,0
468.67227,468.78268,61,60,0
468.77267,468.88245,62,62,0
468.8726,468.98108,60,63,0
468.97122,469.08017,58,62,0
469.07022,469.17947,57,60,0
469.1697,469.27686,55,59,0
469.26715,469.37335,57,61,0
469.36374,469.469,58,62,0
469.4595,469.56445,57,61,0
469.5549,469.66095,55,59,0
469.65125,469.75845,53,57,0
469.74863,469.85666,52,58,0
469.84683,469.9545,53,60,0
469.94473,470.05167,55,62,0
470.04205,470.14832,53,61,0
470.1386,470.2457,52,61,0
470.23593,470.34402,50,60,0
470.33414,470.44217,48,59,0
470.43243,470.53888,50,60,0
470.5293,470.63412,48,61,0
470.62466,470.72934,46,61,0
470.71976,470.8261,45,60,0
470.81635,470.91592,43,58,0
470.91592,471.3012,41,59,0
470.91592,471.3012,53,70,0
470.91592,471.3012,45,59,0
470.91592,471.3012,48,59,0
473.83618,473.9377,57,70,0
474.03342,474.12912,55,66,0
474.22482,474.32053,57,66,0
474.42206,474.5178,58,70,0
474.6135,474.7092,57,67,0
474.8049,474.9006,58,67,0
475.00146,475.09656,60,70,0
475.19165,475.28674,58,67,0
475.38187,475.47696,60,67,0
475.5917,475.97696,61,74,0
475.97696,476.0733,60,67,0
476.17694,476.55975,61,74,0
476.55975,476.65546,60,66,0
476.77832,476.87405,59,47,0
476.96976,477.06546,59,47,0
477.16116,477.25687,59,47,0
477.3605,477.57068,60,50,0
477.99106,478.37634,41,59,0
477.99106,478.37634,45,59,0
477.99106,478.37634,48,59,0
477.99106,478.37634,53,70,0
480.91132,481.01355,57,70,0
481.10925,481.20496,55,66,0
481.30066,481.39636,57,66,0
481.49792,481.59363,58,70,0
481.68933,481.78503,57,67,0
481.88074,481.97644,58,67,0
482.0773,482.1724,60,70,0
482.2675,482.3626,58,67,0
482.4577,482.5528,60,67,0
482.66754,483.05283,61,74,0
483.05283,483.14914,60,67,0
483.25278,483.6356,61,74,0
483.6356,483.73132,60,66,0
483.83423,483.95227,59,36,0
484.49188,484.6081,58,36,0
485.155,485.2712,57,35,0
485.80676,485.90628,46,58,0
485.90628,486.0058,58,61,0
486.40384,487.02625,48,45,0
486.40384,487.02625,58,57,0
486.40384,487.02625,52,45,0
487.02625,487.22528,57,51,0
487.02625,487.22528,53,40,0
487.63272,487.83176,48,41,0
487.83176,487.93127,58,24,0
487.83176,487.93127,60,31,0
488.0308,488.1303,58,24,0
488.0308,488.1303,60,31,0
488.22983,488.32935,58,24,0
488.22983,488.32935,60,31,0
488.42886,488.52838,58,24,0
488.42886,488.52838,60,31,0
488.6279,488.72742,58,24,0
488.6279,488.72742,60,31,0
488.83554,489.03455,53,41,0
489.03455,489.13406,60,31,0
489.03455,489.13406,57,24,0
489.23358,489.3331,60,31,0
489.23358,489.3331,57,24,0
489.43262,489.53214,57,24,0
489.43262,489.53214,60,31,0
489.63165,489.73117,57,24,0
489.63165,489.73117,60,31,0
489.8307,489.9302,57,24,0
489.8307,489.9302,60,31,0
490.0407,490.23975,48,41,0
490.23975,490.33926,60,31,0
490.23975,490.33926,55,24,0
490.43878,490.5383,60,31,0
490.43878,490.5383,55,24,0
490.63782,490.73734,60,31,0
490.63782,490.73734,55,24,0
490.83685,490.93637,60,31,0
490.83685,490.93637,55,24,0
491.03586,491.13538,60,31,0
491.03586,491.13538,55,24,0
491.2528,491.45184,53,41,0
491.45184,491.55136,60,31,0
491.45184,491.55136,57,24,0
491.65088,491.7504,60,31,0
491.65088,491.7504,57,24,0
491.8499,491.94943,60,31,0
491.8499,491.94943,57,24,0
492.04895,492.14847,60,31,0
492.04895,492.14847,57,24,0
492.248,492.3475,60,31,0
492.248,492.3475,57,24,0
492.45172,492.65073,48,41,0
492.65073,492.75024,58,24,0
492.65073,492.75024,60,31,0
492.84976,492.94928,58,24,0
492.84976,492.94928,60,31,0
493.0488,493.14832,58,24,0
493.0488,493.14832,60,31,0
493.24783,493.34735,58,24,0
493.24783,493.34735,60,31,0
493.44687,493.5464,60,31,0
493.44687,493.5464,58,24,0
493.6545,493.85355,53,41,0
493.85355,493.95306,60,31,0
493.85355,493.95306,57,24,0
494.05258,494.15207,60,31,0
494.05258,494.15207,57,24,0
494.2516,494.3511,57,24,0
494.2516,494.3511,60,31,0
494.45062,494.55014,57,24,0
494.45062,494.55014,60,31,0
494.64966,494.74918,57,24,0
494.64966,494.74918,60,31,0
494.8487,495.04773,48,41,0
495.04773,495.14725,60,31,0
495.04773,495.14725,55,24,0
495.24677,495.34628,55,24,0
495.24677,495.34628,60,31,0
495.4458,495.54532,60,31,0
495.4458,495.54532,58,24,0
495.6448,495.74432,58,24,0
495.6448,495.74432,60,31,0
495.84384,495.9408,60,31,0
495.84384,495.9408,58,24,0
496.03775,496.23676,57,32,0
496.03775,496.23676,53,32,0
496.03775,496.23676,60,41,0
496.63483,497.23193,61,62,0
496.63483,497.23193,55,52,0
496.63483,497.23193,51,52,0
497.23193,497.82764,50,57,0
497.23193,497.82764,54,57,0
497.23193,497.82764,62,68,0
498.42334,499.01907,62,74,0
498.42334,499.01907,50,63,0
499.01907,499.61478,60,74,0
499.01907,499.61478,48,63,0
499.61478,500.21048,58,74,0
499.61478,500.21048,46,63,0
500.21048,500.8395,57,74,0
500.21048,500.8395,45,63,0
500.8395,501.0381,55,59,0
501.0381,501.23154,58,54,0
501.23154,501.4369,62,54,0
501.4369,501.63416,54,59,0
501.63416,501.82635,57,54,0
501.82635,502.0276,62,54,0
502.0276,502.22357,55,59,0
502.22357,502.41956,58,54,0
502.41956,502.6208,62,54,0
502.6208,502.81677,53,59,0
502.81677,503.00897,59,53,0
503.00897,503.2102,62,53,0
503.2102,503.60474,52,58,0
504.39255,504.9896,72,54,0
504.9896,505.58536,72,52,0
504.9896,505.58536,70,44,0
505.58536,506.18112,69,40,0
505.58536,506.18112,72,47,0
506.18112,506.7835,67,39,0
506.18112,506.7835,72,46,0
506.18112,506.7835,70,39,0
506.7835,506.88345,65,44,0
506.9834,507.08334,69,37,0
507.1833,507.28323,72,37,0
507.38593,507.4852,64,43,0
507.5845,507.68378,67,37,0
507.78308,507.88235,72,37,0
507.98575,508.18433,65,46,0
507.98575,508.18433,72,46,0
507.98575,508.18433,69,46,0
509.18127,509.28055,46,49,0
509.37985,509.47913,58,40,0
509.77698,509.88184,52,48,0
509.9811,510.08038,64,43,0
510.38095,510.48022,45,50,0
510.57953,510.6788,57,43,0
510.97665,511.08148,50,47,0
511.1808,511.28006,62,40,0
511.5779,511.67722,43,45,0
511.7765,511.87576,45,47,0
511.97507,512.07434,46,49,0
512.17365,512.27844,48,51,0
512.37775,512.47705,50,53,0
512.57635,512.6756,52,55,0
512.7749,512.8742,53,57,0
513.1701,513.26874,45,49,0
513.3674,513.47217,46,59,0
513.76807,513.8667,47,50,0
513.966,514.06464,48,56,0
514.656,514.7654,62,57,0
514.7554,514.86615,60,56,0
514.856,514.96814,58,55,0
514.9579,515.07544,57,52,0
515.06116,515.2039,55,51,0
515.2039,515.40295,53,41,0
515.40295,515.602,56,31,0
515.602,515.801,60,31,0
515.801,516.00006,53,37,0
516.00006,516.1973,56,31,0
516.1973,516.40405,60,31,0
516.40405,516.6031,52,41,0
516.6031,516.8021,55,31,0
516.8021,517.00116,60,31,0
517.00116,517.2002,52,36,0
517.2002,517.39923,55,31,0
517.39923,517.60925,60,31,0
517.60925,517.8083,52,41,0
517.8083,518.0073,55,31,0
518.0073,518.20636,58,31,0
518.20636,518.4054,52,37,0
518.4054,518.60266,55,31,0
518.60266,518.8094,60,31,0
518.8094,519.0084,53,41,0
519.0084,519.2124,56,31,0
519.2124,519.43134,60,31,0
519.43134,519.6299,53,36,0
519.6299,519.8284,56,31,0
519.8284,520.03827,60,31,0
520.03827,520.2395,56,47,0
520.2395,520.44073,60,36,0
520.44073,520.64197,65,36,0
520.64197,520.8432,55,44,0
520.8432,521.04443,58,32,0
521.04443,521.24567,63,33,0
521.24567,521.4469,53,48,0
521.4469,521.64813,56,36,0
521.64813,521.84937,61,36,0
521.84937,522.0506,51,45,0
522.0506,522.25183,55,31,0
522.25183,522.45306,60,31,0
522.45306,522.6543,49,46,0
522.6543,522.8555,53,35,0
522.8555,523.05676,58,35,0
523.05676,523.258,49,43,0
523.258,523.4592,53,36,0
523.4592,523.66046,59,34,0
523.66046,523.8617,48,43,0
523.8617,524.0629,53,29,0
524.0629,524.26416,60,30,0
524.26416,524.4654,48,39,0
524.4654,524.6666,52,27,0
524.6666,524.86786,60,27,0
524.86786,525.0669,53,41,0
525.0669,525.2659,56,31,0
525.2659,525.46497,60,31,0
525.46497,525.664,53,37,0
525.664,525.86127,56,31,0
525.86127,526.068,60,31,0
526.068,526.267,52,41,0
526.267,526.46606,55,31,0
526.46606,526.6651,60,31,0
526.6651,526.86414,52,36,0
526.86414,527.0632,55,31,0
527.0632,527.2732,60,31,0
527.2732,527.4722,52,41,0
527.4722,527.67126,55,31,0
527.67126,527.8703,58,31,0
527.8703,528.06934,52,37,0
528.06934,528.2666,55,31,0
528.2666,528.4733,60,31,0
528.4767,528.6758,51,41,0
528.67236,528.87634,54,31,0
528.87634,529.0952,57,31,0
529.0952,529.2938,50,36,0
529.2938,529.4924,53,31,0
529.4924,529.70215,58,31,0
529.70215,529.9034,49,57,0
529.9034,530.1046,53,46,0
530.1046,530.30585,56,47,0
530.30585,530.50714,48,55,0
530.50714,530.7084,53,46,0
530.7084,530.9096,56,46,0
530.9096,531.11084,46,59,0
531.11084,531.3121,52,39,0
531.3121,531.5133,55,39,0
531.5133,531.7174,44,45,0
531.7174,531.9174,48,31,0
531.9174,532.11743,53,31,0
532.11743,532.31744,48,45,0
532.31744,532.51746,53,30,0
532.51746,532.71747,56,30,0
532.71747,532.9175,48,38,0
532.9175,533.1175,55,31,0
533.1175,533.3333,58,31,0
533.3333,533.72656,57,67,0
533.3333,533.72656,53,67,0
533.9313,534.0286,55,67,0
534.126,534.22205,52,62,0
534.3182,534.41833,48,62,0
534.5189,534.9114,53,67,0
535.1161,535.21405,55,67,0
535.3121,535.40753,52,62,0
535.50305,535.6031,48,62,0
535.70374,536.0962,53,67,0
536.3009,536.397,67,67,0
536.4931,536.58923,64,62,0
536.6853,536.78546,60,62,0
536.88605,537.2785,65,67,0
537.4832,537.57935,67,67,0
537.6754,537.77155,64,62,0
537.8676,537.9678,60,62,0
538.06836,538.4608,65,67,0
540.60205,540.81793,50,49,0
540.79803,541.01624,53,52,0
540.99664,541.2122,56,54,0
541.1926,541.40857,55,49,0
541.38855,541.7911,53,49,0
541.7911,542.0055,52,47,0
541.9858,542.2025,55,49,0
542.18304,542.3972,61,54,0
542.37775,542.5924,60,49,0
542.57245,542.7925,58,49,0
542.77234,542.9736,57,38,0
543.363,543.5642,58,40,0
543.9629,544.5666,69,40,0
544.5666,545.1912,70,40,0
543.9629,545.1912,60,34,0
545.1912,545.5837,65,67,0
545.1912,545.5837,69,67,0
545.7884,545.88745,55,67,0
545.9861,546.08246,52,62,0
546.1786,546.2787,48,62,0
546.37933,546.7718,53,67,0
546.9765,547.07556,55,67,0
547.1742,547.27057,52,62,0
547.3667,547.4668,48,62,0
547.56744,547.95984,53,67,0
548.1646,548.2637,67,67,0
548.3623,548.4587,64,62,0
548.55475,548.6549,60,62,0
548.7555,549.14795,65,67,0
549.35266,549.4517,67,67,0
549.55035,549.6468,64,62,0
549.74286,549.843,60,62,0
549.9436,550.33673,65,67,0
552.4575,552.67334,50,49,0
552.6535,552.87164,53,52,0
552.85205,553.0676,56,54,0
553.04803,553.26404,55,49,0
553.244,553.6465,53,49,0
553.6465,553.86096,52,47,0
553.8412,554.0579,55,49,0
554.03845,554.2526,61,54,0
554.23315,554.4479,60,49,0
554.42786,554.6479,58,49,0
554.62775,554.82904,57,38,0
555.21844,555.4197,58,40,0
555.8183,556.42206,69,40,0
555.8183,556.42206,60,34,0
556.42206,557.0553,67,40,0
556.42206,557.0553,58,32,0
557.0553,557.2607,57,64,0
557.2607,557.4592,60,53,0
557.4592,557.66425,65,53,0
557.66425,557.8668,58,61,0
557.8668,558.06537,62,53,0
558.06537,558.2665,67,50,0
558.2665,558.4677,60,38,0
558.4677,558.66895,65,34,0
558.66895,558.8702,69,34,0
558.8702,559.07837,60,39,0
559.07837,559.2866,67,33,0
559.2866,559.4948,70,33,0
559.4948,559.9016,65,56,0
559.4948,559.9016,69,66,0
560.0963,560.4857,64,66,0
560.0963,560.4857,60,56,0
560.0963,560.4857,70,66,0
560.6917,561.09717,69,66,0
560.6917,561.09717,65,56,0
561.29193,561.68134,64,56,0
561.29193,561.68134,60,56,0
561.29193,561.68134,70,66,0
561.88654,562.28644,53,56,0
561.88654,562.28644,57,66,0
562.48114,562.87054,58,66,0
562.48114,562.87054,52,56,0
562.48114,562.87054,48,56,0
563.0758,563.1764,41,70,0
563.27704,563.3776,45,63,0
563.4783,563.57886,48,63,0
563.6795,563.7801,53,70,0
563.88074,563.9813,57,64,0
564.082,564.18256,60,64,0
564.2832,564.4835,65,74,0
564.8843,565.285,53,62,0
564.8843,565.285,65,74,0
565.48535,565.88873,57,74,0
565.48535,565.88873,45,62,0
566.6956,567.099,58,74,0
566.6956,567.099,46,62,0
567.9058,568.30927,59,74,0
567.9058,568.30927,47,62,0
569.1161,570.32635,48,35,0
569.1161,570.32635,57,42,0
570.32635,571.60126,48,35,0
570.32635,571.60126,58,42,0
571.60126,571.8674,53,35,0
571.60126,571.8674,57,42,0
572.1335,572.3325,45,60,0
572.3325,572.4299,46,66,0
572.5272,572.6246,55,61,0
572.7219,572.8219,47,61,0
572.9218,573.01917,48,66,0
573.1165,573.21387,57,61,0
573.3112,573.40985,49,61,0
573.5085,573.60583,50,66,0
573.7032,573.80054,58,61,0
573.8979,573.9972,52,61,0
574.6806,575.2548,64,28,0
574.6806,575.2548,58,28,0
574.6806,575.2548,60,28,0
574.6806,575.2548,67,34,0
575.2548,575.4495,65,49,0
575.2548,575.4495,57,41,0
575.2548,575.4495,60,41,0
575.86487,576.2543,60,42,0
576.2543,576.4655,61,42,0
576.4655,577.28064,62,47,0
578.0753,578.274,45,60,0
578.274,578.3714,46,66,0
578.4688,578.5662,55,61,0
578.66364,578.7623,47,61,0
578.861,578.9578,48,66,0
579.05457,579.15137,57,61,0
579.24817,579.34686,49,61,0
579.44556,579.5423,50,66,0
579.6391,579.7359,58,61,0
579.83264,579.93134,52,61,0
580.6222,581.1991,67,34,0
580.6222,581.1991,58,28,0
580.6222,581.1991,60,28,0
580.6222,581.1991,64,28,0
581.1991,581.41956,60,41,0
581.1991,581.41956,65,49,0
581.1991,581.41956,57,41,0
581.8373,582.09875,65,41,0
581.8373,582.09875,62,32,0
581.8373,582.09875,58,32,0
582.5457,583.1763,57,32,0
583.1763,583.8617,58,28,0
582.5457,583.8617,48,27,0
584.067,584.263,57,24,0
584.263,584.459,60,24,0
583.8617,584.459,53,28,0
584.65625,584.8535,55,26,0
584.8535,585.0561,58,26,0
584.459,585.0561,53,28,0
585.25336,585.4506,57,24,0
585.4506,585.65186,60,24,0
585.0561,585.65186,53,28,0
585.8491,586.0464,55,24,0
586.0464,586.2537,58,24,0
585.65186,586.2537,53,28,0
586.4554,586.6571,57,24,0
586.6571,586.8815,60,24,0
586.2537,586.8815,53,28,0
587.09576,587.36847,57,24,0
587.36847,587.80585,60,24,0
586.8815,587.80585,53,28,0
587.80585,589.9264,41,23,0
587.80585,589.9264,53,28,0
