start_time,end_time,note_value,velocity,instrument_program_number
0.0,0.749298,70,50,0
0.749298,1.162663,65,45,0
1.162663,1.905007,62,50,0
1.905007,2.311373,65,48,0
2.311373,3.056021,70,52,0
3.056021,3.451669,74,54,0
3.451669,4.198635,77,57,0
4.198635,4.384221,82,58,0
4.384221,4.569807,74,51,0
4.569807,4.7578917,77,56,0
4.748858,4.93856,75,52,0
4.9295263,5.1192284,74,51,0
5.110195,5.2998967,72,49,0
5.2908635,5.48084,70,48,0
5.471532,5.657694,69,47,0
5.657694,5.846826,67,50,0
5.83782,6.0275507,65,44,0
6.01849,6.2087646,64,44,0
6.199704,6.389979,65,45,0
6.380918,6.5714984,67,47,0
6.562132,6.7494564,69,50,0
6.7494564,6.79487,70,50,0
6.8856964,6.9311094,72,45,0
6.9311094,7.021936,70,49,0
7.021936,7.1127625,69,46,0
7.1127625,7.158176,70,50,0
7.2944155,7.339829,72,47,0
7.4760685,7.5214815,74,49,0
7.6577215,7.7059064,75,51,0
7.8504615,8.042359,76,53,0
8.033221,8.225208,77,50,0
8.215981,8.409627,79,55,0
8.400539,8.582302,77,50,0
8.582302,8.764065,82,59,0
8.764065,8.956188,74,50,0
8.956188,9.150453,77,57,0
9.141202,9.3353815,75,55,0
9.326216,9.5187,74,53,0
9.509534,9.702018,72,51,0
9.692852,9.885566,70,49,0
9.87617,10.064081,69,47,0
10.064081,10.258346,67,50,0
10.249095,10.443303,65,43,0
10.434109,10.627183,64,50,0
10.617989,10.811063,65,43,0
10.801869,10.995145,67,50,0
10.985749,11.17366,69,45,0
11.17366,11.2658825,70,50,0
11.54255,11.639231,70,48,0
11.929273,12.036302,74,48,0
12.357386,12.733208,70,50,0
13.015075,13.062053,70,44,0
13.10903,13.208637,72,50,0
13.199582,13.29919,70,43,0
13.290134,13.391202,69,45,0
13.380687,13.494977,70,42,0
13.485839,13.851358,79,56,0
14.1332245,14.1802025,70,44,0
14.2271805,14.327089,72,50,0
14.3180065,14.417916,70,43,0
14.4088335,14.510175,69,45,0
14.49966,14.613813,70,42,0
14.604813,14.9648485,77,55,0
15.246715,15.293693,70,44,0
15.340671,15.444021,72,50,0
15.434626,15.537977,70,43,0
15.528582,15.633052,69,45,0
15.622537,15.736799,70,42,0
15.727689,16.092098,72,52,0
16.092098,16.46792,77,49,0
16.46792,16.854643,75,48,0
16.854643,17.229292,73,55,0
17.229292,17.431108,74,49,0
17.532017,17.578995,70,44,0
17.625973,17.72558,72,50,0
17.716524,17.816132,70,43,0
17.807077,17.908144,69,45,0
17.897629,18.011919,70,42,0
18.00278,18.368301,79,56,0
18.650167,18.697145,70,44,0
18.744123,18.844032,72,50,0
18.83495,18.934858,70,43,0
18.925776,19.027117,69,45,0
19.016602,19.130756,70,42,0
19.121756,19.48179,77,55,0
19.763657,19.810635,70,44,0
19.857613,19.960964,72,50,0
19.951569,20.05492,70,43,0
20.045525,20.149994,69,45,0
20.139479,20.253742,70,42,0
20.24463,20.609041,72,52,0
20.609041,20.984863,75,49,0
20.984863,21.377918,69,48,0
21.377918,21.743437,70,55,0
22.474476,22.570538,79,77,0
22.474476,22.570538,70,64,0
22.474476,22.570538,74,64,0
22.858723,22.952972,67,64,0
23.612728,23.70972,74,75,0
23.612728,23.70972,66,63,0
23.612728,23.70972,69,63,0
24.0007,24.09525,62,67,0
24.757082,25.50173,63,43,0
25.50173,25.60412,65,36,0
25.594812,25.69772,63,36,0
25.687893,25.795982,62,36,0
25.786158,25.88442,63,36,0
25.88442,26.070007,72,42,0
26.070007,26.255592,70,37,0
26.255592,26.626764,70,43,0
26.626764,27.015995,70,38,0
27.015995,27.212542,70,39,0
27.20332,27.396988,75,45,0
27.387766,27.581432,74,44,0
27.57221,27.765877,73,42,0
27.756655,27.951025,72,40,0
27.941101,28.148888,71,38,0
28.139578,28.511902,70,41,0
29.25655,30.001198,63,45,0
30.001198,30.103588,65,42,0
30.09428,30.197187,63,39,0
30.18736,30.29545,62,42,0
30.285625,30.383888,63,40,0
30.383888,30.578754,72,54,0
30.569475,30.75506,71,48,0
30.75506,31.126232,71,53,0
31.126232,31.515463,71,47,0
31.515463,31.712011,72,50,0
31.702787,31.896456,79,58,0
31.887234,32.080902,75,56,0
32.07168,32.265347,74,54,0
32.256123,32.450493,72,51,0
32.440567,32.648354,70,49,0
32.639046,33.01137,69,50,0
33.75602,33.952564,70,59,0
33.943344,34.13701,86,62,0
34.12779,34.321457,82,61,0
34.312233,34.5059,81,60,0
34.496677,34.691048,79,58,0
34.68112,34.88891,77,57,0
34.8796,35.251926,76,62,0
35.996574,36.19312,77,52,0
36.1839,36.377567,81,58,0
36.368343,36.56201,77,56,0
36.552788,36.746456,76,55,0
36.737232,36.931602,74,53,0
36.921677,37.129463,72,51,0
37.120155,37.49248,71,56,0
38.3354,38.43154,72,46,0
38.43154,38.527378,71,49,0
38.527378,38.622765,72,44,0
38.622765,38.717842,74,49,0
38.717842,38.812542,72,44,0
38.812542,38.906948,71,49,0
38.906948,39.00098,72,44,0
39.09465,39.1883,72,49,0
39.1883,39.281673,76,54,0
39.281673,39.375034,72,49,0
39.468113,39.561195,72,53,0
39.561195,39.654278,77,57,0
39.654278,39.747356,72,52,0
39.84044,39.93352,72,55,0
39.93352,40.0266,82,61,0
40.0266,40.119682,72,57,0
40.21276,40.305843,72,57,0
40.305843,40.405083,81,64,0
40.405083,40.504322,72,57,0
40.504322,40.598736,79,65,0
40.598736,40.69182,76,60,0
40.69182,40.7849,74,65,0
40.7849,40.87798,72,60,0
40.87798,40.97106,71,57,0
40.97106,41.064144,72,59,0
41.064144,41.157223,74,60,0
41.157223,41.25129,72,56,0
41.347073,41.442757,72,49,0
41.442757,41.538204,76,53,0
41.538204,41.633434,72,49,0
41.72851,41.823357,72,52,0
41.823357,41.91806,77,58,0
41.91806,42.012608,72,54,0
42.106865,42.20097,72,55,0
42.20097,42.294926,82,61,0
42.294926,42.388367,72,55,0
42.481655,42.574734,72,49,0
42.574734,42.67173,81,68,0
42.67173,42.767452,72,62,0
42.767452,42.860245,79,73,0
42.860245,42.953037,84,62,0
42.953037,43.04583,79,69,0
43.04583,43.138557,76,57,0
43.138557,43.2312,72,67,0
43.2312,43.324345,79,55,0
43.324345,43.41793,76,61,0
43.41793,43.512024,72,54,0
43.512024,43.60656,67,63,0
43.60656,43.701553,72,55,0
43.701553,43.797146,67,65,0
43.797146,43.900845,64,59,0
43.900845,44.001415,60,85,0
44.303123,44.747074,72,73,0
44.303123,44.747074,64,62,0
44.303123,44.747074,67,62,0
47.68856,47.73439,84,45,0
47.87188,47.91771,84,49,0
48.0552,48.10103,84,43,0
48.238514,48.28797,84,46,0
48.43634,48.485794,84,40,0
48.634163,48.830242,86,45,0
48.820904,49.016983,84,40,0
49.007645,49.203724,82,43,0
49.19439,49.390526,81,40,0
49.38113,49.57871,79,45,0
49.56904,49.7624,77,39,0
49.7624,49.81074,77,41,0
49.81074,49.85908,79,39,0
49.85908,49.955765,77,49,0
49.955765,50.136845,76,44,0
50.14309,50.51774,76,46,0
52.265972,52.311802,82,45,0
52.44929,52.49512,82,48,0
52.63261,52.67844,82,42,0
52.81593,52.865383,82,44,0
53.013752,53.06321,82,40,0
53.211575,53.407654,84,45,0
53.398315,53.594395,82,40,0
53.58506,53.781136,81,40,0
53.7718,53.96788,79,40,0
53.95854,54.15565,77,45,0
54.145283,54.35268,76,39,0
54.35268,54.72271,77,47,0
54.907722,55.09962,81,47,0
55.09048,55.282787,79,45,0
55.273243,55.473392,77,40,0
55.46414,55.83417,76,47,0
56.019184,56.211082,86,52,0
56.201942,56.39425,84,47,0
56.3847,56.584824,76,42,0
56.575603,56.944492,77,47,0
57.128937,57.32025,81,47,0
57.311142,57.502953,79,45,0
57.493347,57.69469,77,40,0
57.68547,58.05436,76,47,0
58.238804,58.43012,86,52,0
58.42101,58.61273,84,47,0
58.603214,58.80273,76,42,0
58.79351,59.1624,77,47,0
59.351494,59.541653,84,55,0
59.5326,59.723278,81,53,0
59.713703,59.914436,79,50,0
59.905212,60.2741,78,56,0
60.45855,60.649864,87,58,0
60.64075,60.83256,86,52,0
60.822956,61.024273,78,48,0
61.01508,61.208153,81,56,0
61.19896,61.391895,79,51,0
61.38284,61.57334,84,55,0
61.563946,61.76091,83,51,0
61.751854,61.942413,82,50,0
61.93296,62.131336,81,49,0
62.122055,62.400436,79,54,0
62.400436,62.499676,81,48,0
62.499676,62.880264,77,54,0
62.880264,62.943695,76,50,0
62.943695,63.007126,77,44,0
63.007126,63.07056,76,50,0
63.07056,63.118134,77,44,0
63.118134,63.165707,76,50,0
63.165707,63.21328,74,42,0
63.21328,63.260662,76,45,0
63.260662,63.35403,77,49,0
63.35403,63.447403,72,46,0
63.447403,63.54074,71,49,0
63.54074,63.633823,72,44,0
63.633823,63.726906,74,49,0
63.726906,63.819984,72,44,0
63.819984,63.911087,71,49,0
63.911087,64.00219,72,44,0
64.00219,64.09329,70,49,0
64.09329,64.18447,72,49,0
64.18447,64.27992,69,54,0
64.27992,64.37529,72,49,0
64.37529,64.46866,67,49,0
64.46866,64.562035,72,46,0
64.562035,64.65537,71,49,0
64.65537,64.74845,72,44,0
64.74845,64.84154,74,49,0
64.84154,64.934616,72,44,0
64.934616,65.02572,71,49,0
65.02572,65.11682,72,44,0
65.11682,65.207924,82,49,0
65.207924,65.2991,72,49,0
65.2991,65.39455,82,54,0
65.39455,65.48992,72,49,0
65.48992,65.58329,81,49,0
65.58329,65.67667,72,46,0
65.67667,65.770004,71,49,0
65.770004,65.86308,72,44,0
65.86308,65.95616,74,49,0
65.95616,66.04925,72,44,0
66.04925,66.14035,71,49,0
66.14035,66.23145,72,44,0
66.23145,66.322556,70,49,0
66.322556,66.41373,72,49,0
66.41373,66.50918,69,54,0
66.50918,66.60455,72,49,0
66.60455,66.69792,67,49,0
66.69792,66.79129,72,46,0
66.79129,66.884636,71,49,0
66.884636,66.977715,72,44,0
66.977715,67.07079,74,49,0
67.07079,67.16387,72,44,0
67.16387,67.254974,71,49,0
67.254974,67.34608,72,44,0
67.34608,67.43718,82,49,0
67.43718,67.52836,72,49,0
67.52836,67.62381,82,54,0
67.62381,67.719185,72,49,0
67.719185,67.81255,81,49,0
67.81255,67.90592,72,46,0
67.90592,67.99926,71,49,0
67.99926,68.09235,72,44,0
68.09235,68.185425,74,49,0
68.185425,68.2785,72,44,0
68.2785,68.369606,71,49,0
68.369606,68.46071,72,44,0
68.46071,68.55265,75,49,0
68.55265,68.64464,72,49,0
68.64464,68.74009,70,54,0
68.74009,68.83546,72,49,0
68.83546,68.92883,69,49,0
68.92883,69.0222,74,46,0
69.0222,69.11554,73,49,0
69.11554,69.20862,74,44,0
69.20862,69.30499,76,49,0
69.30499,69.40136,74,44,0
69.40136,69.49246,73,52,0
69.49246,69.583565,74,44,0
69.583565,69.67607,84,55,0
69.67607,69.76861,74,49,0
69.76861,69.864975,84,57,0
69.864975,69.961235,74,49,0
69.961235,70.32904,83,62,0
70.32904,70.69996,82,60,0
70.69996,71.074356,81,57,0
71.074356,71.16715,79,60,0
71.16715,71.25994,86,52,0
71.25994,71.35274,82,52,0
71.35274,71.45264,79,52,0
71.45264,71.54543,77,62,0
71.54543,71.63822,84,52,0
71.63822,71.73102,81,52,0
71.73102,71.82381,77,52,0
71.82381,71.9166,76,62,0
71.9166,72.00939,82,52,0
72.00939,72.10702,79,52,0
72.10702,72.20464,76,52,0
72.20464,72.308975,77,54,0
72.29949,72.40359,81,57,0
72.39434,72.49609,84,61,0
72.48685,72.5886,82,60,0
72.57935,72.68111,81,58,0
72.67186,72.77361,79,56,0
72.764366,72.86667,77,54,0
72.85687,72.964066,76,52,0
72.95482,73.05657,74,55,0
73.047325,73.14908,72,51,0
73.13983,73.242195,70,50,0
73.23234,73.330925,69,50,0
73.330925,73.43493,67,50,0
73.42547,73.529274,70,53,0
73.52002,73.62178,74,56,0
73.612526,73.71429,72,55,0
73.70503,73.80679,70,54,0
73.79754,73.8993,69,53,0
73.890045,73.991806,67,52,0
73.98255,74.08431,65,50,0
74.075066,74.17682,64,49,0
74.16757,74.269325,62,50,0
74.26008,74.36237,60,53,0
74.352585,74.45943,59,56,0
74.45003,74.54398,60,59,0
74.63768,74.73116,72,59,0
74.82435,74.91733,77,61,0
75.01001,75.102516,81,62,0
75.19502,75.28753,84,64,0
75.380035,75.47254,89,65,0
75.571335,75.62031,79,37,0
75.62031,75.66916,81,31,0
75.66916,75.71793,79,37,0
75.71793,75.76655,81,31,0
75.76655,75.81504,79,37,0
75.81504,75.86343,81,32,0
75.86343,75.91173,79,37,0
75.91173,75.95987,81,33,0
75.95987,76.007904,79,37,0
76.007904,76.05582,81,32,0
76.05582,76.10366,79,37,0
76.10366,76.151344,81,32,0
76.151344,76.19892,79,37,0
76.19892,76.246376,81,31,0
76.246376,76.29376,79,37,0
76.29376,76.341,81,33,0
76.341,76.38816,79,37,0
76.38816,76.43548,81,32,0
76.43548,76.49881,79,37,0
76.49881,76.56251,81,32,0
76.56251,76.626495,79,37,0
76.626495,76.67472,77,33,0
76.67472,76.7231,79,33,0
76.7231,77.15231,77,49,0
77.93541,78.31966,82,46,0
78.31966,78.7039,84,50,0
78.7039,79.09567,86,51,0
79.09567,79.6739,84,51,0
79.6739,79.7799,86,48,0
79.77026,79.876274,84,43,0
79.86664,79.97264,82,50,0
79.963005,80.069336,81,48,0
80.05937,80.1689,79,47,0
80.15894,80.258514,77,45,0
80.258514,80.83673,81,48,0
80.83673,81.02947,82,40,0
81.02947,81.42201,79,44,0
81.42201,81.81196,77,46,0
82.58615,82.78077,70,52,0
82.78077,82.97289,82,47,0
82.97289,83.165016,72,54,0
83.165016,83.35714,84,47,0
83.35714,83.54926,74,58,0
83.54926,83.74579,86,52,0
83.74579,83.93853,84,61,0
83.93853,84.04453,86,54,0
84.0349,84.14091,88,58,0
84.13127,84.237274,89,61,0
84.22764,84.33365,88,61,0
84.324005,84.430016,86,60,0
84.42038,84.52638,84,58,0
84.51675,84.62276,82,57,0
84.61312,84.719444,81,55,0
84.70949,84.819016,79,54,0
84.80906,84.90862,77,52,0
84.90862,85.48685,81,62,0
85.48685,85.67959,82,56,0
85.67959,86.07213,79,62,0
86.07213,86.462074,77,67,0
86.558136,86.6542,84,60,0
86.6542,86.759865,86,65,0
86.75026,86.85593,84,60,0
86.84632,86.95199,82,64,0
86.94238,87.04962,81,62,0
87.038445,87.16144,82,60,0
87.15025,87.271965,79,58,0
87.26207,87.652016,77,68,0
87.74808,87.853745,72,60,0
87.84414,87.94981,74,65,0
87.9402,88.04587,72,60,0
88.03626,88.14193,70,64,0
88.132324,88.23957,69,62,0
88.228386,88.35139,70,60,0
88.3402,88.463196,67,58,0
88.45202,88.563835,65,71,0
88.89928,89.34654,77,77,0
88.89928,89.34654,72,59,0
88.89928,89.34654,69,59,0
89.7938,90.5431,70,50,0
90.5431,90.95647,65,45,0
90.95647,91.69881,62,50,0
91.69881,92.10517,65,48,0
92.10517,92.84982,70,52,0
92.84982,93.24547,74,54,0
93.24547,93.99244,77,57,0
93.99244,94.17531,82,58,0
94.17531,94.360435,74,51,0
94.360435,94.55016,77,56,0
94.54111,94.73138,75,52,0
94.72232,94.91259,74,51,0
94.903534,95.0938,72,49,0
95.08475,95.27527,70,48,0
95.26596,95.45212,69,47,0
95.45212,95.64079,67,50,0
95.63171,95.82253,65,44,0
95.81347,96.003746,64,44,0
95.99468,96.18496,65,45,0
96.175896,96.36648,67,47,0
96.35712,96.54444,69,50,0
96.54444,96.58985,70,50,0
96.68068,96.72609,72,45,0
96.72609,96.81692,70,49,0
96.81692,96.907745,69,46,0
96.907745,96.95346,70,50,0
97.090614,97.13676,72,47,0
97.27518,97.32062,74,49,0
97.45694,97.50512,75,51,0
97.64967,97.841576,76,53,0
97.832436,98.02433,77,50,0
98.0152,98.20709,79,55,0
98.19795,98.380714,77,50,0
98.380714,98.56348,82,59,0
98.56348,98.7556,74,50,0
98.7556,98.94986,77,57,0
98.94061,99.13479,75,55,0
99.125626,99.31811,74,53,0
99.308945,99.50143,72,51,0
99.49226,99.684975,70,49,0
99.675575,99.86349,69,47,0
99.86349,100.057755,67,50,0
100.04851,100.242714,65,43,0
100.23352,100.42659,64,50,0
100.4174,100.61047,65,43,0
100.60128,100.794556,67,50,0
100.78516,100.97307,69,45,0
100.97307,101.06451,70,50,0
101.33881,101.43618,70,48,0
101.728294,101.83532,74,48,0
102.15641,102.53223,70,50,0
102.814095,102.86108,70,44,0
102.90805,103.00766,72,50,0
102.998604,103.09821,70,43,0
103.08916,103.19022,69,45,0
103.17971,103.294,70,42,0
103.28486,103.65038,79,56,0
103.93224,103.979225,70,44,0
104.0262,104.126114,72,50,0
104.11703,104.216934,70,43,0
104.207855,104.3092,69,45,0
104.29868,104.412834,70,42,0
104.40383,104.76387,77,55,0
105.04574,105.09271,70,44,0
105.139694,105.24304,72,50,0
105.23365,105.337,70,43,0
105.32761,105.432076,69,45,0
105.42156,105.53582,70,42,0
105.52671,105.89112,72,52,0
105.89112,106.266945,77,49,0
106.266945,106.65366,75,48,0
106.65366,107.02831,73,55,0
107.02831,107.23013,74,49,0
107.33104,107.37801,70,44,0
107.424995,107.52436,72,50,0
107.51533,107.61469,70,43,0
107.60566,107.70651,69,45,0
107.696,107.81029,70,42,0
107.80115,108.16667,79,56,0
108.44853,108.495514,70,44,0
108.54249,108.64186,72,50,0
108.63283,108.73219,70,43,0
108.72316,108.824005,69,45,0
108.81349,108.92765,70,42,0
108.91865,109.27868,77,55,0
109.56055,109.60753,70,44,0
109.6545,109.75786,72,50,0
109.74846,109.851814,70,43,0
109.842415,109.946884,69,45,0
109.93637,110.05064,70,42,0
110.04152,110.40593,72,52,0
110.40593,110.78175,75,49,0
110.78175,111.17481,69,48,0
111.17481,111.54033,70,55,0
112.27137,112.36509,79,77,0
112.27137,112.36509,70,64,0
112.27137,112.36509,74,64,0
112.64625,112.7405,67,64,0
113.40025,113.497246,74,75,0
113.40025,113.497246,66,63,0
113.40025,113.497246,69,63,0
113.78823,113.882774,62,67,0
114.54461,115.28926,63,43,0
115.28926,115.39165,65,36,0
115.38234,115.485245,63,36,0
115.47542,115.58351,62,36,0
115.573685,115.67195,63,36,0
115.67195,115.85754,72,42,0
115.85754,116.04312,70,37,0
116.04312,116.41429,70,43,0
116.41429,116.80352,70,38,0
116.80352,117.00007,70,39,0
116.990845,117.18452,75,45,0
117.17529,117.36896,74,44,0
117.35974,117.553406,73,42,0
117.54418,117.738556,72,40,0
117.72863,117.93642,71,38,0
117.92711,118.29943,70,41,0
119.04408,119.78873,63,45,0
119.78873,119.89111,65,42,0
119.881805,119.98472,63,39,0
119.97489,120.08298,62,42,0
120.07315,120.17142,63,40,0
120.17142,120.36628,72,54,0
120.357,120.54259,71,48,0
120.54259,120.91376,71,53,0
120.91376,121.30299,71,47,0
121.30299,121.49954,72,50,0
121.49032,121.68398,79,58,0
121.67476,121.86843,75,56,0
121.85921,122.05287,74,54,0
122.04365,122.23802,72,51,0
122.228096,122.43588,70,49,0
122.426575,122.7989,69,50,0
123.54355,123.7401,70,59,0
123.73087,123.92454,86,62,0
123.91531,124.108986,82,61,0
124.09976,124.29343,81,60,0
124.28421,124.47858,79,58,0
124.46865,124.67644,77,57,0
124.66713,125.03945,76,62,0
125.7841,125.98065,77,52,0
125.97143,126.16509,81,58,0
126.15587,126.34954,77,56,0
126.34032,126.53398,76,55,0
126.524765,126.71913,74,53,0
126.709206,126.91699,72,51,0
126.907684,127.28001,71,56,0
128.12292,128.21907,72,46,0
128.21907,128.31491,71,49,0
128.31491,128.4103,72,44,0
128.4103,128.50537,74,49,0
128.50537,128.60007,72,44,0
128.60007,128.69447,71,49,0
128.69447,128.78851,72,44,0
128.88217,128.97583,72,49,0
128.97583,129.0692,76,54,0
129.0692,129.16257,72,49,0
129.25484,129.34712,72,53,0
129.34712,129.43939,77,57,0
129.43939,129.53168,72,52,0
129.62396,129.71623,72,55,0
129.71623,129.80852,82,61,0
129.80852,129.9008,72,57,0
129.99336,130.08592,72,57,0
130.08592,130.18517,81,64,0
130.18517,130.28441,72,57,0
130.28441,130.37881,79,65,0
130.37881,130.4719,76,60,0
130.4719,130.56499,74,65,0
130.56499,130.65807,72,60,0
130.65807,130.75114,71,57,0
130.75114,130.84422,72,59,0
130.84422,130.9373,74,60,0
130.9373,131.03137,72,56,0
131.12881,131.22554,72,49,0
131.22554,131.3214,76,53,0
131.3214,131.4164,72,49,0
131.51073,131.60493,72,52,0
131.60493,131.69885,77,58,0
131.69885,131.79243,72,54,0
131.88574,131.97879,72,55,0
131.97879,132.07147,82,61,0
132.07147,132.16391,72,55,0
132.25607,132.34789,72,49,0
132.34789,132.44489,81,68,0
132.44489,132.5406,72,62,0
132.5406,132.63339,79,73,0
132.63339,132.7262,84,62,0
132.7262,132.81898,79,69,0
132.81898,132.91171,76,57,0
132.91171,133.00435,72,67,0
133.00435,133.0975,79,55,0
133.0975,133.19109,76,61,0
133.19109,133.28517,72,54,0
133.28517,133.37971,67,63,0
133.37971,133.4747,72,55,0
133.4747,133.5703,67,65,0
133.5703,133.674,64,59,0
133.674,133.77567,60,85,0
134.08064,134.5246,72,73,0
134.08064,134.5246,64,62,0
134.08064,134.5246,67,62,0
137.46608,137.5119,84,45,0
137.6494,137.69522,84,49,0
137.83272,137.87854,84,43,0
138.01604,138.06549,84,46,0
138.21385,138.2633,84,40,0
138.41168,138.60776,86,45,0
138.59842,138.7945,84,40,0
138.78516,138.98125,82,43,0
138.97191,139.16805,81,40,0
139.15865,139.35622,79,45,0
139.34656,139.53992,77,39,0
139.53992,139.58826,77,41,0
139.58826,139.6366,79,39,0
139.6366,139.73328,77,49,0
139.73328,139.91435,76,44,0
139.92061,140.29526,76,46,0
142.04349,142.08932,82,45,0
142.2268,142.27238,82,48,0
142.40912,142.4547,82,42,0
142.59143,142.6409,82,44,0
142.78926,142.83871,82,40,0
142.98709,143.18317,84,45,0
143.17383,143.3699,82,40,0
143.36057,143.55664,81,40,0
143.54732,143.7434,79,40,0
143.73405,143.93117,77,45,0
143.92079,144.12819,76,39,0
144.12819,144.49821,77,47,0
144.68323,144.87508,81,47,0
144.866,145.0573,79,45,0
145.04776,145.24791,77,40,0
145.23866,145.60869,76,47,0
145.7937,145.98555,86,52,0
145.97646,146.16777,84,47,0
146.15822,146.35834,76,42,0
146.34912,146.71802,77,47,0
146.90245,147.09377,81,47,0
147.08466,147.27647,79,45,0
147.26686,147.46822,77,40,0
147.45898,147.82788,76,47,0
148.01233,148.20364,86,52,0
148.19453,148.38625,84,47,0
148.37672,148.57625,76,42,0
148.56703,148.93591,77,47,0
149.12502,149.31517,84,55,0
149.30612,149.4968,81,53,0
149.48723,149.68796,79,50,0
149.67873,150.04762,78,56,0
150.23207,150.42339,87,58,0
150.41428,150.60608,86,52,0
150.59648,150.79779,78,48,0
150.7886,150.98167,81,56,0
150.97247,151.16542,79,51,0
151.15636,151.34686,84,55,0
151.33746,151.53442,83,51,0
151.52538,151.71593,82,50,0
151.70648,151.90485,81,49,0
151.89557,152.17395,79,54,0
152.17395,152.2732,81,48,0
152.2732,152.65378,77,54,0
152.65378,152.71721,76,50,0
152.71721,152.78064,77,44,0
152.78064,152.84407,76,50,0
152.84407,152.89165,77,44,0
152.89165,152.93922,76,50,0
152.93922,152.9868,74,42,0
152.9868,153.03418,76,45,0
153.03418,153.12755,77,49,0
153.12755,153.22092,72,46,0
153.22092,153.31425,71,49,0
153.31425,153.40733,72,44,0
153.40733,153.50043,74,49,0
153.50043,153.5935,72,44,0
153.5935,153.6846,71,49,0
153.6846,153.77571,72,44,0
153.77571,153.8668,70,49,0
153.8668,153.958,72,49,0
153.958,154.05344,69,54,0
154.05344,154.1488,72,49,0
154.1488,154.24217,67,49,0
154.24217,154.33556,72,46,0
154.33556,154.4289,71,49,0
154.4289,154.52197,72,44,0
154.52197,154.61505,74,49,0
154.61505,154.70813,72,44,0
154.70813,154.79924,71,49,0
154.79924,154.89034,72,44,0
154.89034,154.98145,82,49,0
154.98145,155.07262,72,49,0
155.07262,155.16806,82,54,0
155.16806,155.26344,72,49,0
155.26344,155.35681,81,49,0
155.35681,155.45018,72,46,0
155.45018,155.54352,71,49,0
155.54352,155.6366,72,44,0
155.6366,155.72968,74,49,0
155.72968,155.82277,72,44,0
155.82277,155.91386,71,49,0
155.91386,156.00497,72,44,0
156.00497,156.0953,70,49,0
156.0953,156.18573,72,49,0
156.18573,156.28119,69,54,0
156.28119,156.37656,72,49,0
156.37656,156.46992,67,49,0
156.46992,156.5633,72,46,0
156.5633,156.65665,71,49,0
156.65665,156.74973,72,44,0
156.74973,156.8428,74,49,0
156.8428,156.93588,72,44,0
156.93588,157.02698,71,49,0
157.02698,157.11809,72,44,0
157.11809,157.2087,82,49,0
157.2087,157.2994,72,49,0
157.2994,157.39484,82,54,0
157.39484,157.49022,72,49,0
157.49022,157.58359,81,49,0
157.58359,157.67696,72,46,0
157.67696,157.7703,71,49,0
157.7703,157.86337,72,44,0
157.86337,157.95645,74,49,0
157.95645,158.04955,72,44,0
158.04955,158.14064,71,49,0
158.14064,158.23175,72,44,0
158.23175,158.3229,75,49,0
158.3229,158.41414,72,49,0
158.41414,158.50958,70,54,0
158.50958,158.60495,72,49,0
158.60495,158.69832,69,49,0
158.69832,158.7917,74,46,0
158.7917,158.88504,73,49,0
158.88504,158.97812,74,44,0
158.97812,159.07448,76,49,0
159.07448,159.17085,74,44,0
159.17085,159.26196,73,52,0
159.26196,159.35306,74,44,0
159.35306,159.44478,84,55,0
159.44478,159.53654,74,49,0
159.53654,159.63292,84,57,0
159.63292,159.72917,74,49,0
159.72917,160.09697,83,62,0
160.09697,160.4679,82,60,0
160.4679,160.8423,81,57,0
160.8423,160.93509,79,60,0
160.93509,161.02788,86,52,0
161.02788,161.12068,82,52,0
161.12068,161.22058,79,52,0
161.22058,161.31337,77,62,0
161.31337,161.40616,84,52,0
161.40616,161.49895,81,52,0
161.49895,161.59175,77,52,0
161.59175,161.68454,76,62,0
161.68454,161.77733,82,52,0
161.77733,161.87495,79,52,0
161.87495,161.97258,76,52,0
161.97258,162.07692,77,54,0
162.06743,162.17152,81,57,0
162.16228,162.26404,84,61,0
162.25478,162.35654,82,60,0
162.34729,162.44905,81,58,0
162.43979,162.54155,79,56,0
162.5323,162.6346,77,54,0
162.62482,162.73201,76,52,0
162.72275,162.82451,74,55,0
162.81526,162.91702,72,51,0
162.90776,163.01013,70,50,0
163.00027,163.09886,69,50,0
163.09886,163.20287,67,50,0
163.1934,163.29721,70,53,0
163.28796,163.38971,74,56,0
163.38046,163.48222,72,55,0
163.47298,163.57472,70,54,0
163.56548,163.66724,69,53,0
163.65799,163.75974,67,52,0
163.75049,163.85225,65,50,0
163.843,163.94476,64,49,0
163.9355,164.03726,62,50,0
164.02802,164.13031,60,53,0
164.12051,164.22736,59,56,0
164.21797,164.31308,60,59,0
164.40765,164.50104,72,59,0
164.59404,164.68701,77,61,0
164.7797,164.87221,81,62,0
164.9647,165.05722,84,64,0
165.14972,165.24223,89,65,0
165.34102,165.39,79,37,0
165.39,165.43884,81,31,0
165.43884,165.48763,79,37,0
165.48763,165.53624,81,31,0
165.53624,165.58473,79,37,0
165.58473,165.6331,81,32,0
165.6331,165.68141,79,37,0
165.68141,165.72955,81,33,0
165.72955,165.77759,79,37,0
165.77759,165.8255,81,32,0
165.8255,165.87334,79,37,0
165.87334,165.92104,81,32,0
165.92104,165.9686,79,37,0
165.9686,166.01607,81,31,0
166.01607,166.06345,79,37,0
166.06345,166.11069,81,33,0
166.11069,166.15785,79,37,0
166.15785,166.20515,81,32,0
166.20515,166.2685,79,37,0
166.2685,166.33218,81,32,0
166.33218,166.39618,79,37,0
166.39618,166.4444,77,33,0
166.4444,166.49278,79,33,0
166.49278,166.922,77,49,0
167.70927,168.09352,82,46,0
168.09352,168.47777,84,50,0
168.47777,168.86954,86,51,0
168.86954,169.44777,84,51,0
169.44777,169.55377,86,48,0
169.54413,169.65015,84,43,0
169.6405,169.7465,82,50,0
169.73688,169.8432,81,48,0
169.83324,169.94276,79,47,0
169.93282,170.03238,77,45,0
170.03238,170.6106,81,48,0
170.6106,170.80334,82,40,0
170.80334,171.19588,79,44,0
171.19588,171.58583,77,46,0
172.36095,172.55556,70,52,0
172.55556,172.74768,82,47,0
172.74768,172.9398,72,54,0
172.9398,173.13193,84,47,0
173.13193,173.32405,74,58,0
173.32405,173.52058,86,52,0
173.52058,173.71332,84,61,0
173.71332,173.81932,86,54,0
173.8097,173.9157,88,58,0
173.90607,174.01207,89,61,0
174.00243,174.10844,88,61,0
174.0988,174.2048,86,60,0
174.19518,174.30118,84,58,0
174.29153,174.39755,82,57,0
174.38791,174.49423,81,55,0
174.48428,174.59381,79,54,0
174.58385,174.68341,77,52,0
174.68341,175.26164,81,62,0
175.26164,175.45438,82,56,0
175.45438,175.84692,79,62,0
175.84692,176.23686,77,67,0
176.33293,176.42899,84,60,0
176.42899,176.53372,86,65,0
176.5242,176.62892,84,60,0
176.6194,176.72414,82,64,0
176.71461,176.821,81,62,0
176.80981,176.93282,82,60,0
176.92163,177.04333,79,58,0
177.03345,177.4234,77,68,0
177.51945,177.62508,72,60,0
177.61552,177.72058,74,65,0
177.71103,177.81609,72,60,0
177.80653,177.9116,70,64,0
177.90205,178.00874,69,62,0
177.99756,178.12056,70,60,0
178.10938,178.23238,67,58,0
178.22119,178.33301,65,71,0
178.66846,179.11572,77,77,0
178.66846,179.11572,72,59,0
178.66846,179.11572,69,59,0
179.56297,180.04822,66,71,0
180.04822,180.53346,78,77,0
180.04822,180.53346,72,59,0
180.04822,180.53346,68,59,0
181.01869,181.76335,61,43,0
181.76335,181.86574,63,36,0
181.85643,181.95934,61,36,0
181.94951,182.0576,60,36,0
182.04778,182.14604,61,36,0
182.14604,182.33162,70,42,0
182.33162,182.51257,68,37,0
182.51721,182.88838,68,43,0
182.88838,183.27762,68,38,0
183.27762,183.47415,68,39,0
183.46494,183.6586,73,45,0
183.64938,183.843,72,44,0
183.83383,184.02647,71,41,0
184.01726,184.21162,70,40,0
184.2017,184.40948,69,38,0
184.40018,184.7725,68,41,0
185.51715,186.2618,61,45,0
186.2618,186.3642,63,42,0
186.35489,186.4578,61,39,0
186.44797,186.55605,60,42,0
186.54622,186.64449,61,40,0
186.64449,186.83008,70,54,0
186.83008,187.01566,69,48,0
187.01566,187.38684,69,53,0
187.38684,187.77606,69,47,0
187.77606,187.97261,70,50,0
187.9634,188.15706,77,54,0
188.14784,188.3415,73,55,0
188.33228,188.52594,72,53,0
188.51672,188.71109,70,51,0
188.70117,188.90895,68,50,0
188.89964,189.27197,67,50,0
190.01662,190.21317,68,59,0
190.20395,190.39761,80,62,0
190.3884,190.582,77,61,0
190.57283,190.76549,75,60,0
190.75627,190.95064,74,58,0
190.9407,191.1485,72,57,0
191.13919,191.5115,71,62,0
192.25616,192.45271,72,61,0
192.44348,192.63715,87,64,0
192.62793,192.8216,84,61,0
192.81238,193.006,82,60,0
192.99683,193.19017,80,55,0
193.18025,193.38803,79,56,0
193.37872,193.75105,78,60,0
194.49744,194.69398,79,58,0
194.68477,194.87843,82,60,0
194.86922,195.06288,79,58,0
195.05365,195.24731,77,55,0
195.2381,195.43246,75,53,0
195.42255,195.63033,74,50,0
195.62102,195.99335,73,57,0
196.83627,196.9324,74,46,0
196.9324,197.02824,73,49,0
197.02824,197.12363,74,44,0
197.12363,197.2187,76,49,0
197.2187,197.31342,74,44,0
197.31342,197.40782,73,49,0
197.40782,197.50185,74,44,0
197.59552,197.68916,74,49,0
197.68916,197.78253,78,54,0
197.78253,197.8759,74,49,0
197.96898,198.06206,74,53,0
198.06206,198.15514,79,57,0
198.15514,198.24823,74,52,0
198.34079,198.43335,74,55,0
198.43335,198.52591,84,61,0
198.52591,198.61848,74,57,0
198.71104,198.8036,74,57,0
198.8036,198.90285,82,64,0
198.90285,199.00209,74,57,0
199.00209,199.0965,81,64,0
199.0965,199.18959,78,57,0
199.18959,199.28267,76,59,0
199.28267,199.37575,74,57,0
199.37575,199.46883,73,57,0
199.46883,199.5619,74,59,0
199.5619,199.65498,76,60,0
199.65498,199.74905,74,56,0
199.84483,199.94052,74,49,0
199.94052,200.03596,78,53,0
200.03596,200.1312,74,49,0
200.22627,200.32112,74,52,0
200.32112,200.41582,79,58,0
200.41582,200.51038,74,54,0
200.60463,200.69873,74,55,0
200.69873,200.7927,84,61,0
200.7927,200.88612,74,55,0
200.97942,201.0725,74,49,0
201.0725,201.1695,82,68,0
201.1695,201.26521,74,62,0
201.26521,201.358,81,70,0
201.358,201.4508,86,60,0
201.4508,201.5436,81,69,0
201.5436,201.63632,78,57,0
201.63632,201.72896,74,67,0
201.72896,201.82211,81,55,0
201.82211,201.9157,78,61,0
201.9157,202.00978,74,54,0
202.00978,202.10432,69,63,0
202.10432,202.19931,74,55,0
202.19931,202.2949,69,65,0
202.2949,202.3986,66,59,0
202.3986,202.49918,62,85,0
202.80089,203.24484,74,73,0
202.80089,203.24484,66,62,0
202.80089,203.24484,69,62,0
206.18633,206.23216,86,45,0
206.36964,206.41547,86,49,0
206.55296,206.59879,86,43,0
206.73628,206.78574,86,46,0
206.9341,206.98357,86,40,0
207.13193,207.328,87,45,0
207.31866,207.51476,86,40,0
207.50542,207.70149,84,43,0
207.69215,207.88829,83,40,0
207.87889,208.07648,80,45,0
208.0668,208.26016,79,39,0
208.26016,208.3085,79,41,0
208.3085,208.35684,80,39,0
208.35684,208.45352,79,49,0
208.45352,208.63304,77,44,0
208.64085,209.0155,77,46,0
210.76373,210.80957,77,45,0
210.94705,210.99289,77,48,0
211.13037,211.17621,77,42,0
211.31369,211.36314,77,44,0
211.51152,211.56097,77,40,0
211.70934,211.90543,79,45,0
211.89609,212.09216,77,40,0
212.08282,212.2789,75,40,0
212.26956,212.46564,74,40,0
212.4563,212.65341,72,45,0
212.64305,212.85045,71,39,0
212.85045,213.61696,72,48,0
213.59975,214.0131,67,42,0
214.0131,214.77238,63,48,0
214.75545,215.16182,67,45,0
215.16182,215.91441,72,50,0
215.89793,216.29358,75,52,0
216.29358,216.66707,79,56,0
217.42181,218.19438,76,58,0
218.17715,218.59052,72,52,0
218.59052,219.3498,67,55,0
219.33287,219.73923,72,49,0
219.73923,220.49184,76,53,0
220.47534,220.87099,79,54,0
220.87099,221.24448,82,58,0
222.19308,222.2389,80,45,0
222.37639,222.42223,80,49,0
222.55971,222.60555,80,43,0
222.74303,222.79248,80,46,0
222.94086,222.99031,80,40,0
223.13869,223.33476,82,45,0
223.32542,223.52144,80,40,0
223.51216,223.70703,79,43,0
223.69775,223.89273,77,40,0
223.88333,224.08092,75,45,0
224.07124,224.2646,74,39,0
224.45078,224.4966,79,45,0
224.6341,224.67992,79,49,0
224.8174,224.86324,79,43,0
225.00072,225.05019,79,46,0
225.19855,225.248,79,40,0
225.39638,225.59245,80,45,0
225.58311,225.7791,79,40,0
225.76985,225.96413,77,43,0
225.95486,226.14928,75,40,0
226.13988,226.33746,74,45,0
226.32779,226.52115,72,39,0
226.70732,226.75314,77,45,0
226.89064,226.93646,77,49,0
227.07396,227.11978,77,43,0
227.25728,227.30673,77,46,0
227.4551,227.50455,77,40,0
227.65292,227.849,79,51,0
227.83966,228.03566,77,50,0
228.0264,228.22067,75,49,0
228.21141,228.40582,74,48,0
228.39642,228.59401,72,47,0
228.58434,228.77771,71,47,0
228.77771,228.97379,77,56,0
228.96445,229.16043,75,54,0
229.15118,229.34544,74,52,0
229.3362,229.53061,72,51,0
229.52121,229.7188,70,49,0
229.70912,229.90248,69,47,0
229.90248,230.09857,84,60,0
230.08923,230.28522,82,58,0
230.27597,230.47023,81,56,0
230.46098,230.6554,79,54,0
230.646,230.84358,77,54,0
230.83391,231.02727,76,57,0
231.02727,231.40395,77,61,0
231.77058,232.16623,75,55,0
231.77058,232.16623,69,45,0
232.16623,232.53972,73,60,0
232.16623,232.53972,70,45,0
232.90974,233.30215,82,55,0
232.90974,233.30215,73,45,0
233.30215,233.67883,81,61,0
233.30215,233.67883,72,45,0
234.04547,234.44112,69,55,0
234.04547,234.44112,63,45,0
234.44112,234.8146,70,60,0
234.44112,234.8146,61,45,0
235.18463,235.57704,61,55,0
235.18463,235.57704,58,45,0
235.57704,235.78444,60,60,0
235.57704,235.78444,57,45,0
235.78444,235.83026,65,45,0
235.96776,236.01358,65,49,0
236.15108,236.1969,65,43,0
236.3344,236.38385,65,46,0
236.53221,236.58167,65,40,0
236.73004,236.91696,64,44,0
236.91696,237.11113,65,40,0
237.11113,237.29863,67,45,0
237.29863,237.49281,65,40,0
237.49281,237.68388,70,43,0
237.68388,237.88062,69,40,0
237.88062,238.07109,74,44,0
238.07109,238.27156,72,40,0
238.27156,238.4668,75,45,0
238.4668,238.67638,74,40,0
238.67638,238.87752,79,45,0
238.87752,239.03525,77,40,0
239.08781,239.72638,77,45,0
239.72638,239.94432,76,40,0
239.94432,240.16226,75,43,0
240.16226,240.38522,72,40,0
240.38522,241.13452,70,48,0
241.13452,241.54788,65,41,0
241.54788,242.29024,62,48,0
242.29024,242.6966,65,44,0
242.6966,243.44125,70,48,0
243.44125,243.8369,74,51,0
243.8369,244.58386,77,56,0
244.58386,244.76674,82,58,0
244.76674,244.95715,74,51,0
244.95715,245.14629,77,56,0
245.13727,245.32646,75,52,0
245.3174,245.50768,74,51,0
245.49861,245.68889,72,49,0
245.67982,245.87035,70,48,0
245.86104,246.04721,69,47,0
246.04721,246.23795,67,50,0
246.22885,246.41959,65,44,0
246.4105,246.60124,64,44,0
246.59216,246.7829,65,45,0
246.77382,246.96483,67,47,0
246.95547,247.14279,69,50,0
247.14279,247.1882,70,50,0
247.27904,247.32445,72,45,0
247.32445,247.41527,70,49,0
247.41527,247.5061,69,46,0
247.5061,247.55151,70,50,0
247.68776,247.73375,72,47,0
247.87175,247.91705,74,49,0
248.05296,248.10115,75,51,0
248.2457,248.43759,76,53,0
248.42845,248.62036,77,50,0
248.61122,248.80312,79,55,0
248.79398,248.97673,77,50,0
248.97673,249.1595,82,59,0
249.1595,249.35162,74,50,0
249.35162,249.54588,77,57,0
249.53664,249.73082,75,55,0
249.72165,249.91412,74,53,0
249.90497,250.09744,72,51,0
250.08829,250.28099,70,49,0
250.2716,250.45952,69,47,0
250.45952,250.65378,67,50,0
250.64453,250.83873,65,43,0
250.82954,251.02261,64,50,0
251.01341,251.2065,65,43,0
251.1973,251.39058,67,50,0
251.38118,251.56909,69,45,0
251.56909,251.66132,70,50,0
251.93799,252.03467,70,48,0
252.3247,252.43173,74,48,0
252.75282,253.12863,70,50,0
253.4105,253.45749,70,44,0
253.50446,253.60406,72,50,0
253.59502,253.69463,70,43,0
253.68556,253.78664,69,45,0
253.77612,253.89041,70,42,0
253.88127,254.2468,79,56,0
254.52866,254.57564,70,44,0
254.6226,254.72252,72,50,0
254.71344,254.81335,70,43,0
254.80426,254.90561,69,45,0
254.8951,255.00925,70,42,0
255.00024,255.36028,77,55,0
255.64215,255.68912,70,44,0
255.7361,255.83945,72,50,0
255.83006,255.93341,70,43,0
255.92401,256.02847,69,45,0
256.01797,256.13223,70,42,0
256.1231,256.48752,72,52,0
256.48752,256.86334,77,49,0
256.86334,257.25006,75,48,0
257.25006,257.62473,73,55,0
257.62473,257.82654,74,49,0
257.92746,257.97443,70,44,0
258.0214,258.121,72,50,0
258.11197,258.21158,70,43,0
258.2025,258.3036,69,45,0
258.29306,258.40735,70,42,0
258.39822,258.76373,79,56,0
259.0456,259.0926,70,44,0
259.13956,259.23947,72,50,0
259.23038,259.3303,70,43,0
259.3212,259.42255,69,45,0
259.41205,259.52618,70,42,0
259.51718,259.87723,77,55,0
260.1591,260.20605,70,44,0
260.25305,260.35638,72,50,0
260.347,260.45035,70,43,0
260.44095,260.54544,69,45,0
260.5349,260.64917,70,42,0
260.64008,261.0045,72,52,0
261.0045,261.38028,75,49,0
261.38028,261.77335,69,48,0
261.77335,262.13885,70,55,0
262.8699,262.96597,79,77,0
262.8699,262.96597,70,64,0
262.8699,262.96597,74,64,0
263.25415,263.3484,67,64,0
264.00815,264.10516,74,75,0
264.00815,264.10516,66,63,0
264.00815,264.10516,69,63,0
264.39612,264.4907,62,67,0
265.15253,265.89716,63,43,0
265.89716,265.99954,65,36,0
265.99023,266.09314,63,36,0
266.0833,266.1914,62,36,0
266.18158,266.27985,63,36,0
266.27985,266.46542,72,42,0
266.46542,266.65103,70,37,0
266.65103,267.0222,70,43,0
267.0222,267.41144,70,38,0
267.41144,267.60797,70,39,0
267.59875,267.7923,75,45,0
267.7832,267.97467,74,44,0
267.9655,268.15817,73,42,0
268.14896,268.34332,72,40,0
268.33337,268.54117,71,38,0
268.53186,268.90417,70,41,0
269.64883,270.3935,63,45,0
270.3935,270.49588,65,42,0
270.48657,270.58948,63,39,0
270.57965,270.68774,62,42,0
270.67792,270.77618,63,40,0
270.77618,270.96176,72,54,0
270.96176,271.14734,71,48,0
271.14734,271.51852,71,53,0
271.51852,271.90775,71,47,0
271.90775,272.1043,72,50,0
272.09506,272.28873,79,58,0
272.2795,272.47318,75,56,0
272.46396,272.65762,74,54,0
272.6484,272.84277,72,51,0
272.83286,273.04065,70,49,0
273.03134,273.40366,69,50,0
274.14832,274.34485,70,59,0
274.33563,274.5292,86,62,0
274.52008,274.7121,82,61,0
274.70294,274.89505,81,60,0
274.8858,275.0802,79,58,0
275.07025,275.27805,77,57,0
275.26874,275.64105,76,62,0
276.48038,276.57654,77,46,0
276.57654,276.67236,76,49,0
276.67236,276.76776,77,44,0
276.76776,276.86282,79,49,0
276.86282,276.95752,77,44,0
276.95752,277.05194,76,49,0
277.05194,277.14597,77,44,0
277.23962,277.33328,77,49,0
277.33328,277.42667,81,54,0
277.42667,277.52002,77,49,0
277.6131,277.70618,77,53,0
277.70618,277.79926,82,57,0
277.79926,277.89233,77,52,0
277.98462,278.0769,77,55,0
278.0769,278.1692,87,61,0
278.1692,278.26144,77,57,0
278.35373,278.446,77,57,0
278.446,278.54526,86,64,0
278.54526,278.6445,77,57,0
278.6445,278.73892,84,65,0
278.73892,278.832,81,60,0
278.832,278.92508,79,65,0
278.92508,279.01816,77,60,0
279.01816,279.11124,76,57,0
279.11124,279.2043,77,59,0
279.2043,279.2974,79,60,0
279.2974,279.39145,77,56,0
279.48724,279.58292,77,49,0
279.58292,279.67838,81,53,0
279.67838,279.77362,77,49,0
279.86868,279.96353,77,52,0
279.96353,280.05823,82,58,0
280.05823,280.15277,77,54,0
280.24704,280.34116,77,55,0
280.34116,280.4351,87,61,0
280.4351,280.52853,77,55,0
280.62183,280.7149,77,49,0
280.7149,280.8119,86,68,0
280.8119,280.90762,77,62,0
280.90762,281.00043,84,73,0
281.00043,281.0932,89,62,0
281.0932,281.186,84,69,0
281.186,281.27872,81,57,0
281.27872,281.37137,77,67,0
281.37137,281.4645,84,55,0
281.4645,281.5581,81,61,0
281.5581,281.6522,77,54,0
281.6522,281.74673,72,63,0
281.74673,281.84174,77,55,0
281.84174,281.93732,72,65,0
281.93732,282.04102,69,59,0
282.04102,282.1416,65,85,0
282.4433,282.88724,77,73,0
282.4433,282.88724,69,62,0
282.4433,282.88724,72,62,0
285.82874,285.87457,77,45,0
286.01205,286.0579,77,49,0
286.19537,286.2412,77,43,0
286.3787,286.42813,77,46,0
286.5765,286.62598,77,40,0
286.77432,286.97043,79,45,0
286.9611,287.15717,77,40,0
287.14783,287.3439,75,43,0
287.33456,287.5307,74,40,0
287.5213,287.71887,72,45,0
287.70923,287.85425,70,39,0
287.9026,287.95093,70,41,0
287.95093,287.99927,72,39,0
287.99927,288.09595,70,49,0
288.09595,288.28326,69,44,0
288.28326,288.6579,69,46,0
290.40616,290.45197,75,45,0
290.58948,290.63528,75,48,0
290.7728,290.8186,75,42,0
290.95612,291.00555,75,44,0
291.15393,291.20337,75,40,0
291.35175,291.54782,77,45,0
291.53848,291.73456,75,40,0
291.72522,291.92133,74,40,0
291.912,292.10806,72,40,0
292.09872,292.29584,70,45,0
292.28546,292.49286,69,39,0
292.49286,292.86288,70,47,0
293.04788,293.2398,74,47,0
293.23065,293.42297,72,45,0
293.41342,293.61356,70,40,0
293.6043,293.97433,69,47,0
294.15936,294.35126,79,52,0
294.3421,294.53442,77,47,0
294.52487,294.725,69,42,0
294.7158,295.08466,70,47,0
295.2691,295.46042,74,47,0
295.45132,295.64313,72,45,0
295.6335,295.83487,70,40,0
295.82565,296.19452,69,47,0
296.37897,296.57028,78,52,0
296.5612,296.7529,77,47,0
296.74338,296.9429,69,42,0
296.9337,297.30258,70,47,0
297.49167,297.68182,77,55,0
297.67276,297.86346,73,53,0
297.85388,298.0546,72,50,0
298.04538,298.41428,71,56,0
298.59872,298.79004,80,58,0
298.7809,298.97275,79,52,0
298.96313,299.15524,71,48,0
299.15524,299.34833,74,56,0
299.33914,299.53207,72,51,0
299.523,299.7135,77,55,0
299.70413,299.9011,76,51,0
299.89203,300.08258,75,50,0
300.07312,300.26224,74,49,0
300.26224,300.54062,72,54,0
300.54062,300.63986,74,48,0
300.63986,301.02045,70,54,0
301.02045,301.08386,69,50,0
301.08386,301.1473,70,44,0
301.1473,301.21072,69,50,0
301.21072,301.2583,70,44,0
301.2583,301.30588,69,50,0
301.30588,301.35345,67,42,0
301.35345,301.40085,69,45,0
301.40085,301.4942,70,49,0
301.4942,301.5876,65,46,0
301.5876,301.6809,64,49,0
301.6809,301.774,65,44,0
301.774,301.86707,67,49,0
301.86707,301.96014,65,44,0
301.96014,302.05127,64,49,0
302.05127,302.14236,65,44,0
302.14236,302.23346,63,49,0
302.23346,302.32465,65,49,0
302.32465,302.4201,62,54,0
302.4201,302.51547,65,49,0
302.51547,302.60883,60,49,0
302.60883,302.7022,65,46,0
302.7022,302.79553,64,49,0
302.79553,302.88864,65,44,0
302.88864,302.98172,67,49,0
302.98172,303.0748,65,44,0
303.0748,303.1659,64,49,0
303.1659,303.257,65,44,0
303.257,303.34808,75,49,0
303.34808,303.43927,65,49,0
303.43927,303.53473,75,54,0
303.53473,303.6301,65,49,0
303.6301,303.72348,74,49,0
303.72348,303.81683,77,46,0
303.81683,303.9102,76,49,0
303.9102,304.00327,77,44,0
304.00327,304.09634,79,49,0
304.09634,304.18942,77,44,0
304.18942,304.28052,76,49,0
304.28052,304.3716,77,44,0
304.3716,304.46274,75,49,0
304.46274,304.5539,77,49,0
304.5539,304.64935,74,54,0
304.64935,304.74472,77,49,0
304.74472,304.8381,72,49,0
304.8381,304.93146,77,46,0
304.93146,305.0248,76,49,0
305.0248,305.1179,77,44,0
305.1179,305.21097,79,49,0
305.21097,305.30405,77,44,0
305.30405,305.39514,76,49,0
305.39514,305.48627,77,44,0
305.48627,305.57736,87,49,0
305.57736,305.66852,77,49,0
305.66852,305.76398,87,54,0
305.76398,305.85934,77,49,0
305.85934,305.95273,86,49,0
305.95273,306.04608,77,46,0
306.04608,306.13943,76,49,0
306.13943,306.2325,77,44,0
306.2325,306.3256,79,49,0
306.3256,306.41867,77,44,0
306.41867,306.50977,76,49,0
306.50977,306.6009,77,44,0
306.6009,306.6928,80,49,0
306.6928,306.78482,77,49,0
306.78482,306.88025,75,54,0
306.88025,306.97565,77,49,0
306.97565,307.069,74,49,0
307.069,307.16238,79,46,0
307.16238,307.2557,78,49,0
307.2557,307.3488,79,44,0
307.3488,307.44516,81,49,0
307.44516,307.54153,79,44,0
307.54153,307.63263,78,52,0
307.63263,307.72372,79,44,0
307.72372,307.81625,89,55,0
307.81625,307.90878,79,49,0
307.90878,308.00516,89,57,0
308.00516,308.1014,79,49,0
308.1014,308.4692,88,62,0
308.4692,308.84015,87,60,0
308.84015,309.21454,86,57,0
309.21454,309.3166,86,60,0
309.3073,309.4094,84,52,0
309.40012,309.5029,87,52,0
309.49292,309.56784,84,52,0
309.5928,309.6949,84,62,0
309.6856,309.7877,82,52,0
309.7784,309.88046,86,52,0
309.8712,309.9408,82,52,0
309.964,310.06604,82,62,0
310.05676,310.15933,81,52,0
310.14957,310.25696,84,52,0
310.2472,310.34482,81,52,0
310.34482,310.43967,82,54,0
310.43967,310.53452,86,57,0
310.53452,310.627,89,58,0
310.627,310.7195,87,60,0
310.7195,310.81204,86,58,0
310.81204,310.90454,84,56,0
310.90454,310.99704,82,54,0
310.99704,311.095,81,52,0
311.095,311.1875,79,55,0
311.1875,311.28,77,51,0
311.28,311.3725,75,50,0
311.3725,311.4711,74,50,0
311.4711,311.56564,72,50,0
311.56564,311.6602,75,53,0
311.6602,311.7527,79,56,0
311.7527,311.8452,77,55,0
311.8452,311.9377,75,54,0
311.9377,312.0302,74,53,0
312.0302,312.12274,72,52,0
312.12274,312.21524,70,50,0
312.21524,312.30774,69,49,0
312.30774,312.40024,67,50,0
312.40024,312.49277,65,53,0
312.49277,312.5902,64,56,0
312.5902,312.68414,65,59,0
312.77786,312.87134,70,59,0
312.96454,313.0575,74,61,0
313.15018,313.24268,77,62,0
313.3352,313.4277,82,64,0
313.5202,313.61273,86,65,0
313.71152,313.76047,72,37,0
313.76047,313.80933,74,31,0
313.80933,313.8581,72,37,0
313.8581,313.9067,74,31,0
313.9067,313.95523,72,37,0
313.95523,314.0036,74,32,0
314.0036,314.0519,72,37,0
314.0519,314.10004,74,33,0
314.10004,314.14807,72,37,0
314.14807,314.19598,74,32,0
314.19598,314.24384,72,37,0
314.24384,314.2915,74,32,0
314.2915,314.33908,72,37,0
314.33908,314.38657,74,31,0
314.38657,314.43393,72,37,0
314.43393,314.48117,74,33,0
314.48117,314.52835,72,37,0
314.52835,314.57565,74,32,0
314.57565,314.63898,72,37,0
314.63898,314.70267,74,32,0
314.70267,314.76666,72,37,0
314.76666,314.81488,70,33,0
314.81488,314.86328,72,33,0
314.86328,315.29248,70,49,0
316.0756,316.45984,75,46,0
316.45984,316.8441,77,50,0
316.8441,317.23584,79,51,0
317.23584,317.81406,77,51,0
317.81406,317.92007,79,48,0
317.91043,318.01645,77,43,0
318.0068,318.11282,75,50,0
318.10318,318.2095,74,48,0
318.19955,318.30908,72,47,0
318.2991,318.39868,70,45,0
318.39868,318.9769,74,48,0
318.9769,319.16965,75,40,0
319.16965,319.5622,72,44,0
319.5622,319.95212,70,46,0
320.72632,320.92093,63,52,0
320.92093,321.11307,75,47,0
321.11307,321.30518,65,54,0
321.30518,321.4973,77,47,0
321.4973,321.68942,67,58,0
321.68942,321.88596,79,52,0
321.88596,322.0787,77,61,0
322.0787,322.17508,79,54,0
322.17508,322.27145,81,58,0
322.27145,322.3678,82,61,0
322.3678,322.46417,81,61,0
322.46417,322.56055,79,60,0
322.56055,322.65692,77,58,0
322.65692,322.7533,75,57,0
322.7533,322.84967,74,55,0
322.84967,322.94922,72,54,0
322.94922,323.0488,70,52,0
323.0488,323.627,74,62,0
323.627,323.81976,75,56,0
323.81976,324.2123,72,62,0
324.2123,324.60223,70,67,0
324.6983,324.79437,77,60,0
324.79437,324.89044,79,65,0
324.89044,324.98648,77,60,0
324.98648,325.08255,75,64,0
325.08255,325.17862,74,62,0
325.17862,325.29044,75,60,0
325.29044,325.40225,72,58,0
325.40225,325.7922,70,68,0
325.88824,325.9843,65,60,0
325.9843,326.08038,67,65,0
326.08038,326.17645,65,60,0
326.17645,326.2725,63,64,0
326.2725,326.36856,62,62,0
326.36856,326.48038,63,60,0
326.48038,326.5922,60,58,0
326.5922,326.74872,58,71,0
327.03946,327.48672,82,77,0
327.03946,327.48672,77,59,0
327.03946,327.48672,74,59,0
327.93396,328.45322,66,71,0
328.45322,328.93887,78,77,0
328.45322,328.93887,72,59,0
328.45322,328.93887,68,59,0
329.4245,330.16916,61,43,0
330.16916,330.27155,63,36,0
330.26224,330.36514,61,36,0
330.35532,330.4634,60,36,0
330.45358,330.55185,61,36,0
330.55185,330.73743,70,42,0
330.73743,330.91837,68,37,0
330.923,331.2942,68,43,0
331.2942,331.6834,68,38,0
331.6834,331.87994,68,39,0
331.87073,332.0644,73,45,0
332.05518,332.24884,72,44,0
332.23962,332.4333,71,41,0
332.42407,332.61844,70,40,0
332.60852,332.8163,69,38,0
332.807,333.17932,68,41,0
333.92584,334.66635,61,45,0
334.66635,334.76816,63,42,0
334.7589,334.8613,61,39,0
334.85147,334.95956,60,42,0
334.94974,335.048,61,40,0
335.048,335.23358,70,54,0
335.23358,335.41916,69,48,0
335.41916,335.79034,69,53,0
335.79034,336.17957,69,47,0
336.17957,336.37613,70,50,0
336.3669,336.56058,77,54,0
336.55133,336.74503,73,55,0
336.73578,336.92944,72,53,0
336.92023,337.1146,70,51,0
337.10468,337.31247,68,50,0
337.30316,337.67548,67,50,0
338.42014,338.61667,68,59,0
338.60745,338.80112,80,62,0
338.7919,338.98557,77,61,0
338.97635,339.17,75,60,0
339.1608,339.35516,74,58,0
339.34525,339.553,72,57,0
339.5437,339.91605,71,62,0
340.66068,340.85724,72,61,0
340.84802,341.0417,87,64,0
341.03244,341.22614,84,61,0
341.2169,341.41055,82,60,0
341.40134,341.5957,80,55,0
341.5858,341.79358,79,56,0
341.78427,342.1566,78,60,0
342.90298,343.09952,79,58,0
343.0903,343.28397,82,60,0
343.27475,343.4684,79,58,0
343.4592,343.65286,77,55,0
343.64365,343.838,75,53,0
343.8281,344.03586,74,50,0
344.02655,344.3989,73,57,0
345.2418,345.33795,74,46,0
345.33795,345.43378,73,49,0
345.43378,345.52917,74,44,0
345.52917,345.62424,76,49,0
345.62424,345.71896,74,44,0
345.71896,345.81335,73,49,0
345.81335,345.90738,74,44,0
346.00107,346.0947,74,49,0
346.0947,346.18808,78,54,0
346.18808,346.28143,74,49,0
346.37408,346.46628,74,53,0
346.46628,346.55804,79,57,0
346.55804,346.64975,74,52,0
346.74146,346.8332,74,55,0
346.8332,346.9249,84,61,0
346.9249,347.0166,74,57,0
347.10834,347.20004,74,57,0
347.20004,347.2993,82,64,0
347.2993,347.39853,74,57,0
347.39853,347.49292,81,64,0
347.49292,347.58603,78,57,0
347.58603,347.6791,76,59,0
347.6791,347.7722,74,57,0
347.7722,347.86526,73,57,0
347.86526,347.95834,74,59,0
347.95834,348.05142,76,60,0
348.05142,348.14548,74,56,0
348.24127,348.33694,74,49,0
348.33694,348.4324,78,53,0
348.4324,348.52762,74,49,0
348.6227,348.71756,74,52,0
348.71756,348.8122,79,58,0
348.8122,348.90634,74,54,0
349.00015,349.09348,74,55,0
349.09348,349.18646,84,61,0
349.18646,349.27908,74,55,0
349.37155,349.46463,74,49,0
349.46463,349.5616,82,68,0
349.5616,349.65735,74,62,0
349.65735,349.75012,81,70,0
349.75012,349.84293,86,60,0
349.84293,349.93573,81,69,0
349.93573,350.02844,78,57,0
350.02844,350.1211,74,67,0
350.1211,350.21423,81,55,0
350.21423,350.30783,78,61,0
350.30783,350.40192,74,54,0
350.40192,350.49646,69,63,0
350.49646,350.59143,74,55,0
350.59143,350.68704,69,65,0
350.68704,350.79074,66,59,0
350.79074,350.8913,62,85,0
351.19302,351.63696,74,73,0
351.19302,351.63696,66,62,0
351.19302,351.63696,69,62,0
354.57846,354.62427,86,45,0
354.76178,354.8076,86,49,0
354.9451,354.9909,86,43,0
355.12842,355.17786,86,46,0
355.32623,355.37567,86,40,0
355.52405,355.72012,87,45,0
355.7108,355.90686,86,40,0
355.89755,356.09363,84,43,0
356.0843,356.28043,83,40,0
356.27103,356.4686,80,45,0
356.45892,356.65228,79,39,0
356.65228,356.70062,79,41,0
356.70062,356.74896,80,39,0
356.74896,356.84564,79,49,0
356.84564,357.02518,77,44,0
357.033,357.4114,77,46,0
359.15964,359.20547,77,45,0
359.34296,359.3888,77,48,0
359.52628,359.5721,77,42,0
359.7096,359.75906,77,44,0
359.9074,359.95688,77,40,0
360.10526,360.30133,79,45,0
360.292,360.48807,77,40,0
360.47873,360.6748,75,40,0
360.66547,360.86154,74,40,0
360.8522,361.04932,72,45,0
361.03894,361.24634,71,39,0
361.24634,362.01288,72,48,0
361.99564,362.40903,67,42,0
362.40903,363.1683,63,48,0
363.15137,363.55774,67,45,0
363.55774,364.31033,72,50,0
364.29385,364.68948,75,52,0
364.68948,365.06296,79,56,0
365.81772,366.5903,76,58,0
366.57306,366.98642,72,52,0
366.98642,367.7457,67,55,0
367.72876,368.13513,72,49,0
368.13513,368.88773,76,53,0
368.87125,369.2669,79,54,0
369.2669,369.64038,82,58,0
370.589,370.63483,80,45,0
370.7723,370.81815,80,49,0
370.95563,371.00146,80,43,0
371.13895,371.1884,80,46,0
371.33676,371.38623,80,40,0
371.53458,371.73065,82,45,0
371.72134,371.91736,80,40,0
371.90808,372.10294,79,43,0
372.09366,372.28864,77,40,0
372.27924,372.47684,75,45,0
372.46716,372.66052,74,39,0
372.84668,372.89252,79,45,0
373.03,373.07584,79,49,0
373.21332,373.25916,79,43,0
373.39664,373.44608,79,46,0
373.59445,373.64392,79,40,0
373.79227,373.98837,80,45,0
373.97903,374.17502,79,40,0
374.16577,374.36002,77,43,0
374.35077,374.5452,75,40,0
374.5358,374.73337,74,45,0
374.7237,374.91705,72,39,0
375.1032,375.14905,77,45,0
375.28653,375.33237,77,49,0
375.46985,375.5157,77,43,0
375.65317,375.70264,77,46,0
375.851,375.90045,77,40,0
376.04883,376.2449,79,51,0
376.23557,376.43155,77,50,0
376.4223,376.61658,75,49,0
376.60733,376.80173,74,48,0
376.79233,376.98993,72,47,0
376.98026,377.1736,71,47,0
377.1736,377.3697,77,56,0
377.36035,377.55634,75,54,0
377.5471,377.74136,74,52,0
377.73212,377.9265,72,51,0
377.9171,378.11472,70,49,0
378.10504,378.2984,69,47,0
378.2984,378.49448,84,60,0
378.48514,378.68112,82,58,0
378.67188,378.86615,81,56,0
378.8569,379.0513,79,54,0
379.0419,379.23947,77,54,0
379.22983,379.4232,76,57,0
379.4232,379.79987,77,61,0
380.1665,380.56213,75,55,0
380.1665,380.56213,69,45,0
380.56213,380.93564,73,60,0
380.56213,380.93564,70,45,0
381.30566,381.69806,82,55,0
381.30566,381.69806,73,45,0
381.69806,382.07474,81,61,0
381.69806,382.07474,72,45,0
382.44138,382.83704,69,55,0
382.44138,382.83704,63,45,0
382.83704,383.2105,70,60,0
382.83704,383.2105,61,45,0
383.58054,383.97296,61,55,0
383.58054,383.97296,58,45,0
383.97296,384.18036,60,60,0
383.97296,384.18036,57,45,0
384.18036,384.22617,65,45,0
384.36368,384.4095,65,49,0
384.54697,384.5928,65,43,0
384.7303,384.77975,65,46,0
384.92813,384.97757,65,40,0
385.12595,385.31287,64,44,0
385.31287,385.50705,65,40,0
385.50705,385.69455,67,45,0
385.69455,385.8887,65,40,0
385.8887,386.0798,70,43,0
386.0798,386.27652,69,40,0
386.27652,386.46698,74,44,0
386.46698,386.66745,72,40,0
386.66745,386.86874,75,45,0
386.86874,387.09253,74,40,0
387.09253,387.29367,79,45,0
387.29367,387.45142,77,40,0
387.50397,388.14255,77,45,0
388.14255,388.36047,76,40,0
388.36047,388.57843,75,43,0
388.57843,388.79636,72,40,0
388.79636,389.54565,70,48,0
389.54565,389.959,65,41,0
389.959,390.7014,62,48,0
390.7014,391.10773,65,44,0
391.10773,391.8524,70,48,0
391.8524,392.24805,74,51,0
392.24805,392.995,77,56,0
392.995,393.18057,82,58,0
393.18057,393.36618,74,51,0
393.36618,393.55704,77,56,0
393.54794,393.7388,75,52,0
393.7297,393.92056,74,51,0
393.91147,394.10233,72,49,0
394.09323,394.2843,70,48,0
394.275,394.46115,69,47,0
394.46115,394.6519,67,50,0
394.6428,394.8335,65,44,0
394.82446,395.01416,64,44,0
395.00513,395.1949,65,45,0
395.1858,395.37692,67,47,0
395.36755,395.55487,69,50,0
395.55487,395.60028,70,50,0
395.69113,395.73654,72,45,0
395.73654,395.82736,70,49,0
395.82736,395.91818,69,46,0
395.91818,395.96417,70,50,0
396.10217,396.14777,72,47,0
396.2845,396.3302,74,49,0
396.46738,396.51556,75,51,0
396.6601,396.852,76,53,0
396.84286,397.03476,77,50,0
397.02563,397.21753,79,55,0
397.20837,397.39114,77,50,0
397.39114,397.5739,82,59,0
397.5739,397.76602,74,50,0
397.76602,397.9603,77,57,0
397.95105,398.14523,75,55,0
398.13605,398.32852,74,53,0
398.31937,398.51184,72,51,0
398.5027,398.6954,70,49,0
398.686,398.87393,69,47,0
398.87393,399.06818,67,50,0
399.05893,399.25314,65,43,0
399.24396,399.437,64,50,0
399.42783,399.6209,65,43,0
399.6117,399.805,67,50,0
399.7956,399.9835,69,45,0
399.9835,400.0741,70,50,0
400.34592,400.44458,70,48,0
400.74054,400.84756,74,48,0
401.16864,401.54446,70,50,0
401.82632,401.87332,70,44,0
401.9203,402.0199,72,50,0
402.01083,402.11044,70,43,0
402.10138,402.20245,69,45,0
402.19196,402.30624,70,42,0
402.2971,402.66263,79,56,0
402.9445,402.99146,70,44,0
403.03845,403.13834,72,50,0
403.12927,403.2292,70,43,0
403.2201,403.32144,69,45,0
403.3109,403.42508,70,42,0
403.41608,403.7761,77,55,0
404.05798,404.10495,70,44,0
404.15192,404.25528,72,50,0
404.24588,404.34924,70,43,0
404.33984,404.4443,69,45,0
404.4338,404.54807,70,42,0
404.53894,404.90335,72,52,0
404.90335,405.27917,77,49,0
405.27917,405.6659,75,48,0
405.6659,406.04056,73,55,0
406.04056,406.24237,74,49,0
406.34326,406.39026,70,44,0
406.43723,406.53683,72,50,0
406.52777,406.62738,70,43,0
406.61835,406.7194,69,45,0
406.7089,406.82318,70,42,0
406.81403,407.17957,79,56,0
407.46143,407.5084,70,44,0
407.5554,407.6553,72,50,0
407.6462,407.74612,70,43,0
407.73703,407.83838,69,45,0
407.82785,407.94202,70,42,0
407.933,408.29306,77,55,0
408.57492,408.6219,70,44,0
408.66888,408.77222,72,50,0
408.76282,408.86618,70,43,0
408.85678,408.96124,69,45,0
408.95074,409.065,70,42,0
409.05588,409.4203,72,52,0
409.4203,409.7961,75,49,0
409.7961,410.18918,69,48,0
410.18918,410.5547,70,55,0
411.28574,411.37915,79,77,0
411.28574,411.37915,70,64,0
411.28574,411.37915,74,64,0
411.65945,411.7537,67,64,0
412.41345,412.51044,74,75,0
412.41345,412.51044,66,63,0
412.41345,412.51044,69,63,0
412.80142,412.89597,62,67,0
413.5578,414.30246,63,43,0
414.30246,414.40485,65,36,0
414.39554,414.49844,63,36,0
414.48862,414.5967,62,36,0
414.58688,414.68515,63,36,0
414.68515,414.87073,72,42,0
414.87073,415.05634,70,37,0
415.05634,415.4275,70,43,0
415.4275,415.8167,70,38,0
415.8167,416.01328,70,39,0
416.00406,416.19772,75,45,0
416.1885,416.38217,74,44,0
416.37292,416.56662,73,42,0
416.55737,416.75174,72,40,0
416.74182,416.94962,71,38,0
416.9403,417.31262,70,41,0
418.05728,418.80194,63,45,0
418.80194,418.90433,65,42,0
418.89502,418.99792,63,39,0
418.9881,419.0962,62,42,0
419.08636,419.18463,63,40,0
419.18463,419.3702,72,54,0
419.3702,419.5558,71,48,0
419.5558,419.92697,71,53,0
419.92697,420.3162,71,47,0
420.3162,420.51273,72,50,0
420.5035,420.69717,79,58,0
420.68796,420.88162,75,56,0
420.8724,421.06607,74,54,0
421.05685,421.25122,72,51,0
421.2413,421.4491,70,49,0
421.4398,421.8121,69,50,0
422.55673,422.7533,70,59,0
422.74408,422.93774,86,62,0
422.92853,423.1222,82,61,0
423.11295,423.30664,81,60,0
423.2974,423.49176,79,58,0
423.48184,423.68964,77,57,0
423.68033,424.05264,76,62,0
424.89197,424.98813,77,46,0
424.98813,425.08395,76,49,0
425.08395,425.17935,77,44,0
425.17935,425.2744,79,49,0
425.2744,425.3691,77,44,0
425.3691,425.46353,76,49,0
425.46353,425.55756,77,44,0
425.65112,425.74435,77,49,0
425.74435,425.83704,81,54,0
425.83704,425.92917,77,49,0
426.0209,426.11264,77,53,0
426.11264,426.20435,82,57,0
426.20435,426.29605,77,52,0
426.38748,426.4789,77,55,0
426.4789,426.57037,87,61,0
426.57037,426.6618,77,57,0
426.75323,426.84467,77,57,0
426.84467,426.9439,86,64,0
426.9439,427.04315,77,57,0
427.04315,427.13757,84,65,0
427.13757,427.23065,81,60,0
427.23065,427.32373,79,65,0
427.32373,427.4168,77,60,0
427.4168,427.5099,76,57,0
427.5099,427.60297,77,59,0
427.60297,427.69604,79,60,0
427.69604,427.79013,77,56,0
427.8859,427.98157,77,49,0
427.98157,428.07703,81,53,0
428.07703,428.17227,77,49,0
428.26733,428.36218,77,52,0
428.36218,428.45688,82,58,0
428.45688,428.55124,77,54,0
428.64505,428.7385,77,55,0
428.7385,428.83145,87,61,0
428.83145,428.924,77,55,0
429.01642,429.1095,77,49,0
429.1095,429.20648,86,68,0
429.20648,429.3022,77,62,0
429.3022,429.395,84,73,0
429.395,429.4878,89,62,0
429.4878,429.58057,84,69,0
429.58057,429.6733,81,57,0
429.6733,429.76596,77,67,0
429.76596,429.8591,84,55,0
429.8591,429.95267,81,61,0
429.95267,430.04678,77,54,0
430.04678,430.1413,72,63,0
430.1413,430.2363,77,55,0
430.2363,430.3319,72,65,0
430.3319,430.4356,69,59,0
430.4356,430.53616,65,85,0
430.83786,431.28183,77,73,0
430.83786,431.28183,69,62,0
430.83786,431.28183,72,62,0
434.22864,434.27444,77,45,0
434.41196,434.45776,77,49,0
434.59528,434.64108,77,43,0
434.7786,434.82803,77,46,0
434.9764,435.02585,77,40,0
435.17422,435.3703,79,45,0
435.36096,435.55704,77,40,0
435.54773,435.7438,75,43,0
435.73447,435.9306,74,40,0
435.9212,436.11877,72,45,0
436.1091,436.25412,70,39,0
436.30246,436.3508,70,41,0
436.3508,436.39914,72,39,0
436.39914,436.49582,70,49,0
436.49582,436.68317,69,44,0
436.68317,437.0578,69,46,0
438.80603,438.85187,75,45,0
438.98935,439.0352,75,48,0
439.17267,439.2185,75,42,0
439.356,439.40546,75,44,0
439.55383,439.60327,75,40,0
439.75165,439.94772,77,45,0
439.9384,440.13446,75,40,0
440.12512,440.3212,74,40,0
440.31186,440.50793,72,40,0
440.4986,440.6957,70,45,0
440.68536,440.89276,69,39,0
440.89276,441.2628,70,47,0
441.44778,441.63968,74,47,0
441.63055,441.82285,72,45,0
441.81332,442.01346,70,40,0
442.0042,442.37424,69,47,0
442.55927,442.75116,79,52,0
442.742,442.93433,77,47,0
442.92477,443.1249,69,42,0
443.11566,443.48456,70,47,0
443.669,443.86032,74,47,0
443.8512,444.04303,72,45,0
444.03342,444.23477,70,40,0
444.22552,444.59442,69,47,0
444.77887,444.97018,78,52,0
444.9611,445.1528,77,47,0
445.14328,445.3428,69,42,0
445.3336,445.70245,70,47,0
445.89157,446.08173,77,55,0
446.07266,446.26334,73,53,0
446.25378,446.4545,72,50,0
446.44528,446.81418,71,56,0
446.99863,447.18994,80,58,0
447.18082,447.37262,79,52,0
447.36304,447.55515,71,48,0
447.55515,447.74823,74,56,0
447.739,447.93198,72,51,0
447.9229,448.1134,77,55,0
448.104,448.30096,76,51,0
448.29193,448.48248,75,50,0
448.47302,448.6621,74,49,0
448.6621,448.9405,72,54,0
448.9405,449.03973,74,48,0
449.03973,449.42032,70,54,0
449.42032,449.48376,69,50,0
449.48376,449.5472,70,44,0
449.5472,449.61063,69,50,0
449.61063,449.6582,70,44,0
449.6582,449.70578,69,50,0
449.70578,449.75336,67,42,0
449.75336,449.80072,69,45,0
449.80072,449.8941,70,49,0
449.8941,449.98746,65,46,0
449.98746,450.0808,64,49,0
450.0808,450.1739,65,44,0
450.1739,450.26697,67,49,0
450.26697,450.36005,65,44,0
450.36005,450.45114,64,49,0
450.45114,450.54227,65,44,0
450.54227,450.63336,63,49,0
450.63336,450.72455,65,49,0
450.72455,450.81998,62,54,0
450.81998,450.91537,65,49,0
450.91537,451.00873,60,49,0
451.00873,451.1021,65,46,0
451.1021,451.19543,64,49,0
451.19543,451.2885,65,44,0
451.2885,451.3816,67,49,0
451.3816,451.47467,65,44,0
451.47467,451.5658,64,49,0
451.5658,451.6569,65,44,0
451.6569,451.748,75,49,0
451.748,451.83917,65,49,0
451.83917,451.93463,75,54,0
451.93463,452.03,65,49,0
452.03,452.12335,74,49,0
452.12335,452.21674,77,46,0
452.21674,452.31006,76,49,0
452.31006,452.40314,77,44,0
452.40314,452.49625,79,49,0
452.49625,452.58932,77,44,0
452.58932,452.68042,76,49,0
452.68042,452.7715,77,44,0
452.7715,452.8626,75,49,0
452.8626,452.9538,77,49,0
452.9538,453.04926,74,54,0
453.04926,453.14462,77,49,0
453.14462,453.23798,72,49,0
453.23798,453.33136,77,46,0
453.33136,453.4247,76,49,0
453.4247,453.5178,77,44,0
453.5178,453.61087,79,49,0
453.61087,453.70395,77,44,0
453.70395,453.79504,76,49,0
453.79504,453.88614,77,44,0
453.88614,453.97726,87,49,0
453.97726,454.06842,77,49,0
454.06842,454.16388,87,54,0
454.16388,454.25925,77,49,0
454.25925,454.35263,86,49,0
454.35263,454.44598,77,46,0
454.44598,454.53934,76,49,0
454.53934,454.63242,77,44,0
454.63242,454.7255,79,49,0
454.7255,454.81857,77,44,0
454.81857,454.90967,76,49,0
454.90967,455.00076,77,44,0
455.00076,455.0927,80,49,0
455.0927,455.1847,77,49,0
455.1847,455.28015,75,54,0
455.28015,455.37552,77,49,0
455.37552,455.4689,74,49,0
455.4689,455.56226,79,46,0
455.56226,455.6556,78,49,0
455.6556,455.7487,79,44,0
455.7487,455.84506,81,49,0
455.84506,455.94144,79,44,0
455.94144,456.03253,78,52,0
456.03253,456.12363,79,44,0
456.12363,456.21613,89,55,0
456.21613,456.3087,79,49,0
456.3087,456.40506,89,57,0
456.40506,456.5013,79,49,0
456.5013,456.8691,88,62,0
456.8691,457.24002,87,60,0
457.24002,457.61444,86,57,0
457.61444,457.7165,86,60,0
457.7072,457.8093,84,52,0
457.80002,457.9028,87,52,0
457.8928,457.96774,84,52,0
457.9927,458.0948,84,62,0
458.0855,458.18756,82,52,0
458.17828,458.28036,86,52,0
458.2711,458.34067,82,52,0
458.3639,458.46594,82,62,0
458.45667,458.55923,81,52,0
458.54947,458.65686,84,52,0
458.6471,458.74472,81,52,0
458.74472,458.83957,82,54,0
458.83957,458.93442,86,57,0
458.93442,459.02692,89,58,0
459.02692,459.11942,87,60,0
459.11942,459.2119,86,58,0
459.2119,459.30444,84,56,0
459.30444,459.39694,82,54,0
459.39694,459.49487,81,52,0
459.49487,459.5874,79,55,0
459.5874,459.6799,77,51,0
459.6799,459.7724,75,50,0
459.7724,459.871,74,50,0
459.871,459.96555,72,50,0
459.96555,460.0601,75,53,0
460.0601,460.1526,79,56,0
460.1526,460.24512,77,55,0
460.24512,460.33762,75,54,0
460.33762,460.4301,74,53,0
460.4301,460.5226,72,52,0
460.5226,460.61514,70,50,0
460.61514,460.70764,69,49,0
460.70764,460.80014,67,50,0
460.80014,460.89264,65,53,0
460.89264,460.99008,64,56,0
460.99008,461.08405,65,59,0
461.17776,461.27124,70,59,0
461.3644,461.4574,74,61,0
461.55008,461.64258,77,62,0
461.7351,461.8276,82,64,0
461.9201,462.0126,86,65,0
462.12314,462.17212,72,37,0
462.17212,462.22095,74,31,0
462.22095,462.26974,72,37,0
462.26974,462.31836,74,31,0
462.31836,462.36685,72,37,0
462.36685,462.41522,74,32,0
462.41522,462.46353,72,37,0
462.46353,462.51166,74,33,0
462.51166,462.5597,72,37,0
462.5597,462.6076,74,32,0
462.6076,462.65546,72,37,0
462.65546,462.70316,74,32,0
462.70316,462.7507,72,37,0
462.7507,462.7982,74,31,0
462.7982,462.84555,72,37,0
462.84555,462.8928,74,33,0
462.8928,462.93997,72,37,0
462.93997,462.98727,74,32,0
462.98727,463.0506,72,37,0
463.0506,463.1143,74,32,0
463.1143,463.17828,72,37,0
463.17828,463.2265,70,33,0
463.2265,463.2749,72,33,0
463.2749,463.7041,70,49,0
464.4911,464.87534,75,46,0
464.87534,465.25958,77,50,0
465.25958,465.65134,79,51,0
465.65134,466.22958,77,51,0
466.22958,466.33557,79,48,0
466.32593,466.43195,77,43,0
466.4223,466.52832,75,50,0
466.51868,466.625,74,48,0
466.61505,466.72458,72,47,0
466.71463,466.81418,70,45,0
466.81418,467.3924,74,48,0
467.3924,467.58514,75,40,0
467.58514,467.9777,72,44,0
467.9777,468.36765,70,46,0
469.1418,469.33646,63,52,0
469.33646,469.52856,75,47,0
469.52856,469.7207,65,54,0
469.7207,469.9128,77,47,0
469.9128,470.10495,67,58,0
470.10495,470.30145,79,52,0
470.30145,470.4942,77,61,0
470.4942,470.59058,79,54,0
470.59058,470.68695,81,58,0
470.68695,470.78333,82,61,0
470.78333,470.87967,81,61,0
470.87967,470.97604,79,60,0
470.97604,471.07242,77,58,0
471.07242,471.1688,75,57,0
471.1688,471.26517,74,55,0
471.26517,471.36475,72,54,0
471.36475,471.4643,70,52,0
471.4643,472.0425,74,62,0
472.0425,472.23526,75,56,0
472.23526,472.6278,72,62,0
472.6278,473.01776,70,67,0
473.1138,473.20987,77,60,0
473.20987,473.30594,79,65,0
473.30594,473.402,77,60,0
473.402,473.49805,75,64,0
473.49805,473.59412,74,62,0
473.59412,473.70593,75,60,0
473.70593,473.81775,72,58,0
473.81775,474.21274,70,68,0
474.31036,474.408,65,60,0
474.408,474.5056,67,65,0
474.5056,474.60324,65,60,0
474.60324,474.71036,63,64,0
474.71036,474.81744,62,62,0
474.81744,474.9384,63,60,0
474.9384,475.0593,60,58,0
475.0593,475.2357,58,71,0
475.5633,476.06726,82,77,0
475.5633,476.06726,77,59,0
475.5633,476.06726,74,59,0
0.0,0.749298,58,40,0
0.749298,1.162663,53,36,0
1.162663,1.905007,50,40,0
1.905007,2.311373,53,38,0
2.311373,3.056021,58,41,0
3.056021,3.451669,62,43,0
3.451669,4.198635,65,45,0
4.569807,6.7494564,60,30,0
4.569807,6.7494564,53,30,0
4.569807,6.7494564,63,36,0
6.7494564,7.1127625,62,38,0
6.7494564,7.1127625,58,32,0
8.956188,11.17366,63,36,0
8.956188,11.17366,60,30,0
8.956188,11.17366,53,30,0
11.17366,11.2658825,62,40,0
11.17366,11.2658825,58,34,0
11.54255,11.639231,58,32,0
11.54255,11.639231,62,38,0
11.929273,12.036302,65,38,0
11.929273,12.036302,58,32,0
12.357386,12.733208,62,40,0
12.357386,12.733208,58,34,0
13.851358,14.2271805,55,25,0
13.851358,14.2271805,51,25,0
13.851358,14.2271805,58,30,0
14.9648485,15.340671,58,30,0
14.9648485,15.340671,53,25,0
14.9648485,15.340671,50,25,0
15.727689,16.854643,57,29,0
16.854643,17.229292,58,34,0
15.727689,17.229292,65,34,0
18.368301,18.744123,58,30,0
18.368301,18.744123,55,25,0
18.368301,18.744123,51,25,0
19.48179,19.857613,58,30,0
19.48179,19.857613,53,25,0
19.48179,19.857613,50,25,0
20.24463,20.609041,57,34,0
20.609041,20.984863,60,31,0
20.984863,21.377918,63,29,0
20.24463,21.377918,53,29,0
21.377918,21.743437,58,28,0
21.377918,21.743437,62,34,0
22.474476,22.570538,55,73,0
22.858723,22.952972,43,66,0
23.612728,23.70972,50,73,0
24.0007,24.09525,38,66,0
24.757082,24.943245,55,33,0
24.943245,25.129406,58,23,0
25.129406,25.315569,55,27,0
25.315569,25.50173,58,22,0
25.50173,25.687893,55,26,0
25.687893,25.88442,58,22,0
24.757082,25.88442,51,20,0
25.88442,26.070007,56,36,0
26.070007,26.255592,58,23,0
26.255592,26.44118,56,27,0
26.44118,26.626764,58,23,0
26.626764,26.82138,56,27,0
26.82138,27.015995,58,24,0
25.88442,27.015995,50,20,0
27.015995,27.20332,55,33,0
27.20332,27.387766,58,23,0
27.387766,27.57221,55,27,0
27.57221,27.756655,58,23,0
27.756655,27.941101,55,27,0
27.941101,28.139578,58,25,0
27.015995,28.139578,51,20,0
28.139578,28.32574,56,33,0
28.32574,28.511902,58,27,0
28.511902,28.698065,56,27,0
28.698065,28.884226,58,24,0
28.884226,29.070389,56,27,0
29.070389,29.25655,58,23,0
28.139578,29.25655,50,20,0
29.25655,29.442713,55,35,0
29.442713,29.628874,58,24,0
29.628874,29.815037,55,28,0
29.815037,30.001198,58,23,0
30.001198,30.18736,55,27,0
30.18736,30.383888,58,23,0
29.25655,30.383888,51,21,0
30.383888,30.569475,53,38,0
30.569475,30.75506,56,24,0
30.75506,30.940647,53,32,0
30.940647,31.126232,56,28,0
31.126232,31.320848,53,32,0
31.320848,31.515463,56,27,0
30.383888,31.515463,50,21,0
31.515463,31.702787,55,37,0
31.702787,31.887234,60,32,0
31.887234,32.07168,55,34,0
32.07168,32.256123,60,29,0
32.256123,32.440567,55,30,0
32.440567,32.639046,60,28,0
31.515463,32.639046,51,23,0
32.639046,32.82521,53,37,0
32.82521,33.01137,60,30,0
33.01137,33.197533,53,30,0
33.197533,33.393,60,27,0
33.383694,33.56986,53,30,0
33.56986,33.75602,60,26,0
32.639046,33.75602,51,23,0
33.75602,33.943344,53,44,0
33.943344,34.12779,58,30,0
34.12779,34.312233,53,36,0
34.312233,34.496677,58,30,0
34.496677,34.68112,53,36,0
34.68112,34.8796,58,33,0
33.75602,34.8796,50,27,0
34.8796,35.065765,55,44,0
35.065765,35.251926,58,36,0
35.251926,35.438087,55,36,0
35.438087,35.633556,58,31,0
35.62425,35.810413,55,36,0
35.810413,35.996574,58,30,0
34.8796,35.996574,48,27,0
35.996574,36.1839,53,44,0
36.1839,36.368343,57,28,0
36.368343,36.552788,53,36,0
36.552788,36.737232,57,28,0
36.737232,36.921677,53,35,0
36.921677,37.120155,57,27,0
35.996574,37.120155,50,27,0
37.120155,37.30632,62,37,0
37.30632,37.49248,65,36,0
37.49248,37.678642,62,36,0
37.678642,37.87411,65,30,0
37.864803,38.05097,62,36,0
38.05097,38.23887,65,30,0
37.120155,38.23887,55,37,0
38.23887,38.622765,64,44,0
38.23887,38.622765,60,44,0
39.00098,39.1883,70,50,0
39.375034,39.561195,69,55,0
39.747356,39.93352,64,59,0
40.119682,40.305843,65,57,0
40.504322,40.87798,60,62,0
41.25129,41.442757,70,50,0
41.633434,41.823357,69,58,0
42.012608,42.20097,64,62,0
42.388367,42.574734,65,56,0
42.767452,43.138557,60,61,0
43.60656,43.701553,60,47,0
43.701553,43.797146,55,54,0
43.797146,43.900845,52,47,0
43.900845,44.001415,48,69,0
44.303123,44.747074,36,59,0
45.191025,45.957546,53,34,0
45.940323,46.353687,48,30,0
46.353687,47.112965,45,34,0
47.096035,47.5024,48,32,0
47.5024,48.255,53,34,0
48.238514,48.634163,57,36,0
48.634163,49.007645,60,38,0
49.7624,50.53496,58,34,0
50.51774,50.931103,55,30,0
50.931103,51.690376,52,34,0
51.673447,52.07981,55,32,0
52.07981,52.832413,58,34,0
52.81593,53.211575,64,36,0
53.211575,53.58506,67,38,0
54.35268,54.537693,69,35,0
54.537693,54.72271,72,28,0
54.72271,54.907722,69,35,0
54.907722,55.09048,72,25,0
55.09048,55.273243,69,32,0
55.273243,55.46414,72,24,0
55.46414,55.649155,70,35,0
55.649155,55.83417,72,31,0
55.83417,56.019184,70,35,0
56.019184,56.201942,72,26,0
56.201942,56.3847,70,33,0
56.3847,56.575603,72,29,0
56.575603,56.760048,69,35,0
56.760048,56.944492,72,30,0
56.944492,57.128937,69,32,0
57.128937,57.311142,72,24,0
57.311142,57.493347,69,32,0
57.493347,57.68547,72,25,0
57.68547,57.869915,70,35,0
57.869915,58.05436,72,31,0
58.05436,58.238804,70,35,0
58.238804,58.42101,72,26,0
58.42101,58.603214,70,33,0
58.603214,58.79351,72,29,0
58.79351,58.977955,69,35,0
58.977955,59.1624,72,30,0
59.1624,59.351494,69,32,0
59.351494,59.5326,72,28,0
59.5326,59.713703,69,38,0
59.713703,59.905212,72,31,0
59.905212,60.089657,69,40,0
60.089657,60.2741,72,34,0
60.2741,60.45855,69,38,0
60.45855,60.64075,72,32,0
60.64075,60.822956,69,39,0
60.822956,61.01508,72,32,0
59.905212,61.01508,62,40,0
61.01508,61.38284,70,39,0
61.01508,61.38284,67,39,0
61.38284,61.751854,64,35,0
61.751854,62.122055,65,35,0
61.38284,62.122055,72,35,0
62.122055,62.499676,70,43,0
62.122055,62.499676,58,43,0
62.499676,62.880264,69,40,0
62.880264,63.260662,67,40,0
62.499676,63.260662,60,40,0
63.260662,63.633823,65,40,0
63.819984,64.00219,57,49,0
64.00219,64.18447,55,55,0
64.18447,64.37529,53,48,0
64.37529,64.74845,52,48,0
64.934616,65.11682,62,45,0
65.11682,65.2991,60,50,0
65.2991,65.48992,52,45,0
65.48992,65.86308,53,40,0
66.04925,66.23145,57,50,0
66.23145,66.41373,55,55,0
66.41373,66.60455,53,47,0
66.60455,66.977715,52,47,0
67.16387,67.34608,62,45,0
67.34608,67.52836,60,50,0
67.52836,67.719185,52,45,0
67.719185,68.09235,53,40,0
68.2785,68.46071,60,47,0
68.46071,68.64464,57,52,0
68.64464,68.83546,55,47,0
68.83546,69.20862,54,44,0
69.40136,69.583565,63,45,0
69.583565,69.76861,62,50,0
69.76861,69.961235,54,45,0
69.961235,70.05308,55,42,0
70.05308,70.14484,62,33,0
70.14484,70.23682,59,36,0
70.23682,70.32904,62,33,0
70.32904,70.42144,52,38,0
70.42144,70.51405,61,33,0
70.51405,70.60688,55,36,0
70.60688,70.69996,61,33,0
70.69996,70.79322,53,39,0
70.79322,70.8867,60,33,0
70.8867,70.9804,57,37,0
70.9804,71.074356,60,37,0
71.074356,71.45264,58,37,0
71.074356,71.45264,46,31,0
71.45264,71.82381,57,37,0
71.45264,71.82381,48,31,0
71.82381,72.20464,55,37,0
71.82381,72.20464,46,31,0
72.20464,72.57935,53,40,0
72.20464,72.57935,45,34,0
72.95482,73.330925,57,31,0
72.95482,73.330925,60,37,0
73.330925,73.70503,62,44,0
73.330925,73.70503,58,37,0
74.075066,74.45003,55,37,0
74.075066,74.45003,53,31,0
74.075066,74.45003,50,31,0
74.45003,74.54398,48,45,0
74.54398,74.63768,57,37,0
74.63768,74.73116,53,40,0
74.73116,74.82435,57,37,0
74.82435,74.91733,48,45,0
74.91733,75.01001,57,37,0
75.01001,75.102516,53,40,0
75.102516,75.19502,57,37,0
75.19502,75.28753,48,48,0
75.28753,75.380035,57,37,0
75.380035,75.47254,53,41,0
75.47254,75.571335,57,37,0
75.571335,75.66916,48,45,0
75.66916,75.76655,58,37,0
75.76655,75.86343,52,40,0
75.86343,75.95987,58,37,0
75.95987,76.05582,48,45,0
76.05582,76.151344,58,37,0
76.151344,76.246376,52,40,0
76.246376,76.341,58,37,0
76.341,76.43548,48,48,0
76.43548,76.530624,58,37,0
76.530624,76.626495,52,41,0
76.626495,76.7231,58,37,0
76.7231,76.96187,53,41,0
76.95184,77.16201,57,28,0
77.15231,77.355995,60,35,0
77.3463,77.54998,65,34,0
77.54028,77.74432,64,32,0
77.73427,77.945015,63,30,0
77.93541,78.12753,62,28,0
78.12753,78.31966,65,21,0
78.31966,78.51178,60,31,0
78.51178,78.7039,65,24,0
78.7039,78.89979,58,31,0
78.89979,79.09567,65,25,0
79.09567,79.288414,57,31,0
79.288414,79.481155,65,28,0
79.481155,79.6739,64,31,0
79.6739,79.86664,65,28,0
79.86664,80.05937,58,31,0
80.05937,80.258514,67,27,0
80.258514,80.451256,60,31,0
80.451256,80.64399,69,27,0
80.64399,80.83673,65,31,0
80.83673,81.02947,69,29,0
81.02947,81.22221,60,31,0
81.22221,81.42201,70,27,0
81.42201,81.619835,69,31,0
81.619835,81.81196,65,24,0
81.81196,82.00408,64,30,0
82.00408,82.196205,63,26,0
82.196205,82.38833,62,29,0
82.38833,82.58615,61,31,0
82.58615,82.78077,62,28,0
82.78077,82.97289,65,27,0
82.97289,83.165016,60,38,0
83.165016,83.35714,64,32,0
83.35714,83.54926,59,40,0
83.54926,83.74579,68,34,0
83.74579,83.93853,60,41,0
83.93853,84.13127,69,35,0
84.13127,84.324005,65,38,0
84.324005,84.51675,69,33,0
84.51675,84.70949,60,40,0
84.70949,84.90862,69,35,0
84.90862,85.101364,60,41,0
85.101364,85.294106,72,33,0
85.294106,85.48685,69,43,0
85.48685,85.67959,72,33,0
85.67959,85.87232,60,45,0
85.87232,86.07213,70,38,0
86.171036,86.26995,53,54,0
86.26995,86.36601,57,56,0
86.36601,86.462074,60,59,0
86.462074,86.6542,65,61,0
86.84632,87.038445,64,54,0
86.84632,87.038445,60,54,0
87.360985,87.45989,41,54,0
87.45989,87.555954,45,56,0
87.555954,87.652016,48,59,0
87.652016,87.84414,53,61,0
88.03626,88.228386,52,54,0
88.03626,88.228386,48,54,0
88.45202,88.563835,53,59,0
88.89928,89.34654,41,59,0
89.7938,90.5431,58,40,0
90.5431,90.95647,53,36,0
90.95647,91.69881,50,40,0
91.69881,92.10517,53,38,0
92.10517,92.84982,58,41,0
92.84982,93.24547,62,43,0
93.24547,93.99244,65,45,0
94.360435,96.54444,60,30,0
94.360435,96.54444,53,30,0
94.360435,96.54444,63,36,0
96.54444,96.907745,62,38,0
96.54444,96.907745,58,32,0
98.7556,100.97307,63,36,0
98.7556,100.97307,60,30,0
98.7556,100.97307,53,30,0
100.97307,101.06451,62,40,0
100.97307,101.06451,58,34,0
101.33881,101.43618,58,32,0
101.33881,101.43618,62,38,0
101.728294,101.83532,65,38,0
101.728294,101.83532,58,32,0
102.15641,102.53223,62,40,0
102.15641,102.53223,58,34,0
103.65038,104.0262,55,25,0
103.65038,104.0262,51,25,0
103.65038,104.0262,58,30,0
104.76387,105.139694,58,30,0
104.76387,105.139694,53,25,0
104.76387,105.139694,50,25,0
105.52671,106.65366,57,29,0
106.65366,107.02831,58,34,0
105.52671,107.02831,65,34,0
108.16667,108.54249,58,30,0
108.16667,108.54249,55,25,0
108.16667,108.54249,51,25,0
109.27868,109.6545,58,30,0
109.27868,109.6545,53,25,0
109.27868,109.6545,50,25,0
110.04152,110.40593,57,34,0
110.40593,110.78175,60,31,0
110.78175,111.17481,63,29,0
110.04152,111.17481,53,29,0
111.17481,111.54033,58,28,0
111.17481,111.54033,62,34,0
112.27137,112.36509,55,73,0
112.64625,112.7405,43,66,0
113.40025,113.497246,50,73,0
113.78823,113.882774,38,66,0
114.54461,114.730774,55,33,0
114.730774,114.91693,58,23,0
114.91693,115.103096,55,27,0
115.103096,115.28926,58,22,0
115.28926,115.47542,55,26,0
115.47542,115.67195,58,22,0
114.54461,115.67195,51,20,0
115.67195,115.85754,56,36,0
115.85754,116.04312,58,23,0
116.04312,116.22871,56,27,0
116.22871,116.41429,58,23,0
116.41429,116.60891,56,27,0
116.60891,116.80352,58,24,0
115.67195,116.80352,50,20,0
116.80352,116.990845,55,33,0
116.990845,117.17529,58,23,0
117.17529,117.35974,55,27,0
117.35974,117.54418,58,23,0
117.54418,117.72863,55,27,0
117.72863,117.92711,58,25,0
116.80352,117.92711,51,20,0
117.92711,118.113266,56,33,0
118.113266,118.29943,58,27,0
118.29943,118.485596,56,27,0
118.485596,118.67175,58,24,0
118.67175,118.85792,56,27,0
118.85792,119.04408,58,23,0
117.92711,119.04408,50,20,0
119.04408,119.23024,55,35,0
119.23024,119.416405,58,24,0
119.416405,119.60256,55,28,0
119.60256,119.78873,58,23,0
119.78873,119.97489,55,27,0
119.97489,120.17142,58,23,0
119.04408,120.17142,51,21,0
120.17142,120.357,53,38,0
120.357,120.54259,56,24,0
120.54259,120.72817,53,32,0
120.72817,120.91376,56,28,0
120.91376,121.108376,53,32,0
121.108376,121.30299,56,27,0
120.17142,121.30299,50,21,0
121.30299,121.49032,55,37,0
121.49032,121.67476,60,32,0
121.67476,121.85921,55,34,0
121.85921,122.04365,60,29,0
122.04365,122.228096,55,30,0
122.228096,122.426575,60,28,0
121.30299,122.426575,51,23,0
122.426575,122.61274,53,37,0
122.61274,122.7989,60,30,0
122.7989,122.98506,53,30,0
122.98506,123.180534,60,27,0
123.17123,123.35738,53,30,0
123.35738,123.54355,60,26,0
122.426575,123.54355,51,23,0
123.54355,123.73087,53,44,0
123.73087,123.91531,58,30,0
123.91531,124.09976,53,36,0
124.09976,124.28421,58,30,0
124.28421,124.46865,53,36,0
124.46865,124.66713,58,33,0
123.54355,124.66713,50,27,0
124.66713,124.853294,55,44,0
124.853294,125.03945,58,36,0
125.03945,125.22562,55,36,0
125.22562,125.42109,58,31,0
125.41178,125.59794,55,36,0
125.59794,125.7841,58,30,0
124.66713,125.7841,48,27,0
125.7841,125.97143,53,44,0
125.97143,126.15587,57,28,0
126.15587,126.34032,53,36,0
126.34032,126.524765,57,28,0
126.524765,126.709206,53,35,0
126.709206,126.907684,57,27,0
125.7841,126.907684,50,27,0
126.907684,127.09385,62,37,0
127.09385,127.28001,65,36,0
127.28001,127.46617,62,36,0
127.46617,127.661644,65,30,0
127.652336,127.83849,62,36,0
127.83849,128.0264,65,30,0
126.907684,128.0264,55,37,0
128.0264,128.4103,64,44,0
128.0264,128.4103,60,44,0
128.78851,128.97583,70,50,0
129.16257,129.34712,69,55,0
129.53168,129.71623,64,59,0
129.9008,130.08592,65,57,0
130.28441,130.65807,60,62,0
131.03137,131.22554,70,50,0
131.4164,131.60493,69,58,0
131.79243,131.97879,64,62,0
132.16391,132.34789,65,56,0
132.5406,132.91171,60,61,0
133.37971,133.4747,60,47,0
133.4747,133.5703,55,54,0
133.5703,133.674,52,47,0
133.674,133.77567,48,69,0
134.08064,134.5246,36,59,0
134.96854,135.73506,53,34,0
135.71783,136.13121,48,30,0
136.13121,136.89049,45,34,0
136.87355,137.2799,48,32,0
137.2799,138.03252,53,34,0
138.01604,138.41168,57,36,0
138.41168,138.78516,60,38,0
139.53992,140.31247,58,34,0
140.29526,140.70862,55,30,0
140.70862,141.4679,52,34,0
141.45096,141.85733,55,32,0
141.85733,142.60793,58,34,0
142.59143,142.98709,64,36,0
142.98709,143.36057,67,38,0
144.12819,144.3132,69,35,0
144.3132,144.49821,72,28,0
144.49821,144.68323,69,35,0
144.68323,144.866,72,25,0
144.866,145.04776,69,32,0
145.04776,145.23866,72,24,0
145.23866,145.42368,70,35,0
145.42368,145.60869,72,31,0
145.60869,145.7937,70,35,0
145.7937,145.97646,72,26,0
145.97646,146.15822,70,33,0
146.15822,146.34912,72,29,0
146.34912,146.53357,69,35,0
146.53357,146.71802,72,30,0
146.71802,146.90245,69,32,0
146.90245,147.08466,72,24,0
147.08466,147.26686,69,32,0
147.26686,147.45898,72,25,0
147.45898,147.64343,70,35,0
147.64343,147.82788,72,31,0
147.82788,148.01233,70,35,0
148.01233,148.19453,72,26,0
148.19453,148.37672,70,33,0
148.37672,148.56703,72,29,0
148.56703,148.75146,69,35,0
148.75146,148.93591,72,30,0
148.93591,149.12502,69,32,0
149.12502,149.30612,72,28,0
149.30612,149.48723,69,38,0
149.48723,149.67873,72,31,0
149.67873,149.86317,69,40,0
149.86317,150.04762,72,34,0
150.04762,150.23207,69,38,0
150.23207,150.41428,72,32,0
150.41428,150.59648,69,39,0
150.59648,150.7886,72,32,0
149.67873,150.7886,62,40,0
150.7886,151.15636,70,39,0
150.7886,151.15636,67,39,0
151.15636,151.52538,64,35,0
151.52538,151.89557,65,35,0
151.15636,151.89557,72,35,0
151.89557,152.2732,70,43,0
151.89557,152.2732,58,43,0
152.2732,152.65378,69,40,0
152.65378,153.03418,67,40,0
152.2732,153.03418,60,40,0
153.03418,153.40733,65,40,0
153.5935,153.77571,57,49,0
153.77571,153.958,55,55,0
153.958,154.1488,53,48,0
154.1488,154.52197,52,48,0
154.70813,154.89034,62,45,0
154.89034,155.07262,60,50,0
155.07262,155.26344,52,45,0
155.26344,155.6366,53,40,0
155.82277,156.00497,57,50,0
156.00497,156.18573,55,55,0
156.18573,156.37656,53,47,0
156.37656,156.74973,52,47,0
156.93588,157.11809,62,45,0
157.11809,157.2994,60,50,0
157.2994,157.49022,52,45,0
157.49022,157.86337,53,40,0
158.04955,158.23175,60,47,0
158.23175,158.41414,57,52,0
158.41414,158.60495,55,47,0
158.60495,158.97812,54,44,0
159.17085,159.35306,63,45,0
159.35306,159.53654,62,50,0
159.53654,159.72917,54,45,0
159.72917,159.82101,55,42,0
159.82101,159.91278,62,33,0
159.91278,160.00475,59,36,0
160.00475,160.09697,62,33,0
160.09697,160.18938,52,38,0
160.18938,160.28198,61,33,0
160.28198,160.37482,55,36,0
160.37482,160.4679,61,33,0
160.4679,160.56116,53,39,0
160.56116,160.65465,60,33,0
160.65465,160.74834,57,37,0
160.74834,160.8423,60,37,0
160.8423,161.22058,58,37,0
160.8423,161.22058,46,31,0
161.22058,161.59175,57,37,0
161.22058,161.59175,48,31,0
161.59175,161.97258,55,37,0
161.59175,161.97258,46,31,0
161.97258,162.34729,53,40,0
161.97258,162.34729,45,34,0
162.72275,163.09886,57,31,0
162.72275,163.09886,60,37,0
163.09886,163.47298,62,44,0
163.09886,163.47298,58,37,0
163.843,164.21797,55,37,0
163.843,164.21797,53,31,0
163.843,164.21797,50,31,0
164.21797,164.31308,48,45,0
164.31308,164.40765,57,37,0
164.40765,164.50104,53,40,0
164.50104,164.59404,57,37,0
164.59404,164.68701,48,45,0
164.68701,164.7797,57,37,0
164.7797,164.87221,53,40,0
164.87221,164.9647,57,37,0
164.9647,165.05722,48,48,0
165.05722,165.14972,57,37,0
165.14972,165.24223,53,41,0
165.24223,165.34102,57,37,0
165.34102,165.43884,48,45,0
165.43884,165.53624,58,37,0
165.53624,165.6331,52,40,0
165.6331,165.72955,58,37,0
165.72955,165.8255,48,45,0
165.8255,165.92104,58,37,0
165.92104,166.01607,52,40,0
166.01607,166.11069,58,37,0
166.11069,166.20515,48,48,0
166.20515,166.30031,58,37,0
166.30031,166.39618,52,41,0
166.39618,166.49278,58,37,0
166.49278,166.73155,53,41,0
166.72153,166.9318,57,28,0
166.922,167.1278,60,35,0
167.11801,167.32373,65,34,0
167.31403,167.51819,64,32,0
167.50813,167.71889,63,30,0
167.70927,167.9014,62,28,0
167.9014,168.09352,65,21,0
168.09352,168.28564,60,31,0
168.28564,168.47777,65,24,0
168.47777,168.67366,58,31,0
168.67366,168.86954,65,25,0
168.86954,169.06229,57,31,0
169.06229,169.25502,65,28,0
169.25502,169.44777,64,31,0
169.44777,169.6405,65,28,0
169.6405,169.83324,58,31,0
169.83324,170.03238,67,27,0
170.03238,170.22511,60,31,0
170.22511,170.41786,69,27,0
170.41786,170.6106,65,31,0
170.6106,170.80334,69,29,0
170.80334,170.99608,60,31,0
170.99608,171.19588,70,27,0
171.19588,171.3937,69,31,0
171.3937,171.58583,65,24,0
171.58583,171.77802,64,30,0
171.77802,171.97026,63,26,0
171.97026,172.16312,62,29,0
172.16312,172.36095,61,31,0
172.36095,172.55556,62,28,0
172.55556,172.74768,65,27,0
172.74768,172.9398,60,38,0
172.9398,173.13193,64,32,0
173.13193,173.32405,59,40,0
173.32405,173.52058,68,34,0
173.52058,173.71332,60,41,0
173.71332,173.90607,69,35,0
173.90607,174.0988,65,38,0
174.0988,174.29153,69,33,0
174.29153,174.48428,60,40,0
174.48428,174.68341,69,35,0
174.68341,174.87616,60,41,0
174.87616,175.0689,72,33,0
175.0689,175.26164,69,43,0
175.26164,175.45438,72,33,0
175.45438,175.64711,60,45,0
175.64711,175.84692,70,38,0
175.94583,176.04474,53,54,0
176.04474,176.14081,57,56,0
176.14081,176.23686,60,59,0
176.23686,176.42899,65,61,0
176.6194,176.80981,64,54,0
176.6194,176.80981,60,54,0
177.13235,177.23128,41,54,0
177.23128,177.32733,45,56,0
177.32733,177.4234,48,59,0
177.4234,177.61552,53,61,0
177.80653,177.99756,52,54,0
177.80653,177.99756,48,54,0
178.22119,178.33301,53,59,0
178.66846,179.11572,41,59,0
179.56297,180.04822,51,59,0
180.04822,180.53346,39,59,0
181.01869,181.20486,53,33,0
181.20486,181.39102,56,23,0
181.39102,181.57718,53,27,0
181.57718,181.76335,56,22,0
181.76335,181.94951,53,26,0
181.94951,182.14604,56,22,0
181.01869,182.14604,49,20,0
182.14604,182.33162,54,36,0
182.33162,182.51721,56,23,0
182.51721,182.70279,54,27,0
182.70279,182.88838,56,23,0
182.88838,183.083,54,27,0
183.083,183.27762,56,24,0
182.14604,183.27762,48,20,0
183.27762,183.46494,53,33,0
183.46494,183.64938,56,23,0
183.64938,183.83383,53,27,0
183.83383,184.01726,56,23,0
184.01726,184.2017,53,27,0
184.2017,184.40018,56,25,0
183.27762,184.40018,49,20,0
184.40018,184.58635,54,31,0
184.58635,184.7725,56,27,0
184.7725,184.95866,54,27,0
184.95866,185.14482,56,24,0
185.14482,185.331,54,27,0
185.331,185.51715,56,23,0
184.40018,185.51715,48,20,0
185.51715,185.70331,53,35,0
185.70331,185.88948,56,24,0
185.88948,186.07564,53,28,0
186.07564,186.2618,56,23,0
186.2618,186.44797,53,27,0
186.44797,186.64449,56,23,0
185.51715,186.64449,49,21,0
186.64449,186.83008,51,38,0
186.83008,187.01566,54,24,0
187.01566,187.20125,51,32,0
187.20125,187.38684,54,28,0
187.38684,187.58145,51,32,0
187.58145,187.77606,54,27,0
186.64449,187.77606,48,21,0
187.77606,187.9634,53,37,0
187.9634,188.14784,58,32,0
188.14784,188.33228,53,34,0
188.33228,188.51672,58,29,0
188.51672,188.70117,53,30,0
188.70117,188.89964,58,28,0
187.77606,188.89964,49,23,0
188.89964,189.08582,58,37,0
189.08582,189.27197,61,30,0
189.27197,189.45813,58,30,0
189.45813,189.65361,61,27,0
189.6443,189.83046,58,30,0
189.83046,190.01662,61,26,0
188.89964,190.01662,52,23,0
190.01662,190.20395,56,40,0
190.20395,190.3884,60,28,0
190.3884,190.57283,56,33,0
190.57283,190.75627,60,28,0
190.75627,190.9407,56,36,0
190.9407,191.13919,60,32,0
190.01662,191.13919,53,25,0
191.13919,191.32535,62,36,0
191.32535,191.5115,65,29,0
191.5115,191.69768,62,34,0
191.69768,191.89314,65,28,0
191.88383,192.06999,62,35,0
192.06999,192.25616,65,28,0
191.13919,192.25616,55,36,0
192.25616,192.44348,60,42,0
192.44348,192.62793,63,26,0
192.62793,192.81238,60,38,0
192.81238,192.99683,63,31,0
192.99683,193.18025,60,38,0
193.18025,193.37872,63,35,0
192.25616,193.37872,56,42,0
193.37872,193.5649,60,41,0
193.5649,193.75105,62,33,0
193.75105,193.93721,60,37,0
193.93721,194.13269,62,28,0
194.12338,194.30954,60,35,0
194.30954,194.49744,62,28,0
193.37872,194.49744,57,41,0
194.49744,194.68477,62,36,0
194.68477,194.86922,67,29,0
194.86922,195.05365,62,34,0
195.05365,195.2381,67,28,0
195.2381,195.42255,62,34,0
195.42255,195.62102,67,27,0
194.49744,195.62102,58,22,0
195.62102,195.80719,67,36,0
195.80719,195.99335,69,28,0
195.99335,196.1795,67,34,0
196.1795,196.37498,69,27,0
196.36568,196.55183,67,34,0
196.55183,196.73973,69,25,0
195.62102,196.73973,63,29,0
196.73973,197.12363,66,44,0
196.73973,197.12363,62,44,0
197.50185,197.68916,72,47,0
197.8759,198.06206,70,51,0
198.24823,198.43335,66,58,0
198.61848,198.8036,67,54,0
199.00209,199.37575,62,53,0
199.74905,199.94052,72,48,0
200.1312,200.32112,70,57,0
200.51038,200.69873,66,59,0
200.88612,201.0725,67,54,0
201.26521,201.63632,62,58,0
202.10432,202.19931,62,47,0
202.19931,202.2949,57,54,0
202.2949,202.3986,54,47,0
202.3986,202.49918,50,69,0
202.80089,203.24484,38,59,0
203.6888,204.4553,55,34,0
204.4381,204.85146,50,30,0
204.85146,205.61073,47,34,0
205.5938,206.00017,50,32,0
206.00017,206.75276,55,34,0
206.73628,207.13193,59,36,0
207.13193,207.50542,62,38,0
208.26016,209.03273,55,34,0
209.0155,209.42886,50,30,0
209.42886,210.18814,47,34,0
210.1712,210.57758,50,32,0
210.57758,211.33018,55,34,0
211.31369,211.70934,59,36,0
211.70934,212.08282,62,38,0
215.34798,215.39381,55,39,0
215.5313,215.57713,55,42,0
215.71461,215.76045,55,37,0
215.89793,215.94739,55,39,0
216.09576,216.14522,55,35,0
216.29358,216.48965,56,39,0
216.48032,216.6764,55,35,0
216.66707,216.86314,53,37,0
216.8538,217.04994,51,35,0
217.04054,217.23813,50,39,0
217.22845,217.42181,48,34,0
217.42181,217.61519,48,35,0
217.61519,217.8025,46,38,0
217.8025,218.17715,46,39,0
219.92538,219.97122,58,39,0
220.1087,220.15454,58,41,0
220.29202,220.33786,58,36,0
220.47534,220.5248,58,38,0
220.67317,220.72263,58,35,0
220.87099,221.06708,60,39,0
221.05774,221.25372,58,35,0
221.24448,221.43874,56,35,0
221.42949,221.62375,55,35,0
221.6145,221.80989,53,39,0
221.79951,222.00691,52,34,0
222.00691,222.75952,53,40,0
223.13869,223.51216,65,34,0
223.13869,223.51216,62,28,0
223.51216,223.88333,67,34,0
223.51216,223.88333,63,28,0
223.88333,224.2646,69,34,0
223.88333,224.2646,65,28,0
223.13869,224.2646,58,28,0
224.2646,224.6341,67,34,0
224.2646,224.6341,63,28,0
225.39638,225.76985,63,34,0
225.39638,225.76985,60,28,0
225.76985,226.13988,65,34,0
225.76985,226.13988,62,28,0
226.13988,226.52115,67,34,0
226.13988,226.52115,63,28,0
225.39638,226.52115,56,28,0
226.52115,226.89064,65,34,0
226.52115,226.89064,62,28,0
227.65292,228.0264,62,34,0
227.65292,228.0264,59,28,0
228.0264,228.39642,63,34,0
228.0264,228.39642,60,28,0
228.39642,228.77771,65,34,0
228.39642,228.77771,62,28,0
227.65292,228.77771,55,28,0
228.77771,229.15118,63,37,0
228.77771,229.15118,60,30,0
229.52121,229.90248,63,37,0
229.52121,229.90248,53,30,0
229.90248,230.27597,62,37,0
229.90248,230.27597,55,30,0
230.646,231.02727,67,37,0
230.646,231.02727,63,30,0
231.22063,231.26646,65,42,0
231.40395,231.44978,65,45,0
231.58727,231.6331,65,39,0
231.77058,231.82004,65,41,0
231.96841,232.01787,65,38,0
232.16623,232.3623,66,42,0
232.35298,232.54897,65,38,0
232.53972,232.73398,63,38,0
232.72473,232.91899,61,38,0
232.90974,233.10513,60,42,0
233.09476,233.30215,58,37,0
233.49551,233.54135,53,42,0
233.67883,233.72467,53,45,0
233.86215,233.90799,53,39,0
234.04547,234.09492,53,41,0
234.2433,234.29276,53,38,0
234.44112,234.63719,54,42,0
234.62785,234.82385,53,38,0
234.8146,235.00887,51,38,0
234.99962,235.19388,49,38,0
235.18463,235.38002,48,42,0
235.36964,235.57704,46,37,0
235.57704,235.96776,41,42,0
236.73004,239.50842,57,29,0
236.73004,239.50842,63,37,0
236.73004,239.50842,53,29,0
240.38522,241.13452,58,33,0
241.13452,241.54788,53,31,0
241.54788,242.29024,50,37,0
242.29024,242.6966,53,38,0
242.6966,243.44125,58,41,0
243.44125,243.8369,62,43,0
243.8369,244.58386,65,43,0
244.95715,247.14279,60,30,0
244.95715,247.14279,53,30,0
244.95715,247.14279,63,36,0
247.14279,247.5061,62,38,0
247.14279,247.5061,58,32,0
249.35162,251.56909,63,36,0
249.35162,251.56909,60,30,0
249.35162,251.56909,53,30,0
251.56909,251.66132,62,40,0
251.56909,251.66132,58,34,0
251.93799,252.03467,58,32,0
251.93799,252.03467,62,38,0
252.3247,252.43173,65,38,0
252.3247,252.43173,58,32,0
252.75282,253.12863,62,40,0
252.75282,253.12863,58,34,0
254.2468,254.6226,55,25,0
254.2468,254.6226,51,25,0
254.2468,254.6226,58,30,0
255.36028,255.7361,58,30,0
255.36028,255.7361,53,25,0
255.36028,255.7361,50,25,0
256.1231,257.25006,57,29,0
257.25006,257.62473,58,34,0
256.1231,257.62473,65,34,0
258.76373,259.13956,58,30,0
258.76373,259.13956,55,25,0
258.76373,259.13956,51,25,0
259.87723,260.25305,58,30,0
259.87723,260.25305,53,25,0
259.87723,260.25305,50,25,0
260.64008,261.0045,57,34,0
261.0045,261.38028,60,31,0
261.38028,261.77335,63,29,0
260.64008,261.77335,53,29,0
261.77335,262.13885,58,28,0
261.77335,262.13885,62,34,0
262.8699,262.96597,55,73,0
263.25415,263.3484,43,66,0
264.00815,264.10516,50,73,0
264.39612,264.4907,38,66,0
265.15253,265.33868,55,33,0
265.33868,265.52484,58,23,0
265.52484,265.711,55,27,0
265.711,265.89716,58,22,0
265.89716,266.0833,55,26,0
266.0833,266.27985,58,22,0
265.15253,266.27985,51,20,0
266.27985,266.46542,56,36,0
266.46542,266.65103,58,23,0
266.65103,266.8366,56,27,0
266.8366,267.0222,58,23,0
267.0222,267.2168,56,27,0
267.2168,267.41144,58,24,0
266.27985,267.41144,50,20,0
267.41144,267.59875,55,33,0
267.59875,267.7832,58,23,0
267.7832,267.9655,55,27,0
267.9655,268.14896,58,23,0
268.14896,268.33337,55,27,0
268.33337,268.53186,58,25,0
267.41144,268.53186,51,20,0
268.53186,268.71802,56,33,0
268.71802,268.90417,58,27,0
268.90417,269.09036,56,27,0
269.09036,269.27652,58,24,0
269.27652,269.46268,56,27,0
269.46268,269.64883,58,23,0
268.53186,269.64883,50,20,0
269.64883,269.835,55,35,0
269.835,270.02115,58,24,0
270.02115,270.20734,55,28,0
270.20734,270.3935,58,23,0
270.3935,270.57965,55,27,0
270.57965,270.77618,58,23,0
269.64883,270.77618,51,21,0
270.77618,270.96176,53,38,0
270.96176,271.14734,56,24,0
271.14734,271.33295,53,32,0
271.33295,271.51852,56,28,0
271.51852,271.71313,53,32,0
271.71313,271.90775,56,27,0
270.77618,271.90775,50,21,0
271.90775,272.09506,55,37,0
272.09506,272.2795,60,32,0
272.2795,272.46396,55,34,0
272.46396,272.6484,60,29,0
272.6484,272.83286,55,30,0
272.83286,273.03134,60,28,0
271.90775,273.03134,51,23,0
273.03134,273.2175,60,37,0
273.2175,273.40366,63,30,0
273.40366,273.5898,60,30,0
273.5898,273.78528,63,27,0
273.77597,273.96216,60,30,0
273.96216,274.14832,63,26,0
273.03134,274.14832,54,23,0
274.14832,274.33563,58,44,0
274.33563,274.52008,62,30,0
274.52008,274.70294,58,36,0
274.70294,274.8858,62,30,0
274.8858,275.07025,58,36,0
275.07025,275.26874,62,33,0
274.14832,275.26874,55,27,0
275.26874,275.4549,67,44,0
275.4549,275.64105,70,36,0
275.64105,275.82724,67,36,0
275.82724,276.0227,70,31,0
276.0134,276.19955,67,36,0
276.19955,276.3857,70,30,0
275.26874,276.3857,60,27,0
276.3857,276.76776,69,44,0
276.3857,276.76776,65,44,0
277.14597,277.33328,75,46,0
277.52002,277.70618,74,52,0
277.89233,278.0769,69,56,0
278.26144,278.446,70,53,0
278.6445,279.01816,65,59,0
279.39145,279.58292,75,51,0
279.77362,279.96353,74,57,0
280.15277,280.34116,69,59,0
280.52853,280.7149,70,54,0
280.90762,281.27872,65,62,0
281.74673,281.84174,65,47,0
281.84174,281.93732,60,54,0
281.93732,282.04102,57,47,0
282.04102,282.1416,53,69,0
282.4433,282.88724,41,59,0
283.3312,284.09772,58,34,0
284.0805,284.49387,53,30,0
284.49387,285.25314,50,34,0
285.2362,285.64258,53,32,0
285.64258,286.39517,58,34,0
286.3787,286.77432,62,36,0
286.77432,287.14783,65,38,0
287.9026,288.67514,51,34,0
288.6579,289.0713,48,30,0
289.0713,289.83054,45,34,0
289.81363,290.21997,48,32,0
290.21997,290.9726,51,34,0
290.95612,291.35175,57,36,0
291.35175,291.72522,60,38,0
292.49286,292.67786,62,35,0
292.67786,292.86288,65,28,0
292.86288,293.04788,62,35,0
293.04788,293.23065,65,25,0
293.23065,293.41342,62,32,0
293.41342,293.6043,65,24,0
293.6043,293.78934,63,35,0
293.78934,293.97433,65,31,0
293.97433,294.15936,63,35,0
294.15936,294.3421,65,26,0
294.3421,294.52487,63,33,0
294.52487,294.7158,65,29,0
294.7158,294.9002,62,35,0
294.9002,295.08466,65,30,0
295.08466,295.2691,62,32,0
295.2691,295.45132,65,24,0
295.45132,295.6335,62,32,0
295.6335,295.82565,65,25,0
295.82565,296.0101,63,35,0
296.0101,296.19452,65,31,0
296.19452,296.37897,63,35,0
296.37897,296.5612,65,26,0
296.5612,296.74338,63,33,0
296.74338,296.9337,65,29,0
296.9337,297.11813,61,35,0
297.11813,297.30258,65,30,0
297.30258,297.49167,61,32,0
297.49167,297.67276,65,28,0
297.67276,297.85388,61,38,0
297.85388,298.04538,65,31,0
298.04538,298.22983,62,40,0
298.22983,298.41428,65,34,0
298.41428,298.59872,62,38,0
298.59872,298.7809,65,32,0
298.7809,298.96313,62,39,0
298.96313,299.15524,65,32,0
298.04538,299.15524,55,40,0
299.15524,299.523,63,39,0
299.15524,299.523,60,39,0
299.523,299.89203,57,35,0
299.89203,300.26224,58,35,0
299.523,300.26224,65,35,0
300.26224,300.63986,63,43,0
300.26224,300.63986,51,43,0
300.63986,301.02045,62,40,0
301.02045,301.40085,60,40,0
300.63986,301.40085,53,40,0
301.40085,301.774,58,40,0
301.96014,302.14236,50,45,0
302.14236,302.32465,48,50,0
302.32465,302.51547,46,45,0
302.51547,302.88864,45,40,0
303.0748,303.257,55,45,0
303.257,303.43927,53,50,0
303.43927,303.6301,45,45,0
303.6301,304.00327,46,40,0
304.18942,304.3716,62,48,0
304.3716,304.5539,60,52,0
304.5539,304.74472,58,48,0
304.74472,305.1179,57,48,0
305.30405,305.48627,67,49,0
305.48627,305.66852,65,50,0
305.66852,305.85934,57,46,0
305.85934,306.2325,58,50,0
306.41867,306.6009,65,50,0
306.6009,306.78482,62,54,0
306.78482,306.97565,60,51,0
306.97565,307.3488,59,54,0
307.54153,307.72372,68,45,0
307.72372,307.90878,67,50,0
307.90878,308.1014,59,45,0
308.1014,308.19324,60,42,0
308.19324,308.285,67,33,0
308.285,308.37698,64,36,0
308.37698,308.4692,67,33,0
308.4692,308.5616,57,38,0
308.5616,308.65424,66,33,0
308.65424,308.74704,60,36,0
308.74704,308.84015,66,33,0
308.84015,308.9334,58,39,0
308.9334,309.0269,65,33,0
309.0269,309.12057,62,37,0
309.12057,309.21454,65,37,0
309.21454,309.5928,63,37,0
309.21454,309.5928,51,31,0
309.5928,309.964,62,37,0
309.5928,309.964,53,31,0
309.964,310.34482,60,37,0
309.964,310.34482,51,31,0
310.34482,310.7195,58,40,0
310.34482,310.7195,50,34,0
311.095,311.4711,62,31,0
311.095,311.4711,65,37,0
311.4711,311.8452,67,44,0
311.4711,311.8452,63,37,0
312.21524,312.5902,60,37,0
312.21524,312.5902,58,31,0
312.21524,312.5902,55,31,0
312.5902,312.68414,53,45,0
312.68414,312.77786,62,37,0
312.77786,312.87134,58,40,0
312.87134,312.96454,62,37,0
312.96454,313.0575,53,45,0
313.0575,313.15018,62,37,0
313.15018,313.24268,58,40,0
313.24268,313.3352,62,37,0
313.3352,313.4277,53,48,0
313.4277,313.5202,62,37,0
313.5202,313.61273,58,41,0
313.61273,313.71152,62,37,0
313.71152,313.80933,53,45,0
313.80933,313.9067,63,37,0
313.9067,314.0036,57,40,0
314.0036,314.10004,63,37,0
314.10004,314.19598,53,45,0
314.19598,314.2915,63,37,0
314.2915,314.38657,57,40,0
314.38657,314.48117,63,37,0
314.48117,314.57565,53,48,0
314.57565,314.6708,63,37,0
314.6708,314.76666,57,41,0
314.76666,314.86328,63,37,0
314.86328,315.10205,58,41,0
315.092,315.3022,62,28,0
315.29248,315.4962,65,35,0
315.48648,315.69016,70,34,0
315.68045,315.8845,69,32,0
315.87445,316.0852,68,30,0
316.0756,316.2677,67,28,0
316.2677,316.45984,70,21,0
316.45984,316.65195,65,31,0
316.65195,316.8441,70,24,0
316.8441,317.03995,63,31,0
317.03995,317.23584,70,25,0
317.23584,317.4286,62,31,0
317.4286,317.62134,70,28,0
317.62134,317.81406,69,31,0
317.81406,318.0068,70,28,0
318.0068,318.19955,55,31,0
318.19955,318.39868,63,27,0
318.39868,318.59143,53,31,0
318.59143,318.78418,62,27,0
318.78418,318.9769,58,31,0
318.9769,319.16965,62,29,0
319.16965,319.3624,53,31,0
319.3624,319.5622,63,27,0
319.5622,319.76,62,31,0
319.76,319.95212,58,24,0
319.95212,320.14426,57,30,0
320.14426,320.33636,56,26,0
320.33636,320.5285,55,29,0
320.5285,320.72632,54,31,0
320.72632,320.92093,55,28,0
320.92093,321.11307,58,27,0
321.11307,321.30518,53,38,0
321.30518,321.4973,57,32,0
321.4973,321.68942,52,40,0
321.68942,321.88596,61,34,0
321.88596,322.0787,53,41,0
322.0787,322.27145,62,35,0
322.27145,322.46417,58,38,0
322.46417,322.65692,62,33,0
322.65692,322.84967,53,40,0
322.84967,323.0488,62,35,0
323.0488,323.24155,53,41,0
323.24155,323.43427,65,33,0
323.43427,323.627,62,43,0
323.627,323.81976,65,33,0
323.81976,324.0125,53,45,0
324.0125,324.2123,63,38,0
324.31122,324.41013,58,54,0
324.41013,324.5062,62,56,0
324.5062,324.60223,65,59,0
324.60223,324.79437,70,61,0
324.98648,325.17862,57,54,0
324.98648,325.17862,53,54,0
325.50116,325.60007,46,54,0
325.60007,325.69614,50,56,0
325.69614,325.7922,53,59,0
325.7922,325.9843,58,61,0
326.17645,326.36856,45,54,0
326.17645,326.36856,41,54,0
326.5922,326.74872,46,59,0
327.03946,327.48672,34,59,0
327.93396,328.45322,51,59,0
328.45322,328.93887,39,59,0
329.4245,329.61066,53,33,0
329.61066,329.7968,56,23,0
329.7968,329.98297,53,27,0
329.98297,330.16916,56,22,0
330.16916,330.35532,53,26,0
330.35532,330.55185,56,22,0
329.4245,330.55185,49,20,0
330.55185,330.73743,54,36,0
330.73743,330.923,56,23,0
330.923,331.10858,54,27,0
331.10858,331.2942,56,23,0
331.2942,331.4888,54,27,0
331.4888,331.6834,56,24,0
330.55185,331.6834,48,20,0
331.6834,331.87073,53,33,0
331.87073,332.05518,56,23,0
332.05518,332.23962,53,27,0
332.23962,332.42407,56,23,0
332.42407,332.60852,53,27,0
332.60852,332.807,56,25,0
331.6834,332.807,49,20,0
332.807,332.99316,54,31,0
332.99316,333.17932,56,27,0
333.17932,333.36548,54,27,0
333.36548,333.55164,56,24,0
333.55164,333.7378,54,27,0
333.7378,333.92584,56,23,0
332.807,333.92584,48,20,0
333.92584,334.11096,53,35,0
334.11096,334.29608,56,24,0
334.29608,334.4812,53,28,0
334.4812,334.66635,56,23,0
334.66635,334.85147,53,27,0
334.85147,335.048,56,23,0
333.92584,335.048,49,21,0
335.048,335.23358,51,38,0
335.23358,335.41916,54,24,0
335.41916,335.60477,51,32,0
335.60477,335.79034,54,28,0
335.79034,335.98495,51,32,0
335.98495,336.17957,54,27,0
335.048,336.17957,48,21,0
336.17957,336.3669,53,37,0
336.3669,336.55133,58,32,0
336.55133,336.73578,53,34,0
336.73578,336.92023,58,29,0
336.92023,337.10468,53,30,0
337.10468,337.30316,58,28,0
336.17957,337.30316,49,23,0
337.30316,337.48932,58,37,0
337.48932,337.67548,61,30,0
337.67548,337.86163,58,30,0
337.86163,338.0571,61,27,0
338.0478,338.23398,58,30,0
338.23398,338.42014,61,26,0
337.30316,338.42014,52,23,0
338.42014,338.60745,56,40,0
338.60745,338.7919,60,28,0
338.7919,338.97635,56,33,0
338.97635,339.1608,60,28,0
339.1608,339.34525,56,36,0
339.34525,339.5437,60,32,0
338.42014,339.5437,53,25,0
339.5437,339.7299,62,36,0
339.7299,339.91605,65,29,0
339.91605,340.1022,62,34,0
340.1022,340.29767,65,28,0
340.28836,340.47452,62,35,0
340.47452,340.66068,65,28,0
339.5437,340.66068,55,36,0
340.66068,340.84802,60,42,0
340.84802,341.03244,63,26,0
341.03244,341.2169,60,38,0
341.2169,341.40134,63,31,0
341.40134,341.5858,60,38,0
341.5858,341.78427,63,35,0
340.66068,341.78427,56,42,0
341.78427,341.97043,60,41,0
341.97043,342.1566,62,33,0
342.1566,342.34274,60,37,0
342.34274,342.53824,62,28,0
342.5289,342.7151,60,35,0
342.7151,342.90298,62,28,0
341.78427,342.90298,57,41,0
342.90298,343.0903,62,36,0
343.0903,343.27475,67,29,0
343.27475,343.4592,62,34,0
343.4592,343.64365,67,28,0
343.64365,343.8281,62,34,0
343.8281,344.02655,67,27,0
342.90298,344.02655,58,22,0
344.02655,344.21274,67,36,0
344.21274,344.3989,69,28,0
344.3989,344.58505,67,34,0
344.58505,344.78052,69,27,0
344.7712,344.95737,67,34,0
344.95737,345.14526,69,25,0
344.02655,345.14526,63,29,0
345.14526,345.52917,66,44,0
345.14526,345.52917,62,44,0
345.90738,346.0947,72,47,0
346.28143,346.46628,70,51,0
346.64975,346.8332,66,58,0
347.0166,347.20004,67,54,0
347.39853,347.7722,62,53,0
348.14548,348.33694,72,48,0
348.52762,348.71756,70,57,0
348.90634,349.09348,66,59,0
349.27908,349.46463,67,54,0
349.65735,350.02844,62,58,0
350.49646,350.59143,62,47,0
350.59143,350.68704,57,54,0
350.68704,350.79074,54,47,0
350.79074,350.8913,50,69,0
351.19302,351.63696,38,59,0
352.08093,352.84744,55,34,0
352.83023,353.2436,50,30,0
353.2436,354.00287,47,34,0
353.98593,354.3923,50,32,0
354.3923,355.1449,55,34,0
355.12842,355.52405,59,36,0
355.52405,355.89755,62,38,0
356.65228,357.42862,55,34,0
357.4114,357.82477,50,30,0
357.82477,358.58405,47,34,0
358.5671,358.97348,50,32,0
358.97348,359.72607,55,34,0
359.7096,360.10526,59,36,0
360.10526,360.47873,62,38,0
363.7439,363.7897,55,39,0
363.92722,363.97302,55,42,0
364.11053,364.15634,55,37,0
364.29385,364.3433,55,39,0
364.49167,364.5411,55,35,0
364.68948,364.88556,56,39,0
364.87622,365.0723,55,35,0
365.06296,365.25906,53,37,0
365.24973,365.44586,51,35,0
365.43646,365.63403,50,39,0
365.62436,365.81772,48,34,0
365.81772,366.01108,48,35,0
366.01108,366.19843,46,38,0
366.19843,366.57306,46,39,0
368.3213,368.36713,58,39,0
368.5046,368.55045,58,41,0
368.68793,368.73376,58,36,0
368.87125,368.92072,58,38,0
369.0691,369.11853,58,35,0
369.2669,369.46298,60,39,0
369.45364,369.64963,58,35,0
369.64038,369.83466,56,35,0
369.8254,370.01965,55,35,0
370.0104,370.2058,53,39,0
370.19543,370.40283,52,34,0
370.40283,371.15543,53,40,0
371.53458,371.90808,65,34,0
371.53458,371.90808,62,28,0
371.90808,372.27924,67,34,0
371.90808,372.27924,63,28,0
372.27924,372.66052,69,34,0
372.27924,372.66052,65,28,0
371.53458,372.66052,58,28,0
372.66052,373.03,67,34,0
372.66052,373.03,63,28,0
373.79227,374.16577,63,34,0
373.79227,374.16577,60,28,0
374.16577,374.5358,65,34,0
374.16577,374.5358,62,28,0
374.5358,374.91705,67,34,0
374.5358,374.91705,63,28,0
373.79227,374.91705,56,28,0
374.91705,375.28653,65,34,0
374.91705,375.28653,62,28,0
376.04883,376.4223,62,34,0
376.04883,376.4223,59,28,0
376.4223,376.79233,63,34,0
376.4223,376.79233,60,28,0
376.79233,377.1736,65,34,0
376.79233,377.1736,62,28,0
376.04883,377.1736,55,28,0
377.1736,377.5471,63,37,0
377.1736,377.5471,60,30,0
377.9171,378.2984,63,37,0
377.9171,378.2984,53,30,0
378.2984,378.67188,62,37,0
378.2984,378.67188,55,30,0
379.0419,379.4232,67,37,0
379.0419,379.4232,63,30,0
379.61655,379.66235,65,42,0
379.79987,379.84567,65,45,0
379.9832,380.029,65,39,0
380.1665,380.21594,65,41,0
380.36432,380.4138,65,38,0
380.56213,380.7582,66,42,0
380.74887,380.9449,65,38,0
380.93564,381.12988,63,38,0
381.12064,381.3149,61,38,0
381.30566,381.50104,60,42,0
381.49066,381.69806,58,37,0
381.89142,381.93726,53,42,0
382.07474,382.12057,53,45,0
382.25806,382.3039,53,39,0
382.44138,382.49084,53,41,0
382.6392,382.68866,53,38,0
382.83704,383.0331,54,42,0
383.02377,383.21976,53,38,0
383.2105,383.4048,51,38,0
383.39554,383.58978,49,38,0
383.58054,383.7759,48,42,0
383.76556,383.97296,46,37,0
383.97296,384.36368,41,42,0
385.12595,387.9246,57,29,0
385.12595,387.9246,63,37,0
385.12595,387.9246,53,29,0
388.79636,389.54565,58,33,0
389.54565,389.959,53,31,0
389.959,390.7014,50,37,0
390.7014,391.10773,53,38,0
391.10773,391.8524,58,41,0
391.8524,392.24805,62,43,0
392.24805,392.995,65,43,0
393.36618,395.55487,60,30,0
393.36618,395.55487,53,30,0
393.36618,395.55487,63,36,0
395.55487,395.91818,58,32,0
395.55487,395.91818,62,38,0
397.76602,399.9835,63,36,0
397.76602,399.9835,60,30,0
397.76602,399.9835,53,30,0
399.9835,400.0741,62,40,0
399.9835,400.0741,58,34,0
400.34592,400.44458,58,32,0
400.34592,400.44458,62,38,0
400.74054,400.84756,58,32,0
400.74054,400.84756,65,38,0
401.16864,401.54446,58,34,0
401.16864,401.54446,62,40,0
402.66263,403.03845,51,25,0
402.66263,403.03845,55,25,0
402.66263,403.03845,58,30,0
403.7761,404.15192,58,30,0
403.7761,404.15192,50,25,0
403.7761,404.15192,53,25,0
404.53894,405.6659,57,29,0
405.6659,406.04056,58,34,0
404.53894,406.04056,65,34,0
407.17957,407.5554,55,25,0
407.17957,407.5554,58,30,0
407.17957,407.5554,51,25,0
408.29306,408.66888,58,30,0
408.29306,408.66888,50,25,0
408.29306,408.66888,53,25,0
409.05588,409.4203,57,34,0
409.4203,409.7961,60,31,0
409.7961,410.18918,63,29,0
409.05588,410.18918,53,29,0
410.18918,410.5547,58,28,0
410.18918,410.5547,62,34,0
411.28574,411.37915,55,73,0
411.65945,411.7537,43,66,0
412.41345,412.51044,50,73,0
412.80142,412.89597,38,66,0
413.5578,413.74396,55,33,0
413.74396,413.93015,58,23,0
413.93015,414.1163,55,27,0
414.1163,414.30246,58,22,0
414.30246,414.48862,55,26,0
414.48862,414.68515,58,22,0
413.5578,414.68515,51,20,0
414.68515,414.87073,56,36,0
414.87073,415.05634,58,23,0
415.05634,415.2419,56,27,0
415.2419,415.4275,58,23,0
415.4275,415.6221,56,27,0
415.6221,415.8167,58,24,0
414.68515,415.8167,50,20,0
415.8167,416.00406,55,33,0
416.00406,416.1885,58,23,0
416.1885,416.37292,55,27,0
416.37292,416.55737,58,23,0
416.55737,416.74182,55,27,0
416.74182,416.9403,58,25,0
415.8167,416.9403,51,20,0
416.9403,417.12646,56,33,0
417.12646,417.31262,58,27,0
417.31262,417.49878,56,27,0
417.49878,417.68497,58,24,0
417.68497,417.87112,56,27,0
417.87112,418.05728,58,23,0
416.9403,418.05728,50,20,0
418.05728,418.24344,55,35,0
418.24344,418.4296,58,24,0
418.4296,418.61575,55,28,0
418.61575,418.80194,58,23,0
418.80194,418.9881,55,27,0
418.9881,419.18463,58,23,0
418.05728,419.18463,51,21,0
419.18463,419.3702,53,38,0
419.3702,419.5558,56,24,0
419.5558,419.74136,53,32,0
419.74136,419.92697,56,28,0
419.92697,420.12158,53,32,0
420.12158,420.3162,56,27,0
419.18463,420.3162,50,21,0
420.3162,420.5035,55,37,0
420.5035,420.68796,60,32,0
420.68796,420.8724,55,34,0
420.8724,421.05685,60,29,0
421.05685,421.2413,55,30,0
421.2413,421.4398,60,28,0
420.3162,421.4398,51,23,0
421.4398,421.62595,60,37,0
421.62595,421.8121,63,30,0
421.8121,421.99826,60,30,0
421.99826,422.19373,63,27,0
422.18442,422.37057,60,30,0
422.37057,422.55673,63,26,0
421.4398,422.55673,54,23,0
422.55673,422.74408,58,44,0
422.74408,422.92853,62,30,0
422.92853,423.11295,58,36,0
423.11295,423.2974,62,30,0
423.2974,423.48184,58,36,0
423.48184,423.68033,62,33,0
422.55673,423.68033,55,27,0
423.68033,423.8665,67,44,0
423.8665,424.05264,70,36,0
424.05264,424.2388,67,36,0
424.2388,424.4343,70,31,0
424.425,424.61115,67,36,0
424.61115,424.7973,70,30,0
423.68033,424.7973,60,27,0
424.7973,425.17935,69,44,0
424.7973,425.17935,65,44,0
425.55756,425.74435,75,46,0
425.92917,426.11264,74,52,0
426.29605,426.4789,69,56,0
426.6618,426.84467,70,53,0
427.04315,427.4168,65,59,0
427.79013,427.98157,75,51,0
428.17227,428.36218,74,57,0
428.55124,428.7385,69,59,0
428.924,429.1095,70,54,0
429.3022,429.6733,65,62,0
430.1413,430.2363,65,47,0
430.2363,430.3319,60,54,0
430.3319,430.4356,57,47,0
430.4356,430.53616,53,69,0
430.83786,431.28183,41,59,0
431.7311,432.49762,58,34,0
432.48038,432.89377,53,30,0
432.89377,433.65305,50,34,0
433.6361,434.04248,53,32,0
434.04248,434.79507,58,34,0
434.7786,435.17422,62,36,0
435.17422,435.54773,65,38,0
436.30246,437.07504,51,34,0
437.0578,437.47116,48,30,0
437.47116,438.23044,45,34,0
438.2135,438.61987,48,32,0
438.61987,439.37247,51,34,0
439.356,439.75165,57,36,0
439.75165,440.12512,60,38,0
440.89276,441.07776,62,35,0
441.07776,441.2628,65,28,0
441.2628,441.44778,62,35,0
441.44778,441.63055,65,25,0
441.63055,441.81332,62,32,0
441.81332,442.0042,65,24,0
442.0042,442.1892,63,35,0
442.1892,442.37424,65,31,0
442.37424,442.55927,63,35,0
442.55927,442.742,65,26,0
442.742,442.92477,63,33,0
442.92477,443.11566,65,29,0
443.11566,443.3001,62,35,0
443.3001,443.48456,65,30,0
443.48456,443.669,62,32,0
443.669,443.8512,65,24,0
443.8512,444.03342,62,32,0
444.03342,444.22552,65,25,0
444.22552,444.40997,63,35,0
444.40997,444.59442,65,31,0
444.59442,444.77887,63,35,0
444.77887,444.9611,65,26,0
444.9611,445.14328,63,33,0
445.14328,445.3336,65,29,0
445.3336,445.51804,61,35,0
445.51804,445.70245,65,30,0
445.70245,445.89157,61,32,0
445.89157,446.07266,65,28,0
446.07266,446.25378,61,38,0
446.25378,446.44528,65,31,0
446.44528,446.62973,62,40,0
446.62973,446.81418,65,34,0
446.81418,446.99863,62,38,0
446.99863,447.18082,65,32,0
447.18082,447.36304,62,39,0
447.36304,447.55515,65,32,0
446.44528,447.55515,55,40,0
447.55515,447.9229,60,39,0
447.55515,447.9229,63,39,0
447.9229,448.29193,57,35,0
448.29193,448.6621,58,35,0
447.9229,448.6621,65,35,0
448.6621,449.03973,63,43,0
448.6621,449.03973,51,43,0
449.03973,449.42032,62,40,0
449.42032,449.80072,60,40,0
449.03973,449.80072,53,40,0
449.80072,450.1739,58,40,0
450.36005,450.54227,50,45,0
450.54227,450.72455,48,50,0
450.72455,450.91537,46,45,0
450.91537,451.2885,45,40,0
451.47467,451.6569,55,45,0
451.6569,451.83917,53,50,0
451.83917,452.03,45,45,0
452.03,452.40314,46,40,0
452.58932,452.7715,62,48,0
452.7715,452.9538,60,52,0
452.9538,453.14462,58,48,0
453.14462,453.5178,57,48,0
453.70395,453.88614,67,49,0
453.88614,454.06842,65,50,0
454.06842,454.25925,57,46,0
454.25925,454.63242,58,50,0
454.81857,455.00076,65,50,0
455.00076,455.1847,62,54,0
455.1847,455.37552,60,51,0
455.37552,455.7487,59,54,0
455.94144,456.12363,68,45,0
456.12363,456.3087,67,50,0
456.3087,456.5013,59,45,0
456.5013,456.59314,60,42,0
456.59314,456.6849,67,33,0
456.6849,456.7769,64,36,0
456.7769,456.8691,67,33,0
456.8691,456.96152,57,38,0
456.96152,457.0541,66,33,0
457.0541,457.14694,60,36,0
457.14694,457.24002,66,33,0
457.24002,457.33328,58,39,0
457.33328,457.42676,65,33,0
457.42676,457.52048,62,37,0
457.52048,457.61444,65,37,0
457.61444,457.9927,63,37,0
457.61444,457.9927,51,31,0
457.9927,458.3639,62,37,0
457.9927,458.3639,53,31,0
458.3639,458.74472,60,37,0
458.3639,458.74472,51,31,0
458.74472,459.11942,58,40,0
458.74472,459.11942,50,34,0
459.49487,459.871,62,31,0
459.49487,459.871,65,37,0
459.871,460.24512,67,44,0
459.871,460.24512,63,37,0
460.61514,460.99008,60,37,0
460.61514,460.99008,58,31,0
460.61514,460.99008,55,31,0
460.99008,461.08405,53,45,0
461.08405,461.17776,62,37,0
461.17776,461.27124,58,40,0
461.27124,461.3644,62,37,0
461.3644,461.4574,53,45,0
461.4574,461.55008,62,37,0
461.55008,461.64258,58,40,0
461.64258,461.7351,62,37,0
461.7351,461.8276,53,48,0
461.8276,461.9201,62,37,0
461.9201,462.0126,58,41,0
462.0126,462.12314,62,37,0
462.12314,462.22095,53,45,0
462.22095,462.31836,63,37,0
462.31836,462.41522,57,40,0
462.41522,462.51166,63,37,0
462.51166,462.6076,53,45,0
462.6076,462.70316,63,37,0
462.70316,462.7982,57,40,0
462.7982,462.8928,63,37,0
462.8928,462.98727,53,48,0
462.98727,463.08243,63,37,0
463.08243,463.17828,57,41,0
463.17828,463.2749,63,37,0
463.2749,463.51367,58,41,0
463.50363,463.7138,62,28,0
463.7041,463.9118,65,35,0
463.90198,464.10703,70,34,0
464.09735,464.30002,69,32,0
464.28995,464.5007,68,30,0
464.4911,464.6832,67,28,0
464.6832,464.87534,70,21,0
464.87534,465.06744,65,31,0
465.06744,465.25958,70,24,0
465.25958,465.45547,63,31,0
465.45547,465.65134,70,25,0
465.65134,465.8441,62,31,0
465.8441,466.03683,70,28,0
466.03683,466.22958,69,31,0
466.22958,466.4223,70,28,0
466.4223,466.61505,55,31,0
466.61505,466.81418,63,27,0
466.81418,467.00693,53,31,0
467.00693,467.19968,62,27,0
467.19968,467.3924,58,31,0
467.3924,467.58514,62,29,0
467.58514,467.7779,53,31,0
467.7779,467.9777,63,27,0
467.9777,468.1755,62,31,0
468.1755,468.36765,58,24,0
468.36765,468.55975,57,30,0
468.55975,468.7519,56,26,0
468.7519,468.944,55,29,0
468.944,469.1418,54,31,0
469.1418,469.33646,55,28,0
469.33646,469.52856,58,27,0
469.52856,469.7207,53,38,0
469.7207,469.9128,57,32,0
469.9128,470.10495,52,40,0
470.10495,470.30145,61,34,0
470.30145,470.4942,53,41,0
470.4942,470.68695,62,35,0
470.68695,470.87967,58,38,0
470.87967,471.07242,62,33,0
471.07242,471.26517,53,40,0
471.26517,471.4643,62,35,0
471.4643,471.65704,53,41,0
471.65704,471.8498,65,33,0
471.8498,472.0425,62,43,0
472.0425,472.23526,65,33,0
472.23526,472.428,53,45,0
472.428,472.6278,63,38,0
472.7267,472.82562,58,54,0
472.82562,472.9217,62,56,0
472.9217,473.01776,65,59,0
473.01776,473.20987,70,61,0
473.402,473.59412,57,54,0
473.402,473.59412,53,54,0
473.91666,474.01556,46,54,0
474.01556,474.11417,50,56,0
474.11417,474.21274,53,59,0
474.21274,474.408,58,61,0
474.60324,474.81744,41,54,0
474.60324,474.81744,45,54,0
475.0593,475.2357,46,59,0
475.5633,476.06726,34,59,0
