start_time,end_time,note_value,velocity,instrument_program_number
1.3707935,1.5825084,70,47,0
1.5825084,1.788383,74,50,0
1.9942575,2.2053254,75,51,0
2.4161773,2.8262932,76,52,0
2.8262932,3.0321677,77,52,0
3.0321677,3.135105,74,51,0
3.1865737,3.2380424,74,52,0
3.2380424,3.3367004,72,54,0
3.4353588,3.5395255,71,50,0
3.6436923,3.743866,72,52,0
3.8440397,3.9465687,74,50,0
4.0490975,4.4600677,77,54,0
4.4600677,4.6635404,75,46,0
4.6635404,4.7652764,69,46,0
4.867013,4.964201,70,52,0
5.061389,5.474023,70,48,0
5.474023,5.6774955,71,47,0
5.6774955,5.774332,72,51,0
5.8711686,6.2817087,72,50,0
6.2817087,6.4859715,73,50,0
6.4859715,6.5835323,74,54,0
6.681093,6.7840304,72,50,0
6.8869677,6.985626,74,55,0
7.0842843,7.18971,75,50,0
7.0842843,7.18971,72,50,0
7.2951365,7.697389,74,55,0
7.2951365,7.697389,70,55,0
7.697389,7.848234,72,50,0
7.697389,7.848234,69,50,0
7.8985157,8.004374,70,47,0
8.004374,8.11023,72,47,0
8.11023,8.316105,74,50,0
8.521979,8.7330475,75,51,0
8.943899,9.354015,76,52,0
9.354015,9.55989,77,52,0
9.55989,9.6628275,74,51,0
9.714296,9.765764,74,52,0
9.765764,9.864423,72,54,0
9.963081,10.067247,71,50,0
10.171414,10.271588,72,52,0
10.371762,10.474291,74,50,0
10.57682,10.98779,77,54,0
10.98779,11.191262,75,46,0
11.191262,11.292998,69,46,0
11.394735,11.491923,70,56,0
11.589111,11.790237,82,50,0
11.790237,11.890411,82,53,0
11.990585,12.090758,82,48,0
12.190932,12.287769,72,56,0
12.384606,12.5880785,79,50,0
12.5880785,12.690012,79,53,0
12.792144,12.894275,79,50,0
12.996406,13.093967,70,54,0
13.191528,13.291701,70,50,0
13.391875,13.440656,72,50,0
13.440656,13.489436,74,45,0
13.489436,13.538217,72,45,0
13.538217,13.586997,70,45,0
13.586997,13.687946,72,50,0
13.687946,13.792959,74,45,0
13.792959,14.195212,70,55,0
14.396338,14.502196,70,47,0
14.502196,14.608053,74,47,0
14.608053,14.810962,77,54,0
15.01387,15.22193,76,51,0
15.429989,15.528998,84,59,0
15.628877,15.830367,75,52,0
16.036242,16.439432,74,51,0
16.439432,16.647766,71,50,0
16.647766,16.848114,72,52,0
16.848114,17.053171,79,50,0
17.053171,17.360394,70,54,0
17.360394,17.412268,72,43,0
17.412268,17.464142,70,43,0
17.464142,17.62852,69,48,0
17.683311,17.788486,69,47,0
17.788486,17.893661,72,47,0
17.893661,18.09657,77,54,0
18.299479,18.507536,76,51,0
18.715595,18.814606,84,59,0
18.914484,19.115974,75,52,0
19.32185,19.527723,74,51,0
19.72504,19.933374,82,50,0
19.933374,20.13372,79,52,0
20.13372,20.33878,76,50,0
20.33878,20.542252,77,60,0
20.542252,20.749748,81,53,0
20.749748,20.851484,84,58,0
20.953222,21.054958,84,51,0
21.359602,21.468134,84,54,0
21.458267,21.567041,82,48,0
21.556932,21.66814,81,48,0
21.65803,21.76924,79,48,0
21.759129,21.874199,77,48,0
21.863445,21.98088,76,48,0
21.97098,22.06999,77,55,0
22.06999,22.169868,72,45,0
22.169868,22.270613,77,53,0
22.270613,22.371359,81,48,0
22.371359,22.474297,84,59,0
22.577232,22.68017,84,52,0
22.884562,22.986015,81,48,0
22.986015,23.094547,84,54,0
23.08468,23.193455,82,48,0
23.183346,23.294554,81,48,0
23.284445,23.395653,79,48,0
23.385542,23.500612,77,48,0
23.489859,23.607294,76,48,0
23.597393,23.696404,77,51,0
23.696404,23.795414,78,42,0
23.795414,23.89491,81,49,0
23.89491,23.995018,79,48,0
23.995018,24.095802,77,46,0
24.095802,24.197208,75,45,0
24.197208,24.299309,74,43,0
24.299309,24.413246,73,42,0
24.413246,24.619122,74,46,0
24.824995,25.036064,75,49,0
25.246916,25.657032,76,50,0
25.657032,25.862906,77,50,0
25.862906,25.965843,74,47,0
26.017311,26.06878,74,47,0
26.06878,26.167439,72,52,0
26.266096,26.370264,71,50,0
26.47443,26.574604,72,52,0
26.674778,26.777308,74,50,0
26.879835,27.290806,77,54,0
27.290806,27.494278,75,46,0
27.494278,27.596014,69,46,0
27.69775,27.794939,70,52,0
27.892126,28.30476,70,48,0
28.30476,28.508234,71,47,0
28.508234,28.60507,72,51,0
28.701906,29.112446,72,50,0
29.112446,29.31671,73,50,0
29.31671,29.41427,74,54,0
29.511831,29.614769,72,50,0
29.717707,29.816364,74,55,0
29.915022,30.020449,75,50,0
29.915022,30.020449,72,50,0
30.125874,30.528128,74,55,0
30.125874,30.528128,70,55,0
30.528128,30.678972,72,50,0
30.528128,30.678972,69,50,0
30.729254,30.835112,70,47,0
30.835112,30.94097,72,47,0
30.94097,31.146843,74,50,0
31.352718,31.563786,75,51,0
31.774637,32.184753,76,52,0
32.184753,32.39063,77,52,0
32.39063,32.493565,74,51,0
32.545033,32.596504,74,52,0
32.596504,32.69516,72,54,0
32.79382,32.897987,71,50,0
33.00215,33.102325,72,52,0
33.2025,33.30503,74,50,0
33.40756,33.818527,77,54,0
33.818527,34.022,75,46,0
34.022,34.123737,69,46,0
34.22547,34.322662,70,56,0
34.41985,34.620975,82,50,0
34.620975,34.72115,82,53,0
34.821323,34.921497,82,48,0
35.02167,35.118507,72,56,0
35.215343,35.418816,79,50,0
35.418816,35.520752,79,53,0
35.622883,35.725014,79,50,0
35.827145,35.924706,70,54,0
36.022266,36.12244,70,50,0
36.222614,36.271393,72,50,0
36.271393,36.320175,74,45,0
36.320175,36.368954,72,45,0
36.368954,36.417736,70,45,0
36.417736,36.518684,72,50,0
36.518684,36.623695,74,45,0
36.623695,37.02595,70,55,0
37.227077,37.332935,65,60,0
37.438793,37.53728,74,66,0
37.438793,37.53728,65,55,0
37.635773,38.052277,74,64,0
37.635773,38.052277,65,54,0
38.052277,38.210415,70,59,0
38.052277,38.210415,62,49,0
38.263126,38.361618,75,66,0
38.263126,38.361618,67,55,0
38.460106,38.876614,75,64,0
38.460106,38.876614,67,54,0
38.876614,39.03475,72,59,0
38.876614,39.03475,63,49,0
39.087463,39.287186,67,63,0
39.287186,39.489723,70,59,0
39.489723,39.68944,69,65,0
39.68944,39.891273,72,59,0
39.891273,39.9901,70,63,0
39.9901,40.08893,69,59,0
40.08893,40.187756,70,57,0
40.187756,40.291965,72,57,0
40.291965,40.39288,70,64,0
40.493793,40.59471,70,59,0
40.695625,40.794113,77,66,0
40.695625,40.794113,74,55,0
40.892605,41.30911,77,64,0
40.892605,41.30911,74,54,0
41.30911,41.467247,74,59,0
41.30911,41.467247,70,49,0
41.519962,41.61845,79,66,0
41.519962,41.61845,75,55,0
41.71694,42.133446,79,64,0
41.71694,42.133446,75,54,0
42.133446,42.291584,75,59,0
42.133446,42.291584,72,49,0
42.3443,42.544018,70,63,0
42.544018,42.746555,74,59,0
42.746555,42.946278,72,63,0
42.946278,43.148106,75,59,0
43.148106,43.246933,74,63,0
43.246933,43.34576,72,59,0
43.34576,43.444588,74,59,0
43.444588,43.548798,75,59,0
43.548798,43.65516,74,66,0
43.76152,43.86217,74,46,0
43.962822,44.063473,86,53,0
44.164124,44.365425,86,46,0
44.365425,44.566727,82,50,0
44.566727,44.77668,79,46,0
44.77668,45.178932,78,51,0
45.178932,45.38006,79,46,0
45.38006,45.48352,86,50,0
45.586983,45.695694,83,51,0
45.68581,45.79452,84,46,0
45.784637,45.89335,86,46,0
45.883465,45.992176,84,48,0
45.982292,46.091003,82,47,0
46.08112,46.18983,81,45,0
46.179947,46.28912,79,44,0
46.278774,46.392086,77,42,0
46.382236,46.776196,76,49,0
46.776196,46.973175,77,46,0
46.973175,47.074802,84,49,0
47.176235,47.2839,89,55,0
47.274086,47.382133,88,54,0
47.372284,47.480713,86,53,0
47.47083,47.5797,84,52,0
47.569782,47.68983,82,51,0
47.669098,47.78957,81,50,0
47.76877,47.88973,79,49,0
47.868855,47.968956,77,48,0
47.968956,48.07699,86,53,0
48.06714,48.175556,84,52,0
48.165672,48.27453,82,50,0
48.26461,48.373863,81,49,0
48.36391,48.48437,79,48,0
48.463566,48.584515,77,47,0
48.563637,48.685047,76,45,0
48.664078,48.7648,74,44,0
48.7648,48.86607,72,50,0
48.86607,48.96734,77,46,0
48.96734,49.068607,81,46,0
49.068607,49.14456,84,46,0
49.16988,49.28535,84,50,0
49.274853,49.39223,82,44,0
49.37983,49.51625,81,44,0
49.50385,49.596863,79,44,0
49.627865,50.0863,79,47,0
50.0863,50.262096,77,40,0
50.320694,50.42655,65,60,0
50.53241,50.6309,74,66,0
50.53241,50.6309,65,55,0
50.72939,51.145893,74,64,0
50.72939,51.145893,65,54,0
51.145893,51.30403,70,59,0
51.145893,51.30403,62,49,0
51.356747,51.455235,75,66,0
51.356747,51.455235,67,55,0
51.553726,51.97023,75,64,0
51.553726,51.97023,67,54,0
51.97023,52.12837,72,59,0
51.97023,52.12837,63,49,0
52.181084,52.380802,67,63,0
52.380802,52.58334,70,59,0
52.58334,52.783062,69,65,0
52.783062,52.98489,72,59,0
52.98489,53.083717,70,63,0
53.083717,53.182545,69,59,0
53.182545,53.281372,70,57,0
53.281372,53.389263,72,57,0
53.389263,53.49677,70,64,0
53.59742,53.69807,70,59,0
53.79872,53.89721,77,66,0
53.79872,53.89721,74,55,0
53.9957,54.412205,77,64,0
53.9957,54.412205,74,54,0
54.412205,54.570343,74,59,0
54.412205,54.570343,70,49,0
54.62306,54.721546,79,66,0
54.62306,54.721546,75,55,0
54.820038,55.23654,79,64,0
54.820038,55.23654,75,54,0
55.23654,55.39468,75,59,0
55.23654,55.39468,72,49,0
55.44739,55.647114,70,63,0
55.647114,55.84965,74,59,0
55.84965,56.049374,72,63,0
56.049374,56.2512,75,59,0
56.2512,56.35003,74,63,0
56.35003,56.448856,72,59,0
56.448856,56.547684,74,59,0
56.547684,56.651894,75,59,0
56.651894,56.752808,74,66,0
56.853725,56.95464,74,46,0
57.055553,57.15647,86,53,0
57.257385,57.459213,86,46,0
57.459213,57.661045,82,50,0
57.661045,57.870995,79,46,0
57.870995,58.27325,78,51,0
58.27325,58.474377,79,46,0
58.474377,58.57784,86,50,0
58.6813,58.79001,83,51,0
58.78013,58.888836,84,46,0
58.878956,58.987663,86,46,0
58.977783,59.08649,84,48,0
59.07661,59.185318,82,47,0
59.175438,59.284145,81,45,0
59.274265,59.38344,79,44,0
59.373093,59.486404,77,42,0
59.476555,59.870514,76,49,0
59.870514,60.067493,77,46,0
60.067493,60.169117,84,49,0
60.270554,60.37822,89,55,0
60.368404,60.476448,88,54,0
60.4666,60.575027,86,53,0
60.565147,60.67402,84,52,0
60.6641,60.784145,82,51,0
60.763412,60.88389,81,50,0
60.863083,60.984047,79,49,0
60.96317,61.063274,77,48,0
61.063274,61.171307,86,53,0
61.161457,61.26987,84,52,0
61.25999,61.368847,82,50,0
61.35893,61.468178,81,49,0
61.45823,61.57869,79,48,0
61.557884,61.678833,77,47,0
61.657955,61.779366,76,45,0
61.758392,61.85912,74,44,0
61.85912,61.96039,72,50,0
61.96039,62.061657,77,46,0
62.061657,62.162926,81,46,0
62.162926,62.238876,84,46,0
62.264194,62.37967,84,50,0
62.36917,62.48655,82,44,0
62.474148,62.610565,81,44,0
62.598164,62.691177,79,44,0
62.722183,63.18062,79,47,0
63.18062,63.364666,77,40,0
63.426018,63.531876,65,60,0
63.637733,63.73622,77,66,0
63.637733,63.73622,74,55,0
63.834713,64.25121,77,64,0
63.834713,64.25121,74,54,0
64.25121,64.409355,80,59,0
64.25121,64.409355,77,49,0
64.46207,64.560555,74,66,0
64.46207,64.560555,71,55,0
64.65905,65.075554,74,64,0
64.65905,65.075554,71,54,0
65.075554,65.23369,77,59,0
65.075554,65.23369,74,49,0
65.28641,65.384895,75,66,0
65.28641,65.384895,72,55,0
65.48338,65.89989,75,64,0
65.48338,65.89989,72,54,0
65.89989,66.05803,79,59,0
65.89989,66.05803,75,49,0
66.11074,66.20923,72,66,0
66.11074,66.20923,69,55,0
66.307724,66.72423,72,64,0
66.307724,66.72423,69,54,0
66.72423,66.88236,75,59,0
66.72423,66.88236,72,49,0
66.935074,67.043785,75,54,0
67.033905,67.14262,73,49,0
67.13273,67.24144,72,49,0
67.23156,67.34027,70,51,0
67.33038,67.439095,69,50,0
67.429214,67.537926,70,48,0
67.52804,67.637215,72,46,0
67.62687,67.73033,70,45,0
67.73033,67.83904,75,54,0
67.829155,67.93787,73,49,0
67.927986,68.0367,72,49,0
68.02681,68.13552,70,51,0
68.12564,68.23435,69,50,0
68.224464,68.333176,70,48,0
68.323296,68.43357,72,46,0
68.42212,68.5366,70,45,0
68.5366,68.63459,82,66,0
68.73259,69.161125,82,57,0
69.161125,69.3837,76,45,0
69.161125,69.3837,70,38,0
69.3837,69.81065,79,51,0
69.3837,69.81065,70,43,0
69.81065,69.98156,77,46,0
69.81065,69.98156,69,39,0
70.03853,70.14439,65,60,0
70.250244,70.34873,74,66,0
70.250244,70.34873,65,55,0
70.44722,70.86373,74,64,0
70.44722,70.86373,65,54,0
70.86373,71.021866,70,59,0
70.86373,71.021866,62,49,0
71.07458,71.17307,75,66,0
71.07458,71.17307,67,55,0
71.27156,71.688065,75,64,0
71.27156,71.688065,67,54,0
71.688065,71.84621,72,59,0
71.688065,71.84621,63,49,0
71.89892,72.09864,67,65,0
72.09864,72.30118,70,59,0
72.30118,72.50089,69,65,0
72.50089,72.70273,72,59,0
72.70273,72.80155,70,63,0
72.80155,72.90038,69,56,0
72.90038,72.99921,70,56,0
72.99921,73.10342,72,56,0
73.10342,73.21016,70,62,0
73.316895,73.41755,70,59,0
73.518196,73.616684,77,66,0
73.518196,73.616684,74,55,0
73.71518,74.13168,77,64,0
73.71518,74.13168,74,54,0
74.13168,74.28982,74,59,0
74.13168,74.28982,70,49,0
74.34254,74.441025,79,66,0
74.34254,74.441025,75,55,0
74.53951,74.95602,79,64,0
74.53951,74.95602,75,54,0
74.95602,75.11416,75,59,0
74.95602,75.11416,72,49,0
75.16687,75.36659,70,65,0
75.36659,75.56913,74,59,0
75.56913,75.76885,72,65,0
75.76885,75.97068,75,59,0
75.97068,76.0695,74,63,0
76.0695,76.168335,72,59,0
76.168335,76.26716,74,59,0
76.26716,76.37137,75,59,0
76.37137,76.47228,74,66,0
76.573204,76.67412,70,46,0
76.77503,76.875946,79,53,0
76.97686,77.17869,79,46,0
77.17869,77.38052,75,50,0
77.38052,77.59047,72,46,0
77.59047,77.99273,71,51,0
77.99273,78.193855,72,46,0
78.193855,78.29732,79,50,0
78.40078,78.50948,76,51,0
78.4996,78.608315,77,46,0
78.598434,78.70714,79,46,0
78.69726,78.80597,77,48,0
78.79609,78.90479,75,47,0
78.89491,79.003624,74,45,0
78.993744,79.10291,72,44,0
79.09257,79.20588,70,42,0
79.19603,79.58999,69,49,0
79.58999,79.78697,70,46,0
79.78697,79.888596,77,49,0
79.99003,80.097694,82,61,0
80.08788,80.19592,81,60,0
80.18607,80.2945,79,58,0
80.28462,80.39349,77,57,0
80.383575,80.49284,75,56,0
80.48289,80.592545,74,54,0
80.58256,80.692665,72,53,0
80.68265,80.78275,70,50,0
80.78275,80.890785,79,58,0
80.880936,80.98935,77,57,0
80.97947,81.088326,75,55,0
81.07841,81.18765,74,53,0
81.177704,81.287346,72,52,0
81.27736,81.38745,70,50,0
81.37743,81.48793,69,48,0
81.47787,81.5786,67,47,0
81.5786,81.67986,65,50,0
81.67986,81.781136,70,46,0
81.781136,81.8824,74,46,0
81.8824,81.95835,77,46,0
81.98367,82.088646,77,50,0
82.088646,82.19363,75,44,0
82.19363,82.31764,74,44,0
82.31764,82.41065,72,44,0
82.44166,82.90009,72,47,0
82.90009,83.07589,70,40,0
83.13449,83.24035,65,60,0
83.34621,83.444695,77,66,0
83.34621,83.444695,74,55,0
83.54318,83.95969,77,64,0
83.54318,83.95969,74,54,0
83.95969,84.11783,80,59,0
83.95969,84.11783,77,49,0
84.17054,84.26903,74,66,0
84.17054,84.26903,71,55,0
84.367516,84.78403,74,64,0
84.367516,84.78403,71,54,0
84.78403,84.94216,77,59,0
84.78403,84.94216,74,49,0
84.99487,85.09337,75,66,0
84.99487,85.09337,72,55,0
85.19186,85.60836,75,64,0
85.19186,85.60836,72,54,0
85.60836,85.7665,79,59,0
85.60836,85.7665,75,49,0
85.819214,85.9177,72,66,0
85.819214,85.9177,69,55,0
86.01619,86.43269,72,64,0
86.01619,86.43269,69,54,0
86.43269,86.590836,75,59,0
86.43269,86.590836,72,49,0
86.64355,86.75226,75,54,0
86.74238,86.85108,73,49,0
86.8412,86.94991,72,49,0
86.94003,87.04874,70,51,0
87.03886,87.14757,69,50,0
87.13769,87.24639,70,48,0
87.23651,87.34569,72,46,0
87.33534,87.438805,70,45,0
87.438805,87.54751,75,54,0
87.53763,87.64634,73,49,0
87.63646,87.74516,72,49,0
87.73528,87.843994,70,51,0
87.834114,87.94282,69,50,0
87.93294,88.04165,70,48,0
88.03177,88.14363,72,46,0
88.13059,88.260994,70,45,0
88.260994,88.358986,82,66,0
88.456985,88.88552,82,57,0
88.88552,89.10809,76,45,0
88.88552,89.10809,70,38,0
89.10809,89.53505,79,51,0
89.10809,89.53505,70,43,0
89.53505,89.705956,77,46,0
89.53505,89.705956,69,39,0
89.762924,89.86878,65,60,0
89.97464,90.07313,74,66,0
89.97464,90.07313,65,55,0
90.171616,90.58812,74,64,0
90.171616,90.58812,65,54,0
90.58812,90.74626,70,59,0
90.58812,90.74626,62,49,0
90.79897,90.89746,75,66,0
90.79897,90.89746,67,55,0
90.99596,91.41246,75,64,0
90.99596,91.41246,67,54,0
91.41246,91.570595,72,59,0
91.41246,91.570595,63,49,0
91.623314,91.82303,67,65,0
91.82303,92.02557,70,59,0
92.02557,92.22529,69,65,0
92.22529,92.427124,72,59,0
92.427124,92.52595,70,63,0
92.52595,92.62478,69,56,0
92.62478,92.7236,70,56,0
92.7236,92.832275,72,56,0
92.832275,92.94095,70,62,0
93.04126,93.14157,70,59,0
93.24189,93.34038,77,66,0
93.24189,93.34038,74,55,0
93.438866,93.85537,77,64,0
93.438866,93.85537,74,54,0
93.85537,94.01351,74,59,0
93.85537,94.01351,70,49,0
94.06622,94.16472,79,66,0
94.06622,94.16472,75,55,0
94.26321,94.67971,79,64,0
94.26321,94.67971,75,54,0
94.67971,94.837845,75,59,0
94.67971,94.837845,72,49,0
94.890564,95.09028,70,65,0
95.09028,95.29282,74,59,0
95.29282,95.49254,72,65,0
95.49254,95.694374,75,59,0
95.694374,95.7932,74,63,0
95.7932,95.89203,72,59,0
95.89203,95.99085,74,59,0
95.99085,96.09506,75,59,0
96.09506,96.19598,74,66,0
96.29689,96.397804,70,46,0
96.498726,96.59964,79,53,0
96.700554,96.90238,79,46,0
96.90238,97.10421,75,50,0
97.10421,97.31416,72,46,0
97.31416,97.716415,71,51,0
97.716415,97.91754,72,46,0
97.91754,98.021,79,50,0
98.124466,98.23318,76,51,0
98.2233,98.33201,77,46,0
98.32212,98.43083,79,46,0
98.42095,98.52966,77,48,0
98.519775,98.62849,75,47,0
98.61861,98.72732,74,45,0
98.71743,98.82661,72,44,0
98.81626,98.92957,70,42,0
98.91972,99.31368,69,49,0
99.31368,99.51066,70,46,0
99.51066,99.61229,77,49,0
99.71372,99.82139,82,61,0
99.81157,99.91962,81,60,0
99.90977,100.018196,79,58,0
100.008316,100.11719,77,57,0
100.10727,100.21653,75,56,0
100.20658,100.31624,74,54,0
100.30625,100.41636,72,53,0
100.40634,100.50644,70,50,0
100.50644,100.61447,79,58,0
100.60462,100.71304,77,57,0
100.703156,100.81201,75,55,0
100.80209,100.91135,74,53,0
100.9014,101.01104,72,52,0
101.00105,101.111145,70,50,0
101.10112,101.21162,69,48,0
101.20156,101.302284,67,47,0
101.302284,101.40356,65,50,0
101.40356,101.50482,70,46,0
101.50482,101.606094,74,46,0
101.606094,101.682045,77,46,0
101.70737,101.81234,77,50,0
101.81234,101.91731,75,44,0
101.91731,102.04659,74,44,0
102.04659,102.14355,72,44,0
102.17587,102.6343,72,47,0
102.6343,102.8101,70,40,0
102.8687,102.980415,70,38,0
102.980415,103.092125,72,43,0
103.092125,103.53148,74,47,0
103.74654,103.854065,74,46,0
103.854065,103.961586,75,48,0
103.961586,104.40509,77,50,0
104.62341,104.732574,77,53,0
104.732574,104.84881,79,55,0
104.84881,105.06549,80,62,0
105.06549,105.28218,77,54,0
105.28218,105.49886,74,53,0
105.49886,105.72316,70,52,0
105.72316,105.94317,69,40,0
105.94317,106.16317,70,43,0
106.16317,106.38835,68,40,0
106.38835,106.613525,65,37,0
106.613525,106.718,63,39,0
106.82248,106.926956,63,36,0
107.03144,107.13368,63,35,0
107.23592,107.34234,63,35,0
107.448746,107.55147,72,41,0
107.65418,107.756905,72,37,0
107.85962,107.96234,72,37,0
108.06506,108.170685,72,37,0
108.27631,108.38117,65,40,0
108.48603,108.59089,65,37,0
108.69575,108.79846,70,40,0
108.901184,109.00566,70,37,0
109.11014,109.315575,68,36,0
109.315575,109.46966,67,39,0
109.52101,109.62413,65,42,0
109.72724,109.83036,63,45,0
109.93347,110.03638,79,48,0
110.13929,110.24039,79,43,0
110.341484,110.44258,78,48,0
110.543686,110.64719,77,43,0
110.750694,110.85192,76,48,0
110.95315,111.05438,75,46,0
111.15561,111.256836,74,49,0
111.35806,111.46195,73,42,0
111.565834,111.66706,72,45,0
111.76829,111.86952,72,40,0
111.97075,112.071976,77,48,0
112.1732,112.2799,77,43,0
112.38659,112.80299,70,50,0
113.24374,113.34746,63,39,0
113.45118,113.5549,63,36,0
113.658615,113.7605,63,35,0
113.86238,113.96826,63,35,0
114.07414,114.176025,72,41,0
114.2779,114.37978,72,37,0
114.48167,114.58355,72,37,0
114.68543,114.7905,72,37,0
114.89556,114.99891,65,40,0
115.10226,115.205605,65,37,0
115.30895,115.41048,70,40,0
115.512,115.61724,70,37,0
115.72248,115.92552,68,36,0
115.92552,116.07781,67,39,0
116.12857,116.23168,65,42,0
116.3348,116.43791,63,45,0
116.54102,116.64543,79,48,0
116.74984,116.85152,79,43,0
116.953186,117.05486,78,48,0
117.15653,117.26004,77,43,0
117.36355,117.464195,76,48,0
117.56485,117.6655,75,46,0
117.76615,117.8668,74,49,0
117.96745,118.071335,73,42,0
118.175224,118.2769,72,45,0
118.37857,118.48025,72,40,0
118.58192,118.68359,77,48,0
118.78527,118.89196,77,43,0
118.99866,119.41506,70,50,0
120.067696,120.27439,70,35,0
120.27439,120.477585,73,40,0
120.477585,120.680786,76,44,0
120.680786,120.88252,79,48,0
120.88252,121.08426,73,45,0
121.08426,121.28599,72,42,0
121.28599,121.492546,70,39,0
121.492546,121.69574,69,35,0
121.69574,121.89748,68,37,0
121.89748,122.09921,74,40,0
122.09921,122.30095,75,42,0
122.30095,122.50414,77,44,0
122.50414,122.707344,71,40,0
122.707344,122.91054,70,39,0
122.91054,123.1223,68,39,0
123.1223,123.32475,67,47,0
123.32475,123.527214,66,42,0
123.527214,123.72967,65,48,0
123.72967,123.93212,70,44,0
123.93212,124.13606,63,52,0
124.13606,124.34001,69,46,0
124.34001,124.5447,62,54,0
124.5447,124.75405,63,45,0
124.5447,124.75405,66,45,0
124.75405,124.9595,65,49,0
124.75405,124.9595,62,49,0
124.9595,125.164955,66,40,0
124.9595,125.164955,63,40,0
125.164955,125.37041,65,48,0
125.164955,125.37041,62,48,0
125.37041,125.57586,66,40,0
125.37041,125.57586,63,40,0
125.57586,125.782974,65,41,0
125.57586,125.782974,62,41,0
125.782974,125.991325,67,35,0
125.782974,125.991325,63,35,0
125.991325,126.20102,68,35,0
125.991325,126.20102,65,35,0
126.20102,126.41202,65,35,0
126.20102,126.41202,62,35,0
126.41202,126.514366,63,39,0
126.616714,126.71906,63,36,0
126.8214,126.92264,63,35,0
127.023865,127.129745,63,35,0
127.23563,127.33685,72,41,0
127.43808,127.53931,72,37,0
127.64053,127.74176,72,37,0
127.842995,127.94806,72,37,0
128.05312,128.15509,65,40,0
128.25706,128.35904,65,37,0
128.461,128.56224,70,40,0
128.66347,128.76756,70,37,0
128.87166,129.07326,68,36,0
129.07326,129.22447,67,39,0
129.27487,129.37799,65,42,0
129.48111,129.58421,63,45,0
129.68733,129.7906,72,48,0
129.89389,129.99498,84,43,0
130.09608,130.19719,83,48,0
130.29828,130.4018,82,43,0
130.5053,130.60652,81,48,0
130.70775,130.80898,80,46,0
130.9102,131.01143,79,49,0
131.11266,131.21655,78,42,0
131.32043,131.42166,77,45,0
131.52289,131.62411,77,40,0
131.72534,131.82657,82,48,0
131.9278,132.0345,82,43,0
132.14119,132.5576,75,50,0
133.20715,133.41385,70,35,0
133.41385,133.61705,73,40,0
133.61705,133.82024,76,44,0
133.82024,134.02197,79,48,0
134.02197,134.22371,73,45,0
134.22371,134.42545,72,42,0
134.42545,134.63054,70,39,0
134.63054,134.83372,69,35,0
134.83372,135.03546,68,37,0
135.03546,135.2372,74,40,0
135.2372,135.43893,75,42,0
135.43893,135.64214,77,44,0
135.64214,135.84532,71,40,0
135.84532,136.04852,70,39,0
136.04852,136.26028,68,39,0
136.26028,136.46274,67,47,0
136.46274,136.66519,66,42,0
136.66519,136.86766,65,48,0
136.86766,137.07011,70,44,0
137.07011,137.27405,63,52,0
137.27405,137.478,69,46,0
137.478,137.6827,62,54,0
137.6827,137.89204,63,45,0
137.6827,137.89204,66,45,0
137.89204,138.09749,65,49,0
137.89204,138.09749,62,49,0
138.09749,138.30295,66,40,0
138.09749,138.30295,63,40,0
138.30295,138.50839,65,48,0
138.30295,138.50839,62,48,0
138.50839,138.71385,66,40,0
138.50839,138.71385,63,40,0
138.71385,138.92096,65,41,0
138.71385,138.92096,62,41,0
138.92096,139.12932,67,35,0
138.92096,139.12932,63,35,0
139.12932,139.339,68,35,0
139.12932,139.339,65,35,0
139.339,139.55,65,35,0
139.339,139.55,62,35,0
139.55,139.65236,63,39,0
139.7547,139.85704,63,36,0
139.9594,140.06062,63,35,0
140.16185,140.26773,63,35,0
140.37361,140.47484,72,41,0
140.57607,140.67729,72,37,0
140.77852,140.87975,72,37,0
140.98097,141.08604,72,37,0
141.1911,141.29308,65,40,0
141.39505,141.49702,65,37,0
141.599,141.70023,70,40,0
141.80145,141.90555,70,37,0
142.00964,142.21126,68,36,0
142.21126,142.36246,67,39,0
142.41287,142.51598,65,42,0
142.6191,142.72221,63,45,0
142.82532,142.9286,72,48,0
143.03188,143.13354,84,43,0
143.23523,143.3369,83,48,0
143.43857,143.54208,82,43,0
143.64558,143.74692,81,48,0
143.84825,143.94957,80,46,0
144.0509,144.15224,79,49,0
144.25357,144.35745,78,42,0
144.46133,144.56256,77,45,0
144.66379,144.76503,77,40,0
144.86626,144.96748,82,48,0
145.06871,145.1754,82,43,0
145.28209,145.6985,75,50,0
146.73193,146.94008,71,37,0
146.93018,147.13893,72,39,0
147.12895,147.3385,74,40,0
147.32849,147.5388,75,42,0
147.52876,147.72975,76,44,0
147.72975,147.83057,77,46,0
147.9311,148.13623,89,54,0
148.12643,148.33247,88,50,0
148.32246,148.53221,87,52,0
148.52246,148.72769,86,53,0
148.71785,148.92435,84,55,0
148.9145,149.12135,82,57,0
149.1113,149.31161,80,59,0
149.31161,149.40999,79,59,0
149.50838,149.60991,87,51,0
149.71143,149.80981,77,58,0
149.9082,150.00972,86,51,0
150.11125,150.20964,75,60,0
150.30801,150.40918,84,52,0
150.51035,150.60872,74,60,0
150.7071,150.80899,82,53,0
151.1097,151.30852,82,51,0
151.30852,151.50734,79,59,0
151.50734,151.71478,76,51,0
151.71478,151.91429,77,59,0
151.91429,152.1138,81,49,0
152.1138,152.21355,84,61,0
152.3133,152.41306,84,51,0
152.71008,152.8177,84,55,0
152.8079,152.91597,82,54,0
152.90613,153.01476,81,52,0
153.00485,153.1142,79,51,0
153.10408,153.21535,77,50,0
153.20523,153.3064,76,48,0
153.3064,153.40479,77,52,0
153.40479,153.50317,72,45,0
153.50317,153.60156,77,48,0
153.60156,153.70453,81,45,0
153.70453,153.80429,84,52,0
153.90404,154.00777,84,49,0
154.21089,154.31851,81,47,0
154.30876,154.41638,84,53,0
154.40657,154.51465,82,51,0
154.5048,154.61343,81,49,0
154.60353,154.71286,79,47,0
154.70276,154.81403,77,45,0
154.80391,154.90494,76,43,0
154.90494,155.01297,77,48,0
155.00308,155.11256,78,40,0
155.10254,155.21364,81,47,0
155.20345,155.31621,79,46,0
155.30586,155.4201,77,45,0
155.4097,155.52519,75,43,0
155.51408,155.63628,74,42,0
155.62517,155.73625,73,41,0
155.73625,155.94212,74,47,0
156.148,156.35907,75,48,0
156.56992,156.98004,76,52,0
156.98004,157.18591,77,48,0
157.18591,157.28885,74,44,0
157.34032,157.39178,74,45,0
157.39178,157.49045,72,49,0
157.5891,157.69327,71,45,0
157.79744,157.89761,72,48,0
157.99779,158.10031,74,47,0
158.20284,158.61382,77,51,0
158.61382,158.81729,75,46,0
158.81729,158.91902,69,43,0
159.02075,159.11795,70,49,0
159.21513,159.62776,70,46,0
159.62776,159.83124,71,46,0
159.83124,159.92807,72,50,0
160.02492,160.43546,72,47,0
160.43546,160.63971,73,47,0
160.63971,160.73727,74,53,0
160.83484,160.93777,72,49,0
161.04071,161.13937,74,54,0
161.23802,161.34346,75,50,0
161.23802,161.34346,72,50,0
161.44888,161.85114,74,55,0
161.44888,161.85114,70,55,0
161.85114,162.00198,72,50,0
161.85114,162.00198,69,50,0
162.05226,162.15811,70,47,0
162.15811,162.26398,72,47,0
162.26398,162.46985,74,50,0
162.67572,162.8868,75,51,0
163.09764,163.50777,76,52,0
163.50777,163.71364,77,52,0
163.71364,163.81657,74,51,0
163.86804,163.91951,74,52,0
163.91951,164.01817,72,54,0
164.11682,164.221,71,50,0
164.32516,164.42534,72,52,0
164.52551,164.62804,74,50,0
164.73056,165.14154,77,54,0
165.14154,165.345,75,46,0
165.345,165.44675,69,46,0
165.54848,165.64566,70,56,0
165.74286,165.94398,82,50,0
165.94398,166.04416,82,53,0
166.14433,166.2445,82,48,0
166.34468,166.44151,72,56,0
166.53835,166.74182,79,50,0
166.74182,166.84375,79,53,0
166.94589,167.04802,79,50,0
167.15015,167.24771,70,54,0
167.34528,167.44545,70,50,0
167.54562,167.5944,72,50,0
167.5944,167.64317,74,45,0
167.64317,167.69196,72,45,0
167.69196,167.74074,70,45,0
167.74074,167.84169,72,50,0
167.84169,167.9467,74,45,0
167.9467,168.34895,70,55,0
168.55008,168.65594,70,60,0
168.7618,168.86029,82,66,0
168.7618,168.86029,79,55,0
168.95877,169.37527,82,64,0
168.95877,169.37527,79,54,0
169.37527,169.58614,79,59,0
169.37527,169.58614,75,49,0
169.58614,169.68462,77,66,0
169.58614,169.68462,74,55,0
169.78311,170.19962,77,64,0
169.78311,170.19962,74,54,0
170.19962,170.41048,74,59,0
170.19962,170.41048,70,49,0
170.41048,170.50896,72,66,0
170.41048,170.50896,69,55,0
170.60745,171.02396,72,64,0
170.60745,171.02396,69,54,0
171.02396,171.2348,75,59,0
171.02396,171.2348,72,49,0
171.2348,171.43178,73,66,0
171.2348,171.43178,69,55,0
171.43178,171.63722,74,66,0
171.43178,171.63722,70,55,0
171.63722,171.80287,74,64,0
171.63722,171.80287,70,54,0
171.8581,171.96394,70,43,0
172.06981,172.16829,82,46,0
172.06981,172.16829,79,39,0
172.26678,172.68329,82,45,0
172.26678,172.68329,79,38,0
172.68329,172.89413,79,41,0
172.68329,172.89413,75,34,0
172.89413,172.99263,77,46,0
172.89413,172.99263,74,39,0
173.09111,173.50763,77,45,0
173.09111,173.50763,74,38,0
173.50763,173.71848,74,41,0
173.50763,173.71848,70,34,0
173.71848,173.81697,72,46,0
173.71848,173.81697,69,39,0
173.91545,174.33195,72,45,0
173.91545,174.33195,69,38,0
174.33195,174.54282,75,41,0
174.33195,174.54282,72,34,0
174.54282,174.73979,73,46,0
174.54282,174.73979,69,39,0
174.73979,174.94522,74,46,0
174.73979,174.94522,70,39,0
174.94522,175.1094,74,45,0
174.94522,175.1094,70,38,0
175.16412,175.26994,70,53,0
175.37575,175.48117,82,55,0
175.58661,175.68976,82,50,0
175.79292,175.89607,82,50,0
175.99922,176.10623,82,50,0
176.21323,176.31601,76,55,0
176.4188,176.52158,76,50,0
176.62436,176.72713,76,50,0
176.82991,176.93457,76,50,0
177.03925,177.14166,84,55,0
177.24408,177.3465,84,52,0
177.44891,177.55133,84,51,0
177.65375,177.75955,84,51,0
177.86537,177.96779,75,55,0
178.0702,178.17262,75,50,0
178.27504,178.37746,75,50,0
178.47987,178.58229,75,50,0
178.68471,178.78975,74,60,0
178.89479,178.99611,82,67,0
179.09744,179.2006,81,66,0
179.30376,179.40439,80,63,0
179.505,179.60564,79,62,0
179.70625,179.80688,78,60,0
179.9075,180.00813,77,58,0
180.10875,180.21265,76,56,0
180.31654,180.5171,77,63,0
180.5171,180.71765,74,55,0
180.71765,180.9182,72,55,0
180.9182,181.13708,77,55,0
180.71765,181.13708,69,47,0
181.13708,181.54242,75,64,0
181.13708,181.54242,72,55,0
181.54242,181.74507,74,62,0
181.54242,181.74507,70,52,0
182.15858,182.3649,78,50,0
182.3649,182.57121,79,55,0
182.57121,182.78522,82,51,0
182.78522,183.09355,85,58,0
183.09355,183.14494,87,49,0
183.14494,183.19633,85,49,0
183.19633,183.4019,84,55,0
183.4019,183.61122,82,49,0
183.61122,183.81606,81,56,0
183.81606,184.02089,69,45,0
184.02089,184.22572,72,49,0
184.22572,184.43735,75,45,0
184.43735,184.7446,78,49,0
184.7446,184.7958,80,48,0
184.7958,184.84702,78,48,0
184.84702,185.05185,77,55,0
185.05185,185.25668,75,51,0
185.25668,185.46677,74,55,0
185.46677,185.5681,70,59,0
185.66943,185.7726,72,60,0
185.87575,185.97636,74,61,0
186.07686,186.17761,75,63,0
186.27914,186.38153,76,64,0
186.48473,186.58876,77,66,0
186.69365,186.79941,78,69,0
186.90605,187.24474,79,74,0
187.35762,187.8092,82,77,0
187.35762,187.8092,79,64,0
187.35762,187.8092,73,64,0
188.03499,188.24445,79,59,0
188.24445,188.45016,81,61,0
188.45016,188.66577,82,64,0
188.66577,188.77129,82,67,0
188.77129,188.8768,84,60,0
188.8768,188.9823,86,60,0
188.9823,189.08781,87,60,0
189.08781,189.1925,89,67,0
189.1925,189.29723,87,61,0
189.29723,189.40163,86,61,0
189.40163,189.50595,84,61,0
189.50595,189.60994,82,67,0
189.60994,189.7138,81,67,0
189.7138,189.8174,79,66,0
189.8174,189.921,77,64,0
189.921,190.0247,75,64,0
190.0247,190.1287,74,63,0
190.1287,190.23267,72,62,0
190.23267,190.33682,70,62,0
190.33682,190.38974,72,50,0
190.38974,190.44264,74,41,0
190.44264,190.49614,72,49,0
190.49614,190.54964,74,41,0
190.54964,190.60254,72,49,0
190.60254,190.65546,74,40,0
190.65546,190.70876,72,50,0
190.70876,190.76205,74,44,0
190.76205,190.81595,72,49,0
190.81595,190.86986,74,44,0
190.86986,190.92258,72,50,0
190.92258,190.97528,74,44,0
190.97528,191.03001,72,51,0
191.03001,191.08473,74,45,0
191.08473,191.13763,72,53,0
191.13763,191.19055,74,46,0
191.19055,191.24464,72,55,0
191.24464,191.29875,74,47,0
191.29875,191.35245,72,52,0
191.35245,191.40614,74,45,0
191.40614,191.45906,72,51,0
191.45906,191.51225,74,44,0
191.51225,191.56628,72,50,0
191.56628,191.62091,74,44,0
191.62091,191.6762,72,49,0
191.6762,191.7321,74,42,0
191.7321,191.78864,72,47,0
191.78864,191.84583,74,40,0
191.84583,191.92319,72,46,0
191.92319,192.00525,70,52,0
192.00525,192.09134,72,47,0
192.09134,192.30939,70,55,0
193.18013,193.3967,74,35,0
193.18013,193.3967,77,35,0
193.3967,193.61328,75,36,0
193.3967,193.61328,72,36,0
193.61328,193.84175,74,32,0
193.61328,193.84175,70,32,0
193.84175,194.27621,75,39,0
193.84175,194.27621,79,39,0
194.92485,195.139,75,36,0
194.92485,195.139,79,36,0
195.139,195.35318,77,41,0
195.139,195.35318,81,41,0
195.35318,195.58073,82,35,0
195.35318,195.58073,79,35,0
195.58073,196.01358,74,43,0
195.58073,196.01358,77,43,0
196.66913,196.88475,74,32,0
196.66913,196.88475,70,32,0
196.88475,197.10036,72,39,0
196.88475,197.10036,75,39,0
197.10036,197.32793,77,33,0
197.10036,197.32793,74,33,0
197.32793,197.7575,75,38,0
197.32793,197.7575,72,38,0
198.41458,198.64098,65,49,0
198.41458,198.64098,62,41,0
198.63019,198.85736,64,47,0
198.63019,198.85736,67,56,0
198.8458,199.07703,63,53,0
198.8458,199.07703,69,64,0
199.07703,199.31497,70,72,0
199.07703,199.31497,62,61,0
199.55292,199.79086,74,70,0
199.55292,199.79086,65,60,0
200.02881,200.26675,70,70,0
200.02881,200.26675,62,60,0
1.5825084,1.788383,58,30,0
1.788383,1.9942575,65,23,0
1.9942575,2.2053254,60,23,0
2.2053254,2.4161773,65,23,0
2.4161773,2.6212351,62,23,0
2.6212351,2.8262932,65,23,0
2.8262932,3.0321677,58,23,0
3.0321677,3.2380424,65,25,0
3.2380424,3.3367004,57,30,0
3.4353588,3.5395255,65,23,0
3.6436923,3.743866,58,25,0
3.8440397,3.9465687,65,25,0
4.0490975,4.25257,60,25,0
4.25257,4.4600677,65,25,0
4.4600677,4.6635404,63,25,0
4.6635404,4.867013,65,24,0
4.867013,5.061389,62,31,0
5.061389,5.2705503,65,24,0
5.2705503,5.474023,62,31,0
5.474023,5.6774955,65,24,0
5.6774955,5.8711686,57,32,0
5.8711686,6.077043,65,26,0
6.077043,6.2817087,57,32,0
6.2817087,6.4859715,65,27,0
6.4859715,6.5835323,58,32,0
6.681093,6.7840304,57,28,0
6.8869677,6.985626,58,28,0
7.0842843,7.18971,51,28,0
7.2951365,7.697389,53,32,0
8.11023,8.316105,58,30,0
8.316105,8.521979,65,23,0
8.521979,8.7330475,60,23,0
8.7330475,8.943899,65,23,0
8.943899,9.148957,62,23,0
9.148957,9.354015,65,23,0
9.354015,9.55989,58,23,0
9.55989,9.765764,65,25,0
9.765764,9.864423,57,30,0
9.963081,10.067247,65,23,0
10.171414,10.271588,58,25,0
10.371762,10.474291,65,25,0
10.57682,10.7802925,60,25,0
10.7802925,10.98779,65,25,0
10.98779,11.191262,63,25,0
11.191262,11.394735,65,24,0
11.394735,11.790237,62,31,0
12.190932,12.5880785,63,23,0
12.190932,12.5880785,67,32,0
12.996406,13.391875,62,30,0
13.391875,13.792959,63,28,0
12.996406,13.792959,53,25,0
13.792959,14.195212,62,32,0
13.792959,14.195212,58,28,0
14.608053,14.810962,53,30,0
14.810962,15.01387,57,23,0
15.01387,15.22193,55,23,0
15.22193,15.429989,58,23,0
15.429989,15.628877,57,23,0
15.628877,15.830367,60,23,0
15.830367,16.036242,58,23,0
16.036242,16.242117,65,25,0
16.242117,16.848114,63,30,0
16.848114,17.053171,64,30,0
17.053171,17.464142,65,25,0
17.893661,18.09657,53,30,0
18.09657,18.299479,57,23,0
18.299479,18.507536,55,23,0
18.507536,18.715595,58,23,0
18.715595,18.914484,57,23,0
18.914484,19.115974,60,23,0
19.115974,19.32185,58,23,0
19.32185,19.527723,65,25,0
19.527723,20.33878,70,37,0
19.527723,20.33878,67,30,0
20.33878,20.749748,65,25,0
20.33878,20.749748,69,30,0
21.156694,21.97098,70,37,0
21.156694,21.97098,67,30,0
21.97098,22.371359,69,30,0
21.97098,22.371359,65,25,0
22.783108,23.597393,70,37,0
22.783108,23.597393,67,30,0
23.597393,23.995018,69,30,0
23.597393,23.995018,65,25,0
24.413246,24.619122,58,30,0
24.619122,24.824995,65,23,0
24.824995,25.036064,60,23,0
25.036064,25.246916,65,23,0
25.246916,25.451973,62,23,0
25.451973,25.657032,65,23,0
25.657032,25.862906,58,23,0
25.862906,26.06878,65,25,0
26.06878,26.167439,57,30,0
26.266096,26.370264,65,23,0
26.47443,26.574604,58,25,0
26.674778,26.777308,65,25,0
26.879835,27.08331,60,25,0
27.08331,27.290806,65,25,0
27.290806,27.494278,63,25,0
27.494278,27.69775,65,24,0
27.69775,27.892126,62,31,0
27.892126,28.101288,65,24,0
28.101288,28.30476,62,31,0
28.30476,28.508234,65,24,0
28.508234,28.701906,57,32,0
28.701906,28.907782,65,26,0
28.907782,29.112446,57,32,0
29.112446,29.31671,65,27,0
29.31671,29.41427,58,32,0
29.511831,29.614769,57,28,0
29.717707,29.816364,58,28,0
29.915022,30.020449,51,28,0
30.125874,30.528128,53,32,0
30.94097,31.146843,58,30,0
31.146843,31.352718,65,23,0
31.352718,31.563786,60,23,0
31.563786,31.774637,65,23,0
31.774637,31.979696,62,23,0
31.979696,32.184753,65,23,0
32.184753,32.39063,58,23,0
32.39063,32.596504,65,25,0
32.596504,32.79382,57,30,0
32.79382,33.00215,65,23,0
33.00215,33.2025,58,25,0
33.2025,33.40756,65,25,0
33.40756,33.61103,60,25,0
33.61103,33.818527,65,25,0
33.818527,34.022,63,25,0
34.022,34.22547,65,24,0
34.22547,34.620975,62,31,0
35.02167,35.418816,63,27,0
35.02167,35.418816,67,32,0
35.827145,36.222614,62,30,0
36.222614,36.623695,63,28,0
35.827145,36.623695,53,21,0
36.623695,37.02595,62,32,0
36.623695,37.02595,58,28,0
37.438793,37.53728,46,59,0
37.635773,37.78985,58,54,0
37.84121,37.99956,58,54,0
38.052277,38.210415,58,54,0
38.263126,38.361618,46,59,0
38.460106,38.614185,58,54,0
38.665543,38.8239,58,54,0
38.876614,39.03475,58,54,0
39.087463,39.489723,63,57,0
39.489723,39.891273,60,52,0
39.087463,39.891273,58,57,0
39.891273,40.291965,58,52,0
39.891273,40.291965,62,52,0
40.695625,40.794113,46,59,0
40.892605,41.046684,58,54,0
41.09804,41.256397,58,54,0
41.30911,41.467247,58,54,0
41.519962,41.61845,46,59,0
41.71694,41.871017,58,54,0
41.92238,42.080734,58,54,0
42.133446,42.291584,58,54,0
42.3443,42.746555,67,57,0
42.746555,43.148106,69,52,0
42.3443,43.148106,58,57,0
43.148106,43.548798,58,52,0
43.148106,43.548798,70,52,0
43.962822,44.164124,66,36,0
44.164124,44.365425,69,30,0
44.365425,44.566727,67,30,0
44.566727,44.77668,70,30,0
44.77668,44.977806,69,36,0
44.977806,45.178932,72,32,0
45.178932,45.38006,70,32,0
45.38006,45.586983,74,32,0
45.586983,45.784637,64,36,0
45.784637,45.982292,67,32,0
45.982292,46.179947,65,32,0
46.179947,46.382236,69,32,0
46.382236,46.579216,67,36,0
46.579216,46.776196,70,31,0
46.776196,46.973175,69,31,0
46.973175,47.176235,72,31,0
47.176235,47.569782,65,36,0
47.176235,47.569782,57,36,0
47.968956,48.36391,65,36,0
47.968956,48.36391,67,36,0
47.968956,48.36391,58,36,0
48.7648,49.16988,69,36,0
49.16988,49.627865,70,31,0
48.7648,49.627865,60,36,0
49.627865,50.0863,70,36,0
50.0863,50.262096,69,33,0
49.627865,50.314835,65,36,0
50.53241,50.6309,46,59,0
50.72939,50.88347,58,54,0
50.934826,51.09318,58,54,0
51.145893,51.30403,58,54,0
51.356747,51.455235,46,59,0
51.553726,51.7078,58,54,0
51.759163,51.91752,58,54,0
51.97023,52.12837,58,54,0
52.181084,52.58334,63,57,0
52.58334,52.98489,60,52,0
52.181084,52.98489,58,57,0
52.98489,53.389263,58,52,0
52.98489,53.389263,62,52,0
53.79872,53.89721,46,59,0
53.9957,54.149776,58,54,0
54.201138,54.359493,58,54,0
54.412205,54.570343,58,54,0
54.62306,54.721546,46,59,0
54.820038,54.974113,58,54,0
55.025475,55.183826,58,54,0
55.23654,55.39468,58,54,0
55.44739,55.84965,67,57,0
55.84965,56.2512,69,52,0
55.44739,56.2512,58,57,0
56.2512,56.651894,58,52,0
56.2512,56.651894,70,52,0
57.055553,57.257385,66,36,0
57.257385,57.459213,69,30,0
57.459213,57.661045,67,30,0
57.661045,57.870995,70,30,0
57.870995,58.07212,69,36,0
58.07212,58.27325,72,32,0
58.27325,58.474377,70,32,0
58.474377,58.6813,74,32,0
58.6813,58.878956,64,36,0
58.878956,59.07661,67,32,0
59.07661,59.274265,65,32,0
59.274265,59.476555,69,32,0
59.476555,59.673534,67,36,0
59.673534,59.870514,70,31,0
59.870514,60.067493,69,31,0
60.067493,60.270554,72,31,0
60.270554,60.6641,65,36,0
60.270554,60.6641,57,36,0
61.063274,61.45823,65,36,0
61.063274,61.45823,67,36,0
61.063274,61.45823,58,36,0
61.85912,62.264194,69,36,0
62.264194,62.722183,70,31,0
61.85912,62.722183,60,36,0
62.722183,63.18062,70,36,0
63.18062,63.364666,69,33,0
62.722183,63.41886,65,36,0
63.637733,63.73622,38,59,0
63.834713,63.98879,50,54,0
64.040146,64.1985,50,54,0
64.25121,64.409355,50,54,0
64.46207,64.560555,43,59,0
64.65905,64.813126,55,54,0
64.86449,65.02284,55,54,0
65.075554,65.23369,55,54,0
65.28641,65.384895,36,59,0
65.48338,65.63746,48,54,0
65.68882,65.847176,48,54,0
65.89989,66.05803,48,54,0
66.11074,66.20923,41,59,0
66.307724,66.4618,53,54,0
66.51316,66.67151,53,54,0
66.72423,66.88236,53,54,0
66.935074,67.13273,58,38,0
67.13273,67.33038,61,34,0
67.33038,67.52804,58,34,0
67.52804,67.73033,56,34,0
67.73033,67.927986,54,38,0
67.927986,68.12564,58,34,0
68.12564,68.323296,54,34,0
68.323296,68.5366,53,34,0
68.5366,68.73259,52,34,0
68.94686,69.3837,67,30,0
68.94686,69.3837,60,25,0
69.3837,69.98156,65,37,0
70.250244,70.34873,46,59,0
70.44722,70.6013,58,54,0
70.652664,70.81101,58,54,0
70.86373,71.021866,58,54,0
71.07458,71.17307,46,59,0
71.27156,71.42564,58,54,0
71.477,71.63535,58,54,0
71.688065,71.84621,58,54,0
71.89892,72.30118,63,57,0
72.30118,72.70273,60,52,0
71.89892,72.70273,58,57,0
72.70273,73.10342,58,52,0
72.70273,73.10342,62,52,0
73.518196,73.616684,46,59,0
73.71518,73.869255,58,54,0
73.920616,74.07897,58,54,0
74.13168,74.28982,58,54,0
74.34254,74.441025,46,59,0
74.53951,74.69359,58,54,0
74.74495,74.903305,58,54,0
74.95602,75.11416,58,54,0
75.16687,75.56913,67,57,0
75.56913,75.97068,69,52,0
75.16687,75.97068,58,57,0
75.97068,76.37137,58,52,0
75.97068,76.37137,70,52,0
76.77503,76.97686,59,36,0
76.97686,77.17869,62,30,0
77.17869,77.38052,60,30,0
77.38052,77.59047,63,30,0
77.59047,77.791595,62,36,0
77.791595,77.99273,65,32,0
77.99273,78.193855,63,32,0
78.193855,78.40078,67,32,0
78.40078,78.598434,57,36,0
78.598434,78.79609,60,32,0
78.79609,78.993744,58,32,0
78.993744,79.19603,62,32,0
79.19603,79.39301,60,36,0
79.39301,79.58999,63,31,0
79.58999,79.78697,62,31,0
79.78697,79.99003,65,31,0
79.99003,80.383575,58,36,0
79.99003,80.383575,53,36,0
79.99003,80.383575,50,36,0
80.78275,81.177704,58,36,0
80.78275,81.177704,60,36,0
80.78275,81.177704,51,36,0
81.5786,81.98367,62,36,0
81.98367,82.44166,63,31,0
81.5786,82.44166,53,36,0
82.44166,82.90009,63,36,0
82.90009,83.07589,62,33,0
82.44166,83.13449,58,36,0
83.34621,83.444695,38,59,0
83.54318,83.69726,50,54,0
83.74862,83.906975,50,54,0
83.95969,84.11783,50,54,0
84.17054,84.26903,43,59,0
84.367516,84.5216,55,54,0
84.57295,84.73131,55,54,0
84.78403,84.94216,55,54,0
84.99487,85.09337,36,59,0
85.19186,85.34593,48,54,0
85.39729,85.55565,48,54,0
85.60836,85.7665,48,54,0
85.819214,85.9177,41,59,0
86.01619,86.17027,53,54,0
86.22163,86.37998,53,54,0
86.43269,86.590836,53,54,0
86.64355,86.8412,58,38,0
86.8412,87.03886,61,34,0
87.03886,87.23651,58,34,0
87.23651,87.438805,56,34,0
87.438805,87.63646,54,38,0
87.63646,87.834114,58,34,0
87.834114,88.03177,54,34,0
88.03177,88.260994,53,34,0
88.260994,88.456985,52,34,0
88.67125,89.10809,67,30,0
88.67125,89.10809,60,25,0
89.10809,89.705956,65,37,0
89.97464,90.07313,46,59,0
90.171616,90.3257,58,54,0
90.37705,90.53541,58,54,0
90.58812,90.74626,58,54,0
90.79897,90.89746,46,59,0
90.99596,91.15003,58,54,0
91.20139,91.35975,58,54,0
91.41246,91.570595,58,54,0
91.623314,92.02557,63,57,0
92.02557,92.427124,60,52,0
91.623314,92.427124,58,57,0
92.427124,92.832275,58,52,0
92.427124,92.832275,62,52,0
93.24189,93.34038,46,59,0
93.438866,93.59295,58,54,0
93.6443,93.80266,58,54,0
93.85537,94.01351,58,54,0
94.06622,94.16472,46,59,0
94.26321,94.41728,58,54,0
94.46864,94.627,58,54,0
94.67971,94.837845,58,54,0
94.890564,95.29282,67,57,0
95.29282,95.694374,69,52,0
94.890564,95.694374,58,57,0
95.694374,96.09506,58,52,0
95.694374,96.09506,70,52,0
96.498726,96.700554,59,36,0
96.700554,96.90238,62,30,0
96.90238,97.10421,60,30,0
97.10421,97.31416,63,30,0
97.31416,97.51529,62,36,0
97.51529,97.716415,65,32,0
97.716415,97.91754,63,32,0
97.91754,98.124466,67,32,0
98.124466,98.32212,57,36,0
98.32212,98.519775,60,32,0
98.519775,98.71743,58,32,0
98.71743,98.91972,62,32,0
98.91972,99.1167,60,36,0
99.1167,99.31368,63,31,0
99.31368,99.51066,62,31,0
99.51066,99.71372,65,31,0
99.71372,100.10727,58,36,0
99.71372,100.10727,53,36,0
99.71372,100.10727,50,36,0
100.50644,100.9014,58,36,0
100.50644,100.9014,60,36,0
100.50644,100.9014,51,36,0
101.302284,101.70737,62,36,0
101.70737,102.17587,63,31,0
101.302284,102.17587,53,36,0
102.17587,102.6343,63,36,0
102.6343,102.8101,62,33,0
102.17587,102.8687,58,36,0
103.30718,103.419334,62,33,0
103.30718,103.419334,58,26,0
103.53148,103.63901,62,33,0
103.53148,103.63901,58,26,0
104.17992,104.2925,62,33,0
104.17992,104.2925,58,26,0
104.40509,104.51425,62,33,0
104.40509,104.51425,58,26,0
107.03144,107.448746,58,29,0
107.03144,107.448746,55,24,0
107.85962,108.27631,63,29,0
107.85962,108.27631,56,24,0
108.69575,109.11014,53,29,0
108.69575,109.11014,50,24,0
109.11014,109.315575,58,29,0
109.11014,109.315575,51,24,0
110.13929,110.24039,63,30,0
110.341484,110.44258,62,35,0
110.543686,110.64719,59,32,0
110.750694,110.85192,60,35,0
110.95315,111.05438,57,29,0
111.35806,111.565834,52,31,0
111.15561,111.97075,58,35,0
111.97075,112.38659,57,35,0
111.565834,112.38659,53,35,0
112.38659,112.48932,58,39,0
112.59204,112.69752,53,36,0
112.80299,112.91011,50,35,0
113.01722,113.13048,46,35,0
113.658615,114.07414,58,29,0
113.658615,114.07414,55,24,0
114.48167,114.89556,63,29,0
114.48167,114.89556,56,24,0
115.30895,115.72248,53,29,0
115.30895,115.72248,50,24,0
115.72248,115.92552,58,29,0
115.72248,115.92552,51,24,0
116.74984,116.85152,63,30,0
116.953186,117.05486,62,35,0
117.15653,117.26004,59,32,0
117.36355,117.464195,60,35,0
117.56485,117.6655,57,29,0
117.96745,118.175224,52,31,0
117.76615,118.58192,58,35,0
118.58192,118.99866,57,35,0
118.175224,118.99866,53,35,0
118.99866,119.10138,58,39,0
119.20411,119.309586,53,36,0
119.41506,119.52217,50,35,0
119.62929,119.74208,46,35,0
119.854866,119.96128,61,46,0
120.067696,120.17104,61,39,0
120.27439,120.37599,61,39,0
120.477585,120.579185,61,39,0
120.680786,120.781654,52,44,0
120.88252,120.98339,52,39,0
121.08426,121.18512,52,39,0
121.28599,121.38927,52,39,0
121.492546,121.59415,60,44,0
121.69574,121.79661,60,38,0
121.89748,121.998344,60,38,0
122.09921,122.20008,60,39,0
122.30095,122.40254,50,44,0
122.50414,122.60574,50,37,0
122.707344,122.80894,50,37,0
122.91054,123.01642,50,39,0
123.1223,123.223526,51,41,0
123.32475,123.42598,51,42,0
123.527214,123.62844,50,44,0
123.72967,123.830894,49,47,0
123.93212,124.034096,48,49,0
124.13606,124.23804,47,49,0
124.34001,124.44236,46,47,0
124.5447,124.649376,45,47,0
124.75405,124.9595,46,50,0
124.9595,125.164955,45,44,0
125.164955,125.37041,46,50,0
125.37041,125.57586,45,44,0
125.57586,125.782974,46,44,0
126.8214,127.23563,58,35,0
126.8214,127.23563,55,29,0
127.64053,128.05312,63,35,0
127.64053,128.05312,56,29,0
128.461,128.87166,53,35,0
128.461,128.87166,50,29,0
128.87166,129.07326,58,35,0
128.87166,129.07326,51,29,0
129.89389,129.99498,68,30,0
130.09608,130.19719,67,35,0
130.29828,130.4018,64,32,0
130.5053,130.60652,65,35,0
130.70775,130.80898,62,29,0
131.11266,131.32043,57,31,0
130.9102,131.72534,63,35,0
131.72534,132.14119,62,35,0
131.32043,132.14119,58,35,0
132.14119,132.24391,63,39,0
132.34663,132.45212,58,36,0
132.5576,132.6647,55,35,0
132.77182,132.88509,51,35,0
132.99834,133.10274,61,46,0
133.20715,133.3105,61,39,0
133.41385,133.51544,61,39,0
133.61705,133.71864,61,39,0
133.82024,133.92111,52,44,0
134.02197,134.12285,52,39,0
134.22371,134.32458,52,39,0
134.42545,134.52798,52,39,0
134.63054,134.73213,60,44,0
134.83372,134.9346,60,38,0
135.03546,135.13634,60,38,0
135.2372,135.33807,60,39,0
135.43893,135.54053,50,44,0
135.64214,135.74373,50,37,0
135.84532,135.94693,50,37,0
136.04852,136.1544,50,39,0
136.26028,136.36151,51,41,0
136.46274,136.56396,51,42,0
136.66519,136.76642,50,44,0
136.86766,136.96889,49,47,0
137.07011,137.17209,48,49,0
137.27405,137.37602,47,49,0
137.478,137.58034,46,47,0
137.6827,137.78737,45,47,0
137.89204,138.09749,46,50,0
138.09749,138.30295,45,44,0
138.30295,138.50839,46,50,0
138.50839,138.71385,45,44,0
138.71385,138.92096,46,44,0
139.9594,140.37361,58,35,0
139.9594,140.37361,55,29,0
140.77852,141.1911,63,35,0
140.77852,141.1911,56,29,0
141.599,142.00964,53,35,0
141.599,142.00964,50,29,0
142.00964,142.21126,58,35,0
142.00964,142.21126,51,29,0
143.03188,143.13354,68,30,0
143.23523,143.3369,67,35,0
143.43857,143.54208,64,32,0
143.64558,143.74692,65,35,0
143.84825,143.94957,62,29,0
144.25357,144.46133,57,31,0
144.0509,144.86626,63,35,0
144.86626,145.28209,62,35,0
144.46133,145.28209,58,35,0
145.28209,145.38483,63,39,0
145.48755,145.59302,58,36,0
145.6985,145.80562,55,35,0
145.91272,146.02066,51,35,0
146.1286,146.2294,55,35,0
146.33022,146.5419,67,38,0
146.53183,146.7419,66,39,0
146.73193,146.94008,65,39,0
146.93018,147.13893,63,40,0
147.12895,147.3385,62,41,0
147.32849,147.5388,60,42,0
147.52876,147.72975,58,43,0
147.72975,148.12643,57,44,0
148.32246,148.53221,69,40,0
148.52246,148.72769,70,45,0
148.71785,148.92435,72,40,0
148.9145,149.12135,74,44,0
149.1113,149.31161,72,42,0
149.31161,149.40999,71,49,0
149.50838,149.60991,72,43,0
149.71143,149.80981,69,49,0
149.9082,150.00972,70,44,0
150.11125,150.20964,67,49,0
150.30801,150.40918,69,43,0
150.51035,150.60872,66,48,0
150.7071,150.80899,67,43,0
150.91087,151.71478,70,57,0
150.91087,151.71478,67,48,0
151.71478,152.1138,69,35,0
151.71478,152.1138,65,29,0
152.5128,153.3064,70,39,0
152.5128,153.3064,67,33,0
153.3064,153.70453,69,32,0
153.3064,153.70453,65,27,0
154.11148,154.90494,70,35,0
154.11148,154.90494,67,29,0
154.90494,155.30586,69,33,0
154.90494,155.30586,65,28,0
155.73625,155.94212,58,29,0
155.94212,156.148,65,23,0
156.148,156.35907,60,23,0
156.35907,156.56992,65,23,0
156.56992,156.77498,62,23,0
156.77498,156.98004,65,23,0
156.98004,157.18591,58,23,0
157.18591,157.39178,65,25,0
157.39178,157.5891,57,30,0
157.5891,157.79744,65,23,0
157.79744,157.99779,58,25,0
157.99779,158.20284,65,25,0
158.20284,158.40631,60,25,0
158.40631,158.61382,65,25,0
158.61382,158.81729,63,25,0
158.81729,159.02075,65,24,0
159.02075,159.11795,62,31,0
159.21513,159.4243,65,24,0
159.4243,159.62776,62,31,0
159.62776,159.83124,65,24,0
159.83124,159.92807,57,32,0
160.02492,160.23079,65,26,0
160.23079,160.43546,57,32,0
160.43546,160.63971,65,27,0
160.63971,160.73727,58,32,0
160.83484,160.93777,57,28,0
161.04071,161.13937,58,28,0
161.23802,161.34346,51,28,0
161.44888,161.85114,53,32,0
162.26398,162.46985,58,30,0
162.46985,162.67572,65,23,0
162.67572,162.8868,60,23,0
162.8868,163.09764,65,23,0
163.09764,163.3027,62,23,0
163.3027,163.50777,65,23,0
163.50777,163.71364,58,23,0
163.71364,163.91951,65,25,0
163.91951,164.11682,57,30,0
164.11682,164.32516,65,23,0
164.32516,164.52551,58,25,0
164.52551,164.73056,65,25,0
164.73056,164.93404,60,25,0
164.93404,165.14154,65,25,0
165.14154,165.345,63,25,0
165.345,165.54848,65,24,0
165.54848,165.94398,62,31,0
166.34468,166.74182,63,25,0
166.34468,166.74182,67,32,0
167.15015,167.54562,62,32,0
167.54562,167.9467,63,28,0
167.15015,167.9467,53,27,0
167.9467,168.34895,62,32,0
167.9467,168.34895,58,28,0
168.7618,168.86029,46,59,0
168.95877,169.11285,58,54,0
169.16422,169.32257,58,54,0
169.37527,169.53342,58,54,0
169.58614,169.68462,46,59,0
169.78311,169.9372,58,54,0
169.98856,170.14691,58,54,0
170.19962,170.35776,58,54,0
170.41048,170.50896,41,59,0
170.60745,170.76152,53,54,0
170.81288,170.97124,53,54,0
171.02396,171.1821,53,54,0
171.2348,171.38254,46,59,0
171.43178,171.63722,58,54,0
171.63722,171.80287,58,54,0
171.8581,171.96394,58,34,0
172.06981,172.16829,46,41,0
172.26678,172.42085,58,37,0
172.47221,172.63057,58,37,0
172.68329,172.84143,58,37,0
172.89413,172.99263,46,41,0
173.09111,173.2452,58,37,0
173.29655,173.45491,58,37,0
173.50763,173.66576,58,37,0
173.71848,173.81697,41,41,0
173.91545,174.06953,53,37,0
174.1209,174.27925,53,37,0
174.33195,174.4901,53,37,0
174.54282,174.69055,46,41,0
174.73979,174.94522,58,37,0
174.94522,175.1094,58,37,0
175.79292,176.4188,55,55,0
176.4188,176.52158,57,50,0
176.52158,176.62436,58,50,0
176.62436,176.82991,60,55,0
176.82991,177.24408,58,50,0
177.24408,177.44891,57,55,0
177.65375,177.86537,41,46,0
177.86537,178.0702,42,48,0
178.0702,178.27504,43,49,0
178.27504,178.47987,44,51,0
178.47987,178.68471,45,52,0
178.68471,178.89479,46,55,0
178.89479,178.99611,58,50,0
179.09744,179.2006,60,50,0
179.30376,179.40439,62,49,0
179.505,179.60564,63,48,0
179.70625,179.80688,63,48,0
179.9075,180.00813,65,46,0
180.10875,180.21265,66,45,0
180.31654,180.71765,65,49,0
180.71765,181.13708,65,49,0
181.13708,181.54242,66,52,0
181.54242,181.74507,67,49,0
181.74507,181.94774,43,49,0
181.94774,182.05316,58,44,0
182.15858,182.26175,58,34,0
182.3649,182.46806,58,34,0
182.57121,182.6782,58,34,0
182.78522,182.888,52,39,0
182.99077,183.09355,52,35,0
183.19633,183.29912,52,35,0
183.4019,183.50656,52,35,0
183.61122,183.71364,54,44,0
183.81606,183.91847,54,35,0
184.02089,184.1233,54,35,0
184.22572,184.33154,54,35,0
184.43735,184.53976,45,44,0
184.64218,184.7446,45,36,0
184.84702,184.94943,45,36,0
185.05185,185.15427,45,36,0
185.25668,185.36172,46,48,0
185.46677,185.5681,58,49,0
185.66943,185.7726,57,51,0
185.87575,185.97636,56,55,0
186.07686,186.17761,55,57,0
186.27914,186.38153,54,59,0
186.48473,186.58876,53,62,0
186.69365,186.79941,50,64,0
186.90605,187.24474,51,67,0
187.35762,187.8092,52,69,0
187.35762,187.8092,40,58,0
188.66577,188.8768,53,56,0
188.8768,189.08781,62,47,0
189.08781,189.29723,58,47,0
189.29723,189.50595,62,47,0
189.50595,189.7138,53,52,0
189.7138,189.921,62,44,0
189.921,190.1287,58,44,0
190.1287,190.33682,62,44,0
190.33682,190.54964,53,49,0
190.54964,190.76205,63,27,0
190.76205,190.97528,60,34,0
190.97528,191.19055,63,34,0
191.19055,191.40614,53,41,0
191.40614,191.62091,63,34,0
191.62091,191.84583,60,35,0
191.84583,192.09134,63,35,0
192.09134,192.25488,46,38,0
192.30939,192.47293,58,31,0
192.52745,192.69098,58,31,0
192.7455,192.90904,58,31,0
192.96356,193.3967,58,38,0
193.84175,194.00467,46,35,0
194.05898,194.22191,58,31,0
194.27621,194.43913,58,31,0
194.49345,194.65637,58,31,0
194.71068,195.139,58,35,0
195.58073,195.74306,46,35,0
195.79716,195.95947,58,30,0
196.01358,196.1742,58,30,0
196.22774,196.39708,58,30,0
196.45352,196.88475,58,35,0
197.32793,197.48901,41,40,0
197.54271,197.70381,53,35,0
197.7575,197.9186,53,35,0
197.97229,198.1423,53,35,0
198.19897,198.63019,53,38,0
199.07703,199.31497,46,47,0
199.55292,199.79086,58,49,0
200.02881,200.26675,46,49,0
