start_time,end_time,note_value,velocity,instrument_program_number
0.0,2.184598,71,50,0
2.184598,2.5122876,74,50,0
2.4576728,2.7853625,72,46,0
2.7307475,3.0651343,71,46,0
3.0038223,3.364505,72,48,0
3.3103828,4.122217,74,54,0
4.122217,4.4056106,71,47,0
4.4056106,5.4880567,67,47,0
6.597333,8.236486,79,67,0
8.236486,8.507098,81,62,0
8.507098,8.777709,79,55,0
8.777709,9.102443,78,57,0
9.048321,9.3730545,76,46,0
9.318933,9.647314,74,51,0
9.589543,9.932516,73,46,0
9.878394,10.690228,74,53,0
10.690228,10.973622,71,47,0
10.973622,12.056068,67,45,0
13.128838,13.94318,72,50,0
13.94318,14.211372,69,47,0
14.211372,14.47256,66,52,0
14.7337475,14.994935,69,47,0
15.256123,15.521938,71,51,0
15.79255,16.063162,72,52,0
16.35482,17.166655,74,57,0
17.166655,17.437265,71,61,0
17.437265,18.50053,79,65,0
19.605011,19.900023,81,68,0
19.873203,20.168215,79,59,0
20.141396,20.436407,78,64,0
20.409588,20.67778,79,58,0
20.67778,20.972794,78,64,0
20.945974,21.240986,76,54,0
21.214167,21.509178,75,59,0
21.482359,21.750551,76,53,0
21.750551,22.045563,74,62,0
22.018744,22.313755,72,53,0
22.286936,22.583738,71,56,0
22.555128,22.841225,72,53,0
22.841225,23.653059,71,59,0
23.653059,23.788364,72,50,0
23.788364,23.92367,71,50,0
23.92367,24.485153,69,57,0
24.485153,25.07003,74,54,0
25.046635,25.631514,73,52,0
25.608118,26.1696,72,50,0
26.1696,27.527716,71,50,0
27.527716,27.793531,67,46,0
27.778025,28.041643,71,48,0
28.041643,28.307323,74,46,0
28.322828,28.588644,72,54,0
28.588644,28.854462,69,46,0
28.854462,29.120277,72,54,0
29.120277,29.426838,76,51,0
29.426838,30.231415,74,58,0
30.231415,30.50449,71,47,0
30.50449,30.635084,67,47,0
30.765676,30.89627,67,46,0
31.026865,31.157457,69,47,0
31.288052,31.418646,71,48,0
31.54924,31.678492,72,49,0
31.807295,31.936987,74,50,0
32.06804,32.200012,76,51,0
32.333397,32.476444,78,53,0
32.61949,32.938473,79,57,0
32.885307,33.20429,78,50,0
33.151123,33.470104,79,56,0
33.41694,33.73592,78,52,0
33.682755,34.001736,81,59,0
33.94857,34.26755,79,57,0
34.21439,34.533367,78,54,0
34.480206,34.800144,79,49,0
34.74602,35.070755,78,52,0
35.016632,35.341366,76,50,0
35.287243,35.615623,74,48,0
35.557854,35.899868,73,46,0
35.846706,36.112522,74,50,0
36.112522,36.378338,71,43,0
36.378338,36.644154,74,47,0
36.644154,36.927547,71,43,0
36.927547,38.00999,67,47,0
39.092438,39.36063,72,50,0
39.36063,39.628822,69,46,0
39.628822,39.897015,72,46,0
39.897015,40.163795,69,43,0
40.163795,40.29647,66,50,0
40.42938,40.695194,69,46,0
40.695194,40.96101,68,49,0
40.96101,41.226124,69,51,0
41.226124,41.489605,70,54,0
41.489605,41.755424,71,51,0
41.755424,42.02124,72,54,0
42.02124,42.277958,73,56,0
42.277958,42.53689,74,59,0
42.53689,42.802704,71,51,0
42.802704,43.06852,74,54,0
43.06852,43.33434,71,51,0
43.33434,44.397602,79,63,0
44.673183,44.997917,83,67,0
44.943794,45.273895,78,62,0
45.21441,45.51185,79,56,0
45.51185,45.836582,75,58,0
45.78246,46.107197,76,49,0
46.053074,46.384377,72,53,0
46.323685,46.627144,69,46,0
46.627144,47.44637,67,53,0
47.44637,47.719444,67,44,0
47.719444,48.059513,71,55,0
48.002834,48.342907,69,44,0
48.28623,48.637913,67,49,0
48.569622,48.891155,69,42,0
47.719444,48.911076,66,47,0
48.911076,50.21741,69,53,0
48.911076,50.21741,66,42,0
50.21741,51.23557,67,48,0
52.253723,54.438324,71,50,0
54.438324,54.766014,74,50,0
54.7114,55.039085,72,46,0
54.98447,55.31886,71,46,0
55.257545,55.61823,72,48,0
55.564106,56.375942,74,54,0
56.375942,56.659336,71,47,0
56.659336,57.74178,67,47,0
58.83667,60.475826,79,67,0
60.475826,60.746437,81,62,0
60.746437,61.017048,79,55,0
61.017048,61.34178,78,57,0
61.28766,61.612392,76,46,0
61.55827,61.886654,74,51,0
61.82888,62.171856,73,46,0
62.117733,62.929565,74,53,0
62.929565,63.21296,71,47,0
63.21296,64.2954,67,45,0
65.35867,66.17301,72,50,0
66.17301,66.44121,69,47,0
66.44121,66.70239,66,52,0
66.96358,67.22477,69,47,0
67.485954,67.75177,71,51,0
68.022385,68.29299,72,52,0
68.57909,69.39092,74,57,0
69.39092,69.66154,71,61,0
69.66154,70.7248,79,65,0
71.82928,72.12429,81,68,0
72.09747,72.39249,79,59,0
72.36566,72.660675,78,64,0
72.63386,72.902054,79,58,0
72.902054,73.19706,78,64,0
73.17024,73.465256,76,54,0
73.43844,73.733444,75,59,0
73.70663,73.97482,76,53,0
73.97482,74.26983,74,62,0
74.24301,74.538025,72,53,0
74.51121,74.80801,71,56,0
74.779396,75.06549,72,53,0
75.06549,75.87733,71,59,0
75.87733,76.012634,72,50,0
76.012634,76.14794,71,50,0
76.14794,76.70942,69,57,0
76.70942,77.2943,74,54,0
77.270905,77.85578,73,52,0
77.83239,78.39387,72,50,0
78.39387,79.75198,71,50,0
79.75198,80.0178,67,46,0
80.0023,80.265915,71,48,0
80.265915,80.53159,74,46,0
80.5471,80.81291,72,54,0
80.81291,81.07873,69,46,0
81.07873,81.34454,72,54,0
81.34454,81.65111,76,51,0
81.65111,82.45568,74,58,0
82.45568,82.72876,71,47,0
82.72876,82.85935,67,47,0
82.989944,83.12054,67,46,0
83.25114,83.3806,69,47,0
83.51007,83.639534,71,48,0
83.769,83.89941,72,49,0
84.03072,84.16297,74,50,0
84.29616,84.430016,76,51,0
84.5634,84.70645,78,53,0
84.849495,85.16847,79,57,0
85.11531,85.43429,78,50,0
85.38113,85.7001,79,56,0
85.64694,85.96592,78,52,0
85.91276,86.23174,81,59,0
86.17857,86.49756,79,57,0
86.44439,86.763374,78,54,0
86.710205,87.03014,79,49,0
86.97602,87.30076,78,52,0
87.246635,87.57137,76,50,0
87.51725,87.84563,74,48,0
87.78786,88.129875,73,46,0
88.076706,88.34252,74,50,0
88.34252,88.60834,71,43,0
88.60834,88.87415,74,47,0
88.87415,89.15755,71,43,0
89.15755,90.24,67,47,0
91.32244,91.59064,72,50,0
91.59064,91.858826,69,46,0
91.858826,92.12702,72,46,0
92.12702,92.3938,69,43,0
92.3938,92.526474,66,50,0
92.65938,92.92519,69,46,0
92.92519,93.19102,68,49,0
93.19102,93.45613,69,51,0
93.45613,93.71961,70,54,0
93.71961,93.98543,71,51,0
93.98543,94.25124,72,54,0
94.25124,94.50796,73,56,0
94.50796,94.76689,74,59,0
94.76689,95.03271,71,51,0
95.03271,95.29852,74,54,0
95.29852,95.56434,71,51,0
95.56434,96.6276,79,63,0
96.90319,97.22792,83,67,0
97.1738,97.5039,78,62,0
97.44441,97.74185,79,56,0
97.74185,98.06659,75,58,0
98.01247,98.3372,76,49,0
98.28307,98.61438,72,53,0
98.55369,98.85715,69,46,0
98.85715,99.67637,67,53,0
99.67637,99.94945,67,44,0
99.94945,100.28952,71,55,0
100.23284,100.572914,69,44,0
100.516235,100.86792,67,49,0
100.79963,101.12116,69,42,0
99.94945,101.141075,66,47,0
101.141075,102.44742,66,42,0
101.141075,102.44742,69,53,0
102.44742,103.46557,67,48,0
104.48373,105.7943,74,50,0
105.7943,106.11281,73,46,0
106.06011,106.376755,76,49,0
106.32359,106.64257,74,46,0
106.58941,106.90839,79,52,0
106.855225,107.1742,78,46,0
107.12104,107.44408,76,49,0
107.386856,107.72519,74,46,0
107.67295,108.45651,73,50,0
108.45651,108.72959,74,49,0
108.72959,109.77434,76,53,0
110.846855,112.15508,76,54,0
112.15508,112.46897,75,46,0
112.416275,112.73292,78,50,0
112.679756,112.99781,76,46,0
112.94557,113.258995,81,54,0
113.20676,113.52018,79,46,0
113.46795,113.786354,78,49,0
113.72913,114.06887,76,49,0
114.01523,114.8128,74,54,0
114.8128,115.08099,76,52,0
115.08099,116.11673,78,57,0
117.16896,118.47051,78,70,0
118.47051,118.789024,76,57,0
118.73633,119.05297,79,61,0
118.99981,119.31741,78,55,0
119.265625,119.57635,83,65,0
119.52456,119.83528,81,53,0
119.78349,120.09754,79,59,0
120.04243,120.3698,78,53,0
120.31801,121.61956,76,64,0
121.61956,121.93807,75,55,0
121.885376,122.20202,78,60,0
122.14886,122.467834,76,52,0
122.41467,122.73365,81,62,0
122.68049,122.999466,79,51,0
122.946304,123.26934,78,59,0
123.21212,123.48629,76,53,0
123.498215,123.76882,76,63,0
123.76882,124.03944,74,49,0
124.03944,124.864334,74,55,0
124.864334,125.13253,69,44,0
125.13253,125.40072,74,46,0
125.40072,125.668915,78,43,0
125.668915,126.00899,78,58,0
125.95231,126.29238,76,44,0
126.2357,126.58739,74,53,0
126.5191,126.84632,76,45,0
125.668915,126.86054,73,49,0
126.86054,128.16689,76,61,0
126.86054,128.16689,73,51,0
128.16689,128.37744,74,53,0
128.44762,128.75644,75,43,0
128.72836,129.03719,76,48,0
129.00911,129.31819,75,42,0
129.28984,129.60158,78,51,0
129.57324,129.88498,76,48,0
129.85663,130.17165,74,46,0
130.14003,130.4836,72,44,0
130.45628,131.81439,71,48,0
131.81439,132.08022,67,44,0
132.08022,132.34369,71,44,0
132.32832,132.59401,74,44,0
132.60951,132.87532,72,50,0
132.87532,133.14114,69,44,0
133.14114,133.40695,72,44,0
133.40695,133.71352,76,44,0
133.71352,134.5181,74,50,0
134.5181,134.79117,71,47,0
134.79117,134.92177,67,47,0
135.05235,135.18295,67,46,0
135.31355,135.44414,69,47,0
135.57474,135.70532,71,48,0
135.83592,135.96518,72,48,0
136.09398,136.22366,74,51,0
136.35472,136.4867,76,52,0
136.62007,136.76312,78,54,0
136.90617,137.22516,79,56,0
137.172,137.49097,78,50,0
137.4378,137.75679,79,56,0
137.70363,138.0226,78,52,0
137.96944,138.28842,81,56,0
138.23526,138.55423,79,54,0
138.50107,138.82005,78,53,0
138.76689,139.08682,79,49,0
139.0327,139.35744,78,52,0
139.30331,139.62805,76,50,0
139.57393,139.90231,74,48,0
139.84454,140.18655,73,46,0
140.13339,140.3992,74,50,0
140.3992,140.66502,71,43,0
140.66502,140.93083,74,47,0
140.93083,141.21423,71,43,0
141.21423,142.29668,67,47,0
143.37912,143.64731,72,50,0
143.64731,143.91551,69,46,0
143.91551,144.1837,72,46,0
144.1837,144.45047,69,43,0
144.45047,144.58315,66,50,0
144.71606,144.98187,69,45,0
144.98187,145.2477,68,47,0
145.2477,145.5128,69,49,0
145.5128,145.77629,70,50,0
145.77629,146.0421,71,50,0
146.0421,146.30792,72,53,0
146.30792,146.56464,73,55,0
146.56464,146.82358,74,58,0
146.82358,147.08939,71,51,0
147.08939,147.35521,74,54,0
147.35521,147.62102,71,51,0
147.62102,148.68428,79,61,0
148.95987,149.2846,83,62,0
149.23048,149.56058,78,59,0
149.50108,149.79854,79,56,0
149.79854,150.12326,75,58,0
150.06914,150.39388,76,49,0
150.33975,150.67105,72,53,0
150.61037,150.96844,69,46,0
150.91382,151.73305,67,53,0
151.73305,152.00612,67,44,0
152.00612,152.34619,71,55,0
152.28952,152.6296,69,44,0
152.5729,152.92459,67,49,0
152.85631,153.18353,69,42,0
152.00612,153.19775,66,47,0
153.19775,154.50409,69,53,0
153.19775,154.50409,66,42,0
154.50409,155.52225,67,48,0
156.5404,157.85097,74,50,0
157.85097,158.16948,73,46,0
158.11679,158.43343,76,49,0
158.38026,158.69925,74,46,0
158.64609,158.96507,79,52,0
158.9119,159.23088,78,46,0
159.17772,159.50075,76,49,0
159.44353,159.78186,74,46,0
159.72963,160.5132,73,50,0
160.5132,160.78627,74,49,0
160.78627,161.83102,76,53,0
162.90353,164.21176,76,54,0
164.21176,164.52565,75,46,0
164.47295,164.7896,78,50,0
164.73643,165.05449,76,46,0
165.00224,165.31567,81,54,0
165.26344,165.57686,79,46,0
165.52463,165.84303,78,49,0
165.78581,166.12555,76,49,0
166.0719,166.86948,74,54,0
166.86948,167.13766,76,52,0
167.13766,168.1734,78,57,0
169.22565,170.52257,78,70,0
170.52257,170.83644,76,57,0
170.78375,171.10039,79,61,0
171.04723,171.36484,78,55,0
171.31305,171.62376,83,65,0
171.57198,171.8836,81,53,0
171.83092,172.1495,79,59,0
172.09439,172.42177,78,53,0
172.36998,173.67152,76,64,0
173.67152,173.99004,75,55,0
173.93735,174.25398,78,60,0
174.20082,174.51933,76,52,0
174.46664,174.78424,81,62,0
174.73012,175.05486,79,51,0
175.00073,175.32857,78,59,0
175.27135,175.54552,76,53,0
175.55743,175.82805,76,63,0
175.82805,176.09866,74,49,0
176.09866,176.92357,74,55,0
176.92357,177.19176,69,44,0
177.19176,177.45995,74,46,0
177.45995,177.72813,78,43,0
177.72813,178.0682,78,58,0
178.01154,178.35161,76,44,0
178.29492,178.6466,74,53,0
178.57832,178.90555,76,45,0
177.72813,178.91977,73,49,0
178.91977,180.2261,76,61,0
178.91977,180.2261,73,51,0
180.2261,180.44275,74,53,0
180.51495,180.83215,75,43,0
180.8038,181.11554,76,48,0
181.0872,181.39894,75,42,0
181.37059,181.6826,78,51,0
181.65399,181.96869,76,48,0
181.94008,182.25781,74,46,0
182.22618,182.56975,72,44,0
182.54243,183.90054,71,48,0
183.90054,184.16637,67,44,0
184.16637,184.42986,71,44,0
184.41447,184.68016,74,44,0
184.69566,184.96149,72,50,0
184.96149,185.2273,69,44,0
185.2273,185.49312,72,44,0
185.49312,185.79967,76,44,0
185.79967,186.60425,74,50,0
186.60425,186.87732,71,47,0
186.87732,187.00792,67,47,0
187.13852,187.2691,67,46,0
187.3997,187.53029,69,47,0
187.66089,187.79149,71,48,0
187.92201,188.05374,72,48,0
188.18634,188.31941,74,51,0
188.4535,188.58826,76,52,0
188.72163,188.86469,78,54,0
189.00774,189.3267,79,56,0
189.27354,189.59253,78,50,0
189.53937,189.85834,79,56,0
189.80518,190.12416,78,52,0
190.071,190.38997,81,56,0
190.3368,190.65579,79,54,0
190.60263,190.9216,78,53,0
190.86844,191.18839,79,49,0
191.13426,191.459,78,52,0
191.40488,191.7296,76,50,0
191.67548,192.00386,74,48,0
191.94609,192.2881,73,46,0
192.23494,192.50076,74,50,0
192.50076,192.76657,71,43,0
192.76657,193.0324,74,47,0
193.0324,193.31578,71,43,0
193.31578,194.39339,67,47,0
195.47118,195.73936,72,50,0
195.73936,196.00757,69,46,0
196.00757,196.27576,72,46,0
196.27576,196.54254,69,43,0
196.54254,196.6752,66,50,0
196.80812,197.07393,69,45,0
197.07393,197.33975,68,47,0
197.33975,197.60486,69,49,0
197.60486,197.86835,70,50,0
197.86835,198.13416,71,50,0
198.13416,198.39998,72,53,0
198.39998,198.67305,73,55,0
198.67305,198.93199,74,58,0
198.93199,199.1978,71,51,0
199.1978,199.46362,74,54,0
199.46362,199.72943,71,51,0
199.72943,200.7927,79,61,0
201.06828,201.39302,83,62,0
201.3389,201.66899,78,59,0
201.6095,201.90695,79,56,0
201.90695,202.23167,75,58,0
202.17755,202.50229,76,49,0
202.44817,202.77948,72,53,0
202.71878,203.07686,69,46,0
203.02225,203.84146,67,53,0
203.84146,204.11453,67,44,0
204.11453,204.4546,71,55,0
204.39793,204.738,69,44,0
204.68132,205.033,67,49,0
204.96472,205.29195,69,42,0
204.11453,205.30617,66,47,0
205.30617,206.6125,69,53,0
205.30617,206.6125,66,42,0
206.6125,207.63066,67,48,0
208.64882,209.99709,70,50,0
209.99709,210.3156,69,46,0
210.2629,210.57954,72,46,0
210.52638,210.78113,70,46,0
210.79219,211.11118,70,50,0
211.05801,211.377,69,46,0
211.32382,211.64687,67,46,0
211.58965,211.92938,66,46,0
211.87575,212.68031,67,50,0
212.68031,212.9534,70,56,0
212.9534,213.99814,74,62,0
215.07066,216.4,74,64,0
216.4,216.7185,73,57,0
216.6658,216.98245,75,59,0
216.92929,217.18404,74,55,0
217.1951,217.51408,74,62,0
217.46092,217.7799,72,50,0
217.72675,218.04977,70,60,0
217.99255,218.33229,69,54,0
218.27866,219.07622,70,64,0
219.07622,219.34442,74,64,0
219.34442,220.38916,79,72,0
221.4414,222.73833,77,69,0
222.73833,223.05174,81,63,0
222.99951,223.31386,84,71,0
223.2607,223.5783,82,64,0
223.5265,223.83723,81,67,0
223.78545,224.09616,79,53,0
224.04437,224.35843,77,65,0
224.30331,224.63068,75,56,0
224.57889,225.87811,74,63,0
225.87811,226.19337,79,49,0
226.14159,226.45369,82,54,0
226.40053,226.71904,81,46,0
226.66634,226.98251,79,55,0
226.92982,227.246,77,46,0
227.1933,227.514,75,51,0
227.45679,227.797,74,46,0
227.74287,228.01349,70,57,0
228.01349,228.2841,72,49,0
228.2841,228.55472,75,46,0
228.55472,228.8408,79,46,0
228.8408,229.63826,70,53,0
229.63826,229.90407,70,46,0
229.90407,230.23784,74,53,0
230.18222,230.51598,72,44,0
230.46036,230.80678,70,52,0
230.7385,231.06572,72,45,0
231.07994,232.38628,72,61,0
231.07994,232.38628,69,51,0
232.38628,232.68129,70,53,0
232.65446,232.949,69,43,0
232.92267,233.2125,72,48,0
233.18614,233.47644,70,42,0
233.44963,233.74513,74,48,0
233.71782,234.0182,72,47,0
233.99089,234.29431,75,50,0
234.26396,234.59474,74,53,0
234.56743,235.92554,77,68,0
235.92554,236.24405,80,56,0
236.19136,236.508,79,62,0
236.45483,236.77382,77,57,0
236.72066,237.03964,75,63,0
236.98647,237.30545,74,46,0
237.25229,237.57532,72,57,0
237.5181,237.85783,71,44,0
237.8042,238.60878,72,60,0
238.60878,238.88185,75,62,0
238.88185,239.9266,79,67,0
240.99911,242.32845,79,74,0
242.32845,242.64696,78,64,0
242.59427,242.91092,81,70,0
242.85774,243.12357,79,62,0
243.12357,243.38937,82,70,0
243.38937,243.6552,73,64,0
243.6552,243.92102,82,67,0
243.92102,244.19519,73,50,0
244.2071,245.27287,73,65,0
245.27287,246.31763,74,65,0
247.36986,248.66678,75,73,0
248.66678,248.92796,72,65,0
248.92796,249.18915,81,74,0
249.18915,249.45497,78,71,0
249.45497,249.7139,84,76,0
249.7139,249.97284,81,73,0
249.97284,250.23177,87,81,0
250.23177,250.50735,78,75,0
250.50735,251.80656,86,85,0
251.80656,252.12184,81,64,0
252.07005,252.38214,82,70,0
252.32898,252.64749,78,59,0
252.5948,252.91098,79,66,0
252.85828,253.17445,73,54,0
253.12177,253.44246,74,60,0
253.38524,253.65942,70,46,0
253.67134,253.94196,70,57,0
253.94196,254.21255,69,49,0
254.21255,254.48317,72,46,0
254.48317,254.76927,75,46,0
254.76927,255.56671,67,53,0
255.56671,255.83253,67,46,0
255.83253,256.1663,70,53,0
256.11066,256.44443,69,44,0
256.38882,256.73523,67,52,0
256.66696,256.99417,69,45,0
257.0084,258.31473,69,61,0
257.0084,258.31473,66,51,0
258.31473,258.6207,67,53,0
258.59286,258.89807,66,43,0
258.871,259.16867,67,48,0
259.14163,259.44006,68,42,0
259.41223,259.71872,69,48,0
259.69037,260.0021,68,46,0
259.97375,260.2888,69,43,0
260.25717,260.60074,70,41,0
260.57343,262.75803,71,48,0
262.75803,263.0857,74,50,0
263.0311,263.35876,72,46,0
263.30417,263.63855,71,46,0
263.57724,263.93793,72,48,0
263.8838,264.69565,74,54,0
264.69565,264.97903,71,47,0
264.97903,266.06146,67,47,0
267.17075,268.8099,79,67,0
268.8099,269.13464,81,62,0
269.0805,269.40524,79,55,0
269.35114,269.67587,78,57,0
269.62173,269.94647,76,46,0
269.89233,270.22073,74,51,0
270.16296,270.50592,73,46,0
270.4518,271.26364,74,53,0
271.26364,271.54703,71,47,0
271.54703,272.6295,67,45,0
273.70224,274.5166,72,50,0
274.5166,274.7848,69,47,0
274.7848,275.046,66,52,0
275.30716,275.56836,69,47,0
275.82953,276.09537,71,51,0
276.36597,276.63657,72,52,0
276.92822,277.74008,74,57,0
277.74008,278.01068,71,61,0
278.01068,279.07394,79,65,0
280.17844,280.47345,81,68,0
280.44662,280.74164,79,59,0
280.7148,281.00983,78,64,0
280.983,281.2512,79,58,0
281.2512,281.5462,78,64,0
281.51938,281.8144,76,54,0
281.78757,282.08258,75,59,0
282.0558,282.32397,76,53,0
282.32397,282.619,74,62,0
282.59216,282.88718,72,53,0
282.86035,283.15717,71,56,0
283.12854,283.41464,72,53,0
283.41464,284.22647,71,59,0
284.22647,284.3618,72,50,0
284.3618,284.4971,71,50,0
284.4971,285.05856,69,57,0
285.05856,285.64343,74,54,0
285.62006,286.20493,73,52,0
286.18155,286.743,72,50,0
286.743,288.10114,71,50,0
288.10114,288.36694,67,46,0
288.36694,288.63043,71,48,0
288.61505,288.88074,74,46,0
288.89624,289.16205,72,54,0
289.16205,289.4279,69,46,0
289.4279,289.6937,72,54,0
289.6937,290.00024,76,51,0
290.00024,290.80484,74,58,0
290.80484,291.0779,71,47,0
291.0779,291.2085,67,47,0
291.33908,291.4697,67,46,0
291.60028,291.73087,69,47,0
291.86148,291.99207,71,48,0
292.12265,292.25192,72,49,0
292.3807,292.5104,74,50,0
292.64145,292.77344,76,51,0
292.9068,293.04987,78,53,0
293.1929,293.5119,79,57,0
293.4587,293.7777,78,50,0
293.72455,294.04352,79,56,0
293.99036,294.30933,78,52,0
294.25616,294.57516,81,59,0
294.522,294.84097,79,57,0
294.7878,295.10678,78,54,0
295.05362,295.37357,79,49,0
295.31943,295.64417,78,52,0
295.59006,295.9148,76,50,0
295.86066,296.18903,74,48,0
296.13126,296.4733,73,46,0
296.42014,296.68594,74,50,0
296.68594,296.95175,71,43,0
296.95175,297.21756,74,47,0
297.21756,297.50098,71,43,0
297.50098,298.5834,67,47,0
299.66586,299.93405,72,50,0
299.93405,300.20224,69,46,0
300.20224,300.47043,72,46,0
300.47043,300.7372,69,43,0
300.7372,300.86987,66,50,0
301.0028,301.26862,69,46,0
301.26862,301.5321,68,49,0
301.5321,301.79556,69,51,0
301.79556,302.05905,70,54,0
302.05905,302.32486,71,51,0
302.32486,302.5907,72,54,0
302.5907,302.8474,73,56,0
302.8474,303.10632,74,59,0
303.10632,303.37216,71,51,0
303.37216,303.63797,74,54,0
303.63797,303.90378,71,51,0
303.90378,304.96704,79,63,0
305.24265,305.56735,83,67,0
305.51324,305.84335,78,62,0
305.78384,306.0813,79,56,0
306.0813,306.40604,75,58,0
306.3519,306.67664,76,49,0
306.62253,306.95383,72,53,0
306.89313,307.25122,69,46,0
307.1966,308.0158,67,53,0
308.0158,308.28888,67,44,0
308.28888,308.62897,71,55,0
308.5723,308.91235,69,44,0
308.85568,309.20737,67,49,0
309.13907,309.48053,69,42,0
308.28888,309.48053,66,47,0
309.48053,309.7561,67,49,0
309.7561,310.03168,66,43,0
310.03168,310.2999,69,49,0
310.2999,310.56808,67,43,0
310.56808,310.83868,71,49,0
310.83868,311.10928,69,42,0
311.10928,311.3775,72,48,0
311.3775,311.6457,71,40,0
311.6457,311.9163,74,53,0
311.9163,312.1869,72,46,0
312.1869,312.45752,76,56,0
312.45752,312.761,74,53,0
312.761,314.38477,77,59,0
314.38477,314.70096,79,56,0
314.64825,314.96353,81,50,0
314.91174,315.22247,79,56,0
315.1707,315.48422,77,50,0
315.4296,315.764,76,54,0
315.70267,316.00925,74,51,0
316.00925,317.08228,75,60,0
317.08228,318.15512,76,55,0
318.42575,318.74472,79,61,0
318.69156,319.01685,78,55,0
318.95737,319.30893,76,58,0
319.25482,319.57956,74,58,0
319.52542,319.85016,71,49,0
319.79605,320.12735,69,53,0
320.06665,320.37012,76,46,0
320.37012,321.18933,67,53,0
321.18933,321.4624,67,44,0
321.4624,321.79413,71,55,0
321.73798,322.0749,69,44,0
322.01874,322.36777,67,49,0
322.29947,322.64093,69,42,0
321.4624,322.64093,66,47,0
322.64093,322.9165,67,49,0
322.9165,323.1911,66,43,0
323.1911,323.4597,69,52,0
323.4597,323.72702,67,47,0
323.72702,323.9952,71,56,0
323.9952,324.2634,69,52,0
324.2634,324.5316,72,57,0
324.5316,324.7998,71,57,0
324.7998,325.068,74,63,0
325.068,325.33618,72,62,0
325.33618,325.60437,76,66,0
325.60437,325.90784,74,65,0
325.90784,327.50272,77,75,0
327.50272,327.82172,79,72,0
327.76855,328.08752,81,67,0
328.03436,328.35333,79,75,0
328.30017,328.61914,77,71,0
328.56598,328.89313,76,75,0
328.83182,329.13837,74,73,0
329.13837,330.2258,76,76,0
330.2258,331.30823,78,74,0
331.30823,332.4175,79,77,0
332.4175,334.07895,67,65,0
334.07895,334.21548,69,44,0
334.21548,334.35202,67,44,0
334.35202,334.48856,66,44,0
334.48856,334.6251,67,44,0
334.6251,335.1919,71,55,0
335.1919,335.77875,69,49,0
334.6251,335.77875,66,47,0
335.77875,336.04694,67,49,0
336.04694,336.31512,62,40,0
336.31512,336.4045,71,44,0
336.5833,336.67273,71,44,0
336.8515,337.12213,71,49,0
337.12213,337.39273,67,41,0
337.39273,337.48294,74,45,0
337.66333,337.7596,74,45,0
337.9522,338.2204,74,49,0
338.2204,338.4886,71,42,0
338.4886,338.75677,69,45,0
338.75677,339.04562,71,40,0
339.04562,339.3138,67,49,0
339.3138,339.582,62,40,0
339.582,339.67142,71,44,0
339.8502,339.9396,71,44,0
340.11838,340.389,71,49,0
340.389,340.6596,67,41,0
340.6596,340.74982,74,45,0
340.93024,341.02652,74,45,0
341.2191,341.48727,74,49,0
341.48727,341.75546,71,42,0
341.75546,342.02365,69,45,0
342.02365,342.3125,71,40,0
342.3125,342.96567,67,45,0
343.61884,344.272,67,38,0
343.61884,344.272,59,38,0
0.0,0.27307475,55,40,0
0.27307475,0.5461495,62,22,0
0.5461495,0.81922424,59,25,0
0.81922424,1.092299,62,24,0
1.092299,1.3653737,55,40,0
1.3653737,1.6384485,62,29,0
1.6384485,1.9115232,59,35,0
1.9115232,2.184598,62,30,0
2.184598,2.4576728,57,40,0
2.4576728,2.7307475,62,32,0
2.7307475,3.0038223,60,40,0
3.0038223,3.3103828,62,35,0
3.3103828,3.5809944,55,43,0
3.5809944,3.8516057,62,28,0
3.8516057,4.122217,59,32,0
4.122217,4.4056106,62,28,0
4.4056106,4.676222,55,40,0
4.676222,4.9468336,62,29,0
4.9468336,5.217445,59,39,0
5.217445,5.4880567,62,36,0
5.4880567,5.758668,55,48,0
5.758668,6.0292797,62,38,0
6.0292797,6.299891,59,48,0
6.299891,6.597333,62,45,0
6.597333,6.8679447,55,53,0
6.8679447,7.138556,64,37,0
7.138556,7.4091673,60,47,0
7.4091673,7.679779,64,41,0
7.679779,7.9503903,55,44,0
7.9503903,8.236486,64,34,0
8.236486,8.507098,60,39,0
8.507098,8.777709,64,34,0
8.777709,9.048321,55,40,0
9.048321,9.318933,61,26,0
9.318933,9.589543,58,34,0
9.589543,9.878394,61,27,0
9.878394,10.149006,55,40,0
10.149006,10.419618,62,26,0
10.419618,10.690228,59,31,0
10.690228,10.973622,62,27,0
10.973622,11.244233,55,40,0
11.244233,11.514845,62,26,0
11.514845,11.785457,59,30,0
11.785457,12.056068,62,27,0
12.056068,12.324261,55,41,0
12.324261,12.592453,62,25,0
12.592453,12.860645,59,30,0
12.860645,13.128838,62,25,0
13.128838,13.401913,57,40,0
13.401913,13.674988,62,27,0
13.674988,13.94318,60,32,0
13.94318,14.211372,62,27,0
14.211372,14.47256,57,40,0
14.47256,14.7337475,62,30,0
14.7337475,14.994935,60,33,0
14.994935,15.256123,62,28,0
15.256123,15.521938,57,44,0
15.521938,15.79255,62,33,0
15.79255,16.063162,60,40,0
16.063162,16.35482,62,33,0
16.35482,16.625431,55,46,0
16.625431,16.896044,62,33,0
16.896044,17.166655,59,40,0
17.166655,17.437265,62,37,0
17.437265,17.703081,52,46,0
17.703081,17.968899,59,38,0
17.968899,18.234715,55,42,0
18.234715,18.50053,59,38,0
18.50053,18.766346,47,53,0
18.766346,19.036957,55,44,0
19.036957,19.30757,50,48,0
19.30757,19.605011,55,39,0
19.605011,20.67778,52,58,0
19.605011,21.750551,48,49,0
21.750551,22.841225,52,34,0
20.67778,22.841225,55,34,0
22.841225,23.92367,55,36,0
23.92367,25.046635,54,28,0
22.841225,25.046635,50,36,0
26.1696,26.442675,55,40,0
26.442675,26.71575,62,25,0
26.71575,26.988825,59,31,0
26.988825,27.2619,62,26,0
27.2619,27.527716,55,40,0
27.527716,27.793531,62,27,0
27.793531,28.057013,59,31,0
28.057013,28.322828,62,26,0
28.322828,28.588644,57,40,0
28.588644,28.854462,62,31,0
28.854462,29.120277,60,36,0
29.120277,29.426838,62,30,0
29.426838,29.69503,55,40,0
29.69503,29.963223,62,28,0
29.963223,30.231415,59,32,0
30.231415,30.50449,62,28,0
30.50449,30.765676,55,40,0
30.765676,31.026865,62,33,0
31.026865,31.288052,59,37,0
31.288052,31.54924,62,30,0
31.54924,31.807295,55,47,0
31.807295,32.06804,62,38,0
32.06804,32.333397,59,44,0
32.333397,32.61949,62,42,0
32.61949,32.885307,55,43,0
32.885307,33.151123,64,34,0
33.151123,33.41694,60,38,0
33.41694,33.682755,64,34,0
33.682755,33.94857,55,44,0
33.94857,34.21439,64,34,0
34.21439,34.480206,60,39,0
34.480206,34.74602,64,34,0
34.74602,35.016632,55,40,0
35.016632,35.287243,61,26,0
35.287243,35.557854,58,34,0
35.557854,35.846706,61,27,0
35.846706,36.112522,55,40,0
36.112522,36.378338,62,24,0
36.378338,36.644154,59,31,0
36.644154,36.927547,62,27,0
36.927547,37.19816,55,40,0
37.19816,37.46877,62,26,0
37.46877,37.73938,59,33,0
37.73938,38.00999,62,27,0
38.00999,38.280605,55,41,0
38.280605,38.551216,62,30,0
38.551216,38.821827,59,33,0
38.821827,39.092438,62,29,0
39.092438,39.36063,57,40,0
39.36063,39.628822,62,27,0
39.628822,39.897015,60,32,0
39.897015,40.163795,62,27,0
40.163795,40.42938,57,40,0
40.42938,40.695194,62,30,0
40.695194,40.96101,60,33,0
40.96101,41.226124,62,28,0
41.226124,41.489605,57,40,0
41.489605,41.755424,62,31,0
41.755424,42.02124,60,38,0
42.02124,42.277958,62,33,0
42.277958,42.53689,55,40,0
42.53689,42.802704,62,38,0
42.802704,43.06852,59,42,0
43.06852,43.33434,62,35,0
43.33434,43.600155,52,51,0
43.600155,43.86597,59,46,0
43.86597,44.131786,55,50,0
44.131786,44.397602,59,47,0
44.397602,44.673183,47,54,0
44.673183,44.943794,55,42,0
44.943794,45.21441,50,47,0
45.21441,45.51185,55,34,0
45.51185,45.78246,48,40,0
45.78246,46.053074,57,26,0
46.053074,46.323685,52,33,0
46.323685,46.627144,57,29,0
46.627144,46.90022,50,39,0
46.90022,47.173294,59,27,0
47.173294,47.44637,55,33,0
47.44637,47.719444,59,28,0
47.719444,48.002834,50,39,0
48.002834,48.28623,60,27,0
48.28623,48.569622,57,32,0
48.569622,48.891155,60,27,0
48.911076,50.21741,60,36,0
50.21741,51.23557,59,28,0
48.911076,51.23557,55,27,0
52.253723,52.5268,55,40,0
52.5268,52.799873,62,22,0
52.799873,53.07295,59,25,0
53.07295,53.346024,62,24,0
53.346024,53.6191,55,40,0
53.6191,53.892174,62,29,0
53.892174,54.16525,59,35,0
54.16525,54.438324,62,30,0
54.438324,54.7114,57,40,0
54.7114,54.98447,62,32,0
54.98447,55.257545,60,40,0
55.257545,55.564106,62,35,0
55.564106,55.83472,55,43,0
55.83472,56.10533,62,28,0
56.10533,56.375942,59,32,0
56.375942,56.659336,62,28,0
56.659336,56.929947,55,40,0
56.929947,57.200558,62,29,0
57.200558,57.47117,59,39,0
57.47117,57.74178,62,36,0
57.74178,58.0076,55,48,0
58.0076,58.273415,62,38,0
58.273415,58.53923,59,48,0
58.53923,58.83667,62,45,0
58.83667,59.107285,55,53,0
59.107285,59.377895,64,37,0
59.377895,59.648506,60,47,0
59.648506,59.919117,64,41,0
59.919117,60.189728,55,44,0
60.189728,60.475826,64,34,0
60.475826,60.746437,60,39,0
60.746437,61.017048,64,34,0
61.017048,61.28766,55,40,0
61.28766,61.55827,61,26,0
61.55827,61.82888,58,34,0
61.82888,62.117733,61,27,0
62.117733,62.388344,55,40,0
62.388344,62.658955,62,26,0
62.658955,62.929565,59,31,0
62.929565,63.21296,62,27,0
63.21296,63.48357,55,40,0
63.48357,63.754185,62,26,0
63.754185,64.024796,59,30,0
64.024796,64.2954,62,27,0
64.2954,64.561226,55,41,0
64.561226,64.82704,62,25,0
64.82704,65.09286,59,30,0
65.09286,65.35867,62,25,0
65.35867,65.631744,57,40,0
65.631744,65.90482,62,27,0
65.90482,66.17301,60,32,0
66.17301,66.44121,62,27,0
66.44121,66.70239,57,40,0
66.70239,66.96358,62,30,0
66.96358,67.22477,60,33,0
67.22477,67.485954,62,28,0
67.485954,67.75177,57,44,0
67.75177,68.022385,62,33,0
68.022385,68.29299,60,40,0
68.29299,68.57909,62,33,0
68.57909,68.8497,55,46,0
68.8497,69.120316,62,33,0
69.120316,69.39092,59,40,0
69.39092,69.66154,62,37,0
69.66154,69.92735,52,46,0
69.92735,70.19317,59,38,0
70.19317,70.458984,55,42,0
70.458984,70.7248,59,38,0
70.7248,70.990616,47,53,0
70.990616,71.26123,55,44,0
71.26123,71.53184,50,48,0
71.53184,71.82928,55,39,0
71.82928,72.902054,52,58,0
71.82928,73.97482,48,49,0
73.97482,75.06549,52,34,0
72.902054,75.06549,55,34,0
75.06549,76.14794,55,36,0
76.14794,77.270905,54,28,0
75.06549,77.270905,50,36,0
78.39387,78.66695,55,40,0
78.66695,78.94002,62,25,0
78.94002,79.2131,59,31,0
79.2131,79.48617,62,26,0
79.48617,79.75198,55,40,0
79.75198,80.0178,62,27,0
80.0178,80.28128,59,31,0
80.28128,80.5471,62,26,0
80.5471,80.81291,57,40,0
80.81291,81.07873,62,31,0
81.07873,81.34454,60,36,0
81.34454,81.65111,62,30,0
81.65111,81.9193,55,40,0
81.9193,82.18749,62,28,0
82.18749,82.45568,59,32,0
82.45568,82.72876,62,28,0
82.72876,82.989944,55,40,0
82.989944,83.25114,62,33,0
83.25114,83.51007,59,37,0
83.51007,83.769,62,30,0
83.769,84.03072,55,47,0
84.03072,84.29616,62,38,0
84.29616,84.5634,59,44,0
84.5634,84.849495,62,42,0
84.849495,85.11531,55,43,0
85.11531,85.38113,64,34,0
85.38113,85.64694,60,38,0
85.64694,85.91276,64,34,0
85.91276,86.17857,55,44,0
86.17857,86.44439,64,34,0
86.44439,86.710205,60,39,0
86.710205,86.97602,64,34,0
86.97602,87.246635,55,40,0
87.246635,87.51725,61,26,0
87.51725,87.78786,58,34,0
87.78786,88.076706,61,27,0
88.076706,88.34252,55,40,0
88.34252,88.60834,62,24,0
88.60834,88.87415,59,31,0
88.87415,89.15755,62,27,0
89.15755,89.42816,55,40,0
89.42816,89.69878,62,26,0
89.69878,89.96938,59,33,0
89.96938,90.24,62,27,0
90.24,90.510605,55,41,0
90.510605,90.78122,62,30,0
90.78122,91.051834,59,33,0
91.051834,91.32244,62,29,0
91.32244,91.59064,57,40,0
91.59064,91.858826,62,27,0
91.858826,92.12702,60,32,0
92.12702,92.3938,62,27,0
92.3938,92.65938,57,40,0
92.65938,92.92519,62,30,0
92.92519,93.19102,60,33,0
93.19102,93.45613,62,28,0
93.45613,93.71961,57,40,0
93.71961,93.98543,62,31,0
93.98543,94.25124,60,38,0
94.25124,94.50796,62,33,0
94.50796,94.76689,55,40,0
94.76689,95.03271,62,38,0
95.03271,95.29852,59,42,0
95.29852,95.56434,62,35,0
95.56434,95.830154,52,51,0
95.830154,96.09597,59,46,0
96.09597,96.361786,55,50,0
96.361786,96.6276,59,47,0
96.6276,96.90319,47,54,0
96.90319,97.1738,55,42,0
97.1738,97.44441,50,47,0
97.44441,97.74185,55,34,0
97.74185,98.01247,48,40,0
98.01247,98.28307,57,26,0
98.28307,98.55369,52,33,0
98.55369,98.85715,57,29,0
98.85715,99.130226,50,39,0
99.130226,99.4033,59,27,0
99.4033,99.67637,55,33,0
99.67637,99.94945,59,28,0
99.94945,100.23284,50,39,0
100.23284,100.516235,60,27,0
100.516235,100.79963,57,32,0
100.79963,101.12116,60,27,0
101.141075,102.44742,60,36,0
102.44742,103.46557,59,28,0
101.141075,103.46557,55,27,0
104.48373,104.74492,62,40,0
104.74492,105.0061,69,25,0
105.0061,105.26729,66,31,0
105.26729,105.52848,69,26,0
105.52848,105.7943,62,40,0
105.7943,106.06011,69,27,0
106.06011,106.32359,66,31,0
106.33688,106.6027,69,26,0
106.58941,106.855225,62,40,0
106.855225,107.12104,69,26,0
107.12104,107.386856,66,32,0
107.386856,107.67295,69,27,0
107.67295,107.93414,64,40,0
107.93414,108.19533,69,28,0
108.19533,108.45651,67,32,0
108.45651,108.72959,69,28,0
108.72959,108.990776,64,36,0
108.990776,109.25196,69,28,0
109.25196,109.51315,67,37,0
109.51315,109.77434,69,29,0
109.77434,110.033066,64,41,0
110.033066,110.2954,69,36,0
110.2954,110.56076,67,38,0
110.56076,110.846855,69,29,0
110.846855,111.11034,61,42,0
111.11034,111.37152,69,26,0
111.37152,111.63271,67,32,0
111.63271,111.8939,69,27,0
111.8939,112.15508,61,42,0
112.15508,112.416275,69,28,0
112.416275,112.679756,67,32,0
112.69305,112.95863,69,27,0
112.94557,113.20676,61,42,0
113.20676,113.46795,69,27,0
113.46795,113.72913,67,33,0
113.72913,114.01523,69,28,0
114.01523,114.283424,62,42,0
114.283424,114.55161,69,29,0
114.55161,114.8128,66,33,0
114.8128,115.08099,69,29,0
115.08099,115.33993,61,46,0
115.33993,115.59886,69,36,0
115.59886,115.857796,62,42,0
115.857796,116.11673,69,38,0
116.11673,116.37546,59,46,0
116.37546,116.63779,67,44,0
116.63779,116.903145,62,49,0
116.903145,117.16896,67,45,0
117.16896,117.427895,57,51,0
117.427895,117.68683,66,44,0
117.68683,117.94576,62,47,0
117.94576,118.2047,66,40,0
118.2047,118.47051,55,50,0
118.47051,118.73633,64,41,0
118.73633,118.99981,61,49,0
118.99981,119.265625,64,41,0
119.265625,119.52456,54,46,0
119.52456,119.78349,62,33,0
119.78349,120.04243,59,42,0
120.04243,120.31801,62,34,0
120.31801,120.57694,59,46,0
120.57694,120.83588,67,33,0
120.83588,121.09481,64,41,0
121.09481,121.35374,67,32,0
121.35374,121.61956,57,40,0
121.61956,121.885376,66,30,0
121.885376,122.14886,63,40,0
122.14886,122.41467,66,30,0
122.41467,122.68049,55,42,0
122.68049,122.946304,64,29,0
122.946304,123.21212,60,35,0
123.21212,123.498215,64,30,0
123.498215,123.76882,57,40,0
123.76882,124.03944,66,26,0
124.03944,124.31005,62,33,0
124.31005,124.596146,66,29,0
124.596146,124.864334,57,39,0
124.864334,125.13253,66,29,0
125.13253,125.40072,62,37,0
125.40072,125.668915,66,29,0
125.668915,125.95231,57,39,0
125.95231,126.2357,67,30,0
126.2357,126.5191,64,36,0
126.5191,126.84632,67,29,0
126.86054,128.16689,67,40,0
128.16689,129.28984,66,28,0
126.86054,129.28984,62,34,0
130.45628,130.72935,55,35,0
130.72935,131.00243,62,23,0
131.00243,131.27551,59,31,0
131.27551,131.54858,62,23,0
131.54858,131.81439,55,40,0
131.81439,132.08022,62,26,0
132.08022,132.34369,59,32,0
132.34369,132.60951,62,26,0
132.60951,132.87532,57,40,0
132.87532,133.14114,62,26,0
133.14114,133.40695,60,32,0
133.40695,133.71352,62,27,0
133.71352,133.9817,55,40,0
133.9817,134.24991,62,28,0
134.24991,134.5181,59,32,0
134.5181,134.79117,62,28,0
134.79117,135.05235,55,40,0
135.05235,135.31355,62,29,0
135.31355,135.57474,59,33,0
135.57474,135.83592,62,30,0
135.83592,136.09398,55,41,0
136.09398,136.35472,62,30,0
136.35472,136.62007,59,33,0
136.62007,136.90617,62,29,0
136.90617,137.172,55,43,0
137.172,137.4378,64,29,0
137.4378,137.70363,60,34,0
137.70363,137.96944,64,30,0
137.96944,138.23526,55,44,0
138.23526,138.50107,64,34,0
138.50107,138.76689,60,39,0
138.76689,139.0327,64,34,0
139.0327,139.30331,55,40,0
139.30331,139.57393,61,26,0
139.57393,139.84454,58,34,0
139.84454,140.13339,61,27,0
140.13339,140.3992,55,40,0
140.3992,140.66502,62,24,0
140.66502,140.93083,59,31,0
140.93083,141.21423,62,27,0
141.21423,141.48483,55,40,0
141.48483,141.75545,62,26,0
141.75545,142.02606,59,33,0
142.02606,142.29668,62,27,0
142.29668,142.56729,55,41,0
142.56729,142.83789,62,30,0
142.83789,143.1085,59,33,0
143.1085,143.37912,62,29,0
143.37912,143.64731,57,40,0
143.64731,143.91551,62,27,0
143.91551,144.1837,60,32,0
144.1837,144.45047,62,27,0
144.45047,144.71606,57,40,0
144.71606,144.98187,62,30,0
144.98187,145.2477,60,33,0
145.2477,145.5128,62,28,0
145.5128,145.77629,57,40,0
145.77629,146.0421,62,26,0
146.0421,146.30792,60,34,0
146.30792,146.56464,62,27,0
146.56464,146.82358,55,40,0
146.82358,147.08939,62,28,0
147.08939,147.35521,59,36,0
147.35521,147.62102,62,33,0
147.62102,147.88684,52,46,0
147.88684,148.15265,59,42,0
148.15265,148.41847,55,48,0
148.41847,148.68428,59,44,0
148.68428,148.95987,47,51,0
148.95987,149.23048,55,39,0
149.23048,149.50108,50,47,0
149.50108,149.79854,55,34,0
149.79854,150.06914,48,40,0
150.06914,150.33975,57,26,0
150.33975,150.61037,52,33,0
150.61037,150.91382,57,25,0
150.91382,151.1869,50,39,0
151.1869,151.45998,59,27,0
151.45998,151.73305,55,32,0
151.73305,152.00612,59,27,0
152.00612,152.28952,50,39,0
152.28952,152.5729,60,27,0
152.5729,152.85631,57,33,0
152.85631,153.18353,60,29,0
153.19775,154.50409,60,36,0
154.50409,155.52225,59,28,0
153.19775,155.52225,55,27,0
156.5404,156.80159,62,40,0
156.80159,157.06277,69,25,0
157.06277,157.32397,66,31,0
157.32397,157.58516,69,26,0
157.58516,157.85097,62,40,0
157.85097,158.11679,69,27,0
158.11679,158.38026,66,31,0
158.39355,158.65938,69,26,0
158.64609,158.9119,62,40,0
158.9119,159.17772,69,26,0
159.17772,159.44353,66,32,0
159.44353,159.72963,69,27,0
159.72963,159.99081,64,40,0
159.99081,160.252,69,28,0
160.252,160.5132,67,32,0
160.5132,160.78627,69,28,0
160.78627,161.04745,64,36,0
161.04745,161.30864,69,28,0
161.30864,161.56982,67,37,0
161.56982,161.83102,69,29,0
161.83102,162.08974,64,41,0
162.08974,162.35208,69,36,0
162.35208,162.61743,67,38,0
162.61743,162.90353,69,29,0
162.90353,163.167,61,42,0
163.167,163.4282,69,26,0
163.4282,163.68939,67,32,0
163.68939,163.95058,69,27,0
163.95058,164.21176,61,42,0
164.21176,164.47295,69,28,0
164.47295,164.73643,67,32,0
164.74973,165.0153,69,27,0
165.00224,165.26344,61,42,0
165.26344,165.52463,69,27,0
165.52463,165.78581,67,33,0
165.78581,166.0719,69,28,0
166.0719,166.3401,62,42,0
166.3401,166.60829,69,29,0
166.60829,166.86948,66,33,0
166.86948,167.13766,69,29,0
167.13766,167.3966,61,46,0
167.3966,167.65553,69,36,0
167.65553,167.91447,62,42,0
167.91447,168.1734,69,38,0
168.1734,168.43213,59,46,0
168.43213,168.69447,67,44,0
168.69447,168.95982,62,49,0
168.95982,169.22565,67,45,0
169.22565,169.48457,57,51,0
169.48457,169.7435,66,44,0
169.7435,170.00244,62,47,0
170.00244,170.26137,66,40,0
170.26137,170.52257,55,50,0
170.52257,170.78375,64,41,0
170.78375,171.04723,61,49,0
171.04723,171.31305,64,41,0
171.31305,171.57198,54,46,0
171.57198,171.83092,62,33,0
171.83092,172.09439,59,42,0
172.09439,172.36998,62,34,0
172.36998,172.6289,59,46,0
172.6289,172.88785,67,33,0
172.88785,173.14677,64,41,0
173.14677,173.40572,67,32,0
173.40572,173.67152,57,40,0
173.67152,173.93735,66,30,0
173.93735,174.20082,63,40,0
174.20082,174.46664,66,30,0
174.46664,174.73012,55,42,0
174.73012,175.00073,64,29,0
175.00073,175.27135,60,35,0
175.27135,175.55743,64,30,0
175.55743,175.82805,57,40,0
175.82805,176.09866,66,26,0
176.09866,176.36928,62,33,0
176.36928,176.65536,66,29,0
176.65536,176.92357,57,39,0
176.92357,177.19176,66,29,0
177.19176,177.45995,62,37,0
177.45995,177.72813,66,29,0
177.72813,178.01154,57,39,0
178.01154,178.29492,67,30,0
178.29492,178.57832,64,36,0
178.57832,178.90555,67,29,0
178.91977,180.2261,67,40,0
180.2261,181.37059,66,28,0
178.91977,181.37059,62,34,0
182.54243,182.8155,55,35,0
182.8155,183.0886,62,23,0
183.0886,183.36166,59,31,0
183.36166,183.63474,62,23,0
183.63474,183.90054,55,40,0
183.90054,184.16637,62,26,0
184.16637,184.42986,59,32,0
184.42986,184.69566,62,26,0
184.69566,184.96149,57,40,0
184.96149,185.2273,62,26,0
185.2273,185.49312,60,32,0
185.49312,185.79967,62,27,0
185.79967,186.06787,55,40,0
186.06787,186.33606,62,28,0
186.33606,186.60425,59,32,0
186.60425,186.87732,62,28,0
186.87732,187.13852,55,40,0
187.13852,187.3997,62,29,0
187.3997,187.66089,59,33,0
187.66089,187.92201,62,30,0
187.92201,188.18634,55,41,0
188.18634,188.4535,62,30,0
188.4535,188.72163,59,33,0
188.72163,189.00774,62,29,0
189.00774,189.27354,55,43,0
189.27354,189.53937,64,29,0
189.53937,189.80518,60,34,0
189.80518,190.071,64,30,0
190.071,190.3368,55,44,0
190.3368,190.60263,64,34,0
190.60263,190.86844,60,39,0
190.86844,191.13426,64,34,0
191.13426,191.40488,55,40,0
191.40488,191.67548,61,26,0
191.67548,191.94609,58,34,0
191.94609,192.23494,61,27,0
192.23494,192.50076,55,40,0
192.50076,192.76657,62,24,0
192.76657,193.0324,59,31,0
193.0324,193.31578,62,27,0
193.31578,193.5864,55,40,0
193.5864,193.85701,62,26,0
193.85701,194.1252,59,33,0
194.1252,194.39339,62,27,0
194.39339,194.66159,55,41,0
194.66159,194.92978,62,30,0
194.92978,195.19559,59,33,0
195.19559,195.47118,62,29,0
195.47118,195.73936,57,40,0
195.73936,196.00757,62,27,0
196.00757,196.27576,60,32,0
196.27576,196.54254,62,27,0
196.54254,196.80812,57,40,0
196.80812,197.07393,62,30,0
197.07393,197.33975,60,33,0
197.33975,197.60486,62,28,0
197.60486,197.86835,57,40,0
197.86835,198.13416,62,26,0
198.13416,198.39998,60,34,0
198.39998,198.67305,62,27,0
198.67305,198.93199,55,40,0
198.93199,199.1978,62,28,0
199.1978,199.46362,59,36,0
199.46362,199.72943,62,33,0
199.72943,199.99525,52,46,0
199.99525,200.26106,59,42,0
200.26106,200.52689,55,48,0
200.52689,200.7927,59,44,0
200.7927,201.06828,47,51,0
201.06828,201.3389,55,39,0
201.3389,201.6095,50,47,0
201.6095,201.90695,55,34,0
201.90695,202.17755,48,40,0
202.17755,202.44817,57,26,0
202.44817,202.71878,52,33,0
202.71878,203.02225,57,25,0
203.02225,203.29532,50,39,0
203.29532,203.56839,59,27,0
203.56839,203.84146,55,32,0
203.84146,204.11453,59,27,0
204.11453,204.39793,50,39,0
204.39793,204.68132,60,27,0
204.68132,204.96472,57,33,0
204.96472,205.29195,60,29,0
205.30617,206.6125,60,36,0
206.6125,207.63066,59,28,0
205.30617,207.63066,55,27,0
208.64882,208.91943,55,40,0
208.91943,209.19005,62,25,0
209.19005,209.46066,58,31,0
209.46066,209.73126,62,26,0
209.73126,209.99709,55,40,0
209.99709,210.2629,62,27,0
210.2629,210.52638,58,31,0
210.52638,210.79219,62,26,0
210.79219,211.05801,57,40,0
211.05801,211.32382,62,26,0
211.32382,211.58965,60,32,0
211.58965,211.87575,62,27,0
211.87575,212.14394,55,40,0
212.14394,212.41212,62,31,0
212.41212,212.68031,58,35,0
212.68031,212.9534,62,28,0
212.9534,213.21458,55,47,0
213.21458,213.47577,62,37,0
213.47577,213.73695,58,41,0
213.73695,213.99814,62,39,0
213.99814,214.25687,55,51,0
214.25687,214.51921,62,43,0
214.51921,214.78456,58,46,0
214.78456,215.07066,62,41,0
215.07066,215.34373,54,47,0
215.34373,215.60721,62,31,0
215.60721,215.8707,57,40,0
215.8707,216.13417,62,33,0
216.13417,216.4,54,40,0
216.4,216.6658,62,31,0
216.6658,216.92929,57,37,0
216.92929,217.1951,62,31,0
217.1951,217.46092,50,40,0
217.46092,217.72675,62,30,0
217.72675,217.99255,54,36,0
217.99255,218.27866,62,30,0
218.27866,218.54684,55,40,0
218.54684,218.81503,62,35,0
218.81503,219.07622,58,40,0
219.07622,219.34442,62,37,0
219.34442,219.6056,55,48,0
219.6056,219.86679,62,39,0
219.86679,220.12798,58,47,0
220.12798,220.38916,62,35,0
220.38916,220.64789,55,55,0
220.64789,220.91023,63,48,0
220.91023,221.17558,58,50,0
221.17558,221.4414,63,43,0
221.4414,221.70033,57,57,0
221.70033,221.95927,65,39,0
221.95927,222.2182,60,50,0
222.2182,222.47713,65,40,0
222.47713,222.73833,57,48,0
222.73833,222.99951,65,40,0
222.99951,223.2607,60,48,0
223.2607,223.5265,65,39,0
223.5265,223.78545,57,48,0
223.78545,224.04437,65,36,0
224.04437,224.30331,60,42,0
224.30331,224.57889,65,38,0
224.57889,224.83783,58,46,0
224.83783,225.09676,65,29,0
225.09676,225.3557,62,34,0
225.3557,225.61462,65,26,0
225.61462,225.87811,55,40,0
225.87811,226.14159,62,30,0
226.14159,226.40053,58,40,0
226.40053,226.66634,62,30,0
226.66634,226.92982,50,42,0
226.92982,227.1933,58,29,0
227.1933,227.45679,53,35,0
227.45679,227.74287,58,30,0
227.74287,228.01349,51,37,0
228.01349,228.2841,60,26,0
228.2841,228.55472,55,33,0
228.55472,228.8408,60,29,0
228.8408,229.10663,53,39,0
229.10663,229.37244,62,26,0
229.37244,229.63826,58,35,0
229.63826,229.90407,62,28,0
229.90407,230.18222,53,39,0
230.18222,230.46036,63,30,0
230.46036,230.7385,60,36,0
230.7385,231.06572,63,29,0
231.07994,232.38628,63,40,0
232.38628,233.44963,62,28,0
231.07994,233.44963,58,34,0
234.56743,234.8405,56,47,0
234.8405,235.11357,65,32,0
235.11357,235.38666,60,38,0
235.38666,235.65973,65,31,0
235.65973,235.92554,55,40,0
235.92554,236.19136,62,32,0
236.19136,236.45483,59,37,0
236.45483,236.72066,62,31,0
236.72066,236.98647,53,40,0
236.98647,237.25229,62,32,0
237.25229,237.5181,55,37,0
237.5181,237.8042,62,32,0
237.8042,238.07239,51,40,0
238.07239,238.34059,60,33,0
238.34059,238.60878,55,40,0
238.60878,238.88185,60,28,0
238.88185,239.14304,50,44,0
239.14304,239.40422,59,36,0
239.40422,239.66542,53,42,0
239.66542,239.9266,59,33,0
239.9266,240.18533,48,49,0
240.18533,240.44766,60,41,0
240.44766,240.71303,51,49,0
240.71303,240.99911,60,43,0
240.99911,241.27219,49,62,0
241.27219,241.53568,58,45,0
241.53568,241.79915,52,53,0
241.79915,242.06264,58,39,0
242.06264,242.32845,50,53,0
242.32845,242.59427,58,41,0
242.59427,242.85774,55,48,0
242.85774,243.12357,58,41,0
243.12357,243.38937,51,50,0
243.38937,243.6552,58,33,0
243.6552,243.92102,55,46,0
243.92102,244.2071,58,40,0
244.2071,244.4753,50,51,0
244.4753,244.7435,58,32,0
244.7435,245.00468,55,36,0
245.00468,245.27287,58,32,0
245.27287,245.53406,50,48,0
245.53406,245.79524,57,39,0
245.79524,246.05644,54,49,0
246.05644,246.31763,57,42,0
246.31763,246.57635,50,55,0
246.57635,246.83868,57,46,0
246.83868,247.10405,54,53,0
247.10405,247.36986,57,46,0
247.36986,247.6288,48,63,0
247.6288,247.88773,57,47,0
247.88773,248.14665,54,55,0
248.14665,248.4056,57,49,0
248.4056,248.66678,48,58,0
248.66678,248.92796,57,44,0
248.92796,249.18915,54,54,0
249.18915,249.45497,57,47,0
249.45497,249.7139,48,59,0
249.7139,249.97284,57,43,0
249.97284,250.23177,54,50,0
250.23177,250.50735,57,34,0
250.50735,250.76628,46,57,0
250.76628,251.02522,55,44,0
251.02522,251.28415,50,50,0
251.28415,251.54309,55,42,0
251.54309,251.80656,46,50,0
251.80656,252.07005,55,38,0
252.07005,252.32898,50,46,0
252.32898,252.5948,55,37,0
252.5948,252.85828,46,42,0
252.85828,253.12177,55,29,0
253.12177,253.38524,50,35,0
253.38524,253.67134,55,30,0
253.67134,253.94196,48,37,0
253.94196,254.21255,57,26,0
254.21255,254.48317,51,33,0
254.48317,254.76927,57,29,0
254.76927,255.03508,50,39,0
255.03508,255.3009,58,29,0
255.3009,255.56671,55,37,0
255.56671,255.83253,58,29,0
255.83253,256.11066,50,39,0
256.11066,256.38882,60,30,0
256.38882,256.66696,57,36,0
256.66696,256.99417,60,29,0
257.0084,258.31473,60,40,0
258.31473,259.41223,58,28,0
257.0084,259.41223,55,34,0
260.57343,260.8465,55,36,0
260.8465,261.11957,62,22,0
261.11957,261.39264,59,25,0
261.39264,261.6657,62,24,0
261.6657,261.93878,55,40,0
261.93878,262.21185,62,29,0
262.21185,262.48492,59,35,0
262.48492,262.75803,62,30,0
262.75803,263.0311,57,40,0
263.0311,263.30417,62,32,0
263.30417,263.57724,60,40,0
263.57724,263.8838,62,35,0
263.8838,264.15442,55,43,0
264.15442,264.42502,62,28,0
264.42502,264.69565,59,32,0
264.69565,264.97903,62,28,0
264.97903,265.24963,55,40,0
265.24963,265.52026,62,29,0
265.52026,265.79086,59,39,0
265.79086,266.06146,62,36,0
266.06146,266.3321,55,48,0
266.3321,266.6027,62,38,0
266.6027,266.87332,59,48,0
266.87332,267.17075,62,45,0
267.17075,267.44138,55,53,0
267.44138,267.71198,64,37,0
267.71198,267.98257,60,47,0
267.98257,268.2532,64,41,0
268.2532,268.5238,55,44,0
268.5238,268.8099,64,34,0
268.8099,269.0805,60,39,0
269.0805,269.35114,64,34,0
269.35114,269.62173,55,40,0
269.62173,269.89233,61,26,0
269.89233,270.16296,58,34,0
270.16296,270.4518,61,27,0
270.4518,270.7224,55,40,0
270.7224,270.99304,62,26,0
270.99304,271.26364,59,31,0
271.26364,271.54703,62,27,0
271.54703,271.81766,55,40,0
271.81766,272.08826,62,26,0
272.08826,272.3589,59,30,0
272.3589,272.6295,62,27,0
272.6295,272.89767,55,41,0
272.89767,273.16586,62,25,0
273.16586,273.43405,59,30,0
273.43405,273.70224,62,25,0
273.70224,273.97534,57,40,0
273.97534,274.2484,62,27,0
274.2484,274.5166,60,32,0
274.5166,274.7848,62,27,0
274.7848,275.046,57,40,0
275.046,275.30716,62,30,0
275.30716,275.56836,60,33,0
275.56836,275.82953,62,28,0
275.82953,276.09537,57,44,0
276.09537,276.36597,62,33,0
276.36597,276.63657,60,40,0
276.63657,276.92822,62,33,0
276.92822,277.19885,55,46,0
277.19885,277.46945,62,33,0
277.46945,277.74008,59,40,0
277.74008,278.01068,62,37,0
278.01068,278.2765,52,46,0
278.2765,278.54233,59,38,0
278.54233,278.80814,55,42,0
278.80814,279.07394,59,38,0
279.07394,279.33975,47,53,0
279.33975,279.61038,55,44,0
279.61038,279.88098,50,48,0
279.88098,280.17844,55,39,0
280.17844,281.2512,52,58,0
280.17844,282.32397,48,49,0
282.32397,283.41464,52,34,0
281.2512,283.41464,55,34,0
283.41464,284.4971,55,36,0
284.4971,285.62006,54,28,0
283.41464,285.62006,50,36,0
286.743,287.01608,55,40,0
287.01608,287.28915,62,25,0
287.28915,287.56226,59,31,0
287.56226,287.83533,62,26,0
287.83533,288.10114,55,40,0
288.10114,288.36694,62,27,0
288.36694,288.63043,59,31,0
288.63043,288.89624,62,26,0
288.89624,289.16205,57,40,0
289.16205,289.4279,62,31,0
289.4279,289.6937,60,36,0
289.6937,290.00024,62,30,0
290.00024,290.26843,55,40,0
290.26843,290.53665,62,28,0
290.53665,290.80484,59,32,0
290.80484,291.0779,62,28,0
291.0779,291.33908,55,40,0
291.33908,291.60028,62,33,0
291.60028,291.86148,59,37,0
291.86148,292.12265,62,30,0
292.12265,292.3807,55,47,0
292.3807,292.64145,62,38,0
292.64145,292.9068,59,44,0
292.9068,293.1929,62,42,0
293.1929,293.4587,55,43,0
293.4587,293.72455,64,34,0
293.72455,293.99036,60,38,0
293.99036,294.25616,64,34,0
294.25616,294.522,55,44,0
294.522,294.7878,64,34,0
294.7878,295.05362,60,39,0
295.05362,295.31943,64,34,0
295.31943,295.59006,55,40,0
295.59006,295.86066,61,26,0
295.86066,296.13126,58,34,0
296.13126,296.42014,61,27,0
296.42014,296.68594,55,40,0
296.68594,296.95175,62,24,0
296.95175,297.21756,59,31,0
297.21756,297.50098,62,27,0
297.50098,297.77158,55,40,0
297.77158,298.04218,62,26,0
298.04218,298.3128,59,33,0
298.3128,298.5834,62,27,0
298.5834,298.85403,55,41,0
298.85403,299.12463,62,30,0
299.12463,299.39523,59,33,0
299.39523,299.66586,62,29,0
299.66586,299.93405,57,40,0
299.93405,300.20224,62,27,0
300.20224,300.47043,60,32,0
300.47043,300.7372,62,27,0
300.7372,301.0028,57,40,0
301.0028,301.26862,62,30,0
301.26862,301.5321,60,33,0
301.5321,301.79556,62,28,0
301.79556,302.05905,57,40,0
302.05905,302.32486,62,31,0
302.32486,302.5907,60,38,0
302.5907,302.8474,62,33,0
302.8474,303.10632,55,40,0
303.10632,303.37216,62,38,0
303.37216,303.63797,59,42,0
303.63797,303.90378,62,35,0
303.90378,304.1696,52,51,0
304.1696,304.43542,59,46,0
304.43542,304.70123,55,50,0
304.70123,304.96704,59,47,0
304.96704,305.24265,47,54,0
305.24265,305.51324,55,42,0
305.51324,305.78384,50,47,0
305.78384,306.0813,55,34,0
306.0813,306.3519,48,40,0
306.3519,306.62253,57,26,0
306.62253,306.89313,52,33,0
306.89313,307.1966,57,29,0
307.1966,307.46967,50,39,0
307.46967,307.74274,59,27,0
307.74274,308.0158,55,33,0
308.0158,308.28888,59,28,0
308.28888,308.5723,50,39,0
308.5723,308.85568,60,27,0
308.85568,309.13907,57,32,0
309.13907,309.48053,60,27,0
309.48053,310.56808,59,36,0
309.48053,310.56808,55,27,0
312.761,313.03406,57,40,0
313.03406,313.30225,65,29,0
313.30225,313.57043,60,35,0
313.57043,313.83862,65,30,0
313.83862,314.1117,57,40,0
314.1117,314.38477,65,31,0
314.38477,314.64825,60,36,0
314.64825,314.91174,65,30,0
314.91174,315.1707,59,40,0
315.1707,315.4296,67,31,0
315.4296,315.70267,62,37,0
315.70267,316.00925,67,31,0
316.00925,316.27505,60,40,0
316.27505,316.54086,67,26,0
316.54086,316.8067,64,32,0
316.8067,317.08228,67,27,0
317.08228,317.35287,60,36,0
317.35287,317.6235,67,27,0
317.6235,317.8893,64,32,0
317.8893,318.15512,67,29,0
318.15512,318.42575,60,37,0
318.42575,318.69156,67,28,0
318.69156,318.95737,64,32,0
318.95737,319.25482,67,28,0
319.25482,319.52542,59,40,0
319.52542,319.79605,62,26,0
319.79605,320.06665,60,33,0
320.06665,320.37012,64,29,0
320.37012,320.6432,50,39,0
320.6432,320.91626,59,29,0
320.91626,321.18933,55,37,0
321.18933,321.4624,59,29,0
321.4624,321.73798,50,39,0
321.73798,322.01874,60,30,0
322.01874,322.29947,57,36,0
322.29947,322.64093,60,29,0
322.64093,323.72702,59,36,0
322.64093,323.72702,55,27,0
325.90784,326.17365,45,56,0
326.17365,326.43945,53,45,0
326.43945,326.7053,48,49,0
326.7053,326.9711,53,44,0
326.9711,327.2369,47,55,0
327.2369,327.50272,55,41,0
327.50272,327.76855,50,50,0
327.76855,328.03436,55,43,0
328.03436,328.30017,43,55,0
328.30017,328.56598,55,41,0
328.56598,328.83182,47,52,0
328.83182,329.13837,55,44,0
329.13837,329.40897,48,56,0
329.40897,329.6796,55,47,0
329.6796,329.9502,52,49,0
329.9502,330.2258,55,46,0
330.2258,330.4964,48,60,0
330.4964,330.767,57,48,0
330.767,331.03763,51,56,0
331.03763,331.30823,57,47,0
331.30823,331.57883,49,61,0
331.57883,331.84946,58,48,0
331.84946,332.12006,52,56,0
332.12006,332.4175,58,47,0
332.4175,332.6881,50,40,0
332.6881,332.95874,59,26,0
332.95874,333.22934,55,33,0
333.22934,333.5328,59,29,0
333.5328,333.80588,50,39,0
333.80588,334.07895,59,29,0
334.07895,334.35202,55,37,0
334.35202,334.6251,59,29,0
334.6251,334.9085,50,39,0
334.9085,335.1919,60,30,0
335.1919,335.47528,57,36,0
335.47528,335.77875,60,29,0
335.77875,336.8515,59,36,0
335.77875,336.8515,55,30,0
338.4886,339.04562,60,36,0
338.4886,339.04562,50,30,0
339.04562,340.11838,59,36,0
339.04562,340.11838,55,30,0
341.75546,342.3125,60,36,0
341.75546,342.3125,50,30,0
342.3125,342.96567,59,36,0
342.3125,342.96567,55,30,0
343.61884,344.272,43,30,0
