start_time,end_time,note_value,velocity,instrument_program_number
0.0,0.878864,72,60,0
0.878864,1.312046,76,60,0
1.312046,1.756096,79,60,0
1.756096,2.4160836,71,60,0
2.4160836,2.5252697,72,55,0
2.5252697,2.634456,74,51,0
2.634456,3.074855,72,60,0
3.515254,4.381618,81,64,0
4.381618,4.811264,79,62,0
4.811264,5.246204,84,64,0
5.246204,5.67585,79,64,0
5.67585,5.7474575,77,55,0
5.7474575,5.8190656,79,55,0
5.8190656,5.890673,77,55,0
5.890673,5.9980845,76,59,0
5.9980845,6.105496,77,55,0
6.105496,6.535142,76,60,0
6.9721184,7.192715,69,60,0
7.192715,7.313222,71,53,0
7.3023033,7.4222913,72,54,0
7.411418,7.5308948,74,55,0
7.520065,7.6390386,76,57,0
7.628253,7.7467213,77,58,0
7.73598,7.853908,79,59,0
7.843253,7.960585,81,62,0
7.9498878,8.067779,79,61,0
8.057037,8.175593,77,60,0
8.164783,8.284002,76,59,0
8.2731285,8.393016,74,58,0
8.382097,8.502581,72,57,0
8.49161,8.612855,71,55,0
8.601799,8.723173,69,53,0
8.712209,8.931165,67,60,0
8.931165,9.051025,69,53,0
9.040153,9.159717,71,54,0
9.148887,9.268012,72,55,0
9.257182,9.375945,74,57,0
9.36516,9.483628,76,58,0
9.472887,9.59068,77,59,0
9.580025,9.697624,79,62,0
9.686883,9.805256,77,61,0
9.794471,9.913584,76,60,0
9.90271,10.022699,74,59,0
10.011735,10.13255,72,58,0
10.12154,10.243105,71,57,0
10.232004,10.354446,69,55,0
10.343299,10.4649725,67,53,0
10.454054,10.672028,65,60,0
10.672028,10.791328,67,53,0
10.780499,10.89944,69,54,0
10.888654,11.007291,71,55,0
10.996506,11.11471,72,57,0
11.103969,11.221815,74,58,0
11.211118,11.328296,76,59,0
11.317683,11.434948,77,62,0
11.424251,11.542217,76,61,0
11.531469,11.650239,74,60,0
11.63941,11.759047,72,59,0
11.748128,11.868514,71,58,0
11.85755,11.978761,69,57,0
11.967706,12.089708,67,55,0
12.078608,12.200721,65,53,0
12.18962,12.41124,64,60,0
12.41124,12.532289,65,53,0
12.521324,12.641811,67,54,0
12.630893,12.750792,69,55,0
12.739918,12.859306,71,57,0
12.848477,12.967291,72,58,0
12.956506,13.074773,74,59,0
13.064075,13.181878,76,62,0
13.171137,13.289587,74,61,0
13.278794,13.398051,72,60,0
13.387177,13.507166,71,59,0
13.496202,13.617018,69,58,0
13.606008,13.727572,67,57,0
13.716471,13.83884,65,55,0
13.827691,13.950083,64,53,0
13.939027,14.15981,62,60,0
14.15981,14.280671,64,53,0
14.269707,14.390266,65,54,0
14.379348,14.499453,67,55,0
14.488534,14.608271,69,57,0
14.597397,14.716767,71,58,0
14.705938,14.825671,73,59,0
14.814234,14.928615,74,62,0
14.928615,15.049768,69,58,0
15.038939,15.158064,71,61,0
15.147235,15.266359,73,64,0
15.25553,15.374655,74,66,0
15.363826,15.48295,76,67,0
15.472121,15.592196,77,68,0
15.581148,15.702358,79,69,0
15.691637,15.809578,81,70,0
15.798856,15.916798,83,69,0
15.9060755,16.024017,84,71,0
16.013296,16.131237,83,69,0
16.120514,16.238457,81,67,0
16.227734,16.345676,79,65,0
16.334953,16.454496,77,63,0
16.443405,16.55432,76,66,0
16.55432,16.671398,77,65,0
16.660755,16.777834,79,66,0
16.76719,16.88427,81,67,0
16.873627,16.990705,79,67,0
16.980062,17.097141,77,68,0
17.086498,17.203577,76,71,0
17.192934,17.313242,74,73,0
17.301853,17.42654,72,76,0
17.41574,17.523762,71,78,0
17.631784,17.739296,79,71,0
17.846807,17.954319,76,71,0
18.06183,18.170824,72,71,0
18.28278,18.390802,74,78,0
18.498825,18.606731,79,71,0
18.714638,18.822544,76,71,0
18.930449,19.039547,72,71,0
19.15103,19.269655,74,81,0
19.625526,19.746485,79,71,0
19.625526,19.746485,74,71,0
19.625526,19.746485,71,71,0
20.109358,20.593191,67,83,0
22.783531,23.000969,86,61,0
23.000969,23.220043,83,55,0
23.220043,23.87563,79,61,0
23.87563,23.985167,81,53,0
23.985167,24.094704,83,51,0
24.094704,24.313778,81,55,0
24.313778,24.423315,79,53,0
24.532852,24.58804,79,55,0
24.58804,24.643227,81,51,0
24.643227,24.698414,79,56,0
24.698414,24.753601,81,51,0
24.753601,24.863977,79,58,0
24.863977,24.965155,78,52,0
24.974352,25.410843,78,58,0
26.29569,26.513128,86,61,0
26.513128,26.732203,83,55,0
26.732203,27.387789,79,61,0
27.387789,27.497326,81,53,0
27.497326,27.606863,83,51,0
27.606863,27.825937,81,55,0
27.825937,27.935474,79,53,0
28.045012,28.100199,79,55,0
28.100199,28.155386,81,51,0
28.155386,28.210575,79,56,0
28.210575,28.265762,81,50,0
28.265762,28.376137,79,55,0
28.376137,28.45892,78,52,0
28.486513,28.92466,78,58,0
29.809732,30.261513,86,69,0
30.37904,30.489416,86,61,0
30.489416,30.59979,83,66,0
30.59979,30.710167,79,61,0
30.710167,31.156713,76,68,0
31.269665,31.37962,76,61,0
31.37962,31.489574,79,66,0
31.489574,31.59953,76,61,0
31.59953,32.05233,84,69,0
32.165283,32.275658,84,61,0
32.275658,32.386032,81,66,0
32.386032,32.496407,78,61,0
32.496407,32.941223,74,68,0
33.053265,33.163216,74,61,0
33.163216,33.27317,78,66,0
33.27317,33.383125,74,61,0
33.383125,33.82885,83,68,0
33.9418,34.052177,83,61,0
34.052177,34.16255,79,66,0
34.16255,34.272926,76,61,0
34.272926,34.71846,72,68,0
34.831413,34.94137,72,61,0
34.94137,35.051323,76,66,0
35.051323,35.161278,72,61,0
35.161278,35.611374,81,68,0
35.724327,35.8347,81,61,0
35.8347,35.945076,78,66,0
35.945076,36.05545,72,61,0
36.05545,36.4996,71,68,0
36.612553,36.722507,79,61,0
36.722507,36.832462,74,66,0
36.832462,36.942417,71,61,0
36.942417,37.767075,69,66,0
37.767075,37.822052,71,64,0
37.822052,38.206894,72,69,0
38.206894,38.26187,75,65,0
38.26187,38.65253,76,72,0
38.65253,38.70945,80,65,0
38.70945,39.36667,81,71,0
39.36667,39.42144,83,66,0
39.42144,39.476208,81,66,0
39.476208,39.530975,80,66,0
39.530975,39.585743,81,66,0
39.585743,39.804817,84,74,0
39.804817,40.02389,81,68,0
40.02389,40.242966,84,75,0
40.242966,40.46634,81,69,0
40.46634,40.68458,83,78,0
40.68458,40.908447,79,73,0
40.908447,41.78143,86,79,0
41.78143,41.890553,84,70,0
41.890553,41.999676,83,68,0
41.999676,42.108795,81,67,0
42.108795,42.225418,79,65,0
42.225418,42.284603,81,49,0
42.284603,42.343285,83,38,0
42.343285,42.401485,81,49,0
42.401485,42.45928,83,40,0
42.45928,42.51659,81,50,0
42.51659,42.57351,83,40,0
42.57351,42.629967,81,50,0
42.629967,42.68603,83,40,0
42.68603,42.742203,81,52,0
42.742203,42.79861,83,40,0
42.79861,42.855293,81,52,0
42.855293,42.911747,83,41,0
42.911747,42.967968,81,53,0
42.967968,43.02397,83,41,0
43.02397,43.079678,81,53,0
43.079678,43.135284,83,42,0
43.135284,43.190895,81,54,0
43.190895,43.246506,83,43,0
43.246506,43.302113,81,54,0
43.302113,43.357723,83,45,0
43.357723,43.41333,81,54,0
43.41333,43.46894,83,44,0
43.46894,43.524597,81,54,0
43.524597,43.580547,83,44,0
43.580547,43.63679,81,53,0
43.63679,43.693344,83,45,0
43.693344,43.75021,81,53,0
43.75021,43.807373,83,42,0
43.807373,43.884087,81,53,0
43.884087,43.961384,79,59,0
43.961384,44.038795,81,58,0
44.038795,44.50326,79,69,0
44.50326,44.618004,79,67,0
44.618004,44.732742,74,59,0
44.732742,44.847485,79,62,0
44.847485,44.96695,83,65,0
44.96695,45.081234,86,68,0
45.081234,45.195522,83,63,0
45.195522,45.309807,79,68,0
45.309807,45.42639,83,63,0
45.42639,45.540226,84,69,0
45.540226,45.65406,81,63,0
45.65406,45.7679,78,69,0
45.7679,45.88736,81,63,0
45.88736,46.35183,79,69,0
46.35183,46.466568,67,67,0
46.466568,46.58131,62,59,0
46.58131,46.69605,67,62,0
46.69605,46.815514,71,65,0
46.815514,46.930256,74,68,0
46.930256,47.044994,71,63,0
47.044994,47.159737,67,68,0
47.159737,47.277264,71,63,0
47.277264,47.391098,72,69,0
47.391098,47.504932,69,63,0
47.504932,47.618767,66,69,0
47.618767,47.74075,69,63,0
47.74075,47.86273,67,74,0
48.228672,48.350655,83,77,0
48.228672,48.350655,74,65,0
48.716595,49.20452,79,74,0
48.716595,49.20452,71,62,0
49.692444,50.57131,72,60,0
50.57131,51.00449,76,60,0
51.00449,51.44854,79,60,0
51.44854,52.10853,71,60,0
52.10853,52.217712,72,55,0
52.217712,52.3269,74,51,0
52.3269,52.7673,72,60,0
53.2077,54.074062,81,64,0
54.074062,54.503708,79,62,0
54.503708,54.93865,84,64,0
54.93865,55.368294,79,64,0
55.368294,55.439903,77,55,0
55.439903,55.51151,79,55,0
55.51151,55.58312,77,55,0
55.58312,55.69053,76,59,0
55.69053,55.79794,77,55,0
55.79794,56.227585,76,60,0
56.664562,56.88516,69,60,0
56.88516,57.005665,71,53,0
56.994747,57.114735,72,54,0
57.103863,57.22334,74,55,0
57.21251,57.331482,76,57,0
57.320698,57.439167,77,58,0
57.428425,57.546352,79,59,0
57.535698,57.65303,81,62,0
57.64233,57.760223,79,61,0
57.74948,57.86804,77,60,0
57.857227,57.976448,76,59,0
57.965572,58.08546,74,58,0
58.074543,58.195026,72,57,0
58.18405,58.305298,71,55,0
58.294243,58.41562,69,53,0
58.40465,58.623608,67,60,0
58.623608,58.74347,69,53,0
58.732597,58.85216,71,54,0
58.84133,58.960457,72,55,0
58.949627,59.06839,74,57,0
59.057606,59.17607,76,58,0
59.165333,59.283123,77,59,0
59.27247,59.390068,79,62,0
59.379326,59.4977,77,61,0
59.486916,59.60603,76,60,0
59.595154,59.71514,74,59,0
59.704178,59.824993,72,58,0
59.813984,59.93555,71,57,0
59.92445,60.04689,69,55,0
60.035744,60.157417,67,53,0
60.1465,60.36447,65,60,0
60.36447,60.483772,67,53,0
60.472942,60.591885,69,54,0
60.581097,60.699734,71,55,0
60.68895,60.807156,72,57,0
60.796413,60.91426,74,58,0
60.90356,61.02074,76,59,0
61.010128,61.12739,77,62,0
61.116695,61.23466,76,61,0
61.223915,61.34268,74,60,0
61.331856,61.451492,72,59,0
61.44057,61.56096,71,58,0
61.549995,61.671204,69,57,0
61.66015,61.782154,67,55,0
61.771053,61.893166,65,53,0
61.882065,62.103683,64,60,0
62.103683,62.22473,65,53,0
62.213768,62.334255,67,54,0
62.323338,62.443233,69,55,0
62.43236,62.55175,71,57,0
62.54092,62.659737,72,58,0
62.64895,62.767216,74,59,0
62.75652,62.87432,76,62,0
62.863583,62.982033,74,61,0
62.971237,63.090496,72,60,0
63.07962,63.19961,71,59,0
63.188644,63.30946,69,58,0
63.29845,63.420017,67,57,0
63.408916,63.531284,65,55,0
63.520134,63.642525,64,53,0
63.63147,63.852253,62,60,0
63.852253,63.973114,64,53,0
63.96215,64.08271,65,54,0
64.07179,64.191895,67,55,0
64.18098,64.30071,69,57,0
64.28984,64.40921,71,58,0
64.398384,64.51811,73,59,0
64.506676,64.621056,74,62,0
64.621056,64.74221,69,58,0
64.731384,64.85051,71,61,0
64.839676,64.9588,73,64,0
64.947975,65.0671,74,66,0
65.05627,65.17539,76,67,0
65.164566,65.28464,77,68,0
65.27359,65.394806,79,69,0
65.38408,65.50202,81,70,0
65.4913,65.609245,83,69,0
65.59852,65.71646,84,71,0
65.70574,65.82368,83,69,0
65.81296,65.9309,81,67,0
65.92018,66.03812,79,65,0
66.0274,66.14694,77,63,0
66.13585,66.246765,76,66,0
66.246765,66.363846,77,65,0
66.353195,66.470276,79,66,0
66.45963,66.57671,81,67,0
66.56607,66.68315,79,67,0
66.67251,66.78959,77,68,0
66.77894,66.89602,76,71,0
66.885376,67.005684,74,73,0
66.99429,67.11899,72,76,0
67.108185,67.21621,71,78,0
67.32423,67.43174,79,71,0
67.53925,67.64676,76,71,0
67.75427,67.863266,72,71,0
67.97523,68.083244,74,78,0
68.19127,68.29918,79,71,0
68.40708,68.514984,76,71,0
68.622894,68.731995,72,71,0
68.843475,68.9621,74,81,0
69.31797,69.43893,74,71,0
69.31797,69.43893,79,71,0
69.31797,69.43893,71,71,0
69.8018,70.28564,67,83,0
72.475975,72.69341,86,61,0
72.69341,72.91248,83,55,0
72.91248,73.56808,79,61,0
73.56808,73.67761,81,53,0
73.67761,73.78715,83,51,0
73.78715,74.00622,81,55,0
74.00622,74.11576,79,53,0
74.225296,74.28048,79,55,0
74.28048,74.33567,81,51,0
74.33567,74.39086,79,56,0
74.39086,74.446045,81,51,0
74.446045,74.55642,79,58,0
74.55642,74.6576,78,52,0
74.666794,75.10329,78,58,0
75.98814,76.205574,86,61,0
76.205574,76.424644,83,55,0
76.424644,77.08023,79,61,0
77.08023,77.18977,81,53,0
77.18977,77.29931,83,51,0
77.29931,77.51838,81,55,0
77.51838,77.62792,79,53,0
77.73746,77.79264,79,55,0
77.79264,77.84783,81,51,0
77.84783,77.903015,79,56,0
77.903015,77.958206,81,50,0
77.958206,78.06858,79,55,0
78.06858,78.15136,78,52,0
78.178955,78.6171,78,58,0
79.502174,79.95396,86,69,0
80.07149,80.18186,86,61,0
80.18186,80.29224,83,66,0
80.29224,80.40261,79,61,0
80.40261,80.84916,76,68,0
80.96211,81.07207,76,61,0
81.07207,81.18202,79,66,0
81.18202,81.29197,76,61,0
81.29197,81.744774,84,69,0
81.85773,81.9681,84,61,0
81.9681,82.078476,81,66,0
82.078476,82.18885,78,61,0
82.18885,82.63125,74,68,0
82.7442,82.85416,74,61,0
82.85416,82.96411,78,66,0
82.96411,83.074066,74,61,0
83.074066,83.52195,83,68,0
83.633575,83.74395,83,61,0
83.74395,83.854324,79,66,0
83.854324,83.9647,76,61,0
83.9647,84.41023,72,68,0
84.523186,84.63314,72,61,0
84.63314,84.743095,76,66,0
84.743095,84.85305,72,61,0
84.85305,85.30315,81,68,0
85.4161,85.526474,81,61,0
85.526474,85.63685,78,66,0
85.63685,85.74722,72,61,0
85.74722,86.191376,71,68,0
86.30433,86.41428,79,61,0
86.41428,86.52424,74,66,0
86.52424,86.634186,71,61,0
86.634186,87.45885,69,66,0
87.45885,87.513824,71,64,0
87.513824,87.89867,72,69,0
87.89867,87.95364,75,65,0
87.95364,88.34431,76,72,0
88.34431,88.40122,80,65,0
88.40122,89.05844,81,71,0
89.05844,89.11321,83,66,0
89.11321,89.167984,81,66,0
89.167984,89.22275,80,66,0
89.22275,89.27752,81,66,0
89.27752,89.49659,84,74,0
89.49659,89.71567,81,68,0
89.71567,89.93474,84,75,0
89.93474,90.15811,81,69,0
90.15811,90.37636,83,78,0
90.37636,90.60022,79,73,0
90.60022,91.473206,86,79,0
91.473206,91.58232,84,70,0
91.58232,91.691444,83,68,0
91.691444,91.80057,81,67,0
91.80057,91.91719,79,65,0
91.91719,91.97638,81,49,0
91.97638,92.03506,83,38,0
92.03506,92.09326,81,49,0
92.09326,92.15105,83,40,0
92.15105,92.20837,81,50,0
92.20837,92.26528,83,40,0
92.26528,92.32174,81,50,0
92.32174,92.3778,83,40,0
92.3778,92.433975,81,52,0
92.433975,92.49038,83,40,0
92.49038,92.547066,81,52,0
92.547066,92.60352,83,41,0
92.60352,92.659744,81,53,0
92.659744,92.715744,83,41,0
92.715744,92.771454,81,53,0
92.771454,92.82706,83,42,0
92.82706,92.88267,81,54,0
92.88267,92.93828,83,43,0
92.93828,92.99389,81,54,0
92.99389,93.0495,83,45,0
93.0495,93.1051,81,54,0
93.1051,93.16071,83,44,0
93.16071,93.21637,81,54,0
93.21637,93.27232,83,44,0
93.27232,93.32857,81,53,0
93.32857,93.38512,83,45,0
93.38512,93.441986,81,53,0
93.441986,93.499146,83,42,0
93.499146,93.57586,81,53,0
93.57586,93.65316,79,59,0
93.65316,93.73057,81,58,0
93.73057,94.19504,79,69,0
94.19504,94.30978,79,67,0
94.30978,94.424515,74,59,0
94.424515,94.53926,79,62,0
94.53926,94.65872,83,65,0
94.65872,94.77301,86,68,0
94.77301,94.88729,83,63,0
94.88729,95.00158,79,68,0
95.00158,95.118164,83,63,0
95.118164,95.232,84,69,0
95.232,95.34583,81,63,0
95.34583,95.45967,78,69,0
95.45967,95.57913,81,63,0
95.57913,96.0436,79,69,0
96.0436,96.15834,67,67,0
96.15834,96.27309,62,59,0
96.27309,96.387825,67,62,0
96.387825,96.507286,71,65,0
96.507286,96.62203,74,68,0
96.62203,96.73677,71,63,0
96.73677,96.85151,67,68,0
96.85151,96.96904,71,63,0
96.96904,97.08287,72,69,0
97.08287,97.19671,69,63,0
97.19671,97.31054,66,69,0
97.31054,97.432526,69,63,0
97.432526,97.554504,67,74,0
97.92045,98.04243,83,77,0
97.92045,98.04243,74,65,0
98.40837,98.89629,79,74,0
98.40837,98.89629,71,62,0
99.38422,99.846825,67,69,0
99.846825,99.96156,79,67,0
99.96156,100.0763,74,59,0
100.0763,100.19105,79,62,0
100.19105,100.31051,82,65,0
100.31051,100.423004,86,68,0
100.423004,100.5355,82,63,0
100.5355,100.647995,79,68,0
100.647995,100.76458,82,63,0
100.76458,100.87841,84,69,0
100.87841,100.99225,81,63,0
100.99225,101.10609,78,69,0
101.10609,101.22555,81,63,0
101.22555,101.688156,79,69,0
101.688156,101.802895,67,67,0
101.802895,101.91763,62,59,0
101.91763,102.03237,67,62,0
102.03237,102.15184,70,65,0
102.15184,102.26522,74,68,0
102.26522,102.37859,70,63,0
102.37859,102.491974,67,68,0
102.491974,102.609505,70,63,0
102.609505,102.723335,72,69,0
102.723335,102.83717,69,63,0
102.83717,102.951004,66,69,0
102.951004,103.07299,69,63,0
103.07299,103.548645,67,74,0
104.150894,104.276596,79,68,0
104.26517,104.39086,82,72,0
104.37943,104.505135,81,70,0
104.493706,104.61998,79,68,0
104.60845,104.73601,77,67,0
104.72435,104.85317,76,65,0
104.841415,104.97253,74,64,0
104.959625,105.431564,73,70,0
106.0278,106.154,85,75,0
106.142525,106.26872,88,79,0
106.25725,106.383446,86,77,0
106.37197,106.49856,85,74,0
106.48699,106.61478,82,72,0
106.60312,106.73222,81,70,0
106.72042,106.85049,79,72,0
106.83892,107.30153,77,85,0
107.30153,107.41491,74,73,0
107.41491,107.52829,69,64,0
107.52829,107.64166,74,68,0
107.64166,107.76113,77,71,0
107.76113,107.87451,81,74,0
107.87451,107.987885,77,69,0
107.987885,108.101265,74,74,0
108.101265,108.21785,77,69,0
108.21785,108.33079,79,75,0
108.33079,108.443726,76,69,0
108.443726,108.556656,73,75,0
108.556656,108.676125,76,69,0
108.676125,109.138725,74,75,0
109.138725,109.25347,62,67,0
109.25347,109.36821,57,59,0
109.36821,109.48295,62,62,0
109.48295,109.60241,65,65,0
109.60241,109.71579,69,68,0
109.71579,109.82917,65,63,0
109.82917,109.94255,62,68,0
109.94255,110.060074,65,63,0
110.060074,110.17301,67,69,0
110.17301,110.28594,64,63,0
110.28594,110.39888,61,69,0
110.39888,110.52086,64,63,0
110.649895,110.77609,62,54,0
110.76462,110.89081,64,56,0
110.87934,111.00563,65,58,0
110.99411,111.12111,67,60,0
111.10954,111.23752,69,61,0
111.22585,111.354866,71,63,0
111.34311,111.47446,73,65,0
111.46132,111.93689,74,66,0
112.53761,112.66483,71,58,0
112.65327,112.78049,72,60,0
112.76892,112.89604,74,61,0
112.88452,113.01152,76,63,0
112.99995,113.12792,78,64,0
113.116264,113.24527,80,66,0
113.23351,113.36463,81,67,0
113.35173,113.82498,83,69,0
114.42695,114.55416,81,70,0
114.542595,114.669815,88,77,0
114.65825,114.78537,86,70,0
114.77385,114.90085,84,71,0
114.88928,115.01726,83,72,0
115.00559,115.134605,81,73,0
115.12285,115.25449,79,74,0
115.24106,115.71967,77,78,0
116.31566,116.44288,79,64,0
116.43131,116.558525,86,69,0
116.54697,116.67409,84,63,0
116.66257,116.789566,83,64,0
116.77799,116.90597,81,66,0
116.89431,117.023315,79,67,0
117.01156,117.14321,77,69,0
117.12977,117.60839,76,71,0
118.20438,118.33159,77,60,0
118.32002,118.44724,84,66,0
118.43568,118.5628,83,70,0
118.55128,118.678276,81,69,0
118.66671,118.794685,79,68,0
118.78302,118.91203,77,66,0
118.900276,119.03139,76,65,0
119.018486,119.49174,74,69,0
120.093704,120.220924,76,59,0
120.20936,120.33657,83,67,0
120.32501,120.45213,81,67,0
120.44061,120.56761,80,66,0
120.55604,120.68401,77,65,0
120.672356,120.80136,76,64,0
120.789604,120.92072,74,63,0
120.907814,121.38107,72,66,0
121.98242,122.109634,70,58,0
122.09807,122.22529,74,64,0
122.21372,122.34084,72,59,0
122.32932,122.45632,70,64,0
122.444756,122.57273,69,63,0
122.561066,122.69008,67,61,0
122.67832,122.79653,65,60,0
122.79653,122.937035,64,59,0
122.92556,123.05178,65,57,0
123.040306,123.16652,67,56,0
123.155045,123.28126,69,55,0
123.26978,123.39637,70,53,0
123.3848,123.512596,72,52,0
123.50093,123.63214,74,50,0
123.61819,123.757774,76,49,0
123.757774,124.636635,77,59,0
124.636635,125.06982,81,58,0
125.06982,125.51387,84,56,0
125.51387,126.17386,76,60,0
126.17386,126.28304,77,55,0
126.28304,126.39223,79,51,0
126.39223,126.83263,77,60,0
127.273026,128.13939,86,64,0
128.13939,128.56903,84,62,0
128.56903,129.00398,89,64,0
129.00398,129.43362,84,64,0
129.43362,129.50523,82,55,0
129.50523,129.57684,84,55,0
129.57684,129.64845,82,55,0
129.64845,129.75586,81,59,0
129.75586,129.86327,82,55,0
129.86327,130.29291,81,60,0
130.72989,130.95049,74,60,0
130.95049,131.071,76,53,0
131.06007,131.18007,77,54,0
131.16919,131.28867,79,55,0
131.27783,131.3968,81,57,0
131.38603,131.5045,82,58,0
131.49376,131.61168,84,59,0
131.60103,131.71835,86,62,0
131.70766,131.82555,84,61,0
131.8148,131.93336,82,60,0
131.92256,132.04178,81,59,0
132.0309,132.15079,79,58,0
132.13988,132.26036,77,57,0
132.24937,132.37062,76,55,0
132.35957,132.48094,74,53,0
132.46999,132.68893,72,60,0
132.68893,132.80879,74,53,0
132.79793,132.9175,76,54,0
132.90666,133.02579,77,55,0
133.01495,133.13371,79,57,0
133.12294,133.2414,81,58,0
133.23067,133.34845,82,59,0
133.3378,133.4554,84,62,0
133.44466,133.56303,82,61,0
133.55225,133.67136,81,60,0
133.66048,133.78047,79,59,0
133.7695,133.89032,77,58,0
133.87932,134.00089,76,57,0
133.98978,134.11221,74,55,0
134.10107,134.22275,72,53,0
134.21182,134.4298,70,60,0
134.4298,134.5491,72,53,0
134.53827,134.65721,74,54,0
134.64642,134.76506,76,55,0
134.75427,134.87248,77,57,0
134.86174,134.97958,79,58,0
134.96889,135.08607,81,59,0
135.07545,135.19272,82,62,0
135.18202,135.29999,81,61,0
135.28925,135.408,79,60,0
135.39719,135.51682,77,59,0
135.5059,135.62628,76,58,0
135.61533,135.73653,74,57,0
135.72548,135.84749,72,55,0
135.83638,135.9585,70,53,0
135.94739,136.169,69,60,0
136.169,136.29005,70,53,0
136.2791,136.39958,72,54,0
136.38867,136.50856,74,55,0
136.4977,136.61708,76,57,0
136.60625,136.72507,77,58,0
136.71428,136.83255,79,59,0
136.82185,136.93965,81,62,0
136.92891,137.04736,79,61,0
137.03656,137.15582,77,60,0
137.14494,137.26494,76,59,0
137.25398,137.37479,74,58,0
137.36378,137.48535,72,57,0
137.47424,137.59743,70,55,0
137.58546,137.71475,69,53,0
137.7037,138.143,81,61,0
139.00471,139.44379,81,56,0
139.00471,139.44379,72,56,0
139.44379,139.88048,79,56,0
139.44379,139.88048,72,56,0
140.74332,141.18564,79,56,0
140.74332,141.18564,72,56,0
141.18564,141.62024,77,56,0
141.18564,141.62024,72,56,0
142.4797,142.9212,77,56,0
142.4797,142.9212,71,56,0
142.9212,143.36247,76,56,0
142.9212,143.36247,72,56,0
144.22778,144.67061,76,56,0
144.22778,144.67061,72,56,0
144.67061,144.78116,74,60,0
144.78116,144.9024,62,53,0
144.89139,145.01225,64,53,0
145.0013,145.12186,65,54,0
145.11093,145.23103,67,55,0
145.22012,145.33986,69,57,0
145.32898,145.44835,71,58,0
145.43752,145.55725,73,59,0
145.54582,145.6602,74,62,0
145.6602,145.78136,69,58,0
145.77052,145.88965,71,61,0
145.87881,145.99794,73,64,0
145.98712,146.10625,74,66,0
146.09541,146.21454,76,67,0
146.2037,146.32378,77,68,0
146.31273,146.43394,79,69,0
146.42322,146.54117,81,70,0
146.53044,146.64838,83,69,0
146.63766,146.7556,84,71,0
146.74487,146.86282,83,69,0
146.8521,146.97005,81,67,0
146.95932,147.07726,79,65,0
147.06654,147.18608,77,63,0
147.17499,147.2859,76,66,0
147.2859,147.40298,77,65,0
147.39233,147.50941,79,66,0
147.49878,147.61586,81,67,0
147.60521,147.72229,79,67,0
147.71164,147.82872,77,68,0
147.81808,147.93517,76,71,0
147.92451,148.04483,74,73,0
148.03343,148.15813,72,76,0
148.14732,148.25534,71,78,0
148.36337,148.47089,79,71,0
148.57838,148.6859,76,71,0
148.79341,148.9024,72,71,0
149.01436,149.12239,74,78,0
149.23041,149.33832,79,71,0
149.44623,149.55412,76,71,0
149.66203,149.77113,72,71,0
149.88261,150.00124,74,81,0
150.35712,150.47807,71,71,0
150.35712,150.47807,79,71,0
150.35712,150.47807,74,71,0
150.84094,151.32477,67,83,0
153.51512,153.73256,79,61,0
153.73256,153.95163,76,55,0
153.95163,154.60721,72,61,0
154.60721,154.71675,74,53,0
154.71675,154.8263,76,51,0
154.8263,155.04536,74,55,0
155.04536,155.15489,72,53,0
155.26443,155.31963,72,55,0
155.31963,155.37482,74,51,0
155.37482,155.43,72,56,0
155.43,155.48518,74,51,0
155.48518,155.59557,72,58,0
155.59557,155.69673,71,52,0
155.70593,156.14243,71,58,0
157.02727,157.24472,79,61,0
157.24472,157.46379,76,55,0
157.46379,158.11937,72,61,0
158.11937,158.22891,74,53,0
158.22891,158.33846,76,51,0
158.33846,158.55753,74,55,0
158.55753,158.66705,72,53,0
158.7766,158.83179,72,55,0
158.83179,158.88698,74,51,0
158.88698,158.94215,72,56,0
158.94215,158.99734,74,50,0
158.99734,159.10773,72,55,0
159.10773,159.1905,71,52,0
159.2181,159.65625,71,58,0
160.54132,160.9931,79,65,0
161.11063,161.221,79,57,0
161.221,161.33138,76,62,0
161.33138,161.44176,72,57,0
161.44176,161.88829,69,64,0
162.00125,162.1112,69,57,0
162.1112,162.22116,72,62,0
162.22116,162.33112,69,57,0
162.33112,162.78392,77,65,0
162.8931,163.00348,77,57,0
163.00348,163.11385,74,62,0
163.11385,163.22423,71,57,0
163.22423,163.67628,67,64,0
163.78925,163.8992,79,64,0
163.8992,164.00916,83,67,0
164.00916,164.11911,79,63,0
164.11911,164.5709,88,72,0
164.68387,164.79424,88,61,0
164.79424,164.90462,84,66,0
164.90462,165.015,81,61,0
165.015,165.46053,77,68,0
165.57132,165.68127,77,64,0
165.68127,165.79123,81,66,0
165.79123,165.90118,77,64,0
165.90118,166.3466,86,73,0
166.45999,166.56871,86,61,0
166.56871,166.67743,83,66,0
166.67743,166.78908,77,61,0
166.78908,167.23323,76,68,0
167.34619,167.45615,84,61,0
167.45615,167.5661,79,66,0
167.5661,167.67604,76,61,0
167.67604,168.5007,74,71,0
168.5007,168.55568,73,64,0
168.55568,168.94052,74,69,0
168.94052,168.9955,73,65,0
168.9955,169.44308,74,72,0
169.44308,170.26775,81,77,0
170.26775,170.32272,80,69,0
170.32272,170.70755,81,78,0
170.70755,170.76253,80,69,0
170.76253,171.21011,81,79,0
171.21011,171.43779,79,78,0
171.43779,171.55162,81,75,0
171.55162,171.66635,83,76,0
171.66635,171.77548,84,79,0
171.77548,171.8846,86,80,0
171.8846,171.99373,88,83,0
171.99373,172.10284,86,82,0
172.10284,172.21198,84,78,0
172.21198,172.32109,83,77,0
172.32109,172.43022,81,75,0
172.43022,172.53934,79,74,0
172.53934,172.64847,77,70,0
172.64847,172.75758,76,68,0
172.75758,172.86671,74,67,0
172.86671,172.98332,72,65,0
172.98332,173.04251,74,49,0
173.04251,173.1012,76,38,0
173.1012,173.1594,74,49,0
173.1594,173.2172,76,40,0
173.2172,173.2745,74,50,0
173.2745,173.33142,76,40,0
173.33142,173.38788,74,50,0
173.38788,173.44394,76,40,0
173.44394,173.5001,74,52,0
173.5001,173.55652,76,40,0
173.55652,173.6132,74,52,0
173.6132,173.66966,76,41,0
173.66966,173.72588,74,53,0
173.72588,173.78188,76,41,0
173.78188,173.83759,74,53,0
173.83759,173.8932,76,42,0
173.8932,173.9488,74,54,0
173.9488,174.00441,76,43,0
174.00441,174.06003,74,54,0
174.06003,174.11563,76,45,0
174.11563,174.17125,74,54,0
174.17125,174.22685,76,44,0
174.22685,174.2825,74,54,0
174.2825,174.33846,76,44,0
174.33846,174.3947,74,53,0
174.3947,174.45125,76,45,0
174.45125,174.50812,74,53,0
174.50812,174.56529,76,42,0
174.56529,174.642,74,53,0
174.642,174.7193,72,59,0
174.7193,174.7967,74,58,0
174.7967,175.26117,72,69,0
175.26117,175.37592,72,67,0
175.37592,175.49066,67,59,0
175.49066,175.6054,72,62,0
175.6054,175.72485,76,65,0
175.72485,175.83914,79,68,0
175.83914,175.95343,76,63,0
175.95343,176.06772,72,68,0
176.06772,176.18431,76,63,0
176.18431,176.29814,77,69,0
176.29814,176.41197,74,63,0
176.41197,176.5258,71,69,0
176.5258,176.64528,74,63,0
176.64528,177.10974,72,69,0
177.10974,177.22449,60,67,0
177.22449,177.33922,55,59,0
177.33922,177.45396,60,62,0
177.45396,177.57343,64,65,0
177.57343,177.68817,67,68,0
177.68817,177.8029,64,63,0
177.8029,177.91765,60,68,0
177.91765,178.03517,64,63,0
178.03517,178.149,65,69,0
178.149,178.26285,62,63,0
178.26285,178.37668,59,69,0
178.37668,178.49866,62,63,0
178.49866,178.62064,60,74,0
178.98659,179.10857,76,65,0
178.98659,179.10857,84,85,0
178.98659,179.10857,79,72,0
179.4745,179.96243,72,83,0
180.45035,180.91296,67,69,0
180.91296,181.0277,79,67,0
181.0277,181.14244,74,59,0
181.14244,181.25719,79,62,0
181.25719,181.37665,82,65,0
181.37665,181.48914,86,68,0
181.48914,181.60164,82,63,0
181.60164,181.71413,79,68,0
181.71413,181.83072,82,63,0
181.83072,181.94455,84,69,0
181.94455,182.05838,81,63,0
182.05838,182.17223,78,69,0
182.17223,182.29169,81,63,0
182.29169,182.75429,79,69,0
182.75429,182.86903,67,67,0
182.86903,182.98376,62,59,0
182.98376,183.09851,67,62,0
183.09851,183.21797,70,65,0
183.21797,183.33136,74,68,0
183.33136,183.44473,70,63,0
183.44473,183.55812,67,68,0
183.55812,183.67564,70,63,0
183.67564,183.78947,72,69,0
183.78947,183.9033,69,63,0
183.9033,184.01715,66,69,0
184.01715,184.13913,69,63,0
184.13913,184.61479,67,74,0
185.21704,185.34273,79,68,0
185.3313,185.457,82,72,0
185.44557,185.57127,81,70,0
185.55984,185.68611,79,68,0
185.67459,185.80215,77,67,0
185.79048,185.91931,76,65,0
185.90755,186.03867,74,64,0
186.02577,186.4977,73,70,0
187.09393,187.22014,85,75,0
187.20866,187.33485,88,79,0
187.32338,187.44958,86,77,0
187.43811,187.5647,85,74,0
187.55313,187.68092,82,72,0
187.66925,187.79836,81,70,0
187.78656,187.91663,79,72,0
187.90506,188.36766,77,85,0
188.36766,188.48105,74,73,0
188.48105,188.59442,69,64,0
188.59442,188.70781,74,68,0
188.70781,188.82727,77,71,0
188.82727,188.94064,81,74,0
188.94064,189.05403,77,69,0
189.05403,189.1674,74,74,0
189.1674,189.284,77,69,0
189.284,189.39693,79,75,0
189.39693,189.50986,76,69,0
189.50986,189.62279,73,75,0
189.62279,189.74226,76,69,0
189.74226,190.20486,74,75,0
190.20486,190.31961,62,67,0
190.31961,190.43434,57,59,0
190.43434,190.54909,62,62,0
190.54909,190.66855,65,65,0
190.66855,190.78194,69,68,0
190.78194,190.89531,65,63,0
190.89531,191.00868,62,68,0
191.00868,191.12622,65,63,0
191.12622,191.23915,67,69,0
191.23915,191.35208,64,63,0
191.35208,191.46501,61,69,0
191.46501,191.587,64,63,0
191.71603,191.84222,62,54,0
191.83075,191.95695,64,56,0
191.94548,192.07178,65,58,0
192.06026,192.18726,67,60,0
192.17567,192.30365,69,61,0
192.29199,192.421,71,63,0
192.40924,192.54059,73,65,0
192.52745,193.00302,74,66,0
193.60376,193.73097,71,58,0
193.7194,193.84662,72,60,0
193.83505,193.96217,74,61,0
193.95065,194.07765,76,63,0
194.06609,194.19406,78,64,0
194.1824,194.31142,80,66,0
194.29965,194.43077,81,67,0
194.41786,194.89111,83,69,0
195.49309,195.6203,81,70,0
195.60873,195.73595,88,77,0
195.72438,195.85152,86,70,0
195.84,195.96698,84,71,0
195.95541,196.08339,83,72,0
196.07173,196.20074,81,73,0
196.18898,196.32063,79,74,0
196.30719,196.78581,77,78,0
197.3818,197.50902,79,64,0
197.49745,197.62466,86,69,0
197.6131,197.74022,84,63,0
197.7287,197.8557,83,64,0
197.84413,197.9721,81,66,0
197.96045,198.08946,79,67,0
198.0777,198.20935,77,69,0
198.1959,198.67453,76,71,0
199.27051,199.39774,77,60,0
199.38617,199.51338,84,66,0
199.50182,199.62894,83,70,0
199.61742,199.74442,81,69,0
199.73285,199.86082,79,68,0
199.84915,199.97816,77,66,0
199.96642,200.09753,76,65,0
200.08463,200.55788,74,69,0
201.15984,201.28706,76,59,0
201.2755,201.40271,83,67,0
201.39114,201.51826,81,67,0
201.50674,201.63374,80,66,0
201.62218,201.75015,77,65,0
201.7385,201.86751,76,64,0
201.85574,201.98686,74,63,0
201.97395,202.4472,72,66,0
203.04855,203.17578,70,58,0
203.16422,203.29143,74,64,0
203.27986,203.40698,72,59,0
203.39546,203.52246,70,64,0
203.5109,203.63887,69,63,0
203.6272,203.75621,67,61,0
203.74446,203.86267,65,60,0
203.86267,204.00317,64,59,0
203.9917,204.11792,65,57,0
204.10645,204.23265,67,56,0
204.22118,204.3474,69,55,0
204.33592,204.46251,70,53,0
204.45094,204.57874,72,52,0
204.56706,204.69829,74,50,0
204.68433,204.82391,76,49,0
204.82391,205.70277,77,59,0
205.70277,206.13596,81,58,0
206.13596,206.58,84,56,0
206.58,207.23999,76,60,0
207.23999,207.34918,77,55,0
207.34918,207.45837,79,51,0
207.45837,207.89876,77,60,0
208.33916,209.20554,86,64,0
209.20554,209.63518,84,62,0
209.63518,210.07011,89,64,0
210.07011,210.49976,84,64,0
210.49976,210.57137,82,55,0
210.57137,210.64297,84,55,0
210.64297,210.71458,82,55,0
210.71458,210.82199,81,59,0
210.82199,210.92941,82,55,0
210.92941,211.35905,81,60,0
211.79604,212.01663,74,60,0
212.01663,212.13713,76,53,0
212.12622,212.2462,77,54,0
212.23532,212.3548,79,55,0
212.34398,212.46295,81,57,0
212.45216,212.57063,82,58,0
212.55989,212.67783,84,59,0
212.66716,212.7845,86,62,0
212.7738,212.8917,84,61,0
212.88095,212.9995,82,60,0
212.9887,213.10791,81,59,0
213.09705,213.21692,79,58,0
213.20601,213.32649,77,57,0
213.31552,213.43677,76,55,0
213.4257,213.54709,74,53,0
213.53612,213.75508,72,60,0
213.75508,213.87494,74,53,0
213.86406,213.98363,76,54,0
213.9728,214.09192,77,55,0
214.0811,214.19986,79,57,0
214.18907,214.30754,81,58,0
214.2968,214.4146,82,59,0
214.40393,214.52153,84,62,0
214.51079,214.62917,82,61,0
214.61838,214.73749,81,60,0
214.72662,214.8466,79,59,0
214.83565,214.95647,77,58,0
214.94545,215.06702,76,57,0
215.05591,215.17836,74,55,0
215.1672,215.28888,72,53,0
215.27797,215.49594,70,60,0
215.49594,215.61523,72,53,0
215.60442,215.72334,74,54,0
215.71257,215.8312,76,55,0
215.82042,215.93861,77,57,0
215.92787,216.04573,79,58,0
216.03503,216.1522,81,59,0
216.14159,216.25887,82,62,0
216.24815,216.36613,81,61,0
216.35538,216.47415,79,60,0
216.46332,216.58296,77,59,0
216.57204,216.69243,76,58,0
216.68146,216.80267,74,57,0
216.79161,216.91362,72,55,0
216.90251,217.02463,70,53,0
217.01353,217.23515,69,60,0
217.23515,217.3562,70,53,0
217.34523,217.46573,72,54,0
217.4548,217.5747,74,55,0
217.56383,217.68321,76,57,0
217.6724,217.7912,77,58,0
217.78041,217.89868,79,59,0
217.88799,218.00578,81,62,0
217.99504,218.1135,79,61,0
218.1027,218.22195,77,60,0
218.21109,218.33107,76,59,0
218.32011,218.44093,74,58,0
218.42992,218.55148,72,57,0
218.54037,218.66357,70,55,0
218.6516,218.7809,69,53,0
218.76984,219.20914,81,61,0
220.07085,220.50993,81,56,0
220.07085,220.50993,72,56,0
220.50993,220.94661,79,56,0
220.50993,220.94661,72,56,0
221.80946,222.25177,79,56,0
221.80946,222.25177,72,56,0
222.25177,222.68637,77,56,0
222.25177,222.68637,72,56,0
223.54585,223.98734,77,56,0
223.54585,223.98734,71,56,0
223.98734,224.42862,76,56,0
223.98734,224.42862,72,56,0
225.29393,225.73676,76,56,0
225.29393,225.73676,72,56,0
225.73676,225.8473,74,60,0
225.8473,225.96854,62,53,0
225.95753,226.0784,64,53,0
226.06743,226.18799,65,54,0
226.17706,226.29718,67,55,0
226.28625,226.40599,69,57,0
226.39513,226.5145,71,58,0
226.50366,226.6234,73,59,0
226.61195,226.72633,74,62,0
226.72633,226.84749,69,58,0
226.83665,226.95578,71,61,0
226.94496,227.06409,73,64,0
227.05325,227.17238,74,66,0
227.16154,227.28067,76,67,0
227.26984,227.38992,77,68,0
227.37888,227.50008,79,69,0
227.48936,227.6073,81,70,0
227.59657,227.71452,83,69,0
227.7038,227.82173,84,71,0
227.81102,227.92896,83,69,0
227.91824,228.03618,81,67,0
228.02545,228.1434,79,65,0
228.13268,228.25221,77,63,0
228.24112,228.35204,76,66,0
228.35204,228.46912,77,65,0
228.45848,228.57556,79,66,0
228.56491,228.68199,81,67,0
228.67134,228.78842,79,67,0
228.77779,228.89487,77,68,0
228.88422,229.0013,76,71,0
228.99066,229.11096,74,73,0
229.09958,229.22426,72,76,0
229.21346,229.32149,71,78,0
229.4295,229.53702,79,71,0
229.64453,229.75204,76,71,0
229.85956,229.96855,72,71,0
230.0805,230.18852,74,78,0
230.29655,230.40445,79,71,0
230.51236,230.62027,76,71,0
230.72816,230.83727,72,71,0
230.94875,231.06738,74,81,0
231.42325,231.5442,71,71,0
231.42325,231.5442,79,71,0
231.42325,231.5442,74,71,0
231.90707,232.39091,67,83,0
234.58125,234.79869,79,61,0
234.79869,235.01776,76,55,0
235.01776,235.67336,72,61,0
235.67336,235.78288,74,53,0
235.78288,235.89243,76,51,0
235.89243,236.1115,74,55,0
236.1115,236.22104,72,53,0
236.33057,236.38576,72,55,0
236.38576,236.44095,74,51,0
236.44095,236.49614,72,56,0
236.49614,236.55133,74,51,0
236.55133,236.6617,72,58,0
236.6617,236.76288,71,52,0
236.77208,237.20857,71,58,0
238.09341,238.31085,79,61,0
238.31085,238.52992,76,55,0
238.52992,239.18552,72,61,0
239.18552,239.29504,74,53,0
239.29504,239.40459,76,51,0
239.40459,239.62366,74,55,0
239.62366,239.7332,72,53,0
239.84273,239.89792,72,55,0
239.89792,239.95311,74,51,0
239.95311,240.0083,72,56,0
240.0083,240.06348,74,50,0
240.06348,240.17386,72,55,0
240.17386,240.25664,71,52,0
240.28424,240.72238,71,58,0
241.60745,242.05923,79,65,0
242.17676,242.28714,79,57,0
242.28714,242.3975,76,62,0
242.3975,242.50789,72,57,0
242.50789,242.95444,69,64,0
243.06738,243.17734,69,57,0
243.17734,243.2873,72,62,0
243.2873,243.39725,69,57,0
243.39725,243.85005,77,65,0
243.95691,244.06728,77,57,0
244.06728,244.17766,74,62,0
244.17766,244.28802,71,57,0
244.28802,244.7401,67,64,0
244.85304,244.963,79,64,0
244.963,245.07295,83,67,0
245.07295,245.1829,79,63,0
245.1829,245.63472,88,72,0
245.74767,245.85805,88,61,0
245.85805,245.96841,84,66,0
245.96841,246.0788,81,61,0
246.0788,246.52434,77,68,0
246.63728,246.74724,77,64,0
246.74724,246.8572,81,66,0
246.8572,246.96715,77,64,0
246.96715,247.41255,86,73,0
247.52596,247.63467,86,61,0
247.63467,247.7434,83,66,0
247.7434,247.85504,77,61,0
247.85504,248.2992,76,68,0
248.41214,248.5221,84,61,0
248.5221,248.63205,79,66,0
248.63205,248.742,76,61,0
248.742,249.56667,74,71,0
249.56667,249.62164,73,64,0
249.62164,250.00648,74,69,0
250.00648,250.06146,73,65,0
250.06146,250.50903,74,72,0
250.50903,251.3337,81,77,0
251.3337,251.38867,80,69,0
251.38867,251.77351,81,78,0
251.77351,251.82849,80,69,0
251.82849,252.27606,81,79,0
252.27606,252.50374,79,78,0
252.50374,252.61757,81,75,0
252.61757,252.73232,83,76,0
252.73232,252.84143,84,79,0
252.84143,252.95056,86,80,0
252.95056,253.05968,88,83,0
253.05968,253.16881,86,82,0
253.16881,253.27792,84,78,0
253.27792,253.38705,83,77,0
253.38705,253.49617,81,75,0
253.49617,253.6053,79,74,0
253.6053,253.71442,77,70,0
253.71442,253.82355,76,68,0
253.82355,253.93266,74,67,0
253.93266,254.04929,72,65,0
254.04929,254.10847,74,49,0
254.10847,254.16714,76,38,0
254.16714,254.22536,74,49,0
254.22536,254.28314,76,40,0
254.28314,254.34045,74,50,0
254.34045,254.39737,76,40,0
254.39737,254.45383,74,50,0
254.45383,254.5099,76,40,0
254.5099,254.56607,74,52,0
254.56607,254.62248,76,40,0
254.62248,254.67915,74,52,0
254.67915,254.73561,76,41,0
254.73561,254.79184,74,53,0
254.79184,254.84784,76,41,0
254.84784,254.90355,74,53,0
254.90355,254.95915,76,42,0
254.95915,255.01477,74,54,0
255.01477,255.07037,76,43,0
255.07037,255.12598,74,54,0
255.12598,255.1816,76,45,0
255.1816,255.2372,74,54,0
255.2372,255.2928,76,44,0
255.2928,255.34846,74,54,0
255.34846,255.40442,76,44,0
255.40442,255.46066,74,53,0
255.46066,255.51721,76,45,0
255.51721,255.57408,74,53,0
255.57408,255.63124,76,42,0
255.63124,255.70795,74,53,0
255.70795,255.78525,72,59,0
255.78525,255.86266,74,58,0
255.86266,256.32712,72,69,0
256.32712,256.44186,72,67,0
256.44186,256.5566,67,59,0
256.5566,256.67136,72,62,0
256.67136,256.7908,76,65,0
256.7908,256.9051,79,68,0
256.9051,257.01938,76,63,0
257.01938,257.13367,72,68,0
257.13367,257.25027,76,63,0
257.25027,257.3641,77,69,0
257.3641,257.47794,74,63,0
257.47794,257.59177,71,69,0
257.59177,257.71124,74,63,0
257.71124,258.1757,72,69,0
258.1757,258.29044,60,67,0
258.29044,258.40518,55,59,0
258.40518,258.51993,60,62,0
258.51993,258.63937,64,65,0
258.63937,258.75412,67,68,0
258.75412,258.86887,64,63,0
258.86887,258.9836,60,68,0
258.9836,259.10114,64,63,0
259.10114,259.21497,65,69,0
259.21497,259.3288,62,63,0
259.3288,259.44263,59,69,0
259.44263,259.5646,62,63,0
259.5646,259.69733,60,74,0
260.0954,260.22522,76,65,0
260.0954,260.22522,84,88,0
260.0954,260.22522,79,75,0
260.61472,261.134,72,85,0
0.0,0.219716,60,40,0
0.219716,0.439432,67,30,0
0.439432,0.659148,64,30,0
0.659148,0.878864,67,30,0
0.878864,1.095455,60,40,0
1.095455,1.312046,67,30,0
1.312046,1.534071,64,30,0
1.534071,1.756096,67,30,0
1.756096,1.978121,62,30,0
1.978121,2.197711,67,29,0
2.197711,2.4160836,65,31,0
2.4160836,2.634456,67,28,0
2.634456,2.8546555,60,40,0
2.8546555,3.074855,67,29,0
3.074855,3.2950544,64,32,0
3.2950544,3.515254,67,29,0
3.515254,3.731845,60,40,0
3.731845,3.948436,69,32,0
3.948436,4.165027,65,32,0
4.165027,4.381618,69,32,0
4.381618,4.596441,60,40,0
4.596441,4.811264,67,32,0
4.811264,5.028734,64,32,0
5.028734,5.246204,67,32,0
5.246204,5.461027,59,40,0
5.461027,5.67585,67,32,0
5.67585,5.890673,62,32,0
5.890673,6.105496,67,32,0
6.105496,6.320319,60,40,0
6.320319,6.535142,67,34,0
6.535142,6.749965,64,34,0
6.749965,6.9721184,67,34,0
6.9721184,7.411418,65,40,0
8.2731285,8.712209,60,40,0
8.2731285,8.712209,53,40,0
8.712209,9.148887,60,40,0
8.712209,9.148887,52,40,0
10.011735,10.454054,60,40,0
10.011735,10.454054,52,40,0
10.454054,10.888654,60,40,0
10.454054,10.888654,50,40,0
11.748128,12.18962,59,40,0
11.748128,12.18962,50,40,0
12.18962,12.630893,60,40,0
12.18962,12.630893,48,40,0
13.496202,13.939027,48,40,0
13.496202,13.939027,52,40,0
13.939027,15.691637,57,40,0
13.939027,15.691637,53,40,0
15.691637,16.334953,53,60,0
16.334953,16.55432,55,55,0
16.55432,17.192934,57,60,0
17.192934,17.41574,54,54,0
17.41574,17.523762,43,65,0
17.523762,17.631784,47,56,0
17.631784,17.739296,50,56,0
17.739296,17.846807,55,50,0
17.846807,17.954319,43,65,0
17.954319,18.06183,48,55,0
18.06183,18.170824,52,55,0
18.170824,18.28278,55,50,0
18.28278,18.390802,43,65,0
18.390802,18.498825,47,55,0
18.498825,18.606731,50,55,0
18.606731,18.714638,55,54,0
18.714638,18.822544,43,65,0
18.822544,18.930449,48,57,0
18.930449,19.039547,52,56,0
19.039547,19.15103,55,53,0
19.15103,19.269655,43,65,0
19.625526,19.746485,55,59,0
20.109358,20.593191,43,61,0
21.046774,21.166025,61,42,0
21.155153,21.263403,62,36,0
21.263403,21.381735,61,42,0
21.370945,21.478655,62,36,0
21.478655,21.597197,61,42,0
21.586445,21.69407,62,38,0
21.69407,21.812689,61,42,0
21.80135,21.914745,62,37,0
21.914745,22.033499,60,42,0
22.022667,22.130629,62,36,0
22.130629,22.248962,60,42,0
22.23817,22.346077,62,37,0
22.346077,22.464287,60,42,0
22.453455,22.561733,62,37,0
22.561733,22.680674,60,42,0
22.669245,22.783531,62,38,0
22.783531,22.89225,59,42,0
22.89225,23.000969,62,36,0
23.000969,23.110506,59,42,0
23.110506,23.220043,62,36,0
23.220043,23.32958,59,42,0
23.32958,23.439117,62,32,0
23.439117,23.548655,59,38,0
23.548655,23.658192,62,33,0
23.658192,23.76691,59,39,0
23.76691,23.87563,62,32,0
23.87563,23.985167,59,39,0
23.985167,24.094704,62,34,0
24.094704,24.20424,59,42,0
24.20424,24.313778,62,37,0
24.313778,24.423315,59,42,0
24.423315,24.532852,62,38,0
24.532852,24.643227,60,46,0
24.643227,24.753601,62,38,0
24.753601,24.863977,59,42,0
24.863977,24.974352,62,36,0
24.974352,25.094387,57,39,0
25.083475,25.192598,62,27,0
25.192598,25.312634,59,47,0
25.30172,25.410843,62,35,0
25.410843,25.530878,60,50,0
25.519966,25.62909,62,36,0
25.62909,25.749125,59,44,0
25.73821,25.847334,62,30,0
25.847334,25.968285,60,52,0
25.957289,26.067244,62,31,0
26.067244,26.189047,57,40,0
26.177198,26.29569,62,28,0
26.29569,26.40441,59,42,0
26.40441,26.513128,62,36,0
26.513128,26.622665,59,42,0
26.622665,26.732203,62,36,0
26.732203,26.84174,59,42,0
26.84174,26.951277,62,32,0
26.951277,27.060814,59,38,0
27.060814,27.170351,62,33,0
27.170351,27.27907,59,39,0
27.27907,27.387789,62,32,0
27.387789,27.497326,59,39,0
27.497326,27.606863,62,34,0
27.606863,27.7164,59,42,0
27.7164,27.825937,62,37,0
27.825937,27.935474,59,42,0
27.935474,28.045012,62,38,0
28.045012,28.155386,60,42,0
28.155386,28.265762,62,36,0
28.265762,28.376137,59,42,0
28.376137,28.486513,62,36,0
28.486513,28.607004,57,39,0
28.59605,28.705587,62,29,0
28.705587,28.826077,59,42,0
28.815125,28.92466,62,32,0
28.92466,29.04515,60,48,0
29.034197,29.143734,62,36,0
29.143734,29.264225,59,43,0
29.253271,29.362808,62,30,0
29.362808,29.483759,60,48,0
29.472763,29.582718,62,36,0
29.582718,29.704378,57,43,0
29.692673,29.809732,62,30,0
29.928152,30.040548,59,39,0
30.040548,30.151545,62,42,0
30.151545,30.261513,67,39,0
30.261513,30.710167,71,48,0
30.824451,30.936222,60,42,0
30.936222,31.046991,64,44,0
31.046991,31.156713,67,41,0
31.156713,31.59953,72,52,0
31.717949,31.830399,57,39,0
31.830399,31.94154,60,42,0
31.94154,32.05233,66,39,0
32.05233,32.496407,69,48,0
32.610374,32.721127,59,42,0
32.721127,32.83141,62,44,0
32.83141,32.941223,66,41,0
32.941223,33.383125,71,52,0
33.49601,33.607834,55,39,0
33.607834,33.718777,59,42,0
33.718777,33.82885,64,39,0
33.82885,34.272926,67,48,0
34.38701,34.498634,57,42,0
34.498634,34.609104,60,44,0
34.609104,34.71846,64,41,0
34.71846,35.161278,69,52,0
35.280247,35.390625,54,39,0
35.390625,35.501,57,42,0
35.501,35.611374,62,39,0
35.611374,36.05545,66,48,0
36.16974,36.27969,55,42,0
36.27969,36.389645,59,44,0
36.389645,36.4996,62,41,0
36.4996,36.942417,67,52,0
36.942417,37.052372,64,44,0
36.942417,37.052372,60,44,0
37.162323,37.272278,64,39,0
37.162323,37.272278,60,39,0
37.382233,37.492188,64,39,0
37.382233,37.492188,60,39,0
37.602142,37.712097,64,39,0
37.602142,37.712097,60,39,0
37.822052,37.932007,64,44,0
37.822052,37.932007,60,44,0
38.04196,38.151917,64,40,0
38.04196,38.151917,60,40,0
38.26187,38.371822,64,40,0
38.26187,38.371822,60,40,0
38.481777,38.59561,64,41,0
38.481777,38.59561,60,41,0
38.70945,38.818985,64,50,0
38.70945,38.818985,60,50,0
38.928524,39.03806,64,44,0
38.928524,39.03806,60,44,0
39.147594,39.257133,64,44,0
39.147594,39.257133,60,44,0
39.36667,39.476208,64,44,0
39.36667,39.476208,60,44,0
39.585743,39.695282,64,49,0
39.585743,39.695282,60,49,0
39.804817,39.914356,64,46,0
39.804817,39.914356,60,46,0
40.02389,40.13343,64,46,0
40.02389,40.13343,60,46,0
40.242966,40.352505,64,46,0
40.242966,40.352505,60,46,0
40.46634,40.575462,62,50,0
40.575462,40.68458,71,42,0
40.68458,40.793705,67,42,0
40.793705,40.908447,71,42,0
40.908447,41.01757,62,49,0
41.01757,41.126694,71,42,0
41.126694,41.235813,67,42,0
41.235813,41.344936,71,42,0
41.344936,41.45406,62,48,0
41.45406,41.563183,71,42,0
41.563183,41.672306,67,42,0
41.672306,41.78143,71,42,0
41.78143,41.890553,62,49,0
41.890553,41.999676,71,42,0
41.999676,42.108795,67,42,0
42.108795,42.225418,71,42,0
42.225418,42.343285,62,50,0
42.343285,42.45928,72,42,0
42.45928,42.57351,66,42,0
42.57351,42.68603,72,42,0
42.68603,42.79861,62,49,0
42.79861,42.911747,72,42,0
42.911747,43.02397,66,42,0
43.02397,43.135284,72,42,0
43.135284,43.246506,62,48,0
43.246506,43.357723,72,42,0
43.357723,43.46894,66,42,0
43.46894,43.580547,72,42,0
43.580547,43.693344,62,49,0
43.693344,43.807373,72,42,0
43.807373,43.92268,66,42,0
43.92268,44.038795,72,42,0
44.038795,44.50326,71,58,0
44.038795,44.50326,67,49,0
45.42639,45.88736,72,48,0
45.42639,45.88736,69,40,0
45.42639,45.88736,62,40,0
45.88736,46.35183,71,58,0
45.88736,46.35183,67,49,0
47.277264,47.74075,60,48,0
47.277264,47.74075,57,40,0
47.277264,47.74075,50,40,0
47.74075,47.86273,59,52,0
47.74075,47.86273,55,44,0
48.228672,48.350655,55,52,0
48.228672,48.350655,43,44,0
48.716595,49.20452,55,52,0
48.716595,49.20452,43,44,0
49.692444,49.91216,60,40,0
49.91216,50.131878,67,30,0
50.131878,50.351593,64,30,0
50.351593,50.57131,67,30,0
50.57131,50.7879,60,40,0
50.7879,51.00449,67,30,0
51.00449,51.226517,64,30,0
51.226517,51.44854,67,30,0
51.44854,51.670567,62,30,0
51.670567,51.890156,67,29,0
51.890156,52.10853,65,31,0
52.10853,52.3269,67,28,0
52.3269,52.5471,60,40,0
52.5471,52.7673,67,29,0
52.7673,52.9875,64,32,0
52.9875,53.2077,67,29,0
53.2077,53.42429,60,40,0
53.42429,53.64088,69,32,0
53.64088,53.85747,65,32,0
53.85747,54.074062,69,32,0
54.074062,54.288887,60,40,0
54.288887,54.503708,67,32,0
54.503708,54.72118,64,32,0
54.72118,54.93865,67,32,0
54.93865,55.153473,59,40,0
55.153473,55.368294,67,32,0
55.368294,55.58312,62,32,0
55.58312,55.79794,67,32,0
55.79794,56.012764,60,40,0
56.012764,56.227585,67,34,0
56.227585,56.44241,64,34,0
56.44241,56.664562,67,34,0
56.664562,57.103863,65,40,0
57.965572,58.40465,60,40,0
57.965572,58.40465,53,40,0
58.40465,58.84133,60,40,0
58.40465,58.84133,52,40,0
59.704178,60.1465,60,40,0
59.704178,60.1465,52,40,0
60.1465,60.581097,60,40,0
60.1465,60.581097,50,40,0
61.44057,61.882065,59,40,0
61.44057,61.882065,50,40,0
61.882065,62.323338,60,40,0
61.882065,62.323338,48,40,0
63.188644,63.63147,48,40,0
63.188644,63.63147,52,40,0
63.63147,65.38408,57,40,0
63.63147,65.38408,53,40,0
65.38408,66.0274,53,60,0
66.0274,66.246765,55,55,0
66.246765,66.885376,57,60,0
66.885376,67.108185,54,54,0
67.108185,67.21621,43,65,0
67.21621,67.32423,47,56,0
67.32423,67.43174,50,56,0
67.43174,67.53925,55,50,0
67.53925,67.64676,43,65,0
67.64676,67.75427,48,55,0
67.75427,67.863266,52,55,0
67.863266,67.97523,55,50,0
67.97523,68.083244,43,65,0
68.083244,68.19127,47,55,0
68.19127,68.29918,50,55,0
68.29918,68.40708,55,54,0
68.40708,68.514984,43,65,0
68.514984,68.622894,48,57,0
68.622894,68.731995,52,56,0
68.731995,68.843475,55,53,0
68.843475,68.9621,43,65,0
69.31797,69.43893,55,59,0
69.8018,70.28564,43,61,0
70.73922,70.85847,61,42,0
70.847595,70.95585,62,36,0
70.95585,71.07418,61,42,0
71.06339,71.1711,62,36,0
71.1711,71.28964,61,42,0
71.27889,71.38651,62,38,0
71.38651,71.505135,61,42,0
71.49379,71.607185,62,37,0
71.607185,71.725945,60,42,0
71.71511,71.823074,62,36,0
71.823074,71.94141,60,42,0
71.93062,72.03852,62,37,0
72.03852,72.15673,60,42,0
72.1459,72.25418,62,37,0
72.25418,72.373116,60,42,0
72.36169,72.475975,62,38,0
72.475975,72.584694,59,42,0
72.584694,72.69341,62,36,0
72.69341,72.80295,59,42,0
72.80295,72.91248,62,36,0
72.91248,73.022026,59,42,0
73.022026,73.13156,62,32,0
73.13156,73.2411,59,38,0
73.2411,73.35063,62,33,0
73.35063,73.45935,59,39,0
73.45935,73.56808,62,32,0
73.56808,73.67761,59,39,0
73.67761,73.78715,62,34,0
73.78715,73.89668,59,42,0
73.89668,74.00622,62,37,0
74.00622,74.11576,59,42,0
74.11576,74.225296,62,38,0
74.225296,74.33567,60,46,0
74.33567,74.446045,62,38,0
74.446045,74.55642,59,42,0
74.55642,74.666794,62,36,0
74.666794,74.786835,57,39,0
74.77592,74.88504,62,27,0
74.88504,75.00507,59,47,0
74.99416,75.10329,62,35,0
75.10329,75.22332,60,50,0
75.21241,75.32153,62,36,0
75.32153,75.44157,59,44,0
75.43066,75.53978,62,30,0
75.53978,75.66073,60,52,0
75.649734,75.75969,62,31,0
75.75969,75.88149,57,40,0
75.869644,75.98814,62,28,0
75.98814,76.096855,59,42,0
76.096855,76.205574,62,36,0
76.205574,76.31511,59,42,0
76.31511,76.424644,62,36,0
76.424644,76.53419,59,42,0
76.53419,76.64372,62,32,0
76.64372,76.75326,59,38,0
76.75326,76.86279,62,33,0
76.86279,76.97151,59,39,0
76.97151,77.08023,62,32,0
77.08023,77.18977,59,39,0
77.18977,77.29931,62,34,0
77.29931,77.408844,59,42,0
77.408844,77.51838,62,37,0
77.51838,77.62792,59,42,0
77.62792,77.73746,62,38,0
77.73746,77.84783,60,42,0
77.84783,77.958206,62,36,0
77.958206,78.06858,59,42,0
78.06858,78.178955,62,36,0
78.178955,78.299446,57,39,0
78.28849,78.39803,62,29,0
78.39803,78.518524,59,42,0
78.50757,78.6171,62,32,0
78.6171,78.737595,60,48,0
78.72664,78.83618,62,36,0
78.83618,78.95667,59,43,0
78.94572,79.05525,62,30,0
79.05525,79.1762,60,48,0
79.16521,79.27516,62,36,0
79.27516,79.39682,57,43,0
79.38512,79.502174,62,30,0
79.6206,79.732994,59,39,0
79.732994,79.84399,62,42,0
79.84399,79.95396,67,39,0
79.95396,80.40261,71,48,0
80.5169,80.62867,60,42,0
80.62867,80.73943,64,44,0
80.73943,80.84916,67,41,0
80.84916,81.29197,72,52,0
81.41039,81.52284,57,39,0
81.52284,81.63398,60,42,0
81.63398,81.744774,66,39,0
81.744774,82.18885,69,48,0
82.3004,82.411156,59,42,0
82.411156,82.52144,62,44,0
82.52144,82.63125,66,41,0
82.63125,83.074066,71,52,0
83.18911,83.300934,55,39,0
83.300934,83.41188,59,42,0
83.41188,83.52195,64,39,0
83.52195,83.9647,67,48,0
84.07878,84.19041,57,42,0
84.19041,84.30087,60,44,0
84.30087,84.41023,64,41,0
84.41023,84.85305,69,52,0
84.97202,85.0824,54,39,0
85.0824,85.19277,57,42,0
85.19277,85.30315,62,39,0
85.30315,85.74722,66,48,0
85.86151,85.971466,55,42,0
85.971466,86.08142,59,44,0
86.08142,86.191376,62,41,0
86.191376,86.634186,67,52,0
86.634186,86.74414,60,44,0
86.634186,86.74414,64,44,0
86.854095,86.96405,60,39,0
86.854095,86.96405,64,39,0
87.074005,87.18396,60,39,0
87.074005,87.18396,64,39,0
87.293915,87.40387,64,39,0
87.293915,87.40387,60,39,0
87.513824,87.62378,64,44,0
87.513824,87.62378,60,44,0
87.733734,87.84369,64,40,0
87.733734,87.84369,60,40,0
87.95364,88.0636,60,40,0
87.95364,88.0636,64,40,0
88.17355,88.287384,64,41,0
88.17355,88.287384,60,41,0
88.40122,88.51076,60,50,0
88.40122,88.51076,64,50,0
88.62029,88.729836,60,44,0
88.62029,88.729836,64,44,0
88.83937,88.948906,60,44,0
88.83937,88.948906,64,44,0
89.05844,89.167984,64,44,0
89.05844,89.167984,60,44,0
89.27752,89.387054,64,49,0
89.27752,89.387054,60,49,0
89.49659,89.60613,60,46,0
89.49659,89.60613,64,46,0
89.71567,89.8252,64,46,0
89.71567,89.8252,60,46,0
89.93474,90.04427,64,46,0
89.93474,90.04427,60,46,0
90.15811,90.267235,62,50,0
90.267235,90.37636,71,42,0
90.37636,90.48548,67,42,0
90.48548,90.60022,71,42,0
90.60022,90.70934,62,49,0
90.70934,90.81847,71,42,0
90.81847,90.92759,67,42,0
90.92759,91.03671,71,42,0
91.03671,91.145836,62,48,0
91.145836,91.25496,71,42,0
91.25496,91.36408,67,42,0
91.36408,91.473206,71,42,0
91.473206,91.58232,62,49,0
91.58232,91.691444,71,42,0
91.691444,91.80057,67,42,0
91.80057,91.91719,71,42,0
91.91719,92.03506,62,50,0
92.03506,92.15105,72,42,0
92.15105,92.26528,66,42,0
92.26528,92.3778,72,42,0
92.3778,92.49038,62,49,0
92.49038,92.60352,72,42,0
92.60352,92.715744,66,42,0
92.715744,92.82706,72,42,0
92.82706,92.93828,62,48,0
92.93828,93.0495,72,42,0
93.0495,93.16071,66,42,0
93.16071,93.27232,72,42,0
93.27232,93.38512,62,49,0
93.38512,93.499146,72,42,0
93.499146,93.61445,66,42,0
93.61445,93.73057,72,42,0
93.73057,94.19504,67,49,0
93.73057,94.19504,71,58,0
95.118164,95.57913,62,40,0
95.118164,95.57913,72,48,0
95.118164,95.57913,69,40,0
95.57913,96.0436,71,58,0
95.57913,96.0436,67,49,0
96.96904,97.432526,50,40,0
96.96904,97.432526,60,48,0
96.96904,97.432526,57,40,0
97.432526,97.554504,59,52,0
97.432526,97.554504,55,44,0
97.92045,98.04243,55,52,0
97.92045,98.04243,43,44,0
98.40837,98.89629,55,52,0
98.40837,98.89629,43,44,0
99.38422,99.846825,43,49,0
99.38422,99.846825,55,58,0
100.76458,101.22555,62,40,0
100.76458,101.22555,72,48,0
100.76458,101.22555,69,40,0
101.22555,101.688156,70,58,0
101.22555,101.688156,67,49,0
102.609505,103.07299,50,40,0
102.609505,103.07299,60,48,0
102.609505,103.07299,57,40,0
103.208,103.33272,43,49,0
103.32138,103.4461,45,51,0
103.43476,103.56012,46,52,0
103.548645,103.67542,48,54,0
103.66386,103.79192,50,56,0
103.78022,103.90956,52,58,0
103.89776,104.02994,54,60,0
104.0165,104.493706,55,61,0
105.08866,105.214355,45,53,0
105.20293,105.32862,47,55,0
105.31719,105.443085,49,57,0
105.431564,105.55856,50,60,0
105.547,105.67497,52,62,0
105.66331,105.79232,54,64,0
105.78056,105.911674,56,66,0
105.89877,106.37197,57,68,0
106.83892,107.30153,38,71,0
106.83892,107.30153,50,71,0
108.21785,108.676125,57,44,0
108.21785,108.676125,67,52,0
108.21785,108.676125,64,44,0
108.676125,109.13391,62,53,0
108.676125,109.138725,65,63,0
110.060074,110.52086,45,40,0
110.060074,110.52086,55,48,0
110.060074,110.52086,52,40,0
110.52086,110.99411,53,62,0
110.52086,110.99411,50,62,0
111.59267,111.71888,62,53,0
111.707405,111.833626,65,63,0
111.82215,111.948364,64,61,0
111.93689,112.06348,62,59,0
112.05191,112.1797,60,56,0
112.16804,112.29714,59,54,0
112.28534,112.41722,57,52,0
112.40384,112.88452,56,57,0
113.48076,113.60697,56,52,0
113.5955,113.72171,59,61,0
113.710236,113.83646,57,59,0
113.82498,113.95157,56,57,0
113.94,114.06779,53,55,0
114.05613,114.185234,52,53,0
114.17343,114.305435,50,50,0
114.29193,114.77385,48,57,0
115.37546,115.50167,62,58,0
115.4902,115.61641,69,66,0
115.604935,115.73115,67,64,0
115.71967,115.84626,65,62,0
115.834694,115.96249,64,61,0
115.95082,116.07993,62,59,0
116.06813,116.19953,60,58,0
116.18663,116.66257,59,68,0
117.26417,117.39038,60,50,0
117.37891,117.50512,67,58,0
117.49365,117.619865,65,56,0
117.60839,117.73498,64,55,0
117.72341,117.8512,62,53,0
117.83954,117.96864,60,51,0
117.95684,118.08825,59,49,0
118.07534,118.55128,57,57,0
119.14752,119.273735,59,50,0
119.26226,119.38847,65,56,0
119.377,119.50321,64,54,0
119.49174,119.618324,62,53,0
119.60676,119.73455,60,51,0
119.722885,119.852,59,49,0
119.840195,119.97219,57,48,0
119.958694,120.44061,56,54,0
121.03685,121.16306,57,44,0
121.15159,121.2778,60,52,0
121.26633,121.39255,59,50,0
121.38107,121.50766,57,48,0
121.49609,121.62388,55,46,0
121.61222,121.741325,53,45,0
121.72952,121.861465,52,43,0
121.84802,122.79653,50,51,0
122.79653,123.757774,58,57,0
122.79653,123.757774,55,46,0
122.79653,123.757774,48,46,0
123.757774,123.977486,65,40,0
123.977486,124.197205,72,30,0
124.197205,124.41692,69,30,0
124.41692,124.636635,72,30,0
124.636635,124.853226,65,40,0
124.853226,125.06982,72,30,0
125.06982,125.29185,69,30,0
125.29185,125.51387,72,30,0
125.51387,125.73589,67,30,0
125.73589,125.95548,72,29,0
125.95548,126.17386,70,31,0
126.17386,126.39223,72,28,0
126.39223,126.61243,65,40,0
126.61243,126.83263,72,29,0
126.83263,127.052826,69,32,0
127.052826,127.273026,72,29,0
127.273026,127.48962,65,40,0
127.48962,127.70621,74,32,0
127.70621,127.9228,70,32,0
127.9228,128.13939,74,32,0
128.13939,128.35422,65,40,0
128.35422,128.56903,72,32,0
128.56903,128.78651,69,32,0
128.78651,129.00398,72,32,0
129.00398,129.2188,64,40,0
129.2188,129.43362,72,32,0
129.43362,129.64845,67,32,0
129.64845,129.86327,72,32,0
129.86327,130.0781,65,40,0
130.0781,130.29291,72,34,0
130.29291,130.50774,69,34,0
130.50774,130.72989,72,34,0
130.72989,131.16919,70,40,0
132.0309,132.46999,65,40,0
132.0309,132.46999,58,40,0
132.46999,132.90666,65,40,0
132.46999,132.90666,57,40,0
133.7695,134.21182,65,40,0
133.7695,134.21182,57,40,0
134.21182,134.64642,65,40,0
134.21182,134.64642,55,40,0
135.5059,135.94739,64,40,0
135.5059,135.94739,55,40,0
135.94739,136.38867,65,40,0
135.94739,136.38867,53,40,0
137.7037,137.9243,53,48,0
137.9243,138.0448,55,42,0
138.03389,138.15387,57,42,0
138.143,138.26248,58,43,0
138.25165,138.37062,60,45,0
138.35983,138.4783,62,46,0
138.46756,138.5855,64,47,0
138.57484,138.69217,65,49,0
138.68147,138.79936,64,48,0
138.78862,138.90718,62,48,0
138.89636,139.01558,60,47,0
139.00471,139.1246,58,46,0
139.11368,139.23416,57,45,0
139.22319,139.34444,55,43,0
139.33339,139.45476,53,42,0
139.44379,139.66275,52,48,0
139.66275,139.78261,53,42,0
139.77174,139.8913,55,42,0
139.88048,139.9996,57,43,0
139.98877,140.10753,59,45,0
140.09674,140.21521,60,46,0
140.20447,140.32227,62,47,0
140.31161,140.42921,64,49,0
140.41847,140.53683,62,48,0
140.52606,140.64517,60,48,0
140.6343,140.75429,59,47,0
140.74332,140.86414,57,46,0
140.85312,140.97469,55,45,0
140.9636,141.08603,53,43,0
141.07489,141.19656,52,42,0
141.18564,141.40361,50,48,0
141.40361,141.52292,52,42,0
141.51208,141.63103,53,42,0
141.62024,141.73888,55,43,0
141.72809,141.8463,57,45,0
141.83556,141.9534,59,46,0
141.9427,142.05988,60,47,0
142.04927,142.16653,62,49,0
142.15584,142.2738,60,48,0
142.26305,142.38182,59,48,0
142.37099,142.49063,57,47,0
142.4797,142.6001,55,46,0
142.58913,142.71034,53,45,0
142.6993,142.82129,52,43,0
142.8102,142.93231,50,42,0
142.9212,143.14282,48,48,0
143.14282,143.26387,50,42,0
143.25291,143.3734,52,42,0
143.36247,143.48238,53,43,0
143.4715,143.5909,55,45,0
143.58006,143.69887,57,46,0
143.6881,143.80635,59,47,0
143.79565,143.91347,60,49,0
143.90273,144.02116,59,48,0
144.01038,144.12964,57,48,0
144.11876,144.23875,55,47,0
144.22778,144.3486,53,46,0
144.33759,144.45915,52,45,0
144.44806,144.57042,50,43,0
144.55928,144.68167,48,42,0
144.67061,146.42322,57,38,0
144.67061,146.42322,53,38,0
146.42322,147.06654,53,60,0
147.06654,147.2859,55,55,0
147.2859,147.92451,57,60,0
147.92451,148.14732,54,54,0
148.14732,148.25534,43,65,0
148.25534,148.36337,47,56,0
148.36337,148.47089,50,56,0
148.47089,148.57838,55,50,0
148.57838,148.6859,43,65,0
148.6859,148.79341,48,55,0
148.79341,148.9024,52,55,0
148.9024,149.01436,55,50,0
149.01436,149.12239,43,65,0
149.12239,149.23041,47,55,0
149.23041,149.33832,50,55,0
149.33832,149.44623,55,54,0
149.44623,149.55412,43,65,0
149.55412,149.66203,48,57,0
149.66203,149.77113,52,56,0
149.77113,149.88261,55,53,0
149.88261,150.00124,43,65,0
150.35712,150.47807,55,59,0
150.84094,151.32477,43,61,0
151.77835,151.89761,66,42,0
151.88673,151.99498,67,36,0
151.99498,152.11333,66,42,0
152.10252,152.21024,67,36,0
152.21024,152.32878,66,42,0
152.31802,152.42566,67,38,0
152.42566,152.54427,66,42,0
152.53293,152.64633,67,37,0
152.64633,152.76508,65,42,0
152.75426,152.86221,67,36,0
152.86221,152.98055,65,42,0
152.96976,153.07767,67,37,0
153.07767,153.19588,65,42,0
153.18504,153.29332,67,37,0
153.29332,153.41226,65,42,0
153.40083,153.51512,67,38,0
153.51512,153.62384,64,42,0
153.62384,153.73256,67,36,0
153.73256,153.84209,64,42,0
153.84209,153.95163,67,36,0
153.95163,154.06116,64,42,0
154.06116,154.1707,67,32,0
154.1707,154.28024,64,38,0
154.28024,154.38977,67,33,0
154.38977,154.49849,64,39,0
154.49849,154.60721,67,32,0
154.60721,154.71675,64,39,0
154.71675,154.8263,67,34,0
154.8263,154.93582,64,42,0
154.93582,155.04536,67,37,0
155.04536,155.15489,64,42,0
155.15489,155.26443,67,38,0
155.26443,155.37482,65,46,0
155.37482,155.48518,67,38,0
155.48518,155.59557,64,42,0
155.59557,155.70593,67,36,0
155.70593,155.82597,62,39,0
155.81506,155.92418,67,27,0
155.92418,156.04422,64,47,0
156.03331,156.14243,67,35,0
156.14243,156.26247,65,50,0
156.25156,156.36067,67,36,0
156.36067,156.48071,64,44,0
156.4698,156.57892,67,30,0
156.57892,156.69987,65,52,0
156.68887,156.79883,67,31,0
156.79883,156.92062,62,40,0
156.90878,157.02727,67,28,0
157.02727,157.136,64,42,0
157.136,157.24472,67,36,0
157.24472,157.35425,64,42,0
157.35425,157.46379,67,36,0
157.46379,157.57332,64,42,0
157.57332,157.68286,67,32,0
157.68286,157.7924,64,38,0
157.7924,157.90193,67,33,0
157.90193,158.01065,64,39,0
158.01065,158.11937,67,32,0
158.11937,158.22891,64,39,0
158.22891,158.33846,67,34,0
158.33846,158.44798,64,42,0
158.44798,158.55753,67,37,0
158.55753,158.66705,64,42,0
158.66705,158.7766,67,38,0
158.7766,158.88698,65,42,0
158.88698,158.99734,67,36,0
158.99734,159.10773,64,42,0
159.10773,159.2181,67,36,0
159.2181,159.3386,62,39,0
159.32764,159.43716,67,29,0
159.43716,159.55766,64,42,0
159.5467,159.65625,67,32,0
159.65625,159.77673,65,48,0
159.76578,159.87532,67,36,0
159.87532,159.9958,64,43,0
159.98486,160.09439,67,30,0
160.09439,160.21535,65,48,0
160.20435,160.3143,67,36,0
160.3143,160.43596,62,43,0
160.42426,160.54132,67,30,0
160.65973,160.77213,52,37,0
160.77213,160.88313,55,39,0
160.88313,160.9931,60,37,0
160.9931,161.44176,64,45,0
161.55603,161.6678,53,39,0
161.6678,161.77858,57,41,0
161.77858,161.88829,60,38,0
161.88829,162.33112,65,49,0
162.44954,162.56198,50,37,0
162.56198,162.67313,53,39,0
162.67313,162.78392,59,37,0
162.78392,163.22423,62,45,0
163.3382,163.44894,52,39,0
163.44894,163.55923,55,41,0
163.55923,163.67628,59,38,0
163.67628,164.11911,64,49,0
164.23808,164.3499,60,39,0
164.3499,164.46085,64,42,0
164.46085,164.5709,69,39,0
164.5709,165.015,72,48,0
165.12907,165.2407,62,42,0
165.2407,165.35117,65,44,0
165.35117,165.46053,69,41,0
165.46053,165.90118,74,52,0
166.01547,166.12585,59,39,0
166.12585,166.23622,62,42,0
166.23622,166.3466,67,39,0
166.3466,166.78908,71,48,0
166.90337,167.01332,60,42,0
167.01332,167.12328,64,44,0
167.12328,167.23323,67,41,0
167.23323,167.67604,72,52,0
167.89595,168.0059,65,39,0
167.89595,168.0059,69,39,0
168.11586,168.22581,65,39,0
168.11586,168.22581,69,39,0
168.33577,168.44572,69,39,0
168.33577,168.44572,65,39,0
168.55568,168.66563,65,44,0
168.55568,168.66563,69,44,0
168.77559,168.88554,69,40,0
168.77559,168.88554,65,40,0
168.9955,169.10545,69,40,0
168.9955,169.10545,65,40,0
169.21541,169.32924,69,41,0
169.21541,169.32924,65,41,0
169.663,169.77295,60,40,0
169.663,169.77295,63,40,0
169.663,169.77295,54,40,0
169.8829,169.99286,60,41,0
169.8829,169.99286,63,41,0
169.8829,169.99286,54,41,0
170.10281,170.21277,63,41,0
170.10281,170.21277,60,41,0
170.10281,170.21277,54,41,0
170.32272,170.43268,63,47,0
170.32272,170.43268,60,47,0
170.32272,170.43268,54,47,0
170.54263,170.65257,63,43,0
170.54263,170.65257,60,43,0
170.54263,170.65257,54,43,0
170.76253,170.87248,63,43,0
170.76253,170.87248,60,43,0
170.76253,170.87248,54,43,0
170.98244,171.09628,60,44,0
170.98244,171.09628,63,44,0
170.98244,171.09628,54,44,0
171.21011,171.32394,55,54,0
171.32394,171.43779,64,42,0
171.43779,171.55162,60,42,0
171.55162,171.66635,64,42,0
171.66635,171.77548,55,56,0
171.77548,171.8846,64,44,0
171.8846,171.99373,60,42,0
171.99373,172.10284,64,42,0
172.10284,172.21198,55,48,0
172.21198,172.32109,64,42,0
172.32109,172.43022,60,42,0
172.43022,172.53934,64,42,0
172.53934,172.64847,55,49,0
172.64847,172.75758,64,42,0
172.75758,172.86671,60,42,0
172.86671,172.98332,64,42,0
172.98332,173.1012,55,50,0
173.1012,173.2172,65,42,0
173.2172,173.33142,59,42,0
173.33142,173.44394,65,42,0
173.44394,173.55652,55,49,0
173.55652,173.66966,65,42,0
173.66966,173.78188,59,42,0
173.78188,173.8932,65,42,0
173.8932,174.00441,55,48,0
174.00441,174.11563,65,42,0
174.11563,174.22685,59,42,0
174.22685,174.33846,65,42,0
174.33846,174.45125,55,49,0
174.45125,174.56529,65,42,0
174.56529,174.68059,59,42,0
174.68059,174.7967,65,42,0
174.7967,175.26117,60,49,0
174.7967,175.26117,64,58,0
176.18431,176.64528,62,40,0
176.18431,176.64528,65,48,0
176.18431,176.64528,55,40,0
176.64528,177.10974,60,49,0
176.64528,177.10974,64,58,0
178.03517,178.49866,53,48,0
178.03517,178.49866,50,40,0
178.03517,178.49866,43,40,0
178.49866,178.62064,48,44,0
178.49866,178.62064,52,52,0
178.98659,179.10857,60,59,0
179.4745,179.96243,36,44,0
179.4745,179.96243,48,55,0
180.45035,180.91296,43,49,0
180.45035,180.91296,55,58,0
181.83072,182.29169,62,40,0
181.83072,182.29169,72,48,0
181.83072,182.29169,69,40,0
182.29169,182.75429,70,58,0
182.29169,182.75429,67,49,0
183.67564,184.13913,50,40,0
183.67564,184.13913,60,48,0
183.67564,184.13913,57,40,0
184.27414,184.39885,43,49,0
184.38751,184.51224,45,51,0
184.5009,184.62627,46,52,0
184.61479,184.74156,48,54,0
184.73,184.85806,50,56,0
184.84636,184.9757,52,58,0
184.9639,185.09608,54,60,0
185.08264,185.55984,55,61,0
186.1548,186.28049,45,53,0
186.26906,186.39476,47,55,0
186.38333,186.50922,49,57,0
186.4977,186.6247,50,60,0
186.61313,186.7411,52,62,0
186.72945,186.85846,54,64,0
186.8467,186.97781,56,66,0
186.9649,187.43811,57,68,0
187.90506,188.36766,38,71,0
187.90506,188.36766,50,71,0
189.284,189.74226,57,44,0
189.284,189.74226,67,52,0
189.284,189.74226,64,44,0
189.74226,190.20198,62,53,0
189.74226,190.20486,65,63,0
191.12622,191.587,45,40,0
191.12622,191.587,55,48,0
191.12622,191.587,52,40,0
191.587,192.06026,53,62,0
191.587,192.06026,50,62,0
192.6588,192.78502,62,53,0
192.77354,192.89977,65,63,0
192.88829,193.0145,64,61,0
193.00302,193.12961,62,59,0
193.11804,193.24583,60,56,0
193.23418,193.36328,59,54,0
193.35149,193.48335,57,52,0
193.46999,193.95065,56,57,0
194.54689,194.67311,56,52,0
194.66164,194.78786,59,61,0
194.77638,194.90259,57,59,0
194.89111,195.0177,56,57,0
195.00613,195.13393,53,55,0
195.12227,195.25137,52,53,0
195.23958,195.37157,50,50,0
195.35808,195.84,48,57,0
196.44159,196.56781,62,58,0
196.55634,196.68254,69,66,0
196.67107,196.79729,67,64,0
196.78581,196.9124,65,62,0
196.90083,197.02863,64,61,0
197.01697,197.14607,62,59,0
197.13426,197.26567,60,58,0
197.25276,197.7287,59,68,0
198.3303,198.45651,60,50,0
198.44505,198.57126,67,58,0
198.55978,198.686,65,56,0
198.67453,198.80112,64,55,0
198.78955,198.91734,62,53,0
198.90567,199.03477,60,51,0
199.02298,199.15439,59,49,0
199.14148,199.61742,57,57,0
200.21365,200.33987,59,50,0
200.3284,200.4546,65,56,0
200.44313,200.56935,64,54,0
200.55788,200.68446,62,53,0
200.6729,200.80069,60,51,0
200.78903,200.91814,59,49,0
200.90633,201.03833,57,48,0
201.02483,201.50674,56,54,0
202.10298,202.2292,57,44,0
202.21773,202.34395,60,52,0
202.33247,202.45868,59,50,0
202.4472,202.57379,57,48,0
202.56223,202.69002,55,46,0
202.67836,202.80746,53,45,0
202.79565,202.9276,52,43,0
202.91415,203.86267,50,51,0
203.86267,204.82391,58,57,0
203.86267,204.82391,55,46,0
203.86267,204.82391,48,46,0
204.82391,205.04362,65,40,0
205.04362,205.26334,72,30,0
205.26334,205.48306,69,30,0
205.48306,205.70277,72,30,0
205.70277,205.91937,65,40,0
205.91937,206.13596,72,30,0
206.13596,206.35799,69,30,0
206.35799,206.58,72,30,0
206.58,206.80203,67,30,0
206.80203,207.02162,72,29,0
207.02162,207.23999,70,31,0
207.23999,207.45837,72,28,0
207.45837,207.67856,65,40,0
207.67856,207.89876,72,29,0
207.89876,208.11896,69,32,0
208.11896,208.33916,72,29,0
208.33916,208.55576,65,40,0
208.55576,208.77234,74,32,0
208.77234,208.98894,70,32,0
208.98894,209.20554,74,32,0
209.20554,209.42035,65,40,0
209.42035,209.63518,72,32,0
209.63518,209.85265,69,32,0
209.85265,210.07011,72,32,0
210.07011,210.28494,64,40,0
210.28494,210.49976,72,32,0
210.49976,210.71458,67,32,0
210.71458,210.92941,72,32,0
210.92941,211.14423,65,40,0
211.14423,211.35905,72,34,0
211.35905,211.57387,69,34,0
211.57387,211.79604,72,34,0
211.79604,212.23532,70,40,0
213.09705,213.53612,65,40,0
213.09705,213.53612,58,40,0
213.53612,213.9728,65,40,0
213.53612,213.9728,57,40,0
214.83565,215.27797,65,40,0
214.83565,215.27797,57,40,0
215.27797,215.71257,65,40,0
215.27797,215.71257,55,40,0
216.57204,217.01353,64,40,0
216.57204,217.01353,55,40,0
217.01353,217.4548,65,40,0
217.01353,217.4548,53,40,0
218.76984,218.99043,53,48,0
218.99043,219.11095,55,42,0
219.10002,219.22002,57,42,0
219.20914,219.32861,58,43,0
219.31778,219.43677,60,45,0
219.42598,219.54445,62,46,0
219.5337,219.65163,64,47,0
219.64098,219.7583,65,49,0
219.7476,219.8655,64,48,0
219.85475,219.97331,62,48,0
219.96251,220.08173,60,47,0
220.07085,220.19073,58,46,0
220.17982,220.30031,57,45,0
220.28934,220.41058,55,43,0
220.39952,220.52089,53,42,0
220.50993,220.72888,52,48,0
220.72888,220.84875,53,42,0
220.83788,220.95744,55,42,0
220.94661,221.06573,57,43,0
221.0549,221.17366,59,45,0
221.16289,221.28136,60,46,0
221.27061,221.3884,62,47,0
221.37775,221.49535,64,49,0
221.4846,221.60298,62,48,0
221.5922,221.7113,60,48,0
221.70044,221.82042,59,47,0
221.80946,221.93027,57,46,0
221.91927,222.04083,55,45,0
222.02972,222.15218,53,43,0
222.14102,222.2627,52,42,0
222.25177,222.46976,50,48,0
222.46976,222.58905,52,42,0
222.57822,222.69716,53,42,0
222.68637,222.80501,55,43,0
222.79422,222.91243,57,45,0
222.90169,223.01953,59,46,0
223.00883,223.12602,60,47,0
223.1154,223.23267,62,49,0
223.22197,223.33994,60,48,0
223.3292,223.44797,59,48,0
223.43713,223.55676,57,47,0
223.54585,223.66623,55,46,0
223.65527,223.77649,53,45,0
223.76543,223.88744,52,43,0
223.87633,223.99844,50,42,0
223.98734,224.20897,48,48,0
224.20897,224.33002,50,42,0
224.31905,224.43953,52,42,0
224.42862,224.54851,53,43,0
224.53764,224.65703,55,45,0
224.6462,224.76501,57,46,0
224.75423,224.8725,59,47,0
224.8618,224.9796,60,49,0
224.96886,225.08731,59,48,0
225.07652,225.19577,57,48,0
225.1849,225.30489,55,47,0
225.29393,225.41473,53,46,0
225.40373,225.5253,52,45,0
225.51419,225.63657,50,43,0
225.62541,225.7478,48,42,0
225.73676,227.48936,57,38,0
225.73676,227.48936,53,38,0
227.48936,228.13268,53,60,0
228.13268,228.35204,55,55,0
228.35204,228.99066,57,60,0
228.99066,229.21346,54,54,0
229.21346,229.32149,43,65,0
229.32149,229.4295,47,56,0
229.4295,229.53702,50,56,0
229.53702,229.64453,55,50,0
229.64453,229.75204,43,65,0
229.75204,229.85956,48,55,0
229.85956,229.96855,52,55,0
229.96855,230.0805,55,50,0
230.0805,230.18852,43,65,0
230.18852,230.29655,47,55,0
230.29655,230.40445,50,55,0
230.40445,230.51236,55,54,0
230.51236,230.62027,43,65,0
230.62027,230.72816,48,57,0
230.72816,230.83727,52,56,0
230.83727,230.94875,55,53,0
230.94875,231.06738,43,65,0
231.42325,231.5442,55,59,0
231.90707,232.39091,43,61,0
232.8445,232.96375,66,42,0
232.95288,233.06113,67,36,0
233.06113,233.17946,66,42,0
233.16867,233.27638,67,36,0
233.27638,233.39491,66,42,0
233.38417,233.49179,67,38,0
233.49179,233.61041,66,42,0
233.59908,233.71246,67,37,0
233.71246,233.83122,65,42,0
233.82039,233.92834,67,36,0
233.92834,234.04668,65,42,0
234.03589,234.1438,67,37,0
234.1438,234.26201,65,42,0
234.25117,234.35945,67,37,0
234.35945,234.4784,65,42,0
234.46696,234.58125,67,38,0
234.58125,234.68997,64,42,0
234.68997,234.79869,67,36,0
234.79869,234.90823,64,42,0
234.90823,235.01776,67,36,0
235.01776,235.1273,64,42,0
235.1273,235.23683,67,32,0
235.23683,235.34637,64,38,0
235.34637,235.45592,67,33,0
235.45592,235.56464,64,39,0
235.56464,235.67336,67,32,0
235.67336,235.78288,64,39,0
235.78288,235.89243,67,34,0
235.89243,236.00197,64,42,0
236.00197,236.1115,67,37,0
236.1115,236.22104,64,42,0
236.22104,236.33057,67,38,0
236.33057,236.44095,65,46,0
236.44095,236.55133,67,38,0
236.55133,236.6617,64,42,0
236.6617,236.77208,67,36,0
236.77208,236.8921,62,39,0
236.8812,236.99033,67,27,0
236.99033,237.11035,64,47,0
237.09944,237.20857,67,35,0
237.20857,237.3286,65,50,0
237.31769,237.4268,67,36,0
237.4268,237.54684,64,44,0
237.53593,237.64505,67,30,0
237.64505,237.766,65,52,0
237.755,237.86496,67,31,0
237.86496,237.98677,62,40,0
237.97491,238.09341,67,28,0
238.09341,238.20213,64,42,0
238.20213,238.31085,67,36,0
238.31085,238.4204,64,42,0
238.4204,238.52992,67,36,0
238.52992,238.63947,64,42,0
238.63947,238.749,67,32,0
238.749,238.85854,64,38,0
238.85854,238.96808,67,33,0
238.96808,239.0768,64,39,0
239.0768,239.18552,67,32,0
239.18552,239.29504,64,39,0
239.29504,239.40459,67,34,0
239.40459,239.51413,64,42,0
239.51413,239.62366,67,37,0
239.62366,239.7332,64,42,0
239.7332,239.84273,67,38,0
239.84273,239.95311,65,42,0
239.95311,240.06348,67,36,0
240.06348,240.17386,64,42,0
240.17386,240.28424,67,36,0
240.28424,240.40472,62,39,0
240.39377,240.50331,67,29,0
240.50331,240.6238,64,42,0
240.61284,240.72238,67,32,0
240.72238,240.84288,65,48,0
240.83192,240.94145,67,36,0
240.94145,241.06195,64,43,0
241.051,241.16054,67,30,0
241.16054,241.28148,65,48,0
241.27048,241.38043,67,36,0
241.38043,241.5021,62,43,0
241.49039,241.60745,67,30,0
241.72588,241.83827,52,37,0
241.83827,241.94926,55,39,0
241.94926,242.05923,60,37,0
242.05923,242.50789,64,45,0
242.62218,242.73395,53,39,0
242.73395,242.84471,57,41,0
242.84471,242.95444,60,38,0
242.95444,243.39725,65,49,0
243.51567,243.62811,50,37,0
243.62811,243.73926,53,39,0
243.73926,243.85005,59,37,0
243.85005,244.28802,62,45,0
244.402,244.51276,52,39,0
244.51276,244.62303,55,41,0
244.62303,244.7401,59,38,0
244.7401,245.1829,64,49,0
245.30188,245.4137,60,39,0
245.4137,245.52464,64,42,0
245.52464,245.63472,69,39,0
245.63472,246.0788,72,48,0
246.19289,246.3045,62,42,0
246.3045,246.41498,65,44,0
246.41498,246.52434,69,41,0
246.52434,246.96715,74,52,0
247.08144,247.1918,59,39,0
247.1918,247.30219,62,42,0
247.30219,247.41255,67,39,0
247.41255,247.85504,71,48,0
247.96933,248.07928,60,42,0
248.07928,248.18924,64,44,0
248.18924,248.2992,67,41,0
248.2992,248.742,72,52,0
248.96191,249.07187,65,39,0
248.96191,249.07187,69,39,0
249.18182,249.29178,65,39,0
249.18182,249.29178,69,39,0
249.40173,249.51169,69,39,0
249.40173,249.51169,65,39,0
249.62164,249.7316,65,44,0
249.62164,249.7316,69,44,0
249.84155,249.9515,69,40,0
249.84155,249.9515,65,40,0
250.06146,250.17142,69,40,0
250.06146,250.17142,65,40,0
250.28137,250.3952,69,41,0
250.28137,250.3952,65,41,0
250.72894,250.8389,60,40,0
250.72894,250.8389,63,40,0
250.72894,250.8389,54,40,0
250.94885,251.0588,60,41,0
250.94885,251.0588,63,41,0
250.94885,251.0588,54,41,0
251.16876,251.27872,63,41,0
251.16876,251.27872,60,41,0
251.16876,251.27872,54,41,0
251.38867,251.49863,63,47,0
251.38867,251.49863,60,47,0
251.38867,251.49863,54,47,0
251.60858,251.71854,63,43,0
251.60858,251.71854,60,43,0
251.60858,251.71854,54,43,0
251.82849,251.93845,63,43,0
251.82849,251.93845,60,43,0
251.82849,251.93845,54,43,0
252.0484,252.16223,60,44,0
252.0484,252.16223,63,44,0
252.0484,252.16223,54,44,0
252.27606,252.38991,55,54,0
252.38991,252.50374,64,42,0
252.50374,252.61757,60,42,0
252.61757,252.73232,64,42,0
252.73232,252.84143,55,56,0
252.84143,252.95056,64,44,0
252.95056,253.05968,60,42,0
253.05968,253.16881,64,42,0
253.16881,253.27792,55,48,0
253.27792,253.38705,64,42,0
253.38705,253.49617,60,42,0
253.49617,253.6053,64,42,0
253.6053,253.71442,55,49,0
253.71442,253.82355,64,42,0
253.82355,253.93266,60,42,0
253.93266,254.04929,64,42,0
254.04929,254.16714,55,50,0
254.16714,254.28314,65,42,0
254.28314,254.39737,59,42,0
254.39737,254.5099,65,42,0
254.5099,254.62248,55,49,0
254.62248,254.73561,65,42,0
254.73561,254.84784,59,42,0
254.84784,254.95915,65,42,0
254.95915,255.07037,55,48,0
255.07037,255.1816,65,42,0
255.1816,255.2928,59,42,0
255.2928,255.40442,65,42,0
255.40442,255.51721,55,49,0
255.51721,255.63124,65,42,0
255.63124,255.74655,59,42,0
255.74655,255.86266,65,42,0
255.86266,256.32712,60,49,0
255.86266,256.32712,64,58,0
257.25027,257.71124,62,40,0
257.25027,257.71124,65,48,0
257.25027,257.71124,55,40,0
257.71124,258.1757,60,49,0
257.71124,258.1757,64,58,0
259.10114,259.5646,53,48,0
259.10114,259.5646,50,40,0
259.10114,259.5646,43,40,0
259.5646,259.69733,48,44,0
259.5646,259.69733,52,52,0
260.0954,260.22522,60,59,0
260.61472,261.134,36,44,0
260.61472,261.134,48,58,0
