start_time,end_time,note_value,velocity,instrument_program_number
1.487733,1.588743,72,33,0
1.588743,1.689753,74,34,0
1.689753,1.790763,76,41,0
1.790763,1.891773,72,34,0
1.891773,2.0648499,69,34,0
2.2296848,2.331036,76,35,0
2.331036,2.432046,72,35,0
2.432046,2.533056,69,35,0
2.533056,2.634066,77,41,0
2.634066,2.735076,74,35,0
2.735076,2.9074898,69,35,0
3.0721037,3.1792464,77,35,0
3.1792464,3.2809415,74,35,0
3.2809415,3.3826365,69,35,0
3.3826365,3.4843316,74,41,0
3.4843316,3.5860264,71,36,0
3.5860264,3.7591033,68,36,0
3.9239383,4.0256333,74,36,0
4.0256333,4.1273284,71,36,0
4.1273284,4.2290235,68,36,0
4.2290235,4.330718,76,41,0
4.330718,4.432413,72,35,0
4.432413,4.604169,69,35,0
4.7685633,4.870604,71,38,0
4.870604,4.972645,72,38,0
4.972645,5.0746856,74,38,0
5.0746856,5.1767263,76,45,0
5.1767263,5.278767,72,37,0
5.278767,5.451181,69,38,0
5.615795,5.718184,76,44,0
5.718184,5.820573,72,42,0
5.820573,5.922962,69,42,0
5.922962,6.025351,77,46,0
6.025351,6.12774,74,43,0
6.12774,6.2994957,69,43,0
6.46389,6.565931,77,46,0
6.565931,6.6679716,74,46,0
6.6679716,6.7700124,69,46,0
6.7700124,6.872053,74,52,0
6.872053,6.974094,71,47,0
6.974094,7.1458497,68,47,0
7.310244,7.411939,74,48,0
7.411939,7.513634,71,48,0
7.513634,7.6153293,68,48,0
7.6153293,7.7264404,76,56,0
7.7264404,7.837551,72,52,0
7.837551,8.002993,69,52,0
8.165282,8.266977,74,55,0
8.266977,8.368672,71,55,0
8.368672,8.470367,68,55,0
8.470367,8.580661,76,64,0
8.580661,8.690955,72,55,0
8.690955,8.856396,69,55,0
9.01571,9.117405,74,58,0
9.117405,9.2191,71,58,0
9.2191,9.320795,68,58,0
9.320795,9.430685,76,69,0
9.430685,9.540575,72,57,0
9.540575,9.70541,69,58,0
9.863803,9.964813,74,64,0
9.964813,10.065823,71,65,0
10.065823,10.166833,68,65,0
10.166833,10.2684145,76,71,0
10.2684145,10.370921,72,65,0
10.370921,10.474848,69,64,0
10.474848,10.579989,64,63,0
11.497023,11.938199,64,71,0
11.938199,12.599963,69,71,0
11.938199,12.599963,64,64,0
12.599963,12.815017,71,68,0
12.599963,12.815017,64,62,0
12.815017,13.256193,72,71,0
12.815017,13.256193,69,64,0
13.256193,13.697369,74,71,0
13.256193,13.697369,71,64,0
13.697369,14.150199,76,73,0
13.697369,14.150199,72,64,0
14.150199,15.032551,79,76,0
14.150199,15.032551,76,68,0
15.032551,15.356293,77,73,0
15.032551,15.356293,74,64,0
15.356293,15.458811,76,67,0
15.356293,15.458811,72,60,0
15.464206,15.905382,76,71,0
15.464206,15.905382,72,64,0
15.905382,16.233057,74,71,0
15.905382,16.233057,71,64,0
16.233057,16.336693,72,67,0
16.233057,16.336693,69,60,0
16.342148,16.790064,72,71,0
16.342148,16.790064,69,64,0
16.790064,17.125885,76,74,0
16.790064,17.125885,72,65,0
16.790064,17.125885,65,65,0
17.125885,17.246367,74,67,0
17.125885,17.246367,71,60,0
17.246367,18.155457,72,66,0
17.246367,18.155457,69,58,0
18.155457,18.382729,71,65,0
18.155457,18.382729,68,57,0
18.610003,19.051178,64,71,0
18.610003,19.051178,62,64,0
19.051178,19.712942,69,71,0
19.051178,19.712942,64,64,0
19.051178,19.712942,60,64,0
19.712942,19.927996,71,68,0
19.712942,19.927996,64,62,0
19.927996,20.369171,72,71,0
19.927996,20.369171,69,64,0
20.369171,20.810349,74,71,0
20.369171,20.810349,71,64,0
20.810349,21.240536,76,73,0
20.810349,21.240536,72,64,0
21.263178,22.150753,79,76,0
21.263178,22.150753,76,68,0
21.263178,22.150753,67,68,0
22.150753,22.474495,77,73,0
22.150753,22.474495,74,64,0
22.474495,22.577013,76,67,0
22.474495,22.577013,72,60,0
22.582407,23.023584,76,71,0
22.582407,23.023584,72,64,0
23.023584,23.351257,74,71,0
23.023584,23.351257,71,64,0
23.351257,23.454895,72,67,0
23.351257,23.454895,69,60,0
23.460348,23.908266,72,71,0
23.460348,23.908266,69,64,0
23.908266,24.244087,71,74,0
23.908266,24.244087,67,65,0
24.244087,24.358545,69,67,0
24.244087,24.358545,65,60,0
24.364569,24.478205,69,64,0
24.364569,24.478205,65,57,0
24.591698,24.704906,71,65,0
24.591698,24.704906,68,57,0
24.591698,24.704906,59,57,0
24.817688,24.930187,72,67,0
24.817688,24.930187,69,59,0
24.817688,24.930187,60,59,0
25.042408,25.154348,74,69,0
25.042408,25.154348,71,62,0
25.042408,25.154348,62,62,0
25.265873,25.377121,76,71,0
25.265873,25.377121,72,64,0
25.265873,25.377121,64,64,0
25.488785,25.601004,74,69,0
25.488785,25.601004,71,62,0
25.488785,25.601004,62,62,0
25.71407,25.82785,72,67,0
25.71407,25.82785,69,59,0
25.71407,25.82785,60,59,0
26.057297,26.173151,71,65,0
26.057297,26.173151,64,57,0
26.057297,26.173151,59,57,0
26.179249,27.10948,71,66,0
26.179249,27.10948,64,53,0
26.179249,27.10948,59,53,0
27.10948,27.34204,69,65,0
27.10948,27.34204,60,57,0
27.78378,27.88582,68,35,0
27.88582,27.987862,69,35,0
27.987862,28.089903,71,41,0
28.089903,28.191942,68,35,0
28.191942,28.365019,64,35,0
28.529854,28.63155,71,35,0
28.63155,28.733244,68,35,0
28.733244,28.83494,64,35,0
28.83494,28.936634,72,41,0
28.936634,29.03833,69,35,0
29.03833,29.210743,64,35,0
29.375357,29.477398,72,36,0
29.477398,29.57944,69,36,0
29.57944,29.68148,64,36,0
29.68148,29.78352,69,41,0
29.78352,29.885561,66,35,0
29.885561,30.058638,63,35,0
30.223473,30.325169,69,36,0
30.325169,30.426863,66,36,0
30.426863,30.528559,63,36,0
30.528559,30.630253,71,41,0
30.630253,30.731947,68,35,0
30.731947,30.903704,64,35,0
31.068098,31.17014,66,38,0
31.17014,31.272179,68,38,0
31.272179,31.37422,69,38,0
31.37422,31.476261,71,45,0
31.476261,31.578302,68,37,0
31.578302,31.750715,64,38,0
31.915329,32.017372,71,45,0
32.017372,32.11941,68,46,0
32.11941,32.22145,64,46,0
32.22145,32.323494,72,50,0
32.323494,32.425533,69,46,0
32.425533,32.59729,64,46,0
32.761684,32.86338,72,52,0
32.86338,32.965073,69,52,0
32.965073,33.06677,64,52,0
33.06677,33.168465,69,57,0
33.168465,33.270157,66,53,0
33.270157,33.441914,63,53,0
33.606308,33.7087,69,58,0
33.7087,33.81109,66,58,0
33.81109,33.913475,63,60,0
33.913475,34.024586,71,66,0
34.024586,34.135696,68,58,0
34.135696,34.30114,64,57,0
34.583557,34.81083,64,71,0
34.81083,35.472595,71,71,0
34.81083,35.472595,64,64,0
35.472595,35.68765,72,68,0
35.472595,35.68765,69,62,0
35.68765,36.128826,74,71,0
35.68765,36.128826,68,64,0
36.128826,36.57,72,71,0
36.128826,36.57,69,64,0
36.57,36.68321,77,73,0
36.57,36.68321,68,64,0
36.909622,36.99453,76,73,0
36.909622,36.99453,68,64,0
37.02283,37.90518,74,76,0
37.02283,37.90518,68,68,0
37.90518,38.336838,77,73,0
37.90518,38.336838,68,64,0
38.336838,38.778015,76,71,0
38.336838,38.778015,69,64,0
38.778015,39.21478,72,71,0
38.778015,39.21478,64,64,0
39.21478,39.662697,71,69,0
39.21478,39.662697,64,64,0
39.662697,39.998516,69,70,0
39.998516,40.119,71,67,0
39.662697,40.119,63,65,0
39.662697,40.119,60,57,0
40.119,41.028088,69,66,0
40.119,41.028088,63,58,0
40.119,41.028088,60,58,0
41.028088,41.48263,68,65,0
41.028088,41.48263,64,57,0
41.028088,41.48263,59,57,0
41.48263,41.92381,64,71,0
41.92381,42.585575,71,71,0
41.92381,42.585575,64,64,0
41.92381,42.585575,59,64,0
42.585575,42.80063,72,68,0
42.585575,42.80063,69,62,0
42.585575,42.80063,60,62,0
42.80063,43.241802,74,71,0
42.80063,43.241802,68,64,0
42.80063,43.241802,62,64,0
43.241802,43.68298,77,71,0
43.241802,43.68298,68,64,0
43.241802,43.68298,65,64,0
43.68298,43.79619,76,73,0
43.68298,43.79619,64,64,0
43.68298,43.79619,69,64,0
44.022602,44.10751,74,73,0
44.022602,44.10751,62,64,0
44.022602,44.10751,69,64,0
44.13581,45.01816,72,75,0
44.13581,45.01816,69,68,0
44.13581,45.01816,60,64,0
45.01816,45.467598,76,78,0
45.01816,45.467598,64,69,0
45.01816,45.467598,72,69,0
45.467598,45.91536,74,77,0
45.467598,45.91536,62,69,0
45.467598,45.91536,71,69,0
45.91536,46.35492,72,77,0
45.91536,46.35492,64,69,0
45.91536,46.35492,69,69,0
46.35492,46.81502,71,75,0
46.35492,46.81502,62,68,0
46.35492,46.81502,67,72,0
46.81502,47.15084,69,79,0
47.15084,47.271324,71,74,0
46.81502,47.271324,62,71,0
46.81502,47.271324,60,71,0
46.81502,47.271324,66,71,0
47.271324,48.180416,69,73,0
47.271324,48.180416,66,65,0
47.271324,48.180416,60,65,0
47.271324,48.180416,62,65,0
48.180416,48.622276,67,71,0
48.180416,48.622276,62,64,0
48.180416,48.622276,59,64,0
48.64553,49.12172,67,82,0
49.12172,49.783485,79,79,0
49.12172,49.783485,76,71,0
49.12172,49.783485,67,71,0
49.783485,49.99854,77,76,0
49.783485,49.99854,74,69,0
49.783485,49.99854,65,69,0
49.99854,50.439713,76,79,0
49.99854,50.439713,72,71,0
49.99854,50.439713,64,71,0
50.439713,50.88089,77,79,0
50.439713,50.88089,74,71,0
50.439713,50.88089,65,71,0
50.88089,51.33372,76,80,0
50.88089,51.33372,64,71,0
50.88089,51.33372,72,71,0
51.33372,51.664604,74,80,0
51.33372,51.664604,71,73,0
51.33372,51.664604,62,73,0
51.664604,51.774895,72,76,0
51.664604,51.774895,69,69,0
51.664604,51.774895,60,69,0
51.774895,52.216072,74,79,0
51.774895,52.216072,71,69,0
51.774895,52.216072,62,69,0
52.216072,52.647728,67,85,0
52.216072,52.647728,65,70,0
52.647728,53.307487,76,79,0
52.647728,53.307487,64,71,0
52.647728,53.307487,72,71,0
53.307487,53.416576,74,79,0
53.307487,53.416576,71,71,0
53.307487,53.416576,62,71,0
53.52567,53.63556,72,76,0
53.52567,53.63556,69,64,0
53.52567,53.63556,60,64,0
53.74545,53.859516,74,77,0
53.74545,53.859516,71,65,0
53.74545,53.859516,62,65,0
53.973587,54.085526,76,79,0
53.973587,54.085526,72,67,0
53.973587,54.085526,64,67,0
54.197464,54.309406,74,77,0
54.197464,54.309406,71,65,0
54.197464,54.309406,62,65,0
54.42989,54.882717,72,80,0
54.42989,54.882717,60,71,0
54.42989,54.882717,69,71,0
54.882717,55.2136,71,80,0
54.882717,55.2136,68,73,0
54.882717,55.2136,59,73,0
55.2136,55.323895,69,73,0
55.2136,55.323895,66,65,0
55.2136,55.323895,57,65,0
55.323895,55.76507,71,76,0
55.323895,55.76507,68,65,0
55.323895,55.76507,59,65,0
55.76507,56.219616,64,80,0
55.76507,56.219616,62,71,0
56.219616,56.88138,69,79,0
56.219616,56.88138,64,71,0
56.219616,56.88138,60,71,0
56.88138,57.09643,71,76,0
56.88138,57.09643,64,69,0
57.09643,57.53761,72,79,0
57.09643,57.53761,69,71,0
57.53761,57.978786,74,79,0
57.53761,57.978786,71,71,0
57.978786,58.408974,76,80,0
57.978786,58.408974,72,71,0
58.431614,59.31919,79,86,0
58.431614,59.31919,76,76,0
58.431614,59.31919,67,76,0
59.31919,59.642933,77,80,0
59.31919,59.642933,74,71,0
59.642933,59.74545,76,76,0
59.642933,59.74545,72,68,0
59.750847,60.19202,76,79,0
59.750847,60.19202,72,71,0
60.19202,60.519695,74,79,0
60.19202,60.519695,71,71,0
60.519695,60.623333,72,76,0
60.519695,60.623333,69,68,0
60.628784,60.848568,72,79,0
60.628784,60.848568,69,71,0
60.848568,61.076702,72,85,0
61.076702,61.431034,76,79,0
61.076702,61.431034,64,68,0
61.076702,61.431034,65,73,0
61.076702,61.431034,72,73,0
61.431034,61.55815,74,76,0
61.431034,61.55815,71,68,0
62.0127,62.36142,63,76,0
62.36142,62.48094,64,66,0
61.55815,62.48094,72,75,0
61.55815,62.48094,69,66,0
62.48094,62.708214,71,69,0
62.48094,62.708214,68,61,0
62.935486,63.39003,64,80,0
62.935486,63.39003,62,71,0
63.39003,64.051796,69,79,0
63.39003,64.051796,64,71,0
63.39003,64.051796,60,71,0
64.051796,64.266846,71,76,0
64.051796,64.266846,64,69,0
64.266846,64.59773,72,79,0
64.266846,64.59773,69,71,0
64.59773,64.70802,71,79,0
64.59773,64.70802,64,71,0
64.70802,65.03891,72,79,0
64.70802,65.03891,69,71,0
65.03891,65.1492,71,71,0
65.03891,65.1492,74,79,0
65.1492,65.57939,76,80,0
65.1492,65.57939,72,71,0
65.60203,66.48961,79,86,0
65.60203,66.48961,76,76,0
66.48961,68.119675,82,88,0
66.48961,68.119675,79,77,0
68.119675,68.203316,82,79,0
68.119675,68.203316,79,67,0
68.119675,68.203316,70,67,0
68.2312,68.31242,81,81,0
68.2312,68.3395,77,73,0
68.2312,68.3395,69,73,0
68.55611,68.64199,79,76,0
68.55611,68.64199,76,68,0
68.55611,68.64199,67,68,0
68.670616,69.86743,77,84,0
68.670616,69.86743,74,75,0
68.670616,69.86743,65,75,0
69.86743,69.95107,77,79,0
69.86743,69.95107,74,67,0
69.86743,69.95107,65,67,0
69.97895,70.08687,76,81,0
69.97895,70.08687,72,73,0
69.97895,70.08687,64,73,0
70.3027,70.387924,74,76,0
70.3027,70.387924,71,68,0
70.3027,70.387924,62,68,0
70.41633,71.50622,72,84,0
70.41633,71.50622,69,75,0
70.41633,71.50622,60,75,0
71.50622,71.58986,71,79,0
71.50622,71.58986,68,67,0
71.50622,71.58986,59,67,0
71.72927,71.84079,69,81,0
71.72927,71.84079,66,73,0
71.72927,71.84079,57,73,0
71.95232,72.03596,71,76,0
71.95232,72.03596,68,68,0
71.95232,72.03596,59,68,0
72.17578,72.28731,72,76,0
72.17578,72.28731,69,64,0
72.17578,72.28731,60,64,0
72.398415,72.50912,74,77,0
72.398415,72.50912,71,65,0
72.398415,72.50912,62,65,0
72.61928,72.729034,76,79,0
72.61928,72.729034,72,67,0
72.61928,72.729034,64,67,0
72.83839,72.94722,77,81,0
72.83839,72.94722,74,69,0
72.83839,72.94722,65,69,0
73.05671,73.16741,76,78,0
73.05671,73.16741,72,66,0
73.05671,73.16741,64,66,0
73.27935,73.392555,74,77,0
73.27935,73.392555,71,65,0
73.27935,73.392555,62,65,0
73.50692,73.6223,72,76,0
73.50692,73.6223,69,64,0
73.50692,73.6223,60,64,0
73.86374,73.958275,71,76,0
73.86374,73.958275,64,64,0
73.989784,74.99819,71,76,0
73.989784,74.99819,64,64,0
74.99819,75.502396,69,76,0
74.99819,75.502396,60,64,0
75.609535,75.71668,69,34,0
75.71668,75.82382,68,34,0
75.82382,75.93096,69,34,0
75.93096,76.033356,71,41,0
76.033356,76.13574,68,35,0
76.13574,76.30882,64,35,0
76.473656,76.5771,71,34,0
76.5771,76.68055,68,34,0
76.68055,76.784,64,34,0
76.784,76.88604,72,41,0
76.88604,76.98808,69,34,0
76.98808,77.16049,64,34,0
77.32511,77.42892,72,36,0
77.42892,77.53272,69,36,0
77.53272,77.63653,64,36,0
77.63653,77.739265,69,41,0
77.739265,77.842,66,36,0
77.842,78.01508,63,36,0
78.17992,78.28372,69,36,0
78.28372,78.38753,66,36,0
78.38753,78.49134,63,36,0
78.49134,78.59373,71,41,0
78.59373,78.69611,68,35,0
78.69611,78.867874,64,35,0
79.032265,79.13536,66,39,0
79.13536,79.23845,68,39,0
79.23845,79.341545,69,39,0
79.341545,79.44358,71,42,0
79.44358,79.54562,68,38,0
79.54562,79.71804,64,38,0
79.88265,79.98539,71,46,0
79.98539,80.088135,68,47,0
80.088135,80.19087,64,47,0
80.19087,80.292564,72,53,0
80.292564,80.394264,69,48,0
80.394264,80.56602,64,48,0
80.730415,80.8335,72,53,0
80.8335,80.9366,69,54,0
80.9366,81.03969,64,54,0
81.03969,81.14173,69,60,0
81.14173,81.243774,66,56,0
81.243774,81.41553,63,56,0
81.579926,81.68337,69,58,0
81.68337,81.78682,66,58,0
81.78682,81.89027,63,58,0
81.89027,82.00138,71,71,0
82.00138,82.11249,68,59,0
82.11249,82.27793,64,60,0
82.56035,82.786766,64,79,0
82.786766,83.44853,71,79,0
82.786766,83.44853,64,71,0
82.786766,83.44853,59,71,0
83.44853,83.66358,72,76,0
83.44853,83.66358,64,69,0
83.44853,83.66358,60,69,0
83.66358,84.10476,74,79,0
83.66358,84.10476,64,71,0
83.66358,84.10476,62,71,0
84.10476,84.54594,72,79,0
84.10476,84.54594,64,71,0
84.10476,84.54594,60,71,0
84.54594,84.65914,77,80,0
84.54594,84.65914,68,71,0
84.54594,84.65914,65,71,0
84.88556,84.97046,76,80,0
84.88556,84.97046,68,71,0
84.88556,84.97046,64,71,0
84.998764,85.88112,74,86,0
84.998764,85.88112,68,76,0
84.998764,85.88112,62,76,0
85.88112,86.312775,77,80,0
85.88112,86.312775,68,71,0
85.88112,86.312775,65,71,0
86.312775,86.753944,76,79,0
86.312775,86.753944,69,71,0
86.312775,86.753944,64,71,0
86.753944,87.19071,72,79,0
86.753944,87.19071,64,71,0
86.753944,87.19071,60,71,0
87.19071,87.638626,71,75,0
87.19071,87.638626,64,71,0
87.19071,87.638626,59,75,0
87.638626,87.97445,69,76,0
87.97445,88.09493,71,76,0
87.638626,88.09493,63,73,0
87.638626,88.09493,60,66,0
88.09493,89.036125,69,75,0
88.09493,89.036125,63,66,0
88.09493,89.036125,60,66,0
89.036125,89.46794,68,73,0
89.036125,89.46794,64,65,0
89.036125,89.46794,59,65,0
89.49067,89.95221,64,79,0
89.95221,90.62135,71,79,0
89.95221,90.62135,64,71,0
89.95221,90.62135,59,71,0
90.62135,90.8364,72,76,0
90.62135,90.8364,69,69,0
90.62135,90.8364,60,69,0
90.8364,91.27574,62,71,0
90.8364,91.27758,74,79,0
90.8364,91.27758,68,71,0
91.27758,91.71876,77,79,0
91.27758,91.71876,68,71,0
91.27758,91.71876,65,71,0
91.71876,91.83196,76,80,0
91.71876,91.83196,64,71,0
91.71876,91.83196,69,71,0
92.05838,92.14329,74,80,0
92.05838,92.14329,62,71,0
92.05838,92.14329,69,71,0
92.171585,93.05394,72,84,0
92.171585,93.05394,69,76,0
92.171585,93.05394,60,71,0
93.05394,93.52087,76,84,0
93.05394,93.52087,66,75,0
93.05394,93.52087,72,75,0
93.05394,93.52087,64,75,0
93.52087,94.00086,74,83,0
93.52087,94.00086,67,75,0
93.52087,94.00086,71,75,0
93.52087,94.00086,62,75,0
94.00086,94.46598,72,83,0
94.00086,94.46598,60,75,0
94.00086,94.46598,69,75,0
94.00086,94.46598,64,75,0
94.46598,94.94029,71,80,0
94.46598,94.94029,59,74,0
94.46598,94.94029,67,76,0
94.46598,94.94029,62,74,0
94.94029,95.306145,69,85,0
95.306145,95.435455,71,78,0
94.94029,95.435455,66,76,0
94.94029,95.435455,60,76,0
94.94029,95.435455,57,76,0
95.306145,95.435455,59,78,0
95.435455,96.35533,69,77,0
95.435455,96.35533,66,69,0
95.435455,96.35533,57,69,0
95.435455,96.35533,60,69,0
96.35533,96.81501,67,76,0
96.35533,96.81501,62,68,0
96.35533,96.81501,59,68,0
96.8392,97.36094,67,88,0
97.36094,98.075424,79,88,0
97.36094,98.075424,76,76,0
97.36094,98.075424,67,75,0
98.075424,98.295204,77,79,0
98.075424,98.295204,74,73,0
98.075424,98.295204,65,73,0
98.295204,98.74804,76,83,0
98.295204,98.74804,72,75,0
98.295204,98.74804,64,75,0
98.74804,99.20087,77,83,0
98.74804,99.20087,74,75,0
98.74804,99.20087,65,75,0
99.20087,99.66779,76,84,0
99.20087,99.66779,64,75,0
99.20087,99.66779,72,75,0
99.66779,100.00362,74,84,0
99.66779,100.00362,71,76,0
99.66779,100.00362,62,76,0
100.00362,100.115555,72,79,0
100.00362,100.115555,69,73,0
100.00362,100.115555,60,73,0
100.115555,100.56838,74,83,0
100.115555,100.56838,71,73,0
100.115555,100.56838,62,73,0
100.56838,101.02815,67,89,0
100.56838,101.02815,65,74,0
101.02815,101.70884,76,85,0
101.02815,101.70884,64,75,0
101.02815,101.70884,72,76,0
101.70884,101.81954,74,83,0
101.70884,101.81954,71,75,0
101.70884,101.81954,62,75,0
101.930244,102.0426,72,78,0
101.930244,102.0426,69,67,0
101.930244,102.0426,60,67,0
102.15496,102.26732,74,80,0
102.15496,102.26732,71,68,0
102.15496,102.26732,62,68,0
102.37968,102.49419,76,83,0
102.37968,102.49419,72,70,0
102.37968,102.49419,64,70,0
102.60869,102.72319,74,80,0
102.60869,102.72319,71,68,0
102.60869,102.72319,62,68,0
102.83769,103.29923,72,84,0
102.83769,103.29923,60,75,0
102.83769,103.29923,69,75,0
103.29923,103.63758,71,84,0
103.29923,103.63758,68,76,0
103.29923,103.63758,59,76,0
103.63758,103.75036,69,76,0
103.63758,103.75036,66,68,0
103.63758,103.75036,57,68,0
103.75036,104.19646,71,78,0
103.75036,104.19646,68,68,0
103.75036,104.19646,59,68,0
104.19646,104.690765,64,84,0
104.19646,104.690765,62,75,0
104.690765,105.36493,69,83,0
104.690765,105.36493,57,75,0
104.690765,105.36493,60,75,0
104.690765,105.36493,64,75,0
105.36493,105.58076,71,79,0
105.36493,105.58076,64,73,0
105.36493,105.58076,59,73,0
105.58076,106.02852,72,83,0
105.58076,106.02852,69,75,0
105.58076,106.02852,60,75,0
106.02852,106.481346,74,83,0
106.02852,106.481346,71,75,0
106.02852,106.481346,62,75,0
106.481346,106.92911,76,84,0
106.481346,106.92911,72,75,0
106.481346,106.92911,64,75,0
106.92911,107.81357,79,90,0
106.92911,107.81357,76,79,0
106.92911,107.81357,67,79,0
107.81357,108.13563,77,84,0
107.81357,108.13563,74,75,0
107.81357,108.13563,65,75,0
108.13563,108.24079,76,78,0
108.13563,108.24079,72,71,0
108.13563,108.24079,64,71,0
108.24633,108.67836,76,83,0
108.24633,108.67836,72,75,0
108.24633,108.67836,64,75,0
108.67836,109.0027,74,83,0
108.67836,109.0027,71,75,0
108.67836,109.0027,62,75,0
109.0027,109.10748,72,78,0
109.0027,109.10748,69,71,0
109.0027,109.10748,60,71,0
109.113,109.56283,72,83,0
109.113,109.56283,69,75,0
109.113,109.56283,60,75,0
109.56283,109.909805,76,85,0
109.56283,109.909805,72,76,0
109.56283,109.909805,64,76,0
109.909805,110.03429,74,78,0
109.909805,110.03429,71,71,0
109.909805,110.03429,62,71,0
110.03429,110.93995,72,77,0
110.03429,110.93995,69,69,0
110.03429,110.93995,60,69,0
110.93995,111.39278,71,76,0
110.93995,111.39278,68,68,0
110.93995,111.39278,59,68,0
111.39278,111.83791,64,84,0
111.39278,111.83791,62,75,0
111.83791,112.496475,69,83,0
111.83791,112.496475,57,75,0
111.83791,112.496475,60,75,0
111.83791,112.496475,64,75,0
112.496475,112.70849,71,79,0
112.496475,112.70849,64,73,0
112.496475,112.70849,59,73,0
112.70849,113.03458,72,83,0
112.70849,113.03458,69,75,0
112.70849,113.03458,60,75,0
113.03458,113.14327,71,83,0
113.03458,113.14327,68,75,0
113.03458,113.14327,59,75,0
113.14327,113.46935,72,83,0
113.14327,113.46935,69,75,0
113.14327,113.46935,60,75,0
113.46935,113.57805,71,75,0
113.46935,113.57805,74,83,0
113.46935,113.57805,62,75,0
113.57805,114.02151,76,84,0
113.57805,114.02151,72,75,0
113.57805,114.02151,64,75,0
114.02151,114.8955,79,90,0
114.02151,114.8955,76,79,0
114.02151,114.8955,67,79,0
114.8955,116.55285,82,92,0
114.8955,116.55285,79,80,0
114.8955,116.55285,70,80,0
116.55285,116.66455,82,83,0
116.55285,116.66455,79,76,0
116.55285,116.66455,70,76,0
116.66455,117.011536,81,85,0
116.66455,117.011536,77,76,0
116.66455,117.011536,69,76,0
117.011536,117.13602,79,78,0
117.011536,117.13602,76,71,0
117.011536,117.13602,67,71,0
117.13602,118.34249,77,88,0
117.13602,118.34249,74,77,0
117.13602,118.34249,65,77,0
118.34249,118.4542,77,83,0
118.34249,118.4542,74,70,0
118.34249,118.4542,65,70,0
118.4542,118.801186,76,85,0
118.4542,118.801186,72,76,0
118.4542,118.801186,64,76,0
118.801186,118.92567,74,78,0
118.801186,118.92567,71,71,0
118.801186,118.92567,62,71,0
120.0313,120.14282,71,60,0
118.92567,120.14282,69,77,0
118.92567,120.14282,72,82,0
118.92567,120.14282,60,74,0
120.0313,120.14282,68,42,0
120.0313,120.14282,59,42,0
120.25435,120.36344,69,64,0
120.25435,120.36344,66,53,0
120.25435,120.36344,57,53,0
120.472534,120.58162,71,62,0
120.472534,120.58162,68,52,0
120.472534,120.58162,59,52,0
120.69071,120.79786,60,52,0
120.69071,120.79786,72,63,0
120.69071,120.79786,69,52,0
120.905,121.0153,71,54,0
120.905,121.0153,74,65,0
120.905,121.0153,62,54,0
121.12559,121.232346,72,56,0
121.12559,121.232346,76,67,0
121.12559,121.232346,64,56,0
121.33911,121.4486,77,69,0
121.33911,121.4486,74,57,0
121.33911,121.4486,65,57,0
121.55809,121.664276,76,68,0
121.55809,121.664276,72,57,0
121.55809,121.664276,64,57,0
121.77046,121.87823,62,57,0
121.77046,121.87823,74,68,0
121.77046,121.87823,71,57,0
121.98599,122.092964,60,57,0
121.98599,122.092964,72,68,0
121.98599,122.092964,69,57,0
122.19993,122.3069,59,58,0
122.19993,122.3069,71,68,0
122.19993,122.3069,68,58,0
122.413864,122.5195,69,59,0
122.413864,122.5195,60,59,0
122.413864,122.5195,72,70,0
122.62513,122.73329,74,71,0
122.62513,122.73329,71,59,0
122.62513,122.73329,62,59,0
122.84145,122.946724,64,63,0
122.84145,122.946724,76,76,0
122.84145,122.946724,72,63,0
123.05199,123.16055,74,65,0
123.05199,123.16055,77,78,0
123.05199,123.16055,65,65,0
123.26913,123.374756,72,63,0
123.26913,123.374756,76,76,0
123.26913,123.374756,64,63,0
123.48039,123.58602,74,76,0
123.48039,123.58602,71,64,0
123.48039,123.58602,62,64,0
123.69166,123.79619,72,76,0
123.69166,123.79619,69,64,0
123.69166,123.79619,60,64,0
123.90072,124.00525,59,64,0
123.90072,124.00525,71,76,0
123.90072,124.00525,68,64,0
124.10978,124.21541,60,66,0
124.10978,124.21541,72,79,0
124.10978,124.21541,69,66,0
124.321045,124.42921,62,68,0
124.321045,124.42921,71,68,0
124.321045,124.42921,74,81,0
124.53737,124.640816,64,70,0
124.53737,124.640816,72,70,0
124.53737,124.640816,76,84,0
124.74426,124.8499,77,86,0
124.74426,124.8499,74,73,0
124.74426,124.8499,65,73,0
124.955536,125.061165,72,69,0
124.955536,125.061165,64,69,0
124.955536,125.061165,76,83,0
125.1668,125.27244,74,81,0
125.1668,125.27244,71,68,0
125.1668,125.27244,62,68,0
125.37807,125.48328,72,80,0
125.37807,125.48328,69,67,0
125.37807,125.48328,60,67,0
125.58781,125.69234,71,80,0
125.58781,125.69234,59,68,0
125.58781,125.69234,68,68,0
125.79687,125.901764,72,84,0
125.79687,125.901764,69,70,0
125.79687,125.901764,60,70,0
126.00666,126.11482,71,71,0
126.00666,126.11482,62,71,0
126.00666,126.11482,74,85,0
126.222984,126.32825,76,88,0
126.222984,126.32825,72,74,0
126.222984,126.32825,64,74,0
126.43351,126.542076,74,76,0
126.43351,126.542076,65,76,0
126.43351,126.542076,77,90,0
126.65065,126.75591,76,87,0
126.65065,126.75591,72,74,0
126.65065,126.75591,64,74,0
126.861176,126.96644,71,74,0
126.861176,126.96644,74,87,0
126.861176,126.96644,62,74,0
127.0717,127.17696,72,86,0
127.0717,127.17696,60,73,0
127.0717,127.17696,69,73,0
127.28223,127.39212,71,86,0
127.28223,127.39212,59,73,0
127.28223,127.39212,68,73,0
127.501434,127.66196,60,72,0
127.501434,127.66196,72,93,0
127.501434,127.66196,69,72,0
127.71572,127.877335,68,69,0
127.71572,127.877335,59,69,0
127.71572,127.877335,71,89,0
127.93129,128.09361,69,72,0
127.93129,128.09361,60,72,0
127.93129,128.09361,72,93,0
128.14777,128.31088,71,85,0
128.14777,128.31088,68,67,0
128.14777,128.31088,59,67,0
128.36542,128.52925,69,72,0
128.36542,128.52925,72,93,0
128.36542,128.52925,60,72,0
128.584,128.74857,59,66,0
128.584,128.74857,68,66,0
128.584,128.74857,71,83,0
128.80351,128.97012,72,93,0
128.80351,128.97012,69,72,0
128.80351,128.97012,60,72,0
129.02644,129.19798,68,66,0
129.02644,129.19798,59,66,0
129.02644,129.19798,71,83,0
129.25575,129.43085,72,93,0
129.25575,129.43085,69,72,0
129.25575,129.43085,60,72,0
129.48921,129.6643,71,85,0
129.48921,129.6643,68,67,0
129.48921,129.6643,59,67,0
129.72267,129.90196,72,93,0
129.72267,129.90196,60,72,0
129.72267,129.90196,69,72,0
129.96172,130.14691,74,83,0
129.96172,130.14691,71,66,0
129.96172,130.14691,62,66,0
130.20863,130.70247,72,72,0
130.20863,130.70247,64,72,0
130.20863,130.70247,76,93,0
130.70247,131.07283,71,88,0
130.70247,131.07283,64,68,0
130.70247,131.07283,59,68,0
131.07283,131.19629,72,81,0
131.07283,131.19629,60,63,0
131.19629,132.20895,71,88,0
131.19629,132.20895,59,68,0
131.19629,132.20895,64,68,0
132.20895,132.71527,69,81,0
132.20895,132.71527,57,63,0
132.82242,132.92587,71,68,0
132.92587,133.02931,72,69,0
133.02931,133.13277,74,66,0
133.13277,133.23378,76,76,0
133.23378,133.33478,72,64,0
133.33478,133.50786,69,64,0
133.6727,133.7765,76,70,0
133.7765,133.88031,72,69,0
133.88031,133.98412,69,69,0
133.98412,134.08513,77,76,0
134.08513,134.18613,74,64,0
134.18613,134.35855,69,64,0
134.52316,134.6266,77,68,0
134.6266,134.73006,74,68,0
134.73006,134.83398,69,68,0
134.83398,134.93533,74,76,0
134.93533,135.0367,71,64,0
135.0367,135.20976,68,64,0
135.3746,135.47878,74,64,0
135.47878,135.58293,71,64,0
135.58293,135.6871,68,64,0
135.6871,135.78812,76,75,0
135.78812,135.88913,72,62,0
135.88913,136.06088,69,63,0
136.22527,136.32909,71,47,0
136.32909,136.43289,72,47,0
136.43289,136.5367,74,48,0
136.5367,136.6377,76,57,0
136.6377,136.73871,73,46,0
136.73871,136.91113,69,46,0
137.07574,137.17955,76,44,0
137.17955,137.28336,73,44,0
137.28336,137.38716,69,44,0
137.38716,137.48851,77,52,0
137.48851,137.58986,74,42,0
137.58986,137.76161,69,42,0
137.92601,138.02982,77,44,0
138.02982,138.13362,74,44,0
138.13362,138.23743,69,44,0
138.23743,138.33844,74,50,0
138.33844,138.43945,71,42,0
138.43945,138.6112,68,42,0
138.7756,138.87941,74,43,0
138.87941,138.98322,71,43,0
138.98322,139.08702,68,43,0
139.08702,139.18906,76,49,0
139.18906,139.2911,72,41,0
139.2911,139.45654,69,41,0
139.61884,139.72299,74,43,0
139.72299,139.82716,71,43,0
139.82716,139.93134,68,43,0
139.93134,140.03407,76,52,0
140.03407,140.13681,72,43,0
140.13681,140.30225,69,43,0
140.46341,140.56721,74,39,0
140.56721,140.67102,71,39,0
140.67102,140.77483,68,39,0
140.77483,140.87756,76,47,0
140.87756,140.9803,72,39,0
140.9803,141.08707,69,38,0
141.08707,141.19383,74,38,0
141.19383,141.29984,71,38,0
141.29984,141.40584,68,38,0
141.40584,141.50822,76,46,0
141.50822,141.61063,72,41,0
141.61063,141.71588,69,38,0
141.71588,141.81897,74,38,0
141.81897,141.92207,71,38,0
141.92207,142.02516,68,38,0
142.02516,142.12755,76,45,0
142.12755,142.22993,72,38,0
142.22993,142.33595,69,38,0
142.33595,142.44196,74,38,0
142.44196,142.54796,71,38,0
142.54796,142.65396,68,37,0
142.65396,142.7567,76,44,0
142.7567,142.85945,72,37,0
142.85945,142.9647,69,37,0
142.9647,143.06998,74,37,0
143.06998,143.17523,71,37,0
143.17523,143.2805,68,37,0
143.2805,143.38841,76,41,0
143.38841,143.49632,72,35,0
143.49632,143.60423,69,35,0
143.60423,143.71216,76,35,0
143.71216,143.81854,72,35,0
143.81854,143.92505,69,34,0
143.92505,144.03181,76,42,0
144.03181,144.13882,72,35,0
144.13882,144.24597,69,35,0
144.24597,144.3535,76,35,0
144.3535,144.46115,72,36,0
144.46115,144.56906,69,36,0
144.56906,144.67723,76,41,0
144.67723,144.78554,72,36,0
144.78554,144.89424,69,36,0
144.89424,145.00307,76,36,0
145.00307,145.11255,72,36,0
145.11255,145.22258,69,34,0
145.22258,145.33315,76,39,0
145.33315,145.4444,72,33,0
145.4444,145.55606,69,33,0
145.55606,145.66827,76,33,0
145.66827,145.7812,72,33,0
145.7812,145.89468,69,33,0
145.89468,146.84032,76,38,0
146.84032,147.40106,72,35,0
147.40106,149.20107,69,35,0
2.122542,2.533056,57,23,0
2.122542,2.533056,60,23,0
2.122542,2.533056,64,27,0
2.964961,3.3826365,65,27,0
2.964961,3.3826365,62,23,0
2.964961,3.3826365,57,23,0
3.8167956,4.2290235,57,23,0
3.8167956,4.2290235,59,23,0
3.8167956,4.2290235,62,27,0
4.661421,5.0746856,57,23,0
4.661421,5.0746856,60,23,0
4.661421,5.0746856,64,27,0
5.508652,5.922962,57,25,0
5.508652,5.922962,60,25,0
5.508652,5.922962,64,31,0
6.3567476,6.7700124,65,34,0
6.3567476,6.7700124,62,27,0
6.3567476,6.7700124,57,27,0
7.2031016,7.6153293,57,29,0
7.2031016,7.6153293,59,29,0
7.2031016,7.6153293,62,36,0
7.837551,8.002993,64,38,0
7.837551,8.002993,57,31,0
7.837551,8.002993,60,31,0
8.058139,8.470367,57,31,0
8.058139,8.470367,62,31,0
8.058139,8.470367,65,38,0
8.690955,8.856396,64,42,0
8.690955,8.856396,60,34,0
8.690955,8.856396,57,34,0
8.911543,9.320795,57,34,0
8.911543,9.320795,62,34,0
8.911543,9.320795,65,42,0
9.540575,9.70541,64,46,0
9.540575,9.70541,57,37,0
9.540575,9.70541,60,37,0
9.760355,10.166833,57,37,0
9.760355,10.166833,62,37,0
9.760355,10.166833,65,46,0
10.579989,10.686376,60,60,0
10.686376,10.794033,57,58,0
10.794033,10.902993,52,58,0
10.902993,11.013152,48,57,0
11.013152,11.255088,45,57,0
11.013152,11.255088,33,57,0
11.497023,11.938199,52,56,0
11.938199,12.599963,57,58,0
11.938199,12.599963,48,54,0
12.599963,12.815017,59,57,0
12.599963,12.815017,52,52,0
12.815017,13.256193,60,58,0
12.815017,13.256193,57,54,0
13.256193,13.697369,62,58,0
13.256193,13.697369,59,54,0
13.697369,14.150199,64,58,0
13.697369,14.150199,60,54,0
14.150199,15.032551,67,65,0
14.150199,15.032551,64,57,0
15.032551,15.356293,62,56,0
15.032551,15.356293,65,63,0
15.356293,15.458811,64,58,0
15.356293,15.458811,60,54,0
15.464206,15.905382,64,63,0
15.464206,15.905382,60,56,0
15.905382,16.233057,62,58,0
15.905382,16.233057,59,54,0
16.233057,16.336693,60,56,0
16.233057,16.336693,57,50,0
16.342148,16.790064,60,58,0
16.342148,16.790064,57,54,0
16.790064,17.125885,64,63,0
16.790064,17.125885,60,56,0
17.125885,17.246367,59,50,0
17.125885,17.246367,62,56,0
16.790064,17.246367,50,54,0
17.246367,18.155457,57,49,0
17.246367,18.155457,60,56,0
18.155457,18.382729,59,55,0
18.155457,18.382729,56,48,0
17.246367,18.382729,52,49,0
18.610003,19.051178,52,56,0
19.051178,19.712942,57,58,0
19.051178,19.712942,48,54,0
19.051178,19.712942,45,54,0
19.712942,19.927996,59,57,0
19.712942,19.927996,52,52,0
19.927996,20.369171,60,58,0
19.927996,20.369171,57,54,0
20.369171,20.810349,62,58,0
20.369171,20.810349,59,54,0
20.810349,21.240536,64,58,0
20.810349,21.240536,60,54,0
21.263178,21.371874,52,67,0
21.48057,21.595074,53,69,0
21.263178,22.150753,64,67,0
22.150753,22.474495,62,56,0
22.150753,22.474495,65,63,0
22.474495,22.577013,64,58,0
22.474495,22.577013,60,54,0
22.582407,23.023584,64,63,0
22.582407,23.023584,60,56,0
21.709578,23.023584,55,75,0
23.023584,23.351257,62,58,0
23.023584,23.351257,59,54,0
23.351257,23.454895,60,56,0
23.351257,23.454895,57,50,0
23.023584,23.460348,55,54,0
23.460348,23.908266,60,58,0
23.460348,23.908266,57,54,0
23.908266,24.364569,59,57,0
23.908266,24.364569,55,52,0
23.908266,24.364569,52,52,0
24.364569,24.591698,57,47,0
24.591698,24.704906,56,49,0
24.364569,24.817688,53,42,0
24.817688,24.930187,57,52,0
24.817688,24.930187,52,46,0
25.042408,25.154348,59,54,0
25.042408,25.154348,50,47,0
25.265873,25.377121,60,55,0
25.265873,25.377121,48,48,0
25.488785,25.601004,59,53,0
25.488785,25.601004,50,46,0
25.71407,25.82785,57,50,0
25.71407,25.82785,52,45,0
26.057297,26.173151,52,48,0
26.179249,27.10948,52,52,0
27.10948,27.34204,57,55,0
27.10948,27.34204,45,48,0
28.422712,28.83494,52,23,0
28.422712,28.83494,56,23,0
28.422712,28.83494,59,27,0
29.268215,29.68148,60,27,0
29.268215,29.68148,57,23,0
29.268215,29.68148,52,23,0
30.11633,30.528559,52,23,0
30.11633,30.528559,54,23,0
30.11633,30.528559,57,27,0
30.960955,31.37422,52,23,0
30.960955,31.37422,56,23,0
30.960955,31.37422,59,27,0
31.808187,32.22145,52,25,0
31.808187,32.22145,59,25,0
31.808187,32.22145,62,31,0
32.65454,33.06677,60,37,0
32.65454,33.06677,57,29,0
32.65454,33.06677,52,29,0
33.499165,33.913475,52,35,0
33.499165,33.913475,57,35,0
33.499165,33.913475,60,42,0
33.499165,33.913475,54,35,0
34.356285,34.583557,59,66,0
34.356285,34.583557,56,56,0
34.356285,34.583557,52,56,0
34.583557,34.81083,52,56,0
34.81083,35.472595,59,58,0
34.81083,35.472595,56,54,0
35.472595,35.68765,60,57,0
35.472595,35.68765,57,52,0
35.68765,36.128826,62,58,0
35.68765,36.128826,59,54,0
36.128826,36.57,60,58,0
36.128826,36.57,57,54,0
36.57,36.68321,65,58,0
36.57,36.68321,62,54,0
36.909622,36.99453,64,58,0
36.909622,36.99453,60,54,0
37.02283,37.90518,62,65,0
37.02283,37.90518,59,57,0
37.90518,38.336838,62,56,0
37.90518,38.336838,65,63,0
38.336838,38.778015,64,63,0
38.336838,38.778015,60,56,0
38.778015,39.21478,60,58,0
38.778015,39.21478,57,54,0
39.21478,39.662697,59,61,0
39.21478,39.662697,56,56,0
39.662697,39.998516,57,60,0
39.998516,40.119,59,56,0
39.662697,40.119,54,55,0
40.119,41.028088,57,56,0
41.028088,41.48263,56,55,0
40.119,41.48263,52,49,0
41.48263,41.92381,52,56,0
41.92381,42.585575,56,58,0
42.585575,42.80063,57,57,0
42.80063,43.241802,59,58,0
43.241802,43.68298,62,58,0
43.68298,43.79619,60,58,0
44.022602,44.10751,59,58,0
44.13581,45.01816,57,60,0
45.01816,45.467598,45,61,0
45.01816,45.467598,54,68,0
45.467598,45.91536,55,68,0
45.467598,45.91536,47,61,0
45.91536,46.35492,60,65,0
45.91536,46.35492,48,58,0
46.35492,46.81502,59,65,0
46.35492,46.81502,50,58,0
46.81502,47.15084,57,68,0
47.15084,47.271324,59,62,0
46.81502,47.271324,50,61,0
47.271324,48.180416,57,62,0
47.271324,48.180416,50,55,0
48.180416,48.622276,55,59,0
48.180416,48.622276,43,52,0
48.64553,49.12172,55,67,0
48.64553,49.12172,53,62,0
49.12172,49.783485,64,66,0
49.783485,49.99854,62,64,0
49.99854,50.439713,60,66,0
49.12172,50.439713,52,63,0
50.439713,50.88089,62,66,0
50.439713,50.88089,50,59,0
50.88089,51.33372,60,66,0
51.33372,51.664604,59,68,0
51.664604,51.774895,57,73,0
50.88089,51.995483,55,66,0
51.995483,52.105778,53,73,0
51.774895,52.216072,59,66,0
52.216072,52.323986,52,76,0
52.4319,52.539814,50,73,0
52.216072,52.647728,55,71,0
52.647728,53.307487,60,70,0
53.307487,53.416576,59,63,0
53.52567,53.63556,57,64,0
53.74545,53.859516,59,68,0
52.647728,53.973587,48,62,0
53.973587,54.085526,60,68,0
54.197464,54.309406,59,66,0
53.973587,54.42989,47,68,0
54.42989,54.882717,57,66,0
54.882717,55.2136,56,68,0
55.2136,55.323895,54,68,0
54.42989,55.544483,52,66,0
55.544483,55.654778,50,76,0
55.323895,55.76507,56,62,0
55.76507,55.878708,48,79,0
55.992344,56.10598,45,76,0
55.76507,56.219616,52,74,0
56.219616,56.88138,57,66,0
56.219616,56.88138,48,59,0
56.219616,56.88138,45,59,0
56.88138,57.09643,59,64,0
56.88138,57.09643,52,57,0
57.09643,57.53761,60,66,0
57.09643,57.53761,57,59,0
57.53761,57.978786,62,66,0
57.53761,57.978786,59,59,0
57.978786,58.408974,64,66,0
57.978786,58.408974,60,59,0
58.431614,58.54031,52,76,0
58.649006,58.76351,53,77,0
58.431614,59.31919,64,76,0
59.31919,59.642933,62,62,0
59.31919,59.642933,65,70,0
59.642933,59.74545,64,66,0
59.642933,59.74545,60,59,0
59.750847,60.19202,64,70,0
59.750847,60.19202,60,62,0
58.878014,60.19202,55,84,0
60.19202,60.519695,62,66,0
60.19202,60.519695,59,59,0
60.519695,60.623333,60,63,0
60.519695,60.623333,57,57,0
60.19202,60.628784,56,59,0
60.628784,61.076702,60,66,0
60.628784,61.076702,57,59,0
61.076702,61.431034,60,64,0
61.431034,61.55815,62,63,0
61.431034,61.55815,59,63,0
61.076702,61.55815,50,57,0
61.55815,62.48094,57,56,0
61.55815,62.48094,60,63,0
62.48094,62.708214,59,57,0
62.48094,62.708214,56,52,0
61.55815,62.708214,52,56,0
62.935486,63.39003,52,74,0
63.39003,64.051796,57,66,0
63.39003,64.051796,48,59,0
63.39003,64.051796,45,59,0
64.051796,64.266846,59,64,0
64.051796,64.266846,52,57,0
64.266846,64.59773,57,59,0
64.266846,64.59773,60,67,0
64.59773,64.70802,52,53,0
64.59773,64.70802,59,63,0
64.70802,65.03891,57,57,0
64.70802,65.03891,60,68,0
65.03891,65.1492,59,52,0
65.03891,65.1492,62,54,0
65.1492,65.57939,60,59,0
65.1492,65.57939,64,66,0
65.60203,66.48961,64,76,0
65.60203,66.48961,67,76,0
67.141846,67.252144,65,75,0
67.362434,67.468445,64,71,0
67.57445,67.68046,62,71,0
66.48961,68.119675,70,75,0
66.48961,68.119675,67,75,0
68.119675,68.203316,67,63,0
67.78837,68.2312,61,66,0
68.2312,68.3395,65,65,0
68.55611,68.64199,64,59,0
68.8912,69.001495,60,71,0
69.109406,69.215416,59,71,0
69.32143,69.42743,57,71,0
68.670616,69.86743,62,71,0
69.86743,69.95107,62,63,0
69.536125,69.97895,56,66,0
69.97895,70.08687,60,65,0
70.3027,70.387924,59,59,0
70.63692,70.747215,55,71,0
70.854744,70.964226,54,71,0
71.073715,71.183205,52,71,0
71.50622,71.58986,56,63,0
70.41633,71.617744,57,71,0
71.292694,71.72927,51,66,0
71.72927,71.84079,54,65,0
71.95232,72.03596,56,59,0
72.17578,72.28731,57,71,0
72.398415,72.50912,59,73,0
72.61928,72.729034,60,74,0
72.83839,72.94722,62,75,0
73.05671,73.16741,60,76,0
73.27935,73.392555,59,75,0
73.50692,73.6223,57,73,0
72.17578,73.66077,52,59,0
73.86374,73.958275,59,70,0
73.86374,73.958275,52,58,0
73.989784,74.99819,59,70,0
73.989784,74.99819,52,58,0
74.99819,75.502396,57,71,0
74.99819,75.502396,45,59,0
76.36651,76.784,52,23,0
76.36651,76.784,56,23,0
76.36651,76.784,59,27,0
77.217964,77.63653,60,27,0
77.217964,77.63653,57,23,0
77.217964,77.63653,52,23,0
78.07278,78.49134,52,23,0
78.07278,78.49134,54,23,0
78.07278,78.49134,57,27,0
78.925125,79.341545,52,23,0
78.925125,79.341545,56,23,0
78.925125,79.341545,59,27,0
79.341545,79.77551,52,32,0
79.341545,79.77551,40,27,0
79.77551,80.19087,52,25,0
79.77551,80.19087,59,25,0
79.77551,80.19087,62,31,0
80.62327,81.03969,60,38,0
80.62327,81.03969,57,32,0
80.62327,81.03969,52,32,0
81.03969,81.47278,52,38,0
81.03969,81.47278,40,33,0
81.47278,81.89027,52,37,0
81.47278,81.89027,57,37,0
81.47278,81.89027,60,45,0
81.47278,81.89027,54,37,0
82.33308,82.56035,59,78,0
82.33308,82.56035,56,63,0
82.33308,82.56035,52,57,0
82.56035,82.786766,52,63,0
82.56035,82.786766,40,57,0
82.786766,83.44853,52,66,0
82.786766,83.44853,44,59,0
83.44853,83.66358,52,64,0
83.44853,83.66358,45,57,0
83.66358,84.10476,52,66,0
83.66358,84.10476,47,59,0
84.10476,84.54594,52,66,0
84.10476,84.54594,45,59,0
84.54594,84.65914,52,66,0
84.54594,84.65914,50,59,0
84.88556,84.97046,52,66,0
84.88556,84.97046,48,59,0
84.998764,85.88112,52,73,0
84.998764,85.88112,47,64,0
85.88112,86.312775,52,62,0
85.88112,86.312775,62,70,0
85.88112,86.312775,50,62,0
86.312775,86.753944,60,70,0
86.312775,86.753944,52,62,0
86.312775,86.753944,48,62,0
86.753944,87.19071,57,66,0
86.753944,87.19071,45,59,0
86.753944,87.19071,52,59,0
87.19071,87.638626,56,69,0
87.19071,87.638626,44,62,0
87.19071,87.638626,52,62,0
87.638626,88.09493,54,70,0
87.638626,88.09493,42,57,0
87.638626,88.09493,52,57,0
88.09493,88.56368,52,67,0
88.09493,88.56368,40,56,0
88.56368,89.49067,40,76,0
88.56368,89.49067,28,66,0
89.49067,89.95221,52,63,0
89.49067,89.95221,40,56,0
89.95221,90.62135,56,66,0
89.95221,90.62135,52,56,0
89.95221,90.62135,50,56,0
90.62135,90.8364,57,64,0
90.62135,90.8364,52,54,0
90.62135,90.8364,48,54,0
90.8364,91.27758,59,66,0
90.8364,91.27758,52,56,0
90.8364,91.27758,47,56,0
91.27758,91.71876,62,66,0
91.27758,91.71876,52,56,0
91.27758,91.71876,50,56,0
91.71876,91.83196,60,66,0
91.71876,91.83196,52,56,0
91.71876,91.83196,48,56,0
92.05838,92.14329,59,66,0
92.05838,92.14329,52,56,0
92.05838,92.14329,47,56,0
92.171585,93.05394,57,68,0
92.171585,93.05394,52,57,0
92.171585,93.05394,45,57,0
93.05394,93.52087,33,65,0
93.05394,93.52087,45,74,0
93.52087,94.00086,47,74,0
93.52087,94.00086,35,65,0
94.00086,94.46598,48,69,0
94.00086,94.46598,36,62,0
94.46598,94.94029,50,69,0
94.46598,94.94029,38,62,0
94.94029,95.435455,50,74,0
94.94029,95.435455,38,65,0
95.435455,95.88658,43,73,0
95.435455,95.88658,31,63,0
95.88658,96.8392,55,90,0
95.88658,96.8392,43,77,0
96.8392,97.36094,53,78,0
96.8392,97.36094,41,69,0
97.36094,97.84287,52,70,0
97.36094,97.84287,40,66,0
97.36094,97.84287,43,66,0
97.36094,97.84287,48,66,0
97.84287,98.74804,64,66,0
97.84287,98.74804,52,66,0
97.84287,98.74804,55,66,0
97.84287,98.74804,60,66,0
98.74804,99.20087,50,69,0
98.74804,99.20087,38,57,0
99.20087,99.66779,55,57,0
99.20087,99.66779,43,48,0
99.66779,100.34197,43,57,0
99.66779,100.34197,31,48,0
100.34197,100.56838,53,69,0
100.34197,100.56838,41,59,0
100.56838,100.7408,52,73,0
100.56838,100.7408,40,61,0
100.79827,100.97068,50,69,0
100.79827,100.97068,38,59,0
101.02815,101.48617,48,71,0
101.02815,101.48617,36,66,0
101.48617,102.37968,60,66,0
101.48617,102.37968,48,66,0
101.48617,102.37968,52,66,0
101.48617,102.37968,57,66,0
102.37968,102.83769,47,71,0
102.37968,102.83769,35,67,0
102.83769,103.29923,52,69,0
102.83769,103.29923,40,57,0
103.29923,103.97341,40,69,0
103.29923,103.97341,28,57,0
103.97341,104.19646,50,76,0
103.97341,104.19646,38,63,0
104.19646,104.3738,48,79,0
104.19646,104.3738,36,67,0
104.43478,104.62498,47,76,0
104.43478,104.62498,35,63,0
104.690765,104.91633,45,76,0
104.690765,104.91633,33,65,0
104.91633,105.14105,52,69,0
104.91633,105.14105,40,57,0
105.14105,105.36493,48,74,0
105.14105,105.36493,36,60,0
105.36493,105.58076,52,69,0
105.36493,105.58076,40,57,0
105.58076,105.804634,57,75,0
105.58076,105.804634,45,62,0
105.804634,106.02852,52,69,0
105.804634,106.02852,40,57,0
106.02852,106.25494,59,75,0
106.02852,106.25494,47,62,0
106.25494,106.481346,52,69,0
106.25494,106.481346,40,57,0
106.481346,106.70523,60,76,0
106.481346,106.70523,48,63,0
106.70523,106.92911,59,69,0
106.70523,106.92911,47,57,0
106.92911,107.1465,60,70,0
106.92911,107.1465,48,58,0
107.1465,107.370766,62,73,0
107.1465,107.370766,50,59,0
107.370766,107.59217,64,74,0
107.370766,107.59217,52,60,0
107.59217,107.81357,55,67,0
107.59217,107.81357,43,56,0
107.81357,108.024925,57,70,0
107.81357,108.024925,45,58,0
108.024925,108.24633,59,74,0
108.024925,108.24633,47,60,0
108.24633,108.46234,60,76,0
108.24633,108.46234,48,63,0
108.46234,108.67836,52,67,0
108.46234,108.67836,40,56,0
108.67836,108.89241,54,69,0
108.67836,108.89241,42,57,0
108.89241,109.113,56,70,0
108.89241,109.113,44,58,0
109.113,109.33941,57,73,0
109.113,109.33941,45,59,0
109.33941,109.56283,48,69,0
109.33941,109.56283,36,57,0
109.56283,109.79414,53,74,0
109.56283,109.79414,41,60,0
109.79414,110.03429,50,69,0
109.79414,110.03429,38,57,0
110.03429,110.260704,52,75,0
110.03429,110.260704,40,62,0
110.260704,110.48712,51,69,0
110.260704,110.48712,39,57,0
110.48712,110.71353,52,69,0
110.48712,110.71353,40,57,0
110.71353,110.93995,51,69,0
110.71353,110.93995,39,57,0
110.93995,111.16637,52,74,0
110.93995,111.16637,40,60,0
111.16637,111.39278,50,69,0
111.16637,111.39278,38,57,0
111.39278,111.61535,47,69,0
111.39278,111.61535,35,57,0
111.61535,111.83791,48,69,0
111.61535,111.83791,36,57,0
111.83791,112.058914,45,76,0
111.83791,112.058914,33,65,0
112.058914,112.27829,40,57,0
112.058914,112.27829,52,69,0
112.27829,112.496475,48,74,0
112.27829,112.496475,36,60,0
112.496475,112.70849,52,69,0
112.496475,112.70849,40,57,0
112.70849,112.92588,57,75,0
112.70849,112.92588,45,62,0
112.92588,113.14327,52,69,0
112.92588,113.14327,40,57,0
113.14327,113.36066,57,75,0
113.14327,113.36066,45,62,0
113.36066,113.57805,47,57,0
113.36066,113.57805,59,69,0
113.57805,113.79978,48,63,0
113.57805,113.79978,60,76,0
113.79978,114.02151,47,57,0
113.79978,114.02151,59,69,0
114.02151,114.2344,60,70,0
114.02151,114.2344,48,58,0
114.2344,114.458664,62,73,0
114.2344,114.458664,50,59,0
114.458664,114.677086,52,60,0
114.458664,114.677086,64,74,0
114.677086,114.8955,65,67,0
114.677086,114.8955,53,56,0
114.8955,115.11977,55,58,0
114.8955,115.11977,67,70,0
115.11977,115.35862,57,60,0
115.11977,115.35862,69,74,0
115.35862,115.579506,70,76,0
115.35862,115.579506,58,62,0
115.579506,115.800385,67,77,0
115.579506,115.800385,55,66,0
115.800385,116.013145,64,75,0
115.800385,116.013145,52,62,0
116.013145,116.225914,62,75,0
116.013145,116.225914,50,62,0
116.55285,116.66455,67,66,0
116.225914,116.66455,61,69,0
116.225914,116.66455,49,65,0
116.66455,117.011536,65,68,0
117.011536,117.13602,64,62,0
117.13602,117.356895,62,77,0
117.13602,117.356895,50,65,0
117.356895,117.46734,60,74,0
117.356895,117.46734,48,65,0
117.577774,117.68454,59,74,0
117.577774,117.68454,47,65,0
117.7913,117.903435,57,74,0
117.7913,117.903435,45,65,0
118.34249,118.4542,62,66,0
118.015564,118.4542,56,73,0
118.015564,118.4542,44,59,0
118.4542,118.801186,60,68,0
118.801186,118.92567,59,62,0
118.92567,119.14739,57,73,0
118.92567,119.14739,45,65,0
119.14739,119.25826,55,73,0
119.14739,119.25826,43,63,0
119.369125,119.47753,54,74,0
119.369125,119.47753,42,65,0
119.58593,119.698494,52,74,0
119.58593,119.698494,40,65,0
119.81106,120.0313,51,73,0
119.81106,120.0313,39,59,0
120.0313,120.14282,56,49,0
120.25435,120.36344,54,53,0
120.472534,120.58162,56,48,0
120.69071,120.79786,52,52,0
120.69071,120.79786,40,48,0
120.905,121.0153,59,54,0
121.12559,121.232346,60,55,0
121.33911,121.4486,62,57,0
121.55809,121.664276,60,58,0
121.77046,121.87823,59,58,0
121.98599,122.092964,57,57,0
122.19993,122.3069,52,56,0
122.413864,122.5195,57,57,0
122.62513,122.73329,59,58,0
122.84145,122.946724,60,62,0
123.05199,123.16055,62,64,0
123.26913,123.374756,60,65,0
123.48039,123.58602,59,66,0
123.69166,123.79619,57,65,0
123.90072,124.00525,56,63,0
123.90072,124.00525,47,53,0
123.90072,124.00525,44,53,0
124.10978,124.21541,48,56,0
124.10978,124.21541,57,66,0
124.10978,124.21541,45,56,0
124.321045,124.42921,59,68,0
124.321045,124.42921,50,57,0
124.321045,124.42921,47,57,0
124.53737,124.640816,60,69,0
124.53737,124.640816,52,58,0
124.53737,124.640816,48,58,0
124.74426,124.8499,62,70,0
124.74426,124.8499,53,58,0
124.74426,124.8499,50,58,0
124.955536,125.061165,60,71,0
124.955536,125.061165,52,59,0
124.955536,125.061165,48,59,0
125.1668,125.27244,59,70,0
125.1668,125.27244,50,58,0
125.1668,125.27244,47,58,0
125.37807,125.48328,57,68,0
125.37807,125.48328,48,57,0
125.37807,125.48328,45,57,0
125.58781,125.69234,56,67,0
125.58781,125.69234,47,57,0
125.58781,125.69234,44,57,0
125.79687,125.901764,57,66,0
125.79687,125.901764,48,56,0
125.79687,125.901764,45,56,0
126.00666,126.11482,59,67,0
126.00666,126.11482,50,56,0
126.00666,126.11482,47,56,0
126.222984,126.32825,60,68,0
126.222984,126.32825,52,57,0
126.222984,126.32825,48,57,0
126.43351,126.542076,62,69,0
126.43351,126.542076,53,58,0
126.43351,126.542076,50,58,0
126.65065,126.75591,60,71,0
126.65065,126.75591,52,59,0
126.65065,126.75591,48,59,0
126.861176,126.96644,59,71,0
126.861176,126.96644,50,59,0
126.861176,126.96644,47,59,0
127.0717,127.17696,57,68,0
127.0717,127.17696,48,57,0
127.0717,127.17696,45,57,0
127.28223,127.39212,56,67,0
127.28223,127.39212,47,57,0
127.28223,127.39212,44,57,0
127.501434,127.66196,57,71,0
127.501434,127.66196,48,54,0
127.501434,127.66196,45,54,0
127.71572,127.877335,44,52,0
127.71572,127.877335,56,65,0
127.71572,127.877335,47,52,0
127.93129,128.09361,45,54,0
127.93129,128.09361,57,71,0
127.93129,128.09361,48,54,0
128.14777,128.31088,44,51,0
128.14777,128.31088,56,64,0
128.14777,128.31088,47,51,0
128.36542,128.52925,45,54,0
128.36542,128.52925,57,71,0
128.36542,128.52925,48,54,0
128.584,128.74857,44,51,0
128.584,128.74857,56,64,0
128.584,128.74857,47,51,0
128.80351,128.97012,45,54,0
128.80351,128.97012,57,71,0
128.80351,128.97012,48,54,0
129.02644,129.19798,44,50,0
129.02644,129.19798,56,63,0
129.02644,129.19798,47,50,0
129.25575,129.72267,45,54,0
129.25575,129.72267,57,71,0
129.25575,129.72267,48,54,0
129.72267,130.20863,41,53,0
129.72267,130.20863,53,66,0
129.72267,130.20863,45,53,0
130.20863,130.70247,40,53,0
130.20863,130.70247,52,66,0
130.20863,130.70247,44,53,0
130.70247,131.07283,47,67,0
131.07283,131.19629,48,58,0
130.70247,131.19629,52,67,0
130.70247,131.19629,40,52,0
131.19629,132.20895,52,67,0
131.19629,132.20895,47,52,0
131.19629,132.20895,40,52,0
132.20895,132.71527,45,62,0
132.20895,132.71527,33,49,0
133.56555,133.98412,57,38,0
133.56555,133.98412,60,38,0
133.56555,133.98412,64,46,0
134.41602,134.83398,65,46,0
134.41602,134.83398,62,38,0
134.41602,134.83398,57,38,0
135.26746,135.6871,57,39,0
135.26746,135.6871,59,39,0
135.26746,135.6871,62,48,0
136.11813,136.5367,57,33,0
136.11813,136.5367,60,33,0
136.11813,136.5367,64,38,0
136.9686,137.38716,57,32,0
136.9686,137.38716,64,32,0
136.9686,137.38716,67,37,0
137.81886,138.23743,65,36,0
137.81886,138.23743,62,28,0
137.81886,138.23743,57,28,0
138.66846,139.08702,57,27,0
138.66846,139.08702,62,27,0
138.66846,139.08702,65,33,0
138.66846,139.08702,59,27,0
139.2911,139.45654,64,35,0
139.2911,139.45654,57,26,0
139.2911,139.45654,60,26,0
139.51169,139.93134,57,26,0
139.51169,139.93134,62,26,0
139.51169,139.93134,65,34,0
140.13681,140.30225,64,37,0
140.13681,140.30225,60,28,0
140.13681,140.30225,57,28,0
140.35739,140.77483,57,27,0
140.35739,140.77483,62,27,0
140.35739,140.77483,65,34,0
140.77483,141.19383,60,27,0
140.77483,141.19383,64,34,0
141.19383,141.61063,65,31,0
141.19383,141.61063,62,25,0
141.61063,141.81897,60,25,0
141.61063,141.81897,64,32,0
141.81897,142.02516,65,32,0
141.81897,142.02516,62,25,0
140.77483,142.02516,57,27,0
142.02516,142.44196,60,27,0
142.02516,142.44196,64,33,0
142.44196,142.85945,65,29,0
142.44196,142.85945,62,24,0
142.85945,143.06998,64,28,0
142.85945,143.06998,60,24,0
143.06998,143.2805,65,28,0
143.06998,143.2805,62,24,0
142.02516,143.2805,57,33,0
145.89468,149.20107,45,31,0
143.2805,149.20107,57,25,0
143.2805,149.20107,64,32,0
143.2805,149.20107,60,25,0
145.89468,149.20107,33,25,0
