start_time,end_time,note_value,velocity,instrument_program_number
1.0104352,1.4923627,66,46,0
1.4923627,1.9742903,67,42,0
1.4923627,1.9742903,55,35,0
1.9742903,2.458232,57,43,0
1.9742903,2.458232,69,51,0
2.458232,2.9363196,71,54,0
2.458232,2.9363196,59,45,0
2.9363196,3.414407,57,40,0
2.9363196,3.414407,69,48,0
3.414407,3.9300365,67,42,0
3.414407,3.9300365,55,35,0
3.9300365,4.9016967,54,39,0
3.9300365,4.9016967,66,47,0
4.9016967,5.3875265,57,45,0
4.9016967,5.3875265,69,53,0
5.3875265,5.8733563,59,46,0
5.3875265,5.8733563,71,55,0
5.8733563,6.3591866,61,52,0
5.8733563,6.3591866,73,62,0
6.3591866,6.841114,74,65,0
6.3591866,6.841114,62,55,0
6.841114,7.3230414,61,49,0
6.841114,7.3230414,73,58,0
7.3230414,7.839929,59,47,0
7.3230414,7.839929,71,56,0
7.839929,8.325759,64,53,0
7.839929,8.325759,76,63,0
8.325759,8.811589,66,56,0
8.325759,8.811589,78,66,0
8.811589,9.046883,76,65,0
8.811589,9.046883,64,55,0
9.046883,9.282177,63,45,0
9.046883,9.282177,75,53,0
9.282177,9.399824,61,46,0
9.282177,9.399824,73,55,0
9.517471,9.6508045,71,50,0
9.517471,9.6508045,59,42,0
9.784138,10.269968,62,48,0
9.784138,10.269968,74,57,0
10.269968,10.755797,64,49,0
10.269968,10.755797,76,58,0
10.755797,10.989261,74,62,0
10.755797,10.989261,62,52,0
10.989261,11.222724,61,48,0
10.989261,11.222724,73,57,0
11.222724,11.339456,71,50,0
11.222724,11.339456,59,42,0
11.456186,11.586057,73,50,0
11.456186,11.586057,61,42,0
11.715927,12.201757,74,50,0
11.715927,12.201757,62,42,0
12.201757,12.687587,61,39,0
12.201757,12.687587,73,47,0
12.687587,13.202608,71,50,0
12.687587,13.202608,59,42,0
13.202608,13.688438,64,39,0
13.202608,13.688438,76,46,0
13.688438,14.170366,62,46,0
13.688438,14.170366,74,55,0
14.170366,14.652293,73,50,0
14.170366,14.652293,61,42,0
14.652293,15.416669,59,45,0
14.652293,15.416669,71,54,0
15.416669,15.663582,71,50,0
15.663582,15.904546,70,58,0
15.904546,16.14551,71,62,0
15.904546,16.14551,68,52,0
16.14551,16.386473,73,64,0
16.14551,16.386473,69,54,0
16.386473,16.627438,74,69,0
16.386473,16.627438,71,58,0
16.627438,16.86648,74,60,0
16.627438,16.86648,78,71,0
16.86648,17.105524,76,72,0
16.86648,17.105524,73,60,0
17.105524,17.354486,71,56,0
17.105524,17.354486,74,66,0
17.354486,17.630985,69,54,0
17.354486,17.630985,73,64,0
17.630985,17.86814,73,54,0
17.630985,17.86814,76,64,0
17.86814,18.105293,74,52,0
18.105293,18.360613,66,57,0
18.642303,19.148668,71,70,0
18.360613,19.148668,68,60,0
19.148668,20.646612,69,58,0
22.677397,23.159325,66,46,0
23.159325,23.641253,67,42,0
23.159325,23.641253,55,35,0
23.641253,24.125195,57,43,0
23.641253,24.125195,69,51,0
24.125195,24.603281,71,54,0
24.125195,24.603281,59,45,0
24.603281,25.08137,57,40,0
24.603281,25.08137,69,48,0
25.08137,25.596998,67,42,0
25.08137,25.596998,55,35,0
25.596998,26.568659,54,39,0
25.596998,26.568659,66,47,0
26.568659,27.05449,57,45,0
26.568659,27.05449,69,53,0
27.05449,27.54032,59,46,0
27.05449,27.54032,71,55,0
27.54032,28.026148,61,52,0
27.54032,28.026148,73,62,0
28.026148,28.508076,74,65,0
28.026148,28.508076,62,55,0
28.508076,28.990004,61,49,0
28.508076,28.990004,73,58,0
28.990004,29.506891,59,47,0
28.990004,29.506891,71,56,0
29.506891,29.992722,64,53,0
29.506891,29.992722,76,63,0
29.992722,30.478552,66,56,0
29.992722,30.478552,78,66,0
30.478552,30.713844,76,65,0
30.478552,30.713844,64,55,0
30.713844,30.949139,63,45,0
30.713844,30.949139,75,53,0
30.949139,31.066786,61,46,0
30.949139,31.066786,73,55,0
31.184433,31.317766,71,50,0
31.184433,31.317766,59,42,0
31.4511,31.93693,62,48,0
31.4511,31.93693,74,57,0
31.93693,32.42276,64,49,0
31.93693,32.42276,76,58,0
32.42276,32.656223,74,62,0
32.42276,32.656223,62,52,0
32.656223,32.889687,61,48,0
32.656223,32.889687,73,57,0
32.889687,33.006416,71,50,0
32.889687,33.006416,59,42,0
33.12315,33.253017,73,50,0
33.12315,33.253017,61,42,0
33.38289,33.868717,74,50,0
33.38289,33.868717,62,42,0
33.868717,34.35455,61,39,0
33.868717,34.35455,73,47,0
34.35455,34.86957,71,50,0
34.35455,34.86957,59,42,0
34.86957,35.3554,64,39,0
34.86957,35.3554,76,46,0
35.3554,35.83733,62,46,0
35.3554,35.83733,74,55,0
35.83733,36.319256,73,50,0
35.83733,36.319256,61,42,0
36.319256,37.08363,59,45,0
36.319256,37.08363,71,54,0
37.08363,37.330544,71,50,0
37.330544,37.571507,70,58,0
37.571507,37.812473,71,62,0
37.571507,37.812473,68,52,0
37.812473,38.053436,73,64,0
37.812473,38.053436,69,54,0
38.053436,38.2944,74,69,0
38.053436,38.2944,71,58,0
38.2944,38.533443,74,60,0
38.2944,38.533443,78,71,0
38.533443,38.772488,76,72,0
38.533443,38.772488,73,60,0
38.772488,39.02145,71,56,0
38.772488,39.02145,74,66,0
39.02145,39.297947,69,54,0
39.02145,39.297947,73,64,0
39.297947,39.535103,73,54,0
39.297947,39.535103,76,64,0
39.535103,39.772255,74,52,0
39.772255,40.027576,66,57,0
40.309265,40.81563,71,70,0
40.027576,40.81563,68,60,0
40.81563,42.313572,69,58,0
44.34436,44.823254,60,55,0
44.34436,44.823254,72,65,0
44.34436,44.823254,69,55,0
44.34436,44.823254,66,55,0
44.848568,45.379433,60,53,0
44.848568,45.379433,72,63,0
44.848568,45.379433,69,53,0
44.848568,45.379433,66,53,0
45.379433,46.399788,71,70,0
45.379433,46.399788,59,59,0
45.379433,46.399788,66,59,0
45.379433,46.399788,69,59,0
46.399788,46.876774,60,60,0
46.399788,46.876774,72,71,0
46.399788,46.876774,69,60,0
46.399788,46.876774,66,60,0
46.90188,47.431995,60,58,0
46.90188,47.431995,72,69,0
46.90188,47.431995,69,58,0
46.90188,47.431995,66,58,0
47.431995,48.465786,71,77,0
47.431995,48.465786,59,64,0
47.431995,48.465786,66,64,0
47.431995,48.465786,69,64,0
48.465786,48.95089,62,66,0
48.465786,48.95089,74,78,0
48.465786,48.95089,71,66,0
48.465786,48.95089,68,66,0
48.976425,49.518826,62,63,0
48.976425,49.518826,74,75,0
48.976425,49.518826,71,63,0
48.976425,49.518826,68,63,0
49.518826,50.53843,73,84,0
49.518826,50.53843,61,70,0
49.518826,50.53843,68,70,0
49.518826,50.53843,71,70,0
50.53843,51.05221,62,72,0
50.53843,51.05221,74,85,0
50.53843,51.05221,71,72,0
50.53843,51.05221,68,72,0
51.07841,51.627502,62,69,0
51.07841,51.627502,74,82,0
51.07841,51.627502,71,69,0
51.07841,51.627502,68,69,0
51.627502,52.653954,73,92,0
51.627502,52.653954,61,77,0
51.627502,52.653954,68,77,0
51.627502,52.653954,71,77,0
52.653954,53.147594,78,89,0
53.17313,53.718304,66,68,0
53.17313,53.718304,78,81,0
53.718304,54.22894,78,94,0
53.718304,54.22894,67,78,0
54.22894,54.742634,68,62,0
54.22894,54.742634,76,74,0
54.771343,55.28636,69,72,0
54.771343,55.28636,76,85,0
55.28636,55.543873,74,77,0
55.543873,55.801384,73,71,0
55.28636,55.801384,70,65,0
55.801384,56.056705,71,78,0
56.056705,56.312023,69,66,0
56.056705,56.312023,73,78,0
56.312023,56.571762,68,69,0
56.571762,56.856125,66,62,0
56.312023,56.856125,74,82,0
56.856125,57.349766,73,89,0
56.856125,57.375298,65,68,0
57.375298,57.92047,61,68,0
57.375298,57.92047,73,81,0
57.92047,58.43111,73,94,0
57.92047,58.43111,62,78,0
58.43111,58.944805,63,62,0
58.43111,58.944805,71,74,0
58.97351,59.488533,64,72,0
58.97351,59.488533,71,85,0
59.488533,59.746044,69,77,0
59.746044,60.003555,68,71,0
59.488533,60.003555,65,65,0
60.003555,60.258873,66,78,0
60.258873,60.514194,64,66,0
60.258873,60.514194,68,78,0
60.514194,60.773933,62,69,0
60.773933,61.058292,61,62,0
60.514194,61.058292,69,82,0
61.058292,61.57208,62,72,0
61.058292,61.57208,66,72,0
61.058292,61.57208,69,85,0
61.598278,62.14737,59,69,0
61.598278,62.14737,71,82,0
61.598278,62.14737,66,69,0
61.598278,62.14737,62,69,0
62.14737,63.173817,73,92,0
62.14737,63.173817,61,77,0
62.14737,63.173817,66,77,0
62.14737,63.173817,69,77,0
63.173817,63.687603,62,73,0
63.173817,63.687603,66,73,0
63.173817,63.687603,69,86,0
63.713802,64.26289,59,70,0
63.713802,64.26289,71,83,0
63.713802,64.26289,66,70,0
63.713802,64.26289,62,70,0
64.26289,65.289345,73,93,0
64.26289,65.289345,61,78,0
64.26289,65.289345,66,78,0
64.26289,65.289345,69,78,0
65.289345,65.81617,62,73,0
65.289345,65.81617,66,73,0
65.289345,65.81617,69,86,0
65.84382,66.47142,59,74,0
65.84382,66.47142,71,88,0
65.84382,66.47142,66,74,0
65.84382,66.47142,62,74,0
66.47142,69.59375,73,106,0
66.47142,69.59375,61,89,0
66.47142,69.59375,66,89,0
66.47142,69.59375,69,89,0
69.59375,70.075676,66,46,0
70.075676,70.5576,67,42,0
70.075676,70.5576,55,35,0
70.5576,71.04154,57,43,0
70.5576,71.04154,69,51,0
71.04154,71.51963,71,54,0
71.04154,71.51963,59,45,0
71.51963,71.99772,57,40,0
71.51963,71.99772,69,48,0
71.99772,72.51335,67,42,0
71.99772,72.51335,55,35,0
72.51335,73.5018,54,39,0
72.51335,73.5018,66,47,0
73.5018,73.98373,54,45,0
73.5018,73.98373,66,53,0
73.98373,74.467606,55,46,0
73.98373,74.467606,67,55,0
74.467606,74.94479,57,52,0
74.467606,74.94479,69,62,0
74.94479,75.42672,71,65,0
74.94479,75.42672,59,55,0
75.42672,75.90865,60,65,0
75.42672,75.90865,72,77,0
75.90865,76.42554,62,62,0
75.90865,76.42554,74,73,0
76.42554,77.41319,71,82,0
77.41319,77.899025,69,72,0
77.899025,78.38485,71,75,0
78.38485,78.62015,69,74,0
78.62015,78.85544,68,60,0
78.85544,78.97308,66,63,0
79.09074,79.22407,64,57,0
76.42554,79.3574,59,65,0
79.3574,79.84323,67,72,0
79.84323,80.32906,69,75,0
80.32906,80.564354,67,74,0
80.564354,80.79965,66,60,0
80.79965,80.9173,64,63,0
81.03494,81.168274,66,57,0
79.3574,81.30161,57,63,0
81.30161,81.78744,67,50,0
81.30161,81.78744,62,42,0
81.78744,82.27327,57,39,0
81.78744,82.27327,66,47,0
82.27327,82.53078,59,42,0
82.53078,82.78829,61,42,0
82.27327,82.78829,64,50,0
82.78829,83.274124,62,39,0
82.78829,83.274124,69,46,0
83.274124,83.75605,62,46,0
83.274124,83.75605,67,55,0
83.75605,84.237976,66,50,0
83.75605,84.237976,57,42,0
84.237976,84.96458,64,54,0
84.237976,84.97075,59,45,0
84.97075,85.21767,64,50,0
85.21767,85.458626,63,58,0
85.458626,85.69959,64,62,0
85.458626,85.69959,61,52,0
85.69959,85.94056,66,64,0
85.69959,85.94056,62,54,0
85.94056,86.18152,67,69,0
85.94056,86.18152,64,58,0
86.18152,86.42056,67,60,0
86.18152,86.42056,71,71,0
86.42056,86.65961,69,72,0
86.42056,86.65961,66,60,0
86.65961,86.90252,64,56,0
86.65961,86.90252,67,66,0
86.90252,87.156136,66,64,0
87.156136,87.393295,66,54,0
87.156136,87.393295,69,64,0
87.393295,87.63045,67,52,0
87.63045,87.885765,64,57,0
87.885765,88.16746,61,60,0
88.16746,88.89825,69,63,0
88.89825,89.145164,78,55,0
89.145164,89.38612,75,63,0
89.38612,89.62709,76,68,0
89.38612,89.62709,73,57,0
89.62709,89.86805,78,70,0
89.62709,89.86805,74,59,0
89.86805,90.10902,79,75,0
89.86805,90.10902,76,63,0
90.10902,90.34806,79,66,0
90.10902,90.34806,83,78,0
90.34806,90.587105,81,79,0
90.34806,90.587105,78,66,0
90.587105,90.83002,76,61,0
90.587105,90.83002,79,72,0
90.83002,91.08363,78,70,0
90.83002,91.08363,74,67,0
91.08363,91.32079,73,59,0
91.08363,91.32079,76,70,0
91.32079,91.557945,74,57,0
91.32079,91.557945,71,48,0
91.557945,91.81326,73,62,0
91.557945,91.81326,69,52,0
91.81326,92.094955,71,66,0
91.81326,92.094955,67,56,0
92.094955,92.598404,69,59,0
92.61792,93.1222,66,69,0
92.61792,93.1222,74,69,0
93.1222,93.632835,66,63,0
93.632835,94.1636,67,70,0
94.1636,94.66993,69,74,0
94.66993,95.193214,71,70,0
95.193214,95.95271,64,66,0
95.95271,96.22231,66,54,0
96.22231,96.72864,62,59,0
97.26179,97.75159,74,64,0
97.75159,98.27487,71,54,0
98.27487,98.781204,69,59,0
99.28753,99.77733,74,64,0
99.77733,100.30061,71,54,0
100.30061,100.806946,69,59,0
101.31327,101.80307,74,64,0
101.80307,102.326355,71,54,0
102.326355,102.82428,69,59,0
102.82428,103.0796,66,59,0
103.33492,103.583885,67,59,0
103.83285,104.08601,64,59,0
104.3735,104.87982,62,59,0
105.41298,105.90277,74,54,0
105.41298,105.90277,86,64,0
105.90277,106.426056,71,45,0
105.90277,106.426056,83,54,0
106.426056,106.91988,69,50,0
106.426056,106.91988,81,59,0
106.91988,107.17305,66,50,0
106.91988,107.17305,78,59,0
107.426216,107.67938,67,50,0
107.426216,107.67938,79,59,0
107.93254,108.18571,64,50,0
107.93254,108.18571,76,59,0
108.45313,108.832886,62,50,0
108.45313,108.832886,74,59,0
109.48275,109.60934,62,42,0
109.60934,109.735916,66,38,0
109.735916,109.8625,69,37,0
109.8625,109.98908,67,30,0
109.98908,110.11566,66,45,0
110.11566,110.24225,69,33,0
110.24225,110.36883,66,38,0
110.36883,110.50836,67,34,0
110.50836,110.63495,69,43,0
110.63495,110.76153,74,34,0
110.76153,110.88811,78,38,0
110.88811,111.014694,76,34,0
111.014694,111.14127,74,46,0
111.14127,111.26786,78,34,0
111.26786,111.39444,81,38,0
111.39444,111.53397,79,33,0
111.53397,111.66164,78,45,0
111.66164,111.78929,81,32,0
111.78929,111.916954,78,38,0
111.916954,112.05148,79,34,0
112.05148,112.18601,81,45,0
112.18601,112.32686,86,33,0
112.32686,112.480705,90,38,0
112.480705,112.65822,88,34,0
112.65822,112.915726,81,43,0
112.65822,112.915726,86,43,0
0.1214575,0.27327937,50,25,0
0.242915,0.3947369,49,32,0
0.3643725,0.5161944,50,28,0
0.48583,0.63765186,49,32,0
0.6072875,0.7639563,50,28,0
0.728745,0.9048014,49,35,0
0.8695901,1.0104352,50,28,0
1.0104352,1.1309171,54,36,0
1.1309171,1.251399,50,29,0
1.251399,1.4020014,49,35,0
1.3718809,1.4923627,50,28,0
1.4923627,1.6128446,40,34,0
1.6128446,1.7333266,50,28,0
1.7333266,1.8839289,49,36,0
1.8538084,1.9742903,50,33,0
1.9742903,2.0967393,42,40,0
2.0967393,2.2191882,50,29,0
2.2191882,2.3685906,49,34,0
2.33871,2.458232,50,43,0
2.458232,2.5777538,43,50,0
2.5777538,2.6972756,50,39,0
2.6972756,2.846678,49,40,0
2.8167977,2.9363196,50,39,0
2.9363196,3.0558414,42,43,0
3.0558414,3.1753633,50,34,0
3.1753633,3.3247657,49,39,0
3.2948852,3.414407,50,34,0
3.414407,3.5388885,40,45,0
3.5388885,3.6633697,50,34,0
3.6633697,3.8300364,49,38,0
3.796703,3.9300365,50,34,0
3.9300365,4.051494,38,47,0
4.051494,4.1729517,50,31,0
4.1729517,4.3247733,49,34,0
4.294409,4.446231,50,30,0
4.4158664,4.5676885,49,39,0
4.537324,4.689146,50,29,0
4.6587815,4.810603,49,34,0
4.780239,4.9016967,50,31,0
4.9016967,5.0535183,54,48,0
5.023154,5.174976,52,37,0
5.1446114,5.2964334,54,40,0
5.266069,5.417891,52,40,0
5.3875265,5.5393486,56,50,0
5.508984,5.6608057,54,36,0
5.6304417,5.7822633,56,46,0
5.751899,5.8733563,52,49,0
5.8733563,6.0251784,57,55,0
5.994814,6.146636,56,46,0
6.1162715,6.2680936,57,47,0
6.237729,6.3591866,52,53,0
6.3591866,6.509789,59,62,0
6.479668,6.6302705,57,40,0
6.60015,6.7507524,59,48,0
6.720632,6.841114,52,40,0
6.841114,6.9917164,57,53,0
6.961596,7.1121984,56,40,0
7.082078,7.2326803,57,46,0
7.2025595,7.3230414,52,40,0
7.3230414,7.4748635,56,47,0
7.444499,7.600203,54,37,0
7.5659566,7.7371893,56,40,0
7.702943,7.839929,52,38,0
7.839929,7.9613867,49,54,0
7.9613867,8.082844,52,46,0
8.082844,8.204302,58,46,0
8.204302,8.325759,61,49,0
8.325759,8.477581,59,54,0
8.447216,8.599038,58,40,0
8.568674,8.720496,56,49,0
8.690131,8.811589,54,40,0
8.811589,8.929236,59,56,0
8.929236,9.046883,61,40,0
9.046883,9.193942,59,48,0
9.16453,9.311588,58,40,0
9.282177,9.429235,59,50,0
9.399824,9.550804,57,37,0
9.517471,9.684137,56,40,0
9.6508045,9.784138,54,37,0
9.784138,9.93596,56,49,0
9.905595,10.057417,57,40,0
10.027053,10.178875,59,42,0
10.14851,10.269968,57,47,0
10.269968,10.391425,56,51,0
10.391425,10.512883,52,40,0
10.512883,10.664704,54,46,0
10.63434,10.784981,56,40,0
10.755797,10.901712,57,53,0
10.872529,11.018444,59,40,0
10.989261,11.135175,57,46,0
11.105992,11.251906,56,40,0
11.222724,11.368638,57,48,0
11.339456,11.488654,56,40,0
11.456186,11.618525,54,40,0
11.586057,11.715927,53,38,0
11.715927,11.837384,54,47,0
11.837384,11.958842,57,35,0
11.958842,12.110663,56,40,0
12.080299,12.201757,57,36,0
12.201757,12.323215,52,47,0
12.323215,12.444672,57,35,0
12.444672,12.596494,56,40,0
12.56613,12.687587,57,40,0
12.687587,12.816342,50,48,0
12.816342,12.945098,57,37,0
12.945098,13.106042,56,40,0
13.0738535,13.202608,57,37,0
13.202608,13.324066,49,47,0
13.324066,13.445523,57,38,0
13.445523,13.597345,56,40,0
13.566981,13.688438,55,37,0
13.688438,13.80892,54,46,0
13.80892,13.929402,57,37,0
13.929402,14.080005,56,40,0
14.049884,14.170366,57,37,0
14.170366,14.290848,52,47,0
14.290848,14.41133,57,39,0
14.41133,14.561933,56,40,0
14.531812,14.652293,57,39,0
14.652293,14.772776,51,49,0
14.772776,14.893257,57,38,0
14.893257,15.066069,56,40,0
15.031507,15.200619,57,38,0
15.169755,15.293212,54,47,0
15.293212,15.416669,63,37,0
15.416669,15.540125,57,40,0
15.540125,15.663582,54,35,0
15.663582,15.784064,56,48,0
15.784064,15.904546,52,40,0
15.904546,16.025028,50,41,0
16.025028,16.14551,52,45,0
16.14551,16.265991,49,54,0
16.265991,16.386473,52,45,0
16.386473,16.506954,47,52,0
16.506954,16.627438,52,55,0
16.627438,16.74696,44,59,0
16.74696,16.86648,52,45,0
16.86648,16.986002,45,52,0
16.986002,17.105524,54,46,0
17.105524,17.230005,47,53,0
17.230005,17.354486,56,40,0
17.354486,17.492737,49,46,0
17.492737,17.630985,57,40,0
17.630985,17.749561,50,47,0
17.749561,17.86814,54,40,0
17.86814,18.016361,58,40,0
17.986717,18.137209,59,46,0
18.105293,18.264868,52,51,0
18.232954,18.360613,59,40,0
18.360613,18.501457,62,43,0
18.501457,18.642303,64,40,0
18.642303,18.769962,57,57,0
18.769962,18.897623,62,40,0
18.897623,19.023146,64,45,0
19.023146,19.148668,62,40,0
19.148668,19.27419,61,52,0
19.27419,19.431095,59,34,0
19.399714,19.556618,57,40,0
19.525238,19.68188,59,34,0
19.65076,19.806362,61,46,0
19.775242,19.930843,62,34,0
19.899723,20.055325,64,36,0
20.024204,20.179806,66,34,0
20.148685,20.304287,67,40,0
20.273167,20.428768,66,30,0
20.397648,20.55325,67,33,0
20.52213,20.677732,65,30,0
20.646612,20.802214,66,40,0
20.771093,20.926695,65,31,0
20.895575,21.051176,66,35,0
21.020056,21.175657,62,30,0
21.144537,21.300138,65,40,0
21.269018,21.425415,64,31,0
21.3935,21.553074,65,34,0
21.521158,21.648819,62,31,0
21.648819,21.80442,61,40,0
21.7733,21.928902,60,32,0
21.897781,22.053383,61,35,0
22.022263,22.177864,57,30,0
22.146744,22.302345,55,40,0
22.271225,22.430918,54,30,0
22.395706,22.571764,55,34,0
22.536552,22.677397,52,30,0
22.677397,22.797878,54,36,0
22.797878,22.918362,50,29,0
22.918362,23.068964,49,35,0
23.038843,23.159325,50,28,0
23.159325,23.279806,40,34,0
23.279806,23.400288,50,28,0
23.400288,23.55089,49,36,0
23.520771,23.641253,50,33,0
23.641253,23.7637,42,40,0
23.7637,23.88615,50,29,0
23.88615,24.035553,49,34,0
24.005672,24.125195,50,43,0
24.125195,24.244717,43,50,0
24.244717,24.364237,50,39,0
24.364237,24.51364,49,40,0
24.483759,24.603281,50,39,0
24.603281,24.722803,42,43,0
24.722803,24.842325,50,34,0
24.842325,24.991728,49,39,0
24.961847,25.08137,50,34,0
25.08137,25.20585,40,45,0
25.20585,25.330332,50,34,0
25.330332,25.496998,49,38,0
25.463665,25.596998,50,34,0
25.596998,25.718456,38,47,0
25.718456,25.839914,50,31,0
25.839914,25.991735,49,34,0
25.96137,26.113194,50,30,0
26.082829,26.23465,49,39,0
26.204287,26.356108,50,29,0
26.325743,26.477566,49,34,0
26.4472,26.568659,50,31,0
26.568659,26.72048,54,48,0
26.690117,26.841938,52,37,0
26.811573,26.963396,54,40,0
26.933031,27.084852,52,40,0
27.05449,27.20631,56,50,0
27.175945,27.327768,54,36,0
27.297403,27.449224,56,46,0
27.418861,27.54032,52,49,0
27.54032,27.69214,57,55,0
27.661776,27.813599,56,46,0
27.783234,27.935055,57,47,0
27.904692,28.026148,52,53,0
28.026148,28.17675,59,62,0
28.146631,28.297234,57,40,0
28.267113,28.417715,59,48,0
28.387594,28.508076,52,40,0
28.508076,28.658678,57,53,0
28.628557,28.77916,56,40,0
28.74904,28.899643,57,46,0
28.869522,28.990004,52,40,0
28.990004,29.141825,56,47,0
29.111462,29.267164,54,37,0
29.232918,29.404152,56,40,0
29.369905,29.506891,52,38,0
29.506891,29.62835,49,54,0
29.62835,29.749805,52,46,0
29.749805,29.871264,58,46,0
29.871264,29.992722,61,49,0
29.992722,30.144543,59,54,0
30.114178,30.266,58,40,0
30.235636,30.387459,56,49,0
30.357094,30.478552,54,40,0
30.478552,30.596197,59,56,0
30.596197,30.713844,61,40,0
30.713844,30.860905,59,48,0
30.831491,30.97855,58,40,0
30.949139,31.096197,59,50,0
31.066786,31.217766,57,37,0
31.184433,31.351099,56,40,0
31.317766,31.4511,54,37,0
31.4511,31.602922,56,49,0
31.572557,31.724379,57,40,0
31.694016,31.845837,59,42,0
31.815472,31.93693,57,47,0
31.93693,32.058388,56,51,0
32.058388,32.179844,52,40,0
32.179844,32.331665,54,46,0
32.301304,32.451942,56,40,0
32.42276,32.568676,57,53,0
32.53949,32.685406,59,40,0
32.656223,32.802135,57,46,0
32.772953,32.91887,56,40,0
32.889687,33.0356,57,48,0
33.006416,33.155617,56,40,0
33.12315,33.28549,54,40,0
33.253017,33.38289,53,38,0
33.38289,33.504345,54,47,0
33.504345,33.625805,57,35,0
33.625805,33.777626,56,40,0
33.74726,33.868717,57,36,0
33.868717,33.990177,52,47,0
33.990177,34.111633,57,35,0
34.111633,34.263454,56,40,0
34.233093,34.35455,57,40,0
34.35455,34.483303,50,48,0
34.483303,34.61206,57,37,0
34.61206,34.773003,56,40,0
34.740814,34.86957,57,37,0
34.86957,34.991028,49,47,0
34.991028,35.112484,57,38,0
35.112484,35.26431,56,40,0
35.233944,35.3554,55,37,0
35.3554,35.475883,54,46,0
35.475883,35.596363,57,37,0
35.596363,35.746967,56,40,0
35.716846,35.83733,57,37,0
35.83733,35.95781,52,47,0
35.95781,36.078293,57,39,0
36.078293,36.228893,56,40,0
36.198772,36.319256,57,39,0
36.319256,36.43974,51,49,0
36.43974,36.56022,57,38,0
36.56022,36.733032,56,40,0
36.698467,36.86758,57,38,0
36.836716,36.960175,54,47,0
36.960175,37.08363,63,37,0
37.08363,37.20709,57,40,0
37.20709,37.330544,54,35,0
37.330544,37.451027,56,48,0
37.451027,37.571507,52,40,0
37.571507,37.69199,50,41,0
37.69199,37.812473,52,45,0
37.812473,37.932953,49,54,0
37.932953,38.053436,52,45,0
38.053436,38.173916,47,52,0
38.173916,38.2944,52,55,0
38.2944,38.41392,44,59,0
38.41392,38.533443,52,45,0
38.533443,38.652966,45,52,0
38.652966,38.772488,54,46,0
38.772488,38.89697,47,53,0
38.89697,39.02145,56,40,0
39.02145,39.1597,49,46,0
39.1597,39.297947,57,40,0
39.297947,39.416523,50,47,0
39.416523,39.535103,54,40,0
39.535103,39.683323,58,40,0
39.65368,39.80417,59,46,0
39.772255,39.93183,52,51,0
39.899914,40.027576,59,40,0
40.027576,40.16842,62,43,0
40.16842,40.309265,64,40,0
40.309265,40.436924,57,57,0
40.436924,40.564583,62,40,0
40.564583,40.690105,64,45,0
40.690105,40.81563,62,40,0
40.81563,40.941154,61,52,0
40.941154,41.098057,59,34,0
41.066677,41.22358,57,40,0
41.1922,41.348843,59,34,0
41.317722,41.473324,61,46,0
41.442204,41.597805,62,34,0
41.566685,41.722286,64,36,0
41.691166,41.846767,66,34,0
41.815647,41.97125,67,40,0
41.94013,42.09573,66,30,0
42.06461,42.22021,67,33,0
42.18909,42.344692,65,30,0
42.313572,42.469173,66,40,0
42.438053,42.593655,65,31,0
42.562534,42.718136,66,35,0
42.687016,42.84262,62,30,0
42.8115,42.967102,65,40,0
42.93598,43.092377,64,31,0
43.060463,43.220036,65,34,0
43.18812,43.31578,62,31,0
43.31578,43.471382,61,40,0
43.44026,43.595863,60,32,0
43.564743,43.720345,61,35,0
43.689224,43.844826,57,30,0
43.813705,43.969307,55,40,0
43.938187,44.09788,54,30,0
44.062668,44.238724,55,34,0
44.203514,44.34436,52,30,0
44.34436,44.501263,50,42,0
44.469883,44.627052,54,37,0
44.595406,44.75363,57,43,0
44.72199,44.880215,55,40,0
44.848568,45.006798,54,46,0
44.97515,45.13728,55,41,0
45.101734,45.27946,54,46,0
45.243916,45.379433,52,41,0
45.379433,45.5354,51,50,0
45.50433,45.6582,54,39,0
45.627586,45.77937,57,46,0
45.74925,45.900482,55,42,0
45.87012,46.022835,54,46,0
45.992172,46.15097,55,42,0
46.115425,46.29315,54,46,0
46.257607,46.399788,52,43,0
46.399788,46.55669,51,46,0
46.52531,46.682213,54,40,0
46.650833,46.807735,57,47,0
46.776356,46.933258,55,44,0
46.90188,47.058784,54,50,0
47.0274,47.18781,55,45,0
47.152924,47.327343,54,50,0
47.29246,47.431995,52,45,0
47.431995,47.590168,51,55,0
47.55858,47.715694,54,42,0
47.68431,47.840332,57,50,0
47.80921,47.964146,55,46,0
47.93328,48.088062,54,50,0
48.056942,48.21697,55,46,0
48.181423,48.35915,54,50,0
48.323605,48.465786,53,47,0
48.465786,48.62536,52,50,0
48.593445,48.753017,56,44,0
48.721104,48.88068,59,51,0
48.848763,49.00834,57,48,0
48.976425,49.135998,56,55,0
49.104084,49.267628,57,49,0
49.231743,49.411167,56,55,0
49.375282,49.518826,54,49,0
49.518826,49.679768,53,60,0
49.64758,49.80825,56,46,0
49.776333,49.935856,59,55,0
49.903996,50.06244,57,50,0
50.030792,50.18817,56,55,0
50.15674,50.315025,57,50,0
50.283108,50.442684,56,55,0
50.41077,50.53843,54,51,0
50.53843,50.717285,53,55,0
50.68197,50.849155,56,48,0
50.816402,50.98016,59,56,0
50.947407,51.111164,57,52,0
51.07841,51.24217,56,60,0
51.209415,51.37631,57,53,0
51.34042,51.519848,56,60,0
51.483963,51.627502,54,53,0
51.627502,51.79178,53,66,0
51.75874,51.9229,56,50,0
51.890434,52.051277,65,60,0
52.019417,52.17691,62,55,0
52.14579,52.30186,61,60,0
52.27048,52.42834,62,55,0
52.396427,52.55655,61,60,0
52.524307,52.653954,59,56,0
52.653954,52.81869,58,66,0
52.785652,52.949722,61,50,0
52.91781,53.077385,66,60,0
53.045467,53.205044,64,55,0
53.17313,53.332703,62,60,0
53.30079,53.46468,64,55,0
53.428448,53.609608,62,60,0
53.573376,53.718304,61,56,0
53.718304,53.877876,59,60,0
53.845963,54.005535,61,55,0
53.97362,54.133198,59,60,0
54.10128,54.260857,61,55,0
54.22894,54.388515,62,60,0
54.3566,54.48426,59,52,0
54.48426,54.663685,64,63,0
54.6278,54.80353,62,56,0
54.771343,54.932285,61,58,0
54.900097,55.061043,59,57,0
55.02885,55.189796,57,54,0
55.157608,55.31855,55,49,0
55.28636,55.447308,54,62,0
55.41512,55.57606,52,51,0
55.543873,55.70482,54,61,0
55.67263,55.801384,52,54,0
55.801384,55.96096,50,60,0
55.929043,56.08862,49,50,0
56.056705,56.216278,50,60,0
56.184364,56.34449,49,51,0
56.312023,56.47436,47,60,0
56.441895,56.607307,45,55,0
56.571762,56.74949,47,60,0
56.713943,56.856125,44,51,0
56.856125,57.02086,49,66,0
56.98782,57.151894,56,50,0
57.11998,57.31998,61,60,0
57.24764,57.44764,59,55,0
57.375298,57.5753,57,60,0
57.502956,57.71274,56,55,0
57.63062,57.85767,57,60,0
57.775543,57.92047,56,56,0
57.92047,58.080048,54,60,0
58.048134,58.207706,56,55,0
58.175793,58.335365,54,60,0
58.30345,58.463024,56,55,0
58.43111,58.590687,57,60,0
58.55877,58.68643,54,52,0
58.68643,58.865856,59,63,0
58.82997,59.0057,57,56,0
58.97351,59.134457,56,58,0
59.10227,59.26321,54,57,0
59.23102,59.391968,52,54,0
59.35978,59.52072,50,49,0
59.488533,59.64948,49,62,0
59.617287,59.778233,47,51,0
59.746044,59.906986,49,61,0
59.874798,60.003555,47,54,0
60.003555,60.131214,45,60,0
60.131214,60.258873,49,50,0
60.258873,60.41845,57,60,0
60.38653,60.54666,56,51,0
60.514194,60.67653,54,60,0
60.644062,60.80948,52,55,0
60.773933,60.95166,54,60,0
60.916115,61.058292,52,51,0
61.058292,61.201836,50,55,0
61.201836,61.33627,54,48,0
61.33627,61.467274,57,56,0
61.467274,61.598278,56,52,0
61.598278,61.729282,54,60,0
61.729282,61.860287,53,53,0
61.860287,62.003826,54,60,0
62.003826,62.14737,50,53,0
62.14737,62.278603,49,66,0
62.278603,62.4103,54,50,0
62.4103,62.539284,57,60,0
62.539284,62.665657,56,55,0
62.665657,62.821728,54,60,0
62.790344,62.948208,53,55,0
62.916294,63.076416,54,60,0
63.04417,63.173817,49,56,0
63.173817,63.31736,50,56,0
63.31736,63.451794,54,48,0
63.451794,63.582798,57,57,0
63.582798,63.713802,56,53,0
63.713802,63.844807,54,61,0
63.844807,63.97581,53,54,0
63.97581,64.119354,54,61,0
64.119354,64.26289,50,54,0
64.26289,64.39413,49,67,0
64.39413,64.525826,54,51,0
64.525826,64.65481,57,61,0
64.65481,64.78118,56,56,0
64.78118,64.93725,54,61,0
64.90587,65.063736,53,56,0
65.031815,65.19194,54,61,0
65.1597,65.289345,49,57,0
65.289345,65.432884,50,56,0
65.432884,65.56732,54,48,0
65.56732,65.70557,57,58,0
65.70557,65.84382,56,55,0
65.84382,65.98206,54,65,0
65.98206,66.120316,53,58,0
66.120316,66.27007,54,67,0
66.27007,66.47142,50,61,0
66.47142,66.60595,49,77,0
66.60595,66.73928,54,58,0
66.73928,66.86918,57,68,0
66.86918,66.99555,56,61,0
66.99555,67.15163,54,65,0
67.12024,67.27811,53,59,0
67.24619,67.40631,54,63,0
67.37407,67.503716,50,58,0
67.503716,67.64168,49,56,0
67.64168,67.77043,54,47,0
67.77043,67.89817,57,55,0
67.89817,68.02482,56,50,0
68.02482,68.15063,54,56,0
68.15063,68.27553,53,49,0
68.27553,68.40218,54,54,0
68.40218,68.53162,50,46,0
68.53162,68.6648,49,53,0
68.6648,68.79627,54,37,0
68.79627,68.92482,57,45,0
68.92482,69.049866,56,34,0
69.049866,69.20986,54,40,0
69.177185,69.344315,53,34,0
69.31015,69.48508,54,37,0
69.44928,69.59375,50,35,0
69.59375,69.714226,54,36,0
69.714226,69.83471,50,29,0
69.83471,69.98531,49,35,0
69.95519,70.075676,50,28,0
70.075676,70.19616,52,34,0
70.19616,70.316635,50,28,0
70.316635,70.46724,49,36,0
70.43712,70.5576,50,33,0
70.5576,70.68005,54,40,0
70.68005,70.8025,50,29,0
70.8025,70.951904,49,34,0
70.92202,71.04154,50,43,0
71.04154,71.161064,43,50,0
71.161064,71.28059,50,39,0
71.28059,71.42999,49,40,0
71.40011,71.51963,50,39,0
71.51963,71.63915,42,43,0
71.63915,71.758675,50,34,0
71.758675,71.90808,49,39,0
71.8782,71.99772,50,34,0
71.99772,72.1222,40,45,0
72.1222,72.24668,50,34,0
72.24668,72.413345,49,38,0
72.38001,72.51335,50,34,0
72.51335,72.6348,38,47,0
72.6348,72.75626,50,31,0
72.75626,72.90809,49,34,0
72.87772,73.02954,50,30,0
72.999176,73.151,49,39,0
73.120636,73.27246,50,29,0
73.242096,73.39812,49,34,0
73.36355,73.5018,50,31,0
73.5018,73.652405,38,48,0
73.622284,73.77288,48,37,0
73.74277,73.893364,47,40,0
73.86324,74.01385,48,40,0
73.98373,74.13433,40,50,0
74.10421,74.25506,48,36,0
74.22469,74.37651,47,46,0
74.346146,74.467606,48,49,0
74.467606,74.618706,42,55,0
74.589066,74.73728,48,46,0
74.70764,74.855865,47,47,0
74.82622,74.94479,48,53,0
74.94479,75.0954,43,62,0
75.06528,75.21588,47,50,0
75.18576,75.336365,45,55,0
75.306244,75.42672,47,50,0
75.42672,75.577324,43,60,0
75.5472,75.69781,45,51,0
75.66769,75.81829,43,57,0
75.78817,75.90865,45,53,0
75.90865,76.06047,42,62,0
76.030106,76.185814,43,51,0
76.151566,76.3228,40,54,0
76.28855,76.42554,42,50,0
76.42554,76.548996,39,64,0
76.548996,76.672455,42,53,0
76.672455,76.795906,47,55,0
76.795906,76.919365,49,54,0
76.919365,77.06751,51,61,0
77.04282,77.19097,52,47,0
77.166275,77.31442,54,57,0
77.289734,77.437485,52,47,0
77.41319,77.55894,51,61,0
77.53465,77.6804,52,50,0
77.656105,77.80186,51,54,0
77.777565,77.92332,49,51,0
77.899025,78.04477,51,61,0
78.02048,78.16623,47,52,0
78.14194,78.28769,49,54,0
78.2634,78.38485,51,53,0
78.38485,78.52603,52,62,0
78.5025,78.64368,54,48,0
78.62015,78.76132,52,54,0
78.73779,78.85544,51,49,0
78.85544,78.99661,52,54,0
78.97308,79.1174,50,50,0
79.09074,79.25073,49,54,0
79.22407,79.3574,47,52,0
79.3574,79.50315,49,61,0
79.47886,79.6246,50,50,0
79.60032,79.74606,52,54,0
79.72177,79.86752,50,51,0
79.84323,79.98898,49,61,0
79.96469,80.110435,45,52,0
80.08614,80.231895,47,54,0
80.2076,80.32906,49,53,0
80.32906,80.47024,52,62,0
80.44671,80.58788,50,48,0
80.564354,80.70553,49,54,0
80.682,80.79965,50,49,0
80.79965,80.94083,49,54,0
80.9173,81.06161,50,50,0
81.03494,81.19495,48,54,0
81.168274,81.30161,50,52,0
81.30161,81.423065,47,47,0
81.423065,81.544525,50,35,0
81.544525,81.69634,46,40,0
81.665985,81.78744,50,36,0
81.78744,81.9089,45,47,0
81.9089,82.03036,50,35,0
82.03036,82.182175,38,40,0
82.15181,82.27327,50,40,0
82.27327,82.40202,44,48,0
82.40202,82.53078,50,37,0
82.53078,82.69173,43,40,0
82.65954,82.78829,50,37,0
82.78829,82.90975,42,47,0
82.90975,83.031204,50,38,0
83.031204,83.18303,38,40,0
83.152664,83.274124,50,37,0
83.274124,83.3946,47,46,0
83.3946,83.51508,50,37,0
83.51508,83.66569,46,40,0
83.63557,83.75605,50,37,0
83.75605,83.87653,45,47,0
83.87653,83.99701,50,39,0
83.99701,84.14761,38,40,0
84.11749,84.237976,50,39,0
84.237976,84.35846,44,49,0
84.35846,84.47894,47,38,0
84.47894,84.632,50,40,0
84.60139,84.7547,49,38,0
84.72384,84.8473,47,47,0
84.8473,84.97075,56,37,0
84.97075,85.09421,50,40,0
85.09421,85.21767,47,35,0
85.21767,85.33815,49,48,0
85.33815,85.458626,52,40,0
85.458626,85.57911,55,41,0
85.57911,85.69959,57,45,0
85.69959,85.820076,54,54,0
85.820076,85.94056,57,45,0
85.94056,86.061035,52,52,0
86.061035,86.18152,57,55,0
86.18152,86.30104,49,59,0
86.30104,86.42056,57,45,0
86.42056,86.540085,50,52,0
86.540085,86.65961,59,46,0
86.65961,86.78107,52,53,0
86.78107,86.90252,61,40,0
86.90252,87.02398,54,46,0
87.02398,87.156136,62,40,0
87.156136,87.27471,55,47,0
87.27471,87.393295,59,40,0
87.393295,87.51187,64,40,0
87.51187,87.66236,59,46,0
87.63045,87.7581,55,51,0
87.7581,87.885765,57,40,0
87.885765,88.02661,55,43,0
88.02661,88.16746,57,40,0
88.16746,88.28794,54,53,0
88.28794,88.40842,57,41,0
88.40842,88.56024,61,44,0
88.52988,88.6822,62,41,0
88.65134,88.77479,66,51,0
88.77479,88.89825,62,40,0
88.89825,89.021706,59,44,0
89.021706,89.145164,57,38,0
89.145164,89.26564,55,52,0
89.26564,89.38612,57,44,0
89.38612,89.50661,55,45,0
89.50661,89.62709,57,49,0
89.62709,89.747574,54,59,0
89.747574,89.86805,57,49,0
89.86805,89.98853,52,57,0
89.98853,90.10902,57,60,0
90.10902,90.22854,49,64,0
90.22854,90.34806,57,49,0
90.34806,90.46758,50,57,0
90.46758,90.587105,59,50,0
90.587105,90.708565,52,58,0
90.708565,90.83002,61,44,0
90.83002,90.95148,54,50,0
90.95148,91.08363,62,44,0
91.08363,91.20221,55,51,0
91.20221,91.32079,59,44,0
91.32079,91.43937,57,44,0
91.43937,91.58986,61,50,0
91.557945,91.6856,59,56,0
91.6856,91.81326,62,44,0
91.81326,91.95411,61,47,0
91.95411,92.094955,64,44,0
92.094955,92.21944,66,56,0
92.21944,92.34392,62,42,0
92.34392,92.47157,61,47,0
92.47157,92.61792,62,42,0
92.61792,92.7424,59,62,0
92.7424,92.86688,62,42,0
92.86688,92.99454,61,49,0
92.99454,93.1222,62,42,0
93.1222,93.24986,57,56,0
93.1222,93.24986,61,56,0
93.24986,93.37752,62,45,0
93.37752,93.50518,61,49,0
93.50518,93.632835,62,49,0
93.632835,93.7605,59,56,0
93.632835,93.7605,55,56,0
93.7605,93.88816,62,46,0
93.88816,94.015816,61,49,0
94.015816,94.1636,62,43,0
94.1636,94.290184,57,56,0
94.1636,94.290184,54,56,0
94.290184,94.41676,62,43,0
94.41676,94.54335,61,47,0
94.54335,94.66993,62,42,0
94.66993,94.79651,55,56,0
94.79651,94.923096,62,41,0
94.923096,95.049675,61,48,0
95.049675,95.193214,62,43,0
95.193214,95.3198,57,56,0
95.3198,95.44638,62,42,0
95.44638,95.57296,61,47,0
95.57296,95.69955,62,42,0
95.69955,95.826126,55,56,0
95.826126,95.95271,62,41,0
95.69955,95.95271,45,56,0
95.95271,96.08147,61,47,0
96.08147,96.22231,62,47,0
96.22231,96.34889,54,39,0
96.34889,96.47547,55,45,0
96.22231,96.47547,38,39,0
96.47547,96.60206,57,53,0
96.60206,96.72864,59,46,0
96.72864,96.85851,60,38,0
96.85851,96.98838,59,36,0
96.98838,97.11825,60,40,0
97.11825,97.26179,57,37,0
97.26179,97.38424,59,43,0
97.38424,97.50669,62,33,0
97.50669,97.65975,61,38,0
97.629135,97.75159,62,34,0
97.75159,97.87817,55,46,0
97.87817,98.00475,62,35,0
98.00475,98.16722,61,38,0
98.13133,98.27487,62,34,0
98.27487,98.40146,54,47,0
98.40146,98.52804,57,34,0
98.27487,98.52804,50,47,0
98.52804,98.65462,62,38,0
98.65462,98.781204,61,34,0
98.781204,98.90778,60,43,0
98.90778,99.03437,59,34,0
98.781204,99.03437,38,58,0
99.03437,99.16095,60,38,0
99.16095,99.28753,57,34,0
99.28753,99.40998,59,43,0
99.40998,99.53243,62,33,0
99.28753,99.53243,50,39,0
99.53243,99.68549,61,38,0
99.65488,99.77733,62,34,0
99.77733,99.90391,55,46,0
99.90391,100.030495,62,35,0
100.030495,100.19296,61,38,0
100.157074,100.30061,62,34,0
100.30061,100.4272,54,47,0
100.4272,100.55378,57,34,0
100.30061,100.55378,50,47,0
100.55378,100.68036,62,38,0
100.68036,100.806946,61,34,0
100.806946,100.933525,60,43,0
100.933525,101.06011,59,34,0
100.806946,101.06011,38,57,0
101.06011,101.18669,60,38,0
101.18669,101.31327,57,34,0
101.31327,101.43572,59,43,0
101.43572,101.558174,62,33,0
101.31327,101.558174,50,39,0
101.558174,101.711235,61,38,0
101.68062,101.80307,62,34,0
101.80307,101.92965,55,46,0
101.92965,102.05624,62,35,0
102.05624,102.218704,61,38,0
102.182816,102.326355,62,34,0
102.326355,102.450836,54,47,0
102.450836,102.57532,57,34,0
102.57532,102.6998,54,38,0
102.6998,102.82428,55,34,0
102.82428,102.95194,57,43,0
102.95194,103.0796,60,34,0
102.82428,103.0796,50,47,0
103.0796,103.20726,62,38,0
103.20726,103.33492,60,34,0
103.33492,103.459404,58,43,0
103.459404,103.583885,62,43,0
103.33492,103.583885,43,47,0
103.583885,103.70837,58,43,0
103.70837,103.83285,62,43,0
103.83285,103.99107,61,43,0
103.83285,104.08601,45,47,0
103.95943,104.1182,58,43,0
104.08601,104.25445,57,43,0
104.21477,104.3735,55,43,0
104.3735,104.53172,54,39,0
104.3735,104.62666,38,39,0
104.50008,104.6583,55,45,0
104.62666,104.78489,57,53,0
104.75324,104.87982,59,46,0
104.87982,105.0097,60,38,0
105.0097,105.139565,59,36,0
105.139565,105.26943,60,40,0
105.26943,105.41298,57,37,0
105.41298,105.53542,59,43,0
105.53542,105.657875,62,33,0
105.41298,105.657875,50,39,0
105.657875,105.810936,61,38,0
105.78032,105.90277,62,34,0
105.90277,106.02936,55,46,0
106.02936,106.15594,62,35,0
106.15594,106.318405,61,38,0
106.28252,106.426056,62,34,0
106.426056,106.549515,54,47,0
106.549515,106.67297,57,34,0
106.67297,106.79643,54,38,0
106.79643,106.91988,55,34,0
106.91988,107.04647,57,43,0
107.04647,107.17305,60,34,0
106.91988,107.17305,50,47,0
107.17305,107.29964,62,38,0
107.29964,107.426216,60,34,0
107.426216,107.552795,58,43,0
107.552795,107.67938,62,43,0
107.426216,107.67938,55,47,0
107.67938,107.80596,58,43,0
107.80596,107.93254,62,43,0
107.93254,108.090775,61,43,0
107.93254,108.18571,57,47,0
108.05913,108.217354,58,43,0
108.18571,108.3475,57,43,0
108.312294,108.45313,55,43,0
108.45313,108.61137,54,39,0
108.57972,108.737946,57,45,0
108.7063,108.864525,54,53,0
108.832886,108.959465,55,46,0
108.959465,109.086044,57,38,0
109.086044,109.21263,62,36,0
109.21263,109.33921,66,40,0
109.33921,109.48275,64,37,0
108.45313,109.98908,50,30,0
112.65822,112.915726,78,38,0
112.65822,112.915726,74,38,0
