start_time,end_time,note_value,velocity,instrument_program_number
1.112015,1.3448771,61,50,0
1.234574,1.357133,57,40,0
1.479692,1.602251,56,37,0
1.602251,1.72481,57,42,0
1.72481,1.8496644,54,34,0
1.357133,1.8496644,61,56,0
1.8496644,2.0825267,66,54,0
1.9722235,2.0947826,61,39,0
2.2173414,2.3399005,60,45,0
2.3399005,2.4624596,61,55,0
2.4624596,2.5850184,57,46,0
2.0947826,2.5850184,66,55,0
2.7075775,2.8329535,66,55,0
2.5850184,2.8329535,69,66,0
2.9555125,3.0780716,68,56,0
3.0780716,3.2006304,69,61,0
3.2006304,3.3231895,66,56,0
2.8329535,3.3231895,74,73,0
3.4457486,3.5683074,69,49,0
3.3231895,3.5683074,73,68,0
3.6908665,3.8134255,68,50,0
3.8134255,3.9359846,69,55,0
3.5683074,4.0534368,72,68,0
3.9359846,4.0585437,66,45,0
4.1811023,4.306217,69,33,0
4.0585437,4.306217,72,51,0
4.428776,4.551335,68,43,0
4.551335,4.673894,61,46,0
4.673894,4.796453,63,42,0
4.306217,4.796453,73,56,0
4.796453,4.919012,65,40,0
4.796453,5.0058246,71,50,0
5.010931,5.041571,71,43,0
4.919012,5.041571,61,38,0
5.041571,5.16413,69,55,0
5.041571,5.16413,66,44,0
5.16413,5.2830453,61,46,0
5.2830453,5.401961,68,63,0
5.2830453,5.401961,65,50,0
5.401961,5.5208764,61,54,0
5.5208764,5.639792,69,69,0
5.5208764,5.639792,66,55,0
5.639792,5.764387,61,57,0
5.764387,5.886946,66,55,0
5.886946,6.009505,62,54,0
5.764387,6.009505,73,76,0
5.764387,6.009505,69,69,0
6.009505,6.132064,68,48,0
6.132064,6.254623,62,49,0
6.009505,6.254623,71,61,0
6.254623,6.381056,69,50,0
6.254623,6.381056,66,40,0
6.381056,6.503615,62,41,0
6.503615,6.626174,66,44,0
6.626174,6.748733,61,45,0
6.503615,6.748733,69,56,0
6.748733,6.871292,65,40,0
6.871292,7.001286,59,43,0
6.748733,7.001286,68,50,0
7.001286,7.234148,61,50,0
7.123845,7.246404,57,40,0
7.368963,7.491522,56,37,0
7.491522,7.614081,57,42,0
7.614081,7.7397194,54,34,0
7.246404,7.7397194,61,56,0
7.7397194,7.9721065,66,54,0
7.8620286,7.9843373,61,39,0
8.106647,8.228955,60,45,0
8.228955,8.351265,61,55,0
8.351265,8.477431,57,46,0
7.9843373,8.477431,66,55,0
8.599991,8.722549,66,55,0
8.477431,8.722549,69,66,0
8.845108,8.967668,68,56,0
8.967668,9.090226,69,61,0
9.090226,9.212786,66,56,0
8.722549,9.212786,74,73,0
9.335344,9.457904,69,49,0
9.212786,9.457904,73,68,0
9.580462,9.703021,68,50,0
9.703021,9.82659,69,55,0
9.457904,9.94501,72,68,0
9.82659,9.950158,66,45,0
10.0765915,10.203025,69,33,0
9.950158,10.203025,72,51,0
10.325583,10.448142,68,43,0
10.448142,10.570702,61,46,0
10.570702,10.69326,62,42,0
10.203025,10.69326,73,56,0
10.69326,10.818375,70,50,0
10.69326,10.818375,64,40,0
10.818375,10.940684,61,38,0
10.940684,11.062993,62,46,0
11.062993,11.185302,66,43,0
10.940684,11.185302,71,56,0
11.185302,11.307611,64,46,0
11.307611,11.42992,62,42,0
11.42992,11.552229,61,40,0
11.552229,11.674538,64,38,0
11.42992,11.674538,70,50,0
11.674538,11.796847,62,46,0
11.796847,11.919156,66,43,0
11.674538,11.919156,71,56,0
11.919156,12.039502,61,46,0
11.919156,12.039502,69,50,0
12.039502,12.159849,64,42,0
12.159849,12.281415,68,50,0
12.159849,12.281415,59,40,0
12.281415,12.402981,62,38,0
12.402981,12.526549,57,46,0
12.526549,12.650118,61,43,0
12.402981,12.650118,66,56,0
12.650118,12.775232,56,46,0
12.775232,12.897293,59,42,0
12.650118,12.897293,65,56,0
12.897293,13.019354,61,40,0
13.019354,13.144468,64,38,0
12.897293,13.144468,70,50,0
13.144468,13.266528,62,43,0
13.266528,13.388589,66,43,0
13.144468,13.388589,71,56,0
13.388589,13.51065,64,46,0
13.51065,13.63271,62,42,0
13.63271,13.758086,61,40,0
13.758086,13.880146,64,38,0
13.63271,13.880146,70,50,0
13.880146,14.002207,62,46,0
14.002207,14.124268,66,43,0
13.880146,14.124268,71,56,0
14.124268,14.246328,64,46,0
14.246328,14.371182,62,42,0
14.371182,14.493741,61,40,0
14.493741,14.616301,64,38,0
14.371182,14.616301,70,50,0
14.616301,14.736167,62,46,0
14.736167,14.856032,66,43,0
14.616301,14.856032,71,56,0
14.856032,14.977352,61,46,0
14.856032,14.977352,69,50,0
14.977352,15.098673,64,42,0
15.098673,15.219993,68,50,0
15.098673,15.219993,59,40,0
15.219993,15.341312,62,38,0
15.341312,15.464375,57,46,0
15.464375,15.587437,61,43,0
15.341312,15.587437,66,56,0
15.587437,15.710499,56,46,0
15.710499,15.836137,59,42,0
15.587437,15.836137,65,56,0
15.836137,15.958696,61,40,0
15.958696,16.081255,64,38,0
15.836137,16.081255,70,50,0
16.081255,16.203814,62,43,0
16.203814,16.326372,66,43,0
16.081255,16.326372,71,56,0
16.326372,16.448933,64,46,0
16.448933,16.571491,62,42,0
16.571491,16.69405,70,40,0
16.69405,16.819164,66,38,0
16.571491,16.819164,73,50,0
16.819164,16.941723,71,45,0
16.941723,17.064283,66,43,0
16.819164,17.064283,74,56,0
17.064283,17.186842,72,48,0
17.186842,17.3094,66,48,0
17.064283,17.3094,75,61,0
17.3094,17.43196,71,53,0
17.43196,17.554518,68,52,0
17.3094,17.554518,76,66,0
17.554518,17.677078,75,58,0
17.677078,17.799637,69,57,0
17.554518,17.799637,78,72,0
17.799637,17.922195,76,62,0
17.922195,18.044754,71,62,0
17.799637,18.044754,79,78,0
18.044754,18.166567,76,67,0
18.166567,18.28838,71,66,0
18.044754,18.28838,80,84,0
18.28838,18.410192,76,73,0
18.410192,18.532005,73,70,0
18.28838,18.532005,81,91,0
18.532005,18.653816,76,75,0
18.653816,18.775629,73,71,0
18.532005,18.775629,85,93,0
18.775629,18.897442,76,75,0
18.775629,19.00901,83,93,0
18.897442,19.02495,73,71,0
19.02495,19.14578,76,75,0
19.14578,19.266613,73,71,0
19.02495,19.266613,83,93,0
19.266613,19.388922,76,75,0
19.388922,19.51123,73,71,0
19.266613,19.51123,82,93,0
19.51123,19.63354,74,75,0
19.51123,19.74056,79,93,0
19.63354,19.755848,71,63,0
19.755848,19.876923,73,75,0
19.876923,19.998,70,68,0
19.755848,19.998,79,93,0
19.998,20.120308,73,71,0
20.120308,20.242617,70,65,0
19.998,20.242617,78,90,0
20.242617,20.364925,73,66,0
20.242617,20.471947,76,83,0
20.364925,20.487234,67,60,0
20.487234,20.606861,73,61,0
20.606861,20.726488,66,56,0
20.487234,20.726488,76,77,0
20.726488,20.849298,72,57,0
20.849298,20.972109,70,51,0
20.726488,20.972109,75,71,0
20.972109,21.09492,71,52,0
20.972109,21.204622,74,66,0
21.09492,21.220295,65,47,0
21.220295,21.340883,71,48,0
21.340883,21.461472,64,44,0
21.220295,21.461472,74,60,0
21.461472,21.583532,69,44,0
21.583532,21.705593,68,39,0
21.461472,21.705593,73,55,0
21.705593,21.827654,69,40,0
21.827654,21.949713,65,38,0
21.705593,21.949713,72,50,0
21.949713,22.071526,68,40,0
22.071526,22.201345,64,38,0
21.949713,22.201345,71,50,0
22.201345,22.321451,71,62,0
22.321451,22.441557,64,56,0
22.201345,22.441557,74,74,0
22.441557,22.56337,69,62,0
22.56337,22.68518,64,38,0
22.441557,22.68518,72,62,0
22.68518,22.806993,68,40,0
22.806993,22.936533,64,38,0
22.68518,22.936533,71,50,0
22.936533,23.05688,71,62,0
23.05688,23.177227,64,56,0
22.936533,23.177227,76,74,0
23.177227,23.299288,69,62,0
23.299288,23.421347,64,38,0
23.177227,23.421347,72,62,0
23.421347,23.543407,68,40,0
23.543407,23.671564,64,38,0
23.421347,23.671564,71,50,0
23.671564,23.79191,71,62,0
23.79191,23.912256,64,56,0
23.671564,23.912256,74,74,0
23.912256,24.033823,69,62,0
24.033823,24.15539,64,38,0
23.912256,24.15539,72,62,0
24.15539,24.276955,68,40,0
24.276955,24.407057,64,38,0
24.15539,24.407057,71,50,0
24.407057,24.526207,71,62,0
24.526207,24.645359,64,56,0
24.407057,24.645359,76,74,0
24.645359,24.76619,69,62,0
24.76619,24.887022,64,38,0
24.645359,24.887022,72,62,0
24.887022,25.008589,71,50,0
24.887022,25.008589,68,40,0
25.008589,25.130154,64,38,0
25.130154,25.252808,63,42,0
25.252808,25.375462,64,38,0
25.375462,25.498116,68,42,0
25.498116,25.62077,64,38,0
25.62077,25.743423,71,45,0
25.743423,25.866077,68,45,0
25.866077,25.988731,67,46,0
25.988731,26.111385,68,49,0
26.111385,26.23404,71,50,0
26.23404,26.356565,68,52,0
26.356565,26.47872,74,54,0
26.47872,26.600842,71,54,0
26.600842,26.722748,77,55,0
26.722748,26.844652,74,56,0
26.844652,26.966312,80,59,0
26.966312,27.087973,77,63,0
27.087973,27.209631,83,70,0
27.209631,27.331291,80,62,0
27.331291,27.45317,86,70,0
27.45317,27.57536,83,59,0
27.57536,27.697828,81,65,0
27.697828,27.820578,80,61,0
27.820578,27.942982,88,69,0
27.942982,28.065386,86,63,0
28.065386,28.18779,85,59,0
28.18779,28.310194,83,58,0
28.310194,28.432598,81,56,0
28.432598,28.555002,80,49,0
28.555002,28.677406,81,55,0
28.677406,28.79981,78,53,0
28.79981,28.921469,75,51,0
28.921469,29.043129,71,51,0
29.043129,29.16479,69,48,0
29.16479,29.289482,66,46,0
29.289482,29.411886,68,61,0
29.289482,29.411886,74,61,0
29.411886,29.53429,71,51,0
29.53429,29.656694,68,48,0
29.656694,29.779099,64,47,0
29.779099,29.901503,62,46,0
29.901503,30.023907,59,43,0
30.023907,30.146309,67,49,0
30.146309,30.268713,64,42,0
30.268713,30.391117,61,45,0
30.391117,30.513521,57,46,0
30.513521,30.635925,56,48,0
30.635925,30.763266,55,52,0
30.763266,30.884434,54,54,0
30.884434,31.005602,58,38,0
31.005602,31.12677,59,45,0
31.12677,31.247938,54,38,0
31.247938,31.370092,61,43,0
31.370092,31.49583,54,38,0
31.49583,31.617245,62,50,0
31.617245,31.738659,56,38,0
31.738659,31.860071,52,43,0
31.860071,31.981485,56,38,0
31.981485,32.10592,50,45,0
32.10592,32.233803,56,37,0
32.233803,32.356457,49,45,0
32.356457,32.47911,52,33,0
32.47911,32.601765,57,33,0
32.601765,32.72442,59,33,0
32.72442,32.847073,61,33,0
32.847073,32.969727,64,33,0
32.969727,33.09238,61,36,0
33.09238,33.215034,59,31,0
33.215034,33.33769,57,33,0
33.46503,33.71236,64,50,0
33.33769,33.71236,52,33,0
33.71236,34.691593,57,55,0
33.71236,34.691593,69,65,0
34.691593,34.93491,56,58,0
34.691593,34.93491,68,69,0
34.93491,35.181263,69,74,0
34.93491,35.181263,57,62,0
35.181263,35.915688,59,71,0
35.181263,35.915688,71,84,0
35.915688,36.65505,61,65,0
35.915688,36.65505,73,77,0
36.65505,36.897385,64,75,0
36.65505,36.897385,73,89,0
36.65505,36.897385,76,89,0
36.897385,37.13972,62,63,0
36.897385,37.13972,71,76,0
36.897385,37.13972,74,76,0
37.13972,37.387615,61,59,0
37.13972,37.387615,69,70,0
37.13972,37.387615,73,70,0
37.387615,37.63044,59,70,0
37.387615,37.63044,68,82,0
37.387615,37.63044,71,82,0
37.63044,37.87327,61,62,0
37.63044,37.87327,73,75,0
37.87327,38.125584,59,57,0
37.87327,38.125584,71,68,0
38.125584,38.6162,57,77,0
38.125584,38.6162,69,90,0
38.6162,38.861507,69,73,0
38.6162,38.861507,81,86,0
38.861507,39.352123,71,77,0
38.861507,39.352123,83,91,0
39.352123,39.59743,73,80,0
39.352123,39.59743,85,95,0
39.59743,39.839767,88,97,0
39.59743,39.839767,85,97,0
39.59743,39.839767,76,82,0
39.839767,40.082104,86,89,0
39.839767,40.082104,83,89,0
39.839767,40.082104,74,75,0
40.082104,40.329998,85,82,0
40.082104,40.329998,81,82,0
40.082104,40.329998,73,69,0
40.329998,40.572826,83,95,0
40.329998,40.572826,80,95,0
40.329998,40.572826,71,80,0
40.572826,40.81565,85,89,0
40.572826,40.81565,73,75,0
40.81565,41.06797,83,80,0
40.81565,41.06797,71,68,0
41.06797,41.314545,81,93,0
41.06797,41.314545,69,79,0
41.314545,41.56048,80,80,0
41.314545,41.56048,76,80,0
41.56048,41.805786,78,77,0
41.56048,41.805786,74,77,0
41.805786,42.051094,76,72,0
41.805786,42.051094,73,72,0
42.051094,42.296402,75,70,0
42.051094,42.296402,72,70,0
42.296402,42.541706,74,70,0
42.296402,42.541706,71,70,0
42.541706,42.66436,69,65,0
42.541706,42.66436,73,74,0
42.787014,42.880535,69,50,0
42.787014,42.880535,74,57,0
43.0364,43.130703,69,45,0
43.0364,43.130703,73,51,0
43.287876,43.382183,71,57,0
43.287876,43.382183,66,50,0
43.287876,43.382183,69,50,0
43.807106,43.931538,76,74,0
43.807106,43.931538,68,65,0
44.055973,44.30255,81,79,0
44.055973,44.30255,69,67,0
44.30255,44.54848,80,68,0
44.30255,44.54848,76,57,0
44.54848,44.793655,78,65,0
44.54848,44.793655,74,55,0
44.793655,45.038067,76,61,0
44.793655,45.038067,73,51,0
45.038067,45.283985,75,59,0
45.038067,45.283985,72,50,0
45.283985,45.5314,74,59,0
45.283985,45.5314,71,50,0
45.65532,45.7886,73,47,0
45.7886,45.91166,74,47,0
45.91166,46.03453,76,47,0
46.03453,46.157185,78,51,0
46.157185,46.27984,74,47,0
46.27984,46.40254,76,50,0
46.40254,46.52555,78,47,0
46.52555,46.64888,80,49,0
46.64888,46.772575,76,47,0
46.772575,46.896606,78,50,0
46.896606,47.020958,80,47,0
47.020958,47.14568,81,50,0
47.14568,47.28076,85,51,0
47.28076,47.403667,86,51,0
47.403667,47.52654,88,50,0
47.52654,47.649193,90,54,0
47.649193,47.771847,86,48,0
47.771847,47.8945,88,50,0
47.8945,48.017155,90,47,0
48.017155,48.13981,92,47,0
48.13981,48.262463,88,45,0
48.262463,48.385117,90,47,0
48.385117,48.51165,92,44,0
48.51165,48.631607,93,52,0
48.631607,48.75193,88,52,0
48.75193,48.872433,85,48,0
48.872433,48.993114,81,48,0
48.993114,49.11398,76,48,0
49.11398,49.234997,73,48,0
49.234997,49.356167,69,46,0
49.356167,49.47755,64,45,0
49.47755,49.59906,61,43,0
49.59906,49.732784,57,42,0
49.732784,49.965355,61,50,0
49.85519,49.977592,57,40,0
50.1,50.2224,56,37,0
50.2224,50.344807,57,42,0
50.344807,50.46966,54,34,0
49.977592,50.46966,61,50,0
50.46966,50.702522,66,54,0
50.59222,50.71478,61,39,0
50.837337,50.959896,60,45,0
50.959896,51.082455,61,55,0
51.082455,51.205013,57,46,0
50.71478,51.205013,66,55,0
51.32757,51.45295,66,55,0
51.205013,51.45295,69,66,0
51.57551,51.698067,68,56,0
51.698067,51.820625,69,61,0
51.820625,51.943184,66,56,0
51.45295,51.943184,74,73,0
52.065742,52.188305,69,49,0
51.943184,52.188305,73,68,0
52.310863,52.433422,68,50,0
52.433422,52.55598,69,55,0
52.188305,52.67343,72,68,0
52.55598,52.67854,66,45,0
52.801098,52.926212,69,33,0
52.67854,52.926212,72,51,0
53.04877,53.17133,68,43,0
53.17133,53.293888,61,46,0
53.293888,53.41645,63,42,0
52.926212,53.41645,73,56,0
53.41645,53.53901,65,40,0
53.41645,53.62582,71,50,0
53.630928,53.661568,71,43,0
53.53901,53.661568,61,38,0
53.661568,53.784126,69,55,0
53.661568,53.784126,66,44,0
53.784126,53.90304,61,46,0
53.90304,54.021957,68,63,0
53.90304,54.021957,65,50,0
54.021957,54.140873,61,54,0
54.140873,54.25979,69,69,0
54.140873,54.25979,66,55,0
54.25979,54.384384,61,57,0
54.384384,54.506943,66,55,0
54.506943,54.6295,62,54,0
54.384384,54.6295,73,76,0
54.384384,54.6295,69,69,0
54.6295,54.75206,68,48,0
54.75206,54.87462,62,49,0
54.6295,54.87462,71,61,0
54.87462,55.001053,69,50,0
54.87462,55.001053,66,40,0
55.001053,55.12361,62,41,0
55.12361,55.24617,66,44,0
55.24617,55.36873,61,45,0
55.12361,55.36873,69,56,0
55.36873,55.491287,65,40,0
55.491287,55.62128,59,43,0
55.36873,55.62128,68,50,0
55.62128,55.854145,61,50,0
55.74384,55.866398,57,40,0
55.98896,56.11152,56,37,0
56.11152,56.234077,57,42,0
56.234077,56.359715,54,34,0
55.866398,56.359715,61,56,0
56.359715,56.592102,66,54,0
56.482025,56.604332,61,39,0
56.726643,56.84895,60,45,0
56.84895,56.97126,61,55,0
56.97126,57.097427,57,46,0
56.604332,57.097427,66,55,0
57.219986,57.342545,66,55,0
57.097427,57.342545,69,66,0
57.465103,57.58766,68,56,0
57.58766,57.71022,69,61,0
57.71022,57.832783,66,56,0
57.342545,57.832783,74,73,0
57.95534,58.0779,69,49,0
57.832783,58.0779,73,68,0
58.20046,58.323017,68,50,0
58.323017,58.446587,69,55,0
58.0779,58.565006,72,68,0
58.446587,58.570152,66,45,0
58.696587,58.82302,69,33,0
58.570152,58.82302,72,51,0
58.94558,59.06814,68,43,0
59.06814,59.190697,61,46,0
59.190697,59.313255,62,42,0
58.82302,59.313255,73,56,0
59.313255,59.43837,70,50,0
59.313255,59.43837,64,40,0
59.43837,59.56068,61,38,0
59.56068,59.682987,62,46,0
59.682987,59.805298,66,43,0
59.56068,59.805298,71,56,0
59.805298,59.92761,64,46,0
59.92761,60.049915,62,42,0
60.049915,60.172226,61,40,0
60.172226,60.294533,64,38,0
60.049915,60.294533,70,50,0
60.294533,60.416843,62,46,0
60.416843,60.53915,66,43,0
60.294533,60.53915,71,56,0
60.53915,60.659496,61,46,0
60.53915,60.659496,69,50,0
60.659496,60.779846,64,42,0
60.779846,60.90141,68,50,0
60.779846,60.90141,59,40,0
60.90141,61.022976,62,38,0
61.022976,61.146545,57,46,0
61.146545,61.270115,61,43,0
61.022976,61.270115,66,56,0
61.270115,61.39523,56,46,0
61.39523,61.51729,59,42,0
61.270115,61.51729,65,56,0
61.51729,61.63935,61,40,0
61.63935,61.764465,64,38,0
61.51729,61.764465,70,50,0
61.764465,61.886524,62,43,0
61.886524,62.008583,66,43,0
61.764465,62.008583,71,56,0
62.008583,62.130646,64,46,0
62.130646,62.252705,62,42,0
62.252705,62.378082,61,40,0
62.378082,62.50014,64,38,0
62.252705,62.50014,70,50,0
62.50014,62.622204,62,46,0
62.622204,62.744263,66,43,0
62.50014,62.744263,71,56,0
62.744263,62.866325,64,46,0
62.866325,62.991177,62,42,0
62.991177,63.11374,61,40,0
63.11374,63.236298,64,38,0
62.991177,63.236298,70,50,0
63.236298,63.356163,62,46,0
63.356163,63.47603,66,43,0
63.236298,63.47603,71,56,0
63.47603,63.597347,61,46,0
63.47603,63.597347,69,50,0
63.597347,63.71867,64,42,0
63.71867,63.83999,68,50,0
63.71867,63.83999,59,40,0
63.83999,63.961308,62,38,0
63.961308,64.08437,57,46,0
64.08437,64.207436,61,43,0
63.961308,64.207436,66,56,0
64.207436,64.3305,56,46,0
64.3305,64.45613,59,42,0
64.207436,64.45613,65,56,0
64.45613,64.57869,61,40,0
64.57869,64.70125,64,38,0
64.45613,64.70125,70,50,0
64.70125,64.82381,62,43,0
64.82381,64.946365,66,43,0
64.70125,64.946365,71,56,0
64.946365,65.068924,64,46,0
65.068924,65.19149,62,42,0
65.19149,65.31405,70,40,0
65.31405,65.43916,66,38,0
65.19149,65.43916,73,50,0
65.43916,65.56172,71,45,0
65.56172,65.68428,66,43,0
65.43916,65.68428,74,56,0
65.68428,65.80684,72,48,0
65.80684,65.9294,66,48,0
65.68428,65.9294,75,61,0
65.9294,66.051956,71,53,0
66.051956,66.174515,68,52,0
65.9294,66.174515,76,66,0
66.174515,66.29707,75,58,0
66.29707,66.41963,69,57,0
66.174515,66.41963,78,72,0
66.41963,66.54219,76,62,0
66.54219,66.66475,71,62,0
66.41963,66.66475,79,78,0
66.66475,66.78656,76,67,0
66.78656,66.90838,71,66,0
66.66475,66.90838,80,84,0
66.90838,67.03019,76,73,0
67.03019,67.152,73,70,0
66.90838,67.152,81,91,0
67.152,67.27381,76,75,0
67.27381,67.39562,73,71,0
67.152,67.39562,85,93,0
67.39562,67.51744,76,75,0
67.39562,67.629005,83,93,0
67.51744,67.64494,73,71,0
67.64494,67.76578,76,75,0
67.76578,67.88661,73,71,0
67.64494,67.88661,83,93,0
67.88661,68.00892,76,75,0
68.00892,68.131226,73,71,0
67.88661,68.131226,82,93,0
68.131226,68.25353,74,75,0
68.131226,68.36056,79,93,0
68.25353,68.37585,71,63,0
68.37585,68.49692,73,75,0
68.49692,68.618,70,68,0
68.37585,68.618,79,93,0
68.618,68.7403,73,71,0
68.7403,68.86261,70,65,0
68.618,68.86261,78,90,0
68.86261,68.984924,73,66,0
68.86261,69.09194,76,83,0
68.984924,69.10723,67,60,0
69.10723,69.22686,73,61,0
69.22686,69.34648,66,56,0
69.10723,69.34648,76,77,0
69.34648,69.46929,72,57,0
69.46929,69.5921,70,51,0
69.34648,69.5921,75,71,0
69.5921,69.71491,71,52,0
69.5921,69.824615,74,66,0
69.71491,69.840294,65,47,0
69.840294,69.96088,71,48,0
69.96088,70.08147,64,44,0
69.840294,70.08147,74,60,0
70.08147,70.20353,69,44,0
70.20353,70.325584,68,39,0
70.08147,70.325584,73,55,0
70.325584,70.44765,69,40,0
70.44765,70.56971,65,38,0
70.325584,70.56971,72,50,0
70.56971,70.69152,68,40,0
70.69152,70.82134,64,38,0
70.56971,70.82134,71,50,0
70.82134,70.941444,71,62,0
70.941444,71.061554,64,56,0
70.82134,71.061554,74,74,0
71.061554,71.183365,69,62,0
71.183365,71.305176,64,38,0
71.061554,71.305176,72,62,0
71.305176,71.42699,68,40,0
71.42699,71.556526,64,38,0
71.305176,71.556526,71,50,0
71.556526,71.67687,71,62,0
71.67687,71.797226,64,56,0
71.556526,71.797226,76,74,0
71.797226,71.91928,69,62,0
71.91928,72.04134,64,38,0
71.797226,72.04134,72,62,0
72.04134,72.16341,68,40,0
72.16341,72.29156,64,38,0
72.04134,72.29156,71,50,0
72.29156,72.4119,71,62,0
72.4119,72.53225,64,56,0
72.29156,72.53225,74,74,0
72.53225,72.65382,69,62,0
72.65382,72.77538,64,38,0
72.53225,72.77538,72,62,0
72.77538,72.89695,68,40,0
72.89695,73.027054,64,38,0
72.77538,73.027054,71,50,0
73.027054,73.1462,71,62,0
73.1462,73.26536,64,56,0
73.027054,73.26536,76,74,0
73.26536,73.386185,69,62,0
73.386185,73.50702,64,38,0
73.26536,73.50702,72,62,0
73.50702,73.628586,71,50,0
73.50702,73.628586,68,40,0
73.628586,73.75015,64,38,0
73.75015,73.8728,63,42,0
73.8728,73.99546,64,38,0
73.99546,74.11811,68,42,0
74.11811,74.24077,64,38,0
74.24077,74.36342,71,45,0
74.36342,74.48608,68,45,0
74.48608,74.60873,67,46,0
74.60873,74.731384,68,49,0
74.731384,74.854034,71,50,0
74.854034,74.97656,68,52,0
74.97656,75.09872,74,54,0
75.09872,75.22084,71,54,0
75.22084,75.34274,77,55,0
75.34274,75.464645,74,56,0
75.464645,75.58631,80,59,0
75.58631,75.70797,77,63,0
75.70797,75.82963,83,70,0
75.82963,75.95129,80,62,0
75.95129,76.073166,86,70,0
76.073166,76.19536,83,59,0
76.19536,76.317825,81,65,0
76.317825,76.440575,80,61,0
76.440575,76.56298,88,69,0
76.56298,76.68538,86,63,0
76.68538,76.807785,85,59,0
76.807785,76.93019,83,58,0
76.93019,77.0526,81,56,0
77.0526,77.174995,80,49,0
77.174995,77.2974,81,55,0
77.2974,77.41981,78,53,0
77.41981,77.541466,75,51,0
77.541466,77.663124,71,51,0
77.663124,77.78478,69,48,0
77.78478,77.90948,66,46,0
77.90948,78.03188,68,61,0
77.90948,78.03188,74,61,0
78.03188,78.15429,71,51,0
78.15429,78.27669,68,48,0
78.27669,78.39909,64,47,0
78.39909,78.5215,62,46,0
78.5215,78.6439,59,43,0
78.6439,78.766304,67,49,0
78.766304,78.88871,64,42,0
78.88871,79.011116,61,45,0
79.011116,79.133514,57,46,0
79.133514,79.25592,56,48,0
79.25592,79.38326,55,52,0
79.38326,79.50443,54,54,0
79.50443,79.625595,58,38,0
79.625595,79.746765,59,45,0
79.746765,79.867935,54,38,0
79.867935,79.99009,61,43,0
79.99009,80.11583,54,38,0
80.11583,80.23724,62,50,0
80.23724,80.35865,56,38,0
80.35865,80.480064,52,43,0
80.480064,80.60148,56,38,0
80.60148,80.725914,50,45,0
80.725914,80.8538,56,37,0
80.8538,80.976456,49,45,0
80.976456,81.099106,52,33,0
81.099106,81.22176,57,33,0
81.22176,81.34441,59,33,0
81.34441,81.46707,61,33,0
81.46707,81.58972,64,33,0
81.58972,81.71238,61,36,0
81.71238,81.83503,59,31,0
81.83503,81.95769,57,33,0
82.08502,82.33235,64,50,0
81.95769,82.33235,52,33,0
82.33235,83.311584,57,55,0
82.33235,83.311584,69,65,0
83.311584,83.55491,56,58,0
83.311584,83.55491,68,69,0
83.55491,83.80126,69,74,0
83.55491,83.80126,57,62,0
83.80126,84.53568,59,71,0
83.80126,84.53568,71,84,0
84.53568,85.27505,61,65,0
84.53568,85.27505,73,77,0
85.27505,85.51738,64,75,0
85.27505,85.51738,73,89,0
85.27505,85.51738,76,89,0
85.51738,85.75971,62,63,0
85.51738,85.75971,71,76,0
85.51738,85.75971,74,76,0
85.75971,86.00761,61,59,0
85.75971,86.00761,69,70,0
85.75971,86.00761,73,70,0
86.00761,86.250435,59,70,0
86.00761,86.250435,68,82,0
86.00761,86.250435,71,82,0
86.250435,86.49326,61,62,0
86.250435,86.49326,73,75,0
86.49326,86.74558,59,57,0
86.49326,86.74558,71,68,0
86.74558,87.2362,57,77,0
86.74558,87.2362,69,90,0
87.2362,87.48151,69,73,0
87.2362,87.48151,81,86,0
87.48151,87.97212,71,77,0
87.48151,87.97212,83,91,0
87.97212,88.21743,73,80,0
87.97212,88.21743,85,95,0
88.21743,88.45976,88,97,0
88.21743,88.45976,85,97,0
88.21743,88.45976,76,82,0
88.45976,88.7021,86,89,0
88.45976,88.7021,83,89,0
88.45976,88.7021,74,75,0
88.7021,88.95,85,82,0
88.7021,88.95,81,82,0
88.7021,88.95,73,69,0
88.95,89.19282,83,95,0
88.95,89.19282,80,95,0
88.95,89.19282,71,80,0
89.19282,89.435646,85,89,0
89.19282,89.435646,73,75,0
89.435646,89.687965,83,80,0
89.435646,89.687965,71,68,0
89.687965,89.93454,81,93,0
89.687965,89.93454,69,79,0
89.93454,90.18047,80,80,0
89.93454,90.18047,76,80,0
90.18047,90.42578,78,77,0
90.18047,90.42578,74,77,0
90.42578,90.67109,76,72,0
90.42578,90.67109,73,72,0
90.67109,90.9164,75,70,0
90.67109,90.9164,72,70,0
90.9164,91.1617,74,70,0
90.9164,91.1617,71,70,0
91.1617,91.284355,69,65,0
91.1617,91.284355,73,74,0
91.407005,91.50053,69,50,0
91.407005,91.50053,74,57,0
91.656395,91.7507,69,45,0
91.656395,91.7507,73,51,0
91.907875,92.002174,71,57,0
91.907875,92.002174,66,50,0
91.907875,92.002174,69,50,0
92.4271,92.55154,76,74,0
92.4271,92.55154,68,65,0
92.67597,92.92255,81,79,0
92.67597,92.92255,69,67,0
92.92255,93.16848,80,68,0
92.92255,93.16848,76,57,0
93.16848,93.41365,78,65,0
93.16848,93.41365,74,55,0
93.41365,93.658066,76,61,0
93.41365,93.658066,73,51,0
93.658066,93.90398,75,59,0
93.658066,93.90398,72,50,0
93.90398,94.1514,74,59,0
93.90398,94.1514,71,50,0
94.275314,94.40859,73,47,0
94.40859,94.531654,74,47,0
94.531654,94.654526,76,47,0
94.654526,94.77718,78,51,0
94.77718,94.89983,74,47,0
94.89983,95.02254,76,50,0
95.02254,95.145546,78,47,0
95.145546,95.268875,80,49,0
95.268875,95.39257,76,47,0
95.39257,95.5166,78,50,0
95.5166,95.64095,80,47,0
95.64095,95.76568,81,50,0
95.76568,95.90076,85,51,0
95.90076,96.02366,86,51,0
96.02366,96.14653,88,50,0
96.14653,96.26919,90,54,0
96.26919,96.39184,86,48,0
96.39184,96.514496,88,50,0
96.514496,96.637146,90,47,0
96.637146,96.7598,92,47,0
96.7598,96.882454,88,45,0
96.882454,97.00511,90,47,0
97.00511,97.131645,92,44,0
97.131645,97.2516,93,52,0
97.2516,97.371925,88,52,0
97.371925,97.49243,85,48,0
97.49243,97.613106,81,48,0
97.613106,97.73398,76,48,0
97.73398,97.854996,73,48,0
97.854996,97.97616,69,46,0
97.97616,98.09755,64,45,0
98.09755,98.219055,61,43,0
98.219055,98.34072,57,42,0
98.70709,98.82965,47,37,0
98.82965,98.95221,48,42,0
98.95221,99.077065,45,34,0
98.58453,99.077065,52,56,0
99.077065,99.30993,57,54,0
99.19962,99.32218,52,39,0
99.44474,99.5673,51,45,0
99.5673,99.68986,52,55,0
99.68986,99.812416,48,46,0
99.32218,99.812416,57,55,0
99.934975,100.06035,57,55,0
99.812416,100.06035,60,66,0
100.182915,100.30547,59,56,0
100.30547,100.42803,60,61,0
100.42803,100.55059,57,56,0
100.06035,100.55059,65,73,0
100.67315,100.79571,60,49,0
100.55059,100.79571,64,68,0
100.91827,101.040825,59,50,0
101.040825,101.16338,60,55,0
100.79571,101.28084,63,68,0
101.16338,101.28594,57,45,0
101.4085,101.533615,60,33,0
101.28594,101.533615,63,51,0
101.533615,101.77843,64,45,0
101.900826,102.02323,52,39,0
102.02323,102.14564,59,40,0
102.14564,102.268036,63,42,0
102.268036,102.518326,64,44,0
102.64073,102.76313,64,43,0
102.76313,102.88554,71,48,0
102.88554,103.00794,75,50,0
103.00794,103.25796,76,52,0
103.38036,103.500114,88,58,0
103.500114,103.620094,85,57,0
103.620094,103.74035,82,55,0
103.74035,103.86087,79,54,0
103.86087,103.981674,76,54,0
103.981674,104.102715,73,54,0
104.102715,104.22404,70,53,0
104.22404,104.34563,66,50,0
104.34563,104.4675,62,46,0
104.59006,104.712616,61,37,0
104.712616,104.835175,62,42,0
104.835175,104.96003,59,34,0
104.4675,104.96003,66,56,0
104.96003,105.192894,71,54,0
105.08259,105.205154,66,39,0
105.32771,105.45027,65,45,0
105.45027,105.57283,66,55,0
105.57283,105.69539,62,46,0
105.205154,105.69539,71,55,0
105.81795,105.94332,71,55,0
105.69539,105.94332,74,66,0
106.06588,106.18844,73,56,0
106.18844,106.311,74,61,0
106.311,106.433556,71,56,0
105.94332,106.433556,79,73,0
106.556114,106.67867,74,49,0
106.433556,106.67867,78,68,0
106.80123,106.92379,73,50,0
106.92379,107.04636,74,55,0
106.67867,107.1638,77,68,0
107.04636,107.168915,71,45,0
107.29147,107.41659,74,33,0
107.168915,107.41659,77,51,0
107.41659,107.66139,78,45,0
107.41659,107.66139,73,45,0
107.7838,107.906204,66,39,0
107.906204,108.0286,73,40,0
108.0286,108.15101,77,42,0
108.15101,108.4013,78,44,0
108.5237,108.6461,78,43,0
108.6461,108.76851,85,48,0
108.76851,108.890915,89,50,0
108.890915,109.14092,90,52,0
109.26333,109.38308,87,58,0
109.38308,109.50306,84,57,0
109.50306,109.623314,81,55,0
109.623314,109.74384,78,54,0
109.74384,109.86464,75,54,0
109.86464,109.98569,72,54,0
109.98569,110.107,69,53,0
110.107,110.2286,66,50,0
110.2286,110.35047,63,46,0
110.35047,110.595276,61,45,0
110.71768,110.84009,61,42,0
110.84009,110.962494,68,44,0
110.962494,111.08489,71,46,0
111.08489,111.33518,70,49,0
111.45759,111.57999,73,49,0
111.57999,111.70239,78,55,0
111.70239,111.82946,82,57,0
111.82946,111.951866,85,67,0
111.951866,112.07427,83,58,0
112.19668,112.31908,59,46,0
112.31908,112.44148,66,47,0
112.44148,112.56389,69,50,0
112.56389,112.81417,68,52,0
112.93658,113.05898,71,52,0
113.05898,113.18139,76,59,0
113.18139,113.307655,80,62,0
113.307655,113.43006,83,70,0
113.43006,113.55246,81,62,0
113.674866,113.79727,57,49,0
113.79727,113.91967,64,51,0
113.91967,114.042076,68,53,0
114.042076,114.292366,67,56,0
114.41477,114.53717,70,56,0
114.53717,114.65958,75,63,0
114.65958,114.78584,79,66,0
114.78584,114.90825,81,73,0
114.90825,115.030655,80,67,0
115.15305,115.27546,56,53,0
115.27546,115.397865,63,54,0
115.397865,115.52027,66,57,0
115.52027,115.77055,65,60,0
115.89296,116.015366,71,60,0
116.015366,116.137764,73,67,0
116.137764,116.264565,77,70,0
116.264565,116.38697,80,77,0
116.38697,116.50938,78,71,0
116.63178,116.75418,66,56,0
116.75418,116.87659,71,58,0
116.87659,116.99899,76,61,0
116.99899,117.249275,74,64,0
117.37168,117.49409,69,64,0
117.49409,117.61649,68,71,0
117.61649,117.74303,73,75,0
117.74303,117.86518,80,79,0
117.86518,117.987335,78,76,0
118.10949,118.23164,66,59,0
118.23164,118.3538,71,61,0
118.3538,118.47595,76,64,0
118.47595,118.72624,74,68,0
118.84865,118.97105,69,67,0
118.97105,119.09345,68,75,0
119.09345,119.22025,73,79,0
119.22025,119.465065,71,90,0
119.58746,119.70987,59,62,0
119.70987,119.832275,64,64,0
119.832275,119.958015,70,67,0
119.958015,120.20409,71,70,0
120.326485,120.44889,59,68,0
120.44889,120.5713,64,76,0
120.5713,120.6981,70,80,0
120.6981,120.81951,71,90,0
120.81951,120.940926,59,62,0
120.940926,121.06234,64,66,0
121.06234,121.183754,70,72,0
121.183754,121.30516,71,84,0
121.30516,121.4309,59,72,0
121.4309,121.554565,64,75,0
121.554565,121.67598,70,82,0
121.67598,121.79739,71,89,0
121.79739,121.91881,59,77,0
121.91881,122.04022,64,81,0
122.04022,122.16702,70,88,0
122.16702,122.2865,66,81,0
122.2865,122.40598,65,67,0
122.40598,122.52546,66,71,0
122.52546,122.644936,68,72,0
122.644936,122.76442,69,78,0
122.76442,122.888336,68,72,0
122.16702,122.888336,72,103,0
122.888336,123.00806,66,81,0
123.00806,123.12778,65,70,0
122.888336,123.12778,73,103,0
123.12778,123.24749,66,72,0
123.24749,123.36721,68,74,0
123.36721,123.48692,69,76,0
123.48692,123.61111,68,72,0
123.61111,123.73058,66,81,0
123.73058,123.85006,65,67,0
123.85006,123.96954,66,71,0
123.96954,124.08902,68,72,0
124.08902,124.208496,69,78,0
124.208496,124.33242,68,72,0
123.61111,124.33242,72,103,0
124.33242,124.45214,66,81,0
124.45214,124.57185,65,70,0
124.33242,124.57185,73,103,0
124.57185,124.691574,66,72,0
124.691574,124.81129,68,74,0
124.81129,124.9347,69,76,0
124.9347,125.06948,68,72,0
125.06948,125.18896,66,81,0
125.18896,125.30843,65,67,0
125.30843,125.42792,66,71,0
125.42792,125.54739,68,72,0
125.54739,125.66687,69,78,0
125.66687,125.790794,68,72,0
125.790794,125.910515,66,52,0
125.910515,126.03023,65,53,0
126.03023,126.14995,66,54,0
126.14995,126.26966,67,55,0
126.26966,126.38938,69,61,0
126.38938,126.51356,66,54,0
125.06948,126.51356,72,103,0
126.51356,126.63328,69,58,0
126.63328,126.75299,67,47,0
126.75299,126.87271,66,47,0
126.87271,126.99243,67,47,0
126.99243,127.112144,69,54,0
127.112144,127.23632,67,47,0
126.51356,127.23632,71,62,0
127.23632,127.35604,68,56,0
127.35604,127.47576,66,45,0
127.47576,127.595474,68,45,0
127.595474,127.715195,69,45,0
127.715195,127.834915,71,52,0
127.834915,127.95909,68,45,0
127.23632,127.95909,74,60,0
127.95909,128.07881,71,53,0
128.07881,128.19852,69,43,0
128.19852,128.31824,68,44,0
128.31824,128.43796,69,44,0
128.43796,128.55768,71,49,0
128.55768,128.68185,69,44,0
127.95909,128.68185,73,57,0
128.68185,128.80157,70,51,0
128.80157,128.9213,68,42,0
128.9213,129.041,70,42,0
129.041,129.16072,71,41,0
129.16072,129.28044,73,47,0
129.28044,129.40462,70,42,0
128.68185,129.40462,76,55,0
129.40462,129.52434,73,49,0
129.52434,129.64406,71,40,0
129.64406,129.76378,70,40,0
129.76378,129.88348,71,40,0
129.88348,130.0032,73,46,0
130.0032,130.12738,71,41,0
129.40462,130.12738,74,52,0
130.12738,130.2471,71,49,0
130.2471,130.36682,69,40,0
130.36682,130.48654,68,40,0
130.48654,130.60625,69,40,0
130.60625,130.72597,71,46,0
130.72597,130.85014,69,41,0
130.12738,130.85014,73,52,0
130.85014,130.96986,69,49,0
130.96986,131.08958,68,40,0
131.08958,131.2093,67,40,0
131.2093,131.32903,68,40,0
131.32903,131.44873,69,46,0
131.44873,131.57292,68,41,0
130.85014,131.57292,72,52,0
131.57292,131.69263,69,49,0
131.69263,131.81235,68,40,0
131.81235,131.93207,66,40,0
131.93207,132.05179,68,40,0
132.05179,132.17151,69,46,0
132.17151,132.29568,68,41,0
131.57292,132.29568,71,52,0
132.29568,132.41539,68,49,0
132.41539,132.53511,66,40,0
132.53511,132.65483,65,40,0
132.65483,132.77455,66,40,0
132.77455,132.89427,68,46,0
132.89427,133.01845,66,41,0
132.29568,133.01845,70,52,0
133.01845,133.13817,68,49,0
133.13817,133.25787,66,40,0
133.25787,133.3776,65,40,0
133.3776,133.49731,66,40,0
133.49731,133.61703,68,46,0
133.61703,133.74121,66,41,0
133.01845,133.74121,69,52,0
133.74121,133.86093,65,55,0
133.86093,133.98065,61,45,0
133.98065,134.10036,56,49,0
134.10036,134.22008,61,47,0
134.22008,134.3398,65,49,0
134.3398,134.45952,68,49,0
134.45952,134.57924,65,57,0
134.57924,134.69894,61,45,0
134.69894,134.81866,56,49,0
134.81866,134.93839,61,47,0
134.93839,135.0581,65,46,0
135.0581,135.18126,68,43,0
135.18126,135.30074,66,55,0
135.30074,135.42021,61,45,0
135.42021,135.5397,57,49,0
135.5397,135.65918,61,47,0
135.65918,135.77866,66,49,0
135.77866,135.9013,69,49,0
135.9013,136.02078,66,57,0
136.02078,136.14027,63,45,0
136.14027,136.25975,60,49,0
136.25975,136.37923,63,47,0
136.37923,136.4987,66,46,0
136.4987,136.62186,69,43,0
136.62186,136.74158,68,55,0
136.74158,136.8613,65,45,0
136.8613,136.98102,61,49,0
136.98102,137.10074,65,47,0
137.10074,137.22044,68,49,0
137.22044,137.34016,73,49,0
137.34016,137.45988,68,57,0
137.45988,137.5796,65,45,0
137.5796,137.69933,61,49,0
137.69933,137.81903,65,47,0
137.81903,137.93875,68,46,0
137.93875,138.0619,73,43,0
138.0619,138.1814,69,55,0
138.1814,138.30087,66,45,0
138.30087,138.42035,61,49,0
138.42035,138.53983,66,47,0
138.53983,138.6593,69,49,0
138.6593,138.78197,73,49,0
138.78197,138.90144,69,57,0
138.90144,139.02092,66,45,0
139.02092,139.1404,63,49,0
139.1404,139.25987,66,47,0
139.25987,139.37935,69,46,0
139.37935,139.50252,72,43,0
139.50252,139.62224,73,55,0
139.62224,139.74194,68,45,0
139.74194,139.86166,65,49,0
139.86166,139.98138,68,47,0
139.98138,140.1011,73,49,0
140.1011,140.22083,77,49,0
140.22083,140.34053,80,55,0
140.34053,140.46025,77,45,0
140.46025,140.57997,83,55,0
140.57997,140.69969,80,53,0
140.69969,140.81941,78,49,0
140.81941,140.93912,77,49,0
140.93912,141.06152,85,69,0
141.06152,141.18393,83,63,0
141.18393,141.30634,82,59,0
141.30634,141.42874,80,58,0
141.42874,141.55115,78,56,0
141.55115,141.67355,77,49,0
141.67355,141.79596,78,55,0
141.79596,141.91835,75,53,0
141.91835,142.04001,72,51,0
142.04001,142.16168,68,51,0
142.16168,142.28334,66,48,0
142.28334,142.40804,63,46,0
142.40804,142.53043,65,61,0
142.40804,142.53043,71,61,0
142.53043,142.65283,68,51,0
142.65283,142.77524,65,48,0
142.77524,142.89764,61,47,0
142.89764,143.02005,60,46,0
143.02005,143.14246,59,43,0
143.14246,143.26486,58,49,0
143.26486,143.38725,61,42,0
143.38725,143.50966,64,45,0
143.50966,143.63206,76,46,0
143.63206,143.75447,73,48,0
143.75447,143.8818,70,52,0
143.8818,144.00298,67,54,0
143.99136,144.11253,63,38,0
144.12415,144.24532,68,45,0
144.24532,144.36649,63,38,0
144.36649,144.48863,70,43,0
144.48863,144.61438,63,38,0
144.61438,144.7358,71,50,0
144.7358,144.85721,65,38,0
144.85721,144.97862,61,43,0
144.97862,145.10004,65,38,0
145.10004,145.22447,59,45,0
145.22447,145.35236,65,37,0
145.35236,145.475,58,45,0
145.475,145.59766,61,33,0
145.59766,145.7203,66,33,0
145.72746,145.85011,70,33,0
145.84297,145.96562,66,33,0
145.96562,146.08827,61,33,0
146.08827,146.21092,58,36,0
146.21092,146.33359,56,31,0
146.58357,147.06783,61,59,0
147.06783,147.31262,63,55,0
147.31262,147.55743,61,55,0
146.82301,147.80225,66,64,0
147.80225,148.04556,65,62,0
148.04556,148.29192,66,70,0
147.55743,148.29192,60,58,0
148.29192,149.02634,65,60,0
148.29192,149.02634,68,72,0
148.29192,149.02634,59,58,0
149.02634,149.7657,70,54,0
149.02634,149.7657,64,54,0
149.02634,149.7657,58,54,0
149.7657,150.00804,73,73,0
149.7657,150.00804,70,62,0
150.00804,150.25037,71,62,0
150.00804,150.25037,68,52,0
150.25037,150.49826,70,54,0
150.25037,150.49826,66,45,0
149.7657,150.49826,63,62,0
150.49826,150.74109,68,66,0
150.74109,150.98392,70,49,0
150.98392,151.23624,68,41,0
150.49826,151.23624,65,66,0
151.23624,151.48154,66,50,0
151.72685,151.97215,66,49,0
151.72685,151.97215,78,58,0
151.97215,152.46747,80,69,0
151.97215,152.46747,77,58,0
151.97215,152.46747,68,58,0
152.46747,152.71684,82,73,0
152.46747,152.71684,76,62,0
152.46747,152.71684,70,62,0
152.72214,152.96448,73,75,0
152.72214,152.96448,82,75,0
152.72214,152.96448,85,89,0
152.96448,153.20682,71,63,0
152.96448,153.20682,80,64,0
152.96448,153.20682,83,76,0
153.20682,153.45471,78,70,0
153.20682,153.45471,82,70,0
153.45471,153.69754,80,82,0
153.69754,153.94035,82,75,0
153.94035,154.19267,80,68,0
153.45471,154.19267,77,82,0
154.19267,154.43799,78,90,0
154.68329,154.93143,70,73,0
154.68329,154.93143,78,86,0
154.68329,154.93143,66,73,0
154.93143,155.42004,71,77,0
154.93143,155.42004,80,91,0
154.93143,155.42004,68,77,0
155.42004,155.67163,73,80,0
155.42004,155.67163,82,95,0
155.42004,155.67163,70,80,0
155.67163,155.91397,85,97,0
155.67163,155.91397,78,97,0
155.67163,155.91397,73,82,0
155.91397,156.15631,83,89,0
155.91397,156.15631,71,75,0
156.15631,156.39896,82,82,0
156.15631,156.39896,70,69,0
156.4042,156.64702,82,90,0
156.4042,156.64702,75,90,0
156.4042,156.64702,70,76,0
156.64702,156.88985,80,81,0
156.64702,156.88985,68,69,0
156.88985,157.13684,66,60,0
156.88985,157.13684,78,71,0
157.14217,157.3845,78,82,0
157.14217,157.3845,66,69,0
157.3845,157.62685,65,61,0
157.3845,157.62685,77,72,0
157.62685,157.86949,75,64,0
157.62685,157.86949,63,54,0
157.87474,158.09328,61,60,0
157.87474,158.09328,73,71,0
158.11757,158.3361,73,66,0
158.11757,158.3361,61,56,0
158.36038,158.60738,61,51,0
158.36038,158.60738,73,60,0
158.6127,158.85553,70,52,0
158.6127,158.85553,61,52,0
158.6127,158.85553,73,62,0
158.85553,159.09836,71,57,0
158.85553,159.09836,68,48,0
159.09836,159.35068,70,46,0
159.09836,159.35068,66,39,0
159.35068,159.5935,73,56,0
159.5935,159.83931,71,49,0
159.83931,160.0952,68,41,0
159.35068,160.0952,63,47,0
160.21686,160.33852,61,43,0
160.33852,160.46017,60,43,0
160.46017,160.58183,61,40,0
160.58183,160.70349,63,43,0
160.70349,160.82515,61,40,0
160.0952,160.82515,66,51,0
160.82515,161.55511,65,49,0
161.55511,161.80168,78,79,0
161.55511,161.80168,66,67,0
161.80168,162.04762,77,68,0
161.80168,162.04762,73,68,0
162.04762,162.29292,75,65,0
162.04762,162.29292,71,65,0
162.29292,162.53824,73,61,0
162.29292,162.53824,70,61,0
162.53824,162.78354,72,59,0
162.53824,162.78354,69,59,0
162.78354,163.02885,71,59,0
162.78354,163.02885,68,59,0
163.02885,163.1515,66,55,0
163.02885,163.1515,70,62,0
163.27415,163.36768,66,50,0
163.27415,163.36768,71,57,0
163.52354,163.61784,66,45,0
163.52354,163.61784,70,51,0
163.77502,163.86932,68,57,0
163.77502,163.86932,63,50,0
163.77502,163.86932,66,50,0
164.29425,164.41869,65,66,0
164.54312,164.78969,78,71,0
164.54312,164.78969,66,60,0
164.78969,165.03563,77,61,0
164.78969,165.03563,73,51,0
165.03563,165.28079,75,58,0
165.03563,165.28079,71,49,0
165.28079,165.5252,73,54,0
165.28079,165.5252,70,45,0
165.5252,165.77112,72,53,0
165.5252,165.77112,69,45,0
165.77112,166.01854,71,53,0
165.77112,166.01854,68,45,0
166.01854,166.14246,70,50,0
166.14246,166.27574,65,47,0
166.27574,166.3988,66,47,0
166.3988,166.52167,68,47,0
166.52167,166.64433,70,51,0
166.64433,166.76698,71,47,0
166.76698,166.88968,73,50,0
166.88968,167.0127,72,47,0
167.0127,167.13602,73,49,0
167.13602,167.25972,75,47,0
167.25972,167.38374,76,50,0
167.38374,167.5081,77,47,0
167.5081,167.63283,78,50,0
167.63283,167.7679,77,50,0
167.7679,167.89081,78,49,0
167.89081,168.01367,80,48,0
168.01367,168.13634,82,51,0
168.13634,168.25899,83,45,0
168.25899,168.38164,85,46,0
168.38164,168.50429,84,43,0
168.50429,168.62695,85,42,0
168.62695,168.7496,87,40,0
168.7496,168.87225,88,41,0
168.87225,168.9988,89,38,0
168.9988,169.11874,90,44,0
169.11874,169.23907,85,44,0
169.23907,169.35957,82,40,0
169.35957,169.48026,80,37,0
169.48026,169.60112,82,40,0
169.60112,169.72214,78,36,0
169.72214,169.8433,85,45,0
169.8433,169.96469,82,36,0
169.96469,170.0862,78,40,0
170.0862,170.21992,77,36,0
170.21992,170.34233,78,40,0
170.34233,170.46474,73,36,0
170.46474,170.5859,82,45,0
170.5859,170.70729,78,36,0
170.70729,170.8288,73,40,0
170.8288,170.96252,71,36,0
170.96252,171.08493,73,40,0
171.08493,171.20734,70,36,0
171.20734,171.3285,78,45,0
171.3285,171.44989,73,36,0
171.44989,171.5714,70,40,0
171.5714,171.70512,68,36,0
171.70512,171.82753,70,40,0
171.82753,171.94992,66,36,0
171.94992,172.07233,73,45,0
172.07233,172.19473,70,37,0
172.19473,172.31714,66,37,0
172.31714,172.43954,61,37,0
172.80959,172.93472,70,39,0
172.93472,173.06079,73,42,0
173.06079,173.18782,78,40,0
173.18782,173.31581,82,43,0
173.31581,173.45433,85,39,0
173.45433,173.59953,90,45,0
174.32562,174.62624,70,31,0
174.32562,174.62624,66,26,0
174.32562,174.62624,58,26,0
175.251,175.57518,70,32,0
175.251,175.57518,78,38,0
1.357133,1.8496644,42,48,0
1.357133,1.8496644,30,40,0
2.0947826,2.5850184,54,48,0
2.0947826,2.5850184,42,40,0
2.8329535,3.3231895,62,60,0
3.3231895,3.5683074,61,48,0
2.8329535,3.9359846,54,50,0
2.8329535,3.9359846,57,50,0
3.5683074,4.0585437,60,54,0
4.0585437,4.306217,54,33,0
4.0585437,4.306217,57,39,0
4.306217,4.551335,56,48,0
4.306217,4.551335,53,40,0
4.796453,5.041571,37,32,0
4.796453,5.041571,49,38,0
5.041571,5.2830453,54,48,0
5.041571,5.2830453,42,40,0
5.764387,6.009505,47,48,0
5.764387,6.009505,35,40,0
6.503615,6.748733,37,34,0
6.503615,6.748733,49,41,0
7.246404,7.7397194,42,48,0
7.246404,7.7397194,30,40,0
7.9843373,8.477431,54,48,0
7.9843373,8.477431,42,40,0
8.722549,9.212786,62,55,0
9.212786,9.457904,61,48,0
8.722549,9.82659,54,46,0
8.722549,9.82659,57,46,0
9.457904,9.950158,60,54,0
9.950158,10.203025,54,33,0
9.950158,10.203025,57,39,0
10.203025,10.448142,56,48,0
10.203025,10.448142,53,40,0
10.69326,10.940684,42,32,0
10.940684,11.185302,47,40,0
10.69326,11.185302,54,38,0
11.42992,11.674538,42,32,0
11.42992,11.674538,54,38,0
11.674538,12.402981,47,48,0
12.402981,12.897293,49,40,0
12.897293,13.144468,42,32,0
13.144468,13.388589,47,40,0
12.897293,13.388589,54,38,0
13.63271,13.880146,42,32,0
13.880146,14.124268,47,40,0
13.63271,14.124268,54,38,0
14.371182,14.616301,42,32,0
14.371182,14.616301,54,38,0
14.616301,15.341312,47,48,0
15.341312,15.836137,49,40,0
15.836137,16.081255,42,32,0
16.081255,16.326372,47,40,0
15.836137,16.326372,54,38,0
16.571491,16.819164,61,38,0
16.819164,17.064283,59,42,0
17.064283,17.3094,57,46,0
17.3094,17.554518,56,50,0
17.554518,17.799637,54,54,0
17.799637,18.044754,52,63,0
18.044754,18.28838,50,72,0
18.28838,18.532005,49,84,0
18.532005,18.775629,45,82,0
18.775629,19.02495,43,82,0
19.02495,20.242617,42,86,0
20.242617,20.487234,46,72,0
20.487234,20.972109,47,70,0
20.972109,21.220295,44,57,0
21.220295,21.705593,45,55,0
21.705593,21.949713,39,44,0
21.949713,22.201345,40,47,0
22.201345,22.441557,44,58,0
22.201345,22.441557,52,69,0
22.441557,22.68518,45,53,0
22.68518,22.936533,40,54,0
22.936533,23.177227,44,58,0
22.936533,23.177227,52,69,0
23.177227,23.421347,45,53,0
23.421347,23.671564,40,54,0
23.671564,23.912256,44,58,0
23.671564,23.912256,52,69,0
23.912256,24.15539,45,53,0
24.15539,24.407057,40,54,0
24.407057,24.645359,44,58,0
24.407057,24.645359,52,69,0
24.645359,24.887022,45,53,0
24.887022,25.130154,40,54,0
27.57536,27.820578,40,54,0
27.820578,28.310194,37,64,0
27.820578,28.79981,45,64,0
28.79981,29.043129,44,62,0
28.555002,29.043129,42,58,0
29.043129,29.289482,45,70,0
29.289482,29.779099,40,72,0
29.289482,30.023907,47,72,0
30.023907,30.513521,45,54,0
30.023907,30.763266,49,54,0
30.763266,31.005602,52,73,0
31.005602,31.247938,50,62,0
30.763266,31.247938,38,73,0
31.247938,31.49583,49,54,0
31.49583,31.738659,47,66,0
31.738659,31.981485,49,49,0
31.49583,31.981485,40,66,0
31.981485,32.233803,47,41,0
32.233803,33.46503,45,50,0
33.46503,33.588696,49,36,0
33.588696,33.71236,45,36,0
33.71236,33.834763,42,48,0
33.834763,33.95717,45,36,0
33.95717,34.07957,47,36,0
34.07957,34.201977,49,36,0
34.201977,34.32438,47,37,0
34.32438,34.446785,45,37,0
34.446785,34.569187,51,47,0
34.569187,34.691593,42,37,0
34.691593,34.81325,44,51,0
34.81325,34.93491,45,45,0
34.93491,35.056572,44,56,0
35.056572,35.181263,42,50,0
35.181263,35.30367,40,65,0
35.30367,35.42607,50,38,0
35.42607,35.548477,52,52,0
35.548477,35.67088,54,39,0
35.67088,35.793285,52,51,0
35.793285,35.915688,50,47,0
35.915688,36.038094,45,67,0
35.915688,36.038094,55,67,0
36.038094,36.160496,52,49,0
36.160496,36.282898,49,54,0
36.282898,36.405304,47,47,0
36.405304,36.527706,43,57,0
36.527706,36.65505,40,53,0
36.65505,36.776215,38,72,0
36.776215,36.897385,42,51,0
36.897385,37.01855,44,58,0
37.01855,37.13972,45,48,0
37.13972,37.261875,47,55,0
37.261875,37.387615,49,47,0
37.387615,37.509026,40,64,0
37.387615,37.509026,50,64,0
37.509026,37.63044,49,49,0
37.63044,37.751854,50,55,0
37.751854,37.87327,47,48,0
37.87327,37.997704,52,54,0
37.997704,38.125584,50,41,0
38.125584,38.248238,45,60,0
38.125584,38.248238,49,60,0
38.248238,38.37089,52,54,0
38.37089,38.493546,50,54,0
38.493546,38.6162,49,54,0
38.6162,38.738853,47,54,0
38.738853,38.861507,45,51,0
38.861507,38.98416,44,55,0
38.98416,39.106815,45,55,0
39.106815,39.22947,43,57,0
39.22947,39.352123,45,60,0
39.352123,39.474777,42,61,0
39.474777,39.59743,46,65,0
39.59743,39.7186,38,75,0
39.7186,39.839767,42,53,0
39.839767,39.960938,44,62,0
39.960938,40.082104,45,50,0
40.082104,40.204258,47,65,0
40.204258,40.329998,49,49,0
40.329998,40.451412,50,73,0
40.451412,40.572826,40,51,0
40.572826,40.69424,52,64,0
40.69424,40.81565,40,50,0
40.81565,40.940086,50,56,0
40.940086,41.06797,40,43,0
41.191296,41.314545,49,48,0
41.314545,41.437607,50,50,0
41.437607,41.56048,52,46,0
41.56048,41.683132,54,47,0
41.683132,41.805786,50,45,0
41.805786,41.92844,52,45,0
41.06797,41.92844,45,63,0
41.92844,42.051094,54,41,0
42.051094,42.173748,56,43,0
42.173748,42.296402,52,41,0
42.296402,42.419056,54,42,0
42.419056,42.541706,56,37,0
42.541706,42.66436,57,42,0
42.787014,42.880535,66,38,0
43.0364,43.130703,64,32,0
43.287876,43.382183,63,38,0
43.807106,43.931538,62,38,0
44.1793,44.30255,61,48,0
44.30255,44.42561,62,50,0
44.42561,44.54848,64,46,0
44.54848,44.671135,66,47,0
44.671135,44.793655,62,45,0
44.793655,44.91567,64,45,0
44.055973,44.91567,57,63,0
44.91567,45.038067,66,41,0
45.038067,45.16083,68,43,0
45.16083,45.283985,64,41,0
45.283985,45.407505,66,42,0
45.407505,45.5314,68,37,0
45.7886,46.03453,68,64,0
45.7886,46.03453,64,54,0
46.03453,46.27984,66,61,0
46.03453,46.27984,62,51,0
45.5314,46.40254,69,56,0
46.27984,46.52555,64,57,0
46.27984,46.52555,61,48,0
46.52555,46.772575,63,56,0
46.52555,46.772575,60,47,0
46.772575,47.020958,62,56,0
46.772575,47.020958,59,47,0
47.020958,47.28076,61,56,0
47.020958,47.28076,57,47,0
47.28076,47.52654,56,57,0
47.28076,47.52654,52,48,0
47.52654,47.771847,54,53,0
47.52654,47.771847,50,44,0
47.771847,48.017155,52,48,0
47.771847,48.017155,49,40,0
48.017155,48.262463,51,46,0
48.017155,48.262463,48,39,0
48.262463,48.51165,50,44,0
48.262463,48.51165,47,37,0
48.51165,49.234997,49,43,0
48.51165,49.234997,45,39,0
49.977592,50.46966,42,48,0
49.977592,50.46966,30,40,0
50.71478,51.205013,54,48,0
50.71478,51.205013,42,40,0
51.45295,51.943184,62,60,0
51.943184,52.188305,61,48,0
51.45295,52.55598,54,50,0
51.45295,52.55598,57,50,0
52.188305,52.67854,60,54,0
52.67854,52.926212,54,33,0
52.67854,52.926212,57,39,0
52.926212,53.17133,56,48,0
52.926212,53.17133,53,40,0
53.41645,53.661568,37,32,0
53.41645,53.661568,49,38,0
53.661568,53.90304,54,48,0
53.661568,53.90304,42,40,0
54.384384,54.6295,47,48,0
54.384384,54.6295,35,40,0
55.12361,55.36873,37,34,0
55.12361,55.36873,49,41,0
55.866398,56.359715,42,48,0
55.866398,56.359715,30,40,0
56.604332,57.097427,54,48,0
56.604332,57.097427,42,40,0
57.342545,57.832783,62,55,0
57.832783,58.0779,61,48,0
57.342545,58.446587,54,46,0
57.342545,58.446587,57,46,0
58.0779,58.570152,60,54,0
58.570152,58.82302,54,33,0
58.570152,58.82302,57,39,0
58.82302,59.06814,56,48,0
58.82302,59.06814,53,40,0
59.313255,59.56068,42,32,0
59.56068,59.805298,47,40,0
59.313255,59.805298,54,38,0
60.049915,60.294533,42,32,0
60.049915,60.294533,54,38,0
60.294533,61.022976,47,48,0
61.022976,61.51729,49,40,0
61.51729,61.764465,42,32,0
61.764465,62.008583,47,40,0
61.51729,62.008583,54,38,0
62.252705,62.50014,42,32,0
62.50014,62.744263,47,40,0
62.252705,62.744263,54,38,0
62.991177,63.236298,42,32,0
62.991177,63.236298,54,38,0
63.236298,63.961308,47,48,0
63.961308,64.45613,49,40,0
64.45613,64.70125,42,32,0
64.70125,64.946365,47,40,0
64.45613,64.946365,54,38,0
65.19149,65.43916,61,38,0
65.43916,65.68428,59,42,0
65.68428,65.9294,57,46,0
65.9294,66.174515,56,50,0
66.174515,66.41963,54,54,0
66.41963,66.66475,52,63,0
66.66475,66.90838,50,72,0
66.90838,67.152,49,84,0
67.152,67.39562,45,82,0
67.39562,67.64494,43,82,0
67.64494,68.86261,42,86,0
68.86261,69.10723,46,72,0
69.10723,69.5921,47,70,0
69.5921,69.840294,44,57,0
69.840294,70.325584,45,55,0
70.325584,70.56971,39,44,0
70.56971,70.82134,40,47,0
70.82134,71.061554,44,58,0
70.82134,71.061554,52,69,0
71.061554,71.305176,45,53,0
71.305176,71.556526,40,54,0
71.556526,71.797226,44,58,0
71.556526,71.797226,52,69,0
71.797226,72.04134,45,53,0
72.04134,72.29156,40,54,0
72.29156,72.53225,44,58,0
72.29156,72.53225,52,69,0
72.53225,72.77538,45,53,0
72.77538,73.027054,40,54,0
73.027054,73.26536,44,58,0
73.027054,73.26536,52,69,0
73.26536,73.50702,45,53,0
73.50702,73.75015,40,54,0
76.19536,76.440575,40,54,0
76.440575,76.93019,37,64,0
76.440575,77.41981,45,64,0
77.41981,77.663124,44,62,0
77.174995,77.663124,42,58,0
77.663124,77.90948,45,70,0
77.90948,78.39909,40,72,0
77.90948,78.6439,47,72,0
78.6439,79.133514,45,54,0
78.6439,79.38326,49,54,0
79.38326,79.625595,52,73,0
79.625595,79.867935,50,62,0
79.38326,79.867935,38,73,0
79.867935,80.11583,49,54,0
80.11583,80.35865,47,66,0
80.35865,80.60148,49,49,0
80.11583,80.60148,40,66,0
80.60148,80.8538,47,41,0
80.8538,82.08502,45,50,0
82.08502,82.20869,49,36,0
82.20869,82.33235,45,36,0
82.33235,82.45476,42,48,0
82.45476,82.57716,45,36,0
82.57716,82.69957,47,36,0
82.69957,82.82197,49,36,0
82.82197,82.944374,47,37,0
82.944374,83.06678,45,37,0
83.06678,83.189186,51,47,0
83.189186,83.311584,42,37,0
83.311584,83.43325,44,51,0
83.43325,83.55491,45,45,0
83.55491,83.67657,44,56,0
83.67657,83.80126,42,50,0
83.80126,83.92366,40,65,0
83.92366,84.04607,50,38,0
84.04607,84.16847,52,52,0
84.16847,84.29088,54,39,0
84.29088,84.41328,52,51,0
84.41328,84.53568,50,47,0
84.53568,84.65809,45,67,0
84.53568,84.65809,55,67,0
84.65809,84.780495,52,49,0
84.780495,84.90289,49,62,0
84.90289,85.0253,47,56,0
85.0253,85.147705,43,65,0
85.147705,85.27505,40,62,0
85.27505,85.39621,38,72,0
85.39621,85.51738,42,51,0
85.51738,85.63855,44,58,0
85.63855,85.75971,45,48,0
85.75971,85.881874,47,55,0
85.881874,86.00761,49,47,0
86.00761,86.12902,40,64,0
86.00761,86.12902,50,64,0
86.12902,86.250435,49,49,0
86.250435,86.37185,50,55,0
86.37185,86.49326,47,48,0
86.49326,86.6177,52,54,0
86.6177,86.74558,50,41,0
86.74558,86.86823,45,60,0
86.74558,86.86823,49,60,0
86.86823,86.99089,52,54,0
86.99089,87.11354,50,54,0
87.11354,87.2362,49,54,0
87.2362,87.35885,47,54,0
87.35885,87.48151,45,51,0
87.48151,87.60416,44,55,0
87.60416,87.726814,45,55,0
87.726814,87.849464,43,57,0
87.849464,87.97212,45,60,0
87.97212,88.09477,42,61,0
88.09477,88.21743,46,65,0
88.21743,88.3386,38,75,0
88.3386,88.45976,42,53,0
88.45976,88.58093,44,66,0
88.58093,88.7021,45,50,0
88.7021,88.82426,47,63,0
88.82426,88.95,49,49,0
88.95,89.07141,50,67,0
89.07141,89.19282,40,51,0
89.19282,89.31423,52,57,0
89.31423,89.435646,40,50,0
89.435646,89.56008,50,56,0
89.56008,89.687965,40,43,0
89.811295,89.93454,49,48,0
89.93454,90.0576,50,50,0
90.0576,90.18047,52,46,0
90.18047,90.30312,54,47,0
90.30312,90.42578,50,45,0
90.42578,90.54843,52,45,0
89.687965,90.54843,45,63,0
90.54843,90.67109,54,41,0
90.67109,90.79374,56,43,0
90.79374,90.9164,52,41,0
90.9164,91.03905,54,42,0
91.03905,91.1617,56,37,0
91.1617,91.284355,57,42,0
91.407005,91.50053,66,38,0
91.656395,91.7507,64,32,0
91.907875,92.002174,63,38,0
92.4271,92.55154,62,38,0
92.79929,92.92255,61,48,0
92.92255,93.04561,62,50,0
93.04561,93.16848,64,46,0
93.16848,93.29113,66,47,0
93.29113,93.41365,62,45,0
93.41365,93.53567,64,45,0
92.67597,93.53567,57,63,0
93.53567,93.658066,66,41,0
93.658066,93.78082,68,43,0
93.78082,93.90398,64,41,0
93.90398,94.0275,66,42,0
94.0275,94.1514,68,37,0
94.40859,94.654526,68,64,0
94.40859,94.654526,64,54,0
94.654526,94.89983,62,51,0
94.654526,94.89983,66,61,0
94.1514,95.02254,69,56,0
94.89983,95.145546,64,57,0
94.89983,95.145546,61,48,0
95.145546,95.39257,63,56,0
95.145546,95.39257,60,47,0
95.39257,95.64095,62,56,0
95.39257,95.64095,59,47,0
95.64095,95.90076,61,56,0
95.64095,95.90076,57,47,0
95.90076,96.14653,52,48,0
95.90076,96.14653,56,57,0
96.14653,96.39184,54,53,0
96.14653,96.39184,50,44,0
96.39184,96.637146,49,40,0
96.39184,96.637146,52,48,0
96.637146,96.882454,51,46,0
96.637146,96.882454,48,39,0
96.882454,97.131645,50,44,0
96.882454,97.131645,47,37,0
97.131645,97.854996,49,43,0
97.131645,97.854996,45,39,0
98.34072,98.46262,52,50,0
98.46262,98.58453,48,42,0
98.58453,99.077065,33,48,0
99.32218,99.812416,45,48,0
99.32218,99.812416,33,40,0
100.06035,100.55059,53,60,0
100.55059,100.79571,52,48,0
100.06035,101.16338,45,50,0
100.06035,101.16338,48,50,0
100.79571,101.28594,51,54,0
101.28594,101.533615,45,33,0
101.28594,101.533615,48,39,0
101.65602,101.77843,32,35,0
101.77843,101.900826,47,42,0
102.39592,102.518326,43,36,0
102.518326,102.64073,59,39,0
103.13555,103.25796,54,36,0
103.25796,103.38036,67,39,0
104.4675,104.96003,47,48,0
104.4675,104.96003,35,44,0
105.205154,105.69539,59,48,0
105.205154,105.69539,47,40,0
105.94332,106.433556,67,60,0
106.433556,106.67867,66,48,0
105.94332,107.04636,59,50,0
105.94332,107.04636,62,50,0
106.67867,107.168915,65,54,0
107.168915,107.41659,59,33,0
107.168915,107.41659,62,39,0
107.53899,107.66139,46,35,0
107.66139,107.7838,61,42,0
108.27889,108.4013,57,36,0
108.4013,108.5237,73,39,0
109.018524,109.14092,68,36,0
109.14092,109.26333,81,39,0
110.47288,110.595276,41,35,0
110.595276,110.71768,56,42,0
111.212776,111.33518,52,40,0
111.33518,111.45759,66,44,0
111.951866,112.07427,39,40,0
112.07427,112.19668,54,49,0
112.69177,112.81417,50,43,0
112.81417,112.93658,64,47,0
113.43006,113.55246,37,43,0
113.55246,113.674866,52,52,0
114.16996,114.292366,49,46,0
114.292366,114.41477,63,51,0
114.90825,115.030655,36,46,0
115.030655,115.15305,51,56,0
115.64815,115.77055,47,49,0
115.77055,115.89296,61,54,0
116.38697,116.50938,57,50,0
116.50938,116.63178,61,60,0
116.75418,116.99899,56,59,0
117.12688,117.249275,54,52,0
117.249275,117.37168,61,57,0
117.49409,117.74303,53,61,0
117.86518,117.987335,57,53,0
117.987335,118.10949,61,63,0
118.23164,118.47595,56,63,0
118.603836,118.72624,54,56,0
118.72624,118.84865,61,61,0
118.97105,119.22025,53,64,0
119.34266,119.465065,50,56,0
119.465065,119.58746,54,67,0
119.70987,119.958015,55,65,0
119.70987,119.958015,49,65,0
120.08168,120.20409,50,57,0
120.20409,120.326485,54,62,0
120.44889,120.6981,55,65,0
120.44889,120.6981,49,65,0
120.6981,120.81951,50,56,0
120.6981,120.81951,54,56,0
120.940926,121.183754,55,66,0
120.940926,121.183754,49,66,0
121.183754,121.30516,54,58,0
121.183754,121.30516,50,58,0
121.4309,121.67598,55,69,0
121.4309,121.67598,49,69,0
121.67598,121.79739,54,61,0
121.67598,121.79739,50,61,0
121.91881,122.16702,55,72,0
121.91881,122.16702,49,72,0
122.16702,122.888336,50,74,0
122.888336,123.12778,57,74,0
122.888336,123.12778,49,74,0
122.16702,123.12778,54,74,0
123.61111,124.33242,50,74,0
124.33242,124.57185,57,74,0
124.33242,124.57185,49,74,0
123.61111,124.57185,54,74,0
125.06948,126.51356,62,74,0
126.51356,127.23632,55,40,0
127.23632,127.95909,52,38,0
127.95909,128.68185,45,37,0
128.68185,129.40462,42,35,0
129.40462,130.12738,35,34,0
130.12738,130.85014,37,34,0
130.85014,131.57292,39,34,0
131.57292,132.29568,41,34,0
132.29568,133.01845,42,34,0
133.01845,133.74121,36,34,0
133.74121,134.45952,37,63,0
134.45952,134.69894,41,60,0
134.69894,134.93839,44,56,0
134.93839,135.14534,47,51,0
135.15047,135.18126,47,56,0
135.18126,135.42021,45,69,0
135.42021,135.65918,44,64,0
135.65918,135.9013,42,54,0
135.18126,135.9013,37,69,0
135.9013,136.14027,45,64,0
136.14027,136.37923,44,59,0
136.37923,136.62186,42,59,0
136.62186,137.10074,37,59,0
136.62186,137.34016,49,63,0
137.34016,137.5796,50,60,0
137.5796,137.81903,49,56,0
137.81903,138.02599,47,51,0
138.03113,138.0619,47,56,0
138.0619,138.30087,45,69,0
138.30087,138.53983,44,64,0
138.53983,138.78197,42,54,0
138.78197,139.02092,45,64,0
139.02092,139.25987,44,59,0
139.25987,139.50252,42,59,0
139.50252,140.46025,44,63,0
139.50252,140.46025,37,59,0
140.69969,140.93912,49,59,0
140.93912,141.42874,46,64,0
140.93912,141.91835,54,64,0
141.91835,142.16168,53,62,0
141.67355,142.16168,51,58,0
142.16168,142.40804,54,70,0
142.40804,142.89764,49,72,0
142.40804,143.14246,56,72,0
143.14246,143.63206,54,54,0
143.14246,143.8818,58,54,0
143.8818,144.12415,61,73,0
144.12415,144.36649,59,62,0
143.8818,144.36649,47,73,0
144.36649,144.61438,58,54,0
144.61438,144.85721,56,66,0
144.85721,145.10004,58,49,0
144.61438,145.10004,49,66,0
145.10004,145.35236,56,41,0
145.35236,146.45624,54,50,0
146.33359,146.45624,54,34,0
146.45624,146.58357,49,31,0
146.58357,146.7033,46,31,0
146.7033,146.82301,42,26,0
146.82301,146.94542,39,42,0
146.94542,147.06783,51,31,0
147.06783,147.19022,54,37,0
147.19022,147.31262,58,31,0
147.31262,147.43503,54,37,0
147.43503,147.55743,51,31,0
147.55743,147.67984,39,40,0
147.67984,147.80225,51,31,0
147.80225,147.9239,54,49,0
147.9239,148.04556,56,39,0
148.04556,148.16722,54,50,0
148.16722,148.29192,51,47,0
148.29192,148.41432,37,61,0
148.41432,148.53673,51,45,0
148.53673,148.65913,49,44,0
148.65913,148.78152,47,38,0
148.78152,148.90393,46,50,0
148.90393,149.02634,44,31,0
149.02634,149.14874,42,49,0
149.14874,149.27115,49,31,0
149.27115,149.39355,52,39,0
149.39355,149.51596,54,31,0
149.51596,149.63835,52,38,0
149.63835,149.7657,49,31,0
149.7657,149.88687,47,52,0
149.88687,150.00804,51,31,0
150.00804,150.1292,56,45,0
150.1292,150.25037,51,31,0
150.25037,150.37253,58,46,0
150.37253,150.49826,51,33,0
150.49826,150.61967,59,55,0
150.61967,150.74109,49,48,0
150.74109,150.8625,61,43,0
150.8625,150.98392,49,37,0
150.98392,151.10835,59,45,0
151.10835,151.23624,49,40,0
151.23624,151.35889,42,46,0
151.35889,151.48154,54,39,0
151.48154,151.6042,58,43,0
151.6042,151.72685,54,37,0
151.72685,151.8495,58,48,0
151.8495,151.97215,54,40,0
151.97215,152.09482,59,56,0
152.09482,152.21747,54,46,0
152.21747,152.34012,59,58,0
152.34012,152.46747,54,48,0
152.46747,152.5948,61,67,0
152.5948,152.72214,54,56,0
152.72214,152.8433,55,72,0
152.8433,152.96448,51,51,0
152.96448,153.08565,56,58,0
153.08565,153.20682,51,48,0
153.20682,153.32896,58,55,0
153.32896,153.45471,51,47,0
152.72214,153.45471,47,65,0
153.45471,153.57613,59,64,0
153.57613,153.69754,49,49,0
153.69754,153.81895,61,55,0
153.81895,153.94035,49,48,0
153.94035,154.06479,59,54,0
154.06479,154.19267,49,41,0
154.31534,154.43799,54,54,0
154.43799,154.56064,53,54,0
154.56064,154.68329,54,54,0
154.68329,154.80595,58,54,0
154.80595,154.93143,54,51,0
154.93143,155.05357,53,55,0
155.05357,155.17574,54,55,0
155.17574,155.29788,53,57,0
155.29788,155.42004,54,60,0
155.42004,155.5432,52,61,0
155.5432,155.67163,54,65,0
155.67163,155.7928,51,75,0
155.7928,155.91397,54,53,0
155.91397,156.03514,59,60,0
156.03514,156.15631,54,50,0
156.15631,156.27846,49,57,0
156.27846,156.4042,54,49,0
156.4042,156.5256,48,63,0
156.5256,156.64702,54,47,0
156.64702,156.76843,56,52,0
156.76843,156.88985,54,45,0
156.88985,157.01428,48,49,0
157.01428,157.14217,54,37,0
157.14217,157.26334,49,63,0
157.26334,157.3845,56,44,0
157.3845,157.50568,59,49,0
157.50568,157.62685,56,40,0
157.62685,157.749,59,45,0
157.62685,157.749,51,45,0
157.749,157.87474,56,37,0
157.87474,157.99615,59,50,0
157.87474,157.99615,53,42,0
157.99615,158.11757,56,38,0
158.11757,158.23897,59,42,0
158.11757,158.23897,51,42,0
158.23897,158.36038,56,37,0
158.36038,158.48482,59,42,0
158.36038,158.48482,53,42,0
158.48482,158.6127,56,32,0
158.6127,158.73412,58,50,0
158.73412,158.85553,54,38,0
158.85553,158.97694,59,42,0
158.97694,159.09836,54,37,0
159.09836,159.2228,61,42,0
159.2228,159.35068,54,32,0
159.35068,159.47209,47,45,0
159.47209,159.5935,51,33,0
159.5935,159.71642,56,43,0
159.71642,159.83931,59,32,0
159.83931,159.96452,56,41,0
159.96452,160.0952,51,32,0
160.0952,160.21686,58,50,0
160.0952,160.82515,49,50,0
160.82515,160.94681,59,41,0
160.94681,161.06847,56,35,0
161.06847,161.19014,53,41,0
161.19014,161.3118,49,38,0
161.3118,161.43346,47,41,0
161.43346,161.55511,44,37,0
161.55511,161.67844,42,53,0
161.67844,161.80168,41,40,0
161.80168,161.92474,42,42,0
161.92474,162.04762,44,39,0
162.04762,162.17027,46,39,0
162.17027,162.29292,47,38,0
162.29292,162.41557,49,38,0
162.41557,162.53824,48,34,0
162.53824,162.66089,49,36,0
162.66089,162.78354,51,34,0
162.78354,162.90619,52,35,0
162.90619,163.02885,53,31,0
163.27415,163.36768,63,38,0
163.52354,163.61784,61,32,0
163.02885,163.77502,54,35,0
163.77502,163.86932,60,38,0
164.29425,164.41869,59,38,0
163.77502,164.54312,49,35,0
164.54312,164.66644,58,51,0
164.54312,164.66644,54,51,0
164.66644,164.78969,53,43,0
164.78969,164.91275,54,45,0
164.91275,165.03563,56,41,0
165.03563,165.15828,58,42,0
165.15828,165.28079,59,40,0
165.28079,165.40282,61,40,0
165.40282,165.5252,60,36,0
165.5252,165.64796,61,38,0
165.64796,165.77112,63,36,0
165.77112,165.89465,64,37,0
165.89465,166.01854,65,33,0
166.01854,166.27574,66,44,0
166.27574,166.52167,65,51,0
166.27574,166.52167,61,43,0
166.52167,166.76698,63,48,0
166.52167,166.76698,59,40,0
166.76698,167.0127,61,45,0
166.76698,167.0127,58,38,0
167.0127,167.25972,60,44,0
167.0127,167.25972,57,37,0
167.25972,167.5081,59,44,0
167.25972,167.5081,56,37,0
167.5081,167.7679,58,44,0
167.5081,167.7679,54,37,0
167.7679,168.01367,53,44,0
167.7679,168.01367,49,37,0
168.01367,168.25899,51,39,0
168.01367,168.25899,47,33,0
168.25899,168.50429,49,35,0
168.25899,168.50429,46,29,0
168.50429,168.7496,48,32,0
168.50429,168.7496,45,27,0
168.7496,168.9988,47,30,0
168.7496,168.9988,44,25,0
170.46474,172.19473,49,26,0
168.9988,172.19473,46,28,0
168.9988,172.19473,42,26,0
172.43954,172.56206,58,33,0
172.56206,172.68536,54,29,0
172.68536,172.80959,49,33,0
174.32562,174.62624,49,25,0
174.32562,174.62624,42,21,0
175.251,175.57518,61,25,0
175.251,175.57518,54,21,0
