start_time,end_time,note_value,velocity,instrument_program_number
0.56581503,1.3183314,64,70,0
1.3183314,1.4112765,61,69,0
1.4112765,1.5036314,64,72,0
1.5036314,1.6001441,69,75,0
1.6001441,1.696657,73,77,0
1.696657,2.4489746,76,85,0
2.4489746,2.5415604,73,73,0
2.5415604,2.6334794,76,77,0
2.6334794,2.7299922,81,80,0
2.7299922,2.826505,85,81,0
3.0149567,3.0616915,76,67,0
3.0149567,3.0616915,83,79,0
3.2018957,3.249633,76,59,0
3.2018957,3.249633,83,70,0
2.826505,3.3928447,88,87,0
3.3928447,3.5771878,81,68,0
3.3928447,3.5771878,85,81,0
3.5771878,3.6242511,83,70,0
3.5771878,3.6242511,76,59,0
3.7654407,3.8151393,83,70,0
3.7654407,3.8151393,76,59,0
3.3928447,3.9642348,88,81,0
3.9642348,4.147318,81,64,0
3.9642348,4.147318,85,76,0
4.147318,4.195055,83,70,0
4.147318,4.195055,76,59,0
4.338267,4.3939586,83,70,0
4.338267,4.3939586,76,59,0
3.9642348,4.5610337,88,76,0
4.5610337,4.975771,81,71,0
4.5610337,4.975771,88,83,0
5.492704,5.5748057,69,70,0
5.492704,5.5748057,64,59,0
5.583928,5.7207646,64,57,0
5.583928,5.7207646,69,68,0
5.766377,5.95072,69,70,0
5.766377,5.95072,64,59,0
5.95072,6.1350627,68,58,0
5.95072,6.1350627,71,69,0
6.1350627,6.2315755,64,58,0
6.1350627,6.2315755,69,69,0
6.1350627,6.2315755,73,69,0
6.3280883,6.6967745,64,62,0
6.3280883,6.6967745,69,73,0
6.3280883,6.6967745,73,73,0
6.6967745,6.8350315,69,55,0
6.6967745,6.8350315,73,65,0
6.8811173,7.06546,73,70,0
6.8811173,7.06546,69,59,0
7.06546,7.249803,71,56,0
7.06546,7.249803,74,66,0
7.249803,7.3449388,69,54,0
7.249803,7.3449388,73,54,0
7.249803,7.3449388,76,64,0
7.4400744,7.716589,69,66,0
7.4400744,7.716589,73,66,0
7.4400744,7.716589,76,78,0
7.716589,7.799543,78,70,0
7.716589,7.799543,74,59,0
7.80876,7.964826,78,73,0
7.80876,7.964826,74,62,0
8.016848,8.288669,69,68,0
8.016848,8.288669,78,68,0
8.016848,8.288669,81,80,0
8.288669,8.370215,81,72,0
8.288669,8.370215,78,61,0
8.379275,8.522488,78,61,0
8.379275,8.522488,81,72,0
8.570225,8.768677,81,78,0
8.570225,8.768677,78,66,0
8.570225,8.768677,69,66,0
8.768677,8.967129,76,56,0
8.768677,8.967129,80,66,0
8.967129,9.087931,74,56,0
8.967129,9.087931,78,66,0
9.208734,9.808054,69,64,0
9.208734,9.808054,74,64,0
9.208734,9.808054,78,76,0
9.808054,10.043035,73,56,0
9.808054,10.043035,76,66,0
10.160525,10.242627,69,70,0
10.160525,10.242627,64,59,0
10.25175,10.388586,64,57,0
10.25175,10.388586,69,68,0
10.434198,10.618541,69,70,0
10.434198,10.618541,64,59,0
10.618541,10.802884,68,58,0
10.618541,10.802884,71,69,0
10.802884,10.899397,64,58,0
10.802884,10.899397,69,69,0
10.802884,10.899397,73,69,0
10.99591,11.364595,64,62,0
10.99591,11.364595,69,73,0
10.99591,11.364595,73,73,0
11.364595,11.502852,69,55,0
11.364595,11.502852,73,65,0
11.548939,11.733281,73,70,0
11.548939,11.733281,69,59,0
11.733281,11.917624,71,56,0
11.733281,11.917624,74,66,0
11.917624,12.01276,69,54,0
11.917624,12.01276,73,54,0
11.917624,12.01276,76,64,0
12.107896,12.401219,69,66,0
12.107896,12.401219,73,66,0
12.107896,12.401219,76,78,0
12.401219,12.48421,78,52,0
12.401219,12.48421,73,44,0
12.493431,12.6382,78,54,0
12.493431,12.6382,73,46,0
12.686457,12.958278,73,51,0
12.686457,12.958278,81,60,0
12.958278,13.039824,81,54,0
12.958278,13.039824,73,45,0
13.048884,13.192097,73,45,0
13.048884,13.192097,81,54,0
13.239834,13.430782,81,60,0
13.430782,13.621732,80,60,0
13.621732,13.81268,78,60,0
13.81268,13.996391,85,60,0
13.996391,14.187341,81,60,0
14.187341,14.378289,80,55,0
14.378289,14.671575,78,55,0
13.239834,14.671575,73,51,0
14.671575,14.753309,78,54,0
14.671575,14.753309,73,45,0
14.76239,14.905602,73,45,0
14.76239,14.905602,78,54,0
14.95334,15.225161,81,60,0
15.225161,15.306706,81,54,0
15.315767,15.45898,81,54,0
15.506717,15.697665,81,60,0
15.697665,15.888615,80,60,0
15.888615,16.079563,78,60,0
16.079563,16.263275,85,60,0
16.263275,16.454224,81,60,0
16.454224,16.655336,80,55,0
16.655336,16.83655,78,55,0
14.95334,16.83655,73,51,0
16.83655,16.927774,71,70,0
16.83655,16.927774,83,83,0
17.019,17.110224,83,78,0
17.019,17.110224,71,66,0
17.201448,17.763159,83,88,0
17.201448,17.763159,71,74,0
17.763159,18.316189,83,84,0
17.763159,18.316189,71,71,0
18.316189,18.586828,71,86,0
18.586828,18.669498,71,71,0
18.678684,18.770538,71,71,0
18.862394,19.046738,71,85,0
18.316189,19.046738,83,86,0
19.046738,19.155018,71,49,0
19.046738,19.155018,76,58,0
19.24624,19.337465,76,53,0
19.24624,19.337465,71,45,0
19.42869,19.613033,71,52,0
19.42869,19.613033,76,62,0
19.613033,19.797377,78,53,0
19.613033,19.797377,75,45,0
19.797377,19.893888,76,41,0
19.797377,19.893888,80,49,0
19.990402,20.376453,76,45,0
19.990402,20.376453,80,53,0
20.376453,20.467676,76,46,0
20.376453,20.467676,80,55,0
20.5589,20.743244,76,66,0
20.5589,20.743244,80,78,0
20.743244,20.927588,85,68,0
20.927588,21.0241,88,71,0
21.120613,21.41015,88,79,0
21.41015,21.497013,73,61,0
21.41015,21.497013,76,72,0
21.506664,21.603176,73,63,0
21.506664,21.603176,76,75,0
21.69969,21.884031,71,69,0
21.69969,21.884031,76,81,0
21.884031,22.068375,78,70,0
21.884031,22.068375,75,59,0
22.068375,22.164888,76,55,0
22.068375,22.164888,80,66,0
22.2614,22.647451,76,61,0
22.2614,22.647451,80,72,0
22.647451,22.738676,76,63,0
22.647451,22.738676,80,77,0
22.8299,23.014242,76,82,0
22.8299,23.014242,80,96,0
23.014242,23.198586,85,85,0
23.198586,23.2951,88,91,0
23.391611,23.68115,88,102,0
23.68115,23.768011,73,70,0
23.68115,23.768011,76,83,0
23.777662,23.874176,73,73,0
23.777662,23.874176,76,86,0
23.970688,24.247202,71,70,0
23.970688,24.247202,76,83,0
24.247202,24.339375,78,88,0
24.339375,24.435886,80,81,0
24.5324,24.725426,76,82,0
24.5324,24.725426,80,97,0
24.725426,24.918451,83,85,0
24.918451,25.009674,88,90,0
25.100899,25.855637,88,112,0
25.100899,25.855637,76,95,0
25.100899,25.855637,81,95,0
25.855637,25.94686,87,78,0
26.038084,26.129309,85,72,0
26.220533,26.309622,83,80,0
26.398712,26.4878,81,68,0
26.57689,26.665981,80,61,0
26.75507,26.84416,81,72,0
26.933249,27.022339,78,62,0
27.111427,27.205555,75,62,0
27.29968,28.01793,83,68,0
27.29968,28.01793,95,81,0
28.01793,28.10702,93,70,0
28.01793,28.10702,81,59,0
28.196108,28.285198,92,70,0
28.196108,28.285198,80,59,0
28.374287,28.461628,78,67,0
28.374287,28.461628,90,79,0
28.54897,28.63806,88,70,0
28.54897,28.63806,76,59,0
28.727148,28.816238,87,70,0
28.727148,28.816238,75,59,0
28.905327,28.994417,73,64,0
28.905327,28.994417,85,76,0
29.083506,29.172596,83,70,0
29.083506,29.172596,71,59,0
29.261686,29.350775,82,70,0
29.261686,29.350775,70,59,0
29.439865,29.528954,68,66,0
29.439865,29.528954,80,78,0
29.618044,29.707132,66,54,0
29.618044,29.707132,78,64,0
29.796223,29.885311,64,54,0
29.796223,29.885311,76,64,0
29.974401,30.063492,63,59,0
29.974401,30.063492,75,70,0
30.15258,30.24167,64,51,0
30.15258,30.24167,76,61,0
30.33076,30.424887,61,51,0
30.33076,30.424887,73,61,0
30.519012,30.606354,59,58,0
30.519012,30.606354,71,69,0
30.693695,30.782196,64,45,0
30.693695,30.782196,76,53,0
30.870697,30.959198,64,45,0
30.870697,30.959198,68,53,0
31.047699,31.136198,63,52,0
31.047699,31.136198,71,62,0
31.224699,31.316555,63,38,0
31.224699,31.316555,69,45,0
31.408411,31.504923,63,38,0
31.408411,31.504923,66,45,0
31.601437,31.78578,64,57,0
32.46403,32.54613,69,70,0
32.46403,32.54613,64,59,0
32.555256,32.69209,64,57,0
32.555256,32.69209,69,68,0
32.7377,32.922047,69,70,0
32.7377,32.922047,64,59,0
32.922047,33.106388,68,58,0
32.922047,33.106388,71,69,0
33.106388,33.2029,64,58,0
33.106388,33.2029,69,69,0
33.106388,33.2029,73,69,0
33.299416,33.6681,64,62,0
33.299416,33.6681,69,73,0
33.299416,33.6681,73,73,0
33.6681,33.80636,69,55,0
33.6681,33.80636,73,65,0
33.852444,34.036785,73,70,0
33.852444,34.036785,69,59,0
34.036785,34.22113,71,56,0
34.036785,34.22113,74,66,0
34.22113,34.316265,69,54,0
34.22113,34.316265,73,54,0
34.22113,34.316265,76,64,0
34.4114,34.687916,69,66,0
34.4114,34.687916,73,66,0
34.4114,34.687916,76,78,0
34.687916,34.77087,78,70,0
34.687916,34.77087,74,59,0
34.780087,34.93092,78,73,0
34.780087,34.93092,74,62,0
34.981197,35.25302,69,68,0
34.981197,35.25302,78,68,0
34.981197,35.25302,81,80,0
35.25302,35.334568,81,72,0
35.25302,35.334568,78,61,0
35.343628,35.48684,78,61,0
35.343628,35.48684,81,72,0
35.534576,35.718918,81,78,0
35.534576,35.718918,78,66,0
35.534576,35.718918,69,66,0
35.718918,35.91936,76,56,0
35.718918,35.91936,80,66,0
35.91936,36.04418,74,56,0
35.91936,36.04418,78,66,0
36.169006,36.747154,69,64,0
36.169006,36.747154,74,64,0
36.169006,36.747154,78,76,0
36.747154,36.975864,73,56,0
36.747154,36.975864,76,66,0
37.09022,37.17232,69,70,0
37.09022,37.17232,64,59,0
37.181442,37.31828,64,57,0
37.181442,37.31828,69,68,0
37.36389,37.548237,69,70,0
37.36389,37.548237,64,59,0
37.548237,37.73258,68,58,0
37.548237,37.73258,71,69,0
37.73258,37.82909,64,58,0
37.73258,37.82909,69,69,0
37.73258,37.82909,73,69,0
37.925602,38.29429,64,62,0
37.925602,38.29429,69,73,0
37.925602,38.29429,73,73,0
38.29429,38.43255,69,55,0
38.29429,38.43255,73,65,0
38.478634,38.662975,73,70,0
38.478634,38.662975,69,59,0
38.662975,38.84732,71,56,0
38.662975,38.84732,74,66,0
38.84732,38.942455,69,54,0
38.84732,38.942455,73,54,0
38.84732,38.942455,76,64,0
39.03759,39.314106,69,66,0
39.03759,39.314106,73,66,0
39.03759,39.314106,76,78,0
39.314106,39.39706,78,52,0
39.314106,39.39706,73,44,0
39.406277,39.551044,78,54,0
39.406277,39.551044,73,46,0
39.5993,39.87112,73,51,0
39.5993,39.87112,81,60,0
39.87112,39.952667,81,54,0
39.87112,39.952667,73,45,0
39.96173,40.104942,73,45,0
39.96173,40.104942,81,54,0
40.15268,40.343628,81,60,0
40.343628,40.534576,80,60,0
40.534576,40.725525,78,60,0
40.725525,40.909237,85,60,0
40.909237,41.100185,81,60,0
41.100185,41.291134,80,55,0
41.291134,41.562954,78,55,0
40.15268,41.562954,73,51,0
41.562954,41.6445,78,54,0
41.562954,41.6445,73,45,0
41.65356,41.796776,73,45,0
41.65356,41.796776,78,54,0
41.844513,42.116333,81,60,0
42.116333,42.19788,81,54,0
42.20694,42.35015,81,54,0
42.39789,42.588837,81,60,0
42.588837,42.779785,80,60,0
42.779785,42.970734,78,60,0
42.970734,43.154446,85,60,0
43.154446,43.345394,81,60,0
43.345394,43.536343,80,55,0
43.536343,43.72306,78,55,0
41.844513,43.72306,73,51,0
43.72306,43.814285,71,70,0
43.72306,43.814285,83,83,0
43.90551,43.996735,83,78,0
43.90551,43.996735,71,66,0
44.08796,44.64967,83,88,0
44.08796,44.64967,71,74,0
44.64967,45.2027,83,84,0
44.64967,45.2027,71,71,0
45.2027,45.47334,71,86,0
45.47334,45.55601,71,71,0
45.565197,45.65705,71,71,0
45.748905,45.93325,71,85,0
45.2027,45.93325,83,86,0
45.93325,46.04153,71,49,0
45.93325,46.04153,76,58,0
46.13275,46.223976,76,53,0
46.13275,46.223976,71,45,0
46.3152,46.499546,71,52,0
46.3152,46.499546,76,62,0
46.499546,46.683887,78,53,0
46.499546,46.683887,75,45,0
46.683887,46.7804,76,41,0
46.683887,46.7804,80,49,0
46.876915,47.262966,76,45,0
46.876915,47.262966,80,53,0
47.262966,47.354187,76,46,0
47.262966,47.354187,80,55,0
47.44541,47.629757,76,66,0
47.44541,47.629757,80,78,0
47.629757,47.8141,85,68,0
47.8141,47.91061,88,71,0
48.007126,48.29666,88,79,0
48.29666,48.383526,73,61,0
48.29666,48.383526,76,72,0
48.393177,48.48969,73,63,0
48.393177,48.48969,76,75,0
48.5862,48.770542,71,69,0
48.5862,48.770542,76,81,0
48.770542,48.954887,78,70,0
48.770542,48.954887,75,59,0
48.954887,49.0514,76,55,0
48.954887,49.0514,80,66,0
49.14791,49.533962,76,61,0
49.14791,49.533962,80,72,0
49.533962,49.625187,76,63,0
49.533962,49.625187,80,77,0
49.71641,49.900753,76,82,0
49.71641,49.900753,80,96,0
49.900753,50.0851,85,85,0
50.0851,50.18161,88,91,0
50.278122,50.56766,88,102,0
50.56766,50.654522,73,70,0
50.56766,50.654522,76,83,0
50.664173,50.76069,73,73,0
50.664173,50.76069,76,86,0
50.8572,51.133713,71,70,0
50.8572,51.133713,76,83,0
51.133713,51.225887,78,88,0
51.225887,51.3224,80,81,0
51.41891,51.61194,76,82,0
51.41891,51.61194,80,97,0
51.61194,51.804962,83,85,0
51.804962,51.896187,88,90,0
51.98741,52.74215,88,112,0
51.98741,52.74215,76,95,0
51.98741,52.74215,81,95,0
52.74215,52.83337,87,78,0
52.924595,53.01582,85,72,0
53.107044,53.196133,83,80,0
53.285225,53.374313,81,68,0
53.4634,53.552494,80,61,0
53.641582,53.73067,81,72,0
53.81976,53.90885,78,62,0
53.99794,54.092068,75,62,0
54.18619,54.90444,83,68,0
54.18619,54.90444,95,81,0
54.90444,54.99353,93,70,0
54.90444,54.99353,81,59,0
55.08262,55.17171,92,70,0
55.08262,55.17171,80,59,0
55.2608,55.34814,78,67,0
55.2608,55.34814,90,79,0
55.435482,55.52457,88,70,0
55.435482,55.52457,76,59,0
55.61366,55.70275,87,70,0
55.61366,55.70275,75,59,0
55.79184,55.880928,73,64,0
55.79184,55.880928,85,76,0
55.970016,56.05911,83,70,0
55.970016,56.05911,71,59,0
56.148197,56.237286,82,70,0
56.148197,56.237286,70,59,0
56.326378,56.415466,68,66,0
56.326378,56.415466,80,78,0
56.504555,56.593643,66,54,0
56.504555,56.593643,78,64,0
56.682735,56.771824,64,54,0
56.682735,56.771824,76,64,0
56.860912,56.950005,63,59,0
56.860912,56.950005,75,70,0
57.039093,57.12818,64,51,0
57.039093,57.12818,76,61,0
57.21727,57.311398,61,51,0
57.21727,57.311398,73,61,0
57.405525,57.492867,59,58,0
57.405525,57.492867,71,69,0
57.580208,57.66871,64,45,0
57.580208,57.66871,76,53,0
57.75721,57.84571,64,45,0
57.75721,57.84571,68,53,0
57.934208,58.02271,63,52,0
57.934208,58.02271,71,62,0
58.11121,58.203068,63,38,0
58.11121,58.203068,69,45,0
58.29492,58.391434,63,38,0
58.29492,58.391434,66,45,0
58.48795,58.685097,64,57,0
59.07939,59.62339,80,83,0
59.07939,59.62339,68,70,0
59.62871,60.18479,80,88,0
59.62871,60.18479,68,74,0
60.190422,60.367085,68,71,0
60.190422,60.738075,80,84,0
60.74345,60.927795,68,66,0
60.74345,60.927795,80,78,0
60.927795,61.112137,81,75,0
60.927795,61.112137,69,63,0
61.112137,61.20865,80,72,0
61.112137,61.20865,68,61,0
61.305164,61.396217,80,78,0
61.305164,61.396217,68,66,0
61.487267,61.57849,80,70,0
61.487267,61.57849,68,59,0
61.669716,61.763916,80,70,0
61.669716,61.763916,68,59,0
61.858112,62.414192,80,88,0
61.858112,62.414192,68,74,0
62.419823,62.596485,68,71,0
62.419823,62.967476,80,84,0
62.97285,63.520504,80,88,0
62.97285,63.520504,68,74,0
63.710224,63.80145,73,72,0
63.710224,63.80145,80,85,0
63.892673,63.9839,80,77,0
63.892673,63.9839,73,64,0
64.07512,64.25947,73,72,0
64.07512,64.25947,80,85,0
64.25947,64.44381,78,82,0
64.25947,64.44381,69,69,0
64.44381,64.54032,80,79,0
64.44381,64.54032,73,67,0
64.63683,64.821175,78,72,0
64.63683,64.821175,81,85,0
64.821175,65.005516,85,81,0
65.005516,65.09769,80,81,0
65.005516,65.09769,73,68,0
65.189865,65.55855,80,85,0
65.189865,65.55855,73,72,0
65.93368,66.0249,73,72,0
65.93368,66.0249,80,85,0
66.11613,66.21033,80,77,0
66.11613,66.21033,73,64,0
66.30452,66.48886,73,72,0
66.30452,66.48886,80,85,0
66.48886,66.67321,78,82,0
66.48886,66.67321,69,69,0
66.67321,66.76972,80,79,0
66.67321,66.76972,73,67,0
66.866234,67.050575,78,72,0
66.866234,67.050575,81,85,0
67.050575,67.23492,85,81,0
67.23492,67.32709,80,81,0
67.23492,67.32709,73,68,0
67.419266,67.96691,73,72,0
67.419266,67.96691,80,85,0
67.97229,68.519066,81,85,0
67.97229,68.519066,69,72,0
68.52454,69.07243,81,85,0
68.52454,69.07243,69,72,0
69.07781,69.62291,80,85,0
69.07781,69.62291,68,72,0
69.62837,70.17626,78,85,0
69.62837,70.17626,66,72,0
70.18164,70.72728,76,85,0
70.18164,70.72728,64,72,0
70.73273,71.28391,69,85,0
70.73273,71.28391,57,72,0
71.28943,71.84101,68,85,0
71.28943,71.84101,56,72,0
71.84651,72.40039,66,85,0
71.84651,72.40039,54,72,0
72.405914,72.59083,64,90,0
72.59083,72.68328,61,68,0
72.59083,72.68328,73,80,0
72.77574,72.868195,61,68,0
72.77574,72.868195,73,80,0
72.96065,73.05226,75,85,0
72.96065,73.05226,63,72,0
73.14387,73.23661,64,68,0
73.14387,73.23661,76,80,0
73.32935,73.42296,66,68,0
73.32935,73.42296,78,80,0
73.51657,73.60874,75,85,0
73.51657,73.60874,63,72,0
73.70091,73.793365,64,68,0
73.70091,73.793365,76,81,0
73.885826,73.97943,66,68,0
73.885826,73.97943,78,81,0
74.073044,74.16465,80,85,0
74.073044,74.16465,68,72,0
74.256256,74.34815,69,66,0
74.256256,74.34815,81,79,0
74.44004,74.533646,71,64,0
74.44004,74.533646,83,76,0
74.62726,74.71831,81,79,0
74.62726,74.71831,69,66,0
74.809364,74.90125,71,61,0
74.809364,74.90125,83,72,0
74.99314,75.08646,73,59,0
74.99314,75.08646,85,70,0
75.17978,75.363556,76,72,0
75.363556,75.54733,75,67,0
75.54733,75.73455,73,67,0
75.17978,75.73455,80,72,0
75.73455,75.918335,75,72,0
75.918335,76.10211,72,68,0
76.10211,76.28875,68,68,0
75.73455,76.28875,80,72,0
76.28875,76.38064,73,80,0
76.47253,76.564415,73,68,0
76.47253,76.564415,77,68,0
76.47253,76.564415,80,80,0
76.6563,76.750206,73,74,0
76.6563,76.750206,77,74,0
76.6563,76.750206,80,88,0
76.84411,77.39545,78,80,0
76.84411,77.39545,81,95,0
77.39545,77.487335,73,80,0
77.57922,77.67111,73,68,0
77.57922,77.67111,77,68,0
77.57922,77.67111,80,80,0
77.763,77.8584,73,74,0
77.763,77.8584,77,74,0
77.763,77.8584,80,88,0
77.9538,78.50922,78,80,0
77.9538,78.50922,81,95,0
78.50922,78.87565,73,89,0
78.50922,78.87565,85,105,0
78.50922,78.87565,80,89,0
78.50922,78.87565,77,89,0
78.87565,79.01306,85,90,0
78.87565,79.01306,73,76,0
79.05887,79.19628,85,95,0
79.05887,79.19628,73,80,0
79.24209,79.376625,73,74,0
79.24209,79.376625,85,88,0
79.42147,79.56145,73,75,0
79.42147,79.56145,85,89,0
79.60811,79.97454,73,89,0
79.60811,79.97454,85,105,0
79.97454,80.11195,85,90,0
79.97454,80.11195,73,76,0
80.15776,80.29517,85,95,0
80.15776,80.29517,73,80,0
80.34098,80.48551,73,74,0
80.34098,80.48551,85,88,0
80.53369,80.70077,73,75,0
80.53369,80.70077,85,89,0
80.75646,81.122894,76,89,0
80.75646,81.122894,88,105,0
80.75646,81.122894,85,89,0
80.75646,81.122894,80,89,0
81.122894,81.26031,88,90,0
81.122894,81.26031,76,76,0
81.306114,81.44353,88,95,0
81.306114,81.44353,76,80,0
81.48933,81.62386,76,74,0
81.48933,81.62386,88,88,0
81.66871,81.80869,76,75,0
81.66871,81.80869,88,89,0
81.85535,82.22179,76,89,0
81.85535,82.22179,88,105,0
82.22179,82.3592,88,85,0
82.22179,82.3592,76,72,0
82.405,82.550476,88,90,0
82.405,82.550476,76,76,0
82.59896,82.73431,76,59,0
82.59896,82.73431,88,70,0
82.77943,82.92343,76,60,0
82.77943,82.92343,88,71,0
82.971436,83.109695,76,64,0
82.971436,83.109695,88,76,0
83.15578,83.29404,76,59,0
83.15578,83.29404,88,70,0
83.340126,83.48489,88,71,0
83.340126,83.48489,76,60,0
83.53315,83.67141,76,64,0
83.53315,83.67141,88,76,0
83.71749,83.85575,76,59,0
83.71749,83.85575,88,70,0
83.90183,84.04009,76,60,0
83.90183,84.04009,88,71,0
84.08618,84.224434,76,64,0
84.08618,84.224434,88,76,0
84.27052,84.408775,76,59,0
84.27052,84.408775,88,70,0
84.454865,84.597565,88,71,0
84.454865,84.597565,76,60,0
84.645134,84.783394,76,64,0
84.645134,84.783394,88,76,0
84.829475,84.967735,78,56,0
84.829475,84.967735,90,66,0
85.013824,85.15859,78,53,0
85.013824,85.15859,90,64,0
85.20685,85.34276,81,57,0
85.20685,85.34276,93,68,0
85.38806,85.52397,93,62,0
85.38806,85.52397,81,52,0
85.569275,85.71249,93,63,0
85.569275,85.71249,81,53,0
85.76022,85.91259,81,47,0
85.76022,85.91259,93,67,0
85.96338,86.115746,81,54,0
85.96338,86.115746,93,63,0
86.166534,86.34774,93,62,0
86.166534,86.34774,81,52,0
86.40814,86.60085,81,51,0
86.40814,86.60085,93,61,0
87.31113,87.39323,69,70,0
87.31113,87.39323,64,59,0
87.40235,87.539185,64,57,0
87.40235,87.539185,69,68,0
87.5848,87.76914,69,70,0
87.5848,87.76914,64,59,0
87.76914,87.95348,68,58,0
87.76914,87.95348,71,69,0
87.95348,88.049995,64,58,0
87.95348,88.049995,69,69,0
87.95348,88.049995,73,69,0
88.14651,88.5152,64,62,0
88.14651,88.5152,69,73,0
88.14651,88.5152,73,73,0
88.5152,88.65345,69,55,0
88.5152,88.65345,73,65,0
88.69954,88.88388,73,70,0
88.69954,88.88388,69,59,0
88.88388,89.06822,71,56,0
88.88388,89.06822,74,66,0
89.06822,89.16336,73,54,0
89.06822,89.16336,76,64,0
89.25849,89.44284,73,54,0
89.25849,89.44284,76,54,0
89.44284,89.62718,74,50,0
89.62718,89.81152,73,43,0
89.81152,90.08334,71,55,0
89.81152,90.08334,69,49,0
90.08334,90.164894,69,45,0
90.08334,90.164894,71,45,0
90.17395,90.31716,69,45,0
90.17395,90.31716,71,45,0
90.3649,90.55585,74,54,0
90.55585,90.74048,73,50,0
90.74048,90.9251,71,43,0
90.9251,91.10916,78,54,0
91.10916,91.29322,74,50,0
91.29322,91.48132,73,50,0
91.48132,91.757416,71,55,0
90.3649,91.757416,69,49,0
91.757416,91.84024,69,45,0
91.757416,91.84024,71,45,0
91.84944,91.99141,69,45,0
91.84944,91.99141,71,45,0
92.038734,92.310555,71,55,0
92.310555,92.3921,71,45,0
92.40116,92.54437,71,45,0
92.59211,92.78306,74,54,0
92.78306,92.96768,73,50,0
92.96768,93.15231,71,43,0
93.15231,93.33637,78,54,0
93.33637,93.52043,74,50,0
93.52043,93.708534,73,50,0
93.708534,93.88722,71,55,0
92.038734,93.89259,69,49,0
93.89259,94.06131,71,45,0
93.89259,94.06745,69,45,0
94.07665,94.22598,69,45,0
94.07665,94.22598,71,45,0
94.275764,95.020645,78,90,0
95.020645,95.11187,75,78,0
95.203094,95.29957,73,72,0
95.396034,96.14092,83,90,0
95.396034,96.14092,71,78,0
96.14092,96.23853,80,97,0
96.33614,96.44431,78,90,0
96.55248,97.27073,76,85,0
96.55248,97.27073,88,101,0
97.27073,97.35982,86,84,0
97.27073,97.35982,74,70,0
97.44891,97.538,85,83,0
97.44891,97.538,73,70,0
97.62709,97.71443,71,79,0
97.62709,97.71443,83,94,0
97.80177,97.89086,81,82,0
97.80177,97.89086,69,69,0
97.97995,98.06904,80,81,0
97.97995,98.06904,68,69,0
98.15813,98.24722,66,74,0
98.15813,98.24722,78,88,0
98.33631,98.4254,76,80,0
98.33631,98.4254,64,67,0
98.51449,98.60358,74,79,0
98.51449,98.60358,62,67,0
98.692665,98.78175,61,74,0
98.692665,98.78175,73,88,0
98.87085,98.95994,59,60,0
98.87085,98.95994,71,71,0
99.04903,99.138115,57,59,0
99.04903,99.138115,69,71,0
99.2272,99.31629,56,65,0
99.2272,99.31629,68,77,0
99.40538,99.49448,57,56,0
99.40538,99.49448,69,67,0
99.583565,99.67769,54,55,0
99.583565,99.67769,66,66,0
99.77181,99.85915,52,62,0
99.77181,99.85915,64,74,0
99.946495,100.034996,57,48,0
99.946495,100.034996,69,56,0
100.1235,100.212,57,47,0
100.1235,100.212,61,56,0
100.3005,100.389,56,54,0
100.3005,100.389,64,65,0
100.4775,100.56936,56,39,0
100.4775,100.56936,62,46,0
100.66122,100.75773,56,39,0
100.66122,100.75773,59,46,0
100.85424,100.99249,57,49,0
101.03858,101.13075,57,45,0
101.22292,101.315094,57,43,0
101.59161,101.683784,52,40,0
101.775955,101.86971,52,46,0
101.407265,102.139854,57,49,0
102.14752,102.239555,57,45,0
101.96346,102.33159,50,53,0
101.96346,102.33159,54,53,0
102.33159,102.423615,57,43,0
102.69971,102.79174,52,40,0
102.883766,102.97811,52,46,0
102.51565,103.24885,57,49,0
103.256516,103.34855,57,53,0
103.07246,103.44058,50,63,0
103.07246,103.44058,54,63,0
103.44058,103.53404,57,61,0
103.62751,104.35608,61,67,0
104.36375,104.45578,61,59,0
104.54781,104.64069,61,68,0
104.73358,105.46977,64,75,0
105.46977,105.56089,61,70,0
105.56089,105.65168,64,73,0
105.65168,105.74214,69,76,0
105.74214,105.832214,73,84,0
105.832214,106.56814,76,88,0
106.56814,106.65905,61,74,0
106.65905,106.74948,64,77,0
106.74948,106.83943,67,81,0
106.83943,106.9294,73,88,0
106.9294,107.66318,76,93,0
107.66318,107.754135,66,78,0
107.754135,107.84465,69,82,0
107.84465,107.934746,74,85,0
107.934746,108.02451,78,93,0
108.02451,108.7585,81,98,0
108.7585,108.84984,66,82,0
108.84984,108.94073,69,86,0
108.94073,109.03127,75,90,0
109.03127,109.12149,78,98,0
109.12149,109.85264,81,103,0
109.85264,109.94348,73,86,0
109.94348,110.034035,76,90,0
110.034035,110.12435,81,94,0
110.12435,110.214455,85,98,0
110.214455,110.30562,88,101,0
110.30562,110.396805,85,94,0
110.396805,110.488,81,77,0
110.488,110.57823,76,63,0
110.57823,110.67423,81,69,0
110.67423,110.77024,76,67,0
110.77024,110.86241,88,76,0
110.86241,110.95458,85,67,0
110.95458,111.04675,81,70,0
111.04675,111.13892,76,63,0
111.13892,111.23544,81,69,0
111.23544,111.331955,76,67,0
111.331955,111.424126,88,76,0
111.424126,111.5163,85,67,0
111.5163,111.60847,81,70,0
111.60847,111.70064,76,63,0
111.70064,111.79281,81,69,0
111.79281,111.88498,76,67,0
111.88498,111.97715,88,76,0
111.97715,112.06933,85,67,0
112.06933,112.1615,81,70,0
112.1615,112.25367,76,63,0
112.25367,112.3488,81,69,0
112.3488,112.44394,76,67,0
112.44394,112.53611,88,76,0
112.53611,112.62828,85,67,0
112.62828,112.72045,81,70,0
112.72045,112.81262,76,63,0
112.81262,112.90776,81,69,0
112.90776,113.0029,76,67,0
113.0029,113.09507,88,76,0
113.09507,113.18724,86,67,0
113.18724,113.27941,83,70,0
113.27941,113.37158,76,63,0
113.37158,113.46672,83,69,0
113.46672,113.56185,76,67,0
113.56185,113.65402,88,76,0
113.65402,113.74619,86,67,0
113.74619,113.83836,83,70,0
113.83836,113.93054,76,63,0
113.93054,114.02567,83,69,0
114.02567,114.12081,76,67,0
114.12081,114.21298,88,76,0
114.21298,114.30515,86,67,0
114.30515,114.39732,83,70,0
114.39732,114.489494,76,63,0
114.489494,114.58463,83,69,0
114.58463,114.67976,76,67,0
114.67976,114.771935,88,76,0
114.771935,114.86411,85,67,0
114.86411,114.974266,81,70,0
114.974266,115.0645,76,63,0
115.0645,115.16051,81,69,0
115.16051,115.25651,76,67,0
115.25651,115.34868,88,76,0
115.34868,115.44085,85,67,0
115.44085,115.53303,81,70,0
115.53303,115.6252,76,63,0
115.6252,115.72171,81,69,0
115.72171,115.81822,76,67,0
115.81822,115.91039,88,76,0
115.91039,116.00256,85,67,0
116.00256,116.094734,81,70,0
116.094734,116.186905,76,63,0
116.186905,116.279076,81,69,0
116.279076,116.371254,76,67,0
116.371254,116.463425,88,76,0
116.463425,116.555595,85,67,0
116.555595,116.647766,81,70,0
116.647766,116.73994,76,63,0
116.73994,116.835075,81,69,0
116.835075,116.93021,76,67,0
116.93021,117.02238,88,76,0
117.02238,117.11455,85,67,0
117.11455,117.20672,81,70,0
117.20672,117.2989,76,63,0
117.2989,117.39403,81,69,0
117.39403,117.48917,76,67,0
117.48917,117.58134,88,76,0
117.58134,117.67351,86,67,0
117.67351,117.76568,83,70,0
117.76568,117.85785,76,63,0
117.85785,117.95299,83,69,0
117.95299,118.04812,76,67,0
118.04812,118.14029,88,76,0
118.14029,118.23247,86,67,0
118.23247,118.32464,83,70,0
118.32464,118.41681,76,63,0
118.41681,118.51194,83,69,0
118.51194,118.60708,76,67,0
118.60708,118.69925,88,76,0
118.69925,118.79142,86,67,0
118.79142,118.88359,83,70,0
118.88359,118.97576,76,63,0
118.97576,119.0709,83,69,0
119.0709,119.16604,76,67,0
119.16604,119.25821,88,76,0
119.25821,119.35038,85,67,0
119.35038,119.45406,83,70,0
119.45406,119.5443,81,63,0
119.5443,119.6403,83,69,0
119.6403,119.736305,81,67,0
119.736305,119.828476,88,76,0
119.828476,119.92065,85,67,0
119.92065,120.01282,83,70,0
120.01282,120.104996,81,63,0
120.104996,120.20151,83,69,0
120.20151,120.29802,81,67,0
120.29802,120.39019,88,76,0
120.39019,120.48236,85,67,0
120.48236,120.57453,83,70,0
120.57453,120.6667,81,63,0
120.6667,120.75887,83,69,0
120.75887,120.85104,81,67,0
120.85104,120.943214,88,76,0
120.943214,121.03539,85,67,0
121.03539,121.12756,83,70,0
121.12756,121.219734,81,63,0
121.219734,121.312805,83,69,0
121.312805,121.40587,81,67,0
121.40587,121.49894,88,76,0
121.49894,121.59201,85,67,0
121.59201,121.691895,83,56,0
121.691895,121.79179,81,53,0
121.79179,121.902756,83,58,0
121.902756,122.03133,81,56,0
122.03133,122.12297,93,71,0
122.12297,122.214615,90,56,0
122.214615,122.30627,83,59,0
122.30627,122.39791,81,53,0
122.39791,122.48956,83,58,0
122.48956,122.58121,81,56,0
122.58121,122.67286,93,64,0
122.67286,122.7645,90,56,0
122.7645,122.856155,83,59,0
122.856155,122.9478,81,53,0
122.9478,123.03945,83,58,0
123.03945,123.131096,81,56,0
123.131096,123.22274,93,71,0
123.22274,123.31439,90,56,0
123.31439,123.40604,83,59,0
123.40604,123.49769,81,53,0
123.49769,123.58933,83,58,0
123.58933,123.680984,81,56,0
123.680984,123.77263,93,64,0
123.77263,123.86428,90,56,0
123.86428,123.955925,83,59,0
123.955925,124.04758,81,53,0
124.04758,124.141815,83,58,0
124.141815,124.24514,81,56,0
124.24514,124.336784,93,71,0
124.336784,124.42844,90,56,0
124.42844,124.52008,86,58,0
124.52008,124.61173,81,51,0
124.61173,124.70338,86,56,0
124.70338,124.79503,81,53,0
124.79503,124.88667,93,60,0
124.88667,124.978325,90,53,0
124.978325,125.06997,86,55,0
125.06997,125.16161,81,49,0
125.16161,125.25586,86,53,0
125.25586,125.3599,81,50,0
125.3599,125.451546,93,63,0
125.451546,125.5432,90,50,0
125.5432,125.63484,86,52,0
125.63484,125.726494,81,46,0
125.726494,125.81814,86,50,0
125.81814,125.90978,81,48,0
125.90978,126.001434,93,54,0
126.001434,126.09308,90,47,0
126.09308,126.18473,86,49,0
126.18473,126.276375,81,43,0
126.276375,126.36803,86,47,0
126.36803,126.45967,81,45,0
126.45967,126.55132,93,56,0
126.55132,126.64297,88,44,0
126.64297,126.73462,85,47,0
126.73462,126.82626,81,42,0
126.82626,126.919044,85,46,0
126.919044,127.011826,81,44,0
127.011826,127.099976,90,56,0
127.099976,127.18812,88,44,0
127.18812,127.27977,90,47,0
127.27977,127.371414,88,42,0
127.371414,127.463066,90,46,0
127.463066,127.55471,88,44,0
127.55471,127.64636,93,56,0
127.64636,127.73801,88,44,0
127.73801,127.82966,85,47,0
127.82966,127.9213,81,42,0
127.9213,128.01408,85,46,0
128.01408,128.10687,81,44,0
128.10687,128.19527,90,56,0
128.19527,128.28368,88,44,0
128.28368,128.37532,90,47,0
128.37532,128.46698,88,42,0
128.46698,128.55862,90,46,0
128.55862,128.65027,88,44,0
128.65027,128.74191,93,56,0
128.74191,128.83357,88,44,0
128.83357,128.92522,85,47,0
128.92522,129.01686,81,42,0
129.01686,129.10936,85,45,0
129.10936,129.20186,81,43,0
129.20186,129.29025,90,55,0
129.29025,129.37866,88,43,0
129.37866,129.47003,90,46,0
129.47003,129.5614,88,41,0
129.5614,129.65277,90,45,0
129.65277,129.74414,88,42,0
129.74414,129.83551,93,54,0
129.83551,129.92688,88,42,0
129.92688,130.01825,85,45,0
130.01825,130.10962,81,40,0
130.10962,130.20212,85,44,0
130.20212,130.2946,81,42,0
130.2946,130.38301,90,53,0
130.38301,130.47142,88,41,0
130.47142,130.56279,90,44,0
130.56279,130.65416,88,39,0
130.65416,130.74553,90,43,0
130.74553,130.8369,88,41,0
130.8369,130.92827,93,52,0
130.92827,131.01964,88,41,0
131.01964,131.11101,85,43,0
131.11101,131.20238,81,39,0
131.20238,131.29375,85,42,0
131.29375,131.38512,81,40,0
131.38512,131.47647,88,51,0
131.47647,131.56784,85,40,0
131.56784,131.65704,83,43,0
131.65704,131.74623,81,38,0
131.74623,131.83543,83,41,0
131.83543,131.92938,81,40,0
131.92938,132.02075,88,50,0
132.02075,132.11212,85,39,0
132.11212,132.20348,83,42,0
132.20348,132.29485,81,37,0
132.29485,132.38622,83,40,0
132.38622,132.47758,81,39,0
132.47758,132.56895,88,49,0
132.56895,132.66032,85,39,0
132.66032,132.749,83,41,0
132.749,132.83766,81,36,0
132.83766,132.92633,83,40,0
132.92633,133.01999,81,38,0
133.01999,133.11136,88,48,0
133.11136,133.20271,85,38,0
133.20271,133.29408,83,40,0
133.29408,133.38545,81,36,0
133.38545,133.47682,83,39,0
133.47682,133.56819,81,37,0
133.56819,133.65956,88,47,0
133.65956,133.75093,85,37,0
133.75093,133.8412,83,39,0
133.8412,133.93147,81,35,0
133.93147,134.02257,83,39,0
134.02257,134.11621,81,45,0
134.11621,134.20758,88,49,0
134.20758,134.29895,85,46,0
134.29895,134.39032,83,49,0
134.39032,134.48169,81,53,0
134.48169,134.57306,83,55,0
134.57306,134.66443,85,57,0
134.66443,134.7566,86,61,0
134.7566,134.84822,88,65,0
134.84822,134.93927,90,68,0
134.93927,135.02977,92,70,0
135.02977,135.11977,93,73,0
135.11977,135.2092,95,77,0
135.2092,135.40315,97,78,0
136.37297,136.56693,88,49,0
136.32448,136.56693,81,41,0
136.27599,136.56693,76,41,0
137.53673,137.63371,57,34,0
0.1882843,0.2811409,49,61,0
0.2811409,0.3734825,52,63,0
0.0,0.3734825,45,70,0
0.0,0.3734825,33,59,0
0.3734825,0.46964875,57,67,0
0.46964875,0.56581503,61,70,0
0.754068,0.80113125,52,53,0
0.754068,0.80113125,59,63,0
0.942321,0.98938423,52,53,0
0.942321,0.98938423,59,63,0
1.130574,1.5036314,57,70,0
1.130574,1.5036314,61,70,0
1.8851087,1.9321721,64,56,0
1.8851087,1.9321721,71,66,0
2.0733619,2.120425,64,52,0
2.0733619,2.120425,71,62,0
2.2616148,2.6334794,73,70,0
2.2616148,2.6334794,69,59,0
3.0149567,3.0616915,64,56,0
3.0149567,3.0616915,71,66,0
3.2018957,3.249633,64,56,0
3.2018957,3.249633,71,66,0
3.3928447,3.5771878,73,70,0
3.3928447,3.5771878,69,59,0
3.5771878,3.6242511,64,54,0
3.5771878,3.6242511,71,64,0
3.7654407,3.8151393,64,54,0
3.7654407,3.8151393,71,64,0
3.9642348,4.147318,73,70,0
3.9642348,4.147318,69,59,0
4.147318,4.195055,64,54,0
4.147318,4.195055,71,64,0
4.338267,4.3939586,64,54,0
4.338267,4.3939586,71,64,0
4.5610337,4.975771,73,70,0
4.5610337,4.975771,69,59,0
5.1831393,5.492704,33,67,0
5.1831393,5.492704,45,79,0
5.492704,5.5748057,57,59,0
5.492704,5.5748057,49,50,0
5.583928,5.7207646,49,45,0
5.583928,5.7207646,57,54,0
5.766377,5.95072,57,59,0
5.766377,5.95072,49,50,0
5.95072,6.1350627,52,46,0
5.95072,6.1350627,59,55,0
6.1350627,6.2315755,61,55,0
6.1350627,6.2315755,57,46,0
6.3280883,6.6967745,61,60,0
6.3280883,6.6967745,57,51,0
6.6967745,6.8350315,61,59,0
6.6967745,6.8350315,57,50,0
6.8811173,7.06546,61,63,0
6.8811173,7.06546,57,53,0
7.06546,7.249803,59,50,0
7.06546,7.249803,62,59,0
7.249803,7.3449388,64,59,0
7.249803,7.3449388,61,50,0
7.4400744,7.716589,61,56,0
7.4400744,7.716589,64,66,0
7.716589,7.799543,66,59,0
7.716589,7.799543,62,50,0
7.80876,7.964826,62,52,0
7.80876,7.964826,66,62,0
8.016848,8.288669,57,59,0
8.016848,8.288669,62,59,0
8.016848,8.288669,66,70,0
8.288669,8.370215,66,59,0
8.288669,8.370215,62,50,0
8.379275,8.522488,66,59,0
8.379275,8.522488,62,50,0
8.570225,8.768677,62,56,0
8.570225,8.768677,66,67,0
8.768677,8.967129,68,59,0
8.768677,8.967129,64,50,0
8.967129,9.087931,66,59,0
8.967129,9.087931,62,50,0
9.208734,9.808054,57,56,0
9.208734,9.808054,62,56,0
9.208734,9.808054,66,67,0
9.808054,10.043035,61,49,0
9.808054,10.043035,64,58,0
10.160525,10.242627,57,59,0
10.160525,10.242627,49,50,0
10.25175,10.388586,49,45,0
10.25175,10.388586,57,54,0
10.434198,10.618541,57,59,0
10.434198,10.618541,49,50,0
10.618541,10.802884,52,46,0
10.618541,10.802884,59,55,0
10.802884,10.899397,61,55,0
10.802884,10.899397,57,46,0
10.99591,11.364595,61,60,0
10.99591,11.364595,57,51,0
11.364595,11.502852,61,59,0
11.364595,11.502852,57,50,0
11.548939,11.733281,61,63,0
11.548939,11.733281,57,53,0
11.733281,11.917624,59,50,0
11.733281,11.917624,62,59,0
11.917624,12.01276,64,59,0
11.917624,12.01276,61,50,0
12.107896,12.493431,61,56,0
12.107896,12.493431,64,66,0
12.686457,12.86767,33,44,0
12.686457,12.86767,45,52,0
12.86767,13.041334,64,44,0
12.86767,13.041334,61,37,0
12.86767,13.041334,54,37,0
13.048884,13.192097,64,44,0
13.048884,13.192097,61,37,0
13.048884,13.192097,54,37,0
13.239834,13.430782,64,35,0
13.239834,13.430782,61,29,0
13.239834,13.430782,54,29,0
13.430782,13.621732,64,35,0
13.430782,13.621732,61,29,0
13.430782,13.621732,54,29,0
13.621732,13.81268,64,35,0
13.621732,13.81268,61,29,0
13.621732,13.81268,54,29,0
13.81268,14.95334,64,37,0
13.81268,14.95334,61,37,0
13.81268,14.95334,54,37,0
14.95334,15.134554,33,44,0
14.95334,15.134554,45,52,0
15.134554,15.308217,64,44,0
15.134554,15.308217,61,37,0
15.134554,15.308217,54,37,0
15.315767,15.45898,64,44,0
15.315767,15.45898,61,37,0
15.315767,15.45898,54,37,0
15.506717,15.697665,64,35,0
15.506717,15.697665,61,29,0
15.506717,15.697665,54,29,0
15.697665,15.888615,64,35,0
15.697665,15.888615,61,29,0
15.697665,15.888615,54,29,0
15.888615,16.079563,64,35,0
15.888615,16.079563,61,29,0
15.888615,16.079563,54,29,0
16.079563,16.83655,64,37,0
16.079563,16.83655,61,37,0
16.079563,16.83655,54,37,0
16.83655,16.927774,59,66,0
16.83655,16.927774,66,78,0
17.019,17.110224,66,70,0
17.019,17.110224,59,59,0
17.201448,17.38579,59,66,0
17.201448,17.38579,66,78,0
17.38579,17.570133,64,75,0
17.38579,17.570133,56,63,0
17.570133,17.666647,66,72,0
17.570133,17.666647,59,61,0
17.763159,17.947502,64,66,0
17.763159,17.947502,68,78,0
17.947502,18.131845,68,62,0
17.947502,18.131845,71,74,0
18.131845,18.224016,66,74,0
18.131845,18.224016,59,62,0
18.316189,19.046738,59,71,0
18.316189,19.046738,66,84,0
19.42869,19.613033,44,49,0
19.42869,19.613033,32,41,0
19.613033,19.705204,59,30,0
19.613033,19.705204,52,30,0
19.613033,19.705204,56,30,0
19.613033,19.705204,64,37,0
19.797377,19.893888,64,37,0
19.797377,19.893888,52,30,0
19.797377,19.893888,56,30,0
19.797377,19.893888,59,30,0
19.990402,20.376453,64,37,0
19.990402,20.376453,52,30,0
19.990402,20.376453,56,30,0
19.990402,20.376453,59,30,0
20.5589,20.743244,45,49,0
20.5589,20.743244,33,41,0
20.743244,20.835415,61,37,0
20.743244,20.835415,52,37,0
20.743244,20.835415,56,37,0
20.743244,20.835415,64,45,0
20.927588,21.0241,64,45,0
20.927588,21.0241,52,37,0
20.927588,21.0241,56,37,0
20.927588,21.0241,61,37,0
21.120613,21.506664,64,45,0
21.120613,21.506664,52,37,0
21.120613,21.506664,56,37,0
21.120613,21.506664,61,37,0
21.69969,21.884031,47,63,0
21.69969,21.884031,35,53,0
21.884031,21.976204,59,39,0
21.884031,21.976204,52,39,0
21.884031,21.976204,56,39,0
21.884031,21.976204,64,48,0
22.068375,22.164888,64,50,0
22.068375,22.164888,52,40,0
22.068375,22.164888,56,40,0
22.068375,22.164888,59,40,0
22.2614,22.647451,64,50,0
22.2614,22.647451,52,40,0
22.2614,22.647451,56,40,0
22.2614,22.647451,59,40,0
22.8299,23.014242,49,61,0
22.8299,23.014242,37,51,0
23.014242,23.106415,61,46,0
23.014242,23.106415,52,46,0
23.014242,23.106415,56,46,0
23.014242,23.106415,64,56,0
23.198586,23.2951,64,57,0
23.198586,23.2951,52,47,0
23.198586,23.2951,56,47,0
23.198586,23.2951,61,47,0
23.391611,23.777662,64,58,0
23.391611,23.777662,52,48,0
23.391611,23.777662,56,48,0
23.391611,23.777662,61,48,0
23.970688,24.155031,50,66,0
23.970688,24.155031,38,56,0
24.155031,24.247202,59,41,0
24.155031,24.247202,52,41,0
24.155031,24.247202,56,41,0
24.155031,24.247202,64,50,0
24.339375,24.435886,64,50,0
24.339375,24.435886,52,41,0
24.339375,24.435886,56,41,0
24.339375,24.435886,59,41,0
24.5324,24.918451,64,51,0
24.5324,24.918451,52,42,0
24.5324,24.918451,56,42,0
24.5324,24.918451,59,42,0
25.100899,25.285242,49,71,0
25.100899,25.285242,37,60,0
25.285242,25.377413,61,53,0
25.285242,25.377413,52,53,0
25.285242,25.377413,57,53,0
25.285242,25.377413,64,64,0
25.469585,25.566097,64,64,0
25.469585,25.566097,52,53,0
25.469585,25.566097,57,53,0
25.469585,25.566097,61,53,0
25.662611,26.038084,64,64,0
25.662611,26.038084,52,53,0
25.662611,26.038084,57,53,0
25.662611,26.038084,61,53,0
26.220533,26.309622,51,55,0
26.220533,26.309622,39,46,0
26.398712,26.4878,57,41,0
26.398712,26.4878,51,41,0
26.398712,26.4878,54,41,0
26.398712,26.4878,59,50,0
26.57689,26.665981,59,50,0
26.57689,26.665981,51,41,0
26.57689,26.665981,54,41,0
26.57689,26.665981,57,41,0
26.75507,26.933249,59,50,0
26.75507,26.933249,51,41,0
26.75507,26.933249,54,41,0
26.75507,26.933249,57,41,0
27.29968,27.388771,56,55,0
27.29968,27.388771,52,46,0
27.29968,27.388771,47,46,0
27.29968,27.388771,44,46,0
27.47786,27.56695,52,41,0
27.47786,27.56695,44,41,0
27.47786,27.56695,47,41,0
27.47786,27.56695,56,50,0
27.656038,27.745129,56,50,0
27.656038,27.745129,44,41,0
27.656038,27.745129,47,41,0
27.656038,27.745129,52,41,0
27.834219,28.01793,56,50,0
27.834219,28.01793,44,41,0
27.834219,28.01793,47,41,0
27.834219,28.01793,52,41,0
28.374287,28.461628,54,46,0
28.374287,28.461628,46,39,0
28.374287,28.461628,52,39,0
28.54897,28.63806,52,34,0
28.54897,28.63806,54,42,0
28.54897,28.63806,46,34,0
28.727148,28.816238,54,42,0
28.727148,28.816238,52,34,0
28.727148,28.816238,46,34,0
28.905327,28.994417,54,46,0
28.905327,28.994417,46,39,0
28.905327,28.994417,52,39,0
29.083506,29.172596,52,34,0
29.083506,29.172596,54,42,0
29.083506,29.172596,46,34,0
29.261686,29.350775,54,42,0
29.261686,29.350775,52,34,0
29.261686,29.350775,46,34,0
29.439865,29.528954,54,46,0
29.439865,29.528954,46,39,0
29.439865,29.528954,52,39,0
29.618044,29.707132,52,33,0
29.618044,29.707132,54,41,0
29.618044,29.707132,46,33,0
29.796223,29.885311,54,40,0
29.796223,29.885311,52,32,0
29.796223,29.885311,46,32,0
29.974401,30.063492,54,43,0
29.974401,30.063492,46,37,0
29.974401,30.063492,52,37,0
30.15258,30.24167,52,31,0
30.15258,30.24167,54,39,0
30.15258,30.24167,46,31,0
30.33076,30.424887,54,38,0
30.33076,30.424887,52,31,0
30.33076,30.424887,46,31,0
30.519012,30.606354,56,41,0
30.519012,30.606354,47,35,0
30.52338,30.610722,52,35,0
30.693695,30.782196,56,36,0
30.693695,30.782196,47,29,0
30.69812,30.786621,52,29,0
30.870697,30.959198,56,36,0
30.870697,30.959198,47,29,0
30.875122,30.963623,52,29,0
31.047699,31.136198,57,39,0
31.047699,31.136198,54,33,0
31.047699,31.136198,47,33,0
31.224699,31.316555,57,34,0
31.224699,31.316555,54,28,0
31.224699,31.316555,47,28,0
31.408411,31.504923,57,34,0
31.408411,31.504923,54,27,0
31.408411,31.504923,47,27,0
31.601437,31.78578,56,33,0
31.601437,31.78578,52,33,0
32.154465,32.46403,33,67,0
32.154465,32.46403,45,79,0
32.46403,32.54613,57,59,0
32.46403,32.54613,49,50,0
32.555256,32.69209,49,45,0
32.555256,32.69209,57,54,0
32.7377,32.922047,57,59,0
32.7377,32.922047,49,50,0
32.922047,33.106388,52,46,0
32.922047,33.106388,59,55,0
33.106388,33.2029,61,55,0
33.106388,33.2029,57,46,0
33.299416,33.6681,61,60,0
33.299416,33.6681,57,51,0
33.6681,33.80636,61,59,0
33.6681,33.80636,57,50,0
33.852444,34.036785,61,63,0
33.852444,34.036785,57,53,0
34.036785,34.22113,59,50,0
34.036785,34.22113,62,59,0
34.22113,34.316265,64,59,0
34.22113,34.316265,61,50,0
34.4114,34.687916,61,56,0
34.4114,34.687916,64,66,0
34.687916,34.77087,66,59,0
34.687916,34.77087,62,50,0
34.780087,34.93092,62,52,0
34.780087,34.93092,66,62,0
34.981197,35.25302,57,59,0
34.981197,35.25302,62,59,0
34.981197,35.25302,66,70,0
35.25302,35.334568,66,59,0
35.25302,35.334568,62,50,0
35.343628,35.48684,66,59,0
35.343628,35.48684,62,50,0
35.534576,35.718918,62,56,0
35.534576,35.718918,66,67,0
35.718918,35.91936,68,59,0
35.718918,35.91936,64,50,0
35.91936,36.04418,66,59,0
35.91936,36.04418,62,50,0
36.169006,36.747154,57,56,0
36.169006,36.747154,62,56,0
36.169006,36.747154,66,67,0
36.747154,36.975864,61,49,0
36.747154,36.975864,64,58,0
37.09022,37.17232,57,59,0
37.09022,37.17232,49,50,0
37.181442,37.31828,49,45,0
37.181442,37.31828,57,54,0
37.36389,37.548237,57,59,0
37.36389,37.548237,49,50,0
37.548237,37.73258,52,46,0
37.548237,37.73258,59,55,0
37.73258,37.82909,61,55,0
37.73258,37.82909,57,46,0
37.925602,38.29429,61,60,0
37.925602,38.29429,57,51,0
38.29429,38.43255,61,59,0
38.29429,38.43255,57,50,0
38.478634,38.662975,61,63,0
38.478634,38.662975,57,53,0
38.662975,38.84732,59,50,0
38.662975,38.84732,62,59,0
38.84732,38.942455,64,59,0
38.84732,38.942455,61,50,0
39.03759,39.406277,61,56,0
39.03759,39.406277,64,66,0
39.5993,39.780514,33,44,0
39.5993,39.780514,45,52,0
39.780514,39.954178,64,44,0
39.780514,39.954178,61,37,0
39.780514,39.954178,54,37,0
39.96173,40.104942,64,44,0
39.96173,40.104942,61,37,0
39.96173,40.104942,54,37,0
40.15268,40.343628,64,35,0
40.15268,40.343628,61,29,0
40.15268,40.343628,54,29,0
40.343628,40.534576,64,35,0
40.343628,40.534576,61,29,0
40.343628,40.534576,54,29,0
40.534576,40.725525,64,35,0
40.534576,40.725525,61,29,0
40.534576,40.725525,54,29,0
40.725525,41.844513,64,37,0
40.725525,41.844513,61,37,0
40.725525,41.844513,54,37,0
41.844513,42.025726,33,44,0
41.844513,42.025726,45,52,0
42.025726,42.19939,64,44,0
42.025726,42.19939,61,37,0
42.025726,42.19939,54,37,0
42.20694,42.35015,64,44,0
42.20694,42.35015,61,37,0
42.20694,42.35015,54,37,0
42.39789,42.588837,64,35,0
42.39789,42.588837,61,29,0
42.39789,42.588837,54,29,0
42.588837,42.779785,64,35,0
42.588837,42.779785,61,29,0
42.588837,42.779785,54,29,0
42.779785,42.970734,64,35,0
42.779785,42.970734,61,29,0
42.779785,42.970734,54,29,0
42.970734,43.72306,64,37,0
42.970734,43.72306,61,37,0
42.970734,43.72306,54,37,0
43.72306,43.814285,59,66,0
43.72306,43.814285,66,78,0
43.90551,43.996735,66,70,0
43.90551,43.996735,59,59,0
44.08796,44.2723,59,66,0
44.08796,44.2723,66,78,0
44.2723,44.456646,64,75,0
44.2723,44.456646,56,63,0
44.456646,44.553158,66,72,0
44.456646,44.553158,59,61,0
44.64967,44.834015,64,66,0
44.64967,44.834015,68,78,0
44.834015,45.018356,68,62,0
44.834015,45.018356,71,74,0
45.018356,45.110527,66,74,0
45.018356,45.110527,59,62,0
45.2027,45.93325,59,71,0
45.2027,45.93325,66,84,0
46.3152,46.499546,44,49,0
46.3152,46.499546,32,41,0
46.499546,46.591717,59,30,0
46.499546,46.591717,52,30,0
46.499546,46.591717,56,30,0
46.499546,46.591717,64,37,0
46.683887,46.7804,64,37,0
46.683887,46.7804,52,30,0
46.683887,46.7804,56,30,0
46.683887,46.7804,59,30,0
46.876915,47.262966,64,37,0
46.876915,47.262966,52,30,0
46.876915,47.262966,56,30,0
46.876915,47.262966,59,30,0
47.44541,47.629757,45,49,0
47.44541,47.629757,33,41,0
47.629757,47.721928,61,37,0
47.629757,47.721928,52,37,0
47.629757,47.721928,56,37,0
47.629757,47.721928,64,45,0
47.8141,47.91061,64,45,0
47.8141,47.91061,52,37,0
47.8141,47.91061,56,37,0
47.8141,47.91061,61,37,0
48.007126,48.393177,64,45,0
48.007126,48.393177,52,37,0
48.007126,48.393177,56,37,0
48.007126,48.393177,61,37,0
48.5862,48.770542,47,63,0
48.5862,48.770542,35,53,0
48.770542,48.862717,59,39,0
48.770542,48.862717,52,39,0
48.770542,48.862717,56,39,0
48.770542,48.862717,64,48,0
48.954887,49.0514,64,50,0
48.954887,49.0514,52,40,0
48.954887,49.0514,56,40,0
48.954887,49.0514,59,40,0
49.14791,49.533962,64,50,0
49.14791,49.533962,52,40,0
49.14791,49.533962,56,40,0
49.14791,49.533962,59,40,0
49.71641,49.900753,49,61,0
49.71641,49.900753,37,51,0
49.900753,49.992928,61,46,0
49.900753,49.992928,52,46,0
49.900753,49.992928,56,46,0
49.900753,49.992928,64,56,0
50.0851,50.18161,64,57,0
50.0851,50.18161,52,47,0
50.0851,50.18161,56,47,0
50.0851,50.18161,61,47,0
50.278122,50.664173,64,58,0
50.278122,50.664173,52,48,0
50.278122,50.664173,56,48,0
50.278122,50.664173,61,48,0
50.8572,51.041542,50,66,0
50.8572,51.041542,38,56,0
51.041542,51.133713,59,41,0
51.041542,51.133713,52,41,0
51.041542,51.133713,56,41,0
51.041542,51.133713,64,50,0
51.225887,51.3224,64,50,0
51.225887,51.3224,52,41,0
51.225887,51.3224,56,41,0
51.225887,51.3224,59,41,0
51.41891,51.804962,64,51,0
51.41891,51.804962,52,42,0
51.41891,51.804962,56,42,0
51.41891,51.804962,59,42,0
51.98741,52.171753,49,71,0
51.98741,52.171753,37,60,0
52.171753,52.263924,61,53,0
52.171753,52.263924,52,53,0
52.171753,52.263924,57,53,0
52.171753,52.263924,64,64,0
52.3561,52.45261,64,64,0
52.3561,52.45261,52,53,0
52.3561,52.45261,57,53,0
52.3561,52.45261,61,53,0
52.54912,52.924595,64,64,0
52.54912,52.924595,52,53,0
52.54912,52.924595,57,53,0
52.54912,52.924595,61,53,0
53.107044,53.196133,51,55,0
53.107044,53.196133,39,46,0
53.285225,53.374313,57,41,0
53.285225,53.374313,51,41,0
53.285225,53.374313,54,41,0
53.285225,53.374313,59,50,0
53.4634,53.552494,59,50,0
53.4634,53.552494,51,41,0
53.4634,53.552494,54,41,0
53.4634,53.552494,57,41,0
53.641582,53.81976,59,50,0
53.641582,53.81976,51,41,0
53.641582,53.81976,54,41,0
53.641582,53.81976,57,41,0
54.18619,54.275284,56,55,0
54.18619,54.275284,52,46,0
54.18619,54.275284,47,46,0
54.18619,54.275284,44,46,0
54.364372,54.45346,52,41,0
54.364372,54.45346,44,41,0
54.364372,54.45346,47,41,0
54.364372,54.45346,56,50,0
54.54255,54.63164,56,50,0
54.54255,54.63164,44,41,0
54.54255,54.63164,47,41,0
54.54255,54.63164,52,41,0
54.72073,54.90444,56,50,0
54.72073,54.90444,44,41,0
54.72073,54.90444,47,41,0
54.72073,54.90444,52,41,0
55.2608,55.34814,54,46,0
55.2608,55.34814,46,39,0
55.2608,55.34814,52,39,0
55.435482,55.52457,52,34,0
55.435482,55.52457,54,42,0
55.435482,55.52457,46,34,0
55.61366,55.70275,54,42,0
55.61366,55.70275,52,34,0
55.61366,55.70275,46,34,0
55.79184,55.880928,54,46,0
55.79184,55.880928,46,39,0
55.79184,55.880928,52,39,0
55.970016,56.05911,52,34,0
55.970016,56.05911,54,42,0
55.970016,56.05911,46,34,0
56.148197,56.237286,54,42,0
56.148197,56.237286,52,34,0
56.148197,56.237286,46,34,0
56.326378,56.415466,54,46,0
56.326378,56.415466,46,39,0
56.326378,56.415466,52,39,0
56.504555,56.593643,52,33,0
56.504555,56.593643,54,41,0
56.504555,56.593643,46,33,0
56.682735,56.771824,54,40,0
56.682735,56.771824,52,32,0
56.682735,56.771824,46,32,0
56.860912,56.950005,54,43,0
56.860912,56.950005,46,37,0
56.860912,56.950005,52,37,0
57.039093,57.12818,52,31,0
57.039093,57.12818,54,39,0
57.039093,57.12818,46,31,0
57.21727,57.311398,54,38,0
57.21727,57.311398,52,31,0
57.21727,57.311398,46,31,0
57.405525,57.492867,56,41,0
57.405525,57.492867,47,35,0
57.409893,57.497234,52,35,0
57.580208,57.66871,56,36,0
57.580208,57.66871,47,29,0
57.584633,57.673134,52,29,0
57.75721,57.84571,56,36,0
57.75721,57.84571,47,29,0
57.761635,57.850136,52,29,0
57.934208,58.02271,57,39,0
57.934208,58.02271,54,33,0
57.934208,58.02271,47,33,0
58.11121,58.203068,57,34,0
58.11121,58.203068,54,28,0
58.11121,58.203068,47,28,0
58.29492,58.391434,57,34,0
58.29492,58.391434,54,27,0
58.29492,58.391434,47,27,0
58.48795,58.685097,56,33,0
58.48795,58.685097,52,33,0
59.263813,59.355038,56,66,0
59.263813,59.355038,63,78,0
59.446262,59.537487,63,70,0
59.446262,59.537487,56,59,0
59.62871,59.813053,56,66,0
59.62871,59.813053,63,78,0
59.813053,59.9974,61,75,0
59.813053,59.9974,52,63,0
59.9974,60.09391,63,72,0
59.9974,60.09391,56,61,0
60.190422,60.374767,61,66,0
60.190422,60.374767,64,78,0
60.55911,60.65128,63,74,0
60.55911,60.65128,56,62,0
60.374767,60.73577,68,74,0
60.74345,61.112137,63,78,0
60.74345,61.112137,56,66,0
61.487267,61.57849,56,66,0
61.487267,61.57849,63,78,0
61.669716,61.763916,63,70,0
61.669716,61.763916,56,59,0
61.858112,62.042454,56,66,0
61.858112,62.042454,63,78,0
62.042454,62.2268,61,75,0
62.042454,62.2268,52,63,0
62.2268,62.32331,63,72,0
62.2268,62.32331,56,61,0
62.419823,62.604168,61,66,0
62.419823,62.604168,64,78,0
62.78851,62.88068,63,74,0
62.78851,62.88068,56,62,0
62.604168,62.96517,68,74,0
62.97285,63.525883,56,66,0
62.97285,63.525883,63,78,0
63.525883,64.0698,61,74,0
63.525883,64.0698,49,63,0
64.07512,64.6312,61,79,0
64.07512,64.6312,49,66,0
64.63683,65.18449,61,75,0
64.63683,65.18449,49,63,0
65.189865,65.37421,49,59,0
65.189865,65.37421,61,70,0
65.37421,65.55855,62,67,0
65.37421,65.55855,50,56,0
65.55855,65.65506,61,64,0
65.55855,65.65506,49,54,0
65.75157,65.84263,61,70,0
65.75157,65.84263,49,59,0
65.93368,66.0249,61,63,0
65.93368,66.0249,49,53,0
66.11613,66.21033,61,63,0
66.11613,66.21033,49,53,0
66.30452,66.8606,61,79,0
66.30452,66.8606,49,66,0
66.866234,67.41389,61,75,0
66.866234,67.41389,49,63,0
67.419266,67.96691,61,79,0
67.419266,67.96691,49,66,0
68.15447,68.24557,66,66,0
68.336655,68.4306,66,66,0
68.52454,68.61675,66,70,0
68.70897,68.80118,64,66,0
68.89339,68.9856,63,66,0
69.07781,69.168625,64,70,0
69.259445,69.35026,63,66,0
69.44107,69.53472,61,65,0
69.62837,69.72059,63,70,0
69.8128,69.90501,60,65,0
69.99722,70.08943,56,65,0
70.18164,70.318275,61,70,0
70.36382,70.45492,42,64,0
70.36382,70.45492,54,64,0
70.546005,70.639366,42,64,0
70.546005,70.639366,54,64,0
70.73273,70.87062,54,70,0
70.73273,70.87062,42,70,0
70.91658,71.054474,40,66,0
70.91658,71.054474,52,66,0
71.10044,71.24218,39,66,0
71.10044,71.24218,51,66,0
71.28943,71.42769,52,70,0
71.28943,71.42769,40,70,0
71.47377,71.61203,39,65,0
71.47377,71.61203,51,65,0
71.65811,71.79941,37,65,0
71.65811,71.79941,49,65,0
71.84651,71.98519,51,70,0
71.84651,71.98519,39,70,0
72.03142,72.170105,36,66,0
72.03142,72.170105,48,66,0
72.21633,72.35852,32,66,0
72.21633,72.35852,44,66,0
72.405914,72.59083,49,76,0
72.405914,72.59083,37,58,0
72.59083,72.68328,39,57,0
72.59083,72.68328,51,68,0
72.77574,72.868195,40,57,0
72.77574,72.868195,52,68,0
72.96065,73.05226,54,72,0
72.96065,73.05226,42,61,0
73.14387,73.23661,57,57,0
73.14387,73.23661,61,68,0
73.14387,73.23661,54,57,0
73.32935,73.42296,57,57,0
73.32935,73.42296,61,68,0
73.32935,73.42296,54,57,0
73.51657,73.60874,60,72,0
73.51657,73.60874,57,61,0
73.51657,73.60874,54,61,0
73.70091,73.793365,57,57,0
73.70091,73.793365,60,68,0
73.70091,73.793365,54,57,0
73.885826,73.97943,57,57,0
73.885826,73.97943,60,68,0
73.885826,73.97943,54,57,0
74.073044,74.16465,61,72,0
74.073044,74.16465,52,61,0
74.256256,74.34815,54,55,0
74.256256,74.34815,61,66,0
74.44004,74.533646,56,54,0
74.44004,74.533646,61,64,0
74.62726,74.71831,61,66,0
74.62726,74.71831,54,56,0
74.809364,74.90125,56,51,0
74.809364,74.90125,61,61,0
74.99314,75.08646,57,50,0
74.99314,75.08646,61,59,0
75.17978,75.363556,64,61,0
75.363556,75.54733,63,57,0
75.17978,75.732216,56,58,0
75.54733,75.73455,61,57,0
75.73455,75.918335,63,61,0
75.73455,76.09445,56,58,0
75.918335,76.10211,60,57,0
76.10211,76.28875,56,57,0
76.28875,76.6563,61,71,0
76.28875,76.6563,49,60,0
77.027885,77.119774,37,55,0
77.027885,77.119774,49,65,0
77.21167,77.30356,49,62,0
77.21167,77.30356,37,52,0
77.39545,77.763,61,71,0
77.39545,77.763,49,60,0
78.13701,78.22862,37,55,0
78.13701,78.22862,49,65,0
78.32023,78.41473,49,62,0
78.32023,78.41473,37,52,0
78.50922,78.87565,49,67,0
78.50922,78.87565,61,79,0
78.87565,79.01306,49,57,0
78.87565,79.01306,61,68,0
79.05887,79.19628,61,71,0
79.05887,79.19628,49,60,0
79.24209,79.376625,49,59,0
79.24209,79.376625,61,70,0
79.42147,79.56145,49,59,0
79.42147,79.56145,61,70,0
79.60811,79.97454,49,67,0
79.60811,79.97454,61,79,0
79.97454,80.11195,49,57,0
79.97454,80.11195,61,68,0
80.15776,80.29517,61,71,0
80.15776,80.29517,49,60,0
80.34098,80.48551,49,59,0
80.34098,80.48551,61,70,0
80.53369,80.70077,49,59,0
80.53369,80.70077,61,70,0
80.75646,81.122894,52,67,0
80.75646,81.122894,61,67,0
80.75646,81.122894,56,67,0
80.75646,81.122894,64,79,0
81.122894,81.26031,52,57,0
81.122894,81.26031,64,68,0
81.306114,81.44353,64,71,0
81.306114,81.44353,52,60,0
81.48933,81.62386,52,59,0
81.48933,81.62386,64,70,0
81.66871,81.80869,52,59,0
81.66871,81.80869,64,70,0
81.85535,82.22179,52,67,0
81.85535,82.22179,64,79,0
82.405,82.550476,45,71,0
82.405,82.550476,33,60,0
82.68919,82.75687,57,73,0
82.68919,82.75687,49,61,0
82.77943,82.92343,49,61,0
82.77943,82.92343,57,73,0
82.971436,83.15578,57,73,0
82.971436,83.15578,49,63,0
83.15578,83.340126,52,57,0
83.15578,83.340126,59,69,0
83.340126,83.43664,61,69,0
83.340126,83.43664,57,57,0
83.53315,83.90183,61,75,0
83.53315,83.90183,57,64,0
83.90183,84.04009,61,73,0
83.90183,84.04009,57,63,0
84.08618,84.27052,61,78,0
84.08618,84.27052,57,66,0
84.27052,84.454865,59,63,0
84.27052,84.454865,62,73,0
84.454865,84.55,64,73,0
84.454865,84.55,61,63,0
84.645134,84.921646,61,70,0
84.645134,84.921646,64,82,0
84.921646,85.0046,66,65,0
84.921646,85.0046,62,55,0
85.013824,85.15859,62,55,0
85.013824,85.15859,66,66,0
85.20685,85.47867,66,59,0
85.20685,85.47867,69,71,0
85.20685,85.47867,57,59,0
85.47867,85.56021,66,51,0
85.47867,85.56021,69,59,0
85.569275,85.71249,66,51,0
85.569275,85.71249,69,59,0
85.76022,85.96338,66,47,0
85.76022,85.96338,69,67,0
85.96338,86.166534,64,53,0
85.96338,86.166534,68,63,0
86.166534,86.28734,66,50,0
86.166534,86.28734,62,42,0
86.40814,86.98628,66,55,0
86.40814,86.98628,62,46,0
86.40814,86.98628,57,46,0
86.98628,87.20284,64,54,0
86.98628,87.20284,61,45,0
87.31113,87.39323,57,59,0
87.31113,87.39323,49,50,0
87.40235,87.539185,49,45,0
87.40235,87.539185,57,54,0
87.5848,87.76914,57,59,0
87.5848,87.76914,49,50,0
87.76914,87.95348,52,46,0
87.76914,87.95348,59,55,0
87.95348,88.049995,61,55,0
87.95348,88.049995,57,46,0
88.14651,88.5152,61,60,0
88.14651,88.5152,57,51,0
88.5152,88.65345,61,59,0
88.5152,88.65345,57,50,0
88.69954,88.88388,61,63,0
88.69954,88.88388,57,53,0
88.88388,89.06822,59,50,0
88.88388,89.06822,62,59,0
89.06822,89.16336,64,59,0
89.06822,89.16336,61,50,0
89.25849,89.44284,61,56,0
89.25849,89.44284,64,66,0
89.81152,89.99274,50,45,0
89.81152,89.99274,38,45,0
89.99274,90.164894,50,27,0
89.99274,90.164894,59,34,0
89.99274,90.164894,57,27,0
89.99274,90.164894,54,27,0
90.17395,90.355354,50,27,0
90.17395,90.355354,59,34,0
90.17395,90.355354,57,27,0
90.17395,90.355354,54,27,0
90.3649,90.5463,50,32,0
90.3649,90.5463,59,40,0
90.3649,90.5463,57,32,0
90.3649,90.5463,54,32,0
90.55585,90.73125,50,27,0
90.55585,90.73125,59,34,0
90.55585,90.73125,57,27,0
90.55585,90.73125,54,27,0
90.74048,90.91587,50,27,0
90.74048,90.91587,59,34,0
90.74048,90.91587,57,27,0
90.74048,90.91587,54,27,0
90.9251,92.038734,50,32,0
90.9251,92.038734,59,40,0
90.9251,92.038734,57,32,0
90.9251,92.038734,54,32,0
92.038734,92.21995,50,45,0
92.038734,92.21995,38,45,0
92.21995,92.3921,50,27,0
92.21995,92.3921,59,34,0
92.21995,92.3921,57,27,0
92.21995,92.3921,54,27,0
92.40116,92.58256,50,27,0
92.40116,92.58256,59,34,0
92.40116,92.58256,57,27,0
92.40116,92.58256,54,27,0
92.59211,92.773506,50,32,0
92.59211,92.773506,59,40,0
92.59211,92.773506,57,32,0
92.59211,92.773506,54,32,0
92.78306,92.95845,50,27,0
92.78306,92.95845,59,34,0
92.78306,92.95845,57,27,0
92.78306,92.95845,54,27,0
92.96768,93.14308,50,27,0
92.96768,93.14308,59,34,0
92.96768,93.14308,57,27,0
92.96768,93.14308,54,27,0
93.15231,94.275764,50,32,0
93.15231,94.275764,59,40,0
93.15231,94.275764,57,32,0
93.15231,94.275764,54,32,0
94.275764,94.626015,51,71,0
94.275764,94.626015,39,60,0
94.64445,94.78552,51,46,0
94.64445,94.78552,57,46,0
94.64445,94.78552,59,55,0
94.64445,94.78552,54,46,0
94.83255,95.18485,59,64,0
94.83255,95.18485,51,45,0
94.83255,95.18485,57,45,0
94.83255,95.18485,54,45,0
95.203094,95.29957,51,47,0
95.203094,95.29957,59,56,0
95.203094,95.29957,57,47,0
95.203094,95.29957,54,47,0
95.396034,95.746284,59,71,0
95.396034,95.746284,50,60,0
95.396034,95.76472,52,60,0
95.396034,95.76472,56,60,0
95.76472,95.90579,50,46,0
95.76472,95.90579,56,46,0
95.76472,95.90579,59,55,0
95.76472,95.90579,52,46,0
95.95282,96.31662,59,64,0
95.95282,96.31662,50,45,0
95.95282,96.31662,56,45,0
95.95282,96.31662,52,45,0
96.33614,96.44431,50,58,0
96.33614,96.44431,59,70,0
96.33614,96.44431,56,58,0
96.33614,96.44431,52,58,0
96.55248,96.89102,61,68,0
96.55248,96.89102,57,57,0
96.55248,96.89102,52,57,0
96.55248,96.89102,49,57,0
96.908844,96.99793,61,62,0
96.908844,96.99793,49,51,0
96.908844,96.99793,52,51,0
96.908844,96.99793,57,51,0
97.08702,97.44891,61,62,0
97.08702,97.44891,49,51,0
97.08702,97.44891,52,51,0
97.08702,97.44891,57,51,0
97.62709,97.71443,47,54,0
97.62709,97.71443,38,46,0
97.62709,97.71443,45,46,0
97.80177,97.89086,45,40,0
97.80177,97.89086,47,49,0
97.80177,97.89086,38,40,0
97.97995,98.06904,47,49,0
97.97995,98.06904,45,39,0
97.97995,98.06904,38,39,0
98.15813,98.24722,47,53,0
98.15813,98.24722,38,45,0
98.15813,98.24722,45,45,0
98.33631,98.4254,45,39,0
98.33631,98.4254,47,48,0
98.33631,98.4254,38,39,0
98.51449,98.60358,47,47,0
98.51449,98.60358,45,38,0
98.51449,98.60358,38,38,0
98.692665,98.78175,47,51,0
98.692665,98.78175,38,44,0
98.692665,98.78175,45,44,0
98.87085,98.95994,45,36,0
98.87085,98.95994,47,45,0
98.87085,98.95994,38,36,0
99.04903,99.138115,47,44,0
99.04903,99.138115,45,35,0
99.04903,99.138115,38,35,0
99.2272,99.31629,47,47,0
99.2272,99.31629,38,41,0
99.2272,99.31629,45,41,0
99.40538,99.49448,45,34,0
99.40538,99.49448,47,42,0
99.40538,99.49448,38,34,0
99.583565,99.67769,47,41,0
99.583565,99.67769,45,33,0
99.583565,99.67769,38,33,0
99.77181,99.85915,49,44,0
99.77181,99.85915,40,37,0
99.77181,99.85915,45,37,0
99.946495,100.034996,49,38,0
99.946495,100.034996,40,31,0
99.946495,100.034996,45,31,0
100.1235,100.212,49,38,0
100.1235,100.212,40,30,0
100.1235,100.212,45,30,0
100.3005,100.389,47,40,0
100.3005,100.389,40,34,0
100.4775,100.56936,47,35,0
100.4775,100.56936,40,29,0
100.66122,100.75773,40,35,0
100.66122,100.75773,38,28,0
100.85424,101.22292,45,28,0
100.85424,101.22292,40,28,0
100.85424,101.22292,37,28,0
101.59161,101.683784,33,26,0
101.59161,101.683784,45,31,0
101.775955,101.86971,33,22,0
101.775955,101.86971,45,27,0
101.96346,102.33159,38,28,0
101.96346,102.33159,45,34,0
102.69971,102.79174,33,28,0
102.69971,102.79174,45,34,0
102.883766,102.97811,33,27,0
102.883766,102.97811,45,32,0
103.07246,103.44058,38,38,0
103.07246,103.44058,45,45,0
103.81157,103.903595,49,38,0
103.81157,103.903595,56,45,0
103.99563,104.08766,56,47,0
103.99563,104.08766,49,39,0
104.17969,104.54781,57,59,0
104.17969,104.54781,54,49,0
104.91764,105.009674,52,42,0
104.91764,105.009674,59,50,0
105.1017,105.19373,59,52,0
105.1017,105.19373,52,44,0
105.28576,105.65168,61,66,0
105.28576,105.65168,57,55,0
106.01627,106.10831,52,45,0
106.01627,106.10831,57,52,0
106.01627,106.10831,49,45,0
106.20033,106.292366,57,55,0
106.20033,106.292366,52,46,0
106.20033,106.292366,49,46,0
106.3844,106.74948,58,70,0
106.3844,106.74948,52,58,0
106.3844,106.74948,49,58,0
107.1129,107.20465,52,47,0
107.1129,107.20465,58,56,0
107.1129,107.20465,49,47,0
107.296394,107.388145,58,58,0
107.296394,107.388145,52,49,0
107.296394,107.388145,49,49,0
107.4799,107.84465,59,73,0
107.4799,107.84465,54,60,0
107.4799,107.84465,50,60,0
108.20801,108.29976,54,50,0
108.20801,108.29976,57,50,0
108.20801,108.29976,50,50,0
108.20801,108.29976,59,58,0
108.3915,108.48325,59,61,0
108.3915,108.48325,57,51,0
108.3915,108.48325,50,51,0
108.3915,108.48325,54,51,0
108.575005,108.94073,60,77,0
108.575005,108.94073,57,64,0
108.575005,108.94073,51,64,0
108.575005,108.94073,54,64,0
109.30403,109.3955,54,52,0
109.30403,109.3955,57,52,0
109.30403,109.3955,51,52,0
109.30403,109.3955,60,62,0
109.48697,109.57844,60,64,0
109.48697,109.57844,57,54,0
109.48697,109.57844,51,54,0
109.48697,109.57844,54,54,0
109.66991,110.034035,61,81,0
109.66991,110.034035,52,67,0
109.66991,110.034035,57,67,0
110.488,110.55567,57,73,0
110.488,110.55567,49,61,0
110.57823,110.72224,49,61,0
110.57823,110.72224,57,73,0
110.77024,110.95458,57,73,0
110.77024,110.95458,49,63,0
110.95458,111.13892,52,57,0
110.95458,111.13892,59,69,0
111.13892,111.23544,61,69,0
111.13892,111.23544,57,57,0
111.331955,111.70064,61,75,0
111.331955,111.70064,57,64,0
111.70064,111.8389,61,73,0
111.70064,111.8389,57,63,0
111.88498,112.06933,61,78,0
111.88498,112.06933,57,66,0
112.06933,112.25367,59,63,0
112.06933,112.25367,62,73,0
112.25367,112.3488,64,73,0
112.25367,112.3488,61,63,0
112.44394,112.62828,64,78,0
112.44394,112.62828,61,66,0
112.62828,112.81262,59,63,0
112.62828,112.81262,62,73,0
112.81262,112.90776,61,73,0
112.81262,112.90776,57,63,0
113.0029,113.74619,59,78,0
113.0029,113.74619,56,66,0
113.0029,113.74619,52,66,0
113.74619,113.83836,56,63,0
113.74619,113.83836,59,73,0
113.74619,113.83836,52,63,0
113.93054,114.02567,59,73,0
113.93054,114.02567,56,63,0
113.93054,114.02567,52,63,0
114.12081,114.489494,59,78,0
114.12081,114.489494,56,66,0
114.12081,114.489494,52,66,0
114.67976,114.86411,40,78,0
114.67976,114.86411,28,75,0
114.974266,115.04194,57,73,0
114.974266,115.04194,49,61,0
115.0645,115.2085,49,61,0
115.0645,115.2085,57,73,0
115.25651,115.44085,57,73,0
115.25651,115.44085,49,63,0
115.44085,115.6252,52,57,0
115.44085,115.6252,59,69,0
115.6252,115.72171,61,69,0
115.6252,115.72171,57,57,0
115.81822,116.186905,61,75,0
115.81822,116.186905,57,64,0
116.186905,116.325165,61,73,0
116.186905,116.325165,57,63,0
116.371254,116.555595,61,78,0
116.371254,116.555595,57,66,0
116.555595,116.73994,59,63,0
116.555595,116.73994,62,73,0
116.73994,116.835075,64,73,0
116.73994,116.835075,61,63,0
116.93021,117.11455,64,78,0
116.93021,117.11455,61,66,0
117.11455,117.2989,59,63,0
117.11455,117.2989,62,73,0
117.2989,117.39403,61,73,0
117.2989,117.39403,57,63,0
117.48917,118.23247,59,78,0
117.48917,118.23247,56,66,0
117.48917,118.23247,52,66,0
118.23247,118.32464,56,63,0
118.23247,118.32464,59,73,0
118.23247,118.32464,52,63,0
118.41681,118.51194,59,73,0
118.41681,118.51194,56,63,0
118.41681,118.51194,52,63,0
118.60708,118.97576,59,78,0
118.60708,118.97576,56,66,0
118.60708,118.97576,52,66,0
119.16604,119.35038,45,78,0
119.16604,119.35038,33,75,0
119.45406,119.521736,57,73,0
119.45406,119.521736,49,61,0
119.5443,119.6883,49,61,0
119.5443,119.6883,57,73,0
119.736305,119.92065,57,73,0
119.736305,119.92065,49,63,0
119.92065,120.104996,52,57,0
119.92065,120.104996,59,69,0
120.104996,120.20151,61,69,0
120.104996,120.20151,57,57,0
120.29802,120.6667,61,75,0
120.29802,120.6667,57,64,0
120.6667,120.80496,61,73,0
120.6667,120.80496,57,63,0
120.85104,121.03539,61,78,0
120.85104,121.03539,57,66,0
121.03539,121.219734,59,63,0
121.03539,121.219734,62,73,0
121.219734,121.312805,64,73,0
121.219734,121.312805,61,63,0
121.40587,121.691895,64,78,0
121.40587,121.691895,61,78,0
121.691895,121.79179,66,68,0
121.691895,121.79179,62,68,0
121.79179,122.03133,66,64,0
121.79179,122.03133,62,64,0
122.03133,123.131096,57,51,0
122.03133,123.131096,66,51,0
122.03133,123.131096,69,61,0
123.131096,123.49769,57,47,0
123.131096,123.49769,62,47,0
123.131096,123.49769,66,56,0
123.86428,124.03841,62,41,0
123.86428,124.03841,66,49,0
124.04758,124.23481,62,41,0
124.04758,124.23481,66,49,0
124.24514,125.16161,69,61,0
124.24514,125.16161,66,51,0
124.24514,125.16161,57,51,0
125.16161,125.3599,62,39,0
125.16161,125.3599,66,46,0
125.3599,125.90978,57,45,0
125.3599,126.09308,69,54,0
125.3599,126.09308,66,45,0
126.09308,126.276375,68,42,0
126.09308,126.276375,64,39,0
126.276375,126.45967,62,35,0
126.276375,126.45967,66,41,0
126.45967,126.82626,64,37,0
126.45967,126.82626,61,31,0
126.45967,126.82626,57,31,0
127.011826,127.55471,74,40,0
127.011826,127.55471,68,29,0
127.55471,127.9213,73,37,0
127.55471,127.9213,69,31,0
128.10687,128.65027,71,44,0
128.10687,128.65027,62,31,0
128.10687,128.65027,68,31,0
128.65027,129.20186,69,37,0
128.65027,129.20186,64,31,0
128.65027,129.20186,61,31,0
129.20186,129.74414,62,42,0
129.20186,129.74414,56,30,0
129.74414,130.2946,61,35,0
129.74414,130.2946,57,30,0
130.2946,130.47142,62,38,0
130.2946,130.47142,52,27,0
130.29976,130.47675,56,27,0
130.8369,131.01964,61,34,0
130.79121,131.01964,52,29,0
130.74553,131.01964,45,29,0
131.56784,131.70164,73,36,0
131.56784,131.70164,69,26,0
131.74623,131.8824,73,26,0
131.74623,131.8824,69,26,0
131.92938,132.29485,73,33,0
131.92938,132.29485,69,27,0
132.66032,132.79333,69,35,0
132.66032,132.79333,61,25,0
132.83766,132.97316,69,25,0
132.83766,132.97316,61,25,0
133.01999,133.38545,69,32,0
133.01999,133.38545,61,26,0
133.75093,133.88634,61,34,0
133.75093,133.88634,57,24,0
133.93147,134.06938,61,24,0
133.93147,134.06938,57,24,0
134.11621,134.48169,61,31,0
134.11621,134.48169,57,26,0
134.66443,135.02977,59,48,0
134.66443,135.02977,52,41,0
135.2092,135.40315,49,51,0
135.2092,135.40315,57,56,0
136.27599,136.51843,69,25,0
136.2275,136.56693,61,25,0
136.27599,136.56693,64,25,0
136.37297,136.56693,73,39,0
137.53673,137.63371,33,28,0
137.53673,137.63371,45,33,0
