start_time,end_time,note_value,velocity,instrument_program_number
4.42061,5.052721,69,51,0
5.052721,5.672556,68,57,0
5.672556,6.30788,66,48,0
6.30788,6.926196,64,48,0
6.9710636,7.5915666,76,69,0
7.5915666,8.213616,75,68,0
8.213616,8.845728,73,56,0
8.845728,9.452349,71,52,0
9.495506,10.127618,73,61,0
10.127618,10.759728,69,62,0
10.759728,11.075784,71,52,0
11.075784,11.39184,66,47,0
11.39184,11.698745,68,52,0
11.698745,11.7781105,69,50,0
11.7781105,11.857475,68,39,0
11.857475,11.93684,66,42,0
11.93684,12.020639,68,34,0
12.020639,12.339788,71,52,0
12.339788,12.665875,69,52,0
12.665875,13.998641,68,52,0
13.998641,14.331272,66,48,0
14.663903,15.297573,69,51,0
15.297573,15.919349,68,57,0
15.919349,16.554672,66,48,0
16.554672,17.172989,64,48,0
17.217855,17.837692,76,70,0
17.837692,18.457527,75,71,0
18.457527,19.089638,73,54,0
19.089638,19.689772,71,64,0
19.731789,20.404057,80,78,0
20.404057,22.393024,73,67,0
22.407104,23.097631,80,54,0
23.097631,25.21563,73,47,0
25.230175,25.867867,73,61,0
25.881094,26.512688,73,62,0
26.512688,27.144266,76,57,0
27.144266,27.788012,75,50,0
27.788012,28.115486,73,50,0
28.115486,28.458693,68,43,0
28.458693,29.797613,71,49,0
29.797613,31.128138,70,44,0
31.128138,32.467056,69,43,0
32.467056,32.79969,68,36,0
33.13232,33.76443,68,63,0
33.76443,34.39654,70,70,0
34.39654,35.028652,71,81,0
35.028652,35.67391,75,89,0
35.67391,36.165123,73,75,0
36.165123,36.329636,71,67,0
36.344593,37.68351,71,80,0
38.348774,38.980885,69,51,0
38.980885,39.60072,68,57,0
39.60072,40.236042,66,48,0
40.236042,40.848785,64,48,0
40.891796,41.521954,76,66,0
41.521954,42.144,75,62,0
42.144,42.77611,73,52,0
42.77611,43.382732,71,52,0
43.42589,44.058002,73,61,0
44.058002,44.690113,69,62,0
44.690113,45.00617,71,52,0
45.00617,45.322224,66,47,0
45.322224,45.62913,68,52,0
45.62913,45.708496,69,50,0
45.708496,45.78786,68,39,0
45.78786,45.867226,66,42,0
45.867226,45.951027,68,34,0
45.951027,46.270176,71,52,0
46.270176,46.59626,69,52,0
46.59626,47.93482,68,52,0
47.93482,48.267452,66,48,0
48.600082,49.233753,69,51,0
49.233753,49.855526,68,57,0
49.855526,50.490852,66,48,0
50.490852,51.10917,64,48,0
51.154034,51.797882,76,70,0
51.797882,52.412067,75,71,0
52.412067,53.04418,73,54,0
53.04418,53.644314,71,64,0
53.68633,54.3586,80,78,0
54.3586,56.31941,73,67,0
56.361645,57.052174,80,54,0
57.052174,59.141083,73,47,0
59.184715,59.82241,73,56,0
59.835636,60.46723,73,62,0
60.46723,61.09881,76,57,0
61.09881,61.742554,75,51,0
61.742554,62.07003,73,50,0
62.07003,62.413235,68,44,0
62.413235,63.752155,71,50,0
63.752155,65.08268,70,44,0
65.08268,66.4216,69,43,0
66.4216,66.754234,68,36,0
67.08686,67.71897,68,63,0
67.71897,68.35108,70,70,0
68.35108,68.98319,71,81,0
68.98319,69.628456,75,89,0
69.628456,70.11967,73,75,0
70.11967,70.28418,71,67,0
70.29913,71.638054,71,80,0
72.303314,72.52677,66,51,0
72.60126,72.836395,66,51,0
72.91477,73.53461,67,57,0
73.53461,73.85227,66,50,0
73.85227,74.16993,64,51,0
74.16993,74.788246,69,53,0
74.833115,75.055466,69,65,0
75.129585,75.36109,69,64,0
75.439125,76.05896,71,75,0
76.05896,76.376625,69,61,0
76.376625,76.69428,67,63,0
76.69428,77.3126,72,69,0
77.35747,77.58546,72,78,0
77.66145,77.89635,72,72,0
77.97592,78.59576,74,86,0
78.59576,78.913414,72,72,0
78.913414,79.24628,71,74,0
79.24628,79.86459,79,86,0
79.90946,80.21938,78,85,0
80.21938,80.52997,76,70,0
80.52997,81.13705,74,81,0
81.17818,81.798676,74,74,0
81.798676,81.95574,74,68,0
81.95574,82.112816,78,64,0
82.112816,82.26988,81,69,0
82.26988,82.42695,84,69,0
82.42695,82.584015,83,74,0
82.584015,82.74108,81,66,0
82.74108,82.898155,79,70,0
82.898155,83.05522,78,65,0
83.05522,83.21363,76,70,0
83.21363,83.37205,75,64,0
83.37205,83.84728,78,70,0
83.84728,84.00569,76,66,0
84.00569,84.1641,74,64,0
84.1641,84.32252,72,58,0
84.32252,84.48344,71,64,0
84.48344,84.644394,69,57,0
84.644394,84.80536,68,61,0
84.80536,84.96695,69,50,0
84.96695,85.13829,68,46,0
85.13829,85.225555,69,46,0
85.31359,85.41139,71,46,0
85.509186,85.62336,72,41,0
85.72496,86.344795,74,50,0
86.344795,86.98012,71,46,0
86.98012,87.598434,69,46,0
87.6433,88.26381,76,56,0
88.26381,88.88586,74,57,0
88.88586,89.51797,71,48,0
89.51797,90.12459,69,48,0
90.16775,90.4838,71,56,0
90.4838,90.79986,72,49,0
90.79986,90.94883,71,57,0
91.10039,91.40974,71,47,0
91.40974,91.72579,74,54,0
91.72579,92.00234,71,48,0
92.04185,92.3582,71,53,0
92.3582,92.69163,69,48,0
92.69163,93.017044,67,40,0
93.017044,93.36115,69,40,0
93.36115,96.23292,71,47,0
96.23292,96.5619,71,35,0
96.5619,96.904015,74,40,0
96.904015,97.20336,71,36,0
97.246124,97.56693,71,39,0
97.56693,97.92332,69,36,0
97.92332,98.28833,67,30,0
98.28833,98.67033,69,30,0
98.67033,100.71279,71,35,0
100.71279,101.365746,70,49,0
101.365746,102.6369,71,57,0
103.28668,103.93053,72,54,0
103.93053,105.20648,71,57,0
105.85626,106.48837,69,71,0
106.48837,107.10821,68,79,0
107.10821,107.74353,66,67,0
107.74353,108.36185,64,67,0
108.406715,109.027214,76,78,0
109.027214,109.64927,75,79,0
109.64927,110.28138,73,67,0
110.28138,110.888,71,67,0
110.93116,111.56327,73,78,0
111.56327,111.879326,69,79,0
111.879326,112.19538,73,75,0
112.19538,112.51144,71,67,0
112.51144,112.82749,66,60,0
112.82749,113.09603,68,67,0
113.1344,113.45629,68,57,0
113.45629,113.77544,71,67,0
113.77544,114.101524,69,57,0
114.101524,115.434296,68,67,0
115.434296,115.76692,66,61,0
116.099556,116.41561,68,51,0
116.41561,116.74032,69,45,0
116.74032,117.36015,71,57,0
117.36015,117.995476,68,48,0
117.995476,118.61379,66,48,0
118.65866,119.27917,73,56,0
119.27917,119.901215,71,57,0
119.901215,120.533325,68,48,0
120.533325,121.139946,66,49,0
121.183105,121.80361,76,64,0
121.80361,122.42566,76,60,0
122.42566,123.360825,71,52,0
123.37412,123.696014,71,56,0
123.696014,124.01517,73,62,0
124.01517,124.34125,71,61,0
124.34125,125.67402,69,55,0
125.67402,126.006645,68,53,0
126.006645,126.32685,66,60,0
126.32685,126.63553,68,61,0
126.63553,126.966324,69,61,0
126.966324,127.58616,71,68,0
127.58616,128.22202,68,59,0
128.22202,128.84575,66,60,0
128.89062,129.51112,73,71,0
129.51112,130.13318,71,73,0
130.13318,130.76529,68,62,0
130.76529,131.3719,66,63,0
131.41507,132.03557,76,75,0
132.03557,132.65762,75,77,0
132.65762,133.28973,73,66,0
133.28973,133.60608,71,69,0
133.60608,133.92798,75,70,0
133.92798,134.24713,78,75,0
134.24713,134.57321,81,77,0
134.57321,134.89929,80,75,0
134.89929,135.22539,75,63,0
135.22539,135.55455,78,71,0
135.55455,135.90598,76,64,0
135.90598,136.2386,75,63,0
136.2386,136.57124,73,54,0
136.57124,136.90387,69,59,0
136.90387,137.2365,66,51,0
137.2365,138.56703,64,63,0
138.56703,139.88388,63,44,0
139.88388,141.22946,62,43,0
141.22946,141.56209,61,36,0
141.89471,142.52682,61,56,0
142.52682,143.15894,63,58,0
143.15894,143.79105,64,65,0
143.79105,144.43631,68,70,0
144.43631,144.92752,66,63,0
144.92752,145.09204,64,53,0
145.107,146.4459,64,66,0
147.11118,147.76413,62,49,0
147.76413,149.03528,61,55,0
149.68506,150.33801,60,42,0
150.33801,151.60918,59,47,0
152.25896,152.5953,68,36,0
152.5953,152.93167,66,35,0
152.93167,154.21951,64,39,0
154.8773,155.56154,68,34,0
155.56154,156.89291,64,38,0
156.90689,158.50124,64,38,0
158.52649,163.37595,64,26,0
158.52649,163.37595,56,19,0
0.0,0.16013938,47,28,0
0.16013938,0.31937617,52,20,0
0.31937617,0.4773764,56,21,0
0.4773764,0.63405585,59,20,0
0.63405585,0.7896245,47,26,0
0.7896245,0.9458347,52,20,0
0.9458347,1.10313,56,21,0
1.10313,1.2614217,59,19,0
1.2614217,1.4207218,47,28,0
1.4207218,1.5794948,52,21,0
1.5794948,1.7371622,56,21,0
1.7371622,1.8938417,59,20,0
1.8938417,2.0495453,47,27,0
2.0495453,2.2057555,52,23,0
2.2057555,2.363051,56,22,0
2.363051,2.5210793,59,20,0
2.5210793,2.6781473,47,31,0
2.6781473,2.8344996,51,23,0
2.8344996,2.9902637,57,23,0
2.9902637,3.1454506,59,23,0
3.1454506,3.3005037,47,30,0
3.3005037,3.456586,51,23,0
3.456586,3.613881,57,23,0
3.613881,3.772312,59,22,0
3.772312,3.9343865,47,32,0
3.9343865,4.096461,51,25,0
4.096461,4.2585354,54,26,0
4.2585354,4.42061,59,29,0
4.42061,4.5786376,47,31,0
4.5786376,4.7366657,51,26,0
4.7366657,4.8946934,54,32,0
4.8946934,5.052721,59,34,0
5.052721,5.2076797,47,40,0
5.2076797,5.3626385,52,26,0
5.3626385,5.517597,56,26,0
5.517597,5.672556,59,25,0
5.672556,5.831387,47,32,0
5.831387,5.990218,51,25,0
5.990218,6.149049,57,25,0
6.149049,6.30788,59,23,0
6.30788,6.469118,47,33,0
6.469118,6.6303563,52,27,0
6.6303563,6.791595,56,34,0
6.791595,6.9710636,59,44,0
6.9710636,7.1260223,54,53,0
7.1260223,7.280981,61,31,0
7.280981,7.43594,64,39,0
7.43594,7.5915666,66,23,0
7.5915666,7.7483416,54,35,0
7.7483416,7.9042673,59,26,0
7.9042673,8.059354,63,26,0
8.059354,8.213616,66,25,0
8.213616,8.371644,54,32,0
8.371644,8.529673,58,25,0
8.529673,8.6877,64,25,0
8.6877,8.845728,66,23,0
8.845728,9.003275,54,33,0
9.003275,9.162079,59,27,0
9.162079,9.322875,63,33,0
9.322875,9.495506,66,40,0
9.495506,9.653534,56,46,0
9.653534,9.811563,59,26,0
9.811563,9.96959,61,25,0
9.96959,10.127618,68,23,0
10.2856455,10.443673,57,26,0
10.443673,10.601701,61,26,0
10.601701,10.759728,64,25,0
10.759728,10.917756,54,32,0
10.917756,11.075784,57,25,0
11.075784,11.233812,59,25,0
11.233812,11.39184,63,23,0
11.545292,11.698745,56,25,0
11.698745,11.857475,59,25,0
11.857475,12.020639,64,24,0
12.020639,12.180214,52,31,0
12.180214,12.339788,54,26,0
12.339788,12.502831,61,25,0
12.502831,12.665875,64,23,0
12.665875,12.828918,52,35,0
12.828918,12.991962,56,26,0
12.991962,13.155005,59,26,0
13.155005,13.318049,64,25,0
13.318049,13.482632,52,32,0
13.482632,13.647213,56,25,0
13.647213,13.811795,59,25,0
13.811795,13.998641,64,23,0
13.998641,14.164957,51,29,0
14.164957,14.331272,54,25,0
14.331272,14.497588,59,25,0
14.497588,14.663903,63,24,0
14.663903,14.824135,47,31,0
14.824135,14.983252,54,27,0
14.983252,15.141017,57,29,0
15.141017,15.297573,59,32,0
15.297573,15.453028,47,40,0
15.453028,15.608468,52,26,0
15.608468,15.763908,56,29,0
15.763908,15.919349,59,31,0
15.919349,16.07818,47,38,0
16.07818,16.237011,51,25,0
16.237011,16.395842,57,30,0
16.395842,16.554672,59,26,0
16.554672,16.715912,47,33,0
16.715912,16.87715,52,29,0
16.87715,17.038387,56,31,0
17.038387,17.217855,59,36,0
17.217855,17.372814,54,42,0
17.372814,17.527773,61,30,0
17.527773,17.682734,64,32,0
17.682734,17.837692,66,29,0
17.837692,17.992651,54,35,0
17.992651,18.14761,59,26,0
18.14761,18.302568,63,26,0
18.302568,18.457527,66,25,0
18.457527,18.615555,54,32,0
18.615555,18.773582,58,25,0
18.773582,18.93161,64,25,0
18.93161,19.089638,66,23,0
19.089638,19.247665,54,33,0
19.247665,19.405693,59,38,0
19.405693,19.56372,63,39,0
19.56372,19.731789,66,48,0
19.731789,19.899855,59,54,0
19.899855,20.067923,61,35,0
20.067923,20.23599,68,40,0
20.23599,20.404057,71,33,0
20.404057,20.567795,59,42,0
20.567795,20.731531,61,29,0
20.731531,20.89527,68,29,0
20.89527,21.059008,71,29,0
21.059008,21.227074,59,38,0
21.227074,21.395142,61,26,0
21.395142,21.56321,68,26,0
21.56321,21.731276,71,26,0
21.731276,21.900232,59,35,0
21.900232,22.06919,61,27,0
22.06919,22.238148,68,27,0
22.238148,22.407104,71,27,0
22.407104,22.579737,59,35,0
22.579737,22.752367,61,18,0
22.752367,22.925,68,19,0
22.925,23.097631,71,20,0
23.097631,23.273132,59,29,0
23.273132,23.448633,61,20,0
23.448633,23.624132,68,20,0
23.624132,23.799633,71,20,0
23.799633,23.980356,59,26,0
23.980356,24.16108,61,18,0
24.16108,24.341803,68,18,0
24.341803,24.532013,71,18,0
24.532013,24.706553,59,24,0
24.706553,24.881094,61,18,0
24.881094,25.055634,68,18,0
25.055634,25.230175,71,18,0
25.230175,25.39607,59,31,0
25.39607,25.559933,61,26,0
25.559933,25.721588,68,25,0
25.721588,25.881094,71,23,0
25.881094,26.039003,58,29,0
26.039003,26.196898,61,25,0
26.196898,26.354792,66,29,0
26.354792,26.512688,70,25,0
26.512688,26.670582,54,32,0
26.670582,26.828476,61,25,0
26.828476,26.986372,64,25,0
26.986372,27.144266,66,23,0
27.144266,27.299225,54,29,0
27.299225,27.454184,59,25,0
27.454184,27.613813,63,25,0
27.613813,27.788012,66,24,0
27.95175,28.115486,56,26,0
28.115486,28.279224,61,25,0
28.279224,28.458693,64,23,0
28.623276,28.787857,59,26,0
28.787857,28.95244,63,26,0
28.95244,29.117022,66,25,0
29.117022,29.281603,54,32,0
29.281603,29.446186,59,25,0
29.446186,29.610767,63,25,0
29.610767,29.797613,66,23,0
29.797613,29.963928,54,29,0
29.963928,30.130245,61,31,0
30.130245,30.29656,64,38,0
30.29656,30.462875,66,44,0
30.462875,30.62919,54,49,0
30.62919,30.795506,61,33,0
30.795506,30.961823,64,41,0
30.961823,31.128138,66,31,0
31.128138,31.292719,54,32,0
31.292719,31.457302,60,26,0
31.457302,31.621883,63,30,0
31.621883,31.786465,66,38,0
31.786465,31.951048,54,41,0
31.951048,32.11563,60,25,0
32.11563,32.280212,63,25,0
32.280212,32.467056,66,23,0
32.467056,32.633373,52,29,0
32.633373,32.79969,56,25,0
32.79969,32.966003,61,25,0
32.966003,33.11846,64,24,0
33.13232,33.290348,52,31,0
33.290348,33.448376,56,30,0
33.448376,33.606403,61,33,0
33.606403,33.76443,64,38,0
33.76443,33.92246,52,45,0
33.92246,34.080486,58,30,0
34.080486,34.238514,64,32,0
34.238514,34.39654,66,41,0
34.39654,34.55457,52,46,0
34.55457,34.712597,59,33,0
34.712597,34.870625,64,43,0
34.870625,35.028652,66,53,0
35.028652,35.18437,54,58,0
35.18437,35.34008,61,40,0
35.34008,35.49971,64,46,0
35.49971,35.67391,66,38,0
35.67391,35.837646,54,40,0
35.837646,36.001385,58,32,0
36.001385,36.165123,64,31,0
36.165123,36.344593,66,28,0
36.344593,36.509174,54,36,0
36.509174,36.673756,59,32,0
36.673756,36.838337,63,32,0
36.838337,37.00292,66,31,0
37.00292,37.1675,54,40,0
37.1675,37.332085,59,31,0
37.332085,37.496666,63,31,0
37.496666,37.68351,66,28,0
37.68351,37.849827,51,36,0
37.849827,38.016144,54,31,0
38.016144,38.182457,59,31,0
38.182457,38.348774,63,30,0
38.348774,38.5068,47,31,0
38.5068,38.66483,51,26,0
38.66483,38.822857,54,32,0
38.822857,38.980885,59,34,0
38.980885,39.13584,47,40,0
39.13584,39.290802,52,26,0
39.290802,39.44576,56,26,0
39.44576,39.60072,59,25,0
39.60072,39.759552,47,32,0
39.759552,39.91838,51,25,0
39.91838,40.077213,57,25,0
40.077213,40.236042,59,23,0
40.236042,40.39728,47,33,0
40.39728,40.55852,52,27,0
40.55852,40.719757,56,34,0
40.719757,40.891796,59,44,0
40.891796,41.049377,54,53,0
41.049377,41.206955,61,31,0
41.206955,41.364536,64,39,0
41.364536,41.521954,66,23,0
41.521954,41.678726,54,35,0
41.678726,41.834652,59,26,0
41.834652,41.98974,63,26,0
41.98974,42.144,66,25,0
42.144,42.30203,54,32,0
42.30203,42.460056,58,25,0
42.460056,42.618084,64,25,0
42.618084,42.77611,66,23,0
42.77611,42.933662,54,33,0
42.933662,43.092464,59,27,0
43.092464,43.25326,63,33,0
43.25326,43.42589,66,40,0
43.42589,43.58392,56,46,0
43.58392,43.741947,59,26,0
43.741947,43.899975,61,25,0
43.899975,44.058002,68,23,0
44.21603,44.374058,57,26,0
44.374058,44.532085,61,26,0
44.532085,44.690113,64,25,0
44.690113,44.84814,54,32,0
44.84814,45.00617,57,25,0
45.00617,45.164196,59,25,0
45.164196,45.322224,63,23,0
45.475677,45.62913,56,25,0
45.62913,45.78786,59,25,0
45.78786,45.951027,64,24,0
45.951027,46.1106,52,31,0
46.1106,46.270176,54,26,0
46.270176,46.433216,61,25,0
46.433216,46.59626,64,23,0
46.59626,46.760754,52,35,0
46.760754,46.925243,56,26,0
46.925243,47.089737,59,26,0
47.089737,47.254227,64,25,0
47.254227,47.41881,52,32,0
47.41881,47.583393,56,25,0
47.583393,47.747974,59,25,0
47.747974,47.93482,64,23,0
47.93482,48.101135,51,29,0
48.101135,48.267452,54,25,0
48.267452,48.433765,59,25,0
48.433765,48.600082,63,24,0
48.600082,48.760315,47,31,0
48.760315,48.91943,54,27,0
48.91943,49.077194,57,29,0
49.077194,49.233753,59,32,0
49.233753,49.389206,47,40,0
49.389206,49.544647,52,26,0
49.544647,49.70009,56,29,0
49.70009,49.855526,59,31,0
49.855526,50.01436,47,38,0
50.01436,50.17319,51,25,0
50.17319,50.33202,57,30,0
50.33202,50.490852,59,26,0
50.490852,50.65209,47,33,0
50.65209,50.813328,52,29,0
50.813328,50.974567,56,31,0
50.974567,51.154034,59,36,0
51.154034,51.314995,54,42,0
51.314995,51.47596,61,30,0
51.47596,51.63692,64,32,0
51.63692,51.797882,66,29,0
51.797882,51.951427,54,35,0
51.951427,52.104977,59,26,0
52.104977,52.258522,63,26,0
52.258522,52.412067,66,25,0
52.412067,52.570095,54,32,0
52.570095,52.728123,58,25,0
52.728123,52.886154,64,25,0
52.886154,53.04418,66,23,0
53.04418,53.20221,54,33,0
53.20221,53.360237,59,38,0
53.360237,53.518265,63,39,0
53.518265,53.68633,66,48,0
53.68633,53.854397,59,54,0
53.854397,54.022465,61,35,0
54.022465,54.190533,68,40,0
54.190533,54.3586,71,33,0
54.3586,54.52234,59,42,0
54.52234,54.686073,61,29,0
54.686073,54.84981,68,29,0
54.84981,55.01355,71,29,0
55.01355,55.181618,59,38,0
55.181618,55.349686,61,26,0
55.349686,55.51775,68,26,0
55.51775,55.685818,71,26,0
55.685818,55.854774,59,35,0
55.854774,56.02373,61,27,0
56.02373,56.192688,68,27,0
56.192688,56.361645,71,27,0
56.361645,56.53428,59,35,0
56.53428,56.70691,61,18,0
56.70691,56.879543,68,19,0
56.879543,57.052174,71,20,0
57.052174,57.227676,59,29,0
57.227676,57.403175,61,20,0
57.403175,57.578674,68,20,0
57.578674,57.754177,71,20,0
57.754177,57.9349,59,26,0
57.9349,58.11562,61,18,0
58.11562,58.296345,68,18,0
58.296345,58.486553,71,18,0
58.486553,58.661095,59,24,0
58.661095,58.835636,61,18,0
58.835636,59.010178,68,18,0
59.010178,59.184715,71,18,0
59.184715,59.350613,59,31,0
59.350613,59.514477,61,26,0
59.514477,59.676132,68,25,0
59.676132,59.835636,71,23,0
59.835636,59.993546,58,29,0
59.993546,60.15144,61,25,0
60.15144,60.309334,66,29,0
60.309334,60.46723,70,25,0
60.46723,60.625126,54,32,0
60.625126,60.78302,61,25,0
60.78302,60.940914,64,25,0
60.940914,61.09881,66,23,0
61.09881,61.25377,54,29,0
61.25377,61.408726,59,25,0
61.408726,61.568356,63,25,0
61.568356,61.742554,66,24,0
61.906292,62.07003,56,26,0
62.07003,62.23377,61,25,0
62.23377,62.413235,64,23,0
62.57782,62.7424,59,26,0
62.7424,62.906982,63,26,0
62.906982,63.071564,66,25,0
63.071564,63.236145,54,32,0
63.236145,63.400726,59,25,0
63.400726,63.56531,63,25,0
63.56531,63.752155,66,23,0
63.752155,63.918472,54,29,0
63.918472,64.084785,61,31,0
64.084785,64.25111,64,38,0
64.25111,64.41742,66,44,0
64.41742,64.58373,54,49,0
64.58373,64.750046,61,33,0
64.750046,64.91637,64,41,0
64.91637,65.08268,66,31,0
65.08268,65.24726,54,32,0
65.24726,65.41184,60,26,0
65.41184,65.57642,63,30,0
65.57642,65.741005,66,38,0
65.741005,65.90559,54,41,0
65.90559,66.070175,60,25,0
66.070175,66.23476,63,25,0
66.23476,66.4216,66,23,0
66.4216,66.58791,52,29,0
66.58791,66.754234,56,25,0
66.754234,66.92055,61,25,0
66.92055,67.073006,64,24,0
67.08686,67.24489,52,31,0
67.24489,67.402916,56,30,0
67.402916,67.56094,61,33,0
67.56094,67.71897,64,38,0
67.71897,67.877,52,45,0
67.877,68.03503,58,30,0
68.03503,68.193054,64,32,0
68.193054,68.35108,66,41,0
68.35108,68.50911,52,46,0
68.50911,68.66714,59,33,0
68.66714,68.825165,64,43,0
68.825165,68.98319,66,53,0
68.98319,69.13891,54,58,0
69.13891,69.294624,61,40,0
69.294624,69.454254,64,46,0
69.454254,69.628456,66,38,0
69.628456,69.79219,54,40,0
69.79219,69.955925,58,32,0
69.955925,70.11967,64,31,0
70.11967,70.29913,66,28,0
70.29913,70.463715,54,36,0
70.463715,70.628296,59,32,0
70.628296,70.79288,63,32,0
70.79288,70.95746,66,31,0
70.95746,71.12205,54,40,0
71.12205,71.28663,59,31,0
71.28663,71.45121,63,31,0
71.45121,71.638054,66,28,0
71.638054,71.80437,51,36,0
71.80437,71.97069,54,31,0
71.97069,72.137,59,31,0
72.137,72.303314,63,30,0
72.303314,72.452286,51,31,0
72.452286,72.60126,54,26,0
72.60126,72.75802,59,32,0
72.75802,72.91477,63,34,0
72.91477,73.06973,47,40,0
73.06973,73.22469,52,26,0
73.22469,73.37965,55,26,0
73.37965,73.53461,59,26,0
73.53461,73.693436,47,33,0
73.693436,73.85227,52,26,0
73.85227,74.0111,55,27,0
74.0111,74.16993,59,25,0
74.16993,74.33117,48,36,0
74.33117,74.49241,50,30,0
74.49241,74.65365,57,38,0
74.65365,74.833115,60,51,0
74.98135,75.129585,54,36,0
75.129585,75.28392,60,46,0
75.28392,75.439125,62,27,0
75.439125,75.594086,50,49,0
75.594086,75.74905,55,32,0
75.74905,75.904,59,32,0
75.904,76.05896,62,31,0
76.05896,76.21779,52,41,0
76.21779,76.376625,55,32,0
76.376625,76.53545,59,33,0
76.53545,76.69428,64,30,0
76.69428,76.85552,52,44,0
76.85552,77.01676,57,36,0
77.01676,77.178,60,46,0
77.178,77.35747,64,42,0
77.35747,77.50946,51,46,0
77.50946,77.66145,57,44,0
77.66145,77.814995,60,55,0
77.814995,77.97592,66,33,0
77.97592,78.130875,50,58,0
78.130875,78.285835,55,38,0
78.285835,78.440796,62,38,0
78.440796,78.59576,67,37,0
78.59576,78.754585,55,48,0
78.754585,78.913414,59,38,0
78.913414,79.07225,62,38,0
79.07225,79.24628,67,35,0
79.24628,79.40752,55,52,0
79.40752,79.568756,64,45,0
79.568756,79.729996,67,54,0
79.729996,79.90946,72,63,0
79.90946,80.06442,55,56,0
80.06442,80.21938,64,52,0
80.21938,80.374344,67,56,0
80.374344,80.52997,72,39,0
80.52997,80.69121,54,52,0
80.69121,80.85244,60,45,0
80.85244,81.01368,62,54,0
81.01368,81.17818,69,50,0
81.17818,81.33313,55,56,0
81.33313,81.48809,60,52,0
81.48809,81.64305,62,56,0
81.64305,81.798676,67,39,0
81.798676,82.42695,54,52,0
81.798676,82.42695,62,62,0
81.798676,82.42695,60,52,0
81.798676,82.42695,57,52,0
85.87992,86.03488,59,26,0
86.03488,86.189835,62,26,0
86.189835,86.344795,67,25,0
86.344795,86.503624,55,32,0
86.503624,86.66246,59,25,0
86.66246,86.82129,62,25,0
86.82129,86.98012,67,23,0
86.98012,87.14136,55,33,0
87.14136,87.3026,57,27,0
87.3026,87.46384,64,34,0
87.46384,87.6433,67,44,0
87.6433,87.79826,55,53,0
87.79826,87.953224,57,31,0
87.953224,88.10818,64,39,0
88.10818,88.26381,67,23,0
88.26381,88.42058,55,35,0
88.42058,88.57651,59,26,0
88.57651,88.73159,62,26,0
88.73159,88.88586,67,25,0
88.88586,89.043884,55,32,0
89.043884,89.20191,59,25,0
89.20191,89.35994,62,25,0
89.35994,89.51797,67,23,0
89.51797,89.675514,55,33,0
89.675514,89.83432,57,27,0
89.83432,89.99512,61,33,0
89.99512,90.16775,67,40,0
90.16775,90.325775,57,46,0
90.325775,90.4838,60,26,0
90.4838,90.64183,62,25,0
90.64183,90.79986,69,23,0
90.94883,91.10039,59,26,0
91.10039,91.25548,62,26,0
91.25548,91.40974,67,25,0
91.40974,91.567764,55,32,0
91.567764,91.72579,59,25,0
91.72579,91.88382,62,25,0
91.88382,92.04185,67,23,0
92.04185,92.199394,52,33,0
92.199394,92.3582,57,27,0
92.3582,92.519,60,33,0
92.519,92.69163,64,31,0
92.69163,92.85433,52,37,0
92.85433,93.017044,57,26,0
93.017044,93.17975,60,25,0
93.17975,93.36115,64,23,0
93.36115,93.51879,51,32,0
93.51879,93.67471,54,26,0
93.67471,93.8298,59,26,0
93.8298,93.98406,63,25,0
93.98406,94.14209,51,32,0
94.14209,94.30012,54,25,0
94.30012,94.458145,59,25,0
94.458145,94.61617,63,23,0
94.61617,94.77372,51,33,0
94.77372,94.932526,54,27,0
94.932526,95.09332,59,26,0
95.09332,95.26595,63,26,0
95.26595,95.42398,51,30,0
95.42398,95.58201,54,26,0
95.58201,95.7465,59,25,0
95.7465,95.910995,63,22,0
95.910995,96.07195,50,32,0
96.07195,96.23292,55,19,0
96.23292,96.39741,59,19,0
96.39741,96.5619,67,18,0
96.5619,96.732956,50,24,0
96.732956,96.904015,55,18,0
96.904015,97.07507,59,18,0
97.07507,97.246124,67,17,0
97.246124,97.40813,52,24,0
97.40813,97.56693,57,20,0
97.56693,97.72773,60,24,0
97.72773,97.92332,64,23,0
97.92332,98.10582,52,27,0
98.10582,98.28833,57,19,0
98.28833,98.47083,60,18,0
98.47083,98.67033,64,17,0
98.67033,98.8417,51,24,0
98.8417,99.01018,54,19,0
99.01018,99.1765,59,19,0
99.1765,99.34281,63,18,0
99.34281,99.51584,54,25,0
99.51584,99.68887,57,19,0
99.68887,99.8619,59,19,0
99.8619,100.034935,63,27,0
100.034935,100.20744,52,31,0
100.20744,100.37792,55,27,0
100.37792,100.5464,59,30,0
100.5464,100.71279,64,32,0
100.71279,100.87603,52,34,0
100.87603,101.03927,55,30,0
101.03927,101.20251,59,32,0
101.20251,101.365746,64,34,0
101.365746,101.525505,51,35,0
101.525505,101.685265,54,26,0
101.685265,101.845024,59,26,0
101.845024,102.00479,63,25,0
102.00479,102.16282,54,32,0
102.16282,102.32085,57,25,0
102.32085,102.478874,59,25,0
102.478874,102.6369,63,23,0
102.6369,102.79445,52,33,0
102.79445,102.953255,55,27,0
102.953255,103.114044,59,33,0
103.114044,103.28668,64,40,0
103.28668,103.44764,52,34,0
103.44764,103.608604,55,30,0
103.608604,103.76956,59,32,0
103.76956,103.93053,64,34,0
103.93053,104.091484,51,35,0
104.091484,104.25245,54,26,0
104.25245,104.41341,59,26,0
104.41341,104.57437,63,25,0
104.57437,104.7324,51,32,0
104.7324,104.89043,54,25,0
104.89043,105.048454,59,25,0
105.048454,105.20648,63,23,0
105.20648,105.36403,54,33,0
105.36403,105.522835,57,27,0
105.522835,105.68363,59,33,0
105.68363,105.85626,63,40,0
105.85626,106.01429,51,43,0
106.01429,106.17232,54,36,0
106.17232,106.330345,59,44,0
106.330345,106.48837,63,47,0
106.48837,106.64333,47,56,0
106.64333,106.79829,52,37,0
106.79829,106.95325,56,38,0
106.95325,107.10821,59,38,0
107.10821,107.26704,47,50,0
107.26704,107.42587,51,43,0
107.42587,107.5847,57,46,0
107.5847,107.74353,59,48,0
107.74353,107.90477,47,59,0
107.90477,108.06601,52,48,0
108.06601,108.22725,56,63,0
108.22725,108.406715,59,61,0
108.406715,108.561676,54,74,0
108.561676,108.71663,61,43,0
108.71663,108.87159,64,54,0
108.87159,109.027214,66,32,0
109.027214,109.18399,54,49,0
109.18399,109.33992,59,36,0
109.33992,109.495,63,36,0
109.495,109.64927,66,35,0
109.64927,109.8073,54,44,0
109.8073,109.965324,58,35,0
109.965324,110.12335,64,35,0
110.12335,110.28138,66,32,0
110.28138,110.43893,54,46,0
110.43893,110.59773,59,37,0
110.59773,110.75852,63,46,0
110.75852,110.93116,66,56,0
110.93116,111.08919,56,64,0
111.08919,111.247215,59,48,0
111.247215,111.40524,61,51,0
111.40524,111.56327,68,38,0
111.56327,111.7213,57,49,0
111.7213,111.879326,61,46,0
111.879326,112.03735,64,49,0
112.03735,112.19538,66,45,0
112.19538,112.35341,54,57,0
112.35341,112.51144,57,45,0
112.51144,112.669464,59,45,0
112.669464,112.82749,63,41,0
112.98094,113.1344,56,45,0
113.1344,113.29313,59,45,0
113.29313,113.45629,64,42,0
113.61587,113.77544,52,46,0
113.77544,113.938484,57,45,0
113.938484,114.101524,64,41,0
114.101524,114.26457,52,63,0
114.26457,114.42761,56,46,0
114.42761,114.59066,59,46,0
114.59066,114.7537,64,45,0
114.7537,114.91828,52,57,0
114.91828,115.08286,56,45,0
115.08286,115.247444,59,45,0
115.247444,115.434296,64,41,0
115.434296,115.60061,51,52,0
115.60061,115.76692,54,46,0
115.76692,115.933235,59,40,0
115.933235,116.099556,63,35,0
116.099556,116.25758,51,30,0
116.25758,116.41561,54,26,0
116.41561,116.577965,59,32,0
116.577965,116.74032,63,34,0
116.74032,116.89528,52,40,0
116.89528,117.05024,56,26,0
117.05024,117.2052,59,26,0
117.2052,117.36015,64,25,0
117.36015,117.51899,52,32,0
117.51899,117.67782,56,25,0
117.67782,117.83665,59,25,0
117.83665,117.995476,64,23,0
117.995476,118.156715,52,33,0
118.156715,118.317955,54,27,0
118.317955,118.479195,61,34,0
118.479195,118.65866,64,44,0
118.65866,118.81362,52,53,0
118.81362,118.96858,54,31,0
118.96858,119.12354,61,39,0
119.12354,119.27917,64,23,0
119.27917,119.43594,52,35,0
119.43594,119.591866,56,26,0
119.591866,119.746956,59,26,0
119.746956,119.901215,64,25,0
119.901215,120.05924,52,32,0
120.05924,120.21727,56,25,0
120.21727,120.3753,59,25,0
120.3753,120.533325,64,23,0
120.533325,120.69087,52,33,0
120.69087,120.84968,54,28,0
120.84968,121.010475,58,34,0
121.010475,121.183105,64,42,0
121.183105,121.338066,54,55,0
121.338066,121.49303,58,32,0
121.49303,121.64798,64,41,0
121.64798,121.80361,66,24,0
121.80361,121.96038,56,37,0
121.96038,122.11631,59,27,0
122.11631,122.27139,64,28,0
122.27139,122.42566,68,27,0
122.42566,122.58369,56,34,0
122.58369,122.741714,59,27,0
122.741714,122.89974,64,27,0
122.89974,123.05777,68,25,0
123.05777,123.21532,57,36,0
123.21532,123.37412,59,29,0
123.37412,123.53285,64,36,0
123.53285,123.696014,66,44,0
123.696014,123.85559,57,36,0
123.85559,124.01517,59,37,0
124.01517,124.17821,63,42,0
124.17821,124.34125,66,37,0
124.34125,124.504295,54,49,0
124.504295,124.667336,57,37,0
124.667336,124.83038,59,43,0
124.83038,124.99342,63,36,0
124.99342,125.158005,54,35,0
125.158005,125.322586,57,44,0
125.322586,125.48717,59,44,0
125.48717,125.67402,63,39,0
125.84033,126.006645,56,46,0
126.006645,126.16675,59,40,0
126.16675,126.32685,64,34,0
126.32685,126.48119,52,36,0
126.48119,126.63553,56,31,0
126.63553,126.80093,59,38,0
126.80093,126.966324,64,41,0
126.966324,127.121284,52,48,0
127.121284,127.27624,56,31,0
127.27624,127.4312,59,31,0
127.4312,127.58616,64,30,0
127.58616,127.74499,52,39,0
127.74499,127.903824,56,31,0
127.903824,128.06265,59,31,0
128.06265,128.22202,64,28,0
128.22202,128.38338,52,41,0
128.38338,128.5464,54,34,0
128.5464,128.71115,61,42,0
128.71115,128.89062,64,55,0
128.89062,129.04558,51,67,0
129.04558,129.20055,54,39,0
129.20055,129.3555,63,49,0
129.3555,129.51112,66,29,0
129.51112,129.66791,52,45,0
129.66791,129.82382,56,33,0
129.82382,129.97891,59,33,0
129.97891,130.13318,64,32,0
130.13318,130.2912,52,41,0
130.2912,130.44923,56,32,0
130.44923,130.60725,59,32,0
130.60725,130.76529,64,30,0
130.76529,130.92284,52,43,0
130.92284,131.08163,54,35,0
131.08163,131.24243,61,43,0
131.24243,131.41507,64,53,0
131.41507,131.57002,54,71,0
131.57002,131.72499,58,41,0
131.72499,131.87994,64,52,0
131.87994,132.03557,66,31,0
132.03557,132.19234,54,47,0
132.19234,132.34827,59,35,0
132.34827,132.50336,63,35,0
132.50336,132.65762,66,34,0
132.65762,132.81564,58,44,0
132.81564,132.97368,61,34,0
132.97368,133.1317,64,34,0
133.1317,133.28973,67,31,0
133.28973,133.44728,59,46,0
133.44728,133.60608,63,37,0
133.60608,133.76482,66,46,0
133.76482,133.92798,69,56,0
133.92798,134.08755,63,46,0
134.08755,134.24713,66,46,0
134.24713,134.41017,69,53,0
134.41017,134.57321,71,46,0
134.57321,134.73625,59,60,0
134.73625,134.89929,64,46,0
134.89929,135.06235,68,53,0
135.06235,135.22539,71,44,0
135.22539,135.38997,60,43,0
135.38997,135.55455,64,46,0
135.55455,135.71913,68,53,0
135.71913,135.90598,72,47,0
136.0723,136.2386,61,54,0
136.2386,136.40492,64,47,0
136.40492,136.57124,66,40,0
136.57124,136.73755,52,43,0
136.73755,136.90387,54,53,0
136.90387,137.07019,57,53,0
137.07019,137.2365,60,47,0
137.40282,137.56914,52,43,0
137.56914,137.73544,56,40,0
137.73544,137.90176,59,34,0
137.90176,138.06808,47,42,0
138.06808,138.23439,52,34,0
138.23439,138.40071,56,40,0
138.40071,138.56703,59,36,0
138.56703,138.73334,47,29,0
138.73334,138.89928,54,31,0
138.89928,139.06427,57,38,0
139.06427,139.22832,59,44,0
139.22832,139.39145,47,49,0
139.39145,139.55466,54,33,0
139.55466,139.7188,57,41,0
139.7188,139.88388,59,31,0
139.88388,140.04991,47,32,0
140.04991,140.21623,53,26,0
140.21623,140.38255,56,30,0
140.38255,140.54886,59,38,0
140.54886,140.71344,47,41,0
140.71344,140.87802,53,25,0
140.87802,141.0426,56,25,0
141.0426,141.22946,59,23,0
141.22946,141.39577,45,29,0
141.39577,141.56209,49,25,0
141.56209,141.72841,54,25,0
141.72841,141.88086,57,24,0
141.89471,142.05275,45,31,0
142.05275,142.21077,49,30,0
142.21077,142.3688,54,33,0
142.3688,142.52682,57,38,0
142.52682,142.68486,45,45,0
142.68486,142.84288,51,30,0
142.84288,143.00092,57,32,0
143.00092,143.15894,59,37,0
143.15894,143.31697,45,41,0
143.31697,143.47499,52,33,0
143.47499,143.63303,57,37,0
143.63303,143.79105,59,41,0
143.79105,143.94676,47,45,0
143.94676,144.10248,54,35,0
144.10248,144.26212,57,46,0
144.26212,144.43631,59,38,0
144.43631,144.60005,47,40,0
144.60005,144.76378,51,32,0
144.76378,144.92752,57,31,0
144.92752,145.107,59,28,0
145.107,145.27158,47,36,0
145.27158,145.43616,52,32,0
145.43616,145.60074,56,32,0
145.60074,145.76532,59,31,0
145.76532,145.9299,47,40,0
145.9299,146.09448,52,31,0
146.09448,146.25906,56,31,0
146.25906,146.4459,59,28,0
146.4459,146.61223,47,36,0
146.61223,146.77853,52,31,0
146.77853,146.94485,56,31,0
146.94485,147.11118,59,30,0
147.11118,147.27441,47,34,0
147.27441,147.43765,52,30,0
147.43765,147.60089,56,31,0
147.60089,147.76413,59,33,0
147.76413,147.92389,45,33,0
147.92389,148.08365,49,24,0
148.08365,148.24341,52,24,0
148.24341,148.40317,57,23,0
148.40317,148.5612,45,30,0
148.5612,148.71922,49,23,0
148.71922,148.87726,52,23,0
148.87726,149.03528,57,20,0
149.03528,149.19283,45,29,0
149.19283,149.35164,49,24,0
149.35164,149.51244,52,29,0
149.51244,149.68506,57,35,0
149.68506,149.8483,45,29,0
149.8483,150.01154,48,25,0
150.01154,150.17477,52,27,0
150.17477,150.33801,57,28,0
150.33801,150.49777,42,29,0
150.49777,150.65755,47,21,0
150.65755,150.8173,51,21,0
150.8173,150.97707,57,20,0
150.97707,151.13509,42,25,0
151.13509,151.29312,47,20,0
151.29312,151.45114,51,19,0
151.45114,151.60918,57,17,0
151.60918,151.76672,42,25,0
151.76672,151.92552,47,20,0
151.92552,152.08632,51,24,0
152.08632,152.25896,57,30,0
152.25896,152.42714,47,25,0
152.42714,152.5953,51,21,0
152.5953,152.76349,57,23,0
152.76349,152.93167,59,24,0
152.93167,153.09438,47,24,0
153.09438,153.2571,52,18,0
153.2571,153.4198,56,18,0
153.4198,153.5825,59,17,0
153.5825,153.74176,47,22,0
153.74176,153.90102,52,17,0
153.90102,154.06026,56,17,0
154.06026,154.21951,59,16,0
154.21951,154.37749,47,23,0
154.37749,154.53629,52,15,0
154.53629,154.69699,56,19,0
154.69699,154.8773,59,22,0
154.8773,155.04836,47,24,0
155.04836,155.21942,52,18,0
155.21942,155.39047,56,20,0
155.39047,155.56154,59,20,0
155.56154,155.7297,47,24,0
155.7297,155.89789,52,17,0
155.89789,156.06607,56,17,0
156.06607,156.23425,59,17,0
156.23425,156.40244,47,21,0
156.40244,156.57062,52,17,0
156.57062,156.7388,56,16,0
156.7388,156.90689,59,14,0
156.90689,157.07646,47,24,0
157.07646,157.25012,52,17,0
157.25012,157.42836,56,17,0
157.42836,157.6112,59,17,0
157.6112,157.79866,47,21,0
157.79866,158.00278,52,17,0
158.00278,158.2234,56,16,0
158.2234,158.52649,59,14,0
0.0,1.2614217,40,40,0
1.2614217,2.5210793,44,42,0
2.5210793,3.772312,42,45,0
3.772312,4.42061,35,41,0
5.052721,5.672556,40,46,0
5.672556,6.30788,42,42,0
6.30788,6.9710636,44,42,0
6.9710636,7.5915666,46,42,0
7.5915666,8.213616,47,46,0
8.213616,8.845728,49,42,0
8.845728,9.495506,51,37,0
9.495506,10.127618,53,42,0
10.127618,10.759728,54,46,0
10.759728,11.39184,47,42,0
11.39184,12.020639,52,42,0
12.020639,12.665875,45,42,0
12.665875,13.998641,47,46,0
13.998641,14.331272,47,38,0
14.663903,15.297573,39,42,0
15.297573,15.919349,40,46,0
15.919349,16.554672,42,42,0
16.554672,17.217855,44,42,0
17.217855,17.837692,46,42,0
17.837692,18.457527,47,46,0
18.457527,19.089638,49,42,0
19.089638,19.731789,51,37,0
19.731789,20.404057,52,42,0
20.404057,21.059008,49,48,0
21.059008,21.731276,56,54,0
21.731276,23.799633,52,49,0
23.799633,24.532013,56,37,0
24.532013,25.881094,53,34,0
25.881094,26.512688,54,46,0
26.512688,27.144266,46,42,0
27.144266,27.788012,47,42,0
27.788012,28.458693,52,42,0
28.458693,29.117022,54,46,0
30.462875,31.786465,42,38,0
31.786465,32.467056,42,40,0
32.467056,33.13232,40,34,0
33.13232,33.76443,39,39,0
33.76443,34.39654,37,48,0
34.39654,35.028652,47,53,0
35.028652,35.67391,46,57,0
35.67391,36.344593,42,62,0
36.344593,38.348774,47,55,0
38.980885,39.60072,40,46,0
39.60072,40.236042,42,42,0
40.236042,40.891796,44,42,0
40.891796,41.521954,46,42,0
41.521954,42.144,47,46,0
42.144,42.77611,49,42,0
42.77611,43.42589,51,37,0
43.42589,44.058002,53,42,0
44.058002,44.690113,54,46,0
44.690113,45.322224,47,42,0
45.322224,45.951027,52,42,0
45.951027,46.59626,45,42,0
46.59626,47.93482,47,46,0
47.93482,48.267452,47,38,0
48.600082,49.233753,39,42,0
49.233753,49.855526,40,46,0
49.855526,50.490852,42,42,0
50.490852,51.154034,44,42,0
51.154034,51.797882,46,42,0
51.797882,52.412067,47,46,0
52.412067,53.04418,49,42,0
53.04418,53.68633,51,37,0
53.68633,54.3586,52,42,0
54.3586,55.01355,49,48,0
55.01355,55.685818,56,54,0
55.685818,57.754177,52,49,0
57.754177,58.486553,56,37,0
58.486553,59.835636,53,34,0
59.835636,60.46723,54,46,0
60.46723,61.09881,46,42,0
61.09881,61.742554,47,42,0
61.742554,62.413235,52,42,0
62.413235,63.071564,54,46,0
64.41742,65.741005,42,38,0
65.741005,66.4216,42,40,0
66.4216,67.08686,40,34,0
67.08686,67.71897,39,39,0
67.71897,68.35108,37,48,0
68.35108,68.98319,47,53,0
68.98319,69.628456,46,57,0
69.628456,70.29913,42,62,0
70.29913,72.303314,47,55,0
72.91477,74.16993,40,46,0
74.16993,74.833115,42,46,0
74.833115,75.439125,50,49,0
75.439125,76.69428,43,56,0
76.69428,77.97592,45,56,0
77.97592,79.24628,47,67,0
79.24628,80.52997,48,66,0
80.52997,81.17818,50,66,0
81.17818,81.798676,52,62,0
86.344795,86.98012,47,42,0
86.98012,88.26381,48,42,0
88.26381,89.51797,50,46,0
89.51797,90.16775,52,37,0
90.16775,90.79986,54,42,0
90.79986,91.40974,55,46,0
92.04185,93.36115,48,37,0
93.36115,95.910995,47,40,0
95.910995,97.246124,43,34,0
97.246124,98.67033,48,27,0
98.67033,101.365746,47,30,0
101.365746,103.93053,47,46,0
103.93053,105.85626,47,46,0
106.48837,107.10821,40,64,0
107.10821,107.74353,42,58,0
107.74353,108.406715,44,58,0
108.406715,109.027214,46,58,0
109.027214,109.64927,47,64,0
109.64927,110.28138,49,58,0
110.28138,110.93116,51,51,0
110.93116,111.56327,53,58,0
111.56327,112.19538,54,64,0
112.19538,112.82749,47,58,0
112.82749,113.45629,52,58,0
113.45629,114.101524,49,58,0
114.101524,116.099556,47,64,0
116.099556,116.74032,45,37,0
116.74032,117.995476,44,46,0
117.995476,119.27917,45,42,0
119.27917,120.533325,47,46,0
120.533325,121.80361,49,38,0
121.80361,123.05777,47,49,0
123.05777,124.34125,47,40,0
124.34125,124.99342,52,55,0
124.99342,125.67402,47,46,0
125.67402,126.32685,52,53,0
127.58616,128.22202,47,47,0
128.22202,128.89062,46,52,0
128.89062,129.51112,45,47,0
129.51112,130.13318,44,59,0
130.13318,130.76529,47,53,0
130.76529,131.41507,46,60,0
131.41507,132.03557,49,61,0
132.03557,132.65762,47,62,0
132.65762,133.28973,52,58,0
133.28973,133.92798,51,64,0
133.92798,134.57321,59,61,0
134.57321,135.22539,52,68,0
135.22539,135.90598,56,58,0
135.90598,136.57124,57,63,0
136.57124,137.2365,45,57,0
137.2365,137.90176,47,63,0
139.22832,140.54886,35,38,0
140.54886,141.22946,35,40,0
141.22946,141.89471,33,34,0
141.89471,142.52682,32,39,0
142.52682,143.15894,30,48,0
143.15894,143.79105,40,53,0
143.79105,144.43631,39,57,0
144.43631,145.107,35,49,0
145.107,146.43034,40,55,0
146.4459,149.02211,40,47,0
149.03528,151.59601,40,42,0
151.60918,154.20624,40,36,0
154.21951,156.22023,40,32,0
156.23425,156.89291,40,24,0
156.90689,157.59578,40,24,0
157.6112,158.50124,40,23,0
158.52649,163.37595,47,15,0
158.52649,163.37595,40,15,0
