start_time,end_time,note_value,velocity,instrument_program_number
1.4498149,1.6025021,66,50,0
1.7692798,2.0631397,66,56,0
2.0631397,2.1322117,68,58,0
2.2002084,2.2678068,70,59,0
2.3350112,2.4017494,71,63,0
2.468104,2.5473766,73,66,0
2.6266494,2.9211423,74,74,0
2.9211423,3.2041078,70,63,0
3.2041078,3.4870732,71,64,0
3.4870732,3.7785902,76,76,0
3.7785902,4.0701075,70,66,0
4.0701075,4.3761735,71,71,0
4.3761735,4.9514804,73,81,0
4.9514804,5.2727275,79,85,0
5.2727275,5.704439,78,93,0
5.704439,5.7704077,76,81,0
5.8363767,5.906346,74,86,0
5.976315,6.058751,73,86,0
6.1411867,6.5757685,76,92,0
6.5757685,6.647204,74,75,0
6.7184668,6.7940106,73,75,0
6.8695545,6.948394,71,84,0
7.027233,7.4689727,69,90,0
7.4689727,7.542596,68,68,0
7.616219,7.692563,66,66,0
7.7689066,7.850874,65,72,0
7.932841,8.236608,65,78,0
8.236608,8.495611,66,64,0
8.532612,8.6806135,66,61,0
8.828615,9.122476,66,56,0
9.122476,9.191547,68,58,0
9.259544,9.327143,70,59,0
9.394347,9.461085,71,63,0
9.527439,9.606712,73,66,0
9.685985,9.980478,74,74,0
9.980478,10.263443,70,63,0
10.263443,10.546409,71,65,0
10.546409,10.837926,77,78,0
10.837926,11.129443,72,67,0
11.129443,11.435509,73,73,0
11.435509,12.00986,78,86,0
12.00986,12.331108,78,85,0
12.331108,12.762994,76,93,0
12.762994,12.83075,74,81,0
12.898507,12.969469,73,86,0
13.040432,13.120585,74,86,0
13.200739,13.77509,73,81,0
13.77509,14.096338,78,85,0
14.096338,14.528049,76,93,0
14.528049,14.5949,74,81,0
14.664153,14.735453,73,86,0
14.806752,14.889189,74,86,0
14.971624,15.4345875,73,93,0
15.4345875,15.508588,66,51,0
15.582589,15.65659,65,53,0
15.730591,15.810745,66,56,0
15.890899,16.332638,62,49,0
15.890899,16.332638,66,49,0
15.890899,16.332638,68,58,0
16.332638,16.40858,68,56,0
16.484522,16.560463,66,59,0
16.636404,16.716558,68,62,0
16.796713,17.166718,69,66,0
16.796713,17.166718,66,56,0
17.216051,17.240719,71,61,0
17.240719,17.31666,69,61,0
17.392601,17.468544,68,62,0
17.544485,17.623758,69,66,0
17.70303,18.147038,66,61,0
17.70303,18.147038,71,72,0
18.147038,18.223381,71,63,0
18.299725,18.376068,69,67,0
18.452412,18.532122,71,68,0
18.611834,18.981838,66,62,0
18.611834,18.981838,69,62,0
18.611834,18.981838,73,73,0
19.031172,19.05584,74,68,0
19.05584,19.131382,73,68,0
19.206926,19.28247,72,70,0
19.358015,19.438168,73,73,0
19.518322,19.962328,77,82,0
19.518322,19.962328,73,69,0
19.518322,19.962328,68,69,0
19.962328,20.040316,77,73,0
20.118301,20.201212,75,78,0
20.28412,20.377172,77,83,0
20.470224,21.686415,78,93,0
21.686415,22.005259,76,87,0
22.005259,22.31737,74,90,0
22.364502,22.679861,74,98,0
22.679861,22.978905,71,87,0
22.978905,23.287214,67,77,0
23.287214,23.8853,64,78,0
23.8853,24.1925,69,78,0
24.1925,24.632782,66,78,0
24.632782,24.708326,66,82,0
24.78387,24.863142,69,85,0
24.942415,25.02678,74,91,0
25.111145,25.401196,78,93,0
25.401196,25.694193,76,87,0
25.694193,25.969027,74,90,0
26.010012,26.29861,74,98,0
26.29861,26.597654,71,81,0
26.597654,26.905964,67,66,0
26.905964,27.494982,64,62,0
27.494982,27.792513,67,62,0
27.792513,28.384552,62,62,0
28.384552,28.686728,67,52,0
28.686728,29.275745,64,52,0
29.275745,29.57792,67,52,0
29.57792,30.166183,62,52,0
31.056414,31.215836,66,50,0
31.38756,31.68142,66,56,0
31.68142,31.75049,68,58,0
31.818487,31.886086,70,59,0
31.95329,32.020027,71,63,0
32.086384,32.165657,73,66,0
32.24493,32.53942,74,74,0
32.53942,32.822388,70,63,0
32.822388,33.105354,71,64,0
33.105354,33.384216,76,76,0
33.384216,33.67573,70,66,0
33.67573,33.981796,71,71,0
33.981796,34.55615,73,81,0
34.55615,34.877396,79,85,0
34.877396,35.30911,78,93,0
35.30911,35.379677,76,81,0
35.449818,35.51788,74,86,0
35.585945,35.66838,73,86,0
35.750816,36.1854,76,92,0
36.1854,36.256832,74,75,0
36.328094,36.40364,73,75,0
36.479183,36.55802,71,84,0
36.636864,37.0786,69,90,0
37.0786,37.152225,68,68,0
37.22585,37.302193,66,66,0
37.378536,37.460503,65,72,0
37.54247,37.846237,65,78,0
37.846237,38.10524,66,64,0
38.142242,38.29024,66,61,0
38.438244,38.732105,66,56,0
38.732105,38.801178,68,58,0
38.869175,38.93677,70,59,0
39.003975,39.070713,71,63,0
39.13707,39.216343,73,66,0
39.295616,39.590107,74,74,0
39.590107,39.873074,70,63,0
39.873074,40.15604,71,65,0
40.15604,40.43869,77,78,0
40.43869,40.73169,72,67,0
40.73169,41.038494,73,73,0
41.038494,41.612846,78,86,0
41.612846,41.934093,78,85,0
41.934093,42.365803,76,93,0
42.365803,42.436375,74,81,0
42.50651,42.574886,73,86,0
42.64326,42.725697,74,86,0
42.808132,43.382484,73,81,0
43.382484,43.70373,78,85,0
43.70373,44.135445,76,93,0
44.135445,44.206013,74,81,0
44.276154,44.345474,73,86,0
44.414795,44.497234,74,86,0
44.57967,45.042633,73,93,0
45.042633,45.11663,66,51,0
45.19063,45.264633,65,53,0
45.338634,45.41879,66,56,0
45.498943,45.94068,62,49,0
45.498943,45.94068,66,49,0
45.498943,45.94068,68,58,0
45.94068,46.016624,68,56,0
46.092567,46.168507,66,59,0
46.24445,46.324604,68,62,0
46.40476,46.77476,69,66,0
46.40476,46.77476,66,56,0
46.824097,46.848763,71,61,0
46.848763,46.924706,69,61,0
47.000645,47.076588,68,62,0
47.15253,47.2318,69,66,0
47.311073,47.75508,66,61,0
47.311073,47.75508,71,72,0
47.75508,47.831425,71,63,0
47.90777,47.98411,69,67,0
48.060455,48.140167,71,68,0
48.219875,48.58988,66,62,0
48.219875,48.58988,69,62,0
48.219875,48.58988,73,73,0
48.639217,48.663883,74,68,0
48.663883,48.739426,73,68,0
48.814972,48.890514,72,70,0
48.966057,49.04621,73,73,0
49.126366,49.570374,77,82,0
49.126366,49.570374,73,69,0
49.126366,49.570374,68,69,0
49.570374,49.648357,77,73,0
49.726345,49.809258,75,78,0
49.892166,49.985218,77,83,0
50.07827,51.311024,78,93,0
51.311024,51.629868,76,87,0
51.629868,51.94198,74,90,0
51.989113,52.30447,74,98,0
52.30447,52.60351,71,87,0
52.60351,52.911823,67,77,0
52.911823,53.50991,64,78,0
53.50991,53.81711,69,78,0
53.81711,54.257393,66,78,0
54.257393,54.332935,66,82,0
54.40848,54.48775,69,85,0
54.567024,54.65139,74,91,0
54.735756,55.01872,78,93,0
55.01872,55.311718,76,87,0
55.311718,55.58655,74,90,0
55.627537,55.916134,74,98,0
55.916134,56.21518,71,81,0
56.21518,56.523487,67,66,0
56.523487,57.110287,64,62,0
57.110287,57.417286,67,62,0
57.417286,58.00408,62,62,0
58.00408,58.303123,67,52,0
58.303123,58.889923,64,52,0
58.889923,59.19052,67,52,0
59.19052,59.77954,62,52,0
59.77954,60.091732,67,52,0
60.091732,60.677773,63,52,0
60.677773,60.978374,67,52,0
60.978374,61.569633,64,57,0
61.569633,61.875084,68,64,0
61.875084,62.17035,71,77,0
62.17035,62.46335,68,72,0
62.46335,62.76582,64,74,0
62.76582,63.357082,64,72,0
63.357082,63.65865,69,52,0
63.65865,64.247665,65,62,0
64.247665,64.548485,69,65,0
64.548485,65.132324,66,73,0
65.132324,65.43167,70,72,0
65.43167,65.72393,73,83,0
65.72393,66.01693,70,75,0
66.01693,66.30715,66,74,0
66.32008,66.90834,66,70,0
66.90834,67.196304,71,70,0
67.20916,67.77973,71,70,0
67.79164,68.07597,71,70,0
68.08884,68.37319,71,79,0
68.37319,68.44412,73,76,0
68.514786,68.58518,75,77,0
68.65525,68.72506,76,79,0
68.79462,68.869576,78,83,0
68.94674,69.83475,79,85,0
69.83475,70.13075,76,85,0
68.94674,70.13075,67,85,0
70.425255,70.71321,67,70,0
70.726074,71.296646,67,70,0
71.30855,71.59288,67,70,0
71.60574,71.89011,67,79,0
71.89011,71.96103,69,76,0
72.03169,72.10209,71,77,0
72.17216,72.24197,72,79,0
72.31153,72.38648,74,83,0
72.463646,73.351654,76,85,0
73.351654,73.64766,72,85,0
72.463646,73.64766,64,85,0
73.943665,74.228,72,70,0
74.24086,74.525215,71,79,0
74.525215,74.596146,73,78,0
74.66681,74.737206,75,84,0
74.807274,74.87708,76,85,0
74.94664,75.0216,78,87,0
75.09876,75.39476,79,94,0
75.39476,75.690765,76,87,0
75.690765,75.98695,72,87,0
75.98695,76.28295,79,94,0
76.28295,76.57896,76,86,0
76.57896,76.875145,71,84,0
76.875145,77.17115,79,89,0
77.17115,77.46715,76,81,0
77.46715,77.763336,70,80,0
77.763336,78.05934,78,84,0
78.05934,78.35534,74,77,0
78.35534,78.65153,71,75,0
78.65153,78.94753,74,79,0
78.94753,79.24353,71,73,0
79.24353,79.53972,67,71,0
79.53972,79.835724,71,70,0
79.835724,80.13172,67,59,0
80.13172,80.42791,62,54,0
80.42791,80.723915,67,52,0
80.723915,81.01991,62,48,0
81.01991,81.3161,59,48,0
81.3161,81.61211,62,52,0
81.61211,81.90811,59,48,0
81.90811,82.20429,53,48,0
82.20429,82.43084,54,52,0
82.50435,82.57749,58,52,0
82.50435,82.57749,70,62,0
82.65026,82.722664,59,55,0
82.65026,82.722664,71,65,0
82.79471,82.867584,61,56,0
82.79471,82.867584,73,67,0
82.94047,83.02017,62,59,0
82.94047,83.02017,74,70,0
83.099884,83.98841,76,78,0
83.099884,83.98841,64,66,0
84.13864,84.21226,78,71,0
84.13864,84.21226,66,59,0
84.285675,84.35882,70,59,0
84.285675,84.35882,82,71,0
84.43168,84.50419,71,63,0
84.43168,84.50419,83,74,0
84.576416,84.650795,73,64,0
84.576416,84.650795,85,77,0
84.72518,84.80669,74,67,0
84.72518,84.80669,86,80,0
84.88818,85.904335,88,89,0
84.88818,85.904335,76,75,0
85.9423,86.094185,66,53,0
86.094185,86.24607,70,53,0
86.24607,86.39795,71,53,0
86.39795,86.549835,73,55,0
86.549835,86.70172,74,56,0
86.70172,86.84318,76,57,0
86.85604,87.00534,66,51,0
87.00534,87.15371,70,51,0
87.15371,87.301315,71,53,0
87.301315,87.448166,73,54,0
87.448166,87.594666,74,55,0
87.594666,87.733894,76,58,0
87.74655,87.89685,70,56,0
87.89685,88.044785,73,56,0
88.044785,88.19203,74,57,0
88.19203,88.33927,76,63,0
88.33927,88.48652,78,67,0
88.48652,88.62798,79,68,0
88.64085,88.79072,70,62,0
88.79072,88.93948,73,63,0
88.93948,89.08756,74,67,0
89.08756,89.23517,76,68,0
89.23517,89.38626,78,71,0
89.38626,89.53656,79,70,0
89.53656,89.68486,78,64,0
89.68486,89.83185,76,70,0
89.83185,89.97979,74,66,0
89.97979,90.12877,73,70,0
90.12877,90.28065,74,69,0
90.28065,90.43017,76,76,0
90.43017,90.57725,74,63,0
90.57725,90.723785,73,66,0
90.723785,90.87143,71,59,0
90.87143,91.020134,70,63,0
91.020134,91.17282,71,59,0
91.17282,91.32234,73,62,0
91.32234,91.468475,70,50,0
91.468475,91.61481,67,59,0
91.61481,91.761795,66,51,0
91.761795,91.90944,64,58,0
91.90944,92.062126,66,51,0
92.062126,92.21165,67,55,0
92.21165,92.36117,64,48,0
92.36117,92.51069,61,51,0
92.51069,92.66021,59,48,0
92.66021,92.8129,58,48,0
92.66021,92.896286,66,50,0
92.8129,92.979675,59,48,0
92.979675,93.27361,66,56,0
93.27361,93.345055,68,58,0
93.416405,93.487495,70,59,0
93.5585,93.62925,71,63,0
93.699905,93.77918,73,66,0
93.85845,94.15295,74,74,0
94.15295,94.43591,70,63,0
94.43591,94.71888,71,64,0
94.71888,95.01039,76,68,0
95.01039,95.30191,70,59,0
95.30191,95.60798,71,63,0
95.60798,96.18233,73,72,0
96.18233,96.4184,66,61,0
96.50179,96.795654,66,64,0
96.795654,96.86619,68,66,0
96.93633,97.00614,70,67,0
97.07552,97.14458,71,72,0
97.21323,97.2925,73,75,0
97.37177,97.66627,74,85,0
97.66627,97.949234,70,72,0
97.949234,98.2322,71,73,0
98.2322,98.52371,76,87,0
98.52371,98.81523,70,75,0
98.81523,99.1213,71,81,0
99.1213,99.69565,73,93,0
99.69565,99.931725,66,81,0
100.015114,100.303055,66,89,0
100.308975,100.378044,68,84,0
100.446045,100.51364,70,85,0
100.58085,100.64758,71,89,0
100.713936,100.79321,73,93,0
100.87248,101.15545,74,97,0
100.87248,101.15545,66,82,0
101.15545,101.451454,70,77,0
101.15545,101.451454,64,65,0
101.451454,101.73582,71,85,0
101.451454,101.73582,62,72,0
101.73582,102.030304,66,87,0
101.73582,102.030304,60,73,0
102.030304,102.317474,67,77,0
102.030304,102.317474,59,65,0
102.317474,102.61347,66,85,0
102.317474,102.61347,60,72,0
102.61347,102.911,67,87,0
102.61347,102.911,59,73,0
102.911,103.19817,71,88,0
102.911,103.19817,65,74,0
103.19817,103.48253,73,85,0
103.19817,103.48253,64,72,0
103.48253,103.78006,68,87,0
103.48253,103.78006,62,73,0
103.78006,104.06442,69,77,0
103.78006,104.06442,61,65,0
104.06442,104.35891,68,85,0
104.06442,104.35891,62,72,0
104.35891,104.64327,69,87,0
104.35891,104.64327,61,73,0
104.64327,104.93406,77,88,0
104.64327,104.93406,71,74,0
104.93406,105.218414,78,85,0
104.93406,105.218414,69,72,0
105.218414,105.51902,73,87,0
105.218414,105.51902,67,73,0
105.51902,105.80199,74,77,0
105.51902,105.80199,66,65,0
105.80199,106.0935,73,85,0
105.80199,106.0935,67,72,0
106.0935,106.38799,74,87,0
106.0935,106.38799,66,73,0
106.38799,106.672356,70,88,0
106.38799,106.672356,58,74,0
106.672356,106.96836,71,85,0
106.672356,106.96836,59,72,0
106.96836,107.26285,73,87,0
106.96836,107.26285,61,73,0
107.26285,107.55569,74,88,0
107.26285,107.55569,62,74,0
107.55569,107.846306,76,86,0
107.55569,107.846306,64,73,0
107.846306,108.13492,78,89,0
107.846306,108.13492,66,75,0
108.13492,108.423515,77,92,0
108.13492,108.423515,65,77,0
108.423515,108.71212,78,90,0
108.423515,108.71212,66,76,0
108.71212,108.999344,79,94,0
108.71212,108.999344,67,79,0
108.999344,109.292336,80,96,0
108.999344,109.292336,68,81,0
109.292336,109.60896,82,94,0
109.292336,109.60896,70,80,0
109.60896,110.85254,83,102,0
110.85254,111.177956,81,95,0
111.177956,111.4973,79,99,0
111.546844,111.8622,79,107,0
111.8622,112.16124,76,95,0
112.16124,112.46955,72,84,0
112.46955,113.067635,69,85,0
113.067635,113.37484,74,85,0
113.37484,113.81512,71,85,0
113.81512,113.89066,71,90,0
113.96621,114.04548,74,93,0
114.124756,114.20912,79,100,0
114.29348,114.583534,83,102,0
114.583534,114.87653,81,95,0
114.87653,115.15137,79,99,0
115.19235,115.48095,79,107,0
115.48095,115.77999,76,86,0
115.77999,116.0883,72,68,0
116.0883,116.67732,69,62,0
116.67732,116.97485,72,62,0
116.97485,117.566895,67,62,0
117.566895,117.869064,72,52,0
117.869064,118.458084,69,52,0
118.458084,118.76026,72,52,0
118.76026,119.34852,67,52,0
120.238754,120.54093,72,57,0
120.54093,121.131516,71,63,0
121.131516,121.4437,69,57,0
121.4437,122.02975,68,62,0
122.02975,122.330345,67,57,0
122.330345,122.62711,66,62,0
122.62711,122.92161,70,67,0
122.92161,123.22706,73,70,0
123.22706,123.52232,76,84,0
123.52232,123.815315,75,77,0
123.815315,124.11779,72,70,0
124.11779,124.708374,71,73,0
124.708374,125.02057,69,66,0
125.02057,125.606606,68,61,0
125.606606,125.90721,67,61,0
125.90721,126.20398,66,62,0
126.20398,126.49847,70,67,0
126.49847,126.80392,73,70,0
126.80392,127.09918,76,85,0
127.09918,127.39218,75,77,0
127.39218,127.69466,72,73,0
127.69466,128.93286,71,85,0
129.24995,129.56705,74,73,0
129.56705,130.80525,73,85,0
131.12233,131.43942,76,73,0
131.43942,131.74649,74,85,0
131.74649,131.81882,66,71,0
131.74649,131.81882,76,84,0
131.89116,131.96349,74,74,0
131.89116,131.96349,66,62,0
132.03581,132.11096,66,69,0
132.03581,132.11096,73,82,0
132.18611,132.26999,66,67,0
132.18611,132.26999,71,79,0
132.35387,132.50984,79,85,0
132.66092,133.10722,67,71,0
132.66092,133.10722,70,84,0
133.10722,133.261,66,67,0
133.10722,133.261,71,79,0
133.27498,133.42699,71,79,0
133.27498,133.42699,66,67,0
133.42699,133.50197,66,55,0
133.42699,133.50197,63,55,0
133.42699,133.50197,72,55,0
133.42699,133.50197,69,55,0
133.57619,133.64983,72,48,0
133.57619,133.64983,63,48,0
133.57619,133.64983,66,48,0
133.57619,133.64983,69,48,0
133.72371,133.7979,66,59,0
133.72371,133.7979,63,59,0
133.72371,133.7979,72,59,0
133.72371,133.7979,69,59,0
133.87236,133.94676,72,54,0
133.87236,133.94676,63,54,0
133.87236,133.94676,66,54,0
133.87236,133.94676,69,54,0
134.02113,134.09552,66,66,0
134.02113,134.09552,63,66,0
134.02113,134.09552,72,66,0
134.02113,134.09552,69,66,0
134.1699,134.2443,72,59,0
134.1699,134.2443,63,59,0
134.1699,134.2443,66,59,0
134.1699,134.2443,69,59,0
134.31866,134.39421,66,70,0
134.31866,134.39421,63,70,0
134.31866,134.39421,72,70,0
134.31866,134.39421,69,70,0
134.46976,134.54338,72,61,0
134.46976,134.54338,63,61,0
134.46976,134.54338,66,61,0
134.46976,134.54338,69,61,0
134.617,134.69255,66,72,0
134.617,134.69255,63,72,0
134.617,134.69255,72,72,0
134.617,134.69255,69,72,0
134.7681,134.84322,72,62,0
134.7681,134.84322,63,62,0
134.7681,134.84322,66,62,0
134.7681,134.84322,69,62,0
134.91774,134.99402,66,74,0
134.91774,134.99402,63,74,0
134.91774,134.99402,72,74,0
134.91774,134.99402,69,74,0
135.07217,135.37923,71,97,0
135.07217,135.37923,68,82,0
135.07217,135.37923,64,82,0
135.37923,135.45227,70,81,0
135.37923,135.45227,73,96,0
135.37923,135.45227,67,81,0
135.5253,135.59834,74,85,0
135.5253,135.59834,70,71,0
135.5253,135.59834,67,71,0
135.67137,135.74652,70,79,0
135.67137,135.74652,76,94,0
135.67137,135.74652,67,79,0
135.82167,135.90555,69,77,0
135.82167,135.90555,78,90,0
135.82167,135.90555,67,77,0
135.98943,136.1454,79,97,0
135.98943,136.1454,70,82,0
135.98943,136.1454,67,82,0
136.29648,136.73903,66,71,0
136.29648,136.74278,70,84,0
136.29648,136.74278,64,71,0
136.74278,136.89656,66,67,0
136.74278,136.89656,71,79,0
136.74278,136.89656,62,67,0
136.91054,137.06255,71,79,0
136.91054,137.06255,66,67,0
136.91054,137.06255,62,67,0
137.06255,137.13753,66,55,0
137.06255,137.13753,63,55,0
137.06255,137.13753,72,55,0
137.06255,137.13753,69,55,0
137.21175,137.28539,72,48,0
137.21175,137.28539,63,48,0
137.21175,137.28539,66,48,0
137.21175,137.28539,69,48,0
137.35928,137.43346,66,59,0
137.35928,137.43346,63,59,0
137.35928,137.43346,72,59,0
137.35928,137.43346,69,59,0
137.50792,137.58232,72,54,0
137.50792,137.58232,63,54,0
137.50792,137.58232,66,54,0
137.50792,137.58232,69,54,0
137.6567,137.73108,66,66,0
137.6567,137.73108,63,66,0
137.6567,137.73108,72,66,0
137.6567,137.73108,69,66,0
137.80547,137.87985,72,59,0
137.80547,137.87985,63,59,0
137.80547,137.87985,66,59,0
137.80547,137.87985,69,59,0
137.95422,138.02977,66,70,0
137.95422,138.02977,63,70,0
137.95422,138.02977,72,70,0
137.95422,138.02977,69,70,0
138.10532,138.17894,72,61,0
138.10532,138.17894,63,61,0
138.10532,138.17894,66,61,0
138.10532,138.17894,69,61,0
138.25256,138.32811,66,73,0
138.25256,138.32811,63,73,0
138.25256,138.32811,72,73,0
138.25256,138.32811,69,73,0
138.40366,138.47878,72,62,0
138.40366,138.47878,63,62,0
138.40366,138.47878,66,62,0
138.40366,138.47878,69,62,0
138.5533,138.62958,66,75,0
138.5533,138.62958,63,75,0
138.5533,138.62958,72,75,0
138.5533,138.62958,69,75,0
138.70773,139.01479,71,97,0
138.70773,139.01479,68,82,0
138.70773,139.01479,64,82,0
139.01479,139.08879,70,81,0
139.01479,139.08879,73,96,0
139.01479,139.08879,67,81,0
139.1628,139.2368,74,85,0
139.1628,139.2368,70,71,0
139.1628,139.2368,67,71,0
139.31079,139.38594,70,79,0
139.31079,139.38594,76,94,0
139.31079,139.38594,67,79,0
139.46109,139.54497,70,77,0
139.46109,139.54497,78,90,0
139.46109,139.54497,67,77,0
139.62885,139.78482,79,97,0
139.62885,139.78482,70,82,0
139.62885,139.78482,67,82,0
139.9359,140.54576,66,71,0
139.9359,140.54996,70,84,0
139.9359,140.54996,64,71,0
140.54996,140.70197,71,94,0
140.54996,140.70197,66,80,0
140.54996,140.70197,62,80,0
140.85306,140.92706,70,81,0
140.85306,140.92706,73,96,0
140.85306,140.92706,67,81,0
141.00105,141.07506,74,85,0
141.00105,141.07506,70,71,0
141.00105,141.07506,67,71,0
141.14906,141.22421,70,79,0
141.14906,141.22421,76,94,0
141.14906,141.22421,67,79,0
141.29936,141.38324,70,77,0
141.29936,141.38324,78,90,0
141.29936,141.38324,67,77,0
141.46712,141.62308,79,97,0
141.46712,141.62308,70,82,0
141.46712,141.62308,67,82,0
141.77417,142.38403,66,81,0
141.77417,142.38823,70,96,0
141.77417,142.38823,64,81,0
142.38823,142.54016,71,108,0
142.38823,142.54016,66,92,0
142.38823,142.54016,62,92,0
142.69109,142.77115,70,89,0
142.69109,142.77115,73,105,0
142.69109,142.77115,67,89,0
142.8512,142.93298,74,93,0
142.8512,142.93298,70,78,0
142.8512,142.93298,67,78,0
143.01413,143.09898,70,86,0
143.01413,143.09898,76,103,0
143.01413,143.09898,67,86,0
143.18375,143.27444,70,83,0
143.18375,143.27444,78,98,0
143.18375,143.27444,67,83,0
143.36388,143.95473,79,106,0
143.36388,143.95473,67,90,0
143.36388,143.95473,73,90,0
143.36388,143.95473,76,90,0
143.36388,143.95473,70,90,0
143.99352,144.14929,70,96,0
143.99352,144.14929,61,81,0
143.99352,144.14929,64,81,0
143.99352,144.14929,66,81,0
144.32628,144.48143,71,108,0
144.32628,144.48143,59,92,0
144.32628,144.48143,62,92,0
144.32628,144.48143,66,92,0
147.75362,147.8304,67,55,0
147.75362,147.8304,64,46,0
147.90717,147.98355,67,47,0
147.90717,147.98355,64,39,0
148.05994,148.13878,62,49,0
148.05994,148.13878,66,49,0
148.2176,148.29645,66,45,0
148.2176,148.29645,62,45,0
148.37529,148.45287,64,52,0
148.37529,148.45287,70,62,0
148.53044,148.60802,70,58,0
148.53044,148.60802,64,49,0
148.6856,148.76193,66,53,0
148.6856,148.76193,71,63,0
148.83829,148.91463,66,51,0
148.83829,148.91463,71,61,0
148.99097,149.07068,73,76,0
148.99097,149.07068,67,64,0
149.15039,149.23236,73,73,0
149.15039,149.23236,67,62,0
149.31432,149.3911,71,67,0
149.31432,149.3911,74,79,0
149.46786,149.54465,71,61,0
149.46786,149.54465,74,72,0
149.62141,149.6982,67,68,0
149.62141,149.6982,73,80,0
149.77496,149.85602,73,69,0
149.77496,149.85602,67,58,0
149.93707,150.01424,66,67,0
149.93707,150.01424,71,79,0
150.0914,150.17111,71,70,0
150.0914,150.17111,66,59,0
150.25082,150.3288,63,62,0
150.25082,150.3288,66,62,0
150.25082,150.3288,69,73,0
150.40678,150.4865,63,51,0
150.40678,150.4865,66,51,0
150.40678,150.4865,69,61,0
150.56621,150.64296,64,60,0
150.56621,150.64296,68,71,0
150.71971,150.79729,64,51,0
150.71971,150.79729,68,61,0
150.87486,150.95285,67,63,0
150.87486,150.95285,64,53,0
151.03084,151.1101,64,49,0
151.03084,151.1101,67,58,0
151.18938,151.26654,61,52,0
151.18938,151.26654,65,62,0
151.3437,151.42087,61,47,0
151.3437,151.42087,65,56,0
151.49803,151.57518,62,52,0
151.49803,151.57518,66,62,0
151.65234,151.73294,62,49,0
151.65234,151.73294,66,58,0
151.81355,151.89154,58,51,0
151.81355,151.89154,61,61,0
151.96953,152.04752,58,42,0
151.96953,152.04752,61,50,0
152.1255,152.20348,59,48,0
152.1255,152.20348,62,57,0
152.28146,152.35945,59,38,0
152.28146,152.35945,62,45,0
152.43744,152.5146,62,51,0
152.43744,152.5146,59,43,0
152.59177,152.66893,59,34,0
152.59177,152.66893,62,40,0
152.74608,152.8245,54,42,0
152.74608,152.8245,59,50,0
152.90291,152.98306,59,43,0
152.90291,152.98306,54,36,0
153.06322,153.1412,54,42,0
153.06322,153.1412,59,50,0
153.2192,153.29718,59,42,0
153.2192,153.29718,54,35,0
153.37517,153.52785,66,50,0
153.69463,153.9885,66,56,0
153.9885,154.05756,68,63,0
154.12555,154.19316,70,69,0
154.26036,154.3271,71,80,0
154.39345,154.47272,73,91,0
154.552,160.08942,74,101,0
0.0,0.07324938,54,43,0
0.14649875,0.21956307,54,39,0
0.29235068,0.36486343,54,40,0
0.43701357,0.5088943,54,37,0
0.58041865,0.6521207,54,40,0
0.7243615,0.7970575,54,37,0
0.87021434,0.94346374,61,32,0
0.87021434,0.94346374,64,40,0
0.87021434,0.94346374,54,36,0
1.0167131,1.0895923,64,37,0
1.0167131,1.0895923,61,29,0
1.0167131,1.0895923,54,29,0
1.1621968,1.2345282,54,32,0
1.1621968,1.2345282,61,32,0
1.1621968,1.2345282,64,40,0
1.3065885,1.3783795,64,37,0
1.3065885,1.3783795,61,29,0
1.3065885,1.3783795,54,29,0
1.4498149,1.5261585,54,32,0
1.4498149,1.5261585,61,32,0
1.4498149,1.5261585,64,40,0
1.6025021,1.685891,64,38,0
1.6025021,1.685891,61,30,0
1.6025021,1.685891,54,30,0
1.7692798,1.8429031,46,40,0
1.9165263,1.9901496,64,43,0
1.9165263,1.9901496,61,33,0
1.9165263,1.9901496,54,33,0
2.0631397,2.1322117,64,47,0
2.0631397,2.1322117,61,37,0
2.0631397,2.1322117,54,37,0
2.2002084,2.2678068,64,50,0
2.2002084,2.2678068,61,39,0
2.2002084,2.2678068,54,39,0
2.3350112,2.4017494,64,53,0
2.3350112,2.4017494,61,42,0
2.3350112,2.4017494,54,42,0
2.468104,2.5473766,64,57,0
2.468104,2.5473766,61,46,0
2.468104,2.5473766,54,46,0
2.6266494,2.7002726,47,60,0
2.7738957,2.847519,54,34,0
2.7738957,2.847519,59,34,0
2.7738957,2.847519,62,43,0
2.9211423,2.9918838,62,52,0
2.9211423,2.9918838,59,41,0
2.9211423,2.9918838,54,41,0
3.062625,3.1333663,62,49,0
3.062625,3.1333663,59,39,0
3.062625,3.1333663,54,39,0
3.2041078,3.2748492,54,44,0
3.2041078,3.2748492,59,44,0
3.2041078,3.2748492,62,56,0
3.3455906,3.416332,62,54,0
3.3455906,3.416332,59,42,0
3.3455906,3.416332,54,42,0
3.4870732,3.5599525,43,67,0
3.6328318,3.7057111,55,39,0
3.6328318,3.7057111,59,39,0
3.6328318,3.7057111,64,49,0
3.7785902,3.8514695,64,55,0
3.7785902,3.8514695,59,44,0
3.7785902,3.8514695,55,44,0
3.9243488,3.9972281,64,52,0
3.9243488,3.9972281,59,42,0
3.9243488,3.9972281,55,42,0
4.0701075,4.1429863,64,57,0
4.0701075,4.1429863,59,46,0
4.0701075,4.1429863,55,46,0
4.2158656,4.2960196,64,66,0
4.2158656,4.2960196,59,52,0
4.2158656,4.2960196,55,52,0
4.3761735,4.4493303,42,73,0
4.522118,4.59454,54,48,0
4.522118,4.59454,58,48,0
4.522118,4.59454,64,61,0
4.6665106,4.738124,54,52,0
4.6665106,4.738124,58,52,0
4.6665106,4.738124,64,66,0
4.8093004,4.88039,54,56,0
4.8093004,4.88039,58,56,0
4.8093004,4.88039,64,70,0
4.9514804,5.02823,54,57,0
4.9514804,5.02823,58,57,0
4.9514804,5.02823,64,72,0
5.10498,5.1888537,64,60,0
5.10498,5.1888537,58,48,0
5.10498,5.1888537,54,48,0
5.2727275,5.345977,46,78,0
5.418677,5.4906473,64,51,0
5.418677,5.4906473,66,61,0
5.418677,5.4906473,54,48,0
5.418677,5.4906473,61,48,0
5.5622606,5.6335235,54,45,0
5.5622606,5.6335235,66,57,0
5.5622606,5.6335235,64,48,0
5.5622606,5.6335235,61,45,0
5.704439,5.7704077,64,53,0
5.704439,5.7704077,66,63,0
5.704439,5.7704077,54,50,0
5.704439,5.7704077,61,50,0
5.8363767,5.906346,64,54,0
5.8363767,5.906346,66,64,0
5.8363767,5.906346,54,51,0
5.8363767,5.906346,61,51,0
5.976315,6.058751,64,57,0
5.976315,6.058751,66,68,0
5.976315,6.058751,54,54,0
5.976315,6.058751,61,54,0
6.1411867,6.21481,47,75,0
6.288065,6.360215,54,48,0
6.288065,6.360215,66,60,0
6.288065,6.360215,62,51,0
6.288065,6.360215,59,48,0
6.4322753,6.5040665,54,48,0
6.4322753,6.5040665,66,60,0
6.4322753,6.5040665,62,51,0
6.4322753,6.5040665,59,48,0
6.5757685,6.647204,54,44,0
6.5757685,6.647204,66,56,0
6.5757685,6.647204,62,47,0
6.5757685,6.647204,59,44,0
6.7184668,6.7940106,54,50,0
6.7184668,6.7940106,66,63,0
6.7184668,6.7940106,62,53,0
6.7184668,6.7940106,59,50,0
6.8695545,6.948394,54,46,0
6.8695545,6.948394,66,58,0
6.8695545,6.948394,62,49,0
6.8695545,6.948394,59,46,0
7.027233,7.17448,49,75,0
7.17448,7.248103,61,55,0
7.17448,7.248103,59,43,0
7.17448,7.248103,53,43,0
7.3217263,7.3953495,61,61,0
7.3217263,7.3953495,59,48,0
7.3217263,7.3953495,53,48,0
7.4689727,7.542596,53,42,0
7.4689727,7.542596,59,42,0
7.4689727,7.542596,61,53,0
7.616219,7.692563,54,49,0
7.616219,7.692563,59,49,0
7.616219,7.692563,61,62,0
7.7689066,7.850874,56,56,0
7.7689066,7.850874,59,45,0
7.7689066,7.850874,61,56,0
7.932841,8.008782,61,67,0
7.932841,8.008782,58,52,0
7.932841,8.008782,54,52,0
8.084724,8.1606655,61,49,0
8.084724,8.1606655,58,38,0
8.084724,8.1606655,54,38,0
8.236608,8.310609,61,52,0
8.236608,8.310609,58,42,0
8.236608,8.310609,54,42,0
8.384609,8.458611,54,32,0
8.384609,8.458611,58,32,0
8.384609,8.458611,61,41,0
8.532612,8.606612,61,46,0
8.532612,8.606612,58,36,0
8.532612,8.606612,54,36,0
8.6806135,8.754615,54,32,0
8.6806135,8.754615,58,32,0
8.6806135,8.754615,61,40,0
8.828615,8.902239,46,40,0
8.9758625,9.049485,64,43,0
8.9758625,9.049485,61,33,0
8.9758625,9.049485,54,33,0
9.122476,9.191547,64,47,0
9.122476,9.191547,61,37,0
9.122476,9.191547,54,37,0
9.259544,9.327143,64,50,0
9.259544,9.327143,61,39,0
9.259544,9.327143,54,39,0
9.394347,9.461085,64,53,0
9.394347,9.461085,61,42,0
9.394347,9.461085,54,42,0
9.527439,9.606712,64,57,0
9.527439,9.606712,61,46,0
9.527439,9.606712,54,46,0
9.685985,9.759608,47,60,0
9.833231,9.906855,54,34,0
9.833231,9.906855,59,34,0
9.833231,9.906855,62,43,0
9.980478,10.051219,62,52,0
9.980478,10.051219,59,41,0
9.980478,10.051219,54,41,0
10.121961,10.192702,62,49,0
10.121961,10.192702,59,39,0
10.121961,10.192702,54,39,0
10.263443,10.334185,54,44,0
10.263443,10.334185,59,44,0
10.263443,10.334185,62,57,0
10.404926,10.475668,62,55,0
10.404926,10.475668,59,42,0
10.404926,10.475668,54,42,0
10.546409,10.619288,47,69,0
10.692167,10.765047,56,40,0
10.692167,10.765047,61,40,0
10.692167,10.765047,65,50,0
10.837926,10.910805,65,56,0
10.837926,10.910805,61,45,0
10.837926,10.910805,56,45,0
10.983685,11.056563,65,54,0
10.983685,11.056563,61,43,0
10.983685,11.056563,56,43,0
11.129443,11.202322,65,59,0
11.129443,11.202322,61,47,0
11.129443,11.202322,56,47,0
11.275202,11.355355,65,68,0
11.275202,11.355355,61,54,0
11.275202,11.355355,56,54,0
11.435509,11.508666,45,73,0
11.581453,11.653875,54,48,0
11.581453,11.653875,66,61,0
11.581453,11.653875,61,51,0
11.581453,11.653875,57,48,0
11.725846,11.79746,54,52,0
11.725846,11.79746,66,66,0
11.725846,11.79746,61,56,0
11.725846,11.79746,57,52,0
11.868636,11.939465,54,56,0
11.868636,11.939465,66,70,0
11.868636,11.939465,61,59,0
11.868636,11.939465,57,56,0
12.00986,12.086611,54,57,0
12.00986,12.086611,66,72,0
12.00986,12.086611,61,61,0
12.00986,12.086611,57,57,0
12.163361,12.247234,61,51,0
12.163361,12.247234,66,60,0
12.163361,12.247234,54,48,0
12.163361,12.247234,57,48,0
12.331108,12.404357,47,78,0
12.477057,12.549027,62,61,0
12.477057,12.549027,56,48,0
12.477057,12.549027,54,48,0
12.620641,12.691903,54,45,0
12.620641,12.691903,56,45,0
12.620641,12.691903,62,57,0
12.762994,12.83075,62,63,0
12.762994,12.83075,56,50,0
12.762994,12.83075,54,50,0
12.898507,12.969469,62,64,0
12.898507,12.969469,56,51,0
12.898507,12.969469,54,51,0
13.040432,13.120585,62,68,0
13.040432,13.120585,56,54,0
13.040432,13.120585,54,54,0
13.200739,13.273896,49,73,0
13.3466835,13.419106,54,48,0
13.3466835,13.419106,66,61,0
13.3466835,13.419106,61,51,0
13.3466835,13.419106,57,48,0
13.491076,13.56269,54,52,0
13.491076,13.56269,66,66,0
13.491076,13.56269,61,56,0
13.491076,13.56269,57,52,0
13.633866,13.704695,54,56,0
13.633866,13.704695,66,70,0
13.633866,13.704695,61,59,0
13.633866,13.704695,57,56,0
13.77509,13.851841,54,57,0
13.77509,13.851841,66,72,0
13.77509,13.851841,61,61,0
13.77509,13.851841,57,57,0
13.928591,14.012465,61,51,0
13.928591,14.012465,66,60,0
13.928591,14.012465,54,48,0
13.928591,14.012465,57,48,0
14.096338,14.169587,47,78,0
14.242288,14.314258,62,61,0
14.242288,14.314258,56,48,0
14.242288,14.314258,54,48,0
14.385871,14.457133,54,45,0
14.385871,14.457133,56,45,0
14.385871,14.457133,62,57,0
14.528049,14.5949,62,63,0
14.528049,14.5949,56,50,0
14.528049,14.5949,54,50,0
14.664153,14.735453,62,64,0
14.664153,14.735453,56,51,0
14.664153,14.735453,54,51,0
14.806752,14.889189,62,68,0
14.806752,14.889189,56,54,0
14.806752,14.889189,54,54,0
14.971624,15.048784,57,61,0
14.971624,15.048784,54,48,0
14.971624,15.048784,49,48,0
15.125945,15.203106,49,45,0
15.125945,15.203106,54,45,0
15.125945,15.203106,57,57,0
15.280266,15.357427,57,63,0
15.280266,15.357427,54,50,0
15.280266,15.357427,49,50,0
15.890899,15.964522,49,55,0
15.890899,15.964522,59,63,0
16.038145,16.111769,59,56,0
16.038145,16.111769,49,49,0
16.185392,16.484522,59,56,0
16.185392,16.484522,49,49,0
16.796713,16.870714,49,58,0
16.796713,16.870714,61,66,0
16.944715,17.018715,61,56,0
16.944715,17.018715,49,49,0
17.092716,17.392601,49,53,0
17.092716,17.392601,61,60,0
17.70303,17.77703,49,59,0
17.70303,17.77703,62,67,0
17.851032,17.925034,62,56,0
17.851032,17.925034,49,49,0
17.999035,18.299725,49,51,0
17.999035,18.299725,62,58,0
18.611834,18.685833,49,61,0
18.611834,18.685833,61,70,0
18.759834,18.833836,61,57,0
18.759834,18.833836,49,50,0
18.907837,19.206926,49,54,0
18.907837,19.206926,61,62,0
19.518322,19.592323,49,64,0
19.518322,19.592323,59,73,0
19.666325,19.740326,49,55,0
19.666325,19.740326,59,63,0
19.814325,20.118301,59,56,0
19.814325,20.118301,49,49,0
20.470224,20.549936,38,87,0
20.629646,20.70559,50,51,0
20.629646,20.70559,62,52,0
20.629646,20.70559,69,65,0
20.629646,20.70559,66,52,0
20.629646,20.70559,57,51,0
20.78153,20.85441,50,55,0
20.78153,20.85441,62,56,0
20.78153,20.85441,69,71,0
20.78153,20.85441,66,56,0
20.78153,20.85441,57,55,0
20.927288,21.000168,50,60,0
20.927288,21.000168,62,60,0
20.927288,21.000168,69,75,0
20.927288,21.000168,66,60,0
20.927288,21.000168,57,60,0
21.073048,21.148197,50,61,0
21.073048,21.148197,62,61,0
21.073048,21.148197,69,77,0
21.073048,21.148197,66,61,0
21.073048,21.148197,57,61,0
21.223349,21.301334,62,51,0
21.223349,21.301334,50,51,0
21.223349,21.301334,69,64,0
21.223349,21.301334,66,51,0
21.223349,21.301334,57,51,0
21.379322,21.456095,50,62,0
21.379322,21.456095,60,62,0
21.379322,21.456095,66,62,0
21.379322,21.456095,62,62,0
21.379322,21.456095,57,62,0
21.379322,21.456095,69,79,0
21.53287,21.609642,50,57,0
21.53287,21.609642,60,57,0
21.53287,21.609642,66,57,0
21.53287,21.609642,62,57,0
21.53287,21.609642,57,57,0
21.53287,21.609642,69,73,0
21.686415,21.766127,50,62,0
21.686415,21.766127,60,68,0
21.686415,21.766127,57,62,0
21.686415,21.766127,62,79,0
21.845837,21.925549,57,67,0
21.845837,21.925549,62,67,0
21.845837,21.925549,66,67,0
21.845837,21.925549,60,67,0
21.845837,21.925549,50,67,0
21.845837,21.925549,69,80,0
22.005259,22.090612,50,68,0
22.005259,22.090612,60,68,0
22.005259,22.090612,62,86,0
22.005259,22.090612,57,68,0
22.175966,22.270235,50,57,0
22.175966,22.270235,60,57,0
22.175966,22.270235,62,57,0
22.175966,22.270235,66,57,0
22.175966,22.270235,69,72,0
22.175966,22.270235,57,57,0
22.364502,22.443342,43,87,0
22.522182,22.60102,55,55,0
22.522182,22.60102,62,55,0
22.522182,22.60102,67,70,0
22.522182,22.60102,59,55,0
22.679861,22.754622,55,58,0
22.679861,22.754622,59,74,0
22.829382,22.904142,55,60,0
22.829382,22.904142,59,75,0
22.978905,23.052904,55,59,0
22.978905,23.052904,58,74,0
23.126905,23.20706,58,60,0
23.126905,23.20706,55,47,0
23.287214,23.361975,45,69,0
23.436735,23.511496,52,45,0
23.436735,23.511496,57,45,0
23.436735,23.511496,62,58,0
23.436735,23.511496,55,45,0
23.586256,23.661016,55,49,0
23.586256,23.661016,52,49,0
23.586256,23.661016,57,49,0
23.586256,23.661016,62,63,0
23.735779,23.81054,55,53,0
23.735779,23.81054,52,53,0
23.735779,23.81054,57,53,0
23.735779,23.81054,62,67,0
23.8853,23.96006,52,54,0
23.8853,23.96006,57,68,0
23.8853,23.96006,55,54,0
24.03482,24.11366,64,57,0
24.03482,24.11366,61,45,0
24.03482,24.11366,57,45,0
24.03482,24.11366,55,45,0
24.03482,24.11366,52,45,0
24.1925,24.266882,50,69,0
24.341265,24.414145,54,45,0
24.341265,24.414145,62,58,0
24.341265,24.414145,57,45,0
24.487024,24.559902,62,63,0
24.487024,24.559902,57,49,0
24.487024,24.559902,54,49,0
24.632782,24.708326,62,67,0
24.632782,24.708326,57,53,0
24.632782,24.708326,54,53,0
24.78387,24.863142,54,54,0
24.78387,24.863142,62,68,0
24.78387,24.863142,57,54,0
24.942415,25.02678,62,57,0
24.942415,25.02678,54,45,0
24.942415,25.02678,57,45,0
25.111145,25.183657,50,69,0
25.25617,25.328682,57,57,0
25.25617,25.328682,66,57,0
25.25617,25.328682,62,57,0
25.25617,25.328682,60,57,0
25.25617,25.328682,69,73,0
25.401196,25.474445,62,79,0
25.401196,25.474445,57,62,0
25.401196,25.474445,60,68,0
25.547695,25.620943,57,67,0
25.547695,25.620943,66,67,0
25.547695,25.620943,60,67,0
25.547695,25.620943,62,67,0
25.547695,25.620943,69,79,0
25.694193,25.770134,57,68,0
25.694193,25.770134,62,86,0
25.694193,25.770134,60,68,0
25.846077,25.928043,69,72,0
25.846077,25.928043,62,57,0
25.846077,25.928043,66,57,0
25.846077,25.928043,60,57,0
25.846077,25.928043,57,57,0
26.010012,26.08216,55,87,0
26.15431,26.226461,62,53,0
26.15431,26.226461,59,53,0
26.29861,26.373371,62,54,0
26.29861,26.373371,59,69,0
26.448133,26.522894,62,54,0
26.448133,26.522894,59,67,0
26.597654,26.671656,62,51,0
26.597654,26.671656,59,64,0
26.745657,26.82581,59,50,0
26.745657,26.82581,62,39,0
27.055485,27.128735,60,44,0
27.055485,27.128735,55,44,0
27.201984,27.275234,60,59,0
27.201984,27.275234,55,44,0
27.348482,27.421732,60,44,0
27.348482,27.421732,55,44,0
27.201984,27.494982,52,50,0
27.643747,27.71813,60,44,0
27.643747,27.71813,55,44,0
27.494982,27.792513,51,54,0
27.942034,28.016794,59,44,0
27.942034,28.016794,55,44,0
28.091555,28.164804,59,59,0
28.091555,28.164804,55,44,0
28.238054,28.311304,59,44,0
28.238054,28.311304,55,44,0
26.905964,28.384552,43,55,0
28.53564,28.611185,59,37,0
28.53564,28.611185,55,37,0
28.83625,28.9095,60,37,0
28.83625,28.9095,55,37,0
28.982748,29.055998,60,50,0
28.982748,29.055998,55,37,0
29.129248,29.202497,60,37,0
29.129248,29.202497,55,37,0
28.982748,29.275745,52,42,0
29.426834,29.502378,60,37,0
29.426834,29.502378,55,37,0
29.275745,29.57792,51,45,0
29.726686,29.799936,59,37,0
29.726686,29.799936,55,31,0
29.873186,29.946434,59,51,0
29.873186,29.946434,55,32,0
30.019684,30.092934,59,39,0
30.019684,30.092934,55,33,0
29.57792,30.166183,50,45,0
28.686728,30.166183,43,46,0
30.166183,30.240566,59,55,0
30.166183,30.240566,55,46,0
30.314949,30.39089,59,41,0
30.314949,30.39089,55,34,0
30.466831,30.541983,55,35,0
30.466831,30.541983,59,43,0
30.616308,30.69031,59,44,0
30.616308,30.69031,55,37,0
30.763945,30.837395,59,45,0
30.763945,30.837395,55,38,0
30.910643,30.983536,59,46,0
30.910643,30.983536,55,39,0
31.215836,31.301697,62,38,0
31.215836,31.301697,59,30,0
31.056414,31.38756,54,32,0
31.38756,31.461182,46,40,0
31.534805,31.608429,64,43,0
31.534805,31.608429,61,33,0
31.534805,31.608429,54,33,0
31.68142,31.75049,64,47,0
31.68142,31.75049,61,37,0
31.68142,31.75049,54,37,0
31.818487,31.886086,64,50,0
31.818487,31.886086,61,39,0
31.818487,31.886086,54,39,0
31.95329,32.020027,64,53,0
31.95329,32.020027,61,42,0
31.95329,32.020027,54,42,0
32.086384,32.165657,64,57,0
32.086384,32.165657,61,46,0
32.086384,32.165657,54,46,0
32.24493,32.31855,47,60,0
32.392174,32.465797,54,34,0
32.392174,32.465797,59,34,0
32.392174,32.465797,62,43,0
32.53942,32.610165,62,52,0
32.53942,32.610165,59,41,0
32.53942,32.610165,54,41,0
32.680904,32.751644,62,49,0
32.680904,32.751644,59,39,0
32.680904,32.751644,54,39,0
32.822388,32.893127,54,44,0
32.822388,32.893127,59,44,0
32.822388,32.893127,62,56,0
32.96387,33.03461,62,54,0
32.96387,33.03461,59,42,0
32.96387,33.03461,54,42,0
33.105354,33.175068,43,67,0
33.244785,33.3145,55,39,0
33.244785,33.3145,59,39,0
33.244785,33.3145,64,49,0
33.384216,33.457092,64,55,0
33.384216,33.457092,59,44,0
33.384216,33.457092,55,44,0
33.529972,33.60285,64,52,0
33.529972,33.60285,59,42,0
33.529972,33.60285,55,42,0
33.67573,33.74861,64,57,0
33.67573,33.74861,59,46,0
33.67573,33.74861,55,46,0
33.82149,33.901646,64,66,0
33.82149,33.901646,59,52,0
33.82149,33.901646,55,52,0
33.981796,34.054955,42,73,0
34.127743,34.200165,54,48,0
34.127743,34.200165,58,48,0
34.127743,34.200165,64,61,0
34.272137,34.343746,54,52,0
34.272137,34.343746,58,52,0
34.272137,34.343746,64,66,0
34.414925,34.485752,54,56,0
34.414925,34.485752,58,56,0
34.414925,34.485752,64,70,0
34.55615,34.6329,54,57,0
34.55615,34.6329,58,57,0
34.55615,34.6329,64,72,0
34.70965,34.79352,64,60,0
34.70965,34.79352,58,48,0
34.70965,34.79352,54,48,0
34.877396,34.950645,46,78,0
35.023346,35.095318,64,51,0
35.023346,35.095318,66,61,0
35.023346,35.095318,54,48,0
35.023346,35.095318,61,48,0
35.16693,35.238194,54,45,0
35.16693,35.238194,66,57,0
35.16693,35.238194,64,48,0
35.16693,35.238194,61,45,0
35.30911,35.379677,64,53,0
35.30911,35.379677,66,63,0
35.30911,35.379677,54,50,0
35.30911,35.379677,61,50,0
35.449818,35.51788,64,54,0
35.449818,35.51788,66,64,0
35.449818,35.51788,54,51,0
35.449818,35.51788,61,51,0
35.585945,35.66838,64,57,0
35.585945,35.66838,66,68,0
35.585945,35.66838,54,54,0
35.585945,35.66838,61,54,0
35.750816,35.82444,47,75,0
35.897694,35.969845,54,48,0
35.897694,35.969845,66,60,0
35.897694,35.969845,62,51,0
35.897694,35.969845,59,48,0
36.041904,36.113697,54,48,0
36.041904,36.113697,66,60,0
36.041904,36.113697,62,51,0
36.041904,36.113697,59,48,0
36.1854,36.256832,54,44,0
36.1854,36.256832,66,56,0
36.1854,36.256832,62,47,0
36.1854,36.256832,59,44,0
36.328094,36.40364,54,50,0
36.328094,36.40364,66,63,0
36.328094,36.40364,62,53,0
36.328094,36.40364,59,50,0
36.479183,36.55802,54,46,0
36.479183,36.55802,66,58,0
36.479183,36.55802,62,49,0
36.479183,36.55802,59,46,0
36.636864,36.78411,49,75,0
36.78411,36.85773,61,55,0
36.78411,36.85773,59,43,0
36.78411,36.85773,53,43,0
36.931355,37.00498,61,61,0
36.931355,37.00498,59,48,0
36.931355,37.00498,53,48,0
37.0786,37.152225,53,42,0
37.0786,37.152225,59,42,0
37.0786,37.152225,61,53,0
37.22585,37.302193,54,49,0
37.22585,37.302193,59,49,0
37.22585,37.302193,61,62,0
37.378536,37.460503,56,56,0
37.378536,37.460503,59,45,0
37.378536,37.460503,61,56,0
37.54247,37.618412,61,67,0
37.54247,37.618412,58,52,0
37.54247,37.618412,54,52,0
37.694355,37.770294,61,49,0
37.694355,37.770294,58,38,0
37.694355,37.770294,54,38,0
37.846237,37.92024,61,52,0
37.846237,37.92024,58,42,0
37.846237,37.92024,54,42,0
37.99424,38.06824,54,32,0
37.99424,38.06824,58,32,0
37.99424,38.06824,61,41,0
38.142242,38.216244,61,46,0
38.142242,38.216244,58,36,0
38.142242,38.216244,54,36,0
38.29024,38.364243,54,32,0
38.29024,38.364243,58,32,0
38.29024,38.364243,61,40,0
38.438244,38.511868,46,40,0
38.58549,38.659115,64,43,0
38.58549,38.659115,61,33,0
38.58549,38.659115,54,33,0
38.732105,38.801178,64,47,0
38.732105,38.801178,61,37,0
38.732105,38.801178,54,37,0
38.869175,38.93677,64,50,0
38.869175,38.93677,61,39,0
38.869175,38.93677,54,39,0
39.003975,39.070713,64,53,0
39.003975,39.070713,61,42,0
39.003975,39.070713,54,42,0
39.13707,39.216343,64,57,0
39.13707,39.216343,61,46,0
39.13707,39.216343,54,46,0
39.295616,39.369236,47,60,0
39.44286,39.516483,54,34,0
39.44286,39.516483,59,34,0
39.44286,39.516483,62,43,0
39.590107,39.66085,62,52,0
39.590107,39.66085,59,41,0
39.590107,39.66085,54,41,0
39.73159,39.80233,62,49,0
39.73159,39.80233,59,39,0
39.73159,39.80233,54,39,0
39.873074,39.943813,54,44,0
39.873074,39.943813,59,44,0
39.873074,39.943813,62,57,0
40.014557,40.085297,62,55,0
40.014557,40.085297,59,42,0
40.014557,40.085297,54,42,0
40.15604,40.224113,47,69,0
40.29219,40.36544,56,40,0
40.29219,40.36544,61,40,0
40.29219,40.36544,65,50,0
40.43869,40.51194,65,56,0
40.43869,40.51194,61,45,0
40.43869,40.51194,56,45,0
40.58519,40.65844,65,54,0
40.58519,40.65844,61,43,0
40.58519,40.65844,56,43,0
40.73169,40.804935,65,59,0
40.73169,40.804935,61,47,0
40.73169,40.804935,56,47,0
40.878185,40.95834,65,68,0
40.878185,40.95834,61,54,0
40.878185,40.95834,56,54,0
41.038494,41.111652,45,73,0
41.18444,41.256863,54,48,0
41.18444,41.256863,66,61,0
41.18444,41.256863,61,51,0
41.18444,41.256863,57,48,0
41.32883,41.400444,54,52,0
41.32883,41.400444,66,66,0
41.32883,41.400444,61,56,0
41.32883,41.400444,57,52,0
41.471622,41.54245,54,56,0
41.471622,41.54245,66,70,0
41.471622,41.54245,61,59,0
41.471622,41.54245,57,56,0
41.612846,41.689594,54,57,0
41.612846,41.689594,66,72,0
41.612846,41.689594,61,61,0
41.612846,41.689594,57,57,0
41.766346,41.85022,61,51,0
41.766346,41.85022,66,60,0
41.766346,41.85022,54,48,0
41.766346,41.85022,57,48,0
41.934093,42.007343,47,78,0
42.080044,42.15201,62,61,0
42.080044,42.15201,56,48,0
42.080044,42.15201,54,48,0
42.223625,42.294888,54,45,0
42.223625,42.294888,56,45,0
42.223625,42.294888,62,57,0
42.365803,42.436375,62,63,0
42.365803,42.436375,56,50,0
42.365803,42.436375,54,50,0
42.50651,42.574886,62,64,0
42.50651,42.574886,56,51,0
42.50651,42.574886,54,51,0
42.64326,42.725697,62,68,0
42.64326,42.725697,56,54,0
42.64326,42.725697,54,54,0
42.808132,42.88129,49,73,0
42.95408,43.0265,54,48,0
42.95408,43.0265,66,61,0
42.95408,43.0265,61,51,0
42.95408,43.0265,57,48,0
43.09847,43.170082,54,52,0
43.09847,43.170082,66,66,0
43.09847,43.170082,61,56,0
43.09847,43.170082,57,52,0
43.24126,43.312088,54,56,0
43.24126,43.312088,66,70,0
43.24126,43.312088,61,59,0
43.24126,43.312088,57,56,0
43.382484,43.459236,54,57,0
43.382484,43.459236,66,72,0
43.382484,43.459236,61,61,0
43.382484,43.459236,57,57,0
43.535984,43.619858,61,51,0
43.535984,43.619858,66,60,0
43.535984,43.619858,54,48,0
43.535984,43.619858,57,48,0
43.70373,43.77698,47,78,0
43.84968,43.92165,62,61,0
43.84968,43.92165,56,48,0
43.84968,43.92165,54,48,0
43.993263,44.06453,54,45,0
43.993263,44.06453,56,45,0
43.993263,44.06453,62,57,0
44.135445,44.206013,62,63,0
44.135445,44.206013,56,50,0
44.135445,44.206013,54,50,0
44.276154,44.345474,62,64,0
44.276154,44.345474,56,51,0
44.276154,44.345474,54,51,0
44.414795,44.497234,62,68,0
44.414795,44.497234,56,54,0
44.414795,44.497234,54,54,0
44.57967,44.65683,57,61,0
44.57967,44.65683,54,48,0
44.57967,44.65683,49,48,0
44.73399,44.81115,49,45,0
44.73399,44.81115,54,45,0
44.73399,44.81115,57,57,0
44.88831,44.96547,57,63,0
44.88831,44.96547,54,50,0
44.88831,44.96547,49,50,0
45.498943,45.572567,49,55,0
45.498943,45.572567,59,63,0
45.64619,45.719814,59,56,0
45.64619,45.719814,49,49,0
45.793434,46.092567,59,56,0
45.793434,46.092567,49,49,0
46.40476,46.478756,49,58,0
46.40476,46.478756,61,66,0
46.552757,46.62676,61,56,0
46.552757,46.62676,49,49,0
46.70076,47.000645,49,53,0
46.70076,47.000645,61,60,0
47.311073,47.385075,49,59,0
47.311073,47.385075,62,67,0
47.459076,47.533077,62,56,0
47.459076,47.533077,49,49,0
47.60708,47.90777,49,51,0
47.60708,47.90777,62,58,0
48.219875,48.293877,49,61,0
48.219875,48.293877,61,70,0
48.367878,48.44188,61,57,0
48.367878,48.44188,49,50,0
48.51588,48.814972,49,54,0
48.51588,48.814972,61,62,0
49.126366,49.200367,49,64,0
49.126366,49.200367,59,73,0
49.27437,49.34837,49,55,0
49.27437,49.34837,59,63,0
49.42237,49.726345,59,56,0
49.42237,49.726345,49,49,0
50.07827,50.15798,38,87,0
50.23769,50.313633,50,51,0
50.23769,50.313633,62,52,0
50.23769,50.313633,69,65,0
50.23769,50.313633,66,52,0
50.23769,50.313633,57,51,0
50.389576,50.462452,50,55,0
50.389576,50.462452,62,56,0
50.389576,50.462452,69,71,0
50.389576,50.462452,66,56,0
50.389576,50.462452,57,55,0
50.53533,50.60821,50,60,0
50.53533,50.60821,62,60,0
50.53533,50.60821,69,75,0
50.53533,50.60821,66,60,0
50.53533,50.60821,57,60,0
50.68109,50.75624,50,61,0
50.68109,50.75624,62,61,0
50.68109,50.75624,69,77,0
50.68109,50.75624,66,61,0
50.68109,50.75624,57,61,0
50.83139,50.909378,62,51,0
50.83139,50.909378,50,51,0
50.83139,50.909378,69,64,0
50.83139,50.909378,66,51,0
50.83139,50.909378,57,51,0
50.987366,51.06828,50,62,0
50.987366,51.06828,60,62,0
50.987366,51.06828,66,62,0
50.987366,51.06828,62,62,0
50.987366,51.06828,57,62,0
50.987366,51.06828,69,79,0
51.149197,51.23011,50,57,0
51.149197,51.23011,60,57,0
51.149197,51.23011,66,57,0
51.149197,51.23011,62,57,0
51.149197,51.23011,57,57,0
51.149197,51.23011,69,73,0
51.311024,51.390736,50,62,0
51.311024,51.390736,60,68,0
51.311024,51.390736,57,62,0
51.311024,51.390736,62,79,0
51.470448,51.55016,57,67,0
51.470448,51.55016,62,67,0
51.470448,51.55016,66,67,0
51.470448,51.55016,60,67,0
51.470448,51.55016,50,67,0
51.470448,51.55016,69,77,0
51.629868,51.71522,50,68,0
51.629868,51.71522,60,68,0
51.629868,51.71522,62,86,0
51.629868,51.71522,57,68,0
51.800575,51.894844,50,57,0
51.800575,51.894844,60,57,0
51.800575,51.894844,62,57,0
51.800575,51.894844,66,57,0
51.800575,51.894844,69,72,0
51.800575,51.894844,57,57,0
51.989113,52.06795,43,87,0
52.146793,52.22563,55,55,0
52.146793,52.22563,62,55,0
52.146793,52.22563,67,70,0
52.146793,52.22563,59,55,0
52.30447,52.37923,55,58,0
52.30447,52.37923,59,74,0
52.45399,52.52875,55,60,0
52.45399,52.52875,59,75,0
52.60351,52.677513,55,59,0
52.60351,52.677513,58,74,0
52.751514,52.83167,58,60,0
52.751514,52.83167,55,47,0
52.911823,52.986584,45,69,0
53.061344,53.136105,52,45,0
53.061344,53.136105,57,45,0
53.061344,53.136105,62,58,0
53.061344,53.136105,55,45,0
53.210865,53.285625,55,49,0
53.210865,53.285625,52,49,0
53.210865,53.285625,57,49,0
53.210865,53.285625,62,63,0
53.360386,53.43515,55,53,0
53.360386,53.43515,52,53,0
53.360386,53.43515,57,53,0
53.360386,53.43515,62,67,0
53.50991,53.58467,52,54,0
53.50991,53.58467,57,68,0
53.50991,53.58467,55,54,0
53.65943,53.73827,64,57,0
53.65943,53.73827,61,45,0
53.65943,53.73827,57,45,0
53.65943,53.73827,55,45,0
53.65943,53.73827,52,45,0
53.81711,53.89149,50,69,0
53.965874,54.038754,54,45,0
53.965874,54.038754,62,58,0
53.965874,54.038754,57,45,0
54.111633,54.184513,62,63,0
54.111633,54.184513,57,49,0
54.111633,54.184513,54,49,0
54.257393,54.332935,62,67,0
54.257393,54.332935,57,53,0
54.257393,54.332935,54,53,0
54.40848,54.48775,54,54,0
54.40848,54.48775,62,68,0
54.40848,54.48775,57,54,0
54.567024,54.65139,62,57,0
54.567024,54.65139,54,45,0
54.567024,54.65139,57,45,0
54.735756,54.806496,50,69,0
54.877235,54.94798,57,57,0
54.877235,54.94798,66,57,0
54.877235,54.94798,62,57,0
54.877235,54.94798,60,57,0
54.877235,54.94798,69,73,0
55.01872,55.09197,62,79,0
55.01872,55.09197,57,62,0
55.01872,55.09197,60,68,0
55.16522,55.23847,57,67,0
55.16522,55.23847,66,67,0
55.16522,55.23847,60,67,0
55.16522,55.23847,62,67,0
55.16522,55.23847,69,76,0
55.311718,55.387657,57,68,0
55.311718,55.387657,62,86,0
55.311718,55.387657,60,68,0
55.4636,55.545567,69,72,0
55.4636,55.545567,62,57,0
55.4636,55.545567,66,57,0
55.4636,55.545567,60,57,0
55.4636,55.545567,57,57,0
55.627537,55.699684,55,87,0
55.771835,55.843987,62,53,0
55.771835,55.843987,59,53,0
55.916134,55.9909,62,54,0
55.916134,55.9909,59,69,0
56.06566,56.14042,62,54,0
56.06566,56.14042,59,67,0
56.21518,56.28918,62,51,0
56.21518,56.28918,59,64,0
56.363182,56.443333,59,50,0
56.363182,56.443333,62,39,0
56.673008,56.745888,60,44,0
56.673008,56.745888,55,44,0
56.818768,56.891647,60,59,0
56.818768,56.891647,55,44,0
56.964527,57.037407,60,44,0
56.964527,57.037407,55,44,0
56.818768,57.110287,52,50,0
57.263786,57.340534,60,44,0
57.263786,57.340534,55,44,0
57.110287,57.417286,51,54,0
57.566807,57.639687,59,44,0
57.566807,57.639687,55,44,0
57.712566,57.785442,59,59,0
57.712566,57.785442,55,44,0
57.858322,57.931202,59,44,0
57.858322,57.931202,55,44,0
56.523487,58.00408,43,55,0
58.153603,58.228363,59,37,0
58.153603,58.228363,55,37,0
58.452644,58.525524,60,37,0
58.452644,58.525524,55,37,0
58.598404,58.671284,60,50,0
58.598404,58.671284,55,37,0
58.744164,58.817043,60,37,0
58.744164,58.817043,55,37,0
58.598404,58.889923,52,42,0
59.040222,59.11537,60,37,0
59.040222,59.11537,55,37,0
58.889923,59.19052,51,45,0
59.340046,59.413292,59,37,0
59.340046,59.413292,55,31,0
59.48654,59.55979,59,51,0
59.48654,59.55979,55,32,0
59.63304,59.70629,59,39,0
59.63304,59.70629,55,33,0
59.19052,59.77954,50,45,0
58.303123,59.77954,43,46,0
59.931423,60.011578,59,41,0
59.931423,60.011578,55,34,0
60.240498,60.313377,59,37,0
60.240498,60.313377,55,31,0
60.386253,60.459133,59,51,0
60.386253,60.459133,55,32,0
60.532013,60.604893,59,39,0
60.532013,60.604893,55,33,0
60.386253,60.677773,43,46,0
60.386253,60.677773,31,43,0
60.82807,60.90322,59,41,0
60.82807,60.90322,55,34,0
61.127895,61.20152,62,41,0
61.127895,61.20152,59,34,0
61.275143,61.348766,62,58,0
61.275143,61.348766,59,36,0
61.422386,61.49601,62,45,0
61.422386,61.49601,59,38,0
61.275143,61.569633,44,52,0
61.275143,61.569633,32,49,0
61.719936,61.797512,62,50,0
61.719936,61.797512,59,41,0
62.02385,62.0971,62,46,0
62.02385,62.0971,59,39,0
62.31685,62.3901,62,51,0
62.31685,62.3901,59,43,0
62.17035,62.46335,40,55,0
62.17035,62.46335,52,59,0
62.609844,62.68783,62,56,0
62.609844,62.68783,59,46,0
62.91534,62.988964,61,51,0
62.91534,62.988964,57,43,0
63.062588,63.13621,61,71,0
63.062588,63.13621,57,44,0
63.209835,63.28346,61,54,0
63.209835,63.28346,57,46,0
63.062588,63.357082,45,64,0
63.062588,63.357082,33,60,0
63.504326,63.58149,61,41,0
63.504326,63.58149,57,34,0
63.80817,63.88142,61,39,0
63.80817,63.88142,57,33,0
63.95467,64.027916,61,56,0
63.95467,64.027916,57,35,0
64.101166,64.174416,61,44,0
64.101166,64.174416,57,37,0
63.95467,64.247665,45,51,0
63.95467,64.247665,33,47,0
64.394165,64.47133,61,49,0
64.394165,64.47133,57,40,0
64.69725,64.76976,64,46,0
64.69725,64.76976,61,38,0
64.84228,64.91479,64,65,0
64.84228,64.91479,61,40,0
64.987305,65.059814,64,51,0
64.987305,65.059814,61,43,0
64.84228,65.132324,46,58,0
64.84228,65.132324,34,55,0
65.27735,65.354515,64,56,0
65.27735,65.354515,61,46,0
65.57743,65.65068,64,49,0
65.57743,65.65068,61,41,0
65.87043,65.94368,64,52,0
65.87043,65.94368,61,44,0
65.72393,66.01693,42,58,0
65.72393,66.01693,54,62,0
66.16493,66.24251,64,55,0
66.16493,66.24251,61,45,0
66.46885,66.5421,63,49,0
66.46885,66.5421,59,41,0
66.61535,66.6886,63,68,0
66.61535,66.6886,59,43,0
66.76184,66.83509,63,52,0
66.76184,66.83509,59,44,0
66.61535,66.90834,47,62,0
66.61535,66.90834,35,58,0
67.05484,67.132,66,55,0
67.05484,67.132,63,45,0
67.05484,67.132,59,45,0
66.90834,67.20916,47,58,0
67.357925,67.431175,69,68,0
67.357925,67.431175,66,43,0
67.20916,67.503914,47,62,0
67.503914,67.576065,69,54,0
67.503914,67.576065,66,34,0
67.503914,67.576065,49,68,0
67.64814,67.719925,69,41,0
67.64814,67.719925,66,35,0
67.64814,67.719925,51,73,0
67.79164,67.863075,52,72,0
67.93451,68.01167,69,76,0
67.93451,68.01167,66,76,0
67.93451,68.01167,54,76,0
68.23101,68.3021,64,59,0
68.23101,68.3021,67,70,0
68.23101,68.3021,59,59,0
68.37319,68.44412,59,56,0
68.37319,68.44412,67,66,0
68.37319,68.44412,64,56,0
68.514786,68.58518,59,57,0
68.514786,68.58518,67,68,0
68.514786,68.58518,64,57,0
68.65525,68.72506,59,59,0
68.65525,68.72506,67,70,0
68.65525,68.72506,64,59,0
68.79462,68.869576,59,61,0
68.79462,68.869576,67,72,0
68.79462,68.869576,64,61,0
68.08884,68.94674,55,84,0
68.94674,69.094734,47,72,0
69.094734,69.20574,65,70,0
69.094734,69.20574,62,59,0
69.094734,69.20574,55,59,0
69.24274,69.353745,55,59,0
69.24274,69.353745,62,59,0
69.24274,69.353745,65,70,0
69.39074,69.50174,65,70,0
69.39074,69.50174,62,59,0
69.39074,69.50174,55,59,0
69.53874,69.64974,65,70,0
69.53874,69.64974,62,59,0
69.53874,69.64974,55,59,0
69.686745,69.797745,65,70,0
69.686745,69.797745,62,59,0
69.686745,69.797745,55,59,0
69.83475,69.98275,48,72,0
69.98275,70.09375,64,70,0
69.98275,70.09375,60,59,0
69.98275,70.09375,55,59,0
70.13075,70.24175,55,59,0
70.13075,70.24175,60,59,0
70.13075,70.24175,64,70,0
70.278755,70.352005,64,52,0
70.278755,70.352005,60,44,0
70.425255,70.498505,64,70,0
70.425255,70.498505,60,59,0
70.571754,70.64891,64,55,0
70.571754,70.64891,60,45,0
70.425255,70.726074,43,58,0
70.87484,70.94809,65,68,0
70.87484,70.94809,62,43,0
70.726074,71.02082,43,62,0
71.02082,71.09297,65,54,0
71.02082,71.09297,62,34,0
71.02082,71.09297,45,68,0
71.16505,71.23684,65,41,0
71.16505,71.23684,62,35,0
71.16505,71.23684,47,73,0
71.30855,71.37999,48,76,0
71.45142,71.52858,65,78,0
71.45142,71.52858,62,78,0
71.45142,71.52858,50,78,0
71.747925,71.819016,60,59,0
71.747925,71.819016,64,70,0
71.747925,71.819016,55,59,0
71.89011,71.96103,55,56,0
71.89011,71.96103,64,66,0
71.89011,71.96103,60,56,0
72.03169,72.10209,55,57,0
72.03169,72.10209,64,68,0
72.03169,72.10209,60,57,0
72.17216,72.24197,55,59,0
72.17216,72.24197,64,70,0
72.17216,72.24197,60,59,0
72.31153,72.38648,55,61,0
72.31153,72.38648,64,72,0
72.31153,72.38648,60,61,0
71.60574,72.463646,52,84,0
72.463646,72.61165,44,72,0
72.61165,72.72265,62,63,0
72.61165,72.72265,59,53,0
72.61165,72.72265,52,53,0
72.75965,72.87065,52,59,0
72.75965,72.87065,59,59,0
72.75965,72.87065,62,70,0
72.90765,73.018654,62,63,0
72.90765,73.018654,59,53,0
72.90765,73.018654,52,53,0
73.05566,73.16666,62,70,0
73.05566,73.16666,59,59,0
73.05566,73.16666,52,59,0
73.20365,73.31466,62,63,0
73.20365,73.31466,59,53,0
73.20365,73.31466,52,53,0
73.351654,73.49966,45,72,0
73.49966,73.61066,60,70,0
73.49966,73.61066,57,59,0
73.64766,73.75866,57,59,0
73.64766,73.75866,60,70,0
73.79566,73.90666,60,70,0
73.79566,73.90666,57,59,0
73.79566,73.90666,55,59,0
73.943665,74.05082,60,70,0
73.943665,74.05082,57,59,0
73.943665,74.05082,55,59,0
74.08653,74.20228,60,70,0
74.08653,74.20228,57,59,0
74.08653,74.20228,54,59,0
74.24086,74.31194,59,70,0
74.24086,74.31194,51,70,0
74.24086,74.31194,54,70,0
74.24086,74.31194,57,70,0
74.38303,74.454124,54,45,0
74.38303,74.455315,51,45,0
74.38303,74.455315,57,45,0
74.38303,74.455315,59,53,0
74.525215,74.596146,54,51,0
74.525215,74.59732,59,60,0
74.525215,74.59732,57,51,0
74.525215,74.59732,51,51,0
74.66681,74.737206,54,52,0
74.66681,74.73838,51,52,0
74.66681,74.73838,57,52,0
74.66681,74.73838,59,62,0
74.807274,74.87708,54,53,0
74.807274,74.87824,51,53,0
74.807274,74.87824,57,53,0
74.807274,74.87824,59,63,0
74.94664,75.0216,54,54,0
74.94664,75.02289,51,54,0
74.94664,75.02289,57,54,0
74.94664,75.02289,59,65,0
75.09876,75.39476,59,66,0
75.09876,75.39476,55,56,0
75.09876,75.39476,52,56,0
75.54276,75.61677,67,64,0
75.54276,75.61677,64,54,0
75.690765,75.76292,67,66,0
75.690765,75.76292,64,56,0
75.83507,75.91101,64,54,0
75.83507,75.91101,67,64,0
76.430954,76.50496,67,62,0
76.430954,76.50496,66,52,0
76.430954,76.50496,62,52,0
76.57896,76.65111,67,64,0
76.57896,76.65111,66,54,0
76.57896,76.65111,62,54,0
76.72326,76.7992,66,51,0
76.72326,76.7992,67,61,0
76.72326,76.7992,62,51,0
77.319145,77.39315,67,59,0
77.319145,77.39315,64,50,0
77.319145,77.39315,61,50,0
77.46715,77.5393,67,60,0
77.46715,77.5393,64,51,0
77.46715,77.5393,61,51,0
77.61145,77.68739,64,49,0
77.61145,77.68739,67,58,0
77.61145,77.68739,61,49,0
78.20734,78.28134,66,56,0
78.20734,78.28134,62,47,0
78.35534,78.42749,66,57,0
78.35534,78.42749,62,48,0
78.49964,78.575584,66,55,0
78.49964,78.575584,62,46,0
79.09553,79.16953,62,53,0
79.09553,79.16953,59,44,0
79.24353,79.31568,62,54,0
79.24353,79.31568,59,45,0
79.38783,79.463776,62,51,0
79.38783,79.463776,59,43,0
79.98373,80.057724,59,42,0
79.98373,80.057724,55,35,0
80.13172,80.20387,59,41,0
80.13172,80.20387,55,35,0
80.276024,80.35197,59,38,0
80.276024,80.35197,55,32,0
80.87192,80.945915,55,36,0
80.87192,80.945915,50,30,0
81.01991,81.092064,55,36,0
81.01991,81.092064,50,31,0
81.164215,81.24016,55,36,0
81.164215,81.24016,50,30,0
81.76011,81.83411,47,36,0
81.76011,81.83411,43,30,0
81.90811,81.980255,47,36,0
81.90811,81.980255,43,31,0
82.05241,82.12835,47,36,0
82.05241,82.12835,43,30,0
82.20429,82.43084,46,36,0
82.20429,82.43084,42,36,0
83.25177,83.32539,47,36,0
83.25177,83.32539,55,46,0
83.25177,83.32539,52,36,0
83.25177,83.32539,49,36,0
83.39902,83.47153,55,50,0
83.39902,83.47153,47,39,0
83.39902,83.47153,49,39,0
83.39902,83.47153,52,39,0
83.544044,83.616554,47,36,0
83.544044,83.616554,55,46,0
83.544044,83.616554,52,36,0
83.544044,83.616554,49,36,0
83.689064,83.76158,55,52,0
83.689064,83.76158,47,41,0
83.689064,83.76158,49,41,0
83.689064,83.76158,52,41,0
83.83409,83.911255,47,36,0
83.83409,83.911255,55,46,0
83.83409,83.911255,52,36,0
83.83409,83.911255,49,36,0
83.98841,84.285675,54,57,0
83.98841,84.285675,49,50,0
83.98841,84.285675,46,50,0
85.04007,85.11483,47,36,0
85.04007,85.11483,55,46,0
85.04007,85.11483,52,36,0
85.04007,85.11483,49,36,0
85.18959,85.263596,55,50,0
85.18959,85.263596,47,39,0
85.18959,85.263596,49,39,0
85.18959,85.263596,52,39,0
85.33759,85.4116,47,36,0
85.33759,85.4116,55,46,0
85.33759,85.4116,52,36,0
85.33759,85.4116,49,36,0
85.485596,85.55959,55,52,0
85.485596,85.55959,47,41,0
85.485596,85.55959,49,41,0
85.485596,85.55959,52,41,0
85.6336,85.712006,47,36,0
85.6336,85.712006,55,46,0
85.6336,85.712006,52,36,0
85.6336,85.712006,49,36,0
85.79042,86.094185,54,57,0
85.79042,86.094185,49,50,0
85.79042,86.094185,46,50,0
86.549835,86.70172,54,47,0
86.70172,86.85604,57,48,0
86.85604,87.00534,59,43,0
87.00534,87.15371,61,43,0
87.15371,87.301315,62,45,0
87.301315,87.43596,64,50,0
87.448166,87.594666,57,46,0
87.594666,87.74655,61,47,0
87.74655,87.89685,62,47,0
87.89685,88.044785,64,47,0
88.044785,88.19203,66,48,0
88.19203,88.327,67,53,0
88.33927,88.48652,58,50,0
88.48652,88.62798,61,50,0
88.64085,88.79072,62,52,0
88.79072,88.93948,64,53,0
88.93948,89.08756,66,56,0
89.08756,89.2229,67,57,0
89.23517,89.38626,66,56,0
89.38626,89.53656,64,55,0
89.53656,89.68486,66,54,0
89.68486,89.83185,67,59,0
89.83185,89.97979,66,56,0
89.97979,90.12877,64,55,0
90.12877,90.28065,62,53,0
90.28065,90.43017,61,57,0
90.43017,90.57725,62,53,0
90.57725,90.723785,64,56,0
90.723785,90.87143,62,50,0
90.87143,91.020134,61,53,0
91.020134,91.17282,59,50,0
91.17282,91.32234,58,48,0
91.32234,91.468475,59,42,0
91.468475,91.61481,61,50,0
91.61481,91.761795,58,43,0
91.761795,91.90944,55,49,0
91.90944,92.062126,54,43,0
92.062126,92.21165,52,46,0
92.21165,92.36117,54,40,0
92.36117,92.51069,55,43,0
92.51069,92.66021,52,40,0
92.66021,92.8129,50,40,0
92.8129,92.979675,49,40,0
92.979675,93.0533,46,40,0
92.979675,93.0533,61,47,0
93.12692,93.20055,64,43,0
93.12692,93.20055,61,33,0
93.12692,93.20055,54,33,0
93.27361,93.345055,64,47,0
93.27361,93.345055,61,37,0
93.27361,93.345055,54,37,0
93.416405,93.487495,64,50,0
93.416405,93.487495,61,39,0
93.416405,93.487495,54,39,0
93.5585,93.62925,64,53,0
93.5585,93.62925,61,42,0
93.5585,93.62925,54,42,0
93.699905,93.77918,64,57,0
93.699905,93.77918,61,46,0
93.699905,93.77918,54,46,0
93.85845,93.932076,47,60,0
94.0057,94.07932,54,34,0
94.0057,94.07932,59,34,0
94.0057,94.07932,62,43,0
94.15295,94.22369,62,52,0
94.15295,94.22369,59,41,0
94.15295,94.22369,54,41,0
94.294426,94.365166,62,49,0
94.294426,94.365166,59,39,0
94.294426,94.365166,54,39,0
94.43591,94.50665,54,44,0
94.43591,94.50665,59,44,0
94.43591,94.50665,62,56,0
94.57739,94.64813,62,54,0
94.57739,94.64813,59,42,0
94.57739,94.64813,54,42,0
94.71888,94.791756,43,60,0
94.86463,94.937515,55,35,0
94.86463,94.937515,59,35,0
94.86463,94.937515,64,44,0
95.01039,95.083275,64,49,0
95.01039,95.083275,59,39,0
95.01039,95.083275,55,39,0
95.15615,95.229034,64,46,0
95.15615,95.229034,59,37,0
95.15615,95.229034,55,37,0
95.30191,95.37479,64,51,0
95.30191,95.37479,59,41,0
95.30191,95.37479,55,41,0
95.44767,95.527824,64,59,0
95.44767,95.527824,59,46,0
95.44767,95.527824,55,46,0
95.60798,95.68114,42,65,0
95.75392,95.82634,54,43,0
95.75392,95.82634,58,43,0
95.75392,95.82634,64,54,0
95.898315,95.969925,54,46,0
95.898315,95.969925,58,46,0
95.898315,95.969925,64,59,0
96.0411,96.11193,54,50,0
96.0411,96.11193,58,50,0
96.0411,96.11193,64,63,0
96.18233,96.258675,54,36,0
96.18233,96.258675,61,36,0
96.18233,96.258675,64,46,0
96.335014,96.4184,64,43,0
96.335014,96.4184,61,34,0
96.335014,96.4184,54,34,0
96.50179,96.57542,46,46,0
96.64904,96.722664,64,49,0
96.64904,96.722664,61,37,0
96.64904,96.722664,54,37,0
96.795654,96.86619,64,54,0
96.795654,96.86619,61,42,0
96.795654,96.86619,54,42,0
96.93633,97.00614,64,57,0
96.93633,97.00614,61,44,0
96.93633,97.00614,54,44,0
97.07552,97.14458,64,60,0
97.07552,97.14458,61,48,0
97.07552,97.14458,54,48,0
97.21323,97.2925,64,65,0
97.21323,97.2925,61,52,0
97.21323,97.2925,54,52,0
97.37177,97.4454,47,69,0
97.51902,97.59264,54,39,0
97.51902,97.59264,59,39,0
97.51902,97.59264,62,49,0
97.66627,97.73701,62,59,0
97.66627,97.73701,59,47,0
97.66627,97.73701,54,47,0
97.80775,97.878494,62,56,0
97.80775,97.878494,59,44,0
97.80775,97.878494,54,44,0
97.949234,98.01997,54,50,0
97.949234,98.01997,59,50,0
97.949234,98.01997,62,64,0
98.09071,98.16146,62,62,0
98.09071,98.16146,59,48,0
98.09071,98.16146,54,48,0
98.2322,98.30508,43,77,0
98.37796,98.450836,55,44,0
98.37796,98.450836,59,44,0
98.37796,98.450836,64,56,0
98.52371,98.596596,64,63,0
98.52371,98.596596,59,50,0
98.52371,98.596596,55,50,0
98.66947,98.742355,64,59,0
98.66947,98.742355,59,48,0
98.66947,98.742355,55,48,0
98.81523,98.888115,64,65,0
98.81523,98.888115,59,52,0
98.81523,98.888115,55,52,0
98.96099,99.041145,64,75,0
98.96099,99.041145,59,59,0
98.96099,99.041145,55,59,0
99.1213,99.19446,42,83,0
99.26724,99.33967,64,65,0
99.26724,99.33967,58,55,0
99.26724,99.33967,54,55,0
99.41164,99.483246,64,72,0
99.41164,99.483246,58,61,0
99.41164,99.483246,54,61,0
99.55443,99.62525,64,63,0
99.55443,99.62525,58,53,0
99.55443,99.62525,54,53,0
99.69565,99.771996,64,69,0
99.69565,99.771996,58,69,0
99.69565,99.771996,54,58,0
99.848335,99.931725,64,61,0
99.848335,99.931725,58,61,0
99.848335,99.931725,54,51,0
100.015114,100.08874,54,54,0
100.015114,100.08874,58,54,0
100.015114,100.08874,64,64,0
100.16236,100.235985,54,49,0
100.16236,100.235985,58,49,0
100.16236,100.235985,64,58,0
100.308975,100.378044,54,52,0
100.308975,100.378044,66,62,0
100.308975,100.378044,64,52,0
100.308975,100.378044,58,52,0
100.446045,100.51364,54,55,0
100.446045,100.51364,66,65,0
100.446045,100.51364,64,55,0
100.446045,100.51364,58,55,0
100.58085,100.64758,54,57,0
100.58085,100.64758,66,68,0
100.58085,100.64758,64,57,0
100.58085,100.64758,58,57,0
100.713936,100.79321,54,61,0
100.713936,100.79321,66,72,0
100.713936,100.79321,64,61,0
100.713936,100.79321,58,61,0
101.01397,101.08471,59,54,0
101.01397,101.08471,62,64,0
101.30345,101.37746,54,49,0
101.30345,101.37746,61,58,0
101.593636,101.66473,59,60,0
101.593636,101.66473,55,51,0
101.883064,101.95669,51,54,0
101.883064,101.95669,57,64,0
102.17389,102.24568,52,49,0
102.17389,102.24568,55,58,0
102.46548,102.539474,57,60,0
102.46548,102.539474,51,51,0
102.76224,102.836624,52,54,0
102.76224,102.836624,55,64,0
103.05459,103.12638,56,49,0
103.05459,103.12638,62,58,0
103.34035,103.41144,61,60,0
103.34035,103.41144,57,51,0
103.631294,103.70568,53,54,0
103.631294,103.70568,59,64,0
103.92224,103.99333,54,49,0
103.92224,103.99333,57,58,0
104.21167,104.28529,59,60,0
104.21167,104.28529,53,51,0
104.50109,104.57218,54,54,0
104.50109,104.57218,57,64,0
104.7883,104.861176,61,49,0
104.7883,104.861176,68,58,0
105.07624,105.14732,66,60,0
105.07624,105.14732,62,51,0
105.36872,105.44387,58,54,0
105.36872,105.44387,64,64,0
105.6605,105.73124,59,49,0
105.6605,105.73124,62,58,0
105.94774,106.02062,64,60,0
105.94774,106.02062,58,51,0
106.240746,106.31437,59,54,0
106.240746,106.31437,62,64,0
106.530174,106.601265,50,49,0
106.530174,106.601265,54,58,0
106.82036,106.894356,54,60,0
106.82036,106.894356,51,51,0
107.11561,107.189224,55,54,0
107.11561,107.189224,59,64,0
107.11561,107.189224,52,54,0
107.409546,107.482796,54,49,0
107.409546,107.482796,59,58,0
107.70128,107.77379,59,61,0
107.70128,107.77379,55,52,0
107.990616,108.06277,59,55,0
107.990616,108.06277,62,65,0
107.990616,108.06277,54,55,0
108.27921,108.351364,54,52,0
108.27921,108.351364,62,61,0
108.27921,108.351364,59,52,0
108.56782,108.63997,62,64,0
108.56782,108.63997,54,55,0
108.56782,108.63997,59,55,0
108.85576,108.92755,58,58,0
108.85576,108.92755,64,70,0
108.85576,108.92755,54,58,0
109.14584,109.21909,54,54,0
109.14584,109.21909,64,64,0
109.14584,109.21909,59,54,0
109.44502,109.52699,64,67,0
109.44502,109.52699,54,57,0
109.44502,109.52699,61,57,0
109.60896,109.688675,43,95,0
109.76838,109.84432,55,55,0
109.76838,109.84432,67,72,0
109.76838,109.84432,74,72,0
109.76838,109.84432,71,72,0
109.76838,109.84432,62,55,0
109.920265,109.99315,55,61,0
109.920265,109.99315,67,77,0
109.920265,109.99315,74,77,0
109.920265,109.99315,71,77,0
109.920265,109.99315,62,61,0
110.066025,110.1389,55,65,0
110.066025,110.1389,67,73,0
110.066025,110.1389,74,73,0
110.066025,110.1389,71,73,0
110.066025,110.1389,62,65,0
110.211784,110.286934,55,66,0
110.211784,110.286934,67,84,0
110.211784,110.286934,74,75,0
110.211784,110.286934,71,75,0
110.211784,110.286934,62,66,0
110.36208,110.44007,67,71,0
110.36208,110.44007,55,55,0
110.36208,110.44007,74,71,0
110.36208,110.44007,71,71,0
110.36208,110.44007,62,55,0
110.51806,110.60168,55,68,0
110.51806,110.60168,65,68,0
110.51806,110.60168,71,68,0
110.51806,110.60168,67,68,0
110.51806,110.60168,62,68,0
110.51806,110.60168,74,86,0
110.6853,110.76892,55,62,0
110.6853,110.76892,65,62,0
110.6853,110.76892,71,62,0
110.6853,110.76892,67,62,0
110.6853,110.76892,62,62,0
110.6853,110.76892,74,80,0
110.85254,110.9339,55,68,0
110.85254,110.9339,65,74,0
110.85254,110.9339,62,68,0
110.85254,110.9339,67,86,0
111.01525,111.0966,62,69,0
111.01525,111.0966,67,69,0
111.01525,111.0966,71,69,0
111.01525,111.0966,65,69,0
111.01525,111.0966,55,69,0
111.01525,111.0966,74,79,0
111.177956,111.26331,55,74,0
111.177956,111.26331,65,74,0
111.177956,111.26331,67,94,0
111.177956,111.26331,62,74,0
111.34866,111.447754,55,62,0
111.34866,111.447754,62,62,0
111.34866,111.447754,65,62,0
111.34866,111.447754,67,62,0
111.34866,111.447754,74,79,0
111.546844,111.62568,48,95,0
111.70452,111.78336,60,60,0
111.70452,111.78336,72,77,0
111.70452,111.78336,55,60,0
111.70452,111.78336,67,60,0
111.70452,111.78336,64,60,0
111.8622,111.93696,60,63,0
111.8622,111.93696,64,81,0
111.8622,111.93696,55,63,0
112.01172,112.08648,60,66,0
112.01172,112.08648,64,82,0
112.01172,112.08648,55,66,0
112.16124,112.235245,60,64,0
112.16124,112.235245,63,81,0
112.16124,112.235245,55,64,0
112.30924,112.3894,63,66,0
112.30924,112.3894,60,51,0
112.30924,112.3894,55,51,0
112.46955,112.54431,50,75,0
112.61907,112.69383,57,49,0
112.61907,112.69383,62,49,0
112.61907,112.69383,67,63,0
112.61907,112.69383,60,49,0
112.76859,112.84335,60,53,0
112.76859,112.84335,57,53,0
112.76859,112.84335,62,53,0
112.76859,112.84335,67,69,0
112.91811,112.992874,60,58,0
112.91811,112.992874,57,58,0
112.91811,112.992874,62,58,0
112.91811,112.992874,67,73,0
113.067635,113.142395,57,59,0
113.067635,113.142395,62,74,0
113.067635,113.142395,60,59,0
113.21716,113.296,69,62,0
113.21716,113.296,66,49,0
113.21716,113.296,62,49,0
113.21716,113.296,60,49,0
113.21716,113.296,57,49,0
113.37484,113.44922,55,75,0
113.523605,113.59648,59,49,0
113.523605,113.59648,67,63,0
113.523605,113.59648,62,49,0
113.669365,113.74224,67,69,0
113.669365,113.74224,62,53,0
113.669365,113.74224,59,53,0
113.81512,113.89066,67,73,0
113.81512,113.89066,62,58,0
113.81512,113.89066,59,58,0
113.96621,114.04548,59,59,0
113.96621,114.04548,67,74,0
113.96621,114.04548,62,59,0
114.124756,114.20912,67,62,0
114.124756,114.20912,59,49,0
114.124756,114.20912,62,49,0
114.29348,114.366,43,75,0
114.43851,114.511024,62,58,0
114.43851,114.511024,55,58,0
114.43851,114.511024,67,58,0
114.43851,114.511024,65,58,0
114.43851,114.511024,74,76,0
114.43851,114.511024,71,58,0
114.583534,114.656784,67,77,0
114.583534,114.656784,65,77,0
114.583534,114.656784,55,61,0
114.583534,114.656784,62,61,0
114.730034,114.80328,62,69,0
114.730034,114.80328,55,69,0
114.730034,114.80328,67,69,0
114.730034,114.80328,65,69,0
114.730034,114.80328,74,78,0
114.730034,114.80328,71,69,0
114.87653,114.95248,62,66,0
114.87653,114.95248,65,83,0
114.87653,114.95248,55,66,0
114.87653,114.95248,67,84,0
115.02841,115.11038,74,79,0
115.02841,115.11038,71,62,0
115.02841,115.11038,55,62,0
115.02841,115.11038,65,62,0
115.02841,115.11038,62,62,0
115.02841,115.11038,67,62,0
115.19235,115.264496,48,95,0
115.33665,115.4088,60,57,0
115.33665,115.4088,55,57,0
115.33665,115.4088,67,57,0
115.33665,115.4088,72,57,0
115.33665,115.4088,64,57,0
115.48095,115.55571,60,57,0
115.48095,115.55571,64,73,0
115.48095,115.55571,55,57,0
115.63047,115.70523,60,56,0
115.63047,115.70523,64,70,0
115.63047,115.70523,55,56,0
115.77999,115.854,60,53,0
115.77999,115.854,64,66,0
115.77999,115.854,55,53,0
115.92799,116.00815,64,51,0
115.92799,116.00815,60,39,0
115.92799,116.00815,55,39,0
116.23782,116.31107,65,44,0
116.23782,116.31107,60,44,0
116.38432,116.45757,65,59,0
116.38432,116.45757,60,44,0
116.53082,116.60407,65,44,0
116.53082,116.60407,60,44,0
116.38432,116.67732,57,50,0
116.82609,116.90047,65,44,0
116.82609,116.90047,60,44,0
116.67732,116.97485,56,54,0
117.124374,117.199135,64,44,0
117.124374,117.199135,60,44,0
117.273895,117.347145,64,59,0
117.273895,117.347145,60,44,0
117.420395,117.493645,64,44,0
117.420395,117.493645,60,44,0
116.97485,117.566895,55,54,0
116.0883,117.566895,48,55,0
117.71798,117.793526,64,37,0
117.71798,117.793526,60,37,0
118.018585,118.091835,65,37,0
118.018585,118.091835,60,37,0
118.165085,118.238335,65,50,0
118.165085,118.238335,60,37,0
118.311584,118.384834,65,37,0
118.311584,118.384834,60,37,0
118.165085,118.458084,57,42,0
118.60917,118.684715,65,37,0
118.60917,118.684715,60,37,0
118.458084,118.76026,56,45,0
117.869064,118.76026,53,46,0
118.90903,118.98228,64,37,0
118.90903,118.98228,60,31,0
119.05553,119.12878,64,51,0
119.05553,119.12878,60,32,0
119.20203,119.27527,64,39,0
119.20203,119.27527,60,33,0
119.34852,119.422905,64,55,0
119.34852,119.422905,60,46,0
119.497284,119.57323,64,41,0
119.497284,119.57323,60,34,0
117.869064,119.64917,48,46,0
118.76026,119.64917,52,46,0
118.76026,119.64917,55,46,0
119.64917,119.72432,60,35,0
119.64917,119.72432,64,43,0
119.798645,119.87265,64,44,0
119.798645,119.87265,60,37,0
119.94628,120.01973,64,45,0
119.94628,120.01973,60,38,0
120.09298,120.16587,64,46,0
120.09298,120.16587,60,39,0
120.38984,120.465385,67,40,0
120.38984,120.465385,64,40,0
120.69202,120.76527,66,40,0
120.69202,120.76527,63,34,0
120.83852,120.911766,66,56,0
120.83852,120.911766,63,35,0
120.985016,121.058266,66,42,0
120.985016,121.058266,63,36,0
120.83852,121.131516,51,57,0
120.83852,121.131516,39,54,0
121.283394,121.36355,66,45,0
121.283394,121.36355,60,37,0
121.59247,121.665344,64,40,0
121.59247,121.665344,59,34,0
121.73823,121.811104,64,56,0
121.73823,121.811104,59,35,0
121.88399,121.95686,64,42,0
121.88399,121.95686,59,36,0
121.73823,122.02975,40,54,0
121.73823,122.02975,52,57,0
122.180046,122.255196,64,45,0
122.180046,122.255196,59,37,0
122.479866,122.55349,61,45,0
122.479866,122.55349,58,37,0
122.77436,122.847984,61,41,0
122.77436,122.847984,64,49,0
122.62711,122.92161,54,65,0
122.62711,122.92161,42,60,0
123.07191,123.14948,67,55,0
123.07191,123.14948,64,45,0
123.375824,123.44907,70,50,0
123.375824,123.44907,67,42,0
123.66882,123.74207,71,56,0
123.66882,123.74207,66,47,0
123.52232,123.815315,35,69,0
123.52232,123.815315,47,73,0
123.961815,124.0398,67,61,0
123.961815,124.0398,64,50,0
124.26888,124.342125,66,40,0
124.26888,124.342125,63,34,0
124.415375,124.488625,66,56,0
124.415375,124.488625,63,35,0
124.561874,124.635124,66,42,0
124.561874,124.635124,63,36,0
124.415375,124.708374,51,57,0
124.415375,124.708374,39,54,0
124.86026,124.940414,66,45,0
124.86026,124.940414,60,37,0
125.169334,125.24221,64,40,0
125.169334,125.24221,59,34,0
125.31509,125.38797,64,56,0
125.31509,125.38797,59,35,0
125.460846,125.53373,64,42,0
125.460846,125.53373,59,36,0
125.31509,125.606606,40,54,0
125.31509,125.606606,52,57,0
125.756905,125.832054,64,45,0
125.756905,125.832054,59,37,0
126.05673,126.130356,61,45,0
126.05673,126.130356,58,37,0
126.35122,126.42484,61,41,0
126.35122,126.42484,64,49,0
126.20398,126.49847,54,65,0
126.20398,126.49847,42,60,0
126.64877,126.72635,67,55,0
126.64877,126.72635,64,45,0
126.95268,127.02593,70,50,0
126.95268,127.02593,67,42,0
127.24568,127.31893,71,56,0
127.24568,127.31893,66,47,0
127.09918,127.39218,35,69,0
127.09918,127.39218,47,73,0
127.53868,127.61667,67,61,0
127.53868,127.61667,64,50,0
127.85063,127.92617,69,61,0
127.85063,127.92617,59,48,0
127.85063,127.92617,57,48,0
127.85063,127.92617,66,61,0
127.85063,127.92617,51,48,0
127.85063,127.92617,54,48,0
128.00171,128.07571,69,69,0
128.00171,128.07571,54,42,0
128.00171,128.07571,57,42,0
128.00171,128.07571,51,42,0
128.00171,128.07571,66,69,0
128.00171,128.07571,59,42,0
128.14972,128.22372,51,51,0
128.14972,128.22372,66,65,0
128.14972,128.22372,59,51,0
128.14972,128.22372,69,65,0
128.14972,128.22372,54,51,0
128.14972,128.22372,57,51,0
128.29771,128.37286,69,75,0
128.29771,128.37286,54,46,0
128.29771,128.37286,57,46,0
128.29771,128.37286,51,46,0
128.29771,128.37286,66,75,0
128.29771,128.37286,59,46,0
128.44801,128.53189,51,56,0
128.44801,128.53189,66,70,0
128.44801,128.53189,59,56,0
128.44801,128.53189,69,70,0
128.44801,128.53189,54,56,0
128.44801,128.53189,57,56,0
128.61577,128.93286,69,80,0
128.61577,128.93286,54,49,0
128.61577,128.93286,51,49,0
128.61577,128.93286,57,49,0
128.61577,128.93286,66,80,0
128.93286,129.24995,52,48,0
128.93286,129.24995,64,61,0
128.61577,129.24995,59,49,0
128.93286,129.24995,68,61,0
128.93286,129.24995,56,48,0
129.72302,129.79855,71,61,0
129.72302,129.79855,61,48,0
129.72302,129.79855,59,48,0
129.72302,129.79855,68,61,0
129.72302,129.79855,53,48,0
129.72302,129.79855,56,48,0
129.8741,129.9481,71,69,0
129.8741,129.9481,56,42,0
129.8741,129.9481,59,42,0
129.8741,129.9481,53,42,0
129.8741,129.9481,68,69,0
129.8741,129.9481,61,42,0
130.02211,130.0961,53,51,0
130.02211,130.0961,68,65,0
130.02211,130.0961,61,51,0
130.02211,130.0961,71,65,0
130.02211,130.0961,56,51,0
130.02211,130.0961,59,51,0
130.1701,130.24525,71,75,0
130.1701,130.24525,56,46,0
130.1701,130.24525,59,46,0
130.1701,130.24525,53,46,0
130.1701,130.24525,68,75,0
130.1701,130.24525,61,46,0
130.3204,130.40428,53,56,0
130.3204,130.40428,68,70,0
130.3204,130.40428,61,56,0
130.3204,130.40428,71,70,0
130.3204,130.40428,56,56,0
130.3204,130.40428,59,56,0
130.48816,130.80525,71,80,0
130.48816,130.80525,61,49,0
130.48816,130.80525,54,49,0
130.48816,130.80525,59,49,0
130.48816,130.80525,66,80,0
130.80525,131.12233,55,48,0
130.80525,131.12233,64,61,0
131.5954,131.67094,54,55,0
131.5954,131.67094,59,55,0
131.5954,131.67094,62,55,0
131.74649,131.81882,62,47,0
131.74649,131.81882,59,47,0
131.74649,131.81882,54,47,0
131.89116,131.96349,54,55,0
131.89116,131.96349,59,55,0
131.89116,131.96349,62,55,0
132.03581,132.11096,62,47,0
132.03581,132.11096,59,47,0
132.03581,132.11096,54,47,0
132.18611,132.26999,54,55,0
132.18611,132.26999,59,55,0
132.18611,132.26999,62,55,0
132.50984,132.58537,54,55,0
132.50984,132.58537,61,55,0
132.50984,132.58537,64,55,0
132.66092,132.73492,64,47,0
132.66092,132.73492,61,47,0
132.66092,132.73492,54,47,0
132.80893,132.88292,54,55,0
132.80893,132.88292,61,55,0
132.80893,132.88292,64,55,0
132.95692,133.03207,64,47,0
132.95692,133.03207,61,47,0
132.95692,133.03207,54,47,0
133.10722,133.1911,54,55,0
133.10722,133.1911,61,55,0
133.10722,133.1911,64,55,0
133.27498,133.57619,62,70,0
133.27498,133.57619,59,70,0
135.22815,135.30368,42,64,0
135.22815,135.30368,54,64,0
135.37923,135.45227,54,55,0
135.37923,135.45227,42,55,0
135.5253,135.59834,42,64,0
135.5253,135.59834,54,64,0
135.67137,135.74652,54,55,0
135.67137,135.74652,42,55,0
135.82167,135.90555,42,64,0
135.82167,135.90555,54,64,0
135.98943,136.06741,54,66,0
135.98943,136.06741,42,66,0
136.1454,136.22093,42,64,0
136.1454,136.22093,54,64,0
136.29648,136.37048,54,55,0
136.29648,136.37048,42,55,0
136.44449,136.5185,42,64,0
136.44449,136.5185,54,64,0
136.59248,136.66763,54,55,0
136.59248,136.66763,42,55,0
136.74278,136.82666,42,64,0
136.74278,136.82666,54,64,0
136.91054,137.21175,47,82,0
136.91054,137.21175,35,82,0
138.86371,138.93925,30,74,0
138.86371,138.93925,42,74,0
139.01479,139.08879,42,63,0
139.01479,139.08879,30,63,0
139.1628,139.2368,30,74,0
139.1628,139.2368,42,74,0
139.31079,139.38594,42,63,0
139.31079,139.38594,30,63,0
139.46109,139.54497,30,74,0
139.46109,139.54497,42,74,0
139.62885,139.70683,42,55,0
139.62885,139.70683,30,55,0
139.78482,139.86037,30,64,0
139.78482,139.86037,42,64,0
139.9359,140.0099,42,55,0
139.9359,140.0099,30,55,0
140.08391,140.15791,30,64,0
140.08391,140.15791,42,64,0
140.2319,140.30705,42,55,0
140.2319,140.30705,30,55,0
140.38222,140.46608,30,64,0
140.38222,140.46608,42,64,0
140.70197,140.77751,30,74,0
140.70197,140.77751,42,74,0
140.85306,140.92706,42,63,0
140.85306,140.92706,30,63,0
141.00105,141.07506,30,74,0
141.00105,141.07506,42,74,0
141.14906,141.22421,42,63,0
141.14906,141.22421,30,63,0
141.29936,141.38324,30,74,0
141.29936,141.38324,42,74,0
141.46712,141.54509,42,55,0
141.46712,141.54509,30,55,0
141.62308,141.69862,30,64,0
141.62308,141.69862,42,64,0
141.77417,141.84818,42,55,0
141.77417,141.84818,30,55,0
141.92218,141.99617,30,64,0
141.92218,141.99617,42,64,0
142.07018,142.14532,42,55,0
142.07018,142.14532,30,55,0
142.22047,142.30435,30,64,0
142.22047,142.30435,42,64,0
142.54016,142.6157,42,74,0
142.54016,142.6157,54,74,0
142.69109,142.77115,54,68,0
142.69109,142.77115,42,68,0
142.8512,142.93298,42,81,0
142.8512,142.93298,54,81,0
143.01413,143.09898,54,68,0
143.01413,143.09898,42,68,0
143.18375,143.27444,42,81,0
143.18375,143.27444,54,81,0
143.36388,143.4463,54,60,0
143.52806,143.60564,54,70,0
143.36388,143.68321,42,60,0
143.68321,143.76079,54,60,0
143.83836,143.91594,54,70,0
143.99352,144.07109,54,55,0
144.14929,144.2378,54,64,0
143.99352,144.32628,42,55,0
144.32628,144.40385,47,75,0
144.48143,144.55737,54,51,0
144.63332,144.70926,54,56,0
144.7852,144.86115,54,51,0
144.93709,145.01303,54,56,0
145.08896,145.16911,54,39,0
145.24927,145.32684,54,51,0
145.40442,145.48036,54,46,0
145.5563,145.63225,54,51,0
145.70819,145.78413,54,45,0
145.86008,145.93935,53,51,0
146.01862,146.0979,53,46,0
146.17717,146.25475,54,56,0
146.33232,146.4099,54,51,0
146.48747,146.56718,55,62,0
146.6469,146.7266,55,56,0
146.8063,146.88388,54,57,0
146.96146,147.0439,54,48,0
147.12633,147.20474,55,69,0
147.28316,147.36157,55,62,0
147.43997,147.51839,54,62,0
147.5968,147.67522,54,53,0
147.75362,147.8304,58,46,0
147.90717,147.98355,58,39,0
148.05994,148.13878,59,49,0
148.2176,148.29645,59,45,0
148.37529,148.45287,61,52,0
148.53044,148.60802,61,49,0
148.6856,148.76193,62,53,0
148.83829,148.91463,62,51,0
148.99097,149.07068,64,64,0
149.15039,149.23236,64,62,0
149.31432,149.3911,66,67,0
149.46786,149.54465,66,61,0
149.62141,149.6982,64,68,0
149.77496,149.85602,64,58,0
149.93707,150.01424,62,67,0
150.0914,150.17111,62,59,0
150.25082,150.3288,60,62,0
150.40678,150.4865,60,51,0
150.56621,150.64296,59,60,0
150.71971,150.79729,59,51,0
150.87486,150.95285,58,53,0
151.03084,151.1101,58,49,0
151.18938,151.26654,59,52,0
151.3437,151.42087,59,47,0
151.49803,151.57518,54,52,0
151.65234,151.73294,54,49,0
151.81355,151.89154,55,51,0
151.96953,152.04752,55,42,0
152.1255,152.20348,53,57,0
152.28146,152.35945,53,38,0
152.43744,152.5146,54,43,0
152.59177,152.66893,54,34,0
152.74608,152.8245,49,42,0
152.90291,152.98306,49,36,0
153.06322,153.1412,50,42,0
153.2192,153.29718,50,35,0
153.37517,153.4515,42,32,0
153.37517,153.4515,54,32,0
153.37517,153.4515,59,40,0
153.52785,153.61124,59,38,0
153.52785,153.61124,54,30,0
153.52785,153.61124,42,30,0
153.69463,153.76825,47,40,0
153.69463,153.76825,54,33,0
153.69463,153.76825,59,33,0
153.84187,153.9155,62,45,0
153.84187,153.9155,59,34,0
153.84187,153.9155,54,34,0
153.84187,153.9155,47,34,0
153.9885,154.05756,66,51,0
153.9885,154.05756,47,40,0
153.9885,154.05756,59,40,0
153.9885,154.05756,54,40,0
153.9885,154.05756,62,40,0
154.12555,154.19316,66,58,0
154.12555,154.19316,47,45,0
154.12555,154.19316,59,45,0
154.12555,154.19316,54,45,0
154.12555,154.19316,62,45,0
154.26036,154.3271,66,67,0
154.26036,154.3271,47,53,0
154.26036,154.3271,59,53,0
154.26036,154.3271,54,53,0
154.26036,154.3271,62,53,0
154.39345,154.47272,66,78,0
154.39345,154.47272,47,63,0
154.39345,154.47272,59,63,0
154.39345,154.47272,54,63,0
154.39345,154.47272,62,63,0
154.552,154.62563,47,52,0
154.552,154.62563,59,62,0
154.552,154.62563,62,62,0
154.552,154.62563,66,74,0
154.552,154.62563,54,52,0
154.69925,154.77287,62,52,0
154.69925,154.77287,54,44,0
154.69925,154.77287,66,62,0
154.69925,154.77287,59,52,0
154.69925,154.77287,47,44,0
154.8465,154.919,66,69,0
154.8465,154.919,47,49,0
154.8465,154.919,59,58,0
154.8465,154.919,54,49,0
154.8465,154.919,62,58,0
154.99152,155.06627,66,63,0
154.99152,155.06627,47,45,0
154.99152,155.06627,59,54,0
154.99152,155.06627,54,45,0
154.99152,155.06627,62,54,0
155.14104,155.2158,66,70,0
155.14104,155.2158,47,50,0
155.14104,155.2158,59,59,0
155.14104,155.2158,54,50,0
155.14104,155.2158,62,59,0
155.29056,155.3665,59,53,0
155.29056,155.3665,47,44,0
155.29056,155.3665,66,62,0
155.29056,155.3665,62,53,0
155.29056,155.3665,54,44,0
155.44244,155.51569,47,48,0
155.44244,155.51569,59,57,0
155.44244,155.51569,62,57,0
155.44244,155.51569,66,68,0
155.44244,155.51569,54,48,0
155.58894,155.66219,62,49,0
155.58894,155.66219,54,40,0
155.58894,155.66219,66,58,0
155.58894,155.66219,59,49,0
155.58894,155.66219,47,40,0
155.73544,155.80795,66,65,0
155.73544,155.80795,47,46,0
155.73544,155.80795,59,55,0
155.73544,155.80795,54,46,0
155.73544,155.80795,62,55,0
155.88046,155.95561,66,58,0
155.88046,155.95561,47,41,0
155.88046,155.95561,59,49,0
155.88046,155.95561,54,41,0
155.88046,155.95561,62,49,0
156.03076,156.10364,66,63,0
156.03076,156.10364,47,44,0
156.03076,156.10364,59,53,0
156.03076,156.10364,54,44,0
156.03076,156.10364,62,53,0
156.17653,156.25208,59,50,0
156.17653,156.25208,47,42,0
156.17653,156.25208,66,59,0
156.17653,156.25208,62,50,0
156.17653,156.25208,54,42,0
156.3276,156.54848,47,46,0
156.3276,156.54848,59,55,0
156.3276,156.54848,66,65,0
156.3276,156.54848,62,55,0
156.3276,156.54848,54,46,0
156.6221,156.84297,47,39,0
156.6221,156.84297,59,46,0
156.6221,156.84297,66,55,0
156.6221,156.84297,62,46,0
156.6221,156.84297,54,39,0
156.9166,157.14809,47,38,0
156.9166,157.14809,59,45,0
156.9166,157.14809,66,53,0
156.9166,157.14809,62,45,0
156.9166,157.14809,54,38,0
157.22523,157.53387,47,30,0
157.22523,157.53387,59,36,0
157.22523,157.53387,62,36,0
157.22523,157.53387,66,44,0
157.22523,157.53387,54,30,0
158.15117,158.46826,66,40,0
158.15117,158.46826,59,33,0
158.15117,158.46826,47,27,0
158.15117,158.46826,54,27,0
158.15117,158.46826,62,33,0
159.11136,159.43738,66,35,0
159.11136,159.43738,59,29,0
159.11136,159.43738,47,24,0
159.11136,159.43738,54,24,0
159.11136,159.43738,62,29,0
