start_time,end_time,note_value,velocity,instrument_program_number
0.75,1.267241,69,45,0
0.75,1.267241,81,56,0
1.267241,1.7036185,82,59,0
1.267241,1.7036185,70,48,0
1.7036185,2.0932286,88,63,0
1.7036185,2.0932286,76,51,0
2.0932286,2.5085776,91,67,0
2.0932286,2.5085776,79,54,0
2.5085776,3.325256,79,56,0
2.5085776,3.325256,91,69,0
3.325256,3.7555015,80,63,0
3.325256,3.7555015,68,51,0
3.7555015,4.1715417,69,56,0
3.7555015,4.1715417,81,69,0
4.1715417,4.5586386,84,63,0
4.1715417,4.5586386,72,51,0
4.5586386,4.975948,77,55,0
4.5586386,4.975948,89,68,0
4.975948,5.782844,89,68,0
4.975948,5.782844,77,55,0
5.782844,6.2130895,66,45,0
5.782844,6.2130895,78,56,0
6.2130895,6.6248198,79,59,0
6.2130895,6.6248198,67,48,0
6.6248198,7.016977,82,63,0
6.6248198,7.016977,70,51,0
7.016977,7.436352,86,67,0
7.016977,7.436352,74,54,0
7.436352,8.251676,74,56,0
7.436352,8.251676,86,69,0
8.251676,8.680341,76,63,0
8.251676,8.680341,64,51,0
8.680341,9.099235,65,56,0
8.680341,9.099235,77,69,0
9.099235,9.493972,81,58,0
9.099235,9.493972,69,47,0
9.493972,9.924167,72,47,0
9.493972,9.924167,84,58,0
9.924167,10.75046,84,54,0
9.924167,10.75046,72,44,0
10.6975975,11.197268,69,38,0
10.75046,11.261097,81,45,0
11.197268,11.658855,70,40,0
11.261097,11.711121,82,48,0
11.658855,12.05203,76,43,0
11.711121,12.10073,88,51,0
12.05203,12.469498,79,45,0
12.10073,12.523455,91,54,0
12.523455,13.352805,91,56,0
12.469498,13.352805,79,47,0
13.352805,13.785306,80,51,0
13.352805,13.785306,68,43,0
13.785306,14.201718,69,44,0
13.785306,14.201718,81,53,0
14.201718,14.6003895,84,51,0
14.201718,14.6003895,72,43,0
14.6003895,15.032184,77,46,0
14.6003895,15.032184,89,55,0
15.032184,15.845121,89,55,0
15.032184,15.845121,77,46,0
15.845121,16.28574,66,38,0
15.845121,16.28574,78,45,0
16.28574,16.698095,79,48,0
16.28574,16.698095,67,40,0
16.698095,17.099434,82,51,0
16.698095,17.099434,70,43,0
17.099434,17.518808,86,54,0
17.099434,17.518808,74,45,0
17.518808,18.330818,74,47,0
17.518808,18.330818,86,56,0
18.330818,18.756332,76,51,0
18.330818,18.756332,64,43,0
18.756332,19.172342,65,47,0
18.756332,19.172342,77,56,0
19.172342,19.583302,81,47,0
19.172342,19.583302,69,39,0
19.583302,20.013496,72,39,0
19.583302,20.013496,84,47,0
20.013496,20.838549,84,44,0
20.013496,20.838549,72,37,0
20.838549,21.270342,91,66,0
20.838549,21.270342,79,53,0
21.270342,21.688698,79,58,0
21.270342,21.688698,91,72,0
21.688698,22.08214,88,66,0
21.688698,22.08214,76,53,0
22.08214,22.50608,70,55,0
22.08214,22.50608,82,68,0
22.50608,23.309866,81,69,0
22.50608,23.309866,69,55,0
23.309866,23.740858,93,69,0
23.309866,23.740858,81,55,0
23.740858,24.138947,81,60,0
23.740858,24.138947,93,75,0
24.138947,24.533684,89,69,0
24.138947,24.533684,77,55,0
24.533684,24.957623,74,59,0
24.533684,24.957623,86,74,0
24.957623,25.760002,84,72,0
24.957623,25.760002,72,57,0
25.760002,26.195816,96,72,0
25.760002,26.195816,84,57,0
26.195816,26.607199,84,64,0
26.195816,26.607199,96,79,0
26.607199,27.007198,93,75,0
26.607199,27.007198,81,60,0
27.007198,27.431137,77,63,0
27.007198,27.431137,89,77,0
27.431137,28.250462,86,83,0
27.431137,28.250462,74,67,0
28.250462,28.718407,98,68,0
28.250462,28.718407,86,55,0
28.718407,29.149141,86,59,0
28.718407,29.149141,98,73,0
29.149141,29.558699,94,65,0
29.149141,29.558699,82,52,0
29.558699,29.993847,79,55,0
29.558699,29.993847,91,69,0
29.993847,30.81317,89,65,0
29.993847,30.81317,77,52,0
30.761608,31.238674,79,44,0
30.81317,31.304464,91,49,0
31.238674,31.685978,79,43,0
31.304464,31.738243,91,54,0
31.685978,32.082504,76,39,0
31.738243,32.131687,88,49,0
32.082504,32.49705,70,43,0
32.131687,32.55104,82,53,0
32.55104,33.35671,81,53,0
32.49705,33.35671,69,43,0
33.35671,33.790775,93,55,0
33.35671,33.790775,81,44,0
33.790775,34.208645,81,48,0
33.790775,34.208645,93,60,0
34.208645,34.600803,89,56,0
34.208645,34.600803,77,45,0
34.600803,35.03512,74,50,0
34.600803,35.03512,86,61,0
35.03512,35.83768,84,62,0
35.03512,35.83768,72,50,0
35.83768,36.283833,96,62,0
35.83768,36.283833,84,50,0
36.283833,36.719162,84,56,0
36.283833,36.719162,96,69,0
36.719162,37.12872,93,66,0
36.719162,37.12872,81,52,0
37.12872,37.552658,77,55,0
37.12872,37.552658,89,67,0
37.552658,38.42894,86,74,0
37.552658,38.42894,74,60,0
38.42894,38.898724,98,60,0
38.42894,38.898724,86,48,0
38.898724,39.346706,86,52,0
38.898724,39.346706,98,64,0
39.346706,39.802982,94,54,0
39.346706,39.802982,82,43,0
39.802982,40.292027,79,43,0
39.802982,40.292027,91,54,0
40.292027,40.82774,89,50,0
40.292027,40.82774,77,40,0
40.94024,41.39024,60,28,0
40.977737,41.42774,65,34,0
40.90274,41.42774,57,28,0
42.96524,43.208153,48,58,0
42.96524,43.208153,51,58,0
42.96524,43.208153,57,69,0
43.208153,43.441616,58,75,0
43.208153,43.441616,52,64,0
43.208153,43.441616,48,64,0
43.441616,43.65514,63,59,0
43.441616,43.65514,69,71,0
43.441616,43.65514,60,59,0
43.65514,43.87573,70,76,0
43.65514,43.87573,60,64,0
43.65514,43.87573,64,64,0
43.87573,44.089252,81,72,0
43.87573,44.089252,72,60,0
43.87573,44.089252,75,60,0
44.089252,44.309032,72,65,0
44.089252,44.309032,82,77,0
44.089252,44.309032,76,65,0
44.309032,44.520298,87,63,0
44.309032,44.520298,84,63,0
44.309032,44.520298,93,74,0
44.520298,44.631824,84,66,0
44.631824,44.743347,94,73,0
44.743347,44.84609,91,64,0
44.84609,44.94836,88,73,0
44.743347,44.94836,96,75,0
44.94836,45.050865,84,75,0
45.050865,45.15408,82,74,0
45.15408,45.258003,79,72,0
45.258003,45.362534,76,71,0
45.362534,45.573807,72,69,0
45.573807,45.8091,59,69,0
45.573807,45.8091,53,58,0
45.573807,45.8091,50,58,0
45.8091,46.03382,53,64,0
45.8091,46.03382,60,75,0
45.8091,46.03382,48,64,0
46.03382,46.248875,71,71,0
46.03382,46.248875,62,59,0
46.03382,46.248875,65,59,0
46.248875,46.472755,72,76,0
46.248875,46.472755,60,64,0
46.248875,46.472755,65,64,0
46.472755,46.68936,74,60,0
46.472755,46.68936,83,72,0
46.472755,46.68936,77,60,0
46.68936,46.91241,77,65,0
46.68936,46.91241,72,65,0
46.68936,46.91241,84,77,0
46.91241,47.128235,89,63,0
46.91241,47.128235,86,63,0
46.91241,47.128235,95,74,0
47.128235,47.240177,84,66,0
47.240177,47.352116,101,77,0
47.456646,47.560936,93,73,0
47.352116,47.560936,96,75,0
47.560936,47.665104,89,76,0
47.665104,47.770367,84,73,0
47.770367,47.87675,81,71,0
47.87675,47.98428,77,69,0
47.98428,48.092583,78,67,0
48.200886,48.30919,84,57,0
48.092583,48.417885,81,63,0
48.30919,48.528862,87,54,0
48.528862,48.63902,86,48,0
48.63902,48.748375,85,48,0
48.748375,48.85694,86,48,0
48.417885,48.964855,79,56,0
48.85694,49.054783,91,54,0
48.964855,49.09056,80,47,0
49.07277,49.197323,81,47,0
49.07277,49.268497,91,54,0
49.17953,49.303837,82,47,0
49.286293,49.4091,83,47,0
49.286293,49.479275,91,54,0
49.391556,49.51474,84,48,0
49.49682,49.622265,85,49,0
49.49682,49.694344,91,56,0
49.604347,49.730976,86,50,0
49.71266,49.840866,89,49,0
49.71266,49.913925,91,56,0
49.82255,49.95042,88,49,0
49.932175,50.05971,87,50,0
49.932175,50.13244,91,56,0
50.04153,50.168736,88,49,0
50.15062,50.27743,84,50,0
50.15062,50.349895,96,56,0
50.259315,50.385616,85,51,0
50.36801,50.491253,86,50,0
50.36801,50.561672,96,56,0
50.473644,50.596703,87,51,0
50.57928,50.70123,88,51,0
50.57928,50.770916,96,58,0
50.683807,50.80607,89,53,0
50.788338,50.912453,90,53,0
50.788338,50.983376,96,60,0
50.894722,51.019554,91,55,0
51.001102,51.130257,94,54,0
51.001102,51.204056,96,61,0
51.111805,51.240955,93,56,0
51.222507,51.351658,92,56,0
51.222507,51.425457,96,65,0
51.333206,51.462357,93,57,0
51.44391,51.57272,89,56,0
51.44391,51.646046,101,65,0
51.554337,51.68268,90,56,0
51.664364,51.792233,91,57,0
51.664364,51.86503,101,67,0
51.773987,51.901325,92,57,0
51.88321,52.01002,93,57,0
51.88321,52.082485,101,67,0
51.991905,52.118717,94,58,0
52.1006,52.227413,95,59,0
52.1006,52.299877,101,69,0
52.209297,52.338154,98,60,0
52.317993,52.55993,96,69,0
52.317993,52.55993,100,69,0
52.55993,52.6898,72,47,0
52.6898,52.81746,76,52,0
52.81746,52.94041,79,56,0
52.94041,53.063362,84,54,0
53.063362,53.186314,88,52,0
53.186314,53.309265,91,50,0
53.309265,53.429745,90,52,0
53.429745,53.55023,99,55,0
53.55023,53.670708,87,45,0
53.670708,53.79119,96,52,0
53.79119,53.90702,91,45,0
53.90702,54.02285,100,39,0
54.02285,54.107437,88,40,0
54.13563,54.22022,88,40,0
54.248417,54.357506,96,48,0
54.357506,54.439323,84,41,0
54.4666,54.575687,84,41,0
54.575687,54.657505,91,42,0
54.68478,54.76842,79,51,0
54.796303,54.90783,79,43,0
54.90783,55.019352,88,45,0
55.019352,55.102997,76,45,0
55.130875,55.240364,76,54,0
55.240364,55.349854,84,48,0
55.349854,55.431973,72,48,0
55.459343,55.54146,72,48,0
55.568832,55.67636,79,56,0
55.67636,55.757004,67,48,0
55.783886,55.891415,67,48,0
55.891415,55.972057,79,48,0
55.99894,56.081966,64,56,0
56.109642,56.22034,64,49,0
56.22034,56.331043,72,49,0
56.331043,56.441746,60,50,0
56.441746,56.550835,65,64,0
56.550835,56.659927,72,51,0
56.659927,56.769016,60,51,0
56.769016,56.87811,69,52,0
56.87811,56.98374,77,63,0
56.98374,57.089375,65,53,0
57.089375,57.19501,72,53,0
57.19501,57.300644,81,54,0
57.300644,57.408558,69,66,0
57.408558,57.51647,77,55,0
57.51647,57.624386,84,57,0
57.624386,57.7323,72,57,0
57.7323,57.840214,84,69,0
57.840214,57.948124,89,59,0
57.948124,58.056038,77,60,0
58.056038,58.16395,84,64,0
58.16395,58.270336,93,75,0
58.270336,58.37672,81,67,0
58.37672,58.4831,89,68,0
58.4831,58.589737,96,68,0
58.589737,58.69688,84,78,0
58.69688,58.804024,93,72,0
58.804024,58.911167,101,73,0
58.911167,59.01831,89,74,0
59.01831,59.125835,92,76,0
59.125835,59.233364,101,80,0
59.233364,59.338257,100,79,0
59.338257,59.443153,99,76,0
59.443153,59.548416,98,75,0
59.548416,59.653927,97,72,0
59.653927,59.759686,96,72,0
59.759686,59.865818,95,70,0
59.443153,59.865818,101,70,0
59.865818,59.975708,92,62,0
59.975708,60.085598,86,70,0
59.865818,60.085598,98,74,0
60.085598,60.195488,91,57,0
60.195488,60.305378,89,67,0
60.085598,60.305378,95,69,0
60.305378,60.41368,88,63,0
60.41368,60.521984,94,64,0
60.521984,60.627617,93,63,0
60.627617,60.7335,92,61,0
60.305378,60.7335,96,74,0
60.7335,60.83976,91,56,0
60.83976,60.946392,90,54,0
60.946392,61.05341,89,53,0
61.05341,61.16081,88,53,0
60.7335,61.16081,96,67,0
61.16081,61.2707,85,48,0
61.2707,61.38059,79,46,0
61.16081,61.38059,91,56,0
61.38059,61.49048,84,43,0
61.49048,61.60037,82,43,0
61.38059,61.60037,88,51,0
61.60037,61.709064,84,43,0
61.709064,61.81776,89,38,0
61.81776,61.926456,81,43,0
61.709064,61.926456,93,47,0
61.926456,62.035152,78,43,0
62.035152,62.145447,77,43,0
62.145447,62.255737,86,38,0
62.255737,62.36603,77,44,0
62.145447,62.36603,89,47,0
62.36603,62.476326,73,44,0
62.476326,62.58662,72,44,0
62.58662,62.696915,81,40,0
62.696915,62.80721,72,44,0
62.58662,62.80721,84,48,0
62.80721,62.917503,70,44,0
62.917503,63.027798,69,44,0
63.027798,63.138092,77,40,0
63.138092,63.251728,69,44,0
63.027798,63.251728,81,48,0
63.251728,63.365364,65,44,0
63.479,63.81991,60,40,0
63.450592,63.81991,57,36,0
64.04718,64.15871,93,65,0
64.15871,64.27023,90,71,0
64.15871,64.27023,84,59,0
64.04718,64.27023,96,77,0
64.377754,64.48528,84,68,0
64.27023,64.48528,91,75,0
64.48528,64.59681,81,63,0
64.59681,64.70833,78,65,0
64.59681,64.70833,72,54,0
64.48528,64.70833,84,74,0
64.81586,64.923386,72,63,0
64.70833,64.923386,79,71,0
64.923386,65.0345,69,58,0
65.0345,65.14561,66,60,0
65.0345,65.14561,60,51,0
64.923386,65.14561,72,69,0
65.253136,65.360664,65,63,0
65.14561,65.360664,67,64,0
65.360664,65.4756,64,59,0
65.4756,65.590546,62,65,0
65.360664,65.590546,67,71,0
65.590546,65.71055,61,58,0
65.71055,65.83054,58,58,0
65.590546,65.83054,69,69,0
66.05277,66.274994,67,63,0
66.274994,66.497215,70,68,0
66.497215,66.72278,69,57,0
66.72278,66.94834,67,69,0
66.497215,66.94834,73,70,0
65.83054,66.94834,64,58,0
66.94834,67.18674,65,63,0
66.94834,67.18674,74,66,0
67.18674,67.29826,85,65,0
67.29826,67.40979,88,71,0
67.29826,67.40979,79,59,0
67.18674,67.40979,93,77,0
67.40979,67.51731,86,65,0
67.51731,67.62484,77,68,0
67.40979,67.62484,89,75,0
67.62484,67.73637,72,63,0
67.73637,67.84789,76,65,0
67.73637,67.84789,67,54,0
67.62484,67.84789,81,74,0
67.84789,67.955414,74,65,0
67.955414,68.06294,64,63,0
67.84789,68.06294,77,71,0
68.06294,68.17789,65,58,0
68.17789,68.29283,67,60,0
68.06294,68.29283,71,69,0
68.29283,68.40353,68,63,0
68.40353,68.51423,65,63,0
68.51423,68.62659,64,58,0
68.62659,68.73895,67,63,0
68.29283,68.73895,72,68,0
68.73895,68.85389,70,55,0
68.85389,68.968834,73,53,0
68.968834,69.08204,76,52,0
69.08204,69.19525,79,52,0
69.19525,69.3129,82,49,0
69.54819,69.78167,91,52,0
69.3129,69.78167,84,51,0
69.43054,69.78167,88,51,0
69.66584,69.8975,96,54,0
69.78167,70.01333,84,48,0
70.01333,70.12916,89,49,0
69.8975,70.12916,96,53,0
70.12916,70.25161,95,56,0
70.25161,70.374054,92,51,0
70.12916,70.374054,83,56,0
70.374054,70.496506,91,52,0
70.59659,70.63545,93,46,0
70.496506,70.63545,89,54,0
70.374054,70.63545,86,52,0
70.63545,70.831955,88,46,0
70.868904,70.905846,89,45,0
70.831955,70.905846,85,52,0
70.63545,70.905846,91,54,0
70.905846,71.11227,84,47,0
71.149956,71.187645,86,45,0
71.11227,71.187645,82,52,0
70.905846,71.187645,88,56,0
71.187645,71.39991,81,46,0
71.439804,71.4797,82,49,0
71.39991,71.4797,78,52,0
71.187645,71.4797,84,54,0
71.4797,71.71806,77,47,0
71.71806,71.81009,75,52,0
71.4797,71.81009,81,54,0
71.81009,71.93457,74,67,0
71.93457,72.058365,79,61,0
71.81009,72.18149,82,67,0
72.058365,72.18149,82,64,0
72.18149,72.30377,85,66,0
72.30377,72.42555,86,68,0
72.42555,72.546684,91,70,0
72.546684,72.66701,94,72,0
72.66701,72.79301,97,74,0
72.912056,73.031105,90,68,0
73.031105,73.15015,91,63,0
72.79301,73.15015,98,76,0
73.15015,73.28059,96,60,0
72.912056,73.28059,88,54,0
73.399635,73.51868,87,65,0
73.51868,73.637726,88,60,0
73.28059,73.637726,93,76,0
73.637726,73.76704,91,59,0
73.399635,73.76704,84,52,0
73.886086,74.005135,85,60,0
74.005135,74.124176,84,56,0
73.76704,74.124176,89,75,0
74.124176,74.25405,88,56,0
73.886086,74.25405,82,52,0
74.25405,74.376495,89,73,0
74.376495,74.49895,84,63,0
74.49895,74.6214,81,66,0
74.6214,74.76093,93,60,0
74.93535,75.32986,65,58,0
74.90047,75.32986,60,49,0
74.865585,75.32986,57,49,0
75.61971,75.73124,93,65,0
75.73124,75.84276,90,71,0
75.73124,75.84276,84,59,0
75.61971,75.84276,96,77,0
75.95029,76.057816,84,68,0
75.84276,76.057816,91,75,0
76.057816,76.16934,81,63,0
76.16934,76.28086,78,65,0
76.16934,76.28086,72,54,0
76.057816,76.28086,84,74,0
76.38687,76.492874,72,63,0
76.28086,76.492874,79,71,0
76.492874,76.60399,69,58,0
76.60399,76.715096,66,60,0
76.60399,76.715096,60,51,0
76.492874,76.715096,72,69,0
76.82148,76.927864,65,63,0
76.715096,76.927864,67,65,0
76.927864,77.042366,64,59,0
77.042366,77.156876,62,65,0
76.927864,77.156876,67,71,0
77.156876,77.27592,61,58,0
77.27592,77.394966,58,58,0
77.156876,77.394966,69,69,0
77.61719,77.83941,67,63,0
77.83941,78.06163,70,68,0
78.06163,78.28977,69,58,0
78.28977,78.51791,67,69,0
78.06163,78.51791,73,70,0
77.394966,78.51791,64,58,0
78.51791,78.75674,65,63,0
78.51791,78.75674,74,66,0
78.75674,78.868256,85,65,0
78.868256,78.97978,88,71,0
78.868256,78.97978,79,59,0
78.75674,78.97978,93,77,0
78.97978,79.08542,86,65,0
79.08542,79.19105,77,68,0
78.97978,79.19105,89,75,0
79.19105,79.302574,72,63,0
79.302574,79.4141,76,65,0
79.302574,79.4141,67,54,0
79.19105,79.4141,81,74,0
79.4141,79.520485,74,65,0
79.520485,79.62686,64,63,0
79.4141,79.62686,77,71,0
79.62686,79.744514,65,58,0
79.744514,79.86216,67,60,0
79.62686,79.86216,71,69,0
79.86216,79.97579,68,63,0
79.97579,80.08943,65,63,0
80.08943,80.20179,64,59,0
80.20179,80.31415,67,65,0
79.86216,80.31415,72,68,0
80.31415,80.42909,70,56,0
80.42909,80.54404,73,54,0
80.54404,80.65724,76,53,0
80.65724,80.77045,79,52,0
80.77045,80.89045,82,50,0
81.13045,81.36856,91,53,0
80.89045,81.36856,84,52,0
81.01045,81.36856,88,52,0
81.25045,81.48667,96,55,0
81.36856,81.60478,84,49,0
81.60478,81.72289,89,49,0
81.48667,81.72289,96,53,0
81.72289,81.84652,95,56,0
81.84652,81.97222,92,51,0
81.72289,81.97222,83,56,0
81.97222,82.10007,91,52,0
82.2048,82.24469,93,46,0
82.10007,82.24469,89,54,0
81.97222,82.24469,86,52,0
82.24469,82.45112,88,46,0
82.48862,82.526115,89,45,0
82.45112,82.526115,85,52,0
82.24469,82.526115,91,54,0
82.526115,82.7364,84,47,0
82.775055,82.81371,86,45,0
82.7364,82.81371,82,52,0
82.526115,82.81371,88,56,0
82.81371,83.032166,81,46,0
83.071846,83.11153,82,49,0
83.032166,83.11153,78,52,0
82.81371,83.11153,84,54,0
83.11153,83.34539,77,47,0
83.34539,83.43363,75,52,0
83.11153,83.43363,81,54,0
83.43363,83.563126,74,60,0
83.563126,83.69133,79,58,0
83.43363,83.81809,82,60,0
83.69133,83.81809,82,61,0
83.81809,83.94362,85,64,0
83.94362,84.06776,86,68,0
84.06776,84.19071,91,70,0
84.19071,84.31233,94,72,0
84.31233,84.438576,97,74,0
84.557625,84.67667,90,68,0
84.67667,84.795715,91,62,0
84.438576,84.795715,98,75,0
84.795715,84.926155,96,62,0
84.557625,84.926155,88,54,0
85.0452,85.164246,87,65,0
85.164246,85.283295,88,61,0
84.926155,85.283295,93,76,0
85.283295,85.412605,91,62,0
85.0452,85.412605,84,52,0
85.53709,85.66157,85,60,0
85.66157,85.792,84,58,0
85.412605,85.792,89,75,0
85.792,85.93763,88,59,0
85.53709,85.93763,82,52,0
85.93763,86.07037,89,73,0
86.07037,86.20312,84,63,0
86.20312,86.34331,81,66,0
86.34331,86.49559,93,60,0
86.68594,87.10473,65,58,0
86.64787,87.10473,60,49,0
86.6098,87.10473,57,49,0
88.60605,88.857956,63,38,0
88.60605,88.857956,60,32,0
88.88397,89.019714,60,32,0
88.88397,89.019714,63,38,0
88.46387,89.04064,69,48,0
89.14524,89.36119,60,34,0
89.14524,89.36119,64,41,0
89.38257,89.49381,60,34,0
89.38257,89.49381,64,41,0
89.019714,89.51227,70,49,0
89.60438,89.80285,65,43,0
89.60438,89.80285,62,36,0
89.82376,89.93259,62,37,0
89.82376,89.93259,65,44,0
89.49381,89.95064,71,54,0
90.040764,90.23497,65,46,0
90.040764,90.23497,60,38,0
90.25543,90.36194,60,39,0
90.25543,90.36194,65,47,0
89.93259,90.37961,72,60,0
90.46795,90.659645,64,40,0
90.46795,90.659645,67,48,0
90.67996,90.78332,64,41,0
90.67996,90.78332,67,49,0
90.36194,90.80062,73,65,0
90.88712,91.07555,68,51,0
90.88712,91.07555,65,43,0
91.09558,91.20023,65,43,0
91.09558,91.20023,68,52,0
90.78332,91.21771,74,68,0
91.305244,91.50573,67,53,0
91.305244,91.50573,64,44,0
91.52828,91.64593,64,45,0
91.52828,91.64593,67,53,0
91.20023,91.64593,72,68,0
91.758286,91.96472,69,55,0
91.758286,91.96472,65,46,0
91.975174,92.079704,69,55,0
91.975174,92.079704,65,46,0
91.64593,92.079704,72,73,0
92.19165,92.39832,62,47,0
92.19165,92.39832,69,55,0
92.40885,92.514114,69,55,0
92.40885,92.514114,62,47,0
92.079704,92.5327,74,77,0
92.62564,92.83428,62,45,0
92.62564,92.83428,67,53,0
92.84508,92.95299,62,42,0
92.84508,92.95299,67,50,0
92.514114,92.97165,70,73,0
93.06493,93.27095,67,53,0
93.06493,93.27095,60,44,0
93.2814,93.38569,67,53,0
93.2814,93.38569,60,44,0
92.95299,93.40299,72,69,0
93.48985,93.69083,60,41,0
93.48985,93.69083,65,49,0
93.7015,93.80903,65,49,0
93.7015,93.80903,60,41,0
93.38569,93.82708,69,70,0
93.917336,94.12311,57,41,0
93.917336,94.12311,61,49,0
94.13394,94.24264,61,49,0
94.13394,94.24264,57,41,0
93.80903,94.2613,67,65,0
94.35458,94.5606,62,48,0
94.35458,94.5606,57,40,0
94.57105,94.67534,57,40,0
94.57105,94.67534,62,48,0
94.24264,94.69264,65,61,0
94.7795,94.98048,53,39,0
94.7795,94.98048,57,46,0
94.99115,95.09868,57,46,0
94.99115,95.09868,53,39,0
94.67534,95.11673,63,59,0
95.206985,95.41276,58,45,0
95.206985,95.41276,53,38,0
95.42359,95.53229,58,45,0
95.42359,95.53229,53,38,0
95.09868,95.55095,62,57,0
95.644226,95.854,54,43,0
95.644226,95.854,50,36,0
95.86487,95.97304,50,35,0
95.86487,95.97304,54,42,0
95.53229,95.99109,60,56,0
96.081474,96.289696,50,35,0
96.081474,96.289696,55,42,0
96.30072,96.41156,55,41,0
96.30072,96.41156,50,34,0
95.97304,96.430145,58,54,0
96.523224,96.73867,56,38,0
96.523224,96.73867,50,32,0
96.75008,96.88644,56,38,0
96.75008,96.88644,50,32,0
96.41156,96.9071,59,49,0
97.01041,97.23984,55,36,0
97.01041,97.23984,48,30,0
97.25156,97.362885,48,30,0
97.25156,97.362885,55,36,0
96.88644,97.368744,60,49,0
96.88644,97.368744,58,41,0
97.487015,97.71536,48,31,0
97.487015,97.71536,54,37,0
97.72751,97.84995,54,37,0
97.368744,97.84995,58,40,0
97.368744,97.84995,60,48,0
97.72751,97.84995,48,31,0
97.97358,98.212456,55,35,0
97.97358,98.212456,48,30,0
98.22517,98.35338,48,30,0
97.84995,98.35338,60,47,0
97.84995,98.35338,58,39,0
98.22517,98.35338,55,35,0
98.48268,98.734726,53,26,0
98.48268,98.734726,57,31,0
98.74836,98.88472,53,25,0
98.74836,98.88472,57,30,0
98.35338,98.88472,60,43,0
99.04097,99.373695,60,30,0
99.04097,99.373695,57,25,0
99.3933,99.58938,57,25,0
99.3933,99.58938,60,30,0
98.88472,99.58938,65,43,0
99.74244,100.0205,63,34,0
99.74244,100.0205,60,28,0
100.03439,100.17328,63,38,0
100.03439,100.17328,60,32,0
99.58938,100.19403,69,45,0
100.29776,100.52495,64,41,0
100.29776,100.52495,60,34,0
100.536316,100.64909,64,41,0
100.536316,100.64909,60,34,0
100.17328,100.667755,70,49,0
100.76062,100.96914,65,43,0
100.76062,100.96914,62,36,0
100.98001,101.08779,65,44,0
100.98001,101.08779,62,37,0
100.64909,101.10571,71,54,0
101.19456,101.39588,65,46,0
101.19456,101.39588,60,38,0
101.40645,101.51183,65,47,0
101.40645,101.51183,60,39,0
101.08779,101.52938,72,60,0
101.61685,101.81538,67,48,0
101.61685,101.81538,64,40,0
101.82579,101.928894,67,49,0
101.82579,101.928894,64,41,0
101.51183,101.94613,73,65,0
102.032455,102.23022,68,51,0
102.032455,102.23022,65,43,0
102.24067,102.34532,68,52,0
102.24067,102.34532,65,43,0
101.928894,102.36281,74,68,0
102.45034,102.66199,67,53,0
102.45034,102.66199,64,44,0
102.67375,102.7914,67,53,0
102.67375,102.7914,64,45,0
102.34532,102.7914,72,68,0
102.903755,103.11019,69,55,0
102.903755,103.11019,65,46,0
103.12064,103.225174,69,55,0
103.12064,103.225174,65,46,0
102.7914,103.225174,72,73,0
103.33156,103.53235,69,55,0
103.33156,103.53235,62,47,0
103.54283,103.64773,69,55,0
103.54283,103.64773,62,47,0
103.225174,103.66552,74,77,0
103.75449,103.95632,67,53,0
103.75449,103.95632,62,45,0
103.96689,104.07252,67,50,0
103.96689,104.07252,62,42,0
103.64773,104.09118,70,73,0
104.18446,104.39048,67,53,0
104.18446,104.39048,60,44,0
104.40093,104.50522,67,53,0
104.40093,104.50522,60,44,0
104.07252,104.52252,72,69,0
104.60938,104.810356,65,49,0
104.60938,104.810356,60,41,0
104.82104,104.92856,65,49,0
104.82104,104.92856,60,41,0
104.50522,104.94661,69,70,0
105.036865,105.24264,61,49,0
105.036865,105.24264,57,41,0
105.25347,105.36217,61,49,0
105.25347,105.36217,57,41,0
104.92856,105.38083,67,65,0
105.47411,105.68013,62,48,0
105.47411,105.68013,57,40,0
105.69058,105.79487,62,48,0
105.69058,105.79487,57,40,0
105.36217,105.81217,65,61,0
105.89903,106.100006,57,46,0
105.89903,106.100006,53,39,0
106.11068,106.21821,57,46,0
106.11068,106.21821,53,39,0
105.79487,106.23626,63,59,0
106.326515,106.53229,58,45,0
106.326515,106.53229,53,38,0
106.54312,106.65182,58,45,0
106.54312,106.65182,53,38,0
106.21821,106.67048,62,57,0
106.76376,106.973526,54,43,0
106.76376,106.973526,50,36,0
106.9844,107.09257,54,42,0
106.9844,107.09257,50,35,0
106.65182,107.11062,60,56,0
107.201004,107.409225,55,42,0
107.201004,107.409225,50,35,0
107.42025,107.53109,55,41,0
107.42025,107.53109,50,34,0
107.09257,107.549675,58,54,0
107.64275,107.8582,56,38,0
107.64275,107.8582,50,32,0
107.869606,108.00597,56,38,0
107.869606,108.00597,50,32,0
107.53109,108.02663,59,49,0
108.12994,108.35937,55,36,0
108.12994,108.35937,48,30,0
108.371086,108.48827,55,36,0
108.00597,108.48827,60,49,0
108.00597,108.48827,58,41,0
108.371086,108.48827,48,30,0
108.60639,108.83473,54,37,0
108.60639,108.83473,48,31,0
108.84688,108.96933,54,37,0
108.48827,108.96933,60,48,0
108.48827,108.96933,58,40,0
108.84688,108.96933,48,31,0
109.0933,109.333176,55,35,0
109.0933,109.333176,48,30,0
109.34595,109.4747,55,35,0
108.96933,109.4747,60,47,0
108.96933,109.4747,58,39,0
109.34595,109.4747,48,30,0
109.60513,109.85886,53,31,0
109.60513,109.85886,48,26,0
109.87256,110.009544,53,30,0
109.4747,110.009544,57,36,0
109.4747,110.009544,60,43,0
109.87256,110.009544,48,25,0
110.16183,110.490585,53,30,0
110.16183,110.490585,48,25,0
110.51019,110.70627,53,30,0
110.009544,110.70627,57,36,0
110.009544,110.70627,60,43,0
110.51019,110.70627,48,25,0
110.86171,111.14215,60,36,0
110.86171,111.14215,57,30,0
111.15604,111.29493,60,38,0
111.15604,111.29493,57,32,0
110.70627,111.315674,65,48,0
111.41941,111.646454,58,41,0
111.41941,111.646454,55,34,0
111.657814,111.771164,58,41,0
111.657814,111.771164,55,34,0
111.29493,111.78996,64,49,0
111.88367,112.09551,59,43,0
111.88367,112.09551,53,36,0
112.10658,112.21701,59,44,0
112.10658,112.21701,53,37,0
111.771164,112.23532,62,54,0
112.32663,112.533104,57,46,0
112.32663,112.533104,52,38,0
112.54389,112.65155,57,47,0
112.54389,112.65155,52,39,0
112.21701,112.66941,61,60,0
112.75844,112.960106,56,48,0
112.75844,112.960106,53,40,0
112.9707,113.07406,56,49,0
112.9707,113.07406,53,41,0
112.65155,113.09136,62,65,0
113.177864,113.37587,57,51,0
113.177864,113.37587,54,43,0
113.38632,113.490974,57,52,0
113.38632,113.490974,54,43,0
113.07406,113.50845,63,68,0
113.59599,113.80726,57,53,0
113.59599,113.80726,55,44,0
113.81902,113.93667,57,53,0
113.81902,113.93667,55,45,0
113.490974,113.9554,64,68,0
114.04903,114.25613,57,55,0
114.04903,114.25613,53,46,0
114.266655,114.37192,57,55,0
114.266655,114.37192,53,46,0
113.93667,114.37192,65,73,0
114.48061,114.683716,58,55,0
114.48061,114.683716,55,47,0
114.69421,114.799095,58,55,0
114.69421,114.799095,55,47,0
114.37192,114.81715,61,77,0
114.9074,115.11044,57,53,0
114.9074,115.11044,53,45,0
115.120964,115.226234,57,50,0
115.120964,115.226234,53,42,0
114.799095,115.24435,62,73,0
115.33492,115.5377,57,53,0
115.33492,115.5377,50,44,0
115.54815,115.65244,57,53,0
115.54815,115.65244,50,44,0
115.226234,115.66974,60,69,0
115.75661,115.95758,55,49,0
115.75661,115.95758,50,41,0
115.968254,116.07578,55,49,0
115.968254,116.07578,50,41,0
115.65244,116.07578,58,70,0
116.18409,116.38986,53,49,0
116.18409,116.38986,50,41,0
116.400696,116.50939,53,49,0
116.400696,116.50939,50,41,0
116.07578,116.528046,59,65,0
116.62133,116.82735,53,48,0
116.62133,116.82735,48,40,0
116.8378,116.94209,53,48,0
116.8378,116.94209,48,40,0
116.50939,116.95939,60,61,0
117.04626,117.24723,53,46,0
117.04626,117.24723,50,39,0
117.257904,117.36543,53,46,0
117.257904,117.36543,50,39,0
116.94209,117.383484,59,59,0
117.47374,117.67951,53,45,0
117.47374,117.67951,48,38,0
117.690346,117.79904,53,45,0
117.690346,117.79904,48,38,0
117.36543,117.817696,60,57,0
117.91098,118.12075,53,43,0
117.91098,118.12075,50,36,0
118.131615,118.23979,53,42,0
118.131615,118.23979,50,35,0
117.79904,118.25784,59,56,0
118.34823,118.55644,53,42,0
118.34823,118.55644,50,35,0
118.567474,118.678314,53,41,0
118.567474,118.678314,50,34,0
118.23979,118.6969,60,54,0
118.78998,119.00542,53,38,0
118.78998,119.00542,50,32,0
119.01682,119.15319,53,38,0
119.01682,119.15319,50,32,0
118.678314,119.15319,59,49,0
119.27716,119.50659,55,36,0
119.27716,119.50659,48,30,0
119.51831,119.6355,55,36,0
119.15319,119.6355,60,49,0
119.15319,119.6355,58,41,0
119.51831,119.6355,48,30,0
119.75361,119.98196,54,37,0
119.75361,119.98196,48,31,0
119.9941,120.116554,54,37,0
119.6355,120.116554,60,48,0
119.6355,120.116554,58,40,0
119.9941,120.116554,48,31,0
120.240524,120.4804,55,35,0
120.240524,120.4804,48,30,0
120.493164,120.621925,55,35,0
120.116554,120.621925,60,47,0
120.116554,120.621925,58,39,0
120.493164,120.621925,48,30,0
120.75179,121.00384,53,31,0
120.75179,121.00384,48,26,0
121.01741,121.15316,53,30,0
120.621925,121.15316,57,36,0
120.621925,121.15316,60,43,0
121.01741,121.15316,48,25,0
121.30391,121.631134,53,30,0
121.30391,121.631134,48,25,0
121.65074,121.846825,53,30,0
121.15316,121.846825,57,36,0
121.15316,121.846825,60,43,0
121.65074,121.846825,48,25,0
121.99834,122.27428,60,36,0
121.99834,122.27428,57,30,0
122.2881,122.426346,60,38,0
122.2881,122.426346,57,32,0
121.846825,122.44745,65,48,0
122.55293,122.78447,58,41,0
122.55293,122.78447,55,34,0
122.7961,122.91148,58,41,0
122.7961,122.91148,55,34,0
122.426346,122.930565,64,49,0
123.02584,123.240074,59,43,0
123.02584,123.240074,53,36,0
123.25127,123.36238,59,44,0
123.25127,123.36238,53,37,0
122.91148,123.38076,62,54,0
123.47254,123.679016,57,46,0
123.47254,123.679016,52,38,0
123.689804,123.79695,57,47,0
123.689804,123.79695,52,39,0
123.36238,123.814674,61,60,0
123.90333,124.104866,56,48,0
123.90333,124.104866,53,40,0
124.11547,124.21883,56,49,0
124.11547,124.21883,53,41,0
123.79695,124.23612,62,65,0
124.32263,124.52063,57,51,0
124.32263,124.52063,54,43,0
124.53108,124.635735,57,52,0
124.53108,124.635735,54,43,0
124.21883,124.65322,63,68,0
124.74075,124.95203,57,53,0
124.74075,124.95203,55,44,0
124.96379,125.081436,57,53,0
124.96379,125.081436,55,45,0
124.635735,125.10016,64,68,0
125.193794,125.40293,57,55,0
125.193794,125.40293,53,46,0
125.41368,125.52121,57,55,0
125.41368,125.52121,53,46,0
125.081436,125.52121,65,73,0
125.63315,125.84256,58,55,0
125.63315,125.84256,55,47,0
125.85339,125.96169,58,55,0
125.85339,125.96169,55,47,0
125.52121,125.980286,61,77,0
126.07322,126.28187,57,53,0
126.07322,126.28187,53,45,0
126.292656,126.40057,57,50,0
126.292656,126.40057,53,42,0
125.96169,126.41923,62,73,0
126.51251,126.7202,57,53,0
126.51251,126.7202,50,44,0
126.730835,126.83636,57,53,0
126.730835,126.83636,50,44,0
126.40057,126.83636,60,69,0
126.941376,127.14238,55,49,0
126.941376,127.14238,50,41,0
127.15302,127.26042,55,49,0
127.15302,127.26042,50,41,0
126.83636,127.26042,58,70,0
127.36872,127.5745,53,49,0
127.36872,127.5745,50,41,0
127.58533,127.69403,53,49,0
127.58533,127.69403,50,41,0
127.26042,127.712685,59,65,0
127.80597,128.01366,53,48,0
127.80597,128.01366,48,40,0
128.02429,128.12982,53,48,0
128.02429,128.12982,48,40,0
127.69403,128.14749,60,61,0
128.23582,128.43803,53,46,0
128.23582,128.43803,50,39,0
128.44872,128.55598,53,46,0
128.44872,128.55598,50,39,0
128.12982,128.57404,59,59,0
128.66429,128.87007,53,45,0
128.66429,128.87007,48,38,0
128.8809,128.9896,53,45,0
128.8809,128.9896,48,38,0
128.55598,129.00826,60,57,0
129.10153,129.31131,53,43,0
129.10153,129.31131,50,36,0
129.32217,129.43034,53,42,0
129.32217,129.43034,50,35,0
128.9896,129.4484,59,56,0
129.53879,129.747,53,42,0
129.53879,129.747,50,35,0
129.75803,129.86887,53,41,0
129.75803,129.86887,50,34,0
129.43034,129.88745,60,54,0
129.98053,130.19597,53,38,0
129.98053,130.19597,50,32,0
130.20738,130.34375,53,38,0
130.20738,130.34375,50,32,0
129.86887,130.34375,59,49,0
130.46771,130.69714,55,35,0
130.46771,130.69714,48,29,0
130.70886,130.8262,55,34,0
130.34375,130.8262,60,49,0
130.34375,130.8262,58,41,0
130.70886,130.8262,48,29,0
130.94495,131.1762,54,34,0
130.94495,131.1762,48,29,0
131.18854,131.31354,54,33,0
130.8262,131.31354,60,45,0
130.8262,131.31354,58,37,0
131.18854,131.31354,48,28,0
131.44084,131.68904,55,31,0
131.44084,131.68904,48,26,0
131.70232,131.83664,55,31,0
131.31354,131.83664,60,42,0
131.31354,131.83664,58,34,0
131.70232,131.83664,48,25,0
131.98227,132.2822,53,26,0
131.98227,132.2822,48,21,0
132.29933,132.47076,53,25,0
131.83664,132.47076,57,31,0
131.83664,132.47076,60,36,0
132.29933,132.47076,48,21,0
132.68353,133.57129,53,23,0
132.68353,133.57129,48,18,0
133.6463,135.5213,53,21,0
132.47076,135.5213,57,25,0
132.47076,135.5213,60,30,0
133.6463,135.5213,48,15,0
137.5213,137.63142,66,44,0
137.6094,137.71953,67,45,0
137.69751,137.8068,69,46,0
137.78561,137.89154,70,46,0
137.87036,137.97629,72,47,0
137.95511,138.05984,74,48,0
138.03986,138.13985,76,49,0
138.11984,138.19984,79,47,0
138.19984,138.29712,72,47,0
138.27766,138.37488,73,51,0
138.35548,138.43301,82,47,0
138.43301,138.53014,69,48,0
138.51038,138.60919,70,51,0
138.58943,138.66849,79,45,0
138.66849,138.76692,66,45,0
138.74753,138.84444,67,51,0
138.82506,138.92195,69,46,0
138.90257,138.99986,70,46,0
138.98009,139.0789,72,51,0
139.05914,139.15796,74,51,0
139.1382,139.23656,76,53,0
139.21724,139.31377,77,54,0
139.29446,139.39099,79,55,0
139.37169,139.46829,81,55,0
139.52643,139.62332,76,53,0
139.60394,139.7007,79,53,0
139.68146,139.77762,82,54,0
139.44891,139.85454,84,56,0
139.75839,139.85454,84,55,0
139.83531,139.93153,86,56,0
139.91223,140.00876,87,57,0
139.98946,140.08598,88,58,0
140.06668,140.16327,89,59,0
140.14389,140.2408,90,60,0
140.22142,140.31831,91,61,0
140.29893,140.3959,93,62,0
140.37645,140.47372,94,63,0
140.45427,140.55154,95,64,0
140.53209,140.62944,96,65,0
140.60991,140.70757,97,66,0
140.68803,140.78569,98,67,0
140.76616,140.86404,100,68,0
140.84444,140.94247,101,74,0
140.92287,141.0224,96,69,0
141.00131,141.0857,93,68,0
141.16412,141.26216,98,66,0
141.24255,141.32098,95,66,0
141.0857,141.32098,92,72,0
141.32098,141.4226,96,74,0
141.40228,141.50632,93,66,0
141.4836,141.5745,89,66,0
141.6545,141.7545,92,66,0
141.7345,141.8145,89,66,0
141.5745,141.8145,86,71,0
141.8145,141.91653,93,70,0
141.89613,141.99998,89,66,0
141.97777,142.06665,84,66,0
142.06665,142.16508,92,71,0
142.14539,142.24382,86,66,0
142.22414,142.30287,83,66,0
142.30287,142.38287,84,71,0
142.38287,142.46288,81,60,0
142.46288,142.54837,77,60,0
142.54837,142.62907,84,64,0
142.54837,142.66957,76,54,0
142.62907,142.71005,84,55,0
142.62907,142.71005,81,46,0
142.71005,142.7913,72,55,0
142.7913,142.87277,81,59,0
142.7913,142.91359,71,50,0
142.87277,142.95451,77,53,0
142.87277,142.95451,72,45,0
142.95451,143.03648,69,52,0
143.03648,143.11879,77,59,0
143.03648,143.16,68,50,0
143.11879,143.20132,69,42,0
143.11879,143.20132,72,50,0
143.20132,143.28415,65,50,0
143.28415,143.3672,72,54,0
143.28415,143.40887,64,45,0
143.3672,143.45053,69,47,0
143.3672,143.45053,65,39,0
143.45053,143.53416,60,46,0
143.53416,143.6181,69,50,0
143.53416,143.66011,59,42,0
143.6181,143.70226,65,44,0
143.6181,143.70226,60,37,0
143.70226,143.78671,57,45,0
143.78671,143.87146,67,57,0
143.87146,143.97629,62,51,0
143.9562,144.05661,63,51,0
144.03653,144.13693,64,52,0
144.11685,144.21684,65,52,0
144.19685,144.29684,66,53,0
144.27686,144.37662,67,53,0
144.35669,144.45605,68,54,0
144.43622,144.53534,69,54,0
144.51558,144.61432,70,55,0
144.59464,144.69298,71,55,0
144.67337,144.77141,72,56,0
144.7518,144.84961,73,56,0
144.83008,144.9275,74,57,0
144.90805,145.0051,75,57,0
144.98572,145.08255,76,58,0
145.06325,145.1597,77,58,0
145.14046,145.23662,78,59,0
145.21738,145.29431,79,59,0
145.29431,145.39046,72,61,0
145.37123,145.46738,73,61,0
145.44815,145.54431,74,62,0
145.52507,145.62123,75,63,0
145.602,145.6975,76,63,0
145.67848,145.77391,77,64,0
145.75482,145.85023,78,65,0
145.83116,145.92679,79,65,0
145.90764,146.00365,80,66,0
145.98442,146.08064,81,67,0
146.06134,146.15808,82,67,0
146.1387,146.2359,83,67,0
146.21637,146.31427,84,68,0
146.29466,146.393,85,69,0
146.37325,146.47229,86,71,0
146.45245,146.55197,87,72,0
146.53197,146.63326,88,73,0
146.61197,146.69708,89,75,0
146.69708,146.78218,84,70,0
146.78218,146.87148,81,70,0
146.87148,146.96075,80,74,0
146.96075,147.07126,85,70,0
147.07126,147.18175,89,70,0
147.18175,147.26273,101,77,0
147.26273,147.34354,95,72,0
147.34354,147.42418,92,72,0
147.42418,147.5045,89,71,0
147.5045,147.58466,86,70,0
147.58466,147.6645,83,69,0
147.6645,147.74419,80,69,0
147.74419,147.82355,77,68,0
147.82355,147.90276,74,67,0
147.90276,147.98181,71,66,0
147.98181,148.06055,68,66,0
148.06055,148.13898,65,65,0
148.13898,148.2174,72,66,0
148.2174,148.31522,67,60,0
148.29568,148.39326,68,60,0
148.37381,148.47108,69,65,0
148.45163,148.54868,70,60,0
148.5293,148.62613,71,60,0
148.60683,148.70357,72,62,0
148.68419,148.78139,73,61,0
148.76186,148.85982,74,60,0
148.84013,148.93864,75,59,0
148.91888,149.018,76,58,0
148.9981,149.07912,77,57,0
149.07912,149.16533,78,55,0
149.16533,149.25432,79,54,0
149.25432,149.34639,81,53,0
149.34639,149.44164,82,52,0
149.07912,149.54018,84,56,0
149.44164,149.54018,84,51,0
149.54018,149.64195,86,50,0
149.64195,149.7253,88,50,0
149.7253,149.80862,91,52,0
149.64195,149.89195,84,50,0
149.80862,149.89195,84,52,0
149.89195,149.9753,85,48,0
149.9753,150.05862,94,41,0
150.05862,150.14195,81,42,0
150.14195,150.22325,82,47,0
150.22325,150.30457,91,42,0
150.30457,150.38586,78,42,0
150.38586,150.46716,79,47,0
150.46716,150.54846,81,42,0
150.54846,150.62976,82,42,0
150.62976,150.71416,84,47,0
150.71416,150.79854,86,42,0
150.79854,150.88292,88,42,0
150.88292,150.96732,89,45,0
150.96732,151.0517,91,42,0
151.0517,151.1361,93,42,0
151.1361,151.22047,96,51,0
151.22047,151.30487,94,42,0
151.30487,151.38925,91,42,0
151.38925,151.47365,88,48,0
151.47365,151.55803,84,48,0
151.55803,151.64243,86,49,0
151.64243,151.72438,87,49,0
151.72438,151.80635,88,50,0
151.80635,151.88832,89,52,0
151.88832,151.97029,90,54,0
151.97029,152.05226,91,55,0
152.05226,152.13422,93,57,0
152.13422,152.21933,94,59,0
152.21933,152.30443,95,60,0
152.30443,152.38954,96,62,0
152.38954,152.47118,97,64,0
152.47118,152.55281,98,65,0
152.55281,152.63445,100,67,0
152.63445,152.71608,101,69,0
152.71608,152.7977,96,57,0
152.7977,152.87933,93,58,0
152.87933,152.96097,92,65,0
152.96097,153.0426,95,55,0
153.0426,153.12424,98,55,0
153.12424,153.20587,96,61,0
153.20587,153.2875,93,55,0
153.2875,153.36914,89,55,0
153.44727,153.52539,100,53,0
153.52539,153.60352,88,53,0
153.36914,153.60352,94,58,0
153.68164,153.75977,98,52,0
153.75977,153.83789,86,52,0
153.60352,153.83789,93,57,0
153.91602,153.99588,96,51,0
153.99588,154.07751,84,51,0
153.83789,154.07751,91,56,0
154.15564,154.23376,94,49,0
154.23376,154.31189,82,49,0
154.07751,154.31189,89,54,0
154.39001,154.46814,93,49,0
154.46814,154.54626,81,49,0
154.31189,154.54626,88,53,0
154.62408,154.70206,91,48,0
154.70206,154.78026,79,48,0
154.54626,154.78026,86,52,0
154.8587,154.93744,89,46,0
154.93744,155.01642,77,46,0
154.78026,155.01642,84,50,0
155.09561,155.17506,89,45,0
155.17506,155.25475,77,45,0
155.01642,155.25475,83,49,0
155.33475,155.41498,89,44,0
155.41498,155.49547,77,44,0
155.25475,155.49547,84,48,0
155.49547,155.57611,86,52,0
155.57611,155.67693,79,44,0
155.65675,155.75732,80,45,0
155.73724,155.83757,81,45,0
155.81757,155.91756,82,46,0
155.89757,155.99748,83,47,0
155.97757,156.07716,84,48,0
156.05725,156.15662,85,49,0
156.13676,156.23598,86,50,0
156.21613,156.31511,87,51,0
156.29533,156.39407,88,51,0
156.37439,156.47282,89,52,0
156.45314,156.55148,90,54,0
156.53188,156.62991,91,55,0
156.6103,156.70811,92,56,0
156.68858,156.78624,93,57,0
156.76671,156.86414,94,58,0
156.84468,156.94196,95,58,0
156.9225,157.00032,96,59,0
157.00032,157.0976,84,60,0
157.07814,157.17549,85,61,0
157.15596,157.25362,86,62,0
157.23409,157.33174,87,63,0
157.31221,157.40987,88,64,0
157.39034,157.48807,89,64,0
157.46846,157.5665,90,64,0
157.54689,157.64493,91,65,0
157.62532,157.72337,92,66,0
157.70377,157.80203,93,67,0
157.78235,157.88084,94,68,0
157.86108,157.94029,95,69,0
157.94029,158.02013,96,70,0
158.02013,158.10062,97,71,0
158.10062,158.18143,98,72,0
158.18143,158.2629,99,72,0
158.2629,158.34503,100,73,0
158.34503,158.42767,101,79,0
158.42767,158.51031,96,71,0
158.51031,158.59296,93,71,0
158.59296,158.67148,89,77,0
158.67561,158.75826,89,69,0
158.75826,158.8409,84,69,0
158.8409,158.92354,96,77,0
158.92354,159.00618,93,71,0
159.00618,159.08884,89,71,0
159.08884,159.16734,84,76,0
159.17148,159.25412,84,69,0
159.25412,159.33676,81,70,0
159.33676,159.42334,93,74,0
159.42334,159.50992,89,70,0
159.50992,159.5965,84,70,0
159.5965,159.67876,81,74,0
159.68309,159.76967,81,69,0
159.76967,159.85191,77,70,0
159.85625,160.12173,89,74,0
160.12173,160.20438,57,72,0
160.20438,160.28702,60,67,0
160.28702,160.36966,65,68,0
160.6176,160.70024,69,75,0
160.70024,160.78288,72,71,0
160.78288,160.86554,77,70,0
160.86554,160.95403,81,74,0
160.95403,161.04253,84,72,0
161.04253,161.14154,89,72,0
161.14154,161.24484,93,54,0
161.22418,161.32748,91,53,0
161.30682,161.41084,89,52,0
161.38947,161.4963,88,49,0
161.47495,161.58177,89,47,0
161.56041,161.64587,91,47,0
161.64587,161.74919,79,51,0
161.72852,161.83183,82,47,0
161.81117,161.915,84,48,0
161.89381,161.99974,85,55,0
161.97856,162.08449,88,45,0
162.06331,162.14806,91,45,0
162.14806,162.24927,79,51,0
162.22902,162.33023,82,46,0
162.31,162.41104,84,46,0
162.39096,162.49136,85,56,0
162.47128,162.57169,88,50,0
162.5516,162.63193,91,50,0
162.63193,162.72997,79,54,0
162.71036,162.8084,82,50,0
162.78879,162.88722,89,50,0
162.86722,162.96722,88,49,0
162.94722,163.05037,87,47,0
163.02722,163.13927,88,47,0
163.11981,163.21701,100,48,0
163.19763,163.29454,97,44,0
163.27516,163.35237,91,44,0
163.35237,163.44876,88,50,0
163.42944,163.5262,85,40,0
163.50682,163.60394,88,40,0
163.58449,163.68199,76,45,0
163.66246,163.76035,73,40,0
163.74074,163.81932,76,40,0
163.81932,163.8983,64,48,0
163.8983,163.97736,61,42,0
163.97736,164.06139,64,42,0
164.06139,164.1598,57,44,0
164.14012,164.23856,59,41,0
164.21886,164.31834,61,40,0
164.2976,164.40134,62,41,0
164.38058,164.48433,69,39,0
164.46358,164.54657,66,39,0
164.54657,164.64778,57,43,0
164.62753,164.72876,60,39,0
164.70851,164.81006,63,40,0
164.78947,164.89236,62,46,0
164.87178,164.97467,69,38,0
164.95409,165.03639,66,38,0
165.03639,165.1376,57,43,0
165.11737,165.21858,60,39,0
165.19833,165.2994,63,39,0
165.27931,165.37971,62,47,0
165.35963,165.46004,69,42,0
165.43996,165.52028,66,42,0
165.52028,165.61832,57,45,0
165.59871,165.69675,60,42,0
165.67714,165.77557,63,42,0
165.75557,165.83557,62,46,0
165.83557,165.91557,65,47,0
165.91557,166.00816,68,49,0
166.00816,166.08598,71,50,0
166.08598,166.1635,74,51,0
166.1635,166.24072,77,53,0
166.24072,166.3178,80,54,0
166.3178,166.39516,77,55,0
166.39516,166.47284,80,57,0
166.47284,166.55081,83,58,0
166.55081,166.62909,86,59,0
166.62909,166.70767,89,61,0
166.70767,166.78665,92,62,0
166.78665,166.86569,85,63,0
166.86569,166.94633,86,65,0
166.94633,167.02509,89,66,0
167.02509,167.10382,92,67,0
167.17273,167.2199,98,65,0
167.10382,167.2199,95,72,0
167.2199,167.29865,101,74,0
167.29865,167.37738,100,72,0
167.37738,167.45612,98,70,0
167.45612,167.53809,96,68,0
167.53809,167.62006,94,64,0
167.62006,167.70203,98,65,0
167.70203,167.78398,91,66,0
167.78398,167.86595,88,61,0
167.86595,167.94792,96,61,0
167.94792,168.02989,84,65,0
168.02989,168.11186,82,60,0
168.11186,168.19382,86,60,0
168.19382,168.27579,79,57,0
168.27579,168.35776,76,51,0
168.35776,168.43973,84,51,0
168.43973,168.52519,72,55,0
168.52519,168.61067,74,49,0
168.61067,168.69614,76,49,0
168.69614,168.7781,77,52,0
168.7781,168.86008,81,48,0
168.86008,168.93944,82,48,0
168.93944,169.0188,84,52,0
169.0188,169.09816,89,48,0
169.09816,169.17754,93,48,0
169.17754,169.25894,96,59,0
169.25894,169.3421,94,53,0
169.3421,169.40338,93,53,0
169.40338,169.44014,94,53,0
169.44014,169.53539,93,58,0
169.53539,169.63062,91,53,0
169.63062,169.69312,89,53,0
169.69312,169.73062,91,58,0
169.73062,169.82915,89,60,0
169.82915,169.92767,88,53,0
169.92767,169.99277,86,53,0
169.99277,170.03183,88,58,0
170.03183,170.13565,86,59,0
170.13565,170.24855,84,52,0
170.24855,170.32454,83,52,0
170.32454,170.37244,84,53,0
170.37244,170.52396,93,57,0
170.57446,170.65993,89,56,0
170.65993,170.7454,84,56,0
170.7454,170.83087,81,56,0
170.83087,170.91635,77,55,0
170.91635,170.99864,72,55,0
170.99864,171.08095,84,54,0
171.08095,171.16325,81,54,0
171.16325,171.24556,77,53,0
171.24556,171.32787,72,53,0
171.32787,171.41017,69,53,0
171.41017,171.49248,72,52,0
171.49248,171.57478,67,52,0
171.57478,171.65709,64,51,0
171.65709,171.7394,60,51,0
171.7394,171.83072,58,50,0
171.83072,171.92204,55,50,0
171.92204,172.00221,53,50,0
172.00642,172.09082,53,51,0
172.09082,172.1752,57,52,0
172.1752,172.25537,65,53,0
172.2596,172.34654,65,55,0
172.34654,172.44044,69,56,0
172.44044,172.5213,77,57,0
172.52554,172.61066,77,58,0
172.61066,172.69577,81,60,0
172.69577,172.77661,89,61,0
172.78087,172.87096,89,62,0
172.87096,172.97046,93,63,0
172.97046,173.23595,101,71,0
173.23595,173.33925,93,54,0
173.31859,173.4219,91,53,0
173.40125,173.50525,89,52,0
173.48389,173.59071,88,49,0
173.56935,173.6762,89,47,0
173.65482,173.7403,91,47,0
173.7403,173.8415,79,51,0
173.82126,173.92249,82,47,0
173.90224,174.00378,84,48,0
173.98322,174.08609,85,55,0
174.0655,174.1684,88,45,0
174.14781,174.23012,91,45,0
174.23012,174.33133,79,51,0
174.3111,174.41231,82,46,0
174.39206,174.49312,84,46,0
174.47304,174.57344,85,56,0
174.55336,174.65376,88,50,0
174.63368,174.714,91,50,0
174.714,174.81204,79,54,0
174.79243,174.89047,82,50,0
174.87086,174.9693,89,50,0
174.9493,175.0493,88,49,0
175.0293,175.13405,87,47,0
175.1093,175.2283,88,47,0
175.2083,175.30798,100,48,0
175.28815,175.38681,97,44,0
175.3672,175.4454,91,44,0
175.4454,175.54268,88,50,0
175.52322,175.6208,85,40,0
175.60127,175.69923,88,40,0
175.67963,175.77797,76,45,0
175.75829,175.85703,73,40,0
175.83727,175.91655,76,40,0
175.91655,175.99576,64,48,0
175.99576,176.07481,61,42,0
176.07481,176.15884,64,42,0
176.15884,176.25726,57,44,0
176.23758,176.336,59,41,0
176.31631,176.4158,61,40,0
176.39507,176.4988,62,41,0
176.47804,176.58179,69,39,0
176.56104,176.64403,66,39,0
176.64403,176.74524,57,43,0
176.72499,176.8262,60,39,0
176.80597,176.90752,63,40,0
176.88693,176.98982,62,46,0
176.96924,177.07213,69,38,0
177.05154,177.13385,66,38,0
177.13385,177.23506,57,43,0
177.21483,177.31604,60,39,0
177.29579,177.39685,63,39,0
177.37677,177.47717,62,47,0
177.45709,177.5575,69,42,0
177.53741,177.61774,66,42,0
177.61774,177.71577,57,45,0
177.69617,177.7942,60,42,0
177.7746,177.87369,63,42,0
177.85303,177.93567,62,46,0
177.93567,178.01831,65,47,0
178.01831,178.1109,68,49,0
178.1109,178.18872,71,50,0
178.18872,178.26625,74,51,0
178.26625,178.34348,77,53,0
178.34348,178.42055,80,54,0
178.42055,178.49791,77,55,0
178.49791,178.57558,80,57,0
178.57558,178.65355,83,58,0
178.65355,178.73183,86,59,0
178.73183,178.81041,89,61,0
178.81041,178.88939,92,62,0
178.88939,178.96844,85,63,0
178.96844,179.04909,86,65,0
179.04909,179.12782,89,66,0
179.12782,179.20657,92,67,0
179.27548,179.32265,98,65,0
179.20657,179.32265,95,72,0
179.32265,179.40265,101,74,0
179.40265,179.48265,100,72,0
179.48265,179.56265,98,70,0
179.56265,179.6446,96,68,0
179.6446,179.72658,94,64,0
179.72658,179.80855,98,65,0
179.80855,179.88919,91,66,0
179.88919,179.96983,88,61,0
179.96983,180.05048,96,61,0
180.05048,180.13245,84,65,0
180.13245,180.21442,82,60,0
180.21442,180.29639,86,60,0
180.29639,180.37836,79,57,0
180.37836,180.46031,76,51,0
180.46031,180.54228,84,51,0
180.54228,180.62425,72,55,0
180.62425,180.70622,74,49,0
180.70622,180.7882,76,49,0
180.7882,180.87015,77,52,0
180.87015,180.95212,81,48,0
180.95212,181.0315,82,48,0
181.0315,181.11086,84,52,0
181.11086,181.19022,89,48,0
181.19022,181.26958,93,48,0
181.26958,181.35098,96,59,0
181.35098,181.43416,94,53,0
181.43416,181.49544,93,53,0
181.49544,181.5322,94,53,0
181.5322,181.62744,93,58,0
181.62744,181.72267,91,53,0
181.72267,181.78517,89,53,0
181.78517,181.82268,91,58,0
181.82268,181.92119,89,60,0
181.92119,182.01971,88,53,0
182.01971,182.08691,86,53,0
182.08691,182.1271,88,58,0
182.1271,182.23625,86,59,0
182.23625,182.3502,84,52,0
182.3502,182.42621,83,52,0
182.42621,182.4741,84,53,0
182.4741,182.62563,93,57,0
182.67613,182.76541,89,56,0
182.76541,182.85469,84,56,0
182.85469,182.94398,81,56,0
182.94398,183.03326,77,55,0
183.03326,183.11557,72,55,0
183.11557,183.19788,84,54,0
183.19788,183.28227,81,54,0
183.28227,183.36665,77,53,0
183.36665,183.45105,72,53,0
183.45105,183.53543,69,53,0
183.53543,183.61774,72,52,0
183.61774,183.70004,67,52,0
183.70004,183.78442,64,51,0
183.78442,183.86882,60,51,0
183.86882,183.96014,58,50,0
183.96014,184.05147,55,50,0
184.05147,184.13585,53,50,0
184.13585,184.22025,57,51,0
184.22025,184.30463,60,52,0
184.30463,184.36792,65,52,0
184.36792,184.4325,69,52,0
184.4325,184.49771,72,53,0
184.49771,184.56041,77,53,0
184.8209,184.86504,89,63,0
184.70049,184.86504,77,53,0
184.73811,184.86504,81,56,0
184.77737,184.86504,84,60,0
187.29013,188.12868,74,42,0
187.29013,188.12868,86,50,0
188.12868,188.96721,75,45,0
188.12868,188.96721,87,53,0
188.96721,189.70844,80,49,0
188.96721,189.70844,92,58,0
189.70844,190.46925,84,52,0
189.70844,190.46925,96,63,0
190.46925,191.97017,101,70,0
190.46925,191.97017,89,60,0
191.97017,192.74709,87,50,0
191.97017,192.74709,99,60,0
192.74709,193.25772,85,47,0
192.74709,193.25772,97,55,0
193.25772,193.37772,85,47,0
193.37772,193.4982,84,33,0
193.4982,193.61868,83,33,0
193.37772,193.61868,89,45,0
193.61868,193.73933,82,32,0
193.73933,193.8608,81,32,0
193.61868,193.8608,89,45,0
193.8608,193.98299,80,32,0
193.98299,194.10654,79,32,0
193.8608,194.10654,89,44,0
194.10654,194.23067,78,32,0
194.23067,194.35541,77,31,0
194.10654,194.35541,82,44,0
194.35541,194.48076,76,31,0
194.48076,194.60672,75,30,0
194.35541,194.60672,82,43,0
194.60672,194.7334,74,30,0
194.7334,194.86078,73,30,0
194.60672,194.86078,82,42,0
194.86078,194.98985,72,29,0
194.98985,195.05473,72,37,0
195.05473,195.11961,70,32,0
194.86078,195.11961,82,41,0
195.11961,195.18451,72,37,0
195.18451,195.24939,70,32,0
195.24939,195.31427,72,37,0
195.31427,195.37915,70,32,0
195.37915,195.44405,72,37,0
195.44405,195.50893,70,31,0
195.50893,195.5705,72,37,0
195.5705,195.63152,70,32,0
195.63152,195.69475,72,37,0
195.69475,195.75757,70,32,0
195.75757,195.81892,72,37,0
195.81892,195.88226,70,33,0
195.88226,195.94513,72,37,0
195.94513,196.00677,70,33,0
196.00677,196.06969,72,37,0
196.06969,196.1326,70,31,0
196.1326,196.19446,72,37,0
196.19446,196.25552,70,31,0
196.25552,196.31892,72,37,0
196.31892,196.3829,70,32,0
196.3829,196.44473,72,37,0
196.44473,196.50562,70,32,0
196.50562,196.56856,72,37,0
196.56856,196.63211,70,31,0
196.63211,196.69383,72,36,0
196.69383,196.75565,70,27,0
196.75565,196.82053,72,34,0
196.82053,196.8854,70,28,0
196.8854,196.95029,72,32,0
196.95029,197.01518,70,27,0
197.01518,197.08217,72,31,0
197.08217,197.15529,70,26,0
197.15529,197.23592,72,29,0
197.23592,197.3258,70,23,0
196.50562,197.3258,75,50,0
197.3258,197.39069,71,29,0
197.39069,197.45557,70,26,0
197.45557,197.52046,71,30,0
197.52046,197.58534,70,27,0
197.58534,197.65022,71,31,0
197.65022,197.71512,70,27,0
197.71512,197.78,71,32,0
197.78,197.84488,70,27,0
197.84488,197.90729,71,33,0
197.90729,197.96922,70,28,0
197.96922,198.03065,71,34,0
198.03065,198.0933,70,29,0
197.3258,198.0933,74,51,0
198.0933,198.15573,71,35,0
198.15573,198.21689,70,31,0
198.21689,198.27858,71,36,0
198.27858,198.34181,70,32,0
198.34181,198.40471,71,36,0
198.40471,198.4659,70,31,0
198.4659,198.52707,71,37,0
198.52707,198.58986,70,31,0
198.58986,198.65332,71,37,0
198.65332,198.71547,70,32,0
198.71547,198.77759,71,37,0
198.77759,198.84009,70,32,0
198.0933,198.84009,77,56,0
198.84009,198.90443,71,37,0
198.90443,198.96754,70,32,0
198.96754,199.03014,71,37,0
199.03014,199.09438,70,33,0
199.09438,199.15921,71,37,0
199.15921,199.22255,70,32,0
199.22255,199.2853,71,37,0
199.2853,199.349,70,32,0
199.349,199.41338,71,37,0
199.41338,199.47748,70,32,0
199.47748,199.54037,71,37,0
199.54037,199.6036,70,31,0
198.84009,199.6036,80,59,0
199.6036,199.66805,71,37,0
199.66805,199.73323,70,31,0
199.73323,199.79689,71,36,0
199.79689,199.86046,70,31,0
199.86046,199.9229,71,36,0
199.9229,199.985,70,30,0
199.985,200.0487,71,36,0
200.0487,200.11142,70,29,0
200.11142,200.1729,71,35,0
200.1729,200.2348,70,29,0
200.2348,200.29791,71,35,0
200.29791,200.36122,70,29,0
200.36122,200.42297,71,34,0
200.42297,200.48517,70,29,0
200.48517,200.54904,71,33,0
200.54904,200.61157,70,29,0
200.61157,200.675,71,33,0
200.675,200.73877,70,27,0
200.73877,200.79942,71,32,0
200.79942,200.86082,70,27,0
200.86082,200.92395,71,32,0
200.92395,200.98784,70,27,0
200.98784,201.05072,71,31,0
201.05072,201.11401,70,27,0
199.6036,201.11401,80,61,0
201.11401,201.17809,71,30,0
201.17809,201.24216,70,26,0
201.24216,201.30623,71,30,0
201.30623,201.37032,70,26,0
201.37032,201.4352,71,22,0
201.4352,201.50008,70,24,0
201.50008,201.56496,71,27,0
201.56496,201.62985,70,24,0
201.62985,201.69832,71,27,0
201.69832,201.77309,70,24,0
201.77309,201.85545,71,27,0
201.85545,201.9471,70,23,0
201.11401,201.9471,74,50,0
201.9471,202.01198,72,29,0
202.01198,202.07686,70,26,0
202.07686,202.14175,72,30,0
202.14175,202.20663,70,26,0
202.20663,202.27151,72,30,0
202.27151,202.3364,70,27,0
202.3364,202.40129,72,31,0
202.40129,202.46547,70,26,0
202.46547,202.52739,72,32,0
202.52739,202.5884,70,27,0
202.5884,202.65092,72,32,0
202.65092,202.71318,70,28,0
201.9471,202.71318,75,51,0
202.71318,202.77444,72,33,0
202.77444,202.83722,70,29,0
202.83722,202.90092,72,34,0
202.90092,202.96353,70,30,0
202.96353,203.02463,72,35,0
203.02463,203.08655,70,28,0
203.08655,203.14975,72,35,0
203.14975,203.21141,70,29,0
203.21141,203.273,72,36,0
203.273,203.33629,70,30,0
203.33629,203.39888,72,36,0
203.39888,203.46086,70,31,0
202.71318,203.46086,79,56,0
203.46086,203.52466,72,36,0
203.52466,203.58797,70,32,0
203.58797,203.65094,72,37,0
203.65094,203.71523,70,32,0
203.71523,203.77875,72,37,0
203.77875,203.8418,70,32,0
203.8418,203.90619,72,37,0
203.90619,203.97075,70,32,0
203.97075,204.03358,72,37,0
204.03358,204.09673,70,32,0
204.09673,204.16116,72,37,0
204.16116,204.22557,70,31,0
203.46086,204.22557,82,59,0
204.22557,204.88928,82,61,0
204.22557,204.88928,70,55,0
204.88928,204.95566,69,43,0
204.95566,205.02202,70,46,0
205.02202,205.10384,71,48,0
205.10384,205.18102,72,49,0
205.18102,205.25793,73,50,0
205.25793,205.33456,74,50,0
205.33456,205.41103,75,51,0
205.41103,205.48726,76,52,0
205.48726,205.56319,77,53,0
205.56319,205.63005,78,53,0
205.63005,205.69682,79,54,0
205.69682,205.76399,80,55,0
205.76399,205.83167,81,55,0
205.83167,205.94073,82,56,0
205.94073,206.05086,83,57,0
206.05086,206.16217,84,58,0
206.16217,206.2772,85,59,0
206.2772,206.39706,86,60,0
206.39706,206.48938,87,61,0
206.48938,206.58168,87,61,0
206.58168,206.674,87,62,0
206.674,206.7663,87,62,0
206.77399,206.86319,87,62,0
206.85861,206.86319,87,62,0
206.99622,207.06503,91,57,0
207.13383,207.20265,89,57,0
207.27145,207.34026,87,57,0
207.40907,207.47787,86,56,0
207.54668,207.6244,84,57,0
207.70212,207.83974,82,62,0
207.83974,207.97736,81,54,0
207.97736,208.11496,84,57,0
208.11496,208.25258,82,56,0
208.25258,208.3902,80,55,0
208.3902,208.54326,79,54,0
208.54326,208.61537,76,50,0
208.61537,208.68748,77,50,0
208.68748,208.7596,76,50,0
208.7596,208.83173,77,50,0
208.83173,208.90787,76,50,0
208.90787,208.98401,77,50,0
208.98401,209.06015,76,50,0
209.06015,209.13629,77,52,0
209.13629,209.38629,80,56,0
209.38629,209.4942,79,52,0
210.17603,210.33995,72,49,0
210.33995,210.50389,74,50,0
210.50389,210.83176,75,53,0
211.40553,211.48749,69,44,0
209.4942,211.48749,70,53,0
211.48749,212.13266,73,55,0
212.13266,213.43898,72,53,0
211.48749,213.43898,69,53,0
213.43898,214.41563,70,53,0
212.46233,214.41563,77,56,0
214.41563,214.4985,45,46,0
214.4985,214.58107,48,47,0
214.58107,214.66335,51,47,0
214.66335,214.74532,53,48,0
214.74532,214.82698,54,49,0
214.82698,214.90836,57,50,0
214.90836,214.98944,60,50,0
214.98944,215.0662,63,51,0
215.07022,215.13434,65,52,0
215.13434,215.19829,66,52,0
215.19829,215.26248,69,53,0
215.26248,215.327,72,54,0
215.327,215.3918,78,54,0
215.3918,216.04398,77,57,0
216.04398,216.10112,76,52,0
216.10112,216.15826,77,47,0
216.15826,216.21541,76,51,0
216.21541,216.27255,77,47,0
216.27255,216.3297,76,51,0
216.3297,216.38684,77,46,0
216.38684,217.04982,82,53,0
217.04982,217.21556,82,53,0
217.21556,217.39629,83,56,0
217.39629,217.48152,84,55,0
217.48152,217.56659,83,55,0
217.56659,217.65134,84,56,0
217.65134,217.7356,83,57,0
217.7356,217.81972,84,58,0
217.81972,217.9035,83,59,0
217.9035,217.98685,84,60,0
217.98685,218.06987,83,60,0
218.06987,218.17032,84,62,0
218.17032,218.27747,83,63,0
218.27747,218.35992,82,64,0
218.35992,218.45747,83,66,0
218.45747,219.58838,84,70,0
219.58838,219.74796,79,64,0
219.74796,219.90247,76,62,0
219.90247,220.05605,72,61,0
220.05605,220.20859,67,60,0
220.20859,220.36023,64,59,0
220.36023,220.51073,68,58,0
220.51073,220.66035,65,56,0
220.66035,220.80899,61,56,0
220.80899,220.9575,59,55,0
220.9575,221.10603,56,54,0
221.10603,221.25455,53,52,0
221.25455,221.40306,52,55,0
221.40306,221.55157,55,52,0
221.55157,221.70009,60,52,0
221.70009,221.8486,64,52,0
221.8486,221.99078,54,49,0
221.99078,222.13641,63,49,0
222.13641,222.28204,53,55,0
222.28204,222.42767,56,52,0
222.42767,222.56985,61,52,0
222.56985,222.71204,65,52,0
222.71204,222.84901,56,49,0
222.84901,222.98987,68,49,0
222.98987,223.1307,59,57,0
223.1307,223.27156,62,53,0
223.27156,223.40854,65,53,0
223.40854,223.54553,71,53,0
223.54553,223.67711,65,48,0
223.67711,223.81224,77,49,0
223.81224,223.94737,64,58,0
223.94737,224.0825,67,53,0
224.0825,224.2141,72,53,0
224.2141,224.34567,76,54,0
224.34567,224.47388,66,52,0
224.47388,224.60487,75,52,0
224.60487,224.73589,65,60,0
224.73589,224.86688,68,57,0
224.86688,224.99509,73,57,0
224.99509,225.12329,77,58,0
225.12329,225.24675,68,55,0
225.24675,225.3728,80,55,0
225.3728,225.49886,71,67,0
225.49886,225.62491,74,60,0
225.62491,225.74637,77,60,0
225.74637,225.86783,83,62,0
225.86783,225.98456,77,58,0
225.98456,226.1036,89,58,0
226.1036,226.22264,76,67,0
226.22264,226.34169,79,64,0
226.34169,226.45752,84,65,0
226.45752,226.57335,88,66,0
226.57335,226.68564,78,63,0
226.68564,226.79738,87,63,0
226.79738,226.90863,77,71,0
226.90863,227.0192,80,68,0
227.0192,227.12929,85,70,0
227.12929,227.23877,89,70,0
227.23877,227.34753,80,66,0
227.34753,227.45552,92,66,0
227.45552,227.56273,83,77,0
227.56273,227.66904,86,73,0
227.66904,227.77461,89,74,0
227.77461,227.87946,95,74,0
227.87946,227.98361,89,68,0
227.98361,228.08778,101,69,0
228.08778,228.18925,88,71,0
228.18925,228.2886,100,72,0
228.2886,228.38795,95,79,0
228.38795,228.4873,100,73,0
228.4873,228.58665,96,70,0
228.58665,228.68602,91,70,0
228.68602,228.78749,88,73,0
228.78749,228.88684,96,73,0
228.88684,228.98619,90,79,0
228.98619,229.08554,96,73,0
229.08554,229.18489,91,73,0
229.18489,229.28424,88,71,0
229.28424,229.38571,84,73,0
229.38571,229.48506,91,73,0
229.48506,229.58441,87,78,0
229.58441,229.68378,91,73,0
229.68378,229.78313,88,71,0
229.78313,229.88248,84,72,0
229.88248,229.98395,79,73,0
229.98395,230.0833,88,73,0
230.0833,230.18265,83,77,0
230.18265,230.282,88,73,0
230.282,230.38135,84,70,0
230.38135,230.4807,79,70,0
230.4807,230.58218,76,73,0
230.58218,230.68153,84,73,0
230.68153,230.78088,78,78,0
230.78088,230.88023,84,73,0
230.88023,230.97958,79,71,0
230.97958,231.07893,76,71,0
231.07893,231.1804,72,71,0
231.1804,231.27975,79,70,0
231.27975,231.3791,75,73,0
231.3791,231.47845,79,68,0
231.47845,231.5778,76,65,0
231.5778,231.6785,72,65,0
231.6785,231.78387,67,66,0
231.78387,231.8854,76,61,0
231.8854,231.98874,71,67,0
231.98874,232.09332,76,59,0
232.09332,232.19914,72,59,0
232.19914,232.30623,70,57,0
232.30623,232.4146,67,56,0
232.4146,232.52429,64,55,0
232.52429,232.63533,60,55,0
232.63533,232.74776,58,54,0
232.74776,232.86162,55,53,0
232.86162,232.97678,52,52,0
233.92322,234.04419,69,61,0
234.16138,234.27856,72,56,0
234.04419,234.27856,70,56,0
234.27856,234.39575,76,56,0
234.39575,234.51294,81,64,0
234.63013,234.74965,84,55,0
234.51294,234.74965,82,55,0
234.74965,234.86684,88,56,0
234.86684,234.96059,93,64,0
234.96059,235.05434,91,58,0
235.05434,235.15059,90,59,0
235.15059,235.24936,91,59,0
235.24936,235.3491,93,65,0
235.3491,235.4225,91,44,0
235.4225,235.4885,93,38,0
235.4885,235.55402,91,42,0
235.55402,235.6191,93,37,0
235.6191,235.68404,91,43,0
235.68404,235.74878,93,37,0
235.74878,235.81325,91,43,0
235.81325,235.87753,93,38,0
235.87753,235.94154,91,44,0
235.94154,236.00537,93,40,0
236.00537,236.06894,91,44,0
236.06894,236.13187,93,40,0
236.13187,236.19315,91,45,0
236.19315,236.25417,93,41,0
236.25417,236.31525,91,46,0
236.31525,236.37544,93,43,0
236.37544,236.43633,91,48,0
236.43633,236.49669,93,43,0
236.49669,236.55687,91,48,0
236.55687,236.61725,93,44,0
236.61725,236.67906,91,50,0
236.67906,236.74223,93,44,0
236.74223,236.8054,91,51,0
236.8054,236.86743,93,44,0
236.86743,236.92941,91,51,0
236.92941,236.99165,93,45,0
236.99165,237.05414,91,50,0
237.05414,237.1168,93,45,0
237.1168,237.17969,91,50,0
237.17969,237.24275,93,43,0
237.24275,237.30603,91,49,0
237.30603,237.36964,93,43,0
237.36964,237.43396,91,48,0
237.43396,237.49939,93,43,0
237.49939,237.56598,91,47,0
237.56598,237.63376,93,38,0
237.63376,237.7027,91,44,0
237.7027,237.77293,93,36,0
237.77293,237.8445,91,46,0
237.8445,237.91307,93,37,0
237.91307,237.98956,91,45,0
237.98956,238.06723,93,40,0
238.06723,238.14621,91,38,0
238.14621,238.26741,90,44,0
238.26741,238.38863,91,46,0
238.38863,238.56104,93,46,0
238.56104,239.16464,91,52,0
240.47417,240.8985,69,45,0
240.47417,240.8985,63,37,0
240.90288,241.11165,69,44,0
240.90288,241.11165,63,36,0
241.1134,241.53537,70,50,0
241.1134,241.53537,64,41,0
241.53976,241.74854,70,48,0
241.53976,241.74854,64,40,0
241.75029,242.17073,71,53,0
241.75029,242.17073,65,44,0
242.17511,242.38388,71,51,0
242.17511,242.38388,65,43,0
242.38564,242.8121,72,56,0
242.38564,242.8121,65,47,0
242.81656,243.0614,65,48,0
243.06346,243.48756,74,63,0
243.06346,243.48756,69,53,0
243.49203,243.7084,72,61,0
243.49203,243.7084,69,51,0
243.71022,244.14204,70,60,0
243.71022,244.14204,67,50,0
244.14658,244.36943,71,50,0
244.14658,244.36943,68,42,0
244.3713,244.81111,72,54,0
244.3713,244.81111,67,45,0
244.81575,245.03612,70,48,0
244.81575,245.03612,64,40,0
245.03796,245.4824,69,46,0
245.03796,245.4824,65,39,0
245.70464,245.80916,99,38,0
245.80916,245.9137,98,36,0
245.9137,246.01822,101,40,0
246.01822,246.12276,99,37,0
246.12276,246.22728,98,37,0
246.22728,246.3318,96,37,0
246.3318,246.43895,94,40,0
246.43895,246.5461,93,37,0
246.5461,246.64954,96,41,0
246.64954,246.75299,94,38,0
246.75299,246.85645,93,39,0
246.85645,246.95988,91,39,0
246.95988,247.06741,89,42,0
247.06741,247.17494,88,39,0
247.17494,247.2784,91,44,0
247.2784,247.38184,89,41,0
247.38184,247.48529,88,41,0
247.48529,247.58873,86,41,0
247.58873,247.69588,84,43,0
247.69588,247.80302,83,41,0
247.80302,247.90646,86,47,0
247.90646,248.00992,84,44,0
248.00992,248.11127,82,44,0
248.11127,248.21262,81,44,0
248.21262,248.32669,86,47,0
248.32669,248.44075,85,45,0
248.44075,248.54565,87,51,0
248.54565,248.65054,86,46,0
248.65054,248.75545,84,46,0
248.75545,248.86034,81,47,0
248.86034,248.96786,82,51,0
248.96786,249.0754,81,47,0
249.0754,249.18028,84,52,0
249.18028,249.28519,82,48,0
249.28519,249.39008,79,48,0
249.39008,249.49496,74,48,0
249.49496,249.6025,72,53,0
249.6025,249.71002,71,49,0
249.71002,249.81493,74,54,0
249.81493,249.91982,72,49,0
249.91982,250.0247,70,49,0
250.0247,250.12961,67,49,0
250.12961,250.23674,69,52,0
250.23674,250.34389,68,49,0
250.34389,250.44879,69,56,0
250.44879,250.55368,70,50,0
250.55368,250.65857,65,51,0
250.65857,250.76347,69,51,0
250.868,250.97253,69,56,0
250.97253,251.07597,68,56,0
251.07597,251.17943,69,56,0
250.76347,251.17943,63,60,0
251.17943,251.28287,70,53,0
251.28287,251.38632,69,53,0
251.49347,251.59448,70,57,0
251.59448,251.69792,69,57,0
251.69792,251.80138,70,57,0
251.38632,251.80138,64,60,0
251.80138,251.90482,72,55,0
251.90482,252.00827,70,55,0
252.1158,252.21783,71,58,0
252.21783,252.32129,70,58,0
252.32129,252.42473,71,58,0
252.00827,252.42473,65,63,0
252.42473,252.52818,72,56,0
252.52818,252.63162,71,56,0
252.73877,252.84116,72,59,0
252.84116,252.94461,71,59,0
252.94461,253.04805,72,59,0
252.63162,253.04805,65,65,0
253.04805,253.1515,74,56,0
253.1515,253.25496,72,56,0
253.36209,253.4645,74,60,0
253.4645,253.5683,73,60,0
253.5683,253.6721,74,60,0
253.25496,253.6721,69,65,0
253.6721,253.77591,76,58,0
253.77591,253.87971,74,58,0
253.98724,254.0879,79,61,0
254.0879,254.19029,78,61,0
254.19029,254.2927,79,61,0
253.87971,254.2927,74,66,0
254.2927,254.39578,81,59,0
254.39578,254.49887,79,60,0
254.6064,254.70741,84,63,0
254.70741,254.80945,83,63,0
254.80945,254.91148,84,63,0
254.49887,254.91148,79,69,0
254.91148,255.01459,86,61,0
255.01459,255.11768,84,61,0
255.22482,255.32826,89,63,0
255.32826,255.42996,88,63,0
255.42996,255.53133,89,59,0
255.11768,255.53133,84,70,0
255.53133,255.63268,91,61,0
255.63268,255.73402,89,61,0
255.73402,255.83401,86,65,0
255.83401,255.93402,85,60,0
255.93402,256.0357,88,66,0
256.0357,256.13742,86,63,0
256.13742,256.3472,79,72,0
256.45358,256.55597,93,68,0
256.55597,256.65732,92,69,0
256.65732,256.75867,93,63,0
256.3472,256.75867,88,75,0
256.75867,256.86002,94,64,0
256.86002,256.96136,93,64,0
256.96136,257.06204,89,71,0
257.06204,257.16272,88,64,0
257.16272,257.2651,91,72,0
257.2651,257.3675,89,66,0
257.3675,257.5773,86,77,0
257.6822,257.7842,96,71,0
257.7842,257.88522,95,73,0
257.88522,257.98624,96,67,0
257.5773,257.98624,91,79,0
257.98624,258.08725,98,67,0
258.08725,258.18826,96,69,0
258.18826,258.2886,93,74,0
258.2886,258.38895,92,68,0
258.38895,258.49097,94,75,0
258.49097,258.59302,93,68,0
258.59302,258.80136,89,77,0
258.90552,259.0072,98,76,0
259.0072,259.10788,97,76,0
259.10788,259.20856,98,70,0
258.80136,259.20856,93,83,0
259.20856,259.30923,99,70,0
259.30923,259.40988,98,70,0
259.40988,259.50925,94,76,0
259.50925,259.60858,93,69,0
259.60858,259.71027,96,76,0
259.71027,259.81195,94,69,0
259.81195,260.02103,91,80,0
260.02103,260.12555,94,50,0
260.12555,260.2269,100,45,0
260.2269,260.32825,91,45,0
260.32825,260.35358,94,42,0
260.35358,260.37894,96,42,0
260.37894,260.4296,94,45,0
260.4296,260.53094,93,48,0
260.53094,260.6355,91,45,0
260.6355,260.73965,90,50,0
260.73965,260.841,96,45,0
260.841,260.94235,84,45,0
260.94235,260.96768,87,40,0
260.96768,260.99304,89,40,0
260.99304,261.0437,87,45,0
261.0437,261.14505,86,45,0
261.14505,261.24924,84,45,0
261.24924,261.35486,83,49,0
261.35486,261.45807,89,45,0
261.45807,261.5624,77,45,0
261.5624,261.58875,80,39,0
261.58875,261.6151,82,39,0
261.6151,261.66806,80,42,0
261.66806,261.775,79,49,0
261.775,261.88324,77,45,0
261.88324,261.99286,76,51,0
261.99286,262.10385,82,45,0
262.10385,262.21536,74,45,0
262.21536,262.24326,73,39,0
262.24326,262.27112,75,39,0
262.27112,262.3269,73,43,0
262.3269,262.43842,72,45,0
262.43842,262.66104,70,45,0
262.66104,262.77087,69,41,0
262.77087,262.87936,72,43,0
262.87936,262.98657,76,45,0
262.98657,263.09253,77,47,0
263.09253,263.19724,81,49,0
263.19724,263.30075,84,51,0
263.30075,263.40308,88,52,0
263.40308,263.50473,89,54,0
263.50473,263.60596,93,56,0
263.60596,263.70682,96,58,0
263.70682,263.80725,100,60,0
263.80725,263.9076,101,60,0
263.9076,264.00793,100,60,0
264.00793,264.10858,99,59,0
264.10858,264.20926,98,59,0
264.20926,264.3102,97,58,0
264.3102,264.41122,96,58,0
264.41122,264.51245,95,57,0
264.51245,264.6138,94,57,0
264.6138,264.71533,93,56,0
264.71533,264.81705,92,55,0
264.81705,264.9189,91,55,0
264.9189,265.02567,90,54,0
265.02567,265.127,89,52,0
265.127,265.22836,93,51,0
265.22836,265.32837,92,50,0
265.32837,265.42838,91,49,0
265.42838,265.52835,90,48,0
265.52835,265.62836,89,47,0
265.62836,265.7297,88,46,0
265.7297,265.83105,87,46,0
265.83105,265.9324,86,45,0
265.9324,266.03378,85,44,0
266.03378,266.13513,84,43,0
266.13513,266.24002,83,42,0
266.24002,266.34103,82,46,0
266.34103,266.442,88,40,0
266.442,266.54266,87,39,0
266.54266,266.64365,86,39,0
266.64365,266.74496,85,39,0
266.74496,266.84653,84,38,0
266.84653,266.9484,83,38,0
266.9484,267.05057,82,37,0
267.05057,267.153,81,37,0
267.153,267.25574,80,37,0
267.25574,267.35938,79,36,0
267.35938,267.46576,78,36,0
267.46576,267.56958,77,45,0
268.60162,268.6994,81,44,0
268.50385,268.6994,69,47,0
268.7972,268.895,82,45,0
268.6994,268.895,70,49,0
268.99084,269.0867,83,48,0
268.895,269.0867,71,51,0
269.18253,269.27838,84,50,0
269.0867,269.27838,72,54,0
269.37424,269.47006,86,51,0
269.27838,269.47006,74,56,0
269.56592,269.66177,88,54,0
269.47006,269.66177,76,58,0
269.75763,269.8093,89,56,0
269.8093,269.86096,79,57,0
269.66177,269.86096,77,60,0
269.86096,270.05923,91,63,0
270.55322,270.65067,81,49,0
270.45575,270.65067,69,54,0
270.74814,270.8456,82,51,0
270.65067,270.8456,70,55,0
270.94147,271.0373,83,52,0
270.8456,271.0373,71,57,0
271.13315,271.229,84,52,0
271.0373,271.229,72,58,0
271.32483,271.4207,86,53,0
271.229,271.4207,74,60,0
271.51654,271.6124,88,55,0
271.4207,271.6124,76,62,0
271.70822,271.80408,89,55,0
271.6124,271.80408,77,63,0
271.89993,271.99576,91,56,0
271.80408,271.99576,79,65,0
272.0916,272.1435,92,54,0
272.1435,272.19534,81,54,0
271.99576,272.19534,80,66,0
272.19534,272.29248,93,68,0
272.8753,272.97244,93,63,0
272.77817,272.97244,81,66,0
273.06958,273.16672,95,66,0
272.97244,273.16672,83,68,0
273.26385,273.31464,97,69,0
273.16672,273.36542,85,71,0
273.36542,273.70538,98,74,0
273.31464,273.70538,86,69,0
273.75397,273.90152,100,76,0
273.70538,273.90152,88,71,0
273.95193,274.48807,101,76,0
273.90152,274.48807,89,71,0
274.53848,274.87845,98,77,0
274.48807,274.87845,86,70,0
274.92703,275.07477,100,78,0
274.87845,275.07477,88,73,0
275.12537,275.71362,101,76,0
275.07477,275.72977,89,71,0
275.71362,275.81042,86,83,0
275.81042,275.90536,98,76,0
275.90536,276.00027,89,76,0
276.00027,276.09518,94,76,0
276.09518,276.1901,92,76,0
276.1901,276.28503,89,76,0
276.28503,276.37994,86,84,0
276.37994,276.47485,82,83,0
276.47485,276.5698,80,81,0
276.5698,276.6647,77,80,0
276.6647,276.7596,74,79,0
276.7596,276.8545,70,77,0
276.8545,276.9491,68,76,0
277.42603,278.00958,64,62,0
277.42603,278.00958,62,62,0
277.42603,278.00958,68,75,0
278.00958,278.12057,69,65,0
278.00958,278.12057,61,65,0
278.10474,278.21573,62,66,0
278.1999,278.31088,64,66,0
278.29504,278.406,66,67,0
278.3902,278.50082,68,68,0
278.48502,278.59567,69,69,0
278.57986,278.6905,71,70,0
278.67468,278.78528,73,71,0
278.76953,278.8798,74,72,0
278.86404,278.9743,76,73,0
278.95856,279.06882,78,74,0
279.05307,279.16324,80,74,0
279.14755,279.25745,81,75,0
279.24176,279.35165,83,76,0
279.33594,279.4456,85,77,0
279.42993,279.5395,86,78,0
279.52383,279.6332,88,79,0
279.6176,279.7268,90,80,0
279.7112,279.82037,92,81,0
279.80478,279.91367,93,81,0
279.8981,280.00693,95,82,0
279.9914,280.1,97,83,0
280.0845,280.19296,98,84,0
280.17746,280.28583,99,85,0
280.2704,280.36304,100,91,0
280.36304,280.4557,97,82,0
280.4557,280.54837,93,82,0
280.54837,280.64102,88,85,0
280.64102,280.73367,86,81,0
280.73367,280.83215,92,82,0
280.83215,280.9248,93,90,0
280.9248,281.01746,88,85,0
281.01746,281.11014,85,81,0
281.11014,281.2028,81,81,0
281.2028,281.29544,80,77,0
281.29544,281.39392,86,77,0
281.39392,281.48657,88,83,0
281.48657,281.57922,85,76,0
281.57922,281.67188,81,76,0
281.67188,281.76456,76,76,0
281.76456,281.8572,74,72,0
281.8572,281.955,80,73,0
281.955,282.04764,81,82,0
282.04764,282.14032,76,76,0
282.14032,282.23297,73,76,0
282.23297,282.32562,69,76,0
282.32562,282.4183,68,72,0
282.4183,282.51474,74,72,0
282.51474,282.6074,76,70,0
282.6074,282.70007,73,63,0
282.70007,282.79272,69,63,0
282.79272,282.88538,64,62,0
282.88538,282.97806,62,57,0
282.97806,283.0755,68,57,0
283.0755,283.16815,69,63,0
283.16815,283.2608,64,57,0
283.2608,283.3535,61,55,0
283.3535,283.44614,57,53,0
283.44614,283.5388,56,48,0
283.5388,283.63574,62,46,0
283.63574,283.7456,64,48,0
283.72995,283.83887,61,51,0
283.82336,283.9314,57,54,0
283.91605,284.02368,52,51,0
284.00824,284.1166,56,48,0
284.10107,284.21036,62,48,0
284.1945,284.30502,64,48,0
284.28934,284.39877,61,51,0
284.3832,284.49158,57,54,0
284.4762,284.58383,52,51,0
284.56845,284.67682,56,48,0
284.66125,284.7707,62,47,0
284.755,284.86505,64,36,0
284.84937,284.9588,61,38,0
284.9432,285.0519,57,40,0
285.0364,285.14453,52,38,0
285.12903,285.23795,56,35,0
285.2223,285.3323,62,35,0
285.3165,285.42667,64,36,0
285.411,285.52,61,38,0
285.5045,285.6123,57,40,0
285.59702,285.70456,52,38,0
285.68912,285.798,56,35,0
285.78235,285.8935,62,35,0
285.87677,285.9938,64,36,0
285.87677,285.9938,57,36,0
285.97708,286.0941,58,36,0
286.07742,286.19366,59,36,0
286.1771,286.294,60,35,0
286.27716,286.3934,61,35,0
286.3769,286.49323,62,35,0
286.47644,286.59384,63,35,0
286.57724,286.69406,64,34,0
286.6772,286.79617,65,34,0
286.77927,286.89658,66,34,0
286.87994,286.99606,67,33,0
286.97946,287.0959,68,33,0
287.07913,287.19656,69,33,0
287.17978,287.29724,68,29,0
287.28046,287.39813,69,33,0
287.38132,287.49915,68,30,0
287.48233,287.60022,69,33,0
287.5833,287.70157,68,29,0
287.68466,287.80292,69,33,0
287.78604,287.90457,68,30,0
287.8876,288.00626,69,33,0
287.9893,288.10806,68,30,0
288.09106,288.2101,69,33,0
288.19308,288.3122,68,29,0
288.29514,288.41513,69,33,0
288.3979,288.51935,68,29,0
288.50186,288.6248,69,33,0
288.60712,288.73163,68,30,0
288.7137,288.83972,69,33,0
288.82162,288.8761,68,30,0
288.8761,288.9309,70,39,0
288.9309,289.0412,69,41,0
289.0412,289.1513,64,34,0
289.1513,289.2598,68,42,0
289.2598,289.36713,64,34,0
289.36713,289.47357,69,42,0
289.47357,289.53506,64,36,0
289.53506,289.58804,72,38,0
289.58804,289.6926,70,44,0
289.6926,289.79712,64,38,0
289.79712,289.90057,69,47,0
289.90057,290.004,64,38,0
290.004,290.10855,70,48,0
290.10855,290.21307,64,40,0
290.21307,290.31946,71,50,0
290.31946,290.43756,65,41,0
290.54245,290.64737,65,41,0
290.64737,290.75226,71,47,0
290.75226,290.81396,65,39,0
290.81396,290.86697,74,41,0
290.86697,290.97186,72,50,0
290.97186,291.07678,65,42,0
291.07678,291.18057,71,49,0
291.18057,291.2844,65,41,0
291.2844,291.38928,72,49,0
291.38928,291.49417,65,44,0
291.49417,291.59906,72,51,0
291.59906,291.70395,69,44,0
290.43756,291.70395,77,51,0
291.70395,291.8115,75,47,0
291.8115,291.92914,65,47,0
291.92914,292.03403,74,52,0
292.03403,292.13892,65,45,0
292.13892,292.24683,74,53,0
292.24683,292.36313,67,45,0
291.70395,292.36313,81,56,0
292.36313,292.46802,70,53,0
292.46802,292.5729,67,45,0
292.5729,292.6778,70,51,0
292.6778,292.7827,67,45,0
292.7827,292.89023,70,51,0
292.89023,293.00388,67,45,0
292.36313,293.00388,79,58,0
293.00388,293.10876,73,42,0
293.10876,293.21365,67,45,0
293.21365,293.31854,72,51,0
293.31854,293.42343,67,45,0
293.42343,293.53214,72,51,0
293.53214,293.64536,65,45,0
293.00388,293.64536,79,58,0
293.64536,293.7506,69,45,0
293.7506,293.85587,65,45,0
293.85587,293.96115,69,45,0
293.96115,294.0731,65,45,0
293.64536,294.0731,77,58,0
294.17834,294.28107,60,42,0
294.28107,294.38635,72,43,0
294.38635,294.4916,60,43,0
294.0731,294.4916,64,55,0
294.59686,294.70715,60,44,0
294.4916,294.70715,65,51,0
294.81244,294.9177,62,45,0
294.9177,295.02115,74,45,0
295.02115,295.1264,62,45,0
294.70715,295.1264,66,57,0
295.23166,295.34238,62,45,0
295.1264,295.34238,67,54,0
295.44547,295.55,64,46,0
295.55,295.6545,76,47,0
295.6545,295.75903,64,47,0
295.34238,295.75903,68,59,0
295.8636,295.97388,64,48,0
295.75903,295.97388,69,56,0
296.0784,296.18045,65,48,0
296.18045,296.28497,77,49,0
296.28497,296.3895,65,49,0
295.97388,296.3895,69,62,0
296.49402,296.60233,65,49,0
296.3895,296.60233,70,58,0
296.70685,296.8089,67,50,0
296.91342,297.01797,67,51,0
296.60233,297.01797,71,64,0
297.1225,297.2308,67,49,0
297.01797,297.2308,72,60,0
296.8089,297.2308,79,50,0
297.33496,297.43912,69,57,0
297.43912,297.54117,72,57,0
297.54117,297.645,69,57,0
297.2308,297.645,81,67,0
297.74878,297.85748,68,46,0
297.645,297.85748,71,53,0
297.96146,298.06616,67,46,0
297.85748,298.06616,70,53,0
298.17163,298.2779,67,45,0
298.06616,298.2779,76,53,0
298.38464,298.4914,67,46,0
298.2779,298.4914,79,53,0
298.59818,298.70493,69,45,0
298.70493,298.81168,72,48,0
298.81168,298.91846,69,44,0
298.4914,298.91846,81,53,0
299.0256,299.13712,68,36,0
298.91846,299.13712,71,46,0
299.24112,299.34583,67,37,0
299.13712,299.34583,70,42,0
299.45126,299.55753,67,36,0
299.34583,299.55753,76,42,0
299.66428,299.77106,67,37,0
299.55753,299.77106,79,43,0
299.8778,299.98456,69,37,0
299.98456,300.09134,68,41,0
300.09134,300.1981,69,36,0
299.77106,300.1981,81,43,0
300.30484,300.41162,69,37,0
300.1981,300.41162,81,47,0
300.51614,300.62067,69,38,0
300.41162,300.62067,77,50,0
300.72705,300.83344,69,38,0
300.62067,300.83344,72,47,0
300.93982,301.0462,69,38,0
300.83344,301.0462,81,47,0
301.15073,301.25528,69,38,0
301.0462,301.25528,76,52,0
301.36166,301.46802,69,38,0
301.25528,301.46802,72,48,0
301.5744,301.6808,69,40,0
301.46802,301.6808,81,49,0
301.78503,301.88885,69,41,0
301.6808,301.88885,77,54,0
301.99484,302.10086,69,42,0
301.88885,302.10086,72,53,0
302.20538,302.3099,69,44,0
302.10086,302.3099,81,60,0
302.41782,302.52573,69,45,0
302.3099,302.52573,72,56,0
302.62955,302.73337,69,45,0
302.52573,302.73337,81,63,0
302.83936,302.94537,69,46,0
302.73337,302.94537,73,59,0
303.04776,303.15015,69,49,0
302.94537,303.15015,81,70,0
303.25467,303.3592,69,49,0
303.15015,303.3592,74,59,0
303.4609,303.5626,69,50,0
303.3592,303.5626,81,71,0
303.6664,303.7702,69,52,0
303.5626,303.7702,75,66,0
303.87054,303.9709,70,54,0
303.7702,303.9709,82,74,0
304.07327,304.17566,70,55,0
303.9709,304.17566,75,68,0
304.275,304.37433,71,57,0
304.17566,304.37433,83,80,0
304.47995,304.5856,71,58,0
304.37433,304.5856,75,72,0
304.6887,304.7998,72,59,0
304.5856,304.7998,84,84,0
304.7998,305.02203,85,86,0
304.7998,305.02203,73,73,0
305.02203,305.12827,59,65,0
305.12827,305.23386,61,69,0
305.23386,305.3388,65,73,0
305.3388,305.44302,68,77,0
305.44302,305.54684,71,86,0
305.54684,305.65063,83,81,0
305.65063,305.76035,71,77,0
305.76035,305.8725,73,78,0
305.8725,305.9853,77,79,0
305.9853,306.09805,80,81,0
306.09805,306.214,83,88,0
306.214,306.33072,95,85,0
306.33072,306.44864,92,81,0
306.44864,306.56775,89,80,0
306.56775,306.68774,85,79,0
306.68774,306.80707,83,78,0
306.80707,306.92194,80,76,0
306.92194,307.0348,77,75,0
307.0348,307.1457,73,74,0
307.1457,307.2548,71,73,0
307.2548,307.36237,68,72,0
307.36237,307.4699,65,71,0
307.4699,307.58817,70,67,0
307.57126,307.6895,64,61,0
307.6726,307.79132,63,62,0
307.77396,307.89502,69,62,0
307.8781,307.99637,68,64,0
307.9795,308.09772,62,63,0
308.08084,308.1995,61,70,0
308.1822,308.30283,67,63,0
308.28598,308.40384,66,63,0
308.387,308.50485,60,63,0
308.488,308.60632,59,63,0
308.58902,308.70966,65,63,0
308.6928,308.81067,64,66,0
308.79382,308.91168,58,56,0
308.89484,309.0127,55,58,0
308.99585,309.1137,63,60,0
309.09686,309.21512,62,62,0
309.19788,309.31815,55,64,0
309.30133,309.41916,58,70,0
309.40234,309.52017,61,64,0
309.50336,309.6212,60,66,0
309.60434,309.7222,55,67,0
309.70535,309.82385,57,69,0
309.80637,309.91125,60,70,0
309.91125,310.0291,62,70,0
310.01227,310.13013,56,64,0
310.11328,310.23114,55,64,0
310.2143,310.33215,61,64,0
310.3153,310.43375,60,63,0
310.41632,310.5377,54,63,0
310.52084,310.6387,53,70,0
310.62186,310.73972,59,60,0
310.72287,310.8407,58,60,0
310.82388,310.9417,52,57,0
310.9249,311.04337,51,55,0
311.0259,311.1483,57,53,0
311.1308,311.24933,56,62,0
311.2325,311.3506,50,56,0
311.33368,311.4521,47,54,0
311.43515,311.55392,56,53,0
311.5369,311.65698,52,51,0
311.63895,311.76437,47,50,0
311.74725,311.86713,56,57,0
311.84998,311.97028,53,55,0
311.95273,312.07553,48,54,0
312.05798,312.1809,56,52,0
312.16333,312.28763,53,51,0
312.2697,312.3778,51,49,0
312.3778,312.50623,57,51,0
312.4877,312.6154,48,42,0
312.59882,312.71472,51,42,0
312.69815,312.81433,54,42,0
312.7977,312.9142,55,42,0
312.89755,313.01437,50,42,0
312.99765,313.11484,49,51,0
313.09805,313.21555,52,41,0
313.19873,313.31656,53,41,0
313.29974,313.4179,48,41,0
313.40103,313.51956,53,41,0
313.5026,313.62137,60,41,0
313.60446,313.72272,58,50,0
313.7058,313.8232,52,40,0
313.80643,313.92407,56,41,0
313.90723,314.02512,59,41,0
314.00824,314.12646,60,41,0
314.1096,314.22812,55,41,0
314.21115,314.33,58,52,0
314.313,314.43207,61,42,0
314.415,314.5345,62,41,0
314.5174,314.63715,55,41,0
314.62003,314.74008,58,41,0
314.7229,314.8431,65,41,0
314.82605,314.9455,64,50,0
314.92844,315.0475,55,42,0
315.03082,315.1475,63,42,0
315.13083,315.2475,66,42,0
315.2308,315.34772,67,42,0
315.331,315.44803,62,43,0
315.4313,315.5485,61,52,0
315.5317,315.64917,64,42,0
315.6324,315.74982,65,43,0
315.73306,315.85077,60,43,0
315.83395,315.95178,65,43,0
315.93497,316.05258,72,43,0
316.03607,316.15158,70,53,0
316.1351,316.2506,64,43,0
316.2341,316.34995,68,44,0
316.33337,316.4494,71,44,0
316.43277,316.54907,72,44,0
316.53244,316.64896,67,45,0
316.6323,316.749,70,57,0
316.73227,316.84933,73,49,0
316.8326,316.94983,74,45,0
316.93307,317.0505,67,46,0
317.03372,317.15146,70,46,0
317.13464,317.25226,77,46,0
317.2357,317.3516,75,57,0
317.33502,317.43436,76,55,0
317.43436,317.53748,67,56,0
317.53748,317.64056,69,57,0
317.64056,317.73828,70,58,0
317.73828,317.836,72,59,0
317.836,317.93372,73,60,0
317.93372,318.03143,76,61,0
318.03143,318.13028,79,62,0
318.13028,318.23114,81,63,0
318.23114,318.33386,82,64,0
318.33386,318.44376,84,65,0
318.44376,318.5585,85,68,0
318.5421,318.64047,91,67,0
318.64047,318.74323,88,66,0
318.74323,318.84595,85,65,0
318.84595,318.94434,82,64,0
318.94434,319.0427,79,63,0
319.0427,319.15594,76,62,0
319.13977,319.23685,73,61,0
319.23685,319.3396,70,60,0
319.3396,319.44235,67,59,0
319.44235,319.54102,64,58,0
319.54102,319.6397,61,57,0
319.6397,319.75485,62,56,0
319.7384,319.83707,74,55,0
319.83707,319.93945,62,57,0
319.93945,320.04184,64,59,0
320.04184,320.14053,65,60,0
320.14053,320.23923,67,62,0
320.23923,320.35284,68,63,0
320.3366,320.43402,71,65,0
320.43402,320.53387,74,66,0
320.53387,320.63574,76,68,0
320.63574,320.73978,77,69,0
320.73978,320.8509,79,71,0
320.8509,320.96564,80,72,0
320.94925,321.0476,86,67,0
321.0476,321.1507,83,68,0
321.1507,321.2538,80,67,0
321.2538,321.3528,77,66,0
321.3528,321.4518,74,66,0
321.4518,321.56732,71,65,0
321.55084,321.64984,68,64,0
321.64984,321.7526,65,63,0
321.7526,321.85532,62,62,0
321.85532,321.954,59,61,0
321.954,322.0527,56,60,0
322.0527,322.15137,57,68,0
322.15137,322.25006,69,59,0
322.25006,322.34875,61,59,0
322.34875,322.44742,67,59,0
322.44742,322.5461,65,59,0
322.5461,322.65137,62,59,0
322.65137,322.75006,64,67,0
322.75006,322.84875,70,57,0
322.84875,322.94614,69,57,0
322.94614,323.04996,65,57,0
323.04996,323.14865,68,57,0
323.14865,323.2473,74,56,0
323.2473,323.346,72,66,0
323.346,323.4498,69,57,0
323.4498,323.5485,71,57,0
323.5485,323.6472,77,57,0
323.6472,323.7449,76,56,0
323.7449,323.84763,72,55,0
323.84763,323.94632,73,65,0
323.94632,324.045,79,56,0
324.045,324.1437,77,56,0
324.1437,324.2468,74,56,0
324.2468,324.34546,76,56,0
324.34546,324.44415,82,56,0
324.44415,324.54285,81,69,0
324.54285,324.6496,77,57,0
324.6496,324.7483,73,57,0
324.7483,324.84695,81,58,0
324.84695,324.9447,77,58,0
324.9447,325.04996,74,60,0
325.04996,325.14862,76,71,0
325.14862,325.2473,84,60,0
325.2473,325.346,81,61,0
325.346,325.4447,77,60,0
325.4447,325.54337,80,61,0
325.54337,325.64902,88,61,0
325.64902,325.74768,84,76,0
325.74768,325.84637,81,66,0
325.84637,325.94507,83,67,0
325.94507,326.04373,91,67,0
326.04373,326.14243,88,68,0
326.14243,326.24768,84,68,0
326.24768,326.34637,85,82,0
326.34637,326.44507,93,67,0
326.44507,326.54373,89,68,0
326.54373,326.64243,86,69,0
326.64243,326.74112,88,69,0
326.74112,326.84564,96,70,0
326.84564,326.94803,93,82,0
326.94803,327.0504,89,70,0
327.0504,327.1511,95,70,0
327.1511,327.25177,101,71,0
327.25177,327.35245,96,78,0
327.35245,327.4531,89,71,0
327.4531,327.55515,95,80,0
327.55515,327.6572,101,71,0
327.6572,327.75784,96,80,0
327.75784,327.85852,89,72,0
327.85852,327.9592,95,79,0
327.9592,328.05988,101,72,0
328.05988,328.16156,96,78,0
328.16156,328.26343,89,72,0
328.26343,328.36548,95,78,0
328.36548,328.46786,101,72,0
328.46786,328.5705,96,77,0
328.5705,328.67328,89,71,0
328.67328,328.77637,95,78,0
328.77637,328.87976,101,70,0
328.87976,328.98334,96,79,0
328.98334,329.08713,89,70,0
329.08713,329.1913,95,78,0
329.1913,329.30624,101,68,0
329.30624,329.42624,89,78,0
329.30624,329.42624,96,78,0
330.02625,330.84442,72,66,0
330.02625,330.84442,66,56,0
330.02625,330.84442,63,56,0
330.84442,331.66263,64,56,0
331.66263,332.4808,64,61,0
330.84442,332.4808,67,56,0
332.4808,333.35886,67,61,0
330.84442,334.06473,72,68,0
333.35886,334.7706,67,60,0
335.4765,335.90988,69,50,0
335.4765,335.90988,63,42,0
335.91446,336.1316,69,48,0
335.91446,336.1316,63,40,0
336.13342,336.56317,70,54,0
336.13342,336.56317,64,45,0
336.5676,336.7786,70,52,0
336.5676,336.7786,64,43,0
336.78036,337.20917,71,56,0
336.78036,337.20917,65,47,0
337.21362,337.42612,77,54,0
337.21362,337.42612,65,45,0
337.42792,337.86288,72,58,0
337.42792,337.86288,65,49,0
337.86746,338.10266,65,49,0
338.1046,338.53488,74,63,0
338.1046,338.53488,69,53,0
338.5394,338.75977,74,61,0
338.5394,338.75977,69,51,0
338.76163,339.11487,74,60,0
338.76163,339.11487,70,50,0
339.2316,339.35556,82,58,0
339.20825,339.35556,74,52,0
339.1849,339.35556,70,44,0
339.4732,339.8323,81,56,0
339.44968,339.8323,72,49,0
339.42615,339.8323,69,40,0
339.94638,340.07794,79,52,0
339.92355,340.07794,72,46,0
339.90076,340.07794,70,39,0
340.19843,340.6765,77,50,0
340.17435,340.6765,72,39,0
340.15024,340.6765,69,34,0
340.91556,341.0136,99,40,0
341.0136,341.11166,98,39,0
341.11166,341.2097,101,42,0
341.2097,341.30774,99,39,0
341.30774,341.40576,98,39,0
341.40576,341.5038,96,39,0
341.5038,341.6055,94,41,0
341.6055,341.70718,93,39,0
341.70718,341.8046,96,43,0
341.8046,341.902,94,39,0
341.902,341.9994,93,39,0
341.9994,342.0968,91,39,0
342.0968,342.19748,89,42,0
342.19748,342.29816,88,39,0
342.29816,342.39554,91,44,0
342.39554,342.49295,89,40,0
342.49295,342.59036,88,40,0
342.59036,342.68774,86,40,0
342.68774,342.78775,84,42,0
342.78775,342.88776,83,40,0
342.88776,342.98465,86,45,0
342.98465,343.08154,84,41,0
343.08154,343.17844,82,41,0
343.17844,343.27533,81,42,0
343.27533,343.3743,86,44,0
343.3743,343.47327,85,42,0
343.47327,343.57016,87,47,0
343.57016,343.66705,86,43,0
343.66705,343.76395,84,43,0
343.76395,343.86084,81,43,0
343.86084,343.96017,82,47,0
343.96017,344.05948,81,43,0
344.05948,344.15637,84,48,0
344.15637,344.25327,82,44,0
344.25327,344.35016,79,44,0
344.35016,344.44705,74,44,0
344.44705,344.5464,72,48,0
344.5464,344.64572,71,45,0
344.64572,344.7426,74,50,0
344.7426,344.8395,72,45,0
344.8395,344.9364,70,45,0
344.9364,345.0333,67,45,0
345.0333,345.13226,69,48,0
345.13226,345.23123,68,45,0
345.23123,345.32812,70,51,0
345.32812,345.42502,69,45,0
345.42502,345.5219,65,47,0
345.5219,345.6188,69,47,0
345.71536,345.81192,69,51,0
345.81192,345.90747,68,51,0
345.90747,346.00302,69,51,0
345.6188,346.00302,63,55,0
346.00302,346.09857,70,48,0
346.09857,346.19412,69,48,0
346.00302,346.19412,63,52,0
346.2931,346.39206,70,53,0
346.39206,346.4876,69,53,0
346.4876,346.58316,70,53,0
346.19412,346.58316,64,56,0
346.58316,346.67874,72,51,0
346.67874,346.7743,70,51,0
346.58316,346.7743,64,53,0
346.8736,346.97293,71,54,0
346.97293,347.06848,70,54,0
347.06848,347.16403,71,54,0
346.7743,347.16403,65,58,0
347.16403,347.25958,72,53,0
347.25958,347.35513,71,53,0
347.16403,347.35513,65,56,0
347.4541,347.5531,72,55,0
347.5531,347.64865,71,55,0
347.64865,347.7442,72,56,0
347.35513,347.7442,65,61,0
347.7442,347.83975,74,53,0
347.83975,347.9353,72,53,0
348.03427,348.13324,74,57,0
348.13324,348.22913,73,57,0
348.22913,348.325,74,57,0
347.9353,348.325,69,62,0
348.325,348.4209,76,56,0
348.4209,348.51678,74,56,0
348.325,348.51678,69,59,0
348.6161,348.71164,79,58,0
348.71164,348.8069,78,58,0
348.8069,348.9021,79,58,0
348.51678,348.9021,74,63,0
348.9021,348.99734,81,57,0
348.99734,349.09256,79,58,0
348.9021,349.09256,74,60,0
349.1919,349.28745,84,61,0
349.28745,349.38266,83,61,0
349.38266,349.47787,84,61,0
349.09256,349.47787,79,67,0
349.47787,349.57312,86,59,0
349.57312,349.66833,84,59,0
349.47787,349.66833,79,67,0
349.7673,349.8622,89,61,0
349.8622,349.95712,88,63,0
349.95712,350.052,89,59,0
349.66833,350.052,84,69,0
350.052,350.1469,91,61,0
350.1469,350.24182,89,61,0
350.052,350.24182,84,66,0
350.24182,350.335,86,65,0
350.335,350.42816,85,60,0
350.42816,350.52368,88,66,0
350.52368,350.61923,86,63,0
350.61923,350.81277,79,72,0
350.91104,351.0056,93,68,0
351.0056,351.1002,92,69,0
351.1002,351.19476,93,63,0
350.81277,351.19476,88,75,0
351.19476,351.28937,94,64,0
351.28937,351.38394,93,65,0
351.19476,351.38394,88,72,0
351.38394,351.4768,89,72,0
351.4768,351.5697,88,65,0
351.5697,351.66464,91,73,0
351.66464,351.75955,89,67,0
351.75955,351.95312,86,75,0
352.0499,352.14413,96,76,0
352.14413,352.2384,95,78,0
352.2384,352.33267,96,72,0
351.95312,352.33267,91,85,0
352.33267,352.4269,98,72,0
352.4269,352.52118,96,74,0
352.33267,352.52118,91,81,0
352.52118,352.6174,93,79,0
352.6174,352.71362,92,73,0
352.71362,352.80984,94,80,0
352.80984,352.90607,93,73,0
352.90607,353.15298,89,82,0
353.15298,353.2363,91,48,0
353.2363,353.31964,90,42,0
353.31964,353.40634,93,48,0
353.40634,353.49304,91,42,0
353.49304,353.742,86,43,0
353.742,353.82535,91,48,0
353.82535,353.9087,90,42,0
353.9087,353.99365,93,48,0
353.99365,354.07864,91,42,0
354.07864,354.32864,85,43,0
354.32864,354.412,91,48,0
354.412,354.49533,90,42,0
354.49533,354.58102,93,48,0
354.58102,354.66675,91,42,0
354.66675,354.9157,84,43,0
354.9157,355.3294,89,48,0
355.3294,355.58914,101,43,0
355.58914,355.6725,90,48,0
355.6725,355.75583,93,42,0
355.75583,355.8423,91,48,0
355.8423,355.9538,86,42,0
355.9538,356.07828,98,50,0
356.20276,356.2861,90,48,0
356.2861,356.36945,93,42,0
356.36945,356.45615,91,48,0
356.45615,356.55957,85,42,0
356.55957,356.68457,97,49,0
356.80957,356.8929,90,48,0
356.8929,356.97626,93,42,0
356.97626,357.06424,91,48,0
357.06424,357.16733,84,42,0
357.16733,357.2989,96,49,0
357.43048,357.52664,92,48,0
357.52664,357.62277,94,42,0
357.62277,357.7331,93,48,0
357.7331,357.87198,89,42,0
357.87198,358.13397,101,50,0
358.13397,358.21573,98,60,0
358.21573,358.29745,97,55,0
358.29745,358.3792,100,55,0
358.3792,358.46097,98,55,0
358.46097,358.5427,95,57,0
358.5427,358.63474,91,53,0
358.63474,358.71667,97,60,0
358.71667,358.79865,96,55,0
358.79865,358.8806,99,55,0
358.8806,358.9626,97,55,0
358.9626,359.04456,94,57,0
359.04456,359.1366,91,54,0
359.1366,359.21832,94,61,0
359.21832,359.30008,93,55,0
359.30008,359.3818,96,55,0
359.3818,359.46356,94,55,0
359.46356,359.5453,91,58,0
359.5453,359.63733,88,55,0
359.63733,359.7193,93,60,0
359.7193,359.80127,92,55,0
359.80127,359.88324,94,55,0
359.88324,359.96518,93,55,0
359.96518,360.04715,89,56,0
360.04715,360.1386,84,55,0
360.1386,360.22058,86,60,0
360.22058,360.30255,85,55,0
360.30255,360.38452,88,54,0
360.38452,360.4665,86,53,0
360.4665,360.54846,83,55,0
360.54846,360.64047,79,50,0
360.64047,360.7227,85,57,0
360.7227,360.80487,84,52,0
360.80487,360.88705,87,51,0
360.88705,360.96924,85,51,0
360.96924,361.05145,82,52,0
361.05145,361.14346,79,49,0
361.14346,361.22543,82,54,0
361.22543,361.3074,81,49,0
361.3074,361.38937,84,48,0
361.38937,361.47134,82,48,0
361.47134,361.5533,79,50,0
361.5533,361.64532,76,47,0
361.64532,361.72775,81,51,0
361.72775,361.81015,80,46,0
361.81015,361.89258,82,46,0
361.89258,361.975,81,45,0
361.975,362.0574,77,45,0
362.0574,362.1489,72,44,0
362.1489,362.23154,74,48,0
362.23154,362.31418,73,44,0
362.31418,362.39682,76,44,0
362.39682,362.47946,74,44,0
362.47946,362.5621,71,45,0
362.5621,362.65414,67,42,0
362.65414,362.73654,73,48,0
362.73654,362.81897,72,44,0
362.81897,362.90137,75,44,0
362.90137,362.9838,73,44,0
362.9838,363.06622,70,45,0
363.06622,363.15823,67,43,0
363.15823,363.24066,70,48,0
363.24066,363.3231,69,44,0
363.3231,363.4055,72,44,0
363.4055,363.4879,70,44,0
363.4879,363.57034,67,46,0
363.57034,363.66235,64,44,0
363.66235,363.74478,69,48,0
363.74478,363.82718,68,44,0
363.82718,363.9096,70,44,0
363.9096,363.99203,69,44,0
363.99203,364.07443,65,44,0
364.07443,364.1659,60,44,0
364.1659,364.26312,62,40,0
364.24924,364.34647,61,37,0
364.33258,364.42978,64,37,0
364.4159,364.51312,62,36,0
364.49924,364.5979,59,37,0
364.58258,364.68854,55,34,0
364.6746,364.7721,61,39,0
364.75815,364.85565,60,36,0
364.84174,364.9392,63,35,0
364.9253,365.0228,61,35,0
365.00885,365.10776,58,36,0
365.0924,365.19843,55,34,0
365.18445,365.28223,58,38,0
365.26825,365.366,57,35,0
365.35205,365.4498,60,35,0
365.43585,365.5336,58,34,0
365.51965,365.61877,55,36,0
365.60345,365.70944,52,34,0
365.69547,365.79324,55,37,0
365.77927,365.87704,54,34,0
365.86307,365.96082,57,34,0
365.94687,366.04462,55,34,0
366.03067,366.1297,52,33,0
366.11447,366.20593,48,33,0
366.20593,366.3045,53,36,0
366.29044,366.38904,52,33,0
366.37494,366.47354,53,33,0
366.45944,366.55804,48,32,0
366.54395,366.6438,45,34,0
366.62845,366.735,48,32,0
366.7205,366.82193,52,35,0
366.80743,366.9089,51,32,0
366.8944,366.99585,52,32,0
366.98135,367.0828,46,32,0
367.0683,367.17108,43,31,0
367.15527,367.26495,46,31,0
367.2502,367.35345,53,34,0
367.33868,367.44196,52,31,0
367.4272,367.53043,53,31,0
367.5157,367.61893,48,31,0
367.6042,367.70865,45,33,0
367.6927,367.8036,48,31,0
367.7885,367.89395,52,34,0
367.87888,367.9843,51,31,0
367.96924,368.07468,52,31,0
368.0596,368.16504,46,31,0
368.14996,368.25677,43,31,0
368.24033,368.3545,46,31,0
368.33902,368.4474,53,34,0
368.4319,368.54025,52,31,0
368.52478,368.63315,53,31,0
368.61765,368.726,48,31,0
368.71054,368.82065,45,33,0
368.8034,368.92285,48,31,0
368.90686,369.01868,52,34,0
369.00272,369.11453,51,31,0
369.09857,369.2104,52,31,0
369.1944,369.3062,46,31,0
369.29025,369.40335,43,31,0
369.3861,369.48953,46,31,0
369.48953,369.69714,45,26,0
369.48953,369.69714,53,31,0
370.12268,370.22906,72,31,0
370.12268,370.22906,64,26,0
370.761,370.86737,65,31,0
370.761,370.86737,57,26,0
1.267241,1.5008475,48,45,0
1.5131425,1.6940947,58,29,0
1.5131425,1.6940947,60,29,0
1.5131425,1.6940947,64,35,0
1.7036185,1.8886832,64,36,0
1.7036185,1.8886832,60,30,0
1.7036185,1.8886832,58,30,0
1.8984236,2.0834882,64,36,0
1.8984236,2.0834882,60,30,0
1.8984236,2.0834882,58,30,0
2.0932286,2.287106,64,38,0
2.0932286,2.287106,60,32,0
2.0932286,2.287106,58,32,0
2.29731,2.4980142,64,39,0
2.29731,2.4980142,60,33,0
2.29731,2.4980142,58,33,0
2.5085776,2.7155194,48,50,0
2.726411,2.9114757,58,29,0
2.726411,2.9114757,60,29,0
2.726411,2.9114757,64,35,0
2.921216,3.113135,58,30,0
2.921216,3.113135,60,30,0
2.921216,3.113135,64,36,0
3.123236,3.315155,58,31,0
3.123236,3.315155,60,31,0
3.123236,3.315155,64,37,0
3.325256,3.5259602,58,32,0
3.325256,3.5259602,60,32,0
3.325256,3.5259602,64,38,0
3.5365236,3.7445526,58,33,0
3.5365236,3.7445526,60,33,0
3.5365236,3.7445526,64,39,0
3.7555015,3.9697874,53,50,0
3.9810655,4.162018,57,29,0
3.9810655,4.162018,60,29,0
3.9810655,4.162018,65,35,0
4.1715417,4.3554125,65,36,0
4.1715417,4.3554125,60,30,0
4.1715417,4.3554125,57,30,0
4.36509,4.548961,65,37,0
4.36509,4.548961,60,31,0
4.36509,4.548961,57,31,0
4.5586386,4.7499137,65,38,0
4.5586386,4.7499137,60,32,0
4.5586386,4.7499137,57,32,0
4.759981,4.96515,65,39,0
4.759981,4.96515,60,33,0
4.759981,4.96515,57,33,0
4.975948,5.173522,45,50,0
5.1839204,5.3683867,57,34,0
5.1839204,5.3683867,60,34,0
5.1839204,5.3683867,65,41,0
5.3780956,5.5700145,57,34,0
5.3780956,5.5700145,60,34,0
5.3780956,5.5700145,65,41,0
5.5801153,5.7725306,57,35,0
5.5801153,5.7725306,60,35,0
5.5801153,5.7725306,65,42,0
5.782844,5.983548,63,42,0
5.782844,5.983548,60,35,0
5.782844,5.983548,57,35,0
5.9941115,6.2021403,63,42,0
5.9941115,6.2021403,60,35,0
5.9941115,6.2021403,57,35,0
6.2130895,6.4203625,46,45,0
6.4312716,6.6151423,55,29,0
6.4312716,6.6151423,58,29,0
6.4312716,6.6151423,62,35,0
6.6248198,6.8110943,62,36,0
6.6248198,6.8110943,58,30,0
6.6248198,6.8110943,55,30,0
6.8208985,7.007173,62,36,0
6.8208985,7.007173,58,30,0
6.8208985,7.007173,55,30,0
7.016977,7.21618,62,38,0
7.016977,7.21618,58,32,0
7.016977,7.21618,55,32,0
7.2266645,7.4258676,62,39,0
7.2266645,7.4258676,58,33,0
7.2266645,7.4258676,55,33,0
7.436352,7.643294,48,50,0
7.6541853,7.83925,55,29,0
7.6541853,7.83925,58,29,0
7.6541853,7.83925,60,35,0
7.8489904,8.040266,55,30,0
7.8489904,8.040266,58,30,0
7.8489904,8.040266,60,36,0
8.050333,8.241609,55,31,0
8.050333,8.241609,58,31,0
8.050333,8.241609,60,37,0
8.251676,8.450878,55,32,0
8.251676,8.450878,58,32,0
8.251676,8.450878,60,38,0
8.461363,8.669392,55,33,0
8.461363,8.669392,58,33,0
8.461363,8.669392,60,39,0
8.680341,8.893824,53,50,0
8.90506,9.089526,53,28,0
8.90506,9.089526,57,33,0
9.099235,9.286735,57,33,0
9.099235,9.286735,53,28,0
9.296603,9.484103,57,33,0
9.296603,9.484103,53,28,0
9.493972,9.6915455,57,33,0
9.493972,9.6915455,53,28,0
9.701944,9.913055,57,32,0
9.701944,9.913055,53,27,0
9.924167,10.12174,53,40,0
10.132139,10.325359,57,27,0
10.132139,10.325359,60,27,0
10.132139,10.325359,65,32,0
10.335529,10.532081,57,27,0
10.335529,10.532081,60,27,0
10.335529,10.532081,65,32,0
10.542425,10.739887,57,28,0
10.542425,10.739887,60,28,0
10.542425,10.739887,65,33,0
10.75046,10.993012,65,33,0
10.75046,10.993012,60,28,0
10.75046,10.993012,57,28,0
11.005778,11.248331,65,33,0
11.005778,11.248331,60,28,0
11.005778,11.248331,57,28,0
11.261097,11.490013,48,29,0
11.261097,11.490013,60,38,0
11.502062,11.700667,58,24,0
11.502062,11.700667,64,29,0
11.711121,11.896185,64,30,0
11.711121,11.896185,58,25,0
11.905926,12.09099,64,30,0
11.905926,12.09099,58,25,0
12.10073,12.297282,64,32,0
12.10073,12.297282,58,27,0
12.307627,12.512663,64,33,0
12.307627,12.512663,58,28,0
12.523455,12.734566,48,32,0
12.523455,12.734566,60,42,0
12.745676,12.934693,58,24,0
12.745676,12.934693,64,29,0
12.944642,13.138519,58,25,0
12.944642,13.138519,64,30,0
13.148724,13.342601,58,26,0
13.148724,13.342601,64,31,0
13.352805,13.555652,58,27,0
13.352805,13.555652,64,32,0
13.566328,13.774357,58,28,0
13.566328,13.774357,64,33,0
13.785306,13.998789,53,30,0
13.785306,13.998789,65,37,0
14.010025,14.192134,57,24,0
14.010025,14.192134,60,29,0
14.201718,14.391088,60,30,0
14.201718,14.391088,57,25,0
14.401054,14.590423,60,31,0
14.401054,14.590423,57,26,0
14.6003895,14.801803,60,32,0
14.6003895,14.801803,57,27,0
14.812404,15.021194,60,33,0
14.812404,15.021194,57,28,0
15.032184,15.229757,45,35,0
15.032184,15.229757,57,42,0
15.240156,15.429173,53,28,0
15.240156,15.429173,60,34,0
15.439121,15.631689,53,28,0
15.439121,15.631689,60,34,0
15.641824,15.834807,53,29,0
15.641824,15.834807,60,35,0
15.845121,16.049423,60,35,0
15.845121,16.049423,51,29,0
16.060175,16.274462,60,35,0
16.060175,16.274462,51,29,0
16.28574,16.493011,46,32,0
16.28574,16.493011,58,38,0
16.503922,16.688387,50,24,0
16.503922,16.688387,55,24,0
16.503922,16.688387,62,29,0
16.698095,16.888731,62,30,0
16.698095,16.888731,55,25,0
16.698095,16.888731,50,25,0
16.898766,17.089401,62,30,0
16.898766,17.089401,55,25,0
16.898766,17.089401,50,25,0
17.099434,17.298637,62,32,0
17.099434,17.298637,55,27,0
17.099434,17.298637,50,27,0
17.309122,17.508326,62,33,0
17.309122,17.508326,55,28,0
17.309122,17.508326,50,28,0
17.518808,17.72575,48,35,0
17.518808,17.72575,60,42,0
17.736643,17.921108,55,24,0
17.736643,17.921108,58,24,0
17.736643,17.921108,64,29,0
17.930817,18.120817,55,25,0
17.930817,18.120817,58,25,0
17.930817,18.120817,64,30,0
18.130817,18.320818,55,26,0
18.130817,18.320818,58,26,0
18.130817,18.320818,64,31,0
18.330818,18.53002,55,27,0
18.330818,18.53002,58,27,0
18.330818,18.53002,60,32,0
18.540504,18.74554,55,28,0
18.540504,18.74554,58,28,0
18.540504,18.74554,60,33,0
18.756332,18.963274,53,42,0
18.756332,18.963274,41,37,0
18.974167,19.162434,57,23,0
18.974167,19.162434,60,28,0
18.974167,19.162434,48,23,0
19.172342,19.367548,60,28,0
19.172342,19.367548,57,23,0
19.172342,19.367548,48,23,0
19.377823,19.573029,60,28,0
19.377823,19.573029,57,23,0
19.377823,19.573029,48,23,0
19.583302,19.780876,60,28,0
19.583302,19.780876,57,23,0
19.583302,19.780876,48,23,0
19.791275,20.002386,60,27,0
19.791275,20.002386,57,22,0
19.791275,20.002386,48,22,0
20.013496,20.211071,53,34,0
20.013496,20.211071,41,26,0
20.22147,20.41469,57,22,0
20.22147,20.41469,60,22,0
20.22147,20.41469,65,27,0
20.42486,20.62141,57,22,0
20.42486,20.62141,60,22,0
20.42486,20.62141,65,27,0
20.631756,20.828234,57,23,0
20.631756,20.828234,60,23,0
20.631756,20.828234,65,28,0
20.838549,21.03996,55,32,0
20.838549,21.03996,59,32,0
20.838549,21.03996,65,38,0
21.050562,21.259354,55,33,0
21.050562,21.259354,59,33,0
21.050562,21.259354,65,39,0
21.270342,21.48625,48,50,0
21.497614,21.679144,55,31,0
21.497614,21.679144,60,31,0
21.497614,21.679144,64,38,0
21.688698,21.875582,64,39,0
21.688698,21.875582,60,33,0
21.688698,21.875582,55,33,0
21.885418,22.072304,64,40,0
21.885418,22.072304,60,34,0
21.885418,22.072304,55,34,0
22.08214,22.279715,64,41,0
22.08214,22.279715,60,35,0
22.08214,22.279715,55,35,0
22.290113,22.495281,64,42,0
22.290113,22.495281,60,36,0
22.290113,22.495281,55,36,0
22.50608,22.703653,49,55,0
22.714052,22.896744,57,37,0
22.714052,22.896744,64,37,0
22.714052,22.896744,67,45,0
22.90636,23.097635,57,37,0
22.90636,23.097635,64,37,0
22.90636,23.097635,67,45,0
23.107702,23.299553,57,38,0
23.107702,23.299553,64,38,0
23.107702,23.299553,67,46,0
23.309866,23.51128,57,35,0
23.309866,23.51128,64,35,0
23.309866,23.51128,67,41,0
23.52188,23.72991,57,36,0
23.52188,23.72991,64,36,0
23.52188,23.72991,67,42,0
23.740858,23.93809,50,55,0
23.948471,24.129423,57,34,0
23.948471,24.129423,62,34,0
23.948471,24.129423,65,41,0
24.138947,24.326447,65,42,0
24.138947,24.326447,62,36,0
24.138947,24.326447,57,36,0
24.336315,24.523815,65,44,0
24.336315,24.523815,62,37,0
24.336315,24.523815,57,37,0
24.533684,24.731258,65,45,0
24.533684,24.731258,62,38,0
24.533684,24.731258,57,38,0
24.741655,24.946825,65,46,0
24.741655,24.946825,62,39,0
24.741655,24.946825,57,39,0
24.957623,25.1515,52,55,0
25.161705,25.345575,58,40,0
25.161705,25.345575,60,40,0
25.161705,25.345575,67,49,0
25.355253,25.547173,58,40,0
25.355253,25.547173,60,40,0
25.355253,25.547173,67,49,0
25.557274,25.749687,58,42,0
25.557274,25.749687,60,42,0
25.557274,25.749687,67,51,0
25.760002,25.971897,58,39,0
25.760002,25.971897,60,39,0
25.760002,25.971897,67,46,0
25.98305,26.185177,58,40,0
25.98305,26.185177,60,40,0
25.98305,26.185177,67,49,0
26.195816,26.402758,53,58,0
26.413649,26.59752,57,37,0
26.413649,26.59752,60,37,0
26.413649,26.59752,65,44,0
26.607199,26.797197,65,46,0
26.607199,26.797197,60,39,0
26.607199,26.797197,57,39,0
26.807198,26.997198,65,49,0
26.807198,26.997198,60,40,0
26.807198,26.997198,57,40,0
27.007198,27.204771,65,50,0
27.007198,27.204771,60,41,0
27.007198,27.204771,57,41,0
27.21517,27.42034,65,52,0
27.21517,27.42034,60,44,0
27.21517,27.42034,57,44,0
27.431137,27.628712,47,62,0
27.63911,27.828127,55,42,0
27.63911,27.828127,62,42,0
27.63911,27.828127,65,51,0
27.838076,28.03395,55,42,0
27.838076,28.03395,62,42,0
27.838076,28.03395,65,51,0
28.044262,28.240147,55,44,0
28.044262,28.240147,62,44,0
28.044262,28.240147,65,52,0
28.250462,28.483114,55,38,0
28.250462,28.483114,62,38,0
28.250462,28.483114,65,45,0
28.49536,28.707254,55,33,0
28.49536,28.707254,62,33,0
28.49536,28.707254,65,39,0
28.718407,28.939337,48,45,0
28.950966,29.139233,58,29,0
28.950966,29.139233,62,35,0
29.149141,29.343681,62,35,0
29.149141,29.343681,58,29,0
29.35392,29.54846,62,36,0
29.35392,29.54846,58,30,0
29.558699,29.759403,64,37,0
29.558699,29.759403,58,30,0
29.769966,29.982653,64,37,0
29.769966,29.982653,58,31,0
29.993847,30.19142,41,47,0
30.201818,30.390837,57,28,0
30.201818,30.390837,60,28,0
30.201818,30.390837,65,34,0
30.400784,30.59666,57,28,0
30.400784,30.59666,60,28,0
30.400784,30.59666,65,34,0
30.60697,30.802856,57,29,0
30.60697,30.802856,60,29,0
30.60697,30.802856,65,35,0
30.81317,31.0299,55,22,0
30.81317,31.0299,59,22,0
30.81317,31.0299,65,27,0
31.041306,31.291306,55,23,0
31.041306,31.291306,59,23,0
31.041306,31.291306,65,27,0
31.304464,31.517948,60,36,0
31.304464,31.517948,48,31,0
31.529182,31.727789,55,20,0
31.529182,31.727789,64,25,0
31.738243,31.925127,64,25,0
31.738243,31.925127,55,21,0
31.934963,32.12185,64,26,0
31.934963,32.12185,55,21,0
32.131687,32.324905,64,27,0
32.131687,32.324905,55,22,0
32.335075,32.540245,64,27,0
32.335075,32.540245,55,23,0
32.55104,32.748615,49,31,0
32.55104,32.748615,61,36,0
32.759014,32.941124,57,24,0
32.759014,32.941124,64,24,0
32.759014,32.941124,67,29,0
32.950706,33.143276,57,25,0
32.950706,33.143276,64,25,0
32.950706,33.143276,67,30,0
33.15341,33.346394,57,27,0
33.15341,33.346394,64,27,0
33.15341,33.346394,67,32,0
33.35671,33.56028,57,25,0
33.35671,33.56028,64,25,0
33.35671,33.56028,67,30,0
33.570995,33.779785,57,26,0
33.570995,33.779785,64,26,0
33.570995,33.779785,67,31,0
33.790775,34.00506,50,33,0
33.790775,34.00506,62,40,0
34.01634,34.199028,57,23,0
34.01634,34.199028,65,28,0
34.208645,34.39492,65,28,0
34.208645,34.39492,57,24,0
34.404724,34.591,65,30,0
34.404724,34.591,57,24,0
34.600803,34.801506,65,31,0
34.600803,34.801506,57,26,0
34.81207,35.023964,65,32,0
34.81207,35.023964,57,27,0
35.03512,35.232693,52,38,0
35.03512,35.232693,64,42,0
35.24309,35.424618,58,28,0
35.24309,35.424618,60,28,0
35.24309,35.424618,67,34,0
35.434174,35.62545,58,29,0
35.434174,35.62545,60,29,0
35.434174,35.62545,67,34,0
35.635517,35.827366,58,30,0
35.635517,35.827366,60,30,0
35.635517,35.827366,67,37,0
35.83768,36.047237,58,28,0
35.83768,36.047237,60,28,0
35.83768,36.047237,67,34,0
36.05827,36.272552,58,29,0
36.05827,36.272552,60,29,0
36.05827,36.272552,67,35,0
36.283833,36.50913,53,41,0
36.283833,36.50913,65,46,0
36.520985,36.709255,60,30,0
36.520985,36.709255,69,37,0
36.719162,36.9137,69,40,0
36.719162,36.9137,60,33,0
36.923943,37.11848,69,41,0
36.923943,37.11848,60,34,0
37.12872,37.326294,69,42,0
37.12872,37.326294,60,36,0
37.336693,37.54186,69,45,0
37.336693,37.54186,60,37,0
37.552658,37.750233,47,45,0
37.552658,37.750233,59,53,0
37.76063,37.94965,56,34,0
37.76063,37.94965,65,41,0
37.959595,38.15547,56,34,0
37.959595,38.15547,65,41,0
38.165783,38.415783,56,36,0
38.165783,38.415783,65,42,0
38.42894,38.641624,56,28,0
38.42894,38.641624,65,32,0
38.65282,38.886425,56,28,0
38.65282,38.886425,65,33,0
38.898724,39.11628,48,37,0
38.898724,39.11628,60,43,0
39.127728,39.33576,58,23,0
39.127728,39.33576,62,28,0
39.346706,39.56344,62,27,0
39.346706,39.56344,58,22,0
39.574844,39.791576,62,27,0
39.574844,39.791576,58,23,0
39.802982,40.03007,64,27,0
39.802982,40.03007,58,22,0
40.042027,40.279526,64,27,0
40.042027,40.279526,58,22,0
40.292027,40.82774,65,34,0
40.292027,40.82774,57,28,0
40.86524,41.42774,48,20,0
40.82774,41.42774,41,17,0
42.96524,43.208153,42,58,0
42.96524,43.208153,30,49,0
43.208153,43.441616,43,64,0
43.208153,43.441616,31,53,0
43.441616,43.65514,54,59,0
43.441616,43.65514,42,50,0
43.65514,43.87573,55,64,0
43.65514,43.87573,43,53,0
43.87573,44.089252,66,60,0
43.87573,44.089252,54,51,0
44.089252,44.309032,67,67,0
44.089252,44.309032,55,57,0
44.309032,44.520298,78,63,0
44.309032,44.520298,66,52,0
44.520298,44.743347,79,72,0
44.520298,44.743347,67,60,0
44.743347,44.84609,82,65,0
44.84609,44.94836,79,58,0
44.94836,45.050865,76,59,0
45.050865,45.15408,72,57,0
45.15408,45.258003,70,56,0
45.258003,45.362534,67,54,0
45.362534,45.573807,64,52,0
45.573807,45.8091,44,58,0
45.573807,45.8091,32,49,0
45.8091,46.03382,45,64,0
45.8091,46.03382,33,53,0
46.03382,46.248875,56,59,0
46.03382,46.248875,44,50,0
46.248875,46.472755,57,64,0
46.248875,46.472755,45,53,0
46.472755,46.68936,68,60,0
46.472755,46.68936,56,51,0
46.68936,46.91241,69,67,0
46.68936,46.91241,57,57,0
46.91241,47.128235,80,63,0
46.91241,47.128235,68,52,0
47.128235,47.352116,81,72,0
47.128235,47.352116,69,60,0
47.98428,48.417885,69,47,0
47.98428,48.417885,63,47,0
47.98428,48.417885,60,47,0
48.417885,48.63902,46,47,0
48.85694,49.07277,62,37,0
49.07277,49.286293,67,37,0
48.85694,49.286293,58,37,0
48.63902,49.286293,55,37,0
49.286293,49.391556,43,40,0
49.49682,49.71266,59,37,0
49.49682,49.71266,65,37,0
49.71266,49.82255,48,47,0
50.15062,50.36801,64,45,0
50.15062,50.36801,67,45,0
50.36801,50.57928,72,40,0
49.932175,50.57928,60,50,0
50.57928,50.683807,58,46,0
50.788338,51.001102,67,42,0
50.788338,51.001102,72,42,0
51.001102,51.111805,57,45,0
51.44391,51.664364,65,47,0
51.44391,51.664364,69,47,0
51.664364,51.88321,72,40,0
51.222507,51.88321,60,49,0
51.88321,51.991905,53,48,0
52.1006,52.317993,57,41,0
52.1006,52.317993,65,41,0
52.55993,52.6898,52,36,0
52.6898,52.81746,55,39,0
52.317993,52.81746,48,48,0
52.81746,52.94041,64,45,0
53.309265,53.79119,48,35,0
53.309265,53.79119,54,35,0
53.309265,53.79119,57,42,0
53.79119,54.248417,55,32,0
53.79119,54.248417,58,39,0
54.248417,54.68478,58,33,0
53.79119,54.68478,48,32,0
54.248417,54.68478,64,40,0
54.248417,54.68478,60,33,0
54.68478,55.130875,58,36,0
54.68478,55.130875,60,36,0
54.68478,55.130875,67,43,0
55.130875,55.99894,58,39,0
55.130875,55.99894,60,39,0
55.130875,55.99894,67,46,0
55.99894,56.331043,56,44,0
56.441746,56.87811,57,51,0
56.386395,56.87811,48,38,0
56.331043,56.87811,41,34,0
56.87811,57.300644,57,43,0
56.87811,57.300644,60,52,0
57.300644,57.7323,57,46,0
57.300644,57.7323,65,55,0
57.7323,58.589737,57,49,0
57.7323,58.589737,65,59,0
59.01831,59.233364,47,63,0
59.653927,59.865818,68,56,0
60.085598,60.305378,67,56,0
59.233364,60.305378,62,51,0
59.443153,60.305378,65,53,0
59.865818,60.305378,71,58,0
60.305378,60.521984,48,63,0
60.946392,61.16081,61,50,0
61.38059,61.60037,60,49,0
60.521984,61.60037,55,46,0
60.7335,61.60037,58,48,0
61.16081,61.60037,64,52,0
61.60037,61.81776,41,43,0
61.81776,62.035152,72,43,0
61.81776,62.035152,63,35,0
62.035152,62.255737,70,38,0
62.035152,62.255737,62,32,0
62.255737,62.476326,58,37,0
62.476326,62.696915,57,37,0
62.255737,62.696915,61,37,0
62.255737,62.696915,65,44,0
62.696915,62.917503,55,32,0
62.696915,62.917503,64,38,0
62.917503,63.138092,65,38,0
62.917503,63.138092,53,38,0
62.476326,63.138092,60,44,0
63.42218,63.81991,53,29,0
63.393772,63.81991,48,28,0
63.365364,63.81991,41,27,0
64.04718,64.27023,87,72,0
64.27023,64.48528,88,77,0
64.48528,64.70833,75,71,0
64.70833,64.923386,76,76,0
64.923386,65.14561,63,66,0
65.14561,65.360664,64,72,0
65.360664,65.590546,46,67,0
65.360664,65.590546,34,55,0
65.590546,65.83054,45,76,0
65.590546,65.83054,33,64,0
65.83054,65.94166,57,54,0
65.94166,66.05277,52,47,0
66.05277,66.16388,49,52,0
66.16388,66.274994,46,51,0
66.274994,66.3861,45,49,0
66.3861,66.497215,43,48,0
66.497215,66.60999,40,47,0
66.60999,66.72278,37,50,0
66.72278,66.835556,34,53,0
66.835556,66.94834,33,55,0
66.94834,67.06625,38,58,0
67.06625,67.18674,41,58,0
67.18674,67.29826,45,59,0
67.29826,67.40979,49,60,0
67.40979,67.51731,50,60,0
67.51731,67.62484,53,61,0
67.62484,67.73637,57,62,0
67.73637,67.84789,61,63,0
67.84789,67.955414,62,63,0
68.06294,68.29283,49,67,0
68.06294,68.29283,37,55,0
68.29283,68.51423,48,76,0
68.29283,68.51423,36,64,0
68.73895,68.968834,58,61,0
68.968834,69.19525,61,64,0
69.19525,69.43054,60,57,0
69.43054,69.66584,58,63,0
68.51423,69.66584,55,57,0
69.66584,69.8975,57,59,0
69.66584,69.8975,60,59,0
69.19525,69.8975,64,68,0
69.8975,70.374054,65,50,0
69.8975,70.374054,60,42,0
70.374054,70.63545,59,42,0
70.374054,70.63545,65,49,0
70.12916,70.63545,55,54,0
70.63545,70.905846,60,45,0
70.905846,71.187645,64,44,0
70.63545,71.187645,48,37,0
70.905846,71.187645,58,37,0
70.905846,71.187645,55,37,0
71.187645,71.4797,65,45,0
71.4797,71.81009,69,40,0
71.187645,71.81009,53,37,0
71.4797,71.81009,63,33,0
71.4797,71.81009,60,33,0
72.058365,72.79301,62,43,0
71.81009,72.79301,58,67,0
72.058365,72.79301,67,51,0
72.058365,72.79301,65,43,0
72.79301,73.031105,60,60,0
72.79301,73.031105,48,51,0
73.031105,73.51868,55,57,0
73.031105,73.51868,64,68,0
73.031105,73.51868,60,57,0
73.031105,73.51868,58,57,0
73.51868,74.005135,60,57,0
73.51868,74.005135,67,57,0
73.51868,74.005135,70,68,0
74.005135,74.25405,58,67,0
74.005135,74.25405,52,56,0
74.25405,74.49895,60,56,0
74.25405,74.49895,57,47,0
74.830696,75.32986,53,56,0
74.795815,75.32986,48,47,0
74.76093,75.32986,41,47,0
75.61971,75.84276,87,72,0
75.84276,76.057816,88,77,0
76.057816,76.28086,75,71,0
76.28086,76.492874,76,76,0
76.492874,76.715096,63,66,0
76.715096,76.927864,64,72,0
76.927864,77.156876,46,67,0
76.927864,77.156876,34,55,0
77.156876,77.394966,45,76,0
77.156876,77.394966,33,64,0
77.394966,77.50608,57,54,0
77.50608,77.61719,52,47,0
77.61719,77.7283,49,52,0
77.7283,77.83941,46,51,0
77.83941,77.95052,45,49,0
77.95052,78.06163,43,48,0
78.06163,78.175705,40,47,0
78.175705,78.28977,37,49,0
78.28977,78.40384,34,51,0
78.40384,78.51791,33,53,0
78.51791,78.63625,38,55,0
78.63625,78.75674,41,55,0
78.75674,78.868256,45,56,0
78.868256,78.97978,49,57,0
78.97978,79.08542,50,57,0
79.08542,79.19105,53,58,0
79.19105,79.302574,57,59,0
79.302574,79.4141,61,60,0
79.4141,79.520485,62,60,0
79.62686,79.86216,49,67,0
79.62686,79.86216,37,55,0
79.86216,80.08943,48,76,0
79.86216,80.08943,36,64,0
80.31415,80.54404,58,62,0
80.54404,80.77045,61,65,0
80.77045,81.01045,60,57,0
81.01045,81.25045,58,64,0
80.08943,81.25045,55,58,0
81.25045,81.48667,57,60,0
81.25045,81.48667,60,60,0
80.77045,81.48667,64,69,0
81.48667,81.97222,65,50,0
81.48667,81.97222,60,42,0
81.97222,82.24469,59,42,0
81.97222,82.24469,65,49,0
81.72289,82.24469,55,54,0
82.24469,82.526115,60,45,0
82.526115,82.81371,64,44,0
82.24469,82.81371,48,37,0
82.526115,82.81371,58,37,0
82.526115,82.81371,55,37,0
82.81371,83.11153,65,45,0
83.11153,83.43363,69,40,0
82.81371,83.43363,53,37,0
83.11153,83.43363,63,33,0
83.11153,83.43363,60,33,0
83.69133,84.438576,62,43,0
83.43363,84.438576,58,60,0
83.69133,84.438576,67,51,0
83.69133,84.438576,65,43,0
84.438576,84.67667,60,60,0
84.438576,84.67667,48,51,0
84.67667,85.164246,55,57,0
84.67667,85.164246,64,68,0
84.67667,85.164246,60,57,0
84.67667,85.164246,58,57,0
85.164246,85.66157,60,57,0
85.164246,85.66157,67,57,0
85.164246,85.66157,70,68,0
85.66157,85.93763,58,67,0
85.66157,85.93763,52,56,0
85.93763,86.20312,60,56,0
85.93763,86.20312,57,47,0
86.57173,87.10473,53,56,0
86.53366,87.10473,48,47,0
86.49559,87.10473,41,47,0
88.74822,89.27077,54,44,0
89.27077,89.7144,55,46,0
89.7144,90.148415,56,49,0
90.148415,90.57396,57,51,0
90.57396,90.99117,58,53,0
90.99117,91.41064,59,55,0
91.41064,91.87065,60,58,0
91.87065,92.30359,53,61,0
92.30359,92.73716,54,63,0
92.73716,93.17687,55,60,0
93.17687,93.59512,52,58,0
93.59512,94.025635,53,54,0
94.025635,94.46652,52,51,0
94.46652,94.88477,50,49,0
94.88477,95.315285,48,49,0
95.315285,95.75617,46,48,0
95.75617,96.1907,45,47,0
96.1907,96.63601,43,46,0
96.63601,97.13437,41,45,0
97.13437,97.60654,40,41,0
97.60654,98.09859,39,40,0
98.09859,98.61199,40,35,0
98.61199,99.19722,41,35,0
99.19722,99.58938,36,35,0
99.8955,100.42224,78,48,0
100.42224,100.87092,79,49,0
100.87092,101.30069,80,53,0
101.30069,101.721504,81,56,0
101.721504,102.13638,82,58,0
102.13638,102.5561,83,60,0
102.5561,103.01611,84,63,0
103.01611,103.43794,77,66,0
103.43794,103.86125,78,69,0
103.86125,104.2964,79,66,0
104.2964,104.71465,76,63,0
104.71465,105.145164,77,59,0
105.145164,105.58605,76,56,0
105.58605,106.0043,74,54,0
106.0043,106.434814,72,53,0
106.434814,106.8757,70,52,0
106.8757,107.31023,69,51,0
107.31023,107.75554,67,50,0
107.75554,108.2539,65,49,0
108.2539,108.725914,64,45,0
108.725914,109.21883,63,44,0
109.21883,109.73557,64,38,0
109.73557,110.31411,65,38,0
110.31411,110.70627,72,38,0
111.01715,111.54389,41,44,0
111.01715,111.54389,29,35,0
111.54389,111.99547,43,46,0
111.54389,111.99547,31,36,0
111.99547,112.43559,44,49,0
111.99547,112.43559,32,39,0
112.43559,112.8647,45,51,0
112.43559,112.8647,33,40,0
112.8647,113.28191,47,53,0
112.8647,113.28191,35,42,0
113.28191,113.70138,48,55,0
113.28191,113.70138,36,44,0
113.70138,114.16139,49,58,0
113.70138,114.16139,37,46,0
114.16139,114.58931,50,61,0
114.16139,114.58931,38,48,0
114.58931,115.0157,64,69,0
115.0157,115.44362,65,66,0
115.44362,115.86187,66,63,0
115.86187,116.29239,67,59,0
116.29239,116.73327,68,56,0
116.73327,117.15152,69,54,0
117.15152,117.58204,68,53,0
117.58204,118.02292,69,52,0
118.02292,118.45745,67,51,0
118.45745,118.902756,68,50,0
118.902756,119.40112,67,49,0
119.40112,119.87313,64,45,0
119.87313,120.36604,63,44,0
120.36604,120.88166,64,38,0
120.88166,121.454666,65,38,0
121.454666,121.846825,72,38,0
122.14985,122.67951,41,44,0
122.14985,122.67951,29,35,0
122.67951,123.139046,43,46,0
122.67951,123.139046,31,36,0
123.139046,123.58163,44,49,0
123.139046,123.58163,32,39,0
123.58163,124.00946,45,51,0
123.58163,124.00946,33,40,0
124.00946,124.426674,47,53,0
124.00946,124.426674,35,42,0
124.426674,124.84614,48,55,0
124.426674,124.84614,36,44,0
124.84614,125.30615,49,58,0
124.84614,125.30615,37,46,0
125.30615,125.74509,50,61,0
125.30615,125.74509,38,48,0
125.74509,126.184746,64,69,0
126.184746,126.62445,65,66,0
126.62445,127.04689,66,63,0
127.04689,127.47703,67,59,0
127.47703,127.91791,68,56,0
127.91791,128.34209,69,54,0
128.34209,128.7726,68,53,0
128.7726,129.21347,69,52,0
129.21347,129.64801,67,51,0
129.64801,130.0933,68,50,0
130.0933,130.59167,67,49,0
130.59167,131.06575,64,44,0
131.06575,131.57034,63,40,0
131.57034,132.1279,64,33,0
132.1279,132.8963,65,32,0
132.8963,135.5213,72,32,0
138.03986,138.15985,36,50,0
138.27766,138.39426,60,41,0
138.27766,138.39426,64,41,0
138.51038,138.62895,40,51,0
138.74753,138.86382,60,41,0
138.74753,138.86382,64,41,0
138.98009,139.09866,43,53,0
139.21724,139.33308,60,44,0
139.21724,139.33308,64,44,0
139.44891,139.56519,48,54,0
139.68146,139.79684,60,44,0
139.68146,139.79684,64,44,0
139.91223,140.02806,52,56,0
140.14389,140.26018,60,45,0
140.14389,140.26018,64,45,0
140.37645,140.49318,55,58,0
140.60991,140.7271,60,49,0
140.60991,140.7271,64,49,0
140.84444,141.0857,41,58,0
141.0857,141.32098,58,62,0
141.0857,141.32098,62,62,0
141.32098,141.5745,57,56,0
141.32098,141.5745,60,56,0
141.0857,141.5745,53,62,0
141.5745,141.8145,68,61,0
141.5745,141.8145,59,61,0
141.5745,141.8145,65,61,0
141.8145,142.06665,69,54,0
141.8145,142.06665,60,54,0
142.06665,142.30287,74,62,0
142.06665,142.30287,71,62,0
142.30287,142.54837,72,55,0
142.30287,142.54837,69,55,0
142.06665,142.54837,65,62,0
144.03653,144.15701,55,34,0
144.03653,144.15701,59,41,0
143.78671,144.27686,47,54,0
144.51558,144.634,62,42,0
144.51558,144.634,59,35,0
144.27686,144.7518,50,55,0
144.98572,145.10185,59,37,0
144.98572,145.10185,62,44,0
144.7518,145.21738,55,56,0
145.44815,145.67848,58,38,0
145.44815,145.67848,60,45,0
145.21738,145.67848,48,56,0
145.90764,146.1387,58,39,0
145.90764,146.1387,60,47,0
145.67848,146.1387,52,58,0
146.37325,146.61197,58,43,0
146.37325,146.61197,60,51,0
146.1387,146.61197,55,61,0
146.61197,146.73964,57,43,0
146.61197,146.73964,60,56,0
146.61197,146.73964,53,43,0
146.87148,147.016,61,56,0
146.87148,147.016,56,43,0
146.87148,147.016,53,43,0
147.18175,147.90276,56,46,0
147.18175,148.13898,62,60,0
147.18175,148.13898,53,46,0
147.18175,148.13898,59,46,0
148.13898,148.60683,60,53,0
148.13898,148.60683,52,45,0
147.90276,148.60683,55,49,0
149.34639,149.64195,66,32,0
149.07912,149.64195,57,53,0
149.34639,149.64195,75,38,0
149.34639,149.64195,72,32,0
149.89195,150.14195,67,34,0
149.64195,150.14195,58,56,0
149.89195,150.14195,76,41,0
149.89195,150.14195,72,34,0
150.38586,150.62976,76,41,0
150.14195,150.62976,64,57,0
150.38586,150.62976,70,34,0
150.38586,150.62976,72,34,0
150.62976,151.1361,67,60,0
150.88292,151.38925,70,34,0
150.88292,151.38925,76,41,0
150.88292,151.38925,72,34,0
151.38925,151.62976,76,48,0
151.38925,151.62976,72,40,0
151.64243,151.87602,76,48,0
151.64243,151.87602,72,40,0
151.88832,152.12193,76,48,0
151.88832,152.12193,72,40,0
151.1361,152.13422,67,60,0
152.38954,152.63445,76,48,0
152.13422,152.63445,70,57,0
152.63445,152.87933,77,48,0
152.63445,152.87933,69,40,0
152.38954,152.87933,72,40,0
152.87933,153.12424,74,57,0
152.87933,153.12424,71,48,0
153.12424,153.36914,72,49,0
152.87933,153.36914,68,40,0
152.87933,153.36914,65,40,0
153.12424,153.36914,69,41,0
153.36914,153.42773,79,43,0
153.36914,153.42773,88,51,0
153.60352,153.66211,77,50,0
153.60352,153.66211,86,59,0
153.83789,153.89648,76,49,0
153.83789,153.89648,84,58,0
154.07751,154.13611,74,48,0
154.07751,154.13611,82,57,0
154.31189,154.37048,72,46,0
154.31189,154.37048,81,55,0
154.54626,154.60463,70,45,0
154.54626,154.60463,79,54,0
154.78026,154.8391,69,45,0
154.78026,154.8391,77,53,0
155.01642,155.07578,68,43,0
155.01642,155.07578,74,51,0
155.25475,155.31474,72,50,0
155.25475,155.31474,69,42,0
155.49547,155.73724,71,50,0
155.49547,155.73724,67,42,0
155.73724,155.85756,74,51,0
155.73724,155.85756,62,43,0
155.97757,156.09709,71,52,0
155.97757,156.09709,59,44,0
156.21613,156.33487,67,53,0
156.21613,156.33487,55,45,0
156.45314,156.57109,53,45,0
156.45314,156.57109,65,54,0
156.68858,156.80577,50,47,0
156.68858,156.80577,62,57,0
156.9225,157.03923,60,58,0
156.9225,157.03923,48,48,0
157.15596,157.27315,55,59,0
157.15596,157.27315,43,50,0
157.39034,157.50768,52,62,0
157.39034,157.50768,40,52,0
157.62532,157.74298,48,64,0
157.62532,157.74298,36,54,0
157.86108,157.98013,46,67,0
157.86108,157.98013,34,57,0
158.10062,158.22208,43,70,0
158.10062,158.22208,31,59,0
158.34503,158.59296,41,74,0
158.34503,158.59296,29,58,0
158.59296,158.8409,57,65,0
158.59296,158.8409,53,55,0
158.59296,158.8409,48,55,0
158.8409,159.08884,45,73,0
158.8409,159.08884,33,58,0
159.08884,159.33676,57,64,0
159.08884,159.33676,53,54,0
159.08884,159.33676,48,54,0
159.33676,159.5965,48,75,0
159.33676,159.5965,36,60,0
159.5965,159.85625,57,64,0
159.5965,159.85625,53,54,0
159.5965,159.85625,48,54,0
159.85625,160.12173,53,74,0
159.85625,160.12173,41,60,0
160.36966,160.45232,57,72,0
160.45232,160.53496,60,68,0
160.53496,160.6176,65,68,0
161.38947,161.51767,48,50,0
161.64587,161.76985,60,41,0
161.64587,161.76985,64,41,0
161.89381,162.02094,55,51,0
162.14806,162.2695,60,41,0
162.14806,162.2695,64,41,0
162.39096,162.51144,52,53,0
162.63193,162.74957,60,44,0
162.63193,162.74957,64,44,0
162.86722,162.98723,45,50,0
163.11981,163.23639,57,38,0
163.11981,163.23639,61,38,0
163.35237,163.46806,52,46,0
163.58449,163.70152,57,36,0
163.58449,163.70152,61,36,0
163.81932,163.93782,45,45,0
164.06139,164.17949,49,36,0
164.06139,164.17949,52,36,0
164.2976,164.42209,38,42,0
164.54657,164.66803,50,34,0
164.54657,164.66803,54,34,0
164.78947,164.91293,45,43,0
165.03639,165.15785,50,34,0
165.03639,165.15785,54,34,0
165.27931,165.3998,38,45,0
165.52028,165.63792,50,37,0
165.52028,165.63792,54,37,0
165.75557,165.87556,43,50,0
166.00816,166.24072,55,40,0
166.00816,166.24072,58,40,0
166.24072,166.3564,50,52,0
166.47284,166.70767,55,45,0
166.47284,166.70767,58,45,0
166.70767,166.82617,43,59,0
166.94633,167.2199,55,50,0
166.94633,167.2199,58,50,0
167.45612,167.70203,55,56,0
167.2199,167.70203,48,66,0
167.70203,167.94792,64,65,0
167.94792,168.19382,55,51,0
167.70203,168.19382,60,65,0
168.19382,168.43973,64,54,0
168.43973,168.69614,55,47,0
168.19382,168.69614,58,54,0
168.69614,168.81909,45,54,0
168.93944,169.17754,60,47,0
168.93944,169.17754,65,47,0
169.17754,169.30069,57,54,0
169.44014,169.73062,60,48,0
169.44014,169.73062,65,48,0
169.73062,169.8784,47,54,0
170.03183,170.37244,55,47,0
170.03183,170.37244,62,47,0
170.03183,170.37244,65,47,0
170.37244,170.52396,48,54,0
170.65993,170.91635,57,47,0
170.65993,170.91635,60,47,0
170.65993,170.91635,65,47,0
171.41017,171.53363,36,54,0
171.65709,171.92204,55,47,0
171.65709,171.92204,52,47,0
172.1752,172.30307,48,48,0
172.44044,172.5681,60,50,0
172.69577,172.82591,72,52,0
171.92204,172.97046,41,54,0
172.97046,173.05896,81,59,0
173.05896,173.14745,84,62,0
173.14745,173.23595,89,65,0
173.48389,173.61209,48,50,0
173.7403,173.86176,60,41,0
173.7403,173.86176,64,41,0
173.98322,174.10666,55,51,0
174.23012,174.35158,60,41,0
174.23012,174.35158,64,41,0
174.47304,174.59352,52,53,0
174.714,174.83165,60,44,0
174.714,174.83165,64,44,0
174.9493,175.06929,45,50,0
175.2083,175.32774,57,38,0
175.2083,175.32774,61,38,0
175.4454,175.56221,52,46,0
175.67963,175.79773,57,36,0
175.67963,175.79773,61,36,0
175.91655,176.03528,45,45,0
176.15884,176.27695,49,36,0
176.15884,176.27695,52,36,0
176.39507,176.51955,38,42,0
176.64403,176.76549,50,34,0
176.64403,176.76549,54,34,0
176.88693,177.01039,45,43,0
177.13385,177.25531,50,34,0
177.13385,177.25531,54,34,0
177.37677,177.49725,38,45,0
177.61774,177.73538,50,37,0
177.61774,177.73538,54,37,0
177.85303,177.97699,43,50,0
178.1109,178.34348,55,40,0
178.1109,178.34348,58,40,0
178.34348,178.45915,50,52,0
178.57558,178.81041,55,45,0
178.57558,178.81041,58,45,0
178.81041,178.92891,43,59,0
179.04909,179.32265,55,50,0
179.04909,179.32265,58,50,0
179.56265,179.80855,55,56,0
179.32265,179.80855,48,66,0
179.80855,180.05048,64,65,0
180.05048,180.29639,55,51,0
179.80855,180.29639,60,65,0
180.29639,180.54228,64,54,0
180.54228,180.7882,55,47,0
180.29639,180.7882,58,54,0
180.7882,180.91113,45,54,0
181.0315,181.26958,60,47,0
181.0315,181.26958,65,47,0
181.26958,181.39275,57,54,0
181.5322,181.82268,60,48,0
181.5322,181.82268,65,48,0
181.82268,181.97046,47,54,0
182.1271,182.4741,55,47,0
182.1271,182.4741,62,47,0
182.1271,182.4741,65,47,0
182.4741,182.62563,48,54,0
182.76541,183.03326,57,47,0
182.76541,183.03326,60,47,0
182.76541,183.03326,65,47,0
183.53543,183.65889,36,54,0
183.78442,184.05147,55,47,0
183.78442,184.05147,52,47,0
184.05147,184.30463,41,54,0
184.66397,184.86504,65,53,0
184.56041,184.86504,53,41,0
184.594,184.86504,57,45,0
184.62848,184.86504,60,49,0
188.12868,188.6877,44,36,0
188.6877,188.96487,51,27,0
188.6877,188.96487,60,27,0
188.6877,188.96487,63,32,0
188.96721,189.45622,56,31,0
188.96721,189.45622,60,31,0
188.96721,189.45622,63,38,0
189.46136,189.70638,51,29,0
189.46136,189.70638,60,29,0
189.46136,189.70638,63,35,0
189.70844,190.19745,63,40,0
189.70844,190.19745,60,33,0
189.70844,190.19745,56,33,0
190.20259,190.46704,63,36,0
190.20259,190.46704,60,30,0
190.20259,190.46704,51,30,0
190.46925,190.98186,41,50,0
190.98186,191.22688,53,36,0
190.98186,191.22688,63,36,0
190.98186,191.22688,65,43,0
191.22894,191.71794,57,36,0
191.22894,191.71794,63,36,0
191.22894,191.71794,65,43,0
191.72308,191.96811,53,33,0
191.72308,191.96811,63,33,0
191.72308,191.96811,65,40,0
191.97017,192.47743,57,33,0
191.97017,192.47743,63,33,0
191.97017,192.47743,65,39,0
192.48277,192.74489,53,29,0
192.48277,192.74489,63,29,0
192.48277,192.74489,65,34,0
192.74709,193.25772,46,34,0
193.25772,193.4962,53,26,0
193.25772,193.4962,61,26,0
193.25772,193.4962,65,31,0
193.4982,193.97787,65,31,0
193.4982,193.97787,61,26,0
193.4982,193.97787,58,26,0
193.98299,194.22859,65,30,0
193.98299,194.22859,61,25,0
193.98299,194.22859,53,25,0
194.23067,194.7281,65,30,0
194.23067,194.7281,61,25,0
194.23067,194.7281,58,25,0
194.7334,194.98769,65,31,0
194.7334,194.98769,61,26,0
194.7334,194.98769,53,26,0
195.50893,195.7555,67,30,0
195.50893,195.7555,58,25,0
195.75757,196.25044,60,29,0
195.75757,196.25044,63,35,0
196.25552,196.50359,58,26,0
196.25552,196.50359,67,31,0
196.50562,197.00977,63,29,0
196.50562,197.00977,67,35,0
197.01518,197.32268,58,26,0
197.01518,197.32268,67,31,0
194.98985,197.3258,51,35,0
197.84488,198.09122,58,25,0
197.84488,198.09122,68,30,0
198.0933,198.58456,62,29,0
198.0933,198.58456,68,35,0
198.58986,198.83801,58,26,0
198.58986,198.83801,68,31,0
198.84009,199.34366,68,35,0
198.84009,199.34366,62,29,0
199.349,199.60149,68,31,0
199.349,199.60149,58,26,0
197.3258,199.6036,53,35,0
200.11142,200.36122,62,31,0
200.11142,200.36122,58,26,0
199.6036,200.36122,50,35,0
200.86082,201.11401,62,31,0
200.86082,201.11401,58,26,0
200.36122,201.11401,53,35,0
201.62985,201.9471,58,26,0
201.11401,201.9471,56,35,0
201.62985,201.9471,62,26,0
201.62985,201.9471,65,31,0
202.46547,202.71112,58,25,0
202.46547,202.71112,67,30,0
202.71318,203.20633,63,29,0
202.71318,203.20633,67,35,0
203.21141,203.4588,58,26,0
203.21141,203.4588,67,31,0
203.46086,203.9654,67,35,0
203.46086,203.9654,63,29,0
203.97075,204.22342,67,31,0
203.97075,204.22342,58,26,0
201.9471,204.22557,55,35,0
204.75653,205.02202,67,32,0
204.75653,205.02202,63,27,0
204.22557,205.02202,51,35,0
205.56319,205.83167,67,34,0
205.56319,205.83167,63,28,0
205.02202,205.83167,55,37,0
206.39706,206.85861,66,30,0
206.39706,206.85861,63,30,0
205.83167,206.85861,57,39,0
207.40907,207.69952,67,35,0
207.40907,207.69952,63,29,0
207.70212,208.24684,67,35,0
207.70212,208.24684,63,29,0
208.25258,208.54071,67,35,0
208.25258,208.54071,63,29,0
208.54326,209.13629,68,39,0
206.85861,209.13629,58,31,0
206.85861,209.13629,70,37,0
208.54326,209.13629,63,33,0
209.13629,209.4942,68,35,0
209.13629,209.4942,62,29,0
209.4942,210.16891,68,38,0
209.4942,210.16891,65,32,0
209.4942,210.16891,63,32,0
210.17603,210.50116,68,35,0
210.17603,210.50116,65,29,0
210.17603,210.50116,63,29,0
210.50389,211.1528,67,36,0
210.50389,211.1528,63,30,0
211.15962,211.32356,67,36,0
211.15962,211.32356,63,36,0
211.32356,211.40553,51,39,0
211.40553,211.48749,54,44,0
211.48749,212.12593,66,50,0
212.13266,212.29749,66,36,0
212.13266,212.29749,63,36,0
212.29749,212.37991,49,35,0
212.37991,212.46233,53,37,0
212.46233,213.10077,65,45,0
213.10748,213.43622,61,36,0
213.10748,213.43622,65,36,0
213.43898,214.07742,65,39,0
213.43898,214.07742,61,39,0
214.08414,214.41287,65,36,0
214.08414,214.41287,61,36,0
214.41563,214.98672,63,39,0
214.41563,215.07022,65,39,0
214.41563,215.07022,60,39,0
215.07022,215.3918,63,36,0
215.07022,215.3918,60,36,0
215.3918,216.03719,65,39,0
215.3918,216.03719,61,39,0
216.04398,216.38399,65,36,0
216.04398,216.38399,61,36,0
216.38684,217.04291,65,36,0
216.38684,217.04291,61,36,0
217.04982,217.39328,65,39,0
217.04982,217.39328,61,39,0
217.39629,218.06296,67,40,0
217.39629,218.06296,65,40,0
217.39629,218.06296,61,40,0
218.06987,218.45341,67,45,0
218.06987,218.45341,65,45,0
218.06987,218.45341,61,45,0
218.45747,219.10286,67,49,0
218.45747,219.10286,64,49,0
218.45747,219.10286,60,49,0
219.10965,219.42615,67,39,0
219.10965,219.42615,64,39,0
219.10965,219.42615,60,39,0
219.4288,220.04967,67,42,0
219.4288,220.04967,64,42,0
219.4288,220.04967,60,42,0
220.05605,220.20605,64,37,0
220.05605,220.35771,60,37,0
220.36023,220.66035,53,42,0
220.36023,220.66035,48,42,0
221.10603,221.25455,47,41,0
221.25455,221.55157,48,46,0
221.55157,221.70009,36,41,0
221.8486,222.13641,44,41,0
222.13641,222.42767,49,47,0
222.42767,222.56985,37,41,0
222.71204,222.98987,53,41,0
222.98987,223.27156,55,47,0
223.27156,223.40854,43,41,0
223.54553,223.81224,59,41,0
223.81224,224.0825,60,47,0
224.0825,224.2141,48,42,0
224.34567,224.60487,56,43,0
224.60487,224.86688,61,50,0
224.86688,224.99509,49,44,0
225.12329,225.3728,65,46,0
225.3728,225.62491,67,54,0
225.62491,225.74637,55,48,0
225.86783,226.1036,71,49,0
226.1036,226.34169,72,56,0
226.34169,226.45752,60,51,0
226.57335,226.79738,68,52,0
226.79738,227.0192,73,60,0
227.0192,227.12929,61,55,0
227.23877,227.45552,77,56,0
227.45552,227.66904,79,64,0
227.66904,227.77461,67,57,0
227.87946,228.08778,83,58,0
228.08778,228.18925,84,61,0
228.68602,229.08554,76,71,0
228.6115,229.08554,60,63,0
228.63634,229.08554,67,66,0
228.66118,229.08554,70,68,0
232.97678,233.09775,36,58,0
233.09775,233.2154,46,54,0
233.2154,233.33304,48,55,0
233.33304,233.45068,52,55,0
233.45068,233.57166,57,58,0
233.68884,233.80603,60,55,0
233.57166,233.80603,58,55,0
233.80603,233.92322,64,55,0
235.3491,235.6191,48,50,0
235.87753,236.13187,58,45,0
236.37544,236.61725,64,47,0
236.86743,237.1168,70,51,0
237.36964,237.63376,76,46,0
237.91307,238.14621,82,43,0
238.56104,239.16464,88,41,0
240.47417,240.8985,60,36,0
240.47417,240.8985,54,30,0
240.47417,240.8985,48,30,0
240.90288,241.11165,60,33,0
240.90288,241.11165,54,27,0
240.90288,241.11165,48,27,0
241.1134,241.53537,60,37,0
241.1134,241.53537,55,31,0
241.1134,241.53537,48,31,0
241.53976,241.74854,60,34,0
241.53976,241.74854,55,29,0
241.53976,241.74854,48,29,0
241.75029,242.17073,62,43,0
241.75029,242.17073,56,36,0
241.75029,242.17073,48,36,0
242.17511,242.38388,62,40,0
242.17511,242.38388,56,34,0
242.17511,242.38388,48,34,0
242.38564,242.8121,60,47,0
242.38564,242.8121,57,39,0
242.38564,242.8121,48,39,0
242.81656,243.0614,60,45,0
242.81656,243.0614,57,38,0
242.81656,243.0614,48,38,0
243.06346,243.48756,62,53,0
243.06346,243.48756,54,45,0
243.06346,243.48756,48,45,0
243.49203,243.7084,62,48,0
243.49203,243.7084,54,40,0
243.49203,243.7084,48,40,0
243.71022,244.14204,62,49,0
243.71022,244.14204,55,41,0
243.71022,244.14204,48,41,0
244.14658,244.36943,62,36,0
244.14658,244.36943,53,30,0
244.14658,244.36943,48,30,0
244.3713,244.81111,60,40,0
244.3713,244.81111,52,34,0
244.3713,244.81111,48,34,0
244.81575,245.03612,60,37,0
244.81575,245.03612,55,31,0
244.81575,245.03612,48,31,0
245.03796,245.4824,60,36,0
245.03796,245.4824,53,30,0
245.03796,245.4824,48,30,0
245.4824,245.70464,48,33,0
245.70464,246.1184,57,38,0
245.70464,246.1184,54,38,0
245.70464,246.1184,48,32,0
246.12276,246.33006,57,39,0
246.12276,246.33006,54,32,0
246.12276,246.33006,48,27,0
246.3318,246.74869,58,44,0
246.3318,246.74869,55,36,0
246.3318,246.74869,48,36,0
246.75299,246.95816,58,42,0
246.75299,246.95816,55,34,0
246.75299,246.95816,48,34,0
246.95988,247.37753,59,45,0
246.95988,247.37753,56,45,0
246.95988,247.37753,48,38,0
247.38184,247.587,59,43,0
247.38184,247.587,56,43,0
247.38184,247.587,48,36,0
247.58873,248.0056,48,37,0
247.58873,248.20671,60,46,0
247.58873,248.20671,57,37,0
248.00992,248.21094,48,45,0
248.21262,248.64618,62,55,0
248.21262,248.64618,54,45,0
248.21262,248.64618,48,45,0
248.65054,248.85858,62,51,0
248.65054,248.85858,57,43,0
248.65054,248.85858,48,43,0
248.86034,249.2808,62,55,0
248.86034,249.2808,55,46,0
248.86034,249.2808,48,46,0
249.28519,249.49323,62,51,0
249.28519,249.49323,53,43,0
249.28519,249.49323,48,43,0
249.49496,249.91545,60,57,0
249.49496,249.91545,52,47,0
249.49496,249.91545,48,47,0
249.91982,250.12785,60,54,0
249.91982,250.12785,55,46,0
249.91982,250.12785,48,46,0
250.12961,250.54932,60,57,0
250.12961,250.54932,53,49,0
250.12961,250.54932,48,49,0
250.55368,250.76172,48,46,0
250.76347,251.17511,57,55,0
250.76347,251.17511,54,49,0
250.76347,251.17511,48,46,0
251.17943,251.3846,57,55,0
251.17943,251.3846,54,46,0
251.17943,251.3846,48,39,0
251.38632,251.79706,58,62,0
251.38632,251.79706,55,52,0
251.38632,251.79706,48,52,0
251.80138,252.00655,58,57,0
251.80138,252.00655,55,48,0
251.80138,252.00655,48,48,0
252.00827,252.42043,59,61,0
252.00827,252.42043,56,51,0
252.00827,252.42043,48,51,0
252.42473,252.6299,59,57,0
252.42473,252.6299,56,57,0
252.42473,252.6299,48,48,0
252.63162,253.04375,48,50,0
252.63162,253.24892,60,60,0
252.63162,253.24892,57,50,0
253.04805,253.25323,48,57,0
253.25496,253.66777,62,65,0
253.25496,253.66777,54,56,0
253.25496,253.66777,48,56,0
253.6721,253.87798,62,63,0
253.6721,253.87798,57,53,0
253.6721,253.87798,48,53,0
253.87971,254.0879,46,67,0
254.0879,254.2927,62,58,0
254.2927,254.49887,67,59,0
254.70741,254.91148,60,58,0
254.91148,255.11768,64,60,0
254.49887,255.11768,58,68,0
255.32826,255.53133,60,59,0
255.53133,255.73402,65,61,0
255.11768,255.73402,57,69,0
255.93402,256.13742,62,62,0
256.13742,256.3472,67,63,0
255.73402,256.3472,58,71,0
256.55597,256.75867,64,65,0
256.75867,256.96136,69,66,0
256.3472,256.96136,60,74,0
257.16272,257.3675,65,67,0
257.3675,257.5773,70,68,0
256.96136,257.5773,62,77,0
257.7842,257.98624,67,68,0
257.98624,258.18826,72,69,0
257.5773,258.18826,64,78,0
258.38895,258.59302,69,68,0
258.59302,258.80136,72,68,0
258.18826,258.80136,65,81,0
259.0072,259.20856,69,71,0
259.20856,259.40988,74,71,0
258.80136,259.40988,66,82,0
259.60858,259.81195,70,71,0
259.81195,260.02103,74,71,0
259.40988,260.02103,67,82,0
260.02103,260.2269,61,48,0
260.4296,260.6355,76,43,0
260.2269,260.6355,70,42,0
260.6355,260.841,62,47,0
261.0437,261.24924,78,43,0
260.841,261.24924,69,43,0
261.24924,261.45807,55,47,0
261.66806,261.88324,71,43,0
261.45807,261.88324,62,42,0
261.88324,262.10385,48,46,0
262.3269,262.54993,64,46,0
262.10385,262.54993,55,45,0
262.98657,263.19724,60,46,0
263.19724,263.60596,69,50,0
262.77087,263.60596,57,43,0
262.54993,263.60596,53,50,0
263.80725,264.00793,47,55,0
264.41122,264.81705,65,53,0
264.20926,264.81705,62,50,0
264.00793,264.81705,56,50,0
265.02567,265.22836,48,47,0
265.62836,266.03378,65,45,0
265.42838,266.03378,60,42,0
265.22836,266.03378,57,42,0
266.24002,266.39154,36,40,0
266.84653,267.25574,64,40,0
266.64365,267.25574,58,36,0
266.442,267.25574,55,36,0
267.46576,267.6215,41,38,0
267.67337,267.88098,53,32,0
267.88098,268.08862,57,32,0
268.08862,268.29623,65,37,0
268.29623,268.50385,57,36,0
268.50385,268.6994,60,36,0
268.895,269.0867,55,38,0
269.0867,269.27838,60,40,0
269.27838,269.47006,64,42,0
269.47006,269.66177,55,44,0
269.66177,269.86096,60,47,0
268.6994,269.86096,53,46,0
270.05923,270.25748,58,42,0
270.25748,270.45575,60,42,0
270.45575,270.65067,64,45,0
270.65067,270.8456,58,46,0
270.8456,271.0373,60,47,0
269.86096,271.0373,53,46,0
271.229,271.4207,57,48,0
271.4207,271.6124,60,48,0
271.6124,271.80408,65,49,0
271.80408,271.99576,57,50,0
271.99576,272.19534,60,50,0
271.0373,272.19534,53,53,0
272.19534,272.38962,52,55,0
272.5839,272.77817,61,51,0
272.77817,272.97244,67,54,0
272.38962,272.97244,57,51,0
273.16672,273.36542,61,51,0
272.97244,273.36542,57,50,0
273.36542,273.5597,50,55,0
273.75397,273.95193,62,53,0
273.95193,274.1462,65,58,0
273.5597,274.1462,57,65,0
274.34048,274.53848,62,53,0
274.1462,274.53848,57,67,0
274.53848,274.73276,48,58,0
274.92703,275.12537,62,53,0
275.12537,275.319,65,58,0
274.73276,275.319,57,66,0
275.5126,275.71362,62,61,0
275.319,275.71362,57,71,0
275.71362,275.81042,46,76,0
276.28503,276.9491,53,64,0
276.28503,276.9491,65,76,0
276.28503,276.9491,58,64,0
276.28503,276.9491,56,64,0
276.9491,277.04398,65,70,0
277.04398,277.1391,62,69,0
277.1391,277.23447,58,68,0
277.23447,277.3301,56,67,0
277.3301,277.42603,53,66,0
277.42603,277.5222,50,65,0
277.5222,277.61868,46,64,0
277.61868,277.71545,44,63,0
277.71545,277.81226,41,62,0
277.81226,277.90906,38,61,0
277.90906,278.00958,34,60,0
278.00958,278.12057,33,52,0
278.10474,278.21573,35,53,0
278.1999,278.31088,37,54,0
278.29504,278.406,38,55,0
278.3902,278.50082,40,56,0
278.48502,278.59567,42,57,0
278.57986,278.6905,44,58,0
278.67468,278.78528,45,59,0
278.76953,278.8798,47,60,0
278.86404,278.9743,49,61,0
278.95856,279.06882,50,62,0
279.05307,279.16324,52,63,0
279.14755,279.25745,54,64,0
279.24176,279.35165,56,65,0
279.33594,279.4456,57,66,0
279.42993,279.5395,59,67,0
279.52383,279.6332,61,69,0
279.6176,279.7268,62,70,0
279.7112,279.82037,64,71,0
279.80478,279.91367,66,72,0
279.8981,280.00693,68,73,0
279.9914,280.1,69,74,0
280.0845,280.19296,71,75,0
280.17746,280.28583,72,76,0
280.2704,280.36304,73,79,0
280.36304,280.4557,76,70,0
280.4557,280.54837,81,68,0
280.54837,280.64102,85,73,0
280.64102,280.73367,83,70,0
280.73367,280.83215,76,70,0
280.83215,280.9248,73,77,0
280.9248,281.01746,69,73,0
281.01746,281.11014,64,71,0
281.11014,281.2028,61,71,0
281.2028,281.29544,64,66,0
281.29544,281.39392,71,66,0
281.39392,281.48657,61,71,0
281.48657,281.57922,64,65,0
281.57922,281.67188,69,65,0
281.67188,281.76456,73,65,0
281.76456,281.8572,71,63,0
281.8572,281.955,64,63,0
281.955,282.04764,61,71,0
282.04764,282.14032,57,65,0
282.14032,282.23297,52,65,0
282.23297,282.32562,49,65,0
282.32562,282.4183,52,63,0
282.4183,282.51474,59,63,0
282.51474,282.6074,49,60,0
282.6074,282.70007,52,54,0
282.70007,282.79272,57,53,0
282.79272,282.88538,61,53,0
282.88538,282.97806,59,50,0
282.97806,283.0755,52,49,0
283.0755,283.16815,49,56,0
283.16815,283.2608,45,49,0
283.2608,283.3535,40,46,0
283.3535,283.44614,37,45,0
283.44614,283.5388,40,42,0
283.5388,283.63574,47,41,0
283.63574,283.7456,33,41,0
283.72995,283.83887,40,45,0
283.82336,283.9314,48,48,0
283.91605,284.02368,49,45,0
284.00824,284.1166,47,40,0
284.10107,284.21036,40,40,0
284.1945,284.30502,33,41,0
284.28934,284.39877,40,45,0
284.3832,284.49158,48,48,0
284.4762,284.58383,49,45,0
284.56845,284.67682,47,40,0
284.66125,284.7707,40,41,0
284.755,284.86505,33,31,0
284.84937,284.9588,40,33,0
284.9432,285.0519,48,36,0
285.0364,285.14453,49,34,0
285.12903,285.23795,47,29,0
285.2223,285.3323,40,30,0
285.3165,285.42667,33,31,0
285.411,285.52,40,33,0
285.5045,285.6123,48,36,0
285.59702,285.70456,49,34,0
285.68912,285.798,47,27,0
285.78235,285.8935,40,27,0
285.87677,286.07742,33,31,0
288.9309,289.0412,48,34,0
289.0412,289.1513,60,29,0
289.1513,289.2598,54,34,0
289.2598,289.36713,60,30,0
289.36713,289.47357,54,34,0
289.47357,289.58804,60,30,0
289.58804,289.6926,48,38,0
289.6926,289.79712,60,31,0
289.79712,289.90057,55,40,0
289.90057,290.004,60,32,0
290.004,290.10855,55,42,0
290.10855,290.21307,60,31,0
290.21307,290.31946,48,43,0
290.31946,290.43756,62,32,0
290.43756,290.54245,56,48,0
290.54245,290.64737,62,39,0
290.64737,290.75226,56,45,0
290.75226,290.86697,62,33,0
290.86697,290.97186,48,44,0
290.97186,291.07678,60,34,0
291.07678,291.18057,57,46,0
291.18057,291.2844,60,35,0
291.2844,291.38928,55,47,0
291.38928,291.49417,60,36,0
291.49417,291.59906,48,48,0
291.59906,291.70395,62,37,0
291.70395,291.8115,54,49,0
291.8115,291.92914,62,39,0
291.92914,292.03403,57,48,0
292.03403,292.13892,62,38,0
292.13892,292.24683,48,49,0
292.24683,292.36313,62,40,0
292.36313,292.46802,55,47,0
292.46802,292.5729,62,40,0
292.5729,292.6778,53,51,0
292.6778,292.7827,62,38,0
292.7827,292.89023,48,49,0
292.89023,293.00388,60,38,0
293.00388,293.10876,52,47,0
293.10876,293.21365,60,38,0
293.21365,293.31854,55,47,0
293.31854,293.42343,60,38,0
293.42343,293.53214,48,48,0
293.53214,293.64536,60,38,0
293.64536,293.7506,53,47,0
293.7506,293.85587,60,37,0
293.85587,293.96115,48,46,0
293.96115,294.0731,60,37,0
294.17834,294.28107,57,36,0
294.28107,294.38635,45,37,0
294.38635,294.4916,57,37,0
294.0731,294.4916,52,46,0
294.59686,294.70715,57,38,0
294.4916,294.70715,53,43,0
294.81244,294.9177,58,38,0
294.9177,295.02115,46,39,0
295.02115,295.1264,58,39,0
294.70715,295.1264,54,48,0
295.23166,295.34238,58,38,0
295.1264,295.34238,55,45,0
295.44547,295.55,60,37,0
295.55,295.6545,48,38,0
295.6545,295.75903,60,38,0
295.34238,295.75903,56,50,0
295.8636,295.97388,60,40,0
295.75903,295.97388,57,47,0
296.0784,296.18045,62,41,0
296.18045,296.28497,50,41,0
296.28497,296.3895,62,41,0
295.97388,296.3895,57,52,0
296.49402,296.60233,62,42,0
296.3895,296.60233,58,49,0
296.70685,296.8089,64,43,0
296.8089,296.91342,52,44,0
296.91342,297.01797,64,44,0
296.60233,297.01797,59,54,0
297.1225,297.2308,64,42,0
297.01797,297.2308,60,51,0
297.33496,297.43912,65,45,0
297.43912,297.54117,60,45,0
297.54117,297.645,65,46,0
297.2308,297.645,53,55,0
297.74878,297.85748,65,37,0
297.645,297.85748,62,40,0
297.96146,298.06616,64,31,0
297.85748,298.06616,61,43,0
298.17163,298.2779,64,32,0
298.06616,298.2779,60,43,0
298.38464,298.4914,64,31,0
298.2779,298.4914,58,42,0
298.4914,298.59818,53,43,0
298.59818,298.70493,65,30,0
298.70493,298.81168,60,33,0
298.81168,298.91846,65,29,0
298.4914,298.91846,57,43,0
299.0256,299.13712,65,29,0
298.91846,299.13712,62,32,0
299.24112,299.34583,64,25,0
299.13712,299.34583,61,34,0
299.45126,299.55753,64,25,0
299.34583,299.55753,60,34,0
299.66428,299.77106,64,25,0
299.55753,299.77106,58,34,0
299.77106,299.8778,53,34,0
299.8778,299.98456,65,26,0
299.77106,299.98456,57,34,0
299.98456,300.09134,64,26,0
300.09134,300.1981,65,26,0
300.30484,300.41162,65,27,0
300.1981,300.41162,53,39,0
300.51614,300.62067,65,27,0
300.41162,300.62067,57,45,0
300.72705,300.83344,65,27,0
300.62067,300.83344,60,38,0
300.93982,301.0462,65,27,0
300.83344,301.0462,48,39,0
301.15073,301.25528,64,28,0
301.0462,301.25528,57,46,0
301.36166,301.46802,64,28,0
301.25528,301.46802,60,40,0
301.5744,301.6808,63,29,0
301.46802,301.6808,51,42,0
301.78503,301.88885,63,29,0
301.6808,301.88885,57,49,0
301.99484,302.10086,63,31,0
301.88885,302.10086,60,44,0
302.20538,302.3099,62,31,0
302.10086,302.3099,50,55,0
302.41782,302.52573,62,31,0
302.3099,302.52573,54,48,0
302.62955,302.73337,61,33,0
302.52573,302.73337,49,55,0
302.83936,302.94537,61,34,0
302.73337,302.94537,54,48,0
303.04776,303.15015,60,35,0
302.94537,303.15015,48,59,0
303.25467,303.3592,60,35,0
303.15015,303.3592,54,51,0
303.4609,303.5626,59,37,0
303.3592,303.5626,47,64,0
303.6664,303.7702,59,37,0
303.5626,303.7702,54,53,0
303.87054,303.9709,58,39,0
303.7702,303.9709,46,69,0
304.07327,304.17566,58,39,0
303.9709,304.17566,54,55,0
304.275,304.37433,57,40,0
304.17566,304.37433,45,70,0
304.47995,304.5856,57,42,0
304.37433,304.5856,54,57,0
304.6887,304.7998,56,43,0
304.5856,304.7998,44,72,0
304.7998,305.02203,49,73,0
304.7998,305.02203,37,61,0
305.8725,306.09805,61,69,0
305.8725,306.09805,53,58,0
306.09805,306.33072,65,72,0
306.09805,306.33072,56,61,0
306.33072,306.56775,68,67,0
306.33072,306.56775,61,56,0
306.56775,306.80707,73,67,0
306.56775,306.80707,65,56,0
306.80707,307.0348,73,72,0
306.80707,307.0348,65,61,0
307.4699,307.6726,54,61,0
307.6726,307.8781,47,55,0
307.4699,307.8781,42,61,0
307.8781,308.08084,52,61,0
308.08084,308.28598,45,54,0
307.8781,308.28598,40,61,0
308.28598,308.488,50,61,0
308.488,308.6928,43,54,0
308.28598,308.6928,38,61,0
308.6928,308.89484,48,56,0
308.6928,308.89484,36,56,0
308.89484,309.09686,49,58,0
308.89484,309.09686,37,58,0
309.09686,309.30133,50,59,0
309.09686,309.30133,38,59,0
309.30133,309.50336,51,61,0
309.30133,309.50336,39,61,0
309.50336,309.70535,52,63,0
309.50336,309.70535,40,63,0
309.70535,309.91125,51,65,0
309.70535,309.91125,41,65,0
309.91125,310.11328,50,63,0
309.91125,310.11328,46,63,0
310.11328,310.2143,39,54,0
310.3153,310.41632,44,54,0
310.52084,310.62186,49,60,0
310.72287,310.82388,54,52,0
310.9249,311.0259,59,52,0
311.1308,311.2325,64,58,0
311.33368,311.43515,63,50,0
311.5369,311.63895,62,50,0
311.74725,311.84998,61,57,0
311.95273,312.05798,60,49,0
312.16333,312.2697,59,49,0
312.3778,312.59882,60,49,0
312.59882,312.81433,72,46,0
312.7977,313.01437,71,47,0
312.99765,313.21555,70,47,0
313.19873,313.4179,69,47,0
313.40103,313.62137,68,48,0
313.60446,313.8232,67,49,0
313.80643,314.02512,65,45,0
314.00824,314.22812,64,45,0
314.21115,314.43207,63,45,0
314.415,314.63715,62,45,0
314.62003,314.8431,61,45,0
314.82605,315.01376,60,51,0
315.03082,315.2475,60,49,0
315.2308,315.44803,59,50,0
315.4313,315.64917,58,54,0
315.6324,315.85077,57,52,0
315.83395,316.05258,56,53,0
316.03607,316.2506,55,57,0
316.2341,316.4494,53,53,0
316.43277,316.64896,52,54,0
316.6323,316.84933,51,55,0
316.8326,317.0505,50,58,0
317.03372,317.25226,49,60,0
317.2357,317.33502,48,62,0
317.43436,317.64056,60,68,0
317.64056,317.836,64,63,0
317.43436,317.836,58,57,0
317.836,317.93372,46,60,0
318.03143,318.23114,58,67,0
318.23114,318.44376,64,62,0
318.03143,318.44376,55,56,0
318.44376,318.5421,45,60,0
318.64047,318.84595,55,65,0
318.84595,319.0427,64,61,0
318.64047,319.0427,52,55,0
319.0427,319.13977,45,56,0
319.23685,319.44235,52,61,0
319.44235,319.6397,57,53,0
319.23685,319.6397,49,51,0
319.6397,319.7384,50,58,0
319.83707,320.04184,57,66,0
320.04184,320.23923,62,61,0
319.83707,320.23923,53,56,0
320.23923,320.3366,48,58,0
320.43402,320.63574,56,67,0
320.63574,320.8509,62,61,0
320.43402,320.8509,53,56,0
320.8509,320.94925,47,56,0
321.0476,321.2538,53,66,0
321.2538,321.4518,62,59,0
321.0476,321.4518,50,56,0
321.4518,321.55084,40,56,0
321.64984,321.85532,47,64,0
321.85532,322.0527,52,57,0
321.64984,322.0527,44,54,0
322.0527,322.25006,45,68,0
322.25006,322.44742,52,73,0
322.25006,322.44742,45,62,0
322.44742,322.65137,53,68,0
322.44742,322.65137,50,57,0
322.65137,322.84875,55,72,0
322.65137,322.84875,48,61,0
322.84875,323.04996,57,67,0
322.84875,323.04996,53,56,0
323.04996,323.2473,59,72,0
323.04996,323.2473,52,61,0
323.2473,323.4498,57,56,0
323.2473,323.4498,60,67,0
323.4498,323.6472,62,75,0
323.4498,323.6472,55,63,0
323.6472,323.84763,60,58,0
323.6472,323.84763,64,69,0
323.84763,324.045,57,63,0
323.84763,324.045,64,75,0
324.045,324.2468,62,59,0
324.045,324.2468,65,70,0
324.2468,324.44415,67,75,0
324.2468,324.44415,60,63,0
324.44415,324.6496,65,58,0
324.44415,324.6496,69,69,0
324.6496,324.7483,57,54,0
324.7483,324.84695,64,55,0
324.84695,324.9447,62,56,0
324.9447,325.04996,65,58,0
325.04996,325.14862,60,70,0
325.14862,325.2473,67,58,0
325.2473,325.346,65,59,0
325.346,325.4447,69,59,0
325.4447,325.54337,64,61,0
325.54337,325.64902,71,61,0
325.64902,325.74768,69,75,0
325.74768,325.84637,72,63,0
325.84637,325.94507,67,61,0
325.94507,326.04373,74,63,0
326.04373,326.14243,72,64,0
326.14243,326.24768,76,65,0
326.24768,326.34637,69,80,0
326.34637,326.44507,76,66,0
326.44507,326.54373,74,66,0
326.54373,326.64243,77,68,0
326.64243,326.74112,72,68,0
326.74112,326.84564,79,68,0
326.84564,326.94803,77,66,0
326.84564,326.94803,81,72,0
327.0504,327.25177,80,63,0
327.0504,327.25177,73,53,0
327.25177,327.4531,72,56,0
327.25177,327.4531,81,66,0
327.4531,327.6572,80,66,0
327.4531,327.6572,73,56,0
327.6572,327.85852,72,56,0
327.6572,327.85852,81,66,0
327.85852,328.05988,80,66,0
327.85852,328.05988,73,56,0
328.05988,328.26343,81,66,0
328.05988,328.26343,72,56,0
328.26343,328.46786,80,66,0
328.26343,328.46786,73,56,0
328.46786,328.67328,81,66,0
328.46786,328.67328,72,56,0
328.67328,328.87976,80,66,0
328.67328,328.87976,73,56,0
328.87976,329.08713,81,66,0
328.87976,329.08713,72,56,0
329.08713,329.30624,80,66,0
329.08713,329.30624,73,56,0
329.30624,329.42624,81,64,0
329.30624,329.42624,72,55,0
330.02625,330.84442,57,70,0
330.02625,330.84442,48,59,0
330.84442,334.06473,58,77,0
330.84442,334.06473,48,59,0
335.4765,335.90988,60,40,0
335.4765,335.90988,54,34,0
335.4765,335.90988,48,34,0
335.91446,336.1316,60,36,0
335.91446,336.1316,54,30,0
335.91446,336.1316,48,30,0
336.13342,336.56317,60,40,0
336.13342,336.56317,55,34,0
336.13342,336.56317,48,34,0
336.5676,336.7786,60,37,0
336.5676,336.7786,55,31,0
336.5676,336.7786,48,31,0
336.78036,337.20917,62,46,0
336.78036,337.20917,56,38,0
336.78036,337.20917,48,38,0
337.21362,337.42612,62,42,0
337.21362,337.42612,56,36,0
337.21362,337.42612,48,36,0
337.42792,337.86288,60,49,0
337.42792,337.86288,57,41,0
337.42792,337.86288,48,41,0
337.86746,338.10266,60,46,0
337.86746,338.10266,57,39,0
337.86746,338.10266,48,39,0
338.1046,338.53488,62,53,0
338.1046,338.53488,54,45,0
338.1046,338.53488,48,45,0
338.5394,338.75977,62,48,0
338.5394,338.75977,54,40,0
338.5394,338.75977,48,40,0
338.76163,339.11487,62,49,0
338.76163,339.11487,55,41,0
338.76163,339.11487,48,41,0
339.16156,339.35556,62,33,0
339.1382,339.35556,55,32,0
339.11487,339.35556,48,25,0
339.40262,339.8323,63,37,0
339.3791,339.8323,54,30,0
339.35556,339.8323,48,30,0
339.87793,340.07794,64,34,0
339.85513,340.07794,55,28,0
339.8323,340.07794,48,28,0
340.12616,340.6765,65,33,0
340.10205,340.6765,57,27,0
340.07794,340.6765,48,27,0
340.6765,340.8558,48,31,0
340.91556,341.30774,63,40,0
340.88568,341.30774,54,40,0
340.8558,341.30774,48,34,0
341.30774,341.45477,48,40,0
341.5038,341.902,62,45,0
341.4793,341.902,55,38,0
341.45477,341.902,48,38,0
341.902,342.0481,48,42,0
342.0968,342.49295,65,45,0
342.07245,342.49295,56,45,0
342.0481,342.49295,48,37,0
342.49295,342.63907,48,42,0
342.68774,343.08154,60,45,0
342.66342,343.08154,57,37,0
342.63907,343.08154,48,37,0
343.08154,343.2269,48,42,0
343.27533,343.66705,62,51,0
343.2511,343.66705,54,42,0
343.2269,343.66705,48,42,0
343.66705,343.8124,48,47,0
343.86084,344.25327,62,51,0
343.8366,344.25327,55,42,0
343.8124,344.25327,48,42,0
344.25327,344.39862,48,47,0
344.44705,344.8395,60,52,0
344.42285,344.8395,52,43,0
344.39862,344.8395,48,43,0
344.8395,344.98483,48,50,0
345.0333,345.42502,60,53,0
345.00906,345.42502,53,45,0
344.98483,345.42502,48,45,0
345.42502,345.6188,48,51,0
345.6188,345.99902,60,51,0
345.6188,345.99902,54,44,0
345.6188,345.99902,48,41,0
346.00302,346.19254,60,51,0
346.00302,346.19254,54,41,0
346.00302,346.19254,48,35,0
346.19412,346.5792,60,58,0
346.19412,346.5792,55,47,0
346.19412,346.5792,48,47,0
346.58316,346.77267,60,53,0
346.58316,346.77267,55,44,0
346.58316,346.77267,48,44,0
346.7743,347.16006,62,57,0
346.7743,347.16006,56,46,0
346.7743,347.16006,48,46,0
347.16403,347.35355,62,54,0
347.16403,347.35355,56,54,0
347.16403,347.35355,48,44,0
347.35513,347.7442,48,46,0
347.7442,347.9353,48,54,0
347.35513,347.9353,60,56,0
347.35513,347.9353,57,46,0
347.9353,348.325,62,62,0
347.9353,348.325,54,53,0
347.9353,348.325,48,53,0
348.325,348.51678,62,60,0
348.325,348.51678,54,51,0
348.325,348.51678,48,51,0
348.51678,348.71164,46,64,0
348.71164,348.9021,62,56,0
348.9021,349.09256,67,57,0
349.28745,349.47787,60,56,0
349.47787,349.66833,64,58,0
349.09256,349.66833,58,66,0
349.8622,350.052,60,59,0
350.052,350.24182,65,61,0
349.66833,350.24182,57,67,0
350.42816,350.61923,62,62,0
350.61923,350.81277,67,63,0
350.24182,350.81277,58,70,0
351.0056,351.19476,64,65,0
351.19476,351.38394,69,66,0
350.81277,351.38394,60,74,0
351.5697,351.75955,65,68,0
351.75955,351.95312,70,69,0
351.38394,351.95312,62,75,0
352.14413,352.33267,67,73,0
352.33267,352.52118,72,74,0
351.95312,352.52118,64,84,0
352.71362,352.90607,69,73,0
352.90607,353.15298,72,73,0
352.52118,353.15298,65,82,0
353.31964,353.48438,67,36,0
353.31964,353.48438,62,30,0
353.31964,353.48438,59,30,0
353.49304,353.72955,67,36,0
353.49304,353.72955,62,30,0
353.49304,353.72955,59,30,0
353.15298,353.742,53,40,0
353.9087,354.07016,67,36,0
353.9087,354.07016,61,30,0
353.9087,354.07016,58,30,0
354.07864,354.31616,67,36,0
354.07864,354.31616,61,30,0
354.07864,354.31616,58,30,0
353.742,354.32864,53,40,0
354.49533,354.65817,64,36,0
354.49533,354.65817,60,30,0
354.49533,354.65817,58,30,0
354.66675,354.90326,64,36,0
354.66675,354.90326,60,30,0
354.66675,354.90326,58,30,0
354.32864,354.9157,53,40,0
355.108,355.31836,65,36,0
355.108,355.31836,60,30,0
355.108,355.31836,57,30,0
355.3294,355.57617,65,36,0
355.3294,355.57617,60,30,0
355.3294,355.57617,57,30,0
354.9157,355.58914,53,40,0
355.75583,355.94266,67,36,0
355.75583,355.94266,62,30,0
355.75583,355.94266,59,30,0
355.9538,356.1903,67,36,0
355.9538,356.1903,62,30,0
355.9538,356.1903,59,30,0
355.58914,356.20276,53,40,0
356.36945,356.54926,67,36,0
356.36945,356.54926,61,30,0
356.36945,356.54926,58,30,0
356.55957,356.7971,67,36,0
356.55957,356.7971,61,30,0
356.55957,356.7971,58,30,0
356.20276,356.80957,53,40,0
356.97626,357.157,64,36,0
356.97626,357.157,60,30,0
356.97626,357.157,58,30,0
357.16733,357.41733,64,36,0
357.16733,357.41733,60,30,0
357.16733,357.41733,58,30,0
356.80957,357.43048,53,40,0
357.62277,357.8581,65,36,0
357.62277,357.8581,60,30,0
357.62277,357.8581,57,30,0
357.87198,358.12088,65,36,0
357.87198,358.12088,60,30,0
357.87198,358.12088,57,30,0
357.43048,358.13397,53,40,0
358.29745,358.46097,62,40,0
358.46097,358.63474,67,40,0
358.29745,358.63474,59,40,0
358.13397,358.63474,53,45,0
358.79865,358.9626,61,40,0
358.9626,359.1366,67,40,0
358.79865,359.1366,58,40,0
358.63474,359.1366,53,47,0
359.30008,359.46356,60,40,0
359.46356,359.63733,64,40,0
359.30008,359.63733,58,40,0
359.1366,359.63733,53,46,0
359.80127,359.96518,60,40,0
359.96518,360.1386,65,40,0
359.80127,360.1386,57,40,0
359.63733,360.1386,53,47,0
360.30255,360.4665,62,39,0
360.4665,360.64047,67,38,0
360.30255,360.64047,59,39,0
360.1386,360.64047,53,45,0
360.80487,360.96924,61,37,0
360.96924,361.14346,67,36,0
360.80487,361.14346,58,37,0
360.64047,361.14346,53,44,0
361.3074,361.47134,60,35,0
361.47134,361.64532,64,34,0
361.3074,361.64532,58,35,0
361.14346,361.64532,53,41,0
361.81015,361.975,60,33,0
361.975,362.1489,65,32,0
361.81015,362.1489,57,33,0
361.64532,362.1489,53,39,0
362.31418,362.47946,50,32,0
362.47946,362.65414,55,32,0
362.31418,362.65414,47,32,0
362.1489,362.65414,41,36,0
362.81897,362.9838,49,32,0
362.9838,363.15823,55,32,0
362.81897,363.15823,46,32,0
362.65414,363.15823,41,37,0
363.3231,363.4879,48,32,0
363.4879,363.66235,52,32,0
363.3231,363.66235,46,32,0
363.15823,363.66235,41,36,0
363.82718,363.99203,48,32,0
363.99203,364.1659,53,32,0
363.82718,364.1659,45,32,0
363.66235,364.1659,41,37,0
364.33258,364.49924,38,27,0
364.49924,364.6746,43,26,0
364.1659,364.6746,29,30,0
364.84174,365.00885,37,26,0
365.00885,365.18445,43,25,0
364.6746,365.18445,29,30,0
365.35205,365.51965,36,25,0
365.51965,365.69547,40,25,0
365.18445,365.69547,29,28,0
365.86307,366.20593,36,30,0
365.69547,366.20593,29,28,0
366.37494,366.7205,36,29,0
366.20593,366.7205,29,27,0
366.8944,367.2502,37,29,0
366.7205,367.2502,29,27,0
367.4272,367.7885,36,27,0
367.2502,367.7885,29,25,0
367.96924,368.33902,37,28,0
367.7885,368.33902,29,26,0
368.52478,368.90686,36,29,0
368.33902,368.90686,29,25,0
369.09857,369.48953,37,28,0
369.48953,369.69714,36,24,0
368.90686,369.69714,29,26,0
370.12268,370.22906,58,26,0
370.12268,370.22906,48,22,0
370.761,370.86737,48,26,0
370.761,370.86737,41,22,0
