start_time,end_time,note_value,velocity,instrument_program_number
1.229886,1.6037645,70,43,0
1.229886,1.6037645,58,25,0
1.6037645,1.977643,60,25,0
1.6037645,1.977643,72,43,0
1.977643,2.338871,74,44,0
1.977643,2.338871,62,26,0
2.338871,2.7182815,77,53,0
2.338871,2.7182815,65,28,0
2.7182815,3.0815656,67,30,0
2.7182815,3.0815656,79,60,0
3.0815656,3.4448495,65,24,0
3.0815656,3.4448495,77,42,0
3.4448495,3.8165965,62,26,0
3.4448495,3.8165965,74,44,0
3.8165965,4.2317066,58,23,0
3.8165965,4.2317066,70,39,0
4.2317066,6.3911443,57,27,0
4.2317066,6.3911443,65,38,0
4.2317066,6.3911443,60,27,0
6.3911443,6.765023,70,43,0
6.3911443,6.765023,58,30,0
6.765023,7.1389017,60,30,0
6.765023,7.1389017,72,43,0
7.1389017,7.5001297,62,31,0
7.1389017,7.5001297,74,44,0
7.5001297,7.888228,77,53,0
7.5001297,7.888228,65,34,0
7.888228,8.251512,79,58,0
7.888228,8.251512,67,36,0
8.251512,8.614796,65,29,0
8.251512,8.614796,77,42,0
8.614796,8.986543,74,44,0
8.614796,8.986543,62,31,0
8.986543,9.401653,70,39,0
8.986543,9.401653,58,28,0
9.401653,11.541835,65,38,0
9.401653,11.541835,57,27,0
9.401653,11.541835,60,27,0
11.541835,11.915713,70,43,0
11.541835,11.915713,58,30,0
11.915713,12.289592,60,30,0
11.915713,12.289592,72,43,0
12.289592,12.65082,62,40,0
12.65082,13.020414,65,48,0
13.020414,13.383698,67,55,0
13.383698,13.746983,65,47,0
13.746983,14.11873,62,50,0
12.289592,14.310154,74,44,0
14.310154,14.501578,70,53,0
14.11873,14.501578,58,40,0
14.501578,14.862806,65,35,0
14.862806,15.21035,69,41,0
15.21035,15.573634,70,42,0
14.501578,15.755276,77,58,0
15.755276,15.936918,76,57,0
15.573634,15.936918,69,34,0
15.936918,16.308664,65,32,0
15.936918,16.50357,74,62,0
16.50357,16.698479,72,55,0
16.308664,16.698479,60,28,0
16.698479,17.059706,58,34,0
17.059706,17.4293,60,37,0
17.4293,17.792585,69,39,0
16.698479,17.792585,72,59,0
17.792585,18.173151,70,41,0
17.792585,18.173151,67,29,0
18.173151,18.436274,64,37,0
18.173151,18.567835,69,46,0
18.436274,18.729649,60,28,0
18.729649,19.053272,58,28,0
18.567835,19.053272,67,41,0
19.053272,19.34731,56,29,0
19.330013,19.624048,57,27,0
19.606752,19.883493,58,27,0
19.883493,21.298586,57,29,0
19.053272,21.770285,65,42,0
21.770285,22.144163,70,43,0
21.770285,22.144163,58,30,0
22.144163,22.518042,72,43,0
22.144163,22.518042,60,30,0
22.518042,22.879269,62,31,0
22.518042,22.879269,74,44,0
22.879269,23.25868,65,34,0
22.879269,23.25868,77,52,0
23.25868,23.621964,79,58,0
23.25868,23.621964,67,36,0
23.621964,23.985249,65,29,0
23.621964,23.985249,77,42,0
23.985249,24.356995,62,31,0
23.985249,24.356995,74,44,0
24.356995,24.772104,58,28,0
24.356995,24.772104,70,39,0
24.772104,26.912287,60,27,0
24.772104,26.912287,57,27,0
24.772104,26.912287,65,38,0
26.912287,27.286165,58,30,0
26.912287,27.286165,70,43,0
27.286165,27.660044,72,43,0
27.286165,27.660044,60,30,0
27.660044,28.021273,62,31,0
27.660044,28.021273,74,44,0
28.021273,28.393019,77,52,0
28.021273,28.393019,65,34,0
28.393019,28.756304,67,36,0
28.393019,28.756304,79,58,0
28.756304,29.119587,77,42,0
28.756304,29.119587,65,29,0
29.119587,29.491335,74,44,0
29.119587,29.491335,62,31,0
29.491335,29.906445,58,28,0
29.491335,29.906445,70,39,0
29.906445,32.046627,57,27,0
29.906445,32.046627,60,27,0
29.906445,32.046627,65,38,0
32.046627,32.420506,58,30,0
32.046627,32.420506,70,43,0
32.420506,32.794384,72,43,0
32.420506,32.794384,60,30,0
32.794384,33.15561,62,31,0
33.15561,33.525204,65,40,0
33.525204,33.88849,67,46,0
33.88849,34.251774,65,39,0
34.251774,34.62352,62,42,0
32.794384,34.814945,74,44,0
34.814945,35.00637,70,53,0
34.62352,35.00637,58,34,0
35.00637,35.367596,65,35,0
35.367596,35.71514,69,41,0
35.71514,36.078426,70,42,0
35.00637,36.260067,77,58,0
36.260067,36.441708,76,57,0
36.078426,36.441708,69,34,0
36.441708,36.813457,65,32,0
36.441708,37.00836,74,62,0
37.00836,37.20327,72,55,0
36.813457,37.20327,60,28,0
37.20327,37.5645,58,34,0
37.5645,37.93409,60,37,0
37.93409,38.32987,69,39,0
37.20327,38.32987,72,59,0
38.32987,38.710438,70,41,0
38.32987,38.710438,67,29,0
38.710438,38.97356,64,37,0
38.710438,39.10512,69,46,0
38.97356,39.259537,60,28,0
39.259537,39.56837,58,28,0
39.10512,39.56837,67,41,0
39.56837,39.862408,56,29,0
39.84511,40.139145,57,27,0
40.12185,40.39859,58,27,0
40.39859,41.770542,57,29,0
39.56837,42.22786,65,42,0
42.96279,43.330257,56,49,0
43.330257,43.683533,58,41,0
43.683533,44.038773,67,45,0
44.038773,44.40624,65,37,0
44.40624,44.775833,60,43,0
44.775833,45.145428,58,37,0
42.96279,45.145428,70,49,0
45.145428,45.515022,56,49,0
45.515022,45.87426,58,41,0
45.87426,46.2335,65,49,0
46.2335,46.603096,63,38,0
46.603096,46.97269,60,46,0
46.97269,47.356056,58,38,0
45.145428,47.356056,70,49,0
47.356056,47.72142,56,54,0
47.72142,48.086784,64,47,0
47.356056,48.086784,70,54,0
48.086784,48.45215,56,57,0
48.45215,48.81751,65,52,0
48.086784,48.81751,70,57,0
48.81751,49.192146,56,59,0
49.192146,49.55964,66,54,0
49.55964,49.974747,56,65,0
49.974747,50.35083,68,49,0
50.35083,50.72691,55,54,0
50.72691,51.102993,67,47,0
48.81751,51.102993,70,59,0
51.102993,51.468353,63,38,0
51.102993,51.468353,75,54,0
51.468353,51.844437,77,58,0
51.468353,51.844437,65,41,0
51.844437,52.220516,67,64,0
52.220516,52.59011,75,50,0
52.59011,52.94935,77,54,0
52.94935,53.23822,75,50,0
51.844437,53.334507,79,64,0
53.334507,53.7041,77,52,0
53.23822,53.7041,72,52,0
53.7041,54.086952,75,45,0
53.7041,54.086952,67,45,0
54.086952,54.46083,62,56,0
54.46083,54.828297,70,39,0
54.828297,55.195763,72,44,0
55.195763,55.477825,70,40,0
54.086952,55.571846,74,56,0
55.477825,55.94144,67,52,0
55.94144,56.33858,62,46,0
55.571846,56.33858,70,52,0
56.33858,56.719147,67,50,0
56.719147,57.093025,75,42,0
57.093025,57.46049,77,45,0
56.33858,57.46049,79,59,0
57.46049,57.843338,79,48,0
57.46049,57.843338,75,48,0
57.843338,58.215088,72,45,0
57.843338,58.407665,77,54,0
58.407665,58.600246,75,52,0
58.215088,58.600246,67,40,0
58.600246,58.976326,62,54,0
58.976326,59.348072,70,45,0
59.348072,59.719822,72,49,0
59.719822,60.09813,70,46,0
58.600246,60.09813,74,54,0
60.09813,60.470802,67,47,0
60.09813,60.470802,62,33,0
60.470802,60.84347,60,30,0
60.470802,60.84347,69,42,0
60.84347,61.215218,70,55,0
60.84347,61.215218,58,36,0
61.215218,61.576447,72,51,0
61.215218,61.576447,69,34,0
61.576447,61.94604,67,36,0
61.576447,61.94604,74,52,0
61.94604,62.315636,65,38,0
61.94604,62.315636,76,53,0
62.315636,62.69172,77,56,0
62.315636,62.69172,64,39,0
62.69172,63.07342,79,58,0
62.69172,63.07342,74,41,0
63.07342,63.440887,81,60,0
63.07342,63.440887,72,43,0
63.440887,63.81697,76,41,0
63.440887,63.81697,79,58,0
63.81697,64.19305,69,39,0
63.81697,64.19305,77,56,0
64.19305,64.56913,72,37,0
64.19305,64.56913,76,54,0
64.56913,64.94521,67,35,0
64.56913,64.94521,74,51,0
64.94521,65.33037,72,49,0
64.94521,65.33037,69,35,0
65.33037,65.70645,70,47,0
65.33037,65.70645,64,33,0
65.70645,66.082535,69,40,0
65.70645,66.082535,65,28,0
66.082535,66.45861,61,33,0
66.082535,66.45861,67,46,0
66.45861,66.834694,65,40,0
66.45861,66.834694,62,28,0
66.834694,67.217545,63,32,0
66.834694,67.217545,69,45,0
67.217545,67.600395,67,40,0
67.217545,67.600395,64,28,0
67.600395,68.000015,65,41,0
67.600395,68.000015,60,29,0
68.000015,68.43192,63,23,0
68.000015,68.43192,66,33,0
68.43192,68.6853,60,23,0
68.43192,68.6853,67,33,0
68.6853,68.93868,68,28,0
68.6853,68.93868,63,19,0
68.93868,69.20798,69,33,0
68.93868,69.20798,62,23,0
69.20798,69.59997,65,28,0
69.20798,69.59997,60,19,0
69.73063,70.111824,58,27,0
69.73063,70.111824,70,38,0
70.111824,70.49302,72,38,0
70.111824,70.49302,60,27,0
70.49302,70.85424,62,28,0
70.49302,70.85424,74,39,0
70.85424,71.239845,77,47,0
70.85424,71.239845,65,30,0
71.239845,71.603134,67,32,0
71.239845,71.603134,79,56,0
71.603134,71.966415,65,26,0
71.603134,71.966415,77,37,0
71.966415,72.338165,74,39,0
71.966415,72.338165,62,28,0
72.338165,72.75327,58,24,0
72.338165,72.75327,70,35,0
72.75327,74.87454,65,34,0
72.75327,74.87454,60,23,0
72.75327,74.87454,57,23,0
74.87454,75.24842,58,30,0
74.87454,75.24842,70,43,0
75.24842,75.6223,72,43,0
75.24842,75.6223,60,30,0
75.6223,75.98352,62,31,0
75.6223,75.98352,74,44,0
75.98352,76.35527,65,34,0
75.98352,76.35527,77,52,0
76.35527,76.71855,79,57,0
76.35527,76.71855,67,36,0
76.71855,77.08184,65,29,0
76.71855,77.08184,77,42,0
77.08184,77.45358,74,44,0
77.08184,77.45358,62,31,0
77.45358,77.855675,58,28,0
77.45358,77.855675,70,39,0
77.855675,79.328156,60,34,0
77.855675,79.328156,65,60,0
77.855675,79.328156,57,27,0
79.328156,79.702034,70,47,0
79.328156,79.702034,58,23,0
79.702034,80.07591,72,49,0
79.702034,80.07591,60,23,0
80.07591,80.43713,74,52,0
80.07591,80.43713,62,25,0
80.43713,80.80673,63,27,0
80.43713,80.80673,75,54,0
80.80673,81.17001,77,58,0
80.80673,81.17001,65,29,0
81.17001,81.5333,66,30,0
81.17001,81.5333,78,62,0
81.5333,81.905045,67,33,0
81.5333,81.905045,79,69,0
81.905045,82.26833,65,29,0
81.905045,82.26833,77,57,0
82.26833,82.635796,76,55,0
82.26833,82.635796,64,28,0
82.635796,83.009674,74,53,0
82.635796,83.009674,62,26,0
83.009674,83.37553,72,50,0
83.009674,83.37553,60,23,0
83.37553,83.7482,74,47,0
83.37553,83.7482,62,23,0
83.7482,84.12428,72,45,0
83.7482,84.12428,60,22,0
84.12428,84.50037,74,42,0
84.12428,84.50037,62,20,0
84.50037,84.86159,76,51,0
84.50037,84.86159,64,30,0
84.86159,85.231186,77,53,0
84.86159,85.231186,65,31,0
85.231186,85.59447,66,34,0
85.231186,85.59447,78,57,0
85.59447,85.957756,67,35,0
85.59447,85.957756,79,62,0
85.957756,86.3295,69,37,0
85.957756,86.3295,81,66,0
86.3295,86.69279,67,34,0
86.3295,86.69279,79,57,0
86.69279,87.0692,77,57,0
86.69279,87.0692,65,34,0
87.0692,87.4629,63,31,0
87.0692,87.4629,75,54,0
87.4629,87.88425,62,28,0
87.4629,87.88425,74,51,0
87.88425,88.35893,60,28,0
87.88425,88.35893,72,47,0
88.35893,88.76357,58,28,0
88.35893,88.76357,70,47,0
88.76357,89.168205,72,42,0
88.76357,89.168205,60,24,0
89.168205,89.5378,62,39,0
89.5378,89.907394,72,50,0
89.907394,90.27699,70,49,0
90.27699,90.6754,69,44,0
89.168205,90.6754,74,47,0
90.6754,91.04499,75,52,0
90.6754,91.04499,67,41,0
91.04499,91.4233,77,55,0
91.04499,91.4233,65,44,0
91.4233,91.7929,63,47,0
91.7929,92.16249,65,43,0
92.16249,92.53209,67,47,0
91.4233,92.53209,79,61,0
92.53209,92.9104,69,38,0
92.53209,92.9104,77,53,0
92.9104,93.288704,70,36,0
92.9104,93.288704,75,51,0
93.288704,93.667015,74,50,0
93.288704,93.667015,71,35,0
94.034485,94.218216,70,47,0
93.667015,94.31008,72,52,0
94.218216,94.31008,72,43,0
94.31008,94.401955,74,43,0
94.401955,94.78711,69,33,0
94.401955,94.78711,72,49,0
94.78711,95.15458,67,31,0
94.78711,95.15458,74,47,0
95.15458,95.52417,65,35,0
95.52417,95.89377,63,39,0
95.15458,95.89377,75,54,0
95.89377,96.26336,62,45,0
96.26336,96.63296,63,47,0
96.63296,97.00255,65,47,0
95.89377,97.00255,77,59,0
97.00255,97.38312,75,46,0
97.00255,97.38312,67,33,0
97.38312,97.76368,68,31,0
97.38312,97.76368,74,47,0
97.76368,98.14425,69,31,0
97.76368,98.14425,72,44,0
98.520325,98.70837,69,39,0
98.14425,98.80239,70,47,0
98.70837,98.80239,70,38,0
98.80239,98.89641,72,37,0
98.89641,99.28157,67,27,0
98.89641,99.28157,70,45,0
99.28157,99.64903,65,28,0
99.28157,99.64903,72,46,0
99.64903,100.025116,63,35,0
100.025116,100.4012,62,31,0
99.64903,100.4012,74,50,0
100.4012,100.77657,60,30,0
100.4012,100.77657,75,51,0
100.77657,101.15444,74,50,0
100.77657,101.15444,62,29,0
101.15444,101.53885,72,48,0
101.15444,101.53885,63,28,0
101.53885,101.93002,70,47,0
101.53885,101.93002,64,28,0
101.93002,102.328255,69,46,0
101.93002,102.328255,65,28,0
102.328255,102.734024,67,44,0
102.328255,102.734024,63,26,0
102.734024,103.15383,65,41,0
102.734024,103.15383,62,23,0
103.15383,103.58014,63,40,0
103.15383,103.58014,60,23,0
103.58014,104.013115,62,39,0
103.58014,104.013115,58,23,0
104.013115,104.4549,60,38,0
104.013115,104.4549,57,22,0
104.46251,104.726234,55,21,0
104.46822,104.73305,58,36,0
104.71721,104.99407,57,31,0
104.71721,104.99407,53,18,0
104.99407,105.28408,55,33,0
104.99407,105.28408,51,19,0
105.28408,105.59096,53,34,0
105.28408,105.59096,50,19,0
105.59096,109.71278,51,38,0
105.59096,109.71278,48,27,0
109.71278,112.46066,58,27,0
109.71278,112.46066,53,27,0
109.71278,112.46066,65,38,0
113.14764,113.4661,77,69,0
113.14764,113.4661,69,49,0
113.14764,113.4661,72,49,0
113.4661,113.62122,74,75,0
113.776344,114.08658,74,69,0
114.08658,114.23628,72,78,0
113.776344,114.38599,70,49,0
114.38599,114.69946,72,69,0
114.69946,115.00341,65,44,0
114.69946,115.00341,70,77,0
114.38599,115.00341,69,49,0
115.00341,115.307365,67,69,0
115.00341,115.307365,64,49,0
115.307365,115.388275,63,69,0
115.46918,115.55009,63,63,0
115.307365,115.63099,72,72,0
115.78938,115.86858,62,62,0
115.63099,115.94778,75,69,0
115.94778,116.10131,74,75,0
116.10131,116.17808,57,60,0
115.63099,116.254845,70,49,0
116.254845,116.33161,62,54,0
116.40837,116.48514,60,60,0
116.254845,116.561905,69,69,0
116.561905,116.71864,70,75,0
116.561905,116.71864,58,54,0
116.87538,117.19727,69,69,0
116.87538,117.19727,60,42,0
117.19727,117.509125,62,49,0
117.19727,117.509125,67,74,0
116.87538,117.509125,65,49,0
117.509125,117.84443,64,69,0
117.509125,117.84443,60,49,0
117.84443,118.03084,65,69,0
118.03084,118.12404,69,58,0
118.21724,118.30603,72,58,0
118.39482,118.483604,65,58,0
118.21724,118.572395,77,75,0
118.572395,118.64877,70,65,0
118.572395,118.72514,74,79,0
118.8779,119.18185,74,72,0
119.18185,119.33617,72,79,0
118.8779,119.490486,70,49,0
119.490486,119.81587,72,69,0
119.81587,120.12137,70,74,0
119.81587,120.12137,65,39,0
119.490486,120.12137,69,49,0
120.12137,120.426865,67,69,0
120.12137,120.426865,64,49,0
120.426865,120.507774,63,69,0
120.58868,120.669586,63,63,0
120.426865,120.75049,72,72,0
120.90888,120.98808,62,59,0
120.75049,121.06728,75,66,0
121.06728,121.22081,74,71,0
121.22081,121.29758,57,57,0
120.75049,121.374344,70,47,0
121.374344,121.45111,62,50,0
121.52788,121.60464,60,56,0
121.374344,121.681404,69,64,0
121.681404,121.83814,58,50,0
121.681404,121.83814,70,70,0
121.99489,122.32027,69,63,0
121.99489,122.32027,60,38,0
122.32027,122.65371,62,44,0
122.32027,122.65371,67,67,0
121.99489,122.65371,65,45,0
122.65371,122.992805,64,61,0
122.992805,123.16235,65,60,0
122.65371,123.16235,60,44,0
123.16235,123.24713,57,44,0
123.33191,123.41668,60,53,0
123.50146,123.58623,53,47,0
123.33191,123.671005,65,53,0
123.671005,123.7502,57,43,0
123.8294,123.90859,48,46,0
123.671005,123.98779,60,51,0
123.98779,124.06699,58,43,0
124.14619,124.22539,56,45,0
123.98779,124.30458,62,51,0
124.30458,124.38378,58,43,0
124.46298,124.542175,54,43,0
124.30458,124.621376,63,51,0
124.621376,124.70361,58,51,0
124.78585,124.86809,51,48,0
124.621376,124.95032,63,61,0
124.95032,125.02828,54,47,0
125.10625,125.18421,46,49,0
124.95032,125.26217,58,56,0
125.26217,125.34013,53,46,0
125.4181,125.496056,51,48,0
125.26217,125.57402,60,57,0
125.57402,125.651985,49,45,0
125.72995,125.80791,56,48,0
125.57402,125.88587,61,56,0
125.88587,125.96856,58,54,0
126.051254,126.13394,51,51,0
125.88587,126.21664,63,64,0
126.21664,126.29379,54,48,0
126.37096,126.44811,46,51,0
126.21664,126.525276,58,57,0
126.525276,126.60243,53,46,0
126.679596,126.75676,51,51,0
126.525276,126.833916,60,55,0
126.833916,126.91108,61,57,0
126.833916,126.91108,49,41,0
126.988235,127.142555,49,51,0
127.142555,127.30129,58,57,0
127.30129,127.46002,51,51,0
127.46002,127.61308,63,59,0
127.61308,127.76614,48,52,0
127.76614,127.924034,60,61,0
127.924034,128.08192,53,57,0
128.08192,128.23344,65,64,0
128.23344,128.38496,50,57,0
128.38496,128.54121,62,68,0
128.54121,128.69746,55,63,0
128.69746,128.84822,67,71,0
128.84822,128.99973,60,64,0
128.99973,129.16512,72,76,0
129.16512,129.33049,65,71,0
129.33049,129.49586,77,80,0
129.49586,129.58908,69,58,0
129.68228,129.7647,72,58,0
129.8471,129.92953,65,58,0
129.68228,130.01195,77,75,0
130.01195,130.08658,70,65,0
130.01195,130.1612,74,79,0
130.31046,130.61752,74,72,0
130.61752,130.76677,72,79,0
130.31046,130.91603,70,49,0
130.91603,131.23792,72,69,0
131.23792,131.54094,65,42,0
131.23792,131.54094,70,73,0
130.91603,131.54094,69,49,0
131.54094,131.84398,64,49,0
131.54094,131.84398,67,69,0
131.84398,131.92488,63,69,0
132.00578,132.08669,63,63,0
131.84398,132.1676,72,72,0
132.32854,132.40901,62,58,0
132.1676,132.48949,75,65,0
132.48949,132.64381,74,70,0
132.64381,132.72096,57,55,0
132.1676,132.79813,70,46,0
132.79813,132.87529,62,52,0
132.95245,133.02962,60,55,0
132.79813,133.10677,69,64,0
133.10677,133.26433,70,68,0
133.10677,133.26433,58,49,0
133.42189,133.74905,69,62,0
133.42189,133.74905,60,36,0
133.74905,134.0762,67,65,0
133.74905,134.0762,62,51,0
133.42189,134.0762,65,38,0
134.0762,134.40515,64,60,0
134.40515,134.56963,65,59,0
134.0762,134.56963,60,42,0
134.56963,134.65186,57,47,0
134.7341,134.81633,60,53,0
134.89857,134.9808,53,47,0
134.7341,135.06305,65,53,0
135.06305,135.141,57,43,0
135.21898,135.29694,48,46,0
135.06305,135.3749,60,51,0
135.3749,135.45287,58,43,0
135.53082,135.60878,56,45,0
135.3749,135.68675,62,51,0
135.68675,135.76471,58,43,0
135.84267,135.92064,54,46,0
135.68675,135.9986,63,51,0
135.9986,136.08084,58,51,0
136.16307,136.24532,51,48,0
135.9986,136.32755,63,61,0
136.32755,136.4055,54,47,0
136.48347,136.56143,46,49,0
136.32755,136.6394,58,56,0
136.6394,136.71736,53,48,0
136.79532,136.87329,51,48,0
136.6394,136.95125,60,57,0
136.95125,137.0292,49,47,0
137.10718,137.18513,56,48,0
136.95125,137.26309,61,56,0
137.26309,137.3458,58,54,0
137.42848,137.51117,51,51,0
137.26309,137.59386,63,64,0
137.59386,137.67181,54,48,0
137.74979,137.82774,46,51,0
137.59386,137.90572,58,57,0
137.90572,137.98367,53,46,0
138.06163,138.1396,51,51,0
137.90572,138.21756,60,55,0
138.21756,138.29552,61,57,0
138.21756,138.29552,49,48,0
138.37349,138.5294,49,51,0
138.5294,138.69122,58,57,0
138.69122,138.85303,51,51,0
138.85303,139.00609,63,59,0
139.00609,139.15916,48,53,0
139.15916,139.31459,60,61,0
139.31459,139.47003,53,57,0
139.47003,139.62155,65,64,0
139.62155,139.77307,50,57,0
139.77307,139.92932,62,67,0
139.92932,140.08557,55,63,0
140.08557,140.23557,67,70,0
140.23557,140.38785,60,63,0
140.38785,140.55324,72,75,0
140.55324,140.71861,65,70,0
140.71861,140.88399,77,78,0
140.88399,140.9772,69,51,0
141.0704,141.15448,72,58,0
141.23856,141.32265,65,58,0
141.0704,141.40672,77,75,0
141.40672,141.48677,70,65,0
141.40672,141.5668,74,79,0
141.7269,142.03874,74,72,0
142.03874,142.1895,72,79,0
141.7269,142.34026,70,49,0
142.34026,142.66388,72,69,0
142.66388,142.97476,70,71,0
142.66388,142.97476,65,44,0
142.34026,142.97476,69,49,0
142.97476,143.28563,64,49,0
142.97476,143.28563,67,69,0
143.28563,143.36655,63,69,0
143.44745,143.52835,63,63,0
143.28563,143.60927,72,72,0
143.76765,143.84685,62,58,0
143.60927,143.92606,75,65,0
143.92606,144.07959,74,70,0
144.07959,144.15634,57,56,0
143.60927,144.23311,70,55,0
144.23311,144.30988,62,53,0
144.38664,144.46341,60,55,0
144.23311,144.54018,69,64,0
144.54018,144.70152,70,69,0
144.54018,144.70152,58,58,0
144.86285,145.20006,60,44,0
144.86285,145.20006,69,62,0
145.20006,145.55229,67,65,0
145.20006,145.55229,62,43,0
144.86285,145.55229,65,44,0
145.55229,145.96512,64,60,0
145.96512,147.05627,65,60,0
145.55229,147.05627,60,43,0
147.05627,147.43015,58,30,0
147.05627,147.43015,70,43,0
147.43015,147.80403,60,30,0
147.43015,147.80403,72,43,0
147.80403,148.16525,62,31,0
147.80403,148.16525,74,44,0
148.16525,148.55844,65,34,0
148.16525,148.55844,77,54,0
148.55844,148.92172,79,58,0
148.55844,148.92172,67,36,0
148.92172,149.285,77,42,0
148.92172,149.285,65,29,0
149.285,149.65675,74,44,0
149.285,149.65675,62,31,0
149.65675,150.07187,58,28,0
149.65675,150.07187,70,39,0
150.07187,151.90198,60,27,0
150.07187,151.90198,57,27,0
150.07187,151.90198,65,38,0
151.90198,152.27585,58,30,0
151.90198,152.27585,70,43,0
152.27585,152.64973,72,43,0
152.27585,152.64973,60,30,0
152.64973,153.01096,62,31,0
152.64973,153.01096,74,44,0
153.01096,153.38101,77,51,0
153.01096,153.38101,65,34,0
153.38101,153.7443,67,36,0
153.38101,153.7443,79,57,0
153.7443,154.10757,77,42,0
153.7443,154.10757,65,29,0
154.10757,154.47932,62,31,0
154.10757,154.47932,74,44,0
154.47932,154.89442,70,39,0
154.47932,154.89442,58,28,0
154.89442,156.7386,60,27,0
154.89442,156.7386,65,38,0
154.89442,156.7386,57,27,0
156.7386,157.11247,58,30,0
156.7386,157.11247,70,43,0
157.11247,157.48636,72,43,0
157.11247,157.48636,60,30,0
157.48636,157.84758,62,37,0
157.84758,158.21718,65,44,0
158.21718,158.58046,67,51,0
158.58046,158.94374,65,43,0
158.94374,159.31549,62,46,0
157.48636,159.50691,74,44,0
159.50691,159.69835,70,53,0
159.31549,159.69835,58,40,0
159.69835,160.05957,65,42,0
160.05957,160.40712,69,45,0
160.40712,160.7704,70,47,0
159.69835,160.95204,77,58,0
160.95204,161.13368,76,57,0
160.7704,161.13368,69,37,0
161.13368,161.50543,65,38,0
161.13368,161.70033,74,62,0
161.70033,161.89525,72,55,0
161.50543,161.89525,60,33,0
161.89525,162.25647,58,40,0
162.25647,162.62607,60,37,0
162.62607,162.98935,69,39,0
161.89525,162.98935,72,59,0
162.98935,163.36992,70,41,0
162.98935,163.36992,67,29,0
163.36992,163.6391,64,31,0
163.36992,163.77368,69,46,0
163.6391,163.93681,60,28,0
163.93681,164.26308,58,28,0
163.77368,164.26308,67,41,0
164.26308,164.55711,56,29,0
164.53983,164.83386,57,27,0
164.81656,165.0933,58,27,0
165.0933,166.27596,57,29,0
164.26308,166.67017,65,42,0
167.4051,167.77257,56,49,0
167.77257,168.12585,58,41,0
168.12585,168.4811,67,45,0
168.4811,168.84856,65,37,0
168.84856,169.21815,60,43,0
169.21815,169.58774,58,37,0
167.4051,169.58774,70,49,0
169.58774,169.95734,56,49,0
169.95734,170.31657,58,41,0
170.31657,170.67581,65,49,0
170.67581,171.04541,63,38,0
171.04541,171.41501,60,46,0
171.41501,171.79837,58,38,0
169.58774,171.79837,70,49,0
171.79837,172.16374,56,54,0
172.16374,172.5291,64,47,0
171.79837,172.5291,70,54,0
172.5291,172.89445,56,57,0
172.89445,173.25983,65,52,0
172.5291,173.25983,70,57,0
173.25983,173.63446,56,59,0
173.63446,174.00195,66,54,0
174.00195,174.41707,56,65,0
174.41707,174.79315,68,50,0
174.79315,175.16922,55,54,0
175.16922,175.56763,67,47,0
173.25983,175.56763,70,59,0
175.56763,175.933,75,54,0
175.56763,175.933,63,38,0
175.933,176.30908,65,41,0
175.933,176.30908,77,58,0
176.30908,176.67894,67,64,0
176.67894,177.04852,75,45,0
177.04852,177.40776,77,48,0
177.40776,177.69664,75,45,0
176.30908,177.79292,79,64,0
177.79292,178.16252,77,52,0
177.69664,178.16252,72,52,0
178.16252,178.54536,67,45,0
178.16252,178.54536,75,45,0
178.54536,178.91925,62,56,0
178.91925,179.28671,70,42,0
179.28671,179.65417,72,46,0
179.65417,179.93625,70,43,0
178.54536,180.03026,74,56,0
179.93625,180.39986,67,52,0
180.39986,180.797,62,46,0
180.03026,180.797,70,52,0
180.797,181.17757,67,50,0
181.17757,181.55144,75,45,0
181.55144,181.91891,77,48,0
180.797,181.91891,79,59,0
181.91891,182.30176,75,43,0
181.91891,182.30176,79,48,0
182.30176,182.67351,72,45,0
182.30176,182.86609,77,54,0
182.86609,183.05867,75,52,0
182.67351,183.05867,67,48,0
183.05867,183.43474,62,54,0
183.43474,183.80649,70,45,0
183.80649,184.17824,72,49,0
184.17824,184.55655,70,46,0
183.05867,184.55655,74,54,0
184.55655,184.94171,67,47,0
184.55655,184.94171,62,33,0
184.94171,185.32686,69,42,0
184.94171,185.32686,60,30,0
185.32686,185.68831,70,50,0
185.32686,185.68831,58,31,0
185.68831,186.04955,72,48,0
185.68831,186.04955,69,34,0
186.04955,186.41913,74,51,0
186.04955,186.41913,67,36,0
186.41913,186.78873,65,38,0
186.41913,186.78873,76,53,0
186.78873,187.16481,64,39,0
186.78873,187.16481,77,56,0
187.16481,187.54651,74,42,0
187.16481,187.54651,79,59,0
187.54651,187.91399,72,43,0
187.54651,187.91399,81,60,0
187.91399,188.27983,79,58,0
187.91399,188.27983,76,41,0
188.27983,188.65251,77,56,0
188.27983,188.65251,69,39,0
188.65251,189.02518,76,54,0
188.65251,189.02518,72,37,0
189.02518,189.39784,67,35,0
189.02518,189.39784,74,51,0
189.39784,189.783,69,35,0
189.39784,189.783,72,49,0
189.783,190.15909,64,33,0
189.783,190.15909,70,47,0
190.15909,190.53517,65,28,0
190.15909,190.53517,69,40,0
190.53517,190.91125,67,46,0
190.53517,190.91125,61,33,0
190.91125,191.28732,65,40,0
190.91125,191.28732,62,28,0
191.28732,191.67018,63,32,0
191.28732,191.67018,69,45,0
191.67018,192.05302,64,28,0
191.67018,192.05302,67,40,0
192.05302,192.46008,65,43,0
192.05302,192.46008,60,31,0
192.46008,192.90651,66,34,0
192.46008,192.90651,63,23,0
192.90651,193.15569,60,23,0
192.90651,193.15569,67,33,0
193.15569,193.40485,68,28,0
193.15569,193.40485,63,19,0
193.40485,193.6694,69,33,0
193.40485,193.6694,62,23,0
193.6694,193.99304,65,28,0
193.6694,193.99304,60,19,0
194.10094,194.47481,70,38,0
194.10094,194.47481,58,27,0
194.47481,194.8487,60,27,0
194.47481,194.8487,72,38,0
194.8487,195.20992,74,39,0
194.8487,195.20992,62,28,0
195.20992,195.57997,65,30,0
195.20992,195.57997,77,48,0
195.57997,195.94325,67,32,0
195.57997,195.94325,79,54,0
195.94325,196.30653,65,26,0
195.94325,196.30653,77,37,0
196.30653,196.67828,74,39,0
196.30653,196.67828,62,28,0
196.67828,197.09338,58,24,0
196.67828,197.09338,70,35,0
197.09338,199.17781,65,34,0
197.09338,199.17781,60,23,0
197.09338,199.17781,57,23,0
199.17781,199.55168,70,43,0
199.17781,199.55168,58,30,0
199.55168,199.92557,72,43,0
199.55168,199.92557,60,30,0
199.92557,200.28679,62,31,0
199.92557,200.28679,74,44,0
200.28679,200.65457,77,54,0
200.28679,200.65457,65,34,0
200.65457,201.01787,79,57,0
200.65457,201.01787,67,36,0
201.01787,201.38115,65,29,0
201.01787,201.38115,77,42,0
201.38115,201.75288,62,31,0
201.38115,201.75288,74,44,0
201.75288,202.15498,70,39,0
201.75288,202.15498,58,28,0
202.15498,203.64197,65,50,0
202.15498,203.64197,57,27,0
202.15498,203.64197,60,27,0
203.64197,204.01585,58,33,0
203.64197,204.01585,70,47,0
204.01585,204.38972,60,34,0
204.01585,204.38972,72,49,0
204.38972,204.75096,62,36,0
204.38972,204.75096,74,51,0
204.75096,205.12054,75,53,0
204.75096,205.12054,63,37,0
205.12054,205.48384,65,40,0
205.12054,205.48384,77,57,0
205.48384,205.84712,66,42,0
205.48384,205.84712,78,62,0
205.84712,206.21887,67,47,0
205.84712,206.21887,79,68,0
206.21887,206.58215,65,40,0
206.21887,206.58215,77,57,0
206.58215,206.94962,76,55,0
206.58215,206.94962,64,39,0
206.94962,207.3235,62,37,0
206.94962,207.3235,74,53,0
207.3235,207.69159,72,50,0
207.3235,207.69159,60,34,0
207.69159,208.0597,62,33,0
207.69159,208.0597,74,47,0
208.0597,208.43578,60,32,0
208.0597,208.43578,72,45,0
208.43578,208.81186,74,42,0
208.43578,208.81186,62,29,0
208.81186,209.17308,64,36,0
208.81186,209.17308,76,51,0
209.17308,209.54268,77,52,0
209.17308,209.54268,65,37,0
209.54268,209.90596,78,58,0
209.54268,209.90596,66,39,0
209.90596,210.26924,79,60,0
209.90596,210.26924,67,40,0
210.26924,210.64099,69,43,0
210.26924,210.64099,81,64,0
210.64099,211.00427,67,39,0
210.64099,211.00427,79,55,0
211.00427,211.37834,65,39,0
211.00427,211.37834,77,55,0
211.37834,211.76947,75,53,0
211.37834,211.76947,63,37,0
211.76947,212.1938,74,50,0
211.76947,212.1938,62,34,0
212.1938,212.68399,72,47,0
212.1938,212.68399,60,33,0
212.68399,213.08864,58,33,0
212.68399,213.08864,70,47,0
213.08864,213.49327,72,42,0
213.08864,213.49327,60,29,0
213.49327,213.86287,62,39,0
213.86287,214.23247,72,52,0
214.23247,214.60207,70,49,0
214.60207,215.00047,69,44,0
213.49327,215.00047,74,47,0
215.00047,215.37006,67,34,0
215.00047,215.37006,75,49,0
215.37006,215.74837,65,37,0
215.37006,215.74837,77,52,0
215.74837,216.11797,63,47,0
216.11797,216.48756,65,43,0
216.48756,216.85716,67,47,0
215.74837,216.85716,79,56,0
216.85716,217.23546,69,38,0
216.85716,217.23546,77,53,0
217.23546,217.60583,75,51,0
217.23546,217.60583,70,36,0
217.60583,217.9785,71,35,0
217.60583,217.9785,74,50,0
218.34598,218.71344,70,49,0
217.9785,218.71344,72,52,0
218.71344,219.0986,69,33,0
218.71344,219.0986,72,49,0
219.0986,219.46606,67,31,0
219.0986,219.46606,74,48,0
219.46606,219.83566,65,42,0
219.83566,220.20526,63,47,0
219.46606,220.20526,75,50,0
220.20526,220.57484,62,45,0
220.57484,220.94444,63,47,0
220.94444,221.31404,65,47,0
220.20526,221.31404,77,54,0
221.31404,221.69461,75,46,0
221.31404,221.69461,67,33,0
221.69461,222.07516,74,47,0
221.69461,222.07516,68,33,0
222.07516,222.45573,72,44,0
222.07516,222.45573,69,31,0
222.83182,223.01985,69,39,0
222.45573,223.11388,70,47,0
223.01985,223.11388,70,38,0
223.11388,223.2079,72,37,0
223.2079,223.59306,70,48,0
223.2079,223.59306,67,27,0
223.59306,223.96053,72,49,0
223.59306,223.96053,65,28,0
223.96053,224.33661,63,50,0
224.33661,224.71269,62,44,0
223.96053,224.71269,74,51,0
224.71269,225.08806,75,51,0
224.71269,225.08806,60,30,0
225.08806,225.46593,62,29,0
225.08806,225.46593,74,50,0
225.46593,225.85034,72,48,0
225.46593,225.85034,63,28,0
225.85034,226.24152,64,28,0
225.85034,226.24152,70,47,0
226.24152,226.63974,65,28,0
226.24152,226.63974,69,46,0
226.63974,227.04552,63,26,0
226.63974,227.04552,67,44,0
227.04552,227.46532,65,41,0
227.04552,227.46532,62,23,0
227.46532,227.89163,60,23,0
227.46532,227.89163,63,40,0
227.89163,228.3246,62,39,0
227.89163,228.3246,58,23,0
228.3246,228.76639,57,22,0
228.3246,228.76639,60,38,0
228.76639,229.0287,58,36,0
228.76639,229.0287,55,21,0
229.0287,229.30557,57,31,0
229.0287,229.30557,53,18,0
229.30557,229.59557,51,19,0
229.30557,229.59557,55,33,0
229.59557,229.90245,53,34,0
229.59557,229.90245,50,19,0
229.90245,234.02428,48,22,0
229.90245,234.02428,51,38,0
234.02428,236.08519,65,38,0
234.02428,236.08519,58,27,0
234.02428,236.08519,53,27,0
236.90489,237.03764,51,41,0
237.03764,237.17038,58,48,0
236.77216,237.17038,63,48,0
237.17038,237.30313,62,37,0
237.43587,237.56453,51,40,0
237.56453,237.68686,57,40,0
237.30313,237.68686,60,49,0
237.68686,237.80827,60,40,0
237.92877,238.04837,69,40,0
238.04837,238.1671,72,46,0
238.1671,238.28604,75,51,0
237.80827,238.28604,63,47,0
238.4188,238.55153,62,46,0
238.55153,238.68428,69,54,0
238.28604,238.68428,74,60,0
238.68428,238.81702,72,52,0
238.94977,239.08104,62,51,0
239.08104,239.20381,67,52,0
238.81702,239.32571,70,58,0
239.20381,239.32571,70,52,0
239.44681,239.56711,79,49,0
239.56711,239.68652,82,59,0
239.68652,239.86299,86,63,0
239.32571,239.86299,74,62,0
239.99574,240.12848,48,40,0
240.12848,240.26123,55,40,0
239.86299,240.26123,60,52,0
240.26123,240.39397,58,44,0
240.52672,240.65945,48,36,0
240.65945,240.78317,53,36,0
240.39397,240.78317,57,51,0
240.78317,240.90585,57,36,0
241.02782,241.14894,65,40,0
241.14894,241.26932,69,46,0
241.26932,241.3896,72,51,0
240.90585,241.3896,60,47,0
241.52235,241.65509,58,44,0
241.65509,241.78784,65,48,0
241.3896,241.78784,70,60,0
241.78784,241.92058,69,52,0
242.05331,242.18475,58,48,0
242.18475,242.30853,63,48,0
241.92058,242.43144,67,58,0
242.30853,242.43144,67,48,0
242.55351,242.67479,75,49,0
242.67479,242.79517,79,59,0
242.79517,242.97163,82,63,0
242.43144,242.97163,70,62,0
243.1015,243.23137,45,39,0
243.23137,243.36124,51,39,0
242.97163,243.36124,57,54,0
243.36124,243.49112,55,44,0
243.62099,243.75085,45,39,0
243.75085,243.87413,50,39,0
243.49112,243.87413,54,55,0
243.87413,243.99643,54,39,0
244.11801,244.2388,62,44,0
244.2388,244.35895,66,50,0
243.99643,244.4981,57,51,0
244.35895,244.4981,57,56,0
244.62741,244.75671,57,50,0
244.75671,244.88603,64,50,0
244.4981,244.88603,69,59,0
244.88603,245.01534,67,52,0
245.14465,245.27316,57,50,0
245.27316,245.39694,62,50,0
245.01534,245.39694,66,59,0
245.39694,245.51999,66,50,0
245.6422,245.7636,74,57,0
245.7636,245.88423,78,66,0
245.51999,246.02284,69,67,0
245.88423,246.02284,69,73,0
246.15051,246.27817,69,61,0
246.27817,246.40582,76,63,0
246.02284,246.40582,81,67,0
246.40582,246.5335,79,67,0
246.66115,246.7888,69,62,0
246.7888,246.91484,74,67,0
246.5335,246.91484,78,74,0
246.91484,247.04024,78,71,0
247.16502,247.28917,86,68,0
247.28917,247.4127,90,71,0
247.04024,247.53554,81,75,0
247.4127,247.53554,81,73,0
247.66429,247.79305,81,72,0
247.79305,247.9252,88,70,0
247.53554,247.9252,93,78,0
247.9252,248.05736,91,74,0
248.05736,248.32167,90,81,0
248.57312,249.05699,81,77,0
248.57312,249.05699,78,77,0
248.57312,249.05699,86,77,0
249.35101,249.48376,51,41,0
249.48376,249.6165,58,48,0
249.21828,249.6165,63,48,0
249.6165,249.74925,62,37,0
249.88199,250.01312,51,40,0
250.01312,250.1349,57,40,0
249.74925,250.1349,60,49,0
250.1349,250.25595,60,40,0
250.37619,250.4958,69,40,0
250.4958,250.61469,72,46,0
250.61469,250.73387,75,51,0
250.25595,250.73387,63,47,0
250.86661,250.99934,62,46,0
250.99934,251.1321,69,54,0
250.73387,251.1321,74,60,0
251.1321,251.26483,72,52,0
251.39758,251.52893,62,51,0
251.52893,251.65204,67,52,0
251.26483,251.77406,70,58,0
251.65204,251.77406,70,52,0
251.89505,252.01501,79,49,0
252.01501,252.13391,82,59,0
252.13391,252.31038,86,63,0
251.77406,252.31038,74,62,0
252.44312,252.57587,48,40,0
252.57587,252.7086,55,40,0
252.31038,252.7086,60,52,0
252.7086,252.84135,58,44,0
252.97409,253.10684,48,36,0
253.10684,253.23012,53,36,0
252.84135,253.23012,57,51,0
253.23012,253.35242,57,36,0
253.47414,253.59505,65,40,0
253.59505,253.71536,69,46,0
253.71536,253.8351,72,51,0
253.35242,253.8351,60,47,0
253.96783,254.10059,58,44,0
254.10059,254.23332,65,48,0
253.8351,254.23332,70,60,0
254.23332,254.36607,69,52,0
254.49881,254.63008,58,48,0
254.63008,254.75285,63,48,0
254.36607,254.87503,67,58,0
254.75285,254.87503,67,48,0
254.99661,255.11754,75,49,0
255.11754,255.23785,79,59,0
255.23785,255.41432,82,63,0
254.87503,255.41432,70,62,0
255.54419,255.67406,45,39,0
255.67406,255.80392,51,39,0
255.41432,255.80392,57,54,0
255.80392,255.9338,55,44,0
256.06366,256.19266,45,39,0
256.19266,256.31644,50,39,0
255.9338,256.31644,54,55,0
256.31644,256.43964,54,39,0
256.5622,256.6841,62,44,0
256.6841,256.8054,66,50,0
256.43964,256.92642,57,51,0
256.8054,256.92642,57,56,0
257.05573,257.18503,57,50,0
257.18503,257.31433,64,50,0
256.92642,257.31433,69,59,0
257.31433,257.44366,67,52,0
257.57297,257.70227,57,50,0
257.70227,257.82675,62,50,0
257.44366,257.82675,66,59,0
257.82675,257.95016,66,50,0
258.07263,258.1939,74,57,0
258.1939,258.3143,78,66,0
257.95016,258.43442,69,67,0
258.3143,258.43442,69,73,0
258.5621,258.68976,69,61,0
258.68976,258.8174,76,63,0
258.43442,258.8174,81,67,0
258.8174,258.94507,79,67,0
259.07272,259.20038,69,62,0
259.20038,259.32642,74,67,0
258.94507,259.32642,78,74,0
259.32642,259.4518,78,71,0
259.5766,259.70074,86,68,0
259.70074,259.82428,90,71,0
259.4518,259.9471,81,75,0
259.82428,259.9471,81,73,0
260.07587,260.20462,81,72,0
260.20462,260.3368,88,70,0
259.9471,260.3368,93,78,0
260.3368,260.46893,91,74,0
260.46893,260.73325,90,81,0
260.9847,261.46597,86,77,0
260.9847,261.46597,78,65,0
260.9847,261.46597,81,65,0
261.75916,261.8919,50,41,0
261.8919,262.02463,56,48,0
261.6264,262.02463,62,48,0
262.02463,262.15738,60,37,0
262.29013,262.42288,51,41,0
262.42288,262.55054,56,49,0
262.15738,262.55054,58,49,0
262.55054,262.67538,58,53,0
262.79688,262.91675,52,40,0
262.91675,263.03506,58,46,0
262.67538,263.03506,67,63,0
263.03506,263.1533,67,51,0
263.28604,263.41876,53,41,0
263.41876,263.5515,58,52,0
263.1533,263.5515,65,57,0
263.5515,263.68427,63,37,0
263.81702,263.94974,55,41,0
263.94974,264.0688,58,53,0
263.68427,264.0688,62,53,0
264.0688,264.18875,62,57,0
264.30972,264.42993,56,41,0
264.42993,264.5493,62,47,0
264.18875,264.5493,68,67,0
264.5493,264.6679,68,53,0
264.80063,264.93338,56,42,0
264.93338,265.06613,62,53,0
264.6679,265.06613,67,56,0
265.06613,265.19888,65,38,0
265.3316,265.46436,58,51,0
265.46436,265.5948,61,55,0
265.19888,265.5948,64,50,0
265.5948,265.7237,64,64,0
265.84647,265.96777,61,44,0
265.96777,266.08762,64,50,0
265.7237,266.08762,70,71,0
266.08762,266.20605,70,56,0
266.3388,266.47153,61,45,0
266.47153,266.60428,64,56,0
266.20605,266.60428,68,67,0
266.60428,266.73703,67,40,0
266.86978,267.0025,60,49,0
267.0025,267.13126,63,56,0
266.73703,267.13126,66,58,0
267.13126,267.25916,66,62,0
267.38098,267.50198,63,47,0
267.50198,267.622,66,54,0
267.25916,267.622,72,71,0
267.622,267.74118,72,59,0
267.8739,268.00665,63,48,0
268.00665,268.1394,66,60,0
267.74118,268.1394,70,62,0
268.1394,268.27216,69,42,0
268.40488,268.53763,62,53,0
268.53763,268.6581,65,61,0
268.27216,268.6581,68,65,0
268.6581,268.7793,69,66,0
268.90167,269.02277,65,52,0
269.02277,269.1427,69,60,0
268.7793,269.1427,74,76,0
269.1427,269.2614,74,66,0
269.39413,269.5269,65,53,0
269.5269,269.65964,69,67,0
269.2614,269.65964,72,73,0
269.65964,269.7924,71,55,0
269.9251,270.05786,64,58,0
270.05786,270.17786,67,66,0
269.7924,270.17786,70,69,0
270.17786,270.29785,70,69,0
270.41885,270.54025,67,58,0
270.54025,270.66037,70,67,0
270.29785,270.66037,76,79,0
270.66037,270.78027,76,73,0
270.913,271.04575,67,59,0
271.04575,271.1785,70,70,0
270.78027,271.1785,74,69,0
271.1785,271.31122,73,51,0
271.44397,271.57672,65,62,0
271.57672,271.70276,69,68,0
271.31122,271.70276,74,73,0
271.70276,271.82816,74,73,0
271.95294,272.0771,62,59,0
272.0771,272.20062,67,68,0
271.82816,272.20062,70,82,0
272.20062,272.32346,70,75,0
272.4459,272.56833,61,53,0
272.56833,272.6908,64,59,0
272.32346,272.6908,69,82,0
272.6908,272.82355,69,75,0
272.94598,273.06842,62,53,0
273.06842,273.1909,69,59,0
272.82355,273.1909,74,82,0
273.1909,273.31332,72,75,0
273.4358,273.55823,61,55,0
273.55823,273.68066,64,59,0
273.31332,273.68066,70,82,0
273.68066,273.8146,69,75,0
273.93655,274.0585,62,54,0
274.0585,274.18045,69,59,0
273.8146,274.18045,74,82,0
274.18045,274.3024,72,75,0
274.42438,274.54633,61,55,0
274.54633,274.66827,64,59,0
274.3024,274.66827,70,82,0
274.66827,274.801,69,75,0
274.92245,275.0439,62,54,0
275.0439,275.16537,69,59,0
274.801,275.16537,74,82,0
275.16537,275.28683,72,75,0
275.4083,275.52975,62,53,0
275.52975,275.6512,64,59,0
275.28683,275.6512,70,82,0
275.6512,275.77267,67,75,0
275.89413,276.0156,61,54,0
276.0156,276.13705,64,59,0
275.77267,276.13705,69,82,0
276.13705,276.30652,69,75,0
276.4342,276.56186,54,54,0
276.56186,276.6895,57,59,0
276.30652,276.6895,62,82,0
276.6895,276.81717,60,75,0
276.9476,277.07803,50,54,0
277.07803,277.21692,54,59,0
276.81717,277.21692,58,82,0
277.21692,277.40097,57,80,0
277.53372,277.66647,51,61,0
277.66647,277.7992,58,70,0
277.40097,277.7992,63,65,0
277.7992,277.93195,62,53,0
278.0647,278.19714,51,47,0
278.19714,278.32034,57,50,0
277.93195,278.32034,60,75,0
278.32034,278.4425,60,50,0
278.5636,278.68365,69,50,0
278.68365,278.8027,72,57,0
278.8027,278.92188,75,63,0
278.4425,278.92188,63,58,0
279.05463,279.18738,62,57,0
279.18738,279.3201,69,64,0
278.92188,279.3201,74,75,0
279.3201,279.45285,72,52,0
279.5856,279.71802,62,57,0
279.71802,279.84085,67,65,0
279.45285,279.96307,70,72,0
279.84085,279.96307,70,59,0
280.08472,280.20575,79,61,0
280.20575,280.3261,82,73,0
280.3261,280.5026,86,78,0
279.96307,280.5026,74,77,0
280.63535,280.76807,48,50,0
280.76807,280.90082,55,50,0
280.5026,280.90082,60,70,0
280.90082,281.03357,58,61,0
281.16632,281.29904,48,45,0
281.29904,281.42352,53,45,0
281.03357,281.42352,57,71,0
281.42352,281.54675,57,39,0
281.6691,281.79047,65,50,0
281.79047,281.91095,69,57,0
281.91095,282.03055,72,63,0
281.54675,282.03055,60,58,0
282.1633,282.29602,58,55,0
282.29602,282.42877,65,60,0
282.03055,282.42877,70,75,0
282.42877,282.56152,69,65,0
282.69427,282.82437,58,54,0
282.82437,282.9478,63,60,0
282.56152,283.07034,67,72,0
282.9478,283.07034,67,55,0
283.19193,283.31262,75,61,0
283.31262,283.43237,79,73,0
283.43237,283.60886,82,78,0
283.07034,283.60886,70,77,0
283.7387,283.8686,45,45,0
283.8686,283.99844,51,48,0
283.60886,283.99844,57,67,0
283.99844,284.12833,55,55,0
284.2582,284.38785,45,45,0
284.38785,284.5112,50,48,0
284.12833,284.5112,54,68,0
284.5112,284.6339,54,42,0
284.7559,284.87704,62,55,0
284.87704,284.99753,66,62,0
284.99753,285.1367,69,70,0
284.6339,285.1367,57,63,0
285.266,285.3953,62,62,0
285.3953,285.52463,69,62,0
285.1367,285.52463,74,73,0
285.52463,285.65393,72,65,0
285.78323,285.91235,62,56,0
285.91235,286.03555,67,62,0
285.65393,286.03555,70,73,0
286.03555,286.1578,70,55,0
286.27914,286.39957,79,71,0
286.39957,286.51895,82,75,0
286.51895,286.65756,86,79,0
286.1578,286.65756,74,77,0
286.78522,286.91287,55,66,0
286.91287,287.04056,62,69,0
286.65756,287.04056,67,77,0
287.04056,287.1682,65,75,0
287.29587,287.42352,55,71,0
287.42352,287.5496,60,76,0
287.1682,287.5496,63,79,0
287.5496,287.6763,63,78,0
287.80408,287.93295,72,68,0
287.93295,288.07788,75,71,0
288.07788,288.2159,79,73,0
287.6763,288.26193,67,82,0
288.26193,288.8175,72,68,0
288.26193,288.8175,69,68,0
288.26193,288.8175,78,81,0
288.8175,289.7897,74,71,0
288.8175,289.7897,70,60,0
288.8175,289.7897,79,84,0
290.06134,290.1941,50,41,0
290.1941,290.32684,56,48,0
289.92862,290.32684,62,48,0
290.32684,290.45956,60,37,0
290.59232,290.72507,51,41,0
290.72507,290.85272,56,49,0
290.45956,290.85272,58,49,0
290.85272,290.9776,58,53,0
291.0991,291.21893,52,40,0
291.21893,291.33728,58,46,0
290.9776,291.33728,67,63,0
291.33728,291.45547,67,51,0
291.58823,291.72098,53,41,0
291.72098,291.8537,58,52,0
291.45547,291.8537,65,57,0
291.8537,291.98645,63,37,0
292.1192,292.25195,55,41,0
292.25195,292.371,58,53,0
291.98645,292.371,62,53,0
292.371,292.49094,62,52,0
292.61194,292.73215,56,41,0
292.73215,292.8515,62,47,0
292.49094,292.8515,68,67,0
292.8515,292.9701,68,53,0
293.10284,293.2356,56,42,0
293.2356,293.36832,62,53,0
292.9701,293.36832,67,56,0
293.36832,293.50107,65,38,0
293.63382,293.76657,58,46,0
293.76657,293.897,61,55,0
293.50107,293.897,64,50,0
293.897,294.02588,64,64,0
294.14868,294.27,61,44,0
294.27,294.38983,64,50,0
294.02588,294.38983,70,71,0
294.38983,294.50824,70,56,0
294.641,294.77374,61,45,0
294.77374,294.9065,64,47,0
294.50824,294.9065,68,67,0
294.9065,295.0392,67,40,0
295.17197,295.30472,60,49,0
295.30472,295.43347,63,56,0
295.0392,295.43347,66,58,0
295.43347,295.56134,66,62,0
295.6832,295.80417,63,47,0
295.80417,295.9242,66,54,0
295.56134,295.9242,72,71,0
295.9242,296.04337,72,59,0
296.17612,296.30887,63,48,0
296.30887,296.4416,66,56,0
296.04337,296.4416,70,62,0
296.4416,296.57434,69,42,0
296.7071,296.83984,62,50,0
296.83984,296.9603,65,61,0
296.57434,296.9603,68,65,0
296.9603,297.08148,69,60,0
297.20386,297.32498,65,52,0
297.32498,297.4449,69,60,0
297.08148,297.4449,74,76,0
297.4449,297.5636,74,66,0
297.69635,297.8291,65,53,0
297.8291,297.96182,69,57,0
297.5636,297.96182,72,73,0
297.96182,298.09457,71,46,0
298.22733,298.36008,64,58,0
298.36008,298.48007,67,66,0
298.09457,298.48007,70,69,0
298.48007,298.60007,70,69,0
298.72107,298.84244,67,58,0
298.84244,298.9626,70,67,0
298.60007,298.9626,76,79,0
298.9626,299.08246,76,73,0
299.2152,299.34793,67,59,0
299.34793,299.48068,70,70,0
299.08246,299.48068,74,69,0
299.48068,299.61343,73,51,0
299.7462,299.8789,65,62,0
299.8789,300.00494,69,68,0
299.61343,300.00494,74,73,0
300.00494,300.13034,74,73,0
300.25513,300.37927,62,59,0
300.37927,300.5028,67,68,0
300.13034,300.5028,70,82,0
300.5028,300.62564,70,75,0
300.7481,300.87054,61,55,0
300.87054,300.99298,64,59,0
300.62564,300.99298,69,82,0
300.99298,301.12573,69,75,0
301.24817,301.37064,62,53,0
301.37064,301.49307,69,59,0
301.12573,301.49307,74,82,0
301.49307,301.61554,72,75,0
301.73798,301.86044,61,55,0
301.86044,301.98288,64,59,0
301.61554,301.98288,70,82,0
301.98288,302.1168,69,75,0
302.23877,302.36072,62,53,0
302.36072,302.48267,69,59,0
302.1168,302.48267,74,82,0
302.48267,302.6046,72,75,0
302.72656,302.8485,61,54,0
302.8485,302.97046,64,59,0
302.6046,302.97046,70,82,0
302.97046,303.1032,69,75,0
303.22467,303.34613,62,53,0
303.34613,303.4676,69,59,0
303.1032,303.4676,74,82,0
303.4676,303.58905,72,75,0
303.71048,303.83194,62,54,0
303.83194,303.9534,64,59,0
303.58905,303.9534,70,82,0
303.9534,304.07486,67,75,0
304.19632,304.31778,61,54,0
304.31778,304.43924,64,59,0
304.07486,304.43924,69,82,0
304.43924,304.60873,69,75,0
304.7364,304.86404,54,56,0
304.86404,304.9917,57,59,0
304.60873,304.9917,62,82,0
304.9917,305.11935,60,75,0
305.24982,305.38025,50,54,0
305.38025,305.51913,54,59,0
305.11935,305.51913,58,82,0
305.51913,305.7032,57,80,0
305.8359,305.96866,51,61,0
305.96866,306.1014,58,70,0
305.7032,306.1014,63,65,0
306.1014,306.23416,62,53,0
306.36688,306.49927,51,47,0
306.49927,306.62097,57,50,0
306.23416,306.62097,60,75,0
306.62097,306.74176,60,42,0
306.86163,306.98062,69,50,0
306.98062,307.09872,72,57,0
307.09872,307.2172,75,63,0
306.74176,307.2172,63,58,0
307.3499,307.48267,62,57,0
307.48267,307.61542,69,65,0
307.2172,307.61542,74,75,0
307.61542,307.74817,72,57,0
307.8809,308.01334,62,57,0
308.01334,308.1364,67,65,0
307.74817,308.2583,70,72,0
308.1364,308.2583,70,65,0
308.37897,308.4984,79,61,0
308.4984,308.61664,82,73,0
308.61664,308.79312,86,78,0
308.2583,308.79312,74,77,0
308.92587,309.0586,48,50,0
309.0586,309.19135,55,43,0
308.79312,309.19135,60,70,0
309.19135,309.3241,58,61,0
309.45685,309.58923,48,40,0
309.58923,309.71158,53,45,0
309.3241,309.71158,57,71,0
309.71158,309.8331,57,45,0
309.9537,310.07355,65,50,0
310.07355,310.1926,69,57,0
310.1926,310.3108,72,63,0
309.8331,310.3108,60,58,0
310.4435,310.57626,58,55,0
310.57626,310.709,65,60,0
310.3108,310.709,70,75,0
310.709,310.84177,69,65,0
310.9745,311.104,58,55,0
311.104,311.2257,63,60,0
310.84177,311.34674,67,72,0
311.2257,311.34674,67,53,0
311.46704,311.58664,75,61,0
311.58664,311.70544,79,73,0
311.70544,311.88193,82,78,0
311.34674,311.88193,70,77,0
312.01178,312.14166,45,48,0
312.14166,312.2715,51,48,0
311.88193,312.2715,57,67,0
312.2715,312.4014,55,55,0
312.53128,312.66092,45,44,0
312.66092,312.78375,50,48,0
312.4014,312.78375,54,68,0
312.78375,312.90598,54,44,0
313.02756,313.14838,62,55,0
313.14838,313.26862,66,62,0
313.26862,313.38885,69,70,0
312.90598,313.38885,57,63,0
313.51816,313.64746,62,57,0
313.64746,313.77676,69,62,0
313.38885,313.77676,74,73,0
313.77676,313.9061,72,65,0
314.0354,314.1647,62,58,0
314.1647,314.288,67,62,0
313.9061,314.288,70,73,0
314.288,314.40988,70,56,0
314.53116,314.65186,79,71,0
314.65186,314.77197,82,75,0
314.77197,314.89218,86,79,0
314.40988,314.89218,74,77,0
315.01987,315.14752,55,66,0
315.14752,315.27518,62,69,0
314.89218,315.27518,67,77,0
315.27518,315.40283,65,75,0
315.5305,315.65814,55,71,0
315.65814,315.7842,60,76,0
315.40283,315.7842,63,79,0
315.7842,315.91092,63,78,0
316.0387,316.16757,72,68,0
316.16757,316.3125,75,71,0
316.3125,316.45056,79,73,0
315.91092,316.49655,67,82,0
316.49655,317.05212,72,68,0
316.49655,317.05212,69,68,0
316.49655,317.05212,78,81,0
317.05212,318.1892,79,84,0
317.05212,318.1892,70,60,0
317.05212,318.1892,74,71,0
318.42175,318.79837,61,47,0
318.79837,319.17496,62,47,0
319.17496,319.55154,63,50,0
319.55154,319.95575,64,45,0
318.42175,319.95575,58,42,0
318.42175,319.95575,67,50,0
319.95575,320.33237,57,47,0
319.95575,320.33237,65,51,0
320.33237,320.721,64,48,0
320.33237,320.721,55,44,0
319.95575,320.721,61,39,0
320.721,321.09763,62,52,0
320.721,321.09763,53,48,0
321.09763,321.4742,64,47,0
321.4742,321.85083,61,53,0
321.09763,321.85083,52,43,0
321.85083,322.22742,62,44,0
321.85083,322.98062,50,40,0
322.98062,323.3572,49,45,0
323.3572,323.73383,50,41,0
323.73383,324.1104,51,48,0
324.1104,324.52008,52,39,0
322.22742,324.52008,58,50,0
324.91327,325.30646,55,44,0
325.30646,325.7302,53,51,0
324.52008,325.7302,57,50,0
326.12338,326.54413,52,36,0
325.7302,326.54413,55,37,0
325.30646,326.54413,50,39,0
326.54413,326.96487,49,36,0
326.54413,326.96487,53,47,0
326.96487,327.90533,50,39,0
327.90533,328.28192,61,44,0
328.28192,328.65854,62,43,0
328.65854,329.03513,63,46,0
329.03513,329.43933,64,41,0
327.90533,329.43933,67,50,0
327.90533,329.43933,58,42,0
329.43933,329.81592,57,47,0
329.43933,329.81592,65,47,0
329.81592,330.2046,64,44,0
329.81592,330.2046,55,44,0
329.43933,330.2046,61,39,0
330.2046,330.57043,62,48,0
330.2046,330.57043,53,48,0
330.57043,330.94543,55,36,0
330.57043,330.94543,64,43,0
330.94543,331.31128,52,43,0
330.94543,331.31128,61,49,0
331.31128,331.69104,62,40,0
331.31128,331.69104,53,43,0
331.69104,332.4447,50,40,0
332.4447,332.81506,49,49,0
332.81506,333.19482,50,45,0
333.19482,333.5746,51,52,0
333.5746,333.98425,52,42,0
331.69104,333.98425,58,50,0
334.38,334.7758,55,44,0
333.98425,334.7758,57,50,0
334.7758,335.2056,53,51,0
335.2056,335.604,55,37,0
335.604,336.01608,52,51,0
334.7758,336.01608,50,39,0
336.01608,336.4282,53,34,0
336.01608,336.4282,49,30,0
336.4282,337.30026,50,42,0
337.30026,338.87225,53,36,0
338.87225,339.26187,57,45,0
337.30026,339.67715,62,43,0
339.26187,341.2552,55,43,0
341.2552,341.64636,58,48,0
339.67715,342.05603,64,51,0
342.05603,343.63257,66,49,0
341.64636,343.63257,57,44,0
343.63257,344.02374,72,50,0
343.63257,344.02374,60,35,0
344.02374,344.42795,71,45,0
344.42795,346.0166,68,51,0
344.02374,346.0166,59,32,0
346.0166,346.4103,62,39,0
346.0166,346.4103,74,56,0
346.4103,346.80402,61,38,0
346.4103,346.80402,73,54,0
346.80402,347.19772,66,47,0
347.19772,347.5914,68,50,0
347.5914,347.9851,70,43,0
346.80402,347.9851,73,56,0
347.9851,348.4004,73,52,0
348.4004,348.7993,75,51,0
348.7993,349.19815,73,56,0
349.19815,349.60236,70,51,0
348.4004,349.60236,78,61,0
349.60236,350.03546,73,48,0
349.60236,350.03546,66,48,0
350.03546,351.76556,65,46,0
350.03546,351.76556,73,55,0
351.76556,352.16977,66,56,0
352.16977,352.57397,68,50,0
352.57397,352.96768,70,43,0
351.76556,352.96768,73,56,0
352.96768,353.4008,73,52,0
353.4008,353.79965,75,51,0
353.79965,354.19855,73,56,0
354.19855,354.60275,70,51,0
354.92755,355.02863,73,55,0
354.60275,355.03583,66,48,0
353.4008,355.03583,78,61,0
355.03583,356.71216,64,46,0
355.03583,356.71216,73,55,0
356.71216,357.11057,70,43,0
356.71216,357.11057,58,30,0
357.11057,357.50897,72,43,0
357.11057,357.50897,60,30,0
357.50897,357.8735,74,44,0
357.50897,357.8735,62,31,0
357.8735,358.2667,77,52,0
357.8735,358.2667,65,34,0
358.2667,358.6312,67,36,0
358.2667,358.6312,79,57,0
358.6312,358.99573,77,42,0
358.6312,358.99573,65,29,0
358.99573,359.57504,74,44,0
358.99573,359.57504,62,31,0
359.57504,359.7826,58,28,0
359.57504,359.7826,70,39,0
359.7826,361.32983,58,32,0
359.7826,361.32983,70,45,0
361.32983,361.70816,70,43,0
361.32983,361.70816,58,30,0
361.70816,362.08646,72,43,0
361.70816,362.08646,60,30,0
362.08646,362.44876,62,31,0
362.08646,362.44876,74,44,0
362.44876,362.81836,77,51,0
362.44876,362.81836,65,34,0
362.81836,363.18164,67,36,0
362.81836,363.18164,79,56,0
363.18164,363.54495,65,29,0
363.18164,363.54495,77,42,0
363.54495,364.12424,62,31,0
363.54495,364.12424,74,44,0
364.12424,364.3318,58,28,0
364.12424,364.3318,70,39,0
364.3318,365.8682,70,45,0
364.3318,365.8682,58,32,0
365.8682,366.24207,58,30,0
365.8682,366.24207,70,43,0
366.24207,366.61594,72,43,0
366.24207,366.61594,60,30,0
366.61594,366.97717,58,31,0
366.61594,366.97717,70,44,0
366.97717,367.34677,62,34,0
366.97717,367.34677,74,52,0
367.34677,367.71005,63,36,0
367.34677,367.71005,75,56,0
367.71005,368.07333,74,42,0
367.71005,368.07333,62,29,0
368.07333,368.65262,70,44,0
368.07333,368.65262,58,31,0
368.65262,368.89072,55,28,0
368.65262,368.89072,67,39,0
368.89072,369.76282,53,32,0
368.89072,369.76282,65,45,0
370.74185,371.23773,79,59,0
370.64285,371.23773,67,53,0
371.23773,371.7336,77,45,0
371.23773,371.7336,65,38,0
371.7336,371.99448,75,48,0
371.99448,372.1249,77,41,0
372.1249,372.25534,75,41,0
371.7336,372.25534,63,40,0
372.25534,372.5162,74,51,0
372.5162,372.77707,72,47,0
372.25534,372.77707,66,37,0
372.77707,373.87198,65,36,0
372.77707,373.87198,70,51,0
374.83,374.96686,70,43,0
372.77707,374.96686,77,51,0
373.87198,374.96686,69,47,0
373.87198,374.96686,63,39,0
374.96686,376.04214,62,42,0
374.96686,376.04214,70,50,0
377.1174,377.4855,62,30,0
377.1174,377.4855,67,43,0
377.4855,377.8536,69,39,0
377.4855,377.8536,60,28,0
377.8536,378.21722,70,42,0
377.8536,378.21722,58,29,0
378.21722,378.57227,72,44,0
378.21722,378.57227,69,31,0
378.57227,378.93372,67,33,0
378.57227,378.93372,74,46,0
378.93372,379.29962,76,48,0
378.93372,379.29962,65,34,0
379.29962,379.67572,64,35,0
379.29962,379.67572,77,51,0
379.67572,380.0574,74,37,0
379.67572,380.0574,79,54,0
380.0574,380.41455,72,45,0
380.0574,380.41455,81,60,0
380.41455,380.78043,79,52,0
380.41455,380.78043,76,37,0
380.78043,381.14627,69,36,0
380.78043,381.14627,77,51,0
381.14627,381.51212,72,35,0
381.14627,381.51212,76,50,0
381.51212,381.87796,74,49,0
381.51212,381.87796,67,34,0
381.87796,382.26312,72,48,0
381.87796,382.26312,69,29,0
382.26312,382.63522,70,47,0
382.26312,382.63522,64,33,0
382.63522,383.00333,69,40,0
382.63522,383.00333,65,28,0
383.00333,383.37143,67,48,0
383.00333,383.37143,61,40,0
383.37143,383.7395,62,30,0
383.37143,383.7395,65,42,0
383.7395,384.12238,69,49,0
383.7395,384.12238,63,34,0
384.12238,384.50522,64,32,0
384.12238,384.50522,67,44,0
384.50522,384.87268,77,60,0
384.50522,384.87268,65,44,0
384.87268,385.25552,63,39,0
384.87268,385.25552,75,55,0
385.25552,385.67062,74,50,0
385.25552,385.67062,62,34,0
385.67062,386.12726,60,33,0
385.67062,386.12726,72,47,0
386.12726,386.5319,70,47,0
386.12726,386.5319,58,33,0
386.5319,386.93652,72,42,0
386.5319,386.93652,60,29,0
386.93652,387.30612,62,39,0
387.30612,387.67572,72,52,0
387.67572,388.04532,70,49,0
388.04532,388.43048,69,44,0
386.93652,388.43048,74,47,0
388.43048,388.80008,75,49,0
388.43048,388.80008,67,34,0
388.80008,389.17838,65,37,0
388.80008,389.17838,77,52,0
389.17838,389.54797,63,47,0
389.54797,389.91757,65,43,0
389.91757,390.28717,67,47,0
389.17838,390.28717,79,56,0
390.28717,390.66547,69,38,0
390.28717,390.66547,77,53,0
390.66547,391.0438,70,36,0
390.66547,391.0438,75,51,0
391.0438,391.4221,74,50,0
391.0438,391.4221,71,35,0
391.78955,392.15704,70,47,0
391.4221,392.15704,72,52,0
392.15704,392.54218,69,33,0
392.15704,392.54218,72,47,0
392.54218,392.90967,67,31,0
392.54218,392.90967,74,44,0
392.90967,393.27924,65,42,0
393.27924,393.64883,63,47,0
392.90967,393.64883,75,50,0
393.64883,394.01843,62,45,0
394.01843,394.38803,65,47,0
394.38803,394.75763,70,47,0
393.64883,394.75763,77,54,0
394.75763,395.13818,74,46,0
395.13818,395.54285,82,54,0
395.13818,395.54285,70,39,0
395.54285,395.94748,84,48,0
395.54285,395.94748,72,35,0
395.94748,396.31708,74,39,0
396.31708,396.68668,84,52,0
396.68668,397.05624,82,49,0
397.05624,397.4414,81,44,0
395.94748,397.4414,86,54,0
397.4414,397.811,79,41,0
397.4414,397.811,87,56,0
397.811,398.18933,89,59,0
397.811,398.18933,77,44,0
398.18933,398.55893,75,47,0
398.55893,398.9285,77,43,0
398.9285,399.2981,79,47,0
398.18933,399.2981,91,64,0
399.2981,399.67642,89,60,0
399.2981,399.67642,81,45,0
399.67642,400.05472,82,43,0
399.67642,400.05472,87,58,0
400.05472,400.43304,86,57,0
400.05472,400.43304,83,42,0
400.8005,401.16797,82,54,0
400.43304,401.16797,84,59,0
401.16797,401.55313,81,39,0
401.16797,401.55313,84,54,0
401.55313,401.9206,86,50,0
401.55313,401.9206,79,37,0
401.9206,402.2902,77,42,0
402.2902,402.6598,75,47,0
401.9206,402.6598,87,57,0
402.6598,403.0294,74,45,0
403.0294,403.399,75,47,0
403.399,403.76855,77,47,0
402.6598,403.76855,89,62,0
403.76855,404.14914,79,39,0
403.76855,404.14914,87,52,0
404.14914,404.5297,86,54,0
404.14914,404.5297,80,39,0
404.5297,404.91028,84,50,0
404.5297,404.91028,81,37,0
405.28635,405.4744,81,44,0
404.91028,405.56842,82,54,0
405.4744,405.56842,82,38,0
405.56842,405.6624,84,37,0
405.6624,406.04758,79,38,0
405.6624,406.04758,82,54,0
406.04758,406.41504,77,39,0
406.04758,406.41504,84,52,0
406.41504,406.79114,75,50,0
406.79114,407.1672,74,44,0
406.41504,407.1672,86,57,0
407.1672,407.5426,87,58,0
407.1672,407.5426,72,43,0
407.5426,407.92047,86,57,0
407.5426,407.92047,74,42,0
407.92047,408.30487,84,55,0
407.92047,408.30487,75,40,0
408.30487,408.69604,76,33,0
408.30487,408.69604,82,54,0
408.69604,409.09427,81,52,0
408.69604,409.09427,77,33,0
409.09427,409.50003,79,50,0
409.09427,409.50003,75,31,0
409.50003,409.91986,65,35,0
409.50003,409.91986,74,34,0
409.50003,409.91986,77,46,0
410.2389,410.34616,69,40,0
409.91986,410.34616,75,43,0
409.91986,410.34616,67,33,0
409.91986,410.34616,72,34,0
410.34616,410.77914,74,39,0
410.34616,410.77914,70,33,0
410.77914,411.22092,72,38,0
410.77914,411.22092,69,32,0
411.22092,411.48322,70,36,0
411.22092,411.48322,67,21,0
411.48322,411.7601,69,31,0
411.48322,411.7601,65,18,0
411.7601,412.0501,63,26,0
411.7601,412.0501,67,37,0
412.0501,412.35696,62,28,0
412.0501,412.35696,65,41,0
412.35696,415.4024,60,32,0
412.35696,415.4024,63,45,0
415.4024,418.58823,70,32,0
415.4024,418.58823,65,28,0
415.4024,418.58823,77,38,0
418.58823,421.77408,48,32,0
418.58823,421.77408,51,38,0
421.77408,425.03494,49,24,0
421.77408,425.03494,52,28,0
425.68713,426.6502,67,38,0
426.6502,427.65353,69,34,0
427.65353,428.70065,70,37,0
425.68713,428.70065,58,32,0
428.70065,429.77594,74,41,0
429.77594,431.4037,72,41,0
431.4037,432.06595,70,31,0
432.06595,437.36395,70,31,0
432.06595,437.36395,58,31,0
428.70065,437.36395,65,37,0
1.229886,1.6037645,50,33,0
1.6037645,1.977643,53,33,0
1.977643,2.338871,58,34,0
2.338871,2.7182815,62,36,0
2.7182815,3.0815656,63,39,0
3.0815656,3.441822,62,44,0
1.977643,3.4448495,46,28,0
3.4448495,3.8134985,58,42,0
3.8165965,4.2317066,53,36,0
4.2317066,6.3911443,53,34,0
4.2317066,6.3911443,51,23,0
4.0241513,6.3911443,41,43,0
6.3911443,6.765023,50,39,0
6.765023,7.1389017,53,39,0
7.1389017,7.5001297,58,41,0
7.5001297,7.888228,62,43,0
7.888228,8.251512,63,46,0
8.251512,8.611769,62,44,0
7.1389017,8.614796,46,34,0
8.614796,8.983445,58,42,0
8.986543,9.401653,53,36,0
9.401653,11.541835,51,28,0
9.401653,11.541835,53,34,0
9.194098,11.541835,41,43,0
11.541835,11.915713,50,39,0
11.915713,12.289592,53,39,0
12.289592,12.65082,58,41,0
12.65082,13.020414,62,43,0
13.020414,13.383698,63,48,0
13.383698,13.743955,62,47,0
12.289592,13.746983,46,34,0
13.746983,14.115632,58,46,0
14.11873,14.501578,53,40,0
14.501578,14.862806,57,39,0
14.862806,15.21035,60,34,0
15.21035,15.573634,62,40,0
15.573634,15.936918,60,33,0
14.501578,15.936918,48,39,0
15.936918,16.308664,57,37,0
16.50357,16.698479,36,32,0
16.308664,16.698479,53,31,0
16.698479,17.059706,51,27,0
17.059706,17.4293,52,31,0
17.4293,17.792585,60,36,0
17.792585,18.173151,58,33,0
18.173151,18.436274,55,28,0
18.436274,18.729649,52,25,0
18.729649,19.053272,49,25,0
19.053272,19.34731,47,25,0
19.330013,19.624048,48,22,0
19.606752,19.883493,50,22,0
19.883493,21.298586,48,27,0
19.053272,21.770285,41,36,0
21.770285,22.144163,50,39,0
22.144163,22.518042,53,39,0
22.518042,22.879269,58,41,0
22.879269,23.25868,62,43,0
23.25868,23.621964,63,46,0
23.621964,23.98222,62,44,0
22.518042,23.985249,46,34,0
23.985249,24.353897,58,42,0
24.356995,24.772104,53,36,0
24.772104,26.912287,51,23,0
24.772104,26.912287,53,34,0
24.56455,26.912287,41,43,0
26.912287,27.286165,50,39,0
27.286165,27.660044,53,39,0
27.660044,28.021273,58,41,0
28.021273,28.393019,62,43,0
28.393019,28.756304,63,46,0
28.756304,29.11656,62,44,0
27.660044,29.119587,46,34,0
29.119587,29.488235,58,42,0
29.491335,29.906445,53,36,0
29.906445,32.046627,53,34,0
29.906445,32.046627,51,28,0
29.698889,32.046627,41,43,0
32.046627,32.420506,50,39,0
32.420506,32.794384,53,39,0
32.794384,33.15561,58,34,0
33.15561,33.525204,62,36,0
33.525204,33.88849,63,40,0
33.88849,34.248745,62,39,0
32.794384,34.251774,46,34,0
34.251774,34.620422,58,39,0
34.62352,35.00637,53,34,0
35.00637,35.367596,57,39,0
35.367596,35.71514,60,34,0
35.71514,36.078426,62,40,0
36.078426,36.441708,60,33,0
35.00637,36.441708,48,39,0
36.441708,36.813457,57,37,0
37.00836,37.20327,36,32,0
36.813457,37.20327,53,31,0
37.20327,37.5645,51,27,0
37.5645,37.93409,52,31,0
37.93409,38.32987,60,36,0
38.32987,38.710438,58,33,0
38.710438,38.97356,55,28,0
38.97356,39.259537,52,25,0
39.259537,39.56837,49,25,0
39.56837,39.862408,47,25,0
39.84511,40.139145,48,22,0
40.12185,40.39859,50,22,0
40.39859,41.770542,48,27,0
39.56837,42.22786,41,36,0
42.22786,42.595325,46,39,0
42.870926,42.96279,34,47,0
42.595325,42.96279,48,44,0
42.96279,44.40624,50,52,0
44.40624,44.652637,46,39,0
44.652637,44.899033,48,44,0
45.05303,45.145428,36,41,0
44.899033,45.145428,50,48,0
45.145428,46.603096,51,54,0
46.603096,46.78789,46,44,0
46.78789,46.97269,48,47,0
46.97269,47.157486,50,50,0
47.25677,47.356056,37,44,0
47.157486,47.356056,51,53,0
47.99544,48.086784,38,40,0
47.356056,48.086784,52,63,0
48.086784,48.81751,53,56,0
48.81751,48.912132,46,58,0
48.912132,49.006355,48,47,0
49.006355,49.09964,46,57,0
49.09964,49.192146,48,51,0
49.192146,49.314163,46,52,0
49.314163,49.435616,45,58,0
48.81751,49.55964,38,40,0
49.55964,51.102993,39,55,0
49.435616,51.102993,46,51,0
51.468353,51.844437,58,44,0
51.102993,51.844437,55,50,0
51.844437,52.220516,63,50,0
52.220516,52.59011,67,38,0
52.59011,52.94935,68,43,0
52.94935,53.334507,67,37,0
51.844437,53.334507,51,42,0
53.334507,53.7041,63,42,0
53.7041,54.086952,60,39,0
53.334507,54.086952,55,35,0
54.086952,54.46083,58,44,0
54.46083,54.828297,62,32,0
54.828297,55.195763,63,35,0
55.195763,55.571846,62,30,0
54.086952,55.571846,43,37,0
55.571846,55.94144,55,41,0
55.571846,55.94144,58,41,0
55.94144,56.33858,55,36,0
56.33858,56.719147,63,42,0
56.719147,57.093025,67,32,0
57.093025,57.46049,68,34,0
57.46049,57.843338,67,38,0
56.33858,57.843338,48,35,0
57.843338,58.215088,63,40,0
58.215088,58.600246,60,36,0
57.843338,58.600246,55,40,0
58.600246,58.976326,58,41,0
58.976326,59.348072,62,34,0
59.348072,59.719822,63,41,0
59.719822,60.09813,62,37,0
58.600246,60.09813,43,41,0
60.09813,60.470802,58,44,0
60.470802,60.84347,57,44,0
60.09813,60.84347,55,37,0
60.84347,61.215218,55,35,0
61.215218,61.576447,53,36,0
61.576447,61.94604,52,38,0
61.94604,62.315636,50,41,0
60.84347,62.315636,48,29,0
62.315636,62.69172,48,43,0
62.69172,63.07342,46,44,0
63.07342,63.440887,45,47,0
63.440887,63.81697,46,45,0
63.81697,64.19305,48,42,0
64.19305,64.56913,50,41,0
62.315636,64.56913,36,36,0
64.56913,64.94521,52,38,0
64.94521,65.33037,53,37,0
64.56913,65.33037,36,32,0
65.33037,65.70645,55,35,0
65.70645,66.082535,57,35,0
66.082535,66.45861,58,36,0
66.45861,66.834694,59,33,0
65.33037,66.834694,48,29,0
66.834694,67.217545,60,39,0
67.217545,67.600395,58,34,0
67.600395,68.000015,57,35,0
68.000015,68.43192,56,28,0
68.43192,68.6853,55,28,0
68.6853,68.93868,54,25,0
68.93868,69.20798,53,28,0
69.20798,69.59997,51,24,0
66.834694,69.73063,48,33,0
70.111824,70.49302,53,35,0
69.73063,70.49302,50,35,0
70.49302,70.85424,58,36,0
70.85424,71.239845,62,38,0
71.239845,71.603134,63,41,0
71.603134,71.96339,62,39,0
70.49302,71.966415,46,30,0
71.966415,72.33507,58,37,0
72.338165,72.75327,53,32,0
72.75327,74.87454,53,30,0
72.75327,74.87454,51,25,0
72.545715,74.87454,41,38,0
74.87454,75.24842,50,39,0
75.24842,75.6223,53,39,0
75.6223,75.98352,58,41,0
75.98352,76.35527,62,43,0
76.35527,76.71855,63,46,0
76.71855,77.07881,62,44,0
75.6223,77.08184,46,74,0
77.08184,77.450485,58,42,0
77.08184,77.45358,46,70,0
77.45358,77.855675,50,66,0
77.45358,77.855675,53,36,0
77.65463,78.219315,41,43,0
78.219315,78.58741,43,53,0
78.58741,78.95778,46,59,0
78.95778,79.328156,45,54,0
77.855675,79.328156,53,41,0
77.855675,79.328156,51,28,0
79.328156,79.702034,44,37,0
79.328156,79.702034,50,44,0
79.702034,80.07591,43,39,0
79.702034,80.07591,51,47,0
80.07591,80.43713,53,49,0
80.07591,80.71433,41,41,0
80.43713,80.80673,55,52,0
80.80673,81.17001,56,55,0
80.71433,81.44248,39,46,0
81.17001,81.5333,58,55,0
81.5333,81.905045,59,57,0
81.905045,82.26833,55,58,0
81.44248,82.26833,38,47,0
82.26833,82.635796,60,55,0
82.26833,82.635796,36,28,0
82.635796,83.009674,55,54,0
82.635796,83.009674,43,27,0
83.009674,83.37553,52,52,0
83.009674,83.37553,48,25,0
83.37553,83.7482,47,24,0
83.37553,83.7482,53,50,0
83.7482,84.12428,46,23,0
83.7482,84.12428,52,49,0
84.12428,84.50037,45,23,0
84.12428,84.50037,53,47,0
84.50037,84.86159,55,48,0
84.50037,85.13879,43,40,0
84.86159,85.231186,57,51,0
85.231186,85.59447,58,54,0
85.13879,85.866936,41,45,0
85.59447,85.957756,59,54,0
85.957756,86.3295,60,54,0
86.3295,86.69279,58,58,0
85.866936,86.69279,40,47,0
86.69279,87.0692,41,34,0
86.69279,87.0692,57,57,0
87.0692,87.4629,43,32,0
87.0692,87.4629,55,55,0
87.4629,87.88425,53,53,0
87.4629,87.88425,44,30,0
87.88425,88.35893,51,50,0
87.88425,88.35893,45,29,0
88.35893,88.76357,50,37,0
88.76357,89.168205,53,40,0
88.35893,89.168205,46,28,0
89.168205,89.5378,58,43,0
89.5378,89.907394,57,39,0
89.168205,89.907394,34,46,0
89.907394,90.27699,55,39,0
90.27699,90.6754,53,39,0
90.6754,91.04499,51,39,0
91.04499,91.4233,50,44,0
90.6754,91.4233,46,42,0
91.4233,91.7929,48,48,0
91.7929,92.16249,50,39,0
91.4233,92.16249,34,52,0
92.16249,92.53209,51,39,0
92.53209,92.9104,53,36,0
92.9104,93.288704,55,39,0
93.288704,93.667015,56,44,0
92.9104,93.667015,46,42,0
93.667015,94.034485,57,39,0
94.034485,94.401955,55,39,0
93.667015,94.401955,34,42,0
94.401955,94.78711,53,41,0
94.78711,95.15458,51,39,0
95.15458,95.52417,50,44,0
95.52417,95.89377,48,38,0
95.15458,95.89377,46,48,0
95.89377,96.26336,46,46,0
96.26336,96.63296,48,35,0
95.89377,96.63296,34,50,0
96.63296,97.00255,50,39,0
97.00255,97.38312,51,35,0
97.38312,97.76368,52,39,0
97.76368,98.14425,53,35,0
97.38312,98.14425,46,42,0
98.14425,98.520325,55,39,0
98.520325,98.89641,53,34,0
98.14425,98.89641,34,42,0
98.89641,99.28157,51,39,0
99.28157,99.64903,50,34,0
99.64903,100.025116,48,39,0
99.55717,100.025116,46,33,0
100.025116,100.4012,46,45,0
100.4012,100.77657,34,42,0
100.4012,100.77657,45,39,0
101.15444,101.53885,48,36,0
101.53885,101.93002,49,35,0
101.93002,102.328255,50,38,0
102.328255,102.734024,51,34,0
102.734024,103.15383,53,35,0
103.47288,103.58014,57,40,0
103.15383,103.58014,55,33,0
100.77657,104.4549,46,38,0
104.71721,104.99407,62,36,0
104.99407,105.28408,63,31,0
105.28408,105.59096,65,34,0
105.59096,108.338844,66,38,0
105.59096,108.338844,58,27,0
108.338844,109.71278,57,28,0
108.338844,109.71278,65,34,0
109.71278,112.46066,50,40,0
109.54104,112.46066,34,33,0
113.30687,113.4661,65,58,0
113.4661,113.54366,70,65,0
113.62122,113.698784,62,49,0
113.776344,113.853905,67,60,0
113.931465,114.009026,65,49,0
114.08658,114.16143,64,65,0
114.23628,114.311134,60,55,0
114.38599,114.464355,65,74,0
114.542725,114.62109,57,65,0
114.69946,114.77545,62,78,0
114.85144,114.92743,55,56,0
115.00341,115.0794,60,75,0
115.15539,115.23138,58,53,0
115.307365,115.63099,57,72,0
115.63099,116.254845,55,83,0
116.254845,116.561905,54,73,0
116.561905,116.71864,55,83,0
116.71864,116.79701,48,69,0
116.87538,116.95586,53,77,0
117.03633,117.1168,45,64,0
117.19727,117.27524,46,71,0
117.353195,117.43116,43,60,0
117.509125,117.59295,48,69,0
117.67678,117.760605,46,56,0
117.84443,118.03084,45,69,0
118.72514,118.80152,62,57,0
118.21724,118.8779,29,78,0
118.21724,118.8779,41,89,0
118.8779,118.95388,67,60,0
119.02987,119.10586,65,58,0
119.18185,119.25901,64,65,0
119.33617,119.41333,60,55,0
119.490486,119.57183,65,74,0
119.653175,119.73452,57,58,0
119.81587,119.89224,62,73,0
119.96862,120.04499,55,56,0
120.12137,120.19774,60,75,0
120.27412,120.350494,58,52,0
120.426865,120.75049,57,72,0
120.75049,121.374344,55,80,0
121.374344,121.681404,54,64,0
121.681404,121.83814,55,78,0
121.83814,121.91652,48,63,0
121.99489,122.07623,53,70,0
122.15758,122.23892,45,58,0
122.32027,122.403625,46,64,0
122.486984,122.57035,43,58,0
122.65371,122.73849,48,61,0
122.82326,122.908035,46,56,0
122.992805,123.16235,45,60,0
123.33191,123.98779,29,39,0
123.33191,123.98779,41,47,0
124.621376,125.26217,42,56,0
125.26217,125.57402,44,46,0
124.621376,125.57402,30,39,0
125.57402,125.88587,41,51,0
125.57402,125.88587,29,36,0
125.88587,126.525276,42,56,0
126.525276,126.833916,44,49,0
125.88587,126.833916,30,39,0
126.833916,127.142555,41,56,0
126.833916,127.142555,29,39,0
127.142555,127.46002,42,51,0
127.142555,127.46002,30,36,0
127.46002,127.76614,43,60,0
127.46002,127.76614,31,43,0
127.76614,128.08192,44,52,0
127.76614,128.08192,32,36,0
128.08192,128.38496,33,43,0
128.08192,128.38496,45,61,0
128.38496,128.69746,34,54,0
128.38496,128.69746,46,54,0
128.69746,128.99973,47,66,0
128.69746,128.99973,35,46,0
128.99973,129.33049,36,44,0
128.99973,129.33049,48,63,0
129.33049,130.1612,29,49,0
129.33049,130.1612,41,76,0
130.1612,130.23582,62,52,0
130.31046,130.38722,67,60,0
130.46399,130.54076,65,51,0
130.61752,130.69214,64,65,0
130.76677,130.8414,60,51,0
130.91603,130.99649,65,74,0
131.07697,131.15744,57,65,0
131.23792,131.31367,62,74,0
131.38943,131.46518,55,59,0
131.54094,131.6167,60,75,0
131.69246,131.76822,58,55,0
131.84398,132.1676,57,72,0
132.1676,132.79813,55,78,0
132.79813,133.10677,54,67,0
133.10677,133.26433,55,75,0
133.26433,133.34311,48,62,0
133.42189,133.5037,53,69,0
133.58548,133.66727,45,56,0
133.74905,133.83084,46,63,0
133.91263,133.99442,43,57,0
134.0762,134.15845,48,60,0
134.24068,134.32292,46,54,0
134.40515,134.56963,45,59,0
134.7341,135.68675,41,47,0
134.7341,135.68675,29,39,0
135.9986,136.6394,42,56,0
136.6394,136.95125,44,46,0
135.9986,136.95125,30,39,0
136.95125,137.26309,29,36,0
136.95125,137.26309,41,51,0
137.26309,137.90572,42,56,0
137.90572,138.21756,44,49,0
137.26309,138.21756,30,39,0
138.21756,138.5294,29,39,0
138.21756,138.5294,41,56,0
138.5294,138.85303,42,49,0
138.5294,138.85303,30,49,0
138.85303,139.15916,31,43,0
138.85303,139.15916,43,60,0
139.15916,139.47003,32,46,0
139.15916,139.47003,44,46,0
139.47003,139.77307,45,61,0
139.47003,139.77307,33,43,0
139.77307,140.08557,34,40,0
139.77307,140.08557,46,56,0
140.08557,140.38785,47,65,0
140.08557,140.38785,35,46,0
140.38785,140.71861,36,43,0
140.38785,140.71861,48,62,0
140.71861,141.5668,41,74,0
140.71861,141.5668,29,47,0
141.5668,141.64685,62,57,0
141.7269,141.80486,67,60,0
141.88281,141.96078,65,51,0
142.03874,142.11412,64,65,0
142.1895,142.26488,60,52,0
142.34026,142.42116,65,74,0
142.50206,142.58296,57,60,0
142.66388,142.7416,62,71,0
142.81932,142.89703,55,66,0
142.97476,143.05247,60,75,0
143.1302,143.20792,58,60,0
143.28563,143.60927,57,72,0
143.60927,144.23311,55,78,0
144.23311,144.54018,54,67,0
144.54018,144.70152,55,76,0
144.70152,144.7822,48,62,0
144.86285,144.94716,53,69,0
145.03146,145.11575,45,57,0
145.20006,145.28812,46,63,0
145.37617,145.46423,43,49,0
145.55229,145.6555,48,54,0
145.7587,145.86191,46,33,0
145.96512,146.4041,53,42,0
146.4041,147.05627,51,46,0
145.96512,147.05627,45,42,0
147.05627,147.43015,50,39,0
147.43015,147.80403,53,39,0
147.80403,148.16525,58,41,0
148.16525,148.55844,62,43,0
148.55844,148.92172,63,46,0
148.92172,149.28198,62,44,0
147.05627,149.285,46,39,0
149.285,149.65366,58,42,0
149.65675,150.07187,53,36,0
150.07187,151.90198,51,28,0
150.07187,151.90198,53,34,0
149.8643,151.90198,41,43,0
151.90198,152.27585,50,39,0
152.27585,152.64973,53,39,0
152.64973,153.01096,58,41,0
153.01096,153.38101,62,43,0
153.38101,153.7443,63,46,0
153.7443,154.10455,62,44,0
152.64973,154.10757,46,34,0
154.10757,154.47623,58,42,0
154.47932,154.89442,53,36,0
154.89442,156.7386,51,28,0
154.89442,156.7386,53,34,0
154.68687,156.7386,41,43,0
156.7386,157.11247,50,39,0
157.11247,157.48636,53,39,0
157.48636,157.84758,58,41,0
157.84758,158.21718,62,36,0
158.21718,158.58046,63,40,0
158.58046,158.94072,62,39,0
157.48636,158.94374,46,34,0
158.94374,159.3124,58,39,0
159.31549,159.69835,53,40,0
159.69835,160.05957,57,47,0
160.05957,160.40712,60,34,0
160.40712,160.7704,62,40,0
160.7704,161.13368,60,33,0
159.69835,161.13368,48,39,0
161.13368,161.50543,57,37,0
161.70033,161.89525,36,32,0
161.50543,161.89525,53,31,0
161.89525,162.25647,51,32,0
162.25647,162.62607,52,31,0
162.62607,162.98935,60,36,0
162.98935,163.36992,58,33,0
163.36992,163.6391,55,28,0
163.6391,163.93681,52,25,0
163.93681,164.26308,49,25,0
164.26308,164.55711,47,25,0
164.53983,164.83386,48,22,0
164.81656,165.0933,50,22,0
165.0933,166.27596,48,27,0
164.26308,166.67017,41,36,0
166.67017,167.03764,46,39,0
167.31325,167.4051,34,47,0
167.03764,167.4051,48,44,0
167.4051,168.84856,50,52,0
168.84856,169.09496,46,39,0
169.09496,169.34135,48,44,0
169.49535,169.58774,36,41,0
169.34135,169.58774,50,48,0
169.58774,171.04541,51,54,0
171.04541,171.23021,46,44,0
171.23021,171.41501,48,47,0
171.41501,171.59981,50,50,0
171.69908,171.79837,37,44,0
171.59981,171.79837,51,53,0
172.43776,172.5291,38,39,0
171.79837,172.5291,52,63,0
172.5291,173.25983,53,56,0
173.25983,173.35445,46,58,0
173.35445,173.44867,48,47,0
173.44867,173.54196,46,57,0
173.54196,173.63446,48,51,0
173.63446,173.75648,46,52,0
173.75648,173.87793,45,58,0
173.25983,174.00195,38,42,0
174.00195,175.56763,39,55,0
173.87793,175.56763,46,51,0
175.933,176.30908,58,44,0
175.56763,176.30908,55,50,0
176.30908,176.67894,63,50,0
176.67894,177.04852,67,34,0
177.04852,177.40776,68,38,0
177.40776,177.79292,67,33,0
176.30908,177.79292,51,42,0
177.79292,178.16252,63,42,0
178.16252,178.54536,60,39,0
177.79292,178.54536,55,35,0
178.54536,178.91925,58,44,0
178.91925,179.28671,62,34,0
179.28671,179.65417,63,37,0
179.65417,180.03026,62,32,0
178.54536,180.03026,43,37,0
180.03026,180.39986,55,41,0
180.03026,180.39986,58,41,0
180.39986,180.797,55,36,0
180.797,181.17757,63,42,0
181.17757,181.55144,67,34,0
181.55144,181.91891,68,36,0
181.91891,182.30176,67,34,0
180.797,182.30176,48,35,0
182.30176,182.67351,63,40,0
182.67351,183.05867,60,36,0
182.30176,183.05867,55,40,0
183.05867,183.43474,58,41,0
183.43474,183.80649,62,34,0
183.80649,184.17824,63,41,0
184.17824,184.55655,62,37,0
183.05867,184.55655,43,41,0
184.55655,184.94171,58,44,0
184.94171,185.32686,57,44,0
184.55655,185.32686,55,37,0
185.32686,185.68831,55,35,0
185.68831,186.04955,53,36,0
186.04955,186.41913,52,38,0
186.41913,186.78873,50,41,0
185.32686,186.78873,48,29,0
186.78873,187.16481,48,44,0
187.16481,187.54651,46,45,0
187.54651,187.91399,45,47,0
187.91399,188.27983,46,45,0
188.27983,188.65251,48,42,0
188.65251,189.02518,50,41,0
186.78873,189.02518,36,37,0
189.02518,189.39784,52,38,0
189.39784,189.783,53,37,0
189.02518,189.783,36,32,0
189.783,190.15909,55,35,0
190.15909,190.53517,57,35,0
190.53517,190.91125,58,36,0
190.91125,191.28732,59,33,0
189.783,191.28732,48,29,0
191.28732,191.67018,60,39,0
191.67018,192.05302,58,34,0
192.05302,192.46008,57,35,0
192.46008,192.90651,56,28,0
192.90651,193.15569,55,28,0
193.15569,193.40485,54,25,0
193.40485,193.6694,53,28,0
193.6694,193.99304,51,24,0
191.28732,194.10094,48,33,0
194.47481,194.8487,53,35,0
194.10094,194.8487,50,35,0
194.8487,195.20992,58,36,0
195.20992,195.57997,62,38,0
195.57997,195.94325,63,41,0
195.94325,196.30351,62,39,0
194.8487,196.30653,46,30,0
196.30653,196.67519,58,37,0
196.67828,197.09338,53,32,0
197.09338,199.17781,53,30,0
197.09338,199.17781,51,25,0
196.88583,199.17781,41,38,0
199.17781,199.55168,50,39,0
199.55168,199.92557,53,39,0
199.92557,200.28679,58,41,0
200.28679,200.65457,62,43,0
200.65457,201.01787,63,46,0
201.01787,201.37811,62,44,0
199.92557,201.38115,46,74,0
201.38115,201.74979,58,42,0
201.38115,201.75288,46,70,0
201.75288,202.15498,53,36,0
201.75288,202.15498,50,66,0
201.95393,202.52673,41,43,0
202.52673,202.89848,43,53,0
202.89848,203.27022,46,59,0
203.27022,203.64197,45,54,0
202.15498,203.64197,51,28,0
202.15498,203.64197,53,45,0
203.64197,204.01585,50,44,0
203.64197,204.01585,44,31,0
204.01585,204.38972,43,33,0
204.01585,204.38972,51,47,0
204.38972,204.75096,53,48,0
204.38972,205.02815,41,34,0
204.75096,205.12054,55,51,0
205.12054,205.48384,56,54,0
205.02815,205.7563,39,45,0
205.48384,205.84712,58,55,0
205.84712,206.21887,59,57,0
206.21887,206.58215,55,58,0
205.7563,206.58215,38,44,0
206.58215,206.94962,60,55,0
206.58215,206.94962,36,39,0
206.94962,207.3235,43,38,0
206.94962,207.3235,55,54,0
207.3235,207.69159,48,36,0
207.3235,207.69159,52,52,0
207.69159,208.0597,47,35,0
207.69159,208.0597,53,50,0
208.0597,208.43578,52,49,0
208.0597,208.43578,46,34,0
208.43578,208.81186,45,33,0
208.43578,208.81186,53,47,0
208.81186,209.17308,55,48,0
208.81186,209.45027,43,34,0
209.17308,209.54268,57,50,0
209.54268,209.90596,58,53,0
209.45027,210.17842,41,44,0
209.90596,210.26924,59,52,0
210.26924,210.64099,60,52,0
210.64099,211.00427,58,56,0
210.17842,211.00427,40,45,0
211.00427,211.37834,57,55,0
211.00427,211.37834,41,39,0
211.37834,211.76947,55,54,0
211.37834,211.76947,43,38,0
211.76947,212.1938,53,52,0
211.76947,212.1938,44,36,0
212.1938,212.68399,45,35,0
212.1938,212.68399,51,50,0
212.68399,213.08864,50,37,0
213.08864,213.49327,53,40,0
212.68399,213.49327,46,34,0
213.49327,213.86287,58,43,0
213.86287,214.23247,57,39,0
213.49327,214.23247,34,46,0
214.23247,214.60207,55,39,0
214.60207,215.00047,53,39,0
215.00047,215.37006,51,39,0
215.37006,215.74837,50,44,0
215.00047,215.74837,46,42,0
215.74837,216.11797,48,48,0
216.11797,216.48756,50,39,0
215.74837,216.48756,34,52,0
216.48756,216.85716,51,39,0
216.85716,217.23546,53,36,0
217.23546,217.60583,55,39,0
217.60583,217.9785,56,44,0
217.23546,217.9785,46,42,0
217.9785,218.34598,57,39,0
218.34598,218.71344,55,39,0
217.9785,218.71344,34,42,0
218.71344,219.0986,53,41,0
219.0986,219.46606,51,39,0
219.46606,219.83566,50,44,0
219.83566,220.20526,48,38,0
219.46606,220.20526,46,48,0
220.20526,220.57484,46,46,0
220.57484,220.94444,48,35,0
220.20526,220.94444,34,50,0
220.94444,221.31404,50,39,0
221.31404,221.69461,51,35,0
221.69461,222.07516,52,39,0
222.07516,222.45573,53,35,0
221.69461,222.45573,46,42,0
222.45573,222.83182,55,39,0
222.83182,223.2079,53,34,0
222.45573,223.2079,34,42,0
223.2079,223.59306,51,39,0
223.59306,223.96053,50,34,0
223.96053,224.33661,48,39,0
223.86865,224.33661,46,33,0
224.33661,224.71269,46,45,0
224.71269,225.08806,34,42,0
224.71269,225.08806,45,39,0
225.46593,225.85034,48,36,0
225.85034,226.24152,49,35,0
226.24152,226.63974,50,38,0
226.63974,227.04552,51,34,0
227.04552,227.46532,53,35,0
227.78436,227.89163,57,40,0
227.46532,227.89163,55,33,0
225.08806,228.76639,46,38,0
229.0287,229.30557,62,36,0
229.30557,229.59557,63,31,0
229.59557,229.90245,65,34,0
229.90245,232.65033,58,22,0
229.90245,232.65033,66,38,0
232.65033,234.02428,65,34,0
232.65033,234.02428,57,28,0
234.02428,236.08519,50,40,0
233.85252,236.08519,34,33,0
236.77216,237.80827,43,36,0
236.77216,237.80827,31,30,0
237.80827,238.1671,45,33,0
237.80827,238.1671,33,27,0
238.1671,238.28604,43,31,0
238.1671,238.28604,31,26,0
238.28604,238.81702,42,36,0
238.28604,238.81702,30,30,0
238.81702,239.32571,45,36,0
238.81702,239.32571,33,30,0
239.32571,239.86299,31,24,0
239.32571,239.86299,43,29,0
239.86299,240.90585,27,30,0
239.86299,240.90585,39,36,0
240.90585,241.26932,41,33,0
240.90585,241.26932,29,27,0
241.26932,241.3896,39,31,0
241.26932,241.3896,27,26,0
241.3896,241.92058,38,36,0
241.3896,241.92058,26,30,0
241.92058,242.43144,41,36,0
241.92058,242.43144,29,30,0
242.43144,242.97163,27,24,0
242.43144,242.97163,39,29,0
242.97163,243.99643,36,39,0
242.97163,243.99643,24,33,0
243.99643,244.35895,26,29,0
243.99643,244.35895,38,36,0
244.35895,244.4981,30,28,0
244.35895,244.4981,42,34,0
244.4981,245.51999,33,42,0
244.4981,245.51999,45,50,0
245.51999,245.88423,38,39,0
245.51999,245.88423,50,47,0
245.88423,246.02284,54,42,0
245.88423,246.02284,42,36,0
246.02284,246.40582,57,46,0
246.02284,246.40582,45,38,0
246.40582,246.5335,49,46,0
246.40582,246.5335,61,55,0
246.5335,246.7888,62,58,0
246.5335,246.7888,50,49,0
247.04024,247.4127,50,44,0
247.04024,247.4127,62,52,0
247.4127,247.53554,66,59,0
247.4127,247.53554,54,49,0
247.53554,247.9252,69,61,0
247.53554,247.9252,57,51,0
247.9252,248.05736,73,68,0
247.9252,248.05736,61,57,0
248.05736,248.32167,74,70,0
248.05736,248.32167,62,59,0
248.57312,249.05699,62,60,0
248.57312,249.05699,69,60,0
248.57312,249.05699,74,71,0
249.21828,250.25595,31,25,0
249.21828,250.25595,43,36,0
250.25595,250.61469,33,22,0
250.25595,250.61469,45,33,0
250.61469,250.73387,31,22,0
250.61469,250.73387,43,31,0
250.73387,251.26483,42,36,0
250.73387,251.26483,30,25,0
251.26483,251.77406,45,36,0
251.26483,251.77406,33,25,0
251.77406,252.31038,43,29,0
251.77406,252.31038,31,20,0
252.31038,253.35242,39,36,0
252.31038,253.35242,27,25,0
253.35242,253.71536,29,22,0
253.35242,253.71536,41,33,0
253.71536,253.8351,39,31,0
253.71536,253.8351,27,22,0
253.8351,254.36607,38,36,0
253.8351,254.36607,26,25,0
254.36607,254.87503,41,36,0
254.36607,254.87503,29,25,0
254.87503,255.41432,39,29,0
254.87503,255.41432,27,20,0
255.41432,256.43964,24,28,0
255.41432,256.43964,36,39,0
256.43964,256.8054,26,24,0
256.43964,256.8054,38,36,0
256.8054,256.92642,30,23,0
256.8054,256.92642,42,34,0
256.92642,257.95016,45,50,0
256.92642,257.95016,33,35,0
257.95016,258.3143,50,47,0
257.95016,258.3143,38,33,0
258.3143,258.43442,42,30,0
258.3143,258.43442,54,42,0
258.43442,258.8174,45,32,0
258.43442,258.8174,57,46,0
258.8174,258.94507,61,55,0
258.8174,258.94507,49,39,0
258.94507,259.20038,50,41,0
258.94507,259.20038,62,58,0
259.4518,259.82428,62,52,0
259.4518,259.82428,50,37,0
259.82428,259.9471,66,59,0
259.82428,259.9471,54,41,0
259.9471,260.3368,69,61,0
259.9471,260.3368,57,43,0
260.3368,260.46893,61,48,0
260.3368,260.46893,73,68,0
260.46893,260.73325,74,70,0
260.46893,260.73325,62,50,0
260.9847,261.46597,62,51,0
260.9847,261.46597,69,60,0
260.9847,261.46597,74,71,0
261.6264,262.55054,34,25,0
261.6264,262.55054,46,36,0
262.55054,262.67538,48,31,0
262.55054,262.67538,36,22,0
262.67538,263.1533,37,27,0
262.67538,263.1533,49,42,0
263.1533,264.0688,38,25,0
263.1533,264.0688,50,36,0
264.0688,264.18875,51,31,0
264.0688,264.18875,39,22,0
264.18875,264.6679,52,43,0
264.18875,264.6679,40,27,0
264.6679,265.5948,41,26,0
264.6679,265.5948,53,37,0
265.5948,265.7237,54,32,0
265.5948,265.7237,42,22,0
265.7237,266.20605,55,46,0
265.7237,266.20605,43,28,0
266.20605,267.13126,44,27,0
266.20605,267.13126,56,39,0
267.13126,267.25916,45,23,0
267.13126,267.25916,57,34,0
267.25916,267.74118,46,30,0
267.25916,267.74118,58,49,0
267.74118,268.6581,48,28,0
267.74118,268.6581,60,41,0
268.6581,268.7793,59,35,0
268.6581,268.7793,47,25,0
268.7793,269.2614,60,54,0
268.7793,269.2614,48,34,0
269.2614,270.17786,50,32,0
269.2614,270.17786,62,45,0
270.17786,270.29785,61,39,0
270.17786,270.29785,49,28,0
270.29785,270.78027,50,37,0
270.29785,270.78027,62,61,0
270.78027,271.70276,64,50,0
270.78027,271.70276,52,35,0
271.70276,271.82816,53,44,0
271.82816,272.32346,55,62,0
272.32346,272.6908,57,65,0
272.6908,272.82355,55,60,0
272.82355,273.1909,53,65,0
273.1909,273.31332,54,60,0
273.31332,273.68066,57,65,0
273.68066,273.8146,55,60,0
273.8146,274.18045,53,65,0
274.18045,274.3024,54,60,0
274.3024,274.66827,57,65,0
274.66827,274.801,55,60,0
274.801,275.16537,53,65,0
275.16537,275.28683,54,60,0
275.28683,275.6512,55,65,0
275.6512,275.77267,58,60,0
275.77267,276.13705,57,65,0
276.13705,276.30652,45,60,0
276.30652,276.6895,50,65,0
276.6895,276.81717,48,60,0
276.81717,277.21692,46,65,0
277.21692,277.40097,45,60,0
277.40097,278.4425,31,31,0
277.40097,278.4425,43,45,0
278.4425,278.8027,45,41,0
278.4425,278.8027,33,28,0
278.8027,278.92188,31,27,0
278.8027,278.92188,43,38,0
278.92188,279.45285,42,45,0
278.92188,279.45285,30,31,0
279.45285,279.96307,45,45,0
279.45285,279.96307,33,31,0
279.96307,280.5026,43,36,0
279.96307,280.5026,31,25,0
280.5026,281.54675,27,31,0
280.5026,281.54675,39,45,0
281.54675,281.91095,41,41,0
281.54675,281.91095,29,28,0
281.91095,282.03055,39,38,0
281.91095,282.03055,27,27,0
282.03055,282.56152,26,31,0
282.03055,282.56152,38,45,0
282.56152,283.07034,41,45,0
282.56152,283.07034,29,31,0
283.07034,283.60886,39,36,0
283.07034,283.60886,27,25,0
283.60886,284.6339,36,48,0
283.60886,284.6339,24,34,0
284.6339,284.99753,26,30,0
284.6339,284.99753,38,45,0
284.99753,285.1367,28,29,0
284.99753,285.1367,40,42,0
285.1367,285.65393,42,62,0
285.1367,285.65393,30,44,0
285.65393,286.1578,45,59,0
285.65393,286.1578,33,42,0
286.1578,286.51895,31,40,0
286.1578,286.51895,43,58,0
286.51895,286.65756,45,52,0
286.51895,286.65756,33,38,0
286.65756,287.1682,46,57,0
286.65756,287.1682,34,39,0
287.1682,287.6763,38,46,0
287.1682,287.6763,50,65,0
287.6763,288.07788,36,34,0
287.6763,288.07788,48,48,0
288.07788,288.2159,33,39,0
288.07788,288.2159,45,55,0
288.26193,288.8175,38,41,0
288.26193,288.8175,50,58,0
288.8175,289.7897,31,47,0
288.8175,289.7897,43,66,0
289.92862,290.85272,34,25,0
289.92862,290.85272,46,36,0
290.85272,290.9776,36,22,0
290.85272,290.9776,48,31,0
290.9776,291.45547,37,27,0
290.9776,291.45547,49,42,0
291.45547,292.371,50,36,0
291.45547,292.371,38,25,0
292.371,292.49094,39,22,0
292.371,292.49094,51,31,0
292.49094,292.9701,40,27,0
292.49094,292.9701,52,43,0
292.9701,293.897,53,37,0
292.9701,293.897,41,26,0
293.897,294.02588,42,22,0
293.897,294.02588,54,32,0
294.02588,294.50824,55,46,0
294.02588,294.50824,43,28,0
294.50824,295.43347,56,39,0
294.50824,295.43347,44,27,0
295.43347,295.56134,45,23,0
295.43347,295.56134,57,34,0
295.56134,296.04337,46,30,0
295.56134,296.04337,58,49,0
296.04337,296.9603,48,28,0
296.04337,296.9603,60,41,0
296.9603,297.08148,47,25,0
296.9603,297.08148,59,35,0
297.08148,297.5636,60,54,0
297.08148,297.5636,48,34,0
297.5636,298.48007,50,32,0
297.5636,298.48007,62,45,0
298.48007,298.60007,49,28,0
298.48007,298.60007,61,39,0
298.60007,299.08246,62,61,0
298.60007,299.08246,50,37,0
299.08246,300.00494,64,50,0
299.08246,300.00494,52,35,0
300.00494,300.13034,53,44,0
300.13034,300.62564,55,62,0
300.62564,300.99298,57,65,0
300.99298,301.12573,55,60,0
301.12573,301.49307,53,65,0
301.49307,301.61554,54,60,0
301.61554,301.98288,57,65,0
301.98288,302.1168,55,60,0
302.1168,302.48267,53,65,0
302.48267,302.6046,54,60,0
302.6046,302.97046,57,65,0
302.97046,303.1032,55,60,0
303.1032,303.4676,53,65,0
303.4676,303.58905,54,60,0
303.58905,303.9534,55,65,0
303.9534,304.07486,58,60,0
304.07486,304.43924,57,65,0
304.43924,304.60873,45,60,0
304.60873,304.9917,50,65,0
304.9917,305.11935,48,60,0
305.11935,305.51913,46,65,0
305.51913,305.7032,45,60,0
305.7032,306.74176,43,45,0
305.7032,306.74176,31,31,0
306.74176,307.09872,33,28,0
306.74176,307.09872,45,41,0
307.09872,307.2172,43,38,0
307.09872,307.2172,31,27,0
307.2172,307.74817,30,31,0
307.2172,307.74817,42,45,0
307.74817,308.2583,45,45,0
307.74817,308.2583,33,31,0
308.2583,308.79312,31,25,0
308.2583,308.79312,43,36,0
308.79312,309.8331,39,45,0
308.79312,309.8331,27,31,0
309.8331,310.1926,29,28,0
309.8331,310.1926,41,41,0
310.1926,310.3108,27,27,0
310.1926,310.3108,39,38,0
310.3108,310.84177,26,31,0
310.3108,310.84177,38,45,0
310.84177,311.34674,29,31,0
310.84177,311.34674,41,45,0
311.34674,311.88193,39,36,0
311.34674,311.88193,27,25,0
311.88193,312.90598,36,48,0
311.88193,312.90598,24,34,0
312.90598,313.26862,26,30,0
312.90598,313.26862,38,45,0
313.26862,313.38885,28,29,0
313.26862,313.38885,40,42,0
313.38885,313.9061,42,62,0
313.38885,313.9061,30,44,0
313.9061,314.40988,33,42,0
313.9061,314.40988,45,59,0
314.40988,314.77197,43,58,0
314.40988,314.77197,31,40,0
314.77197,314.89218,33,38,0
314.77197,314.89218,45,52,0
314.89218,315.40283,34,39,0
314.89218,315.40283,46,57,0
315.40283,315.91092,50,65,0
315.40283,315.91092,38,46,0
315.91092,316.3125,48,48,0
315.91092,316.3125,36,34,0
316.3125,316.45056,33,39,0
316.3125,316.45056,45,55,0
316.49655,317.05212,38,41,0
316.49655,317.05212,50,58,0
317.05212,318.1892,43,66,0
317.05212,318.1892,31,47,0
318.42175,318.79837,51,40,0
318.79837,319.17496,50,31,0
319.17496,319.95575,49,38,0
318.42175,319.95575,55,34,0
319.95575,320.721,45,39,0
320.721,321.09763,46,43,0
321.09763,321.4742,43,38,0
321.4742,321.85083,45,44,0
321.85083,322.22742,41,36,0
322.22742,322.604,43,42,0
322.604,322.98062,41,36,0
322.98062,323.3572,40,37,0
323.3572,323.73383,38,32,0
323.73383,324.52008,36,44,0
324.52008,325.30646,37,40,0
325.30646,325.7302,38,38,0
325.7302,326.12338,31,32,0
326.12338,326.96487,33,40,0
326.96487,327.90533,38,37,0
326.96487,327.90533,26,31,0
327.90533,328.28192,75,50,0
328.28192,328.65854,74,38,0
328.65854,329.43933,73,47,0
329.43933,330.2046,69,48,0
330.2046,330.57043,70,53,0
330.57043,330.94543,67,47,0
330.94543,331.31128,69,55,0
331.31128,331.69104,65,45,0
331.69104,332.06497,67,52,0
332.06497,332.4447,65,45,0
332.4447,332.81506,64,46,0
332.81506,333.19482,62,40,0
333.19482,333.98425,60,44,0
333.98425,334.7758,61,40,0
334.7758,335.2056,62,38,0
335.2056,335.604,58,32,0
335.604,336.01608,55,40,0
336.01608,336.4282,57,28,0
336.86423,337.30026,48,37,0
337.30026,337.69916,46,37,0
337.30026,337.69916,44,26,0
337.69916,338.09802,47,33,0
337.69916,338.09802,43,23,0
338.09802,338.48267,46,39,0
338.09802,338.48267,44,28,0
338.48267,338.87225,47,36,0
339.26187,339.67715,47,33,0
338.48267,339.67715,43,30,0
339.67715,340.06677,46,37,0
338.87225,340.06677,48,37,0
340.06677,340.4641,45,23,0
340.06677,340.4641,49,34,0
340.4641,340.8563,48,37,0
340.4641,340.8563,46,33,0
340.8563,341.2552,49,33,0
341.2552,341.64636,50,37,0
341.64636,342.05603,49,35,0
340.8563,342.05603,45,30,0
342.05603,342.4431,60,37,0
342.05603,342.4431,50,26,0
342.4431,342.83786,51,24,0
342.4431,342.83786,59,35,0
342.83786,343.2352,60,39,0
342.83786,343.2352,50,28,0
343.2352,343.63257,59,37,0
343.63257,344.02374,57,41,0
343.2352,344.42795,51,26,0
344.42795,344.81757,62,42,0
344.42795,344.81757,52,27,0
344.81757,345.21756,53,27,0
344.81757,345.21756,61,37,0
344.02374,345.21756,56,39,0
345.21756,345.6097,51,28,0
345.21756,345.6097,62,41,0
345.6097,346.0166,61,38,0
346.0166,346.4103,59,40,0
346.4103,346.80402,58,37,0
345.6097,346.80402,53,27,0
346.80402,347.19772,58,37,0
347.19772,347.5914,61,37,0
347.5914,347.9851,66,39,0
347.9851,348.4004,70,38,0
346.80402,348.4004,54,26,0
348.4004,348.7993,71,43,0
348.7993,349.19815,70,41,0
349.19815,349.60236,66,43,0
349.60236,350.03546,61,37,0
350.03546,350.4565,59,39,0
350.4565,350.9056,61,38,0
350.9056,351.3356,66,44,0
351.3356,351.76556,65,39,0
350.03546,351.76556,49,28,0
351.76556,352.16977,58,37,0
352.16977,352.57397,61,37,0
352.57397,352.96768,66,39,0
352.96768,353.4008,70,38,0
351.76556,353.4008,54,26,0
353.4008,353.79965,71,43,0
353.79965,354.19855,70,41,0
354.19855,354.60275,66,43,0
354.60275,355.03583,61,37,0
355.03583,355.44122,58,39,0
355.44122,355.85504,54,38,0
355.85504,356.2836,49,44,0
356.2836,356.71216,46,39,0
356.71216,357.11057,50,39,0
357.11057,357.50897,53,39,0
357.50897,357.8735,58,41,0
357.8735,358.2667,62,43,0
358.2667,358.6312,63,46,0
358.6312,358.9927,62,44,0
358.99573,359.36438,58,42,0
359.36746,359.7826,53,36,0
356.71216,359.7826,41,34,0
359.7826,360.1852,50,40,0
360.15295,360.57233,51,31,0
360.54007,360.96072,50,36,0
360.92715,361.32983,49,33,0
359.7826,361.32983,42,34,0
361.32983,361.70816,50,39,0
361.70816,362.08646,53,39,0
362.08646,362.44876,58,41,0
362.44876,362.81836,62,43,0
362.08646,362.81836,41,34,0
362.81836,363.18164,63,46,0
363.18164,363.5419,62,44,0
363.54495,363.91357,58,42,0
363.9167,364.3318,53,36,0
364.3318,364.73865,50,40,0
364.7068,365.12143,51,32,0
365.08896,365.51105,50,37,0
365.47858,365.8682,49,31,0
365.8682,366.24207,50,39,0
366.24207,366.61594,53,39,0
364.3318,366.61594,42,34,0
366.61594,366.97717,50,41,0
366.97717,367.34677,58,43,0
366.61594,367.34677,43,34,0
367.34677,367.71005,60,46,0
367.71005,368.0703,58,44,0
368.07333,368.442,55,42,0
368.44507,368.89072,50,36,0
368.89072,369.10873,46,40,0
369.10873,369.32678,48,34,0
369.32678,369.5448,46,40,0
369.5448,369.76282,45,34,0
369.76282,369.9082,46,34,0
369.9082,370.05557,50,37,0
370.05557,370.2056,55,40,0
370.54385,371.23773,55,49,0
371.23773,371.7336,53,40,0
370.74185,371.7336,62,44,0
368.89072,371.7336,42,34,0
370.2056,371.7336,47,43,0
370.35992,371.7336,50,47,0
371.7336,372.25534,60,42,0
371.7336,372.25534,48,34,0
371.7336,372.25534,51,34,0
372.25534,372.77707,51,36,0
372.25534,372.77707,58,43,0
372.77707,373.87198,62,47,0
372.77707,373.87198,53,39,0
373.87198,374.96686,41,37,0
373.87198,375.5045,60,44,0
375.5045,376.04214,58,39,0
374.96686,376.04214,46,42,0
376.04214,376.57977,53,44,0
376.57977,377.1174,50,40,0
377.1174,377.4855,46,34,0
377.1174,377.4855,58,40,0
377.4855,377.8536,57,40,0
377.8536,378.21722,55,32,0
378.21722,378.57227,53,33,0
378.57227,378.93372,52,35,0
378.93372,379.29962,50,37,0
377.8536,379.29962,48,27,0
379.29962,379.67572,48,39,0
379.67572,380.0574,46,40,0
380.0574,380.41455,45,41,0
380.41455,380.78043,46,40,0
380.78043,381.14627,48,39,0
381.14627,381.51212,50,38,0
379.29962,381.51212,36,33,0
381.51212,381.87796,52,37,0
381.87796,382.26312,53,36,0
381.51212,382.26312,36,31,0
382.26312,382.63522,55,35,0
382.63522,383.00333,57,35,0
383.00333,383.37143,58,37,0
383.37143,383.7395,59,35,0
382.26312,383.7395,48,29,0
383.7395,384.12238,60,42,0
384.12238,384.50522,58,38,0
383.7395,384.50522,48,36,0
384.50522,384.87268,57,55,0
384.50522,384.87268,41,39,0
384.87268,385.25552,55,54,0
384.87268,385.25552,43,38,0
385.25552,385.67062,44,36,0
385.25552,385.67062,53,52,0
385.67062,386.12726,45,35,0
385.67062,386.12726,51,50,0
386.12726,386.5319,50,37,0
386.5319,386.93652,53,40,0
386.12726,386.93652,46,40,0
386.93652,387.30612,58,43,0
387.30612,387.67572,57,39,0
386.93652,387.67572,34,46,0
387.67572,388.04532,55,39,0
388.04532,388.43048,53,39,0
388.43048,388.80008,51,39,0
388.80008,389.17838,50,44,0
388.43048,389.17838,46,42,0
389.17838,389.54797,48,48,0
389.54797,389.91757,50,39,0
389.17838,389.91757,34,52,0
389.91757,390.28717,51,39,0
390.28717,390.66547,53,36,0
390.66547,391.0438,55,39,0
391.0438,391.4221,56,44,0
390.66547,391.4221,46,42,0
391.4221,391.78955,57,39,0
391.78955,392.15704,55,39,0
391.4221,392.15704,34,42,0
392.15704,392.54218,53,41,0
392.54218,392.90967,51,39,0
392.90967,393.27924,50,44,0
393.27924,393.64883,48,38,0
392.90967,393.64883,46,38,0
393.64883,394.01843,46,46,0
394.01843,394.38803,50,35,0
393.64883,394.38803,34,50,0
394.38803,394.75763,53,39,0
394.75763,395.13818,58,35,0
395.13818,395.54285,62,37,0
395.54285,395.94748,65,40,0
395.13818,395.94748,58,40,0
395.94748,396.31708,70,43,0
396.31708,396.68668,69,39,0
396.68668,397.05624,67,39,0
397.05624,397.4414,65,39,0
395.94748,397.4414,58,46,0
397.4414,397.811,63,39,0
397.811,398.18933,62,44,0
397.4414,398.18933,58,42,0
398.18933,398.55893,60,48,0
398.55893,398.9285,62,39,0
398.18933,398.9285,46,52,0
398.9285,399.2981,63,39,0
399.2981,399.67642,65,36,0
399.67642,400.05472,67,39,0
400.05472,400.43304,68,44,0
399.67642,400.43304,58,42,0
400.43304,400.8005,69,39,0
400.8005,401.16797,67,39,0
400.43304,401.16797,46,42,0
401.16797,401.55313,65,41,0
401.55313,401.9206,63,39,0
401.9206,402.2902,62,44,0
402.2902,402.6598,60,38,0
401.9206,402.6598,58,41,0
402.6598,403.0294,58,46,0
403.0294,403.399,60,35,0
402.6598,403.399,46,50,0
403.399,403.76855,62,39,0
403.76855,404.14914,63,35,0
404.14914,404.5297,64,39,0
404.5297,404.91028,65,35,0
404.14914,404.91028,58,42,0
404.91028,405.28635,67,39,0
405.28635,405.6624,65,34,0
404.91028,405.6624,46,42,0
405.6624,406.04758,63,39,0
406.04758,406.41504,62,34,0
406.41504,406.79114,60,39,0
406.32318,406.79114,58,33,0
406.79114,407.1672,58,45,0
407.1672,407.5426,57,39,0
407.5426,407.92047,58,38,0
407.1672,407.92047,46,42,0
407.92047,408.30487,60,36,0
408.30487,408.69604,61,35,0
408.69604,409.09427,62,38,0
409.09427,409.50003,63,34,0
408.69604,411.22092,58,35,0
411.48322,411.7601,74,35,0
411.7601,412.0501,75,39,0
412.0501,412.35696,77,42,0
412.35696,414.34045,70,39,0
412.35696,414.34045,78,46,0
414.34045,415.4024,77,34,0
414.34045,415.4024,69,28,0
415.4024,418.58823,62,40,0
415.26965,418.58823,46,33,0
418.58823,425.03494,66,38,0
418.58823,425.03494,58,32,0
425.68713,428.43887,52,34,0
425.36102,428.43887,36,34,0
428.70065,432.06595,51,35,0
428.70065,432.06595,57,35,0
432.06595,437.36395,50,27,0
428.43887,437.36395,41,35,0
431.73483,437.36395,34,27,0
