start_time,end_time,note_value,velocity,instrument_program_number
1.0758195,1.254817,57,47,0
1.254817,1.3660147,58,63,0
1.3660147,1.4729437,52,46,0
1.4729437,1.5798726,61,46,0
1.5798726,1.6868017,64,63,0
1.6868017,1.7937306,55,47,0
1.7937306,1.9006597,57,47,0
1.9006597,2.0118573,58,63,0
2.0118573,2.1170762,53,48,0
2.1170762,2.222295,62,48,0
2.222295,2.327514,65,62,0
2.327514,2.4327326,57,47,0
2.4327326,2.5379515,60,47,0
2.5379515,2.6497707,61,62,0
2.6497707,2.751697,55,47,0
2.751697,2.8536234,64,47,0
2.8536234,2.9555497,67,62,0
2.9555497,3.0574763,58,47,0
3.0574763,3.1594026,62,47,0
3.1594026,3.2657628,63,62,0
3.2657628,3.3645966,57,46,0
3.3645966,3.4634304,69,47,0
3.4634304,3.5622644,72,62,0
3.5622644,3.6610982,60,48,0
3.6610982,3.759932,62,49,0
3.759932,3.863484,63,65,0
3.863484,3.9603643,58,49,0
3.9603643,4.057245,67,49,0
4.057245,4.154125,70,65,0
4.154125,4.2510056,62,50,0
4.2510056,4.3478866,64,50,0
4.3478866,4.4492855,65,67,0
4.4492855,4.546166,59,51,0
4.546166,4.643047,71,51,0
4.643047,4.7399273,74,67,0
4.7399273,4.8368077,65,52,0
4.8368077,4.933688,67,52,0
4.933688,5.038907,68,69,0
5.038907,5.146205,62,52,0
5.146205,5.2561436,74,56,0
5.2561436,5.35807,77,71,0
5.35807,5.4569035,65,57,0
5.4569035,5.5557375,68,59,0
5.5557375,5.6516604,69,76,0
5.6516604,5.747584,64,63,0
5.747584,5.8435073,73,63,0
5.8435073,5.9394307,76,77,0
5.9394307,6.035354,67,66,0
6.035354,6.1357155,69,67,0
6.1357155,6.2420754,70,81,0
6.2420754,6.341916,64,63,0
6.341916,6.4417562,73,59,0
6.4417562,6.541597,76,63,0
6.541597,6.641437,67,47,0
6.641437,6.741277,69,47,0
6.741277,6.846496,70,63,0
6.846496,6.9458404,65,48,0
6.9458404,7.0451846,74,48,0
7.0451846,7.141589,77,62,0
7.141589,7.2379932,69,47,0
7.2379932,7.3343973,72,47,0
7.3343973,7.441326,73,62,0
7.441326,7.54016,67,47,0
7.54016,7.638994,76,47,0
7.638994,7.7358747,79,62,0
7.7358747,7.832755,70,47,0
7.832755,7.9296355,74,47,0
7.9296355,8.037163,75,62,0
8.037163,8.13551,69,46,0
8.13551,8.233858,81,47,0
8.233858,8.33122,84,62,0
8.33122,8.428581,72,48,0
8.428581,8.525943,74,49,0
8.525943,8.632872,75,65,0
8.632872,8.732712,70,49,0
8.732712,8.832552,79,49,0
8.832552,8.932392,82,72,0
8.932392,9.032233,74,57,0
9.032233,9.132073,76,57,0
9.132073,9.237848,77,74,0
9.237848,9.34031,71,57,0
9.34031,9.443308,86,57,0
9.443308,9.546305,89,76,0
9.546305,9.649302,77,61,0
9.649302,9.752299,83,61,0
9.752299,9.859228,85,82,0
9.859228,9.961154,76,62,0
9.961154,10.063081,88,65,0
10.063081,10.170608,93,82,0
10.170608,10.278134,81,67,0
10.278134,10.385661,86,80,0
10.385661,10.708241,98,95,0
10.869532,11.04853,57,47,0
11.04853,11.159727,58,63,0
11.159727,11.266656,52,46,0
11.266656,11.373585,61,46,0
11.373585,11.480514,64,63,0
11.480514,11.587443,55,47,0
11.587443,11.694372,57,47,0
11.694372,11.80557,58,63,0
11.80557,11.908029,53,48,0
11.908029,12.010488,62,48,0
12.010488,12.1129465,65,62,0
12.1129465,12.215405,57,47,0
12.215405,12.317864,60,47,0
12.317864,12.429684,61,62,0
12.429684,12.5316105,55,47,0
12.5316105,12.633536,64,47,0
12.633536,12.735463,67,62,0
12.735463,12.837389,58,47,0
12.837389,12.939316,62,47,0
12.939316,13.045676,63,62,0
13.045676,13.14451,57,46,0
13.14451,13.243343,69,47,0
13.243343,13.342177,72,62,0
13.342177,13.441011,60,48,0
13.441011,13.539845,62,49,0
13.539845,13.643397,63,65,0
13.643397,13.738972,58,49,0
13.738972,13.834547,67,49,0
13.834547,13.930121,70,65,0
13.930121,14.025697,62,50,0
14.025697,14.121271,64,50,0
14.121271,14.222671,65,67,0
14.222671,14.319551,59,51,0
14.319551,14.416431,71,51,0
14.416431,14.513312,74,67,0
14.513312,14.610192,65,52,0
14.610192,14.707073,67,52,0
14.707073,14.812292,68,69,0
14.812292,14.91959,62,52,0
14.91959,15.029529,74,56,0
15.029529,15.131454,77,71,0
15.131454,15.2302885,65,57,0
15.2302885,15.329123,68,59,0
15.329123,15.425046,69,76,0
15.425046,15.520968,64,63,0
15.520968,15.616892,73,63,0
15.616892,15.712815,76,77,0
15.712815,15.808739,67,66,0
15.808739,15.909101,69,67,0
15.909101,16.015461,70,81,0
16.015461,16.112783,64,63,0
16.112783,16.210108,73,59,0
16.210108,16.307432,76,63,0
16.307432,16.404755,67,47,0
16.404755,16.502079,69,47,0
16.502079,16.607298,70,63,0
16.607298,16.706642,65,48,0
16.706642,16.805986,74,48,0
16.805986,16.901134,77,62,0
16.901134,16.99628,69,47,0
16.99628,17.091429,72,47,0
17.091429,17.198359,73,62,0
17.198359,17.297192,67,47,0
17.297192,17.396025,76,47,0
17.396025,17.4916,79,62,0
17.4916,17.587175,70,47,0
17.587175,17.68275,74,47,0
17.68275,17.790277,75,62,0
17.790277,17.888624,69,46,0
17.888624,17.986973,81,47,0
17.986973,18.084333,84,62,0
18.084333,18.181696,72,48,0
18.181696,18.279057,74,49,0
18.279057,18.385986,75,65,0
18.385986,18.485826,70,49,0
18.485826,18.585667,79,49,0
18.585667,18.685507,82,72,0
18.685507,18.785347,74,57,0
18.785347,18.885187,76,57,0
18.885187,18.990963,77,74,0
18.990963,19.093424,71,57,0
19.093424,19.196423,86,57,0
19.196423,19.29942,89,76,0
19.29942,19.402416,77,61,0
19.402416,19.505413,83,61,0
19.505413,19.612343,85,82,0
19.612343,19.71427,76,62,0
19.71427,19.816195,88,65,0
19.816195,19.923721,93,82,0
19.923721,20.031248,81,67,0
20.031248,20.138775,86,80,0
20.138775,20.461355,98,95,0
20.568882,20.668724,77,74,0
20.668724,20.768564,81,74,0
20.768564,20.87049,82,82,0
20.87049,20.972416,77,76,0
20.972416,21.094725,86,72,0
21.094725,21.200737,89,87,0
21.200737,21.306747,77,81,0
21.306747,21.412758,81,84,0
21.412758,21.515755,82,93,0
21.515755,21.618752,76,81,0
21.618752,21.72175,80,74,0
21.72175,21.824682,81,82,0
21.824682,21.927616,77,71,0
21.927616,22.03055,81,66,0
22.03055,22.132477,82,82,0
22.132477,22.234404,77,76,0
22.234404,22.356712,86,72,0
22.356712,22.462723,89,87,0
22.462723,22.56285,77,81,0
22.56285,22.665785,81,84,0
22.665785,22.766317,82,93,0
22.766317,22.866852,76,81,0
22.866852,22.967384,80,69,0
22.967384,23.069363,81,82,0
23.069363,23.17134,76,71,0
23.17134,23.27332,81,62,0
23.27332,23.375246,86,82,0
23.375246,23.47717,74,71,0
23.47717,23.599482,79,61,0
23.599482,23.69952,81,80,0
23.69952,23.79956,74,72,0
23.79956,23.899601,79,65,0
23.899601,24.00354,84,77,0
24.00354,24.10748,72,67,0
24.10748,24.211418,77,63,0
24.211418,24.315357,79,67,0
24.315357,24.419298,72,59,0
24.419298,24.523237,77,52,0
24.523237,24.625164,82,72,0
24.625164,24.727089,70,66,0
24.727089,24.849398,76,59,0
24.849398,24.949911,77,69,0
24.949911,25.050425,70,60,0
25.050425,25.150936,76,52,0
25.150936,25.255386,81,68,0
25.255386,25.359835,69,59,0
25.359835,25.464285,74,52,0
25.464285,25.568735,76,65,0
25.568735,25.673183,69,54,0
25.673183,25.777634,74,48,0
25.777634,25.87956,75,73,0
25.87956,25.981485,70,68,0
25.981485,26.103796,79,65,0
26.103796,26.20928,82,77,0
26.20928,26.314766,70,72,0
26.314766,26.420252,74,76,0
26.420252,26.523249,79,83,0
26.523249,26.626245,70,72,0
26.626245,26.729242,74,67,0
26.729242,26.83224,75,73,0
26.83224,26.935236,70,63,0
26.935236,27.038235,74,57,0
27.038235,27.14016,75,73,0
27.14016,27.242086,70,68,0
27.242086,27.364395,79,65,0
27.364395,27.468845,82,77,0
27.468845,27.573296,70,72,0
27.573296,27.677744,74,76,0
27.677744,27.78074,79,83,0
27.78074,27.88374,70,72,0
27.88374,27.986736,74,67,0
27.986736,28.089733,75,73,0
28.089733,28.19273,71,63,0
28.19273,28.295727,75,57,0
28.295727,28.39345,78,76,0
28.39345,28.491173,66,63,0
28.491173,28.588896,71,69,0
28.588896,28.692448,75,76,0
28.692448,28.796,63,66,0
28.796,28.899748,66,59,0
28.899748,29.003838,71,73,0
29.003838,29.10793,61,65,0
29.10793,29.212019,67,57,0
29.212019,29.31611,70,69,0
29.31611,29.420202,60,59,0
29.420202,29.523657,63,51,0
29.523657,29.620546,69,67,0
29.620546,29.717896,58,57,0
29.717896,29.815815,62,52,0
29.815815,29.914211,67,74,0
29.914211,30.013184,59,57,0
30.013184,30.112673,62,52,0
30.112673,30.212942,65,76,0
30.212942,30.313253,57,62,0
30.313253,30.413944,61,55,0
30.413944,30.515139,64,76,0
30.515139,30.619043,55,61,0
30.619043,30.72859,57,56,0
30.72859,30.839788,58,77,0
30.839788,30.946718,52,57,0
30.946718,31.053646,61,51,0
31.053646,31.160576,64,63,0
31.160576,31.267504,55,47,0
31.267504,31.374434,57,47,0
31.374434,31.485632,58,63,0
31.485632,31.59085,53,48,0
31.59085,31.696068,62,42,0
31.696068,31.801287,65,62,0
31.801287,31.906506,57,47,0
31.906506,32.011726,60,42,0
32.011726,32.123543,61,62,0
32.123543,32.220867,55,47,0
32.220867,32.31819,64,47,0
32.31819,32.415516,67,62,0
32.415516,32.51284,58,47,0
32.51284,32.610165,62,42,0
32.610165,32.716522,63,62,0
32.716522,32.813847,57,46,0
32.813847,32.91117,69,47,0
32.91117,33.008495,72,62,0
33.008495,33.10582,60,48,0
33.10582,33.20314,62,49,0
33.20314,33.306694,63,65,0
33.306694,33.403572,58,49,0
33.403572,33.500454,67,44,0
33.500454,33.597336,70,65,0
33.597336,33.694214,62,50,0
33.694214,33.791096,64,45,0
33.791096,33.892494,65,67,0
33.892494,33.987644,59,51,0
33.987644,34.08279,71,48,0
34.08279,34.177937,74,67,0
34.177937,34.273087,65,52,0
34.273087,34.368233,67,47,0
34.368233,34.47345,68,69,0
34.47345,34.58075,62,52,0
34.58075,34.69069,74,54,0
34.69069,34.792614,77,71,0
34.792614,34.89145,65,57,0
34.89145,34.99028,68,59,0
34.99028,35.086205,69,76,0
35.086205,35.18213,64,63,0
35.18213,35.278053,73,63,0
35.278053,35.373974,76,77,0
35.373974,35.4699,67,66,0
35.4699,35.57026,69,67,0
35.57026,35.67662,70,81,0
35.67662,35.773502,64,63,0
35.773502,35.87038,73,59,0
35.87038,35.967262,76,72,0
35.967262,36.064144,67,52,0
36.064144,36.161022,69,52,0
36.161022,36.266243,70,73,0
36.266243,36.365585,65,55,0
36.365585,36.46493,74,55,0
36.46493,36.561333,77,70,0
36.561333,36.657738,69,54,0
36.657738,36.754143,72,55,0
36.754143,36.861073,73,74,0
36.861073,36.959904,67,54,0
36.959904,37.05874,76,55,0
37.05874,37.15562,79,72,0
37.15562,37.2525,70,54,0
37.2525,37.34938,74,54,0
37.34938,37.45691,75,73,0
37.45691,37.555256,69,52,0
37.555256,37.653603,81,54,0
37.653603,37.750965,84,71,0
37.750965,37.848328,72,52,0
37.848328,37.945686,74,55,0
37.945686,38.052616,75,72,0
38.052616,38.15246,70,57,0
38.15246,38.252296,79,57,0
38.252296,38.35214,82,74,0
38.35214,38.451977,74,57,0
38.451977,38.55182,76,57,0
38.55182,38.657593,77,79,0
38.657593,38.760056,71,57,0
38.760056,38.863052,86,57,0
38.863052,38.96605,89,79,0
38.96605,39.069046,77,61,0
39.069046,39.172043,83,61,0
39.172043,39.278973,85,82,0
39.278973,39.3809,76,62,0
39.3809,39.482826,88,65,0
39.482826,39.59035,93,82,0
39.59035,39.69788,81,67,0
39.69788,39.805405,86,80,0
39.805405,40.15279,98,95,0
40.260315,40.360157,77,74,0
40.360157,40.459995,81,74,0
40.459995,40.561924,82,82,0
40.561924,40.66385,77,76,0
40.66385,40.78616,86,68,0
40.78616,40.888115,89,87,0
40.888115,40.990074,77,81,0
40.990074,41.092033,81,84,0
41.092033,41.19116,82,93,0
41.19116,41.290287,76,74,0
41.290287,41.389416,80,70,0
41.389416,41.491875,81,82,0
41.491875,41.594334,77,71,0
41.594334,41.696793,81,62,0
41.696793,41.798717,82,82,0
41.798717,41.900646,77,76,0
41.900646,42.022953,86,72,0
42.022953,42.126892,89,87,0
42.126892,42.23083,77,81,0
42.23083,42.33477,81,84,0
42.33477,42.437767,82,93,0
42.437767,42.540768,76,81,0
42.540768,42.643764,80,74,0
42.643764,42.74676,81,82,0
42.74676,42.84976,76,71,0
42.84976,42.952755,81,66,0
42.952755,43.05468,86,82,0
43.05468,43.15661,74,71,0
43.15661,43.278915,79,59,0
43.278915,43.37943,81,80,0
43.37943,43.479942,74,70,0
43.479942,43.580456,79,62,0
43.580456,43.68542,84,77,0
43.68542,43.790382,72,67,0
43.790382,43.895348,77,59,0
43.895348,44.000313,79,73,0
44.000313,44.105278,72,61,0
44.105278,44.210243,77,54,0
44.210243,44.31217,82,72,0
44.31217,44.414097,70,66,0
44.414097,44.536404,76,53,0
44.536404,44.63788,77,69,0
44.63788,44.73935,70,60,0
44.73935,44.84082,76,54,0
44.84082,44.94527,81,68,0
44.94527,45.049717,69,59,0
45.049717,45.154167,74,52,0
45.154167,45.258617,76,65,0
45.258617,45.363068,69,54,0
45.363068,45.467518,74,48,0
45.467518,45.569443,75,73,0
45.569443,45.671368,70,68,0
45.671368,45.79368,79,65,0
45.79368,45.898643,82,77,0
45.898643,46.00361,70,72,0
46.00361,46.108574,74,76,0
46.108574,46.21157,79,83,0
46.21157,46.314568,70,72,0
46.314568,46.417564,74,67,0
46.417564,46.52056,75,73,0
46.52056,46.623558,70,66,0
46.623558,46.726555,74,57,0
46.726555,46.828484,75,73,0
46.828484,46.93041,70,68,0
46.93041,47.05272,79,65,0
47.05272,47.15615,82,77,0
47.15615,47.259586,70,72,0
47.259586,47.363018,74,76,0
47.363018,47.46169,79,83,0
47.46169,47.560356,70,72,0
47.560356,47.659023,74,67,0
47.659023,47.759556,75,73,0
47.759556,47.86009,71,63,0
47.86009,47.96062,75,57,0
47.96062,48.058346,78,76,0
48.058346,48.156067,66,63,0
48.156067,48.25379,71,69,0
48.25379,48.35734,75,76,0
48.35734,48.460896,63,66,0
48.460896,48.56464,66,66,0
48.56464,48.66873,71,73,0
48.66873,48.772823,61,62,0
48.772823,48.876915,67,57,0
48.876915,48.981007,70,69,0
48.981007,49.085094,60,59,0
49.085094,49.188553,63,55,0
49.188553,49.285442,69,67,0
49.285442,49.38279,58,57,0
49.38279,49.48071,62,52,0
49.48071,49.579105,67,74,0
49.579105,49.678078,59,57,0
49.678078,49.77757,62,52,0
49.77757,49.87784,65,76,0
49.87784,49.97815,57,62,0
49.97815,50.07884,61,57,0
50.07884,50.180035,64,76,0
50.180035,50.28394,55,61,0
50.28394,50.393486,57,55,0
50.393486,50.504684,58,77,0
50.504684,50.61161,52,57,0
50.61161,50.71854,61,51,0
50.71854,50.82547,64,63,0
50.82547,50.9324,55,47,0
50.9324,51.03933,57,47,0
51.03933,51.150524,58,63,0
51.150524,51.255745,53,48,0
51.255745,51.360962,62,48,0
51.360962,51.466183,65,62,0
51.466183,51.5714,57,47,0
51.5714,51.67662,60,47,0
51.67662,51.78844,61,62,0
51.78844,51.890366,55,47,0
51.890366,51.99229,64,47,0
51.99229,52.09422,67,62,0
52.09422,52.196144,58,68,0
52.196144,52.298073,62,47,0
52.298073,52.40443,63,62,0
52.40443,52.503265,57,46,0
52.503265,52.6021,69,47,0
52.6021,52.70093,72,62,0
52.70093,52.799767,60,48,0
52.799767,52.8986,62,49,0
52.8986,53.00215,63,65,0
53.00215,53.099033,58,49,0
53.099033,53.195915,67,49,0
53.195915,53.292793,70,65,0
53.292793,53.389675,62,50,0
53.389675,53.486553,64,50,0
53.486553,53.587955,65,67,0
53.587955,53.684834,59,51,0
53.684834,53.781715,71,51,0
53.781715,53.878597,74,67,0
53.878597,53.975475,65,52,0
53.975475,54.072357,67,52,0
54.072357,54.177574,68,69,0
54.177574,54.284874,62,52,0
54.284874,54.394814,74,56,0
54.394814,54.49674,77,71,0
54.49674,54.595573,65,57,0
54.595573,54.694405,68,59,0
54.694405,54.79033,69,76,0
54.79033,54.886253,64,63,0
54.886253,54.982174,73,63,0
54.982174,55.0781,76,77,0
55.0781,55.174023,67,66,0
55.174023,55.274384,69,67,0
55.274384,55.380745,70,81,0
55.380745,55.47807,64,63,0
55.47807,55.57539,73,59,0
55.57539,55.672714,76,72,0
55.672714,55.77004,67,52,0
55.77004,55.867363,69,52,0
55.867363,55.97258,70,73,0
55.97258,56.071926,65,55,0
56.071926,56.17127,74,55,0
56.17127,56.265995,77,70,0
56.265995,56.360718,69,54,0
56.360718,56.45544,72,55,0
56.45544,56.56237,73,74,0
56.56237,56.661205,67,54,0
56.661205,56.760036,76,55,0
56.760036,56.855614,79,72,0
56.855614,56.951187,70,54,0
56.951187,57.046764,74,54,0
57.046764,57.15429,75,73,0
57.15429,57.252636,69,52,0
57.252636,57.350986,81,54,0
57.350986,57.447865,84,71,0
57.447865,57.544746,72,52,0
57.544746,57.64163,74,55,0
57.64163,57.748554,75,72,0
57.748554,57.848396,70,57,0
57.848396,57.948235,79,57,0
57.948235,58.048077,82,74,0
58.048077,58.14792,74,57,0
58.14792,58.247757,76,57,0
58.247757,58.35353,77,79,0
58.35353,58.455994,71,57,0
58.455994,58.55899,86,57,0
58.55899,58.661987,89,79,0
58.661987,58.764984,77,61,0
58.764984,58.867985,83,61,0
58.867985,58.97491,85,82,0
58.97491,59.07684,76,62,0
59.07684,59.178764,88,65,0
59.178764,59.287495,93,82,0
59.287495,59.39623,81,67,0
59.39623,59.50496,86,80,0
59.50496,59.682514,98,95,0
60.09743,60.218822,79,45,0
60.218822,60.339,77,51,0
60.339,60.451145,70,35,0
60.451145,60.56329,74,35,0
60.56329,60.675434,65,30,0
60.675434,60.801872,58,24,0
60.801872,60.92205,75,47,0
60.92205,61.033607,74,51,0
61.033607,61.145164,65,36,0
61.145164,61.25672,70,35,0
61.25672,61.36828,62,27,0
61.36828,61.495377,58,23,0
61.495377,61.614384,74,50,0
61.614384,61.73397,72,51,0
61.73397,61.8438,65,35,0
61.8438,61.953632,66,35,0
61.953632,62.06346,63,29,0
62.06346,62.1899,58,23,0
62.1899,62.308903,74,48,0
62.308903,62.419304,75,52,0
62.419304,62.529705,65,38,0
62.529705,62.640102,66,36,0
62.640102,62.750504,63,33,0
62.750504,62.8776,58,31,0
62.8776,62.997776,74,53,0
62.997776,63.108753,72,54,0
63.108753,63.21973,65,38,0
63.21973,63.330704,66,38,0
63.330704,63.44168,63,32,0
63.44168,63.56812,58,28,0
63.56812,63.687706,74,52,0
63.687706,63.798683,75,56,0
63.798683,63.909657,65,42,0
63.909657,64.02063,63,39,0
64.02063,64.13161,60,33,0
64.13161,64.26952,58,29,0
64.26952,64.3903,69,56,0
64.3903,64.50302,70,57,0
64.50302,64.615746,65,40,0
64.615746,64.72848,62,40,0
64.72848,64.8412,58,33,0
64.8412,64.967636,57,27,0
64.967636,65.08665,72,54,0
65.08665,65.19879,74,62,0
65.19879,65.310936,65,47,0
65.310936,65.42308,62,42,0
65.42308,65.535225,58,35,0
65.535225,65.66715,55,30,0
65.66715,65.78674,72,57,0
65.78674,65.89947,70,62,0
65.89947,66.01219,65,44,0
66.01219,66.12492,62,44,0
66.12492,66.23765,58,36,0
66.23765,66.368866,53,33,0
66.368866,66.48845,72,54,0
66.48845,66.60239,74,57,0
66.60239,66.716324,67,47,0
66.716324,66.83025,60,42,0
66.83025,66.94419,58,37,0
66.94419,67.07831,52,29,0
67.07831,67.1997,70,57,0
67.1997,67.316124,69,57,0
67.316124,67.432556,65,40,0
67.432556,67.54898,60,40,0
67.54898,67.66541,57,35,0
67.66541,67.79185,53,28,0
67.79185,67.91262,70,56,0
67.91262,68.03048,72,61,0
68.03048,68.14833,65,44,0
68.14833,68.26619,60,44,0
68.26619,68.38404,56,36,0
68.38404,68.53574,50,31,0
68.53574,68.662834,71,57,0
68.662834,68.781265,72,62,0
68.781265,68.89969,65,44,0
68.89969,69.01812,60,44,0
69.01812,69.13654,57,38,0
69.13654,69.27849,48,33,0
69.27849,69.40299,73,56,0
69.40299,69.52268,74,61,0
69.52268,69.64237,64,43,0
69.64237,69.76206,58,43,0
69.76206,69.88175,55,35,0
69.88175,70.01439,48,29,0
70.01439,70.13826,69,56,0
70.13826,70.2647,70,57,0
70.2647,70.391136,60,41,0
70.391136,70.51758,58,40,0
70.51758,70.64401,52,34,0
70.64401,70.77523,48,28,0
70.77523,70.904366,64,51,0
70.904366,71.03408,65,54,0
71.03408,71.1638,60,37,0
71.1638,71.29352,57,37,0
71.29352,71.42324,48,33,0
71.42324,71.59535,41,29,0
71.59535,71.71096,79,50,0
71.71096,71.83114,77,51,0
71.83114,71.944466,70,35,0
71.944466,72.05779,74,35,0
72.05779,72.17112,65,28,0
72.17112,72.29756,58,25,0
72.29756,72.41774,75,47,0
72.41774,72.53107,74,51,0
72.53107,72.644394,65,36,0
72.644394,72.75772,70,35,0
72.75772,72.87105,62,28,0
72.87105,72.998146,58,23,0
72.998146,73.11715,74,50,0
73.11715,73.23674,72,51,0
73.23674,73.348885,65,35,0
73.348885,73.46103,66,35,0
73.46103,73.57317,63,30,0
73.57317,73.699615,58,24,0
73.699615,73.81862,74,48,0
73.81862,73.93076,75,52,0
73.93076,74.04291,65,38,0
74.04291,74.15505,66,36,0
74.15505,74.2672,63,31,0
74.2672,74.394295,58,25,0
74.394295,74.51447,74,53,0
74.51447,74.62662,72,54,0
74.62662,74.73876,65,38,0
74.73876,74.85091,66,38,0
74.85091,74.96305,63,31,0
74.96305,75.08949,58,27,0
75.08949,75.20908,74,52,0
75.20908,75.32064,75,56,0
75.32064,75.4322,65,42,0
75.4322,75.543755,63,39,0
75.543755,75.65531,60,34,0
75.65531,75.79322,58,29,0
75.79322,75.913994,69,56,0
75.913994,76.026726,70,57,0
76.026726,76.13945,65,40,0
76.13945,76.252174,62,40,0
76.252174,76.36491,58,33,0
76.36491,76.49134,57,27,0
76.49134,76.610344,72,54,0
76.610344,76.72249,74,57,0
76.72249,76.83464,65,47,0
76.83464,76.946785,62,42,0
76.946785,77.05893,58,34,0
77.05893,77.19086,55,31,0
77.19086,77.31044,72,57,0
77.31044,77.422,70,57,0
77.422,77.533554,65,44,0
77.533554,77.64511,62,44,0
77.64511,77.756676,58,39,0
77.756676,77.887886,53,33,0
77.887886,78.00748,72,54,0
78.00748,78.1202,74,57,0
78.1202,78.23293,67,47,0
78.23293,78.34566,60,42,0
78.34566,78.45838,58,37,0
78.45838,78.59251,52,32,0
78.59251,78.71389,70,57,0
78.71389,78.82844,69,57,0
78.82844,78.942986,65,40,0
78.942986,79.05753,60,40,0
79.05753,79.17208,57,36,0
79.17208,79.29852,53,31,0
79.29852,79.4193,70,56,0
79.4193,79.53572,72,61,0
79.53572,79.65215,65,44,0
79.65215,79.76858,60,44,0
79.76858,79.88501,56,39,0
79.88501,80.036705,50,34,0
80.036705,80.1638,71,57,0
80.1638,80.28223,72,62,0
80.28223,80.40066,65,44,0
80.40066,80.51908,60,44,0
80.51908,80.63751,57,40,0
80.63751,80.77946,48,35,0
80.77946,80.90396,73,56,0
80.90396,81.02431,74,61,0
81.02431,81.14466,64,43,0
81.14466,81.265015,58,43,0
81.265015,81.38536,55,38,0
81.38536,81.518005,48,32,0
81.518005,81.64188,69,56,0
81.64188,81.76444,70,57,0
81.76444,81.88701,60,41,0
81.88701,82.00957,58,40,0
82.00957,82.14454,52,34,0
82.14454,82.27576,48,29,0
82.27576,82.40489,64,51,0
82.40489,82.53294,65,54,0
82.53294,82.661,60,37,0
82.661,82.78906,57,37,0
82.78906,82.91712,48,31,0
82.91712,83.10523,41,25,0
83.10523,83.22084,79,50,0
83.22084,83.34101,77,51,0
83.34101,83.45556,68,35,0
83.45556,83.57011,72,35,0
83.57011,83.684654,65,32,0
83.684654,83.8111,62,28,0
83.8111,83.931274,75,47,0
83.931274,84.04582,74,51,0
84.04582,84.16037,67,36,0
84.16037,84.27492,62,35,0
84.27492,84.389465,59,28,0
84.389465,84.51656,53,23,0
84.51656,84.63557,71,50,0
84.63557,84.75516,72,51,0
84.75516,84.86909,67,35,0
84.86909,84.983025,68,35,0
84.983025,85.096954,63,30,0
85.096954,85.2234,60,27,0
85.2234,85.3424,74,48,0
85.3424,85.459114,75,52,0
85.459114,85.57583,67,38,0
85.57583,85.69541,60,36,0
85.69541,85.815,55,32,0
85.815,85.9537,51,28,0
85.9537,86.073875,72,58,0
86.073875,86.18543,80,64,0
86.18543,86.29699,68,43,0
86.29699,86.408554,60,43,0
86.408554,86.52011,53,40,0
86.52011,86.646545,50,31,0
86.646545,86.766136,80,61,0
86.766136,86.87711,79,66,0
86.87711,86.98808,67,45,0
86.98808,87.09906,59,43,0
87.09906,87.21004,50,36,0
87.21004,87.347946,43,31,0
87.347946,87.46872,79,56,0
87.46872,87.580864,75,63,0
87.580864,87.69301,67,40,0
87.69301,87.80516,60,40,0
87.80516,87.917305,51,35,0
87.917305,88.04374,48,30,0
88.04374,88.16274,75,51,0
88.16274,88.275475,72,54,0
88.275475,88.3882,67,42,0
88.3882,88.50092,60,36,0
88.50092,88.613655,55,30,0
88.613655,88.76441,51,25,0
88.76441,88.884,77,50,0
88.884,88.99673,75,56,0
88.99673,89.10946,66,41,0
89.10946,89.22218,70,44,0
89.22218,89.33491,63,35,0
89.33491,89.466125,60,33,0
89.466125,89.58572,73,50,0
89.58572,89.70151,72,54,0
89.70151,89.81731,65,44,0
89.81731,89.9331,60,39,0
89.9331,90.0489,57,37,0
90.0489,90.183014,51,32,0
90.183014,90.304405,69,52,0
90.304405,90.42226,70,56,0
90.42226,90.540115,65,40,0
90.540115,90.65797,66,40,0
90.65797,90.775826,61,36,0
90.775826,90.90226,58,31,0
90.90226,91.02303,72,53,0
91.02303,91.140884,73,61,0
91.140884,91.25874,65,43,0
91.25874,91.376595,58,42,0
91.376595,91.49445,53,39,0
91.49445,91.64615,49,34,0
91.64615,91.77325,70,57,0
91.77325,91.895065,78,67,0
91.895065,92.016884,66,49,0
92.016884,92.1387,63,44,0
92.1387,92.26052,58,40,0
92.26052,92.402466,51,35,0
92.402466,92.52696,78,56,0
92.52696,92.65028,81,65,0
92.65028,92.773605,69,48,0
92.773605,92.893295,66,43,0
92.893295,93.02522,63,38,0
93.02522,93.172325,54,32,0
93.172325,93.31943,81,49,0
93.31943,93.45249,82,60,0
93.45249,93.58141,70,38,0
93.58141,93.71142,67,38,0
93.71142,93.842514,63,33,0
93.842514,93.974014,55,29,0
93.974014,94.10836,79,46,0
94.10836,94.245155,77,53,0
94.245155,94.38197,72,32,0
94.38197,94.51879,65,32,0
94.51879,94.65561,63,27,0
94.65561,94.90826,57,23,0
94.90826,95.023865,79,50,0
95.023865,95.14404,77,51,0
95.14404,95.25798,70,35,0
95.25798,95.37191,74,35,0
95.37191,95.48585,65,30,0
95.48585,95.61229,58,25,0
95.61229,95.73246,75,47,0
95.73246,95.8464,74,51,0
95.8464,95.960335,65,36,0
95.960335,96.074265,70,35,0
96.074265,96.1882,62,26,0
96.1882,96.3153,58,23,0
96.3153,96.4343,74,50,0
96.4343,96.553894,72,51,0
96.553894,96.66545,65,35,0
96.66545,96.77701,66,35,0
96.77701,96.888565,63,28,0
96.888565,97.015,58,23,0
97.015,97.134,74,48,0
97.134,97.246155,75,52,0
97.246155,97.3583,65,38,0
97.3583,97.47044,66,36,0
97.47044,97.58259,63,30,0
97.58259,97.70969,58,27,0
97.70969,97.829865,74,53,0
97.829865,97.94259,72,54,0
97.94259,98.05531,65,38,0
98.05531,98.168045,66,38,0
98.168045,98.28077,63,33,0
98.28077,98.40721,58,29,0
98.40721,98.526794,74,52,0
98.526794,98.63894,75,56,0
98.63894,98.75109,65,42,0
98.75109,98.863235,63,39,0
98.863235,98.97538,60,35,0
98.97538,99.11329,58,29,0
99.11329,99.23406,69,56,0
99.23406,99.34679,70,60,0
99.34679,99.45952,65,40,0
99.45952,99.57224,62,40,0
99.57224,99.68497,58,34,0
99.68497,99.81141,57,30,0
99.81141,99.93041,72,57,0
99.93041,100.04374,74,64,0
100.04374,100.15707,65,47,0
100.15707,100.27039,62,42,0
100.27039,100.38372,58,36,0
100.38372,100.51565,56,31,0
100.51565,100.63524,70,57,0
100.63524,100.74738,75,62,0
100.74738,100.85953,63,44,0
100.85953,100.97167,67,44,0
100.97167,101.08382,58,39,0
101.08382,101.215034,55,33,0
101.215034,101.334625,75,54,0
101.334625,101.44795,71,57,0
101.44795,101.56128,68,47,0
101.56128,101.67461,62,42,0
101.67461,101.78793,56,37,0
101.78793,101.92205,53,32,0
101.92205,102.04344,71,57,0
102.04344,102.159874,72,57,0
102.159874,102.2763,60,40,0
102.2763,102.39272,63,40,0
102.39272,102.509155,55,36,0
102.509155,102.63559,51,31,0
102.63559,102.75636,72,56,0
102.75636,102.874794,66,61,0
102.874794,102.99322,62,44,0
102.99322,103.11165,57,44,0
103.11165,103.23007,50,36,0
103.23007,103.381775,48,34,0
103.381775,103.50887,66,57,0
103.50887,103.62788,67,62,0
103.62788,103.74688,55,44,0
103.74688,103.86589,58,44,0
103.86589,103.98489,50,40,0
103.98489,104.12684,46,35,0
104.12684,104.251335,67,56,0
104.251335,104.37242,66,61,0
104.37242,104.4935,58,43,0
104.4935,104.61458,54,43,0
104.61458,104.73566,46,38,0
104.73566,104.8683,39,32,0
104.8683,104.99217,66,56,0
104.99217,105.11626,65,57,0
105.11626,105.24034,57,41,0
105.24034,105.364426,53,40,0
105.364426,105.4976,45,36,0
105.4976,105.628815,41,29,0
105.628815,105.75795,65,51,0
105.75795,105.887665,62,54,0
105.887665,106.01739,58,37,0
106.01739,106.1471,50,37,0
106.1471,106.276825,41,35,0
106.276825,106.44894,34,32,0
106.44894,106.564545,79,50,0
106.564545,106.68472,77,51,0
106.68472,106.79866,68,35,0
106.79866,106.91259,72,35,0
106.91259,107.02653,65,29,0
107.02653,107.15296,62,26,0
107.15296,107.27314,75,47,0
107.27314,107.38708,74,51,0
107.38708,107.501015,67,36,0
107.501015,107.614944,62,35,0
107.614944,107.72888,59,28,0
107.72888,107.85598,53,23,0
107.85598,107.97498,71,50,0
107.97498,108.094574,72,51,0
108.094574,108.2073,67,35,0
108.2073,108.32002,68,35,0
108.32002,108.432755,63,32,0
108.432755,108.55919,60,27,0
108.55919,108.67819,74,48,0
108.67819,108.79213,75,52,0
108.79213,108.90606,67,38,0
108.90606,109.02565,60,36,0
109.02565,109.14524,55,33,0
109.14524,109.283936,51,31,0
109.283936,109.40411,72,55,0
109.40411,109.51567,80,62,0
109.51567,109.62723,68,43,0
109.62723,109.738785,60,43,0
109.738785,109.85034,53,38,0
109.85034,109.97678,50,31,0
109.97678,110.09637,80,57,0
110.09637,110.20852,79,62,0
110.20852,110.32066,67,45,0
110.32066,110.43281,59,43,0
110.43281,110.54495,50,38,0
110.54495,110.68286,43,31,0
110.68286,110.803635,79,56,0
110.803635,110.91696,75,63,0
110.91696,111.03029,67,40,0
111.03029,111.143616,60,40,0
111.143616,111.25694,51,35,0
111.25694,111.383385,48,30,0
111.383385,111.50239,75,51,0
111.50239,111.616936,72,54,0
111.616936,111.73148,67,42,0
111.73148,111.84603,60,36,0
111.84603,111.96058,55,30,0
111.96058,112.11134,51,27,0
112.11134,112.23093,77,50,0
112.23093,112.345474,75,56,0
112.345474,112.46002,66,41,0
112.46002,112.57457,70,44,0
112.57457,112.68912,63,35,0
112.68912,112.820335,60,33,0
112.820335,112.939926,73,50,0
112.939926,113.05635,72,54,0
113.05635,113.17278,65,44,0
113.17278,113.28921,60,39,0
113.28921,113.40564,57,37,0
113.40564,113.53976,51,32,0
113.53976,113.66115,69,52,0
113.66115,113.77694,70,56,0
113.77694,113.89273,65,40,0
113.89273,114.00853,66,40,0
114.00853,114.12432,61,36,0
114.12432,114.25076,58,31,0
114.25076,114.37154,72,53,0
114.37154,114.48939,73,61,0
114.48939,114.60725,65,43,0
114.60725,114.7251,58,42,0
114.7251,114.84296,53,39,0
114.84296,114.99465,49,34,0
114.99465,115.12175,70,57,0
115.12175,115.24017,78,67,0
115.24017,115.358604,66,49,0
115.358604,115.477036,63,44,0
115.477036,115.59546,58,40,0
115.59546,115.737404,51,35,0
115.737404,115.86191,78,56,0
115.86191,115.98373,81,65,0
115.98373,116.10554,69,48,0
116.10554,116.2234,66,43,0
116.2234,116.35532,63,37,0
116.35532,116.502426,54,32,0
116.502426,116.64953,81,49,0
116.64953,116.78182,82,60,0
116.78182,116.91411,70,38,0
116.91411,117.0464,67,35,0
117.0464,117.17854,63,32,0
117.17854,117.310974,55,26,0
117.310974,117.44569,79,46,0
117.44569,117.58066,77,53,0
117.58066,117.71563,72,32,0
117.71563,117.85059,65,32,0
117.85059,117.985565,63,27,0
117.985565,118.23822,57,23,0
118.23822,118.35383,79,50,0
118.35383,118.47401,77,51,0
118.47401,118.58917,70,35,0
118.58917,118.70434,74,35,0
118.70434,118.81951,65,30,0
118.81951,118.945946,58,24,0
118.945946,119.066124,75,47,0
119.066124,119.18006,74,51,0
119.18006,119.29399,65,36,0
119.29399,119.40793,70,35,0
119.40793,119.52186,62,28,0
119.52186,119.64896,58,23,0
119.64896,119.76797,74,50,0
119.76797,119.88755,72,51,0
119.88755,119.999695,65,35,0
119.999695,120.11184,66,35,0
120.11184,120.22399,63,32,0
120.22399,120.350426,58,27,0
120.350426,120.46943,74,48,0
120.46943,120.58337,75,52,0
120.58337,120.697296,65,38,0
120.697296,120.81123,66,36,0
120.81123,120.92517,63,32,0
120.92517,121.05227,58,29,0
121.05227,121.17244,74,53,0
121.17244,121.28638,72,54,0
121.28638,121.400314,65,38,0
121.400314,121.514244,66,38,0
121.514244,121.62818,63,33,0
121.62818,121.754616,58,27,0
121.754616,121.87421,74,52,0
121.87421,121.98753,75,56,0
121.98753,122.10086,65,42,0
122.10086,122.21419,63,39,0
122.21419,122.327515,60,36,0
122.327515,122.46543,58,31,0
122.46543,122.586205,69,56,0
122.586205,122.69893,70,57,0
122.69893,122.81165,65,40,0
122.81165,122.924385,62,40,0
122.924385,123.03711,58,36,0
123.03711,123.16354,57,30,0
123.16354,123.282555,72,54,0
123.282555,123.39528,74,57,0
123.39528,123.508,65,47,0
123.508,123.620735,62,42,0
123.620735,123.73346,58,36,0
123.73346,123.86539,56,30,0
123.86539,123.98497,70,57,0
123.98497,124.0977,75,57,0
124.0977,124.21043,63,44,0
124.21043,124.32315,67,44,0
124.32315,124.43588,58,38,0
124.43588,124.5671,55,33,0
124.5671,124.68668,75,54,0
124.68668,124.80001,71,57,0
124.80001,124.91334,68,47,0
124.91334,125.026665,62,42,0
125.026665,125.13999,56,36,0
125.13999,125.27412,53,31,0
125.27412,125.39551,71,57,0
125.39551,125.51067,72,57,0
125.51067,125.62584,60,40,0
125.62584,125.741005,63,40,0
125.741005,125.85617,55,36,0
125.85617,125.98261,51,31,0
125.98261,126.103386,72,56,0
126.103386,126.22181,66,61,0
126.22181,126.34024,62,44,0
126.34024,126.458664,57,44,0
126.458664,126.577095,50,38,0
126.577095,126.72879,48,32,0
126.72879,126.85589,66,57,0
126.85589,126.9749,67,62,0
126.9749,127.0939,55,44,0
127.0939,127.212906,58,44,0
127.212906,127.33191,50,38,0
127.33191,127.473854,46,32,0
127.473854,127.59836,67,56,0
127.59836,127.71795,66,61,0
127.71795,127.83753,58,43,0
127.83753,127.95712,54,43,0
127.95712,128.0767,46,38,0
128.0767,128.20935,39,32,0
128.20935,128.33322,66,56,0
128.33322,128.4534,65,57,0
128.4534,128.57358,57,41,0
128.57358,128.69376,53,40,0
128.69376,128.81393,45,36,0
128.81393,128.94516,41,29,0
128.94516,129.07428,65,51,0
129.07428,129.19879,62,54,0
129.19879,129.32329,58,37,0
129.32329,129.4478,50,37,0
129.4478,129.5723,41,35,0
129.5723,129.74442,34,32,0
129.74442,129.86002,57,50,0
129.86002,129.98671,58,57,0
129.98671,130.09364,52,42,0
130.09364,130.20058,61,42,0
130.20058,130.3075,64,57,0
130.3075,130.41443,55,43,0
130.41443,130.52136,57,43,0
130.52136,130.63255,58,57,0
130.63255,130.73778,53,44,0
130.73778,130.84299,62,44,0
130.84299,130.94821,65,57,0
130.94821,131.05344,57,43,0
131.05344,131.15865,60,44,0
131.15865,131.27046,61,57,0
131.27046,131.37239,55,44,0
131.37239,131.47432,64,44,0
131.47432,131.57625,67,59,0
131.57625,131.67818,58,44,0
131.67818,131.7801,62,44,0
131.7801,131.88646,63,59,0
131.88646,131.98529,57,44,0
131.98529,132.08412,69,45,0
132.08412,132.18297,72,59,0
132.18297,132.2818,60,46,0
132.2818,132.38063,62,47,0
132.38063,132.48418,63,62,0
132.48418,132.57976,58,47,0
132.57976,132.67534,67,48,0
132.67534,132.7709,70,63,0
132.7709,132.86649,62,49,0
132.86649,132.96205,64,49,0
132.96205,133.06346,65,65,0
133.06346,133.1586,59,50,0
133.1586,133.25375,71,50,0
133.25375,133.34889,74,66,0
133.34889,133.44405,65,52,0
133.44405,133.5392,67,52,0
133.5392,133.64441,68,69,0
133.64441,133.75171,62,52,0
133.75171,133.86165,74,56,0
133.86165,133.96358,77,71,0
133.96358,134.06241,65,57,0
134.06241,134.16124,68,59,0
134.16124,134.25717,69,76,0
134.25717,134.35309,64,63,0
134.35309,134.449,73,63,0
134.449,134.54494,76,77,0
134.54494,134.64085,67,66,0
134.64085,134.74123,69,67,0
134.74123,134.84758,70,81,0
134.84758,134.94359,64,63,0
134.94359,135.0396,73,59,0
135.0396,135.1356,76,63,0
135.1356,135.2316,67,47,0
135.2316,135.3276,69,47,0
135.3276,135.43283,70,63,0
135.43283,135.53218,65,48,0
135.53218,135.63152,74,48,0
135.63152,135.72792,77,62,0
135.72792,135.82433,69,47,0
135.82433,135.92073,72,47,0
135.92073,136.02766,73,62,0
136.02766,136.1265,67,47,0
136.1265,136.22533,76,47,0
136.22533,136.3222,79,62,0
136.3222,136.41908,70,47,0
136.41908,136.51598,74,47,0
136.51598,136.62349,75,62,0
136.62349,136.72185,69,46,0
136.72185,136.82019,81,47,0
136.82019,136.91756,84,62,0
136.91756,137.01491,72,48,0
137.01491,137.11227,74,49,0
137.11227,137.21921,75,65,0
137.21921,137.31905,70,49,0
137.31905,137.41888,79,49,0
137.41888,137.51872,82,72,0
137.51872,137.61856,74,57,0
137.61856,137.71841,76,57,0
137.71841,137.82419,77,74,0
137.82419,137.92665,71,57,0
137.92665,138.02965,86,57,0
138.02965,138.13264,89,76,0
138.13264,138.23564,77,61,0
138.23564,138.33864,83,61,0
138.33864,138.44556,85,82,0
138.44556,138.54749,76,62,0
138.54749,138.64941,88,65,0
138.64941,138.75694,93,82,0
138.75694,138.86447,81,67,0
138.86447,138.972,86,80,0
138.972,139.29457,98,95,0
139.4021,139.50194,77,74,0
139.50194,139.60178,81,74,0
139.60178,139.7037,82,82,0
139.7037,139.80563,77,76,0
139.80563,139.92795,86,72,0
139.92795,140.03395,89,87,0
140.03395,140.13997,77,81,0
140.13997,140.24597,81,84,0
140.24597,140.34897,82,93,0
140.34897,140.45197,76,81,0
140.45197,140.55496,80,74,0
140.55496,140.65796,81,82,0
140.65796,140.76096,77,71,0
140.76096,140.86395,81,66,0
140.86395,140.96588,82,82,0
140.96588,141.06781,77,76,0
141.06781,141.19012,86,72,0
141.19012,141.29613,89,87,0
141.29613,141.40215,77,81,0
141.40215,141.50815,81,84,0
141.50815,141.61115,82,93,0
141.61115,141.71414,76,81,0
141.71414,141.81714,80,74,0
141.81714,141.92015,81,82,0
141.92015,142.02315,76,71,0
142.02315,142.12614,81,66,0
142.12614,142.22806,86,82,0
142.22806,142.32999,74,71,0
142.32999,142.4523,79,66,0
142.4523,142.55234,81,80,0
142.55234,142.65237,74,72,0
142.65237,142.75243,79,71,0
142.75243,142.85635,84,77,0
142.85635,142.9603,72,67,0
142.9603,143.06424,77,63,0
143.06424,143.16818,79,73,0
143.16818,143.27211,72,61,0
143.27211,143.37605,77,61,0
143.37605,143.47798,82,72,0
143.47798,143.57991,70,66,0
143.57991,143.70222,76,59,0
143.70222,143.80273,77,69,0
143.80273,143.90324,70,60,0
143.90324,144.00375,76,60,0
144.00375,144.1082,81,68,0
144.1082,144.21266,69,59,0
144.21266,144.31711,74,52,0
144.31711,144.42155,76,65,0
144.42155,144.526,69,54,0
144.526,144.63045,74,48,0
144.63045,144.73238,75,73,0
144.73238,144.8343,70,68,0
144.8343,144.95662,79,65,0
144.95662,145.05956,82,77,0
145.05956,145.16248,70,72,0
145.16248,145.26541,74,76,0
145.26541,145.36273,79,83,0
145.36273,145.46007,70,72,0
145.46007,145.55739,74,67,0
145.55739,145.65936,75,73,0
145.65936,145.76134,70,63,0
145.76134,145.86333,74,57,0
145.86333,145.96524,75,73,0
145.96524,146.06717,70,68,0
146.06717,146.18948,79,65,0
146.18948,146.29242,82,77,0
146.29242,146.39204,70,72,0
146.39204,146.49352,74,69,0
146.49352,146.59697,79,83,0
146.59697,146.70042,70,72,0
146.70042,146.80191,74,67,0
146.80191,146.9034,75,73,0
146.9034,147.0049,71,63,0
147.0049,147.10638,75,57,0
147.10638,147.20412,78,76,0
147.20412,147.30183,66,63,0
147.30183,147.39955,71,69,0
147.39955,147.50311,75,76,0
147.50311,147.60666,63,66,0
147.60666,147.7104,66,66,0
147.7104,147.8145,71,73,0
147.8145,147.9186,61,65,0
147.9186,148.02267,67,61,0
148.02267,148.12677,70,69,0
148.12677,148.23087,60,59,0
148.23087,148.33432,63,54,0
148.33432,148.43121,69,67,0
148.43121,148.52855,58,57,0
148.52855,148.62648,62,54,0
148.62648,148.72487,67,74,0
148.72487,148.82384,59,57,0
148.82384,148.92334,62,53,0
148.92334,149.0236,65,76,0
149.0236,149.12392,57,62,0
149.12392,149.22461,61,57,0
149.22461,149.3258,64,76,0
149.3258,149.4297,55,61,0
149.4297,149.53925,57,61,0
149.53925,149.65045,58,77,0
149.65045,149.75739,52,57,0
149.75739,149.8643,61,57,0
149.8643,149.97124,64,63,0
149.97124,150.07817,55,47,0
150.07817,150.18509,57,47,0
150.18509,150.2963,58,63,0
150.2963,150.4015,53,48,0
150.4015,150.50673,62,48,0
150.50673,150.61195,65,62,0
150.61195,150.71716,57,47,0
150.71716,150.82239,60,47,0
150.82239,150.9342,61,62,0
150.9342,151.03474,55,47,0
151.03474,151.13527,64,47,0
151.13527,151.23581,67,62,0
151.23581,151.33633,58,47,0
151.33633,151.43687,62,47,0
151.43687,151.54323,63,62,0
151.54323,151.63966,57,46,0
151.63966,151.73611,69,47,0
151.73611,151.83255,72,62,0
151.83255,151.929,60,48,0
151.929,152.02544,62,49,0
152.02544,152.12898,63,65,0
152.12898,152.22371,58,49,0
152.22371,152.31844,67,49,0
152.31844,152.41316,70,65,0
152.41316,152.50789,62,50,0
152.50789,152.6026,64,50,0
152.6026,152.70401,65,67,0
152.70401,152.79915,59,51,0
152.79915,152.8943,71,51,0
152.8943,152.98946,74,67,0
152.98946,153.0846,65,52,0
153.0846,153.17975,67,52,0
153.17975,153.28496,68,69,0
153.28496,153.39226,62,52,0
153.39226,153.5022,74,56,0
153.5022,153.60413,77,71,0
153.60413,153.70296,65,57,0
153.70296,153.80179,68,59,0
153.80179,153.89651,69,76,0
153.89651,153.99124,64,63,0
153.99124,154.08597,73,63,0
154.08597,154.1807,76,77,0
154.1807,154.2754,67,66,0
154.2754,154.37578,69,67,0
154.37578,154.48213,70,81,0
154.48213,154.58035,64,63,0
154.58035,154.67856,73,59,0
154.67856,154.77676,76,72,0
154.77676,154.87498,67,52,0
154.87498,154.97319,69,52,0
154.97319,155.07841,70,73,0
155.07841,155.17776,65,55,0
155.17776,155.2771,74,55,0
155.2771,155.37225,77,70,0
155.37225,155.46739,69,54,0
155.46739,155.56255,72,55,0
155.56255,155.66948,73,74,0
155.66948,155.76831,67,54,0
155.76831,155.86714,76,55,0
155.86714,155.96358,79,72,0
155.96358,156.06003,70,54,0
156.06003,156.15646,74,54,0
156.15646,156.26399,75,73,0
156.26399,156.36234,69,52,0
156.36234,156.4607,81,54,0
156.4607,156.55804,84,71,0
156.55804,156.65541,72,52,0
156.65541,156.75278,74,55,0
156.75278,156.85971,75,72,0
156.85971,156.95955,70,57,0
156.95955,157.05939,79,57,0
157.05939,157.15923,82,74,0
157.15923,157.25906,74,57,0
157.25906,157.3589,76,57,0
157.3589,157.46468,77,79,0
157.46468,157.56714,71,57,0
157.56714,157.67014,86,57,0
157.67014,157.77313,89,79,0
157.77313,157.87613,77,61,0
157.87613,157.97913,83,61,0
157.97913,158.08606,85,82,0
158.08606,158.20125,76,62,0
158.20125,158.31645,88,65,0
158.31645,158.44035,93,82,0
158.44035,158.56425,81,67,0
158.56425,158.68816,86,80,0
158.68816,159.04521,98,95,0
1.5798726,1.7001678,45,60,0
1.5798726,1.7001678,33,50,0
2.222295,2.3406663,50,60,0
2.222295,2.3406663,38,50,0
2.8536234,2.9682906,40,50,0
2.8536234,2.9682906,52,60,0
3.4634304,3.5746186,54,61,0
3.4634304,3.5746186,42,51,0
4.057245,4.1662354,55,63,0
4.057245,4.1662354,43,53,0
4.643047,4.752037,44,54,0
4.643047,4.752037,56,65,0
5.2561436,6.1357155,57,72,0
5.2561436,6.1357155,45,60,0
6.4417562,6.5540767,49,50,0
6.4417562,6.5540767,57,60,0
6.4417562,6.5540767,45,50,0
7.0451846,7.1536393,62,60,0
7.0451846,7.1536393,53,50,0
7.0451846,7.1536393,50,50,0
7.638994,7.7479844,55,50,0
7.638994,7.7479844,52,50,0
7.638994,7.7479844,61,60,0
8.233858,8.3433895,54,51,0
8.233858,8.3433895,60,51,0
8.233858,8.3433895,57,51,0
8.233858,8.3433895,62,61,0
8.832552,8.944873,55,53,0
8.832552,8.944873,67,63,0
8.832552,8.944873,63,53,0
8.832552,8.944873,58,53,0
9.443308,9.559179,59,54,0
9.443308,9.559179,56,54,0
9.443308,9.559179,62,54,0
9.443308,9.559179,65,65,0
10.063081,10.385661,69,68,0
10.063081,10.385661,57,56,0
10.063081,10.385661,61,56,0
10.385661,10.708241,69,56,0
10.385661,10.708241,65,56,0
10.385661,10.708241,62,56,0
10.385661,10.708241,74,68,0
11.373585,11.49388,33,50,0
11.373585,11.49388,45,60,0
12.010488,12.125754,50,60,0
12.010488,12.125754,38,50,0
12.633536,12.748204,40,50,0
12.633536,12.748204,52,60,0
13.243343,13.354531,54,61,0
13.243343,13.354531,42,51,0
13.834547,13.942068,55,63,0
13.834547,13.942068,43,53,0
14.416431,14.525422,44,54,0
14.416431,14.525422,56,65,0
15.029529,15.909101,45,60,0
15.029529,15.909101,57,72,0
16.210108,16.319597,45,50,0
16.210108,16.319597,49,50,0
16.210108,16.319597,57,60,0
16.805986,16.913027,50,50,0
16.805986,16.913027,53,50,0
16.805986,16.913027,62,60,0
17.396025,17.503548,61,60,0
17.396025,17.503548,52,50,0
17.396025,17.503548,55,50,0
17.986973,18.096504,62,61,0
17.986973,18.096504,60,51,0
17.986973,18.096504,57,51,0
17.986973,18.096504,54,51,0
18.585667,18.697987,63,53,0
18.585667,18.697987,67,63,0
18.585667,18.697987,58,53,0
18.585667,18.697987,55,53,0
19.196423,19.312294,65,65,0
19.196423,19.312294,59,54,0
19.196423,19.312294,62,54,0
19.196423,19.312294,56,54,0
19.816195,20.138775,69,68,0
19.816195,20.138775,57,56,0
19.816195,20.138775,61,56,0
20.138775,20.461355,69,56,0
20.138775,20.461355,74,68,0
20.138775,20.461355,62,56,0
20.138775,20.461355,65,56,0
21.094725,21.412758,69,73,0
21.412758,21.72175,70,80,0
21.094725,21.72175,62,54,0
21.72175,22.03055,69,73,0
21.72175,22.03055,60,56,0
22.356712,22.665785,69,73,0
22.665785,22.967384,70,80,0
22.356712,22.967384,62,49,0
22.967384,23.27332,60,51,0
22.967384,23.599482,69,73,0
23.27332,23.899601,58,59,0
23.599482,24.211418,67,76,0
23.899601,24.523237,57,60,0
24.211418,24.849398,65,76,0
24.523237,25.150936,55,59,0
24.849398,25.464285,64,71,0
25.464285,25.777634,62,68,0
25.150936,25.777634,53,54,0
26.103796,26.420252,63,66,0
26.103796,26.420252,58,55,0
26.103796,26.420252,55,55,0
26.420252,26.729242,62,59,0
26.420252,26.729242,56,49,0
26.420252,26.729242,67,71,0
26.420252,26.729242,58,49,0
26.729242,27.038235,58,55,0
26.729242,27.038235,55,55,0
26.729242,27.038235,63,66,0
27.364395,27.677744,55,55,0
27.364395,27.677744,63,66,0
27.364395,27.677744,58,55,0
27.677744,27.986736,62,59,0
27.677744,27.986736,58,49,0
27.677744,27.986736,56,49,0
27.677744,27.986736,67,71,0
27.986736,28.295727,63,66,0
27.986736,28.295727,55,55,0
27.986736,28.295727,58,55,0
28.295727,28.442312,66,71,0
28.295727,28.442312,54,57,0
28.588896,29.212019,51,66,0
29.212019,29.523657,52,59,0
29.523657,29.815815,54,59,0
29.815815,30.112673,55,65,0
30.112673,30.413944,56,70,0
30.413944,30.605377,57,74,0
31.053646,31.17394,45,60,0
31.053646,31.17394,33,50,0
31.696068,31.81444,50,60,0
31.696068,31.81444,38,50,0
32.31819,32.42768,52,60,0
32.31819,32.42768,40,50,0
32.91117,33.02066,54,61,0
32.91117,33.02066,42,51,0
33.500454,33.609444,43,53,0
33.500454,33.609444,55,63,0
34.08279,34.18983,44,54,0
34.08279,34.18983,56,65,0
35.278053,35.57026,61,73,0
34.69069,35.57026,57,72,0
34.69069,35.57026,45,60,0
35.494987,35.57026,45,49,0
35.87038,36.161022,61,62,0
35.57026,36.161022,57,73,0
36.088364,36.20048,50,51,0
36.46493,36.754143,65,62,0
36.161022,36.754143,62,81,0
36.68184,36.794243,52,49,0
37.05874,37.34938,67,67,0
36.754143,37.34938,64,76,0
37.276722,37.3897,54,52,0
37.653603,37.945686,69,67,0
37.34938,37.945686,66,81,0
37.872665,37.985786,55,55,0
38.252296,38.55182,70,68,0
37.945686,38.55182,67,84,0
38.47694,38.591484,56,57,0
38.863052,39.172043,71,68,0
38.55182,39.172043,68,87,0
39.172043,39.482826,69,76,0
39.172043,39.482826,57,63,0
39.482826,39.805405,67,63,0
39.482826,39.805405,64,63,0
39.482826,39.805405,73,76,0
39.482826,39.805405,69,63,0
39.805405,40.15279,62,63,0
39.805405,40.15279,69,63,0
39.805405,40.15279,65,63,0
39.805405,40.15279,74,76,0
40.78616,41.092033,69,73,0
41.092033,41.389416,70,80,0
40.78616,41.389416,62,48,0
41.389416,41.696793,60,55,0
41.389416,41.696793,69,73,0
42.022953,42.33477,69,73,0
42.33477,42.643764,70,80,0
42.022953,42.643764,62,48,0
42.643764,42.952755,60,56,0
42.643764,43.278915,69,73,0
42.952755,43.580456,58,59,0
43.278915,43.895348,67,76,0
43.580456,44.210243,57,60,0
43.895348,44.536404,65,76,0
44.210243,44.84082,55,59,0
44.536404,45.154167,64,71,0
45.154167,45.467518,62,68,0
44.84082,45.467518,53,54,0
45.79368,46.108574,63,66,0
45.79368,46.108574,58,55,0
45.79368,46.108574,55,55,0
46.108574,46.417564,56,49,0
46.108574,46.417564,62,59,0
46.108574,46.417564,67,71,0
46.108574,46.417564,58,49,0
46.417564,46.726555,58,55,0
46.417564,46.726555,55,55,0
46.417564,46.726555,63,66,0
47.05272,47.363018,63,66,0
47.05272,47.363018,58,55,0
47.05272,47.363018,55,55,0
47.363018,47.659023,67,71,0
47.363018,47.659023,56,49,0
47.363018,47.659023,58,49,0
47.363018,47.659023,62,59,0
47.659023,47.96062,63,66,0
47.659023,47.96062,58,55,0
47.659023,47.96062,55,55,0
47.96062,48.10721,66,71,0
47.96062,48.10721,54,57,0
48.25379,48.876915,51,66,0
48.876915,49.188553,52,59,0
49.188553,49.48071,54,59,0
49.48071,49.77757,55,65,0
49.77757,50.07884,56,70,0
50.07884,50.27027,57,74,0
50.71854,50.838837,45,60,0
50.71854,50.838837,33,50,0
51.360962,51.479336,50,60,0
51.360962,51.479336,38,50,0
51.99229,52.10696,52,60,0
51.99229,52.10696,40,50,0
52.6021,52.713287,54,61,0
52.6021,52.713287,42,51,0
53.195915,53.304905,55,63,0
53.195915,53.304905,43,53,0
53.781715,53.890705,56,65,0
53.781715,53.890705,44,54,0
54.982174,55.274384,61,73,0
54.394814,55.274384,45,60,0
55.199112,55.274384,45,49,0
54.394814,55.274384,57,72,0
55.57539,55.867363,61,62,0
55.274384,55.867363,57,73,0
55.79437,55.90682,50,51,0
56.17127,56.45544,65,62,0
55.867363,56.45544,62,81,0
56.3844,56.49554,52,49,0
56.760036,57.046764,67,67,0
56.45544,57.046764,64,76,0
56.975082,57.087086,54,52,0
57.350986,57.64163,69,67,0
57.046764,57.64163,66,81,0
57.568966,57.681725,55,55,0
57.948235,58.247757,70,68,0
57.64163,58.247757,67,84,0
58.17288,58.287422,56,57,0
58.55899,58.867985,71,68,0
58.247757,58.867985,68,87,0
58.867985,59.178764,69,76,0
58.867985,59.178764,57,63,0
59.178764,59.50496,69,63,0
59.178764,59.50496,64,63,0
59.178764,59.50496,67,63,0
59.178764,59.50496,73,76,0
59.50496,59.682514,69,63,0
59.50496,59.682514,65,63,0
59.50496,59.682514,62,63,0
59.50496,59.682514,74,76,0
130.20058,130.32086,33,45,0
130.20058,130.32086,45,54,0
130.84299,130.96136,50,55,0
130.84299,130.96136,38,46,0
131.47432,131.58899,40,47,0
131.47432,131.58899,52,56,0
132.08412,132.19531,54,58,0
132.08412,132.19531,42,48,0
132.67534,132.78285,55,62,0
132.67534,132.78285,43,51,0
133.25375,133.3608,44,54,0
133.25375,133.3608,56,65,0
133.86165,134.74123,45,60,0
133.86165,134.74123,57,72,0
135.0396,135.1476,45,50,0
135.0396,135.1476,49,50,0
135.0396,135.1476,57,60,0
135.63152,135.73997,50,50,0
135.63152,135.73997,53,50,0
135.63152,135.73997,62,60,0
136.22533,136.33432,61,60,0
136.22533,136.33432,52,50,0
136.22533,136.33432,55,50,0
136.82019,136.92972,62,61,0
136.82019,136.92972,60,51,0
136.82019,136.92972,57,51,0
136.82019,136.92972,54,51,0
137.41888,137.5312,63,53,0
137.41888,137.5312,67,63,0
137.41888,137.5312,58,53,0
137.41888,137.5312,55,53,0
138.02965,138.14551,65,65,0
138.02965,138.14551,59,54,0
138.02965,138.14551,62,54,0
138.02965,138.14551,56,54,0
138.64941,138.972,69,68,0
138.64941,138.972,57,56,0
138.64941,138.972,61,56,0
138.972,139.29457,69,56,0
138.972,139.29457,74,68,0
138.972,139.29457,62,56,0
138.972,139.29457,65,56,0
139.92795,140.24597,69,73,0
140.24597,140.55496,70,80,0
139.92795,140.55496,62,51,0
140.55496,140.86395,69,73,0
140.55496,140.86395,60,56,0
141.19012,141.50815,69,73,0
141.50815,141.81714,70,80,0
141.19012,141.81714,62,49,0
141.81714,142.12614,60,55,0
141.81714,142.4523,69,73,0
142.12614,142.75243,58,59,0
142.4523,143.06424,67,76,0
142.75243,143.37605,57,60,0
143.06424,143.70222,65,76,0
143.37605,144.00375,55,59,0
143.70222,144.31711,64,71,0
144.31711,144.63045,62,68,0
144.00375,144.63045,53,54,0
144.95662,145.26541,63,66,0
144.95662,145.26541,58,55,0
144.95662,145.26541,55,55,0
145.26541,145.55739,62,59,0
145.26541,145.55739,56,49,0
145.26541,145.55739,67,71,0
145.26541,145.55739,58,49,0
145.55739,145.86333,58,55,0
145.55739,145.86333,55,55,0
145.55739,145.86333,63,66,0
146.18948,146.49352,55,55,0
146.18948,146.49352,63,66,0
146.18948,146.49352,58,55,0
146.49352,146.80191,62,59,0
146.49352,146.80191,58,49,0
146.49352,146.80191,56,49,0
146.49352,146.80191,67,71,0
146.80191,147.10638,63,66,0
146.80191,147.10638,55,55,0
146.80191,147.10638,58,55,0
147.10638,147.25298,66,71,0
147.10638,147.25298,54,57,0
147.39955,148.02267,51,66,0
148.02267,148.33432,52,59,0
148.33432,148.62648,54,59,0
148.62648,148.92334,55,65,0
148.92334,149.22461,56,70,0
149.22461,149.41603,57,74,0
149.8643,149.9846,45,60,0
149.8643,149.9846,33,50,0
150.50673,150.6251,50,60,0
150.50673,150.6251,38,50,0
151.13527,151.24837,52,60,0
151.13527,151.24837,40,50,0
151.73611,151.8446,54,61,0
151.73611,151.8446,42,51,0
152.31844,152.425,43,53,0
152.31844,152.425,55,63,0
152.8943,153.00134,44,54,0
152.8943,153.00134,56,65,0
154.08597,154.37578,61,82,0
153.5022,154.37578,57,72,0
153.5022,154.37578,45,60,0
154.3005,154.37578,45,49,0
154.67856,154.97319,61,62,0
154.37578,154.97319,57,73,0
154.89954,155.01265,50,51,0
155.2771,155.56255,65,62,0
154.97319,155.56255,62,81,0
155.49118,155.60265,52,49,0
155.86714,156.15646,67,67,0
155.56255,156.15646,64,76,0
156.08414,156.1968,54,52,0
156.4607,156.75278,69,67,0
156.15646,156.75278,66,81,0
156.67975,156.79288,55,55,0
157.05939,157.3589,70,68,0
156.75278,157.3589,67,84,0
157.28403,157.39857,56,57,0
157.67014,157.97913,71,68,0
157.3589,157.97913,68,87,0
157.97913,158.31645,69,76,0
157.97913,158.31645,57,63,0
158.31645,158.68816,64,63,0
158.31645,158.68816,67,63,0
158.31645,158.68816,73,76,0
158.31645,158.68816,69,63,0
158.68816,159.04521,62,63,0
158.68816,159.04521,69,63,0
158.68816,159.04521,65,63,0
158.68816,159.04521,74,76,0
