start_time,end_time,note_value,velocity,instrument_program_number
1.0724806,1.1509037,62,27,0
1.1509037,1.2678355,66,40,0
1.1509037,1.2678355,60,40,0
1.3847673,1.4964492,67,45,0
1.3847673,1.4964492,58,45,0
1.7198132,1.798628,66,27,0
1.798628,1.9131668,69,42,0
1.798628,1.9131668,62,42,0
2.0277054,2.1385949,70,45,0
2.0277054,2.1385949,67,45,0
2.365718,2.444732,69,26,0
2.444732,2.560966,72,45,0
2.444732,2.560966,67,45,0
2.6772,2.782856,74,45,0
2.6772,2.782856,70,45,0
3.0166295,3.090365,75,26,0
3.090365,3.322833,79,42,0
3.090365,3.322833,72,35,0
3.322833,3.5527534,74,42,0
3.322833,3.5527534,70,35,0
3.6677136,3.7479405,67,28,0
3.7479405,3.8637438,70,45,0
3.7479405,3.8637438,62,45,0
3.979547,4.0908313,69,47,0
4.3134,4.3946695,69,36,0
4.3946695,4.510904,72,45,0
4.3946695,4.510904,63,45,0
4.6271377,4.7396235,70,46,0
4.964596,5.047588,66,29,0
5.047588,5.1673775,69,36,0
5.047588,5.1673775,60,36,0
5.2871666,5.4034004,67,42,0
5.2871666,5.4034004,58,42,0
5.6358685,5.721115,60,22,0
5.721115,5.84183,63,36,0
5.721115,5.84183,57,36,0
5.962545,6.0832596,62,36,0
5.962545,6.0832596,58,36,0
6.324689,6.4031124,62,27,0
6.4031124,6.520044,66,40,0
6.4031124,6.520044,60,40,0
6.636976,6.7486577,67,45,0
6.636976,6.7486577,58,45,0
6.9720216,7.0508366,66,27,0
7.0508366,7.165375,69,42,0
7.0508366,7.165375,62,42,0
7.279914,7.3908033,70,45,0
7.279914,7.3908033,67,45,0
7.6179266,7.6969404,69,26,0
7.6969404,7.8131747,72,45,0
7.6969404,7.8131747,67,45,0
7.9294086,8.035065,74,45,0
7.9294086,8.035065,70,45,0
8.283578,8.357313,75,26,0
8.357313,8.589781,79,42,0
8.357313,8.589781,72,35,0
8.589781,8.819702,74,42,0
8.589781,8.819702,70,35,0
8.934662,9.014889,67,28,0
9.014889,9.130692,70,45,0
9.014889,9.130692,62,45,0
9.246495,9.3577795,69,47,0
9.580348,9.661618,69,36,0
9.661618,9.777852,72,45,0
9.661618,9.777852,63,45,0
9.894086,10.006572,70,46,0
10.231544,10.314536,66,29,0
10.314536,10.434325,69,36,0
10.314536,10.434325,60,36,0
10.554114,10.670349,67,42,0
10.554114,10.670349,58,42,0
10.902817,10.988064,58,35,0
10.988064,11.229493,62,41,0
11.229493,11.350207,55,39,0
11.591638,11.67006,58,27,0
11.67006,11.786992,62,40,0
11.67006,11.786992,55,40,0
11.903924,12.015606,62,45,0
11.903924,12.015606,54,45,0
12.23897,12.317784,58,27,0
12.317784,12.432323,64,42,0
12.317784,12.432323,55,42,0
12.546863,12.657751,66,45,0
12.546863,12.657751,57,45,0
12.884874,12.963889,62,26,0
12.963889,13.080123,67,45,0
12.963889,13.080123,58,45,0
13.196357,13.302012,69,45,0
13.196357,13.302012,60,45,0
13.535787,13.609522,65,26,0
13.609522,13.725756,71,46,0
13.609522,13.725756,62,46,0
13.8419895,13.95695,72,50,0
13.8419895,13.95695,63,50,0
14.186871,14.267097,68,28,0
14.267097,14.3829,74,45,0
14.267097,14.3829,65,45,0
14.498704,14.609988,72,47,0
14.498704,14.609988,63,45,0
14.832557,14.913827,67,36,0
14.913827,15.030061,71,45,0
14.913827,15.030061,62,45,0
15.146295,15.2587385,72,46,0
15.146295,15.2587385,63,45,0
15.483625,15.566618,68,29,0
15.566618,15.686407,74,36,0
15.566618,15.686407,65,36,0
15.806196,15.920352,72,42,0
15.806196,15.920352,63,42,0
16.148663,16.23391,67,22,0
16.23391,16.354624,71,36,0
16.23391,16.354624,62,36,0
16.475338,16.596054,72,36,0
16.475338,16.596054,63,36,0
16.837482,16.915907,62,27,0
16.915907,17.032837,65,40,0
16.915907,17.032837,58,40,0
17.149769,17.261452,65,45,0
17.149769,17.261452,57,45,0
17.484816,17.563631,63,27,0
17.563631,17.67817,67,42,0
17.563631,17.67817,58,42,0
17.792707,17.903597,69,45,0
17.792707,17.903597,60,45,0
18.13072,18.209734,65,26,0
18.209734,18.325968,70,45,0
18.209734,18.325968,62,45,0
18.442202,18.54786,72,45,0
18.442202,18.54786,63,45,0
18.781631,18.855368,68,26,0
18.855368,18.971601,74,50,0
18.855368,18.971601,65,50,0
19.087835,19.202795,75,50,0
19.087835,19.202795,67,50,0
19.432716,19.512943,71,28,0
19.512943,19.628746,77,50,0
19.512943,19.628746,68,50,0
19.744549,19.858273,75,54,0
19.744549,19.858273,67,54,0
19.744549,19.858273,72,54,0
20.085716,20.169563,68,42,0
20.169563,20.291613,74,51,0
20.169563,20.291613,65,51,0
20.413664,20.530943,72,46,0
20.413664,20.530943,63,45,0
20.413664,20.530943,69,45,0
20.765501,20.85151,67,29,0
20.85151,20.978737,70,36,0
20.85151,20.978737,64,36,0
21.105963,21.231068,69,42,0
21.105963,21.231068,66,42,0
21.481276,21.57142,64,22,0
21.57142,21.70428,67,36,0
21.57142,21.70428,61,36,0
21.837141,21.970003,66,36,0
21.837141,21.970003,62,36,0
22.235725,22.314148,62,27,0
22.314148,22.43108,66,40,0
22.314148,22.43108,60,40,0
22.548012,22.659693,67,45,0
22.548012,22.659693,58,45,0
22.883057,22.961872,66,27,0
22.961872,23.07641,69,42,0
22.961872,23.07641,62,42,0
23.19095,23.30184,70,45,0
23.19095,23.30184,67,45,0
23.528963,23.607977,69,26,0
23.607977,23.72421,72,45,0
23.607977,23.72421,67,45,0
23.840445,23.9461,74,45,0
23.840445,23.9461,70,45,0
24.200272,24.274006,75,26,0
24.274006,24.506475,79,42,0
24.274006,24.506475,72,35,0
24.506475,24.736395,74,42,0
24.506475,24.736395,70,35,0
24.851355,24.931581,67,28,0
24.931581,25.047386,70,45,0
24.931581,25.047386,62,45,0
25.163189,25.274473,69,47,0
25.497042,25.578312,69,36,0
25.578312,25.694546,72,45,0
25.578312,25.694546,63,45,0
25.81078,25.923265,70,46,0
26.148237,26.23123,66,29,0
26.23123,26.351019,69,36,0
26.23123,26.351019,60,36,0
26.470808,26.587042,67,42,0
26.470808,26.587042,58,42,0
26.81951,26.904757,60,22,0
26.904757,27.02547,63,36,0
26.904757,27.02547,57,36,0
27.146187,27.266901,62,36,0
27.146187,27.266901,58,36,0
27.508331,27.586754,62,27,0
27.586754,27.703686,66,40,0
27.586754,27.703686,60,40,0
27.820618,27.932299,67,45,0
27.820618,27.932299,58,45,0
28.155663,28.234478,66,27,0
28.234478,28.349016,69,42,0
28.234478,28.349016,62,42,0
28.463556,28.574444,70,45,0
28.463556,28.574444,67,45,0
28.801567,28.880583,69,26,0
28.880583,28.996817,72,45,0
28.880583,28.996817,67,45,0
29.11305,29.218706,74,45,0
29.11305,29.218706,70,45,0
29.45248,29.526215,75,26,0
29.526215,29.758682,79,50,0
29.526215,29.758682,72,50,0
29.758682,29.988604,74,50,0
29.758682,29.988604,70,50,0
30.103563,30.18379,67,28,0
30.18379,30.299593,70,45,0
30.18379,30.299593,62,45,0
30.415398,30.526682,69,47,0
30.74925,30.83052,69,36,0
30.83052,30.946754,72,45,0
30.83052,30.946754,63,45,0
31.062988,31.175474,70,46,0
31.400446,31.483438,66,29,0
31.483438,31.603228,69,36,0
31.483438,31.603228,60,36,0
31.723017,31.83925,67,42,0
31.723017,31.83925,58,42,0
32.07172,32.156963,58,35,0
32.156963,32.414696,62,41,0
32.414696,32.535275,55,39,0
32.776432,32.85486,58,27,0
32.85486,32.97179,62,40,0
32.85486,32.97179,55,40,0
33.08872,33.2004,62,45,0
33.08872,33.2004,54,45,0
33.423767,33.502583,58,27,0
33.502583,33.61712,64,42,0
33.502583,33.61712,55,42,0
33.73166,33.84255,66,45,0
33.73166,33.84255,57,45,0
34.06967,34.148685,62,26,0
34.148685,34.26492,67,45,0
34.148685,34.26492,58,45,0
34.381153,34.48681,69,45,0
34.381153,34.48681,60,45,0
34.72058,34.79432,65,26,0
34.79432,34.910553,71,46,0
34.79432,34.910553,62,46,0
35.026787,35.141747,72,50,0
35.026787,35.141747,63,50,0
35.371666,35.451893,68,28,0
35.451893,35.567696,74,45,0
35.451893,35.567696,65,45,0
35.6835,35.794785,72,47,0
35.6835,35.794785,63,45,0
36.017353,36.09862,67,36,0
36.09862,36.214855,71,45,0
36.09862,36.214855,62,45,0
36.33109,36.443577,72,46,0
36.33109,36.443577,63,45,0
36.66855,36.75154,68,29,0
36.75154,36.87133,74,36,0
36.75154,36.87133,65,36,0
36.99112,37.107353,72,42,0
36.99112,37.107353,63,42,0
37.33982,37.425068,67,22,0
37.425068,37.545784,71,36,0
37.425068,37.545784,62,36,0
37.666496,37.787212,72,36,0
37.666496,37.787212,63,36,0
38.02864,38.107067,62,27,0
38.107067,38.223995,65,40,0
38.107067,38.223995,58,40,0
38.340927,38.45261,65,45,0
38.340927,38.45261,57,45,0
38.675976,38.75479,63,27,0
38.75479,38.869328,67,42,0
38.75479,38.869328,58,42,0
38.983868,39.094757,69,45,0
38.983868,39.094757,60,45,0
39.32188,39.400894,65,26,0
39.400894,39.517128,70,45,0
39.400894,39.517128,62,45,0
39.63336,39.739017,72,45,0
39.63336,39.739017,63,45,0
39.97279,40.046528,68,26,0
40.046528,40.16276,74,50,0
40.046528,40.16276,65,50,0
40.278996,40.393955,75,50,0
40.278996,40.393955,67,50,0
40.623875,40.7041,71,28,0
40.7041,40.819904,77,50,0
40.7041,40.819904,68,50,0
40.935707,41.047733,75,54,0
40.935707,41.047733,67,54,0
40.935707,41.047733,72,54,0
41.271782,41.35305,68,42,0
41.35305,41.478153,74,51,0
41.35305,41.478153,65,51,0
41.60326,41.72193,72,46,0
41.60326,41.72193,63,45,0
41.60326,41.72193,69,45,0
41.95927,42.047558,67,29,0
42.047558,42.176983,70,36,0
42.047558,42.176983,64,36,0
42.306404,42.428455,69,42,0
42.306404,42.428455,66,42,0
42.672554,42.763245,64,22,0
42.763245,42.89552,67,36,0
42.763245,42.89552,61,36,0
43.027794,43.16007,66,36,0
43.027794,43.16007,62,36,0
43.42462,43.503044,62,27,0
43.503044,43.619976,66,40,0
43.503044,43.619976,60,40,0
43.736908,43.84859,67,45,0
43.736908,43.84859,58,45,0
44.071953,44.131065,66,27,0
44.15077,44.23667,69,42,0
44.15077,44.23667,62,42,0
44.379845,44.463013,70,45,0
44.379845,44.463013,67,45,0
44.717857,44.79687,69,26,0
44.79687,44.913105,72,45,0
44.79687,44.913105,67,45,0
45.02934,45.134995,74,45,0
45.02934,45.134995,70,45,0
45.39609,45.46983,75,26,0
45.46983,45.702297,79,42,0
45.46983,45.702297,72,35,0
45.702297,45.932217,74,42,0
45.702297,45.932217,70,35,0
46.047176,46.127403,67,28,0
46.127403,46.243206,70,45,0
46.127403,46.243206,62,45,0
46.35901,46.470295,69,47,0
46.692863,46.77413,69,36,0
46.77413,46.890366,72,45,0
46.77413,46.890366,63,45,0
47.0066,47.119087,70,46,0
47.34406,47.42705,66,29,0
47.42705,47.54684,69,36,0
47.42705,47.54684,60,36,0
47.66663,47.782864,67,42,0
47.66663,47.782864,58,42,0
48.01533,48.10058,60,22,0
48.10058,48.221294,63,36,0
48.10058,48.221294,57,36,0
48.342007,48.462723,62,36,0
48.342007,48.462723,58,36,0
48.70415,48.782574,62,27,0
48.782574,48.899506,66,40,0
48.782574,48.899506,60,40,0
49.016438,49.12812,67,45,0
49.016438,49.12812,58,45,0
49.351486,49.430298,66,27,0
49.430298,49.544838,69,42,0
49.430298,49.544838,62,42,0
49.659378,49.770267,70,45,0
49.659378,49.770267,67,45,0
49.99739,50.076405,69,26,0
50.076405,50.19264,72,45,0
50.076405,50.19264,67,45,0
50.308872,50.414528,74,45,0
50.308872,50.414528,70,45,0
50.666523,50.74026,75,26,0
50.74026,50.97273,79,42,0
50.74026,50.97273,72,35,0
50.97273,51.20265,74,42,0
50.97273,51.20265,70,35,0
51.317608,51.397835,67,28,0
51.397835,51.513638,70,45,0
51.397835,51.513638,62,45,0
51.629444,51.740726,69,47,0
51.963295,52.044563,69,36,0
52.044563,52.160797,72,45,0
52.044563,52.160797,63,45,0
52.277035,52.38952,70,46,0
52.61449,52.697483,66,29,0
52.697483,52.817272,69,36,0
52.697483,52.817272,60,36,0
52.93706,53.053295,67,42,0
52.93706,53.053295,58,42,0
53.285763,53.37101,58,35,0
53.37101,53.61244,62,41,0
53.61244,53.733154,55,39,0
53.974583,54.05301,53,31,0
54.05301,54.286873,58,46,0
54.286873,54.523388,50,51,0
54.641647,54.759907,65,33,0
54.730343,54.994663,70,46,0
54.994663,55.227654,62,43,0
55.34415,55.460648,55,29,0
55.431522,55.693638,58,42,0
55.693638,55.93563,48,51,0
56.05389,56.17215,67,31,0
56.142586,56.40734,70,58,0
56.40734,56.641205,60,54,0
56.75684,56.87247,55,29,0
56.843563,57.10374,58,55,0
57.10374,57.337605,48,51,0
57.454536,57.57147,67,31,0
57.542233,57.80533,70,52,0
57.80533,58.040073,60,51,0
58.157444,58.274815,53,36,0
58.245472,58.509556,57,49,0
58.509556,58.761658,48,51,0
58.883114,59.004574,65,31,0
58.97421,59.247486,69,48,0
59.247486,59.490402,60,41,0
59.61186,59.73332,53,29,0
59.702953,60.02214,58,42,0
60.02214,60.261356,50,51,0
60.380962,60.497894,65,33,0
60.468662,60.731323,70,57,0
60.731323,60.964314,62,43,0
61.07952,61.19473,55,29,0
61.165928,61.425144,58,50,0
61.425144,61.670925,48,51,0
61.78874,61.90567,67,31,0
61.876434,62.139534,70,58,0
62.139534,62.373394,60,54,0
62.490326,62.607258,55,29,0
62.578026,62.84112,58,55,0
62.84112,63.075863,48,51,0
63.193237,63.310608,67,31,0
63.281265,63.54579,70,57,0
63.54579,63.781418,60,51,0
63.90057,64.01972,53,36,0
63.989933,64.29827,57,49,0
64.29827,64.55099,48,51,0
64.669685,64.78839,65,31,0
64.75871,65.02579,69,48,0
65.02579,65.25965,60,41,0
65.37658,65.493515,58,29,0
65.46428,65.74124,62,42,0
65.74124,65.97598,53,51,0
66.09335,66.210724,70,33,0
66.18138,66.445465,74,57,0
66.445465,66.68021,65,43,0
66.797585,66.91584,59,29,0
66.88628,67.15236,62,50,0
67.15236,67.39157,53,51,0
67.511185,67.63079,71,31,0
67.60089,67.86777,74,58,0
67.86777,68.10251,65,54,0
68.21988,68.33725,59,29,0
68.30791,68.57199,62,55,0
68.57199,68.80674,55,51,0
68.92411,69.0406,71,31,0
69.01148,69.2736,74,57,0
69.2736,69.506584,67,51,0
69.623085,69.74408,60,36,0
69.71383,69.98608,63,49,0
69.98608,70.251656,55,51,0
70.36947,70.48728,72,31,0
70.457825,70.72291,75,48,0
70.72291,70.95418,67,41,0
71.06981,71.18544,60,29,0
71.15653,71.41671,63,42,0
71.41671,71.65057,55,51,0
71.7675,71.88444,72,33,0
71.8552,72.11787,75,57,0
72.11787,72.35085,67,43,0
72.467354,72.58742,61,29,0
72.5574,72.82755,64,50,0
72.82755,73.07049,55,51,0
73.189186,73.307884,73,31,0
73.27821,73.54528,76,58,0
73.54528,73.7818,67,54,0
73.90006,74.01832,61,29,0
73.988754,74.25484,64,55,0
74.25484,74.491356,57,51,0
74.60962,74.73015,73,31,0
74.70001,74.97121,76,57,0
74.97121,75.212265,69,51,0
75.3328,75.45569,57,36,0
75.424965,75.70147,62,49,0
75.70147,75.94725,50,51,0
76.070145,76.19303,69,31,0
76.16231,76.43881,74,48,0
76.43881,76.68459,62,41,0
76.80749,76.930374,53,29,0
76.89965,77.220535,58,42,0
77.220535,77.46632,50,51,0
77.58921,77.7121,65,33,0
77.68138,77.955055,70,57,0
77.955055,78.19519,62,43,0
78.31526,78.439125,54,29,0
78.40816,78.68685,58,50,0
78.68685,78.92885,48,51,0
79.04984,79.170845,66,31,0
79.140594,79.412834,70,58,0
79.412834,79.65483,60,54,0
79.775826,79.89682,54,29,0
79.86658,80.13882,58,55,0
80.13882,80.379875,48,62,0
80.4994,80.61892,66,33,0
80.58904,80.85796,70,57,0
81.21798,81.33894,53,29,0
81.3087,81.6034,58,57,0
81.6034,81.8454,46,62,0
81.96639,82.08739,65,31,0
82.057144,82.329384,70,62,0
82.329384,82.57138,58,56,0
82.692375,82.81337,58,39,0
82.78313,83.05537,62,55,0
83.05537,83.29736,53,51,0
83.41836,83.53935,70,33,0
83.5091,83.77996,74,57,0
83.77996,84.01917,65,43,0
84.13878,84.26025,58,29,0
84.22988,84.50318,62,50,0
84.50318,84.74612,52,51,0
84.867584,84.98616,70,31,0
84.95652,85.22332,74,58,0
85.22332,85.46047,64,54,0
85.57905,85.697624,58,29,0
85.667984,85.93478,62,55,0
85.93478,86.171295,52,62,0
86.28956,86.407814,70,33,0
86.37825,86.64433,74,57,0
86.999115,87.11737,57,29,0
87.08781,87.36633,62,57,0
87.36633,87.602554,50,62,0
87.720665,87.838776,69,31,0
87.80925,88.075,74,62,0
88.075,88.31122,62,56,0
88.42933,88.54744,67,39,0
88.54744,88.66555,71,46,0
88.54744,88.66555,65,46,0
88.78365,88.89534,72,51,0
88.78365,88.89534,63,51,0
89.118706,89.19752,71,31,0
89.19752,89.31206,74,48,0
89.19752,89.31206,67,48,0
89.4266,89.53748,75,51,0
89.4266,89.53748,72,51,0
89.76461,89.84362,74,29,0
89.84362,89.959854,77,51,0
89.84362,89.959854,72,51,0
90.07609,90.18175,79,51,0
90.07609,90.18175,75,51,0
90.44365,90.51739,80,29,0
90.51739,90.749855,84,48,0
90.51739,90.749855,77,40,0
90.749855,90.979774,79,48,0
90.749855,90.979774,75,40,0
91.094734,91.174965,72,32,0
91.174965,91.290764,75,51,0
91.174965,91.290764,67,51,0
91.40657,91.51785,74,54,0
91.740425,91.82169,74,41,0
91.82169,91.93793,77,51,0
91.82169,91.93793,68,51,0
92.05416,92.16665,75,52,0
92.39162,92.47461,71,33,0
92.47461,92.5944,74,41,0
92.47461,92.5944,65,41,0
92.71419,92.83042,72,48,0
92.71419,92.83042,63,48,0
93.06289,93.14814,65,25,0
93.14814,93.26885,68,41,0
93.14814,93.26885,62,41,0
93.389565,93.510284,67,41,0
93.389565,93.510284,63,41,0
93.75171,93.83013,67,31,0
93.83013,93.94707,66,46,0
93.83013,93.94707,60,46,0
94.063995,94.17568,67,51,0
94.063995,94.17568,58,51,0
94.39904,94.47786,66,31,0
94.47786,94.5924,69,48,0
94.47786,94.5924,62,48,0
94.70694,94.817825,70,51,0
94.70694,94.817825,67,51,0
95.04495,95.12396,69,29,0
95.12396,95.2402,72,51,0
95.12396,95.2402,67,51,0
95.35643,95.46209,74,51,0
95.35643,95.46209,70,51,0
95.69586,95.76959,75,29,0
95.76959,96.00206,79,57,0
95.76959,96.00206,72,48,0
96.00206,96.23199,74,57,0
96.00206,96.23199,70,48,0
96.34695,96.42717,67,32,0
96.42717,96.54298,70,51,0
96.42717,96.54298,62,51,0
96.658775,96.770065,69,54,0
96.99263,97.0739,69,41,0
97.0739,97.19013,72,51,0
97.0739,97.19013,63,51,0
97.306366,97.41885,70,52,0
97.64383,97.72682,66,33,0
97.72682,97.84661,69,41,0
97.72682,97.84661,60,41,0
97.9664,98.082634,67,48,0
97.9664,98.082634,58,48,0
98.3151,98.400345,58,40,0
98.400345,98.64178,62,47,0
98.64178,98.76249,55,44,0
99.00392,99.082344,58,31,0
99.082344,99.19927,62,46,0
99.082344,99.19927,55,46,0
99.31621,99.42789,62,51,0
99.31621,99.42789,54,51,0
99.65125,99.730064,58,31,0
99.730064,99.844604,64,48,0
99.730064,99.844604,55,48,0
99.959145,100.07003,66,51,0
99.959145,100.07003,57,51,0
100.29716,100.376175,62,29,0
100.376175,100.49241,67,51,0
100.376175,100.49241,58,51,0
100.60864,100.714294,69,51,0
100.60864,100.714294,60,51,0
100.94807,101.021805,65,29,0
101.021805,101.13804,71,52,0
101.021805,101.13804,62,52,0
101.25427,101.36923,72,57,0
101.25427,101.36923,63,57,0
101.59915,101.67938,68,32,0
101.67938,101.79518,74,51,0
101.67938,101.79518,65,51,0
101.91099,102.02227,72,54,0
101.91099,102.02227,63,51,0
102.24484,102.32611,67,41,0
102.32611,102.442345,71,51,0
102.32611,102.442345,62,51,0
102.55858,102.67107,72,52,0
102.55858,102.67107,63,51,0
102.896034,102.97903,68,33,0
102.97903,103.09667,74,41,0
102.97903,103.09667,65,41,0
103.214325,103.32753,72,48,0
103.214325,103.32753,63,48,0
103.55395,103.63919,67,25,0
103.63919,103.75638,71,41,0
103.63919,103.75638,62,41,0
103.873566,103.99075,72,41,0
103.873566,103.99075,63,41,0
104.22513,104.30355,62,31,0
104.30355,104.42049,65,46,0
104.30355,104.42049,58,46,0
104.537415,104.64909,65,51,0
104.537415,104.64909,57,51,0
104.87246,104.95128,63,31,0
104.95128,105.06581,67,48,0
104.95128,105.06581,58,48,0
105.18035,105.291245,69,51,0
105.18035,105.291245,60,51,0
105.518364,105.59738,65,29,0
105.59738,105.713615,70,51,0
105.59738,105.713615,62,51,0
105.82985,105.9355,72,51,0
105.82985,105.9355,63,51,0
106.16927,106.24301,68,29,0
106.24301,106.359245,74,57,0
106.24301,106.359245,65,57,0
106.47548,106.59044,75,57,0
106.47548,106.59044,67,57,0
106.82036,106.90059,71,32,0
106.90059,107.01639,77,57,0
106.90059,107.01639,68,57,0
107.132195,107.24549,75,62,0
107.132195,107.24549,67,62,0
107.132195,107.24549,72,62,0
107.47208,107.553345,68,47,0
107.553345,107.677414,74,57,0
107.553345,107.677414,65,57,0
107.80148,107.918304,72,51,0
107.80148,107.918304,63,49,0
107.80148,107.918304,69,49,0
108.15195,108.23494,67,31,0
108.23494,108.36326,70,38,0
108.23494,108.36326,64,38,0
108.49157,108.61513,69,44,0
108.49157,108.61513,66,44,0
108.86224,108.947495,64,22,0
108.947495,109.07861,67,37,0
108.947495,109.07861,61,37,0
109.20973,109.34085,66,36,0
109.20973,109.34085,62,36,0
109.60309,109.68151,62,27,0
109.68151,109.80113,66,40,0
109.68151,109.80113,60,40,0
109.920746,110.035774,67,45,0
109.920746,110.035774,58,45,0
110.26584,110.34465,66,27,0
110.34465,110.46148,69,42,0
110.34465,110.46148,62,42,0
110.5783,110.689186,70,45,0
110.5783,110.689186,67,45,0
110.91631,110.99532,69,26,0
110.99532,111.11156,72,45,0
110.99532,111.11156,67,45,0
111.22779,111.33345,74,45,0
111.22779,111.33345,70,45,0
111.56722,111.64096,75,26,0
111.64096,111.87343,79,42,0
111.64096,111.87343,72,35,0
111.87343,112.10335,74,42,0
111.87343,112.10335,70,35,0
112.21831,112.29853,67,28,0
112.29853,112.41434,70,45,0
112.29853,112.41434,62,45,0
112.53014,112.641426,69,47,0
112.86399,112.94527,69,36,0
112.94527,113.0615,72,45,0
112.94527,113.0615,63,45,0
113.177734,113.290215,70,46,0
113.51519,113.59818,66,29,0
113.59818,113.71797,69,36,0
113.59818,113.71797,60,36,0
113.83776,113.953995,67,42,0
113.83776,113.953995,58,42,0
114.18646,114.271706,60,22,0
114.271706,114.392426,63,36,0
114.271706,114.392426,57,36,0
114.51314,114.63385,62,36,0
114.51314,114.63385,58,36,0
114.87528,114.953705,62,27,0
114.953705,115.07064,66,40,0
114.953705,115.07064,60,40,0
115.18757,115.29925,67,45,0
115.18757,115.29925,58,45,0
115.52261,115.60143,66,27,0
115.60143,115.715965,69,42,0
115.60143,115.715965,62,42,0
115.830505,115.9414,70,45,0
115.830505,115.9414,67,45,0
116.16852,116.247536,69,26,0
116.247536,116.36377,72,45,0
116.247536,116.36377,67,45,0
116.48,116.585655,74,45,0
116.48,116.585655,70,45,0
116.847565,116.9213,75,26,0
116.9213,117.15377,79,42,0
116.9213,117.15377,72,35,0
117.15377,117.38369,74,42,0
117.15377,117.38369,70,35,0
117.49865,117.57887,67,28,0
117.57887,117.69468,70,45,0
117.57887,117.69468,62,45,0
117.81048,117.92354,69,47,0
118.14964,118.23091,69,36,0
118.23091,118.354195,72,45,0
118.23091,118.354195,63,45,0
118.47748,118.59565,70,46,0
118.83198,118.92746,66,29,0
118.92746,119.05685,69,36,0
118.92746,119.05685,60,36,0
119.18623,119.32722,67,42,0
119.18623,119.32722,58,42,0
119.60917,119.706436,58,35,0
119.706436,119.995,62,41,0
119.995,120.148476,55,39,0
120.42191,120.541885,45,81,0
120.541885,120.79918,45,76,0
121.16179,121.27364,50,59,0
121.16179,121.27364,53,70,0
121.27364,121.49736,53,72,0
121.27364,121.49736,50,61,0
121.49736,121.83505,53,77,0
121.49736,121.83505,50,65,0
120.79918,121.83505,45,78,0
121.83505,121.949036,57,74,0
121.949036,122.189804,57,71,0
122.56325,122.67552,65,54,0
122.56325,122.67552,69,64,0
122.67552,122.90008,69,64,0
122.67552,122.90008,65,54,0
122.90008,123.124626,69,70,0
122.90008,123.124626,65,59,0
122.189804,123.124626,57,76,0
123.2369,123.35175,45,76,0
123.35175,123.60155,45,76,0
123.95431,124.06701,52,59,0
123.95431,124.06701,55,70,0
124.06701,124.2924,55,72,0
124.06701,124.2924,52,61,0
124.2924,124.63049,55,77,0
124.2924,124.63049,52,65,0
123.60155,124.63049,45,78,0
124.63049,124.74713,57,76,0
124.74713,124.99384,57,76,0
125.378456,125.49244,67,54,0
125.378456,125.49244,69,64,0
125.49244,125.720406,69,64,0
125.49244,125.720406,67,54,0
125.720406,125.948364,69,70,0
125.720406,125.948364,67,59,0
124.99384,125.948364,57,79,0
126.06235,126.1772,45,75,0
126.1772,126.422905,45,76,0
126.79145,126.90501,50,59,0
126.79145,126.90501,53,70,0
126.90501,127.1321,53,72,0
126.90501,127.1321,50,61,0
127.1321,127.35921,53,77,0
127.1321,127.35921,50,65,0
126.422905,127.35921,45,78,0
127.472755,127.59124,57,74,0
127.59124,127.84,57,75,0
128.21313,128.32712,65,54,0
128.21313,128.32712,69,64,0
128.32712,128.55507,69,64,0
128.32712,128.55507,65,54,0
128.55507,128.78304,69,70,0
128.55507,128.78304,65,59,0
127.84,128.78304,57,79,0
128.89702,129.01503,53,72,0
129.01503,129.26799,53,72,0
129.64742,129.75928,59,59,0
129.64742,129.75928,62,70,0
129.75928,129.98299,62,72,0
129.75928,129.98299,59,61,0
129.98299,130.2067,62,77,0
129.98299,130.2067,59,65,0
129.26799,130.2067,53,78,0
130.31856,130.3762,67,77,0
130.31856,130.3762,60,65,0
130.43385,130.5598,67,78,0
130.43385,130.5598,60,66,0
130.68575,130.93044,60,65,0
130.68575,130.93044,67,77,0
131.0602,131.18996,60,64,0
131.0602,131.18996,72,77,0
131.18996,131.44946,72,77,0
131.18996,131.44946,60,64,0
131.44946,131.70898,72,84,0
131.44946,131.70898,60,70,0
131.83875,131.9601,48,73,0
131.9601,132.23135,48,68,0
132.59396,132.92953,53,59,0
132.59396,132.92953,57,70,0
132.23135,132.92953,48,82,0
133.29214,133.62772,53,59,0
133.29214,133.62772,57,70,0
132.92953,133.62772,50,82,0
133.99033,134.3259,57,59,0
133.99033,134.3259,60,70,0
133.62772,134.3259,48,78,0
134.6885,134.80035,60,77,0
134.80035,135.02408,72,71,0
135.38669,135.72226,52,59,0
135.38669,135.72226,55,70,0
135.02408,135.72226,48,82,0
136.0741,136.40967,52,59,0
136.0741,136.40967,55,70,0
135.72226,136.40967,50,82,0
136.77228,137.10785,55,59,0
136.77228,137.10785,60,70,0
136.40967,137.10785,48,78,0
137.47046,137.5823,60,77,0
137.5823,137.80603,72,71,0
138.16864,138.5042,53,59,0
138.16864,138.5042,57,70,0
137.80603,138.5042,48,82,0
138.86682,139.20238,57,70,0
138.86682,139.20238,53,59,0
138.5042,139.20238,50,82,0
139.565,139.90056,54,59,0
139.565,139.90056,60,70,0
139.20238,139.90056,51,78,0
140.26318,140.37503,60,77,0
140.37503,140.59874,72,71,0
140.96136,141.07321,59,59,0
140.96136,141.07321,62,70,0
140.59874,141.29692,53,78,0
141.65955,141.7736,65,77,0
141.7736,142.00174,74,61,0
141.7736,142.00174,79,69,0
142.37831,142.49504,55,59,0
142.37831,142.49504,60,70,0
142.00174,142.7285,52,78,0
142.7285,142.97025,72,83,0
143.09113,143.21248,48,73,0
143.21248,143.48372,48,68,0
143.84633,144.17601,53,59,0
143.84633,144.17601,57,70,0
143.48372,144.17601,48,82,0
144.53862,144.88478,53,59,0
144.53862,144.88478,57,70,0
144.17601,144.88478,50,82,0
145.24739,145.58296,57,59,0
145.24739,145.58296,60,70,0
144.88478,145.58296,48,78,0
145.94557,146.05743,60,77,0
146.05743,146.29428,72,71,0
146.65689,146.99246,52,59,0
146.65689,146.99246,55,70,0
146.29428,146.99246,48,82,0
147.35507,147.71332,52,59,0
147.35507,147.71332,55,70,0
146.99246,147.71332,50,82,0
148.07593,148.4115,55,59,0
148.07593,148.4115,60,70,0
147.71332,148.4115,48,78,0
148.77411,148.88597,60,77,0
148.88597,149.10968,72,71,0
149.47229,149.80786,53,59,0
149.47229,149.80786,57,70,0
149.10968,149.80786,48,82,0
150.17047,150.50604,57,70,0
150.17047,150.50604,53,59,0
149.80786,150.50604,50,82,0
150.86865,151.20422,54,59,0
150.86865,151.20422,60,70,0
150.50604,151.20422,51,78,0
151.56683,151.6787,60,77,0
151.6787,151.94283,72,71,0
152.30545,152.4173,59,59,0
152.30545,152.4173,62,70,0
151.94888,152.64706,53,78,0
153.00363,153.11548,65,77,0
153.11548,153.33919,74,61,0
153.11548,153.33919,79,69,0
153.7018,153.81366,55,59,0
153.7018,153.81366,60,70,0
153.33919,154.03737,52,78,0
154.03737,154.27911,72,83,0
154.39998,154.51485,48,81,0
154.51485,154.77213,48,76,0
155.13474,155.2466,54,59,0
155.13474,155.2466,57,70,0
155.2466,155.4703,57,72,0
155.2466,155.4703,54,61,0
155.4703,155.80801,57,77,0
155.4703,155.80801,54,65,0
154.77213,155.80801,48,78,0
155.80801,155.92198,60,74,0
155.92198,156.16277,60,71,0
156.53465,156.64694,66,54,0
156.53465,156.64694,69,64,0
156.64694,156.87149,69,64,0
156.64694,156.87149,66,54,0
156.87149,157.09604,69,70,0
156.87149,157.09604,66,59,0
156.16277,157.09604,60,76,0
157.20831,157.32317,50,76,0
157.32317,157.57295,50,76,0
157.92572,158.03842,55,59,0
157.92572,158.03842,58,70,0
158.03842,158.26381,58,72,0
158.03842,158.26381,55,61,0
158.26381,158.6019,58,77,0
158.26381,158.6019,55,65,0
157.57295,158.6019,50,78,0
158.6019,158.71855,62,76,0
158.71855,158.96526,62,76,0
159.32642,159.4404,67,54,0
159.32642,159.4404,70,64,0
159.4404,159.66835,70,64,0
159.4404,159.66835,67,54,0
159.66835,159.89632,70,70,0
159.66835,159.89632,67,59,0
158.96526,159.89632,62,79,0
160.0103,160.12515,52,75,0
160.12515,160.37085,52,76,0
160.73941,160.85295,59,59,0
160.73941,160.85295,62,70,0
160.85295,161.08006,62,72,0
160.85295,161.08006,59,61,0
161.08006,161.30716,62,77,0
161.08006,161.30716,59,65,0
160.37085,161.30716,52,78,0
161.4207,161.53918,62,74,0
161.53918,161.78795,62,75,0
162.16109,162.27507,68,54,0
162.16109,162.27507,71,64,0
162.27507,162.50302,71,64,0
162.27507,162.50302,68,54,0
162.50302,162.73099,71,70,0
162.50302,162.73099,68,59,0
161.78795,162.73099,62,79,0
162.84497,162.96298,52,72,0
162.96298,163.21594,52,72,0
163.59537,163.70723,57,59,0
163.59537,163.70723,60,70,0
163.70723,163.93094,60,72,0
163.70723,163.93094,57,61,0
163.93094,164.15465,60,77,0
163.93094,164.15465,57,65,0
163.21594,164.15465,52,78,0
164.26651,164.3818,60,77,0
164.3818,164.6337,60,78,0
165.00073,165.1156,69,57,0
165.00073,165.1156,72,69,0
165.1156,165.3453,72,69,0
165.1156,165.3453,69,57,0
165.3453,165.57501,72,75,0
165.3453,165.57501,69,63,0
164.6337,165.57501,60,77,0
165.6912,165.80606,57,63,0
165.80606,166.05176,57,64,0
166.4203,166.47708,62,45,0
166.4203,166.47708,65,54,0
166.53386,166.6474,65,54,0
166.53386,166.6474,62,45,0
166.05176,166.76096,57,66,0
166.76096,166.88048,65,62,0
166.76096,166.88048,62,52,0
167.11952,167.17876,57,55,0
167.238,167.35956,57,55,0
167.84578,167.90277,62,38,0
167.84578,167.90277,65,54,0
167.95976,168.07375,65,54,0
167.95976,168.07375,62,38,0
167.48111,168.18773,57,63,0
168.18773,168.30171,65,59,0
168.18773,168.30171,62,42,0
168.52968,168.5871,65,63,0
168.64453,168.76738,65,64,0
169.25877,169.31555,71,45,0
169.25877,169.31555,74,54,0
169.37233,169.48589,74,54,0
169.37233,169.48589,71,45,0
168.89023,169.59943,65,66,0
169.59943,169.71298,74,62,0
169.59943,169.71298,71,52,0
169.94008,169.99933,65,55,0
170.05856,170.18294,65,55,0
170.67314,170.73013,71,38,0
170.67314,170.73013,74,54,0
170.78712,170.90111,74,54,0
170.78712,170.90111,71,38,0
170.3055,171.01509,65,63,0
171.01509,171.12906,74,59,0
171.01509,171.12906,71,42,0
171.35703,171.41446,56,63,0
171.47188,171.59473,56,64,0
172.08614,172.14291,62,45,0
172.08614,172.14291,64,54,0
172.19969,172.31323,64,54,0
172.19969,172.31323,62,45,0
171.71759,172.42679,56,66,0
172.42679,172.54033,64,62,0
172.42679,172.54033,62,52,0
172.76744,172.82668,56,55,0
172.88593,173.0103,56,55,0
173.50781,173.5648,62,38,0
173.50781,173.5648,64,54,0
173.6218,173.73578,64,54,0
173.6218,173.73578,62,38,0
173.13467,173.84975,56,63,0
173.84975,173.96373,64,59,0
173.84975,173.96373,62,42,0
174.1917,174.24913,62,63,0
174.30655,174.4294,62,64,0
174.9208,174.97758,68,45,0
174.9208,174.97758,71,54,0
175.03435,175.1479,71,54,0
175.03435,175.1479,68,45,0
174.55226,175.26146,62,66,0
175.26146,175.375,71,62,0
175.26146,175.375,68,52,0
175.60211,175.66135,62,52,0
175.7206,175.84497,62,51,0
176.34248,176.39948,68,30,0
176.34248,176.39948,71,43,0
176.45647,176.57045,71,42,0
176.45647,176.57045,68,29,0
175.96935,176.68442,62,55,0
176.68442,176.7984,71,43,0
176.68442,176.7984,68,30,0
177.02637,177.14122,52,64,0
177.14122,177.39851,52,60,0
177.76112,177.87299,57,47,0
177.76112,177.87299,60,56,0
177.87299,178.0967,60,57,0
177.87299,178.0967,57,48,0
178.0967,178.43439,60,61,0
178.0967,178.43439,57,52,0
177.39851,178.43439,52,62,0
178.43439,178.54837,60,49,0
178.54837,178.80261,60,48,0
179.15666,179.26894,69,43,0
179.15666,179.26894,72,51,0
179.26894,179.49348,72,51,0
179.26894,179.49348,69,43,0
179.49348,179.72604,72,56,0
179.49348,179.72604,69,47,0
178.80261,179.72604,60,51,0
179.84233,179.95718,52,72,0
179.95718,180.20697,52,72,0
180.55974,180.67242,59,56,0
180.55974,180.67242,62,66,0
180.67242,180.89783,62,68,0
180.67242,180.89783,59,57,0
180.89783,181.23592,62,73,0
180.89783,181.23592,59,61,0
180.20697,181.23592,52,74,0
181.23592,181.35255,62,60,0
181.35255,181.59927,62,60,0
181.96042,182.0744,71,51,0
181.96042,182.0744,74,60,0
182.0744,182.30237,74,60,0
182.0744,182.30237,71,51,0
182.30237,182.53033,74,66,0
182.30237,182.53033,71,56,0
181.59927,182.53033,62,63,0
182.64432,182.75917,52,75,0
182.75917,183.05328,52,76,0
183.41914,183.53268,57,59,0
183.41914,183.53268,60,70,0
183.53268,183.7598,60,72,0
183.53268,183.7598,57,61,0
183.7598,183.9869,60,77,0
183.7598,183.9869,57,65,0
183.05328,183.9869,52,78,0
184.10043,184.21892,64,74,0
184.21892,184.46768,64,75,0
184.84082,184.95479,72,54,0
184.84082,184.95479,76,64,0
184.95479,185.18275,76,64,0
184.95479,185.18275,72,54,0
185.18275,185.41072,76,70,0
185.18275,185.41072,72,59,0
184.46768,185.41072,64,79,0
185.5247,185.64272,60,72,0
185.64272,185.92844,60,72,0
186.3066,186.41844,66,59,0
186.3066,186.41844,69,70,0
186.41844,186.64215,69,72,0
186.41844,186.64215,66,61,0
186.64215,186.86588,69,77,0
186.64215,186.86588,66,65,0
185.92844,186.86588,60,78,0
186.97772,187.03537,74,77,0
186.97772,187.03537,67,65,0
187.09302,187.22179,74,78,0
187.09302,187.22179,67,66,0
187.35054,187.59523,67,65,0
187.35054,187.59523,74,77,0
187.72499,187.85475,67,64,0
187.72499,187.85475,79,77,0
187.85475,188.11426,79,77,0
187.85475,188.11426,67,64,0
188.11426,188.26205,79,84,0
188.11426,188.26205,67,70,0
188.55762,188.67389,67,45,0
188.67389,188.79062,71,45,0
188.67389,188.79062,65,45,0
188.90735,189.01904,72,50,0
188.90735,189.01904,63,50,0
189.2424,189.32121,71,31,0
189.32121,189.43576,74,47,0
189.32121,189.43576,67,47,0
189.5503,189.66118,75,50,0
189.5503,189.66118,72,50,0
189.8883,189.96732,74,29,0
189.96732,190.08356,77,50,0
189.96732,190.08356,72,50,0
190.19978,190.30545,79,50,0
190.19978,190.30545,75,50,0
190.56735,190.64108,80,29,0
190.64108,190.87355,84,47,0
190.64108,190.87355,77,39,0
190.87355,191.10347,79,47,0
190.87355,191.10347,75,39,0
191.21843,191.29866,72,32,0
191.29866,191.41446,75,50,0
191.29866,191.41446,67,50,0
191.53027,191.64229,74,53,0
191.86633,191.94762,74,40,0
191.94762,192.06384,77,50,0
191.94762,192.06384,68,50,0
192.18008,192.29256,75,52,0
192.51753,192.60052,71,33,0
192.60052,192.72032,74,41,0
192.60052,192.72032,65,41,0
192.8401,192.95634,72,47,0
192.8401,192.95634,63,47,0
193.18881,193.27405,65,25,0
193.27405,193.39478,68,41,0
193.27405,193.39478,62,41,0
193.51549,193.6362,67,40,0
193.51549,193.6362,63,40,0
193.87762,193.95605,62,30,0
193.95605,194.07298,66,45,0
193.95605,194.07298,60,45,0
194.18991,194.3016,67,50,0
194.18991,194.3016,58,50,0
194.52496,194.60378,66,31,0
194.60378,194.71832,69,47,0
194.60378,194.71832,62,47,0
194.83286,194.94374,70,50,0
194.83286,194.94374,67,50,0
195.17087,195.24988,69,29,0
195.24988,195.36612,72,50,0
195.24988,195.36612,67,50,0
195.48235,195.588,74,50,0
195.48235,195.588,70,50,0
195.82178,195.89551,75,29,0
195.89551,196.12798,79,47,0
195.89551,196.12798,72,39,0
196.12798,196.3579,74,47,0
196.12798,196.3579,70,39,0
196.47287,196.55309,67,32,0
196.55309,196.6689,70,50,0
196.55309,196.6689,62,50,0
196.7847,196.89598,69,53,0
197.11855,197.19981,69,40,0
197.19981,197.31606,72,50,0
197.19981,197.31606,63,50,0
197.43228,197.54477,70,52,0
197.76974,197.85274,66,33,0
197.85274,197.97252,69,41,0
197.85274,197.97252,60,41,0
198.09232,198.20854,67,47,0
198.09232,198.20854,58,47,0
198.44101,198.52626,60,25,0
198.52626,198.64697,63,41,0
198.52626,198.64697,57,41,0
198.7677,198.88841,62,40,0
198.7677,198.88841,58,40,0
199.12984,199.20827,62,30,0
199.20827,199.3252,66,45,0
199.20827,199.3252,60,45,0
199.44212,199.5538,67,50,0
199.44212,199.5538,58,50,0
199.77718,199.85599,66,31,0
199.85599,199.97052,69,47,0
199.85599,199.97052,62,47,0
200.08507,200.19595,70,50,0
200.08507,200.19595,67,50,0
200.42308,200.50209,69,29,0
200.50209,200.61832,72,50,0
200.50209,200.61832,67,50,0
200.73456,200.84021,74,50,0
200.73456,200.84021,70,50,0
201.08873,201.16246,75,29,0
201.16246,201.39493,79,56,0
201.16246,201.39493,72,47,0
201.39493,201.62485,74,56,0
201.39493,201.62485,70,47,0
201.7398,201.82004,67,32,0
201.82004,201.93584,70,50,0
201.82004,201.93584,62,50,0
202.05165,202.16293,69,53,0
202.3855,202.46677,69,40,0
202.46677,202.58301,72,50,0
202.46677,202.58301,63,50,0
202.69923,202.81172,70,52,0
203.0367,203.11969,66,33,0
203.11969,203.23947,69,41,0
203.11969,203.23947,60,41,0
203.35927,203.4755,67,47,0
203.35927,203.4755,58,47,0
203.70796,203.79321,58,39,0
203.79321,204.03464,62,46,0
204.03464,204.15535,55,44,0
204.39679,204.4752,58,30,0
204.4752,204.59215,62,45,0
204.4752,204.59215,55,45,0
204.70908,204.82076,62,50,0
204.70908,204.82076,54,50,0
205.04411,205.12294,58,31,0
205.12294,205.23747,64,47,0
205.12294,205.23747,55,47,0
205.352,205.4629,66,50,0
205.352,205.4629,57,50,0
205.69002,205.76904,62,29,0
205.76904,205.88527,67,50,0
205.76904,205.88527,58,50,0
206.00151,206.10716,69,50,0
206.00151,206.10716,60,50,0
206.34093,206.41467,65,29,0
206.41467,206.5309,71,52,0
206.41467,206.5309,62,52,0
206.64714,206.7621,72,56,0
206.64714,206.7621,63,56,0
206.99202,207.07225,68,32,0
207.07225,207.18805,74,50,0
207.07225,207.18805,65,50,0
207.30385,207.41513,72,53,0
207.30385,207.41513,63,50,0
207.63771,207.71898,67,40,0
207.71898,207.8352,71,50,0
207.71898,207.8352,62,50,0
207.95145,208.06393,72,52,0
207.95145,208.06393,63,50,0
208.2889,208.37189,68,33,0
208.37189,208.49168,74,41,0
208.37189,208.49168,65,41,0
208.61147,208.7277,72,47,0
208.61147,208.7277,63,47,0
208.96017,209.04543,67,25,0
209.04543,209.16614,71,41,0
209.04543,209.16614,62,41,0
209.28685,209.40756,72,40,0
209.28685,209.40756,63,40,0
209.64899,209.72742,62,30,0
209.72742,209.84435,65,45,0
209.72742,209.84435,58,45,0
209.96129,210.07297,65,50,0
209.96129,210.07297,57,50,0
210.29633,210.37514,63,31,0
210.37514,210.48969,67,47,0
210.37514,210.48969,58,47,0
210.60422,210.7151,69,50,0
210.60422,210.7151,60,50,0
210.94223,211.02124,65,29,0
211.02124,211.13748,70,50,0
211.02124,211.13748,62,50,0
211.25371,211.35938,72,50,0
211.25371,211.35938,63,50,0
211.59314,211.66689,68,29,0
211.66689,211.78311,74,56,0
211.66689,211.78311,65,56,0
211.89935,212.01431,75,56,0
211.89935,212.01431,67,56,0
212.24423,212.32445,71,32,0
212.32445,212.44026,77,56,0
212.32445,212.44026,68,56,0
212.55606,212.66893,75,61,0
212.55606,212.66893,67,61,0
212.55606,212.66893,72,61,0
212.89467,212.97594,68,47,0
212.97594,213.09798,74,57,0
212.97594,213.09798,65,57,0
213.22003,213.33685,72,52,0
213.22003,213.33685,63,50,0
213.22003,213.33685,69,50,0
213.5705,213.65349,67,33,0
213.65349,213.78348,70,41,0
213.65349,213.78348,64,41,0
213.91345,214.03804,69,46,0
213.91345,214.03804,66,46,0
214.28722,214.37245,64,24,0
214.37245,214.51083,67,39,0
214.37245,214.51083,61,39,0
214.64922,214.78758,66,37,0
214.64922,214.78758,62,37,0
215.06435,215.14276,62,27,0
215.14276,215.26532,66,40,0
215.14276,215.26532,60,40,0
215.38786,215.5029,67,45,0
215.38786,215.5029,58,45,0
215.73296,215.81177,66,27,0
215.81177,215.93332,69,42,0
215.81177,215.93332,62,42,0
216.05489,216.17308,70,45,0
216.05489,216.17308,67,45,0
216.40752,216.48654,69,26,0
216.48654,216.60712,72,45,0
216.48654,216.60712,67,45,0
216.72769,216.86055,74,45,0
216.72769,216.86055,70,45,0
217.14194,217.21567,75,26,0
217.21567,217.4578,79,40,0
217.21567,217.4578,72,33,0
217.4578,217.69144,74,40,0
217.4578,217.69144,70,33,0
217.80826,217.88849,67,28,0
217.88849,218.00763,70,45,0
217.88849,218.00763,62,45,0
218.12677,218.23805,69,47,0
218.46063,218.5419,69,36,0
218.5419,218.65964,72,45,0
218.5419,218.65964,63,45,0
218.77737,218.8911,70,46,0
219.11855,219.20154,66,29,0
219.20154,219.32132,69,36,0
219.20154,219.32132,60,36,0
219.44112,219.5584,67,42,0
219.44112,219.5584,58,42,0
219.79295,219.8782,60,22,0
219.8782,220.00175,63,36,0
219.8782,220.00175,57,36,0
220.12532,220.24887,62,36,0
220.12532,220.24887,58,36,0
220.49599,220.57442,62,27,0
220.57442,220.69135,66,40,0
220.57442,220.69135,60,40,0
220.80827,220.92157,67,45,0
220.80827,220.92157,58,45,0
221.14816,221.22697,66,27,0
221.22697,221.34755,69,42,0
221.22697,221.34755,62,42,0
221.46812,221.58185,70,45,0
221.46812,221.58185,67,45,0
221.81181,221.89082,69,26,0
221.89082,222.01044,72,45,0
221.89082,222.01044,67,45,0
222.13005,222.23572,74,45,0
222.13005,222.23572,70,45,0
222.46948,222.54323,75,25,0
222.54323,222.78246,79,39,0
222.54323,222.78246,72,31,0
222.78246,223.01701,74,38,0
222.78246,223.01701,70,30,0
223.1343,223.21452,67,27,0
223.21452,223.33607,70,43,0
223.21452,223.33607,62,43,0
223.45763,223.574,69,45,0
223.80673,223.88802,69,33,0
223.88802,224.01006,72,42,0
223.88802,224.01006,63,42,0
224.13211,224.24759,70,43,0
224.13211,224.24759,62,40,0
224.47853,224.56152,66,27,0
224.56152,224.68929,69,33,0
224.56152,224.68929,60,33,0
224.81706,224.93715,67,40,0
224.81706,224.93715,58,34,0
225.17735,225.25862,60,27,0
225.25862,225.3909,63,39,0
225.25862,225.3909,57,33,0
225.52316,225.64522,62,38,0
225.52316,225.64522,58,32,0
225.88931,225.9723,57,27,0
225.9723,226.10696,60,33,0
225.9723,226.10696,54,27,0
1.3847673,3.7479405,31,41,0
3.7479405,3.979547,31,33,0
3.979547,4.3946695,36,42,0
4.3946695,4.6271377,33,36,0
1.3847673,4.6271377,43,41,0
5.047588,5.2871666,26,35,0
5.2871666,7.6969404,31,43,0
7.6969404,9.014889,31,33,0
9.014889,9.246495,31,33,0
4.6271377,9.246495,38,43,0
9.246495,9.661618,36,42,0
9.661618,9.894086,33,36,0
10.314536,10.554114,26,35,0
10.554114,11.470922,31,43,0
9.894086,11.470922,38,43,0
11.903924,14.267097,50,41,0
11.903924,14.267097,38,41,0
14.267097,17.563631,43,33,0
14.267097,17.563631,31,33,0
17.563631,18.855368,50,47,0
17.563631,18.855368,38,41,0
18.855368,20.413664,46,38,0
18.855368,20.413664,34,33,0
20.413664,20.85151,48,27,0
20.413664,20.85151,36,27,0
20.85151,21.105963,49,25,0
20.85151,21.105963,37,25,0
21.105963,22.314148,50,33,0
21.105963,22.314148,38,27,0
22.314148,22.43108,50,27,0
22.314148,22.43108,38,27,0
22.548012,22.659693,43,41,0
22.548012,22.659693,31,32,0
22.961872,23.07641,43,35,0
22.961872,23.07641,31,27,0
23.19095,23.30184,43,41,0
23.19095,23.30184,31,32,0
23.607977,24.931581,31,32,0
24.931581,25.163189,31,33,0
25.163189,25.578312,36,42,0
25.578312,25.81078,33,36,0
23.607977,25.81078,43,41,0
26.23123,26.470808,26,35,0
26.470808,28.234478,31,43,0
28.234478,28.880583,31,33,0
28.880583,30.18379,31,33,0
30.18379,30.415398,31,33,0
25.81078,30.415398,38,43,0
30.415398,30.83052,36,42,0
30.83052,31.062988,33,36,0
31.483438,31.723017,26,35,0
31.723017,32.655853,31,43,0
31.062988,32.655853,38,43,0
33.08872,35.451893,50,41,0
33.08872,35.451893,38,41,0
35.451893,38.75479,43,33,0
35.451893,38.75479,31,33,0
38.75479,40.046528,50,49,0
38.75479,40.046528,38,41,0
40.046528,41.60326,46,42,0
40.046528,41.60326,34,33,0
41.60326,42.047558,48,27,0
41.60326,42.047558,36,27,0
42.047558,42.306404,49,25,0
42.047558,42.306404,37,25,0
42.306404,43.503044,50,33,0
42.306404,43.503044,38,27,0
43.503044,43.619976,50,27,0
43.503044,43.619976,38,27,0
43.736908,43.84859,43,41,0
43.736908,43.84859,31,32,0
44.15077,44.23667,43,35,0
44.15077,44.23667,31,27,0
44.379845,44.463013,43,41,0
44.379845,44.463013,31,32,0
44.79687,46.127403,31,32,0
46.127403,46.35901,31,33,0
46.35901,46.77413,36,42,0
46.77413,47.0066,33,36,0
44.79687,47.0066,43,41,0
47.42705,47.66663,26,35,0
47.66663,49.430298,31,43,0
49.430298,50.076405,31,42,0
50.076405,51.397835,31,42,0
51.397835,51.629444,31,33,0
47.0066,51.629444,38,43,0
51.629444,52.044563,36,42,0
52.044563,52.277035,33,36,0
52.697483,52.93706,26,35,0
52.93706,53.85387,31,43,0
52.277035,53.85387,38,43,0
54.286873,54.936417,46,51,0
54.228405,54.936417,34,43,0
54.994663,55.285904,48,58,0
54.936417,55.285904,36,49,0
55.34415,55.63539,50,62,0
55.285904,55.63539,38,51,0
55.693638,56.348877,51,64,0
55.63539,56.348877,39,54,0
56.40734,57.10374,58,57,0
56.348877,57.39607,46,48,0
57.454536,57.746864,55,58,0
57.39607,57.746864,43,49,0
57.80533,58.09876,51,62,0
57.746864,58.09876,39,51,0
58.157444,58.45087,48,56,0
58.09876,58.45087,36,47,0
58.509556,59.18676,53,51,0
58.45087,59.18676,41,42,0
59.247486,59.949932,41,52,0
59.18676,59.949932,29,33,0
60.02214,60.673073,46,51,0
59.949932,60.673073,34,43,0
60.731323,61.021915,48,58,0
60.673073,61.021915,36,49,0
61.07952,61.36754,50,62,0
61.021915,61.36754,38,51,0
61.425144,62.081066,51,64,0
61.36754,62.081066,39,54,0
62.139534,62.84112,58,57,0
62.081066,63.134552,46,48,0
63.193237,63.486885,55,58,0
63.134552,63.486885,43,49,0
63.54579,63.840996,51,62,0
63.486885,63.840996,39,51,0
63.90057,64.22864,48,56,0
63.840996,64.22864,36,47,0
64.29827,64.96644,53,51,0
64.22864,64.96644,41,42,0
65.02579,65.679306,41,52,0
64.96644,65.679306,29,33,0
65.74124,66.38678,50,51,0
65.679306,66.38678,38,43,0
66.445465,66.73889,51,58,0
66.38678,66.73889,39,49,0
66.797585,67.09323,53,62,0
66.73889,67.09323,41,51,0
67.15236,67.80908,55,64,0
67.09323,67.80908,43,54,0
67.86777,68.57199,62,57,0
67.80908,68.865425,50,48,0
68.92411,69.21535,59,58,0
68.865425,69.21535,47,49,0
69.2736,69.564835,55,62,0
69.21535,69.564835,43,51,0
69.623085,69.925575,53,56,0
69.564835,69.925575,41,47,0
69.98608,70.664,51,51,0
69.925575,70.664,39,42,0
70.72291,71.358894,48,52,0
70.664,71.358894,36,33,0
71.41671,72.059616,51,51,0
71.358894,72.059616,39,43,0
72.11787,72.4091,53,58,0
72.059616,72.4091,41,49,0
72.467354,72.76752,55,62,0
72.4091,72.76752,43,51,0
72.82755,73.48593,57,64,0
72.76752,73.48593,45,54,0
73.54528,74.25484,64,57,0
73.48593,74.55048,52,48,0
74.60962,74.91094,61,58,0
74.55048,74.91094,49,49,0
74.97121,75.27253,57,62,0
74.91094,75.27253,45,51,0
75.3328,75.64002,55,56,0
75.27253,75.64002,43,47,0
75.70147,76.377365,54,51,0
75.64002,76.377365,42,42,0
76.43881,77.147995,50,52,0
76.377365,77.147995,38,33,0
77.220535,77.89503,46,51,0
77.147995,77.89503,34,43,0
77.955055,78.255226,48,58,0
77.89503,78.255226,36,49,0
78.31526,78.62492,50,62,0
78.255226,78.62492,38,51,0
78.68685,79.35234,51,64,0
78.62492,79.35234,39,54,0
79.412834,80.13882,58,62,0
79.35234,80.43964,46,48,0
80.85796,81.15749,60,63,0
80.7982,81.15749,48,49,0
81.6034,82.994865,62,64,0
81.6034,82.994865,50,54,0
83.05537,83.72015,50,51,0
82.994865,83.72015,38,43,0
83.77996,84.07898,51,58,0
83.72015,84.07898,39,49,0
84.13878,84.44245,53,62,0
84.07898,84.44245,41,51,0
84.50318,85.16403,55,64,0
84.44245,85.16403,43,54,0
85.22332,85.93478,62,62,0
85.16403,86.585205,50,48,0
86.585205,87.36633,52,49,0
86.64433,87.37519,64,63,0
87.36633,88.42933,66,64,0
87.36633,88.42933,54,54,0
88.42933,90.07609,55,54,0
88.78365,91.174965,48,47,0
91.174965,91.40657,48,37,0
91.40657,91.82169,53,48,0
91.82169,92.05416,50,41,0
88.78365,92.05416,60,47,0
92.71419,93.83013,48,49,0
92.05416,94.063995,55,49,0
92.47461,96.42717,43,40,0
96.42717,96.658775,43,37,0
93.83013,96.658775,50,50,0
96.658775,97.0739,48,48,0
97.0739,97.306366,45,41,0
94.063995,97.306366,55,49,0
97.72682,100.376175,38,40,0
97.306366,100.376175,50,49,0
100.376175,104.30355,43,37,0
100.376175,104.30355,31,37,0
104.30355,105.59738,53,54,0
104.30355,105.59738,41,47,0
105.59738,107.80148,46,50,0
105.59738,107.80148,34,37,0
107.80148,108.23494,48,29,0
107.80148,108.23494,36,29,0
108.23494,108.49157,49,27,0
108.23494,108.49157,37,27,0
108.49157,110.99532,50,34,0
108.49157,110.99532,38,28,0
110.99532,112.29853,31,32,0
112.29853,112.53014,31,33,0
112.53014,112.94527,36,42,0
112.94527,113.177734,33,36,0
110.99532,113.177734,43,41,0
113.59818,115.830505,26,35,0
115.830505,117.57887,31,48,0
117.57887,117.81048,31,33,0
113.177734,117.81048,38,43,0
117.81048,118.23091,36,42,0
118.23091,118.47748,33,36,0
118.92746,119.18623,26,35,0
119.18623,120.30194,31,43,0
118.47748,120.30194,38,43,0
121.16179,121.27364,58,55,0
120.79918,121.27364,26,70,0
121.27364,121.49736,58,61,0
121.49736,121.83505,58,66,0
122.56325,122.67552,50,61,0
122.56325,122.67552,45,51,0
122.67552,122.90008,50,58,0
122.67552,122.90008,45,49,0
122.90008,123.124626,50,63,0
122.90008,123.124626,45,53,0
123.95431,124.06701,58,55,0
123.60155,124.06701,25,70,0
123.60155,124.06701,37,70,0
124.06701,124.2924,58,61,0
124.2924,124.63049,58,66,0
125.378456,125.49244,52,61,0
125.378456,125.49244,45,51,0
125.49244,125.720406,52,58,0
125.49244,125.720406,45,49,0
125.720406,125.948364,52,63,0
125.720406,125.948364,45,53,0
126.79145,126.90501,64,55,0
126.422905,126.90501,26,70,0
126.422905,126.90501,38,70,0
126.90501,127.1321,64,61,0
127.1321,127.35921,64,66,0
127.472755,127.59124,62,61,0
127.59124,127.84,62,58,0
128.21313,128.32712,53,61,0
128.21313,128.32712,50,51,0
128.32712,128.55507,53,58,0
128.32712,128.55507,50,49,0
128.55507,128.78304,53,63,0
128.55507,128.78304,50,53,0
127.84,128.78304,62,62,0
129.64742,129.75928,67,55,0
129.26799,129.75928,31,70,0
129.26799,129.75928,43,70,0
129.75928,129.98299,67,61,0
129.98299,130.2067,67,66,0
130.31856,130.3762,52,67,0
130.31856,130.3762,48,56,0
130.43385,130.5598,52,63,0
130.43385,130.5598,48,53,0
130.68575,130.93044,52,68,0
130.68575,130.93044,48,57,0
131.0602,131.18996,48,73,0
131.0602,131.18996,36,61,0
131.18996,131.44946,48,69,0
131.18996,131.44946,36,58,0
131.44946,131.70898,48,75,0
131.44946,131.70898,36,63,0
132.23135,132.70581,41,73,0
132.23135,132.70581,29,62,0
132.70581,133.40399,60,83,0
133.40399,133.62772,62,82,0
134.10217,134.3259,51,77,0
134.3259,135.02408,63,79,0
133.62772,135.02408,42,73,0
133.62772,135.02408,30,62,0
135.02408,135.49854,31,62,0
135.03113,135.50507,43,73,0
135.49854,136.18594,60,83,0
136.18594,136.40967,62,82,0
136.88412,137.10785,52,77,0
137.10785,137.80603,64,79,0
136.40967,137.80603,46,73,0
136.40967,137.80603,34,62,0
137.80603,138.28049,33,62,0
137.80603,138.28049,45,73,0
138.28049,138.97867,60,83,0
138.97867,139.20238,62,82,0
139.67685,139.90056,51,77,0
139.90056,140.59874,63,79,0
139.20238,140.59874,44,73,0
139.20238,140.59874,32,62,0
141.07321,141.29692,55,77,0
141.29692,142.00174,67,79,0
140.59874,142.00174,43,73,0
140.59874,142.00174,31,62,0
142.00174,142.49504,48,73,0
142.00174,142.49504,36,62,0
142.49504,142.7285,64,77,0
143.48372,143.95622,41,73,0
143.48372,143.95622,29,62,0
143.95622,144.65047,60,83,0
144.65047,144.88478,62,82,0
145.35925,145.58296,51,77,0
145.58296,146.29428,63,79,0
144.88478,146.29428,42,73,0
144.88478,146.29428,30,62,0
146.29428,146.76875,31,62,0
146.30133,146.77528,43,73,0
146.76875,147.46693,60,83,0
147.46693,147.71332,62,82,0
148.18779,148.4115,52,77,0
148.4115,149.10968,64,79,0
147.71332,149.10968,46,73,0
147.71332,149.10968,34,62,0
149.10968,149.58415,33,62,0
149.10968,149.58415,45,73,0
149.58415,150.28233,60,83,0
150.28233,150.50604,62,82,0
150.98051,151.20422,51,77,0
151.20422,151.94283,63,79,0
150.50604,151.94283,44,73,0
150.50604,151.94283,32,62,0
152.4173,152.641,55,77,0
152.641,153.33919,67,79,0
151.94283,153.33919,43,73,0
151.94283,153.33919,31,62,0
153.33919,153.81366,48,73,0
153.33919,153.81366,36,62,0
153.81366,154.03737,64,77,0
154.77213,155.01387,24,63,0
154.77213,155.01387,36,70,0
155.13474,155.2466,63,55,0
155.2466,155.4703,63,61,0
155.4703,155.80801,63,66,0
155.80801,155.92198,62,59,0
155.92198,156.16277,62,56,0
156.53465,156.64694,54,61,0
156.53465,156.64694,50,51,0
156.64694,156.87149,54,58,0
156.64694,156.87149,50,49,0
156.87149,157.09604,54,63,0
156.87149,157.09604,50,53,0
156.16277,157.09604,62,67,0
157.57295,157.81087,31,70,0
157.57295,157.81087,43,70,0
157.92572,158.03842,63,55,0
158.03842,158.26381,63,61,0
158.26381,158.6019,63,66,0
159.32642,159.4404,55,61,0
159.32642,159.4404,50,51,0
159.4404,159.66835,55,58,0
159.4404,159.66835,50,49,0
159.66835,159.89632,55,63,0
159.66835,159.89632,50,53,0
160.37085,160.61656,38,70,0
160.37085,160.61656,50,70,0
160.73941,160.85295,65,55,0
160.85295,161.08006,65,61,0
161.08006,161.4207,65,66,0
161.4207,161.53918,64,61,0
161.53918,161.78795,64,58,0
162.16109,162.27507,56,61,0
162.16109,162.27507,52,51,0
162.27507,162.50302,56,58,0
162.27507,162.50302,52,49,0
162.50302,162.73099,56,63,0
162.50302,162.73099,52,53,0
161.78795,162.73099,64,62,0
163.21594,163.46889,36,70,0
163.21594,163.46889,48,70,0
163.59537,163.70723,65,55,0
163.70723,163.93094,65,61,0
163.93094,164.26651,65,66,0
164.26651,164.3818,64,67,0
164.3818,164.6337,64,63,0
165.00073,165.1156,52,54,0
165.00743,165.1223,57,65,0
165.1156,165.1223,57,62,0
165.1156,165.3453,52,52,0
165.3453,165.57501,57,67,0
164.6337,165.57501,64,62,0
165.352,165.58179,52,56,0
166.05176,166.29745,38,70,0
166.05176,166.29745,50,70,0
166.4203,166.47708,71,66,0
166.53386,166.6474,71,67,0
166.76096,166.94023,71,76,0
167.11952,167.17876,77,70,0
167.238,167.35956,77,70,0
167.84578,167.90277,71,70,0
167.95976,168.07375,71,74,0
167.48111,168.18773,77,78,0
168.18773,168.30171,71,75,0
168.89023,169.13593,35,70,0
168.89023,169.13593,47,70,0
169.25877,169.31555,59,66,0
169.37233,169.48589,59,67,0
169.59943,169.76976,59,76,0
169.94008,169.99933,69,70,0
170.05856,170.18294,69,70,0
170.67314,170.73013,59,70,0
170.78712,170.90111,59,74,0
170.3055,171.01509,69,78,0
171.01509,171.12906,59,75,0
171.71759,171.96329,40,70,0
171.71759,171.96329,52,70,0
172.08614,172.14291,71,66,0
172.19969,172.31323,71,67,0
172.42679,172.5971,71,76,0
172.76744,172.82668,76,70,0
172.88593,173.0103,76,70,0
173.50781,173.5648,71,70,0
173.6218,173.73578,71,74,0
173.13467,173.84975,76,78,0
173.84975,173.96373,71,75,0
174.55226,174.79796,28,70,0
174.55226,174.79796,40,70,0
174.9208,174.97758,52,66,0
175.03435,175.1479,52,67,0
175.26146,175.43178,52,76,0
175.60211,175.66135,64,66,0
175.7206,175.84497,64,65,0
176.34248,176.39948,52,56,0
176.45647,176.57045,52,57,0
175.96935,176.68442,64,68,0
176.68442,176.7984,52,54,0
177.39851,177.64026,33,56,0
177.39851,177.64026,45,56,0
177.76112,177.87299,65,44,0
177.87299,178.0967,65,48,0
178.0967,178.43439,65,52,0
178.43439,178.54837,64,59,0
178.54837,178.80261,64,56,0
179.15666,179.26894,57,48,0
179.15666,179.26894,52,40,0
179.26894,179.49348,57,46,0
179.26894,179.49348,52,39,0
179.49348,179.72604,57,50,0
179.49348,179.72604,52,42,0
178.80261,179.72604,64,60,0
180.55974,180.67242,65,52,0
180.20697,180.67242,32,66,0
180.20697,180.67242,44,66,0
180.67242,180.89783,65,57,0
180.89783,181.23592,65,62,0
181.23592,181.35255,64,72,0
181.35255,181.59927,64,72,0
181.96042,182.0744,56,57,0
181.96042,182.0744,52,48,0
182.0744,182.30237,56,55,0
182.0744,182.30237,52,46,0
181.59927,182.30237,64,75,0
182.30237,182.53033,56,59,0
182.30237,182.53033,52,50,0
183.41914,183.53268,71,55,0
183.05328,183.53268,33,70,0
183.05328,183.53268,45,70,0
183.53268,183.7598,71,61,0
183.7598,184.10043,71,66,0
184.10043,184.21892,69,61,0
184.21892,184.46768,69,58,0
184.84082,184.95479,60,61,0
184.84082,184.95479,57,51,0
184.95479,185.18275,60,58,0
184.95479,185.18275,57,49,0
185.18275,185.41072,60,63,0
185.18275,185.41072,57,53,0
184.46768,185.41072,69,62,0
186.3066,186.41844,74,55,0
185.92844,186.41844,38,70,0
185.92844,186.41844,50,70,0
186.41844,186.64215,74,61,0
186.64215,186.86588,74,66,0
186.97772,187.03537,59,67,0
186.97772,187.03537,55,56,0
187.09302,187.22179,59,63,0
187.09302,187.22179,55,53,0
187.35054,187.59523,59,68,0
187.35054,187.59523,55,57,0
187.72499,187.85475,55,73,0
187.72499,187.85475,43,61,0
187.85475,188.11426,55,69,0
187.85475,188.11426,43,58,0
188.11426,191.94762,55,75,0
188.11426,191.94762,43,63,0
191.94762,192.60052,53,45,0
191.94762,192.60052,41,41,0
192.60052,193.95605,55,51,0
193.95605,195.48235,50,48,0
192.60052,196.55309,43,39,0
196.55309,196.7847,43,37,0
196.7847,197.19981,48,47,0
197.19981,197.43228,45,41,0
194.18991,197.43228,55,46,0
197.85274,199.85599,38,39,0
197.43228,199.85599,50,48,0
199.85599,201.82004,31,37,0
199.85599,201.82004,43,37,0
201.82004,202.05165,31,37,0
202.05165,202.46677,36,47,0
202.46677,202.69923,33,41,0
203.11969,203.79321,26,39,0
202.69923,203.79321,38,48,0
204.70908,206.41467,50,46,0
204.70908,206.41467,38,46,0
206.41467,209.72742,43,48,0
206.41467,209.72742,31,43,0
209.72742,211.02124,53,54,0
209.72742,211.02124,41,46,0
211.02124,213.22003,46,45,0
211.02124,213.22003,34,37,0
213.22003,213.65349,48,31,0
213.22003,213.65349,36,31,0
213.65349,213.91345,49,28,0
213.65349,213.91345,37,28,0
213.91345,215.81177,50,36,0
213.91345,215.81177,38,30,0
215.81177,217.88849,31,39,0
217.88849,218.12677,31,33,0
218.12677,218.5419,36,42,0
218.5419,218.77737,33,36,0
215.81177,218.77737,43,51,0
219.20154,221.46812,26,35,0
221.46812,223.21452,31,45,0
223.21452,223.45763,31,31,0
218.77737,223.45763,38,43,0
223.88802,224.13211,33,34,0
223.45763,224.13211,36,39,0
224.56152,224.81706,26,31,0
224.13211,224.81706,38,39,0
224.81706,225.25862,31,39,0
226.24161,226.36366,58,40,0
226.24161,226.36366,55,34,0
226.60776,226.69472,54,27,0
226.69472,226.83246,57,39,0
226.69472,226.83246,50,33,0
226.9702,227.09427,55,38,0
226.9702,227.09427,51,32,0
227.3424,227.43304,48,27,0
227.43304,227.57336,51,33,0
227.43304,227.57336,45,27,0
227.71368,227.84038,50,40,0
227.71368,227.84038,46,34,0
228.09375,228.18663,45,27,0
228.18663,228.3263,48,38,0
228.18663,228.3263,42,32,0
228.45685,228.58194,46,37,0
228.45685,228.58194,43,31,0
228.83215,228.92532,42,26,0
228.92532,229.07039,45,31,0
228.92532,229.07039,38,26,0
229.21545,229.34544,43,37,0
229.21545,229.34544,39,32,0
229.60541,229.69887,36,26,0
229.69887,229.84827,39,36,0
229.69887,229.84827,33,30,0
229.99767,230.13733,38,35,0
229.99767,230.13733,34,29,0
230.41666,230.51282,33,24,0
230.51282,230.65314,36,29,0
230.51282,230.65314,30,25,0
230.79346,230.94211,34,29,0
230.79346,230.94211,31,29,0
231.68542,231.83409,26,25,0
232.5774,232.72606,31,26,0
