start_time,end_time,note_value,velocity,instrument_program_number
0.9,0.9630253,50,46,0
1.152101,1.2275727,55,50,0
1.2275727,1.3030443,50,36,0
1.3030443,1.3783455,57,36,0
1.3783455,1.4450121,58,50,0
1.645012,1.7207695,57,50,0
1.7207695,1.796527,50,36,0
1.796527,1.8722845,58,36,0
1.8722845,1.9392488,60,50,0
2.1401415,2.215899,58,50,0
2.215899,2.2916565,50,35,0
2.2916565,2.367414,60,35,0
2.367414,2.4334931,62,50,0
2.631731,2.7074885,55,50,0
2.7074885,2.783246,50,36,0
2.783246,2.8590035,57,36,0
2.8590035,2.9250827,58,50,0
3.1233206,3.199078,57,50,0
3.199078,3.2748356,51,38,0
3.2748356,3.350593,58,38,0
3.350593,3.4163826,60,50,0
3.613751,3.6897967,54,50,0
3.6897967,3.7658424,48,40,0
3.7658424,3.841888,55,40,0
3.841888,3.9071054,57,50,0
4.1027575,4.178803,55,50,0
4.178803,4.254849,50,40,0
4.254849,4.3308945,57,41,0
4.3308945,4.3958297,58,50,0
4.590635,4.7096825,57,50,0
4.769206,4.82873,54,44,0
4.82873,4.891755,50,58,0
5.080831,5.1563025,55,50,0
5.1563025,5.2317743,50,38,0
5.2317743,5.307246,57,38,0
5.307246,5.373913,58,50,0
5.5739126,5.64967,57,50,0
5.64967,5.7254276,50,38,0
5.7254276,5.801185,58,38,0
5.801185,5.8681493,60,50,0
6.069042,6.1447997,58,50,0
6.1447997,6.220557,50,37,0
6.220557,6.2963147,60,37,0
6.2963147,6.362394,62,50,0
6.5606313,6.636389,55,50,0
6.636389,6.7121463,50,40,0
6.7121463,6.787904,57,40,0
6.787904,6.8539834,58,50,0
7.052221,7.1279783,57,50,0
7.1279783,7.203736,51,40,0
7.203736,7.2794933,58,40,0
7.2794933,7.345283,60,50,0
7.5426517,7.618697,59,50,0
7.618697,7.6947427,50,39,0
7.6947427,7.7707887,60,40,0
7.7707887,7.8360057,62,50,0
8.031658,8.107703,60,50,0
8.107703,8.183749,55,41,0
8.183749,8.259795,62,41,0
8.259795,8.320036,63,50,0
8.500759,8.572701,59,54,0
8.572701,8.644644,53,45,0
8.644644,8.716586,60,45,0
8.716586,8.7804165,62,56,0
8.971906,9.047663,60,59,0
9.047663,9.123421,55,48,0
9.123421,9.199178,62,48,0
9.199178,9.264968,63,59,0
9.462336,9.538382,63,63,0
9.538382,9.614428,55,51,0
9.614428,9.690473,65,51,0
9.690473,9.755691,67,61,0
9.951343,10.0271,66,70,0
10.0271,10.102858,54,53,0
10.102858,10.178615,67,54,0
10.178615,10.244405,69,66,0
10.441773,10.507563,62,67,0
10.704931,10.767956,62,64,0
10.957032,11.036523,67,64,0
11.036523,11.1160145,62,48,0
11.1160145,11.195506,69,48,0
11.195506,11.266061,70,64,0
11.477726,11.557534,69,64,0
11.557534,11.637343,62,50,0
11.637343,11.717152,70,50,0
11.717152,11.787049,72,64,0
11.996741,12.076233,70,64,0
12.076233,12.155725,62,49,0
12.155725,12.235215,72,49,0
12.235215,12.303521,74,64,0
12.508439,12.586994,67,64,0
12.586994,12.665549,62,50,0
12.665549,12.744103,69,52,0
12.744103,12.812409,70,64,0
13.017327,13.096504,69,64,0
13.096504,13.17568,63,52,0
13.17568,13.254857,70,52,0
13.254857,13.322853,72,64,0
13.526842,13.606651,66,64,0
13.606651,13.68646,60,51,0
13.68646,13.766268,67,51,0
13.766268,13.834265,69,64,0
14.038254,14.116808,67,64,0
14.116808,14.195363,62,54,0
14.195363,14.273917,69,54,0
14.273917,14.334646,70,64,0
14.516832,14.634665,69,64,0
14.693581,14.752497,66,52,0
14.752497,14.815522,62,71,0
15.004598,15.084089,67,64,0
15.084089,15.16358,62,49,0
15.16358,15.243072,69,50,0
15.243072,15.310457,70,64,0
15.512613,15.592742,69,64,0
15.592742,15.67271,62,51,0
15.67271,15.752519,70,52,0
15.752519,15.820515,72,64,0
16.024504,16.104631,70,64,0
16.104631,16.184761,62,55,0
16.184761,16.264889,72,55,0
16.264889,16.33005,74,64,0
16.525532,16.599474,75,71,0
16.599474,16.673416,67,56,0
16.673416,16.74736,77,56,0
16.74736,16.813438,79,64,0
17.011677,17.089497,69,59,0
17.089497,17.167318,60,47,0
17.167318,17.24514,70,47,0
17.24514,17.310585,72,59,0
17.50692,17.581657,74,71,0
17.581657,17.656397,65,52,0
17.656397,17.731134,75,55,0
17.731134,17.796352,77,65,0
17.992004,18.069824,67,59,0
18.069824,18.147646,58,44,0
18.147646,18.225468,69,44,0
18.225468,18.288973,70,59,0
18.479488,18.553705,72,68,0
18.553705,18.627922,63,51,0
18.627922,18.70214,74,51,0
18.70214,18.76597,75,66,0
18.957458,19.034382,66,59,0
19.034382,19.111305,57,45,0
19.111305,19.188229,67,45,0
19.188229,19.254017,69,58,0
19.451385,19.527431,72,66,0
19.527431,19.603477,63,50,0
19.603477,19.679523,74,51,0
19.679523,19.74474,75,65,0
19.940393,20.016727,66,62,0
20.016727,20.093063,57,47,0
20.093063,20.1694,67,51,0
20.1694,20.23519,69,60,0
20.432558,20.508604,72,66,0
20.508604,20.58465,63,53,0
20.58465,20.660694,74,50,0
20.660694,20.725912,75,65,0
20.921564,20.998194,66,66,0
20.998194,21.074821,57,51,0
21.074821,21.15145,67,51,0
21.15145,21.21724,69,64,0
21.414608,21.493198,60,59,0
21.493198,21.57179,57,47,0
21.57179,21.650383,62,45,0
21.650383,21.71811,63,56,0
21.921288,22.001135,54,54,0
22.001135,22.08098,50,38,0
22.08098,22.160828,55,38,0
22.160828,22.226618,57,52,0
22.423986,22.489775,50,50,0
22.687143,22.750168,50,52,0
22.939245,23.01692,55,50,0
23.01692,23.094597,50,37,0
23.094597,23.172272,57,37,0
23.172272,23.23894,58,50,0
23.438938,23.516615,57,50,0
23.516615,23.594292,50,38,0
23.594292,23.671967,58,38,0
23.671967,23.738932,60,50,0
23.939823,24.016901,58,50,0
24.016901,24.093979,50,37,0
24.093979,24.171055,60,39,0
24.171055,24.237135,62,51,0
24.435373,24.51113,55,52,0
24.51113,24.586887,50,40,0
24.586887,24.662645,57,40,0
24.662645,24.728724,58,53,0
24.926962,25.00272,57,55,0
25.00272,25.078478,51,42,0
25.078478,25.154234,58,42,0
25.154234,25.220024,60,56,0
25.417393,25.493439,59,57,0
25.493439,25.569485,53,44,0
25.569485,25.645529,60,49,0
25.645529,25.710747,62,58,0
25.906399,25.982157,60,60,0
25.982157,26.057915,51,48,0
26.057915,26.13367,62,49,0
26.13367,26.193913,63,61,0
26.374636,26.450682,59,62,0
26.450682,26.526728,53,53,0
26.526728,26.602772,60,54,0
26.602772,26.66799,62,63,0
26.863642,26.9394,60,65,0
26.9394,27.015158,55,55,0
27.015158,27.090914,62,56,0
27.090914,27.20856,63,66,0
27.20856,27.326208,60,63,0
27.326208,27.402254,62,67,0
27.402254,27.4783,55,58,0
27.4783,27.554346,63,58,0
27.554346,27.62347,65,68,0
27.830843,27.910208,64,70,0
27.910208,27.989573,55,60,0
27.989573,28.068937,66,60,0
28.068937,28.209126,67,70,0
28.349312,28.4337,67,75,0
28.4337,28.518087,58,65,0
28.518087,28.602476,69,64,0
28.602476,28.76205,70,75,0
28.921625,29.47462,74,86,0
28.921625,29.47462,62,73,0
29.47462,30.027615,57,66,0
29.47462,30.027615,66,78,0
29.47462,30.027615,62,66,0
30.027615,30.10574,64,70,0
30.10574,30.183865,55,60,0
30.183865,30.26199,66,60,0
30.26199,30.400879,67,70,0
30.539768,30.622755,67,74,0
30.622755,30.705744,58,67,0
30.705744,30.78873,69,70,0
30.78873,30.97553,70,82,0
31.16233,31.76656,79,94,0
31.16233,31.76656,70,80,0
31.16233,31.76656,74,80,0
31.76656,32.53089,69,72,0
31.76656,32.53089,74,85,0
31.76656,32.53089,66,72,0
32.53089,33.295223,58,72,0
32.53089,33.295223,67,85,0
32.53089,33.295223,62,72,0
34.054775,34.42611,53,43,0
34.42456,34.795757,55,43,0
34.809677,35.18087,57,43,0
35.174686,35.542324,58,43,0
35.546772,35.90073,60,43,0
35.893406,36.242664,62,46,0
36.24701,36.590862,63,49,0
36.5848,36.99013,65,56,0
37.37233,37.735527,65,59,0
37.735527,38.090137,63,56,0
37.026474,38.42997,67,69,0
38.090137,38.444748,62,50,0
38.444748,39.156322,67,59,0
39.159252,39.510994,69,55,0
39.506474,39.90131,71,59,0
39.93308,41.680138,75,69,0
39.797173,41.680138,63,60,0
41.680138,42.1746,74,51,0
42.1746,42.319458,72,55,0
42.319458,42.468533,70,53,0
42.468533,42.629368,69,51,0
42.629368,42.830303,67,50,0
42.840996,43.207653,63,59,0
43.200016,43.566532,62,53,0
43.566532,43.9161,60,49,0
43.902992,44.25256,58,48,0
42.84558,45.10804,65,59,0
45.10804,45.257374,67,42,0
45.257374,45.41268,69,46,0
45.41268,45.580795,70,50,0
45.580795,45.7734,72,54,0
45.949207,46.125015,62,32,0
45.8027,46.125015,74,63,0
46.125015,46.517105,72,56,0
46.703857,46.890614,58,32,0
46.517105,46.890614,70,63,0
46.890614,47.24018,69,54,0
47.24018,47.609093,67,48,0
46.524887,47.61678,79,65,0
47.609093,47.97801,77,52,0
47.609093,47.97801,65,44,0
47.97801,48.186863,76,56,0
48.186863,48.278214,77,44,0
48.278214,48.369568,76,35,0
47.97801,48.369568,64,47,0
48.369568,48.589832,62,45,0
48.373238,48.593502,74,53,0
48.591667,48.806423,72,48,0
47.424637,48.810097,58,37,0
48.593502,48.81305,60,40,0
48.9874,49.164703,60,32,0
48.810097,49.164703,72,53,0
49.164703,49.565952,70,53,0
49.748165,49.93038,57,32,0
49.565952,49.93038,69,49,0
49.93038,50.294815,67,54,0
50.294815,50.67066,65,48,0
49.573544,50.679012,77,58,0
50.67066,51.07162,64,44,0
50.67066,51.07162,76,52,0
51.07162,51.304832,74,56,0
51.304832,51.359497,76,43,0
51.359497,51.41416,74,44,0
51.41416,51.468826,73,45,0
51.468826,51.52349,74,46,0
51.07162,51.52349,62,47,0
51.519844,51.75182,76,54,0
51.52736,51.760105,64,45,0
51.760105,52.01629,77,55,0
50.48274,52.020706,57,37,0
51.757896,52.022537,65,46,0
52.24026,52.459816,65,37,0
52.020706,52.459816,77,61,0
52.459816,52.880455,76,53,0
53.074455,53.268456,65,30,0
52.880455,53.48329,74,58,0
53.48329,53.69813,72,52,0
53.904118,54.110104,60,37,0
53.69813,54.110104,72,58,0
54.110104,54.52208,70,53,0
54.728065,54.934055,60,31,0
54.52208,55.147366,69,58,0
55.147366,55.360676,67,52,0
55.56666,56.39061,58,37,0
56.39061,57.008633,58,37,0
55.360676,57.008633,67,43,0
57.008633,57.432114,65,43,0
57.432114,57.87702,63,43,0
57.2178,57.87702,57,31,0
57.87702,58.345867,62,47,0
58.345867,59.212532,61,40,0
59.212532,59.58373,62,43,0
60.302,60.657616,60,43,0
60.65322,61.002533,62,46,0
61.01846,61.363262,63,49,0
61.359985,61.7708,65,56,0
62.12427,62.47888,65,59,0
62.47888,62.833492,63,56,0
61.80144,63.186623,67,67,0
62.833492,63.188103,62,50,0
63.188103,63.899677,67,59,0
63.907,64.258934,69,55,0
64.255875,64.65093,71,59,0
64.65393,66.42349,75,69,0
64.54053,66.42349,63,60,0
66.42349,66.91795,74,51,0
66.91795,67.06281,72,55,0
67.06281,67.21188,70,53,0
67.21188,67.37672,69,51,0
67.37672,67.5664,67,50,0
67.555435,67.92236,63,59,0
67.928474,68.29513,62,53,0
68.307,68.65656,60,49,0
68.64054,68.99011,58,48,0
67.58167,69.84413,65,59,0
69.84413,69.99347,67,42,0
69.99347,70.14878,69,46,0
70.14878,70.31689,70,50,0
70.31689,70.50949,72,54,0
70.6853,70.86111,62,32,0
70.538795,70.86111,74,63,0
70.86111,71.236595,72,56,0
71.42335,71.6101,58,32,0
71.236595,71.6101,70,63,0
71.6101,71.95966,69,54,0
71.95966,72.32858,67,48,0
71.24438,72.33012,79,63,0
72.32858,72.697495,65,44,0
72.33473,72.70445,77,52,0
72.697495,72.90635,76,56,0
72.90635,72.990524,77,39,0
72.990524,73.0747,76,36,0
72.697495,73.0747,64,47,0
73.069084,73.26721,74,53,0
73.076355,73.2756,62,45,0
73.28607,73.4816,72,48,0
72.14413,73.483345,58,37,0
73.2756,73.484795,60,40,0
73.65712,73.83089,60,32,0
73.483345,73.83089,72,53,0
73.83089,74.22309,70,53,0
74.405304,74.587524,57,32,0
74.22309,74.587524,69,49,0
74.587524,74.95196,67,54,0
74.95196,75.3278,65,48,0
74.229164,75.3278,77,58,0
75.3278,75.72876,76,52,0
75.3278,75.72876,64,44,0
75.72876,75.98044,74,56,0
75.98044,76.032814,76,43,0
76.032814,76.08519,74,44,0
76.08519,76.137566,73,45,0
76.137566,76.18993,74,46,0
75.72876,76.18993,62,47,0
76.181206,76.39948,76,54,0
76.19176,76.41077,64,45,0
76.40678,76.66684,77,55,0
75.13988,76.669014,57,37,0
76.417274,76.67633,65,46,0
76.888565,77.10812,65,37,0
76.669014,77.10812,77,61,0
77.10812,77.52876,76,53,0
77.72276,77.91676,65,30,0
77.52876,78.1316,74,58,0
78.1316,78.346436,72,52,0
78.55242,78.758415,60,37,0
78.346436,78.758415,72,58,0
78.758415,79.17039,70,53,0
79.37637,79.58236,60,31,0
79.17039,79.79567,69,58,0
79.79567,80.00898,67,52,0
80.214966,81.049194,58,37,0
81.049194,81.74271,58,37,0
80.00898,81.74271,67,43,0
81.99122,82.73674,57,31,0
81.74271,82.73674,65,43,0
83.72146,84.07824,65,43,0
83.908844,84.0856,63,30,0
84.07971,84.433235,67,43,0
84.42882,84.78234,69,43,0
84.61589,84.79265,63,36,0
84.798546,85.15141,70,43,0
85.32312,85.49951,63,31,0
85.146965,85.50098,72,43,0
85.49805,85.847305,74,46,0
86.02156,86.19222,63,31,0
85.850204,86.19384,75,49,0
86.18805,86.57517,77,56,0
86.75472,86.92943,63,35,0
86.59458,86.943985,78,62,0
86.9338,87.2832,77,59,0
87.27155,87.620964,75,56,0
87.45354,87.62824,63,32,0
87.62533,87.97474,73,50,0
88.15554,88.333435,63,30,0
87.979126,88.334915,72,43,0
88.33936,88.69508,70,41,0
88.86503,89.04084,63,30,0
88.69362,89.045425,69,43,0
89.05306,89.447754,70,40,0
89.61273,89.7895,63,25,0
89.435974,89.7895,65,36,0
89.44628,89.799805,69,36,0
89.79244,90.145966,67,36,0
90.132706,90.48624,69,36,0
90.31978,90.496544,63,30,0
90.496544,90.84937,70,36,0
90.844925,91.199005,72,36,0
91.027016,91.2034,63,26,0
91.193146,91.54251,73,39,0
91.72545,91.89612,63,26,0
91.55409,91.897736,75,41,0
91.89055,92.27745,77,47,0
92.45862,92.63332,63,29,0
92.29848,92.64788,78,52,0
92.63332,92.98273,77,50,0
93.15743,93.33213,63,27,0
92.98273,93.506836,75,47,0
93.506836,93.68154,73,42,0
93.859436,94.03733,63,25,0
93.696365,94.04771,73,36,0
94.03733,94.39311,72,34,0
94.39311,94.48102,70,36,0
94.48102,94.568924,72,36,0
94.568924,94.744736,60,41,0
94.568924,94.92806,70,41,0
94.92806,95.13986,68,34,0
95.32061,96.03597,61,36,0
96.03597,96.736244,61,36,0
95.15467,97.25732,73,36,0
96.736244,97.43101,61,36,0
97.43101,97.6047,61,36,0
97.6047,98.19148,61,44,0
98.19148,98.894394,61,36,0
98.894394,99.59805,61,36,0
99.59805,100.3135,61,36,0
100.3135,100.67739,61,36,0
101.04175,101.22198,58,30,0
100.67739,101.22198,61,36,0
101.22198,101.57965,63,29,0
101.75712,101.93353,58,30,0
101.57965,101.93353,65,37,0
101.93353,102.28369,66,39,0
102.45738,102.63107,58,36,0
102.28369,102.63107,68,41,0
102.63107,102.978455,70,43,0
103.152145,103.325836,58,30,0
102.978455,103.325836,71,46,0
103.325836,103.7369,73,48,0
103.915764,104.094635,59,35,0
103.7518,104.094635,74,54,0
104.094635,104.45238,71,47,0
104.63125,104.81011,59,30,0
104.45238,104.81011,68,45,0
104.81011,105.16722,65,41,0
105.344505,105.52359,56,37,0
105.52359,105.88757,59,41,0
105.16722,105.88757,62,46,0
105.88757,106.07878,56,40,0
106.07878,106.277855,53,38,0
106.277855,106.48505,50,36,0
106.48505,106.71993,47,34,0
106.90067,107.08091,58,30,0
106.71993,107.08091,61,36,0
107.08091,107.43858,63,29,0
107.61604,107.79246,58,30,0
107.43858,107.79246,65,37,0
107.79246,108.14262,66,39,0
108.31631,108.49,58,36,0
108.14262,108.49,68,41,0
108.49,108.83738,70,43,0
109.01108,109.18477,58,30,0
108.83738,109.18477,71,44,0
109.18477,109.595825,72,47,0
109.777954,109.96008,58,35,0
109.60342,109.96008,73,54,0
109.96008,110.32535,70,41,0
110.51086,110.69636,58,30,0
110.32535,110.69636,67,45,0
110.69636,111.06737,64,41,0
111.26448,111.461586,55,33,0
111.06737,111.461586,61,43,0
111.461586,111.86194,58,41,0
112.49181,112.77786,51,27,0
112.16519,112.77786,53,32,0
111.86194,112.77786,57,46,0
112.77786,112.87149,58,36,0
112.87149,113.2437,53,34,0
112.87149,113.2437,58,36,0
113.2437,113.61591,55,35,0
113.61591,113.98812,57,36,0
113.98812,114.356674,58,37,0
114.356674,114.7107,60,38,0
114.7107,115.059944,62,42,0
115.059944,115.40342,63,46,0
115.40342,115.78835,65,54,0
116.14414,116.49992,65,59,0
116.49992,116.85571,63,56,0
116.85571,117.2115,62,50,0
115.81652,117.2115,67,65,0
117.2115,117.92307,67,59,0
117.917145,118.26884,69,55,0
118.2703,118.664536,71,59,0
118.56393,120.44689,63,60,0
118.678825,120.45563,75,69,0
120.44689,120.94135,74,51,0
120.94135,121.08621,72,55,0
121.08621,121.23528,70,53,0
121.23528,121.39484,69,51,0
121.39484,121.57376,67,50,0
121.57376,121.94042,63,59,0
121.94042,122.30708,62,53,0
122.30708,122.65665,60,49,0
122.65665,123.00622,58,48,0
121.58904,123.8515,65,59,0
123.8515,124.00083,67,42,0
124.00083,124.15614,69,46,0
124.15614,124.32426,70,50,0
124.32426,124.51686,72,54,0
124.692665,124.86848,62,44,0
124.51686,124.86848,74,63,0
124.86848,125.24396,72,56,0
125.43071,125.61746,58,42,0
125.24396,125.61746,70,63,0
125.61746,125.96703,69,54,0
125.96703,126.335945,67,48,0
125.25952,126.335945,79,63,0
126.34363,126.70486,77,52,0
126.335945,126.70486,65,44,0
126.70486,126.91371,76,56,0
126.91371,126.99933,77,44,0
126.99933,127.084946,76,37,0
126.70486,127.084946,64,47,0
127.088264,127.28759,62,45,0
127.0949,127.29457,74,53,0
127.2758,127.48486,72,48,0
126.15149,127.49359,58,37,0
127.29282,127.50083,60,40,0
127.667366,127.84114,60,32,0
127.49359,127.84114,72,53,0
127.84114,128.21901,70,53,0
128.40121,128.58344,57,32,0
128.21901,128.58344,69,49,0
128.58344,128.94786,67,54,0
128.94786,129.32372,65,48,0
128.22963,129.32372,77,58,0
129.32372,129.72467,76,52,0
129.32372,129.72467,64,44,0
129.72467,129.95789,74,56,0
129.95789,130.0099,76,43,0
130.0099,130.0619,74,44,0
130.0619,130.11392,73,45,0
130.11392,130.16592,74,46,0
129.72467,130.16592,62,47,0
130.16246,130.37569,64,45,0
130.16948,130.38332,76,54,0
130.37035,130.61366,65,46,0
129.13579,130.62386,57,37,0
130.37924,130.62386,77,55,0
130.84341,131.06297,65,37,0
130.62386,131.06297,77,61,0
131.06297,131.48361,76,53,0
131.67761,131.87161,65,30,0
131.48361,132.08644,74,58,0
132.08644,132.30128,72,52,0
132.50726,132.71326,60,37,0
132.30128,132.71326,72,58,0
132.71326,133.12523,70,53,0
133.33122,133.5372,60,31,0
133.12523,133.75052,69,58,0
133.75052,133.96382,67,52,0
134.16982,135.00404,58,37,0
133.96382,135.69756,67,43,0
135.00404,135.94606,58,37,0
135.94606,136.69159,57,31,0
135.69756,136.69159,65,43,0
137.86238,138.03915,63,30,0
137.69594,138.04945,65,43,0
138.02884,138.38235,67,43,0
138.38972,138.74326,69,43,0
138.56943,138.7462,63,36,0
138.75504,139.10793,70,43,0
139.09457,139.44865,72,43,0
139.27667,139.45305,63,31,0
139.44719,139.79651,74,46,0
139.9751,140.14577,63,31,0
139.81389,140.15869,75,49,0
140.15707,140.55367,77,56,0
140.71817,140.89288,63,35,0
140.55658,140.89288,78,62,0
140.89288,141.24228,77,59,0
141.41699,141.59169,63,32,0
141.24956,141.59897,75,56,0
141.58441,141.93382,73,50,0
142.11899,142.29689,63,30,0
141.94258,142.29837,72,43,0
142.30577,142.66147,70,41,0
142.82848,143.00429,63,30,0
142.66,143.01193,69,43,0
143.00282,143.39766,70,40,0
143.38884,143.74411,69,36,0
143.57619,143.75294,63,25,0
143.39943,143.75294,65,36,0
143.76326,144.11678,67,36,0
144.28323,144.45999,63,30,0
144.10648,144.45999,69,36,0
144.45705,144.80986,70,36,0
144.99046,145.16685,63,26,0
144.8232,145.17711,72,36,0
145.1566,145.50595,73,39,0
145.6889,145.85957,63,26,0
145.52478,145.86926,75,41,0
145.85262,146.23929,77,47,0
146.42207,146.59677,63,29,0
146.26192,146.61133,78,52,0
146.59677,146.94618,77,50,0
147.12088,147.29558,63,27,0
146.94618,147.47029,75,47,0
147.47029,147.64499,73,42,0
147.82288,148.00078,63,25,0
147.64499,148.00078,73,36,0
148.00078,148.35657,72,34,0
148.35657,148.44447,70,36,0
148.44447,148.53238,72,36,0
148.53238,148.70818,60,25,0
148.53238,148.89151,70,36,0
148.89151,149.10332,68,34,0
149.28406,149.99942,61,36,0
149.99942,150.69969,61,36,0
149.10332,151.22076,73,36,0
150.69969,151.39445,61,36,0
151.39445,151.56815,61,36,0
151.56815,152.15494,61,43,0
152.15494,152.85783,61,36,0
152.85783,153.56151,61,36,0
153.56151,154.27695,61,36,0
154.27695,154.64084,61,36,0
155.0052,155.18542,58,30,0
154.64084,155.18542,61,36,0
155.18542,155.5431,63,29,0
155.72057,155.89697,58,30,0
155.5431,155.89697,65,37,0
155.89697,156.24713,66,39,0
156.42082,156.59453,58,36,0
156.24713,156.59453,68,41,0
156.59453,156.94191,70,43,0
157.1156,157.28929,58,30,0
156.94191,157.28929,71,44,0
157.28929,157.70035,73,47,0
157.87921,158.05809,59,35,0
157.71526,158.073,74,54,0
158.05809,158.41582,71,41,0
158.5947,158.77356,59,30,0
158.41582,158.77356,68,45,0
158.77356,159.13068,65,41,0
159.30795,159.48705,56,37,0
159.48705,159.85101,59,41,0
159.13068,159.85101,62,46,0
159.85101,160.04222,56,40,0
160.04222,160.2413,53,38,0
160.2413,160.44849,50,36,0
160.44849,160.68338,47,34,0
160.86412,161.04436,58,30,0
160.68338,161.04436,61,36,0
161.04436,161.40204,63,29,0
161.5795,161.7559,58,30,0
161.40204,161.7559,65,37,0
161.7559,162.10606,66,39,0
162.27975,162.45345,58,36,0
162.10606,162.45345,68,41,0
162.45345,162.80083,70,43,0
162.97452,163.14821,58,30,0
162.80083,163.14821,71,44,0
163.14821,163.55928,72,43,0
163.74141,163.92352,58,35,0
163.57294,163.9372,73,50,0
163.92352,164.2888,70,41,0
164.4743,164.6598,58,30,0
164.2888,164.6598,67,45,0
164.6598,165.03082,64,41,0
165.22472,165.41862,55,33,0
165.03082,165.41862,61,43,0
165.41862,165.81332,58,41,0
166.42847,166.62254,51,27,0
166.1117,166.62254,53,32,0
165.81332,166.62254,57,46,0
166.62254,166.73495,58,36,0
166.73495,167.10616,58,36,0
166.73495,167.10616,53,34,0
167.10616,167.47734,55,35,0
167.46806,167.83926,57,36,0
167.84698,168.21475,58,37,0
168.22069,168.57466,60,38,0
168.5732,168.92241,62,42,0
168.90938,169.25325,63,46,0
169.27118,169.66124,65,54,0
170.00963,170.3654,65,59,0
170.3654,170.72119,63,56,0
170.72119,171.07698,62,50,0
169.66866,171.07698,67,62,0
171.07698,171.78856,67,59,0
171.78856,172.14018,69,55,0
172.14018,172.53531,71,59,0
172.53531,174.31238,75,69,0
172.42941,174.31238,63,60,0
174.31238,174.80684,74,51,0
174.80684,174.95169,72,55,0
174.95169,175.10077,70,53,0
175.10077,175.26031,69,51,0
175.26031,175.43924,67,50,0
175.43924,175.80591,63,59,0
175.80591,176.17256,62,53,0
176.17256,176.52213,60,49,0
176.52213,176.8717,58,48,0
175.43924,177.71698,65,59,0
177.71698,177.86632,67,42,0
177.86632,178.02162,69,46,0
178.02162,178.18974,70,50,0
178.18974,178.38234,72,54,0
178.55815,178.73396,62,32,0
178.38234,178.73396,74,59,0
178.73396,179.10944,72,55,0
179.29619,179.48294,62,37,0
179.10944,179.48294,70,65,0
179.48294,179.83252,69,54,0
179.84717,180.18413,79,69,0
180.18413,180.55962,77,56,0
180.74637,180.93312,65,32,0
180.55962,180.93312,75,64,0
180.93312,181.28268,74,54,0
181.4585,181.63431,60,32,0
181.28268,181.63431,72,59,0
181.63431,182.00978,70,51,0
182.19655,182.3833,60,32,0
182.00978,182.3833,68,57,0
182.3833,182.73286,67,52,0
182.74751,183.08449,77,65,0
183.08449,183.45996,75,56,0
183.64671,183.83347,63,32,0
183.45996,183.83347,74,64,0
183.83347,184.18304,72,54,0
184.35884,184.53465,62,32,0
184.18304,184.53465,70,59,0
184.53465,184.91014,68,51,0
185.0969,185.28365,56,32,0
184.91014,185.28365,67,57,0
185.28365,185.64413,66,52,0
185.82768,186.01125,55,32,0
185.64413,186.01125,67,59,0
186.01125,186.39655,63,51,0
186.5871,186.77765,55,32,0
186.39655,186.77765,62,53,0
186.77765,187.19887,61,48,0
187.19887,187.46169,62,53,0
187.46169,187.7245,57,41,0
187.7245,187.9873,55,41,0
187.9873,188.4034,54,48,0
188.4034,188.89041,52,28,0
188.4034,188.89041,55,34,0
188.89041,189.70563,62,48,0
188.89041,189.70563,57,48,0
188.89041,189.70563,54,40,0
190.00563,190.06865,50,46,0
190.25774,190.3332,55,50,0
190.3332,190.40868,50,35,0
190.40868,190.48415,57,35,0
190.48415,190.55081,58,50,0
190.75081,190.82657,57,50,0
190.82657,190.90233,50,38,0
190.90233,190.97809,58,39,0
190.97809,191.04504,60,50,0
191.24594,191.3217,58,50,0
191.3217,191.39746,50,36,0
191.39746,191.47322,60,36,0
191.47322,191.53929,62,50,0
191.73753,191.8133,55,50,0
191.8133,191.88905,50,37,0
191.88905,191.9648,57,37,0
191.9648,192.03088,58,50,0
192.22913,192.30489,57,50,0
192.30489,192.38063,51,38,0
192.38063,192.45639,58,38,0
192.45639,192.52219,60,50,0
192.71956,192.7956,54,50,0
192.7956,192.87164,48,37,0
192.87164,192.9477,55,37,0
192.9477,193.01291,57,50,0
193.20856,193.2846,55,50,0
193.2846,193.36066,50,39,0
193.36066,193.43669,57,39,0
193.43669,193.50163,58,50,0
193.69644,193.81548,57,50,0
193.875,193.93452,54,44,0
193.93452,193.99756,50,58,0
194.18663,194.2621,55,50,0
194.2621,194.33757,50,37,0
194.33757,194.41304,57,37,0
194.41304,194.4797,58,50,0
194.67972,194.75548,57,50,0
194.75548,194.83122,50,39,0
194.83122,194.90698,58,39,0
194.90698,194.97395,60,50,0
195.17484,195.2506,58,50,0
195.2506,195.32635,50,37,0
195.32635,195.40211,60,37,0
195.40211,195.4682,62,50,0
195.66643,195.74219,55,50,0
195.74219,195.81795,50,39,0
195.81795,195.8937,57,39,0
195.8937,195.95978,58,50,0
196.15802,196.23378,57,50,0
196.23378,196.30954,51,39,0
196.30954,196.3853,58,39,0
196.3853,196.45108,60,50,0
196.64845,196.7245,59,50,0
196.7245,196.80054,50,38,0
196.80054,196.87659,60,38,0
196.87659,196.9418,62,50,0
197.13745,197.2135,60,50,0
197.2135,197.28955,55,42,0
197.28955,197.3656,62,44,0
197.3656,197.42584,63,50,0
197.60655,197.6785,59,54,0
197.6785,197.75044,53,50,0
197.75044,197.82239,60,50,0
197.82239,197.88622,62,56,0
198.07771,198.15346,60,59,0
198.15346,198.22922,55,51,0
198.22922,198.30498,62,51,0
198.30498,198.37077,63,59,0
198.56813,198.64418,63,63,0
198.64418,198.72023,55,53,0
198.72023,198.79628,65,54,0
198.79628,198.8615,67,61,0
199.05714,199.1329,66,70,0
199.1329,199.20866,54,57,0
199.20866,199.28441,67,57,0
199.28441,199.3502,69,71,0
199.54758,199.61336,62,67,0
199.81073,199.87376,62,73,0
200.06284,200.14201,67,64,0
200.14201,200.22119,62,49,0
200.22119,200.30037,69,49,0
200.30037,200.36867,70,64,0
200.5736,200.6534,69,64,0
200.6534,200.7332,62,50,0
200.7332,200.81302,70,50,0
200.81302,200.88194,72,64,0
201.08875,201.16887,70,64,0
201.16887,201.24901,62,49,0
201.24901,201.32913,72,49,0
201.32913,201.39743,74,64,0
201.60236,201.68091,67,64,0
201.68091,201.75946,62,51,0
201.75946,201.83801,69,51,0
201.83801,201.90541,70,64,0
202.10756,202.18643,69,64,0
202.18643,202.26529,63,50,0
202.26529,202.34416,70,50,0
202.34416,202.41093,72,64,0
202.6113,202.69048,66,64,0
202.69048,202.76965,60,50,0
202.76965,202.84883,67,50,0
202.84883,202.91405,69,64,0
203.1097,203.18661,67,64,0
203.18661,203.26353,62,51,0
203.26353,203.34047,69,51,0
203.34047,203.4012,70,64,0
203.58337,203.69832,69,64,0
203.7558,203.81326,66,52,0
203.81326,203.87628,62,62,0
204.06537,204.14288,67,64,0
204.14288,204.2204,62,49,0
204.2204,204.29793,69,49,0
204.29793,204.3646,70,64,0
204.56459,204.6421,69,64,0
204.6421,204.71964,62,52,0
204.71964,204.79715,70,52,0
204.79715,204.8641,72,64,0
205.065,205.14252,70,64,0
205.14252,205.22005,62,49,0
205.22005,205.29756,72,49,0
205.29756,205.36986,74,64,0
205.58675,205.65831,75,71,0
205.65831,205.72987,67,51,0
205.72987,205.80144,77,51,0
205.80144,205.86751,79,64,0
206.06575,206.14357,69,59,0
206.14357,206.22139,60,46,0
206.22139,206.29921,70,51,0
206.29921,206.37015,72,59,0
206.56996,206.64204,74,71,0
206.64204,206.71411,65,53,0
206.71411,206.7862,75,53,0
206.7862,206.85141,77,65,0
207.04706,207.12488,67,59,0
207.12488,207.20271,58,47,0
207.20271,207.28053,69,47,0
207.28053,207.3416,70,59,0
207.52483,207.5985,72,68,0
207.5985,207.67216,63,54,0
207.67216,207.74583,74,54,0
207.74583,207.80966,75,66,0
208.00116,208.07808,66,59,0
208.07808,208.155,57,46,0
208.155,208.23192,67,46,0
208.23192,208.29771,69,58,0
208.49509,208.57114,72,66,0
208.57114,208.64717,63,51,0
208.64717,208.72322,74,51,0
208.72322,208.78844,75,65,0
208.98409,209.06042,66,62,0
209.06042,209.13676,57,51,0
209.13676,209.2131,67,46,0
209.2131,209.27888,69,60,0
209.47626,209.5523,72,66,0
209.5523,209.62834,63,50,0
209.62834,209.70439,74,50,0
209.70439,209.7696,75,65,0
209.96526,210.04324,66,66,0
210.04324,210.12122,57,53,0
210.12122,210.1992,67,53,0
210.1992,210.26399,69,64,0
210.4584,210.53857,60,59,0
210.53857,210.61873,57,47,0
210.61873,210.6989,62,47,0
210.6989,210.76514,63,56,0
210.96382,211.04367,54,51,0
211.04367,211.12352,50,43,0
211.12352,211.20337,55,43,0
211.20337,211.26915,57,52,0
211.46652,211.53232,50,50,0
211.72968,211.79271,50,52,0
211.98178,212.05725,55,50,0
212.05725,212.13272,50,38,0
212.13272,212.20819,57,39,0
212.20819,212.27486,58,50,0
212.47487,212.55061,57,50,0
212.55061,212.62637,50,39,0
212.62637,212.70213,58,39,0
212.70213,212.7691,60,50,0
212.96999,213.04575,58,50,0
213.04575,213.1215,50,38,0
213.1215,213.19727,60,38,0
213.19727,213.26335,62,51,0
213.46158,213.53734,55,52,0
213.53734,213.6131,50,42,0
213.6131,213.68886,57,42,0
213.68886,213.75493,58,53,0
213.95317,214.02893,57,55,0
214.02893,214.10469,51,39,0
214.10469,214.18045,58,43,0
214.18045,214.24623,60,56,0
214.4436,214.51965,59,57,0
214.51965,214.59569,53,43,0
214.59569,214.67174,60,46,0
214.67174,214.73695,62,58,0
214.9326,215.00836,60,60,0
215.00836,215.08412,51,48,0
215.08412,215.15988,62,49,0
215.15988,215.22012,63,61,0
215.40085,215.47688,59,62,0
215.47688,215.55293,53,51,0
215.55293,215.62898,60,52,0
215.62898,215.6942,62,63,0
215.88985,215.9656,60,65,0
215.9656,216.04137,55,55,0
216.04137,216.11713,62,56,0
216.11713,216.23477,63,66,0
216.23477,216.35242,60,63,0
216.35242,216.42847,62,68,0
216.42847,216.50452,55,59,0
216.50452,216.58055,63,59,0
216.58055,216.64967,65,70,0
216.85706,216.93642,64,73,0
216.93642,217.01578,55,63,0
217.01578,217.09515,66,63,0
217.09515,217.23534,67,74,0
217.37552,217.45992,67,80,0
217.45992,217.5443,58,70,0
217.5443,217.6287,69,69,0
217.6287,217.70847,70,81,0
217.94783,218.50702,74,88,0
217.94783,218.50702,62,73,0
218.50702,219.0662,66,78,0
218.50702,219.0662,62,66,0
218.50702,219.0662,57,66,0
219.0662,219.14537,64,70,0
219.14537,219.22455,55,60,0
219.22455,219.30373,66,60,0
219.30373,219.44261,67,71,0
219.5815,219.66449,67,77,0
219.66449,219.74748,58,70,0
219.74748,219.83046,69,74,0
219.83046,219.92215,70,87,0
220.19722,220.79541,79,94,0
220.19722,220.79541,70,80,0
220.19722,220.79541,74,80,0
220.79541,221.17758,74,85,0
220.79541,221.17758,69,72,0
220.79541,221.17758,66,72,0
221.17758,221.55975,65,79,0
221.55975,221.62727,80,85,0
221.62727,221.6948,68,55,0
221.6948,221.76231,80,64,0
221.76231,221.87132,77,77,0
221.98033,222.0481,77,85,0
222.0481,222.11584,65,54,0
222.11584,222.1836,75,63,0
222.1836,222.2926,74,77,0
222.40161,222.46913,74,85,0
222.46913,222.53665,62,58,0
222.53665,222.60419,72,65,0
222.60419,222.7132,71,77,0
222.8222,222.88972,71,85,0
222.88972,222.95724,59,60,0
222.95724,223.02477,68,65,0
223.02477,223.13377,67,77,0
223.2428,223.31195,67,85,0
223.31195,223.3811,60,60,0
223.3811,223.45026,71,67,0
223.45026,223.56296,72,77,0
223.67566,223.7453,72,86,0
223.7453,223.81493,63,62,0
223.81493,223.88457,74,68,0
223.88457,223.99812,75,79,0
224.11166,224.18155,75,94,0
224.18155,224.25143,67,72,0
224.25143,224.32132,77,77,0
224.32132,224.43661,79,92,0
224.55191,224.62328,79,90,0
224.62328,224.69466,72,81,0
224.69466,224.76604,83,83,0
224.76604,224.89809,84,97,0
225.03012,225.09787,87,97,0
225.09787,225.16562,75,70,0
225.16562,225.23337,86,77,0
225.23337,225.344,84,87,0
225.45462,225.52214,84,95,0
225.52214,225.58966,72,68,0
225.58966,225.65718,82,74,0
225.65718,225.7678,81,84,0
225.87842,225.94594,81,91,0
225.94594,226.01346,67,64,0
226.01346,226.08098,79,71,0
226.08098,226.1916,78,81,0
226.30223,226.36952,78,88,0
226.36952,226.43681,66,62,0
226.43681,226.5041,75,68,0
226.5041,226.62596,74,78,0
226.74782,226.81557,82,93,0
226.81557,226.88332,70,67,0
226.88332,226.95107,81,74,0
226.95107,227.06293,79,83,0
227.17477,227.24277,79,91,0
227.24277,227.31075,67,63,0
227.31075,227.37872,77,71,0
227.37872,227.49059,75,82,0
227.60243,227.67088,82,89,0
227.67088,227.73933,70,63,0
227.73933,227.80777,81,68,0
227.80777,227.91963,79,80,0
228.0315,228.09901,79,87,0
228.09901,228.16653,67,60,0
228.16653,228.23405,77,67,0
228.23405,228.34229,75,78,0
228.4505,228.51735,82,85,0
228.51735,228.5842,70,60,0
228.5842,228.65103,81,67,0
228.65103,228.76085,79,77,0
228.87065,228.93773,79,85,0
228.93773,229.00479,67,58,0
229.00479,229.07187,77,64,0
229.07187,229.18088,75,76,0
229.28989,229.35696,75,84,0
229.35696,229.42403,63,59,0
229.42403,229.49109,74,65,0
229.49109,229.60011,72,75,0
229.70912,229.77618,72,83,0
229.77618,229.84326,60,55,0
229.84326,229.91032,70,62,0
229.91032,230.01855,69,74,0
230.12677,230.19412,70,82,0
230.19412,230.26146,58,57,0
230.26146,230.3288,69,62,0
230.3288,230.43703,67,73,0
230.54524,230.61281,67,81,0
230.61281,230.68037,55,57,0
230.68037,230.74796,65,63,0
230.74796,230.85625,63,73,0
230.96455,231.03235,70,80,0
231.03235,231.10014,58,56,0
231.10014,231.16794,69,62,0
231.16794,231.27579,67,72,0
231.38362,231.45142,67,79,0
231.45142,231.51921,55,54,0
231.51921,231.587,65,60,0
231.587,231.69484,63,71,0
231.80267,231.86931,70,79,0
231.86931,231.93593,58,56,0
231.93593,232.00255,69,61,0
232.00255,232.11038,67,71,0
232.21822,232.28484,67,78,0
232.28484,232.35146,55,52,0
232.35146,232.41809,65,59,0
232.41809,232.52553,63,70,0
232.63298,232.69983,63,77,0
232.69983,232.76668,51,53,0
232.76668,232.83353,62,58,0
232.83353,232.94136,60,70,0
233.0492,233.11604,60,76,0
233.11604,233.18288,48,58,0
233.18288,233.24973,58,60,0
233.24973,233.35834,57,69,0
233.46696,233.53336,58,75,0
233.53336,233.59976,46,54,0
233.59976,233.66617,57,58,0
233.66617,233.77106,55,68,0
233.87596,233.94214,60,74,0
233.94214,234.00832,48,58,0
234.00832,234.0745,58,62,0
234.0745,234.1776,57,67,0
234.28069,234.3462,58,73,0
234.3462,234.41174,46,52,0
234.41174,234.47728,57,57,0
234.47728,234.57967,55,66,0
234.68205,234.74695,60,73,0
234.74695,234.81184,48,54,0
234.81184,234.87674,58,59,0
234.87674,234.97948,57,66,0
235.08221,235.14651,62,76,0
235.14651,235.21083,46,57,0
235.21083,235.27513,60,62,0
235.27513,235.37581,58,70,0
235.47649,235.54037,67,79,0
235.54037,235.60428,55,58,0
235.60428,235.66817,63,64,0
235.66817,235.76884,62,72,0
235.86952,235.93301,70,81,0
235.93301,235.9965,58,62,0
235.9965,236.06,69,68,0
236.06,236.16032,67,74,0
236.26067,236.32375,74,84,0
236.32375,236.38684,62,64,0
236.38684,236.44994,70,71,0
236.44994,236.54994,69,77,0
236.64993,236.71283,79,86,0
236.71283,236.77573,67,68,0
236.77573,236.83861,75,73,0
236.83861,236.93828,74,80,0
237.03795,237.10085,82,89,0
237.10085,237.16374,70,68,0
237.16374,237.22662,81,75,0
237.22662,237.32564,79,82,0
237.42465,237.48735,86,94,0
237.48735,237.55005,74,76,0
237.55005,237.61273,84,77,0
237.61273,237.7124,82,84,0
237.81207,237.87457,91,97,0
237.87457,237.93707,79,78,0
237.93707,237.99957,87,79,0
237.99957,238.11143,86,87,0
238.22328,238.63672,82,88,0
238.22328,238.63672,94,109,0
238.63672,238.96281,91,88,0
238.63672,238.96281,79,81,0
238.96281,239.2889,86,88,0
238.96281,239.2889,74,81,0
239.2889,239.61497,82,88,0
239.2889,239.61497,70,81,0
239.61497,239.94241,79,88,0
239.61497,239.94241,67,81,0
239.94241,240.2739,74,88,0
239.94241,240.2739,62,81,0
240.2739,240.60313,70,88,0
240.2739,240.60313,58,81,0
240.60313,240.98659,67,88,0
240.60313,241.3489,55,81,0
241.3489,241.69038,56,92,0
240.98659,241.69038,68,96,0
240.98659,241.69038,63,85,0
240.98659,241.69038,60,66,0
241.69038,242.02908,57,78,0
241.69038,243.0331,69,85,0
243.36304,243.7202,72,78,0
242.02908,243.7202,60,78,0
242.70084,243.7202,66,78,0
242.36617,243.7202,63,78,0
243.0331,243.7202,69,78,0
243.7202,244.06984,70,88,0
243.7202,244.06984,67,82,0
243.7202,244.06984,62,78,0
244.06984,244.3973,79,92,0
244.06984,244.3973,67,85,0
244.3973,244.72432,74,92,0
244.3973,244.72432,62,85,0
244.72432,245.05225,70,92,0
244.72432,245.05225,58,85,0
245.05225,245.37904,67,92,0
245.05225,245.37904,55,85,0
245.37904,245.70584,62,92,0
245.37904,245.70584,50,85,0
245.70584,246.06065,58,92,0
245.70584,246.06065,46,85,0
246.06065,246.47227,55,92,0
246.06065,246.84242,43,85,0
246.84242,247.19179,44,92,0
246.47227,247.19179,56,95,0
246.47227,247.19179,51,83,0
246.47227,247.19179,48,68,0
247.19179,247.54115,45,78,0
248.24193,248.59549,54,78,0
247.19179,248.59549,57,85,0
248.95056,249.34369,60,78,0
247.54115,249.34369,48,78,0
247.89153,249.34369,51,78,0
248.59549,249.34369,57,78,0
249.34369,249.722,58,88,0
249.34369,249.722,55,79,0
249.34369,249.722,50,75,0
249.722,250.09464,46,78,0
250.09464,250.48566,50,79,0
250.48566,250.6782,55,81,0
250.8851,251.29666,58,85,0
251.29666,251.72374,62,87,0
251.72374,252.16893,67,88,0
252.70358,253.71796,79,101,0
252.16893,253.71796,70,91,0
1.152101,2.631731,31,42,0
1.152101,2.631731,43,50,0
2.8590035,2.9250827,46,44,0
2.8590035,2.9250827,34,37,0
3.1233206,3.2369568,36,42,0
3.1233206,3.2369568,48,50,0
3.613751,3.7278194,50,48,0
3.613751,3.7278194,38,40,0
4.1027575,4.3308945,31,42,0
4.1027575,4.3308945,43,50,0
4.82873,4.891755,38,47,0
5.080831,6.5606313,31,42,0
5.080831,6.5606313,43,50,0
6.787904,6.8539834,34,37,0
6.787904,6.8539834,46,44,0
7.052221,7.1658573,36,42,0
7.052221,7.1658573,48,50,0
7.5426517,7.65672,50,48,0
7.5426517,7.65672,38,40,0
8.031658,8.259795,51,50,0
8.031658,8.259795,39,42,0
8.716586,8.844246,50,42,0
8.716586,8.844246,38,35,0
8.971906,9.085542,51,55,0
8.971906,9.085542,39,46,0
9.462336,9.576405,48,57,0
9.462336,9.576405,36,48,0
9.951343,10.178615,50,59,0
9.951343,10.178615,38,50,0
10.704931,10.767956,50,61,0
10.957032,11.477726,55,76,0
10.957032,11.477726,46,64,0
11.477726,11.996741,57,80,0
11.477726,11.996741,50,68,0
10.957032,11.996741,43,64,0
11.996741,12.508439,55,71,0
11.996741,12.508439,58,84,0
12.744103,12.812409,46,61,0
12.744103,12.812409,55,72,0
13.017327,13.526842,48,67,0
13.017327,13.526842,55,67,0
13.017327,13.526842,57,79,0
13.526842,14.038254,50,61,0
13.526842,14.038254,54,66,0
13.526842,14.038254,62,77,0
14.038254,14.516832,46,68,0
14.038254,14.516832,43,68,0
14.038254,14.516832,55,81,0
14.752497,14.815522,50,81,0
15.004598,15.512613,55,80,0
15.004598,15.512613,46,68,0
15.512613,16.024504,57,81,0
15.512613,16.024504,50,68,0
15.004598,16.024504,43,68,0
16.024504,16.525532,55,72,0
16.024504,16.525532,58,85,0
16.74736,16.813438,39,45,0
16.74736,16.813438,51,53,0
17.011677,17.128408,53,74,0
17.011677,17.128408,41,62,0
17.50692,17.619026,46,65,0
17.50692,17.619026,34,55,0
17.992004,18.225468,39,63,0
17.992004,18.225468,51,75,0
18.70214,18.957458,33,68,0
18.70214,18.957458,45,81,0
18.957458,19.451385,38,62,0
18.957458,19.451385,50,74,0
19.679523,19.940393,44,77,0
19.679523,19.940393,32,65,0
19.940393,20.432558,38,57,0
19.940393,20.432558,50,68,0
20.660694,20.921564,45,77,0
20.660694,20.921564,33,65,0
20.921564,21.921288,50,68,0
20.921564,22.423986,38,57,0
22.687143,22.750168,38,52,0
22.939245,24.435373,43,50,0
22.939245,24.435373,31,42,0
24.662645,24.728724,34,39,0
24.662645,24.728724,46,47,0
24.926962,25.417393,48,55,0
24.926962,25.417393,36,46,0
25.417393,25.906399,50,55,0
25.417393,25.906399,38,46,0
25.906399,26.374636,39,50,0
25.906399,26.374636,51,60,0
26.602772,26.733208,50,60,0
26.602772,26.733208,38,50,0
26.863642,27.326208,36,54,0
26.863642,27.326208,48,65,0
27.326208,27.830843,50,64,0
27.326208,27.830843,38,54,0
27.830843,28.602476,49,70,0
27.830843,28.602476,37,58,0
28.602476,28.682264,49,67,0
28.602476,28.682264,37,56,0
28.921625,29.47462,38,72,0
28.921625,29.47462,50,85,0
29.47462,30.027615,50,77,0
29.47462,30.027615,38,64,0
30.027615,30.78873,37,58,0
30.027615,30.78873,49,70,0
30.78873,30.882132,37,56,0
30.78873,30.882132,49,67,0
31.16233,31.76656,50,93,0
31.16233,31.76656,38,79,0
31.76656,32.53089,50,84,0
31.76656,32.53089,38,70,0
32.53089,33.295223,31,70,0
32.53089,33.295223,43,84,0
34.24515,34.430748,50,30,0
34.98754,35.173138,50,36,0
35.718483,35.89487,50,31,0
34.05955,36.244114,46,50,0
34.05955,36.244114,34,50,0
36.41692,36.587585,50,31,0
36.244114,36.993626,32,50,0
36.244114,36.993626,48,50,0
37.190735,37.37233,50,35,0
37.91283,38.090137,50,32,0
38.622643,38.800533,50,30,0
38.444748,38.800533,60,43,0
38.800533,39.156322,59,41,0
36.993626,39.156322,31,50,0
36.993626,39.156322,47,50,0
39.33213,39.50794,50,30,0
39.156322,39.50794,57,43,0
39.50794,39.903072,55,40,0
40.083103,40.26313,36,31,0
39.903072,40.26313,48,45,0
40.26313,40.623188,50,42,0
40.800034,40.97688,48,32,0
40.623188,40.97688,51,47,0
40.97688,41.330566,53,42,0
41.505352,41.680138,48,32,0
41.330566,41.680138,55,48,0
41.680138,42.029705,57,39,0
42.029705,42.270977,59,42,0
42.270977,42.51965,60,47,0
42.51965,42.830303,62,52,0
43.01363,43.19696,53,32,0
43.738403,43.91319,53,32,0
42.830303,44.262756,57,57,0
44.437542,44.612328,53,32,0
44.262756,44.612328,57,47,0
44.612328,44.962334,55,43,0
44.962334,45.145027,53,46,0
45.145027,45.333664,51,45,0
45.333664,45.537697,50,44,0
45.537697,45.7734,48,42,0
42.830303,45.7734,41,57,0
45.7734,46.517105,46,41,0
45.7734,46.517105,34,34,0
48.810097,49.565952,45,41,0
51.07162,52.020706,47,41,0
51.07162,52.020706,56,41,0
52.020706,53.69813,48,41,0
52.020706,53.69813,57,41,0
52.020706,53.69813,60,41,0
53.69813,55.360676,48,41,0
53.69813,55.360676,64,41,0
53.69813,55.360676,58,41,0
55.362392,55.774364,53,43,0
55.772648,56.184624,52,43,0
56.18119,56.593166,50,43,0
56.5966,57.008633,48,43,0
55.365826,57.88272,60,43,0
58.108334,58.84134,51,31,0
57.87702,58.84134,41,43,0
57.020733,58.842884,53,43,0
58.83071,58.842884,53,43,0
59.026936,59.212532,50,30,0
59.201706,59.572903,55,43,0
59.76367,59.943615,50,36,0
59.591225,59.95111,57,43,0
59.95111,60.310997,58,43,0
60.482693,60.65908,50,31,0
58.84134,61.008324,46,50,0
58.84134,61.008324,34,50,0
61.18113,61.351795,50,31,0
61.008324,61.76314,32,50,0
61.008324,61.76314,48,50,0
61.946968,62.12427,50,35,0
62.656185,62.833492,50,32,0
63.365997,63.543888,50,30,0
63.188103,63.543888,60,43,0
63.543888,63.899677,59,41,0
61.76314,63.899677,47,50,0
61.76314,63.899677,31,50,0
64.075485,64.2513,50,30,0
63.899677,64.2513,57,43,0
64.2513,64.64643,55,40,0
64.826454,65.006485,36,31,0
64.64643,65.006485,48,45,0
65.006485,65.36655,50,42,0
65.54339,65.72023,48,32,0
65.36655,65.72023,51,47,0
65.72023,66.07392,53,42,0
66.24871,66.42349,48,32,0
66.07392,66.42349,55,48,0
66.42349,66.77306,57,39,0
66.77306,67.01433,59,42,0
67.01433,67.263,60,47,0
67.263,67.5664,62,52,0
67.749725,67.93305,53,32,0
68.474495,68.649284,53,32,0
67.5664,68.994484,57,57,0
68.998856,69.34842,57,47,0
69.17364,69.34842,53,32,0
69.345505,69.69543,55,43,0
69.698425,69.88112,53,46,0
69.88112,70.069756,51,45,0
70.069756,70.27379,50,44,0
70.27379,70.50949,48,42,0
67.5664,70.50949,41,57,0
70.50949,71.236595,34,34,0
70.50949,71.236595,46,41,0
73.483345,74.22309,45,41,0
75.72876,76.669014,56,41,0
75.72876,76.669014,47,41,0
76.669014,78.346436,60,41,0
76.669014,78.346436,48,41,0
76.669014,78.346436,57,41,0
78.346436,80.00898,48,41,0
78.346436,80.00898,64,41,0
78.346436,80.00898,58,41,0
80.0072,80.41924,53,43,0
80.432976,80.84554,52,43,0
80.826065,81.25825,50,43,0
81.26546,81.74271,48,43,0
80.00898,82.73674,60,43,0
81.75306,82.7471,53,43,0
83.73208,86.580025,57,50,0
83.60652,86.580025,41,50,0
86.580025,87.977646,58,50,0
86.48307,89.435974,39,50,0
89.435974,91.2034,41,42,0
87.977646,91.2034,48,50,0
92.28391,93.68154,58,42,0
92.186966,93.68154,39,42,0
94.744736,95.13986,44,34,0
93.68154,95.13986,42,42,0
95.13986,95.50084,49,34,0
95.499344,95.85703,51,29,0
95.13986,95.85851,41,34,0
96.208,96.55821,54,34,0
96.55821,96.905594,56,36,0
96.909935,97.25732,58,37,0
97.26456,97.61194,60,42,0
98.0304,98.38186,62,45,0
98.36721,98.718666,59,42,0
98.718666,99.070114,56,38,0
95.849625,99.41278,53,34,0
99.070114,99.41278,53,37,0
99.775375,100.133194,47,35,0
100.133194,100.49489,44,34,0
100.49489,100.86101,41,33,0
100.86101,103.509895,42,36,0
99.42157,103.509895,49,36,0
103.509895,103.7369,49,37,0
104.45238,105.1628,62,49,0
103.7369,106.277855,50,45,0
103.509895,106.71993,42,37,0
106.71993,109.36883,49,36,0
109.36883,109.595825,49,37,0
106.71993,109.595825,42,36,0
110.32535,111.06274,61,41,0
109.595825,111.86194,36,45,0
109.595825,111.86194,52,45,0
111.86194,112.87149,41,34,0
113.057594,113.2437,50,24,0
113.80202,113.98812,50,30,0
114.53432,114.7107,50,28,0
112.87149,115.059944,46,40,0
112.87149,115.059944,34,40,0
115.23275,115.40342,50,29,0
115.059944,115.78835,32,47,0
115.059944,115.78835,48,47,0
115.96625,116.14414,50,35,0
116.67782,116.85571,50,32,0
117.3894,117.56729,50,30,0
117.2115,117.56729,60,43,0
117.56729,117.92307,59,41,0
115.78835,117.92307,47,50,0
115.78835,117.92307,31,50,0
118.098885,118.2747,50,30,0
117.92307,118.2747,57,43,0
118.2747,118.66983,55,40,0
118.84985,119.029884,36,31,0
118.66983,119.029884,48,45,0
119.029884,119.389946,50,42,0
119.56679,119.74363,48,32,0
119.389946,119.74363,51,47,0
119.74363,120.09732,53,42,0
120.27211,120.44689,48,32,0
120.09732,120.44689,55,48,0
120.44689,120.79646,57,39,0
120.79646,121.03773,59,42,0
121.03773,121.2864,60,47,0
121.2864,121.57376,62,52,0
121.757095,121.94042,53,32,0
122.481865,122.65665,53,32,0
121.57376,123.00622,57,57,0
123.181,123.35579,53,32,0
123.00622,123.35579,57,47,0
123.35579,123.705795,55,43,0
123.705795,123.88849,53,46,0
123.88849,124.077126,51,45,0
124.077126,124.28116,50,44,0
124.28116,124.51686,48,42,0
121.57376,124.51686,41,57,0
124.51686,125.24396,34,34,0
124.51686,125.24396,46,41,0
127.49359,128.21901,45,41,0
129.72467,130.62386,56,41,0
129.72467,130.62386,47,41,0
130.62386,132.30128,57,41,0
130.62386,132.30128,60,41,0
130.62386,132.30128,48,41,0
132.30128,133.96382,48,41,0
132.30128,133.96382,58,41,0
132.30128,133.96382,64,41,0
133.96382,134.3758,53,43,0
134.3758,134.78778,52,43,0
134.78778,135.2203,50,43,0
135.2203,135.69756,48,43,0
135.69756,136.69159,53,43,0
133.96382,136.69159,60,43,0
137.68562,140.54347,41,50,0
137.68562,140.54347,57,50,0
140.54347,141.9411,58,50,0
140.44157,143.39943,39,50,0
143.39943,145.16685,41,42,0
141.9411,145.16685,48,50,0
146.24736,147.64499,58,42,0
146.15042,147.64499,39,42,0
148.70818,149.10332,44,34,0
147.64499,149.10332,42,42,0
149.10155,149.46278,49,34,0
149.10332,149.82196,41,34,0
149.46729,149.82494,51,29,0
150.17584,150.526,54,34,0
150.53323,150.88062,56,36,0
150.88206,151.22945,58,36,0
151.21931,151.5667,60,40,0
151.99385,152.33066,62,46,0
152.33066,152.68211,59,44,0
152.68211,153.03357,56,38,0
149.8279,153.38503,53,34,0
153.03357,153.38503,53,37,0
153.73883,154.09663,47,35,0
154.09663,154.45834,44,34,0
154.45834,154.82445,41,33,0
154.82445,157.47334,42,36,0
153.38503,157.47334,49,36,0
157.47334,157.70035,49,37,0
158.41582,159.12773,62,49,0
157.70035,160.2413,50,45,0
157.47334,160.68338,42,37,0
160.68338,163.33228,49,36,0
163.33228,163.55928,49,37,0
160.68338,163.55928,42,36,0
164.2888,165.02618,61,41,0
163.55928,165.81332,52,45,0
163.55928,165.81332,36,45,0
165.81332,166.73495,41,34,0
166.92055,167.10616,50,24,0
167.66293,167.84854,50,30,0
168.39388,168.57027,50,28,0
166.73495,168.91951,46,40,0
166.73495,168.91951,34,40,0
169.09232,169.26299,50,29,0
168.91951,169.65384,32,47,0
168.91951,169.65384,48,47,0
169.83173,170.00963,50,35,0
170.5433,170.72119,50,32,0
171.25488,171.43277,50,30,0
171.07698,171.43277,60,43,0
171.43277,171.78856,59,41,0
169.65384,171.78856,31,50,0
169.65384,171.78856,47,50,0
171.96437,172.14018,50,30,0
171.78856,172.14018,57,43,0
172.14018,172.53531,55,40,0
172.53001,172.89087,48,45,0
172.71533,172.89537,36,31,0
172.88487,173.24492,50,42,0
173.43227,173.60912,48,32,0
173.26427,173.61795,51,47,0
173.6106,173.96426,53,42,0
174.13759,174.31238,48,32,0
173.96863,174.3182,55,48,0
174.3211,174.671,57,39,0
174.66194,174.90321,59,42,0
174.90321,175.15189,60,47,0
175.15189,175.43924,62,52,0
175.62257,175.80591,53,32,0
176.34735,176.52213,53,32,0
175.43924,176.8717,57,57,0
177.04648,177.22127,53,32,0
176.8717,177.22127,57,47,0
177.22127,177.57127,55,43,0
177.57127,177.75397,53,46,0
177.75397,177.94261,51,45,0
177.94261,178.14664,50,44,0
178.14664,178.38234,48,42,0
175.43924,178.38234,41,57,0
178.38234,179.10944,46,41,0
178.38234,179.10944,34,34,0
179.10944,180.00833,66,40,0
180.00833,180.55962,67,30,0
180.55962,180.93312,69,32,0
180.93312,181.28268,70,30,0
181.28268,182.00978,46,41,0
182.00978,182.90868,63,40,0
182.90868,183.45996,65,30,0
183.45996,183.83347,67,32,0
183.83347,184.18304,68,30,0
185.28365,185.64413,34,41,0
184.18304,185.64413,46,41,0
185.64413,186.39655,39,41,0
186.39655,187.19887,33,29,0
186.39655,188.4034,45,35,0
188.4034,188.89041,46,31,0
187.19887,188.89041,38,36,0
188.76866,188.89041,38,35,0
188.89041,189.70563,45,41,0
190.00563,190.06865,38,42,0
190.25774,191.73753,31,42,0
190.25774,191.73753,43,50,0
191.9648,192.03088,46,44,0
191.9648,192.03088,34,37,0
192.22913,192.34276,48,50,0
192.22913,192.34276,36,42,0
192.71956,192.83362,50,48,0
192.71956,192.83362,38,40,0
193.20856,193.43669,43,50,0
193.20856,193.43669,31,42,0
193.93452,193.99756,38,49,0
194.18663,195.66643,43,50,0
194.18663,195.66643,31,42,0
195.8937,195.95978,46,44,0
195.8937,195.95978,34,37,0
196.15802,196.27165,48,50,0
196.15802,196.27165,36,42,0
196.64845,196.76253,50,48,0
196.64845,196.76253,38,40,0
197.13745,197.3656,39,42,0
197.13745,197.3656,51,50,0
197.82239,197.95004,50,42,0
197.82239,197.95004,38,35,0
198.07771,198.19135,39,46,0
198.07771,198.19135,51,55,0
198.56813,198.6822,36,48,0
198.56813,198.6822,48,57,0
199.05714,199.28441,50,59,0
199.05714,199.28441,38,50,0
199.81073,199.87376,50,70,0
200.06284,200.5736,55,76,0
200.06284,200.5736,46,64,0
200.5736,201.08875,50,68,0
200.5736,201.08875,57,80,0
200.06284,201.08875,43,64,0
201.08875,201.60236,58,84,0
201.08875,201.60236,55,71,0
201.83801,201.90541,46,61,0
201.83801,201.90541,55,72,0
202.10756,202.6113,55,67,0
202.10756,202.6113,57,79,0
202.10756,202.6113,48,67,0
202.6113,203.1097,50,61,0
202.6113,203.1097,54,66,0
202.6113,203.1097,62,77,0
203.1097,203.58337,50,68,0
203.1097,203.58337,46,68,0
203.1097,203.58337,55,81,0
203.81326,203.87628,50,71,0
204.06537,204.56459,55,80,0
204.06537,204.56459,46,68,0
204.56459,205.065,50,68,0
204.56459,205.065,57,81,0
204.06537,205.065,43,68,0
205.065,205.58675,58,85,0
205.065,205.58675,55,72,0
205.80144,205.86751,39,45,0
205.80144,205.86751,51,53,0
206.06575,206.18248,41,62,0
206.06575,206.18248,53,74,0
206.56996,206.67809,46,65,0
206.56996,206.67809,34,55,0
207.04706,207.28053,39,63,0
207.04706,207.28053,51,75,0
207.74583,208.00116,45,81,0
207.74583,208.00116,33,68,0
208.00116,208.49509,38,62,0
208.00116,208.49509,50,74,0
208.72322,208.98409,32,65,0
208.72322,208.98409,44,77,0
208.98409,209.47626,38,57,0
208.98409,209.47626,50,68,0
209.70439,209.96526,45,77,0
209.70439,209.96526,33,65,0
209.96526,210.96382,50,68,0
209.96526,211.46652,38,57,0
211.72968,211.79271,38,52,0
211.98178,213.46158,43,50,0
211.98178,213.46158,31,42,0
213.68886,213.75493,34,39,0
213.68886,213.75493,46,47,0
213.95317,214.4436,36,46,0
213.95317,214.4436,48,55,0
214.4436,214.9326,38,46,0
214.4436,214.9326,50,55,0
214.9326,215.40085,51,60,0
214.9326,215.40085,39,50,0
215.62898,215.75941,50,60,0
215.62898,215.75941,38,50,0
215.88985,216.35242,36,54,0
215.88985,216.35242,48,65,0
216.35242,216.85706,38,55,0
216.35242,216.85706,50,65,0
216.85706,217.6287,37,60,0
216.85706,217.6287,49,73,0
217.6287,217.70847,49,72,0
217.6287,217.70847,37,60,0
217.94783,218.50702,50,85,0
217.94783,218.50702,38,72,0
218.50702,219.0662,50,77,0
218.50702,219.0662,38,64,0
219.0662,219.83046,49,70,0
219.0662,219.83046,37,58,0
219.83046,219.92215,49,71,0
219.83046,219.92215,37,59,0
220.19722,220.79541,50,93,0
220.19722,220.79541,38,79,0
220.79541,221.55975,38,70,0
220.79541,221.55975,50,84,0
221.76231,221.87132,56,72,0
221.55975,221.98033,31,70,0
221.55975,221.98033,43,84,0
221.98033,222.0481,69,70,0
222.0481,222.11584,56,51,0
222.11584,222.1836,58,56,0
222.1836,222.2926,59,66,0
222.40161,222.46913,65,70,0
222.46913,222.53665,53,51,0
222.53665,222.60419,55,56,0
222.60419,222.7132,56,66,0
222.8222,222.88972,62,70,0
222.88972,222.95724,50,50,0
222.95724,223.02477,51,56,0
223.02477,223.13377,53,66,0
223.2428,223.34653,51,66,0
223.2428,223.34653,63,66,0
223.67566,224.32132,43,75,0
223.67566,224.32132,31,75,0
224.32132,224.55191,48,67,0
224.32132,224.55191,36,67,0
224.55191,224.76604,39,73,0
224.55191,224.76604,51,73,0
224.76604,224.89809,55,70,0
224.76604,224.89809,43,70,0
225.23337,225.344,66,82,0
225.03012,225.45462,45,80,0
225.03012,225.45462,43,80,0
225.03012,225.45462,57,96,0
225.45462,225.52214,78,78,0
225.52214,225.58966,66,56,0
225.58966,225.65718,67,61,0
225.65718,225.7678,69,72,0
225.87842,225.94594,75,75,0
225.94594,226.01346,63,54,0
226.01346,226.08098,65,59,0
226.08098,226.1916,66,69,0
226.30223,226.36952,69,72,0
226.36952,226.43681,60,53,0
226.43681,226.5041,61,57,0
226.5041,226.62596,62,67,0
226.74782,226.95107,43,77,0
226.74782,226.95107,55,92,0
226.95107,227.06293,63,78,0
227.17477,227.24277,75,75,0
227.24277,227.31075,63,55,0
227.31075,227.37872,65,59,0
227.37872,227.49059,67,70,0
227.60243,227.80777,55,88,0
227.80777,227.91963,63,68,0
228.0315,228.09901,75,72,0
228.09901,228.16653,63,51,0
228.16653,228.23405,65,57,0
228.23405,228.34229,67,67,0
228.4505,228.65103,55,84,0
228.65103,228.76085,63,66,0
228.87065,228.93773,75,70,0
228.93773,229.00479,63,50,0
229.00479,229.07187,65,55,0
229.07187,229.18088,67,65,0
229.28989,229.35696,72,69,0
229.35696,229.42403,60,49,0
229.42403,229.49109,62,54,0
229.49109,229.60011,63,64,0
229.70912,229.91032,66,64,0
229.91032,230.01855,50,64,0
230.12677,230.3288,43,64,0
230.3288,230.43703,51,63,0
230.54524,230.61281,63,67,0
230.61281,230.68037,51,49,0
230.68037,230.74796,53,53,0
230.74796,230.85625,55,62,0
230.96455,231.16794,43,62,0
231.16794,231.27579,51,62,0
231.38362,231.45142,63,65,0
231.45142,231.51921,51,47,0
231.51921,231.587,53,52,0
231.587,231.69484,55,61,0
231.80267,232.00255,43,61,0
232.00255,232.11038,51,61,0
232.21822,232.28484,63,64,0
232.28484,232.35146,51,49,0
232.35146,232.41809,53,51,0
232.41809,232.52553,55,60,0
232.63298,232.69983,60,63,0
232.69983,232.76668,48,50,0
232.76668,232.83353,50,50,0
232.83353,232.94136,51,60,0
233.0492,233.24973,54,59,0
233.24973,233.35834,38,59,0
233.46696,233.66617,31,58,0
233.66617,233.77106,38,58,0
233.87596,234.0745,54,58,0
234.0745,234.1776,38,58,0
234.28069,234.47728,31,57,0
234.47728,234.57967,38,57,0
234.68205,234.87674,54,56,0
234.87674,234.97948,38,56,0
235.08221,236.26067,43,59,0
235.08221,236.26067,31,59,0
236.44994,236.54994,50,66,0
236.44994,236.54994,38,66,0
236.64993,237.81207,43,67,0
236.64993,237.81207,31,67,0
237.99957,238.11143,50,74,0
237.99957,238.11143,38,74,0
238.22328,238.43147,43,76,0
238.22328,238.43147,31,68,0
238.79976,239.12585,82,83,0
239.12585,239.45193,79,83,0
239.45193,239.77803,74,83,0
239.77803,240.10815,70,82,0
240.10815,240.4374,67,80,0
240.4374,240.76888,62,80,0
240.76888,240.98659,58,80,0
241.52072,241.85933,54,71,0
241.85933,242.1979,51,71,0
240.98659,242.36617,48,78,0
242.1979,242.36617,48,73,0
242.5338,242.86726,45,73,0
242.86726,243.19838,42,75,0
243.19838,243.52985,39,76,0
243.52985,243.7202,36,79,0
243.7202,244.06984,43,85,0
243.7202,244.06984,31,78,0
244.23201,244.55902,70,80,0
244.55902,244.88603,67,80,0
244.88603,245.21564,62,80,0
245.21564,245.54243,58,80,0
245.54243,245.88324,55,80,0
245.88324,246.25346,50,80,0
246.25346,246.47227,46,80,0
247.01582,247.36519,42,78,0
247.36519,247.71506,39,78,0
246.47227,247.89153,36,100,0
247.71506,247.89153,36,78,0
248.06494,248.41585,33,78,0
248.41585,248.77092,30,78,0
248.77092,249.12755,27,78,0
249.12755,249.34369,24,78,0
247.89153,249.34369,36,78,0
249.34369,249.722,31,81,0
249.90605,250.28633,62,78,0
250.28633,250.67982,58,81,0
250.67982,251.08577,55,82,0
251.08577,251.50558,50,85,0
251.50558,251.94113,46,88,0
251.94113,252.40086,43,94,0
252.40086,253.71796,31,103,0
