start_time,end_time,note_value,velocity,instrument_program_number
2.640847,3.3551326,62,43,0
3.3551326,4.7837033,60,50,0
4.7837033,5.3194175,62,44,0
5.3194175,5.4087033,60,43,0
5.4087033,5.497989,62,43,0
5.497989,6.4215097,63,50,0
6.4215097,6.73897,62,37,0
6.73897,7.4131274,60,42,0
7.4131274,9.518391,58,45,0
9.518391,10.946962,53,33,0
10.946962,11.661247,62,43,0
3.3551326,11.661247,65,37,0
11.661247,12.645896,60,50,0
12.645896,12.959441,62,37,0
12.959441,13.576363,60,44,0
13.576363,13.664494,62,43,0
13.664494,14.588015,63,50,0
14.588015,14.905475,62,37,0
14.905475,15.579633,60,42,0
11.661247,19.827753,65,37,0
19.827753,23.217573,70,40,0
15.579633,23.899391,58,45,0
23.217573,23.899391,58,30,0
27.428802,28.134686,58,34,0
23.899391,28.134686,70,41,0
28.134686,29.119114,63,43,0
29.119114,29.452078,63,32,0
29.452078,30.054834,63,38,0
29.968725,30.054834,63,30,0
30.054834,30.140942,65,28,0
30.140942,31.067324,67,39,0
31.067324,31.381458,65,30,0
31.381458,32.10435,63,33,0
32.10435,35.592724,62,33,0
42.921394,44.66897,59,54,0
42.921394,44.66897,55,54,0
42.921394,44.66897,53,54,0
42.921394,44.66897,62,54,0
44.66897,45.82292,60,59,0
44.66897,45.82292,55,59,0
44.66897,45.82292,51,59,0
46.37338,47.52685,59,55,0
46.37338,47.52685,53,55,0
47.96722,48.077312,55,53,0
48.077312,49.209843,51,63,0
48.077312,49.31985,60,63,0
49.31985,49.429863,62,59,0
49.429863,49.539875,63,61,0
49.539875,49.649887,65,63,0
49.649887,49.759895,67,64,0
49.759895,50.935444,62,66,0
49.759895,51.045963,68,66,0
51.045963,51.15648,67,59,0
51.15648,51.267,65,60,0
51.267,51.377518,63,61,0
51.377518,51.488033,62,67,0
51.488033,52.641987,67,59,0
51.488033,52.641987,58,59,0
53.192444,54.345917,66,55,0
53.192444,54.345917,62,55,0
53.192444,54.345917,60,55,0
54.786285,54.896378,62,53,0
54.896378,56.028908,58,63,0
54.896378,56.14201,67,63,0
56.14201,56.255108,69,59,0
56.255108,56.36821,70,61,0
56.36821,56.48131,72,63,0
56.48131,56.59441,74,64,0
56.59441,57.768696,70,66,0
56.59441,57.885002,75,66,0
57.885002,58.004147,74,58,0
58.004147,58.125957,75,60,0
58.125957,58.25067,77,62,0
58.25067,58.378426,78,64,0
58.378426,59.55608,69,56,0
58.378426,59.678303,78,66,0
59.678303,59.80291,69,59,0
59.80291,59.929653,70,60,0
59.929653,60.058956,72,61,0
60.058956,60.190567,74,63,0
60.190567,61.58264,75,66,0
60.190567,61.58264,72,66,0
61.58264,61.785378,74,54,0
61.785378,62.00025,75,50,0
62.00025,62.228653,77,48,0
62.228653,62.462936,78,46,0
61.58264,62.462936,70,45,0
62.462936,63.970856,78,45,0
63.970856,64.55863,75,38,0
62.462936,64.55863,70,45,0
65.74893,66.33671,66,31,0
64.55863,66.33671,70,41,0
66.33671,67.46924,56,35,0
66.33671,67.579254,64,35,0
67.579254,67.68926,55,35,0
67.68926,67.79927,56,37,0
67.79927,67.90929,58,39,0
67.90929,68.019295,59,41,0
68.019295,69.15011,58,35,0
68.019295,69.266815,64,35,0
69.266815,69.3863,63,35,0
69.3863,69.50959,64,37,0
69.50959,69.636,66,39,0
69.636,69.76611,68,41,0
69.76611,70.95337,66,45,0
70.95337,71.54696,63,31,0
71.54696,72.70548,58,34,0
72.70548,73.284744,54,26,0
69.76611,73.284744,70,45,0
73.284744,74.417274,56,35,0
73.284744,74.52728,63,35,0
74.52728,74.6373,55,35,0
74.6373,74.74731,56,37,0
74.74731,74.857315,58,39,0
74.857315,74.96733,59,41,0
74.96733,76.09986,58,26,0
74.96733,76.20987,62,41,0
76.20987,76.319885,61,35,0
76.319885,76.42989,62,37,0
76.42989,76.5399,63,39,0
76.5399,76.64992,65,41,0
76.64992,79.58929,63,45,0
79.58929,80.16855,58,26,0
76.64992,80.16855,66,45,0
80.16855,88.47466,65,33,0
84.22654,88.47466,65,33,0
80.16855,88.47466,63,26,0
80.16855,88.47466,57,26,0
84.22654,88.47466,58,26,0
84.22654,88.47466,53,26,0
88.47466,92.44571,65,33,0
88.47466,92.44571,63,26,0
88.47466,92.44571,57,26,0
92.44571,96.69383,65,33,0
92.44571,96.69383,53,26,0
96.69383,100.00976,70,40,0
92.44571,100.691574,58,26,0
100.00976,100.691574,58,30,0
100.691574,101.62569,70,48,0
101.62569,101.951775,70,50,0
101.951775,102.54837,70,56,0
102.46314,102.54837,70,52,0
102.54837,102.6336,72,54,0
102.6336,103.559975,74,56,0
102.6336,103.559975,62,49,0
103.559975,103.874115,72,44,0
103.559975,103.874115,60,37,0
103.874115,104.59701,70,39,0
103.874115,104.59701,58,33,0
104.59701,107.91293,70,40,0
108.59475,109.54911,70,49,0
109.54911,109.8752,70,50,0
109.8752,110.47179,70,56,0
110.38656,110.47179,70,52,0
110.47179,110.557014,72,54,0
107.91293,110.557014,58,30,0
110.557014,111.4834,74,56,0
110.557014,111.4834,62,48,0
111.4834,111.79753,72,51,0
111.4834,111.79753,60,43,0
111.79753,112.520424,70,50,0
111.79753,112.520424,58,42,0
112.520424,113.45644,63,55,0
112.520424,113.45644,75,65,0
113.45644,113.7739,65,40,0
113.45644,113.7739,77,48,0
113.7739,114.18599,63,49,0
113.7739,114.18599,75,58,0
114.18599,114.26841,77,57,0
114.18599,114.26841,65,48,0
114.26841,114.35082,63,51,0
114.35082,114.43324,65,54,0
114.35082,114.43324,77,64,0
114.26841,114.43324,75,61,0
114.43324,115.35962,67,57,0
114.43324,115.35962,79,68,0
115.35962,115.67376,65,47,0
115.35962,115.67376,77,56,0
115.67376,116.39665,63,55,0
115.67376,116.39665,75,65,0
116.39665,118.56532,74,70,0
116.39665,118.56532,62,59,0
116.39665,118.56532,60,59,0
118.56532,119.97709,67,50,0
119.97709,120.682976,67,42,0
118.56532,120.682976,74,45,0
118.56532,120.682976,65,35,0
120.682976,121.609886,68,53,0
121.609886,121.93074,68,39,0
121.93074,122.50452,68,47,0
122.42255,122.50452,68,37,0
122.50452,122.58648,70,35,0
120.682976,122.58648,72,43,0
122.58648,123.51286,72,48,0
123.51286,123.826996,70,35,0
123.826996,124.54989,68,37,0
120.682976,124.54989,63,41,0
124.54989,126.5447,65,37,0
124.54989,126.5447,67,37,0
127.889755,128.61711,62,41,0
126.5447,128.61711,67,37,0
126.5447,128.61711,58,37,0
128.61711,130.04567,60,50,0
130.04567,130.58139,62,44,0
130.58139,130.67067,60,43,0
130.67067,130.75996,62,43,0
128.61711,130.75996,65,37,0
130.75996,131.68349,63,50,0
131.68349,132.00095,62,37,0
132.00095,132.6751,60,42,0
132.6751,134.74168,58,45,0
134.74168,136.1518,53,33,0
136.1518,136.86609,62,43,0
132.00095,136.86609,65,44,0
136.86609,137.7884,60,50,0
137.7884,138.10222,62,35,0
138.10222,138.59082,60,44,0
138.67226,138.75368,62,43,0
138.75368,139.6772,63,50,0
139.6772,139.99466,62,37,0
136.86609,139.99466,65,37,0
139.99466,141.57767,60,42,0
141.57767,141.89452,58,37,0
139.99466,141.89452,65,44,0
141.89452,142.49997,62,37,0
141.89452,142.49997,65,42,0
142.49997,143.3979,65,50,0
143.3979,143.70528,67,49,0
143.3979,143.70528,60,31,0
143.70528,144.29875,69,52,0
143.70528,144.29875,63,37,0
145.18808,145.49547,58,37,0
144.29875,145.49547,70,58,0
145.49547,146.09189,65,44,0
145.49547,146.09189,62,37,0
146.09189,146.98,56,55,0
147.28896,147.89441,62,46,0
146.98,147.89441,55,42,0
148.77628,149.079,60,43,0
147.28896,149.079,67,49,0
149.079,149.67543,63,42,0
149.079,149.67543,67,49,0
149.67543,150.55278,67,55,0
150.55278,150.851,69,52,0
150.55278,150.851,62,31,0
150.851,151.46262,71,55,0
150.851,151.46262,65,37,0
152.34325,152.6475,60,37,0
151.46262,152.6475,72,58,0
152.6475,153.24098,67,44,0
152.6475,153.24098,63,37,0
153.24098,154.1275,58,50,0
154.43488,155.0313,64,44,0
154.43488,155.0313,69,44,0
154.1275,155.0313,57,37,0
155.91823,156.22879,62,37,0
155.0313,156.22879,69,57,0
156.22879,156.82521,69,48,0
156.22879,156.82521,65,37,0
156.82521,157.71332,69,55,0
157.71332,158.02228,61,37,0
157.71332,158.02228,71,53,0
158.02228,158.61575,64,44,0
158.02228,158.61575,73,52,0
159.49245,159.79826,62,37,0
159.79826,160.39174,65,44,0
160.39174,161.2696,63,54,0
158.61575,161.2696,74,63,0
162.16153,163.07753,62,54,0
161.2696,163.07753,72,54,0
164.0212,164.93742,60,58,0
163.07753,164.93742,70,52,0
164.93742,165.89314,69,52,0
165.89314,166.81406,67,60,0
166.81406,167.12952,69,51,0
167.12952,167.60748,70,60,0
167.60748,167.77489,70,60,0
167.77489,168.70392,74,68,0
168.70392,169.02444,72,63,0
169.70549,170.29314,77,64,0
169.02444,170.6021,65,69,0
170.6021,170.91106,63,37,0
170.6021,170.91106,57,30,0
170.91106,171.20927,65,42,0
171.50748,172.40161,65,50,0
172.40161,172.55771,67,49,0
172.40161,172.55771,60,31,0
172.71379,173.01805,69,52,0
173.32231,173.90427,69,54,0
174.207,174.50972,65,37,0
174.207,174.50972,58,37,0
174.50972,175.99268,70,42,0
175.99268,176.14636,65,49,0
175.99268,176.14636,56,31,0
176.30005,176.60126,68,52,0
176.90245,177.48442,67,60,0
177.78714,178.08986,65,47,0
177.78714,178.08986,55,39,0
178.08986,178.3866,67,54,0
178.68333,179.56866,67,61,0
179.56866,179.72314,69,56,0
179.56866,179.72314,59,29,0
179.87762,180.18188,71,59,0
180.48615,181.37706,71,65,0
181.37706,181.68602,67,51,0
181.37706,181.68602,60,43,0
181.68602,183.17082,72,58,0
183.17082,183.3269,67,57,0
183.17082,183.3269,58,48,0
183.483,184.97527,70,63,0
184.97527,185.28264,67,46,0
184.97527,185.28264,57,39,0
185.28264,185.58234,69,59,0
185.88203,186.77138,69,66,0
186.77138,186.92506,71,65,0
186.77138,186.92506,61,55,0
187.07875,187.38147,73,71,0
188.57796,188.88692,62,54,0
188.88692,189.4804,69,61,0
189.4804,190.377,63,59,0
187.6842,190.377,74,80,0
191.27943,192.1987,62,70,0
190.377,192.1987,72,68,0
193.14561,194.06487,60,70,0
192.1987,194.06487,70,66,0
194.06487,195.0206,69,65,0
195.0206,195.94466,67,76,0
195.0206,195.94466,58,70,0
195.94466,196.26326,69,64,0
196.26326,196.75218,70,69,0
196.89784,197.53854,65,70,0
196.93054,197.90636,74,83,0
197.90636,198.24495,72,70,0
198.76724,198.84775,60,52,0
198.84775,198.92827,63,54,0
198.24495,199.00879,65,69,0
198.92827,199.00879,65,58,0
199.00879,199.72221,77,69,0
199.00879,200.43565,60,50,0
200.43565,200.97073,62,44,0
200.97073,201.0599,60,43,0
201.0599,201.1491,62,43,0
201.1491,202.07262,63,50,0
202.07262,202.39008,62,37,0
202.39008,203.06422,60,42,0
203.06422,205.1695,58,45,0
205.1695,206.59807,53,33,0
206.59807,207.31235,62,43,0
207.31235,208.31903,60,50,0
208.31903,208.66347,62,44,0
208.66347,209.29146,60,44,0
209.29146,209.38116,62,43,0
209.38116,210.30469,63,50,0
210.30469,210.62215,62,37,0
210.62215,211.29631,60,42,0
207.31235,215.61343,65,37,0
215.61343,219.08041,70,40,0
211.29631,219.82483,58,45,0
219.08041,219.82483,58,30,0
219.82483,224.4218,70,41,0
224.4218,225.53105,63,43,0
225.53105,225.91003,63,32,0
225.91003,226.60393,63,38,0
226.50479,226.60393,63,30,0
226.60393,226.70305,65,28,0
223.61751,226.70305,58,34,0
226.70305,227.90459,66,39,0
227.90459,228.33649,65,30,0
228.33649,229.34557,63,33,0
226.70305,229.34557,57,33,0
229.92628,235.80864,65,33,0
229.34557,242.22575,58,33,0
229.34557,242.22575,62,33,0
3.3551326,7.4131274,57,37,0
3.3551326,7.4131274,51,37,0
7.4131274,11.661247,50,37,0
3.176561,11.661247,41,34,0
11.4826765,11.661247,41,28,0
11.661247,15.579633,57,37,0
11.661247,15.579633,51,37,0
15.579633,18.399181,50,37,0
19.649181,19.827753,39,35,0
19.827753,21.256323,55,45,0
21.256323,21.97061,55,38,0
21.97061,22.901783,58,42,0
22.901783,23.217573,57,37,0
23.728935,23.899391,38,33,0
23.217573,23.899391,55,41,0
23.899391,26.017038,53,42,0
19.113466,26.017038,46,38,0
25.99645,26.017038,46,42,0
27.428802,28.134686,46,27,0
28.134686,29.119114,51,34,0
29.119114,29.452078,51,25,0
29.452078,30.054834,51,30,0
29.968725,30.054834,51,24,0
30.054834,30.140942,53,22,0
27.958216,30.140942,36,31,0
30.140942,31.067324,55,31,0
31.067324,31.381458,53,24,0
31.381458,32.10435,51,26,0
32.10435,35.592724,50,26,0
32.10435,35.592724,38,23,0
35.592724,36.290398,33,27,0
36.290398,37.685745,33,31,0
37.685745,38.400032,33,27,0
36.290398,38.400032,62,27,0
38.400032,39.493294,33,33,0
39.493294,39.863663,33,27,0
39.863663,40.73958,33,31,0
38.400032,40.73958,61,27,0
36.290398,40.73958,52,24,0
40.73958,42.194122,62,27,0
36.290398,42.194122,57,24,0
40.73958,42.194122,54,24,0
40.73958,42.921394,26,31,0
42.921394,44.086445,43,48,0
42.921394,44.086445,31,48,0
44.086445,44.66897,43,56,0
44.66897,45.82292,36,48,0
44.66897,45.933014,48,48,0
45.933014,46.043102,50,47,0
46.043102,46.153194,51,49,0
46.153194,46.263287,53,51,0
46.263287,46.37338,55,53,0
46.37338,47.636944,56,55,0
47.636944,47.747036,55,50,0
47.747036,47.85713,53,52,0
47.85713,47.96722,51,55,0
47.96722,48.077312,50,57,0
48.077312,49.209843,48,63,0
48.077312,49.209843,36,63,0
49.759895,50.935444,46,61,0
49.759895,50.935444,34,61,0
51.377518,51.488033,46,53,0
51.488033,52.641987,39,48,0
51.488033,52.75208,51,48,0
52.75208,52.86217,54,47,0
52.86217,52.972263,55,49,0
52.972263,53.08235,57,51,0
53.08235,53.192444,58,53,0
53.192444,54.345917,50,55,0
53.192444,54.45601,60,55,0
54.45601,54.5661,58,50,0
54.5661,54.676193,57,52,0
54.676193,54.786285,55,55,0
54.786285,54.896378,54,57,0
54.896378,56.59441,55,63,0
54.896378,56.59441,43,63,0
56.59441,58.378426,54,61,0
56.59441,58.378426,42,61,0
58.378426,59.55608,53,61,0
58.378426,59.55608,41,61,0
60.190567,62.462936,42,56,0
60.190567,65.74893,54,56,0
65.74893,66.33671,54,22,0
62.462936,66.33671,39,26,0
66.33671,68.019295,37,30,0
69.76611,73.284744,30,26,0
68.019295,73.284744,42,30,0
73.284744,74.96733,41,30,0
73.284744,74.96733,29,30,0
74.96733,78.430756,46,30,0
74.96733,78.430756,34,30,0
78.430756,80.16855,47,34,0
78.430756,80.16855,35,26,0
80.16855,81.597115,36,50,0
81.597115,82.13283,38,44,0
82.13283,82.222115,36,43,0
82.222115,82.3114,38,43,0
82.3114,83.234924,39,50,0
83.234924,83.55238,38,37,0
83.55238,84.14227,36,42,0
84.22654,86.3318,50,37,0
84.14227,86.3318,34,45,0
86.3318,87.04609,29,33,0
80.16855,87.04609,41,37,0
84.22654,87.04609,41,45,0
87.760376,88.47466,38,43,0
80.18938,88.49409,48,37,0
88.47466,88.49409,48,37,0
88.47466,89.483055,36,50,0
89.483055,89.825516,38,44,0
89.825516,90.35431,36,44,0
90.35431,90.442444,36,43,0
90.442444,90.53057,38,43,0
90.53057,91.454094,39,50,0
91.454094,91.77155,38,37,0
91.77155,92.27717,36,42,0
92.27717,92.44571,34,45,0
88.47466,95.979546,41,37,0
92.44571,95.979546,41,45,0
92.44571,95.979546,50,45,0
96.51526,96.69383,39,35,0
96.69383,98.07314,55,45,0
98.07314,98.762794,55,38,0
98.762794,99.69397,58,42,0
99.69397,100.00976,57,37,0
100.521126,100.691574,38,35,0
100.00976,100.691574,55,41,0
95.979546,102.6336,46,38,0
100.691574,102.656555,53,34,0
102.6336,103.24584,46,31,0
103.874115,104.41628,54,26,0
103.874115,104.41628,46,22,0
103.874115,104.41628,38,22,0
104.41628,104.506645,39,34,0
104.59701,105.97631,55,45,0
105.97631,106.49355,55,38,0
104.506645,106.66597,46,36,0
106.66597,107.597145,58,42,0
107.597145,107.91293,57,37,0
107.91293,108.59475,55,41,0
106.579765,108.59475,49,36,0
106.49355,108.59475,40,32,0
108.59475,110.557014,41,30,0
108.59475,111.79753,53,34,0
108.59475,111.79753,50,34,0
111.79753,112.520424,46,26,0
110.557014,112.520424,44,50,0
112.520424,113.45644,51,47,0
113.45644,113.7739,53,42,0
113.7739,114.18599,51,50,0
114.18599,114.26841,53,45,0
114.26841,114.35082,51,47,0
114.35082,114.43324,53,49,0
114.43324,115.35962,55,52,0
115.35962,115.67376,53,50,0
115.67376,116.39665,51,45,0
112.520424,116.39665,46,36,0
112.520424,116.39665,43,36,0
116.39665,118.56532,54,56,0
116.39665,118.56532,50,47,0
116.39665,118.56532,45,47,0
118.56532,119.97709,55,39,0
119.97709,120.682976,55,34,0
118.56532,120.682976,46,34,0
120.682976,121.609886,56,42,0
121.609886,121.93074,56,30,0
121.93074,122.50452,56,37,0
122.42255,122.50452,56,29,0
122.50452,122.58648,58,27,0
120.682976,122.58648,60,36,0
122.58648,123.51286,60,38,0
123.51286,123.826996,58,28,0
123.826996,124.54989,56,29,0
120.682976,124.54989,48,38,0
124.54989,125.513275,50,35,0
125.513275,125.84294,51,35,0
125.84294,126.36926,53,35,0
124.54989,126.5447,59,35,0
124.54989,126.5447,55,35,0
126.45698,127.5469,53,35,0
127.5469,127.889755,52,35,0
126.5447,128.61711,60,35,0
126.36926,128.61711,48,35,0
128.61711,132.6751,57,37,0
128.61711,132.6751,51,37,0
132.6751,136.86609,50,37,0
128.43854,136.86609,41,34,0
136.68752,136.86609,41,28,0
136.86609,139.99466,57,37,0
136.86609,139.99466,51,37,0
139.99466,141.57767,51,37,0
141.57767,141.89452,50,31,0
141.89452,142.49997,53,38,0
140.64969,142.49997,41,52,0
143.3979,143.70528,51,32,0
143.70528,144.29875,53,37,0
142.49997,144.29875,41,42,0
145.18808,145.49547,50,32,0
145.49547,146.09189,53,36,0
144.29875,146.09189,41,50,0
146.98,147.28896,53,31,0
146.09189,147.28896,41,42,0
147.28896,147.89441,59,37,0
148.77628,149.079,51,31,0
149.079,149.67543,55,38,0
147.89441,149.67543,41,52,0
150.55278,150.851,53,34,0
150.851,151.46262,55,40,0
149.67543,151.46262,41,42,0
152.34325,152.6475,51,40,0
152.6475,153.24098,55,45,0
151.46262,153.24098,41,53,0
154.1275,154.43488,52,39,0
153.24098,154.43488,41,51,0
154.43488,155.0313,61,42,0
155.91823,156.22879,53,39,0
156.22879,156.82521,57,43,0
155.0313,156.82521,41,49,0
157.71332,158.02228,55,31,0
156.82521,158.02228,41,48,0
158.02228,158.61575,57,44,0
159.49245,159.79826,53,38,0
159.79826,160.39174,57,45,0
158.61575,160.39174,41,51,0
161.2696,161.57387,57,39,0
160.39174,161.57387,41,56,0
161.57387,162.16153,53,43,0
163.07753,163.38809,58,36,0
162.16153,163.38809,46,51,0
163.38809,164.0212,53,41,0
164.93742,165.25122,54,36,0
164.0212,165.25122,38,52,0
165.25122,165.89314,50,41,0
166.81406,167.12952,55,37,0
165.89314,167.12952,39,49,0
167.12952,167.77489,46,43,0
168.70392,169.02444,57,39,0
167.77489,169.02444,41,50,0
169.70549,170.29314,41,42,0
169.02444,170.29314,53,44,0
170.91106,171.20927,48,38,0
170.6021,171.20927,53,25,0
170.6021,171.20927,60,31,0
171.50748,172.08945,41,42,0
172.71379,173.01805,48,37,0
172.40161,173.01805,53,21,0
172.40161,173.01805,63,31,0
173.32231,173.90427,41,42,0
174.50972,174.80794,50,38,0
174.207,174.80794,53,25,0
174.207,174.80794,62,31,0
175.10614,175.68529,41,42,0
176.30005,176.60126,48,37,0
175.99268,176.60126,53,27,0
175.99268,176.60126,60,31,0
176.90245,177.48442,41,46,0
178.08986,178.3866,47,45,0
177.78714,178.3866,50,28,0
177.78714,178.3866,59,36,0
178.68333,179.2597,41,47,0
179.87762,180.18188,50,45,0
179.56866,180.18188,53,30,0
179.56866,180.18188,62,40,0
180.48615,181.0681,41,53,0
181.68602,181.98276,51,48,0
181.37706,181.98276,55,30,0
181.37706,181.98276,63,40,0
182.2795,182.85864,41,58,0
183.483,183.78725,50,45,0
183.17082,183.78725,53,29,0
183.17082,183.78725,62,37,0
184.0915,184.66788,41,61,0
185.28264,185.58234,49,47,0
184.97527,185.58234,52,27,0
184.97527,185.58234,61,38,0
185.88203,186.464,41,52,0
187.07875,187.38147,52,47,0
186.77138,187.38147,55,30,0
186.77138,187.38147,64,39,0
188.88692,189.33202,53,57,0
188.57796,189.33202,57,43,0
188.57796,189.33202,65,51,0
187.6842,189.4804,41,67,0
189.33202,189.4804,41,51,0
190.377,190.68596,60,44,0
190.68596,191.13107,57,56,0
191.13107,191.27943,46,56,0
189.4804,191.27943,51,64,0
192.1987,192.5125,58,51,0
192.5125,192.98274,53,61,0
192.98274,193.14561,38,55,0
191.27943,193.14561,50,63,0
194.06487,194.37868,57,50,0
194.37868,194.68764,54,55,0
193.14561,195.0206,48,66,0
195.0206,195.94466,55,66,0
195.94466,196.26326,57,48,0
196.26326,196.75218,58,57,0
196.75218,196.81163,41,43,0
194.93736,196.84135,46,56,0
196.81163,196.87108,51,47,0
196.87108,196.93054,57,51,0
194.85411,196.93054,39,51,0
196.93054,197.90636,62,64,0
197.90636,198.24495,60,50,0
198.24495,199.00879,62,56,0
199.00879,203.06422,57,37,0
199.00879,203.06422,51,37,0
203.06422,207.31235,50,37,0
198.76724,207.31235,41,34,0
207.13377,207.31235,41,28,0
207.31235,211.29631,57,37,0
207.31235,211.29631,51,37,0
211.29631,214.83014,50,37,0
215.4176,215.61343,39,35,0
215.61343,217.04884,55,45,0
217.04884,217.76654,55,38,0
217.76654,218.74745,58,42,0
218.74745,219.08041,57,37,0
219.63873,219.82483,38,33,0
219.08041,219.82483,55,41,0
219.82483,222.10043,53,42,0
214.83014,222.10043,46,38,0
222.07831,222.10043,46,33,0
223.61751,224.4218,46,27,0
224.4218,225.53105,51,34,0
225.53105,225.91003,51,25,0
225.91003,226.60393,51,30,0
226.50479,226.60393,51,24,0
226.60393,226.70305,53,22,0
224.4218,226.70305,35,31,0
226.70305,227.90459,54,31,0
227.90459,228.33649,53,24,0
228.33649,229.34557,51,26,0
229.34557,229.92628,34,23,0
229.92628,242.22575,50,26,0
