start_time,end_time,note_value,velocity,instrument_program_number
0.12711863,0.2534546,74,37,0
0.2534546,0.379015,62,31,0
0.379015,0.503807,74,38,0
0.0,0.503807,71,49,0
0.6274878,0.7504273,74,37,0
0.7504273,0.87263894,62,31,0
0.87263894,0.99413586,74,37,0
0.503807,0.99413586,71,44,0
1.1149174,1.2364142,74,36,0
1.2364142,1.3579111,62,30,0
1.3579111,1.4801228,74,36,0
0.99413586,1.4801228,69,44,0
1.6026918,1.7260019,74,37,0
1.7260019,1.8496827,62,33,0
1.8496827,1.9741043,74,37,0
1.4801228,1.9741043,67,44,0
2.097785,2.2207246,74,37,0
2.2207246,2.3429363,62,33,0
2.3429363,2.4644332,74,37,0
1.9741043,2.4644332,66,48,0
2.584857,2.7045908,74,37,0
2.7045908,2.8236341,62,30,0
2.8236341,2.9419866,74,37,0
2.4644332,2.9419866,67,47,0
3.0593207,3.1766548,74,38,0
3.1766548,3.2943285,62,34,0
3.2943285,3.4126809,74,38,0
2.9419866,3.4126809,72,51,0
3.5310335,3.6500769,74,36,0
3.6500769,3.7694654,62,31,0
3.7694654,3.8895442,74,36,0
3.4126809,3.8895442,71,47,0
4.0099683,4.130392,74,37,0
4.130392,4.2501254,62,33,0
4.2501254,4.368478,74,38,0
3.8895442,4.368478,71,49,0
4.4868307,4.604504,74,39,0
4.604504,4.721838,62,36,0
4.721838,4.8391724,74,41,0
4.368478,4.8391724,69,53,0
4.9555054,5.072506,74,42,0
5.072506,5.1908584,62,38,0
5.1908584,5.3099017,74,45,0
4.8391724,5.3099017,67,55,0
5.4303255,5.551465,74,47,0
5.551465,5.6744046,62,42,0
5.6744046,5.794533,74,50,0
5.3099017,5.794533,69,57,0
5.917102,6.039671,74,52,0
5.794533,6.039671,71,66,0
6.16224,6.284809,74,49,0
6.039671,6.284809,62,58,0
6.4070206,6.5285177,74,47,0
6.284809,6.5285177,63,57,0
6.6500144,6.771511,74,47,0
6.5285177,6.771511,64,57,0
6.8909,7.0102887,74,47,0
6.771511,7.0102887,65,56,0
7.1307125,7.2511363,74,47,0
7.0102887,7.2511363,66,55,0
7.3726335,7.49413,74,45,0
7.2511363,7.49413,67,53,0
7.616699,7.7392683,74,42,0
7.49413,7.7392683,69,53,0
7.8614798,7.982977,74,39,0
7.982977,8.1034,76,46,0
8.1034,8.223134,74,38,0
7.7392683,8.223134,71,53,0
8.341487,8.459161,74,40,0
8.459161,8.575494,76,48,0
8.575494,8.691182,74,39,0
8.223134,8.691182,71,55,0
8.805582,8.919357,74,46,0
8.919357,9.032822,76,53,0
9.032822,9.14691,74,47,0
8.691182,9.14691,69,60,0
9.261309,9.376353,79,50,0
9.376353,9.492042,81,59,0
9.492042,9.608375,79,52,0
9.14691,9.608375,71,63,0
9.7267275,9.84508,79,52,0
9.84508,9.963432,81,58,0
9.963432,10.081785,79,51,0
9.608375,10.081785,74,69,0
10.200482,10.319872,79,48,0
10.319872,10.4392605,81,52,0
10.4392605,10.558649,79,46,0
10.081785,10.558649,72,62,0
10.678038,10.798117,79,49,0
10.798117,10.918541,81,53,0
10.918541,11.038964,79,48,0
10.558649,11.038964,71,61,0
11.159389,11.280527,79,49,0
11.280527,11.402024,78,51,0
11.402024,11.523521,76,49,0
11.038964,11.523521,70,60,0
11.645019,11.766515,74,40,0
11.766515,11.888012,76,44,0
11.888012,12.008794,74,38,0
11.523521,12.008794,71,51,0
12.129575,12.251072,74,37,0
12.251072,12.373641,76,41,0
12.373641,12.501666,74,34,0
12.008794,12.501666,67,47,0
12.624976,12.74683,74,44,0
12.501666,12.74683,66,50,0
12.866909,12.984928,74,41,0
12.74683,12.984928,69,48,0
13.104317,13.225813,74,40,0
12.984928,13.225813,72,51,0
13.349864,13.476991,74,39,0
13.225813,13.476991,71,50,0
13.6115675,13.746145,74,39,0
13.746145,13.869515,73,42,0
13.869515,13.992826,74,37,0
13.992826,14.118777,76,42,0
14.118777,14.247092,74,36,0
14.247092,14.37826,73,41,0
14.37826,14.511546,74,36,0
13.476991,14.511546,69,49,0
14.511546,14.780751,79,52,0
14.511546,14.780751,67,52,0
14.780751,14.912333,66,36,0
14.912333,15.041859,67,39,0
15.041859,15.170174,69,42,0
15.170174,15.299685,67,38,0
15.299685,15.430024,66,41,0
15.430024,15.556062,67,37,0
15.684377,15.811894,74,37,0
15.811894,15.9386215,62,31,0
15.9386215,16.064566,74,38,0
15.556062,16.064566,71,44,0
16.189358,16.31341,74,37,0
16.31341,16.43672,62,31,0
16.43672,16.559288,74,37,0
16.064566,16.559288,71,44,0
16.680428,16.800852,74,36,0
16.800852,16.921276,62,30,0
16.921276,17.041698,74,36,0
16.559288,17.041698,69,44,0
17.163197,17.284693,74,37,0
17.284693,17.40619,62,33,0
17.40619,17.528402,74,37,0
17.041698,17.528402,67,44,0
17.649899,17.771395,74,37,0
17.771395,17.892534,62,33,0
17.892534,18.012959,74,37,0
17.528402,18.012959,66,48,0
18.133383,18.253117,74,37,0
18.253117,18.372505,62,30,0
18.372505,18.491894,74,37,0
18.012959,18.491894,67,47,0
18.610247,18.7286,74,38,0
18.7286,18.847988,62,34,0
18.847988,18.967377,74,38,0
18.491894,18.967377,72,51,0
19.0878,19.208223,74,36,0
19.208223,19.329721,62,31,0
19.329721,19.451218,74,36,0
18.967377,19.451218,71,47,0
19.573786,19.696356,74,37,0
19.696356,19.817852,62,33,0
19.817852,19.938635,74,38,0
19.451218,19.938635,71,49,0
20.059057,20.178791,74,39,0
20.178791,20.297834,62,36,0
20.297834,20.416187,74,41,0
19.938635,20.416187,69,53,0
20.533522,20.650856,74,42,0
20.650856,20.769209,62,38,0
20.769209,20.88756,74,45,0
20.416187,20.88756,67,55,0
21.00695,21.126339,74,47,0
21.126339,21.246761,62,42,0
21.246761,21.3679,74,50,0
20.88756,21.3679,69,57,0
21.49047,21.613039,74,52,0
21.3679,21.613039,71,66,0
21.73525,21.856749,74,49,0
21.613039,21.856749,62,58,0
21.978245,22.099026,74,47,0
21.856749,22.099026,63,57,0
22.21945,22.339874,74,47,0
22.099026,22.339874,64,57,0
22.459263,22.578651,74,47,0
22.339874,22.578651,65,56,0
22.699076,22.8195,74,47,0
22.578651,22.8195,66,55,0
22.940996,23.062492,74,45,0
22.8195,23.062492,67,53,0
23.185062,23.308372,74,42,0
23.062492,23.308372,69,53,0
23.43094,23.552795,74,39,0
23.552795,23.673935,76,46,0
23.673935,23.79436,74,38,0
23.308372,23.79436,71,53,0
23.913748,24.032446,74,40,0
24.032446,24.150457,76,48,0
24.150457,24.267792,74,39,0
23.79436,24.267792,71,55,0
24.38316,24.498526,74,46,0
24.498526,24.614859,76,53,0
24.614859,24.73186,74,47,0
24.267792,24.73186,69,60,0
24.849533,24.967886,79,50,0
24.967886,25.087275,81,59,0
25.087275,25.207354,79,52,0
24.73186,25.207354,71,63,0
25.324688,25.442022,79,52,0
25.442022,25.559357,81,58,0
25.559357,25.67669,79,51,0
25.207354,25.67669,74,69,0
25.794708,25.914097,79,48,0
25.914097,26.033487,81,52,0
26.033487,26.152876,79,46,0
25.67669,26.152876,72,62,0
26.272264,26.392344,79,49,0
26.392344,26.512766,81,53,0
26.512766,26.63319,79,48,0
26.152876,26.63319,71,61,0
26.753614,26.874754,79,49,0
26.874754,26.99625,78,51,0
26.99625,27.117746,76,49,0
26.63319,27.117746,70,60,0
27.239244,27.36074,74,40,0
27.36074,27.482239,76,44,0
27.482239,27.60302,74,38,0
27.117746,27.60302,71,51,0
27.7238,27.845299,74,37,0
27.845299,27.967867,76,41,0
27.967867,28.095892,74,34,0
27.60302,28.095892,67,47,0
28.22262,28.347795,74,44,0
28.095892,28.347795,66,50,0
28.471106,28.592602,74,41,0
28.347795,28.592602,69,48,0
28.718163,28.843723,74,40,0
28.592602,28.843723,72,51,0
28.972437,29.103603,74,39,0
28.843723,29.103603,71,50,0
29.238182,29.372759,74,39,0
29.372759,29.500277,73,42,0
29.500277,29.630201,74,37,0
29.630201,29.762627,76,42,0
29.762627,29.89766,74,36,0
29.89766,30.035412,73,41,0
30.035412,30.17598,74,36,0
29.103603,30.17598,69,49,0
30.17598,30.449657,67,52,0
30.17598,30.449657,79,52,0
30.449657,30.579998,66,45,0
30.579998,30.708712,67,49,0
30.708712,30.835047,69,53,0
30.835047,30.961775,67,49,0
30.961775,31.090488,66,56,0
31.090488,31.220827,67,50,0
31.344507,31.467447,67,51,0
31.467447,31.589659,72,57,0
31.589659,31.711155,67,51,0
31.220827,31.711155,79,75,0
31.83158,31.951313,67,51,0
31.951313,32.07036,72,55,0
32.07036,32.18871,67,50,0
31.711155,32.18871,76,68,0
32.30604,32.423378,67,51,0
32.423378,32.541397,72,57,0
32.541397,32.660786,67,52,0
32.18871,32.660786,79,73,0
32.780174,32.900253,67,50,0
32.900253,33.020676,72,53,0
33.020676,33.142174,67,50,0
32.660786,33.142174,76,67,0
33.264744,33.38731,67,51,0
33.38731,33.50881,66,56,0
33.50881,33.630306,67,51,0
33.142174,33.630306,76,70,0
33.75073,33.87115,62,45,0
33.87115,33.990543,67,48,0
33.990543,34.109585,62,45,0
33.630306,34.109585,74,68,0
34.227936,34.34698,62,40,0
34.34698,34.466713,66,48,0
34.466713,34.58714,62,40,0
34.109585,34.58714,72,67,0
34.708633,34.831142,62,39,0
34.831142,34.95812,67,45,0
34.95812,35.090565,62,39,0
34.58714,35.090565,71,66,0
35.216125,35.341686,62,40,0
35.341686,35.466476,65,45,0
35.466476,35.59016,62,40,0
35.090565,35.59016,71,64,0
35.712727,35.834583,62,41,0
35.834583,35.955723,66,45,0
35.955723,36.0758,62,39,0
35.59016,36.0758,72,66,0
36.195534,36.316673,62,44,0
36.316673,36.439243,66,48,0
36.439243,36.563293,62,42,0
36.0758,36.563293,76,67,0
36.688854,36.815582,62,39,0
36.815582,36.944294,66,45,0
36.944294,37.074635,62,39,0
36.563293,37.074635,72,62,0
37.205387,37.33614,62,39,0
37.33614,37.466892,67,45,0
37.466892,37.597645,62,39,0
37.074635,37.597645,71,57,0
37.72596,37.853477,67,42,0
37.853477,37.980206,66,47,0
37.980206,38.10538,67,41,0
38.10538,38.229805,79,70,0
38.229805,38.35274,67,47,0
38.35274,38.476425,66,53,0
38.476425,38.600845,67,50,0
38.600845,38.725636,79,75,0
38.725636,38.85158,67,55,0
38.85158,38.979748,66,59,0
38.979748,39.115093,67,53,0
39.238773,39.361713,67,56,0
39.361713,39.483925,70,60,0
39.483925,39.605423,67,55,0
39.115093,39.605423,79,81,0
39.725845,39.84558,67,59,0
39.84558,39.964622,70,63,0
39.964622,40.082977,67,58,0
39.605423,40.082977,75,82,0
40.20031,40.317646,67,58,0
40.317646,40.435665,70,61,0
40.435665,40.555054,67,56,0
40.082977,40.555054,74,80,0
40.674442,40.79452,67,56,0
40.79452,40.914944,70,59,0
40.914944,41.03644,67,55,0
40.555054,41.03644,73,80,0
41.160122,41.283062,67,56,0
41.283062,41.405273,71,60,0
41.405273,41.526768,67,55,0
41.03644,41.526768,76,79,0
41.647194,41.766926,62,56,0
41.766926,41.88597,67,60,0
41.88597,42.004322,62,58,0
41.526768,42.004322,74,78,0
42.12166,42.23899,62,53,0
42.23899,42.35701,66,58,0
42.35701,42.4764,62,53,0
42.004322,42.4764,72,75,0
42.595787,42.715866,62,56,0
42.715866,42.83629,67,59,0
42.83629,42.957787,62,55,0
42.4764,42.957787,71,73,0
43.081467,43.204407,61,47,0
43.204407,43.32662,67,51,0
43.32662,43.448116,61,46,0
42.957787,43.448116,71,72,0
43.56854,43.688274,61,42,0
43.688274,43.807316,67,49,0
43.807316,43.92567,61,41,0
43.448116,43.92567,69,59,0
44.043003,44.16034,60,41,0
44.16034,44.278355,66,47,0
44.278355,44.397747,60,40,0
43.92567,44.397747,71,64,0
44.517136,44.637215,60,40,0
44.637215,44.757637,66,47,0
44.757637,44.879135,60,40,0
44.397747,44.879135,69,61,0
45.0017,45.12427,59,36,0
45.12427,45.24684,62,40,0
45.24684,45.369408,69,36,0
44.879135,45.369408,71,61,0
45.369408,45.492348,67,53,0
45.492348,45.616028,59,35,0
45.616028,45.73971,62,40,0
45.73971,45.86339,69,35,0
45.86339,45.987072,67,49,0
45.987072,46.111492,59,31,0
46.111492,46.23783,62,36,0
46.23783,46.365746,69,30,0
46.365746,46.49567,67,46,0
46.49567,46.626423,62,31,0
46.626423,46.757175,67,34,0
46.757175,46.88671,69,33,0
47.015026,47.142742,74,37,0
47.142742,47.269665,62,31,0
47.269665,47.39561,74,38,0
46.88671,47.39561,71,49,0
47.521362,47.646152,74,37,0
47.646152,47.77002,62,31,0
47.77002,47.893147,74,37,0
47.39561,47.893147,71,44,0
48.015713,48.138283,74,36,0
48.138283,48.260853,62,30,0
48.260853,48.383976,74,36,0
47.893147,48.383976,69,44,0
48.507656,48.63134,74,37,0
48.63134,48.75502,62,33,0
48.75502,48.879257,74,37,0
48.383976,48.879257,67,44,0
49.003864,49.127544,74,37,0
49.127544,49.250298,62,33,0
49.250298,49.37233,74,37,0
48.879257,49.37233,66,48,0
49.49365,49.61407,74,37,0
49.61407,49.73329,62,30,0
49.73329,49.850624,74,37,0
49.37233,49.850624,67,47,0
49.96796,50.085804,74,38,0
50.085804,50.204155,62,34,0
50.204155,50.323025,74,38,0
49.850624,50.323025,72,51,0
50.442413,50.56232,74,36,0
50.56232,50.682743,62,31,0
50.682743,50.803707,74,36,0
50.323025,50.803707,71,47,0
50.9252,51.0467,74,37,0
51.0467,51.16715,62,33,0
51.16715,51.2855,74,38,0
50.803707,51.2855,71,49,0
51.403854,51.521526,74,39,0
51.521526,51.63886,62,36,0
51.63886,51.756195,74,41,0
51.2855,51.756195,69,53,0
51.872528,51.98953,74,42,0
51.98953,52.10788,62,38,0
52.10788,52.226925,74,45,0
51.756195,52.226925,67,55,0
52.347347,52.468487,74,47,0
52.468487,52.591427,62,42,0
52.591427,52.711555,74,50,0
52.226925,52.711555,69,57,0
52.834126,52.95669,74,52,0
52.711555,52.95669,71,66,0
53.07926,53.20183,74,49,0
52.95669,53.20183,62,58,0
53.324043,53.44554,74,47,0
53.20183,53.44554,63,57,0
53.567036,53.688534,74,47,0
53.44554,53.688534,64,57,0
53.807922,53.92731,74,47,0
53.688534,53.92731,65,56,0
54.047733,54.16816,74,47,0
53.92731,54.16816,66,55,0
54.289654,54.41115,74,45,0
54.16816,54.41115,67,53,0
54.533722,54.656292,74,42,0
54.41115,54.656292,69,53,0
54.778503,54.899998,74,39,0
54.899998,55.020424,76,46,0
55.020424,55.140156,74,38,0
54.656292,55.140156,71,53,0
55.25851,55.376183,74,40,0
55.376183,55.492516,76,48,0
55.492516,55.608204,74,39,0
55.140156,55.608204,71,55,0
55.722603,55.83638,74,46,0
55.83638,55.949844,76,53,0
55.949844,56.06393,74,47,0
55.608204,56.06393,69,60,0
56.17833,56.293377,79,50,0
56.293377,56.409065,81,59,0
56.409065,56.5254,79,52,0
56.06393,56.5254,71,63,0
56.64375,56.762104,79,52,0
56.762104,56.880455,81,58,0
56.880455,56.998806,79,51,0
56.5254,56.998806,74,69,0
57.117504,57.236893,79,48,0
57.236893,57.35628,81,52,0
57.35628,57.47567,79,46,0
56.998806,57.47567,72,62,0
57.59506,57.715137,79,49,0
57.715137,57.835564,81,53,0
57.835564,57.955986,79,48,0
57.47567,57.955986,71,61,0
58.076412,58.197548,79,49,0
58.197548,58.319046,78,51,0
58.319046,58.440544,76,49,0
57.955986,58.440544,70,60,0
58.562042,58.683537,74,40,0
58.683537,58.805035,76,44,0
58.805035,58.925816,74,38,0
58.440544,58.925816,71,51,0
59.046597,59.168095,74,37,0
59.168095,59.290665,76,41,0
59.290665,59.41869,74,34,0
58.925816,59.41869,67,47,0
59.542,59.663853,74,44,0
59.41869,59.663853,66,50,0
59.78393,59.90195,74,41,0
59.663853,59.90195,69,48,0
60.02134,60.142834,74,40,0
59.90195,60.142834,72,51,0
60.266888,60.394012,74,39,0
60.142834,60.394012,71,50,0
60.52859,60.663166,74,39,0
60.663166,60.790684,73,42,0
60.790684,60.92061,74,37,0
60.92061,61.053036,76,42,0
61.053036,61.18807,74,36,0
61.18807,61.32582,73,41,0
61.32582,61.46639,74,36,0
60.394012,61.46639,69,49,0
61.46639,61.740067,79,52,0
61.46639,61.740067,67,52,0
61.740067,61.870407,66,45,0
61.870407,61.99912,67,49,0
61.99912,62.125454,69,53,0
62.125454,62.252182,67,49,0
62.252182,62.380898,66,56,0
62.380898,62.511234,67,50,0
62.641987,62.767284,67,51,0
62.767284,62.889496,72,57,0
62.889496,63.010994,67,51,0
62.511234,63.010994,79,75,0
63.131416,63.251152,67,51,0
63.251152,63.370193,72,55,0
63.370193,63.48855,67,50,0
63.010994,63.48855,76,68,0
63.60588,63.723217,67,51,0
63.723217,63.841236,72,57,0
63.841236,63.960625,67,52,0
63.48855,63.960625,79,73,0
64.08001,64.20009,67,50,0
64.20009,64.32052,72,53,0
64.32052,64.44201,67,50,0
63.960625,64.44201,76,67,0
64.56458,64.68715,67,51,0
64.68715,64.80865,66,56,0
64.80865,64.930145,67,51,0
64.44201,64.930145,76,70,0
65.05057,65.17099,62,45,0
65.17099,65.29038,67,48,0
65.29038,65.409424,62,45,0
64.930145,65.409424,74,68,0
65.52778,65.64682,62,40,0
65.64682,65.766556,66,48,0
65.766556,65.88698,62,40,0
65.409424,65.88698,72,67,0
66.00848,66.13098,62,39,0
66.13098,66.25796,67,45,0
66.25796,66.3904,62,39,0
65.88698,66.3904,71,66,0
66.51596,66.641525,62,40,0
66.641525,66.76632,65,45,0
66.76632,66.89,62,40,0
66.3904,66.89,71,64,0
67.012566,67.13442,62,41,0
67.13442,67.25556,66,45,0
67.25556,67.37564,62,39,0
66.89,67.37564,72,66,0
67.49537,67.61651,62,44,0
67.61651,67.73908,66,48,0
67.73908,67.86313,62,42,0
67.37564,67.86313,76,67,0
67.98869,68.11542,62,39,0
68.11542,68.24413,66,45,0
68.24413,68.37447,62,39,0
67.86313,68.37447,72,62,0
68.505226,68.63598,62,39,0
68.63598,68.76673,67,45,0
68.76673,68.897484,62,39,0
68.37447,68.897484,71,57,0
69.0258,69.15332,67,42,0
69.15332,69.280045,66,47,0
69.280045,69.40522,67,41,0
69.40522,69.52964,79,70,0
69.52964,69.65258,67,47,0
69.65258,69.77626,66,53,0
69.77626,69.90068,67,50,0
69.90068,70.025475,79,75,0
70.025475,70.15142,67,55,0
70.15142,70.27959,66,59,0
70.27959,70.41493,67,53,0
70.53861,70.66155,67,56,0
70.66155,70.78377,70,60,0
70.78377,70.90526,67,55,0
70.41493,70.90526,79,81,0
71.02569,71.14542,67,59,0
71.14542,71.264465,70,63,0
71.264465,71.38281,67,58,0
70.90526,71.38281,75,82,0
71.50015,71.617485,67,58,0
71.617485,71.735504,70,61,0
71.735504,71.85489,67,56,0
71.38281,71.85489,74,80,0
71.97428,72.09436,67,56,0
72.09436,72.21478,70,59,0
72.21478,72.33628,67,55,0
71.85489,72.33628,73,80,0
72.45996,72.5829,67,56,0
72.5829,72.70511,71,60,0
72.70511,72.82661,67,55,0
72.33628,72.82661,76,79,0
72.94703,73.066765,62,56,0
73.066765,73.18581,67,60,0
73.18581,73.30416,62,58,0
72.82661,73.30416,74,78,0
73.42149,73.538826,62,53,0
73.538826,73.656845,66,58,0
73.656845,73.77624,62,53,0
73.30416,73.77624,72,75,0
73.89562,74.0157,62,56,0
74.0157,74.13613,67,59,0
74.13613,74.25762,62,55,0
73.77624,74.25762,71,73,0
74.38131,74.50424,61,47,0
74.50424,74.62646,67,51,0
74.62646,74.747955,61,46,0
74.25762,74.747955,71,72,0
74.86838,74.98811,61,42,0
74.98811,75.107155,67,49,0
75.107155,75.22551,61,41,0
74.747955,75.22551,69,59,0
75.34284,75.460175,60,41,0
75.460175,75.57819,66,47,0
75.57819,75.697586,60,40,0
75.22551,75.697586,71,64,0
75.81697,75.93705,60,40,0
75.93705,76.05747,66,47,0
76.05747,76.17897,60,40,0
75.697586,76.17897,69,61,0
76.301544,76.42411,59,36,0
76.42411,76.54668,62,40,0
76.54668,76.66925,69,36,0
76.17897,76.66925,71,61,0
76.66925,76.79219,67,53,0
76.79219,76.91587,59,35,0
76.91587,77.03955,62,39,0
77.03955,77.16323,69,35,0
77.16323,77.28691,67,50,0
77.28691,77.41133,59,31,0
77.41133,77.53767,62,36,0
77.53767,77.66558,69,30,0
77.66558,77.79551,67,48,0
77.79551,77.92626,62,34,0
77.92626,78.057014,67,36,0
78.057014,78.18655,69,33,0
78.314865,78.44258,74,37,0
78.44258,78.5695,62,31,0
78.5695,78.69545,74,38,0
78.18655,78.69545,71,49,0
78.8212,78.94599,74,37,0
78.94599,79.069855,62,31,0
79.069855,79.192986,74,37,0
78.69545,79.192986,71,44,0
79.31555,79.43812,74,36,0
79.43812,79.56069,62,30,0
79.56069,79.683815,74,36,0
79.192986,79.683815,69,44,0
79.807495,79.931175,74,37,0
79.931175,80.054855,62,33,0
80.054855,80.17909,74,37,0
79.683815,80.17909,67,44,0
80.3037,80.42738,74,37,0
80.42738,80.55013,62,33,0
80.55013,80.672165,74,37,0
80.17909,80.672165,66,48,0
80.79349,80.91391,74,37,0
80.91391,81.03313,62,30,0
81.03313,81.15047,74,37,0
80.672165,81.15047,67,47,0
81.2678,81.38564,74,38,0
81.38564,81.50399,62,34,0
81.50399,81.62286,74,38,0
81.15047,81.62286,72,51,0
81.742256,81.86216,74,36,0
81.86216,81.98258,62,31,0
81.98258,82.103546,74,36,0
81.62286,82.103546,71,47,0
82.22504,82.346535,74,37,0
82.346535,82.46699,62,33,0
82.46699,82.585335,74,38,0
82.103546,82.585335,71,49,0
82.70369,82.821365,74,39,0
82.821365,82.9387,62,36,0
82.9387,83.05603,74,41,0
82.585335,83.05603,69,53,0
83.17236,83.28937,74,42,0
83.28937,83.40772,62,38,0
83.40772,83.526764,74,45,0
83.05603,83.526764,67,55,0
83.64719,83.768326,74,47,0
83.768326,83.891266,62,42,0
83.891266,84.01139,74,50,0
83.526764,84.01139,69,57,0
84.133965,84.25653,74,52,0
84.01139,84.25653,71,66,0
84.3791,84.50167,74,49,0
84.25653,84.50167,62,58,0
84.62388,84.74538,74,47,0
84.50167,84.74538,63,57,0
84.866875,84.98837,74,47,0
84.74538,84.98837,64,57,0
85.10776,85.22715,74,47,0
84.98837,85.22715,65,56,0
85.34757,85.467995,74,47,0
85.22715,85.467995,66,55,0
85.58949,85.71099,74,45,0
85.467995,85.71099,67,53,0
85.83356,85.95613,74,42,0
85.71099,85.95613,69,53,0
86.07834,86.19984,74,39,0
86.19984,86.32026,76,46,0
86.32026,86.439995,74,38,0
85.95613,86.439995,71,53,0
86.55835,86.67602,74,40,0
86.67602,86.79235,76,48,0
86.79235,86.90804,74,39,0
86.439995,86.90804,71,55,0
87.022446,87.136215,74,46,0
87.136215,87.24968,76,53,0
87.24968,87.36377,74,47,0
86.90804,87.36377,69,60,0
87.47817,87.593216,79,50,0
87.593216,87.7089,81,59,0
87.7089,87.82523,79,52,0
87.36377,87.82523,71,63,0
87.94359,88.06194,79,52,0
88.06194,88.18029,81,58,0
88.18029,88.298645,79,51,0
87.82523,88.298645,74,69,0
88.41734,88.536736,79,48,0
88.536736,88.65612,81,52,0
88.65612,88.77551,79,46,0
88.298645,88.77551,72,62,0
88.8949,89.01498,79,49,0
89.01498,89.1354,81,53,0
89.1354,89.25582,79,48,0
88.77551,89.25582,71,61,0
89.37625,89.49739,79,49,0
89.49739,89.61888,78,51,0
89.61888,89.74038,76,49,0
89.25582,89.74038,70,60,0
89.87496,90.00954,74,40,0
90.00954,90.14411,76,44,0
90.14411,90.26926,74,38,0
89.74038,90.26926,71,51,0
90.39004,90.511536,74,37,0
90.511536,90.6341,76,41,0
90.6341,90.76213,74,34,0
90.26926,90.76213,67,47,0
90.88544,91.00729,74,44,0
90.76213,91.00729,66,50,0
91.12737,91.24539,74,41,0
91.00729,91.24539,69,48,0
91.36478,91.486275,74,40,0
91.24539,91.486275,72,51,0
91.61033,91.73745,74,39,0
91.486275,91.73745,71,50,0
91.865654,91.99314,74,40,0
91.99314,92.1199,62,34,0
92.1199,92.24595,74,41,0
91.73745,92.24595,71,51,0
92.37095,92.49458,74,40,0
92.49458,92.6172,62,34,0
92.6172,92.73882,74,40,0
92.24595,92.73882,71,48,0
92.86045,92.981415,76,41,0
92.981415,93.10239,64,36,0
93.10239,93.22401,76,41,0
92.73882,93.22401,72,53,0
93.34596,93.46791,74,40,0
93.46791,93.59086,62,36,0
93.59086,93.715805,74,40,0
93.22401,93.715805,71,48,0
93.84137,93.96616,74,40,0
93.96616,94.08984,62,34,0
94.08984,94.21278,74,41,0
93.715805,94.21278,71,53,0
94.33499,94.45649,74,40,0
94.45649,94.57691,62,34,0
94.57691,94.69665,74,39,0
94.21278,94.69665,70,51,0
94.81604,94.93577,74,39,0
94.93577,95.05619,62,35,0
95.05619,95.17769,74,39,0
94.69665,95.17769,69,49,0
95.299904,95.422844,74,40,0
95.422844,95.546524,62,33,0
95.546524,95.67132,74,38,0
95.17769,95.67132,66,48,0
95.79612,95.9198,74,40,0
95.9198,96.04237,62,34,0
96.04237,96.16422,74,41,0
95.67132,96.16422,71,51,0
96.28536,96.405785,74,40,0
96.405785,96.534,62,34,0
96.534,96.65563,74,40,0
96.16422,96.65563,71,48,0
96.77364,96.890976,76,41,0
96.890976,97.009674,64,36,0
97.009674,97.12907,76,41,0
96.65563,97.12907,72,53,0
97.24985,97.372055,74,40,0
97.372055,97.494995,62,36,0
97.494995,97.61905,74,40,0
97.12907,97.61905,71,48,0
97.74273,97.86567,74,40,0
97.86567,97.988235,62,34,0
97.988235,98.10973,74,41,0
97.61905,98.10973,71,53,0
98.23087,98.351295,74,40,0
98.351295,98.47103,62,34,0
98.47103,98.59007,74,39,0
98.10973,98.59007,70,51,0
98.70843,98.827126,74,39,0
98.827126,98.94651,62,35,0
98.94651,99.06659,74,39,0
98.59007,99.06659,69,49,0
99.18737,99.30887,74,40,0
99.30887,99.43108,62,33,0
99.43108,99.55402,74,38,0
99.06659,99.55402,66,48,0
99.67996,99.805145,74,40,0
99.805145,99.929565,62,34,0
99.929565,100.053246,74,41,0
99.55402,100.053246,71,51,0
100.053246,100.17581,59,48,0
100.17581,100.29767,67,37,0
100.29767,100.41881,62,31,0
100.41881,100.53959,67,37,0
100.53959,100.66109,62,47,0
100.66109,100.78151,71,35,0
100.78151,100.901245,67,33,0
100.901245,101.02029,71,35,0
101.02029,101.13864,67,47,0
101.13864,101.255974,74,33,0
101.255974,101.37264,71,28,0
101.37264,101.48865,74,33,0
101.48865,101.60804,71,46,0
101.60804,101.727776,79,31,0
101.727776,101.8482,74,29,0
101.8482,101.969696,79,33,0
101.969696,102.0919,74,44,0
102.0919,102.21484,83,30,0
102.21484,102.338524,79,27,0
102.338524,102.46332,83,30,0
102.46332,102.58849,79,41,0
102.58849,102.71444,86,30,0
102.71444,102.84156,83,26,0
102.84156,102.969475,86,30,0
102.969475,103.09819,83,41,0
103.09819,103.2277,91,30,0
103.2277,103.35845,86,26,0
103.35845,103.490036,91,30,0
103.490036,103.866165,95,41,0
103.490036,103.866165,79,41,0
103.490036,103.866165,86,41,0
104.84193,105.10343,83,38,0
104.635284,105.10343,71,38,0
104.70464,105.10343,74,38,0
104.773285,105.10343,79,38,0
105.887955,106.933975,67,38,0
105.887955,106.933975,59,32,0
0.0,0.2534546,43,39,0
0.503807,0.99413586,50,36,0
0.99413586,1.4801228,60,37,0
1.4801228,1.9741043,59,34,0
1.9741043,2.2207246,43,38,0
2.4644332,2.9419866,50,39,0
2.9419866,3.4126809,57,40,0
3.4126809,3.8895442,55,36,0
3.8895442,4.130392,38,41,0
4.368478,4.8391724,54,38,0
4.8391724,5.3099017,52,41,0
5.3099017,5.794533,54,44,0
5.794533,6.039671,43,41,0
6.284809,6.771511,50,36,0
6.771511,7.2511363,59,39,0
6.771511,7.2511363,55,39,0
7.2511363,7.7392683,50,37,0
7.7392683,7.982977,43,51,0
8.223134,8.691182,67,49,0
8.691182,9.14691,66,52,0
9.14691,9.608375,65,56,0
8.223134,9.608375,55,49,0
9.608375,10.081785,64,56,0
10.081785,10.558649,63,49,0
10.558649,11.038964,62,48,0
11.038964,11.523521,61,48,0
9.608375,11.523521,55,49,0
11.523521,12.008794,62,49,0
12.008794,12.501666,59,38,0
12.501666,12.74683,57,42,0
12.74683,12.984928,60,39,0
11.523521,12.984928,50,49,0
12.984928,13.225813,64,42,0
13.225813,13.476991,62,42,0
13.476991,14.511546,60,40,0
14.511546,14.780751,59,36,0
13.476991,14.780751,55,40,0
15.556062,15.811894,43,39,0
16.064566,16.559288,50,36,0
16.559288,17.041698,60,37,0
17.041698,17.528402,59,34,0
17.528402,17.771395,43,38,0
18.012959,18.491894,50,39,0
18.491894,18.967377,57,40,0
18.967377,19.451218,55,36,0
19.451218,19.696356,38,41,0
19.938635,20.416187,54,38,0
20.416187,20.88756,52,41,0
20.88756,21.3679,54,44,0
21.3679,21.613039,43,41,0
21.856749,22.339874,50,36,0
22.339874,22.8195,59,39,0
22.339874,22.8195,55,39,0
22.8195,23.308372,50,37,0
23.308372,23.552795,43,51,0
23.79436,24.267792,67,49,0
24.267792,24.73186,66,52,0
24.73186,25.207354,65,56,0
23.79436,25.207354,55,49,0
25.207354,25.67669,64,56,0
25.67669,26.152876,63,49,0
26.152876,26.63319,62,48,0
26.63319,27.117746,61,48,0
25.207354,27.117746,55,49,0
27.117746,27.60302,62,49,0
27.60302,28.095892,59,38,0
28.095892,28.347795,57,42,0
28.347795,28.592602,60,39,0
27.117746,28.592602,50,49,0
28.592602,28.843723,64,42,0
28.843723,29.103603,62,42,0
29.103603,30.17598,60,40,0
30.17598,30.449657,59,36,0
29.103603,30.449657,55,40,0
31.220827,31.711155,48,57,0
31.220827,31.711155,36,57,0
31.711155,32.18871,60,51,0
32.18871,32.660786,64,56,0
32.660786,33.142174,60,50,0
33.142174,33.630306,60,51,0
33.630306,34.109585,59,45,0
34.109585,34.58714,57,52,0
33.142174,34.58714,55,51,0
34.58714,35.090565,55,44,0
35.090565,35.59016,56,46,0
35.59016,36.0758,57,38,0
36.0758,36.563293,60,46,0
36.563293,37.074635,57,39,0
35.090565,37.074635,50,46,0
37.074635,37.597645,55,41,0
37.074635,37.597645,43,41,0
37.597645,38.10538,55,53,0
37.597645,38.10538,59,53,0
38.10538,38.600845,57,59,0
38.10538,38.600845,60,59,0
38.600845,39.115093,59,63,0
38.600845,39.115093,62,63,0
39.115093,39.361713,51,78,0
39.115093,39.361713,39,78,0
39.605423,40.082977,63,72,0
40.082977,40.555054,62,74,0
40.555054,41.03644,61,69,0
39.605423,41.03644,58,72,0
41.03644,41.283062,50,69,0
41.03644,41.283062,38,69,0
41.526768,42.004322,59,59,0
42.004322,42.4764,57,62,0
42.4764,42.957787,55,53,0
41.526768,42.957787,50,59,0
42.957787,43.448116,52,59,0
43.448116,43.92567,57,50,0
42.957787,43.92567,50,59,0
43.92567,44.397747,38,55,0
44.397747,44.879135,50,47,0
45.369408,46.88671,50,35,0
44.879135,46.88671,43,50,0
46.88671,47.142742,43,39,0
47.39561,47.893147,50,36,0
47.893147,48.383976,60,37,0
48.383976,48.879257,59,34,0
48.879257,49.127544,43,38,0
49.37233,49.850624,50,39,0
49.850624,50.323025,57,40,0
50.323025,50.803707,55,36,0
50.803707,51.0467,38,41,0
51.2855,51.756195,54,38,0
51.756195,52.226925,52,41,0
52.226925,52.711555,54,44,0
52.711555,52.95669,43,41,0
53.20183,53.688534,50,36,0
53.688534,54.16816,59,39,0
53.688534,54.16816,55,39,0
54.16816,54.656292,50,37,0
54.656292,54.899998,43,51,0
55.140156,55.608204,67,49,0
55.608204,56.06393,66,52,0
56.06393,56.5254,65,56,0
55.140156,56.5254,55,49,0
56.5254,56.998806,64,56,0
56.998806,57.47567,63,49,0
57.47567,57.955986,62,48,0
57.955986,58.440544,61,48,0
56.5254,58.440544,55,49,0
58.440544,58.925816,62,49,0
58.925816,59.41869,59,38,0
59.41869,59.663853,57,42,0
59.663853,59.90195,60,39,0
58.440544,59.90195,50,49,0
59.90195,60.142834,64,42,0
60.142834,60.394012,62,42,0
60.394012,61.46639,60,40,0
61.46639,61.740067,59,36,0
60.394012,61.740067,55,40,0
62.511234,63.010994,36,57,0
62.511234,63.010994,48,57,0
63.010994,63.48855,60,51,0
63.48855,63.960625,64,56,0
63.960625,64.44201,60,50,0
64.44201,64.930145,60,51,0
64.930145,65.409424,59,45,0
65.409424,65.88698,57,52,0
64.44201,65.88698,55,51,0
65.88698,66.3904,55,44,0
66.3904,66.89,56,46,0
66.89,67.37564,57,38,0
67.37564,67.86313,60,46,0
67.86313,68.37447,57,39,0
66.3904,68.37447,50,46,0
68.37447,68.897484,43,41,0
68.37447,68.897484,55,41,0
68.897484,69.40522,55,53,0
68.897484,69.40522,59,53,0
69.40522,69.90068,60,59,0
69.40522,69.90068,57,59,0
69.90068,70.41493,59,63,0
69.90068,70.41493,62,63,0
70.41493,70.66155,39,78,0
70.41493,70.66155,51,78,0
70.90526,71.38281,63,72,0
71.38281,71.85489,62,74,0
71.85489,72.33628,61,69,0
70.90526,72.33628,58,72,0
72.33628,72.5829,50,69,0
72.33628,72.5829,38,69,0
72.82661,73.30416,59,59,0
73.30416,73.77624,57,62,0
73.77624,74.25762,55,53,0
72.82661,74.25762,50,59,0
74.25762,74.747955,52,59,0
74.747955,75.22551,57,50,0
74.25762,75.22551,50,59,0
75.22551,75.697586,38,55,0
75.697586,76.17897,50,47,0
76.66925,78.18655,50,35,0
76.17897,78.18655,43,50,0
78.18655,78.44258,43,39,0
78.69545,79.192986,50,36,0
79.192986,79.683815,60,37,0
79.683815,80.17909,59,34,0
80.17909,80.42738,43,38,0
80.672165,81.15047,50,39,0
81.15047,81.62286,57,40,0
81.62286,82.103546,55,36,0
82.103546,82.346535,38,41,0
82.585335,83.05603,54,38,0
83.05603,83.526764,52,41,0
83.526764,84.01139,54,44,0
84.01139,84.25653,43,41,0
84.50167,84.98837,50,36,0
84.98837,85.467995,59,39,0
84.98837,85.467995,55,39,0
85.467995,85.95613,50,37,0
85.95613,86.19984,43,51,0
86.439995,86.90804,67,49,0
86.90804,87.36377,66,52,0
87.36377,87.82523,65,56,0
86.439995,87.82523,55,49,0
87.82523,88.298645,64,56,0
88.298645,88.77551,63,49,0
88.77551,89.25582,62,48,0
89.25582,89.74038,61,48,0
87.82523,89.74038,55,49,0
89.74038,90.26926,62,49,0
90.26926,90.76213,59,38,0
90.76213,91.00729,57,42,0
91.00729,91.24539,60,39,0
89.74038,91.24539,50,49,0
91.24539,91.486275,64,42,0
91.486275,91.73745,62,42,0
91.73745,91.99314,59,42,0
91.73745,91.99314,55,42,0
92.24595,92.73882,55,39,0
92.73882,93.22401,43,48,0
93.22401,93.715805,55,37,0
93.715805,93.96616,38,42,0
94.21278,94.57691,61,35,0
94.21278,94.57691,50,35,0
94.69665,95.05619,60,35,0
94.69665,95.05619,50,35,0
95.17769,95.546524,57,34,0
95.17769,95.546524,50,34,0
95.67132,95.9198,59,42,0
95.67132,95.9198,55,42,0
96.16422,96.65563,55,39,0
96.65563,97.12907,43,48,0
97.12907,97.61905,55,37,0
97.61905,97.86567,38,42,0
98.10973,98.47103,50,35,0
98.10973,98.47103,61,35,0
98.59007,98.94651,60,35,0
98.59007,98.94651,50,35,0
99.06659,99.43108,57,34,0
99.06659,99.43108,50,34,0
99.55402,99.805145,59,42,0
99.55402,99.805145,55,42,0
104.56452,105.10343,67,31,0
104.49149,105.10343,62,31,0
104.417404,105.10343,55,31,0
105.887955,106.933975,50,31,0
105.887955,106.933975,43,26,0
