start_time,end_time,note_value,velocity,instrument_program_number
0.25,0.3806817,88,100,40
0.3863635,0.5170452,87,100,40
0.522727,0.76751864,88,100,40
0.772727,1.0175186,83,100,40
1.022727,1.2675186,80,100,40
1.272727,1.5175186,83,100,40
1.522727,1.6425186,76,100,40
1.647727,1.7675186,78,100,40
1.772727,1.8925186,76,100,40
1.897727,2.0175188,75,100,40
2.022727,2.2675188,76,100,40
2.272727,2.5175188,71,100,40
2.522727,2.7897723,68,100,40
2.795454,3.089204,71,100,40
3.095454,3.239204,64,100,40
3.245454,3.389204,71,100,40
3.395454,3.5152457,66,100,40
3.520454,3.6402457,71,100,40
3.645454,3.7652457,68,100,40
3.770454,3.8902457,71,100,40
3.895454,4.0152454,69,100,40
4.020454,4.1402454,71,100,40
4.145454,4.2652454,68,100,40
4.270454,4.3902454,71,100,40
4.395454,4.5152454,66,100,40
4.520454,4.6402454,71,100,40
4.645454,4.7652454,64,100,40
4.770454,4.8902454,76,100,40
4.895454,5.0152454,75,100,40
5.020454,5.1402454,73,100,40
5.145454,5.2652454,71,100,40
5.270454,5.3902454,76,100,40
5.395454,5.5152454,75,100,40
5.520454,5.6402454,73,100,40
5.645454,5.7652454,71,100,40
5.770454,5.8902454,69,100,40
5.895454,6.0152454,68,100,40
6.020454,6.1402454,66,100,40
6.145454,6.2652454,64,90,40
6.270454,6.3902454,71,90,40
6.395454,6.5152454,66,90,40
6.520454,6.6402454,71,90,40
6.645454,6.7652454,68,90,40
6.770454,6.8902454,71,90,40
6.895454,7.0152454,69,90,40
7.020454,7.1402454,71,90,40
7.145454,7.2652454,68,90,40
7.270454,7.3902454,71,90,40
7.395454,7.5152454,66,90,40
7.520454,7.6402454,71,90,40
7.645454,7.7652454,64,90,40
7.770454,7.8902454,76,90,40
7.895454,8.015245,75,90,40
8.020454,8.140245,73,90,40
8.145454,8.265245,71,90,40
8.270454,8.390245,76,90,40
8.395454,8.515245,75,90,40
8.520454,8.640245,73,90,40
8.645454,8.776135,71,90,40
8.781817,8.912499,69,90,40
8.918181,9.061931,68,90,40
9.068181,9.211931,66,90,40
9.218181,9.348863,64,105,40
9.354545,9.485227,66,105,40
9.490908,9.6107,68,105,40
9.615908,9.7357,69,105,40
9.740908,9.8607,71,105,40
9.865908,9.9857,73,105,40
9.990908,10.1107,75,105,40
10.115908,10.2357,76,105,40
10.240908,10.3607,78,105,40
10.365908,10.4857,80,105,40
10.490908,10.6107,81,105,40
10.615908,10.7357,78,105,40
10.740908,10.8607,80,105,40
10.865908,10.9857,83,105,40
10.990908,11.1107,76,105,40
11.115908,11.2357,78,105,40
11.240908,11.3607,80,105,40
11.365908,11.4857,81,105,40
11.490908,11.6107,83,105,40
11.615908,11.7357,85,105,40
11.740908,11.8607,87,105,40
11.865908,11.9857,88,105,40
11.990908,12.1107,85,105,40
12.115908,12.2357,87,105,40
12.240908,12.3607,88,105,40
12.365908,12.4857,83,100,40
12.490908,12.6107,81,100,40
12.615908,12.7357,83,100,40
12.740908,12.8607,80,100,40
12.865908,12.9857,83,100,40
12.990908,13.1107,81,100,40
13.115908,13.2357,83,100,40
13.240908,13.3607,80,100,40
13.365908,13.4857,83,100,40
13.490908,13.6107,78,100,40
13.615908,13.7357,83,100,40
13.740908,13.8607,76,100,40
13.865908,13.9857,88,100,40
13.990908,14.1107,87,100,40
14.115908,14.2357,85,100,40
14.240908,14.3607,83,100,40
14.365908,14.4857,76,100,40
14.490908,14.6107,85,100,40
14.615908,14.7357,76,100,40
14.740908,14.8607,83,100,40
14.865908,14.9857,76,100,40
14.990908,15.1107,81,100,40
15.115908,15.2357,76,100,40
15.240908,15.3607,80,90,40
15.365908,15.4857,83,90,40
15.490908,15.6107,78,90,40
15.615908,15.7357,83,90,40
15.740908,15.8607,80,90,40
15.865908,15.9857,83,90,40
15.990908,16.1107,81,90,40
16.115908,16.2357,83,90,40
16.240908,16.3607,80,90,40
16.365908,16.4857,83,90,40
16.490908,16.6107,78,90,40
16.615908,16.7357,83,90,40
16.740908,16.8607,76,90,40
16.865908,16.9857,88,90,40
16.990908,17.1107,87,90,40
17.115908,17.2357,85,90,40
17.240908,17.3607,83,90,40
17.365908,17.4857,76,90,40
17.490908,17.6107,85,90,40
17.615908,17.7357,76,90,40
17.740908,17.87159,83,90,40
17.877272,18.007954,76,90,40
18.013636,18.157385,81,90,40
18.163635,18.307384,76,90,40
18.313635,18.457384,80,100,40
18.463634,18.607386,76,100,40
18.613634,18.744316,76,100,40
18.749998,19.006153,76,100,40
19.011362,19.256153,76,100,40
19.261362,19.506153,76,100,40
19.511362,19.756153,76,100,40
19.761362,20.006153,76,100,40
20.011362,20.256153,76,100,40
20.261362,20.506153,76,100,40
20.511362,20.756153,76,100,40
20.761362,21.006153,76,100,40
21.011362,21.256153,76,100,40
21.261362,21.506153,76,100,40
21.511362,21.756153,76,90,40
21.761362,22.006153,76,90,40
22.011362,22.256153,76,90,40
22.261362,22.506153,76,90,40
22.511362,22.756153,76,90,40
22.761362,23.006153,76,90,40
23.011362,23.256153,76,90,40
23.261362,23.506153,76,90,40
23.511362,23.756153,76,90,40
23.761362,24.006153,76,90,40
24.011362,24.256153,76,90,40
24.261362,24.506153,76,100,40
24.511362,24.756153,76,100,40
25.011362,25.256153,76,100,40
25.511362,25.756153,76,100,40
26.011362,26.256153,76,100,40
26.511362,26.756153,76,100,40
27.011362,27.256153,76,100,40
27.511362,27.756153,76,100,40
28.011362,28.256153,76,100,40
28.511362,28.756153,76,100,40
29.011362,29.256153,76,100,40
29.511362,29.756153,76,100,40
30.011362,30.256153,76,100,40
30.511362,30.756153,76,100,40
31.011362,31.256153,76,100,40
31.511362,31.756153,76,100,40
32.01136,32.256153,76,100,40
32.51136,32.756153,76,100,40
33.01136,33.256153,76,100,40
33.51136,33.756153,76,100,40
34.01136,34.256153,76,100,40
34.51136,34.756153,76,100,40
35.01136,35.256153,76,100,40
35.51136,35.756153,76,100,40
36.01136,36.256153,76,100,40
36.51136,36.756153,76,100,40
37.01136,37.256153,76,100,40
37.51136,37.756153,76,100,40
38.01136,38.256153,76,100,40
38.51136,38.756153,76,100,40
39.01136,39.256153,76,100,40
39.51136,39.756153,76,100,40
40.01136,40.256153,76,100,40
40.51136,40.756153,76,100,40
41.016796,41.272232,76,100,40
41.544464,41.81151,76,100,40
42.096413,42.38302,76,100,40
42.53927,42.669952,64,100,40
42.675632,42.806313,66,100,40
42.811996,42.93179,64,100,40
42.936996,43.05679,66,100,40
43.061996,43.18179,68,100,40
43.186996,43.30679,71,100,40
43.311996,43.43179,64,100,40
43.436996,43.55679,66,100,40
43.561996,43.68179,68,100,40
43.686996,43.80679,71,100,40
43.811996,43.93179,64,100,40
43.936996,44.05679,66,100,40
44.061996,44.18179,68,100,40
44.186996,44.30679,69,100,40
44.311996,44.43179,68,100,40
44.436996,44.55679,69,100,40
44.561996,44.68179,71,100,40
44.686996,44.80679,76,100,40
44.811996,44.93179,68,100,40
44.936996,45.05679,69,100,40
45.061996,45.18179,71,100,40
45.186996,45.30679,76,100,40
45.311996,45.43179,68,100,40
45.436996,45.55679,69,100,40
45.561996,45.68179,71,100,40
45.686996,45.80679,73,100,40
45.811996,45.93179,71,100,40
45.936996,46.05679,73,100,40
46.061996,46.18179,74,100,40
46.186996,46.30679,80,100,40
46.311996,46.43179,71,100,40
46.436996,46.55679,73,100,40
46.561996,46.68179,74,100,40
46.686996,46.80679,80,100,40
46.811996,46.93179,71,100,40
46.936996,47.05679,73,100,40
47.061996,47.18179,74,100,40
47.186996,47.30679,83,100,40
47.311996,47.43179,80,100,40
47.436996,47.55679,76,100,40
47.561996,47.68179,74,100,40
47.686996,47.80679,71,100,40
47.811996,47.93179,68,100,40
47.936996,48.05679,64,100,40
48.061996,48.18179,62,100,40
48.186996,48.30679,61,100,40
48.311996,48.43179,62,100,40
48.436996,48.55679,59,100,40
48.561996,48.68179,61,100,40
48.686996,48.80679,63,100,40
48.811996,48.93179,61,100,40
48.936996,49.05679,63,100,40
49.061996,49.18179,65,100,40
49.186996,49.30679,68,100,40
49.311996,49.43179,61,100,40
49.436996,49.55679,63,100,40
49.561996,49.68179,65,100,40
49.686996,49.80679,68,100,40
49.811996,49.93179,61,100,40
49.936996,50.05679,63,100,40
50.061996,50.18179,65,100,40
50.186996,50.30679,66,100,40
50.311996,50.43179,65,100,40
50.436996,50.55679,66,100,40
50.561996,50.68179,68,100,40
50.686996,50.80679,73,100,40
50.811996,50.93179,65,100,40
50.936996,51.05679,66,100,40
51.061996,51.18179,68,100,40
51.186996,51.30679,73,100,40
51.311996,51.43179,65,100,40
51.436996,51.55679,66,100,40
51.561996,51.68179,68,100,40
51.686996,51.80679,69,100,40
51.811996,51.93179,68,100,40
51.936996,52.05679,69,100,40
52.061996,52.18179,71,100,40
52.186996,52.30679,77,100,40
52.311996,52.43179,68,100,40
52.436996,52.55679,69,100,40
52.561996,52.68179,71,100,40
52.686996,52.80679,77,100,40
52.811996,52.93179,68,100,40
52.936996,53.05679,69,100,40
53.061996,53.18179,71,100,40
53.186996,53.30679,80,100,40
53.311996,53.43179,77,100,40
53.436996,53.55679,73,100,40
53.561996,53.68179,83,100,40
53.686996,53.80679,80,100,40
53.811996,53.93179,81,100,40
53.936996,54.05679,78,100,40
54.061996,54.18179,77,100,40
54.186996,54.30679,80,100,40
54.311996,54.43179,73,100,40
54.436996,54.55679,71,100,40
54.561996,54.68179,69,100,40
54.686996,54.80679,73,100,40
54.811996,54.93179,69,100,40
54.936996,55.05679,66,100,40
55.061996,55.18179,78,100,40
55.186996,55.30679,75,100,40
55.311996,55.43179,76,100,40
55.436996,55.55679,73,100,40
55.561996,55.68179,72,100,40
55.686996,55.80679,75,100,40
55.811996,55.93179,68,100,40
55.936996,56.05679,66,100,40
56.061996,56.18179,64,100,40
56.186996,56.30679,68,100,40
56.311996,56.43179,64,100,40
56.436996,56.55679,61,100,40
56.561996,56.68179,64,100,40
56.686996,56.80679,68,100,40
56.811996,56.93179,73,100,40
56.936996,57.05679,68,100,40
57.061996,57.18179,76,100,40
57.186996,57.30679,73,100,40
57.311996,57.43179,80,100,40
57.436996,57.55679,73,100,40
57.561996,57.68179,72,100,40
57.686996,57.80679,75,100,40
57.811996,57.93179,72,100,40
57.936996,58.05679,68,100,40
58.061996,58.18179,80,100,40
58.186996,58.30679,79,100,40
58.311996,58.43179,80,100,40
58.436996,58.55679,79,100,40
58.561996,58.68179,80,100,40
58.686996,58.80679,75,100,40
58.811996,58.93179,76,100,40
58.936996,59.05679,73,100,40
59.061996,59.18179,72,100,40
59.186996,59.30679,75,100,40
59.311996,59.43179,72,100,40
59.436996,59.55679,68,100,40
59.561996,59.68179,78,100,40
59.686996,59.80679,77,100,40
59.811996,59.93179,78,100,40
59.936996,60.05679,77,100,40
60.061996,60.18179,78,100,40
60.186996,60.30679,75,100,40
60.311996,60.43179,76,100,40
60.436996,60.55679,73,100,40
60.561996,60.68179,72,100,40
60.686996,60.80679,75,100,40
60.811996,60.93179,72,100,40
60.936996,61.05679,68,100,40
61.061996,61.18179,69,100,40
61.186996,61.30679,68,100,40
61.311996,61.43179,69,100,40
61.436996,61.55679,68,100,40
61.561996,61.68179,69,100,40
61.686996,61.80679,63,100,40
61.811996,61.93179,64,100,40
61.936996,62.05679,61,100,40
62.061996,62.18179,60,100,40
62.186996,62.30679,66,100,40
62.311996,62.43179,61,100,40
62.436996,62.55679,66,100,40
62.561996,62.68179,63,100,40
62.686996,62.80679,66,100,40
62.811996,62.93179,61,100,40
62.936996,63.05679,66,100,40
63.061996,63.192677,60,100,40
63.19836,63.32904,66,100,40
63.334724,63.478474,63,100,40
63.484722,63.62847,66,100,40
63.634724,63.765404,56,100,40
63.771088,63.901768,66,100,40
63.90745,64.027245,75,100,40
64.03245,64.152245,66,100,40
64.15745,64.277245,72,100,40
64.28245,64.402245,66,100,40
64.40745,64.527245,75,100,40
64.53245,64.652245,66,100,40
64.65745,64.777245,72,100,40
64.78245,64.902245,66,100,40
64.90745,65.027245,75,100,40
65.03245,65.152245,66,100,40
65.15745,65.277245,56,100,40
65.28245,65.402245,64,100,40
65.40745,65.527245,73,100,40
65.53245,65.652245,64,100,40
65.65745,65.777245,76,100,40
65.78245,65.902245,64,100,40
65.90745,66.027245,73,100,40
66.03245,66.152245,64,100,40
66.15745,66.277245,76,100,40
66.28245,66.402245,64,100,40
66.40745,66.527245,73,100,40
66.53245,66.652245,64,100,40
66.65745,66.777245,56,90,40
66.78245,66.902245,66,90,40
66.90745,67.027245,75,90,40
67.03245,67.152245,66,90,40
67.15745,67.277245,72,90,40
67.28245,67.402245,66,90,40
67.40745,67.527245,75,90,40
67.53245,67.652245,66,90,40
67.65745,67.777245,72,90,40
67.78245,67.902245,66,90,40
67.90745,68.027245,75,90,40
68.03245,68.152245,66,90,40
68.15745,68.277245,56,90,40
68.28245,68.402245,64,90,40
68.40745,68.527245,73,90,40
68.53245,68.652245,64,90,40
68.65745,68.777245,76,90,40
68.78245,68.902245,64,90,40
68.90745,69.027245,73,90,40
69.03245,69.152245,64,90,40
69.15745,69.277245,76,90,40
69.28245,69.402245,64,90,40
69.40745,69.527245,73,90,40
69.53245,69.652245,64,90,40
69.65745,69.777245,56,100,40
69.78245,69.902245,67,100,40
69.90745,70.027245,73,100,40
70.03245,70.152245,67,100,40
70.15745,70.277245,76,100,40
70.28245,70.402245,67,100,40
70.40745,70.527245,73,100,40
70.53245,70.652245,67,100,40
70.65745,70.777245,76,100,40
70.78245,70.902245,67,100,40
70.90745,71.027245,73,100,40
71.03245,71.152245,67,100,40
71.15745,71.277245,56,90,40
71.28245,71.402245,67,90,40
71.40745,71.527245,73,90,40
71.53245,71.652245,67,90,40
71.65745,71.777245,76,90,40
71.78245,71.902245,67,90,40
71.90745,72.027245,73,90,40
72.03245,72.152245,67,90,40
72.15745,72.277245,76,90,40
72.28245,72.402245,67,90,40
72.40745,72.527245,73,90,40
72.53245,72.652245,67,90,40
72.65745,72.777245,56,100,40
72.78245,72.902245,68,100,40
72.90745,73.027245,73,100,40
73.03245,73.152245,68,100,40
73.15745,73.277245,75,100,40
73.28245,73.402245,68,100,40
73.40745,73.527245,73,100,40
73.53245,73.652245,68,100,40
73.65745,73.777245,75,100,40
73.78245,73.902245,68,100,40
73.90745,74.027245,73,100,40
74.03245,74.152245,68,100,40
74.15745,74.277245,56,90,40
74.28245,74.402245,66,90,40
74.40745,74.527245,72,90,40
74.53245,74.652245,66,90,40
74.65745,74.777245,75,90,40
74.78245,74.902245,66,90,40
74.90745,75.027245,72,90,40
75.03245,75.152245,66,90,40
75.15745,75.28813,75,90,40
75.293816,75.42449,66,90,40
75.430176,75.57393,72,90,40
75.58018,75.72393,66,90,40
75.73018,75.860855,61,110,40
75.86654,75.99722,73,110,40
76.00291,76.122696,71,110,40
76.12791,76.247696,69,110,40
76.25291,76.372696,68,110,40
76.37791,76.497696,73,110,40
76.50291,76.622696,68,110,40
76.62791,76.747696,66,110,40
76.75291,76.872696,64,110,40
76.87791,76.997696,68,110,40
77.00291,77.122696,64,110,40
77.12791,77.247696,63,110,40
77.25291,77.372696,61,110,40
77.37791,77.497696,73,110,40
77.50291,77.622696,68,110,40
77.62791,77.747696,66,110,40
77.75291,77.872696,64,110,40
77.87791,77.997696,68,110,40
78.00291,78.122696,64,110,40
78.12791,78.247696,63,110,40
78.25291,78.372696,61,110,40
78.37791,78.497696,64,110,40
78.50291,78.622696,61,110,40
78.62791,78.747696,59,110,40
78.75291,78.872696,58,110,40
78.87791,78.997696,66,100,40
79.00291,79.122696,73,100,40
79.12791,79.247696,66,100,40
79.25291,79.372696,76,100,40
79.37791,79.497696,66,100,40
79.50291,79.622696,73,100,40
79.62791,79.747696,66,100,40
79.75291,79.872696,76,100,40
79.87791,79.997696,66,100,40
80.00291,80.122696,73,100,40
80.12791,80.247696,66,100,40
80.25291,80.372696,58,100,40
80.37791,80.497696,66,100,40
80.50291,80.622696,76,100,40
80.62791,80.747696,66,100,40
80.75291,80.872696,73,100,40
80.87791,80.997696,66,100,40
81.00291,81.122696,76,100,40
81.12791,81.247696,66,100,40
81.25291,81.38358,73,100,40
81.38927,81.51995,66,100,40
81.525635,81.66938,76,100,40
81.67563,81.81938,66,100,40
81.82563,81.956314,59,100,40
81.962,82.092674,83,100,40
82.09836,82.21815,82,100,40
82.22336,82.34315,80,100,40
82.34836,82.46815,78,100,40
82.47336,82.59315,83,100,40
82.59836,82.71815,78,100,40
82.72336,82.84315,76,100,40
82.84836,82.96815,75,100,40
82.97336,83.09315,78,100,40
83.09836,83.21815,75,100,40
83.22336,83.34315,73,100,40
83.34836,83.46815,71,100,40
83.47336,83.59315,83,100,40
83.59836,83.71815,78,100,40
83.72336,83.84315,76,100,40
83.84836,83.96815,75,100,40
83.97336,84.09315,78,100,40
84.09836,84.21815,75,100,40
84.22336,84.34315,73,100,40
84.34836,84.46815,71,100,40
84.47336,84.59315,75,100,40
84.59836,84.71815,71,100,40
84.72336,84.84315,69,100,40
84.84836,84.96815,68,100,40
84.97336,85.09315,74,100,40
85.09836,85.21815,76,100,40
85.22336,85.34315,74,100,40
85.34836,85.46815,80,100,40
85.47336,85.59315,74,100,40
85.59836,85.71815,83,100,40
85.72336,85.84315,74,100,40
85.84836,85.96815,80,100,40
85.97336,86.09315,74,100,40
86.09836,86.21815,76,100,40
86.22336,86.34315,74,100,40
86.34836,86.46815,68,100,40
86.47336,86.59315,74,100,40
86.59836,86.71815,76,100,40
86.72336,86.84315,74,100,40
86.84836,86.96815,68,100,40
86.97336,87.09315,74,100,40
87.09836,87.21815,66,100,40
87.22336,87.34315,74,100,40
87.34836,87.46815,68,100,40
87.47336,87.59315,74,100,40
87.59836,87.71815,64,100,40
87.72336,87.84315,74,100,40
87.84836,87.96815,73,100,40
87.97336,88.09315,76,100,40
88.09836,88.21815,81,100,40
88.22336,88.34315,80,100,40
88.34836,88.46815,81,100,40
88.47336,88.59315,76,100,40
88.59836,88.71815,74,100,40
88.72336,88.84315,76,100,40
88.84836,88.96815,73,100,40
88.97336,89.09315,76,100,40
89.09836,89.21815,71,100,40
89.22336,89.34315,76,100,40
89.34836,89.46815,69,100,40
89.47336,89.59315,81,100,40
89.59836,89.71815,80,100,40
89.72336,89.84315,78,100,40
89.84836,89.96815,76,100,40
89.97336,90.09315,69,100,40
90.09836,90.21815,78,100,40
90.22336,90.34315,69,100,40
90.34836,90.46815,76,100,40
90.47336,90.59315,69,100,40
90.59836,90.71815,74,100,40
90.72336,90.84315,69,100,40
90.84836,90.96815,73,100,40
90.97336,91.09315,76,90,40
91.09836,91.21815,71,90,40
91.22336,91.34315,76,90,40
91.34836,91.46815,73,90,40
91.47336,91.59315,76,90,40
91.59836,91.71815,74,90,40
91.72336,91.84315,76,90,40
91.84836,91.96815,73,90,40
91.97336,92.09315,76,90,40
92.09836,92.21815,71,90,40
92.22336,92.34315,76,90,40
92.34836,92.46815,69,90,40
92.47336,92.59315,81,90,40
92.59836,92.71815,80,90,40
92.72336,92.84315,78,90,40
92.84836,92.96815,76,90,40
92.97336,93.09315,69,90,40
93.09836,93.21815,78,90,40
93.22336,93.34315,69,90,40
93.34836,93.47904,76,90,40
93.48472,93.6154,69,90,40
93.621086,93.76483,74,90,40
93.77109,93.91483,69,90,40
93.92108,94.051765,73,100,40
94.05745,94.31361,69,100,40
94.31881,94.56361,69,100,40
94.56881,94.81361,69,100,40
94.81881,95.06361,69,100,40
95.06881,95.31361,69,100,40
95.31881,95.56361,69,100,40
95.56881,95.81361,69,100,40
95.81881,96.06361,69,100,40
96.06881,96.31361,69,100,40
96.31881,96.56361,69,100,40
96.56881,96.81361,69,100,40
96.81881,97.06361,69,100,40
97.06881,97.31361,69,100,40
97.31881,97.56361,69,100,40
97.56881,97.81361,69,100,40
97.81881,98.06361,69,100,40
98.06881,98.31361,69,100,40
98.31881,98.56361,69,100,40
98.56881,98.81361,69,100,40
98.81881,99.06361,69,100,40
99.06881,99.31361,69,100,40
99.31881,99.56361,69,100,40
99.56881,99.81361,69,100,40
99.81881,100.06361,69,100,40
100.06881,100.31361,69,100,40
100.56881,100.81361,69,100,40
101.06881,101.31361,69,100,40
101.56881,101.81361,69,100,40
102.06881,102.31361,69,100,40
102.56881,102.81361,69,100,40
103.06881,103.31361,69,100,40
103.56881,103.81361,69,100,40
104.06881,104.31361,69,100,40
104.56881,104.81361,69,100,40
105.06881,105.31361,69,100,40
105.56881,105.81361,69,100,40
106.06881,106.31361,69,100,40
106.56881,106.81361,69,100,40
107.06881,107.31361,69,100,40
107.56881,107.81361,69,100,40
108.06881,108.31361,69,100,40
108.56881,108.81361,69,100,40
109.06881,109.31361,69,100,40
109.56881,109.81361,69,100,40
110.06881,110.31361,69,100,40
110.56881,110.81361,69,100,40
111.06881,111.31361,69,100,40
111.56881,111.81361,69,100,40
112.06881,112.31361,69,100,40
112.56881,112.81361,69,100,40
113.06881,113.31361,69,100,40
113.56881,113.81361,69,100,40
114.06881,114.31361,69,100,40
114.56881,114.81361,69,100,40
115.06881,115.31361,69,100,40
115.56881,115.81361,69,100,40
116.06881,116.31361,69,100,40
116.57425,116.82968,69,100,40
117.10191,117.36896,69,100,40
117.65386,117.94047,69,100,40
118.09672,118.24047,57,100,40
118.24672,118.39047,59,100,40
118.39672,118.5274,57,100,40
118.53308,118.663765,59,100,40
118.66945,118.78924,61,100,40
118.79445,118.91424,64,100,40
118.91945,119.03924,57,100,40
119.04445,119.16424,59,100,40
119.16945,119.28924,61,100,40
119.29445,119.41424,64,100,40
119.41945,119.53924,57,100,40
119.54445,119.66424,59,100,40
119.66945,119.78924,61,100,40
119.79445,119.91424,62,100,40
119.91945,120.03924,61,100,40
120.04445,120.16424,62,100,40
120.16945,120.28924,64,100,40
120.29445,120.41424,69,100,40
120.41945,120.53924,61,100,40
120.54445,120.66424,62,100,40
120.66945,120.78924,64,100,40
120.79445,120.91424,69,100,40
120.91945,121.03924,61,100,40
121.04445,121.16424,62,100,40
121.16945,121.28924,64,100,40
121.29445,121.41424,66,100,40
121.41945,121.53924,64,100,40
121.54445,121.66424,66,100,40
121.66945,121.78924,67,100,40
121.79445,121.91424,73,100,40
121.91945,122.03924,64,100,40
122.04445,122.16424,66,100,40
122.16945,122.28924,67,100,40
122.29445,122.41424,73,100,40
122.41945,122.53924,64,100,40
122.54445,122.66424,66,100,40
122.66945,122.78924,67,100,40
122.79445,122.91424,76,100,40
122.91945,123.03924,73,100,40
123.04445,123.16424,74,100,40
123.16945,123.28924,76,100,40
123.29445,123.41424,73,100,40
123.41945,123.53924,70,100,40
123.54445,123.66424,71,100,40
123.66945,123.78924,73,100,40
123.79445,123.91424,70,100,40
123.91945,124.03924,66,100,40
124.04445,124.16424,64,100,40
124.16945,124.28924,62,100,40
124.29445,124.41424,61,100,40
124.41945,124.53924,59,100,40
124.54445,124.66424,61,100,40
124.66945,124.78924,62,100,40
124.79445,124.91424,66,100,40
124.91945,125.03924,59,100,40
125.04445,125.16424,61,100,40
125.16945,125.28924,62,100,40
125.29445,125.41424,66,100,40
125.41945,125.53924,59,100,40
125.54445,125.66424,61,100,40
125.66945,125.78924,62,100,40
125.79445,125.91424,64,100,40
125.91945,126.03924,62,100,40
126.04445,126.16424,64,100,40
126.16945,126.28924,66,100,40
126.29445,126.41424,71,100,40
126.41945,126.53924,62,100,40
126.54445,126.66424,64,100,40
126.66945,126.78924,66,100,40
126.79445,126.91424,71,100,40
126.91945,127.03924,62,100,40
127.04445,127.16424,64,100,40
127.16945,127.28924,66,100,40
127.29445,127.41424,68,100,40
127.41945,127.53924,66,100,40
127.54445,127.66424,68,100,40
127.66945,127.78924,69,100,40
127.79445,127.91424,75,100,40
127.91945,128.03923,66,100,40
128.04445,128.16423,68,100,40
128.16945,128.28923,69,100,40
128.29445,128.41423,75,100,40
128.41945,128.53923,66,100,40
128.54445,128.66423,68,100,40
128.66945,128.78923,69,100,40
128.79445,128.91423,78,100,40
128.91945,129.03923,75,100,40
129.04445,129.16423,76,100,40
129.16945,129.28923,78,100,40
129.29445,129.41423,75,100,40
129.41945,129.53923,72,100,40
129.54445,129.66423,73,100,40
129.66945,129.78923,75,100,40
129.79445,129.91423,72,100,40
129.91945,130.03923,68,100,40
130.04445,130.16423,66,100,40
130.16945,130.28923,65,100,40
130.29445,130.41423,83,100,40
130.41945,130.53923,80,100,40
130.54445,130.66423,81,100,40
130.66945,130.78923,83,100,40
130.79445,130.91423,80,100,40
130.91945,131.03923,77,100,40
131.04445,131.16423,78,100,40
131.16945,131.28923,80,100,40
131.29445,131.41423,77,100,40
131.41945,131.53923,73,100,40
131.54445,131.66423,71,100,40
131.66945,131.78923,69,100,40
131.79445,131.91423,85,100,40
131.91945,132.03923,81,100,40
132.04445,132.16423,83,100,40
132.16945,132.28923,85,100,40
132.29445,132.41423,81,100,40
132.41945,132.53923,78,100,40
132.54445,132.66423,80,100,40
132.66945,132.78923,81,100,40
132.79445,132.91423,78,100,40
132.91945,133.03923,74,100,40
133.04445,133.16423,73,100,40
133.16945,133.28923,71,100,40
133.29445,133.41423,86,100,40
133.41945,133.53923,83,100,40
133.54445,133.66423,85,100,40
133.66945,133.78923,86,100,40
133.79445,133.91423,83,100,40
133.91945,134.03923,80,100,40
134.04445,134.16423,81,100,40
134.16945,134.28923,83,100,40
134.29445,134.41423,80,100,40
134.41945,134.53923,77,100,40
134.54445,134.66423,80,100,40
134.66945,134.78923,73,100,40
134.79445,134.91423,75,100,40
134.91945,135.03923,73,100,40
135.04445,135.16423,75,100,40
135.16945,135.28923,77,100,40
135.29445,135.41423,80,100,40
135.41945,135.53923,73,100,40
135.54445,135.66423,75,100,40
135.66945,135.78923,77,100,40
135.79445,135.91423,80,100,40
135.91945,136.03923,73,100,40
136.04445,136.16423,75,100,40
136.16945,136.28923,77,100,40
136.29445,136.41423,78,100,40
136.41945,136.53923,77,100,40
136.54445,136.66423,78,100,40
136.66945,136.78923,80,100,40
136.79445,136.91423,83,100,40
136.91945,137.03923,77,100,40
137.04445,137.16423,78,100,40
137.16945,137.28923,80,100,40
137.29445,137.41423,83,100,40
137.41945,137.53923,77,100,40
137.54445,137.66423,78,100,40
137.66945,137.78923,80,100,40
137.79445,137.91423,81,100,40
137.91945,138.03923,80,100,40
138.04445,138.16423,81,100,40
138.16945,138.28923,83,100,40
138.29445,138.41423,86,100,40
138.41945,138.53923,80,100,40
138.54445,138.66423,81,100,40
138.66945,138.78923,83,100,40
138.79445,138.91423,86,100,40
138.91945,139.03923,80,100,40
139.04445,139.16423,81,100,40
139.16945,139.28923,83,100,40
139.29445,139.41423,86,100,40
139.41945,139.53923,83,100,40
139.54445,139.66423,80,100,40
139.66945,139.78923,77,100,40
139.79445,139.91423,83,100,40
139.91945,140.03923,80,100,40
140.04445,140.16423,77,100,40
140.16945,140.28923,73,100,40
140.29445,140.41423,83,100,40
140.41945,140.53923,81,100,40
140.54445,140.66423,80,100,40
140.66945,140.78923,78,100,40
140.79445,140.91423,80,100,40
140.91945,141.03923,81,100,40
141.04445,141.16423,78,100,40
141.16945,141.28923,71,100,40
141.29445,141.41423,81,100,40
141.41945,141.53923,80,100,40
141.54445,141.66423,78,100,40
141.66945,141.78923,73,100,40
141.79445,141.91423,80,100,40
141.91945,142.03923,78,100,40
142.04445,142.16423,77,100,40
142.16945,142.28923,74,100,40
142.29445,142.41423,76,100,40
142.41945,142.53923,78,100,40
142.54445,142.66423,74,100,40
142.66945,142.78923,68,100,40
142.79445,142.91423,78,100,40
142.91945,143.03923,76,100,40
143.04445,143.16423,74,100,40
143.16945,143.28923,70,100,40
143.29445,143.41423,76,100,40
143.41945,143.53923,74,100,40
143.54445,143.66423,73,100,40
143.66945,143.78923,71,100,40
143.79445,143.91423,73,100,40
143.91945,144.03923,74,100,40
144.04445,144.16423,71,100,40
144.16945,144.28923,65,100,40
144.29445,144.41423,74,100,40
144.41945,144.53923,73,100,40
144.54445,144.66423,71,100,40
144.66945,144.78923,66,100,40
144.79445,144.91423,73,100,40
144.91945,145.03923,71,100,40
145.04445,145.16423,69,100,40
145.16945,145.28923,68,100,40
145.29445,145.41423,69,100,40
145.41945,145.53923,71,100,40
145.54445,145.66423,69,100,40
145.66945,145.78923,68,100,40
145.79445,145.91423,71,100,40
145.91945,146.03923,69,100,40
146.04445,146.16423,71,100,40
146.16945,146.28923,68,100,40
146.29445,146.41423,71,100,40
146.41945,146.53923,66,100,40
146.54445,146.66423,71,100,40
146.66945,146.78923,65,100,40
146.79445,146.91423,66,100,40
146.91945,147.03923,68,100,40
147.04445,147.16423,69,100,40
147.16945,147.28923,71,100,40
147.29445,147.41423,65,100,40
147.41945,147.53923,74,100,40
147.54445,147.66423,65,100,40
147.66945,147.78923,73,100,40
147.79445,147.91423,65,100,40
147.91945,148.03923,71,100,40
148.04445,148.16423,65,100,40
148.16945,148.28923,66,100,40
148.29445,148.41423,69,100,40
148.41945,148.53923,66,100,40
148.54445,148.66423,61,100,40
148.66945,148.78923,57,100,40
148.79445,148.91423,61,100,40
148.91945,149.03923,66,100,40
149.04445,149.16423,61,100,40
149.16945,149.28923,69,100,40
149.29445,149.41423,61,100,40
149.41945,149.53923,66,100,40
149.54445,149.66423,61,100,40
149.66945,149.78923,65,100,40
149.79445,149.91423,68,100,40
149.91945,150.03923,65,100,40
150.04445,150.16423,61,100,40
150.16945,150.28923,65,100,40
150.29445,150.41423,68,100,40
150.41945,150.53923,73,100,40
150.54445,150.66423,68,100,40
150.66945,150.78923,77,100,40
150.79445,150.91423,73,100,40
150.91945,151.03923,80,100,40
151.04445,151.16423,71,100,40
151.16945,151.28923,69,100,40
151.29445,151.41423,73,100,40
151.41945,151.53923,69,100,40
151.54445,151.66423,66,100,40
151.66945,151.78923,69,100,40
151.79445,151.91423,73,100,40
151.91945,152.03923,78,100,40
152.04445,152.16423,73,100,40
152.16945,152.28923,81,100,40
152.29445,152.41423,78,100,40
152.41945,152.53923,85,100,40
152.54445,152.66423,78,100,40
152.66945,152.78923,77,100,40
152.79445,152.91423,80,100,40
152.91945,153.03923,77,100,40
153.04445,153.16423,73,100,40
153.16945,153.28923,85,100,40
153.29445,153.41423,84,100,40
153.41945,153.53923,85,100,40
153.54445,153.66423,84,100,40
153.66945,153.78923,85,100,40
153.79445,153.91423,80,100,40
153.91945,154.03923,81,100,40
154.04445,154.16423,78,100,40
154.16945,154.28923,77,100,40
154.29445,154.41423,80,100,40
154.41945,154.53923,77,100,40
154.54445,154.66423,73,100,40
154.66945,154.78923,83,100,40
154.79445,154.91423,82,100,40
154.91945,155.03923,83,100,40
155.04445,155.16423,82,100,40
155.16945,155.28923,83,100,40
155.29445,155.41423,80,100,40
155.41945,155.53923,81,100,40
155.54445,155.66423,78,100,40
155.66945,155.78923,77,100,40
155.79445,155.91423,80,100,40
155.91945,156.03923,77,100,40
156.04445,156.16423,73,100,40
156.16945,156.28923,74,100,40
156.29445,156.41423,73,100,40
156.41945,156.53923,74,100,40
156.54445,156.66423,73,100,40
156.66945,156.78923,74,100,40
156.79445,156.91423,68,100,40
156.91945,157.03923,69,100,40
157.04445,157.16423,66,100,40
157.16945,157.28923,65,100,40
157.29445,157.41423,68,100,40
157.41945,157.53923,73,100,40
157.54445,157.66423,83,100,40
157.66945,157.78923,83,100,40
157.79445,157.91423,80,100,40
157.91945,158.03923,81,100,40
158.04445,158.16423,78,100,40
158.16945,158.28923,77,100,40
158.29445,158.41423,80,100,40
158.41945,158.53923,73,100,40
158.54445,158.66423,71,100,40
158.66945,158.78923,69,100,40
158.79445,158.91423,73,100,40
158.91945,159.03923,78,100,40
159.04445,159.16423,85,100,40
159.16945,159.28923,85,100,40
159.29445,159.41423,81,100,40
159.41945,159.53923,83,100,40
159.54445,159.66423,80,100,40
159.66945,159.78923,78,100,40
159.79445,159.91423,81,100,40
159.91945,160.03923,74,100,40
160.04445,160.16423,73,100,40
160.16945,160.28923,71,100,40
160.29445,160.41423,74,100,40
160.41945,160.53923,67,100,40
160.54445,160.66423,66,100,40
160.66945,160.78923,65,100,40
160.79445,160.91423,68,100,40
160.91945,161.03923,61,100,40
161.04445,161.16423,59,100,40
161.16945,161.28923,57,100,40
161.29445,161.41423,61,100,40
161.41945,161.53923,66,100,40
161.54445,161.66423,68,100,40
161.66945,161.78923,69,100,40
161.79445,161.91423,66,100,40
161.91945,162.03923,71,100,40
162.04445,162.16423,66,100,40
162.16945,162.28923,73,100,40
162.29445,162.41423,66,100,40
162.41945,162.53923,74,100,40
162.54445,162.66423,66,100,40
162.66945,162.80013,61,100,40
162.80582,162.9365,66,100,40
162.94217,163.08592,68,100,40
163.09218,163.23592,65,100,40
163.24217,163.38593,66,100,40
163.39217,163.53592,69,100,40
163.54218,163.66197,68,100,40
163.66718,163.78697,69,100,40
163.79218,163.91197,69,100,40
163.91718,164.03697,69,100,40
164.04218,164.16197,68,100,40
164.16718,164.28697,69,100,40
164.29218,164.41197,66,100,40
164.41718,164.53697,69,100,40
164.54218,164.66197,64,100,40
164.66718,164.78697,69,100,40
164.79218,164.91197,63,100,40
164.91718,165.03697,69,100,40
165.04218,165.16197,64,100,40
165.16718,165.28697,69,100,40
165.29218,165.41197,66,100,40
165.41718,165.53697,69,100,40
165.54218,165.66197,68,100,40
165.66718,165.78697,69,100,40
165.79218,165.91197,69,100,40
165.91718,166.03697,69,100,40
166.04218,166.16197,66,100,40
166.16718,166.28697,69,100,40
166.29218,166.41197,68,100,40
166.41718,166.53697,69,100,40
166.54218,166.66197,68,100,40
166.66718,166.78697,66,100,40
166.79218,166.91197,64,100,40
166.91718,167.03697,76,100,40
167.04218,167.16197,75,100,40
167.16718,167.28697,76,100,40
167.29218,167.41197,73,100,40
167.41718,167.53697,76,100,40
167.54218,167.66197,71,100,40
167.66718,167.78697,76,100,40
167.79218,167.91197,70,100,40
167.91718,168.03697,76,100,40
168.04218,168.16197,71,100,40
168.16718,168.28697,76,100,40
168.29218,168.41197,73,100,40
168.41718,168.53697,76,100,40
168.54218,168.66197,75,100,40
168.66718,168.78697,76,100,40
168.79218,168.91197,76,100,40
168.91718,169.03697,76,100,40
169.04218,169.16197,73,100,40
169.16718,169.28697,76,100,40
169.29218,169.41197,75,100,40
169.41718,169.53697,76,100,40
169.54218,169.66197,75,100,40
169.66718,169.78697,73,100,40
169.79218,169.91197,71,100,40
169.91718,170.03697,73,100,40
170.04218,170.16197,75,100,40
170.16718,170.28697,76,100,40
170.29218,170.41197,78,100,40
170.41718,170.53697,80,100,40
170.54218,170.66197,81,100,40
170.66718,170.78697,78,100,40
170.79218,170.91197,83,100,40
170.91718,171.03697,71,100,40
171.04218,171.16197,69,100,40
171.16718,171.28697,71,100,40
171.29218,171.41197,68,100,40
171.41718,171.53697,71,100,40
171.54218,171.66197,66,100,40
171.66718,171.78697,71,100,40
171.79218,171.91197,64,100,40
171.91718,172.03697,71,100,40
172.04218,172.16197,62,100,40
172.16718,172.28697,71,100,40
172.29218,172.41197,61,100,40
172.41718,172.53697,64,100,40
172.54218,172.66197,66,100,40
172.66718,172.78697,68,100,40
172.79218,172.91197,69,100,40
172.91718,173.03697,71,100,40
173.04218,173.16197,73,100,40
173.16718,173.28697,74,100,40
173.29218,173.41197,76,100,40
173.41718,173.53697,78,100,40
173.54218,173.66197,80,100,40
173.66718,173.78697,76,100,40
173.79218,173.91197,81,100,40
173.91718,174.03697,69,100,40
174.04218,174.16197,68,100,40
174.16718,174.28697,69,100,40
174.29218,174.41197,66,100,40
174.41718,174.53697,69,100,40
174.54218,174.66197,64,100,40
174.66718,174.78697,69,100,40
174.79218,174.91197,63,100,40
174.91718,175.03697,69,100,40
175.04218,175.16197,61,100,40
175.16718,175.28697,69,100,40
175.29218,175.41197,59,100,40
175.41718,175.53697,63,100,40
175.54218,175.66197,64,100,40
175.66718,175.78697,66,100,40
175.79218,175.91197,68,100,40
175.91718,176.03697,69,100,40
176.04218,176.16197,71,100,40
176.16718,176.28697,73,100,40
176.29218,176.41197,75,100,40
176.41718,176.53697,76,100,40
176.54218,176.66197,78,100,40
176.66718,176.78697,75,100,40
176.79218,176.91197,80,100,40
176.91718,177.03697,64,100,40
177.04218,177.16197,62,100,40
177.16718,177.28697,64,100,40
177.29218,177.41197,61,100,40
177.41718,177.53697,64,100,40
177.54218,177.66197,59,100,40
177.66718,177.78697,64,100,40
177.79218,177.92285,57,100,40
177.92854,178.05922,64,100,40
178.0649,178.20865,56,100,40
178.2149,178.35864,64,100,40
178.3649,178.50865,57,100,40
178.5149,178.65865,64,100,40
178.6649,178.7847,73,100,40
178.7899,178.9097,71,100,40
178.9149,179.0347,73,100,40
179.0399,179.1597,76,100,40
179.1649,179.2847,81,100,40
179.2899,179.4097,80,100,40
179.4149,179.5347,81,100,40
179.5399,179.6597,78,100,40
179.6649,179.7847,73,100,40
179.7899,179.9097,76,100,40
179.9149,180.0347,59,100,40
180.0399,180.1597,66,100,40
180.1649,180.2847,75,100,40
180.2899,180.4097,73,100,40
180.4149,180.5347,75,100,40
180.5399,180.6597,78,100,40
180.6649,180.7847,81,100,40
180.7899,180.9097,80,100,40
180.9149,181.0347,81,100,40
181.0399,181.1597,78,100,40
181.1649,181.2847,75,100,40
181.2899,181.4097,78,100,40
181.4149,181.5347,59,100,40
181.5399,181.6597,68,100,40
181.6649,181.7847,71,100,40
181.7899,181.9097,69,100,40
181.9149,182.0347,71,100,40
182.0399,182.1597,76,100,40
182.1649,182.2847,80,100,40
182.2899,182.4097,78,100,40
182.4149,182.5347,80,100,40
182.5399,182.6597,76,100,40
182.6649,182.7847,71,100,40
182.7899,182.9097,76,100,40
182.9149,183.0347,59,100,40
183.0399,183.1597,70,100,40
183.1649,183.2847,73,100,40
183.2899,183.4097,71,100,40
183.4149,183.5347,73,100,40
183.5399,183.6597,76,100,40
183.6649,183.7847,82,100,40
183.7899,183.9097,80,100,40
183.9149,184.04558,82,100,40
184.05127,184.18195,76,100,40
184.18762,184.33138,73,100,40
184.33763,184.48138,76,100,40
184.48763,184.63138,75,100,40
184.63763,184.78137,83,100,40
184.78763,184.90742,82,100,40
184.91263,185.03242,80,100,40
185.03763,185.15742,78,100,40
185.16263,185.28242,83,100,40
185.28763,185.40742,78,100,40
185.41263,185.53242,76,100,40
185.53763,185.65742,75,100,40
185.66263,185.78242,78,100,40
185.78763,185.90742,75,100,40
185.91263,186.03242,73,100,40
186.03763,186.15742,71,100,40
186.16263,186.28242,83,100,40
186.28763,186.40742,81,100,40
186.41263,186.53242,80,100,40
186.53763,186.65742,78,100,40
186.66263,186.78242,81,100,40
186.78763,186.90742,78,100,40
186.91263,187.03242,76,100,40
187.03763,187.15742,75,100,40
187.16263,187.28242,78,100,40
187.28763,187.40742,75,100,40
187.41263,187.53242,73,100,40
187.53763,187.65742,71,100,40
187.66263,187.78242,81,100,40
187.78763,187.90742,80,100,40
187.91263,188.03242,78,100,40
188.03763,188.15742,76,100,40
188.16263,188.28242,80,100,40
188.28763,188.40742,76,100,40
188.41263,188.53242,75,100,40
188.53763,188.65742,73,100,40
188.66263,188.78242,76,100,40
188.78763,188.90742,73,100,40
188.91263,189.03242,71,100,40
189.03763,189.15742,69,100,40
189.16263,189.28242,80,100,40
189.28763,189.40742,78,100,40
189.41263,189.53242,76,100,40
189.53763,189.65742,75,100,40
189.66263,189.78242,78,100,40
189.78763,189.90742,75,100,40
189.91263,190.03242,73,100,40
190.03763,190.15742,71,100,40
190.16263,190.28242,75,100,40
190.28763,190.40742,71,100,40
190.41263,190.53242,69,100,40
190.53763,190.65742,68,100,40
190.66263,190.78242,76,100,40
190.78763,190.90742,73,100,40
190.91263,191.03242,71,100,40
191.03763,191.15742,69,100,40
191.16263,191.28242,73,100,40
191.28763,191.40742,69,100,40
191.41263,191.53242,68,100,40
191.53763,191.65742,66,100,40
191.66263,191.78242,69,100,40
191.78763,191.90742,66,100,40
191.91263,192.03242,64,100,40
192.03763,192.15742,63,100,40
192.16263,192.28242,66,100,40
192.28763,192.40742,69,100,40
192.41263,192.53242,73,100,40
192.53763,192.65742,71,100,40
192.66263,192.78242,75,100,40
192.78763,192.90742,78,100,40
192.91263,193.03242,81,100,40
193.03763,193.15742,81,100,40
193.16263,193.28242,80,100,40
193.28763,193.40742,81,100,40
193.41263,193.53242,78,100,40
193.53763,193.65742,80,100,40
193.66263,193.78242,76,100,40
193.78763,193.90742,80,100,40
193.91263,194.03242,83,100,40
194.03763,194.16263,88,100,40
194.16806,194.29306,83,100,40
194.2985,194.4235,80,100,40
194.42892,194.55392,76,100,40
194.55937,194.69005,71,100,40
194.69572,194.82642,78,100,40
194.83209,194.97585,88,100,40
194.98209,195.12584,87,100,40
195.1321,195.27585,88,100,40
195.28209,195.42584,83,100,40
195.4321,195.55188,80,100,40
195.5571,195.67688,76,100,40
195.6821,195.80188,74,100,40
195.8071,195.92688,76,100,40
195.9321,196.05188,73,100,40
196.0571,196.17688,76,100,40
196.1821,196.30188,74,100,40
196.3071,196.42688,76,100,40
196.4321,196.55188,71,100,40
196.5571,196.67688,76,100,40
196.6821,196.80188,73,100,40
196.8071,196.92688,76,100,40
196.9321,197.05188,81,100,40
197.0571,197.17688,76,100,40
197.1821,197.30188,73,100,40
197.3071,197.42688,76,100,40
197.4321,197.55188,71,100,40
197.5571,197.67688,76,100,40
197.6821,197.80188,73,100,40
197.8071,197.92688,76,100,40
197.9321,198.05188,69,100,40
198.0571,198.17688,76,100,40
198.1821,198.30188,71,100,40
198.3071,198.42688,76,100,40
198.4321,198.55188,80,100,40
198.5571,198.67688,76,100,40
198.6821,198.80188,71,100,40
198.8071,198.92688,76,100,40
198.9321,199.05188,69,100,40
199.0571,199.17688,76,100,40
199.1821,199.30188,71,100,40
199.3071,199.42688,76,100,40
199.4321,199.55188,68,100,40
199.5571,199.67688,76,100,40
199.6821,199.80188,69,100,40
199.8071,199.92688,76,100,40
199.9321,200.0571,78,100,40
200.06253,200.18753,76,100,40
200.19296,200.32364,75,100,40
200.32933,200.46,76,100,40
200.46568,200.75945,76,100,40
200.76569,200.92542,78,100,40
200.93236,201.09207,76,100,40
201.09903,201.27872,80,100,40
201.28653,201.46622,76,100,40
201.47403,202.59122,81,100,40
201.47403,202.59122,75,100,40
202.59903,202.96622,83,100,40
202.97403,203.71622,80,100,40
202.97403,203.71622,71,100,40
203.72403,203.90372,57,100,40
203.91153,204.09122,81,100,40
204.09903,204.27872,80,100,40
204.28653,204.37247,81,100,40
204.38028,204.46622,78,100,40
204.47403,205.59122,78,100,40
205.59903,205.96622,76,100,40
205.97403,206.09381,76,100,40
206.09903,206.21881,88,100,40
206.22403,206.34381,87,100,40
206.34903,206.46881,85,100,40
206.47403,206.59381,83,100,40
206.59903,206.71881,88,100,40
206.72403,206.84381,81,100,40
206.84903,206.96881,88,100,40
206.97403,207.09381,80,100,40
207.09903,207.21881,88,100,40
207.22403,207.34381,78,100,40
207.34903,207.46881,88,100,40
207.47403,207.59381,76,100,40
207.59903,207.71881,76,100,40
207.72403,207.84381,75,100,40
207.84903,207.96881,73,100,40
207.97403,208.09381,71,100,40
208.09903,208.21881,76,100,40
208.22403,208.34381,69,100,40
208.34903,208.46881,76,100,40
208.47403,208.6047,68,100,40
208.61038,208.74107,76,100,40
208.74675,208.8905,66,100,40
208.89674,209.0405,76,100,40
209.04675,209.1905,64,100,40
209.19675,209.3405,68,100,40
209.34676,209.47743,71,100,40
209.48311,209.6138,75,100,40
209.61948,209.75015,76,100,40
209.75584,209.88652,80,100,40
209.8922,210.03595,83,100,40
210.0422,210.2219,87,100,40
210.2297,210.9719,88,100,40
212.8547,213.2219,64,1,40
18.886362,19.131153,75,100,41
19.136362,19.381153,76,100,41
19.386362,19.631153,78,100,41
19.636362,19.881153,75,100,41
19.886362,20.131153,76,100,41
20.136362,20.381153,80,100,41
20.386362,20.631153,78,100,41
20.636362,20.881153,80,100,41
20.886362,21.131153,81,100,41
21.136362,21.381153,78,100,41
21.386362,21.631153,80,90,41
21.636362,21.881153,76,90,41
21.886362,22.131153,75,90,41
22.136362,22.381153,76,90,41
22.386362,22.631153,78,90,41
22.636362,22.881153,75,90,41
22.886362,23.131153,76,90,41
23.136362,23.381153,80,90,41
23.386362,23.631153,78,90,41
23.636362,23.881153,80,90,41
23.886362,24.131153,81,90,41
24.136362,24.381153,78,90,41
24.386362,24.631153,80,90,41
24.636362,24.756153,80,100,41
24.761362,24.881153,76,100,41
24.886362,25.131153,80,100,41
25.136362,25.256153,80,100,41
25.261362,25.381153,76,100,41
25.386362,25.631153,80,100,41
25.636362,25.756153,80,100,41
25.761362,25.881153,76,100,41
25.886362,26.131153,80,100,41
26.136362,26.256153,80,100,41
26.261362,26.381153,75,100,41
26.386362,26.631153,80,100,41
26.636362,26.756153,80,100,41
26.761362,26.881153,75,100,41
26.886362,27.131153,80,100,41
27.136362,27.256153,80,100,41
27.261362,27.381153,75,100,41
27.386362,27.631153,80,100,41
27.636362,27.756153,80,100,41
27.761362,27.881153,74,100,41
27.886362,28.131153,80,100,41
28.136362,28.256153,80,100,41
28.261362,28.381153,74,100,41
28.386362,28.631153,80,100,41
28.636362,28.756153,80,100,41
28.761362,28.881153,74,100,41
28.886362,29.131153,81,100,41
29.136362,29.256153,81,100,41
29.261362,29.381153,73,100,41
29.386362,29.631153,81,100,41
29.636362,29.756153,81,100,41
29.761362,29.881153,73,100,41
29.886362,30.131153,81,100,41
30.136362,30.256153,81,100,41
30.261362,30.381153,73,100,41
30.386362,30.631153,81,100,41
30.636362,30.756153,81,100,41
30.761362,30.881153,71,100,41
30.886362,31.131153,81,100,41
31.136362,31.256153,81,100,41
31.261362,31.381153,71,100,41
31.386362,31.631153,81,100,41
31.636362,31.756153,81,100,41
31.761362,31.881153,71,100,41
31.886362,32.131153,80,100,41
32.13636,32.256153,80,100,41
32.26136,32.381153,71,100,41
32.38636,32.631153,80,100,41
32.63636,32.756153,80,100,41
32.76136,32.881153,71,100,41
32.88636,33.131153,80,100,41
33.13636,33.256153,80,100,41
33.26136,33.381153,71,100,41
33.38636,33.631153,80,100,41
33.63636,33.756153,80,100,41
33.76136,33.881153,69,100,41
33.88636,34.131153,80,100,41
34.13636,34.256153,80,100,41
34.26136,34.381153,69,100,41
34.38636,34.631153,80,100,41
34.63636,34.756153,80,100,41
34.76136,34.881153,69,100,41
34.88636,35.131153,78,100,41
35.13636,35.256153,78,100,41
35.26136,35.381153,69,100,41
35.38636,35.631153,78,100,41
35.63636,35.756153,78,100,41
35.76136,35.881153,69,100,41
35.88636,36.131153,78,100,41
36.13636,36.256153,78,100,41
36.26136,36.381153,69,100,41
36.38636,36.631153,78,100,41
36.63636,36.756153,78,100,41
36.76136,36.881153,68,100,41
36.88636,37.131153,78,100,41
37.13636,37.256153,78,100,41
37.26136,37.381153,68,100,41
37.38636,37.631153,78,100,41
37.63636,37.756153,78,100,41
37.76136,37.881153,68,100,41
37.88636,38.131153,76,100,41
38.13636,38.256153,76,100,41
38.26136,38.381153,68,100,41
38.38636,38.631153,76,100,41
38.63636,38.756153,76,100,41
38.76136,38.881153,68,100,41
38.88636,39.131153,76,100,41
39.13636,39.256153,76,100,41
39.26136,39.381153,68,100,41
39.38636,39.631153,76,100,41
39.63636,39.756153,76,100,41
39.76136,39.881153,66,100,41
39.88636,40.131153,76,100,41
40.13636,40.256153,76,100,41
40.26136,40.381153,66,100,41
40.38636,40.631153,76,100,41
40.63636,40.756153,76,100,41
40.76136,40.881153,66,100,41
40.88636,41.141796,75,100,41
41.147232,41.272232,75,100,41
41.277668,41.402668,66,100,41
41.4081,41.675148,75,100,41
41.68083,41.81151,75,100,41
41.817192,41.947872,66,100,41
41.953556,42.23332,75,100,41
42.23927,42.38302,75,100,41
42.38927,42.53302,66,100,41
94.19381,94.43861,69,100,41
94.44381,94.68861,68,100,41
94.69381,94.93861,69,100,41
94.94381,95.18861,71,100,41
95.19381,95.43861,68,100,41
95.44381,95.68861,69,100,41
95.69381,95.93861,73,100,41
95.94381,96.18861,71,100,41
96.19381,96.43861,73,100,41
96.44381,96.68861,74,100,41
96.69381,96.93861,71,100,41
96.94381,97.18861,73,100,41
97.19381,97.43861,69,100,41
97.44381,97.68861,68,100,41
97.69381,97.93861,69,100,41
97.94381,98.18861,71,100,41
98.19381,98.43861,68,100,41
98.44381,98.68861,69,100,41
98.69381,98.93861,73,100,41
98.94381,99.18861,71,100,41
99.19381,99.43861,73,100,41
99.44381,99.68861,74,100,41
99.69381,99.93861,71,100,41
99.94381,100.18861,73,100,41
100.19381,100.31361,73,100,41
100.31881,100.43861,69,100,41
100.44381,100.68861,73,100,41
100.69381,100.81361,73,100,41
100.81881,100.93861,69,100,41
100.94381,101.18861,73,100,41
101.19381,101.31361,73,100,41
101.31881,101.43861,69,100,41
101.44381,101.68861,73,100,41
101.69381,101.81361,73,100,41
101.81881,101.93861,68,100,41
101.94381,102.18861,73,100,41
102.19381,102.31361,73,100,41
102.31881,102.43861,68,100,41
102.44381,102.68861,73,100,41
102.69381,102.81361,73,100,41
102.81881,102.93861,68,100,41
102.94381,103.18861,73,100,41
103.19381,103.31361,73,100,41
103.31881,103.43861,67,100,41
103.44381,103.68861,73,100,41
103.69381,103.81361,73,100,41
103.81881,103.93861,67,100,41
103.94381,104.18861,73,100,41
104.19381,104.31361,73,100,41
104.31881,104.43861,67,100,41
104.44381,104.68861,74,100,41
104.69381,104.81361,74,100,41
104.81881,104.93861,66,100,41
104.94381,105.18861,74,100,41
105.19381,105.31361,74,100,41
105.31881,105.43861,66,100,41
105.44381,105.68861,74,100,41
105.69381,105.81361,74,100,41
105.81881,105.93861,66,100,41
105.94381,106.18861,74,100,41
106.19381,106.31361,74,100,41
106.31881,106.43861,64,100,41
106.44381,106.68861,74,100,41
106.69381,106.81361,74,100,41
106.81881,106.93861,64,100,41
106.94381,107.18861,74,100,41
107.19381,107.31361,74,100,41
107.31881,107.43861,64,100,41
107.44381,107.68861,73,100,41
107.69381,107.81361,73,100,41
107.81881,107.93861,64,100,41
107.94381,108.18861,73,100,41
108.19381,108.31361,73,100,41
108.31881,108.43861,64,100,41
108.44381,108.68861,73,100,41
108.69381,108.81361,73,100,41
108.81881,108.93861,64,100,41
108.94381,109.18861,73,100,41
109.19381,109.31361,73,100,41
109.31881,109.43861,62,100,41
109.44381,109.68861,73,100,41
109.69381,109.81361,73,100,41
109.81881,109.93861,62,100,41
109.94381,110.18861,73,100,41
110.19381,110.31361,73,100,41
110.31881,110.43861,62,100,41
110.44381,110.68861,71,100,41
110.69381,110.81361,71,100,41
110.81881,110.93861,62,100,41
110.94381,111.18861,71,100,41
111.19381,111.31361,71,100,41
111.31881,111.43861,62,100,41
111.44381,111.68861,71,100,41
111.69381,111.81361,71,100,41
111.81881,111.93861,62,100,41
111.94381,112.18861,71,100,41
112.19381,112.31361,71,100,41
112.31881,112.43861,61,100,41
112.44381,112.68861,71,100,41
112.69381,112.81361,71,100,41
112.81881,112.93861,61,100,41
112.94381,113.18861,71,100,41
113.19381,113.31361,71,100,41
113.31881,113.43861,61,100,41
113.44381,113.68861,69,100,41
113.69381,113.81361,69,100,41
113.81881,113.93861,61,100,41
113.94381,114.18861,69,100,41
114.19381,114.31361,69,100,41
114.31881,114.43861,61,100,41
114.44381,114.68861,69,100,41
114.69381,114.81361,69,100,41
114.81881,114.93861,61,100,41
114.94381,115.18861,69,100,41
115.19381,115.31361,69,100,41
115.31881,115.43861,59,100,41
115.44381,115.68861,69,100,41
115.69381,115.81361,69,100,41
115.81881,115.93861,59,100,41
115.94381,116.18861,69,100,41
116.19381,116.31361,69,100,41
116.31881,116.43861,59,100,41
116.44381,116.69925,68,100,41
116.70468,116.82968,68,100,41
116.83511,116.96011,59,100,41
116.96555,117.2326,68,100,41
117.23828,117.36896,68,100,41
117.37464,117.505325,59,100,41
117.511,117.790764,68,100,41
117.79672,117.94047,68,100,41
117.94672,118.09047,59,100,41
200.61569,200.92542,76,100,41
201.47403,202.59122,66,100,41
201.47403,202.59122,59,100,41
202.97403,203.71622,64,100,41
204.47403,205.96622,71,100,41
