start_time,end_time,note_value,velocity,instrument_program_number
0.0,0.28273782,71,100,40
0.0,0.28273782,64,100,40
0.285714,0.5684518,73,100,40
0.285714,0.5684518,69,100,40
0.571428,0.71130884,69,100,40
0.714285,0.8541658,71,100,40
0.857142,0.9970228,73,100,40
0.999999,1.1398798,75,100,40
1.142856,1.4255939,76,100,40
1.42857,1.5684508,68,100,40
1.571427,1.7113078,71,100,40
1.714284,1.9970218,76,100,40
1.999998,2.1398787,76,100,40
2.142855,2.2827358,75,100,40
2.285712,2.5684497,76,100,40
2.571426,2.7113068,66,100,40
2.714283,2.854164,68,100,40
2.85714,2.9970207,69,100,40
2.999997,3.1398778,71,100,40
3.142854,3.2827349,73,100,40
3.285711,3.4255917,69,100,40
3.428568,3.7113059,71,100,40
3.714282,3.854163,69,100,40
3.857139,3.9970198,68,100,40
3.999996,4.139877,66,100,40
4.142853,4.282734,68,100,40
4.28571,4.5684476,64,100,40
4.571424,4.7113047,80,100,40
4.714281,4.8541617,76,100,40
4.857138,4.997019,78,100,40
4.999995,5.139876,75,100,40
5.142852,5.282733,71,100,40
5.285709,5.42559,73,100,40
5.428566,5.5684466,75,100,40
5.571423,5.7113037,76,100,40
5.71428,5.854161,78,100,40
5.857137,5.997018,81,100,40
5.999994,6.139875,80,100,40
6.142851,6.282732,76,100,40
6.285708,6.4255886,71,100,40
6.428565,6.5684457,75,100,40
6.571422,6.7113028,76,100,40
6.714279,6.85416,78,100,40
6.857136,6.997017,80,100,40
6.999993,7.139874,83,100,40
7.14285,7.2827306,78,90,40
7.285707,7.4255877,75,90,40
7.428564,7.5684447,71,90,40
7.571421,7.711302,73,90,40
7.714278,7.854159,75,90,40
7.857135,7.997016,76,90,40
7.999992,8.139873,78,90,40
8.142849,8.28273,81,90,40
8.285706,8.425587,80,90,40
8.428563,8.568444,76,90,40
8.57142,8.711301,71,90,40
8.714277,8.854157,75,90,40
8.857134,9.004009,76,90,40
9.007134,9.170328,78,90,40
9.1738,9.336995,80,90,40
9.340467,9.503661,83,90,40
9.5071335,9.670328,76,100,40
9.6738,9.813681,75,100,40
9.816657,9.956538,73,100,40
9.959514,10.099395,75,100,40
10.102371,10.242251,76,100,40
10.245228,10.385109,75,100,40
10.388085,10.527966,73,100,40
10.530942,10.670823,71,100,40
10.673799,10.81368,70,100,40
10.816656,10.956537,68,100,40
10.959513,11.099394,66,100,40
11.10237,11.24225,68,100,40
11.245227,11.385108,70,100,40
11.388084,11.527965,71,100,40
11.530941,11.670822,73,100,40
11.673798,11.813679,75,100,40
11.816655,11.956535,76,90,40
11.959512,12.099393,75,90,40
12.102369,12.2422495,73,90,40
12.245226,12.385107,75,90,40
12.388083,12.527964,76,90,40
12.53094,12.670821,75,90,40
12.673797,12.813678,73,90,40
12.816654,12.956534,71,90,40
12.959511,13.099392,70,90,40
13.102368,13.242249,68,90,40
13.245225,13.385106,66,90,40
13.388082,13.527963,68,90,40
13.530939,13.67082,70,90,40
13.673796,13.813677,71,90,40
13.816653,13.956533,73,90,40
13.95951,14.099391,76,90,40
14.102367,14.242248,75,100,40
14.245224,14.385105,73,100,40
14.388081,14.527962,71,100,40
14.530938,14.670819,73,100,40
14.673795,14.813676,75,100,40
14.816652,14.9565325,76,100,40
14.959509,15.09939,78,100,40
15.102366,15.242247,69,100,40
15.245223,15.385104,68,100,40
15.38808,15.527961,71,100,40
15.530937,15.670817,76,100,40
15.673794,15.813675,75,100,40
15.816651,15.956532,76,100,40
15.959508,16.099388,82,100,40
16.102365,16.242247,83,100,40
16.245222,16.385103,73,100,40
16.388079,16.52796,64,100,40
16.530935,16.670816,75,100,40
16.673794,16.813673,73,100,40
16.81665,16.956532,71,100,40
16.959507,17.099388,66,100,40
17.102364,17.242245,73,100,40
17.24522,17.385101,71,100,40
17.388079,17.527958,70,100,40
17.530935,17.670816,71,100,40
17.673792,17.813673,66,100,40
17.816648,17.95653,63,100,40
17.959505,18.099386,66,100,40
18.102364,18.385101,59,100,40
18.388077,18.670815,71,100,40
18.388077,18.670815,64,100,40
18.673792,18.95653,73,100,40
18.673792,18.95653,69,100,40
18.959505,19.099386,69,100,40
19.102362,19.242243,71,100,40
19.245218,19.3851,73,100,40
19.388077,19.527956,75,100,40
19.530933,19.813671,76,100,40
19.816647,19.956528,68,100,40
19.959503,20.099384,71,100,40
20.102362,20.3851,76,100,40
20.388075,20.527956,76,100,40
20.530931,20.670813,75,100,40
20.673788,20.956528,76,100,40
20.959503,21.099384,66,100,40
21.10236,21.24224,68,100,40
21.245216,21.385098,69,100,40
21.388075,21.527954,71,100,40
21.530931,21.670813,73,100,40
21.673788,21.81367,69,100,40
21.816645,22.099382,71,100,40
22.10236,22.242239,69,100,40
22.245216,22.385098,68,100,40
22.388073,22.527954,66,100,40
22.53093,22.67081,68,100,40
22.673786,22.956524,64,100,40
22.959501,23.099382,80,100,40
23.102358,23.242239,76,100,40
23.245214,23.385096,78,100,40
23.388071,23.527952,75,100,40
23.53093,23.67081,71,100,40
23.673786,23.813667,73,100,40
23.816643,23.956524,75,100,40
23.9595,24.09938,76,100,40
24.102358,24.242237,78,100,40
24.245214,24.385096,81,100,40
24.388071,24.527952,80,100,40
24.530928,24.670809,76,100,40
24.673784,24.813665,71,100,40
24.816643,24.956522,75,100,40
24.9595,25.09938,76,100,40
25.102356,25.242237,78,100,40
25.245213,25.385094,80,100,40
25.38807,25.52795,83,100,40
25.530928,25.670807,78,90,40
25.673784,25.813665,75,90,40
25.81664,25.956522,71,90,40
25.959497,26.099379,73,90,40
26.102354,26.242235,75,90,40
26.245213,26.385094,76,90,40
26.38807,26.52795,78,90,40
26.530926,26.670807,81,90,40
26.673782,26.813663,80,90,40
26.81664,26.95652,76,90,40
26.959497,27.099379,71,90,40
27.102354,27.242235,75,90,40
27.24521,27.392086,76,90,40
27.39521,27.542086,78,90,40
27.545212,27.699816,80,90,40
27.703106,27.8867,83,90,40
27.890606,28.0742,76,100,40
28.078106,28.217987,75,100,40
28.220963,28.360844,73,100,40
28.36382,28.5037,75,100,40
28.506676,28.646557,76,100,40
28.649534,28.789413,75,100,40
28.79239,28.932272,73,100,40
28.935247,29.075129,71,100,40
29.078104,29.217985,70,100,40
29.22096,29.360842,68,100,40
29.36382,29.5037,66,100,40
29.506676,29.646557,68,100,40
29.649532,29.789413,70,100,40
29.792389,29.93227,71,100,40
29.935247,30.075127,73,100,40
30.078104,30.217985,75,100,40
30.22096,30.360842,76,90,40
30.363817,30.503698,75,90,40
30.506674,30.646555,73,90,40
30.649532,30.789412,75,90,40
30.792389,30.93227,76,90,40
30.935246,31.075127,75,90,40
31.078102,31.217983,73,90,40
31.220959,31.36084,71,90,40
31.363817,31.503696,70,90,40
31.506674,31.646555,68,90,40
31.64953,31.789412,66,90,40
31.792387,31.932268,68,90,40
31.935244,32.075127,70,90,40
32.078102,32.217983,71,90,40
32.22096,32.36084,73,90,40
32.363815,32.503696,76,90,40
32.50667,32.646553,75,100,40
32.64953,32.78941,73,100,40
32.792385,32.932266,71,100,40
32.93524,33.075123,73,100,40
33.078102,33.21798,75,100,40
33.22096,33.36084,76,100,40
33.363815,33.503696,78,100,40
33.50667,33.646553,69,100,40
33.64953,33.78941,68,100,40
33.792385,33.932266,71,100,40
33.93524,34.075123,76,100,40
34.0781,34.21798,75,100,40
34.220955,34.360836,76,100,40
34.363815,34.503693,82,100,40
34.50667,34.646553,83,100,40
34.64953,34.78941,73,100,40
34.792385,34.932266,64,100,40
34.93524,35.075123,75,100,40
35.0781,35.21798,73,100,40
35.220955,35.360836,71,100,40
35.36381,35.503693,66,100,40
35.506668,35.64655,73,100,40
35.649525,35.789406,71,100,40
35.792385,35.932262,70,100,40
35.93524,36.075123,71,100,40
36.0781,36.21798,66,100,40
36.220955,36.360836,63,100,40
36.36381,36.503693,66,100,40
36.506668,36.789406,59,100,40
36.79238,37.07512,78,100,40
36.79238,37.07512,71,100,40
37.0781,37.360836,80,100,40
37.0781,37.360836,76,100,40
37.36381,37.503693,76,100,40
37.506668,37.64655,78,100,40
37.649525,37.789406,80,100,40
37.79238,37.932262,82,100,40
37.935238,38.217976,83,100,40
38.22095,38.360832,75,100,40
38.363808,38.50369,78,100,40
38.506668,38.789406,83,100,40
38.79238,38.932262,83,100,40
38.935238,39.07512,82,100,40
39.078094,39.360832,83,100,40
39.363808,39.50369,73,100,40
39.506664,39.646545,76,100,40
39.64952,39.789402,81,100,40
39.79238,39.93226,73,100,40
39.935238,40.07512,72,100,40
40.078094,40.217976,75,100,40
40.22095,40.360832,80,100,40
40.363808,40.50369,78,100,40
40.506664,40.653538,78,100,40
40.656666,40.80354,76,100,40
40.806664,40.96986,75,100,40
40.97333,41.136524,76,100,40
41.14,41.46986,73,100,40
41.47333,41.613213,76,100,40
41.616188,41.75607,73,100,40
41.759045,41.898926,68,100,40
41.9019,42.041782,69,100,40
42.044758,42.18464,71,100,40
42.187614,42.327496,73,100,40
42.33047,42.470352,74,100,40
42.473328,42.61321,80,100,40
42.616188,42.75607,83,100,40
42.759045,42.898926,74,100,40
42.9019,43.041782,73,100,40
43.044758,43.18464,71,100,40
43.187614,43.327496,69,100,40
43.33047,43.470352,71,100,40
43.473328,43.61321,73,100,40
43.616184,43.756065,76,100,40
43.75904,43.898922,81,100,40
43.9019,44.04178,73,100,40
44.044758,44.18464,68,90,40
44.187614,44.327496,69,90,40
44.33047,44.470352,71,90,40
44.473328,44.61321,73,90,40
44.616184,44.756065,74,90,40
44.75904,44.898922,80,90,40
44.901897,45.04178,83,90,40
45.044754,45.184635,74,90,40
45.18761,45.32749,73,90,40
45.33047,45.470352,71,90,40
45.473328,45.61321,69,90,40
45.616184,45.756065,71,90,40
45.75904,45.898922,73,90,40
45.901897,46.04178,76,90,40
46.044754,46.184635,81,90,40
46.18761,46.32749,73,90,40
46.330467,46.47035,74,100,40
46.473324,46.613205,71,100,40
46.616184,46.75606,68,100,40
46.75904,46.898922,66,100,40
46.901897,47.04178,65,100,40
47.044754,47.184635,68,100,40
47.18761,47.32749,71,100,40
47.330467,47.47035,74,100,40
47.473324,47.613205,73,100,40
47.61618,47.75606,69,100,40
47.759037,47.89892,66,100,40
47.901894,48.041775,64,100,40
48.044754,48.184635,62,100,40
48.18761,48.32749,61,100,40
48.330467,48.47035,62,100,40
48.473324,48.613205,73,100,40
48.61618,48.75606,71,100,40
48.759037,48.89892,81,100,40
48.901894,49.041775,80,100,40
49.04475,49.18463,78,100,40
49.187607,49.327488,73,100,40
49.330467,49.470345,80,100,40
49.473324,49.613205,78,100,40
49.61618,49.75606,77,100,40
49.759037,49.89892,78,100,40
49.901894,50.041775,73,100,40
50.04475,50.18463,69,100,40
50.187607,50.327488,73,100,40
50.330463,50.6132,66,100,40
50.616177,50.756058,81,100,40
50.759037,50.89892,78,100,40
50.901894,51.041775,75,100,40
51.04475,51.18463,78,100,40
51.187607,51.327488,71,100,40
51.330463,51.470345,73,100,40
51.47332,51.6132,75,100,40
51.616177,51.756058,76,100,40
51.759033,51.898914,78,100,40
51.90189,52.04177,81,100,40
52.04475,52.184628,80,100,40
52.187607,52.327488,83,100,40
52.330463,52.470345,76,100,40
52.47332,52.6132,78,100,40
52.616177,52.756058,80,100,40
52.759033,52.898914,81,100,40
52.90189,53.04177,83,100,40
53.044746,53.184628,74,100,40
53.187603,53.327484,73,100,40
53.33046,53.47034,76,100,40
53.47332,53.6132,69,100,40
53.616177,53.756058,73,100,40
53.759033,53.898914,78,100,40
53.90189,54.04177,80,100,40
54.044746,54.184628,81,100,40
54.187603,54.327484,78,100,40
54.33046,54.47034,76,100,40
54.473316,54.613197,75,100,40
54.616173,54.756054,73,100,40
54.759033,54.89891,75,100,40
54.90189,55.184628,71,100,40
55.187603,55.47034,71,100,40
55.187603,55.47034,64,100,40
55.473316,55.756054,73,100,40
55.473316,55.756054,69,100,40
55.75903,55.89891,69,100,40
55.901886,56.041767,71,100,40
56.044746,56.184624,73,100,40
56.187603,56.327484,75,100,40
56.33046,56.47034,76,100,40
56.473316,56.613197,78,100,40
56.616173,56.756054,75,100,40
56.75903,56.89891,78,100,40
56.901886,57.041767,81,100,40
57.044743,57.184624,78,100,40
57.1876,57.32748,75,100,40
57.330456,57.470337,71,100,40
57.473316,57.613194,73,100,40
57.616173,57.756054,69,100,40
57.75903,57.89891,68,100,40
57.901886,58.041767,76,100,40
58.044743,58.32748,83,100,40
58.330456,58.470337,81,100,40
58.330456,58.613194,71,100,40
58.473312,58.613194,80,100,40
58.61617,58.75605,78,100,40
58.75903,58.898907,80,100,40
58.901886,59.04876,76,100,40
59.051884,59.19876,71,100,40
59.201885,59.365078,68,100,40
59.36855,59.531746,71,100,40
59.535217,59.817955,64,100,40
59.82093,60.10367,78,100,40
59.82093,60.10367,71,100,40
60.106644,60.38938,80,100,40
60.106644,60.38938,76,100,40
60.39236,60.53224,76,100,40
60.535217,60.6751,78,100,40
60.678074,60.817955,80,100,40
60.82093,60.96081,82,100,40
60.963787,61.246525,83,100,40
61.2495,61.38938,75,100,40
61.392357,61.532238,78,100,40
61.535217,61.817955,83,100,40
61.82093,61.96081,83,100,40
61.963787,62.10367,82,100,40
62.106644,62.38938,83,100,40
62.392357,62.532238,73,100,40
62.535213,62.675095,76,100,40
62.67807,62.81795,81,100,40
62.820927,62.960808,73,100,40
62.963787,63.10367,72,100,40
63.106644,63.246525,75,100,40
63.2495,63.38938,80,100,40
63.392357,63.532238,78,100,40
63.535213,63.675095,78,100,40
63.67807,63.81795,76,100,40
63.820927,63.960808,75,100,40
63.963783,64.10367,76,100,40
64.10664,64.38938,73,100,40
64.39236,64.532234,76,100,40
64.53521,64.675095,73,100,40
64.67807,64.81795,68,100,40
64.82092,64.96081,69,100,40
64.96378,65.10366,71,100,40
65.10664,65.24652,73,100,40
65.2495,65.38938,74,100,40
65.39236,65.532234,80,100,40
65.53521,65.675095,83,100,40
65.67807,65.81795,74,100,40
65.82092,65.96081,73,100,40
65.96378,66.10366,71,100,40
66.106636,66.24652,69,100,40
66.2495,66.38937,71,100,40
66.39236,66.532234,73,100,40
66.53521,66.675095,76,100,40
66.67807,66.81795,81,100,40
66.82092,66.96081,73,100,40
66.96378,67.10366,68,90,40
67.106636,67.24652,69,90,40
67.2495,67.38937,71,90,40
67.39235,67.532234,73,90,40
67.53521,67.67509,74,90,40
67.67807,67.81795,80,90,40
67.82092,67.96081,83,90,40
67.96378,68.10366,74,90,40
68.106636,68.24652,73,90,40
68.2495,68.38937,71,90,40
68.39235,68.532234,69,90,40
68.53521,68.67509,71,90,40
68.67806,68.81795,73,90,40
68.82092,68.9608,76,90,40
68.96378,69.10366,81,90,40
69.106636,69.24652,73,90,40
69.2495,69.38937,74,100,40
69.39235,69.532234,71,100,40
69.53521,69.67509,68,100,40
69.67806,69.81795,66,100,40
69.82092,69.9608,65,100,40
69.963776,70.10366,68,100,40
70.106636,70.24651,71,100,40
70.24949,70.38937,74,100,40
70.39235,70.53223,73,100,40
70.53521,70.67509,69,100,40
70.67806,70.81795,66,100,40
70.82092,70.9608,64,100,40
70.963776,71.10366,62,100,40
71.106636,71.24651,61,100,40
71.24949,71.38937,62,100,40
71.39235,71.53223,73,100,40
71.5352,71.67509,71,100,40
71.67806,71.81794,81,100,40
71.82092,71.9608,80,100,40
71.963776,72.10366,78,100,40
72.106636,72.24651,73,100,40
72.24949,72.38937,80,100,40
72.39235,72.53223,78,100,40
72.5352,72.67509,77,100,40
72.67806,72.81794,78,100,40
72.820915,72.9608,73,100,40
72.963776,73.10365,69,100,40
73.106636,73.24651,73,100,40
73.24949,73.53223,66,100,40
73.5352,73.67509,81,100,40
73.67806,73.81794,78,100,40
73.820915,73.9608,75,100,40
73.963776,74.10365,78,100,40
74.10663,74.24651,71,100,40
74.24949,74.389366,73,100,40
74.39235,74.53223,75,100,40
74.5352,74.67509,76,100,40
74.67806,74.81794,78,100,40
74.820915,74.9608,81,100,40
74.963776,75.10365,80,100,40
75.10663,75.24651,83,100,40
75.24949,75.389366,76,100,40
75.39234,75.53223,78,100,40
75.5352,75.67508,80,100,40
75.678055,75.81794,81,100,40
75.820915,75.96079,83,100,40
75.963776,76.10365,74,100,40
76.10663,76.24651,73,100,40
76.24949,76.389366,76,100,40
76.39234,76.53223,69,100,40
76.5352,76.67508,73,100,40
76.678055,76.81794,78,100,40
76.820915,76.96079,80,100,40
76.96377,77.10365,81,100,40
77.10663,77.246506,78,100,40
77.24949,77.389366,76,100,40
77.39234,77.53223,75,100,40
77.5352,77.67508,73,100,40
77.678055,77.81794,75,100,40
77.820915,78.10365,71,100,40
78.10663,78.389366,71,100,40
78.10663,78.389366,64,100,40
78.39234,78.67508,73,100,40
78.39234,78.67508,69,100,40
78.678055,78.81794,69,100,40
78.820915,78.96079,71,100,40
78.96377,79.10365,73,100,40
79.10663,79.246506,75,100,40
79.24948,79.389366,76,100,40
79.39234,79.53222,78,100,40
79.535194,79.67508,75,100,40
79.678055,79.81793,78,100,40
79.820915,79.96079,81,100,40
79.96377,80.10365,78,100,40
80.10663,80.246506,75,100,40
80.24948,80.389366,71,100,40
80.39234,80.53222,73,100,40
80.535194,80.67508,69,100,40
80.678055,80.81793,68,100,40
80.82091,80.96079,76,100,40
80.96377,81.246506,83,100,40
81.24948,81.38936,81,100,40
81.24948,81.53222,71,100,40
81.39234,81.53222,80,100,40
81.535194,81.67508,78,100,40
81.678055,81.81793,80,100,40
81.82091,81.9841,76,100,40
81.98758,82.15077,71,100,40
82.15424,82.33784,68,100,40
82.34174,82.55157,71,100,40
82.55603,82.98013,64,100,40
84.05603,84.26585,64,1,40
