start_time,end_time,note_value,velocity,instrument_program_number
0.0,0.4285715,69,100,73
0.4285715,0.857143,71,100,73
0.857143,1.2857145,72,100,73
1.2857145,1.714286,76,100,73
1.714286,2.1428576,68,100,73
2.1428576,2.571429,69,100,73
2.571429,4.285715,65,100,73
4.285715,4.7142863,64,100,73
4.7142863,5.142858,66,100,73
5.142858,5.5714297,68,100,73
5.5714297,6.000001,69,100,73
6.000001,6.4285727,71,100,73
6.4285727,6.857144,74,100,73
6.857144,7.2857156,77,100,73
7.2857156,7.714287,76,100,73
7.714287,8.1428585,74,100,73
8.1428585,8.57143,71,100,73
8.57143,9.000002,72,100,73
9.000002,9.428573,69,100,73
9.428573,10.285716,71,100,73
10.285716,10.714288,69,100,73
10.714288,11.142859,71,100,73
11.142859,11.57143,72,100,73
11.57143,12.000002,76,100,73
12.000002,12.428574,68,100,73
12.428574,12.857145,69,100,73
12.857145,13.714288,77,100,73
13.714288,14.571431,76,100,73
14.571431,15.428574,74,100,73
15.428574,15.857145,67,100,73
15.857145,16.285717,69,100,73
16.285717,16.714289,71,100,73
16.714289,17.14286,74,100,73
17.14286,17.571432,66,100,73
17.571432,18.000004,67,100,73
18.000004,18.857145,76,100,73
18.857145,19.714289,74,85,73
19.714289,20.14286,72,100,73
20.14286,20.571432,76,100,73
20.571432,21.000004,79,100,73
21.000004,21.428576,76,100,73
21.428576,21.857147,74,100,73
21.857147,22.285719,72,100,73
22.285719,22.714289,71,100,73
22.714289,23.14286,72,100,73
23.14286,24.428576,67,100,73
24.428576,24.64286,69,100,73
24.64286,24.857147,71,100,73
24.857147,25.071432,72,100,73
25.071432,25.285719,74,100,73
25.285719,25.500004,76,100,73
25.500004,25.71429,77,100,73
25.71429,25.928576,79,100,73
25.928576,26.142862,77,100,73
26.142862,26.357147,76,100,73
26.357147,26.571432,79,100,73
26.571432,26.785719,77,100,73
26.785719,27.000004,76,100,73
27.000004,27.21429,74,100,73
27.21429,27.428576,77,100,73
27.428576,27.642862,76,100,73
27.642862,27.857147,74,100,73
27.857147,28.071434,72,100,73
28.071434,28.285719,76,100,73
28.285719,29.571434,69,100,73
29.571434,29.785719,71,100,73
29.785719,30.000006,72,100,73
30.000006,30.21429,74,100,73
30.21429,30.428577,76,100,73
30.428577,30.642862,77,100,73
30.642862,30.857147,79,100,73
30.857147,31.071434,81,100,73
31.071434,31.285719,79,100,73
31.285719,31.500006,77,100,73
31.500006,31.71429,81,100,73
31.71429,31.928577,79,100,73
31.928577,32.142864,77,100,73
32.142864,32.357147,76,100,73
32.357147,32.571434,79,100,73
32.571434,32.78572,77,100,73
32.78572,33.000004,76,100,73
33.000004,33.21429,74,100,73
33.21429,33.428577,77,100,73
33.428577,33.857147,83,100,73
33.857147,34.071434,84,100,73
34.071434,34.28572,86,100,73
34.28572,34.500008,84,100,73
34.500008,34.71429,83,100,73
34.71429,34.928577,81,100,73
34.928577,35.142864,79,100,73
35.142864,35.357147,77,100,73
35.357147,35.571434,76,100,73
35.571434,35.78572,77,100,73
35.78572,36.000008,71,100,73
36.000008,36.428577,76,100,73
36.428577,36.642864,74,100,73
36.642864,36.857147,72,100,73
36.857147,37.28572,79,100,73
37.28572,37.71429,81,100,73
37.71429,38.142864,76,100,73
38.142864,38.35715,74,100,73
38.35715,38.571434,72,100,73
38.571434,40.28572,72,100,73
41.142864,41.571434,76,100,73
41.571434,42.000008,72,100,73
42.000008,42.428577,71,100,73
42.428577,42.85715,72,100,73
42.85715,43.28572,81,100,73
43.28572,43.714294,79,100,73
43.714294,45.428577,76,100,73
45.428577,45.85715,74,100,73
45.85715,46.28572,76,100,73
46.28572,46.714294,77,100,73
46.714294,47.142864,74,100,73
47.142864,47.571438,68,100,73
47.571438,48.000008,76,100,73
48.000008,48.42858,83,100,73
48.42858,48.85715,74,100,73
48.85715,49.714294,72,100,73
49.714294,50.142864,71,100,73
50.142864,50.571438,72,100,73
50.571438,51.42858,69,100,73
51.42858,51.85715,81,100,73
51.85715,52.071438,79,100,73
52.071438,52.285725,77,100,73
52.285725,52.714294,76,100,73
52.714294,53.142864,74,100,73
53.142864,53.571438,73,100,73
53.571438,54.000008,74,100,73
54.000008,54.42858,82,100,73
54.42858,54.642868,81,100,73
54.642868,54.85715,79,100,73
54.85715,55.285725,77,100,73
55.285725,55.714294,76,100,73
55.714294,56.142868,81,100,73
56.142868,56.571438,69,100,73
56.571438,56.785725,65,100,73
56.785725,57.000008,81,100,73
57.000008,57.214294,79,100,73
57.214294,57.42858,77,100,73
57.42858,57.85715,76,100,73
57.85715,58.285725,74,100,73
58.285725,58.714294,73,100,73
58.714294,59.142868,74,100,73
59.142868,59.571438,67,100,73
59.571438,59.785725,82,100,73
59.785725,60.00001,81,100,73
60.00001,60.42858,79,100,73
60.42858,60.642868,77,100,73
60.642868,60.857155,76,100,73
60.857155,61.285725,85,100,73
61.285725,61.50001,83,100,73
61.50001,61.714294,85,100,73
61.714294,62.142868,86,100,73
62.142868,62.357155,74,100,73
62.357155,62.571438,76,100,73
62.571438,63.00001,77,100,73
63.00001,63.42858,81,100,73
63.42858,63.642868,79,100,73
63.642868,63.857155,77,100,73
63.857155,64.07144,76,100,73
64.07144,64.28573,77,100,73
64.28573,64.714294,74,100,73
64.714294,65.14287,69,100,73
65.14287,65.57144,65,100,73
65.57144,66.00001,62,100,73
66.00001,66.42858,65,100,73
66.42858,66.857155,69,100,73
66.857155,67.28573,71,100,73
67.28573,67.714294,72,100,73
67.714294,68.14287,74,100,73
68.14287,68.57144,77,100,73
68.57144,69.000015,81,100,73
69.000015,69.42858,79,100,73
69.42858,69.857155,77,100,73
69.857155,70.28573,76,100,73
70.28573,70.714294,74,100,73
70.714294,71.14287,72,100,73
71.14287,71.57144,80,100,73
71.57144,72.000015,81,100,73
72.000015,72.42858,68,100,73
72.42858,72.857155,69,100,73
72.857155,73.28573,71,100,73
73.28573,73.714294,72,100,73
73.714294,74.14287,77,100,73
74.14287,74.57144,76,100,73
74.57144,75.000015,74,100,73
75.000015,75.42858,72,100,73
75.42858,75.857155,71,100,73
75.857155,76.28573,69,100,73
76.28573,76.7143,81,100,73
76.7143,77.14287,84,100,73
77.14287,77.57144,74,100,73
77.57144,78.000015,84,100,73
78.000015,78.42858,83,100,73
78.42858,78.857155,86,100,73
78.857155,79.28573,80,100,73
79.28573,79.7143,81,100,73
79.7143,80.14287,74,100,73
80.14287,80.57144,84,100,73
80.57144,81.000015,83,100,73
81.000015,81.42858,86,100,73
81.42858,81.857155,80,100,73
81.857155,82.28573,81,100,73
82.28573,82.7143,71,100,73
82.7143,82.92859,77,100,73
82.92859,83.14287,76,100,73
83.14287,83.57144,74,100,73
83.57144,84.000015,72,100,73
84.000015,84.42859,71,100,73
84.42859,84.64287,72,100,73
84.64287,84.857155,74,100,73
84.857155,86.14287,68,100,73
86.14287,86.57144,66,100,73
86.57144,87.42859,64,100,73
87.42859,87.857155,69,100,73
87.857155,88.28573,71,100,73
88.28573,88.7143,72,100,73
88.7143,89.142876,76,100,73
89.142876,89.57144,68,100,73
89.57144,90.000015,69,100,73
90.000015,90.857155,77,100,73
90.857155,91.7143,76,100,73
91.7143,92.57144,74,100,73
92.57144,93.000015,71,100,73
93.000015,93.42859,72,100,73
93.42859,93.857155,74,100,73
93.857155,94.28573,77,100,73
94.28573,94.7143,76,100,73
94.7143,95.142876,74,100,73
95.142876,95.57144,83,100,73
95.57144,96.000015,80,100,73
96.000015,96.42859,81,100,73
96.42859,96.85716,78,100,73
96.85716,97.28573,80,100,73
97.28573,97.7143,83,100,73
97.7143,98.142876,88,100,73
98.142876,98.57144,84,100,73
98.57144,99.000015,83,100,73
99.000015,99.42859,81,100,73
99.42859,99.85716,80,100,73
99.85716,100.28573,81,100,73
100.28573,101.57145,76,100,73
101.57145,101.78573,78,100,73
101.78573,102.000015,80,100,73
102.000015,102.2143,81,100,73
102.2143,102.42859,83,100,73
102.42859,102.642876,84,100,73
102.642876,102.85716,86,100,73
102.85716,103.07145,88,100,73
103.07145,103.28573,86,100,73
103.28573,103.500015,84,100,73
103.500015,103.7143,88,100,73
103.7143,103.92859,86,100,73
103.92859,104.142876,84,100,73
104.142876,104.35716,83,100,73
104.35716,104.57145,86,100,73
104.57145,104.78573,84,100,73
104.78573,105.000015,83,100,73
105.000015,105.2143,81,100,73
105.2143,105.42859,84,100,73
105.42859,106.7143,78,100,73
106.7143,106.92859,80,100,73
106.92859,107.142876,81,100,73
107.142876,107.35716,83,100,73
107.35716,107.57145,84,100,73
107.57145,107.78573,86,100,73
107.78573,108.000015,88,100,73
108.000015,108.2143,89,100,73
108.2143,108.42859,88,100,73
108.42859,108.642876,86,100,73
108.642876,108.85716,89,100,73
108.85716,109.07145,88,100,73
109.07145,109.285736,86,100,73
109.285736,109.500015,84,100,73
109.500015,109.7143,88,100,73
109.7143,109.92859,86,100,73
109.92859,110.142876,84,100,73
110.142876,110.35716,83,100,73
110.35716,110.57145,86,100,73
110.57145,111.000015,92,100,73
111.000015,111.2143,81,100,73
111.2143,111.42859,83,100,73
111.42859,111.642876,81,100,73
111.642876,111.85716,79,100,73
111.85716,112.07145,78,100,73
112.07145,112.285736,76,100,73
112.285736,112.500015,86,100,73
112.500015,112.7143,84,100,73
112.7143,112.92859,86,100,73
112.92859,113.142876,83,100,73
113.142876,113.35716,84,100,73
113.35716,113.57145,83,100,73
113.57145,113.785736,81,100,73
113.785736,114.000015,80,100,73
114.000015,114.42859,81,100,73
114.42859,114.85716,76,100,73
114.85716,115.285736,72,100,73
115.285736,115.50002,71,100,73
115.50002,115.7143,69,100,73
115.7143,118.285736,69,100,73
