start_time,end_time,note_value,velocity,instrument_program_number
0.0,2.7777774,76,68,0
2.7777774,2.9166663,78,68,0
2.9166663,3.0555553,76,68,0
3.0555553,3.1944442,75,68,0
3.1944442,3.333333,76,68,0
3.333333,3.4120367,78,72,0
3.4027774,3.481481,76,52,0
3.4722219,3.5509255,78,54,0
3.5416663,3.62037,76,57,0
3.6111107,3.6898143,78,59,0
3.680555,4.166666,76,72,0
4.166666,4.3055553,75,68,0
4.3055553,4.444444,76,68,0
4.444444,9.166666,78,68,0
9.166666,9.444444,76,68,0
9.444444,9.722221,75,72,0
9.722221,9.907407,76,60,0
9.999999,10.277777,78,72,0
10.277777,10.462962,76,60,0
10.555554,10.833332,79,72,0
10.833332,11.0185175,78,60,0
11.11111,12.36111,81,68,0
12.36111,12.499999,84,68,0
12.499999,12.638887,83,68,0
12.638887,12.777777,81,68,0
12.777777,13.055554,79,68,0
13.055554,13.194443,81,68,0
13.194443,13.333332,78,68,0
13.333332,16.111109,79,68,0
16.111109,16.388887,84,68,0
16.388887,16.666664,83,68,0
16.666664,17.222221,84,68,0
17.222221,17.777777,76,68,0
17.777777,20.555553,78,68,0
20.555553,21.249998,83,68,0
21.249998,21.388887,84,68,0
21.388887,21.527775,83,68,0
21.527775,21.666664,81,68,0
21.666664,21.805553,83,68,0
21.805553,21.944443,79,68,0
21.944443,22.083332,81,68,0
22.083332,22.22222,83,68,0
22.22222,24.72222,76,68,0
24.72222,24.999998,72,68,0
24.999998,25.277775,69,68,0
25.277775,25.555553,71,68,0
25.555553,25.83333,72,68,0
25.83333,26.111109,76,68,0
26.111109,26.388885,74,68,0
26.388885,26.527775,76,68,0
26.527775,26.666664,72,68,0
26.666664,29.44444,74,68,0
29.44444,30.138885,79,68,0
30.138885,30.277775,77,68,0
30.277775,30.416664,76,68,0
30.416664,30.555553,74,68,0
30.555553,30.83333,72,68,0
30.83333,30.97222,74,68,0
30.97222,31.111109,71,68,0
31.111109,33.611107,72,68,0
33.611107,33.888885,74,68,0
33.888885,34.166664,76,68,0
34.166664,34.444443,77,68,0
34.444443,34.722218,79,68,0
34.722218,34.999996,77,68,0
34.999996,35.277775,81,68,0
35.277775,35.509254,72,68,0
35.569443,35.638885,72,76,0
35.638885,38.300922,71,68,0
38.361107,38.916664,71,68,0
38.916664,39.055553,69,68,0
39.055553,39.19444,67,68,0
39.19444,39.472218,66,68,0
39.472218,39.611107,67,68,0
39.611107,39.749996,66,68,0
39.749996,40.027775,64,68,0
40.027775,40.722218,76,68,0
40.722218,40.861107,78,68,0
40.861107,40.999996,76,68,0
40.999996,41.138885,75,68,0
41.138885,41.972218,76,68,0
41.972218,42.2037,78,68,0
42.263885,42.342587,79,77,0
42.33333,42.412033,78,40,0
42.402775,42.481476,79,40,0
42.472218,42.550922,78,40,0
42.541664,42.620365,79,40,0
42.611107,42.68981,78,40,0
42.68055,42.759254,79,40,0
42.749996,42.8287,78,40,0
42.81944,42.898144,79,40,0
42.888885,42.967587,78,40,0
42.95833,43.037033,79,40,0
43.027775,43.106476,78,40,0
43.097218,43.175922,79,40,0
43.166664,43.245365,78,40,0
43.236107,43.31481,79,40,0
43.30555,43.384254,78,40,0
43.374996,43.4537,79,40,0
43.44444,43.523144,78,56,0
43.513885,43.592587,79,49,0
43.58333,43.662033,78,51,0
43.652775,43.731476,79,53,0
43.722218,43.800922,78,54,0
43.791664,43.870365,79,56,0
43.861107,43.999996,78,58,0
44.20833,44.347218,76,68,0
44.347218,44.486107,78,68,0
44.486107,46.986107,79,68,0
46.986107,47.263885,71,68,0
47.263885,47.54166,69,68,0
47.54166,48.097218,67,68,0
48.097218,48.236107,66,68,0
48.236107,48.374996,64,68,0
48.374996,48.652775,63,68,0
48.652775,48.93055,64,68,0
48.93055,49.624996,72,68,0
49.624996,49.763885,71,68,0
49.763885,49.90277,69,68,0
49.90277,50.04166,71,68,0
50.04166,50.18055,72,68,0
50.18055,50.31944,74,68,0
50.31944,50.45833,72,68,0
50.45833,50.597218,71,68,0
50.597218,50.874996,72,68,0
50.874996,51.15277,74,68,0
51.15277,51.231476,76,77,0
51.222218,51.300922,74,40,0
51.29166,51.370365,76,40,0
51.361107,51.439808,74,40,0
51.43055,51.509254,76,40,0
51.499996,51.578697,74,40,0
51.56944,51.648144,76,40,0
51.638885,51.717587,74,40,0
51.70833,51.787033,76,40,0
51.77777,51.856476,74,40,0
51.847218,51.925922,76,40,0
51.91666,51.995365,74,40,0
51.986107,52.064808,76,40,0
52.05555,52.134254,74,40,0
52.124996,52.203697,76,40,0
52.19444,52.273144,74,48,0
52.263885,52.342587,76,49,0
52.33333,52.412033,74,51,0
52.40277,52.481476,76,52,0
52.472218,52.550922,74,54,0
52.54166,52.620365,76,55,0
52.611107,52.689808,74,56,0
52.68055,52.759254,76,58,0
52.749996,52.888885,74,59,0
53.097218,53.236107,72,68,0
53.236107,53.374996,74,68,0
53.374996,56.15277,76,68,0
56.15277,56.43055,74,68,0
56.43055,56.70833,72,68,0
56.70833,56.986107,74,68,0
56.986107,57.26388,71,68,0
57.26388,57.54166,68,68,0
57.54166,57.81944,69,68,0
57.81944,60.31944,74,68,0
60.31944,60.597218,77,68,0
60.597218,60.874992,76,68,0
60.874992,61.106476,74,68,0
61.16666,61.236107,74,77,0
61.236107,61.314808,72,48,0
61.30555,61.384254,74,49,0
61.374992,61.453697,72,50,0
61.44444,61.523144,74,52,0
61.51388,61.592587,72,53,0
61.58333,61.66203,74,54,0
61.65277,61.731476,72,55,0
61.722218,61.80092,74,56,0
61.79166,61.870365,72,57,0
61.861103,61.939808,74,58,0
61.93055,62.009254,72,59,0
61.999992,62.13888,74,68,0
62.13888,62.27777,71,68,0
62.27777,68.11111,72,68,0
68.11111,68.388885,69,68,0
68.388885,68.66666,68,68,0
68.66666,68.944435,69,68,0
68.944435,69.22221,72,68,0
69.22221,69.49999,69,68,0
69.49999,69.77777,68,68,0
69.77777,70.05555,69,68,0
70.05555,70.33333,64,68,0
70.33333,70.61111,69,68,0
70.61111,70.888885,67,68,0
70.888885,71.16666,69,68,0
71.16666,73.944435,72,68,0
73.944435,74.49999,71,68,0
74.49999,75.05555,73,68,0
75.05555,75.33333,76,68,0
75.33333,75.61111,75,68,0
75.61111,80.6111,76,68,0
80.6111,80.88888,75,68,0
80.88888,81.16666,78,68,0
81.16666,81.444435,81,68,0
81.444435,81.72221,84,68,0
81.72221,81.99999,83,68,0
81.99999,82.27777,75,68,0
82.27777,85.74999,76,68,0
85.74999,85.88888,78,68,0
85.88888,86.02777,76,68,0
86.02777,86.16666,75,68,0
86.16666,86.30555,76,68,0
86.30555,86.444435,73,68,0
86.444435,86.67592,75,68,0
86.7361,86.814804,76,78,0
86.80555,86.88425,75,40,0
86.87499,86.9537,76,40,0
86.944435,87.02314,75,40,0
87.01388,87.09258,76,40,0
87.08333,87.162025,75,40,0
87.15277,87.231476,76,40,0
87.22221,87.30092,75,40,0
87.29166,87.37036,76,40,0
87.3611,87.439804,75,40,0
87.43055,87.50925,76,40,0
87.49999,87.5787,75,40,0
87.569435,87.64814,76,40,0
87.63888,87.71758,75,40,0
87.70833,87.787025,76,40,0
87.77777,87.856476,75,48,0
87.84721,87.92592,76,49,0
87.91666,87.99536,75,51,0
87.9861,88.064804,76,52,0
88.05555,88.13425,75,54,0
88.12499,88.2037,76,55,0
88.194435,88.37962,75,56,0
88.40277,88.912025,76,74,0
88.97221,98.32254,76,68,0
98.32254,98.461426,81,64,0
98.461426,98.60032,83,64,0
98.60032,98.739204,84,64,0
98.739204,98.8781,83,64,0
98.8781,99.01698,84,64,0
99.01698,99.155876,83,64,0
99.155876,99.29476,81,64,0
99.29476,99.433655,76,64,0
99.433655,99.57254,81,64,0
99.57254,99.71143,83,64,0
99.71143,99.85032,84,64,0
99.85032,99.989204,83,64,0
99.989204,100.1281,84,64,0
100.1281,100.26698,83,64,0
100.26698,100.405876,81,64,0
100.405876,100.54476,83,64,0
100.54476,100.683655,81,64,0
100.683655,100.82254,80,64,0
100.82254,100.96143,81,64,0
100.96143,101.10032,83,64,0
101.10032,101.23921,81,64,0
101.23921,101.3781,80,64,0
101.3781,101.51699,81,64,0
101.51699,101.79476,74,64,0
101.79476,102.21143,83,64,0
102.21143,102.35032,81,64,0
102.35032,102.48921,79,64,0
102.48921,102.6281,81,64,0
102.6281,102.76699,77,64,0
102.76699,102.905876,71,64,0
102.905876,103.04477,72,64,0
103.04477,103.183655,74,64,0
103.183655,103.32255,72,64,0
103.32255,103.46143,74,64,0
103.46143,103.60032,72,64,0
103.60032,103.73921,71,64,0
103.73921,103.8781,76,64,0
103.8781,104.01699,74,64,0
104.01699,104.155876,76,64,0
104.155876,104.29477,77,64,0
104.29477,104.433655,76,64,0
104.433655,104.57255,77,64,0
104.57255,104.71143,76,64,0
104.71143,104.85033,74,64,0
104.85033,104.98921,72,64,0
104.98921,105.1281,68,64,0
105.1281,105.26699,69,64,0
105.26699,105.405876,71,64,0
105.405876,105.54477,69,64,0
105.54477,105.683655,68,64,0
105.683655,105.82255,69,64,0
105.82255,105.96143,71,64,0
105.96143,106.10033,72,64,0
106.10033,106.23921,81,64,0
106.23921,106.378105,79,64,0
106.378105,106.51699,77,64,0
106.51699,106.65588,76,64,0
106.65588,106.79477,77,64,0
106.79477,106.933655,76,64,0
106.933655,107.07255,74,64,0
107.07255,107.21143,73,64,0
107.21143,107.35033,76,64,0
107.35033,107.48921,78,64,0
107.48921,107.628105,79,64,0
107.628105,107.76699,78,64,0
107.76699,107.90588,79,64,0
107.90588,108.04477,78,64,0
108.04477,108.18366,76,64,0
108.18366,108.32255,75,64,0
108.32255,108.46143,78,64,0
108.46143,108.60033,79,64,0
108.60033,108.73921,81,64,0
108.73921,108.878105,79,64,0
108.878105,109.01699,81,64,0
109.01699,109.15588,79,64,0
109.15588,109.29477,78,64,0
109.29477,109.43366,79,64,0
109.43366,109.57255,67,64,0
109.57255,109.71144,69,64,0
109.71144,109.85033,71,64,0
109.85033,109.98922,69,64,0
109.98922,110.128105,71,64,0
110.128105,110.26699,69,64,0
110.26699,110.40588,67,64,0
110.40588,110.54477,77,64,0
110.54477,110.68366,68,64,0
110.68366,110.82255,69,64,0
110.82255,110.96144,71,64,0
110.96144,111.10033,69,64,0
111.10033,111.23922,71,64,0
111.23922,111.378105,69,64,0
111.378105,111.517,68,64,0
111.517,111.65588,76,64,0
111.65588,111.79478,69,64,0
111.79478,111.93366,71,64,0
111.93366,112.07255,72,64,0
112.07255,112.21144,71,64,0
112.21144,112.35033,72,64,0
112.35033,112.48922,71,64,0
112.48922,112.628105,69,64,0
112.628105,112.767,74,64,0
112.767,112.90588,71,64,0
112.90588,113.04478,72,64,0
113.04478,113.18366,74,64,0
113.18366,113.322556,72,64,0
113.322556,113.46144,74,64,0
113.46144,113.60033,72,64,0
113.60033,113.73922,71,64,0
113.73922,113.878105,72,64,0
113.878105,114.017,69,64,0
114.017,114.15588,68,64,0
114.15588,114.29478,69,64,0
114.29478,114.43366,64,64,0
114.43366,114.572556,69,64,0
114.572556,114.71144,68,64,0
114.71144,114.850334,69,64,0
114.850334,115.96144,72,64,0
116.100334,116.23922,69,64,0
116.23922,116.37811,68,64,0
116.37811,116.517,69,64,0
116.517,116.65589,63,64,0
116.65589,116.79478,69,64,0
116.79478,116.93366,68,64,0
116.93366,117.072556,69,64,0
117.072556,117.21144,72,64,0
117.21144,117.350334,69,64,0
117.350334,117.48922,68,64,0
117.48922,117.62811,69,64,0
117.62811,117.767,64,64,0
117.767,117.90589,69,64,0
117.90589,118.04478,68,64,0
118.04478,118.18367,69,64,0
118.18367,118.322556,72,64,0
118.322556,118.46145,66,64,0
118.46145,118.600334,67,64,0
118.600334,118.73922,69,64,0
118.73922,118.87811,67,64,0
118.87811,119.017,66,64,0
119.017,119.15589,64,64,0
119.15589,119.29478,63,64,0
119.29478,119.43367,71,64,0
119.43367,119.572556,64,64,0
119.572556,119.71145,66,64,0
119.71145,119.850334,67,64,0
119.850334,119.98923,66,64,0
119.98923,120.12811,64,64,0
120.12811,120.267006,63,64,0
120.267006,120.40589,64,64,0
120.40589,120.54478,69,64,0
120.54478,120.68367,79,64,0
120.68367,120.822556,81,64,0
120.822556,120.96145,83,64,0
120.96145,121.100334,81,64,0
121.100334,121.23923,83,64,0
121.23923,121.37811,81,64,0
121.37811,121.517006,79,64,0
121.517006,121.65589,69,64,0
121.65589,121.794785,78,64,0
121.794785,121.93367,79,64,0
121.93367,122.072556,81,64,0
122.072556,122.21145,79,64,0
122.21145,122.350334,81,64,0
122.350334,122.48923,79,64,0
122.48923,122.62811,78,64,0
122.62811,122.767006,70,64,0
122.767006,122.90589,76,64,0
122.90589,123.044785,78,64,0
123.044785,123.18367,79,64,0
123.18367,123.32256,78,64,0
123.32256,123.46145,79,64,0
123.46145,123.60034,78,64,0
123.60034,123.73923,76,64,0
123.87811,124.017006,69,64,0
124.017006,124.15589,71,64,0
124.15589,124.294785,72,64,0
124.294785,124.43367,71,64,0
124.43367,124.57256,72,64,0
124.57256,124.71145,71,64,0
124.71145,124.85034,69,64,0
123.73923,124.85034,75,64,0
124.98923,125.12812,71,64,0
125.12812,125.267006,72,64,0
125.267006,125.40589,74,64,0
125.40589,125.544785,72,64,0
125.544785,125.68367,74,64,0
125.68367,125.82256,72,64,0
125.82256,125.96145,71,64,0
124.85034,125.96145,67,64,0
126.10034,126.23923,66,64,0
126.23923,126.37812,67,64,0
125.96145,126.517006,69,64,0
126.37812,126.517006,69,64,0
126.517006,126.6559,67,64,0
126.6559,126.794785,69,64,0
126.794785,126.93368,67,64,0
126.93368,127.07256,66,64,0
127.21145,127.35034,67,64,0
127.35034,127.48923,69,64,0
127.48923,127.62812,71,64,0
127.62812,127.767006,69,64,0
127.767006,127.9059,71,64,0
127.9059,128.04478,69,64,0
128.04478,128.18367,67,64,0
127.07256,128.18367,64,64,0
128.32257,128.46146,66,64,0
128.46146,128.60034,67,64,0
128.60034,128.73923,69,64,0
128.73923,128.87811,67,64,0
128.87811,129.01701,69,64,0
129.01701,129.1559,67,64,0
129.1559,129.29478,66,64,0
128.18367,129.29478,63,64,0
129.43367,129.57257,64,64,0
129.57257,129.71146,66,64,0
129.71146,129.85034,67,64,0
129.85034,129.98923,66,64,0
129.98923,130.12813,67,64,0
130.12813,130.26701,66,64,0
130.26701,130.4059,64,64,0
129.29478,130.4059,61,64,0
130.54478,130.68367,57,64,0
130.68367,130.82257,59,64,0
130.82257,130.96146,60,64,0
130.96146,131.10034,59,64,0
131.10034,131.23923,60,64,0
131.23923,131.37813,59,64,0
131.37813,131.51701,57,64,0
130.4059,131.51701,63,64,0
131.51701,131.6559,59,64,0
131.6559,131.79478,61,64,0
131.79478,131.93369,63,64,0
131.93369,132.07257,64,64,0
132.07257,132.21146,66,64,0
132.21146,132.35034,67,64,0
132.35034,132.48923,69,64,0
132.48923,132.62813,71,64,0
132.76701,132.9059,66,64,0
132.9059,133.04478,67,64,0
133.04478,133.18369,69,64,0
133.18369,133.32257,67,64,0
133.32257,133.46146,69,64,0
133.46146,133.60034,67,64,0
133.60034,133.73924,66,64,0
132.62813,133.73924,72,64,0
133.87813,134.01701,67,64,0
134.01701,134.1559,69,64,0
134.1559,134.29478,71,64,0
134.29478,134.43369,69,64,0
134.43369,134.57257,71,64,0
134.57257,134.71146,69,64,0
134.71146,134.85034,67,64,0
133.73924,134.85034,73,64,0
134.98924,135.12813,69,64,0
135.12813,135.26701,71,64,0
135.26701,135.4059,72,64,0
135.4059,135.5448,71,64,0
135.5448,135.68369,72,64,0
135.68369,135.82257,71,64,0
135.82257,135.96146,69,64,0
134.85034,135.96146,75,64,0
135.96146,136.10034,76,64,0
136.10034,136.23924,74,64,0
135.96146,136.23924,67,64,0
136.23924,136.37813,72,64,0
136.37813,136.51701,71,64,0
136.51701,136.6559,69,64,0
136.6559,136.7948,67,64,0
136.7948,136.93369,66,64,0
136.93369,137.07376,64,64,0
137.07376,137.21661,72,64,0
137.21661,137.36073,71,64,0
137.36073,137.5078,69,64,0
137.5078,137.65619,67,64,0
137.65619,137.80771,66,64,0
137.80771,137.96065,64,64,0
137.96065,138.1169,63,64,0
138.1169,138.29102,61,64,0
138.29102,138.50894,63,64,0
138.73235,139.13908,66,64,0
138.50894,139.59312,59,64,0
139.35265,139.87682,64,64,0
139.87682,140.2156,63,64,0
139.59312,140.2156,57,64,0
140.2156,143.29253,64,64,0
140.2156,143.29253,56,64,0
140.2156,143.29253,59,64,0
0.0,0.5555555,67,54,0
0.0,0.5555555,71,54,0
2.222222,2.7777774,67,54,0
2.222222,2.7777774,71,54,0
4.444444,4.9999995,72,54,0
4.444444,4.9999995,69,54,0
6.666666,7.2222214,69,54,0
6.666666,7.2222214,72,54,0
8.888888,9.444444,69,54,0
8.888888,9.444444,72,54,0
11.11111,11.666665,71,54,0
11.11111,11.666665,78,54,0
13.333332,13.888887,76,54,0
13.333332,13.888887,71,54,0
15.555554,16.111109,71,54,0
15.555554,16.111109,76,54,0
17.777777,18.333332,69,54,0
17.777777,18.333332,72,54,0
19.999998,20.555553,74,54,0
19.999998,20.555553,71,54,0
22.22222,22.777775,67,54,0
22.22222,22.777775,71,54,0
24.444443,24.999998,69,54,0
24.444443,24.999998,72,54,0
26.666664,27.22222,66,54,0
26.666664,27.22222,69,54,0
28.888885,29.44444,67,54,0
28.888885,29.44444,71,54,0
31.111109,31.666664,67,54,0
31.111109,31.666664,64,54,0
33.33333,33.888885,66,54,0
33.33333,33.888885,69,54,0
35.555553,36.111107,62,54,0
35.555553,36.111107,67,54,0
37.777775,38.33333,67,54,0
37.777775,38.33333,62,54,0
39.999996,40.55555,73,54,0
39.999996,40.55555,69,54,0
42.222218,42.777775,75,54,0
42.222218,42.777775,69,54,0
44.44444,44.999996,76,54,0
44.44444,44.999996,71,54,0
46.66666,47.222218,67,54,0
46.66666,47.222218,71,54,0
48.888885,49.44444,69,54,0
48.888885,49.44444,65,54,0
51.111107,51.66666,71,54,0
51.111107,51.66666,65,54,0
53.33333,53.88888,67,54,0
53.33333,53.88888,72,54,0
55.55555,56.111107,67,54,0
55.55555,56.111107,64,54,0
57.77777,58.33333,66,54,0
57.77777,58.33333,69,54,0
59.999992,60.55555,68,54,0
59.999992,60.55555,71,54,0
62.222218,62.77777,69,54,0
62.222218,62.77777,64,54,0
64.444435,64.99999,64,54,0
64.444435,64.99999,69,54,0
66.66666,67.22221,69,54,0
66.66666,67.22221,63,54,0
68.888885,69.444435,69,54,0
68.888885,69.444435,64,54,0
71.11111,71.66666,69,54,0
71.11111,71.66666,66,54,0
73.33333,73.88888,69,54,0
73.33333,73.88888,66,54,0
75.55555,76.11111,68,54,0
75.55555,76.11111,71,54,0
77.77777,78.33333,73,54,0
77.77777,78.33333,70,54,0
79.99999,80.55555,66,54,0
79.99999,80.55555,69,54,0
82.22221,82.77777,67,54,0
82.22221,82.77777,71,54,0
84.444435,84.99999,67,54,0
84.444435,84.99999,73,54,0
86.66666,87.22221,71,54,0
86.66666,87.22221,66,54,0
88.88888,89.444435,67,54,0
88.88888,89.444435,71,54,0
91.1111,91.66666,68,54,0
91.1111,91.66666,71,54,0
93.33332,93.88888,72,54,0
93.33332,93.88888,69,54,0
95.59828,96.19828,74,54,0
95.59828,96.19828,71,54,0
98.131615,98.41976,72,54,0
0.0,0.27777776,52,56,0
0.27777776,0.5555555,55,56,0
0.5555555,0.83333325,57,56,0
0.83333325,1.111111,59,56,0
1.111111,1.3888887,57,56,0
1.3888887,1.6666665,59,56,0
1.6666665,1.9444443,57,56,0
1.9444443,2.222222,55,56,0
2.222222,2.4999998,52,56,0
2.4999998,2.7777774,55,56,0
2.7777774,3.0555553,57,56,0
3.0555553,3.333333,59,56,0
3.333333,3.6111107,57,56,0
3.6111107,3.8888886,59,56,0
3.8888886,4.166666,57,56,0
4.166666,4.444444,55,56,0
4.444444,4.722222,52,56,0
4.722222,4.9999995,57,56,0
4.9999995,5.277777,59,56,0
5.277777,5.555555,60,56,0
5.555555,5.8333325,59,56,0
5.8333325,6.1111107,60,56,0
6.1111107,6.3888884,59,56,0
6.3888884,6.666666,57,56,0
6.666666,6.9444437,52,56,0
6.9444437,7.2222214,57,56,0
7.2222214,7.499999,59,56,0
7.499999,7.777777,60,56,0
7.777777,8.055554,59,56,0
8.055554,8.333332,60,56,0
8.333332,8.611111,59,56,0
8.611111,8.888888,57,56,0
8.888888,9.166666,51,56,0
9.166666,9.444444,57,56,0
9.444444,9.722221,59,56,0
9.722221,9.999999,60,56,0
9.999999,10.277777,59,56,0
10.277777,10.555554,60,56,0
10.555554,10.833332,59,56,0
10.833332,11.11111,57,56,0
11.11111,11.388887,51,56,0
11.388887,11.666665,57,56,0
11.666665,11.944444,59,56,0
11.944444,12.222221,60,56,0
12.222221,12.499999,59,56,0
12.499999,12.777777,60,56,0
12.777777,13.055554,59,56,0
13.055554,13.333332,57,56,0
13.333332,13.61111,52,56,0
13.61111,13.888887,55,56,0
13.888887,14.166665,57,56,0
14.166665,14.444443,59,56,0
14.444443,14.72222,57,56,0
14.72222,14.999998,59,56,0
14.999998,15.277777,57,56,0
15.277777,15.555554,55,56,0
15.555554,15.833332,52,56,0
15.833332,16.111109,55,56,0
16.111109,16.388887,57,56,0
16.388887,16.666664,59,56,0
16.666664,16.944443,57,56,0
16.944443,17.222221,59,56,0
17.222221,17.499998,57,56,0
17.499998,17.777777,55,56,0
17.777777,18.055553,52,56,0
18.055553,18.333332,54,56,0
18.333332,18.611109,55,56,0
18.611109,18.888887,57,56,0
18.888887,19.166664,55,56,0
19.166664,19.444443,57,56,0
19.444443,19.72222,55,56,0
19.72222,19.999998,54,56,0
19.999998,20.277775,50,56,0
20.277775,20.555553,54,56,0
20.555553,20.833332,55,56,0
20.833332,21.111109,57,56,0
21.111109,21.388887,55,56,0
21.388887,21.666664,57,56,0
21.666664,21.944443,55,56,0
21.944443,22.22222,54,56,0
22.22222,22.499998,50,56,0
22.499998,22.777775,52,56,0
22.777775,23.055553,54,56,0
23.055553,23.33333,55,56,0
23.33333,23.611109,54,56,0
23.611109,23.888887,55,56,0
23.888887,24.166664,54,56,0
24.166664,24.444443,52,56,0
24.444443,24.72222,48,56,0
24.72222,24.999998,52,56,0
24.999998,25.277775,54,56,0
25.277775,25.555553,55,56,0
25.555553,25.83333,54,56,0
25.83333,26.111109,55,56,0
26.111109,26.388885,54,56,0
26.388885,26.666664,52,56,0
26.666664,26.94444,48,56,0
26.94444,27.22222,54,56,0
27.22222,27.499998,55,56,0
27.499998,27.777775,57,56,0
27.777775,28.055553,55,56,0
28.055553,28.33333,57,56,0
28.33333,28.611109,55,56,0
28.611109,28.888885,54,56,0
28.888885,29.166664,47,56,0
29.166664,29.44444,55,56,0
29.44444,29.72222,57,56,0
29.72222,29.999996,59,56,0
29.999996,30.277775,57,56,0
30.277775,30.555553,59,56,0
30.555553,30.83333,57,56,0
30.83333,31.111109,55,56,0
31.111109,31.388885,47,56,0
31.388885,31.666664,52,56,0
31.666664,31.94444,54,56,0
31.94444,32.222218,55,56,0
32.222218,32.499996,54,56,0
32.499996,32.777775,55,56,0
32.777775,33.055553,54,56,0
33.055553,33.33333,52,56,0
33.33333,33.611107,45,56,0
33.611107,33.888885,54,56,0
33.888885,34.166664,55,56,0
34.166664,34.444443,57,56,0
34.444443,34.722218,55,56,0
34.722218,34.999996,57,56,0
34.999996,35.277775,55,56,0
35.277775,35.555553,54,56,0
35.555553,35.83333,43,56,0
35.83333,36.111107,57,56,0
36.111107,36.388885,59,56,0
36.388885,36.666664,60,56,0
36.666664,36.94444,59,56,0
36.94444,37.222218,60,56,0
37.222218,37.499996,59,56,0
37.499996,37.777775,57,56,0
37.777775,38.055553,55,56,0
38.055553,38.33333,59,56,0
38.33333,38.611107,60,56,0
38.611107,38.888885,62,56,0
38.888885,39.166664,60,56,0
39.166664,39.44444,62,56,0
39.44444,39.722218,60,56,0
39.722218,39.999996,59,56,0
39.999996,40.277775,55,56,0
40.277775,40.55555,61,56,0
40.55555,40.83333,62,56,0
40.83333,41.111107,64,56,0
41.111107,41.388885,62,56,0
41.388885,41.666664,64,56,0
41.666664,41.94444,62,56,0
41.94444,42.222218,61,56,0
42.222218,42.499996,54,56,0
42.499996,42.777775,63,56,0
42.777775,43.05555,64,56,0
43.05555,43.33333,66,56,0
43.33333,43.611107,64,56,0
43.611107,43.888885,66,56,0
43.888885,44.166664,64,56,0
44.166664,44.44444,63,56,0
44.44444,44.722218,52,56,0
44.722218,44.999996,54,56,0
44.999996,45.277775,55,56,0
45.277775,45.55555,57,56,0
45.55555,45.83333,55,56,0
45.83333,46.111107,57,56,0
46.111107,46.388885,55,56,0
46.388885,46.66666,54,56,0
46.66666,46.94444,52,56,0
46.94444,47.222218,55,56,0
47.222218,47.499996,57,56,0
47.499996,47.777775,59,56,0
47.777775,48.05555,57,56,0
48.05555,48.33333,59,56,0
48.33333,48.611107,57,56,0
48.611107,48.888885,55,56,0
48.888885,49.16666,52,56,0
49.16666,49.44444,57,56,0
49.44444,49.722218,59,56,0
49.722218,49.999996,60,56,0
49.999996,50.27777,59,56,0
50.27777,50.55555,60,56,0
50.55555,50.83333,59,56,0
50.83333,51.111107,57,56,0
51.111107,51.388885,50,56,0
51.388885,51.66666,59,56,0
51.66666,51.94444,60,56,0
51.94444,52.222218,62,56,0
52.222218,52.499996,60,56,0
52.499996,52.77777,62,56,0
52.77777,53.05555,60,56,0
53.05555,53.33333,59,56,0
53.33333,53.611107,48,56,0
53.611107,53.88888,50,56,0
53.88888,54.16666,52,56,0
54.16666,54.44444,53,56,0
54.44444,54.722218,52,56,0
54.722218,54.999996,53,56,0
54.999996,55.27777,52,56,0
55.27777,55.55555,50,56,0
55.55555,55.83333,48,56,0
55.83333,56.111107,50,56,0
56.111107,56.38888,52,56,0
56.38888,56.66666,53,56,0
56.66666,56.94444,52,56,0
56.94444,57.222218,53,56,0
57.222218,57.499992,52,56,0
57.499992,57.77777,50,56,0
57.77777,58.05555,48,56,0
58.05555,58.33333,54,56,0
58.33333,58.611107,55,56,0
58.611107,58.88888,57,56,0
58.88888,59.16666,55,56,0
59.16666,59.44444,57,56,0
59.44444,59.722218,55,56,0
59.722218,59.999992,54,56,0
59.999992,60.27777,47,56,0
60.27777,60.55555,56,56,0
60.55555,60.83333,57,56,0
60.83333,61.111107,59,56,0
61.111107,61.38888,57,56,0
61.38888,61.66666,59,56,0
61.66666,61.94444,57,56,0
61.94444,62.222218,56,56,0
62.222218,62.499992,57,56,0
62.499992,62.77777,59,56,0
62.77777,63.05555,60,56,0
63.05555,63.33333,62,56,0
63.33333,63.611103,60,56,0
63.611103,63.88888,62,56,0
63.88888,64.16666,60,56,0
64.16666,64.444435,59,56,0
64.444435,64.72221,55,56,0
64.72221,64.99999,57,56,0
64.99999,65.27777,59,56,0
65.27777,65.55555,60,56,0
65.55555,65.83333,59,56,0
65.83333,66.11111,60,56,0
66.11111,66.388885,59,56,0
66.388885,66.66666,57,56,0
66.66666,66.944435,54,56,0
66.944435,67.22221,57,56,0
67.22221,67.49999,59,56,0
67.49999,67.77777,60,56,0
67.77777,68.05555,59,56,0
68.05555,68.33333,60,56,0
68.33333,68.61111,59,56,0
68.61111,68.888885,57,56,0
68.888885,69.16666,52,56,0
69.16666,69.444435,57,56,0
69.444435,69.72221,59,56,0
69.72221,69.99999,60,56,0
69.99999,70.27777,59,56,0
70.27777,70.55555,60,56,0
70.55555,70.83333,59,56,0
70.83333,71.11111,57,56,0
71.11111,71.388885,51,56,0
71.388885,71.66666,57,56,0
71.66666,71.944435,59,56,0
71.944435,72.22221,60,56,0
72.22221,72.49999,59,56,0
72.49999,72.77777,60,56,0
72.77777,73.05555,59,56,0
73.05555,73.33333,57,56,0
73.33333,73.61111,51,56,0
73.61111,73.88888,54,56,0
73.88888,74.16666,55,56,0
74.16666,74.444435,57,56,0
74.444435,74.72221,55,56,0
74.72221,74.99999,57,56,0
74.99999,75.27777,55,56,0
75.27777,75.55555,54,56,0
75.55555,75.83333,50,56,0
75.83333,76.11111,56,56,0
76.11111,76.38888,57,56,0
76.38888,76.66666,59,56,0
76.66666,76.944435,57,56,0
76.944435,77.22221,59,56,0
77.22221,77.49999,57,56,0
77.49999,77.77777,56,56,0
77.77777,78.05555,49,56,0
78.05555,78.33333,52,56,0
78.33333,78.61111,54,56,0
78.61111,78.88888,55,56,0
78.88888,79.16666,54,56,0
79.16666,79.444435,55,56,0
79.444435,79.72221,54,56,0
79.72221,79.99999,52,56,0
79.99999,80.27777,48,56,0
80.27777,80.55555,54,56,0
80.55555,80.83333,55,56,0
80.83333,81.1111,57,56,0
81.1111,81.38888,55,56,0
81.38888,81.66666,57,56,0
81.66666,81.944435,55,56,0
81.944435,82.22221,54,56,0
82.22221,82.49999,47,56,0
82.49999,82.77777,52,56,0
82.77777,83.05555,54,56,0
83.05555,83.33333,55,56,0
83.33333,83.6111,54,56,0
83.6111,83.88888,55,56,0
83.88888,84.16666,54,56,0
84.16666,84.444435,52,56,0
84.444435,84.72221,46,56,0
84.72221,84.99999,52,56,0
84.99999,85.27777,54,56,0
85.27777,85.55555,55,56,0
85.55555,85.83333,54,56,0
85.83333,86.1111,55,56,0
86.1111,86.38888,54,56,0
86.38888,86.66666,52,56,0
86.66666,86.944435,47,56,0
86.944435,87.22221,54,56,0
87.22221,87.49999,55,56,0
87.49999,87.77777,57,56,0
87.77777,88.05555,55,56,0
88.05555,88.33333,57,56,0
88.33333,88.6111,55,56,0
88.6111,88.88888,54,56,0
88.88888,89.16666,52,56,0
89.16666,89.444435,55,56,0
89.444435,89.72221,57,56,0
89.72221,89.99999,59,56,0
89.99999,90.27777,57,56,0
90.27777,90.55555,59,56,0
90.55555,90.83332,57,56,0
90.83332,91.1111,55,56,0
91.1111,91.38888,50,56,0
91.38888,91.66666,56,56,0
91.66666,91.944435,57,56,0
91.944435,92.22221,59,56,0
92.22221,92.49999,57,56,0
92.49999,92.77777,59,56,0
92.77777,93.05555,57,56,0
93.05555,93.33332,56,56,0
93.33332,93.6111,48,56,0
93.6111,93.88888,57,56,0
93.88888,94.16666,59,56,0
94.16666,94.444435,60,56,0
94.444435,94.732895,59,56,0
94.732895,95.021355,60,56,0
95.021355,95.30982,59,56,0
95.30982,95.59828,57,56,0
95.59828,95.89828,56,56,0
95.89828,96.19828,59,56,0
96.19828,96.49828,60,56,0
96.49828,96.79828,62,56,0
96.79828,97.11078,60,56,0
97.11078,97.42328,62,56,0
97.42328,97.756615,60,56,0
97.756615,98.131615,59,56,0
98.131615,98.280876,57,64,0
98.280876,98.41976,60,64,0
98.41976,98.558655,62,64,0
98.558655,98.69754,64,64,0
98.69754,98.836426,62,64,0
98.836426,98.97532,64,64,0
98.97532,99.114204,62,64,0
99.114204,99.2531,60,64,0
99.2531,99.39198,57,64,0
99.39198,99.530876,60,64,0
99.530876,99.66976,62,64,0
99.66976,99.808655,64,64,0
99.808655,99.94754,62,64,0
99.94754,100.08643,64,64,0
100.08643,100.22532,62,64,0
100.22532,100.36421,60,64,0
100.36421,100.5031,57,64,0
100.5031,100.64198,62,64,0
100.64198,100.780876,64,64,0
100.780876,100.91976,65,64,0
100.91976,101.058655,64,64,0
101.058655,101.19754,65,64,0
101.19754,101.33643,64,64,0
101.33643,101.47532,62,64,0
101.47532,101.61421,57,64,0
101.61421,101.7531,62,64,0
101.7531,101.89199,64,64,0
101.89199,102.030876,65,64,0
102.030876,102.16977,64,64,0
102.16977,102.308655,65,64,0
102.308655,102.44754,64,64,0
102.44754,102.58643,62,64,0
102.58643,102.72532,56,64,0
102.72532,102.86421,62,64,0
102.86421,103.0031,64,64,0
103.0031,103.14199,65,64,0
103.14199,103.280876,64,64,0
103.280876,103.41977,65,64,0
103.41977,103.558655,64,64,0
103.558655,103.69755,62,64,0
103.69755,103.83643,56,64,0
103.83643,103.97532,59,64,0
103.97532,104.11421,60,64,0
104.11421,104.2531,62,64,0
104.2531,104.39199,60,64,0
104.39199,104.530876,62,64,0
104.530876,104.66977,60,64,0
104.66977,104.808655,59,64,0
104.808655,104.94755,57,64,0
104.94755,105.08643,59,64,0
105.08643,105.22533,60,64,0
105.22533,105.36421,62,64,0
105.36421,105.503105,60,64,0
105.503105,105.64199,62,64,0
105.64199,105.780876,60,64,0
105.780876,105.91977,59,64,0
105.91977,106.058655,57,64,0
106.058655,106.19755,59,64,0
106.19755,106.33643,60,64,0
106.33643,106.47533,62,64,0
106.47533,106.61421,60,64,0
106.61421,106.753105,62,64,0
106.753105,106.89199,60,64,0
106.89199,107.03088,59,64,0
107.03088,107.16977,55,64,0
107.16977,107.308655,61,64,0
107.308655,107.44755,62,64,0
107.44755,107.58643,64,64,0
107.58643,107.72533,62,64,0
107.72533,107.86421,64,64,0
107.86421,108.003105,62,64,0
108.003105,108.14199,61,64,0
108.14199,108.28088,54,64,0
108.28088,108.41977,63,64,0
108.41977,108.55866,64,64,0
108.55866,108.69755,66,64,0
108.69755,108.83644,64,64,0
108.83644,108.97533,66,64,0
108.97533,109.11421,64,64,0
109.11421,109.253105,63,64,0
109.253105,109.39199,64,64,0
109.39199,109.53088,52,64,0
109.53088,109.66977,54,64,0
109.66977,109.80866,55,64,0
109.80866,109.94755,54,64,0
109.94755,110.08644,55,64,0
110.08644,110.22533,54,64,0
110.22533,110.36422,52,64,0
110.36422,110.503105,50,64,0
110.503105,110.642,52,64,0
110.642,110.78088,53,64,0
110.78088,110.91977,55,64,0
110.91977,111.05866,53,64,0
111.05866,111.19755,55,64,0
111.19755,111.33644,53,64,0
111.33644,111.47533,52,64,0
111.47533,111.61422,48,64,0
111.61422,111.753105,54,64,0
111.753105,111.892,56,64,0
111.892,112.03088,57,64,0
112.03088,112.16978,56,64,0
112.16978,112.30866,57,64,0
112.30866,112.44755,56,64,0
112.44755,112.58644,54,64,0
112.58644,112.72533,47,64,0
112.72533,112.86422,56,64,0
112.86422,113.003105,57,64,0
113.003105,113.142,59,64,0
113.142,113.28088,57,64,0
113.28088,113.41978,59,64,0
113.41978,113.55866,57,64,0
113.55866,113.697556,56,64,0
113.697556,113.83644,57,64,0
113.83644,113.975334,45,64,0
113.975334,114.11422,47,64,0
114.11422,114.253105,48,64,0
114.253105,114.392,47,64,0
114.392,114.53088,48,64,0
114.53088,114.66978,47,64,0
114.66978,114.80866,45,64,0
114.80866,114.947556,43,64,0
114.947556,115.08644,45,64,0
115.08644,115.225334,47,64,0
115.225334,115.36422,48,64,0
115.36422,115.50311,47,64,0
115.50311,115.642,48,64,0
115.642,115.78088,47,64,0
115.78088,115.91978,45,64,0
115.91978,116.05866,42,64,0
116.05866,116.197556,45,64,0
116.197556,116.33644,47,64,0
116.33644,116.475334,48,64,0
116.475334,116.61422,47,64,0
116.61422,116.75311,48,64,0
116.75311,116.892,47,64,0
116.892,117.03089,45,64,0
117.03089,117.16978,40,64,0
117.16978,117.30867,45,64,0
117.30867,117.447556,47,64,0
117.447556,117.58644,48,64,0
117.58644,117.725334,47,64,0
117.725334,117.86422,48,64,0
117.86422,118.00311,47,64,0
118.00311,118.142,45,64,0
118.142,118.28089,39,64,0
118.28089,118.41978,45,64,0
118.41978,118.55867,47,64,0
118.55867,118.697556,48,64,0
118.697556,118.83645,47,64,0
118.83645,118.975334,48,64,0
118.975334,119.11423,47,64,0
119.11423,119.25311,45,64,0
119.25311,119.392,40,64,0
119.392,119.53089,43,64,0
119.53089,119.66978,45,64,0
119.66978,119.80867,47,64,0
119.80867,119.947556,45,64,0
119.947556,120.08645,47,64,0
120.08645,120.225334,45,64,0
120.225334,120.36423,43,64,0
120.36423,120.642006,36,64,0
121.61423,121.75311,57,64,0
121.75311,121.892006,59,64,0
121.892006,122.03089,60,64,0
122.03089,122.169785,59,64,0
122.169785,122.30867,60,64,0
122.30867,122.44756,59,64,0
122.44756,122.58645,57,64,0
122.58645,122.86423,49,64,0
123.69756,123.83645,47,64,0
123.83645,123.97534,54,64,0
123.97534,124.11423,55,64,0
124.11423,124.25311,57,64,0
124.25311,124.392006,55,64,0
124.392006,124.53089,57,64,0
124.53089,124.669785,55,64,0
124.669785,124.80867,54,64,0
124.80867,124.94756,47,64,0
124.94756,125.08645,55,64,0
125.08645,125.22534,57,64,0
125.22534,125.36423,59,64,0
125.36423,125.50312,57,64,0
125.50312,125.642006,59,64,0
125.642006,125.7809,57,64,0
125.7809,125.919785,55,64,0
125.919785,126.05867,47,64,0
126.05867,126.19756,57,64,0
126.19756,126.33645,59,64,0
126.33645,126.47534,60,64,0
126.47534,126.61423,59,64,0
126.61423,126.75312,60,64,0
126.75312,126.892006,59,64,0
126.892006,127.0309,57,64,0
127.0309,127.169785,47,64,0
127.169785,127.30868,59,64,0
127.30868,127.44756,60,64,0
127.44756,127.58646,62,64,0
127.58646,127.72534,60,64,0
127.72534,127.86423,62,64,0
127.86423,128.00311,60,64,0
128.00311,128.14201,59,64,0
128.14201,128.2809,47,64,0
128.2809,128.41978,57,64,0
128.41978,128.55867,59,64,0
128.55867,128.69757,60,64,0
128.69757,128.83646,59,64,0
128.83646,128.97534,60,64,0
128.97534,129.11423,59,64,0
129.11423,129.25313,57,64,0
129.25313,129.39201,47,64,0
129.39201,129.5309,55,64,0
129.5309,129.66978,57,64,0
129.66978,129.80867,59,64,0
129.80867,129.94757,57,64,0
129.94757,130.08646,59,64,0
130.08646,130.22534,57,64,0
130.22534,130.36423,55,64,0
130.36423,130.50313,47,64,0
130.50313,130.64201,54,64,0
130.64201,130.7809,55,64,0
130.7809,130.91978,57,64,0
130.91978,131.05867,55,64,0
131.05867,131.19757,57,64,0
131.19757,131.33646,55,64,0
131.33646,131.47534,54,64,0
131.47534,131.61423,55,64,0
131.61423,131.75313,59,64,0
131.75313,131.89201,57,64,0
131.89201,132.0309,55,64,0
132.0309,132.16978,54,64,0
132.16978,132.30869,52,64,0
132.30869,132.44757,51,64,0
132.44757,132.58646,54,64,0
132.72534,132.86423,51,64,0
132.86423,133.00313,52,64,0
133.00313,133.14201,54,64,0
133.14201,133.2809,52,64,0
133.2809,133.41978,54,64,0
133.41978,133.55869,52,64,0
133.55869,133.69757,51,64,0
132.58646,133.69757,47,64,0
133.83646,133.97534,52,64,0
133.97534,134.11424,54,64,0
134.11424,134.25313,55,64,0
134.25313,134.39201,54,64,0
134.39201,134.5309,55,64,0
134.5309,134.66978,54,64,0
134.66978,134.80869,52,64,0
133.69757,134.80869,47,64,0
134.94757,135.08646,54,64,0
135.08646,135.22534,55,64,0
135.22534,135.36424,57,64,0
135.36424,135.50313,55,64,0
135.50313,135.64201,57,64,0
135.64201,135.7809,55,64,0
135.7809,135.9198,54,64,0
134.80869,135.9198,47,64,0
135.9198,136.19757,48,64,0
135.9198,136.19757,52,64,0
137.0309,137.17377,45,64,0
137.17377,137.31662,47,64,0
137.31662,137.46368,48,64,0
137.46368,137.61073,50,64,0
137.61073,137.76225,52,64,0
137.76225,137.91377,54,64,0
137.91377,138.07002,55,64,0
138.07002,138.88908,57,64,0
138.88908,139.07658,57,64,0
139.07658,139.51419,55,64,0
139.51419,140.10022,54,64,0
138.22627,140.10022,47,64,0
140.10022,143.17715,52,64,0
140.10022,143.17715,40,64,0
