start_time,end_time,note_value,velocity,instrument_program_number
0.0,0.1973685,70,64,0
0.1973685,0.394737,67,64,0
0.394737,0.5921055,65,64,0
0.5921055,0.789474,67,64,0
0.789474,0.9868425,63,64,0
0.9868425,1.184211,68,64,0
1.184211,1.3815795,67,64,0
1.3815795,1.578948,68,64,0
1.578948,1.973685,72,64,0
1.973685,2.368422,70,64,0
2.763159,2.9309223,69,64,0
2.9605274,3.157896,65,64,0
3.157896,3.552633,75,64,0
3.552633,3.9309225,74,64,0
3.94737,4.0197387,74,72,0
4.0131593,4.085528,72,64,0
4.078949,4.1513176,74,46,0
4.1447387,4.217107,72,48,0
4.210528,4.2828965,74,50,0
4.2763176,4.3486857,72,52,0
4.342107,4.4144754,74,54,0
4.4078965,4.480265,72,56,0
4.473686,4.5460544,74,58,0
4.5394754,4.611844,72,59,0
4.605265,4.6776333,74,61,0
4.6710544,4.736844,72,63,0
4.736844,4.9342127,70,64,0
4.9342127,5.131581,77,64,0
5.131581,5.3289495,74,64,0
5.3289495,5.526318,70,64,0
5.526318,5.7236867,68,64,0
5.7236867,5.921055,77,64,0
5.921055,6.1184235,74,64,0
6.1184235,6.315792,68,64,0
6.315792,6.710529,67,64,0
6.710529,7.105266,80,64,0
7.105266,7.500003,79,64,0
7.500003,7.89474,77,64,0
7.89474,8.092109,75,64,0
8.092109,8.289477,72,64,0
8.289477,8.486846,74,64,0
8.486846,8.684214,75,64,0
8.684214,9.671057,77,64,0
9.671057,9.868425,75,64,0
9.868425,10.065793,77,64,0
10.065793,10.263162,79,64,0
10.263162,10.46053,80,64,0
10.46053,10.657899,77,64,0
10.657899,10.855268,70,64,0
10.855268,11.052636,80,64,0
11.052636,11.444083,79,64,0
11.447373,11.644741,75,64,0
11.644741,11.84211,79,64,0
11.84211,13.026321,84,64,0
13.026321,13.223689,74,64,0
13.223689,13.421058,77,64,0
13.421058,14.605269,82,64,0
14.605269,14.802637,72,64,0
14.802637,15.000006,75,64,0
15.000006,15.394743,80,64,0
15.394743,15.78948,79,64,0
15.78948,16.578955,77,64,0
16.578955,16.973692,79,64,0
16.973692,17.368427,74,64,0
17.368427,18.552639,75,64,0
18.552639,18.947376,77,64,0
18.947376,20.131586,79,64,0
20.131586,20.526323,81,64,0
20.526323,22.269745,82,64,0
22.31251,22.509878,82,64,0
22.509878,22.707247,79,64,0
22.707247,22.904613,75,64,0
22.904613,23.101982,73,64,0
23.101982,23.29935,82,64,0
23.29935,23.49672,79,64,0
23.49672,23.694088,73,64,0
23.694088,24.088825,72,64,0
24.088825,24.483562,75,64,0
24.483562,25.43751,80,64,0
25.480274,25.67764,80,64,0
25.67764,25.87501,77,64,0
25.87501,26.072378,74,64,0
26.072378,26.269747,72,64,0
26.269747,26.467115,80,64,0
26.467115,26.664484,77,64,0
26.664484,26.861853,72,64,0
26.861853,27.25659,70,64,0
27.25659,27.651327,74,64,0
27.651327,29.427643,79,64,0
29.427643,29.625011,72,64,0
29.625011,29.82238,74,64,0
29.82238,30.019749,75,64,0
30.019749,31.20396,77,64,0
31.20396,31.796066,75,64,0
31.796066,31.993433,74,64,0
31.993433,32.190804,72,64,0
32.190804,32.388172,74,64,0
32.58554,32.78291,75,64,0
32.78291,32.980278,74,64,0
32.980278,33.177647,75,64,0
33.177647,33.57238,79,64,0
33.57238,33.967117,77,64,0
34.361855,34.559223,74,64,0
34.559223,34.75659,70,64,0
34.75659,35.15133,80,64,0
35.15133,35.546066,79,64,0
35.546066,36.332253,77,64,0
36.53291,36.730278,82,64,0
36.730278,36.927647,79,64,0
36.927647,37.125015,75,64,0
37.125015,37.322384,73,64,0
37.322384,37.519753,82,64,0
37.519753,37.71712,79,64,0
37.71712,37.91449,73,64,0
37.91449,38.309227,72,64,0
38.309227,38.703964,80,64,0
39.0987,39.49344,68,64,0
39.49344,39.690804,74,64,0
39.690804,39.888172,80,64,0
39.888172,40.08554,77,64,0
40.08554,40.28291,74,64,0
40.28291,40.480278,72,64,0
40.480278,40.677647,80,64,0
40.677647,40.875015,77,64,0
40.875015,41.072384,72,64,0
41.072384,41.46712,71,64,0
41.46712,41.86186,79,64,0
42.256596,42.651333,67,64,0
42.651333,42.8487,72,64,0
42.8487,43.04607,79,64,0
43.04607,43.24344,76,64,0
43.24344,43.440807,72,64,0
43.440807,43.638176,70,64,0
43.638176,43.835545,79,64,0
43.835545,44.032913,76,64,0
44.032913,44.23028,70,64,0
44.23028,44.42765,69,64,0
44.42765,44.62502,79,64,0
44.62502,44.822388,72,64,0
44.822388,45.019756,67,64,0
45.019756,45.217125,68,64,0
45.217125,45.414494,77,64,0
45.414494,45.611862,74,64,0
45.611862,45.809227,68,64,0
45.809227,46.006596,67,64,0
46.006596,46.203964,77,64,0
46.203964,46.401333,74,64,0
46.401333,46.5987,71,64,0
46.5987,46.79607,67,64,0
46.79607,46.99344,75,64,0
46.99344,47.190807,72,64,0
47.190807,47.388176,67,64,0
47.388176,47.585545,66,64,0
47.585545,47.782913,75,64,0
47.782913,47.98028,72,64,0
47.98028,48.17765,69,64,0
48.17765,48.37502,65,64,0
48.37502,48.572388,74,64,0
48.572388,48.769756,71,64,0
48.769756,48.967125,65,64,0
48.967125,49.164494,64,64,0
49.164494,49.361862,74,64,0
49.361862,49.55923,71,64,0
49.55923,49.7566,67,64,0
49.7566,49.953968,63,64,0
49.953968,50.151337,72,64,0
50.151337,50.348705,67,64,0
50.348705,50.546074,63,64,0
50.546074,50.743443,62,64,0
50.743443,50.94081,72,64,0
50.94081,51.13818,68,64,0
51.13818,51.33555,65,64,0
51.33555,51.532917,62,64,0
51.532917,51.730286,71,64,0
51.730286,51.92765,69,64,0
51.92765,52.12502,71,64,0
52.12502,52.519756,72,64,0
52.519756,52.914494,77,64,0
52.914494,53.30923,75,64,0
53.30923,53.703968,74,64,0
53.703968,53.901337,72,64,0
53.901337,54.098705,69,64,0
54.098705,54.296074,71,64,0
54.296074,54.493443,72,64,0
54.493443,55.480286,74,64,0
55.480286,55.677654,72,64,0
55.677654,55.875023,74,64,0
55.875023,56.07239,75,64,0
56.07239,56.26976,77,64,0
56.26976,56.46713,74,64,0
56.46713,56.664497,67,64,0
56.664497,56.861866,77,64,0
56.861866,57.059235,75,64,0
57.059235,57.256603,79,64,0
57.256603,57.45397,75,64,0
57.45397,57.65134,74,64,0
57.65134,57.84871,72,64,0
57.84871,58.046078,84,64,0
58.046078,58.243443,80,64,0
58.243443,58.44081,77,64,0
58.44081,58.63818,74,64,0
58.63818,58.83555,77,64,0
58.83555,59.032917,74,64,0
59.032917,59.230286,72,64,0
59.230286,59.427654,70,64,0
59.427654,59.625023,82,64,0
59.625023,59.82239,79,64,0
59.82239,60.01976,75,64,0
60.01976,60.21713,72,64,0
60.21713,60.414497,75,64,0
60.414497,60.611866,72,64,0
60.611866,60.809235,70,64,0
60.809235,61.006603,68,64,0
61.006603,61.20397,80,64,0
61.20397,61.40134,77,64,0
61.40134,61.59871,74,64,0
61.59871,62.388184,71,64,0
62.388184,63.572395,72,64,0
63.572395,63.967133,71,64,0
63.967133,64.1645,72,64,0
64.1645,64.36187,71,64,0
64.36187,64.559235,72,64,0
64.559235,64.75661,74,64,0
64.75661,65.151344,75,64,0
65.151344,65.54608,74,64,0
65.54608,65.94082,76,64,0
65.94082,66.335556,78,64,0
66.335556,66.53292,79,64,0
66.53292,66.73029,74,64,0
66.73029,66.92766,72,64,0
66.92766,67.12503,74,64,0
67.322395,67.51976,76,64,0
67.51976,67.71713,74,64,0
67.71713,67.9145,76,64,0
67.9145,68.309235,79,64,0
68.309235,68.70397,77,64,0
69.49345,69.69082,77,64,0
69.69082,69.88818,72,64,0
69.88818,70.085556,70,64,0
70.085556,70.28292,72,64,0
70.48029,70.67766,74,64,0
70.67766,70.87503,72,64,0
70.87503,71.088844,74,64,0
71.072395,71.46713,77,64,0
71.46713,71.86187,75,64,0
72.84872,73.04608,70,64,0
73.04608,73.243454,75,64,0
73.243454,73.44082,72,64,0
73.44082,74.23029,73,64,0
74.42766,74.62503,72,64,0
74.62503,74.822395,77,64,0
74.822395,75.01977,74,64,0
75.01977,75.80924,75,64,0
76.00661,76.20398,74,64,0
76.20398,76.401344,79,64,0
76.401344,76.59872,75,64,0
76.59872,77.38819,77,64,0
77.585556,77.78293,75,64,0
77.78293,77.98029,79,64,0
77.98029,78.177666,82,64,0
78.177666,78.37503,80,64,0
78.37503,78.5724,77,64,0
78.5724,78.76977,73,64,0
78.76977,78.96714,79,64,0
78.96714,79.36188,77,64,0
79.36188,79.75661,80,64,0
79.75661,80.151344,79,64,0
80.151344,80.54608,77,64,0
80.54608,80.743454,75,64,0
80.743454,80.94082,72,64,0
80.94082,81.13819,74,64,0
81.13819,81.335556,75,64,0
81.335556,82.3224,77,64,0
82.3224,82.51977,75,64,0
82.51977,82.71714,77,64,0
82.71714,82.914505,79,64,0
82.914505,83.11188,80,64,0
83.11188,83.30924,77,64,0
83.30924,83.506615,70,64,0
83.506615,83.70398,80,64,0
83.70398,83.90135,79,64,0
83.90135,84.09872,82,64,0
84.09872,84.29609,79,64,0
84.29609,84.493454,75,64,0
84.493454,85.28293,73,64,0
85.28293,85.4803,72,64,0
85.4803,85.677666,84,64,0
85.677666,85.87504,80,64,0
85.87504,86.0724,77,64,0
86.0724,86.77306,75,64,0
86.86188,87.05924,74,64,0
87.05924,87.256615,77,64,0
87.256615,87.45398,74,64,0
87.45398,87.65135,70,64,0
87.65135,88.63819,68,64,0
88.63819,88.83556,67,64,0
88.83556,89.03293,65,64,0
89.03293,89.2303,67,64,0
89.2303,89.427666,63,64,0
89.427666,89.62504,68,64,0
89.62504,89.8224,67,64,0
89.8224,90.019775,68,64,0
90.019775,90.41451,72,64,0
90.41451,90.80925,70,64,0
91.20399,91.40135,69,64,0
91.40135,91.598724,65,64,0
91.598724,91.99346,75,64,0
91.99346,92.37175,74,64,0
92.38819,92.45399,74,72,0
92.45399,92.519775,72,43,0
92.519775,92.58556,74,45,0
92.58556,92.65135,72,47,0
92.65135,92.71714,74,49,0
92.71714,92.78293,72,51,0
92.78293,92.848724,74,53,0
92.848724,92.91451,72,55,0
92.91451,92.9803,74,57,0
92.9803,93.04609,72,59,0
93.04609,93.11188,74,61,0
93.11188,93.177666,72,63,0
93.177666,93.5724,70,64,0
93.5724,93.96714,77,64,0
93.96714,94.36188,74,64,0
94.36188,94.756615,70,64,0
94.756615,96.7303,82,64,0
96.7303,97.12504,75,64,0
97.12504,97.519775,72,64,0
97.519775,97.91451,68,64,0
97.91451,99.8882,80,64,0
99.8882,100.282936,74,64,0
100.282936,100.67767,70,64,0
100.67767,101.07241,67,64,0
101.07241,102.05925,79,64,0
102.05925,102.25662,72,64,0
102.25662,102.45399,74,64,0
102.45399,102.65136,75,64,0
102.65136,102.848724,77,64,0
102.848724,103.0461,75,64,0
103.0461,103.24346,74,64,0
103.24346,103.440834,72,64,0
103.440834,103.6382,70,64,0
103.6382,103.83557,68,64,0
103.83557,104.032936,70,64,0
104.032936,104.23031,72,64,0
104.23031,105.019775,65,64,0
105.41451,105.80925,65,64,0
105.80925,106.20399,75,64,0
106.20399,106.598724,74,64,0
107.3882,107.782936,77,64,0
107.782936,108.57241,75,64,0
108.57241,108.96715,74,64,0
108.96715,109.16452,75,64,0
109.16452,109.361885,79,64,0
109.361885,109.55926,75,64,0
109.55926,109.71715,72,64,0
109.75662,110.74346,68,64,0
110.74346,110.940834,77,64,0
110.940834,111.1382,74,64,0
111.1382,111.33557,70,64,0
111.33557,111.73031,67,64,0
111.73031,112.125046,75,64,0
112.125046,112.915054,67,64,0
112.915054,113.726425,65,64,0
113.93476,114.58012,61,64,0
114.58012,115.298584,60,64,0
115.298584,115.595856,59,64,0
115.595856,117.77767,58,64,0
113.726425,117.77767,63,64,0
6.315792,6.5131607,63,64,0
6.5131607,6.710529,62,64,0
6.710529,6.9078975,60,64,0
6.9078975,7.105266,62,64,0
7.105266,7.3026347,58,64,0
7.3026347,7.500003,63,64,0
7.500003,7.6973715,62,64,0
7.6973715,7.89474,63,64,0
7.89474,8.289477,67,64,0
8.289477,8.684214,65,64,0
9.078951,9.2763195,62,64,0
9.2763195,9.473688,58,64,0
9.473688,9.868425,68,64,0
9.868425,10.246715,67,64,0
10.263162,10.328952,67,74,0
10.328952,10.4013195,65,42,0
10.394741,10.46711,67,44,0
10.46053,10.532899,65,46,0
10.52632,10.598688,67,48,0
10.59211,10.664478,65,51,0
10.657899,10.730268,67,53,0
10.723688,10.796057,65,55,0
10.789478,10.861847,67,57,0
10.855268,10.927636,65,59,0
10.921057,10.993425,67,61,0
10.986847,11.059215,65,63,0
11.052636,11.250005,63,64,0
11.250005,11.447373,70,64,0
11.447373,11.644741,67,64,0
11.644741,11.84211,65,64,0
11.84211,12.039478,63,64,0
12.039478,12.236847,72,64,0
12.236847,12.434216,69,64,0
12.434216,12.631584,65,64,0
12.631584,12.828953,62,64,0
12.828953,13.026321,69,64,0
13.026321,13.223689,65,64,0
13.223689,13.421058,63,64,0
13.421058,13.618426,61,64,0
13.618426,13.815795,70,64,0
13.815795,14.013164,67,64,0
14.013164,14.210532,63,64,0
14.210532,14.407901,60,64,0
14.407901,14.605269,67,64,0
14.605269,14.802637,63,64,0
14.802637,15.000006,60,64,0
15.000006,15.197374,62,64,0
15.197374,15.394743,70,64,0
15.394743,15.592112,63,64,0
15.592112,15.78948,72,64,0
15.78948,16.184217,74,64,0
16.184217,16.578955,73,64,0
16.578955,16.973692,72,64,0
16.973692,17.368427,70,64,0
17.368427,17.565796,68,64,0
17.565796,17.763165,67,64,0
17.763165,17.960533,68,64,0
17.960533,18.157902,70,64,0
18.157902,19.144745,72,64,0
19.144745,19.342113,70,64,0
19.342113,19.539482,72,64,0
19.539482,19.73685,74,64,0
19.73685,19.93422,75,64,0
19.93422,20.131586,72,64,0
20.131586,20.328955,65,64,0
20.328955,20.526323,75,64,0
20.526323,20.92106,74,64,0
20.92106,21.315798,77,64,0
21.315798,21.710535,74,64,0
21.710535,22.105272,70,64,0
22.105272,22.50001,75,64,0
24.473694,24.868431,72,64,0
24.868431,25.263168,68,64,0
25.263168,25.657906,74,64,0
27.63159,28.026327,70,64,0
28.026327,28.421064,67,64,0
28.421064,28.815802,72,64,0
28.815802,29.210539,70,64,0
29.210539,30.19738,68,64,0
30.19738,30.394749,72,64,0
30.394749,30.592117,70,64,0
30.592117,30.789486,68,64,0
30.789486,31.57896,67,64,0
31.57896,32.368435,65,64,0
32.368435,33.552647,70,64,0
33.552647,33.750015,68,64,0
33.750015,33.947384,67,64,0
33.947384,34.342117,68,64,0
34.342117,34.736855,65,64,0
34.736855,35.13159,62,64,0
35.13159,35.940804,75,64,0
35.921066,36.315804,74,64,0
36.315804,36.71054,75,64,0
37.105278,38.019753,63,64,0
38.09212,38.28949,63,64,0
38.28949,38.48686,60,64,0
38.48686,38.684227,56,64,0
38.684227,38.881596,55,64,0
38.881596,39.078964,63,64,0
39.078964,39.276333,60,64,0
39.276333,39.4737,55,64,0
39.4737,39.86844,53,64,0
39.86844,40.263172,56,64,0
40.263172,41.21712,62,64,0
41.259884,41.457253,62,64,0
41.457253,41.65462,59,64,0
41.65462,41.85199,55,64,0
41.85199,42.04936,53,64,0
42.04936,42.246727,62,64,0
42.246727,42.444096,59,64,0
42.444096,42.641464,53,64,0
42.641464,43.0362,52,64,0
43.0362,43.43094,55,64,0
43.43094,45.029625,60,64,0
45.009888,45.404625,59,64,0
45.404625,45.799362,60,64,0
45.799362,46.194096,62,64,0
52.115154,52.31252,60,64,0
52.31252,52.509888,58,64,0
52.509888,52.707256,56,64,0
52.707256,52.904625,58,64,0
52.904625,53.101994,55,64,0
53.101994,53.299362,60,64,0
53.299362,53.49673,59,64,0
53.49673,53.6941,60,64,0
53.6941,54.088837,63,64,0
54.088837,54.483574,62,64,0
54.87831,55.07568,59,64,0
55.07568,55.27305,55,64,0
55.27305,55.667786,65,64,0
55.667786,56.046074,63,64,0
56.062523,56.13489,63,74,0
56.12831,56.20068,62,42,0
56.194103,56.266468,63,44,0
56.25989,56.33226,62,46,0
56.32568,56.39805,63,48,0
56.391468,56.463837,62,51,0
56.45726,56.52963,63,53,0
56.52305,56.595417,62,55,0
56.588837,56.661205,63,57,0
56.65463,56.726997,62,59,0
56.720417,56.792786,63,61,0
56.786205,56.858574,62,63,0
56.851997,57.049366,60,64,0
57.049366,57.246735,59,64,0
57.246735,57.444103,60,64,0
57.444103,57.64147,63,64,0
57.64147,58.82568,68,64,0
58.82568,59.02305,58,64,0
59.02305,59.220417,62,64,0
59.220417,60.40463,67,64,0
60.40463,60.601997,56,64,0
60.601997,60.799366,60,64,0
60.799366,61.78621,65,64,0
61.78621,61.983578,67,64,0
61.983578,62.773052,68,64,0
62.773052,63.16779,67,64,0
63.16779,63.365158,65,64,0
63.365158,63.562527,63,64,0
63.562527,63.759895,65,64,0
63.759895,63.957264,67,64,0
63.957264,64.94411,69,64,0
64.94411,65.14147,67,64,0
65.14147,65.338844,69,64,0
65.338844,65.53621,70,64,0
65.53621,65.73358,72,64,0
65.73358,65.93095,69,64,0
65.93095,66.12832,62,64,0
66.12832,66.32568,72,64,0
66.32568,67.08226,70,64,0
67.12503,68.11187,70,64,0
68.11187,68.309235,73,64,0
68.309235,68.50661,72,64,0
68.50661,68.70397,70,64,0
68.70397,68.901344,68,64,0
68.901344,69.09871,67,64,0
69.09871,69.29608,65,64,0
69.29608,69.49345,67,64,0
69.49345,70.25003,68,64,0
70.29279,71.27963,68,64,0
71.27963,71.477005,72,64,0
71.477005,71.67437,70,64,0
71.67437,71.87174,68,64,0
71.87174,72.06911,67,64,0
72.06911,72.26648,65,64,0
72.26648,72.463844,63,64,0
72.463844,72.66122,65,64,0
72.66122,73.45068,67,64,0
73.648056,73.84542,70,64,0
73.84542,74.04279,67,64,0
74.04279,74.24016,63,64,0
75.227005,75.42437,72,64,0
75.42437,75.62174,69,64,0
75.62174,75.81911,65,64,0
76.805954,77.00332,74,64,0
77.00332,77.20069,71,64,0
77.20069,77.398056,67,64,0
79.37174,79.76648,77,64,0
79.76648,80.16122,75,64,0
80.16122,80.555954,68,64,0
80.555954,80.95069,70,64,0
80.95069,81.148056,68,64,0
81.148056,81.34543,67,64,0
81.34543,81.54279,68,64,0
81.54279,81.740166,74,64,0
81.740166,81.93753,70,64,0
81.93753,82.1349,65,64,0
82.1349,82.52964,62,64,0
82.52964,83.319115,63,64,0
83.319115,83.71385,62,64,0
83.71385,84.10859,63,64,0
84.70069,84.89806,70,64,0
84.89806,85.09543,67,64,0
85.09543,85.2928,63,64,0
85.2928,85.68753,56,64,0
86.27964,86.477005,72,64,0
86.477005,86.67438,69,64,0
86.67438,86.87174,65,64,0
86.87174,87.26648,58,64,0
87.85859,88.069115,65,64,0
88.055954,88.256615,62,64,0
88.25333,88.45069,58,64,0
88.84543,89.240166,61,64,0
89.240166,89.6349,60,64,0
89.6349,90.02964,58,64,0
90.02964,90.22701,56,64,0
90.22701,90.42438,55,64,0
90.42438,90.62175,56,64,0
90.62175,90.819115,58,64,0
90.819115,91.82569,60,64,0
91.805954,92.00333,58,64,0
92.00333,92.20069,60,64,0
92.20069,92.39806,62,64,0
92.39806,92.59543,63,64,0
92.59543,92.7928,60,64,0
92.990166,93.18754,63,64,0
93.18754,93.582275,62,64,0
94.96385,95.161224,70,64,0
95.161224,95.35859,75,64,0
95.35859,95.55596,79,64,0
95.55596,95.75333,73,64,0
95.75333,95.9507,70,64,0
95.9507,96.14806,73,64,0
96.14806,96.345436,79,64,0
96.345436,96.74017,72,64,0
98.12175,98.319115,68,64,0
98.319115,98.51649,74,64,0
98.51649,98.71385,77,64,0
98.71385,98.911224,72,64,0
98.911224,99.10859,68,64,0
99.10859,99.30596,72,64,0
99.30596,99.50333,77,64,0
99.50333,99.89806,70,64,0
101.47701,101.87175,70,64,0
101.87175,103.4507,68,64,0
103.4507,103.845436,67,64,0
103.845436,104.43754,63,64,0
104.43754,104.63491,62,64,0
104.63491,104.832275,60,64,0
104.832275,105.02965,62,64,0
105.02965,105.22701,58,64,0
105.22701,105.424385,63,64,0
105.424385,105.62175,62,64,0
105.62175,105.81912,63,64,0
105.81912,106.21386,66,64,0
106.21386,106.6086,65,64,0
107.003334,107.2007,62,64,0
107.2007,107.39807,58,64,0
107.39807,107.79281,68,64,0
107.79281,108.1711,67,64,0
108.187546,108.253334,67,72,0
108.253334,108.31912,65,43,0
108.31912,108.38491,67,50,0
108.38491,108.4507,65,56,0
108.4507,108.51649,67,62,0
108.51649,108.97702,65,89,0
108.97702,109.77307,63,64,0
110.16123,110.55596,65,64,0
110.55596,111.74017,58,64,0
111.74017,112.33228,65,64,0
112.33228,112.52965,62,64,0
112.52965,112.72702,63,64,0
112.72702,113.12789,58,64,0
113.12789,113.33059,60,64,0
113.33059,113.533295,62,64,0
113.533295,113.945175,56,64,0
114.15487,114.37226,58,64,0
114.37226,114.822426,55,64,0
114.822426,115.05608,56,64,0
115.05608,115.60949,53,64,0
115.60949,117.791306,55,64,0
15.78948,15.986849,58,64,0
15.986849,16.184217,55,64,0
16.184217,16.381586,53,64,0
16.381586,16.578955,55,64,0
16.578955,16.776323,51,64,0
16.776323,16.973692,56,64,0
16.973692,17.171059,55,64,0
17.171059,17.368427,56,64,0
17.368427,17.763165,60,64,0
17.763165,18.157902,58,64,0
18.552639,18.750008,57,64,0
18.750008,18.947376,53,64,0
18.947376,19.342113,63,64,0
19.342113,19.720402,62,64,0
19.73685,19.802639,62,74,0
19.802639,19.875008,60,43,0
19.86843,19.940798,62,45,0
19.93422,20.006586,60,47,0
20.000008,20.072376,62,49,0
20.065798,20.138166,60,51,0
20.131586,20.203955,62,53,0
20.197376,20.269745,60,56,0
20.263166,20.335535,62,58,0
20.328955,20.401323,60,60,0
20.394745,20.467113,62,62,0
20.460535,20.526323,60,73,0
20.526323,20.723692,58,64,0
20.723692,20.92106,65,64,0
20.92106,21.11843,62,64,0
21.11843,21.315798,58,64,0
21.315798,21.513166,56,64,0
21.513166,21.710535,65,64,0
21.710535,21.907904,62,64,0
21.907904,22.105272,56,64,0
22.105272,22.50001,55,64,0
22.50001,22.894747,63,64,0
23.289482,23.68422,51,64,0
23.68422,23.881588,56,64,0
23.881588,24.078957,63,64,0
24.078957,24.276325,60,64,0
24.276325,24.473694,56,64,0
24.473694,24.671062,55,64,0
24.671062,24.868431,63,64,0
24.868431,25.0658,60,64,0
25.0658,25.263168,55,64,0
25.263168,25.657906,53,64,0
25.657906,26.052643,62,64,0
26.447378,26.842115,50,64,0
26.842115,27.039484,55,64,0
27.039484,27.236853,62,64,0
27.236853,27.434221,58,64,0
27.434221,27.63159,55,64,0
27.63159,27.828959,53,64,0
27.828959,28.026327,61,64,0
28.026327,28.223696,58,64,0
28.223696,28.421064,55,64,0
28.421064,28.618433,52,64,0
28.618433,28.815802,60,64,0
28.815802,29.01317,55,64,0
29.01317,29.210539,52,64,0
29.210539,29.407906,53,64,0
29.407906,29.605274,60,64,0
29.605274,29.802643,56,64,0
29.802643,30.000011,53,64,0
30.000011,30.19738,50,64,0
30.19738,30.394749,58,64,0
30.394749,30.592117,53,64,0
30.592117,30.789486,50,64,0
30.789486,30.986855,51,64,0
30.986855,31.184223,58,64,0
31.184223,31.381592,55,64,0
31.381592,31.57896,51,64,0
31.57896,31.973698,48,64,0
31.973698,32.368435,56,64,0
32.368435,32.763172,55,64,0
32.763172,33.15791,53,64,0
33.15791,33.355278,51,64,0
33.355278,33.552647,48,64,0
33.552647,33.750015,50,64,0
33.750015,33.947384,51,64,0
33.947384,34.934223,53,64,0
34.934223,35.13159,51,64,0
35.13159,35.32896,53,64,0
35.32896,35.52633,55,64,0
35.52633,35.723698,56,64,0
35.723698,35.921066,53,64,0
35.921066,36.118435,46,64,0
36.118435,36.315804,56,64,0
36.315804,36.71054,55,64,0
36.71054,37.105278,58,64,0
37.105278,37.500015,55,64,0
37.500015,37.894753,51,64,0
37.894753,38.28949,56,64,0
40.263172,40.65791,53,64,0
40.65791,41.052647,50,64,0
41.052647,41.447384,55,64,0
43.42107,43.815807,52,64,0
43.815807,44.210545,48,64,0
44.210545,44.60528,53,64,0
44.60528,45.00002,51,64,0
45.00002,45.394756,50,64,0
45.394756,45.789494,48,64,0
45.789494,46.18423,47,64,0
46.18423,46.578964,43,64,0
46.578964,46.9737,48,64,0
46.9737,47.36844,46,64,0
47.36844,47.763176,45,64,0
47.763176,48.157913,57,64,0
48.157913,48.55265,59,64,0
48.55265,48.947388,55,64,0
48.947388,49.342125,60,64,0
49.342125,49.736862,55,64,0
49.736862,50.1316,56,64,0
50.1316,50.526337,51,64,0
50.526337,50.921074,53,64,0
50.921074,51.118443,51,64,0
51.118443,51.31581,53,64,0
51.31581,51.71055,55,64,0
51.71055,52.105286,43,64,0
52.105286,52.500023,48,64,0
61.57897,61.77634,55,64,0
61.77634,61.97371,51,64,0
61.97371,62.171078,50,64,0
62.171078,62.368446,51,64,0
62.368446,62.565815,48,64,0
62.565815,62.763184,53,64,0
62.763184,62.960552,51,64,0
62.960552,63.15792,53,64,0
63.15792,63.552658,56,64,0
63.552658,63.947395,55,64,0
64.34213,64.5395,54,64,0
64.5395,64.73687,50,64,0
64.73687,65.13161,60,64,0
65.13161,65.49345,58,64,0
65.53621,65.60858,58,72,0
65.602,65.67437,57,64,0
65.667786,65.74016,58,46,0
65.73358,65.80595,57,48,0
65.79937,65.871735,58,50,0
65.86516,65.93752,57,52,0
65.93095,66.00332,58,54,0
65.996735,66.06911,57,56,0
66.06252,66.134895,58,58,0
66.12832,66.20068,57,59,0
66.19411,66.26647,58,61,0
66.259895,66.32568,57,63,0
66.32568,66.523056,55,64,0
66.523056,66.72042,58,64,0
66.72042,66.91779,56,64,0
66.91779,67.11516,58,64,0
67.11516,67.31253,55,64,0
67.31253,67.509895,56,64,0
67.509895,67.70726,53,64,0
67.70726,67.90463,55,64,0
67.90463,68.102,52,64,0
68.102,68.29937,60,64,0
68.29937,68.496735,56,64,0
68.496735,68.69411,53,64,0
68.69411,68.89147,48,64,0
68.89147,69.088844,53,64,0
69.088844,69.28621,48,64,0
69.28621,69.48358,44,64,0
69.48358,69.68095,41,64,0
69.68095,69.87832,56,64,0
69.87832,70.07568,55,64,0
70.07568,70.273056,56,64,0
70.273056,70.47042,53,64,0
70.47042,70.66779,55,64,0
70.66779,70.86516,51,64,0
70.86516,71.06253,53,64,0
71.06253,71.259895,50,64,0
71.259895,71.45727,58,64,0
71.45727,71.65463,55,64,0
71.65463,71.852005,51,64,0
71.852005,72.04937,46,64,0
72.04937,72.24674,51,64,0
72.24674,72.44411,46,64,0
72.44411,72.64148,43,64,0
72.64148,73.03622,39,64,0
73.03622,73.430954,51,64,0
73.430954,73.82569,53,64,0
73.82569,74.22042,55,64,0
74.22042,74.61516,56,64,0
74.61516,75.009895,53,64,0
75.009895,75.40463,55,64,0
75.40463,75.79937,57,64,0
75.79937,76.19411,58,64,0
76.19411,76.588844,55,64,0
76.588844,76.98358,57,64,0
76.98358,77.37832,59,64,0
77.37832,77.773056,60,64,0
77.773056,78.16779,48,64,0
78.16779,78.56253,50,64,0
78.56253,79.15464,51,64,0
79.15464,79.352005,50,64,0
79.352005,79.54938,48,64,0
79.54938,79.74674,50,64,0
79.74674,79.944115,46,64,0
79.944115,80.14148,51,64,0
80.14148,80.338844,50,64,0
80.338844,80.53622,51,64,0
80.53622,80.930954,55,64,0
80.930954,81.32569,53,64,0
81.72043,81.91779,50,64,0
81.91779,82.115166,46,64,0
82.115166,82.5099,56,64,0
82.5099,82.90464,55,64,0
82.90464,83.694115,53,64,0
83.694115,84.08885,51,64,0
84.08885,84.48359,39,64,0
84.48359,84.87833,41,64,0
84.87833,85.27306,43,64,0
85.27306,85.6678,44,64,0
85.6678,86.06254,41,64,0
86.06254,86.45727,43,64,0
86.45727,86.852005,45,64,0
86.852005,87.2303,46,64,0
87.24674,87.64148,46,64,0
87.64148,88.03622,48,64,0
88.03622,88.430954,50,64,0
88.430954,90.99675,51,64,0
90.99675,91.194115,50,64,0
91.194115,91.39149,51,64,0
91.39149,91.58885,53,64,0
91.58885,92.18096,55,64,0
92.18096,92.37833,53,64,0
92.37833,92.77306,51,64,0
92.77306,93.1678,53,64,0
93.1678,93.365166,46,64,0
93.365166,93.56254,53,64,0
93.56254,93.7599,50,64,0
93.7599,93.957275,46,64,0
93.957275,94.15464,44,64,0
94.15464,94.35201,53,64,0
94.35201,94.54938,50,64,0
94.54938,94.74675,44,64,0
94.74675,95.14149,43,64,0
95.14149,95.536224,55,64,0
95.93096,96.3257,39,64,0
96.3257,96.52306,44,64,0
96.52306,96.720436,51,64,0
96.720436,96.9178,48,64,0
96.9178,97.11517,44,64,0
97.11517,97.31254,43,64,0
97.31254,97.50991,51,64,0
97.50991,97.707275,48,64,0
97.707275,97.90465,43,64,0
97.90465,98.30596,41,64,0
98.299385,98.7007,53,64,0
99.08885,99.48359,38,64,0
99.48359,99.68096,43,64,0
99.68096,99.87833,50,64,0
99.87833,100.0757,46,64,0
100.0757,100.27306,43,64,0
100.27306,100.470436,41,64,0
100.470436,100.6678,50,64,0
100.6678,100.86517,46,64,0
100.86517,101.06254,41,64,0
101.06254,101.25991,40,64,0
101.25991,101.457275,48,64,0
101.457275,101.65465,43,64,0
101.65465,101.85201,40,64,0
101.85201,102.049385,41,64,0
102.049385,102.24675,48,64,0
102.24675,102.44412,44,64,0
102.44412,102.64149,41,64,0
102.64149,102.83886,38,64,0
102.83886,103.036224,46,64,0
103.036224,103.2336,41,64,0
103.2336,103.43096,38,64,0
103.43096,103.628334,39,64,0
103.628334,103.8257,46,64,0
103.8257,104.02307,43,64,0
104.02307,104.220436,39,64,0
104.220436,104.61517,46,64,0
104.61517,105.00991,53,64,0
105.00991,105.40465,50,64,0
105.40465,105.799385,46,64,0
105.799385,106.19412,57,64,0
106.19412,106.58886,56,64,0
106.786224,106.9836,56,64,0
106.9836,107.18096,53,64,0
107.18096,107.378334,50,64,0
107.378334,107.77307,46,64,0
107.77307,108.16781,51,64,0
108.16781,108.562546,58,64,0
108.562546,108.95728,59,64,0
108.95728,109.911224,60,64,0
109.953995,110.15136,60,64,0
110.15136,110.34873,56,64,0
110.34873,110.5461,53,64,0
110.5461,110.940834,50,64,0
110.940834,111.33557,46,64,0
111.532936,111.73031,51,64,0
111.73031,111.92767,48,64,0
111.92767,112.125046,44,64,0
112.125046,113.726425,46,64,0
113.726425,117.77767,39,64,0
