start_time,end_time,note_value,velocity,instrument_program_number
8.152175,8.315219,64,64,0
8.315219,8.478262,63,64,0
8.478262,8.804349,64,64,0
8.804349,9.130436,66,64,0
9.130436,9.456523,67,64,0
9.456523,9.619567,67,64,0
9.619567,9.78261,66,64,0
9.78261,10.108697,67,64,0
10.108697,10.434784,69,64,0
10.434784,10.597828,71,64,0
10.597828,10.760871,69,64,0
10.760871,10.923915,67,64,0
10.923915,11.086958,69,64,0
11.086958,11.413045,71,64,0
11.413045,11.739132,72,64,0
11.739132,12.065219,63,64,0
12.065219,12.391306,59,64,0
12.717393,13.04348,64,64,0
13.04348,13.206524,66,64,0
13.206524,13.369567,67,64,0
13.369567,13.532611,64,64,0
13.532611,13.695654,66,64,0
13.695654,13.858698,67,64,0
13.858698,14.021741,69,64,0
14.021741,14.184785,66,64,0
14.184785,14.347828,67,64,0
14.347828,14.673915,69,64,0
14.673915,15.000002,67,64,0
15.000002,15.326089,66,64,0
15.326089,15.652176,71,64,0
15.652176,15.978263,64,64,0
15.978263,16.141306,66,64,0
16.141306,16.30435,68,64,0
16.30435,16.467394,69,64,0
16.467394,16.630438,71,64,0
16.630438,16.79348,72,64,0
16.79348,16.956524,74,64,0
16.956524,17.282612,76,64,0
17.282612,17.608698,69,64,0
17.608698,18.260872,68,64,0
18.260872,18.58696,69,64,0
18.58696,18.913046,69,64,0
18.913046,19.239134,67,64,0
19.239134,19.56522,65,64,0
19.56522,19.891308,64,64,0
19.891308,20.217394,72,64,0
20.217394,20.543482,71,64,0
20.543482,20.869568,69,64,0
20.869568,21.195656,68,64,0
21.195656,21.521742,76,64,0
21.521742,21.84783,74,64,0
21.84783,22.173916,72,64,0
22.33696,22.500004,72,64,0
22.500004,22.663046,74,64,0
22.663046,22.82609,71,64,0
22.82609,22.989134,72,64,0
22.989134,23.152178,71,64,0
23.31522,23.478264,72,64,0
23.478264,23.641308,74,64,0
23.641308,23.804352,76,64,0
23.804352,23.967394,77,64,0
23.967394,24.130438,74,64,0
24.130438,25.1087,76,64,0
25.1087,25.434786,69,64,0
25.434786,25.59783,71,64,0
25.59783,25.760874,72,64,0
25.760874,26.413048,74,64,0
26.413048,26.739134,72,64,0
26.739134,27.065222,71,64,0
27.065222,27.391308,69,64,0
27.391308,27.717396,67,64,0
27.717396,28.043482,76,64,0
28.043482,28.36957,74,64,0
28.36957,28.695656,72,64,0
28.695656,29.34783,71,64,0
29.673918,30.326092,69,64,0
30.326092,30.489134,67,64,0
30.489134,30.652178,66,64,0
30.652178,30.815222,67,64,0
30.815222,30.978266,69,64,0
30.978266,31.141308,71,64,0
31.141308,31.304352,67,64,0
31.304352,31.956526,72,64,0
32.28261,32.6087,71,64,0
32.6087,32.771744,69,64,0
32.771744,32.934788,67,64,0
32.934788,33.09783,69,64,0
33.09783,33.260876,71,64,0
33.260876,33.58696,72,64,0
33.58696,33.913048,66,64,0
33.913048,34.07609,71,64,0
34.07609,34.239136,69,64,0
34.239136,34.40218,72,64,0
34.40218,34.565224,71,64,0
34.565224,34.728264,69,64,0
34.728264,34.891308,67,64,0
34.891308,35.05435,66,64,0
35.05435,35.217396,67,64,0
35.543484,35.706528,76,64,0
35.706528,35.86957,77,64,0
35.86957,36.195656,76,64,0
36.195656,36.521744,74,64,0
36.521744,36.84783,72,64,0
36.84783,37.010876,72,64,0
37.010876,37.17392,74,64,0
37.17392,37.500004,72,64,0
37.500004,37.82609,71,64,0
37.989136,38.15218,71,64,0
38.15218,38.315224,72,64,0
38.315224,38.478268,71,64,0
38.478268,38.80435,69,64,0
38.80435,39.13044,67,64,0
39.13044,39.456528,78,64,0
39.456528,39.782616,81,64,0
40.1087,40.434788,76,64,0
40.434788,40.59783,74,64,0
40.59783,40.760876,72,64,0
40.760876,40.92392,76,64,0
40.92392,41.086964,74,64,0
41.086964,41.250004,72,64,0
41.250004,41.413048,71,64,0
41.413048,41.57609,74,64,0
41.57609,41.739136,72,64,0
41.739136,42.065224,71,64,0
42.065224,42.39131,72,64,0
42.39131,42.55435,74,64,0
42.55435,42.717396,71,64,0
42.717396,42.88044,69,64,0
42.88044,43.043484,67,64,0
43.043484,43.125008,76,64,0
43.125008,43.206528,78,64,0
43.206528,43.36957,76,64,0
43.36957,43.532616,78,64,0
43.532616,43.69566,79,64,0
43.69566,44.184788,78,64,0
44.184788,44.32066,79,64,0
44.355984,45.98642,79,64,0
45.98642,46.149464,79,64,0
46.149464,46.312508,81,64,0
46.312508,46.63859,79,64,0
46.63859,46.96468,77,64,0
46.96468,47.127724,76,64,0
47.127724,47.290768,74,64,0
47.290768,47.45381,72,64,0
47.45381,47.616856,74,64,0
47.616856,47.779896,76,64,0
47.779896,47.94294,77,64,0
47.94294,48.43207,79,64,0
48.43207,48.595116,77,64,0
48.595116,48.75816,76,64,0
48.75816,48.921204,77,64,0
48.921204,49.084244,79,64,0
49.084244,49.247288,81,64,0
49.247288,49.41033,82,64,0
49.41033,49.573376,79,64,0
49.573376,50.062508,81,64,0
50.062508,50.22555,82,64,0
50.22555,50.71468,79,64,0
50.71468,50.877724,81,64,0
50.877724,51.040768,77,64,0
51.040768,51.20381,76,64,0
51.20381,51.366856,77,64,0
51.366856,51.5299,79,64,0
51.5299,51.855984,81,64,0
51.855984,52.18207,69,64,0
52.18207,52.345116,74,64,0
52.345116,52.50816,79,64,0
52.50816,52.671204,77,64,0
52.834248,52.888596,77,64,0
52.888596,52.942944,76,64,0
52.942944,52.99729,77,64,0
52.99729,53.051636,76,64,0
53.051636,53.105984,77,64,0
53.105984,53.323376,76,64,0
53.323376,53.459248,74,64,0
53.49457,54.47283,74,64,0
54.47283,54.79892,76,64,0
54.79892,56.755444,77,64,0
56.918488,57.081528,76,64,0
57.081528,57.24457,74,64,0
57.24457,57.407616,72,64,0
57.407616,57.733704,71,64,0
57.733704,58.385876,72,64,0
58.385876,58.711964,71,64,0
58.711964,59.690224,72,64,0
59.690224,60.01631,70,64,0
60.01631,61.32066,69,64,0
61.646748,61.972836,68,64,0
61.972836,62.29892,69,64,0
62.29892,62.625008,71,64,0
62.625008,63.277184,64,64,0
63.440228,63.603268,66,64,0
63.603268,63.76631,68,64,0
63.76631,63.929356,69,64,0
63.929356,64.0924,71,64,0
64.0924,64.25544,72,64,0
64.41849,64.58153,72,64,0
64.58153,65.55979,74,64,0
65.55979,66.21197,72,64,0
66.21197,66.864136,71,64,0
66.864136,67.02718,69,64,0
67.02718,67.19022,68,64,0
67.19022,68.494576,69,64,0
68.494576,69.14675,68,64,0
69.14675,69.47283,69,64,0
69.47283,69.63588,69,64,0
69.63588,69.79892,68,64,0
69.79892,70.12501,69,64,0
70.12501,70.451096,71,64,0
70.451096,70.77718,72,64,0
70.77718,70.94022,72,64,0
70.94022,71.10327,71,64,0
71.10327,71.42936,72,64,0
71.42936,71.75545,74,64,0
71.75545,71.91849,76,64,0
71.91849,72.08153,74,64,0
72.08153,72.244576,72,64,0
72.244576,72.407616,74,64,0
72.407616,72.7337,76,64,0
72.7337,73.05979,77,64,0
73.05979,73.38588,68,64,0
73.38588,73.71197,64,64,0
74.038055,74.36414,69,64,0
74.36414,74.52718,71,64,0
74.52718,74.69022,72,64,0
74.69022,74.85327,69,64,0
74.85327,75.01631,71,64,0
75.01631,75.17936,72,64,0
75.17936,75.3424,74,64,0
75.3424,75.50545,71,64,0
75.50545,75.66849,72,64,0
75.66849,75.994576,74,64,0
75.994576,76.32066,72,64,0
76.32066,76.64675,71,64,0
76.64675,76.97284,76,64,0
76.97284,77.29892,69,64,0
77.29892,77.951096,81,64,0
77.951096,78.60327,79,64,0
78.60327,78.76631,84,64,0
78.76631,78.92936,83,64,0
78.92936,79.0924,81,64,0
79.0924,79.25545,79,64,0
79.25545,79.41849,78,64,0
79.41849,79.581535,76,64,0
79.581535,79.907616,75,64,0
79.907616,80.2337,71,64,0
80.2337,80.55979,73,64,0
80.55979,80.88588,75,64,0
80.88588,81.04893,76,64,0
81.04893,81.21197,74,64,0
81.21197,81.37501,72,64,0
81.37501,81.538055,71,64,0
81.538055,82.19023,72,64,0
82.19023,82.51631,71,64,0
82.51631,82.67936,76,64,0
82.67936,82.8424,75,64,0
82.8424,83.16849,76,64,0
83.16849,83.494576,78,64,0
83.494576,83.82066,79,64,0
83.82066,83.9837,79,64,0
83.9837,84.14675,78,64,0
84.14675,84.47284,79,64,0
84.47284,84.79893,81,64,0
84.79893,87.081535,71,64,0
87.081535,87.244576,76,64,0
87.244576,87.40762,74,64,0
87.40762,87.57066,72,64,0
87.57066,87.7337,71,64,0
87.7337,87.89675,69,64,0
87.89675,88.05979,71,64,0
88.05979,88.38588,72,64,0
88.38588,88.54893,71,64,0
88.54893,88.71197,69,64,0
88.71197,89.36414,67,64,0
89.36414,90.3424,72,64,0
90.3424,90.50545,71,64,0
90.50545,90.66849,69,64,0
90.66849,90.994576,71,64,0
90.994576,91.32066,73,64,0
91.32066,92.951096,74,64,0
92.951096,93.11414,72,64,0
93.11414,93.27718,71,64,0
93.27718,93.60327,72,64,0
93.60327,93.92936,74,64,0
93.92936,94.25545,76,64,0
94.25545,94.581535,69,64,0
94.581535,95.39675,81,64,0
95.39675,95.55979,80,64,0
95.55979,95.72284,81,64,0
95.72284,95.88588,80,64,0
95.88588,96.21197,81,64,0
96.21197,96.538055,83,64,0
96.538055,97.51632,76,64,0
97.51632,97.67936,74,64,0
97.67936,97.84241,72,64,0
97.84241,98.16849,71,64,0
98.16849,98.331535,76,64,0
98.331535,98.494576,74,64,0
98.494576,98.65762,72,64,0
98.65762,98.82066,71,64,0
98.98371,99.14675,68,64,0
99.14675,99.47284,69,64,0
99.79893,100.125015,68,64,0
100.4511,101.10327,69,64,0
109.90762,110.07066,72,64,0
110.07066,110.23371,71,64,0
110.23371,110.5598,72,64,0
110.5598,110.88589,74,64,0
110.88589,111.211975,76,64,0
111.211975,111.375015,76,64,0
111.375015,111.538055,74,64,0
111.538055,111.86414,76,64,0
111.86414,112.19023,77,64,0
112.19023,112.35328,79,64,0
112.35328,112.51632,77,64,0
112.51632,112.67936,76,64,0
112.67936,112.84241,77,64,0
112.84241,113.168495,79,64,0
113.168495,113.49458,81,64,0
113.49458,113.82067,71,64,0
113.82067,114.14675,67,64,0
114.47284,114.79893,72,64,0
114.79893,114.961975,74,64,0
114.961975,115.125015,76,64,0
115.125015,115.288055,72,64,0
115.288055,115.4511,74,64,0
115.4511,115.61414,76,64,0
115.61414,115.77719,77,64,0
115.77719,115.94023,74,64,0
115.94023,116.10328,76,64,0
116.10328,116.42937,77,64,0
116.42937,116.75545,76,64,0
116.75545,117.081535,74,64,0
117.081535,117.40762,79,64,0
117.40762,117.57067,72,64,0
117.57067,117.73371,71,64,0
117.73371,117.89675,74,64,0
117.89675,118.0598,72,64,0
118.0598,118.22284,71,64,0
118.22284,118.38589,69,64,0
118.38589,118.54893,67,64,0
118.54893,118.711975,65,64,0
118.711975,119.03806,64,64,0
119.03806,119.2011,65,64,0
119.2011,119.36414,67,64,0
119.36414,119.52719,69,64,0
119.52719,119.69023,71,64,0
119.69023,119.85328,72,64,0
119.85328,120.01632,74,64,0
120.01632,120.34241,71,64,0
120.34241,120.50545,69,64,0
120.50545,120.668495,67,64,0
120.668495,121.97284,72,64,0
121.97284,122.625015,71,64,0
122.625015,122.9511,72,64,0
122.9511,123.11414,76,64,0
123.11414,123.27719,77,64,0
123.27719,123.60328,76,64,0
123.60328,123.92937,74,64,0
123.92937,124.255455,72,64,0
124.255455,124.581535,73,64,0
124.581535,124.90762,74,64,0
124.90762,125.23371,76,64,0
125.23371,125.5598,69,64,0
125.5598,125.72284,74,64,0
125.72284,125.88589,76,64,0
125.88589,126.211975,74,64,0
126.211975,126.53806,72,64,0
126.53806,126.7011,71,64,0
126.7011,126.86415,72,64,0
126.86415,127.02719,74,64,0
127.02719,127.19023,72,64,0
127.19023,127.51632,71,64,0
127.51632,127.84241,69,64,0
127.84241,128.49458,67,64,0
137.29893,137.46198,74,64,0
137.46198,137.62502,76,64,0
137.62502,137.95111,74,64,0
137.95111,138.27719,72,64,0
138.27719,138.60329,71,64,0
138.60329,138.76633,71,64,0
138.76633,138.92937,72,64,0
138.92937,139.25545,71,64,0
139.25545,139.58154,69,64,0
139.58154,139.74458,67,64,0
139.74458,139.90762,69,64,0
139.90762,140.07066,71,64,0
140.07066,140.23372,69,64,0
140.23372,140.5598,67,64,0
140.5598,140.8859,66,64,0
140.8859,141.21198,76,64,0
141.21198,141.53806,79,64,0
141.86415,142.19023,74,64,0
142.35329,142.51633,71,64,0
142.51633,142.67937,74,64,0
142.67937,142.8424,72,64,0
142.8424,143.00545,71,64,0
143.00545,143.1685,69,64,0
143.1685,143.33154,72,64,0
143.33154,143.49458,71,64,0
143.49458,143.82068,69,64,0
143.82068,144.14676,71,64,0
144.14676,144.47284,72,64,0
144.47284,144.79893,67,64,0
144.79893,144.96198,74,64,0
144.96198,145.12502,76,64,0
145.12502,145.28806,74,64,0
145.28806,145.45111,76,64,0
145.45111,145.50545,77,70,0
145.50545,145.5598,76,50,0
145.5598,145.61415,77,52,0
145.61415,145.6685,76,54,0
145.6685,145.72284,77,57,0
145.72284,145.77719,76,59,0
145.77719,145.83154,77,61,0
145.83154,145.94023,76,63,0
145.94023,146.02176,74,64,0
146.02176,146.10329,76,64,0
146.10329,147.73372,77,64,0
147.73372,147.89676,76,64,0
147.89676,148.0598,77,64,0
148.0598,148.3859,76,64,0
148.3859,148.71198,74,64,0
148.71198,149.03807,72,64,0
149.03807,149.20111,72,64,0
149.20111,149.36415,74,64,0
149.36415,149.69023,72,64,0
149.69023,150.01633,71,64,0
150.01633,150.17937,69,64,0
150.17937,150.3424,71,64,0
150.3424,150.50545,72,64,0
150.50545,150.6685,71,64,0
150.6685,150.99458,69,64,0
150.99458,151.32068,67,64,0
151.32068,151.64676,77,64,0
151.64676,151.97284,81,64,0
152.29893,152.62502,76,64,0
152.62502,152.78807,74,64,0
152.78807,152.95111,72,64,0
152.95111,153.11415,76,64,0
153.11415,153.27719,74,64,0
153.27719,153.44023,72,64,0
153.44023,153.60329,71,64,0
153.60329,153.76633,74,64,0
153.76633,153.92937,72,64,0
153.92937,154.90762,71,64,0
154.90762,155.39676,69,64,0
155.39676,155.5598,71,64,0
155.5598,155.72284,68,64,0
155.72284,155.8859,69,64,0
155.8859,156.70111,71,64,0
156.70111,156.86415,72,64,0
156.86415,157.02719,69,64,0
157.02719,157.19023,71,64,0
157.19023,158.00546,72,64,0
158.00546,158.1685,74,64,0
158.1685,158.33154,71,64,0
158.33154,158.49458,72,64,0
158.49458,158.65762,74,64,0
158.65762,158.82068,72,64,0
158.82068,158.98372,71,64,0
158.98372,159.14676,69,64,0
159.14676,159.3098,68,64,0
159.3098,159.47285,71,64,0
159.47285,159.6359,72,64,0
159.6359,159.79893,74,64,0
159.79893,159.96198,76,64,0
159.96198,160.12502,77,64,0
160.12502,160.61415,79,64,0
160.61415,160.77719,81,64,0
160.77719,160.94023,79,64,0
160.94023,161.10329,77,64,0
161.10329,161.9185,79,64,0
161.9185,162.08154,77,64,0
162.08154,162.24458,76,64,0
162.24458,162.40762,77,64,0
162.40762,163.22285,79,64,0
163.22285,163.3859,82,64,0
163.3859,163.54893,81,64,0
163.54893,163.71198,79,64,0
163.71198,163.87502,77,64,0
163.87502,164.03807,76,64,0
164.03807,164.20111,74,64,0
164.20111,164.36415,73,64,0
164.36415,164.52719,74,64,0
164.52719,164.69025,76,64,0
164.69025,164.85329,74,64,0
164.85329,165.01633,76,64,0
165.01633,165.07068,77,70,0
165.07068,165.12502,76,50,0
165.12502,165.17937,77,52,0
165.17937,165.23372,76,54,0
165.23372,165.28807,77,57,0
165.28807,165.3424,76,59,0
165.3424,165.39676,77,61,0
165.39676,165.50546,76,63,0
165.50546,165.6685,74,64,0
165.6685,167.62502,74,64,0
173.82068,173.98372,76,64,0
173.98372,174.14676,77,64,0
174.14676,174.47285,76,64,0
174.47285,174.79893,74,64,0
174.79893,175.12503,72,64,0
175.12503,175.28807,72,64,0
175.28807,175.45111,74,64,0
175.45111,175.77719,72,64,0
175.77719,176.10329,70,64,0
176.10329,176.26633,69,64,0
176.26633,176.42937,70,64,0
176.42937,176.5924,72,64,0
176.5924,176.75546,70,64,0
176.75546,177.08154,69,64,0
177.08154,177.40764,67,64,0
177.40764,177.73372,77,64,0
177.73372,178.0598,81,64,0
178.3859,178.71198,76,64,0
178.71198,178.87503,74,64,0
178.87503,179.03807,73,64,0
179.03807,179.20111,76,64,0
179.20111,179.36415,74,64,0
179.36415,179.52719,73,64,0
179.52719,179.69025,71,64,0
179.69025,179.85329,74,64,0
179.85329,180.01633,72,64,0
180.01633,180.34242,71,64,0
180.34242,180.6685,73,64,0
180.6685,180.99458,74,64,0
180.99458,181.32068,69,64,0
181.32068,182.78807,76,64,0
182.78807,182.95111,73,64,0
182.95111,183.11415,74,64,0
183.11415,183.27719,77,64,0
183.27719,184.09242,79,64,0
184.09242,184.25546,76,64,0
184.25546,184.4185,77,64,0
184.4185,184.58154,81,64,0
184.58154,185.39676,82,64,0
185.39676,185.55981,79,64,0
185.55981,185.72285,81,64,0
185.72285,185.8859,84,64,0
185.8859,186.21198,74,64,0
186.21198,186.37503,76,64,0
186.37503,186.53807,79,64,0
186.53807,187.35329,72,64,0
187.35329,187.51633,65,64,0
187.51633,187.67937,67,64,0
187.67937,188.00546,70,64,0
188.00546,188.1685,70,64,0
188.1685,188.33154,69,64,0
188.33154,188.49458,67,64,0
188.49458,188.98372,67,64,0
188.98372,189.11958,65,64,0
189.15492,189.80708,65,64,0
189.80708,193.39404,72,64,0
193.39404,193.72014,69,64,0
193.72014,194.6984,75,64,0
194.6984,195.02448,74,64,0
195.02448,195.18753,72,64,0
195.18753,195.35057,70,64,0
195.35057,195.51361,74,64,0
195.51361,195.67665,72,64,0
195.67665,195.8397,70,64,0
195.8397,196.00275,72,64,0
196.00275,196.16579,74,64,0
196.16579,196.32883,72,64,0
196.32883,196.49187,70,64,0
196.49187,196.65492,69,64,0
196.65492,196.81796,67,64,0
196.81796,196.981,65,64,0
196.981,197.14404,67,64,0
197.14404,197.3071,69,64,0
197.3071,197.47014,70,64,0
197.47014,197.63318,69,64,0
197.63318,197.79622,67,64,0
197.79622,197.95926,65,64,0
197.95926,198.12231,64,64,0
198.12231,198.28535,62,64,0
198.28535,199.5897,76,64,0
199.91579,200.07883,76,64,0
200.07883,200.24187,74,64,0
200.24187,200.56796,76,64,0
200.56796,200.89404,77,64,0
200.89404,201.22014,79,64,0
201.22014,201.38318,79,64,0
201.38318,201.54622,77,64,0
201.54622,201.87231,79,64,0
201.87231,202.1984,81,64,0
202.1984,202.36143,82,64,0
202.36143,202.52449,81,64,0
202.52449,202.68753,79,64,0
202.68753,202.85057,81,64,0
202.85057,203.01361,82,64,0
203.01361,203.17665,79,64,0
203.17665,203.3397,81,64,0
203.3397,203.50275,76,64,0
203.50275,203.66579,77,64,0
203.66579,203.82883,76,64,0
203.99188,204.16284,76,64,0
204.16284,204.37865,77,64,0
204.37865,204.59447,74,64,0
204.59447,204.81029,76,64,0
204.81029,205.02667,73,64,0
205.02667,205.24628,74,64,0
205.24628,205.46649,72,64,0
205.46649,205.69006,70,64,0
205.69006,205.91425,72,64,0
205.91425,206.14197,74,64,0
206.14197,206.36476,70,64,0
206.36476,206.55957,72,64,0
206.55957,206.79132,69,64,0
206.79132,208.51907,76,64,0
206.79132,208.51907,80,64,0
209.2983,211.20593,81,64,0
211.20593,211.39113,76,64,0
211.39113,211.57631,74,64,0
211.57631,211.94669,76,64,0
211.94669,212.32343,78,64,0
212.32343,212.77888,80,64,0
212.77888,213.0066,80,64,0
213.0066,213.23433,78,64,0
213.23433,213.68977,80,64,0
213.68977,214.14459,81,64,0
214.14459,214.36816,83,64,0
214.36816,214.59174,81,64,0
214.59174,214.8153,80,64,0
214.8153,215.03888,81,64,0
215.03888,215.48602,83,64,0
215.48602,215.93317,69,64,0
215.48602,215.93317,84,64,0
215.93317,216.82744,75,64,0
215.93317,216.82744,69,64,0
215.93317,216.82744,71,64,0
217.27458,217.72173,76,64,0
217.27458,217.72173,71,64,0
217.72173,218.16887,72,64,0
218.16887,218.39244,71,64,0
217.72173,218.61601,69,64,0
218.39244,218.61601,69,64,0
218.61601,218.83957,72,64,0
218.83957,219.06314,71,64,0
218.61601,219.06314,69,64,0
219.06314,219.28671,69,64,0
219.28671,219.51028,68,64,0
219.06314,219.51028,64,64,0
219.51028,220.40457,69,64,0
219.51028,220.40457,64,64,0
223.53456,223.75813,74,64,0
223.75813,223.9817,73,64,0
223.9817,224.42883,74,64,0
224.42883,224.87598,76,64,0
224.87598,225.32312,77,64,0
225.32312,225.54669,77,64,0
225.54669,225.77026,76,64,0
225.77026,226.2174,77,64,0
226.2174,226.66455,79,64,0
226.66455,226.8881,81,64,0
226.8881,227.11168,79,64,0
227.11168,227.33525,77,64,0
227.33525,227.55882,79,64,0
227.55882,228.00597,81,64,0
228.00597,228.45311,82,64,0
228.45311,228.90025,73,64,0
228.90025,229.3474,69,64,0
229.79848,230.48164,74,64,0
230.48164,230.70522,72,64,0
230.70522,230.90521,71,64,0
230.90521,231.10603,72,64,0
231.10603,231.31151,74,64,0
231.31151,231.51831,76,64,0
231.51831,231.7326,78,64,0
231.7326,231.9499,80,64,0
231.9499,238.12563,81,64,0
0.326087,0.4891305,69,64,0
0.4891305,0.652174,68,64,0
0.652174,0.978261,69,64,0
0.978261,1.304348,71,64,0
1.304348,1.630435,72,64,0
1.630435,1.7934785,72,64,0
1.7934785,1.956522,71,64,0
1.956522,2.282609,72,64,0
2.282609,2.608696,74,64,0
2.608696,2.7717395,76,64,0
2.7717395,2.934783,74,64,0
2.934783,3.0978265,72,64,0
3.0978265,3.26087,74,64,0
3.26087,3.586957,76,64,0
3.586957,3.913044,77,64,0
3.913044,4.239131,68,64,0
4.239131,4.565218,64,64,0
4.891305,5.217392,69,64,0
5.217392,5.3804355,71,64,0
5.3804355,5.543479,72,64,0
5.543479,5.7065225,69,64,0
5.7065225,5.869566,71,64,0
5.869566,6.0326095,72,64,0
6.0326095,6.195653,74,64,0
6.195653,6.3586965,71,64,0
6.3586965,6.52174,72,64,0
6.52174,6.847827,74,64,0
6.847827,7.173914,72,64,0
7.173914,7.500001,71,64,0
7.500001,7.826088,76,64,0
7.826088,8.478262,69,64,0
8.478262,8.804349,67,64,0
8.804349,9.130436,66,64,0
9.130436,9.456523,64,64,0
9.456523,9.78261,72,64,0
9.78261,10.108697,71,64,0
10.108697,10.434784,69,64,0
10.434784,10.597828,67,64,0
10.597828,10.760871,66,64,0
10.760871,10.923915,64,64,0
10.923915,11.086958,66,64,0
11.086958,11.413045,67,64,0
11.413045,11.739132,69,64,0
11.739132,11.902176,71,64,0
11.902176,12.065219,69,64,0
12.065219,12.228263,67,64,0
12.228263,12.391306,69,64,0
12.391306,12.717393,71,64,0
12.717393,13.369567,72,64,0
13.369567,13.532611,71,64,0
13.532611,13.695654,69,64,0
13.695654,14.021741,71,64,0
14.021741,14.673915,76,64,0
14.673915,14.836959,74,64,0
14.836959,15.000002,73,64,0
15.000002,15.978263,74,64,0
15.978263,16.141306,72,64,0
16.141306,16.30435,71,64,0
16.30435,17.119568,72,64,0
17.119568,17.282612,81,64,0
17.282612,17.445654,79,64,0
17.445654,17.608698,77,64,0
17.608698,17.771742,76,64,0
17.771742,17.934786,74,64,0
17.934786,18.097828,72,64,0
18.097828,18.260872,71,64,0
18.260872,18.423916,72,64,0
18.423916,18.58696,71,64,0
18.58696,19.239134,72,64,0
19.239134,19.56522,74,64,0
19.728264,19.891308,62,64,0
19.891308,20.543482,64,64,0
20.543482,21.032612,65,64,0
21.032612,21.195656,66,64,0
21.195656,21.358698,64,64,0
21.358698,21.521742,66,64,0
21.521742,21.84783,68,64,0
21.84783,22.173916,69,64,0
22.173916,22.82609,71,64,0
23.152178,23.478264,69,64,0
23.478264,24.293482,67,64,0
24.293482,24.456526,65,64,0
24.456526,24.619568,64,64,0
24.619568,24.782612,67,64,0
24.782612,25.434786,66,64,0
25.434786,26.08696,68,64,0
26.08696,26.413048,69,64,0
26.413048,26.739134,69,64,0
26.739134,27.065222,67,64,0
27.065222,27.391308,66,64,0
27.391308,27.717396,64,64,0
27.717396,28.043482,72,64,0
28.043482,28.36957,71,64,0
28.36957,28.695656,69,64,0
28.695656,28.8587,67,64,0
28.8587,29.021744,66,64,0
29.021744,29.184786,64,64,0
29.184786,29.34783,66,64,0
29.34783,29.673918,67,64,0
29.673918,30.326092,66,64,0
30.326092,30.489134,64,64,0
30.489134,30.652178,63,64,0
30.652178,31.63044,64,64,0
31.63044,31.793482,69,64,0
31.793482,31.956526,63,64,0
31.956526,33.58696,64,64,0
33.58696,33.913048,63,64,0
33.913048,34.891308,64,64,0
34.891308,35.217396,63,64,0
35.217396,35.543484,64,64,0
36.84783,37.17392,64,64,0
37.17392,37.500004,66,64,0
37.500004,37.82609,67,64,0
37.82609,38.15218,69,64,0
39.456528,39.782616,62,64,0
39.782616,40.1087,64,64,0
40.1087,40.434788,66,64,0
40.434788,40.760876,67,64,0
43.36957,43.532616,74,64,0
43.532616,43.69566,76,64,0
43.69566,44.021744,74,64,0
44.021744,44.34783,72,64,0
44.34783,44.67392,71,64,0
44.67392,44.836964,71,64,0
44.836964,45.000008,72,64,0
45.000008,45.32609,71,64,0
45.32609,45.65218,69,64,0
45.65218,46.304356,67,64,0
46.304356,46.63044,69,64,0
46.63044,46.956528,71,64,0
46.956528,47.608704,72,64,0
47.934788,48.260876,74,64,0
48.260876,48.750008,73,64,0
48.750008,48.91305,74,64,0
48.91305,49.728268,76,64,0
49.728268,49.89131,73,64,0
49.89131,50.38044,74,64,0
50.38044,50.543484,71,64,0
50.543484,50.86957,73,64,0
50.86957,51.521748,74,64,0
51.84783,52.17392,65,64,0
52.17392,52.336964,67,64,0
52.336964,52.500008,73,64,0
52.500008,52.66305,74,64,0
52.66305,52.826096,76,64,0
52.826096,53.478268,73,64,0
53.804356,53.9674,69,64,0
53.9674,54.130444,70,64,0
54.130444,54.456528,69,64,0
54.456528,54.782616,67,64,0
54.782616,55.108704,65,64,0
55.108704,55.43479,69,64,0
55.43479,55.760876,71,64,0
55.760876,56.086964,72,64,0
56.086964,56.250008,74,64,0
56.250008,56.41305,72,64,0
56.41305,56.576096,71,64,0
56.576096,56.73914,69,64,0
56.73914,57.065224,67,64,0
57.065224,57.7174,65,64,0
57.7174,58.043488,64,64,0
58.043488,58.69566,62,64,0
58.858704,59.021748,69,64,0
59.021748,59.18479,67,64,0
59.18479,59.347836,65,64,0
59.347836,59.67392,64,64,0
59.67392,60.326096,67,64,0
60.326096,60.48914,65,64,0
60.48914,60.652184,67,64,0
60.652184,60.978268,65,64,0
60.978268,61.304356,64,64,0
61.304356,61.630444,62,64,0
61.630444,61.793488,62,64,0
61.793488,61.95653,64,64,0
61.95653,62.282616,62,64,0
62.282616,62.608704,60,64,0
62.608704,62.771748,59,64,0
62.771748,62.93479,60,64,0
62.93479,63.097836,62,64,0
63.097836,63.26088,60,64,0
63.26088,63.586964,59,64,0
63.586964,63.91305,57,64,0
63.91305,64.239136,68,64,0
64.239136,64.56522,71,64,0
64.89131,65.2174,65,64,0
65.2174,65.38044,64,64,0
65.38044,65.54349,62,64,0
65.54349,65.70653,65,64,0
65.70653,65.869576,64,64,0
65.869576,66.032616,62,64,0
66.032616,66.19566,60,64,0
66.19566,66.3587,64,64,0
66.3587,66.52175,62,64,0
66.52175,66.84783,60,64,0
66.84783,67.17392,62,64,0
67.17392,67.33697,64,64,0
67.33697,67.50001,60,64,0
67.50001,67.663055,59,64,0
67.663055,67.826096,57,64,0
67.826096,67.989136,65,64,0
67.989136,68.15218,62,64,0
68.15218,68.31522,64,64,0
68.31522,68.47827,65,64,0
68.47827,68.9674,59,64,0
68.9674,69.10327,57,64,0
69.138596,69.46468,57,64,0
79.89947,80.06251,64,64,0
80.06251,80.225555,63,64,0
80.225555,80.55164,64,64,0
80.55164,80.87773,66,64,0
80.87773,81.20381,67,64,0
81.20381,81.36686,67,64,0
81.36686,81.5299,66,64,0
81.5299,81.85599,67,64,0
81.85599,82.182076,69,64,0
82.34512,82.50816,69,64,0
82.50816,82.6712,67,64,0
82.6712,82.83425,69,64,0
82.83425,83.16034,71,64,0
83.16034,83.48643,72,64,0
83.48643,83.81251,63,64,0
83.81251,84.138596,59,64,0
84.46468,84.79077,64,64,0
84.79077,84.95382,66,64,0
84.95382,85.11686,67,64,0
85.11686,85.2799,64,64,0
85.2799,85.44295,66,64,0
85.44295,85.60599,67,64,0
85.60599,85.769035,69,64,0
85.769035,85.932076,66,64,0
85.932076,86.09512,67,64,0
86.09512,86.4212,69,64,0
86.4212,86.74729,67,64,0
86.74729,87.07338,66,64,0
87.07338,87.39947,71,64,0
87.39947,88.37773,64,64,0
88.37773,88.70382,63,64,0
88.70382,89.0299,64,64,0
89.0299,89.19295,72,64,0
89.19295,89.35599,71,64,0
89.35599,89.519035,69,64,0
89.519035,89.682076,67,64,0
89.682076,89.84512,66,64,0
89.84512,90.00816,64,64,0
90.00816,90.33425,62,64,0
90.33425,90.49729,67,64,0
90.49729,90.66034,65,64,0
90.66034,90.82338,64,64,0
90.82338,90.98643,62,64,0
90.98643,91.14947,61,64,0
91.14947,91.312515,59,64,0
91.312515,91.638596,57,64,0
91.638596,91.80164,74,64,0
91.80164,91.96468,72,64,0
91.96468,92.12773,71,64,0
92.12773,92.29077,69,64,0
92.29077,92.45382,68,64,0
92.45382,92.61686,66,64,0
92.61686,93.269035,64,64,0
93.269035,93.92121,69,64,0
94.41034,94.57338,68,64,0
94.57338,94.89947,69,64,0
94.89947,95.225555,71,64,0
95.225555,95.55164,72,64,0
95.55164,95.71468,72,64,0
95.71468,95.87773,71,64,0
95.87773,96.20382,72,64,0
96.20382,96.52991,74,64,0
96.69295,96.85599,74,64,0
96.85599,97.019035,72,64,0
97.019035,97.182076,74,64,0
97.182076,97.50816,76,64,0
97.50816,97.83425,77,64,0
97.83425,98.16034,68,64,0
98.16034,98.48643,64,64,0
98.812515,99.1386,69,64,0
99.1386,99.30164,71,64,0
99.30164,99.46468,72,64,0
99.46468,99.62773,69,64,0
99.62773,99.79077,71,64,0
99.79077,99.95382,72,64,0
99.95382,100.11686,74,64,0
100.11686,100.27991,71,64,0
100.27991,100.44295,72,64,0
100.44295,100.769035,74,64,0
100.769035,101.09512,72,64,0
101.09512,101.42121,71,64,0
101.42121,101.7473,76,64,0
101.7473,102.562515,69,64,0
102.562515,102.725555,77,64,0
102.725555,102.8886,74,64,0
102.8886,103.05164,71,64,0
103.05164,103.86686,67,64,0
103.86686,104.02991,76,64,0
104.02991,104.19295,72,64,0
104.19295,104.355995,69,64,0
104.355995,104.682076,65,64,0
104.682076,104.84512,67,64,0
104.84512,105.00816,69,64,0
105.00816,105.17121,67,64,0
105.17121,105.33425,65,64,0
105.33425,105.4973,64,64,0
105.4973,105.66034,65,64,0
105.66034,107.12773,64,64,0
107.12773,107.29077,62,64,0
107.29077,107.45382,64,64,0
107.45382,107.61686,65,64,0
107.61686,107.77991,67,64,0
107.77991,107.94295,69,64,0
107.94295,108.105995,71,64,0
108.105995,108.269035,72,64,0
108.269035,108.43208,62,64,0
108.43208,108.59512,64,64,0
108.59512,108.75816,62,64,0
108.75816,108.92121,64,64,0
108.92121,109.73643,65,64,0
109.73643,109.89947,69,64,0
109.89947,110.062515,67,64,0
110.062515,110.225555,65,64,0
110.225555,110.55164,64,64,0
110.55164,110.87773,69,64,0
110.87773,112.50816,67,64,0
112.50816,112.83425,72,64,0
112.83425,113.16034,71,64,0
113.16034,113.48643,69,64,0
113.48643,113.812515,67,64,0
114.1386,114.46469,65,64,0
114.46469,114.79078,64,64,0
114.79078,114.95382,62,64,0
114.95382,115.11686,67,64,0
115.11686,115.27991,69,64,0
115.27991,115.44295,71,64,0
115.44295,116.7473,72,64,0
116.7473,117.07339,71,64,0
117.07339,117.399475,70,64,0
117.399475,117.725555,69,64,0
119.68208,120.17121,62,64,0
120.17121,120.33425,64,64,0
120.33425,120.4973,60,64,0
120.4973,120.66034,62,64,0
120.66034,120.82339,64,64,0
120.82339,120.98643,65,64,0
120.98643,121.149475,62,64,0
121.149475,121.312515,64,64,0
121.312515,121.6386,65,64,0
121.6386,121.96469,64,64,0
121.96469,122.29078,62,64,0
122.29078,122.61687,67,64,0
122.61687,122.77991,64,64,0
122.77991,122.94295,65,64,0
122.94295,123.105995,64,64,0
123.105995,123.269035,62,64,0
123.269035,123.43208,60,64,0
123.43208,123.59512,59,64,0
123.59512,123.75817,57,64,0
123.75817,123.92121,56,64,0
123.92121,124.2473,57,64,0
124.2473,124.41034,69,64,0
124.41034,124.57339,70,64,0
124.57339,124.899475,69,64,0
124.899475,125.22556,67,64,0
125.22556,125.55164,65,64,0
125.55164,125.71469,65,64,0
125.71469,125.87773,67,64,0
125.87773,126.20382,65,64,0
126.20382,126.52991,64,64,0
126.52991,126.692955,62,64,0
126.692955,126.855995,64,64,0
126.855995,127.019035,65,64,0
127.019035,127.18208,64,64,0
127.18208,127.50817,62,64,0
127.50817,127.83426,60,64,0
127.83426,128.16034,71,64,0
128.16034,128.48643,74,64,0
128.81252,129.13861,69,64,0
129.13861,129.30165,67,64,0
129.30165,129.46469,65,64,0
129.46469,129.62773,69,64,0
129.62773,129.79077,67,64,0
129.79077,129.95383,65,64,0
129.95383,130.11687,64,64,0
130.11687,130.2799,67,64,0
130.2799,130.44295,65,64,0
130.44295,130.76904,64,64,0
130.76904,131.09512,65,64,0
131.09512,131.42122,67,64,0
131.42122,131.7473,62,64,0
131.7473,131.91034,69,64,0
131.91034,132.0734,71,64,0
132.0734,132.23643,69,64,0
132.23643,132.39948,71,64,0
132.39948,132.45383,72,70,0
132.45383,132.50816,71,50,0
132.50816,132.56252,72,52,0
132.56252,132.61687,71,54,0
132.61687,132.67122,72,57,0
132.67122,132.72556,71,59,0
132.72556,132.7799,72,61,0
132.7799,132.88861,71,63,0
132.88861,132.97012,69,64,0
132.97012,133.05165,71,64,0
133.05165,133.21469,72,64,0
133.21469,133.37773,74,64,0
133.37773,133.54077,72,64,0
133.54077,133.70383,74,64,0
133.70383,133.75816,76,70,0
133.75816,133.81252,74,50,0
133.81252,133.86687,76,52,0
133.86687,133.92122,74,54,0
133.92122,133.97556,76,57,0
133.97556,134.0299,74,59,0
134.0299,134.08426,76,61,0
134.08426,134.19295,74,63,0
134.19295,134.27448,72,64,0
134.27448,134.356,74,64,0
134.356,134.51904,76,64,0
134.51904,134.68208,74,64,0
134.68208,134.84512,72,64,0
134.84512,135.00816,71,64,0
135.00816,135.17122,69,64,0
135.17122,135.33426,67,64,0
135.33426,135.4973,66,64,0
135.4973,135.66034,64,64,0
135.66034,135.98643,66,64,0
135.98643,136.31252,62,64,0
136.31252,136.63861,64,64,0
136.63861,136.96469,66,64,0
136.96469,137.29079,67,64,0
137.29079,137.61687,66,64,0
137.61687,137.94295,67,64,0
137.94295,138.26904,69,64,0
138.26904,139.2473,62,64,0
139.2473,139.5734,63,64,0
139.5734,139.89948,64,64,0
139.89948,140.06252,64,64,0
140.06252,140.22556,63,64,0
140.22556,140.55165,64,64,0
141.20383,141.5299,67,64,0
141.5299,141.856,69,64,0
141.856,142.18208,71,64,0
142.18208,142.50818,72,64,0
142.50818,143.16034,67,64,0
143.16034,143.3234,66,64,0
143.3234,143.48643,67,64,0
146.25818,146.42122,76,64,0
146.42122,146.58426,74,64,0
146.58426,146.7473,72,64,0
146.7473,146.91034,71,64,0
146.91034,147.0734,69,64,0
147.0734,147.23643,68,64,0
147.23643,147.39948,69,64,0
147.39948,149.0299,71,64,0
149.0299,149.19295,64,64,0
149.19295,149.356,65,64,0
149.356,149.68208,64,64,0
149.68208,150.00818,62,64,0
150.00818,150.33426,60,64,0
150.33426,150.4973,60,64,0
150.4973,150.66034,62,64,0
150.66034,150.98643,60,64,0
150.98643,151.31252,58,64,0
151.31252,151.47557,57,64,0
151.47557,151.63861,59,64,0
151.63861,151.80165,61,64,0
151.80165,151.96469,59,64,0
151.96469,152.29079,57,64,0
152.29079,152.61687,55,64,0
152.61687,152.94296,66,64,0
152.94296,153.26904,71,64,0
153.59512,153.92122,64,64,0
153.92122,154.08426,62,64,0
154.08426,154.2473,60,64,0
154.2473,154.41034,64,64,0
154.41034,154.5734,62,64,0
154.5734,154.73643,60,64,0
154.73643,154.89948,59,64,0
154.89948,155.06252,62,64,0
155.06252,155.22557,60,64,0
155.22557,155.55165,59,64,0
155.55165,155.87773,60,64,0
155.87773,156.04079,62,64,0
156.04079,156.20383,60,64,0
156.20383,156.36687,64,64,0
156.36687,156.5299,62,64,0
156.5299,156.856,60,64,0
156.856,157.18208,62,64,0
157.18208,157.34512,64,64,0
157.34512,157.50818,62,64,0
157.50818,157.67122,65,64,0
157.67122,157.83426,64,64,0
157.83426,158.16035,62,64,0
158.16035,158.48643,64,64,0
158.48643,159.46469,65,64,0
159.46469,159.79079,64,64,0
160.2799,160.44296,70,64,0
160.44296,161.25818,69,64,0
161.25818,161.42122,73,64,0
161.42122,161.58426,76,64,0
161.58426,161.7473,74,64,0
161.7473,162.56252,76,64,0
162.56252,162.72557,69,64,0
162.72557,162.88861,73,64,0
162.88861,163.05165,74,64,0
163.05165,163.21469,76,64,0
163.21469,163.37775,73,64,0
163.37775,163.70383,74,64,0
164.0299,164.19296,69,64,0
164.19296,164.356,67,64,0
164.356,164.68208,65,64,0
164.68208,165.00818,70,64,0
165.00818,165.33426,69,64,0
165.33426,165.98643,67,64,0
165.98643,166.14948,65,64,0
166.14948,166.31252,64,64,0
166.31252,166.47557,65,64,0
166.47557,166.63861,67,64,0
166.63861,166.80165,69,64,0
166.80165,166.96469,65,64,0
166.96469,167.61687,62,64,0
175.11687,175.2799,69,64,0
175.2799,175.44296,71,64,0
175.44296,175.76904,69,64,0
175.76904,176.09514,67,64,0
176.09514,176.42122,65,64,0
176.42122,176.58426,65,64,0
176.58426,176.7473,67,64,0
176.7473,177.0734,65,64,0
177.0734,177.39948,64,64,0
177.39948,177.56253,62,64,0
177.56253,177.72557,64,64,0
177.72557,177.88861,65,64,0
177.88861,178.05165,64,64,0
178.05165,178.37775,62,64,0
178.37775,178.70383,61,64,0
178.70383,179.02992,70,64,0
179.02992,179.356,74,64,0
179.68208,180.00818,69,64,0
180.00818,180.17122,67,64,0
180.17122,180.33426,65,64,0
180.33426,180.4973,69,64,0
180.4973,180.66035,67,64,0
180.66035,180.8234,65,64,0
180.8234,180.98643,64,64,0
180.98643,181.14948,67,64,0
181.14948,181.31253,65,64,0
181.31253,181.63861,64,64,0
181.63861,181.96469,65,64,0
181.96469,182.61687,67,64,0
182.61687,183.26904,65,64,0
183.26904,183.59514,64,64,0
183.59514,184.08426,69,64,0
184.08426,184.24731,73,64,0
184.24731,184.5734,74,64,0
184.5734,184.89948,67,64,0
184.89948,185.38861,72,64,0
185.38861,185.55165,76,64,0
185.55165,185.87775,77,64,0
185.87775,186.69296,70,64,0
186.69296,186.856,67,64,0
186.856,187.01904,69,64,0
187.01904,187.18208,72,64,0
187.18208,187.83426,62,64,0
187.83426,188.16035,64,64,0
188.16035,188.81253,65,64,0
188.81253,189.13861,64,64,0
189.4647,189.62775,72,64,0
189.62775,189.79079,74,64,0
190.11687,190.44296,70,64,0
190.44296,190.76904,69,64,0
190.76904,190.93208,69,64,0
190.93208,191.09514,70,64,0
191.09514,191.42122,69,64,0
191.42122,191.74731,67,64,0
191.74731,191.91035,66,64,0
191.91035,192.0734,67,64,0
192.0734,192.23643,69,64,0
192.23643,192.39948,67,64,0
192.39948,192.72557,66,64,0
192.72557,193.05165,63,64,0
193.05165,193.37775,72,64,0
193.37775,193.70383,69,64,0
194.02992,194.356,72,64,0
194.356,194.51904,70,64,0
194.51904,194.6821,69,64,0
194.6821,194.84514,72,64,0
194.84514,195.00818,70,64,0
195.00818,195.17122,69,64,0
195.17122,195.33426,67,64,0
195.33426,195.49731,70,64,0
195.49731,195.66035,69,64,0
195.66035,195.98643,67,64,0
198.59514,198.75818,69,64,0
198.75818,198.92122,67,64,0
198.92122,199.24731,69,64,0
199.24731,199.5734,71,64,0
199.5734,199.89949,73,64,0
199.89949,200.06253,73,64,0
200.06253,200.22557,71,64,0
200.22557,200.55165,73,64,0
200.55165,200.87775,74,64,0
200.87775,201.04079,76,64,0
201.04079,201.20383,74,64,0
201.20383,201.36687,73,64,0
201.36687,201.52992,74,64,0
201.52992,201.856,76,64,0
201.856,202.1821,77,64,0
202.1821,202.50818,67,64,0
202.50818,202.83426,64,64,0
203.16035,203.48643,69,64,0
203.48643,203.81253,69,64,0
203.81253,204.14125,74,64,0
204.14125,204.57289,69,64,0
204.57289,205.00471,67,64,0
205.00471,205.44412,65,64,0
205.44412,205.89148,62,64,0
205.89148,206.34528,65,64,0
206.34528,206.74721,65,64,0
206.74721,208.49959,71,64,0
209.66843,209.86324,69,64,0
209.86324,210.05779,68,64,0
210.05779,210.43753,69,64,0
210.43753,210.81705,71,64,0
210.81705,211.18742,72,64,0
211.18742,211.3726,72,64,0
211.3726,211.55779,71,64,0
211.55779,211.92816,72,64,0
211.92816,212.30066,74,64,0
212.30066,212.52838,76,64,0
212.52838,212.7561,74,64,0
212.7561,212.98383,72,64,0
212.98383,213.21155,74,64,0
213.21155,213.66699,76,64,0
213.66699,214.12224,77,64,0
214.12224,214.56938,68,64,0
214.56938,215.01653,64,64,0
215.01653,215.2401,62,64,0
215.2401,215.46367,64,64,0
215.46367,215.68723,66,64,0
215.68723,215.9108,68,64,0
215.9108,216.80508,66,64,0
217.25223,217.69937,64,64,0
217.69937,218.14651,64,64,0
218.14651,218.59364,65,64,0
218.59364,219.04079,64,64,0
219.04079,219.48793,62,64,0
219.48793,220.38222,61,64,0
220.82936,221.27649,64,64,0
221.27649,221.72363,57,64,0
221.72363,221.9472,69,64,0
221.9472,222.17078,70,64,0
222.17078,222.61792,69,64,0
222.61792,223.06506,67,64,0
223.06506,223.5122,65,64,0
223.5122,223.73576,65,64,0
223.73576,223.95934,67,64,0
223.95934,224.40648,65,64,0
224.40648,224.85362,64,64,0
224.85362,225.30077,62,64,0
225.30077,225.52434,57,64,0
225.30077,225.52434,69,64,0
225.52434,225.74791,67,64,0
225.52434,225.74791,59,64,0
225.74791,226.19505,69,64,0
225.74791,226.19505,61,64,0
226.19505,226.64218,62,64,0
226.19505,226.64218,71,64,0
226.64218,227.08932,73,64,0
227.08932,227.3129,73,64,0
227.3129,227.53647,71,64,0
226.64218,227.53647,64,64,0
227.53647,227.98361,73,64,0
227.98361,228.43076,74,64,0
227.98361,228.43076,62,64,0
228.43076,228.65433,76,64,0
228.65433,228.8779,74,64,0
228.8779,229.10146,73,64,0
229.10146,229.32503,74,64,0
228.43076,229.32503,67,64,0
229.32503,229.77571,76,64,0
229.77571,230.00343,65,64,0
230.00343,230.23116,64,64,0
229.77571,230.23116,77,64,0
230.23116,231.08548,68,64,0
230.23116,231.08548,62,64,0
231.49689,232.39688,74,64,0
232.39688,232.66475,76,64,0
232.39688,232.66475,73,64,0
232.66475,232.93391,77,64,0
232.66475,232.93391,74,64,0
232.93391,233.5234,76,64,0
232.93391,233.5234,73,64,0
233.86,234.32875,68,64,0
233.5234,234.32875,74,64,0
233.5234,234.32875,71,64,0
234.32875,238.07875,73,64,0
234.32875,238.07875,69,64,0
26.413048,26.57609,52,64,0
26.57609,26.739134,51,64,0
26.739134,27.065222,52,64,0
27.065222,27.391308,54,64,0
27.391308,27.717396,55,64,0
27.717396,27.880438,55,64,0
27.880438,28.043482,54,64,0
28.043482,28.36957,55,64,0
28.36957,28.695656,57,64,0
28.695656,28.8587,59,64,0
28.8587,29.021744,57,64,0
29.021744,29.184786,55,64,0
29.184786,29.34783,57,64,0
29.34783,29.673918,59,64,0
29.673918,30.000004,60,64,0
30.000004,30.326092,51,64,0
30.978266,31.304352,52,64,0
31.304352,31.467396,54,64,0
31.467396,31.63044,55,64,0
31.63044,31.793482,52,64,0
31.793482,31.956526,54,64,0
31.956526,32.119568,55,64,0
32.119568,32.28261,57,64,0
32.28261,32.445656,54,64,0
32.445656,32.6087,55,64,0
32.6087,32.934788,57,64,0
32.934788,33.260876,55,64,0
33.260876,33.58696,54,64,0
33.58696,33.913048,59,64,0
33.913048,34.565224,52,64,0
34.565224,34.891308,59,64,0
34.891308,35.217396,57,64,0
35.217396,35.543484,56,64,0
35.543484,35.86957,52,64,0
35.86957,36.195656,54,64,0
36.195656,36.521744,56,64,0
36.521744,36.84783,57,64,0
38.15218,38.478268,57,64,0
38.478268,38.80435,59,64,0
38.80435,39.13044,61,64,0
39.13044,39.456528,62,64,0
40.760876,41.086964,59,64,0
41.086964,41.739136,57,64,0
41.739136,43.36957,55,64,0
43.36957,44.021744,57,64,0
44.021744,44.67392,50,64,0
44.67392,44.836964,67,64,0
44.836964,45.000008,69,64,0
45.000008,45.32609,67,64,0
45.32609,45.65218,65,64,0
45.65218,45.978268,64,64,0
45.978268,46.14131,64,64,0
46.14131,46.304356,65,64,0
46.304356,46.63044,64,64,0
46.63044,46.956528,62,64,0
46.956528,47.11957,60,64,0
47.11957,47.282616,62,64,0
47.282616,47.44566,64,64,0
47.44566,47.608704,62,64,0
47.608704,47.934788,60,64,0
47.934788,48.260876,58,64,0
48.260876,48.586964,69,64,0
48.586964,48.91305,73,64,0
49.239136,49.565224,67,64,0
49.565224,49.728268,65,64,0
49.728268,49.89131,64,64,0
49.89131,50.054356,67,64,0
50.054356,50.2174,65,64,0
50.2174,50.38044,64,64,0
50.38044,50.543484,62,64,0
50.543484,50.706528,65,64,0
50.706528,50.86957,64,64,0
50.86957,51.19566,62,64,0
51.19566,51.521748,64,64,0
51.521748,51.684788,65,64,0
51.684788,51.84783,64,64,0
51.84783,52.010876,62,64,0
52.010876,52.17392,60,64,0
52.17392,52.500008,58,64,0
52.66305,52.826096,58,64,0
52.826096,53.804356,57,64,0
53.804356,54.130444,57,64,0
54.130444,54.456528,59,64,0
54.456528,54.782616,61,64,0
54.782616,55.108704,62,64,0
61.630444,61.793488,59,64,0
61.793488,61.95653,60,64,0
61.95653,62.282616,59,64,0
62.282616,62.608704,57,64,0
62.608704,63.586964,56,64,0
63.586964,63.91305,52,64,0
63.91305,64.239136,50,64,0
64.239136,64.40218,53,64,0
64.40218,64.56522,52,64,0
64.56522,64.89131,50,64,0
64.89131,65.2174,48,64,0
65.2174,65.54349,47,64,0
65.54349,65.869576,48,64,0
65.869576,66.19566,50,64,0
66.19566,66.52175,47,64,0
66.52175,67.50001,52,64,0
67.50001,68.15218,53,64,0
68.15218,68.47827,50,64,0
68.47827,68.80436,52,64,0
68.80436,69.13045,50,64,0
69.13045,69.45653,48,64,0
70.76088,70.92392,57,64,0
70.92392,71.08697,56,64,0
71.08697,71.413055,57,64,0
71.413055,71.73914,59,64,0
71.73914,72.06522,60,64,0
72.06522,72.22827,60,64,0
72.22827,72.39131,59,64,0
72.39131,72.7174,60,64,0
72.7174,73.04349,62,64,0
73.04349,73.20653,64,64,0
73.20653,73.369576,62,64,0
73.369576,73.532616,60,64,0
73.532616,73.69566,62,64,0
73.69566,74.02175,64,64,0
74.02175,74.34784,65,64,0
74.34784,74.67392,56,64,0
74.67392,75.00001,52,64,0
75.326096,75.65218,57,64,0
75.65218,75.81522,59,64,0
75.81522,75.97827,60,64,0
75.97827,76.14131,57,64,0
76.14131,76.30436,59,64,0
76.30436,76.4674,60,64,0
76.4674,76.63045,62,64,0
76.63045,76.79349,59,64,0
76.79349,76.956535,60,64,0
76.956535,77.282616,62,64,0
77.282616,77.6087,60,64,0
77.6087,77.93479,59,64,0
77.93479,78.26088,64,64,0
78.26088,79.89131,57,64,0
79.89131,80.05436,55,64,0
80.05436,80.2174,54,64,0
80.2174,80.54349,55,64,0
80.54349,80.869576,57,64,0
80.869576,81.19566,59,64,0
81.19566,81.84784,64,64,0
81.84784,82.17393,63,64,0
82.17393,82.50001,64,64,0
92.93479,93.09784,57,64,0
93.09784,93.26088,56,64,0
93.26088,93.58697,57,64,0
93.58697,93.913055,59,64,0
93.913055,94.23914,60,64,0
94.23914,94.40218,60,64,0
94.40218,94.56523,59,64,0
94.56523,94.89132,60,64,0
94.89132,95.21741,62,64,0
95.21741,95.38045,64,64,0
95.38045,95.54349,62,64,0
95.54349,95.706535,60,64,0
95.706535,95.869576,62,64,0
95.869576,96.19566,64,64,0
96.19566,96.52175,65,64,0
96.52175,96.84784,56,64,0
96.84784,97.17393,52,64,0
97.500015,97.8261,57,64,0
97.8261,97.98914,59,64,0
97.98914,98.15218,60,64,0
98.15218,98.31523,57,64,0
98.31523,98.47827,59,64,0
98.47827,98.64132,60,64,0
98.64132,98.80436,62,64,0
98.80436,98.96741,59,64,0
98.96741,99.13045,60,64,0
99.13045,99.456535,62,64,0
99.456535,99.78262,60,64,0
99.78262,100.10871,59,64,0
100.10871,100.4348,64,64,0
100.4348,101.413055,57,64,0
101.413055,102.06523,55,64,0
102.06523,102.22827,53,64,0
102.22827,102.39132,52,64,0
102.39132,103.369576,53,64,0
103.369576,103.53262,52,64,0
103.53262,103.69566,50,64,0
103.69566,105.000015,52,64,0
105.000015,105.81523,50,64,0
105.81523,105.97827,48,64,0
105.97827,106.14132,50,64,0
106.14132,106.30436,52,64,0
106.30436,106.46741,53,64,0
106.46741,106.63045,55,64,0
106.63045,106.793495,57,64,0
106.793495,106.956535,59,64,0
106.956535,109.0761,60,64,0
109.0761,109.23914,64,64,0
109.23914,109.40219,62,64,0
109.40219,109.56523,60,64,0
109.56523,109.89132,59,64,0
109.89132,110.05436,64,64,0
110.05436,110.21741,62,64,0
110.21741,110.38045,60,64,0
110.38045,110.543495,59,64,0
110.543495,110.706535,57,64,0
110.706535,110.86958,59,64,0
110.86958,112.500015,60,64,0
112.500015,113.15219,55,64,0
113.15219,113.80436,62,64,0
113.80436,114.13045,64,64,0
114.13045,114.456535,62,64,0
114.456535,114.78262,60,64,0
114.78262,115.4348,55,64,0
117.06523,117.39132,55,64,0
117.39132,117.55437,57,64,0
117.55437,117.71741,59,64,0
117.71741,117.88045,55,64,0
117.88045,118.043495,57,64,0
118.043495,118.206535,59,64,0
118.206535,118.36958,60,64,0
118.36958,118.53262,57,64,0
118.53262,118.69567,59,64,0
118.69567,119.02175,60,64,0
119.02175,119.34784,59,64,0
119.34784,119.67393,57,64,0
119.67393,120.000015,62,64,0
120.000015,120.97828,55,64,0
120.97828,121.30437,60,64,0
121.30437,121.46741,62,64,0
121.46741,121.63045,53,64,0
121.63045,121.793495,55,64,0
121.793495,121.956535,57,64,0
121.956535,122.11958,59,64,0
122.11958,122.28262,60,64,0
122.28262,122.44567,62,64,0
122.44567,122.60871,59,64,0
122.60871,123.26089,55,64,0
125.543495,125.706535,57,64,0
125.706535,125.86958,58,64,0
125.86958,126.19567,57,64,0
126.19567,126.52176,55,64,0
126.52176,126.84784,53,64,0
126.84784,127.01089,53,64,0
127.01089,127.17393,55,64,0
127.17393,127.500015,53,64,0
127.500015,127.8261,52,64,0
127.8261,127.98915,50,64,0
127.98915,128.15219,52,64,0
128.15219,128.31523,53,64,0
128.31523,128.47827,52,64,0
128.47827,128.80437,50,64,0
128.80437,129.13045,48,64,0
129.13045,129.45654,59,64,0
129.45654,129.78262,62,64,0
130.10872,130.4348,57,64,0
130.4348,130.59784,55,64,0
130.59784,130.76088,53,64,0
130.76088,130.92393,57,64,0
130.92393,131.08698,55,64,0
131.08698,131.25002,53,64,0
131.25002,131.41306,52,64,0
131.41306,131.57611,55,64,0
131.57611,131.73915,53,64,0
131.73915,132.06523,52,64,0
132.06523,132.39133,53,64,0
132.39133,132.7174,55,64,0
132.7174,133.0435,50,64,0
133.0435,133.20654,57,64,0
133.20654,133.36958,59,64,0
133.53262,133.69566,59,64,0
133.69566,133.75002,60,70,0
133.75002,133.80437,59,50,0
133.80437,133.85872,60,52,0
133.85872,133.91306,59,54,0
133.91306,133.9674,60,57,0
133.9674,134.02176,59,59,0
134.02176,134.07611,60,61,0
134.07611,134.1848,59,63,0
134.1848,134.26633,57,64,0
134.26633,134.34784,59,64,0
134.34784,135.97827,60,64,0
135.97827,136.30437,54,64,0
136.30437,136.63045,55,64,0
136.63045,136.95654,57,64,0
136.95654,137.28262,59,64,0
137.28262,137.60872,50,64,0
137.60872,137.9348,52,64,0
137.9348,138.2609,54,64,0
138.2609,139.23915,55,64,0
139.23915,139.56523,57,64,0
139.56523,141.19566,59,64,0
141.19566,141.52176,52,64,0
141.52176,141.84784,54,64,0
141.84784,142.17393,55,64,0
142.17393,142.50002,57,64,0
142.50002,142.82611,50,64,0
142.82611,143.15219,52,64,0
143.15219,143.31523,50,64,0
143.31523,143.47829,52,64,0
143.47829,143.64133,54,64,0
143.64133,143.80437,55,64,0
143.80437,143.9674,52,64,0
143.9674,144.13045,54,64,0
144.13045,144.2935,55,64,0
144.2935,144.45654,57,64,0
144.45654,144.61958,54,64,0
144.61958,144.78262,55,64,0
144.78262,145.10872,57,64,0
145.10872,145.27176,59,64,0
145.27176,145.4348,60,64,0
145.4348,145.59784,59,64,0
145.59784,145.7609,60,64,0
145.7609,145.92393,57,64,0
145.92393,146.08698,59,64,0
146.08698,146.41306,60,64,0
146.41306,146.57611,62,64,0
146.57611,146.73915,64,64,0
146.73915,147.06523,62,64,0
147.06523,147.39133,60,64,0
147.39133,147.7174,59,64,0
147.7174,148.0435,56,64,0
148.0435,148.36958,57,64,0
148.36958,148.69568,59,64,0
148.69568,149.02176,60,64,0
149.02176,149.34784,52,64,0
149.34784,149.67393,54,64,0
149.67393,150.00002,56,64,0
150.00002,150.65219,57,64,0
150.97829,151.30437,52,64,0
151.30437,151.63045,53,64,0
151.63045,151.95654,55,64,0
151.95654,152.28262,57,64,0
152.28262,152.60872,58,64,0
152.60872,152.9348,57,64,0
152.9348,153.09784,56,64,0
153.09784,153.2609,54,64,0
153.2609,153.58698,52,64,0
153.58698,153.91307,57,64,0
153.91307,154.23915,53,64,0
154.23915,154.89133,52,64,0
154.89133,155.05437,53,64,0
155.05437,155.2174,51,64,0
155.2174,159.45654,52,64,0
160.7609,160.92393,52,64,0
160.92393,161.08698,53,64,0
161.08698,161.41307,52,64,0
161.41307,161.73915,50,64,0
161.73915,162.06525,49,64,0
162.22829,162.39133,50,64,0
162.39133,162.7174,49,64,0
162.7174,163.0435,46,64,0
163.0435,163.69568,45,64,0
164.02176,164.1848,65,64,0
164.1848,164.34785,64,64,0
164.34785,165.32611,62,64,0
165.32611,165.65219,61,64,0
165.65219,165.97829,62,64,0
165.97829,166.30437,57,64,0
167.28264,167.44568,57,64,0
167.44568,167.60872,56,64,0
167.60872,167.9348,57,64,0
167.9348,168.2609,59,64,0
168.2609,168.58698,60,64,0
168.58698,168.75002,60,64,0
168.75002,168.91307,59,64,0
168.91307,169.23915,60,64,0
169.23915,169.56525,62,64,0
169.56525,169.72829,64,64,0
169.72829,169.89133,62,64,0
169.89133,170.05437,60,64,0
170.05437,170.2174,62,64,0
170.2174,170.5435,64,64,0
170.5435,170.86958,65,64,0
170.86958,171.19568,56,64,0
171.19568,171.52176,52,64,0
171.84785,172.17393,57,64,0
172.17393,172.33698,59,64,0
172.33698,172.50003,60,64,0
172.50003,172.66307,57,64,0
172.66307,172.82611,59,64,0
172.82611,172.98915,60,64,0
172.98915,173.15219,62,64,0
173.15219,173.31525,59,64,0
173.31525,173.47829,61,64,0
173.47829,173.80437,62,64,0
173.80437,174.13046,60,64,0
174.13046,174.45654,59,64,0
174.45654,174.78264,64,64,0
176.41307,176.57611,57,64,0
176.57611,176.73915,58,64,0
176.73915,177.06525,60,64,0
177.06525,177.39133,58,64,0
177.39133,177.71742,57,64,0
177.71742,177.88046,62,64,0
177.88046,178.0435,64,64,0
178.0435,178.20654,65,64,0
178.20654,178.36958,67,64,0
178.36958,179.02176,69,64,0
179.02176,179.67393,67,64,0
179.67393,180.32611,65,64,0
180.32611,180.65219,64,64,0
180.65219,181.46742,62,64,0
181.46742,181.63046,61,64,0
181.63046,181.7935,64,64,0
181.7935,181.95654,62,64,0
181.95654,182.11958,61,64,0
182.11958,182.28264,59,64,0
182.28264,182.44568,62,64,0
182.44568,182.60872,61,64,0
182.60872,183.42393,62,64,0
183.42393,183.58698,59,64,0
183.58698,183.75003,61,64,0
183.75003,183.91307,64,64,0
183.91307,184.72829,65,64,0
184.72829,184.89133,62,64,0
184.89133,185.05437,64,64,0
185.05437,185.21742,67,64,0
185.21742,186.03264,69,64,0
186.03264,186.19568,65,64,0
186.19568,186.35872,67,64,0
186.35872,186.52176,70,64,0
186.52176,186.84785,64,64,0
186.84785,187.17393,65,64,0
187.17393,187.82611,58,64,0
187.82611,189.45654,60,64,0
189.45654,189.78264,48,64,0
189.78264,190.10872,50,64,0
190.10872,190.43481,52,64,0
190.43481,190.7609,53,64,0
190.7609,191.08698,52,64,0
191.08698,191.41307,53,64,0
191.41307,191.73915,55,64,0
191.73915,191.9022,57,64,0
191.9022,192.06525,55,64,0
192.22829,192.39133,55,64,0
192.39133,192.55437,57,64,0
192.55437,192.71742,58,64,0
192.71742,193.0435,60,64,0
193.0435,193.3696,54,64,0
193.3696,193.69568,57,64,0
193.69568,194.02176,55,64,0
194.02176,194.34785,54,64,0
194.34785,194.67393,55,64,0
194.67393,195.00003,53,64,0
195.00003,195.32611,51,64,0
195.32611,195.97829,50,64,0
195.97829,196.14133,55,64,0
196.14133,196.30437,57,64,0
196.30437,196.63046,55,64,0
196.63046,196.95654,53,64,0
196.95654,197.28264,52,64,0
197.28264,197.44568,52,64,0
197.44568,197.60872,53,64,0
197.60872,197.93481,52,64,0
197.93481,198.2609,50,64,0
198.2609,198.42393,49,64,0
198.42393,198.58699,50,64,0
198.58699,198.75003,52,64,0
198.75003,198.91307,50,64,0
198.91307,199.23915,49,64,0
199.23915,199.56525,47,64,0
199.56525,199.89133,57,64,0
199.89133,200.21742,61,64,0
200.5435,200.8696,69,64,0
200.8696,201.35872,70,64,0
201.35872,201.52176,69,64,0
201.52176,201.68481,67,64,0
201.68481,201.84785,65,64,0
201.84785,202.0109,64,64,0
202.0109,202.17393,62,64,0
202.17393,202.82611,61,64,0
203.1522,203.47829,61,64,0
203.47829,203.80438,62,64,0
203.80438,204.13046,65,64,0
204.13046,204.5621,62,64,0
204.5621,204.99374,57,64,0
204.99374,205.43295,58,64,0
205.43295,205.8801,53,64,0
205.8801,206.33554,58,64,0
206.33554,206.72514,62,64,0
206.72514,208.48985,64,64,0
206.72514,208.48985,59,64,0
209.26907,210.0483,57,64,0
209.26907,210.0483,60,64,0
210.80779,211.54854,57,64,0
210.80779,211.54854,60,64,0
212.28928,213.20016,62,64,0
212.28928,213.20016,59,64,0
214.5582,214.78177,59,64,0
214.78177,215.00534,60,64,0
215.89963,216.7939,57,64,0
217.24104,217.68819,59,64,0
217.68819,218.13533,60,64,0
218.13533,218.58247,62,64,0
218.58247,219.02962,60,64,0
219.02962,219.47675,59,64,0
219.47675,219.92389,57,64,0
219.92389,220.14746,57,64,0
220.14746,220.37103,58,64,0
220.37103,220.81818,57,64,0
220.81818,221.26532,55,64,0
221.26532,221.71246,53,64,0
221.71246,221.93604,53,64,0
221.93604,222.15959,55,64,0
222.15959,222.60674,53,64,0
222.60674,223.05388,52,64,0
223.05388,223.27745,50,64,0
223.27745,223.50102,52,64,0
223.50102,223.7246,53,64,0
223.7246,223.94817,52,64,0
223.94817,224.39531,50,64,0
224.39531,224.84244,49,64,0
224.84244,225.28958,50,64,0
225.28958,225.73672,53,64,0
225.73672,226.18387,52,64,0
226.18387,226.63101,50,64,0
226.63101,227.52528,55,64,0
227.97243,228.41957,53,64,0
228.41957,229.31386,52,64,0
229.76431,230.21977,50,64,0
231.48618,231.70045,62,64,0
231.70045,231.91475,64,64,0
230.21977,231.91475,59,64,0
231.91475,232.3835,65,64,0
232.3835,232.65135,64,64,0
232.3835,232.65135,61,64,0
232.65135,232.9192,59,64,0
232.65135,232.9192,62,64,0
232.9192,233.50745,64,64,0
232.9192,233.50745,61,64,0
233.50745,234.30531,65,64,0
233.50745,234.30531,62,64,0
234.30531,238.05531,64,64,0
231.91475,238.05531,57,64,0
18.58696,18.750002,45,64,0
18.750002,18.913046,44,64,0
18.913046,19.239134,45,64,0
19.239134,19.56522,47,64,0
19.56522,19.891308,48,64,0
19.891308,20.05435,48,64,0
20.05435,20.217394,47,64,0
20.217394,20.543482,48,64,0
20.543482,20.869568,50,64,0
20.869568,21.032612,52,64,0
21.032612,21.195656,50,64,0
21.195656,21.358698,48,64,0
21.358698,21.521742,50,64,0
21.521742,21.84783,52,64,0
21.84783,22.173916,53,64,0
22.173916,22.500004,44,64,0
22.500004,22.82609,40,64,0
23.152178,23.478264,45,64,0
23.478264,23.641308,47,64,0
23.641308,23.804352,48,64,0
23.804352,23.967394,45,64,0
23.967394,24.130438,47,64,0
24.130438,24.293482,49,64,0
24.293482,24.456526,50,64,0
24.456526,24.619568,47,64,0
24.619568,24.782612,49,64,0
24.782612,25.1087,50,64,0
25.1087,25.434786,48,64,0
25.434786,25.760874,47,64,0
25.760874,26.08696,52,64,0
26.08696,26.413048,45,64,0
26.413048,26.739134,47,64,0
26.739134,27.065222,49,64,0
27.065222,27.391308,51,64,0
27.391308,27.717396,52,64,0
27.717396,27.880438,52,64,0
27.880438,28.043482,50,64,0
28.043482,28.36957,52,64,0
28.36957,28.695656,54,64,0
28.695656,29.34783,55,64,0
29.673918,30.000004,57,64,0
30.000004,30.326092,59,64,0
30.326092,30.489134,47,64,0
30.489134,30.652178,45,64,0
30.652178,30.978266,43,64,0
30.978266,31.304352,40,64,0
31.304352,31.956526,45,64,0
31.956526,32.6087,47,64,0
32.6087,32.934788,48,64,0
32.934788,33.260876,47,64,0
33.260876,33.58696,45,64,0
33.58696,33.750004,47,64,0
33.750004,33.913048,45,64,0
33.913048,34.239136,43,64,0
34.239136,34.565224,45,64,0
34.565224,35.217396,47,64,0
35.217396,35.543484,52,64,0
35.543484,35.86957,50,64,0
35.86957,36.195656,48,64,0
36.195656,36.521744,47,64,0
36.521744,36.84783,45,64,0
36.84783,37.17392,59,64,0
37.17392,37.500004,57,64,0
37.500004,37.82609,55,64,0
37.82609,38.15218,54,64,0
38.15218,38.478268,55,64,0
38.478268,38.80435,54,64,0
38.80435,39.13044,52,64,0
39.13044,39.456528,50,64,0
39.456528,39.782616,52,64,0
39.782616,40.1087,50,64,0
40.1087,40.434788,48,64,0
40.434788,40.760876,47,64,0
40.760876,41.413048,55,64,0
41.413048,41.739136,54,64,0
41.90218,42.065224,52,64,0
42.065224,42.228268,50,64,0
42.228268,42.39131,48,64,0
42.39131,42.717396,47,64,0
42.717396,43.043484,52,64,0
43.043484,43.36957,48,64,0
43.36957,43.69566,45,64,0
43.69566,44.021744,50,64,0
44.021744,44.34783,38,64,0
44.34783,44.67392,43,64,0
52.500008,52.66305,57,64,0
52.66305,52.826096,58,64,0
53.15218,53.478268,55,64,0
53.478268,53.804356,53,64,0
53.804356,53.9674,53,64,0
53.9674,54.130444,55,64,0
54.130444,54.456528,53,64,0
54.456528,54.782616,52,64,0
54.782616,54.94566,50,64,0
54.94566,55.108704,52,64,0
55.108704,55.271748,53,64,0
55.271748,55.43479,52,64,0
55.43479,55.760876,50,64,0
55.760876,56.086964,48,64,0
56.086964,56.41305,59,64,0
56.41305,56.73914,62,64,0
57.065224,57.39131,57,64,0
57.39131,57.554356,55,64,0
57.554356,57.7174,53,64,0
57.7174,57.880444,57,64,0
57.880444,58.043488,55,64,0
58.043488,58.206528,53,64,0
58.206528,58.36957,52,64,0
58.36957,58.532616,55,64,0
58.532616,58.69566,53,64,0
58.69566,59.021748,52,64,0
59.021748,59.347836,53,64,0
59.347836,59.510876,55,64,0
59.510876,59.67392,52,64,0
59.67392,59.836964,50,64,0
59.836964,60.000008,48,64,0
60.000008,60.16305,53,64,0
60.16305,60.326096,52,64,0
60.326096,60.48914,50,64,0
60.48914,60.652184,48,64,0
60.652184,60.815224,50,64,0
60.815224,60.978268,52,64,0
60.978268,61.14131,53,64,0
61.14131,61.304356,50,64,0
61.304356,61.95653,47,64,0
61.95653,62.282616,48,64,0
62.282616,62.93479,50,64,0
62.93479,63.26088,52,64,0
63.26088,63.586964,50,64,0
63.586964,63.91305,48,64,0
63.91305,64.239136,47,64,0
64.239136,64.40218,50,64,0
64.40218,64.56522,48,64,0
64.56522,64.89131,47,64,0
64.89131,65.2174,45,64,0
65.2174,65.54349,44,64,0
65.54349,65.869576,45,64,0
65.869576,66.19566,47,64,0
66.19566,66.52175,44,64,0
66.52175,66.84783,45,64,0
66.84783,67.17392,47,64,0
67.17392,67.50001,48,64,0
67.826096,68.15218,50,64,0
68.15218,68.47827,47,64,0
68.80436,69.13045,40,64,0
69.13045,69.45653,45,64,0
69.45653,69.782616,57,64,0
69.782616,70.1087,48,64,0
70.1087,70.43479,52,64,0
70.43479,70.76088,45,64,0
70.76088,71.08697,53,64,0
71.08697,71.413055,52,64,0
71.413055,71.73914,50,64,0
71.73914,72.06522,48,64,0
72.06522,72.39131,57,64,0
72.39131,72.7174,55,64,0
72.7174,73.04349,53,64,0
73.04349,73.369576,52,64,0
73.369576,73.532616,57,64,0
73.532616,73.69566,55,64,0
73.69566,73.8587,53,64,0
73.8587,74.02175,52,64,0
74.02175,74.18479,50,64,0
74.18479,74.34784,48,64,0
74.34784,74.67392,47,64,0
74.67392,74.83697,60,64,0
74.83697,75.00001,59,64,0
75.00001,75.163055,57,64,0
75.163055,75.326096,55,64,0
75.326096,75.48914,53,64,0
75.48914,75.65218,52,64,0
75.65218,75.97827,50,64,0
76.30436,76.63045,52,64,0
76.956535,77.282616,53,64,0
77.282616,77.6087,52,64,0
77.6087,77.93479,50,64,0
77.93479,78.26088,52,64,0
78.26088,78.58697,48,64,0
78.58697,78.913055,47,64,0
78.913055,79.23914,48,64,0
79.23914,79.56523,45,64,0
79.56523,80.54349,47,64,0
80.54349,80.869576,45,64,0
80.869576,81.19566,43,64,0
81.19566,81.3587,52,64,0
81.3587,81.52175,51,64,0
81.52175,81.84784,52,64,0
81.84784,82.17393,54,64,0
82.17393,82.50001,55,64,0
82.50001,82.663055,55,64,0
82.663055,82.826096,54,64,0
82.826096,83.15218,55,64,0
83.15218,83.47827,57,64,0
83.47827,83.64132,59,64,0
83.64132,83.80436,57,64,0
83.80436,83.9674,55,64,0
83.9674,84.13045,57,64,0
84.13045,84.456535,59,64,0
84.456535,84.78262,60,64,0
84.78262,85.1087,51,64,0
85.1087,85.43479,47,64,0
85.76088,86.08697,52,64,0
86.08697,86.250015,54,64,0
86.250015,86.413055,55,64,0
86.413055,86.576096,52,64,0
86.576096,86.73914,54,64,0
86.73914,86.90218,55,64,0
86.90218,87.06523,57,64,0
87.06523,87.22827,54,64,0
87.22827,87.39132,55,64,0
87.39132,87.7174,57,64,0
87.7174,88.04349,55,64,0
88.04349,88.369576,54,64,0
88.369576,88.69566,59,64,0
88.69566,89.02175,52,64,0
89.02175,89.18479,52,64,0
89.18479,89.34784,51,64,0
89.34784,89.67393,52,64,0
89.67393,90.000015,54,64,0
90.000015,91.63045,55,64,0
91.63045,91.79349,54,64,0
91.79349,91.956535,52,64,0
91.956535,92.28262,54,64,0
92.28262,92.60871,56,64,0
92.60871,92.93479,57,64,0
94.23914,94.56523,57,64,0
94.56523,94.89132,55,64,0
94.89132,95.21741,53,64,0
95.21741,95.869576,52,64,0
96.84784,97.01088,45,64,0
97.01088,97.17393,47,64,0
97.17393,97.500015,48,64,0
97.500015,98.15218,50,64,0
98.15218,98.31523,48,64,0
98.31523,98.47827,50,64,0
98.47827,98.80436,52,64,0
98.80436,99.456535,53,64,0
99.456535,99.619576,52,64,0
99.619576,99.78262,50,64,0
99.78262,100.10871,52,64,0
100.10871,100.4348,48,64,0
100.4348,100.76088,53,64,0
100.76088,100.92393,52,64,0
100.92393,101.08697,50,64,0
101.08697,101.250015,52,64,0
101.250015,101.413055,53,64,0
101.413055,101.5761,52,64,0
101.5761,101.73914,50,64,0
101.73914,102.06523,49,64,0
102.06523,102.39132,45,64,0
102.39132,102.71741,50,64,0
102.71741,103.043495,48,64,0
103.043495,103.369576,47,64,0
103.369576,103.69566,43,64,0
103.69566,104.02175,48,64,0
104.02175,104.34784,47,64,0
104.34784,104.67393,45,64,0
104.67393,104.83697,47,64,0
104.83697,105.000015,48,64,0
105.000015,105.3261,47,64,0
105.3261,105.65219,43,64,0
105.65219,106.30436,48,64,0
106.63045,106.956535,47,64,0
106.956535,107.60871,45,64,0
107.9348,108.26089,43,64,0
108.26089,108.42393,41,64,0
108.42393,108.58697,55,64,0
108.58697,108.750015,53,64,0
108.750015,108.913055,52,64,0
108.913055,109.0761,50,64,0
109.0761,109.23914,48,64,0
109.23914,109.40219,47,64,0
109.40219,109.56523,45,64,0
109.56523,109.89132,43,64,0
109.89132,110.21741,55,64,0
110.21741,110.543495,57,64,0
110.543495,110.86958,53,64,0
111.19566,111.35871,48,64,0
111.35871,111.52175,47,64,0
111.52175,111.84784,48,64,0
111.84784,112.17393,50,64,0
112.17393,112.500015,52,64,0
112.500015,112.663055,52,64,0
112.663055,112.8261,50,64,0
112.8261,113.15219,52,64,0
113.15219,113.47828,54,64,0
113.47828,113.64132,55,64,0
113.64132,113.80436,53,64,0
113.80436,113.96741,52,64,0
113.96741,114.13045,53,64,0
114.13045,114.456535,55,64,0
114.456535,114.78262,57,64,0
114.78262,115.10871,47,64,0
115.10871,115.4348,43,64,0
115.76089,116.086975,48,64,0
116.086975,116.250015,50,64,0
116.250015,116.413055,52,64,0
116.413055,116.5761,48,64,0
116.5761,116.73914,50,64,0
116.73914,116.90219,52,64,0
116.90219,117.06523,53,64,0
117.06523,117.22828,50,64,0
117.22828,117.39132,52,64,0
117.39132,117.71741,53,64,0
117.71741,118.043495,52,64,0
118.043495,118.36958,50,64,0
118.36958,118.69567,55,64,0
118.69567,119.02175,48,64,0
119.02175,119.1848,50,64,0
119.1848,119.34784,52,64,0
119.34784,120.65219,53,64,0
120.65219,120.97828,52,64,0
120.97828,121.30437,57,64,0
121.30437,121.63045,50,64,0
121.63045,121.793495,52,64,0
121.793495,121.956535,53,64,0
121.956535,122.28262,55,64,0
122.28262,122.60871,43,64,0
122.60871,123.26089,48,64,0
123.586975,123.91306,52,64,0
123.91306,124.0761,45,64,0
124.0761,124.23914,58,64,0
124.23914,124.40219,57,64,0
124.40219,124.56523,55,64,0
124.56523,124.72828,53,64,0
124.72828,124.89132,52,64,0
124.89132,125.05437,50,64,0
125.05437,125.21741,49,64,0
125.21741,127.17393,50,64,0
127.8261,129.13045,53,64,0
129.2935,129.45654,55,64,0
129.45654,129.61958,53,64,0
129.61958,129.78262,52,64,0
129.78262,130.76088,50,64,0
130.76088,131.41306,48,64,0
131.41306,131.73915,47,64,0
131.73915,132.06523,48,64,0
132.06523,132.39133,50,64,0
132.39133,133.36958,43,64,0
133.36958,133.69566,57,64,0
133.69566,134.02176,55,64,0
134.02176,134.34784,53,64,0
134.34784,134.67393,52,64,0
134.67393,135.00002,50,64,0
135.00002,135.32611,48,64,0
135.32611,135.65219,52,64,0
135.65219,135.97827,50,64,0
135.97827,136.14133,50,64,0
136.14133,136.30437,52,64,0
136.30437,136.63045,50,64,0
136.63045,136.95654,48,64,0
136.95654,137.28262,47,64,0
137.28262,137.44566,47,64,0
137.44566,137.60872,48,64,0
137.60872,137.9348,47,64,0
137.9348,138.2609,45,64,0
138.2609,138.42393,43,64,0
138.42393,138.58698,45,64,0
138.58698,138.75002,47,64,0
138.75002,138.91306,45,64,0
138.91306,139.23915,43,64,0
139.23915,139.56523,42,64,0
139.56523,139.89133,52,64,0
139.89133,140.2174,55,64,0
140.5435,140.86958,50,64,0
140.86958,141.03262,48,64,0
141.03262,141.19566,47,64,0
141.19566,141.35872,50,64,0
141.35872,141.52176,48,64,0
141.52176,141.6848,47,64,0
141.6848,141.84784,45,64,0
141.84784,142.0109,48,64,0
142.0109,142.17393,47,64,0
142.17393,142.50002,45,64,0
142.50002,142.82611,47,64,0
142.82611,143.15219,48,64,0
143.15219,143.47829,43,64,0
143.47829,144.13045,50,64,0
144.13045,144.78262,52,64,0
144.78262,145.4348,54,64,0
145.4348,146.08698,55,64,0
146.08698,146.73915,57,64,0
146.73915,147.06523,59,64,0
147.06523,147.39133,57,64,0
147.39133,147.7174,56,64,0
147.7174,148.0435,52,64,0
148.0435,148.36958,54,64,0
148.36958,148.69568,56,64,0
148.69568,149.02176,57,64,0
149.02176,149.34784,48,64,0
149.34784,149.67393,50,64,0
149.67393,150.00002,52,64,0
150.00002,150.65219,53,64,0
150.97829,151.30437,49,64,0
151.30437,151.63045,50,64,0
151.63045,151.95654,52,64,0
151.95654,152.28262,53,64,0
152.28262,152.60872,49,64,0
152.60872,153.2609,50,64,0
153.2609,154.23915,45,64,0
154.23915,154.56523,44,64,0
154.56523,155.2174,45,64,0
155.2174,159.45654,40,64,0
159.45654,159.61958,52,64,0
159.61958,159.78262,53,64,0
159.78262,160.10872,52,64,0
160.10872,160.4348,50,64,0
160.4348,160.7609,49,64,0
160.7609,160.92393,49,64,0
160.92393,161.08698,50,64,0
161.08698,161.41307,49,64,0
161.41307,161.73915,47,64,0
161.73915,161.90219,45,64,0
161.90219,162.06525,47,64,0
162.06525,162.22829,49,64,0
162.22829,162.39133,47,64,0
162.39133,162.7174,45,64,0
162.7174,163.0435,43,64,0
163.0435,163.69568,41,64,0
164.02176,164.34785,53,64,0
164.34785,164.67393,58,64,0
164.67393,165.00002,55,64,0
165.00002,165.65219,57,64,0
165.65219,165.97829,50,64,0
165.97829,166.14133,50,64,0
166.14133,166.30437,49,64,0
166.30437,166.63046,50,64,0
166.63046,166.95654,52,64,0
166.95654,167.28264,53,64,0
167.28264,167.44568,53,64,0
167.44568,167.60872,52,64,0
167.60872,167.9348,54,64,0
167.9348,168.2609,56,64,0
168.2609,168.42393,57,64,0
168.42393,168.58698,56,64,0
168.58698,168.75002,54,64,0
168.75002,168.91307,56,64,0
168.91307,169.23915,57,64,0
169.23915,169.56525,59,64,0
169.56525,169.89133,48,64,0
169.89133,170.2174,45,64,0
170.5435,170.86958,50,64,0
170.86958,171.03264,52,64,0
171.03264,171.19568,53,64,0
171.19568,171.35872,50,64,0
171.35872,171.52176,52,64,0
171.52176,171.6848,53,64,0
171.6848,171.84785,55,64,0
171.84785,172.0109,52,64,0
172.0109,172.17393,54,64,0
172.17393,172.50003,55,64,0
172.50003,172.82611,53,64,0
172.82611,173.15219,52,64,0
173.15219,173.47829,57,64,0
173.47829,173.80437,50,64,0
173.80437,174.2935,57,64,0
174.2935,174.45654,56,64,0
174.45654,174.61958,57,64,0
174.61958,174.78264,56,64,0
174.78264,175.59785,57,64,0
175.59785,175.7609,55,64,0
175.7609,175.92393,53,64,0
175.92393,176.08698,52,64,0
176.08698,176.90219,53,64,0
176.90219,177.06525,52,64,0
177.06525,177.22829,50,64,0
177.22829,177.39133,49,64,0
177.39133,177.71742,50,64,0
188.1522,188.31525,48,64,0
188.31525,188.47829,50,64,0
188.47829,188.80437,48,64,0
188.80437,189.13046,46,64,0
189.13046,189.45654,45,64,0
189.45654,189.61958,45,64,0
189.61958,189.78264,46,64,0
189.78264,190.10872,45,64,0
190.10872,190.43481,43,64,0
190.43481,190.59785,41,64,0
190.59785,190.7609,43,64,0
190.7609,190.92393,45,64,0
190.92393,191.08698,43,64,0
191.08698,191.41307,41,64,0
191.41307,191.73915,39,64,0
191.73915,192.06525,50,64,0
192.06525,192.39133,54,64,0
192.71742,193.0435,48,64,0
193.0435,193.20654,46,64,0
193.20654,193.3696,45,64,0
193.3696,193.53264,48,64,0
193.53264,193.69568,46,64,0
193.69568,193.85872,45,64,0
193.85872,194.02176,43,64,0
194.02176,194.18481,46,64,0
194.18481,194.34785,45,64,0
194.34785,195.32611,43,64,0
195.32611,195.6522,42,64,0
195.6522,199.89133,43,64,0
199.89133,200.05437,52,64,0
200.05437,200.21742,53,64,0
200.21742,200.38046,55,64,0
200.38046,200.5435,53,64,0
200.5435,200.70654,52,64,0
200.70654,200.8696,50,64,0
200.8696,201.19568,49,64,0
202.50003,202.82611,64,64,0
202.82611,203.1522,61,64,0
203.1522,203.47829,57,64,0
203.47829,203.80438,50,64,0
204.99374,205.43295,50,64,0
206.72514,208.48985,50,64,0
209.26907,210.0483,51,64,0
210.80779,211.54854,52,64,0
212.28928,213.20016,52,64,0
215.89963,216.7939,54,64,0
217.24104,217.68819,56,64,0
217.68819,218.13533,57,64,0
218.13533,218.58247,50,64,0
218.58247,219.47675,52,64,0
219.47675,238.05531,45,68,0
