start_time,end_time,note_value,velocity,instrument_program_number
0.0,0.14705876,77,64,0
0.14705876,0.2941175,72,64,0
0.2941175,0.44117624,69,64,0
0.44117624,0.588235,67,64,0
0.588235,0.73529375,69,64,0
0.73529375,0.8823525,72,64,0
0.8823525,1.0294112,65,64,0
1.0294112,1.17647,69,64,0
1.17647,1.3235288,72,64,0
1.3235288,1.4705875,75,64,0
1.4705875,1.6176462,74,64,0
1.6176462,1.764705,72,64,0
1.764705,1.9117638,74,64,0
1.9117638,2.0588224,70,64,0
2.0588224,2.2058814,65,64,0
2.2058814,2.35294,64,64,0
2.35294,2.4999988,65,64,0
2.4999988,2.6470575,70,64,0
2.6470575,2.7941163,62,64,0
2.7941163,2.941175,65,64,0
2.941175,3.0882337,69,64,0
3.0882337,3.2352924,72,64,0
3.2352924,3.3823512,70,64,0
3.3823512,3.52941,69,64,0
3.52941,3.6764688,70,64,0
3.6764688,3.8235276,67,64,0
3.8235276,3.9705863,64,64,0
3.9705863,4.117645,62,64,0
4.117645,4.2647038,64,64,0
4.2647038,4.4117627,67,64,0
4.4117627,4.558821,60,64,0
4.558821,4.70588,64,64,0
4.70588,4.8529387,67,64,0
4.8529387,4.9999976,70,64,0
4.9999976,5.147056,69,64,0
5.147056,5.294115,67,64,0
5.294115,5.4411736,69,64,0
5.4411736,5.5882325,67,64,0
5.5882325,5.7352915,65,64,0
5.7352915,5.88235,64,64,0
5.88235,6.029409,65,64,0
6.029409,6.1764674,69,64,0
6.1764674,6.3235264,60,64,0
6.3235264,6.470585,64,64,0
6.470585,6.617644,65,64,0
6.617644,6.7647023,69,64,0
6.7647023,6.9117613,67,64,0
6.9117613,7.05882,65,64,0
7.05882,7.1397023,69,72,0
7.1323495,7.2132316,71,64,0
7.2058787,7.2867613,72,72,0
7.279408,7.3602905,71,40,0
7.3529377,7.43382,72,40,0
7.426467,7.507349,71,41,0
7.499996,7.5808787,72,42,0
7.5735254,7.654408,71,42,0
7.647055,7.727937,72,43,0
7.7205844,7.8014665,71,44,0
7.7941136,7.874996,72,44,0
7.8676434,7.9485254,71,45,0
7.9411726,8.022055,72,46,0
8.014702,8.095584,71,46,0
8.088231,8.169113,72,47,0
8.16176,8.242643,71,48,0
8.23529,8.316173,72,48,0
8.30882,8.389702,71,49,0
8.382349,8.463231,72,50,0
8.455878,8.53676,71,50,0
8.5294075,8.61029,72,51,0
8.602937,8.683819,71,70,0
8.676466,8.757349,69,66,0
8.749995,8.823525,71,74,0
8.823525,8.970584,72,64,0
8.970584,9.117642,67,64,0
9.117642,9.264701,64,64,0
9.264701,9.41176,62,64,0
9.41176,9.558819,64,64,0
9.558819,9.705877,67,64,0
9.705877,9.852936,60,64,0
9.852936,9.999995,64,64,0
9.999995,10.147054,67,64,0
10.147054,10.294112,70,64,0
10.294112,10.441172,69,64,0
10.441172,10.58823,67,64,0
10.58823,10.669112,74,72,0
10.661759,10.742641,73,40,0
10.735289,10.816171,71,64,0
10.808818,10.889701,73,40,0
10.882347,10.96323,74,41,0
10.955877,11.036759,73,42,0
11.029407,11.110289,74,42,0
11.102936,11.183818,73,43,0
11.176465,11.257347,74,43,0
11.249994,11.330876,73,44,0
11.3235235,11.404406,74,45,0
11.397053,11.477936,73,45,0
11.470583,11.551465,74,46,0
11.544112,11.624994,73,47,0
11.617641,11.6985235,74,47,0
11.691171,11.772053,73,48,0
11.7647,11.845582,74,49,0
11.838229,11.919111,73,49,0
11.911758,11.992641,74,50,0
11.985288,12.066171,73,51,0
12.058818,12.1397,74,51,0
12.132347,12.213229,73,40,0
12.205876,12.286758,71,76,0
12.279406,12.352935,73,70,0
12.352935,12.499993,74,64,0
12.499993,12.647053,69,64,0
12.647053,12.794111,65,64,0
12.794111,12.94117,64,64,0
12.94117,13.088229,65,64,0
13.088229,13.235288,69,64,0
13.235288,13.382346,62,64,0
13.382346,13.529405,65,64,0
13.529405,13.676464,69,64,0
13.676464,13.823523,72,64,0
13.823523,13.970581,70,64,0
13.970581,14.11764,69,64,0
14.11764,14.264699,70,64,0
14.264699,14.411757,67,64,0
14.411757,14.558816,64,64,0
14.558816,14.705875,62,64,0
14.705875,14.852934,64,64,0
14.852934,14.999992,67,64,0
14.999992,15.147051,60,64,0
15.147051,15.29411,64,64,0
15.29411,15.441169,67,64,0
15.441169,15.588227,70,64,0
15.588227,15.735287,69,64,0
15.735287,15.882345,67,64,0
15.882345,16.029404,69,64,0
16.029404,16.176462,65,64,0
16.176462,16.32352,62,64,0
16.32352,16.47058,61,64,0
16.47058,16.61764,62,64,0
16.61764,16.764698,65,64,0
16.764698,16.911757,58,64,0
16.911757,17.058815,62,64,0
17.058815,17.205873,65,64,0
17.205873,17.352932,69,64,0
17.352932,17.49999,67,64,0
17.49999,17.64705,65,64,0
17.64705,17.79411,67,64,0
17.79411,17.941168,64,64,0
17.941168,18.088226,61,64,0
18.088226,18.235285,59,64,0
18.235285,18.382343,61,64,0
18.382343,18.529402,64,64,0
18.529402,18.676462,57,64,0
18.676462,18.82352,61,64,0
18.82352,18.97058,64,64,0
18.97058,19.117638,67,64,0
19.117638,19.264696,65,64,0
19.264696,19.411755,64,64,0
19.411755,19.705872,65,64,0
19.705872,19.99999,69,64,0
19.99999,20.294107,74,64,0
20.294107,20.588224,69,64,0
20.588224,20.882343,65,64,0
20.882343,21.17646,62,64,0
21.17646,21.470577,67,64,0
21.470577,21.764694,70,64,0
21.764694,22.058813,74,64,0
22.058813,22.35293,70,64,0
22.35293,22.647047,67,64,0
22.647047,22.941166,62,64,0
22.941166,23.235283,67,64,0
23.235283,23.5294,73,64,0
23.5294,23.823517,76,64,0
23.823517,24.117636,73,64,0
24.117636,24.411753,67,64,0
24.411753,24.70587,64,64,0
24.70587,24.852928,74,64,0
24.852928,24.999987,69,64,0
24.999987,25.147047,65,64,0
25.147047,25.294106,64,64,0
25.294106,25.441164,65,64,0
25.441164,25.588223,69,64,0
25.588223,25.735281,62,64,0
25.735281,25.88234,65,64,0
25.88234,26.029398,69,64,0
26.029398,26.176458,72,64,0
26.176458,26.323517,70,64,0
26.323517,26.470575,69,64,0
26.470575,26.617634,77,64,0
26.617634,26.764692,74,64,0
26.764692,26.91175,70,64,0
26.91175,27.05881,69,64,0
27.05881,27.20587,70,64,0
27.20587,27.352928,74,64,0
27.352928,27.499987,65,64,0
27.499987,27.647045,70,64,0
27.647045,27.794104,74,64,0
27.794104,27.941162,77,64,0
27.941162,28.08822,76,64,0
28.08822,28.23528,74,64,0
28.23528,28.30881,81,72,0
28.30881,28.389692,80,64,0
28.38234,28.46322,78,64,0
28.455868,28.53675,80,40,0
28.529398,28.61028,81,41,0
28.602926,28.68381,80,42,0
28.676456,28.75734,81,42,0
28.749985,28.830868,80,43,0
28.823515,28.904398,81,43,0
28.897045,28.977926,80,44,0
28.970573,29.051456,81,45,0
29.044104,29.124985,80,45,0
29.117632,29.198515,81,46,0
29.191162,29.272045,80,46,0
29.26469,29.345573,81,47,0
29.33822,29.419104,80,48,0
29.41175,29.492632,81,48,0
29.48528,29.566162,80,49,0
29.55881,29.63969,81,49,0
29.632338,29.71322,80,50,0
29.705868,29.786749,81,51,0
29.779396,29.86028,80,51,0
29.852926,29.93381,78,68,0
29.926456,29.999985,80,72,0
29.999985,30.147043,81,64,0
30.147043,30.294102,76,64,0
30.294102,30.441162,73,64,0
30.441162,30.58822,71,64,0
30.58822,30.73528,73,64,0
30.73528,30.882338,76,64,0
30.882338,31.029396,69,64,0
31.029396,31.176455,73,64,0
31.176455,31.323513,76,64,0
31.323513,31.470573,79,64,0
31.470573,31.617632,78,64,0
31.617632,31.71567,76,64,0
31.76469,31.838219,76,72,0
31.838219,31.919102,78,64,0
31.911749,31.992632,79,40,0
31.985277,32.066162,78,40,0
32.058807,32.13969,79,41,0
32.132336,32.21322,78,42,0
32.205868,32.286747,79,42,0
32.279396,32.36028,78,43,0
32.352924,32.433807,79,43,0
32.426453,32.507336,78,44,0
32.499985,32.580868,79,45,0
32.573513,32.654396,78,45,0
32.64704,32.727924,79,46,0
32.720573,32.801453,78,46,0
32.7941,32.874985,79,47,0
32.86763,32.948513,78,48,0
32.94116,33.02204,79,48,0
33.01469,33.095573,78,49,0
33.08822,33.1691,79,49,0
33.161747,33.24263,78,50,0
33.23528,33.31616,79,51,0
33.308807,33.38969,78,51,0
33.382336,33.46322,76,68,0
33.455864,33.529396,78,72,0
33.529396,33.676453,79,64,0
33.676453,33.823513,74,64,0
33.823513,33.97057,71,64,0
33.97057,34.11763,69,64,0
34.11763,34.26469,71,64,0
34.26469,34.411747,74,64,0
34.411747,34.558807,67,64,0
34.558807,34.705864,71,64,0
34.705864,34.852924,74,64,0
34.852924,34.99998,77,64,0
34.99998,35.14704,75,64,0
35.14704,35.2941,74,64,0
35.2941,35.44116,75,64,0
35.44116,35.58822,72,64,0
35.58822,35.735275,69,64,0
35.735275,35.882336,67,64,0
35.882336,36.029392,69,64,0
36.029392,36.176453,72,64,0
36.176453,36.323513,65,64,0
36.323513,36.47057,69,64,0
36.47057,36.61763,72,64,0
36.61763,36.764687,75,64,0
36.764687,36.911747,74,64,0
36.911747,37.058804,72,64,0
37.058804,37.205864,74,64,0
37.205864,37.352924,70,64,0
37.352924,37.49998,67,64,0
37.49998,37.64704,66,64,0
37.64704,37.794098,67,64,0
37.794098,37.94116,70,64,0
37.94116,38.088215,63,64,0
38.088215,38.235275,67,64,0
38.235275,38.38233,70,64,0
38.38233,38.529392,74,64,0
38.529392,38.676453,72,64,0
38.676453,38.82351,70,64,0
38.82351,38.97057,72,64,0
38.97057,39.117626,69,64,0
39.117626,39.264687,66,64,0
39.264687,39.411743,64,64,0
39.411743,39.558804,66,64,0
39.558804,39.705864,69,64,0
39.705864,39.85292,62,64,0
39.85292,39.99998,66,64,0
39.99998,40.147038,69,64,0
40.147038,40.294098,72,64,0
40.294098,40.441154,70,64,0
40.441154,40.539196,69,64,0
40.588215,40.661743,69,74,0
40.661743,40.735275,70,65,0
40.735275,40.808804,72,72,0
40.808804,40.88233,70,54,0
40.88233,40.963215,72,40,0
40.95586,41.036743,70,40,0
41.029392,41.110275,72,40,0
41.10292,41.183804,70,41,0
41.17645,41.25733,72,41,0
41.24998,41.33086,70,41,0
41.32351,41.404392,72,41,0
41.397038,41.47792,70,42,0
41.470566,41.55145,72,42,0
41.544098,41.62498,70,42,0
41.617626,41.69851,72,43,0
41.691154,41.772038,70,43,0
41.764687,41.845566,72,43,0
41.838215,41.919098,70,44,0
41.911743,41.992626,72,44,0
41.98527,42.066154,70,44,0
42.058804,42.139687,72,44,0
42.13233,42.213215,70,45,0
42.20586,42.286743,72,45,0
42.279392,42.36027,70,45,0
42.35292,42.433804,72,46,0
42.42645,42.50733,70,46,0
42.499977,42.58086,72,46,0
42.57351,42.654392,70,46,0
42.647038,42.72792,72,47,0
42.720566,42.80145,70,47,0
42.794098,42.874977,72,47,0
42.867626,42.94851,70,48,0
42.941154,43.022038,72,48,0
43.014683,43.095566,70,48,0
43.088215,43.169098,72,49,0
43.161743,43.242626,70,49,0
43.23527,43.316154,72,49,0
43.308804,43.389683,70,49,0
43.38233,43.463215,72,50,0
43.45586,43.536743,70,50,0
43.52939,43.61027,72,50,0
43.60292,43.683804,70,51,0
43.67645,43.75733,72,51,0
43.749977,43.83086,70,51,0
43.82351,43.90439,72,60,0
43.897038,43.970566,70,63,0
43.970566,44.044094,72,70,0
44.044094,44.117626,70,64,0
42.35292,44.117626,64,70,0
44.117626,44.191154,65,72,0
44.191154,44.264683,63,68,0
44.264683,44.338215,62,68,0
44.338215,44.419094,63,40,0
44.411743,44.492626,65,41,0
44.48527,44.566154,63,41,0
44.5588,44.639683,65,42,0
44.63233,44.71321,63,43,0
44.70586,44.786743,65,43,0
44.77939,44.86027,63,44,0
44.85292,44.9338,65,44,0
44.92645,45.00733,63,45,0
44.999977,45.08086,65,46,0
45.073505,45.15439,63,46,0
45.147038,45.227917,65,47,0
45.220566,45.30145,63,48,0
45.294094,45.374977,65,48,0
45.367626,45.448505,63,49,0
45.441154,45.522038,65,49,0
45.514683,45.595566,63,50,0
45.58821,45.669094,65,51,0
45.661743,45.742622,63,51,0
45.73527,45.8088,65,69,0
45.8088,45.88233,63,64,0
44.117626,46.00488,69,72,0
46.036743,46.1838,69,64,0
45.88233,46.1838,62,62,0
46.1838,46.33086,65,64,0
46.33086,46.477917,64,64,0
46.477917,46.624977,65,64,0
46.624977,46.772034,69,64,0
46.772034,46.919094,62,64,0
46.919094,47.066154,65,64,0
47.066154,47.21321,69,64,0
47.21321,47.36027,72,64,0
47.36027,47.507328,70,64,0
47.507328,47.65439,69,64,0
47.65439,47.801445,67,64,0
47.801445,47.948505,74,64,0
47.948505,48.095566,70,64,0
48.095566,48.242622,69,64,0
48.242622,48.389683,70,64,0
48.389683,48.53674,74,64,0
48.53674,48.6838,67,64,0
48.6838,48.830856,70,64,0
48.830856,48.977917,74,64,0
48.977917,49.124977,77,64,0
49.124977,49.272034,76,64,0
49.272034,49.419094,74,64,0
49.419094,49.56615,76,64,0
49.56615,49.71321,79,64,0
49.71321,49.860268,76,64,0
49.860268,50.007328,74,64,0
50.007328,50.15439,76,64,0
50.15439,50.301445,79,64,0
50.301445,50.448505,72,64,0
50.448505,50.595562,76,64,0
50.595562,50.742622,79,64,0
50.742622,50.88968,82,64,0
50.88968,51.03674,81,64,0
51.03674,51.1838,79,64,0
51.1838,51.330856,84,64,0
51.330856,51.477917,81,64,0
51.477917,51.624973,77,64,0
51.624973,51.772034,76,64,0
51.772034,51.91909,77,64,0
51.91909,52.06615,81,64,0
52.06615,52.21321,74,64,0
52.21321,52.360268,77,64,0
52.360268,52.507328,81,64,0
52.507328,52.654385,84,64,0
52.654385,52.801445,82,64,0
52.801445,52.9485,81,64,0
52.9485,53.095562,82,64,0
53.095562,53.24262,79,64,0
53.24262,53.38968,76,64,0
53.38968,53.53674,74,64,0
53.53674,53.683796,76,64,0
53.683796,53.830856,79,64,0
53.830856,53.977913,72,64,0
53.977913,54.124973,76,64,0
54.124973,54.27203,79,64,0
54.27203,54.41909,82,64,0
54.41909,54.56615,81,64,0
54.56615,54.713207,79,64,0
54.713207,54.860268,81,64,0
54.860268,55.007324,77,64,0
55.007324,55.154385,72,64,0
55.154385,55.30144,70,64,0
55.30144,55.4485,72,64,0
55.4485,55.595562,77,64,0
55.595562,55.74262,69,64,0
55.74262,55.88968,72,64,0
55.88968,56.036736,75,64,0
56.036736,56.183796,79,64,0
56.183796,56.330853,77,64,0
56.330853,56.477913,75,64,0
56.477913,56.55144,75,74,0
56.55144,56.624973,74,76,0
56.624973,56.6985,75,47,0
56.6985,56.77203,74,54,0
56.77203,56.84556,75,62,0
56.84556,57.507324,74,64,0
57.507324,57.654385,72,64,0
57.654385,57.80144,70,64,0
57.80144,57.9485,69,64,0
57.9485,58.09556,67,64,0
58.09556,58.24262,65,64,0
58.24262,58.536736,70,64,0
58.536736,58.830853,79,64,0
58.830853,59.12497,76,64,0
59.12497,59.419086,72,64,0
59.419086,59.713207,70,64,0
59.713207,60.007324,79,64,0
60.007324,60.15438,69,64,0
60.15438,60.30144,67,64,0
60.30144,60.448498,65,64,0
60.448498,60.59556,64,64,0
60.59556,60.74262,65,64,0
60.74262,60.889675,69,64,0
60.889675,61.036736,62,64,0
61.036736,61.183792,65,64,0
61.183792,61.330853,62,64,0
61.330853,61.47791,58,64,0
61.47791,61.62497,55,64,0
61.62497,61.772175,64,64,0
61.772175,61.922176,65,64,0
61.922176,62.072826,58,64,0
62.072826,62.23587,57,64,0
62.23587,62.402042,55,64,0
62.402042,62.627666,57,64,0
62.627666,62.851383,60,64,0
62.851383,63.628036,53,64,0
0.0,0.2941175,53,64,0
0.2941175,0.588235,57,64,0
0.588235,0.8823525,60,64,0
0.8823525,1.17647,57,64,0
1.17647,1.4705875,53,64,0
1.4705875,1.764705,57,64,0
1.764705,2.0588224,58,64,0
2.0588224,2.35294,62,64,0
2.35294,2.6470575,58,64,0
2.6470575,3.2352924,41,64,0
3.52941,3.8235276,53,64,0
3.8235276,4.117645,55,64,0
4.117645,4.4117627,58,64,0
4.4117627,4.70588,55,64,0
4.70588,4.9999976,52,64,0
4.9999976,5.294115,48,64,0
5.294115,5.5882325,53,64,0
5.5882325,5.88235,57,64,0
5.88235,6.1764674,53,64,0
6.1764674,6.7647023,41,64,0
7.05882,7.2058787,53,64,0
7.2058787,7.3529377,50,64,0
7.3529377,7.499996,47,64,0
7.499996,7.647055,45,64,0
7.647055,7.7941136,47,64,0
7.7941136,7.9411726,50,64,0
7.9411726,8.088231,43,64,0
8.088231,8.23529,47,64,0
8.23529,8.382349,50,64,0
8.382349,8.5294075,53,64,0
8.5294075,8.676466,52,64,0
8.676466,8.774506,50,64,0
8.823525,8.9044075,50,72,0
8.897055,8.977937,52,60,0
8.970584,9.051466,53,72,0
9.044113,9.124995,52,40,0
9.117642,9.198524,53,41,0
9.191172,9.272054,52,41,0
9.264701,9.345584,53,42,0
9.338231,9.419113,52,42,0
9.41176,9.492642,53,43,0
9.48529,9.566172,52,44,0
9.558819,9.639701,53,44,0
9.632348,9.71323,52,45,0
9.705877,9.786759,53,46,0
9.779407,9.86029,52,46,0
9.852936,9.933819,53,47,0
9.926466,10.007348,52,48,0
9.999995,10.080877,53,48,0
10.073524,10.154407,52,49,0
10.147054,10.227936,53,49,0
10.220583,10.301465,52,50,0
10.294112,10.374995,53,51,0
10.367641,10.448524,52,51,0
10.441172,10.522054,50,62,0
10.514701,10.58823,52,68,0
10.58823,10.735289,55,64,0
10.735289,10.882347,52,64,0
10.882347,11.029407,49,64,0
11.029407,11.176465,47,64,0
11.176465,11.3235235,49,64,0
11.3235235,11.470583,52,64,0
11.470583,11.617641,45,64,0
11.617641,11.7647,49,64,0
11.7647,11.911758,52,64,0
11.911758,12.058818,55,64,0
12.058818,12.205876,53,64,0
12.205876,12.303915,52,64,0
12.352935,12.426464,52,77,0
12.426464,12.499993,53,69,0
12.499993,12.580876,55,40,0
12.5735235,12.654406,53,40,0
12.647053,12.727935,55,40,0
12.720582,12.801464,53,41,0
12.794111,12.874993,55,42,0
12.8676405,12.948523,53,42,0
12.94117,13.022053,55,43,0
13.014699,13.095582,53,43,0
13.088229,13.169111,55,44,0
13.161758,13.2426405,53,45,0
13.235288,13.31617,55,45,0
13.308817,13.389699,53,46,0
13.382346,13.463228,55,47,0
13.455875,13.536757,53,47,0
13.529405,13.610288,55,48,0
13.602935,13.683817,53,49,0
13.676464,13.757346,55,49,0
13.749993,13.830875,53,50,0
13.823523,13.904405,55,50,0
13.897052,13.977934,53,51,0
13.970581,14.051463,55,56,0
14.04411,14.11764,53,60,0
14.11764,14.411757,55,64,0
14.411757,14.705875,58,64,0
14.705875,14.999992,55,64,0
14.999992,15.29411,52,64,0
15.29411,15.588227,48,64,0
15.588227,15.882345,52,64,0
15.882345,16.176462,53,64,0
16.176462,16.47058,57,64,0
16.47058,16.764698,53,64,0
16.764698,17.058815,50,64,0
17.058815,17.352932,46,64,0
17.352932,17.64705,50,64,0
17.64705,17.941168,52,64,0
17.941168,18.235285,55,64,0
18.235285,18.529402,52,64,0
18.529402,18.82352,49,64,0
18.82352,19.117638,45,64,0
19.117638,19.411755,49,64,0
19.411755,19.558813,50,64,0
19.558813,19.705872,45,64,0
19.705872,19.852932,41,64,0
19.852932,19.99999,40,64,0
19.99999,20.147049,41,64,0
20.147049,20.294107,45,64,0
20.294107,20.441166,38,64,0
20.441166,20.588224,41,64,0
20.588224,20.735283,45,64,0
20.735283,20.882343,48,64,0
20.882343,21.029402,46,64,0
21.029402,21.17646,45,64,0
21.17646,21.323519,50,64,0
21.323519,21.470577,46,64,0
21.470577,21.617636,43,64,0
21.617636,21.764694,42,64,0
21.764694,21.911755,43,64,0
21.911755,22.058813,46,64,0
22.058813,22.205872,38,64,0
22.205872,22.35293,43,64,0
22.35293,22.499989,46,64,0
22.499989,22.647047,50,64,0
22.647047,22.794106,49,64,0
22.794106,22.941166,47,64,0
22.941166,23.088224,49,64,0
23.088224,23.235283,46,64,0
23.235283,23.382341,43,64,0
23.382341,23.5294,42,64,0
23.5294,23.676458,43,64,0
23.676458,23.823517,46,64,0
23.823517,23.970575,38,64,0
23.970575,24.117636,43,64,0
24.117636,24.264694,49,64,0
24.264694,24.411753,52,64,0
24.411753,24.558811,50,64,0
24.558811,24.70587,49,64,0
24.70587,24.999987,50,64,0
24.999987,25.294106,53,64,0
25.294106,25.588223,57,64,0
25.588223,25.88234,53,64,0
25.88234,26.176458,50,64,0
26.176458,26.470575,53,64,0
26.470575,26.764692,38,64,0
26.764692,27.05881,41,64,0
27.05881,27.352928,46,64,0
27.352928,27.941162,50,64,0
28.23528,28.38234,62,64,0
28.38234,28.529398,59,64,0
28.529398,28.676456,56,64,0
28.676456,28.823515,54,64,0
28.823515,28.970573,56,64,0
28.970573,29.117632,59,64,0
29.117632,29.26469,52,64,0
29.26469,29.41175,56,64,0
29.41175,29.55881,59,64,0
29.55881,29.705868,62,64,0
29.705868,29.852926,61,64,0
29.852926,29.950966,59,64,0
29.999985,30.073515,59,72,0
30.073515,30.147043,61,64,0
30.147043,30.227926,62,68,0
30.220573,30.301455,61,40,0
30.294102,30.374985,62,40,0
30.367632,30.448515,61,41,0
30.441162,30.522043,62,42,0
30.51469,30.595573,61,43,0
30.58822,30.669102,62,43,0
30.661749,30.742632,61,44,0
30.73528,30.81616,62,45,0
30.808807,30.88969,61,45,0
30.882338,30.96322,62,46,0
30.955868,31.036749,61,47,0
31.029396,31.11028,62,47,0
31.102926,31.183807,61,48,0
31.176455,31.257338,62,49,0
31.249985,31.330866,61,49,0
31.323513,31.404396,62,50,0
31.397043,31.477926,61,51,0
31.470573,31.551455,62,51,0
31.544102,31.624985,61,58,0
31.617632,31.698513,59,62,0
31.69116,31.772043,61,66,0
31.76469,31.911749,60,64,0
31.911749,32.058807,57,64,0
32.058807,32.205868,54,64,0
32.205868,32.352924,52,64,0
32.352924,32.499985,54,64,0
32.499985,32.64704,57,64,0
32.64704,32.7941,50,64,0
32.7941,32.94116,54,64,0
32.94116,33.08822,57,64,0
33.08822,33.23528,60,64,0
33.23528,33.382336,59,64,0
33.382336,33.529396,57,64,0
33.529396,33.602924,57,72,0
33.602924,33.676453,59,64,0
33.676453,33.757336,60,68,0
33.749985,33.830864,59,40,0
33.823513,33.904396,60,40,0
33.89704,33.977924,59,41,0
33.97057,34.051453,60,42,0
34.0441,34.124985,59,43,0
34.11763,34.198513,60,43,0
34.19116,34.27204,59,44,0
34.26469,34.34557,60,45,0
34.33822,34.4191,59,45,0
34.411747,34.49263,60,46,0
34.485275,34.56616,59,47,0
34.558807,34.63969,60,47,0
34.632336,34.71322,59,48,0
34.705864,34.786747,60,49,0
34.779396,34.860275,59,49,0
34.852924,34.933807,60,50,0
34.926453,35.007336,59,51,0
34.99998,35.080864,60,51,0
35.073513,35.154396,59,58,0
35.14704,35.227924,57,62,0
35.22057,35.2941,61,66,0
35.2941,35.58822,60,64,0
35.58822,35.882336,63,64,0
35.882336,36.176453,60,64,0
36.176453,36.47057,57,64,0
36.47057,36.764687,53,64,0
36.764687,37.058804,57,64,0
37.058804,37.352924,58,64,0
37.352924,37.64704,62,64,0
37.64704,37.94116,58,64,0
37.94116,38.235275,55,64,0
38.235275,38.529392,51,64,0
38.529392,38.82351,55,64,0
38.82351,39.117626,57,64,0
39.117626,39.411743,60,64,0
39.411743,39.705864,57,64,0
39.705864,39.99998,54,64,0
39.99998,40.294098,50,64,0
40.294098,40.588215,54,64,0
40.588215,40.735275,55,64,0
40.735275,40.88233,50,64,0
40.88233,41.029392,46,64,0
41.029392,41.17645,45,64,0
41.17645,41.32351,46,64,0
41.32351,41.470566,50,64,0
41.470566,41.617626,43,64,0
41.617626,41.764687,46,64,0
41.764687,41.911743,50,64,0
41.911743,42.058804,53,64,0
42.058804,42.20586,52,64,0
42.20586,42.35292,50,64,0
42.35292,42.499977,48,64,0
42.499977,42.647038,43,64,0
42.647038,42.794098,40,64,0
42.794098,42.941154,38,64,0
42.941154,43.088215,40,64,0
43.088215,43.23527,43,64,0
43.23527,43.38233,36,64,0
43.38233,43.52939,43,64,0
43.52939,43.67645,48,64,0
43.67645,43.82351,52,64,0
43.82351,43.970566,50,64,0
43.970566,44.117626,48,64,0
44.117626,44.264683,53,64,0
44.264683,44.411743,48,64,0
44.411743,44.5588,45,64,0
44.5588,44.70586,43,64,0
44.70586,44.85292,45,64,0
44.85292,44.999977,48,64,0
44.999977,45.147038,41,64,0
45.147038,45.294094,48,64,0
45.294094,45.441154,53,64,0
45.441154,45.58821,57,64,0
45.58821,45.73527,55,64,0
45.73527,45.88233,53,64,0
45.88233,45.95586,60,74,0
45.95586,46.02939,58,69,0
46.02939,46.102917,60,54,0
46.102917,46.1838,58,40,0
46.17645,46.257328,60,40,0
46.249977,46.33086,58,40,0
46.323505,46.40439,60,40,0
46.397038,46.477917,58,40,0
46.470566,46.55145,60,41,0
46.544094,46.624977,58,41,0
46.617622,46.698505,60,41,0
46.691154,46.772034,58,41,0
46.764683,46.845566,60,41,0
46.83821,46.919094,58,41,0
46.91174,46.992622,60,42,0
46.98527,47.066154,58,42,0
47.0588,47.139683,60,42,0
47.132328,47.21321,58,42,0
47.20586,47.28674,60,42,0
47.27939,47.36027,58,42,0
47.352917,47.4338,60,43,0
47.426445,47.507328,58,43,0
47.499977,47.58086,60,43,0
47.573505,47.65439,58,43,0
47.647034,47.727917,60,43,0
47.720566,47.801445,58,44,0
47.794094,47.874977,60,44,0
47.867622,47.948505,58,44,0
47.94115,48.022034,60,44,0
48.014683,48.095566,58,44,0
48.08821,48.169094,60,44,0
48.16174,48.242622,58,45,0
48.23527,48.31615,60,45,0
48.3088,48.389683,58,45,0
48.382328,48.46321,60,45,0
48.455856,48.53674,58,45,0
48.52939,48.61027,60,46,0
48.602917,48.6838,58,46,0
48.676445,48.757328,60,46,0
48.749977,48.830856,58,46,0
48.823505,48.90439,60,46,0
48.897034,48.977917,58,46,0
48.970562,49.051445,60,47,0
49.044094,49.124977,58,47,0
49.117622,49.198505,60,47,0
49.19115,49.272034,58,47,0
49.264683,49.345562,60,47,0
49.33821,49.419094,58,48,0
49.41174,49.492622,60,48,0
49.485268,49.56615,58,48,0
49.5588,49.639683,60,48,0
49.632328,49.71321,58,48,0
49.705856,49.78674,60,48,0
49.77939,49.860268,58,49,0
49.852917,49.9338,60,49,0
49.926445,50.007328,58,49,0
49.999973,50.080856,60,49,0
50.073505,50.15439,58,49,0
50.147034,50.227917,60,50,0
50.220562,50.301445,58,50,0
50.294094,50.374973,60,50,0
50.367622,50.448505,58,50,0
50.44115,50.522034,60,50,0
50.51468,50.595562,58,50,0
50.58821,50.669094,60,51,0
50.66174,50.742622,58,51,0
50.735268,50.81615,60,51,0
50.8088,50.88968,58,51,0
50.882328,50.96321,60,51,0
50.955856,51.03674,58,51,0
51.029385,51.102917,60,78,0
51.102917,51.176445,58,70,0
51.176445,51.470562,57,64,0
51.470562,51.76468,60,64,0
51.76468,52.058796,57,64,0
52.058796,52.352917,53,64,0
52.352917,52.647034,50,64,0
52.647034,52.94115,53,64,0
52.94115,53.235268,55,64,0
53.235268,53.529385,58,64,0
53.529385,53.8235,55,64,0
53.8235,54.11762,52,64,0
54.11762,54.41174,48,64,0
54.41174,54.705856,52,64,0
54.705856,54.852913,53,64,0
54.852913,54.999973,48,64,0
54.999973,55.14703,45,64,0
55.14703,55.29409,43,64,0
55.29409,55.441147,45,64,0
55.441147,55.588207,48,64,0
55.588207,55.735268,41,64,0
55.735268,55.882324,45,64,0
55.882324,56.029385,48,64,0
56.029385,56.17644,51,64,0
56.17644,56.3235,50,64,0
56.3235,56.47056,48,64,0
56.47056,56.61762,53,64,0
56.61762,56.76468,50,64,0
56.76468,56.911736,46,64,0
56.911736,57.058796,45,64,0
57.058796,57.205853,46,64,0
57.205853,57.352913,50,64,0
57.352913,57.49997,41,64,0
57.49997,57.64703,46,64,0
57.64703,57.79409,50,64,0
57.79409,57.941147,53,64,0
57.941147,58.088207,52,64,0
58.088207,58.235264,50,64,0
58.235264,58.382324,52,64,0
58.382324,58.52938,48,64,0
58.52938,58.67644,46,64,0
58.67644,58.8235,45,64,0
58.8235,58.97056,46,64,0
58.97056,59.11762,52,64,0
59.11762,59.264675,43,64,0
59.264675,59.411736,46,64,0
59.411736,59.558792,52,64,0
59.558792,59.705853,55,64,0
59.705853,59.852913,53,64,0
59.852913,59.99997,52,64,0
59.99997,60.294086,53,64,0
60.294086,60.588203,45,64,0
60.588203,60.882324,50,64,0
60.882324,60.955853,48,74,0
60.955853,61.02938,46,61,0
61.02938,61.10291,48,46,0
61.10291,61.17644,46,58,0
61.17644,61.24997,48,56,0
61.24997,61.323498,46,59,0
61.323498,61.39703,45,70,0
61.39703,61.47056,46,64,0
61.47056,61.764675,48,64,0
61.764675,62.390762,41,64,0
63.029507,63.217007,48,64,0
63.217007,63.417007,45,64,0
63.417007,63.61701,48,64,0
63.61701,64.05818,41,64,0
