start_time,end_time,note_value,velocity,instrument_program_number
0.0,1.9791666,70,85,40
0.0,2.2291667,79,85,40
2.25,2.4791667,77,85,40
2.5,2.7291667,75,85,40
2.75,2.9791667,74,85,40
3.0,3.2291667,72,85,40
3.25,3.4791667,70,85,40
3.5,3.7546296,69,85,40
3.7777777,3.9079862,70,85,40
3.9340277,4.064236,67,85,40
4.0902777,6.069444,72,90,40
5.0902777,6.3402777,66,90,40
6.3402777,6.569444,64,90,40
6.5902777,6.819444,62,85,40
6.8402777,7.069444,64,85,40
7.0902777,7.319444,66,85,40
7.3402777,7.569444,67,85,40
7.5902777,7.8449073,69,85,40
7.8680553,7.998264,72,85,40
8.024305,8.154513,70,85,40
8.180555,9.430555,72,85,40
9.430555,9.534722,74,85,40
9.555555,9.659722,72,85,40
9.680555,9.909722,70,85,40
8.180555,10.159722,78,85,40
9.930555,10.159722,72,85,40
10.180555,10.243055,72,100,40
10.243055,10.305555,74,100,40
10.305555,10.368055,72,100,40
10.368055,10.430555,74,100,40
10.430555,10.493055,72,100,40
10.493055,10.555555,74,100,40
10.555555,10.618055,72,100,40
10.618055,10.680555,74,100,40
10.680555,10.743055,72,100,40
10.743055,10.805555,74,100,40
10.805555,10.868055,72,100,40
10.868055,10.930555,74,100,40
10.930555,11.034722,70,85,40
11.055555,11.159722,72,85,40
11.180555,11.659722,74,85,40
11.680555,12.159722,69,85,40
12.180555,13.404513,79,85,40
12.180555,13.404513,70,85,40
13.708333,13.962963,67,85,40
13.986111,14.111111,69,85,40
14.111111,14.236111,70,85,40
14.236111,14.361111,72,85,40
14.361111,14.486111,74,85,40
14.486111,15.465278,75,85,40
15.486111,16.465277,70,85,40
16.48611,16.965277,70,85,40
16.98611,17.465277,69,85,40
17.48611,18.018518,75,85,40
18.041666,18.640625,74,85,40
18.666666,19.75463,74,85,40
19.777777,20.256945,82,85,40
19.777777,20.756945,74,85,40
20.277777,20.756945,78,85,40
20.777777,21.506945,74,85,40
20.777777,21.756945,79,85,40
21.527777,21.756945,75,85,40
21.777777,22.006945,74,85,40
22.027777,22.256945,72,85,40
22.277777,22.506945,70,85,40
22.527777,22.631945,72,85,40
22.652777,22.756945,69,85,40
22.777777,23.006945,70,85,40
24.027777,24.152777,74,85,40
24.152777,24.277777,72,85,40
24.277777,24.402777,70,85,40
24.402777,24.527777,72,85,40
24.527777,24.590277,74,85,40
24.590277,24.631945,72,85,40
24.631945,24.67361,74,85,40
24.67361,24.715277,70,85,40
24.715277,24.756945,72,85,40
24.777777,25.756945,79,85,40
25.777777,25.840277,78,100,40
25.840277,25.902777,79,100,40
25.902777,25.965277,78,100,40
25.965277,26.027777,79,100,40
26.027777,26.090277,78,100,40
26.090277,26.152777,79,100,40
26.152777,26.215277,78,100,40
26.215277,26.277777,79,100,40
26.277777,26.340277,78,100,40
26.340277,26.402777,79,100,40
26.402777,26.465277,78,100,40
26.465277,26.527777,79,100,40
26.527777,26.590277,78,100,40
26.590277,26.652777,79,100,40
26.652777,26.715277,78,100,40
24.777777,26.756945,74,85,40
26.715277,26.777777,79,100,40
26.777777,27.756945,81,85,40
27.777777,28.756945,72,85,40
28.777777,29.256945,70,85,40
29.277777,29.756945,74,85,40
29.777777,30.310184,78,85,40
30.333332,30.932291,81,85,40
30.958332,32.182293,79,85,40
32.208332,33.1875,70,105,40
33.208332,33.6875,69,100,40
33.708332,33.9375,82,100,40
33.958332,34.0625,81,100,40
34.083332,34.1875,79,100,40
34.208332,34.270832,77,100,40
34.270832,34.333332,79,100,40
34.333332,34.395832,77,100,40
34.395832,34.458332,79,100,40
34.458332,34.520832,77,100,40
34.520832,34.583332,79,100,40
34.583332,34.645832,77,100,40
34.645832,34.708332,79,100,40
34.708332,34.770832,77,100,40
34.770832,34.833332,79,100,40
34.833332,34.895832,77,100,40
34.895832,34.958332,79,100,40
34.958332,35.1875,76,100,40
35.208332,36.1875,77,100,40
36.208332,37.1875,69,100,40
37.208332,37.76122,77,100,40
37.208332,37.76122,70,100,40
37.785255,38.338142,74,100,40
38.36218,39.697407,75,100,40
39.725815,40.300816,82,100,40
40.325813,40.900814,79,100,40
40.925816,41.45822,79,100,40
41.48137,42.01378,75,100,40
42.036926,42.516094,75,100,40
42.536926,43.016094,73,100,40
43.036926,44.016094,81,100,40
44.786926,45.016094,81,100,40
45.036926,45.266094,79,100,40
45.286926,45.516094,77,100,40
45.536926,45.766094,76,100,40
45.786926,46.016094,74,100,40
46.036926,46.516094,64,100,40
46.536926,47.016094,74,100,40
47.036926,47.516094,79,100,40
47.536926,48.016094,76,100,40
48.036926,48.516094,74,100,40
48.536926,49.016094,73,100,40
49.036926,49.516094,69,100,40
49.536926,50.016094,79,100,40
50.036926,50.516094,62,100,40
50.536926,51.016094,79,100,40
51.036926,51.516094,77,100,40
51.536926,51.766094,79,100,40
51.786926,52.016094,76,100,40
52.036926,53.016094,77,100,40
56.036926,57.141094,76,100,40
57.161926,57.286926,77,100,40
57.286926,57.411926,79,100,40
57.411926,57.536926,81,100,40
57.536926,57.661926,82,100,40
57.661926,57.786926,76,100,40
57.786926,57.911926,77,100,40
57.911926,58.036926,79,100,40
58.036926,59.016094,74,100,40
59.036926,60.016094,73,100,40
60.036926,60.266094,67,100,40
60.286926,60.766094,65,100,40
60.786926,60.891094,67,100,40
60.911926,61.016094,64,100,40
61.036926,61.516094,65,100,40
61.536926,62.016094,74,100,40
62.036926,62.391094,74,100,40
62.411926,62.516094,73,100,40
62.536926,62.766094,71,100,40
62.786926,63.016094,73,100,40
63.036926,63.266094,74,100,40
63.286926,63.516094,76,100,40
63.536926,63.766094,77,100,40
63.786926,63.891094,79,100,40
63.911926,64.01609,76,100,40
64.03693,64.09943,74,100,40
64.09943,64.16193,73,100,40
64.16193,64.22443,74,100,40
64.22443,64.28693,73,100,40
64.28693,64.34943,74,100,40
64.34943,64.41193,73,100,40
64.41193,64.47443,74,100,40
64.47443,64.53693,73,100,40
64.53693,64.59943,74,100,40
64.59943,64.66193,73,100,40
64.66193,64.72443,74,100,40
64.72443,64.78693,73,100,40
64.78693,64.84943,74,100,40
64.84943,64.91193,73,100,40
64.91193,65.03693,74,100,40
65.03693,65.51609,73,100,40
65.53693,66.01609,74,100,40
66.03693,68.28693,74,100,40
68.28693,68.53693,74,100,40
68.53693,68.78693,72,100,40
68.78693,69.03693,70,100,40
69.03693,69.16193,69,100,40
69.16193,69.28693,70,100,40
69.28693,69.41193,69,100,40
69.41193,69.53693,70,100,40
69.53693,69.57859,70,100,40
69.57859,69.62026,72,100,40
69.62026,69.66193,70,100,40
69.66193,69.72443,72,100,40
69.72443,69.78693,70,100,40
69.78693,69.89109,67,100,40
69.91193,70.01609,70,100,40
70.03693,70.51609,72,100,40
70.53693,70.76609,75,100,40
70.78693,71.01609,74,100,40
71.03693,72.26609,75,100,40
72.28693,72.51609,75,100,40
72.53693,72.76609,74,100,40
72.03693,73.01609,78,100,40
72.78693,73.01609,72,100,40
73.53693,73.76609,72,100,40
73.03693,74.01609,70,100,40
73.78693,74.01609,69,100,40
74.03693,74.32339,69,100,40
74.03693,75.26089,79,100,40
74.32339,75.49526,70,100,40
75.53693,75.76609,67,100,40
75.78693,76.01609,70,100,40
76.03693,76.26609,74,100,40
76.28693,76.51609,79,100,40
76.53693,76.76609,77,100,40
76.78693,77.01609,75,100,40
77.03693,77.26609,74,100,40
77.28693,77.51609,72,100,40
77.53693,77.76609,70,100,40
77.78693,77.89109,69,100,40
77.91193,78.01609,67,100,40
78.03693,78.14109,66,100,40
78.16193,78.26609,67,100,40
78.28693,80.26609,69,100,40
80.28693,81.26609,71,100,40
82.46355,82.99596,71,100,40
83.019104,83.55151,74,100,40
83.57466,84.10707,74,100,40
84.13022,84.66262,72,100,40
84.68577,85.21818,75,100,40
85.241325,85.773735,74,100,40
85.79688,86.32929,74,100,40
86.35244,86.88484,75,100,40
86.90799,87.16262,75,100,40
87.16262,87.69503,74,100,40
87.741325,88.019104,70,100,40
88.019104,88.269104,72,100,40
88.269104,88.519104,74,100,40
88.519104,88.769104,75,100,40
88.769104,88.894104,77,100,40
88.894104,88.99827,79,100,40
89.019104,89.49827,80,100,40
89.519104,89.99827,70,100,40
90.019104,90.49827,62,100,40
90.519104,90.99827,80,100,40
91.019104,91.49827,63,100,40
91.519104,91.99827,80,100,40
92.019104,92.99827,79,100,40
93.019104,93.99827,73,100,40
94.019104,94.24827,63,100,40
94.269104,94.49827,67,100,40
94.519104,94.74827,70,100,40
94.769104,94.99827,73,100,40
95.019104,95.49827,56,100,40
95.519104,95.99827,72,100,40
96.019104,96.49827,80,100,40
96.519104,96.74827,79,100,40
96.769104,96.99827,77,100,40
97.019104,97.99827,75,100,40
98.019104,98.081604,74,100,40
98.081604,98.144104,75,100,40
98.144104,98.206604,74,100,40
98.206604,98.269104,75,100,40
98.269104,98.331604,74,100,40
98.331604,98.394104,75,100,40
98.394104,98.456604,74,100,40
98.456604,98.519104,75,100,40
98.519104,98.769104,74,100,40
98.769104,98.99827,75,100,40
99.019104,100.99827,75,100,40
101.019104,101.24827,59,100,40
101.269104,101.49827,62,100,40
101.519104,101.74827,65,100,40
101.769104,101.99827,68,100,40
102.019104,102.24827,71,100,40
102.269104,102.49827,74,100,40
102.519104,102.74827,77,100,40
102.769104,102.87327,80,100,40
102.894104,102.99827,79,100,40
103.019104,103.74827,79,100,40
103.769104,103.894104,80,100,40
103.894104,104.019104,79,100,40
104.019104,104.144104,78,100,40
104.144104,104.269104,79,100,40
104.269104,104.394104,74,100,40
104.394104,104.519104,75,100,40
104.519104,104.644104,71,100,40
104.644104,104.769104,72,100,40
104.769104,105.019104,66,100,40
105.019104,105.24827,67,100,40
105.24827,105.769104,75,100,40
105.769104,106.269104,74,100,40
106.269104,106.394104,72,100,40
106.394104,106.519104,71,100,40
106.519104,106.99827,72,100,40
107.019104,107.74827,72,100,40
107.769104,107.87327,70,100,40
107.894104,107.99827,68,100,40
108.019104,108.24827,67,100,40
108.269104,108.49827,65,100,40
108.519104,108.74827,63,100,40
108.769104,108.99827,62,100,40
109.019104,109.24827,60,100,40
109.269104,109.49827,59,100,40
109.519104,109.74827,60,100,40
109.769104,109.99827,55,100,40
110.019104,110.24827,60,100,40
110.269104,110.49827,63,100,40
110.519104,110.74827,67,100,40
110.769104,110.99827,72,100,40
111.019104,111.49827,62,100,40
111.519104,111.74827,72,100,40
111.769104,111.99827,77,100,40
112.019104,112.081604,71,100,40
112.081604,112.144104,72,100,40
112.144104,112.206604,71,100,40
112.206604,112.269104,72,100,40
112.269104,112.331604,71,100,40
112.331604,112.394104,72,100,40
112.394104,112.456604,71,100,40
112.456604,112.519104,72,100,40
112.519104,113.24827,71,100,40
113.269104,113.49827,69,100,40
113.519104,113.74827,67,100,40
113.769104,113.99827,69,100,40
114.019104,114.24827,71,100,40
114.269104,114.49827,72,100,40
114.519104,114.74827,74,100,40
114.769104,114.87327,77,100,40
114.894104,114.99827,75,100,40
115.019104,116.99827,71,100,40
115.019104,117.24827,77,100,40
117.269104,117.519104,80,100,40
117.519104,117.769104,79,100,40
117.769104,118.019104,77,100,40
118.019104,118.269104,79,100,40
118.269104,118.519104,77,100,40
118.519104,118.769104,75,100,40
118.769104,119.019104,74,100,40
119.019104,119.99827,75,100,40
120.269104,120.49827,72,100,40
120.519104,120.62327,74,100,40
120.644104,120.74827,75,100,40
120.769104,120.87327,77,100,40
120.894104,120.99827,79,100,40
121.019104,121.99827,80,100,40
122.019104,122.99827,75,100,40
123.019104,123.49827,75,100,40
123.519104,123.99827,74,100,40
124.019104,124.49827,80,100,40
124.519104,124.99827,79,100,40
125.019104,125.99827,79,100,40
126.019104,126.99827,79,100,40
127.019104,127.74827,72,100,40
127.019104,127.99827,79,100,40
127.769104,127.99827,70,100,40
128.0191,128.24828,68,100,40
128.2691,128.49828,67,100,40
128.5191,128.74828,68,100,40
128.7691,128.99828,72,100,40
129.0191,129.2691,77,100,40
129.2691,129.5191,79,100,40
129.5191,129.7691,75,100,40
129.7691,130.0191,77,100,40
130.0191,130.0816,77,100,40
130.0816,130.1441,79,100,40
130.1441,130.2066,77,100,40
130.2066,130.2691,79,100,40
130.2691,130.3316,77,100,40
130.3316,130.3941,79,100,40
130.3941,130.4566,77,100,40
130.4566,130.5191,79,100,40
130.5191,130.5816,77,100,40
130.5816,130.6441,79,100,40
130.6441,130.7066,77,100,40
130.7066,130.7691,79,100,40
130.7691,130.8941,75,100,40
130.8941,130.99828,77,100,40
131.0191,132.99828,79,100,40
133.0191,134.0682,77,100,40
134.09053,135.22034,77,100,40
135.24438,135.5088,67,100,40
135.53284,135.79726,71,100,40
135.8213,136.08572,74,100,40
136.10976,136.37419,77,100,40
136.39822,136.99718,80,100,40
137.02322,137.67664,79,100,40
137.70505,139.04027,75,100,40
139.06868,140.15665,79,100,40
139.06868,140.15665,75,100,40
140.1798,142.27007,81,100,40
148.0351,148.5675,80,100,40
148.59065,149.12306,78,100,40
149.14621,149.40083,78,100,40
149.42398,149.6786,79,100,40
149.70175,149.95639,81,100,40
149.97954,150.23416,78,100,40
150.25731,151.34528,74,100,40
151.36842,152.0976,58,100,40
152.11842,152.3476,74,100,40
152.36842,152.5976,72,100,40
152.61842,152.8476,70,100,40
152.86842,153.0976,69,100,40
153.11842,153.2226,70,100,40
153.24342,153.3476,67,100,40
153.36842,153.8476,57,100,40
153.86842,154.3476,67,100,40
154.36842,154.8476,72,100,40
154.86842,155.3476,69,100,40
155.36842,155.8476,67,100,40
155.86842,156.3476,66,100,40
156.36842,156.8476,62,100,40
156.86842,157.3476,72,100,40
157.36842,158.0976,55,100,40
158.11842,158.3476,72,100,40
158.36842,158.8476,70,100,40
158.86842,159.0976,72,100,40
159.11842,159.3476,69,100,40
159.36842,160.0976,70,100,40
160.11842,160.3476,55,100,40
160.36842,160.8476,57,100,40
160.86842,161.0976,60,100,40
161.11842,161.3476,58,100,40
161.36842,161.8476,60,100,40
161.86842,162.3476,62,100,40
162.36842,162.8476,63,100,40
162.86842,163.3476,67,100,40
163.36842,163.8476,68,100,40
163.86842,164.3476,71,100,40
164.36842,164.8476,72,100,40
164.86842,165.3476,75,100,40
165.36842,166.3476,79,100,40
165.36842,167.3476,69,100,40
166.36842,167.3476,78,100,40
167.36842,168.0976,82,100,40
168.11842,168.20175,81,100,40
168.20175,168.2851,79,100,40
168.2851,168.36842,78,100,40
168.36842,169.3476,79,100,40
168.36842,169.3476,69,100,40
169.36842,170.0976,79,100,40
170.11842,170.36842,70,100,40
170.36842,170.61842,72,100,40
170.61842,170.86842,74,100,40
170.86842,171.11842,76,100,40
171.11842,171.36842,78,100,40
171.36842,171.49342,79,100,40
171.49342,171.61842,81,100,40
171.61842,171.74342,82,100,40
171.74342,171.86842,81,100,40
171.86842,171.99342,82,100,40
171.99342,172.11842,79,100,40
172.11842,172.24342,80,100,40
172.24342,172.32675,78,100,40
172.30592,172.38925,79,100,40
172.36842,172.38925,79,100,40
172.89967,172.99342,78,100,40
172.99342,173.08717,79,100,40
173.08717,173.18092,78,100,40
173.18092,173.27467,76,100,40
173.27467,173.58717,78,100,40
173.61842,174.33717,79,100,40
174.36842,180.33717,79,100,40
174.36842,180.33717,70,100,40
185.61842,186.33717,67,1,40
0.0,1.9791666,62,85,41
4.0902777,5.069444,67,90,41
12.180555,13.404513,62,85,41
15.486111,16.465277,67,85,41
16.48611,17.465277,65,85,41
19.777777,20.756945,62,85,41
20.777777,21.756945,63,85,41
22.777777,23.006945,70,50,41
23.027777,23.256945,66,85,41
23.277777,23.506945,67,85,41
23.527777,23.756945,62,85,41
23.777777,24.006945,63,85,41
24.777777,26.756945,62,85,41
27.777777,28.756945,62,85,41
28.777777,29.256945,62,85,41
32.208332,33.1875,65,105,41
33.208332,34.1875,64,105,41
36.208332,37.1875,62,100,41
37.208332,37.76122,67,100,41
40.925816,41.45822,70,100,41
41.48137,42.01378,67,100,41
42.036926,43.016094,67,100,41
44.036926,44.766094,65,100,41
53.036926,54.016094,69,100,41
54.036926,54.516094,69,100,41
54.536926,55.016094,62,100,41
55.036926,55.516094,67,100,41
55.536926,56.016094,77,100,41
58.036926,60.016094,67,100,41
62.036926,63.016094,64,100,41
66.03693,68.01609,62,100,41
70.03693,70.51609,66,100,41
74.03693,75.26089,62,100,41
78.28693,79.26609,67,100,41
79.28693,80.26609,66,100,41
80.28693,81.01609,65,100,41
81.03693,81.14109,67,100,41
81.16193,81.26609,68,100,41
81.28693,81.55479,67,100,41
81.55479,81.82264,65,100,41
81.82264,82.12264,63,100,41
82.12264,82.26469,65,100,41
82.26469,82.43514,62,100,41
82.46355,83.55151,62,100,41
83.57466,84.66262,63,100,41
84.68577,85.773735,65,100,41
85.79688,86.88484,67,100,41
86.90799,87.99596,65,100,41
96.019104,96.99827,72,100,41
99.019104,100.99827,66,100,41
103.019104,103.49827,72,100,41
115.019104,116.99827,62,100,41
119.019104,119.99827,67,100,41
122.019104,122.99827,68,100,41
123.019104,123.99827,65,100,41
126.019104,126.49827,75,100,41
126.019104,126.99827,67,100,41
126.519104,126.99827,71,100,41
127.019104,127.99827,63,100,41
131.0191,131.99828,72,100,41
131.0191,131.99828,62,100,41
132.0191,132.99828,71,100,41
133.0191,134.0682,74,100,41
134.09053,135.22034,74,100,41
134.09053,135.22034,67,100,41
139.06868,140.15665,67,100,41
140.1798,140.98997,75,100,41
141.01312,141.2909,74,100,41
141.2909,141.5409,72,100,41
141.5409,141.7909,74,100,41
141.7909,141.9159,72,100,41
141.9159,142.0409,70,100,41
142.0409,142.1659,72,100,41
142.1659,142.2909,69,100,41
142.2909,142.9159,70,100,41
142.9159,143.0409,69,100,41
143.0409,143.1659,67,100,41
143.1659,143.2909,66,100,41
143.2909,143.5409,67,100,41
143.5409,143.7909,62,100,41
143.7909,144.0409,58,100,41
144.0409,144.2909,55,100,41
144.2909,144.56868,60,100,41
144.56868,144.84645,63,100,41
144.84645,145.15895,70,100,41
145.15895,145.47145,67,100,41
145.47145,146.80669,68,100,41
146.8351,147.4101,75,100,41
147.43509,148.01009,72,100,41
148.0351,148.5675,72,100,41
148.59065,149.12306,69,100,41
149.14621,149.6786,69,100,41
165.36842,167.3476,62,100,41
168.36842,169.3476,64,100,41
169.36842,170.3476,69,100,41
174.36842,180.33717,62,100,41
0.0,1.9791666,55,85,42
4.0902777,6.069444,57,90,42
8.180555,9.159722,62,85,42
12.180555,13.404513,55,85,42
28.777777,29.256945,55,85,42
32.208332,33.1875,55,105,42
33.208332,34.1875,61,105,42
53.036926,54.016094,60,100,42
54.036926,55.016094,58,100,42
58.036926,60.016094,57,100,42
62.036926,63.016094,57,100,42
70.03693,70.51609,57,100,42
74.03693,75.26089,55,100,42
78.28693,80.26609,62,100,42
80.28693,81.26609,55,100,42
82.46355,82.99596,60,100,42
86.90799,87.99596,56,100,42
96.019104,96.99827,65,100,42
99.019104,100.99827,57,100,42
103.019104,103.49827,63,100,42
115.019104,116.99827,55,100,42
119.019104,119.99827,60,100,42
122.019104,122.99827,60,100,42
123.019104,123.99827,58,100,42
126.019104,126.99827,55,100,42
127.019104,127.99827,56,100,42
131.0191,131.99828,55,100,42
134.09053,135.22034,59,100,42
135.24438,136.37419,60,100,42
139.06868,140.15665,60,100,42
140.1798,141.26775,66,100,42
165.36842,167.3476,60,100,42
168.36842,169.3476,61,100,42
169.36842,170.3476,62,100,42
174.36842,180.33717,55,100,42
