start_time,end_time,note_value,velocity,instrument_program_number
7.0833306,7.4913163,79,100,40
7.499997,7.907983,79,100,40
7.9166636,8.32465,79,100,40
8.33333,8.741316,79,100,40
8.749996,8.949649,77,100,40
8.95833,9.157983,75,100,40
9.166663,9.574649,77,100,40
9.583329,9.991316,74,100,40
9.999996,10.407982,75,100,40
15.833327,16.241312,82,100,40
16.66666,17.074646,82,100,40
17.083326,17.28298,81,100,40
17.29166,17.491312,79,100,40
17.499992,17.699646,81,100,40
17.708326,17.907978,78,100,40
17.91666,18.324646,79,100,40
18.333326,18.532978,78,100,40
34.23776,34.634716,82,100,40
34.64316,35.040123,82,100,40
35.04857,35.445526,82,100,40
35.45397,35.648228,81,100,40
35.656673,35.850933,79,100,40
35.85938,36.256336,81,100,40
36.264782,36.661743,81,100,40
36.67019,36.864445,80,100,40
36.87289,37.067146,79,100,40
37.075592,37.269848,80,100,40
37.278294,37.472553,78,100,40
37.481,37.877956,79,100,40
37.886402,38.283363,77,100,40
38.24113,38.638092,75,100,40
38.697212,39.094173,74,100,40
39.10262,39.499577,72,100,40
39.508022,39.90498,70,100,40
39.91343,40.107685,68,100,40
40.11613,40.310387,66,100,40
40.318832,40.51309,66,100,40
40.521534,40.71579,67,100,40
40.72424,40.918495,67,100,40
40.92694,41.121197,58,100,40
41.129642,41.3239,57,100,40
41.332344,41.5266,55,100,40
41.535046,41.73751,57,100,40
41.746315,41.94878,67,100,40
41.957584,42.160046,72,100,40
42.16885,42.371315,75,100,40
42.38012,42.591515,62,100,40
42.600704,42.812103,67,100,40
42.821293,43.042446,69,100,40
43.052063,43.291645,66,100,40
43.302063,43.791645,67,100,40
43.802063,44.240494,86,100,40
44.249825,44.65781,86,100,40
44.66649,45.074474,86,100,40
45.083157,45.491142,86,100,40
45.499825,45.699474,84,100,40
45.708157,45.90781,82,100,40
45.91649,46.324474,84,100,40
46.333157,46.741142,81,100,40
46.74982,47.15781,82,100,40
47.583157,47.991142,87,100,40
48.41649,48.824474,81,100,40
49.24982,50.491142,86,100,40
50.49982,50.907806,84,100,40
50.91649,51.324474,84,100,40
51.333153,51.74114,84,100,40
51.74982,52.157806,84,100,40
52.16649,52.36614,82,100,40
52.37482,52.574474,81,100,40
52.583153,52.99114,82,100,40
52.99982,53.407806,79,100,40
53.416485,53.824474,81,100,40
54.24982,54.657806,86,100,40
55.083153,55.49114,79,100,40
55.916485,57.157803,84,100,40
57.166485,57.57447,82,100,40
57.583153,57.99114,82,100,40
57.999817,58.407803,82,100,40
58.416485,58.82447,82,100,40
58.833153,59.032803,81,100,40
59.041485,59.24114,79,100,40
59.249817,59.657803,81,100,40
59.666485,59.86614,82,100,40
59.874817,60.09183,81,100,40
60.08315,60.491135,79,100,40
60.916485,61.32447,84,100,40
61.749817,62.157803,84,100,40
62.166485,62.366135,82,100,40
62.374817,62.57447,81,100,40
62.58315,62.991135,82,100,40
62.999817,63.19947,84,100,40
63.20815,63.407803,82,100,40
63.41648,63.824467,81,100,40
64.24982,64.6578,86,100,40
65.083145,65.491135,86,100,40
65.91648,66.32447,84,100,40
66.74982,67.1578,77,100,40
67.583145,67.991135,82,100,40
68.41648,68.82446,81,100,40
68.833145,69.241135,77,100,40
69.24982,69.6578,79,100,40
69.66648,70.07446,81,100,40
70.083145,70.491135,82,100,40
70.49981,70.9078,81,100,40
70.91648,71.32446,79,100,40
71.74981,72.1578,79,100,40
72.16648,72.366135,77,100,40
72.37481,72.57446,76,100,40
72.583145,72.991135,77,100,40
72.99981,73.4078,77,100,40
73.41648,73.82446,77,100,40
73.833145,74.0328,76,100,40
74.04148,74.241135,74,100,40
74.24981,74.6578,76,100,40
74.66648,75.07446,73,100,40
75.083145,75.49113,74,100,40
76.333145,76.74113,74,100,40
76.74981,77.16946,74,100,40
77.60695,78.26928,73,100,40
78.2789,78.50005,74,100,40
78.50967,78.935394,74,100,40
92.47353,92.911964,81,100,40
92.921295,93.32928,81,100,40
93.33796,93.74594,81,100,40
93.75462,94.16261,81,100,40
94.171295,94.37094,79,100,40
94.37962,94.57928,77,100,40
94.58796,94.99594,79,100,40
95.00462,95.41261,79,100,40
95.421295,95.82928,79,100,40
95.83796,96.03761,77,100,40
96.04629,96.24594,76,100,40
96.25462,96.66261,77,100,40
96.67129,97.07928,77,100,40
97.08796,97.49594,82,100,40
97.50462,97.91261,81,100,40
97.92129,98.32928,81,100,40
98.33796,98.74594,80,100,40
98.75462,99.16261,80,100,40
99.17129,99.57928,81,100,40
99.58796,99.99594,81,100,40
100.00462,100.412605,78,100,40
100.42129,100.82928,78,100,40
100.83796,101.24594,79,100,40
101.25462,101.662605,79,100,40
101.67129,102.07928,76,100,40
102.08796,102.49594,76,100,40
102.50462,102.912605,77,100,40
102.92129,103.32928,77,100,40
103.33795,103.74594,74,100,40
103.75462,104.162605,74,100,40
104.17129,104.57928,75,100,40
104.58795,105.0076,75,100,40
105.016525,105.44851,73,100,40
105.4577,105.90962,73,100,40
105.91924,106.11889,82,100,40
106.12757,106.327225,80,100,40
106.33591,106.74389,81,100,40
106.75257,107.16056,73,100,40
107.169235,107.577225,74,100,40
107.58591,107.78556,82,100,40
107.794235,107.99389,80,100,40
108.00257,108.41056,81,100,40
108.419235,108.827225,85,100,40
108.83591,109.24389,86,100,40
109.25257,109.66056,84,100,40
109.669235,110.077225,84,100,40
110.08591,110.49389,82,100,40
110.50257,110.91056,82,100,40
110.919235,111.327225,81,100,40
111.33591,111.74389,81,100,40
111.75257,112.16055,85,100,40
112.169235,112.577225,85,100,40
112.58591,112.99389,86,100,40
113.00257,113.41055,86,100,40
113.419235,113.827225,79,100,40
113.8359,114.452225,79,100,40
114.4609,114.66055,81,100,40
114.669235,115.077225,77,100,40
115.0859,115.49389,76,100,40
115.50257,117.16055,76,100,40
117.169235,118.82722,76,100,40
118.8359,119.24389,81,100,40
119.25257,119.66055,79,100,40
119.669235,120.07722,81,100,40
120.0859,120.49389,77,100,40
120.50256,122.16055,79,100,40
122.169235,122.57722,79,100,40
122.5859,122.99389,77,100,40
123.00256,123.41055,79,100,40
123.419235,123.82722,76,100,40
123.8359,124.24388,77,100,40
124.25256,124.66055,76,100,40
124.669235,125.07722,77,100,40
125.0859,125.49388,79,100,40
125.50256,125.91055,81,100,40
125.919235,126.32722,82,100,40
126.3359,126.74388,81,100,40
126.75256,127.16055,79,100,40
127.16923,127.57722,77,100,40
127.5859,127.99388,76,100,40
128.00256,128.41055,77,100,40
128.41924,128.82721,79,100,40
128.83589,129.24388,81,100,40
129.25256,129.66055,79,100,40
129.66924,130.07721,81,100,40
130.08589,130.49388,83,100,40
130.50256,130.91055,85,100,40
130.91924,131.32721,83,100,40
131.33589,131.74388,85,100,40
131.75256,132.16055,86,100,40
132.16924,132.57721,88,100,40
132.58589,132.99388,89,100,40
133.00256,133.41055,88,100,40
133.41924,133.82721,86,100,40
133.83589,134.24388,85,100,40
134.25256,134.66055,83,100,40
134.66924,135.07721,85,100,40
135.08589,135.49388,86,100,40
135.50256,135.92221,88,100,40
135.93114,136.35077,86,100,40
136.3597,136.79814,88,100,40
136.80746,137.29704,85,100,40
137.30746,137.59497,62,100,40
137.60747,137.84705,74,100,40
137.85747,138.05711,77,100,40
138.0658,138.26546,81,100,40
138.27412,138.47379,86,100,40
138.48247,138.68211,81,100,40
138.6908,138.89046,77,100,40
138.89912,139.09879,74,100,40
139.10747,139.30711,69,100,40
139.3158,139.51544,86,100,40
139.52412,139.72379,84,100,40
139.73247,139.93211,82,100,40
139.9408,140.14044,84,100,40
140.14912,140.34879,81,100,40
140.35747,140.55711,78,100,40
140.5658,140.76544,74,100,40
140.77412,140.97379,55,100,40
140.98247,141.18211,67,100,40
141.1908,141.39044,70,100,40
141.39912,141.59879,74,100,40
141.60747,141.80711,79,100,40
141.8158,142.01544,74,100,40
142.02412,142.22379,70,100,40
142.23247,142.43211,67,100,40
142.4408,142.64044,62,100,40
142.64912,142.84879,79,100,40
142.85747,143.05711,77,100,40
143.0658,143.26544,75,100,40
143.27412,143.47379,77,100,40
143.48247,143.68211,74,100,40
143.6908,143.89044,71,100,40
143.89912,144.09879,67,100,40
144.10747,144.30711,60,100,40
144.3158,144.51544,72,100,40
144.52412,144.72379,75,100,40
144.73247,144.93211,79,100,40
144.9408,145.14044,84,100,40
145.14912,145.34879,79,100,40
145.35747,145.55711,75,100,40
145.5658,145.76544,72,100,40
145.77412,145.97379,67,100,40
145.98247,146.18211,84,100,40
146.1908,146.39044,82,100,40
146.39912,146.59879,81,100,40
146.60747,146.80711,82,100,40
146.8158,147.01544,79,100,40
147.02412,147.22379,76,100,40
147.23247,147.43211,72,100,40
147.4408,147.64044,65,100,40
147.64912,147.84879,72,100,40
147.85745,148.05711,77,100,40
148.0658,148.26544,79,100,40
148.27412,148.47379,80,100,40
148.48245,148.68211,77,100,40
148.6908,148.89044,74,100,40
148.89912,149.09879,70,100,40
149.10745,149.30711,63,100,40
149.3158,149.51544,70,100,40
149.52412,149.72379,75,100,40
149.73245,149.93211,77,100,40
149.9408,150.13506,79,100,40
150.1435,150.33775,75,100,40
150.34619,150.54045,72,100,40
150.5489,150.74316,69,100,40
150.7516,150.94075,77,100,40
150.94897,151.13812,74,100,40
151.14633,151.33548,71,100,40
151.3437,151.53285,67,100,40
151.54108,151.73022,75,100,40
151.73845,151.92758,72,100,40
151.9358,152.12495,68,100,40
152.13318,152.32233,65,100,40
152.33055,152.52481,73,100,40
152.53325,152.72751,70,100,40
152.73595,152.9302,67,100,40
152.93866,153.13292,63,100,40
153.14136,153.34102,72,100,40
153.34969,153.54935,68,100,40
153.55803,153.76338,65,100,40
153.77231,153.99347,62,100,40
154.00308,154.29057,55,100,40
154.30309,154.53125,62,100,40
154.54117,154.74083,65,100,40
154.74951,154.94916,71,100,40
154.95784,155.1575,74,100,40
155.16617,155.36583,71,100,40
155.37451,155.57416,65,100,40
155.58284,155.78249,62,100,40
155.79117,155.99083,55,100,40
155.99951,156.19916,62,100,40
156.20784,156.40749,65,100,40
156.41617,156.61583,71,100,40
156.62451,156.82416,74,100,40
156.83284,157.03249,71,100,40
157.04117,157.24083,65,100,40
157.24951,157.44916,62,100,40
157.45784,157.65749,55,100,40
157.66617,157.86583,60,100,40
157.87451,158.07416,63,100,40
158.08284,158.28249,67,100,40
158.29117,158.49083,72,100,40
158.49951,158.69916,67,100,40
158.70784,158.90749,63,100,40
158.91617,159.11583,60,100,40
159.12451,159.32416,55,100,40
159.33284,159.53249,60,100,40
159.54117,159.74083,63,100,40
159.74951,159.94916,67,100,40
159.95784,160.15749,72,100,40
160.16617,160.36583,67,100,40
160.37451,160.57416,63,100,40
160.58284,160.78249,60,100,40
160.79117,160.99083,56,100,40
160.99951,161.19916,60,100,40
161.20784,161.40749,63,100,40
161.41617,161.61583,67,100,40
161.62451,161.82416,72,100,40
161.83284,162.03249,67,100,40
162.04117,162.24083,63,100,40
162.24951,162.44916,60,100,40
162.45784,162.65749,56,100,40
162.66617,162.86583,60,100,40
162.87451,163.07416,63,100,40
163.08284,163.28249,67,100,40
163.29117,163.49083,72,100,40
163.49951,163.69916,67,100,40
163.70784,163.90749,63,100,40
163.91617,164.11583,60,100,40
164.1245,164.32416,57,100,40
164.33284,164.53249,62,100,40
164.54117,164.74083,66,100,40
164.7495,164.94916,69,100,40
164.95784,165.15749,72,100,40
165.16617,165.36583,69,100,40
165.3745,165.57416,66,100,40
165.58284,165.78249,62,100,40
165.79117,165.99652,57,100,40
166.00546,166.21082,62,100,40
166.21974,166.4251,66,100,40
166.43402,166.63939,69,100,40
166.64832,166.85971,72,100,40
166.8689,167.08029,69,100,40
167.0895,167.31064,66,100,40
167.32025,167.55984,62,100,40
167.57025,167.85518,55,100,40
167.8651,168.09328,60,100,40
168.1032,168.30284,63,100,40
168.31152,168.51118,67,100,40
168.51987,168.71951,72,100,40
168.7282,168.92784,75,100,40
168.93652,169.13618,73,100,40
169.14487,169.34451,71,100,40
169.3532,169.55284,72,100,40
169.56152,169.76118,82,100,40
169.76985,169.96951,80,100,40
169.9782,170.17784,78,100,40
170.18652,170.39188,79,100,40
170.40082,170.60617,77,100,40
170.6151,170.83626,76,100,40
170.84587,171.13336,77,100,40
171.14586,171.63545,77,100,40
172.08704,172.49503,84,100,40
172.92038,173.32835,84,100,40
173.75371,174.1617,83,100,40
174.17038,174.57835,86,100,40
175.83704,176.24503,79,100,40
176.25371,176.6617,79,100,40
176.67038,176.87003,77,100,40
176.87871,177.07835,75,100,40
177.08704,177.49503,77,100,40
177.50371,177.9117,74,100,40
177.92038,178.34001,75,100,40
178.34894,178.5543,74,100,40
178.56323,178.76859,72,100,40
178.77751,179.19716,73,100,40
179.20609,179.62573,71,100,40
179.63466,180.28723,72,100,40
180.29642,180.50781,74,100,40
180.51701,181.21812,71,100,40
181.22855,181.46812,72,100,40
181.47855,181.96812,72,100,40
188.6763,189.08429,77,100,40
189.09297,189.50096,77,100,40
189.50964,189.91762,77,100,40
189.9263,190.33429,77,100,40
190.34297,190.54262,75,100,40
190.5513,190.75096,74,100,40
190.75964,191.16762,75,100,40
191.1763,191.38167,72,100,40
191.3906,191.49635,74,100,40
191.50598,191.62056,75,100,40
191.63098,192.21848,74,100,40
192.23097,192.69725,82,100,40
192.70717,193.11514,82,100,40
193.12383,193.53181,82,100,40
193.5405,193.94849,82,100,40
193.95717,194.15681,81,100,40
194.1655,194.36514,79,100,40
194.37383,194.78181,81,100,40
194.7905,195.19849,83,100,40
195.20717,195.61514,84,100,40
195.62383,196.03181,84,100,40
196.0405,196.44849,84,100,40
196.45717,196.86514,84,100,40
196.87383,197.28181,84,100,40
197.2905,197.49014,82,100,40
197.49883,197.69849,81,100,40
197.70717,198.11514,82,100,40
198.12383,198.32349,84,100,40
198.33217,198.53181,79,100,40
198.5405,198.94849,81,100,40
198.95717,199.15681,82,100,40
199.1655,199.36514,77,100,40
199.37383,199.78181,79,100,40
199.7905,199.99014,81,100,40
199.99883,200.19849,79,100,40
200.20717,200.6268,77,100,40
200.63573,200.8411,79,100,40
200.85002,201.05537,74,100,40
201.0643,201.2757,75,100,40
201.2849,201.49629,72,100,40
201.50548,201.72664,69,100,40
201.73625,201.97583,65,100,40
201.98625,202.47583,58,100,40
202.48625,202.93817,74,100,40
202.94778,203.35577,74,100,40
203.36446,203.77245,74,100,40
203.78111,204.1891,74,100,40
204.19778,204.39745,75,100,40
204.40611,204.60577,74,100,40
204.61446,205.02245,72,100,40
205.03111,205.4391,70,100,40
205.44778,205.85577,69,100,40
205.86446,206.27243,77,100,40
206.28111,206.6891,77,100,40
206.69778,207.10577,77,100,40
207.11446,207.52243,77,100,40
207.53111,207.73077,79,100,40
207.73946,207.9391,77,100,40
207.94778,208.35577,75,100,40
208.36446,208.77243,74,100,40
208.78111,209.1891,79,100,40
209.19778,209.39743,81,100,40
209.40611,209.60577,82,100,40
209.61446,209.8141,82,100,40
209.82278,210.02243,81,100,40
210.03111,210.23077,79,100,40
210.23946,210.4391,77,100,40
210.44778,210.86743,82,100,40
210.87636,211.30833,77,100,40
211.31754,211.53868,75,100,40
211.5483,211.76945,74,100,40
211.77907,212.01865,72,100,40
212.02907,212.31657,70,100,40
212.32907,212.61656,58,100,40
212.62907,212.85724,74,100,40
212.86716,213.06142,72,100,40
213.06987,213.26413,74,100,40
213.27257,213.46683,70,100,40
213.47527,213.66953,74,100,40
213.67798,213.87222,69,100,40
213.88068,214.07494,74,100,40
214.08337,214.27763,67,100,40
214.28609,214.48033,74,100,40
214.48878,214.68304,65,100,40
214.69148,214.88574,74,100,40
214.8942,215.08844,63,100,40
215.0969,215.29115,74,100,40
215.29959,215.49385,62,100,40
215.50229,215.69655,74,100,40
215.705,215.89926,63,100,40
215.9077,216.10196,74,100,40
216.1104,216.30466,79,100,40
216.31311,216.50735,77,100,40
216.51581,216.71007,75,100,40
216.7185,216.91277,74,100,40
216.92122,217.11546,72,100,40
217.12392,217.31818,70,100,40
217.32661,217.52087,69,100,40
217.52933,217.72357,72,100,40
217.73203,217.92628,67,100,40
217.93472,218.12898,72,100,40
218.13742,218.33168,66,100,40
218.34013,218.5344,72,100,40
218.54283,218.73709,64,100,40
218.74553,218.93979,72,100,40
218.94824,219.1425,62,100,40
219.15094,219.3452,72,100,40
219.35364,219.5479,81,100,40
219.55635,219.7506,72,100,40
219.75905,219.95331,70,100,40
219.96175,220.156,69,100,40
220.16446,220.3587,70,100,40
220.36716,220.56142,67,100,40
220.56985,220.76411,69,100,40
220.77257,220.96681,62,100,40
220.97527,221.16953,77,100,40
221.17796,221.37222,68,100,40
221.38066,221.57492,67,100,40
221.58337,221.77763,65,100,40
221.78607,221.98033,67,100,40
221.98877,222.18303,63,100,40
222.19148,222.38574,65,100,40
222.39418,222.58844,58,100,40
222.59688,222.79114,74,100,40
222.79959,222.99384,65,100,40
223.00229,223.19655,63,100,40
223.20499,223.39925,62,100,40
223.4077,223.60194,63,100,40
223.6104,223.80466,60,100,40
223.8131,224.01276,62,100,40
224.02144,224.22108,55,100,40
224.22977,224.42941,70,100,40
224.4381,224.63776,62,100,40
224.64644,224.85179,63,100,40
224.86072,225.06607,60,100,40
225.075,225.29616,72,100,40
225.30577,225.54535,64,100,40
225.55577,225.79535,66,100,40
225.80577,226.02693,62,100,40
226.03654,226.2419,69,100,40
226.25082,226.44508,66,100,40
226.45352,226.64778,72,100,40
226.65623,226.8505,69,100,40
226.85893,227.05319,75,100,40
227.06163,227.25589,72,100,40
227.26434,227.45859,78,100,40
227.46704,227.6613,72,100,40
227.66974,227.864,81,100,40
227.87245,228.0667,78,100,40
228.07515,228.2748,75,100,40
228.28348,228.48314,72,100,40
228.49182,228.69717,69,100,40
228.7061,228.92726,66,100,40
228.93687,229.15802,62,100,40
229.16763,229.373,72,100,40
229.38193,229.57619,78,100,40
229.58463,229.77888,72,100,40
229.78732,229.98158,78,100,40
229.99004,230.18428,72,100,40
230.19273,230.387,81,100,40
230.39543,230.58969,72,100,40
230.59814,230.79239,62,100,40
230.80084,230.9951,72,100,40
231.00354,231.1978,78,100,40
231.20625,231.4005,72,100,40
231.40895,231.60321,78,100,40
231.61165,231.80591,72,100,40
231.81435,232.0086,81,100,40
232.01706,232.21132,72,100,40
232.21976,232.41402,62,100,40
232.42245,232.61671,70,100,40
232.62517,232.81943,74,100,40
232.82787,233.02213,70,100,40
233.03056,233.22482,74,100,40
233.23328,233.42752,70,100,40
233.43597,233.63023,79,100,40
233.63867,233.83293,70,100,40
233.84138,234.03563,62,100,40
234.04408,234.23834,70,100,40
234.24678,234.44104,74,100,40
234.4495,234.64374,70,100,40
234.65219,234.84645,74,100,40
234.85489,235.04915,70,100,40
235.05759,235.25185,79,100,40
235.2603,235.45456,70,100,40
235.463,235.65726,62,100,40
235.6657,235.85995,69,100,40
235.86841,236.06267,78,100,40
236.0711,236.26537,74,100,40
236.2738,236.46806,78,100,40
236.47652,236.67076,74,100,40
236.67921,236.87347,84,100,40
236.88191,237.07617,74,100,40
237.08463,237.27887,62,100,40
237.28732,237.48158,69,100,40
237.49002,237.68428,78,100,40
237.69273,237.88698,74,100,40
237.89543,238.08969,78,100,40
238.09813,238.29239,74,100,40
238.30083,238.49509,84,100,40
238.50354,238.6978,74,100,40
238.70624,238.9005,62,100,40
238.90894,239.1032,74,100,40
239.11165,239.3059,79,100,40
239.31435,239.5086,74,100,40
239.51704,239.7113,79,100,40
239.71976,239.914,74,100,40
239.92245,240.11671,82,100,40
240.12515,240.31941,74,100,40
240.32787,240.52211,62,100,40
240.53056,240.72482,74,100,40
240.73326,240.92752,79,100,40
240.93596,241.13022,74,100,40
241.13867,241.33293,79,100,40
241.34137,241.53563,74,100,40
241.54407,241.73833,82,100,40
241.74678,241.94104,74,100,40
241.94948,242.14374,62,100,40
242.15218,242.34644,73,100,40
242.35489,242.54913,76,100,40
242.55759,242.75185,73,100,40
242.76028,242.95454,76,100,40
242.963,243.15724,73,100,40
243.1657,243.35995,82,100,40
243.3684,243.56265,73,100,40
243.5711,243.76535,62,100,40
243.7738,243.96806,73,100,40
243.9765,244.17076,76,100,40
244.1792,244.37346,73,100,40
244.38191,244.57617,76,100,40
244.58461,244.77887,73,100,40
244.78731,244.98157,82,100,40
244.99002,245.18428,79,100,40
245.19272,245.38698,79,100,40
245.39542,245.58968,78,100,40
245.59813,245.79237,76,100,40
245.80083,245.99509,74,100,40
246.00352,246.40048,86,100,40
246.40894,246.8059,86,100,40
246.81435,247.2113,86,100,40
247.21974,247.414,84,100,40
247.42244,247.6167,82,100,40
247.62515,248.02211,84,100,40
248.03055,248.4275,84,100,40
248.43596,248.83292,84,100,40
248.84137,249.03561,82,100,40
249.04407,249.23833,81,100,40
249.24677,249.64372,82,100,40
249.65218,250.04913,82,100,40
250.05757,250.45454,82,100,40
250.46298,250.85994,81,100,40
250.8684,251.26535,81,100,40
251.27379,251.67075,79,100,40
251.6792,252.07616,78,100,40
252.08461,252.48157,79,100,40
252.49,252.88696,79,100,40
252.89542,253.29237,76,100,40
253.30081,253.69778,76,100,40
253.70622,254.10318,77,100,40
254.11163,254.50859,77,100,40
254.51703,254.91399,74,100,40
254.92244,255.3194,74,100,40
255.32785,255.5221,75,100,40
255.53055,255.72481,74,100,40
255.73325,255.9275,75,100,40
255.93596,256.13022,79,100,40
256.13864,256.33292,82,100,40
256.34137,256.5356,74,100,40
256.54407,256.7383,73,100,40
256.74677,256.941,76,100,40
256.94946,257.1437,81,100,40
257.15216,257.34644,73,100,40
257.35486,257.54913,74,100,40
257.55756,257.75183,77,100,40
257.76028,257.95453,81,100,40
257.96298,258.15723,72,100,40
258.16568,258.35992,71,100,40
258.36838,258.56265,80,100,40
258.57108,258.76535,79,100,40
258.77377,258.96805,77,100,40
258.9765,259.17075,79,100,40
259.1792,259.37344,74,100,40
259.3819,259.57614,75,100,40
259.5846,259.77884,71,100,40
259.7873,259.98157,72,100,40
259.99,260.18427,80,100,40
260.19272,260.38696,79,100,40
260.39542,260.58966,77,100,40
260.5981,260.79236,79,100,40
260.8008,260.99506,74,100,40
261.0035,261.19778,75,100,40
261.2062,261.40048,72,100,40
261.4089,261.60318,66,100,40
261.61163,261.80588,69,100,40
261.81433,262.00858,72,100,40
262.01703,262.21127,75,100,40
262.21973,262.41397,74,100,40
262.42242,262.6167,72,100,40
262.62512,262.8194,81,100,40
262.82785,263.0221,72,100,40
263.03055,263.2248,74,100,40
263.23325,263.4275,75,100,40
263.43594,263.6302,69,100,40
263.63864,263.83292,70,100,40
263.84134,264.0356,72,100,40
264.04404,264.2383,66,100,40
264.24677,264.441,67,100,40
264.44946,264.6437,69,100,40
264.65216,265.0491,58,100,40
265.05756,265.45453,74,100,40
265.46298,265.85992,74,100,40
265.86838,266.26532,74,100,40
266.27377,266.67075,74,100,40
266.67917,266.87344,72,100,40
266.8819,267.07614,71,100,40
267.0846,267.48154,72,100,40
267.49,267.88696,81,100,40
267.8954,268.29236,72,100,40
268.3008,268.49506,72,100,40
268.5035,268.69775,70,100,40
268.7062,269.10318,72,100,40
269.1116,269.50858,81,100,40
269.51703,269.91397,70,100,40
269.92242,270.11667,70,100,40
270.12512,270.3194,69,100,40
270.32782,270.7248,70,100,40
270.73325,271.1302,79,100,40
271.13864,271.7383,82,100,40
271.74673,271.941,81,100,40
271.94946,272.1437,79,100,40
272.15216,272.3464,78,100,40
272.35486,272.5491,79,100,40
272.55756,272.7518,81,100,40
272.76025,273.15723,78,100,40
273.16565,273.56262,79,100,40
273.57108,273.96802,79,100,40
273.97647,274.37344,79,100,40
274.38187,274.77884,79,100,40
275.1927,275.58966,78,100,40
276.0035,276.40045,77,100,40
276.8143,277.21127,75,100,40
277.62512,278.02206,75,100,40
278.43594,278.8329,74,100,40
278.84134,279.23828,82,100,40
279.24673,279.6437,79,100,40
279.65213,279.8464,80,100,40
279.85486,280.0491,79,100,40
280.05756,280.2518,80,100,40
280.26025,280.4545,78,100,40
280.46295,280.85992,79,100,40
280.86835,281.26532,78,100,40
282.09583,282.5038,78,100,40
282.5125,282.9205,79,100,40
282.92917,283.33716,81,100,40
283.34583,283.76547,82,100,40
283.7744,284.19406,78,100,40
284.20297,284.62262,78,100,40
284.63156,285.05118,79,100,40
285.06012,285.4921,79,100,40
285.50128,285.95322,79,100,40
285.96283,286.6672,79,100,40
286.67712,286.9053,81,100,40
286.91522,287.6548,78,100,40
287.66522,287.9048,79,100,40
287.91522,288.12057,55,100,40
288.1295,288.33487,67,100,40
288.34378,288.54913,70,100,40
288.55807,288.76343,74,100,40
288.77237,288.97772,79,100,40
288.98663,289.192,74,100,40
289.20093,289.40628,70,100,40
289.41522,289.62057,67,100,40
289.6295,289.83484,69,100,40
289.84378,290.04913,79,100,40
290.05807,290.26343,77,100,40
290.27234,290.47772,75,100,40
290.48663,290.692,77,100,40
290.70093,290.90628,74,100,40
290.91522,291.12057,71,100,40
291.1295,291.33484,67,100,40
291.34378,291.54913,55,100,40
291.55807,291.76343,67,100,40
291.77234,291.97772,72,100,40
291.98663,292.192,74,100,40
292.20093,292.40628,75,100,40
292.41522,292.62057,72,100,40
292.6295,292.83484,68,100,40
292.84378,293.04913,67,100,40
293.05807,293.26343,66,100,40
293.27234,293.47772,75,100,40
293.48663,293.692,74,100,40
293.70093,293.90628,72,100,40
293.9152,294.12057,74,100,40
294.1295,294.33484,70,100,40
294.34378,294.54913,67,100,40
294.55807,294.76343,65,100,40
294.77234,294.9777,55,100,40
294.98663,295.192,63,100,40
295.20093,295.40628,67,100,40
295.4152,295.62057,71,100,40
295.6295,295.83484,72,100,40
295.84378,296.04913,75,100,40
296.05807,296.26343,68,100,40
296.27234,296.4777,67,100,40
296.48663,296.68628,57,100,40
296.69498,296.89462,60,100,40
296.9033,297.10297,66,100,40
297.11163,297.31128,69,100,40
297.31998,297.51422,72,100,40
297.52267,297.71692,75,100,40
297.72537,297.91962,78,100,40
297.92807,298.12234,81,100,40
298.13077,298.32504,58,100,40
298.33347,298.52774,62,100,40
298.5362,298.73044,67,100,40
298.7389,298.93314,70,100,40
298.9416,299.13074,74,100,40
299.13895,299.3281,78,100,40
299.33633,299.52545,79,100,40
299.5337,299.72284,82,100,40
299.73105,299.9202,60,100,40
299.92844,300.11758,63,100,40
300.1258,300.31494,67,100,40
300.32315,300.5123,72,100,40
300.52054,300.71478,75,100,40
300.72324,300.91748,79,100,40
300.92593,301.1313,81,100,40
301.14023,301.3614,84,100,40
301.371,301.61057,62,100,40
301.621,301.84213,84,100,40
301.85175,302.05713,82,100,40
302.06604,302.2714,74,100,40
302.28033,302.40012,73,100,40
302.40533,302.52512,82,100,40
302.53033,302.65012,81,100,40
302.65533,302.77512,72,100,40
302.78033,302.90012,71,100,40
302.90533,303.02512,81,100,40
303.03033,303.15012,79,100,40
303.15533,303.27512,70,100,40
303.28033,303.40012,69,100,40
303.40533,303.52512,79,100,40
303.53033,303.65012,77,100,40
303.65533,303.77512,68,100,40
303.78033,303.90012,67,100,40
303.90533,304.02512,77,100,40
304.03033,304.15012,75,100,40
304.15533,304.27512,67,100,40
304.28033,304.40012,66,100,40
304.40533,304.52512,75,100,40
304.53033,304.65012,74,100,40
304.65533,304.77512,65,100,40
304.78033,304.911,64,100,40
304.9167,305.04736,74,100,40
305.05307,305.1968,72,100,40
305.20306,305.3468,71,100,40
305.35306,305.5128,72,100,40
305.5197,305.67944,63,100,40
305.6864,305.8661,62,100,40
305.8739,306.07925,60,100,40
306.08817,307.78906,78,100,40
307.78906,307.8828,79,100,40
307.8828,307.97656,81,100,40
307.97656,308.0703,78,100,40
308.0703,308.16406,79,100,40
308.16406,308.2578,81,100,40
308.2578,308.35156,72,100,40
308.35156,308.4453,74,100,40
308.4453,308.53906,75,100,40
308.53906,308.6328,72,100,40
308.6328,308.72656,74,100,40
308.72656,308.8203,75,100,40
308.8203,308.91406,69,100,40
308.91406,309.0078,70,100,40
309.0078,309.10156,72,100,40
309.10156,309.1953,69,100,40
309.1953,309.28906,70,100,40
309.28906,309.3828,72,100,40
309.3828,309.47656,66,100,40
309.47656,309.5703,67,100,40
309.5703,309.66406,69,100,40
309.66406,309.7578,66,100,40
309.7578,309.85156,67,100,40
309.85156,309.9297,69,100,40
309.9453,310.6797,62,100,40
310.6953,311.4297,79,100,40
311.4453,311.9922,79,100,40
312.0078,312.1953,81,100,40
312.1953,312.3828,79,100,40
312.3828,312.5703,78,100,40
312.5703,312.66406,79,100,40
312.66406,312.7578,76,100,40
312.7578,312.9453,78,100,40
312.9453,313.03906,78,100,40
313.03906,313.1328,79,100,40
313.1328,313.22656,78,100,40
313.22656,313.3203,79,100,40
313.3203,313.41406,78,100,40
313.41406,313.5078,79,100,40
313.5078,313.60156,78,100,40
313.60156,313.6953,79,100,40
313.6953,314.0547,78,100,40
314.0703,314.64532,79,100,40
314.67032,319.4453,79,100,40
321.87033,322.4453,67,1,40
0.4166665,0.82465243,74,100,40
0.833333,1.241319,74,100,40
1.2499995,1.6579854,74,100,40
1.666666,2.074652,74,100,40
2.0833325,2.2829852,72,100,40
2.2916658,2.4913185,70,100,40
2.499999,2.907985,72,100,40
2.9166656,3.3246515,69,100,40
3.333332,3.741318,70,100,40
4.166665,4.574651,75,100,40
4.999998,5.407984,69,100,40
5.833331,6.241317,74,100,40
6.666664,7.07465,74,100,40
7.499997,7.907983,72,100,40
8.33333,8.741316,70,100,40
9.166663,9.574649,69,100,40
12.083328,12.491315,74,100,40
12.499995,12.907981,74,100,40
12.916661,13.324648,74,100,40
13.333328,13.741314,74,100,40
13.749994,13.949647,72,100,40
13.958327,14.157981,70,100,40
14.166661,14.574647,72,100,40
14.583327,14.991313,69,100,40
14.999994,15.40798,70,100,40
15.833327,16.241312,74,100,40
16.66666,17.074646,72,100,40
18.333326,18.532978,72,100,40
18.541658,18.741312,75,100,40
18.749992,18.949646,74,100,40
18.958326,19.157978,72,100,40
19.166658,19.366312,70,100,40
19.374992,19.574644,79,100,40
19.583326,19.782978,69,100,40
19.791658,19.991312,67,100,40
19.999992,20.199644,62,100,40
20.208324,20.407978,69,100,40
20.416658,20.616312,73,100,40
20.624992,20.824644,76,100,40
20.833324,21.032978,77,100,40
21.041658,21.24131,81,100,40
21.249992,21.449644,74,100,40
21.458324,21.657978,72,100,40
21.666658,21.86631,71,100,40
21.87499,22.074644,74,100,40
22.083324,22.282978,77,100,40
22.291658,22.49131,80,100,40
22.49999,22.699644,79,100,40
22.708324,22.907976,77,100,40
22.916658,23.11631,75,100,40
23.12499,23.324644,74,100,40
23.333324,23.532976,75,100,40
23.541656,23.74131,67,100,40
23.74999,23.949644,72,100,40
23.958324,24.157976,74,100,40
24.166656,24.36631,75,100,40
24.37499,24.574642,79,100,40
24.583324,24.782976,72,100,40
24.791656,24.99131,70,100,40
24.99999,25.199642,69,100,40
25.208323,25.407976,72,100,40
25.416656,25.61631,75,100,40
25.62499,25.824642,79,100,40
25.833323,26.032976,77,100,40
26.041656,26.241308,75,100,40
26.249989,26.449642,74,100,40
26.458323,26.657976,72,100,40
26.666656,26.866308,74,100,40
26.874989,27.074642,69,100,40
27.083323,27.282976,70,100,40
27.291656,27.491308,66,100,40
27.499989,27.699642,67,100,40
27.708323,27.907974,70,100,40
27.916655,28.116308,74,100,40
28.124989,28.324642,65,100,40
28.333323,28.532974,64,100,40
28.541655,28.741308,67,100,40
28.749989,28.94964,70,100,40
28.958323,29.157974,74,100,40
29.166655,29.366308,72,100,40
29.374989,29.57464,69,100,40
29.58332,29.782974,70,100,40
29.791655,29.991308,67,100,40
29.999989,30.19964,66,100,40
30.20832,30.407974,69,100,40
30.416655,30.616306,72,100,40
30.624989,30.82464,75,100,40
30.83332,31.032974,74,100,40
31.041655,31.241306,72,100,40
31.249987,31.44964,70,100,40
31.45832,31.657974,69,100,40
31.666655,31.866306,70,100,40
31.874987,32.07464,67,100,40
32.08332,32.282974,74,100,40
32.291653,32.491306,65,100,40
32.49999,32.705345,63,100,40
32.71427,32.91963,74,100,40
32.92856,33.139954,79,100,40
33.149147,33.3703,72,100,40
33.379913,33.8119,78,100,40
47.16649,47.574474,79,100,40
47.583157,47.991142,79,100,40
47.99982,48.407806,79,100,40
48.41649,48.824474,79,100,40
48.833157,49.032806,77,100,40
49.04149,49.241142,76,100,40
49.24982,49.657806,77,100,40
49.66649,50.074474,74,100,40
50.083153,50.491142,75,100,40
50.49982,50.699474,75,100,40
50.708153,50.907806,74,100,40
50.91649,51.324474,75,100,40
51.333153,51.532806,77,100,40
51.54149,51.74114,75,100,40
51.74982,52.157806,74,100,40
52.583153,52.99114,79,100,40
53.416485,53.824474,79,100,40
53.833153,54.24114,77,100,40
54.24982,54.657806,77,100,40
54.666485,55.07447,77,100,40
55.083153,55.49114,77,100,40
55.49982,55.69947,75,100,40
55.708153,55.907806,74,100,40
55.916485,56.32447,75,100,40
56.333153,56.74114,72,100,40
56.749817,57.157803,74,100,40
57.166485,57.36614,74,100,40
57.374817,57.57447,72,100,40
57.583153,57.99114,74,100,40
57.999817,58.19947,75,100,40
58.208153,58.407803,74,100,40
58.416485,58.82447,72,100,40
59.249817,59.657803,77,100,40
60.08315,60.491135,77,100,40
60.499817,60.69947,75,100,40
60.70815,60.907803,74,100,40
60.916485,61.32447,75,100,40
61.33315,61.532803,77,100,40
61.541485,61.741135,75,100,40
61.749817,62.157803,74,100,40
62.58315,62.991135,79,100,40
63.41648,63.824467,79,100,40
63.83315,64.0328,77,100,40
64.04148,64.241135,76,100,40
64.24982,64.6578,77,100,40
64.66648,64.866135,79,100,40
64.87482,65.07447,77,100,40
65.083145,65.491135,76,100,40
65.91648,66.32447,76,100,40
66.74982,67.1578,74,100,40
67.583145,67.991135,73,100,40
68.41648,68.82446,74,100,40
68.833145,69.241135,74,100,40
69.24982,69.6578,74,100,40
69.66648,70.07446,74,100,40
70.083145,70.491135,74,100,40
70.49981,70.9078,74,100,40
70.91648,71.32446,74,100,40
71.333145,71.5328,73,100,40
71.54148,71.741135,71,100,40
71.74981,72.1578,73,100,40
72.583145,72.991135,74,100,40
72.99981,73.4078,69,100,40
73.41648,73.82446,70,100,40
74.66648,75.07446,69,100,40
75.083145,75.49113,69,100,40
75.49981,75.69946,67,100,40
75.708145,75.9078,65,100,40
75.91648,76.32446,67,100,40
76.333145,76.74113,64,100,40
76.74981,76.95517,65,100,40
76.964096,77.16946,64,100,40
77.17838,77.383736,62,100,40
77.39267,77.59802,64,100,40
77.60695,78.26928,64,100,40
78.2789,78.50005,62,100,40
78.50967,78.935394,62,100,40
79.361115,79.769104,62,100,40
80.19445,80.60243,64,100,40
85.611115,86.0191,72,100,40
86.02778,86.43577,72,100,40
86.44444,86.85243,72,100,40
86.861115,87.2691,72,100,40
87.27778,87.47743,70,100,40
87.486115,87.68577,69,100,40
87.69444,88.10243,70,100,40
88.111115,88.31077,72,100,40
88.31944,88.5191,70,100,40
88.52778,88.93577,69,100,40
89.361115,89.7691,74,100,40
90.19444,90.61409,74,100,40
90.62302,90.82837,76,100,40
90.8373,91.042656,77,100,40
91.05159,91.262985,76,100,40
91.27217,91.483574,74,100,40
91.49276,91.71391,73,100,40
91.72353,91.96311,74,100,40
91.97353,92.46311,73,100,40
92.921295,93.32928,74,100,40
93.75462,94.16261,74,100,40
95.00462,95.41261,74,100,40
95.421295,95.82928,73,100,40
96.67129,97.07928,74,100,40
97.08796,97.49594,74,100,40
97.92129,98.32928,74,100,40
98.75462,99.16261,74,100,40
99.58796,99.99594,73,100,40
100.42129,100.82928,72,100,40
101.25462,101.662605,71,100,40
102.08796,102.49594,70,100,40
102.92129,103.32928,69,100,40
103.75462,104.162605,69,100,40
104.58795,105.0076,67,100,40
105.4577,105.90962,67,100,40
108.419235,108.827225,79,100,40
108.83591,109.24389,77,100,40
109.669235,110.077225,78,100,40
110.50257,110.91056,79,100,40
110.919235,111.327225,77,100,40
111.33591,111.74389,77,100,40
111.75257,112.16055,76,100,40
112.169235,112.577225,76,100,40
112.58591,112.99389,77,100,40
113.00257,113.41055,77,100,40
113.419235,113.827225,73,100,40
115.0859,115.49389,74,100,40
115.50257,117.16055,74,100,40
117.169235,118.82722,73,100,40
118.8359,120.49389,74,100,40
120.50256,120.91055,74,100,40
120.919235,121.32722,73,100,40
121.3359,121.74389,74,100,40
121.75256,122.16055,71,100,40
122.169235,123.82722,73,100,40
123.8359,124.24388,74,100,40
124.25256,124.66055,73,100,40
124.669235,125.07722,74,100,40
125.0859,125.49388,76,100,40
125.50256,125.91055,77,100,40
125.919235,126.32722,79,100,40
126.3359,126.74388,77,100,40
126.75256,127.16055,76,100,40
127.16923,127.57722,74,100,40
127.5859,127.99388,73,100,40
128.00256,128.41055,74,100,40
128.41924,128.82721,76,100,40
128.83589,129.24388,77,100,40
129.25256,129.66055,76,100,40
129.66924,130.07721,77,100,40
130.08589,130.49388,74,100,40
130.50256,130.91055,76,100,40
130.91924,131.32721,74,100,40
131.33589,131.74388,76,100,40
131.75256,132.16055,77,100,40
132.16924,132.57721,79,100,40
132.58589,132.99388,81,100,40
133.00256,133.41055,79,100,40
133.41924,133.82721,77,100,40
133.83589,134.24388,76,100,40
134.25256,134.66055,74,100,40
134.66924,135.07721,76,100,40
135.08589,135.49388,77,100,40
135.50256,135.92221,79,100,40
135.93114,136.35077,77,100,40
136.3597,136.79814,79,100,40
136.80746,137.29704,76,100,40
171.14586,171.63545,71,100,40
172.08704,172.49503,75,100,40
172.92038,173.32835,74,100,40
173.75371,174.1617,74,100,40
174.17038,174.57835,77,100,40
174.58704,174.7867,63,100,40
174.79538,174.99503,74,100,40
175.00371,175.20335,79,100,40
175.21204,175.4117,71,100,40
175.42038,175.82835,72,100,40
175.83704,176.24503,72,100,40
176.25371,176.6617,72,100,40
177.08704,177.49503,71,100,40
177.92038,178.34001,67,100,40
178.77751,179.19716,65,100,40
179.63466,180.06664,66,100,40
180.51701,180.96893,62,100,40
181.47855,181.96812,63,100,40
183.25964,183.66763,62,100,40
185.75964,186.16763,69,100,40
186.59297,187.00096,70,100,40
187.4263,187.83429,72,100,40
188.25964,188.66762,72,100,40
188.6763,188.87596,70,100,40
188.88464,189.08429,69,100,40
189.09297,189.50096,70,100,40
189.9263,190.33429,70,100,40
191.63098,192.21848,70,100,40
192.23097,192.69725,74,100,40
192.70717,193.11514,74,100,40
193.12383,193.53181,74,100,40
193.5405,193.94849,74,100,40
193.95717,194.15681,72,100,40
194.1655,194.36514,70,100,40
194.37383,194.78181,72,100,40
194.7905,195.19849,74,100,40
195.20717,195.61514,75,100,40
195.62383,196.03181,75,100,40
196.0405,196.44849,75,100,40
196.45717,196.86514,75,100,40
196.87383,197.28181,75,100,40
197.2905,197.49014,74,100,40
197.49883,197.69849,72,100,40
197.70717,198.11514,74,100,40
198.12383,198.53181,75,100,40
198.5405,198.94849,75,100,40
198.95717,199.36514,74,100,40
199.37383,199.78181,74,100,40
199.7905,200.19849,72,100,40
200.20717,200.6268,72,100,40
200.63573,201.05537,70,100,40
202.48625,202.93817,65,100,40
202.94778,203.35577,65,100,40
203.36446,203.77245,65,100,40
203.78111,204.1891,65,100,40
204.19778,204.39745,67,100,40
204.40611,204.60577,65,100,40
204.61446,205.02245,63,100,40
205.03111,205.4391,62,100,40
205.44778,205.85577,63,100,40
205.86446,206.27243,70,100,40
206.28111,206.6891,70,100,40
206.69778,207.10577,70,100,40
207.11446,207.52243,70,100,40
207.94778,208.35577,65,100,40
208.36446,208.77243,65,100,40
208.78111,209.1891,74,100,40
209.61446,210.02243,72,100,40
210.87636,211.30833,70,100,40
246.40894,246.8059,74,100,40
246.81435,247.2113,75,100,40
248.03055,248.4275,69,100,40
248.43596,248.83292,74,100,40
249.65218,250.04913,74,100,40
250.05757,250.45454,74,100,40
250.8684,251.26535,73,100,40
251.6792,252.07616,72,100,40
252.49,252.88696,70,100,40
253.30081,253.69778,70,100,40
254.11163,254.50859,69,100,40
254.92244,255.3194,69,100,40
270.32782,270.7248,67,100,40
271.13864,271.7383,73,100,40
272.76025,273.15723,72,100,40
273.16565,273.56262,70,100,40
273.57108,273.96802,70,100,40
273.97647,274.37344,70,100,40
274.38187,274.77884,69,100,40
275.1927,275.58966,69,100,40
276.0035,276.40045,74,100,40
285.50128,285.95322,64,100,40
306.08817,307.6797,72,100,40
310.6953,311.4297,73,100,40
311.4453,312.1797,69,100,40
314.67032,319.4453,70,100,40
3.7499986,4.1579843,67,100,41
4.166665,4.574651,67,100,41
4.5833316,4.9913173,67,100,41
4.999998,5.407984,67,100,41
5.4166646,5.6163173,65,100,41
5.6249976,5.8246503,64,100,41
5.833331,6.241317,65,100,41
6.2499976,6.6579833,62,100,41
6.666664,7.07465,63,100,41
7.499997,7.907983,63,100,41
8.33333,8.741316,62,100,41
9.166663,9.574649,62,100,41
11.041662,11.241315,70,100,41
11.249995,11.449648,69,100,41
11.458329,11.553815,70,100,41
11.562495,11.657982,72,100,41
11.666662,12.074648,66,100,41
12.499995,12.907981,67,100,41
13.333328,13.741314,64,100,41
14.166661,14.574647,66,100,41
14.999994,15.40798,67,100,41
15.41666,15.616313,65,100,41
15.624993,15.824646,63,100,41
15.833327,16.241312,65,100,41
16.249994,16.65798,62,100,41
16.66666,17.074646,63,100,41
18.333326,18.532978,62,100,41
33.379913,33.8119,74,100,41
33.82109,34.229076,62,100,41
34.23776,34.634716,74,100,41
34.64316,35.040123,74,100,41
35.04857,35.445526,72,100,41
35.85938,36.256336,72,100,41
36.264782,36.661743,72,100,41
36.67019,37.067146,70,100,41
37.481,37.877956,70,100,41
37.886402,38.283363,70,100,41
38.29181,38.486065,67,100,41
38.49451,38.688766,65,100,41
38.697212,38.891468,65,100,41
38.899914,39.094173,63,100,41
39.10262,39.296875,63,100,41
39.30532,39.499577,62,100,41
39.508022,39.70228,62,100,41
39.710724,39.90498,60,100,41
39.91343,40.310387,60,100,41
65.49982,65.9078,69,100,41
65.91648,66.32447,69,100,41
66.333145,66.741135,69,100,41
66.74982,67.1578,69,100,41
67.16648,67.366135,67,100,41
67.37482,67.57447,65,100,41
67.583145,67.991135,67,100,41
67.99982,68.4078,64,100,41
68.41648,68.82446,65,100,41
68.833145,69.241135,62,100,41
69.24982,69.6578,64,100,41
69.66648,70.07446,65,100,41
70.083145,70.491135,67,100,41
70.49981,70.9078,65,100,41
70.91648,71.32446,64,100,41
71.74981,72.1578,64,100,41
72.583145,72.991135,62,100,41
72.99981,73.4078,62,100,41
73.41648,73.82446,62,100,41
81.44445,81.85243,66,100,41
81.861115,82.269104,67,100,41
82.27778,82.68577,67,100,41
82.69445,83.10243,67,100,41
83.111115,83.5191,67,100,41
83.52778,83.93577,67,100,41
83.94445,84.1441,65,100,41
84.15278,84.35243,63,100,41
84.361115,84.7691,65,100,41
84.77778,85.18577,62,100,41
85.19444,85.60243,63,100,41
86.02778,86.43577,64,100,41
86.861115,87.2691,66,100,41
87.69444,88.10243,67,100,41
88.52778,88.93577,67,100,41
88.94444,89.1441,65,100,41
89.15278,89.35243,64,100,41
89.361115,89.7691,65,100,41
89.77778,89.97743,67,100,41
89.986115,90.18576,65,100,41
90.19444,90.61409,64,100,41
91.97353,92.46311,64,100,41
92.921295,93.32928,65,100,41
93.75462,94.16261,70,100,41
95.00462,95.41261,64,100,41
95.421295,95.82928,69,100,41
96.67129,97.07928,62,100,41
97.08796,97.49594,67,100,41
97.92129,98.32928,65,100,41
98.75462,99.16261,64,100,41
99.58796,99.99594,64,100,41
100.42129,100.82928,62,100,41
101.25462,101.662605,62,100,41
102.08796,102.49594,67,100,41
102.92129,103.32928,65,100,41
106.75257,107.16056,67,100,41
107.169235,107.577225,65,100,41
108.419235,108.827225,69,100,41
108.83591,109.24389,70,100,41
109.669235,110.077225,69,100,41
110.50257,110.91056,67,100,41
113.8359,114.24389,73,100,41
114.25257,114.66055,69,100,41
114.669235,115.077225,74,100,41
115.0859,115.49389,67,100,41
115.50257,115.91055,69,100,41
115.919235,116.327225,67,100,41
116.3359,116.74389,69,100,41
116.75257,117.16055,65,100,41
117.169235,117.577225,67,100,41
117.5859,117.99389,65,100,41
118.00257,118.41055,67,100,41
118.419235,118.82722,64,100,41
118.8359,119.24389,65,100,41
119.25257,119.66055,64,100,41
119.669235,120.07722,65,100,41
120.0859,120.49389,62,100,41
120.50256,122.16055,64,100,41
122.169235,123.82722,69,100,41
123.8359,125.49388,62,100,41
125.50256,127.16055,62,100,41
127.16923,128.82721,62,100,41
128.83589,130.49388,62,100,41
130.50256,132.16055,62,100,41
132.16924,133.82721,62,100,41
133.83589,135.49388,62,100,41
135.50256,137.29704,62,100,41
171.14586,171.63545,62,100,41
171.64586,172.07785,67,100,41
172.08704,172.49503,67,100,41
172.50371,172.9117,67,100,41
172.92038,173.32835,67,100,41
173.33704,173.5367,65,100,41
173.54538,173.74503,63,100,41
173.75371,174.1617,65,100,41
174.17038,174.57835,62,100,41
175.83704,176.24503,63,100,41
176.25371,176.6617,62,100,41
177.08704,177.49503,67,100,41
184.50964,184.91763,64,100,41
184.9263,185.33429,65,100,41
185.34297,185.75096,65,100,41
185.75964,186.16763,65,100,41
186.1763,186.58429,65,100,41
186.59297,187.00096,65,100,41
187.00964,187.20929,63,100,41
187.21797,187.41762,62,100,41
187.4263,187.83429,63,100,41
187.84297,188.25096,60,100,41
188.25964,188.66762,62,100,41
189.09297,189.50096,67,100,41
189.9263,190.33429,67,100,41
191.1763,191.62056,65,100,41
192.23097,192.69725,65,100,41
192.70717,193.11514,65,100,41
193.12383,193.53181,65,100,41
193.5405,193.94849,65,100,41
195.62383,196.03181,67,100,41
196.0405,196.44849,67,100,41
196.45717,196.86514,67,100,41
196.87383,197.28181,67,100,41
198.5405,198.94849,65,100,41
199.37383,199.78181,63,100,41
200.20717,200.6268,62,100,41
207.11446,207.52243,62,100,41
210.87636,211.30833,62,100,41
211.31754,211.76945,65,100,41
246.40894,246.8059,70,100,41
246.81435,247.2113,67,100,41
248.03055,248.4275,69,100,41
248.43596,248.83292,66,100,41
249.65218,250.04913,67,100,41
250.05757,250.45454,63,100,41
250.8684,251.26535,64,100,41
251.6792,252.07616,62,100,41
253.30081,253.69778,67,100,41
255.73325,255.9275,67,100,41
256.54407,256.7383,67,100,41
257.35486,257.75183,65,100,41
258.16568,258.35992,65,100,41
259.7873,259.98157,63,100,41
265.46298,265.85992,65,100,41
266.27377,266.67075,63,100,41
266.67917,266.87344,63,100,41
266.8819,267.07614,62,100,41
267.0846,267.48154,63,100,41
267.8954,268.29236,66,100,41
268.3008,268.49506,69,100,41
268.5035,268.69775,67,100,41
268.7062,269.10318,69,100,41
269.51703,269.91397,69,100,41
269.92242,270.11667,67,100,41
270.12512,270.3194,66,100,41
270.32782,270.7248,67,100,41
271.13864,271.7383,64,100,41
275.1927,275.58966,62,100,41
276.0035,276.40045,67,100,41
276.8143,277.21127,67,100,41
277.62512,278.02206,65,100,41
278.43594,278.8329,65,100,41
278.84134,279.23828,74,100,41
279.24673,279.6437,74,100,41
279.65213,279.8464,72,100,41
279.85486,280.0491,70,100,41
280.05756,280.4545,72,100,41
280.46295,280.85992,72,100,41
280.86835,281.26532,72,100,41
281.27377,281.46802,75,100,41
281.47647,281.67072,72,100,41
281.67917,282.08716,74,100,41
282.09583,282.5038,69,100,41
282.5125,282.9205,70,100,41
282.92917,283.1288,75,100,41
283.1375,283.33716,72,100,41
283.34583,283.76547,74,100,41
283.7744,284.19406,69,100,41
284.20297,284.62262,69,100,41
284.63156,285.05118,70,100,41
285.06012,285.4921,70,100,41
285.50128,285.95322,69,100,41
285.96283,286.6672,70,100,41
286.67712,286.9053,72,100,41
286.91522,287.6548,69,100,41
311.4453,312.1797,62,100,41
314.67032,319.4453,62,100,41
9.999996,10.407982,67,100,42
10.416662,10.824649,55,100,42
10.833329,11.032982,60,100,42
11.666662,12.074648,60,100,42
12.499995,12.907981,58,100,42
13.333328,13.741314,57,100,42
14.166661,14.574647,62,100,42
14.999994,15.40798,55,100,42
34.23776,34.634716,67,100,42
34.64316,35.040123,67,100,42
35.04857,35.445526,63,100,42
35.85938,36.256336,65,100,42
36.264782,36.661743,65,100,42
36.67019,37.067146,62,100,42
37.481,37.877956,63,100,42
37.886402,38.283363,62,100,42
38.29181,38.688766,60,100,42
43.302063,43.791645,55,100,42
71.74981,72.1578,57,100,42
73.41648,73.82446,55,100,42
75.083145,75.49113,57,100,42
75.49981,75.9078,58,100,42
76.333145,76.74113,55,100,42
76.74981,77.16946,57,100,42
78.94445,79.35243,62,100,42
79.361115,79.769104,62,100,42
79.77778,80.18577,62,100,42
80.19445,80.60243,62,100,42
80.611115,80.81077,60,100,42
80.81945,81.019104,58,100,42
81.02778,81.43577,60,100,42
81.44445,81.85243,57,100,42
81.861115,82.269104,58,100,42
82.69445,83.10243,55,100,42
83.52778,83.93577,57,100,42
84.77778,85.18577,59,100,42
85.19444,85.60243,60,100,42
86.02778,86.43577,57,100,42
86.861115,87.2691,62,100,42
88.52778,88.93577,62,100,42
90.19444,90.61409,56,100,42
91.97353,92.46311,55,100,42
99.58796,99.99594,57,100,42
102.08796,102.49594,61,100,42
102.92129,103.32928,62,100,42
103.75462,104.162605,58,100,42
104.58795,105.0076,58,100,42
105.4577,105.90962,57,100,42
106.75257,107.16056,57,100,42
107.169235,107.577225,57,100,42
171.14586,171.63545,55,100,42
172.92038,173.32835,55,100,42
174.58704,174.99503,55,100,42
176.25371,176.6617,55,100,42
177.92038,178.34001,60,100,42
178.77751,179.19716,56,100,42
179.63466,180.06664,57,100,42
180.51701,180.96893,55,100,42
181.47855,181.96812,60,100,42
181.97855,182.41698,60,100,42
182.42632,182.83429,60,100,42
182.84297,183.25096,60,100,42
183.25964,183.66763,60,100,42
183.6763,183.87596,58,100,42
183.88464,184.08429,57,100,42
184.09297,184.50096,58,100,42
184.50964,184.91763,55,100,42
184.9263,185.33429,57,100,42
189.09297,189.50096,55,100,42
189.9263,190.33429,60,100,42
192.23097,192.69725,58,100,42
192.70717,193.11514,58,100,42
193.12383,193.53181,58,100,42
195.62383,196.03181,60,100,42
196.0405,196.44849,60,100,42
196.45717,196.86514,60,100,42
202.48625,202.93817,58,100,42
202.94778,203.35577,58,100,42
203.36446,203.77245,57,100,42
203.78111,204.1891,55,100,42
204.61446,205.02245,57,100,42
205.03111,205.4391,58,100,42
205.44778,205.85577,60,100,42
205.86446,206.27243,62,100,42
206.28111,206.6891,62,100,42
206.69778,207.10577,62,100,42
207.11446,207.52243,55,100,42
207.94778,208.35577,57,100,42
208.36446,208.77243,58,100,42
208.78111,209.1891,63,100,42
253.30081,253.69778,60,100,42
254.92244,255.3194,58,100,42
256.54407,256.7383,57,100,42
258.16568,258.35992,55,100,42
259.7873,259.98157,55,100,42
261.4089,261.60318,57,100,42
265.46298,265.85992,59,100,42
266.27377,266.67075,60,100,42
267.8954,268.29236,62,100,42
269.51703,269.91397,62,100,42
272.76025,273.15723,62,100,42
273.16565,273.56262,62,100,42
273.57108,273.96802,62,100,42
273.97647,274.37344,62,100,42
274.38187,274.77884,62,100,42
274.7873,274.98154,60,100,42
274.99,275.18423,58,100,42
275.1927,275.58966,60,100,42
275.59808,275.99506,57,100,42
276.0035,276.40045,59,100,42
276.4089,276.60315,60,100,42
276.6116,276.80588,59,100,42
276.8143,277.21127,60,100,42
277.21973,277.61667,55,100,42
277.62512,278.02206,57,100,42
278.03052,278.2248,58,100,42
278.23322,278.4275,57,100,42
278.43594,278.8329,58,100,42
278.84134,279.23828,62,100,42
279.24673,279.6437,63,100,42
280.46295,280.85992,63,100,42
280.86835,281.26532,62,100,42
282.09583,282.5038,62,100,42
282.5125,282.9205,62,100,42
283.7744,284.19406,62,100,42
284.20297,284.62262,63,100,42
284.63156,285.05118,62,100,42
285.06012,285.4921,62,100,42
285.50128,285.95322,61,100,42
285.96283,286.4291,62,100,42
306.08817,307.6797,62,100,42
314.67032,319.4453,55,100,42
