start_time,end_time,note_value,velocity,instrument_program_number
0.0,0.359375,79,100,40
0.375,0.6145833,82,100,40
0.625,0.81666666,79,100,40
0.825,0.9847221,74,100,40
0.9916665,1.1354165,79,100,40
1.1416665,1.2785711,74,100,40
1.2845235,1.4152052,70,100,40
1.420887,1.545887,74,100,40
1.5513217,1.6741849,70,100,40
1.6795268,1.8013487,67,100,40
1.8066453,1.9264369,70,100,40
1.9316453,2.051437,67,100,40
2.0566452,2.176437,62,100,40
2.1816452,2.301437,67,100,40
2.3066452,2.426437,62,100,40
2.4316452,2.551437,58,100,40
2.5566452,2.676437,62,100,40
2.6816452,2.801437,58,100,40
2.8066452,2.926437,55,100,40
2.9316452,3.051437,58,100,40
3.0566452,3.176437,62,100,40
3.1816452,3.301437,67,100,40
3.3066452,3.426437,70,100,40
3.4316452,3.551437,74,100,40
3.5566452,3.676437,79,100,40
3.6816452,3.801437,74,100,40
3.8066452,3.926437,72,100,40
3.9316452,4.051437,70,100,40
4.0566454,4.176437,69,100,40
4.1816454,4.301437,67,100,40
4.3066454,4.426437,66,100,40
4.4316454,4.551437,62,100,40
4.5566454,4.676437,66,100,40
4.6816454,4.801437,69,100,40
4.8066454,4.926437,74,100,40
4.9316454,5.051437,78,100,40
5.0566454,5.176437,81,100,40
5.1816454,5.301437,75,100,40
5.3066454,5.426437,74,100,40
5.4316454,5.551437,72,100,40
5.5566454,5.676437,70,100,40
5.6816454,5.801437,69,100,40
5.8066454,5.926437,67,100,40
5.9316454,6.051437,62,100,40
6.0566454,6.176437,67,100,40
6.1816454,6.301437,70,100,40
6.3066454,6.426437,74,100,40
6.4316454,6.551437,79,100,40
6.5566454,6.676437,82,100,40
6.6816454,6.801437,79,100,40
6.8066454,6.926437,75,100,40
6.9316454,7.051437,72,100,40
7.0566454,7.176437,75,100,40
7.1816454,7.301437,79,100,40
7.3066454,7.426437,81,100,40
7.4316454,7.551437,77,100,40
7.5566454,7.676437,74,100,40
7.6816454,7.801437,70,100,40
7.8066454,7.926437,74,100,40
7.9316454,8.051437,77,100,40
8.056645,8.176437,79,100,40
8.181645,8.301437,75,100,40
8.306645,8.426437,72,100,40
8.431645,8.551437,69,100,40
8.556645,8.676437,72,100,40
8.681645,8.801437,75,100,40
8.806645,8.926437,62,100,40
8.931645,9.051437,79,100,40
9.056645,9.176437,78,100,40
9.181645,9.301437,79,100,40
9.306645,9.426437,81,100,40
9.431645,9.551437,72,100,40
9.556645,9.676437,67,100,40
9.681645,9.801437,72,100,40
9.806645,9.926437,70,100,40
9.931645,10.051437,72,100,40
10.056645,10.176437,74,100,40
10.181645,10.301437,65,100,40
10.306645,10.426437,60,100,40
10.431645,10.551437,77,100,40
10.556645,10.676437,76,100,40
10.681645,10.801437,77,100,40
10.806645,10.926437,79,100,40
10.931645,11.051437,70,100,40
11.056645,11.176437,65,100,40
11.181645,11.301437,70,100,40
11.306645,11.426437,69,100,40
11.431645,11.551437,70,100,40
11.556645,11.676437,72,100,40
11.681645,11.801437,63,100,40
11.806645,11.926437,58,100,40
11.931645,12.051437,75,100,40
12.056645,12.176437,74,100,40
12.181645,12.301437,75,100,40
12.306645,12.426437,77,100,40
12.431645,12.551437,68,100,40
12.556645,12.676437,63,100,40
12.681645,12.801437,58,100,40
12.806645,12.926437,63,100,40
12.931645,13.051437,67,100,40
13.056645,13.176437,63,100,40
13.181645,13.301437,67,100,40
13.306645,13.426437,72,100,40
13.431645,13.551437,67,100,40
13.556645,13.676437,72,100,40
13.681645,13.801437,75,100,40
13.806645,13.926437,72,100,40
13.931645,14.051437,75,100,40
14.056645,14.176437,65,100,40
14.181645,14.301437,60,100,40
14.306645,14.426437,65,100,40
14.431645,14.551437,69,100,40
14.556645,14.676437,65,100,40
14.681645,14.801437,69,100,40
14.806645,14.926437,74,100,40
14.931645,15.051437,69,100,40
15.056645,15.176437,74,100,40
15.181645,15.301437,77,100,40
15.306645,15.426437,74,100,40
15.431645,15.551437,77,100,40
15.556645,15.676437,67,100,40
15.681645,15.801437,62,100,40
15.806645,15.926437,67,100,40
15.931645,16.051437,70,100,40
16.056644,16.176437,67,100,40
16.181644,16.301437,70,100,40
16.306644,16.426437,75,100,40
16.431644,16.551437,70,100,40
16.556644,16.676437,75,100,40
16.681644,16.801437,79,100,40
16.806644,16.926437,75,100,40
16.931644,17.051437,79,100,40
17.056644,17.176437,69,100,40
17.181644,17.301437,65,100,40
17.306644,17.426437,69,100,40
17.431644,17.551437,72,100,40
17.556644,17.676437,69,100,40
17.681644,17.801437,72,100,40
17.806644,17.926437,77,100,40
17.931644,18.051437,72,100,40
18.056644,18.176437,77,100,40
18.181644,18.301437,81,100,40
18.306644,18.426437,77,100,40
18.431644,18.551437,81,100,40
18.556644,18.676437,70,100,40
18.681644,18.801437,72,100,40
18.806644,18.926437,74,100,40
18.931644,19.051437,82,100,40
19.056644,19.176437,81,100,40
19.181644,19.301437,82,100,40
19.306644,19.426437,72,100,40
19.431644,19.551437,74,100,40
19.556644,19.676437,75,100,40
19.681644,19.801437,82,100,40
19.806644,19.926437,81,100,40
19.931644,20.051437,82,100,40
20.056644,20.176437,74,100,40
20.181644,20.301437,75,100,40
20.306644,20.426437,77,100,40
20.431644,20.551437,82,100,40
20.556644,20.676437,81,100,40
20.681644,20.801437,82,100,40
20.806644,20.926437,75,100,40
20.931644,21.051437,77,100,40
21.056644,21.176437,79,100,40
21.181644,21.301437,82,100,40
21.306644,21.426437,81,100,40
21.431644,21.551437,82,100,40
21.556644,21.676437,69,100,40
21.681644,21.801437,72,100,40
21.806644,21.926437,75,100,40
21.931644,22.051437,79,100,40
22.056644,22.176437,77,100,40
22.181644,22.301437,75,100,40
22.306644,22.426437,74,100,40
22.431644,22.551437,70,100,40
22.556644,22.676437,75,100,40
22.681644,22.801437,70,100,40
22.806644,22.926437,77,100,40
22.931644,23.051437,68,100,40
23.056644,23.176437,67,100,40
23.181644,23.301437,69,100,40
23.306644,23.426437,70,100,40
23.431644,23.551437,62,100,40
23.556644,23.676437,60,100,40
23.681644,23.801437,69,100,40
23.806644,23.926437,58,100,40
23.931644,24.051437,62,100,40
24.056644,24.176437,60,100,40
24.181644,24.301437,58,100,40
24.306644,24.426437,57,100,40
24.431644,24.551437,55,100,40
24.556644,24.676437,57,100,40
24.681644,24.801437,67,100,40
24.806644,24.926437,66,100,40
24.931644,25.051437,64,100,40
25.056644,25.176437,62,100,40
25.181644,25.301437,72,100,40
25.306644,25.426437,70,100,40
25.431644,25.551437,69,100,40
25.556644,25.676437,67,100,40
25.681644,25.801437,77,100,40
25.806644,25.926437,76,100,40
25.931644,26.051437,74,100,40
26.056644,26.176437,73,100,40
26.181644,26.301437,82,100,40
26.306644,26.426437,81,100,40
26.431644,26.551437,79,100,40
26.556644,26.676437,77,100,40
26.681644,26.801437,76,100,40
26.806644,26.926437,77,100,40
26.931644,27.051437,74,100,40
27.056644,27.176437,79,100,40
27.181644,27.301437,74,100,40
27.306644,27.426437,81,100,40
27.431644,27.551437,72,100,40
27.556644,27.676437,70,100,40
27.681644,27.801437,81,100,40
27.806644,27.926437,79,100,40
27.931644,28.051437,77,100,40
28.056644,28.176437,76,100,40
28.181644,28.301437,74,100,40
28.306644,28.426437,76,100,40
28.431644,28.551437,72,100,40
28.556644,28.676437,77,100,40
28.681644,28.801437,72,100,40
28.806644,28.926437,79,100,40
28.931644,29.051437,70,100,40
29.056644,29.176437,69,100,40
29.181644,29.301437,79,100,40
29.306644,29.426437,77,100,40
29.431644,29.551437,76,100,40
29.556644,29.676437,74,100,40
29.681644,29.801437,73,100,40
29.806644,29.926437,74,100,40
29.931644,30.051437,70,100,40
30.056644,30.176437,76,100,40
30.181644,30.301437,70,100,40
30.306644,30.426437,77,100,40
30.431644,30.551437,69,100,40
30.556644,30.676437,67,100,40
30.681644,30.801437,77,100,40
30.806644,30.926437,76,100,40
30.931644,31.051437,74,100,40
31.056644,31.176437,73,100,40
31.181644,31.301437,71,100,40
31.306644,31.426437,73,100,40
31.431644,31.551437,69,100,40
31.556644,31.676437,74,100,40
31.681644,31.801437,69,100,40
31.806644,31.926437,76,100,40
31.931644,32.051437,67,100,40
32.056644,32.176437,65,100,40
32.181644,32.301437,74,100,40
32.306644,32.426437,70,100,40
32.431644,32.551437,67,100,40
32.556644,32.676437,64,100,40
32.681644,32.801437,72,100,40
32.806644,32.926437,62,100,40
32.931644,33.051437,70,100,40
33.056644,33.176437,67,100,40
33.181644,33.301437,64,100,40
33.306644,33.426437,60,100,40
33.431644,33.551437,69,100,40
33.556644,33.676437,58,100,40
33.681644,33.801437,67,100,40
33.806644,33.926437,64,100,40
33.931644,34.051437,61,100,40
34.056644,34.176437,57,100,40
34.181644,34.301437,65,100,40
34.306644,34.426437,55,100,40
34.431644,34.551437,65,100,40
34.556644,34.676437,64,100,40
34.681644,34.801437,62,100,40
34.806644,34.926437,61,100,40
34.931644,35.051437,59,100,40
35.056644,35.176437,57,100,40
35.181644,35.301437,62,100,40
35.306644,35.426437,61,100,40
35.431644,35.551437,64,100,40
35.556644,35.676437,62,100,40
35.681644,35.801437,65,100,40
35.806644,35.926437,57,100,40
35.931644,36.051437,64,100,40
36.056644,36.176437,62,100,40
36.181644,36.301437,65,100,40
36.306644,36.426437,64,100,40
36.431644,36.551437,67,100,40
36.556644,36.676437,57,100,40
36.681644,36.801437,65,100,40
36.806644,36.926437,64,100,40
36.931644,37.051437,67,100,40
37.056644,37.176437,65,100,40
37.181644,37.301437,69,100,40
37.306644,37.426437,58,100,40
37.431644,37.551437,67,100,40
37.556644,37.676437,66,100,40
37.681644,37.801437,69,100,40
37.806644,37.926437,67,100,40
37.931644,38.051437,70,100,40
38.056644,38.176437,61,100,40
38.181644,38.301437,70,100,40
38.306644,38.426437,69,100,40
38.431644,38.551437,67,100,40
38.556644,38.676437,65,100,40
38.681644,38.801437,64,100,40
38.806644,38.926437,65,100,40
38.931644,39.051437,62,100,40
39.056644,39.176437,65,100,40
39.181644,39.301437,69,100,40
39.306644,39.426437,74,100,40
39.431644,39.551437,77,100,40
39.556644,39.681644,81,100,40
39.68708,39.81208,77,100,40
39.817516,39.942516,69,100,40
39.817516,39.942516,69,100,40
40.078384,40.34543,73,100,40
40.078384,40.34543,67,100,40
40.078384,40.34543,57,100,40
40.351112,41.16361,74,100,40
40.351112,41.16361,66,100,40
40.351112,41.16361,62,100,40
41.169292,41.299973,79,100,40
41.305656,41.430656,82,100,40
41.436092,41.55588,79,100,40
41.561092,41.68088,74,100,40
41.686092,41.80588,79,100,40
41.811092,41.93088,74,100,40
41.936092,42.05588,70,100,40
42.061092,42.18088,74,100,40
42.186092,42.30588,70,100,40
42.311092,42.43088,67,100,40
42.436092,42.55588,70,100,40
42.561092,42.68088,67,100,40
42.686092,42.80588,62,100,40
42.811092,42.93088,67,100,40
42.936092,43.05588,62,100,40
43.061092,43.18088,58,100,40
43.186092,43.30588,62,100,40
43.311092,43.43088,58,100,40
43.436092,43.55588,55,100,40
43.561092,43.68088,58,100,40
43.686092,43.80588,62,100,40
43.811092,43.93088,67,100,40
43.936092,44.05588,70,100,40
44.061092,44.18088,74,100,40
44.186092,44.30588,79,100,40
44.311092,44.43088,74,100,40
44.436092,44.55588,72,100,40
44.561092,44.68088,70,100,40
44.686092,44.80588,69,100,40
44.811092,44.93088,67,100,40
44.936092,45.05588,66,100,40
45.061092,45.18088,62,100,40
45.186092,45.30588,66,100,40
45.311092,45.43088,69,100,40
45.436092,45.55588,74,100,40
45.561092,45.68088,78,100,40
45.686092,45.80588,81,100,40
45.811092,45.93088,75,100,40
45.936092,46.05588,74,100,40
46.061092,46.18088,72,100,40
46.186092,46.30588,70,100,40
46.311092,46.43088,69,100,40
46.436092,46.55588,67,100,40
46.561092,46.68088,62,100,40
46.686092,46.80588,67,100,40
46.811092,46.93088,70,100,40
46.936092,47.05588,74,100,40
47.061092,47.18088,79,100,40
47.186092,47.30588,82,100,40
47.311092,47.43088,79,100,40
47.436092,47.55588,75,100,40
47.561092,47.68088,72,100,40
47.686092,47.80588,75,100,40
47.811092,47.93088,79,100,40
47.936092,48.05588,81,100,40
48.061092,48.18088,77,100,40
48.186092,48.30588,74,100,40
48.311092,48.43088,70,100,40
48.436092,48.55588,74,100,40
48.561092,48.68088,77,100,40
48.686092,48.80588,79,100,40
48.811092,48.93088,75,100,40
48.936092,49.05588,72,100,40
49.061092,49.18088,69,100,40
49.186092,49.30588,72,100,40
49.311092,49.43088,75,100,40
49.436092,49.55588,62,100,40
49.561092,49.68088,79,100,40
49.686092,49.80588,78,100,40
49.811092,49.93088,79,100,40
49.936092,50.05588,81,100,40
50.061092,50.18088,72,100,40
50.186092,50.30588,67,100,40
50.311092,50.43088,72,100,40
50.436092,50.55588,70,100,40
50.561092,50.68088,72,100,40
50.686092,50.80588,74,100,40
50.811092,50.93088,65,100,40
50.936092,51.05588,60,100,40
51.061092,51.18088,77,100,40
51.186092,51.30588,76,100,40
51.311092,51.43088,77,100,40
51.436092,51.55588,79,100,40
51.561092,51.68088,70,100,40
51.686092,51.80588,65,100,40
51.811092,51.93088,70,100,40
51.936092,52.05588,69,100,40
52.061092,52.18088,70,100,40
52.186092,52.30588,72,100,40
52.311092,52.43088,63,100,40
52.436092,52.55588,58,100,40
52.561092,52.68088,75,100,40
52.686092,52.80588,74,100,40
52.811092,52.93088,75,100,40
52.936092,53.05588,77,100,40
53.061092,53.18088,68,100,40
53.186092,53.30588,63,100,40
53.311092,53.43088,58,100,40
53.436092,53.55588,63,100,40
53.561092,53.68088,67,100,40
53.686092,53.80588,63,100,40
53.811092,53.93088,67,100,40
53.936092,54.05588,72,100,40
54.061092,54.18088,67,100,40
54.186092,54.30588,72,100,40
54.311092,54.43088,75,100,40
54.436092,54.55588,72,100,40
54.561092,54.68088,75,100,40
54.686092,54.80588,65,100,40
54.811092,54.93088,60,100,40
54.936092,55.05588,65,100,40
55.061092,55.18088,69,100,40
55.186092,55.30588,65,100,40
55.311092,55.43088,69,100,40
55.436092,55.55588,74,100,40
55.561092,55.68088,69,100,40
55.686092,55.80588,74,100,40
55.811092,55.93088,77,100,40
55.936092,56.05588,74,100,40
56.061092,56.18088,77,100,40
56.186092,56.30588,67,100,40
56.311092,56.43088,62,100,40
56.436092,56.55588,67,100,40
56.561092,56.68088,70,100,40
56.686092,56.80588,67,100,40
56.811092,56.93088,70,100,40
56.936092,57.05588,75,100,40
57.061092,57.18088,70,100,40
57.186092,57.30588,75,100,40
57.311092,57.43088,79,100,40
57.436092,57.55588,75,100,40
57.561092,57.68088,79,100,40
57.686092,57.80588,69,100,40
57.811092,57.93088,65,100,40
57.936092,58.05588,69,100,40
58.061092,58.18088,72,100,40
58.186092,58.30588,69,100,40
58.311092,58.43088,72,100,40
58.436092,58.55588,77,100,40
58.561092,58.68088,72,100,40
58.686092,58.80588,77,100,40
58.811092,58.93088,81,100,40
58.936092,59.05588,77,100,40
59.061092,59.18088,81,100,40
59.186092,59.30588,70,100,40
59.311092,59.43088,72,100,40
59.436092,59.55588,74,100,40
59.561092,59.68088,82,100,40
59.686092,59.80588,81,100,40
59.811092,59.93088,82,100,40
59.936092,60.05588,72,100,40
60.061092,60.18088,74,100,40
60.186092,60.30588,75,100,40
60.311092,60.43088,82,100,40
60.436092,60.55588,81,100,40
60.561092,60.68088,82,100,40
60.686092,60.80588,74,100,40
60.811092,60.93088,75,100,40
60.936092,61.05588,77,100,40
61.061092,61.18088,82,100,40
61.186092,61.30588,81,100,40
61.311092,61.43088,82,100,40
61.436092,61.55588,75,100,40
61.561092,61.68088,77,100,40
61.686092,61.80588,79,100,40
61.811092,61.93088,82,100,40
61.936092,62.05588,81,100,40
62.061092,62.18088,82,100,40
62.186092,62.30588,69,100,40
62.311092,62.43088,72,100,40
62.436092,62.55588,75,100,40
62.561092,62.68088,79,100,40
62.686092,62.80588,77,100,40
62.811092,62.93088,75,100,40
62.936092,63.05588,74,100,40
63.061092,63.18088,70,100,40
63.186092,63.30588,75,100,40
63.311092,63.43088,70,100,40
63.436092,63.55588,77,100,40
63.561092,63.68088,68,100,40
63.686092,63.80588,67,100,40
63.811092,63.93088,69,100,40
63.936092,64.055885,70,100,40
64.06109,64.180885,62,100,40
64.18609,64.305885,60,100,40
64.31109,64.430885,69,100,40
64.43609,64.555885,58,100,40
64.56109,64.680885,62,100,40
64.68609,64.805885,60,100,40
64.81109,64.930885,58,100,40
64.93609,65.055885,57,100,40
65.06109,65.180885,55,100,40
65.18609,65.305885,57,100,40
65.31109,65.430885,67,100,40
65.43609,65.555885,66,100,40
65.56109,65.680885,64,100,40
65.68609,65.805885,62,100,40
65.81109,65.930885,72,100,40
65.93609,66.055885,70,100,40
66.06109,66.180885,69,100,40
66.18609,66.305885,67,100,40
66.31109,66.430885,77,100,40
66.43609,66.555885,76,100,40
66.56109,66.680885,74,100,40
66.68609,66.805885,73,100,40
66.81109,66.930885,82,100,40
66.93609,67.055885,81,100,40
67.06109,67.180885,79,100,40
67.18609,67.305885,77,100,40
67.31109,67.430885,76,100,40
67.43609,67.555885,77,100,40
67.56109,67.680885,74,100,40
67.68609,67.805885,79,100,40
67.81109,67.930885,74,100,40
67.93609,68.055885,81,100,40
68.06109,68.180885,72,100,40
68.18609,68.305885,70,100,40
68.31109,68.430885,81,100,40
68.43609,68.555885,79,100,40
68.56109,68.680885,77,100,40
68.68609,68.805885,76,100,40
68.81109,68.930885,74,100,40
68.93609,69.055885,76,100,40
69.06109,69.180885,72,100,40
69.18609,69.305885,77,100,40
69.31109,69.430885,72,100,40
69.43609,69.555885,79,100,40
69.56109,69.680885,70,100,40
69.68609,69.805885,69,100,40
69.81109,69.930885,79,100,40
69.93609,70.055885,77,100,40
70.06109,70.180885,76,100,40
70.18609,70.305885,74,100,40
70.31109,70.430885,73,100,40
70.43609,70.555885,74,100,40
70.56109,70.680885,70,100,40
70.68609,70.805885,76,100,40
70.81109,70.930885,70,100,40
70.93609,71.055885,77,100,40
71.06109,71.180885,69,100,40
71.18609,71.305885,67,100,40
71.31109,71.430885,77,100,40
71.43609,71.555885,76,100,40
71.56109,71.680885,74,100,40
71.68609,71.805885,73,100,40
71.81109,71.930885,71,100,40
71.93609,72.055885,73,100,40
72.06109,72.180885,69,100,40
72.18609,72.305885,74,100,40
72.31109,72.430885,69,100,40
72.43609,72.555885,76,100,40
72.56109,72.680885,67,100,40
72.68609,72.805885,65,100,40
72.81109,72.930885,74,100,40
72.93609,73.055885,70,100,40
73.06109,73.180885,67,100,40
73.18609,73.305885,64,100,40
73.31109,73.430885,72,100,40
73.43609,73.555885,62,100,40
73.56109,73.680885,70,100,40
73.68609,73.805885,67,100,40
73.81109,73.930885,64,100,40
73.93609,74.055885,60,100,40
74.06109,74.180885,69,100,40
74.18609,74.305885,58,100,40
74.31109,74.430885,67,100,40
74.43609,74.555885,64,100,40
74.56109,74.680885,61,100,40
74.68609,74.805885,57,100,40
74.81109,74.930885,65,100,40
74.93609,75.055885,55,100,40
75.06109,75.180885,65,100,40
75.18609,75.305885,64,100,40
75.31109,75.430885,62,100,40
75.43609,75.555885,61,100,40
75.56109,75.680885,59,100,40
75.68609,75.805885,57,100,40
75.81109,75.930885,62,100,40
75.93609,76.055885,61,100,40
76.06109,76.180885,64,100,40
76.18609,76.305885,62,100,40
76.31109,76.430885,65,100,40
76.43609,76.555885,57,100,40
76.56109,76.680885,64,100,40
76.68609,76.805885,62,100,40
76.81109,76.930885,65,100,40
76.93609,77.055885,64,100,40
77.06109,77.180885,67,100,40
77.18609,77.305885,57,100,40
77.31109,77.430885,65,100,40
77.43609,77.555885,64,100,40
77.56109,77.680885,67,100,40
77.68609,77.805885,65,100,40
77.81109,77.930885,69,100,40
77.93609,78.055885,58,100,40
78.06109,78.180885,67,100,40
78.18609,78.305885,66,100,40
78.31109,78.430885,69,100,40
78.43609,78.555885,67,100,40
78.56109,78.680885,70,100,40
78.68609,78.805885,61,100,40
78.81109,78.930885,70,100,40
78.93609,79.055885,69,100,40
79.06109,79.180885,67,100,40
79.18609,79.305885,65,100,40
79.31109,79.430885,64,100,40
79.43609,79.555885,65,100,40
79.56109,79.680885,62,100,40
79.68609,79.805885,65,100,40
79.81109,79.930885,69,100,40
79.93609,80.055885,74,100,40
80.06109,80.180885,77,100,40
80.18609,80.31109,81,100,40
80.31653,80.44153,77,100,40
80.44696,80.577644,69,100,40
80.44696,80.577644,69,100,40
80.71969,81.013435,73,100,40
80.71969,81.013435,67,100,40
80.71969,81.013435,57,100,40
81.019684,81.91344,74,100,40
81.019684,81.91344,66,100,40
81.019684,81.91344,62,100,40
81.919685,82.06344,62,100,40
82.06969,82.20659,57,100,40
82.21255,82.34322,62,100,40
82.34891,82.47391,66,100,40
82.47934,82.59914,62,100,40
82.60434,82.72414,66,100,40
82.72934,82.84914,69,100,40
82.85434,82.97414,66,100,40
82.97934,83.09914,69,100,40
83.10434,83.22414,74,100,40
83.22934,83.34914,69,100,40
83.35434,83.47414,74,100,40
83.47934,83.59914,78,100,40
83.60434,83.72414,74,100,40
83.72934,83.84914,78,100,40
83.85434,83.97414,81,100,40
83.97934,84.09914,78,100,40
84.10434,84.22414,81,100,40
84.22934,84.34914,86,100,40
84.35434,84.47414,81,100,40
84.47934,84.59914,78,100,40
84.60434,84.72414,74,100,40
84.72934,84.84914,69,100,40
84.85434,84.97414,66,100,40
84.97934,85.09914,62,100,40
85.10434,85.22414,64,100,40
85.22934,85.34914,66,100,40
85.35434,85.47414,67,100,40
85.47934,85.59914,69,100,40
85.60434,85.72414,70,100,40
85.72934,85.84914,72,100,40
85.85434,85.97414,75,100,40
85.97934,86.09914,72,100,40
86.10434,86.22414,69,100,40
86.22934,86.34914,72,100,40
86.35434,86.47414,69,100,40
86.47934,86.59914,66,100,40
86.60434,86.72414,62,100,40
86.72934,86.84914,66,100,40
86.85434,86.97414,69,100,40
86.97934,87.09914,74,100,40
87.10434,87.22414,72,100,40
87.22934,87.34914,70,100,40
87.35434,87.47414,74,100,40
87.47934,87.59914,70,100,40
87.60434,87.72414,67,100,40
87.72934,87.84914,62,100,40
87.85434,87.97414,58,100,40
87.97934,88.09914,55,100,40
88.10434,88.22414,57,100,40
88.22934,88.34914,58,100,40
88.35434,88.47414,60,100,40
88.47934,88.59914,62,100,40
88.60434,88.72414,63,100,40
88.72934,88.84914,65,100,40
88.85434,88.97414,68,100,40
88.97934,89.09914,65,100,40
89.10434,89.22414,62,100,40
89.22934,89.34914,65,100,40
89.35434,89.47414,62,100,40
89.47934,89.59914,59,100,40
89.60434,89.72414,55,100,40
89.72934,89.84914,59,100,40
89.85434,89.97414,62,100,40
89.97934,90.09914,67,100,40
90.10434,90.22414,65,100,40
90.22934,90.34914,63,100,40
90.35434,90.47414,60,100,40
90.47934,90.59914,63,100,40
90.60434,90.72414,67,100,40
90.72934,90.84914,72,100,40
90.85434,90.97414,74,100,40
90.97934,91.09914,75,100,40
91.10434,91.22414,72,100,40
91.22934,91.34914,68,100,40
91.35434,91.47414,65,100,40
91.47934,91.59914,68,100,40
91.60434,91.72414,72,100,40
91.72934,91.84914,74,100,40
91.85434,91.97414,70,100,40
91.97934,92.09914,67,100,40
92.10434,92.22414,63,100,40
92.22934,92.34914,67,100,40
92.35434,92.47414,70,100,40
92.47934,92.59914,72,100,40
92.60434,92.72414,68,100,40
92.72934,92.84914,65,100,40
92.85434,92.97414,62,100,40
92.97934,93.09914,65,100,40
93.10434,93.22414,68,100,40
93.22934,93.34914,55,100,40
93.35434,93.47414,72,100,40
93.47934,93.59914,71,100,40
93.60434,93.72414,72,100,40
93.72934,93.84914,74,100,40
93.85434,93.97414,65,100,40
93.97934,94.09914,60,100,40
94.10434,94.22414,77,100,40
94.22934,94.34914,75,100,40
94.35434,94.47414,77,100,40
94.47934,94.59914,79,100,40
94.60434,94.72414,70,100,40
94.72934,94.84914,65,100,40
94.85434,94.97414,70,100,40
94.97934,95.09914,68,100,40
95.10434,95.22414,70,100,40
95.22934,95.34914,72,100,40
95.35434,95.47414,63,100,40
95.47934,95.59914,58,100,40
95.60434,95.72414,75,100,40
95.72934,95.84914,74,100,40
95.85434,95.97414,75,100,40
95.97934,96.09914,77,100,40
96.10434,96.22414,68,100,40
96.22934,96.34914,63,100,40
96.35434,96.47414,68,100,40
96.47934,96.59914,67,100,40
96.60434,96.72414,68,100,40
96.72934,96.84914,70,100,40
96.85434,96.97414,61,100,40
96.97934,97.09914,56,100,40
97.10434,97.22414,60,100,40
97.22934,97.34914,65,100,40
97.35434,97.47414,68,100,40
97.47934,97.59914,67,100,40
97.60434,97.72414,65,100,40
97.72934,97.84914,59,100,40
97.85434,97.97414,62,100,40
97.97934,98.09914,65,100,40
98.10434,98.22414,68,100,40
98.22934,98.34914,67,100,40
98.35434,98.47414,65,100,40
98.47934,98.59914,60,100,40
98.60434,98.72414,64,100,40
98.72934,98.84914,65,100,40
98.85434,98.97414,68,100,40
98.97934,99.09914,67,100,40
99.10434,99.22414,65,100,40
99.22934,99.34914,62,100,40
99.35434,99.47414,65,100,40
99.47934,99.59914,71,100,40
99.60434,99.72414,72,100,40
99.72934,99.84914,74,100,40
99.85434,99.97414,65,100,40
99.97934,100.09914,63,100,40
100.10434,100.22414,67,100,40
100.22934,100.34914,72,100,40
100.35434,100.47414,74,100,40
100.47934,100.59914,75,100,40
100.60434,100.72414,72,100,40
100.72934,100.84914,80,100,40
100.85434,100.97414,79,100,40
100.97934,101.09914,77,100,40
101.10434,101.22414,75,100,40
101.22934,101.34914,74,100,40
101.35434,101.47414,72,100,40
101.47934,101.59914,79,100,40
101.60434,101.72414,74,100,40
101.72934,101.84914,75,100,40
101.85434,101.97414,72,100,40
101.97934,102.09914,67,100,40
102.10434,102.22414,71,100,40
102.22934,102.34914,60,100,40
102.35434,102.47414,65,100,40
102.47934,102.59914,63,100,40
102.60434,102.72414,62,100,40
102.72934,102.84914,60,100,40
102.85434,102.97414,58,100,40
102.97934,103.09914,57,100,40
103.10434,103.22414,60,100,40
103.22934,103.34914,65,100,40
103.35434,103.47414,60,100,40
103.47934,103.59914,65,100,40
103.60434,103.72414,69,100,40
103.72934,103.84914,65,100,40
103.85434,103.97414,69,100,40
103.97934,104.09914,72,100,40
104.10434,104.22414,69,100,40
104.22934,104.34914,72,100,40
104.35434,104.47414,75,100,40
104.47934,104.59914,72,100,40
104.60434,104.72414,75,100,40
104.72934,104.84914,81,100,40
104.85434,104.97414,79,100,40
104.97934,105.09914,77,100,40
105.10434,105.22414,75,100,40
105.22934,105.34914,74,100,40
105.35434,105.47414,72,100,40
105.47934,105.59914,70,100,40
105.60434,105.72414,72,100,40
105.72934,105.84914,74,100,40
105.85434,105.97414,76,100,40
105.97934,106.09914,78,100,40
106.10434,106.22414,81,100,40
106.22934,106.34914,84,100,40
106.35434,106.47414,81,100,40
106.47934,106.59914,78,100,40
106.60434,106.72414,81,100,40
106.72934,106.84914,78,100,40
106.85434,106.97414,72,100,40
106.97934,107.09914,78,100,40
107.10434,107.22414,72,100,40
107.22934,107.34914,69,100,40
107.35434,107.47414,72,100,40
107.47934,107.59914,69,100,40
107.60434,107.72414,66,100,40
107.72934,107.84914,69,100,40
107.85434,107.97414,66,100,40
107.97934,108.09914,62,100,40
108.10434,108.22414,72,100,40
108.22934,108.34914,70,100,40
108.35434,108.47414,67,100,40
108.47934,108.59914,70,100,40
108.60434,108.72414,67,100,40
108.72934,108.84914,64,100,40
108.85434,108.97414,74,100,40
108.97934,109.09914,72,100,40
109.10434,109.22414,69,100,40
109.22934,109.34914,72,100,40
109.35434,109.47414,69,100,40
109.47934,109.59914,66,100,40
109.60434,109.72414,75,100,40
109.72934,109.84914,74,100,40
109.85434,109.97414,70,100,40
109.97934,110.09914,74,100,40
110.10434,110.22414,70,100,40
110.22934,110.34914,67,100,40
110.35434,110.47414,77,100,40
110.47934,110.59914,75,100,40
110.60434,110.72414,72,100,40
110.72934,110.84914,75,100,40
110.85434,110.97414,72,100,40
110.97934,111.09914,69,100,40
111.10434,111.22414,79,100,40
111.22934,111.34914,78,100,40
111.35434,111.47414,74,100,40
111.47934,111.59914,76,100,40
111.60434,111.72414,78,100,40
111.72934,111.84914,79,100,40
111.85434,111.97414,81,100,40
111.97934,112.09914,82,100,40
112.10434,112.22414,74,100,40
112.22934,112.34914,79,100,40
112.35434,112.47414,82,100,40
112.47934,112.59914,72,100,40
112.60434,112.72414,75,100,40
112.72934,112.84914,81,100,40
112.85434,112.97414,77,100,40
112.97934,113.09914,74,100,40
113.10434,113.22414,70,100,40
113.22934,113.34914,74,100,40
113.35434,113.47414,77,100,40
113.47934,113.59914,79,100,40
113.60434,113.72414,70,100,40
113.72934,113.84914,75,100,40
113.85434,113.97414,79,100,40
113.97934,114.09914,69,100,40
114.10434,114.22414,72,100,40
114.22934,114.34914,77,100,40
114.35434,114.47414,74,100,40
114.47934,114.59914,70,100,40
114.60434,114.72414,67,100,40
114.72934,114.84914,70,100,40
114.85434,114.97414,74,100,40
114.97934,115.09914,75,100,40
115.10434,115.22414,67,100,40
115.22934,115.34914,72,100,40
115.35434,115.47414,75,100,40
115.47934,115.59914,65,100,40
115.60434,115.72414,69,100,40
115.72934,115.84914,74,100,40
115.85434,115.97414,70,100,40
115.97934,116.09914,67,100,40
116.10434,116.22414,64,100,40
116.22934,116.34914,67,100,40
116.35434,116.47414,70,100,40
116.47934,116.59914,72,100,40
116.60434,116.72414,69,100,40
116.72934,116.84914,70,100,40
116.85434,116.97414,67,100,40
116.97934,117.09914,66,100,40
117.10434,117.22414,69,100,40
117.22934,117.34914,62,100,40
117.35434,117.47414,64,100,40
117.47934,117.59914,66,100,40
117.60434,117.72414,67,100,40
117.72934,117.84914,69,100,40
117.85434,117.97414,70,100,40
117.97934,118.09914,72,100,40
118.10434,118.22414,75,100,40
118.22934,118.34914,74,100,40
118.35434,118.47414,79,100,40
118.47934,118.59914,78,100,40
118.60434,118.72414,82,100,40
118.72934,118.84914,81,100,40
118.85434,118.97414,79,100,40
118.97934,119.09914,78,100,40
119.10434,119.22414,76,100,40
119.22934,119.34914,74,100,40
119.35434,119.47414,72,100,40
119.47934,119.59914,70,100,40
119.60434,119.72414,75,100,40
119.72934,119.84914,74,100,40
119.85434,119.97414,70,100,40
119.97934,120.09914,72,100,40
120.10434,120.22414,69,100,40
120.22934,120.34914,65,100,40
120.35434,120.47414,74,100,40
120.47934,120.59914,72,100,40
120.60434,120.72414,69,100,40
120.72934,120.84914,70,100,40
120.85434,120.97414,67,100,40
120.97934,121.09914,63,100,40
121.10434,121.22414,72,100,40
121.22934,121.34914,70,100,40
121.35434,121.47414,67,100,40
121.47934,121.59914,69,100,40
121.60434,121.72414,66,100,40
121.72934,121.84914,62,100,40
121.85434,121.97414,70,100,40
121.97934,122.09914,69,100,40
122.10434,122.22414,66,100,40
122.22934,122.34914,67,100,40
122.35434,122.47414,63,100,40
122.47934,122.59914,60,100,40
122.60434,122.72414,69,100,40
122.72934,122.84914,67,100,40
122.85434,122.97414,64,100,40
122.97934,123.09914,66,100,40
123.10434,123.22414,62,100,40
123.22934,123.34914,58,100,40
123.35434,123.47414,74,100,40
123.47934,123.59914,72,100,40
123.60434,123.72414,70,100,40
123.72934,123.84914,69,100,40
123.85434,123.97414,67,100,40
123.97934,124.09914,75,100,40
124.10434,124.22414,74,100,40
124.22934,124.34914,72,100,40
124.35434,124.47414,82,100,40
124.47934,124.59914,81,100,40
124.60434,124.72414,79,100,40
124.72934,124.84914,78,100,40
124.85434,124.97414,79,100,40
124.97934,125.09914,81,100,40
125.10434,125.22414,74,100,40
125.22934,125.34914,75,100,40
125.35434,125.47414,72,100,40
125.47934,125.59914,65,100,40
125.60434,125.72414,71,100,40
125.72934,125.84914,74,100,40
125.85434,125.97414,68,100,40
125.97934,126.09914,67,100,40
126.10434,126.22414,65,100,40
126.22934,126.34914,64,100,40
126.35434,126.47414,67,100,40
126.47934,126.59914,72,100,40
126.60434,126.72414,76,100,40
126.72934,126.84914,79,100,40
126.85434,126.97414,70,100,40
126.97934,127.09914,63,100,40
127.10434,127.22414,69,100,40
127.22934,127.34914,72,100,40
127.35434,127.47414,67,100,40
127.47934,127.59914,65,100,40
127.60434,127.72414,63,100,40
127.72934,127.84914,62,100,40
127.85434,127.97414,65,100,40
127.97934,128.09914,70,100,40
128.10434,128.22414,74,100,40
128.22934,128.34914,77,100,40
128.35434,128.47414,68,100,40
128.47934,128.59914,67,100,40
128.60434,128.72414,75,100,40
128.72934,128.84914,70,100,40
128.85434,128.97414,67,100,40
128.97934,129.09914,63,100,40
129.10434,129.22414,62,100,40
129.22934,129.34914,60,100,40
129.35434,129.47414,75,100,40
129.47934,129.59914,72,100,40
129.60434,129.72414,70,100,40
129.72934,129.84914,69,100,40
129.85434,129.97414,67,100,40
129.97934,130.09914,66,100,40
130.10434,130.22414,74,100,40
130.22934,130.34914,69,100,40
130.35434,130.47414,66,100,40
130.47934,130.59914,62,100,40
130.60434,130.72414,60,100,40
130.72934,130.84914,58,100,40
130.85434,130.97414,74,100,40
130.97934,131.09914,70,100,40
131.10434,131.22414,69,100,40
131.22934,131.34914,67,100,40
131.35434,131.47414,65,100,40
131.47934,131.59914,64,100,40
131.60434,131.72414,60,100,40
131.72934,131.84914,67,100,40
131.85434,131.97414,58,100,40
131.97934,132.09914,57,100,40
132.10434,132.22414,67,100,40
132.22934,132.34914,66,100,40
132.35434,132.47414,62,100,40
132.47934,132.59914,69,100,40
132.60434,132.72414,60,100,40
132.72934,132.84914,58,100,40
132.85434,132.97414,69,100,40
132.97934,133.09914,67,100,40
133.10434,133.22414,63,100,40
133.22934,133.34914,70,100,40
133.35434,133.47414,62,100,40
133.47934,133.59914,60,100,40
133.60434,133.72414,70,100,40
133.72934,133.84914,69,100,40
133.85434,133.97414,65,100,40
133.97934,134.09914,72,100,40
134.10434,134.22414,63,100,40
134.22934,134.34914,62,100,40
134.35434,134.47414,72,100,40
134.47934,134.59914,70,100,40
134.60434,134.72414,67,100,40
134.72934,134.84914,74,100,40
134.85434,134.97414,65,100,40
134.97934,135.09914,64,100,40
135.10434,135.22414,74,100,40
135.22934,135.34914,72,100,40
135.35434,135.47414,69,100,40
135.47934,135.59914,75,100,40
135.60434,135.72414,67,100,40
135.72934,135.84914,66,100,40
135.85434,135.97414,75,100,40
135.97934,136.10434,74,100,40
136.10977,136.23477,70,100,40
136.24022,136.36522,79,100,40
136.37065,136.49565,70,100,40
136.50108,136.62608,69,100,40
136.63152,136.75652,72,100,40
136.76195,136.88695,70,100,40
136.89238,137.01738,67,100,40
137.02283,137.1535,66,100,40
137.15918,137.28987,69,100,40
137.29555,137.43245,62,100,40
137.4384,137.5753,60,100,40
137.58127,137.71817,58,100,40
137.72412,137.86102,67,100,40
137.86697,137.99765,66,100,40
138.00334,138.12834,69,100,40
138.13377,138.25357,67,100,40
138.25877,138.37857,70,100,40
138.38377,138.50357,60,100,40
138.50877,138.62857,69,100,40
138.63377,138.75357,67,100,40
138.75877,138.87857,70,100,40
138.88377,139.00357,69,100,40
139.00877,139.12857,72,100,40
139.13377,139.25357,62,100,40
139.25877,139.37857,70,100,40
139.38377,139.50357,69,100,40
139.50877,139.62857,72,100,40
139.63377,139.75357,70,100,40
139.75877,139.87857,74,100,40
139.88377,140.00357,63,100,40
140.00877,140.12857,72,100,40
140.13377,140.25357,71,100,40
140.25877,140.37857,74,100,40
140.38377,140.50357,72,100,40
140.50877,140.62857,75,100,40
140.63377,140.75357,66,100,40
140.75877,140.87857,75,100,40
140.88377,141.00357,74,100,40
141.00877,141.12857,72,100,40
141.13377,141.25357,70,100,40
141.25877,141.37857,69,100,40
141.38377,141.50357,70,100,40
141.50877,141.62857,74,100,40
141.63377,141.75357,79,100,40
141.75877,141.87857,82,100,40
141.88377,142.00877,79,100,40
142.0142,142.1392,74,100,40
142.14464,142.26964,70,100,40
142.27507,142.40007,67,100,40
142.40552,142.67256,62,100,40
142.67824,142.95801,78,100,40
142.67824,142.95801,72,100,40
142.67824,142.95801,62,100,40
142.96396,143.8577,79,100,40
142.96396,143.8577,70,100,40
142.96396,143.8577,62,100,40
142.96396,143.8577,55,100,40
143.86395,144.0077,62,100,40
144.01395,144.14464,57,100,40
144.15031,144.27531,62,100,40
144.28075,144.40054,66,100,40
144.40575,144.52554,62,100,40
144.53075,144.65054,66,100,40
144.65575,144.77554,69,100,40
144.78075,144.90054,66,100,40
144.90575,145.02554,69,100,40
145.03075,145.15054,74,100,40
145.15575,145.27554,69,100,40
145.28075,145.40054,74,100,40
145.40575,145.52554,78,100,40
145.53075,145.65054,74,100,40
145.65575,145.77554,78,100,40
145.78075,145.90054,81,100,40
145.90575,146.02554,78,100,40
146.03075,146.15054,81,100,40
146.15575,146.27554,86,100,40
146.28075,146.40054,81,100,40
146.40575,146.52554,78,100,40
146.53075,146.65054,74,100,40
146.65575,146.77554,69,100,40
146.78075,146.90054,66,100,40
146.90575,147.02554,62,100,40
147.03075,147.15054,64,100,40
147.15575,147.27554,66,100,40
147.28075,147.40054,67,100,40
147.40575,147.52554,69,100,40
147.53075,147.65054,70,100,40
147.65575,147.77554,72,100,40
147.78075,147.90054,75,100,40
147.90575,148.02554,72,100,40
148.03075,148.15054,69,100,40
148.15575,148.27554,72,100,40
148.28075,148.40054,69,100,40
148.40575,148.52554,66,100,40
148.53075,148.65054,62,100,40
148.65575,148.77554,66,100,40
148.78075,148.90054,69,100,40
148.90575,149.02554,74,100,40
149.03075,149.15054,72,100,40
149.15575,149.27554,70,100,40
149.28075,149.40054,74,100,40
149.40575,149.52554,70,100,40
149.53075,149.65054,67,100,40
149.65575,149.77554,62,100,40
149.78075,149.90054,58,100,40
149.90575,150.02554,55,100,40
150.03075,150.15054,57,100,40
150.15575,150.27554,58,100,40
150.28075,150.40054,60,100,40
150.40575,150.52554,62,100,40
150.53075,150.65054,63,100,40
150.65575,150.77554,65,100,40
150.78075,150.90054,68,100,40
150.90575,151.02554,65,100,40
151.03075,151.15054,62,100,40
151.15575,151.27554,65,100,40
151.28075,151.40054,62,100,40
151.40575,151.52554,59,100,40
151.53075,151.65054,55,100,40
151.65575,151.77554,59,100,40
151.78075,151.90054,62,100,40
151.90575,152.02554,67,100,40
152.03075,152.15054,65,100,40
152.15575,152.27554,63,100,40
152.28075,152.40054,60,100,40
152.40575,152.52554,63,100,40
152.53075,152.65054,67,100,40
152.65575,152.77554,72,100,40
152.78075,152.90054,74,100,40
152.90575,153.02554,75,100,40
153.03075,153.15054,72,100,40
153.15575,153.27554,68,100,40
153.28075,153.40054,65,100,40
153.40575,153.52554,68,100,40
153.53075,153.65054,72,100,40
153.65575,153.77554,74,100,40
153.78075,153.90054,70,100,40
153.90575,154.02554,67,100,40
154.03075,154.15054,63,100,40
154.15575,154.27554,67,100,40
154.28075,154.40054,70,100,40
154.40575,154.52554,72,100,40
154.53075,154.65054,68,100,40
154.65575,154.77554,65,100,40
154.78075,154.90054,62,100,40
154.90575,155.02554,65,100,40
155.03075,155.15054,68,100,40
155.15575,155.27554,55,100,40
155.28075,155.40054,72,100,40
155.40575,155.52554,71,100,40
155.53075,155.65054,72,100,40
155.65575,155.77554,74,100,40
155.78075,155.90054,65,100,40
155.90575,156.02554,60,100,40
156.03075,156.15054,77,100,40
156.15575,156.27554,75,100,40
156.28075,156.40054,77,100,40
156.40575,156.52554,79,100,40
156.53075,156.65054,70,100,40
156.65575,156.77554,65,100,40
156.78075,156.90054,70,100,40
156.90575,157.02554,68,100,40
157.03075,157.15054,70,100,40
157.15575,157.27554,72,100,40
157.28075,157.40054,63,100,40
157.40575,157.52554,58,100,40
157.53075,157.65054,75,100,40
157.65575,157.77554,74,100,40
157.78075,157.90054,75,100,40
157.90575,158.02554,77,100,40
158.03075,158.15054,68,100,40
158.15575,158.27554,63,100,40
158.28075,158.40054,68,100,40
158.40575,158.52554,67,100,40
158.53075,158.65054,68,100,40
158.65575,158.77554,70,100,40
158.78075,158.90054,61,100,40
158.90575,159.02554,56,100,40
159.03075,159.15054,60,100,40
159.15575,159.27554,65,100,40
159.28075,159.40054,68,100,40
159.40575,159.52554,67,100,40
159.53075,159.65054,65,100,40
159.65575,159.77554,59,100,40
159.78075,159.90054,62,100,40
159.90575,160.02554,65,100,40
160.03075,160.15054,68,100,40
160.15575,160.27554,67,100,40
160.28075,160.40054,65,100,40
160.40575,160.52554,60,100,40
160.53075,160.65054,64,100,40
160.65575,160.77554,65,100,40
160.78075,160.90054,68,100,40
160.90575,161.02554,67,100,40
161.03075,161.15054,65,100,40
161.15575,161.27554,62,100,40
161.28075,161.40054,65,100,40
161.40575,161.52554,71,100,40
161.53075,161.65054,72,100,40
161.65575,161.77554,74,100,40
161.78075,161.90054,65,100,40
161.90575,162.02554,63,100,40
162.03075,162.15054,67,100,40
162.15575,162.27554,72,100,40
162.28075,162.40054,74,100,40
162.40575,162.52554,75,100,40
162.53075,162.65054,72,100,40
162.65575,162.77554,80,100,40
162.78075,162.90054,79,100,40
162.90575,163.02554,77,100,40
163.03075,163.15054,75,100,40
163.15575,163.27554,74,100,40
163.28075,163.40054,72,100,40
163.40575,163.52554,79,100,40
163.53075,163.65054,74,100,40
163.65575,163.77554,75,100,40
163.78075,163.90054,72,100,40
163.90575,164.02554,67,100,40
164.03075,164.15054,71,100,40
164.15575,164.27554,60,100,40
164.28075,164.40054,65,100,40
164.40575,164.52554,63,100,40
164.53075,164.65054,62,100,40
164.65575,164.77554,60,100,40
164.78075,164.90054,58,100,40
164.90575,165.02554,57,100,40
165.03075,165.15054,60,100,40
165.15575,165.27554,65,100,40
165.28075,165.40054,60,100,40
165.40575,165.52554,65,100,40
165.53075,165.65054,69,100,40
165.65575,165.77554,65,100,40
165.78075,165.90054,69,100,40
165.90575,166.02554,72,100,40
166.03075,166.15054,69,100,40
166.15575,166.27554,72,100,40
166.28075,166.40054,75,100,40
166.40575,166.52554,72,100,40
166.53075,166.65054,75,100,40
166.65575,166.77554,81,100,40
166.78075,166.90054,79,100,40
166.90575,167.02554,77,100,40
167.03075,167.15054,75,100,40
167.15575,167.27554,74,100,40
167.28075,167.40054,72,100,40
167.40575,167.52554,70,100,40
167.53075,167.65054,72,100,40
167.65575,167.77554,74,100,40
167.78075,167.90054,76,100,40
167.90575,168.02554,78,100,40
168.03075,168.15054,81,100,40
168.15575,168.27554,84,100,40
168.28075,168.40054,81,100,40
168.40575,168.52554,78,100,40
168.53075,168.65054,81,100,40
168.65575,168.77554,78,100,40
168.78075,168.90054,72,100,40
168.90575,169.02554,78,100,40
169.03075,169.15054,72,100,40
169.15575,169.27554,69,100,40
169.28075,169.40054,72,100,40
169.40575,169.52554,69,100,40
169.53075,169.65054,66,100,40
169.65575,169.77554,69,100,40
169.78075,169.90054,66,100,40
169.90575,170.02554,62,100,40
170.03075,170.15054,72,100,40
170.15575,170.27554,70,100,40
170.28075,170.40054,67,100,40
170.40575,170.52554,70,100,40
170.53075,170.65054,67,100,40
170.65575,170.77554,64,100,40
170.78075,170.90054,74,100,40
170.90575,171.02554,72,100,40
171.03075,171.15054,69,100,40
171.15575,171.27554,72,100,40
171.28075,171.40054,69,100,40
171.40575,171.52554,66,100,40
171.53075,171.65054,75,100,40
171.65575,171.77554,74,100,40
171.78075,171.90054,70,100,40
171.90575,172.02554,74,100,40
172.03075,172.15054,70,100,40
172.15575,172.27554,67,100,40
172.28075,172.40054,77,100,40
172.40575,172.52554,75,100,40
172.53075,172.65054,72,100,40
172.65575,172.77554,75,100,40
172.78075,172.90054,72,100,40
172.90575,173.02554,69,100,40
173.03075,173.15054,79,100,40
173.15575,173.27554,78,100,40
173.28075,173.40054,74,100,40
173.40575,173.52554,76,100,40
173.53075,173.65054,78,100,40
173.65575,173.77554,79,100,40
173.78075,173.90054,81,100,40
173.90575,174.02554,82,100,40
174.03075,174.15054,74,100,40
174.15575,174.27554,79,100,40
174.28075,174.40054,82,100,40
174.40575,174.52554,72,100,40
174.53075,174.65054,75,100,40
174.65575,174.77554,81,100,40
174.78075,174.90054,77,100,40
174.90575,175.02554,74,100,40
175.03075,175.15054,70,100,40
175.15575,175.27554,74,100,40
175.28075,175.40054,77,100,40
175.40575,175.52554,79,100,40
175.53075,175.65054,70,100,40
175.65575,175.77554,75,100,40
175.78075,175.90054,79,100,40
175.90575,176.02554,69,100,40
176.03075,176.15054,72,100,40
176.15575,176.27554,77,100,40
176.28075,176.40054,74,100,40
176.40575,176.52554,70,100,40
176.53075,176.65054,67,100,40
176.65575,176.77554,70,100,40
176.78075,176.90054,74,100,40
176.90575,177.02554,75,100,40
177.03075,177.15054,67,100,40
177.15575,177.27554,72,100,40
177.28075,177.40054,75,100,40
177.40575,177.52554,65,100,40
177.53075,177.65054,69,100,40
177.65575,177.77554,74,100,40
177.78075,177.90054,70,100,40
177.90575,178.02554,67,100,40
178.03075,178.15054,64,100,40
178.15575,178.27554,67,100,40
178.28075,178.40054,70,100,40
178.40575,178.52554,72,100,40
178.53075,178.65054,69,100,40
178.65575,178.77554,70,100,40
178.78075,178.90054,67,100,40
178.90575,179.02554,66,100,40
179.03075,179.15054,69,100,40
179.15575,179.27554,62,100,40
179.28075,179.40054,64,100,40
179.40575,179.52554,66,100,40
179.53075,179.65054,67,100,40
179.65575,179.77554,69,100,40
179.78075,179.90054,70,100,40
179.90575,180.02554,72,100,40
180.03075,180.15054,75,100,40
180.15575,180.27554,74,100,40
180.28075,180.40054,79,100,40
180.40575,180.52554,78,100,40
180.53075,180.65054,82,100,40
180.65575,180.77554,81,100,40
180.78075,180.90054,79,100,40
180.90575,181.02554,78,100,40
181.03075,181.15054,76,100,40
181.15575,181.27554,74,100,40
181.28075,181.40054,72,100,40
181.40575,181.52554,70,100,40
181.53075,181.65054,75,100,40
181.65575,181.77554,74,100,40
181.78075,181.90054,70,100,40
181.90575,182.02554,72,100,40
182.03075,182.15054,69,100,40
182.15575,182.27554,65,100,40
182.28075,182.40054,74,100,40
182.40575,182.52554,72,100,40
182.53075,182.65054,69,100,40
182.65575,182.77554,70,100,40
182.78075,182.90054,67,100,40
182.90575,183.02554,63,100,40
183.03075,183.15054,72,100,40
183.15575,183.27554,70,100,40
183.28075,183.40054,67,100,40
183.40575,183.52554,69,100,40
183.53075,183.65054,66,100,40
183.65575,183.77554,62,100,40
183.78075,183.90054,70,100,40
183.90575,184.02554,69,100,40
184.03075,184.15054,66,100,40
184.15575,184.27554,67,100,40
184.28075,184.40054,63,100,40
184.40575,184.52554,60,100,40
184.53075,184.65054,69,100,40
184.65575,184.77554,67,100,40
184.78075,184.90054,64,100,40
184.90575,185.02554,66,100,40
185.03075,185.15054,62,100,40
185.15575,185.27554,58,100,40
185.28075,185.40054,74,100,40
185.40575,185.52554,72,100,40
185.53075,185.65054,70,100,40
185.65575,185.77554,69,100,40
185.78075,185.90054,67,100,40
185.90575,186.02554,75,100,40
186.03075,186.15054,74,100,40
186.15575,186.27554,72,100,40
186.28075,186.40054,82,100,40
186.40575,186.52554,81,100,40
186.53075,186.65054,79,100,40
186.65575,186.77554,78,100,40
186.78075,186.90054,79,100,40
186.90575,187.02554,81,100,40
187.03075,187.15054,74,100,40
187.15575,187.27554,75,100,40
187.28075,187.40054,72,100,40
187.40575,187.52554,65,100,40
187.53075,187.65054,71,100,40
187.65575,187.77554,74,100,40
187.78075,187.90054,68,100,40
187.90575,188.02554,67,100,40
188.03075,188.15054,65,100,40
188.15575,188.27554,64,100,40
188.28075,188.40054,67,100,40
188.40575,188.52554,72,100,40
188.53075,188.65054,76,100,40
188.65575,188.77554,79,100,40
188.78075,188.90054,70,100,40
188.90575,189.02554,63,100,40
189.03075,189.15054,69,100,40
189.15575,189.27554,72,100,40
189.28075,189.40054,67,100,40
189.40575,189.52554,65,100,40
189.53075,189.65054,63,100,40
189.65575,189.77554,62,100,40
189.78075,189.90054,65,100,40
189.90575,190.02554,70,100,40
190.03075,190.15054,74,100,40
190.15575,190.27554,77,100,40
190.28075,190.40054,68,100,40
190.40575,190.52554,67,100,40
190.53075,190.65054,75,100,40
190.65575,190.77554,70,100,40
190.78075,190.90054,67,100,40
190.90575,191.02554,63,100,40
191.03075,191.15054,62,100,40
191.15575,191.27554,60,100,40
191.28075,191.40054,75,100,40
191.40575,191.52554,72,100,40
191.53075,191.65054,70,100,40
191.65575,191.77554,69,100,40
191.78075,191.90054,67,100,40
191.90575,192.02554,66,100,40
192.03075,192.15054,74,100,40
192.15575,192.27554,69,100,40
192.28075,192.40054,66,100,40
192.40575,192.52554,62,100,40
192.53075,192.65054,60,100,40
192.65575,192.77554,58,100,40
192.78075,192.90054,74,100,40
192.90575,193.02554,70,100,40
193.03075,193.15054,69,100,40
193.15575,193.27554,67,100,40
193.28075,193.40054,65,100,40
193.40575,193.52554,64,100,40
193.53075,193.65054,60,100,40
193.65575,193.77554,67,100,40
193.78075,193.90054,58,100,40
193.90575,194.02554,57,100,40
194.03075,194.15054,67,100,40
194.15575,194.27554,66,100,40
194.28075,194.40054,62,100,40
194.40575,194.52554,69,100,40
194.53075,194.65054,60,100,40
194.65575,194.77554,58,100,40
194.78075,194.90054,69,100,40
194.90575,195.02554,67,100,40
195.03075,195.15054,63,100,40
195.15575,195.27554,70,100,40
195.28075,195.40054,62,100,40
195.40575,195.52554,60,100,40
195.53075,195.65054,70,100,40
195.65575,195.77554,69,100,40
195.78075,195.90054,65,100,40
195.90575,196.02554,72,100,40
196.03075,196.15054,63,100,40
196.15575,196.27554,62,100,40
196.28075,196.40054,72,100,40
196.40575,196.52554,70,100,40
196.53075,196.65054,67,100,40
196.65575,196.77554,74,100,40
196.78075,196.90054,65,100,40
196.90575,197.02554,64,100,40
197.03075,197.15054,74,100,40
197.15575,197.27554,72,100,40
197.28075,197.40054,69,100,40
197.40575,197.52554,75,100,40
197.53075,197.65054,67,100,40
197.65575,197.77554,66,100,40
197.78075,197.90054,75,100,40
197.90575,198.02554,74,100,40
198.03075,198.15054,70,100,40
198.15575,198.27554,79,100,40
198.28075,198.40054,70,100,40
198.40575,198.53075,69,100,40
198.5362,198.6612,72,100,40
198.66663,198.7973,70,100,40
198.80298,198.93367,67,100,40
198.93935,199.07002,66,100,40
199.07571,199.20639,69,100,40
199.21208,199.34898,62,100,40
199.35493,199.49184,60,100,40
199.49779,199.63469,58,100,40
199.64064,199.76564,67,100,40
199.77109,199.89087,66,100,40
199.89609,200.01587,69,100,40
200.02109,200.14087,67,100,40
200.14609,200.26587,70,100,40
200.27109,200.39087,60,100,40
200.39609,200.51587,69,100,40
200.52109,200.64087,67,100,40
200.64609,200.76587,70,100,40
200.77109,200.89087,69,100,40
200.89609,201.01587,72,100,40
201.02109,201.14087,62,100,40
201.14609,201.26587,70,100,40
201.27109,201.39087,69,100,40
201.39609,201.51587,72,100,40
201.52109,201.64087,70,100,40
201.64609,201.76587,74,100,40
201.77109,201.89087,63,100,40
201.89609,202.01587,72,100,40
202.02109,202.14087,71,100,40
202.14609,202.26587,74,100,40
202.27109,202.39087,72,100,40
202.39609,202.51587,75,100,40
202.52109,202.64087,66,100,40
202.64609,202.76587,75,100,40
202.77109,202.89087,74,100,40
202.89609,203.01587,72,100,40
203.02109,203.14087,70,100,40
203.14609,203.26587,69,100,40
203.27109,203.39609,70,100,40
203.40152,203.5322,74,100,40
203.53787,203.67479,79,100,40
203.68074,203.8245,82,100,40
203.83073,203.98206,79,100,40
203.98863,204.14835,74,100,40
204.1553,204.32442,70,100,40
204.33177,204.51146,67,100,40
204.51927,204.97119,62,100,40
204.9808,205.5683,78,100,40
204.9808,205.5683,72,100,40
204.9808,205.5683,62,100,40
205.58081,207.3683,79,100,40
205.58081,207.3683,70,100,40
205.58081,207.3683,62,100,40
205.58081,207.3683,55,100,40
209.1808,209.76831,67,1,40
