start_time,end_time,note_value,velocity,instrument_program_number
0.2777775,0.549768,78,100,40
0.555555,0.82754546,78,100,40
0.8333325,1.105323,78,100,40
1.11111,1.3831005,78,100,40
1.3888875,1.660878,78,100,40
1.666665,1.9386555,78,100,40
1.9444425,2.0833313,83,100,40
2.0833313,2.22222,82,100,40
2.22222,2.4942105,83,100,40
2.4999976,2.771988,78,100,40
2.777775,3.0497656,78,100,40
3.0555525,3.327543,78,100,40
3.33333,3.6053205,78,100,40
3.6111076,3.7499962,85,100,40
3.7499962,3.888885,83,100,40
3.888885,4.1608753,85,100,40
4.1666627,4.438653,78,100,40
4.44444,4.7164307,78,100,40
4.7222176,4.994208,78,100,40
4.999995,5.2719855,78,100,40
5.2777724,5.347217,86,100,40
5.347217,5.4166613,85,100,40
5.4166613,5.55555,83,100,40
5.55555,5.8275404,85,100,40
5.8333273,5.902772,85,100,40
5.902772,5.972216,83,100,40
5.972216,6.111105,81,100,40
6.111105,6.3830953,83,100,40
6.3888826,6.458327,83,100,40
6.458327,6.5277715,81,100,40
6.5277715,6.66666,80,100,40
6.66666,6.9386506,81,100,40
6.9444375,7.0833263,66,100,40
7.0833263,7.222215,68,100,40
7.222215,7.3611035,69,100,40
7.3611035,7.4999924,73,100,40
7.4999924,7.638881,78,100,40
7.638881,7.77777,73,100,40
7.77777,7.916659,69,100,40
7.916659,8.055548,73,100,40
8.055548,8.194436,68,100,40
8.194436,8.333325,73,100,40
8.333325,8.472214,69,100,40
8.472214,8.611102,68,100,40
8.611102,8.749991,66,100,40
8.749991,8.88888,68,100,40
8.88888,9.027769,69,100,40
9.027769,9.166657,73,100,40
9.166657,9.305546,78,100,40
9.305546,9.444435,73,100,40
9.444435,9.5833235,71,100,40
9.5833235,9.722213,69,100,40
9.722213,9.861101,68,100,40
9.861101,9.994203,66,100,40
9.99999,10.138879,65,100,40
10.138879,10.277767,63,100,40
10.277767,10.4166565,61,100,40
10.4166565,10.555545,63,100,40
10.555545,10.694434,65,100,40
10.694434,10.833323,66,100,40
10.833323,10.972211,68,100,40
10.972211,11.1111,69,100,40
11.1111,11.249989,71,100,40
11.249989,11.388878,69,100,40
11.388878,11.527766,71,100,40
11.527766,11.660868,68,100,40
11.666655,11.938645,69,100,40
11.944432,12.216423,66,100,40
12.777765,13.60531,71,100,40
13.611097,13.749987,73,100,40
13.749987,13.888875,71,100,40
13.888875,14.027763,74,100,40
14.027763,14.166653,73,100,40
14.166653,14.305541,71,100,40
14.305541,14.44443,69,100,40
14.44443,14.513874,68,100,40
14.513874,14.583319,69,100,40
14.583319,14.652763,68,100,40
14.652763,14.722207,69,100,40
14.722207,14.8553095,68,100,40
14.861096,14.994198,66,100,40
14.999985,15.138874,66,100,40
15.138874,15.277762,65,100,40
15.277762,15.416652,66,100,40
15.416652,15.55554,68,100,40
15.55554,15.694428,69,100,40
15.694428,15.833318,71,100,40
15.833318,15.972206,73,100,40
15.972206,16.111095,74,100,40
16.111095,16.249983,76,100,40
16.249983,16.388872,74,100,40
16.388872,16.527761,76,100,40
16.527761,16.660864,73,100,40
16.66665,16.805538,74,100,40
16.805538,16.944427,73,100,40
16.944427,17.083317,71,100,40
17.083317,17.222204,73,100,40
17.222204,17.361094,74,100,40
17.361094,17.499983,78,100,40
17.499983,17.638872,83,100,40
17.638872,17.77776,78,100,40
17.77776,17.916649,76,100,40
17.916649,18.055538,74,100,40
18.055538,18.194426,73,100,40
18.194426,18.327528,71,100,40
18.333315,18.472204,70,100,40
18.472204,18.611092,68,100,40
18.611092,18.74998,66,100,40
18.74998,18.88887,68,100,40
18.88887,19.02776,70,100,40
19.02776,19.166647,71,100,40
19.166647,19.305536,73,100,40
19.305536,19.444426,74,100,40
19.444426,19.583313,76,100,40
19.583313,19.722202,74,100,40
19.722202,19.861092,76,100,40
19.861092,19.994192,73,100,40
19.99998,20.27197,74,100,40
20.277758,20.827526,83,100,40
20.833313,21.38308,81,100,40
21.388868,21.660858,79,100,40
21.666645,21.938635,85,100,40
21.944422,22.49419,79,100,40
22.499977,23.049746,78,100,40
23.055532,23.327522,76,100,40
23.33331,23.6053,81,100,40
23.611088,24.160856,76,100,40
24.166643,24.71641,74,100,40
24.722197,24.994188,73,100,40
24.999975,25.138865,78,100,40
25.138865,25.277752,76,100,40
25.277752,25.416641,74,100,40
25.416641,25.55553,73,100,40
25.55553,25.694418,71,100,40
25.694418,25.833307,73,100,40
25.833307,25.972197,74,100,40
25.972197,26.111086,76,100,40
26.111086,26.383076,78,100,40
26.388863,26.660852,82,100,40
26.66664,26.938631,83,100,40
26.944418,27.216408,78,100,40
27.222195,27.494186,74,100,40
27.499973,27.771963,78,100,40
27.77775,27.847195,83,100,40
27.847195,27.91664,85,100,40
27.91664,27.986084,83,100,40
27.986084,28.055527,85,100,40
28.055527,28.194416,83,100,40
28.194416,28.26386,82,100,40
28.26386,28.333305,83,100,40
28.333305,28.472195,85,100,40
28.472195,28.611082,83,100,40
28.611082,28.749971,82,100,40
28.749971,28.88886,80,100,40
28.88886,29.027748,78,100,40
29.027748,29.166637,80,100,40
29.166637,29.305527,82,100,40
29.305527,29.444414,83,100,40
29.444414,29.583303,85,100,40
29.583303,29.722193,83,100,40
29.722193,29.861082,85,100,40
29.861082,29.994183,82,100,40
29.99997,30.271961,83,100,40
30.277748,30.827515,79,100,40
30.833303,31.38307,78,100,40
31.388857,31.799736,76,100,40
31.805523,31.944412,79,100,40
31.944412,32.0833,78,100,40
32.0833,32.22219,76,100,40
32.22219,32.36108,85,100,40
32.36108,32.499966,83,100,40
32.499966,32.638855,82,100,40
32.638855,32.777744,80,100,40
32.777744,32.916634,78,100,40
32.916634,33.055523,76,100,40
33.055523,33.194412,74,100,40
33.194412,33.327515,73,100,40
33.3333,33.472187,71,100,40
33.472187,33.611076,70,100,40
33.611076,33.749966,71,100,40
33.749966,33.883068,76,100,40
33.888855,33.95961,73,100,40
33.95961,34.030365,74,100,40
34.030365,34.10112,73,100,40
34.10112,34.171875,74,100,40
34.171875,34.24263,73,100,40
34.24263,34.31338,74,100,40
34.31338,34.384136,73,100,40
34.384136,34.45489,74,100,40
34.45489,34.732014,73,100,40
34.73791,35.015034,71,100,40
35.020927,35.58107,71,100,40
35.881084,36.027767,71,100,40
36.034145,36.18083,73,100,40
36.187206,36.346928,74,100,40
36.35387,36.513596,76,100,40
36.52054,36.576096,76,100,40
36.576096,36.63165,78,100,40
36.63165,36.687206,76,100,40
36.687206,36.77054,74,100,40
36.77054,36.85387,76,100,40
36.85387,38.68026,78,100,40
39.131645,39.403637,78,100,40
39.409424,39.681416,78,100,40
39.687202,39.959194,78,100,40
39.96498,40.23697,78,100,40
40.242756,40.514748,78,100,40
40.520535,40.792526,78,100,40
40.798313,40.937202,83,100,40
40.937202,41.076088,82,100,40
41.076088,41.34808,83,100,40
41.353867,41.62586,78,100,40
41.631645,41.903633,78,100,40
41.909424,42.18141,78,100,40
42.1872,42.45919,78,100,40
42.464977,42.603867,85,100,40
42.603867,42.742756,83,100,40
42.742756,43.014744,85,100,40
43.02053,43.292522,78,100,40
43.29831,43.5703,78,100,40
43.576088,43.848076,78,100,40
43.853863,44.125854,78,100,40
44.13164,44.201088,86,100,40
44.201088,44.27053,85,100,40
44.27053,44.40942,83,100,40
44.40942,44.68141,85,100,40
44.6872,44.75664,85,100,40
44.75664,44.826084,83,100,40
44.826084,44.964973,81,100,40
44.964973,45.236965,83,100,40
45.242752,45.312195,83,100,40
45.312195,45.38164,81,100,40
45.38164,45.52053,80,100,40
45.52053,45.79252,81,100,40
45.798306,45.937195,66,100,40
45.937195,46.076084,68,100,40
46.076084,46.214973,69,100,40
46.214973,46.353863,73,100,40
46.353863,46.492752,78,100,40
46.492752,46.63164,73,100,40
46.63164,46.770527,69,100,40
46.770527,46.909416,73,100,40
46.909416,47.048306,68,100,40
47.048306,47.187195,73,100,40
47.187195,47.326084,69,100,40
47.326084,47.464973,68,100,40
47.464973,47.60386,66,100,40
47.60386,47.74275,68,100,40
47.74275,47.881638,69,100,40
47.881638,48.020527,73,100,40
48.020527,48.159416,78,100,40
48.159416,48.298306,73,100,40
48.298306,48.437195,71,100,40
48.437195,48.57608,69,100,40
48.57608,48.71497,68,100,40
48.71497,48.848072,66,100,40
48.85386,48.99275,65,100,40
48.99275,49.131638,63,100,40
49.131638,49.270527,61,100,40
49.270527,49.409416,63,100,40
49.409416,49.5483,65,100,40
49.5483,49.68719,66,100,40
49.68719,49.82608,68,100,40
49.82608,49.96497,69,100,40
49.96497,50.10386,71,100,40
50.10386,50.24275,69,100,40
50.24275,50.381638,71,100,40
50.381638,50.514736,68,100,40
50.520523,50.792515,69,100,40
50.7983,51.070293,66,100,40
51.631634,52.45918,71,100,40
52.464966,52.603855,73,100,40
52.603855,52.742744,71,100,40
52.742744,52.881634,74,100,40
52.881634,53.020523,73,100,40
53.020523,53.159412,71,100,40
53.159412,53.298298,69,100,40
53.298298,53.367744,68,100,40
53.367744,53.437187,69,100,40
53.437187,53.506634,68,100,40
53.506634,53.576077,69,100,40
53.576077,53.70918,68,100,40
53.714966,53.84807,66,100,40
53.853855,53.992744,66,100,40
53.992744,54.131634,65,100,40
54.131634,54.27052,66,100,40
54.27052,54.40941,68,100,40
54.40941,54.548298,69,100,40
54.548298,54.687187,71,100,40
54.687187,54.826077,73,100,40
54.826077,54.964966,74,100,40
54.964966,55.103855,76,100,40
55.103855,55.24274,74,100,40
55.24274,55.38163,76,100,40
55.38163,55.514732,73,100,40
55.52052,55.65941,74,100,40
55.65941,55.798298,73,100,40
55.798298,55.937187,71,100,40
55.937187,56.076073,73,100,40
56.076073,56.214962,74,100,40
56.214962,56.35385,78,100,40
56.35385,56.49274,83,100,40
56.49274,56.63163,78,100,40
56.63163,56.77052,76,100,40
56.77052,56.90941,74,100,40
56.90941,57.048294,73,100,40
57.048294,57.181396,71,100,40
57.187183,57.326073,70,100,40
57.326073,57.464962,68,100,40
57.464962,57.60385,66,100,40
57.60385,57.74274,68,100,40
57.74274,57.88163,70,100,40
57.88163,58.020515,71,100,40
58.020515,58.159405,73,100,40
58.159405,58.298294,74,100,40
58.298294,58.437183,76,100,40
58.437183,58.576073,74,100,40
58.576073,58.714962,76,100,40
58.714962,58.84806,73,100,40
58.85385,59.12584,74,100,40
59.131626,59.681396,83,100,40
59.687183,60.23695,81,100,40
60.242737,60.51473,79,100,40
60.520515,60.792503,85,100,40
60.79829,61.34806,79,100,40
61.353848,61.903614,78,100,40
61.9094,62.181393,76,100,40
62.18718,62.45917,81,100,40
62.46496,63.014725,76,100,40
63.02051,63.57028,74,100,40
63.57607,63.848057,73,100,40
63.853844,63.992733,78,100,40
63.992733,64.13162,76,100,40
64.13162,64.27051,74,100,40
64.27051,64.4094,73,100,40
64.4094,64.54829,71,100,40
64.54829,64.68718,73,100,40
64.68718,64.826065,74,100,40
64.826065,64.96496,76,100,40
64.96496,65.236946,78,100,40
65.24273,65.514725,82,100,40
65.52051,65.7925,83,100,40
65.79829,66.070274,78,100,40
66.076065,66.34805,74,100,40
66.35384,66.62583,78,100,40
66.63162,66.701065,83,100,40
66.701065,66.77051,85,100,40
66.77051,66.83995,83,100,40
66.83995,66.90939,85,100,40
66.90939,67.04829,83,100,40
67.04829,67.11773,82,100,40
67.11773,67.18717,83,100,40
67.18717,67.326065,85,100,40
67.326065,67.46495,83,100,40
67.46495,67.60384,82,100,40
67.60384,67.74273,80,100,40
67.74273,67.881615,78,100,40
67.881615,68.02051,80,100,40
68.02051,68.15939,82,100,40
68.15939,68.29829,83,100,40
68.29829,68.43717,85,100,40
68.43717,68.576065,83,100,40
68.576065,68.71495,85,100,40
68.71495,68.84805,82,100,40
68.853836,69.12583,83,100,40
69.131615,69.68138,79,100,40
69.68717,70.23694,78,100,40
70.24273,70.6536,76,100,40
70.65939,70.79828,79,100,40
70.79828,70.93717,78,100,40
70.93717,71.07606,76,100,40
71.07606,71.21495,85,100,40
71.21495,71.353836,83,100,40
71.353836,71.49273,82,100,40
71.49273,71.631615,80,100,40
71.631615,71.7705,78,100,40
71.7705,71.90939,76,100,40
71.90939,72.04828,74,100,40
72.04828,72.18138,73,100,40
72.18717,72.32606,71,100,40
72.32606,72.46495,70,100,40
72.46495,72.603836,71,100,40
72.603836,72.73694,76,100,40
72.74272,72.81348,73,100,40
72.81348,72.88423,74,100,40
72.88423,72.95499,73,100,40
72.95499,73.02574,74,100,40
73.02574,73.0965,73,100,40
73.0965,73.16725,74,100,40
73.16725,73.23801,73,100,40
73.23801,73.30876,74,100,40
73.30876,73.585884,73,100,40
73.59178,73.868904,71,100,40
73.8748,74.43494,71,100,40
74.729294,74.87305,71,100,40
74.879295,75.02305,73,100,40
75.0293,75.18222,74,100,40
75.18887,75.3418,76,100,40
75.34844,75.405266,76,100,40
75.405266,75.46208,78,100,40
75.46208,75.5189,76,100,40
75.5189,75.604126,74,100,40
75.604126,75.689354,76,100,40
75.689354,77.55725,78,100,40
78.01259,78.28458,81,100,40
78.29037,78.562355,81,100,40
78.56814,78.84013,81,100,40
78.84592,79.11791,81,100,40
79.123695,79.39568,81,100,40
79.401474,79.67346,81,100,40
79.67925,79.812355,84,100,40
79.81814,79.95124,83,100,40
79.95703,80.22902,81,100,40
80.2348,80.5068,81,100,40
80.51258,80.78458,81,100,40
80.79036,81.062355,81,100,40
81.06814,81.340126,81,100,40
81.34592,81.47902,78,100,40
81.4848,81.617905,79,100,40
81.623695,81.89568,81,100,40
81.901474,82.03458,79,100,40
82.04036,82.17346,81,100,40
82.179245,82.45124,83,100,40
82.45702,82.72902,78,100,40
82.7348,82.873695,79,100,40
82.873695,83.01258,78,100,40
83.01258,83.15147,76,100,40
83.15147,83.29036,78,100,40
83.29036,83.429245,79,100,40
83.429245,83.56814,81,100,40
83.56814,83.70702,83,100,40
83.70702,83.84592,81,100,40
83.84592,83.9848,79,100,40
83.9848,84.12369,83,100,40
84.12369,84.26258,78,100,40
84.26258,84.39568,83,100,40
84.40147,84.54036,76,100,40
84.54036,84.679245,74,100,40
84.679245,84.81814,73,100,40
84.81814,84.95702,74,100,40
84.95702,85.09591,76,100,40
85.09591,85.2348,78,100,40
85.2348,85.37369,79,100,40
85.37369,85.51258,78,100,40
85.51258,85.65147,76,100,40
85.65147,85.79036,79,100,40
85.79036,85.929245,74,100,40
85.929245,86.06235,79,100,40
86.06813,86.20702,73,100,40
86.20702,86.34591,74,100,40
86.34591,86.4848,76,100,40
86.4848,86.62369,74,100,40
86.62369,86.76258,73,100,40
86.76258,86.90147,71,100,40
86.90147,87.04035,69,100,40
87.04035,87.179245,67,100,40
87.179245,87.31813,66,100,40
87.31813,87.45702,64,100,40
87.45702,87.59591,62,100,40
87.59591,87.72901,61,100,40
87.7348,88.00679,62,100,40
88.01257,88.15147,78,100,40
88.15147,88.29035,79,100,40
88.29035,88.429245,81,100,40
88.429245,88.56813,79,100,40
88.56813,88.707016,78,100,40
88.707016,88.84591,76,100,40
88.84591,89.1179,74,100,40
89.12369,89.395676,73,100,40
89.40147,89.673454,71,100,40
89.67924,89.81813,74,100,40
89.81813,89.957016,76,100,40
89.957016,90.09591,78,100,40
90.09591,90.234795,76,100,40
90.234795,90.37369,74,100,40
90.37369,90.51257,73,100,40
90.51257,90.78456,71,100,40
90.79035,91.06234,69,100,40
91.06813,91.34012,68,100,40
91.34591,91.484795,80,100,40
91.484795,91.62368,78,100,40
91.62368,91.895676,80,100,40
91.90146,92.173454,83,100,40
92.17924,92.451225,76,100,40
92.457016,92.729004,80,100,40
92.734795,93.00678,81,100,40
93.01257,93.28456,76,100,40
93.29035,93.56234,76,100,40
93.56812,93.84012,76,100,40
93.8459,94.1179,76,100,40
94.12368,94.39567,76,100,40
94.40146,94.67345,76,100,40
94.67924,94.81812,81,100,40
94.81812,94.957016,80,100,40
94.957016,95.229004,81,100,40
95.234795,95.50678,76,100,40
95.512566,95.78456,76,100,40
95.790344,96.06234,76,100,40
96.06812,96.34011,76,100,40
96.3459,96.48479,83,100,40
96.48479,96.62368,81,100,40
96.62368,96.89567,83,100,40
96.90146,97.17345,76,100,40
97.17923,97.451225,76,100,40
97.45701,97.729004,76,100,40
97.73479,98.00678,76,100,40
98.012566,98.08201,81,100,40
98.08201,98.15145,83,100,40
98.15145,98.290344,84,100,40
98.290344,98.56233,83,100,40
98.56812,98.637566,83,100,40
98.637566,98.70701,81,100,40
98.70701,98.8459,79,100,40
98.8459,99.11789,81,100,40
99.12367,99.19312,81,100,40
99.19312,99.262566,79,100,40
99.262566,99.39567,78,100,40
99.40145,99.540344,79,100,40
99.540344,99.67923,78,100,40
99.67923,99.81812,76,100,40
99.81812,99.95701,78,100,40
99.95701,100.095894,79,100,40
100.095894,100.23479,83,100,40
100.23479,100.37367,88,100,40
100.37367,100.512566,83,100,40
100.512566,100.65145,79,100,40
100.65145,100.790344,83,100,40
100.790344,100.92923,78,100,40
100.92923,101.06233,83,100,40
101.068115,101.20701,79,100,40
101.20701,101.345894,78,100,40
101.345894,101.48479,76,100,40
101.48479,101.62367,78,100,40
101.62367,101.762566,79,100,40
101.762566,101.90145,83,100,40
101.90145,102.04034,88,100,40
102.04034,102.17923,83,100,40
102.17923,102.318115,81,100,40
102.318115,102.45701,79,100,40
102.45701,102.595894,78,100,40
102.595894,102.729,76,100,40
102.73479,102.87367,75,100,40
102.87367,103.01256,73,100,40
103.01256,103.15145,71,100,40
103.15145,103.29034,73,100,40
103.29034,103.42923,75,100,40
103.42923,103.568115,76,100,40
103.568115,103.70701,78,100,40
103.70701,103.845894,79,100,40
103.845894,103.98478,81,100,40
103.98478,104.12367,79,100,40
104.12367,104.26256,81,100,40
104.26256,104.39566,78,100,40
104.40145,104.67344,79,100,40
104.67923,105.229,84,100,40
105.23478,105.784546,83,100,40
105.79034,106.20122,81,100,40
106.207,106.345894,79,100,40
106.345894,106.48478,78,100,40
106.48478,106.623665,79,100,40
106.623665,106.76256,81,100,40
106.76256,106.90144,83,100,40
106.90144,107.04034,84,100,40
107.04034,107.17922,83,100,40
107.17922,107.318115,81,100,40
107.318115,107.457,84,100,40
107.457,107.59589,79,100,40
107.59589,107.72899,84,100,40
107.73478,107.873665,78,100,40
107.873665,108.01256,76,100,40
108.01256,108.15144,75,100,40
108.15144,108.29034,76,100,40
108.29034,108.42922,78,100,40
108.42922,108.56811,79,100,40
108.56811,108.707,81,100,40
108.707,108.84589,79,100,40
108.84589,108.98478,78,100,40
108.98478,109.123665,81,100,40
109.123665,109.26256,76,100,40
109.26256,109.39565,81,100,40
109.40144,109.54033,75,100,40
109.54033,109.67922,76,100,40
109.67922,109.81811,78,100,40
109.81811,109.957,76,100,40
109.957,110.09589,75,100,40
110.09589,110.23478,73,100,40
110.23478,110.373665,71,100,40
110.373665,110.51255,69,100,40
110.51255,110.65144,67,100,40
110.65144,110.79033,66,100,40
110.79033,110.92922,64,100,40
110.92922,111.062325,63,100,40
111.06811,111.340096,64,100,40
111.34589,111.617874,67,100,40
111.623665,111.89565,67,100,40
111.90144,112.17343,67,100,40
112.17922,112.45121,67,100,40
112.45699,112.72899,67,100,40
112.73477,113.00677,67,100,40
113.01255,113.15144,71,100,40
113.15144,113.29033,69,100,40
113.29033,113.56232,67,100,40
113.56811,113.840096,67,100,40
113.84589,114.117874,67,100,40
114.12366,114.39565,67,100,40
114.401436,114.67343,67,100,40
114.679214,114.81811,64,100,40
114.81811,114.95699,66,100,40
114.95699,115.22898,67,100,40
115.23477,115.37366,66,100,40
115.37366,115.51255,67,100,40
115.51255,115.78454,69,100,40
115.79033,116.06232,64,100,40
116.0681,116.20699,66,100,40
116.20699,116.34588,64,100,40
116.34588,116.48477,66,100,40
116.48477,116.62366,69,100,40
116.62366,116.76255,64,100,40
116.76255,116.901436,62,100,40
116.901436,117.04032,64,100,40
117.04032,117.179214,69,100,40
117.179214,117.3181,62,100,40
117.3181,117.45699,61,100,40
117.45699,117.59588,62,100,40
117.59588,117.72898,69,100,40
117.73477,117.87366,61,100,40
117.87366,118.01254,59,100,40
118.01254,118.151436,61,100,40
118.151436,118.29032,69,100,40
118.29032,118.429214,62,100,40
118.429214,118.5681,61,100,40
118.5681,118.70699,62,100,40
118.70699,118.84588,69,100,40
118.84588,118.984764,61,100,40
118.984764,119.12366,59,100,40
119.12366,119.26254,61,100,40
119.26254,119.395645,66,100,40
119.401436,119.54032,59,100,40
119.54032,119.679214,58,100,40
119.679214,119.8181,59,100,40
119.8181,119.956985,66,100,40
119.956985,120.09588,61,100,40
120.09588,120.234764,59,100,40
120.234764,120.37366,61,100,40
120.37366,120.51254,66,100,40
120.51254,120.651436,59,100,40
120.651436,120.79032,58,100,40
120.79032,120.92921,59,100,40
120.92921,121.06231,66,100,40
121.0681,121.34009,58,100,40
121.34588,121.61787,61,100,40
121.62366,121.895645,66,100,40
121.90143,122.17342,70,100,40
122.17921,122.24865,70,100,40
122.24865,122.3181,71,100,40
122.3181,122.38754,70,100,40
122.38754,122.456985,71,100,40
122.456985,122.549576,70,100,40
122.549576,122.64217,68,100,40
122.64217,122.72897,70,100,40
122.734764,123.00675,71,100,40
123.01254,123.28453,66,100,40
123.29032,123.56231,62,100,40
123.56809,123.84009,66,100,40
123.84587,123.91532,71,100,40
123.91532,123.984764,73,100,40
123.984764,124.05421,71,100,40
124.05421,124.12365,73,100,40
124.12365,124.21624,71,100,40
124.21624,124.30884,70,100,40
124.30884,124.395645,71,100,40
124.40143,124.673416,73,100,40
124.67921,124.951195,70,100,40
124.956985,125.09587,66,100,40
125.09587,125.234764,68,100,40
125.234764,125.37365,70,100,40
125.37365,125.512535,71,100,40
125.512535,125.65143,73,100,40
125.65143,125.79031,71,100,40
125.79031,125.92921,73,100,40
125.92921,126.06231,70,100,40
126.06809,126.34008,71,100,40
126.34587,126.89564,79,100,40
126.90143,127.451195,78,100,40
127.45698,127.72897,76,100,40
127.73476,128.5623,76,100,40
128.56808,128.84009,78,100,40
128.84587,129.67342,74,100,40
129.6792,129.95119,79,100,40
129.95699,130.02643,73,100,40
130.02643,130.09587,74,100,40
130.09587,130.16531,73,100,40
130.16531,130.23476,74,100,40
130.23476,130.3042,73,100,40
130.3042,130.37364,74,100,40
130.37364,130.44308,73,100,40
130.44308,130.51253,74,100,40
130.51253,130.78453,73,100,40
130.79031,131.0623,71,100,40
131.06808,131.20697,71,100,40
131.20697,131.34587,66,100,40
131.34587,131.48476,68,100,40
131.48476,131.62364,70,100,40
131.62364,131.76253,71,100,40
131.76253,131.90143,73,100,40
131.90143,132.04031,74,100,40
132.04031,132.1792,76,100,40
132.1792,132.31808,78,100,40
132.31808,132.45697,71,100,40
132.45697,132.72897,81,100,40
132.73476,133.00674,79,100,40
133.01253,133.28452,72,100,40
133.29031,133.5623,72,100,40
133.56808,133.84007,72,100,40
133.84587,134.11786,72,100,40
134.12364,134.39563,72,100,40
134.40141,134.67342,72,100,40
134.6792,134.81808,76,100,40
134.81808,134.95697,74,100,40
134.95697,135.22896,72,100,40
135.23476,135.50674,72,100,40
135.51253,135.78452,72,100,40
135.7903,136.0623,72,100,40
136.06808,136.34007,73,100,40
136.34586,136.48476,70,100,40
136.48476,136.62364,71,100,40
136.62364,136.89563,73,100,40
136.90141,137.0403,71,100,40
137.0403,137.1792,73,100,40
137.1792,137.45119,74,100,40
137.45697,137.72896,70,100,40
137.73474,138.00674,71,100,40
138.01253,138.28452,73,100,40
138.2903,138.35974,70,100,40
138.35974,138.4292,71,100,40
138.4292,138.49864,70,100,40
138.49864,138.56808,71,100,40
138.56808,138.63753,70,100,40
138.63753,138.70697,71,100,40
138.70697,138.77641,70,100,40
138.77641,138.84586,71,100,40
138.84586,139.11784,70,100,40
139.12364,139.39563,71,100,40
139.40141,140.9234,71,100,40
141.34586,141.61784,81,100,40
141.62363,141.89563,81,100,40
141.90141,142.1734,81,100,40
142.17918,142.45117,81,100,40
142.45697,142.72896,81,100,40
142.73474,143.00673,81,100,40
143.01253,143.14563,84,100,40
143.15141,143.28452,83,100,40
143.2903,143.56229,81,100,40
143.56807,143.84007,81,100,40
143.84586,144.11784,81,100,40
144.12363,144.39561,81,100,40
144.40141,144.6734,81,100,40
144.67918,144.81229,78,100,40
144.81807,144.95117,79,100,40
144.95697,145.22896,81,100,40
145.23474,145.36784,79,100,40
145.37363,145.50673,81,100,40
145.51251,145.78452,83,100,40
145.7903,146.06229,78,100,40
146.06807,146.20695,79,100,40
146.20695,146.34586,78,100,40
146.34586,146.48474,76,100,40
146.48474,146.62363,78,100,40
146.62363,146.76251,79,100,40
146.76251,146.90141,81,100,40
146.90141,147.0403,83,100,40
147.0403,147.17918,81,100,40
147.17918,147.31807,79,100,40
147.31807,147.45695,83,100,40
147.45695,147.59586,78,100,40
147.59586,147.72896,83,100,40
147.73474,147.87363,76,100,40
147.87363,148.01251,74,100,40
148.01251,148.1514,73,100,40
148.1514,148.2903,74,100,40
148.2903,148.42918,76,100,40
148.42918,148.56807,78,100,40
148.56807,148.70695,79,100,40
148.70695,148.84586,78,100,40
148.84586,148.98474,76,100,40
148.98474,149.12363,79,100,40
149.12363,149.26251,74,100,40
149.26251,149.39561,79,100,40
149.4014,149.5403,73,100,40
149.5403,149.67918,74,100,40
149.67918,149.81807,76,100,40
149.81807,149.95695,74,100,40
149.95695,150.09584,73,100,40
150.09584,150.23474,71,100,40
150.23474,150.37363,69,100,40
150.37363,150.51251,67,100,40
150.51251,150.6514,66,100,40
150.6514,150.7903,64,100,40
150.7903,150.92918,62,100,40
150.92918,151.06229,61,100,40
151.06807,151.34006,62,100,40
151.34584,151.48474,78,100,40
151.48474,151.62363,79,100,40
151.62363,151.76251,81,100,40
151.76251,151.9014,79,100,40
151.9014,152.04028,78,100,40
152.04028,152.17918,76,100,40
152.17918,152.45117,74,100,40
152.45695,152.72894,73,100,40
152.73473,153.00673,71,100,40
153.01251,153.1514,74,100,40
153.1514,153.29028,76,100,40
153.29028,153.42918,78,100,40
153.42918,153.56807,76,100,40
153.56807,153.70695,74,100,40
153.70695,153.84584,73,100,40
153.84584,154.11783,71,100,40
154.12363,154.39561,69,100,40
154.4014,154.67339,68,100,40
154.67917,154.81807,80,100,40
154.81807,154.95695,78,100,40
154.95695,155.22894,80,100,40
155.23473,155.50671,83,100,40
155.51251,155.7845,76,100,40
155.79028,156.06227,80,100,40
156.06807,156.34006,81,100,40
156.34584,156.61783,76,100,40
156.62361,156.89561,76,100,40
156.9014,157.17339,76,100,40
157.17917,157.45116,76,100,40
157.45695,157.72894,76,100,40
157.73473,158.00671,76,100,40
158.01251,158.1514,81,100,40
158.1514,158.29028,80,100,40
158.29028,158.56227,81,100,40
158.56805,158.84006,76,100,40
158.84584,159.11783,76,100,40
159.12361,159.3956,76,100,40
159.4014,159.67339,76,100,40
159.67917,159.81805,83,100,40
159.81805,159.95695,81,100,40
159.95695,160.22894,83,100,40
160.23473,160.50671,76,100,40
160.5125,160.7845,76,100,40
160.79028,161.06227,76,100,40
161.06805,161.34004,76,100,40
161.34584,161.41528,81,100,40
161.41528,161.48473,83,100,40
161.48473,161.62361,84,100,40
161.62361,161.8956,83,100,40
161.9014,161.97084,83,100,40
161.97084,162.04028,81,100,40
162.04028,162.17917,79,100,40
162.17917,162.45116,81,100,40
162.45694,162.5264,81,100,40
162.5264,162.59584,79,100,40
162.59584,162.72894,78,100,40
162.73473,162.87361,79,100,40
162.87361,163.0125,78,100,40
163.0125,163.15138,76,100,40
163.15138,163.29028,78,100,40
163.29028,163.42917,79,100,40
163.42917,163.56805,83,100,40
163.56805,163.70694,88,100,40
163.70694,163.84584,83,100,40
163.84584,163.98473,79,100,40
163.98473,164.12361,83,100,40
164.12361,164.2625,78,100,40
164.2625,164.3956,83,100,40
164.40138,164.54028,79,100,40
164.54028,164.67917,78,100,40
164.67917,164.81805,76,100,40
164.81805,164.95694,78,100,40
164.95694,165.09583,79,100,40
165.09583,165.23473,83,100,40
165.23473,165.37361,88,100,40
165.37361,165.5125,83,100,40
165.5125,165.65138,81,100,40
165.65138,165.79028,79,100,40
165.79028,165.92917,78,100,40
165.92917,166.06227,76,100,40
166.06805,166.20694,75,100,40
166.20694,166.34583,73,100,40
166.34583,166.48473,71,100,40
166.48473,166.62361,73,100,40
166.62361,166.7625,75,100,40
166.7625,166.90138,76,100,40
166.90138,167.04027,78,100,40
167.04027,167.17917,79,100,40
167.17917,167.31805,81,100,40
167.31805,167.45694,79,100,40
167.45694,167.59583,81,100,40
167.59583,167.72893,78,100,40
167.73473,168.00671,79,100,40
168.0125,168.56227,84,100,40
168.56805,169.11781,83,100,40
169.12361,169.53448,81,100,40
169.54027,169.67915,79,100,40
169.67915,169.81805,78,100,40
169.81805,169.95694,79,100,40
169.95694,170.09583,81,100,40
170.09583,170.23471,83,100,40
170.23471,170.37361,84,100,40
170.37361,170.5125,83,100,40
170.5125,170.65138,81,100,40
170.65138,170.79027,84,100,40
170.79027,170.92915,79,100,40
170.92915,171.06226,84,100,40
171.06805,171.20694,78,100,40
171.20694,171.34583,76,100,40
171.34583,171.48471,75,100,40
171.48471,171.6236,76,100,40
171.6236,171.7625,78,100,40
171.7625,171.90138,79,100,40
171.90138,172.04027,81,100,40
172.04027,172.17915,79,100,40
172.17915,172.31805,78,100,40
172.31805,172.45694,81,100,40
172.45694,172.59583,76,100,40
172.59583,172.72893,81,100,40
172.73471,172.8736,75,100,40
172.8736,173.0125,76,100,40
173.0125,173.15138,78,100,40
173.15138,173.29027,76,100,40
173.29027,173.42915,75,100,40
173.42915,173.56804,73,100,40
173.56804,173.70694,71,100,40
173.70694,173.84583,69,100,40
173.84583,173.98471,67,100,40
173.98471,174.1236,66,100,40
174.1236,174.2625,64,100,40
174.2625,174.39558,63,100,40
174.40138,174.67337,64,100,40
174.67915,174.95114,67,100,40
174.95694,175.22893,67,100,40
175.23471,175.5067,67,100,40
175.51248,175.78448,67,100,40
175.79027,176.06226,67,100,40
176.06804,176.34003,67,100,40
176.34583,176.48471,71,100,40
176.48471,176.6236,69,100,40
176.6236,176.89558,67,100,40
176.90138,177.17337,67,100,40
177.17915,177.45114,67,100,40
177.45692,177.72893,67,100,40
177.73471,178.0067,67,100,40
178.01248,178.15137,64,100,40
178.15137,178.29027,66,100,40
178.29027,178.56226,67,100,40
178.56804,178.70692,66,100,40
178.70692,178.84583,67,100,40
178.84583,179.11781,69,100,40
179.1236,179.39558,64,100,40
179.40137,179.54027,66,100,40
179.54027,179.67915,64,100,40
179.67915,179.81804,66,100,40
179.81804,179.95692,69,100,40
179.95692,180.09581,64,100,40
180.09581,180.23471,62,100,40
180.23471,180.3736,64,100,40
180.3736,180.51248,69,100,40
180.51248,180.65137,62,100,40
180.65137,180.79027,61,100,40
180.79027,180.92915,62,100,40
180.92915,181.06226,69,100,40
181.06804,181.20692,61,100,40
181.20692,181.34581,59,100,40
181.34581,181.48471,61,100,40
181.48471,181.6236,69,100,40
181.6236,181.76248,62,100,40
181.76248,181.90137,61,100,40
181.90137,182.04025,62,100,40
182.04025,182.17915,69,100,40
182.17915,182.31804,61,100,40
182.31804,182.45692,59,100,40
182.45692,182.59581,61,100,40
182.59581,182.72891,66,100,40
182.73471,182.8736,59,100,40
182.8736,183.01248,58,100,40
183.01248,183.15137,59,100,40
183.15137,183.29025,66,100,40
183.29025,183.42915,61,100,40
183.42915,183.56804,59,100,40
183.56804,183.70692,61,100,40
183.70692,183.84581,66,100,40
183.84581,183.9847,59,100,40
183.9847,184.1236,58,100,40
184.1236,184.26248,59,100,40
184.26248,184.39558,66,100,40
184.40137,184.67336,58,100,40
184.67915,184.95114,61,100,40
184.95692,185.22891,66,100,40
185.2347,185.5067,70,100,40
185.51248,185.58192,70,100,40
185.58192,185.65137,71,100,40
185.65137,185.72081,70,100,40
185.72081,185.79025,71,100,40
185.79025,185.88284,70,100,40
185.88284,185.97545,68,100,40
185.97545,186.06224,70,100,40
186.06804,186.34003,71,100,40
186.34581,186.6178,66,100,40
186.62358,186.89558,62,100,40
186.90137,187.17336,66,100,40
187.17914,187.24858,71,100,40
187.24858,187.31804,73,100,40
187.31804,187.38748,71,100,40
187.38748,187.45692,73,100,40
187.45692,187.54951,71,100,40
187.54951,187.6421,70,100,40
187.6421,187.72891,71,100,40
187.7347,188.00668,73,100,40
188.01248,188.28447,70,100,40
188.29025,188.42914,66,100,40
188.42914,188.56802,68,100,40
188.56802,188.70692,70,100,40
188.70692,188.84581,71,100,40
188.84581,188.9847,73,100,40
188.9847,189.12358,71,100,40
189.12358,189.26248,73,100,40
189.26248,189.39557,70,100,40
189.40137,189.67336,71,100,40
189.67914,190.22891,79,100,40
190.2347,190.78447,78,100,40
190.79025,191.06224,76,100,40
191.06802,191.89557,76,100,40
191.90137,192.17336,78,100,40
192.17914,193.00668,74,100,40
193.01247,193.28445,79,100,40
193.29025,193.3597,73,100,40
193.3597,193.42914,74,100,40
193.42914,193.49858,73,100,40
193.49858,193.56802,74,100,40
193.56802,193.63747,73,100,40
193.63747,193.70691,74,100,40
193.70691,193.77635,73,100,40
193.77635,193.84581,74,100,40
193.84581,194.1178,73,100,40
194.12358,194.39557,71,100,40
194.40135,194.54025,71,100,40
194.54025,194.67914,66,100,40
194.67914,194.81802,68,100,40
194.81802,194.95691,70,100,40
194.95691,195.0958,71,100,40
195.0958,195.2347,73,100,40
195.2347,195.37358,74,100,40
195.37358,195.51247,76,100,40
195.51247,195.65135,78,100,40
195.65135,195.79025,71,100,40
195.79025,196.06224,81,100,40
196.06802,196.34001,79,100,40
196.3458,196.6178,72,100,40
196.62358,196.89557,72,100,40
196.90135,197.17334,72,100,40
197.17914,197.45113,72,100,40
197.45691,197.7289,72,100,40
197.7347,198.00668,72,100,40
198.01247,198.15135,76,100,40
198.15135,198.29024,74,100,40
198.29024,198.56224,72,100,40
198.56802,198.84001,72,100,40
198.8458,199.11778,72,100,40
199.12358,199.39557,72,100,40
199.40135,199.67334,73,100,40
199.67914,199.81802,70,100,40
199.81802,199.95691,71,100,40
199.95691,200.2289,73,100,40
200.23468,200.37358,71,100,40
200.37358,200.51247,73,100,40
200.51247,200.78445,74,100,40
200.79024,201.06223,70,100,40
201.06802,201.34514,71,100,40
201.35104,201.63902,73,100,40
201.64516,201.72168,70,100,40
201.72168,201.79822,71,100,40
201.79822,201.87474,70,100,40
201.87474,201.95128,71,100,40
201.95128,202.03107,70,100,40
202.03107,202.11086,71,100,40
202.11086,202.19064,70,100,40
202.19064,202.27043,71,100,40
202.27043,202.60423,70,100,40
202.61133,203.1156,71,100,40
203.1227,207.03604,71,100,40
209.94087,210.10423,71,1,40
0.0,0.13310172,74,100,6
0.13888875,0.27199048,73,100,6
0.2777775,0.41087922,71,100,6
0.41666624,0.549768,73,100,6
0.555555,0.68865675,74,100,6
0.69444376,0.82754546,78,100,6
0.8333325,0.96643424,83,100,6
0.97222126,1.105323,78,100,6
1.11111,1.2442117,74,100,6
1.2499988,1.3831005,78,100,6
1.3888875,1.5219892,73,100,6
1.5277762,1.660878,78,100,6
1.666665,1.7997667,74,100,6
1.8055538,1.9386555,73,100,6
1.9444425,2.0775442,71,100,6
2.0833313,2.216433,73,100,6
2.22222,2.3553216,74,100,6
2.3611088,2.4942105,78,100,6
2.4999976,2.6330993,83,100,6
2.6388862,2.771988,78,100,6
2.777775,2.9108768,76,100,6
2.9166636,3.0497656,74,100,6
3.0555525,3.1886542,73,100,6
3.1944413,3.327543,71,100,6
3.33333,3.4664316,70,100,6
3.4722188,3.6053205,68,100,6
3.6111076,3.7442093,66,100,6
3.7499962,3.883098,68,100,6
3.888885,4.0219865,70,100,6
4.027774,4.1608753,71,100,6
4.1666627,4.299764,73,100,6
4.305551,4.438653,74,100,6
4.44444,4.577542,76,100,6
4.5833287,4.7164307,74,100,6
4.7222176,4.855319,76,100,6
4.8611064,4.994208,73,100,6
4.999995,5.2719855,74,100,6
5.2777724,5.549763,71,100,6
6.9444375,7.216428,73,100,6
7.222215,7.4942055,73,100,6
7.4999924,7.771983,73,100,6
7.77777,8.049761,73,100,6
8.055548,8.327538,73,100,6
8.333325,8.605315,73,100,6
8.611102,8.7442045,78,100,6
8.749991,8.883093,77,100,6
8.88888,9.160871,78,100,6
9.166657,9.438648,73,100,6
9.444435,9.716426,73,100,6
9.722213,9.994203,73,100,6
9.99999,10.27198,73,100,6
10.277767,10.41087,80,100,6
10.4166565,10.549758,78,100,6
10.555545,10.827536,80,100,6
10.833323,11.105313,73,100,6
11.1111,11.38309,73,100,6
11.388878,11.660868,73,100,6
11.666655,11.938645,73,100,6
11.944432,12.077535,81,100,6
12.013877,12.146978,80,100,6
12.083322,12.216423,78,100,6
12.22221,12.494201,80,100,6
12.499988,12.633089,80,100,6
12.569432,12.702534,78,100,6
12.638876,12.771978,77,100,6
12.777765,13.049755,78,100,6
13.055543,13.188644,78,100,6
13.124987,13.258089,77,100,6
13.194431,13.327533,75,100,6
13.33332,13.466422,77,100,6
13.472209,13.60531,75,100,6
13.611097,13.744199,73,100,6
13.749987,13.883088,75,100,6
13.888875,14.021976,77,100,6
14.027763,14.160866,78,100,6
14.166653,14.299754,80,100,6
14.305541,14.4386425,81,100,6
14.44443,14.577532,83,100,6
14.583319,14.71642,81,100,6
14.722207,14.8553095,83,100,6
14.861096,14.994198,80,100,6
14.999985,15.2719755,81,100,6
15.277762,15.549753,78,100,6
15.55554,15.827531,73,100,6
15.833318,16.105309,78,100,6
16.111095,16.244196,82,100,6
16.18054,16.31364,83,100,6
16.249983,16.383085,82,100,6
16.319427,16.45253,83,100,6
16.388872,16.521975,82,100,6
16.527761,16.660864,80,100,6
16.597206,16.660864,82,100,6
16.66665,16.93864,83,100,6
16.944427,17.216417,78,100,6
17.222204,17.494196,74,100,6
17.499983,17.771973,78,100,6
17.77776,17.910862,83,100,6
17.847204,17.980307,85,100,6
17.916649,18.049751,83,100,6
17.986094,18.119194,85,100,6
18.055538,18.188639,83,100,6
18.194426,18.327528,82,100,6
18.26387,18.327528,83,100,6
18.333315,18.883083,85,100,6
19.166647,19.29975,70,100,6
19.305536,19.438639,71,100,6
19.444426,19.577526,73,100,6
19.583313,19.716415,71,100,6
19.722202,19.855305,73,100,6
19.861092,19.994192,70,100,6
19.99998,20.133081,71,100,6
20.138868,20.27197,74,100,6
20.277758,20.41086,78,100,6
20.416647,20.549747,83,100,6
20.555534,20.688637,76,100,6
20.694424,20.827526,74,100,6
20.833313,20.966413,76,100,6
20.9722,21.105303,81,100,6
21.11109,21.244192,74,100,6
21.249979,21.38308,73,100,6
21.388868,21.521969,74,100,6
21.527756,21.660858,79,100,6
21.666645,21.799747,78,100,6
21.805534,21.938635,76,100,6
21.944422,22.077524,74,100,6
22.083311,22.216413,79,100,6
22.2222,22.3553,73,100,6
22.361088,22.49419,71,100,6
22.499977,22.63308,73,100,6
22.638866,22.771969,78,100,6
22.777756,22.910856,71,100,6
22.916643,23.049746,69,100,6
23.055532,23.188635,71,100,6
23.194422,23.327522,76,100,6
23.33331,23.466412,74,100,6
23.472198,23.6053,73,100,6
23.611088,23.744188,71,100,6
23.749977,23.883078,76,100,6
23.888865,24.021967,69,100,6
24.027754,24.160856,67,100,6
24.166643,24.299744,69,100,6
24.30553,24.438633,74,100,6
24.44442,24.577522,67,100,6
24.58331,24.71641,66,100,6
24.722197,24.855299,67,100,6
24.861086,24.994188,73,100,6
24.999975,25.271965,66,100,6
25.277752,25.549744,66,100,6
25.55553,25.82752,66,100,6
25.833307,26.105297,66,100,6
26.111086,26.383076,66,100,6
26.388863,26.660852,66,100,6
26.66664,26.938631,66,100,6
26.944418,27.077518,71,100,6
27.083305,27.216408,70,100,6
27.222195,27.494186,71,100,6
27.499973,27.771963,66,100,6
27.77775,28.04974,66,100,6
28.055527,28.327518,66,100,6
28.333305,28.605295,66,100,6
28.611082,28.744184,73,100,6
28.749971,28.883074,71,100,6
28.88886,29.16085,73,100,6
29.166637,29.438627,66,100,6
29.444414,29.716406,66,100,6
29.722193,29.994183,66,100,6
29.99997,30.271961,66,100,6
30.277748,30.410849,74,100,6
30.347193,30.480293,73,100,6
30.416636,30.549738,71,100,6
30.555525,30.827515,73,100,6
30.833303,30.966404,73,100,6
30.902746,31.035849,71,100,6
30.97219,31.105293,70,100,6
31.11108,31.38307,71,100,6
31.388857,31.52196,71,100,6
31.458302,31.591404,70,100,6
31.527746,31.660849,68,100,6
31.666636,31.799736,70,100,6
31.73608,31.86918,71,100,6
31.805523,32.49418,70,100,6
32.499966,32.771957,66,100,6
32.777744,33.60529,71,100,6
33.611076,33.883068,79,100,6
33.888855,34.024467,70,100,6
33.95961,34.095222,71,100,6
34.030365,34.165977,70,100,6
34.10112,34.236732,71,100,6
34.171875,34.307487,70,100,6
34.24263,34.378242,71,100,6
34.31338,34.448997,70,100,6
34.384136,34.51975,71,100,6
34.45489,34.732014,70,100,6
34.73791,35.015034,71,100,6
35.020927,35.156544,71,100,6
35.162437,35.29805,66,100,6
35.303947,35.43956,68,100,6
35.445457,35.58107,70,100,6
35.586967,35.727898,71,100,6
35.734024,35.874954,73,100,6
35.881084,36.027767,74,100,6
36.034145,36.18083,76,100,6
36.187206,36.346928,78,100,6
36.35387,36.513596,71,100,6
36.52054,36.846928,83,100,6
36.85387,37.01359,82,100,6
36.937206,37.096928,83,100,6
37.02054,37.18026,82,100,6
37.10387,37.26359,83,100,6
37.187206,37.346928,82,100,6
37.27054,37.43026,83,100,6
37.35387,37.51359,82,100,6
37.437202,37.596928,83,100,6
37.52054,37.68026,82,100,6
37.60387,37.76359,83,100,6
37.687202,37.846928,82,100,6
37.77054,37.93026,83,100,6
37.85387,38.01359,82,100,6
37.937202,38.096928,83,100,6
38.02054,38.18026,82,100,6
38.10387,38.26359,83,100,6
38.187202,38.846924,82,100,6
38.85387,38.986973,74,100,6
38.99276,39.12586,73,100,6
39.131645,39.264748,71,100,6
39.270535,39.403637,73,100,6
39.409424,39.542526,74,100,6
39.548313,39.681416,78,100,6
39.687202,39.820305,83,100,6
39.82609,39.959194,78,100,6
39.96498,40.09808,74,100,6
40.103867,40.23697,78,100,6
40.242756,40.37586,73,100,6
40.381645,40.514748,78,100,6
40.520535,40.653637,74,100,6
40.659424,40.792526,73,100,6
40.798313,40.931416,71,100,6
40.937202,41.0703,73,100,6
41.076088,41.20919,74,100,6
41.214977,41.34808,78,100,6
41.353867,41.48697,83,100,6
41.492756,41.62586,78,100,6
41.631645,41.764748,76,100,6
41.770535,41.903633,74,100,6
41.909424,42.042522,73,100,6
42.04831,42.18141,71,100,6
42.1872,42.3203,70,100,6
42.326088,42.45919,68,100,6
42.464977,42.59808,66,100,6
42.603867,42.73697,68,100,6
42.742756,42.875854,70,100,6
42.88164,43.014744,71,100,6
43.02053,43.153633,73,100,6
43.15942,43.292522,74,100,6
43.29831,43.43141,76,100,6
43.4372,43.5703,74,100,6
43.576088,43.70919,76,100,6
43.714977,43.848076,73,100,6
43.853863,44.125854,74,100,6
44.13164,44.403633,71,100,6
45.798306,46.070297,73,100,6
46.076084,46.348076,73,100,6
46.353863,46.62585,73,100,6
46.63164,46.90363,73,100,6
46.909416,47.181408,73,100,6
47.187195,47.459187,73,100,6
47.464973,47.598072,78,100,6
47.60386,47.73696,77,100,6
47.74275,48.01474,78,100,6
48.020527,48.29252,73,100,6
48.298306,48.570293,73,100,6
48.57608,48.848072,73,100,6
48.85386,49.12585,73,100,6
49.131638,49.26474,80,100,6
49.270527,49.40363,78,100,6
49.409416,49.681404,80,100,6
49.68719,49.959183,73,100,6
49.96497,50.23696,73,100,6
50.24275,50.514736,73,100,6
50.520523,50.792515,73,100,6
50.7983,50.931404,81,100,6
50.86775,51.000847,80,100,6
50.93719,51.070293,78,100,6
51.07608,51.34807,80,100,6
51.353855,51.486958,80,100,6
51.4233,51.556404,78,100,6
51.492744,51.625847,77,100,6
51.631634,51.903625,78,100,6
51.909412,52.042515,78,100,6
51.978855,52.111958,77,100,6
52.0483,52.181404,75,100,6
52.18719,52.32029,77,100,6
52.326077,52.45918,75,100,6
52.464966,52.59807,73,100,6
52.603855,52.736958,75,100,6
52.742744,52.875847,77,100,6
52.881634,53.014736,78,100,6
53.020523,53.153625,80,100,6
53.159412,53.29251,81,100,6
53.298298,53.4314,83,100,6
53.437187,53.57029,81,100,6
53.576077,53.70918,83,100,6
53.714966,53.84807,80,100,6
53.853855,54.125847,81,100,6
54.131634,54.40362,78,100,6
54.40941,54.6814,73,100,6
54.687187,54.95918,78,100,6
54.964966,55.098064,82,100,6
55.03441,55.16751,83,100,6
55.103855,55.236954,82,100,6
55.173298,55.3064,83,100,6
55.24274,55.375843,82,100,6
55.38163,55.514732,80,100,6
55.451077,55.514732,82,100,6
55.52052,55.79251,83,100,6
55.798298,56.070286,78,100,6
56.076073,56.348064,74,100,6
56.35385,56.625843,78,100,6
56.63163,56.764732,83,100,6
56.701073,56.834175,85,100,6
56.77052,56.90362,83,100,6
56.839962,56.973064,85,100,6
56.90941,57.042507,83,100,6
57.048294,57.181396,82,100,6
57.11774,57.181396,83,100,6
57.187183,57.736954,85,100,6
58.020515,58.153618,70,100,6
58.159405,58.292507,71,100,6
58.298294,58.431396,73,100,6
58.437183,58.570286,71,100,6
58.576073,58.709175,73,100,6
58.714962,58.84806,70,100,6
58.85385,58.98695,71,100,6
58.992737,59.12584,74,100,6
59.131626,59.26473,78,100,6
59.270515,59.403618,83,100,6
59.409405,59.542507,76,100,6
59.548294,59.681396,74,100,6
59.687183,59.820282,76,100,6
59.82607,59.95917,81,100,6
59.96496,60.09806,74,100,6
60.103848,60.23695,73,100,6
60.242737,60.37584,74,100,6
60.381626,60.51473,79,100,6
60.520515,60.653618,78,100,6
60.659405,60.792503,76,100,6
60.79829,60.931393,74,100,6
60.93718,61.070282,79,100,6
61.07607,61.20917,73,100,6
61.21496,61.34806,71,100,6
61.353848,61.48695,73,100,6
61.492737,61.62584,78,100,6
61.631626,61.764725,71,100,6
61.77051,61.903614,69,100,6
61.9094,62.042503,71,100,6
62.04829,62.181393,76,100,6
62.18718,62.320282,74,100,6
62.32607,62.45917,73,100,6
62.46496,62.59806,71,100,6
62.603848,62.736946,76,100,6
62.742733,62.875835,69,100,6
62.881622,63.014725,67,100,6
63.02051,63.153614,69,100,6
63.1594,63.292503,74,100,6
63.29829,63.431393,67,100,6
63.43718,63.57028,66,100,6
63.57607,63.709167,67,100,6
63.714954,63.848057,73,100,6
63.853844,64.12583,66,100,6
64.13162,64.40361,66,100,6
64.4094,64.68139,66,100,6
64.68718,64.95917,66,100,6
64.96496,65.236946,66,100,6
65.24273,65.514725,66,100,6
65.52051,65.7925,66,100,6
65.79829,65.93139,71,100,6
65.93717,66.070274,70,100,6
66.076065,66.34805,71,100,6
66.35384,66.62583,66,100,6
66.63162,66.90361,66,100,6
66.90939,67.18139,66,100,6
67.18717,67.45917,66,100,6
67.46495,67.59805,73,100,6
67.60384,67.736946,71,100,6
67.74273,68.01472,73,100,6
68.02051,68.292496,66,100,6
68.29829,68.570274,66,100,6
68.576065,68.84805,66,100,6
68.853836,69.12583,66,100,6
69.131615,69.26472,74,100,6
69.201065,69.33416,73,100,6
69.27051,69.40361,71,100,6
69.40939,69.68138,73,100,6
69.68717,69.820274,73,100,6
69.756615,69.88972,71,100,6
69.82606,69.95916,70,100,6
69.96495,70.23694,71,100,6
70.24273,70.37583,71,100,6
70.31217,70.445274,70,100,6
70.381615,70.51472,68,100,6
70.52051,70.6536,70,100,6
70.58995,70.72305,71,100,6
70.65939,71.34805,70,100,6
71.353836,71.625824,66,100,6
71.631615,72.45916,71,100,6
72.46495,72.73694,79,100,6
72.74272,72.878334,70,100,6
72.81348,72.94909,71,100,6
72.88423,73.019844,70,100,6
72.95499,73.0906,71,100,6
73.02574,73.161354,70,100,6
73.0965,73.23211,71,100,6
73.16725,73.302864,70,100,6
73.23801,73.37362,71,100,6
73.30876,73.585884,70,100,6
73.59178,73.868904,71,100,6
73.8748,74.010414,71,100,6
74.016304,74.151924,66,100,6
74.157814,74.29343,68,100,6
74.299324,74.43494,70,100,6
74.440834,74.579056,71,100,6
74.58507,74.72329,73,100,6
74.729294,74.87305,74,100,6
74.879295,75.02305,76,100,6
75.0293,75.18222,78,100,6
75.18887,75.3418,71,100,6
75.34844,75.68225,83,100,6
75.689354,75.85271,82,100,6
75.77458,75.937935,83,100,6
75.85981,76.02316,82,100,6
75.94504,76.10839,83,100,6
76.030266,76.19362,82,100,6
76.11549,76.27885,83,100,6
76.20072,76.36407,82,100,6
76.28594,76.449295,83,100,6
76.37117,76.53452,82,100,6
76.4564,76.61975,83,100,6
76.541626,76.70498,82,100,6
76.626854,76.79021,83,100,6
76.71208,76.875435,82,100,6
76.79731,76.96066,83,100,6
76.88254,77.04589,82,100,6
76.967766,77.13112,83,100,6
77.05299,77.72771,82,100,6
77.73481,77.86791,81,100,6
77.873695,78.0068,79,100,6
78.01259,78.14569,78,100,6
78.151474,78.28458,79,100,6
78.29037,78.42346,81,100,6
78.42925,78.562355,83,100,6
78.56814,78.70124,84,100,6
78.70703,78.84013,83,100,6
78.84592,78.97902,81,100,6
78.98481,79.11791,84,100,6
79.123695,79.2568,79,100,6
79.26259,79.39568,84,100,6
79.401474,79.53458,78,100,6
79.54036,79.67346,76,100,6
79.67925,79.812355,75,100,6
79.81814,79.95124,76,100,6
79.95703,80.09013,78,100,6
80.09592,80.22902,79,100,6
80.2348,80.367905,81,100,6
80.373695,80.5068,79,100,6
80.51258,80.64568,78,100,6
80.651474,80.78458,81,100,6
80.79036,80.92346,76,100,6
80.92925,81.062355,81,100,6
81.06814,81.20124,75,100,6
81.20702,81.340126,76,100,6
81.34592,81.47902,78,100,6
81.4848,81.617905,76,100,6
81.623695,81.7568,75,100,6
81.76258,81.89568,73,100,6
81.901474,82.03458,71,100,6
82.04036,82.17346,69,100,6
82.179245,82.31235,67,100,6
82.31814,82.45124,66,100,6
82.45702,82.590126,64,100,6
82.59592,82.72902,63,100,6
82.7348,83.00679,64,100,6
83.01258,83.28457,79,100,6
83.29036,83.56235,79,100,6
83.56814,83.840126,79,100,6
83.84592,84.117905,79,100,6
84.12369,84.39568,79,100,6
84.40147,84.67346,79,100,6
84.679245,84.81235,83,100,6
84.81814,84.95123,81,100,6
84.95702,85.22901,79,100,6
85.2348,85.50679,79,100,6
85.51258,85.78457,79,100,6
85.79036,86.06235,79,100,6
86.06813,86.340126,79,100,6
86.34591,86.47901,76,100,6
86.4848,86.617905,78,100,6
86.62369,86.895676,79,100,6
86.90147,87.03457,78,100,6
87.04035,87.173454,79,100,6
87.179245,87.45123,81,100,6
87.45702,87.72901,76,100,6
87.7348,87.8679,78,100,6
87.87369,88.00679,76,100,6
88.01257,88.145676,74,100,6
88.15147,88.28457,76,100,6
88.29035,88.423454,78,100,6
88.429245,88.56235,79,100,6
88.56813,88.70123,81,100,6
88.707016,88.84012,79,100,6
88.84591,88.97901,78,100,6
88.984795,89.1179,81,100,6
89.12369,89.25679,76,100,6
89.26257,89.395676,81,100,6
89.40147,89.53457,74,100,6
89.54035,89.673454,73,100,6
89.67924,89.81234,71,100,6
89.81813,89.95123,73,100,6
89.957016,90.09012,74,100,6
90.09591,90.22901,76,100,6
90.234795,90.3679,78,100,6
90.37369,90.50679,76,100,6
90.51257,90.645676,74,100,6
90.65146,90.78456,78,100,6
90.79035,90.923454,73,100,6
90.92924,91.06234,78,100,6
91.06813,91.20123,71,100,6
91.207016,91.34012,73,100,6
91.34591,91.479004,74,100,6
91.484795,91.6179,73,100,6
91.62368,91.75678,71,100,6
91.76257,91.895676,69,100,6
91.90146,92.03456,68,100,6
92.04035,92.173454,66,100,6
92.17924,92.31234,64,100,6
92.31813,92.451225,62,100,6
92.457016,92.59012,61,100,6
92.5959,92.729004,59,100,6
92.734795,92.8679,61,100,6
92.87368,93.00678,64,100,6
93.01257,93.145676,69,100,6
93.15146,93.28456,68,100,6
93.29035,93.42345,69,100,6
93.42924,93.56234,73,100,6
93.56812,93.701225,76,100,6
93.707016,93.84012,73,100,6
93.8459,93.979004,69,100,6
93.984795,94.1179,73,100,6
94.12368,94.25678,68,100,6
94.26257,94.39567,71,100,6
94.40146,94.53456,69,100,6
94.540344,94.67345,71,100,6
94.67924,94.81234,73,100,6
94.81812,94.951225,74,100,6
94.957016,95.09012,76,100,6
95.0959,95.229004,81,100,6
95.234795,95.36789,85,100,6
95.37368,95.50678,81,100,6
95.512566,95.64567,83,100,6
95.65146,95.78456,81,100,6
95.790344,95.92345,80,100,6
95.92924,96.06234,81,100,6
96.06812,96.201225,83,100,6
96.207016,96.34011,81,100,6
96.3459,96.479004,80,100,6
96.48479,96.61789,78,100,6
96.62368,96.75678,76,100,6
96.762566,96.89567,78,100,6
96.90146,97.03456,80,100,6
97.040344,97.17345,81,100,6
97.17923,97.31233,83,100,6
97.31812,97.451225,81,100,6
97.45701,97.59011,83,100,6
97.5959,97.729004,80,100,6
97.73479,98.00678,81,100,6
98.012566,98.28455,69,100,6
99.67923,99.951225,71,100,6
99.95701,100.229,71,100,6
100.23479,100.506775,71,100,6
100.512566,100.78455,71,100,6
100.790344,101.06233,71,100,6
101.068115,101.34011,71,100,6
101.345894,101.479,76,100,6
101.48479,101.61789,75,100,6
101.62367,101.89566,76,100,6
101.90145,102.17344,71,100,6
102.17923,102.45122,71,100,6
102.45701,102.729,71,100,6
102.73479,103.006775,71,100,6
103.01256,103.14566,78,100,6
103.15145,103.28455,76,100,6
103.29034,103.56233,78,100,6
103.568115,103.8401,71,100,6
103.845894,104.11788,71,100,6
104.12367,104.39566,71,100,6
104.40145,104.67344,71,100,6
104.67923,104.812325,79,100,6
104.74867,104.881775,78,100,6
104.818115,104.95122,76,100,6
104.957,105.229,78,100,6
105.23478,105.36788,78,100,6
105.30422,105.437325,76,100,6
105.37367,105.506775,75,100,6
105.51256,105.784546,76,100,6
105.79034,105.92344,76,100,6
105.85978,105.99288,75,100,6
105.92922,106.062325,73,100,6
106.068115,106.3401,75,100,6
106.345894,106.479,81,100,6
106.48478,106.61788,83,100,6
106.623665,106.75677,84,100,6
106.76256,106.89566,83,100,6
106.90144,107.034546,81,100,6
107.04034,107.17344,79,100,6
107.17922,107.45122,78,100,6
107.457,107.72899,76,100,6
107.73478,108.00677,75,100,6
108.01256,108.14566,78,100,6
108.15144,108.284546,79,100,6
108.29034,108.42344,81,100,6
108.42922,108.562325,79,100,6
108.56811,108.70121,78,100,6
108.707,108.8401,76,100,6
108.84589,109.11788,75,100,6
109.123665,109.39565,73,100,6
109.40144,109.67343,73,100,6
109.67922,109.95121,81,100,6
109.957,110.22899,78,100,6
110.23478,110.50677,75,100,6
110.51255,110.784546,71,100,6
110.79033,111.062325,78,100,6
111.06811,111.20121,83,100,6
111.207,111.340096,81,100,6
111.34589,111.47899,79,100,6
111.48477,111.617874,81,100,6
111.623665,111.75677,83,100,6
111.76255,111.89565,81,100,6
111.90144,112.034546,79,100,6
112.04033,112.17343,78,100,6
112.17922,112.45121,76,100,6
112.45699,112.72899,74,100,6
112.73477,113.00677,73,100,6
113.01255,113.14565,76,100,6
113.15144,113.28454,78,100,6
113.29033,113.42343,79,100,6
113.429214,113.56232,78,100,6
113.56811,113.70121,76,100,6
113.70699,113.840096,74,100,6
113.84589,114.117874,73,100,6
114.12366,114.39565,71,100,6
114.401436,114.67343,69,100,6
114.679214,114.95121,79,100,6
114.95699,115.22898,76,100,6
115.23477,115.50676,73,100,6
115.51255,115.78454,69,100,6
115.79033,116.06232,79,100,6
116.0681,116.340096,78,100,6
116.34588,116.47898,81,100,6
116.41533,116.54842,79,100,6
116.48477,116.617874,78,100,6
116.62366,116.89565,79,100,6
116.901436,117.03454,79,100,6
116.97088,117.10398,78,100,6
117.04032,117.17342,76,100,6
117.179214,117.4512,78,100,6
117.45699,117.590096,78,100,6
117.526436,117.65954,76,100,6
117.59588,117.72898,74,100,6
117.73477,118.00676,76,100,6
118.01254,118.145645,79,100,6
118.08199,118.215096,78,100,6
118.151436,118.28454,76,100,6
118.29032,118.56232,78,100,6
118.5681,118.7012,78,100,6
118.63754,118.770645,76,100,6
118.70699,118.84009,74,100,6
118.84588,119.11787,76,100,6
119.12366,119.25676,76,100,6
119.1931,119.3262,74,100,6
119.26254,119.395645,73,100,6
119.401436,119.67342,74,100,6
119.679214,119.81231,78,100,6
119.74866,119.88176,76,100,6
119.8181,119.9512,74,100,6
119.956985,120.22898,76,100,6
120.234764,120.36787,76,100,6
120.30421,120.43731,74,100,6
120.37366,120.50676,73,100,6
120.51254,120.78453,74,100,6
120.79032,120.92342,74,100,6
120.859764,120.99287,73,100,6
120.92921,121.06231,71,100,6
121.0681,121.2012,73,100,6
121.206985,121.34009,70,100,6
121.34588,121.47898,66,100,6
121.484764,121.61787,68,100,6
121.62366,121.75675,70,100,6
121.76254,121.895645,71,100,6
121.90143,122.03453,73,100,6
122.04032,122.17342,74,100,6
122.17921,122.31231,76,100,6
122.3181,122.4512,74,100,6
122.456985,122.59009,76,100,6
122.59587,122.72897,73,100,6
122.734764,122.86787,74,100,6
122.87365,123.00675,73,100,6
123.01254,123.145645,71,100,6
123.15143,123.28453,73,100,6
123.29032,123.42342,74,100,6
123.42921,123.56231,78,100,6
123.56809,123.701195,83,100,6
123.706985,123.84009,78,100,6
123.84587,123.97897,76,100,6
123.984764,124.11787,74,100,6
124.12365,124.25675,73,100,6
124.26254,124.395645,71,100,6
124.40143,124.53453,70,100,6
124.54031,124.673416,68,100,6
124.67921,124.81231,66,100,6
124.81809,124.951195,68,100,6
124.956985,125.09009,70,100,6
125.09587,125.22897,71,100,6
125.234764,125.36787,73,100,6
125.37365,125.50675,74,100,6
125.512535,125.64564,76,100,6
125.65143,125.78453,74,100,6
125.79031,125.923416,76,100,6
125.92921,126.06231,73,100,6
126.06809,126.201195,74,100,6
126.206985,126.34008,73,100,6
126.34587,126.47897,71,100,6
126.48476,126.61786,79,100,6
126.62365,126.75675,76,100,6
126.762535,126.89564,73,100,6
126.90143,127.03453,70,100,6
127.04031,127.173416,78,100,6
127.17921,127.3123,74,100,6
127.31809,127.451195,71,100,6
127.45698,127.59008,68,100,6
127.59587,127.72897,76,100,6
127.73476,127.86786,73,100,6
127.87365,128.00674,79,100,6
128.01254,128.14565,78,100,6
128.15143,128.28453,76,100,6
128.29031,128.42342,85,100,6
128.4292,128.5623,83,100,6
128.56808,128.70119,82,100,6
128.70699,128.84009,80,100,6
128.84587,128.97897,78,100,6
128.98476,129.11786,76,100,6
129.12364,129.25674,74,100,6
129.26253,129.39563,73,100,6
129.40143,129.53453,71,100,6
129.54031,129.67342,70,100,6
129.6792,129.8123,71,100,6
129.81808,129.95119,76,100,6
129.95699,130.09007,70,100,6
130.02643,130.15953,71,100,6
130.09587,130.22897,70,100,6
130.16531,130.29842,71,100,6
130.23476,130.36786,70,100,6
130.3042,130.4373,71,100,6
130.37364,130.50674,70,100,6
130.44308,130.57619,71,100,6
130.51253,130.78453,70,100,6
130.79031,131.0623,71,100,6
131.06808,131.34007,71,100,6
131.34587,131.61786,78,100,6
131.62364,131.89563,74,100,6
131.90143,132.17342,71,100,6
132.1792,132.72897,83,100,6
133.01253,133.14563,64,100,6
133.15141,133.28452,66,100,6
133.29031,133.42342,67,100,6
133.4292,133.5623,72,100,6
133.56808,133.70119,76,100,6
133.70697,133.84007,72,100,6
133.84587,133.97896,67,100,6
133.98476,134.11786,72,100,6
134.12364,134.25674,66,100,6
134.26253,134.39563,72,100,6
134.40141,134.53452,67,100,6
134.54031,134.67342,66,100,6
134.6792,134.8123,64,100,6
134.81808,134.95119,66,100,6
134.95697,135.09007,67,100,6
135.09586,135.22896,72,100,6
135.23476,135.36786,76,100,6
135.37364,135.50674,72,100,6
135.51253,135.64563,71,100,6
135.65141,135.78452,69,100,6
135.7903,135.9234,67,100,6
135.9292,136.0623,66,100,6
136.06808,136.20119,64,100,6
136.20697,136.34007,62,100,6
136.34586,136.47896,61,100,6
136.48476,136.61786,62,100,6
136.62364,136.75674,64,100,6
136.76253,136.89563,66,100,6
136.90141,137.03452,68,100,6
137.0403,137.1734,70,100,6
137.1792,137.3123,71,100,6
137.31808,137.45119,73,100,6
137.45697,137.59007,74,100,6
137.59586,137.72896,76,100,6
137.73474,137.86784,78,100,6
137.87364,138.00674,76,100,6
138.01253,138.14563,78,100,6
138.15141,138.28452,79,100,6
138.2903,138.4234,73,100,6
138.35974,138.49284,74,100,6
138.4292,138.56229,73,100,6
138.49864,138.63174,74,100,6
138.56808,138.70119,73,100,6
138.63753,138.77063,74,100,6
138.70697,138.84007,73,100,6
138.77641,138.90952,74,100,6
138.84586,139.11784,73,100,6
139.12364,139.39563,71,100,6
139.40141,141.06229,71,100,6
141.06808,141.20119,81,100,6
141.20697,141.34007,79,100,6
141.34586,141.47896,78,100,6
141.48474,141.61784,79,100,6
141.62363,141.75673,81,100,6
141.76253,141.89563,83,100,6
141.90141,142.03452,84,100,6
142.0403,142.1734,83,100,6
142.17918,142.31229,81,100,6
142.31808,142.45117,84,100,6
142.45697,142.59007,79,100,6
142.59586,142.72896,84,100,6
142.73474,142.86784,78,100,6
142.87363,143.00673,76,100,6
143.01253,143.14563,75,100,6
143.15141,143.28452,76,100,6
143.2903,143.4234,78,100,6
143.42918,143.56229,79,100,6
143.56807,143.70117,81,100,6
143.70697,143.84007,79,100,6
143.84586,143.97896,78,100,6
143.98474,144.11784,81,100,6
144.12363,144.25673,76,100,6
144.26251,144.39561,81,100,6
144.40141,144.53452,75,100,6
144.5403,144.6734,76,100,6
144.67918,144.81229,78,100,6
144.81807,144.95117,76,100,6
144.95697,145.09007,75,100,6
145.09586,145.22896,73,100,6
145.23474,145.36784,71,100,6
145.37363,145.50673,69,100,6
145.51251,145.64561,67,100,6
145.65141,145.78452,66,100,6
145.7903,145.9234,64,100,6
145.92918,146.06229,63,100,6
146.06807,146.34006,64,100,6
146.34586,146.61784,79,100,6
146.62363,146.89561,79,100,6
146.90141,147.1734,79,100,6
147.17918,147.45117,79,100,6
147.45695,147.72896,79,100,6
147.73474,148.00673,79,100,6
148.01251,148.14561,83,100,6
148.1514,148.2845,81,100,6
148.2903,148.56229,79,100,6
148.56807,148.84006,79,100,6
148.84586,149.11784,79,100,6
149.12363,149.39561,79,100,6
149.4014,149.6734,79,100,6
149.67918,149.81229,76,100,6
149.81807,149.95117,78,100,6
149.95695,150.22894,79,100,6
150.23474,150.36784,78,100,6
150.37363,150.50673,79,100,6
150.51251,150.7845,81,100,6
150.7903,151.06229,76,100,6
151.06807,151.20117,78,100,6
151.20695,151.34006,76,100,6
151.34584,151.47894,74,100,6
151.48474,151.61784,76,100,6
151.62363,151.75673,78,100,6
151.76251,151.89561,79,100,6
151.9014,152.0345,81,100,6
152.04028,152.17339,79,100,6
152.17918,152.31229,78,100,6
152.31807,152.45117,81,100,6
152.45695,152.59006,76,100,6
152.59584,152.72894,81,100,6
152.73473,152.86783,74,100,6
152.87363,153.00673,73,100,6
153.01251,153.14561,71,100,6
153.1514,153.2845,73,100,6
153.29028,153.42339,74,100,6
153.42918,153.56229,76,100,6
153.56807,153.70117,78,100,6
153.70695,153.84006,76,100,6
153.84584,153.97894,74,100,6
153.98473,154.11783,78,100,6
154.12363,154.25673,73,100,6
154.26251,154.39561,78,100,6
154.4014,154.5345,71,100,6
154.54028,154.67339,73,100,6
154.67917,154.81227,74,100,6
154.81807,154.95117,73,100,6
154.95695,155.09006,71,100,6
155.09584,155.22894,69,100,6
155.23473,155.36783,68,100,6
155.37363,155.50671,66,100,6
155.51251,155.64561,64,100,6
155.6514,155.7845,62,100,6
155.79028,155.92339,61,100,6
155.92917,156.06227,59,100,6
156.06807,156.20117,61,100,6
156.20695,156.34006,64,100,6
156.34584,156.47894,69,100,6
156.48473,156.61783,68,100,6
156.62361,156.75671,69,100,6
156.76251,156.89561,73,100,6
156.9014,157.0345,76,100,6
157.04028,157.17339,73,100,6
157.17917,157.31227,69,100,6
157.31807,157.45116,73,100,6
157.45695,157.59006,68,100,6
157.59584,157.72894,71,100,6
157.73473,157.86783,69,100,6
157.87361,158.00671,71,100,6
158.01251,158.14561,73,100,6
158.1514,158.2845,74,100,6
158.29028,158.42339,76,100,6
158.42917,158.56227,81,100,6
158.56805,158.70116,85,100,6
158.70695,158.84006,81,100,6
158.84584,158.97894,83,100,6
158.98473,159.11783,81,100,6
159.12361,159.25671,80,100,6
159.26251,159.3956,81,100,6
159.4014,159.5345,83,100,6
159.54028,159.67339,81,100,6
159.67917,159.81227,80,100,6
159.81805,159.95116,78,100,6
159.95695,160.09006,76,100,6
160.09584,160.22894,78,100,6
160.23473,160.36783,80,100,6
160.37361,160.50671,81,100,6
160.5125,160.6456,83,100,6
160.6514,160.7845,81,100,6
160.79028,160.92339,83,100,6
160.92917,161.06227,80,100,6
161.06805,161.34004,81,100,6
161.34584,161.61783,69,100,6
163.0125,163.28448,71,100,6
163.29028,163.56227,71,100,6
163.56805,163.84004,71,100,6
163.84584,164.11783,71,100,6
164.12361,164.3956,71,100,6
164.40138,164.67339,71,100,6
164.67917,164.81227,76,100,6
164.81805,164.95116,75,100,6
164.95694,165.22893,76,100,6
165.23473,165.50671,71,100,6
165.5125,165.78448,71,100,6
165.79028,166.06227,71,100,6
166.06805,166.34004,71,100,6
166.34583,166.47893,78,100,6
166.48473,166.61783,76,100,6
166.62361,166.8956,78,100,6
166.90138,167.17337,71,100,6
167.17917,167.45116,71,100,6
167.45694,167.72893,71,100,6
167.73473,168.00671,71,100,6
168.0125,168.1456,79,100,6
168.08194,168.21504,78,100,6
168.15138,168.28448,76,100,6
168.29027,168.56227,78,100,6
168.56805,168.70116,78,100,6
168.6375,168.7706,76,100,6
168.70694,168.84004,75,100,6
168.84583,169.11781,76,100,6
169.12361,169.25671,76,100,6
169.19305,169.32616,75,100,6
169.2625,169.3956,73,100,6
169.40138,169.67337,75,100,6
169.67915,169.81226,81,100,6
169.81805,169.95116,83,100,6
169.95694,170.09004,84,100,6
170.09583,170.22893,83,100,6
170.23471,170.36781,81,100,6
170.37361,170.50671,79,100,6
170.5125,170.78448,78,100,6
170.79027,171.06226,76,100,6
171.06805,171.34004,75,100,6
171.34583,171.47893,78,100,6
171.48471,171.61781,79,100,6
171.6236,171.7567,81,100,6
171.7625,171.8956,79,100,6
171.90138,172.03448,78,100,6
172.04027,172.17337,76,100,6
172.17915,172.45114,75,100,6
172.45694,172.72893,73,100,6
172.73471,173.0067,73,100,6
173.0125,173.28448,81,100,6
173.29027,173.56226,78,100,6
173.56804,173.84004,75,100,6
173.84583,174.11781,71,100,6
174.1236,174.39558,78,100,6
174.40138,174.53448,83,100,6
174.54027,174.67337,81,100,6
174.67915,174.81226,79,100,6
174.81804,174.95114,81,100,6
174.95694,175.09004,83,100,6
175.09583,175.22893,81,100,6
175.23471,175.36781,79,100,6
175.3736,175.5067,78,100,6
175.51248,175.78448,76,100,6
175.79027,176.06226,74,100,6
176.06804,176.34003,73,100,6
176.34583,176.47893,76,100,6
176.48471,176.61781,78,100,6
176.6236,176.7567,79,100,6
176.76248,176.89558,78,100,6
176.90138,177.03448,76,100,6
177.04027,177.17337,74,100,6
177.17915,177.45114,73,100,6
177.45692,177.72893,71,100,6
177.73471,178.0067,69,100,6
178.01248,178.28447,79,100,6
178.29027,178.56226,76,100,6
178.56804,178.84003,73,100,6
178.84583,179.11781,69,100,6
179.1236,179.39558,79,100,6
179.40137,179.67337,78,100,6
179.67915,179.81226,81,100,6
179.7486,179.8817,79,100,6
179.81804,179.95114,78,100,6
179.95692,180.22891,79,100,6
180.23471,180.36781,79,100,6
180.30415,180.43726,78,100,6
180.3736,180.5067,76,100,6
180.51248,180.78447,78,100,6
180.79027,180.92336,78,100,6
180.85971,180.99281,76,100,6
180.92915,181.06226,74,100,6
181.06804,181.34003,76,100,6
181.34581,181.47891,79,100,6
181.41527,181.54836,78,100,6
181.48471,181.61781,76,100,6
181.6236,181.89558,78,100,6
181.90137,182.03447,78,100,6
181.97081,182.10391,76,100,6
182.04025,182.17336,74,100,6
182.17915,182.45114,76,100,6
182.45692,182.59003,76,100,6
182.52637,182.65947,74,100,6
182.59581,182.72891,73,100,6
182.73471,183.0067,74,100,6
183.01248,183.14558,78,100,6
183.08192,183.21503,76,100,6
183.15137,183.28447,74,100,6
183.29025,183.56226,76,100,6
183.56804,183.70114,76,100,6
183.63748,183.77058,74,100,6
183.70692,183.84003,73,100,6
183.84581,184.1178,74,100,6
184.1236,184.2567,74,100,6
184.19304,184.32614,73,100,6
184.26248,184.39558,71,100,6
184.40137,184.53447,73,100,6
184.54025,184.67336,70,100,6
184.67915,184.81224,66,100,6
184.81804,184.95114,68,100,6
184.95692,185.09003,70,100,6
185.09581,185.22891,71,100,6
185.2347,185.3678,73,100,6
185.3736,185.5067,74,100,6
185.51248,185.64558,76,100,6
185.65137,185.78447,74,100,6
185.79025,185.92336,76,100,6
185.92914,186.06224,73,100,6
186.06804,186.20114,74,100,6
186.20692,186.34003,73,100,6
186.34581,186.47891,71,100,6
186.4847,186.6178,73,100,6
186.62358,186.75668,74,100,6
186.76248,186.89558,78,100,6
186.90137,187.03447,83,100,6
187.04025,187.17336,78,100,6
187.17914,187.31224,76,100,6
187.31804,187.45114,74,100,6
187.45692,187.59003,73,100,6
187.59581,187.72891,71,100,6
187.7347,187.8678,70,100,6
187.87358,188.00668,68,100,6
188.01248,188.14558,66,100,6
188.15137,188.28447,68,100,6
188.29025,188.42336,70,100,6
188.42914,188.56224,71,100,6
188.56802,188.70113,73,100,6
188.70692,188.84003,74,100,6
188.84581,188.97891,76,100,6
188.9847,189.1178,74,100,6
189.12358,189.25668,76,100,6
189.26248,189.39557,73,100,6
189.40137,189.53447,74,100,6
189.54025,189.67336,73,100,6
189.67914,189.81224,71,100,6
189.81802,189.95113,79,100,6
189.95692,190.09003,76,100,6
190.09581,190.22891,73,100,6
190.2347,190.3678,70,100,6
190.37358,190.50668,78,100,6
190.51247,190.64557,74,100,6
190.65137,190.78447,71,100,6
190.79025,190.92336,68,100,6
190.92914,191.06224,76,100,6
191.06802,191.20113,73,100,6
191.20692,191.34001,79,100,6
191.34581,191.47891,78,100,6
191.4847,191.6178,76,100,6
191.62358,191.75668,85,100,6
191.76247,191.89557,83,100,6
191.90137,192.03447,82,100,6
192.04025,192.17336,80,100,6
192.17914,192.31224,78,100,6
192.31802,192.45113,76,100,6
192.45691,192.59001,74,100,6
192.59581,192.72891,73,100,6
192.7347,192.8678,71,100,6
192.87358,193.00668,70,100,6
193.01247,193.14557,71,100,6
193.15137,193.28445,76,100,6
193.29025,193.42336,70,100,6
193.3597,193.4928,71,100,6
193.42914,193.56224,70,100,6
193.49858,193.63168,71,100,6
193.56802,193.70113,70,100,6
193.63747,193.77057,71,100,6
193.70691,193.84001,70,100,6
193.77635,193.90945,71,100,6
193.84581,194.1178,70,100,6
194.12358,194.39557,71,100,6
194.40135,194.67336,71,100,6
194.67914,194.95113,78,100,6
194.95691,195.2289,74,100,6
195.2347,195.50668,71,100,6
195.51247,196.06224,83,100,6
196.3458,196.4789,64,100,6
196.4847,196.6178,66,100,6
196.62358,196.75668,67,100,6
196.76247,196.89557,72,100,6
196.90135,197.03445,76,100,6
197.04024,197.17334,72,100,6
197.17914,197.31224,67,100,6
197.31802,197.45113,72,100,6
197.45691,197.59001,66,100,6
197.5958,197.7289,72,100,6
197.7347,197.86778,67,100,6
197.87358,198.00668,66,100,6
198.01247,198.14557,64,100,6
198.15135,198.28445,66,100,6
198.29024,198.42334,67,100,6
198.42914,198.56224,72,100,6
198.56802,198.70113,76,100,6
198.70691,198.84001,72,100,6
198.8458,198.9789,71,100,6
198.98468,199.11778,69,100,6
199.12358,199.25668,67,100,6
199.26247,199.39557,66,100,6
199.40135,199.53445,64,100,6
199.54024,199.67334,62,100,6
199.67914,199.81223,61,100,6
199.81802,199.95113,62,100,6
199.95691,200.09001,64,100,6
200.0958,200.2289,66,100,6
200.23468,200.36778,68,100,6
200.37358,200.50668,70,100,6
200.51247,200.64557,71,100,6
200.65135,200.78445,73,100,6
200.79024,200.92334,74,100,6
200.92912,201.06223,76,100,6
201.06802,201.20363,78,100,6
201.20953,201.34514,76,100,6
201.35104,201.49197,78,100,6
201.4981,201.63902,79,100,6
201.64516,201.79184,73,100,6
201.72168,201.86836,74,100,6
201.79822,201.9449,73,100,6
201.87474,202.02441,74,100,6
201.95128,202.1042,73,100,6
202.03107,202.18399,74,100,6
202.11086,202.26378,73,100,6
202.19064,202.34856,74,100,6
202.27043,202.60423,73,100,6
202.61133,203.1156,71,100,6
203.1227,207.03604,71,100,6
0.0,0.549768,59,100,6
0.8333325,1.105323,47,100,6
1.11111,1.3831005,59,100,6
1.3888875,1.660878,58,100,6
1.666665,2.216433,59,100,6
2.4999976,2.6330993,47,100,6
2.6388862,2.771988,49,100,6
2.777775,3.0497656,50,100,6
3.0555525,3.327543,52,100,6
3.33333,3.883098,54,100,6
4.1666627,4.299764,58,100,6
4.305551,4.438653,56,100,6
4.44444,4.7164307,58,100,6
4.7222176,4.994208,54,100,6
4.999995,5.2719855,47,100,6
5.2777724,5.549763,54,100,6
5.55555,5.8275404,45,100,6
5.8333273,6.105318,54,100,6
6.111105,6.3830953,44,100,6
6.3888826,6.660873,53,100,6
6.66666,7.216428,42,100,6
7.4999924,7.771983,42,100,6
7.77777,8.049761,54,100,6
8.055548,8.327538,53,100,6
8.333325,8.883093,54,100,6
9.166657,9.299759,42,100,6
9.305546,9.438648,44,100,6
9.444435,9.716426,45,100,6
9.722213,9.994203,47,100,6
9.99999,10.549758,49,100,6
10.833323,10.966424,53,100,6
10.972211,11.105313,51,100,6
11.1111,11.38309,53,100,6
11.388878,11.660868,49,100,6
11.666655,11.938645,54,100,6
11.944432,12.216423,61,100,6
12.22221,12.494201,52,100,6
12.499988,12.771978,61,100,6
12.777765,13.049755,50,100,6
13.055543,13.327533,59,100,6
13.33332,13.60531,49,100,6
13.611097,13.883088,57,100,6
13.888875,14.160866,56,100,6
14.166653,14.4386425,54,100,6
14.44443,14.71642,61,100,6
14.722207,14.994198,49,100,6
14.999985,15.2719755,42,100,6
15.277762,15.549753,54,100,6
15.55554,15.827531,54,100,6
15.833318,16.105309,54,100,6
16.111095,16.383085,54,100,6
16.388872,16.660864,54,100,6
16.66665,16.93864,54,100,6
16.944427,17.07753,59,100,6
17.083317,17.216417,58,100,6
17.222204,17.494196,59,100,6
17.499983,17.771973,54,100,6
17.77776,18.049751,54,100,6
18.055538,18.327528,54,100,6
18.333315,18.605305,54,100,6
18.611092,18.744194,61,100,6
18.74998,18.883083,59,100,6
18.88887,19.16086,61,100,6
19.166647,19.438639,54,100,6
19.444426,19.716415,54,100,6
19.722202,19.994192,54,100,6
19.99998,20.27197,54,100,6
20.277758,20.41086,62,100,6
20.347202,20.480303,61,100,6
20.416647,20.549747,59,100,6
20.555534,20.827526,61,100,6
20.833313,20.966413,61,100,6
20.902758,21.035858,59,100,6
20.9722,21.105303,57,100,6
21.11109,21.38308,59,100,6
21.388868,21.521969,59,100,6
21.458311,21.591413,57,100,6
21.527756,21.660858,55,100,6
21.666645,21.938635,57,100,6
21.944422,22.077524,59,100,6
22.013866,22.146969,57,100,6
22.083311,22.216413,55,100,6
22.2222,22.49419,57,100,6
22.499977,22.63308,57,100,6
22.569422,22.702524,55,100,6
22.638866,22.771969,54,100,6
22.777756,23.049746,55,100,6
23.055532,23.188635,55,100,6
23.124977,23.25808,54,100,6
23.194422,23.327522,52,100,6
23.33331,23.6053,54,100,6
23.611088,23.744188,55,100,6
23.680532,23.813633,54,100,6
23.749977,23.883078,52,100,6
23.888865,24.160856,54,100,6
24.166643,24.299744,54,100,6
24.236088,24.369188,52,100,6
24.30553,24.438633,50,100,6
24.44442,24.71641,52,100,6
24.722197,24.855299,52,100,6
24.791641,24.924744,50,100,6
24.861086,24.994188,49,100,6
24.999975,25.133078,50,100,6
25.138865,25.271965,49,100,6
25.277752,25.410854,47,100,6
25.416641,25.549744,49,100,6
25.55553,25.688631,50,100,6
25.694418,25.82752,54,100,6
25.833307,25.96641,59,100,6
25.972197,26.105297,54,100,6
26.111086,26.244186,50,100,6
26.249973,26.383076,54,100,6
26.388863,26.521965,49,100,6
26.527752,26.660852,54,100,6
26.66664,26.799742,50,100,6
26.805529,26.938631,49,100,6
26.944418,27.077518,47,100,6
27.083305,27.216408,49,100,6
27.222195,27.355297,50,100,6
27.361084,27.494186,54,100,6
27.499973,27.633074,59,100,6
27.63886,27.771963,54,100,6
27.77775,27.910852,52,100,6
27.91664,28.04974,50,100,6
28.055527,28.18863,49,100,6
28.194416,28.327518,47,100,6
28.333305,28.466406,46,100,6
28.472195,28.605295,44,100,6
28.611082,28.744184,42,100,6
28.749971,28.883074,44,100,6
28.88886,29.021961,46,100,6
29.027748,29.16085,47,100,6
29.166637,29.29974,49,100,6
29.305527,29.438627,50,100,6
29.444414,29.577517,52,100,6
29.583303,29.716406,50,100,6
29.722193,29.855293,52,100,6
29.861082,29.994183,49,100,6
29.99997,30.133072,50,100,6
30.138859,30.271961,49,100,6
30.277748,30.410849,47,100,6
30.416636,30.549738,55,100,6
30.555525,30.688627,45,100,6
30.694414,30.827515,54,100,6
30.833303,30.966404,52,100,6
30.97219,31.105293,54,100,6
31.11108,31.244183,43,100,6
31.24997,31.38307,52,100,6
31.388857,31.52196,50,100,6
31.527746,31.660849,52,100,6
31.666636,32.49418,42,100,6
32.499966,32.771957,52,100,6
32.777744,33.049736,50,100,6
33.055523,33.327515,47,100,6
33.3333,33.60529,55,100,6
33.611076,33.883068,52,100,6
33.888855,34.165977,54,100,6
34.171875,34.448997,52,100,6
34.45489,34.732014,54,100,6
34.73791,35.015034,42,100,6
35.020927,35.58107,47,100,6
35.881084,36.18083,59,100,6
36.187206,36.513596,57,100,6
36.52054,36.846928,55,100,6
36.85387,38.846924,54,100,6
38.85387,39.403637,59,100,6
39.687202,39.959194,47,100,6
39.96498,40.23697,59,100,6
40.242756,40.514748,58,100,6
40.520535,41.0703,59,100,6
41.353867,41.48697,47,100,6
41.492756,41.62586,49,100,6
41.631645,41.903633,50,100,6
41.909424,42.18141,52,100,6
42.1872,42.73697,54,100,6
43.02053,43.153633,58,100,6
43.15942,43.292522,56,100,6
43.29831,43.5703,58,100,6
43.576088,43.848076,54,100,6
43.853863,44.125854,47,100,6
44.13164,44.403633,54,100,6
44.40942,44.68141,45,100,6
44.6872,44.959187,54,100,6
44.964973,45.236965,44,100,6
45.242752,45.514744,53,100,6
45.52053,46.070297,42,100,6
46.353863,46.62585,42,100,6
46.63164,46.90363,54,100,6
46.909416,47.181408,53,100,6
47.187195,47.73696,54,100,6
48.020527,48.15363,42,100,6
48.159416,48.29252,44,100,6
48.298306,48.570293,45,100,6
48.57608,48.848072,47,100,6
48.85386,49.40363,49,100,6
49.68719,49.820293,53,100,6
49.82608,49.959183,51,100,6
49.96497,50.23696,53,100,6
50.24275,50.514736,49,100,6
50.520523,50.792515,54,100,6
50.7983,51.070293,61,100,6
51.07608,51.34807,52,100,6
51.353855,51.625847,61,100,6
51.631634,51.903625,50,100,6
51.909412,52.181404,59,100,6
52.18719,52.45918,49,100,6
52.464966,52.736958,57,100,6
52.742744,53.014736,56,100,6
53.020523,53.29251,54,100,6
53.298298,53.57029,61,100,6
53.576077,53.84807,49,100,6
53.853855,54.125847,42,100,6
54.131634,54.40362,54,100,6
54.40941,54.6814,54,100,6
54.687187,54.95918,54,100,6
54.964966,55.236954,54,100,6
55.24274,55.514732,54,100,6
55.52052,55.79251,54,100,6
55.798298,55.9314,59,100,6
55.937187,56.070286,58,100,6
56.076073,56.348064,59,100,6
56.35385,56.625843,54,100,6
56.63163,56.90362,54,100,6
56.90941,57.181396,54,100,6
57.187183,57.459175,54,100,6
57.464962,57.598064,61,100,6
57.60385,57.736954,59,100,6
57.74274,58.01473,61,100,6
58.020515,58.292507,54,100,6
58.298294,58.570286,54,100,6
58.576073,58.84806,54,100,6
58.85385,59.12584,54,100,6
59.131626,59.26473,62,100,6
59.201073,59.33417,61,100,6
59.270515,59.403618,59,100,6
59.409405,59.681396,61,100,6
59.687183,59.820282,61,100,6
59.756626,59.88973,59,100,6
59.82607,59.95917,57,100,6
59.96496,60.23695,59,100,6
60.242737,60.37584,59,100,6
60.31218,60.445282,57,100,6
60.381626,60.51473,55,100,6
60.520515,60.792503,57,100,6
60.79829,60.931393,59,100,6
60.867737,61.00084,57,100,6
60.93718,61.070282,55,100,6
61.07607,61.34806,57,100,6
61.353848,61.48695,57,100,6
61.42329,61.556393,55,100,6
61.492737,61.62584,54,100,6
61.631626,61.903614,55,100,6
61.9094,62.042503,55,100,6
61.978848,62.11195,54,100,6
62.04829,62.181393,52,100,6
62.18718,62.45917,54,100,6
62.46496,62.59806,55,100,6
62.5344,62.667503,54,100,6
62.603848,62.736946,52,100,6
62.742733,63.014725,54,100,6
63.02051,63.153614,54,100,6
63.08996,63.223057,52,100,6
63.1594,63.292503,50,100,6
63.29829,63.57028,52,100,6
63.57607,63.709167,52,100,6
63.64551,63.778614,50,100,6
63.714954,63.848057,49,100,6
63.853844,63.986946,50,100,6
63.992733,64.12583,49,100,6
64.13162,64.264725,47,100,6
64.27051,64.40361,49,100,6
64.4094,64.5425,50,100,6
64.54829,64.68139,54,100,6
64.68718,64.82028,59,100,6
64.826065,64.95917,54,100,6
64.96496,65.09805,50,100,6
65.10384,65.236946,54,100,6
65.24273,65.37583,49,100,6
65.38162,65.514725,54,100,6
65.52051,65.65361,50,100,6
65.6594,65.7925,49,100,6
65.79829,65.93139,47,100,6
65.93717,66.070274,49,100,6
66.076065,66.20917,50,100,6
66.21495,66.34805,54,100,6
66.35384,66.486946,59,100,6
66.49273,66.62583,54,100,6
66.63162,66.764725,52,100,6
66.77051,66.90361,50,100,6
66.90939,67.042496,49,100,6
67.04829,67.18139,47,100,6
67.18717,67.320274,46,100,6
67.326065,67.45917,44,100,6
67.46495,67.59805,42,100,6
67.60384,67.736946,44,100,6
67.74273,67.87583,46,100,6
67.881615,68.01472,47,100,6
68.02051,68.15361,49,100,6
68.15939,68.292496,50,100,6
68.29829,68.43139,52,100,6
68.43717,68.570274,50,100,6
68.576065,68.70917,52,100,6
68.71495,68.84805,49,100,6
68.853836,68.98694,50,100,6
68.99273,69.12583,49,100,6
69.131615,69.26472,47,100,6
69.27051,69.40361,55,100,6
69.40939,69.542496,45,100,6
69.54829,69.68138,54,100,6
69.68717,69.820274,52,100,6
69.82606,69.95916,54,100,6
69.96495,70.09805,43,100,6
70.103836,70.23694,52,100,6
70.24273,70.37583,50,100,6
70.381615,70.51472,52,100,6
70.52051,71.34805,42,100,6
71.353836,71.625824,52,100,6
71.631615,71.9036,50,100,6
71.90939,72.18138,47,100,6
72.18717,72.45916,55,100,6
72.46495,72.73694,52,100,6
72.74272,73.019844,54,100,6
73.02574,73.302864,52,100,6
73.30876,73.585884,54,100,6
73.59178,73.868904,42,100,6
73.8748,74.43494,47,100,6
74.729294,75.02305,59,100,6
75.0293,75.3418,57,100,6
75.34844,75.68225,55,100,6
75.689354,77.72771,54,100,6
77.73481,78.28458,54,100,6
78.56814,78.70124,57,100,6
78.70703,78.84013,55,100,6
78.84592,79.11791,54,100,6
79.123695,79.39568,52,100,6
79.401474,79.95124,51,100,6
80.2348,80.367905,54,100,6
80.373695,80.5068,52,100,6
80.51258,80.78458,51,100,6
80.79036,81.062355,49,100,6
81.06814,81.340126,47,100,6
81.34592,81.617905,57,100,6
81.623695,81.89568,54,100,6
81.901474,82.17346,51,100,6
82.179245,82.45124,47,100,6
82.45702,82.72902,59,100,6
82.7348,83.28457,52,100,6
83.56814,83.70124,55,100,6
83.70702,83.840126,54,100,6
83.84592,84.117905,52,100,6
84.12369,84.39568,50,100,6
84.40147,84.95123,49,100,6
85.2348,85.367905,52,100,6
85.37369,85.50679,50,100,6
85.51258,85.78457,49,100,6
85.79036,86.06235,47,100,6
86.06813,86.340126,45,100,6
86.34591,86.617905,55,100,6
86.62369,86.895676,52,100,6
86.90147,87.173454,49,100,6
87.179245,87.45123,45,100,6
87.45702,87.72901,57,100,6
87.7348,88.00679,50,100,6
88.01257,88.28457,50,100,6
88.29035,88.56235,50,100,6
88.56813,88.84012,50,100,6
88.84591,89.1179,50,100,6
89.12369,89.395676,50,100,6
89.40147,89.673454,50,100,6
89.67924,89.81234,54,100,6
89.81813,89.95123,52,100,6
89.957016,90.22901,50,100,6
90.234795,90.50679,50,100,6
90.51257,90.78456,50,100,6
90.79035,91.06234,50,100,6
91.06813,91.34012,50,100,6
91.34591,91.479004,47,100,6
91.484795,91.6179,49,100,6
91.62368,91.895676,50,100,6
91.90146,92.03456,52,100,6
92.04035,92.173454,54,100,6
92.17924,92.451225,56,100,6
92.457016,92.729004,52,100,6
92.734795,93.00678,57,100,6
93.01257,93.145676,45,100,6
93.15146,93.28456,47,100,6
93.29035,93.42345,49,100,6
93.42924,93.56234,52,100,6
93.56812,93.701225,57,100,6
93.707016,93.84012,52,100,6
93.8459,93.979004,49,100,6
93.984795,94.1179,52,100,6
94.12368,94.25678,47,100,6
94.26257,94.39567,52,100,6
94.40146,94.53456,49,100,6
94.540344,94.67345,47,100,6
94.67924,94.81234,45,100,6
94.81812,94.951225,47,100,6
94.957016,95.09012,49,100,6
95.0959,95.229004,52,100,6
95.234795,95.36789,57,100,6
95.37368,95.50678,52,100,6
95.512566,95.64567,50,100,6
95.65146,95.78456,49,100,6
95.790344,95.92345,47,100,6
95.92924,96.06234,45,100,6
96.06812,96.201225,44,100,6
96.207016,96.34011,42,100,6
96.3459,96.479004,40,100,6
96.48479,96.61789,42,100,6
96.62368,96.75678,44,100,6
96.762566,96.89567,45,100,6
96.90146,97.03456,47,100,6
97.040344,97.17345,49,100,6
97.17923,97.31233,50,100,6
97.31812,97.451225,49,100,6
97.45701,97.59011,50,100,6
97.5959,97.729004,47,100,6
97.73479,98.00678,49,100,6
98.012566,98.28455,54,100,6
98.290344,98.56233,51,100,6
98.56812,98.701225,47,100,6
98.70701,98.84011,49,100,6
98.8459,99.11789,51,100,6
99.12367,99.39567,47,100,6
99.40145,99.951225,52,100,6
100.23479,100.506775,52,100,6
100.512566,100.78455,64,100,6
100.790344,101.06233,63,100,6
101.068115,101.61789,64,100,6
101.90145,102.03455,52,100,6
102.04034,102.17344,54,100,6
102.17923,102.45122,55,100,6
102.45701,102.729,57,100,6
102.73479,103.28455,59,100,6
103.568115,103.70122,63,100,6
103.70701,103.8401,61,100,6
103.845894,104.11788,63,100,6
104.12367,104.39566,59,100,6
104.40145,104.67344,52,100,6
104.67923,104.95122,61,100,6
104.957,105.229,50,100,6
105.23478,105.506775,59,100,6
105.51256,105.784546,49,100,6
105.79034,106.062325,57,100,6
106.068115,106.3401,47,100,6
106.345894,106.61788,57,100,6
106.623665,106.89566,57,100,6
106.90144,107.17344,57,100,6
107.17922,107.45122,57,100,6
107.457,107.72899,57,100,6
107.73478,108.00677,57,100,6
108.01256,108.14566,60,100,6
108.15144,108.284546,59,100,6
108.29034,108.562325,57,100,6
108.56811,108.8401,57,100,6
108.84589,109.11788,57,100,6
109.123665,109.39565,57,100,6
109.40144,109.67343,57,100,6
109.67922,109.812325,54,100,6
109.81811,109.95121,55,100,6
109.957,110.22899,57,100,6
110.23478,110.367874,55,100,6
110.373665,110.50677,57,100,6
110.51255,110.784546,59,100,6
110.79033,111.062325,54,100,6
111.06811,111.20121,55,100,6
111.207,111.340096,54,100,6
111.34589,111.47899,52,100,6
111.48477,111.617874,54,100,6
111.623665,111.75677,55,100,6
111.76255,111.89565,57,100,6
111.90144,112.034546,59,100,6
112.04033,112.17343,57,100,6
112.17922,112.31232,55,100,6
112.31811,112.45121,59,100,6
112.45699,112.590096,54,100,6
112.59589,112.72899,59,100,6
112.73477,112.867874,52,100,6
112.873665,113.00677,50,100,6
113.01255,113.14565,49,100,6
113.15144,113.28454,50,100,6
113.29033,113.42343,52,100,6
113.429214,113.56232,54,100,6
113.56811,113.70121,55,100,6
113.70699,113.840096,54,100,6
113.84589,113.97899,52,100,6
113.98477,114.117874,55,100,6
114.12366,114.25676,50,100,6
114.26255,114.39565,55,100,6
114.401436,114.53454,49,100,6
114.54033,114.67343,50,100,6
114.679214,114.81232,52,100,6
114.81811,114.95121,50,100,6
114.95699,115.090096,49,100,6
115.09588,115.22898,47,100,6
115.23477,115.367874,45,100,6
115.37366,115.50676,43,100,6
115.51255,115.64565,42,100,6
115.651436,115.78454,40,100,6
115.79033,115.92343,38,100,6
115.929214,116.06232,37,100,6
116.0681,116.617874,38,100,6
117.179214,117.72898,50,100,6
117.73477,118.28454,57,100,6
118.84588,119.395645,58,100,6
119.401436,119.9512,59,100,6
120.51254,121.06231,47,100,6
121.0681,121.34009,42,100,6
121.34588,121.61787,54,100,6
121.62366,121.895645,54,100,6
121.90143,122.17342,54,100,6
122.17921,122.4512,54,100,6
122.456985,122.72897,54,100,6
122.734764,123.00675,54,100,6
123.01254,123.145645,59,100,6
123.15143,123.28453,58,100,6
123.29032,123.56231,59,100,6
123.56809,123.84009,54,100,6
123.84587,124.11787,54,100,6
124.12365,124.395645,54,100,6
124.40143,124.673416,54,100,6
124.67921,124.81231,61,100,6
124.81809,124.951195,59,100,6
124.956985,125.22897,61,100,6
125.234764,125.50675,54,100,6
125.512535,125.78453,54,100,6
125.79031,126.06231,54,100,6
126.06809,126.34008,54,100,6
126.34587,126.47897,62,100,6
126.41531,126.548416,61,100,6
126.48476,126.61786,59,100,6
126.62365,126.89564,61,100,6
126.90143,127.03453,61,100,6
126.97087,127.10397,59,100,6
127.04031,127.173416,58,100,6
127.17921,127.451195,59,100,6
127.45698,127.59008,59,100,6
127.52643,127.65953,58,100,6
127.59587,127.72897,56,100,6
127.73476,128.5623,58,100,6
128.56808,128.84009,54,100,6
128.84587,129.11786,59,100,6
129.12364,129.39563,54,100,6
129.40143,129.67342,55,100,6
129.6792,129.95119,52,100,6
129.95699,130.22897,54,100,6
130.23476,130.50674,52,100,6
130.51253,130.78453,54,100,6
130.79031,131.0623,42,100,6
131.06808,131.61786,47,100,6
131.90143,132.03452,59,100,6
132.04031,132.17342,61,100,6
132.1792,132.3123,59,100,6
132.31808,132.45119,57,100,6
132.45697,132.59007,55,100,6
132.59587,132.72897,54,100,6
132.73476,133.28452,52,100,6
133.56808,133.84007,40,100,6
133.84587,134.11786,52,100,6
134.12364,134.39563,51,100,6
134.40141,134.95119,52,100,6
135.23476,135.36786,52,100,6
135.37364,135.50674,51,100,6
135.51253,135.78452,52,100,6
135.7903,136.0623,54,100,6
136.06808,136.34007,55,100,6
136.34586,136.61786,52,100,6
136.62364,136.89563,58,100,6
136.90141,137.1734,54,100,6
137.1792,137.45119,59,100,6
137.45697,137.72896,54,100,6
137.73474,138.00674,50,100,6
138.01253,138.28452,52,100,6
138.2903,138.56229,54,100,6
138.56808,138.84007,52,100,6
138.84586,139.11784,54,100,6
139.12364,139.39563,42,100,6
139.40141,141.06229,47,100,6
141.06808,141.61784,54,100,6
141.90141,142.03452,57,100,6
142.0403,142.1734,55,100,6
142.17918,142.45117,54,100,6
142.45697,142.72896,52,100,6
142.73474,143.28452,51,100,6
143.56807,143.70117,54,100,6
143.70697,143.84007,52,100,6
143.84586,144.11784,51,100,6
144.12363,144.39561,49,100,6
144.40141,144.6734,47,100,6
144.67918,144.95117,57,100,6
144.95697,145.22896,54,100,6
145.23474,145.50673,51,100,6
145.51251,145.78452,47,100,6
145.7903,146.06229,59,100,6
146.06807,146.61784,52,100,6
146.90141,147.0345,55,100,6
147.0403,147.1734,54,100,6
147.17918,147.45117,52,100,6
147.45695,147.72896,50,100,6
147.73474,148.2845,49,100,6
148.56807,148.70117,52,100,6
148.70695,148.84006,50,100,6
148.84586,149.11784,49,100,6
149.12363,149.39561,47,100,6
149.4014,149.6734,45,100,6
149.67918,149.95117,55,100,6
149.95695,150.22894,52,100,6
150.23474,150.50673,49,100,6
150.51251,150.7845,45,100,6
150.7903,151.06229,57,100,6
151.06807,151.34006,50,100,6
151.34584,151.61784,50,100,6
151.62363,151.89561,50,100,6
151.9014,152.17339,50,100,6
152.17918,152.45117,50,100,6
152.45695,152.72894,50,100,6
152.73473,153.00673,50,100,6
153.01251,153.14561,54,100,6
153.1514,153.2845,52,100,6
153.29028,153.56229,50,100,6
153.56807,153.84006,50,100,6
153.84584,154.11783,50,100,6
154.12363,154.39561,50,100,6
154.4014,154.67339,50,100,6
154.67917,154.81227,47,100,6
154.81807,154.95117,49,100,6
154.95695,155.22894,50,100,6
155.23473,155.36783,52,100,6
155.37363,155.50671,54,100,6
155.51251,155.7845,56,100,6
155.79028,156.06227,52,100,6
156.06807,156.34006,57,100,6
156.34584,156.47894,45,100,6
156.48473,156.61783,47,100,6
156.62361,156.75671,49,100,6
156.76251,156.89561,52,100,6
156.9014,157.0345,57,100,6
157.04028,157.17339,52,100,6
157.17917,157.31227,49,100,6
157.31807,157.45116,52,100,6
157.45695,157.59006,47,100,6
157.59584,157.72894,52,100,6
157.73473,157.86783,49,100,6
157.87361,158.00671,47,100,6
158.01251,158.14561,45,100,6
158.1514,158.2845,47,100,6
158.29028,158.42339,49,100,6
158.42917,158.56227,52,100,6
158.56805,158.70116,57,100,6
158.70695,158.84006,52,100,6
158.84584,158.97894,50,100,6
158.98473,159.11783,49,100,6
159.12361,159.25671,47,100,6
159.26251,159.3956,45,100,6
159.4014,159.5345,44,100,6
159.54028,159.67339,42,100,6
159.67917,159.81227,40,100,6
159.81805,159.95116,42,100,6
159.95695,160.09006,44,100,6
160.09584,160.22894,45,100,6
160.23473,160.36783,47,100,6
160.37361,160.50671,49,100,6
160.5125,160.6456,50,100,6
160.6514,160.7845,49,100,6
160.79028,160.92339,50,100,6
160.92917,161.06227,47,100,6
161.06805,161.34004,49,100,6
161.34584,161.61783,54,100,6
161.62361,161.8956,51,100,6
161.9014,162.0345,47,100,6
162.04028,162.17339,49,100,6
162.17917,162.45116,51,100,6
162.45694,162.72894,47,100,6
162.73473,163.28448,52,100,6
163.56805,163.84004,52,100,6
163.84584,164.11783,64,100,6
164.12361,164.3956,63,100,6
164.40138,164.95116,64,100,6
165.23473,165.36783,52,100,6
165.37361,165.50671,54,100,6
165.5125,165.78448,55,100,6
165.79028,166.06227,57,100,6
166.06805,166.61783,59,100,6
166.90138,167.03448,63,100,6
167.04027,167.17337,61,100,6
167.17917,167.45116,63,100,6
167.45694,167.72893,59,100,6
167.73473,168.00671,52,100,6
168.0125,168.28448,61,100,6
168.29027,168.56227,50,100,6
168.56805,168.84004,59,100,6
168.84583,169.11781,49,100,6
169.12361,169.3956,57,100,6
169.40138,169.67337,47,100,6
169.67915,169.95116,57,100,6
169.95694,170.22893,57,100,6
170.23471,170.50671,57,100,6
170.5125,170.78448,57,100,6
170.79027,171.06226,57,100,6
171.06805,171.34004,57,100,6
171.34583,171.47893,60,100,6
171.48471,171.61781,59,100,6
171.6236,171.8956,57,100,6
171.90138,172.17337,57,100,6
172.17915,172.45114,57,100,6
172.45694,172.72893,57,100,6
172.73471,173.0067,57,100,6
173.0125,173.1456,54,100,6
173.15138,173.28448,55,100,6
173.29027,173.56226,57,100,6
173.56804,173.70114,55,100,6
173.70694,173.84004,57,100,6
173.84583,174.11781,59,100,6
174.1236,174.39558,54,100,6
174.40138,174.53448,55,100,6
174.54027,174.67337,54,100,6
174.67915,174.81226,52,100,6
174.81804,174.95114,54,100,6
174.95694,175.09004,55,100,6
175.09583,175.22893,57,100,6
175.23471,175.36781,59,100,6
175.3736,175.5067,57,100,6
175.51248,175.64558,55,100,6
175.65138,175.78448,59,100,6
175.79027,175.92337,54,100,6
175.92915,176.06226,59,100,6
176.06804,176.20114,52,100,6
176.20694,176.34003,50,100,6
176.34583,176.47893,49,100,6
176.48471,176.61781,50,100,6
176.6236,176.7567,52,100,6
176.76248,176.89558,54,100,6
176.90138,177.03448,55,100,6
177.04027,177.17337,54,100,6
177.17915,177.31226,52,100,6
177.31804,177.45114,55,100,6
177.45692,177.59003,50,100,6
177.59583,177.72893,55,100,6
177.73471,177.86781,49,100,6
177.8736,178.0067,50,100,6
178.01248,178.14558,52,100,6
178.15137,178.28447,50,100,6
178.29027,178.42337,49,100,6
178.42915,178.56226,47,100,6
178.56804,178.70114,45,100,6
178.70692,178.84003,43,100,6
178.84583,178.97893,42,100,6
178.98471,179.11781,40,100,6
179.1236,179.2567,38,100,6
179.26248,179.39558,37,100,6
179.40137,179.95114,38,100,6
180.51248,181.06226,50,100,6
181.06804,181.61781,57,100,6
182.17915,182.72891,58,100,6
182.73471,183.28447,59,100,6
183.84581,184.39558,47,100,6
184.40137,184.67336,42,100,6
184.67915,184.95114,54,100,6
184.95692,185.22891,54,100,6
185.2347,185.5067,54,100,6
185.51248,185.78447,54,100,6
185.79025,186.06224,54,100,6
186.06804,186.34003,54,100,6
186.34581,186.47891,59,100,6
186.4847,186.6178,58,100,6
186.62358,186.89558,59,100,6
186.90137,187.17336,54,100,6
187.17914,187.45114,54,100,6
187.45692,187.72891,54,100,6
187.7347,188.00668,54,100,6
188.01248,188.14558,61,100,6
188.15137,188.28447,59,100,6
188.29025,188.56224,61,100,6
188.56802,188.84003,54,100,6
188.84581,189.1178,54,100,6
189.12358,189.39557,54,100,6
189.40137,189.67336,54,100,6
189.67914,189.81224,62,100,6
189.74858,189.88168,61,100,6
189.81802,189.95113,59,100,6
189.95692,190.22891,61,100,6
190.2347,190.3678,61,100,6
190.30414,190.43724,59,100,6
190.37358,190.50668,58,100,6
190.51247,190.78447,59,100,6
190.79025,190.92336,59,100,6
190.8597,190.9928,58,100,6
190.92914,191.06224,56,100,6
191.06802,191.89557,58,100,6
191.90137,192.17336,54,100,6
192.17914,192.45113,59,100,6
192.45691,192.72891,54,100,6
192.7347,193.00668,55,100,6
193.01247,193.28445,52,100,6
193.29025,193.56224,54,100,6
193.56802,193.84001,52,100,6
193.84581,194.1178,54,100,6
194.12358,194.39557,42,100,6
194.40135,194.95113,47,100,6
195.2347,195.3678,59,100,6
195.37358,195.50668,61,100,6
195.51247,195.64557,59,100,6
195.65135,195.78445,57,100,6
195.79025,195.92336,55,100,6
195.92914,196.06224,54,100,6
196.06802,196.6178,52,100,6
196.90135,197.17334,40,100,6
197.17914,197.45113,52,100,6
197.45691,197.7289,51,100,6
197.7347,198.28445,52,100,6
198.56802,198.70113,52,100,6
198.70691,198.84001,51,100,6
198.8458,199.11778,52,100,6
199.12358,199.39557,54,100,6
199.40135,199.67334,55,100,6
199.67914,199.95113,52,100,6
199.95691,200.2289,58,100,6
200.23468,200.50668,54,100,6
200.51247,200.78445,59,100,6
200.79024,201.06223,54,100,6
201.06802,201.34514,50,100,6
201.35104,201.63902,52,100,6
201.64516,201.9449,54,100,6
201.95128,202.26378,52,100,6
202.27043,202.60423,54,100,6
202.61133,203.1156,42,100,6
203.1227,207.03604,47,100,6
