start_time,end_time,note_value,velocity,instrument_program_number
0.72,0.80928576,51,100,42
0.80928576,0.8985715,53,100,42
0.8985715,0.9878572,55,100,42
0.9878572,1.077143,56,100,42
1.077143,1.434286,58,100,42
1.434286,1.6128575,60,100,42
1.6128575,1.791429,56,100,42
1.791429,2.148572,58,100,42
2.148572,2.3271434,60,100,42
2.3271434,2.505715,55,100,42
2.505715,2.862858,56,100,42
2.862858,3.220001,53,100,42
3.220001,3.577144,41,100,42
3.577144,3.6664298,50,100,42
3.6664298,3.7557156,51,100,42
3.7557156,3.8450012,53,100,42
3.8450012,3.934287,55,100,42
3.934287,4.29143,56,100,42
4.29143,4.4700017,58,100,42
4.4700017,4.648573,55,100,42
4.648573,5.005716,56,100,42
5.005716,5.1842875,58,100,42
5.1842875,5.362859,53,100,42
5.362859,5.720002,55,100,42
5.720002,6.077145,51,100,42
6.077145,6.434288,39,100,42
6.434288,6.523574,51,100,42
6.523574,6.6128597,53,100,42
6.6128597,6.702145,55,100,42
6.702145,6.791431,56,100,42
6.791431,7.148574,58,100,42
7.148574,7.2378597,46,100,42
7.2378597,7.3271456,48,100,42
7.3271456,7.4164314,50,100,42
7.4164314,7.505717,51,100,42
7.505717,7.86286,53,100,42
7.86286,8.220003,56,100,42
8.220003,8.398575,56,100,42
8.398575,8.577146,55,100,42
8.577146,8.755717,53,100,42
8.755717,8.934289,51,100,42
8.934289,9.291432,53,100,42
9.291432,9.380717,51,100,42
9.380717,9.470003,53,100,42
9.470003,9.559289,55,100,42
9.559289,9.648575,56,100,42
9.648575,10.005718,58,100,42
10.005718,10.095004,46,100,42
10.095004,10.18429,48,100,42
10.18429,10.273575,50,100,42
10.273575,10.362861,51,100,42
10.362861,10.720004,53,100,42
10.720004,11.077147,56,100,42
11.077147,11.255718,56,100,42
11.255718,11.43429,55,100,42
11.43429,11.612862,53,100,42
11.612862,11.791433,51,100,42
11.791433,12.148576,53,100,42
12.148576,12.237862,53,100,42
12.237862,12.3271475,55,100,42
12.3271475,12.416433,57,100,42
12.416433,12.505719,58,100,42
12.505719,12.862862,60,100,42
12.862862,12.9521475,57,100,42
12.9521475,13.041433,58,100,42
13.041433,13.130719,60,100,42
13.130719,13.220005,62,100,42
13.220005,13.577148,63,100,42
13.577148,13.666433,53,100,42
13.666433,13.755719,55,100,42
13.755719,13.845005,57,100,42
13.845005,13.934291,58,100,42
13.934291,14.291434,60,100,42
14.291434,14.38072,57,100,42
14.38072,14.470005,58,100,42
14.470005,14.559291,60,100,42
14.559291,14.648577,62,100,42
14.648577,15.00572,63,100,42
15.00572,15.184292,62,100,42
15.184292,15.362863,60,100,42
15.362863,15.541434,62,100,42
15.541434,15.720006,58,100,42
15.720006,15.898578,55,100,42
15.898578,16.077148,58,100,42
16.077148,16.25572,51,100,42
16.25572,16.434292,60,100,42
16.434292,16.612864,53,100,42
16.612864,16.791435,57,100,42
16.791435,17.148579,58,100,42
17.148579,17.50572,53,100,42
17.50572,17.862864,46,100,42
17.862864,17.95215,51,100,42
17.95215,18.041435,53,100,42
18.041435,18.130722,55,100,42
18.130722,18.220007,56,100,42
18.220007,18.57715,58,100,42
18.57715,18.755722,60,100,42
18.755722,18.934294,56,100,42
18.934294,19.291435,58,100,42
19.291435,19.470007,60,100,42
19.470007,19.648579,55,100,42
19.648579,20.005722,56,100,42
20.005722,20.362865,53,100,42
20.362865,20.720009,41,100,42
20.720009,20.809294,50,100,42
20.809294,20.898579,51,100,42
20.898579,20.987865,53,100,42
20.987865,21.07715,55,100,42
21.07715,21.434294,56,100,42
21.434294,21.612865,58,100,42
21.612865,21.791437,55,100,42
21.791437,22.14858,56,100,42
22.14858,22.327152,58,100,42
22.327152,22.505724,53,100,42
22.505724,22.862865,55,100,42
22.862865,23.220009,51,100,42
23.220009,23.577152,39,100,42
23.577152,23.666437,51,100,42
23.666437,23.755724,53,100,42
23.755724,23.845009,55,100,42
23.845009,23.934296,56,100,42
23.934296,24.291437,58,100,42
24.291437,24.380724,46,100,42
24.380724,24.470009,48,100,42
24.470009,24.559296,50,100,42
24.559296,24.64858,51,100,42
24.64858,25.005724,53,100,42
25.005724,25.362867,56,100,42
25.362867,25.54144,56,100,42
25.54144,25.72001,55,100,42
25.72001,25.89858,53,100,42
25.89858,26.077152,51,100,42
26.077152,26.434296,53,100,42
26.434296,26.523582,51,100,42
26.523582,26.612867,53,100,42
26.612867,26.702154,55,100,42
26.702154,26.79144,56,100,42
26.79144,27.148582,58,100,42
27.148582,27.237867,46,100,42
27.237867,27.327154,48,100,42
27.327154,27.41644,50,100,42
27.41644,27.505726,51,100,42
27.505726,27.862867,53,100,42
27.862867,28.22001,56,100,42
28.22001,28.398582,56,100,42
28.398582,28.577154,55,100,42
28.577154,28.755726,53,100,42
28.755726,28.934298,51,100,42
28.934298,29.29144,53,100,42
29.29144,29.380726,53,100,42
29.380726,29.47001,55,100,42
29.47001,29.559298,57,100,42
29.559298,29.648582,58,100,42
29.648582,30.005726,60,100,42
30.005726,30.095013,57,100,42
30.095013,30.184298,58,100,42
30.184298,30.273582,60,100,42
30.273582,30.36287,62,100,42
30.36287,30.720013,63,100,42
30.720013,30.809298,53,100,42
30.809298,30.898584,55,100,42
30.898584,30.98787,57,100,42
30.98787,31.077154,58,100,42
31.077154,31.434298,60,100,42
31.434298,31.523584,57,100,42
31.523584,31.61287,58,100,42
31.61287,31.702156,60,100,42
31.702156,31.791441,62,100,42
31.791441,32.148582,63,100,42
32.148582,32.327156,62,100,42
32.327156,32.505726,60,100,42
32.505726,32.6843,62,100,42
32.6843,32.86287,58,100,42
32.86287,33.041443,55,100,42
33.041443,33.220013,58,100,42
33.220013,33.398586,51,100,42
33.398586,33.577156,60,100,42
33.577156,33.755726,53,100,42
33.755726,33.9343,57,100,42
33.9343,34.291443,58,100,42
34.291443,34.648586,53,100,42
34.648586,35.00573,46,100,42
35.00573,35.095013,46,100,42
35.095013,35.1843,48,100,42
35.1843,35.273586,50,100,42
35.273586,35.36287,51,100,42
35.36287,35.720013,53,100,42
35.720013,35.898586,55,100,42
35.898586,36.077156,51,100,42
36.077156,36.4343,53,100,42
36.4343,36.612873,58,100,42
36.612873,36.791443,53,100,42
36.791443,37.148586,55,100,42
37.148586,37.50573,51,100,42
37.50573,37.862873,39,100,42
37.862873,37.952156,56,100,42
37.952156,38.041443,55,100,42
38.041443,38.13073,53,100,42
38.13073,38.220016,51,100,42
38.220016,38.57716,50,100,42
38.57716,38.666443,53,100,42
38.666443,38.75573,51,100,42
38.75573,38.845016,50,100,42
38.845016,38.9343,48,100,42
38.9343,39.291443,47,100,42
39.291443,39.38073,50,100,42
39.38073,39.470016,48,100,42
39.470016,39.5593,47,100,42
39.5593,39.648586,45,100,42
39.648586,39.82716,43,100,42
39.82716,40.00573,50,100,42
40.00573,40.184303,53,100,42
40.184303,40.362873,59,100,42
40.362873,40.720016,62,100,42
40.720016,40.809303,55,100,42
40.809303,40.898586,53,100,42
40.898586,40.987873,51,100,42
40.987873,41.07716,50,100,42
41.07716,41.434303,51,100,42
41.434303,41.523586,36,100,42
41.523586,41.612873,38,100,42
41.612873,41.70216,39,100,42
41.70216,41.791447,41,100,42
41.791447,42.148586,43,100,42
42.148586,42.237873,62,100,42
42.237873,42.32716,60,100,42
42.32716,42.416447,59,100,42
42.416447,42.50573,57,100,42
42.50573,42.862873,59,100,42
42.862873,42.95216,43,100,42
42.95216,43.041447,45,100,42
43.041447,43.13073,47,100,42
43.13073,43.220016,48,100,42
43.220016,43.57716,50,100,42
43.57716,43.666447,67,100,42
43.666447,43.75573,65,100,42
43.75573,43.845016,63,100,42
43.845016,43.934303,62,100,42
43.934303,44.291447,63,100,42
44.291447,44.380733,63,100,42
44.380733,44.470016,62,100,42
44.470016,44.559303,60,100,42
44.559303,44.64859,59,100,42
44.64859,45.005733,60,100,42
45.005733,45.095016,60,100,42
45.095016,45.184303,58,100,42
45.184303,45.27359,56,100,42
45.27359,45.362877,55,100,42
45.362877,45.720016,56,100,42
45.720016,45.809303,56,100,42
45.809303,45.89859,55,100,42
45.89859,45.987877,53,100,42
45.987877,46.07716,51,100,42
46.07716,46.434303,50,100,42
46.434303,46.612877,60,100,42
46.612877,46.791447,59,100,42
46.791447,46.97002,60,100,42
46.97002,47.14859,56,100,42
47.14859,47.32716,53,100,42
47.32716,47.505733,56,100,42
47.505733,47.684303,50,100,42
47.684303,47.862877,60,100,42
47.862877,48.041447,55,100,42
48.041447,48.22002,59,100,42
48.22002,48.577164,60,100,42
48.577164,48.934303,43,100,42
48.934303,49.291447,36,100,42
49.291447,49.380733,48,100,42
49.380733,49.47002,50,100,42
49.47002,49.559307,52,100,42
49.559307,49.64859,53,100,42
49.64859,50.005733,55,100,42
50.005733,50.184307,56,100,42
50.184307,50.362877,53,100,42
50.362877,50.72002,55,100,42
50.72002,50.89859,60,100,42
50.89859,51.077164,55,100,42
51.077164,51.255733,58,100,42
51.255733,51.434307,56,100,42
51.434307,51.612877,55,100,42
51.612877,51.79145,53,100,42
51.79145,51.97002,63,100,42
51.97002,52.148594,62,100,42
52.148594,52.327164,60,100,42
52.327164,52.505733,58,100,42
52.505733,52.862877,63,100,42
52.862877,52.952164,51,100,42
52.952164,53.04145,53,100,42
53.04145,53.130733,55,100,42
53.130733,53.22002,56,100,42
53.22002,53.577164,58,100,42
53.577164,53.934307,60,100,42
53.934307,54.112877,51,100,42
54.112877,54.29145,50,100,42
54.29145,54.47002,48,100,42
54.47002,54.648594,50,100,42
54.648594,55.005737,46,100,42
55.005737,55.09502,46,100,42
55.09502,55.184307,48,100,42
55.184307,55.273594,50,100,42
55.273594,55.36288,51,100,42
55.36288,55.72002,53,100,42
55.72002,55.809307,50,100,42
55.809307,55.898594,51,100,42
55.898594,55.98788,53,100,42
55.98788,56.077164,55,100,42
56.077164,56.434307,56,100,42
56.434307,56.523594,46,100,42
56.523594,56.61288,48,100,42
56.61288,56.702164,50,100,42
56.702164,56.79145,51,100,42
56.79145,57.148594,53,100,42
57.148594,57.23788,50,100,42
57.23788,57.327164,51,100,42
57.327164,57.41645,53,100,42
57.41645,57.505737,55,100,42
57.505737,57.86288,56,100,42
57.86288,57.952168,51,100,42
57.952168,58.04145,53,100,42
58.04145,58.130737,55,100,42
58.130737,58.220024,56,100,42
58.220024,58.577168,58,100,42
58.577168,58.66645,55,100,42
58.66645,58.755737,56,100,42
58.755737,58.845024,58,100,42
58.845024,58.934307,60,100,42
58.934307,59.29145,61,100,42
59.29145,59.380737,51,100,42
59.380737,59.470024,53,100,42
59.470024,59.55931,55,100,42
59.55931,59.648594,56,100,42
59.648594,60.005737,58,100,42
60.005737,60.095024,55,100,42
60.095024,60.18431,56,100,42
60.18431,60.273594,58,100,42
60.273594,60.36288,60,100,42
60.36288,60.720024,61,100,42
60.720024,60.898594,60,100,42
60.898594,61.077168,58,100,42
61.077168,61.255737,60,100,42
61.255737,61.43431,58,100,42
61.43431,61.61288,58,100,42
61.61288,61.791454,56,100,42
61.791454,61.970024,58,100,42
61.970024,62.148598,55,100,42
62.148598,62.327168,43,100,42
62.327168,62.416454,55,100,42
62.416454,62.505737,56,100,42
62.505737,62.68431,58,100,42
62.68431,62.773598,55,100,42
62.773598,62.86288,56,100,42
62.86288,63.041454,58,100,42
63.041454,63.13074,56,100,42
63.13074,63.220024,55,100,42
63.220024,63.398598,56,100,42
63.398598,63.577168,53,100,42
63.577168,63.75574,41,100,42
63.75574,63.93431,56,100,42
63.93431,64.0236,55,100,42
64.0236,64.112885,53,100,42
64.112885,64.20217,51,100,42
64.20217,64.29145,50,100,42
64.29145,64.470024,51,100,42
64.470024,64.6486,58,100,42
64.6486,64.737885,55,100,42
64.737885,64.82717,53,100,42
64.82717,64.91645,51,100,42
64.91645,65.00574,50,100,42
65.00574,65.18431,51,100,42
65.18431,65.362885,63,100,42
65.362885,65.45217,56,100,42
65.45217,65.54146,55,100,42
65.54146,65.63074,53,100,42
65.63074,65.720024,55,100,42
65.720024,65.80931,56,100,42
65.80931,65.8986,55,100,42
65.8986,65.987885,53,100,42
65.987885,66.07717,55,100,42
66.07717,66.16646,56,100,42
66.16646,66.25574,55,100,42
66.25574,66.345024,53,100,42
66.345024,66.43431,51,100,42
66.43431,66.5236,50,100,42
66.5236,66.612885,48,100,42
66.612885,66.70217,46,100,42
66.70217,66.79146,44,100,42
66.79146,66.970024,43,100,42
66.970024,67.1486,51,100,42
67.1486,67.32717,60,100,42
67.32717,67.50574,56,100,42
67.50574,67.862885,58,100,42
67.862885,68.04146,60,100,42
68.04146,68.220024,55,100,42
68.220024,68.57717,56,100,42
68.57717,68.93431,53,100,42
68.93431,69.29146,41,100,42
69.29146,69.380745,60,100,42
69.380745,69.470024,58,100,42
69.470024,69.55931,56,100,42
69.55931,69.6486,55,100,42
69.6486,70.005745,53,100,42
70.005745,70.095024,56,100,42
70.095024,70.18431,55,100,42
70.18431,70.2736,53,100,42
70.2736,70.362885,51,100,42
70.362885,70.72003,50,100,42
70.72003,70.80931,53,100,42
70.80931,70.8986,51,100,42
70.8986,70.987885,50,100,42
70.987885,71.07717,48,100,42
71.07717,71.255745,46,100,42
71.255745,71.43431,50,100,42
71.43431,71.612885,53,100,42
71.612885,71.79146,56,100,42
71.79146,72.1486,65,100,42
72.1486,72.237885,63,100,42
72.237885,72.32717,62,100,42
72.32717,72.41646,60,100,42
72.41646,72.505745,58,100,42
72.505745,72.862885,63,100,42
72.862885,72.95217,51,100,42
72.95217,73.04146,53,100,42
73.04146,73.130745,55,100,42
73.130745,73.22003,56,100,42
73.22003,73.57717,58,100,42
73.57717,73.93432,60,100,42
73.93432,74.112885,51,100,42
74.112885,74.29146,50,100,42
74.29146,74.47003,48,100,42
74.47003,74.6486,50,100,42
74.6486,75.005745,46,100,42
75.005745,75.09503,63,100,42
75.09503,75.18432,62,100,42
75.18432,75.2736,60,100,42
75.2736,75.362885,58,100,42
75.362885,75.72003,63,100,42
75.72003,75.80932,51,100,42
75.80932,75.8986,53,100,42
75.8986,75.987885,55,100,42
75.987885,76.07717,56,100,42
76.07717,76.43432,58,100,42
76.43432,76.79146,60,100,42
76.79146,76.880745,61,100,42
76.880745,76.97003,60,100,42
76.97003,77.148605,58,100,42
77.148605,77.68432,60,100,42
77.68432,77.773605,58,100,42
77.773605,77.862885,56,100,42
77.862885,77.95217,58,100,42
77.95217,78.04146,56,100,42
78.04146,78.22003,55,100,42
78.22003,78.30932,56,100,42
78.30932,78.398605,55,100,42
78.398605,78.57717,53,100,42
78.57717,79.11289,55,100,42
79.11289,79.20217,53,100,42
79.20217,79.29146,51,100,42
79.29146,79.380745,53,100,42
79.380745,79.47003,51,100,42
79.47003,79.648605,50,100,42
79.648605,79.82717,51,100,42
79.82717,80.005745,46,100,42
80.005745,80.18432,43,100,42
80.18432,80.36289,46,100,42
80.36289,80.72003,39,100,42
80.72003,80.80932,46,100,42
80.80932,80.898605,48,100,42
80.898605,80.98789,50,100,42
80.98789,81.07717,51,100,42
81.07717,81.43432,53,100,42
81.43432,81.523605,50,100,42
81.523605,81.61289,51,100,42
81.61289,81.70218,53,100,42
81.70218,81.79146,55,100,42
81.79146,82.148605,56,100,42
82.148605,82.23789,46,100,42
82.23789,82.32718,48,100,42
82.32718,82.41646,50,100,42
82.41646,82.505745,51,100,42
82.505745,82.86289,53,100,42
82.86289,82.95218,50,100,42
82.95218,83.04146,51,100,42
83.04146,83.130745,53,100,42
83.130745,83.22003,55,100,42
83.22003,83.57718,56,100,42
83.57718,83.755745,55,100,42
83.755745,83.93432,53,100,42
83.93432,84.11289,55,100,42
84.11289,84.291466,58,100,42
84.291466,84.47003,63,100,42
84.47003,84.648605,55,100,42
84.648605,84.82718,53,100,42
84.82718,85.005745,51,100,42
85.005745,85.18432,46,100,42
85.18432,85.36289,62,100,42
85.36289,86.43432,63,100,42
86.43432,86.523605,46,100,42
86.523605,86.61289,48,100,42
86.61289,86.70218,50,100,42
86.70218,86.791466,51,100,42
86.791466,87.148605,53,100,42
87.148605,87.32718,55,100,42
87.32718,87.50575,51,100,42
87.50575,87.86289,53,100,42
87.86289,88.041466,58,100,42
88.041466,88.22003,53,100,42
88.22003,88.57718,55,100,42
88.57718,88.93432,51,100,42
88.93432,89.291466,39,100,42
89.291466,89.38075,56,100,42
89.38075,89.47003,55,100,42
89.47003,89.55932,53,100,42
89.55932,89.648605,51,100,42
89.648605,90.00575,50,100,42
90.00575,90.09504,53,100,42
90.09504,90.18432,51,100,42
90.18432,90.273605,50,100,42
90.273605,90.36289,48,100,42
90.36289,90.72004,47,100,42
90.72004,90.80932,50,100,42
90.80932,90.898605,48,100,42
90.898605,90.98789,47,100,42
90.98789,91.07718,45,100,42
91.07718,91.25575,43,100,42
91.25575,91.43432,50,100,42
91.43432,91.61289,53,100,42
91.61289,91.791466,59,100,42
91.791466,92.148605,62,100,42
92.148605,92.23789,55,100,42
92.23789,92.32718,53,100,42
92.32718,92.416466,51,100,42
92.416466,92.50575,50,100,42
92.50575,92.86289,51,100,42
92.86289,92.95218,36,100,42
92.95218,93.041466,38,100,42
93.041466,93.13075,39,100,42
93.13075,93.22004,41,100,42
93.22004,93.57718,43,100,42
93.57718,93.666466,62,100,42
93.666466,93.75575,60,100,42
93.75575,93.84504,59,100,42
93.84504,93.934326,57,100,42
93.934326,94.291466,59,100,42
94.291466,94.38075,43,100,42
94.38075,94.47004,45,100,42
94.47004,94.559326,47,100,42
94.559326,94.648605,48,100,42
94.648605,95.00575,50,100,42
95.00575,95.09504,67,100,42
95.09504,95.184326,65,100,42
95.184326,95.27361,63,100,42
95.27361,95.36289,62,100,42
95.36289,95.72004,63,100,42
95.72004,95.809326,63,100,42
95.809326,95.89861,62,100,42
95.89861,95.98789,60,100,42
95.98789,96.07718,59,100,42
96.07718,96.434326,60,100,42
96.434326,96.52361,60,100,42
96.52361,96.61289,58,100,42
96.61289,96.70218,56,100,42
96.70218,96.791466,55,100,42
96.791466,97.14861,56,100,42
97.14861,97.23789,56,100,42
97.23789,97.32718,55,100,42
97.32718,97.416466,53,100,42
97.416466,97.50575,51,100,42
97.50575,97.8629,50,100,42
97.8629,98.041466,60,100,42
98.041466,98.22004,59,100,42
98.22004,98.39861,60,100,42
98.39861,98.57718,56,100,42
98.57718,98.75575,53,100,42
98.75575,98.934326,56,100,42
98.934326,99.1129,50,100,42
99.1129,99.291466,60,100,42
99.291466,99.47004,55,100,42
99.47004,99.64861,59,100,42
99.64861,100.00575,60,100,42
100.00575,100.3629,43,100,42
100.3629,100.72004,36,100,42
100.72004,100.809326,48,100,42
100.809326,100.89861,50,100,42
100.89861,100.9879,52,100,42
100.9879,101.07719,53,100,42
101.07719,101.434326,55,100,42
101.434326,101.6129,56,100,42
101.6129,101.791466,53,100,42
101.791466,102.14861,55,100,42
102.14861,102.32719,60,100,42
102.32719,102.50575,55,100,42
102.50575,102.684326,58,100,42
102.684326,102.8629,56,100,42
102.8629,103.041466,55,100,42
103.041466,103.22004,53,100,42
103.22004,103.39861,63,100,42
103.39861,103.57719,62,100,42
103.57719,103.75575,60,100,42
103.75575,103.934326,58,100,42
103.934326,104.29147,63,100,42
104.29147,104.38075,51,100,42
104.38075,104.47004,53,100,42
104.47004,104.559326,55,100,42
104.559326,104.64861,56,100,42
104.64861,105.00575,58,100,42
105.00575,105.3629,60,100,42
105.3629,105.54147,51,100,42
105.54147,105.72004,50,100,42
105.72004,105.89861,48,100,42
105.89861,106.07719,50,100,42
106.07719,106.434326,46,100,42
106.434326,106.52361,46,100,42
106.52361,106.6129,48,100,42
106.6129,106.70219,50,100,42
106.70219,106.79147,51,100,42
106.79147,107.14861,53,100,42
107.14861,107.2379,50,100,42
107.2379,107.32719,51,100,42
107.32719,107.41647,53,100,42
107.41647,107.50576,55,100,42
107.50576,107.8629,56,100,42
107.8629,107.95219,46,100,42
107.95219,108.04147,48,100,42
108.04147,108.13076,50,100,42
108.13076,108.22004,51,100,42
108.22004,108.57719,53,100,42
108.57719,108.66647,50,100,42
108.66647,108.75576,51,100,42
108.75576,108.84505,53,100,42
108.84505,108.934326,55,100,42
108.934326,109.29147,56,100,42
109.29147,109.38076,51,100,42
109.38076,109.47005,53,100,42
109.47005,109.559326,55,100,42
109.559326,109.64861,56,100,42
109.64861,110.00576,58,100,42
110.00576,110.09505,55,100,42
110.09505,110.184326,56,100,42
110.184326,110.27361,58,100,42
110.27361,110.3629,60,100,42
110.3629,110.72005,61,100,42
110.72005,110.809326,51,100,42
110.809326,110.89861,53,100,42
110.89861,110.9879,55,100,42
110.9879,111.07719,56,100,42
111.07719,111.43433,58,100,42
111.43433,111.52361,55,100,42
111.52361,111.6129,56,100,42
111.6129,111.70219,58,100,42
111.70219,111.79147,60,100,42
111.79147,112.14861,61,100,42
112.14861,112.32719,60,100,42
112.32719,112.50576,58,100,42
112.50576,112.68433,60,100,42
112.68433,112.8629,58,100,42
112.8629,113.04147,58,100,42
113.04147,113.22005,56,100,42
113.22005,113.39861,58,100,42
113.39861,113.57719,55,100,42
113.57719,113.75576,43,100,42
113.75576,113.84505,55,100,42
113.84505,113.93433,56,100,42
113.93433,114.1129,58,100,42
114.1129,114.20219,55,100,42
114.20219,114.29147,56,100,42
114.29147,114.47005,58,100,42
114.47005,114.55933,56,100,42
114.55933,114.64862,55,100,42
114.64862,114.82719,56,100,42
114.82719,115.00576,53,100,42
115.00576,115.18433,41,100,42
115.18433,115.3629,56,100,42
115.3629,115.45219,55,100,42
115.45219,115.54147,53,100,42
115.54147,115.63076,51,100,42
115.63076,115.72005,50,100,42
115.72005,115.89862,51,100,42
115.89862,116.07719,58,100,42
116.07719,116.16647,55,100,42
116.16647,116.25576,53,100,42
116.25576,116.34505,51,100,42
116.34505,116.43433,50,100,42
116.43433,116.6129,51,100,42
116.6129,116.79147,63,100,42
116.79147,116.88076,56,100,42
116.88076,116.97005,55,100,42
116.97005,117.05933,53,100,42
117.05933,117.14862,55,100,42
117.14862,117.23791,56,100,42
117.23791,117.32719,55,100,42
117.32719,117.41647,53,100,42
117.41647,117.50576,55,100,42
117.50576,117.59505,56,100,42
117.59505,117.68433,55,100,42
117.68433,117.77362,53,100,42
117.77362,117.86291,51,100,42
117.86291,117.95219,50,100,42
117.95219,118.04147,48,100,42
118.04147,118.13076,46,100,42
118.13076,118.22005,44,100,42
118.22005,118.39862,43,100,42
118.39862,118.57719,51,100,42
118.57719,118.75576,60,100,42
118.75576,118.93433,56,100,42
118.93433,119.29147,58,100,42
119.29147,119.47005,60,100,42
119.47005,119.64862,55,100,42
119.64862,120.00576,56,100,42
120.00576,120.36291,53,100,42
120.36291,120.72005,41,100,42
120.72005,120.80933,60,100,42
120.80933,120.89862,58,100,42
120.89862,120.98791,56,100,42
120.98791,121.077194,55,100,42
121.077194,121.43433,53,100,42
121.43433,121.52362,56,100,42
121.52362,121.61291,55,100,42
121.61291,121.702194,53,100,42
121.702194,121.79147,51,100,42
121.79147,122.14862,50,100,42
122.14862,122.23791,53,100,42
122.23791,122.327194,51,100,42
122.327194,122.41648,50,100,42
122.41648,122.50576,48,100,42
122.50576,122.68433,46,100,42
122.68433,122.86291,50,100,42
122.86291,123.04148,53,100,42
123.04148,123.22005,56,100,42
123.22005,123.577194,65,100,42
123.577194,123.66648,63,100,42
123.66648,123.75576,62,100,42
123.75576,123.84505,60,100,42
123.84505,123.93433,58,100,42
123.93433,124.29148,63,100,42
124.29148,124.38076,51,100,42
124.38076,124.47005,53,100,42
124.47005,124.55933,55,100,42
124.55933,124.64862,56,100,42
124.64862,125.00576,58,100,42
125.00576,125.36291,60,100,42
125.36291,125.54148,51,100,42
125.54148,125.72005,50,100,42
125.72005,125.89862,48,100,42
125.89862,126.077194,50,100,42
126.077194,126.43433,46,100,42
126.43433,126.52362,63,100,42
126.52362,126.61291,62,100,42
126.61291,126.702194,60,100,42
126.702194,126.79148,58,100,42
126.79148,127.14862,63,100,42
127.14862,127.23791,51,100,42
127.23791,127.327194,53,100,42
127.327194,127.41648,55,100,42
127.41648,127.50577,56,100,42
127.50577,127.86291,58,100,42
127.86291,128.22005,60,100,42
128.22005,128.30934,61,100,42
128.30934,128.39862,60,100,42
128.39862,128.5772,58,100,42
128.5772,129.11292,60,100,42
129.11292,129.2022,58,100,42
129.2022,129.29147,56,100,42
129.29147,129.38077,58,100,42
129.38077,129.47005,56,100,42
129.47005,129.64862,55,100,42
129.64862,129.73792,56,100,42
129.73792,129.8272,55,100,42
129.8272,130.00577,53,100,42
130.00577,130.54147,55,100,42
130.54147,130.63077,53,100,42
130.63077,130.72005,51,100,42
130.72005,130.80934,53,100,42
130.80934,130.89862,51,100,42
130.89862,131.0772,50,100,42
131.0772,131.25577,51,100,42
131.25577,131.43434,46,100,42
131.43434,131.61292,43,100,42
131.61292,131.79147,46,100,42
131.79147,132.14862,39,100,42
132.14862,132.23792,46,100,42
132.23792,132.3272,48,100,42
132.3272,132.41649,50,100,42
132.41649,132.50577,51,100,42
132.50577,132.86292,53,100,42
132.86292,132.9522,50,100,42
132.9522,133.04149,51,100,42
133.04149,133.13077,53,100,42
133.13077,133.22005,55,100,42
133.22005,133.5772,56,100,42
133.5772,133.66649,46,100,42
133.66649,133.75577,48,100,42
133.75577,133.84505,50,100,42
133.84505,133.93434,51,100,42
133.93434,134.29149,53,100,42
134.29149,134.38077,50,100,42
134.38077,134.47005,51,100,42
134.47005,134.55934,53,100,42
134.55934,134.64862,55,100,42
134.64862,135.00577,56,100,42
135.00577,135.18434,55,100,42
135.18434,135.36292,53,100,42
135.36292,135.54149,55,100,42
135.54149,135.72005,58,100,42
135.72005,135.89862,63,100,42
135.89862,136.0772,55,100,42
136.0772,136.25577,53,100,42
136.25577,136.43434,51,100,42
136.43434,136.61292,46,100,42
136.61292,136.79149,62,100,42
136.79149,137.86292,63,100,42
137.86292,138.22006,51,100,42
138.22006,138.5772,51,100,42
138.5772,139.29149,53,100,42
139.29149,139.64862,50,100,42
139.64862,139.8272,51,100,42
139.8272,140.00577,53,100,42
140.00577,140.72006,55,100,42
140.72006,141.0772,51,100,42
141.0772,141.43434,44,100,42
141.43434,141.79149,53,100,42
141.79149,142.14862,46,100,42
142.14862,142.50577,50,100,42
142.50577,142.86292,51,100,42
142.86292,143.22006,46,100,42
143.22006,143.5772,39,100,42
143.5772,143.93434,51,100,42
143.93434,144.29149,51,100,42
144.29149,145.00577,53,100,42
145.00577,145.36292,50,100,42
145.36292,145.54149,51,100,42
145.54149,145.72006,53,100,42
145.72006,146.43434,55,100,42
146.43434,146.79149,51,100,42
146.79149,147.14864,44,100,42
147.14864,147.50577,53,100,42
147.50577,147.86292,46,100,42
147.86292,148.22006,50,100,42
148.22006,148.57721,51,100,42
148.57721,148.93434,46,100,42
148.93434,149.29149,39,100,42
149.29149,149.64864,58,100,42
149.64864,150.00577,58,100,42
150.00577,150.72006,60,100,42
150.72006,151.07721,58,100,42
151.07721,151.25577,56,100,42
151.25577,151.43434,55,100,42
151.43434,151.79149,56,100,42
151.79149,152.14864,53,100,42
152.14864,152.50577,56,100,42
152.50577,152.86292,58,100,42
152.86292,153.57721,56,100,42
153.57721,153.93434,55,100,42
153.93434,154.11292,53,100,42
154.11292,154.29149,51,100,42
154.29149,154.47006,50,100,42
154.47006,154.64864,48,100,42
154.64864,154.82721,46,100,42
154.82721,155.00578,44,100,42
155.00578,155.36292,43,100,42
155.36292,155.72006,44,100,42
156.07721,156.43434,46,100,42
156.79149,157.14864,48,100,42
157.50578,157.86292,43,100,42
159.64864,160.72006,46,100,42
160.72006,161.07721,58,100,42
161.07721,161.43436,58,100,42
161.43436,162.14864,60,100,42
162.14864,162.50578,58,100,42
162.50578,162.68436,56,100,42
162.68436,162.86292,55,100,42
162.86292,163.22006,56,100,42
163.22006,163.57721,53,100,42
163.57721,163.93436,56,100,42
163.93436,164.29149,58,100,42
164.29149,165.00578,56,100,42
165.00578,165.36293,55,100,42
165.36293,165.54149,53,100,42
165.54149,165.72006,51,100,42
165.72006,165.89864,50,100,42
165.89864,166.07721,48,100,42
166.07721,166.25578,46,100,42
166.25578,166.43436,44,100,42
166.43436,166.79149,43,100,42
166.79149,167.14864,44,100,42
167.50578,167.86293,46,100,42
168.22006,168.57721,48,100,42
168.93436,169.29149,43,100,42
171.07721,172.14864,46,100,42
172.14864,172.23793,51,100,42
172.23793,172.32721,53,100,42
172.32721,172.4165,55,100,42
172.4165,172.50578,56,100,42
172.50578,172.86293,58,100,42
172.86293,173.0415,60,100,42
173.0415,173.22006,56,100,42
173.22006,173.57721,58,100,42
173.57721,173.75578,60,100,42
173.75578,173.93436,55,100,42
173.93436,174.2915,56,100,42
174.2915,174.64864,53,100,42
174.64864,175.00578,41,100,42
175.00578,175.09506,50,100,42
175.09506,175.18436,51,100,42
175.18436,175.27364,53,100,42
175.27364,175.36293,55,100,42
175.36293,175.72008,56,100,42
175.72008,175.89864,58,100,42
175.89864,176.07721,55,100,42
176.07721,176.43436,56,100,42
176.43436,176.61293,58,100,42
176.61293,176.7915,53,100,42
176.7915,177.14864,55,100,42
177.14864,177.50578,51,100,42
177.50578,177.86293,39,100,42
177.86293,177.95221,51,100,42
177.95221,178.0415,53,100,42
178.0415,178.13078,55,100,42
178.13078,178.22008,56,100,42
178.22008,178.57721,58,100,42
178.57721,178.6665,46,100,42
178.6665,178.75578,48,100,42
178.75578,178.84508,50,100,42
178.84508,178.93436,51,100,42
178.93436,179.2915,53,100,42
179.2915,179.64864,56,100,42
179.64864,179.82721,56,100,42
179.82721,180.00578,55,100,42
180.00578,180.18436,53,100,42
180.18436,180.36293,51,100,42
180.36293,180.72008,53,100,42
180.72008,180.80936,51,100,42
180.80936,180.89865,53,100,42
180.89865,180.98793,55,100,42
180.98793,181.07721,56,100,42
181.07721,181.43436,58,100,42
181.43436,181.52365,46,100,42
181.52365,181.61293,48,100,42
181.61293,181.70221,50,100,42
181.70221,181.7915,51,100,42
181.7915,182.14865,53,100,42
182.14865,182.50578,56,100,42
182.50578,182.68436,56,100,42
182.68436,182.86293,55,100,42
182.86293,183.0415,53,100,42
183.0415,183.22008,51,100,42
183.22008,183.57721,53,100,42
183.57721,183.6665,53,100,42
183.6665,183.75578,55,100,42
183.75578,183.84508,57,100,42
183.84508,183.93436,58,100,42
183.93436,184.2915,60,100,42
184.2915,184.38078,57,100,42
184.38078,184.47008,58,100,42
184.47008,184.55936,60,100,42
184.55936,184.64865,62,100,42
184.64865,185.00578,63,100,42
185.00578,185.09508,53,100,42
185.09508,185.18436,55,100,42
185.18436,185.27365,57,100,42
185.27365,185.36293,58,100,42
185.36293,185.72008,60,100,42
185.72008,185.80936,57,100,42
185.80936,185.89865,58,100,42
185.89865,185.98793,60,100,42
185.98793,186.07721,62,100,42
186.07721,186.43436,63,100,42
186.43436,186.61293,62,100,42
186.61293,186.7915,60,100,42
186.7915,186.97008,62,100,42
186.97008,187.14865,58,100,42
187.14865,187.32722,55,100,42
187.32722,187.50578,58,100,42
187.50578,187.68436,51,100,42
187.68436,187.86293,60,100,42
187.86293,188.0415,53,100,42
188.0415,188.22008,57,100,42
188.22008,188.57722,58,100,42
188.57722,188.93436,53,100,42
188.93436,189.2915,46,100,42
189.2915,189.38078,46,100,42
189.38078,189.47008,48,100,42
189.47008,189.55936,50,100,42
189.55936,189.64865,51,100,42
189.64865,190.00578,53,100,42
190.00578,190.18436,55,100,42
190.18436,190.36293,51,100,42
190.36293,190.72008,53,100,42
190.72008,190.89865,58,100,42
190.89865,191.07722,53,100,42
191.07722,191.43436,55,100,42
191.43436,191.7915,51,100,42
191.7915,192.14865,39,100,42
192.14865,192.23793,56,100,42
192.23793,192.32722,55,100,42
192.32722,192.4165,53,100,42
192.4165,192.5058,51,100,42
192.5058,192.86293,50,100,42
192.86293,192.95222,53,100,42
192.95222,193.0415,51,100,42
193.0415,193.1308,50,100,42
193.1308,193.22008,48,100,42
193.22008,193.57722,47,100,42
193.57722,193.6665,50,100,42
193.6665,193.7558,48,100,42
193.7558,193.84508,47,100,42
193.84508,193.93436,45,100,42
193.93436,194.11293,43,100,42
194.11293,194.2915,50,100,42
194.2915,194.47008,53,100,42
194.47008,194.64865,59,100,42
194.64865,195.0058,62,100,42
195.0058,195.09508,55,100,42
195.09508,195.18436,53,100,42
195.18436,195.27365,51,100,42
195.27365,195.36293,50,100,42
195.36293,195.72008,51,100,42
195.72008,195.80936,36,100,42
195.80936,195.89865,38,100,42
195.89865,195.98793,39,100,42
195.98793,196.07722,41,100,42
196.07722,196.43436,43,100,42
196.43436,196.52365,62,100,42
196.52365,196.61293,60,100,42
196.61293,196.70222,59,100,42
196.70222,196.7915,57,100,42
196.7915,197.14865,59,100,42
197.14865,197.23793,43,100,42
197.23793,197.32722,45,100,42
197.32722,197.4165,47,100,42
197.4165,197.5058,48,100,42
197.5058,197.86293,50,100,42
197.86293,197.95222,67,100,42
197.95222,198.0415,65,100,42
198.0415,198.1308,63,100,42
198.1308,198.22008,62,100,42
198.22008,198.57722,63,100,42
198.57722,198.6665,63,100,42
198.6665,198.7558,62,100,42
198.7558,198.84508,60,100,42
198.84508,198.93437,59,100,42
198.93437,199.2915,60,100,42
199.2915,199.3808,60,100,42
199.3808,199.47008,58,100,42
199.47008,199.55937,56,100,42
199.55937,199.64865,55,100,42
199.64865,200.0058,56,100,42
200.0058,200.09508,56,100,42
200.09508,200.18437,55,100,42
200.18437,200.27365,53,100,42
200.27365,200.36293,51,100,42
200.36293,200.72008,50,100,42
200.72008,200.89865,60,100,42
200.89865,201.07722,59,100,42
201.07722,201.2558,60,100,42
201.2558,201.43437,56,100,42
201.43437,201.61293,53,100,42
201.61293,201.7915,56,100,42
201.7915,201.97008,50,100,42
201.97008,202.14865,60,100,42
202.14865,202.32722,55,100,42
202.32722,202.5058,59,100,42
202.5058,202.86295,60,100,42
202.86295,203.22008,43,100,42
203.22008,203.57722,36,100,42
203.57722,203.6665,48,100,42
203.6665,203.7558,50,100,42
203.7558,203.84508,52,100,42
203.84508,203.93437,53,100,42
203.93437,204.2915,55,100,42
204.2915,204.47008,56,100,42
204.47008,204.64865,53,100,42
204.64865,205.0058,55,100,42
205.0058,205.18437,60,100,42
205.18437,205.36295,55,100,42
205.36295,205.5415,58,100,42
205.5415,205.72008,56,100,42
205.72008,205.89865,55,100,42
205.89865,206.07722,53,100,42
206.07722,206.2558,63,100,42
206.2558,206.43437,62,100,42
206.43437,206.61295,60,100,42
206.61295,206.7915,58,100,42
206.7915,207.14865,63,100,42
207.14865,207.23795,51,100,42
207.23795,207.32722,53,100,42
207.32722,207.4165,55,100,42
207.4165,207.5058,56,100,42
207.5058,207.86295,58,100,42
207.86295,208.22008,60,100,42
208.22008,208.39865,51,100,42
208.39865,208.57722,50,100,42
208.57722,208.7558,48,100,42
208.7558,208.93437,50,100,42
208.93437,209.29152,46,100,42
209.29152,209.3808,46,100,42
209.3808,209.47008,48,100,42
209.47008,209.55937,50,100,42
209.55937,209.64865,51,100,42
209.64865,210.0058,53,100,42
210.0058,210.09508,50,100,42
210.09508,210.18437,51,100,42
210.18437,210.27365,53,100,42
210.27365,210.36295,55,100,42
210.36295,210.72008,56,100,42
210.72008,210.80937,46,100,42
210.80937,210.89865,48,100,42
210.89865,210.98795,50,100,42
210.98795,211.07722,51,100,42
211.07722,211.43437,53,100,42
211.43437,211.52365,50,100,42
211.52365,211.61295,51,100,42
211.61295,211.70222,53,100,42
211.70222,211.79152,55,100,42
211.79152,212.14865,56,100,42
212.14865,212.23795,51,100,42
212.23795,212.32722,53,100,42
212.32722,212.41652,55,100,42
212.41652,212.5058,56,100,42
212.5058,212.86295,58,100,42
212.86295,212.95222,55,100,42
212.95222,213.04152,56,100,42
213.04152,213.1308,58,100,42
213.1308,213.22008,60,100,42
213.22008,213.57722,61,100,42
213.57722,213.66652,51,100,42
213.66652,213.7558,53,100,42
213.7558,213.8451,55,100,42
213.8451,213.93437,56,100,42
213.93437,214.29152,58,100,42
214.29152,214.3808,55,100,42
214.3808,214.4701,56,100,42
214.4701,214.55937,58,100,42
214.55937,214.64865,60,100,42
214.64865,215.0058,61,100,42
215.0058,215.18437,60,100,42
215.18437,215.36295,58,100,42
215.36295,215.54152,60,100,42
215.54152,215.7201,58,100,42
215.7201,215.89865,58,100,42
215.89865,216.07722,56,100,42
216.07722,216.2558,58,100,42
216.2558,216.43437,55,100,42
216.43437,216.61295,43,100,42
216.61295,216.70222,55,100,42
216.70222,216.79152,56,100,42
216.79152,216.9701,58,100,42
216.9701,217.05937,55,100,42
217.05937,217.14865,56,100,42
217.14865,217.32722,58,100,42
217.32722,217.41652,56,100,42
217.41652,217.5058,55,100,42
217.5058,217.68437,56,100,42
217.68437,217.86295,53,100,42
217.86295,218.04152,41,100,42
218.04152,218.2201,56,100,42
218.2201,218.30937,55,100,42
218.30937,218.39865,53,100,42
218.39865,218.48795,51,100,42
218.48795,218.57722,50,100,42
218.57722,218.7558,51,100,42
218.7558,218.93437,58,100,42
218.93437,219.02365,55,100,42
219.02365,219.11295,53,100,42
219.11295,219.20222,51,100,42
219.20222,219.29152,50,100,42
219.29152,219.4701,51,100,42
219.4701,219.64867,63,100,42
219.64867,219.73795,56,100,42
219.73795,219.82722,55,100,42
219.82722,219.91652,53,100,42
219.91652,220.0058,55,100,42
220.0058,220.0951,56,100,42
220.0951,220.18437,55,100,42
220.18437,220.27367,53,100,42
220.27367,220.36295,55,100,42
220.36295,220.45222,56,100,42
220.45222,220.54152,55,100,42
220.54152,220.6308,53,100,42
220.6308,220.7201,51,100,42
220.7201,220.80937,50,100,42
220.80937,220.89867,48,100,42
220.89867,220.98795,46,100,42
220.98795,221.07722,44,100,42
221.07722,221.2558,43,100,42
221.2558,221.43437,51,100,42
221.43437,221.61295,60,100,42
221.61295,221.79152,56,100,42
221.79152,222.14867,58,100,42
222.14867,222.32722,60,100,42
222.32722,222.5058,55,100,42
222.5058,222.86295,56,100,42
222.86295,223.2201,53,100,42
223.2201,223.57722,41,100,42
223.57722,223.66652,60,100,42
223.66652,223.7558,58,100,42
223.7558,223.8451,56,100,42
223.8451,223.93437,55,100,42
223.93437,224.29152,53,100,42
224.29152,224.3808,56,100,42
224.3808,224.4701,55,100,42
224.4701,224.55937,53,100,42
224.55937,224.64867,51,100,42
224.64867,225.0058,50,100,42
225.0058,225.0951,53,100,42
225.0951,225.18437,51,100,42
225.18437,225.27367,50,100,42
225.27367,225.36295,48,100,42
225.36295,225.54152,46,100,42
225.54152,225.7201,50,100,42
225.7201,225.89867,53,100,42
225.89867,226.07724,56,100,42
226.07724,226.43437,65,100,42
226.43437,226.52367,63,100,42
226.52367,226.61295,62,100,42
226.61295,226.70224,60,100,42
226.70224,226.79152,58,100,42
226.79152,227.14867,63,100,42
227.14867,227.23795,51,100,42
227.23795,227.32724,53,100,42
227.32724,227.41652,55,100,42
227.41652,227.5058,56,100,42
227.5058,227.86295,58,100,42
227.86295,228.2201,60,100,42
228.2201,228.39867,51,100,42
228.39867,228.57724,50,100,42
228.57724,228.7558,48,100,42
228.7558,228.93437,50,100,42
228.93437,229.29152,46,100,42
229.29152,229.3808,63,100,42
229.3808,229.4701,62,100,42
229.4701,229.55937,60,100,42
229.55937,229.64867,58,100,42
229.64867,230.00581,63,100,42
230.00581,230.0951,51,100,42
230.0951,230.18437,53,100,42
230.18437,230.27367,55,100,42
230.27367,230.36295,56,100,42
230.36295,230.7201,58,100,42
230.7201,231.07724,60,100,42
231.07724,231.16652,61,100,42
231.16652,231.25581,60,100,42
231.25581,231.43437,58,100,42
231.43437,231.9701,60,100,42
231.9701,232.05937,58,100,42
232.05937,232.14867,56,100,42
232.14867,232.23795,58,100,42
232.23795,232.32724,56,100,42
232.32724,232.50581,55,100,42
232.50581,232.5951,56,100,42
232.5951,232.68437,55,100,42
232.68437,232.86295,53,100,42
232.86295,233.39867,55,100,42
233.39867,233.48795,53,100,42
233.48795,233.57724,51,100,42
233.57724,233.66652,53,100,42
233.66652,233.75581,51,100,42
233.75581,233.93437,50,100,42
233.93437,234.11295,51,100,42
234.11295,234.29152,46,100,42
234.29152,234.4701,43,100,42
234.4701,234.64867,46,100,42
234.64867,235.00581,39,100,42
235.00581,235.0951,46,100,42
235.0951,235.18437,48,100,42
235.18437,235.27367,50,100,42
235.27367,235.36295,51,100,42
235.36295,235.7201,53,100,42
235.7201,235.80939,50,100,42
235.80939,235.89867,51,100,42
235.89867,235.98795,53,100,42
235.98795,236.07724,55,100,42
236.07724,236.43439,56,100,42
236.43439,236.52367,46,100,42
236.52367,236.61295,48,100,42
236.61295,236.70224,50,100,42
236.70224,236.79152,51,100,42
236.79152,237.14867,53,100,42
237.14867,237.23795,50,100,42
237.23795,237.32724,51,100,42
237.32724,237.41652,53,100,42
237.41652,237.50581,55,100,42
237.50581,237.86295,56,100,42
237.86295,238.04152,55,100,42
238.04152,238.2201,53,100,42
238.2201,238.39867,55,100,42
238.39867,238.57724,58,100,42
238.57724,238.75581,63,100,42
238.75581,238.93439,55,100,42
238.93439,239.11295,53,100,42
239.11295,239.29152,51,100,42
239.29152,239.4701,46,100,42
239.4701,239.64867,62,100,42
239.64867,241.79152,63,100,42
85.36289,86.43432,55,100,42
136.79149,137.86292,55,100,42
137.86292,138.22006,43,100,42
138.22006,138.5772,44,100,42
138.93434,139.29149,46,100,42
139.64862,140.00577,48,100,42
140.36292,140.72006,43,100,42
143.5772,143.93434,43,100,42
143.93434,144.29149,44,100,42
144.64864,145.00577,46,100,42
145.36292,145.72006,48,100,42
146.0772,146.43434,43,100,42
149.29149,149.64864,51,100,42
149.64864,150.00577,56,100,42
150.36292,150.72006,55,100,42
152.50577,152.86292,50,100,42
153.22006,153.57721,51,100,42
155.00578,155.36292,51,100,42
155.36292,155.72006,51,100,42
155.72006,156.43434,53,100,42
156.43434,156.79149,50,100,42
156.79149,156.97006,51,100,42
156.97006,157.14864,53,100,42
157.14864,157.86292,55,100,42
157.86292,158.22006,51,100,42
158.22006,158.57721,44,100,42
158.57721,158.93434,53,100,42
158.93434,159.29149,46,100,42
159.29149,159.64864,50,100,42
159.64864,160.72006,51,100,42
160.72006,161.07721,51,100,42
161.07721,161.43436,56,100,42
161.79149,162.14864,55,100,42
163.93436,164.29149,50,100,42
164.64864,165.00578,51,100,42
166.43436,166.79149,51,100,42
166.79149,167.14864,51,100,42
167.14864,167.86293,53,100,42
167.86293,168.22006,50,100,42
168.22006,168.39864,51,100,42
168.39864,168.57721,53,100,42
168.57721,169.29149,55,100,42
169.29149,169.64864,51,100,42
169.64864,170.00578,44,100,42
170.00578,170.36293,53,100,42
170.36293,170.72006,46,100,42
170.72006,171.07721,50,100,42
171.07721,172.14864,51,100,42
239.64867,241.79152,55,100,42
85.36289,86.43432,46,100,42
136.79149,137.86292,46,100,42
159.64864,160.72006,39,100,42
171.07721,172.14864,39,100,42
239.64867,241.79152,46,100,42
85.36289,86.43432,39,100,42
136.79149,137.86292,39,100,42
239.64867,241.79152,39,100,42
