start_time,end_time,note_value,velocity,instrument_program_number
0.10791375,0.22944163,74,57,0
0.2120805,0.3336084,76,57,0
0.31624725,0.43777514,78,57,0
0.420414,0.5245808,69,60,0
0.5245808,0.6461086,78,57,0
0.6287475,0.7502754,76,57,0
0.73291427,0.8544421,74,57,0
0.837081,0.94124776,81,62,0
0.94124776,1.0627756,74,58,0
1.0454144,1.1669424,76,58,0
1.1495812,1.2711091,78,58,0
1.253748,1.3579148,69,61,0
1.3579148,1.4794426,78,57,0
1.4620816,1.5836093,76,57,0
1.5662483,1.6877761,74,57,0
1.670415,1.7745818,79,60,0
1.7745818,1.8961096,76,58,0
1.8787485,2.0002763,78,58,0
1.9829153,2.104443,79,58,0
2.087082,2.1912487,71,60,0
2.1912487,2.3130789,74,58,0
2.2956574,2.4177911,73,58,0
2.4003086,2.5229955,71,58,0
2.505265,2.611648,73,61,0
2.611648,2.733176,76,58,0
2.7158148,2.8373427,78,58,0
2.8199816,2.9415095,79,58,0
2.9241483,3.028315,69,60,0
3.028315,3.148178,79,58,0
3.1310549,3.251525,78,58,0
3.2337945,3.3575387,76,58,0
3.3401775,3.4443443,78,62,0
3.4443443,3.5658722,74,57,0
3.548511,3.670039,76,56,0
3.6526778,3.7742057,78,56,0
3.7568445,3.8610113,69,61,0
3.8610113,3.982781,73,56,0
3.9654198,4.0865874,71,56,0
4.0693464,4.189858,69,56,0
4.172676,4.2755337,71,62,0
4.2755337,4.394987,74,56,0
4.3779225,4.4973764,76,56,0
4.4803114,4.600122,78,56,0
4.5827003,4.68723,71,61,0
4.68723,4.806684,81,56,0
4.789619,4.909073,80,56,0
4.892008,5.012065,78,56,0
4.994397,5.100404,80,61,0
5.100404,5.220094,76,56,0
5.203029,5.322483,78,56,0
5.305418,5.4250474,80,56,0
5.407924,5.510664,71,60,0
5.510664,5.6305857,74,56,0
5.613404,5.7336783,73,56,0
5.7164965,5.836771,71,56,0
5.819589,5.922919,69,60,0
5.922919,6.0465937,73,56,0
6.028926,6.152601,74,56,0
6.134933,6.258608,76,56,0
6.2409396,6.3469467,66,60,0
6.3469467,6.4676366,76,56,0
6.450395,6.5715737,74,56,0
6.5538435,6.6775875,73,56,0
6.6602263,6.764393,74,60,0
6.764393,6.885921,71,56,0
6.86856,6.9900875,73,56,0
6.9727263,7.0942545,74,56,0
7.0768933,7.1810603,66,60,0
7.1810603,7.3028903,69,55,0
7.2854686,7.4076023,68,55,0
7.39012,7.512559,66,54,0
7.495015,7.6002784,68,59,0
7.6002784,7.7230854,71,54,0
7.7055416,7.8283486,73,54,0
7.810805,7.933612,74,54,0
7.916068,8.021331,64,59,0
8.021331,8.142021,74,53,0
8.12478,8.245469,73,53,0
8.228228,8.349533,71,53,0
8.331676,8.438819,73,57,0
8.438819,8.559926,69,54,0
8.542625,8.663733,71,54,0
8.646431,8.767538,73,54,0
8.750237,8.854044,64,56,0
8.854044,8.976421,67,53,0
8.958939,9.081316,66,53,0
9.063834,9.185911,64,53,0
9.168729,9.271822,66,55,0
9.271822,9.3920965,69,53,0
9.374914,9.495189,71,52,0
9.478007,9.598282,73,52,0
9.5810995,9.684193,66,55,0
9.684193,9.807432,76,51,0
9.789826,9.913066,75,51,0
9.89546,10.0187,73,51,0
10.001094,10.106728,75,54,0
10.106728,10.227835,71,51,0
10.210534,10.331641,73,51,0
10.31434,10.435448,75,51,0
10.418146,10.521953,66,54,0
10.521953,10.64306,69,52,0
10.625759,10.746866,67,52,0
10.729565,10.850613,66,52,0
10.833371,10.93676,64,55,0
10.93676,11.056859,67,53,0
11.039736,11.159365,69,53,0
11.1423,11.261406,71,53,0
11.244456,11.346151,61,57,0
11.346151,11.465606,74,54,0
11.448541,11.567994,73,54,0
11.550929,11.670383,71,54,0
11.653318,11.755708,70,57,0
11.755708,11.877235,64,55,0
11.859875,11.981402,66,55,0
11.964041,12.085569,67,55,0
12.068208,12.172375,61,59,0
12.172375,12.293482,67,55,0
12.276181,12.39693,66,56,0
12.379688,12.500082,64,56,0
12.4829,12.585757,62,61,0
12.585757,12.705212,71,57,0
12.688147,12.8076,73,57,0
12.790535,12.909989,74,57,0
12.892924,12.995314,66,62,0
12.995314,13.114767,69,58,0
13.097702,13.217156,68,58,0
13.200091,13.319545,66,58,0
13.302481,13.404869,65,63,0
13.404869,13.526398,68,58,0
13.509036,13.630564,69,59,0
13.613203,13.734731,71,59,0
13.71737,13.821536,65,63,0
13.821536,13.943065,74,59,0
13.925703,14.047231,73,59,0
14.02987,14.151398,71,60,0
14.134037,14.238203,80,63,0
14.238203,14.357251,77,60,0
14.340244,14.459291,78,60,0
14.442285,14.561994,80,60,0
14.544326,14.650332,73,65,0
14.650332,14.77314,83,61,0
14.755596,14.878403,81,62,0
14.860859,14.983666,80,62,0
14.966123,15.071385,81,67,0
15.071385,15.1904335,78,62,0
15.173427,15.292474,80,62,0
15.275467,15.394515,81,62,0
15.377508,15.479548,73,67,0
15.479548,15.598538,76,62,0
15.58159,15.700233,75,62,0
15.683285,15.801871,73,62,0
15.78498,15.886331,75,67,0
15.886331,16.004517,78,62,0
15.987682,16.105526,79,62,0
16.088692,16.207314,81,62,0
16.189646,16.295652,71,67,0
16.295652,16.414875,81,62,0
16.39781,16.51779,79,62,0
16.500608,16.621418,78,62,0
16.604116,16.708223,79,67,0
16.708223,16.82933,76,62,0
16.812029,16.933136,78,62,0
16.915836,17.036943,79,62,0
17.019642,17.123447,71,66,0
17.123447,17.244856,74,62,0
17.227495,17.349203,72,62,0
17.331783,17.453856,71,62,0
17.436373,17.541267,72,66,0
17.541267,17.661543,75,62,0
17.644361,17.764635,76,62,0
17.747454,17.86773,78,62,0
17.850546,17.953638,69,66,0
17.953638,18.07559,72,62,0
18.058168,18.180119,71,62,0
18.162699,18.284834,69,62,0
18.267227,18.372862,67,66,0
18.372862,18.496101,76,62,0
18.478495,18.601734,78,62,0
18.58413,18.707369,79,61,0
18.689762,18.795397,71,66,0
18.795397,18.916504,74,62,0
18.899202,19.02031,73,62,0
19.003008,19.124115,71,62,0
19.106815,19.21062,73,66,0
19.21062,19.332573,76,62,0
19.315151,19.437101,78,62,0
19.41968,19.541632,79,62,0
19.52421,19.628738,69,64,0
19.628738,19.748602,79,62,0
19.73148,19.851341,78,62,0
19.834219,19.954023,76,62,0
19.936958,20.039347,78,67,0
20.039347,20.159094,74,62,0
20.14197,20.26201,76,62,0
20.244827,20.365221,78,62,0
20.34798,20.451427,69,65,0
20.451427,20.572535,72,61,0
20.555235,20.676342,71,60,0
20.65904,20.780148,69,60,0
20.762846,20.866653,71,65,0
20.866653,20.986515,67,59,0
20.969393,21.089256,69,59,0
21.072132,21.192354,71,59,0
21.174871,21.279768,61,64,0
21.279768,21.400042,71,58,0
21.38286,21.503136,69,58,0
21.485952,21.606228,67,58,0
21.589045,21.692139,66,63,0
21.692139,21.813665,62,57,0
21.796305,21.917833,64,57,0
21.90047,22.022,66,57,0
22.004639,22.108805,57,62,0
22.108805,22.228258,60,57,0
22.211195,22.330648,59,56,0
22.313583,22.433037,57,56,0
22.415972,22.518362,59,61,0
22.518362,22.637815,62,56,0
22.62075,22.740204,64,56,0
22.723139,22.842592,66,55,0
22.825527,22.927917,59,60,0
22.927917,23.050295,69,54,0
23.032812,23.15519,68,54,0
23.137707,23.260084,66,54,0
23.242601,23.347498,68,58,0
23.347498,23.469025,64,54,0
23.451664,23.573193,66,53,0
23.55583,23.677238,68,53,0
23.659937,23.763744,59,57,0
23.763744,23.884851,62,53,0
23.86755,23.98836,60,53,0
23.971117,24.091806,59,52,0
24.074566,24.177954,57,56,0
24.177954,24.29823,60,52,0
24.281048,24.401321,62,52,0
24.38414,24.504416,64,52,0
24.487232,24.590326,57,55,0
24.590326,24.712704,67,51,0
24.69522,24.817598,66,50,0
24.800116,24.922493,64,50,0
24.90501,25.009905,63,54,0
25.009905,25.13018,57,50,0
25.112999,25.233273,59,50,0
25.216091,25.336367,60,50,0
25.319183,25.422277,57,54,0
25.422277,25.542551,60,50,0
25.52537,25.645645,59,50,0
25.628462,25.748737,57,50,0
25.731554,25.834648,55,54,0
25.834648,25.957455,64,50,0
25.93991,26.062717,66,50,0
26.045174,26.167982,67,50,0
26.150438,26.255701,59,54,0
26.255701,26.376036,62,50,0
26.358793,26.479542,61,50,0
26.462242,26.583408,59,50,0
26.566048,26.670275,58,54,0
26.670275,26.790138,61,50,0
26.773014,26.892878,62,50,0
26.875755,26.995617,64,50,0
26.978495,27.081234,58,54,0
27.081234,27.201097,67,50,0
27.183973,27.303837,66,50,0
27.286713,27.406576,64,51,0
27.389454,27.492193,73,55,0
27.492193,27.612057,70,51,0
27.594933,27.714796,71,52,0
27.697672,27.817535,73,52,0
27.800413,27.903152,66,55,0
27.903152,28.02553,76,52,0
28.008047,28.130424,74,52,0
28.112942,28.23532,73,52,0
28.217836,28.322733,74,57,0
28.322733,28.443007,71,53,0
28.425825,28.5461,73,53,0
28.528917,28.649193,74,53,0
28.63201,28.735104,66,58,0
28.735104,28.855377,69,53,0
28.838196,28.958471,68,53,0
28.941288,29.061563,66,54,0
29.044382,29.147474,68,59,0
29.147474,29.267397,71,54,0
29.250332,29.369612,72,54,0
29.352604,29.471716,74,54,0
29.454414,29.558222,64,59,0
29.558222,29.680172,74,55,0
29.66275,29.784702,72,55,0
29.76728,29.88923,71,55,0
29.871809,29.97634,72,61,0
29.97634,30.096613,69,55,0
30.079432,30.199707,71,54,0
30.182524,30.3028,72,53,0
30.285618,30.38865,64,59,0
30.38865,30.508398,67,52,0
30.491333,30.61067,66,52,0
30.593664,30.712595,64,51,0
30.695646,30.797514,66,56,0
30.797514,30.917143,69,50,0
30.90002,31.020355,71,50,0
31.003113,31.124222,72,49,0
31.106861,31.211027,62,54,0
31.211027,31.332556,72,48,0
31.315193,31.436722,71,47,0
31.419361,31.540888,69,47,0
31.523527,31.627695,71,51,0
31.627695,31.747557,67,46,0
31.730434,31.850296,69,46,0
31.833174,31.953457,71,46,0
31.935913,32.041176,62,51,0
32.041176,32.16529,71,46,0
32.14756,32.27167,69,46,0
32.253944,32.376385,67,46,0
32.358902,32.4638,74,51,0
32.4638,32.584488,67,46,0
32.567245,32.688057,69,46,0
32.670753,32.79198,71,46,0
32.77462,32.87885,62,51,0
32.87885,33.002087,71,46,0
32.98448,33.10772,69,46,0
33.090115,33.213356,67,46,0
33.195747,33.301136,72,51,0
33.301136,33.422665,69,48,0
33.405304,33.52683,71,48,0
33.509468,33.630997,72,48,0
33.613636,33.717804,64,51,0
33.717804,33.83933,67,48,0
33.821968,33.943497,66,48,0
33.926136,34.047665,64,48,0
34.030304,34.134468,66,51,0
34.134468,34.254745,69,48,0
34.237564,34.357838,71,48,0
34.340656,34.46093,72,48,0
34.44375,34.54684,62,51,0
34.54684,34.66922,72,48,0
34.651737,34.774113,71,48,0
34.75663,34.87901,69,48,0
34.861526,34.96642,71,51,0
34.96642,35.08753,67,48,0
35.07023,35.191334,69,48,0
35.174034,35.29514,71,48,0
35.27784,35.381645,62,51,0
35.381645,35.502754,66,48,0
35.48545,35.60656,64,48,0
35.589256,35.710304,62,48,0
35.693066,35.796513,64,51,0
35.796513,35.916965,67,48,0
35.899784,36.01994,69,48,0
36.002815,36.12268,71,48,0
36.105556,36.208004,64,51,0
36.208004,36.327457,74,48,0
36.310394,36.429848,73,48,0
36.41278,36.532234,71,48,0
36.51517,36.61756,73,51,0
36.61756,36.737015,69,48,0
36.719948,36.8394,71,48,0
36.82234,36.94179,73,48,0
36.92473,37.027115,64,51,0
37.027115,37.14657,67,49,0
37.129505,37.24896,66,49,0
37.231895,37.35129,64,49,0
37.334282,37.436325,62,52,0
37.436325,37.55566,66,49,0
37.538597,37.658226,67,49,0
37.6411,37.761024,69,49,0
37.743843,37.846935,59,53,0
37.846935,37.969315,69,49,0
37.95183,38.074207,67,49,0
38.056725,38.179104,66,49,0
38.16162,38.266514,67,53,0
38.266514,38.388893,64,49,0
38.37141,38.49379,66,49,0
38.476307,38.598682,67,49,0
38.5812,38.686096,59,54,0
38.686096,38.8072,62,49,0
38.7899,38.91101,61,50,0
38.893707,39.014816,59,50,0
38.997513,39.101322,61,54,0
39.101322,39.222427,64,50,0
39.205128,39.326233,66,50,0
39.308933,39.43004,67,50,0
39.41274,39.516544,57,55,0
39.516544,39.638924,67,50,0
39.62144,39.743816,66,51,0
39.726334,39.848713,64,51,0
39.83123,39.936127,66,55,0
39.936127,40.05723,62,51,0
40.039932,40.161037,64,51,0
40.143738,40.264786,66,52,0
40.247543,40.350994,57,56,0
40.350994,40.471443,66,52,0
40.45426,40.57448,64,52,0
40.557354,40.67722,62,52,0
40.660095,40.7626,69,57,0
40.7626,40.882053,66,52,0
40.86499,40.984444,67,52,0
40.96738,41.086834,69,53,0
41.069767,41.172157,62,57,0
41.172157,41.294537,72,53,0
41.277054,41.39943,71,53,0
41.381947,41.504326,69,53,0
41.486843,41.591736,71,58,0
41.591736,41.712425,67,53,0
41.695187,41.815876,69,53,0
41.798634,41.919323,71,53,0
41.90208,42.00553,62,58,0
42.00553,42.125393,71,54,0
42.10827,42.228134,69,54,0
42.21101,42.33087,67,54,0
42.31375,42.41649,74,59,0
42.41649,42.536354,71,54,0
42.51923,42.63909,73,54,0
42.621967,42.741714,74,54,0
42.72471,42.826748,68,60,0
42.826748,42.9487,77,55,0
42.93128,43.05323,76,55,0
43.03581,43.15776,74,55,0
43.14034,43.244865,73,60,0
43.244865,43.366817,69,56,0
43.349396,43.471348,71,56,0
43.453926,43.57588,73,56,0
43.558456,43.662987,64,60,0
43.662987,43.783676,67,56,0
43.766434,43.887123,66,56,0
43.86988,43.99057,64,56,0
43.97333,44.07678,69,60,0
44.07678,44.199585,74,56,0
44.18204,44.304848,76,56,0
44.287304,44.41011,78,56,0
44.392567,44.49783,71,61,0
44.49783,44.618107,81,56,0
44.600925,44.7212,79,56,0
44.704018,44.82429,78,56,0
44.80711,44.910202,79,61,0
44.910202,45.033443,73,56,0
45.015835,45.139076,74,56,0
45.12147,45.24471,76,56,0
45.227104,45.332737,69,61,0
45.332737,45.4526,79,56,0
45.43548,45.55534,78,56,0
45.538216,45.65808,76,56,0
45.640957,45.7437,78,61,0
45.7437,45.865646,71,56,0
45.848225,45.970177,73,56,0
45.952755,46.074707,74,56,0
46.057285,46.161816,68,61,0
46.161816,46.28334,78,56,0
46.26598,46.38751,76,56,0
46.370148,46.491676,74,56,0
46.474316,46.57848,73,60,0
46.57848,46.70001,67,56,0
46.682648,46.804176,69,56,0
46.786816,46.908344,70,56,0
46.89098,46.995148,64,60,0
46.995148,47.116676,67,56,0
47.099316,47.220844,65,56,0
47.203484,47.32501,64,56,0
47.307648,47.411816,65,60,0
47.411816,47.53419,74,56,0
47.51671,47.639088,76,62,0
47.621605,47.743984,77,58,0
47.7265,47.831394,73,60,0
47.831394,47.95126,76,56,0
47.934135,48.053997,74,56,0
48.036873,48.157097,73,56,0
48.139614,48.24451,74,60,0
48.24451,48.364372,82,66,0
48.347248,48.467113,81,65,0
48.449932,48.57092,79,64,0
48.55356,48.65827,77,62,0
48.65827,48.781822,76,61,0
48.764095,48.88897,74,60,0
48.871048,48.99658,73,58,0
48.979156,49.083687,74,60,0
49.083687,49.204376,77,62,0
49.187134,49.307823,76,61,0
49.29058,49.41127,74,60,0
49.39403,49.49748,83,65,0
49.49748,49.61734,80,61,0
49.60022,49.72008,81,63,0
49.702957,49.822823,83,66,0
49.8057,49.908436,77,68,0
49.908436,50.0283,74,61,0
50.011177,50.13104,76,61,0
50.11392,50.23378,77,61,0
50.216656,50.319397,71,65,0
50.319397,50.43926,68,59,0
50.422134,50.542,69,59,0
50.524876,50.64468,71,59,0
50.627617,50.730064,64,61,0
50.730064,50.8501,66,55,0
50.83292,50.953434,68,57,0
50.93619,51.05724,69,59,0
51.03988,51.161526,71,60,0
51.144104,51.26624,73,62,0
51.248756,51.37138,74,64,0
51.353836,51.477528,76,65,0
51.568436,51.67753,73,57,0
51.67753,51.786617,74,57,0
51.786617,51.89571,69,57,0
51.89571,52.009346,70,57,0
52.009346,52.122982,67,57,0
51.459347,52.122982,77,71,0
52.237198,52.35221,67,57,0
52.35221,52.46827,69,57,0
52.46827,52.585686,65,57,0
52.122982,52.585686,76,71,0
52.704502,52.82474,65,56,0
52.82474,52.94695,67,57,0
52.94695,53.071693,64,57,0
52.585686,53.071693,74,71,0
53.21455,53.353554,64,56,0
53.071693,53.353554,73,69,0
53.77022,54.186886,71,64,0
53.718136,54.186886,68,60,0
53.61397,54.186886,62,52,0
53.666054,54.186886,65,57,0
53.822304,54.268856,74,68,0
54.268856,54.350822,73,53,0
54.350822,54.43279,71,53,0
54.43279,54.514458,69,52,0
54.514458,54.59598,68,52,0
54.59598,54.677063,66,51,0
54.677063,54.75785,64,51,0
54.75785,54.838352,66,50,0
54.838352,54.91828,68,47,0
54.91828,54.99751,69,48,0
54.99751,55.07618,71,49,0
55.07618,55.15417,73,50,0
55.15417,55.231625,74,51,0
55.231625,55.308414,76,51,0
55.308414,55.38469,77,52,0
55.38469,55.46032,76,53,0
55.46032,55.53532,74,54,0
55.53532,55.610317,73,53,0
55.610317,55.685318,71,52,0
55.685318,55.76032,69,52,0
55.76032,55.83532,68,51,0
55.83532,55.91032,66,51,0
55.91032,55.985317,64,50,0
55.985317,56.060318,62,49,0
56.4249,56.476986,82,58,0
56.26865,56.476986,73,58,0
56.320736,56.476986,76,58,0
56.372818,56.476986,79,58,0
57.258236,57.310318,83,63,0
57.101986,57.310318,74,63,0
57.154068,57.310318,77,63,0
57.20615,57.310318,80,63,0
57.726986,58.4817,74,69,0
58.4817,59.298027,73,65,0
57.726986,59.298027,64,58,0
57.726986,59.298027,69,58,0
59.298027,61.74701,66,60,0
59.298027,61.74701,69,60,0
59.298027,61.74701,74,71,0
0.0,0.15999712,50,47,0
0.420414,0.57666415,62,40,0
0.837081,0.99333113,54,45,0
1.253748,1.4099982,62,40,0
1.670415,1.8266652,52,46,0
2.087082,2.2433925,62,42,0
2.505265,2.6637313,57,45,0
2.9241483,3.079685,61,41,0
3.3401775,3.4964278,50,45,0
3.7568445,3.913276,62,40,0
4.172676,4.326728,50,44,0
4.5827003,4.7384243,62,42,0
4.994397,5.1518345,50,45,0
5.407924,5.5620337,56,42,0
5.819589,5.975922,49,45,0
6.2409396,6.398671,57,42,0
6.6602263,6.8164763,47,46,0
7.0768933,7.233204,57,39,0
7.495015,7.6529098,52,44,0
7.916068,8.073055,56,38,0
8.331676,8.490722,45,42,0
8.750237,8.906491,57,39,0
9.168729,9.323368,45,41,0
9.5810995,9.737009,57,36,0
10.001094,10.15863,45,39,0
10.418146,10.573855,51,36,0
10.833371,10.988307,43,41,0
11.244456,11.3973465,52,38,0
11.653318,11.807791,42,44,0
12.068208,12.2242775,54,39,0
12.4829,12.636951,42,46,0
12.892924,13.046508,54,41,0
13.302481,13.456953,42,46,0
13.71737,13.87362,54,42,0
14.134037,14.289224,42,47,0
14.544326,14.702964,54,42,0
14.966123,15.122406,42,49,0
15.377508,15.530569,54,44,0
15.78498,15.937006,47,49,0
16.189646,16.346672,51,45,0
16.604116,16.760126,40,48,0
17.019642,17.175411,52,45,0
17.436373,17.592813,40,48,0
17.850546,18.005903,51,48,0
18.267227,18.425678,40,48,0
18.689762,18.8473,52,45,0
19.106815,19.262886,45,48,0
19.52421,19.680109,49,45,0
19.936958,20.090601,38,48,0
20.34798,20.50333,50,44,0
20.762846,20.918022,38,47,0
21.174871,21.331314,50,40,0
21.589045,21.74422,38,45,0
22.004639,22.16,50,41,0
22.415972,22.569555,38,44,0
22.825527,22.980364,50,38,0
23.242601,23.39958,38,42,0
23.659937,23.815647,56,38,0
24.074566,24.229502,48,41,0
24.487232,24.642773,54,37,0
24.90501,25.061453,47,40,0
25.319183,25.473824,51,37,0
25.731554,25.88728,52,41,0
26.150438,26.307247,55,36,0
26.566048,26.721645,47,41,0
26.978495,27.132605,52,37,0
27.389454,27.543564,55,42,0
27.800413,27.955599,58,37,0
28.217836,28.374279,47,43,0
28.63201,28.78665,59,38,0
29.044382,29.198961,52,44,0
29.454414,29.610485,56,39,0
29.871809,30.027885,45,46,0
30.285618,30.440022,57,40,0
30.695646,30.84871,50,43,0
31.106861,31.263111,54,36,0
31.523527,31.679064,43,39,0
31.935913,32.094368,55,34,0
32.358902,32.515522,47,39,0
32.77462,32.931664,55,35,0
33.195747,33.353218,45,39,0
33.613636,33.769886,55,34,0
34.030304,34.186016,50,39,0
34.44375,34.59929,54,34,0
34.861526,35.018322,43,39,0
35.27784,35.433548,55,34,0
35.693066,35.848236,43,39,0
36.105556,36.259197,55,34,0
36.51517,36.668755,43,39,0
36.92473,37.078312,49,34,0
37.334282,37.487404,42,39,0
37.743843,37.899384,50,34,0
38.16162,38.318962,40,40,0
38.5812,38.738,50,35,0
38.997513,39.153225,45,42,0
39.41274,39.568993,49,36,0
39.83123,39.98803,38,43,0
40.247543,40.402718,50,38,0
40.660095,40.813797,42,44,0
41.069767,41.224606,57,39,0
41.486843,41.643463,43,45,0
41.90208,42.0569,55,40,0
42.31375,42.467857,47,46,0
42.72471,42.879013,62,41,0
43.558456,43.71471,55,41,0
43.97333,44.12941,54,47,0
44.392567,44.549377,50,41,0
44.80711,44.96302,52,47,0
45.227104,45.384106,49,41,0
45.640957,45.79596,50,47,0
46.057285,46.213898,47,41,0
46.57848,46.70001,52,51,0
46.682648,46.804176,54,50,0
46.786816,46.908344,55,50,0
46.89098,46.995148,49,54,0
46.995148,47.116676,52,50,0
47.099316,47.220844,50,50,0
47.203484,47.32501,49,50,0
47.307648,47.411816,50,54,0
47.411816,47.53419,53,51,0
47.51671,47.639088,55,53,0
47.621605,47.743984,57,53,0
47.7265,47.831394,52,54,0
47.831394,47.95126,55,50,0
47.934135,48.053997,53,50,0
43.14034,48.139614,45,47,0
48.036873,48.157097,52,50,0
48.139614,48.24451,53,55,0
48.24451,48.364372,50,50,0
48.347248,48.467113,52,50,0
48.449932,48.57092,53,50,0
48.55356,48.65827,45,51,0
48.65827,48.781822,48,52,0
48.764095,48.88897,46,54,0
48.871048,48.99658,45,56,0
48.979156,51.459347,44,58,0
51.67753,51.89571,57,50,0
51.89571,52.122982,55,50,0
52.122982,52.35221,49,50,0
52.35221,52.585686,53,55,0
52.585686,52.82474,50,50,0
52.82474,53.071693,52,53,0
53.071693,53.353554,55,50,0
51.459347,53.353554,45,60,0
53.561886,54.186886,59,52,0
53.45772,54.186886,53,48,0
53.353554,54.186886,45,44,0
53.405636,54.186886,50,45,0
53.509804,54.186886,56,49,0
56.216568,56.476986,70,58,0
56.060318,56.476986,61,58,0
56.1124,56.476986,64,58,0
56.164486,56.476986,67,58,0
57.0499,57.310318,71,62,0
56.89365,57.310318,62,62,0
56.945736,57.310318,65,62,0
56.997818,57.310318,68,62,0
57.726986,58.4817,52,68,0
58.4817,59.298027,55,63,0
57.726986,59.298027,57,68,0
57.726986,59.298027,45,57,0
59.298027,61.74701,54,57,0
59.298027,61.74701,57,68,0
59.298027,61.74701,50,57,0
80.74701,80.87201,69,71,0
80.87201,80.99701,71,71,0
80.99701,81.12201,73,71,0
81.12201,81.24701,74,71,0
81.24701,81.37201,73,71,0
81.37201,81.49701,71,71,0
81.49701,81.62201,73,71,0
81.62201,81.74701,69,71,0
81.74701,82.49701,78,75,0
82.49701,82.74701,78,71,0
82.74701,83.49701,76,76,0
83.49701,83.74701,74,71,0
83.74701,84.49701,73,75,0
84.49701,84.580345,76,69,0
84.580345,84.66367,78,69,0
84.66367,84.74701,79,69,0
84.74701,85.49701,81,76,0
85.49701,85.74701,81,72,0
85.74701,86.49701,81,76,0
86.49701,86.580345,74,70,0
86.580345,86.66367,76,70,0
86.66367,86.74701,78,70,0
86.74701,87.49701,79,74,0
87.49701,87.74701,79,70,0
87.74701,88.74701,79,73,0
88.74701,89.49701,78,74,0
89.49701,89.74701,76,69,0
89.74701,90.49701,74,74,0
90.49701,90.74701,76,71,0
90.74701,91.49701,73,75,0
91.49701,91.74701,73,73,0
91.74701,92.74701,73,73,0
92.74701,92.87201,71,73,0
92.87201,92.99701,73,73,0
92.99701,93.12201,74,73,0
93.12201,93.24701,76,73,0
93.24701,93.37201,74,73,0
93.37201,93.49701,73,73,0
93.49701,93.62201,74,73,0
93.62201,93.74701,71,70,0
93.74701,94.49701,79,78,0
94.49701,94.74701,79,73,0
94.74701,95.49701,78,76,0
95.49701,95.74701,76,73,0
95.74701,96.74701,74,76,0
96.74701,96.99701,83,72,0
96.99701,97.24701,81,70,0
97.24701,97.49701,83,72,0
97.49701,97.74701,80,69,0
97.74701,97.99701,80,71,0
97.99701,98.24701,78,69,0
98.24701,98.49701,80,72,0
98.49701,98.74701,76,67,0
98.74701,98.99701,76,69,0
98.99701,99.24701,74,67,0
99.24701,99.49701,76,68,0
99.49701,99.74701,73,64,0
99.74701,100.74701,73,64,0
100.74701,100.99701,81,72,0
100.99701,101.24701,79,70,0
101.24701,101.49701,81,72,0
101.49701,101.74701,78,69,0
101.74701,101.99701,78,71,0
101.99701,102.24701,76,69,0
102.24701,102.49701,78,72,0
102.49701,102.74701,74,67,0
102.74701,102.99701,74,69,0
102.99701,103.24701,72,67,0
103.24701,103.49701,74,68,0
103.49701,103.74701,71,64,0
103.74701,104.74701,71,64,0
104.74701,104.87201,67,72,0
104.87201,104.99701,69,72,0
104.99701,105.12201,71,72,0
105.12201,105.24701,72,72,0
105.24701,105.37201,71,72,0
105.37201,105.49701,69,72,0
105.49701,105.62201,71,72,0
105.62201,105.74701,67,72,0
105.74701,106.49701,76,76,0
106.49701,106.74701,76,71,0
106.74701,107.49701,74,75,0
107.49701,107.74701,72,71,0
107.74701,108.49701,71,75,0
108.49701,108.74701,73,71,0
108.74701,110.74701,74,74,0
110.74701,111.74701,73,71,0
111.74701,112.74701,74,72,0
112.74701,112.87201,74,71,0
112.87201,112.99701,76,71,0
112.99701,113.12201,78,71,0
113.12201,113.24701,79,71,0
113.24701,113.37201,78,71,0
113.37201,113.49701,76,71,0
113.49701,113.62201,78,71,0
113.62201,113.74701,74,71,0
113.74701,114.49701,83,76,0
114.49701,114.74701,83,71,0
114.74701,115.49701,81,76,0
115.49701,115.74701,79,71,0
115.74701,116.49701,78,76,0
116.49701,116.580345,74,71,0
116.580345,116.66367,76,71,0
116.66367,116.74701,78,71,0
116.74701,117.49701,79,76,0
117.49701,117.74701,79,73,0
117.74701,118.49701,79,75,0
118.49701,118.74701,81,73,0
118.74701,119.49701,78,76,0
119.49701,119.74701,78,72,0
119.74701,120.49701,78,72,0
120.49701,120.62201,76,67,0
120.62201,120.74701,75,67,0
120.74701,122.49701,76,73,0
122.49701,122.74701,75,67,0
122.74701,123.49701,76,72,0
123.49701,123.74701,78,66,0
123.74701,124.49701,71,71,0
124.49701,124.62201,72,64,0
124.62201,124.74701,69,64,0
124.74701,125.49701,71,67,0
125.49701,125.74701,72,62,0
125.74701,126.77265,67,68,0
126.77265,127.84408,66,64,0
127.84408,127.96908,64,63,0
127.96908,128.09409,66,63,0
128.09409,128.21909,67,63,0
128.21909,128.34409,69,63,0
128.34409,128.46909,67,63,0
128.46909,128.59409,66,63,0
128.59409,128.71909,67,63,0
128.71909,128.84409,64,63,0
128.84409,129.34409,79,69,0
131.83517,131.96017,69,63,0
131.96017,132.08517,71,63,0
132.08517,132.21017,73,63,0
132.21017,132.33517,74,63,0
132.33517,132.46017,73,63,0
132.46017,132.58517,71,63,0
132.58517,132.71017,73,63,0
132.71017,132.83517,69,63,0
132.83517,133.33517,78,68,0
135.83034,135.95534,67,64,0
135.95534,136.08034,69,64,0
136.08034,136.20534,71,64,0
136.20534,136.33034,72,64,0
136.33034,136.45534,71,64,0
136.45534,136.58034,69,64,0
136.58034,136.70534,71,64,0
136.70534,136.83034,67,64,0
136.83034,137.33034,76,69,0
139.80843,139.93343,66,64,0
139.93343,140.05843,67,64,0
140.05843,140.18343,69,64,0
140.18343,140.30843,71,64,0
140.30843,140.43343,69,64,0
140.43343,140.55843,67,64,0
140.55843,140.68343,69,64,0
140.68343,140.80843,66,64,0
140.80843,141.55843,74,69,0
141.55843,141.80843,74,64,0
141.80843,142.55843,74,68,0
142.55843,142.80843,76,64,0
142.80843,142.89175,73,68,0
142.89175,142.9751,74,60,0
142.9751,143.55843,73,68,0
143.55843,143.68343,74,64,0
143.68343,143.80843,76,64,0
143.80843,144.80843,78,69,0
144.80843,145.05843,83,72,0
145.05843,145.30843,81,70,0
145.30843,145.55843,83,72,0
145.55843,145.80637,79,69,0
145.80637,146.05429,79,71,0
146.05429,146.30223,78,69,0
146.30223,146.55016,79,72,0
146.55016,146.79607,76,67,0
146.79607,147.04196,76,69,0
147.04196,147.28587,74,67,0
147.28587,147.53177,76,68,0
147.53177,147.77971,73,64,0
147.77971,148.77971,73,68,0
148.77971,149.52971,74,64,0
149.52971,149.77971,74,61,0
149.77971,150.52971,74,66,0
150.52971,150.77971,76,61,0
150.77971,150.86742,73,66,0
150.86742,150.95514,74,66,0
150.95514,151.04286,73,66,0
151.04286,151.13058,74,66,0
151.13058,151.21829,73,66,0
151.21829,151.30602,74,66,0
151.30602,151.56918,73,66,0
151.56918,151.86621,74,61,0
151.86621,152.86621,74,64,0
152.86621,152.99121,71,64,0
152.99121,153.11621,73,64,0
153.11621,153.24121,74,64,0
153.24121,153.36621,76,64,0
153.36621,153.49121,74,64,0
153.49121,153.61621,73,64,0
153.61621,153.74121,74,64,0
153.74121,153.86621,71,64,0
153.86621,154.86621,76,64,0
154.86621,154.99121,69,64,0
154.99121,155.11621,71,64,0
155.11621,155.24121,73,64,0
155.24121,155.36621,74,64,0
155.36621,155.49121,73,64,0
155.49121,155.61621,71,64,0
155.61621,155.74121,73,64,0
155.74121,155.86621,69,64,0
155.86621,156.86621,74,72,0
156.86621,156.99121,67,64,0
156.99121,157.11621,69,64,0
157.11621,157.24121,71,64,0
157.24121,157.36621,72,65,0
157.36621,157.49121,71,65,0
157.49121,157.61621,69,66,0
157.61621,157.74121,71,66,0
157.74121,157.86621,67,66,0
157.86621,157.99121,73,66,0
157.99121,158.11621,74,66,0
158.11621,158.24121,76,67,0
158.24121,158.36621,78,67,0
158.36621,158.49086,76,68,0
158.49086,158.61482,74,68,0
158.61482,158.7388,76,68,0
158.7388,158.86276,73,69,0
158.86276,158.98672,78,69,0
158.98672,159.11002,79,69,0
159.11002,159.23297,81,69,0
159.23297,159.35593,83,69,0
159.35593,159.47887,81,70,0
159.47887,159.60149,79,70,0
159.60149,159.7308,81,71,0
159.7308,159.8601,78,71,0
159.8601,160.6101,83,77,0
160.6101,160.8601,73,72,0
160.8601,161.6101,74,77,0
161.6101,161.8601,76,72,0
161.8601,162.6101,78,78,0
162.6101,162.86652,66,72,0
162.86652,163.63576,67,77,0
163.63576,163.89217,69,72,0
163.89217,164.66139,71,76,0
164.66139,164.9178,71,72,0
164.9178,165.68703,73,76,0
165.68703,165.9573,74,72,0
165.9573,167.08939,66,77,0
167.08939,168.26585,64,76,0
168.26585,172.97174,62,76,0
76.74701,76.87201,62,68,0
76.87201,76.99701,64,68,0
76.99701,77.12201,66,68,0
77.12201,77.24701,67,68,0
77.24701,77.37201,66,68,0
77.37201,77.49701,64,68,0
77.49701,77.62201,66,68,0
77.62201,77.74701,62,68,0
77.74701,78.49701,71,73,0
78.49701,78.74701,71,68,0
78.74701,79.49701,69,72,0
79.49701,79.74701,67,69,0
79.74701,80.49701,66,73,0
80.49701,80.74701,68,68,0
80.74701,82.74701,69,73,0
82.74701,83.74701,68,67,0
83.74701,84.74701,69,72,0
84.74701,85.74701,73,65,0
85.74701,86.74701,74,65,0
86.74701,87.74701,74,65,0
87.74701,88.49701,73,66,0
88.49701,88.580345,76,72,0
88.580345,88.66367,74,72,0
88.66367,88.74701,73,72,0
88.74701,89.49701,74,77,0
89.49701,89.74701,73,69,0
89.74701,90.74701,71,74,0
90.74701,91.74701,69,65,0
91.74701,92.74701,69,65,0
92.74701,94.74701,71,65,0
94.74701,95.74701,70,61,0
95.74701,96.74701,71,65,0
97.74701,98.49701,74,55,0
98.49701,98.74701,71,52,0
98.74701,99.49701,71,55,0
99.49701,99.74701,69,52,0
99.74701,100.74701,69,55,0
101.74701,102.49701,72,55,0
102.49701,102.74701,69,52,0
102.74701,103.49701,69,55,0
103.49701,103.74701,67,52,0
103.74701,104.74284,67,55,0
108.74701,108.87201,62,67,0
108.87201,108.99701,64,67,0
108.99701,109.12201,66,67,0
109.12201,109.24701,67,67,0
109.24701,109.37201,66,67,0
109.37201,109.49701,64,67,0
109.49701,109.62201,66,67,0
109.62201,109.74701,62,67,0
109.74701,110.49701,71,73,0
110.49701,110.74701,71,67,0
110.74701,111.49701,69,73,0
111.49701,111.74701,67,67,0
111.74701,112.49701,66,72,0
112.49701,112.74701,69,55,0
112.74701,114.74701,74,61,0
114.74701,116.74701,72,61,0
116.74701,117.74701,71,61,0
117.74701,119.74701,69,61,0
119.74701,120.74701,67,61,0
120.74701,121.74701,71,61,0
121.74701,124.74701,69,61,0
124.74701,125.49701,67,60,0
125.49701,125.74493,64,55,0
125.74701,126.77265,64,60,0
126.77265,127.84408,63,55,0
127.84408,128.84409,64,61,0
129.84409,130.59409,64,57,0
130.59409,130.83595,61,53,0
130.83798,131.56969,61,57,0
131.56969,131.83517,57,53,0
131.83517,132.83517,57,57,0
133.83517,134.58517,62,57,0
134.58517,134.8331,59,53,0
134.83517,135.57393,59,57,0
135.57393,135.83034,55,52,0
135.83034,136.83034,55,57,0
137.82625,138.56395,61,57,0
138.56395,138.8078,57,55,0
138.80984,139.54756,57,57,0
139.54756,139.80624,54,54,0
139.80843,140.80843,54,51,0
140.80843,140.93343,59,62,0
140.93343,141.05843,61,62,0
141.05843,141.18343,62,62,0
141.18343,141.30843,64,62,0
141.30843,141.43343,62,62,0
141.43343,141.55843,61,62,0
141.55843,141.68343,62,62,0
141.68343,141.80843,59,62,0
141.80843,143.80843,67,67,0
143.80843,144.80843,66,65,0
145.80637,146.55016,74,55,0
146.55016,146.794,71,52,0
146.79607,147.53177,71,55,0
147.53177,147.77763,69,52,0
147.77971,148.77971,69,55,0
147.77971,148.77971,64,55,0
148.77971,149.52971,69,49,0
149.52971,149.77971,69,46,0
149.77971,150.52971,71,49,0
150.52971,150.77971,71,46,0
150.77971,151.86621,69,49,0
151.86621,152.86621,69,49,0
153.86621,154.86621,71,49,0
155.86621,156.86621,69,49,0
160.6101,160.8601,69,70,0
160.8601,161.6101,69,72,0
161.6101,161.8601,73,70,0
161.8601,162.6101,74,72,0
162.6101,162.86438,62,70,0
162.86652,163.63576,62,72,0
163.63576,163.89217,66,69,0
163.89217,164.66139,67,72,0
164.66139,164.9178,62,69,0
164.9178,165.68703,64,72,0
165.68703,165.9528,66,69,0
165.9573,167.08939,62,72,0
167.08939,168.26585,61,72,0
168.26585,172.97174,57,72,0
68.74701,68.87201,57,66,0
68.87201,68.99701,59,66,0
68.99701,69.12201,61,66,0
69.12201,69.24701,62,66,0
69.24701,69.37201,61,66,0
69.37201,69.49701,59,66,0
69.49701,69.62201,61,66,0
69.62201,69.74701,57,66,0
69.74701,70.49701,66,71,0
70.49701,70.74701,66,66,0
70.74701,71.49701,64,71,0
71.49701,71.74701,62,66,0
71.74701,72.74701,61,73,0
72.74701,73.49701,66,72,0
73.49701,73.74701,66,68,0
73.74701,74.49701,59,73,0
74.49701,74.580345,59,67,0
74.580345,74.66367,61,67,0
74.66367,74.74701,62,67,0
74.74701,74.99701,64,71,0
74.99701,75.24701,62,67,0
75.24701,75.49701,64,72,0
75.49701,75.74701,61,67,0
75.74701,76.74701,57,73,0
76.74701,78.74701,62,67,0
78.74701,79.74701,61,58,0
79.74701,80.74701,62,63,0
80.74701,81.74701,61,63,0
81.74701,83.74701,59,63,0
83.74701,84.74701,57,63,0
84.74701,84.87201,66,71,0
84.87201,84.99701,67,71,0
84.99701,85.12201,69,71,0
85.12201,85.24701,71,71,0
85.24701,85.37201,69,71,0
85.37201,85.49701,67,71,0
85.49701,85.62201,69,71,0
85.62201,85.74701,66,71,0
85.74701,86.74701,71,78,0
86.74701,86.87201,64,71,0
86.87201,86.99701,66,71,0
86.99701,87.12201,67,71,0
87.12201,87.24701,69,71,0
87.24701,87.37201,67,71,0
87.37201,87.49701,66,71,0
87.49701,87.62201,67,71,0
87.62201,87.74701,64,71,0
87.74701,88.74701,69,77,0
88.74701,89.49701,69,60,0
89.49701,89.74701,67,57,0
89.74701,90.49701,66,60,0
90.49701,90.74701,67,57,0
90.74701,91.74701,64,60,0
91.74701,92.74701,62,64,0
92.74701,93.74701,62,60,0
93.74701,95.74701,61,60,0
95.74701,96.74701,59,60,0
97.74701,98.49701,71,54,0
98.49701,98.74701,68,50,0
98.74701,99.49701,68,54,0
99.49701,99.74701,64,50,0
99.74701,100.74701,64,54,0
101.74701,102.49701,69,54,0
102.49701,102.74701,66,50,0
102.74701,103.49701,66,54,0
103.49701,103.74701,62,50,0
103.74701,104.74701,62,54,0
116.74701,116.87201,55,65,0
116.87201,116.99701,57,65,0
116.99701,117.12201,59,65,0
117.12201,117.24701,60,65,0
117.24701,117.37201,59,65,0
117.37201,117.49701,57,65,0
117.49701,117.62201,59,65,0
117.62201,117.74701,55,65,0
117.74701,118.49701,64,70,0
118.49701,118.74701,64,66,0
118.74701,119.49701,62,70,0
119.49701,119.74701,60,66,0
119.74701,120.74701,59,71,0
120.74701,121.74701,67,58,0
121.74701,124.74701,66,58,0
124.74701,125.49701,64,61,0
125.49701,125.74701,54,57,0
125.74701,126.51624,55,60,0
126.51624,126.77265,57,57,0
126.77265,127.576225,59,60,0
127.576225,127.84408,57,57,0
127.84408,128.84409,55,60,0
129.84409,130.59409,59,57,0
130.59409,130.83595,55,53,0
130.83798,131.56969,55,57,0
131.56969,131.83517,52,53,0
131.83517,132.83517,52,57,0
133.83517,134.58517,57,57,0
134.58517,134.8331,54,54,0
134.83517,135.57393,54,57,0
135.57393,135.83034,50,54,0
135.83034,136.83034,50,57,0
137.82625,138.56395,55,57,0
138.56395,138.8078,52,54,0
138.80984,139.54756,52,57,0
139.54756,139.80624,49,54,0
139.80843,140.80843,49,51,0
142.93343,143.05843,59,60,0
143.05843,143.18343,61,60,0
143.18343,143.30843,62,60,0
143.30843,143.43343,61,60,0
143.43343,143.55843,59,60,0
143.55843,143.68343,61,60,0
143.68343,143.80843,57,60,0
143.80843,144.80843,62,65,0
145.80637,146.55016,71,54,0
146.55016,146.794,67,50,0
146.79607,147.53177,67,54,0
147.53177,147.77971,64,50,0
147.77971,148.77971,55,54,0
148.77971,149.52971,66,48,0
149.52971,149.77971,66,45,0
149.77971,150.52971,66,48,0
150.52971,150.77971,67,45,0
150.77971,151.86621,64,48,0
151.86621,152.86621,66,48,0
153.86621,154.86621,64,48,0
155.86621,156.86621,62,48,0
160.6101,160.8601,64,69,0
160.8601,161.6101,66,72,0
161.6101,161.8601,67,69,0
161.8601,162.6101,69,72,0
162.6101,162.86652,57,68,0
162.86652,163.63576,59,72,0
163.63576,163.89217,60,68,0
163.89217,164.66139,62,72,0
164.66139,164.9178,67,68,0
164.9178,165.68703,67,72,0
165.68703,165.9573,69,68,0
165.9573,167.08939,57,72,0
167.08939,168.26585,55,72,0
168.26585,172.97174,54,70,0
64.74701,64.87201,50,66,0
64.87201,64.99701,52,66,0
64.99701,65.12201,54,66,0
65.12201,65.24701,55,66,0
65.24701,65.37201,54,66,0
65.37201,65.49701,52,66,0
65.49701,65.62201,54,66,0
65.62201,65.74701,50,66,0
65.74701,66.49701,59,71,0
66.49701,66.74701,59,67,0
66.74701,67.49701,57,72,0
67.49701,67.74701,55,66,0
67.74701,68.49701,54,67,0
68.49701,68.74701,55,61,0
68.74701,69.49701,54,60,0
69.49701,69.74701,52,57,0
69.74701,70.74701,50,60,0
70.74701,71.74701,52,56,0
71.74701,72.49701,45,62,0
72.49701,72.580345,52,56,0
72.580345,72.66367,54,56,0
72.66367,72.74701,55,56,0
72.74701,74.74701,57,63,0
74.74701,76.49701,55,56,0
76.49701,76.62201,54,54,0
76.62201,76.74701,52,54,0
76.74701,77.49701,54,59,0
77.49701,77.74701,54,56,0
77.74701,78.49701,55,60,0
78.49701,78.74701,52,56,0
78.74701,79.49701,57,60,0
79.49701,79.74701,45,56,0
79.74701,80.49701,50,60,0
80.49701,80.74701,52,56,0
80.74701,81.49701,54,60,0
81.49701,81.74701,52,56,0
81.74701,82.49701,54,60,0
82.49701,82.74701,50,56,0
82.74701,83.74701,52,62,0
83.74701,84.74701,45,63,0
88.74701,88.87201,38,66,0
88.87201,88.99701,40,66,0
88.99701,89.12201,42,66,0
89.12201,89.24701,43,66,0
89.24701,89.37201,42,66,0
89.37201,89.49701,40,66,0
89.49701,89.62201,42,66,0
89.62201,89.74701,38,66,0
89.74701,90.49701,47,72,0
90.49701,90.74701,47,66,0
90.74701,91.49701,45,71,0
91.49701,91.74701,43,66,0
91.74701,92.49701,42,72,0
92.49701,92.580345,50,66,0
92.580345,92.66367,52,66,0
92.66367,92.74701,54,66,0
92.74701,93.49701,55,72,0
93.49701,93.74701,54,66,0
93.74701,94.49701,55,72,0
94.49701,94.74701,52,66,0
94.74701,95.74701,54,71,0
95.74701,95.87201,47,66,0
95.87201,95.99701,49,66,0
95.99701,96.12201,50,66,0
96.12201,96.24701,52,66,0
96.24701,96.37201,50,66,0
96.37201,96.49701,49,66,0
96.49701,96.62201,50,66,0
96.62201,96.74701,47,66,0
96.74701,97.24701,56,73,0
99.74701,99.87201,45,66,0
99.87201,99.99701,47,66,0
99.99701,100.12201,49,66,0
100.12201,100.24701,50,66,0
100.24701,100.37201,49,66,0
100.37201,100.49701,47,66,0
100.49701,100.62201,49,66,0
100.62201,100.74701,45,66,0
100.74701,101.24701,54,73,0
103.74701,103.87201,43,63,0
103.87201,103.99701,45,63,0
103.99701,104.12201,47,63,0
104.12201,104.24701,48,63,0
104.24701,104.37201,47,63,0
104.37201,104.49701,45,63,0
104.49701,104.62201,47,63,0
104.62201,104.74701,43,63,0
104.74701,105.49701,52,68,0
105.49701,105.74701,50,60,0
105.74701,106.74701,48,66,0
106.74701,107.74701,50,60,0
107.74701,108.49701,55,66,0
108.49701,108.74701,57,49,0
108.74701,109.49701,59,54,0
109.49701,109.74701,57,49,0
109.74701,110.49701,55,54,0
110.49701,110.74701,52,48,0
110.74701,111.49701,57,54,0
111.49701,111.74701,45,51,0
111.74701,111.87201,47,61,0
111.87201,111.99701,49,61,0
111.99701,112.12201,50,61,0
112.12201,112.24701,52,59,0
112.24701,112.37201,50,61,0
112.37201,112.49701,49,61,0
112.49701,112.62201,50,61,0
112.62201,112.74701,47,61,0
112.74701,113.49701,59,65,0
113.49701,113.74701,57,50,0
113.74701,114.49701,55,53,0
114.49701,114.74701,52,48,0
114.74701,115.49701,57,53,0
115.49701,115.74701,45,48,0
115.74701,116.74701,50,56,0
116.74701,117.74701,52,52,0
117.74701,118.49701,60,52,0
118.49701,118.74701,57,52,0
119.49701,119.74701,50,52,0
119.74701,120.74701,55,57,0
120.74701,120.87201,40,66,0
120.87201,120.99701,42,66,0
120.99701,121.12201,43,66,0
121.12201,121.24701,45,66,0
121.24701,121.37201,43,66,0
121.37201,121.49701,42,66,0
121.49701,121.62201,43,66,0
121.62201,121.74701,40,66,0
121.74701,122.49701,48,72,0
122.49701,122.74701,48,57,0
122.74701,123.49701,47,61,0
123.49701,123.74701,45,56,0
123.74701,124.49701,43,61,0
124.49701,124.74701,42,56,0
124.74701,125.49701,43,60,0
125.49701,125.74701,45,55,0
125.74701,127.84408,47,60,0
127.84408,128.84409,52,61,0
128.84409,129.09409,59,55,0
129.09409,129.34409,57,51,0
129.34409,129.59409,59,55,0
129.59409,129.84409,55,51,0
129.84409,130.09409,55,55,0
130.09409,130.34409,54,51,0
130.34409,130.59409,55,55,0
130.59409,130.83798,52,50,0
130.83798,131.08188,52,55,0
131.08188,131.32579,50,50,0
131.32579,131.56969,52,55,0
131.56969,131.83517,49,50,0
131.83517,132.83517,49,55,0
132.83517,133.08517,57,55,0
133.08517,133.33517,55,50,0
133.33517,133.58517,57,55,0
133.58517,133.83517,54,50,0
133.83517,134.08517,54,55,0
134.08517,134.33517,52,50,0
134.33517,134.58517,54,55,0
134.58517,134.83517,50,50,0
134.83517,135.08345,50,55,0
135.08345,135.3297,49,50,0
135.3297,135.57393,50,55,0
135.57393,135.83034,47,51,0
135.83034,136.83034,47,55,0
136.83034,137.08034,55,55,0
137.08034,137.33034,54,51,0
137.33034,137.58034,55,55,0
137.58034,137.82625,52,51,0
137.82625,138.07214,52,55,0
138.07214,138.31804,50,51,0
138.31804,138.56395,52,55,0
138.56395,138.80984,49,51,0
138.80984,139.05576,49,55,0
139.05576,139.30165,47,51,0
139.30165,139.54756,49,55,0
139.54756,139.80843,45,51,0
139.80843,140.80843,45,49,0
141.80843,141.93343,52,59,0
141.93343,142.05843,54,59,0
142.05843,142.18343,55,59,0
142.18343,142.30843,57,59,0
142.30843,142.43343,55,59,0
142.43343,142.55843,54,59,0
142.55843,142.68343,55,59,0
142.68343,142.80843,52,59,0
142.80843,143.80843,57,63,0
143.80843,143.93343,50,62,0
143.93343,144.05843,52,62,0
144.05843,144.18343,54,62,0
144.18343,144.30843,55,62,0
144.30843,144.43343,54,62,0
144.43343,144.55843,52,62,0
144.55843,144.68343,54,62,0
144.68343,144.80843,50,62,0
144.80843,145.30843,55,65,0
147.77971,148.77971,43,54,0
148.77971,148.90471,54,62,0
148.90471,149.02971,55,62,0
149.02971,149.15471,57,62,0
149.15471,149.27971,55,62,0
149.27971,149.40471,54,62,0
149.40471,149.52971,52,62,0
149.52971,149.65471,50,62,0
149.65471,149.77971,49,62,0
149.77971,149.90471,47,62,0
149.90471,150.02971,49,62,0
150.02971,150.15471,50,62,0
150.15471,150.27971,49,62,0
150.27971,150.40471,47,62,0
150.40471,150.52971,45,62,0
150.52971,150.65471,47,62,0
150.65471,150.77971,43,62,0
150.77971,151.56918,45,66,0
151.56918,151.86621,45,62,0
151.86621,152.61621,38,66,0
152.61621,152.69954,50,62,0
152.69954,152.78287,52,62,0
152.78287,152.86621,54,62,0
152.86621,153.86621,55,66,0
153.86621,153.99121,49,60,0
153.99121,154.11621,50,61,0
154.11621,154.24121,52,61,0
154.24121,154.36621,54,59,0
154.36621,154.49121,52,61,0
154.49121,154.61621,50,61,0
154.61621,154.74121,52,61,0
154.74121,154.86621,49,61,0
154.86621,155.86621,54,64,0
155.86621,155.99121,47,67,0
155.99121,156.11621,49,67,0
156.11621,156.24121,50,67,0
156.24121,156.36621,52,67,0
156.36621,156.49121,50,67,0
156.49121,156.61621,49,67,0
156.61621,156.74121,50,67,0
156.74121,156.86621,47,67,0
156.86621,156.99121,52,60,0
156.99121,157.11621,54,60,0
157.11621,157.24121,55,60,0
157.24121,157.36621,57,60,0
157.36621,157.49121,55,60,0
157.49121,157.61621,54,61,0
157.61621,157.74121,55,61,0
157.74121,157.86621,52,61,0
157.86621,157.99121,57,62,0
157.99121,158.11621,59,62,0
158.11621,158.24121,61,62,0
158.24121,158.36621,62,62,0
158.36621,158.49086,61,63,0
158.49086,158.61482,59,63,0
158.61482,158.7388,61,63,0
158.7388,158.86276,57,64,0
158.86276,158.98672,62,64,0
158.98672,159.11002,64,64,0
159.11002,159.23297,66,64,0
159.23297,159.35593,67,64,0
159.35593,159.47887,66,65,0
159.47887,159.60149,64,65,0
159.60149,159.7308,66,66,0
159.7308,159.8601,62,66,0
159.8601,160.6101,67,72,0
160.6101,160.8601,55,69,0
160.8601,161.6101,54,72,0
161.6101,161.8601,52,69,0
161.8601,162.6101,50,72,0
162.6101,162.86652,48,69,0
162.86652,163.63576,47,72,0
163.63576,163.89217,45,68,0
163.89217,164.66139,43,72,0
164.66139,164.9178,42,68,0
164.9178,165.68703,40,72,0
165.68703,165.9573,38,68,0
165.9573,168.26585,45,72,0
168.26585,172.97174,38,66,0
