start_time,end_time,note_value,velocity,instrument_program_number
0.003061225,0.13923205,72,96,0
0.11855535,0.25013435,63,80,0
0.2303975,0.36302075,62,77,0
0.3431795,0.48183483,63,77,0
0.46516818,0.6015721,60,80,0
0.58176076,0.7138362,63,76,0
0.6949683,0.8281144,62,76,0
0.8053456,0.9243444,63,76,0
0.9283729,1.0683296,72,96,0
1.0486667,1.1797527,63,80,0
1.1600899,1.291941,62,78,0
1.2705767,1.4068719,63,78,0
1.386299,1.5220785,60,80,0
1.5039307,1.6299924,63,78,0
1.6138053,1.7420442,62,77,0
1.7199204,1.8416377,63,77,0
1.8416377,1.9796989,68,96,0
1.9655479,2.0976233,65,80,0
2.0759254,2.208588,64,76,0
2.1872458,2.3235807,65,76,0
2.3039188,2.4408917,60,80,0
2.422006,2.5536737,65,76,0
2.5367565,2.6693797,64,76,0
2.6505306,2.7695704,65,76,0
2.7695704,2.9066582,68,96,0
2.887647,3.0207267,65,80,0
3.0017154,3.1359177,64,77,0
3.1129322,3.2526228,65,77,0
3.2362769,3.3704367,60,80,0
3.3506997,3.4822788,65,76,0
3.4634817,3.596425,64,76,0
3.574384,3.6952155,65,76,0
3.6982157,3.8349314,71,96,0
3.8172073,3.9478045,65,80,0
3.9291477,4.060876,63,76,0
4.0402064,4.1775246,65,75,0
4.156348,4.2905073,62,80,0
4.275526,4.406612,65,76,0
4.386949,4.5189204,63,76,0
4.5003657,4.617588,65,76,0
4.617588,4.754736,71,96,0
4.734137,4.865223,65,80,0
4.8436875,4.9757767,63,76,0
4.9579196,5.096422,65,80,0
5.075975,5.2115555,62,80,0
5.196518,5.328097,65,77,0
5.3055406,5.4384155,63,77,0
5.4212785,5.542322,65,77,0
5.5433683,5.6869707,72,96,0
5.668521,5.797672,67,80,0
5.779222,5.909616,65,75,0
5.8881316,6.025259,67,75,0
6.0043426,6.1417217,63,80,0
6.1228685,6.2478514,67,76,0
6.2301145,6.355945,65,76,0
6.34032,6.457578,67,76,0
6.452625,6.5912447,72,96,0
6.574578,6.7042074,67,80,0
6.683837,6.8150926,65,75,0
6.7988324,6.940664,67,75,0
6.916719,7.055064,63,80,0
7.036281,7.1663427,67,76,0
7.1529016,7.282002,65,76,0
7.2568445,7.383268,67,76,0
7.383268,7.5310025,75,96,0
7.5140214,7.6460967,68,80,0
7.6281724,7.76176,67,76,0
7.7425294,7.883678,68,76,0
7.862927,8.000127,63,80,0
7.9795275,8.110614,68,75,0
8.090951,8.223556,67,75,0
8.206279,8.327705,68,76,0
8.325714,8.464104,75,96,0
8.445236,8.5773115,68,80,0
8.561274,8.694288,67,75,0
8.673619,8.811501,68,75,0
8.787792,8.925067,63,80,0
8.909267,9.039379,68,75,0
9.019862,9.151629,67,76,0
9.13341,9.2548685,68,76,0
9.253857,9.399298,74,96,0
9.380847,9.509998,66,80,0
9.490625,9.621488,64,76,0
9.599482,9.740294,66,76,0
9.721287,9.859505,62,80,0
9.842295,9.968847,66,76,0
9.952776,10.0796175,64,76,0
10.05911,10.17632,66,76,0
10.178321,10.312985,74,96,0
10.293684,10.42236,66,80,0
10.40214,10.531814,64,75,0
10.511515,10.647123,66,75,0
10.629682,10.764082,62,80,0
10.744991,10.872264,66,76,0
10.852264,10.9811735,64,77,0
10.965174,11.085265,66,77,0
11.084219,11.227927,74,96,0
11.206604,11.33507,67,80,0
11.321334,11.451569,66,75,0
11.426645,11.566333,67,75,0
11.551854,11.685928,62,80,0
11.666627,11.795303,67,75,0
11.774163,11.904078,66,75,0
11.885376,12.003487,67,75,0
12.001518,12.137218,74,96,0
12.123431,12.252108,67,80,0
12.232806,12.36258,66,76,0
12.339424,12.474983,67,77,0
12.460448,12.594356,62,80,0
12.575606,12.700605,67,75,0
12.681856,12.809275,66,75,0
12.787212,12.908066,67,74,0
12.908066,13.046038,72,96,0
13.030859,13.155859,64,80,0
13.136216,13.262739,62,76,0
13.241573,13.377285,64,76,0
13.360619,13.496729,60,80,0
13.479136,13.608767,64,76,0
13.588396,13.719038,62,76,0
13.698581,13.815718,64,75,0
13.817656,13.95124,72,96,0
13.933904,14.061641,64,80,0
14.043393,14.172375,62,76,0
14.152995,14.288571,64,76,0
14.267336,14.401481,60,80,0
14.381235,14.50954,64,75,0
14.493056,14.623026,62,75,0
14.605958,14.726661,64,75,0
14.72142,14.869344,72,96,0
14.853661,14.982812,65,80,0
14.964362,15.094489,64,76,0
15.074141,15.209799,65,76,0
15.188481,15.323242,60,80,0
15.309456,15.438132,65,74,0
15.419749,15.550379,64,74,0
15.52829,15.648772,65,74,0
15.647768,15.786769,72,96,0
15.76825,15.89788,65,80,0
15.879361,16.010004,64,75,0
15.993402,16.130121,65,75,0
16.106684,16.241995,60,80,0
16.224848,16.3512,65,75,0
16.332249,16.461,64,75,0
16.44454,16.568144,65,75,0
16.56388,16.711683,70,96,0
16.696058,16.824736,65,80,0
16.805433,16.935158,63,76,0
16.913889,17.049356,65,76,0
17.03301,17.167072,62,79,0
17.14928,17.280367,65,75,0
17.258831,17.390646,63,74,0
17.372164,17.488895,65,74,0
17.49084,17.62627,70,94,0
17.602709,17.734354,65,78,0
17.720255,17.852419,63,74,0
17.831182,17.96624,65,74,0
17.944118,18.078224,62,77,0
18.062365,18.192963,65,76,0
18.17244,18.303724,63,73,0
18.28822,18.404757,65,72,0
18.402647,18.547691,70,91,0
18.529104,18.659216,67,76,0
18.63877,18.769777,65,72,0
18.754152,18.890959,67,72,0
18.866457,19.002787,63,75,0
18.984097,19.114311,67,72,0
19.09944,19.23059,65,72,0
19.208176,19.325317,67,71,0
19.329224,19.465832,70,89,0
19.442505,19.574854,67,74,0
19.556997,19.68931,65,69,0
19.6679,19.804274,67,69,0
19.788889,19.923027,63,73,0
19.90517,20.036749,67,68,0
20.017014,20.150003,65,68,0
20.12892,20.249475,67,68,0
20.250553,20.398153,68,86,0
20.37663,20.50689,67,72,0
20.487373,20.618402,65,68,0
20.598898,20.73605,67,68,0
20.716442,20.852966,63,71,0
20.837929,20.96951,67,67,0
20.95165,21.084164,65,67,0
21.060675,21.17828,67,66,0
21.1773,21.314482,68,84,0
21.298323,21.431402,67,70,0
21.409538,21.543087,65,65,0
21.523607,21.660004,67,65,0
21.642696,21.776066,63,69,0
21.759878,21.885778,67,63,0
21.867792,21.996542,65,63,0
21.974936,22.09826,67,63,0
22.095156,22.24122,68,81,0
22.224855,22.352129,62,68,0
22.333038,22.461521,60,64,0
22.444984,22.581087,62,64,0
22.558796,22.693447,58,67,0
22.676048,22.804253,62,61,0
22.785023,22.91424,60,61,0
22.896797,23.013088,62,61,0
23.013088,23.149418,68,79,0
23.130692,23.261776,62,60,0
23.240242,23.371983,60,57,0
23.355446,23.491713,62,57,0
23.474134,23.60961,58,60,0
23.590237,23.719389,62,54,0
23.70186,23.833458,60,54,0
23.808872,23.932222,62,55,0
23.93325,24.080456,67,76,0
24.060934,24.190235,58,58,0
24.175474,24.306595,56,54,0
24.28341,24.423985,58,54,0
24.407318,24.543163,63,64,0
24.520061,24.64886,58,54,0
24.633236,24.763445,56,54,0
24.740772,24.859674,58,54,0
24.861658,24.998417,67,76,0
24.982964,25.110235,58,57,0
25.08751,25.216064,56,53,0
25.201359,25.338882,58,53,0
25.315084,25.452385,63,57,0
25.43412,25.561476,58,53,0
25.54602,25.675472,56,53,0
25.653294,25.774261,58,53,0
25.773254,25.921036,65,76,0
25.905022,26.029577,60,58,0
26.011784,26.138083,58,53,0
26.117655,26.253693,60,53,0
26.234386,26.369013,57,58,0
26.351156,26.482735,60,53,0
26.463938,26.596289,58,53,0
26.57871,26.695898,60,53,0
26.694921,26.830603,65,76,0
26.811085,26.941196,60,59,0
26.923538,27.05444,58,54,0
27.03417,27.169304,60,54,0
27.149035,27.283522,57,59,0
27.263899,27.394527,60,54,0
27.37867,27.511662,58,54,0
27.489786,27.614866,60,53,0
27.617107,27.769337,65,76,0
27.747152,27.875563,62,60,0
27.857248,27.986536,60,55,0
27.969027,28.105135,62,55,0
28.086723,28.221664,59,60,0
28.202002,28.333086,62,55,0
28.313423,28.44636,60,55,0
28.425783,28.54924,62,55,0
28.547182,28.689363,65,76,0
28.67455,28.804178,62,60,0
28.784735,28.915268,60,56,0
28.895887,29.031467,62,56,0
29.013128,29.146812,59,60,0
29.128826,29.254726,62,55,0
29.233143,29.36145,60,55,0
29.34389,29.467909,62,55,0
29.470083,29.618475,65,76,0
29.600025,29.729176,62,61,0
29.708881,29.839008,60,52,0
29.820597,29.956257,62,54,0
29.933,30.067945,59,61,0
30.053076,30.183187,62,55,0
30.16553,30.296993,60,55,0
30.273336,30.391855,62,55,0
30.39382,30.529768,65,76,0
30.509054,30.640669,62,61,0
30.621872,30.754295,60,55,0
30.733715,30.871351,62,55,0
30.856646,30.992968,59,61,0
30.97417,31.10575,62,54,0
31.086014,31.219364,60,54,0
31.195036,31.317324,62,54,0
31.318344,31.466635,63,76,0
31.447071,31.575607,60,61,0
31.557293,31.686323,59,61,0
31.669977,31.805069,60,55,0
31.786367,31.92273,55,61,0
31.903429,32.032104,60,55,0
32.012802,32.14342,59,55,0
32.123096,32.24505,60,55,0
32.244034,32.384834,63,76,0
32.367496,32.495235,60,61,0
32.477898,32.606747,59,55,0
32.584652,32.71968,60,55,0
32.70134,32.83586,55,61,0
32.82,32.9506,60,55,0
32.929142,33.061325,59,55,0
33.04405,33.166096,60,56,0
33.16716,33.312016,53,76,0
33.294285,33.4184,63,64,0
33.399784,33.52736,62,57,0
33.505074,33.641094,63,57,0
33.625286,33.762115,65,64,0
33.738922,33.868206,63,58,0
33.849754,33.98002,62,58,0
33.964268,34.08238,63,58,0
34.081394,34.218037,53,76,0
34.19945,34.329563,63,64,0
34.31283,34.44403,62,57,0
34.419712,34.556335,63,59,0
34.541687,34.6774,65,64,0
34.656876,34.787476,63,57,0
34.766953,34.899292,62,57,0
34.87796,35.000725,63,57,0
35.00387,35.152733,54,76,0
35.132687,35.25923,60,64,0
35.24118,35.369774,59,57,0
35.353447,35.49565,60,58,0
35.473827,35.611115,63,64,0
35.5928,35.721004,60,58,0
35.69994,35.83003,59,58,0
35.811665,35.934113,60,58,0
35.934113,36.07438,54,76,0
36.056065,36.18427,60,64,0
36.167786,36.297245,59,58,0
36.276817,36.413002,60,58,0
36.392574,36.527424,63,64,0
36.511116,36.637928,60,58,0
36.618908,36.748302,59,58,0
36.727726,36.851223,60,58,0
36.850155,36.99681,63,76,0
36.976223,37.105667,60,64,0
37.090904,37.221245,59,58,0
37.197918,37.334667,60,58,0
37.317932,37.454433,55,63,0
37.437828,37.56698,60,57,0
37.54576,37.676147,59,57,0
37.65843,37.776546,60,57,0
37.77457,37.911736,63,76,0
37.89315,38.023262,60,58,0
38.00653,38.13768,59,58,0
38.117172,38.2543,60,58,0
38.233383,38.371494,55,63,0
38.355694,38.485806,60,57,0
38.46536,38.597385,59,58,0
38.575027,38.697384,60,58,0
38.698402,38.845608,66,76,0
38.825012,38.954464,60,64,0
38.939705,39.070045,59,57,0
39.05149,39.18821,60,58,0
39.166725,39.3026,57,63,0
39.280983,39.41215,60,57,0
39.39436,39.526966,59,57,0
39.505783,39.627575,60,57,0
39.630585,39.765747,66,76,0
39.744843,39.87134,60,64,0
39.857803,39.985775,59,57,0
39.96632,40.102505,60,57,0
40.081104,40.21638,57,64,0
40.198723,40.328835,60,58,0
40.311176,40.443287,59,58,0
40.418053,40.53983,60,58,0
40.53983,40.68571,67,79,0
40.67132,40.797222,60,65,0
40.778336,40.905777,59,57,0
40.884453,41.020565,60,58,0
41.000137,41.135117,62,66,0
41.11784,41.24472,60,58,0
41.228416,41.35772,59,58,0
41.336205,41.459072,60,58,0
41.45805,41.597313,67,79,0
41.58004,41.707314,60,67,0
41.69004,41.81939,59,58,0
41.80024,41.940506,60,58,0
41.921127,42.055916,62,67,0
42.036396,42.166508,60,59,0
42.147923,42.279774,59,59,0
42.26054,42.38195,60,59,0
42.38294,42.519234,68,80,0
42.496574,42.622654,60,67,0
42.607365,42.734726,59,61,0
42.71438,42.85058,60,61,0
42.82969,42.96784,62,68,0
42.94819,43.078434,60,60,0
43.06449,43.195602,59,60,0
43.17137,43.288013,60,60,0
43.28996,43.42599,68,83,0
43.408527,43.5372,60,69,0
43.516983,43.646896,59,62,0
43.62918,43.767056,60,62,0
43.74532,43.882473,62,69,0
43.863895,43.993587,60,61,0
43.97414,44.105396,59,61,0
44.089138,44.21125,60,61,0
44.580433,44.71453,53,74,0
44.695374,44.829475,56,74,0
44.810318,44.944416,53,70,0
44.92526,45.059357,52,70,0
45.040203,45.1743,53,70,0
45.155144,45.28924,59,74,0
45.27009,45.40456,53,70,0
45.38503,45.521748,62,74,0
45.502216,45.638935,59,70,0
45.619404,45.756123,56,72,0
45.73659,45.87331,53,71,0
45.85378,45.990498,52,70,0
45.970966,46.088154,53,69,0
46.45125,46.58535,55,72,0
46.566193,46.70029,60,75,0
46.681133,46.815235,55,70,0
46.796078,46.930176,54,70,0
46.91102,47.04512,55,70,0
47.025963,47.16006,63,74,0
47.140903,47.275303,60,70,0
47.255848,47.392033,67,74,0
47.372578,47.508766,63,70,0
47.48931,47.625496,60,74,0
47.60604,47.74223,56,70,0
47.722775,47.85896,55,72,0
47.839504,47.956238,56,70,0
48.30654,48.44013,60,71,0
48.421043,48.55463,63,75,0
48.53555,48.669136,60,70,0
48.65005,48.783638,59,70,0
48.764553,48.898144,60,70,0
48.87906,49.012646,66,74,0
48.99356,49.12715,60,70,0
49.108067,49.241653,69,74,0
49.22257,49.35616,66,70,0
49.337074,49.47066,63,73,0
49.451576,49.585167,60,70,0
49.566082,49.69967,59,70,0
49.680584,49.79509,60,70,0
49.89249,50.006126,74,67,0
49.989895,50.10353,72,65,0
50.087296,50.20052,74,65,0
50.1847,50.29546,75,72,0
50.279636,50.390396,72,67,0
50.374573,50.485332,71,63,0
50.46951,50.58027,72,63,0
50.564445,50.675205,69,73,0
50.65938,50.77014,72,67,0
50.75432,50.865078,71,64,0
50.849255,50.95977,72,64,0
50.94419,51.053226,74,67,0
51.03765,51.146687,71,64,0
51.131107,51.241123,69,64,0
51.224567,51.323906,71,64,0
51.323906,51.44074,67,75,0
51.424915,51.535675,71,67,0
51.51985,51.63061,69,64,0
51.614788,51.725254,71,64,0
51.709724,51.81842,72,70,0
51.80289,51.911587,69,64,0
51.89606,52.004757,67,64,0
51.989227,52.08514,69,65,0
52.08514,52.1959,66,75,0
52.180077,52.290836,69,67,0
52.275017,52.385777,67,64,0
52.369953,52.480465,69,64,0
52.46489,52.57392,71,70,0
52.558346,52.66738,67,65,0
52.651806,52.76193,66,65,0
52.745262,52.845264,67,65,0
52.845264,52.96484,62,75,0
52.94907,53.05948,79,70,0
53.043705,53.154118,77,67,0
53.138344,53.248558,79,67,0
53.23298,53.342014,80,73,0
53.32644,53.435474,77,68,0
53.419895,53.529484,75,68,0
53.513355,53.61013,77,68,0
53.61013,53.72054,74,77,0
53.704765,53.815178,77,70,0
53.799404,53.909813,75,66,0
53.89404,54.004303,77,66,0
53.988678,54.098053,79,73,0
54.082428,54.191803,75,67,0
54.176178,54.286484,74,67,0
54.269928,54.369267,75,68,0
54.369267,54.48499,72,75,0
54.469265,54.579327,75,67,0
54.563606,54.673668,74,65,0
54.657944,54.76786,75,67,0
54.752285,54.861317,77,71,0
54.84574,54.954777,74,65,0
54.9392,55.048786,72,65,0
55.032658,55.129433,74,65,0
55.129433,55.23984,71,75,0
55.22407,55.33448,74,67,0
55.318707,55.429115,72,65,0
55.413345,55.52356,74,67,0
55.50798,55.617016,75,71,0
55.60144,55.710472,72,65,0
55.694897,55.805023,71,65,0
55.788357,55.888355,72,65,0
55.888355,56.006077,67,75,0
55.99005,56.10223,72,67,0
56.086205,56.198383,71,64,0
56.182358,56.294434,72,65,0
56.27851,56.389977,68,80,0
56.374054,56.48552,77,65,0
56.469593,56.58137,75,65,0
56.565136,56.66254,77,64,0
56.66254,56.77472,67,80,0
56.758694,56.870872,75,67,0
56.854847,56.967026,74,65,0
56.951,57.063076,75,67,0
57.047153,57.15862,65,81,0
57.142696,57.25416,74,65,0
57.238235,57.350117,72,65,0
57.33378,57.431816,74,65,0
57.431816,57.546196,63,81,0
57.529858,57.644238,72,67,0
57.627895,57.742275,71,65,0
57.725937,57.840313,72,67,0
57.823975,57.938354,68,81,0
57.922012,58.036392,65,66,0
58.020054,58.134434,63,66,0
58.11809,58.216133,65,66,0
58.216133,58.33724,67,81,0
58.31994,58.441044,63,67,0
58.423744,58.54485,62,65,0
58.52755,58.649807,63,65,0
58.631355,58.760506,65,81,0
58.742058,58.87121,62,66,0
58.85276,58.98191,60,66,0
58.96346,59.07416,62,67,0
59.32006,60.30367,64,67,0
59.258587,60.549572,60,67,0
60.30367,60.549572,60,58,0
60.549572,60.79547,62,60,0
60.79547,61.041374,64,63,0
61.041374,61.164326,65,66,0
61.164326,61.287273,67,67,0
61.287273,61.410225,68,68,0
61.410225,61.533176,70,68,0
61.533176,61.656128,72,66,0
61.656128,61.77908,70,65,0
61.77908,61.90203,68,64,0
61.90203,62.02498,67,63,0
62.02498,62.516785,65,62,0
62.516785,62.762684,67,67,0
62.762684,63.008587,64,67,0
63.25449,63.336456,65,80,0
63.336456,63.418423,64,70,0
63.418423,64.2381,65,78,0
64.2381,64.48399,67,67,0
64.48399,64.7299,65,64,0
64.7299,64.9758,64,64,0
63.193012,64.9758,60,67,0
64.9758,65.2217,65,65,0
65.2217,65.467606,67,65,0
65.467606,65.7135,68,67,0
65.7135,65.959404,67,67,0
65.959404,66.08236,65,66,0
66.08236,66.20531,63,65,0
66.20531,66.328255,62,64,0
66.328255,66.45121,63,65,0
66.45121,66.57416,65,68,0
66.57416,66.69711,62,63,0
66.69711,66.82006,63,65,0
66.82006,66.943016,65,67,0
66.943016,67.28522,59,67,0
67.28522,67.41708,50,69,0
67.399284,67.52384,53,69,0
67.50605,67.6306,56,72,0
67.61281,67.737366,55,71,0
67.719574,67.844124,53,69,0
67.82633,67.95089,59,72,0
67.93309,68.05765,53,67,0
68.039856,68.16441,62,74,0
68.146614,68.27098,53,67,0
68.25338,68.37662,59,70,0
68.35901,68.482254,56,69,0
68.464645,68.58846,55,68,0
68.57028,68.67937,53,67,0
68.67937,68.81351,52,72,0
68.79565,68.92065,61,67,0
68.902794,69.027794,58,67,0
69.00993,69.13468,55,67,0
69.11695,69.241066,60,72,0
69.223335,69.34745,56,67,0
69.32972,69.45415,53,67,0
69.436104,69.56226,56,67,0
69.5444,69.6694,55,72,0
69.65154,69.77617,58,67,0
69.75869,69.881836,55,67,0
69.86359,69.99166,52,67,0
69.973076,70.102455,56,72,0
70.084595,70.20922,53,67,0
70.19174,70.31488,50,67,0
70.29664,70.42437,53,67,0
70.40612,70.53347,52,71,0
70.51561,70.640236,55,67,0
70.62276,70.745964,52,67,0
70.72765,70.8554,48,67,0
70.83754,70.96254,53,73,0
70.94469,71.069244,50,67,0
71.05183,71.17461,47,67,0
71.15636,71.26585,50,67,0
71.59725,71.7227,50,67,0
71.70478,71.83023,52,68,0
71.81231,71.93775,55,67,0
71.91983,72.04528,58,71,0
72.02736,72.153206,55,67,0
72.13489,72.26309,56,68,0
72.244774,72.3739,60,65,0
72.35467,72.48928,65,68,0
72.470055,72.60699,62,67,0
72.585434,72.7363,65,64,0
72.714745,72.86775,68,59,0
72.844055,73.00993,72,62,0
72.98624,73.15574,71,57,0
73.12842,73.322655,72,59,0
73.29235,73.50728,67,54,0
73.47417,73.75221,65,52,0
73.672844,74.24904,62,49,0
74.14903,75.949036,64,42,0
0.003061225,0.13923205,48,88,0
0.12043505,0.25201404,55,73,0
0.2322772,0.36500487,53,72,0
0.3451636,0.4837956,55,72,0
0.4632074,0.5996853,51,80,0
0.579874,0.7119494,55,72,0
0.6959117,0.82910645,53,73,0
0.8053456,0.9243444,55,73,0
0.9283729,1.0683296,48,88,0
1.0457819,1.1769438,55,74,0
1.1582172,1.2899954,53,74,0
1.2724857,1.4088327,55,72,0
1.3911856,1.526575,51,80,0
1.5039307,1.6299924,55,73,0
1.6120067,1.7400117,53,73,0
1.7227353,1.8446623,55,73,0
1.8436702,1.9815856,48,88,0
1.9607337,2.0929065,56,73,0
2.074982,2.2076151,55,73,0
2.192051,2.328502,56,73,0
2.3048916,2.4418316,53,80,0
2.422006,2.5536737,56,73,0
2.5348768,2.6673956,55,73,0
2.6525147,2.7715387,56,73,0
2.7666018,2.9038064,48,88,0
2.8847277,3.017875,56,74,0
2.9988637,3.1329055,55,72,0
3.1148334,3.254546,56,72,0
3.2382,3.3723164,53,80,0
3.3506997,3.4822788,56,74,0
3.4634817,3.596425,55,74,0
3.579288,3.7001843,56,74,0
3.7001843,3.836797,48,88,0
3.8162746,3.9468715,56,74,0
3.9300804,4.06186,55,74,0
4.0411906,4.1784863,56,74,0
4.1573324,4.2914433,53,80,0
4.2717557,4.402867,56,74,0
4.383204,4.515014,55,74,0
4.4984126,4.6156116,56,73,0
4.617588,4.754736,48,88,0
4.7332006,4.8642864,56,75,0
4.8446236,4.9767685,55,75,0
4.9589114,5.097395,56,75,0
5.075975,5.2115555,53,80,0
5.195578,5.327157,56,74,0
5.3093,5.442448,55,74,0
5.4192624,5.5402303,56,74,0
5.5433683,5.6869707,48,88,0
5.663661,5.7930593,51,75,0
5.779222,5.909616,50,75,0
5.8881316,6.025259,51,75,0
6.006335,6.1435075,55,80,0
6.124758,6.2496247,51,75,0
6.229222,6.3549685,50,75,0
6.336504,6.4536014,51,75,0
6.454578,6.5930967,48,88,0
6.572578,6.702356,51,75,0
6.685689,6.8171253,50,75,0
6.794948,6.9366794,51,75,0
6.9197474,7.0578628,55,80,0
7.041072,7.1708226,51,75,0
7.148348,7.2767277,50,75,0
7.25985,7.386469,51,75,0
7.3853955,7.5328894,48,88,0
7.5149646,7.6470404,60,75,0
7.6281724,7.76176,58,75,0
7.740505,7.8817015,60,75,0
7.862927,8.000127,56,80,0
7.977551,8.108741,60,75,0
8.09376,8.226604,58,75,0
8.206279,8.327705,60,74,0
8.327705,8.46599,48,88,0
8.443244,8.575424,60,76,0
8.561274,8.694288,58,76,0
8.672635,8.810512,60,76,0
8.791738,8.928784,56,80,0
8.906362,9.036591,60,75,0
9.020792,9.152641,58,75,0
9.134423,9.25588,60,75,0
9.25082,9.39653,48,88,0
9.378857,9.508153,57,76,0
9.488781,9.619472,55,76,0
9.604351,9.745295,57,76,0
9.723294,9.861316,54,80,0
9.841294,9.967955,57,75,0
9.953669,10.080594,55,75,0
10.058133,10.175321,57,75,0
10.1773205,10.312066,48,88,0
10.29088,10.419602,57,75,0
10.400301,10.529875,55,75,0
10.511515,10.647123,57,75,0
10.629682,10.764082,54,80,0
10.747719,10.874991,57,74,0
10.852264,10.9811735,55,74,0
10.966173,11.086311,57,74,0
11.083174,11.227012,46,88,0
11.206604,11.33507,58,75,0
11.320418,11.450564,57,75,0
11.427561,11.567298,58,75,0
11.551854,11.685928,55,80,0
11.666627,11.795303,58,74,0
11.77784,11.908014,57,74,0
11.884458,12.002502,58,74,0
12.003487,12.139056,46,88,0
12.118721,12.247512,58,74,0
12.232806,12.36258,57,74,0
12.339424,12.474983,58,74,0
12.457541,12.591678,55,80,0
12.572851,12.697927,58,74,0
12.683641,12.811291,57,74,0
12.78632,12.907058,58,74,0
12.908066,13.046038,46,88,0
13.028073,13.15318,55,75,0
13.135324,13.261769,53,75,0
13.241573,13.377285,55,75,0
13.360619,13.496729,52,80,0
13.4800625,13.609693,55,74,0
13.591174,13.721968,53,74,0
13.698581,13.815718,55,74,0
13.818618,13.952152,46,88,0
13.932991,14.060728,55,73,0
14.04248,14.171406,53,73,0
14.153964,14.289536,55,73,0
14.267336,14.401481,52,80,0
14.385913,14.514118,55,73,0
14.493972,14.62403,53,73,0
14.601114,14.72142,55,73,0
14.724505,14.87211,44,88,0
14.853661,14.982812,56,73,0
14.963439,15.09352,55,73,0
15.077047,15.212706,56,73,0
15.191388,15.325999,53,80,0
15.307617,15.436294,56,73,0
15.417912,15.54837,55,73,0
15.526367,15.646764,56,74,0
15.647768,15.786769,44,88,0
15.76825,15.89788,56,75,0
15.877509,16.00805,55,76,0
15.992425,16.129145,56,74,0
16.106684,16.241995,53,80,0
16.222895,16.349396,56,74,0
16.33315,16.46203,55,74,0
16.442482,16.565989,56,74,0
16.562853,16.710764,44,88,0
16.693144,16.821978,50,75,0
16.802677,16.932251,48,75,0
16.915777,17.05128,50,75,0
17.031088,17.1652,53,79,0
17.14741,17.278494,50,74,0
17.260704,17.392591,48,74,0
17.371191,17.487923,50,74,0
17.489868,17.62533,44,86,0
17.604654,17.736233,50,73,0
17.720255,17.852419,48,72,0
17.831182,17.96624,50,77,0
17.945084,18.079157,53,77,0
18.064232,18.194828,50,72,0
18.176172,18.3076,48,72,0
18.285313,18.401592,50,72,0
18.404757,18.54955,43,83,0
18.527119,18.657356,51,72,0
18.642487,18.773684,50,72,0
18.7522,18.888998,51,72,0
18.86841,19.004644,55,75,0
18.986986,19.117098,51,70,0
19.09944,19.23059,50,70,0
19.207247,19.32434,51,70,0
19.325317,19.462036,43,81,0
19.442505,19.574854,51,69,0
19.556997,19.68931,50,69,0
19.672709,19.809082,51,69,0
19.788889,19.923027,55,73,0
19.90423,20.03581,51,67,0
20.017952,20.151007,50,66,0
20.127914,20.248398,51,66,0
20.248398,20.396296,48,79,0
20.380495,20.510607,51,69,0
20.488302,20.619383,50,69,0
20.600756,20.73801,51,65,0
20.719383,20.855787,56,71,0
20.83605,20.967628,51,65,0
20.950712,21.083183,50,63,0
21.063574,21.181229,51,63,0
21.181229,21.318283,48,77,0
21.299273,21.432352,51,64,0
21.409538,21.543087,50,64,0
21.524557,21.660965,51,64,0
21.64172,21.775166,56,69,0
21.759878,21.885778,51,61,0
21.868692,21.99757,50,61,0
21.973907,22.097197,51,61,0
22.09826,22.243946,50,74,0
22.222729,22.350311,53,59,0
22.336674,22.465412,51,60,0
22.44213,22.57818,53,59,0
22.560738,22.69528,56,66,0
22.676964,22.80517,53,59,0
22.785938,22.915209,51,59,0
22.897766,23.014069,53,59,0
23.01017,23.146608,50,73,0
23.127794,23.258968,53,56,0
23.240242,23.371983,51,55,0
23.3526,23.488783,53,55,0
23.471205,23.606842,56,61,0
23.587416,23.716621,53,56,0
23.70094,23.832428,51,56,0
23.80795,23.931194,53,56,0
23.93325,24.080456,51,70,0
24.05986,24.189312,55,53,0
24.174553,24.305586,53,53,0
24.285425,24.425945,55,53,0
24.403368,24.539486,56,57,0
24.52386,24.652538,55,53,0
24.633236,24.763445,53,53,0
24.743603,24.862646,55,53,0
24.862646,24.999327,51,70,0
24.97826,25.10569,55,53,0
25.090237,25.219006,53,53,0
25.1966,25.333921,55,53,0
25.31904,25.456022,56,56,0
25.435112,25.562386,55,52,0
25.54693,25.67648,53,52,0
25.65531,25.776426,55,52,0
25.775345,25.922815,51,70,0
25.905912,26.030466,57,52,0
26.012672,26.139055,55,52,0
26.117655,26.23244,57,52,0
26.234386,26.369013,53,55,0
26.348286,26.479916,57,52,0
26.464878,26.597265,55,52,0
26.57484,26.691992,57,52,0
26.691015,26.826885,51,70,0
26.80918,26.939339,57,51,0
26.923538,27.05444,55,51,0
27.032274,27.14614,57,51,0
27.14807,27.282589,53,56,0
27.264864,27.395462,57,51,0
27.374939,27.507494,55,51,0
27.488745,27.613745,57,51,0
27.614866,27.767506,50,70,0
27.74919,27.877396,53,52,0
27.859995,27.989454,51,52,0
27.968054,28.104166,53,52,0
28.084785,28.219791,56,58,0
28.203873,28.334959,53,52,0
28.316233,28.449446,51,52,0
28.426813,28.550268,53,52,0
28.552326,28.693993,50,70,0
28.670639,28.800474,53,54,0
28.784735,28.915268,51,54,0
28.897825,29.0334,53,54,0
29.011198,29.145014,56,60,0
29.126062,29.252028,53,53,0
29.234043,29.362484,51,54,0
29.341057,29.464756,53,54,0
29.467909,29.61663,48,70,0
29.597258,29.726408,53,52,0
29.706114,29.836102,52,52,0
29.816814,29.95238,53,52,0
29.934938,30.069805,56,60,0
30.054005,30.184116,53,53,0
30.16553,30.296993,52,53,0
30.274265,30.392843,53,53,0
30.394796,30.530706,48,70,0
30.51097,30.64255,53,53,0
30.624691,30.757248,52,53,0
30.738546,30.876253,53,53,0
30.854685,30.991089,56,60,0
30.972292,31.10387,53,53,0
31.082254,31.215282,52,53,0
31.198956,31.32153,53,53,0
31.319365,31.46755,48,70,0
31.45015,31.578356,51,54,0
31.56004,31.689207,50,54,0
31.669977,31.805069,51,54,0
31.786367,31.92273,53,60,0
31.904348,32.033024,51,54,0
32.012802,32.14342,50,54,0
32.121258,32.243015,51,54,0
32.244034,32.384834,46,70,0
32.367496,32.495235,51,54,0
32.476074,32.604816,50,54,0
32.588406,32.72354,51,54,0
32.702305,32.836792,53,61,0
32.820934,32.95153,51,53,0
32.92821,33.06031,50,53,0
33.04405,33.166096,51,53,0
33.16503,33.310246,44,70,0
33.294285,33.4184,48,54,0
33.397125,33.524452,47,53,0
33.50701,33.643074,48,53,0
33.625286,33.762115,50,64,0
33.742744,33.871895,48,54,0
33.854366,33.98494,47,54,0
33.961376,34.079426,48,54,0
34.083363,34.219894,44,70,0
34.20038,34.33049,48,55,0
34.31283,34.44403,47,55,0
34.4245,34.56122,48,55,0
34.541687,34.6774,50,64,0
34.656876,34.787476,48,56,0
34.766953,34.899292,47,56,0
34.880848,35.00387,48,56,0
35.00175,35.15093,45,70,0
35.132687,35.25923,51,56,0
35.24389,35.372837,50,56,0
35.35243,35.49466,51,56,0
35.471813,35.609283,48,64,0
35.593716,35.72192,51,56,0
35.701775,35.83207,50,56,0
35.80983,35.93207,51,56,0
35.936146,36.07621,45,70,0
36.05881,36.187016,51,57,0
36.16412,36.293354,50,58,0
36.27493,36.411057,51,58,0
36.393547,36.528328,48,64,0
36.509308,36.636116,51,56,0
36.619812,36.749332,50,56,0
36.725792,36.849125,51,56,0
36.85229,36.998653,43,70,0
36.98113,37.11028,51,56,0
37.087215,37.21734,50,56,0
37.200737,37.33762,51,56,0
37.318916,37.455353,53,64,0
37.434074,37.56329,51,56,0
37.543915,37.67418,50,56,0
37.65554,37.773586,51,56,0
37.776546,37.913593,43,70,0
37.895935,38.026047,51,57,0
38.005604,38.136703,50,57,0
38.116196,38.253304,51,57,0
38.23538,38.373352,53,64,0
38.35191,38.48209,51,57,0
38.46536,38.597385,50,57,0
38.575027,38.697384,51,57,0
38.697384,38.84469,43,70,0
38.829926,38.95908,51,56,0
38.93694,39.067116,50,56,0
39.046715,39.183327,51,56,0
39.1677,39.303535,48,64,0
39.280983,39.41215,51,56,0
39.393425,39.525948,50,56,0
39.505783,39.627575,51,56,0
39.62961,39.764843,43,71,0
39.747696,39.87405,51,56,0
39.8551,39.982857,50,56,0
39.9634,40.099586,51,56,0
40.08013,40.21545,48,65,0
40.19492,40.325115,51,56,0
40.30932,40.441254,50,57,0
40.421944,40.54399,51,57,0
40.541862,40.687508,43,73,0
40.67042,40.79632,51,58,0
40.780136,40.907722,50,58,0
40.886322,41.02251,51,58,0
41.003056,41.137836,53,66,0
41.116867,41.243813,51,58,0
41.22751,41.356697,50,58,0
41.3353,41.45805,51,58,0
41.459072,41.59822,43,73,0
41.582767,41.71004,51,58,0
41.68913,41.818382,50,58,0
41.796402,41.93663,51,58,0
41.92016,42.054985,53,67,0
42.037327,42.16744,51,58,0
42.148853,42.280785,50,58,0
42.261555,42.38294,51,58,0
42.38294,42.519234,43,75,0
42.497562,42.62355,51,59,0
42.60916,42.736664,50,59,0
42.715347,42.851574,51,59,0
42.83265,42.970627,53,68,0
42.952038,43.08215,51,58,0
43.063564,43.19463,50,58,0
43.176147,43.2929,51,59,0
43.2929,43.428745,43,75,0
43.410366,43.53904,51,60,0
43.51882,43.648865,50,60,0
43.628197,43.766068,51,60,0
43.744335,43.88155,53,69,0
43.864883,43.99451,51,61,0
43.977844,44.109463,50,61,0
44.087105,44.209057,51,61,0
44.209057,44.361294,43,65,0
44.340633,44.483906,47,68,0
44.4646,44.59959,50,71,0
46.088154,46.232796,43,64,0
46.212635,46.35321,48,66,0
46.333603,46.470406,51,68,0
47.956238,48.095135,43,67,0
48.075527,48.21112,45,70,0
48.192036,48.325623,54,70,0
49.79509,51.424915,43,67,0
51.424915,51.535675,62,60,0
51.51985,51.63061,60,60,0
51.614788,51.725254,62,61,0
51.709724,51.81842,63,70,0
51.80289,51.911587,60,67,0
51.89606,52.004757,59,60,0
51.989227,52.08514,60,60,0
52.08514,52.1959,57,75,0
52.180077,52.290836,60,61,0
52.275017,52.385777,59,61,0
52.369953,52.480465,60,61,0
52.46489,52.57392,62,70,0
52.558346,52.66738,59,61,0
52.651806,52.76193,57,61,0
52.745262,52.845264,59,61,0
52.845264,52.96484,55,74,0
52.94907,53.05948,59,61,0
53.043705,53.154118,57,61,0
53.138344,53.248558,59,61,0
53.23298,53.342014,60,71,0
53.32644,53.435474,56,61,0
53.419895,53.529484,55,61,0
53.513355,53.61013,56,61,0
53.61013,53.72054,53,74,0
53.704765,53.815178,57,63,0
53.799404,53.909813,55,63,0
53.89404,54.004303,57,63,0
53.988678,54.098053,59,71,0
54.082428,54.191803,55,62,0
54.176178,54.286484,53,62,0
54.269928,54.369267,55,62,0
54.369267,54.48499,51,76,0
54.469265,54.579327,67,63,0
54.563606,54.673668,65,63,0
54.657944,54.76786,67,63,0
54.752285,54.861317,68,71,0
54.84574,54.954777,65,63,0
54.9392,55.048786,63,63,0
55.032658,55.129433,65,63,0
55.129433,55.23984,62,76,0
55.22407,55.33448,65,64,0
55.318707,55.429115,63,65,0
55.413345,55.52356,65,63,0
55.50798,55.617016,67,71,0
55.60144,55.710472,63,63,0
55.694897,55.805023,62,62,0
55.788357,55.888355,63,62,0
55.888355,56.006077,60,74,0
55.99005,56.10223,63,63,0
56.086205,56.198383,62,63,0
56.182358,56.294434,63,63,0
56.27851,56.389977,65,77,0
56.374054,56.48552,62,60,0
56.469593,56.58137,60,60,0
56.565136,56.66254,62,61,0
56.66254,56.77472,63,77,0
56.758694,56.870872,60,62,0
56.854847,56.967026,59,63,0
56.951,57.063076,60,63,0
57.047153,57.15862,62,77,0
57.142696,57.25416,59,63,0
57.238235,57.350117,57,63,0
57.33378,57.431816,59,62,0
57.431816,57.546196,60,77,0
57.529858,57.644238,63,60,0
57.627895,57.742275,62,60,0
57.725937,57.840313,63,61,0
57.823975,57.938354,53,77,0
57.922012,58.036392,62,62,0
58.020054,58.134434,60,62,0
58.11809,58.216133,62,62,0
58.216133,58.33724,51,77,0
58.31994,58.441044,60,62,0
58.423744,58.54485,59,62,0
58.52755,58.649807,60,62,0
58.631355,58.760506,50,77,0
58.742058,58.87121,59,61,0
58.85276,58.98191,57,61,0
58.96346,59.07416,59,61,0
59.197113,61.041374,58,67,0
59.135635,61.041374,55,67,0
59.07416,61.041374,48,67,0
63.13154,64.9758,56,67,0
63.07006,64.9758,53,67,0
63.008587,64.9758,48,67,0
67.05708,67.19016,36,60,0
67.17115,68.67937,47,65,0
71.377785,71.507645,43,67,0
71.48972,75.949036,48,67,0
71.26585,75.949036,36,72,0
84.88705,85.093796,79,81,0
85.093796,85.30055,78,81,0
85.30055,85.50731,79,86,0
85.71406,86.12757,72,71,0
86.12757,86.33432,75,72,0
86.54108,86.74783,79,81,0
86.74783,86.95458,78,81,0
86.95458,87.16134,79,86,0
87.368095,87.7816,81,76,0
87.7816,87.98836,74,73,0
88.19511,88.40186,79,81,0
88.40186,88.60862,78,81,0
88.60862,88.81537,79,86,0
89.022125,89.43563,81,77,0
89.43563,89.65016,72,75,0
89.65016,89.86469,74,75,0
89.86469,90.70727,75,81,0
90.70727,90.91402,74,73,0
90.91402,91.12077,72,73,0
91.12077,91.32753,70,78,0
91.53428,91.741035,75,81,0
91.741035,91.94779,74,81,0
91.94779,92.15454,75,86,0
92.3613,92.7748,67,71,0
92.7748,92.98156,68,72,0
93.18832,93.395065,77,81,0
93.395065,93.60182,75,81,0
93.60182,93.80857,77,86,0
94.01533,94.42883,69,76,0
94.42883,94.63559,70,78,0
94.84235,95.049095,79,81,0
95.049095,95.25585,77,81,0
95.25585,95.46261,79,86,0
95.66936,96.08287,71,71,0
96.08287,96.28962,72,72,0
96.496376,96.70313,74,81,0
96.70313,96.90988,75,81,0
96.90988,98.150406,77,86,0
98.150406,98.35716,75,71,0
98.35716,98.56392,74,71,0
98.56392,98.77067,72,70,0
98.77067,98.977425,70,69,0
98.977425,99.193344,68,69,0
99.193344,99.40926,67,68,0
99.40926,99.61602,65,68,0
99.82278,100.23628,80,74,0
100.23628,100.64979,79,73,0
100.64979,101.0633,77,73,0
101.0633,101.27005,75,72,0
101.47681,101.89031,74,74,0
101.89031,102.30382,75,74,0
102.30382,102.71733,77,74,0
102.71733,102.93186,71,81,0
103.14639,103.575455,72,77,0
103.575455,103.98896,74,77,0
103.98896,104.402466,71,77,0
104.402466,104.81598,72,81,0
104.81598,105.02273,79,81,0
105.02273,105.229485,78,81,0
105.229485,105.43624,79,86,0
105.64299,106.06672,74,71,0
106.06672,106.90396,75,72,0
107.31747,107.74653,76,72,0
107.74653,107.96106,77,81,0
108.17559,108.38235,77,81,0
108.38235,108.589096,76,81,0
108.589096,108.79585,77,86,0
109.00261,109.416115,72,71,0
109.416115,110.24313,74,72,0
110.65664,111.0857,74,72,0
111.0857,111.30023,75,81,0
111.51476,111.72152,75,81,0
111.72152,111.92827,74,81,0
111.92827,112.135025,75,86,0
112.34178,112.75529,70,71,0
112.75529,112.96204,72,76,0
113.16879,113.37938,75,81,0
113.37938,113.589966,74,81,0
113.589966,113.80055,75,86,0
114.01114,114.43231,77,81,0
114.43231,114.64289,70,81,0
114.85348,115.064064,75,81,0
115.064064,115.27465,74,81,0
115.27465,115.69582,75,86,0
115.69582,116.0117,77,81,0
116.11699,116.33152,68,75,0
116.33152,116.54605,70,75,0
116.54605,117.39376,72,81,0
117.39376,117.60308,70,76,0
117.60308,117.8124,68,76,0
117.8124,117.91706,67,72,0
118.02173,118.23105,63,69,0
118.23105,118.4378,65,70,0
118.4378,118.644554,67,71,0
118.644554,118.85131,68,72,0
118.85131,119.05806,70,74,0
119.05806,119.26482,72,75,0
119.26482,119.47157,74,76,0
119.47157,119.67832,75,77,0
119.67832,119.88508,74,76,0
119.88508,120.091835,72,75,0
120.091835,120.298584,74,75,0
120.298584,120.50534,75,77,0
120.50534,120.7121,77,80,0
120.7121,120.918846,79,82,0
120.918846,121.1256,81,85,0
121.1256,121.22898,82,88,0
121.33236,121.53911,65,67,0
121.53911,121.745865,67,68,0
121.745865,121.95262,68,69,0
121.95262,122.15937,70,71,0
122.15937,122.36613,72,72,0
122.36613,122.57288,74,73,0
122.57288,122.77963,76,74,0
122.77963,122.98639,77,76,0
122.98639,123.193146,75,75,0
123.193146,123.399895,74,73,0
123.399895,123.60665,75,76,0
123.60665,123.81341,77,75,0
123.81341,124.02016,79,78,0
124.02016,124.22691,81,81,0
124.22691,124.43367,83,84,0
124.43367,124.64042,84,87,0
124.847176,125.05393,83,82,0
125.05393,125.26068,81,80,0
125.26068,125.46744,79,79,0
125.46744,125.674194,77,78,0
125.674194,125.88094,75,77,0
125.88094,126.0877,74,76,0
126.0877,126.29446,72,75,0
126.501205,126.92764,75,73,0
126.92764,127.35409,74,71,0
127.35409,127.780525,72,70,0
127.780525,127.993744,70,68,0
128.20697,128.6334,69,67,0
128.6334,129.05984,70,68,0
129.05984,129.37967,72,72,0
129.48628,129.92107,66,67,0
129.92107,130.35585,67,67,0
130.35585,130.7875,69,70,0
130.7875,131.21657,66,65,0
131.21657,131.43109,67,71,0
131.64563,131.85237,74,72,0
131.85237,132.05913,72,72,0
132.05913,132.47264,74,76,0
133.31499,133.52173,76,77,0
133.52173,133.72849,74,77,0
133.72849,134.142,76,81,0
134.99487,135.20163,78,84,0
135.20163,135.40839,76,84,0
135.40839,135.82188,78,89,0
136.66423,136.87099,67,72,0
136.87099,137.07774,65,72,0
137.07774,137.2845,67,77,0
138.32854,138.5353,69,71,0
138.5353,138.74205,67,71,0
138.74205,138.94879,69,76,0
139.98257,140.18932,71,71,0
140.18932,140.39607,69,71,0
140.39607,140.60283,71,76,0
141.65704,141.8638,72,81,0
141.8638,142.07056,71,81,0
142.07056,142.2773,72,86,0
142.48405,142.89757,67,71,0
142.89757,143.10432,68,72,0
143.31108,143.51782,72,81,0
143.51782,143.72458,71,81,0
143.72458,143.93134,72,86,0
144.13809,144.56453,74,76,0
144.56453,144.77776,67,73,0
144.99097,145.19772,72,81,0
145.19772,145.40448,71,81,0
145.40448,145.61124,72,86,0
145.81798,146.02473,74,77,0
146.23149,146.44208,65,75,0
146.44208,146.65266,67,75,0
146.65266,147.48734,68,81,0
147.48734,147.69409,67,73,0
147.69409,147.90085,65,73,0
147.90085,148.1076,63,73,0
148.31436,148.52112,72,81,0
148.52112,148.72786,71,81,0
148.72786,148.94109,72,86,0
149.15431,149.56781,67,71,0
149.56781,150.39484,68,72,0
150.80833,151.22185,69,72,0
151.22185,151.4286,70,73,0
151.63536,151.8421,70,81,0
151.8421,152.04886,69,81,0
152.04886,152.26208,70,86,0
152.4753,152.88881,65,71,0
152.88881,153.71582,67,72,0
154.12933,154.95634,67,72,0
154.95634,155.1631,68,71,0
155.1631,155.36986,70,72,0
155.36986,155.57661,72,74,0
155.57661,155.78337,71,72,0
155.78337,155.99011,72,76,0
155.99011,156.19687,68,72,0
156.19687,158.26442,65,76,0
158.26442,158.47116,74,80,0
158.47116,158.67792,72,80,0
158.67792,158.88467,74,86,0
159.09143,159.5205,65,73,0
159.5205,159.72725,63,73,0
159.934,160.14075,75,80,0
160.14075,160.3475,74,80,0
160.3475,160.55426,75,84,0
160.76102,161.17453,67,73,0
161.17453,161.38127,65,73,0
161.58803,161.79478,77,82,0
161.79478,162.00154,75,82,0
162.00154,162.2083,77,88,0
162.41504,162.82855,68,77,0
162.82855,162.93193,67,77,0
163.03531,163.24207,77,81,0
163.24207,163.44882,75,80,0
163.44882,163.65556,74,79,0
163.65556,163.86232,72,78,0
163.86232,164.06908,71,77,0
164.06908,164.27583,69,76,0
164.27583,164.48259,67,75,0
164.48259,164.70125,72,73,0
164.9199,165.35722,77,78,0
165.35722,165.79454,75,76,0
165.79454,166.23186,74,73,0
166.69922,167.1511,68,76,0
167.1511,167.6248,67,74,0
167.6248,168.09851,65,71,0
168.09851,168.34752,67,73,0
168.59653,168.85306,65,76,0
168.85306,169.1096,63,76,0
169.1096,169.36615,65,81,0
169.6227,170.17743,62,73,0
170.17743,170.78668,68,89,0
170.78668,171.39595,67,76,0
172.0052,172.61447,69,78,0
172.61447,173.22372,71,82,0
173.22372,173.833,72,80,0
173.833,174.14896,65,76,0
174.14896,174.47498,63,75,0
174.47498,174.81172,62,75,0
174.81172,175.24374,60,74,0
175.83186,176.09633,72,81,0
176.09633,176.36078,71,81,0
176.36078,176.60272,72,87,0
176.84465,177.32852,67,77,0
177.32852,177.57047,68,77,0
177.8124,178.05968,72,80,0
178.05968,178.30696,71,80,0
178.30696,178.80151,72,86,0
178.80151,179.29608,74,74,0
179.29608,179.54335,67,76,0
179.79063,180.04523,72,79,0
180.04523,180.2998,71,79,0
180.2998,180.82465,72,86,0
180.82465,181.30576,74,78,0
181.35353,181.66945,65,56,0
181.66945,181.98538,67,56,0
181.98538,183.29807,68,60,0
183.29807,183.73009,67,47,0
183.73009,184.39943,65,45,0
184.39943,189.75418,64,43,0
78.23754,78.4443,72,81,0
78.4443,78.651054,71,81,0
78.651054,78.8578,72,86,0
79.06456,79.491,67,71,0
79.491,79.697754,68,72,0
79.9045,80.11126,72,81,0
80.11126,80.318016,71,81,0
80.318016,80.524765,72,86,0
80.73152,81.14503,74,76,0
81.14503,81.35178,67,73,0
81.55854,81.76529,72,81,0
81.76529,81.972046,71,81,0
81.972046,82.1788,72,86,0
82.38555,82.59231,74,77,0
82.799065,83.010925,65,75,0
83.010925,83.22279,67,75,0
83.22279,84.06003,68,81,0
84.06003,84.266785,67,73,0
84.266785,84.47353,65,71,0
84.47353,84.57691,63,75,0
84.68029,84.88705,72,71,0
84.88705,85.093796,71,62,0
85.093796,85.30055,68,62,0
85.30055,85.50731,67,62,0
85.50731,85.71406,65,62,0
85.71406,85.920815,63,62,0
85.920815,86.12757,62,62,0
86.12757,86.33432,60,67,0
86.54108,86.95458,75,65,0
86.95458,87.368095,74,65,0
87.368095,87.7816,72,65,0
87.7816,87.98836,70,68,0
88.19511,88.60862,69,63,0
88.60862,89.022125,70,67,0
89.022125,89.43219,72,62,0
89.43563,89.86469,66,67,0
89.86469,90.293755,67,62,0
90.293755,90.70727,69,66,0
90.70727,91.12077,66,63,0
91.12077,91.94779,67,69,0
92.15454,92.3613,60,70,0
92.3613,92.568054,62,72,0
92.568054,92.7748,63,74,0
92.7748,92.98156,65,75,0
92.98156,93.18832,67,75,0
93.18832,93.80857,68,79,0
93.80857,94.01533,62,71,0
94.01533,94.222084,63,73,0
94.222084,94.42883,65,74,0
94.42883,94.63559,67,76,0
94.63559,94.84235,69,77,0
94.84235,95.46261,70,79,0
95.46261,95.66936,63,69,0
95.66936,95.876114,65,71,0
95.876114,96.08287,67,73,0
96.08287,96.28962,68,74,0
96.28962,96.496376,67,73,0
96.496376,96.70313,65,72,0
96.70313,96.90988,63,71,0
96.90988,97.11664,62,70,0
97.323395,97.53014,72,78,0
97.53014,97.7369,71,78,0
97.7369,97.94366,72,83,0
99.82278,100.23628,77,74,0
100.23628,100.64979,75,73,0
100.64979,101.0633,74,72,0
101.47681,101.89031,68,73,0
101.89031,102.30382,67,73,0
102.30382,102.71733,65,73,0
102.71733,102.93186,67,75,0
103.14639,103.36092,65,78,0
103.36092,103.575455,63,78,0
103.575455,103.78221,65,84,0
103.98896,104.402466,62,76,0
104.402466,105.229485,67,82,0
105.64299,106.06672,71,72,0
106.06672,106.27859,72,72,0
106.49045,106.697205,72,82,0
106.697205,106.90396,71,82,0
106.90396,107.11071,72,87,0
107.31747,107.74653,67,73,0
107.74653,108.589096,68,73,0
109.00261,109.416115,69,71,0
109.416115,109.62287,70,71,0
109.82962,110.03638,70,82,0
110.03638,110.24313,69,82,0
110.24313,110.44988,70,86,0
110.65664,111.0857,65,75,0
111.0857,111.92827,67,75,0
112.34178,112.75529,67,74,0
112.75529,112.96204,68,74,0
113.16879,113.589966,68,75,0
113.589966,114.01114,67,74,0
114.01114,114.43231,65,72,0
114.85348,115.27465,56,66,0
115.27465,115.69582,58,69,0
115.69582,116.0117,60,71,0
116.54605,116.76058,56,73,0
116.76058,116.97511,55,73,0
116.97511,117.18444,56,78,0
117.39376,117.8124,53,72,0
117.8124,118.02173,58,71,0
118.23105,118.644554,60,65,0
118.644554,119.05806,58,63,0
119.05806,119.47157,56,61,0
119.47157,119.67832,58,57,0
119.88508,120.298584,55,68,0
120.298584,120.7121,53,66,0
120.7121,121.1256,51,65,0
121.1256,121.33236,53,63,0
121.53911,121.95262,61,71,0
121.95262,122.36613,60,69,0
122.36613,122.77963,58,67,0
122.77963,122.98639,60,65,0
123.193146,123.60665,56,68,0
123.60665,124.02016,55,67,0
124.02016,124.43367,53,65,0
124.43367,124.64042,55,64,0
124.847176,125.05393,67,80,0
125.05393,125.26068,66,80,0
125.26068,125.46744,67,88,0
125.674194,126.0877,60,74,0
126.0877,126.29446,63,74,0
126.501205,126.714424,67,80,0
126.714424,126.92764,66,80,0
126.92764,127.35409,67,87,0
127.35409,127.780525,69,77,0
127.780525,127.993744,62,76,0
128.20697,128.42018,67,80,0
128.42018,128.6334,66,80,0
128.6334,129.05984,67,86,0
129.05984,129.37967,69,79,0
129.48628,129.70367,60,73,0
129.70367,129.92107,62,73,0
129.92107,130.7875,63,80,0
130.7875,131.00203,62,77,0
131.00203,131.21657,60,77,0
131.21657,131.43109,58,75,0
132.26588,132.47264,62,67,0
132.47264,132.68323,64,69,0
132.68323,132.89381,66,71,0
132.89381,133.1044,67,73,0
133.1044,133.31499,69,75,0
133.31499,133.93524,70,77,0
133.93524,134.142,64,73,0
134.142,134.35522,65,75,0
134.35522,134.56844,67,77,0
134.56844,134.78166,69,79,0
134.78166,134.99487,70,79,0
134.99487,135.61514,72,83,0
135.61514,135.82188,66,75,0
135.82188,136.03247,67,78,0
136.03247,136.24306,69,80,0
136.24306,136.66423,70,83,0
136.66423,136.87099,63,71,0
136.87099,137.07774,62,71,0
137.07774,137.2845,63,74,0
137.49126,137.70058,55,64,0
137.9099,138.11922,56,64,0
138.32854,138.5353,65,72,0
138.5353,138.74205,63,72,0
138.74205,138.94879,65,76,0
139.15555,139.3623,57,64,0
139.56906,139.77582,58,64,0
139.98257,140.18932,67,72,0
140.18932,140.39607,65,72,0
140.39607,140.60283,67,75,0
140.80959,141.02145,59,64,0
141.2333,141.33925,60,69,0
141.44518,141.65704,65,68,0
141.65704,141.8638,63,67,0
141.8638,142.07056,62,66,0
142.07056,142.2773,60,66,0
142.2773,142.48405,58,65,0
142.48405,142.69081,56,64,0
142.69081,142.89757,55,63,0
142.89757,143.10432,53,62,0
143.31108,143.72458,68,64,0
143.72458,144.13809,67,68,0
144.13809,144.56453,65,68,0
144.56453,144.77776,63,66,0
144.99097,145.40448,62,64,0
145.40448,145.81798,63,64,0
145.81798,146.22804,65,64,0
146.23149,146.44208,59,69,0
146.65266,147.07384,60,64,0
147.07384,147.48734,62,67,0
147.48734,147.90085,59,59,0
147.90085,148.72786,60,66,0
149.15431,149.56781,64,64,0
149.56781,149.77457,65,64,0
149.98132,150.18808,65,82,0
150.18808,150.39484,64,82,0
150.39484,150.60158,65,84,0
150.80833,151.22185,60,72,0
151.22185,152.04886,62,72,0
152.4753,152.88881,62,69,0
152.88881,153.09557,63,69,0
153.30232,153.50906,63,79,0
153.50906,153.71582,62,79,0
153.71582,153.92258,63,84,0
154.12933,154.54285,58,73,0
154.54285,156.61038,60,73,0
156.61038,156.81714,62,72,0
156.81714,157.0239,63,73,0
157.0239,157.23064,65,75,0
157.23064,157.4374,63,73,0
157.4374,157.64415,65,75,0
157.64415,157.8509,62,73,0
157.8509,158.05766,59,75,0
159.09143,159.5205,59,63,0
159.5205,159.72725,60,63,0
160.76102,161.17453,63,65,0
161.17453,161.38127,62,65,0
162.41504,163.24207,65,70,0
164.06908,164.48259,65,67,0
164.48259,164.70125,63,65,0
164.9199,165.35722,68,66,0
165.35722,165.79454,67,65,0
165.79454,166.23186,65,64,0
166.23186,166.46555,63,71,0
166.69922,167.1511,62,69,0
167.1511,167.6248,63,67,0
168.09851,168.34752,59,69,0
168.59653,169.1096,60,65,0
169.1096,169.36615,62,69,0
169.6227,170.17743,59,65,0
170.17743,170.78668,59,88,0
170.78668,171.39595,60,62,0
172.0052,172.61447,60,68,0
172.61447,172.9191,65,75,0
172.9191,173.22372,62,72,0
173.22372,173.52837,63,77,0
173.52837,174.47498,60,71,0
174.47498,175.24374,59,74,0
175.24374,175.83186,60,81,0
176.84465,177.32852,64,65,0
177.32852,177.57047,65,66,0
178.80151,179.29608,65,45,0
178.80151,179.29608,68,45,0
178.80151,179.29608,71,45,0
179.29608,179.54335,65,60,0
179.79063,180.04523,63,64,0
180.04523,180.2998,62,64,0
180.2998,180.82465,63,69,0
180.82465,181.30576,65,57,0
180.82465,181.30576,68,57,0
181.35353,181.98538,62,53,0
181.35353,181.98538,59,53,0
182.62901,183.29807,62,46,0
182.62901,183.29807,59,46,0
184.39943,189.75418,60,36,0
184.39943,189.75418,55,36,0
98.150406,98.35716,60,81,0
98.35716,98.56392,59,81,0
98.56392,98.77067,60,86,0
98.977425,99.40926,55,71,0
99.40926,99.61602,56,72,0
99.82278,100.029526,60,81,0
100.029526,100.23628,59,81,0
100.23628,100.44304,60,86,0
100.64979,101.0633,62,76,0
101.0633,101.27005,55,73,0
101.47681,101.68356,60,81,0
101.68356,101.89031,59,81,0
101.89031,102.09707,60,86,0
102.30382,102.510574,62,77,0
102.71733,102.93186,53,72,0
102.93186,103.14639,55,72,0
103.14639,103.98896,56,74,0
103.98896,104.19572,55,73,0
104.19572,104.402466,53,73,0
104.402466,104.505844,51,72,0
104.60922,104.81598,60,75,0
104.81598,105.02273,59,74,0
105.02273,105.229485,57,73,0
105.229485,105.43624,55,72,0
105.43624,105.64299,53,70,0
105.64299,105.85486,51,69,0
105.85486,106.06672,50,68,0
106.06672,106.27859,48,67,0
106.27859,106.49045,50,70,0
106.49045,106.697205,51,71,0
106.697205,106.90396,50,70,0
106.90396,107.11071,48,67,0
107.11071,107.31747,46,71,0
107.31747,107.532,44,70,0
107.532,107.74653,43,68,0
107.74653,107.8538,41,67,0
107.96106,108.17559,58,74,0
108.17559,108.38235,56,74,0
108.38235,108.589096,55,73,0
108.589096,108.79585,53,72,0
108.79585,109.00261,51,72,0
109.00261,109.20936,50,71,0
109.20936,109.416115,48,70,0
109.416115,109.62287,46,70,0
109.62287,109.82962,48,71,0
109.82962,110.03638,50,71,0
110.03638,110.24313,48,73,0
110.24313,110.44988,46,71,0
110.44988,110.65664,44,70,0
110.65664,110.87117,43,68,0
110.87117,111.0857,41,66,0
111.0857,111.19297,39,65,0
111.30023,111.51476,56,75,0
111.51476,111.72152,55,74,0
111.72152,111.92827,53,73,0
111.92827,112.135025,51,72,0
112.135025,112.34178,49,71,0
112.34178,112.54853,48,70,0
112.54853,112.75529,46,69,0
112.75529,112.96204,44,68,0
113.16879,113.589966,60,75,0
113.589966,114.01114,58,74,0
114.01114,114.43231,56,72,0
114.43231,114.64289,55,72,0
114.85348,115.27465,53,66,0
115.27465,115.69582,55,69,0
115.69582,116.0117,56,71,0
116.11699,116.54605,50,65,0
116.54605,116.97511,51,69,0
116.97511,117.39376,53,72,0
117.39376,117.8124,50,68,0
117.8124,118.02173,51,67,0
118.23105,118.644554,56,56,0
118.644554,119.05806,55,55,0
119.05806,119.47157,53,53,0
119.47157,119.67832,55,55,0
119.88508,120.298584,53,56,0
120.298584,120.7121,50,55,0
120.7121,121.1256,48,52,0
121.1256,121.33236,50,50,0
121.53911,121.95262,58,54,0
121.95262,122.36613,56,52,0
122.36613,122.77963,55,51,0
122.77963,122.98639,56,54,0
123.193146,123.60665,53,55,0
123.60665,124.02016,51,52,0
124.02016,124.43367,50,48,0
124.43367,124.64042,51,63,0
126.501205,126.92764,48,59,0
126.92764,127.35409,46,58,0
127.35409,127.780525,45,56,0
128.20697,128.6334,51,57,0
128.6334,129.05984,50,56,0
129.05984,129.37967,48,55,0
129.48628,129.92107,50,59,0
129.92107,130.13846,48,58,0
130.13846,130.35585,46,58,0
130.35585,130.7875,48,58,0
130.7875,131.21657,50,56,0
131.21657,131.43109,43,63,0
131.64563,131.85237,58,70,0
131.85237,132.05913,57,70,0
132.05913,132.26588,58,73,0
132.47264,132.68323,50,58,0
132.89381,133.1044,51,63,0
133.31499,133.52173,60,69,0
133.52173,133.72849,59,69,0
133.72849,133.93524,60,73,0
134.142,134.35522,52,58,0
134.56844,134.78166,53,63,0
134.99487,135.20163,62,75,0
135.20163,135.40839,60,75,0
135.40839,135.61514,62,80,0
135.82188,136.03247,54,63,0
136.24306,136.45364,55,65,0
137.2845,137.49126,43,54,0
137.49126,137.70058,45,57,0
137.70058,137.9099,47,59,0
137.9099,138.11922,48,62,0
138.11922,138.32854,50,64,0
138.32854,138.94879,51,66,0
138.94879,139.15555,45,58,0
139.15555,139.3623,46,60,0
139.3623,139.56906,48,63,0
139.56906,139.77582,50,65,0
139.77582,139.98257,51,67,0
139.98257,140.60283,53,70,0
140.60283,140.80959,47,59,0
140.80959,141.02145,48,62,0
141.02145,141.2333,50,64,0
141.2333,141.44518,51,67,0
142.48405,142.89757,52,61,0
142.89757,143.10432,56,66,0
143.31108,143.72458,41,60,0
143.72458,144.13809,39,59,0
144.13809,144.56453,38,58,0
144.99097,145.40448,44,61,0
145.40448,145.81798,43,59,0
145.81798,146.23149,41,57,0
146.23149,146.44208,43,56,0
146.65266,146.86325,41,62,0
146.86325,147.07384,39,62,0
147.07384,147.2806,41,67,0
147.48734,147.69409,43,55,0
147.90085,148.1076,48,58,0
148.1076,148.31436,50,58,0
148.31436,148.52112,51,59,0
148.52112,148.72786,50,58,0
148.72786,148.94109,48,57,0
148.94109,149.15431,46,57,0
149.15431,149.36105,44,56,0
149.36105,149.56781,43,55,0
149.56781,149.67119,41,54,0
149.77457,149.98132,58,59,0
149.98132,150.18808,56,59,0
150.18808,150.39484,55,58,0
150.39484,150.60158,53,57,0
150.60158,150.80833,51,57,0
150.80833,151.01509,50,56,0
151.01509,151.22185,48,55,0
151.22185,151.4286,46,55,0
151.4286,151.63536,48,57,0
151.63536,151.8421,50,60,0
151.8421,152.04886,48,59,0
152.04886,152.26208,46,58,0
152.26208,152.4753,44,57,0
152.4753,152.68205,43,57,0
152.68205,152.88881,41,56,0
152.88881,152.99219,39,55,0
153.09557,153.30232,56,61,0
153.30232,153.50906,55,60,0
153.50906,153.71582,53,60,0
153.71582,153.92258,51,59,0
153.92258,154.12933,50,58,0
154.12933,154.33609,48,57,0
154.33609,154.54285,46,57,0
154.54285,154.74959,44,56,0
154.74959,154.95634,46,57,0
154.95634,155.1631,48,60,0
155.1631,155.36986,46,58,0
155.36986,155.57661,44,58,0
155.57661,155.78337,43,57,0
155.78337,155.99011,41,57,0
155.99011,156.19687,39,56,0
156.19687,156.30025,38,56,0
156.40363,156.61038,55,56,0
156.61038,156.81714,53,60,0
156.81714,157.0239,51,59,0
157.0239,157.23064,50,59,0
157.23064,157.4374,48,58,0
157.4374,157.64415,47,57,0
157.64415,157.8509,45,56,0
157.8509,158.67792,43,55,0
159.72725,159.934,43,49,0
159.934,160.14075,45,51,0
160.14075,160.3475,47,52,0
160.3475,160.55426,48,54,0
160.55426,160.76102,50,55,0
160.76102,160.96777,51,57,0
160.96777,161.17453,53,58,0
161.17453,161.38127,55,60,0
161.38127,161.58803,53,57,0
161.58803,161.79478,56,62,0
161.79478,162.00154,55,61,0
162.00154,162.2083,53,60,0
162.2083,162.41504,51,59,0
162.41504,162.6218,50,58,0
162.6218,162.82855,48,57,0
162.82855,163.03531,47,56,0
163.24207,163.44882,48,77,0
163.44882,163.65556,47,77,0
163.65556,163.86232,48,80,0
164.06908,164.48259,43,71,0
164.48259,164.70125,44,71,0
164.9199,165.13857,48,78,0
165.13857,165.35722,47,78,0
165.35722,165.57588,48,81,0
165.79454,166.23186,50,75,0
166.23186,166.46555,43,71,0
166.69922,166.92516,48,77,0
166.92516,167.1511,47,77,0
167.1511,167.38795,48,80,0
167.6248,167.86166,50,71,0
168.09851,168.34752,41,74,0
168.34752,168.59653,43,74,0
168.59653,169.6227,44,78,0
169.6227,169.90005,43,73,0
169.90005,170.17743,41,73,0
170.17743,171.39595,39,69,0
172.0052,172.61447,51,57,0
172.61447,173.22372,50,61,0
173.22372,173.833,48,57,0
173.833,174.47498,55,69,0
174.47498,175.24374,43,64,0
175.24374,189.75418,36,82,0
175.24374,189.75418,48,82,0
