start_time,end_time,note_value,velocity,instrument_program_number
0.4070947,0.6097974,67,56,0
0.6097974,0.8124666,72,60,0
0.8124666,0.9912746,76,63,0
1.0111756,1.2138784,67,50,0
1.2138784,1.4165812,72,47,0
1.4165812,1.6192839,76,47,0
2.0246894,2.2273922,67,56,0
2.2273922,2.430095,72,60,0
2.430095,2.6125274,76,62,0
2.632775,2.832775,67,50,0
2.832775,3.0327752,72,48,0
3.0327752,3.2327976,76,48,0
3.6382031,3.8408616,69,56,0
3.8408616,4.038188,74,60,0
4.038188,4.2112646,77,65,0
4.230538,4.427906,69,51,0
4.427906,4.6252747,74,50,0
4.6252747,4.8226542,77,50,0
5.220005,5.4186482,69,58,0
5.4186482,5.6134124,74,60,0
5.6134124,5.784299,77,65,0
5.803327,5.998132,69,52,0
5.998132,6.1930037,74,50,0
6.1930037,6.3956947,77,50,0
6.7983794,6.999667,67,56,0
6.999667,7.1944113,74,60,0
7.1944113,7.3631616,77,65,0
7.3819723,7.5767775,67,51,0
7.5767775,7.771583,74,50,0
7.771583,7.9664426,77,50,0
8.369127,8.5704365,67,56,0
8.5704365,8.767762,74,60,0
8.767762,8.94084,77,65,0
8.960113,9.157481,67,52,0
9.157481,9.354929,74,50,0
9.354929,9.561746,77,50,0
9.956483,10.1538515,67,53,0
10.1538515,10.351168,72,55,0
10.351168,10.523142,76,60,0
10.542303,10.739672,67,50,0
10.739672,10.937096,72,47,0
10.937096,11.141122,76,47,0
11.535858,11.733227,67,55,0
11.733227,11.930553,72,57,0
11.930553,12.10363,76,61,0
12.122903,12.3202715,67,50,0
12.3202715,12.51764,72,48,0
12.51764,12.715054,76,48,0
13.120459,13.323117,69,61,0
13.323117,13.520443,76,66,0
13.520443,13.693521,81,70,0
13.712783,13.908861,69,55,0
13.908861,14.104939,76,51,0
14.104939,14.301073,81,51,0
14.706479,14.909126,69,61,0
14.909126,15.105173,76,65,0
15.105173,15.278251,81,68,0
15.297512,15.493591,69,55,0
15.493591,15.6897135,76,52,0
15.6897135,15.891012,81,52,0
16.283169,16.479248,66,56,0
16.479248,16.675283,69,60,0
16.675283,16.84726,74,63,0
16.866398,17.061203,66,50,0
17.061203,17.256008,69,47,0
17.256008,17.450869,74,47,0
17.853552,18.054895,66,56,0
18.054895,18.256182,69,60,0
18.256182,18.431507,74,62,0
18.450989,18.645794,66,50,0
18.645794,18.840698,69,48,0
18.840698,19.047539,74,48,0
19.447538,19.647495,67,58,0
19.647495,19.84228,74,63,0
19.84228,20.015356,79,66,0
20.034607,20.229414,67,51,0
20.229414,20.424284,74,50,0
20.424284,20.626965,79,50,0
21.026964,21.226912,67,58,0
21.226912,21.42046,74,62,0
21.42046,21.594652,79,65,0
21.614008,21.807556,67,52,0
21.807556,22.001215,74,50,0
22.001215,22.208067,79,50,0
22.61075,22.812094,64,56,0
22.812094,23.01337,67,60,0
23.01337,23.187563,72,63,0
23.206919,23.400467,64,50,0
23.400467,23.594091,67,47,0
23.594091,23.79674,72,47,0
24.188896,24.384975,64,56,0
24.384975,24.581032,67,60,0
24.581032,24.755226,72,62,0
24.77458,24.96813,64,50,0
24.96813,25.161789,67,48,0
25.161789,25.368607,72,48,0
25.763344,25.960712,64,56,0
25.960712,26.158081,67,60,0
26.158081,26.335712,72,63,0
26.355494,26.558195,64,50,0
26.558195,26.760899,67,47,0
26.760899,26.963568,72,47,0
27.360918,27.559595,64,56,0
27.559595,27.75827,67,60,0
27.75827,27.937078,72,62,0
27.956991,28.161072,64,50,0
28.161072,28.365278,67,48,0
28.365278,28.584131,72,48,0
28.992296,29.196342,62,56,0
29.196342,29.396343,66,60,0
29.396343,29.576344,72,63,0
29.596344,29.796343,62,50,0
29.796343,29.996344,66,47,0
29.996344,30.196377,72,47,0
30.60454,30.808577,62,56,0
30.808577,31.007254,66,60,0
31.007254,31.18606,72,62,0
31.205929,31.404604,62,50,0
31.404604,31.603348,66,48,0
31.603348,31.810175,72,48,0
32.207527,32.406204,62,53,0
32.406204,32.604855,67,56,0
32.604855,32.781326,71,60,0
32.800934,32.997013,62,46,0
32.997013,33.193092,67,45,0
33.193092,33.38919,71,45,0
33.78654,33.985218,62,53,0
33.985218,34.18386,67,56,0
34.18386,34.359188,71,58,0
34.378666,34.57347,62,47,0
34.57347,34.768276,67,45,0
34.768276,34.969696,71,45,0
35.367046,35.565723,64,53,0
35.565723,35.764366,67,56,0
35.764366,35.93969,73,60,0
35.95917,36.153976,64,46,0
36.153976,36.34888,67,45,0
36.34888,36.55571,73,45,0
36.95306,37.151737,64,53,0
37.151737,37.350414,67,56,0
37.350414,37.527294,73,58,0
37.5469,37.74298,64,47,0
37.74298,37.939137,67,45,0
37.939137,38.14464,73,45,0
38.551567,38.750244,62,56,0
38.750244,38.9489,69,60,0
38.9489,39.12537,74,63,0
39.144978,39.341057,62,50,0
39.341057,39.537132,69,47,0
39.537132,39.733234,74,47,0
40.130585,40.32926,62,56,0
40.32926,40.527916,69,60,0
40.527916,40.704384,74,62,0
40.72399,40.92007,62,50,0
40.92007,41.116253,69,48,0
41.116253,41.324516,74,48,0
41.724514,41.924515,62,53,0
41.924515,42.12448,65,56,0
42.12448,42.300953,71,60,0
42.32056,42.51664,62,46,0
42.51664,42.71272,65,45,0
42.71272,42.90883,71,45,0
43.30883,43.50883,62,53,0
43.50883,43.708797,65,56,0
43.708797,43.88527,71,58,0
43.904877,44.100956,62,47,0
44.100956,44.29711,65,45,0
44.29711,44.502544,71,45,0
44.902546,45.102535,60,53,0
45.102535,45.301167,67,56,0
45.301167,45.47536,72,60,0
45.494717,45.688263,60,46,0
45.688263,45.881813,67,45,0
45.881813,46.0754,72,45,0
46.472755,46.67143,60,53,0
46.67143,46.87007,67,56,0
46.87007,47.0454,72,58,0
47.064877,47.25968,60,47,0
47.25968,47.454624,67,45,0
47.454624,47.66581,72,45,0
48.068497,48.269836,57,50,0
48.269836,48.471134,60,53,0
48.471134,48.647606,65,56,0
48.667213,48.863293,57,45,0
48.863293,49.059372,60,42,0
49.059372,49.255493,65,42,0
49.658176,49.85952,57,50,0
49.85952,50.06083,60,53,0
50.06083,50.23846,65,55,0
50.258198,50.455566,57,45,0
50.455566,50.653065,60,43,0
50.653065,50.865734,65,43,0
51.268417,51.46976,57,50,0
51.46976,51.67107,60,53,0
51.67107,51.8487,65,56,0
51.86844,52.065807,57,45,0
52.065807,52.26329,60,42,0
52.26329,52.474476,65,42,0
52.87716,53.078503,57,50,0
53.078503,53.279823,60,53,0
53.279823,53.45863,65,55,0
53.4785,53.677174,57,45,0
53.677174,53.875965,60,43,0
53.875965,54.08864,65,43,0
54.49132,54.692665,55,50,0
54.692665,54.894005,59,53,0
54.894005,55.075214,65,56,0
55.09535,55.29669,55,45,0
55.29669,55.49803,59,42,0
55.49803,55.699375,65,42,0
56.10206,56.303402,55,50,0
56.303402,56.504745,59,53,0
56.504745,56.68595,65,55,0
56.706085,56.90743,55,45,0
56.90743,57.108772,59,43,0
57.108772,57.31016,65,43,0
57.723953,57.9308,55,50,0
57.9308,58.132145,60,53,0
58.132145,58.313354,64,56,0
58.33349,58.53483,55,45,0
58.53483,58.73617,60,42,0
58.73617,58.93755,64,42,0
59.348507,59.553944,55,50,0
59.553944,59.75394,60,53,0
59.75394,59.93394,64,55,0
59.95394,60.153942,55,45,0
60.153942,60.353943,60,43,0
60.353943,60.553944,64,43,0
60.95394,61.153942,58,47,0
61.153942,61.353897,60,50,0
61.353897,61.529224,64,53,0
61.548737,61.74741,58,41,0
61.74741,61.946087,60,40,0
61.946087,62.144775,64,40,0
62.544773,62.744774,58,47,0
62.744774,62.94473,60,50,0
62.94473,63.120056,64,52,0
63.13958,63.33958,58,42,0
63.33958,63.539738,60,40,0
63.539738,63.758556,64,40,0
64.158554,64.35856,57,47,0
64.35856,64.558525,60,50,0
64.558525,64.73499,64,53,0
64.7546,64.95068,57,41,0
64.95068,65.14676,60,40,0
65.14676,65.34287,64,40,0
65.742874,65.94287,57,47,0
65.94287,66.142845,60,50,0
66.142845,66.32048,64,52,0
66.34022,66.53758,57,42,0
66.53758,66.73511,60,40,0
66.73511,66.950836,64,40,0
67.359,67.56308,57,50,0
67.56308,67.76714,60,53,0
67.76714,67.94835,63,56,0
67.96848,68.16982,57,45,0
68.16982,68.37117,60,42,0
68.37117,68.57253,63,42,0
68.9807,69.18478,57,50,0
69.18478,69.388824,60,53,0
69.388824,69.568825,63,55,0
69.58883,69.788826,57,45,0
69.788826,69.98911,60,43,0
69.98911,70.22318,63,43,0
70.61792,70.815285,59,47,0
70.815285,71.01266,60,50,0
71.01266,71.190285,62,53,0
71.20998,71.40229,59,41,0
71.40229,71.5947,60,40,0
71.5947,71.80012,62,40,0
72.194855,72.39222,59,47,0
72.39222,72.58959,60,50,0
72.58959,72.76722,62,52,0
72.78693,72.98048,59,42,0
72.98048,73.17411,60,40,0
73.17411,73.3782,62,40,0
73.786354,73.99039,55,50,0
73.99039,74.18775,59,53,0
74.18775,74.36539,62,56,0
74.385124,74.58249,55,45,0
74.58249,74.779854,59,42,0
74.779854,74.97727,62,42,0
75.382675,75.585335,55,50,0
75.585335,75.7827,59,53,0
75.7827,75.960335,62,55,0
75.98007,76.17744,55,45,0
76.17744,76.3749,59,43,0
76.3749,76.583176,62,43,0
76.98586,77.1872,55,50,0
77.1872,77.38851,60,53,0
77.38851,77.56614,64,56,0
77.58588,77.78325,55,45,0
77.78325,77.98061,60,42,0
77.98061,78.17802,64,42,0
78.5807,78.78204,55,50,0
78.78204,78.983345,60,53,0
78.983345,79.15981,64,55,0
79.17942,79.3755,55,45,0
79.3755,79.57158,60,43,0
79.57158,79.76767,64,43,0
80.16241,80.35977,55,53,0
80.35977,80.5571,60,56,0
80.5571,80.73018,65,60,0
80.749405,80.94171,55,46,0
80.94171,81.13412,60,45,0
81.13412,81.33819,65,45,0
81.73953,81.93821,55,53,0
81.93821,82.13683,60,56,0
82.13683,82.30991,65,58,0
82.32914,82.52147,55,47,0
82.52147,82.716354,60,45,0
82.716354,82.92039,65,45,0
83.31774,83.51642,55,53,0
83.51642,83.71506,59,56,0
83.71506,83.89038,65,60,0
83.90987,84.10467,55,46,0
84.10467,84.29948,59,45,0
84.29948,84.49431,65,45,0
84.89166,85.09034,55,53,0
85.09034,85.28898,59,56,0
85.28898,85.46431,65,58,0
85.48379,85.67859,55,47,0
85.67859,85.87349,59,45,0
85.87349,86.07891,65,45,0
86.47626,86.674934,57,56,0
86.674934,86.87361,60,60,0
86.87361,87.05242,66,63,0
87.072334,87.27641,57,50,0
87.27641,87.4805,60,47,0
87.4805,87.68453,66,47,0
88.08189,88.280556,57,56,0
88.280556,88.47923,60,60,0
88.47923,88.65804,66,62,0
88.67796,88.883446,57,50,0
88.883446,89.08903,60,48,0
89.08903,89.30639,66,48,0
89.73496,89.94913,55,58,0
89.94913,90.14913,60,63,0
90.14913,90.329124,67,66,0
90.34913,90.549126,55,51,0
90.549126,90.74913,60,50,0
90.74913,90.94921,67,50,0
91.36879,91.5785,55,58,0
91.5785,91.778496,60,62,0
91.778496,91.958496,67,65,0
91.9785,92.1785,55,52,0
92.1785,92.37862,60,50,0
92.37862,92.59278,67,50,0
92.99278,93.19279,55,50,0
93.19279,93.392784,60,53,0
93.392784,93.572784,65,56,0
93.59275,93.78883,55,45,0
93.78883,93.98491,60,42,0
93.98491,94.18102,65,42,0
94.58102,94.78102,55,50,0
94.78102,94.98102,60,53,0
94.98102,95.16102,65,55,0
95.180984,95.37707,55,45,0
95.37707,95.57314,60,43,0
95.57314,95.76936,65,43,0
96.18202,96.38202,55,50,0
96.38202,96.58202,59,53,0
96.58202,96.762024,65,56,0
96.78202,96.982025,55,45,0
96.982025,97.18202,59,42,0
97.18202,97.3821,65,42,0
97.79317,97.99451,55,50,0
97.99451,98.19585,59,53,0
98.19585,98.37706,65,55,0
98.397194,98.59853,55,45,0
98.59853,98.79987,59,43,0
98.79987,99.00124,65,43,0
99.40941,99.61349,55,53,0
99.61349,99.81754,58,56,0
99.81754,99.99876,64,60,0
100.01889,100.22023,55,46,0
100.22023,100.42167,58,45,0
100.42167,100.63436,64,45,0
101.04253,101.246605,55,53,0
101.246605,101.45067,58,56,0
101.45067,101.631874,64,58,0
101.65201,101.85335,55,47,0
101.85335,102.05476,58,45,0
102.05476,102.2645,64,45,0
102.67097,102.87505,53,50,0
102.87505,103.07372,57,53,0
103.07372,103.2733,60,55,0
103.2733,103.47739,65,53,0
103.47739,103.681465,60,53,0
103.681465,103.885544,57,53,0
103.885544,104.08292,60,55,0
104.08292,104.286995,57,50,0
104.286995,104.49108,53,47,0
104.49108,104.69516,57,46,0
104.69516,104.906425,53,46,0
104.906425,105.1177,50,42,0
105.1177,105.34326,53,43,0
105.34326,105.59536,50,38,0
106.0179,106.229164,67,50,0
106.229164,106.44043,71,53,0
106.44043,106.651695,74,55,0
106.651695,106.86297,77,60,0
106.86297,107.074234,74,55,0
107.074234,107.2855,71,53,0
107.2855,107.52172,74,56,0
107.52172,107.75794,71,53,0
107.75794,107.99416,67,56,0
107.99416,108.230385,71,53,0
108.230385,108.51399,62,55,0
108.51399,108.82189,65,50,0
108.82189,109.15926,64,50,0
109.15926,109.63546,62,50,0
109.63943,115.353714,64,50,0
109.63943,115.353714,67,50,0
109.63943,115.353714,72,50,0
0.20439194,1.6192839,64,57,0
0.0016891896,1.6192839,60,61,0
1.8219867,3.2327976,64,57,0
1.6192839,3.2327976,60,62,0
3.4355004,4.8226542,62,60,0
3.2327976,4.8226542,60,65,0
5.0213294,6.3956947,62,60,0
4.8226542,6.3956947,60,65,0
6.5970373,7.9664426,62,60,0
6.3956947,7.9664426,59,65,0
8.167785,9.561746,62,60,0
7.9664426,9.561746,59,65,0
9.759114,11.141122,64,57,0
9.561746,11.141122,60,61,0
11.33849,12.715054,64,57,0
11.141122,12.715054,60,62,0
12.917756,14.301073,64,62,0
12.715054,14.301073,60,67,0
14.503776,15.891012,64,62,0
14.301073,15.891012,60,68,0
16.08709,17.450869,62,57,0
15.891012,17.450869,60,61,0
17.65221,19.047539,62,57,0
17.450869,19.047539,60,62,0
19.247538,20.626965,62,60,0
19.047539,20.626965,59,65,0
20.826965,22.208067,62,60,0
20.626965,22.208067,59,65,0
22.409409,23.79674,60,57,0
22.208067,23.79674,59,61,0
23.992819,25.368607,60,57,0
23.79674,25.368607,59,62,0
25.565975,26.963568,60,57,0
25.368607,26.963568,57,61,0
27.162243,28.584131,60,57,0
26.963568,28.584131,57,62,0
28.788214,30.196377,57,57,0
28.584131,30.196377,50,61,0
30.40046,31.810175,57,57,0
30.196377,31.810175,50,62,0
32.00885,33.38919,59,55,0
31.810175,33.38919,55,57,0
33.587868,34.969696,59,55,0
33.38919,34.969696,55,58,0
35.168373,36.55571,58,55,0
34.969696,36.55571,55,57,0
36.754387,38.14464,58,55,0
36.55571,38.14464,55,58,0
38.352894,39.733234,57,57,0
38.14464,39.733234,53,61,0
39.931908,41.324516,57,57,0
39.733234,41.324516,53,62,0
41.524517,42.90883,56,55,0
41.324516,42.90883,53,57,0
43.10883,44.502544,56,55,0
42.90883,44.502544,53,58,0
44.702545,46.0754,55,55,0
44.502544,46.0754,52,57,0
46.27408,47.66581,55,55,0
46.0754,47.66581,52,58,0
47.867153,49.255493,53,51,0
47.66581,49.255493,52,55,0
49.456837,50.865734,53,51,0
49.255493,50.865734,52,55,0
51.067078,52.474476,53,51,0
50.865734,52.474476,50,55,0
52.67582,54.08864,53,51,0
52.474476,54.08864,50,55,0
54.28998,55.699375,50,51,0
54.08864,55.699375,43,55,0
55.90072,57.31016,50,51,0
55.699375,57.31016,43,55,0
57.517056,58.93755,52,51,0
57.31016,58.93755,48,55,0
59.14303,60.553944,52,51,0
58.93755,60.553944,48,55,0
60.75394,62.144775,55,48,0
60.553944,62.144775,48,51,0
62.344772,63.758556,55,48,0
62.144775,63.758556,48,52,0
63.958557,65.34287,53,48,0
63.758556,65.34287,41,51,0
65.54287,66.950836,53,48,0
65.34287,66.950836,41,52,0
67.15492,68.57253,48,51,0
66.950836,68.57253,42,55,0
68.77662,70.22318,48,51,0
68.57253,70.22318,42,55,0
70.42055,71.80012,53,48,0
70.22318,71.80012,44,51,0
71.99748,73.3782,53,48,0
71.80012,73.3782,44,52,0
73.582275,74.97727,53,51,0
73.3782,74.97727,43,55,0
75.17997,76.583176,53,51,0
74.97727,76.583176,43,55,0
76.784515,78.17802,52,51,0
76.583176,78.17802,43,55,0
78.37936,79.76767,52,51,0
78.17802,79.76767,43,55,0
79.965034,81.33819,50,55,0
79.76767,81.33819,43,57,0
81.54086,82.92039,50,55,0
81.33819,82.92039,43,58,0
83.119064,84.49431,50,55,0
82.92039,84.49431,43,57,0
84.692986,86.07891,50,55,0
84.49431,86.07891,43,58,0
86.27759,87.68453,51,57,0
86.07891,87.68453,43,61,0
87.88321,89.30639,51,57,0
87.68453,89.30639,43,62,0
89.520676,90.94921,52,60,0
89.30639,90.94921,43,65,0
91.159,92.59278,52,60,0
90.94921,92.59278,43,65,0
92.792786,94.18102,50,51,0
92.59278,94.18102,43,55,0
94.38102,95.76936,50,51,0
94.18102,95.76936,43,55,0
95.982025,97.3821,50,51,0
95.76936,97.3821,43,55,0
97.59182,99.00124,50,51,0
97.3821,99.00124,43,55,0
99.20532,100.63436,48,55,0
99.00124,100.63436,36,57,0
100.83844,102.2645,48,55,0
100.63436,102.2645,36,58,0
102.46689,105.59536,48,51,0
102.2645,105.59712,36,55,0
105.806625,109.63546,50,51,0
105.59712,109.63943,36,55,0
109.63943,115.353714,48,53,0
109.63943,115.353714,36,53,0
123.458786,123.93123,67,53,0
123.93123,124.40367,69,54,0
124.40367,124.89147,71,55,0
124.89147,125.600136,72,60,0
125.600136,125.712074,74,57,0
125.712074,125.82401,72,57,0
125.82401,126.25709,71,57,0
126.296455,126.7689,76,60,0
126.7689,127.21245,69,56,0
127.25277,127.955894,74,60,0
127.955894,128.19026,76,57,0
128.19026,128.42464,74,57,0
128.42464,128.65901,72,56,0
128.65901,128.83902,71,55,0
128.89902,129.13902,67,55,0
129.13902,129.37524,69,56,0
129.37524,129.61147,71,57,0
129.61147,129.84584,72,57,0
129.84584,130.08022,71,53,0
130.08022,130.31459,72,54,0
130.31459,130.54897,74,55,0
130.54897,130.78334,76,56,0
130.78334,131.01772,74,57,0
131.01772,131.26161,76,58,0
131.26161,131.48384,78,59,0
131.48384,131.95259,79,60,0
131.95259,132.42134,71,56,0
132.42134,132.86848,72,60,0
132.90913,133.37788,69,55,0
133.37788,133.61226,74,58,0
133.61226,133.84663,72,57,0
133.84663,134.08101,71,56,0
134.08101,134.31538,69,55,0
134.31538,135.02608,67,54,0
135.02608,135.268,67,56,0
135.268,135.50238,65,55,0
135.50238,135.73676,64,55,0
135.73676,135.97113,65,55,0
135.97113,136.2055,67,55,0
136.2055,136.43988,69,55,0
136.43988,136.67426,67,56,0
136.67426,136.90863,69,55,0
136.90863,137.12761,71,57,0
137.12761,139.02881,72,59,0
139.02881,139.95238,71,57,0
140.42482,140.89726,72,60,0
140.89726,141.3697,74,63,0
141.3697,141.85358,76,64,0
141.85358,142.56223,77,69,0
142.56223,142.67418,79,66,0
142.67418,142.78612,77,66,0
142.78612,143.2158,76,66,0
143.25487,143.72362,81,69,0
143.72362,144.1659,74,64,0
144.20622,144.91489,79,69,0
144.91489,145.15111,81,67,0
145.15111,145.37837,79,66,0
145.37837,145.60565,77,64,0
145.60565,146.05281,76,63,0
146.09346,146.80212,81,70,0
146.80212,147.03833,83,68,0
147.03833,147.26561,81,67,0
147.26561,147.50755,79,66,0
147.50755,149.39731,77,65,0
149.39731,150.10597,76,60,0
150.10597,150.32985,78,57,0
150.32985,152.22945,79,63,0
152.22945,153.14499,78,63,0
153.14499,153.37227,79,60,0
153.37227,153.60127,77,59,0
153.60127,153.83205,76,58,0
153.83205,154.0646,74,57,0
154.0646,154.29898,72,56,0
154.29898,154.53336,74,57,0
154.53336,154.77335,72,57,0
154.77335,155.01335,71,57,0
155.01335,155.24773,69,57,0
155.24773,155.4821,72,58,0
155.4821,155.71648,71,58,0
155.71648,155.94035,69,57,0
157.10008,157.33446,72,58,0
157.56883,157.8032,69,55,0
157.8032,158.16905,68,54,0
158.29102,158.75977,76,60,0
158.75977,159.22852,74,58,0
159.22852,159.47044,72,56,0
159.47044,159.71239,71,56,0
159.71239,159.9486,69,54,0
159.9486,160.18481,68,54,0
160.18481,160.42104,69,54,0
160.42104,160.65726,71,53,0
160.65726,160.83443,72,56,0
160.89348,161.1297,66,54,0
161.1297,161.36592,69,54,0
161.36592,161.5898,68,55,0
161.5898,162.05855,71,58,0
162.05855,162.29292,69,56,0
162.29292,162.5273,71,56,0
162.5273,162.97446,72,58,0
163.0151,163.48386,77,64,0
163.48386,163.9526,76,62,0
163.9526,164.8901,74,60,0
164.8901,165.13829,72,58,0
165.13829,165.38647,71,58,0
165.38647,165.48517,71,60,0
165.48517,165.58388,72,55,0
165.58388,166.17609,71,60,0
166.17609,166.43929,69,57,0
166.43929,167.40067,69,60,0
172.66895,173.14513,67,53,0
173.14513,173.62132,69,54,0
173.62132,174.11313,71,55,0
174.11313,174.82741,72,60,0
174.82741,174.94104,74,57,0
174.94104,175.05469,72,57,0
175.05469,175.50183,71,57,0
175.54248,176.01868,72,53,0
176.01868,176.49487,74,56,0
176.49487,176.98296,76,59,0
176.98296,177.69725,77,64,0
177.69725,177.81175,79,60,0
177.81175,177.92625,77,60,0
177.92625,178.37341,76,60,0
178.41406,178.89026,81,68,0
178.89026,179.32677,74,60,0
179.36644,180.08073,79,66,0
180.08073,180.31882,81,66,0
180.31882,180.5461,79,64,0
180.5461,180.77336,77,63,0
180.77336,181.20987,76,61,0
181.24956,181.72575,81,67,0
181.72575,182.17657,74,60,0
182.21756,182.70935,82,67,0
182.70935,183.18555,81,67,0
183.18555,183.41455,79,64,0
183.41455,183.64357,77,61,0
183.64357,183.88165,79,64,0
183.88165,184.11975,77,61,0
184.11975,184.35785,79,64,0
184.35785,184.59595,76,60,0
184.59595,184.83405,77,64,0
184.83405,185.07213,79,60,0
185.07213,185.13412,79,64,0
185.13412,185.1961,81,55,0
185.1961,185.25809,79,55,0
185.32007,185.44403,77,60,0
185.44403,185.56801,79,60,0
185.56801,185.74657,81,67,0
185.80609,186.04419,73,60,0
186.04419,186.28229,74,60,0
186.28229,186.53023,79,60,0
186.53023,186.6232,76,64,0
186.6232,186.71617,77,55,0
186.71617,187.27402,76,60,0
187.27402,187.52196,74,60,0
187.52196,188.01782,74,61,0
192.8488,193.32881,67,51,0
193.32881,193.8088,69,53,0
193.8088,194.3009,71,55,0
194.3009,195.0209,72,60,0
195.0209,195.14091,74,58,0
195.14091,195.26091,72,58,0
195.26091,195.7231,71,58,0
195.7651,196.2413,76,60,0
196.2413,196.67781,69,57,0
196.71748,197.43178,74,60,0
197.43178,197.66988,76,60,0
197.66988,197.89888,74,57,0
197.89888,198.12788,72,56,0
198.12788,198.36598,71,55,0
198.36598,198.60408,72,55,0
198.60408,198.84998,74,57,0
198.84998,199.09589,76,59,0
199.09589,199.34178,77,61,0
199.34178,199.58768,79,61,0
199.58768,199.83359,81,61,0
199.83359,200.07948,79,60,0
200.07948,200.3254,77,60,0
200.3254,200.57129,76,59,0
200.57129,200.8113,74,59,0
200.8113,201.05128,72,58,0
201.05128,202.0269,71,58,0
202.0269,202.51471,72,57,0
202.51471,203.00252,74,57,0
203.00252,203.46501,67,58,0
203.50705,204.62729,72,60,0
204.62729,205.18741,71,57,0
205.18741,206.24022,72,60,0
206.24022,206.76663,71,67,0
206.76663,207.29305,70,67,0
207.29305,207.81946,69,66,0
207.81946,208.87614,74,72,0
208.87614,209.40245,72,67,0
209.40245,209.92877,74,67,0
209.92877,210.45865,76,70,0
210.45865,211.77444,77,74,0
211.77444,212.04701,81,69,0
212.04701,212.3196,79,69,0
212.3196,212.59218,77,68,0
212.59218,212.86476,76,67,0
212.86476,213.13733,77,69,0
213.13733,213.40991,76,68,0
213.40991,213.6825,74,67,0
213.6825,215.91345,72,70,0
216.20146,216.33661,67,56,0
216.33661,216.47174,69,57,0
216.47174,216.7602,71,57,0
216.7602,217.04866,72,59,0
217.04866,217.33713,74,60,0
217.33713,217.62558,76,62,0
217.62558,218.33351,77,63,0
218.33351,218.47774,72,55,0
218.47774,218.62196,74,57,0
218.62196,218.7662,76,58,0
218.7662,219.05466,77,59,0
219.05466,219.34312,79,62,0
219.34312,220.46793,81,65,0
220.46793,221.03354,83,64,0
221.03354,225.55843,84,56,0
221.03354,225.55843,79,52,0
117.7352,118.21589,60,53,0
118.21589,118.69658,62,54,0
118.69658,119.17728,64,56,0
119.17728,119.89727,65,60,0
119.89727,120.00922,67,58,0
120.00922,120.121155,65,58,0
120.121155,120.55766,64,60,0
120.59734,121.07353,69,60,0
121.07353,121.52069,62,56,0
121.56134,122.270004,67,60,0
122.270004,122.506226,69,59,0
122.506226,122.74244,67,59,0
122.74244,122.97866,65,59,0
122.97866,123.21488,64,58,0
123.21488,123.458786,65,58,0
123.458786,123.69501,64,58,0
123.69501,123.93123,62,57,0
123.93123,124.16745,60,57,0
124.16745,124.40367,62,56,0
124.40367,124.64757,60,56,0
124.64757,124.89147,59,56,0
124.89147,125.363914,57,56,0
125.363914,125.82401,66,56,0
125.82401,127.25277,67,60,0
127.25277,127.487144,66,57,0
127.487144,127.72152,64,57,0
127.72152,128.1512,66,57,0
128.19026,128.65901,62,57,0
128.65901,129.13902,67,59,0
129.13902,129.61147,65,58,0
129.61147,130.08022,64,57,0
130.08022,130.54897,62,56,0
130.54897,131.01772,60,55,0
131.95259,132.90913,67,60,0
132.90913,133.14351,65,58,0
133.14351,133.37788,64,58,0
133.37788,134.54976,65,58,0
134.54976,134.78413,65,57,0
134.78413,135.268,64,57,0
135.268,136.2055,62,57,0
136.2055,136.67426,60,56,0
136.67426,137.12761,65,60,0
137.36383,137.60005,67,57,0
137.60005,137.83627,65,57,0
137.83627,138.0725,64,57,0
138.0725,138.51604,65,57,0
138.55637,139.02881,62,56,0
139.02881,140.89726,67,62,0
147.97998,148.45242,67,51,0
148.45242,148.92487,69,53,0
148.92487,149.39731,71,56,0
149.39731,150.10597,72,60,0
150.10597,150.21791,74,57,0
150.21791,150.32985,72,57,0
150.32985,150.76292,71,57,0
150.80229,151.27289,76,60,0
151.27289,151.72005,69,56,0
151.7607,152.45529,74,60,0
152.45529,152.68314,76,57,0
152.68314,152.91302,74,56,0
152.91302,153.14499,72,55,0
153.14499,153.60127,71,54,0
154.53336,155.01335,62,51,0
155.01335,155.4821,64,52,0
155.4821,155.94035,66,54,0
155.94035,156.64348,67,60,0
156.64348,156.7546,69,58,0
156.7546,156.8657,67,58,0
156.8657,157.2954,66,58,0
157.33446,157.8032,71,60,0
157.8032,158.25037,64,57,0
158.29102,158.99414,69,60,0
158.99414,159.22852,71,58,0
159.22852,159.47044,69,58,0
159.47044,159.71239,67,58,0
159.71239,160.18481,66,58,0
160.18481,160.65726,65,57,0
160.65726,161.1297,64,55,0
161.1297,161.82417,62,54,0
161.82417,162.05855,64,54,0
162.05855,162.29292,66,55,0
162.29292,162.5273,68,55,0
162.5273,162.77121,69,57,0
162.77121,163.0151,68,56,0
163.0151,163.24948,69,56,0
163.24948,163.48386,71,56,0
163.48386,163.71823,68,58,0
163.71823,163.9526,66,55,0
163.9526,164.18698,68,55,0
164.18698,164.42136,69,55,0
164.42136,164.8901,71,59,0
166.91998,167.40067,60,53,0
167.40067,167.88136,62,54,0
167.88136,168.38556,64,55,0
168.38556,169.10556,65,60,0
169.10556,169.2192,67,58,0
169.2192,169.33284,65,58,0
169.33284,169.76935,64,58,0
169.80902,170.28522,69,60,0
170.28522,170.73238,62,56,0
170.77303,171.4873,67,60,0
171.4873,171.71808,69,57,0
171.71808,171.94885,67,57,0
171.94885,172.19275,65,57,0
172.19275,172.62926,64,57,0
172.66895,173.14513,64,56,0
173.14513,173.62132,66,56,0
173.62132,174.47026,67,60,0
174.58931,175.05469,66,58,0
175.05469,175.54248,68,58,0
175.54248,176.49487,69,61,0
176.49487,176.98296,67,57,0
176.98296,177.45915,69,57,0
177.45915,177.92625,71,57,0
177.92625,178.65216,72,60,0
178.65216,178.77121,74,58,0
178.77121,178.89026,72,58,0
178.89026,179.32677,71,58,0
179.36644,179.84264,76,60,0
179.84264,180.27914,69,58,0
180.31882,181.01146,74,60,0
181.01146,181.24956,76,57,0
181.24956,181.48766,74,56,0
181.48766,181.72575,72,55,0
181.72575,182.17657,71,54,0
182.21756,182.70935,79,65,0
182.70935,183.18555,73,58,0
183.18555,183.64357,74,58,0
183.64357,184.08008,76,60,0
184.11975,184.59595,73,56,0
184.59595,185.07213,74,56,0
185.07213,185.56801,76,56,0
185.56801,186.04419,69,58,0
187.0261,187.52196,64,52,0
187.52196,188.01782,66,53,0
188.01782,188.51369,67,55,0
188.51369,189.23369,69,60,0
189.23369,189.3537,71,58,0
189.3537,189.4737,69,58,0
189.4737,189.9137,67,58,0
189.95369,190.4337,72,60,0
190.4337,190.6697,66,55,0
190.93231,191.65813,71,60,0
191.65813,191.90005,72,57,0
191.90005,192.13443,71,57,0
192.13443,192.3688,69,56,0
192.3688,192.60881,67,56,0
192.60881,192.8488,66,55,0
192.8488,193.0888,64,54,0
193.0888,193.32881,62,54,0
193.32881,194.3009,64,57,0
194.3009,195.51302,62,58,0
195.51302,195.7651,69,57,0
195.7651,196.0032,67,57,0
196.0032,196.2413,65,56,0
196.2413,196.4794,64,56,0
196.4794,196.71748,67,60,0
196.71748,196.95558,65,56,0
196.95558,197.19368,69,56,0
197.19368,198.36598,67,58,0
198.36598,198.60408,69,56,0
198.60408,199.09589,70,56,0
199.09589,200.07948,72,54,0
200.07948,200.5303,74,60,0
200.57129,201.05128,67,57,0
201.05128,202.51471,67,60,0
202.51471,203.50705,65,57,0
203.50705,204.06717,64,57,0
204.06717,205.18741,62,57,0
205.18741,205.66995,64,56,0
205.71382,206.76663,69,68,0
206.76663,207.81946,67,56,0
207.81946,208.34982,65,56,0
208.34982,208.87614,67,57,0
208.87614,209.40245,69,57,0
209.40245,210.18088,70,60,0
210.18088,210.31976,72,57,0
210.31976,210.45865,70,57,0
210.45865,210.9411,69,57,0
210.98497,211.51128,74,60,0
211.51128,212.00159,67,55,0
212.04701,212.86476,72,60,0
212.86476,213.13733,74,62,0
213.13733,213.40991,72,62,0
213.40991,213.6825,70,62,0
213.6825,213.95506,69,61,0
213.95506,214.22928,70,61,0
214.22928,214.50514,69,61,0
214.50514,214.78265,67,60,0
214.78265,215.06271,65,60,0
215.06271,215.34454,67,60,0
215.34454,215.62811,65,59,0
215.62811,215.91345,64,59,0
215.91345,217.91405,62,59,0
217.91405,218.18927,67,57,0
218.18927,219.34312,69,60,0
219.67491,220.07141,77,57,0
220.07141,221.03354,74,57,0
221.03354,225.55843,76,48,0
129.13902,129.61147,55,50,0
129.61147,130.08022,57,52,0
130.08022,130.54897,59,55,0
130.54897,131.26161,60,60,0
131.26161,131.37273,62,57,0
131.37273,131.48384,60,57,0
131.48384,131.91353,59,57,0
131.95259,132.42134,64,60,0
132.42134,132.86848,57,56,0
132.90913,133.61226,62,60,0
133.61226,133.84663,64,58,0
133.84663,134.08101,62,57,0
134.08101,134.31538,60,56,0
134.31538,134.74507,59,55,0
134.78413,135.73676,60,60,0
135.73676,136.2055,58,58,0
136.2055,136.6352,57,56,0
136.67426,137.12761,62,60,0
137.12761,137.56068,55,56,0
137.60005,138.0725,60,60,0
138.31444,138.55637,57,55,0
138.55637,138.79259,59,56,0
138.79259,139.02881,60,58,0
139.02881,139.95238,62,59,0
139.95238,140.89726,55,60,0
141.3697,141.85358,55,53,0
141.85358,142.326,57,54,0
142.326,142.78612,59,55,0
142.78612,143.48924,60,60,0
143.48924,143.60643,62,58,0
143.60643,143.72362,60,58,0
143.72362,144.1659,59,58,0
144.20622,144.67867,64,60,0
144.67867,145.11174,57,56,0
145.15111,145.84955,62,60,0
145.84955,146.09346,64,57,0
146.09346,146.32968,62,56,0
146.32968,146.5659,60,56,0
146.5659,147.03833,59,55,0
147.03833,148.45242,64,60,0
148.45242,149.39731,62,60,0
149.63353,149.86975,59,58,0
149.86975,150.10597,60,60,0
150.10597,150.27388,57,57,0
150.32985,150.56607,64,58,0
150.56607,150.80229,62,58,0
150.80229,151.03851,60,57,0
151.03851,151.27289,59,57,0
151.27289,151.45581,60,60,0
151.51678,151.7607,57,54,0
151.7607,151.99507,59,56,0
151.99507,152.22945,60,58,0
152.22945,152.45529,62,60,0
152.45529,152.68314,60,59,0
152.68314,152.91302,59,58,0
152.91302,153.14499,57,57,0
153.14499,154.0646,55,56,0
159.22852,159.71239,52,52,0
159.71239,160.18481,54,54,0
160.18481,160.65726,56,56,0
160.65726,161.36592,57,60,0
161.36592,161.47786,59,57,0
161.47786,161.5898,57,57,0
161.5898,162.01949,56,57,0
162.05855,162.5273,60,60,0
162.5273,162.97446,54,56,0
163.0151,163.71823,59,60,0
163.71823,163.9526,60,60,0
163.9526,164.18698,59,59,0
164.18698,164.42136,57,57,0
164.42136,164.85104,56,56,0
164.8901,165.91287,57,59,0
165.91287,166.43929,56,57,0
166.43929,167.40067,57,60,0
167.88136,168.38556,55,52,0
168.38556,168.86557,57,54,0
168.86557,169.33284,59,56,0
169.33284,170.04712,60,60,0
170.04712,170.16617,62,57,0
170.16617,170.28522,60,57,0
170.28522,170.73238,59,57,0
170.77303,171.2492,64,60,0
171.2492,171.67961,57,55,0
171.71808,172.66895,62,60,0
172.66895,173.14513,55,57,0
173.14513,174.11313,62,60,0
174.11313,174.54964,60,57,0
174.58931,175.05469,57,57,0
175.05469,176.01868,64,60,0
176.01868,176.49487,62,57,0
178.41406,178.89026,57,51,0
178.89026,179.36644,59,53,0
179.36644,179.84264,61,55,0
179.84264,180.5461,62,60,0
180.5461,180.65973,64,58,0
180.65973,180.77336,62,58,0
180.77336,181.20987,60,58,0
181.24956,181.72575,65,60,0
181.72575,182.17657,59,54,0
182.21756,182.94745,64,60,0
182.94745,183.18555,65,61,0
183.18555,183.41455,64,59,0
183.41455,183.64357,62,58,0
183.64357,184.11975,61,56,0
186.04419,186.53023,57,53,0
186.53023,187.0261,59,54,0
187.0261,187.52196,61,55,0
187.52196,188.26576,62,60,0
188.26576,188.38972,64,57,0
188.38972,188.51369,62,57,0
188.51369,188.95369,60,57,0
188.9937,189.4737,66,60,0
189.4737,189.9137,59,54,0
189.95369,190.67369,64,60,0
190.67369,190.93231,66,63,0
190.93231,191.17426,64,63,0
191.17426,191.41618,62,62,0
191.41618,193.5688,60,60,0
193.5688,193.8088,62,60,0
193.8088,194.04881,60,59,0
194.04881,194.3009,59,58,0
194.3009,194.54091,57,57,0
194.54091,194.78091,55,56,0
194.78091,194.9609,57,58,0
195.0209,195.26091,54,54,0
195.26091,195.7231,55,54,0
195.7651,196.2413,59,57,0
196.2413,196.71748,60,60,0
196.71748,197.19368,62,63,0
197.19368,197.89888,64,66,0
197.89888,198.01338,65,60,0
198.01338,198.12788,64,60,0
198.12788,198.56439,62,60,0
198.60408,199.09589,67,65,0
199.09589,199.5467,60,58,0
199.58768,200.3254,65,66,0
200.3254,200.57129,67,62,0
200.57129,200.8113,65,60,0
200.8113,201.05128,64,58,0
201.05128,202.0269,62,57,0
202.0269,202.51471,64,60,0
202.51471,203.50705,62,60,0
203.50705,204.06717,55,58,0
204.06717,205.66995,55,61,0
205.71382,206.24022,48,51,0
206.24022,206.76663,50,53,0
206.76663,207.29305,52,55,0
207.29305,208.06946,53,60,0
208.06946,208.20964,55,56,0
208.20964,208.34982,53,56,0
208.34982,208.83228,52,57,0
208.87614,209.40245,57,60,0
209.40245,209.88492,50,55,0
209.92877,210.7218,55,60,0
210.7218,210.98497,57,58,0
210.98497,211.24812,55,58,0
211.24812,211.51128,53,57,0
211.51128,211.70865,52,57,0
211.77444,212.04701,50,56,0
212.04701,212.3196,52,56,0
212.3196,212.59218,53,56,0
212.59218,212.86476,55,57,0
212.86476,213.13733,57,59,0
213.13733,213.34177,58,63,0
213.40991,213.6825,55,60,0
213.6825,213.88692,57,60,0
213.95506,214.22928,52,63,0
214.22928,214.50514,53,55,0
214.50514,214.78265,55,57,0
214.78265,215.06271,57,59,0
215.06271,215.34454,59,60,0
215.34454,215.55678,60,62,0
215.62811,215.91345,57,58,0
215.91345,218.18927,59,62,0
218.18927,225.55843,60,60,0
134.78413,135.268,48,51,0
135.268,135.73676,50,53,0
135.73676,136.2055,52,56,0
136.2055,136.90863,53,60,0
136.90863,137.01813,55,57,0
137.01813,137.12761,53,57,0
137.12761,137.56068,52,57,0
137.60005,138.0725,57,60,0
138.0725,138.51604,50,55,0
138.55637,139.26503,55,60,0
139.26503,139.50125,57,59,0
139.50125,139.7268,55,58,0
139.7268,139.95238,53,57,0
139.95238,140.12955,52,56,0
140.1886,140.42482,53,57,0
140.42482,140.66104,52,56,0
140.66104,140.89726,50,55,0
140.89726,141.07442,48,54,0
141.13348,141.3697,50,57,0
141.3697,141.61163,48,56,0
141.61163,141.85358,47,55,0
141.85358,142.28664,45,54,0
142.326,142.78612,50,57,0
142.78612,143.25487,57,60,0
143.25487,143.72362,54,57,0
143.72362,143.9643,55,58,0
143.9643,144.20622,57,58,0
144.20622,144.44244,58,60,0
144.44244,144.67867,55,58,0
144.67867,145.15111,49,56,0
145.15111,145.60565,50,57,0
145.60565,146.5659,57,58,0
146.5659,147.50755,52,56,0
147.50755,147.74376,57,56,0
147.74376,147.97998,59,57,0
147.97998,148.2162,60,58,0
148.2162,148.45242,62,59,0
148.45242,148.68864,60,60,0
148.68864,148.92487,59,57,0
148.92487,149.16109,57,56,0
149.16109,149.39731,55,55,0
149.39731,149.86975,60,60,0
153.60127,154.0646,43,54,0
154.0646,154.53336,45,55,0
154.53336,155.01335,47,55,0
155.01335,155.71648,48,60,0
155.71648,155.82841,50,58,0
155.82841,155.94035,48,58,0
155.94035,156.37004,47,58,0
156.4091,156.8657,52,60,0
156.8657,157.2954,45,55,0
157.33446,158.0471,50,60,0
158.0471,158.29102,52,60,0
158.29102,158.52539,50,58,0
158.52539,158.75977,48,57,0
158.75977,159.22852,47,55,0
160.18481,160.65726,50,58,0
160.65726,161.1297,48,58,0
161.1297,162.05855,53,60,0
162.05855,163.0151,52,58,0
163.0151,163.9526,50,57,0
163.9526,164.42136,52,57,0
164.42136,164.8901,53,60,0
164.8901,165.13829,52,55,0
165.13829,165.38647,50,55,0
165.38647,166.43929,52,58,0
166.43929,167.40067,45,61,0
170.77303,171.2492,43,52,0
171.2492,171.71808,45,53,0
171.71808,172.19275,47,55,0
172.19275,172.90703,48,60,0
172.90703,173.02608,50,57,0
173.02608,173.14513,48,57,0
173.14513,173.58163,47,57,0
173.62132,174.11313,52,60,0
174.11313,174.54964,45,56,0
174.58931,175.29858,50,60,0
175.29858,175.54248,52,61,0
175.54248,175.78058,50,60,0
175.78058,176.01868,48,59,0
176.01868,176.45518,47,58,0
176.49487,176.98296,46,57,0
176.98296,177.45915,45,57,0
177.45915,177.92625,43,56,0
177.92625,178.29211,45,56,0
178.41406,178.89026,54,60,0
178.89026,179.36644,55,60,0
179.36644,179.84264,52,57,0
179.84264,180.73549,50,57,0
180.77336,181.24956,52,56,0
181.24956,181.72575,53,56,0
181.72575,182.46346,55,60,0
182.46346,182.58641,57,57,0
182.58641,182.70935,55,57,0
182.70935,183.14586,53,57,0
183.18555,183.64357,58,60,0
183.64357,184.08008,52,55,0
184.11975,184.83405,57,60,0
184.83405,185.07213,58,58,0
185.07213,185.32007,57,58,0
185.32007,185.56801,55,57,0
185.56801,185.80609,53,58,0
185.80609,186.04419,52,55,0
186.04419,186.22276,53,58,0
186.28229,186.53023,50,55,0
186.53023,187.0261,55,59,0
187.0261,187.52196,57,59,0
187.52196,189.7137,50,56,0
189.7137,189.95369,52,57,0
189.95369,190.1937,50,57,0
190.1937,190.4337,48,56,0
190.4337,190.67369,47,56,0
190.67369,190.93231,45,55,0
190.93231,191.17426,43,55,0
191.17426,191.41618,42,54,0
191.41618,191.85974,40,54,0
191.90005,192.3688,52,52,0
192.3688,192.8488,54,54,0
192.8488,193.8088,55,56,0
193.8088,194.04881,57,60,0
194.04881,194.3009,55,58,0
194.3009,194.7409,54,60,0
194.78091,195.26091,50,57,0
195.26091,199.09589,55,59,0
199.09589,200.07948,57,52,0
200.07948,200.57129,59,57,0
200.57129,201.05128,60,57,0
201.05128,201.23422,53,58,0
201.2952,201.5391,57,60,0
201.5391,201.783,55,59,0
201.783,202.0269,53,58,0
202.0269,202.2708,52,57,0
202.2708,202.51471,50,56,0
202.51471,202.7586,48,56,0
202.7586,203.00252,47,55,0
203.00252,203.25478,48,51,0
203.25478,203.50705,50,53,0
203.50705,203.78711,52,56,0
203.78711,204.06717,53,58,0
204.62729,205.18741,43,57,0
205.18741,225.55843,48,60,0
