start_time,end_time,note_value,velocity,instrument_program_number
0.0,0.5875,69,1,40
9.6,11.9875,63,40,40
12.0,14.3875,64,45,40
14.4,16.7875,72,90,40
16.8,19.452778,71,90,40
19.466665,21.854166,80,50,40
21.866667,24.254166,81,50,40
24.266666,26.654165,83,50,40
26.666666,29.054167,84,50,40
29.066666,31.454166,84,90,40
31.466665,34.119442,83,90,40
34.13333,36.78611,75,50,40
36.8,38.284374,76,90,40
38.3,40.155468,77,100,40
40.175,40.324997,77,110,40
40.324997,40.449997,76,110,40
40.449997,40.56029,74,110,40
40.56029,40.670586,77,110,40
40.670586,40.770584,74,110,40
40.770584,40.870586,72,110,40
40.870586,40.970585,71,110,40
40.970585,41.05987,74,110,40
41.05987,41.14916,71,110,40
41.14916,41.23844,69,110,40
41.23844,41.32773,68,110,40
41.32773,41.417015,71,110,40
41.417015,41.506298,65,110,40
41.506298,41.595585,64,110,40
41.595585,41.68487,62,110,40
41.68487,41.774155,65,110,40
41.774155,41.86344,62,110,40
41.86344,41.95273,60,107,40
41.95273,42.04201,59,103,40
42.04201,42.131298,62,99,40
42.131298,42.234035,59,96,40
42.234035,42.336777,57,92,40
42.336777,42.44392,56,88,40
42.44392,42.551064,59,85,40
42.551064,42.666447,62,81,40
42.666447,42.78183,68,77,40
42.78183,42.90683,71,73,40
42.90683,43.05683,74,70,40
43.05683,43.42402,77,70,40
43.43183,43.921413,76,70,40
43.93183,47.709606,76,70,40
47.709606,48.009605,75,70,40
48.009605,48.209606,74,70,40
48.209606,48.409607,72,70,40
48.409607,48.603355,71,70,40
48.609608,49.203358,71,70,40
49.209606,49.659607,69,70,40
49.659607,49.80961,71,70,40
49.80961,50.40336,72,70,40
50.409607,50.859608,71,70,40
50.859608,51.003357,69,70,40
51.009605,51.603355,69,70,40
51.609608,52.803356,68,70,40
52.80961,53.259605,65,70,40
53.259605,53.40336,64,70,40
53.409607,54.003357,64,70,40
54.009605,54.459606,65,70,40
54.459606,54.603355,64,70,40
54.609608,55.203358,64,70,40
55.209606,55.659607,74,70,40
55.659607,55.80961,71,70,40
55.80961,56.40336,74,110,40
56.409607,57.628098,72,110,40
57.634605,58.134605,77,110,40
58.134605,58.301273,75,70,40
58.301273,58.895023,77,60,40
58.90127,60.095024,76,110,40
60.101273,60.601273,81,110,40
60.601273,60.76794,76,90,40
60.76794,61.36169,79,60,40
61.36794,62.41794,77,70,40
62.41794,62.561687,74,89,40
62.56794,63.01794,74,92,40
63.01794,63.16169,70,100,40
63.16794,63.584606,70,110,40
63.584606,63.71771,65,110,40
63.723495,64.11823,65,110,40
64.11823,64.24432,62,110,40
64.24981,64.64455,62,110,40
64.64455,64.770645,58,110,40
64.77612,65.17086,58,110,40
65.17086,65.29696,57,110,40
65.30244,65.63577,56,110,40
65.80244,66.14727,57,110,40
66.31968,66.69005,69,110,40
66.87524,67.16898,81,110,40
67.17523,67.54242,83,110,40
67.55023,68.53982,84,110,40
68.55023,69.53982,76,110,40
69.55023,70.53982,81,110,40
70.55023,71.03982,76,110,40
71.05023,71.63773,72,90,40
71.65024,71.80023,71,60,40
71.80023,71.92523,69,60,40
71.92523,72.03635,68,60,40
72.03635,72.14746,71,60,40
72.14746,72.24746,65,60,40
72.24746,72.34746,64,60,40
72.34746,72.44746,62,60,40
72.44746,72.547455,65,60,40
72.547455,72.6502,62,60,40
72.6502,72.75294,60,60,40
72.75294,72.86008,59,60,40
72.86008,72.967224,62,60,40
72.967224,73.0826,65,60,40
73.0826,73.19799,68,60,40
73.19799,73.32299,71,60,40
73.32299,73.47299,74,60,40
73.47299,75.68942,77,60,40
75.69521,77.911644,76,60,40
84.028534,84.46123,81,90,40
84.46123,84.59945,76,60,40
84.60546,85.15523,79,60,40
85.16101,85.710785,77,70,40
85.71657,86.13323,82,81,40
86.13323,86.266335,77,89,40
86.272125,86.68879,77,92,40
86.68879,86.82189,74,100,40
86.82768,87.22241,74,110,40
87.22241,87.34851,70,110,40
87.354,87.729,70,110,40
87.729,87.848785,65,110,40
87.854,88.229,65,110,40
88.229,88.348785,62,110,40
88.354,88.729,62,110,40
88.729,88.848785,58,110,40
88.854,90.848785,58,110,40
90.854,91.348785,58,110,40
91.354,91.729,67,105,40
91.729,91.854,68,101,40
91.854,92.348785,70,99,40
92.354,92.729,67,94,40
92.729,92.848785,65,90,40
92.854,93.348785,65,110,40
93.354,94.348785,64,110,40
94.354,94.848785,70,110,40
94.854,95.348785,82,110,40
95.354,95.729,79,102,40
95.729,95.854,80,96,40
95.854,96.365845,82,94,40
96.37123,96.79396,79,86,40
96.79396,96.93771,77,80,40
96.94396,97.45582,77,60,40
97.461205,97.84914,76,60,40
97.84914,97.97305,71,60,40
97.97845,98.490295,71,60,40
98.49568,98.88361,72,60,40
98.88361,99.00754,70,60,40
99.012924,99.52478,70,60,40
99.53017,99.9181,69,60,40
99.9181,100.04202,81,60,40
100.04741,100.55926,81,60,40
100.56465,100.95258,79,60,40
100.95258,101.0765,77,60,40
101.08189,101.2543,77,60,40
101.2543,101.42672,76,60,40
101.42672,101.59913,77,60,40
101.59913,101.771545,78,60,40
101.771545,101.943954,79,60,40
101.943954,102.11637,71,60,40
102.11637,102.28879,74,60,40
102.28879,102.4612,72,60,40
102.4612,102.63361,71,60,40
102.63361,102.80602,72,60,40
102.80602,102.97844,74,60,40
102.97844,103.14546,70,60,40
103.150856,103.28017,70,60,40
103.28017,103.40948,69,60,40
103.40948,103.53879,68,60,40
103.53879,103.6681,69,60,40
103.6681,103.7974,70,60,40
103.7974,103.92671,71,60,40
103.92671,104.05602,72,60,40
104.05602,104.18533,73,60,40
104.18533,104.314644,74,60,40
104.314644,104.443954,75,60,40
104.443954,104.573265,76,60,40
104.573265,104.702576,77,60,40
104.702576,104.83189,79,60,40
104.83189,104.9612,81,60,40
104.9612,105.09051,79,60,40
105.09051,105.21443,77,60,40
105.21982,105.34913,77,60,40
105.34913,105.47844,76,61,40
105.47844,105.60775,77,62,40
105.60775,105.731674,74,64,40
105.73706,105.92564,74,65,40
105.99568,106.18426,74,68,40
106.2543,106.38142,74,71,40
106.38142,106.50854,73,73,40
106.50854,106.63566,74,74,40
106.63566,106.75748,70,76,40
106.76277,106.94816,82,77,40
107.01701,107.20239,82,80,40
107.27125,107.39625,82,83,40
107.39625,107.52125,81,84,40
107.52125,107.64625,82,86,40
107.64625,107.76604,79,87,40
107.77125,107.95354,79,89,40
108.02125,108.20354,79,92,40
108.27125,108.39625,79,95,40
108.39625,108.52125,78,96,40
108.52125,108.64625,79,98,40
108.64625,108.76604,76,99,40
108.77125,108.95982,76,100,40
109.02987,109.22873,86,110,40
109.3026,109.57972,86,110,40
109.88561,110.17937,88,110,40
110.33562,110.48561,64,60,40
110.48561,110.84276,69,60,40
111.021324,111.37847,69,60,40
111.557045,112.355034,69,60,40
112.36061,112.494545,67,60,40
112.494545,112.62289,65,60,40
112.62847,112.823784,65,60,40
112.896324,113.09164,65,60,40
113.164185,113.29811,65,60,40
113.29811,113.43204,67,60,40
113.43204,113.69432,65,60,40
113.6999,114.230034,65,60,40
114.23561,114.49789,64,60,40
114.6374,114.771324,76,60,40
114.771324,115.12847,81,60,40
115.30704,115.664185,81,60,40
115.84275,116.64075,81,60,40
116.646324,116.78025,79,60,40
116.78025,116.9086,77,60,40
116.914185,117.1095,77,60,40
117.18204,117.37735,77,60,40
117.4499,117.583824,77,60,40
117.583824,117.71775,79,60,40
117.71775,117.98003,77,60,40
117.98561,118.37354,77,60,40
118.37354,118.49746,75,62,40
118.50285,118.890785,76,63,40
118.890785,119.0147,79,66,40
119.02009,119.40802,79,67,40
119.40802,119.531944,77,70,40
119.53733,119.92526,77,70,40
119.92526,120.04919,78,73,40
120.05457,120.442505,78,74,40
120.442505,120.56643,79,77,40
120.571815,120.95975,79,78,40
120.95975,121.08367,80,80,40
121.08906,121.47699,80,81,40
121.47699,121.60091,81,84,40
121.6063,121.994225,81,85,40
121.994225,122.11815,82,88,40
122.123535,122.51147,82,89,40
122.51147,122.63539,83,91,40
122.64078,123.02871,83,92,40
123.02871,123.15263,84,95,40
123.15802,123.54595,84,96,40
123.54595,123.669876,85,99,40
123.67526,124.063194,85,100,40
124.063194,124.18711,86,102,40
124.192505,124.58043,86,103,40
124.58043,124.70435,88,106,40
124.70974,125.09767,88,107,40
125.09767,125.221596,89,110,40
125.22698,125.63608,89,110,40
125.63608,125.766754,77,110,40
125.77244,126.25994,81,100,40
126.25994,126.43963,79,70,40
128.69743,128.94743,79,60,40
128.94743,129.19743,81,60,40
129.19743,129.44223,82,60,40
130.69743,130.94743,79,60,40
130.94743,131.19743,81,60,40
131.19743,131.44223,82,60,40
131.94743,132.44223,81,60,40
134.69743,134.94743,71,60,40
134.94743,135.19743,72,60,40
135.19743,135.44743,76,60,40
135.44743,135.70605,79,60,40
135.70605,135.96468,83,60,40
135.96468,136.23741,84,60,40
136.23741,136.51453,86,60,40
136.52043,137.40404,87,90,40
137.40404,137.52904,86,80,40
137.52904,137.95091,85,81,40
138.02904,138.45091,85,92,40
138.52904,139.02383,87,90,40
139.02904,139.27904,86,82,40
139.27904,139.52904,84,78,40
139.52904,140.02383,82,74,40
140.02904,140.27904,84,65,40
140.27904,140.52383,86,61,40
140.52904,141.27904,84,60,40
141.27904,141.52904,81,60,40
141.52904,142.27904,82,60,40
142.27904,142.52383,76,60,40
142.77904,142.90404,79,60,40
142.90404,143.02904,77,60,40
143.02904,143.15404,76,60,40
143.15404,143.27904,77,60,40
143.27904,143.40404,79,60,40
143.40404,143.52904,77,60,40
143.52904,143.65404,76,60,40
143.65404,143.77904,79,60,40
143.77904,143.90404,81,60,40
143.90404,144.02904,82,60,40
144.02904,144.15404,84,60,40
144.15404,144.27904,85,60,40
144.27904,144.40404,86,60,40
144.40404,144.52383,82,60,40
144.52904,145.02383,81,60,40
145.02904,145.52383,79,60,40
145.52904,146.02383,77,60,40
146.02904,146.52383,72,60,40
146.52904,146.77904,77,60,40
146.77904,146.90404,79,60,40
146.90404,147.02904,77,60,40
147.02904,147.27904,76,60,40
147.27904,147.40404,77,60,40
147.40404,147.52904,79,60,40
147.52904,147.77904,81,60,40
147.77904,147.90404,82,60,40
147.90404,148.02904,81,60,40
148.02904,148.27904,79,60,40
148.27904,148.40404,81,60,40
148.40404,148.52383,82,60,40
148.52904,149.27383,84,60,40
149.27904,149.40404,84,67,40
149.40404,149.52904,82,69,40
149.52904,150.27383,81,70,40
150.27904,150.40404,81,78,40
150.40404,150.52904,79,79,40
150.52904,151.27383,77,81,40
151.27904,151.40404,77,89,40
151.40404,151.52904,76,90,40
151.52904,151.71133,74,91,40
151.77904,151.90404,86,94,40
151.90404,152.02904,84,95,40
152.02904,152.15404,82,96,40
152.15404,152.27904,81,98,40
152.27904,152.40404,79,99,40
152.40404,152.52383,77,100,40
152.52904,152.64883,76,110,40
152.65404,152.77383,77,110,40
152.77904,152.89883,79,110,40
152.90404,153.02383,81,110,40
153.02904,153.14883,82,110,40
153.15404,153.27383,81,110,40
153.27904,153.39883,79,110,40
153.40404,153.52383,77,110,40
153.52904,153.64883,76,110,40
153.65404,153.77383,77,110,40
153.77904,153.89883,79,110,40
153.90404,154.02383,81,110,40
154.02904,154.14883,82,110,40
154.15404,154.27383,84,110,40
154.27904,154.39883,86,110,40
154.40404,154.52383,88,110,40
154.52904,155.02383,89,110,40
155.52904,155.64883,79,120,40
155.65404,155.77383,81,120,40
155.77904,155.90297,83,120,40
155.90836,156.03227,84,120,40
156.03766,156.16835,86,120,40
156.17403,156.30472,88,120,40
156.3104,156.446,89,100,40
156.4519,156.59566,91,80,40
156.6019,156.73827,91,60,40
156.73827,156.86327,89,60,40
156.86327,156.98827,88,60,40
156.98827,157.11327,89,60,40
157.11327,157.23827,88,60,40
157.23827,157.36327,89,60,40
157.36327,157.48827,88,60,40
157.48827,157.60806,86,60,40
157.61327,157.73827,86,60,40
157.73827,157.86327,84,60,40
157.86327,157.98827,83,60,40
157.98827,158.10806,84,60,40
158.11327,158.23827,84,60,40
158.23827,158.36327,82,60,40
158.36327,158.48827,81,60,40
158.48827,158.60806,79,60,40
158.61327,158.73827,79,60,40
158.73827,158.86327,77,60,40
158.86327,158.98827,76,60,40
158.98827,159.11327,77,60,40
159.11327,159.23827,76,60,40
159.23827,159.36327,77,60,40
159.36327,159.48827,76,60,40
159.48827,159.60806,74,60,40
159.61327,159.74257,74,60,40
159.74257,159.87189,72,60,40
159.87189,160.00119,71,60,40
160.00119,160.12512,72,60,40
160.13051,160.26688,72,60,40
160.26688,160.40323,70,60,40
160.40323,160.55324,69,60,40
160.55324,160.73293,67,60,40
160.74074,161.2805,69,60,40
161.2862,161.78098,71,65,40
161.7862,162.28098,72,70,40
162.2862,162.78098,76,75,40
162.7862,162.9112,79,81,40
162.9112,163.0362,77,82,40
163.0362,163.1612,76,83,40
163.1612,163.2862,77,85,40
163.2862,163.4112,76,86,40
163.4112,163.5362,77,87,40
163.5362,163.6612,79,89,40
163.6612,163.78098,81,90,40
163.7862,163.9112,81,91,40
163.9112,164.0362,82,93,40
164.0362,164.1655,84,94,40
164.1655,164.29482,85,95,40
164.29482,164.43117,86,96,40
164.43117,164.56754,85,98,40
164.56754,164.70905,86,99,40
164.70905,164.84465,76,100,40
164.85056,165.22556,77,125,40
165.22556,165.34535,76,100,40
165.35056,165.72556,73,125,40
165.72556,165.84535,70,100,40
165.85056,166.25964,67,125,40
166.25964,166.39032,64,100,40
166.39601,166.84601,73,125,40
166.84601,166.98976,72,100,40
166.996,168.2395,74,70,40
168.246,169.57239,72,70,40
169.57935,169.95435,72,125,40
169.95435,170.07413,73,100,40
170.07935,170.45435,76,125,40
170.45435,170.57413,79,100,40
170.57935,170.98843,82,125,40
170.98843,171.11911,85,100,40
171.12479,171.5748,88,125,40
171.5748,171.71854,89,100,40
171.7248,172.96828,71,70,40
172.9748,174.30118,72,70,40
174.30812,175.66608,74,70,40
175.67175,175.94449,64,70,40
175.94449,176.22751,74,70,40
176.22751,176.52126,72,70,40
176.52751,178.02126,74,70,40
178.02751,178.3275,60,95,40
178.3275,178.66084,70,100,40
178.66084,179.02803,67,85,40
179.03584,179.32959,69,70,40
179.63583,179.90782,70,70,40
180.19139,180.46338,72,70,40
180.74695,181.01894,79,110,40
181.85806,182.40782,81,60,40
185.52472,192.01952,57,50,40
192.02472,192.39972,66,50,40
192.39972,192.52472,67,50,40
192.52472,193.01952,69,50,40
193.02472,193.39972,67,50,40
193.39972,193.51952,66,50,40
193.52472,194.01952,69,50,40
194.02472,194.76952,67,50,40
194.77472,195.02472,67,50,40
195.02472,195.27472,66,50,40
195.27472,195.52472,67,50,40
195.52472,196.01952,70,50,40
196.02472,196.39972,69,50,40
196.39972,196.52472,70,50,40
196.52472,197.01952,72,50,40
197.02472,197.39972,70,50,40
197.39972,197.51952,69,50,40
197.52472,198.01952,72,50,40
198.02472,199.01952,70,50,40
199.02472,199.39972,75,50,40
199.39972,199.51952,74,50,40
199.52472,200.01952,74,50,40
200.02472,200.39972,75,50,40
200.39972,200.51952,74,50,40
200.52472,201.01952,74,50,40
201.02472,201.39972,84,50,40
201.39972,201.51952,81,50,40
201.52472,202.01952,84,50,40
202.02472,203.03658,83,70,40
203.04196,203.58174,84,70,40
203.58742,204.08221,86,50,40
204.08742,204.46242,74,50,40
204.46242,204.58742,75,50,40
204.58742,205.08221,77,50,40
205.08742,205.46242,75,50,40
205.46242,205.58221,74,50,40
205.58742,206.08221,77,90,40
206.08742,207.08221,75,90,40
207.08742,207.59927,74,82,40
207.60466,208.59946,72,80,40
208.60466,209.65204,66,67,40
209.65761,211.66965,67,50,40
211.67485,213.66965,75,67,40
213.67485,215.6867,87,120,40
215.6921,216.03693,87,110,40
216.20934,216.56648,86,110,40
216.74506,217.12967,86,110,40
217.32198,217.76642,86,110,40
223.47728,223.60228,74,60,40
223.60228,223.97728,72,60,40
223.97728,224.09706,74,60,40
224.10228,224.35228,77,60,40
224.35228,225.34706,76,60,40
225.35228,225.60228,77,60,40
225.60228,225.97728,76,60,40
225.97728,226.09706,77,60,40
226.10228,226.35228,81,60,40
226.35228,227.34706,79,60,40
227.35228,227.6109,81,60,40
227.6109,228.01999,79,60,40
228.01999,228.16374,81,60,40
228.16998,228.54498,81,90,40
228.54498,228.66478,76,75,40
228.66998,228.85228,76,60,40
228.91998,229.10228,77,60,40
229.16998,229.54498,79,90,40
229.54498,229.66478,74,75,40
229.66998,229.85228,74,60,40
229.91998,230.10228,76,60,40
230.16998,230.54498,77,90,40
230.54498,230.66478,69,75,40
230.66998,230.85228,69,60,40
230.91998,231.10228,71,60,40
231.16998,231.35228,72,50,40
231.41998,231.60228,74,50,40
231.66998,231.86885,76,50,40
231.94272,232.16147,77,50,40
232.2427,234.2375,76,70,40
234.2427,236.2375,88,85,40
236.2427,238.2502,91,110,40
238.25554,238.59741,91,110,40
238.76836,239.11923,90,110,40
239.29466,239.65831,90,110,40
239.84012,240.24013,90,110,40
240.44012,242.31024,63,120,40
242.31512,244.18524,64,110,40
244.19012,246.06024,82,110,40
246.06512,248.1745,83,110,40
248.19012,248.44012,80,90,40
248.44012,248.69012,81,76,40
248.69012,248.94012,83,60,40
248.94012,249.43492,84,60,40
249.44012,249.82805,83,60,40
249.82805,249.95198,81,60,40
249.95737,250.46922,81,60,40
250.47461,251.5037,79,60,40
251.50908,251.89702,78,60,40
251.89702,252.02094,76,60,40
252.02632,252.28494,76,60,40
252.28494,252.54356,75,60,40
252.54356,252.9315,76,60,40
252.9315,253.0608,78,60,40
253.0608,253.57266,79,60,40
253.57805,253.96599,78,60,40
253.96599,254.0899,76,60,40
254.09529,254.60715,76,100,40
254.61253,256.15887,75,100,40
256.16425,258.22784,75,110,40
258.23322,260.29678,76,110,40
260.3022,262.36575,84,110,40
262.37115,270.28418,83,100,40
270.29007,270.88382,84,78,40
270.89008,271.22342,84,90,40
271.39008,271.72342,84,72,40
271.89008,272.2349,84,85,40
272.40732,272.77097,84,98,40
272.95276,273.10278,84,125,40
273.10278,273.22778,83,110,40
273.22778,273.3389,81,110,40
273.3389,273.44998,84,110,40
273.44998,273.55,81,110,40
273.55,273.65,79,110,40
273.65,273.75,78,110,40
273.75,273.85,81,110,40
273.85,273.94998,78,110,40
273.94998,274.05,76,110,40
274.05,274.15,75,110,40
274.15,274.25,78,110,40
274.25,274.35,72,110,40
274.35,274.44998,71,110,40
274.44998,274.55,69,110,40
274.55,274.65,72,110,40
274.65,274.75,69,105,40
274.75,274.85,67,102,40
274.85,274.94998,66,98,40
274.94998,275.05,69,94,40
275.05,275.15274,63,90,40
275.15274,275.25546,66,86,40
275.25546,275.3626,69,83,40
275.3626,275.46976,72,79,40
275.46976,275.6122,75,75,40
275.61682,275.76245,78,70,40
275.76727,275.92554,81,65,40
275.93073,276.20346,84,64,40
276.20346,276.57065,83,60,40
276.57846,280.1239,83,60,40
280.1239,280.39664,82,60,40
280.39664,280.57278,81,60,40
280.57846,280.75458,79,60,40
280.76028,280.9364,78,60,40
280.94208,281.2148,78,60,40
281.2148,281.48755,75,60,40
281.48755,281.89664,76,60,40
281.89664,282.033,78,60,40
282.033,282.57278,79,60,40
282.57846,282.98755,78,60,40
282.98755,283.11823,76,60,40
283.1239,283.66367,76,60,40
283.66937,284.8631,75,60,40
284.86935,285.01935,74,60,40
285.01935,285.16937,72,60,40
285.16937,285.4631,71,60,40
285.46936,286.00912,71,60,40
286.0148,286.28754,74,60,40
286.28754,286.42392,72,60,40
286.42392,286.5546,71,60,40
286.56027,286.833,71,60,40
286.833,287.1057,82,60,40
287.1057,287.25574,83,60,40
287.25574,287.40573,81,60,40
287.40573,287.69946,78,60,40
287.70572,288.24548,81,60,40
288.2512,289.3364,79,60,40
289.34207,289.6148,86,60,40
289.6148,289.7512,84,60,40
289.7512,289.88187,82,60,40
289.88754,290.4273,84,60,40
290.43298,291.24548,83,60,40
291.25116,291.5239,86,60,40
291.5239,291.79663,89,60,40
291.79663,291.93298,88,60,40
291.93298,292.06366,83,60,40
292.06937,292.60913,86,110,40
292.6148,293.56937,84,110,40
293.56937,293.70004,81,110,40
293.70572,294.1148,81,110,40
294.1148,294.24548,77,110,40
294.25116,294.6391,77,110,40
294.6391,294.76303,72,110,40
294.7684,295.1434,72,110,40
295.1434,295.2632,69,110,40
295.2684,295.6434,69,110,40
295.6434,295.7632,65,110,40
295.7684,296.1434,65,110,40
296.1434,296.2632,64,110,40
296.2684,296.60175,63,110,40
296.7684,297.13205,75,110,40
297.31387,297.71387,76,110,40
297.91388,298.2472,88,110,40
298.2472,298.61438,90,85,40
298.6222,298.9972,91,60,40
298.9972,299.42578,83,60,40
299.42578,299.92578,88,60,40
299.92578,300.42578,91,60,40
300.42578,301.91534,95,60,40
301.92578,302.51328,79,60,40
302.52576,303.1195,78,60,40
304.92578,306.7195,86,110,40
306.72577,307.31952,80,60,40
307.32578,307.86554,79,60,40
307.87122,308.2803,61,60,40
308.2803,308.4167,62,60,40
308.4167,308.95645,64,60,40
308.96213,309.37122,62,60,40
309.37122,309.5019,61,60,40
309.5076,310.04736,61,60,40
310.05304,311.68372,62,60,40
311.6894,312.2292,67,60,40
312.23486,312.64395,64,60,40
312.64395,312.7803,65,60,40
312.7803,313.32007,67,60,40
313.32578,313.73486,65,60,40
313.73486,313.86554,64,60,40
313.87122,314.41098,67,60,40
314.4167,314.82578,65,60,40
314.82578,314.96213,64,60,40
314.96213,315.5019,62,60,40
315.50757,316.32007,74,60,40
316.32578,316.5928,73,60,40
316.59848,317.41098,74,60,40
317.41666,317.68372,76,60,40
317.6894,318.09848,70,60,40
318.09848,318.22916,69,60,40
318.23486,318.77463,69,60,40
318.7803,319.1894,70,60,40
319.1894,319.32007,69,60,40
319.32574,319.86554,69,60,40
319.87122,320.2803,79,60,40
320.2803,320.41098,76,60,40
320.41666,320.9768,79,60,40
320.9827,322.1089,77,60,40
322.11478,322.70853,77,70,40
322.71478,323.20956,77,110,40
323.21478,323.58978,74,110,40
323.58978,323.71478,75,110,40
323.71478,324.20956,77,110,40
324.21478,324.58978,74,110,40
324.58978,324.70956,72,110,40
324.71478,325.20956,72,110,40
325.21478,326.20956,71,110,40
326.21478,326.60272,76,110,40
326.60272,326.72662,77,110,40
326.73203,327.2268,77,110,40
327.23203,327.60703,74,110,40
327.60703,327.73203,75,110,40
327.73203,328.2268,77,110,40
328.23203,328.60703,74,110,40
328.60703,328.7268,72,110,40
328.73203,329.2268,72,110,40
329.23203,330.2268,71,110,40
330.23203,330.61993,76,110,40
330.61993,330.74387,77,110,40
330.74927,331.13718,77,108,40
331.13718,331.2665,74,97,40
331.2665,331.61133,77,88,40
332.301,332.6458,74,60,40
333.33548,333.7234,76,60,40
333.7234,333.84732,88,60,40
333.8527,334.36456,88,60,40
334.36993,334.75787,86,60,40
334.75787,334.8818,84,60,40
334.88718,335.39905,84,60,40
335.40442,335.9163,83,60,40
336.1803,336.3096,78,60,40
336.3096,336.4389,79,60,40
336.4389,336.5682,81,60,40
336.5682,336.69754,80,60,40
336.69754,336.82684,81,60,40
336.82684,336.95078,77,60,40
336.95615,337.08545,77,60,40
337.08545,337.21478,75,60,40
337.21478,337.3441,76,60,40
337.3441,337.4734,77,60,40
337.4734,337.6027,78,60,40
337.6027,337.73203,79,60,40
337.73203,337.86133,80,60,40
337.86133,337.99063,81,60,40
337.99063,338.12698,82,60,40
338.12698,338.26337,83,60,40
338.26337,338.39972,84,60,40
338.39972,338.5361,85,60,40
338.5361,338.6861,86,60,40
338.6861,338.8361,88,60,40
338.8361,339.00275,86,60,40
339.00275,339.18243,84,60,40
339.19025,339.34024,84,60,40
339.34024,339.48312,83,61,40
339.48312,339.61584,84,62,40
339.61584,339.73566,69,64,40
339.74084,339.92316,81,65,40
339.99084,340.17316,81,68,40
340.24084,340.36584,81,71,40
340.36584,340.49518,80,73,40
340.49518,340.62448,81,74,40
340.62448,340.74838,77,76,40
340.75378,340.94235,77,77,40
341.01242,341.201,77,80,40
341.27103,341.40033,77,83,40
341.40033,341.52963,76,84,40
341.52963,341.65897,77,86,40
341.65897,341.78287,74,87,40
341.78827,341.97684,74,89,40
342.04688,342.23547,74,92,40
342.3055,342.4348,74,95,40
342.4348,342.56412,73,96,40
342.56412,342.69345,74,98,40
342.69345,342.81735,71,99,40
342.82275,343.0216,71,100,40
343.0955,343.31424,81,110,40
343.39548,343.68924,81,110,40
343.99548,344.2892,83,110,40
346.75003,346.88638,72,60,40
346.88638,347.25003,77,60,40
347.43182,347.79547,77,60,40
347.9773,348.7898,77,60,40
348.79547,348.93182,76,67,40
348.93182,349.06253,74,60,40
349.0682,349.26706,74,60,40
349.3409,349.5398,74,60,40
349.61365,349.75003,74,60,40
349.75003,349.88638,76,60,40
349.88638,350.1534,74,60,40
350.15912,350.35098,72,60,40
350.42227,350.61417,72,60,40
350.68542,350.81702,72,60,40
350.81702,350.94858,71,60,40
350.94858,351.20627,72,60,40
351.21173,351.47488,88,60,40
351.47488,351.61127,86,60,40
351.61127,351.74194,84,60,40
351.74762,351.8976,84,60,40
351.8976,352.0476,86,60,40
352.0476,352.37402,84,60,40
352.38095,352.7689,72,60,40
352.7689,352.89282,70,62,40
352.8982,353.28613,71,63,40
353.28613,353.41006,74,66,40
353.41544,353.80338,71,67,40
353.80338,353.92728,72,70,40
353.93268,354.32062,72,70,40
354.32062,354.44452,73,73,40
354.44992,354.83127,73,74,40
354.83127,354.9531,74,77,40
354.9584,355.33975,74,78,40
355.33975,355.46158,75,80,40
355.46686,355.84824,75,81,40
355.84824,355.97003,76,84,40
355.97534,356.3567,76,85,40
356.3567,356.47852,77,88,40
356.48383,356.85883,77,89,40
356.85883,356.9786,78,91,40
356.98383,357.35883,78,92,40
357.35883,357.4786,79,95,40
357.48383,357.85883,79,96,40
357.85883,357.9786,80,99,40
357.98383,358.35883,80,100,40
358.35883,358.4786,81,102,40
358.48383,358.85883,81,103,40
358.85883,358.9786,83,106,40
358.98383,359.37173,83,107,40
359.37173,359.49567,84,110,40
359.50107,359.91016,84,110,40
359.91016,360.0539,72,110,40
360.06015,360.56015,76,95,40
360.56015,360.73984,74,80,40
364.1097,364.36835,74,60,40
364.36835,364.62695,76,60,40
364.62695,364.8802,77,60,40
364.8856,365.39743,77,60,40
365.4028,365.66144,76,60,40
365.66144,365.92004,74,60,40
365.92004,366.43192,72,60,40
366.4373,366.69592,74,60,40
366.69592,366.94916,76,60,40
366.95453,367.7304,74,60,40
367.7304,367.98364,71,60,40
367.989,368.7649,72,60,40
368.7649,369.01813,66,60,40
369.28214,369.54074,67,60,40
369.54074,369.79938,71,60,40
369.79938,370.05798,74,60,40
370.05798,370.31122,79,60,40
370.31662,370.58932,79,60,40
370.58932,370.87234,81,60,40
370.87234,371.1661,82,60,40
371.17236,372.0775,82,92,40
372.0775,372.20145,81,74,40
372.20682,372.64325,80,76,40
372.72406,373.1605,80,84,40
373.2413,373.75317,82,90,40
373.75854,374.01718,81,82,40
374.01718,374.2758,79,78,40
374.2758,374.78766,77,74,40
374.79303,375.06088,79,65,40
375.06088,375.338,81,61,40
375.3439,376.1419,79,60,40
376.1475,376.40976,76,60,40
376.41534,377.21332,77,60,40
377.2189,377.4812,71,60,40
377.48676,377.6207,76,60,40
377.6207,377.7457,71,60,40
377.7457,377.8707,72,60,40
377.8707,377.9957,74,60,40
377.9957,378.1207,76,60,40
378.1207,378.2457,77,60,40
378.2457,378.3707,78,60,40
378.3707,378.4957,79,60,40
378.4957,378.6207,81,60,40
378.6207,378.7457,79,60,40
378.7457,378.8707,78,60,40
378.8707,378.9957,79,60,40
378.9957,379.1207,81,60,40
379.1207,379.2457,79,60,40
379.2457,379.3707,81,60,40
379.3707,379.49048,77,60,40
379.4957,379.99048,76,60,40
379.9957,380.49048,74,60,40
380.4957,380.99048,72,60,40
380.9957,381.49048,67,60,40
381.4957,381.7457,72,60,40
381.7457,381.8707,74,60,40
381.8707,381.9957,72,60,40
381.9957,382.2457,71,60,40
382.2457,382.3707,72,60,40
382.3707,382.4957,74,60,40
382.4957,382.7457,76,60,40
382.7457,382.8707,77,60,40
382.8707,382.9957,76,60,40
382.9957,383.2457,74,60,40
383.2457,383.3707,76,60,40
383.3707,383.49048,77,60,40
383.4957,384.24048,79,60,40
384.2457,384.3707,79,68,40
384.3707,384.4957,77,70,40
384.4957,385.24048,76,71,40
385.2457,385.3707,88,80,40
385.3707,385.4957,86,81,40
385.4957,386.24048,84,83,40
386.2457,386.3707,84,92,40
386.3707,386.4957,83,93,40
386.4957,386.6207,81,95,40
386.6207,386.7457,83,96,40
386.7457,386.875,81,98,40
386.875,387.0043,79,99,40
387.0043,387.1407,77,100,40
387.1407,387.27704,76,90,40
387.27704,387.42703,77,80,40
387.42703,387.5708,74,70,40
387.57706,390.07184,79,80,40
390.07706,390.32706,79,60,40
390.32706,390.45206,81,60,40
390.45206,390.57706,83,60,40
390.57706,391.07184,84,60,40
391.07706,391.32706,83,60,40
391.32706,391.45206,84,60,40
391.45206,391.57184,86,60,40
391.57706,392.32184,88,60,40
392.32706,392.45206,88,67,40
392.45206,392.57706,86,69,40
392.57706,393.32184,84,70,40
393.32706,393.45206,84,78,40
393.45206,393.57706,83,79,40
393.57706,393.82706,81,81,40
393.82706,394.20206,72,83,40
394.20206,394.32706,60,87,40
394.32706,394.45206,72,89,40
394.45206,394.57706,71,90,40
394.57706,394.69684,69,91,40
394.70206,394.82184,71,93,40
394.82706,394.94684,69,94,40
394.95206,395.07184,67,95,40
395.07706,395.19684,65,96,40
395.20206,395.32184,64,98,40
395.32706,395.44684,62,99,40
395.45206,395.57184,60,100,40
395.57706,395.69684,59,110,40
395.70206,395.82184,60,110,40
395.82706,395.94684,62,110,40
395.95206,396.07184,64,110,40
396.07706,396.19684,65,110,40
396.20206,396.32184,64,110,40
396.32706,396.44684,62,110,40
396.45206,396.57184,60,110,40
396.57706,396.69684,59,110,40
396.70206,396.82184,60,110,40
396.82706,396.94684,62,110,40
396.95206,397.07184,64,110,40
397.07706,397.19684,65,110,40
397.20206,397.32184,67,110,40
397.32706,397.44684,69,110,40
397.45206,397.57184,71,110,40
397.57706,398.07184,72,110,40
398.57706,398.69684,74,120,40
398.70206,398.82184,76,120,40
398.82706,398.95096,77,120,40
398.95636,399.0803,79,120,40
399.08566,399.21634,81,110,40
399.22202,399.35272,83,98,40
399.3584,399.50214,84,85,40
399.5084,399.65213,86,73,40
399.6584,399.79477,86,60,40
399.79477,399.92407,84,60,40
399.92407,400.05338,83,60,40
400.05338,400.18268,84,60,40
400.18268,400.312,83,60,40
400.312,400.4413,84,60,40
400.4413,400.57062,83,60,40
400.57062,400.69455,81,60,40
400.69992,400.82922,81,60,40
400.82922,400.95856,79,60,40
400.95856,401.08786,78,60,40
401.08786,401.2118,79,60,40
401.21716,401.34647,79,60,40
401.34647,401.4758,77,60,40
401.4758,401.6051,76,60,40
401.6051,401.72903,74,60,40
401.7344,401.8637,74,60,40
401.8637,401.99304,72,60,40
401.99304,402.12234,71,60,40
402.12234,402.25165,72,60,40
402.25165,402.38095,71,60,40
402.38095,402.51028,72,60,40
402.51028,402.6396,71,60,40
402.6396,402.7635,69,60,40
402.7689,402.8982,69,60,40
402.8982,403.02753,67,60,40
403.02753,403.15683,66,60,40
403.15683,403.28073,67,60,40
403.28613,403.41544,67,60,40
403.41544,403.54474,65,60,40
403.54474,403.67407,64,60,40
403.67407,403.79797,62,60,40
403.80338,404.31522,60,60,40
404.32062,404.83246,78,60,40
404.83786,405.3497,79,66,40
405.3551,405.86694,83,72,40
405.87234,406.00165,83,78,40
406.00165,406.13095,84,79,40
406.13095,406.26025,86,81,40
406.26025,406.3842,88,82,40
406.3896,406.5189,76,84,40
406.5189,406.6482,77,85,40
406.6482,406.7775,79,87,40
406.7775,406.90143,81,88,40
406.90683,407.03613,79,90,40
407.03613,407.16544,81,91,40
407.16544,407.29474,83,93,40
407.29474,407.42407,84,94,40
407.42407,407.55798,86,96,40
407.55798,407.69193,88,97,40
407.69193,407.83344,89,99,40
407.83344,407.96906,83,100,40
407.97495,408.34995,84,110,40
408.34995,408.46973,83,110,40
408.47495,408.84995,80,110,40
408.84995,408.96973,77,110,40
408.97495,409.36966,74,110,40
409.36966,409.49576,71,110,40
409.50125,409.95126,80,100,40
409.95126,410.13095,79,90,40
410.13876,411.22397,69,60,40
411.22964,412.4234,67,60,40
412.42966,412.80466,67,110,40
412.80466,412.92444,68,110,40
412.92966,413.30466,71,110,40
413.30466,413.42444,74,110,40
413.42966,413.8244,77,110,40
413.8244,413.9505,86,110,40
413.95596,414.40598,83,100,40
414.40598,414.58566,84,90,40
414.59348,415.6787,78,60,40
415.6844,416.87814,79,60,40
416.88437,418.24234,81,60,40
418.24802,418.51508,71,60,40
418.52075,418.79785,81,60,40
418.80377,419.0975,79,60,40
419.10376,420.5975,81,110,40
420.60376,420.90976,55,100,40
420.91626,421.24265,65,90,40
421.2496,421.6168,62,80,40
421.6246,421.87784,64,60,40
422.14185,422.40887,66,60,40
422.6873,422.96442,67,60,40
423.25333,423.53046,71,100,40
424.3854,424.94556,71,60,40
426.45145,426.71848,71,60,40
426.9969,427.27402,72,60,40
427.56293,427.84006,73,100,40
428.695,429.25516,73,60,40
430.26105,430.51428,73,70,40
430.7783,431.04532,74,80,40
431.32373,431.6175,75,90,40
431.92374,432.29092,76,100,40
432.67374,434.66852,77,60,40
434.67374,436.66852,76,60,40
436.67374,438.7373,63,60,40
438.7427,440.80627,64,60,40
444.9496,447.01315,75,60,40
447.01855,449.08212,76,60,40
449.08752,449.59937,86,60,40
449.60477,449.9927,83,60,40
449.9927,450.122,84,60,40
450.122,450.63385,86,60,40
450.63925,451.02716,84,60,40
451.02716,451.1511,83,60,40
451.1565,451.66833,86,60,40
451.67374,452.70282,84,110,40
452.70822,453.09613,86,100,40
453.09613,453.22006,88,100,40
453.22543,455.28903,89,110,40
455.2944,457.358,88,110,40
457.36337,459.44522,80,110,40
459.4508,462.1238,81,110,40
462.1294,462.53116,82,60,40
462.53116,462.6651,80,60,40
462.6651,463.19522,82,60,40
463.2008,463.6026,81,60,40
463.6026,463.73096,76,60,40
463.7365,464.26666,79,60,40
464.27225,465.33807,77,60,40
465.34366,465.74545,82,60,40
465.74545,465.8738,77,60,40
465.8794,466.40952,81,60,40
466.4151,467.48096,79,60,40
467.4865,467.8883,84,60,40
467.8883,468.01666,79,60,40
468.02225,468.95975,82,60,40
468.95975,469.08807,81,66,40
469.09366,470.0147,83,66,40
470.0147,470.1408,81,73,40
470.1463,471.05145,83,73,40
471.05145,471.17538,81,80,40
471.1808,472.07062,83,80,40
472.07062,472.1924,81,87,40
472.19772,472.32483,83,110,40
472.32483,472.45197,81,88,40
472.45197,472.57907,83,89,40
472.57907,472.7062,81,90,40
472.7062,472.8333,83,91,40
472.8333,472.96045,81,92,40
472.96045,473.08755,83,93,40
473.08755,473.20938,81,93,40
473.21466,473.33966,83,94,40
473.33966,473.46466,81,95,40
473.46466,473.58966,83,96,40
473.58966,473.71466,81,97,40
473.71466,473.83966,83,98,40
473.83966,473.96466,81,99,40
473.96466,474.08966,83,100,40
474.08966,474.20947,81,100,40
474.21466,474.33966,83,110,40
474.33966,474.46466,81,110,40
474.46466,474.58966,83,110,40
474.58966,474.71466,81,110,40
474.71466,474.83966,83,110,40
474.83966,474.96466,81,110,40
474.96466,475.08966,83,110,40
475.08966,475.20947,81,110,40
475.21466,475.33966,83,110,40
475.33966,475.46466,81,110,40
475.46466,475.58966,83,110,40
475.58966,475.71466,81,110,40
475.71466,475.844,83,110,40
475.844,475.9733,81,110,40
475.9733,476.10965,83,110,40
476.10965,476.24033,81,110,40
476.24603,476.60965,83,110,40
481.5642,481.6949,83,60,40
481.70056,482.0642,88,60,40
482.246,482.60965,88,60,40
482.79147,483.60397,88,60,40
483.60965,483.746,86,60,40
483.746,483.8767,84,60,40
483.8824,484.08124,84,60,40
484.1551,484.35397,84,60,40
484.42783,484.5642,84,60,40
484.5642,484.70056,86,60,40
484.70056,484.9676,84,60,40
484.9733,485.25632,84,60,40
485.25632,485.53342,83,60,40
486.6714,486.82138,84,60,40
486.82138,486.9714,86,60,40
486.9714,487.3386,84,60,40
487.3464,487.7555,84,60,40
487.7555,487.88617,83,62,40
487.89185,488.08716,83,63,40
488.1597,488.355,84,65,40
488.42755,488.8155,84,67,40
488.8155,488.93942,83,70,40
488.9448,489.1334,83,70,40
489.20343,489.392,84,72,40
489.46204,489.83704,85,74,40
489.83704,489.95685,86,77,40
489.96204,490.14435,86,78,40
490.21204,490.39435,85,80,40
490.46204,490.83704,85,81,40
490.83704,490.95685,86,84,40
490.96204,491.14435,86,85,40
491.21204,491.39435,87,87,40
491.46204,491.83704,87,89,40
491.83704,491.95685,88,91,40
491.96204,492.33704,88,92,40
492.33704,492.45685,89,95,40
492.46204,492.83704,89,96,40
492.83704,492.95685,90,99,40
492.96204,493.33704,90,100,40
493.33704,493.45685,91,102,40
493.46204,493.83704,91,103,40
493.83704,493.95685,92,106,40
493.96204,494.34998,92,107,40
494.34998,494.4739,93,110,40
494.47928,494.88837,93,110,40
494.88837,495.03214,81,110,40
495.0384,495.5384,84,95,40
495.5384,495.71808,83,80,40
496.47372,496.64987,66,60,40
496.65555,496.8317,64,60,40
496.83737,497.0044,69,60,40
497.0098,497.17682,71,60,40
497.1822,497.3492,69,60,40
497.3546,497.86646,73,60,40
499.16495,499.42358,59,60,40
499.42358,499.6822,61,60,40
499.6822,499.93542,62,60,40
499.94083,500.45267,62,60,40
500.45807,500.71667,61,60,40
500.71667,500.97528,59,60,40
500.97528,501.48715,57,60,40
501.49252,501.75116,59,60,40
501.75116,502.0044,61,60,40
502.00977,502.78564,59,60,40
502.78564,503.03888,80,60,40
503.04425,503.82013,81,60,40
503.82013,504.07336,75,60,40
504.33737,504.59598,64,60,40
504.59598,504.8546,68,60,40
504.8546,505.11322,71,60,40
505.11322,505.37186,75,60,40
505.37186,505.6251,76,60,40
505.63046,505.8891,76,60,40
505.8891,506.1423,78,60,40
506.1477,507.0529,79,90,40
507.0529,507.1822,78,90,40
507.1822,507.61862,77,82,40
507.69943,508.13586,77,90,40
508.21667,508.72852,79,85,40
508.73392,508.99252,78,78,40
508.99252,509.25116,76,75,40
509.25116,509.763,74,71,40
509.7684,510.027,76,64,40
510.027,510.28024,78,61,40
510.28564,511.0615,76,60,40
511.0615,511.31473,73,60,40
511.32013,512.1289,74,60,40
512.1289,512.4114,68,60,40
512.41736,513.23553,76,60,40
513.23553,513.5026,72,60,40
513.5083,514.0581,74,60,40
514.064,514.3578,86,60,40
514.364,514.7312,80,55,40
514.739,515.2788,83,50,40
515.2845,515.69354,81,50,40
515.69354,515.82996,83,50,40
515.82996,516.3697,84,50,40
516.37537,516.7845,83,50,40
516.7845,516.91516,81,50,40
516.92084,517.46063,81,50,40
517.4663,518.5515,80,50,40
518.5572,518.9663,77,50,40
518.9663,519.097,76,50,40
519.10266,519.64246,76,50,40
519.64813,520.0572,83,50,40
520.0572,520.19354,84,50,40
520.19354,520.73334,86,50,40
520.739,521.14813,84,50,40
521.14813,521.2788,83,50,40
521.2845,521.8242,86,50,40
521.8299,522.239,84,63,40
522.239,522.37537,86,73,40
522.37537,522.91516,88,77,40
522.92084,523.3538,86,90,40
523.3538,523.4976,84,100,40
523.50385,523.9039,83,110,40
523.9039,524.0236,80,110,40
524.0289,524.1539,81,110,40
524.1539,524.2789,83,110,40
524.2789,524.4039,81,110,40
524.4039,524.5289,83,110,40
524.5289,524.7111,84,110,40
524.7789,524.9611,84,110,40
525.0289,525.1539,83,110,40
525.1539,525.2789,81,110,40
525.2789,525.4039,83,110,40
525.4039,525.5236,81,110,40
525.5289,526.0236,81,110,40
526.0289,527.0236,80,110,40
527.0289,527.1539,77,110,40
527.1539,527.2789,75,110,40
527.2789,527.4039,77,110,40
527.4039,527.5236,76,110,40
527.5289,527.7111,76,110,40
527.7789,527.9611,76,110,40
528.0289,528.1539,77,110,40
528.1539,528.2789,75,110,40
528.2789,528.4039,77,110,40
528.4039,528.5236,76,110,40
528.5289,528.7111,76,110,40
528.7789,528.9611,76,110,40
529.0289,529.1539,86,110,40
529.1539,529.2789,76,110,40
529.2789,529.4039,86,110,40
529.4039,529.5236,83,110,40
529.5289,530.0236,86,125,40
530.0289,531.0236,84,110,40
531.0289,531.1539,86,110,40
531.1539,531.2789,76,110,40
531.2789,531.4039,86,110,40
531.4039,531.5236,83,110,40
531.5289,532.0236,86,125,40
532.0289,532.7736,84,110,40
532.7789,533.0236,76,110,40
533.0289,533.1539,88,110,40
533.1539,533.2789,87,110,40
533.2789,533.4039,86,110,40
533.4039,533.5236,83,110,40
533.5289,534.3756,86,125,40
534.3756,534.4916,84,125,40
534.4966,535.3434,83,125,40
535.3434,535.4593,81,125,40
535.46436,536.3111,84,125,40
536.3111,536.427,83,125,40
536.43207,537.2789,81,125,40
537.2789,537.3948,80,125,40
537.3998,538.2466,79,80,40
538.2466,538.3625,76,81,40
538.36755,539.2143,77,75,40
539.2143,539.33026,74,87,40
539.33527,540.18207,72,89,40
540.18207,540.298,76,101,40
540.30304,541.1498,71,103,40
541.1498,541.26575,76,115,40
541.27075,542.11755,70,125,40
542.11755,542.23346,79,125,40
542.2385,543.08527,62,125,40
543.08527,543.20123,77,125,40
543.20624,544.0651,72,110,40
544.0651,544.18494,88,110,40
544.1901,545.13007,91,110,40
545.13007,545.27386,89,110,40
545.2801,547.42645,89,120,40
547.4318,549.8357,88,115,40
549.84143,550.11414,80,74,40
550.11414,550.37274,81,60,40
550.37274,550.63135,83,60,40
550.63135,550.8038,86,60,40
550.8038,550.9809,84,60,40
550.9809,551.15704,83,60,40
551.1627,551.3514,83,60,40
551.3514,551.5457,84,60,40
551.5457,551.7395,81,60,40
551.7457,552.2855,81,60,40
552.2912,553.3764,80,60,40
553.3821,554.4874,79,60,40
554.4932,555.6194,78,60,40
555.6253,556.61835,77,60,40
556.6253,558.01337,76,50,40
558.0206,559.5128,74,50,40
559.5206,561.38586,72,50,40
561.3956,563.63,71,40,40
563.6456,565.66974,56,40,40
565.6749,567.66974,83,47,40
567.6749,569.66974,86,54,40
569.6749,569.7999,77,60,40
569.7999,569.9249,76,62,40
569.9249,570.0499,77,65,40
570.0499,570.1749,76,68,40
570.1749,570.2999,77,70,40
570.2999,570.4249,76,73,40
570.4249,570.5499,77,76,40
570.5499,570.6749,76,79,40
570.6749,570.7999,77,81,40
570.7999,570.9249,76,84,40
570.9249,571.05426,77,87,40
571.05426,571.18353,76,89,40
571.18353,571.31995,77,92,40
571.31995,571.4563,76,95,40
571.4563,571.60626,77,98,40
571.60626,571.75006,76,100,40
571.7563,571.9063,71,110,40
571.9063,572.0313,69,110,40
572.0313,572.1563,72,110,40
572.1563,572.27606,69,110,40
572.2813,572.4063,70,110,40
572.4063,572.5313,69,110,40
572.5313,572.6563,73,110,40
572.6563,572.77606,69,110,40
572.7813,572.9063,70,110,40
572.9063,573.0313,69,110,40
573.0313,573.1563,74,110,40
573.1563,573.27606,69,110,40
573.2813,573.4063,71,110,40
573.4063,573.5313,69,110,40
573.5313,573.6563,74,110,40
573.6563,573.77606,69,110,40
573.7813,573.9063,71,110,40
573.9063,574.0313,69,110,40
574.0313,574.1563,76,110,40
574.1563,574.27606,69,110,40
574.2813,574.4063,71,110,40
574.4063,574.5313,69,110,40
574.5313,574.6563,81,110,40
574.6563,574.77606,69,110,40
574.7813,574.9063,74,110,40
574.9063,575.0313,72,110,40
575.0313,575.1563,81,110,40
575.1563,575.27606,72,110,40
575.2813,575.4063,72,110,40
575.4063,575.5313,71,110,40
575.5313,575.6563,80,110,40
575.6563,575.77606,71,110,40
575.7813,575.9063,58,110,40
575.9063,576.0313,57,110,40
576.0313,576.1563,61,110,40
576.1563,576.27606,57,110,40
576.2813,576.4063,58,110,40
576.4063,576.5313,57,110,40
576.5313,576.6563,61,110,40
576.6563,576.77606,57,110,40
576.7813,576.9063,58,110,40
576.9063,577.0313,57,110,40
577.0313,577.1563,62,110,40
577.1563,577.27606,57,110,40
577.2813,577.4063,59,110,40
577.4063,577.5313,57,110,40
577.5313,577.6563,62,110,40
577.6563,577.77606,57,110,40
577.7813,577.9063,59,110,40
577.9063,578.0313,57,110,40
578.0313,578.1563,69,110,40
578.1563,578.27606,57,110,40
578.2813,578.4063,59,110,40
578.4063,578.5313,57,110,40
578.5313,578.6563,69,110,40
578.6563,578.77606,57,110,40
578.7813,578.9063,62,110,40
578.9063,579.0313,60,110,40
579.0313,579.1563,72,110,40
579.1563,579.27606,60,110,40
579.2813,579.4063,65,110,40
579.4063,579.5313,64,110,40
579.5313,579.6563,76,110,40
579.6563,579.77606,64,110,40
579.7813,580.02606,76,124,40
580.0313,580.27606,76,124,40
580.2813,580.52606,76,124,40
580.5313,580.77606,76,124,40
580.7813,581.02606,76,124,40
581.0313,581.27606,76,124,40
581.2813,581.52606,76,124,40
581.5313,581.6563,80,124,40
581.6563,581.77606,76,124,40
581.7813,582.02606,76,124,40
582.0313,582.27606,76,124,40
582.2813,582.52606,76,124,40
582.5313,582.6563,81,124,40
582.6563,582.77606,76,124,40
582.7813,583.02606,76,124,40
583.0313,583.28455,76,124,40
583.2899,583.55695,76,124,40
583.5626,583.72565,88,124,40
583.72565,583.9653,80,124,40
583.97565,584.5694,81,124,40
583.97565,584.5694,64,124,40
583.97565,584.5694,72,124,40
586.5257,586.66943,69,1,40
0.0,0.5875,69,1,40
7.2,9.5875,59,40,40
9.6,11.9875,57,45,40
12.0,14.3875,56,50,40
14.4,16.7875,57,90,40
14.4,16.7875,66,90,40
16.8,19.452778,68,90,40
19.466665,21.854166,62,50,40
21.866667,24.254166,60,50,40
24.266666,26.654165,65,50,40
26.666666,29.054167,64,50,40
26.666666,29.054167,72,50,40
29.066666,31.454166,69,90,40
31.466665,34.119442,68,90,40
34.13333,35.452778,65,50,40
35.466663,36.78611,66,50,40
36.8,38.284374,68,90,40
38.3,40.155468,62,100,40
38.3,40.155468,74,100,40
40.175,40.555695,62,110,40
40.175,40.555695,74,110,40
43.05683,43.671413,64,70,40
43.05683,43.671413,69,70,40
48.009605,48.603355,56,70,40
48.609608,49.803356,57,70,40
49.80961,51.003357,63,70,40
51.009605,53.40336,59,70,40
53.409607,55.803356,59,70,40
53.409607,55.803356,62,70,40
55.80961,57.628098,60,110,40
58.90127,59.351273,70,70,40
59.351273,59.501274,68,85,40
59.501274,60.095024,70,90,40
60.101273,60.760994,69,110,40
61.36794,61.81794,69,70,40
61.81794,61.967937,64,79,40
61.967937,62.561687,67,81,40
62.56794,63.71771,65,92,40
63.723495,64.11823,65,110,40
64.11823,64.24432,62,110,40
64.24981,64.64455,62,110,40
64.64455,64.770645,58,110,40
64.77612,65.17086,58,110,40
65.17086,65.29696,57,110,40
65.30244,65.63577,56,110,40
65.80244,66.14727,73,110,40
65.80244,66.14727,76,110,40
66.31968,66.69005,74,110,40
66.87524,67.30023,63,110,40
66.87524,67.30023,69,110,40
67.55023,71.63773,60,110,40
67.55023,71.63773,64,110,40
71.65024,72.14283,64,60,40
74.02855,74.44521,57,60,40
74.44521,74.5841,59,60,40
74.5841,75.133865,60,60,40
75.139656,75.55632,59,60,40
75.55632,75.68942,57,60,40
75.69521,76.24498,57,60,40
76.25076,77.911644,56,60,40
77.91743,80.133865,56,60,40
80.13965,81.80053,57,60,40
81.80631,82.91164,69,60,40
82.91743,83.33409,70,60,40
83.33409,83.472984,68,60,40
83.472984,84.02275,70,60,40
84.028534,84.59945,69,60,40
84.60546,85.710785,69,60,40
85.71657,86.82189,70,81,40
86.82768,87.22241,74,110,40
87.22241,87.34851,70,110,40
87.354,87.729,70,110,40
87.729,87.848785,65,110,40
87.854,88.229,65,110,40
88.229,88.348785,62,110,40
88.354,88.729,62,110,40
88.729,88.848785,58,110,40
88.854,89.348785,58,110,40
93.354,93.729,67,110,40
93.729,93.854,68,110,40
93.854,94.348785,70,110,40
94.354,94.729,67,110,40
94.729,94.848785,65,110,40
94.854,95.348785,65,110,40
95.354,96.365845,64,102,40
96.37123,96.93771,67,86,40
97.461205,97.97305,67,60,40
98.49568,99.00754,67,60,40
99.53017,100.04202,69,60,40
100.56465,101.0765,65,60,40
101.59913,102.110985,60,60,40
101.59913,102.110985,64,60,40
102.63361,103.14546,67,60,40
103.6681,104.17995,72,60,40
104.702576,105.21443,72,60,40
105.21982,105.34913,65,60,40
105.34913,105.47844,64,61,40
105.47844,105.60775,65,62,40
105.60775,105.731674,62,64,40
105.73706,105.92564,62,65,40
105.99568,106.18426,62,68,40
106.2543,106.38142,62,71,40
106.38142,106.50854,61,73,40
106.50854,106.63566,62,74,40
106.63566,106.75748,58,76,40
106.76277,106.94816,58,77,40
107.01701,107.20239,70,80,40
107.27125,107.39625,70,83,40
107.39625,107.52125,69,84,40
107.52125,107.64625,70,86,40
107.64625,107.76604,67,87,40
107.77125,107.95354,67,89,40
108.02125,108.20354,67,92,40
108.27125,108.39625,67,95,40
108.39625,108.52125,66,96,40
108.52125,108.64625,67,98,40
108.64625,108.76604,64,99,40
108.77125,108.95982,64,100,40
109.02987,109.22873,67,110,40
109.3026,109.57972,67,110,40
109.88561,110.17937,64,110,40
112.494545,112.62847,65,60,40
112.62847,112.98561,70,60,40
113.164185,113.521324,70,60,40
113.6999,114.49789,70,60,40
114.50347,114.6374,69,60,40
114.6374,114.76575,67,60,40
114.771324,114.96664,67,60,40
115.039185,115.2345,67,60,40
115.30704,115.44097,67,60,40
115.44097,115.5749,69,60,40
115.5749,115.83717,67,60,40
115.84275,116.37289,67,60,40
116.37847,116.9086,65,60,40
116.914185,117.1095,58,60,40
117.18204,117.37735,70,60,40
117.4499,117.583824,70,60,40
117.583824,117.71775,69,60,40
117.71775,117.98003,70,60,40
117.98561,118.24423,72,60,40
118.24423,118.49746,67,61,40
118.50285,118.761475,72,63,40
118.761475,119.0147,67,65,40
119.02009,119.27871,72,67,40
119.27871,119.531944,65,69,40
119.53733,119.79595,72,70,40
119.79595,120.04919,60,72,40
120.05457,120.313194,72,74,40
120.313194,120.56643,67,76,40
120.571815,120.83044,67,78,40
120.83044,121.08367,60,80,40
121.08906,121.34768,65,81,40
121.34768,121.60091,60,83,40
121.6063,121.864914,69,85,40
121.864914,122.11815,65,87,40
122.123535,122.38216,70,89,40
122.38216,122.63539,65,90,40
122.64078,122.8994,72,92,40
122.8994,123.15263,65,94,40
123.15802,123.41664,70,96,40
123.41664,123.669876,65,98,40
123.67526,123.93388,65,100,40
123.93388,124.18711,58,101,40
124.192505,124.45112,65,103,40
124.45112,124.70435,62,105,40
124.70974,124.96836,67,107,40
124.96836,125.221596,62,109,40
125.22698,125.49971,69,110,40
125.49971,125.766754,65,110,40
125.77244,126.07244,64,100,40
126.07244,126.43963,55,80,40
127.69744,127.94744,65,60,40
127.94744,128.19743,67,60,40
128.19743,128.44223,69,60,40
128.44743,129.32243,70,60,40
129.32243,129.44223,69,60,40
129.44743,129.86931,67,60,40
129.94743,130.36931,67,60,40
130.44743,130.94223,70,60,40
130.94743,131.19743,69,60,40
131.19743,131.44743,67,60,40
131.44743,131.94223,65,60,40
131.94743,132.19743,67,60,40
132.19743,132.44223,69,60,40
132.44743,133.19743,67,60,40
133.19743,133.44223,64,60,40
133.44743,134.19743,65,60,40
134.19743,134.44223,59,60,40
134.44743,134.94223,60,60,40
137.52904,138.52383,65,81,40
138.52904,139.52383,58,90,40
139.52904,140.52383,74,74,40
140.77904,140.90404,67,60,40
140.90404,141.02904,65,60,40
141.02904,141.15404,64,60,40
141.15404,141.27904,65,60,40
141.27904,141.40404,67,60,40
141.40404,141.52904,65,60,40
141.77904,141.90404,65,60,40
141.90404,142.02904,64,60,40
142.02904,142.15404,62,60,40
142.15404,142.27904,64,60,40
142.27904,142.40404,65,60,40
142.40404,142.52383,64,60,40
142.69571,142.85716,74,60,40
142.86238,143.02383,72,60,40
143.02904,143.52383,65,60,40
143.69571,143.85716,74,60,40
143.86238,144.02383,72,60,40
144.02904,144.52383,67,60,40
144.52904,145.02383,60,60,40
145.02904,145.52383,58,60,40
145.52904,146.02383,57,60,40
146.02904,146.52383,76,60,40
146.52904,147.02383,72,60,40
147.02904,147.52383,76,60,40
147.52904,148.02383,77,60,40
148.02904,148.52383,79,60,40
148.52904,148.77383,81,60,40
148.77904,148.90404,81,62,40
148.90404,149.02904,79,63,40
149.02904,149.77383,77,65,40
149.77904,149.90404,77,73,40
149.90404,150.02904,76,74,40
150.02904,150.77383,74,75,40
150.77904,150.90404,74,83,40
150.90404,151.02904,72,85,40
151.02904,151.77383,70,86,40
151.77904,151.90404,62,94,40
151.90404,152.02904,64,95,40
152.02904,152.15404,65,96,40
152.15404,152.27904,67,98,40
152.27904,152.40404,69,99,40
152.40404,152.52383,70,100,40
152.52904,152.64883,72,110,40
152.65404,152.77383,74,110,40
152.77904,152.89883,76,110,40
152.90404,153.02383,77,110,40
153.02904,153.14883,79,110,40
153.15404,153.27383,77,110,40
153.27904,153.39883,76,110,40
153.40404,153.52383,74,110,40
153.52904,153.64883,72,110,40
153.65404,153.77383,74,110,40
153.77904,153.89883,76,110,40
153.90404,154.02383,77,110,40
154.02904,154.14883,79,110,40
154.15404,154.27383,81,110,40
154.27904,154.39883,82,110,40
154.40404,154.52383,84,110,40
154.52904,154.64883,77,110,40
154.65404,154.77383,76,110,40
154.77904,154.89883,74,110,40
154.90404,155.02383,72,110,40
155.02904,155.14883,70,110,40
155.15404,155.27383,69,110,40
155.27904,155.39883,67,110,40
155.40404,155.52383,65,110,40
155.52904,157.10806,71,120,40
157.11327,157.60806,71,60,40
157.61327,158.10806,72,60,40
158.11327,158.60806,76,60,40
158.61327,159.10806,77,60,40
159.11327,159.60806,62,60,40
159.11327,160.12512,65,60,40
159.61327,160.12512,60,60,40
160.13051,160.73293,67,60,40
160.74074,161.2805,60,60,40
161.2862,161.78098,67,65,40
161.7862,162.28098,55,70,40
162.2862,162.78098,72,75,40
162.7862,163.28098,72,81,40
163.2862,163.78098,59,86,40
163.7862,163.9112,60,91,40
163.9112,164.0362,67,93,40
164.0362,164.1655,65,94,40
164.1655,164.29482,64,95,40
164.29482,164.43117,65,96,40
164.43117,164.56754,67,98,40
164.56754,164.70905,69,99,40
164.70905,164.84465,70,100,40
164.85056,165.22556,69,125,40
165.22556,165.34535,67,100,40
165.35056,165.72556,55,125,40
165.72556,165.84535,64,100,40
165.85056,166.25964,58,125,40
166.25964,166.39032,61,100,40
166.39601,166.84601,64,125,40
166.84601,166.98976,65,100,40
166.996,168.2395,65,70,40
168.246,169.57239,64,70,40
169.57935,169.95435,60,125,40
169.95435,170.07413,61,100,40
170.07935,170.45435,64,125,40
170.45435,170.57413,73,100,40
170.57935,170.98843,73,125,40
170.98843,171.11911,82,100,40
171.12479,171.5748,79,125,40
171.5748,171.71854,81,100,40
171.7248,172.96828,65,70,40
172.9748,174.30118,57,70,40
174.30812,175.39336,65,70,40
175.39903,176.52126,64,70,40
176.52751,177.72125,65,100,40
177.72751,179.02803,55,100,40
177.72751,179.02803,64,100,40
179.03584,179.32959,65,100,40
179.63583,179.90782,65,70,40
180.19139,180.46338,69,70,40
180.74695,181.01894,67,110,40
181.85806,182.40782,63,60,40
189.52472,191.51952,69,50,40
191.52472,193.51952,72,50,40
193.52472,194.51952,70,50,40
194.52472,195.51952,58,50,40
195.52472,197.51952,60,50,40
195.52472,197.51952,63,50,40
197.52472,199.51952,58,50,40
197.52472,199.51952,62,50,40
199.52472,201.51952,60,50,40
199.52472,201.51952,62,50,40
201.52472,202.01952,62,50,40
202.02472,203.03658,55,70,40
202.02472,203.03658,67,70,40
203.04196,203.45105,68,70,40
203.45105,203.58174,67,55,40
203.58742,204.08221,74,50,40
204.08742,204.58221,67,50,40
204.58742,205.08221,62,50,40
205.08742,205.58221,67,50,40
205.58742,206.08221,60,50,40
206.08742,206.46242,56,60,40
206.46242,206.58221,55,69,40
206.58742,207.08221,55,71,40
207.08742,207.47534,63,82,40
207.47534,207.59927,62,90,40
207.60466,208.09946,62,80,40
208.10466,208.47966,60,74,40
208.47966,208.60466,62,68,40
208.60466,209.11652,63,67,40
209.1219,209.52368,62,60,40
209.52368,209.65204,60,55,40
209.65761,210.16946,60,50,40
210.17485,211.66965,59,54,40
211.67485,212.66965,60,67,40
212.67485,213.66965,72,76,40
213.67485,215.6867,84,117,40
215.6921,216.03693,84,110,40
216.20934,216.56648,84,110,40
216.74506,217.12967,74,110,40
216.74506,217.12967,84,110,40
217.32198,217.76642,74,110,40
217.32198,217.76642,83,110,40
223.47728,223.60228,62,60,40
223.60228,223.97728,60,60,40
223.97728,224.09706,62,60,40
224.10228,224.35228,65,60,40
224.35228,225.34706,64,60,40
225.35228,225.60228,65,60,40
225.60228,225.97728,64,60,40
225.97728,226.09706,65,60,40
226.10228,226.35228,69,60,40
226.35228,227.34706,67,60,40
227.35228,227.6109,69,60,40
227.6109,228.01999,67,60,40
228.01999,228.16374,69,60,40
228.16998,228.54498,69,90,40
228.54498,228.66478,73,75,40
228.66998,228.85228,73,60,40
228.91998,229.10228,74,60,40
229.16998,229.54498,76,90,40
229.54498,229.66478,71,75,40
229.66998,229.85228,71,60,40
229.91998,230.10228,72,60,40
230.16998,230.54498,65,90,40
230.54498,230.66478,60,75,40
230.66998,230.85228,60,60,40
230.91998,231.10228,67,60,40
231.16998,231.35228,69,50,40
231.41998,231.60228,71,50,40
231.66998,231.86885,72,50,40
231.94272,232.16147,74,50,40
232.2427,234.2375,60,50,40
234.2427,236.2375,72,67,40
236.2427,238.2502,71,84,40
236.2427,238.2502,76,84,40
238.25554,238.59741,72,110,40
238.25554,238.59741,76,110,40
238.76836,239.11923,73,110,40
238.76836,239.11923,76,110,40
239.29466,239.65831,66,110,40
239.29466,239.65831,76,110,40
239.84012,240.24013,66,110,40
239.84012,240.24013,75,110,40
240.44012,242.31024,63,120,40
242.31512,244.18524,64,110,40
244.19012,246.06024,76,110,40
246.06512,247.92548,66,110,40
246.06512,247.92548,75,110,40
247.94012,249.95198,59,60,40
249.95737,254.0899,59,60,40
254.09529,256.15887,59,100,40
256.16425,256.67612,57,110,40
256.16425,256.67612,66,110,40
256.6815,257.06943,66,110,40
257.06943,257.19873,67,110,40
257.19873,257.7106,72,110,40
257.71597,258.1039,71,110,40
258.1039,258.22784,69,110,40
258.23322,258.7451,67,110,40
258.75046,259.1384,67,110,40
259.1384,259.2677,69,110,40
259.2677,260.81403,71,110,40
260.81943,261.20737,67,110,40
261.20737,261.33667,69,110,40
261.33667,261.8485,71,110,40
261.8539,262.24185,69,110,40
262.24185,262.36575,67,110,40
262.37115,262.883,67,100,40
262.8884,263.91748,66,90,40
263.92288,264.43472,64,70,40
264.44012,264.95197,64,60,40
264.95737,265.98645,63,60,40
267.5617,268.09183,66,50,40
268.0974,268.62756,65,50,40
268.63315,269.1729,64,50,40
269.1786,269.71835,63,50,40
269.72403,270.28418,71,50,40
270.29007,270.88382,72,50,40
270.89008,271.22342,72,60,40
271.39008,271.72342,63,72,40
271.39008,271.72342,72,72,40
271.89008,272.2349,64,85,40
271.89008,272.2349,72,85,40
272.40732,272.77097,66,98,40
272.40732,272.77097,72,98,40
272.95276,273.30185,69,125,40
272.95276,273.30185,72,125,40
275.93073,276.19778,75,64,40
280.94208,283.11823,72,60,40
283.1239,285.4631,71,60,40
285.46936,287.69946,66,60,40
287.70572,289.3364,67,60,40
289.34207,289.6148,69,60,40
289.6148,289.88187,70,60,40
289.88754,291.51822,71,60,40
291.5239,292.06366,71,60,40
292.06937,294.24548,72,110,40
294.25116,294.6391,65,110,40
294.6391,294.76303,60,110,40
294.7684,295.1434,60,110,40
295.1434,295.2632,57,110,40
295.2684,295.6434,69,110,40
295.6434,295.7632,65,110,40
295.7684,296.1434,65,110,40
296.1434,296.2632,64,110,40
296.2684,296.60175,63,110,40
296.7684,297.13205,69,110,40
297.31387,297.71387,67,110,40
297.91388,298.3722,67,110,40
297.91388,298.3722,76,110,40
298.6222,300.41534,64,60,40
298.6222,300.41534,76,60,40
300.42578,302.51328,67,60,40
300.42578,302.51328,76,60,40
302.52576,304.91953,75,60,40
304.92578,306.7195,74,110,40
306.72577,307.31952,68,60,40
307.32578,309.5019,67,60,40
310.05304,310.46213,74,60,40
310.46213,310.59848,76,60,40
310.59848,311.13828,77,60,40
311.14395,311.55304,76,60,40
311.55304,311.68372,74,60,40
311.6894,312.2292,74,60,40
312.23486,312.64395,73,60,40
312.64395,312.7803,74,60,40
312.7803,313.32007,76,60,40
313.32578,313.73486,74,60,40
313.73486,313.86554,73,60,40
313.87122,314.41098,76,60,40
314.4167,315.5019,74,60,40
315.50757,315.91666,62,60,40
315.91666,316.04736,64,60,40
316.05304,316.5928,64,60,40
316.59848,317.00757,62,60,40
317.00757,317.13828,64,60,40
317.14395,317.68372,64,60,40
317.6894,318.09848,64,60,40
318.09848,318.22916,67,60,40
318.23486,318.77463,64,60,40
318.7803,319.1894,73,60,40
319.1894,319.32007,74,60,40
319.32574,319.86554,74,60,40
319.87122,320.2803,58,60,40
320.2803,320.41098,57,60,40
320.41666,320.9768,57,60,40
320.9827,321.40723,58,60,40
321.40723,321.54285,57,60,40
321.54874,322.1089,57,60,40
322.11478,322.70853,65,70,40
322.11478,322.70853,62,70,40
322.71478,324.70956,62,110,40
322.71478,324.70956,74,110,40
324.71478,325.20956,62,110,40
324.71478,325.20956,74,110,40
325.21478,325.58978,62,110,40
325.58978,325.71478,63,110,40
325.71478,326.20956,65,110,40
326.21478,326.60272,62,110,40
326.60272,326.72662,60,110,40
326.73203,327.2268,60,110,40
327.23203,328.2268,59,110,40
328.23203,328.60703,59,110,40
328.60703,328.7268,60,110,40
328.73203,329.2268,74,110,40
328.73203,329.2268,62,110,40
329.23203,329.60703,62,110,40
329.60703,329.73203,63,110,40
329.73203,330.2268,65,110,40
330.23203,330.61993,62,110,40
330.61993,330.74387,60,110,40
330.74927,331.2611,60,97,40
331.2665,331.65442,59,92,40
331.65442,331.77835,66,72,40
331.78375,332.2956,66,60,40
332.301,332.6889,67,60,40
332.6889,332.81284,65,60,40
332.81824,333.33008,65,60,40
333.33548,333.84732,64,60,40
334.36993,334.8818,67,60,40
335.1458,335.27512,71,60,40
335.27512,335.40442,72,60,40
335.40442,335.53375,74,60,40
335.53375,335.66306,73,60,40
335.66306,335.79236,74,60,40
335.79236,335.9163,66,60,40
335.92166,336.43353,67,60,40
336.4389,336.95078,67,60,40
337.4734,337.98526,67,60,40
338.5361,339.18243,67,60,40
338.5361,339.18243,72,60,40
339.19025,339.34024,69,60,40
339.34024,339.48312,68,61,40
339.48312,339.61584,69,62,40
339.61584,339.73566,65,68,40
339.74084,339.92316,65,65,40
339.99084,340.17316,65,68,40
340.24084,340.36584,65,71,40
340.36584,340.49518,64,73,40
340.49518,340.62448,65,74,40
340.75378,340.94235,65,77,40
341.01242,341.201,65,80,40
341.27103,341.40033,65,83,40
341.40033,341.52963,64,84,40
341.52963,341.65897,65,86,40
341.65897,341.78287,62,87,40
341.78827,341.97684,62,89,40
342.04688,342.23547,62,92,40
342.3055,342.4348,62,95,40
342.4348,342.56412,61,96,40
342.56412,342.69345,62,98,40
342.69345,342.81735,59,99,40
342.82275,343.0216,59,100,40
343.0955,343.31424,57,110,40
343.39548,343.68924,69,110,40
343.99548,344.2892,68,110,40
344.44547,344.5955,71,60,40
344.5955,344.99548,76,60,40
345.19547,345.5955,76,60,40
345.79547,346.60797,76,60,40
346.61365,346.75003,74,60,40
346.75003,346.8807,72,60,40
346.88638,347.08524,72,60,40
347.15912,347.35797,72,60,40
347.43182,347.5682,72,60,40
347.5682,347.70456,74,60,40
347.70456,347.97162,72,60,40
347.9773,348.51706,72,60,40
348.52274,348.72162,71,60,40
348.79547,348.99432,71,60,40
349.0682,349.26706,71,60,40
349.3409,349.5398,71,60,40
349.61365,349.75003,71,60,40
349.75003,349.88638,72,60,40
349.88638,350.1534,71,60,40
350.15912,350.35098,69,60,40
350.42227,350.61417,67,60,40
350.68542,350.81702,67,60,40
350.81702,350.94858,65,60,40
350.94858,351.20627,64,60,40
351.21173,351.40363,72,60,40
351.21173,351.40363,67,60,40
351.47488,351.67377,67,60,40
351.74762,352.04138,67,60,40
352.0476,352.37402,66,60,40
352.38095,352.7689,67,60,40
352.7689,352.89282,62,62,40
352.8982,353.28613,65,63,40
353.28613,353.41006,59,66,40
353.41544,353.80338,67,67,40
353.80338,353.92728,55,70,40
353.93268,354.32062,67,70,40
354.32062,354.44452,64,73,40
354.44992,354.83127,67,74,40
354.83127,354.9531,65,77,40
354.9584,355.33975,67,78,40
355.33975,355.46158,65,80,40
355.46686,355.84824,67,81,40
355.84824,355.97003,60,84,40
355.97534,356.3567,72,85,40
356.3567,356.47852,65,88,40
356.48383,356.85883,72,89,40
356.85883,356.9786,66,91,40
356.98383,357.35883,72,92,40
357.35883,357.4786,64,95,40
357.48383,357.85883,64,96,40
357.85883,357.9786,70,99,40
357.98383,358.35883,70,100,40
358.35883,358.4786,69,102,40
358.48383,358.85883,69,103,40
358.85883,358.9786,62,106,40
358.98383,359.37173,62,107,40
359.37173,359.49567,63,110,40
359.50107,359.91016,63,110,40
359.91016,360.0539,64,110,40
360.06015,360.56015,64,95,40
360.56015,360.73984,65,80,40
360.92007,361.0871,69,60,40
361.09247,361.2595,67,60,40
361.2649,361.77673,60,60,40
361.95453,362.12158,69,60,40
362.12695,362.29398,67,60,40
362.29938,362.81122,60,60,40
362.989,363.15604,69,60,40
363.16144,363.32846,67,60,40
363.33386,363.8457,59,60,40
364.0235,364.19052,69,60,40
364.19592,364.36295,67,60,40
364.36835,364.8802,59,60,40
365.05798,365.225,69,60,40
365.2304,365.39743,67,60,40
365.4028,365.91467,60,60,40
366.09247,366.2595,69,60,40
366.2649,366.43192,67,60,40
366.4373,366.94916,60,60,40
367.12695,367.29398,69,60,40
367.29938,367.4664,67,60,40
367.47177,367.98364,59,60,40
368.16144,368.32846,67,60,40
368.33386,368.5009,66,60,40
368.50626,369.01813,60,60,40
369.19592,369.36295,69,60,40
369.36832,369.53537,67,60,40
369.54074,370.05258,59,60,40
370.2304,370.40182,69,60,40
370.4075,370.58365,67,60,40
370.58932,371.1661,60,60,40
371.34476,371.51178,69,62,40
371.51718,371.6842,67,65,40
371.6896,372.20145,60,68,40
372.37924,372.54626,62,79,40
372.55167,372.7187,60,81,40
372.72406,373.23593,60,84,40
373.41373,373.58075,74,88,40
373.58615,373.75317,72,85,40
373.75854,374.27042,65,82,40
374.4482,374.61523,74,71,40
374.62064,374.78766,72,68,40
374.79303,375.338,65,65,40
375.5225,375.69547,74,60,40
375.70105,375.87405,72,60,40
375.87964,376.40976,64,60,40
376.5939,376.7669,72,60,40
376.7725,376.94547,71,60,40
376.95105,377.4812,65,60,40
377.66235,377.82382,74,60,40
377.82904,377.99048,72,60,40
377.9957,378.49048,64,60,40
378.66235,378.82382,72,60,40
378.82904,378.99048,71,60,40
378.9957,379.24048,62,60,40
379.2457,379.3707,77,60,40
379.3707,379.49048,74,60,40
379.4957,379.99048,72,60,40
379.9957,380.49048,65,60,40
380.4957,380.99048,64,60,40
379.9957,381.49048,55,60,40
380.9957,381.49048,65,60,40
381.4957,381.99048,55,60,40
381.9957,382.2457,67,60,40
382.2457,382.3707,69,60,40
382.3707,382.4957,71,60,40
382.4957,382.7457,72,60,40
382.7457,382.8707,74,60,40
382.8707,382.9957,72,60,40
382.9957,383.2457,71,60,40
383.2457,383.3707,72,60,40
383.3707,383.49048,74,60,40
383.4957,383.74048,76,60,40
383.7457,384.1207,64,62,40
384.1207,384.2457,55,67,40
384.2457,384.3707,64,68,40
384.3707,384.4957,62,70,40
384.4957,384.74048,60,71,40
384.7457,385.1207,72,74,40
385.1207,385.2457,60,79,40
385.2457,385.3707,72,80,40
385.3707,385.49048,71,81,40
385.4957,385.74048,69,83,40
385.7457,386.1207,81,86,40
386.1207,386.2457,69,90,40
386.2457,386.3707,81,92,40
386.3707,386.4957,79,93,40
386.4957,386.6207,77,95,40
386.6207,386.7457,79,96,40
386.7457,386.875,77,98,40
386.875,387.0043,76,99,40
387.0043,387.1407,74,100,40
387.1407,387.27704,73,90,40
387.27704,387.42703,74,80,40
387.42703,387.5708,71,70,40
387.57706,388.07184,76,60,40
388.07706,388.57184,74,60,40
388.57706,389.07184,72,60,40
389.07706,389.57184,67,60,40
389.57706,389.82706,72,60,40
389.82706,389.95206,74,60,40
389.95206,390.07706,72,60,40
390.07706,390.32706,71,60,40
390.32706,390.45206,72,60,40
390.45206,390.57706,74,60,40
390.57706,390.82706,76,60,40
390.82706,390.95206,77,60,40
390.95206,391.07706,76,60,40
391.07706,391.32706,74,60,40
391.32706,391.45206,76,60,40
391.45206,391.57184,77,60,40
391.57706,391.82706,79,60,40
391.82706,392.20206,67,62,40
392.20206,392.32706,55,66,40
392.32706,392.45206,67,67,40
392.45206,392.57706,65,69,40
392.57706,392.82706,64,70,40
392.82706,393.20206,76,73,40
393.20206,393.32706,64,77,40
393.32706,393.45206,76,78,40
393.45206,393.57706,74,79,40
393.57706,393.82706,72,81,40
393.82706,394.20206,69,83,40
394.20206,394.32706,57,87,40
394.32706,394.45206,69,89,40
394.45206,394.57706,67,90,40
394.57706,394.69684,65,91,40
394.70206,394.82184,79,93,40
394.82706,394.94684,77,94,40
394.95206,395.07184,76,95,40
395.07706,395.19684,74,96,40
395.20206,395.32184,72,98,40
395.32706,395.44684,71,99,40
395.45206,395.57184,69,100,40
395.57706,395.69684,67,110,40
395.70206,395.82184,69,110,40
395.82706,395.94684,71,110,40
395.95206,396.07184,72,110,40
396.07706,396.19684,74,110,40
396.20206,396.32184,72,110,40
396.32706,396.44684,71,110,40
396.45206,396.57184,69,110,40
396.57706,396.69684,67,110,40
396.70206,396.82184,69,110,40
396.82706,396.94684,71,110,40
396.95206,397.07184,72,110,40
397.07706,397.19684,74,110,40
397.20206,397.32184,76,110,40
397.32706,397.44684,77,110,40
397.45206,397.57184,79,110,40
397.57706,398.07184,79,110,40
398.57706,398.69684,84,120,40
398.70206,398.82184,83,120,40
398.82706,398.95096,81,120,40
398.95636,399.0803,79,120,40
399.08566,399.21634,77,110,40
399.22202,399.35272,76,98,40
399.3584,399.50214,74,85,40
399.5084,399.65213,72,73,40
399.6584,400.1773,72,60,40
400.18268,400.69455,62,60,40
400.18268,400.69455,72,60,40
400.69992,401.2118,62,60,40
401.21716,401.72903,67,60,40
401.21716,401.72903,59,60,40
401.7344,402.24628,60,60,40
401.7344,402.24628,67,60,40
402.25165,402.7635,78,60,40
402.7689,403.28073,79,60,40
403.28613,403.79797,83,60,40
403.80338,403.93268,86,60,40
403.93268,404.06198,84,60,40
404.06198,404.1913,83,60,40
404.1913,404.32062,84,60,40
404.32062,404.44992,83,60,40
404.44992,404.57922,84,61,40
404.57922,404.70856,83,63,40
404.70856,404.83246,81,64,40
404.83786,404.96716,81,66,40
404.96716,405.09647,79,67,40
405.09647,405.2258,78,69,40
405.2258,405.3497,79,70,40
405.3551,405.4844,79,72,40
405.4844,405.6137,77,73,40
405.6137,405.74304,76,75,40
405.74304,405.86694,74,76,40
405.87234,406.00165,77,78,40
406.00165,406.13095,76,79,40
406.13095,406.26025,74,81,40
406.26025,406.3842,72,82,40
406.3896,406.5189,72,84,40
406.5189,406.6482,71,85,40
406.6482,406.7775,69,87,40
406.7775,406.90143,67,88,40
406.90683,407.03613,64,90,40
407.03613,407.16544,65,91,40
407.16544,407.29474,67,93,40
407.29474,407.42407,69,94,40
407.42407,407.55798,71,96,40
407.55798,407.69193,72,97,40
407.69193,407.83344,74,99,40
407.83344,407.96906,77,100,40
407.97495,408.34995,76,110,40
408.34995,408.46973,65,110,40
408.47495,408.84995,71,110,40
408.84995,408.96973,62,110,40
408.97495,409.36966,68,110,40
409.36966,409.49576,65,110,40
409.50125,409.95126,74,100,40
409.95126,410.13095,76,90,40
410.13876,411.22397,63,60,40
411.22964,412.4234,59,60,40
412.42966,412.80466,64,110,40
412.80466,412.92444,65,110,40
412.92966,413.30466,62,110,40
413.30466,413.42444,65,110,40
413.42966,413.8244,65,110,40
413.8244,413.9505,68,110,40
413.95596,414.40598,74,100,40
414.40598,414.58566,72,90,40
414.59348,415.6787,72,60,40
415.6844,416.87814,60,60,40
415.6844,416.87814,64,60,40
416.88437,417.9696,63,60,40
417.97528,419.0975,71,60,40
419.10376,420.29752,60,100,40
420.30377,421.6168,71,100,40
420.30377,421.6168,65,100,40
421.6246,421.87784,60,101,40
422.14185,422.40887,60,60,40
422.6873,422.96442,60,60,40
423.25333,423.53046,62,100,40
424.3854,424.94556,62,60,40
426.45145,426.71848,62,60,40
426.9969,427.27402,60,60,40
427.56293,427.84006,64,100,40
428.695,429.25516,70,60,40
430.26105,430.51428,64,70,40
430.7783,431.04532,60,80,40
431.32373,431.6175,69,90,40
431.92374,432.29092,68,100,40
432.67374,434.66852,74,60,40
434.67374,437.18558,72,60,40
437.19098,437.57892,69,60,40
437.57892,437.70822,71,60,40
437.70822,438.22006,72,60,40
438.22546,438.6134,71,60,40
438.6134,438.7373,69,60,40
438.7427,439.25455,69,60,40
439.25995,440.28903,68,60,40
440.29443,440.80627,56,60,40
440.81168,442.87524,57,60,40
442.8806,443.90973,56,60,40
443.9151,445.46146,72,60,40
445.46683,445.85477,69,60,40
445.85477,445.98407,71,60,40
445.98407,446.49594,72,60,40
446.5013,446.88925,71,60,40
446.88925,447.01315,69,60,40
447.01855,447.5304,69,60,40
447.5358,448.56488,68,60,40
448.57028,448.95822,68,60,40
448.95822,449.08212,59,60,40
449.08752,449.59937,59,60,40
449.60477,449.9927,62,60,40
449.9927,450.122,60,60,40
450.122,450.63385,59,60,40
450.63925,451.02716,60,60,40
451.02716,451.1511,62,60,40
451.1565,451.66833,59,60,40
451.67374,452.06165,60,73,40
452.06165,452.19098,62,83,40
452.19098,452.70282,64,87,40
452.70822,453.09613,62,100,40
453.09613,453.22006,60,100,40
453.22543,453.7373,60,110,40
453.74268,454.1306,72,110,40
454.1306,454.25992,71,110,40
454.25992,454.7718,69,110,40
454.77716,455.1651,71,110,40
455.1651,455.28903,72,110,40
455.81165,456.1996,74,110,40
456.1996,456.3289,72,110,40
456.3289,456.84076,71,110,40
456.84613,457.23407,72,110,40
457.23407,457.358,74,110,40
457.36337,457.8752,74,110,40
457.8806,458.9097,59,110,40
457.8806,458.9097,62,110,40
458.9151,459.3169,71,110,40
459.3169,459.44522,68,110,40
459.4508,459.98096,71,110,40
459.98654,461.05237,69,100,40
461.05795,461.45975,77,83,40
461.45975,461.58807,75,80,40
461.59366,462.1238,77,60,40
462.1294,463.19522,76,60,40
463.2008,463.73096,61,60,40
463.7365,465.8738,62,60,40
465.8794,468.01666,64,60,40
468.02225,469.08807,65,60,40
469.09366,470.1408,64,66,40
470.1463,471.17538,62,73,40
471.1808,472.1924,63,80,40
472.19772,472.5367,65,110,40
472.7062,473.0452,64,91,40
473.21466,473.548,62,94,40
473.71466,474.048,72,98,40
474.21466,474.548,71,110,40
474.71466,475.048,69,110,40
475.21466,475.548,67,110,40
475.71466,476.0642,65,110,40
476.24603,476.60965,56,110,40
479.3824,479.51306,72,60,40
479.51874,479.8824,77,60,40
480.0642,480.42783,77,60,40
480.60965,481.42215,77,60,40
481.42783,481.5642,76,60,40
481.5642,481.6949,74,60,40
481.70056,481.8994,74,60,40
481.9733,482.17215,74,60,40
482.246,482.3824,74,60,40
482.3824,482.51874,76,60,40
482.51874,482.7858,74,60,40
482.79147,483.33124,74,60,40
483.3369,483.8767,72,60,40
483.8824,484.1494,76,60,40
484.1551,484.42215,76,60,40
484.42783,484.6949,76,60,40
484.70056,484.9676,76,60,40
484.9733,485.25632,75,60,40
485.25632,485.53342,76,60,40
485.5393,485.68082,72,60,40
485.68082,485.82233,74,60,40
485.82233,486.09946,72,60,40
486.10535,486.38837,72,60,40
486.38837,486.6655,71,60,40
486.9714,487.3386,75,60,40
487.3464,487.7555,75,60,40
487.7555,487.88617,76,62,40
487.89185,488.08716,76,63,40
488.1597,488.355,75,65,40
488.42755,488.8155,75,67,40
488.8155,488.93942,76,70,40
488.9448,489.1334,76,70,40
489.20343,489.392,76,72,40
489.46204,489.83704,76,74,40
489.83704,489.95685,77,77,40
489.96204,490.14435,77,78,40
490.21204,490.39435,76,80,40
490.46204,490.83704,76,81,40
490.83704,490.95685,77,84,40
490.96204,491.14435,77,85,40
491.21204,491.39435,72,87,40
491.46204,491.83704,72,89,40
491.83704,491.95685,64,91,40
491.96204,492.33704,70,92,40
492.33704,492.45685,69,95,40
492.46204,492.83704,69,96,40
492.83704,492.95685,75,99,40
492.96204,493.33704,69,100,40
493.33704,493.45685,74,102,40
493.46204,493.83704,74,103,40
493.83704,493.95685,71,106,40
493.96204,494.34998,62,107,40
494.34998,494.4739,72,110,40
494.47928,494.88837,69,110,40
494.88837,495.03214,72,110,40
495.0384,495.5384,60,95,40
495.5384,495.71808,62,80,40
495.5384,495.71808,64,80,40
495.91455,496.09735,59,60,40
496.10324,496.286,57,60,40
496.2919,497.52164,64,60,40
497.527,497.69406,59,60,40
497.69943,497.86646,57,60,40
497.87186,498.03888,64,60,40
498.04425,498.2113,57,60,40
498.21667,498.3837,56,60,40
498.3891,498.90094,64,60,40
499.07874,499.24576,57,60,40
499.25116,499.41818,56,60,40
499.42358,499.93542,68,60,40
500.11322,500.28024,59,60,40
500.28564,500.45267,57,60,40
500.45807,500.9699,64,60,40
501.1477,501.31473,59,60,40
501.32013,501.48715,57,60,40
501.49252,502.0044,64,60,40
502.1822,502.3492,66,60,40
502.3546,502.52164,64,60,40
502.527,503.03888,76,60,40
503.21667,503.3837,76,60,40
503.3891,503.55612,75,60,40
503.5615,503.72852,78,60,40
503.73392,503.90094,75,60,40
503.90634,504.07336,69,60,40
504.07874,504.24576,68,60,40
504.25116,504.41818,64,60,40
504.42355,504.5906,63,60,40
504.59598,504.763,61,60,40
504.7684,504.93542,59,60,40
504.9408,505.10785,57,60,40
505.11322,505.6251,56,60,40
506.32013,506.48715,59,67,40
506.49252,506.65955,57,70,40
506.66495,507.1768,69,73,40
507.3546,507.52164,59,85,40
507.527,507.69403,57,88,40
507.69943,508.21127,69,90,40
508.38907,508.55612,59,83,40
508.5615,508.72852,57,81,40
508.73392,509.24576,69,78,40
509.42355,509.59058,59,69,40
509.59598,509.763,57,67,40
509.7684,510.28024,69,64,40
510.45804,510.62506,59,60,40
510.63046,510.7975,57,60,40
510.8029,511.31473,64,60,40
511.49554,511.667,57,60,40
511.67255,511.84555,56,60,40
511.85114,512.4114,64,60,40
512.5992,512.7753,59,60,40
512.781,512.95715,57,60,40
512.9628,513.5026,64,60,40
513.6901,513.86945,57,60,40
513.87537,514.0581,56,60,40
514.064,514.7312,64,60,40
515.5572,515.69354,75,50,40
515.69354,515.82996,69,50,40
515.82996,515.9663,75,50,40
515.9663,516.10266,69,50,40
516.10266,516.239,75,50,40
516.239,516.37537,69,50,40
516.37537,516.5117,75,50,40
516.5117,516.64813,69,50,40
516.64813,516.7845,75,50,40
516.7845,516.92084,69,50,40
517.739,517.87537,59,50,40
517.87537,518.0117,56,50,40
518.0117,518.14813,59,50,40
518.14813,518.2845,56,50,40
518.2845,518.42084,59,50,40
518.42084,518.5572,56,50,40
518.5572,518.69354,59,50,40
518.69354,518.82996,56,50,40
518.82996,518.9663,59,50,40
518.9663,519.10266,56,50,40
519.10266,521.2788,68,50,40
522.10266,522.239,72,70,40
522.239,522.37537,69,73,40
522.37537,522.5117,72,77,40
522.5117,522.64813,69,80,40
522.64813,522.7845,72,83,40
522.7845,522.92084,69,87,40
522.92084,523.0623,72,90,40
523.0623,523.20386,69,94,40
523.20386,523.3538,72,97,40
523.3538,523.50385,69,100,40
523.50385,523.6539,72,110,40
523.6539,523.7789,60,110,40
523.7789,523.9039,69,110,40
523.9039,524.0289,60,110,40
524.0289,524.1539,69,110,40
524.1539,524.2789,60,110,40
524.2789,524.4039,69,110,40
524.4039,524.5289,60,110,40
524.5289,524.6539,69,110,40
524.6539,524.7789,60,110,40
524.7789,524.9039,69,110,40
524.9039,525.0289,60,110,40
525.0289,525.1539,69,110,40
525.1539,525.2789,60,110,40
525.2789,525.4039,69,110,40
525.4039,525.5236,60,110,40
525.5289,525.6539,69,110,40
525.6539,525.7789,60,110,40
525.7789,525.9039,69,110,40
525.9039,526.0289,60,110,40
526.0289,526.1539,71,110,40
526.1539,526.2789,68,110,40
526.2789,526.4039,71,110,40
526.4039,526.5289,68,110,40
526.5289,526.6539,71,110,40
526.6539,526.7789,68,110,40
526.7789,526.9039,71,110,40
526.9039,527.0289,68,110,40
527.0289,527.1539,71,110,40
527.1539,527.2789,68,110,40
527.2789,527.4039,71,110,40
527.4039,527.5236,68,110,40
527.5289,527.6539,71,110,40
527.6539,527.7789,68,110,40
527.7789,527.9039,71,110,40
527.9039,528.0289,68,110,40
528.0289,528.1539,71,110,40
528.1539,528.2789,68,110,40
528.2789,528.4039,71,110,40
528.4039,528.5289,68,110,40
528.5289,528.6539,71,110,40
528.6539,528.7789,68,110,40
528.7789,528.9039,71,110,40
528.9039,529.0289,68,110,40
529.0289,529.1539,71,110,40
529.1539,529.2789,68,110,40
529.2789,529.4039,71,110,40
529.4039,529.5236,68,110,40
529.5289,529.6539,72,125,40
529.6539,529.7789,64,110,40
529.7789,529.9039,72,110,40
529.9039,530.0289,64,110,40
530.0289,530.1539,72,110,40
530.1539,530.2789,64,110,40
530.2789,530.4039,72,110,40
530.4039,530.5289,64,110,40
530.5289,530.6539,72,110,40
530.6539,530.7789,64,110,40
530.7789,530.9039,72,110,40
530.9039,531.0289,64,110,40
531.0289,531.1539,71,110,40
531.1539,531.2789,68,110,40
531.2789,531.4039,71,110,40
531.4039,531.5236,68,110,40
531.5289,531.6539,72,125,40
531.6539,531.7789,64,110,40
531.7789,531.9039,72,110,40
531.9039,532.0289,64,110,40
532.0289,532.1539,72,110,40
532.1539,532.2789,64,110,40
532.2789,532.4039,72,110,40
532.4039,532.5289,64,110,40
532.5289,532.6539,72,110,40
532.6539,532.7789,64,110,40
532.7789,532.9039,72,110,40
532.9039,533.0289,64,110,40
533.0289,533.1539,71,110,40
533.1539,533.2789,68,110,40
533.2789,533.4039,71,110,40
533.4039,533.5236,68,110,40
533.5289,534.4916,69,110,40
535.46436,535.5853,77,125,40
535.5853,535.70624,65,110,40
535.70624,535.8272,77,110,40
535.8272,535.9482,65,110,40
535.9482,536.06915,77,110,40
536.06915,536.1901,65,110,40
536.1901,536.3111,77,110,40
536.3111,536.427,65,110,40
537.3998,537.52075,59,60,40
537.52075,537.6417,55,60,40
537.6417,537.7627,57,60,40
537.7627,537.88367,55,60,40
537.88367,538.00464,57,60,40
538.00464,538.1256,55,60,40
538.1256,538.2466,57,60,40
538.2466,538.3625,55,60,40
538.36755,538.4885,65,60,40
538.4885,538.6095,57,61,40
538.6095,538.73047,65,63,40
538.73047,538.85144,57,65,40
538.85144,538.9724,65,67,40
538.9724,539.0934,57,68,40
539.0934,539.2143,65,70,40
539.2143,539.33026,57,72,40
539.33527,539.45624,69,74,40
539.45624,539.5772,60,76,40
539.5772,539.6982,69,77,40
539.6982,539.81915,60,79,40
539.81915,539.9401,69,81,40
539.9401,540.0611,60,83,40
540.0611,540.18207,69,84,40
540.18207,540.298,60,86,40
540.30304,540.424,68,88,40
540.424,540.545,59,90,40
540.545,540.66595,68,92,40
540.66595,540.7869,59,93,40
540.7869,540.9079,68,95,40
540.9079,541.0288,59,97,40
541.0288,541.1498,68,99,40
541.1498,541.26575,59,100,40
541.27075,541.3917,58,125,40
541.3917,541.5127,55,110,40
541.5127,541.63367,57,110,40
541.63367,541.75464,55,110,40
541.75464,541.8756,57,110,40
541.8756,541.9966,55,110,40
541.9966,542.11755,57,110,40
542.11755,542.23346,55,110,40
542.2385,542.3595,65,125,40
542.3595,542.48047,57,110,40
542.48047,542.60144,65,110,40
542.60144,542.72235,57,110,40
542.72235,542.8433,65,110,40
542.8433,542.9643,57,110,40
542.9643,543.08527,65,110,40
543.08527,543.20123,57,110,40
543.20624,543.3272,69,110,40
543.3272,543.4482,60,110,40
543.4482,543.56915,69,110,40
543.56915,543.68506,60,110,40
543.6901,543.8151,72,110,40
543.8151,543.9401,69,110,40
543.9401,544.0651,72,110,40
544.0651,544.1901,69,110,40
544.1901,544.31946,72,110,40
544.31946,544.4487,69,110,40
544.4487,544.57806,72,110,40
544.57806,544.70197,69,110,40
544.70734,544.84375,71,110,40
544.84375,544.9801,68,110,40
544.9801,545.13007,71,110,40
545.13007,545.27386,68,110,40
545.2801,547.42645,77,120,40
547.4318,551.15704,76,115,40
551.1627,552.2855,75,60,40
552.2912,554.4874,76,60,40
554.4932,556.61835,74,60,40
556.6253,558.01337,72,50,40
558.0206,559.5128,71,50,40
559.5206,561.38586,69,50,40
561.3956,563.63,68,40,40
565.6749,567.66974,68,47,40
567.6749,567.7999,71,54,40
567.7999,567.9249,68,54,40
567.9249,568.0499,71,55,40
568.0499,568.1749,68,55,40
568.1749,568.2999,71,56,40
568.2999,568.4249,68,56,40
568.4249,568.5499,71,56,40
568.5499,568.6749,68,57,40
568.6749,568.7999,71,57,40
568.7999,568.9249,68,58,40
568.9249,569.0499,71,58,40
569.0499,569.1749,68,59,40
569.1749,569.2999,71,59,40
569.2999,569.4249,68,60,40
569.4249,569.5499,71,60,40
569.5499,569.66974,68,60,40
569.6749,571.75006,71,120,40
569.6749,571.75006,80,120,40
571.7563,572.02606,69,110,40
571.7563,572.02606,81,110,40
572.2813,572.52606,81,110,40
572.2813,572.52606,69,110,40
572.7813,573.02606,81,110,40
572.7813,573.02606,69,110,40
573.2813,573.52606,81,110,40
573.2813,573.52606,69,110,40
573.7813,574.1563,81,110,40
574.1563,574.27606,83,110,40
574.2813,575.27606,84,126,40
575.2813,575.77606,83,110,40
575.7813,576.02606,69,110,40
575.7813,576.02606,81,110,40
576.2813,576.52606,81,110,40
576.2813,576.52606,69,110,40
576.7813,577.02606,81,110,40
576.7813,577.02606,69,110,40
577.2813,577.52606,81,110,40
577.2813,577.52606,69,110,40
577.7813,578.1563,81,110,40
578.1563,578.27606,83,110,40
578.2813,579.27606,84,126,40
579.2813,579.77606,83,110,40
579.7813,580.1146,72,110,40
579.7813,580.1146,81,110,40
580.7813,581.1146,83,110,40
580.7813,581.1146,71,110,40
581.7813,582.1146,72,110,40
581.7813,582.1146,84,110,40
582.7813,583.1175,88,110,40
583.97565,584.5694,60,124,40
583.97565,584.5694,64,124,40
583.97565,584.5694,69,124,40
0.0,0.5875,57,1,41
4.8,7.1875,57,40,41
7.2,9.5875,56,45,41
9.6,11.9875,60,50,41
12.0,14.3875,59,50,41
14.4,16.7875,51,90,41
16.8,19.452778,52,90,41
19.466665,21.854166,71,50,41
21.866667,24.254166,72,50,41
24.266666,26.654165,62,50,41
26.666666,29.054167,60,50,41
29.066666,31.454166,54,90,41
31.466665,34.119442,56,90,41
34.13333,36.78611,57,50,41
36.8,38.284374,56,90,41
38.3,40.155468,59,100,41
38.3,40.155468,56,100,41
40.175,40.555695,53,110,41
40.175,40.555695,55,110,41
43.05683,43.671413,52,70,41
48.009605,48.603355,52,70,41
48.609608,51.003357,53,70,41
51.009605,53.40336,52,70,41
53.409607,56.40336,52,70,41
56.409607,56.859608,59,83,41
56.859608,57.009605,56,93,41
57.009605,57.628098,59,97,41
57.634605,58.895023,57,110,41
58.90127,60.095024,64,110,41
60.101273,60.760994,64,110,41
62.56794,63.71771,58,92,41
62.56794,63.71771,62,92,41
63.723495,64.11823,53,110,41
64.11823,64.24432,50,110,41
64.24981,64.64455,50,110,41
64.64455,64.770645,58,110,41
64.77612,65.17086,58,110,41
65.17086,65.29696,57,110,41
65.30244,65.63577,56,110,41
65.80244,66.14727,55,110,41
66.31968,66.69005,54,110,41
66.87524,67.30023,53,110,41
66.87524,67.30023,57,110,41
67.55023,71.63773,57,110,41
71.65024,72.14283,56,60,41
77.36188,77.77854,53,60,41
77.77854,77.911644,52,60,41
77.91743,78.4672,52,60,41
78.472984,78.88965,53,60,41
78.88965,79.02275,52,60,41
79.02854,79.57831,52,60,41
79.5841,80.00076,62,60,41
80.00076,80.133865,59,60,41
80.13965,80.689415,62,60,41
80.695206,81.80053,60,60,41
81.80631,82.35609,59,60,41
82.36187,84.02275,60,60,41
84.028534,84.59945,61,60,41
84.60546,86.266335,62,60,41
86.272125,86.82189,62,92,41
86.272125,86.82189,59,92,41
86.82768,87.22241,62,110,41
87.22241,87.34851,58,110,41
87.354,87.729,58,110,41
87.729,87.848785,53,110,41
87.854,88.229,53,110,41
88.229,88.348785,50,110,41
88.354,88.729,50,110,41
88.729,88.848785,58,110,41
88.854,89.348785,49,110,41
89.354,89.729,55,110,41
89.729,89.854,56,110,41
89.854,90.348785,58,110,41
90.354,90.729,55,110,41
90.729,90.848785,53,110,41
90.854,91.348785,53,110,41
91.354,92.848785,52,105,41
92.854,93.348785,58,110,41
93.354,93.729,55,110,41
93.729,93.854,56,110,41
93.854,94.348785,58,110,41
94.354,94.729,55,110,41
94.729,94.848785,53,110,41
94.854,95.348785,53,110,41
95.354,96.365845,52,102,41
96.37123,96.93771,64,86,41
97.461205,97.97305,64,60,41
98.49568,99.00754,60,60,41
99.53017,100.04202,60,60,41
100.56465,101.0765,60,60,41
101.59913,102.110985,55,60,41
102.63361,103.14546,72,60,41
103.6681,104.17995,69,60,41
104.702576,105.21443,65,60,41
105.21982,105.34913,62,60,41
105.34913,105.47844,61,61,41
105.47844,105.60775,62,62,41
105.60775,105.731674,58,64,41
105.73706,105.92564,58,65,41
105.99568,106.18426,58,68,41
106.2543,106.38142,58,71,41
106.38142,106.50854,57,73,41
106.50854,106.63566,58,74,41
106.63566,106.75748,55,76,41
106.76277,106.94816,55,77,41
107.01701,107.20239,55,80,41
107.27125,107.39625,55,83,41
107.39625,107.52125,54,84,41
107.52125,107.64625,55,86,41
107.64625,107.76604,52,87,41
107.77125,107.95354,52,89,41
108.02125,108.20354,52,92,41
108.27125,108.39625,52,95,41
108.39625,108.52125,51,96,41
108.52125,108.64625,52,98,41
108.64625,108.76604,48,99,41
108.77125,108.95982,48,100,41
109.02987,109.22873,58,110,41
109.3026,109.57972,62,110,41
109.88561,110.17937,61,110,41
112.62847,114.63182,57,60,41
114.6374,114.771324,64,60,41
114.771324,115.12847,73,60,41
115.30704,115.56931,73,60,41
115.708824,115.84275,69,60,41
115.84275,116.1999,74,60,41
116.37847,116.73561,74,60,41
116.914185,117.1095,74,60,41
117.18204,117.37735,74,60,41
117.4499,117.583824,74,60,41
117.583824,117.71775,72,60,41
117.71775,117.98003,74,60,41
117.98561,118.24423,55,60,41
118.24423,118.49746,48,61,41
118.50285,118.761475,67,63,41
118.761475,119.0147,60,65,41
119.02009,119.27871,65,67,41
119.27871,119.531944,60,69,41
119.53733,119.79595,69,70,41
119.79595,120.04919,57,72,41
120.05457,120.313194,67,74,41
120.313194,120.56643,60,76,41
120.571815,120.83044,60,78,41
120.83044,121.08367,55,80,41
121.08906,121.34768,60,81,41
121.34768,121.60091,53,83,41
121.6063,121.864914,65,85,41
121.864914,122.11815,57,87,41
122.123535,122.38216,65,89,41
122.38216,122.63539,62,90,41
122.64078,122.8994,65,92,41
122.8994,123.15263,60,94,41
123.15802,123.41664,65,96,41
123.41664,123.669876,58,98,41
123.67526,123.93388,58,100,41
123.93388,124.18711,53,101,41
124.192505,124.45112,62,103,41
124.45112,124.70435,53,105,41
124.70974,124.96836,62,107,41
124.96836,125.221596,55,109,41
125.22698,125.49971,65,110,41
125.49971,125.766754,57,110,41
125.77244,126.07244,58,100,41
126.07244,126.43963,52,80,41
126.614105,126.775566,50,60,41
126.78077,126.94223,48,60,41
126.94744,127.44223,57,60,41
127.614105,127.775566,50,60,41
127.78077,127.94223,48,60,41
127.94744,128.44223,57,60,41
128.6141,128.77556,50,60,41
128.78078,128.94223,48,60,41
128.94743,129.44223,60,60,41
129.6141,129.77556,50,60,41
129.78078,129.94223,48,60,41
129.94743,130.44223,60,60,41
130.6141,130.77556,50,60,41
130.78078,130.94223,48,60,41
130.94743,131.44223,60,60,41
131.6141,131.77556,50,60,41
131.78078,131.94223,48,60,41
131.94743,132.44223,57,60,41
132.6141,132.77556,50,60,41
132.78078,132.94223,48,60,41
132.94743,133.44223,55,60,41
133.6141,133.77556,50,60,41
133.78078,133.94223,48,60,41
134.6141,134.77556,53,60,41
134.78078,134.94223,52,60,41
134.94743,135.44223,60,60,41
135.61986,135.78688,57,60,41
135.79227,135.95929,55,60,41
135.96468,136.51453,64,60,41
136.69284,136.85716,67,63,41
136.86238,137.02383,65,67,41
137.02904,137.52383,72,70,41
137.69571,137.85716,58,85,41
137.86238,138.02383,57,89,41
138.02904,138.52383,65,92,41
138.69571,138.85716,60,88,41
138.86238,139.02383,58,85,41
139.02904,139.52383,65,82,41
139.69571,139.85716,60,71,41
139.86238,140.02383,58,68,41
140.02904,140.52383,65,65,41
140.69571,140.85716,58,60,41
140.86238,141.02383,57,60,41
141.02904,141.52383,65,60,41
141.69571,141.85716,60,60,41
141.86238,142.02383,58,60,41
142.02904,142.52383,58,60,41
142.02904,142.52383,67,60,41
143.19571,143.35716,62,60,41
143.36238,143.52383,60,60,41
143.52904,144.02383,55,60,41
144.19571,144.35716,62,60,41
144.36238,144.52383,60,60,41
144.52904,145.02383,69,60,41
145.02904,145.52383,70,60,41
145.52904,146.02383,72,60,41
146.02904,146.52383,64,60,41
146.52904,147.02383,60,60,41
147.02904,147.52383,58,60,41
147.52904,148.02383,57,60,41
148.02904,148.52383,52,60,41
148.52904,148.77904,48,60,41
148.77904,148.90404,57,62,41
148.90404,149.02904,58,63,41
149.02904,149.27904,60,65,41
149.27904,149.40404,62,67,41
149.40404,149.52904,64,69,41
149.52904,149.77383,65,70,41
149.77904,149.90404,65,73,41
149.90404,150.02904,67,74,41
150.02904,150.15404,69,75,41
150.15404,150.27904,67,77,41
150.27904,150.40404,65,78,41
150.40404,150.52904,64,79,41
150.52904,150.65404,62,81,41
150.65404,150.77904,57,82,41
150.77904,150.90404,58,83,41
150.90404,151.02904,60,85,41
151.02904,151.15404,62,86,41
151.15404,151.27904,64,87,41
151.27904,151.40404,62,89,41
151.40404,151.52904,60,90,41
151.52904,151.77383,58,91,41
151.77904,151.90404,70,94,41
151.90404,152.02904,69,95,41
152.02904,152.15404,67,96,41
152.15404,152.27904,65,98,41
152.27904,152.40404,64,99,41
152.40404,152.52383,62,100,41
152.52904,152.64883,60,110,41
152.65404,152.77383,62,110,41
152.77904,152.89883,64,110,41
152.90404,153.02383,65,110,41
153.02904,153.14883,67,110,41
153.15404,153.27383,65,110,41
153.27904,153.39883,64,110,41
153.40404,153.52383,62,110,41
153.52904,153.64883,60,110,41
153.65404,153.77383,62,110,41
153.77904,153.89883,64,110,41
153.90404,154.02383,65,110,41
154.02904,154.14883,67,110,41
154.15404,154.27383,69,110,41
154.27904,154.39883,70,110,41
154.40404,154.52383,72,110,41
154.52904,154.64883,65,110,41
154.65404,154.77383,67,110,41
154.77904,154.89883,69,110,41
154.90404,155.02383,70,110,41
155.02904,155.14883,72,110,41
155.15404,155.27383,74,110,41
155.27904,155.39883,76,110,41
155.40404,155.52383,77,110,41
155.52904,157.10806,65,120,41
157.11327,157.60806,65,60,41
157.61327,158.10806,67,60,41
158.11327,158.60806,70,60,41
158.61327,159.10806,72,60,41
159.11327,159.60806,55,60,41
159.61327,160.12512,57,60,41
160.13051,160.73293,55,60,41
160.74074,161.2805,53,60,41
161.2862,161.78098,62,65,41
161.7862,162.28098,64,70,41
162.2862,162.78098,67,75,41
162.7862,163.28098,65,81,41
163.2862,163.78098,53,86,41
163.7862,163.9112,53,91,41
163.9112,164.0362,55,93,41
164.0362,164.1655,57,94,41
164.1655,164.29482,58,95,41
164.29482,164.43117,57,96,41
164.43117,164.56754,55,98,41
164.56754,164.70905,53,99,41
164.70905,164.84465,55,100,41
164.85056,165.22556,57,125,41
165.22556,165.34535,58,100,41
165.35056,165.72556,52,125,41
165.72556,165.84535,55,100,41
165.85056,166.25964,61,125,41
166.25964,166.39032,58,100,41
166.39601,166.84601,58,125,41
166.84601,166.98976,60,100,41
166.996,168.2395,56,70,41
168.246,169.57239,55,70,41
169.57935,169.95435,69,125,41
169.95435,170.07413,67,100,41
170.07935,170.45435,70,125,41
170.45435,170.57413,67,100,41
170.57935,170.98843,58,125,41
170.98843,171.11911,55,100,41
171.12479,171.5748,58,125,41
171.5748,171.71854,57,100,41
171.7248,172.96828,56,70,41
172.9748,174.30118,65,70,41
174.30812,175.39336,56,70,41
175.39903,176.52126,55,70,41
176.52751,177.72125,56,100,41
177.72751,179.02803,48,100,41
177.72751,179.02803,55,100,41
179.03584,179.32959,53,92,41
179.63583,179.90782,53,70,41
180.19139,180.46338,65,70,41
180.74695,181.01894,64,110,41
181.85806,182.40782,60,60,41
187.52472,189.51952,53,50,41
189.52472,191.51952,54,50,41
191.52472,193.51952,63,50,41
193.52472,195.51952,62,50,41
195.52472,197.51952,54,50,41
197.52472,199.51952,55,50,41
199.52472,200.01952,54,50,41
200.02472,200.39972,57,50,41
200.39972,200.52472,58,50,41
200.52472,201.01952,60,50,41
201.02472,201.51952,57,50,41
201.52472,202.01952,56,50,41
202.02472,202.39972,53,70,41
202.39972,202.52472,55,85,41
202.52472,203.03658,56,90,41
203.04196,203.3147,55,70,41
203.3147,203.58174,51,60,41
203.58742,205.58221,50,50,41
203.58742,205.58221,55,50,41
205.58742,207.08221,51,90,41
205.58742,207.08221,55,90,41
207.08742,208.09946,67,82,41
208.10466,208.47966,63,74,41
208.47966,208.60466,62,68,41
208.60466,209.11652,60,67,41
209.1219,209.52368,62,60,41
209.52368,209.65204,63,55,41
209.65761,210.16946,63,50,41
210.17485,210.54985,62,54,41
210.54985,210.67485,63,57,41
210.67485,211.16965,65,58,41
211.17485,211.54985,63,63,41
211.54985,211.66965,62,66,41
211.67485,212.16965,65,67,41
212.17485,212.54985,63,71,41
212.54985,212.67485,65,74,41
212.67485,213.16965,67,76,41
213.17485,213.54985,65,80,41
213.54985,213.66965,63,83,41
213.67485,213.92485,62,84,41
213.92485,214.16965,60,86,41
214.17485,214.54985,48,89,41
214.54985,214.67485,50,92,41
214.67485,215.16965,51,93,41
215.17485,215.56279,50,97,41
215.56279,215.6867,48,100,41
215.6921,216.03693,53,110,41
216.20934,216.56648,54,110,41
216.74506,217.12967,55,110,41
217.32198,217.76642,67,110,41
217.32198,217.76642,55,110,41
219.36365,219.48865,50,60,41
219.48865,219.86365,48,60,41
219.86365,219.98343,50,60,41
219.98865,220.23865,53,60,41
220.23865,221.23343,52,60,41
221.23865,221.48865,53,60,41
221.48865,221.875,52,60,41
221.875,222.00569,53,60,41
222.01137,222.28409,57,60,41
222.28409,223.09659,55,60,41
224.47728,224.60228,60,60,41
224.60228,224.97728,59,60,41
224.97728,225.10228,60,60,41
225.10228,225.35228,52,60,41
225.35228,226.09706,50,60,41
226.47728,226.60228,64,60,41
226.60228,226.97728,62,60,41
226.97728,227.10228,64,60,41
227.10228,227.35228,55,60,41
227.35228,228.16374,53,60,41
228.16998,228.54498,53,90,41
228.54498,228.66478,58,75,41
228.66998,228.85228,58,60,41
228.91998,229.10228,57,60,41
229.16998,229.54498,55,90,41
229.54498,229.66478,57,75,41
229.66998,229.85228,57,60,41
229.91998,230.10228,55,60,41
230.16998,230.54498,53,90,41
230.54498,230.66478,67,75,41
230.66998,230.85228,67,60,41
230.91998,231.10228,65,60,41
231.16998,231.35228,64,50,41
231.41998,231.60228,62,50,41
231.66998,231.86885,60,50,41
231.94272,232.16147,59,50,41
232.2427,234.2375,55,50,41
234.2427,236.2375,60,67,41
236.2427,236.4927,59,84,41
236.4927,236.7375,52,86,41
236.7427,237.1177,52,89,41
237.1177,237.2427,54,92,41
237.2427,237.7375,55,93,41
237.7427,238.12733,54,97,41
238.12733,238.2502,52,100,41
238.25554,238.59741,52,110,41
238.76836,239.11923,52,110,41
239.29466,239.65831,59,110,41
239.84012,240.24013,59,110,41
240.44012,242.31024,51,120,41
242.31512,244.18524,52,110,41
244.19012,246.06024,64,110,41
246.06512,247.92548,59,110,41
246.06512,247.92548,66,110,41
247.94012,250.46922,66,60,41
250.47461,250.86253,67,60,41
250.86253,250.99185,69,60,41
250.99185,251.5037,71,60,41
251.50908,251.89702,69,60,41
251.89702,252.02094,67,60,41
252.02632,252.7968,67,60,41
252.80219,253.0608,66,60,41
253.0608,253.31943,64,60,41
253.31943,253.57805,71,60,41
253.57805,253.83667,69,60,41
253.83667,254.0899,67,60,41
254.09529,254.60715,67,60,41
254.61253,255.64163,66,70,41
255.64702,256.03494,69,92,41
256.03494,256.15887,71,100,41
256.16425,256.67612,72,110,41
256.6815,257.06943,60,110,41
257.06943,257.19873,59,110,41
257.19873,257.7106,57,110,41
257.71597,258.1039,59,110,41
258.1039,258.22784,60,110,41
258.23322,258.7451,60,110,41
258.75046,259.77954,59,110,41
259.78494,260.29678,57,110,41
260.3022,260.81403,55,110,41
260.81943,261.20737,55,110,41
261.20737,261.33667,57,110,41
261.33667,261.8485,59,110,41
261.8539,262.24185,57,110,41
262.24185,262.36575,55,110,41
262.37115,262.883,55,100,41
262.8884,263.91748,54,90,41
263.92288,264.43472,60,70,41
264.44012,264.95197,60,60,41
264.95737,265.98645,59,60,41
265.99182,266.5037,55,60,41
266.50906,267.0299,55,60,41
267.0354,268.09183,54,60,41
268.0974,268.62756,53,50,41
268.63315,269.1729,52,50,41
269.1786,270.28418,51,50,41
270.29007,270.88382,48,50,41
270.89008,271.22342,59,60,41
271.39008,271.72342,57,72,41
271.89008,272.2349,55,85,41
272.40732,272.77097,54,98,41
272.95276,273.30185,63,125,41
275.93073,276.19778,59,64,41
275.93073,276.19778,69,64,41
285.46936,287.69946,63,60,41
287.70572,289.3364,64,60,41
289.34207,289.88187,66,60,41
289.88754,291.79095,67,60,41
291.79663,292.06366,68,60,41
292.06937,294.24548,69,110,41
294.25116,294.6391,65,110,41
294.6391,294.76303,60,110,41
294.7684,295.1434,60,110,41
295.1434,295.2632,57,110,41
295.2684,295.6434,57,110,41
295.6434,295.7632,53,110,41
295.7684,296.1434,53,110,41
296.1434,296.2632,52,110,41
296.2684,296.60175,51,110,41
296.7684,297.13205,60,110,41
297.31387,297.71387,59,110,41
297.91388,298.3722,58,110,41
298.6222,302.51328,59,60,41
302.52576,304.31952,59,110,41
304.32578,304.91953,54,110,41
304.92578,305.51953,52,104,41
307.32578,310.04736,52,60,41
307.32578,310.04736,55,60,41
310.05304,311.68372,53,60,41
311.6894,313.86554,58,60,41
313.87122,315.5019,57,60,41
315.50757,315.91666,53,60,41
315.91666,316.04736,55,60,41
316.05304,316.5928,55,60,41
316.59848,317.00757,53,60,41
317.00757,317.13828,55,60,41
317.14395,317.68372,55,60,41
317.6894,318.22916,61,60,41
318.23486,318.77463,61,60,41
318.7803,319.1894,64,60,41
319.1894,319.32007,65,60,41
319.32574,319.86554,65,60,41
320.9827,321.40723,61,60,41
321.40723,321.54285,62,60,41
321.54874,322.1089,62,60,41
322.11478,322.5648,57,70,41
322.5648,322.70853,56,80,41
322.71478,324.70956,56,110,41
322.71478,324.70956,65,110,41
324.71478,326.72662,55,110,41
324.71478,326.72662,65,110,41
326.73203,328.7268,56,110,41
326.73203,328.7268,65,110,41
328.73203,330.74387,55,110,41
328.73203,330.74387,65,110,41
331.2665,331.61133,62,60,41
331.2665,331.61133,59,60,41
332.301,332.6458,55,60,41
332.301,332.6458,62,60,41
333.33548,333.84732,55,60,41
334.36993,334.8818,55,60,41
335.40442,335.9163,62,60,41
335.40442,335.9163,59,60,41
336.4389,336.95078,62,60,41
337.4734,337.98526,64,60,41
338.5361,339.18243,60,60,41
339.19025,339.34024,72,60,41
339.34024,339.48312,71,61,41
339.48312,339.61584,72,62,41
339.61584,339.73566,69,64,41
339.74084,339.92316,69,65,41
339.99084,340.17316,69,68,41
340.24084,340.4251,69,71,41
340.49518,340.68375,50,74,41
340.75378,340.94235,62,77,41
341.01242,341.201,50,80,41
341.27103,341.52963,62,83,41
341.52963,341.65897,74,86,41
341.65897,341.78287,71,87,41
341.78827,341.97684,71,89,41
342.04688,342.23547,71,92,41
342.3055,342.49408,71,95,41
342.56412,342.75272,59,98,41
342.82275,343.0216,74,100,41
343.0955,343.31424,74,110,41
343.39548,343.68924,62,110,41
343.99548,345.63922,52,110,41
345.64548,345.79547,64,104,41
345.79547,346.15912,69,100,41
346.34094,346.70456,69,60,41
346.88638,347.08524,69,60,41
347.15912,347.35797,69,60,41
347.43182,347.5682,69,60,41
347.5682,347.70456,71,60,41
347.70456,347.97162,69,60,41
347.9773,348.51706,69,60,41
348.52274,349.06253,68,60,41
350.02274,350.15912,64,60,41
350.15912,350.50998,76,60,41
350.68542,351.0363,76,60,41
351.21173,351.47488,76,60,41
351.47488,351.61127,74,60,41
351.61127,351.74194,72,60,41
351.74762,351.8976,72,60,41
351.8976,352.0476,74,60,41
352.0476,352.37402,72,60,41
352.38095,352.7689,62,60,41
352.7689,352.89282,55,62,41
352.8982,353.28613,62,63,41
353.28613,353.41006,55,66,41
353.41544,353.80338,55,67,41
353.80338,353.92728,48,70,41
353.93268,354.32062,64,70,41
354.32062,354.44452,55,73,41
354.44992,354.83127,65,74,41
354.83127,354.9531,55,77,41
354.9584,355.33975,65,78,41
355.33975,355.46158,55,80,41
355.46686,355.84824,60,81,41
355.84824,355.97003,55,84,41
355.97534,356.3567,67,85,41
356.3567,356.47852,60,88,41
356.48383,356.85883,65,89,41
356.85883,356.9786,60,91,41
356.98383,357.35883,60,92,41
357.35883,357.4786,52,95,41
357.48383,357.85883,52,96,41
357.85883,357.9786,58,99,41
357.98383,358.35883,58,100,41
358.35883,358.4786,57,102,41
358.48383,358.85883,57,103,41
358.85883,358.9786,56,106,41
358.98383,359.37173,56,107,41
359.37173,359.49567,57,110,41
359.50107,359.91016,57,110,41
359.91016,360.0539,55,110,41
360.06015,360.56015,55,95,41
360.56015,360.73984,59,80,41
360.74765,361.2595,48,60,41
361.4373,361.60434,57,60,41
361.6097,361.77673,55,60,41
361.78214,362.29398,48,60,41
362.47177,362.6388,69,60,41
362.6442,362.81122,67,60,41
362.81662,363.32846,62,60,41
362.81662,363.32846,55,60,41
363.50626,363.67328,60,60,41
363.67868,363.8457,59,60,41
363.8511,364.36295,55,60,41
364.54074,364.70776,60,60,41
364.71317,364.8802,59,60,41
364.8856,365.39743,55,60,41
365.57523,365.74225,55,60,41
365.74765,365.91467,53,60,41
365.92004,366.43192,52,60,41
366.6097,366.77673,50,60,41
366.78214,366.94916,48,60,41
366.95453,367.4664,50,60,41
366.95453,367.4664,59,60,41
367.6442,367.81122,60,60,41
367.81662,367.98364,59,60,41
367.989,368.5009,50,60,41
367.989,368.5009,57,60,41
368.67868,368.8457,62,60,41
368.85107,369.01813,60,60,41
369.0235,369.53537,55,60,41
369.0235,369.53537,59,60,41
369.71317,369.8802,55,60,41
369.88556,370.05258,53,60,41
370.05798,370.58365,52,60,41
370.778,370.9661,62,60,41
370.97235,371.1661,60,60,41
371.17236,371.6842,52,60,41
371.862,372.02902,62,70,41
372.03442,372.20145,60,73,41
372.20682,372.7187,52,76,41
372.89648,373.0635,62,87,41
373.0689,373.23593,60,90,41
373.2413,373.75317,53,90,41
373.93097,374.098,62,79,41
374.1034,374.27042,60,76,41
374.2758,374.78766,53,74,41
374.2758,374.78766,57,74,41
374.97162,375.14935,62,62,41
375.15524,375.338,60,60,41
375.3439,375.87405,55,60,41
375.3439,375.87405,64,60,41
376.0582,376.2312,62,60,41
376.23676,376.40976,60,60,41
376.41534,376.94547,55,60,41
377.12964,377.3026,64,60,41
377.3082,377.4812,62,60,41
377.48676,378.24048,55,60,41
378.2457,378.49048,52,60,41
378.4957,378.74048,53,60,41
378.7457,378.9957,50,60,41
378.9957,379.2457,65,60,41
379.2457,379.49048,59,60,41
379.4957,379.7457,60,60,41
379.7457,379.8707,62,60,41
379.8707,379.9957,60,60,41
379.9957,380.2457,59,60,41
380.2457,380.3707,60,60,41
380.3707,380.4957,62,60,41
380.4957,380.7457,64,60,41
380.7457,380.8707,65,60,41
380.8707,380.9957,64,60,41
380.9957,381.2457,62,60,41
381.2457,381.3707,64,60,41
381.3707,381.49048,65,60,41
381.4957,381.99048,67,60,41
381.9957,382.49048,65,60,41
382.4957,382.99048,64,60,41
382.9957,383.49048,62,60,41
383.4957,383.74048,48,60,41
383.4957,383.74048,60,60,41
383.7457,383.8707,60,62,41
383.8707,383.9957,62,64,41
383.9957,384.2457,64,65,41
384.2457,384.3707,65,68,41
384.3707,384.4957,67,70,41
384.4957,384.74048,69,71,41
384.7457,384.8707,69,74,41
384.8707,384.9957,71,76,41
384.9957,385.6207,72,77,41
385.6207,385.7457,60,84,41
385.7457,385.8707,62,86,41
385.8707,385.9957,64,87,41
385.9957,386.6207,65,89,41
386.6207,386.7457,62,96,41
386.7457,386.875,64,98,41
386.875,387.0043,65,99,41
387.0043,387.2032,67,100,41
387.27704,387.4958,55,80,41
387.57706,388.07184,67,60,41
388.07706,388.57184,65,60,41
388.57706,388.82706,64,60,41
388.82706,388.95206,62,60,41
388.95206,389.07706,60,60,41
389.07706,389.32706,59,60,41
389.32706,389.45206,60,60,41
389.45206,389.57184,62,60,41
389.57706,390.07184,55,60,41
390.07706,390.57184,53,60,41
390.57706,391.07184,52,60,41
391.07706,391.32706,53,60,41
391.32706,391.45206,52,60,41
391.45206,391.57184,50,60,41
391.57706,391.82706,48,60,41
391.82706,391.95206,52,62,41
391.95206,392.07706,53,63,41
392.07706,392.32706,55,65,41
392.32706,392.45206,57,67,41
392.45206,392.57706,59,69,41
392.57706,392.82184,60,70,41
392.82706,392.95206,60,73,41
392.95206,393.07706,62,74,41
393.07706,393.82184,64,75,41
393.82706,393.95206,65,83,41
393.95206,394.07706,67,85,41
394.07706,394.82184,69,86,41
394.82706,395.07184,57,94,41
395.07706,395.32184,57,96,41
395.32706,395.57184,57,99,41
395.57706,395.69684,62,110,41
395.70206,395.82184,60,110,41
395.82706,395.94684,59,110,41
395.95206,396.07184,57,110,41
396.07706,396.19684,55,110,41
396.20206,396.32184,57,110,41
396.32706,396.44684,59,110,41
396.45206,396.57184,60,110,41
396.57706,396.69684,62,110,41
396.70206,396.82184,60,110,41
396.82706,396.94684,59,110,41
396.95206,397.07184,57,110,41
397.07706,397.19684,55,110,41
397.20206,397.32184,53,110,41
397.32706,397.44684,52,110,41
397.45206,397.57184,50,110,41
397.57706,397.69684,48,110,41
397.70206,397.82184,50,110,41
397.82706,397.94684,52,110,41
397.95206,398.07184,53,110,41
398.07706,398.19684,55,110,41
398.20206,398.32184,57,110,41
398.32706,398.44684,59,110,41
398.45206,398.57184,60,110,41
398.57706,400.1773,54,120,41
400.18268,400.69455,54,60,41
400.69992,401.2118,55,60,41
401.21716,401.72903,53,60,41
401.7344,402.24628,55,60,41
402.25165,402.7635,66,60,41
402.7689,403.28073,67,60,41
403.28613,403.79797,71,60,41
403.80338,403.93268,74,60,41
403.93268,404.06198,72,60,41
404.06198,404.1913,71,60,41
404.1913,404.32062,72,60,41
404.32062,404.44992,71,60,41
404.44992,404.57922,72,61,41
404.57922,404.70856,71,63,41
404.70856,404.83246,69,64,41
404.83786,404.96716,69,66,41
404.96716,405.09647,67,67,41
405.09647,405.2258,66,69,41
405.2258,405.3497,67,70,41
405.3551,405.4844,67,72,41
405.4844,405.6137,65,73,41
405.6137,405.74304,64,75,41
405.74304,405.86694,62,76,41
405.87234,406.00165,65,78,41
406.00165,406.13095,64,79,41
406.13095,406.26025,62,81,41
406.26025,406.3842,60,82,41
406.3896,406.5189,60,84,41
406.5189,406.6482,59,85,41
406.6482,406.7775,57,87,41
406.7775,406.90143,55,88,41
406.90683,407.03613,60,90,41
407.03613,407.16544,59,91,41
407.16544,407.29474,57,93,41
407.29474,407.42407,55,94,41
407.42407,407.55798,53,96,41
407.55798,407.69193,52,97,41
407.69193,407.83344,50,99,41
407.83344,407.96906,62,100,41
407.97495,408.34995,55,110,41
408.34995,408.46973,53,110,41
408.47495,408.84995,53,110,41
408.84995,408.96973,56,110,41
408.97495,409.36966,65,110,41
409.36966,409.49576,62,110,41
409.50125,409.95126,65,100,41
409.95126,410.13095,64,90,41
410.13876,411.22397,60,60,41
411.22964,412.4234,50,60,41
412.42966,412.80466,52,110,41
412.80466,412.92444,50,110,41
412.92966,413.30466,53,110,41
413.30466,413.42444,50,110,41
413.42966,413.8244,56,110,41
413.8244,413.9505,53,110,41
413.95596,414.40598,53,100,41
414.40598,414.58566,52,90,41
414.59348,415.6787,63,60,41
415.6844,416.87814,72,60,41
416.88437,417.9696,72,60,41
417.97528,419.0975,53,60,41
417.97528,419.0975,62,60,41
419.10376,420.29752,51,100,41
420.30377,421.6168,55,100,41
420.30377,421.6168,50,100,41
421.6246,421.87784,52,100,41
421.6246,421.87784,55,101,41
422.14185,422.40887,50,60,41
422.6873,422.96442,52,60,41
423.25333,423.53046,53,100,41
424.3854,424.94556,53,60,41
426.45145,426.71848,53,60,41
426.9969,427.27402,52,60,41
427.56293,427.84006,58,100,41
428.695,429.25516,58,60,41
428.695,429.25516,55,60,41
430.26105,430.51428,70,70,41
430.7783,431.04532,69,80,41
431.32373,431.6175,57,90,41
431.92374,432.29092,59,100,41
432.67374,434.66852,59,60,41
434.67374,436.66852,60,60,41
436.67374,437.70282,60,60,41
437.70822,438.22006,57,60,41
438.22546,438.7373,59,60,41
438.7427,439.25455,60,60,41
439.25995,440.28903,59,60,41
440.29443,440.80627,52,60,41
441.32892,441.71683,53,60,41
441.71683,441.84616,55,60,41
441.84616,442.358,57,60,41
442.36337,442.7513,55,60,41
442.7513,442.87524,53,60,41
442.8806,443.3925,53,60,41
443.39786,444.42697,52,60,41
444.43234,444.9442,68,60,41
444.9496,445.46146,69,60,41
445.46683,445.85477,72,60,41
445.85477,445.98407,71,60,41
445.98407,446.49594,69,60,41
446.5013,446.88925,71,60,41
446.88925,447.01315,72,60,41
447.01855,447.5304,72,60,41
447.5358,448.56488,71,60,41
448.57028,448.95822,59,60,41
448.95822,449.08212,52,60,41
449.08752,449.59937,53,60,41
449.60477,449.9927,50,60,41
449.9927,450.122,52,60,41
450.122,450.63385,53,60,41
450.63925,451.02716,52,60,41
451.02716,451.1511,50,60,41
451.1565,451.66833,53,60,41
451.67374,452.18558,52,73,41
452.19098,452.70282,60,87,41
452.70822,453.09613,59,100,41
453.09613,453.22006,57,100,41
453.22543,453.7373,48,110,41
453.74268,454.1306,60,110,41
454.1306,454.25992,62,110,41
454.25992,454.7718,64,110,41
454.77716,455.1651,62,110,41
455.1651,455.28903,60,110,41
455.2944,455.80627,60,110,41
455.81165,456.84076,59,110,41
456.84613,457.23407,57,110,41
457.23407,457.358,56,110,41
457.36337,457.8752,56,110,41
457.8806,458.26855,57,110,41
458.26855,458.39246,56,110,41
458.39786,458.9097,56,110,41
458.9151,459.3169,65,110,41
459.3169,459.44522,62,110,41
459.4508,459.98096,65,110,41
459.98654,461.05237,64,100,41
461.05795,461.58807,71,80,41
461.59366,463.19522,60,60,41
463.2008,463.73096,64,60,41
464.27225,464.674,69,60,41
464.674,464.80237,64,60,41
464.80795,465.33807,67,60,41
465.34366,465.8738,65,60,41
467.4865,468.01666,52,60,41
468.02225,469.08807,53,60,41
469.09366,470.1408,52,66,41
470.1463,471.17538,50,73,41
471.1808,472.1924,51,80,41
472.19772,472.5367,53,110,41
472.7062,473.0452,52,91,41
473.21466,473.548,50,94,41
473.71466,474.048,60,98,41
473.71466,474.048,48,98,41
474.21466,474.548,59,110,41
474.71466,475.048,57,110,41
475.21466,475.548,55,110,41
475.71466,476.0642,53,110,41
476.24603,478.2858,52,110,41
478.29147,478.42215,56,60,41
478.42783,479.24033,60,60,41
479.246,479.3824,59,60,41
479.3824,479.51306,57,60,41
479.51874,479.71762,57,60,41
479.79147,479.99033,57,60,41
480.0642,480.20056,57,60,41
480.20056,480.3369,59,60,41
480.3369,480.60397,57,60,41
480.60965,481.1494,57,60,41
481.15512,481.6949,56,60,41
482.6551,482.7858,64,60,41
482.79147,483.2517,69,60,41
483.3369,483.79715,69,60,41
483.8824,484.1494,69,60,41
484.1551,484.42215,69,60,41
484.42783,484.6949,69,60,41
484.70056,484.9676,69,60,41
484.9733,485.25632,69,60,41
485.25632,485.53342,68,60,41
485.5393,485.68082,69,60,41
485.68082,485.82233,71,60,41
485.82233,486.09946,69,60,41
486.10535,486.38837,69,60,41
486.38837,486.6655,68,60,41
486.9714,487.3386,69,60,41
487.3464,487.7555,69,60,41
487.7555,487.88617,68,62,41
487.89185,488.08716,68,63,41
488.1597,488.355,69,65,41
488.42755,488.8155,69,67,41
488.8155,488.93942,68,70,41
488.9448,489.1334,68,70,41
489.20343,489.392,70,72,41
489.46204,489.83704,70,74,41
489.83704,489.95685,69,77,41
489.96204,490.14435,69,78,41
490.21204,490.39435,70,80,41
490.46204,490.83704,70,81,41
490.83704,490.95685,69,84,41
490.96204,491.14435,69,85,41
491.21204,491.39435,69,87,41
491.46204,491.83704,69,89,41
491.83704,491.95685,68,91,41
491.96204,492.33704,67,92,41
492.33704,492.45685,65,95,41
492.46204,492.83704,65,96,41
492.83704,492.95685,63,99,41
492.96204,493.33704,63,100,41
493.33704,493.45685,62,102,41
493.46204,493.83704,59,103,41
493.83704,493.95685,62,106,41
493.96204,494.34998,59,107,41
494.34998,494.4739,57,110,41
494.47928,494.88837,60,110,41
494.88837,495.03214,69,110,41
495.0384,495.5384,57,95,41
495.5384,495.71808,56,80,41
497.87186,498.777,74,60,41
498.777,498.90094,73,60,41
498.90634,499.34274,71,60,41
499.42358,499.86,71,60,41
499.94083,500.45267,74,60,41
500.45807,500.71667,73,60,41
500.71667,500.97528,71,60,41
500.97528,501.48715,69,60,41
501.49252,501.75116,71,60,41
501.75116,502.0044,73,60,41
502.00977,502.78564,71,60,41
502.78564,503.03888,68,60,41
503.04425,503.82013,69,60,41
503.82013,504.07336,63,60,41
504.07874,504.5906,64,60,41
505.28564,505.45267,57,60,41
505.45804,505.6251,56,60,41
505.63046,505.7975,54,60,41
505.8029,505.9699,52,60,41
505.97528,506.1423,50,60,41
506.1477,506.65955,49,65,41
506.83737,507.0044,59,76,41
507.00977,507.1768,57,79,41
507.1822,507.69403,49,82,41
507.87186,508.03888,59,90,41
508.04425,508.21127,57,90,41
508.21667,508.72852,50,85,41
508.9063,509.07336,59,76,41
509.07874,509.24576,57,74,41
509.25116,509.763,66,71,41
509.9408,510.10782,59,62,41
510.11322,510.28024,57,60,41
510.28564,510.7975,52,60,41
510.28564,510.7975,61,60,41
510.97528,511.1423,59,60,41
511.1477,511.31473,57,60,41
511.32013,511.84555,52,60,41
512.0363,512.21906,61,60,41
512.22504,512.4114,59,60,41
512.41736,512.95715,52,60,41
513.14465,513.3208,59,60,41
513.3265,513.5026,57,60,41
513.5083,514.0581,52,60,41
514.26404,514.4812,60,60,41
514.489,514.7312,59,55,41
514.739,515.2788,53,50,41
516.92084,519.097,52,50,41
519.92084,520.0572,59,50,41
520.0572,520.19354,56,50,41
520.19354,520.32996,59,50,41
520.32996,520.4663,56,50,41
520.4663,520.60266,59,50,41
520.60266,520.739,56,50,41
520.739,520.87537,59,50,41
520.87537,521.0117,56,50,41
521.0117,521.14813,59,50,41
521.14813,521.2845,56,50,41
522.10266,522.239,64,70,41
522.239,522.37537,60,73,41
522.37537,522.5117,64,77,41
522.5117,522.64813,60,80,41
522.64813,522.7845,64,83,41
522.7845,522.92084,60,87,41
522.92084,523.0623,64,90,41
523.0623,523.20386,60,94,41
523.20386,523.3538,64,97,41
523.3538,523.50385,60,100,41
523.50385,523.6539,69,110,41
523.6539,523.7789,57,110,41
523.7789,523.9039,60,110,41
523.9039,524.0289,57,110,41
524.0289,524.1539,60,110,41
524.1539,524.2789,57,110,41
524.2789,524.4039,60,110,41
524.4039,524.5289,57,110,41
524.5289,524.6539,60,110,41
524.6539,524.7789,57,110,41
524.7789,524.9039,60,110,41
524.9039,525.0289,57,110,41
525.0289,525.1539,60,110,41
525.1539,525.2789,57,110,41
525.2789,525.4039,60,110,41
525.4039,525.5236,57,110,41
525.5289,525.6539,60,110,41
525.6539,525.7789,57,110,41
525.7789,525.9039,60,110,41
525.9039,526.0289,57,110,41
526.0289,526.1539,68,110,41
526.1539,526.2789,59,110,41
526.2789,526.4039,68,110,41
526.4039,526.5289,59,110,41
526.5289,526.6539,68,110,41
526.6539,526.7789,59,110,41
526.7789,526.9039,68,110,41
526.9039,527.0289,59,110,41
527.0289,527.1539,68,110,41
527.1539,527.2789,59,110,41
527.2789,527.4039,68,110,41
527.4039,527.5236,59,110,41
527.5289,527.6539,68,110,41
527.6539,527.7789,59,110,41
527.7789,527.9039,68,110,41
527.9039,528.0289,59,110,41
528.0289,528.1539,68,110,41
528.1539,528.2789,59,110,41
528.2789,528.4039,68,110,41
528.4039,528.5289,59,110,41
528.5289,528.6539,68,110,41
528.6539,528.7789,59,110,41
528.7789,528.9039,68,110,41
528.9039,529.0289,59,110,41
529.0289,529.1539,68,110,41
529.1539,529.2789,59,110,41
529.2789,529.4039,68,110,41
529.4039,529.5236,59,110,41
529.5289,529.6539,69,125,41
529.6539,529.7789,60,110,41
529.7789,529.9039,69,110,41
529.9039,530.0289,60,110,41
530.0289,530.1539,69,110,41
530.1539,530.2789,60,110,41
530.2789,530.4039,69,110,41
530.4039,530.5289,60,110,41
530.5289,530.6539,69,110,41
530.6539,530.7789,60,110,41
530.7789,530.9039,69,110,41
530.9039,531.0289,60,110,41
531.0289,531.1539,68,110,41
531.1539,531.2789,59,110,41
531.2789,531.4039,68,110,41
531.4039,531.5236,62,110,41
531.5289,531.6539,64,125,41
531.6539,531.7789,60,110,41
531.7789,531.9039,64,110,41
531.9039,532.0289,60,110,41
532.0289,532.1539,64,110,41
532.1539,532.2789,60,110,41
532.2789,532.4039,64,110,41
532.4039,532.5289,60,110,41
532.5289,532.6539,64,110,41
532.6539,532.7789,60,110,41
532.7789,532.9039,64,110,41
532.9039,533.0289,60,110,41
533.0289,533.1539,68,110,41
533.1539,533.2789,59,110,41
533.2789,533.4039,68,110,41
533.4039,533.5236,62,110,41
533.5289,534.4916,53,110,41
533.5289,534.4916,57,110,41
534.4966,534.61755,65,125,41
534.61755,534.7385,53,110,41
534.7385,534.8595,65,110,41
534.8595,534.98047,53,110,41
534.98047,535.10144,65,110,41
535.10144,535.2224,53,110,41
535.2224,535.3434,65,110,41
535.3434,535.4593,53,110,41
536.43207,536.55304,64,125,41
536.55304,536.674,52,110,41
536.674,536.795,64,110,41
536.795,536.91595,52,110,41
536.91595,537.0369,64,110,41
537.0369,537.1579,52,110,41
537.1579,537.2789,64,110,41
537.2789,537.3948,52,110,41
537.3998,537.52075,55,60,41
537.52075,537.6417,52,60,41
537.6417,537.7627,55,60,41
537.7627,537.88367,52,60,41
537.88367,538.00464,55,60,41
538.00464,538.1256,52,60,41
538.1256,538.2466,55,60,41
538.2466,538.3625,52,60,41
538.36755,538.4885,57,60,41
538.4885,538.6095,53,61,41
538.6095,538.73047,57,63,41
538.73047,538.85144,53,65,41
538.85144,538.9724,57,67,41
538.9724,539.0934,53,68,41
539.0934,539.2143,57,70,41
539.2143,539.33026,53,72,41
539.33527,539.45624,60,74,41
539.45624,539.5772,57,76,41
539.5772,539.6982,60,77,41
539.6982,539.81915,57,79,41
539.81915,539.9401,60,81,41
539.9401,540.0611,57,83,41
540.0611,540.18207,60,84,41
540.18207,540.298,57,86,41
540.30304,540.424,59,88,41
540.424,540.545,56,90,41
540.545,540.66595,59,92,41
540.66595,540.7869,56,93,41
540.7869,540.9079,59,95,41
540.9079,541.0288,56,97,41
541.0288,541.1498,59,99,41
541.1498,541.26575,56,100,41
541.27075,541.3917,55,125,41
541.3917,541.5127,52,110,41
541.5127,541.63367,55,110,41
541.63367,541.75464,52,110,41
541.75464,541.8756,55,110,41
541.8756,541.9966,52,110,41
541.9966,542.11755,55,110,41
542.11755,542.23346,52,110,41
542.2385,542.3595,57,125,41
542.3595,542.48047,53,110,41
542.48047,542.60144,57,110,41
542.60144,542.72235,53,110,41
542.72235,542.8433,57,110,41
542.8433,542.9643,53,110,41
542.9643,543.08527,57,110,41
543.08527,543.20123,53,110,41
543.20624,543.3272,60,110,41
543.3272,543.4482,57,110,41
543.4482,543.56915,60,110,41
543.56915,543.68506,57,110,41
543.6901,543.8151,69,110,41
543.8151,543.9401,60,110,41
543.9401,544.0651,69,110,41
544.0651,544.1901,60,110,41
544.1901,544.31946,69,110,41
544.31946,544.4487,60,110,41
544.4487,544.57806,69,110,41
544.57806,544.70197,60,110,41
544.70734,544.84375,68,110,41
544.84375,544.9801,59,110,41
544.9801,545.13007,68,110,41
545.13007,545.27386,59,110,41
545.88007,546.268,72,120,41
546.268,546.39734,74,120,41
546.39734,546.9092,76,120,41
546.91455,547.3025,74,120,41
547.3025,547.42645,72,120,41
547.4318,547.94366,72,115,41
547.94904,548.337,71,101,41
548.337,548.4663,72,89,41
548.4663,548.9964,74,86,41
549.002,549.4187,72,71,41
549.4187,549.56244,71,60,41
549.56866,552.2855,69,60,41
552.2912,553.3764,71,60,41
553.3821,554.4874,70,60,41
554.4932,555.6194,69,60,41
555.6253,556.61835,68,60,41
556.6253,558.01337,67,50,41
558.0206,559.5128,65,50,41
559.5206,561.38586,64,50,41
561.3956,563.63,62,40,41
563.6456,563.79565,53,30,41
563.79565,563.9249,52,33,41
563.9249,564.0499,53,37,41
564.0499,564.1749,52,40,41
564.1749,564.2999,53,41,41
564.2999,564.4249,52,42,41
564.4249,564.5499,53,42,41
564.5499,564.6749,52,43,41
564.6749,564.7999,53,43,41
564.7999,564.9249,52,44,41
564.9249,565.0499,53,44,41
565.0499,565.1749,52,44,41
565.1749,565.2999,53,45,41
565.2999,565.4249,52,45,41
565.4249,565.5499,53,46,41
565.5499,565.66974,52,46,41
565.6749,565.7999,53,47,41
565.7999,565.9249,52,47,41
565.9249,566.0499,53,48,41
566.0499,566.1749,52,48,41
566.1749,566.2999,53,48,41
566.2999,566.4249,52,49,41
566.4249,566.5499,53,49,41
566.5499,566.6749,52,50,41
566.6749,566.7999,53,50,41
566.7999,566.9249,52,51,41
566.9249,567.0499,53,51,41
567.0499,567.1749,52,52,41
567.1749,567.2999,53,52,41
567.2999,567.4249,52,52,41
567.4249,567.5499,53,53,41
567.5499,567.66974,52,53,41
567.6749,567.7999,53,54,41
567.7999,567.9249,52,54,41
567.9249,568.0499,53,55,41
568.0499,568.1749,52,55,41
568.1749,568.2999,53,56,41
568.2999,568.4249,52,56,41
568.4249,568.5499,53,56,41
568.5499,568.6749,52,57,41
568.6749,568.7999,53,57,41
568.7999,568.9249,52,58,41
568.9249,569.0499,53,58,41
569.0499,569.1749,52,59,41
569.1749,569.2999,53,59,41
569.2999,569.4249,52,60,41
569.4249,569.5499,53,60,41
569.5499,569.66974,52,60,41
569.6749,569.7999,68,60,41
569.7999,569.9249,59,62,41
569.9249,570.0499,68,65,41
570.0499,570.1749,59,68,41
570.1749,570.2999,68,70,41
570.2999,570.4249,59,73,41
570.4249,570.5499,68,76,41
570.5499,570.6749,59,79,41
570.6749,570.7999,68,81,41
570.7999,570.9249,59,84,41
570.9249,571.05426,68,87,41
571.05426,571.18353,59,89,41
571.18353,571.31995,68,92,41
571.31995,571.4563,59,95,41
571.4563,571.60626,68,98,41
571.60626,571.75006,59,100,41
571.7563,572.02606,57,110,41
572.2813,572.52606,55,110,41
572.2813,572.52606,57,110,41
572.7813,573.02606,54,110,41
572.7813,573.02606,57,110,41
573.2813,573.52606,53,110,41
573.2813,573.52606,57,110,41
573.7813,574.02606,57,110,41
573.7813,574.02606,52,110,41
574.2813,575.27606,64,126,41
575.2813,575.52606,68,110,41
575.7813,576.02606,55,107,41
575.7813,576.02606,57,110,41
576.2813,576.52606,55,110,41
576.2813,576.52606,57,110,41
576.7813,577.02606,54,110,41
576.7813,577.02606,57,110,41
577.2813,577.52606,53,110,41
577.2813,577.52606,57,110,41
577.7813,578.02606,57,110,41
577.7813,578.02606,52,110,41
578.2813,579.27606,64,126,41
579.2813,579.52606,68,110,41
579.7813,580.1146,62,110,41
579.7813,580.1146,69,110,41
580.7813,581.1146,68,110,41
581.7813,582.1146,69,110,41
582.7813,583.1175,68,110,41
582.7813,583.1175,71,110,41
583.97565,584.5694,57,124,41
0.0,2.3875,44,40,42
2.4,4.7875,45,45,42
4.8,7.1875,53,50,42
7.2,9.5875,52,50,42
19.466665,21.854166,53,50,42
21.866667,24.254166,52,50,42
24.266666,26.654165,44,50,42
26.666666,29.054167,45,50,42
29.066666,31.454166,39,90,42
31.466665,34.119442,40,90,42
34.13333,36.78611,48,50,42
36.8,38.284374,47,90,42
38.3,40.155468,47,100,42
40.175,40.555695,47,110,42
43.05683,43.671413,48,70,42
44.53183,44.948498,69,80,42
44.948498,45.087387,71,80,42
45.087387,45.637154,72,80,42
45.64294,46.05961,71,80,42
46.05961,46.203358,69,80,42
46.209606,46.803356,69,80,42
46.80961,48.603355,68,70,42
53.409607,55.803356,44,70,42
55.80961,57.628098,45,110,42
57.634605,58.29433,47,110,42
58.301273,58.895023,48,60,42
58.90127,60.095024,60,110,42
60.101273,60.760994,60,110,42
60.76794,62.561687,62,60,42
62.56794,63.01794,62,92,42
63.01794,63.16169,58,100,42
63.16794,63.584606,58,110,42
63.584606,63.71771,53,110,42
63.723495,64.11823,53,110,42
64.11823,64.24432,50,110,42
64.24981,64.64455,50,110,42
64.64455,64.770645,46,110,42
64.77612,65.17086,46,110,42
65.17086,65.29696,45,110,42
65.30244,65.63577,44,110,42
65.80244,66.14727,43,110,42
66.31968,66.69005,42,110,42
66.87524,67.30023,41,110,42
67.55023,71.63773,40,110,42
71.65024,72.14283,52,60,42
74.02855,74.44521,45,60,42
74.44521,74.5841,47,60,42
74.5841,75.133865,48,60,42
75.139656,75.55632,47,60,42
75.55632,75.68942,45,60,42
75.69521,76.24498,45,60,42
76.25076,77.911644,44,60,42
81.80631,82.222984,65,60,42
82.222984,82.35609,63,60,42
82.36187,82.91164,65,90,42
82.91743,84.59945,64,90,42
85.16101,85.57768,69,70,42
85.57768,85.710785,64,79,42
85.71657,86.13323,67,81,42
86.13323,86.266335,65,89,42
86.272125,86.68879,65,92,42
86.68879,86.82189,62,100,42
86.82768,87.22241,50,110,42
87.22241,87.34851,46,110,42
87.354,87.729,46,110,42
87.729,87.848785,41,110,42
87.854,88.229,41,110,42
88.229,88.348785,38,110,42
88.354,88.729,38,110,42
88.729,88.848785,37,110,42
88.854,90.848785,37,110,42
90.854,92.848785,36,110,42
92.854,94.848785,37,110,42
94.854,96.365845,36,110,42
96.37123,96.93771,60,86,42
97.461205,97.97305,60,60,42
98.49568,99.00754,52,60,42
99.53017,100.04202,53,60,42
100.56465,101.0765,45,60,42
101.59913,102.110985,48,60,42
102.63361,103.14546,64,60,42
103.6681,104.17995,65,60,42
104.702576,105.21443,57,60,42
105.21982,105.408394,58,60,42
105.47844,105.667015,46,62,42
105.73706,105.92564,58,65,42
105.99568,106.18426,43,68,42
106.2543,106.43968,55,71,42
106.50854,106.69392,43,74,42
106.76277,106.94816,55,77,42
107.01701,107.20239,40,80,42
107.27125,107.45354,48,83,42
107.52125,107.70354,36,86,42
107.77125,107.95354,48,89,42
108.02125,108.20354,48,92,42
108.27125,108.45354,48,95,42
108.52125,108.70354,36,98,42
108.77125,108.95982,48,100,42
109.02987,109.22873,46,110,42
109.3026,109.57972,58,110,42
109.88561,112.48896,57,110,42
112.494545,112.62847,57,60,42
112.62847,112.98561,62,60,42
113.164185,113.521324,62,60,42
113.6999,114.230034,62,60,42
114.23561,114.76575,61,60,42
114.771324,114.96664,64,60,42
115.039185,115.2345,64,60,42
115.30704,115.44097,64,60,42
115.44097,115.5749,65,60,42
115.5749,115.83717,64,60,42
115.84275,116.37289,64,60,42
116.37847,116.9086,62,60,42
116.914185,117.271324,55,60,42
117.4499,117.80704,55,60,42
117.98561,118.24423,48,60,42
118.24423,118.49746,58,61,42
118.50285,118.761475,48,63,42
118.761475,119.0147,58,65,42
119.02009,119.27871,48,67,42
119.27871,119.531944,57,69,42
119.53733,119.79595,48,70,42
119.79595,120.04919,57,72,42
120.05457,120.313194,48,74,42
120.313194,120.56643,52,76,42
120.571815,120.83044,48,78,42
120.83044,121.08367,52,80,42
121.08906,121.34768,48,81,42
121.34768,121.60091,53,83,42
121.6063,121.864914,51,85,42
121.864914,122.11815,53,87,42
122.123535,122.38216,50,89,42
122.38216,122.63539,53,90,42
122.64078,122.8994,45,92,42
122.8994,123.15263,53,94,42
123.15802,123.41664,46,96,42
123.41664,123.669876,53,98,42
123.67526,123.93388,46,100,42
123.93388,124.18711,53,101,42
124.192505,124.45112,46,103,42
124.45112,124.70435,53,105,42
124.70974,124.96836,47,107,42
124.96836,125.221596,55,109,42
125.22698,125.49971,48,110,42
125.49971,125.766754,57,110,42
125.77244,126.07244,48,100,42
126.07244,126.43963,58,80,42
126.44744,126.94223,41,60,42
127.114105,127.275566,50,60,42
127.28077,127.44223,48,60,42
127.44744,127.94223,41,60,42
128.1141,128.27556,50,60,42
128.28078,128.44223,48,60,42
128.44743,128.94223,40,60,42
129.1141,129.27556,50,60,42
129.28078,129.44223,48,60,42
129.44743,129.94223,40,60,42
130.1141,130.27556,50,60,42
130.28078,130.44223,48,60,42
130.44743,130.94223,41,60,42
131.1141,131.27556,50,60,42
131.28078,131.44223,48,60,42
131.44743,131.94223,41,60,42
132.1141,132.27556,50,60,42
132.28078,132.44223,48,60,42
132.44743,132.94223,43,60,42
133.1141,133.27556,50,60,42
133.28078,133.44223,48,60,42
133.44743,133.94223,43,60,42
134.1141,134.27556,52,60,42
134.28078,134.44223,50,60,42
134.44743,134.94223,48,60,42
135.1141,135.27556,57,60,42
135.28078,135.44223,55,60,42
135.44743,135.95929,48,60,42
136.1465,136.32585,48,60,42
136.33174,136.51453,46,60,42
136.52043,137.02383,45,60,42
137.19571,137.35716,55,74,42
137.36238,137.52383,53,78,42
137.52904,138.02383,45,81,42
138.19571,138.35716,55,96,42
138.36238,138.52383,53,99,42
138.52904,139.02383,46,90,42
139.19571,139.35716,55,79,42
139.36238,139.52383,53,76,42
139.52904,140.02383,46,74,42
140.19571,140.35716,55,62,42
140.36238,140.52383,53,60,42
140.52904,141.02383,48,60,42
141.19571,141.35716,55,60,42
141.36238,141.52383,53,60,42
141.52904,142.02383,48,60,42
142.19571,142.35716,57,60,42
142.36238,142.52383,55,60,42
142.52904,143.27904,48,60,42
143.27904,143.52904,45,60,42
143.52904,144.27904,46,60,42
144.27904,144.52383,40,60,42
144.52904,144.77904,41,60,42
144.77904,144.90404,43,60,42
144.90404,145.02904,41,60,42
145.02904,145.27904,40,60,42
145.27904,145.40404,41,60,42
145.40404,145.52904,43,60,42
145.52904,145.77904,45,60,42
145.77904,145.90404,46,60,42
145.90404,146.02904,45,60,42
146.02904,146.27904,43,60,42
146.27904,146.40404,45,60,42
146.40404,146.52383,46,60,42
146.52904,147.02383,45,60,42
147.02904,147.52383,43,60,42
147.52904,148.02383,41,60,42
148.02904,148.27904,36,60,42
148.27904,148.52383,48,60,42
148.52904,148.77383,41,60,42
148.77904,148.90404,41,62,42
148.90404,149.02904,43,63,42
149.02904,149.27904,45,65,42
149.27904,149.40404,46,67,42
149.40404,149.52904,48,69,42
149.52904,149.77383,50,70,42
149.77904,149.90404,50,73,42
149.90404,150.02904,52,74,42
150.02904,150.77383,53,75,42
150.77904,150.90404,55,83,42
150.90404,151.02904,57,85,42
151.02904,151.77383,58,86,42
151.77904,151.90404,46,94,42
151.90404,152.02904,48,95,42
152.02904,152.15404,50,96,42
152.15404,152.27904,52,98,42
152.27904,152.40404,53,99,42
152.40404,152.52383,55,100,42
152.52904,152.64883,58,110,42
152.65404,152.77383,57,110,42
152.77904,152.89883,55,110,42
152.90404,153.02383,53,110,42
153.02904,153.14883,52,110,42
153.15404,153.27383,53,110,42
153.27904,153.39883,55,110,42
153.40404,153.52383,57,110,42
153.52904,153.64883,58,110,42
153.65404,153.77383,57,110,42
153.77904,153.89883,55,110,42
153.90404,154.02383,53,110,42
154.02904,154.14883,52,110,42
154.15404,154.27383,50,110,42
154.27904,154.39883,48,110,42
154.40404,154.52383,46,110,42
154.52904,154.64883,45,110,42
154.65404,154.77383,46,110,42
154.77904,154.89883,48,110,42
154.90404,155.02383,50,110,42
155.02904,155.14883,52,110,42
155.15404,155.27383,53,110,42
155.27904,155.39883,55,110,42
155.40404,155.52383,57,110,42
155.52904,157.10806,62,120,42
157.11327,157.60806,62,60,42
157.61327,158.10806,64,60,42
158.11327,158.60806,67,60,42
158.61327,159.10806,69,60,42
159.11327,159.60806,46,60,42
159.61327,160.12512,48,60,42
160.13051,160.73293,52,60,42
160.74074,160.87709,55,60,42
160.87709,161.01346,53,61,42
161.01346,161.14983,52,62,42
161.14983,161.2862,53,63,42
161.2862,161.4112,52,65,42
161.4112,161.5362,53,66,42
161.5362,161.6612,52,67,42
161.6612,161.78098,50,69,42
161.7862,161.9112,50,70,42
161.9112,162.0362,48,71,42
162.0362,162.1612,47,73,42
162.1612,162.28098,48,74,42
162.2862,162.4112,48,75,42
162.4112,162.5362,46,77,42
162.5362,162.6612,45,78,42
162.6612,162.78098,43,79,42
162.7862,162.9112,46,81,42
162.9112,163.0362,45,82,42
163.0362,163.1612,43,83,42
163.1612,163.28098,45,85,42
163.2862,163.78098,50,86,42
163.7862,163.9112,48,91,42
163.9112,164.0362,46,93,42
164.0362,164.1655,45,94,42
164.1655,164.29482,43,95,42
164.29482,164.43117,41,96,42
164.43117,164.56754,40,98,42
164.56754,164.70905,38,99,42
164.70905,164.84465,36,100,42
164.85056,165.22556,41,125,42
165.22556,165.34535,43,100,42
165.35056,165.72556,46,125,42
165.72556,165.84535,49,100,42
165.85056,166.25964,52,125,42
166.25964,166.39032,55,100,42
166.39601,166.84601,55,125,42
166.84601,166.98976,57,100,42
166.996,168.2395,47,70,42
168.246,169.57239,48,70,42
169.57935,169.95435,53,125,42
169.95435,170.07413,52,100,42
170.07935,170.45435,49,125,42
170.45435,170.57413,46,100,42
170.57935,170.98843,43,125,42
170.98843,171.11911,40,100,42
171.12479,171.5748,49,125,42
171.5748,171.71854,48,100,42
171.7248,172.96828,50,70,42
172.9748,174.30118,48,70,42
174.30812,175.39336,47,70,42
175.39903,176.52126,48,70,42
176.52751,177.72125,47,100,42
177.72751,179.02803,36,100,42
177.72751,179.02803,48,100,42
179.03584,179.32959,53,93,42
179.63583,179.90782,50,70,42
180.19139,180.46338,48,70,42
180.74695,181.01894,48,110,42
181.85806,183.51894,41,60,42
183.52472,185.51952,41,50,42
185.52472,187.51952,42,50,42
187.52472,189.51952,51,50,42
189.52472,193.51952,50,50,42
193.52472,195.51952,50,50,42
195.52472,199.51952,50,50,42
199.52472,200.01952,50,50,42
200.02472,200.39972,54,50,42
200.39972,200.52472,55,50,42
200.52472,201.01952,57,50,42
201.02472,201.51952,54,50,42
201.52472,202.01952,53,50,42
202.02472,202.39972,50,70,42
202.39972,202.52472,51,85,42
202.52472,203.03658,53,90,42
203.04196,203.3147,51,70,42
203.3147,203.58174,48,60,42
203.58742,205.58221,47,50,42
205.58742,207.08221,48,90,42
207.08742,207.59927,46,82,42
207.60466,208.59946,44,80,42
208.60466,209.65204,56,67,42
209.65761,212.16965,55,50,42
212.17485,212.54985,48,71,42
212.54985,212.67485,50,74,42
212.67485,213.16965,51,76,42
213.17485,213.54985,50,80,42
213.54985,213.66965,48,83,42
213.67485,214.16965,46,84,42
214.17485,214.54985,44,89,42
214.54985,214.67485,46,92,42
214.67485,215.16965,48,93,42
215.17485,215.56279,46,97,42
215.56279,215.6867,44,100,42
215.6921,216.03693,44,110,42
216.20934,216.56648,45,110,42
216.74506,217.12967,43,110,42
217.32198,217.76642,43,110,42
219.36365,219.48865,38,60,42
219.48865,219.86365,36,60,42
219.86365,219.98343,38,60,42
219.98865,220.23865,41,60,42
220.23865,221.23343,40,60,42
221.23865,221.48865,41,60,42
221.48865,221.875,40,60,42
221.875,222.00569,41,60,42
222.01137,222.28409,45,60,42
222.28409,223.09659,43,60,42
224.47728,224.60228,48,60,42
224.60228,224.97728,47,60,42
224.97728,225.10228,48,60,42
225.10228,225.35228,40,60,42
225.35228,226.09706,38,60,42
226.47728,226.60228,52,60,42
226.60228,226.97728,50,60,42
226.97728,227.10228,52,60,42
227.10228,227.35228,43,60,42
227.35228,228.16374,41,60,42
228.16998,228.54498,41,90,42
228.54498,228.66478,55,75,42
228.66998,228.85228,55,60,42
228.91998,229.10228,53,60,42
229.16998,229.54498,52,90,42
229.54498,229.66478,53,75,42
229.66998,229.85228,53,60,42
229.91998,230.10228,52,60,42
230.16998,230.54498,50,90,42
230.54498,230.66478,64,75,42
230.66998,230.85228,64,60,42
230.91998,231.10228,62,60,42
231.16998,231.35228,60,50,42
231.41998,231.60228,59,50,42
231.66998,231.86885,57,50,42
231.94272,232.16147,55,50,42
232.2427,232.6177,55,50,42
232.6177,232.7427,47,53,42
232.7427,233.1177,48,54,42
233.1177,233.2427,50,57,42
233.2427,233.7375,52,58,42
233.7427,234.1177,50,63,42
234.1177,234.2375,48,66,42
234.2427,234.7375,47,67,42
234.7427,235.1177,45,71,42
235.1177,235.2427,47,74,42
235.2427,235.7375,48,76,42
235.7427,236.1177,47,80,42
236.1177,236.2375,45,83,42
236.2427,236.4927,45,84,42
236.4927,236.7375,43,86,42
236.7427,237.1177,43,89,42
237.1177,237.2427,45,92,42
237.2427,237.7375,47,93,42
237.7427,238.12733,45,97,42
238.12733,238.2502,43,100,42
238.25554,238.59741,45,110,42
238.76836,239.11923,46,110,42
239.29466,239.65831,47,110,42
239.84012,240.24013,47,110,42
240.44012,242.31024,39,120,42
242.31512,244.18524,40,110,42
244.19012,246.06024,48,110,42
246.06512,247.92548,47,110,42
247.94012,249.95198,63,60,42
249.95737,252.02094,64,60,42
252.02632,254.0899,72,60,42
254.09529,255.64163,71,100,42
255.64702,256.03494,66,100,42
256.03494,256.15887,67,100,42
256.16425,256.67612,69,110,42
256.6815,257.06943,57,110,42
257.06943,257.19873,55,110,42
257.19873,257.7106,54,110,42
257.71597,258.1039,55,110,42
258.1039,258.22784,57,110,42
258.23322,258.7451,57,110,42
258.75046,259.77954,55,110,42
259.78494,260.29678,54,110,42
260.3022,260.81403,52,110,42
260.81943,261.20737,40,110,42
261.20737,261.33667,42,110,42
261.33667,261.8485,43,110,42
261.8539,262.24185,42,110,42
262.24185,262.36575,40,110,42
262.37115,262.883,40,100,42
262.8884,263.91748,39,90,42
265.99182,266.5037,52,60,42
266.50906,267.0299,52,60,42
267.0354,268.09183,51,60,42
268.0974,268.62756,50,50,42
268.63315,269.1729,48,50,42
269.1786,270.28418,47,50,42
270.29007,270.88382,45,50,42
270.89008,271.22342,43,60,42
271.39008,271.72342,42,72,42
271.89008,272.2349,40,85,42
272.40732,272.77097,39,98,42
272.95276,273.30185,54,125,42
275.93073,276.19778,66,64,42
277.1239,277.533,64,80,42
277.533,277.66937,66,80,42
277.66937,278.20914,67,80,42
278.2148,278.6239,66,80,42
278.6239,278.7546,64,80,42
278.76028,279.30005,64,70,42
279.30573,280.9364,63,60,42
288.2512,288.5239,67,60,42
288.5239,288.66028,66,60,42
288.66028,288.79663,63,60,42
288.79663,289.3364,66,60,42
289.34207,289.88187,64,60,42
290.43298,290.70572,71,60,42
290.70572,290.84207,69,60,42
290.84207,290.97845,66,60,42
290.97845,291.25116,69,60,42
291.25116,291.79095,67,60,42
291.79663,292.06366,68,60,42
292.6148,292.88754,69,110,42
292.88754,293.16028,64,110,42
293.16028,294.24548,65,110,42
294.25116,294.6391,53,110,42
294.6391,294.76303,48,110,42
294.7684,295.1434,48,110,42
295.1434,295.2632,45,110,42
295.2684,295.6434,45,110,42
295.6434,295.7632,41,110,42
295.7684,296.1434,41,110,42
296.1434,296.2632,40,110,42
296.2684,296.60175,39,110,42
296.7684,297.13205,48,110,42
297.31387,297.71387,47,110,42
297.91388,298.3722,46,110,42
298.6222,302.51328,47,60,42
302.52576,304.31952,47,110,42
304.32578,304.91953,42,60,42
304.92578,305.51953,40,60,42
307.32578,309.5019,46,60,42
309.5076,311.68372,45,60,42
311.6894,314.41098,45,60,42
314.4167,314.82578,50,60,42
314.82578,314.96213,52,60,42
314.96213,315.5019,53,60,42
315.50757,315.91666,46,60,42
315.91666,316.04736,45,60,42
316.05304,316.5928,45,60,42
316.59848,317.00757,46,60,42
317.00757,317.13828,45,60,42
317.14395,317.68372,45,60,42
317.6894,318.09848,55,60,42
318.09848,318.22916,52,60,42
318.23486,318.77463,55,60,42
318.7803,319.86554,53,60,42
319.87122,320.2803,52,60,42
320.2803,320.41098,49,60,42
320.41666,320.9768,52,60,42
320.9827,322.1089,50,60,42
322.11478,322.5648,45,70,42
322.5648,322.70853,44,80,42
322.71478,324.70956,44,110,42
324.71478,326.72662,43,110,42
326.73203,328.7268,44,110,42
328.73203,330.74387,43,110,42
331.2665,331.61133,55,60,42
332.301,332.6458,47,60,42
333.33548,333.84732,48,60,42
334.36993,334.8818,52,60,42
335.40442,335.9163,55,60,42
336.4389,336.95078,59,60,42
337.4734,337.98526,60,60,42
338.5361,339.18243,52,60,42
339.19025,339.40573,53,60,42
339.48312,339.67316,41,62,42
339.74084,339.92316,53,65,42
339.99084,340.17316,41,68,42
340.24084,340.4251,53,71,42
340.49518,340.68375,50,74,42
340.75378,340.94235,62,77,42
341.01242,341.201,50,80,42
341.27103,341.4596,62,83,42
341.52963,341.71823,47,86,42
341.78827,341.97684,55,89,42
342.04688,342.23547,43,92,42
342.3055,342.49408,55,95,42
342.56412,342.75272,43,98,42
342.82275,343.0216,55,100,42
343.0955,343.31424,53,110,42
343.39548,343.68924,53,110,42
343.99548,344.2892,52,110,42
348.93182,349.0682,47,60,42
349.0682,349.43182,52,60,42
349.61365,349.9773,52,60,42
350.15912,350.41678,52,60,42
350.42227,350.67993,48,60,42
350.68542,350.94308,48,60,42
350.94858,351.20627,48,60,42
351.21173,351.46942,45,60,42
351.47488,351.74194,57,60,42
351.74762,352.04138,57,60,42
352.0476,352.37402,57,60,42
352.38095,352.7689,43,60,42
352.7689,352.89282,53,62,42
353.41544,353.80338,43,67,42
353.80338,353.92728,52,70,42
354.44992,354.83127,43,74,42
354.83127,354.9531,47,77,42
355.46686,355.84824,43,81,42
355.84824,355.97003,48,84,42
355.97534,356.3567,58,85,42
356.3567,356.47852,57,88,42
356.48383,356.85883,57,89,42
356.85883,356.9786,56,91,42
356.98383,357.35883,56,92,42
357.35883,357.4786,55,95,42
357.48383,357.85883,55,96,42
357.85883,357.9786,52,99,42
357.98383,358.35883,52,100,42
358.35883,358.4786,53,102,42
358.48383,358.85883,53,103,42
358.85883,358.9786,41,106,42
358.98383,359.37173,41,107,42
359.37173,359.49567,42,110,42
359.50107,359.91016,42,110,42
359.91016,360.0539,43,110,42
360.06015,360.56015,43,95,42
360.56015,360.73984,55,80,42
362.04074,362.29938,60,60,42
362.29938,362.55798,62,60,42
362.55798,362.81122,64,60,42
362.81662,363.72177,65,60,42
363.72177,363.8457,64,60,42
363.8511,364.2875,62,60,42
364.36835,364.80475,62,60,42
364.8856,365.39743,65,60,42
365.4028,365.66144,64,60,42
365.66144,365.92004,62,60,42
365.92004,366.43192,60,60,42
366.4373,366.69592,62,60,42
366.69592,366.94916,64,60,42
366.95453,367.7304,62,60,42
367.7304,367.98364,67,60,42
367.989,368.7649,66,60,42
368.7649,369.01813,69,60,42
369.0235,369.27673,69,60,42
369.28214,369.53537,67,60,42
369.54074,369.79398,67,60,42
369.79938,370.05258,67,60,42
370.05798,370.31122,67,60,42
370.31662,370.58932,67,60,42
370.58932,370.87234,69,60,42
370.87234,371.1661,70,60,42
371.17236,372.0775,70,60,42
372.0775,372.20145,69,74,42
372.20682,372.64325,68,76,42
372.72406,373.1605,68,84,42
373.2413,373.75317,70,90,42
373.75854,374.01718,69,82,42
374.01718,374.2758,67,78,42
374.2758,374.78766,65,74,42
374.79303,375.06088,67,65,42
375.06088,375.338,69,61,42
375.3439,376.1419,67,60,42
376.1475,376.40976,64,60,42
376.41534,377.21332,65,60,42
377.2189,377.4812,59,60,42
377.48676,378.24048,43,60,42
378.2457,378.49048,40,60,42
378.4957,378.7457,41,60,42
378.7457,378.9957,38,60,42
378.9957,379.2457,53,60,42
379.2457,379.49048,47,60,42
379.4957,379.99048,48,60,42
380.4957,380.7457,60,60,42
380.7457,380.8707,62,60,42
380.8707,380.9957,60,60,42
380.9957,381.2457,59,60,42
381.2457,381.3707,60,60,42
381.3707,381.49048,62,60,42
381.4957,381.99048,64,60,42
381.9957,382.49048,62,60,42
382.4957,382.99048,60,60,42
382.9957,383.49048,59,60,42
383.9957,384.49048,48,65,42
384.9957,385.49048,36,77,42
385.9957,386.49048,53,89,42
386.875,387.4208,43,99,42
387.57706,387.82706,36,60,42
387.82706,387.95206,62,60,42
387.95206,388.07706,60,60,42
388.07706,388.32706,59,60,42
388.32706,388.45206,60,60,42
388.45206,388.57706,62,60,42
388.57706,388.82706,64,60,42
388.82706,388.95206,65,60,42
388.95206,389.07706,64,60,42
389.07706,389.32706,62,60,42
389.32706,389.45206,64,60,42
389.45206,389.57184,65,60,42
389.57706,390.07184,64,60,42
390.07706,390.57184,62,60,42
390.57706,391.07184,60,60,42
391.07706,391.45206,55,60,42
391.45206,391.57184,53,60,42
391.57706,391.82706,52,60,42
391.82706,391.95206,48,62,42
391.95206,392.07706,50,63,42
392.07706,392.32706,52,65,42
392.32706,392.45206,53,67,42
392.45206,392.57706,55,69,42
392.57706,392.82184,57,70,42
392.82706,392.95206,57,73,42
392.95206,393.07706,59,74,42
393.07706,393.82184,60,75,42
393.82706,393.95206,62,83,42
393.95206,394.07706,64,85,42
394.07706,394.82184,65,86,42
394.82706,395.07184,41,94,42
395.07706,395.32184,53,96,42
395.32706,395.57184,53,99,42
395.57706,395.69684,53,110,42
395.70206,395.82184,52,110,42
395.82706,395.94684,50,110,42
395.95206,396.07184,48,110,42
396.07706,396.19684,47,110,42
396.20206,396.32184,48,110,42
396.32706,396.44684,50,110,42
396.45206,396.57184,52,110,42
396.57706,396.69684,53,110,42
396.70206,396.82184,52,110,42
396.82706,396.94684,50,110,42
396.95206,397.07184,48,110,42
397.07706,397.19684,47,110,42
397.20206,397.32184,45,110,42
397.32706,397.44684,43,110,42
397.45206,397.57184,41,110,42
397.57706,397.69684,40,110,42
397.70206,397.82184,41,110,42
397.82706,397.94684,43,110,42
397.95206,398.07184,45,110,42
398.07706,398.19684,47,110,42
398.20206,398.32184,48,110,42
398.32706,398.44684,50,110,42
398.45206,398.57184,52,110,42
398.57706,400.1773,45,120,42
400.18268,400.69455,45,60,42
400.69992,401.2118,47,60,42
401.21716,401.72903,50,60,42
401.7344,402.24628,52,60,42
402.7689,403.28073,52,60,42
402.7689,403.79797,43,60,42
403.28613,403.79797,50,60,42
403.80338,403.93268,50,60,42
403.93268,404.06198,48,60,42
404.06198,404.1913,47,60,42
404.1913,404.32062,48,60,42
404.32062,404.44992,47,60,42
404.44992,404.57922,48,61,42
404.57922,404.70856,47,63,42
404.70856,404.83246,45,64,42
404.83786,404.96716,45,66,42
404.96716,405.09647,43,67,42
405.09647,405.2258,42,69,42
405.2258,405.3497,43,70,42
405.3551,405.4844,43,72,42
405.4844,405.6137,41,73,42
405.6137,405.74304,40,75,42
405.74304,405.86694,38,76,42
405.87234,406.00165,41,78,42
406.00165,406.13095,40,79,42
406.13095,406.26025,38,81,42
406.26025,406.3842,36,82,42
406.3896,406.5189,48,84,42
406.5189,406.6482,47,85,42
406.6482,406.7775,45,87,42
406.7775,406.90143,43,88,42
406.90683,407.41867,55,90,42
407.42407,407.96906,43,96,42
407.97495,408.34995,48,110,42
408.34995,408.46973,50,110,42
408.47495,408.84995,53,110,42
408.84995,408.96973,56,110,42
408.97495,409.36966,59,110,42
409.36966,409.49576,62,110,42
409.50125,409.95126,59,100,42
409.95126,410.13095,60,90,42
410.13876,411.22397,42,60,42
411.22964,412.4234,43,60,42
412.42966,412.80466,48,110,42
412.80466,412.92444,47,110,42
412.92966,413.30466,44,110,42
413.30466,413.42444,41,110,42
413.42966,413.8244,38,110,42
413.8244,413.9505,47,110,42
413.95596,414.40598,56,100,42
414.40598,414.58566,55,90,42
414.59348,415.6787,57,60,42
415.6844,416.87814,55,60,42
416.88437,417.9696,54,60,42
417.97528,419.0975,55,60,42
419.10376,420.29752,42,100,42
420.30377,421.6168,43,100,42
421.6246,421.87784,48,101,42
422.14185,422.40887,45,60,42
422.6873,422.96442,43,60,42
423.25333,423.53046,43,100,42
424.3854,424.94556,44,60,42
426.45145,426.71848,44,60,42
426.9969,427.27402,45,60,42
427.56293,427.84006,55,100,42
428.695,429.25516,67,60,42
430.26105,430.51428,55,70,42
430.7783,431.04532,54,80,42
431.32373,431.6175,53,90,42
431.92374,432.29092,52,100,42
432.67374,434.66852,44,60,42
434.67374,436.66852,45,60,42
436.67374,438.7373,53,60,42
438.7427,440.80627,52,60,42
440.81168,442.87524,51,60,42
442.8806,444.9442,52,60,42
444.9496,447.01315,53,60,42
447.01855,449.08212,52,60,42
449.08752,451.1511,44,60,42
451.1565,453.22006,45,110,42
453.22543,453.7373,45,110,42
453.74268,454.1306,57,110,42
454.1306,454.25992,59,110,42
454.25992,454.7718,60,110,42
454.77716,455.1651,59,110,42
455.1651,455.28903,57,110,42
455.2944,455.80627,57,110,42
455.81165,456.84076,56,110,42
456.84613,457.23407,53,110,42
457.23407,457.358,52,110,42
457.36337,457.8752,52,110,42
457.8806,458.26855,53,110,42
458.26855,458.39246,52,110,42
458.39786,458.9097,52,110,42
458.9151,459.3169,62,110,42
459.3169,459.44522,59,110,42
459.4508,459.98096,62,110,42
459.98654,461.05237,60,100,42
466.4151,466.8169,67,60,42
466.8169,466.94522,59,60,42
466.9508,467.48096,62,60,42
467.4865,468.01666,59,60,42
468.55795,468.95975,48,63,42
468.95975,469.08807,41,66,42
469.61996,470.0147,48,70,42
470.0147,470.1408,40,73,42
470.66354,471.05145,48,77,42
471.05145,471.17538,38,80,42
471.68924,472.07062,48,84,42
472.07062,472.1924,39,87,42
472.19772,472.5367,52,110,42
472.7062,473.0452,50,91,42
473.21466,473.548,50,94,42
473.71466,474.048,48,98,42
474.21466,474.548,47,110,42
474.71466,475.048,45,110,42
475.21466,475.548,43,110,42
475.71466,476.0642,41,110,42
476.24603,476.60965,40,110,42
477.20056,477.33124,59,60,42
477.3369,477.70056,64,60,42
477.8824,478.24603,64,60,42
478.42783,479.24033,64,60,42
479.246,479.3824,62,60,42
479.3824,479.51306,60,60,42
479.51874,479.71762,60,60,42
479.79147,479.99033,60,60,42
480.0642,480.20056,60,60,42
480.20056,480.3369,62,60,42
480.3369,480.60397,60,60,42
480.60965,481.1494,60,60,42
481.15512,481.6949,59,60,42
481.70056,481.8994,59,60,42
481.9733,482.17215,59,60,42
482.246,482.3824,59,60,42
482.3824,482.51874,60,60,42
482.51874,482.7858,59,60,42
482.79147,483.33124,59,60,42
483.3369,483.8767,57,60,42
485.82233,486.02872,63,60,42
486.10535,486.38837,63,60,42
486.38837,486.6655,64,60,42
489.20343,489.45667,67,72,42
489.46204,489.83704,67,74,42
489.83704,489.95685,65,77,42
489.96204,490.14435,65,78,42
490.21204,490.39435,67,80,42
490.46204,490.83704,67,81,42
490.83704,490.95685,65,84,42
490.96204,491.14435,65,85,42
491.21204,491.39435,65,87,42
491.46204,491.83704,65,89,42
491.83704,491.95685,64,91,42
491.96204,492.33704,61,92,42
492.33704,492.45685,62,95,42
492.46204,492.83704,62,96,42
492.83704,492.95685,60,99,42
492.96204,493.33704,60,100,42
493.33704,493.45685,59,102,42
493.46204,493.83704,53,103,42
493.83704,493.95685,52,106,42
493.96204,494.34998,52,107,42
494.34998,494.4739,51,110,42
494.47928,494.88837,53,110,42
494.88837,495.03214,52,110,42
495.0384,495.28143,52,95,42
495.3717,495.62433,52,85,42
498.90634,499.93542,52,60,42
499.94083,500.9699,45,60,42
500.97528,501.48715,54,60,42
501.49252,501.75116,56,60,42
501.75116,502.0044,57,60,42
502.00977,502.52164,56,60,42
502.527,503.55612,47,60,42
503.5615,504.07336,59,60,42
504.07874,504.5906,52,60,42
505.11322,505.36646,62,60,42
505.37186,505.6251,64,60,42
505.63046,505.8837,64,60,42
505.8891,506.1423,66,60,42
506.1477,507.0529,67,65,42
507.0529,507.1822,66,80,42
507.1822,507.61862,65,82,42
507.69943,508.13586,65,90,42
508.21667,508.72852,67,85,42
508.73392,508.99252,66,78,42
508.99252,509.25116,64,75,42
509.25116,509.763,62,71,42
509.7684,510.027,64,64,42
510.027,510.28024,66,61,42
510.28564,511.0615,64,60,42
511.0615,511.31473,61,60,42
511.32013,512.1289,62,60,42
512.1289,512.4114,56,60,42
512.41736,513.23553,64,60,42
513.23553,513.5026,60,60,42
513.5083,514.3578,62,60,42
514.364,514.7312,64,55,42
514.739,516.91516,65,50,42
521.2845,523.4976,45,110,42
523.50385,523.7111,41,110,42
523.7789,524.0236,53,110,42
524.0289,524.2736,52,110,42
524.2789,524.5236,53,110,42
524.5289,524.7736,52,110,42
524.7789,524.9611,53,110,42
525.0289,525.2111,65,110,42
525.2789,525.4611,53,110,42
525.5289,525.7111,40,110,42
525.7789,526.0236,52,110,42
526.0289,526.2736,51,110,42
526.2789,526.5236,52,110,42
526.5289,526.7736,51,110,42
526.7789,526.9611,52,110,42
527.0289,527.2111,64,110,42
527.2789,527.4611,52,110,42
527.5289,527.7111,40,110,42
527.7789,528.0236,52,110,42
528.0289,528.2736,51,110,42
528.2789,528.5236,52,110,42
528.5289,528.7736,51,110,42
528.7789,528.9611,52,110,42
529.0289,529.2111,64,110,42
529.2789,529.4611,52,110,42
529.5289,529.7111,45,125,42
529.7789,530.0236,57,110,42
530.0289,530.2736,56,110,42
530.2789,530.5236,57,110,42
530.5289,530.7736,56,110,42
530.7789,530.9611,57,110,42
531.0289,531.2111,64,110,42
531.2789,531.4611,52,110,42
531.5289,531.7111,45,125,42
531.7789,532.0236,57,110,42
532.0289,532.2736,56,110,42
532.2789,532.5236,57,110,42
532.5289,532.7736,56,110,42
532.7789,532.9611,57,110,42
533.0289,533.2111,52,110,42
533.2789,533.4611,64,110,42
533.5289,533.70526,41,127,42
533.7708,534.0127,53,110,42
534.0127,534.25464,52,110,42
534.25464,534.4916,53,110,42
534.4966,534.673,65,125,42
534.7385,534.98047,53,110,42
534.98047,535.2224,52,110,42
535.2224,535.4593,53,110,42
535.46436,535.64075,38,125,42
535.70624,535.9482,50,110,42
535.9482,536.1901,49,110,42
536.1901,536.427,50,110,42
536.43207,536.60846,64,125,42
536.674,536.91595,52,110,42
536.91595,537.1579,51,110,42
537.1579,537.3948,52,110,42
537.3998,537.57623,37,60,42
537.6417,537.88367,49,60,42
537.88367,538.1256,47,60,42
538.1256,538.3625,49,60,42
538.36755,538.54395,62,60,42
538.6095,538.85144,50,63,42
538.85144,539.0934,49,67,42
539.0934,539.33026,50,70,42
539.33527,539.5117,40,74,42
539.5772,539.81915,52,77,42
539.81915,540.0611,51,81,42
540.0611,540.298,52,84,42
540.30304,540.47943,64,88,42
540.545,540.7869,52,92,42
540.7869,541.0288,51,95,42
541.0288,541.26575,52,99,42
541.27075,541.4472,37,125,42
541.5127,541.75464,49,110,42
541.75464,541.9966,47,110,42
541.9966,542.23346,49,110,42
542.2385,542.4149,62,125,42
542.48047,542.72235,50,110,42
542.72235,542.9643,49,110,42
542.9643,543.20123,50,110,42
543.20624,543.3827,40,110,42
543.4482,543.6901,52,110,42
543.6901,543.9401,51,110,42
543.9401,544.18494,52,110,42
544.1901,544.3787,64,110,42
544.4487,544.70734,52,110,42
544.70734,544.9801,51,110,42
544.9801,545.27386,52,110,42
545.88007,546.268,69,120,42
546.268,546.39734,71,120,42
546.39734,546.9092,72,120,42
546.91455,547.3025,71,120,42
547.3025,547.42645,69,120,42
547.4318,547.94366,69,115,42
547.94904,548.337,68,101,42
548.337,548.4663,69,89,42
548.4663,548.9964,71,86,42
549.002,549.4187,69,71,42
549.4187,549.56244,67,60,42
549.56866,552.2855,65,60,42
552.2912,553.3764,64,60,42
553.3821,554.4874,61,60,42
554.4932,555.6194,62,60,42
555.6253,556.61835,59,60,42
556.6253,557.66455,60,50,42
557.6718,558.01337,48,50,42
558.0206,559.1378,50,50,42
559.1456,559.5128,38,50,42
559.5206,563.63,40,50,42
563.6456,563.79565,48,30,42
563.79565,563.9249,50,33,42
563.9249,564.0499,48,37,42
564.0499,564.1749,50,40,42
564.1749,564.2999,48,41,42
564.2999,564.4249,50,42,42
564.4249,564.5499,48,42,42
564.5499,564.6749,50,43,42
564.6749,564.7999,48,43,42
564.7999,564.9249,50,44,42
564.9249,565.0499,48,44,42
565.0499,565.1749,50,44,42
565.1749,565.2999,48,45,42
565.2999,565.4249,50,45,42
565.4249,565.5499,48,46,42
565.5499,565.66974,50,46,42
565.6749,565.7999,48,47,42
565.7999,565.9249,50,47,42
565.9249,566.0499,48,48,42
566.0499,566.1749,50,48,42
566.1749,566.2999,48,48,42
566.2999,566.4249,50,49,42
566.4249,566.5499,48,49,42
566.5499,566.6749,50,50,42
566.6749,566.7999,48,50,42
566.7999,566.9249,50,51,42
566.9249,567.0499,48,51,42
567.0499,567.1749,50,52,42
567.1749,567.2999,48,52,42
567.2999,567.4249,50,52,42
567.4249,567.5499,48,53,42
567.5499,567.66974,50,53,42
567.6749,567.7999,48,54,42
567.7999,567.9249,50,54,42
567.9249,568.0499,48,55,42
568.0499,568.1749,50,55,42
568.1749,568.2999,48,56,42
568.2999,568.4249,50,56,42
568.4249,568.5499,48,56,42
568.5499,568.6749,50,57,42
568.6749,568.7999,48,57,42
568.7999,568.9249,50,58,42
568.9249,569.0499,48,58,42
569.0499,569.1749,50,59,42
569.1749,569.2999,48,59,42
569.2999,569.4249,50,60,42
569.4249,569.5499,48,60,42
569.5499,569.66974,50,60,42
569.6749,569.7999,39,60,42
569.7999,569.9249,40,62,42
569.9249,570.0499,39,65,42
570.0499,570.1749,40,68,42
570.1749,570.2999,39,70,42
570.2999,570.4249,40,73,42
570.4249,570.5499,39,76,42
570.5499,570.6749,40,79,42
570.6749,570.7999,39,81,42
570.7999,570.9249,40,84,42
570.9249,571.05426,39,87,42
571.05426,571.18353,40,89,42
571.18353,571.31995,39,92,42
571.31995,571.4563,40,95,42
571.4563,571.60626,39,98,42
571.60626,571.75006,40,100,42
571.7563,572.02606,45,110,42
572.2813,572.52606,43,110,42
572.7813,573.02606,42,110,42
573.2813,573.52606,41,110,42
573.7813,574.02606,40,110,42
574.2813,574.52606,40,110,42
574.7813,575.02606,52,110,42
575.2813,575.52606,40,110,42
575.7813,576.02606,45,110,42
576.2813,576.52606,43,110,42
576.7813,577.02606,42,110,42
577.2813,577.52606,41,110,42
577.7813,578.02606,40,110,42
578.2813,578.52606,40,110,42
578.7813,579.02606,52,110,42
579.2813,579.52606,64,110,42
579.7813,580.1146,57,110,42
580.7813,581.1146,52,110,42
581.7813,582.1146,57,110,42
582.7813,583.1175,52,110,42
583.97565,584.5694,45,124,42
0.0,0.5875,69,1,41
579.9063,580.15106,76,110,41
580.1563,580.40106,76,110,41
580.4063,580.65106,76,110,41
580.6563,580.90106,76,110,41
580.9063,581.15106,76,110,41
581.1563,581.40106,76,110,41
581.4063,581.77606,76,110,41
581.9063,582.15106,76,110,41
582.1563,582.40106,76,110,41
582.4063,582.65106,76,110,41
582.6563,583.1552,76,110,41
583.1606,583.4206,76,110,41
583.4263,583.9653,76,110,41
