start_time,end_time,note_value,velocity,instrument_program_number
0.0,0.17078479,69,1,40
0.0,0.34520328,56,50,40
0.348837,0.67869776,57,51,40
0.68217,1.0120308,61,53,40
1.015503,1.3453637,61,55,40
1.348836,1.6786968,62,57,40
1.682169,2.01203,66,59,40
2.015502,2.3453627,58,61,40
2.348835,2.6786957,59,63,40
2.682168,3.0120287,63,65,40
3.015501,3.3453617,63,67,40
3.348834,3.6786947,64,69,40
3.682167,4.0120277,68,70,40
4.0155,4.678694,73,60,40
4.682166,4.8453603,71,60,40
4.8488326,5.012027,69,60,40
5.015499,5.1786933,68,60,40
5.1821656,5.34536,65,60,40
5.348832,5.571054,66,60,40
8.015496,8.67869,76,60,40
8.682162,8.845356,74,60,40
8.848828,9.012023,73,60,40
9.015495,9.178689,71,60,40
9.182161,9.345356,68,60,40
9.348828,9.57105,69,60,40
10.015494,10.178688,73,50,40
10.18216,10.345355,70,50,40
10.348827,10.571049,71,50,40
11.015493,11.178687,69,50,40
11.182159,11.345354,66,50,40
11.348826,11.576098,68,50,40
14.042674,14.705868,81,100,40
14.70934,14.872535,80,80,40
14.876006,15.039201,78,70,40
15.042673,15.205867,76,60,40
15.209339,15.372534,73,60,40
15.376006,15.598228,75,60,40
16.042671,16.705866,80,90,40
16.709337,16.872532,78,70,40
16.876005,17.039198,76,60,40
17.042671,17.205866,75,50,40
17.209337,17.372532,72,52,40
17.376003,17.598227,73,55,40
17.709337,17.872532,85,60,40
17.876003,18.039198,83,62,40
18.04267,18.205864,83,65,40
18.209337,18.37253,80,67,40
18.376003,18.598225,81,70,40
18.709335,18.87253,83,75,40
18.876003,19.039196,81,78,40
19.04267,19.205864,81,80,40
19.209335,19.37253,78,83,40
19.376001,19.598225,80,85,40
19.709335,19.87253,81,90,40
19.876001,20.039196,80,93,40
20.042667,20.205862,80,95,40
20.209335,20.372528,77,98,40
20.376001,20.598223,78,100,40
20.709333,20.882128,80,110,40
20.885805,21.0586,78,110,40
21.062275,21.245869,78,110,40
21.249775,21.433369,75,110,40
21.437275,21.687275,76,110,40
22.187275,22.53654,56,60,40
22.540216,22.870077,57,60,40
22.873549,23.20341,61,60,40
23.206882,23.536743,61,60,40
23.540215,23.870075,62,60,40
23.873549,24.20341,66,60,40
24.20688,24.536741,58,60,40
24.540215,24.870075,59,60,40
24.873547,25.203407,63,60,40
25.20688,25.536741,63,60,40
25.540213,25.870073,64,60,40
25.873547,26.203407,68,60,40
26.206879,26.870073,73,60,40
26.873545,27.03674,71,60,40
27.04021,27.203405,69,60,40
27.206879,27.370071,68,60,40
27.373545,27.53674,65,60,40
27.54021,27.762432,66,60,40
30.206875,30.87007,76,60,40
30.87354,31.036736,74,60,40
31.040207,31.203402,73,60,40
31.206875,31.370068,71,60,40
31.37354,31.536736,68,60,40
31.540207,31.762428,69,60,40
32.206875,32.370068,73,50,40
32.37354,32.536736,70,50,40
32.540207,32.76243,71,50,40
33.20687,33.370068,69,50,40
33.37354,33.53673,66,50,40
33.540203,33.76748,68,50,40
36.234055,36.897247,81,100,40
36.90072,37.06391,80,80,40
37.067387,37.23058,78,70,40
37.23405,37.397247,76,60,40
37.40072,37.56391,73,60,40
37.567387,37.789608,75,60,40
38.23405,38.897243,80,90,40
38.90072,39.06391,78,70,40
39.067383,39.23058,76,60,40
39.23405,39.397243,75,50,40
39.400715,39.56391,72,52,40
39.567383,39.789604,73,55,40
39.900715,40.06391,85,60,40
40.067383,40.230576,83,62,40
40.23405,40.397243,83,65,40
40.400715,40.56391,80,67,40
40.567383,40.789604,81,70,40
40.900715,41.063908,83,75,40
41.067383,41.230576,81,78,40
41.234047,41.397243,81,80,40
41.400715,41.563908,78,83,40
41.567383,41.789604,80,85,40
41.900715,42.063908,81,90,40
42.06738,42.230576,80,93,40
42.234047,42.39724,80,95,40
42.400715,42.563908,77,98,40
42.56738,42.7896,78,100,40
42.900715,43.067616,80,110,40
43.071167,43.23807,78,110,40
43.241623,43.414417,78,110,40
43.41809,43.59505,75,110,40
43.598816,43.83978,76,110,40
43.96026,44.309525,67,60,40
44.3132,44.643063,66,60,40
44.646534,44.976395,67,60,40
44.979866,45.309727,71,60,40
45.3132,45.643063,71,60,40
45.646534,45.976395,72,60,40
45.979866,46.309727,76,60,40
46.313198,46.64306,78,60,40
46.64653,46.976395,79,60,40
46.979866,47.309727,83,60,40
47.313198,47.64306,83,60,40
47.64653,47.98389,84,60,40
47.98744,48.336704,88,60,40
48.34038,49.003574,81,90,40
49.007046,49.170242,79,80,40
49.173714,49.336906,77,70,40
49.34038,49.503574,77,60,40
49.507046,49.670242,74,60,40
49.673714,49.895935,76,60,40
50.340378,51.003574,81,90,40
51.007046,51.17024,79,80,40
51.17371,51.336906,77,70,40
51.340378,51.50357,77,60,40
51.507046,51.67024,74,60,40
51.67371,51.89593,76,60,40
52.67371,53.011066,79,76,40
53.014618,53.187412,81,92,40
53.19109,53.363884,82,100,40
53.36756,53.683384,84,110,40
53.686707,54.002533,77,110,40
54.005856,54.32168,81,110,40
54.325005,54.640827,81,110,40
54.644154,54.959976,82,110,40
54.9633,55.279125,86,110,40
57.197334,57.832306,84,60,40
57.835632,57.991882,82,60,40
57.995205,58.151455,81,60,40
58.15478,58.31103,79,60,40
58.314354,58.470604,76,63,40
58.473927,58.686695,77,67,40
59.112225,59.268475,81,82,40
59.271797,59.428047,77,86,40
59.431374,59.64414,79,89,40
60.069668,60.225918,82,110,40
60.22924,60.38549,79,110,40
60.388817,60.62485,81,110,40
60.707966,60.944,81,110,40
61.02711,61.342934,81,110,40
61.34626,61.59279,82,110,40
61.679592,61.937588,79,110,40
62.02843,62.191624,84,50,40
62.195095,62.35829,74,50,40
62.361763,62.583984,82,50,40
62.695095,62.85829,82,50,40
62.861763,63.024956,72,50,40
63.028427,63.250652,81,50,40
63.361763,63.524956,81,50,40
63.528427,63.691624,71,50,40
63.695095,63.917316,79,50,40
64.02843,64.19162,79,50,40
64.19509,64.35829,69,50,40
64.36176,64.583984,77,50,40
64.69509,64.85829,77,50,40
64.86176,65.024956,67,50,40
65.02843,65.25065,76,50,40
65.36176,65.52866,76,50,40
65.53221,65.69912,65,50,40
65.70267,65.937965,74,50,40
68.05561,68.71152,74,76,40
68.71495,68.87635,72,81,40
68.87978,69.04118,71,83,40
69.04462,69.69339,76,84,40
69.69679,69.85644,74,90,40
69.85983,70.01948,72,91,40
70.02287,70.17912,81,92,40
70.18245,70.3387,78,94,40
70.342026,70.55479,79,95,40
70.98032,71.136566,81,100,40
71.13989,71.29614,78,100,40
71.29947,71.51223,79,100,40
71.95195,72.61514,64,60,40
72.618614,72.78181,62,60,40
72.78528,72.94848,60,60,40
72.95195,73.11514,59,60,40
73.118614,73.28181,56,60,40
73.28528,73.5075,57,60,40
73.95195,74.61514,69,60,40
74.618614,74.78181,67,60,40
74.78528,74.94847,65,60,40
74.95194,75.11514,65,60,40
75.118614,75.28181,62,60,40
75.28528,75.5075,64,60,40
75.618614,75.78181,69,60,40
75.78528,75.94847,67,60,40
75.95194,76.11514,65,60,40
76.118614,76.28181,62,60,40
76.28528,76.5075,64,60,40
76.618614,76.78181,81,60,40
76.78528,76.94847,79,62,40
76.95194,77.115135,77,65,40
77.118614,77.28181,74,67,40
77.28528,77.5075,76,70,40
77.61861,77.78181,76,75,40
77.78528,77.94847,74,77,40
77.95194,78.115135,74,80,40
78.11861,78.28181,71,83,40
78.28528,78.5075,72,85,40
78.61861,78.78181,88,90,40
78.78528,78.94847,86,93,40
78.95194,79.115135,86,95,40
79.11861,79.2818,83,98,40
79.28528,79.5075,84,100,40
79.61861,79.7818,84,110,40
79.78527,79.94847,83,110,40
79.95194,80.115135,83,110,40
80.11861,80.2818,80,110,40
80.28527,80.5075,81,110,40
80.61861,80.7818,84,110,40
80.78527,80.94847,83,110,40
80.95194,81.115135,83,110,40
81.11861,81.2818,80,110,40
81.28527,81.50749,81,110,40
82.61861,82.7818,81,110,40
82.78527,82.94846,79,110,40
82.951935,83.115135,79,110,40
83.11861,83.2818,76,110,40
83.28527,83.50749,77,110,40
83.61861,83.94846,81,60,40
83.951935,84.2818,85,60,40
84.28527,84.61513,86,60,40
85.6186,85.7818,86,60,40
85.78527,85.94846,84,60,40
85.951935,86.11513,84,60,40
86.1186,86.2818,81,60,40
86.28527,86.50749,83,60,40
87.6186,87.78179,84,60,40
87.78526,87.94846,83,60,40
87.951935,88.1179,83,60,40
88.12142,88.287384,80,60,40
88.29092,88.51691,81,60,40
89.68061,89.8534,85,50,40
89.85708,90.02987,83,50,40
90.03355,90.200455,83,50,40
90.204,90.37091,80,53,40
90.37446,90.60173,81,56,40
90.71537,90.88227,78,62,40
90.88582,91.05273,75,65,40
91.056274,91.278496,76,68,40
91.38961,91.5528,74,74,40
91.556274,91.71947,71,77,40
91.72294,91.94517,73,80,40
92.056274,92.71947,73,90,40
92.72294,92.88614,71,80,40
92.88961,93.0528,69,70,40
93.056274,93.21947,68,60,40
93.22294,93.38613,65,60,40
93.38961,93.61183,66,60,40
94.056274,94.71947,74,90,40
94.72294,94.88613,73,80,40
94.8896,95.0528,71,70,40
95.056274,95.21947,69,60,40
95.22294,95.38613,66,60,40
95.3896,95.611824,68,60,40
96.056274,96.71947,76,90,40
96.72294,96.88613,74,80,40
96.8896,97.052795,73,70,40
97.05627,97.21947,71,50,40
97.22294,97.38613,68,50,40
97.3896,97.611824,69,50,40
98.05627,98.21946,73,50,40
98.22294,98.38613,70,50,40
98.3896,98.611824,71,50,40
99.05627,99.21946,69,50,40
99.22293,99.38613,66,50,40
99.3896,99.611824,68,50,40
100.05627,100.71946,81,90,40
100.72293,100.88612,80,80,40
100.8896,101.052795,78,75,40
101.05627,101.21946,76,50,40
101.22293,101.38612,73,50,40
101.3896,101.611824,74,50,40
102.05627,102.21946,78,50,40
102.22293,102.38612,75,50,40
102.389595,102.61182,76,50,40
103.05627,103.21946,74,50,40
103.22293,103.38612,71,50,40
103.389595,103.61182,73,50,40
105.389595,105.55279,80,61,40
105.55626,105.71946,77,62,40
105.72293,105.94515,78,64,40
106.389595,106.55279,78,69,40
106.55626,106.71945,75,71,40
106.72292,106.94515,76,72,40
107.389595,107.55279,78,78,40
107.55626,107.71945,75,79,40
107.72292,107.88612,76,80,40
107.889595,108.05279,85,70,40
108.05626,108.71945,85,90,40
108.72292,108.886116,83,80,40
108.889595,109.05279,81,70,40
109.05626,109.71945,81,90,40
109.72292,109.886116,80,80,40
109.88959,110.05279,78,70,40
110.05626,110.71945,86,90,40
110.72292,110.886116,85,80,40
110.88959,111.05278,83,70,40
111.05626,111.71945,83,90,40
111.72292,111.886116,81,80,40
111.88959,112.05278,80,70,40
112.05625,112.71945,88,75,40
112.72292,112.886116,86,66,40
112.88959,113.05278,85,67,40
113.05625,113.21945,83,69,40
113.22292,113.386116,80,71,40
113.38959,113.61181,81,72,40
113.72292,113.886116,81,75,40
113.88959,114.05278,80,77,40
114.05625,114.21765,80,78,40
114.221085,114.38249,77,80,40
114.385925,114.605705,78,82,40
114.71559,114.87699,78,85,40
114.880424,115.04183,76,86,40
115.045265,115.20491,76,88,40
115.208305,115.36795,73,89,40
115.371346,115.58874,74,91,40
115.69743,115.85708,88,94,40
115.86048,116.02013,86,96,40
116.02352,116.18317,86,100,40
116.18656,116.34621,83,100,40
116.34961,116.567,85,100,40
116.67569,116.83534,86,60,40
116.83874,116.99838,85,60,40
117.00178,117.16142,85,60,40
117.164825,117.32447,82,60,40
117.327866,117.54526,83,60,40
117.65395,117.8136,85,60,40
117.81699,117.97664,83,64,40
117.980034,118.13969,83,68,40
118.14308,118.30273,80,72,40
118.30612,118.52351,81,76,40
118.63221,118.791855,86,84,40
118.79525,118.954895,85,88,40
118.9583,119.12149,85,92,40
119.12496,119.288155,82,96,40
119.291626,119.5189,83,100,40
119.63254,119.80533,85,110,40
119.809006,119.981804,83,110,40
119.98548,120.16244,83,110,40
120.1662,120.34979,80,110,40
120.3537,120.6037,81,110,40
120.7287,121.077965,69,60,40
121.08164,121.4115,68,60,40
121.41498,121.744835,69,60,40
121.74831,122.07817,72,60,40
122.08164,122.4115,71,60,40
122.41497,122.744835,72,60,40
122.74831,123.07817,76,60,40
123.08164,123.4115,66,60,40
123.41497,123.744835,67,60,40
123.74831,124.07816,72,60,40
124.08164,124.4115,71,60,40
124.41497,124.744835,72,60,40
124.74831,125.07816,76,60,40
125.081635,125.4115,78,60,40
125.41497,125.744835,79,60,40
125.74831,126.07816,83,60,40
126.081635,126.4115,83,60,40
126.41497,126.74483,84,60,40
126.74831,127.07816,88,60,40
127.081635,127.74483,81,90,40
127.7483,127.9115,79,80,40
127.91497,128.07816,77,70,40
128.08163,128.24483,77,60,40
128.2483,128.4115,74,60,40
128.41496,128.63719,76,60,40
129.08163,129.74483,81,90,40
129.7483,129.9115,79,80,40
129.91496,130.07816,77,70,40
130.08163,130.24483,77,60,40
130.2483,130.4115,74,60,40
130.41496,130.63719,76,60,40
131.41496,131.74483,79,76,40
131.74829,131.9115,81,92,40
131.91496,132.07816,82,100,40
132.08163,132.41148,84,110,40
132.41496,132.74483,77,110,40
132.74829,133.07816,81,110,40
133.08163,133.41148,81,110,40
133.41496,133.74483,82,110,40
133.74829,134.07816,86,110,40
136.08162,136.74483,84,60,40
136.74829,136.91148,82,60,40
136.91496,137.07816,81,60,40
137.08162,137.24483,79,60,40
137.24829,137.41148,76,63,40
137.41496,137.63718,77,67,40
138.08162,138.24481,81,82,40
138.24829,138.41148,77,86,40
138.41496,138.63718,79,89,40
139.08162,139.24481,82,110,40
139.24829,139.41148,79,110,40
139.41496,139.66148,81,110,40
139.74829,139.99481,81,110,40
140.08162,140.41148,81,110,40
140.41496,140.66148,82,110,40
140.74829,140.99481,79,110,40
141.08162,141.24481,84,50,40
141.24829,141.41148,74,50,40
141.41495,141.63718,82,50,40
141.74829,141.91148,82,50,40
141.91495,142.07816,72,50,40
142.08162,142.30385,81,50,40
142.41495,142.57814,81,50,40
142.58162,142.74481,71,50,40
142.74829,142.9705,79,50,40
143.08162,143.24481,79,50,40
143.24829,143.41148,69,50,40
143.41495,143.63718,77,50,40
143.74829,143.91148,77,50,40
143.91495,144.07814,67,50,40
144.08162,144.30383,76,50,40
144.41495,144.58185,76,50,40
144.5854,144.7523,65,50,40
144.75586,144.99115,74,50,40
147.1088,147.77199,74,76,40
147.77547,147.93866,72,81,40
147.94214,148.10533,71,83,40
148.1088,148.77199,76,84,40
148.77547,148.93866,74,90,40
148.94212,149.10533,72,91,40
149.1088,149.27199,81,92,40
149.27547,149.43866,78,94,40
149.44212,149.66435,79,95,40
150.1088,150.27199,81,100,40
150.27547,150.43866,78,100,40
150.44212,150.66435,79,100,40
151.1088,151.77199,64,60,40
151.77547,151.93866,62,60,40
151.94212,152.10532,60,60,40
152.1088,152.27199,59,60,40
152.27547,152.43866,56,60,40
152.44212,152.66435,57,60,40
153.1088,153.77199,69,60,40
153.77547,153.93866,67,60,40
153.94212,154.10532,65,60,40
154.1088,154.27199,65,60,40
154.27545,154.43866,62,60,40
154.44212,154.66435,64,60,40
154.77545,154.93866,69,60,40
154.94212,155.10532,67,60,40
155.1088,155.27199,65,60,40
155.27545,155.43866,62,60,40
155.44212,155.66435,64,60,40
155.77545,155.93864,81,60,40
155.94212,156.10532,79,62,40
156.1088,156.27199,77,65,40
156.27545,156.43864,74,67,40
156.44212,156.66435,76,70,40
156.77545,156.93864,76,75,40
156.94212,157.10532,74,77,40
157.1088,157.27199,74,80,40
157.27545,157.43864,71,83,40
157.44212,157.66434,72,85,40
157.77545,157.93864,88,90,40
157.94212,158.10532,86,93,40
158.1088,158.27199,86,95,40
158.27545,158.43864,83,98,40
158.44212,158.66434,84,100,40
158.77545,158.93864,84,110,40
158.94212,159.10532,83,110,40
159.10878,159.26843,83,110,40
159.27184,159.43147,80,110,40
159.43488,159.65227,81,110,40
159.76096,159.92061,84,110,40
159.924,160.08365,83,110,40
160.08705,160.24669,83,110,40
160.25009,160.40973,80,110,40
160.41313,160.63052,81,110,40
161.73921,161.89886,81,110,40
161.90225,162.0619,79,110,40
162.0653,162.22495,79,110,40
162.22835,162.38799,76,110,40
162.39139,162.60878,77,110,40
162.71747,163.04733,81,60,40
163.05081,163.38066,85,60,40
163.38414,163.714,86,60,40
164.71747,164.88066,86,60,40
164.88414,165.04733,84,60,40
165.05081,165.214,84,60,40
165.21747,165.38066,81,60,40
165.38414,165.60635,83,60,40
166.71747,166.88066,84,60,40
166.88414,167.04733,83,60,40
167.0508,167.21771,83,60,40
167.22125,167.38817,80,60,40
167.39171,167.61899,81,60,40
168.77942,168.94261,85,50,40
168.94608,169.10927,83,50,40
169.11275,169.27594,83,50,40
169.27942,169.44261,80,53,40
169.44608,169.6683,81,56,40
169.77942,169.94261,78,62,40
169.94608,170.10927,75,65,40
170.11275,170.33496,76,68,40
170.44608,170.60927,74,74,40
170.61275,170.77594,71,77,40
170.7794,171.00163,73,80,40
171.11275,171.77594,73,90,40
171.7794,171.9426,71,80,40
171.94608,172.10927,69,70,40
172.11275,172.27594,68,60,40
172.2794,172.4426,65,60,40
172.44608,172.6683,66,60,40
173.11275,173.77594,74,90,40
173.7794,173.9426,73,80,40
173.94608,174.10927,71,70,40
174.11275,174.27594,69,60,40
174.2794,174.4426,66,60,40
174.44608,174.66829,68,60,40
175.11273,175.77594,76,90,40
175.7794,175.9426,74,80,40
175.94608,176.10927,73,70,40
176.11273,176.27594,71,50,40
176.2794,176.4426,68,50,40
176.44608,176.66829,69,50,40
177.11273,177.27592,73,50,40
177.2794,177.4426,70,50,40
177.44608,177.66829,71,50,40
178.11273,178.27592,69,50,40
178.2794,178.4426,66,50,40
178.44608,178.66829,68,50,40
179.11273,179.77592,81,90,40
179.7794,179.9426,80,80,40
179.94608,180.10927,78,75,40
180.11273,180.27592,76,50,40
180.2794,180.4426,73,50,40
180.44606,180.66829,74,50,40
181.11273,181.27592,78,50,40
181.2794,181.4426,75,50,40
181.44606,181.66829,76,50,40
182.11273,182.27592,74,50,40
182.2794,182.4426,71,50,40
182.44606,182.66829,73,50,40
184.44606,184.60925,80,61,40
184.61273,184.77592,77,62,40
184.7794,185.00162,78,64,40
185.44606,185.60925,78,69,40
185.61273,185.77592,75,71,40
185.77939,186.00162,76,72,40
186.44606,186.60925,78,78,40
186.61273,186.77592,75,79,40
186.77939,186.94258,76,80,40
186.94606,187.10925,85,70,40
187.11273,187.77592,85,90,40
187.77939,187.94258,83,80,40
187.94606,188.10925,81,70,40
188.11273,188.77592,81,90,40
188.77939,188.94258,80,80,40
188.94606,189.10925,78,70,40
189.11273,189.77592,86,90,40
189.77939,189.94258,85,80,40
189.94606,190.10925,83,70,40
190.11273,190.77592,83,90,40
190.77939,190.94258,81,80,40
190.94606,191.10925,80,70,40
191.11272,191.77592,88,75,40
191.77939,191.94258,86,66,40
191.94606,192.10925,85,67,40
192.11272,192.27591,83,69,40
192.27939,192.44258,80,71,40
192.44606,192.66827,81,72,40
192.77939,192.94258,81,75,40
192.94606,193.10925,80,77,40
193.11272,193.27591,80,78,40
193.27939,193.44258,77,80,40
193.44606,193.66827,78,82,40
193.77939,193.94258,78,85,40
193.94606,194.10925,76,86,40
194.11272,194.27591,76,88,40
194.27939,194.44258,73,89,40
194.44606,194.66827,74,91,40
194.77939,194.94258,88,94,40
194.94606,195.10925,86,96,40
195.11272,195.27591,86,100,40
195.27939,195.44258,83,100,40
195.44604,195.66827,85,100,40
195.77939,195.94258,86,60,40
195.94604,196.10925,85,60,40
196.11272,196.27591,85,60,40
196.27939,196.44258,82,60,40
196.44604,196.66827,83,60,40
196.77939,196.94258,85,60,40
196.94604,197.10924,83,64,40
197.11272,197.27591,83,68,40
197.27939,197.44258,80,72,40
197.44604,197.66827,81,76,40
197.77939,197.93903,86,84,40
197.94243,198.10207,85,88,40
198.10547,198.26512,85,92,40
198.26851,198.42816,82,96,40
198.43155,198.64894,83,100,40
198.75764,198.91728,85,110,40
198.92068,199.08034,83,110,40
199.08372,199.24338,83,110,40
199.24677,199.40642,80,110,40
199.40982,199.6272,81,110,40
199.7359,199.89554,78,50,40
199.89894,200.0586,76,50,40
200.06198,200.22163,76,50,40
200.22502,200.38467,73,50,40
200.38808,200.60547,75,50,40
201.71416,201.87735,80,50,40
201.88083,202.04402,78,50,40
202.04749,202.21068,78,50,40
202.21416,202.37735,75,50,40
202.38083,202.60304,76,50,40
203.71416,203.87735,66,50,40
203.88081,204.04402,68,50,40
204.04749,204.21068,68,50,40
204.21416,204.37735,71,50,40
204.38081,204.60304,69,50,40
204.71416,204.87735,85,50,40
204.88081,205.04402,83,50,40
205.04749,205.21068,83,50,40
205.21416,205.37735,80,50,40
205.38081,205.60304,81,50,40
205.71416,205.87735,68,50,40
205.88081,206.044,69,50,40
206.04749,206.21068,69,50,40
206.21416,206.37735,73,50,40
206.38081,206.60304,71,50,40
206.71416,206.87735,86,50,40
206.88081,207.044,85,50,40
207.04749,207.21068,85,50,40
207.21416,207.37735,82,50,40
207.38081,207.60304,83,50,40
207.71416,207.87735,88,60,40
207.88081,208.044,86,63,40
208.04749,208.21068,85,67,40
208.21416,208.37735,83,71,40
208.38081,208.54771,81,74,40
208.55127,208.71817,80,78,40
208.72173,209.05908,68,82,40
209.06264,209.40588,71,89,40
209.40956,209.96815,74,97,40
209.97206,212.40436,78,110,40
214.18228,214.86055,76,60,40
214.8641,215.031,74,60,40
215.03456,215.20146,73,60,40
215.20502,215.37192,73,60,40
215.37547,215.54237,69,60,40
215.54593,215.7732,71,60,40
216.22774,216.906,76,90,40
216.90956,217.07646,74,80,40
217.08002,217.24692,73,70,40
217.25047,217.41737,73,65,40
217.42093,217.58783,69,67,40
217.59137,217.81865,71,69,40
218.2732,218.4401,74,77,40
218.44365,218.61055,71,79,40
218.6141,218.84137,73,81,40
219.29593,219.46283,81,90,40
219.46637,219.63329,78,92,40
219.63683,219.8641,80,94,40
220.31865,220.99692,88,110,40
221.00047,221.17326,86,110,40
221.17694,221.34973,85,110,40
221.35341,221.537,83,110,40
221.54091,221.7245,80,110,40
221.72841,221.99507,81,110,40
222.55698,222.80177,71,60,40
222.80698,223.10072,68,60,40
223.10698,223.50697,69,60,40
224.6403,225.30351,85,60,40
225.30698,226.3035,69,60,40
225.97365,226.3035,88,60,40
226.30698,227.3035,69,60,40
226.97365,227.3035,93,60,40
227.97365,228.3035,88,60,40
228.30698,228.63684,90,60,40
228.6403,228.97017,88,60,40
228.97365,229.3035,86,60,40
229.30698,229.97017,88,60,40
229.97363,230.3035,85,60,40
230.30698,230.63684,86,60,40
230.6403,230.97017,85,60,40
230.97363,231.3035,86,60,40
231.30698,231.47017,85,60,40
231.47363,231.63683,86,60,40
231.6403,231.97017,88,60,40
231.97363,232.3035,88,60,40
232.30698,232.63683,90,60,40
232.6403,232.97017,88,60,40
232.97363,233.3035,86,60,40
233.30698,233.97017,88,60,40
233.97363,234.3035,85,60,40
234.30696,234.63683,86,60,40
234.6403,234.97017,85,60,40
234.97363,235.13683,86,60,40
235.1403,235.3035,90,60,40
235.30696,235.97015,85,60,40
227.30698,236.3035,69,60,40
235.97363,236.3035,85,60,40
236.30696,237.3035,69,60,40
236.97363,237.3035,88,60,40
237.30696,238.3035,69,60,40
237.97363,238.3035,93,60,40
238.97363,239.3035,88,60,40
239.30696,239.63683,90,60,40
239.64029,239.97015,88,60,40
239.97363,240.3035,86,60,40
240.30696,240.97015,88,60,40
240.97363,241.30348,85,60,40
241.30696,241.63683,86,60,40
241.64029,241.97015,85,60,40
241.97363,242.30348,86,60,40
242.30696,242.47015,85,60,40
242.47363,242.63683,86,60,40
242.64029,242.97015,88,60,40
242.97363,243.30348,88,60,40
243.30696,243.63683,90,60,40
243.64029,243.97015,88,60,40
243.97363,244.30348,86,60,40
244.30696,244.97015,88,60,40
244.97362,245.30348,85,60,40
245.30696,245.64432,86,60,40
245.64787,245.98523,85,60,40
245.98877,246.16158,86,60,40
246.16525,246.33804,90,60,40
238.30696,247.04391,69,60,40
246.34172,247.04391,85,60,40
248.05518,248.21837,78,50,40
248.22185,248.38504,77,50,40
248.3885,248.5517,78,50,40
248.55518,248.71837,80,50,40
248.72183,248.88504,81,50,40
248.8885,249.0517,78,50,40
250.05518,250.21837,76,50,40
250.22183,250.38503,75,50,40
250.3885,250.5517,76,50,40
250.55518,250.71837,78,50,40
250.72183,250.88503,80,50,40
250.8885,251.0517,76,50,40
251.05518,251.21837,81,50,40
251.22183,251.38503,80,50,40
251.3885,251.5517,81,50,40
251.55518,251.71837,80,50,40
251.72183,251.88503,81,50,40
251.8885,252.0517,83,50,40
252.05518,252.21837,85,50,40
252.22183,252.38503,87,50,40
252.3885,252.5517,88,50,40
252.55518,252.71837,87,50,40
252.72183,252.88503,88,50,40
252.8885,253.0517,83,50,40
253.05518,253.21837,85,50,40
253.22183,253.38503,81,50,40
253.3885,253.5517,80,50,40
253.55516,253.71837,79,50,40
253.72183,253.88503,80,50,40
253.8885,254.0517,83,50,40
254.05516,254.21837,81,50,40
254.22183,254.38503,78,50,40
254.3885,254.5517,76,50,40
254.55516,254.71837,80,50,40
254.72183,254.88503,81,50,40
254.8885,255.0517,83,50,40
255.05516,255.27739,61,50,40
255.05516,255.27739,68,50,40
255.3885,255.61072,61,50,40
255.3885,255.61072,68,50,40
255.72183,255.94406,61,50,40
255.72183,255.94406,68,50,40
256.05518,256.27737,61,50,40
256.05518,256.27737,66,50,40
256.3885,256.61072,61,50,40
256.3885,256.61072,66,50,40
256.72183,256.94406,61,50,40
256.72183,256.94406,66,50,40
257.05518,257.27737,59,50,40
257.05518,257.27737,66,50,40
257.3885,257.61072,59,50,40
257.3885,257.61072,66,50,40
257.72183,257.94406,59,50,40
257.72183,257.94406,66,50,40
258.05518,258.27737,59,50,40
258.3885,258.61072,59,50,40
258.72183,258.94406,71,50,40
259.05518,259.21835,78,50,40
259.22183,259.385,77,51,40
259.3885,259.5517,78,52,40
259.55518,259.71835,76,54,40
259.72183,259.885,74,55,40
259.8885,260.0517,73,57,40
261.05515,261.21835,76,66,40
261.22183,261.385,75,68,40
261.3885,261.5517,76,69,40
261.55515,261.71835,74,71,40
261.72183,261.885,73,72,40
261.8885,262.0517,71,73,40
263.05515,263.27737,71,60,40
263.05515,263.27737,83,60,40
263.3885,263.61072,71,60,40
263.3885,263.61072,83,60,40
263.72183,263.94406,71,60,40
263.72183,263.94406,83,60,40
264.05515,264.27737,71,60,40
264.05515,264.27737,83,60,40
264.3885,264.61072,71,60,40
264.3885,264.61072,83,60,40
264.72183,264.94403,71,60,40
264.72183,264.94403,83,60,40
265.05515,265.27737,71,60,40
265.05515,265.27737,83,60,40
265.3885,265.61072,71,60,40
265.3885,265.61072,83,60,40
265.72183,265.94403,71,60,40
265.72183,265.94403,83,60,40
266.05515,266.27737,71,60,40
266.05515,266.27737,83,60,40
266.3885,266.61072,71,60,40
266.3885,266.61072,83,60,40
266.72183,266.94403,71,60,40
266.72183,266.94403,83,60,40
267.05515,267.27737,71,60,40
267.05515,267.27737,83,60,40
267.3885,267.61072,71,60,40
267.3885,267.61072,83,60,40
267.72183,267.94403,71,60,40
267.72183,267.94403,83,60,40
268.05515,268.27737,71,60,40
268.05515,268.27737,83,60,40
268.3885,268.61072,71,60,40
268.3885,268.61072,83,60,40
268.72183,268.94403,71,60,40
268.72183,268.94403,83,60,40
269.05515,269.27737,71,60,40
269.05515,269.27737,83,60,40
269.3885,269.61072,71,60,40
269.3885,269.61072,83,60,40
269.72183,269.94403,71,60,40
269.72183,269.94403,83,60,40
270.05515,270.27737,71,60,40
270.05515,270.27737,83,60,40
270.3885,270.61072,71,60,40
270.3885,270.61072,83,60,40
270.72183,270.94403,71,60,40
270.72183,270.94403,83,60,40
271.05515,271.27737,80,60,40
271.3885,271.61072,80,60,40
271.7218,271.94403,80,60,40
272.05515,272.27737,85,60,40
272.3885,272.61072,85,60,40
272.7218,272.94403,85,60,40
273.05515,273.27737,78,60,40
273.3885,273.61072,78,60,40
273.7218,273.94403,78,60,40
274.05515,274.27737,83,60,40
274.3885,274.6107,83,60,40
274.7218,274.94403,83,60,40
275.05515,275.27737,71,60,40
275.05515,275.27737,83,60,40
275.3885,275.6107,71,60,40
275.3885,275.6107,83,60,40
275.7218,275.94403,71,60,40
275.7218,275.94403,83,60,40
276.05515,276.27737,71,60,40
276.05515,276.27737,83,60,40
276.3885,276.6107,71,60,40
276.3885,276.6107,83,60,40
276.7218,276.94403,76,60,40
277.05515,277.27737,76,60,40
277.3885,277.6107,76,60,40
277.7218,277.94403,76,60,40
278.05515,278.27737,75,60,40
278.3885,278.6107,76,60,40
278.7218,278.885,76,60,40
278.8885,279.05167,77,61,40
279.05515,279.21832,78,63,40
279.2218,279.385,77,65,40
279.3885,279.55167,78,66,40
279.55515,279.71832,76,68,40
279.7218,279.885,74,70,40
279.8885,280.05167,73,72,40
280.05515,280.21832,71,73,40
280.2218,280.385,70,75,40
280.3885,280.55167,71,77,40
280.55515,280.71832,73,78,40
280.7218,280.885,74,80,40
280.8885,281.05167,71,82,40
281.05515,281.21832,76,84,40
281.2218,281.385,75,85,40
281.38846,281.55167,76,87,40
281.55515,281.71832,74,89,40
281.7218,281.885,73,90,40
281.88846,282.05167,71,75,40
282.05515,282.21832,69,60,40
282.2218,282.385,68,60,40
282.38846,282.55167,69,60,40
282.55515,282.71832,71,60,40
282.7218,282.885,73,60,40
282.88846,283.05167,71,60,40
283.05515,283.21832,69,60,40
283.2218,283.385,73,60,40
283.38846,283.55167,76,60,40
283.55515,283.71832,81,60,40
283.7218,283.885,85,60,40
283.88846,284.05167,88,60,40
284.05515,284.21832,86,60,40
284.2218,284.385,83,60,40
284.38846,284.55167,80,60,40
284.55515,284.71832,76,60,40
284.7218,284.885,74,60,40
284.88846,285.05167,71,60,40
285.05515,285.21832,73,60,40
285.2218,285.385,76,60,40
285.38846,285.55167,74,60,40
285.55515,285.71832,73,60,40
285.7218,285.885,71,60,40
285.88846,286.05167,69,60,40
286.05515,286.21832,73,60,40
286.2218,286.385,71,60,40
286.38846,286.55167,69,60,40
286.55515,286.71832,68,60,40
286.7218,286.885,66,60,40
286.88846,287.05167,64,60,40
287.05515,287.21832,69,60,40
287.2218,287.385,73,60,40
287.38846,287.55167,76,60,40
287.55515,287.71832,81,60,40
287.7218,287.885,85,60,40
287.88846,288.05167,88,60,40
288.05515,288.21832,86,60,40
288.2218,288.38498,83,60,40
288.38846,288.55167,80,60,40
288.55515,288.71832,76,60,40
288.7218,288.88498,74,60,40
288.88846,289.05167,71,60,40
289.05515,289.21832,73,60,40
289.2218,289.38498,76,60,40
289.38846,289.55167,74,60,40
289.55515,289.71832,73,60,40
289.7218,289.88498,71,60,40
289.88846,290.05167,69,60,40
290.05515,290.21832,73,60,40
290.2218,290.38498,71,60,40
290.38846,290.55536,69,60,40
290.55893,290.72583,68,60,40
290.72937,290.90216,66,60,40
290.90585,291.07864,64,60,40
292.10193,292.2651,83,60,40
292.2686,292.4318,82,60,40
292.43524,292.59845,83,60,40
292.60193,292.7651,85,60,40
292.7686,292.9318,86,60,40
292.93524,293.09845,83,60,40
294.10193,294.2651,81,60,40
294.2686,294.4318,80,60,40
294.43524,294.59845,81,60,40
294.60193,294.7651,83,60,40
294.7686,294.9318,85,60,40
294.93524,295.09845,81,60,40
295.10193,295.2651,74,60,40
295.2686,295.4318,73,60,40
295.43524,295.59845,74,60,40
295.60193,295.7651,76,60,40
295.7686,295.9318,78,60,40
295.93524,296.09845,80,60,40
296.10193,296.2651,81,60,40
296.2686,296.4318,80,60,40
296.43524,296.59845,81,60,40
296.60193,296.7651,80,60,40
296.7686,296.93176,81,60,40
296.93524,297.09845,76,60,40
297.10193,297.2651,78,60,40
297.2686,297.43176,74,60,40
297.43524,297.59845,73,60,40
297.60193,297.7651,72,60,40
297.7686,297.93176,73,60,40
297.93524,298.09845,76,60,40
298.10193,298.2651,74,60,40
298.2686,298.43176,71,60,40
298.43524,298.59845,69,60,40
298.60193,298.7651,73,60,40
298.7686,298.93176,74,60,40
298.93524,299.09845,76,60,40
299.10193,299.2651,78,60,40
299.2686,299.43176,77,60,40
299.43524,299.59845,78,60,40
299.60193,299.7651,76,60,40
299.7686,299.93176,74,60,40
299.93524,300.09845,73,60,40
300.10193,300.2651,71,60,40
300.2686,300.43176,70,60,40
300.43524,300.59845,71,60,40
300.6019,300.7651,73,60,40
300.7686,300.93176,74,60,40
300.93524,301.09845,71,60,40
301.1019,301.2651,76,60,40
301.2686,301.43176,75,61,40
301.43524,301.59845,76,62,40
301.6019,301.7651,74,63,40
301.7686,301.93176,73,64,40
301.93524,302.09845,71,65,40
302.1019,302.2651,69,67,40
302.2686,302.43176,68,68,40
302.43524,302.59845,69,69,40
302.6019,302.7651,71,70,40
302.7686,302.93176,73,71,40
302.93524,303.09845,69,72,40
303.1019,303.2651,74,74,40
303.2686,303.43176,73,75,40
303.43524,303.59845,74,76,40
303.6019,303.7651,76,77,40
303.7686,303.93176,78,78,40
303.93524,304.09845,80,79,40
304.1019,304.2651,81,81,40
304.2686,304.43176,80,82,40
304.43524,304.59845,81,83,40
304.6019,304.7651,80,84,40
304.7686,304.93176,81,85,40
304.93524,305.09845,76,86,40
305.1019,305.2651,78,88,40
305.2686,305.43176,74,89,40
305.43524,305.59845,73,90,40
305.6019,305.7651,72,91,40
305.7686,305.93176,73,92,40
305.93524,306.09845,76,93,40
306.1019,306.2651,74,95,40
306.2686,306.43176,71,96,40
306.43524,306.59845,69,97,40
306.6019,306.7651,81,98,40
306.7686,306.9355,83,99,40
306.93903,307.10593,85,100,40
307.1095,307.2764,86,110,40
307.27994,307.44684,85,110,40
307.45038,307.6173,86,110,40
307.62085,307.78775,88,110,40
307.7913,307.96408,90,110,40
307.96777,308.15137,92,110,40
308.15527,308.30112,93,110,40
308.3553,308.52808,80,60,40
308.53174,308.69495,81,60,40
308.6984,308.8616,80,60,40
308.86508,309.02826,81,60,40
309.03174,309.19495,76,60,40
309.1984,309.3616,78,60,40
309.36508,309.52826,74,60,40
309.53174,309.69864,73,60,40
309.7022,309.8691,71,60,40
309.87265,310.04544,73,60,40
310.04913,310.22192,76,60,40
310.2256,310.40918,74,60,40
310.4131,310.60892,71,60,40
310.6131,310.8229,69,60,40
310.82736,311.0372,73,60,40
311.04166,311.2515,76,110,40
311.25595,311.46576,81,110,40
311.47025,311.89435,85,110,40
318.32974,318.486,61,110,40
318.48932,318.64557,64,110,40
318.6489,318.80515,68,110,40
318.80847,318.96472,73,110,40
318.96805,319.13123,76,110,40
319.1347,319.2979,80,110,40
319.30136,319.47415,85,110,40
319.47784,319.65063,88,110,40
319.6543,319.88962,92,110,40
320.00726,320.24255,97,110,40
328.83157,329.19876,85,60,40
329.20657,330.2031,69,60,40
329.87323,330.2031,88,60,40
330.20657,331.2031,69,60,40
330.87323,331.2031,93,60,40
331.87323,332.2031,88,110,40
332.20657,332.53644,90,110,40
332.53992,332.86975,88,110,40
332.87323,333.2031,86,110,40
333.20657,333.86975,88,110,40
333.87323,334.2031,85,110,40
334.20657,334.53644,86,110,40
334.5399,334.86975,85,110,40
334.87323,335.2031,86,110,40
335.20657,335.36975,85,110,40
335.37323,335.53644,86,110,40
335.5399,335.86975,88,110,40
335.87323,336.2031,88,110,40
336.20657,336.53644,90,110,40
336.5399,336.86975,88,110,40
336.87323,337.2031,86,110,40
337.20657,337.86975,88,110,40
337.87323,338.2031,85,110,40
338.20657,338.53644,86,110,40
338.5399,338.86975,85,110,40
338.87323,339.03644,86,110,40
339.0399,339.2031,90,110,40
339.20657,339.86975,85,110,40
339.87323,340.2031,85,110,40
340.20657,340.5364,86,110,40
340.5399,340.86975,85,110,40
340.87323,341.0364,86,110,40
341.0399,341.2031,90,115,40
341.20657,341.86975,93,110,40
341.87323,342.2031,85,110,40
342.20657,342.5364,86,110,40
342.5399,342.86975,85,110,40
342.87323,343.0364,86,110,40
343.0399,343.2031,90,110,40
343.20657,343.86975,85,110,40
331.20657,344.2031,69,110,40
343.87323,344.89673,85,110,40
344.20654,345.2715,69,110,40
345.27542,347.8926,69,110,40
344.90042,347.8926,85,110,40
349.40042,349.74966,56,50,40
349.75336,350.08322,57,52,40
350.08667,350.41653,61,55,40
350.42,350.74988,61,58,40
350.75336,351.08322,62,61,40
351.08667,351.41653,66,64,40
351.42,351.74988,58,60,40
351.75336,352.08322,59,60,40
352.08667,352.41653,63,60,40
352.42,352.74988,63,60,40
352.75336,353.08322,64,55,40
353.08667,353.41653,68,50,40
353.42,354.0832,73,60,40
354.08667,354.24988,71,60,40
354.25336,354.41653,69,60,40
354.42,354.5832,68,60,40
354.58667,354.74988,65,60,40
354.75336,354.97556,66,60,40
357.42,358.0832,76,60,40
358.08667,358.24988,74,60,40
358.25333,358.41653,73,60,40
358.42,358.5832,71,60,40
358.58667,358.74988,68,60,40
358.75333,358.97556,69,60,40
359.42,359.5832,73,50,40
359.58667,359.74988,70,50,40
359.75333,359.97556,71,50,40
360.42,360.5832,69,50,40
360.58667,360.74988,66,50,40
360.75333,360.97556,68,50,40
363.42,364.0832,81,100,40
364.08667,364.24985,80,80,40
364.25333,364.41653,78,70,40
364.42,364.5832,76,60,40
364.58667,364.74985,73,60,40
364.75333,364.97556,75,60,40
365.42,366.0832,80,90,40
366.08667,366.24985,78,70,40
366.25333,366.41653,76,60,40
366.42,366.5832,75,50,40
366.58667,366.74985,72,52,40
366.75333,366.97556,73,55,40
367.08667,367.24985,85,60,40
367.25333,367.41653,83,62,40
367.41998,367.5832,83,65,40
367.58667,367.74985,80,67,40
367.75333,367.97556,81,70,40
368.08667,368.24985,83,75,40
368.25333,368.41653,81,78,40
368.41998,368.5832,81,80,40
368.58667,368.74985,78,83,40
368.75333,368.97556,80,85,40
369.08667,369.24985,81,90,40
369.25333,369.41653,80,93,40
369.41998,369.5869,80,95,40
369.59045,369.75735,77,98,40
369.7609,369.9882,78,100,40
370.1018,370.2687,80,110,40
370.27228,370.43918,78,110,40
370.44272,370.6155,78,110,40
370.6192,370.792,75,110,40
370.79565,371.03094,76,110,40
371.1486,371.49786,67,60,40
371.50156,371.83142,66,60,40
371.83487,372.16473,67,60,40
372.1682,372.49808,71,60,40
372.50156,372.8314,71,60,40
372.83487,373.16473,72,60,40
373.1682,373.49808,76,60,40
373.50156,373.8314,78,60,40
373.83487,374.16473,79,60,40
374.1682,374.49808,83,60,40
374.50156,374.8314,83,60,40
374.83487,375.17032,84,60,40
375.17386,375.52313,88,60,40
375.5268,376.19,81,90,40
376.19345,376.35666,79,80,40
376.36014,376.52332,77,70,40
376.5268,376.69,77,60,40
376.69345,376.85666,74,60,40
376.86014,377.08237,76,60,40
377.5268,378.19,81,90,40
378.19345,378.35666,79,80,40
378.36014,378.52332,77,70,40
378.5268,378.69,77,60,40
378.69345,378.85666,74,60,40
378.86014,379.08234,76,60,40
379.86014,380.19,79,76,40
380.19345,380.35666,81,92,40
380.36014,380.52332,82,100,40
380.5268,380.8495,84,110,40
380.85287,381.17557,77,110,40
381.17896,381.50165,81,110,40
381.50507,381.82773,81,110,40
381.83115,382.15384,82,110,40
382.15723,382.47992,86,110,40
384.43982,385.0886,84,60,40
385.092,385.25165,82,60,40
385.25504,385.41467,81,60,40
385.4181,385.57773,79,60,40
385.58112,385.74078,76,63,40
385.74417,385.96155,77,67,40
386.39633,386.556,81,82,40
386.5594,386.71902,77,86,40
386.72244,386.93982,79,89,40
387.3746,387.53424,82,110,40
387.53766,387.6973,79,110,40
387.70068,387.94186,81,110,40
388.02676,388.26794,81,110,40
388.35284,388.67554,81,110,40
388.67896,388.92825,82,110,40
389.01602,389.27704,79,110,40
389.36896,389.53217,84,50,40
389.53564,389.69882,74,50,40
389.7023,389.92453,82,50,40
390.03564,390.19882,82,50,40
390.2023,390.36548,72,50,40
390.36896,390.5912,81,50,40
390.7023,390.86548,81,50,40
390.86896,391.03217,71,50,40
391.0356,391.25784,79,50,40
391.36896,391.53217,79,50,40
391.5356,391.69882,69,50,40
391.7023,391.92453,77,50,40
392.0356,392.19882,77,50,40
392.2023,392.36548,67,50,40
392.36896,392.5912,76,50,40
392.7023,392.86548,76,50,40
392.86896,393.03217,65,50,40
393.0356,393.25784,74,50,40
395.36896,396.03217,74,76,40
396.0356,396.19882,72,81,40
396.2023,396.36548,71,83,40
396.36896,397.03217,76,84,40
397.0356,397.19882,74,90,40
397.2023,397.36548,72,91,40
397.36896,397.53214,81,92,40
397.5356,397.69882,78,94,40
397.7023,397.9245,79,95,40
398.36896,398.53214,81,100,40
398.5356,398.69882,78,100,40
398.7023,398.9245,79,100,40
399.36896,400.03214,64,60,40
400.0356,400.19882,62,60,40
400.2023,400.36548,60,60,40
400.36896,400.53214,59,60,40
400.5356,400.69882,56,60,40
400.70227,400.9245,57,60,40
401.36896,402.03214,69,60,40
402.0356,402.19882,67,60,40
402.20227,402.36548,65,60,40
402.36896,402.53214,65,60,40
402.5356,402.69882,62,60,40
402.70227,402.9245,64,60,40
403.0356,403.19882,69,60,40
403.20227,403.36548,67,60,40
403.36896,403.53214,65,60,40
403.5356,403.69882,62,60,40
403.70227,403.9245,64,60,40
404.0356,404.19882,81,60,40
404.20227,404.36548,79,62,40
404.36896,404.53214,77,65,40
404.5356,404.69882,74,67,40
404.70227,404.9245,76,70,40
405.0356,405.19882,76,75,40
405.20227,405.36548,74,77,40
405.36896,405.53214,74,80,40
405.5356,405.69882,71,83,40
405.70227,405.9245,72,85,40
406.0356,406.19882,88,90,40
406.20227,406.36548,86,93,40
406.36896,406.53214,86,95,40
406.5356,406.69882,83,98,40
406.70227,406.9245,84,100,40
407.0356,407.19882,84,110,40
407.20227,407.36548,83,110,40
407.36896,407.53214,83,110,40
407.5356,407.6988,80,110,40
407.70227,407.9245,81,110,40
408.0356,408.1988,84,110,40
408.20227,408.36548,83,110,40
408.36896,408.53214,83,110,40
408.5356,408.6988,80,110,40
408.70227,408.9245,81,110,40
410.0356,410.1988,81,110,40
410.20227,410.36548,79,110,40
410.36896,410.53214,79,110,40
410.5356,410.6988,76,110,40
410.70227,410.9245,77,110,40
411.0356,411.36548,81,60,40
411.36893,411.6988,85,60,40
411.70227,412.03214,86,60,40
413.0356,413.1988,86,60,40
413.20227,413.36548,84,60,40
413.36893,413.53214,84,60,40
413.5356,413.6988,81,60,40
413.70227,413.9245,83,60,40
415.0356,415.1988,84,60,40
415.20227,415.36548,83,60,40
415.36893,415.53214,83,60,40
415.5356,415.6988,80,60,40
415.70227,415.9245,81,60,40
417.05832,417.22522,85,50,40
417.2288,417.3957,83,50,40
417.39923,417.56613,83,50,40
417.5697,417.7366,80,53,40
417.74014,417.9674,81,56,40
418.08105,418.24796,78,62,40
418.25153,418.41843,75,65,40
418.42197,418.64923,76,68,40
418.76288,418.93567,74,74,40
418.93933,419.11215,71,77,40
419.1158,419.35678,73,80,40
419.47726,420.14044,73,90,40
420.14392,420.30713,71,80,40
420.3106,420.4738,69,70,40
420.47726,420.64044,68,60,40
420.64392,420.80713,65,60,40
420.8106,421.0328,66,60,40
421.47726,422.14044,74,90,40
422.14392,422.30713,73,80,40
422.31058,422.4738,71,70,40
422.47726,422.64044,69,60,40
422.64392,422.80713,66,60,40
422.81058,423.0328,68,60,40
423.47726,424.14044,76,90,40
424.14392,424.30713,74,80,40
424.31058,424.4738,73,70,40
424.47726,424.64044,71,50,40
424.64392,424.80713,68,50,40
424.81058,425.0328,69,50,40
425.47726,425.64044,73,50,40
425.64392,425.80713,70,50,40
425.81058,426.0328,71,50,40
426.47726,426.64044,69,50,40
426.64392,426.80713,66,50,40
426.81058,427.0328,68,50,40
427.47726,428.14044,81,90,40
428.14392,428.30713,80,80,40
428.31058,428.4738,78,75,40
428.47726,428.64044,76,50,40
428.64392,428.8071,73,50,40
428.81058,429.0328,74,50,40
429.47726,429.64044,78,50,40
429.64392,429.8071,75,50,40
429.81058,430.0328,76,50,40
430.47726,430.64044,74,50,40
430.64392,430.8071,71,50,40
430.81058,431.0328,73,50,40
432.81058,432.9738,80,61,40
432.97723,433.14044,77,62,40
433.14392,433.36615,78,64,40
433.81058,433.9738,78,69,40
433.97723,434.14044,75,71,40
434.14392,434.36615,76,72,40
434.81058,434.9738,78,78,40
434.97723,435.14044,75,79,40
435.14392,435.3071,76,80,40
435.31058,435.4738,85,70,40
435.47723,436.14044,85,90,40
436.14392,436.3071,83,80,40
436.31058,436.4738,81,70,40
436.47723,437.14044,81,90,40
437.14392,437.3071,80,80,40
437.31058,437.4738,78,70,40
437.47723,438.14044,86,90,40
438.14392,438.3071,85,80,40
438.31058,438.4738,83,70,40
438.47723,439.14044,83,90,40
439.14392,439.3071,81,80,40
439.31058,439.47375,80,70,40
439.47723,440.14044,88,75,40
440.14392,440.3071,86,66,40
440.31058,440.47375,85,67,40
440.47723,440.64044,83,69,40
440.64392,440.8071,80,71,40
440.81058,441.0328,81,72,40
441.14392,441.3071,81,75,40
441.31058,441.47375,80,77,40
441.47723,441.63864,80,78,40
441.64206,441.80347,77,80,40
441.80692,442.0267,78,82,40
442.13657,442.29797,78,85,40
442.30142,442.46283,76,86,40
442.46625,442.6259,76,88,40
442.6293,442.78894,73,89,40
442.79233,443.00974,74,91,40
443.1184,443.27808,88,94,40
443.28146,443.4411,86,96,40
443.44452,443.60416,86,100,40
443.60754,443.7672,83,100,40
443.7706,443.98798,85,100,40
444.09668,444.25632,86,60,40
444.25974,444.41937,85,60,40
444.42276,444.5824,85,60,40
444.58582,444.74545,82,60,40
444.74884,444.96625,83,60,40
445.07495,445.2346,85,60,40
445.23798,445.3976,83,64,40
445.40103,445.56067,83,68,40
445.56406,445.72372,80,72,40
445.7271,445.9445,81,76,40
446.0532,446.21283,86,84,40
446.21625,446.3759,85,88,40
446.37927,446.53894,85,92,40
446.54233,446.70197,82,96,40
446.70535,446.92276,83,100,40
447.03146,447.1911,85,110,40
447.1945,447.35416,83,110,40
447.35754,447.51718,83,110,40
447.52057,447.68024,80,110,40
447.68362,447.901,81,110,40
448.0097,448.16937,78,50,40
448.17276,448.3324,76,50,40
448.3358,448.49545,76,50,40
448.49884,448.65848,73,50,40
448.6619,448.87927,75,50,40
449.96622,450.1259,80,50,40
450.12927,450.2889,78,50,40
450.29233,450.45197,78,50,40
450.45535,450.615,75,50,40
450.6184,450.8358,76,50,40
451.92273,452.0824,66,50,40
452.0858,452.24542,68,50,40
452.24884,452.40848,68,50,40
452.41187,452.57153,71,50,40
452.57492,452.7923,69,50,40
452.901,453.06064,85,50,40
453.06406,453.2237,83,50,40
453.22708,453.38672,83,50,40
453.39014,453.54977,80,50,40
453.55316,453.77057,81,50,40
453.87927,454.0389,68,50,40
454.0423,454.20193,69,50,40
454.20535,454.365,69,50,40
454.36838,454.52805,73,50,40
454.53143,454.7488,71,50,40
454.8575,455.01715,86,50,40
455.02057,455.1802,85,50,40
455.1836,455.3468,85,50,40
455.35028,455.51346,82,50,40
455.51694,455.73917,83,50,40
455.85028,456.01718,88,60,40
456.02072,456.18762,86,63,40
456.1912,456.3581,85,67,40
456.36163,456.52853,83,71,40
456.53207,456.7049,81,74,40
456.70856,456.88135,80,78,40
456.88504,457.2427,68,82,40
457.24646,457.61755,71,89,40
457.62146,458.25986,74,97,40
458.26434,460.72342,78,110,40
462.50134,463.1796,76,60,40
463.18317,463.35007,74,60,40
463.3536,463.5205,73,60,40
463.52408,463.69098,73,60,40
463.69452,463.86142,69,60,40
463.865,464.09225,71,60,40
464.54678,465.22507,76,90,40
465.2286,465.3955,74,80,40
465.39908,465.56598,73,70,40
465.56952,465.73642,73,65,40
465.74,465.9069,69,67,40
465.91043,466.1377,71,69,40
466.59225,466.75916,74,77,40
466.7627,466.9296,71,79,40
466.93317,467.16043,73,81,40
467.615,467.7819,81,90,40
467.78543,467.95233,78,92,40
467.95587,468.18317,80,94,40
468.6377,469.3399,88,110,40
469.3436,469.5164,86,110,40
469.52005,469.69284,85,110,40
469.69653,469.88013,83,110,40
469.88403,470.06763,80,110,40
470.07153,470.34296,81,110,40
470.9144,471.15918,71,60,40
471.1644,471.5316,68,60,40
471.5394,472.0394,69,60,40
476.0394,476.4066,69,1,40
0.0,0.17078479,69,1,40
0.0,0.34520328,56,50,40
0.348837,0.67869776,57,51,40
0.68217,1.0120308,61,53,40
1.015503,1.3453637,61,55,40
1.348836,1.6786968,62,57,40
1.682169,2.01203,66,59,40
2.015502,2.3453627,58,61,40
2.348835,2.6786957,59,63,40
2.682168,3.0120287,63,65,40
3.015501,3.3453617,63,67,40
3.348834,3.6786947,64,69,40
3.682167,4.0120277,68,70,40
4.0155,4.3453608,56,60,40
4.348833,4.678694,57,60,40
4.682166,5.012027,61,60,40
5.015499,5.34536,61,60,40
5.348832,5.678693,62,60,40
5.682165,6.012026,66,60,40
8.015496,8.345357,60,60,40
8.348829,8.67869,61,60,40
8.682162,9.012023,64,60,40
9.015495,9.345356,65,60,40
9.348828,9.678689,66,60,40
9.682161,10.012022,69,55,40
10.015494,10.345355,64,50,40
10.348827,10.678688,66,50,40
10.68216,11.012021,69,50,40
11.015493,11.345354,59,50,40
12.042676,12.70587,68,50,40
12.709342,12.872537,66,50,40
12.876008,13.039203,64,50,40
13.042675,13.20587,63,50,40
13.209341,13.372536,60,50,40
13.376008,13.59823,61,50,40
14.042674,14.705868,69,90,40
14.70934,14.872535,68,80,40
14.876006,15.039201,66,70,40
15.042673,15.205867,64,60,40
15.209339,15.372534,61,60,40
15.376006,15.705867,63,60,40
15.709339,16.0392,66,60,40
16.042671,16.372532,66,50,40
16.376005,16.705866,68,50,40
16.709337,17.039198,71,50,40
17.042671,17.372532,64,50,40
17.376003,17.705864,57,55,40
17.709337,18.039198,68,60,40
18.04267,18.37253,65,65,40
18.376003,18.705864,69,70,40
18.709335,19.039196,66,75,40
19.04267,19.37253,63,80,40
19.376001,19.705862,68,85,40
19.709335,20.039196,68,90,40
20.042667,20.205862,68,95,40
20.209335,20.372528,71,98,40
20.376001,20.598223,69,100,40
20.709333,20.944628,69,110,40
21.062275,21.245869,69,110,40
21.249775,21.433369,66,110,40
21.437275,21.687275,64,110,40
22.187275,22.53654,56,60,40
22.540216,22.870077,57,60,40
22.873549,23.20341,61,60,40
23.206882,23.536743,61,60,40
23.540215,23.870075,62,60,40
23.873549,24.20341,66,60,40
24.20688,24.536741,58,60,40
24.540215,24.870075,59,60,40
24.873547,25.203407,63,60,40
25.20688,25.536741,63,60,40
25.540213,25.870073,64,60,40
25.873547,26.203407,68,60,40
26.206879,26.53674,56,60,40
26.540213,26.870073,57,60,40
26.873545,27.203405,61,60,40
27.206879,27.53674,61,60,40
27.54021,27.870071,62,60,40
27.873545,28.203405,66,60,40
30.206875,30.536736,60,60,40
30.540209,30.87007,61,60,40
30.87354,31.203402,64,60,40
31.206875,31.536736,65,60,40
31.540207,31.870068,66,60,40
31.87354,32.2034,69,55,40
32.206875,32.536736,64,50,40
32.540207,32.870068,66,50,40
32.87354,33.2034,69,50,40
33.20687,33.53673,59,50,40
34.234055,34.897247,68,50,40
34.900723,35.063915,66,50,40
35.067387,35.230583,64,50,40
35.234055,35.397247,63,50,40
35.40072,35.563915,60,50,40
35.567387,35.789608,61,50,40
36.234055,36.897247,69,90,40
36.90072,37.06391,68,80,40
37.067387,37.23058,66,70,40
37.23405,37.397247,64,60,40
37.40072,37.56391,61,60,40
37.567387,37.897247,63,60,40
37.90072,38.23058,66,60,40
38.23405,38.56391,66,50,40
38.567383,38.897243,68,50,40
38.90072,39.23058,71,50,40
39.23405,39.56391,64,50,40
39.567383,39.897243,57,55,40
39.900715,40.230576,68,60,40
40.23405,40.56391,65,65,40
40.567383,40.897243,69,70,40
40.900715,41.230576,66,75,40
41.234047,41.563908,63,80,40
41.567383,41.897243,68,85,40
41.900715,42.230576,68,90,40
42.234047,42.39724,68,95,40
42.400715,42.563908,71,98,40
42.56738,42.7896,69,100,40
42.900715,43.127987,69,110,40
43.241623,43.414417,69,110,40
43.41809,43.59505,66,110,40
43.598816,43.83978,64,110,40
43.96026,44.309525,55,60,40
44.646534,44.976395,55,60,40
44.979866,45.309727,59,60,40
45.3132,45.643063,59,60,40
45.646534,45.976395,60,60,40
45.979866,46.309727,64,60,40
46.313198,46.64306,66,60,40
46.64653,46.976395,67,60,40
46.979866,47.309727,71,60,40
47.313198,47.64306,71,60,40
47.64653,47.98389,72,60,40
47.98744,48.336704,76,60,40
48.34038,49.003574,77,90,40
49.007046,49.170242,76,80,40
49.173714,49.336906,74,70,40
49.34038,49.503574,74,60,40
49.507046,49.670242,71,60,40
49.673714,49.895935,72,60,40
50.340378,51.003574,77,90,40
51.007046,51.17024,76,80,40
51.17371,51.336906,74,70,40
51.340378,51.50357,74,60,40
51.507046,51.67024,71,60,40
51.67371,51.89593,72,60,40
52.67371,53.011066,76,76,40
53.014618,53.187412,77,92,40
53.19109,53.363884,79,100,40
53.36756,53.683384,77,110,40
53.686707,54.002533,65,110,40
54.005856,54.32168,69,110,40
54.325005,54.640827,69,110,40
54.644154,54.959976,70,110,40
54.9633,55.279125,74,110,40
55.282448,55.91742,70,110,40
55.920746,56.076992,69,110,40
56.08032,56.23657,67,110,40
56.23989,56.39614,65,110,40
56.399467,56.555714,62,110,40
56.55904,56.771805,64,110,40
56.87819,57.03444,79,60,40
57.03776,57.19401,72,60,40
57.197334,57.832306,81,60,40
57.835632,57.991882,79,60,40
57.995205,58.151455,77,60,40
58.15478,58.31103,76,60,40
58.314354,58.470604,72,63,40
58.473927,58.686695,74,67,40
59.112225,59.268475,77,82,40
59.271797,59.428047,74,86,40
59.431374,59.64414,76,89,40
60.069668,60.225918,79,110,40
60.22924,60.38549,76,110,40
60.388817,60.62485,77,110,40
60.707966,60.944,77,110,40
61.02711,61.342934,77,110,40
61.34626,61.59279,79,110,40
61.679592,61.937588,76,110,40
62.02843,62.250652,69,50,40
62.361763,62.583984,62,50,40
62.695095,62.917316,67,50,40
62.695095,62.917316,60,50,40
63.028427,63.250652,72,50,40
63.361763,63.583984,65,50,40
63.695095,63.917316,70,50,40
63.695095,63.917316,67,50,40
64.02843,64.25065,64,50,40
64.36176,64.583984,65,50,40
64.69509,64.91731,74,50,40
64.69509,64.91731,67,50,40
65.02843,65.25065,67,50,40
65.02843,65.25065,72,50,40
65.36176,65.589035,65,50,40
65.36176,65.589035,72,50,40
65.70267,65.875465,65,50,40
65.87914,66.05193,55,50,40
66.05561,66.7188,65,60,40
66.722275,66.88547,64,65,40
66.88894,67.05214,62,66,40
67.05561,67.7188,67,68,40
67.722275,67.88547,65,73,40
67.88894,68.05214,64,75,40
68.05561,68.71152,59,76,40
68.05561,68.71152,62,76,40
68.71495,68.87635,64,81,40
68.87978,69.04118,65,83,40
69.04462,69.69339,60,84,40
69.04462,69.69339,64,84,40
69.69679,69.85644,65,90,40
69.85983,70.01948,67,91,40
70.02287,70.657845,71,92,40
70.02287,70.657845,67,92,40
70.66117,70.81742,72,98,40
70.82075,70.977,74,99,40
70.98032,71.61529,67,100,40
70.98032,71.61529,72,100,40
71.618614,71.78181,74,90,40
71.785286,71.94848,76,80,40
72.95195,73.61514,72,60,40
73.618614,73.78181,71,60,40
73.78528,73.94847,69,60,40
73.95195,74.11514,67,60,40
74.118614,74.28181,64,60,40
74.28528,74.61514,65,60,40
74.618614,74.94847,62,60,40
74.95194,75.28181,55,60,40
74.95194,75.28181,62,60,40
75.28528,75.61514,60,60,40
75.95194,76.28181,71,60,40
76.28528,76.615135,72,60,40
76.618614,76.78181,74,60,40
76.78528,76.94847,76,62,40
76.95194,77.115135,74,65,40
77.118614,77.28181,65,67,40
77.28528,77.5075,64,70,40
78.61861,78.94847,80,90,40
78.95194,79.115135,83,95,40
79.11861,79.2818,76,98,40
79.28528,79.615135,76,100,40
80.61861,80.94847,72,110,40
80.95194,81.2818,76,110,40
81.28527,81.615135,77,110,40
81.61861,81.7818,72,60,40
81.78527,81.94846,71,60,40
81.95194,82.115135,71,60,40
82.11861,82.2818,68,60,40
82.28527,82.50749,69,60,40
82.61861,82.94846,76,110,40
82.951935,83.115135,76,110,40
83.11861,83.2818,69,110,40
83.28527,83.50749,69,110,40
83.61861,83.7818,69,60,40
83.78527,83.94846,67,60,40
83.951935,84.11513,67,60,40
84.11861,84.2818,64,60,40
84.28527,84.50749,65,60,40
85.6186,85.7818,74,60,40
85.78527,85.94846,72,60,40
85.951935,86.11513,72,60,40
86.1186,86.2818,69,60,40
86.28527,86.50749,71,60,40
87.6186,87.78179,72,60,40
87.78526,87.94846,71,60,40
87.951935,88.1179,71,60,40
88.12142,88.287384,68,60,40
88.29092,88.51691,69,60,40
89.68061,89.8534,73,50,40
89.85708,90.02987,71,50,40
90.03355,90.200455,71,50,40
90.204,90.37091,68,53,40
90.37446,90.60173,69,56,40
90.71537,90.88227,66,62,40
90.88582,91.05273,71,65,40
91.056274,91.5528,64,68,40
91.556274,91.71947,62,77,40
91.72294,91.88614,61,80,40
91.88961,92.0528,62,70,40
92.056274,92.21947,64,60,40
92.22294,92.38614,62,60,40
92.38961,92.5528,61,60,40
92.556274,92.71947,62,60,40
92.72294,92.88614,64,60,40
94.056274,94.21947,66,60,40
94.22294,94.38613,64,60,40
94.3896,94.5528,62,60,40
94.556274,94.71947,64,60,40
94.72294,94.88613,66,60,40
96.056274,96.21947,64,60,40
96.22294,96.38613,62,60,40
96.3896,96.552795,61,60,40
96.55627,96.71947,62,60,40
96.72294,96.88613,64,60,40
97.05627,97.38613,57,50,40
98.05627,98.38613,63,50,40
99.05627,99.38613,59,50,40
99.05627,99.38613,64,50,40
100.05627,100.71946,69,90,40
100.72293,100.88612,68,80,40
100.8896,101.052795,66,75,40
101.05627,101.21946,64,50,40
101.22293,101.38612,61,50,40
101.3896,101.611824,62,50,40
102.05627,102.21946,66,50,40
102.22293,102.38612,63,50,40
102.389595,102.61182,59,50,40
102.389595,102.61182,64,50,40
103.05627,103.21946,62,50,40
103.22293,103.38612,59,50,40
103.389595,103.61182,61,50,40
104.05627,104.71946,73,50,40
104.72293,104.88612,71,55,40
104.889595,105.05279,69,57,40
105.05626,105.21946,68,58,40
105.22293,105.38612,65,59,40
105.389595,105.61182,66,61,40
106.05626,106.21945,69,66,40
106.22293,106.38612,66,68,40
106.389595,106.61182,68,69,40
107.05626,107.21945,71,75,40
107.22292,107.38612,68,76,40
107.389595,107.61182,69,78,40
108.05626,108.21945,74,60,40
108.22292,108.386116,71,60,40
108.389595,108.71945,73,60,40
108.72292,109.05279,76,60,40
109.05626,109.386116,65,60,40
109.38959,109.71945,66,60,40
109.72292,110.05279,69,60,40
110.05626,110.21945,76,60,40
110.22292,110.386116,73,60,40
110.38959,110.71945,74,60,40
110.72292,111.05278,78,60,40
111.05626,111.386116,66,60,40
111.38959,111.71945,68,60,40
111.72292,112.05278,71,60,40
112.05625,112.71945,76,75,40
112.72292,112.886116,74,66,40
112.88959,113.05278,73,67,40
113.05625,113.21945,71,69,40
113.22292,113.386116,68,71,40
113.38959,113.61181,69,72,40
113.72292,113.886116,73,75,40
113.88959,114.05278,76,77,40
114.05625,114.27603,69,78,40
114.385925,114.605705,69,82,40
114.71559,114.87699,70,85,40
114.880424,115.04183,73,86,40
115.045265,115.26266,66,88,40
115.371346,115.58874,66,91,40
115.69743,115.85708,68,94,40
115.86048,116.02013,71,96,40
116.02352,116.18317,64,100,40
116.18656,116.34621,71,100,40
116.34961,116.567,64,100,40
116.67569,116.99838,70,60,40
117.00178,117.32447,73,60,40
117.327866,117.65055,78,60,40
117.490906,117.8136,68,60,40
117.65395,117.8136,68,60,40
117.980034,118.30273,71,68,40
118.30612,118.628815,76,76,40
118.63221,118.791855,59,84,40
118.79525,118.954895,61,88,40
118.9583,119.12149,61,92,40
119.12496,119.288155,64,96,40
119.291626,119.5189,62,100,40
119.63254,119.80533,64,110,40
119.809006,119.981804,68,110,40
119.98548,120.16244,68,110,40
120.1662,120.34979,71,110,40
120.3537,120.6037,64,110,40
120.3537,120.6037,69,110,40
120.7287,121.077965,69,60,40
121.08164,121.4115,68,60,40
121.41498,121.744835,69,60,40
121.74831,122.07817,72,60,40
122.08164,122.4115,71,60,40
122.41497,122.744835,72,60,40
122.74831,123.07817,76,60,40
123.08164,123.4115,66,60,40
123.41497,123.744835,67,60,40
123.74831,124.07816,60,60,40
124.08164,124.4115,59,60,40
124.41497,124.744835,60,60,40
124.74831,125.07816,64,60,40
125.081635,125.4115,66,60,40
125.41497,125.744835,67,60,40
125.74831,126.07816,71,60,40
126.081635,126.4115,71,60,40
126.41497,126.74483,72,60,40
126.74831,127.07816,76,60,40
127.081635,127.74483,77,90,40
127.7483,127.9115,76,80,40
127.91497,128.07816,74,70,40
128.08163,128.24483,74,60,40
128.2483,128.4115,71,60,40
128.41496,128.63719,72,60,40
129.08163,129.74483,77,90,40
129.7483,129.9115,76,80,40
129.91496,130.07816,74,70,40
130.08163,130.24483,74,60,40
130.2483,130.4115,71,60,40
130.41496,130.63719,72,60,40
131.41496,131.74483,76,76,40
131.74829,131.9115,77,92,40
131.91496,132.07816,79,100,40
132.08163,132.41148,77,110,40
132.41496,132.74483,65,110,40
132.74829,133.07816,69,110,40
133.08163,133.41148,69,110,40
133.41496,133.74483,70,110,40
133.74829,134.07816,74,110,40
134.08163,134.74483,70,110,40
134.74829,134.91148,69,110,40
134.91496,135.07816,67,110,40
135.08163,135.24483,65,110,40
135.24829,135.41148,62,110,40
135.41496,135.63718,64,110,40
135.74829,135.91148,79,60,40
135.91496,136.07816,72,60,40
136.08162,136.74483,81,60,40
136.74829,136.91148,79,60,40
136.91496,137.07816,77,60,40
137.08162,137.24483,76,60,40
137.24829,137.41148,72,63,40
137.41496,137.63718,74,67,40
138.08162,138.24481,77,82,40
138.24829,138.41148,74,86,40
138.41496,138.63718,76,89,40
139.08162,139.24481,79,110,40
139.24829,139.41148,76,110,40
139.41496,139.66148,77,110,40
139.74829,139.99481,77,110,40
140.08162,140.41148,77,110,40
140.41496,140.66148,79,110,40
140.74829,140.99481,76,110,40
141.08162,141.30385,69,50,40
141.41495,141.63718,62,50,40
141.74829,141.9705,67,50,40
141.74829,141.9705,60,50,40
142.08162,142.30385,72,50,40
142.41495,142.63718,65,50,40
142.74829,142.9705,70,50,40
142.74829,142.9705,67,50,40
143.08162,143.30385,64,50,40
143.41495,143.63718,65,50,40
143.74829,143.9705,74,50,40
143.74829,143.9705,67,50,40
144.08162,144.30383,67,50,40
144.08162,144.30383,72,50,40
144.41495,144.64223,65,50,40
144.41495,144.64223,72,50,40
144.75586,144.92865,65,50,40
144.93233,145.10512,55,50,40
145.1088,145.77199,65,60,40
145.77547,145.93866,64,65,40
145.94214,146.10533,62,66,40
146.1088,146.77199,67,68,40
146.77547,146.93866,65,73,40
146.94214,147.10533,64,75,40
147.1088,147.77199,59,76,40
147.1088,147.77199,62,76,40
147.77547,147.93866,64,81,40
147.94214,148.10533,65,83,40
148.1088,148.77199,60,84,40
148.1088,148.77199,64,84,40
148.77547,148.93866,65,90,40
148.94212,149.10533,67,91,40
149.1088,149.77199,71,92,40
149.1088,149.77199,67,92,40
149.77547,149.93866,72,98,40
149.94212,150.10533,74,99,40
150.1088,150.77199,67,100,40
150.1088,150.77199,72,100,40
150.77547,150.93866,74,90,40
150.94212,151.10532,76,80,40
152.1088,152.77199,72,60,40
152.77547,152.93866,71,60,40
152.94212,153.10532,69,60,40
153.1088,153.27199,67,60,40
153.27547,153.43866,64,60,40
153.44212,153.77199,65,60,40
153.77547,154.10532,62,60,40
154.1088,154.43866,55,60,40
154.1088,154.43866,62,60,40
154.44212,154.77199,60,60,40
155.1088,155.43866,71,60,40
155.44212,155.77199,72,60,40
155.77545,155.93864,74,60,40
155.94212,156.10532,76,62,40
156.1088,156.27199,74,65,40
156.27545,156.43864,65,67,40
156.44212,156.66435,64,70,40
157.77545,158.10532,80,90,40
158.1088,158.27199,83,95,40
158.27545,158.43864,76,98,40
158.44212,158.77199,76,100,40
159.76096,160.08365,72,110,40
160.08705,160.40973,76,110,40
160.41313,160.73582,77,110,40
160.73921,160.9024,72,60,40
160.90588,161.06908,71,60,40
161.07256,161.23575,71,60,40
161.23921,161.4024,68,60,40
161.40588,161.62811,69,60,40
161.73921,162.0619,76,110,40
162.0653,162.22495,76,110,40
162.22835,162.38799,69,110,40
162.39139,162.60878,69,110,40
162.71747,162.88068,69,60,40
162.88414,163.04733,67,60,40
163.05081,163.214,67,60,40
163.21747,163.38066,64,60,40
163.38414,163.60637,65,60,40
164.71747,164.88066,74,60,40
164.88414,165.04733,72,60,40
165.05081,165.214,72,60,40
165.21747,165.38066,69,60,40
165.38414,165.60635,71,60,40
166.71747,166.88066,72,60,40
166.88414,167.04733,71,60,40
167.0508,167.21771,71,60,40
167.22125,167.38817,68,60,40
167.39171,167.61899,69,60,40
168.77942,168.94261,73,50,40
168.94608,169.10927,71,50,40
169.11275,169.27594,71,50,40
169.27942,169.44261,68,53,40
169.44608,169.6683,69,56,40
169.77942,169.94261,66,62,40
169.94608,170.10927,71,65,40
170.11275,170.60927,64,68,40
170.61275,170.77594,62,77,40
170.7794,170.94261,61,80,40
170.94608,171.10927,62,70,40
171.11275,171.27594,64,60,40
171.2794,171.44261,62,60,40
171.44608,171.60927,61,60,40
171.61275,171.77594,62,60,40
171.7794,171.9426,64,60,40
173.11275,173.27594,66,60,40
173.2794,173.4426,64,60,40
173.44608,173.60927,62,60,40
173.61275,173.77594,64,60,40
173.7794,173.9426,66,60,40
175.11273,175.27594,64,60,40
175.2794,175.4426,62,60,40
175.44608,175.60927,61,60,40
175.61273,175.77594,62,60,40
175.7794,175.9426,64,60,40
176.11273,176.4426,57,50,40
177.11273,177.4426,63,50,40
178.11273,178.4426,59,50,40
178.11273,178.4426,64,50,40
179.11273,179.77592,69,90,40
179.7794,179.9426,68,80,40
179.94608,180.10927,66,75,40
180.11273,180.27592,64,50,40
180.2794,180.4426,61,50,40
180.44606,180.66829,62,50,40
181.11273,181.27592,66,50,40
181.2794,181.4426,63,50,40
181.44606,181.66829,59,50,40
181.44606,181.66829,64,50,40
182.11273,182.27592,62,50,40
182.2794,182.4426,59,50,40
182.44606,182.66829,61,50,40
183.11273,183.77592,73,50,40
183.7794,183.9426,71,55,40
183.94606,184.10925,69,57,40
184.11273,184.27592,68,58,40
184.2794,184.4426,65,59,40
184.44606,184.66829,66,61,40
185.11273,185.27592,69,66,40
185.27939,185.4426,66,68,40
185.44606,185.66829,68,69,40
186.11273,186.27592,71,75,40
186.27939,186.4426,68,76,40
186.44606,186.66829,69,78,40
187.11273,187.27592,74,60,40
187.27939,187.44258,71,60,40
187.44606,187.77592,73,60,40
187.77939,188.10925,76,60,40
188.11273,188.44258,65,60,40
188.44606,188.77592,66,60,40
188.77939,189.10925,69,60,40
189.11273,189.27592,76,60,40
189.27939,189.44258,73,60,40
189.44606,189.77592,74,60,40
189.77939,190.10925,78,60,40
190.11273,190.44258,66,60,40
190.44606,190.77592,68,60,40
190.77939,191.10925,71,60,40
191.11272,191.77592,76,75,40
191.77939,191.94258,74,66,40
191.94606,192.10925,73,67,40
192.11272,192.27591,71,69,40
192.27939,192.44258,68,71,40
192.44606,192.66827,69,72,40
192.77939,192.94258,73,75,40
192.94606,193.10925,76,77,40
193.11272,193.33495,69,78,40
193.44606,193.66827,69,82,40
193.77939,193.94258,70,85,40
193.94606,194.10925,73,86,40
194.11272,194.33495,66,88,40
194.44606,194.66827,66,91,40
194.77939,194.94258,68,94,40
194.94606,195.10925,71,96,40
195.11272,195.27591,64,100,40
195.27939,195.44258,71,100,40
195.44604,195.66827,64,100,40
195.77939,196.10925,70,60,40
196.11272,196.44258,73,60,40
196.44604,196.77591,78,60,40
196.61272,196.94258,68,60,40
196.77939,196.94258,68,60,40
197.11272,197.44258,71,68,40
197.44604,197.77591,76,76,40
197.77939,197.93903,59,84,40
197.94243,198.10207,61,88,40
198.10547,198.26512,61,92,40
198.26851,198.42816,64,96,40
198.43155,198.64894,62,100,40
198.75764,198.91728,64,110,40
198.92068,199.08034,68,110,40
199.08372,199.24338,68,110,40
199.24677,199.40642,71,110,40
199.40982,199.6272,64,110,40
199.40982,199.6272,69,110,40
199.7359,199.89554,69,50,40
199.89894,200.0586,68,50,40
200.06198,200.22163,68,50,40
200.22502,200.38467,64,50,40
200.38808,200.60547,66,50,40
201.71416,201.87735,71,50,40
201.88083,202.04402,69,50,40
202.04749,202.21068,69,50,40
202.21416,202.37735,66,50,40
202.38083,202.60304,68,50,40
203.71416,203.87735,62,50,40
203.88081,204.04402,64,50,40
204.04749,204.21068,64,50,40
204.21416,204.37735,68,50,40
204.38081,204.60304,66,50,40
204.71416,204.87735,81,50,40
204.88081,205.04402,80,50,40
205.04749,205.21068,80,50,40
205.21416,205.37735,77,50,40
205.38081,205.60304,78,50,40
205.71416,205.87735,64,50,40
205.88081,206.044,66,50,40
206.04749,206.21068,66,50,40
206.21416,206.37735,69,50,40
206.38081,206.60304,68,50,40
206.71416,206.87735,78,50,40
206.88081,207.044,76,50,40
207.04749,207.21068,76,50,40
207.21416,207.37735,73,50,40
207.38081,207.60304,74,50,40
207.71416,207.87735,85,60,40
207.88081,208.044,83,63,40
208.04749,208.21068,76,67,40
208.21416,208.37735,74,71,40
208.38081,208.54771,73,74,40
208.55127,208.71817,71,78,40
208.72173,209.05908,64,82,40
209.06264,209.40588,68,89,40
209.40956,209.96815,71,97,40
209.97206,212.40436,62,110,40
209.97206,212.40436,71,110,40
214.18228,214.86055,73,60,40
214.8641,215.031,71,60,40
215.03456,215.20146,69,60,40
215.20502,215.37192,69,60,40
215.37547,215.54237,66,60,40
215.54593,215.7732,68,60,40
216.22774,216.906,73,90,40
216.90956,217.07646,71,80,40
217.08002,217.24692,69,70,40
217.25047,217.41737,69,65,40
217.42093,217.58783,66,67,40
217.59137,217.81865,68,69,40
218.2732,218.4401,71,77,40
218.44365,218.61055,68,79,40
218.6141,218.84137,69,81,40
219.29593,219.46283,73,90,40
219.46637,219.63329,69,92,40
219.63683,219.8641,71,94,40
220.31865,220.99692,76,110,40
221.00047,221.17326,74,110,40
221.17694,221.34973,73,110,40
221.35341,221.537,71,110,40
221.54091,221.7245,68,110,40
221.72841,221.99507,69,110,40
222.55698,222.80177,62,60,40
222.80698,223.10072,64,60,40
223.10698,223.50697,61,60,40
226.97365,227.13684,57,60,40
227.1403,227.3035,61,60,40
227.30698,227.47017,64,60,40
227.47365,227.63684,69,60,40
227.6403,227.8035,73,60,40
227.80698,227.97017,76,60,40
227.97365,228.13684,73,60,40
228.1403,228.3035,81,60,40
228.30698,228.47017,74,60,40
228.47365,228.63684,81,60,40
228.6403,228.8035,73,60,40
228.80698,228.97017,81,60,40
228.97365,229.13684,71,60,40
229.1403,229.3035,81,60,40
229.30698,229.47017,73,60,40
229.47363,229.63684,81,60,40
229.6403,229.8035,71,60,40
229.80698,229.97017,81,60,40
229.97363,230.13684,69,60,40
230.1403,230.3035,81,60,40
230.30698,230.47017,71,60,40
230.47363,230.63684,81,60,40
230.6403,230.8035,69,60,40
230.80698,230.97017,81,60,40
230.97363,231.13683,71,60,40
231.1403,231.3035,81,60,40
231.30698,231.47017,71,60,40
231.47363,231.63683,81,60,40
231.6403,231.8035,73,60,40
231.80698,231.97017,81,60,40
231.97363,232.13683,74,60,40
232.1403,232.3035,73,60,40
232.30698,232.47017,74,60,40
232.47363,232.63683,81,60,40
232.6403,232.8035,73,60,40
232.80698,232.97017,81,60,40
232.97363,233.13683,71,60,40
233.1403,233.3035,81,60,40
233.30698,233.47017,73,60,40
233.47363,233.63683,81,60,40
233.6403,233.8035,71,60,40
233.80698,233.97017,81,60,40
233.97363,234.13683,69,60,40
234.1403,234.3035,81,60,40
234.30696,234.47017,71,60,40
234.47363,234.63683,81,60,40
234.6403,234.8035,69,60,40
234.80696,234.97017,81,60,40
234.97363,235.13683,78,60,40
235.1403,235.3035,74,60,40
235.30696,235.47017,76,60,40
235.47363,235.63683,78,60,40
235.6403,235.8035,76,60,40
235.80696,235.97015,73,60,40
235.97363,236.13683,69,60,40
236.1403,236.3035,73,60,40
236.30696,236.47015,76,60,40
236.47363,236.63683,81,60,40
236.6403,236.8035,85,60,40
236.80696,236.97015,88,60,40
236.97363,237.13683,76,60,40
237.1403,237.3035,81,60,40
237.30696,237.47015,76,60,40
237.47363,237.63683,85,60,40
237.6403,237.8035,76,60,40
237.80696,237.97015,85,60,40
237.97363,238.13683,76,60,40
238.1403,238.3035,81,60,40
238.30696,238.47015,76,60,40
238.47363,238.63683,85,60,40
238.6403,238.8035,76,60,40
238.80696,238.97015,73,60,40
238.97363,239.13683,73,60,40
239.1403,239.3035,81,60,40
239.30696,239.47015,74,60,40
239.47363,239.63683,81,60,40
239.64029,239.8035,73,60,40
239.80696,239.97015,81,60,40
239.97363,240.13683,71,60,40
240.14029,240.3035,81,60,40
240.30696,240.47015,73,60,40
240.47363,240.63683,81,60,40
240.64029,240.8035,71,60,40
240.80696,240.97015,81,60,40
240.97363,241.13683,69,60,40
241.14029,241.30348,81,60,40
241.30696,241.47015,71,60,40
241.47363,241.63683,81,60,40
241.64029,241.80348,69,60,40
241.80696,241.97015,81,60,40
241.97363,242.13683,71,60,40
242.14029,242.30348,81,60,40
242.30696,242.47015,71,60,40
242.47363,242.63683,81,60,40
242.64029,242.80348,73,60,40
242.80696,242.97015,81,60,40
242.97363,243.13683,74,60,40
243.14029,243.30348,73,60,40
243.30696,243.47015,74,60,40
243.47363,243.63683,81,60,40
243.64029,243.80348,73,60,40
243.80696,243.97015,81,60,40
243.97363,244.13683,71,60,40
244.14029,244.30348,81,60,40
244.30696,244.47015,73,60,40
244.47362,244.63683,81,60,40
244.64029,244.80348,71,60,40
244.80696,244.97015,81,60,40
244.97362,245.13683,69,60,40
245.14029,245.30348,81,60,40
245.30696,245.47386,71,60,40
245.47742,245.64432,81,60,40
245.64787,245.81477,69,60,40
245.81831,245.98523,81,60,40
245.98877,246.16158,78,60,40
246.16525,246.33804,74,60,40
246.34172,246.51451,76,60,40
246.51819,246.69098,69,60,40
246.69466,246.86745,71,60,40
246.87112,247.04391,73,60,40
247.04759,247.27487,68,50,40
247.04759,247.27487,71,50,40
247.3885,247.61073,61,50,40
247.3885,247.61073,68,50,40
247.72185,247.94406,61,50,40
247.72185,247.94406,68,50,40
248.05518,248.27739,61,50,40
248.05518,248.27739,69,50,40
248.3885,248.61073,61,50,40
248.3885,248.61073,69,50,40
248.72183,248.94406,61,50,40
248.72183,248.94406,69,50,40
249.05518,249.27739,59,50,40
249.05518,249.27739,66,50,40
249.3885,249.61073,59,50,40
249.3885,249.61073,66,50,40
249.72183,249.94406,59,50,40
249.72183,249.94406,66,50,40
250.05518,250.27739,59,50,40
250.05518,250.27739,68,50,40
250.3885,250.61073,59,50,40
250.3885,250.61073,68,50,40
250.72183,250.94406,59,50,40
250.72183,250.94406,68,50,40
251.05518,251.27739,59,50,40
251.05518,251.27739,69,50,40
251.3885,251.61073,59,50,40
251.3885,251.61073,69,50,40
251.72183,251.94406,59,50,40
251.72183,251.94406,69,50,40
252.05518,252.27739,59,50,40
252.05518,252.27739,69,50,40
252.3885,252.61072,59,50,40
252.3885,252.61072,64,50,40
252.72183,252.94406,64,50,40
252.72183,252.94406,71,50,40
253.05518,253.27739,66,50,40
253.05518,253.27739,73,50,40
253.3885,253.61072,64,50,40
253.3885,253.61072,71,50,40
253.72183,253.94406,64,50,40
253.72183,253.94406,76,50,40
254.05516,254.27739,66,50,40
254.05516,254.27739,75,50,40
254.3885,254.61072,68,50,40
254.3885,254.61072,76,50,40
254.72183,254.94406,56,50,40
255.05516,255.27739,56,50,40
255.3885,255.61072,56,50,40
255.72183,255.94406,56,50,40
256.05518,256.21835,78,50,40
256.22183,256.38504,77,50,40
256.3885,256.5517,78,50,40
256.55518,256.71835,80,50,40
256.72183,256.88504,81,50,40
256.8885,257.0517,78,50,40
258.05518,258.21835,76,50,40
258.22183,258.385,75,50,40
258.3885,258.5517,76,50,40
258.55518,258.71835,78,50,40
258.72183,258.885,80,50,40
258.8885,259.0517,76,50,40
259.05518,259.27737,61,50,40
259.3885,259.61072,61,52,40
259.72183,259.94406,66,55,40
259.72183,259.94406,61,55,40
260.05518,260.21835,71,58,40
260.22183,260.385,70,59,40
260.3885,260.5517,71,61,40
260.55518,260.71835,73,62,40
260.72183,260.885,74,64,40
260.8885,261.0517,71,65,40
261.05515,261.27737,59,66,40
261.3885,261.61072,59,69,40
261.72183,261.94406,64,72,40
261.72183,261.94406,59,72,40
262.05515,262.21835,69,75,40
262.22183,262.385,68,76,40
262.3885,262.5517,69,78,40
262.55515,262.71835,71,79,40
262.72183,262.885,73,80,40
262.8885,263.0517,69,70,40
263.05515,263.27737,71,60,40
263.05515,263.27737,68,60,40
263.3885,263.61072,68,60,40
263.3885,263.61072,71,60,40
263.72183,263.94406,68,60,40
263.72183,263.94406,71,60,40
264.05515,264.27737,66,60,40
264.05515,264.27737,71,60,40
264.3885,264.61072,66,60,40
264.3885,264.61072,71,60,40
264.72183,264.94403,66,60,40
264.72183,264.94403,71,60,40
265.05515,265.27737,68,60,40
265.05515,265.27737,71,60,40
265.3885,265.61072,68,60,40
265.3885,265.61072,71,60,40
265.72183,265.94403,68,60,40
265.72183,265.94403,71,60,40
266.05515,266.27737,63,60,40
266.05515,266.27737,71,60,40
266.3885,266.61072,66,60,40
266.3885,266.61072,71,60,40
266.72183,266.94403,66,60,40
266.72183,266.94403,71,60,40
267.05515,267.27737,68,60,40
267.05515,267.27737,71,60,40
267.3885,267.61072,68,60,40
267.3885,267.61072,71,60,40
267.72183,267.94403,68,60,40
267.72183,267.94403,71,60,40
268.05515,268.27737,66,60,40
268.05515,268.27737,71,60,40
268.3885,268.61072,66,60,40
268.3885,268.61072,71,60,40
268.72183,268.94403,66,60,40
268.72183,268.94403,71,60,40
269.05515,269.27737,68,60,40
269.05515,269.27737,71,60,40
269.3885,269.61072,68,60,40
269.3885,269.61072,71,60,40
269.72183,269.94403,68,60,40
269.72183,269.94403,71,60,40
270.05515,270.27737,63,60,40
270.05515,270.27737,71,60,40
270.3885,270.61072,66,60,40
270.3885,270.61072,71,60,40
270.72183,270.94403,66,60,40
270.72183,270.94403,71,60,40
271.05515,271.27737,68,60,40
271.3885,271.61072,68,60,40
271.7218,271.94403,68,60,40
272.05515,272.21835,78,60,40
272.2218,272.385,77,60,40
272.3885,272.55167,78,60,40
272.55515,272.71835,80,60,40
272.7218,272.885,81,60,40
272.8885,273.05167,78,60,40
274.05515,274.21835,76,60,40
274.2218,274.385,75,60,40
274.3885,274.55167,76,60,40
274.55515,274.71835,78,60,40
274.7218,274.885,80,60,40
274.8885,275.05167,76,60,40
275.7218,275.94403,69,60,40
276.05515,276.27737,69,60,40
276.3885,276.6107,71,60,40
276.7218,276.94403,71,60,40
277.05515,277.27737,61,60,40
277.05515,277.27737,64,60,40
277.3885,277.6107,59,60,40
277.3885,277.6107,64,60,40
277.7218,277.94403,59,60,40
277.7218,277.94403,64,60,40
278.05515,278.27737,57,60,40
278.05515,278.27737,66,60,40
278.3885,278.6107,56,60,40
278.7218,278.94403,59,60,40
279.05515,279.27737,61,63,40
279.3885,279.6107,73,66,40
279.7218,279.94403,73,70,40
280.05515,280.27737,66,73,40
280.3885,280.6107,66,77,40
280.7218,280.94403,66,80,40
281.05515,281.27737,59,84,40
281.38846,281.6107,71,87,40
281.7218,281.94403,71,90,40
282.05515,282.27737,64,60,40
282.38846,282.6107,64,60,40
282.38846,282.6107,76,60,40
282.7218,282.94403,64,60,40
282.7218,282.94403,76,60,40
283.05515,283.27737,69,60,40
283.05515,283.27737,76,60,40
283.38846,283.6107,76,60,40
283.38846,283.6107,69,60,40
283.7218,283.94403,76,60,40
283.7218,283.94403,69,60,40
284.05515,284.27737,76,60,40
284.05515,284.27737,68,60,40
284.38846,284.6107,76,60,40
284.38846,284.6107,68,60,40
284.7218,284.94403,76,60,40
284.7218,284.94403,68,60,40
285.05515,285.27734,76,60,40
285.05515,285.27734,69,60,40
285.38846,285.6107,76,60,40
285.38846,285.6107,69,60,40
285.7218,285.94403,76,60,40
285.7218,285.94403,69,60,40
286.05515,286.27734,76,60,40
286.05515,286.27734,68,60,40
286.38846,286.6107,76,60,40
286.38846,286.6107,68,60,40
286.7218,286.94403,76,60,40
286.7218,286.94403,68,60,40
287.05515,287.27734,76,60,40
287.05515,287.27734,69,60,40
287.38846,287.6107,76,60,40
287.38846,287.6107,69,60,40
287.7218,287.94403,76,60,40
287.7218,287.94403,69,60,40
288.05515,288.27734,76,60,40
288.05515,288.27734,68,60,40
288.38846,288.6107,76,60,40
288.38846,288.6107,68,60,40
288.7218,288.94403,76,60,40
288.7218,288.94403,68,60,40
289.05515,289.27734,76,60,40
289.05515,289.27734,69,60,40
289.38846,289.6107,76,60,40
289.38846,289.6107,69,60,40
289.7218,289.94403,76,60,40
289.7218,289.94403,69,60,40
290.05515,290.27734,76,60,40
290.05515,290.27734,68,60,40
290.38846,290.61572,76,60,40
290.38846,290.61572,68,60,40
290.72937,290.96466,76,60,40
290.72937,290.96466,68,60,40
292.10193,292.2651,66,60,40
292.2686,292.4318,64,60,40
292.43524,292.59845,66,60,40
292.60193,292.7651,64,60,40
292.7686,292.9318,62,60,40
292.93524,293.09845,66,60,40
293.10193,293.2651,76,60,40
293.2686,293.4318,75,60,40
293.43524,293.59845,76,60,40
293.60193,293.7651,74,60,40
293.7686,293.9318,73,60,40
293.93524,294.09845,71,60,40
294.10193,294.2651,76,60,40
294.2686,294.4318,74,60,40
294.43524,294.59845,76,60,40
294.60193,294.7651,74,60,40
294.7686,294.9318,73,60,40
294.93524,295.09845,76,60,40
295.10193,295.32413,69,60,40
295.43524,295.65747,69,60,40
295.7686,295.9908,66,60,40
295.7686,295.9908,69,60,40
296.10193,296.32413,66,60,40
296.10193,296.32413,69,60,40
296.43524,296.65747,64,60,40
296.43524,296.65747,69,60,40
296.7686,296.9908,66,60,40
296.7686,296.9908,69,60,40
297.10193,297.32413,66,60,40
297.10193,297.32413,69,60,40
297.43524,297.65747,69,60,40
297.7686,297.9908,57,60,40
298.10193,298.32413,56,60,40
298.43524,298.65747,61,60,40
298.7686,298.9908,61,60,40
299.10193,299.32413,66,60,40
299.10193,299.32413,61,60,40
299.43524,299.65747,66,60,40
299.43524,299.65747,61,60,40
299.7686,299.9908,66,60,40
299.7686,299.9908,61,60,40
300.10193,300.32413,66,60,40
300.43524,300.65747,66,60,40
300.7686,300.9908,66,60,40
301.1019,301.32413,64,60,40
301.43524,301.65747,59,62,40
301.43524,301.65747,64,62,40
301.7686,301.9908,59,64,40
301.7686,301.9908,64,64,40
302.1019,302.32413,64,67,40
302.43524,302.65747,64,69,40
302.7686,302.9908,64,71,40
303.1019,303.32413,62,74,40
303.43524,303.65747,62,76,40
303.7686,303.99078,62,78,40
304.1019,304.32413,66,81,40
304.43524,304.65747,64,83,40
304.7686,304.99078,64,85,40
305.1019,305.32413,66,88,40
305.43524,305.65747,64,90,40
305.7686,305.99078,64,92,40
306.1019,306.32413,64,95,40
306.43524,306.65747,64,97,40
306.7686,306.99585,64,99,40
307.1095,307.33676,69,110,40
307.45038,307.67767,69,110,40
307.7913,308.03027,69,110,40
308.15527,308.4141,66,110,40
308.53174,308.75397,64,60,40
308.53174,308.75397,69,60,40
308.86508,309.0873,64,60,40
308.86508,309.0873,69,60,40
309.1984,309.42062,66,60,40
309.1984,309.42062,69,60,40
309.53174,309.759,64,60,40
309.53174,309.759,69,60,40
309.87265,310.10794,64,60,40
310.2256,310.47977,64,60,40
310.6131,311.0372,61,60,40
310.6131,311.0372,64,60,40
318.96805,319.19025,61,110,40
319.30136,319.53665,61,110,40
319.6543,320.70947,61,125,40
320.71313,321.70966,63,125,40
321.71313,321.93536,69,110,40
322.04648,322.26868,68,110,40
322.3798,322.60202,66,110,40
322.71313,322.93536,68,110,40
323.04648,323.28177,68,110,40
323.3994,323.6494,68,110,40
323.7744,324.26746,72,110,40
324.44107,324.9341,60,110,40
325.10773,325.6008,61,110,40
325.7744,326.26746,73,110,40
326.44107,326.6633,69,110,40
326.7744,326.9966,66,110,40
327.10773,327.32996,68,110,40
327.44107,327.6633,56,110,40
327.7744,327.9966,61,110,40
328.10773,328.3403,73,110,40
328.45657,328.70657,57,60,40
328.83157,329.01126,69,60,40
329.01907,329.19876,73,60,40
329.20657,329.36978,76,60,40
329.37323,329.53644,81,60,40
329.53992,329.7031,85,60,40
329.70657,329.86978,88,60,40
329.87323,330.03644,76,60,40
330.03992,330.2031,81,60,40
330.20657,330.36975,76,60,40
330.37323,330.53644,85,60,40
330.53992,330.7031,76,60,40
330.70657,330.86975,85,60,40
330.87323,331.03644,76,60,40
331.03992,331.2031,81,60,40
331.20657,331.36975,76,60,40
331.37323,331.53644,85,60,40
331.53992,331.7031,76,61,40
331.70657,331.86975,81,62,40
331.87323,332.03644,73,62,40
332.03992,332.2031,81,63,40
332.20657,332.36975,74,64,40
332.37323,332.53644,81,64,40
332.53992,332.7031,73,65,40
332.70657,332.86975,81,66,40
332.87323,333.03644,71,66,40
333.03992,333.2031,81,67,40
333.20657,333.36975,73,68,40
333.37323,333.53644,81,69,40
333.5399,333.7031,71,69,40
333.70657,333.86975,81,70,40
333.87323,334.03644,69,71,40
334.0399,334.2031,81,71,40
334.20657,334.36975,71,72,40
334.37323,334.53644,81,73,40
334.5399,334.7031,73,73,40
334.70657,334.86975,81,74,40
334.87323,335.03644,74,75,40
335.0399,335.2031,81,75,40
335.20657,335.36975,71,76,40
335.37323,335.53644,81,77,40
335.5399,335.7031,73,78,40
335.70657,335.86975,81,78,40
335.87323,336.03644,74,79,40
336.0399,336.2031,73,80,40
336.20657,336.36975,74,80,40
336.37323,336.53644,81,81,40
336.5399,336.7031,73,82,40
336.70657,336.86975,81,82,40
336.87323,337.03644,71,83,40
337.0399,337.2031,81,84,40
337.20657,337.36975,73,85,40
337.37323,337.53644,81,85,40
337.5399,337.7031,71,86,40
337.70657,337.86975,81,87,40
337.87323,338.03644,69,87,40
338.0399,338.2031,81,88,40
338.20657,338.36975,71,89,40
338.37323,338.53644,81,89,40
338.5399,338.7031,69,90,40
338.70657,338.86975,81,91,40
338.87323,339.03644,78,91,40
339.0399,339.2031,74,92,40
339.20657,339.36975,76,93,40
339.37323,339.53644,81,94,40
339.5399,339.7031,85,94,40
339.70657,339.86975,88,95,40
339.87323,340.03644,69,96,40
340.0399,340.2031,81,96,40
340.20657,340.36975,71,97,40
340.37323,340.5364,81,98,40
340.5399,340.7031,69,98,40
340.70657,340.86975,81,99,40
340.87323,341.0364,78,100,40
341.0399,341.2031,74,100,40
341.20657,341.36975,73,100,40
341.37323,341.5364,76,90,40
341.5399,341.7031,81,80,40
341.70657,341.86975,85,70,40
341.87323,342.0364,69,70,40
342.0399,342.2031,81,69,40
342.20657,342.36975,71,67,40
342.37323,342.5364,81,66,40
342.5399,342.7031,69,64,40
342.70657,342.86975,81,63,40
342.87323,343.0364,78,61,40
343.0399,343.2031,74,60,40
343.20657,343.36975,76,60,40
343.37323,343.5364,81,60,40
343.5399,343.7031,85,60,40
343.70654,343.86975,88,60,40
343.87323,344.0364,57,60,40
344.0399,344.2031,61,60,40
344.20654,344.37347,64,60,40
344.377,344.5439,69,60,40
344.54745,344.72025,73,60,40
344.72394,344.89673,76,60,40
344.90042,347.8926,73,50,40
344.90042,347.8926,76,50,40
349.40042,349.74966,56,50,40
349.75336,350.08322,57,52,40
350.08667,350.41653,61,55,40
350.42,350.74988,61,58,40
350.75336,351.08322,62,61,40
351.08667,351.41653,66,64,40
351.42,351.74988,58,60,40
351.75336,352.08322,59,60,40
352.08667,352.41653,63,60,40
352.42,352.74988,63,60,40
352.75336,353.08322,64,55,40
353.08667,353.41653,68,50,40
353.42,353.74988,56,60,40
353.75336,354.0832,57,60,40
354.08667,354.41653,61,60,40
354.42,354.74988,61,60,40
354.75336,355.0832,62,60,40
355.08667,355.41653,66,60,40
357.42,357.74988,60,60,40
357.75333,358.0832,61,60,40
358.08667,358.41653,64,60,40
358.42,358.74988,65,60,40
358.75333,359.0832,66,60,40
359.08667,359.41653,69,55,40
359.42,359.74988,64,50,40
359.75333,360.0832,66,50,40
360.08667,360.41653,69,50,40
360.42,360.74988,59,50,40
361.42,362.0832,68,50,40
362.08667,362.24988,66,50,40
362.25333,362.41653,64,50,40
362.42,362.5832,63,50,40
362.58667,362.74988,60,50,40
362.75333,362.97556,61,50,40
363.42,364.0832,69,90,40
364.08667,364.24985,68,80,40
364.25333,364.41653,66,70,40
364.42,364.5832,64,60,40
364.58667,364.74985,61,60,40
364.75333,365.0832,63,60,40
365.08667,365.41653,66,60,40
365.42,365.74985,66,50,40
365.75333,366.0832,68,50,40
366.08667,366.41653,71,50,40
366.42,366.74985,64,50,40
366.75333,367.0832,57,55,40
367.08667,367.41653,68,60,40
367.41998,367.74985,65,65,40
367.75333,368.0832,69,70,40
368.08667,368.41653,66,75,40
368.41998,368.74985,63,80,40
368.75333,369.0832,68,85,40
369.08667,369.41653,68,90,40
369.41998,369.5869,68,95,40
369.59045,369.75735,71,98,40
369.7609,369.9882,69,100,40
370.1018,370.32907,69,110,40
370.44272,370.6155,69,110,40
370.6192,370.792,66,110,40
370.79565,371.03094,64,110,40
371.1486,371.49786,55,60,40
371.83487,372.16473,55,60,40
372.1682,372.49808,59,60,40
372.50156,372.8314,59,60,40
372.83487,373.16473,60,60,40
373.1682,373.49808,64,60,40
373.50156,373.8314,66,60,40
373.83487,374.16473,67,60,40
374.1682,374.49808,71,60,40
374.50156,374.8314,71,60,40
374.83487,375.17032,72,60,40
375.17386,375.52313,76,60,40
375.5268,376.19,77,90,40
376.19345,376.35666,76,80,40
376.36014,376.52332,74,70,40
376.5268,376.69,74,60,40
376.69345,376.85666,71,60,40
376.86014,377.08237,72,60,40
377.5268,378.19,77,90,40
378.19345,378.35666,76,80,40
378.36014,378.52332,74,70,40
378.5268,378.69,74,60,40
378.69345,378.85666,71,60,40
378.86014,379.08234,72,60,40
379.86014,380.19,76,76,40
380.19345,380.35666,77,92,40
380.36014,380.52332,79,100,40
380.5268,380.8495,77,110,40
380.85287,381.17557,65,110,40
381.17896,381.50165,69,110,40
381.50507,381.82773,69,110,40
381.83115,382.15384,70,110,40
382.15723,382.47992,74,110,40
382.4833,383.13208,70,110,40
383.13547,383.29514,69,110,40
383.29852,383.45816,67,110,40
383.46158,383.62122,65,110,40
383.6246,383.78427,62,110,40
383.78766,384.00504,64,110,40
384.11374,384.27338,79,60,40
384.2768,384.43643,72,60,40
384.43982,385.0886,81,60,40
385.092,385.25165,79,60,40
385.25504,385.41467,77,60,40
385.4181,385.57773,76,60,40
385.58112,385.74078,72,63,40
385.74417,385.96155,74,67,40
386.39633,386.556,77,82,40
386.5594,386.71902,74,86,40
386.72244,386.93982,76,89,40
387.3746,387.53424,79,110,40
387.53766,387.6973,76,110,40
387.70068,387.94186,77,110,40
388.02676,388.26794,77,110,40
388.35284,388.67554,77,110,40
388.67896,388.92825,79,110,40
389.01602,389.27704,76,110,40
389.36896,389.5912,69,50,40
389.7023,389.92453,62,50,40
390.03564,390.25784,67,50,40
390.03564,390.25784,60,50,40
390.36896,390.5912,72,50,40
390.7023,390.92453,65,50,40
391.0356,391.25784,70,50,40
391.0356,391.25784,67,50,40
391.36896,391.5912,64,50,40
391.7023,391.92453,65,50,40
392.0356,392.25784,74,50,40
392.0356,392.25784,67,50,40
392.36896,392.5912,67,50,40
392.36896,392.5912,72,50,40
392.7023,392.92453,65,50,40
392.7023,392.92453,72,50,40
393.0356,393.19882,65,50,40
393.2023,393.36548,55,50,40
393.36896,394.03217,65,60,40
394.0356,394.19882,64,65,40
394.2023,394.36548,62,66,40
394.36896,395.03217,67,68,40
395.0356,395.19882,65,73,40
395.2023,395.36548,64,75,40
395.36896,396.03217,59,76,40
395.36896,396.03217,62,76,40
396.0356,396.19882,64,81,40
396.2023,396.36548,65,83,40
396.36896,397.03217,60,84,40
396.36896,397.03217,64,84,40
397.0356,397.19882,65,90,40
397.2023,397.36548,67,91,40
397.36896,398.03214,71,92,40
397.36896,398.03214,67,92,40
398.0356,398.19882,72,98,40
398.2023,398.36548,74,99,40
398.36896,399.03214,67,100,40
398.36896,399.03214,72,100,40
399.0356,399.19882,74,90,40
399.2023,399.36548,76,80,40
400.36896,401.03214,72,60,40
401.0356,401.19882,71,60,40
401.20227,401.36548,69,60,40
401.36896,401.53214,67,60,40
401.5356,401.69882,64,60,40
401.70227,402.03214,65,60,40
402.0356,402.36548,62,60,40
402.36896,402.69882,55,60,40
402.36896,402.69882,62,60,40
402.70227,403.03214,60,60,40
403.36896,403.69882,71,60,40
403.70227,404.03214,72,60,40
404.0356,404.19882,74,60,40
404.20227,404.36548,76,62,40
404.36896,404.53214,74,65,40
404.5356,404.69882,65,67,40
404.70227,404.9245,64,70,40
406.0356,406.36548,80,90,40
406.36896,406.53214,83,95,40
406.5356,406.69882,76,98,40
406.70227,407.03214,76,100,40
408.0356,408.36548,72,110,40
408.36896,408.6988,76,110,40
408.70227,409.03214,77,110,40
409.0356,409.1988,72,60,40
409.20227,409.36548,71,60,40
409.36896,409.53214,71,60,40
409.5356,409.6988,68,60,40
409.70227,409.9245,69,60,40
410.0356,410.36548,76,110,40
410.36896,410.53214,76,110,40
410.5356,410.6988,69,110,40
410.70227,410.9245,69,110,40
411.0356,411.1988,69,60,40
411.20227,411.36548,67,60,40
411.36893,411.53214,67,60,40
411.5356,411.6988,64,60,40
411.70227,411.9245,65,60,40
413.0356,413.1988,74,60,40
413.20227,413.36548,72,60,40
413.36893,413.53214,72,60,40
413.5356,413.6988,69,60,40
413.70227,413.9245,71,60,40
415.0356,415.1988,72,60,40
415.20227,415.36548,71,60,40
415.36893,415.53214,71,60,40
415.5356,415.6988,68,60,40
415.70227,415.9245,69,60,40
417.05832,417.22522,73,50,40
417.2288,417.3957,71,50,40
417.39923,417.56613,71,50,40
417.5697,417.7366,68,53,40
417.74014,417.9674,69,56,40
418.08105,418.24796,66,62,40
418.25153,418.41843,71,65,40
418.42197,418.93567,64,68,40
418.93933,419.11215,62,77,40
419.1158,419.2928,61,80,40
419.29654,419.4735,62,70,40
419.47726,419.64044,64,60,40
419.64392,419.80713,62,60,40
419.8106,419.9738,61,60,40
419.97726,420.14044,62,60,40
420.14392,420.30713,64,60,40
421.47726,421.64044,66,60,40
421.64392,421.80713,64,60,40
421.81058,421.9738,62,60,40
421.97726,422.14044,64,60,40
422.14392,422.30713,66,60,40
423.47726,423.64044,64,60,40
423.64392,423.80713,62,60,40
423.81058,423.9738,61,60,40
423.97726,424.14044,62,60,40
424.14392,424.30713,64,60,40
424.47726,424.80713,57,50,40
425.47726,425.80713,63,50,40
426.47726,426.80713,59,50,40
426.47726,426.80713,64,50,40
427.47726,428.14044,69,90,40
428.14392,428.30713,68,80,40
428.31058,428.4738,66,75,40
428.47726,428.64044,64,50,40
428.64392,428.8071,61,50,40
428.81058,429.0328,62,50,40
429.47726,429.64044,66,50,40
429.64392,429.8071,63,50,40
429.81058,430.0328,59,50,40
429.81058,430.0328,64,50,40
430.47726,430.64044,62,50,40
430.64392,430.8071,59,50,40
430.81058,431.0328,61,50,40
431.47726,432.14044,73,50,40
432.14392,432.3071,71,55,40
432.31058,432.4738,69,57,40
432.47723,432.64044,68,58,40
432.64392,432.8071,65,59,40
432.81058,433.0328,66,61,40
433.47723,433.64044,69,66,40
433.64392,433.8071,66,68,40
433.81058,434.0328,68,69,40
434.47723,434.64044,71,75,40
434.64392,434.8071,68,76,40
434.81058,435.0328,69,78,40
435.47723,435.64044,74,60,40
435.64392,435.8071,71,60,40
435.81058,436.14044,73,60,40
436.14392,436.4738,76,60,40
436.47723,436.8071,65,60,40
436.81058,437.14044,66,60,40
437.14392,437.4738,69,60,40
437.47723,437.64044,76,60,40
437.64392,437.8071,73,60,40
437.81058,438.14044,74,60,40
438.14392,438.4738,78,60,40
438.47723,438.8071,66,60,40
438.81058,439.14044,68,60,40
439.14392,439.47375,71,60,40
439.47723,440.14044,76,75,40
440.14392,440.3071,74,66,40
440.31058,440.47375,73,67,40
440.47723,440.64044,71,69,40
440.64392,440.8071,68,71,40
440.81058,441.0328,69,72,40
441.14392,441.3071,73,75,40
441.31058,441.47375,76,77,40
441.47723,441.69702,69,78,40
441.80692,442.0267,69,82,40
442.13657,442.29797,70,85,40
442.30142,442.46283,73,86,40
442.46625,442.68365,66,88,40
442.79233,443.00974,66,91,40
443.1184,443.27808,68,94,40
443.28146,443.4411,71,96,40
443.44452,443.60416,64,100,40
443.60754,443.7672,71,100,40
443.7706,443.98798,64,100,40
444.09668,444.41937,70,60,40
444.42276,444.74545,73,60,40
444.74884,445.07153,78,60,40
444.9119,445.2346,68,60,40
445.07495,445.2346,68,60,40
445.40103,445.72372,71,68,40
445.7271,446.0498,76,76,40
446.0532,446.21283,59,84,40
446.21625,446.3759,61,88,40
446.37927,446.53894,61,92,40
446.54233,446.70197,64,96,40
446.70535,446.92276,62,100,40
447.03146,447.1911,64,110,40
447.1945,447.35416,68,110,40
447.35754,447.51718,68,110,40
447.52057,447.68024,71,110,40
447.68362,447.901,64,110,40
447.68362,447.901,69,110,40
448.0097,448.16937,69,50,40
448.17276,448.3324,68,50,40
448.3358,448.49545,68,50,40
448.49884,448.65848,64,50,40
448.6619,448.87927,66,50,40
449.96622,450.1259,71,50,40
450.12927,450.2889,69,50,40
450.29233,450.45197,69,50,40
450.45535,450.615,66,50,40
450.6184,450.8358,68,50,40
451.92273,452.0824,62,50,40
452.0858,452.24542,64,50,40
452.24884,452.40848,64,50,40
452.41187,452.57153,68,50,40
452.57492,452.7923,66,50,40
452.901,453.06064,81,50,40
453.06406,453.2237,80,50,40
453.22708,453.38672,80,50,40
453.39014,453.54977,77,50,40
453.55316,453.77057,78,50,40
453.87927,454.0389,64,50,40
454.0423,454.20193,66,50,40
454.20535,454.365,66,50,40
454.36838,454.52805,69,50,40
454.53143,454.7488,68,50,40
454.8575,455.01715,78,50,40
455.02057,455.1802,76,50,40
455.1836,455.3468,76,50,40
455.35028,455.51346,73,50,40
455.51694,455.73917,74,50,40
455.85028,456.01718,85,60,40
456.02072,456.18762,83,63,40
456.1912,456.3581,76,67,40
456.36163,456.52853,74,71,40
456.53207,456.7049,73,74,40
456.70856,456.88135,71,78,40
456.88504,457.2427,64,82,40
457.24646,457.61755,68,89,40
457.62146,458.25986,71,97,40
458.26434,460.72342,62,110,40
458.26434,460.72342,71,110,40
462.50134,463.1796,73,60,40
463.18317,463.35007,71,60,40
463.3536,463.5205,69,60,40
463.52408,463.69098,69,60,40
463.69452,463.86142,66,60,40
463.865,464.09225,68,60,40
464.54678,465.22507,73,90,40
465.2286,465.3955,71,80,40
465.39908,465.56598,69,70,40
465.56952,465.73642,69,65,40
465.74,465.9069,66,67,40
465.91043,466.1377,68,69,40
466.59225,466.75916,71,77,40
466.7627,466.9296,68,79,40
466.93317,467.16043,69,81,40
467.615,467.7819,73,90,40
467.78543,467.95233,69,92,40
467.95587,468.18317,71,94,40
468.6377,469.3399,76,110,40
469.3436,469.5164,74,110,40
469.52005,469.69284,73,110,40
469.69653,469.88013,71,110,40
469.88403,470.06763,68,110,40
470.07153,470.34296,69,110,40
470.9144,471.15918,62,60,40
471.1644,471.5316,64,60,40
471.5394,472.0394,61,60,40
0.0,0.34520328,56,50,41
0.348837,0.67869776,57,51,41
0.68217,1.0120308,61,53,41
1.015503,1.3453637,61,55,41
1.348836,1.6786968,62,57,41
1.682169,2.01203,66,59,41
2.015502,2.3453627,58,61,41
2.348835,2.6786957,59,63,41
2.682168,3.0120287,63,65,41
3.015501,3.3453617,51,67,41
3.348834,3.6786947,52,69,41
3.682167,4.0120277,56,70,41
6.015498,6.678692,62,60,41
6.682164,6.8453584,61,60,41
6.8488307,7.012025,59,60,41
7.015497,7.1786914,57,60,41
7.1821637,7.345358,54,60,41
7.34883,7.571052,56,60,41
10.015494,10.345355,61,50,41
10.348827,10.678688,63,50,41
10.68216,11.012021,66,50,41
11.015493,11.345354,54,50,41
11.348826,11.686184,56,50,41
11.689735,12.039,59,50,41
12.042676,12.70587,56,50,41
12.709342,12.872537,54,50,41
12.876008,13.039203,52,50,41
13.042675,13.372536,52,50,41
14.042674,14.372535,53,60,41
14.376007,14.705868,54,60,41
14.70934,15.039201,57,60,41
15.042673,15.372534,58,60,41
15.376006,15.705867,59,60,41
15.709339,16.0392,63,60,41
16.042671,16.372532,62,50,41
16.376005,16.705866,64,50,41
16.709337,17.039198,68,50,41
17.042671,17.372532,68,50,41
17.376003,17.705864,69,55,41
17.709337,18.039198,65,60,41
18.04267,18.37253,61,65,41
18.376003,18.705864,66,70,41
18.709335,19.039196,63,75,41
19.04267,19.37253,59,80,41
19.376001,19.705862,64,85,41
19.709335,20.039196,59,90,41
20.042667,20.205862,59,95,41
20.209335,20.372528,68,98,41
20.376001,20.598223,59,100,41
20.709333,20.944628,59,110,41
21.062275,21.245869,57,110,41
21.249775,21.433369,59,110,41
21.437275,21.687275,56,110,41
22.187275,22.53654,56,60,41
22.540216,22.870077,57,60,41
22.873549,23.20341,61,60,41
23.206882,23.536743,61,60,41
23.540215,23.870075,62,60,41
23.873549,24.20341,66,60,41
24.20688,24.536741,58,60,41
24.540215,24.870075,59,60,41
24.873547,25.203407,63,60,41
25.20688,25.536741,51,60,41
25.540213,25.870073,52,60,41
25.873547,26.203407,56,60,41
28.206877,28.870071,62,60,41
28.873543,29.036737,61,60,41
29.040209,29.203403,59,60,41
29.206877,29.37007,57,60,41
29.373543,29.536737,54,60,41
29.540209,29.76243,56,60,41
32.206875,32.536736,61,50,41
32.540207,32.870068,63,50,41
32.87354,33.2034,66,50,41
33.20687,33.53673,54,50,41
33.540203,33.877563,56,50,41
33.881115,34.230377,59,50,41
34.234055,34.897247,56,50,41
34.900723,35.063915,54,50,41
35.067387,35.230583,52,50,41
35.234055,35.563915,52,50,41
36.234055,36.563915,53,60,41
36.567387,36.897247,54,60,41
36.90072,37.23058,57,60,41
37.23405,37.56391,58,60,41
37.567387,37.897247,59,60,41
37.90072,38.23058,63,60,41
38.23405,38.56391,62,50,41
38.567383,38.897243,64,50,41
38.90072,39.23058,68,50,41
39.23405,39.56391,68,50,41
39.567383,39.897243,69,55,41
39.900715,40.230576,65,60,41
40.23405,40.56391,61,65,41
40.567383,40.897243,66,70,41
40.900715,41.230576,63,75,41
41.234047,41.563908,59,80,41
41.567383,41.897243,64,85,41
41.900715,42.230576,59,90,41
42.234047,42.39724,59,95,41
42.400715,42.563908,68,98,41
42.56738,42.7896,59,100,41
42.900715,43.127987,59,110,41
43.241623,43.414417,57,110,41
43.41809,43.59505,59,110,41
43.598816,43.83978,56,110,41
43.96026,44.309525,55,60,41
44.3132,44.643063,54,60,41
44.646534,44.976395,55,60,41
44.979866,45.309727,59,60,41
45.3132,45.643063,59,60,41
45.646534,45.976395,60,60,41
45.979866,46.309727,64,60,41
46.313198,46.64306,54,60,41
46.64653,46.976395,55,60,41
46.979866,47.309727,59,60,41
47.313198,47.64306,59,60,41
47.64653,47.98389,60,60,41
47.98744,48.336704,55,60,41
48.34038,48.670242,57,60,41
48.673714,49.003574,59,60,41
49.007046,49.336906,62,60,41
49.34038,50.003574,67,90,41
50.007046,50.17024,65,80,41
50.173714,50.336906,64,70,41
50.340378,50.503574,64,60,41
50.507046,50.67024,60,60,41
50.673714,50.895935,62,60,41
51.340378,52.00357,67,90,41
52.007046,52.17024,65,80,41
52.17371,52.336906,64,70,41
52.340378,53.011066,62,90,41
53.014618,53.187412,60,92,41
53.19109,53.363884,58,100,41
53.36756,54.002533,57,110,41
54.005856,54.162106,55,110,41
54.16543,54.32168,53,110,41
54.325005,54.481255,51,110,41
54.484577,54.640827,48,110,41
54.644154,54.85692,50,110,41
55.282448,55.91742,58,110,41
55.920746,56.076992,57,110,41
56.08032,56.23657,55,110,41
56.23989,56.39614,53,110,41
56.399467,56.555714,50,110,41
56.55904,56.771805,52,110,41
56.87819,57.03444,53,60,41
57.03776,57.19401,55,60,41
57.197334,57.51316,55,60,41
57.516483,57.832306,57,60,41
57.835632,58.151455,60,60,41
58.15478,58.789753,62,60,41
58.793076,58.949326,58,74,41
58.95265,59.1089,57,78,41
59.112225,59.747196,55,82,41
59.75052,59.90677,53,97,41
59.910095,60.066345,52,100,41
60.069668,60.545067,57,110,41
60.54839,60.70464,55,110,41
60.707966,60.864212,53,110,41
60.86754,61.02379,52,110,41
61.02711,61.18336,50,110,41
61.186687,61.342934,48,110,41
61.34626,61.509453,52,110,41
61.512928,61.67612,53,110,41
61.679592,61.850376,55,110,41
61.85401,62.024796,60,90,41
62.02843,62.191624,54,50,41
62.195095,62.35829,66,50,41
62.361763,62.583984,67,50,41
62.695095,62.917316,64,50,41
63.028427,63.250652,65,50,41
63.361763,63.583984,62,50,41
63.695095,63.917316,64,50,41
64.02843,64.25065,61,50,41
64.36176,64.583984,62,50,41
64.69509,64.91731,59,50,41
65.02843,65.25065,60,50,41
65.36176,65.589035,57,50,41
65.70267,65.937965,59,50,41
66.05561,66.38547,50,60,41
66.38895,66.7188,62,62,41
66.722275,66.88547,60,65,41
66.88894,67.05214,59,66,41
67.05561,67.7188,52,68,41
67.722275,67.88547,50,73,41
67.88894,68.05214,48,75,41
68.05561,68.71152,53,76,41
68.71495,68.87635,60,81,41
68.87978,69.04118,62,83,41
69.04462,69.69339,55,84,41
69.69679,69.85644,62,90,41
69.85983,70.01948,64,91,41
70.02287,70.657845,50,92,41
70.02287,70.657845,62,92,41
70.66117,70.81742,55,98,41
70.82075,70.977,53,99,41
70.98032,71.61529,52,100,41
70.98032,71.61529,64,100,41
71.618614,71.78181,57,90,41
71.785286,71.94848,55,80,41
72.95195,73.28181,52,60,41
73.28528,73.61514,53,60,41
73.618614,73.94847,57,60,41
73.95195,74.28181,64,60,41
74.28528,74.61514,62,60,41
74.618614,74.94847,69,60,41
74.95194,75.28181,71,60,41
75.28528,75.61514,72,60,41
75.618614,75.78181,62,60,41
75.78528,75.94847,64,60,41
75.95194,76.28181,55,60,41
75.95194,76.28181,62,60,41
76.28528,76.615135,60,60,41
76.618614,76.78181,59,60,41
76.78528,76.94847,60,62,41
76.95194,77.28181,55,65,41
77.28528,77.615135,55,70,41
77.61861,77.94847,56,75,41
77.95194,78.115135,59,80,41
78.11861,78.28181,64,83,41
78.28528,78.615135,64,85,41
78.61861,78.94847,64,90,41
78.95194,79.2818,68,95,41
79.28528,79.615135,69,100,41
79.61861,79.94847,48,110,41
79.95194,80.2818,52,110,41
80.28527,80.615135,53,110,41
80.61861,80.94847,60,110,41
80.95194,81.2818,64,110,41
81.28527,81.615135,65,110,41
81.61861,81.94846,64,60,41
81.95194,82.2818,52,60,41
82.28527,82.615135,53,60,41
82.61861,82.94846,57,110,41
82.951935,83.2818,61,110,41
83.28527,83.615135,62,110,41
83.61861,83.7818,57,60,41
83.78527,83.94846,55,60,41
83.951935,84.11513,55,60,41
84.11861,84.2818,52,60,41
84.28527,84.50749,53,60,41
84.61861,84.7818,65,110,41
84.78527,84.94846,64,110,41
84.951935,85.11513,64,110,41
85.1186,85.2818,61,110,41
85.28527,85.50749,62,110,41
86.6186,86.78179,60,110,41
86.78527,86.94846,59,110,41
86.951935,87.11513,59,110,41
87.1186,87.28179,56,110,41
87.28527,87.50749,57,110,41
88.6299,88.79872,61,80,41
88.802315,88.97113,59,73,41
88.974724,89.14752,59,65,41
89.1512,89.32399,56,57,41
89.32767,89.56296,57,50,41
89.68061,89.8534,61,50,41
89.85708,90.02987,59,50,41
90.03355,91.05273,57,50,41
91.056274,91.21947,61,68,41
91.222946,91.38614,58,71,41
91.38961,91.61183,59,74,41
91.72294,91.88614,57,80,41
91.88961,92.0528,59,70,41
92.056274,92.21947,61,60,41
92.22294,92.38614,59,60,41
92.38961,92.5528,57,60,41
92.556274,92.71947,59,60,41
92.72294,92.88614,57,60,41
93.056274,93.21947,57,60,41
93.22294,93.38613,56,60,41
93.38961,93.5528,54,60,41
93.556274,93.71947,56,60,41
93.72294,93.88613,57,60,41
95.056274,95.21947,59,60,41
95.22294,95.38613,57,60,41
95.3896,95.5528,56,60,41
95.556274,95.71947,57,60,41
95.72294,95.88613,59,60,41
96.056274,96.21947,61,60,41
96.22294,96.38613,59,60,41
96.3896,96.552795,57,60,41
96.55627,96.71947,59,60,41
96.72294,96.88613,61,60,41
97.05627,97.38613,54,50,41
98.05627,98.38613,54,50,41
99.05627,99.38613,52,50,41
101.3896,101.552795,73,50,41
101.55627,101.71946,70,50,41
101.72293,101.94515,71,50,41
102.389595,102.552795,66,50,41
102.55627,102.71946,63,50,41
102.72293,102.94515,64,50,41
103.389595,103.55279,59,50,41
103.55627,103.71946,56,50,41
103.72293,103.94515,57,50,41
104.05627,104.71946,57,50,41
104.72293,104.88612,56,55,41
104.889595,105.05279,54,57,41
105.05626,105.21946,52,58,41
105.22293,105.38612,49,59,41
105.389595,105.61182,50,61,41
106.05626,106.21945,54,66,41
106.22293,106.38612,51,68,41
106.389595,106.61182,52,69,41
107.05626,107.21945,62,75,41
107.22292,107.38612,59,76,41
107.389595,107.61182,61,78,41
108.05626,108.21945,71,60,41
108.22292,108.386116,68,60,41
108.389595,108.71945,69,60,41
108.72292,109.05279,73,60,41
109.05626,109.71945,69,90,41
109.72292,109.886116,68,80,41
109.88959,110.05279,66,70,41
110.05626,110.21945,73,60,41
110.22292,110.386116,70,60,41
110.38959,110.71945,71,60,41
110.72292,111.05278,74,60,41
111.05626,111.71945,71,90,41
111.72292,111.886116,69,80,41
111.88959,112.05278,68,70,41
112.05625,112.386116,60,60,41
112.38959,112.71945,61,63,41
112.72292,113.05278,64,66,41
113.05625,113.386116,65,69,41
113.38959,113.719444,66,72,41
113.72292,114.05278,61,75,41
114.05625,114.38249,49,78,41
114.385925,114.71216,50,82,41
114.71559,115.04183,54,85,41
115.045265,115.36795,58,88,41
115.371346,115.69404,59,91,41
115.69743,116.02013,52,94,41
116.02352,116.34621,56,100,41
116.34961,116.672295,57,100,41
116.67569,117.65055,66,60,41
117.65395,118.628815,64,60,41
118.63221,118.791855,56,84,41
118.79525,118.954895,57,88,41
118.9583,119.12149,57,92,41
119.12496,119.288155,52,96,41
119.291626,119.5189,56,100,41
119.63254,119.80533,52,110,41
119.809006,119.981804,50,110,41
119.98548,120.16244,62,110,41
120.1662,120.34979,52,110,41
120.3537,120.6037,52,110,41
120.7287,121.077965,57,60,41
121.08164,121.4115,56,60,41
121.41498,121.744835,57,60,41
121.74831,122.07817,60,60,41
122.08164,122.4115,59,60,41
122.41497,122.744835,60,60,41
122.74831,123.07817,64,60,41
123.08164,123.4115,54,60,41
123.41497,123.744835,55,60,41
123.74831,124.07816,60,60,41
124.08164,124.4115,59,60,41
124.41497,124.744835,60,60,41
124.74831,125.07816,52,60,41
125.081635,125.4115,54,60,41
125.41497,125.744835,55,60,41
125.74831,126.07816,59,60,41
126.081635,126.4115,59,60,41
126.41497,126.74483,60,60,41
126.74831,127.07816,55,60,41
127.081635,127.4115,57,60,41
127.41497,127.74483,59,60,41
127.7483,128.07816,62,60,41
128.08163,128.74483,67,90,41
128.7483,128.9115,65,80,41
128.91496,129.07816,64,70,41
129.08163,129.24483,64,60,41
129.2483,129.4115,60,60,41
129.41496,129.63719,62,60,41
130.08163,130.74483,67,90,41
130.74829,130.9115,65,80,41
130.91496,131.07816,64,70,41
131.08163,131.74483,62,90,41
131.74829,131.9115,60,92,41
131.91496,132.07816,58,100,41
132.08163,132.74483,57,110,41
132.74829,132.91148,55,110,41
132.91496,133.07816,53,110,41
133.08163,133.24483,51,110,41
133.24829,133.41148,48,110,41
133.41496,133.63719,50,110,41
134.08163,134.74483,58,110,41
134.74829,134.91148,57,110,41
134.91496,135.07816,55,110,41
135.08163,135.24483,53,110,41
135.24829,135.41148,50,110,41
135.41496,135.63718,52,110,41
135.74829,135.91148,53,60,41
135.91496,136.07816,55,60,41
136.08162,136.41148,55,60,41
136.41496,136.74483,57,60,41
136.74829,137.07816,60,60,41
137.08162,137.74481,62,60,41
137.74829,137.91148,58,74,41
137.91496,138.07816,57,78,41
138.08162,138.74481,55,82,41
138.74829,138.91148,53,97,41
138.91496,139.07816,52,100,41
139.08162,139.57816,57,110,41
139.58162,139.74481,55,110,41
139.74829,139.91148,53,110,41
139.91496,140.07816,52,110,41
140.08162,140.24481,50,110,41
140.24829,140.41148,48,110,41
140.41496,140.57816,52,110,41
140.58162,140.74481,53,110,41
140.74829,140.91148,55,110,41
140.91495,141.07816,60,90,41
141.08162,141.24481,54,50,41
141.24829,141.41148,66,50,41
141.41495,141.63718,67,50,41
141.74829,141.9705,64,50,41
142.08162,142.30385,65,50,41
142.41495,142.63718,62,50,41
142.74829,142.9705,64,50,41
143.08162,143.30385,61,50,41
143.41495,143.63718,62,50,41
143.74829,143.9705,59,50,41
144.08162,144.30383,60,50,41
144.41495,144.64223,57,50,41
144.75586,144.99115,59,50,41
145.1088,145.43866,50,60,41
145.44214,145.77199,62,62,41
145.77547,145.93866,60,65,41
145.94214,146.10533,59,66,41
146.1088,146.77199,52,68,41
146.77547,146.93866,50,73,41
146.94214,147.10533,48,75,41
147.1088,147.77199,53,76,41
147.77547,147.93866,60,81,41
147.94214,148.10533,62,83,41
148.1088,148.77199,55,84,41
148.77547,148.93866,62,90,41
148.94212,149.10533,64,91,41
149.1088,149.77199,50,92,41
149.1088,149.77199,62,92,41
149.77547,149.93866,55,98,41
149.94212,150.10533,53,99,41
150.1088,150.77199,52,100,41
150.1088,150.77199,64,100,41
150.77547,150.93866,57,90,41
150.94212,151.10532,55,80,41
152.1088,152.43866,52,60,41
152.44212,152.77199,53,60,41
152.77547,153.10532,57,60,41
153.1088,153.43866,64,60,41
153.44212,153.77199,62,60,41
153.77547,154.10532,69,60,41
154.1088,154.43866,71,60,41
154.44212,154.77199,72,60,41
154.77545,154.93866,62,60,41
154.94212,155.10532,64,60,41
155.1088,155.43866,55,60,41
155.1088,155.43866,62,60,41
155.44212,155.77199,60,60,41
155.77545,155.93864,59,60,41
155.94212,156.10532,60,62,41
156.1088,156.43864,55,65,41
156.44212,156.77199,55,70,41
156.77545,157.10532,56,75,41
157.1088,157.27199,59,80,41
157.27545,157.43864,64,83,41
157.44212,157.77199,64,85,41
157.77545,158.10532,64,90,41
158.1088,158.43864,68,95,41
158.44212,158.77199,69,100,41
158.77545,159.10532,48,110,41
159.10878,159.43147,52,110,41
159.43488,159.75757,53,110,41
159.76096,160.08365,60,110,41
160.08705,160.40973,64,110,41
160.41313,160.73582,65,110,41
160.73921,161.06908,64,60,41
161.07256,161.4024,52,60,41
161.40588,161.73575,53,60,41
161.73921,162.0619,57,110,41
162.0653,162.38799,61,110,41
162.39139,162.71408,62,110,41
162.71747,162.88068,57,60,41
162.88414,163.04733,55,60,41
163.05081,163.214,55,60,41
163.21747,163.38066,52,60,41
163.38414,163.60637,53,60,41
163.71747,163.88066,65,110,41
163.88414,164.04733,64,110,41
164.05081,164.214,64,110,41
164.21747,164.38066,61,110,41
164.38414,164.60637,62,110,41
165.71747,165.88066,60,110,41
165.88414,166.04733,59,110,41
166.05081,166.214,59,110,41
166.21747,166.38066,56,110,41
166.38414,166.60635,57,110,41
167.73262,167.89952,61,80,41
167.90308,168.06998,59,73,41
168.07353,168.24632,59,65,41
168.25,168.42279,56,57,41
168.42647,168.66176,57,50,41
168.77942,168.94261,61,50,41
168.94608,169.10927,59,50,41
169.11275,170.10927,57,50,41
170.11275,170.27594,61,68,41
170.2794,170.44261,58,71,41
170.44608,170.6683,59,74,41
170.7794,170.94261,57,80,41
170.94608,171.10927,59,70,41
171.11275,171.27594,61,60,41
171.2794,171.44261,59,60,41
171.44608,171.60927,57,60,41
171.61275,171.77594,59,60,41
171.7794,171.9426,57,60,41
172.11275,172.27594,57,60,41
172.2794,172.4426,56,60,41
172.44608,172.60927,54,60,41
172.61275,172.77594,56,60,41
172.7794,172.9426,57,60,41
174.11275,174.27594,59,60,41
174.2794,174.4426,57,60,41
174.44608,174.60927,56,60,41
174.61275,174.77594,57,60,41
174.7794,174.9426,59,60,41
175.11273,175.27594,61,60,41
175.2794,175.4426,59,60,41
175.44608,175.60927,57,60,41
175.61273,175.77594,59,60,41
175.7794,175.9426,61,60,41
176.11273,176.4426,54,50,41
177.11273,177.4426,54,50,41
178.11273,178.4426,52,50,41
180.44606,180.60927,73,50,41
180.61273,180.77592,70,50,41
180.7794,181.00162,71,50,41
181.44606,181.60927,66,50,41
181.61273,181.77592,62,50,41
181.7794,182.00162,64,50,41
182.44606,182.60925,59,50,41
182.61273,182.77592,56,50,41
182.7794,183.00162,57,50,41
183.11273,183.77592,57,50,41
183.7794,183.9426,56,55,41
183.94606,184.10925,54,57,41
184.11273,184.27592,52,58,41
184.2794,184.4426,49,59,41
184.44606,184.66829,50,61,41
185.11273,185.27592,54,66,41
185.27939,185.4426,51,68,41
185.44606,185.66829,52,69,41
186.11273,186.27592,62,75,41
186.27939,186.4426,59,76,41
186.44606,186.66829,61,78,41
187.11273,187.27592,71,60,41
187.27939,187.44258,68,60,41
187.44606,187.77592,69,60,41
187.77939,188.10925,73,60,41
188.11273,188.77592,69,90,41
188.77939,188.94258,68,80,41
188.94606,189.10925,66,70,41
189.11273,189.27592,73,60,41
189.27939,189.44258,70,60,41
189.44606,189.77592,71,60,41
189.77939,190.10925,74,60,41
190.11273,190.77592,71,90,41
190.77939,190.94258,69,80,41
190.94606,191.10925,68,70,41
191.11272,191.44258,60,60,41
191.44606,191.77592,61,63,41
191.77939,192.10925,64,66,41
192.11272,192.44258,65,69,41
192.44606,192.77591,66,72,41
192.77939,193.10925,61,75,41
193.11272,193.44258,49,78,41
193.44606,193.77591,50,82,41
193.77939,194.10925,54,85,41
194.11272,194.44258,58,88,41
194.44606,194.77591,59,91,41
194.77939,195.10925,52,94,41
195.11272,195.44258,56,100,41
195.44604,195.77591,57,100,41
195.77939,196.77591,66,60,41
196.77939,197.77591,64,60,41
197.77939,197.93903,56,84,41
197.94243,198.10207,57,88,41
198.10547,198.26512,57,92,41
198.26851,198.42816,52,96,41
198.43155,198.64894,56,100,41
198.75764,198.91728,52,110,41
198.92068,199.08034,50,110,41
199.08372,199.24338,50,110,41
199.24677,199.40642,52,110,41
199.40982,199.6272,49,110,41
200.71416,200.87735,57,50,41
200.88083,201.04402,56,50,41
201.04749,201.21068,56,50,41
201.21416,201.37735,53,50,41
201.38083,201.60304,54,50,41
202.71416,202.87735,59,50,41
202.88083,203.04402,57,50,41
203.04749,203.21068,57,50,41
203.21416,203.37735,54,50,41
203.38083,203.60304,56,50,41
203.71416,203.87735,57,50,41
203.88081,204.04402,56,50,41
204.04749,204.21068,56,50,41
204.21416,204.37735,52,50,41
204.38081,204.60304,54,50,41
204.71416,204.87735,54,50,41
204.88081,205.04402,56,50,41
205.04749,205.21068,56,50,41
205.21416,205.37735,59,50,41
205.38081,205.60304,57,50,41
205.71416,205.87735,59,50,41
205.88081,206.044,57,50,41
206.04749,206.21068,57,50,41
206.21416,206.37735,54,50,41
206.38081,206.60304,56,50,41
206.71416,206.87735,59,50,41
206.88081,207.044,61,50,41
207.04749,207.21068,61,50,41
207.21416,207.37735,64,50,41
207.38081,207.60304,62,50,41
207.71416,208.044,52,60,41
208.04749,208.37735,56,67,41
208.38081,208.71817,59,74,41
208.72173,208.88863,64,82,41
208.89218,209.05908,62,86,41
209.06264,209.22954,61,89,41
209.2331,209.40588,59,93,41
209.40956,209.59315,57,97,41
209.59706,209.96815,56,100,41
209.97206,212.40436,56,110,41
213.15956,213.83783,62,60,41
213.84138,214.00829,61,60,41
214.01183,214.17874,59,60,41
214.18228,214.3492,59,60,41
214.35274,214.51964,56,60,41
214.5232,214.75047,57,60,41
215.20502,215.88329,66,90,41
215.88683,216.05374,64,80,41
216.05728,216.22418,62,70,41
216.22774,216.39464,62,60,41
216.3982,216.5651,59,60,41
216.56865,216.79593,61,60,41
217.25047,217.92874,76,83,41
217.93228,218.09918,74,73,41
218.10274,218.26964,73,75,41
219.29593,219.97418,64,104,41
219.97774,220.14464,62,98,41
220.1482,220.3151,61,100,41
220.31865,220.48555,59,110,41
220.4891,220.656,56,110,41
220.65956,220.88683,57,110,41
221.72841,221.92424,62,110,41
221.9284,222.12424,59,110,41
222.1284,222.41412,61,110,41
222.55698,222.80177,56,60,41
222.80698,223.10072,59,60,41
223.10698,223.50697,57,60,41
236.97363,237.13683,57,60,41
237.1403,237.3035,61,60,41
237.30696,237.47015,64,60,41
237.47363,237.63683,69,60,41
237.6403,237.8035,73,60,41
237.80696,237.97015,76,60,41
237.97363,247.04391,57,60,41
247.04759,247.21451,73,50,41
247.21805,247.38496,72,50,41
247.3885,247.5517,73,50,41
247.55518,247.71837,71,50,41
247.72185,247.88504,69,50,41
247.8885,248.0517,68,50,41
249.05518,249.21837,71,50,41
249.22183,249.38504,70,50,41
249.3885,249.5517,71,50,41
249.55518,249.71837,69,50,41
249.72183,249.88504,68,50,41
249.8885,250.0517,66,50,41
254.3885,254.5517,64,50,41
254.55516,254.71837,68,50,41
254.72183,254.88503,69,50,41
254.8885,255.0517,71,50,41
255.05516,255.21835,73,50,41
255.22183,255.38503,72,50,41
255.3885,255.5517,73,50,41
255.55516,255.71835,71,50,41
255.72183,255.88503,69,50,41
255.8885,256.0517,68,50,41
256.05518,256.21835,66,50,41
256.22183,256.38504,65,50,41
256.3885,256.5517,66,50,41
256.55518,256.71835,68,50,41
256.72183,256.88504,69,50,41
256.8885,257.0517,66,50,41
257.05518,257.21835,71,50,41
257.22183,257.38504,70,50,41
257.3885,257.5517,71,50,41
257.55518,257.71835,69,50,41
257.72183,257.885,68,50,41
257.8885,258.0517,66,50,41
258.05518,258.21835,64,50,41
258.22183,258.385,63,50,41
258.3885,258.5517,64,50,41
258.55518,258.71835,66,50,41
258.72183,258.885,68,50,41
258.8885,259.0517,64,50,41
259.05518,259.21835,66,50,41
259.22183,259.385,65,51,41
259.3885,259.5517,66,52,41
259.55518,259.71835,64,54,41
259.72183,259.885,62,55,41
259.8885,260.0517,61,57,41
261.05515,261.21835,64,66,41
261.22183,261.385,63,68,41
261.3885,261.5517,64,69,41
261.55515,261.71835,62,71,41
261.72183,261.885,61,72,41
261.8885,262.0517,59,73,41
263.05515,263.21835,52,70,41
263.22183,263.385,56,70,41
263.3885,263.5517,59,70,41
263.55515,263.71835,64,70,41
263.72183,263.885,68,70,41
263.8885,264.0517,71,70,41
264.05515,264.21835,69,70,41
264.22183,264.385,66,70,41
264.3885,264.5517,63,70,41
264.55515,264.71835,59,70,41
264.72183,264.885,57,70,41
264.8885,265.0517,54,70,41
265.05515,265.21835,56,70,41
265.22183,265.385,59,70,41
265.3885,265.5517,57,70,41
265.55515,265.71835,56,70,41
265.72183,265.885,54,70,41
265.8885,266.0517,52,70,41
266.05515,266.21835,68,70,41
266.22183,266.385,66,70,41
266.3885,266.5517,64,70,41
266.55515,266.71835,63,70,41
266.72183,266.885,61,70,41
266.8885,267.0517,59,70,41
267.05515,267.21835,52,70,41
267.22183,267.385,56,70,41
267.3885,267.5517,59,70,41
267.55515,267.71835,64,70,41
267.72183,267.885,68,70,41
267.8885,268.05167,71,70,41
268.05515,268.21835,69,70,41
268.22183,268.385,66,70,41
268.3885,268.55167,63,70,41
268.55515,268.71835,59,70,41
268.72183,268.885,57,70,41
268.8885,269.05167,54,70,41
269.05515,269.21835,56,70,41
269.22183,269.385,59,70,41
269.3885,269.55167,57,60,41
269.55515,269.71835,56,60,41
269.72183,269.885,54,60,41
269.8885,270.05167,52,60,41
270.05515,270.21835,68,60,41
270.22183,270.385,66,60,41
270.3885,270.55167,64,60,41
270.55515,270.71835,63,60,41
270.72183,270.885,61,60,41
270.8885,271.05167,59,60,41
271.05515,271.21835,73,60,41
271.2218,271.385,72,60,41
271.3885,271.55167,73,60,41
271.55515,271.71835,71,60,41
271.7218,271.885,69,60,41
271.8885,272.05167,68,60,41
272.05515,272.21835,66,60,41
272.2218,272.385,65,60,41
272.3885,272.55167,66,60,41
272.55515,272.71835,68,60,41
272.7218,272.885,69,60,41
272.8885,273.05167,68,60,41
273.05515,273.21835,71,60,41
273.2218,273.385,70,60,41
273.3885,273.55167,71,60,41
273.55515,273.71835,69,60,41
273.7218,273.885,68,60,41
273.8885,274.05167,66,60,41
274.05515,274.21835,64,60,41
274.2218,274.385,63,60,41
274.3885,274.55167,64,60,41
274.55515,274.71835,66,60,41
274.7218,274.885,68,60,41
274.8885,275.05167,66,60,41
275.05515,275.21835,69,60,41
275.2218,275.385,68,60,41
275.3885,275.55167,69,60,41
275.55515,275.71835,71,60,41
275.7218,275.885,73,60,41
275.8885,276.05167,75,60,41
276.05515,276.21835,76,60,41
276.2218,276.385,75,60,41
276.3885,276.55167,76,60,41
276.55515,276.71835,75,60,41
276.7218,276.885,76,60,41
276.8885,277.05167,71,60,41
277.05515,277.21835,73,60,41
277.2218,277.385,69,60,41
277.3885,277.55167,68,60,41
277.55515,277.71835,67,60,41
277.7218,277.885,68,60,41
277.8885,278.05167,71,60,41
278.05515,278.21832,69,60,41
278.2218,278.385,66,60,41
278.3885,278.55167,64,60,41
278.55515,278.71832,63,60,41
278.7218,278.885,64,60,41
278.8885,279.05167,65,61,41
279.05515,279.21832,66,63,41
279.2218,279.385,65,65,41
279.3885,279.55167,66,66,41
279.55515,279.71832,64,68,41
279.7218,279.885,62,70,41
279.8885,280.05167,61,72,41
280.05515,280.27737,62,73,41
280.3885,280.6107,62,77,41
280.7218,280.94403,62,80,41
281.05515,281.21832,64,84,41
281.2218,281.385,63,85,41
281.38846,281.55167,64,87,41
281.55515,281.71832,62,89,41
281.7218,281.885,61,90,41
281.88846,282.05167,59,75,41
282.05515,282.27737,61,60,41
282.38846,282.6107,61,60,41
282.7218,282.94403,61,60,41
283.05515,283.27737,61,60,41
283.38846,283.6107,61,60,41
283.7218,283.94403,61,60,41
284.05515,284.27737,62,60,41
284.05515,284.27737,59,60,41
284.38846,284.6107,62,60,41
284.38846,284.6107,59,60,41
284.7218,284.94403,62,60,41
284.7218,284.94403,59,60,41
285.05515,285.27734,52,60,41
285.05515,285.27734,61,60,41
285.38846,285.6107,61,60,41
285.38846,285.6107,52,60,41
285.7218,285.94403,61,60,41
285.7218,285.94403,52,60,41
286.05515,286.27734,59,60,41
286.05515,286.27734,52,60,41
286.38846,286.6107,52,60,41
286.38846,286.6107,59,60,41
286.7218,286.94403,52,60,41
286.7218,286.94403,59,60,41
287.05515,287.27734,52,60,41
287.05515,287.27734,61,60,41
287.38846,287.6107,61,60,41
287.7218,287.94403,61,60,41
288.05515,288.27734,62,60,41
288.05515,288.27734,59,60,41
288.38846,288.6107,62,60,41
288.38846,288.6107,59,60,41
288.7218,288.94403,62,60,41
288.7218,288.94403,59,60,41
289.05515,289.27734,52,60,41
289.05515,289.27734,61,60,41
289.38846,289.6107,61,60,41
289.38846,289.6107,52,60,41
289.7218,289.94403,61,60,41
289.7218,289.94403,52,60,41
290.05515,290.27734,59,60,41
290.05515,290.27734,52,60,41
290.38846,290.61572,52,60,41
290.38846,290.61572,59,60,41
290.72937,290.96466,52,60,41
290.72937,290.96466,59,60,41
291.0823,291.2551,57,60,41
291.2588,291.43158,56,60,41
291.43524,291.59845,54,60,41
291.60193,291.7651,56,60,41
291.7686,291.9318,57,60,41
291.93524,292.09845,58,60,41
292.10193,292.2651,62,60,41
292.2686,292.4318,61,60,41
292.43524,292.59845,62,60,41
292.60193,292.7651,61,60,41
292.7686,292.9318,59,60,41
292.93524,293.09845,62,60,41
293.10193,293.2651,68,60,41
293.2686,293.4318,66,60,41
293.43524,293.59845,64,60,41
293.60193,293.7651,66,60,41
293.7686,293.9318,67,60,41
293.93524,294.09845,68,60,41
294.10193,294.2651,64,60,41
294.2686,294.4318,68,60,41
294.43524,294.59845,64,60,41
294.60193,294.7651,68,60,41
294.7686,294.9318,69,60,41
294.93524,295.09845,64,60,41
295.10193,295.32413,66,60,41
295.43524,295.65747,66,60,41
295.7686,295.9908,62,60,41
296.10193,296.32413,62,60,41
296.43524,296.65747,61,60,41
296.7686,296.9908,61,60,41
297.10193,297.32413,62,60,41
297.43524,297.65747,64,60,41
297.7686,297.9908,52,60,41
298.10193,298.32413,52,60,41
298.43524,298.65747,57,60,41
298.7686,298.9908,57,60,41
299.10193,299.32413,54,60,41
299.43524,299.65747,54,60,41
299.7686,299.9908,54,60,41
300.10193,300.32413,54,60,41
300.43524,300.65747,54,60,41
300.7686,300.9908,54,60,41
301.1019,301.32413,59,60,41
301.43524,301.65747,52,62,41
301.7686,301.9908,52,64,41
302.1019,302.32413,52,67,41
302.43524,302.65747,52,69,41
302.7686,302.9908,52,71,41
303.1019,303.32413,57,74,41
303.43524,303.65747,57,76,41
303.7686,303.99078,57,78,41
304.1019,304.32413,57,81,41
304.43524,304.65747,57,83,41
304.7686,304.99078,57,85,41
305.1019,305.32413,57,88,41
305.43524,305.65747,57,90,41
305.7686,305.99078,57,92,41
306.1019,306.32413,56,95,41
306.43524,306.65747,61,97,41
306.7686,306.99585,69,99,41
306.7686,306.99585,61,99,41
307.1095,307.33676,62,110,41
307.45038,307.67767,62,110,41
307.7913,308.03027,57,110,41
308.15527,308.4141,57,110,41
308.53174,308.75397,57,60,41
308.86508,309.0873,57,60,41
309.1984,309.42062,57,60,41
309.53174,309.759,57,60,41
309.87265,310.10794,57,60,41
310.2256,310.47977,56,60,41
310.6131,310.8988,57,60,41
311.04166,311.32736,49,110,41
311.47025,311.75595,49,110,41
311.8988,312.85294,49,125,41
312.85626,313.81036,51,125,41
313.8137,314.02646,57,110,41
314.13284,314.3456,56,110,41
314.452,314.66476,54,110,41
314.77115,314.9839,56,110,41
315.09027,315.3125,56,110,41
315.4236,315.6589,56,110,41
315.77655,316.73068,60,125,41
316.734,317.6881,61,125,41
317.69144,317.9042,57,110,41
318.0106,318.22336,54,110,41
318.32974,318.5425,56,110,41
318.6489,318.86166,49,110,41
318.96805,319.19025,49,110,41
319.30136,319.53665,49,110,41
319.6543,320.70947,49,125,41
320.71313,321.70966,51,125,41
321.71313,321.93536,57,110,41
322.04648,322.26868,56,110,41
322.3798,322.60202,54,110,41
322.71313,322.93536,56,110,41
323.04648,323.28177,56,110,41
323.3994,323.6494,56,110,41
323.7744,324.26746,60,110,41
324.44107,324.9341,48,110,41
325.10773,325.6008,49,110,41
325.7744,326.26746,61,110,41
326.44107,326.6633,57,110,41
326.7744,326.9966,54,110,41
327.10773,327.32996,56,110,41
327.44107,327.6633,44,110,41
327.7744,327.9966,49,110,41
328.10773,328.3403,61,110,41
328.45657,328.70657,57,60,41
328.45657,328.70657,57,60,41
329.87323,330.03644,57,60,41
330.03992,330.2031,61,60,41
330.20657,330.36975,64,60,41
330.37323,330.53644,69,60,41
330.53992,330.7031,73,60,41
330.70657,330.86975,76,60,41
330.87323,331.03644,49,60,41
331.03992,331.2031,52,60,41
331.20657,331.36975,57,60,41
331.37323,331.53644,61,60,41
331.53992,331.7031,64,61,41
331.70657,331.86975,61,62,41
331.87323,332.03644,61,62,41
332.03992,332.2031,57,63,41
332.20657,332.36975,62,64,41
332.37323,332.53644,57,64,41
332.53992,332.7031,61,65,41
332.70657,332.86975,57,66,41
332.87323,333.03644,59,66,41
333.03992,333.2031,57,67,41
333.20657,333.36975,61,68,41
333.37323,333.53644,57,69,41
333.5399,333.7031,59,69,41
333.70657,333.86975,57,70,41
333.87323,334.03644,57,71,41
334.0399,334.2031,69,71,41
334.20657,334.36975,59,72,41
334.37323,334.53644,57,73,41
334.5399,334.7031,61,73,41
334.70657,334.86975,57,74,41
334.87323,335.03644,62,75,41
335.0399,335.2031,61,75,41
335.20657,335.36975,62,76,41
335.37323,335.53644,57,77,41
335.5399,335.7031,61,78,41
335.70657,335.86975,57,78,41
335.87323,336.03644,59,79,41
336.0399,336.2031,57,80,41
336.20657,336.36975,62,80,41
336.37323,336.53644,57,81,41
336.5399,336.7031,61,82,41
336.70657,336.86975,57,82,41
336.87323,337.03644,59,83,41
337.0399,337.2031,57,84,41
337.20657,337.36975,61,85,41
337.37323,337.53644,57,85,41
337.5399,337.7031,59,86,41
337.70657,337.86975,57,87,41
337.87323,338.03644,57,87,41
338.0399,338.2031,69,88,41
338.20657,338.36975,59,89,41
338.37323,338.53644,57,89,41
338.5399,338.7031,57,90,41
338.70657,338.86975,69,91,41
338.87323,339.03644,66,91,41
339.0399,339.2031,62,92,41
339.20657,339.36975,64,93,41
339.37323,339.53644,69,94,41
339.5399,339.7031,73,94,41
339.70657,339.86975,76,95,41
339.87323,340.03644,57,96,41
340.0399,340.2031,69,96,41
340.20657,340.36975,59,97,41
340.37323,340.5364,57,98,41
340.5399,340.7031,57,98,41
340.70657,340.86975,69,99,41
340.87323,341.0364,66,100,41
341.0399,341.2031,62,100,41
341.20657,341.36975,61,100,41
341.37323,341.5364,64,90,41
341.5399,341.7031,69,80,41
341.70657,341.86975,73,70,41
341.87323,342.0364,57,70,41
342.0399,342.2031,69,69,41
342.20657,342.36975,59,67,41
342.37323,342.5364,69,66,41
342.5399,342.7031,57,64,41
342.70657,342.86975,69,63,41
342.87323,343.0364,66,61,41
343.0399,343.2031,62,60,41
343.20657,343.36975,61,60,41
343.37323,343.5364,64,60,41
343.5399,343.7031,69,60,41
343.70654,343.86975,73,60,41
343.87323,344.89673,61,60,41
343.87323,344.89673,64,60,41
344.90042,347.8926,61,50,41
344.90042,347.8926,64,50,41
349.40042,349.74966,56,50,41
349.75336,350.08322,57,52,41
350.08667,350.41653,61,55,41
350.42,350.74988,61,58,41
350.75336,351.08322,62,61,41
351.08667,351.41653,66,64,41
351.42,351.74988,58,60,41
351.75336,352.08322,59,60,41
352.08667,352.41653,63,60,41
352.42,352.74988,51,60,41
352.75336,353.08322,52,55,41
353.08667,353.41653,56,50,41
355.42,356.0832,62,60,41
356.08667,356.24988,61,60,41
356.25336,356.41653,59,60,41
356.42,356.5832,57,60,41
356.58667,356.74988,54,60,41
356.75333,356.97556,56,60,41
359.42,359.74988,61,50,41
359.75333,360.0832,63,50,41
360.08667,360.41653,66,50,41
360.42,360.74988,54,50,41
360.75333,361.0832,56,50,41
361.08667,361.41653,59,50,41
361.42,362.0832,56,50,41
362.08667,362.24988,54,50,41
362.25333,362.41653,52,50,41
362.42,362.74988,52,50,41
363.42,363.74985,53,60,41
363.75333,364.0832,54,60,41
364.08667,364.41653,57,60,41
364.42,364.74985,58,60,41
364.75333,365.0832,59,60,41
365.08667,365.41653,63,60,41
365.42,365.74985,62,50,41
365.75333,366.0832,64,50,41
366.08667,366.41653,68,50,41
366.42,366.74985,68,50,41
366.75333,367.0832,69,55,41
367.08667,367.41653,65,60,41
367.41998,367.74985,61,65,41
367.75333,368.0832,66,70,41
368.08667,368.41653,63,75,41
368.41998,368.74985,59,80,41
368.75333,369.0832,64,85,41
369.08667,369.41653,59,90,41
369.41998,369.5869,59,95,41
369.59045,369.75735,68,98,41
369.7609,369.9882,59,100,41
370.1018,370.32907,59,110,41
370.44272,370.6155,57,110,41
370.6192,370.792,59,110,41
370.79565,371.03094,56,110,41
371.1486,371.49786,55,60,41
371.50156,371.83142,54,60,41
371.83487,372.16473,55,60,41
372.1682,372.49808,59,60,41
372.50156,372.8314,59,60,41
372.83487,373.16473,60,60,41
373.1682,373.49808,64,60,41
373.50156,373.8314,54,60,41
373.83487,374.16473,55,60,41
374.1682,374.49808,59,60,41
374.50156,374.8314,59,60,41
374.83487,375.17032,60,60,41
375.17386,375.52313,55,60,41
375.5268,375.85666,57,60,41
375.86014,376.19,59,60,41
376.19345,376.52332,62,60,41
376.5268,377.19,67,90,41
377.19345,377.35666,65,80,41
377.36014,377.52332,64,70,41
377.5268,377.69,64,60,41
377.69345,377.85666,60,60,41
377.86014,378.08237,62,60,41
378.5268,379.19,67,90,41
379.19345,379.35666,65,80,41
379.36014,379.52332,64,70,41
379.5268,380.19,62,90,41
380.19345,380.35666,60,92,41
380.36014,380.52332,58,100,41
380.5268,381.17557,57,110,41
381.17896,381.33862,55,110,41
381.342,381.50165,53,110,41
381.50507,381.6647,51,110,41
381.6681,381.82773,48,110,41
381.83115,382.04852,50,110,41
382.4833,383.13208,58,110,41
383.13547,383.29514,57,110,41
383.29852,383.45816,55,110,41
383.46158,383.62122,53,110,41
383.6246,383.78427,50,110,41
383.78766,384.00504,52,110,41
384.11374,384.27338,53,60,41
384.2768,384.43643,55,60,41
384.43982,384.7625,55,60,41
384.7659,385.0886,57,60,41
385.092,385.41467,60,60,41
385.4181,386.06686,62,60,41
386.07025,386.2299,58,74,41
386.2333,386.39294,57,78,41
386.39633,387.0451,55,82,41
387.04852,387.20816,53,97,41
387.21155,387.37122,52,100,41
387.3746,387.86032,57,110,41
387.86374,388.02338,55,110,41
388.02676,388.18643,53,110,41
388.18982,388.34946,52,110,41
388.35284,388.5125,50,110,41
388.5159,388.67554,48,110,41
388.67896,388.84396,52,110,41
388.84747,389.0125,53,110,41
389.01602,389.1888,55,110,41
389.1925,389.3653,60,90,41
389.36896,389.53217,54,50,41
389.53564,389.69882,66,50,41
389.7023,389.92453,67,50,41
390.03564,390.25784,64,50,41
390.36896,390.5912,65,50,41
390.7023,390.92453,62,50,41
391.0356,391.25784,64,50,41
391.36896,391.5912,61,50,41
391.7023,391.92453,62,50,41
392.0356,392.25784,59,50,41
392.36896,392.5912,60,50,41
392.7023,392.92453,57,50,41
393.0356,393.25784,59,50,41
393.36896,393.69882,50,60,41
393.7023,394.03217,62,62,41
394.0356,394.19882,60,65,41
394.2023,394.36548,59,66,41
394.36896,395.03217,52,68,41
395.0356,395.19882,50,73,41
395.2023,395.36548,48,75,41
395.36896,396.03217,53,76,41
396.0356,396.19882,60,81,41
396.2023,396.36548,62,83,41
396.36896,397.03217,55,84,41
397.0356,397.19882,62,90,41
397.2023,397.36548,64,91,41
397.36896,398.03214,50,92,41
397.36896,398.03214,62,92,41
398.0356,398.19882,55,98,41
398.2023,398.36548,53,99,41
398.36896,399.03214,52,100,41
398.36896,399.03214,64,100,41
399.0356,399.19882,57,90,41
399.2023,399.36548,55,80,41
400.36896,400.69882,52,60,41
400.70227,401.03214,53,60,41
401.0356,401.36548,57,60,41
401.36896,401.69882,64,60,41
401.70227,402.03214,62,60,41
402.0356,402.36548,69,60,41
402.36896,402.69882,71,60,41
402.70227,403.03214,72,60,41
403.0356,403.19882,62,60,41
403.20227,403.36548,64,60,41
403.36896,403.69882,55,60,41
403.36896,403.69882,62,60,41
403.70227,404.03214,60,60,41
404.0356,404.19882,59,60,41
404.20227,404.36548,60,62,41
404.36896,404.69882,55,65,41
404.70227,405.03214,55,70,41
405.0356,405.36548,56,75,41
405.36896,405.53214,59,80,41
405.5356,405.69882,64,83,41
405.70227,406.03214,64,85,41
406.0356,406.36548,64,90,41
406.36896,406.69882,68,95,41
406.70227,407.03214,69,100,41
407.0356,407.36548,48,110,41
407.36896,407.6988,52,110,41
407.70227,408.03214,53,110,41
408.0356,408.36548,60,110,41
408.36896,408.6988,64,110,41
408.70227,409.03214,65,110,41
409.0356,409.36548,64,60,41
409.36896,409.6988,52,60,41
409.70227,410.03214,53,60,41
410.0356,410.36548,57,110,41
410.36896,410.6988,61,110,41
410.70227,411.03214,62,110,41
411.0356,411.1988,57,60,41
411.20227,411.36548,55,60,41
411.36893,411.53214,55,60,41
411.5356,411.6988,52,60,41
411.70227,411.9245,53,60,41
412.0356,412.1988,65,110,41
412.20227,412.36548,64,110,41
412.36893,412.53214,64,110,41
412.5356,412.6988,61,110,41
412.70227,412.9245,62,110,41
414.0356,414.1988,60,110,41
414.20227,414.36548,59,110,41
414.36893,414.53214,59,110,41
414.5356,414.6988,56,110,41
414.70227,414.9245,57,110,41
416.0356,416.2025,61,80,41
416.20605,416.37296,59,73,41
416.37653,416.54343,59,65,41
416.54697,416.71387,56,57,41
416.7174,416.9447,57,50,41
417.05832,417.22522,61,50,41
417.2288,417.3957,59,50,41
417.39923,418.41843,57,50,41
418.42197,418.58887,61,68,41
418.5924,418.75934,58,71,41
418.76288,418.99817,59,74,41
419.1158,419.2928,57,80,41
419.29654,419.4735,59,70,41
419.47726,419.64044,61,60,41
419.64392,419.80713,59,60,41
419.8106,419.9738,57,60,41
419.97726,420.14044,59,60,41
420.14392,420.30713,57,60,41
420.47726,420.64044,57,60,41
420.64392,420.80713,56,60,41
420.8106,420.9738,54,60,41
420.97726,421.14044,56,60,41
421.14392,421.30713,57,60,41
422.47726,422.64044,59,60,41
422.64392,422.80713,57,60,41
422.81058,422.9738,56,60,41
422.97726,423.14044,57,60,41
423.14392,423.30713,59,60,41
423.47726,423.64044,61,60,41
423.64392,423.80713,59,60,41
423.81058,423.9738,57,60,41
423.97726,424.14044,59,60,41
424.14392,424.30713,61,60,41
424.47726,424.80713,54,50,41
425.47726,425.80713,54,50,41
426.47726,426.80713,52,50,41
428.81058,428.9738,73,50,41
428.97726,429.14044,70,50,41
429.14392,429.36615,71,50,41
429.81058,429.9738,66,50,41
429.97726,430.14044,62,50,41
430.14392,430.36615,64,50,41
430.81058,430.9738,59,50,41
430.97726,431.14044,56,50,41
431.14392,431.36615,57,50,41
431.47726,432.14044,57,50,41
432.14392,432.3071,56,55,41
432.31058,432.4738,54,57,41
432.47723,432.64044,52,58,41
432.64392,432.8071,49,59,41
432.81058,433.0328,50,61,41
433.47723,433.64044,54,66,41
433.64392,433.8071,51,68,41
433.81058,434.0328,52,69,41
434.47723,434.64044,62,75,41
434.64392,434.8071,59,76,41
434.81058,435.0328,61,78,41
435.47723,435.64044,71,60,41
435.64392,435.8071,68,60,41
435.81058,436.14044,69,60,41
436.14392,436.4738,73,60,41
436.47723,437.14044,69,90,41
437.14392,437.3071,68,80,41
437.31058,437.4738,66,70,41
437.47723,437.64044,73,60,41
437.64392,437.8071,70,60,41
437.81058,438.14044,71,60,41
438.14392,438.4738,74,60,41
438.47723,439.14044,71,90,41
439.14392,439.3071,69,80,41
439.31058,439.47375,68,70,41
439.47723,439.8071,60,60,41
439.81058,440.14044,61,63,41
440.14392,440.47375,64,66,41
440.47723,440.8071,65,69,41
440.81058,441.14044,66,72,41
441.14392,441.47375,61,75,41
441.47723,441.80347,49,78,41
441.80692,442.13315,50,82,41
442.13657,442.46283,54,85,41
442.46625,442.78894,58,88,41
442.79233,443.11502,59,91,41
443.1184,443.4411,52,94,41
443.44452,443.7672,56,100,41
443.7706,444.0933,57,100,41
444.09668,445.07153,66,60,41
445.07495,446.0498,64,60,41
446.0532,446.21283,56,84,41
446.21625,446.3759,57,88,41
446.37927,446.53894,57,92,41
446.54233,446.70197,52,96,41
446.70535,446.92276,56,100,41
447.03146,447.1911,52,110,41
447.1945,447.35416,50,110,41
447.35754,447.51718,50,110,41
447.52057,447.68024,52,110,41
447.68362,447.901,49,110,41
448.98798,449.1476,57,50,41
449.151,449.31067,56,50,41
449.31406,449.4737,56,50,41
449.4771,449.63675,53,50,41
449.64014,449.85754,54,50,41
450.9445,451.10413,59,50,41
451.1075,451.26718,57,50,41
451.27057,451.4302,57,50,41
451.43362,451.59326,54,50,41
451.59665,451.81406,56,50,41
451.92273,452.0824,57,50,41
452.0858,452.24542,56,50,41
452.24884,452.40848,56,50,41
452.41187,452.57153,52,50,41
452.57492,452.7923,54,50,41
452.901,453.06064,54,50,41
453.06406,453.2237,56,50,41
453.22708,453.38672,56,50,41
453.39014,453.54977,59,50,41
453.55316,453.77057,57,50,41
453.87927,454.0389,59,50,41
454.0423,454.20193,57,50,41
454.20535,454.365,57,50,41
454.36838,454.52805,54,50,41
454.53143,454.7488,56,50,41
454.8575,455.01715,59,50,41
455.02057,455.1802,61,50,41
455.1836,455.3468,61,50,41
455.35028,455.51346,64,50,41
455.51694,455.73917,62,50,41
455.85028,456.18762,52,60,41
456.1912,456.52853,56,67,41
456.53207,456.88135,59,74,41
456.88504,457.06198,64,82,41
457.06577,457.2427,62,86,41
457.24646,457.43005,61,89,41
457.43396,457.61755,59,93,41
457.62146,457.8313,57,97,41
457.83575,458.25986,56,100,41
458.26434,460.72342,56,110,41
461.4786,462.1569,62,60,41
462.16043,462.32733,61,60,41
462.3309,462.4978,59,60,41
462.50134,462.66824,59,60,41
462.67178,462.8387,56,60,41
462.84225,463.06952,57,60,41
463.52408,464.20233,66,90,41
464.2059,464.3728,64,80,41
464.37634,464.54324,62,70,41
464.54678,464.7137,62,60,41
464.71725,464.88416,59,60,41
464.8877,465.115,61,60,41
465.56952,466.2478,76,83,41
466.25134,466.41824,74,73,41
466.42178,466.5887,73,75,41
467.615,468.29324,64,104,41
468.29678,468.46368,62,98,41
468.46725,468.63416,61,100,41
468.6377,468.8105,59,110,41
468.81418,468.98697,56,110,41
468.99063,469.22595,57,110,41
470.07153,470.26736,62,110,41
470.2715,470.48135,59,110,41
470.4858,470.7715,61,110,41
470.9144,471.15918,56,60,41
471.1644,471.5316,59,60,41
471.5394,472.0394,57,60,41
0.0,0.34520328,44,50,42
0.348837,0.67869776,45,51,42
0.68217,1.0120308,49,53,42
1.015503,1.3453637,49,55,42
1.348836,1.6786968,50,57,42
1.682169,2.01203,54,59,42
2.015502,2.3453627,46,61,42
2.348835,2.6786957,47,63,42
2.682168,3.0120287,51,65,42
3.015501,3.3453617,51,67,42
3.348834,3.6786947,52,69,42
3.682167,4.0120277,56,70,42
6.015498,6.345359,46,60,42
6.348831,6.678692,47,60,42
6.682164,7.012025,50,60,42
7.015497,7.345358,51,60,42
7.34883,7.678691,52,60,42
7.682163,8.012024,56,60,42
11.015493,11.345354,51,50,42
11.348826,11.686184,52,50,42
11.689735,12.039,56,50,42
12.042676,12.372537,39,50,42
12.376009,12.70587,40,50,42
12.709342,13.039203,44,50,42
13.042675,13.372536,44,50,42
13.376008,13.705869,45,50,42
13.709341,14.039202,49,50,42
19.709335,19.931557,52,90,42
20.042667,20.26489,47,95,42
20.376001,20.598223,59,100,42
20.709333,20.944628,47,110,42
21.062275,21.312275,47,110,42
21.437275,21.687275,52,110,42
22.187275,22.53654,44,60,42
22.540216,22.870077,45,60,42
22.873549,23.20341,49,60,42
23.206882,23.536743,49,60,42
23.540215,23.870075,50,60,42
23.873549,24.20341,54,60,42
24.20688,24.536741,46,60,42
24.540215,24.870075,47,60,42
24.873547,25.203407,51,60,42
25.20688,25.536741,51,60,42
25.540213,25.870073,52,60,42
25.873547,26.203407,56,60,42
28.206877,28.536737,46,60,42
28.54021,28.870071,47,60,42
28.873543,29.203403,50,60,42
29.206877,29.536737,51,60,42
29.540209,29.87007,52,60,42
29.873543,30.203403,56,60,42
33.20687,33.53673,51,50,42
33.540203,33.877563,52,50,42
33.881115,34.230377,56,50,42
34.234055,34.563915,39,50,42
34.567387,34.897247,40,50,42
34.900723,35.230583,44,50,42
35.234055,35.563915,44,50,42
35.567387,35.897247,45,50,42
35.90072,36.23058,49,50,42
41.900715,42.122936,52,90,42
42.234047,42.45627,47,95,42
42.56738,42.7896,59,100,42
42.900715,43.127987,47,110,42
43.241623,43.478333,47,110,42
43.598816,43.83978,52,110,42
43.96026,44.309525,43,60,42
44.3132,44.643063,42,60,42
44.646534,44.976395,43,60,42
44.979866,45.309727,47,60,42
45.3132,45.643063,47,60,42
45.646534,45.976395,48,60,42
45.979866,46.309727,52,60,42
47.313198,47.64306,47,60,42
47.64653,47.98389,48,60,42
47.98744,48.336704,61,60,42
48.34038,48.670242,53,60,42
48.673714,49.003574,55,60,42
49.007046,49.336906,59,60,42
49.34038,50.003574,64,90,42
50.007046,50.17024,62,80,42
50.173714,50.336906,60,70,42
50.340378,50.503574,60,60,42
50.507046,50.67024,57,60,42
50.673714,50.895935,59,60,42
51.340378,52.00357,64,90,42
52.007046,52.17024,62,80,42
52.17371,52.336906,60,70,42
52.340378,53.011066,58,92,42
53.014618,53.187412,57,92,42
53.19109,53.363884,55,100,42
53.36756,54.002533,45,110,42
54.005856,54.162106,43,110,42
54.16543,54.32168,41,110,42
54.325005,54.481255,39,110,42
54.484577,54.640827,36,110,42
54.644154,54.85692,38,110,42
55.282448,55.59827,41,110,42
55.601597,55.91742,43,110,42
55.920746,56.23657,46,110,42
56.23989,56.555714,47,110,42
56.55904,56.874863,48,110,42
56.87819,57.03444,50,60,42
57.03776,57.19401,52,60,42
57.197334,57.51316,52,60,42
57.516483,57.832306,53,60,42
57.835632,58.151455,57,60,42
58.15478,58.789753,58,60,42
58.793076,58.949326,55,74,42
58.95265,59.1089,53,78,42
59.112225,59.747196,52,82,42
59.75052,59.90677,50,97,42
59.910095,60.066345,48,100,42
60.069668,60.545067,53,110,42
60.54839,60.70464,52,110,42
60.707966,60.864212,50,110,42
60.86754,61.02379,48,110,42
61.02711,61.18336,46,110,42
61.186687,61.342934,45,110,42
61.34626,61.509453,43,110,42
61.512928,61.67612,41,110,42
61.679592,62.024796,48,110,42
65.70267,65.937965,43,50,42
66.05561,66.2188,45,60,42
66.222275,66.38547,42,61,42
66.38895,66.61117,43,62,42
67.05561,67.2188,45,68,42
67.222275,67.38547,42,69,42
67.38894,67.61116,43,70,42
68.05561,68.21701,45,76,42
68.22044,68.38184,42,77,42
68.38528,68.60506,43,79,42
69.04462,69.20426,45,84,42
69.207664,69.36731,42,85,42
69.370705,69.5881,43,87,42
70.02287,70.657845,65,92,42
70.66117,70.81742,64,98,42
70.82075,70.977,62,99,42
70.98032,71.61529,67,100,42
71.618614,71.78181,65,90,42
71.785286,71.94848,64,80,42
71.95195,72.28181,47,60,42
72.28528,72.61514,48,60,42
72.618614,72.94848,52,60,42
73.95195,74.28181,61,60,42
74.28528,74.61514,62,60,42
74.618614,74.94847,65,60,42
74.95194,75.61514,67,60,42
75.618614,75.78181,65,60,42
75.78528,75.94847,64,60,42
75.95194,76.615135,55,60,42
76.618614,76.78181,53,60,42
76.78528,76.94847,52,62,42
76.95194,77.28181,47,65,42
77.28528,77.615135,48,70,42
77.61861,77.94847,52,75,42
77.95194,78.28181,56,80,42
78.28528,78.615135,57,85,42
79.61861,79.94847,36,110,42
79.95194,80.2818,40,110,42
80.28527,80.615135,41,110,42
81.61861,81.94846,60,60,42
81.95194,82.2818,64,60,42
82.28527,82.615135,65,60,42
82.61861,82.94846,61,110,42
82.951935,83.2818,64,110,42
83.28527,83.615135,65,110,42
84.61861,84.7818,53,110,42
84.78527,84.94846,52,110,42
84.951935,85.11513,52,110,42
85.1186,85.2818,49,110,42
85.28527,85.50749,50,110,42
86.6186,86.78179,48,110,42
86.78527,86.94846,47,110,42
86.951935,87.11513,47,110,42
87.1186,87.28179,44,110,42
87.28527,87.50749,45,110,42
88.6299,88.79872,49,80,42
88.802315,88.97113,47,73,42
88.974724,89.14752,47,65,42
89.1512,89.32399,44,57,42
89.32767,89.56296,45,50,42
89.68061,89.8534,49,50,42
89.85708,90.02987,47,50,42
90.03355,90.200455,62,50,42
90.204,90.37091,59,53,42
90.37446,90.60173,61,56,42
90.71537,90.88227,63,62,42
90.88582,91.05273,66,65,42
91.056274,91.71947,56,68,42
91.72294,92.0528,57,80,42
92.056274,92.38614,44,60,42
92.38961,92.71947,45,60,42
92.72294,93.0528,49,60,42
93.056274,93.38613,49,60,42
93.38961,93.71947,50,60,42
93.72294,94.0528,54,60,42
94.056274,94.38613,46,60,42
94.3896,94.71947,47,60,42
94.72294,95.0528,50,60,42
95.056274,95.38613,51,60,42
95.3896,95.71947,52,60,42
95.72294,96.052795,56,60,42
97.3896,97.552795,56,50,42
97.55627,97.71947,53,50,42
97.72294,97.94516,54,50,42
98.3896,98.552795,49,50,42
98.55627,98.71946,46,50,42
98.72294,98.94516,47,50,42
99.3896,99.552795,54,50,42
99.55627,99.71946,51,50,42
99.72293,99.94515,52,50,42
100.05627,100.38613,53,50,42
100.3896,100.71946,54,50,42
100.72293,101.052795,57,50,42
101.05627,101.38612,58,50,42
101.3896,101.71946,59,50,42
101.72293,102.052795,62,50,42
102.05627,102.38612,54,50,42
102.389595,102.71946,56,50,42
102.72293,103.052795,59,50,42
103.05627,103.38612,44,50,42
103.389595,103.71946,45,50,42
103.72293,104.05279,49,50,42
104.05627,104.71946,45,50,42
104.72293,104.88612,44,55,42
104.889595,105.05279,42,57,42
105.05626,105.21946,40,58,42
105.22293,105.38612,37,59,42
105.389595,105.61182,38,61,42
106.05626,106.21945,42,66,42
106.22293,106.38612,39,68,42
106.389595,106.61182,40,69,42
107.05626,107.21945,50,75,42
107.22292,107.38612,47,76,42
107.389595,107.61182,49,78,42
109.05626,109.386116,61,60,42
109.38959,109.71945,62,60,42
109.72292,110.05279,66,60,42
111.05626,111.386116,63,60,42
111.38959,111.71945,64,60,42
111.72292,112.05278,68,60,42
112.05625,112.386116,48,60,42
112.38959,112.71945,49,63,42
112.72292,113.05278,52,66,42
113.05625,113.386116,53,69,42
113.38959,113.719444,54,72,42
113.72292,114.05278,57,75,42
114.05625,114.38249,37,78,42
114.385925,114.71216,38,82,42
114.71559,115.04183,42,85,42
115.045265,115.36795,46,88,42
115.371346,115.69404,47,91,42
115.69743,116.02013,40,94,42
116.02352,116.34621,44,100,42
116.34961,116.672295,45,100,42
116.67569,116.83534,66,60,42
116.83874,116.99838,64,60,42
117.00178,117.16142,64,60,42
117.164825,117.32447,61,60,42
117.327866,117.54526,62,60,42
117.65395,117.8136,64,60,42
117.81699,117.97664,62,64,42
117.980034,118.13969,62,68,42
118.14308,118.30273,59,72,42
118.30612,118.52351,61,76,42
118.63221,118.8496,40,84,42
118.9583,119.18052,40,92,42
119.291626,119.5189,52,100,42
119.63254,119.86783,40,110,42
119.98548,120.2287,40,110,42
120.3537,120.6037,45,110,42
120.7287,121.077965,45,60,42
121.08164,121.4115,44,60,42
121.41498,121.744835,45,60,42
121.74831,122.07817,48,60,42
122.08164,122.4115,47,60,42
122.41497,122.744835,48,60,42
122.74831,123.07817,52,60,42
123.08164,123.4115,42,60,42
123.41497,123.744835,43,60,42
123.74831,124.07816,48,60,42
124.08164,124.4115,47,60,42
124.41497,124.744835,48,60,42
124.74831,125.07816,52,60,42
126.081635,126.4115,47,60,42
126.41497,126.74483,48,60,42
126.74831,127.07816,60,60,42
127.081635,127.4115,53,60,42
127.41497,127.74483,55,60,42
127.7483,128.07816,59,60,42
128.08163,128.74483,64,90,42
128.7483,128.9115,62,80,42
128.91496,129.07816,60,70,42
129.08163,129.24483,60,60,42
129.2483,129.4115,57,60,42
129.41496,129.63719,59,60,42
130.08163,130.74483,64,90,42
130.74829,130.9115,62,80,42
130.91496,131.07816,60,70,42
131.08163,131.74483,58,92,42
131.74829,131.9115,57,92,42
131.91496,132.07816,55,100,42
132.08163,132.74483,45,110,42
132.74829,132.91148,43,110,42
132.91496,133.07816,41,110,42
133.08163,133.24483,39,110,42
133.24829,133.41148,36,110,42
133.41496,133.63719,38,110,42
134.08163,134.41148,41,110,42
134.41496,134.74483,43,110,42
134.74829,135.07816,46,110,42
135.08163,135.41148,47,110,42
135.41496,135.74483,48,110,42
135.74829,135.91148,50,60,42
135.91496,136.07816,52,60,42
136.08162,136.41148,52,60,42
136.41496,136.74483,53,60,42
136.74829,137.07816,57,60,42
137.08162,137.74481,58,60,42
137.74829,137.91148,55,74,42
137.91496,138.07816,53,78,42
138.08162,138.74481,52,82,42
138.74829,138.91148,50,97,42
138.91496,139.07816,48,100,42
139.08162,139.57816,53,110,42
139.58162,139.74481,52,110,42
139.74829,139.91148,50,110,42
139.91496,140.07816,48,110,42
140.08162,140.24481,46,110,42
140.24829,140.41148,45,110,42
140.41496,140.57816,43,110,42
140.58162,140.74481,41,110,42
140.74829,141.07816,48,110,42
144.75586,144.99115,43,50,42
145.1088,145.272,45,60,42
145.27547,145.43866,42,61,42
145.44214,145.66435,43,62,42
146.1088,146.27199,45,68,42
146.27547,146.43866,42,69,42
146.44214,146.66435,43,70,42
147.1088,147.27199,45,76,42
147.27547,147.43866,42,77,42
147.44214,147.66435,43,79,42
148.1088,148.27199,45,84,42
148.27547,148.43866,42,85,42
148.44214,148.66435,43,87,42
149.1088,149.77199,65,92,42
149.77547,149.93866,64,98,42
149.94212,150.10533,62,99,42
150.1088,150.77199,67,100,42
150.77547,150.93866,65,90,42
150.94212,151.10532,64,80,42
151.1088,151.43866,47,60,42
151.44212,151.77199,48,60,42
151.77547,152.10532,52,60,42
153.1088,153.43866,61,60,42
153.44212,153.77199,62,60,42
153.77547,154.10532,65,60,42
154.1088,154.77199,67,60,42
154.77545,154.93866,65,60,42
154.94212,155.10532,64,60,42
155.1088,155.77199,55,60,42
155.77545,155.93864,53,60,42
155.94212,156.10532,52,62,42
156.1088,156.43864,47,65,42
156.44212,156.77199,48,70,42
156.77545,157.10532,52,75,42
157.1088,157.43864,56,80,42
157.44212,157.77199,57,85,42
158.77545,159.10532,36,110,42
159.10878,159.43147,40,110,42
159.43488,159.75757,41,110,42
160.73921,161.06908,60,60,42
161.07256,161.4024,64,60,42
161.40588,161.73575,65,60,42
161.73921,162.0619,61,110,42
162.0653,162.38799,64,110,42
162.39139,162.71408,65,110,42
163.71747,163.88066,53,110,42
163.88414,164.04733,52,110,42
164.05081,164.214,52,110,42
164.21747,164.38066,49,110,42
164.38414,164.60637,50,110,42
165.71747,165.88066,48,110,42
165.88414,166.04733,47,110,42
166.05081,166.214,47,110,42
166.21747,166.38066,44,110,42
166.38414,166.60635,45,110,42
167.73262,167.89952,49,80,42
167.90308,168.06998,47,73,42
168.07353,168.24632,47,65,42
168.25,168.42279,44,57,42
168.42647,168.66176,45,50,42
168.77942,168.94261,49,50,42
168.94608,169.10927,47,50,42
169.11275,169.27594,62,50,42
169.27942,169.44261,59,53,42
169.44608,169.6683,61,56,42
169.77942,169.94261,63,62,42
169.94608,170.10927,66,65,42
170.11275,170.77594,56,68,42
170.7794,171.10927,57,80,42
171.11275,171.44261,44,60,42
171.44608,171.77594,45,60,42
171.7794,172.10927,49,60,42
172.11275,172.4426,49,60,42
172.44608,172.77594,50,60,42
172.7794,173.10927,54,60,42
173.11275,173.4426,46,60,42
173.44608,173.77594,47,60,42
173.7794,174.10927,50,60,42
174.11275,174.4426,51,60,42
174.44608,174.77594,52,60,42
174.7794,175.10927,56,60,42
176.44608,176.60927,56,50,42
176.61273,176.77592,53,50,42
176.7794,177.00163,54,50,42
177.44608,177.60927,49,50,42
177.61273,177.77592,46,50,42
177.7794,178.00163,47,50,42
178.44608,178.60927,54,50,42
178.61273,178.77592,51,50,42
178.7794,179.00162,52,50,42
179.11273,179.4426,53,50,42
179.44608,179.77592,54,50,42
179.7794,180.10927,57,50,42
180.11273,180.4426,58,50,42
180.44606,180.77592,59,50,42
180.7794,181.10927,62,50,42
181.11273,181.4426,54,50,42
181.44606,181.77592,56,50,42
181.7794,182.10925,59,50,42
182.11273,182.4426,44,50,42
182.44606,182.77592,45,50,42
182.7794,183.10925,49,50,42
183.11273,183.77592,45,50,42
183.7794,183.9426,44,55,42
183.94606,184.10925,42,57,42
184.11273,184.27592,40,58,42
184.2794,184.4426,37,59,42
184.44606,184.66829,38,61,42
185.11273,185.27592,42,66,42
185.27939,185.4426,39,68,42
185.44606,185.66829,40,69,42
186.11273,186.27592,50,75,42
186.27939,186.4426,47,76,42
186.44606,186.66829,49,78,42
188.11273,188.44258,61,60,42
188.44606,188.77592,62,60,42
188.77939,189.10925,66,60,42
190.11273,190.44258,63,60,42
190.44606,190.77592,64,60,42
190.77939,191.10925,68,60,42
191.11272,191.44258,48,60,42
191.44606,191.77592,49,63,42
191.77939,192.10925,52,66,42
192.11272,192.44258,53,69,42
192.44606,192.77591,54,72,42
192.77939,193.10925,57,75,42
193.11272,193.44258,37,78,42
193.44606,193.77591,38,82,42
193.77939,194.10925,42,85,42
194.11272,194.44258,46,88,42
194.44606,194.77591,47,91,42
194.77939,195.10925,40,94,42
195.11272,195.44258,44,100,42
195.44604,195.77591,45,100,42
195.77939,195.94258,66,60,42
195.94604,196.10925,64,60,42
196.11272,196.27591,64,60,42
196.27939,196.44258,61,60,42
196.44604,196.66827,62,60,42
196.77939,196.94258,64,60,42
196.94604,197.10924,62,64,42
197.11272,197.27591,62,68,42
197.27939,197.44258,59,72,42
197.44604,197.66827,61,76,42
197.77939,197.99678,40,84,42
198.10547,198.32286,40,92,42
198.43155,198.64894,52,100,42
198.75764,198.97504,40,110,42
199.08372,199.30112,40,110,42
199.40982,199.6272,45,110,42
200.71416,200.87735,61,50,42
200.88083,201.04402,59,50,42
201.04749,201.21068,59,50,42
201.21416,201.37735,56,50,42
201.38083,201.60304,57,50,42
202.71416,202.87735,68,50,42
202.88083,203.04402,66,50,42
203.04749,203.21068,66,50,42
203.21416,203.37735,63,50,42
203.38083,203.60304,64,50,42
203.71416,203.87735,66,50,42
203.88081,204.04402,64,50,42
204.04749,204.21068,64,50,42
204.21416,204.37735,61,50,42
204.38081,204.60304,63,50,42
204.71416,204.87735,51,50,42
204.88081,205.04402,52,50,42
205.04749,205.21068,52,50,42
205.21416,205.37735,56,50,42
205.38081,205.60304,54,50,42
205.71416,205.87735,68,50,42
205.88081,206.044,66,50,42
206.04749,206.21068,66,50,42
206.21416,206.37735,63,50,42
206.38081,206.60304,64,50,42
206.71416,206.87735,56,50,42
206.88081,207.044,57,50,42
207.04749,207.21068,57,50,42
207.21416,207.37735,61,50,42
207.38081,207.60304,59,50,42
207.71416,208.044,40,60,42
208.04749,208.37735,44,67,42
208.38081,208.71817,47,74,42
208.72173,208.88863,52,82,42
208.89218,209.05908,50,86,42
209.06264,209.22954,49,89,42
209.2331,209.40588,47,93,42
209.40956,209.59315,45,97,42
209.59706,209.96815,44,100,42
209.97206,212.40436,44,110,42
213.15956,213.83783,66,60,42
213.84138,214.00829,64,60,42
214.01183,214.17874,62,60,42
214.18228,214.3492,62,60,42
214.35274,214.51964,59,60,42
214.5232,214.75047,61,60,42
215.20502,215.88329,62,90,42
215.88683,216.05374,61,80,42
216.05728,216.22418,59,70,42
216.22774,216.39464,59,60,42
216.3982,216.5651,56,60,42
216.56865,216.79593,57,60,42
218.2732,218.95146,64,92,42
218.95502,219.12192,62,86,42
219.12547,219.29237,61,88,42
219.29593,219.97418,52,101,42
219.97774,220.14464,50,98,42
220.1482,220.3151,49,100,42
220.31865,220.48555,47,110,42
220.4891,220.656,44,110,42
220.65956,220.88683,45,110,42
221.72841,221.92424,59,110,42
221.9284,222.12424,56,110,42
222.1284,222.41412,57,110,42
222.55698,222.90698,52,60,42
223.10698,223.50697,45,60,42
237.97363,238.13683,45,60,42
238.1403,238.3035,49,60,42
238.30696,238.47015,52,60,42
238.47363,238.63683,57,60,42
238.6403,238.8035,61,60,42
238.80696,238.97015,64,60,42
238.97363,247.04391,45,60,42
247.04759,247.27487,53,50,42
247.3885,247.61073,53,50,42
247.72185,247.94406,53,50,42
248.05518,248.27739,54,50,42
248.3885,248.61073,54,50,42
248.72183,248.94406,54,50,42
249.05518,249.27739,51,50,42
249.3885,249.61073,51,50,42
249.72183,249.94406,51,50,42
250.05518,250.27739,52,50,42
250.3885,250.61073,52,50,42
250.72183,250.94406,52,50,42
251.05518,251.27739,54,50,42
251.3885,251.61073,54,50,42
251.72183,251.94406,54,50,42
252.05518,252.27739,54,50,42
252.3885,252.61072,56,50,42
252.72183,252.94406,56,50,42
253.05518,253.27739,57,50,42
253.3885,253.61072,59,50,42
253.72183,253.94406,59,50,42
254.05516,254.27739,47,50,42
254.3885,254.61072,52,50,42
254.72183,254.94406,52,50,42
255.05516,255.27739,53,50,42
255.3885,255.61072,53,50,42
255.72183,255.94406,53,50,42
256.05518,256.27737,57,50,42
256.3885,256.61072,57,50,42
256.72183,256.94406,57,50,42
257.05518,257.27737,51,50,42
257.3885,257.61072,51,50,42
257.72183,257.94406,51,50,42
258.05518,258.27737,56,50,42
258.3885,258.61072,56,50,42
258.72183,258.94406,52,50,42
259.05518,259.27737,45,50,42
259.3885,259.61072,58,52,42
259.72183,259.94406,58,55,42
260.05518,260.21835,59,58,42
260.22183,260.385,58,59,42
260.3885,260.5517,59,61,42
260.55518,260.71835,61,62,42
260.72183,260.885,62,64,42
260.8885,261.0517,59,65,42
261.05515,261.27737,44,66,42
261.3885,261.61072,56,69,42
261.72183,261.94406,56,72,42
262.05515,262.21835,57,75,42
262.22183,262.385,56,76,42
262.3885,262.5517,57,78,42
262.55515,262.71835,59,79,42
262.72183,262.885,61,80,42
262.8885,263.0517,57,70,42
263.05515,263.27737,64,60,42
263.3885,263.61072,64,60,42
263.72183,263.94406,64,60,42
264.05515,264.27737,63,60,42
264.3885,264.61072,63,60,42
264.72183,264.94403,63,60,42
265.05515,265.27737,64,60,42
265.3885,265.61072,64,60,42
265.72183,265.94403,64,60,42
266.05515,266.27737,59,60,42
266.3885,266.61072,59,60,42
266.72183,266.94403,59,60,42
267.05515,267.27737,64,60,42
267.3885,267.61072,64,60,42
267.72183,267.94403,64,60,42
268.05515,268.27737,63,60,42
268.3885,268.61072,63,60,42
268.72183,268.94403,63,60,42
269.05515,269.27737,64,60,42
269.3885,269.61072,64,60,42
269.72183,269.94403,64,60,42
270.05515,270.27737,59,60,42
270.3885,270.61072,59,60,42
270.72183,270.94403,59,60,42
271.05515,271.27737,65,60,42
271.3885,271.61072,65,60,42
271.7218,271.94403,65,60,42
272.05515,272.27737,69,60,42
272.3885,272.61072,69,60,42
272.7218,272.94403,69,60,42
273.05515,273.27737,63,60,42
273.3885,273.61072,63,60,42
273.7218,273.94403,63,60,42
274.05515,274.27737,68,60,42
274.3885,274.6107,68,60,42
274.7218,274.94403,68,60,42
275.05515,275.27737,66,60,42
275.3885,275.6107,66,60,42
275.7218,275.94403,66,60,42
276.05515,276.27737,66,60,42
276.3885,276.6107,68,60,42
276.7218,276.94403,56,60,42
277.05515,277.27737,57,60,42
277.3885,277.6107,59,60,42
277.7218,277.94403,59,60,42
278.05515,278.27737,59,60,42
278.3885,278.6107,52,60,42
278.7218,278.94403,44,60,42
279.05515,279.27737,46,63,42
279.3885,279.6107,58,66,42
279.7218,279.94403,58,70,42
281.05515,281.27737,44,84,42
281.38846,281.6107,56,87,42
281.7218,281.94403,56,90,42
283.05515,283.27737,57,60,42
283.38846,283.6107,57,60,42
283.7218,283.94403,57,60,42
284.05515,284.27737,52,60,42
284.38846,284.6107,52,60,42
284.7218,284.94403,52,60,42
285.05515,285.27734,45,60,42
285.38846,285.6107,45,60,42
285.7218,285.94403,45,60,42
286.05515,286.27734,52,60,42
286.38846,286.6107,52,60,42
286.7218,286.94403,52,60,42
287.05515,287.27734,45,60,42
287.38846,287.6107,45,60,42
287.7218,287.94403,45,60,42
288.05515,288.27734,40,60,42
288.38846,288.6107,40,60,42
288.7218,288.94403,40,60,42
289.05515,289.27734,45,60,42
289.38846,289.6107,45,60,42
289.7218,289.94403,45,60,42
290.05515,290.27734,52,60,42
290.38846,290.61572,52,60,42
290.72937,290.96466,52,60,42
291.0823,291.2551,66,60,42
291.2588,291.43158,65,60,42
291.43524,291.59845,66,60,42
291.60193,291.7651,64,60,42
291.7686,291.9318,62,60,42
291.93524,292.09845,61,60,42
294.10193,294.2651,61,60,42
294.2686,294.4318,59,60,42
294.43524,294.59845,61,60,42
294.60193,294.7651,59,60,42
294.7686,294.9318,57,60,42
294.93524,295.09845,61,60,42
299.10193,299.32413,46,60,42
299.43524,299.65747,46,60,42
299.7686,299.9908,46,60,42
300.10193,300.32413,50,60,42
300.43524,300.65747,50,60,42
300.7686,300.9908,50,60,42
301.1019,301.32413,44,60,42
301.43524,301.65747,44,62,42
301.7686,301.9908,44,64,42
302.1019,302.32413,49,67,42
302.43524,302.65747,49,69,42
302.7686,302.9908,49,71,42
303.1019,303.32413,54,74,42
303.43524,303.65747,54,76,42
303.7686,303.99078,54,78,42
304.1019,304.32413,50,81,42
304.43524,304.65747,49,83,42
304.7686,304.99078,49,85,42
305.1019,305.32413,50,88,42
305.43524,305.65747,52,90,42
305.7686,305.99078,52,92,42
306.1019,306.32413,52,95,42
306.43524,306.65747,57,97,42
306.7686,306.99585,57,99,42
307.1095,307.33676,54,110,42
307.45038,307.67767,54,110,42
307.7913,308.03027,50,110,42
308.15527,308.4141,50,110,42
308.53174,308.75397,49,60,42
308.86508,309.0873,49,60,42
309.1984,309.42062,50,60,42
309.53174,309.759,52,60,42
309.87265,310.10794,52,60,42
310.2256,310.47977,40,60,42
310.6131,310.8988,45,60,42
311.04166,311.32736,37,110,42
311.47025,311.75595,37,110,42
311.8988,312.85294,37,125,42
312.85626,313.81036,39,125,42
313.8137,314.02646,45,110,42
314.13284,314.3456,44,110,42
314.452,314.66476,42,110,42
314.77115,314.9839,44,110,42
315.09027,315.3125,44,110,42
315.4236,315.6589,44,110,42
315.77655,316.73068,48,125,42
316.734,317.6881,49,125,42
317.69144,317.9042,45,110,42
318.0106,318.22336,42,110,42
318.32974,318.5425,44,110,42
318.6489,318.86166,37,110,42
318.96805,319.19025,37,110,42
319.30136,319.53665,37,110,42
319.6543,320.70947,37,125,42
320.71313,321.70966,39,125,42
321.71313,321.93536,45,110,42
322.04648,322.26868,44,110,42
322.3798,322.60202,42,110,42
322.71313,322.93536,44,110,42
323.04648,323.28177,44,110,42
323.3994,323.6494,44,110,42
323.7744,324.26746,48,110,42
324.44107,324.9341,36,110,42
325.10773,325.6008,37,110,42
325.7744,326.26746,49,110,42
326.44107,326.6633,45,110,42
326.7744,326.9966,42,110,42
327.10773,327.32996,44,110,42
327.44107,327.6633,44,110,42
327.7744,327.9966,49,110,42
328.10773,328.3403,61,110,42
328.45657,330.86975,45,60,42
330.87323,331.03644,45,60,42
331.03992,331.2031,49,60,42
331.20657,331.36975,52,60,42
331.37323,331.53644,57,60,42
331.53992,331.7031,61,60,42
331.70657,331.86975,64,60,42
331.87323,344.89673,45,100,42
344.90042,345.084,45,50,42
345.08792,345.2715,49,50,42
345.27542,345.47125,52,50,42
345.4754,345.72018,57,50,42
345.7254,346.01917,61,50,42
346.02542,346.3926,64,50,42
346.40042,347.8926,45,50,42
349.40042,349.74966,44,50,42
349.75336,350.08322,45,52,42
350.08667,350.41653,49,55,42
350.42,350.74988,49,58,42
350.75336,351.08322,50,61,42
351.08667,351.41653,54,64,42
351.42,351.74988,46,60,42
351.75336,352.08322,47,60,42
352.08667,352.41653,51,60,42
352.42,352.74988,51,60,42
352.75336,353.08322,52,55,42
353.08667,353.41653,56,50,42
355.42,355.74988,46,60,42
355.75336,356.0832,47,60,42
356.08667,356.41653,50,60,42
356.42,356.74988,51,60,42
356.75333,357.0832,52,60,42
357.08667,357.41653,56,60,42
360.42,360.74988,51,50,42
360.75333,361.0832,52,50,42
361.08667,361.41653,56,50,42
361.42,361.74988,39,50,42
361.75333,362.0832,40,50,42
362.08667,362.41653,44,50,42
362.42,362.74988,44,50,42
362.75333,363.0832,45,50,42
363.08667,363.41653,49,50,42
369.08667,369.3089,52,90,42
369.41998,369.64728,47,95,42
369.7609,369.9882,59,100,42
370.1018,370.32907,47,110,42
370.44272,370.678,47,110,42
370.79565,371.03094,52,110,42
371.1486,371.49786,43,60,42
371.50156,371.83142,42,60,42
371.83487,372.16473,43,60,42
372.1682,372.49808,47,60,42
372.50156,372.8314,47,60,42
372.83487,373.16473,48,60,42
373.1682,373.49808,52,60,42
374.50156,374.8314,47,60,42
374.83487,375.17032,48,60,42
375.17386,375.52313,60,60,42
375.5268,375.85666,53,60,42
375.86014,376.19,55,60,42
376.19345,376.52332,59,60,42
376.5268,377.19,64,90,42
377.19345,377.35666,62,80,42
377.36014,377.52332,60,70,42
377.5268,377.69,60,60,42
377.69345,377.85666,57,60,42
377.86014,378.08237,59,60,42
378.5268,379.19,64,90,42
379.19345,379.35666,62,80,42
379.36014,379.52332,60,70,42
379.5268,380.19,58,92,42
380.19345,380.35666,57,92,42
380.36014,380.52332,55,100,42
380.5268,381.17557,45,110,42
381.17896,381.33862,43,110,42
381.342,381.50165,41,110,42
381.50507,381.6647,39,110,42
381.6681,381.82773,36,110,42
381.83115,382.04852,38,110,42
382.4833,382.806,41,110,42
382.8094,383.13208,43,110,42
383.13547,383.45816,46,110,42
383.46158,383.78427,47,110,42
383.78766,384.11035,48,110,42
384.11374,384.27338,50,60,42
384.2768,384.43643,52,60,42
384.43982,384.7625,52,60,42
384.7659,385.0886,53,60,42
385.092,385.41467,57,60,42
385.4181,386.06686,58,60,42
386.07025,386.2299,55,74,42
386.2333,386.39294,53,78,42
386.39633,387.0451,52,82,42
387.04852,387.20816,50,97,42
387.21155,387.37122,48,100,42
387.3746,387.86032,53,110,42
387.86374,388.02338,52,110,42
388.02676,388.18643,50,110,42
388.18982,388.34946,48,110,42
388.35284,388.5125,46,110,42
388.5159,388.67554,45,110,42
388.67896,388.84396,43,110,42
388.84747,389.0125,41,110,42
389.01602,389.3653,48,110,42
393.0356,393.25784,43,50,42
393.36896,393.53217,45,60,42
393.5356,393.69882,42,61,42
393.7023,393.9245,43,62,42
394.36896,394.53217,45,68,42
394.5356,394.69882,42,69,42
394.7023,394.9245,43,70,42
395.36896,395.53217,45,76,42
395.5356,395.69882,42,77,42
395.7023,395.9245,43,79,42
396.36896,396.53217,45,84,42
396.5356,396.69882,42,85,42
396.7023,396.9245,43,87,42
397.36896,398.03214,65,92,42
398.0356,398.19882,64,98,42
398.2023,398.36548,62,99,42
398.36896,399.03214,67,100,42
399.0356,399.19882,65,90,42
399.2023,399.36548,64,80,42
399.36896,399.69882,47,60,42
399.7023,400.03214,48,60,42
400.0356,400.36548,52,60,42
401.36896,401.69882,61,60,42
401.70227,402.03214,62,60,42
402.0356,402.36548,65,60,42
402.36896,403.03214,67,60,42
403.0356,403.19882,65,60,42
403.20227,403.36548,64,60,42
403.36896,404.03214,55,60,42
404.0356,404.19882,53,60,42
404.20227,404.36548,52,62,42
404.36896,404.69882,47,65,42
404.70227,405.03214,48,70,42
405.0356,405.36548,52,75,42
405.36896,405.69882,56,80,42
405.70227,406.03214,57,85,42
407.0356,407.36548,36,110,42
407.36896,407.6988,40,110,42
407.70227,408.03214,41,110,42
409.0356,409.36548,60,60,42
409.36896,409.6988,64,60,42
409.70227,410.03214,65,60,42
410.0356,410.36548,61,110,42
410.36896,410.6988,64,110,42
410.70227,411.03214,65,110,42
412.0356,412.1988,53,110,42
412.20227,412.36548,52,110,42
412.36893,412.53214,52,110,42
412.5356,412.6988,49,110,42
412.70227,412.9245,50,110,42
414.0356,414.1988,48,110,42
414.20227,414.36548,47,110,42
414.36893,414.53214,47,110,42
414.5356,414.6988,44,110,42
414.70227,414.9245,45,110,42
416.0356,416.2025,49,80,42
416.20605,416.37296,47,73,42
416.37653,416.54343,47,65,42
416.54697,416.71387,44,57,42
416.7174,416.9447,45,50,42
417.05832,417.22522,49,50,42
417.2288,417.3957,47,50,42
417.39923,417.56613,62,50,42
417.5697,417.7366,59,53,42
417.74014,417.9674,61,56,42
418.08105,418.24796,63,62,42
418.25153,418.41843,66,65,42
418.42197,419.11215,56,68,42
419.1158,419.4735,57,80,42
419.47726,419.80713,44,60,42
419.8106,420.14044,45,60,42
420.14392,420.4738,49,60,42
420.47726,420.80713,49,60,42
420.8106,421.14044,50,60,42
421.14392,421.4738,54,60,42
421.47726,421.80713,46,60,42
421.81058,422.14044,47,60,42
422.14392,422.4738,50,60,42
422.47726,422.80713,51,60,42
422.81058,423.14044,52,60,42
423.14392,423.4738,56,60,42
424.81058,424.9738,56,50,42
424.97726,425.14044,53,50,42
425.14392,425.36615,54,50,42
425.81058,425.9738,49,50,42
425.97726,426.14044,46,50,42
426.14392,426.36615,47,50,42
426.81058,426.9738,54,50,42
426.97726,427.14044,51,50,42
427.14392,427.36615,52,50,42
427.47726,427.80713,53,50,42
427.81058,428.14044,54,50,42
428.14392,428.4738,57,50,42
428.47726,428.8071,58,50,42
428.81058,429.14044,59,50,42
429.14392,429.4738,62,50,42
429.47726,429.8071,54,50,42
429.81058,430.14044,56,50,42
430.14392,430.4738,59,50,42
430.47726,430.8071,44,50,42
430.81058,431.14044,45,50,42
431.14392,431.4738,49,50,42
431.47726,432.14044,45,50,42
432.14392,432.3071,44,55,42
432.31058,432.4738,42,57,42
432.47723,432.64044,40,58,42
432.64392,432.8071,37,59,42
432.81058,433.0328,38,61,42
433.47723,433.64044,42,66,42
433.64392,433.8071,39,68,42
433.81058,434.0328,40,69,42
434.47723,434.64044,50,75,42
434.64392,434.8071,47,76,42
434.81058,435.0328,49,78,42
436.47723,436.8071,61,60,42
436.81058,437.14044,62,60,42
437.14392,437.4738,66,60,42
438.47723,438.8071,63,60,42
438.81058,439.14044,64,60,42
439.14392,439.47375,68,60,42
439.47723,439.8071,48,60,42
439.81058,440.14044,49,63,42
440.14392,440.47375,52,66,42
440.47723,440.8071,53,69,42
440.81058,441.14044,54,72,42
441.14392,441.47375,57,75,42
441.47723,441.80347,37,78,42
441.80692,442.13315,38,82,42
442.13657,442.46283,42,85,42
442.46625,442.78894,46,88,42
442.79233,443.11502,47,91,42
443.1184,443.4411,40,94,42
443.44452,443.7672,44,100,42
443.7706,444.0933,45,100,42
444.09668,444.25632,66,60,42
444.25974,444.41937,64,60,42
444.42276,444.5824,64,60,42
444.58582,444.74545,61,60,42
444.74884,444.96625,62,60,42
445.07495,445.2346,64,60,42
445.23798,445.3976,62,64,42
445.40103,445.56067,62,68,42
445.56406,445.72372,59,72,42
445.7271,445.9445,61,76,42
446.0532,446.2706,40,84,42
446.37927,446.59668,40,92,42
446.70535,446.92276,52,100,42
447.03146,447.24884,40,110,42
447.35754,447.57492,40,110,42
447.68362,447.901,45,110,42
448.98798,449.1476,61,50,42
449.151,449.31067,59,50,42
449.31406,449.4737,59,50,42
449.4771,449.63675,56,50,42
449.64014,449.85754,57,50,42
450.9445,451.10413,68,50,42
451.1075,451.26718,66,50,42
451.27057,451.4302,66,50,42
451.43362,451.59326,63,50,42
451.59665,451.81406,64,50,42
451.92273,452.0824,66,50,42
452.0858,452.24542,64,50,42
452.24884,452.40848,64,50,42
452.41187,452.57153,61,50,42
452.57492,452.7923,63,50,42
452.901,453.06064,51,50,42
453.06406,453.2237,52,50,42
453.22708,453.38672,52,50,42
453.39014,453.54977,56,50,42
453.55316,453.77057,54,50,42
453.87927,454.0389,68,50,42
454.0423,454.20193,66,50,42
454.20535,454.365,66,50,42
454.36838,454.52805,63,50,42
454.53143,454.7488,64,50,42
454.8575,455.01715,56,50,42
455.02057,455.1802,57,50,42
455.1836,455.3468,57,50,42
455.35028,455.51346,61,50,42
455.51694,455.73917,59,50,42
455.85028,456.18762,40,60,42
456.1912,456.52853,44,67,42
456.53207,456.88135,47,74,42
456.88504,457.06198,52,82,42
457.06577,457.2427,50,86,42
457.24646,457.43005,49,89,42
457.43396,457.61755,47,93,42
457.62146,457.8313,45,97,42
457.83575,458.25986,44,100,42
458.26434,460.72342,44,110,42
461.4786,462.1569,66,60,42
462.16043,462.32733,64,60,42
462.3309,462.4978,62,60,42
462.50134,462.66824,62,60,42
462.67178,462.8387,59,60,42
462.84225,463.06952,61,60,42
463.52408,464.20233,62,90,42
464.2059,464.3728,61,80,42
464.37634,464.54324,59,70,42
464.54678,464.7137,59,60,42
464.71725,464.88416,56,60,42
464.8877,465.115,57,60,42
466.59225,467.2705,64,92,42
467.27408,467.44098,62,86,42
467.44452,467.61142,61,88,42
467.615,468.29324,52,101,42
468.29678,468.46368,50,98,42
468.46725,468.63416,49,100,42
468.6377,468.8105,47,110,42
468.81418,468.98697,44,110,42
468.99063,469.22595,45,110,42
470.07153,470.26736,59,110,42
470.2715,470.48135,56,110,42
470.4858,470.7715,57,110,42
470.9144,471.2894,52,60,42
471.5394,472.0394,45,60,42
