start_time,end_time,note_value,velocity,instrument_program_number
0.0,0.33792418,72,1,40
0.8246164,2.0121164,60,60,40
2.0246165,3.3153765,69,60,40
3.3289633,4.47079,67,60,40
4.4828095,6.778482,72,60,40
6.7905016,7.932328,65,60,40
7.9443474,9.181327,67,60,40
9.194347,10.543778,65,60,40
10.557983,13.044963,65,60,40
13.057983,15.268631,65,60,40
15.280206,17.490852,64,60,40
17.502428,19.713076,62,60,40
19.72465,21.935297,64,60,40
21.94687,24.157518,65,100,40
24.169094,26.613699,67,100,40
26.627287,29.222393,65,88,40
29.235981,30.335518,81,71,40
30.347092,31.446629,74,60,40
31.458202,32.55774,76,60,40
32.569313,33.66885,77,60,40
33.680424,34.77996,79,60,40
34.791534,35.89107,77,60,40
35.902645,37.04447,76,60,40
37.05649,38.293472,67,60,40
38.30649,40.793472,67,60,40
40.80649,43.01714,69,68,40
43.028713,45.23936,72,76,40
45.250935,47.461586,69,84,40
47.47316,49.683807,67,92,40
49.69538,51.90603,65,100,40
51.917603,54.36221,62,90,40
54.375797,56.671467,64,84,40
61.29887,62.398407,67,60,40
62.40998,63.509518,60,60,40
63.521095,64.66292,62,60,40
64.67494,65.9657,64,60,40
65.97929,68.36678,64,60,40
68.37929,70.589935,72,60,40
70.60151,72.81216,71,68,40
72.82373,75.03438,72,76,40
75.04595,77.2566,69,85,40
77.26817,79.47882,71,93,40
79.490395,81.78607,72,102,40
81.79809,84.185585,62,110,40
81.79809,84.185585,74,110,40
84.19809,85.38559,79,86,40
85.39809,86.58559,72,71,40
86.59809,87.697624,74,60,40
87.7092,88.80874,76,60,40
88.82031,89.919846,77,60,40
89.93142,91.03096,76,60,40
91.042534,92.14207,71,60,40
92.15364,93.25318,72,60,40
93.264755,95.4754,72,60,40
95.48698,97.697624,72,60,40
97.7092,99.919846,74,70,40
99.93142,102.14207,67,80,40
102.15364,104.36429,69,90,40
104.37586,106.58651,62,100,40
106.59808,109.088844,64,100,40
109.10243,111.69754,65,91,40
111.71113,112.81066,72,60,40
112.822235,113.921776,81,60,40
113.93335,115.03288,76,60,40
115.044464,116.144,77,60,40
116.15557,117.25511,77,65,40
117.266685,118.40851,74,76,40
118.420525,119.65751,72,88,40
119.670525,121.01996,71,100,40
121.034164,123.74723,72,60,40
123.76144,126.057106,72,65,40
126.06913,128.3648,74,76,40
128.37682,130.6725,67,88,40
130.68451,133.1715,69,100,40
133.18451,135.48018,65,60,40
135.4922,137.78787,67,60,40
137.7999,140.14124,64,65,40
140.15375,141.39015,81,88,40
141.45808,142.87996,81,100,40
142.95808,146.04837,81,110,40
146.0692,146.27753,81,100,40
146.27753,146.3817,83,90,40
146.3817,146.48587,81,80,40
146.48587,146.59003,83,70,40
146.59003,146.6942,81,60,40
146.6942,146.79837,83,60,40
146.79837,146.90253,81,60,40
146.90253,146.97198,83,60,40
146.97198,147.04143,81,60,40
147.04143,147.11087,83,60,40
147.11087,147.18031,81,60,40
147.18031,147.24976,83,60,40
147.24976,147.3192,81,60,40
147.3192,147.38864,83,60,40
147.38864,147.45808,81,60,40
147.45808,147.52753,83,60,40
147.52753,147.59698,81,60,40
147.59698,147.66643,83,60,40
147.66643,147.73587,81,60,40
147.73587,147.80531,83,60,40
147.80531,147.87476,81,60,40
147.87476,147.9442,83,60,40
147.9442,148.01364,81,60,40
148.01364,148.08308,83,60,40
148.08308,148.15253,81,60,40
148.15253,148.22198,83,60,40
148.22198,148.29143,81,60,40
148.29143,148.36087,83,60,40
148.36087,148.43031,81,60,40
148.43031,148.49976,83,60,40
148.49976,148.5692,81,60,40
148.5692,148.63864,83,110,40
148.63864,148.70808,81,110,40
148.70808,148.77753,83,110,40
148.77753,148.84697,81,110,40
148.84697,148.91643,83,110,40
148.91643,148.98587,81,110,40
148.98587,149.05531,83,110,40
149.05531,149.12476,81,110,40
149.12476,149.1942,83,110,40
149.1942,149.26364,81,110,40
149.26364,149.33308,83,110,40
149.33308,149.40253,81,110,40
149.40253,149.47197,83,110,40
149.47197,149.54143,81,110,40
149.54143,149.61087,83,110,40
149.61087,149.68031,81,110,40
149.68031,149.74976,83,110,40
149.74976,149.8192,81,110,40
149.8192,149.88864,83,110,40
149.88864,149.95808,81,110,40
149.95808,150.02753,83,110,40
150.02753,150.09697,81,110,40
150.09697,150.16643,83,110,40
150.16643,150.23587,81,110,40
150.23587,150.30531,83,110,40
150.30531,150.37476,81,110,40
150.37476,150.4442,83,110,40
150.4442,150.51364,81,110,40
150.51364,150.58308,83,110,40
150.58308,150.65253,81,110,40
150.65253,150.72197,83,110,40
150.72197,150.79143,81,110,40
150.79143,150.86087,83,110,40
150.86087,150.93031,81,110,40
150.93031,150.99976,83,110,40
150.99976,151.0692,81,110,40
151.0692,151.13864,83,100,40
151.13864,151.20808,81,90,40
151.20808,151.27753,83,80,40
151.27753,151.34697,81,70,40
151.34697,151.41643,83,60,40
151.41643,151.48587,81,60,40
151.48587,151.55531,83,60,40
151.55531,151.62476,81,60,40
151.62476,151.6942,83,60,40
151.6942,151.76364,81,60,40
151.76364,151.83308,83,60,40
151.83308,151.90253,81,60,40
151.90253,151.97197,83,60,40
151.97197,152.04143,81,60,40
152.04143,152.11087,83,60,40
152.11087,152.18031,81,60,40
152.18031,152.24976,83,60,40
152.24976,152.3192,81,60,40
152.3192,152.38864,83,60,40
152.38864,152.45808,81,60,40
152.45808,152.52753,83,60,40
152.52753,152.59697,81,60,40
152.59697,152.66641,83,60,40
152.66641,152.73587,81,60,40
152.73587,152.80531,83,60,40
152.80531,152.87476,81,60,40
152.87476,152.9442,83,60,40
152.9442,153.01364,81,60,40
153.01364,153.08308,83,60,40
153.08308,153.15253,81,60,40
153.15253,153.22197,83,60,40
153.22197,153.29141,81,60,40
153.29141,153.43031,79,60,40
153.43031,153.56052,81,60,40
153.5692,153.9685,83,110,40
154.40253,154.80183,55,110,40
155.23587,156.06052,83,110,40
156.48587,156.88516,81,60,40
157.11086,157.24976,81,60,40
157.3192,157.45808,83,60,40
157.52753,157.66641,85,60,40
157.73586,157.87476,86,60,40
157.9442,158.08308,88,60,40
158.15253,158.29141,90,60,40
158.36086,158.49976,91,60,40
158.5692,159.39384,93,65,40
159.40253,160.22719,91,79,40
160.23586,161.06052,90,100,40
161.0692,161.48586,88,100,40
161.48586,161.90253,76,100,40
161.90253,163.1904,83,100,40
163.1904,163.66957,81,65,40
163.6904,163.76616,83,110,40
163.76616,163.84192,81,110,40
163.84192,163.91768,83,110,40
163.91768,163.99344,81,110,40
163.99344,164.0692,83,110,40
164.0692,164.14496,81,110,40
164.14496,164.2207,83,110,40
164.2207,164.29646,81,110,40
164.29646,164.37222,83,110,40
164.37222,164.44798,81,110,40
164.44798,164.52374,83,110,40
164.52374,164.5995,81,110,40
164.5995,164.67525,83,110,40
164.67525,164.751,81,110,40
164.751,164.82677,83,110,40
164.82677,164.90253,81,110,40
164.90253,164.97829,83,110,40
164.97829,165.05405,81,110,40
165.05405,165.1298,83,110,40
165.1298,165.20555,81,110,40
165.20555,165.28131,83,110,40
165.28131,165.35707,81,110,40
165.35707,165.43283,83,110,40
165.43283,165.50859,81,110,40
165.50859,165.59192,83,110,40
165.59192,165.67525,81,110,40
165.67525,165.75859,83,110,40
165.75859,165.84192,81,110,40
165.84192,165.92525,83,110,40
165.92525,166.00859,81,110,40
166.00859,166.09192,83,110,40
166.09192,166.17525,81,101,40
166.17525,166.34192,80,91,40
166.34192,166.49817,81,71,40
166.50859,166.9079,81,60,40
166.92525,167.32455,57,60,40
167.75859,168.36623,88,60,40
168.38359,168.48775,86,60,40
168.48775,168.58324,85,60,40
168.59192,168.7308,83,60,40
168.80025,168.93915,81,60,40
169.00859,169.07803,83,110,40
169.07803,169.14748,81,110,40
169.14748,169.21692,83,110,40
169.21692,169.28636,81,110,40
169.28636,169.3558,83,110,40
169.3558,169.42525,81,110,40
169.42525,169.49469,83,110,40
169.49469,169.56415,81,110,40
169.56415,169.63359,83,110,40
169.63359,169.70303,81,110,40
169.70303,169.77248,83,110,40
169.77248,169.84192,81,110,40
169.84192,169.91136,83,110,40
169.91136,169.9808,81,110,40
169.9808,170.05025,83,110,40
170.05025,170.11969,81,110,40
170.11969,170.18915,83,110,40
170.18915,170.25859,81,110,40
170.25859,170.32803,83,110,40
170.32803,170.39748,81,110,40
170.39748,170.46692,83,110,40
170.46692,170.53636,81,110,40
170.53636,170.6058,83,110,40
170.6058,170.67525,81,110,40
170.67525,170.74469,83,110,40
170.74469,170.81415,81,110,40
170.81415,170.88359,83,110,40
170.88359,170.95303,81,110,40
170.95303,171.02248,83,110,40
171.02248,171.09192,81,110,40
171.09192,171.16136,83,110,40
171.16136,171.2308,81,101,40
171.2308,171.36969,80,91,40
171.36969,171.49991,81,71,40
171.50859,171.90788,81,60,40
171.92525,172.32455,66,60,40
172.75859,173.36623,85,60,40
173.38359,173.48775,83,60,40
173.48775,173.58324,81,60,40
173.59192,173.7308,79,60,40
173.80025,173.93913,78,60,40
174.00859,174.40788,83,110,40
174.84192,175.24123,55,110,40
175.67525,176.49123,83,110,40
176.87317,176.92525,83,60,40
176.92525,177.13358,81,60,40
177.13358,177.34192,80,60,40
177.55025,177.68913,81,60,40
177.7065,177.74123,81,60,40
177.75858,177.96692,83,60,40
177.96692,178.1058,85,60,40
178.12317,178.17525,85,60,40
178.17525,178.39584,86,60,40
178.39584,178.5429,88,60,40
178.56128,178.61642,88,60,40
178.61642,178.8508,90,60,40
178.8508,179.07997,91,60,40
179.1008,179.98315,93,60,40
179.98315,180.86551,91,60,40
180.86551,181.74786,90,60,40
181.74786,182.20241,88,60,40
182.20241,182.5433,76,60,40
182.60013,183.04758,76,60,40
182.65695,184.07832,83,60,40
184.07832,184.33694,81,60,40
184.33694,184.58478,80,60,40
184.59557,185.45953,79,60,40
187.24261,188.10658,86,60,40
188.12497,188.98894,79,60,40
189.00732,189.08086,78,60,40
189.08086,189.15439,79,60,40
189.15439,189.2279,78,60,40
189.2279,189.30144,79,60,40
189.30144,189.37497,78,60,40
189.37497,189.4485,79,60,40
189.4485,189.52203,78,60,40
189.52203,189.59555,79,60,40
189.59555,189.66908,78,60,40
189.66908,189.77939,76,60,40
189.77939,189.88048,78,60,40
189.88968,190.75365,76,60,40
192.53673,193.4007,86,60,40
193.41908,193.74106,79,60,40
193.87363,194.1956,79,60,40
194.32817,194.4063,78,60,40
194.4063,194.48442,79,60,40
194.48442,194.56255,78,60,40
194.56255,194.67973,76,60,40
194.67973,194.79692,78,60,40
194.79692,195.04692,79,60,40
195.04692,195.30362,81,55,40
195.31479,195.56479,82,50,40
195.56479,195.77312,71,50,40
196.00038,196.19136,83,50,40
196.20872,196.41705,78,50,40
196.41705,196.60803,67,50,40
196.83372,197.02469,79,50,40
197.04205,197.25038,75,50,40
197.25038,197.44136,64,50,40
197.66705,197.85803,76,50,40
197.87538,198.08372,74,50,40
198.08372,198.27469,64,50,40
198.50038,198.69136,73,50,40
198.70872,198.91705,74,50,40
198.91705,199.10803,64,50,40
199.33372,199.52469,76,50,40
199.54205,199.75038,78,50,40
199.75038,199.94136,67,50,40
200.16705,200.35803,79,50,40
200.37538,200.58372,80,50,40
200.58372,200.77469,76,52,40
201.00038,201.19136,81,57,40
201.20872,201.41705,82,60,40
201.41705,201.60803,76,63,40
201.8281,202.0139,83,68,40
202.03079,202.23349,82,71,40
202.23349,202.41931,76,73,40
202.6389,202.8247,81,79,40
202.8416,203.03897,82,81,40
203.03897,203.2199,76,84,40
203.4337,203.61462,83,89,40
203.63107,203.82338,82,92,40
203.82338,203.99966,76,95,40
204.208,204.38428,81,100,40
204.4003,204.60864,82,102,40
204.60864,204.7996,76,105,40
205.04425,205.2734,83,110,40
205.29425,206.1844,83,125,40
206.20334,207.1213,86,110,40
207.14084,208.12,90,110,40
208.14084,208.64084,93,110,40
208.64084,209.14084,81,110,40
209.14084,210.39754,88,110,40
210.40869,210.67654,86,90,40
210.67654,210.95433,88,80,40
210.95433,211.25433,90,70,40
211.25433,212.17712,91,60,40
213.9602,214.82417,86,60,40
214.84256,215.13667,79,60,40
215.28374,215.58705,79,60,40
215.72491,215.79845,78,60,40
215.79845,215.87198,79,60,40
215.87198,215.9455,78,60,40
215.9455,216.01903,79,60,40
216.01903,216.09256,78,60,40
216.09256,216.16609,79,60,40
216.16609,216.23962,78,60,40
216.23962,216.31316,79,60,40
216.31316,216.38667,78,60,40
216.38667,216.49698,76,60,40
216.49698,216.59807,78,60,40
216.60727,217.47124,76,60,40
219.25432,219.40138,86,60,40
219.47491,219.6955,86,60,40
219.6955,219.91609,88,60,40
219.91609,220.13667,86,60,40
220.13667,220.2882,79,60,40
220.36395,220.59122,79,60,40
220.59122,220.82559,81,60,40
220.82559,221.05997,79,60,40
221.05997,221.12247,78,60,40
221.12247,221.18497,79,60,40
221.18497,221.24747,78,60,40
221.24747,221.30997,76,60,40
221.30997,221.55997,78,60,40
221.55997,221.82784,79,60,40
221.82784,222.07336,81,60,40
222.09569,222.34569,82,50,40
222.34569,222.55402,71,50,40
222.79355,222.99576,83,50,40
223.01413,223.22247,78,50,40
223.22247,223.41344,67,50,40
223.63913,223.83011,79,50,40
223.84747,224.0558,75,50,40
224.0558,224.24678,64,50,40
224.47247,224.66344,76,50,40
224.6808,224.88913,74,50,40
224.88913,225.08011,64,50,40
225.3058,225.49677,73,50,40
225.51413,225.72247,74,50,40
225.72247,225.91344,64,50,40
226.13913,226.33011,76,50,40
226.34747,226.5558,78,50,40
226.5558,226.74677,67,50,40
226.97247,227.16344,79,50,40
227.1808,227.38913,80,50,40
227.38913,227.58011,76,52,40
227.8058,227.99677,81,57,40
228.01413,228.22247,82,60,40
228.22247,228.41344,76,63,40
228.6335,228.8193,83,68,40
228.8362,229.03891,82,71,40
229.03891,229.22472,76,73,40
229.4443,229.63013,81,79,40
229.64702,229.84972,82,81,40
229.84972,230.03552,76,84,40
230.24979,230.43071,83,89,40
230.44716,230.63947,82,92,40
230.63947,230.81575,76,95,40
231.02408,231.20036,81,100,40
231.21638,231.42471,82,102,40
231.42471,231.61569,76,105,40
231.86032,232.0895,83,110,40
232.11032,233.02829,83,125,40
233.04782,233.96579,86,110,40
233.98532,234.9645,90,110,40
234.98532,235.48532,93,110,40
235.48532,235.98532,81,110,40
235.98532,237.22491,88,110,40
237.23532,237.48532,86,90,40
237.48532,237.75319,85,80,40
237.75319,238.02818,86,70,40
238.05318,239.8087,86,60,40
239.81789,240.69106,78,60,40
240.70024,243.3381,79,60,40
243.3473,245.09363,78,60,40
245.112,245.55318,78,60,40
245.55318,245.77377,79,60,40
245.77377,245.97597,81,60,40
245.99435,246.85832,83,60,40
246.87671,247.74068,83,60,40
247.75906,248.20024,83,60,40
248.20024,248.42082,85,60,40
248.42082,248.62303,86,60,40
248.64142,249.50539,86,65,40
249.52377,250.38774,81,82,40
250.40611,251.2701,78,85,40
251.28847,252.44656,79,60,40
252.46494,252.75906,79,60,40
252.75906,253.05318,81,60,40
253.05318,253.34729,83,60,40
253.34729,253.64142,81,60,40
253.64142,253.91714,79,60,40
253.93553,254.37671,79,60,40
254.37671,255.24068,78,60,40
255.25906,255.68185,78,60,40
255.70024,255.77376,78,60,40
255.77376,255.84729,79,60,40
255.84729,255.92082,78,60,40
255.92082,256.03113,76,60,40
256.03113,256.14142,78,60,40
256.14142,256.3528,79,60,40
256.362,256.5642,81,60,40
256.58258,256.80316,82,60,40
256.80316,257.00537,83,60,40
257.02377,257.88773,83,60,40
257.90613,258.32892,83,60,40
258.3473,258.4208,83,60,40
258.4208,258.49435,85,60,40
258.49435,258.56787,83,60,40
258.56787,258.67816,82,60,40
258.67816,258.78845,83,60,40
258.78845,259.00906,85,60,40
259.00906,259.22046,86,60,40
259.22964,259.6708,86,60,40
259.6708,260.5348,81,63,40
260.55316,260.99435,82,71,40
260.99435,261.4631,85,75,40
261.4631,261.92682,83,79,40
261.94696,262.82013,83,83,40
262.8293,264.18042,74,100,40
264.18042,264.64413,76,70,40
264.6643,265.5588,76,60,40
265.568,266.44116,78,60,40
266.45035,267.32352,79,70,40
267.3327,268.20587,81,80,40
268.21506,269.1428,83,90,40
269.15256,270.16125,85,100,40
270.17282,271.0662,86,60,40
271.0846,271.52576,81,60,40
271.52576,271.94855,78,65,40
271.96695,272.4081,78,70,40
272.4081,272.8309,79,75,40
272.8493,273.29047,80,80,40
273.29047,273.71326,81,85,40
273.73163,274.1862,82,90,40
274.1862,274.6218,83,95,40
274.64075,275.1095,83,100,40
275.1095,275.57318,85,80,40
275.59335,276.09335,85,60,40
276.09335,276.5725,86,60,40
276.59335,277.3225,86,60,40
277.59335,278.55316,86,55,40
278.6648,279.6246,86,55,40
280.80765,281.8413,84,50,40
281.9615,282.99515,84,50,40
284.26917,285.399,85,50,40
286.67303,288.467,84,60,40
296.81192,299.02255,77,60,40
299.03415,301.24478,77,60,40
301.25635,303.467,76,60,40
303.47858,305.68924,74,60,40
305.7008,307.91144,76,60,40
307.92303,310.13367,77,65,40
310.14523,312.71967,79,100,40
312.7339,314.98898,77,90,40
324.14847,326.35913,79,60,40
326.3707,328.58136,81,66,40
328.59293,330.8036,84,73,40
330.81516,333.0258,81,80,40
333.03738,335.24802,79,87,40
335.25958,337.51254,77,94,40
337.52454,340.07614,74,100,40
340.091,342.3461,76,90,40
351.24655,353.4572,76,60,40
353.46878,355.67944,84,60,40
355.691,357.90164,83,68,40
357.91324,360.12387,84,76,40
360.13544,362.3461,81,85,40
362.35767,364.56833,83,93,40
364.5799,366.81146,84,102,40
366.8235,369.47797,86,110,40
378.42694,380.63757,84,60,40
380.64914,382.8598,84,60,40
382.87137,385.08203,86,68,40
385.0936,387.30426,79,76,40
387.31583,389.52646,81,84,40
389.53806,391.7487,74,92,40
391.76025,394.28876,76,100,40
394.30365,396.55875,77,90,40
405.4592,407.66986,84,60,40
407.68143,409.89206,84,60,40
409.90366,412.1143,86,66,40
412.12585,414.33652,79,72,40
414.34808,416.55875,81,79,40
416.5703,418.78094,77,85,40
418.79254,421.00317,79,91,40
421.01474,423.2677,76,98,40
423.27972,426.06213,81,104,40
426.0795,426.7229,86,110,40
426.96185,427.60522,62,110,40
427.8442,428.7082,90,110,40
429.16772,429.59055,88,60,40
429.8295,430.05008,81,60,40
430.05008,430.2707,86,60,40
430.2707,430.49127,85,60,40
430.49127,430.71185,83,60,40
430.71185,430.93243,81,60,40
430.93243,431.15305,83,60,40
431.15305,431.35522,85,60,40
431.37363,431.77292,86,110,40
432.20694,432.60626,62,110,40
433.04028,433.90427,86,110,40
434.3638,434.78662,85,60,40
435.02557,435.24615,78,60,40
435.24615,435.46677,83,60,40
435.46677,435.68735,81,60,40
435.68735,435.90793,79,60,40
435.90793,436.1285,78,60,40
436.1285,436.34912,79,60,40
436.34912,436.5513,81,60,40
436.5697,436.969,83,110,40
437.403,437.80234,55,110,40
438.23636,439.10034,83,110,40
439.55988,439.9827,81,60,40
440.22165,440.3687,81,60,40
440.44223,440.5893,83,60,40
440.66284,440.80988,85,60,40
440.88342,441.0305,86,60,40
441.104,441.25107,88,60,40
441.3246,441.47165,90,60,40
441.5452,441.69223,91,60,40
441.76578,442.63895,93,60,40
442.64813,443.52127,91,70,40
443.5305,444.40363,90,80,40
444.41284,444.854,88,90,40
444.854,445.29517,76,95,40
445.29517,446.62674,83,100,40
446.64627,447.1418,81,66,40
447.16415,447.3308,81,110,40
447.41415,447.5612,62,110,40
447.63474,447.7818,78,110,40
447.85532,448.00238,79,110,40
448.0759,448.22296,81,110,40
448.29648,448.44354,83,110,40
448.5171,448.66415,85,110,40
448.73767,448.88474,86,110,40
448.95825,449.10532,88,110,40
449.17883,449.3259,90,100,40
449.39944,449.54648,91,90,40
449.62003,449.7671,93,80,40
449.8406,450.2634,93,60,40
450.2818,450.35532,69,60,40
450.35532,450.42883,71,60,40
450.42883,450.50238,69,60,40
450.50238,450.5759,71,60,40
450.5759,450.64944,69,60,40
450.64944,450.72296,71,60,40
450.72296,450.79648,69,60,40
450.79648,450.87003,71,60,40
450.87003,450.94354,69,60,40
450.94354,451.0171,71,60,40
451.0171,451.0906,69,60,40
451.0906,451.16415,71,60,40
451.16415,451.23767,69,60,40
451.23767,451.3112,71,60,40
451.3112,451.38474,69,60,40
451.38474,451.49503,68,60,40
451.49503,451.60532,69,60,40
451.60532,451.67883,81,60,40
451.67883,451.75238,83,60,40
451.75238,451.8259,81,60,40
451.8259,451.89944,83,60,40
451.89944,451.97296,81,60,40
451.97296,452.04648,83,60,40
452.04648,452.12003,81,60,40
452.12003,452.19354,83,60,40
452.19354,452.2671,81,60,40
452.2671,452.37738,80,60,40
452.37738,452.4693,81,60,40
452.48767,452.63474,74,110,40
452.70825,452.85532,62,110,40
452.92883,453.0759,74,110,40
453.14944,453.29648,76,110,40
453.37003,453.5171,78,110,40
453.5906,453.73767,83,110,40
453.8112,453.95825,85,110,40
454.0318,454.17883,86,110,40
454.25238,454.39944,88,110,40
454.47296,454.62003,90,100,40
454.69354,454.8406,90,90,40
454.91412,455.0612,90,80,40
455.13474,455.55753,90,60,40
455.5759,455.64944,66,60,40
455.64944,455.72296,67,60,40
455.72296,455.79648,66,60,40
455.79648,455.87003,67,60,40
455.87003,455.94354,66,60,40
455.94354,456.0171,67,60,40
456.0171,456.0906,66,60,40
456.0906,456.16412,67,60,40
456.16412,456.23767,66,60,40
456.23767,456.3112,67,60,40
456.3112,456.38474,66,60,40
456.38474,456.45825,67,60,40
456.45825,456.53177,66,60,40
456.53177,456.60532,67,60,40
456.60532,456.67883,66,60,40
456.67883,456.78912,64,60,40
456.78912,456.89944,66,60,40
456.89944,456.97296,78,60,40
456.97296,457.04648,79,60,40
457.04648,457.12003,78,60,40
457.12003,457.19354,79,60,40
457.19354,457.2671,78,60,40
457.2671,457.3406,79,60,40
457.3406,457.41412,78,60,40
457.41412,457.48767,79,60,40
457.48767,457.5612,78,60,40
457.5612,457.67148,76,60,40
457.67148,457.7634,78,60,40
457.78177,458.2046,83,110,40
458.66412,459.0869,55,110,40
459.54648,460.4512,83,110,40
460.9132,461.0511,83,60,40
461.06027,461.19815,81,60,40
461.20734,461.336,80,60,40
461.57498,461.7772,81,60,40
461.79556,461.93344,81,60,40
461.94263,462.0805,83,60,40
462.0897,462.21835,85,60,40
462.23676,462.3746,85,60,40
462.3838,462.52167,86,60,40
462.53085,462.65955,88,60,40
462.67792,462.8158,88,60,40
462.82498,462.96286,90,60,40
462.97205,463.1007,91,60,40
463.1191,463.56027,93,60,40
463.56027,464.00143,81,65,40
464.00143,464.44263,79,70,40
464.44263,464.8838,91,75,40
464.8838,465.32498,90,80,40
465.32498,465.76614,78,85,40
465.76614,466.20734,88,90,40
466.20734,466.6485,76,95,40
466.6485,467.76523,83,100,40
467.76523,467.9996,76,90,40
467.9996,468.2496,81,80,40
468.2496,468.49515,80,70,40
468.51746,469.44025,79,60,40
471.22336,472.0873,86,60,40
472.1057,472.96967,79,60,40
472.98804,473.06158,78,60,40
473.06158,473.1351,79,60,40
473.1351,473.20865,78,60,40
473.20865,473.28217,79,60,40
473.28217,473.3557,78,60,40
473.3557,473.42923,79,60,40
473.42923,473.50275,78,60,40
473.50275,473.5763,79,60,40
473.5763,473.6498,78,60,40
473.6498,473.7601,76,60,40
473.7601,473.85202,78,60,40
473.8704,474.73438,76,60,40
476.51746,477.38144,86,60,40
477.3998,477.83542,79,60,40
477.85437,478.3036,79,60,40
478.32312,478.40643,78,60,40
478.40643,478.48978,79,60,40
478.48978,478.57312,78,60,40
478.57312,478.69812,76,60,40
478.69812,478.82312,78,60,40
478.82312,479.09097,79,60,40
479.09097,479.35538,81,60,40
479.37943,479.6138,82,50,40
479.6138,479.8281,71,50,40
480.0424,480.2388,83,50,40
480.25665,480.45935,78,50,40
480.45935,480.66208,67,50,40
480.86478,481.05057,79,50,40
481.06747,481.27017,75,50,40
481.27017,481.47287,64,50,40
481.67557,481.8614,76,50,40
481.8783,482.081,74,50,40
482.081,482.2837,64,50,40
482.4864,482.6722,73,50,40
482.6891,482.89178,74,50,40
482.89178,483.09448,64,50,40
483.2972,483.483,76,50,40
483.4999,483.7026,78,50,40
483.7026,483.9053,67,50,40
484.108,484.29382,79,50,40
484.3107,484.51343,80,50,40
484.51343,484.71613,76,52,40
484.91882,485.10464,81,57,40
485.12152,485.32422,82,60,40
485.32422,485.52692,76,62,40
485.7243,485.9052,83,67,40
485.92166,486.11905,82,70,40
486.11905,486.3164,76,72,40
486.51376,486.6947,81,77,40
486.71115,486.90344,82,80,40
486.90344,487.09576,76,82,40
487.28806,487.46436,83,88,40
487.48038,487.66788,82,90,40
487.66788,487.85538,76,93,40
488.04288,488.21475,81,98,40
488.23038,488.42773,82,100,40
488.42773,488.6251,76,103,40
488.83344,489.0626,83,108,40
489.08344,489.94742,83,110,40
489.9658,490.82977,86,110,40
490.84814,491.7661,90,110,40
491.78564,492.2544,93,110,40
492.2544,492.72314,81,110,40
492.72314,493.89502,88,110,40
493.89502,494.1294,86,79,40
494.1294,494.3794,91,72,40
494.3794,494.62494,90,66,40
494.64725,494.8139,88,60,40
494.89725,495.11783,88,60,40
495.11783,495.33844,90,60,40
495.33844,495.54062,88,60,40
495.55902,495.7061,81,60,40
495.7796,496.00018,81,60,40
496.00018,496.2208,83,60,40
496.2208,496.42297,81,60,40
496.44138,496.5149,78,60,40
496.5149,496.58844,79,60,40
496.58844,496.66196,78,60,40
496.66196,496.73547,79,60,40
496.73547,496.80902,78,60,40
496.80902,496.88254,79,60,40
496.88254,496.9561,78,60,40
496.9561,497.0296,79,60,40
497.0296,497.10312,78,60,40
497.10312,497.21344,76,60,40
497.21344,497.30533,78,60,40
497.32373,498.18768,78,60,40
499.97076,500.11783,87,60,40
500.11783,500.2649,88,60,40
500.2649,500.41196,90,60,40
500.41196,500.55902,88,60,40
500.55902,500.7061,87,60,40
500.7061,500.83475,88,60,40
500.85312,501.00018,80,60,40
501.00018,501.14725,81,60,40
501.14725,501.2943,83,60,40
501.2943,501.44138,81,60,40
501.44138,501.58844,80,60,40
501.58844,501.7171,81,60,40
501.73547,501.80902,78,60,40
501.80902,501.88254,79,60,40
501.88254,501.9561,78,60,40
501.9561,502.0296,79,60,40
502.0296,502.10312,78,60,40
502.10312,502.17667,79,60,40
502.17667,502.25018,78,60,40
502.25018,502.32373,79,60,40
502.32373,502.39725,78,60,40
502.39725,502.50754,76,60,40
502.50754,502.59946,78,60,40
502.61783,503.4818,78,60,40
506.4031,506.6058,78,50,40
506.6058,506.79163,67,50,40
506.8085,506.94363,78,50,40
507.0112,507.11258,81,50,40
507.11258,507.19702,79,50,40
507.21393,507.41663,75,50,40
507.41663,507.60242,64,50,40
507.61932,507.75446,75,50,40
507.82202,507.92337,78,50,40
507.92337,508.00784,76,50,40
508.02472,508.22742,74,50,40
508.22742,508.41324,64,50,40
508.43015,508.56528,71,50,40
508.63284,508.7342,74,50,40
508.7342,508.81863,73,50,40
508.83554,509.03824,74,50,40
509.03824,509.22406,64,50,40
509.24094,509.37607,75,50,40
509.44363,509.54498,78,50,40
509.54498,509.62946,76,50,40
509.64636,509.84906,78,50,40
509.84906,510.03485,67,50,40
510.05176,510.1869,78,50,40
510.25446,510.3558,81,50,40
510.3558,510.44028,79,51,40
510.45715,510.65985,80,50,40
510.65985,510.8408,76,52,40
510.85724,510.9888,80,55,40
511.0546,511.1533,83,57,40
511.1533,511.2355,81,58,40
511.25195,511.44934,82,60,40
511.44934,511.6256,76,62,40
511.64163,511.76984,82,65,40
511.83395,511.9301,85,67,40
511.9301,512.01025,83,69,40
512.02625,512.21857,82,70,40
512.21857,512.40607,76,72,40
512.40607,512.59357,83,75,40
512.59357,512.76544,81,77,40
512.78107,512.96857,82,80,40
512.96857,513.14044,76,82,40
513.15607,513.28107,82,85,40
513.34357,513.4373,85,88,40
513.4373,513.51544,83,89,40
513.53107,513.71857,82,90,40
513.71857,513.89044,76,93,40
513.90607,514.03107,80,95,40
514.09357,514.1873,83,98,40
514.1873,514.26544,81,99,40
514.28107,514.47845,82,100,40
514.47845,514.65936,76,103,40
514.6758,514.8147,82,105,40
514.88416,515.00916,85,108,40
515.00916,515.1133,83,109,40
515.13416,515.38416,83,110,40
515.38416,515.60474,76,110,40
515.60474,515.8253,85,110,40
515.8253,516.0275,86,110,40
516.0459,516.2665,86,110,40
516.2665,516.48706,78,110,40
516.48706,516.70764,88,110,40
516.70764,516.90985,90,110,40
516.9282,517.14886,90,110,40
517.14886,517.36945,81,110,40
517.36945,517.6038,90,110,40
517.6038,517.83295,93,110,40
517.8538,518.1038,93,110,40
518.1038,518.3538,81,110,40
518.3538,518.6038,90,110,40
518.6038,518.83295,88,110,40
518.8538,520.1038,88,110,40
520.1038,520.3538,86,100,40
520.3538,520.62164,85,90,40
520.62164,520.77167,88,80,40
520.77167,520.89667,86,75,40
520.92163,522.69556,86,60,40
522.7139,523.5779,78,60,40
523.5963,526.225,79,60,40
526.24335,527.9897,78,60,40
528.00806,528.4492,78,60,40
528.4492,528.6698,79,60,40
528.6698,528.872,81,60,40
528.8904,529.7544,83,60,40
529.77277,530.6367,83,60,40
530.6551,530.72864,83,60,40
530.72864,530.8022,85,60,40
530.8022,530.8757,83,60,40
530.8757,530.986,82,60,40
530.986,531.0963,83,60,40
531.0963,531.3169,85,60,40
531.3169,531.5191,86,60,40
531.5375,532.8426,86,60,40
532.86096,533.2838,81,90,40
533.3022,533.77094,81,80,40
533.77094,534.25006,78,70,40
534.27094,534.7121,78,60,40
534.7121,535.57605,79,60,40
535.5944,535.81506,81,60,40
535.81506,536.03564,79,60,40
536.03564,536.2562,78,60,40
536.2562,536.4768,79,60,40
536.4768,536.6974,83,60,40
536.6974,536.8996,79,60,40
536.91797,537.13855,79,60,40
537.13855,537.35913,78,60,40
537.35913,537.5797,77,60,40
537.5797,537.80035,78,60,40
537.80035,538.02094,77,60,40
538.02094,538.2415,78,60,40
538.2415,538.4621,79,60,40
538.4621,538.6827,78,60,40
538.6827,538.90326,77,60,40
538.90326,539.12384,78,60,40
539.12384,539.3444,79,60,40
539.3444,539.54663,81,60,40
539.56506,539.78564,82,60,40
539.78564,540.0062,83,60,40
540.0062,540.2268,85,60,40
540.2268,540.429,83,60,40
540.4474,540.66797,83,60,40
540.66797,540.88855,71,60,40
540.88855,541.10913,83,60,40
541.10913,541.31134,82,60,40
541.3297,541.55035,82,60,40
541.55035,541.77094,83,60,40
541.77094,541.9915,85,60,40
541.9915,542.1937,86,60,40
542.2121,542.4327,86,60,40
542.4327,542.65326,69,62,40
542.65326,542.87384,83,64,40
542.87384,543.07605,81,66,40
543.0944,543.315,81,68,40
543.315,543.53564,69,70,40
543.53564,543.73785,82,72,40
543.7562,543.95844,82,75,40
543.9768,544.1974,82,77,40
544.1974,544.41797,71,79,40
544.41797,544.6202,83,81,40
544.63855,544.84076,83,83,40
544.85913,545.0797,83,85,40
545.0797,545.30035,62,87,40
545.30035,545.52094,76,90,40
545.52094,545.7415,74,92,40
545.7415,545.9621,73,94,40
545.9621,546.1827,74,96,40
546.1827,546.40326,78,98,40
546.40326,546.62384,76,100,40
546.62384,546.85114,75,100,40
546.85114,547.07837,76,90,40
547.07837,547.31274,79,80,40
547.31274,547.54193,76,70,40
547.56274,547.81274,76,60,40
547.81274,548.0334,78,60,40
548.0334,548.25397,81,60,40
548.25397,548.47455,79,60,40
548.47455,549.3385,78,60,40
549.3569,550.2209,79,60,40
550.23926,551.1032,81,60,40
551.1216,551.9856,83,60,40
552.00397,552.8679,85,60,40
552.8863,553.1069,86,60,40
553.1069,553.29785,74,60,40
553.52356,553.71454,86,60,40
553.7319,553.94025,86,60,40
553.94025,554.13116,74,62,40
554.3569,554.54785,86,67,40
554.56525,554.77356,86,70,40
554.77356,554.96454,74,72,40
555.19025,555.38116,86,77,40
555.39856,555.6069,86,80,40
555.6069,555.79785,74,83,40
556.02356,556.21454,86,88,40
556.2319,556.44025,86,90,40
556.44025,556.63116,74,93,40
556.8569,557.04785,86,98,40
557.06525,557.2795,88,100,40
557.2795,557.47595,76,90,40
557.71436,557.91656,88,70,40
557.935,558.16223,88,60,40
558.16223,558.37054,76,60,40
558.6239,558.853,90,60,40
558.8739,559.7697,86,60,40
559.8739,560.8337,86,60,40
560.9453,561.90515,86,60,40
563.0882,564.1218,84,50,40
564.242,565.2757,84,50,40
566.5497,567.7737,84,50,40
568.9108,571.39343,84,90,40
582.5664,583.12195,60,60,40
583.12195,584.5108,69,60,40
584.5108,584.7886,67,60,40
584.7886,585.62195,72,60,40
585.62195,585.8997,74,60,40
585.8997,586.99927,72,60,40
587.0108,587.56635,65,60,40
587.56635,588.12195,67,60,40
588.12195,588.95526,69,60,40
588.95526,589.23303,65,65,40
589.23303,590.06635,67,70,40
590.06635,590.3442,69,85,40
590.3442,591.99927,67,90,40
592.0108,594.2215,55,60,40
594.23303,595.3326,74,60,40
595.3442,596.44366,72,60,40
596.45526,597.5548,84,60,40
597.56635,598.6659,86,90,40
598.6775,599.77704,79,90,40
599.7886,600.8881,81,60,40
606.45526,608.80493,72,90,40
608.81854,611.0292,72,60,40
611.0408,613.2514,71,68,40
613.263,615.47363,69,76,40
615.4852,617.69586,71,84,40
617.70746,619.9181,72,92,40
619.9297,622.1403,77,100,40
622.15186,624.36255,76,100,40
624.3741,627.69586,74,80,40
627.70746,630.00604,69,55,40
630.01855,631.368,69,55,40
631.3822,633.76965,69,50,40
634.3822,634.96967,60,50,40
634.9822,636.3711,69,50,40
636.3711,636.64886,67,50,40
636.64886,637.4822,72,50,40
637.4822,637.75995,74,50,40
637.75995,638.8595,72,50,40
638.8711,639.42664,64,50,40
639.42664,640.5262,65,50,40
640.5377,641.63727,67,50,40
641.64886,642.7484,65,50,40
642.75995,643.30396,64,50,40
643.3155,644.41504,72,52,40
644.42664,646.0817,72,58,40
646.09326,647.7484,84,50,40
647.75995,648.30396,84,50,40
648.3155,649.9706,91,50,40
649.9822,650.5377,91,50,40
650.5377,651.63727,89,50,40
651.64886,653.8595,84,50,40
653.8711,656.0817,84,50,40
656.09326,657.1928,83,50,40
657.2044,658.30396,89,60,40
658.3155,660.5262,89,70,40
660.5377,662.74835,88,90,40
662.75995,664.9706,86,110,40
664.9822,667.1928,88,125,40
667.2044,669.41504,89,125,40
669.42664,671.80536,91,125,40
671.8196,676.25244,89,125,40
676.264,678.4747,91,125,40
678.4862,680.69684,93,125,40
680.70844,685.1413,91,125,40
685.1529,687.3635,91,110,40
687.3751,689.58575,89,102,40
689.59735,691.808,84,93,40
691.8195,694.0302,81,84,40
694.04175,696.25244,79,76,40
696.264,698.4747,77,67,40
698.4862,701.0147,77,58,40
701.0296,703.4171,76,50,40
705.8296,708.2171,77,90,40
708.2296,710.6171,77,90,40
710.6296,713.0171,76,90,40
715.4296,717.8171,86,110,40
717.8296,721.4171,86,110,40
721.4296,722.914,84,110,40
722.9296,733.1171,84,60,40
733.1296,733.7296,72,60,40
733.7296,735.2296,81,60,40
735.2296,735.5296,79,60,40
735.5296,736.4296,84,60,40
736.4296,736.7296,86,60,40
736.7296,737.9171,84,60,40
737.9296,738.5296,77,60,40
738.5296,739.1296,79,60,40
739.1296,740.0296,81,60,40
740.0296,740.3296,77,60,40
740.3296,741.2296,79,60,40
741.2296,741.5296,81,60,40
741.5296,742.1171,79,60,40
742.1296,744.5546,89,60,40
744.5679,747.4975,88,60,40
747.5149,750.11,86,60,40
750.12354,754.023,88,60,40
754.0366,755.2051,88,70,40
755.34094,756.56256,86,80,40
756.7046,758.04834,88,90,40
758.2046,760.91766,89,60,40
763.9318,766.9162,93,60,40
766.9318,770.18317,93,50,40
770.2027,777.68317,89,40,40
782.3902,783.23004,64,1,40
0.0,0.33792418,72,1,40
3.3289633,4.47079,60,60,40
4.4828095,5.624636,69,60,40
5.6366553,6.778482,55,60,40
5.6366553,6.778482,64,60,40
6.7905016,7.932328,60,60,40
7.9443474,9.181327,64,60,40
9.194347,10.543778,65,60,40
10.557983,13.044963,57,60,40
13.057983,15.268631,60,60,40
15.280206,17.490852,60,60,40
17.502428,19.713076,57,60,40
19.72465,21.935297,60,60,40
21.94687,24.157518,60,100,40
24.169094,25.31092,59,100,40
25.322939,26.613699,64,100,40
26.627287,29.222393,57,93,40
31.458202,32.55774,69,60,40
32.569313,34.77996,62,60,40
34.791534,35.89107,55,60,40
35.902645,37.04447,67,60,40
35.902645,37.04447,55,60,40
37.05649,38.293472,59,60,40
38.30649,40.793472,60,60,40
40.80649,43.01714,60,68,40
43.028713,45.23936,67,76,40
43.028713,45.23936,60,76,40
45.250935,47.461586,60,84,40
47.47316,49.683807,60,92,40
49.69538,50.794918,60,100,40
50.80649,51.90603,65,100,40
51.917603,53.05943,55,90,40
53.07145,54.36221,59,75,40
54.375797,56.671467,60,60,40
61.29887,62.398407,59,60,40
62.40998,63.509518,55,60,40
63.521095,64.66292,59,60,40
64.67494,65.9657,60,60,40
65.97929,68.36678,60,60,40
68.37929,70.589935,64,60,40
70.60151,72.81216,64,68,40
72.82373,75.03438,55,76,40
72.82373,75.03438,64,76,40
75.04595,77.2566,60,85,40
77.26817,79.47882,65,93,40
79.490395,81.78607,60,102,40
79.490395,81.78607,64,102,40
81.79809,84.185585,59,110,40
81.79809,84.185585,62,110,40
86.59809,87.697624,67,60,40
87.7092,88.80874,60,60,40
88.82031,89.919846,62,60,40
89.93142,91.03096,64,60,40
91.042534,92.14207,65,60,40
92.15364,93.25318,60,60,40
93.264755,95.4754,60,60,40
95.48698,97.697624,60,60,40
97.7092,99.919846,59,70,40
99.93142,102.14207,60,80,40
102.15364,104.36429,60,90,40
104.37586,106.58651,59,100,40
106.59808,107.78558,55,100,40
107.79809,109.088844,60,80,40
109.10243,111.69754,57,60,40
113.93335,115.03288,60,60,40
115.044464,116.144,69,60,40
116.15557,117.25511,72,65,40
117.266685,118.40851,57,76,40
118.420525,119.65751,55,88,40
119.670525,121.01996,65,100,40
121.034164,123.74723,65,60,40
123.76144,126.057106,65,65,40
126.06913,128.3648,59,76,40
128.37682,130.6725,60,88,40
130.68451,133.1715,57,100,40
133.18451,135.48018,57,60,40
135.4922,137.78787,59,60,40
137.7999,138.77345,61,65,40
138.95374,139.96625,69,76,40
140.15375,141.25429,69,88,40
141.45808,142.72371,69,100,40
142.95808,143.4905,74,110,40
144.0692,144.54837,62,110,40
145.0692,146.05878,78,110,40
146.48587,146.88518,76,60,40
147.11087,147.3192,69,60,40
147.3192,147.52753,74,60,40
147.52753,147.73587,73,60,40
147.73587,147.9442,71,60,40
147.9442,148.15253,69,60,40
148.15253,148.36087,71,60,40
148.36087,148.5692,73,60,40
148.5692,148.9685,74,110,40
149.40253,149.80183,62,110,40
150.23587,151.06052,74,110,40
151.48587,151.88518,73,60,40
152.11087,152.3192,66,60,40
152.3192,152.52753,71,60,40
152.52753,152.73587,69,60,40
152.73587,152.9442,67,60,40
152.9442,153.15253,66,60,40
153.15253,153.36087,67,60,40
153.36087,153.55183,69,60,40
153.5692,153.9685,62,110,40
154.40253,154.80183,74,110,40
156.0692,156.4685,69,60,40
156.90253,157.30183,81,60,40
158.98586,159.40253,74,72,40
159.40253,159.8192,69,79,40
159.8192,160.23586,76,86,40
160.23586,160.65253,69,93,40
160.65253,161.0692,74,100,40
161.0692,161.48586,73,100,40
161.48586,161.90253,61,100,40
161.90253,162.3192,62,100,40
162.3192,162.73586,64,89,40
162.73586,163.1904,61,77,40
163.1904,163.66957,64,65,40
163.6904,164.126,66,110,40
163.6904,164.126,74,110,40
164.5995,165.0351,62,110,40
165.50859,166.48775,78,110,40
166.92525,167.32455,76,60,40
167.55025,167.75859,69,60,40
167.75859,167.96692,74,60,40
167.96692,168.17525,73,60,40
168.17525,168.38359,71,60,40
168.38359,168.59192,69,60,40
168.59192,168.80025,71,60,40
168.80025,168.99123,73,60,40
169.00859,169.4079,74,110,40
169.84192,170.24123,62,110,40
170.67525,171.49123,86,110,40
171.92525,172.32455,85,60,40
172.55025,172.75859,78,60,40
172.75859,172.96692,83,60,40
172.96692,173.17525,81,60,40
173.17525,173.38359,79,60,40
173.38359,173.59192,78,60,40
173.59192,173.80025,79,60,40
173.80025,173.99123,81,60,40
174.00859,174.40788,71,110,40
174.84192,175.24123,83,110,40
176.50858,176.90788,69,60,40
177.34192,177.74123,81,60,40
179.48683,179.54198,73,60,40
179.54198,179.96477,74,60,40
180.36919,180.42433,80,60,40
180.42433,180.84712,81,60,40
181.25154,181.30669,68,60,40
181.30669,181.72948,69,60,40
182.14558,182.20241,68,60,40
182.20241,182.63802,69,60,40
183.06711,183.1257,63,60,40
183.1257,183.57492,64,60,40
184.01784,184.07832,75,60,40
184.07832,184.574,76,60,40
184.59557,185.45953,76,60,40
185.4779,186.34189,69,60,40
186.36026,186.43379,67,60,40
186.43379,186.50732,69,60,40
186.50732,186.58086,67,60,40
186.58086,186.65439,69,60,40
186.65439,186.7279,67,60,40
186.7279,186.80144,69,60,40
186.80144,186.87497,67,60,40
186.87497,186.9485,69,60,40
186.9485,187.02203,67,60,40
187.02203,187.13232,66,60,40
187.13232,187.23343,67,60,40
187.24261,188.98894,66,60,40
189.88968,190.75365,76,60,40
190.77203,191.08453,69,60,40
191.21321,191.52571,69,60,40
191.65437,191.7279,67,60,40
191.7279,191.80144,69,60,40
191.80144,191.87497,67,60,40
191.87497,191.9485,69,60,40
191.9485,192.02203,67,60,40
192.02203,192.09555,69,60,40
192.09555,192.16908,67,60,40
192.16908,192.24261,69,60,40
192.24261,192.31615,67,60,40
192.31615,192.42644,66,60,40
192.42644,192.52754,67,60,40
192.53673,192.9779,66,60,40
192.9779,193.41908,74,60,40
193.41908,193.87363,73,60,40
193.87363,194.56255,81,60,40
194.56255,194.79692,62,60,40
194.79692,195.04692,64,60,40
195.04692,195.30362,66,55,40
195.79205,195.98303,55,50,40
195.79205,195.98303,71,50,40
196.00038,196.19136,55,50,40
196.00038,196.19136,71,50,40
196.62538,196.81636,55,50,40
196.62538,196.81636,71,50,40
196.83372,197.02469,55,50,40
196.83372,197.02469,71,50,40
197.45872,197.64969,55,50,40
197.45872,197.64969,71,50,40
197.66705,197.85803,55,50,40
197.66705,197.85803,71,50,40
198.29205,198.48303,67,50,40
198.29205,198.48303,69,50,40
198.50038,198.69136,67,50,40
198.50038,198.69136,69,50,40
199.12538,199.31636,67,50,40
199.12538,199.31636,69,50,40
199.33372,199.52469,67,50,40
199.33372,199.52469,69,50,40
199.95872,200.14969,67,50,40
199.95872,200.14969,69,50,40
200.16705,200.35803,67,50,40
200.16705,200.35803,69,50,40
200.79205,200.98303,67,55,40
200.79205,200.98303,69,55,40
201.00038,201.19136,67,57,40
201.00038,201.19136,69,57,40
201.62538,201.8112,67,65,40
201.62538,201.8112,69,65,40
201.8281,202.0139,67,68,40
201.8281,202.0139,69,68,40
202.4362,202.62201,67,76,40
202.4362,202.62201,69,76,40
202.6389,202.8247,67,79,40
202.6389,202.8247,69,79,40
203.23634,203.41727,67,87,40
203.23634,203.41727,69,87,40
203.4337,203.61462,67,89,40
203.4337,203.61462,69,89,40
204.01569,204.19197,67,97,40
204.01569,204.19197,69,97,40
204.208,204.38428,67,100,40
204.208,204.38428,69,100,40
204.81697,205.0253,61,108,40
204.81697,205.0253,64,108,40
205.04425,205.2734,71,110,40
205.29425,206.1844,71,125,40
206.20334,207.1213,62,110,40
206.20334,207.1213,66,110,40
207.14084,209.12,57,110,40
207.14084,209.12,66,110,40
209.14084,210.39754,57,110,40
209.14084,210.39754,69,110,40
210.40869,210.67654,74,90,40
210.67654,210.95433,73,80,40
210.95433,211.25433,74,70,40
211.25433,212.17712,76,60,40
212.19551,212.50801,69,60,40
212.63667,212.94917,69,60,40
213.07785,213.15138,67,60,40
213.15138,213.22491,69,60,40
213.22491,213.29845,67,60,40
213.29845,213.37198,69,60,40
213.37198,213.4455,67,60,40
213.4455,213.51903,69,60,40
213.51903,213.59256,67,60,40
213.59256,213.66609,69,60,40
213.66609,213.73962,67,60,40
213.73962,213.84991,66,60,40
213.84991,213.95102,67,60,40
213.9602,215.70653,66,60,40
216.60727,216.75432,76,60,40
216.82785,217.04845,76,60,40
217.04845,217.26903,78,60,40
217.26903,217.48962,76,60,40
217.48962,217.63667,69,60,40
217.7102,217.9308,69,60,40
217.9308,218.15138,71,60,40
218.15138,218.37198,69,60,40
218.37198,218.4455,67,60,40
218.4455,218.51903,69,60,40
218.51903,218.59256,67,60,40
218.59256,218.66609,69,60,40
218.66609,218.73962,67,60,40
218.73962,218.81314,69,60,40
218.81314,218.88667,67,60,40
218.88667,218.9602,69,60,40
218.9602,219.03374,67,60,40
219.03374,219.14403,66,60,40
219.14403,219.24513,67,60,40
219.25432,219.56682,66,60,40
219.6955,220.008,78,60,40
220.13667,220.45865,73,60,40
220.59122,221.28914,81,60,40
221.30997,221.55997,69,60,40
221.55997,221.82784,67,60,40
221.82784,222.07336,66,60,40
222.09569,222.32486,55,50,40
222.09569,222.32486,67,50,40
222.34569,222.55402,55,50,40
222.34569,222.55402,67,50,40
223.01413,223.20511,55,50,40
223.01413,223.20511,71,50,40
223.22247,223.41344,55,50,40
223.22247,223.41344,71,50,40
223.84747,224.03844,55,50,40
223.84747,224.03844,71,50,40
224.0558,224.24678,55,50,40
224.0558,224.24678,71,50,40
224.6808,224.87178,67,50,40
224.6808,224.87178,69,50,40
224.88913,225.08011,67,50,40
224.88913,225.08011,69,50,40
225.51413,225.70511,67,50,40
225.51413,225.70511,69,50,40
225.72247,225.91344,67,50,40
225.72247,225.91344,69,50,40
226.34747,226.53844,67,50,40
226.34747,226.53844,69,50,40
226.5558,226.74677,67,50,40
226.5558,226.74677,69,50,40
227.1808,227.37177,64,50,40
227.1808,227.37177,76,50,40
227.38913,227.58011,64,52,40
227.38913,227.58011,76,52,40
228.01413,228.20511,64,60,40
228.01413,228.20511,76,60,40
228.22247,228.41344,64,63,40
228.22247,228.41344,76,63,40
228.8362,229.02202,64,71,40
228.8362,229.02202,76,71,40
229.03891,229.22472,64,73,40
229.03891,229.22472,76,73,40
229.64702,229.83282,64,81,40
229.64702,229.83282,76,81,40
229.84972,230.03552,64,84,40
229.84972,230.03552,76,84,40
230.44716,230.62344,64,92,40
230.44716,230.62344,76,92,40
230.63947,230.81575,64,95,40
230.63947,230.81575,76,95,40
231.21638,231.40736,64,102,40
231.21638,231.40736,73,102,40
231.42471,231.61569,64,105,40
231.42471,231.61569,73,105,40
231.63306,231.84138,61,108,40
231.63306,231.84138,64,108,40
231.86032,232.0895,61,110,40
231.86032,232.0895,64,110,40
232.11032,233.02829,71,125,40
233.04782,233.96579,62,110,40
233.04782,233.96579,66,110,40
233.98532,235.9645,57,110,40
233.98532,235.9645,66,110,40
235.98532,237.22491,57,110,40
235.98532,237.22491,69,110,40
237.23532,237.48532,74,90,40
237.48532,237.75319,67,80,40
237.75319,238.02818,66,70,40
238.05318,238.92635,66,60,40
238.93553,239.8087,74,60,40
239.81789,240.69106,62,60,40
241.5826,242.45575,62,60,40
242.46495,243.3381,67,60,40
244.22964,245.10281,62,60,40
245.112,245.98517,66,60,40
246.87671,247.74986,62,60,40
247.75906,248.63222,71,60,40
249.0826,249.52377,73,73,40
249.52377,249.96494,74,82,40
249.96494,250.40611,73,90,40
250.40611,250.84729,74,85,40
250.84729,251.2701,72,70,40
251.28847,251.72964,72,60,40
251.72964,252.17082,70,60,40
252.17082,252.612,71,60,40
252.612,253.05318,72,60,40
253.05318,253.49435,74,60,40
253.49435,253.91714,71,60,40
253.93553,254.37671,71,60,40
254.37671,254.81789,68,60,40
254.81789,255.25906,69,60,40
255.25906,255.70024,73,60,40
255.70024,256.14142,74,60,40
256.14142,257.00537,69,60,40
257.02377,257.46494,66,60,40
257.46494,257.90613,67,60,40
257.90613,258.3473,73,60,40
258.3473,258.78845,74,60,40
258.78845,259.21127,67,60,40
259.22964,259.6708,67,60,40
259.6708,260.112,66,63,40
260.112,260.55316,74,67,40
260.55316,260.99435,70,71,40
260.99435,261.4631,73,75,40
261.4631,261.92682,71,79,40
261.94696,262.38815,74,83,40
262.38815,262.81094,66,87,40
262.8293,263.2705,66,90,40
263.2705,263.71167,57,90,40
263.71167,264.18042,67,80,40
264.18042,264.64413,57,70,40
264.6643,264.90622,66,60,40
264.90622,265.12683,74,60,40
265.12683,265.3474,78,60,40
265.3474,265.568,76,60,40
265.568,265.78857,74,60,40
265.78857,266.0092,73,62,40
266.0092,266.22977,71,65,40
266.22977,266.45035,69,67,40
266.45035,266.67093,67,70,40
266.67093,266.8915,76,72,40
266.8915,267.11212,73,75,40
267.11212,267.3327,67,77,40
267.3327,267.55328,66,80,40
267.55328,267.77386,74,83,40
267.77386,267.99448,69,85,40
267.99448,268.21506,66,88,40
268.21506,268.44943,65,90,40
268.44943,268.6838,74,93,40
268.6838,268.91818,71,95,40
268.91818,269.15256,65,98,40
269.15256,269.3945,64,100,40
269.3945,269.6364,73,90,40
269.6364,269.89505,67,80,40
269.89505,270.14966,64,70,40
270.17282,271.0754,66,60,40
271.0846,273.71326,62,60,40
271.0846,273.71326,74,60,40
273.73163,274.63126,62,90,40
273.73163,274.63126,74,90,40
274.64075,275.58328,64,100,40
274.64075,276.08295,76,100,40
276.59335,277.3225,74,60,40
277.59335,278.55316,74,55,40
278.6648,279.6246,74,55,40
280.80765,281.8413,72,50,40
281.9615,282.99515,72,50,40
284.26917,285.399,73,50,40
286.67303,287.91,72,60,40
287.92303,289.02255,60,60,40
289.03415,290.68924,69,60,40
290.7008,291.24478,67,60,40
291.25635,292.91144,72,60,40
292.92303,293.467,72,60,40
293.47858,294.57812,65,60,40
294.5897,295.68924,67,60,40
295.7008,297.91144,65,60,40
297.92303,300.13367,72,60,40
300.14523,302.3559,72,60,40
302.36746,304.57812,67,60,40
304.5897,305.68924,65,60,40
305.7008,306.80032,67,60,40
306.81192,309.02255,72,60,40
309.03412,311.3572,77,73,40
311.37024,313.87787,76,90,40
313.88943,314.98898,74,60,40
315.00055,316.1001,81,60,40
316.11166,317.76675,74,60,40
317.77832,318.3223,76,60,40
318.3339,319.98898,77,60,40
320.00055,320.54453,79,60,40
320.5561,321.65564,77,60,40
321.6672,322.83163,76,60,40
322.84415,324.1349,59,60,40
322.84415,325.24802,67,60,40
324.14847,325.24802,60,60,40
325.25958,327.47025,67,63,40
327.4818,328.58136,65,70,40
328.59293,329.69247,67,73,40
329.70404,331.91467,79,77,40
331.92627,334.1369,77,83,40
334.14847,336.35913,76,90,40
336.3707,336.9356,74,97,40
336.94763,338.71204,72,99,40
338.72455,341.235,71,60,40
341.24655,342.90164,72,60,40
342.91324,343.4572,74,60,40
343.46878,345.12387,76,60,40
345.13547,345.67944,77,60,40
345.691,346.79056,79,60,40
346.80212,347.90164,67,60,40
347.91324,349.56833,60,60,40
349.5799,350.12387,62,60,40
350.13544,351.235,64,60,40
351.24655,351.79056,76,60,40
351.80212,352.3461,74,60,40
352.35767,354.56833,72,60,40
354.5799,356.79056,81,64,40
356.80212,359.01276,79,72,40
359.02435,361.235,79,81,40
361.24655,362.3461,77,89,40
362.35767,363.4572,67,93,40
363.46878,365.67944,67,98,40
365.691,368.0485,67,106,40
368.06177,369.47797,71,60,40
369.4936,370.63757,79,60,40
370.64917,372.30426,72,60,40
372.31583,372.8598,74,60,40
372.87137,374.52646,76,60,40
374.53806,375.08203,77,60,40
375.0936,376.19315,76,60,40
376.2047,377.30426,71,60,40
377.31583,378.41534,72,60,40
378.42694,381.7487,60,60,40
381.76025,383.97092,65,64,40
383.98248,385.08203,71,72,40
385.0936,386.19315,72,76,40
386.2047,388.41534,76,80,40
388.42694,389.52646,77,88,40
389.53806,390.63757,65,92,40
390.64914,392.92468,62,96,40
392.9372,395.44763,60,60,40
395.4592,396.55875,69,60,40
396.5703,397.66986,72,60,40
397.68143,399.33652,81,60,40
399.34808,399.89206,76,60,40
399.90366,401.55875,77,60,40
401.5703,402.1143,76,60,40
402.12585,403.2254,74,60,40
403.23697,404.33652,72,60,40
404.34808,405.44763,71,60,40
405.4592,406.55875,65,60,40
406.5703,408.78094,72,60,40
408.79254,411.00317,77,63,40
411.01477,412.1143,71,69,40
412.12585,413.2254,72,72,40
413.23697,415.44763,76,75,40
415.4592,417.66986,77,82,40
417.68143,419.89206,74,88,40
419.90366,421.00317,71,95,40
421.01474,422.69077,69,98,40
422.7028,423.2677,64,103,40
423.27972,424.5183,76,104,40
424.5319,426.06213,79,107,40
426.0795,426.7229,62,110,40
426.0795,426.7229,69,110,40
426.0795,426.7229,78,110,40
426.96185,427.60522,78,110,40
428.72656,429.14935,69,60,40
429.60892,430.0317,81,60,40
431.37363,431.77292,62,110,40
432.20694,432.60626,78,110,40
432.20694,432.60626,74,110,40
433.92264,434.34543,66,60,40
434.805,435.22778,78,60,40
436.5697,436.969,59,110,40
437.403,437.80234,74,110,40
437.403,437.80234,62,110,40
439.1187,439.5415,62,60,40
440.00107,440.42386,74,60,40
441.98636,442.13342,57,60,40
442.20694,442.354,61,60,40
442.42752,442.5746,62,60,40
442.64813,442.7952,64,60,40
442.8687,443.01578,66,60,40
443.0893,443.23636,67,60,40
443.30988,443.45694,69,60,40
443.5305,443.67752,69,60,40
443.75107,443.89813,71,60,40
443.97165,444.1187,73,60,40
444.19223,444.3393,74,60,40
444.41284,444.55988,73,60,40
444.63342,444.7805,76,60,40
444.854,445.00107,74,60,40
445.0746,445.22165,73,60,40
445.29517,445.44223,74,100,40
445.51578,445.66284,71,95,40
445.73636,445.88342,76,89,40
445.95694,446.104,74,83,40
446.17752,446.33377,73,77,40
446.4119,446.56815,76,71,40
446.64627,446.81296,81,66,40
446.89627,447.07486,85,60,40
447.16415,447.61633,86,110,40
448.0759,448.4987,62,110,40
448.95825,449.38104,78,106,40
450.2818,450.7046,76,60,40
450.94354,451.16415,69,60,40
451.16415,451.38474,74,60,40
451.38474,451.60532,73,60,40
451.60532,451.8259,71,60,40
451.8259,452.04648,69,60,40
452.04648,452.2671,83,60,40
452.2671,452.4693,85,60,40
452.48767,452.91046,86,110,40
453.37003,453.79282,62,110,40
454.25238,455.11633,86,110,40
455.5759,455.9987,85,60,40
456.23767,456.45825,78,60,40
456.45825,456.67883,83,60,40
456.67883,456.89944,81,60,40
456.89944,457.12003,79,60,40
457.12003,457.3406,78,60,40
457.3406,457.5612,79,60,40
457.5612,457.7634,81,60,40
457.78177,457.92883,62,110,40
458.00238,458.14944,74,110,40
458.22296,458.37003,76,110,40
458.44354,458.5906,78,110,40
458.66412,458.8112,79,110,40
458.88474,459.03177,81,110,40
459.10532,459.25238,83,110,40
459.3259,459.47296,85,110,40
459.54648,459.69354,86,110,40
459.7671,459.91412,86,100,40
459.98767,460.14392,86,90,40
460.22205,460.3887,86,80,40
460.47205,460.89484,86,60,40
461.3544,461.7772,74,60,40
462.23676,463.98306,67,60,40
464.00143,466.20734,69,70,40
466.20734,466.63013,73,95,40
466.6485,467.51248,74,100,40
467.53085,467.9996,73,60,40
467.9996,468.49515,74,80,40
468.51746,469.44025,76,60,40
469.45865,470.3226,69,60,40
470.341,470.41452,67,60,40
470.41452,470.48807,69,60,40
470.48807,470.56158,67,60,40
470.56158,470.6351,69,60,40
470.6351,470.70865,67,60,40
470.70865,470.78217,69,60,40
470.78217,470.8557,67,60,40
470.8557,470.92923,69,60,40
470.92923,471.00275,67,60,40
471.00275,471.11307,66,60,40
471.11307,471.22336,67,60,40
471.22336,472.96967,66,60,40
473.8704,474.73438,76,60,40
474.75275,475.17554,69,60,40
475.19394,475.61673,69,60,40
475.6351,475.70865,67,60,40
475.70865,475.78217,69,60,40
475.78217,475.8557,67,60,40
475.8557,475.92923,69,60,40
475.92923,476.00275,67,60,40
476.00275,476.0763,69,60,40
476.0763,476.1498,67,60,40
476.1498,476.22336,69,60,40
476.22336,476.29688,67,60,40
476.29688,476.40717,66,60,40
476.40717,476.51746,67,60,40
476.51746,476.95865,66,60,40
476.95865,477.83542,69,60,40
477.85437,478.57312,81,60,40
478.57312,478.82312,69,60,40
478.82312,479.09097,67,60,40
479.09097,479.35538,66,60,40
479.37943,479.59427,55,50,40
479.37943,479.59427,67,50,40
479.6138,479.81024,55,50,40
479.6138,479.81024,67,50,40
480.25665,480.44247,55,50,40
480.25665,480.44247,71,50,40
480.45935,480.64517,55,50,40
480.45935,480.64517,71,50,40
481.06747,481.2533,71,50,40
481.06747,481.2533,55,50,40
481.27017,481.456,71,50,40
481.27017,481.456,55,50,40
481.8783,482.0641,67,50,40
481.8783,482.0641,69,50,40
482.081,482.26678,67,50,40
482.081,482.26678,69,50,40
482.6891,482.8749,67,50,40
482.6891,482.8749,69,50,40
482.89178,483.0776,67,50,40
482.89178,483.0776,69,50,40
483.4999,483.6857,67,50,40
483.4999,483.6857,69,50,40
483.7026,483.88843,67,50,40
483.7026,483.88843,69,50,40
484.3107,484.49652,64,50,40
484.3107,484.49652,76,50,40
484.51343,484.69922,64,52,40
484.51343,484.69922,76,52,40
485.12152,485.30734,64,60,40
485.12152,485.30734,76,60,40
485.32422,485.51004,64,62,40
485.32422,485.51004,76,62,40
485.92166,486.1026,64,70,40
485.92166,486.1026,76,70,40
486.11905,486.29996,64,72,40
486.11905,486.29996,76,72,40
486.71115,486.88742,64,80,40
486.71115,486.88742,76,80,40
486.90344,487.07974,64,82,40
486.90344,487.07974,76,82,40
487.48038,487.65225,64,90,40
487.48038,487.65225,76,90,40
487.66788,487.83975,64,93,40
487.66788,487.83975,76,93,40
488.23038,488.4113,64,100,40
488.23038,488.4113,76,100,40
488.42773,488.60867,64,103,40
488.42773,488.60867,76,103,40
488.6251,488.81607,61,105,40
488.6251,488.81607,64,105,40
488.83344,489.0626,61,108,40
488.83344,489.0626,64,108,40
489.08344,489.94742,71,110,40
489.9658,490.82977,62,110,40
489.9658,490.82977,66,110,40
490.84814,492.7036,57,110,40
490.84814,492.7036,66,110,40
492.72314,493.89502,67,110,40
493.89502,494.1294,66,79,40
494.1294,494.3794,76,72,40
494.3794,494.62494,74,66,40
494.64725,494.98917,73,60,40
495.11783,495.43033,85,60,40
495.55902,495.87152,86,60,40
496.00018,496.31268,74,60,40
496.44138,496.75388,76,60,40
496.88254,497.19504,88,60,40
497.32373,497.4708,86,60,40
497.5443,497.7649,86,60,40
497.7649,497.98547,88,60,40
497.98547,498.18768,86,60,40
498.2061,498.35312,79,60,40
498.42667,498.64725,79,60,40
498.64725,498.86783,81,60,40
498.86783,499.07004,79,60,40
499.08844,499.16196,78,60,40
499.16196,499.23547,79,60,40
499.23547,499.30902,78,60,40
499.30902,499.38254,79,60,40
499.38254,499.4561,78,60,40
499.4561,499.5296,79,60,40
499.5296,499.60312,78,60,40
499.60312,499.67667,79,60,40
499.67667,499.75018,78,60,40
499.75018,499.86047,76,60,40
499.86047,499.97076,78,60,40
499.97076,500.28326,76,60,40
500.41196,500.72446,85,60,40
500.85312,501.16562,86,60,40
501.2943,501.6068,74,60,40
501.73547,502.04797,76,60,40
502.17667,502.48917,88,60,40
502.61783,502.7649,85,60,40
502.7649,502.91196,86,60,40
502.91196,503.05902,88,60,40
503.05902,503.2061,86,60,40
503.2061,503.35312,85,60,40
503.35312,503.50018,86,60,40
503.50018,503.6517,78,60,40
503.6517,503.80322,79,60,40
503.80322,503.95474,81,60,40
503.95474,504.111,79,60,40
504.111,504.26724,78,60,40
504.26724,504.4235,79,60,40
504.4235,504.59015,78,60,40
504.59015,504.7568,79,60,40
504.7568,504.9235,76,60,40
504.9235,505.10205,78,60,40
505.10205,505.29135,79,60,40
505.29135,505.46634,81,60,40
505.49133,505.74133,82,50,40
505.74133,505.94354,71,50,40
505.9619,506.10898,82,50,40
506.18253,506.29282,85,50,40
506.29282,506.38474,83,50,40
506.6058,506.79163,71,50,40
506.6058,506.79163,67,50,40
506.8085,506.99432,71,50,40
506.8085,506.99432,67,50,40
507.41663,507.60242,71,50,40
507.41663,507.60242,67,50,40
507.61932,507.80515,71,50,40
507.61932,507.80515,67,50,40
508.22742,508.41324,69,50,40
508.22742,508.41324,67,50,40
508.43015,508.61594,69,50,40
508.43015,508.61594,67,50,40
509.03824,509.22406,69,50,40
509.03824,509.22406,67,50,40
509.24094,509.42676,69,50,40
509.24094,509.42676,67,50,40
509.84906,510.03485,69,50,40
509.84906,510.03485,67,50,40
510.05176,510.23755,69,50,40
510.05176,510.23755,67,50,40
510.65985,510.8408,76,52,40
510.65985,510.8408,67,52,40
510.85724,511.03815,76,55,40
510.85724,511.03815,67,55,40
511.44934,511.6256,76,62,40
511.44934,511.6256,67,62,40
511.64163,511.81793,76,65,40
511.64163,511.81793,67,65,40
512.21857,512.39044,76,72,40
512.21857,512.39044,67,72,40
512.40607,512.57794,76,75,40
512.40607,512.57794,67,75,40
512.78107,512.95294,67,80,40
512.78107,512.95294,76,80,40
512.96857,513.14044,73,82,40
512.96857,513.14044,76,82,40
513.15607,513.32794,73,85,40
513.15607,513.32794,76,85,40
513.71857,513.89044,73,93,40
513.71857,513.89044,76,93,40
513.90607,514.07794,73,95,40
513.90607,514.07794,76,95,40
514.47845,514.65936,73,103,40
514.47845,514.65936,76,103,40
514.6758,514.86676,73,105,40
514.6758,514.86676,76,105,40
515.13416,515.60474,76,110,40
515.60474,516.0275,74,110,40
516.0459,516.48706,74,110,40
516.48706,516.90985,66,110,40
516.9282,517.36945,66,110,40
517.36945,517.83295,62,110,40
517.8538,518.3538,62,110,40
518.3538,518.83295,57,110,40
518.8538,520.1038,57,110,40
520.1038,520.3538,69,100,40
520.3538,520.62164,67,90,40
520.62164,520.89667,66,80,40
520.92163,521.81323,66,60,40
521.8316,524.46027,62,60,40
524.47864,525.3426,74,60,40
525.361,525.8022,71,60,40
527.1257,527.9897,74,60,40
528.00806,528.872,66,60,40
529.77277,530.6367,74,60,40
530.6551,531.5191,71,60,40
531.97864,532.4198,73,70,40
532.4198,532.86096,74,80,40
532.86096,533.3022,73,90,40
533.3022,533.77094,74,80,40
533.77094,534.25006,73,70,40
534.27094,534.7121,73,60,40
534.7121,535.15326,70,60,40
535.15326,535.5944,71,60,40
535.5944,536.03564,73,60,40
536.03564,536.4768,74,60,40
536.4768,536.8996,71,60,40
536.91797,537.35913,71,60,40
537.35913,537.80035,68,60,40
537.80035,538.2415,69,60,40
538.2415,538.4621,73,60,40
538.4621,538.6827,74,60,40
538.6827,539.12384,74,60,40
539.12384,539.98785,69,60,40
540.0062,540.4474,66,60,40
540.4474,540.88855,67,60,40
540.88855,541.10913,73,60,40
541.10913,541.31134,74,60,40
541.3297,541.77094,74,60,40
541.77094,542.1937,67,60,40
542.2121,542.65326,67,60,40
542.65326,542.87384,65,64,40
542.87384,543.0944,66,66,40
543.0944,543.53564,74,68,40
543.53564,543.9768,70,72,40
543.9768,544.41797,74,77,40
544.41797,544.84076,71,81,40
544.85913,545.30035,74,85,40
545.30035,545.72314,66,90,40
545.7415,546.1827,66,94,40
546.1827,546.62384,57,98,40
546.62384,547.07837,67,100,40
547.07837,547.54193,57,80,40
547.56274,547.81274,57,60,40
547.81274,548.0334,74,60,40
548.0334,548.25397,78,60,40
548.25397,548.47455,76,60,40
548.47455,548.6951,74,60,40
548.6951,548.9157,73,60,40
548.9157,549.1363,71,60,40
549.1363,549.3569,69,60,40
549.3569,549.57745,67,60,40
549.57745,549.7981,76,60,40
549.7981,550.0187,73,60,40
550.0187,550.23926,67,60,40
550.23926,550.45984,66,60,40
550.45984,550.6804,74,60,40
550.6804,550.901,69,60,40
550.901,551.1216,66,60,40
551.1216,551.34216,65,60,40
551.34216,551.56274,74,60,40
551.56274,551.7834,71,60,40
551.7834,552.00397,65,60,40
552.00397,552.22455,64,60,40
552.22455,552.4451,73,60,40
552.4451,552.6657,67,60,40
552.6657,552.8863,64,60,40
552.8863,553.71454,66,60,40
553.7319,554.54785,78,60,40
554.56525,555.38116,79,70,40
555.39856,556.21454,81,80,40
556.2319,557.04785,83,90,40
557.06525,558.37054,85,100,40
558.3895,558.853,86,60,40
558.8739,559.7697,74,60,40
559.8739,560.8337,74,60,40
560.9453,561.90515,74,60,40
563.0882,564.1218,72,50,40
564.242,565.2757,72,50,40
566.5497,567.7737,72,50,40
568.9108,571.39343,72,90,40
571.4108,571.99835,60,50,40
572.0108,573.3997,69,50,40
573.3997,573.6775,67,50,40
573.6775,574.5108,72,50,40
574.5108,574.7886,74,50,40
574.7886,575.8881,72,50,40
575.8997,576.44366,64,50,40
576.45526,577.5548,65,50,40
577.5664,578.6659,67,50,40
578.6775,579.2215,57,50,40
578.6775,579.2215,65,50,40
579.23303,581.99927,77,90,40
582.0108,584.2215,77,60,40
584.23303,586.44366,76,60,40
586.45526,588.6659,74,60,40
588.6775,590.8881,76,90,40
591.45526,591.99927,67,60,40
592.0108,593.3997,76,60,40
593.3997,593.6775,74,60,40
593.6775,594.5108,79,60,40
594.5108,594.7886,81,60,40
594.7886,595.8881,79,60,40
595.8997,596.45526,72,60,40
596.45526,597.0108,74,60,40
597.0108,597.8442,76,60,40
597.8442,598.12195,72,70,40
598.12195,598.95526,74,74,40
598.95526,599.23303,76,86,40
599.23303,599.77704,74,90,40
599.7886,600.8881,72,60,40
600.8997,603.11035,60,60,40
603.12195,605.3326,72,60,40
605.3442,607.5548,60,60,40
607.56635,609.0848,60,90,40
609.0963,609.3741,59,61,40
609.3741,610.20746,60,62,40
610.20746,610.4852,62,65,40
610.4852,611.0408,60,66,40
611.0408,613.2514,79,68,40
613.263,615.47363,79,76,40
615.4852,617.69586,77,84,40
617.70746,619.9181,76,92,40
619.9297,622.4296,74,100,40
622.4296,622.70746,71,98,40
622.70746,623.5408,72,95,40
623.5408,623.81854,74,88,40
623.81854,624.3741,72,85,40
624.3741,626.8741,69,80,40
626.8741,627.15186,61,55,40
627.15186,627.9852,62,55,40
627.9852,628.263,64,55,40
628.263,630.01855,62,55,40
630.01855,631.368,61,55,40
631.3822,633.76965,62,50,40
638.8711,639.41504,72,50,40
639.42664,640.80396,81,50,40
640.8155,641.09326,79,50,40
641.09326,641.92664,84,50,40
641.92664,642.2044,86,50,40
642.2044,643.30396,84,50,40
643.3155,643.8711,76,52,40
643.8711,644.42664,77,55,40
644.42664,644.9706,69,58,40
644.9822,647.1928,81,60,40
647.2044,649.41504,79,50,40
649.42664,651.63727,77,50,40
651.64886,652.2044,79,50,40
652.2044,652.75995,72,50,40
652.75995,654.13727,79,50,40
654.14886,654.42664,76,50,40
654.42664,655.25995,77,50,40
655.25995,655.5377,79,50,40
655.5377,656.3711,77,50,40
656.3711,656.64886,76,52,40
656.64886,657.4822,77,55,40
657.4822,657.75995,79,62,40
657.75995,658.30396,77,65,40
658.3155,659.41504,69,70,40
658.3155,659.41504,77,70,40
659.42664,660.5262,65,80,40
660.5377,660.8155,60,90,40
660.8155,661.09326,71,93,40
661.09326,661.92664,72,95,40
661.92664,662.2044,74,103,40
662.2044,663.0262,72,105,40
663.0377,663.3155,72,110,40
663.3155,664.14886,74,110,40
664.14886,664.42664,76,110,40
664.42664,665.24835,74,110,40
665.25995,665.5377,74,110,40
665.5377,666.3711,76,110,40
666.3711,666.64886,77,110,40
666.64886,667.4822,76,110,40
667.4822,667.75995,74,110,40
667.75995,668.59326,76,110,40
668.59326,668.8711,77,110,40
668.8711,669.42664,76,110,40
669.42664,669.7044,74,110,40
669.7044,669.9822,76,110,40
669.9822,670.8377,74,110,40
670.8377,671.13776,76,110,40
671.13776,671.80536,74,110,40
671.8196,674.0302,60,125,40
671.8196,674.0302,69,125,40
674.04175,676.25244,71,125,40
676.264,678.4747,64,125,40
676.264,678.4747,72,125,40
678.4862,680.69684,71,125,40
680.70844,682.91907,64,125,40
680.70844,682.91907,72,125,40
682.93066,685.1413,65,125,40
687.93066,688.4862,59,100,40
688.4862,689.04175,60,97,40
689.04175,689.58575,62,95,40
690.1529,690.70844,60,91,40
690.70844,691.264,62,89,40
691.264,691.8195,64,87,40
691.8195,692.3751,60,84,40
692.3751,693.20844,72,82,40
693.20844,693.4862,76,79,40
693.4862,694.58575,77,78,40
694.59735,695.1529,76,73,40
695.1529,695.70844,74,71,40
695.70844,696.54175,72,69,40
696.54175,696.8195,69,66,40
696.8195,697.6529,71,65,40
697.6529,697.93066,72,62,40
697.93066,698.77466,74,60,40
698.77466,699.0631,72,57,40
699.0631,699.9892,71,56,40
699.9892,700.3153,69,53,40
700.3153,701.0147,67,52,40
701.0296,703.4171,72,90,40
703.4296,705.8171,72,90,40
705.8296,708.2171,71,90,40
710.6296,713.0171,84,50,40
713.0296,715.4171,84,110,40
715.4296,716.6171,83,110,40
716.6296,717.8171,71,110,40
716.6296,717.8171,77,110,40
717.8296,721.4171,71,110,40
717.8296,721.4171,77,110,40
721.4296,722.914,67,110,40
721.4296,722.914,76,110,40
723.5296,724.1296,60,60,40
724.1296,725.6296,69,60,40
725.6296,725.9296,67,60,40
725.9296,726.8296,72,60,40
726.8296,727.1296,74,60,40
727.1296,728.3171,72,60,40
728.3296,728.9296,65,60,40
728.9296,729.5296,67,60,40
729.5296,730.4296,69,60,40
730.4296,730.7296,65,60,40
730.7296,731.6171,67,60,40
731.6296,731.9296,69,60,40
731.9296,732.5171,67,60,40
732.5296,733.7171,69,60,40
733.7296,736.1171,72,60,40
736.1296,737.3171,72,60,40
737.3296,739.7171,77,60,40
739.7296,742.1171,76,60,40
742.1296,742.7171,69,60,40
742.7296,743.3171,74,60,40
743.3296,743.9171,72,60,40
743.9296,744.5546,77,60,40
744.5679,747.4975,79,60,40
747.5149,750.11,77,60,40
750.12354,754.023,79,60,40
754.0366,755.2051,84,70,40
755.34094,756.56256,84,80,40
756.7046,758.04834,84,90,40
758.2046,760.91766,69,60,40
758.2046,760.91766,84,60,40
760.9318,763.9162,72,60,40
763.9318,766.9162,84,60,40
766.9318,770.18317,72,50,40
766.9318,770.18317,81,50,40
770.2027,777.68317,72,40,40
770.2027,777.68317,81,40,40
0.0,0.33792418,48,1,41
5.6366553,6.778482,48,60,41
6.7905016,7.932328,53,60,41
7.9443474,9.181327,55,60,41
9.194347,10.543778,48,60,41
9.194347,10.543778,60,60,41
10.557983,13.044963,60,60,41
10.557983,13.044963,48,60,41
13.057983,15.268631,48,60,41
15.280206,17.490852,55,60,41
17.502428,19.713076,53,60,41
19.72465,21.935297,55,60,41
21.94687,24.157518,48,100,41
24.169094,25.31092,50,100,41
25.322939,26.613699,52,100,41
26.627287,29.222393,53,98,41
33.680424,34.77996,59,60,41
34.791534,35.89107,50,60,41
34.791534,35.89107,62,60,41
35.902645,37.04447,60,60,41
35.902645,37.04447,52,60,41
37.05649,38.293472,53,60,41
38.30649,40.793472,52,60,41
40.80649,43.01714,53,68,41
43.028713,45.23936,55,76,41
45.250935,47.461586,53,84,41
47.47316,49.683807,52,92,41
49.69538,51.90603,48,100,41
51.917603,53.05943,50,90,41
53.07145,54.36221,53,75,41
53.07145,54.36221,55,75,41
54.375797,56.671467,52,60,41
54.375797,56.671467,55,60,41
58.99118,60.133007,55,60,41
60.145027,61.286854,48,60,41
61.29887,62.398407,50,60,41
62.40998,63.509518,52,60,41
63.521095,64.66292,53,60,41
64.67494,65.9657,52,60,41
65.97929,68.36678,52,60,41
68.37929,70.589935,48,60,41
70.60151,72.81216,55,68,41
72.82373,75.03438,52,76,41
72.82373,75.03438,55,76,41
75.04595,77.2566,57,85,41
77.26817,79.47882,53,93,41
79.490395,81.78607,55,102,41
79.490395,81.78607,67,102,41
81.79809,84.185585,55,110,41
81.79809,84.185585,67,110,41
87.7092,88.80874,67,60,41
88.82031,89.919846,59,60,41
89.93142,91.03096,60,60,41
91.042534,92.14207,53,60,41
92.15364,93.25318,55,60,41
93.264755,95.4754,53,60,41
95.48698,97.697624,53,60,41
97.7092,99.919846,53,70,41
99.93142,102.14207,52,80,41
102.15364,104.36429,53,90,41
104.37586,106.58651,53,100,41
106.59808,107.78558,52,100,41
107.79809,109.088844,48,80,41
107.79809,109.088844,55,80,41
109.10243,111.69754,48,60,41
115.044464,116.144,48,60,41
116.15557,117.25511,57,65,41
117.266685,118.40851,69,76,41
118.420525,119.65751,64,88,41
119.670525,121.01996,62,100,41
121.034164,123.74723,53,60,41
121.034164,123.74723,60,60,41
123.76144,126.057106,53,65,41
123.76144,126.057106,60,65,41
126.06913,128.3648,65,76,41
128.37682,130.6725,64,88,41
130.68451,133.1715,65,100,41
133.18451,135.48018,53,60,41
135.4922,137.78787,50,60,41
137.7999,138.77345,57,65,41
138.95374,139.96625,57,76,41
140.15375,141.25429,57,88,41
141.45808,142.72371,57,100,41
142.95808,143.4905,54,110,41
142.95808,143.4905,57,110,41
144.0692,144.54837,66,110,41
146.0692,146.4685,57,60,41
146.90253,147.30183,64,60,41
146.90253,147.30183,69,60,41
148.5692,148.9685,54,110,41
149.40253,149.80183,66,110,41
149.40253,149.80183,62,110,41
151.0692,151.4685,54,60,41
151.90253,152.30183,73,60,41
151.90253,152.30183,66,60,41
153.5692,153.9685,59,110,41
154.40253,154.80183,62,110,41
154.40253,154.80183,71,110,41
156.0692,156.4685,62,60,41
156.90253,157.30183,74,60,41
157.73586,159.39384,50,60,41
159.40253,160.22719,52,79,41
160.23586,161.06052,54,93,41
161.0692,161.89384,57,100,41
161.90253,163.1904,52,100,41
163.1904,163.66957,55,65,41
163.6904,164.126,54,110,41
164.5995,165.0351,66,110,41
166.50859,166.9079,52,60,41
167.34192,167.74123,69,60,41
169.00859,169.4079,50,110,41
169.84192,170.24123,62,110,41
171.50859,171.90788,54,60,41
172.34192,172.74123,66,60,41
173.59192,173.99123,60,60,41
173.59192,173.99123,62,60,41
174.00859,174.40788,55,110,41
174.84192,175.24123,71,110,41
174.84192,175.24123,62,110,41
176.50858,176.90788,57,60,41
176.50858,176.90788,62,60,41
177.34192,177.74123,74,60,41
178.17525,179.97397,50,60,41
179.98315,180.85631,52,60,41
180.86551,181.73866,54,60,41
181.74786,182.64748,61,60,41
182.65695,183.58469,62,60,41
183.59445,184.07832,61,60,41
181.74786,184.58478,52,60,41
184.07832,184.58478,62,60,41
184.59557,184.90807,52,60,41
185.03674,185.34924,64,60,41
185.91908,186.34189,62,60,41
186.80144,187.22423,64,60,41
187.68379,188.10658,54,60,41
187.68379,188.10658,57,60,41
188.56615,188.98894,61,60,41
189.4485,189.87129,62,60,41
189.88968,190.20218,49,60,41
190.33086,190.64336,61,60,41
191.21321,191.636,62,60,41
192.09555,192.51836,64,60,41
192.9779,193.4007,66,60,41
193.87363,194.30923,73,60,41
194.79692,195.29247,74,60,41
195.79205,195.98303,59,50,41
195.79205,195.98303,62,50,41
196.00038,196.19136,59,50,41
196.00038,196.19136,62,50,41
196.62538,196.81636,59,50,41
196.62538,196.81636,62,50,41
196.83372,197.02469,59,50,41
196.83372,197.02469,62,50,41
197.45872,197.64969,64,50,41
197.45872,197.64969,59,50,41
197.66705,197.85803,64,50,41
197.66705,197.85803,59,50,41
198.29205,198.48303,61,50,41
198.29205,198.48303,64,50,41
198.50038,198.69136,61,50,41
198.50038,198.69136,64,50,41
199.12538,199.31636,61,50,41
199.12538,199.31636,64,50,41
199.33372,199.52469,61,50,41
199.33372,199.52469,64,50,41
199.95872,200.14969,61,50,41
199.95872,200.14969,64,50,41
200.16705,200.35803,61,50,41
200.16705,200.35803,64,50,41
200.79205,200.98303,64,55,41
200.79205,200.98303,55,55,41
201.00038,201.19136,52,57,41
201.00038,201.19136,55,57,41
201.62538,201.8112,52,65,41
201.62538,201.8112,55,65,41
201.8281,202.0139,52,68,41
201.8281,202.0139,55,68,41
202.4362,202.62201,52,76,41
202.4362,202.62201,55,76,41
202.6389,202.8247,52,79,41
202.6389,202.8247,55,79,41
203.23634,203.41727,52,87,41
203.23634,203.41727,55,87,41
203.4337,203.61462,52,89,41
203.4337,203.61462,55,89,41
204.01569,204.19197,52,97,41
204.01569,204.19197,55,97,41
204.208,204.38428,52,100,41
204.208,204.38428,55,100,41
204.81697,205.0253,61,108,41
204.81697,205.0253,52,108,41
205.04425,205.2734,61,110,41
205.04425,205.2734,52,110,41
205.29425,206.1844,52,125,41
205.29425,206.1844,61,125,41
206.20334,207.1213,50,110,41
206.20334,207.1213,59,110,41
207.14084,208.12,50,110,41
207.14084,208.12,62,110,41
208.14084,209.12,54,110,41
208.14084,209.12,62,110,41
209.14084,210.39754,55,110,41
210.40869,210.67654,54,90,41
210.67654,210.95433,52,80,41
210.95433,211.25433,50,70,41
211.25433,211.60849,49,60,41
211.75433,212.06683,61,60,41
212.63667,213.05948,62,60,41
213.51903,213.94183,64,60,41
214.40138,214.82417,54,60,41
214.40138,214.82417,57,60,41
215.28374,215.70653,61,60,41
216.16609,216.58888,62,60,41
216.60727,216.91977,64,60,41
216.60727,216.91977,61,60,41
217.04845,217.36095,61,60,41
217.9308,218.35359,59,60,41
217.9308,218.35359,62,60,41
218.81314,219.23595,61,60,41
218.81314,219.23595,64,60,41
219.6955,220.1183,66,60,41
220.59122,221.04044,73,60,41
221.55997,222.07336,74,60,41
222.57295,222.77516,59,50,41
222.57295,222.77516,62,50,41
222.79355,222.99576,59,50,41
222.79355,222.99576,62,50,41
223.4308,223.62178,59,50,41
223.4308,223.62178,62,50,41
223.63913,223.83011,59,50,41
223.63913,223.83011,62,50,41
224.26413,224.45511,59,50,41
224.26413,224.45511,67,50,41
224.47247,224.66344,59,50,41
224.47247,224.66344,67,50,41
225.09747,225.28844,61,50,41
225.09747,225.28844,64,50,41
225.3058,225.49677,61,50,41
225.3058,225.49677,64,50,41
225.9308,226.12177,61,50,41
225.9308,226.12177,64,50,41
226.13913,226.33011,61,50,41
226.13913,226.33011,64,50,41
226.76413,226.95511,61,50,41
226.76413,226.95511,64,50,41
226.97247,227.16344,61,50,41
226.97247,227.16344,64,50,41
227.59747,227.78844,49,55,41
227.59747,227.78844,55,55,41
227.8058,227.99677,49,57,41
227.8058,227.99677,55,57,41
228.4308,228.61661,49,65,41
228.4308,228.61661,55,65,41
228.6335,228.8193,49,68,41
228.6335,228.8193,55,68,41
229.24161,229.42741,49,76,41
229.24161,229.42741,55,76,41
229.4443,229.63013,49,79,41
229.4443,229.63013,55,79,41
230.05241,230.23334,49,87,41
230.05241,230.23334,55,87,41
230.24979,230.43071,49,89,41
230.24979,230.43071,55,89,41
230.83177,231.00806,49,97,41
230.83177,231.00806,55,97,41
231.02408,231.20036,49,100,41
231.02408,231.20036,55,100,41
231.63306,231.84138,52,108,41
231.63306,231.84138,61,108,41
231.86032,232.0895,52,110,41
231.86032,232.0895,61,110,41
232.11032,233.02829,52,125,41
232.11032,233.02829,61,125,41
233.04782,233.96579,50,110,41
233.04782,233.96579,59,110,41
233.98532,234.9645,50,110,41
233.98532,234.9645,62,110,41
234.98532,235.9645,54,110,41
234.98532,235.9645,62,110,41
235.98532,237.22491,55,110,41
237.23532,237.48532,54,90,41
237.48532,237.75319,52,80,41
237.75319,238.05318,50,70,41
238.05318,238.92635,54,60,41
238.93553,240.68185,50,60,41
240.70024,249.06421,50,60,41
249.0826,249.52377,61,73,41
249.52377,249.96494,62,82,41
249.96494,250.40611,61,90,41
250.40611,250.84729,62,85,41
250.84729,251.2701,60,70,41
251.28847,251.72964,60,60,41
251.72964,252.17082,58,60,41
252.17082,252.612,59,60,41
252.612,253.05318,60,60,41
253.05318,253.49435,62,60,41
253.49435,253.91714,59,60,41
253.93553,254.37671,59,60,41
254.37671,254.81789,56,60,41
254.81789,255.25906,57,60,41
255.25906,255.70024,61,60,41
255.70024,256.14142,62,60,41
256.14142,257.00537,57,60,41
257.02377,257.46494,54,60,41
257.46494,257.90613,55,60,41
257.90613,258.3473,61,60,41
258.3473,258.78845,62,60,41
258.78845,259.21127,55,60,41
259.22964,259.6708,55,60,41
259.6708,260.112,54,63,41
260.112,260.55316,62,67,41
260.55316,260.99435,58,71,41
260.99435,261.4631,61,75,41
261.4631,261.92682,59,79,41
261.94696,262.38815,62,83,41
262.38815,262.8293,54,87,41
262.8293,263.2705,57,90,41
263.2705,263.71167,54,90,41
263.71167,264.18042,57,80,41
264.18042,264.64413,55,70,41
264.6643,264.90622,54,60,41
264.90622,265.12683,62,60,41
265.12683,265.3474,66,60,41
265.3474,265.568,64,60,41
265.568,265.78857,62,60,41
265.78857,266.0092,61,62,41
266.0092,266.22977,59,65,41
266.22977,266.45035,57,67,41
266.45035,266.67093,55,70,41
266.67093,266.8915,64,72,41
266.8915,267.11212,61,75,41
267.11212,267.3327,55,77,41
267.3327,267.55328,54,80,41
267.55328,267.77386,62,83,41
267.77386,267.99448,57,85,41
267.99448,268.21506,54,88,41
268.21506,268.44943,53,90,41
268.44943,268.6838,62,93,41
268.6838,268.91818,59,95,41
268.91818,269.15256,53,98,41
269.15256,269.3945,52,100,41
269.3945,269.6364,61,90,41
269.6364,269.89505,55,80,41
269.89505,270.14966,52,70,41
270.17282,271.0754,54,60,41
271.0846,273.71326,50,60,41
273.73163,274.63126,50,90,41
274.64075,276.08295,52,100,41
276.59335,277.3225,50,60,41
277.59335,278.55316,50,55,41
278.6648,279.6246,50,55,41
280.80765,281.8413,55,50,41
281.9615,282.99515,55,50,41
284.26917,285.399,57,50,41
286.67303,288.467,57,60,41
290.14523,291.24478,48,60,41
291.25635,292.91144,57,60,41
292.92303,293.467,52,60,41
292.92303,293.467,55,60,41
293.47858,294.57812,60,60,41
294.5897,295.68924,64,60,41
295.7008,296.80032,57,60,41
296.81192,297.91144,53,60,41
296.81192,297.91144,57,60,41
297.92303,300.13367,69,60,41
300.14523,301.24478,65,60,41
301.25635,302.3559,55,60,41
302.36746,303.467,60,60,41
303.47858,304.57812,57,60,41
304.5897,305.68924,69,60,41
305.7008,306.80032,72,60,41
306.81192,307.91144,67,60,41
307.92303,309.02255,65,65,41
309.03412,310.13367,60,73,41
310.14523,311.3572,62,82,41
310.14523,311.3572,59,82,41
311.37024,312.71967,64,90,41
311.37024,312.71967,60,90,41
312.7339,314.4334,69,60,41
314.44498,314.98898,67,60,41
315.00055,315.54453,65,60,41
315.5561,316.1001,67,60,41
316.11166,317.21118,69,60,41
317.22278,318.3223,69,60,41
318.3339,319.98898,62,60,41
320.00055,320.54453,64,60,41
320.5561,322.23212,55,60,41
320.5561,322.23212,62,60,41
322.24414,322.83163,55,60,41
322.24414,322.83163,64,60,41
322.84415,324.1349,53,60,41
324.14847,325.24802,52,60,41
324.14847,325.24802,55,60,41
325.25958,326.35913,64,63,41
325.25958,326.35913,55,63,41
326.3707,327.47025,60,66,41
327.4818,329.69247,72,70,41
329.70404,330.8036,55,77,41
329.70404,330.8036,67,77,41
330.81516,333.0258,48,80,41
330.81516,333.0258,60,80,41
333.03738,336.35913,48,87,41
333.03738,336.35913,60,87,41
336.3707,338.71204,65,97,41
338.72455,340.07614,65,60,41
340.091,342.90164,64,60,41
342.91324,343.4572,65,60,41
343.46878,344.56833,67,60,41
344.5799,345.67944,55,60,41
345.691,347.3461,48,60,41
347.35767,347.90164,50,60,41
347.91324,349.56833,52,60,41
349.5799,350.12387,53,60,41
350.13544,350.67944,55,60,41
350.691,351.235,48,60,41
351.24655,351.79056,60,60,41
351.80212,352.3461,62,60,41
352.35767,354.56833,64,60,41
354.5799,355.67944,60,64,41
355.691,356.79056,52,68,41
356.80212,357.90164,67,72,41
357.91324,359.01276,55,76,41
357.91324,359.01276,64,76,41
359.02435,360.12387,76,81,41
360.13544,362.3461,72,85,41
362.35767,364.56833,62,93,41
362.35767,364.56833,65,93,41
364.5799,366.81146,60,102,41
364.5799,366.81146,64,102,41
366.8235,370.63757,62,110,41
366.8235,370.63757,59,110,41
370.64917,371.7487,55,60,41
371.76025,372.8598,67,60,41
372.87137,374.52646,60,60,41
374.53806,375.08203,62,60,41
374.53806,375.08203,59,60,41
375.0936,376.7487,64,60,41
375.0936,377.30426,55,60,41
376.76025,377.30426,65,60,41
377.31583,378.41534,67,60,41
377.31583,379.52646,55,60,41
379.53806,381.7487,53,60,41
381.76025,382.8598,60,64,41
382.87137,383.97092,59,68,41
383.98248,386.19315,65,72,41
386.2047,387.30426,64,80,41
387.31583,388.41534,72,84,41
388.42694,390.63757,60,88,41
390.64914,391.7487,59,96,41
391.76025,392.92468,67,100,41
391.76025,392.92468,55,100,41
392.9372,394.28876,55,60,41
394.30365,395.44763,57,60,41
394.30365,395.44763,53,60,41
395.4592,396.55875,53,60,41
398.79254,399.89206,60,60,41
399.90366,401.00317,69,60,41
401.01477,402.1143,48,60,41
402.12585,403.78098,57,60,41
403.79254,404.33652,64,60,41
404.34808,405.44763,62,60,41
405.4592,406.55875,57,60,41
406.5703,408.78094,65,60,41
408.79254,409.89206,72,63,41
409.90366,411.00317,71,66,41
411.01477,413.2254,65,69,41
413.23697,414.33652,64,75,41
414.34808,415.44763,60,79,41
415.4592,416.55875,69,82,41
416.5703,417.66986,57,85,41
417.68143,418.78094,69,88,41
418.79254,419.89206,71,91,41
419.90366,421.00317,62,95,41
421.01474,423.86722,61,98,41
423.8797,424.5183,61,106,41
424.5319,426.06213,64,107,41
426.0795,426.5023,50,110,41
426.96185,427.38464,66,110,41
428.72656,429.14935,64,60,41
429.60892,430.0317,64,60,41
431.37363,431.77292,59,110,41
432.20694,432.60626,71,110,41
433.92264,434.34543,61,60,41
434.805,435.22778,73,60,41
436.5697,436.969,55,110,41
437.403,437.80234,71,110,41
437.403,437.80234,67,110,41
439.1187,439.5415,57,60,41
440.00107,440.42386,69,60,41
440.88342,442.62973,50,60,41
442.64813,443.5121,57,60,41
443.5305,444.39444,54,60,41
443.5305,444.39444,57,60,41
444.41284,445.2768,57,60,41
445.29517,446.15915,52,100,41
445.29517,446.15915,59,100,41
446.17752,446.62674,52,77,41
446.64627,447.1418,55,66,41
446.64627,447.1418,52,66,41
447.16415,447.61633,54,110,41
448.0759,448.4987,66,110,41
449.8406,450.2634,49,60,41
450.72296,451.14575,64,60,41
450.72296,451.14575,61,60,41
452.48767,452.91046,59,110,41
453.37003,453.79282,54,110,41
453.37003,453.79282,62,110,41
455.13474,455.55753,57,60,41
456.0171,456.43988,69,60,41
456.0171,456.43988,73,60,41
457.78177,458.2046,55,110,41
458.66412,459.0869,71,110,41
458.66412,459.0869,62,110,41
460.47205,460.89484,54,60,41
461.3544,461.7772,69,60,41
461.3544,461.7772,66,60,41
462.67792,463.5419,62,60,41
463.56027,464.42426,62,65,41
464.44263,465.3066,64,75,41
465.32498,465.74777,66,85,41
466.20734,466.6485,69,95,41
466.6485,467.9996,64,100,41
467.9996,468.49515,62,80,41
468.51746,468.87164,64,60,41
469.01746,469.32996,52,60,41
469.8998,470.3226,62,60,41
470.78217,471.20496,64,60,41
471.66452,472.0873,66,60,41
472.54688,472.96967,61,60,41
473.42923,473.85202,62,60,41
473.8704,474.1829,61,60,41
474.31158,474.62408,49,60,41
475.19394,475.61673,62,60,41
476.0763,476.49908,64,60,41
476.95865,477.38144,66,60,41
477.85437,478.3036,73,60,41
478.82312,479.35538,74,60,41
479.8281,480.0245,59,50,41
480.0424,480.2388,59,50,41
480.66208,480.84787,59,50,41
480.86478,481.05057,59,50,41
481.47287,481.6587,59,50,41
481.67557,481.8614,59,50,41
482.2837,482.46948,64,50,41
482.2837,482.46948,61,50,41
482.4864,482.6722,64,50,41
482.4864,482.6722,61,50,41
483.09448,483.2803,64,50,41
483.09448,483.2803,61,50,41
483.2972,483.483,64,50,41
483.2972,483.483,61,50,41
483.9053,484.09113,64,50,41
483.9053,484.09113,61,50,41
484.108,484.29382,64,50,41
484.108,484.29382,61,50,41
484.71613,484.90192,49,55,41
484.71613,484.90192,55,55,41
484.91882,485.10464,49,57,41
484.91882,485.10464,55,57,41
485.52692,485.70786,49,65,41
485.52692,485.70786,55,65,41
485.7243,485.9052,49,67,41
485.7243,485.9052,55,67,41
486.3164,486.4973,49,75,41
486.3164,486.4973,55,75,41
486.51376,486.6947,49,77,41
486.51376,486.6947,55,77,41
487.09576,487.27203,49,85,41
487.09576,487.27203,55,85,41
487.28806,487.46436,49,88,41
487.28806,487.46436,55,88,41
487.85538,488.02725,49,95,41
487.85538,488.02725,55,95,41
488.04288,488.21475,49,98,41
488.04288,488.21475,55,98,41
488.6251,488.81607,52,105,41
488.6251,488.81607,61,105,41
488.83344,489.0626,52,108,41
488.83344,489.0626,61,108,41
489.08344,489.94742,52,110,41
489.08344,489.94742,61,110,41
489.9658,490.82977,50,110,41
489.9658,490.82977,59,110,41
490.84814,492.7036,50,110,41
490.84814,492.7036,62,110,41
492.72314,494.10986,57,110,41
494.1294,494.3794,61,72,41
494.3794,494.62494,62,66,41
494.64725,495.54062,64,60,41
495.55902,497.30533,69,60,41
505.74133,505.94354,62,50,41
505.74133,505.94354,59,50,41
505.9619,506.16412,62,50,41
505.9619,506.16412,59,50,41
506.6058,506.79163,62,50,41
506.6058,506.79163,59,50,41
506.8085,506.99432,62,50,41
506.8085,506.99432,59,50,41
507.41663,507.60242,62,50,41
507.41663,507.60242,59,50,41
507.61932,507.80515,62,50,41
507.61932,507.80515,59,50,41
508.22742,508.41324,64,50,41
508.22742,508.41324,61,50,41
508.43015,508.61594,64,50,41
508.43015,508.61594,61,50,41
509.03824,509.22406,64,50,41
509.03824,509.22406,61,50,41
509.24094,509.42676,64,50,41
509.24094,509.42676,61,50,41
509.84906,510.03485,64,50,41
509.84906,510.03485,61,50,41
510.05176,510.23755,64,50,41
510.05176,510.23755,61,50,41
510.65985,510.8408,64,52,41
510.65985,510.8408,55,52,41
510.85724,511.03815,64,55,41
510.85724,511.03815,55,55,41
511.44934,511.6256,64,62,41
511.44934,511.6256,55,62,41
511.64163,511.81793,64,65,41
511.64163,511.81793,55,65,41
512.21857,512.39044,64,72,41
512.21857,512.39044,55,72,41
512.40607,512.57794,64,75,41
512.40607,512.57794,55,75,41
512.78107,512.95294,55,80,41
512.78107,512.95294,64,80,41
513.34357,513.51544,49,88,41
513.34357,513.51544,55,88,41
513.53107,513.70294,49,90,41
513.53107,513.70294,55,90,41
514.09357,514.26544,49,98,41
514.09357,514.26544,55,98,41
514.28107,514.462,49,100,41
514.28107,514.462,55,100,41
514.47845,514.65936,49,103,41
514.47845,514.65936,55,103,41
514.6758,514.86676,49,105,41
514.6758,514.86676,55,105,41
514.88416,515.1133,55,108,41
514.88416,515.1133,49,108,41
515.13416,515.60474,73,110,41
515.60474,516.0275,69,110,41
516.0459,516.48706,69,110,41
516.48706,516.90985,62,110,41
516.9282,517.36945,62,110,41
517.36945,517.83295,54,110,41
517.8538,518.83295,54,110,41
518.8538,519.83295,55,110,41
519.8538,520.02045,54,110,41
520.1038,520.3538,54,100,41
520.3538,520.62164,52,90,41
520.62164,520.89667,50,80,41
520.92163,524.46027,50,60,41
524.47864,526.225,52,60,41
526.24335,527.1073,50,60,41
527.1257,528.872,54,60,41
528.8904,529.7544,50,60,41
529.77277,531.5191,59,60,41
531.97864,532.4198,61,70,41
532.4198,532.86096,62,80,41
532.86096,533.3022,61,90,41
533.3022,533.77094,62,80,41
533.77094,534.25006,61,70,41
534.27094,534.7121,61,60,41
534.7121,535.15326,58,60,41
535.15326,535.5944,59,60,41
535.5944,536.03564,61,60,41
536.03564,536.4768,62,60,41
536.4768,536.8996,59,60,41
536.91797,537.35913,59,60,41
537.35913,537.80035,56,60,41
537.80035,538.2415,57,60,41
538.2415,538.4621,61,60,41
538.4621,538.6827,62,60,41
538.6827,539.12384,62,60,41
539.12384,539.98785,57,60,41
540.0062,540.4474,54,60,41
540.4474,540.88855,55,60,41
540.88855,541.10913,61,60,41
541.10913,541.31134,62,60,41
541.3297,541.77094,62,60,41
541.77094,542.1937,55,60,41
542.2121,542.65326,55,60,41
542.65326,542.87384,53,64,41
542.87384,543.0944,54,66,41
543.0944,543.53564,62,68,41
543.53564,543.9768,58,72,41
543.9768,544.41797,62,77,41
544.41797,544.84076,59,81,41
544.85913,545.30035,62,85,41
545.30035,545.7415,54,90,41
545.7415,546.1827,57,94,41
546.1827,546.62384,54,98,41
546.62384,547.07837,57,100,41
547.07837,547.54193,55,80,41
547.56274,547.81274,54,60,41
547.81274,548.0334,62,60,41
548.0334,548.25397,66,60,41
548.25397,548.47455,64,60,41
548.47455,548.6951,62,60,41
548.6951,548.9157,61,60,41
548.9157,549.1363,59,60,41
549.1363,549.3569,57,60,41
549.3569,549.57745,55,60,41
549.57745,549.7981,64,60,41
549.7981,550.0187,61,60,41
550.0187,550.23926,55,60,41
550.23926,550.45984,54,60,41
550.45984,550.6804,62,60,41
550.6804,550.901,57,60,41
550.901,551.1216,54,60,41
551.1216,551.34216,53,60,41
551.34216,551.56274,62,60,41
551.56274,551.7834,59,60,41
551.7834,552.00397,53,60,41
552.00397,552.22455,52,60,41
552.22455,552.4451,61,60,41
552.4451,552.6657,55,60,41
552.6657,552.8863,52,60,41
552.8863,553.71454,54,60,41
553.7319,554.14856,66,60,41
554.14856,554.54785,54,65,41
554.56525,554.9819,55,70,41
554.9819,555.38116,67,75,41
555.39856,555.81525,69,80,41
555.81525,556.21454,57,85,41
556.2319,556.64856,59,90,41
556.64856,557.04785,71,95,41
557.06525,557.4938,61,100,41
557.4938,557.91656,73,80,41
557.935,558.3895,73,60,41
558.3895,558.853,74,60,41
558.8739,559.7697,50,60,41
558.8739,559.7697,62,60,41
559.8739,560.8337,50,60,41
559.8739,560.8337,62,60,41
560.9453,561.90515,50,60,41
560.9453,561.90515,62,60,41
563.0882,564.1218,55,50,41
564.242,565.2757,55,50,41
566.5497,567.7737,55,50,41
568.9108,571.39343,57,90,41
573.6775,574.23303,55,50,41
574.23303,575.62195,57,50,41
575.62195,575.8997,55,50,41
575.8997,576.73303,60,50,41
576.73303,577.0108,62,50,41
577.0108,578.11035,60,50,41
578.12195,578.6659,64,50,41
578.6775,579.2215,65,50,41
579.23303,579.77704,45,50,41
579.23303,579.77704,53,50,41
579.7886,580.8881,55,90,41
579.7886,581.99927,45,90,41
580.8997,581.99927,53,90,41
588.6775,590.8881,60,90,41
590.8997,593.11035,60,60,41
593.12195,595.3326,59,60,41
595.3442,597.5548,57,60,41
597.56635,599.77704,59,90,41
600.3442,600.8997,48,60,41
600.8997,602.2886,57,60,41
602.2886,602.56635,55,60,41
602.56635,603.3997,60,60,41
603.3997,603.6775,62,60,41
603.6775,604.77704,60,60,41
604.7886,605.3442,53,60,41
605.3442,605.8997,55,60,41
605.8997,606.73303,57,60,41
606.73303,607.0108,53,65,41
607.0108,607.8664,55,70,41
607.8664,608.1664,57,85,41
608.1664,608.80493,55,90,41
608.81854,609.0963,52,60,41
609.0963,609.3741,50,61,41
609.3741,610.20746,52,62,41
610.20746,610.4852,53,65,41
610.4852,611.0408,52,66,41
611.5963,612.4297,59,70,41
612.4297,612.70746,60,73,41
612.70746,613.2514,59,74,41
613.81854,614.6403,60,78,41
614.65186,614.9181,62,81,41
614.9297,615.47363,60,82,41
615.4852,617.69586,67,84,41
617.70746,619.9181,67,92,41
619.9297,622.1403,67,100,41
622.15186,622.70746,67,100,41
622.70746,623.263,55,95,41
623.263,624.65186,67,90,41
624.65186,624.9296,64,77,41
624.9296,625.763,65,75,41
625.763,626.0408,67,67,41
626.0408,628.81854,65,65,41
628.81854,631.368,64,55,41
631.3822,633.76965,57,50,41
636.64886,637.2044,60,50,41
637.2044,638.59326,69,50,41
638.59326,638.8711,67,50,41
638.8711,639.7044,72,50,41
639.7044,639.9822,74,50,41
639.9822,641.0817,72,50,41
640.5377,641.0817,64,50,41
641.09326,641.63727,64,50,41
641.64886,642.7484,65,50,41
642.75995,643.8595,67,50,41
643.8711,645.5262,65,55,41
645.5377,646.0817,48,50,41
646.09326,647.4822,57,50,41
647.4822,647.75995,55,50,41
647.75995,648.59326,60,50,41
648.59326,648.8711,62,50,41
648.8711,649.9706,60,50,41
649.9822,650.5377,53,50,41
650.5377,651.09326,55,50,41
651.09326,651.92664,57,50,41
651.92664,652.2044,53,50,41
652.2044,653.0377,55,50,41
653.0377,653.3155,57,50,41
653.3155,653.8595,55,50,41
653.8711,654.42664,57,50,41
654.42664,654.9822,48,50,41
654.9822,656.0817,69,50,41
656.09326,656.64886,62,50,41
656.64886,657.2044,59,55,41
657.2044,658.30396,62,60,41
657.2044,658.30396,71,60,41
658.3155,658.59326,72,70,41
658.59326,658.8711,71,72,41
658.8711,659.7044,72,75,41
659.7044,659.9822,74,82,41
659.9822,660.8155,72,85,41
660.8155,661.09326,62,93,41
661.09326,661.92664,64,95,41
661.92664,662.2044,65,103,41
662.2044,663.0262,64,105,41
663.0377,663.3155,64,110,41
663.3155,664.14886,65,110,41
664.14886,664.42664,67,110,41
664.42664,664.9822,65,110,41
664.9822,665.25995,67,110,41
665.25995,665.5377,59,110,41
665.5377,666.3711,60,110,41
666.3711,666.64886,62,110,41
666.64886,667.4822,60,110,41
667.4822,667.75995,71,110,41
667.75995,668.59326,72,110,41
668.59326,668.8711,74,110,41
668.8711,669.42664,72,110,41
669.42664,669.7044,65,110,41
669.7044,669.9822,60,110,41
669.9822,670.8377,62,110,41
670.8377,671.13776,60,110,41
671.13776,671.80536,62,110,41
671.8196,674.0302,48,125,41
671.8196,674.0302,60,125,41
674.04175,676.25244,65,125,41
676.264,678.4747,55,125,41
676.264,678.4747,64,125,41
678.4862,680.69684,65,125,41
680.70844,682.91907,55,125,41
680.70844,682.91907,64,125,41
682.93066,685.1413,59,125,41
685.70844,686.264,52,108,41
686.264,686.8196,53,106,41
686.8196,687.6529,55,104,41
687.6529,687.93066,52,101,41
687.93066,688.764,53,100,41
688.764,689.04175,55,96,41
689.04175,690.1413,57,95,41
690.1529,690.70844,55,91,41
690.70844,691.264,57,89,41
691.264,692.09735,60,87,41
692.09735,692.3751,55,83,41
692.3751,693.20844,57,82,41
693.20844,693.4862,60,79,41
693.4862,694.0302,72,78,41
694.04175,694.59735,48,76,41
694.59735,695.1529,52,73,41
695.1529,695.70844,53,71,41
695.70844,696.54175,55,69,41
696.54175,696.8195,52,66,41
696.8195,697.6529,53,65,41
697.6529,697.93066,55,62,41
697.93066,698.4747,57,60,41
698.4862,698.77466,59,58,41
698.77466,699.0631,60,57,41
699.0631,699.9892,62,56,41
699.9892,700.3153,64,53,41
700.3153,701.0296,65,52,41
702.2296,703.4171,55,90,41
702.2296,703.4171,64,90,41
703.4296,705.8171,55,90,41
703.4296,705.8171,64,90,41
705.8296,708.2171,55,90,41
705.8296,708.2171,62,90,41
708.2296,710.6171,62,90,41
710.6296,713.0171,60,90,41
713.0296,715.4171,64,110,41
713.0296,715.4171,72,110,41
715.4296,717.8171,62,110,41
715.4296,717.8171,65,110,41
717.8296,721.4171,59,110,41
717.8296,721.4171,65,110,41
721.4296,722.914,48,110,41
721.4296,722.914,60,110,41
722.9296,725.3171,48,60,41
722.9296,725.3171,60,60,41
725.3296,727.7171,55,60,41
727.7296,730.1171,53,60,41
730.1296,732.5171,52,60,41
732.5296,734.9171,65,60,41
734.9296,737.9171,64,60,41
737.9296,738.5171,64,60,41
738.5296,740.3171,62,60,41
740.3296,740.9171,74,60,41
740.9296,742.1171,72,60,41
742.1296,747.4975,48,60,41
742.1296,747.4975,60,60,41
747.5149,750.11,65,60,41
750.12354,754.023,55,60,41
750.12354,754.023,64,60,41
754.0366,755.2051,55,70,41
754.0366,755.2051,67,70,41
755.34094,756.56256,55,80,41
755.34094,756.56256,65,80,41
756.7046,758.04834,55,90,41
756.7046,758.04834,67,90,41
758.2046,760.91766,57,60,41
758.2046,760.91766,65,60,41
760.9318,763.9162,69,60,41
763.9318,766.9162,72,60,41
766.9318,770.18317,69,50,41
770.2027,777.68317,69,40,41
0.0,0.33792418,48,1,42
7.9443474,9.181327,36,60,42
9.194347,10.543778,45,60,42
10.557983,13.044963,41,60,42
13.057983,15.268631,45,60,42
15.280206,17.490852,48,60,42
17.502428,19.713076,50,60,42
19.72465,21.935297,48,60,42
21.94687,24.157518,45,100,42
24.169094,25.31092,43,100,42
25.322939,26.613699,48,100,42
26.627287,29.222393,50,93,42
33.680424,34.77996,55,60,42
34.791534,35.89107,47,60,42
35.902645,37.04447,48,60,42
37.05649,38.293472,50,60,42
38.30649,40.793472,48,60,42
40.80649,43.01714,41,68,42
43.028713,45.23936,40,76,42
45.250935,47.461586,41,84,42
47.47316,49.683807,43,92,42
49.69538,51.90603,45,100,42
51.917603,53.05943,47,90,42
53.07145,54.36221,43,75,42
54.375797,56.671467,36,60,42
54.375797,56.671467,43,60,42
56.683487,57.825314,55,60,42
57.837334,58.97916,48,60,42
58.99118,60.133007,50,60,42
60.145027,61.286854,52,60,42
61.29887,62.398407,53,60,42
62.40998,63.509518,52,60,42
63.521095,64.66292,50,60,42
64.67494,65.9657,48,60,42
65.97929,68.36678,45,60,42
68.37929,70.589935,45,60,42
70.60151,72.81216,52,68,42
72.82373,75.03438,48,76,42
75.04595,77.2566,53,85,42
77.26817,79.47882,50,93,42
79.490395,81.78607,48,102,42
81.79809,84.185585,43,110,42
88.82031,89.919846,55,60,42
89.93142,91.03096,48,60,42
91.042534,92.14207,50,60,42
92.15364,93.25318,52,60,42
93.264755,95.4754,45,60,42
95.48698,97.697624,45,60,42
97.7092,99.919846,43,70,42
99.93142,102.14207,48,80,42
102.15364,104.36429,41,90,42
104.37586,106.58651,43,100,42
106.59808,109.088844,36,100,42
109.10243,111.69754,41,100,42
116.15557,117.25511,45,65,42
117.266685,118.40851,53,76,42
118.420525,119.65751,55,88,42
119.670525,121.01996,43,100,42
121.034164,123.74723,45,60,42
123.76144,126.057106,45,65,42
126.06913,128.3648,43,76,42
128.37682,130.6725,48,88,42
130.68451,133.1715,41,100,42
133.18451,135.48018,50,60,42
135.4922,137.78787,43,60,42
137.7999,138.77345,45,65,42
138.95374,139.96625,45,76,42
140.15375,141.25429,45,88,42
141.45808,142.72371,45,100,42
142.95808,143.4905,38,110,42
144.0692,144.54837,50,110,42
146.0692,146.4685,49,60,42
146.90253,147.30183,61,60,42
148.5692,148.9685,47,110,42
149.40253,149.80183,59,110,42
151.0692,151.4685,45,60,42
151.90253,152.30183,57,60,42
153.5692,153.9685,43,110,42
154.40253,154.80183,55,110,42
156.0692,156.4685,54,60,42
156.90253,157.30183,66,60,42
157.73586,159.39384,47,60,42
159.40253,160.22719,49,79,42
160.23586,161.06052,50,93,42
161.0692,161.89384,52,100,42
161.90253,162.72717,44,100,42
162.73586,163.68,45,77,42
163.6904,164.126,38,110,42
164.5995,165.0351,50,110,42
166.50859,166.9079,49,60,42
167.34192,167.74123,61,60,42
169.00859,169.4079,47,110,42
169.84192,170.24123,59,110,42
171.50859,171.90788,45,60,42
172.34192,172.74123,57,60,42
173.59192,173.99123,57,60,42
174.00859,174.40788,43,110,42
174.84192,175.24123,55,110,42
176.50858,176.90788,42,60,42
177.34192,177.74123,54,60,42
178.17525,179.97397,47,60,42
179.98315,180.85631,49,60,42
180.86551,181.73866,50,60,42
181.74786,182.64748,52,60,42
182.65695,183.58469,44,60,42
183.59445,184.07832,45,60,42
184.07832,184.58478,47,60,42
184.59557,184.90807,49,60,42
185.03674,185.34924,61,60,42
185.91908,186.34189,59,60,42
186.80144,187.22423,61,60,42
187.68379,188.10658,50,60,42
188.56615,188.98894,52,60,42
189.4485,189.87129,50,60,42
189.88968,190.20218,45,60,42
190.33086,190.64336,57,60,42
191.21321,191.636,59,60,42
192.09555,192.51836,61,60,42
192.9779,193.4007,62,60,42
193.87363,194.30923,64,60,42
194.79692,195.29247,62,60,42
195.79205,195.98303,55,50,42
196.00038,196.19136,55,50,42
196.62538,196.81636,55,50,42
196.83372,197.02469,55,50,42
197.45872,197.64969,55,50,42
197.66705,197.85803,55,50,42
198.29205,198.48303,57,50,42
198.50038,198.69136,57,50,42
199.12538,199.31636,57,50,42
199.33372,199.52469,57,50,42
199.95872,200.14969,57,50,42
200.16705,200.35803,57,50,42
200.79205,200.98303,49,55,42
201.00038,201.19136,49,57,42
201.62538,201.8112,49,65,42
201.8281,202.0139,49,68,42
202.4362,202.62201,49,76,42
202.6389,202.8247,49,79,42
203.23634,203.41727,49,87,42
203.4337,203.61462,49,89,42
204.01569,204.19197,49,97,42
204.208,204.38428,49,100,42
204.81697,205.0253,43,108,42
205.04425,205.2734,43,110,42
205.29425,206.1844,43,125,42
206.20334,207.1213,44,110,42
207.14084,209.12,45,110,42
209.14084,210.12,37,110,42
210.14084,210.65424,38,100,42
210.67654,211.22932,45,80,42
211.25433,211.60849,45,60,42
211.75433,212.06683,57,60,42
212.63667,213.05948,59,60,42
213.51903,213.94183,61,60,42
214.40138,214.82417,50,60,42
215.28374,215.70653,52,60,42
216.16609,216.58888,50,60,42
216.60727,216.91977,57,60,42
217.04845,217.36095,45,60,42
217.9308,218.35359,57,60,42
218.81314,219.23595,57,60,42
219.6955,220.1183,62,60,42
220.59122,221.04044,64,60,42
221.55997,222.07336,62,60,42
222.57295,222.77516,55,50,42
222.79355,222.99576,55,50,42
223.4308,223.62178,55,50,42
223.63913,223.83011,55,50,42
224.26413,224.45511,55,50,42
224.47247,224.66344,55,50,42
225.09747,225.28844,57,50,42
225.09747,225.28844,67,50,42
225.3058,225.49677,57,50,42
225.3058,225.49677,67,50,42
225.9308,226.12177,57,50,42
225.9308,226.12177,67,50,42
226.13913,226.33011,57,50,42
226.13913,226.33011,67,50,42
226.76413,226.95511,57,50,42
226.76413,226.95511,67,50,42
226.97247,227.16344,57,50,42
226.97247,227.16344,67,50,42
227.59747,227.78844,57,55,42
227.59747,227.78844,67,55,42
227.8058,227.99677,57,57,42
227.8058,227.99677,67,57,42
228.4308,228.61661,57,65,42
228.4308,228.61661,67,65,42
228.6335,228.8193,57,68,42
228.6335,228.8193,67,68,42
229.24161,229.42741,57,76,42
229.24161,229.42741,67,76,42
229.4443,229.63013,57,79,42
229.4443,229.63013,67,79,42
230.05241,230.23334,57,87,42
230.05241,230.23334,67,87,42
230.24979,230.43071,57,89,42
230.24979,230.43071,67,89,42
230.83177,231.00806,57,97,42
230.83177,231.00806,67,97,42
231.02408,231.20036,57,100,42
231.02408,231.20036,67,100,42
231.63306,231.84138,43,108,42
231.86032,232.0895,43,110,42
232.11032,233.02829,43,125,42
233.04782,233.96579,44,110,42
233.98532,235.9645,45,110,42
235.98532,236.9645,37,110,42
236.98532,237.4645,38,100,42
237.48532,238.02818,50,80,42
238.05318,238.49435,48,60,42
238.49435,238.93553,46,60,42
238.93553,239.37671,47,60,42
239.37671,239.81789,48,60,42
239.81789,240.25906,50,60,42
240.25906,240.68185,48,60,42
240.70024,241.14142,48,60,42
241.14142,241.5826,46,60,42
241.5826,242.02377,47,60,42
242.02377,242.46495,49,60,42
242.46495,242.90613,50,60,42
242.90613,243.32892,47,60,42
243.3473,243.78847,47,60,42
243.78847,244.22964,44,60,42
244.22964,244.67082,45,60,42
244.67082,245.112,49,60,42
245.112,245.55318,50,60,42
245.55318,245.97597,45,60,42
245.99435,246.43553,45,60,42
246.43553,246.87671,42,60,42
246.87671,247.31789,43,60,42
247.31789,247.75906,49,60,42
247.75906,248.20024,50,60,42
248.20024,248.62303,43,60,42
248.64142,249.0826,43,65,42
249.0826,249.52377,41,73,42
249.52377,249.96494,42,82,42
249.96494,250.40611,41,90,42
250.40611,250.84729,38,85,42
250.84729,251.2701,50,70,42
251.28847,251.72964,38,60,42
251.72964,252.17082,50,60,42
252.17082,252.612,38,60,42
252.612,253.05318,50,60,42
253.05318,253.49435,38,60,42
253.49435,253.91714,50,60,42
253.93553,254.37671,38,60,42
254.37671,254.81789,50,60,42
254.81789,255.25906,38,60,42
255.25906,255.70024,50,60,42
255.70024,256.14142,38,60,42
256.14142,256.5642,50,60,42
256.58258,257.02377,38,60,42
257.02377,257.46494,50,60,42
257.46494,257.90613,38,60,42
257.90613,258.3473,50,60,42
258.3473,258.78845,38,60,42
258.78845,259.21127,50,60,42
259.22964,259.6708,38,60,42
259.6708,260.112,50,63,42
260.112,260.55316,42,67,42
260.55316,260.99435,50,71,42
260.99435,261.4631,44,75,42
261.4631,261.92682,50,79,42
261.94696,262.38815,45,83,42
262.38815,262.8293,50,87,42
262.8293,263.2705,45,90,42
263.2705,263.71167,50,90,42
263.71167,264.18042,45,80,42
264.18042,264.64413,49,70,42
264.6643,265.5588,45,60,42
265.568,266.44116,38,60,42
266.45035,267.32352,40,70,42
267.3327,268.20587,42,80,42
268.21506,269.1428,44,90,42
269.15256,270.16125,45,100,42
270.17282,270.42282,50,60,42
270.42282,270.6434,54,60,42
270.6434,270.86398,57,60,42
270.86398,271.0846,55,60,42
271.0846,271.30518,54,60,42
271.30518,271.52576,52,62,42
271.52576,271.74634,50,65,42
271.74634,271.96695,48,67,42
271.96695,272.18753,47,70,42
272.18753,272.4081,55,72,42
272.4081,272.6287,50,75,42
272.6287,272.8493,47,77,42
272.8493,273.0699,45,80,42
273.0699,273.29047,54,83,42
273.29047,273.51105,50,85,42
273.51105,273.73163,45,88,42
273.73163,273.95892,44,90,42
273.95892,274.1862,54,93,42
274.1862,274.41345,50,95,42
274.41345,274.64075,44,98,42
274.64075,274.87512,43,100,42
274.87512,275.1095,45,90,42
275.1095,275.3514,43,80,42
275.3514,275.57318,40,70,42
275.59335,275.84335,38,60,42
275.84335,276.09335,45,60,42
276.09335,276.34335,42,60,42
276.34335,276.5725,38,60,42
276.59335,277.3225,38,60,42
277.59335,278.55316,38,55,42
278.6648,279.6246,38,55,42
280.80765,281.8413,52,50,42
281.9615,282.99515,52,50,42
284.26917,285.399,53,50,42
286.67303,288.467,53,60,42
292.36746,293.467,48,60,42
293.47858,295.13367,57,60,42
295.14523,295.68924,55,60,42
295.7008,297.3559,60,60,42
297.36746,297.91144,60,60,42
297.92303,299.57812,53,60,42
299.5897,300.13367,45,60,42
300.14523,301.24478,57,60,42
301.25635,301.80032,60,60,42
301.81192,302.3559,48,60,42
302.36746,303.467,60,60,42
303.47858,304.02255,62,60,42
304.03412,304.57812,50,60,42
304.5897,306.24478,62,60,42
306.25635,306.80032,48,60,42
306.81192,307.91144,60,60,42
307.92303,308.467,55,65,42
308.47858,309.02255,45,69,42
309.03412,310.13367,57,73,42
310.14523,310.73276,55,82,42
310.74524,311.3572,43,86,42
311.37024,312.71967,60,90,42
312.7339,313.32138,62,60,42
313.3339,313.87787,50,60,42
313.88943,315.54453,62,60,42
315.5561,316.1001,64,60,42
316.11166,317.76675,65,60,42
317.77832,318.3223,67,60,42
318.3339,318.87787,65,60,42
318.88943,319.4334,55,60,42
319.44498,320.54453,55,60,42
320.5561,322.23212,47,60,42
322.24414,322.83163,48,60,42
322.84415,324.69247,50,60,42
324.70404,325.24802,48,61,42
325.25958,326.91467,60,63,42
326.92627,327.47025,60,68,42
327.4818,329.1369,53,70,42
329.14847,329.69247,53,75,42
329.70404,331.35913,52,77,42
331.3707,331.91467,41,82,42
331.92627,333.58136,53,83,42
333.59293,334.1369,43,89,42
334.14847,335.8036,55,90,42
335.81516,336.35913,45,95,42
336.3707,338.11206,57,97,42
338.12454,338.71204,43,60,42
338.72455,340.6785,55,60,42
340.691,341.235,55,60,42
341.24655,342.3461,48,60,42
342.35767,343.4572,67,60,42
343.46878,345.12387,60,60,42
345.13547,345.67944,62,60,42
345.691,347.3461,64,60,42
347.35767,347.90164,65,60,42
347.91324,349.01276,67,60,42
349.02435,349.56833,55,60,42
349.5799,350.12387,48,60,42
350.13544,351.79056,60,60,42
351.80212,352.3461,59,60,42
352.35767,354.01276,57,60,42
354.02435,354.56833,52,62,42
354.5799,355.12387,45,64,42
355.13544,355.67944,57,66,42
355.691,356.235,64,68,42
356.24655,356.79056,52,70,42
356.80212,358.4572,64,72,42
358.46878,359.01276,48,79,42
359.02435,360.67944,60,81,42
360.691,361.235,60,87,42
361.24655,362.90164,65,89,42
362.91324,363.4572,64,96,42
363.46878,365.12387,62,98,42
365.13544,365.67944,60,104,42
365.691,367.41098,55,106,42
367.4235,368.0485,45,60,42
368.06177,370.0811,43,60,42
370.0936,370.63757,53,60,42
370.64917,372.30426,52,60,42
372.31583,372.8598,59,60,42
372.87137,373.97092,60,60,42
373.98248,375.08203,55,60,42
375.0936,376.7487,48,60,42
376.76025,377.30426,50,60,42
377.31583,378.41534,52,60,42
378.42694,378.97092,57,60,42
378.98248,379.52646,45,60,42
379.53806,381.19315,57,60,42
381.2047,381.7487,69,62,42
381.76025,382.8598,57,64,42
382.87137,383.41534,55,68,42
383.42694,383.97092,43,70,42
383.98248,385.63757,55,72,42
385.64914,386.19315,48,78,42
386.2047,387.8598,60,80,42
387.87137,388.41534,55,86,42
388.42694,389.52646,53,88,42
389.53806,390.08203,55,92,42
390.0936,390.63757,43,94,42
390.64914,392.32516,55,96,42
392.3372,392.92468,48,60,42
392.9372,394.89114,60,60,42
394.90366,395.44763,53,60,42
395.4592,396.55875,65,60,42
401.01477,402.1143,45,100,42
402.12585,403.78098,53,60,42
403.79254,404.33652,55,60,42
404.34808,405.44763,67,60,42
405.4592,406.00317,69,60,42
406.01477,406.55875,57,60,42
406.5703,408.2254,69,60,42
408.23697,408.78094,57,61,42
408.79254,409.89206,69,63,42
409.90366,410.44763,67,66,42
410.4592,411.00317,55,67,42
411.01477,412.66986,67,69,42
412.68143,413.2254,48,74,42
413.23697,414.89206,60,75,42
414.90366,415.44763,60,80,42
415.4592,416.55875,65,82,42
416.5703,417.1143,62,85,42
417.12585,417.66986,50,87,42
417.68143,418.78094,62,88,42
418.79254,419.33652,55,91,42
419.34808,419.89206,43,93,42
419.90366,421.00317,55,95,42
421.01474,421.55875,57,98,42
421.5703,422.1143,45,99,42
422.12585,425.2313,57,101,42
425.2462,426.06213,47,109,42
426.0795,426.5023,38,110,42
426.96185,427.38464,50,110,42
428.72656,429.14935,49,60,42
429.60892,430.0317,61,60,42
431.37363,431.77292,47,110,42
432.20694,432.60626,59,110,42
433.92264,434.34543,45,60,42
434.805,435.22778,57,60,42
436.5697,436.969,43,110,42
437.403,437.80234,55,110,42
439.1187,439.5415,54,60,42
440.00107,440.42386,66,60,42
440.88342,442.63895,47,60,42
442.64813,443.52127,49,60,42
443.5305,444.40363,50,60,42
444.41284,445.28598,62,60,42
445.29517,446.16833,44,100,42
446.17752,447.15298,45,77,42
447.16415,447.61633,38,110,42
448.0759,448.4987,50,110,42
448.95825,449.38104,62,110,42
450.72296,451.14575,37,60,42
451.60532,452.0281,49,60,42
453.37003,453.79282,47,110,42
454.25238,454.67517,59,110,42
456.0171,456.43988,45,60,42
456.89944,457.32224,57,60,42
458.66412,459.0869,43,110,42
459.54648,459.96927,55,110,42
461.3544,462.21835,54,60,42
462.23676,462.67792,47,60,42
462.67792,463.5419,59,60,42
463.56027,464.42426,59,65,42
464.44263,465.3066,61,75,42
465.32498,465.74777,62,85,42
465.76614,466.63013,64,90,42
466.6485,467.51248,56,100,42
467.53085,467.9996,57,60,42
467.9996,468.49515,59,80,42
468.51746,468.87164,61,60,42
469.01746,469.32996,49,60,42
469.8998,470.3226,59,60,42
470.78217,471.20496,61,60,42
471.66452,472.0873,62,60,42
472.54688,472.96967,52,60,42
473.42923,473.85202,50,60,42
473.8704,474.1829,57,60,42
474.31158,474.62408,45,60,42
475.19394,475.61673,59,60,42
476.0763,476.49908,61,60,42
476.95865,477.38144,62,60,42
477.85437,478.3036,64,60,42
478.82312,479.35538,62,60,42
479.8281,480.0245,55,50,42
480.0424,480.2388,55,50,42
480.66208,480.84787,55,50,42
480.86478,481.05057,55,50,42
481.47287,481.6587,55,50,42
481.67557,481.8614,55,50,42
482.2837,482.46948,57,50,42
482.2837,482.46948,67,50,42
482.4864,482.6722,57,50,42
482.4864,482.6722,67,50,42
483.09448,483.2803,57,50,42
483.09448,483.2803,67,50,42
483.2972,483.483,57,50,42
483.2972,483.483,67,50,42
483.9053,484.09113,57,50,42
483.9053,484.09113,67,50,42
484.108,484.29382,57,50,42
484.108,484.29382,67,50,42
484.71613,484.90192,57,55,42
484.71613,484.90192,67,55,42
484.91882,485.10464,57,57,42
484.91882,485.10464,67,57,42
485.52692,485.70786,57,65,42
485.52692,485.70786,67,65,42
485.7243,485.9052,57,67,42
485.7243,485.9052,67,67,42
486.3164,486.4973,57,75,42
486.3164,486.4973,67,75,42
486.51376,486.6947,57,77,42
486.51376,486.6947,67,77,42
487.09576,487.27203,57,85,42
487.09576,487.27203,67,85,42
487.28806,487.46436,57,88,42
487.28806,487.46436,67,88,42
487.85538,488.02725,57,95,42
487.85538,488.02725,67,95,42
488.04288,488.21475,57,98,42
488.04288,488.21475,67,98,42
488.6251,488.81607,43,105,42
488.83344,489.0626,43,108,42
489.08344,489.94742,43,110,42
489.9658,490.82977,44,110,42
490.84814,492.7036,45,110,42
492.72314,493.6411,37,110,42
493.66064,494.62494,38,85,42
506.18253,506.38474,43,50,42
506.4031,506.58893,43,50,42
507.0112,507.19702,43,50,42
507.21393,507.39972,43,50,42
507.82202,508.00784,43,50,42
508.02472,508.21054,45,50,42
508.63284,508.81863,45,50,42
508.83554,509.02136,45,50,42
509.44363,509.62946,45,50,42
509.64636,509.83215,45,50,42
510.25446,510.44028,45,50,42
510.45715,510.64297,37,50,42
511.0546,511.2355,37,57,42
511.25195,511.4329,37,60,42
511.83395,512.01025,37,67,42
512.02625,512.2025,37,70,42
512.59357,512.76544,37,77,42
512.78107,512.95294,37,80,42
512.96857,513.14044,67,82,42
513.15607,513.32794,67,85,42
513.71857,513.89044,67,93,42
513.90607,514.07794,67,95,42
514.47845,514.65936,67,103,42
514.6758,514.86676,43,105,42
514.88416,515.1133,43,108,42
515.13416,515.60474,43,110,42
515.60474,516.0275,43,110,42
516.0459,516.48706,43,110,42
516.48706,516.90985,45,110,42
516.9282,518.83295,45,110,42
518.8538,519.83295,37,110,42
519.8538,520.33295,38,110,42
520.3538,520.89667,50,90,42
520.92163,521.3904,48,60,42
521.3904,521.8316,46,60,42
521.8316,522.27277,47,60,42
522.27277,522.7139,48,60,42
522.7139,523.1551,50,60,42
523.1551,523.5779,48,60,42
523.5963,524.0375,48,60,42
524.0375,524.47864,46,60,42
524.47864,524.9198,47,60,42
524.9198,525.361,49,60,42
525.361,525.8022,50,60,42
525.8022,526.225,47,60,42
526.24335,526.6845,47,60,42
526.6845,527.1257,44,60,42
527.1257,527.5669,45,60,42
527.5669,528.00806,49,60,42
528.00806,528.4492,50,60,42
528.4492,528.872,45,60,42
528.8904,529.3316,45,60,42
529.3316,529.77277,42,60,42
529.77277,530.2139,43,60,42
530.2139,530.6551,49,60,42
530.6551,531.0963,50,60,42
531.0963,531.5191,43,60,42
531.5375,531.97864,43,60,42
531.97864,532.4198,41,70,42
532.4198,532.86096,42,80,42
532.86096,533.3022,40,90,42
533.3022,533.77094,38,80,42
533.77094,534.25006,50,70,42
534.27094,534.7121,38,60,42
534.7121,535.15326,50,60,42
535.15326,535.5944,38,60,42
535.5944,536.03564,50,60,42
536.03564,536.4768,38,60,42
536.4768,536.8996,50,60,42
536.91797,537.35913,38,60,42
537.35913,537.80035,50,60,42
537.80035,538.2415,38,60,42
538.2415,538.6827,50,60,42
538.6827,539.12384,38,60,42
539.12384,539.54663,50,60,42
539.56506,540.0062,38,60,42
540.0062,540.4474,50,60,42
540.4474,540.88855,38,60,42
540.88855,541.3297,50,60,42
541.3297,541.77094,38,60,42
541.77094,542.1937,50,60,42
542.2121,542.65326,38,60,42
542.65326,543.0944,50,64,42
543.0944,543.53564,42,68,42
543.53564,543.9768,50,72,42
543.9768,544.41797,44,77,42
544.41797,544.84076,50,81,42
544.85913,545.30035,45,85,42
545.30035,545.7415,50,90,42
545.7415,546.1827,45,94,42
546.1827,546.62384,50,98,42
546.62384,547.07837,45,100,42
547.07837,547.54193,52,80,42
547.56274,548.4562,45,60,42
548.47455,549.3385,38,60,42
549.3569,550.2209,40,60,42
550.23926,551.1032,42,60,42
551.1216,551.9856,44,60,42
552.00397,552.8679,45,60,42
552.8863,553.1069,38,60,42
553.1069,553.31525,54,60,42
553.31525,553.52356,57,60,42
553.52356,553.7319,55,60,42
553.7319,553.94025,54,60,42
553.94025,554.14856,52,62,42
554.14856,554.3569,50,65,42
554.3569,554.56525,48,67,42
554.56525,554.77356,47,70,42
554.77356,554.9819,55,72,42
554.9819,555.19025,50,75,42
555.19025,555.39856,47,77,42
555.39856,555.6069,45,80,42
555.6069,555.81525,54,83,42
555.81525,556.02356,50,85,42
556.02356,556.2319,45,88,42
556.2319,556.44025,44,90,42
556.44025,556.64856,53,93,42
556.64856,556.8569,50,95,42
556.8569,557.06525,44,98,42
557.06525,557.2795,43,100,42
557.2795,557.4938,45,90,42
557.4938,557.71436,43,80,42
557.71436,557.91656,40,70,42
557.935,558.16223,38,60,42
558.16223,558.3895,45,60,42
558.3895,558.6239,42,60,42
558.6239,558.853,38,60,42
558.8739,559.7697,38,60,42
559.8739,560.8337,38,60,42
560.9453,561.90515,38,60,42
563.0882,564.1218,52,50,42
564.242,565.2757,52,50,42
566.5497,567.7737,52,50,42
568.9108,571.39343,53,90,42
575.8997,576.45526,48,50,42
576.45526,577.8442,57,50,42
577.8442,578.12195,55,50,42
578.12195,578.95526,60,50,42
578.95526,579.23303,62,50,42
579.23303,580.3326,60,90,42
580.3442,580.8881,52,90,42
580.8997,581.99927,53,90,42
582.0108,583.11035,55,60,42
583.12195,584.2215,53,60,42
584.23303,585.3326,60,60,42
585.3442,587.5548,48,60,42
587.56635,589.77704,36,90,42
589.7886,590.8881,48,90,42
597.56635,599.77704,65,90,42
599.7886,601.99927,65,60,42
602.0108,604.2215,64,60,42
604.23303,606.44366,62,60,42
606.45526,608.80493,64,90,42
609.3741,609.9297,43,62,42
609.9297,611.31854,52,64,42
611.31854,611.5963,50,69,42
611.5963,612.4297,55,70,42
612.4297,612.70746,57,73,42
612.70746,613.80695,55,74,42
613.81854,614.3741,48,78,42
614.3741,614.9297,50,80,42
614.9297,615.763,52,82,42
615.763,616.0408,48,85,42
616.0408,616.8741,50,86,42
616.8741,617.15186,52,89,42
617.15186,617.9852,50,90,42
617.9852,618.263,47,93,42
618.263,619.0963,48,94,42
619.0963,619.3741,50,97,42
619.3741,620.20746,48,98,42
620.20746,620.4852,45,100,42
620.4852,621.31854,47,100,42
621.31854,621.5963,48,100,42
621.5963,622.1403,47,100,42
622.15186,624.36255,48,100,42
624.3741,626.5848,48,80,42
626.5963,631.368,45,60,42
631.3822,633.76965,50,50,42
641.09326,641.63727,36,50,42
641.64886,642.7484,45,50,42
642.75995,644.9706,41,50,42
644.9822,647.1928,41,60,42
647.2044,649.41504,40,50,42
649.42664,651.63727,38,50,42
651.64886,653.8595,40,50,42
653.8711,656.0817,41,50,42
656.09326,658.30396,43,50,42
658.3155,658.8595,41,70,42
658.8711,659.41504,36,75,42
659.42664,660.80396,45,80,42
660.8155,661.0817,43,93,42
661.09326,661.63727,48,95,42
661.64886,662.74835,36,100,42
661.64886,662.74835,48,100,42
662.75995,664.9706,36,110,42
662.75995,664.9706,48,110,42
664.9822,667.1928,47,125,42
667.2044,669.41504,45,125,42
669.42664,671.80536,47,125,42
671.8196,674.0302,36,125,42
671.8196,674.0302,48,125,42
674.04175,676.25244,50,125,42
676.264,678.764,48,125,42
676.264,678.764,36,125,42
678.764,679.04175,47,125,42
679.04175,679.8751,48,125,42
679.8751,680.1529,50,125,42
680.1529,680.69684,48,125,42
680.70844,682.91907,36,125,42
680.70844,682.91907,48,125,42
682.93066,685.1413,50,125,42
685.70844,686.264,48,108,42
686.264,686.8196,50,106,42
686.8196,687.6529,52,104,42
687.6529,687.93066,48,101,42
687.93066,688.764,50,100,42
688.764,689.04175,52,96,42
689.04175,690.1413,53,95,42
690.1529,690.70844,52,91,42
690.70844,691.264,53,89,42
691.264,692.09735,55,87,42
692.09735,692.3751,52,83,42
692.3751,693.20844,53,82,42
693.20844,693.4862,55,79,42
693.4862,694.0302,57,78,42
694.59735,695.1529,36,73,42
695.1529,695.70844,38,71,42
695.70844,696.54175,40,69,42
696.54175,696.8195,36,66,42
696.8195,697.6529,38,65,42
697.6529,697.93066,40,62,42
697.93066,698.4747,41,60,42
698.4862,698.77466,43,58,42
698.77466,699.0631,57,57,42
699.0631,699.9892,59,56,42
699.9892,700.3153,60,53,42
700.3153,701.0296,62,52,42
702.2296,703.4171,48,90,42
703.4296,705.8171,48,90,42
705.8296,708.2171,43,90,42
710.6296,713.0171,48,50,42
713.0296,715.4171,48,110,42
715.4296,717.8171,43,110,42
717.8296,721.4171,36,110,42
717.8296,721.4171,43,110,42
721.4296,722.914,36,110,42
721.4296,722.914,43,110,42
722.9296,725.3171,41,60,42
725.3296,728.3171,40,60,42
728.3296,728.9171,40,60,42
728.9296,730.7171,38,60,42
730.7296,731.3171,50,60,42
731.3296,732.5171,48,60,42
732.5296,742.7171,36,60,42
732.5296,742.7171,48,60,42
742.7296,743.3296,36,60,42
743.3296,744.9088,45,60,42
744.9088,745.2497,43,60,42
745.2497,746.3065,48,60,42
746.3065,746.6815,50,60,42
746.6815,747.4975,48,60,42
747.5149,750.11,50,60,42
750.12354,754.023,48,60,42
754.0366,755.2051,48,70,42
755.34094,756.56256,48,80,42
756.7046,758.04834,48,90,42
758.2046,760.91766,41,60,42
763.9318,766.9162,65,60,42
766.9318,770.18317,65,50,42
770.2027,777.68317,65,40,42
497.32373,497.74652,54,60,45
497.7649,498.18768,66,60,45
498.2061,498.62888,67,60,45
498.64725,499.07004,61,60,45
499.08844,499.51123,62,60,45
499.5296,499.9524,54,60,45
499.97076,500.3936,61,60,45
500.41196,500.83475,73,60,45
500.85312,501.27594,74,60,45
501.2943,501.7171,62,60,45
501.73547,502.15826,64,60,45
502.17667,502.59946,76,60,45
502.61783,503.04062,54,60,45
503.05902,503.4818,66,60,45
503.50018,503.9358,67,60,45
503.95474,504.40396,61,60,45
504.4235,504.90265,66,60,45
504.9235,505.46634,54,60,45
505.49133,505.94354,59,71,45
494.64725,495.09946,45,60,45
495.11783,495.54062,57,60,45
495.55902,495.9818,59,60,45
496.00018,496.42297,47,60,45
496.44138,496.86417,49,60,45
496.88254,497.30533,61,60,45
497.32373,497.74652,50,60,45
497.7649,498.18768,62,60,45
498.2061,498.62888,64,60,45
498.64725,499.07004,52,60,45
499.08844,499.51123,50,60,45
499.5296,499.9524,62,60,45
499.97076,500.3936,45,60,45
500.41196,500.83475,57,60,45
500.85312,501.27594,59,60,45
501.2943,501.7171,47,60,45
501.73547,502.15826,49,60,45
502.17667,502.59946,61,60,45
502.61783,503.04062,50,60,45
503.05902,503.4818,62,60,45
503.50018,503.9358,64,60,45
503.95474,504.40396,52,60,45
504.4235,504.90265,62,60,45
504.9235,505.46634,50,60,45
505.49133,505.94354,55,50,45
