start_time,end_time,note_value,velocity,instrument_program_number
3.75,5.0,75,92,71
5.0,7.1875,75,60,71
11.09375,11.25,74,75,71
11.25,12.5,75,60,71
12.5,14.6744795,75,45,71
14.84375,15.0,74,75,71
15.0,15.9244795,75,92,71
16.09375,16.25,74,92,71
16.25,17.174479,75,92,71
17.34375,17.5,74,92,71
17.5,18.424479,75,92,71
18.59375,18.75,74,75,71
18.75,20.0,75,60,71
20.0,21.666666,75,45,71
22.34375,22.5,74,75,71
22.5,23.424479,75,92,71
23.59375,23.75,74,75,71
23.75,24.674479,75,75,71
24.84375,25.0,74,75,71
25.0,26.041666,75,75,71
26.25,26.458334,75,92,71
26.5625,26.875,75,92,71
26.875,27.1875,78,92,71
27.1875,27.5,77,92,71
27.5,27.826086,75,92,71
27.826086,28.152174,77,92,71
28.152174,28.47826,78,92,71
28.47826,28.804346,77,92,71
28.804346,29.145256,75,92,71
29.145256,29.486164,77,92,71
29.486164,29.827074,78,92,71
29.827074,30.153778,81,92,71
30.167982,30.835596,82,92,71
35.90662,36.53162,82,75,71
36.53162,37.15662,80,60,71
37.15662,37.768597,78,60,71
37.78162,38.393597,77,45,71
43.40662,44.03162,82,75,71
44.03162,44.65662,80,60,71
44.65662,45.268597,78,60,71
45.28162,45.893597,77,45,71
46.53162,47.62537,70,60,71
47.62537,47.768597,69,75,71
47.78162,49.03162,69,92,71
49.03162,49.239952,70,60,71
49.65662,49.864952,70,60,71
49.96912,50.177452,70,65,71
50.28162,50.489952,70,70,71
50.59412,50.802452,70,75,71
50.90662,51.114952,70,80,71
51.21912,51.427452,70,86,71
51.53162,52.78162,69,92,71
52.78162,53.393597,70,60,71
53.40662,53.54334,70,60,71
53.614952,53.75167,70,63,71
53.823284,53.960003,70,66,71
54.03162,54.16834,70,69,71
54.239952,54.37667,70,72,71
54.448284,54.585003,70,76,71
54.65662,54.79334,70,80,71
54.864952,55.00167,70,84,71
55.073284,55.210003,70,88,71
55.28162,56.53162,69,92,71
56.53162,57.143597,70,60,71
66.58597,66.756424,80,75,71
66.756424,66.92687,77,75,71
66.92687,67.09733,74,77,71
67.09733,67.25358,70,79,71
67.267784,67.392784,68,81,71
67.392784,67.517784,65,82,71
67.517784,67.642784,62,84,71
67.642784,67.78167,58,86,71
67.78167,67.92056,56,88,71
67.92056,68.04209,53,90,71
68.05945,69.711235,50,92,71
70.06838,71.4036,80,92,71
89.269516,89.33618,70,75,71
89.46951,89.53618,69,75,71
89.66952,89.73618,70,75,71
89.869514,90.86535,75,92,71
90.869514,90.93618,75,60,71
91.06951,91.136185,74,75,71
91.269516,91.33618,75,75,71
91.46951,92.46535,79,92,71
92.46951,92.53618,79,60,71
92.66952,92.73618,78,75,71
92.869514,92.93618,79,75,71
93.06951,93.46951,82,92,71
93.46951,93.869514,82,75,71
93.869514,94.20285,82,60,71
94.269516,94.46951,80,60,71
94.46951,94.66952,79,60,71
94.66952,94.869514,77,60,71
94.869514,95.06951,75,64,71
95.06951,95.269516,74,68,71
95.269516,95.46951,75,72,71
95.46951,95.66952,74,76,71
95.66952,95.869514,75,80,71
95.869514,96.06951,78,84,71
96.06951,96.26535,79,88,71
96.269516,96.66952,79,92,71
96.66952,97.369514,72,60,71
97.46951,97.66952,71,60,71
97.66952,97.869514,72,60,71
97.869514,98.06951,71,60,71
98.06951,98.269516,72,64,71
98.269516,98.46951,76,68,71
98.46951,98.66952,77,72,71
98.66952,98.869514,76,76,71
98.869514,99.06951,77,80,71
99.06951,99.269516,79,84,71
99.269516,99.46535,80,88,71
99.46951,99.869514,80,92,71
99.869514,100.56951,74,60,71
100.66952,100.869514,73,60,71
100.869514,101.06951,74,60,71
101.06951,101.269516,75,60,71
101.269516,101.46951,76,64,71
101.46951,101.66952,77,68,71
101.66952,101.869514,78,72,71
101.869514,102.06951,79,76,71
102.06951,102.269516,80,80,71
102.269516,102.46951,81,84,71
102.46951,102.66535,82,88,71
102.66952,103.66952,82,92,71
103.66952,103.869514,79,75,71
103.869514,104.06951,80,60,71
104.06951,104.26535,77,60,71
104.269516,104.66952,75,60,71
104.66952,104.769516,77,68,71
104.769516,104.869514,75,70,71
104.869514,104.96951,74,72,71
104.96951,105.06951,75,74,71
105.06951,105.66952,79,76,71
105.66952,105.86535,77,88,71
105.869514,106.065346,75,92,71
106.269516,106.47071,75,92,71
106.68047,106.88734,75,92,71
109.12554,109.32137,62,92,71
109.52554,109.72674,80,92,71
109.9365,110.143364,80,92,71
112.38157,112.57741,79,92,71
112.78157,112.98277,79,92,71
113.19253,113.3994,79,92,71
115.637596,115.97093,77,60,71
116.0376,116.7376,77,60,71
116.8376,117.57093,77,70,71
117.637596,118.3376,77,80,71
118.4376,119.17093,77,92,71
119.2376,119.4376,70,60,71
119.4376,119.5376,72,60,71
119.5376,119.63343,74,60,71
119.637596,119.70427,75,60,71
119.8376,119.90427,75,60,71
120.0376,120.10426,75,60,71
120.2376,120.30427,75,60,71
120.4376,120.770935,74,60,71
122.0376,122.637596,70,60,71
122.637596,122.7376,72,60,71
122.7376,122.833435,74,60,71
122.8376,122.90427,75,60,71
123.0376,123.10426,75,60,71
123.2376,123.30427,75,60,71
123.4376,123.504265,75,60,71
123.637596,124.2376,74,60,71
124.2376,124.3376,75,72,71
124.3376,124.43343,77,74,71
124.4376,124.504265,79,76,71
124.637596,124.70427,79,80,71
124.8376,124.90427,79,84,71
125.0376,125.10426,79,88,71
125.2376,125.30609,77,92,71
125.44308,125.51157,74,92,71
125.64856,125.71898,79,92,71
125.859825,125.930244,75,92,71
126.07109,126.143555,77,92,71
126.28848,126.36095,74,92,71
126.505875,126.57941,79,92,71
126.72646,126.79999,75,92,71
126.94705,127.3147,77,92,71
134.27058,134.47058,76,60,71
134.47058,134.67058,77,60,71
134.67058,134.87057,75,60,71
134.87057,135.0664,72,60,71
135.07057,135.60391,74,60,71
135.87057,136.40392,69,60,71
136.67058,137.20392,70,60,71
137.47058,138.0039,75,60,71
138.27058,138.37057,74,60,71
138.67058,138.77058,72,60,71
139.07057,139.17058,70,60,71
139.47058,139.57057,70,60,71
139.87057,140.20392,69,60,71
143.07057,143.87057,70,60,71
143.87057,144.47058,74,84,71
144.47058,144.66641,70,60,71
144.67058,145.0039,69,60,71
146.27058,146.47058,70,60,71
146.47058,146.67058,72,60,71
146.67058,146.87057,74,75,71
146.87057,147.07057,72,75,71
147.07057,147.27058,75,92,71
147.27058,147.47058,74,92,71
147.47058,147.67058,72,75,71
147.67058,147.86641,70,75,71
147.87057,148.20392,69,60,71
152.67058,152.87057,70,60,71
152.87057,153.07057,69,60,71
153.07057,153.27058,70,60,71
153.27058,153.47058,72,60,71
153.47058,153.67058,73,60,71
153.67058,153.87057,74,60,71
153.87057,154.07057,75,60,71
154.07057,154.26642,76,60,71
154.27058,154.47058,77,60,71
154.47058,154.66641,75,60,71
154.67058,154.87057,74,60,71
154.87057,155.0664,72,60,71
155.07057,155.27058,70,60,71
155.27058,155.46642,69,60,71
155.47058,155.67058,67,60,71
155.67058,155.86641,65,60,71
155.87057,157.37057,65,60,71
160.67058,160.87057,77,60,71
160.87057,161.0664,75,60,71
161.07057,161.27058,74,60,71
161.27058,161.46642,72,60,71
161.47058,161.67058,70,60,71
161.67058,161.86641,69,60,71
161.87057,162.07057,67,60,71
162.07057,162.26642,65,60,71
162.27058,162.33725,65,60,71
162.47058,162.67058,77,60,71
162.67058,162.87057,76,60,71
162.87057,163.0664,77,60,71
163.07057,163.27058,77,60,71
163.27058,163.47058,80,60,71
163.47058,163.67058,79,60,71
163.67058,163.86641,77,60,71
163.87057,164.07057,77,60,71
164.07057,164.27058,75,60,71
164.27058,164.47058,74,60,71
164.47058,164.66641,72,60,71
164.67058,164.87057,75,60,71
164.87057,165.07057,79,60,71
165.07057,165.27058,77,60,71
165.27058,165.46642,75,60,71
165.47058,165.67058,75,60,71
165.67058,165.87057,74,60,71
165.87057,166.07057,72,60,71
166.07057,166.26642,70,60,71
166.27058,167.07057,71,60,71
167.07057,167.17058,72,60,71
167.87057,168.67058,69,60,71
168.67058,168.77058,70,60,71
169.07057,169.40392,82,45,71
169.87057,170.20392,82,45,71
170.67058,171.0039,82,45,71
171.47058,171.80391,82,45,71
171.87057,172.20392,82,45,71
177.87057,178.20392,72,92,71
178.27058,180.0664,74,60,71
180.07057,180.13724,74,60,71
180.27058,180.33725,77,64,71
180.47058,180.53725,82,68,71
180.67058,180.73724,81,72,71
180.73724,180.80391,82,73,71
180.80391,180.87057,81,74,71
180.87057,180.93724,82,75,71
180.93724,181.0039,81,76,71
181.0039,181.07057,82,78,71
181.07057,181.13724,81,80,71
181.13724,181.20392,82,82,71
181.20392,181.27058,81,84,71
181.27058,181.33725,82,86,71
181.33725,181.40392,79,88,71
181.40392,181.46642,81,90,71
181.47058,181.80391,82,92,71
188.67058,188.77058,74,92,71
189.07057,189.17058,74,92,71
189.47058,190.0039,74,92,71
190.07057,190.13724,74,92,71
190.27058,190.37057,75,92,71
190.67058,190.77058,77,92,71
191.07057,191.26642,79,92,71
195.07057,195.17058,74,92,71
195.47058,195.57057,74,92,71
195.87057,196.40392,74,92,71
196.47058,196.53725,74,92,71
196.67058,196.77058,75,92,71
197.07057,197.17058,77,92,71
197.47058,197.57057,79,92,71
197.87057,198.20392,79,60,71
198.67058,199.0039,79,60,71
199.47058,199.80391,74,60,71
200.27058,200.60391,75,60,71
200.67058,201.0039,74,60,71
201.67058,201.87057,77,60,71
201.87057,202.07057,76,60,71
202.07057,202.26642,77,60,71
202.27058,202.67058,79,60,71
202.67058,203.0039,77,60,71
203.07057,203.32057,75,60,71
203.47058,203.57057,74,60,71
203.87057,204.57057,72,60,71
204.87057,205.07057,75,60,71
205.07057,205.27058,74,60,71
205.27058,205.46642,75,60,71
205.47058,205.87057,77,60,71
205.87057,206.20392,75,60,71
206.27058,206.52058,74,60,71
206.67058,206.77058,72,60,71
207.07057,207.40392,70,60,71
208.67058,209.87057,70,45,71
209.87057,210.07057,72,45,71
210.07057,210.27058,74,45,71
210.27058,210.60391,75,45,71
211.87057,213.07057,65,60,71
213.07057,213.27058,67,60,71
213.27058,213.47058,69,60,71
213.47058,213.80391,70,60,71
213.87057,214.0664,74,92,71
215.47058,215.66641,75,92,71
217.07057,217.26642,74,92,71
218.68153,218.88274,81,92,71
219.91441,220.12128,82,92,71
220.75948,220.97234,75,92,71
221.62904,222.00218,74,92,71
238.74844,238.81511,70,75,71
238.94844,239.0151,69,75,71
239.14845,239.21512,70,75,71
239.34845,240.34428,75,92,71
240.34845,240.41512,75,60,71
240.54845,240.61511,74,75,71
240.74844,240.81511,75,75,71
240.94844,241.94427,79,92,71
241.94844,242.0151,79,60,71
242.14845,242.21512,78,75,71
242.34845,242.41512,79,75,71
242.54845,242.94844,82,92,71
242.94844,243.34845,82,75,71
243.34845,243.68178,82,60,71
243.74844,243.94844,80,60,71
243.94844,244.14845,79,60,71
244.14845,244.34845,77,60,71
244.34845,244.54845,75,64,71
244.54845,244.74844,74,68,71
244.74844,244.94844,75,72,71
244.94844,245.14845,74,76,71
245.14845,245.34845,75,80,71
245.34845,245.54845,78,84,71
245.54845,245.74428,79,88,71
245.74844,246.14845,79,92,71
246.14845,246.84845,72,60,71
246.94844,247.14845,71,60,71
247.14845,247.34845,72,60,71
247.34845,247.54845,71,60,71
247.54845,247.74844,72,64,71
247.74844,247.94844,76,68,71
247.94844,248.14845,77,72,71
248.14845,248.34845,76,76,71
248.34845,248.54845,77,80,71
248.54845,248.74844,79,84,71
248.74844,248.94427,80,88,71
248.94844,249.34845,80,92,71
249.34845,250.04845,74,60,71
250.14845,250.34845,73,60,71
250.34845,250.54845,74,60,71
250.54845,250.74844,75,60,71
250.74844,250.94844,76,64,71
250.94844,251.14845,77,68,71
251.14845,251.34845,78,72,71
251.34845,251.54845,79,76,71
251.54845,251.74844,80,80,71
251.74844,251.94844,81,84,71
251.94844,252.14429,82,88,71
252.14845,253.14845,82,92,71
253.14845,253.34845,79,75,71
253.34845,253.54845,80,60,71
253.54845,253.74428,77,60,71
253.74844,254.14845,75,60,71
254.14845,254.24844,77,68,71
254.24844,254.34845,75,70,71
254.34845,254.44844,74,72,71
254.44844,254.54845,75,74,71
254.54845,255.14845,79,76,71
255.14845,255.34428,77,88,71
255.34845,255.54428,75,92,71
255.74844,255.94965,75,92,71
256.1594,256.36627,75,92,71
258.60446,258.8003,62,92,71
259.0045,259.20566,80,92,71
259.41544,259.62228,80,92,71
261.8605,262.05634,79,92,71
262.2605,262.4617,79,92,71
262.67145,262.87833,79,92,71
265.11652,265.44986,77,60,71
265.51654,266.21652,77,60,71
266.31653,267.04987,77,70,71
267.11652,267.81653,77,80,71
267.91653,268.64987,77,92,71
268.71652,268.91653,70,60,71
268.91653,269.01654,72,60,71
269.01654,269.11237,74,60,71
269.11652,269.1832,75,60,71
269.31653,269.3832,75,60,71
269.51654,269.5832,75,60,71
269.71652,269.7832,75,60,71
269.91653,270.24988,74,60,71
271.51654,272.11652,70,60,71
272.11652,272.21652,72,60,71
272.21652,272.31238,74,60,71
272.31653,272.3832,75,60,71
272.51654,272.5832,75,60,71
272.71652,272.7832,75,60,71
272.91653,272.9832,75,60,71
273.11652,273.71652,74,60,71
273.71652,273.81653,75,72,71
273.81653,273.91235,77,74,71
273.91653,273.9832,79,76,71
274.11652,274.1832,79,80,71
274.31653,274.3832,79,84,71
274.51654,274.5832,79,88,71
274.71652,274.78503,77,92,71
274.922,274.9905,74,92,71
275.1275,275.1979,79,92,71
275.33875,275.40918,75,92,71
275.55002,275.6225,77,92,71
275.76743,275.83987,74,92,71
275.9848,276.05835,79,92,71
276.20538,276.27893,75,92,71
276.426,276.79364,77,92,71
283.7495,283.94952,76,60,71
283.94952,284.1495,77,60,71
284.1495,284.34952,75,60,71
284.34952,284.54535,72,60,71
284.5495,285.08286,74,60,71
285.34952,285.88284,69,60,71
286.1495,286.68283,70,60,71
286.94952,287.48285,75,60,71
287.7495,287.84952,74,60,71
288.1495,288.2495,72,60,71
288.5495,288.6495,70,60,71
288.94952,289.0495,70,60,71
289.34952,289.68283,69,60,71
292.5495,293.34952,70,60,71
293.34952,293.94952,74,84,71
293.94952,294.14536,70,60,71
294.1495,294.48285,69,60,71
295.7495,295.94952,70,60,71
295.94952,296.1495,72,60,71
296.1495,296.34952,74,75,71
296.34952,296.5495,72,75,71
296.5495,296.7495,75,92,71
296.7495,296.94952,74,92,71
296.94952,297.1495,72,75,71
297.1495,297.34534,70,75,71
297.34952,297.68283,69,60,71
302.1495,302.34952,70,60,71
302.34952,302.5495,69,60,71
302.5495,302.7495,70,60,71
302.7495,302.94952,72,60,71
302.94952,303.1495,73,60,71
303.1495,303.34952,74,60,71
303.34952,303.5495,75,60,71
303.5495,303.74533,76,60,71
303.7495,303.94952,77,60,71
303.94952,304.14536,75,60,71
304.1495,304.34952,74,60,71
304.34952,304.54535,72,60,71
304.5495,304.7495,70,60,71
304.7495,304.94534,69,60,71
304.94952,305.1495,67,60,71
305.1495,305.34534,65,60,71
305.34952,306.84952,65,60,71
310.1495,310.34952,77,60,71
310.34952,310.54535,75,60,71
310.5495,310.7495,74,60,71
310.7495,310.94534,72,60,71
310.94952,311.1495,70,60,71
311.1495,311.34534,69,60,71
311.34952,311.5495,67,60,71
311.5495,311.74533,65,60,71
311.7495,311.81616,65,60,71
311.94952,312.1495,77,60,71
312.1495,312.34952,76,60,71
312.34952,312.54535,77,60,71
312.5495,312.7495,77,60,71
312.7495,312.94952,80,60,71
312.94952,313.1495,79,60,71
313.1495,313.34534,77,60,71
313.34952,313.5495,77,60,71
313.5495,313.7495,75,60,71
313.7495,313.94952,74,60,71
313.94952,314.14536,72,60,71
314.1495,314.34952,75,60,71
314.34952,314.5495,79,60,71
314.5495,314.7495,77,60,71
314.7495,314.94534,75,60,71
314.94952,315.1495,75,60,71
315.1495,315.34952,74,60,71
315.34952,315.5495,72,60,71
315.5495,315.74533,70,60,71
315.7495,316.5495,71,60,71
316.5495,316.6495,72,60,71
317.34952,318.1495,69,60,71
318.1495,318.2495,70,60,71
318.5495,318.88284,82,45,71
319.34952,319.68283,82,45,71
320.1495,320.48285,82,45,71
320.94952,321.28284,82,45,71
321.34952,321.68283,82,45,71
327.34952,327.68283,72,92,71
327.7495,329.54535,74,60,71
329.5495,329.61618,74,60,71
329.7495,329.81616,77,64,71
329.94952,330.01617,82,68,71
330.1495,330.2162,81,72,71
330.2162,330.28284,82,73,71
330.28284,330.34952,81,74,71
330.34952,330.41617,82,75,71
330.41617,330.48285,81,76,71
330.48285,330.5495,82,78,71
330.5495,330.61618,81,80,71
330.61618,330.68283,82,82,71
330.68283,330.7495,81,84,71
330.7495,330.81616,82,86,71
330.81616,330.88284,79,88,71
330.88284,330.94534,81,90,71
330.94952,331.28284,82,92,71
338.1495,338.2495,74,92,71
338.5495,338.6495,74,92,71
338.94952,339.48285,74,92,71
339.5495,339.61618,74,92,71
339.7495,339.84952,75,92,71
340.1495,340.2495,77,92,71
340.5495,340.74533,79,92,71
344.5495,344.6495,74,92,71
344.94952,345.0495,74,92,71
345.34952,345.88284,74,92,71
345.94952,346.01617,74,92,71
346.1495,346.2495,75,92,71
346.5495,346.6495,77,92,71
346.94952,347.0495,79,92,71
347.34952,347.68283,79,60,71
348.1495,348.48285,79,60,71
348.94952,349.28284,74,60,71
349.7495,350.08286,75,60,71
350.1495,350.48285,74,60,71
351.1495,351.34952,77,60,71
351.34952,351.5495,76,60,71
351.5495,351.74533,77,60,71
351.7495,352.1495,79,60,71
352.1495,352.48285,77,60,71
352.5495,352.7995,75,60,71
352.94952,353.0495,74,60,71
353.34952,354.0495,72,60,71
354.34952,354.5495,75,60,71
354.5495,354.7495,74,60,71
354.7495,354.94534,75,60,71
354.94952,355.34952,77,60,71
355.34952,355.68283,75,60,71
355.7495,355.9995,74,60,71
356.1495,356.2495,72,60,71
356.5495,356.88284,70,60,71
358.1495,359.34952,70,45,71
359.34952,359.5495,72,45,71
359.5495,359.7495,74,45,71
359.7495,360.08286,75,45,71
361.34952,362.5495,65,60,71
362.5495,362.7495,67,60,71
362.7495,362.94952,69,60,71
362.94952,363.28284,70,60,71
363.34952,363.54535,74,92,71
364.94952,365.14536,75,92,71
366.5495,366.74533,74,92,71
368.16046,368.36166,81,92,71
369.39334,369.60022,82,92,71
370.2384,370.45126,75,92,71
371.10797,371.4811,74,92,71
372.2274,372.29404,70,92,71
372.42737,372.49405,69,75,71
372.62738,372.69403,70,75,71
372.8274,373.8232,74,105,71
373.8274,373.89404,74,92,71
374.02737,374.09406,73,75,71
374.2274,374.29404,74,75,71
374.42737,375.42322,77,105,71
375.42737,375.49405,77,92,71
375.62738,375.69403,76,75,71
375.8274,375.89404,77,75,71
376.02737,377.12738,80,105,71
377.2274,377.3274,77,75,71
377.62738,377.7274,74,75,71
378.02737,378.12738,71,75,71
378.42737,378.52737,72,75,71
378.8274,378.92737,66,75,71
379.2274,379.5607,67,75,71
380.2274,380.42737,79,60,71
380.42737,380.62738,78,60,71
380.62738,380.8232,79,60,71
380.8274,381.2274,80,60,71
381.2274,381.5607,79,60,71
381.62738,381.87738,77,60,71
382.02737,382.12738,75,60,71
382.42737,383.12738,74,60,71
383.42737,383.62738,77,60,71
383.62738,383.8274,76,60,71
383.8274,384.02322,77,60,71
384.02737,384.42737,79,60,71
384.42737,384.7607,77,60,71
384.8274,385.0774,75,60,71
385.2274,385.3274,74,60,71
385.62738,385.7274,72,60,71
386.02737,386.12738,75,60,71
386.8274,386.92737,75,60,71
387.62738,387.7274,75,60,71
388.42737,388.52737,80,60,71
389.2274,389.3274,77,60,71
390.02737,390.12738,73,60,71
390.8274,390.92737,70,60,71
391.62738,391.7274,79,60,71
392.02737,392.12738,80,60,71
399.42737,399.62738,72,60,71
399.62738,399.8274,71,60,71
399.8274,400.02322,72,60,71
400.02737,400.42737,73,60,71
400.42737,400.7607,72,60,71
400.8274,401.0774,70,60,71
401.2274,401.3274,68,60,71
401.62738,402.3274,67,60,71
402.62738,402.8274,70,60,71
402.8274,403.02737,69,60,71
403.02737,403.2232,70,60,71
403.2274,403.62738,72,60,71
403.62738,403.96072,70,60,71
404.02737,404.27737,68,60,71
404.42737,404.52737,67,60,71
404.8274,405.1607,65,60,71
406.42737,406.52737,72,60,71
406.8274,406.92737,72,60,71
407.2274,407.3274,72,60,71
409.62738,409.7274,72,60,71
410.02737,410.12738,72,60,71
410.42737,410.52737,72,60,71
412.02737,412.12738,72,60,71
412.42737,412.52737,72,60,71
412.8274,412.92737,77,60,71
413.62738,413.7274,77,60,71
414.02737,414.12738,77,60,71
414.42737,414.52737,70,60,71
415.2274,415.3274,70,68,71
415.62738,415.7274,70,72,71
416.02737,416.12738,75,76,71
416.8274,416.92737,75,84,71
417.2274,417.3274,75,88,71
417.62738,417.96072,74,92,71
418.62738,418.8274,70,60,71
418.8274,419.02737,69,60,71
419.02737,419.2232,70,60,71
419.2274,419.62738,72,60,71
419.62738,419.96072,70,60,71
420.02737,420.27737,68,60,71
420.42737,420.52737,67,60,71
420.8274,421.62738,65,60,71
421.62738,422.42737,63,75,71
422.42737,423.2274,68,92,71
423.2274,423.92737,67,75,71
424.02737,424.36072,65,60,71
425.02737,425.2274,70,60,71
425.2274,425.42737,69,60,71
425.42737,425.6232,70,60,71
425.62738,426.02737,72,60,71
426.02737,426.36072,70,60,71
426.42737,426.67737,68,60,71
426.8274,426.92737,67,60,71
427.2274,428.02737,65,60,71
428.02737,428.8274,63,75,71
428.8274,429.62738,68,92,71
429.62738,430.02737,67,75,71
430.02737,430.36072,67,60,71
430.42737,430.7607,65,45,71
431.42737,431.62738,70,45,71
431.62738,431.8274,69,45,71
431.8274,432.02322,70,45,71
432.02737,432.12872,74,45,71
433.0409,433.2436,74,45,71
433.2436,433.4463,73,45,71
433.4463,433.64478,74,45,71
433.649,433.75174,77,45,71
434.6764,434.88187,77,45,71
434.88187,435.08734,76,45,71
435.08734,435.28854,77,45,71
435.29282,435.397,80,45,71
435.7095,435.81366,80,48,71
436.54282,436.647,77,56,71
437.38202,437.48767,74,64,71
438.2271,438.33273,70,72,71
439.07822,439.18533,68,80,71
439.93533,440.14517,65,88,71
440.36392,441.1639,63,92,71
441.1639,441.86392,63,60,71
441.96393,442.76392,67,92,71
442.76392,443.46393,67,60,71
443.5639,443.96393,70,92,71
443.96393,444.6639,70,60,71
447.1639,447.86392,72,75,71
447.96393,448.29724,72,60,71
450.36392,451.0639,74,75,71
451.1639,451.49725,74,60,71
455.76392,455.8306,70,60,71
455.96393,456.03058,69,60,71
456.1639,456.2306,70,75,71
456.36392,457.35974,75,92,71
457.36392,457.43057,75,92,71
457.5639,457.63058,74,92,71
457.76392,457.8306,75,75,71
457.96393,458.95975,79,92,71
458.96393,459.03058,79,60,71
459.1639,459.2306,78,60,71
459.36392,459.43057,79,75,71
459.5639,460.36392,82,92,71
460.36392,461.86392,82,60,71
461.96393,462.49725,79,60,71
462.5639,462.75977,75,75,71
462.76392,463.5639,84,92,71
463.5639,465.0639,84,60,71
465.1639,465.69727,80,60,71
465.76392,465.95975,75,60,71
465.96393,467.89725,73,60,71
467.96393,468.36392,82,80,71
468.36392,468.76392,79,84,71
468.76392,469.09726,73,88,71
469.1639,469.49725,72,92,71
471.96393,472.29724,80,92,71
472.36392,472.76392,80,92,71
472.76392,473.1639,79,92,71
473.1639,473.5639,77,92,71
473.5639,473.89725,75,92,71
473.96393,474.49725,75,92,71
474.76392,475.29724,75,92,71
475.5639,477.0639,75,92,71
478.36392,478.69727,80,92,71
478.76392,479.1639,80,92,71
479.1639,479.5639,79,92,71
479.5639,479.96393,77,92,71
479.96393,480.29724,75,92,71
480.36392,480.89725,75,92,71
481.1639,481.69727,75,92,71
481.96393,483.5639,75,92,71
483.5639,485.0639,75,92,71
485.1639,485.49725,74,92,71
485.5639,485.76392,70,60,71
485.76392,485.86392,72,60,71
485.86392,485.95975,74,60,71
485.96393,486.03058,75,60,71
486.1639,486.2306,75,60,71
486.36392,486.43057,75,60,71
486.5639,486.63058,75,60,71
486.76392,487.09726,74,60,71
488.36392,488.96393,70,60,71
488.96393,489.0639,72,66,71
489.0639,489.15976,74,67,71
489.1639,489.2306,75,67,71
489.36392,489.43057,75,69,71
489.5639,489.63058,75,71,71
489.76392,489.8306,75,73,71
489.96393,490.5639,74,75,71
490.5639,490.6639,75,81,71
490.6639,490.75977,77,82,71
490.76392,490.8306,79,83,71
490.96393,491.03058,79,85,71
491.1639,491.2306,79,87,71
491.36392,491.43057,79,89,71
491.5639,491.63242,77,92,71
491.7694,491.8379,74,92,71
491.97488,492.0453,79,92,71
492.18616,492.25656,75,92,71
492.3974,492.46988,77,92,71
492.6148,492.68726,74,92,71
492.83218,492.90683,79,92,71
493.05606,493.1307,75,92,71
493.27997,493.65308,77,92,71
500.62323,500.82324,81,60,71
500.82324,501.02322,82,60,71
501.02322,501.22324,80,60,71
501.22324,501.41907,77,60,71
501.42325,501.95657,79,60,71
502.22324,502.75656,74,60,71
503.02322,503.55658,75,60,71
503.82324,504.35657,80,60,71
504.62323,504.72324,79,60,71
505.02322,505.12323,77,60,71
505.42325,505.52322,75,60,71
505.82324,505.92325,75,60,71
506.22324,506.55658,74,60,71
509.42325,510.22324,75,60,71
510.22324,510.82324,79,84,71
510.82324,511.01907,75,60,71
511.02322,511.35657,74,60,71
512.6232,512.82324,75,60,71
512.82324,513.02325,77,60,71
513.02325,513.22327,79,75,71
513.22327,513.4232,77,75,71
513.4232,513.6232,80,92,71
513.6232,513.82324,79,92,71
513.82324,514.02325,77,75,71
514.02325,514.21906,75,75,71
514.22327,514.5566,74,60,71
519.02325,519.22327,75,60,71
519.22327,519.4232,74,60,71
519.4232,519.6232,75,60,71
519.6232,519.82324,77,60,71
519.82324,520.02325,78,60,71
520.02325,520.22327,79,60,71
520.22327,520.4232,80,60,71
520.4232,520.6191,81,60,71
520.6232,520.82324,82,60,71
520.82324,521.01904,80,60,71
521.02325,521.22327,79,60,71
521.22327,521.41907,77,60,71
521.4232,521.6232,75,60,71
521.6232,521.8191,74,60,71
521.82324,522.02325,72,60,71
522.02325,522.21906,70,60,71
522.22327,523.6191,70,60,71
523.6232,523.8191,70,75,71
523.82324,524.02325,82,60,71
524.02325,524.21906,80,60,71
524.22327,524.4232,79,60,71
524.4232,524.6191,77,60,71
524.6232,524.82324,75,60,71
524.82324,525.01904,74,60,71
525.02325,525.22327,72,60,71
525.22327,525.41907,70,60,71
525.4232,526.8191,70,60,71
526.82324,526.8899,70,75,71
526.8899,526.95654,72,75,71
526.95654,527.01904,70,75,71
527.02325,527.22327,82,75,71
527.22327,527.41907,80,75,71
527.4232,527.6232,79,75,71
527.6232,527.8191,77,75,71
527.82324,528.02325,75,75,71
528.02325,528.21906,74,75,71
528.22327,528.4232,72,75,71
528.4232,528.6191,70,75,71
528.6232,528.6899,70,75,71
528.82324,529.02325,70,75,71
529.02325,529.22327,69,75,71
529.22327,529.41907,70,75,71
529.4232,529.6232,70,75,71
529.6232,529.82324,73,75,71
529.82324,530.02325,72,75,71
530.02325,530.21906,70,75,71
530.22327,530.4232,70,75,71
530.4232,530.6232,68,75,71
530.6232,530.82324,67,75,71
530.82324,531.01904,65,75,71
531.02325,531.22327,68,75,71
531.22327,531.4232,72,75,71
531.4232,531.6232,70,75,71
531.6232,531.8191,68,75,71
531.82324,532.02325,68,75,71
532.02325,532.22327,67,75,71
532.22327,532.4232,65,75,71
532.4232,532.6191,63,75,71
532.6232,533.4232,76,75,71
533.4232,533.52325,77,75,71
534.22327,535.02325,74,75,71
535.02325,535.1232,75,75,71
535.4232,535.7566,67,45,71
536.22327,536.5566,68,45,71
537.02325,537.35657,70,45,71
537.82324,538.15656,72,45,71
538.22327,538.5566,73,45,71
544.22327,544.6232,77,92,71
544.6232,544.72327,79,60,71
545.02325,545.5566,55,84,71
545.6232,545.6899,55,60,71
545.82324,545.8899,58,62,71
546.02325,546.0899,63,65,71
546.22327,546.2899,67,68,71
546.4232,546.4899,70,71,71
546.6232,546.6899,75,74,71
546.82324,546.8899,79,77,71
547.02325,547.0899,82,80,71
547.22327,547.2899,70,83,71
547.4232,547.4899,72,86,71
547.6232,547.6899,74,89,71
547.82324,548.15656,75,92,71
555.02325,555.1232,79,92,71
555.4232,555.52325,79,92,71
555.82324,556.35657,79,92,71
556.4232,556.4899,79,92,71
556.6232,556.72327,80,92,71
557.02325,557.1232,82,92,71
557.4232,557.6191,84,92,71
561.4232,561.52325,79,92,71
561.82324,561.9232,79,92,71
562.22327,562.7566,79,92,71
562.82324,562.8899,79,92,71
563.02325,563.1232,80,92,71
563.4232,563.52325,82,92,71
563.82324,563.9232,84,92,71
564.22327,564.5566,77,60,71
565.02325,565.35657,77,60,71
565.82324,566.15656,75,60,71
566.6232,566.95654,74,60,71
567.02325,567.35657,75,60,71
568.02325,568.22327,82,60,71
568.22327,568.4232,81,60,71
568.4232,568.6191,82,60,71
568.6232,569.02325,84,60,71
569.02325,569.35657,82,60,71
569.4232,569.6732,80,60,71
569.82324,569.9232,79,60,71
570.22327,570.9232,77,60,71
571.22327,571.4232,80,60,71
571.4232,571.6232,79,60,71
571.6232,571.8191,80,60,71
571.82324,572.22327,82,60,71
572.22327,572.5566,80,60,71
572.6232,572.8732,79,60,71
573.02325,573.1232,77,60,71
573.4232,573.7566,75,60,71
575.02325,576.22327,63,60,71
576.22327,576.4232,65,75,71
576.4232,576.6232,67,75,71
576.6232,576.95654,68,60,71
578.22327,579.4232,58,60,71
579.4232,579.6232,60,75,71
579.6232,579.82324,62,75,71
579.82324,580.15656,63,60,71
580.22327,580.41907,79,92,71
581.82324,582.01904,77,92,71
583.4232,583.6191,79,92,71
585.02325,585.21906,80,92,71
585.4232,585.5566,70,92,71
585.5566,585.6899,72,92,71
585.6899,585.82324,70,92,71
585.82324,585.95654,68,92,71
585.95654,586.0899,67,92,71
586.0899,586.21906,65,92,71
586.22327,587.02325,63,92,71
587.02325,587.72327,63,60,71
587.82324,588.6232,79,92,71
588.6232,589.32324,79,60,71
589.4232,590.22327,80,92,71
590.22327,590.9232,80,60,71
591.02325,591.82324,81,92,71
591.82324,592.52325,81,75,71
592.6232,592.95654,82,92,71
600.6232,601.72327,80,60,71
601.82324,602.15656,80,60,71
602.22327,602.6232,80,60,71
602.6232,603.02325,79,60,71
603.02325,603.4232,77,60,71
603.4232,603.7566,75,60,71
603.82324,604.22327,75,60,71
604.22327,604.6232,74,60,71
604.6232,605.02325,72,60,71
605.02325,605.35657,70,60,71
605.4232,605.82324,70,60,71
605.82324,606.15656,75,60,71
606.22327,606.32324,75,60,71
610.22327,611.32324,73,60,71
611.4232,611.7566,73,60,71
611.82324,612.22327,73,60,71
612.22327,612.6232,72,60,71
612.6232,613.02325,70,60,71
613.02325,613.35657,68,60,71
613.4232,613.82324,68,60,71
613.82324,614.22327,67,62,71
614.22327,614.6232,65,64,71
614.6232,614.95654,63,66,71
615.02325,615.4232,63,68,71
615.4232,615.7566,68,71,71
615.82324,615.9232,68,74,71
616.6232,617.72327,73,80,71
617.82324,618.15656,73,89,71
618.22327,618.42444,63,92,71
618.22327,618.42444,72,92,71
618.6342,618.84106,63,92,71
618.6342,618.84106,72,92,71
619.0567,619.2696,63,92,71
619.0567,619.2696,72,92,71
621.5263,621.7221,80,92,71
621.9263,622.1275,80,92,71
622.3373,622.5441,80,92,71
626.3823,626.58234,56,60,71
626.58234,626.78235,60,60,71
626.78235,626.9823,63,60,71
626.9823,627.1823,68,60,71
627.1823,627.3823,72,60,71
627.3823,627.58234,75,60,71
627.58234,627.78235,80,60,71
627.78235,627.97815,84,60,71
627.9823,629.4823,82,60,71
629.58234,629.649,80,60,71
629.78235,629.9823,80,60,71
629.9823,630.1823,77,60,71
630.1823,630.3823,74,60,71
630.3823,630.58234,68,60,71
630.58234,630.78235,65,60,71
630.78235,630.9823,62,60,71
630.9823,631.17816,56,60,71
631.1823,631.5156,55,60,71
631.58234,631.78235,79,64,71
631.78235,631.9823,77,66,71
631.9823,632.1823,75,68,71
632.1823,632.3823,74,70,71
632.3823,632.58234,72,72,71
632.58234,632.78235,71,74,71
632.78235,632.9823,72,76,71
632.9823,633.1823,74,78,71
633.1823,633.3823,75,80,71
633.3823,633.58234,74,82,71
633.58234,633.78235,77,84,71
633.78235,633.9823,75,86,71
633.9823,634.1823,74,88,71
634.1823,634.3782,72,90,71
634.3823,635.1823,70,92,71
635.1823,636.1823,70,75,71
636.1823,636.3823,72,60,71
636.3823,636.58234,74,60,71
636.58234,636.78235,75,60,71
636.78235,636.9823,77,60,71
636.9823,637.1823,79,60,71
637.1823,637.3823,80,60,71
637.3823,637.5781,74,60,71
637.58234,637.91565,75,60,71
639.58234,639.9823,70,60,71
639.9823,640.3157,68,61,71
640.3823,640.4823,65,62,71
640.78235,640.8823,63,63,71
642.78235,643.1823,70,68,71
643.1823,643.5156,68,69,71
643.58234,643.6823,65,70,71
643.9823,644.08234,63,71,71
645.9823,646.3823,70,77,71
646.3823,646.71564,68,78,71
646.78235,646.8823,65,79,71
647.1823,647.28235,63,80,71
647.58234,648.11566,70,113,71
648.1823,648.3823,70,83,71
648.3823,648.58234,69,83,71
648.58234,648.77814,70,83,71
648.78235,648.8823,70,84,71
649.1823,649.71564,70,120,71
649.78235,649.9823,70,89,71
649.9823,650.1823,69,90,71
650.1823,650.3782,70,91,71
650.3823,650.57556,70,92,71
650.77704,650.97034,80,92,71
651.1718,651.36505,79,92,71
651.5665,651.75977,80,92,71
651.96124,652.15204,79,92,71
652.3509,652.5416,80,92,71
652.7405,652.9312,79,92,71
653.13007,653.32086,80,92,71
653.5197,653.7155,79,92,71
654.3197,654.52954,79,92,71
655.1768,655.40283,75,92,71
3.75,5.0,39,92,42
3.75,5.0,46,92,42
4.0625,5.0,51,92,42
5.0,7.1875,51,60,42
11.09375,11.25,50,75,42
11.25,13.75,51,60,42
13.75,14.6744795,51,45,42
14.84375,15.0,50,75,42
15.0,15.9244795,51,92,42
16.09375,16.25,50,92,42
16.25,17.174479,51,92,42
17.34375,17.5,50,92,42
17.5,18.424479,51,92,42
18.59375,18.75,50,75,42
18.75,20.0,51,60,42
20.0,21.666666,51,45,42
22.34375,22.5,50,75,42
22.5,23.424479,51,92,42
23.59375,23.75,50,75,42
23.75,24.674479,51,75,42
24.84375,25.0,50,75,42
25.0,26.041666,51,75,42
26.25,26.5625,51,92,42
26.5625,26.875,54,92,42
26.875,27.1875,51,92,42
27.1875,27.5,53,92,42
27.5,27.826086,54,92,42
27.826086,28.152174,53,92,42
28.152174,28.47826,51,92,42
28.47826,28.804346,53,92,42
28.804346,29.145256,54,92,42
29.145256,29.486164,53,92,42
29.486164,29.827074,51,92,42
29.827074,30.153778,63,92,42
30.167982,30.835596,62,92,42
35.90662,36.53162,63,75,42
36.53162,37.15662,65,60,42
37.15662,37.768597,63,60,42
37.78162,38.393597,62,45,42
43.40662,44.03162,63,75,42
44.03162,44.65662,65,60,42
44.65662,45.268597,63,60,42
45.28162,45.893597,62,45,42
47.78162,49.03162,53,92,42
49.03162,49.643597,58,60,42
51.53162,52.78162,53,92,42
52.78162,53.393597,58,60,42
55.28162,55.41834,60,92,42
55.489952,55.62667,57,92,42
55.698284,55.835003,53,86,42
55.90662,56.04334,48,80,42
56.114952,56.25167,45,74,42
56.323284,56.460003,41,67,42
56.53162,57.143597,46,60,42
57.78162,58.393597,46,60,42
59.03162,59.643597,46,60,42
60.28162,60.893597,48,60,42
61.53162,62.143597,50,60,42
62.78162,63.393597,51,60,42
64.03162,64.6436,46,60,42
64.65662,64.86495,63,60,42
64.96912,65.17745,63,60,42
65.28162,65.49901,63,60,42
65.607704,65.825096,63,64,42
65.93379,66.151184,63,68,42
66.25988,66.47727,63,72,42
66.58597,66.735115,62,76,42
66.81324,66.96239,62,78,42
67.04051,67.18966,62,80,42
67.267784,67.43185,62,83,42
67.517784,67.68619,62,86,42
67.78167,67.96397,62,89,42
68.05945,68.26453,62,92,42
68.37195,68.57703,46,92,42
68.68445,68.88953,50,92,42
68.99695,69.23132,53,92,42
69.354095,69.58847,58,92,42
69.711235,69.94561,62,92,42
70.06838,71.4036,65,92,42
89.869514,89.96951,51,92,42
90.269516,90.369514,55,75,42
90.66952,90.769516,58,60,42
91.06951,91.16952,63,60,42
91.46951,91.56951,55,92,42
91.869514,91.96951,58,75,42
92.269516,92.369514,63,60,42
92.66952,92.769516,67,60,42
93.06951,93.16952,55,92,42
93.46951,93.56951,58,75,42
93.869514,93.96951,63,60,42
94.269516,94.369514,67,60,42
94.66952,94.769516,55,60,42
95.06951,95.16952,51,68,42
95.46951,95.56951,46,76,42
95.869514,95.96951,43,84,42
96.269516,96.369514,44,92,42
96.66952,96.769516,48,75,42
97.06951,97.16952,51,60,42
97.46951,97.56951,56,60,42
97.869514,97.96951,41,60,42
98.269516,98.369514,44,68,42
98.66952,98.769516,48,76,42
99.06951,99.16952,53,84,42
99.46951,99.56951,46,92,42
99.869514,99.96951,50,75,42
100.269516,100.369514,53,60,42
100.66952,100.769516,58,60,42
101.06951,101.16952,44,60,42
101.46951,101.56951,50,68,42
101.869514,101.96951,53,76,42
102.269516,102.369514,56,84,42
102.66952,102.769516,43,92,42
103.06951,103.16952,55,75,42
103.46951,103.56951,44,60,42
103.869514,103.96951,56,60,42
104.269516,104.369514,46,60,42
104.66952,104.769516,58,68,42
105.06951,105.16952,46,76,42
105.46951,105.56951,58,84,42
105.869514,106.065346,51,92,42
106.269516,106.47071,67,92,42
106.68047,106.88734,67,92,42
109.12554,109.32137,46,92,42
109.52554,109.72674,65,92,42
109.9365,110.143364,65,92,42
112.38157,112.57741,62,92,42
112.78157,112.98277,62,92,42
113.19253,113.3994,63,92,42
115.637596,115.97093,63,60,42
116.0376,116.7376,63,60,42
116.8376,117.57093,63,70,42
117.637596,118.3376,63,80,42
118.4376,118.8376,63,92,42
118.8376,119.17093,62,92,42
119.2376,119.4376,62,60,42
119.4376,119.5376,63,60,42
119.5376,119.63343,65,60,42
119.637596,119.70427,67,60,42
119.8376,119.90427,67,60,42
120.0376,120.10426,67,60,42
120.2376,120.30427,67,60,42
120.4376,120.770935,65,60,42
122.0376,122.637596,62,60,42
122.637596,122.7376,63,60,42
122.7376,122.833435,65,60,42
122.8376,122.90427,67,60,42
123.0376,123.10426,67,60,42
123.2376,123.30427,67,60,42
123.4376,123.504265,67,60,42
123.637596,123.70427,65,60,42
123.8376,123.90427,58,64,42
124.0376,124.10426,58,68,42
124.2376,124.30427,56,72,42
124.4376,124.504265,55,76,42
124.637596,124.70427,58,80,42
124.8376,124.90427,55,84,42
125.0376,125.10426,51,88,42
125.2376,125.30609,46,92,42
125.44308,125.51157,58,92,42
125.64856,125.71898,51,92,42
125.859825,125.930244,58,92,42
126.07109,126.143555,46,92,42
126.28848,126.36095,58,92,42
126.505875,126.57941,51,92,42
126.72646,126.79999,58,92,42
126.94705,127.3147,46,92,42
135.07057,135.60391,62,60,42
135.87057,136.40392,57,60,42
136.67058,137.20392,58,60,42
137.47058,138.0039,63,60,42
138.27058,138.37057,62,60,42
138.67058,138.77058,60,60,42
139.07057,139.17058,58,60,42
139.47058,139.57057,58,60,42
139.87057,140.20392,57,60,42
143.07057,143.87057,58,60,42
143.87057,144.47058,62,84,42
144.47058,144.66641,58,60,42
144.67058,145.0039,57,60,42
146.27058,146.47058,58,60,42
146.47058,146.67058,60,60,42
146.67058,146.87057,62,75,42
146.87057,147.07057,60,75,42
147.07057,147.27058,63,92,42
147.27058,147.47058,62,92,42
147.47058,147.67058,60,75,42
147.67058,147.86641,58,75,42
147.87057,148.20392,57,60,42
148.67058,149.47058,51,60,42
149.47058,149.57057,50,60,42
150.27058,150.37057,51,60,42
151.07057,151.17058,53,60,42
151.87057,151.97058,41,60,42
152.67058,153.0039,46,60,42
154.27058,157.26642,53,60,42
157.27058,157.46642,53,60,42
157.47058,157.67058,65,60,42
157.67058,157.86641,63,60,42
157.87057,158.07057,62,60,42
158.07057,158.26642,60,60,42
158.27058,158.47058,58,60,42
158.47058,158.66641,57,60,42
158.67058,158.87057,55,60,42
158.87057,159.0664,53,60,42
159.07057,160.46642,53,60,42
160.47058,160.66641,53,60,42
160.67058,160.87057,65,60,42
160.87057,161.0664,63,60,42
161.07057,161.27058,62,60,42
161.27058,161.46642,60,60,42
161.47058,161.67058,58,60,42
161.67058,161.86641,57,60,42
161.87057,162.07057,55,60,42
162.07057,162.26642,53,60,42
162.27058,162.60391,53,60,42
166.27058,167.07057,62,60,42
167.07057,167.17058,63,60,42
167.87057,168.67058,60,60,42
168.67058,168.77058,62,60,42
169.07057,169.40392,62,45,42
169.87057,170.20392,63,45,42
170.67058,171.0039,65,45,42
171.47058,171.80391,67,45,42
171.87057,172.20392,68,45,42
173.87057,173.97058,50,60,42
173.87057,173.97058,58,60,42
174.27058,174.37057,50,60,42
174.27058,174.37057,58,60,42
174.67058,174.77058,50,75,42
174.67058,174.77058,58,75,42
175.07057,175.40392,51,92,42
175.07057,175.40392,58,92,42
177.87057,178.27058,58,92,42
178.27058,179.26642,58,60,42
179.27058,179.33725,50,60,42
179.47058,179.53725,53,62,42
179.67058,180.0664,58,65,42
180.07057,180.13724,53,71,42
180.27058,180.33725,58,74,42
180.47058,180.53725,62,77,42
180.67058,180.73724,63,80,42
180.87057,180.93724,60,83,42
181.07057,181.13724,65,86,42
181.27058,181.33725,63,89,42
181.47058,181.80391,62,92,42
188.67058,188.77058,58,92,42
189.07057,189.17058,58,92,42
189.47058,190.0039,58,92,42
190.07057,190.13724,58,92,42
190.27058,190.37057,60,92,42
190.67058,190.77058,62,92,42
191.07057,191.26642,63,92,42
195.07057,195.17058,59,92,42
195.47058,195.57057,59,92,42
195.87057,196.40392,59,92,42
196.47058,196.53725,59,92,42
196.67058,196.77058,60,92,42
197.07057,197.17058,62,92,42
197.47058,197.57057,63,92,42
197.87057,198.20392,63,60,42
198.67058,199.0039,63,60,42
199.47058,199.80391,58,60,42
200.27058,200.60391,60,60,42
200.67058,201.0039,58,60,42
201.67058,201.87057,65,60,42
201.87057,202.07057,64,60,42
202.07057,202.26642,65,60,42
202.27058,202.67058,67,60,42
202.67058,203.0039,65,60,42
203.07057,203.32057,63,60,42
203.47058,203.57057,62,60,42
203.87057,204.57057,60,60,42
204.87057,205.07057,63,60,42
205.07057,205.27058,62,60,42
205.27058,205.46642,63,60,42
205.47058,205.87057,65,60,42
205.87057,206.20392,63,60,42
206.27058,206.52058,62,60,42
206.67058,206.77058,60,60,42
207.07057,207.40392,58,60,42
208.67058,209.87057,58,45,42
209.87057,210.07057,60,45,42
210.07057,210.27058,62,45,42
210.27058,210.60391,63,45,42
211.87057,213.07057,53,60,42
213.07057,213.27058,55,60,42
213.27058,213.47058,57,60,42
213.47058,213.80391,58,60,42
213.87057,214.0664,58,92,42
215.47058,215.66641,60,92,42
217.07057,217.26642,58,92,42
218.68153,218.88274,60,92,42
219.91441,220.12128,62,92,42
220.75948,220.97234,53,92,42
220.75948,220.97234,60,92,42
221.62904,221.84827,46,92,42
221.62904,222.07214,53,92,42
221.74098,222.07214,58,92,42
239.34845,239.44844,51,92,42
239.74844,239.84845,55,75,42
240.14845,240.24844,58,60,42
240.54845,240.64845,63,60,42
240.94844,241.04845,55,92,42
241.34845,241.44844,58,75,42
241.74844,241.84845,63,60,42
242.14845,242.24844,67,60,42
242.54845,242.64845,55,92,42
242.94844,243.04845,58,75,42
243.34845,243.44844,63,60,42
243.74844,243.84845,67,60,42
244.14845,244.24844,55,60,42
244.54845,244.64845,51,68,42
244.94844,245.04845,46,76,42
245.34845,245.44844,43,84,42
245.74844,245.84845,44,92,42
246.14845,246.24844,48,75,42
246.54845,246.64845,51,60,42
246.94844,247.04845,56,60,42
247.34845,247.44844,41,60,42
247.74844,247.84845,44,68,42
248.14845,248.24844,48,76,42
248.54845,248.64845,53,84,42
248.94844,249.04845,46,92,42
249.34845,249.44844,50,75,42
249.74844,249.84845,53,60,42
250.14845,250.24844,58,60,42
250.54845,250.64845,44,60,42
250.94844,251.04845,50,68,42
251.34845,251.44844,53,76,42
251.74844,251.84845,56,84,42
252.14845,252.24844,43,92,42
252.54845,252.64845,55,75,42
252.94844,253.04845,44,60,42
253.34845,253.44844,56,60,42
253.74844,253.84845,46,60,42
254.14845,254.24844,58,68,42
254.54845,254.64845,46,76,42
254.94844,255.04845,58,84,42
255.34845,255.54428,51,92,42
255.74844,255.94965,67,92,42
256.1594,256.36627,67,92,42
258.60446,258.8003,46,92,42
259.0045,259.20566,65,92,42
259.41544,259.62228,65,92,42
261.8605,262.05634,62,92,42
262.2605,262.4617,62,92,42
262.67145,262.87833,63,92,42
265.11652,265.44986,63,60,42
265.51654,266.21652,63,60,42
266.31653,267.04987,63,70,42
267.11652,267.81653,63,80,42
267.91653,268.31653,63,92,42
268.31653,268.64987,62,92,42
268.71652,268.91653,62,60,42
268.91653,269.01654,63,60,42
269.01654,269.11237,65,60,42
269.11652,269.1832,67,60,42
269.31653,269.3832,67,60,42
269.51654,269.5832,67,60,42
269.71652,269.7832,67,60,42
269.91653,270.24988,65,60,42
271.51654,272.11652,62,60,42
272.11652,272.21652,63,60,42
272.21652,272.31238,65,60,42
272.31653,272.3832,67,60,42
272.51654,272.5832,67,60,42
272.71652,272.7832,67,60,42
272.91653,272.9832,67,60,42
273.11652,273.1832,65,60,42
273.31653,273.3832,58,64,42
273.51654,273.5832,58,68,42
273.71652,273.7832,56,72,42
273.91653,273.9832,55,76,42
274.11652,274.1832,58,80,42
274.31653,274.3832,55,84,42
274.51654,274.5832,51,88,42
274.71652,274.78503,46,92,42
274.922,274.9905,58,92,42
275.1275,275.1979,51,92,42
275.33875,275.40918,58,92,42
275.55002,275.6225,46,92,42
275.76743,275.83987,58,92,42
275.9848,276.05835,51,92,42
276.20538,276.27893,58,92,42
276.426,276.79364,46,92,42
284.5495,285.08286,62,60,42
285.34952,285.88284,57,60,42
286.1495,286.68283,58,60,42
286.94952,287.48285,63,60,42
287.7495,287.84952,62,60,42
288.1495,288.2495,60,60,42
288.5495,288.6495,58,60,42
288.94952,289.0495,58,60,42
289.34952,289.68283,57,60,42
292.5495,293.34952,58,60,42
293.34952,293.94952,62,84,42
293.94952,294.14536,58,60,42
294.1495,294.48285,57,60,42
295.7495,295.94952,58,60,42
295.94952,296.1495,60,60,42
296.1495,296.34952,62,75,42
296.34952,296.5495,60,75,42
296.5495,296.7495,63,92,42
296.7495,296.94952,62,92,42
296.94952,297.1495,60,75,42
297.1495,297.34534,58,75,42
297.34952,297.68283,57,60,42
298.1495,298.94952,51,60,42
298.94952,299.0495,50,60,42
299.7495,299.84952,51,60,42
300.5495,300.6495,53,60,42
301.34952,301.44952,41,60,42
302.1495,302.48285,46,60,42
303.7495,306.74533,53,60,42
306.7495,306.94534,53,60,42
306.94952,307.1495,65,60,42
307.1495,307.34534,63,60,42
307.34952,307.5495,62,60,42
307.5495,307.74533,60,60,42
307.7495,307.94952,58,60,42
307.94952,308.14536,57,60,42
308.1495,308.34952,55,60,42
308.34952,308.54535,53,60,42
308.5495,309.94534,53,60,42
309.94952,310.14536,53,60,42
310.1495,310.34952,65,60,42
310.34952,310.54535,63,60,42
310.5495,310.7495,62,60,42
310.7495,310.94534,60,60,42
310.94952,311.1495,58,60,42
311.1495,311.34534,57,60,42
311.34952,311.5495,55,60,42
311.5495,311.74533,53,60,42
311.7495,312.08286,53,60,42
315.7495,316.5495,62,60,42
316.5495,316.6495,63,60,42
317.34952,318.1495,60,60,42
318.1495,318.2495,62,60,42
318.5495,318.88284,62,45,42
319.34952,319.68283,63,45,42
320.1495,320.48285,65,45,42
320.94952,321.28284,67,45,42
321.34952,321.68283,68,45,42
323.34952,323.44952,50,60,42
323.34952,323.44952,58,60,42
323.7495,323.84952,50,60,42
323.7495,323.84952,58,60,42
324.1495,324.2495,50,75,42
324.1495,324.2495,58,75,42
324.5495,324.88284,51,92,42
324.5495,324.88284,58,92,42
327.34952,327.7495,58,92,42
327.7495,328.74533,58,60,42
328.7495,328.81616,50,60,42
328.94952,329.01617,53,62,42
329.1495,329.54535,58,65,42
329.5495,329.61618,53,71,42
329.7495,329.81616,58,74,42
329.94952,330.01617,62,77,42
330.1495,330.2162,63,80,42
330.34952,330.41617,60,83,42
330.5495,330.61618,65,86,42
330.7495,330.81616,63,89,42
330.94952,331.28284,62,92,42
338.1495,338.2495,58,92,42
338.5495,338.6495,58,92,42
338.94952,339.48285,58,92,42
339.5495,339.61618,58,92,42
339.7495,339.84952,60,92,42
340.1495,340.2495,62,92,42
340.5495,340.74533,63,92,42
344.5495,344.6495,59,92,42
344.94952,345.0495,59,92,42
345.34952,345.88284,59,92,42
345.94952,346.01617,59,92,42
346.1495,346.2495,60,92,42
346.5495,346.6495,62,92,42
346.94952,347.0495,63,92,42
347.34952,347.68283,63,60,42
348.1495,348.48285,63,60,42
348.94952,349.28284,58,60,42
349.7495,350.08286,60,60,42
350.1495,350.48285,58,60,42
351.1495,351.34952,65,60,42
351.34952,351.5495,64,60,42
351.5495,351.74533,65,60,42
351.7495,352.1495,67,60,42
352.1495,352.48285,65,60,42
352.5495,352.7995,63,60,42
352.94952,353.0495,62,60,42
353.34952,354.0495,60,60,42
354.34952,354.5495,63,60,42
354.5495,354.7495,62,60,42
354.7495,354.94534,63,60,42
354.94952,355.34952,65,60,42
355.34952,355.68283,63,60,42
355.7495,355.9995,62,60,42
356.1495,356.2495,60,60,42
356.5495,356.88284,58,60,42
358.1495,359.34952,58,45,42
359.34952,359.5495,60,45,42
359.5495,359.7495,62,45,42
359.7495,360.08286,63,45,42
361.34952,362.5495,53,60,42
362.5495,362.7495,55,60,42
362.7495,362.94952,57,60,42
362.94952,363.28284,58,60,42
363.34952,363.54535,58,92,42
364.94952,365.14536,60,92,42
366.5495,366.74533,58,92,42
368.16046,368.36166,60,92,42
369.39334,369.60022,62,92,42
370.2384,370.45126,53,92,42
370.2384,370.45126,60,92,42
371.10797,371.32718,46,92,42
371.10797,371.5511,53,92,42
371.2199,371.5511,58,92,42
372.2274,372.29404,46,92,42
372.42737,372.49405,45,75,42
372.62738,372.69403,46,75,42
372.8274,373.8232,50,105,42
373.8274,373.89404,50,92,42
374.02737,374.09406,49,75,42
374.2274,374.29404,50,75,42
374.42737,375.42322,53,105,42
375.42737,375.49405,53,92,42
375.62738,375.69403,52,75,42
375.8274,375.89404,53,75,42
376.02737,377.12738,56,105,42
377.2274,377.3274,53,75,42
377.62738,377.7274,50,75,42
378.02737,378.12738,47,75,42
378.42737,378.52737,48,75,42
378.8274,378.92737,42,75,42
379.2274,379.5607,43,75,42
386.62738,386.8274,63,60,42
386.8274,387.02737,62,60,42
387.02737,387.2232,63,60,42
387.2274,387.62738,65,60,42
387.62738,387.96072,63,60,42
388.02737,388.27737,61,60,42
388.42737,388.52737,60,60,42
388.8274,389.52737,58,60,42
389.8274,390.02737,61,60,42
390.02737,390.2274,60,60,42
390.2274,390.42322,61,60,42
390.42737,390.8274,63,60,42
390.8274,391.1607,61,60,42
391.2274,391.4774,60,60,42
391.62738,391.7274,58,60,42
392.02737,392.12738,56,60,42
392.42737,392.52737,44,60,42
392.8274,392.92737,44,60,42
395.2274,395.3274,43,60,42
395.62738,395.7274,43,60,42
396.02737,396.12738,43,60,42
399.42737,399.62738,60,60,42
399.62738,399.8274,59,60,42
399.8274,400.02322,60,60,42
400.02737,400.42737,61,60,42
400.42737,400.7607,60,60,42
400.8274,401.0774,58,60,42
401.2274,401.3274,56,60,42
401.62738,402.3274,55,60,42
402.62738,402.8274,58,60,42
402.8274,403.02737,57,60,42
403.02737,403.2232,58,60,42
403.2274,403.62738,60,60,42
403.62738,403.96072,58,60,42
404.02737,404.27737,56,60,42
404.42737,404.52737,55,60,42
404.8274,404.89404,53,60,42
405.02737,405.09406,48,60,42
405.2274,405.29404,53,60,42
405.42737,405.49405,48,60,42
405.62738,405.69403,53,60,42
405.8274,405.89404,48,60,42
406.02737,406.09406,53,60,42
406.2274,406.29404,48,60,42
406.42737,406.49405,53,60,42
406.62738,406.69403,48,60,42
406.8274,406.89404,53,60,42
407.02737,407.09406,48,60,42
407.2274,407.29404,53,60,42
407.42737,407.49405,48,60,42
407.62738,407.69403,53,60,42
407.8274,407.89404,48,60,42
408.02737,408.09406,55,60,42
408.2274,408.29404,48,60,42
408.42737,408.49405,55,60,42
408.62738,408.69403,48,60,42
408.8274,408.89404,55,60,42
409.02737,409.09406,48,60,42
409.2274,409.29404,55,60,42
409.42737,409.49405,48,60,42
409.62738,409.69403,55,60,42
409.8274,409.89404,48,60,42
410.02737,410.09406,55,60,42
410.2274,410.29404,48,60,42
410.42737,410.49405,55,60,42
410.62738,410.69403,48,60,42
410.8274,410.89404,55,60,42
411.02737,411.09406,48,60,42
411.2274,411.29404,53,60,42
411.42737,411.49405,48,60,42
411.62738,411.69403,53,60,42
411.8274,411.89404,48,60,42
412.02737,412.09406,53,60,42
412.2274,412.29404,48,60,42
412.42737,412.49405,53,60,42
412.62738,412.69403,48,60,42
412.8274,412.89404,53,60,42
413.02737,413.09406,46,60,42
413.2274,413.29404,53,60,42
413.42737,413.49405,46,60,42
413.62738,413.69403,53,60,42
413.8274,413.89404,46,60,42
414.02737,414.09406,53,60,42
414.2274,414.29404,46,60,42
414.42737,414.49405,51,60,42
414.62738,414.69403,46,62,42
414.8274,414.89404,51,64,42
415.02737,415.09406,46,66,42
415.2274,415.29404,51,68,42
415.42737,415.49405,46,70,42
415.62738,415.69403,51,72,42
415.8274,415.89404,46,74,42
416.02737,416.09406,51,76,42
416.2274,416.29404,48,78,42
416.42737,416.49405,51,80,42
416.62738,416.69403,48,82,42
416.8274,416.89404,51,84,42
417.02737,417.09406,48,86,42
417.2274,417.29404,51,88,42
417.42737,417.49405,48,90,42
417.62738,417.96072,46,92,42
418.02737,418.27737,58,60,42
418.42737,418.67737,58,60,42
418.8274,418.92737,58,60,42
419.2274,419.4774,58,60,42
419.62738,419.87738,58,60,42
420.02737,420.27737,58,60,42
420.42737,420.52737,58,60,42
420.8274,421.0774,58,60,42
421.2274,421.4774,58,68,42
421.62738,421.87738,58,76,42
422.02737,422.12738,58,84,42
422.42737,422.67737,58,92,42
422.8274,423.0774,58,92,42
423.2274,423.4774,58,75,42
423.62738,423.7274,58,75,42
424.02737,424.09406,58,60,42
424.2274,424.42737,58,60,42
424.42737,424.62738,57,60,42
424.62738,424.69403,58,60,42
424.8274,424.92737,46,60,42
425.2274,425.3274,58,60,42
425.62738,425.87738,58,60,42
426.02737,426.27737,58,60,42
426.42737,426.67737,58,60,42
426.8274,426.92737,58,60,42
427.2274,427.4774,58,60,42
427.62738,427.87738,58,68,42
428.02737,428.27737,58,76,42
428.42737,428.52737,58,84,42
428.8274,429.0774,58,92,42
429.2274,429.4774,58,92,42
429.62738,429.87738,58,75,42
430.02737,430.12738,58,60,42
430.42737,430.49405,58,45,42
430.62738,430.8274,58,45,42
430.8274,431.02737,57,45,42
431.02737,431.2232,58,45,42
431.2274,431.3274,46,45,42
432.23007,432.43277,62,45,42
432.43277,432.6355,61,45,42
432.6355,432.83395,62,45,42
432.8382,432.93954,50,45,42
433.8545,434.05997,65,45,42
434.05997,434.26544,64,45,42
434.26544,434.46664,65,45,42
434.47092,434.57364,53,45,42
435.7095,435.81366,68,45,42
436.54282,436.647,65,53,42
437.38202,437.48767,62,61,42
438.2271,438.33273,58,69,42
439.07822,439.18533,56,77,42
439.93533,440.14517,53,87,42
440.36392,441.1639,51,92,42
441.1639,441.86392,51,60,42
441.96393,442.76392,55,92,42
442.76392,443.46393,55,60,42
443.5639,443.96393,58,92,42
443.96393,444.6639,58,60,42
447.1639,447.86392,60,75,42
447.96393,448.29724,60,60,42
450.36392,451.0639,62,75,42
451.1639,451.49725,62,60,42
456.5639,456.63058,58,60,42
456.76392,456.8306,57,60,42
456.96393,457.03058,58,75,42
457.1639,458.15976,63,92,42
458.1639,458.2306,63,60,42
458.36392,458.43057,62,60,42
458.5639,458.63058,63,75,42
458.76392,460.36392,67,92,42
460.36392,461.35974,67,60,42
461.36392,461.43057,63,60,42
461.5639,461.63058,58,64,42
461.76392,461.8306,55,68,42
461.96393,462.03058,51,72,42
462.1639,462.2306,46,77,42
462.36392,462.43057,43,82,42
462.5639,462.63058,39,87,42
462.76392,463.09726,44,92,42
463.5639,464.55975,63,92,42
464.5639,464.63058,63,60,42
464.76392,464.8306,60,60,42
464.96393,465.03058,56,60,42
465.1639,465.2306,51,60,42
465.36392,465.43057,48,60,42
465.5639,465.63058,44,60,42
465.76392,465.8306,39,60,42
465.96393,466.29724,43,60,42
466.76392,467.89725,58,68,42
467.96393,468.36392,51,80,42
468.36392,468.76392,55,84,42
468.76392,469.09726,58,88,42
469.1639,469.49725,56,92,42
471.96393,472.29724,68,92,42
472.36392,472.76392,68,92,42
472.76392,473.1639,67,92,42
473.1639,473.5639,65,92,42
473.5639,473.89725,63,92,42
473.96393,475.1639,63,92,42
475.1639,475.49725,61,92,42
475.5639,475.96393,61,92,42
475.96393,476.36392,60,92,42
476.36392,476.76392,59,92,42
476.76392,477.09726,60,92,42
477.1639,478.36392,63,92,42
478.36392,478.5639,60,92,42
478.5639,478.75977,56,92,42
478.76392,479.09726,51,92,42
479.96393,480.29724,63,92,42
480.36392,481.5639,63,92,42
481.5639,481.89725,61,92,42
481.96393,482.6639,60,92,42
482.76392,483.46393,58,92,42
483.5639,484.26392,57,92,42
484.36392,485.0639,60,92,42
485.1639,485.49725,58,92,42
485.5639,485.76392,62,60,42
485.76392,485.86392,63,60,42
485.86392,485.95975,65,60,42
485.96393,486.03058,67,60,42
486.1639,486.2306,67,60,42
486.36392,486.43057,67,60,42
486.5639,486.63058,67,60,42
486.76392,487.09726,65,60,42
488.36392,488.96393,62,60,42
488.96393,489.0639,63,66,42
489.0639,489.15976,65,67,42
489.1639,489.2306,67,67,42
489.36392,489.43057,67,69,42
489.5639,489.63058,67,71,42
489.76392,489.8306,67,73,42
489.96393,490.03058,65,75,42
490.1639,490.2306,58,77,42
490.36392,490.43057,58,79,42
490.5639,490.63058,56,81,42
490.76392,490.8306,55,83,42
490.96393,491.03058,58,85,42
491.1639,491.2306,55,87,42
491.36392,491.43057,51,89,42
491.5639,491.63242,46,92,42
491.7694,491.8379,58,92,42
491.97488,492.0453,51,92,42
492.18616,492.25656,58,92,42
492.3974,492.46988,46,92,42
492.6148,492.68726,58,92,42
492.83218,492.90683,51,92,42
493.05606,493.1307,58,92,42
493.27997,493.65308,46,92,42
501.42325,504.95657,58,60,42
505.02322,505.72324,58,60,42
505.82324,505.92325,63,60,42
506.22324,506.55658,62,60,42
509.42325,510.22324,63,60,42
510.22324,510.82324,67,84,42
510.82324,511.01907,63,60,42
511.02322,511.35657,62,60,42
512.6232,512.82324,63,60,42
512.82324,513.02325,65,60,42
513.02325,513.22327,67,75,42
513.22327,513.4232,65,75,42
513.4232,513.6232,68,92,42
513.6232,513.82324,67,92,42
513.82324,514.02325,65,75,42
514.02325,514.21906,63,75,42
514.22327,514.5566,62,60,42
515.4232,515.82324,44,60,42
515.82324,515.9232,43,60,42
516.6232,516.72327,44,60,42
517.4232,517.52325,46,60,42
518.22327,518.32324,46,60,42
519.02325,519.35657,51,60,42
520.6232,520.82324,46,60,42
520.82324,521.02325,50,60,42
521.02325,521.22327,53,60,42
521.22327,521.41907,50,60,42
521.4232,521.6232,46,60,42
521.6232,521.82324,50,60,42
521.82324,522.02325,53,60,42
522.02325,522.21906,50,60,42
522.22327,522.4232,46,60,42
522.4232,522.6232,51,60,42
522.6232,522.82324,55,75,42
522.82324,523.01904,51,75,42
523.02325,523.22327,46,92,42
523.22327,523.4232,51,92,42
523.4232,523.6232,55,75,42
523.6232,523.8191,51,75,42
523.82324,524.02325,46,60,42
524.02325,524.22327,50,60,42
524.22327,524.4232,53,60,42
524.4232,524.6191,50,60,42
524.6232,524.82324,46,60,42
524.82324,525.02325,50,60,42
525.02325,525.22327,53,60,42
525.22327,525.41907,50,60,42
525.4232,525.6232,46,60,42
525.6232,525.82324,51,60,42
525.82324,526.02325,55,75,42
526.02325,526.21906,51,75,42
526.22327,526.4232,46,92,42
526.4232,526.6232,51,92,42
526.6232,526.82324,55,75,42
526.82324,527.01904,51,75,42
527.02325,527.22327,46,60,42
527.22327,527.4232,50,60,42
527.4232,527.6232,53,60,42
527.6232,527.8191,50,60,42
527.82324,528.02325,46,60,42
528.02325,528.22327,50,60,42
528.22327,528.4232,53,60,42
528.4232,528.6191,58,60,42
528.6232,528.95654,58,60,42
532.6232,533.4232,67,60,42
533.4232,533.52325,68,60,42
534.22327,535.02325,65,60,42
535.02325,535.1232,67,60,42
535.4232,535.7566,51,45,42
536.22327,536.5566,53,45,42
537.02325,537.35657,55,45,42
537.82324,538.15656,56,45,42
538.22327,538.5566,58,45,42
540.22327,540.32324,43,60,42
540.22327,540.32324,51,60,42
540.6232,540.72327,43,60,42
540.6232,540.72327,51,60,42
541.02325,541.1232,43,75,42
541.02325,541.1232,51,75,42
541.4232,541.52325,44,92,42
541.4232,541.52325,51,92,42
544.22327,544.6232,63,92,42
544.6232,544.72327,63,60,42
545.02325,545.5566,51,84,42
545.6232,545.6899,51,60,42
545.82324,545.8899,55,62,42
546.02325,546.0899,58,65,42
546.22327,546.2899,63,68,42
546.4232,546.4899,58,71,42
546.6232,546.6899,55,74,42
546.82324,546.8899,51,77,42
547.02325,547.0899,56,80,42
547.0899,547.15656,58,81,42
547.15656,547.22327,56,82,42
547.22327,547.2899,58,83,42
547.2899,547.35657,56,84,42
547.35657,547.4232,58,85,42
547.4232,547.4899,56,86,42
547.4899,547.5566,58,87,42
547.5566,547.6232,56,88,42
547.6232,547.6899,58,89,42
547.6899,547.7566,55,90,42
547.7566,547.8191,56,91,42
547.82324,548.15656,55,92,42
555.02325,555.1232,58,92,42
555.4232,555.52325,58,92,42
555.82324,556.35657,58,92,42
556.4232,556.4899,58,92,42
556.6232,556.72327,60,92,42
557.02325,557.1232,61,92,42
557.4232,557.6191,63,92,42
561.4232,561.52325,64,92,42
561.82324,561.9232,64,92,42
562.22327,562.7566,64,92,42
562.82324,562.8899,64,92,42
563.02325,563.1232,65,92,42
563.4232,563.52325,67,92,42
563.82324,563.9232,68,92,42
564.22327,564.4232,56,60,42
564.4232,564.6191,60,60,42
565.02325,565.22327,56,60,42
565.22327,565.41907,60,60,42
565.82324,566.02325,55,60,42
566.02325,566.21906,58,60,42
566.6232,566.82324,56,60,42
566.82324,567.01904,58,60,42
567.02325,567.35657,55,60,42
568.6232,570.22327,63,92,42
570.22327,570.5566,62,60,42
571.82324,573.4232,62,92,42
573.4232,573.7566,63,60,42
575.02325,576.22327,51,60,42
576.22327,576.4232,53,75,42
576.4232,576.6232,55,75,42
576.6232,576.95654,56,60,42
578.22327,579.4232,46,60,42
579.4232,579.6232,48,75,42
579.6232,579.82324,50,75,42
579.82324,580.15656,51,60,42
580.22327,580.41907,63,92,42
581.82324,582.01904,62,92,42
583.4232,583.6191,63,92,42
585.02325,585.21906,65,92,42
585.4232,585.5566,58,92,42
585.5566,585.6899,60,92,42
585.6899,585.82324,58,92,42
585.82324,585.95654,56,92,42
585.95654,586.0899,55,92,42
586.0899,586.21906,53,92,42
586.22327,586.2899,51,92,42
586.4232,586.4899,51,92,42
586.6232,586.6899,50,92,42
586.82324,586.8899,51,92,42
587.02325,587.4232,63,92,42
587.4232,587.7566,63,60,42
588.02325,588.0899,51,60,42
588.22327,588.2899,50,60,42
588.4232,588.4899,51,75,42
588.6232,589.02325,61,92,42
589.02325,589.35657,61,60,42
589.4232,589.4899,60,60,42
589.6232,589.6899,51,60,42
589.82324,589.8899,50,75,42
590.02325,590.0899,51,75,42
590.22327,590.6232,60,92,42
590.6232,590.95654,60,60,42
591.02325,591.0899,59,92,42
591.22327,591.2899,51,92,42
591.4232,591.4899,50,92,42
591.6232,591.6899,51,92,42
591.82324,592.52325,59,92,42
592.6232,592.95654,58,92,42
594.22327,595.32324,68,60,42
595.4232,595.7566,68,60,42
595.82324,596.22327,68,60,42
596.22327,596.6232,67,60,42
596.6232,597.02325,65,60,42
597.02325,597.35657,63,60,42
597.4232,597.82324,63,60,42
597.82324,598.22327,62,60,42
598.22327,598.6232,60,60,42
598.6232,598.95654,58,60,42
599.02325,599.4232,58,60,42
599.4232,599.7566,63,60,42
599.82324,599.9232,63,60,42
600.6232,601.72327,68,60,42
601.82324,602.15656,68,60,42
602.22327,602.6232,68,60,42
602.6232,603.02325,67,60,42
603.02325,603.4232,65,60,42
603.4232,603.7566,63,60,42
603.82324,604.22327,63,60,42
604.22327,604.6232,62,60,42
604.6232,605.02325,60,60,42
605.02325,605.35657,58,60,42
605.4232,605.6232,58,60,42
605.6232,605.82324,63,60,42
605.82324,606.02325,62,60,42
606.02325,606.22327,63,60,42
606.22327,606.4232,67,60,42
606.4232,606.6232,63,60,42
606.6232,606.82324,58,60,42
606.82324,607.01904,55,60,42
607.02325,610.1232,51,60,42
610.22327,611.32324,61,60,42
611.4232,611.7566,61,60,42
611.82324,612.22327,61,60,42
612.22327,612.6232,60,60,42
612.6232,613.02325,58,60,42
613.02325,613.35657,56,60,42
613.4232,613.82324,56,60,42
613.82324,614.22327,55,62,42
614.22327,614.6232,53,64,42
614.6232,614.95654,51,66,42
615.02325,615.4232,51,68,42
615.4232,615.7566,56,71,42
615.82324,615.9232,56,74,42
616.6232,617.72327,61,80,42
617.82324,618.15656,61,89,42
618.22327,618.42444,60,92,42
618.6342,618.84106,56,92,42
619.0567,619.2696,56,92,42
621.5263,621.7221,65,92,42
621.9263,622.1275,65,92,42
622.3373,622.5441,65,92,42
624.78235,624.849,63,60,42
624.9823,625.049,51,60,42
625.1823,625.24896,55,60,42
625.3823,625.449,58,60,42
625.58234,625.649,63,60,42
625.78235,625.849,58,60,42
625.9823,626.049,55,60,42
626.1823,626.24896,51,60,42
626.3823,628.17816,63,60,42
628.1823,628.24896,67,60,42
628.3823,628.449,70,60,42
628.58234,628.649,67,60,42
628.78235,628.849,63,60,42
628.9823,629.049,58,60,42
629.1823,629.24896,55,60,42
629.3823,629.449,51,60,42
629.58234,631.1823,50,60,42
631.1823,631.28235,51,60,42
632.78235,634.58234,63,74,42
634.58234,634.78235,65,92,42
634.78235,634.9823,66,92,42
634.9823,635.1823,67,92,42
635.1823,635.3823,65,75,42
635.3823,635.58234,63,75,42
635.58234,635.78235,62,75,42
635.78235,635.97815,60,75,42
635.9823,637.08234,58,60,42
637.1823,637.5156,56,60,42
637.58234,637.649,55,60,42
637.78235,637.9823,55,60,42
637.9823,638.1823,58,60,42
638.1823,638.3823,55,60,42
638.3823,638.58234,51,60,42
638.58234,638.78235,55,60,42
638.78235,638.9823,58,60,42
638.9823,639.17816,55,60,42
639.1823,639.3823,53,60,42
639.3823,639.58234,56,60,42
639.58234,639.78235,58,60,42
639.78235,639.9823,56,60,42
639.9823,640.1823,53,60,42
640.1823,640.3823,56,60,42
640.3823,640.58234,58,60,42
640.58234,640.77814,56,60,42
640.78235,640.9823,51,60,42
640.9823,641.1823,55,60,42
641.1823,641.3823,58,60,42
641.3823,641.58234,55,60,42
641.58234,641.78235,51,60,42
641.78235,641.9823,55,60,42
641.9823,642.1823,58,60,42
642.1823,642.3782,55,60,42
642.3823,642.58234,53,60,42
642.58234,642.78235,56,60,42
642.78235,642.9823,58,60,42
642.9823,643.1823,56,60,42
643.1823,643.3823,53,60,42
643.3823,643.58234,56,60,42
643.58234,643.78235,58,60,42
643.78235,643.97815,56,60,42
643.9823,644.1823,51,60,42
644.1823,644.3823,55,61,42
644.3823,644.58234,58,61,42
644.58234,644.78235,55,62,42
644.78235,644.9823,51,63,42
644.9823,645.1823,55,64,42
645.1823,645.3823,58,65,42
645.3823,645.5781,55,66,42
645.58234,645.78235,53,67,42
645.78235,645.9823,56,68,42
645.9823,646.1823,58,69,42
646.1823,646.3823,56,70,42
646.3823,646.58234,53,71,42
646.58234,646.78235,56,72,42
646.78235,646.9823,58,73,42
646.9823,647.17816,56,74,42
647.1823,647.28235,51,75,42
647.58234,648.11566,58,107,42
648.1823,648.3823,58,80,42
648.3823,648.58234,57,81,42
648.58234,648.77814,58,82,42
648.78235,648.8823,58,83,42
649.1823,649.71564,58,119,42
649.78235,649.9823,58,88,42
649.9823,650.1823,57,89,42
650.1823,650.3782,58,90,42
650.3823,650.4481,58,92,42
650.5797,650.6455,58,92,42
650.77704,650.84283,65,92,42
650.9744,651.0402,58,92,42
651.1718,651.2376,63,92,42
651.36914,651.43494,58,92,42
651.5665,651.6323,65,92,42
651.7639,651.8297,58,92,42
651.96124,652.0262,63,92,42
652.15607,652.221,58,92,42
652.3509,652.41583,65,92,42
652.54565,652.6106,58,92,42
652.7405,652.8054,63,92,42
652.9353,653.00024,58,92,42
653.13007,653.195,65,92,42
653.3249,653.38983,58,92,42
653.5197,653.7155,63,92,42
654.3197,654.52954,51,92,42
655.1768,655.40283,39,92,42
3.75,5.9375,55,92,0
3.75,5.9375,58,92,0
3.75,5.9375,63,92,0
7.34375,7.5,62,75,0
7.5,8.4244795,63,60,0
8.59375,8.75,62,60,0
8.75,9.6744795,63,60,0
9.84375,10.0,62,60,0
10.0,11.041667,63,60,0
11.25,11.5625,63,60,0
11.5625,11.875,67,60,0
11.875,12.1875,70,60,0
12.1875,12.5,75,60,0
12.5,12.8125,79,60,0
12.8125,13.125,77,60,0
13.125,13.4375,75,60,0
13.4375,13.75,74,60,0
13.75,14.0625,72,60,0
14.0625,14.375,70,60,0
14.375,14.6875,68,75,0
14.6875,14.9869795,67,75,0
15.0,16.041666,53,92,0
15.0,16.041666,60,92,0
15.0,16.041666,63,92,0
15.0,16.041666,65,92,0
16.25,17.291666,53,92,0
16.25,17.291666,60,92,0
16.25,17.291666,63,92,0
16.25,17.291666,65,92,0
17.5,18.541666,53,92,0
17.5,18.541666,60,92,0
17.5,18.541666,63,92,0
17.5,18.541666,65,92,0
18.75,19.0625,55,60,0
18.75,19.0625,61,60,0
18.75,19.0625,63,60,0
18.75,19.0625,67,60,0
19.0625,19.375,70,60,0
19.375,19.6875,73,60,0
19.6875,20.0,79,60,0
20.0,20.3125,82,60,0
20.3125,20.625,80,60,0
20.625,20.9375,79,60,0
20.9375,21.25,77,60,0
21.25,21.5625,75,60,0
21.5625,21.875,73,60,0
21.875,22.1875,72,75,0
22.1875,22.486979,70,75,0
22.5,23.541666,56,92,0
22.5,23.541666,68,92,0
23.75,24.791666,56,75,0
23.75,24.791666,68,75,0
25.0,26.041666,56,75,0
25.0,26.041666,68,75,0
26.25,26.549479,57,92,0
26.25,26.549479,69,92,0
26.5625,26.861979,57,92,0
26.5625,26.861979,69,92,0
26.875,27.174479,57,92,0
26.875,27.174479,69,92,0
27.1875,27.486979,57,92,0
27.1875,27.486979,69,92,0
27.5,27.8125,57,92,0
27.5,27.8125,69,92,0
27.826086,28.138586,57,92,0
27.826086,28.138586,69,92,0
28.152174,28.464674,57,92,0
28.152174,28.464674,69,92,0
28.47826,28.79076,57,92,0
28.47826,28.79076,69,92,0
28.804346,29.131052,57,92,0
28.804346,29.131052,69,92,0
29.145256,29.47196,57,92,0
29.145256,29.47196,69,92,0
29.486164,29.81287,57,92,0
29.486164,29.81287,69,92,0
29.827074,30.153778,57,92,0
29.827074,30.153778,69,92,0
30.167982,30.835596,58,92,0
30.167982,30.835596,70,92,0
32.15662,32.78162,75,60,0
32.78162,33.40662,74,60,0
33.40662,34.03162,75,60,0
34.03162,35.073284,77,60,0
35.90662,36.53162,58,60,0
35.90662,36.53162,70,60,0
36.53162,37.15662,58,60,0
36.53162,37.15662,68,60,0
37.15662,37.768597,58,60,0
37.15662,37.768597,66,60,0
37.78162,38.393597,58,60,0
37.78162,38.393597,65,60,0
39.65662,40.28162,75,60,0
40.28162,40.90662,74,60,0
40.90662,41.06287,75,60,0
41.06287,41.140995,77,60,0
41.140995,41.21912,75,60,0
41.21912,41.297245,77,60,0
41.297245,41.37537,75,60,0
41.37537,41.453495,77,60,0
41.453495,41.53162,75,60,0
41.53162,42.573284,77,60,0
43.40662,44.03162,58,60,0
43.40662,44.03162,70,60,0
44.03162,44.65662,58,60,0
44.03162,44.65662,68,60,0
44.65662,45.268597,58,60,0
44.65662,45.268597,66,60,0
45.28162,45.893597,58,60,0
45.28162,45.893597,65,60,0
45.90662,46.349327,77,60,0
46.53162,46.974327,77,70,0
47.15662,47.364952,77,81,0
47.78162,48.09412,77,92,0
48.09412,48.25037,79,75,0
48.25037,48.40662,77,75,0
48.40662,48.56287,76,60,0
48.56287,48.71912,77,60,0
48.71912,48.87537,79,60,0
48.87537,49.018597,81,60,0
49.03162,49.18787,82,60,0
49.18787,49.34412,84,62,0
49.34412,49.50037,82,64,0
49.50037,49.65662,81,66,0
49.65662,49.81287,82,68,0
49.81287,49.96912,84,70,0
49.96912,50.12537,86,72,0
50.12537,50.268597,82,74,0
50.28162,50.489952,77,76,0
50.59412,50.802452,77,80,0
50.90662,51.114952,77,84,0
51.21912,51.427452,77,88,0
51.53162,51.84412,77,92,0
51.84412,52.00037,79,92,0
52.00037,52.15662,77,87,0
52.15662,52.31287,76,82,0
52.31287,52.46912,77,77,0
52.46912,52.62537,79,72,0
52.62537,52.768597,81,66,0
52.78162,52.93787,82,60,0
52.93787,53.09412,84,60,0
53.09412,53.25037,82,60,0
53.25037,53.40662,81,62,0
53.40662,53.56287,82,64,0
53.56287,53.71912,84,66,0
53.71912,53.87537,86,68,0
53.87537,54.018597,82,70,0
54.03162,54.16834,77,72,0
54.239952,54.37667,77,75,0
54.448284,54.585003,77,78,0
54.65662,54.79334,77,81,0
54.864952,55.00167,77,84,0
55.073284,55.210003,77,88,0
55.28162,55.59412,77,92,0
55.59412,55.75037,79,92,0
55.75037,55.90662,77,87,0
55.90662,56.06287,76,82,0
56.06287,56.21912,77,77,0
56.21912,56.37537,79,72,0
56.37537,56.518597,81,66,0
56.53162,56.68787,82,60,0
56.68787,56.84412,84,60,0
56.84412,57.00037,82,60,0
57.00037,57.15662,81,60,0
57.15662,57.31287,82,60,0
57.31287,57.46912,84,60,0
57.46912,57.62537,86,60,0
57.62537,57.78162,84,60,0
57.78162,57.93787,82,60,0
57.93787,58.09412,81,60,0
58.09412,58.25037,79,60,0
58.25037,58.40662,77,60,0
58.40662,58.56287,76,60,0
58.56287,58.71912,77,60,0
58.71912,58.87537,79,60,0
58.87537,59.03162,77,60,0
59.03162,59.18787,75,60,0
59.18787,59.34412,74,60,0
59.34412,59.50037,72,60,0
59.50037,59.65662,70,60,0
59.65662,59.81287,69,60,0
59.81287,59.96912,70,60,0
59.96912,60.12537,74,60,0
60.12537,60.268597,70,60,0
60.28162,61.53162,69,60,0
61.53162,62.78162,68,60,0
62.78162,63.823284,67,60,0
64.03162,64.13579,65,60,0
64.13579,64.23995,67,60,0
64.23995,64.34412,65,60,0
64.34412,64.44829,67,60,0
64.44829,64.55245,65,60,0
64.55245,64.65662,67,60,0
64.65662,64.76079,65,60,0
64.76079,64.86495,67,60,0
64.86495,64.96912,65,60,0
64.96912,65.07329,67,60,0
65.07329,65.17745,65,60,0
65.17745,65.28162,67,60,0
65.28162,65.39031,65,60,0
65.39031,65.49901,67,61,0
65.49901,65.607704,65,62,0
65.607704,65.7164,67,63,0
65.7164,65.825096,65,64,0
65.825096,65.93379,67,65,0
65.93379,66.04249,65,66,0
66.04249,66.151184,67,67,0
66.151184,66.25988,65,68,0
66.25988,66.368576,67,69,0
66.368576,66.47727,65,70,0
66.47727,66.58597,67,71,0
66.58597,66.6996,65,72,0
66.6996,66.81324,67,73,0
66.81324,66.92687,65,74,0
66.92687,67.04051,67,75,0
67.04051,67.154144,65,76,0
67.154144,67.267784,67,78,0
67.267784,67.392784,65,80,0
67.392784,67.517784,67,82,0
67.517784,67.642784,65,84,0
67.642784,67.78167,67,86,0
67.78167,67.92056,64,88,0
67.92056,68.04209,65,90,0
68.05945,69.7782,68,92,0
68.05945,69.7782,80,92,0
69.80052,70.04606,65,75,0
69.80052,70.04606,77,75,0
70.06838,71.4036,62,92,0
70.06838,71.4036,68,92,0
70.06838,71.4036,74,92,0
73.269516,73.33618,70,60,0
73.46951,73.53618,69,60,0
73.66952,73.73618,70,60,0
73.869514,74.86535,75,84,0
74.869514,74.93618,75,60,0
75.06951,75.136185,74,60,0
75.269516,75.33618,75,60,0
75.46951,76.46535,79,84,0
76.46951,76.53618,79,60,0
76.66952,76.73618,78,60,0
76.869514,76.93618,79,60,0
77.06951,78.16952,82,84,0
78.269516,78.46951,80,60,0
78.46951,78.66952,79,63,0
78.66952,78.869514,77,66,0
78.869514,79.06951,75,69,0
79.06951,79.269516,74,72,0
79.269516,79.46951,75,75,0
79.46951,79.66952,74,78,0
79.66952,79.869514,75,81,0
79.869514,80.06951,78,84,0
80.06951,80.26535,79,88,0
80.269516,80.66952,79,92,0
80.66952,81.40285,72,60,0
81.46951,81.66952,71,60,0
81.66952,81.869514,72,60,0
81.869514,82.06951,71,60,0
82.06951,82.269516,72,64,0
82.269516,82.46951,76,68,0
82.46951,82.66952,77,72,0
82.66952,82.869514,76,76,0
82.869514,83.06951,77,80,0
83.06951,83.269516,79,84,0
83.269516,83.46535,80,88,0
83.46951,83.869514,80,92,0
83.869514,84.60285,74,60,0
84.66952,84.869514,73,60,0
84.869514,85.06951,74,60,0
85.06951,85.269516,75,60,0
85.269516,85.46951,76,64,0
85.46951,85.66952,77,68,0
85.66952,85.869514,78,72,0
85.869514,86.06951,79,76,0
86.06951,86.269516,80,80,0
86.269516,86.46951,81,84,0
86.46951,86.66535,82,88,0
86.66952,87.66952,82,92,0
87.66952,87.869514,79,75,0
87.869514,88.06951,80,75,0
88.06951,88.26535,77,75,0
88.269516,88.66952,75,60,0
88.66952,88.769516,77,60,0
88.769516,88.869514,75,60,0
88.869514,88.96951,74,60,0
88.96951,89.06951,75,60,0
89.06951,89.66952,79,60,0
89.66952,89.86535,77,75,0
89.869514,90.065346,67,92,0
89.869514,90.065346,75,92,0
90.06951,90.46535,55,75,0
90.06951,90.46535,58,75,0
90.06951,90.46535,63,75,0
90.46951,90.86535,55,60,0
90.46951,90.86535,58,60,0
90.46951,90.86535,63,60,0
90.869514,91.26535,55,60,0
90.869514,91.26535,58,60,0
90.869514,91.26535,63,60,0
91.269516,91.66535,55,60,0
91.269516,91.66535,58,60,0
91.269516,91.66535,63,60,0
91.66952,92.065346,55,92,0
91.66952,92.065346,58,92,0
91.66952,92.065346,63,92,0
92.06951,92.46535,55,75,0
92.06951,92.46535,58,75,0
92.06951,92.46535,63,75,0
92.46951,92.86535,55,60,0
92.46951,92.86535,58,60,0
92.46951,92.86535,63,60,0
92.869514,93.26535,55,60,0
92.869514,93.26535,58,60,0
92.869514,93.26535,63,60,0
93.269516,93.66535,55,92,0
93.269516,93.66535,58,92,0
93.269516,93.66535,63,92,0
93.269516,93.66535,67,92,0
93.66952,94.065346,55,75,0
93.66952,94.065346,58,75,0
93.66952,94.065346,63,75,0
93.66952,94.065346,67,75,0
94.06951,94.46535,55,60,0
94.06951,94.46535,58,60,0
94.06951,94.46535,63,60,0
94.06951,94.46535,67,60,0
94.46951,94.86535,55,60,0
94.46951,94.86535,58,60,0
94.46951,94.86535,63,60,0
94.46951,94.86535,67,60,0
94.869514,95.26535,55,68,0
94.869514,95.26535,58,68,0
94.869514,95.26535,63,68,0
94.869514,95.26535,67,68,0
95.269516,95.66535,55,76,0
95.269516,95.66535,58,76,0
95.269516,95.66535,63,76,0
95.269516,95.66535,67,76,0
95.66952,96.065346,55,84,0
95.66952,96.065346,58,84,0
95.66952,96.065346,63,84,0
95.66952,96.065346,67,84,0
96.06951,96.26535,55,92,0
96.06951,96.26535,58,92,0
96.06951,96.26535,63,92,0
96.06951,96.46535,67,92,0
96.46951,96.86535,56,75,0
96.46951,96.86535,60,75,0
96.869514,97.26535,56,60,0
96.869514,97.26535,60,60,0
97.269516,97.66535,56,60,0
97.269516,97.66535,60,60,0
97.66952,98.065346,56,60,0
97.66952,98.065346,60,60,0
98.06951,98.46535,60,60,0
98.06951,98.46535,68,60,0
98.46951,98.86535,60,68,0
98.46951,98.86535,68,68,0
98.869514,99.26535,60,77,0
98.869514,99.26535,68,77,0
99.269516,99.46951,60,87,0
99.46951,99.66535,62,92,0
99.269516,99.66535,68,87,0
99.66952,100.065346,53,75,0
99.66952,100.065346,58,75,0
99.66952,100.065346,62,75,0
100.06951,100.46535,53,60,0
100.06951,100.46535,58,60,0
100.06951,100.46535,62,60,0
100.46951,100.86535,53,60,0
100.46951,100.86535,58,60,0
100.46951,100.86535,62,60,0
100.869514,101.26535,53,60,0
100.869514,101.26535,58,60,0
100.869514,101.26535,62,60,0
101.269516,101.66535,58,60,0
101.269516,101.66535,62,60,0
101.269516,101.66535,65,60,0
101.269516,101.66535,70,60,0
101.66952,102.065346,58,68,0
101.66952,102.065346,62,68,0
101.66952,102.065346,65,68,0
101.66952,102.065346,70,68,0
102.06951,102.46535,58,77,0
102.06951,102.46535,62,77,0
102.06951,102.46535,65,77,0
102.06951,102.46535,70,77,0
102.46951,102.66952,62,87,0
102.46951,102.66952,65,87,0
102.46951,102.86535,58,87,0
102.66952,102.86535,63,92,0
102.46951,102.86535,70,87,0
102.869514,103.26535,58,75,0
102.869514,103.26535,63,75,0
102.869514,103.26535,70,75,0
103.269516,103.46951,58,60,0
103.46951,103.66535,60,60,0
103.269516,103.66535,63,60,0
103.269516,103.66535,70,60,0
103.66952,104.065346,60,60,0
103.66952,104.065346,65,60,0
103.66952,104.065346,68,60,0
104.06951,104.46535,60,60,0
104.06951,104.46535,65,60,0
104.06951,104.46535,68,60,0
104.46951,104.86535,58,66,0
104.46951,104.86535,63,66,0
104.46951,104.86535,67,66,0
104.869514,105.26535,58,72,0
104.869514,105.26535,63,72,0
104.869514,105.26535,67,72,0
105.269516,105.66535,56,80,0
105.269516,105.66535,62,80,0
105.269516,105.66535,65,80,0
105.66952,105.86535,56,88,0
105.66952,105.86535,62,88,0
105.66952,105.86535,65,88,0
105.869514,106.065346,55,92,0
105.869514,106.065346,63,92,0
106.269516,106.47071,55,92,0
106.269516,106.47071,58,92,0
106.269516,106.47071,63,92,0
106.68047,106.88734,55,92,0
106.68047,106.88734,58,92,0
106.68047,106.88734,63,92,0
107.3847,107.455124,75,92,0
107.455124,107.52554,77,92,0
107.52554,108.22554,79,92,0
108.32555,108.425545,79,92,0
108.425545,108.52554,77,92,0
108.52554,108.62554,75,92,0
108.62554,108.72554,74,92,0
108.72554,108.82555,72,92,0
108.82555,108.925545,70,92,0
108.925545,109.02554,68,92,0
109.02554,109.121376,67,92,0
109.12554,109.32137,58,92,0
109.12554,109.32137,62,92,0
109.12554,109.32137,68,92,0
109.52554,109.72674,58,92,0
109.52554,109.72674,62,92,0
109.52554,109.72674,68,92,0
109.9365,110.143364,58,92,0
109.9365,110.143364,62,92,0
109.9365,110.143364,68,92,0
110.640724,110.71115,77,92,0
110.71115,110.78157,79,92,0
110.78157,111.48157,80,92,0
111.58157,111.68157,80,92,0
111.68157,111.78157,79,92,0
111.78157,111.88157,77,92,0
111.88157,111.98157,75,92,0
111.98157,112.08157,74,92,0
112.08157,112.18157,72,92,0
112.18157,112.28157,70,92,0
112.28157,112.3774,68,92,0
112.38157,112.57741,55,92,0
112.38157,112.57741,62,92,0
112.38157,112.57741,65,92,0
112.38157,112.57741,67,92,0
112.78157,112.98277,55,92,0
112.78157,112.98277,62,92,0
112.78157,112.98277,65,92,0
112.78157,112.98277,67,92,0
113.19253,113.3994,55,92,0
113.19253,113.3994,60,92,0
113.19253,113.3994,63,92,0
113.19253,113.3994,67,92,0
113.89675,113.96718,75,92,0
113.96718,114.0376,77,92,0
114.0376,114.7376,79,92,0
114.8376,114.9376,79,92,0
114.9376,115.0376,77,88,0
115.0376,115.137596,75,84,0
115.137596,115.2376,74,80,0
115.2376,115.3376,72,76,0
115.3376,115.4376,70,72,0
115.4376,115.5376,68,68,0
115.5376,115.63343,67,64,0
115.637596,115.97093,65,60,0
116.2376,116.4376,60,60,0
116.2376,116.4376,72,60,0
116.4376,116.770935,58,60,0
116.4376,116.770935,70,60,0
117.0376,117.2376,58,60,0
117.0376,117.2376,70,60,0
117.2376,117.57093,57,60,0
117.2376,117.57093,69,60,0
117.8376,118.0376,57,60,0
117.8376,118.0376,69,60,0
118.0376,118.37093,60,60,0
118.0376,118.37093,72,60,0
118.637596,118.8376,60,92,0
118.637596,118.8376,72,92,0
118.8376,119.17093,58,92,0
118.8376,119.17093,70,92,0
120.4376,121.0376,82,60,0
121.0376,121.137596,84,60,0
121.137596,121.23343,86,60,0
121.2376,121.30427,79,60,0
121.2376,121.30427,87,60,0
121.4376,121.504265,79,60,0
121.4376,121.504265,87,60,0
121.637596,121.70427,79,60,0
121.637596,121.70427,87,60,0
121.8376,121.90427,79,60,0
121.8376,121.90427,87,60,0
122.0376,122.37093,77,60,0
122.0376,122.37093,86,60,0
123.637596,124.2376,82,60,0
124.2376,124.3376,84,72,0
124.3376,124.43343,86,74,0
124.4376,124.504265,87,76,0
124.637596,124.70427,87,80,0
124.8376,124.90427,87,84,0
125.0376,125.10426,87,88,0
125.2376,125.30609,86,92,0
125.44308,125.51157,82,92,0
125.64856,125.71898,87,92,0
125.859825,125.930244,82,92,0
126.07109,126.143555,86,92,0
126.28848,126.36095,82,92,0
126.505875,126.57941,87,92,0
126.72646,126.79999,82,92,0
126.94705,127.05734,86,92,0
127.38823,127.49852,62,92,0
127.38823,127.49852,70,92,0
127.8294,127.9397,58,92,0
128.47058,128.66641,65,60,0
128.67058,129.20392,74,60,0
129.47058,130.0039,69,60,0
130.27058,130.80391,70,60,0
131.07057,131.60391,75,60,0
131.87057,131.97058,74,60,0
132.27058,132.37057,72,60,0
132.67058,132.77058,70,60,0
133.07057,133.17058,70,60,0
133.47058,133.67058,70,60,0
133.67058,133.87057,69,60,0
133.87057,134.07057,72,60,0
134.07057,134.27058,69,60,0
134.27058,134.60391,65,60,0
135.27058,135.47058,77,60,0
135.47058,135.67058,79,60,0
135.67058,135.86641,77,60,0
135.87057,135.93724,77,60,0
136.07057,136.27058,77,60,0
136.27058,136.47058,79,60,0
136.47058,136.66641,77,60,0
136.67058,136.73724,77,60,0
136.87057,137.07057,77,60,0
137.07057,137.27058,79,60,0
137.27058,137.46642,77,60,0
137.47058,137.53725,77,60,0
137.67058,137.87057,77,60,0
137.87057,138.07057,79,60,0
138.07057,138.26642,77,60,0
138.27058,138.33725,77,60,0
138.47058,138.53725,77,60,0
138.67058,138.73724,79,60,0
138.87057,138.93724,81,60,0
139.07057,139.13724,82,60,0
139.27058,139.33725,84,60,0
139.47058,139.53725,86,60,0
139.67058,139.73724,88,60,0
139.87057,139.93724,89,60,0
140.07057,140.27058,88,60,0
140.27058,140.46642,89,60,0
140.47058,140.67058,88,60,0
140.67058,140.86641,89,60,0
140.87057,141.07057,88,60,0
141.07057,141.26642,89,60,0
141.27058,141.47058,88,60,0
141.47058,141.67058,89,60,0
141.67058,141.86641,87,60,0
141.87057,142.07057,86,60,0
142.07057,142.26642,84,60,0
142.27058,142.47058,82,60,0
142.47058,142.66641,81,60,0
142.67058,142.87057,79,60,0
142.87057,143.0664,77,60,0
143.07057,144.46642,77,60,0
144.47058,144.67058,77,60,0
144.67058,144.87057,89,60,0
144.87057,145.0664,87,60,0
145.07057,145.27058,86,60,0
145.27058,145.46642,84,60,0
145.47058,145.67058,82,60,0
145.67058,145.86641,81,60,0
145.87057,146.07057,79,60,0
146.07057,146.26642,77,60,0
146.27058,147.66641,77,60,0
147.67058,147.87057,77,60,0
147.87057,148.07057,89,60,0
148.07057,148.26642,87,60,0
148.27058,148.47058,86,60,0
148.47058,148.66641,84,60,0
148.67058,148.87057,82,60,0
148.87057,149.0664,81,60,0
149.07057,149.27058,79,60,0
149.27058,149.46642,77,60,0
149.47058,149.67058,77,60,0
149.67058,149.86641,82,60,0
149.87057,150.40392,82,60,0
150.47058,150.57057,81,60,0
150.57057,150.67058,79,60,0
150.67058,150.77058,77,60,0
150.77058,150.87057,75,60,0
150.87057,150.97058,74,60,0
150.97058,151.0664,72,60,0
151.07057,151.27058,72,60,0
151.27058,151.46642,70,60,0
151.47058,152.07057,70,60,0
152.07057,152.12057,72,60,0
152.12057,152.17058,70,60,0
152.17058,152.22058,69,60,0
152.22058,152.27058,70,60,0
152.27058,152.47058,74,60,0
152.47058,152.66641,72,60,0
152.67058,153.0039,70,60,0
155.87057,156.47058,70,60,0
156.47058,156.52058,72,60,0
156.52058,156.57057,70,68,0
156.57057,156.62057,69,76,0
156.62057,156.67058,70,84,0
156.67058,157.27058,74,92,0
157.27058,157.46642,70,75,0
157.47058,157.80391,69,60,0
159.07057,159.27058,70,60,0
159.27058,159.47058,72,68,0
159.47058,159.67058,74,76,0
159.67058,159.87057,72,84,0
159.87057,160.07057,75,92,0
160.07057,160.27058,74,92,0
160.27058,160.47058,72,75,0
160.47058,160.66641,70,75,0
160.67058,161.0039,69,60,0
163.07057,163.87057,71,60,0
163.87057,163.97058,72,60,0
164.67058,165.47058,69,60,0
165.47058,165.57057,70,60,0
166.27058,166.39975,80,60,0
166.40392,166.53308,77,60,0
166.53725,166.66641,79,60,0
166.67058,166.79974,80,60,0
166.80391,166.93307,79,60,0
166.93724,167.0664,77,60,0
167.07057,167.19974,75,60,0
167.20392,167.33308,79,60,0
167.33725,167.46642,77,60,0
167.47058,167.59975,75,60,0
167.60391,167.73308,74,60,0
167.73724,167.86641,72,60,0
167.87057,167.99974,79,60,0
168.0039,168.13307,75,60,0
168.13724,168.26642,77,60,0
168.27058,168.39975,79,60,0
168.40392,168.53308,77,60,0
168.53725,168.66641,75,60,0
168.67058,168.79974,74,60,0
168.80391,168.93307,70,60,0
168.93724,169.0664,72,60,0
169.07057,169.19974,74,60,0
169.20392,169.33308,72,60,0
169.33725,169.46642,70,60,0
169.47058,169.59975,75,60,0
169.60391,169.73308,72,60,0
169.73724,169.86641,74,60,0
169.87057,169.99974,75,60,0
170.0039,170.13307,74,60,0
170.13724,170.26642,72,60,0
170.27058,170.39975,77,60,0
170.40392,170.53308,74,60,0
170.53725,170.66641,75,60,0
170.67058,170.79974,77,60,0
170.80391,170.93307,75,60,0
170.93724,171.0664,74,60,0
171.07057,171.19974,79,60,0
171.20392,171.33308,75,60,0
171.33725,171.46642,77,60,0
171.47058,171.59975,79,60,0
171.60391,171.73308,77,60,0
171.73724,171.86641,75,60,0
171.87057,171.93724,80,60,0
172.07057,172.13724,77,60,0
172.27058,172.33725,74,60,0
172.47058,172.53725,70,60,0
172.67058,172.73724,68,60,0
172.87057,172.93724,65,60,0
173.07057,173.13724,62,60,0
173.27058,173.33725,58,60,0
173.47058,173.80391,56,60,0
173.87057,174.67058,80,60,0
174.67058,175.0039,78,75,0
175.07057,175.15808,79,92,0
175.20392,175.33725,67,92,0
175.33725,175.46642,66,92,0
175.47058,175.55807,67,92,0
175.60391,175.73724,72,92,0
175.73724,175.86641,71,92,0
175.87057,175.95808,72,92,0
176.0039,176.13724,75,92,0
176.13724,176.26642,74,92,0
176.27058,176.35808,75,92,0
176.40392,176.53725,79,92,0
176.53725,176.66641,78,92,0
176.67058,176.76642,79,92,0
176.77058,176.86641,81,92,0
176.87057,176.96642,78,92,0
176.97058,177.0664,81,92,0
177.07057,177.16641,79,92,0
177.17058,177.26642,82,92,0
177.27058,177.36641,81,92,0
177.37057,177.46642,84,92,0
177.47058,177.80391,82,92,0
177.87057,178.27058,64,92,0
178.27058,178.60391,65,60,0
178.67058,179.20392,77,60,0
179.37057,179.47058,75,60,0
179.47058,179.67058,74,61,0
179.67058,179.77058,72,64,0
179.77058,179.86641,70,65,0
179.87057,180.57057,74,66,0
180.67058,180.73724,72,79,0
180.73724,180.80391,74,80,0
180.80391,180.87057,72,81,0
180.87057,180.93724,74,82,0
180.93724,181.0039,72,83,0
181.0039,181.07057,74,84,0
181.07057,181.13724,72,85,0
181.13724,181.20392,74,86,0
181.20392,181.27058,72,87,0
181.27058,181.33725,74,88,0
181.33725,181.40392,70,89,0
181.40392,181.46642,72,90,0
181.47058,181.80391,70,92,0
182.27058,182.37057,71,60,0
182.27058,182.37057,74,60,0
182.67058,182.77058,71,60,0
182.67058,182.77058,74,60,0
183.07057,183.60391,71,60,0
183.07057,183.60391,74,60,0
183.67058,183.73724,71,60,0
183.67058,183.73724,74,60,0
183.87057,183.97058,72,60,0
183.87057,183.97058,75,60,0
184.27058,184.37057,74,60,0
184.27058,184.37057,77,60,0
184.67058,184.77058,75,60,0
184.67058,184.77058,79,60,0
185.47058,185.57057,69,60,0
185.47058,185.57057,72,60,0
185.87057,185.97058,69,58,0
185.87057,185.97058,72,58,0
186.27058,186.80391,69,56,0
186.27058,186.80391,72,56,0
186.87057,186.93724,69,52,0
186.87057,186.93724,72,52,0
187.07057,187.17058,70,51,0
187.07057,187.17058,74,51,0
187.47058,187.57057,72,48,0
187.47058,187.57057,75,48,0
187.87057,187.97058,74,45,0
187.87057,187.97058,77,45,0
188.67058,188.77058,70,92,0
188.67058,188.77058,82,92,0
189.07057,189.17058,70,92,0
189.07057,189.17058,82,92,0
189.47058,190.0039,70,92,0
189.47058,190.0039,82,92,0
190.07057,190.13724,70,92,0
190.07057,190.13724,82,92,0
190.27058,190.37057,70,92,0
190.27058,190.37057,82,92,0
190.67058,190.77058,70,92,0
190.67058,190.77058,82,92,0
191.07057,191.26642,70,92,0
191.07057,191.26642,82,92,0
191.87057,191.97058,72,60,0
191.87057,191.97058,79,60,0
191.87057,191.97058,84,60,0
192.67058,192.77058,70,60,0
192.67058,192.77058,74,60,0
192.67058,192.77058,82,60,0
193.47058,193.57057,69,53,0
193.47058,193.57057,75,53,0
193.47058,193.57057,81,53,0
194.27058,194.37057,70,45,0
194.27058,194.37057,74,45,0
194.27058,194.37057,82,45,0
195.07057,195.17058,71,92,0
195.07057,195.17058,79,92,0
195.07057,195.17058,83,92,0
195.47058,195.57057,71,92,0
195.47058,195.57057,79,92,0
195.47058,195.57057,83,92,0
195.87057,196.40392,71,92,0
195.87057,196.40392,79,92,0
195.87057,196.40392,83,92,0
196.47058,196.53725,71,92,0
196.47058,196.53725,79,92,0
196.47058,196.53725,83,92,0
196.67058,196.77058,72,92,0
196.67058,196.77058,79,92,0
196.67058,196.77058,84,92,0
197.07057,197.17058,74,92,0
197.07057,197.17058,79,92,0
197.07057,197.17058,83,92,0
197.07057,197.17058,86,92,0
197.47058,197.57057,75,92,0
197.47058,197.57057,79,92,0
197.47058,197.57057,84,92,0
197.47058,197.57057,87,92,0
198.27058,198.60391,72,60,0
198.27058,198.60391,75,60,0
198.27058,198.60391,79,60,0
198.27058,198.60391,84,60,0
199.07057,199.40392,70,60,0
199.07057,199.40392,74,60,0
199.07057,199.40392,77,60,0
199.07057,199.40392,82,60,0
199.87057,200.20392,69,60,0
199.87057,200.20392,72,60,0
199.87057,200.20392,75,60,0
199.87057,200.20392,81,60,0
200.67058,200.86641,70,60,0
200.67058,200.86641,74,60,0
200.67058,200.86641,82,60,0
200.87057,201.07057,53,60,0
201.07057,201.27058,58,60,0
201.27058,201.47058,53,60,0
201.47058,201.67058,50,60,0
201.67058,201.87057,53,60,0
201.87057,202.07057,58,60,0
202.07057,202.26642,53,60,0
202.27058,202.47058,50,60,0
202.47058,202.67058,53,60,0
202.67058,202.87057,58,60,0
202.87057,203.07057,53,60,0
203.07057,203.27058,50,60,0
203.27058,203.47058,53,60,0
203.47058,203.67058,58,60,0
203.67058,203.86641,53,60,0
203.87057,204.07057,51,60,0
204.07057,204.27058,53,60,0
204.27058,204.47058,57,60,0
204.47058,204.67058,53,60,0
204.67058,204.87057,51,60,0
204.87057,205.07057,53,60,0
205.07057,205.27058,57,60,0
205.27058,205.46642,53,60,0
205.47058,205.67058,51,60,0
205.67058,205.87057,53,60,0
205.87057,206.07057,57,60,0
206.07057,206.27058,53,60,0
206.27058,206.47058,51,60,0
206.47058,206.67058,57,60,0
206.67058,206.87057,53,60,0
206.87057,207.0664,51,60,0
207.07057,207.26642,50,60,0
208.07057,208.27058,77,60,0
208.27058,208.47058,76,60,0
208.47058,208.67058,77,60,0
208.67058,208.87057,79,60,0
208.87057,209.07057,77,60,0
209.07057,209.27058,86,60,0
209.27058,209.47058,84,60,0
209.47058,209.67058,82,60,0
209.67058,209.87057,81,60,0
209.87057,210.07057,79,60,0
210.07057,210.27058,77,60,0
210.27058,210.60391,75,60,0
211.27058,211.47058,72,60,0
211.47058,211.67058,71,60,0
211.67058,211.87057,72,60,0
211.87057,212.07057,74,60,0
212.07057,212.27058,72,60,0
212.27058,212.47058,79,60,0
212.47058,212.67058,77,60,0
212.67058,212.87057,77,60,0
212.87057,213.07057,75,60,0
213.07057,213.27058,74,60,0
213.27058,213.47058,72,60,0
213.47058,213.80391,70,60,0
214.27058,214.40392,70,92,0
214.40392,214.53308,74,92,0
214.53725,214.66641,72,92,0
214.67058,214.75807,70,92,0
214.80391,214.89142,69,92,0
214.93724,215.02475,67,92,0
215.07057,215.40392,65,92,0
215.87057,216.0039,65,92,0
216.0039,216.13307,67,92,0
216.13724,216.22475,65,92,0
216.27058,216.35808,63,92,0
216.40392,216.49141,62,92,0
216.53725,216.62474,60,92,0
216.67058,217.0039,58,92,0
217.47058,217.60391,82,92,0
217.60391,217.73308,86,92,0
217.73724,217.82474,84,92,0
217.87057,217.95808,82,92,0
218.0039,218.09142,81,92,0
218.13724,218.22475,79,92,0
218.27058,218.61304,77,92,0
219.0925,219.22948,77,92,0
219.22948,219.36218,79,92,0
219.36647,219.45636,77,92,0
219.50345,219.59335,75,92,0
219.64044,219.73033,74,92,0
219.77742,219.86732,72,92,0
219.91441,220.12128,70,92,0
220.75948,220.97234,69,92,0
220.75948,220.97234,72,92,0
220.75948,220.97234,77,92,0
220.75948,220.97234,81,92,0
221.62904,222.00218,70,92,0
221.62904,222.00218,74,92,0
221.62904,222.00218,77,92,0
221.62904,222.00218,82,92,0
222.74844,222.81511,70,60,0
222.94844,223.0151,69,60,0
223.14845,223.21512,70,60,0
223.34845,224.34428,75,84,0
224.34845,224.41512,75,60,0
224.54845,224.61511,74,60,0
224.74844,224.81511,75,60,0
224.94844,225.94427,79,84,0
225.94844,226.0151,79,60,0
226.14845,226.21512,78,60,0
226.34845,226.41512,79,60,0
226.54845,227.64845,82,84,0
227.74844,227.94844,80,60,0
227.94844,228.14845,79,63,0
228.14845,228.34845,77,66,0
228.34845,228.54845,75,69,0
228.54845,228.74844,74,72,0
228.74844,228.94844,75,75,0
228.94844,229.14845,74,78,0
229.14845,229.34845,75,81,0
229.34845,229.54845,78,84,0
229.54845,229.74428,79,88,0
229.74844,230.14845,79,92,0
230.14845,230.88177,72,60,0
230.94844,231.14845,71,60,0
231.14845,231.34845,72,60,0
231.34845,231.54845,71,60,0
231.54845,231.74844,72,64,0
231.74844,231.94844,76,68,0
231.94844,232.14845,77,72,0
232.14845,232.34845,76,76,0
232.34845,232.54845,77,80,0
232.54845,232.74844,79,84,0
232.74844,232.94427,80,88,0
232.94844,233.34845,80,92,0
233.34845,234.08179,74,60,0
234.14845,234.34845,73,60,0
234.34845,234.54845,74,60,0
234.54845,234.74844,75,60,0
234.74844,234.94844,76,64,0
234.94844,235.14845,77,68,0
235.14845,235.34845,78,72,0
235.34845,235.54845,79,76,0
235.54845,235.74844,80,80,0
235.74844,235.94844,81,84,0
235.94844,236.14429,82,88,0
236.14845,237.14845,82,92,0
237.14845,237.34845,79,75,0
237.34845,237.54845,80,75,0
237.54845,237.74428,77,75,0
237.74844,238.14845,75,60,0
238.14845,238.24844,77,60,0
238.24844,238.34845,75,60,0
238.34845,238.44844,74,60,0
238.44844,238.54845,75,60,0
238.54845,239.14845,79,60,0
239.14845,239.34428,77,75,0
239.34845,239.54428,67,92,0
239.34845,239.54428,75,92,0
239.54845,239.94427,55,75,0
239.54845,239.94427,58,75,0
239.54845,239.94427,63,75,0
239.94844,240.34428,55,60,0
239.94844,240.34428,58,60,0
239.94844,240.34428,63,60,0
240.34845,240.74428,55,60,0
240.34845,240.74428,58,60,0
240.34845,240.74428,63,60,0
240.74844,241.14429,55,60,0
240.74844,241.14429,58,60,0
240.74844,241.14429,63,60,0
241.14845,241.54428,55,92,0
241.14845,241.54428,58,92,0
241.14845,241.54428,63,92,0
241.54845,241.94427,55,75,0
241.54845,241.94427,58,75,0
241.54845,241.94427,63,75,0
241.94844,242.34428,55,60,0
241.94844,242.34428,58,60,0
241.94844,242.34428,63,60,0
242.34845,242.74428,55,60,0
242.34845,242.74428,58,60,0
242.34845,242.74428,63,60,0
242.74844,243.14429,55,92,0
242.74844,243.14429,58,92,0
242.74844,243.14429,63,92,0
242.74844,243.14429,67,92,0
243.14845,243.54428,55,75,0
243.14845,243.54428,58,75,0
243.14845,243.54428,63,75,0
243.14845,243.54428,67,75,0
243.54845,243.94427,55,60,0
243.54845,243.94427,58,60,0
243.54845,243.94427,63,60,0
243.54845,243.94427,67,60,0
243.94844,244.34428,55,60,0
243.94844,244.34428,58,60,0
243.94844,244.34428,63,60,0
243.94844,244.34428,67,60,0
244.34845,244.74428,55,68,0
244.34845,244.74428,58,68,0
244.34845,244.74428,63,68,0
244.34845,244.74428,67,68,0
244.74844,245.14429,55,76,0
244.74844,245.14429,58,76,0
244.74844,245.14429,63,76,0
244.74844,245.14429,67,76,0
245.14845,245.54428,55,84,0
245.14845,245.54428,58,84,0
245.14845,245.54428,63,84,0
245.14845,245.54428,67,84,0
245.54845,245.74428,55,92,0
245.54845,245.74428,58,92,0
245.54845,245.74428,63,92,0
245.54845,245.94427,67,92,0
245.94844,246.34428,56,75,0
245.94844,246.34428,60,75,0
246.34845,246.74428,56,60,0
246.34845,246.74428,60,60,0
246.74844,247.14429,56,60,0
246.74844,247.14429,60,60,0
247.14845,247.54428,56,60,0
247.14845,247.54428,60,60,0
247.54845,247.94427,60,60,0
247.54845,247.94427,68,60,0
247.94844,248.34428,60,68,0
247.94844,248.34428,68,68,0
248.34845,248.74428,60,77,0
248.34845,248.74428,68,77,0
248.74844,248.94844,60,87,0
248.94844,249.14429,62,92,0
248.74844,249.14429,68,87,0
249.14845,249.54428,53,75,0
249.14845,249.54428,58,75,0
249.14845,249.54428,62,75,0
249.54845,249.94427,53,60,0
249.54845,249.94427,58,60,0
249.54845,249.94427,62,60,0
249.94844,250.34428,53,60,0
249.94844,250.34428,58,60,0
249.94844,250.34428,62,60,0
250.34845,250.74428,53,60,0
250.34845,250.74428,58,60,0
250.34845,250.74428,62,60,0
250.74844,251.14429,58,60,0
250.74844,251.14429,62,60,0
250.74844,251.14429,65,60,0
250.74844,251.14429,70,60,0
251.14845,251.54428,58,68,0
251.14845,251.54428,62,68,0
251.14845,251.54428,65,68,0
251.14845,251.54428,70,68,0
251.54845,251.94427,58,77,0
251.54845,251.94427,62,77,0
251.54845,251.94427,65,77,0
251.54845,251.94427,70,77,0
251.94844,252.14845,62,87,0
251.94844,252.14845,65,87,0
251.94844,252.34428,58,87,0
252.14845,252.34428,63,92,0
251.94844,252.34428,70,87,0
252.34845,252.74428,58,75,0
252.34845,252.74428,63,75,0
252.34845,252.74428,70,75,0
252.74844,252.94844,58,60,0
252.94844,253.14429,60,60,0
252.74844,253.14429,63,60,0
252.74844,253.14429,70,60,0
253.14845,253.54428,60,60,0
253.14845,253.54428,65,60,0
253.14845,253.54428,68,60,0
253.54845,253.94427,60,60,0
253.54845,253.94427,65,60,0
253.54845,253.94427,68,60,0
253.94844,254.34428,58,66,0
253.94844,254.34428,63,66,0
253.94844,254.34428,67,66,0
254.34845,254.74428,58,72,0
254.34845,254.74428,63,72,0
254.34845,254.74428,67,72,0
254.74844,255.14429,56,80,0
254.74844,255.14429,62,80,0
254.74844,255.14429,65,80,0
255.14845,255.34428,56,88,0
255.14845,255.34428,62,88,0
255.14845,255.34428,65,88,0
255.34845,255.54428,55,92,0
255.34845,255.54428,63,92,0
255.74844,255.94965,55,92,0
255.74844,255.94965,58,92,0
255.74844,255.94965,63,92,0
256.1594,256.36627,55,92,0
256.1594,256.36627,58,92,0
256.1594,256.36627,63,92,0
256.86362,256.93405,75,92,0
256.93405,257.0045,77,92,0
257.0045,257.70447,79,92,0
257.80447,257.90448,79,92,0
257.90448,258.0045,77,92,0
258.0045,258.10446,75,92,0
258.10446,258.20447,74,92,0
258.20447,258.30447,72,92,0
258.30447,258.40448,70,92,0
258.40448,258.5045,68,92,0
258.5045,258.6003,67,92,0
258.60446,258.8003,58,92,0
258.60446,258.8003,62,92,0
258.60446,258.8003,68,92,0
259.0045,259.20566,58,92,0
259.0045,259.20566,62,92,0
259.0045,259.20566,68,92,0
259.41544,259.62228,58,92,0
259.41544,259.62228,62,92,0
259.41544,259.62228,68,92,0
260.11966,260.1901,77,92,0
260.1901,260.2605,79,92,0
260.2605,260.9605,80,92,0
261.06052,261.1605,80,92,0
261.1605,261.2605,79,92,0
261.2605,261.3605,77,92,0
261.3605,261.4605,75,92,0
261.4605,261.56052,74,92,0
261.56052,261.6605,72,92,0
261.6605,261.7605,70,92,0
261.7605,261.85632,68,92,0
261.8605,262.05634,55,92,0
261.8605,262.05634,62,92,0
261.8605,262.05634,65,92,0
261.8605,262.05634,67,92,0
262.2605,262.4617,55,92,0
262.2605,262.4617,62,92,0
262.2605,262.4617,65,92,0
262.2605,262.4617,67,92,0
262.67145,262.87833,55,92,0
262.67145,262.87833,60,92,0
262.67145,262.87833,63,92,0
262.67145,262.87833,67,92,0
263.37567,263.4461,75,92,0
263.4461,263.51654,77,92,0
263.51654,264.21652,79,92,0
264.31653,264.41653,79,92,0
264.41653,264.51654,77,88,0
264.51654,264.61652,75,84,0
264.61652,264.71652,74,80,0
264.71652,264.81653,72,76,0
264.81653,264.91653,70,72,0
264.91653,265.01654,68,68,0
265.01654,265.11237,67,64,0
265.11652,265.44986,65,60,0
265.71652,265.91653,60,60,0
265.71652,265.91653,72,60,0
265.91653,266.24988,58,60,0
265.91653,266.24988,70,60,0
266.51654,266.71652,58,60,0
266.51654,266.71652,70,60,0
266.71652,267.04987,57,60,0
266.71652,267.04987,69,60,0
267.31653,267.51654,57,60,0
267.31653,267.51654,69,60,0
267.51654,267.84985,60,60,0
267.51654,267.84985,72,60,0
268.11652,268.31653,60,92,0
268.11652,268.31653,72,92,0
268.31653,268.64987,58,92,0
268.31653,268.64987,70,92,0
269.91653,270.51654,82,60,0
270.51654,270.61652,84,60,0
270.61652,270.71237,86,60,0
270.71652,270.7832,79,60,0
270.71652,270.7832,87,60,0
270.91653,270.9832,79,60,0
270.91653,270.9832,87,60,0
271.11652,271.1832,79,60,0
271.11652,271.1832,87,60,0
271.31653,271.3832,79,60,0
271.31653,271.3832,87,60,0
271.51654,271.84985,77,60,0
271.51654,271.84985,86,60,0
273.11652,273.71652,82,60,0
273.71652,273.81653,84,72,0
273.81653,273.91235,86,74,0
273.91653,273.9832,87,76,0
274.11652,274.1832,87,80,0
274.31653,274.3832,87,84,0
274.51654,274.5832,87,88,0
274.71652,274.78503,86,92,0
274.922,274.9905,82,92,0
275.1275,275.1979,87,92,0
275.33875,275.40918,82,92,0
275.55002,275.6225,86,92,0
275.76743,275.83987,82,92,0
275.9848,276.05835,87,92,0
276.20538,276.27893,82,92,0
276.426,276.5363,86,92,0
276.86716,276.97745,62,92,0
276.86716,276.97745,70,92,0
277.30832,277.41864,58,92,0
277.94952,278.14536,65,60,0
278.1495,278.68283,74,60,0
278.94952,279.48285,69,60,0
279.7495,280.28284,70,60,0
280.5495,281.08286,75,60,0
281.34952,281.44952,74,60,0
281.7495,281.84952,72,60,0
282.1495,282.2495,70,60,0
282.5495,282.6495,70,60,0
282.94952,283.1495,70,60,0
283.1495,283.34952,69,60,0
283.34952,283.5495,72,60,0
283.5495,283.7495,69,60,0
283.7495,284.08286,65,60,0
284.7495,284.94952,77,60,0
284.94952,285.1495,79,60,0
285.1495,285.34534,77,60,0
285.34952,285.41617,77,60,0
285.5495,285.7495,77,60,0
285.7495,285.94952,79,60,0
285.94952,286.14536,77,60,0
286.1495,286.2162,77,60,0
286.34952,286.5495,77,60,0
286.5495,286.7495,79,60,0
286.7495,286.94534,77,60,0
286.94952,287.01617,77,60,0
287.1495,287.34952,77,60,0
287.34952,287.5495,79,60,0
287.5495,287.74533,77,60,0
287.7495,287.81616,77,60,0
287.94952,288.01617,77,60,0
288.1495,288.2162,79,60,0
288.34952,288.41617,81,60,0
288.5495,288.61618,82,60,0
288.7495,288.81616,84,60,0
288.94952,289.01617,86,60,0
289.1495,289.2162,88,60,0
289.34952,289.41617,89,60,0
289.5495,289.7495,88,60,0
289.7495,289.94534,89,60,0
289.94952,290.1495,88,60,0
290.1495,290.34534,89,60,0
290.34952,290.5495,88,60,0
290.5495,290.74533,89,60,0
290.7495,290.94952,88,60,0
290.94952,291.1495,89,60,0
291.1495,291.34534,87,60,0
291.34952,291.5495,86,60,0
291.5495,291.74533,84,60,0
291.7495,291.94952,82,60,0
291.94952,292.14536,81,60,0
292.1495,292.34952,79,60,0
292.34952,292.54535,77,60,0
292.5495,293.94534,77,60,0
293.94952,294.1495,77,60,0
294.1495,294.34952,89,60,0
294.34952,294.54535,87,60,0
294.5495,294.7495,86,60,0
294.7495,294.94534,84,60,0
294.94952,295.1495,82,60,0
295.1495,295.34534,81,60,0
295.34952,295.5495,79,60,0
295.5495,295.74533,77,60,0
295.7495,297.14536,77,60,0
297.1495,297.34952,77,60,0
297.34952,297.5495,89,60,0
297.5495,297.74533,87,60,0
297.7495,297.94952,86,60,0
297.94952,298.14536,84,60,0
298.1495,298.34952,82,60,0
298.34952,298.54535,81,60,0
298.5495,298.7495,79,60,0
298.7495,298.94534,77,60,0
298.94952,299.1495,77,60,0
299.1495,299.34534,82,60,0
299.34952,299.88284,82,60,0
299.94952,300.0495,81,60,0
300.0495,300.1495,79,60,0
300.1495,300.2495,77,60,0
300.2495,300.34952,75,60,0
300.34952,300.44952,74,60,0
300.44952,300.54535,72,60,0
300.5495,300.7495,72,60,0
300.7495,300.94534,70,60,0
300.94952,301.5495,70,60,0
301.5495,301.59952,72,60,0
301.59952,301.6495,70,60,0
301.6495,301.69952,69,60,0
301.69952,301.7495,70,60,0
301.7495,301.94952,74,60,0
301.94952,302.14536,72,60,0
302.1495,302.48285,70,60,0
305.34952,305.94952,70,60,0
305.94952,305.9995,72,60,0
305.9995,306.0495,70,68,0
306.0495,306.09952,69,76,0
306.09952,306.1495,70,84,0
306.1495,306.7495,74,92,0
306.7495,306.94534,70,75,0
306.94952,307.28284,69,60,0
308.5495,308.7495,70,60,0
308.7495,308.94952,72,68,0
308.94952,309.1495,74,76,0
309.1495,309.34952,72,84,0
309.34952,309.5495,75,92,0
309.5495,309.7495,74,92,0
309.7495,309.94952,72,75,0
309.94952,310.14536,70,75,0
310.1495,310.48285,69,60,0
312.5495,313.34952,71,60,0
313.34952,313.44952,72,60,0
314.1495,314.94952,69,60,0
314.94952,315.0495,70,60,0
315.7495,315.87866,80,60,0
315.88284,316.01202,77,60,0
316.01617,316.14536,79,60,0
316.1495,316.2787,80,60,0
316.28284,316.41202,79,60,0
316.41617,316.54535,77,60,0
316.5495,316.67868,75,60,0
316.68283,316.812,79,60,0
316.81616,316.94534,77,60,0
316.94952,317.07867,75,60,0
317.08286,317.212,74,60,0
317.2162,317.34534,72,60,0
317.34952,317.47867,79,60,0
317.48285,317.612,75,60,0
317.61618,317.74533,77,60,0
317.7495,317.87866,79,60,0
317.88284,318.01202,77,60,0
318.01617,318.14536,75,60,0
318.1495,318.2787,74,60,0
318.28284,318.41202,70,60,0
318.41617,318.54535,72,60,0
318.5495,318.67868,74,60,0
318.68283,318.812,72,60,0
318.81616,318.94534,70,60,0
318.94952,319.07867,75,60,0
319.08286,319.212,72,60,0
319.2162,319.34534,74,60,0
319.34952,319.47867,75,60,0
319.48285,319.612,74,60,0
319.61618,319.74533,72,60,0
319.7495,319.87866,77,60,0
319.88284,320.01202,74,60,0
320.01617,320.14536,75,60,0
320.1495,320.2787,77,60,0
320.28284,320.41202,75,60,0
320.41617,320.54535,74,60,0
320.5495,320.67868,79,60,0
320.68283,320.812,75,60,0
320.81616,320.94534,77,60,0
320.94952,321.07867,79,60,0
321.08286,321.212,77,60,0
321.2162,321.34534,75,60,0
321.34952,321.41617,80,60,0
321.5495,321.61618,77,60,0
321.7495,321.81616,74,60,0
321.94952,322.01617,70,60,0
322.1495,322.2162,68,60,0
322.34952,322.41617,65,60,0
322.5495,322.61618,62,60,0
322.7495,322.81616,58,60,0
322.94952,323.28284,56,60,0
323.34952,324.1495,80,60,0
324.1495,324.48285,78,75,0
324.5495,324.63702,79,92,0
324.68283,324.81616,67,92,0
324.81616,324.94534,66,92,0
324.94952,325.03702,67,92,0
325.08286,325.2162,72,92,0
325.2162,325.34534,71,92,0
325.34952,325.437,72,92,0
325.48285,325.61618,75,92,0
325.61618,325.74533,74,92,0
325.7495,325.837,75,92,0
325.88284,326.01617,79,92,0
326.01617,326.14536,78,92,0
326.1495,326.24533,79,92,0
326.2495,326.34534,81,92,0
326.34952,326.44534,78,92,0
326.44952,326.54535,81,92,0
326.5495,326.64536,79,92,0
326.6495,326.74533,82,92,0
326.7495,326.84534,81,92,0
326.84952,326.94534,84,92,0
326.94952,327.28284,82,92,0
327.34952,327.7495,64,92,0
327.7495,328.08286,65,60,0
328.1495,328.68283,77,60,0
328.84952,328.94952,75,60,0
328.94952,329.1495,74,61,0
329.1495,329.2495,72,64,0
329.2495,329.34534,70,65,0
329.34952,330.0495,74,66,0
330.1495,330.2162,72,79,0
330.2162,330.28284,74,80,0
330.28284,330.34952,72,81,0
330.34952,330.41617,74,82,0
330.41617,330.48285,72,83,0
330.48285,330.5495,74,84,0
330.5495,330.61618,72,85,0
330.61618,330.68283,74,86,0
330.68283,330.7495,72,87,0
330.7495,330.81616,74,88,0
330.81616,330.88284,70,89,0
330.88284,330.94534,72,90,0
330.94952,331.28284,70,92,0
331.7495,331.84952,71,60,0
331.7495,331.84952,74,60,0
332.1495,332.2495,71,60,0
332.1495,332.2495,74,60,0
332.5495,333.08286,71,60,0
332.5495,333.08286,74,60,0
333.1495,333.2162,71,60,0
333.1495,333.2162,74,60,0
333.34952,333.44952,72,60,0
333.34952,333.44952,75,60,0
333.7495,333.84952,74,60,0
333.7495,333.84952,77,60,0
334.1495,334.2495,75,60,0
334.1495,334.2495,79,60,0
334.94952,335.0495,69,60,0
334.94952,335.0495,72,60,0
335.34952,335.44952,69,58,0
335.34952,335.44952,72,58,0
335.7495,336.28284,69,56,0
335.7495,336.28284,72,56,0
336.34952,336.41617,69,52,0
336.34952,336.41617,72,52,0
336.5495,336.6495,70,51,0
336.5495,336.6495,74,51,0
336.94952,337.0495,72,48,0
336.94952,337.0495,75,48,0
337.34952,337.44952,74,45,0
337.34952,337.44952,77,45,0
338.1495,338.2495,70,92,0
338.1495,338.2495,82,92,0
338.5495,338.6495,70,92,0
338.5495,338.6495,82,92,0
338.94952,339.48285,70,92,0
338.94952,339.48285,82,92,0
339.5495,339.61618,70,92,0
339.5495,339.61618,82,92,0
339.7495,339.84952,70,92,0
339.7495,339.84952,82,92,0
340.1495,340.2495,70,92,0
340.1495,340.2495,82,92,0
340.5495,340.74533,70,92,0
340.5495,340.74533,82,92,0
341.34952,341.44952,72,60,0
341.34952,341.44952,79,60,0
341.34952,341.44952,84,60,0
342.1495,342.2495,70,60,0
342.1495,342.2495,74,60,0
342.1495,342.2495,82,60,0
342.94952,343.0495,69,53,0
342.94952,343.0495,75,53,0
342.94952,343.0495,81,53,0
343.7495,343.84952,70,45,0
343.7495,343.84952,74,45,0
343.7495,343.84952,82,45,0
344.5495,344.6495,71,92,0
344.5495,344.6495,79,92,0
344.5495,344.6495,83,92,0
344.94952,345.0495,71,92,0
344.94952,345.0495,79,92,0
344.94952,345.0495,83,92,0
345.34952,345.88284,71,92,0
345.34952,345.88284,79,92,0
345.34952,345.88284,83,92,0
345.94952,346.01617,71,92,0
345.94952,346.01617,79,92,0
345.94952,346.01617,83,92,0
346.1495,346.2495,72,92,0
346.1495,346.2495,79,92,0
346.1495,346.2495,84,92,0
346.5495,346.6495,74,92,0
346.5495,346.6495,79,92,0
346.5495,346.6495,83,92,0
346.5495,346.6495,86,92,0
346.94952,347.0495,75,92,0
346.94952,347.0495,79,92,0
346.94952,347.0495,84,92,0
346.94952,347.0495,87,92,0
347.7495,348.08286,72,60,0
347.7495,348.08286,75,60,0
347.7495,348.08286,79,60,0
347.7495,348.08286,84,60,0
348.5495,348.88284,70,60,0
348.5495,348.88284,74,60,0
348.5495,348.88284,77,60,0
348.5495,348.88284,82,60,0
349.34952,349.68283,69,60,0
349.34952,349.68283,72,60,0
349.34952,349.68283,75,60,0
349.34952,349.68283,81,60,0
350.1495,350.34534,70,60,0
350.1495,350.34534,74,60,0
350.1495,350.34534,82,60,0
350.34952,350.5495,53,60,0
350.5495,350.7495,58,60,0
350.7495,350.94952,53,60,0
350.94952,351.1495,50,60,0
351.1495,351.34952,53,60,0
351.34952,351.5495,58,60,0
351.5495,351.74533,53,60,0
351.7495,351.94952,50,60,0
351.94952,352.1495,53,60,0
352.1495,352.34952,58,60,0
352.34952,352.5495,53,60,0
352.5495,352.7495,50,60,0
352.7495,352.94952,53,60,0
352.94952,353.1495,58,60,0
353.1495,353.34534,53,60,0
353.34952,353.5495,51,60,0
353.5495,353.7495,53,60,0
353.7495,353.94952,57,60,0
353.94952,354.1495,53,60,0
354.1495,354.34952,51,60,0
354.34952,354.5495,53,60,0
354.5495,354.7495,57,60,0
354.7495,354.94534,53,60,0
354.94952,355.1495,51,60,0
355.1495,355.34952,53,60,0
355.34952,355.5495,57,60,0
355.5495,355.7495,53,60,0
355.7495,355.94952,51,60,0
355.94952,356.1495,57,60,0
356.1495,356.34952,53,60,0
356.34952,356.54535,51,60,0
356.5495,356.74533,50,60,0
357.5495,357.7495,77,60,0
357.7495,357.94952,76,60,0
357.94952,358.1495,77,60,0
358.1495,358.34952,79,60,0
358.34952,358.5495,77,60,0
358.5495,358.7495,86,60,0
358.7495,358.94952,84,60,0
358.94952,359.1495,82,60,0
359.1495,359.34952,81,60,0
359.34952,359.5495,79,60,0
359.5495,359.7495,77,60,0
359.7495,360.08286,75,60,0
360.7495,360.94952,72,60,0
360.94952,361.1495,71,60,0
361.1495,361.34952,72,60,0
361.34952,361.5495,74,60,0
361.5495,361.7495,72,60,0
361.7495,361.94952,79,60,0
361.94952,362.1495,77,60,0
362.1495,362.34952,77,60,0
362.34952,362.5495,75,60,0
362.5495,362.7495,74,60,0
362.7495,362.94952,72,60,0
362.94952,363.28284,70,60,0
363.7495,363.88284,70,92,0
363.88284,364.01202,74,92,0
364.01617,364.14536,72,92,0
364.1495,364.237,70,92,0
364.28284,364.37033,69,92,0
364.41617,364.50366,67,92,0
364.5495,364.88284,65,92,0
365.34952,365.48285,65,92,0
365.48285,365.612,67,92,0
365.61618,365.70367,65,92,0
365.7495,365.837,63,92,0
365.88284,365.97034,62,92,0
366.01617,366.10367,60,92,0
366.1495,366.48285,58,92,0
366.94952,367.08286,82,92,0
367.08286,367.212,86,92,0
367.2162,367.30368,84,92,0
367.34952,367.437,82,92,0
367.48285,367.57034,81,92,0
367.61618,367.70367,79,92,0
367.7495,368.09198,77,92,0
368.5714,368.7084,77,92,0
368.7084,368.84113,79,92,0
368.8454,368.9353,77,92,0
368.9824,369.07227,75,92,0
369.11935,369.20926,74,92,0
369.25635,369.34625,72,92,0
369.39334,369.60022,70,92,0
370.2384,370.45126,69,92,0
370.2384,370.45126,72,92,0
370.2384,370.45126,77,92,0
370.2384,370.45126,81,92,0
371.10797,371.4811,70,92,0
371.10797,371.4811,74,92,0
371.10797,371.4811,77,92,0
371.10797,371.4811,82,92,0
372.2274,372.29404,58,92,0
372.42737,372.49405,57,75,0
372.62738,372.69403,58,75,0
372.8274,373.8232,62,105,0
373.8274,373.89404,62,92,0
374.02737,374.09406,61,75,0
374.2274,374.29404,62,75,0
374.42737,375.42322,65,105,0
375.42737,375.49405,65,92,0
375.62738,375.69403,64,75,0
375.8274,375.89404,65,75,0
376.02737,377.12738,68,105,0
377.2274,377.3274,65,75,0
377.62738,377.7274,62,75,0
378.02737,378.12738,59,75,0
378.42737,378.52737,60,75,0
378.8274,378.92737,54,75,0
379.2274,379.42737,55,60,0
379.42737,379.62738,59,60,0
379.62738,379.8274,62,60,0
379.8274,380.02737,59,60,0
380.02737,380.2274,55,60,0
380.2274,380.42737,59,60,0
380.42737,380.62738,62,60,0
380.62738,380.8232,59,60,0
380.8274,381.02737,55,60,0
381.02737,381.2274,60,60,0
381.2274,381.42737,63,60,0
381.42737,381.62738,60,60,0
381.62738,381.8274,55,60,0
381.8274,382.02737,60,60,0
382.02737,382.2274,55,60,0
382.2274,382.42322,60,60,0
382.42737,382.62738,56,60,0
382.62738,382.8274,60,60,0
382.8274,383.02737,62,60,0
383.02737,383.2274,60,60,0
383.2274,383.42737,62,60,0
383.42737,383.62738,60,60,0
383.62738,383.8274,62,60,0
383.8274,384.02322,60,60,0
384.02737,384.2274,55,60,0
384.2274,384.42737,59,60,0
384.42737,384.62738,62,60,0
384.62738,384.8274,59,60,0
384.8274,385.02737,55,60,0
385.02737,385.2274,59,60,0
385.2274,385.42737,65,60,0
385.42737,385.6232,59,60,0
385.62738,385.8232,63,60,0
385.8274,386.02322,55,60,0
386.02737,386.2232,60,60,0
386.2274,386.42322,55,60,0
386.42737,386.6232,51,60,0
386.62738,386.8232,56,60,0
386.8274,387.02322,60,60,0
387.02737,387.2232,56,60,0
387.2274,387.42322,51,60,0
387.42737,387.6232,56,60,0
387.62738,387.8232,60,60,0
387.8274,388.02322,56,60,0
388.02737,388.2232,51,60,0
388.2274,388.42322,56,60,0
388.42737,388.6232,51,60,0
388.62738,388.8232,56,60,0
388.8274,389.02322,53,60,0
389.02737,389.2232,56,60,0
389.2274,389.42322,58,60,0
389.42737,389.6232,56,60,0
389.62738,389.8232,58,60,0
389.8274,390.02322,56,60,0
390.02737,390.2232,58,60,0
390.2274,390.42322,56,60,0
390.42737,390.62738,55,60,0
390.62738,390.8274,58,60,0
390.8274,391.02737,55,60,0
391.02737,391.2274,51,60,0
391.2274,391.42737,49,60,0
391.42737,391.62738,55,60,0
391.62738,391.8274,51,60,0
391.8274,392.02322,49,60,0
392.02737,392.36072,48,60,0
392.42737,392.52737,72,60,0
392.42737,392.52737,80,60,0
392.8274,392.92737,72,60,0
392.8274,392.92737,80,60,0
393.49405,393.5607,80,60,0
393.5607,393.62738,82,60,0
393.62738,394.3274,84,60,0
394.42737,394.52737,84,60,0
394.52737,394.62738,82,60,0
394.62738,394.7274,80,60,0
394.7274,394.8274,79,60,0
394.8274,394.92737,77,60,0
394.92737,395.02737,75,60,0
395.02737,395.12738,73,60,0
395.12738,395.2232,72,60,0
395.2274,395.3274,73,60,0
395.62738,395.7274,73,60,0
396.02737,396.12738,73,60,0
396.69403,396.7607,82,60,0
396.7607,396.8274,84,60,0
396.8274,397.52737,85,60,0
397.62738,397.7274,85,60,0
397.7274,397.8274,84,60,0
397.8274,397.92737,82,60,0
397.92737,398.02737,80,60,0
398.02737,398.12738,79,60,0
398.12738,398.2274,77,60,0
398.2274,398.3274,75,60,0
398.3274,398.42322,73,60,0
398.42737,398.49405,72,60,0
398.62738,398.8274,60,60,0
398.8274,399.02737,63,60,0
399.02737,399.2274,60,60,0
399.2274,399.42737,56,60,0
399.42737,399.62738,60,60,0
399.62738,399.8274,65,60,0
399.8274,400.02322,60,60,0
400.02737,400.2274,56,60,0
400.2274,400.42737,60,60,0
400.42737,400.62738,65,60,0
400.62738,400.8274,60,60,0
400.8274,401.02737,56,60,0
401.02737,401.2274,60,60,0
401.2274,401.42737,65,60,0
401.42737,401.6232,60,60,0
401.62738,401.8232,65,60,0
401.8274,402.02322,61,60,0
402.02737,402.2232,65,60,0
402.2274,402.42322,61,60,0
402.42737,402.6232,55,60,0
402.62738,402.8232,65,60,0
402.8274,403.02322,55,60,0
403.02737,403.2232,65,60,0
403.2274,403.42322,55,60,0
403.42737,403.6232,64,60,0
403.62738,403.8232,55,60,0
403.8274,404.02322,64,60,0
404.02737,404.2232,58,60,0
404.2274,404.42322,64,60,0
404.42737,404.6232,58,60,0
404.62738,404.8232,64,60,0
404.8274,404.92737,56,60,0
404.8274,404.92737,65,60,0
405.2274,405.3274,56,60,0
405.2274,405.3274,65,60,0
405.62738,405.7274,56,60,0
405.62738,405.7274,65,60,0
406.29404,406.36072,77,60,0
406.36072,406.42737,79,60,0
406.42737,407.12738,80,60,0
407.2274,407.3274,80,60,0
407.3274,407.42737,79,60,0
407.42737,407.52737,77,60,0
407.52737,407.62738,75,60,0
407.62738,407.7274,73,60,0
407.7274,407.8274,72,60,0
407.8274,407.92737,70,60,0
407.92737,408.02322,68,60,0
408.02737,408.12738,70,60,0
408.42737,408.52737,70,60,0
408.8274,408.92737,70,60,0
409.49405,409.5607,79,60,0
409.5607,409.62738,80,60,0
409.62738,410.3274,82,60,0
410.42737,410.52737,82,60,0
410.52737,410.62738,80,60,0
410.62738,410.7274,79,60,0
410.7274,410.8274,77,60,0
410.8274,410.92737,76,60,0
410.92737,411.02737,73,60,0
411.02737,411.12738,72,60,0
411.12738,411.2232,70,60,0
411.2274,411.3274,68,60,0
411.62738,411.7274,68,60,0
412.02737,412.12738,68,60,0
412.69403,412.7607,77,60,0
412.7607,412.8274,79,60,0
412.8274,413.52737,80,60,0
413.62738,413.7274,80,60,0
413.7274,413.8274,79,60,0
413.8274,413.92737,77,60,0
413.92737,414.02737,75,60,0
414.02737,414.12738,74,60,0
414.12738,414.2274,72,60,0
414.2274,414.3274,70,60,0
414.3274,414.42322,68,60,0
414.42737,414.52737,67,60,0
415.2274,415.3274,67,68,0
415.3274,415.42737,68,69,0
415.42737,415.52737,70,70,0
415.52737,415.62738,72,71,0
415.62738,415.7274,74,72,0
415.7274,415.8274,75,73,0
415.8274,415.92737,77,74,0
415.92737,416.02322,79,75,0
416.02737,416.12738,81,76,0
416.8274,416.92737,69,84,0
416.92737,417.02737,70,85,0
417.02737,417.12738,72,86,0
417.12738,417.2274,74,87,0
417.2274,417.3274,75,88,0
417.3274,417.42737,77,89,0
417.42737,417.52737,79,90,0
417.52737,417.6232,81,91,0
417.62738,417.96072,82,92,0
420.8274,421.62738,77,92,0
421.62738,422.42737,75,75,0
422.42737,423.2274,80,92,0
423.2274,423.92737,79,75,0
424.02737,424.36072,77,60,0
427.2274,427.42737,77,60,0
427.42737,427.62738,80,64,0
427.62738,427.8274,79,68,0
427.8274,428.02737,77,72,0
428.02737,428.2274,75,76,0
428.2274,428.42737,79,80,0
428.42737,428.62738,77,84,0
428.62738,428.8274,75,88,0
428.8274,429.02737,80,92,0
429.02737,429.2274,84,92,0
429.2274,429.42737,82,92,0
429.42737,429.62738,80,92,0
429.62738,429.8274,79,75,0
429.8274,430.02737,87,75,0
430.02737,430.2274,82,60,0
430.2274,430.42322,79,60,0
430.42737,430.7607,77,45,0
430.8274,431.0774,70,45,0
430.8274,431.0774,82,45,0
431.2274,431.4774,70,45,0
431.2274,431.4774,82,45,0
431.62738,431.7274,70,45,0
431.62738,431.7274,82,45,0
432.02737,432.28076,70,45,0
432.02737,432.28076,82,45,0
432.43277,432.68616,70,45,0
432.43277,432.68616,82,45,0
432.8382,433.09155,70,45,0
432.8382,433.09155,82,45,0
433.2436,433.34494,70,45,0
433.2436,433.34494,82,45,0
433.649,433.90585,70,45,0
433.649,433.90585,82,45,0
434.05997,434.3168,70,45,0
434.05997,434.3168,82,45,0
434.47092,434.72775,70,45,0
434.47092,434.72775,82,45,0
434.88187,434.98462,70,45,0
434.88187,434.98462,82,45,0
435.29282,435.36227,82,45,0
435.50116,435.7095,82,46,0
435.7095,435.91782,81,48,0
435.91782,436.12183,82,50,0
436.12616,436.19562,82,52,0
436.3345,436.54282,70,54,0
436.54282,436.75116,69,56,0
436.75116,436.95514,70,58,0
436.9595,437.0299,70,60,0
437.17078,437.38202,58,62,0
437.38202,437.5933,57,64,0
437.5933,437.80017,58,66,0
437.80457,437.875,58,68,0
438.01584,438.2271,58,70,0
438.2271,438.43835,57,72,0
438.43835,438.64523,58,74,0
438.64963,438.72107,58,76,0
438.86392,439.07822,58,78,0
439.07822,439.29248,57,80,0
439.29248,439.50232,58,82,0
439.50677,439.57822,58,84,0
439.72107,439.79248,70,86,0
439.93533,440.00677,69,88,0
440.14963,440.22107,70,90,0
440.36392,441.35974,75,92,0
441.36392,441.43057,75,60,0
441.5639,441.63058,74,60,0
441.76392,441.8306,75,60,0
441.96393,442.95975,79,92,0
442.96393,443.03058,79,60,0
443.1639,443.2306,78,60,0
443.36392,443.43057,79,60,0
443.5639,444.6639,82,92,0
444.76392,444.96393,80,60,0
444.96393,445.1639,79,60,0
445.1639,445.36392,77,60,0
445.36392,445.5639,75,64,0
445.5639,445.76392,74,68,0
445.76392,445.96393,75,72,0
445.96393,446.1639,74,76,0
446.1639,446.36392,75,80,0
446.36392,446.5639,78,84,0
446.5639,446.75977,79,88,0
446.76392,447.1639,79,92,0
447.1639,447.86392,72,60,0
447.96393,448.1639,71,60,0
448.1639,448.36392,72,60,0
448.36392,448.5639,71,60,0
448.5639,448.76392,72,64,0
448.76392,448.96393,76,68,0
448.96393,449.1639,77,72,0
449.1639,449.36392,76,76,0
449.36392,449.5639,77,80,0
449.5639,449.76392,79,84,0
449.76392,449.95975,80,88,0
449.96393,450.36392,80,92,0
450.36392,451.0639,74,60,0
451.1639,451.36392,73,60,0
451.36392,451.5639,74,60,0
451.5639,451.76392,75,60,0
451.76392,451.96393,76,64,0
451.96393,452.1639,77,68,0
452.1639,452.36392,78,72,0
452.36392,452.5639,79,76,0
452.5639,452.76392,80,80,0
452.76392,452.96393,81,84,0
452.96393,453.15976,82,88,0
453.1639,454.1639,82,92,0
454.1639,454.36392,79,60,0
454.36392,454.5639,80,60,0
454.5639,454.75977,77,60,0
454.76392,455.36392,75,60,0
455.36392,455.4139,77,60,0
455.4139,455.46393,75,60,0
455.46393,455.51392,74,60,0
455.51392,455.5639,75,60,0
455.5639,456.1639,79,60,0
456.1639,456.35974,77,60,0
456.36392,456.55975,75,60,0
456.5639,456.95975,55,92,0
456.5639,456.95975,58,92,0
456.5639,456.95975,63,92,0
456.96393,457.35974,55,75,0
456.96393,457.35974,58,75,0
456.96393,457.35974,63,75,0
457.36392,457.75977,55,60,0
457.36392,457.75977,58,60,0
457.36392,457.75977,63,60,0
457.76392,458.15976,55,60,0
457.76392,458.15976,58,60,0
457.76392,458.15976,63,60,0
458.1639,458.55975,55,92,0
458.1639,458.55975,58,92,0
458.1639,458.55975,63,92,0
458.5639,458.95975,55,75,0
458.5639,458.95975,58,75,0
458.5639,458.95975,63,75,0
458.96393,459.35974,55,60,0
458.96393,459.35974,58,60,0
458.96393,459.35974,63,60,0
459.36392,459.75977,55,60,0
459.36392,459.75977,58,60,0
459.36392,459.75977,63,60,0
459.76392,459.8306,55,92,0
459.96393,460.03058,58,75,0
460.1639,460.2306,63,75,0
460.36392,460.43057,67,60,0
460.5639,460.63058,70,60,0
460.76392,460.8306,75,60,0
460.96393,461.03058,79,60,0
461.1639,461.49725,82,60,0
462.96393,463.03058,56,92,0
463.1639,463.2306,60,92,0
463.36392,463.43057,63,75,0
463.5639,463.63058,68,60,0
463.76392,463.8306,72,60,0
463.96393,464.03058,75,60,0
464.1639,464.2306,80,60,0
464.36392,464.69727,84,60,0
466.1639,466.2306,85,60,0
466.36392,466.43057,82,62,0
466.5639,466.63058,79,64,0
466.76392,466.8306,75,66,0
466.96393,467.03058,73,68,0
467.1639,467.2306,70,70,0
467.36392,467.43057,67,72,0
467.5639,467.76392,63,74,0
467.76392,467.96393,61,76,0
467.96393,468.1639,63,78,0
468.1639,468.36392,61,80,0
468.36392,468.5639,63,82,0
468.5639,468.76392,61,84,0
468.76392,468.96393,58,86,0
468.96393,469.15976,55,89,0
469.1639,469.25977,51,92,0
469.26392,469.35974,56,92,0
469.36392,469.45975,60,92,0
469.46393,469.55975,63,92,0
469.5639,469.65976,51,75,0
469.6639,469.75977,56,75,0
469.76392,469.85974,60,75,0
469.86392,469.95975,63,75,0
469.96393,470.05975,51,60,0
470.0639,470.15976,56,60,0
470.1639,470.25977,60,60,0
470.26392,470.35974,63,60,0
470.36392,470.45975,51,60,0
470.46393,470.55975,56,60,0
470.5639,470.65976,60,60,0
470.6639,470.75977,63,60,0
470.76392,470.85974,51,60,0
470.86392,470.95975,56,60,0
470.96393,471.05975,60,60,0
471.0639,471.15976,63,60,0
471.1639,471.25977,51,60,0
471.26392,471.35974,56,60,0
471.36392,471.45975,60,60,0
471.46393,471.55975,63,60,0
471.5639,471.65976,51,60,0
471.6639,471.75977,56,60,0
471.76392,471.85974,60,60,0
471.86392,471.95975,63,60,0
471.96393,472.05975,51,60,0
472.0639,472.15976,56,60,0
472.1639,472.25977,60,60,0
472.26392,472.35974,63,60,0
472.36392,472.45975,51,60,0
472.46393,472.55975,55,60,0
472.5639,472.65976,58,60,0
472.6639,472.75977,63,60,0
472.76392,472.85974,51,60,0
472.86392,472.95975,55,60,0
472.96393,473.05975,58,60,0
473.0639,473.15976,63,60,0
473.1639,473.25977,51,60,0
473.26392,473.35974,55,60,0
473.36392,473.45975,58,60,0
473.46393,473.55975,63,60,0
473.5639,473.65976,51,60,0
473.6639,473.75977,55,60,0
473.76392,473.85974,58,60,0
473.86392,473.95975,63,60,0
473.96393,474.05975,51,60,0
474.0639,474.15976,58,60,0
474.1639,474.25977,61,60,0
474.26392,474.35974,63,60,0
474.36392,474.45975,51,60,0
474.46393,474.55975,58,60,0
474.5639,474.65976,61,60,0
474.6639,474.75977,63,60,0
474.76392,474.85974,51,60,0
474.86392,474.95975,58,60,0
474.96393,475.05975,61,60,0
475.0639,475.15976,63,60,0
475.1639,475.25977,51,60,0
475.26392,475.35974,58,60,0
475.36392,475.45975,61,60,0
475.46393,475.55975,63,60,0
475.5639,475.65976,51,60,0
475.6639,475.75977,56,60,0
475.76392,475.85974,60,60,0
475.86392,475.95975,63,60,0
475.96393,476.05975,51,60,0
476.0639,476.15976,56,60,0
476.1639,476.25977,60,60,0
476.26392,476.35974,63,60,0
476.36392,476.45975,51,60,0
476.46393,476.55975,56,60,0
476.5639,476.65976,60,60,0
476.6639,476.75977,63,60,0
476.76392,476.85974,51,60,0
476.86392,476.95975,56,60,0
476.96393,477.05975,60,60,0
477.0639,477.15976,63,60,0
477.1639,477.25977,51,60,0
477.26392,477.35974,56,60,0
477.36392,477.45975,60,60,0
477.46393,477.55975,63,60,0
477.5639,477.65976,51,60,0
477.6639,477.75977,56,60,0
477.76392,477.85974,60,60,0
477.86392,477.95975,63,60,0
477.96393,478.05975,51,60,0
478.0639,478.15976,56,60,0
478.1639,478.25977,60,60,0
478.26392,478.35974,63,60,0
478.36392,478.45975,51,60,0
478.46393,478.55975,56,60,0
478.5639,478.65976,60,60,0
478.6639,478.75977,63,60,0
478.76392,478.85974,51,60,0
478.86392,478.95975,55,60,0
478.96393,479.05975,58,60,0
479.0639,479.15976,63,60,0
479.1639,479.25977,51,60,0
479.26392,479.35974,55,60,0
479.36392,479.45975,58,60,0
479.46393,479.55975,63,60,0
479.5639,479.65976,51,60,0
479.6639,479.75977,55,60,0
479.76392,479.85974,58,60,0
479.86392,479.95975,63,60,0
479.96393,480.05975,51,60,0
480.0639,480.15976,55,60,0
480.1639,480.25977,58,60,0
480.26392,480.35974,63,60,0
480.36392,480.45975,51,60,0
480.46393,480.55975,58,60,0
480.5639,480.65976,61,60,0
480.6639,480.75977,63,60,0
480.76392,480.85974,51,60,0
480.86392,480.95975,58,60,0
480.96393,481.05975,61,60,0
481.0639,481.15976,63,60,0
481.1639,481.25977,51,60,0
481.26392,481.35974,58,60,0
481.36392,481.45975,61,60,0
481.46393,481.55975,63,60,0
481.5639,481.65976,51,60,0
481.6639,481.75977,58,60,0
481.76392,481.85974,61,60,0
481.86392,481.95975,63,60,0
481.96393,482.05975,51,60,0
482.0639,482.15976,56,61,0
482.1639,482.25977,60,61,0
482.26392,482.35974,63,62,0
482.36392,482.45975,51,63,0
482.46393,482.55975,56,64,0
482.5639,482.65976,60,65,0
482.6639,482.75977,63,66,0
482.76392,482.85974,51,67,0
482.86392,482.95975,55,68,0
482.96393,483.05975,58,69,0
483.0639,483.15976,63,70,0
483.1639,483.25977,51,71,0
483.26392,483.35974,55,72,0
483.36392,483.45975,58,73,0
483.46393,483.55975,63,74,0
483.5639,483.65976,51,75,0
483.6639,483.75977,54,76,0
483.76392,483.85974,57,77,0
483.86392,483.95975,63,78,0
483.96393,484.05975,51,79,0
484.0639,484.15976,54,80,0
484.1639,484.25977,57,81,0
484.26392,484.35974,63,82,0
484.36392,484.45975,51,83,0
484.46393,484.55975,54,84,0
484.5639,484.65976,60,85,0
484.6639,484.75977,63,86,0
484.76392,484.85974,51,87,0
484.86392,484.95975,54,88,0
484.96393,485.05975,60,89,0
485.0639,485.15976,63,90,0
485.1639,485.49725,50,92,0
485.1639,485.49725,53,92,0
485.1639,485.49725,62,92,0
486.76392,487.36392,82,60,0
487.36392,487.46393,84,60,0
487.46393,487.55975,86,60,0
487.5639,487.63058,79,60,0
487.5639,487.63058,87,60,0
487.76392,487.8306,79,60,0
487.76392,487.8306,87,60,0
487.96393,488.03058,79,60,0
487.96393,488.03058,87,60,0
488.1639,488.2306,79,60,0
488.1639,488.2306,87,60,0
488.36392,488.69727,77,60,0
488.36392,488.69727,86,60,0
489.96393,490.5639,82,76,0
490.5639,490.6639,84,82,0
490.6639,490.75977,86,83,0
490.76392,490.8306,87,84,0
490.96393,491.03058,87,86,0
491.1639,491.2306,87,88,0
491.36392,491.43057,87,90,0
491.5639,491.63242,86,92,0
491.7694,491.8379,82,92,0
491.97488,492.0453,87,92,0
492.18616,492.25656,82,92,0
492.3974,492.46988,86,92,0
492.6148,492.68726,82,92,0
492.83218,492.90683,87,92,0
493.05606,493.1307,82,92,0
493.27997,493.3919,86,92,0
493.72772,493.83966,62,92,0
493.72772,493.83966,70,92,0
494.17548,494.2874,58,92,0
494.82324,495.01907,70,60,0
495.02322,495.55658,79,60,0
495.82324,496.35657,74,60,0
496.62323,497.15656,75,60,0
497.42325,497.95657,80,60,0
498.22324,498.32324,79,60,0
498.62323,498.72324,77,60,0
499.02322,499.12323,75,60,0
499.42325,499.52322,75,60,0
499.82324,500.02322,75,60,0
500.02322,500.22324,74,60,0
500.22324,500.42325,77,60,0
500.42325,500.61908,74,60,0
500.62323,500.95657,70,60,0
501.62323,501.82324,70,60,0
501.82324,502.02322,72,60,0
502.02322,502.21906,70,60,0
502.22324,502.28992,70,60,0
502.42325,502.62323,70,60,0
502.62323,502.82324,72,60,0
502.82324,503.01907,70,60,0
503.02322,503.0899,70,60,0
503.22324,503.42325,70,60,0
503.42325,503.62323,72,60,0
503.62323,503.81906,70,60,0
503.82324,503.8899,70,60,0
504.02322,504.22324,70,60,0
504.22324,504.42325,72,60,0
504.42325,504.61908,70,60,0
504.62323,504.6899,70,60,0
504.82324,504.8899,70,60,0
505.02322,505.0899,72,60,0
505.22324,505.28992,74,60,0
505.42325,505.4899,75,60,0
505.62323,505.6899,77,60,0
505.82324,505.8899,79,60,0
506.02322,506.0899,81,60,0
506.22324,506.28992,82,60,0
506.42325,506.62323,81,60,0
506.62323,506.81906,82,60,0
506.82324,507.02322,81,60,0
507.02322,507.21906,82,60,0
507.22324,507.42325,81,60,0
507.42325,507.61908,82,60,0
507.62323,507.82324,81,60,0
507.82324,508.02322,82,60,0
508.02322,508.21906,80,60,0
508.22324,508.42325,79,60,0
508.42325,508.61908,77,60,0
508.62323,508.82324,75,60,0
508.82324,509.01907,74,60,0
509.02322,509.22324,72,60,0
509.22324,509.41907,70,60,0
509.42325,510.81906,70,60,0
510.82324,511.02322,70,60,0
511.02322,511.22324,82,60,0
511.22324,511.41907,80,60,0
511.42325,511.62323,79,60,0
511.62323,511.81906,77,60,0
511.82324,512.02325,75,60,0
512.02325,512.21906,74,60,0
512.22327,512.4232,72,60,0
512.4232,512.6191,70,60,0
512.6232,514.01904,70,60,0
514.02325,514.22327,70,60,0
514.22327,514.4232,82,60,0
514.4232,514.6191,80,60,0
514.6232,514.82324,79,60,0
514.82324,515.01904,77,60,0
515.02325,515.22327,75,60,0
515.22327,515.41907,74,60,0
515.4232,515.6232,72,60,0
515.6232,515.8191,70,60,0
515.82324,516.02325,70,60,0
516.02325,516.21906,75,60,0
516.22327,516.7566,75,60,0
516.82324,516.9232,74,60,0
516.9232,517.02325,72,60,0
517.02325,517.1232,70,60,0
517.1232,517.22327,68,60,0
517.22327,517.32324,67,60,0
517.32324,517.41907,65,60,0
517.4232,517.6232,65,60,0
517.6232,517.8191,63,60,0
517.82324,518.4232,63,60,0
518.4232,518.47327,65,60,0
518.47327,518.52325,63,60,0
518.52325,518.57324,62,60,0
518.57324,518.6232,63,60,0
518.6232,518.82324,67,60,0
518.82324,519.01904,65,60,0
519.02325,519.22327,63,60,0
519.22327,519.4232,62,60,0
519.4232,519.6232,63,60,0
519.6232,519.82324,65,60,0
519.82324,520.02325,66,60,0
520.02325,520.22327,67,60,0
520.22327,520.4232,68,60,0
520.4232,520.6191,69,60,0
520.6232,520.82324,70,60,0
520.82324,521.01904,68,60,0
521.02325,521.22327,67,60,0
521.22327,521.41907,65,60,0
521.4232,521.6232,63,60,0
521.6232,521.8191,62,60,0
521.82324,522.02325,60,60,0
522.02325,522.21906,58,60,0
522.22327,522.5566,58,60,0
522.82324,523.02325,75,60,0
523.02325,523.6232,79,84,0
523.6232,523.8191,75,60,0
523.82324,523.8899,74,60,0
524.02325,524.1232,70,60,0
524.1232,524.21906,68,60,0
524.22327,524.4232,67,60,0
524.4232,524.6191,65,60,0
524.6232,524.82324,63,60,0
524.82324,525.01904,62,60,0
525.02325,525.22327,60,60,0
525.22327,525.41907,58,60,0
525.4232,525.6191,58,60,0
525.6232,525.82324,75,60,0
525.82324,526.02325,79,75,0
526.02325,526.22327,77,75,0
526.22327,526.4232,80,92,0
526.4232,526.6232,79,92,0
526.6232,526.82324,77,75,0
526.82324,527.01904,75,75,0
527.02325,527.0899,74,60,0
527.22327,527.32324,70,60,0
527.32324,527.41907,68,60,0
527.4232,527.6232,67,60,0
527.6232,527.8191,65,60,0
527.82324,528.02325,63,60,0
528.02325,528.21906,62,60,0
528.22327,528.4232,60,60,0
528.4232,528.6191,58,60,0
528.6232,528.95654,63,60,0
529.4232,530.22327,76,60,0
530.22327,530.5566,77,60,0
531.02325,531.82324,74,60,0
531.82324,532.15656,75,60,0
532.6232,532.7524,82,60,0
532.7566,532.88574,81,60,0
532.8899,533.01904,82,60,0
533.02325,533.1524,85,60,0
533.15656,533.28577,84,60,0
533.2899,533.41907,82,60,0
533.4232,533.5524,80,60,0
533.5566,533.6857,84,60,0
533.6899,533.8191,82,60,0
533.82324,533.9524,80,60,0
533.95654,534.08575,79,60,0
534.0899,534.21906,77,60,0
534.22327,534.3524,80,60,0
534.35657,534.4857,79,60,0
534.4899,534.6191,80,60,0
534.6232,534.7524,84,60,0
534.7566,534.88574,82,60,0
534.8899,535.01904,80,60,0
535.02325,535.1524,79,60,0
535.15656,535.28577,75,60,0
535.2899,535.41907,77,60,0
535.4232,535.5524,79,60,0
535.5566,535.6857,77,60,0
535.6899,535.8191,75,60,0
535.82324,535.9524,80,60,0
535.95654,536.08575,77,60,0
536.0899,536.21906,79,60,0
536.22327,536.3524,80,60,0
536.35657,536.4857,79,60,0
536.4899,536.6191,77,60,0
536.6232,536.7524,82,60,0
536.7566,536.88574,79,60,0
536.8899,537.01904,80,60,0
537.02325,537.1524,82,60,0
537.15656,537.28577,80,60,0
537.2899,537.41907,79,60,0
537.4232,537.5524,84,60,0
537.5566,537.6857,80,60,0
537.6899,537.8191,82,60,0
537.82324,537.9524,84,60,0
537.95654,538.08575,82,60,0
538.0899,538.21906,80,60,0
538.22327,538.2899,85,60,0
538.4232,538.4899,82,60,0
538.6232,538.6899,79,60,0
538.82324,538.8899,75,60,0
539.02325,539.0899,73,60,0
539.22327,539.2899,70,60,0
539.4232,539.4899,67,60,0
539.6232,539.6899,63,60,0
539.82324,540.15656,61,60,0
540.22327,541.02325,85,60,0
541.02325,541.35657,83,75,0
541.4232,541.51074,84,92,0
541.5566,541.6899,72,92,0
541.6899,541.8191,71,92,0
541.82324,541.91077,72,92,0
541.95654,542.0899,77,92,0
542.0899,542.21906,76,92,0
542.22327,542.3107,77,92,0
542.35657,542.4899,80,92,0
542.4899,542.6191,79,92,0
542.6232,542.71075,80,92,0
542.7566,542.8899,84,92,0
542.8899,543.01904,83,92,0
543.02325,543.1191,84,92,0
543.1232,543.21906,86,92,0
543.22327,543.3191,83,92,0
543.32324,543.41907,86,92,0
543.4232,543.51904,84,92,0
543.52325,543.6191,87,92,0
543.6232,543.71906,86,92,0
543.72327,543.8191,89,92,0
543.82324,544.15656,87,92,0
544.22327,544.6232,57,92,0
544.6232,544.95654,58,60,0
545.02325,545.72327,82,84,0
545.82324,545.9232,80,60,0
545.9232,546.02325,79,61,0
546.02325,546.1232,77,62,0
546.1232,546.21906,75,63,0
546.22327,546.9232,79,64,0
547.02325,547.0899,77,78,0
547.0899,547.15656,79,79,0
547.15656,547.22327,77,80,0
547.22327,547.2899,79,81,0
547.2899,547.35657,77,82,0
547.35657,547.4232,79,83,0
547.4232,547.4899,77,84,0
547.4899,547.5566,79,85,0
547.5566,547.6232,77,86,0
547.6232,547.6899,79,87,0
547.6899,547.7566,75,88,0
547.7566,547.8191,77,90,0
547.82324,548.15656,75,92,0
548.6232,548.72327,64,60,0
548.6232,548.72327,67,60,0
549.02325,549.1232,64,60,0
549.02325,549.1232,67,60,0
549.4232,549.95654,64,60,0
549.4232,549.95654,67,60,0
550.02325,550.0899,64,60,0
550.02325,550.0899,67,60,0
550.22327,550.32324,65,60,0
550.22327,550.32324,68,60,0
550.6232,550.72327,67,60,0
550.6232,550.72327,70,60,0
551.02325,551.1232,68,60,0
551.02325,551.1232,72,60,0
551.82324,551.9232,62,60,0
551.82324,551.9232,65,60,0
552.22327,552.32324,62,60,0
552.22327,552.32324,65,60,0
552.6232,553.15656,62,60,0
552.6232,553.15656,65,60,0
553.22327,553.2899,62,60,0
553.22327,553.2899,65,60,0
553.4232,553.52325,63,60,0
553.4232,553.52325,67,60,0
553.82324,553.9232,65,60,0
553.82324,553.9232,68,60,0
554.22327,554.32324,67,60,0
554.22327,554.32324,70,60,0
555.02325,555.1232,63,92,0
555.02325,555.1232,67,92,0
555.02325,555.1232,75,92,0
555.4232,555.52325,63,92,0
555.4232,555.52325,67,92,0
555.4232,555.52325,75,92,0
555.82324,556.35657,63,92,0
555.82324,556.35657,67,92,0
555.82324,556.35657,75,92,0
556.4232,556.4899,63,92,0
556.4232,556.4899,67,92,0
556.4232,556.4899,75,92,0
556.6232,556.72327,63,92,0
556.6232,556.72327,68,92,0
556.6232,556.72327,75,92,0
557.02325,557.1232,63,92,0
557.02325,557.1232,67,92,0
557.02325,557.1232,70,92,0
557.02325,557.1232,75,92,0
557.4232,557.6191,63,92,0
557.4232,557.6191,68,92,0
557.4232,557.6191,72,92,0
557.4232,557.6191,75,92,0
558.22327,558.32324,65,60,0
558.22327,558.32324,72,60,0
558.22327,558.32324,77,60,0
559.02325,559.1232,63,60,0
559.02325,559.1232,67,60,0
559.02325,559.1232,75,60,0
559.82324,559.9232,62,53,0
559.82324,559.9232,68,53,0
559.82324,559.9232,74,53,0
560.6232,560.72327,63,45,0
560.6232,560.72327,67,45,0
560.6232,560.72327,75,45,0
561.4232,561.52325,72,92,0
561.4232,561.52325,84,92,0
561.82324,561.9232,72,92,0
561.82324,561.9232,84,92,0
562.22327,562.7566,72,92,0
562.22327,562.7566,84,92,0
562.82324,562.8899,72,92,0
562.82324,562.8899,84,92,0
563.02325,563.1232,72,92,0
563.02325,563.1232,84,92,0
563.4232,563.52325,72,92,0
563.4232,563.52325,84,92,0
563.82324,563.9232,72,92,0
563.82324,563.9232,84,92,0
564.6232,564.95654,77,60,0
564.6232,564.95654,80,60,0
564.6232,564.95654,89,60,0
565.4232,565.7566,75,60,0
565.4232,565.7566,79,60,0
565.4232,565.7566,87,60,0
566.22327,566.5566,74,60,0
566.22327,566.5566,80,60,0
566.22327,566.5566,86,60,0
567.02325,567.21906,75,60,0
567.02325,567.21906,79,60,0
567.02325,567.21906,87,60,0
567.22327,567.4232,58,60,0
567.4232,567.6232,55,60,0
567.6232,567.82324,58,60,0
567.82324,568.02325,55,60,0
568.02325,568.22327,58,60,0
568.22327,568.4232,63,60,0
568.4232,568.6191,58,60,0
568.6232,568.82324,55,60,0
568.82324,569.02325,58,60,0
569.02325,569.22327,63,60,0
569.22327,569.4232,58,60,0
569.4232,569.6232,55,60,0
569.6232,569.82324,58,60,0
569.82324,570.02325,63,60,0
570.02325,570.21906,58,60,0
570.22327,570.4232,56,60,0
570.4232,570.6232,58,60,0
570.6232,570.82324,62,60,0
570.82324,571.02325,65,60,0
571.02325,571.22327,68,60,0
571.22327,571.4232,65,60,0
571.4232,571.6232,62,60,0
571.6232,571.8191,58,60,0
571.82324,572.02325,56,60,0
572.02325,572.22327,58,60,0
572.22327,572.4232,62,60,0
572.4232,572.6232,58,60,0
572.6232,572.82324,56,60,0
572.82324,573.02325,58,60,0
573.02325,573.22327,56,60,0
573.22327,573.41907,58,60,0
573.4232,573.7566,55,60,0
574.4232,574.6232,82,60,0
574.6232,574.82324,81,60,0
574.82324,575.02325,82,60,0
575.02325,575.22327,84,60,0
575.22327,575.4232,82,60,0
575.4232,575.6232,87,60,0
575.6232,575.82324,86,60,0
575.82324,576.02325,84,60,0
576.02325,576.22327,82,60,0
576.22327,576.4232,80,60,0
576.4232,576.6232,79,60,0
576.6232,576.95654,77,60,0
577.6232,577.82324,77,60,0
577.82324,578.02325,76,60,0
578.02325,578.22327,77,60,0
578.22327,578.4232,79,60,0
578.4232,578.6232,77,60,0
578.6232,578.82324,84,60,0
578.82324,579.02325,82,60,0
579.02325,579.22327,82,60,0
579.22327,579.4232,80,60,0
579.4232,579.6232,79,60,0
579.6232,579.82324,77,60,0
579.82324,580.15656,75,60,0
580.6232,580.7566,75,92,0
580.7566,580.88574,79,92,0
580.8899,580.9774,77,92,0
581.02325,581.1107,75,92,0
581.15656,581.2441,74,92,0
581.2899,581.3774,72,92,0
581.4232,581.7566,70,92,0
582.22327,582.35657,70,92,0
582.35657,582.4857,72,92,0
582.4899,582.5774,70,92,0
582.6232,582.71075,68,92,0
582.7566,582.84406,67,92,0
582.8899,582.9774,65,92,0
583.02325,583.35657,63,92,0
583.82324,583.95654,75,92,0
583.95654,584.08575,79,92,0
584.0899,584.1774,77,92,0
584.22327,584.3107,75,92,0
584.35657,584.4441,74,92,0
584.4899,584.5774,72,92,0
584.6232,584.95654,70,92,0
585.4232,585.5566,82,92,0
585.5566,585.6899,84,92,0
585.6899,585.82324,82,92,0
585.82324,585.95654,80,92,0
585.95654,586.0899,79,92,0
586.0899,586.21906,77,92,0
586.22327,587.21906,75,92,0
587.22327,587.2899,75,60,0
587.4232,587.4899,74,60,0
587.6232,587.6899,75,75,0
587.82324,587.9232,63,75,0
588.22327,588.7566,75,92,0
588.82324,588.8899,75,60,0
589.02325,589.0899,74,60,0
589.22327,589.2899,75,75,0
589.4232,589.52325,63,75,0
589.82324,590.35657,75,92,0
590.4232,590.4899,75,60,0
590.6232,590.6899,74,75,0
590.82324,590.8899,75,75,0
591.02325,591.0899,74,92,0
591.22327,591.2899,75,92,0
591.4232,591.4899,74,92,0
591.6232,591.6899,75,92,0
591.82324,592.02325,74,92,0
592.02325,592.22327,75,92,0
592.22327,592.4232,78,92,0
592.4232,592.6191,75,92,0
592.6232,592.82324,74,92,0
592.82324,593.02325,58,75,0
593.02325,593.22327,70,60,0
593.22327,593.41907,58,60,0
593.4232,593.6232,70,60,0
593.6232,593.82324,58,60,0
593.82324,594.02325,70,60,0
594.02325,594.21906,58,60,0
594.22327,594.4232,70,60,0
594.4232,594.6232,58,60,0
594.6232,594.82324,70,60,0
594.82324,595.01904,58,60,0
595.02325,595.22327,70,60,0
595.22327,595.4232,58,60,0
595.4232,595.6232,70,60,0
595.6232,595.8191,58,60,0
595.82324,596.02325,70,60,0
596.02325,596.22327,58,60,0
596.22327,596.4232,70,60,0
596.4232,596.6191,58,60,0
596.6232,596.82324,70,60,0
596.82324,597.02325,58,60,0
597.02325,597.22327,70,60,0
597.22327,597.41907,58,60,0
597.4232,597.6232,70,60,0
597.6232,597.82324,58,60,0
597.82324,598.01904,70,60,0
598.02325,598.21906,58,60,0
598.22327,598.4232,70,60,0
598.4232,598.6232,58,60,0
598.6232,598.82324,70,60,0
598.82324,599.01904,58,60,0
599.02325,599.22327,70,60,0
599.22327,599.4232,58,60,0
599.4232,599.6232,70,60,0
599.6232,599.8191,58,60,0
599.82324,600.02325,70,60,0
600.02325,600.22327,58,60,0
600.22327,600.4232,70,60,0
600.4232,600.6191,58,60,0
600.82324,601.02325,58,60,0
601.02325,601.22327,65,60,0
601.22327,601.41907,58,60,0
601.4232,601.6232,65,60,0
601.6232,601.82324,58,60,0
601.82324,602.02325,65,60,0
602.02325,602.21906,58,60,0
602.4232,602.6232,58,60,0
602.6232,602.82324,63,60,0
602.6232,602.82324,67,60,0
602.82324,603.02325,58,60,0
603.02325,603.22327,63,60,0
603.02325,603.22327,67,60,0
603.22327,603.4232,58,60,0
603.4232,603.6232,63,60,0
603.4232,603.6232,67,60,0
603.6232,603.8191,58,60,0
604.02325,604.21906,56,60,0
604.22327,604.41907,58,60,0
604.22327,604.41907,62,60,0
604.4232,604.6191,56,60,0
604.6232,604.8191,58,60,0
604.6232,604.8191,62,60,0
604.82324,605.01904,56,60,0
605.02325,605.21906,58,60,0
605.02325,605.21906,62,60,0
605.22327,605.41907,56,60,0
605.4232,605.7566,55,60,0
605.4232,605.7566,58,60,0
605.4232,605.7566,63,60,0
606.4232,606.6232,75,60,0
606.6232,606.82324,74,60,0
606.82324,607.01904,75,60,0
607.02325,608.01904,79,60,0
608.02325,608.22327,75,60,0
608.22327,608.4232,74,60,0
608.4232,608.6191,75,60,0
608.6232,609.6191,80,60,0
609.6232,609.82324,75,60,0
609.82324,610.02325,74,60,0
610.02325,610.21906,75,60,0
610.22327,611.21906,82,60,0
611.22327,611.4232,75,60,0
611.4232,611.6232,74,60,0
611.6232,611.8191,75,60,0
611.82324,612.8191,84,60,0
612.82324,613.02325,75,60,0
613.02325,613.22327,74,60,0
613.22327,613.41907,75,60,0
613.4232,614.41907,79,60,0
614.4232,614.6232,75,66,0
614.6232,614.82324,74,67,0
614.82324,615.01904,75,68,0
615.02325,616.01904,80,69,0
616.02325,616.22327,75,75,0
616.22327,616.4232,74,76,0
616.4232,616.6191,75,77,0
616.6232,617.6191,82,78,0
617.6232,617.82324,75,86,0
617.82324,618.02325,74,88,0
618.02325,618.21906,75,90,0
618.22327,618.42444,72,92,0
618.22327,618.42444,75,92,0
618.22327,618.42444,80,92,0
618.22327,618.42444,84,92,0
618.6342,618.84106,72,92,0
618.6342,618.84106,75,92,0
618.6342,618.84106,80,92,0
618.6342,618.84106,84,92,0
619.0567,619.2696,72,92,0
619.0567,619.2696,75,92,0
619.0567,619.2696,80,92,0
619.0567,619.2696,84,92,0
619.7814,619.8538,80,92,0
619.8538,619.9263,82,92,0
619.9263,620.6263,84,92,0
620.7263,620.8263,84,75,0
620.8263,620.9263,82,75,0
620.9263,621.0263,80,75,0
621.0263,621.1263,79,75,0
621.1263,621.2263,77,60,0
621.2263,621.3263,75,60,0
621.3263,621.4263,74,60,0
621.4263,621.52216,72,60,0
621.5263,621.7221,58,92,0
621.5263,621.7221,70,92,0
621.9263,622.1275,58,92,0
621.9263,622.1275,70,92,0
622.3373,622.5441,58,92,0
622.3373,622.5441,70,92,0
623.0415,623.1119,77,92,0
623.1119,623.1823,79,92,0
623.1823,623.8823,80,92,0
623.9823,624.08234,80,75,0
624.08234,624.1823,79,75,0
624.1823,624.28235,77,75,0
624.28235,624.3823,75,75,0
624.3823,624.4823,74,60,0
624.4823,624.58234,72,60,0
624.58234,624.6823,70,60,0
624.6823,624.77814,68,60,0
624.78235,626.28235,67,60,0
626.3823,627.8823,63,60,0
626.3823,627.8823,72,60,0
627.9823,629.4823,63,60,0
627.9823,629.4823,70,60,0
629.58234,631.08234,62,60,0
629.58234,631.08234,68,60,0
631.1823,632.6823,63,60,0
631.1823,632.6823,67,60,0
632.78235,634.28235,60,76,0
632.78235,634.28235,63,76,0
632.78235,634.28235,72,76,0
634.3823,635.8823,58,92,0
634.3823,635.8823,63,92,0
634.3823,635.8823,70,92,0
635.9823,637.4823,58,60,0
635.9823,637.4823,62,60,0
637.58234,637.91565,63,60,0
638.78235,638.849,70,60,0
638.849,638.91565,72,60,0
638.91565,638.9823,70,60,0
638.9823,639.08234,69,60,0
639.08234,639.17816,70,60,0
639.1823,639.28235,74,60,0
639.58234,639.6823,74,61,0
640.3823,640.449,74,63,0
640.449,640.5156,75,63,0
640.5156,640.58234,74,63,0
640.58234,640.6823,72,63,0
640.6823,640.77814,74,63,0
640.78235,641.1823,77,63,0
641.1823,641.5156,75,64,0
641.9823,642.049,82,66,0
642.049,642.11566,84,66,0
642.11566,642.1823,82,66,0
642.1823,642.28235,81,66,0
642.28235,642.3782,82,66,0
642.3823,642.4823,86,66,0
642.78235,642.8823,86,67,0
643.58234,643.649,86,69,0
643.649,643.71564,87,69,0
643.71564,643.78235,86,69,0
643.78235,643.8823,84,69,0
643.8823,643.97815,86,69,0
643.9823,644.3823,89,96,0
644.3823,644.71564,87,70,0
645.1823,645.24896,82,72,0
645.24896,645.3157,84,72,0
645.3157,645.3823,82,72,0
645.3823,645.4823,81,72,0
645.4823,645.5781,82,72,0
645.58234,645.6823,86,72,0
645.9823,646.08234,86,73,0
646.78235,646.849,86,75,0
646.849,646.91565,87,75,0
646.91565,646.9823,86,75,0
646.9823,647.08234,84,75,0
647.08234,647.17816,86,75,0
647.1823,647.58234,89,105,0
647.58234,647.91565,87,77,0
648.3823,648.449,86,81,0
648.449,648.5156,87,81,0
648.5156,648.58234,86,81,0
648.58234,648.6823,84,81,0
648.6823,648.77814,86,81,0
648.78235,649.1823,89,113,0
649.1823,649.5156,87,83,0
649.9823,650.049,86,89,0
650.049,650.11566,87,89,0
650.11566,650.1823,86,89,0
650.1823,650.28235,84,89,0
650.28235,650.3782,86,90,0
650.3823,650.5797,89,92,0
650.5797,650.77295,87,92,0
650.9744,651.0402,86,92,0
651.1718,651.36914,89,92,0
651.36914,651.56244,87,92,0
651.7639,651.8297,86,92,0
651.96124,652.15607,89,92,0
652.15607,652.3468,87,92,0
652.54565,652.6106,86,92,0
652.7405,652.9353,89,92,0
652.9353,653.12604,87,92,0
653.3249,653.38983,86,92,0
653.5197,653.7155,87,92,0
654.3197,654.52954,67,92,0
654.3197,654.52954,70,92,0
654.3197,654.52954,75,92,0
654.3197,654.52954,79,92,0
655.1768,655.40283,55,92,0
655.1768,655.40283,58,92,0
655.1768,655.40283,63,92,0
3.75,7.1875,39,92,0
3.75,7.1875,43,92,0
3.75,7.1875,46,92,0
3.75,7.1875,51,92,0
11.25,14.6875,31,60,0
11.25,14.6875,39,60,0
11.25,14.6875,43,60,0
15.0,16.041666,32,92,0
15.0,16.041666,39,92,0
15.0,16.041666,44,92,0
16.25,17.291666,32,92,0
16.25,17.291666,39,92,0
16.25,17.291666,44,92,0
17.5,18.541666,32,92,0
17.5,18.541666,39,92,0
17.5,18.541666,44,92,0
18.75,22.1875,34,60,0
18.75,22.1875,39,60,0
18.75,22.1875,46,60,0
22.5,23.541666,36,92,0
22.5,23.541666,39,92,0
22.5,23.541666,48,92,0
23.75,24.791666,36,75,0
23.75,24.791666,39,75,0
23.75,24.791666,48,75,0
25.0,26.041666,36,75,0
25.0,26.041666,39,75,0
25.0,26.041666,48,75,0
26.25,26.549479,35,92,0
26.25,26.549479,39,92,0
26.25,26.549479,47,92,0
26.5625,26.861979,35,92,0
26.5625,26.861979,47,92,0
26.875,27.174479,35,92,0
26.875,27.174479,47,92,0
27.1875,27.486979,35,92,0
27.1875,27.486979,47,92,0
27.5,27.8125,35,92,0
27.5,27.8125,47,92,0
27.826086,28.138586,35,92,0
27.826086,28.138586,47,92,0
28.152174,28.464674,35,92,0
28.152174,28.464674,47,92,0
28.47826,28.79076,35,92,0
28.47826,28.79076,47,92,0
28.804346,29.131052,35,92,0
28.804346,29.131052,47,92,0
29.145256,29.47196,35,92,0
29.145256,29.47196,47,92,0
29.486164,29.81287,35,92,0
29.486164,29.81287,47,92,0
29.827074,30.153778,35,92,0
29.827074,30.153778,47,92,0
30.167982,30.835596,34,92,0
30.167982,30.835596,46,92,0
32.15662,32.78162,66,60,0
32.15662,32.78162,70,60,0
32.78162,33.40662,65,60,0
32.78162,33.40662,68,60,0
33.40662,34.03162,63,60,0
33.40662,34.03162,66,60,0
34.03162,35.073284,58,60,0
34.03162,35.073284,62,60,0
35.90662,36.53162,42,60,0
35.90662,36.53162,46,60,0
35.90662,36.53162,54,60,0
36.53162,37.15662,38,60,0
36.53162,37.15662,46,60,0
36.53162,37.15662,50,60,0
37.15662,37.768597,39,60,0
37.15662,37.768597,46,60,0
37.15662,37.768597,51,60,0
37.78162,38.393597,34,60,0
37.78162,38.393597,46,60,0
39.65662,40.28162,66,60,0
39.65662,40.28162,70,60,0
40.28162,40.90662,65,60,0
40.28162,40.90662,68,60,0
40.90662,41.53162,63,60,0
40.90662,41.53162,66,60,0
41.53162,42.573284,58,60,0
41.53162,42.573284,62,60,0
43.40662,44.03162,42,60,0
43.40662,44.03162,46,60,0
43.40662,44.03162,54,60,0
44.03162,44.65662,38,60,0
44.03162,44.65662,46,60,0
44.03162,44.65662,50,60,0
44.65662,45.268597,39,60,0
44.65662,45.268597,46,60,0
44.65662,45.268597,51,60,0
45.28162,45.893597,34,60,0
45.28162,45.893597,46,60,0
46.53162,47.62537,58,60,0
46.53162,47.62537,62,60,0
47.62537,47.768597,60,75,0
47.62537,47.768597,63,75,0
47.78162,48.823284,60,92,0
47.78162,48.823284,63,92,0
49.03162,49.643597,58,60,0
49.03162,49.643597,62,60,0
49.65662,49.864952,58,60,0
49.65662,49.864952,62,60,0
49.96912,50.177452,58,65,0
49.96912,50.177452,62,65,0
50.28162,50.489952,58,70,0
50.28162,50.489952,62,70,0
50.59412,50.802452,58,75,0
50.59412,50.802452,62,75,0
50.90662,51.114952,58,80,0
50.90662,51.114952,62,80,0
51.21912,51.427452,58,86,0
51.21912,51.427452,62,86,0
51.53162,52.573284,60,92,0
51.53162,52.573284,63,92,0
52.78162,53.393597,58,60,0
52.78162,53.393597,62,60,0
53.40662,53.54334,58,60,0
53.40662,53.54334,62,60,0
53.614952,53.75167,58,63,0
53.614952,53.75167,62,63,0
53.823284,53.960003,58,66,0
53.823284,53.960003,62,66,0
54.03162,54.16834,58,69,0
54.03162,54.16834,62,69,0
54.239952,54.37667,58,72,0
54.239952,54.37667,62,72,0
54.448284,54.585003,58,76,0
54.448284,54.585003,62,76,0
54.65662,54.79334,58,80,0
54.65662,54.79334,62,80,0
54.864952,55.00167,58,84,0
54.864952,55.00167,62,84,0
55.073284,55.210003,58,88,0
55.073284,55.210003,62,88,0
55.28162,56.323284,53,92,0
55.28162,56.323284,60,92,0
55.28162,56.323284,63,92,0
56.53162,57.143597,58,60,0
56.53162,57.143597,62,60,0
57.15662,57.768597,58,60,0
57.15662,57.768597,62,60,0
58.40662,59.018597,58,60,0
58.40662,59.018597,62,60,0
59.65662,60.268597,58,60,0
59.65662,60.268597,62,60,0
60.90662,61.518597,60,60,0
60.90662,61.518597,63,60,0
62.15662,62.768597,58,60,0
62.15662,62.768597,65,60,0
63.40662,64.0186,58,60,0
63.40662,64.0186,63,60,0
64.03162,64.6436,34,60,0
64.03162,64.6436,46,60,0
64.65662,64.86495,46,60,0
64.65662,64.86495,58,60,0
64.96912,65.17745,46,60,0
64.96912,65.17745,58,60,0
65.28162,65.49901,46,60,0
65.28162,65.49901,58,60,0
65.607704,65.825096,46,64,0
65.607704,65.825096,58,64,0
65.93379,66.151184,46,68,0
65.93379,66.151184,58,68,0
66.25988,66.47727,46,72,0
66.25988,66.47727,58,72,0
66.58597,66.735115,46,76,0
66.58597,66.735115,58,76,0
66.81324,66.96239,46,78,0
66.81324,66.96239,58,78,0
67.04051,67.18966,46,80,0
67.04051,67.18966,58,80,0
67.267784,67.43185,46,83,0
67.267784,67.43185,58,83,0
67.517784,67.68619,46,86,0
67.517784,67.68619,58,86,0
67.78167,67.96397,46,89,0
67.78167,67.96397,58,89,0
68.05945,68.35242,46,92,0
68.05945,68.35242,58,92,0
68.37195,68.66492,34,92,0
68.37195,68.66492,46,92,0
68.68445,68.97742,34,75,0
68.68445,68.97742,46,75,0
68.99695,69.33177,34,75,0
68.99695,69.33177,46,75,0
69.354095,69.68891,34,60,0
69.354095,69.68891,46,60,0
69.711235,70.04606,34,75,0
69.711235,70.04606,46,75,0
70.06838,71.4036,34,92,0
70.06838,71.4036,46,92,0
73.869514,74.065346,39,60,0
73.869514,74.065346,51,60,0
74.06951,74.26535,55,60,0
74.269516,74.46535,58,60,0
74.46951,74.66535,55,60,0
74.66952,74.86535,58,60,0
74.869514,75.065346,55,60,0
75.06951,75.26535,58,60,0
75.269516,75.46535,55,60,0
75.46951,75.66535,51,60,0
75.66952,75.86535,55,60,0
75.869514,76.065346,58,60,0
76.06951,76.26535,55,60,0
76.269516,76.46535,58,60,0
76.46951,76.66535,55,60,0
76.66952,76.86535,58,60,0
76.869514,77.065346,55,60,0
77.06951,77.26535,51,60,0
77.269516,77.46535,55,60,0
77.46951,77.66535,58,60,0
77.66952,77.86535,55,60,0
77.869514,78.065346,58,60,0
78.06951,78.26535,55,60,0
78.269516,78.46535,58,60,0
78.46951,78.66535,55,60,0
78.66952,78.86535,58,60,0
78.869514,79.065346,55,64,0
79.06951,79.26535,58,68,0
79.269516,79.46535,55,72,0
79.46951,79.66535,58,76,0
79.66952,79.86535,55,80,0
79.869514,80.065346,58,84,0
80.06951,80.26535,55,88,0
80.269516,80.46535,44,92,0
80.46951,80.66535,51,75,0
80.66952,80.86535,56,60,0
80.869514,81.065346,51,60,0
81.06951,81.26535,56,60,0
81.269516,81.46535,51,60,0
81.46951,81.66535,56,60,0
81.66952,81.86535,51,60,0
81.869514,82.065346,41,60,0
82.06951,82.26535,53,64,0
82.269516,82.46535,56,68,0
82.46951,82.66535,53,72,0
82.66952,82.86535,56,76,0
82.869514,83.065346,53,80,0
83.06951,83.26535,56,84,0
83.269516,83.46535,53,88,0
83.46951,83.66535,46,92,0
83.66952,83.86535,53,75,0
83.869514,84.065346,58,60,0
84.06951,84.26535,53,60,0
84.269516,84.46535,58,60,0
84.46951,84.66535,53,60,0
84.66952,84.86535,58,60,0
84.869514,85.065346,53,60,0
85.06951,85.26535,46,60,0
85.269516,85.46535,50,64,0
85.46951,85.66535,53,68,0
85.66952,85.86535,58,72,0
85.869514,86.065346,44,76,0
86.06951,86.26535,50,80,0
86.269516,86.46535,53,84,0
86.46951,86.66535,56,88,0
86.66952,86.86535,43,92,0
86.869514,87.065346,46,92,0
87.06951,87.26535,51,92,0
87.269516,87.46535,55,92,0
87.46951,87.66535,44,75,0
87.66952,87.86535,48,75,0
87.869514,88.065346,53,75,0
88.06951,88.26535,56,75,0
88.269516,88.46535,46,60,0
88.46951,88.66535,51,60,0
88.66952,88.86535,55,60,0
88.869514,89.065346,58,60,0
89.06951,89.26535,46,60,0
89.269516,89.46535,50,60,0
89.46951,89.66535,53,75,0
89.66952,89.86535,56,75,0
89.869514,89.96951,39,92,0
90.269516,90.369514,43,75,0
90.66952,90.769516,46,60,0
91.06951,91.16952,51,60,0
91.46951,91.56951,39,92,0
91.869514,91.96951,43,75,0
92.269516,92.369514,46,60,0
92.66952,92.769516,51,60,0
93.06951,93.16952,39,92,0
93.46951,93.56951,43,75,0
93.869514,93.96951,46,60,0
94.269516,94.369514,51,60,0
94.66952,94.769516,43,60,0
95.06951,95.16952,39,68,0
95.46951,95.56951,34,76,0
95.869514,95.96951,31,84,0
96.269516,96.369514,32,92,0
96.66952,96.769516,36,75,0
97.06951,97.16952,39,60,0
97.46951,97.56951,44,60,0
97.869514,97.96951,29,60,0
98.269516,98.369514,32,68,0
98.66952,98.769516,36,76,0
99.06951,99.16952,41,84,0
99.46951,99.56951,34,92,0
99.869514,99.96951,38,75,0
100.269516,100.369514,41,60,0
100.66952,100.769516,46,60,0
101.06951,101.16952,32,60,0
101.46951,101.56951,38,68,0
101.869514,101.96951,41,76,0
102.269516,102.369514,44,84,0
102.66952,102.769516,31,92,0
103.06951,103.16952,43,75,0
103.46951,103.56951,32,60,0
103.869514,103.96951,44,60,0
104.269516,104.369514,34,60,0
104.66952,104.769516,46,68,0
105.06951,105.16952,34,76,0
105.46951,105.56951,46,84,0
105.869514,106.065346,39,92,0
106.269516,106.47071,39,92,0
106.269516,106.47071,51,92,0
106.68047,106.88734,39,92,0
106.68047,106.88734,51,92,0
109.12554,109.32137,34,92,0
109.12554,109.32137,46,92,0
109.52554,109.72674,34,92,0
109.52554,109.72674,46,92,0
109.9365,110.143364,34,92,0
109.9365,110.143364,46,92,0
112.38157,112.57741,35,92,0
112.38157,112.57741,47,92,0
112.78157,112.98277,35,92,0
112.78157,112.98277,47,92,0
113.19253,113.3994,36,92,0
113.19253,113.3994,48,92,0
115.637596,115.97093,32,60,0
115.637596,115.97093,44,60,0
116.2376,116.4376,32,60,0
116.2376,116.4376,44,60,0
116.4376,116.770935,34,60,0
116.4376,116.770935,46,60,0
117.0376,117.2376,34,60,0
117.0376,117.2376,46,60,0
117.2376,117.57093,36,60,0
117.2376,117.57093,48,60,0
117.8376,118.0376,36,60,0
117.8376,118.0376,48,60,0
118.0376,118.37093,33,60,0
118.0376,118.37093,45,60,0
118.637596,118.8376,33,92,0
118.637596,118.8376,45,92,0
118.8376,119.03343,34,92,0
118.8376,119.03343,46,92,0
119.0376,119.10426,58,60,0
119.2376,119.30427,58,60,0
119.4376,119.504265,56,60,0
119.637596,119.70427,55,60,0
119.8376,119.90427,58,60,0
120.0376,120.10426,55,60,0
120.2376,120.30427,51,60,0
120.4376,120.504265,46,60,0
120.637596,120.70427,46,60,0
120.8376,120.90427,46,60,0
121.0376,121.10426,44,60,0
121.2376,121.30427,43,60,0
121.4376,121.504265,46,60,0
121.637596,121.70427,43,60,0
121.8376,121.90427,39,60,0
122.0376,122.10426,34,60,0
122.0376,122.10426,46,60,0
122.2376,122.30427,58,60,0
122.4376,122.504265,58,60,0
122.637596,122.70427,56,60,0
122.8376,122.90427,55,60,0
123.0376,123.10426,58,60,0
123.2376,123.30427,55,60,0
123.4376,123.504265,51,60,0
123.637596,123.70427,46,60,0
123.8376,123.90427,46,64,0
124.0376,124.10426,46,68,0
124.2376,124.30427,44,72,0
124.4376,124.504265,43,76,0
124.637596,124.70427,46,80,0
124.8376,124.90427,43,84,0
125.0376,125.10426,39,88,0
125.2376,125.30609,34,92,0
125.44308,125.51157,46,92,0
125.64856,125.71898,39,92,0
125.859825,125.930244,46,92,0
126.07109,126.143555,34,92,0
126.28848,126.36095,46,92,0
126.505875,126.57941,39,92,0
126.72646,126.79999,46,92,0
126.94705,127.05734,34,92,0
127.38823,127.49852,34,92,0
127.38823,127.49852,46,92,0
127.8294,127.9397,34,92,0
127.8294,127.9397,46,92,0
128.67058,129.20392,58,60,0
128.67058,129.20392,65,60,0
129.47058,130.0039,63,60,0
129.47058,130.0039,65,60,0
130.27058,130.80391,62,60,0
130.27058,130.80391,65,60,0
131.07057,131.60391,57,60,0
131.07057,131.60391,65,60,0
131.87057,131.97058,58,60,0
131.87057,131.97058,65,60,0
132.27058,132.37057,57,60,0
132.27058,132.37057,65,60,0
132.67058,132.77058,55,60,0
132.67058,132.77058,65,60,0
133.07057,133.17058,60,60,0
133.07057,133.17058,64,60,0
133.47058,133.57057,53,60,0
133.47058,133.57057,65,60,0
135.07057,135.40392,34,60,0
135.07057,135.40392,46,60,0
135.87057,136.20392,39,60,0
135.87057,136.20392,51,60,0
136.67058,137.0039,38,60,0
136.67058,137.0039,50,60,0
137.47058,137.80391,33,60,0
137.47058,137.80391,45,60,0
138.27058,138.37057,34,60,0
138.27058,138.37057,46,60,0
138.67058,138.77058,33,60,0
138.67058,138.77058,45,60,0
139.07057,139.17058,31,60,0
139.07057,139.17058,43,60,0
139.47058,139.57057,36,60,0
139.47058,139.57057,48,60,0
139.87057,140.20392,29,60,0
139.87057,140.20392,41,60,0
141.47058,141.67058,51,60,0
141.47058,141.67058,53,60,0
141.67058,141.87057,57,60,0
141.87057,142.07057,60,60,0
142.07057,142.27058,57,60,0
142.27058,142.47058,60,60,0
142.47058,142.67058,57,60,0
142.67058,142.87057,60,60,0
142.87057,143.0664,57,60,0
143.07057,143.27058,50,60,0
143.07057,143.27058,53,60,0
143.27058,143.47058,58,60,0
143.47058,143.67058,62,75,0
143.67058,143.87057,58,75,0
143.87057,144.07057,53,92,0
144.07057,144.27058,58,92,0
144.27058,144.47058,62,75,0
144.47058,144.66641,58,75,0
144.67058,144.86641,51,60,0
144.67058,144.86641,53,60,0
144.87057,145.0664,57,60,0
145.07057,145.26642,60,60,0
145.27058,145.46642,57,60,0
145.47058,145.66641,60,60,0
145.67058,145.86641,57,60,0
145.87057,146.0664,60,60,0
146.07057,146.26642,57,60,0
146.27058,146.47058,50,60,0
146.27058,146.47058,53,60,0
146.47058,146.67058,58,60,0
146.67058,146.87057,62,75,0
146.87057,147.07057,58,75,0
147.07057,147.27058,53,92,0
147.27058,147.47058,58,92,0
147.47058,147.67058,62,75,0
147.67058,147.86641,58,75,0
147.87057,148.0664,51,60,0
147.87057,148.0664,53,60,0
148.07057,148.26642,57,60,0
148.27058,148.46642,60,60,0
148.47058,148.66641,57,60,0
148.67058,148.86641,53,60,0
148.87057,149.0664,57,60,0
149.07057,149.26642,60,60,0
149.27058,149.46642,57,60,0
149.47058,149.66641,53,60,0
149.67058,149.86641,58,60,0
149.87057,150.0664,62,60,0
150.07057,150.26642,65,60,0
150.27058,150.46642,55,60,0
150.47058,150.66641,60,60,0
150.67058,150.86641,63,60,0
150.87057,151.0664,67,60,0
151.07057,151.27058,62,60,0
151.27058,151.47058,65,60,0
151.47058,151.67058,62,60,0
151.67058,151.87057,58,60,0
151.87057,152.07057,53,60,0
152.07057,152.27058,50,60,0
152.27058,152.47058,53,60,0
152.47058,152.66641,51,60,0
152.67058,153.0039,50,60,0
154.27058,154.39975,39,60,0
154.40392,154.53308,41,60,0
154.53725,154.66641,45,60,0
154.67058,154.79974,48,60,0
154.80391,154.93307,45,60,0
154.93724,155.0664,41,60,0
155.07057,155.19974,39,60,0
155.20392,155.33308,41,60,0
155.33725,155.46642,45,60,0
155.47058,155.59975,48,60,0
155.60391,155.73308,45,60,0
155.73724,155.86641,41,60,0
155.87057,155.99974,38,60,0
156.0039,156.13307,41,60,0
156.13724,156.26642,46,60,0
156.27058,156.39975,50,60,0
156.40392,156.53308,46,60,0
156.53725,156.66641,41,60,0
156.67058,156.79974,38,60,0
156.80391,156.93307,41,60,0
156.93724,157.0664,46,60,0
157.07057,157.19974,50,60,0
157.20392,157.33308,46,60,0
157.33725,157.46642,41,60,0
157.47058,157.59975,39,60,0
157.60391,157.73308,41,60,0
157.73724,157.86641,45,60,0
157.87057,157.99974,48,60,0
158.0039,158.13307,45,60,0
158.13724,158.26642,41,60,0
158.27058,158.39975,39,60,0
158.40392,158.53308,41,60,0
158.53725,158.66641,45,60,0
158.67058,158.79974,48,60,0
158.80391,158.93307,45,60,0
158.93724,159.0664,41,60,0
159.07057,159.19974,38,60,0
159.20392,159.33308,41,60,0
159.33725,159.46642,46,60,0
159.47058,159.59975,50,60,0
159.60391,159.73308,46,60,0
159.73724,159.86641,41,60,0
159.87057,159.99974,38,60,0
160.0039,160.13307,41,60,0
160.13724,160.26642,46,60,0
160.27058,160.39975,50,60,0
160.40392,160.53308,46,60,0
160.53725,160.66641,41,60,0
160.67058,160.79974,39,60,0
160.80391,160.93307,41,60,0
160.93724,161.0664,45,60,0
161.07057,161.19974,48,60,0
161.20392,161.33308,45,60,0
161.33725,161.46642,41,60,0
161.47058,161.59975,39,60,0
161.60391,161.73308,41,60,0
161.73724,161.86641,45,60,0
161.87057,161.99974,48,60,0
162.0039,162.13307,45,60,0
162.13724,162.26642,41,60,0
162.27058,162.60391,38,60,0
162.27058,162.60391,41,60,0
162.27058,162.60391,46,60,0
162.27058,162.60391,50,60,0
163.07057,163.87057,55,60,0
163.07057,163.87057,62,60,0
163.87057,163.97058,60,60,0
163.87057,163.97058,63,60,0
164.67058,165.47058,53,60,0
164.67058,165.47058,60,60,0
165.47058,165.57057,58,60,0
165.47058,165.57057,62,60,0
166.27058,166.37057,43,60,0
166.67058,166.77058,55,60,0
166.67058,166.77058,59,60,0
167.07057,167.17058,48,60,0
167.47058,167.57057,55,60,0
167.47058,167.57057,60,60,0
167.87057,167.97058,41,60,0
168.27058,168.37057,53,60,0
168.27058,168.37057,57,60,0
168.67058,168.77058,46,60,0
169.07057,169.17058,58,60,0
169.47058,169.57057,46,60,0
169.87057,169.97058,57,60,0
169.87057,169.97058,60,60,0
170.27058,170.37057,46,60,0
170.67058,170.77058,56,60,0
170.67058,170.77058,62,60,0
171.07057,171.17058,46,60,0
171.47058,171.57057,55,60,0
171.47058,171.57057,63,60,0
171.87057,172.20392,46,60,0
171.87057,172.20392,50,60,0
171.87057,172.20392,53,60,0
171.87057,172.20392,58,60,0
173.87057,173.97058,38,60,0
173.87057,173.97058,46,60,0
174.27058,174.37057,38,75,0
174.27058,174.37057,46,75,0
174.67058,174.77058,38,75,0
174.67058,174.77058,46,75,0
175.07057,175.40392,39,92,0
175.07057,175.40392,46,92,0
177.87057,178.27058,40,92,0
177.87057,178.27058,52,92,0
178.27058,178.46642,41,60,0
178.27058,178.46642,53,60,0
178.47058,178.53725,41,60,0
178.67058,178.73724,46,60,0
178.87057,178.93724,50,62,0
179.07057,179.13724,53,64,0
179.27058,179.33725,53,66,0
179.47058,179.53725,58,68,0
179.67058,179.73724,62,70,0
179.87057,180.20392,65,72,0
180.27058,180.60391,29,77,0
180.27058,180.60391,41,77,0
180.67058,181.0039,29,82,0
180.67058,181.0039,41,82,0
181.07057,181.40392,29,87,0
181.07057,181.40392,41,87,0
181.47058,181.80391,34,92,0
181.47058,181.80391,46,92,0
182.27058,182.37057,67,60,0
182.67058,182.77058,67,60,0
183.07057,183.60391,67,60,0
183.67058,183.73724,65,60,0
183.87057,183.97058,63,60,0
184.27058,184.37057,62,60,0
184.67058,184.77058,60,60,0
185.47058,185.57057,65,60,0
185.87057,185.97058,65,58,0
186.27058,186.80391,65,56,0
186.87057,186.93724,63,52,0
187.07057,187.17058,62,51,0
187.47058,187.57057,60,48,0
187.87057,187.97058,58,45,0
188.67058,188.77058,46,92,0
188.67058,188.77058,58,92,0
189.07057,189.17058,46,92,0
189.07057,189.17058,58,92,0
189.47058,190.0039,46,92,0
189.47058,190.0039,58,92,0
190.07057,190.13724,44,92,0
190.07057,190.13724,56,92,0
190.27058,190.37057,43,92,0
190.27058,190.37057,55,92,0
190.67058,190.77058,41,92,0
190.67058,190.77058,53,92,0
191.07057,191.26642,39,92,0
191.07057,191.26642,51,92,0
191.87057,191.97058,52,60,0
191.87057,191.97058,58,60,0
191.87057,191.97058,60,60,0
192.67058,192.77058,53,60,0
192.67058,192.77058,58,60,0
192.67058,192.77058,62,60,0
193.47058,193.57057,54,53,0
193.47058,193.57057,60,53,0
193.47058,193.57057,63,53,0
194.27058,194.37057,55,45,0
194.27058,194.37057,58,45,0
194.27058,194.37057,62,45,0
195.07057,195.17058,43,92,0
195.07057,195.17058,55,92,0
195.47058,195.57057,43,92,0
195.47058,195.57057,55,92,0
195.87057,196.40392,43,92,0
195.87057,196.40392,55,92,0
196.47058,196.53725,41,92,0
196.47058,196.53725,53,92,0
196.67058,196.77058,39,92,0
196.67058,196.77058,51,92,0
197.07057,197.17058,38,92,0
197.07057,197.17058,50,92,0
197.47058,197.57057,36,92,0
197.47058,197.57057,48,92,0
198.27058,198.60391,39,60,0
198.27058,198.60391,43,60,0
198.27058,198.60391,48,60,0
198.27058,198.60391,51,60,0
199.07057,199.40392,41,60,0
199.07057,199.40392,46,60,0
199.07057,199.40392,50,60,0
199.07057,199.40392,53,60,0
199.87057,200.20392,41,60,0
199.87057,200.20392,48,60,0
199.87057,200.20392,51,60,0
199.87057,200.20392,53,60,0
200.67058,201.0039,34,60,0
200.67058,201.0039,46,60,0
201.07057,201.40392,34,60,0
201.07057,201.40392,46,60,0
201.47058,201.80391,34,60,0
201.47058,201.80391,46,60,0
201.87057,202.20392,34,60,0
201.87057,202.20392,46,60,0
202.27058,202.60391,34,60,0
202.27058,202.60391,46,60,0
202.67058,203.0039,34,60,0
202.67058,203.0039,46,60,0
203.07057,203.40392,34,60,0
203.07057,203.40392,46,60,0
203.47058,203.80391,34,60,0
203.47058,203.80391,46,60,0
203.87057,204.20392,34,60,0
203.87057,204.20392,46,60,0
204.27058,204.60391,34,60,0
204.27058,204.60391,46,60,0
204.67058,205.0039,34,60,0
204.67058,205.0039,46,60,0
205.07057,205.40392,34,60,0
205.07057,205.40392,46,60,0
205.47058,205.80391,34,60,0
205.47058,205.80391,46,60,0
205.87057,206.20392,34,60,0
205.87057,206.20392,46,60,0
206.27058,206.60391,34,60,0
206.27058,206.60391,46,60,0
206.67058,207.0039,34,60,0
206.67058,207.0039,46,60,0
207.07057,207.26642,34,60,0
207.07057,207.26642,46,60,0
207.27058,207.47058,53,60,0
207.47058,207.67058,46,60,0
207.47058,207.67058,50,60,0
207.67058,207.87057,53,60,0
207.87057,208.07057,46,60,0
207.87057,208.07057,50,60,0
208.07057,208.27058,53,60,0
208.27058,208.47058,46,60,0
208.27058,208.47058,50,60,0
208.47058,208.66641,53,60,0
208.67058,208.87057,46,60,0
208.67058,208.87057,50,60,0
208.87057,209.07057,53,60,0
209.07057,209.27058,46,60,0
209.07057,209.27058,50,60,0
209.27058,209.47058,53,60,0
209.47058,209.67058,46,60,0
209.47058,209.67058,50,60,0
209.67058,209.87057,53,60,0
209.87057,210.07057,46,60,0
209.87057,210.07057,50,60,0
210.07057,210.26642,53,60,0
210.27058,210.47058,46,60,0
210.27058,210.47058,48,60,0
210.27058,210.47058,51,60,0
210.47058,210.67058,53,60,0
210.67058,210.87057,46,60,0
210.67058,210.87057,48,60,0
210.67058,210.87057,51,60,0
210.87057,211.07057,53,60,0
211.07057,211.27058,46,60,0
211.07057,211.27058,48,60,0
211.07057,211.27058,51,60,0
211.27058,211.47058,53,60,0
211.47058,211.67058,46,60,0
211.47058,211.67058,48,60,0
211.47058,211.67058,51,60,0
211.67058,211.86641,53,60,0
211.87057,212.0664,46,60,0
211.87057,212.0664,48,60,0
211.87057,212.0664,51,60,0
212.07057,212.26642,53,60,0
212.27058,212.46642,46,60,0
212.27058,212.46642,48,60,0
212.27058,212.46642,51,60,0
212.47058,212.66641,53,60,0
212.67058,212.86641,46,60,0
212.67058,212.86641,48,60,0
212.67058,212.86641,51,60,0
212.87057,213.0664,53,60,0
213.07057,213.26642,46,60,0
213.07057,213.26642,48,60,0
213.07057,213.26642,51,60,0
213.27058,213.46642,53,60,0
213.47058,213.80391,46,60,0
213.47058,213.80391,50,60,0
213.47058,213.80391,53,60,0
213.87057,213.97058,46,92,0
213.87057,213.97058,58,92,0
215.47058,215.57057,41,92,0
215.47058,215.57057,53,92,0
217.07057,217.17058,34,92,0
217.07057,217.17058,46,92,0
218.68153,218.78427,29,92,0
218.68153,218.78427,41,92,0
219.0925,219.22948,65,92,0
219.22948,219.36218,67,92,0
219.36647,219.45636,65,92,0
219.50345,219.59335,63,92,0
219.64044,219.73033,62,92,0
219.77742,219.86732,60,92,0
219.91441,220.12128,58,92,0
220.75948,220.97234,41,92,0
220.75948,220.97234,53,92,0
221.62904,222.00218,34,92,0
221.62904,222.00218,46,92,0
223.34845,223.54428,39,60,0
223.34845,223.54428,51,60,0
223.54845,223.74428,55,60,0
223.74844,223.94427,58,60,0
223.94844,224.14429,55,60,0
224.14845,224.34428,58,60,0
224.34845,224.54428,55,60,0
224.54845,224.74428,58,60,0
224.74844,224.94427,55,60,0
224.94844,225.14429,51,60,0
225.14845,225.34428,55,60,0
225.34845,225.54428,58,60,0
225.54845,225.74428,55,60,0
225.74844,225.94427,58,60,0
225.94844,226.14429,55,60,0
226.14845,226.34428,58,60,0
226.34845,226.54428,55,60,0
226.54845,226.74428,51,60,0
226.74844,226.94427,55,60,0
226.94844,227.14429,58,60,0
227.14845,227.34428,55,60,0
227.34845,227.54428,58,60,0
227.54845,227.74428,55,60,0
227.74844,227.94427,58,60,0
227.94844,228.14429,55,60,0
228.14845,228.34428,58,60,0
228.34845,228.54428,55,64,0
228.54845,228.74428,58,68,0
228.74844,228.94427,55,72,0
228.94844,229.14429,58,76,0
229.14845,229.34428,55,80,0
229.34845,229.54428,58,84,0
229.54845,229.74428,55,88,0
229.74844,229.94427,44,92,0
229.94844,230.14429,51,75,0
230.14845,230.34428,56,60,0
230.34845,230.54428,51,60,0
230.54845,230.74428,56,60,0
230.74844,230.94427,51,60,0
230.94844,231.14429,56,60,0
231.14845,231.34428,51,60,0
231.34845,231.54428,41,60,0
231.54845,231.74428,53,64,0
231.74844,231.94427,56,68,0
231.94844,232.14429,53,72,0
232.14845,232.34428,56,76,0
232.34845,232.54428,53,80,0
232.54845,232.74428,56,84,0
232.74844,232.94427,53,88,0
232.94844,233.14429,46,92,0
233.14845,233.34428,53,75,0
233.34845,233.54428,58,60,0
233.54845,233.74428,53,60,0
233.74844,233.94427,58,60,0
233.94844,234.14429,53,60,0
234.14845,234.34428,58,60,0
234.34845,234.54428,53,60,0
234.54845,234.74428,46,60,0
234.74844,234.94427,50,64,0
234.94844,235.14429,53,68,0
235.14845,235.34428,58,72,0
235.34845,235.54428,44,76,0
235.54845,235.74428,50,80,0
235.74844,235.94427,53,84,0
235.94844,236.14429,56,88,0
236.14845,236.34428,43,92,0
236.34845,236.54428,46,92,0
236.54845,236.74428,51,92,0
236.74844,236.94427,55,92,0
236.94844,237.14429,44,75,0
237.14845,237.34428,48,75,0
237.34845,237.54428,53,75,0
237.54845,237.74428,56,75,0
237.74844,237.94427,46,60,0
237.94844,238.14429,51,60,0
238.14845,238.34428,55,60,0
238.34845,238.54428,58,60,0
238.54845,238.74428,46,60,0
238.74844,238.94427,50,60,0
238.94844,239.14429,53,75,0
239.14845,239.34428,56,75,0
239.34845,239.44844,39,92,0
239.74844,239.84845,43,75,0
240.14845,240.24844,46,60,0
240.54845,240.64845,51,60,0
240.94844,241.04845,39,92,0
241.34845,241.44844,43,75,0
241.74844,241.84845,46,60,0
242.14845,242.24844,51,60,0
242.54845,242.64845,39,92,0
242.94844,243.04845,43,75,0
243.34845,243.44844,46,60,0
243.74844,243.84845,51,60,0
244.14845,244.24844,43,60,0
244.54845,244.64845,39,68,0
244.94844,245.04845,34,76,0
245.34845,245.44844,31,84,0
245.74844,245.84845,32,92,0
246.14845,246.24844,36,75,0
246.54845,246.64845,39,60,0
246.94844,247.04845,44,60,0
247.34845,247.44844,29,60,0
247.74844,247.84845,32,68,0
248.14845,248.24844,36,76,0
248.54845,248.64845,41,84,0
248.94844,249.04845,34,92,0
249.34845,249.44844,38,75,0
249.74844,249.84845,41,60,0
250.14845,250.24844,46,60,0
250.54845,250.64845,32,60,0
250.94844,251.04845,38,68,0
251.34845,251.44844,41,76,0
251.74844,251.84845,44,84,0
252.14845,252.24844,31,92,0
252.54845,252.64845,43,75,0
252.94844,253.04845,32,60,0
253.34845,253.44844,44,60,0
253.74844,253.84845,34,60,0
254.14845,254.24844,46,68,0
254.54845,254.64845,34,76,0
254.94844,255.04845,46,84,0
255.34845,255.54428,39,92,0
255.74844,255.94965,39,92,0
255.74844,255.94965,51,92,0
256.1594,256.36627,39,92,0
256.1594,256.36627,51,92,0
258.60446,258.8003,34,92,0
258.60446,258.8003,46,92,0
259.0045,259.20566,34,92,0
259.0045,259.20566,46,92,0
259.41544,259.62228,34,92,0
259.41544,259.62228,46,92,0
261.8605,262.05634,35,92,0
261.8605,262.05634,47,92,0
262.2605,262.4617,35,92,0
262.2605,262.4617,47,92,0
262.67145,262.87833,36,92,0
262.67145,262.87833,48,92,0
265.11652,265.44986,32,60,0
265.11652,265.44986,44,60,0
265.71652,265.91653,32,60,0
265.71652,265.91653,44,60,0
265.91653,266.24988,34,60,0
265.91653,266.24988,46,60,0
266.51654,266.71652,34,60,0
266.51654,266.71652,46,60,0
266.71652,267.04987,36,60,0
266.71652,267.04987,48,60,0
267.31653,267.51654,36,60,0
267.31653,267.51654,48,60,0
267.51654,267.84985,33,60,0
267.51654,267.84985,45,60,0
268.11652,268.31653,33,92,0
268.11652,268.31653,45,92,0
268.31653,268.51236,34,92,0
268.31653,268.51236,46,92,0
268.51654,268.5832,58,60,0
268.71652,268.7832,58,60,0
268.91653,268.9832,56,60,0
269.11652,269.1832,55,60,0
269.31653,269.3832,58,60,0
269.51654,269.5832,55,60,0
269.71652,269.7832,51,60,0
269.91653,269.9832,46,60,0
270.11652,270.1832,46,60,0
270.31653,270.3832,46,60,0
270.51654,270.5832,44,60,0
270.71652,270.7832,43,60,0
270.91653,270.9832,46,60,0
271.11652,271.1832,43,60,0
271.31653,271.3832,39,60,0
271.51654,271.5832,34,60,0
271.51654,271.5832,46,60,0
271.71652,271.7832,58,60,0
271.91653,271.9832,58,60,0
272.11652,272.1832,56,60,0
272.31653,272.3832,55,60,0
272.51654,272.5832,58,60,0
272.71652,272.7832,55,60,0
272.91653,272.9832,51,60,0
273.11652,273.1832,46,60,0
273.31653,273.3832,46,64,0
273.51654,273.5832,46,68,0
273.71652,273.7832,44,72,0
273.91653,273.9832,43,76,0
274.11652,274.1832,46,80,0
274.31653,274.3832,43,84,0
274.51654,274.5832,39,88,0
274.71652,274.78503,34,92,0
274.922,274.9905,46,92,0
275.1275,275.1979,39,92,0
275.33875,275.40918,46,92,0
275.55002,275.6225,34,92,0
275.76743,275.83987,46,92,0
275.9848,276.05835,39,92,0
276.20538,276.27893,46,92,0
276.426,276.5363,34,92,0
276.86716,276.97745,34,92,0
276.86716,276.97745,46,92,0
277.30832,277.41864,34,92,0
277.30832,277.41864,46,92,0
278.1495,278.68283,58,60,0
278.1495,278.68283,65,60,0
278.94952,279.48285,63,60,0
278.94952,279.48285,65,60,0
279.7495,280.28284,62,60,0
279.7495,280.28284,65,60,0
280.5495,281.08286,57,60,0
280.5495,281.08286,65,60,0
281.34952,281.44952,58,60,0
281.34952,281.44952,65,60,0
281.7495,281.84952,57,60,0
281.7495,281.84952,65,60,0
282.1495,282.2495,55,60,0
282.1495,282.2495,65,60,0
282.5495,282.6495,60,60,0
282.5495,282.6495,64,60,0
282.94952,283.0495,53,60,0
282.94952,283.0495,65,60,0
284.5495,284.88284,34,60,0
284.5495,284.88284,46,60,0
285.34952,285.68283,39,60,0
285.34952,285.68283,51,60,0
286.1495,286.48285,38,60,0
286.1495,286.48285,50,60,0
286.94952,287.28284,33,60,0
286.94952,287.28284,45,60,0
287.7495,287.84952,34,60,0
287.7495,287.84952,46,60,0
288.1495,288.2495,33,60,0
288.1495,288.2495,45,60,0
288.5495,288.6495,31,60,0
288.5495,288.6495,43,60,0
288.94952,289.0495,36,60,0
288.94952,289.0495,48,60,0
289.34952,289.68283,29,60,0
289.34952,289.68283,41,60,0
290.94952,291.1495,51,60,0
290.94952,291.1495,53,60,0
291.1495,291.34952,57,60,0
291.34952,291.5495,60,60,0
291.5495,291.7495,57,60,0
291.7495,291.94952,60,60,0
291.94952,292.1495,57,60,0
292.1495,292.34952,60,60,0
292.34952,292.54535,57,60,0
292.5495,292.7495,50,60,0
292.5495,292.7495,53,60,0
292.7495,292.94952,58,60,0
292.94952,293.1495,62,75,0
293.1495,293.34952,58,75,0
293.34952,293.5495,53,92,0
293.5495,293.7495,58,92,0
293.7495,293.94952,62,75,0
293.94952,294.14536,58,75,0
294.1495,294.34534,51,60,0
294.1495,294.34534,53,60,0
294.34952,294.54535,57,60,0
294.5495,294.74533,60,60,0
294.7495,294.94534,57,60,0
294.94952,295.14536,60,60,0
295.1495,295.34534,57,60,0
295.34952,295.54535,60,60,0
295.5495,295.74533,57,60,0
295.7495,295.94952,50,60,0
295.7495,295.94952,53,60,0
295.94952,296.1495,58,60,0
296.1495,296.34952,62,75,0
296.34952,296.5495,58,75,0
296.5495,296.7495,53,92,0
296.7495,296.94952,58,92,0
296.94952,297.1495,62,75,0
297.1495,297.34534,58,75,0
297.34952,297.54535,51,60,0
297.34952,297.54535,53,60,0
297.5495,297.74533,57,60,0
297.7495,297.94534,60,60,0
297.94952,298.14536,57,60,0
298.1495,298.34534,53,60,0
298.34952,298.54535,57,60,0
298.5495,298.74533,60,60,0
298.7495,298.94534,57,60,0
298.94952,299.14536,53,60,0
299.1495,299.34534,58,60,0
299.34952,299.54535,62,60,0
299.5495,299.74533,65,60,0
299.7495,299.94534,55,60,0
299.94952,300.14536,60,60,0
300.1495,300.34534,63,60,0
300.34952,300.54535,67,60,0
300.5495,300.7495,62,60,0
300.7495,300.94952,65,60,0
300.94952,301.1495,62,60,0
301.1495,301.34952,58,60,0
301.34952,301.5495,53,60,0
301.5495,301.7495,50,60,0
301.7495,301.94952,53,60,0
301.94952,302.14536,51,60,0
302.1495,302.48285,50,60,0
303.7495,303.87866,39,60,0
303.88284,304.01202,41,60,0
304.01617,304.14536,45,60,0
304.1495,304.2787,48,60,0
304.28284,304.41202,45,60,0
304.41617,304.54535,41,60,0
304.5495,304.67868,39,60,0
304.68283,304.812,41,60,0
304.81616,304.94534,45,60,0
304.94952,305.07867,48,60,0
305.08286,305.212,45,60,0
305.2162,305.34534,41,60,0
305.34952,305.47867,38,60,0
305.48285,305.612,41,60,0
305.61618,305.74533,46,60,0
305.7495,305.87866,50,60,0
305.88284,306.01202,46,60,0
306.01617,306.14536,41,60,0
306.1495,306.2787,38,60,0
306.28284,306.41202,41,60,0
306.41617,306.54535,46,60,0
306.5495,306.67868,50,60,0
306.68283,306.812,46,60,0
306.81616,306.94534,41,60,0
306.94952,307.07867,39,60,0
307.08286,307.212,41,60,0
307.2162,307.34534,45,60,0
307.34952,307.47867,48,60,0
307.48285,307.612,45,60,0
307.61618,307.74533,41,60,0
307.7495,307.87866,39,60,0
307.88284,308.01202,41,60,0
308.01617,308.14536,45,60,0
308.1495,308.2787,48,60,0
308.28284,308.41202,45,60,0
308.41617,308.54535,41,60,0
308.5495,308.67868,38,60,0
308.68283,308.812,41,60,0
308.81616,308.94534,46,60,0
308.94952,309.07867,50,60,0
309.08286,309.212,46,60,0
309.2162,309.34534,41,60,0
309.34952,309.47867,38,60,0
309.48285,309.612,41,60,0
309.61618,309.74533,46,60,0
309.7495,309.87866,50,60,0
309.88284,310.01202,46,60,0
310.01617,310.14536,41,60,0
310.1495,310.2787,39,60,0
310.28284,310.41202,41,60,0
310.41617,310.54535,45,60,0
310.5495,310.67868,48,60,0
310.68283,310.812,45,60,0
310.81616,310.94534,41,60,0
310.94952,311.07867,39,60,0
311.08286,311.212,41,60,0
311.2162,311.34534,45,60,0
311.34952,311.47867,48,60,0
311.48285,311.612,45,60,0
311.61618,311.74533,41,60,0
311.7495,312.08286,38,60,0
311.7495,312.08286,41,60,0
311.7495,312.08286,46,60,0
311.7495,312.08286,50,60,0
312.5495,313.34952,55,60,0
312.5495,313.34952,62,60,0
313.34952,313.44952,60,60,0
313.34952,313.44952,63,60,0
314.1495,314.94952,53,60,0
314.1495,314.94952,60,60,0
314.94952,315.0495,58,60,0
314.94952,315.0495,62,60,0
315.7495,315.84952,43,60,0
316.1495,316.2495,55,60,0
316.1495,316.2495,59,60,0
316.5495,316.6495,48,60,0
316.94952,317.0495,55,60,0
316.94952,317.0495,60,60,0
317.34952,317.44952,41,60,0
317.7495,317.84952,53,60,0
317.7495,317.84952,57,60,0
318.1495,318.2495,46,60,0
318.5495,318.6495,58,60,0
318.94952,319.0495,46,60,0
319.34952,319.44952,57,60,0
319.34952,319.44952,60,60,0
319.7495,319.84952,46,60,0
320.1495,320.2495,56,60,0
320.1495,320.2495,62,60,0
320.5495,320.6495,46,60,0
320.94952,321.0495,55,60,0
320.94952,321.0495,63,60,0
321.34952,321.68283,46,60,0
321.34952,321.68283,50,60,0
321.34952,321.68283,53,60,0
321.34952,321.68283,58,60,0
323.34952,323.44952,38,60,0
323.34952,323.44952,46,60,0
323.7495,323.84952,38,75,0
323.7495,323.84952,46,75,0
324.1495,324.2495,38,75,0
324.1495,324.2495,46,75,0
324.5495,324.88284,39,92,0
324.5495,324.88284,46,92,0
327.34952,327.7495,40,92,0
327.34952,327.7495,52,92,0
327.7495,327.94534,41,60,0
327.7495,327.94534,53,60,0
327.94952,328.01617,41,60,0
328.1495,328.2162,46,60,0
328.34952,328.41617,50,62,0
328.5495,328.61618,53,64,0
328.7495,328.81616,53,66,0
328.94952,329.01617,58,68,0
329.1495,329.2162,62,70,0
329.34952,329.68283,65,72,0
329.7495,330.08286,29,77,0
329.7495,330.08286,41,77,0
330.1495,330.48285,29,82,0
330.1495,330.48285,41,82,0
330.5495,330.88284,29,87,0
330.5495,330.88284,41,87,0
330.94952,331.28284,34,92,0
330.94952,331.28284,46,92,0
331.7495,331.84952,67,60,0
332.1495,332.2495,67,60,0
332.5495,333.08286,67,60,0
333.1495,333.2162,65,60,0
333.34952,333.44952,63,60,0
333.7495,333.84952,62,60,0
334.1495,334.2495,60,60,0
334.94952,335.0495,65,60,0
335.34952,335.44952,65,58,0
335.7495,336.28284,65,56,0
336.34952,336.41617,63,52,0
336.5495,336.6495,62,51,0
336.94952,337.0495,60,48,0
337.34952,337.44952,58,45,0
338.1495,338.2495,46,92,0
338.1495,338.2495,58,92,0
338.5495,338.6495,46,92,0
338.5495,338.6495,58,92,0
338.94952,339.48285,46,92,0
338.94952,339.48285,58,92,0
339.5495,339.61618,44,92,0
339.5495,339.61618,56,92,0
339.7495,339.84952,43,92,0
339.7495,339.84952,55,92,0
340.1495,340.2495,41,92,0
340.1495,340.2495,53,92,0
340.5495,340.74533,39,92,0
340.5495,340.74533,51,92,0
341.34952,341.44952,52,60,0
341.34952,341.44952,58,60,0
341.34952,341.44952,60,60,0
342.1495,342.2495,53,60,0
342.1495,342.2495,58,60,0
342.1495,342.2495,62,60,0
342.94952,343.0495,54,53,0
342.94952,343.0495,60,53,0
342.94952,343.0495,63,53,0
343.7495,343.84952,55,45,0
343.7495,343.84952,58,45,0
343.7495,343.84952,62,45,0
344.5495,344.6495,43,92,0
344.5495,344.6495,55,92,0
344.94952,345.0495,43,92,0
344.94952,345.0495,55,92,0
345.34952,345.88284,43,92,0
345.34952,345.88284,55,92,0
345.94952,346.01617,41,92,0
345.94952,346.01617,53,92,0
346.1495,346.2495,39,92,0
346.1495,346.2495,51,92,0
346.5495,346.6495,38,92,0
346.5495,346.6495,50,92,0
346.94952,347.0495,36,92,0
346.94952,347.0495,48,92,0
347.7495,348.08286,39,60,0
347.7495,348.08286,43,60,0
347.7495,348.08286,48,60,0
347.7495,348.08286,51,60,0
348.5495,348.88284,41,60,0
348.5495,348.88284,46,60,0
348.5495,348.88284,50,60,0
348.5495,348.88284,53,60,0
349.34952,349.68283,41,60,0
349.34952,349.68283,48,60,0
349.34952,349.68283,51,60,0
349.34952,349.68283,53,60,0
350.1495,350.48285,34,60,0
350.1495,350.48285,46,60,0
350.5495,350.88284,34,60,0
350.5495,350.88284,46,60,0
350.94952,351.28284,34,60,0
350.94952,351.28284,46,60,0
351.34952,351.68283,34,60,0
351.34952,351.68283,46,60,0
351.7495,352.08286,34,60,0
351.7495,352.08286,46,60,0
352.1495,352.48285,34,60,0
352.1495,352.48285,46,60,0
352.5495,352.88284,34,60,0
352.5495,352.88284,46,60,0
352.94952,353.28284,34,60,0
352.94952,353.28284,46,60,0
353.34952,353.68283,34,60,0
353.34952,353.68283,46,60,0
353.7495,354.08286,34,60,0
353.7495,354.08286,46,60,0
354.1495,354.48285,34,60,0
354.1495,354.48285,46,60,0
354.5495,354.88284,34,60,0
354.5495,354.88284,46,60,0
354.94952,355.28284,34,60,0
354.94952,355.28284,46,60,0
355.34952,355.68283,34,60,0
355.34952,355.68283,46,60,0
355.7495,356.08286,34,60,0
355.7495,356.08286,46,60,0
356.1495,356.48285,34,60,0
356.1495,356.48285,46,60,0
356.5495,356.74533,34,60,0
356.5495,356.74533,46,60,0
356.7495,356.94952,53,60,0
356.94952,357.1495,46,60,0
356.94952,357.1495,50,60,0
357.1495,357.34952,53,60,0
357.34952,357.5495,46,60,0
357.34952,357.5495,50,60,0
357.5495,357.7495,53,60,0
357.7495,357.94952,46,60,0
357.7495,357.94952,50,60,0
357.94952,358.14536,53,60,0
358.1495,358.34952,46,60,0
358.1495,358.34952,50,60,0
358.34952,358.5495,53,60,0
358.5495,358.7495,46,60,0
358.5495,358.7495,50,60,0
358.7495,358.94952,53,60,0
358.94952,359.1495,46,60,0
358.94952,359.1495,50,60,0
359.1495,359.34952,53,60,0
359.34952,359.5495,46,60,0
359.34952,359.5495,50,60,0
359.5495,359.74533,53,60,0
359.7495,359.94952,46,60,0
359.7495,359.94952,48,60,0
359.7495,359.94952,51,60,0
359.94952,360.1495,53,60,0
360.1495,360.34952,46,60,0
360.1495,360.34952,48,60,0
360.1495,360.34952,51,60,0
360.34952,360.5495,53,60,0
360.5495,360.7495,46,60,0
360.5495,360.7495,48,60,0
360.5495,360.7495,51,60,0
360.7495,360.94952,53,60,0
360.94952,361.1495,46,60,0
360.94952,361.1495,48,60,0
360.94952,361.1495,51,60,0
361.1495,361.34534,53,60,0
361.34952,361.54535,46,60,0
361.34952,361.54535,48,60,0
361.34952,361.54535,51,60,0
361.5495,361.74533,53,60,0
361.7495,361.94534,46,60,0
361.7495,361.94534,48,60,0
361.7495,361.94534,51,60,0
361.94952,362.14536,53,60,0
362.1495,362.34534,46,60,0
362.1495,362.34534,48,60,0
362.1495,362.34534,51,60,0
362.34952,362.54535,53,60,0
362.5495,362.74533,46,60,0
362.5495,362.74533,48,60,0
362.5495,362.74533,51,60,0
362.7495,362.94534,53,60,0
362.94952,363.28284,46,60,0
362.94952,363.28284,50,60,0
362.94952,363.28284,53,60,0
363.34952,363.44952,46,92,0
363.34952,363.44952,58,92,0
364.94952,365.0495,41,92,0
364.94952,365.0495,53,92,0
366.5495,366.6495,34,92,0
366.5495,366.6495,46,92,0
368.16046,368.2632,29,92,0
368.16046,368.2632,41,92,0
368.5714,368.7084,65,92,0
368.7084,368.84113,67,92,0
368.8454,368.9353,65,92,0
368.9824,369.07227,63,92,0
369.11935,369.20926,62,92,0
369.25635,369.34625,60,92,0
369.39334,369.60022,58,92,0
370.2384,370.45126,41,92,0
370.2384,370.45126,53,92,0
371.10797,371.4811,34,92,0
371.10797,371.4811,46,92,0
372.2274,372.29404,34,92,0
372.2274,372.29404,46,92,0
372.42737,372.49405,33,75,0
372.42737,372.49405,45,75,0
372.62738,372.69403,34,75,0
372.62738,372.69403,46,75,0
372.8274,373.8232,38,105,0
372.8274,373.8232,50,105,0
373.8274,373.89404,38,92,0
373.8274,373.89404,50,92,0
374.02737,374.09406,37,75,0
374.02737,374.09406,49,75,0
374.2274,374.29404,38,75,0
374.2274,374.29404,50,75,0
374.42737,375.42322,41,105,0
374.42737,375.42322,53,105,0
375.42737,375.49405,41,92,0
375.42737,375.49405,53,92,0
375.62738,375.69403,40,75,0
375.62738,375.69403,52,75,0
375.8274,375.89404,41,75,0
375.8274,375.89404,53,75,0
376.02737,377.12738,44,105,0
376.02737,377.12738,56,105,0
377.2274,377.3274,41,75,0
377.2274,377.3274,53,75,0
377.62738,377.7274,38,75,0
377.62738,377.7274,50,75,0
378.02737,378.12738,35,75,0
378.02737,378.12738,47,75,0
378.42737,378.52737,36,75,0
378.42737,378.52737,48,75,0
378.8274,378.92737,30,75,0
378.8274,378.92737,42,75,0
379.2274,379.5607,31,60,0
379.2274,379.5607,43,60,0
380.02737,380.36072,43,60,0
380.8274,381.1607,39,60,0
381.62738,381.96072,36,60,0
382.42737,382.7607,41,60,0
383.2274,383.5607,44,60,0
384.02737,384.36072,43,60,0
384.8274,385.1607,31,60,0
385.62738,385.96072,36,60,0
386.42737,386.7607,36,60,0
386.42737,386.7607,48,60,0
387.2274,387.5607,32,60,0
387.2274,387.5607,44,60,0
388.02737,388.36072,32,60,0
388.02737,388.36072,44,60,0
388.8274,389.1607,37,60,0
388.8274,389.1607,49,60,0
389.62738,389.96072,41,60,0
389.62738,389.96072,53,60,0
390.42737,390.7607,39,60,0
390.42737,390.7607,51,60,0
391.2274,391.5607,39,60,0
392.02737,392.2232,32,60,0
392.02737,392.2232,44,60,0
392.2274,392.42322,51,60,0
392.42737,392.6232,56,60,0
392.62738,392.8232,51,60,0
392.8274,393.02322,56,60,0
393.02737,393.2232,51,60,0
393.2274,393.42322,56,60,0
393.42737,393.6232,51,60,0
393.62738,393.8232,56,60,0
393.8274,394.02322,51,60,0
394.02737,394.2232,56,60,0
394.2274,394.42322,51,60,0
394.42737,394.6232,56,60,0
394.62738,394.8232,51,60,0
394.8274,395.02322,56,60,0
395.02737,395.2232,51,60,0
395.2274,395.42322,58,60,0
395.42737,395.6232,51,60,0
395.62738,395.8232,58,60,0
395.8274,396.02322,51,60,0
396.02737,396.2232,58,60,0
396.2274,396.42322,51,60,0
396.42737,396.6232,58,60,0
396.62738,396.8232,51,60,0
396.8274,397.02322,58,60,0
397.02737,397.2232,51,60,0
397.2274,397.42322,58,60,0
397.42737,397.6232,51,60,0
397.62738,397.8232,58,60,0
397.8274,398.02322,51,60,0
398.02737,398.2232,58,60,0
398.2274,398.42322,51,60,0
398.42737,398.7607,32,60,0
398.42737,398.7607,44,60,0
399.2274,399.5607,32,60,0
399.2274,399.5607,44,60,0
400.02737,400.36072,29,60,0
400.02737,400.36072,41,60,0
400.8274,401.1607,29,60,0
400.8274,401.1607,41,60,0
401.62738,401.96072,34,60,0
401.62738,401.96072,46,60,0
402.42737,402.7607,37,60,0
402.42737,402.7607,49,60,0
403.2274,403.5607,36,60,0
403.2274,403.5607,48,60,0
404.02737,404.36072,36,60,0
404.8274,404.92737,29,60,0
404.8274,404.92737,41,60,0
405.2274,405.3274,29,60,0
405.2274,405.3274,41,60,0
405.62738,405.7274,29,60,0
405.62738,405.7274,41,60,0
408.02737,408.12738,40,60,0
408.02737,408.12738,48,60,0
408.02737,408.12738,52,60,0
408.42737,408.52737,40,60,0
408.42737,408.52737,48,60,0
408.42737,408.52737,52,60,0
408.8274,408.92737,40,60,0
408.8274,408.92737,48,60,0
408.8274,408.92737,52,60,0
411.2274,411.3274,41,60,0
411.2274,411.3274,48,60,0
411.2274,411.3274,53,60,0
411.62738,411.7274,41,60,0
411.62738,411.7274,48,60,0
411.62738,411.7274,53,60,0
412.02737,412.12738,41,60,0
412.02737,412.12738,48,60,0
412.02737,412.12738,53,60,0
412.8274,412.92737,38,60,0
412.8274,412.92737,46,60,0
412.8274,412.92737,50,60,0
413.2274,413.3274,38,60,0
413.2274,413.3274,46,60,0
413.2274,413.3274,50,60,0
413.62738,413.7274,38,60,0
413.62738,413.7274,46,60,0
413.62738,413.7274,50,60,0
414.42737,414.52737,39,60,0
414.42737,414.52737,46,60,0
414.42737,414.52737,51,60,0
414.8274,414.92737,39,64,0
414.8274,414.92737,46,64,0
414.8274,414.92737,51,64,0
415.2274,415.3274,39,68,0
415.2274,415.3274,46,68,0
415.2274,415.3274,51,68,0
416.02737,416.12738,36,76,0
416.02737,416.12738,48,76,0
416.42737,416.52737,36,80,0
416.42737,416.52737,48,80,0
416.8274,416.92737,36,84,0
416.8274,416.92737,48,84,0
417.62738,417.96072,34,92,0
417.62738,417.96072,46,92,0
418.62738,418.8274,62,60,0
418.62738,418.8274,65,60,0
418.8274,419.02737,61,60,0
418.8274,419.02737,64,60,0
419.02737,419.2232,62,60,0
419.02737,419.2232,65,60,0
419.2274,419.62738,63,60,0
419.2274,419.62738,67,60,0
419.62738,419.96072,62,60,0
419.62738,419.96072,65,60,0
420.02737,420.42737,60,60,0
420.02737,420.42737,63,60,0
420.42737,420.7607,58,60,0
420.42737,420.7607,62,60,0
420.8274,421.62738,56,60,0
420.8274,421.62738,60,60,0
421.62738,422.42737,55,75,0
421.62738,422.42737,58,75,0
422.42737,423.2274,46,92,0
422.42737,423.2274,50,92,0
422.42737,423.2274,53,92,0
423.2274,423.92737,46,75,0
423.2274,423.92737,51,75,0
423.2274,423.92737,55,75,0
424.02737,424.36072,46,60,0
424.02737,424.36072,50,60,0
424.02737,424.36072,53,60,0
425.02737,425.2274,62,60,0
425.02737,425.2274,65,60,0
425.2274,425.42737,61,60,0
425.2274,425.42737,64,60,0
425.42737,425.6232,62,60,0
425.42737,425.6232,65,60,0
425.62738,426.02737,63,60,0
425.62738,426.02737,67,60,0
426.02737,426.36072,62,60,0
426.02737,426.36072,65,60,0
426.42737,426.8274,60,60,0
426.42737,426.8274,63,60,0
426.8274,427.1607,58,60,0
426.8274,427.1607,62,60,0
427.2274,428.02737,56,60,0
427.2274,428.02737,60,60,0
428.02737,428.8274,55,75,0
428.02737,428.8274,58,75,0
428.8274,429.62738,46,92,0
428.8274,429.62738,50,92,0
428.8274,429.62738,53,92,0
429.62738,430.3274,46,75,0
429.62738,430.3274,51,75,0
429.62738,430.3274,55,75,0
430.42737,430.7607,46,45,0
430.42737,430.7607,50,45,0
430.42737,430.7607,53,45,0
431.42737,431.62738,34,45,0
431.42737,431.62738,46,45,0
431.62738,431.8274,33,45,0
431.62738,431.8274,45,45,0
431.8274,432.02322,34,45,0
431.8274,432.02322,46,45,0
432.02737,432.3652,38,45,0
432.02737,432.3652,50,45,0
433.0409,433.2436,38,45,0
433.0409,433.2436,50,45,0
433.2436,433.4463,37,45,0
433.2436,433.4463,49,45,0
433.4463,433.64478,38,45,0
433.4463,433.64478,50,45,0
433.649,433.99146,41,45,0
433.649,433.99146,53,45,0
434.6764,434.88187,41,45,0
434.6764,434.88187,53,45,0
434.88187,435.08734,40,45,0
434.88187,435.08734,52,45,0
435.08734,435.28854,41,45,0
435.08734,435.28854,53,45,0
435.29282,435.64005,44,45,0
435.29282,435.64005,56,45,0
436.12616,436.4734,41,52,0
436.12616,436.4734,53,52,0
436.9595,437.3116,38,60,0
436.9595,437.3116,50,60,0
437.80457,438.15668,34,68,0
437.80457,438.15668,46,68,0
438.64963,439.00677,32,76,0
438.64963,439.00677,44,76,0
439.50677,439.86392,29,84,0
439.50677,439.86392,41,84,0
440.36392,440.55975,39,92,0
440.5639,440.75977,51,75,0
440.76392,440.95975,55,60,0
440.76392,440.95975,58,60,0
440.96393,441.15976,51,60,0
441.1639,441.35974,55,60,0
441.1639,441.35974,58,60,0
441.36392,441.55975,51,60,0
441.5639,441.75977,55,60,0
441.5639,441.75977,58,60,0
441.76392,441.95975,51,60,0
441.96393,442.15976,39,92,0
442.1639,442.35974,51,75,0
442.36392,442.55975,55,60,0
442.36392,442.55975,58,60,0
442.5639,442.75977,51,60,0
442.76392,442.95975,55,60,0
442.76392,442.95975,58,60,0
442.96393,443.15976,51,60,0
443.1639,443.35974,55,60,0
443.1639,443.35974,58,60,0
443.36392,443.55975,51,60,0
443.5639,443.75977,39,92,0
443.76392,443.95975,51,75,0
443.96393,444.15976,55,60,0
443.96393,444.15976,58,60,0
444.1639,444.35974,51,60,0
444.36392,444.55975,55,60,0
444.36392,444.55975,58,60,0
444.5639,444.75977,51,60,0
444.76392,444.95975,55,60,0
444.76392,444.95975,58,60,0
444.96393,445.15976,51,60,0
445.1639,445.35974,55,60,0
445.1639,445.35974,58,60,0
445.36392,445.55975,51,64,0
445.5639,445.75977,55,68,0
445.5639,445.75977,58,68,0
445.76392,445.95975,51,72,0
445.96393,446.15976,55,76,0
445.96393,446.15976,58,76,0
446.1639,446.35974,51,80,0
446.36392,446.55975,55,84,0
446.36392,446.55975,58,84,0
446.5639,446.75977,51,88,0
446.76392,446.95975,44,92,0
446.96393,447.15976,51,75,0
447.1639,447.35974,56,60,0
447.1639,447.35974,60,60,0
447.36392,447.55975,51,60,0
447.5639,447.75977,56,60,0
447.5639,447.75977,60,60,0
447.76392,447.95975,51,60,0
447.96393,448.15976,56,60,0
447.96393,448.15976,60,60,0
448.1639,448.35974,51,60,0
448.36392,448.55975,41,60,0
448.5639,448.75977,53,64,0
448.76392,448.95975,56,68,0
448.76392,448.95975,60,68,0
448.96393,449.15976,53,72,0
449.1639,449.35974,56,76,0
449.1639,449.35974,60,76,0
449.36392,449.55975,53,80,0
449.5639,449.75977,56,84,0
449.5639,449.75977,60,84,0
449.76392,449.95975,53,88,0
449.96393,450.15976,46,92,0
450.1639,450.35974,53,75,0
450.36392,450.55975,58,60,0
450.36392,450.55975,62,60,0
450.5639,450.75977,53,60,0
450.76392,450.95975,58,60,0
450.76392,450.95975,62,60,0
450.96393,451.15976,53,60,0
451.1639,451.35974,58,60,0
451.1639,451.35974,62,60,0
451.36392,451.55975,53,60,0
451.5639,451.75977,44,60,0
451.76392,451.95975,56,64,0
451.96393,452.15976,58,68,0
451.96393,452.15976,62,68,0
452.1639,452.35974,56,72,0
452.36392,452.55975,58,76,0
452.36392,452.55975,62,76,0
452.5639,452.75977,56,80,0
452.76392,452.95975,58,84,0
452.76392,452.95975,62,84,0
452.96393,453.15976,56,88,0
453.1639,453.35974,43,92,0
453.36392,453.55975,55,75,0
453.5639,453.75977,58,60,0
453.76392,453.95975,63,60,0
453.96393,454.15976,44,60,0
454.1639,454.35974,56,60,0
454.36392,454.55975,60,60,0
454.5639,454.75977,65,60,0
454.76392,454.95975,46,60,0
454.96393,455.15976,58,60,0
455.1639,455.35974,63,60,0
455.36392,455.55975,67,60,0
455.5639,455.75977,46,60,0
455.76392,455.95975,56,60,0
455.96393,456.15976,58,60,0
456.1639,456.35974,62,60,0
456.36392,456.69727,39,92,0
456.36392,456.69727,51,92,0
456.76392,457.09726,43,75,0
457.1639,457.49725,46,60,0
457.5639,457.89725,51,60,0
457.96393,458.29724,39,92,0
458.36392,458.69727,43,75,0
458.76392,459.09726,46,60,0
459.1639,459.49725,51,60,0
459.5639,459.65976,37,92,0
459.6639,459.75977,43,92,0
459.76392,459.85974,46,92,0
459.86392,459.95975,49,92,0
459.96393,460.05975,37,75,0
460.0639,460.15976,43,75,0
460.1639,460.25977,46,75,0
460.26392,460.35974,49,75,0
460.36392,460.45975,37,60,0
460.46393,460.55975,43,60,0
460.5639,460.65976,46,60,0
460.6639,460.75977,49,60,0
460.76392,460.85974,37,60,0
460.86392,460.95975,43,60,0
460.96393,461.05975,46,60,0
461.0639,461.15976,49,60,0
461.1639,461.25977,37,60,0
461.26392,461.35974,43,60,0
461.36392,461.45975,46,60,0
461.46393,461.55975,49,60,0
461.5639,461.65976,37,60,0
461.6639,461.75977,43,60,0
461.76392,461.85974,46,60,0
461.86392,461.95975,49,60,0
461.96393,462.05975,37,60,0
462.0639,462.15976,43,60,0
462.1639,462.25977,46,60,0
462.26392,462.35974,49,60,0
462.36392,462.45975,37,60,0
462.46393,462.55975,43,60,0
462.5639,462.65976,46,60,0
462.6639,462.75977,49,60,0
462.76392,462.85974,36,92,0
462.86392,462.95975,39,92,0
462.96393,463.05975,44,92,0
463.0639,463.15976,48,92,0
463.1639,463.25977,36,75,0
463.26392,463.35974,39,75,0
463.36392,463.45975,44,75,0
463.46393,463.55975,48,75,0
463.5639,463.65976,36,60,0
463.6639,463.75977,39,60,0
463.76392,463.85974,44,60,0
463.86392,463.95975,48,60,0
463.96393,464.05975,36,60,0
464.0639,464.15976,39,60,0
464.1639,464.25977,44,60,0
464.26392,464.35974,48,60,0
464.36392,464.45975,36,60,0
464.46393,464.55975,39,60,0
464.5639,464.65976,44,60,0
464.6639,464.75977,48,60,0
464.76392,464.85974,36,60,0
464.86392,464.95975,39,60,0
464.96393,465.05975,44,60,0
465.0639,465.15976,48,60,0
465.1639,465.25977,36,60,0
465.26392,465.35974,39,60,0
465.36392,465.45975,44,60,0
465.46393,465.55975,48,60,0
465.5639,465.65976,36,60,0
465.6639,465.75977,39,60,0
465.76392,465.85974,44,60,0
465.86392,465.95975,48,60,0
465.96393,466.05975,31,60,0
466.0639,466.15976,34,61,0
466.1639,466.25977,39,61,0
466.26392,466.35974,43,62,0
466.36392,466.45975,31,63,0
466.46393,466.55975,34,64,0
466.5639,466.65976,39,65,0
466.6639,466.75977,43,66,0
466.76392,466.85974,31,67,0
466.86392,466.95975,34,68,0
466.96393,467.05975,39,69,0
467.0639,467.15976,43,70,0
467.1639,467.25977,31,71,0
467.26392,467.35974,34,72,0
467.36392,467.45975,39,73,0
467.46393,467.55975,43,74,0
467.5639,467.89725,31,75,0
467.96393,468.49725,39,79,0
468.5639,468.76392,39,85,0
468.76392,468.96393,38,87,0
468.96393,469.15976,39,89,0
469.1639,470.15976,32,92,0
469.1639,470.15976,44,92,0
470.1639,470.36392,39,92,0
470.36392,470.5639,38,92,0
470.5639,470.75977,39,92,0
470.76392,471.75977,48,92,0
471.76392,471.96393,39,92,0
471.96393,472.1639,38,92,0
472.1639,472.35974,39,92,0
472.36392,473.35974,49,92,0
473.36392,473.5639,39,92,0
473.5639,473.76392,38,92,0
473.76392,473.95975,39,92,0
473.96393,474.95975,43,92,0
474.96393,475.1639,39,92,0
475.1639,475.36392,38,92,0
475.36392,475.55975,39,92,0
475.5639,476.55975,44,92,0
476.5639,476.76392,39,92,0
476.76392,476.96393,38,92,0
476.96393,477.15976,39,92,0
477.1639,478.15976,48,92,0
478.1639,478.36392,39,92,0
478.36392,478.5639,38,92,0
478.5639,478.75977,39,92,0
478.76392,479.75977,49,92,0
479.76392,479.96393,39,92,0
479.96393,480.1639,38,92,0
480.1639,480.35974,39,92,0
480.36392,481.35974,43,92,0
481.36392,481.5639,39,92,0
481.5639,481.76392,38,92,0
481.76392,481.95975,39,92,0
481.96393,482.29724,32,92,0
481.96393,482.29724,44,92,0
482.5639,482.76392,32,92,0
482.5639,482.76392,44,92,0
482.76392,483.09726,34,92,0
482.76392,483.09726,46,92,0
483.36392,483.5639,34,92,0
483.36392,483.5639,46,92,0
483.5639,483.89725,36,92,0
483.5639,483.89725,48,92,0
484.1639,484.36392,36,92,0
484.1639,484.36392,48,92,0
484.36392,484.69727,33,92,0
484.36392,484.69727,45,92,0
484.96393,485.1639,33,92,0
484.96393,485.1639,45,92,0
485.1639,485.35974,34,92,0
485.1639,485.35974,46,92,0
485.36392,485.43057,58,60,0
485.5639,485.63058,58,60,0
485.76392,485.8306,56,60,0
485.96393,486.03058,55,60,0
486.1639,486.2306,58,60,0
486.36392,486.43057,55,60,0
486.5639,486.63058,51,60,0
486.76392,486.8306,46,60,0
486.96393,487.03058,46,60,0
487.1639,487.2306,46,60,0
487.36392,487.43057,44,60,0
487.5639,487.63058,43,60,0
487.76392,487.8306,46,60,0
487.96393,488.03058,43,60,0
488.1639,488.2306,39,60,0
488.36392,488.43057,34,60,0
488.36392,488.43057,46,60,0
488.5639,488.63058,58,62,0
488.76392,488.8306,58,64,0
488.96393,489.03058,56,66,0
489.1639,489.2306,55,68,0
489.36392,489.43057,58,70,0
489.5639,489.63058,55,72,0
489.76392,489.8306,51,74,0
489.96393,490.03058,46,76,0
490.1639,490.2306,46,78,0
490.36392,490.43057,46,80,0
490.5639,490.63058,44,82,0
490.76392,490.8306,43,84,0
490.96393,491.03058,46,86,0
491.1639,491.2306,43,88,0
491.36392,491.43057,39,90,0
491.5639,491.63242,34,92,0
491.7694,491.8379,46,92,0
491.97488,492.0453,39,92,0
492.18616,492.25656,46,92,0
492.3974,492.46988,34,92,0
492.6148,492.68726,46,92,0
492.83218,492.90683,39,92,0
493.05606,493.1307,46,92,0
493.27997,493.3919,34,92,0
493.27997,493.3919,46,92,0
493.72772,493.83966,34,92,0
493.72772,493.83966,46,92,0
494.17548,494.2874,34,92,0
494.17548,494.2874,46,92,0
495.02322,495.55658,63,60,0
495.02322,495.55658,70,60,0
495.82324,496.35657,68,60,0
495.82324,496.35657,70,60,0
496.62323,497.15656,67,60,0
496.62323,497.15656,70,60,0
497.42325,497.95657,62,60,0
497.42325,497.95657,70,60,0
498.22324,498.32324,63,60,0
498.22324,498.32324,70,60,0
498.62323,498.72324,62,60,0
498.62323,498.72324,70,60,0
499.02322,499.12323,60,60,0
499.02322,499.12323,70,60,0
499.42325,499.52322,65,60,0
499.42325,499.52322,69,60,0
499.82324,499.92325,58,60,0
499.82324,499.92325,70,60,0
501.42325,501.75656,39,60,0
501.42325,501.75656,51,60,0
502.22324,502.55658,44,60,0
502.22324,502.55658,56,60,0
503.02322,503.35657,43,60,0
503.02322,503.35657,55,60,0
503.82324,504.15656,38,60,0
503.82324,504.15656,50,60,0
504.62323,504.95657,39,60,0
504.62323,504.95657,51,60,0
505.02322,505.35657,38,60,0
505.02322,505.35657,50,60,0
505.42325,505.75656,36,60,0
505.42325,505.75656,48,60,0
505.82324,506.15656,41,60,0
505.82324,506.15656,53,60,0
506.22324,506.55658,34,60,0
506.22324,506.55658,46,60,0
507.82324,508.02322,44,60,0
507.82324,508.02322,46,60,0
508.02322,508.22324,50,60,0
508.22324,508.42325,53,60,0
508.42325,508.62323,50,60,0
508.62323,508.82324,53,60,0
508.82324,509.02322,50,60,0
509.02322,509.22324,53,60,0
509.22324,509.41907,50,60,0
509.42325,509.62323,43,60,0
509.42325,509.62323,46,60,0
509.62323,509.82324,51,68,0
509.82324,510.02322,55,76,0
510.02322,510.22324,51,84,0
510.22324,510.42325,46,92,0
510.42325,510.62323,51,92,0
510.62323,510.82324,55,75,0
510.82324,511.01907,51,75,0
511.02322,511.22324,44,60,0
511.02322,511.22324,46,60,0
511.22324,511.42325,50,60,0
511.42325,511.62323,53,60,0
511.62323,511.82324,50,60,0
511.82324,512.02325,53,60,0
512.02325,512.22327,50,60,0
512.22327,512.4232,53,60,0
512.4232,512.6191,50,60,0
512.6232,512.82324,43,60,0
512.6232,512.82324,46,60,0
512.82324,513.02325,51,60,0
513.02325,513.22327,55,75,0
513.22327,513.4232,51,75,0
513.4232,513.6232,46,92,0
513.6232,513.82324,51,92,0
513.82324,514.02325,55,75,0
514.02325,514.21906,51,75,0
514.22327,514.41907,44,60,0
514.22327,514.41907,46,60,0
514.4232,514.6191,53,60,0
514.6232,514.8191,50,60,0
514.82324,515.01904,58,60,0
515.02325,515.21906,53,60,0
515.22327,515.41907,62,60,0
515.4232,515.6191,58,60,0
515.6232,515.8191,65,60,0
515.82324,516.01904,58,60,0
516.02325,516.21906,63,60,0
516.22327,516.41907,58,60,0
516.4232,516.6191,55,60,0
516.6232,516.8191,60,60,0
516.82324,517.01904,63,60,0
517.02325,517.21906,60,60,0
517.22327,517.41907,56,60,0
517.4232,517.6191,55,60,0
517.6232,517.8191,58,60,0
517.82324,518.01904,55,60,0
518.02325,518.21906,58,60,0
518.22327,518.41907,56,60,0
518.4232,518.6191,58,60,0
518.6232,518.8191,56,60,0
518.82324,519.01904,58,60,0
519.02325,519.35657,55,60,0
520.6232,522.1232,32,60,0
520.6232,522.1232,44,60,0
522.22327,523.72327,31,60,0
522.22327,523.72327,43,60,0
523.82324,525.32324,32,60,0
523.82324,525.32324,44,60,0
525.4232,526.9232,31,60,0
525.4232,526.9232,43,60,0
527.02325,528.52325,32,60,0
527.02325,528.52325,44,60,0
528.6232,528.95654,31,60,0
528.6232,528.95654,43,60,0
529.4232,530.22327,60,60,0
529.4232,530.22327,67,60,0
530.22327,530.5566,65,60,0
530.22327,530.5566,68,60,0
531.02325,531.82324,58,60,0
531.02325,531.82324,65,60,0
531.82324,532.15656,63,60,0
531.82324,532.15656,67,60,0
532.6232,532.72327,48,60,0
533.02325,533.1232,60,60,0
533.02325,533.1232,64,60,0
533.4232,533.52325,53,60,0
533.82324,533.9232,60,60,0
533.82324,533.9232,65,60,0
534.22327,534.32324,46,60,0
534.6232,534.72327,58,60,0
534.6232,534.72327,62,60,0
535.02325,535.1232,39,60,0
535.4232,535.52325,51,60,0
535.4232,535.52325,63,60,0
535.82324,535.9232,39,60,0
536.22327,536.32324,51,60,0
536.22327,536.32324,62,60,0
536.6232,536.72327,39,60,0
537.02325,537.1232,51,60,0
537.02325,537.1232,61,60,0
537.4232,537.52325,39,60,0
537.82324,537.9232,51,60,0
537.82324,537.9232,60,60,0
538.22327,538.5566,39,60,0
538.22327,538.5566,43,60,0
538.22327,538.5566,46,60,0
538.22327,538.5566,51,60,0
540.22327,540.32324,31,60,0
540.22327,540.32324,39,60,0
540.22327,540.32324,43,60,0
540.6232,540.72327,31,60,0
540.6232,540.72327,39,60,0
540.6232,540.72327,43,60,0
541.02325,541.1232,31,75,0
541.02325,541.1232,39,75,0
541.02325,541.1232,43,75,0
541.4232,541.52325,32,92,0
541.4232,541.52325,39,92,0
541.4232,541.52325,44,92,0
544.22327,544.6232,33,92,0
544.22327,544.6232,45,92,0
544.6232,544.8191,34,60,0
544.6232,544.8191,46,60,0
544.82324,545.01904,34,60,0
545.02325,545.21906,39,60,0
545.22327,545.41907,43,60,0
545.4232,545.6191,46,60,0
545.6232,545.8191,46,60,0
545.82324,546.01904,51,60,0
546.02325,546.21906,55,63,0
546.22327,546.5566,58,66,0
546.6232,546.95654,34,72,0
546.6232,546.95654,46,72,0
547.02325,547.35657,34,78,0
547.02325,547.35657,46,78,0
547.4232,547.7566,34,85,0
547.4232,547.7566,46,85,0
547.82324,548.15656,39,92,0
548.6232,548.72327,60,60,0
549.02325,549.1232,60,60,0
549.4232,549.95654,60,60,0
550.02325,550.0899,58,60,0
550.22327,550.32324,56,60,0
550.6232,550.72327,55,60,0
551.02325,551.1232,53,60,0
551.82324,551.9232,58,60,0
552.22327,552.32324,58,60,0
552.6232,553.15656,58,60,0
553.22327,553.2899,56,60,0
553.4232,553.52325,55,60,0
553.82324,553.9232,53,60,0
554.22327,554.32324,51,60,0
555.02325,555.1232,39,92,0
555.02325,555.1232,51,92,0
555.4232,555.52325,39,92,0
555.4232,555.52325,51,92,0
555.82324,556.35657,39,92,0
555.82324,556.35657,51,92,0
556.4232,556.4899,37,92,0
556.4232,556.4899,49,92,0
556.6232,556.72327,36,92,0
556.6232,556.72327,48,92,0
557.02325,557.1232,34,92,0
557.02325,557.1232,46,92,0
557.4232,557.6191,32,92,0
557.4232,557.6191,44,92,0
558.22327,558.32324,44,60,0
558.22327,558.32324,48,60,0
558.22327,558.32324,53,60,0
558.22327,558.32324,56,60,0
559.02325,559.1232,46,60,0
559.02325,559.1232,51,60,0
559.02325,559.1232,55,60,0
559.82324,559.9232,47,53,0
559.82324,559.9232,53,53,0
559.82324,559.9232,56,53,0
560.6232,560.72327,48,45,0
560.6232,560.72327,51,45,0
560.6232,560.72327,55,45,0
561.4232,561.52325,36,92,0
561.4232,561.52325,48,92,0
561.82324,561.9232,36,92,0
561.82324,561.9232,48,92,0
562.22327,562.7566,36,92,0
562.22327,562.7566,48,92,0
562.82324,562.8899,34,92,0
562.82324,562.8899,46,92,0
563.02325,563.1232,32,92,0
563.02325,563.1232,44,92,0
563.4232,563.52325,31,92,0
563.4232,563.52325,43,92,0
563.82324,563.9232,29,92,0
563.82324,563.9232,41,92,0
564.6232,564.95654,44,60,0
564.6232,564.95654,48,60,0
564.6232,564.95654,53,60,0
564.6232,564.95654,56,60,0
565.4232,565.7566,46,60,0
565.4232,565.7566,51,60,0
565.4232,565.7566,55,60,0
565.4232,565.7566,58,60,0
566.22327,566.5566,46,60,0
566.22327,566.5566,53,60,0
566.22327,566.5566,56,60,0
566.22327,566.5566,58,60,0
567.02325,567.35657,39,60,0
567.02325,567.35657,51,60,0
567.4232,567.7566,39,60,0
567.4232,567.7566,51,60,0
567.82324,568.15656,39,60,0
567.82324,568.15656,51,60,0
568.22327,568.5566,39,60,0
568.22327,568.5566,51,60,0
568.6232,568.95654,39,60,0
568.6232,568.95654,51,60,0
569.02325,569.35657,39,60,0
569.02325,569.35657,51,60,0
569.4232,569.7566,39,60,0
569.4232,569.7566,51,60,0
569.82324,570.15656,39,60,0
569.82324,570.15656,51,60,0
570.22327,570.5566,39,60,0
570.22327,570.5566,51,60,0
570.6232,570.95654,39,60,0
570.6232,570.95654,51,60,0
571.02325,571.35657,39,60,0
571.02325,571.35657,51,60,0
571.4232,571.7566,39,60,0
571.4232,571.7566,51,60,0
571.82324,572.15656,39,60,0
571.82324,572.15656,51,60,0
572.22327,572.5566,39,60,0
572.22327,572.5566,51,60,0
572.6232,572.95654,39,60,0
572.6232,572.95654,51,60,0
573.02325,573.35657,39,60,0
573.02325,573.35657,51,60,0
573.4232,573.6191,39,60,0
573.4232,573.6191,43,60,0
573.4232,573.6191,46,60,0
573.6232,573.8191,51,60,0
573.82324,574.01904,39,60,0
573.82324,574.01904,43,60,0
573.82324,574.01904,46,60,0
574.02325,574.21906,51,60,0
574.22327,574.41907,39,60,0
574.22327,574.41907,43,60,0
574.22327,574.41907,46,60,0
574.4232,574.6191,51,60,0
574.6232,574.8191,39,60,0
574.6232,574.8191,43,60,0
574.6232,574.8191,46,60,0
574.82324,575.01904,51,60,0
575.02325,575.21906,39,60,0
575.02325,575.21906,43,60,0
575.02325,575.21906,46,60,0
575.22327,575.41907,51,60,0
575.4232,575.6191,39,60,0
575.4232,575.6191,43,60,0
575.4232,575.6191,46,60,0
575.6232,575.8191,51,60,0
575.82324,576.01904,39,60,0
575.82324,576.01904,43,60,0
575.82324,576.01904,46,60,0
576.02325,576.21906,51,60,0
576.22327,576.41907,39,60,0
576.22327,576.41907,43,60,0
576.22327,576.41907,46,60,0
576.4232,576.6191,51,60,0
576.6232,576.8191,39,60,0
576.6232,576.8191,44,60,0
576.6232,576.8191,46,60,0
576.82324,577.01904,50,60,0
577.02325,577.21906,39,60,0
577.02325,577.21906,44,60,0
577.02325,577.21906,46,60,0
577.22327,577.41907,50,60,0
577.4232,577.6191,39,60,0
577.4232,577.6191,44,60,0
577.4232,577.6191,46,60,0
577.6232,577.8191,50,60,0
577.82324,578.01904,39,60,0
577.82324,578.01904,44,60,0
577.82324,578.01904,46,60,0
578.02325,578.21906,50,60,0
578.22327,578.41907,39,60,0
578.22327,578.41907,44,60,0
578.22327,578.41907,46,60,0
578.4232,578.6191,50,60,0
578.6232,578.8191,39,60,0
578.6232,578.8191,44,60,0
578.6232,578.8191,46,60,0
578.82324,579.01904,50,60,0
579.02325,579.21906,39,60,0
579.02325,579.21906,44,60,0
579.02325,579.21906,46,60,0
579.22327,579.41907,50,60,0
579.4232,579.6191,39,60,0
579.4232,579.6191,44,60,0
579.4232,579.6191,46,60,0
579.6232,579.8191,50,60,0
579.82324,580.15656,39,60,0
579.82324,580.15656,43,60,0
579.82324,580.15656,46,60,0
579.82324,580.15656,51,60,0
580.22327,580.32324,51,92,0
580.22327,580.32324,63,92,0
581.82324,581.9232,46,92,0
581.82324,581.9232,58,92,0
583.4232,583.52325,39,92,0
583.4232,583.52325,51,92,0
585.02325,585.1232,34,92,0
585.02325,585.1232,46,92,0
586.22327,586.3191,39,92,0
586.32324,586.41907,43,92,0
586.4232,586.51904,46,92,0
586.52325,586.6191,51,92,0
586.6232,586.71906,39,75,0
586.72327,586.8191,43,75,0
586.82324,586.91907,46,75,0
586.9232,587.01904,51,75,0
587.02325,587.1191,39,60,0
587.1232,587.21906,43,60,0
587.22327,587.3191,46,60,0
587.32324,587.41907,51,60,0
587.4232,587.51904,39,60,0
587.52325,587.6191,43,60,0
587.6232,587.71906,46,60,0
587.72327,587.8191,51,60,0
587.82324,587.91907,37,60,0
587.9232,588.01904,43,60,0
588.02325,588.1191,46,60,0
588.1232,588.21906,49,60,0
588.22327,588.3191,37,92,0
588.32324,588.41907,43,92,0
588.4232,588.51904,46,92,0
588.52325,588.6191,49,92,0
588.6232,588.71906,37,75,0
588.72327,588.8191,43,75,0
588.82324,588.91907,46,75,0
588.9232,589.01904,49,75,0
589.02325,589.1191,37,60,0
589.1232,589.21906,43,60,0
589.22327,589.3191,46,60,0
589.32324,589.41907,49,60,0
589.4232,589.51904,36,60,0
589.52325,589.6191,39,60,0
589.6232,589.71906,44,60,0
589.72327,589.8191,48,60,0
589.82324,589.91907,36,92,0
589.9232,590.01904,39,92,0
590.02325,590.1191,44,92,0
590.1232,590.21906,48,92,0
590.22327,590.3191,36,75,0
590.32324,590.41907,39,75,0
590.4232,590.51904,44,75,0
590.52325,590.6191,48,75,0
590.6232,590.71906,36,60,0
590.72327,590.8191,39,60,0
590.82324,590.91907,44,75,0
590.9232,591.01904,48,75,0
591.02325,591.1524,35,92,0
591.15656,591.28577,39,92,0
591.2899,591.41907,47,92,0
591.4232,591.5524,35,92,0
591.5566,591.6857,39,92,0
591.6899,591.8191,47,92,0
591.82324,591.9524,35,92,0
591.95654,592.08575,39,92,0
592.0899,592.21906,47,92,0
592.22327,592.3524,35,92,0
592.35657,592.4857,39,92,0
592.4899,592.6191,47,92,0
592.6232,593.6191,34,92,0
592.6232,593.6191,46,92,0
593.6232,593.82324,46,60,0
593.82324,594.02325,45,60,0
594.02325,594.21906,46,60,0
594.22327,595.21906,50,60,0
595.22327,595.4232,46,60,0
595.4232,595.6232,45,60,0
595.6232,595.8191,46,60,0
595.82324,596.8191,51,60,0
596.82324,597.02325,46,60,0
597.02325,597.22327,45,60,0
597.22327,597.41907,46,60,0
597.4232,598.41907,53,60,0
598.4232,598.6232,46,60,0
598.6232,598.82324,45,60,0
598.82324,599.01904,46,60,0
599.02325,600.01904,55,60,0
600.02325,600.22327,46,60,0
600.22327,600.4232,45,60,0
600.4232,600.6191,46,60,0
600.6232,601.6191,38,60,0
600.6232,601.6191,50,60,0
601.6232,601.82324,46,60,0
601.82324,602.02325,45,60,0
602.02325,602.21906,46,60,0
602.22327,603.21906,39,60,0
602.22327,603.21906,51,60,0
603.22327,603.4232,46,60,0
603.4232,603.6232,45,60,0
603.6232,603.8191,46,60,0
603.82324,604.8191,41,60,0
603.82324,604.8191,53,60,0
604.82324,605.02325,46,60,0
605.02325,605.22327,45,60,0
605.22327,605.41907,46,60,0
605.4232,605.7566,39,60,0
605.4232,605.7566,51,60,0
607.02325,607.22327,49,60,0
607.22327,607.4232,61,60,0
607.4232,607.6232,51,60,0
607.6232,607.82324,61,60,0
607.82324,608.02325,49,60,0
608.02325,608.22327,61,60,0
608.22327,608.4232,49,60,0
608.4232,608.6191,61,60,0
608.6232,608.82324,49,60,0
608.82324,609.02325,61,60,0
609.02325,609.22327,48,60,0
609.22327,609.4232,60,60,0
609.4232,609.6232,46,60,0
609.6232,609.82324,58,60,0
609.82324,610.02325,44,60,0
610.02325,610.21906,56,60,0
610.22327,610.4232,44,60,0
610.4232,610.6232,56,60,0
610.6232,610.82324,43,60,0
610.82324,611.02325,55,60,0
611.02325,611.22327,41,60,0
611.22327,611.4232,53,60,0
611.4232,611.6232,39,60,0
611.6232,611.8191,51,60,0
611.82324,612.02325,44,60,0
612.02325,612.22327,56,60,0
612.22327,612.4232,51,60,0
612.4232,612.6232,56,60,0
612.6232,612.82324,44,60,0
612.82324,613.02325,56,60,0
613.02325,613.22327,51,60,0
613.22327,613.41907,56,60,0
613.4232,613.6232,49,60,0
613.6232,613.82324,61,61,0
613.82324,614.02325,51,62,0
614.02325,614.22327,61,63,0
614.22327,614.4232,49,64,0
614.4232,614.6232,61,65,0
614.6232,614.82324,49,66,0
614.82324,615.01904,61,67,0
615.02325,615.22327,49,68,0
615.22327,615.4232,61,69,0
615.4232,615.6232,48,70,0
615.6232,615.82324,60,71,0
615.82324,616.02325,46,72,0
616.02325,616.22327,58,73,0
616.22327,616.4232,44,74,0
616.4232,616.6191,56,75,0
616.6232,616.82324,44,76,0
616.82324,617.02325,56,78,0
617.02325,617.22327,43,80,0
617.22327,617.4232,55,82,0
617.4232,617.6232,41,84,0
617.6232,617.82324,53,86,0
617.82324,618.02325,39,88,0
618.02325,618.21906,51,90,0
618.22327,618.42444,32,92,0
618.22327,618.42444,36,92,0
618.22327,618.42444,39,92,0
618.22327,618.42444,44,92,0
618.6342,618.84106,32,92,0
618.6342,618.84106,36,92,0
618.6342,618.84106,39,92,0
618.6342,618.84106,44,92,0
619.0567,619.2696,32,92,0
619.0567,619.2696,36,92,0
619.0567,619.2696,39,92,0
619.0567,619.2696,44,92,0
621.5263,621.7221,38,92,0
621.5263,621.7221,46,92,0
621.5263,621.7221,50,92,0
621.9263,622.1275,38,92,0
621.9263,622.1275,46,92,0
621.9263,622.1275,50,92,0
622.3373,622.5441,38,92,0
622.3373,622.5441,46,92,0
622.3373,622.5441,50,92,0
624.78235,626.28235,39,60,0
624.78235,626.28235,51,60,0
626.3823,627.8823,44,60,0
626.3823,627.8823,56,60,0
627.9823,629.4823,46,60,0
627.9823,629.4823,55,60,0
629.58234,631.08234,47,60,0
629.58234,631.08234,53,60,0
631.1823,632.6823,48,60,0
631.1823,632.6823,51,60,0
632.78235,634.28235,45,76,0
632.78235,634.28235,51,76,0
632.78235,634.28235,53,76,0
634.3823,635.8823,46,92,0
634.3823,635.8823,51,92,0
634.3823,635.8823,55,92,0
635.9823,637.4823,34,60,0
635.9823,637.4823,46,60,0
635.9823,637.4823,53,60,0
637.58234,637.91565,39,60,0
637.58234,637.91565,51,60,0
637.9823,638.08234,58,60,0
638.3823,638.4823,55,60,0
638.78235,638.8823,51,60,0
639.1823,639.5156,34,60,0
639.1823,639.5156,46,60,0
639.58234,639.9823,58,61,0
639.9823,640.3157,56,62,0
640.3823,640.4823,46,63,0
640.3823,640.4823,53,63,0
640.78235,640.8823,39,64,0
640.78235,640.8823,51,64,0
641.1823,641.28235,58,65,0
641.58234,641.6823,55,66,0
641.9823,642.08234,51,67,0
642.3823,642.71564,34,68,0
642.3823,642.71564,46,68,0
642.78235,643.1823,58,69,0
643.1823,643.5156,56,70,0
643.58234,643.6823,46,71,0
643.58234,643.6823,53,71,0
643.9823,644.08234,39,100,0
643.9823,644.08234,51,100,0
644.3823,644.4823,58,73,0
644.78235,644.8823,55,74,0
645.1823,645.28235,51,75,0
645.58234,645.91565,34,76,0
645.58234,645.91565,46,76,0
645.9823,646.3823,58,77,0
646.3823,646.71564,56,78,0
646.78235,646.8823,46,79,0
646.78235,646.8823,53,79,0
647.1823,647.24896,39,80,0
647.1823,647.24896,51,80,0
647.3823,647.449,58,80,0
647.58234,647.649,55,80,0
647.78235,647.849,51,80,0
647.9823,648.049,46,80,0
648.1823,648.24896,50,81,0
648.3823,648.449,53,82,0
648.58234,648.649,56,83,0
648.78235,648.849,39,84,0
648.78235,648.849,51,84,0
648.9823,649.049,58,85,0
649.1823,649.24896,55,86,0
649.3823,649.449,51,87,0
649.58234,649.649,46,88,0
649.78235,649.849,50,89,0
649.9823,650.049,53,90,0
650.1823,650.24896,56,91,0
650.3823,650.57556,39,92,0
650.5797,650.77295,51,92,0
650.77704,650.97034,34,92,0
650.9744,651.16766,46,92,0
651.1718,651.36505,39,92,0
651.36914,651.56244,51,92,0
651.5665,651.75977,34,92,0
651.7639,651.95715,46,92,0
651.96124,652.15204,39,92,0
652.15607,652.3468,51,92,0
652.3509,652.5416,34,92,0
652.54565,652.73645,46,92,0
652.7405,652.9312,39,92,0
652.9353,653.12604,51,92,0
653.13007,653.32086,34,92,0
653.3249,653.5156,46,92,0
653.5197,653.7155,39,92,0
653.5197,653.7155,51,92,0
654.3197,654.52954,39,92,0
654.3197,654.52954,43,92,0
654.3197,654.52954,46,92,0
654.3197,654.52954,51,92,0
655.1768,655.40283,39,92,0
655.1768,655.40283,43,92,0
655.1768,655.40283,46,92,0
655.1768,655.40283,51,92,0
658.4076,658.79224,43,10,0
