start_time,end_time,note_value,velocity,instrument_program_number
4.821426,7.4888353,68,45,71
7.499996,7.6339245,70,45,71
7.6339245,7.767853,68,48,71
7.767853,7.9017816,67,52,71
7.9017816,8.03571,68,56,71
8.03571,9.107138,72,60,71
9.107138,9.631691,70,60,71
9.642852,11.249994,68,60,71
11.249994,13.124993,67,45,71
13.39285,13.772314,67,45,71
13.928564,14.107136,68,45,71
14.464278,16.339277,70,45,71
16.607134,16.986599,70,58,71
17.142847,17.321419,72,61,71
17.678562,18.214275,73,64,71
18.214275,18.738829,75,67,71
18.74999,18.928562,70,71,71
19.285704,20.892845,73,75,71
20.892845,21.785702,72,45,71
24.10713,25.714272,70,45,71
25.714272,27.321415,73,60,71
27.321415,28.749985,77,75,71
28.928556,32.14284,67,60,71
32.14284,32.678555,68,60,71
32.678555,33.214268,72,60,71
33.214268,33.738823,75,60,71
33.74998,35.357124,75,60,71
35.357124,36.785694,73,65,71
36.964268,37.05355,72,70,71
37.05355,37.142838,73,70,71
37.142838,37.232124,72,70,71
37.232124,37.321407,73,70,71
37.321407,37.410694,72,70,71
37.410694,37.49998,73,70,71
37.49998,38.035694,75,70,71
38.035694,38.560246,73,72,71
38.571407,40.20777,72,75,71
40.20777,41.133698,70,45,71
45.21235,48.962345,75,45,71
48.962345,49.498062,77,60,71
49.498062,50.022614,75,60,71
50.033775,53.78377,75,45,71
53.78377,54.31949,77,60,71
54.31949,54.84404,75,60,71
54.8552,58.605198,75,45,71
58.605198,59.14091,77,45,71
59.14091,59.665466,75,54,71
59.67663,60.05609,75,63,71
60.21234,60.591805,75,72,71
60.748055,60.92663,75,82,71
61.283768,61.819485,75,92,71
61.819485,62.355198,73,75,71
62.355198,62.87975,72,60,71
62.89091,63.783768,70,45,71
67.71233,70.92662,73,60,71
70.92662,72.355194,72,75,71
72.53376,74.14091,70,60,71
74.14091,75.74805,68,60,71
75.74805,77.17662,67,53,71
77.35519,78.24805,68,45,71
82.04269,82.17661,63,45,71
82.17661,83.60519,75,45,71
83.78376,86.462326,75,50,71
86.462326,86.719025,73,58,71
86.73019,86.81947,72,59,71
86.81947,86.90875,73,59,71
86.90875,86.99804,75,59,71
86.99804,88.069466,73,60,71
88.069466,88.594025,72,60,71
88.60519,91.10518,72,45,71
91.28375,91.808304,72,60,71
91.819466,93.426605,70,60,71
93.426605,95.03375,73,60,71
95.03375,96.46232,67,60,71
96.64089,97.53375,68,45,71
122.89088,123.06945,74,60,71
123.42659,123.60516,74,60,71
123.96231,124.498024,75,64,71
124.498024,125.022575,77,68,71
125.03374,125.2123,79,72,71
125.56945,125.748024,80,77,71
126.10516,126.28374,70,82,71
126.64088,126.81945,70,87,71
127.17659,127.26588,70,92,71
127.26588,127.35516,72,92,71
127.35516,127.44445,70,92,71
127.44445,127.53374,72,92,71
127.53374,127.62302,70,92,71
127.62302,127.7123,72,92,71
127.7123,127.80159,70,92,71
127.80159,127.89088,72,91,71
127.89088,127.98016,70,90,71
127.98016,128.06944,72,89,71
128.06944,128.15874,70,88,71
128.15874,128.24802,72,87,71
128.24802,128.33731,70,86,71
128.33731,128.42659,72,85,71
128.42659,128.51587,70,84,71
128.51587,128.60516,72,83,71
128.60516,128.69444,70,82,71
128.69444,128.78374,72,81,71
128.78374,128.87302,70,80,71
128.87302,128.96231,72,79,71
128.96231,129.05159,70,78,71
129.05159,129.14087,72,77,71
129.14087,129.23016,70,76,71
129.23016,129.31944,72,75,71
129.31944,129.40874,70,74,71
129.40874,129.49802,72,73,71
129.49802,129.58731,70,72,71
129.58731,129.67659,72,71,71
129.67659,129.76587,70,70,71
129.76587,129.85516,72,69,71
129.85516,129.94444,70,68,71
129.94444,130.03374,72,67,71
130.03374,130.12302,70,66,71
130.12302,130.21231,72,65,71
130.21231,130.30159,70,64,71
130.30159,130.39087,72,62,71
130.39087,130.65707,70,60,71
130.66866,130.94643,81,60,71
130.94643,131.22421,82,66,71
131.22421,131.50198,81,72,71
131.50198,131.77977,82,78,71
131.77977,132.04597,81,85,71
132.05754,133.21138,82,92,71
133.21138,135.54216,82,60,71
135.54216,136.54216,82,45,71
152.5253,152.70387,79,60,71
153.06102,153.32887,79,60,71
153.4628,153.59673,80,66,71
153.59673,154.13245,79,68,71
154.13245,154.657,77,76,71
154.66815,154.84673,79,84,71
155.20387,157.34673,82,92,71
157.34673,157.87128,80,92,71
157.88245,158.061,77,92,71
158.41815,158.95387,80,84,71
158.95387,159.47842,79,76,71
159.48958,159.66815,75,68,71
160.0253,161.48735,77,60,71
161.4985,161.62128,77,60,71
161.63243,162.157,77,60,71
166.98958,167.36905,80,60,71
167.5253,167.70386,80,66,71
168.061,168.44048,80,72,71
168.59673,168.97618,80,78,71
169.13243,169.311,81,85,71
169.66815,171.27528,82,92,71
171.27528,172.88243,80,75,71
172.88243,174.311,79,60,71
174.48958,174.75743,76,45,71
174.75743,175.02528,77,45,71
175.02528,175.29315,79,47,71
175.29315,175.561,80,49,71
175.561,175.82886,82,51,71
175.82886,176.08556,84,53,71
176.09671,176.36458,84,56,71
176.36458,176.63243,82,59,71
176.63243,176.90028,80,62,71
176.90028,177.16814,79,65,71
177.16814,177.436,77,68,71
177.436,177.6927,75,71,71
177.70386,177.97171,82,74,71
177.97171,178.23958,80,77,71
178.23958,178.50743,79,80,71
178.50743,178.77528,77,83,71
178.77528,179.04314,75,86,71
179.04314,179.29984,74,89,71
179.311,180.73958,75,92,71
185.73956,187.34671,79,60,71
187.34671,188.95386,75,60,71
188.95386,189.84671,72,60,71
195.38242,196.98956,75,60,71
196.98956,198.59671,72,76,71
198.59671,199.48956,70,92,71
203.41814,204.34406,74,45,71
208.61557,209.61557,75,45,71
214.70128,215.23698,70,75,71
215.23698,217.37985,80,92,71
217.37985,217.9044,79,92,71
217.91556,218.09413,77,75,71
218.45128,218.97583,75,60,71
218.98698,219.16556,70,60,71
219.5227,219.70128,70,60,71
220.05841,220.23698,70,92,71
220.59413,220.7727,70,92,71
221.12985,221.30841,70,75,71
221.66556,221.84413,70,75,71
222.20128,222.37985,70,60,71
222.73698,222.91556,70,60,71
223.2727,224.16556,70,60,71
224.34413,224.87984,70,75,71
224.87984,225.41556,80,92,71
225.41556,225.94011,77,92,71
225.95128,226.12984,74,75,71
226.48698,226.66556,70,60,71
227.0227,227.20126,68,60,71
227.55841,227.73698,65,60,71
228.09413,228.98698,67,60,71
229.70126,230.23698,80,92,71
230.23698,230.76154,77,92,71
230.7727,230.95126,74,75,71
231.30841,231.48698,70,60,71
231.84413,232.02269,68,60,71
232.37984,232.55841,65,60,71
232.91556,233.80841,67,60,71
234.52269,234.79056,80,92,71
234.79056,235.05841,79,92,71
235.05841,235.32626,77,92,71
235.32626,235.59412,75,92,71
235.59412,235.86198,74,92,71
235.86198,236.12984,72,92,71
236.12984,236.39769,70,92,71
236.39769,236.66556,69,87,71
236.66556,236.93341,70,82,71
236.93341,237.20126,68,77,71
237.20126,237.46912,67,72,71
237.46912,237.72581,65,66,71
237.73698,238.6629,63,60,71
241.07031,241.99623,75,45,71
242.73698,245.91005,75,45,71
252.75072,253.13017,79,45,71
253.28642,253.6659,79,50,71
253.82214,254.00072,79,55,71
254.35785,254.73732,79,60,71
254.89357,255.27303,79,65,71
255.42928,255.60785,79,70,71
255.965,256.34445,79,75,71
256.5007,256.8802,79,80,71
257.03644,257.215,79,86,71
257.57214,259.1793,79,92,71
259.1793,259.70383,79,60,71
293.46497,293.64355,67,92,71
294.0007,294.17926,67,92,71
294.5364,294.71497,67,75,71
295.0721,295.2507,67,75,71
295.60782,295.7864,67,60,71
296.14355,298.01855,67,92,71
298.2864,298.46497,67,92,71
298.8221,299.0007,67,92,71
299.35782,299.5364,67,75,71
299.89355,300.0721,67,75,71
300.42926,300.60782,67,75,71
300.96497,302.42703,67,60,71
302.43817,302.56094,67,60,71
302.5721,303.09668,67,60,71
305.7864,307.39355,74,92,71
307.39355,307.9181,67,60,71
310.60782,312.21497,74,60,71
312.21497,313.8221,71,75,71
313.8221,315.25067,72,92,71
315.42926,317.03638,68,60,71
317.03638,319.98282,67,60,71
320.25067,321.14352,67,60,71
357.21494,358.82208,71,45,71
358.82208,359.74802,72,45,71
362.15543,363.82208,77,45,71
363.82208,364.78363,76,45,71
367.28363,369.0144,71,45,71
369.0144,369.97592,72,45,71
372.18747,372.3317,62,75,71
372.3317,372.47592,71,75,71
372.47592,374.08307,80,92,71
374.08307,374.26163,79,92,71
374.61877,374.99826,72,60,71
375.1545,375.33307,72,60,71
375.69022,376.06967,72,60,71
376.22592,376.60538,72,60,71
376.76163,376.94022,72,60,71
377.29736,377.67682,72,60,71
377.83307,378.21252,72,60,71
378.36877,378.54736,72,60,71
378.9045,380.51163,72,60,71
380.51163,382.11877,73,70,71
382.11877,383.72592,74,81,71
383.72592,385.9695,75,92,71
385.9695,386.54645,73,92,71
386.54645,387.12335,72,86,71
387.12335,387.72336,75,80,71
387.72336,388.32336,73,74,71
388.32336,388.91086,70,67,71
388.92337,391.59076,68,60,71
391.60193,391.73587,70,60,71
391.73587,391.86978,68,60,71
391.86978,392.00372,67,61,71
392.00372,392.13763,68,62,71
392.13763,393.20908,72,63,71
393.20908,393.7336,70,71,71
393.74478,395.35193,68,75,71
395.35193,397.22693,67,60,71
397.49478,397.87424,67,60,71
398.0305,398.20908,68,60,71
398.56622,400.44122,70,60,71
400.70908,401.08853,70,60,71
401.24478,401.42334,72,63,71
401.7805,402.31622,73,66,71
402.31622,402.84076,75,69,71
402.85193,403.0305,70,72,71
403.38763,404.99478,73,75,71
404.99478,405.51932,72,60,71
408.20908,409.8162,70,60,71
409.8162,411.42334,73,60,71
411.42334,412.85193,77,60,71
413.0305,415.97693,67,60,71
416.24478,416.7805,68,60,71
416.7805,417.3162,72,60,71
417.3162,417.84076,75,60,71
417.85193,419.45905,75,60,71
419.45905,420.88763,73,60,71
421.0662,421.1555,72,60,71
421.1555,421.24478,73,61,71
421.24478,421.33405,72,62,71
421.33405,421.42334,73,63,71
421.42334,421.51263,70,64,71
421.51263,421.6019,72,66,71
421.6019,422.13763,75,68,71
422.13763,422.66217,73,80,71
422.67334,424.34,72,92,71
424.34,425.26593,70,60,71
429.34457,433.09457,75,45,71
433.09457,433.6303,77,60,71
433.6303,434.15485,75,60,71
434.16602,437.91602,75,45,71
437.91602,438.45172,77,60,71
438.45172,438.9763,75,60,71
438.98743,442.73743,75,45,71
442.73743,443.27316,77,45,71
443.27316,443.7977,75,54,71
443.80887,444.18832,75,63,71
444.34457,444.72403,75,72,71
444.88028,445.05887,75,82,71
445.41602,445.95172,75,92,71
445.95172,446.48743,73,75,71
446.48743,447.012,72,60,71
447.02313,447.91602,70,45,71
451.84457,455.05887,73,60,71
455.05887,456.48743,72,75,71
456.666,458.27313,70,75,71
458.27313,459.88028,68,65,71
459.88028,461.30884,67,55,71
461.48743,462.38028,68,45,71
466.30884,467.73743,75,45,71
467.916,470.59457,75,60,71
470.59457,470.85126,73,60,71
470.86243,470.9517,72,60,71
470.9517,471.041,73,60,71
471.041,471.13028,75,60,71
471.13028,472.2017,73,75,71
472.2017,472.72626,72,60,71
472.73743,475.40482,72,60,71
475.416,475.94055,72,60,71
475.9517,477.55884,70,60,71
477.55884,479.166,73,60,71
479.166,480.59454,67,60,71
480.77313,482.38028,79,75,71
482.38028,484.25528,80,92,71
484.25528,484.52313,79,92,71
484.52313,484.791,77,86,71
484.791,485.05884,75,80,71
485.05884,485.3267,73,74,71
485.3267,485.5834,72,67,71
485.59454,487.2017,70,60,71
487.2017,488.80884,73,60,71
488.80884,490.2374,67,60,71
490.416,492.02313,82,75,71
492.02313,493.89813,80,92,71
493.89813,494.166,79,92,71
494.166,494.43384,77,86,71
494.43384,494.7017,75,80,71
494.7017,494.96954,73,74,71
494.96954,495.22626,72,67,71
495.2374,496.13025,70,60,71
501.666,503.2731,65,45,71
503.2731,504.7017,77,45,71
504.88025,505.7731,72,45,71
511.30884,513.45166,72,45,71
513.45166,513.98737,75,60,71
513.98737,514.51196,72,60,71
514.52313,515.41595,70,92,71
519.34454,520.27045,79,45,71
524.542,525.542,80,45,71
530.6277,531.1634,63,75,71
531.1634,533.3063,73,92,71
533.3063,533.8308,72,75,71
533.842,534.02057,70,75,71
534.3777,534.9022,68,60,71
534.9134,535.29285,75,60,71
535.4491,535.6277,75,60,71
535.9848,536.36426,75,92,71
536.5205,536.9,75,92,71
537.0563,537.2348,75,92,71
537.592,537.97144,75,75,71
538.1277,538.50714,75,75,71
538.6634,538.842,75,75,71
539.1991,539.72363,75,60,71
541.342,541.8665,63,75,71
541.8777,542.9379,73,92,71
542.9491,543.1277,73,75,71
543.4848,543.6634,73,75,71
544.0205,544.5451,72,60,71
544.5563,544.8241,62,60,71
544.8241,545.092,63,60,71
545.092,545.3598,65,75,71
545.3598,545.6165,63,75,71
545.6277,545.8063,63,92,71
546.1634,546.342,67,92,71
546.6991,546.8777,70,92,71
547.2348,548.6634,73,75,71
548.842,549.3859,72,60,71
549.3975,549.6753,62,60,71
549.6753,549.95306,63,60,71
549.95306,550.23083,65,60,71
550.23083,550.4971,63,60,71
550.5086,550.7864,63,60,71
550.7864,551.0642,65,65,71
551.0642,551.342,67,70,71
551.342,551.61975,68,75,71
551.61975,551.8975,70,80,71
551.8975,552.1637,72,86,71
552.1753,553.90607,73,92,71
553.90607,554.90607,72,60,71
557.58105,559.5684,75,45,71
559.8462,565.3462,72,30,71
21.42856,21.808023,60,60,42
21.964273,22.142845,60,60,42
22.499989,23.035702,60,76,42
23.035702,23.571417,58,92,42
23.571417,24.09597,56,75,42
24.10713,24.999987,53,45,42
38.571407,38.753227,51,45,42
39.116863,39.29868,63,52,42
39.662315,39.844135,63,60,42
40.20777,40.392956,63,68,42
40.76333,41.318882,63,76,42
41.318882,41.87444,62,84,42
41.87444,42.451363,63,92,42
42.451363,43.028282,61,92,42
43.028282,43.59319,58,75,42
43.605206,44.498062,56,60,42
45.21235,48.962345,63,45,42
48.962345,49.498062,65,60,42
49.498062,50.022614,63,60,42
50.033775,53.78377,63,45,42
53.78377,54.31949,65,60,42
54.31949,54.84404,63,60,42
54.8552,58.605198,63,45,42
58.605198,59.14091,65,45,42
59.14091,59.665466,63,54,42
59.67663,60.05609,63,63,42
60.21234,60.591805,63,72,42
60.748055,60.92663,63,82,42
61.283768,61.819485,63,92,42
61.819485,62.355198,61,75,42
62.355198,62.87975,60,60,42
62.89091,63.783768,58,45,42
67.71233,70.92662,58,60,42
70.92662,72.355194,56,75,42
72.53376,74.14091,61,60,42
74.14091,75.56947,60,60,42
75.74805,76.28376,58,53,42
76.28376,76.81947,63,51,42
76.81947,77.344025,61,48,42
77.35519,78.24805,60,45,42
79.49805,79.67661,63,45,42
80.03376,80.21233,61,45,42
80.56947,80.74805,60,45,42
81.10519,81.28376,58,45,42
81.6409,81.81947,56,45,42
82.17661,83.06947,55,45,42
89.1409,89.319466,56,45,42
89.67661,89.85518,55,45,42
90.212326,90.3909,56,45,42
90.74804,90.92661,58,45,42
91.28375,91.462326,60,45,42
91.819466,92.087326,61,45,42
93.426605,93.694466,58,45,42
95.03375,95.301605,63,45,42
96.64089,97.53375,56,45,42
101.46232,102.89089,60,45,42
103.06946,105.74803,60,55,42
105.74803,106.00473,58,71,42
106.015884,106.10517,57,73,42
106.10517,106.19446,58,73,42
106.19446,106.283745,60,74,42
106.283745,107.35517,58,75,42
107.35517,107.87972,56,75,42
107.890884,110.033745,56,60,42
110.033745,110.5583,65,60,42
110.56946,110.74803,65,60,42
111.10517,113.248024,65,60,42
113.248024,113.77258,63,67,42
113.783745,114.16321,62,68,42
114.31946,114.69892,60,69,42
114.85517,115.234634,58,70,42
115.390884,115.56946,56,72,42
115.9266,117.53374,55,74,42
117.53374,119.40874,63,80,42
119.6766,119.94445,62,88,42
119.94445,120.21231,60,89,42
120.21231,120.48016,58,90,42
120.48016,120.73686,57,91,42
120.748024,121.64088,58,92,42
122.89088,123.06945,68,60,42
123.42659,123.60516,68,60,42
123.96231,124.498024,67,64,42
124.498024,125.022575,65,68,42
125.03374,125.2123,63,72,42
125.56945,125.748024,62,77,42
126.10516,126.28374,58,82,42
126.64088,126.81945,58,87,42
127.17659,129.31944,58,92,42
129.31944,130.39087,58,75,42
130.39087,130.65707,58,60,42
130.66866,130.94643,57,60,42
130.94643,131.22421,58,66,42
131.22421,131.50198,57,72,42
131.50198,131.77977,58,78,42
131.77977,132.04597,57,85,42
132.05754,132.62245,58,92,42
132.63446,132.82677,46,92,42
133.21138,133.4037,46,92,42
133.78831,133.98062,46,92,42
134.36523,134.55754,46,92,42
134.94215,135.14215,46,92,42
135.54216,136.54216,46,92,42
152.5253,152.70387,63,60,42
153.06102,153.32887,63,60,42
153.4628,153.59673,65,66,42
153.59673,154.13245,63,68,42
154.13245,154.657,62,76,42
154.66815,154.84673,63,84,42
155.20387,157.34673,67,92,42
157.34673,157.87128,65,92,42
157.88245,158.061,62,92,42
158.41815,158.95387,65,84,42
158.95387,159.47842,63,76,42
159.48958,159.66815,60,68,42
160.0253,161.48735,62,60,42
161.4985,161.62128,62,60,42
161.63243,162.157,62,60,42
166.98958,167.36905,65,60,42
167.5253,167.70386,65,66,42
168.061,168.44048,65,72,42
168.59673,168.97618,65,78,42
169.13243,169.311,63,85,42
169.66815,171.27528,62,92,42
171.27528,172.88243,65,75,42
172.88243,174.311,63,60,42
174.48958,176.09671,56,45,42
176.09671,177.70386,58,60,42
177.70386,179.13243,56,75,42
179.311,179.83556,55,92,42
179.84671,180.02528,46,60,42
180.38243,180.561,51,60,42
180.91814,181.09671,43,60,42
181.45386,181.63243,46,60,42
181.98956,182.16814,51,60,42
182.52528,182.70386,43,60,42
183.061,183.23956,46,60,42
183.59671,183.77528,51,60,42
184.13243,184.311,43,60,42
184.66814,184.84671,46,60,42
185.20386,185.38243,51,60,42
185.73956,185.91814,43,60,42
186.27528,186.45386,46,60,42
186.81099,186.98956,51,60,42
187.34671,187.52528,43,60,42
187.88243,188.06099,46,60,42
188.41814,188.59671,51,60,42
188.95386,189.13242,44,60,42
189.48956,189.66814,48,60,42
190.02528,190.20386,53,60,42
190.56099,190.73956,48,60,42
191.09671,191.27528,53,60,42
191.63242,191.81099,56,60,42
192.16814,192.34671,53,60,42
192.70386,192.88242,56,60,42
193.23956,193.41814,60,60,42
193.77528,193.95384,51,60,42
194.31099,194.48956,53,63,42
194.84671,195.02528,60,66,42
195.38242,195.56099,51,69,42
195.91814,196.09671,53,72,42
196.45384,196.63242,60,76,42
196.98956,197.16814,51,80,42
197.52527,197.70384,53,84,42
198.06099,198.23956,60,88,42
198.59671,199.48956,55,92,42
203.41814,204.34406,46,45,42
203.41814,204.34406,56,45,42
208.61557,209.61557,55,45,42
213.62985,214.5227,46,45,42
215.23698,217.37985,62,92,42
217.37985,217.9044,63,92,42
217.91556,218.09413,65,75,42
218.45128,218.62985,67,60,42
218.98698,219.16556,58,60,42
219.5227,219.70128,58,60,42
220.05841,220.23698,58,92,42
220.59413,220.7727,58,75,42
221.12985,221.30841,58,75,42
221.66556,222.20128,58,75,42
222.20128,222.72583,56,60,42
222.73698,222.91556,55,60,42
223.2727,224.16556,53,60,42
227.55841,228.08296,58,75,42
228.09413,228.62984,63,92,42
228.62984,229.16556,62,75,42
229.16556,229.69011,60,60,42
229.70126,231.57626,58,92,42
231.84413,232.02269,58,75,42
232.37984,232.55841,58,60,42
232.91556,233.18341,63,92,42
233.18341,233.45126,62,92,42
233.45126,233.71913,65,75,42
233.71913,233.98698,63,75,42
233.98698,234.25484,62,60,42
234.25484,234.51154,60,60,42
234.52269,236.39769,58,92,42
236.39769,236.66556,57,92,42
236.66556,236.93341,58,86,42
236.93341,237.20126,60,80,42
237.20126,237.46912,58,74,42
237.46912,237.72581,56,67,42
237.73698,238.6629,55,60,42
241.07031,241.46384,63,45,42
241.62587,242.0194,58,45,42
242.18143,242.36661,55,45,42
242.73698,245.91005,51,45,42
247.92929,248.30875,43,45,42
247.92929,248.30875,55,45,42
248.465,248.84447,43,45,42
248.465,248.84447,55,45,42
249.00072,249.17929,43,45,42
249.00072,249.17929,55,45,42
249.53642,249.9159,43,45,42
249.53642,249.9159,55,45,42
250.07214,250.4516,43,45,42
250.07214,250.4516,55,45,42
250.60785,250.78642,43,45,42
250.60785,250.78642,55,45,42
251.14357,251.52304,43,45,42
251.14357,251.52304,55,45,42
251.67929,252.05875,43,45,42
251.67929,252.05875,55,45,42
252.215,252.39357,43,45,42
252.215,252.39357,55,45,42
252.75072,253.13017,43,45,42
252.75072,253.13017,55,45,42
253.28642,253.6659,43,50,42
253.28642,253.6659,55,50,42
253.82214,254.00072,43,55,42
253.82214,254.00072,55,55,42
254.35785,254.73732,43,60,42
254.35785,254.73732,55,60,42
254.89357,255.27303,43,65,42
254.89357,255.27303,55,65,42
255.42928,255.60785,43,70,42
255.42928,255.60785,55,70,42
255.965,256.34445,43,75,42
255.965,256.34445,55,75,42
256.5007,256.8802,43,80,42
256.5007,256.8802,55,80,42
257.03644,257.215,43,86,42
257.03644,257.215,55,86,42
257.57214,257.96277,36,92,42
257.57214,257.96277,43,92,42
257.70605,258.8668,52,92,42
257.70605,259.1793,60,92,42
259.1793,259.70383,36,60,42
273.64355,275.07214,67,60,42
275.2507,276.67926,67,60,42
276.85785,278.465,67,60,42
278.465,280.0721,72,60,42
280.0721,281.5007,70,60,42
281.67926,283.2864,69,60,42
283.2864,284.89355,71,70,42
284.89355,286.3221,72,81,42
286.5007,288.3757,72,92,42
288.3757,288.64355,76,92,42
288.64355,288.9114,74,90,42
288.9114,289.17926,72,87,42
289.17926,289.4471,71,84,42
289.4471,289.70383,69,81,42
289.71497,289.98285,67,78,42
289.98285,290.2507,69,75,42
290.2507,290.51855,67,72,42
290.51855,290.7864,65,69,42
290.7864,291.05426,64,66,42
291.05426,291.31097,62,63,42
291.3221,292.21497,60,60,42
293.46497,293.64355,64,92,42
294.0007,294.26855,64,75,42
294.40247,294.5364,65,75,42
294.5364,295.0721,64,75,42
295.0721,295.59668,62,60,42
295.60782,295.7864,64,60,42
296.14355,298.2864,67,92,42
298.2864,298.81094,65,92,42
298.8221,299.0007,62,92,42
299.35782,299.89355,65,75,42
299.89355,300.4181,64,75,42
300.42926,300.60782,60,75,42
300.96497,301.14355,62,60,42
301.50067,301.67926,59,60,42
302.0364,302.21497,55,60,42
302.5721,303.09668,43,60,42
305.7864,307.39355,59,92,42
307.39355,307.9181,60,60,42
310.60782,312.21497,59,60,42
312.21497,313.8221,62,75,42
313.8221,315.25067,60,92,42
315.42926,318.10782,60,60,42
318.10782,318.6324,63,60,42
318.64352,319.71497,59,60,42
319.71497,320.2395,62,60,42
320.25067,321.14352,60,60,42
329.89352,334.71497,68,60,42
334.71497,336.85782,68,45,42
336.85782,337.39352,70,60,42
337.39352,337.78415,68,60,42
337.79532,337.92923,68,84,42
337.92923,338.46497,66,60,42
338.46497,339.00067,65,60,42
339.00067,339.5252,66,60,42
339.53638,341.14352,66,60,42
341.14352,343.01852,65,65,42
343.28638,343.46494,65,72,42
343.82208,344.00067,65,73,42
344.35782,345.96494,66,74,42
345.96494,347.83994,65,80,42
348.10782,348.28638,65,88,42
348.64352,348.82208,65,90,42
349.17923,351.32208,65,92,42
351.32208,351.8578,64,92,42
351.8578,352.38235,65,92,42
352.39352,352.92923,68,92,42
352.92923,353.4538,67,87,42
353.46494,353.64352,65,81,42
354.00067,354.89352,64,75,42
357.21494,358.82208,65,45,42
358.82208,359.74802,64,45,42
362.15543,363.82208,59,45,42
363.82208,364.78363,60,45,42
367.28363,369.0144,65,45,42
369.0144,369.97592,64,45,42
372.47592,374.08307,65,92,42
374.08307,374.26163,64,92,42
405.5305,405.90994,63,60,42
406.0662,406.24478,63,75,42
406.60193,407.13763,63,92,42
407.13763,407.67334,61,75,42
407.67334,408.1979,60,60,42
408.20908,409.10193,58,60,42
429.34457,433.09457,63,45,42
433.09457,433.6303,65,60,42
433.6303,434.15485,63,60,42
434.16602,437.91602,63,45,42
437.91602,438.45172,65,60,42
438.45172,438.9763,63,60,42
438.98743,442.73743,63,45,42
442.73743,443.27316,65,45,42
443.27316,443.7977,63,54,42
443.80887,444.18832,63,63,42
444.34457,444.72403,63,72,42
444.88028,445.05887,63,82,42
445.41602,445.95172,63,92,42
445.95172,446.48743,61,75,42
446.48743,447.012,60,60,42
447.02313,447.91602,58,45,42
451.84457,455.05887,58,60,42
455.05887,456.48743,56,75,42
456.666,458.27313,61,75,42
458.27313,459.70172,60,65,42
459.88028,460.416,58,55,42
460.416,460.95172,63,52,42
460.95172,461.47626,61,49,42
461.48743,462.38028,60,45,42
463.63028,463.80884,51,45,42
464.166,464.34457,49,45,42
464.70172,464.88028,48,45,42
465.23743,465.416,46,45,42
465.77313,465.95172,44,45,42
466.30884,466.57672,43,45,42
468.45172,468.63028,51,60,42
468.98743,469.166,50,60,42
469.52313,469.7017,51,60,42
470.05884,470.23743,53,60,42
470.59457,470.77313,55,60,42
471.13028,471.39813,56,60,42
473.27313,473.4517,44,60,42
473.80884,473.98743,43,60,42
474.34457,474.52313,44,60,42
474.88028,475.05884,46,60,42
475.416,475.59457,48,60,42
475.9517,476.21957,49,60,42
477.55884,477.8267,46,60,42
479.166,479.43384,51,60,42
480.77313,482.38028,61,75,42
482.38028,484.52313,60,92,42
484.52313,485.05884,56,92,42
485.05884,485.3267,58,75,42
485.3267,485.5834,60,75,42
485.59454,485.8624,61,60,42
487.2017,487.46954,46,60,42
488.80884,489.0767,51,60,42
490.416,492.02313,67,75,42
492.02313,493.89813,68,92,42
494.166,494.7017,56,92,42
494.7017,494.96954,58,75,42
494.96954,495.22626,60,75,42
495.2374,496.13025,61,60,42
500.05884,500.2374,37,60,42
500.59454,500.77313,41,60,42
501.13025,501.30884,46,60,42
501.666,501.84454,37,60,42
502.2017,502.38025,41,60,42
502.7374,502.916,46,60,42
503.2731,503.4517,37,60,42
503.80884,503.9874,41,60,42
504.34454,504.5231,46,60,42
504.88025,505.7731,39,60,42
509.7017,509.88025,39,60,42
510.2374,510.41595,44,60,42
510.7731,510.9517,48,60,42
511.30884,511.4874,39,60,42
511.84454,512.02313,44,60,42
512.38025,512.55884,48,60,42
512.91595,513.09454,51,60,42
513.45166,513.63025,56,70,42
513.98737,514.16595,60,81,42
514.52313,515.41595,51,92,42
514.52313,515.41595,61,92,42
519.34454,520.27045,51,45,42
519.34454,520.27045,58,45,42
524.542,525.542,51,45,42
524.542,525.542,60,45,42
535.4491,535.9848,51,75,42
535.9848,538.1277,63,92,42
538.1277,538.6522,61,75,42
538.6634,538.842,60,75,42
539.1991,539.72363,58,60,42
541.8777,542.4134,39,75,42
542.4134,542.9379,51,92,42
542.9491,543.4848,39,75,42
543.4848,543.7527,41,75,42
543.7527,544.0094,43,75,42
544.0205,544.5563,44,75,42
544.5563,545.092,43,60,42
545.092,545.6165,41,60,42
545.6277,547.7705,39,92,42
547.7705,548.2951,41,75,42
548.3063,548.4848,43,75,42
548.842,549.11975,44,92,42
549.11975,549.3975,43,92,42
549.3975,549.6753,46,82,42
549.6753,549.95306,44,71,42
549.95306,550.23083,43,60,42
550.23083,550.4971,41,60,42
550.5086,552.7522,39,92,42
552.7522,553.31714,41,75,42
553.32916,553.5214,43,75,42
553.90607,554.90607,44,60,42
557.58105,559.5684,60,45,42
559.8462,565.3462,56,30,42
4.821426,5.35714,60,45,0
5.35714,5.8816934,63,45,0
5.892854,6.0714254,63,45,0
6.428568,6.964282,60,45,0
6.964282,7.4888353,63,45,0
7.499996,7.6785674,63,45,0
8.03571,8.571424,60,60,0
8.571424,9.095977,63,60,0
9.107138,9.285709,63,60,0
9.642852,10.178566,61,60,0
10.178566,10.703119,63,60,0
10.71428,10.892851,63,60,0
11.249994,11.785708,61,45,0
11.785708,12.310262,63,45,0
12.321422,12.499993,63,45,0
12.857136,13.39285,61,45,0
13.39285,13.917403,63,45,0
13.928564,14.107136,63,45,0
14.464278,14.999992,58,45,0
14.999992,15.524546,63,48,0
15.535706,15.714277,63,51,0
16.07142,16.607134,55,54,0
16.607134,17.131687,63,57,0
17.142847,17.321419,63,60,0
17.678562,18.214275,58,63,0
18.214275,18.738829,63,67,0
18.74999,18.928562,63,71,0
19.285704,19.821419,55,75,0
19.821419,20.345972,63,75,0
20.357132,20.535704,63,60,0
20.892845,21.417398,63,60,0
20.892845,21.417398,75,60,0
21.42856,21.808023,63,68,0
21.42856,21.808023,75,68,0
21.964273,22.142845,63,76,0
21.964273,22.142845,75,76,0
22.499989,23.035702,63,84,0
22.499989,23.035702,75,84,0
23.035702,23.571417,61,92,0
23.035702,23.571417,73,92,0
23.571417,24.09597,60,75,0
23.571417,24.09597,72,75,0
24.10713,24.642843,58,60,0
24.10713,24.642843,70,60,0
24.642843,25.167397,65,45,0
25.178558,25.35713,65,45,0
25.714272,26.249987,61,60,0
26.249987,26.77454,65,60,0
26.7857,26.964272,65,60,0
27.321415,27.857128,58,75,0
27.857128,28.381681,65,75,0
28.392841,28.571413,65,75,0
28.928556,29.46427,58,60,0
29.46427,29.988823,63,60,0
29.999985,30.178555,63,60,0
30.535698,31.071411,58,60,0
31.071411,31.595964,63,60,0
31.607126,31.785698,63,60,0
32.14284,32.678555,60,60,0
32.678555,33.203106,63,60,0
33.214268,33.392838,63,60,0
33.74998,34.285694,58,60,0
34.285694,34.81025,63,61,0
34.82141,34.99998,63,62,0
35.357124,35.892838,58,63,0
35.892838,36.417393,63,65,0
36.42855,36.607124,63,67,0
36.964268,37.05355,56,69,0
37.05355,37.142838,58,69,0
37.142838,37.232124,56,69,0
37.232124,37.321407,58,69,0
37.321407,37.399532,56,69,0
37.410694,37.48882,58,69,0
37.49998,38.035694,60,69,0
38.035694,38.560246,58,72,0
38.571407,40.20777,56,75,0
40.20777,41.133698,55,60,0
43.605206,46.272617,80,60,0
46.283775,46.417706,82,60,0
46.417706,46.551636,80,60,0
46.551636,46.685562,79,60,0
46.685562,46.819492,80,60,0
46.819492,47.89092,84,60,0
47.89092,48.415474,82,60,0
48.426632,50.033775,80,60,0
50.033775,51.908775,79,60,0
52.176632,52.556095,79,60,0
52.712345,52.890915,80,60,0
53.24806,55.12306,82,60,0
55.390915,55.77038,82,66,0
55.92663,56.1052,84,67,0
56.46234,56.99806,85,69,0
56.99806,57.52261,87,71,0
57.53377,57.71234,82,73,0
58.069485,59.67663,85,75,0
59.67663,60.569485,84,60,0
62.89091,64.498055,82,60,0
64.498055,66.105194,85,60,0
66.105194,67.53377,89,60,0
67.71233,69.31948,79,60,0
69.31948,70.92662,85,75,0
70.92662,71.81948,84,92,0
72.39983,72.53376,84,75,0
72.53376,72.80162,82,75,0
72.80162,73.06947,81,74,0
73.06947,73.33733,82,73,0
73.33733,73.605194,84,72,0
73.605194,73.87305,85,71,0
73.87305,74.129745,82,70,0
74.14091,76.55162,80,69,0
76.55162,76.81947,79,51,0
76.81947,77.08733,84,49,0
77.08733,77.344025,82,47,0
77.35519,77.879745,80,45,0
77.8909,78.41546,63,45,0
78.42662,78.95117,63,45,0
78.96233,79.486885,63,45,0
79.49805,80.0226,63,45,0
80.03376,80.55831,63,45,0
80.56947,81.094025,63,45,0
81.10519,81.62974,63,45,0
81.6409,82.16545,63,45,0
82.17661,82.70117,58,45,0
82.17661,82.70117,61,45,0
82.17661,82.70117,63,45,0
82.712326,83.236885,58,45,0
82.712326,83.236885,61,45,0
82.712326,83.236885,63,45,0
83.24804,83.7726,58,45,0
83.24804,83.7726,61,45,0
83.24804,83.7726,63,45,0
83.78376,84.30831,58,45,0
83.78376,84.30831,61,45,0
83.78376,84.30831,63,45,0
84.31947,84.844025,58,45,0
84.31947,84.844025,61,45,0
84.31947,84.844025,63,45,0
84.85519,85.37974,58,45,0
84.85519,85.37974,61,45,0
84.85519,85.37974,63,45,0
85.3909,85.91545,58,45,0
85.3909,85.91545,61,45,0
85.3909,85.91545,63,45,0
85.92661,86.451164,58,45,0
85.92661,86.451164,61,45,0
85.92661,86.451164,63,45,0
86.462326,86.98688,58,45,0
86.462326,86.98688,61,45,0
86.462326,86.98688,63,45,0
86.99804,87.52259,60,45,0
86.99804,87.52259,63,45,0
87.53375,88.05831,60,45,0
87.53375,88.05831,63,45,0
88.069466,88.594025,60,45,0
88.069466,88.594025,63,45,0
88.60519,89.12974,60,45,0
88.60519,89.12974,63,45,0
89.1409,89.66545,60,45,0
89.1409,89.66545,63,45,0
89.67661,90.201164,60,45,0
89.67661,90.201164,63,45,0
90.212326,90.73688,60,45,0
90.212326,90.73688,63,45,0
90.74804,91.27259,60,45,0
90.74804,91.27259,63,45,0
91.28375,91.808304,60,45,0
91.28375,91.808304,63,45,0
91.819466,92.34402,58,45,0
91.819466,92.34402,65,45,0
92.35518,92.87974,61,45,0
92.35518,92.87974,65,45,0
92.89089,93.41545,61,45,0
92.89089,93.41545,65,45,0
93.962326,94.48688,61,45,0
93.962326,94.48688,65,45,0
94.49804,95.02259,61,45,0
94.49804,95.02259,65,45,0
95.569466,96.09402,58,45,0
95.569466,96.09402,61,45,0
96.10518,96.62973,58,45,0
96.10518,96.62973,61,45,0
96.64089,97.53375,60,45,0
98.78375,98.96232,72,45,0
98.78375,98.96232,84,45,0
99.319466,99.49803,70,45,0
99.319466,99.49803,82,45,0
99.85518,100.033745,68,45,0
99.85518,100.033745,80,45,0
100.39089,100.569466,67,45,0
100.39089,100.569466,79,45,0
100.926605,101.10518,65,45,0
100.926605,101.10518,77,45,0
101.46232,101.64089,64,45,0
101.46232,101.64089,76,45,0
101.99803,102.176605,58,45,0
101.99803,102.176605,60,45,0
102.533745,102.71232,58,45,0
102.533745,102.71232,60,45,0
103.06946,103.24803,58,45,0
103.06946,103.24803,60,45,0
103.60517,103.783745,72,45,0
104.14089,104.31946,71,45,0
104.676605,104.85517,72,45,0
105.21232,105.39089,74,45,0
105.74803,105.926605,76,45,0
106.283745,106.46232,65,45,0
106.283745,106.46232,77,45,0
106.81946,106.99803,56,45,0
106.81946,106.99803,60,45,0
107.35517,107.533745,56,45,0
107.35517,107.533745,60,45,0
107.890884,108.06946,56,45,0
107.890884,108.06946,60,45,0
108.4266,108.60517,77,45,0
108.96232,109.140884,76,45,0
109.49803,109.6766,77,45,0
110.033745,110.21231,79,45,0
110.56946,110.74803,80,45,0
111.10517,111.283745,68,45,0
111.10517,111.283745,80,45,0
111.640884,111.81946,56,47,0
111.640884,111.81946,58,47,0
112.1766,112.35517,56,49,0
112.1766,112.35517,58,49,0
112.71231,112.890884,56,51,0
112.71231,112.890884,58,51,0
113.248024,113.4266,70,53,0
113.783745,113.96231,71,55,0
114.31946,114.498024,72,57,0
114.85517,115.03374,73,59,0
115.390884,115.56946,74,62,0
115.9266,116.10517,63,65,0
115.9266,116.10517,75,65,0
116.46231,116.640884,63,68,0
116.46231,116.640884,67,68,0
116.998024,117.1766,63,71,0
116.998024,117.1766,67,71,0
117.53374,117.71231,69,74,0
118.06945,118.248024,69,77,0
118.06945,118.248024,81,77,0
118.60516,118.78374,70,80,0
118.60516,118.78374,82,80,0
119.140884,119.31945,72,83,0
119.140884,119.31945,84,83,0
119.6766,119.85516,74,86,0
119.6766,119.85516,86,86,0
120.21231,120.39088,75,89,0
120.21231,120.39088,87,89,0
120.748024,121.272575,74,92,0
120.748024,121.272575,86,92,0
121.28374,121.6632,70,60,0
121.81945,121.998024,70,60,0
122.35516,122.44445,70,60,0
122.44445,122.53374,72,60,0
122.53374,122.623024,70,60,0
122.623024,122.71231,72,60,0
122.71231,122.80159,70,60,0
122.80159,122.89088,72,60,0
122.89088,122.98016,70,60,0
122.98016,123.06945,72,60,0
123.06945,123.15874,70,60,0
123.15874,123.248024,72,60,0
123.248024,123.33731,70,60,0
123.33731,123.42659,72,60,0
123.42659,123.51588,70,60,0
123.51588,123.60516,72,60,0
123.60516,123.69445,70,60,0
123.69445,123.78374,72,60,0
123.78374,123.873024,70,60,0
123.873024,123.96231,72,60,0
123.96231,124.05159,70,60,0
124.05159,124.14088,72,60,0
124.14088,124.23016,70,60,0
124.23016,124.31945,72,60,0
124.31945,124.40874,70,59,0
124.40874,124.498024,72,58,0
124.498024,124.5873,70,57,0
124.5873,124.67659,72,56,0
124.67659,124.76588,70,55,0
124.76588,124.85516,72,54,0
124.85516,124.94445,70,53,0
124.94445,125.03374,72,52,0
125.03374,125.123024,70,51,0
125.123024,125.2123,72,50,0
125.2123,125.30159,70,49,0
125.30159,125.39088,72,48,0
125.39088,125.48016,70,47,0
125.48016,125.55829,72,46,0
125.56945,125.65874,70,45,0
125.65874,125.748024,72,45,0
125.748024,125.8373,70,45,0
125.8373,125.92659,72,45,0
125.92659,126.01588,70,45,0
126.01588,126.10516,72,45,0
126.10516,126.19445,70,45,0
126.19445,126.28374,72,45,0
126.28374,126.37302,70,45,0
126.37302,126.4623,72,45,0
126.4623,126.55159,70,45,0
126.55159,126.629715,72,45,0
127.7123,128.09177,62,92,0
127.7123,128.09177,74,92,0
128.24802,128.42659,62,92,0
128.24802,128.42659,74,92,0
128.78374,129.31944,63,92,0
128.78374,129.31944,75,92,0
129.31944,129.844,65,92,0
129.31944,129.844,77,92,0
129.85516,130.03374,66,92,0
129.85516,130.03374,78,92,0
130.39087,130.66866,68,92,0
130.39087,130.66866,80,92,0
132.63446,132.92293,61,92,0
132.63446,132.92293,73,92,0
132.92293,133.19937,62,92,0
132.92293,133.19937,74,92,0
133.21138,133.49985,61,92,0
133.21138,133.49985,73,92,0
133.49985,133.77629,62,92,0
133.49985,133.77629,74,92,0
133.78831,134.07677,62,92,0
133.78831,134.07677,74,92,0
134.07677,134.35321,63,92,0
134.07677,134.35321,75,92,0
134.36523,134.6537,64,92,0
134.36523,134.6537,76,92,0
134.6537,134.93013,65,92,0
134.6537,134.93013,77,92,0
134.94215,135.24216,66,92,0
134.94215,135.24216,78,92,0
135.24216,135.52966,67,92,0
135.24216,135.52966,79,92,0
135.54216,135.74216,68,92,0
135.74216,135.94215,74,92,0
135.94215,136.14215,77,92,0
136.14215,137.91908,80,92,0
137.91908,138.48398,77,75,0
138.496,138.68831,74,60,0
139.07292,139.46645,70,60,0
139.62848,140.022,69,60,0
140.18404,140.36922,68,60,0
140.7396,142.6146,67,60,0
142.88245,143.06102,67,60,0
143.41817,143.68602,67,66,0
143.81995,143.95387,68,70,0
143.95387,144.4896,67,71,0
144.4896,145.01414,65,78,0
145.0253,145.20387,67,85,0
145.56102,147.70387,70,92,0
147.70387,148.22842,68,92,0
148.2396,148.41815,65,86,0
148.7753,149.31102,68,80,0
149.31102,149.83557,67,74,0
149.84673,150.0253,63,67,0
150.38245,151.8445,62,60,0
150.38245,151.8445,65,60,0
151.85565,151.97842,62,60,0
151.85565,151.97842,65,60,0
151.9896,152.51414,62,60,0
151.9896,152.51414,65,60,0
162.16815,162.54762,60,60,0
162.16815,162.54762,68,60,0
162.70387,162.88243,60,66,0
162.70387,162.88243,68,66,0
163.23958,163.61905,60,72,0
163.23958,163.61905,68,72,0
163.7753,164.15475,60,78,0
163.7753,164.15475,68,78,0
164.311,164.48958,60,85,0
164.311,164.48958,69,85,0
164.84673,165.91815,65,92,0
164.84673,165.91815,70,92,0
165.91815,166.45386,62,60,0
165.91815,166.45386,68,60,0
166.45386,166.97842,63,60,0
166.45386,166.97842,67,60,0
166.98958,167.36905,72,65,0
167.5253,167.70386,72,70,0
168.061,168.44048,72,75,0
168.59673,168.97618,72,80,0
169.13243,169.311,72,86,0
169.66815,170.1927,65,92,0
170.20386,170.73958,62,92,0
170.20386,170.73958,65,92,0
170.73958,171.26413,65,92,0
170.73958,171.26413,70,92,0
171.811,172.34673,62,75,0
171.811,172.34673,65,75,0
172.34673,172.87128,65,75,0
172.34673,172.87128,68,75,0
173.41815,173.95386,60,60,0
173.41815,173.95386,63,60,0
173.95386,174.47841,63,60,0
173.95386,174.47841,67,60,0
175.02528,175.54984,56,45,0
175.02528,175.54984,60,45,0
175.561,176.08556,60,45,0
175.561,176.08556,65,45,0
176.63243,177.15698,55,60,0
176.63243,177.15698,58,60,0
177.16814,177.6927,58,60,0
177.16814,177.6927,63,60,0
178.23958,178.76413,53,75,0
178.23958,178.76413,58,75,0
178.77528,179.29984,58,75,0
178.77528,179.29984,62,75,0
179.311,180.73958,70,92,0
179.311,180.73958,82,92,0
180.91814,181.186,81,60,0
181.186,181.45386,82,60,0
181.45386,181.72171,84,60,0
181.72171,181.98956,82,60,0
181.98956,182.25743,81,60,0
182.25743,182.52528,82,60,0
182.52528,182.79314,78,60,0
182.79314,183.061,79,60,0
183.061,183.32886,80,60,0
183.32886,183.59671,79,60,0
183.59671,183.86456,78,60,0
183.86456,184.12126,79,60,0
184.13243,184.40028,74,60,0
184.40028,184.66814,75,60,0
184.66814,184.93599,77,60,0
184.93599,185.20386,75,60,0
185.20386,185.47171,74,60,0
185.47171,185.72841,75,60,0
185.73956,186.00743,69,60,0
186.00743,186.27528,70,60,0
186.27528,186.54314,72,60,0
186.54314,186.81099,70,60,0
186.81099,187.07886,69,60,0
187.07886,187.33556,70,60,0
187.34671,187.61456,66,60,0
187.61456,187.88243,67,60,0
187.88243,188.15028,70,60,0
188.15028,188.41814,67,60,0
188.41814,188.68599,65,60,0
188.68599,188.94269,63,60,0
188.95386,189.22171,62,60,0
189.22171,189.48956,60,60,0
189.48956,189.75742,59,60,0
189.75742,190.02528,60,60,0
190.02528,190.29314,65,60,0
190.29314,190.54984,64,60,0
190.56099,190.82886,67,60,0
190.82886,191.09671,65,60,0
191.09671,191.36456,68,60,0
191.36456,191.63242,67,60,0
191.63242,191.90028,70,60,0
191.90028,192.15698,68,60,0
192.16814,192.43599,72,60,0
192.43599,192.70386,71,60,0
192.70386,192.97171,74,60,0
192.97171,193.23956,72,60,0
193.23956,193.50742,77,60,0
193.50742,193.76411,76,60,0
193.77528,194.04314,79,60,0
194.04314,194.31099,77,61,0
194.31099,194.57884,81,62,0
194.57884,194.84671,79,63,0
194.84671,195.11456,82,64,0
195.11456,195.37126,81,66,0
195.38242,195.65028,84,68,0
195.65028,195.91814,83,70,0
195.91814,196.18599,86,72,0
196.18599,196.44269,84,74,0
196.45384,197.52527,87,76,0
197.52527,198.04984,86,84,0
198.06099,198.23956,84,88,0
198.59671,198.77527,82,92,0
198.86456,199.13242,81,60,0
199.13242,199.38911,84,60,0
199.40027,199.66814,82,60,0
199.66814,199.92484,81,60,0
199.93599,200.20384,82,60,0
200.20384,200.46054,84,60,0
200.47171,200.73956,82,59,0
200.73956,200.99626,81,58,0
201.00742,201.27527,82,57,0
201.27527,201.53197,84,56,0
201.54314,201.81099,82,55,0
201.81099,202.06769,81,54,0
202.07884,202.3467,82,53,0
202.3467,202.6034,84,52,0
202.61456,202.88242,82,51,0
202.88242,203.13911,80,49,0
203.15027,203.41814,79,47,0
203.41814,203.68433,82,45,0
203.6959,203.97368,80,45,0
203.97368,204.23988,79,45,0
204.25146,204.52924,77,45,0
204.52924,204.79544,76,45,0
204.80702,205.0848,77,45,0
205.0848,205.36124,79,45,0
205.37326,205.66171,77,45,0
205.66171,205.93816,75,45,0
205.95018,206.23865,74,45,0
206.23865,206.51509,72,45,0
206.5271,206.81557,70,45,0
206.81557,207.10307,69,45,0
207.11557,207.41557,70,45,0
207.41557,207.70306,72,45,0
207.71556,208.01556,70,45,0
208.01556,208.30307,68,45,0
208.31557,208.61557,65,45,0
208.61557,209.20306,63,45,0
209.81557,210.41557,58,75,0
210.41557,212.55843,67,92,0
212.55843,213.08298,65,92,0
213.09413,213.2727,63,75,0
213.62985,214.5227,62,60,0
215.23698,217.37985,68,92,0
215.23698,217.37985,70,92,0
217.37985,217.9044,68,75,0
217.37985,217.9044,70,75,0
217.91556,218.09413,68,75,0
217.91556,218.09413,70,75,0
218.45128,218.97583,67,60,0
218.45128,218.97583,70,60,0
220.05841,222.20128,63,92,0
220.05841,222.20128,75,92,0
222.20128,222.72583,65,75,0
222.20128,222.72583,74,75,0
222.20128,222.72583,77,75,0
222.73698,222.91556,67,60,0
222.73698,222.91556,70,60,0
222.73698,222.91556,75,60,0
222.73698,222.91556,79,60,0
223.2727,224.16556,68,60,0
223.2727,224.16556,77,60,0
223.2727,224.16556,80,60,0
226.48698,227.91556,70,92,0
226.48698,228.36198,82,92,0
228.36198,228.62984,81,92,0
228.62984,228.8977,82,75,0
228.8977,229.16556,81,75,0
229.16556,229.43341,82,60,0
229.43341,229.69011,81,60,0
229.70126,230.22583,82,60,0
230.23698,230.76154,82,60,0
230.7727,231.29726,82,60,0
231.30841,232.73698,70,92,0
231.30841,233.18341,82,92,0
233.18341,233.45126,81,92,0
233.45126,233.71913,82,75,0
233.71913,233.98698,81,75,0
233.98698,234.25484,82,60,0
234.25484,234.51154,81,60,0
234.52269,235.04724,82,60,0
235.05841,235.58296,82,60,0
235.59412,236.11868,82,60,0
236.12984,236.21912,82,92,0
236.21912,236.30841,84,92,0
236.30841,236.39769,82,91,0
236.39769,236.48698,84,90,0
236.48698,236.57626,82,88,0
236.57626,236.66556,84,86,0
236.66556,236.75484,82,84,0
236.75484,236.84412,84,82,0
236.84412,236.93341,82,80,0
236.93341,237.02269,84,78,0
237.02269,237.11198,82,76,0
237.11198,237.20126,84,74,0
237.20126,237.29056,82,72,0
237.29056,237.37984,84,70,0
237.37984,237.46912,82,68,0
237.46912,237.55841,84,66,0
237.55841,237.64769,82,64,0
237.64769,237.73698,84,62,0
237.73698,238.29254,82,60,0
238.29254,238.83652,87,45,0
238.84808,239.03328,82,45,0
239.40364,239.79716,79,45,0
239.9592,240.35272,75,45,0
240.51476,240.69994,70,45,0
241.07031,241.46384,67,45,0
241.62587,242.0194,63,45,0
242.18143,242.36661,58,45,0
242.73698,245.91005,55,45,0
242.73698,245.91005,63,45,0
252.75072,253.13017,55,45,0
252.75072,253.13017,67,45,0
253.28642,253.6659,55,50,0
253.28642,253.6659,67,50,0
253.82214,254.00072,55,55,0
253.82214,254.00072,67,55,0
254.35785,254.73732,55,60,0
254.35785,254.73732,67,60,0
254.89357,255.27303,55,65,0
254.89357,255.27303,67,65,0
255.42928,255.60785,55,70,0
255.42928,255.60785,67,70,0
255.965,256.34445,55,75,0
255.965,256.34445,67,75,0
256.5007,256.8802,55,80,0
256.5007,256.8802,67,80,0
257.03644,257.215,55,86,0
257.03644,257.215,67,86,0
257.57214,257.65027,60,92,0
257.66144,257.73956,64,92,0
257.7507,257.82883,67,92,0
257.84,260.23953,72,92,0
260.2507,260.38464,74,60,0
260.38464,260.51855,72,60,0
260.51855,260.6525,71,60,0
260.6525,260.7864,72,60,0
260.7864,261.85785,76,60,0
261.85785,262.38242,74,60,0
262.39355,263.82214,72,60,0
264.0007,265.4293,71,60,0
265.60785,265.69714,73,60,0
265.69714,265.7864,74,60,0
265.7864,265.8757,73,60,0
265.8757,265.965,74,60,0
265.965,266.0543,73,60,0
266.0543,266.14355,74,60,0
266.14355,266.23285,73,60,0
266.23285,266.32214,74,60,0
266.32214,266.4114,73,60,0
266.4114,266.5007,74,60,0
266.5007,266.59,73,60,0
266.59,266.6793,74,60,0
266.6793,266.76855,73,60,0
266.76855,266.85785,74,60,0
266.85785,266.94714,73,60,0
266.94714,267.0364,74,60,0
267.0364,267.1257,71,60,0
267.1257,267.20383,73,60,0
267.215,269.2239,74,60,0
269.2239,269.35785,76,60,0
269.35785,269.6257,74,60,0
269.6257,269.89355,73,60,0
269.89355,270.1614,74,60,0
270.1614,270.42926,76,60,0
270.42926,270.69714,77,60,0
270.69714,270.965,79,60,0
270.965,271.23285,81,60,0
271.23285,271.5007,80,60,0
271.5007,271.76855,81,60,0
271.76855,272.02527,77,60,0
272.0364,273.64355,75,60,0
273.64355,273.82214,76,60,0
273.9114,274.17926,60,60,0
274.17926,274.44714,64,60,0
274.44714,274.715,67,60,0
274.715,274.98285,64,60,0
274.98285,275.23953,60,60,0
275.2507,275.51855,59,60,0
275.51855,275.7864,62,60,0
275.7864,276.05426,65,60,0
276.05426,276.3221,62,60,0
276.3221,276.59,60,60,0
276.59,276.84668,59,60,0
276.85785,277.1257,60,60,0
277.1257,277.39355,59,60,0
277.39355,277.6614,60,60,0
277.6614,277.92926,62,60,0
277.92926,278.1971,64,60,0
278.1971,278.45383,62,60,0
278.465,278.73285,60,60,0
278.73285,279.0007,59,60,0
279.0007,279.26855,60,60,0
279.26855,279.5364,62,60,0
279.5364,279.80426,64,60,0
279.80426,280.06097,62,60,0
280.0721,280.34,61,60,0
280.34,280.60785,59,60,0
280.60785,280.8757,61,60,0
280.8757,281.14355,62,60,0
281.14355,281.4114,64,60,0
281.4114,281.66812,61,60,0
281.67926,281.9471,62,60,0
281.9471,282.215,61,62,0
282.215,282.48285,62,64,0
282.48285,282.7507,64,66,0
282.7507,283.01855,65,68,0
283.01855,283.27524,64,70,0
283.2864,283.55426,62,72,0
283.55426,283.8221,65,74,0
283.8221,284.08997,68,76,0
284.08997,284.35785,65,78,0
284.35785,284.6257,62,80,0
284.6257,284.8824,59,82,0
284.89355,285.1614,63,84,0
285.1614,285.42926,60,86,0
285.42926,285.6971,63,89,0
285.6971,285.96497,66,92,0
285.96497,286.23285,69,92,0
286.23285,286.48953,72,75,0
286.5007,286.76855,64,60,0
286.76855,287.0364,60,60,0
287.0364,287.30426,64,60,0
287.30426,287.5721,67,60,0
287.5721,287.83997,72,60,0
287.83997,288.09668,76,60,0
288.10785,288.2864,79,60,0
288.3757,288.64355,55,60,0
288.64355,288.9114,60,60,0
288.9114,289.17926,55,60,0
289.17926,289.4471,60,60,0
289.4471,289.70383,55,60,0
289.71497,289.98285,59,60,0
289.98285,290.2507,55,60,0
290.2507,290.51855,53,60,0
290.2507,290.51855,59,60,0
290.51855,290.7864,55,60,0
290.7864,291.05426,53,60,0
290.7864,291.05426,59,60,0
291.05426,291.31097,55,60,0
291.3221,292.21497,52,60,0
291.3221,292.21497,60,60,0
293.46497,293.64355,76,92,0
294.0007,294.26855,76,75,0
294.40247,294.5364,77,75,0
294.5364,295.0721,76,60,0
295.0721,295.59668,74,60,0
295.60782,295.7864,76,60,0
296.14355,298.2864,79,92,0
298.2864,298.81094,77,92,0
298.8221,299.0007,74,92,0
299.35782,299.89355,77,75,0
299.89355,300.4181,76,75,0
300.42926,300.60782,72,75,0
300.96497,302.42703,62,60,0
300.96497,302.42703,71,60,0
300.96497,302.42703,74,60,0
302.43817,302.56094,62,60,0
302.43817,302.56094,71,60,0
302.43817,302.56094,74,60,0
302.5721,303.09668,62,60,0
302.5721,303.09668,71,60,0
302.5721,303.09668,74,60,0
303.10782,303.4873,69,60,0
303.10782,303.4873,77,60,0
303.64355,303.8221,69,66,0
303.64355,303.8221,77,66,0
304.17926,304.55872,69,72,0
304.17926,304.55872,77,72,0
304.71497,305.09442,69,78,0
304.71497,305.09442,77,78,0
305.25067,305.42926,69,85,0
305.25067,305.42926,78,85,0
305.7864,306.67926,79,92,0
306.85782,306.9471,77,92,0
306.9471,307.0364,79,87,0
307.0364,307.12567,77,82,0
307.12567,307.21497,79,77,0
307.21497,307.3824,77,72,0
307.39355,307.9181,76,60,0
307.92926,308.30872,69,60,0
307.92926,308.30872,77,60,0
308.46497,308.64352,69,68,0
308.46497,308.64352,77,68,0
309.00067,309.38016,69,76,0
309.00067,309.38016,77,76,0
309.5364,309.91586,69,84,0
309.5364,309.91586,77,84,0
310.0721,310.25067,69,92,0
310.0721,310.25067,78,92,0
310.60782,312.0364,67,60,0
310.60782,312.0364,79,60,0
312.21497,313.64352,65,75,0
312.21497,313.64352,77,75,0
313.8221,315.25067,63,92,0
313.8221,315.25067,75,92,0
315.42926,315.6971,73,60,0
315.6971,315.96497,74,60,0
315.96497,316.23282,75,60,0
316.23282,316.50067,77,60,0
316.50067,316.76852,79,60,0
316.76852,317.02524,80,60,0
317.03638,317.30426,80,60,0
317.30426,317.5721,79,60,0
317.5721,317.83997,77,60,0
317.83997,318.10782,75,60,0
318.10782,318.37567,74,60,0
318.37567,318.6324,72,60,0
318.64352,318.91138,79,60,0
318.91138,319.17926,77,60,0
319.17926,319.4471,75,60,0
319.4471,319.71497,74,60,0
319.71497,319.98282,72,60,0
319.98282,320.2395,71,60,0
320.25067,320.77524,63,60,0
320.25067,320.77524,67,60,0
320.25067,320.77524,72,60,0
320.78638,321.16586,60,45,0
321.3221,321.50067,60,45,0
321.85782,322.23727,60,45,0
322.39352,322.773,60,45,0
322.92926,323.10782,60,45,0
323.46497,323.84442,60,45,0
324.00067,324.38013,60,45,0
324.53638,324.71497,60,45,0
325.0721,325.45157,56,45,0
325.0721,325.45157,60,45,0
325.0721,325.45157,66,45,0
325.60782,325.98727,56,45,0
325.60782,325.98727,60,45,0
325.60782,325.98727,66,45,0
326.14352,326.3221,56,45,0
326.14352,326.3221,60,45,0
326.14352,326.3221,66,45,0
326.67923,327.05872,56,45,0
326.67923,327.05872,60,45,0
326.67923,327.05872,66,45,0
327.21497,327.59442,56,45,0
327.21497,327.59442,60,45,0
327.21497,327.59442,66,45,0
327.75067,327.92923,56,45,0
327.75067,327.92923,60,45,0
327.75067,327.92923,66,45,0
328.28638,328.66586,56,45,0
328.28638,328.66586,60,45,0
328.28638,328.66586,66,45,0
328.8221,329.20157,56,45,0
328.8221,329.20157,60,45,0
328.8221,329.20157,66,45,0
329.35782,329.53638,56,45,0
329.35782,329.53638,60,45,0
329.35782,329.53638,66,45,0
329.89352,330.27298,56,45,0
329.89352,330.27298,61,45,0
329.89352,330.27298,66,45,0
330.42923,330.80872,56,45,0
330.42923,330.80872,61,45,0
330.42923,330.80872,66,45,0
330.96497,331.14352,56,45,0
330.96497,331.14352,61,45,0
330.96497,331.14352,66,45,0
331.50067,331.88013,56,45,0
331.50067,331.88013,61,45,0
331.50067,331.88013,65,45,0
332.03638,332.41586,56,45,0
332.03638,332.41586,61,45,0
332.03638,332.41586,65,45,0
332.5721,332.75067,56,45,0
332.5721,332.75067,61,45,0
332.5721,332.75067,65,45,0
333.10782,333.48727,56,45,0
333.10782,333.48727,61,45,0
333.10782,333.48727,65,45,0
333.64352,334.02298,56,45,0
333.64352,334.02298,61,45,0
333.64352,334.02298,65,45,0
334.17923,334.35782,56,45,0
334.17923,334.35782,61,45,0
334.17923,334.35782,65,45,0
334.71497,335.09442,54,45,0
334.71497,335.09442,60,45,0
334.71497,335.09442,63,45,0
335.25067,335.63013,54,45,0
335.25067,335.63013,60,45,0
335.25067,335.63013,63,45,0
335.78638,335.96497,54,45,0
335.78638,335.96497,60,45,0
335.78638,335.96497,63,45,0
336.32208,336.70157,54,45,0
336.32208,336.70157,60,45,0
336.32208,336.70157,63,45,0
336.85782,337.23727,54,45,0
336.85782,337.23727,60,45,0
336.85782,337.23727,63,45,0
337.39352,337.57208,54,45,0
337.39352,337.57208,60,45,0
337.39352,337.57208,63,45,0
337.92923,338.30872,54,45,0
337.92923,338.30872,60,45,0
337.92923,338.30872,63,45,0
338.46497,338.84442,54,45,0
338.46497,338.84442,60,45,0
338.46497,338.84442,63,45,0
339.00067,339.17923,54,45,0
339.00067,339.17923,60,45,0
339.00067,339.17923,63,45,0
339.53638,339.91583,53,45,0
339.53638,339.91583,60,45,0
339.53638,339.91583,63,45,0
340.07208,340.45157,53,47,0
340.07208,340.45157,60,47,0
340.07208,340.45157,63,47,0
340.60782,340.78638,53,49,0
340.60782,340.78638,60,49,0
340.60782,340.78638,63,49,0
341.14352,341.52298,53,51,0
341.14352,341.52298,60,51,0
341.14352,341.52298,63,51,0
341.67923,342.0587,53,53,0
341.67923,342.0587,60,53,0
341.67923,342.0587,63,53,0
342.21494,342.39352,53,55,0
342.21494,342.39352,60,55,0
342.21494,342.39352,63,55,0
342.75067,343.13013,53,57,0
342.75067,343.13013,60,57,0
342.75067,343.13013,63,57,0
343.28638,343.66583,53,59,0
343.28638,343.66583,60,59,0
343.28638,343.66583,63,59,0
343.82208,344.00067,53,62,0
343.82208,344.00067,60,62,0
343.82208,344.00067,63,62,0
344.35782,344.73727,53,65,0
344.35782,344.73727,58,65,0
344.35782,344.73727,61,65,0
344.89352,345.27298,53,68,0
344.89352,345.27298,58,68,0
344.89352,345.27298,61,68,0
345.42923,345.60782,53,71,0
345.42923,345.60782,58,71,0
345.42923,345.60782,61,71,0
345.96494,346.34442,53,74,0
345.96494,346.34442,58,74,0
345.96494,346.34442,61,74,0
346.50067,346.88013,53,77,0
346.50067,346.88013,58,77,0
346.50067,346.88013,61,77,0
347.03638,347.21494,53,80,0
347.03638,347.21494,58,80,0
347.03638,347.21494,61,80,0
347.57208,347.95157,53,83,0
347.57208,347.95157,56,83,0
347.57208,347.95157,60,83,0
348.10782,348.48727,53,86,0
348.10782,348.48727,56,86,0
348.10782,348.48727,60,86,0
348.64352,348.82208,53,89,0
348.64352,348.82208,56,89,0
348.64352,348.82208,60,89,0
349.17923,349.5587,53,92,0
349.17923,349.5587,58,92,0
349.71494,350.09442,53,75,0
349.71494,350.09442,58,75,0
350.25067,350.42923,53,60,0
350.25067,350.42923,58,60,0
350.78638,351.16583,53,92,0
350.78638,351.16583,56,92,0
350.78638,351.16583,59,92,0
351.32208,351.70154,53,92,0
351.32208,351.70154,56,92,0
351.32208,351.70154,59,92,0
351.8578,352.03638,53,92,0
351.8578,352.03638,56,92,0
351.8578,352.03638,59,92,0
352.39352,352.77298,53,92,0
352.39352,352.77298,55,92,0
352.39352,352.77298,59,92,0
352.92923,353.3087,53,92,0
352.92923,353.3087,55,92,0
352.92923,353.3087,59,92,0
353.46494,353.64352,53,92,0
353.46494,353.64352,55,92,0
353.46494,353.64352,59,92,0
354.00067,354.89352,52,92,0
354.00067,354.89352,55,92,0
354.00067,354.89352,60,92,0
357.21494,358.82208,68,45,0
358.82208,359.74802,67,45,0
362.15543,363.82208,68,45,0
363.82208,364.78363,67,45,0
367.28363,369.0144,68,45,0
367.28363,369.0144,80,45,0
369.0144,369.97592,67,45,0
369.0144,369.97592,79,45,0
372.47592,374.08307,71,92,0
372.47592,374.08307,74,92,0
372.47592,374.08307,77,92,0
372.47592,374.08307,80,92,0
372.47592,374.08307,83,92,0
374.08307,374.35092,72,92,0
374.08307,374.35092,76,92,0
374.08307,374.35092,79,92,0
374.08307,374.35092,84,92,0
388.92337,389.19122,60,60,0
389.19122,389.45908,63,60,0
389.45908,389.72693,68,60,0
389.72693,389.99478,63,60,0
389.99478,390.26263,60,60,0
390.26263,390.51935,63,60,0
390.5305,390.79837,60,60,0
390.79837,391.06622,63,60,0
391.06622,391.33408,60,60,0
391.33408,391.60193,63,60,0
391.60193,391.86978,60,60,0
391.86978,392.1265,63,60,0
392.13763,392.4055,60,60,0
392.4055,392.67337,63,60,0
392.67337,392.94122,60,60,0
392.94122,393.20908,63,60,0
393.20908,393.47693,60,60,0
393.47693,393.7336,63,60,0
393.74478,394.01263,61,60,0
394.01263,394.2805,63,60,0
394.2805,394.54834,61,60,0
394.54834,394.81622,63,60,0
394.81622,395.08408,61,60,0
395.08408,395.34076,63,60,0
395.35193,395.61978,61,60,0
395.61978,395.88763,63,60,0
395.88763,396.1555,61,60,0
396.1555,396.42334,63,60,0
396.42334,396.69122,61,60,0
396.69122,396.9479,63,60,0
396.95908,397.22693,61,60,0
397.22693,397.49478,63,60,0
397.49478,397.76263,61,60,0
397.76263,398.0305,63,60,0
398.0305,398.29834,61,60,0
398.29834,398.55505,63,60,0
398.56622,398.83408,58,60,0
398.83408,399.10193,63,60,0
399.10193,399.36978,62,60,0
399.36978,399.63763,63,60,0
399.63763,399.9055,58,60,0
399.9055,400.1622,63,60,0
400.17334,400.44122,55,60,0
400.44122,400.70908,63,60,0
400.70908,400.97693,55,60,0
400.97693,401.24478,63,60,0
401.24478,401.51263,55,60,0
401.51263,401.76935,63,60,0
401.7805,402.04834,58,60,0
402.04834,402.31622,63,60,0
402.31622,402.58408,58,60,0
402.58408,402.85193,63,60,0
402.85193,403.11978,58,60,0
403.11978,403.37646,63,60,0
403.38763,403.6555,58,60,0
403.6555,403.92334,63,62,0
403.92334,404.1912,62,64,0
404.1912,404.45908,63,66,0
404.45908,404.72693,65,68,0
404.72693,404.99478,67,71,0
404.99478,405.26263,68,74,0
405.26263,405.5305,70,77,0
405.5305,405.79834,72,80,0
405.79834,406.0662,70,83,0
406.0662,406.33408,68,86,0
406.33408,406.60193,67,89,0
406.60193,406.86978,65,92,0
406.86978,407.13763,63,92,0
407.13763,407.4055,61,86,0
407.4055,407.67334,60,80,0
407.67334,407.9412,58,74,0
407.9412,408.1979,56,67,0
408.20908,408.47693,65,60,0
408.47693,408.74478,61,60,0
408.74478,409.01263,65,60,0
409.01263,409.2805,61,60,0
409.2805,409.54834,65,60,0
409.54834,409.80505,61,60,0
409.8162,410.08408,65,60,0
410.08408,410.35193,61,60,0
410.35193,410.61978,65,60,0
410.61978,410.88763,61,60,0
410.88763,411.1555,65,60,0
411.1555,411.41217,61,60,0
411.42334,411.6912,58,60,0
411.6912,411.95905,61,60,0
411.95905,412.22693,58,60,0
412.22693,412.49478,61,60,0
412.49478,412.76263,58,60,0
412.76263,413.01932,61,60,0
413.0305,413.29834,58,60,0
413.29834,413.5662,63,60,0
413.5662,413.83405,67,60,0
413.83405,414.10193,63,60,0
414.10193,414.36978,58,60,0
414.36978,414.62646,63,60,0
414.63763,414.9055,58,60,0
414.9055,415.17334,63,60,0
415.17334,415.4412,58,60,0
415.4412,415.70905,63,60,0
415.70905,415.97693,58,60,0
415.97693,416.2336,63,60,0
416.24478,416.51263,60,60,0
416.51263,416.7805,63,60,0
416.7805,417.04834,62,60,0
417.04834,417.3162,63,60,0
417.3162,417.58405,65,60,0
417.58405,417.84076,63,60,0
417.85193,418.11978,58,60,0
418.11978,418.38763,63,60,0
418.38763,418.6555,58,60,0
418.6555,418.92334,63,60,0
418.92334,419.1912,58,60,0
419.1912,419.4479,63,60,0
419.45905,419.7269,58,60,0
419.7269,419.99478,63,60,0
419.99478,420.26263,62,60,0
420.26263,420.5305,63,60,0
420.5305,420.79834,65,60,0
420.79834,421.05502,63,60,0
421.0662,421.33405,56,60,0
421.33405,421.6019,63,60,0
421.6019,421.86978,60,60,0
421.86978,422.13763,63,60,0
422.13763,422.4055,58,60,0
422.4055,422.66217,63,60,0
422.67334,422.9511,56,60,0
422.9511,423.22888,63,62,0
423.22888,423.50668,62,64,0
423.50668,423.78445,63,66,0
423.78445,424.06223,56,68,0
424.06223,424.32843,63,71,0
424.34,424.52518,55,74,0
424.6178,424.89557,62,77,0
424.89557,425.16177,63,80,0
425.17334,425.35852,65,83,0
425.4511,425.6363,67,86,0
425.72888,425.9141,68,89,0
426.00668,426.19897,70,92,0
426.29514,426.48746,72,92,0
426.5836,426.7759,73,75,0
426.87207,427.06436,75,75,0
427.16052,427.3528,77,60,0
427.44897,427.6413,79,60,0
427.73743,430.40485,80,60,0
430.41602,430.54993,82,60,0
430.54993,430.68387,80,60,0
430.68387,430.8178,79,60,0
430.8178,430.95172,80,60,0
430.95172,432.02316,84,60,0
432.02316,432.5477,82,60,0
432.55887,434.16602,80,60,0
434.16602,436.04102,79,60,0
436.30887,436.68832,79,75,0
436.84457,437.02316,80,75,0
437.38028,439.25528,82,60,0
439.52316,439.70172,82,75,0
440.05887,440.23743,84,75,0
440.59457,441.13028,85,92,0
441.13028,441.65485,87,92,0
441.66602,441.84457,82,92,0
442.20172,443.80887,85,92,0
443.80887,444.70172,84,60,0
447.02313,448.63028,82,60,0
448.63028,450.23743,85,60,0
450.23743,451.66602,89,60,0
451.84457,453.45172,79,60,0
453.45172,455.05887,85,75,0
455.05887,455.95172,84,92,0
456.53207,456.666,84,92,0
456.666,456.93387,82,92,0
456.93387,457.20172,81,91,0
457.20172,457.46957,82,90,0
457.46957,457.73743,84,89,0
457.73743,458.00528,85,88,0
458.00528,458.262,82,86,0
458.27313,460.68384,80,84,0
460.68384,460.95172,79,66,0
460.95172,461.21957,84,64,0
461.21957,461.47626,82,62,0
461.48743,462.01196,80,60,0
462.02313,462.5477,51,45,0
462.02313,462.5477,63,45,0
462.55884,463.0834,51,45,0
462.55884,463.0834,63,45,0
463.09457,463.6191,51,45,0
463.09457,463.6191,63,45,0
463.63028,464.15485,51,45,0
463.63028,464.15485,63,45,0
464.166,464.69055,51,45,0
464.166,464.69055,63,45,0
464.70172,465.22626,51,45,0
464.70172,465.22626,63,45,0
465.23743,465.76196,51,45,0
465.23743,465.76196,63,45,0
465.77313,466.2977,51,45,0
465.77313,466.2977,63,45,0
466.30884,466.8334,51,45,0
466.30884,466.8334,58,45,0
466.30884,466.8334,61,45,0
466.30884,466.8334,63,45,0
466.84457,467.3691,51,45,0
466.84457,467.3691,58,45,0
466.84457,467.3691,61,45,0
466.84457,467.3691,63,45,0
467.38028,467.90485,51,45,0
467.38028,467.90485,58,45,0
467.38028,467.90485,61,45,0
467.38028,467.90485,63,45,0
467.916,468.44055,51,45,0
467.916,468.44055,58,45,0
467.916,468.44055,61,45,0
467.916,468.44055,63,45,0
468.45172,468.97626,51,45,0
468.45172,468.97626,58,45,0
468.45172,468.97626,61,45,0
468.45172,468.97626,63,45,0
468.98743,469.51196,51,45,0
468.98743,469.51196,58,45,0
468.98743,469.51196,61,45,0
468.98743,469.51196,63,45,0
469.52313,470.0477,51,45,0
469.52313,470.0477,58,45,0
469.52313,470.0477,61,45,0
469.52313,470.0477,63,45,0
470.05884,470.5834,51,45,0
470.05884,470.5834,58,45,0
470.05884,470.5834,61,45,0
470.05884,470.5834,63,45,0
470.59457,471.1191,51,45,0
470.59457,471.1191,58,45,0
470.59457,471.1191,61,45,0
470.59457,471.1191,63,45,0
471.13028,471.65482,51,45,0
471.13028,471.65482,56,45,0
471.13028,471.65482,60,45,0
471.13028,471.65482,63,45,0
471.666,472.19055,51,46,0
471.666,472.19055,56,46,0
471.666,472.19055,60,46,0
471.666,472.19055,63,46,0
472.2017,472.72626,51,47,0
472.2017,472.72626,56,47,0
472.2017,472.72626,60,47,0
472.2017,472.72626,63,47,0
472.73743,473.26196,51,48,0
472.73743,473.26196,56,48,0
472.73743,473.26196,60,48,0
472.73743,473.26196,63,48,0
473.27313,473.7977,51,50,0
473.27313,473.7977,56,50,0
473.27313,473.7977,60,50,0
473.27313,473.7977,63,50,0
473.80884,474.3334,51,52,0
473.80884,474.3334,56,52,0
473.80884,474.3334,60,52,0
473.80884,474.3334,63,52,0
474.34457,474.8691,51,54,0
474.34457,474.8691,56,54,0
474.34457,474.8691,60,54,0
474.34457,474.8691,63,54,0
474.88028,475.40482,51,56,0
474.88028,475.40482,56,56,0
474.88028,475.40482,60,56,0
474.88028,475.40482,63,56,0
475.416,475.94055,51,58,0
475.416,475.94055,56,58,0
475.416,475.94055,60,58,0
475.416,475.94055,63,58,0
475.9517,476.47626,53,60,0
475.9517,476.47626,65,60,0
476.48743,477.01196,53,60,0
476.48743,477.01196,65,60,0
477.02313,477.54767,53,60,0
477.02313,477.54767,65,60,0
478.09454,478.6191,61,60,0
478.09454,478.6191,65,60,0
478.63028,479.15482,61,60,0
478.63028,479.15482,65,60,0
479.7017,480.22626,58,60,0
479.7017,480.22626,61,60,0
480.23743,480.76196,58,60,0
480.23743,480.76196,61,60,0
481.30884,481.8334,70,75,0
481.30884,481.8334,73,75,0
481.84454,482.3691,70,75,0
481.84454,482.3691,73,75,0
482.916,483.44055,68,92,0
482.916,483.44055,72,92,0
483.4517,483.97626,68,92,0
483.4517,483.97626,72,92,0
483.98743,484.51196,68,92,0
483.98743,484.51196,72,92,0
484.52313,485.04767,68,92,0
484.52313,485.04767,72,92,0
485.05884,485.5834,68,75,0
485.05884,485.5834,72,75,0
486.13028,486.65482,53,60,0
486.13028,486.65482,65,60,0
486.666,487.19052,53,60,0
486.666,487.19052,65,60,0
487.7374,488.26196,65,60,0
487.7374,488.26196,77,60,0
488.27313,488.79767,65,60,0
488.27313,488.79767,77,60,0
489.34454,489.8691,70,60,0
489.34454,489.8691,73,60,0
489.88028,490.40482,70,60,0
489.88028,490.40482,73,60,0
490.416,492.02313,73,75,0
490.416,492.02313,85,75,0
492.02313,493.89813,72,92,0
492.02313,493.89813,84,92,0
494.166,494.7017,73,75,0
494.166,494.7017,85,75,0
494.7017,495.09232,75,75,0
494.7017,495.09232,87,75,0
495.1035,495.2374,77,92,0
495.2374,496.666,89,92,0
496.84454,497.1124,88,60,0
497.1124,497.38025,89,60,0
497.38025,497.64813,91,60,0
497.64813,497.916,89,60,0
497.916,498.18384,88,60,0
498.18384,498.44052,89,60,0
498.4517,498.71954,84,60,0
498.71954,498.9874,85,60,0
498.9874,499.25525,87,60,0
499.25525,499.52313,85,60,0
499.52313,499.791,84,60,0
499.791,500.04767,85,60,0
500.05884,500.3267,81,60,0
500.3267,500.59454,82,60,0
500.59454,500.8624,84,60,0
500.8624,501.13025,82,60,0
501.13025,501.3981,81,60,0
501.3981,501.65482,82,60,0
501.666,501.93384,76,60,0
501.93384,502.2017,77,60,0
502.2017,502.46954,79,60,0
502.46954,502.7374,77,60,0
502.7374,503.00525,75,60,0
503.00525,503.26196,73,60,0
503.2731,503.541,72,60,0
503.541,503.80884,70,60,0
503.80884,504.0767,69,60,0
504.0767,504.34454,70,60,0
504.34454,504.6124,73,60,0
504.6124,504.8691,70,60,0
504.88025,505.1481,68,60,0
505.1481,505.416,67,60,0
505.416,505.68384,70,60,0
505.68384,505.9517,68,60,0
505.9517,506.21954,72,60,0
506.21954,506.4874,71,60,0
506.4874,506.75525,73,60,0
506.75525,507.0231,72,60,0
507.0231,507.291,75,60,0
507.291,507.55884,74,60,0
507.55884,507.8267,77,60,0
507.8267,508.09454,75,60,0
508.09454,508.3624,80,60,0
508.3624,508.63025,79,60,0
508.63025,508.8981,82,60,0
508.8981,509.166,80,60,0
509.166,509.43384,84,60,0
509.43384,509.69052,82,60,0
509.7017,509.95837,85,60,0
509.96954,510.22623,84,60,0
510.2374,510.49408,87,60,0
510.50525,510.76196,86,60,0
510.7731,511.02982,89,60,0
511.04095,511.29767,87,60,0
511.30884,511.56552,86,60,0
511.5767,511.83337,87,60,0
511.84454,512.10126,89,60,0
512.1124,512.3691,87,60,0
512.38025,512.63696,86,60,0
512.64813,512.9048,87,60,0
512.91595,513.17267,89,60,0
513.18384,513.44055,87,60,0
513.45166,513.7084,86,60,0
513.71954,513.97626,87,60,0
513.98737,514.2441,89,60,0
514.25525,514.51196,87,60,0
514.52313,514.70166,85,92,0
514.79095,515.05884,84,75,0
515.05884,515.3155,87,75,0
515.32666,515.59454,85,60,0
515.59454,515.85126,84,60,0
515.86237,516.13025,82,60,0
516.13025,516.38696,81,60,0
516.39813,516.66595,82,59,0
516.66595,516.92267,84,58,0
516.93384,517.20166,82,57,0
517.20166,517.4584,80,56,0
517.46954,517.73737,79,55,0
517.73737,517.9941,78,54,0
518.00525,518.27313,79,53,0
518.27313,518.5298,80,52,0
518.54095,518.80884,79,51,0
518.80884,519.0655,77,49,0
519.07666,519.34454,75,47,0
519.34454,519.6107,74,45,0
519.6223,519.9001,75,45,0
519.9001,520.1663,77,45,0
520.17786,520.4556,75,45,0
520.4556,520.72186,73,45,0
520.7334,521.0112,72,45,0
521.0112,521.28766,75,45,0
521.2997,521.58813,73,45,0
521.58813,521.86456,72,45,0
521.8766,522.16504,70,45,0
522.16504,522.44147,68,45,0
522.4535,522.74194,67,45,0
522.74194,523.0295,65,45,0
523.042,523.342,63,45,0
523.342,523.62946,62,45,0
523.64197,523.94196,63,45,0
523.94196,524.2295,61,45,0
524.24194,524.542,58,45,0
524.542,525.542,56,45,0
525.74194,526.342,63,75,0
526.342,528.4848,72,92,0
528.4848,529.0094,70,75,0
529.02057,529.1991,68,75,0
529.5563,530.4491,67,60,0
531.1634,533.0384,61,92,0
531.1634,533.0384,63,92,0
533.3063,533.8308,61,75,0
533.3063,533.8308,63,75,0
533.842,534.02057,61,75,0
533.842,534.02057,63,75,0
534.3777,535.2705,60,60,0
534.3777,535.2705,63,60,0
535.9848,538.1277,56,92,0
535.9848,538.1277,68,92,0
538.1277,538.6522,58,75,0
538.1277,538.6522,67,75,0
538.1277,538.6522,70,75,0
538.6634,538.842,60,75,0
538.6634,538.842,68,75,0
538.6634,538.842,72,75,0
539.1991,539.72363,61,60,0
539.1991,539.72363,70,60,0
539.1991,539.72363,73,60,0
540.2705,540.8063,75,75,0
540.8063,542.9491,85,92,0
542.9491,543.47363,84,75,0
543.4848,543.6634,82,75,0
544.0205,544.9134,80,75,0
545.6277,547.7705,73,92,0
545.6277,547.7705,85,92,0
547.7705,548.2951,72,75,0
547.7705,548.2951,84,75,0
548.3063,548.4848,70,75,0
548.3063,548.4848,82,75,0
548.842,549.7679,68,60,0
548.842,549.7679,80,60,0
550.5086,552.46375,73,92,0
550.5086,552.46375,85,92,0
552.46375,552.7522,72,92,0
552.46375,552.7522,84,92,0
552.7522,553.04065,75,86,0
552.7522,553.04065,87,86,0
553.04065,553.32916,73,80,0
553.04065,553.32916,85,80,0
553.32916,553.6176,72,74,0
553.32916,553.6176,84,74,0
553.6176,553.89404,70,67,0
553.6176,553.89404,82,67,0
553.90607,554.4936,68,60,0
553.90607,554.4936,80,60,0
554.50604,554.9311,70,60,0
555.1061,555.3061,71,60,0
555.70605,556.14874,72,60,0
556.33105,556.77374,73,58,0
556.95605,557.16437,74,56,0
557.58105,558.064,63,54,0
557.58105,558.064,75,54,0
558.2629,558.7941,65,51,0
558.2629,558.7941,77,51,0
559.0129,559.29065,67,48,0
559.0129,559.29065,79,48,0
559.8462,565.3462,68,45,0
559.8462,565.3462,80,45,0
4.821426,5.7142825,44,45,0
4.821426,5.7142825,56,45,0
6.428568,7.3214245,44,45,0
6.428568,7.3214245,56,45,0
8.03571,8.928567,44,60,0
8.03571,8.928567,56,60,0
9.642852,10.535708,46,60,0
9.642852,10.535708,58,60,0
11.249994,12.142851,46,45,0
11.249994,12.142851,58,45,0
12.857136,13.749992,46,45,0
12.857136,13.749992,58,45,0
14.464278,15.357135,43,45,0
14.464278,15.357135,55,45,0
16.07142,16.964277,39,54,0
16.07142,16.964277,51,54,0
17.678562,18.571419,43,64,0
17.678562,18.571419,55,64,0
19.285704,20.17856,44,75,0
20.892845,21.417398,44,60,0
20.892845,21.417398,56,60,0
21.42856,21.808023,32,60,0
21.42856,21.808023,44,60,0
21.964273,22.142845,32,70,0
21.964273,22.142845,44,70,0
22.499989,23.035702,32,81,0
22.499989,23.035702,44,81,0
23.035702,23.571417,34,92,0
23.035702,23.571417,46,92,0
23.571417,24.09597,36,75,0
23.571417,24.09597,48,75,0
24.10713,24.999987,37,60,0
24.10713,24.999987,49,60,0
25.714272,26.607128,34,45,0
25.714272,26.607128,46,45,0
27.321415,28.214272,37,75,0
27.321415,28.214272,49,75,0
28.928556,29.821413,37,60,0
28.928556,29.821413,49,60,0
30.535698,31.428555,37,60,0
30.535698,31.428555,49,60,0
32.14284,33.035698,36,60,0
32.14284,33.035698,48,60,0
33.74998,34.642838,31,60,0
33.74998,34.642838,43,60,0
35.357124,36.24998,43,64,0
35.357124,36.24998,55,64,0
36.964268,37.857124,44,69,0
38.571407,38.753227,39,75,0
39.116863,39.29868,51,60,0
39.662315,39.844135,51,60,0
40.20777,40.392956,51,60,0
40.76333,41.318882,51,70,0
41.318882,41.87444,50,81,0
41.87444,42.451363,51,92,0
42.451363,43.028282,49,92,0
43.028282,43.59319,46,75,0
43.605206,43.861904,44,45,0
43.605206,43.861904,48,45,0
43.873062,44.12976,51,45,0
44.140923,44.397617,44,45,0
44.140923,44.397617,48,45,0
44.40878,44.665474,51,45,0
44.676636,44.93333,44,45,0
44.676636,44.93333,48,45,0
44.944492,45.201187,51,45,0
45.21235,45.469044,44,45,0
45.21235,45.469044,48,45,0
45.480206,45.736904,51,45,0
45.748062,46.00476,44,45,0
45.748062,46.00476,48,45,0
46.01592,46.272617,51,45,0
46.283775,46.540474,44,45,0
46.283775,46.540474,48,45,0
46.551636,46.80833,51,45,0
46.819492,47.076187,44,45,0
46.819492,47.076187,48,45,0
47.08735,47.344044,51,45,0
47.355206,47.6119,44,45,0
47.355206,47.6119,48,45,0
47.623062,47.879757,51,45,0
47.89092,48.147614,44,45,0
47.89092,48.147614,48,45,0
48.158775,48.415474,51,45,0
48.426632,48.68333,46,45,0
48.426632,48.68333,49,45,0
48.69449,48.951187,51,45,0
48.962345,49.219044,46,45,0
48.962345,49.219044,49,45,0
49.230206,49.4869,51,45,0
49.498062,49.754757,46,45,0
49.498062,49.754757,49,45,0
49.76592,50.022614,51,45,0
50.033775,50.29047,46,45,0
50.033775,50.29047,49,45,0
50.301632,50.558327,51,45,0
50.56949,50.826187,46,45,0
50.56949,50.826187,49,45,0
50.837345,51.094044,51,45,0
51.1052,51.3619,46,45,0
51.1052,51.3619,49,45,0
51.37306,51.629757,51,45,0
51.64092,51.897614,46,45,0
51.64092,51.897614,49,45,0
51.908775,52.16547,51,45,0
52.176632,52.433327,46,45,0
52.176632,52.433327,49,45,0
52.44449,52.701183,51,45,0
52.712345,52.96904,44,45,0
52.712345,52.96904,48,45,0
52.9802,53.236897,51,45,0
53.24806,53.504757,43,45,0
53.24806,53.504757,46,45,0
53.515915,53.772614,51,45,0
53.78377,54.04047,43,45,0
53.78377,54.04047,46,45,0
54.05163,54.308327,51,45,0
54.31949,54.576183,43,45,0
54.31949,54.576183,46,45,0
54.587345,54.84404,51,45,0
54.8552,55.111897,43,45,0
54.8552,55.111897,46,45,0
55.12306,55.379753,51,45,0
55.390915,55.64761,43,45,0
55.390915,55.64761,46,45,0
55.65877,55.91547,51,45,0
55.92663,56.183327,41,45,0
55.92663,56.183327,44,45,0
56.194485,56.451183,51,45,0
56.46234,56.71904,39,45,0
56.46234,56.71904,43,45,0
56.7302,56.986897,51,45,0
56.99806,57.254753,41,45,0
56.99806,57.254753,44,45,0
57.265915,57.52261,51,45,0
57.53377,57.790466,43,45,0
57.53377,57.790466,46,45,0
57.80163,58.058323,51,45,0
58.069485,58.32618,44,45,0
58.33734,58.59404,51,48,0
58.605198,58.861897,44,52,0
58.605198,58.861897,55,52,0
58.873055,59.129753,51,56,0
59.14091,59.39761,44,60,0
59.14091,59.39761,55,60,0
59.40877,59.665466,51,64,0
59.67663,59.933323,44,68,0
59.67663,59.933323,56,68,0
59.944485,60.20118,51,72,0
60.21234,60.469036,44,76,0
60.21234,60.469036,48,76,0
60.480198,60.736893,56,80,0
60.748055,61.004753,44,84,0
60.748055,61.004753,48,84,0
61.01591,61.27261,56,88,0
61.283768,61.540466,44,92,0
61.283768,61.540466,48,92,0
61.551624,61.808323,56,92,0
61.819485,62.07618,46,75,0
61.819485,62.07618,49,75,0
62.08734,62.344036,56,75,0
62.355198,62.611893,48,60,0
62.355198,62.611893,51,60,0
62.623055,62.87975,56,60,0
62.89091,63.147606,49,45,0
62.89091,63.147606,53,45,0
63.158768,63.415462,58,45,0
63.426624,63.683323,49,45,0
63.426624,63.683323,53,45,0
63.69448,63.95118,58,45,0
63.962337,64.21903,49,45,0
63.962337,64.21903,53,45,0
64.230194,64.48689,58,45,0
64.498055,64.754745,46,45,0
64.498055,64.754745,53,45,0
64.76591,65.022606,58,45,0
65.03377,65.29047,46,45,0
65.03377,65.29047,53,45,0
65.30162,65.55832,58,45,0
65.56948,65.82618,46,45,0
65.56948,65.82618,53,45,0
65.83734,66.09403,58,45,0
66.105194,66.36189,49,45,0
66.105194,66.36189,53,45,0
66.373055,66.629745,58,45,0
66.64091,66.897606,49,45,0
66.64091,66.897606,53,45,0
66.90877,67.16546,58,45,0
67.17662,67.43332,49,45,0
67.17662,67.43332,53,45,0
67.44448,67.70118,58,45,0
67.71233,67.96903,39,45,0
67.980194,68.23689,51,48,0
68.248055,68.504745,39,52,0
68.51591,68.772606,51,56,0
68.78377,69.04046,39,60,0
69.05162,69.30832,51,64,0
69.31948,69.57617,40,68,0
69.58733,69.84403,52,72,0
69.855194,70.11189,40,76,0
70.12305,70.379745,52,80,0
70.39091,70.647606,40,84,0
70.65877,70.91546,52,88,0
70.92662,71.18332,41,92,0
71.19448,71.45117,53,92,0
71.46233,71.71903,41,75,0
71.730194,71.986885,53,75,0
71.99805,72.254745,41,75,0
72.26591,72.522606,53,75,0
72.53376,72.79046,37,75,0
72.80162,73.05832,41,74,0
73.06947,73.32617,46,73,0
73.33733,73.59403,49,72,0
73.605194,73.861885,46,71,0
73.87305,74.129745,41,70,0
74.14091,74.3976,39,69,0
74.40876,74.66546,44,67,0
74.67662,74.93332,48,65,0
74.94447,75.20117,51,63,0
75.21233,75.46903,48,61,0
75.48019,75.736885,44,59,0
75.74805,76.004745,39,57,0
76.01591,76.2726,46,55,0
76.28376,76.54046,49,53,0
76.55162,76.80831,51,51,0
76.81947,77.07617,39,49,0
77.08733,77.344025,51,47,0
77.35519,78.24805,32,45,0
77.35519,78.24805,44,45,0
84.31947,84.844025,39,45,0
84.31947,84.844025,51,45,0
84.85519,85.37974,38,45,0
84.85519,85.37974,50,45,0
85.3909,85.91545,39,45,0
85.3909,85.91545,51,45,0
85.92661,86.451164,41,45,0
85.92661,86.451164,53,45,0
86.462326,86.98688,43,45,0
86.462326,86.98688,55,45,0
86.99804,87.8909,44,45,0
86.99804,87.8909,56,45,0
91.819466,92.087326,37,45,0
91.819466,92.087326,49,45,0
93.426605,93.694466,34,45,0
93.426605,93.694466,46,45,0
95.03375,95.301605,39,45,0
95.03375,95.301605,51,45,0
96.64089,97.16544,32,45,0
96.64089,97.16544,44,45,0
97.176605,97.70116,60,45,0
97.71232,98.23688,60,45,0
98.24803,98.77259,60,45,0
98.78375,99.308304,60,45,0
99.319466,99.84402,60,45,0
99.85518,100.37973,60,45,0
100.39089,100.91544,60,45,0
100.926605,101.45116,60,45,0
101.46232,101.64089,36,45,0
101.46232,101.64089,48,45,0
101.99803,102.176605,43,45,0
101.99803,102.176605,55,45,0
102.533745,102.71232,40,45,0
102.533745,102.71232,52,45,0
103.06946,103.24803,36,45,0
103.06946,103.24803,48,45,0
103.60517,103.783745,58,45,0
103.60517,103.783745,60,45,0
104.14089,104.31946,58,45,0
104.14089,104.31946,60,45,0
104.676605,104.85517,58,45,0
104.676605,104.85517,60,45,0
105.21232,105.39089,58,45,0
105.21232,105.39089,60,45,0
105.74803,105.926605,58,45,0
105.74803,105.926605,60,45,0
106.283745,106.46232,29,45,0
106.283745,106.46232,41,45,0
106.81946,106.99803,36,45,0
106.81946,106.99803,48,45,0
107.35517,107.533745,32,45,0
107.35517,107.533745,44,45,0
107.890884,108.06946,29,45,0
107.890884,108.06946,41,45,0
108.4266,108.60517,56,45,0
108.4266,108.60517,60,45,0
108.96232,109.140884,56,45,0
108.96232,109.140884,60,45,0
109.49803,109.6766,56,45,0
109.49803,109.6766,60,45,0
110.033745,110.21231,56,45,0
110.033745,110.21231,60,45,0
110.56946,110.74803,56,45,0
110.56946,110.74803,60,45,0
111.10517,111.283745,38,45,0
111.10517,111.283745,50,45,0
111.640884,111.81946,41,47,0
111.640884,111.81946,53,47,0
112.1766,112.35517,38,49,0
112.1766,112.35517,50,49,0
112.71231,112.890884,34,51,0
112.71231,112.890884,46,51,0
113.248024,113.4266,56,53,0
113.248024,113.4266,58,53,0
113.783745,113.96231,56,55,0
113.783745,113.96231,58,55,0
114.31946,114.498024,56,57,0
114.31946,114.498024,58,57,0
114.85517,115.03374,56,59,0
114.85517,115.03374,58,59,0
115.390884,115.56946,56,62,0
115.390884,115.56946,58,62,0
115.9266,116.10517,39,65,0
115.9266,116.10517,51,65,0
116.46231,116.640884,43,68,0
116.46231,116.640884,55,68,0
116.998024,117.1766,39,71,0
116.998024,117.1766,51,71,0
117.53374,117.71231,36,74,0
117.53374,117.71231,48,74,0
118.06945,118.248024,36,77,0
118.06945,118.248024,48,77,0
118.60516,118.78374,36,80,0
118.60516,118.78374,48,80,0
119.140884,119.31945,41,83,0
119.140884,119.31945,53,83,0
119.6766,119.85516,41,86,0
119.6766,119.85516,53,86,0
120.21231,120.39088,41,89,0
120.21231,120.39088,53,89,0
120.748024,121.64088,34,92,0
120.748024,121.64088,46,92,0
127.7123,127.969,44,92,0
127.98016,128.23686,56,92,0
128.24802,128.50471,44,92,0
128.51587,128.77257,56,92,0
128.78374,129.04044,42,92,0
129.05159,129.30829,54,92,0
129.31944,129.57614,41,92,0
129.58731,129.844,53,92,0
129.85516,130.11186,39,92,0
130.12302,130.37971,51,92,0
130.39087,130.66866,38,92,0
130.39087,130.66866,50,92,0
132.63446,132.9109,44,92,0
132.92293,133.19937,56,92,0
133.21138,133.48782,44,92,0
133.49985,133.77629,56,92,0
133.78831,134.06476,43,92,0
134.07677,134.35321,55,92,0
134.36523,134.64168,41,92,0
134.6537,134.93013,53,92,0
134.94215,135.22966,39,92,0
135.24216,135.52966,51,92,0
135.54216,136.54216,38,92,0
135.54216,136.54216,46,92,0
135.54216,136.54216,50,92,0
140.7396,142.6146,51,60,0
140.7396,142.6146,58,60,0
142.88245,143.06102,51,60,0
142.88245,143.06102,58,60,0
143.41817,143.59674,51,66,0
143.41817,143.59674,58,66,0
143.95387,144.47842,51,72,0
144.4896,145.01414,50,78,0
143.95387,145.01414,58,72,0
145.0253,145.20387,51,85,0
145.0253,145.20387,58,85,0
145.56102,147.70387,55,92,0
145.56102,147.70387,58,92,0
147.70387,148.22842,53,92,0
147.70387,148.22842,58,92,0
148.2396,148.41815,50,86,0
148.2396,148.41815,58,86,0
148.7753,149.29985,53,80,0
149.31102,149.83557,51,74,0
148.7753,149.83557,58,80,0
149.84673,150.0253,48,67,0
149.84673,150.0253,58,67,0
150.38245,151.8445,46,60,0
150.38245,151.8445,58,60,0
151.85565,151.97842,46,60,0
151.85565,151.97842,58,60,0
151.9896,152.51414,46,60,0
151.9896,152.51414,58,60,0
155.20387,155.72842,46,60,0
155.73958,156.26414,58,60,0
156.2753,156.79985,58,60,0
156.811,157.33557,58,60,0
157.34673,157.87128,58,60,0
157.88245,158.407,58,60,0
158.41815,158.9427,58,60,0
158.95387,159.47842,58,60,0
159.48958,160.01413,58,60,0
160.0253,161.48735,58,60,0
161.4985,161.62128,58,60,0
161.63243,162.157,58,60,0
162.16815,162.54762,53,65,0
162.70387,162.88243,53,70,0
163.23958,163.61905,53,75,0
163.7753,164.15475,53,80,0
164.311,164.48958,51,86,0
164.311,164.48958,53,86,0
164.84673,165.73958,50,92,0
164.84673,165.73958,53,92,0
165.91815,166.4427,46,60,0
165.91815,166.4427,58,60,0
166.45386,167.34673,51,60,0
166.45386,167.34673,58,60,0
169.66815,170.561,38,92,0
169.66815,170.561,50,92,0
171.27528,172.16815,35,75,0
171.27528,172.16815,47,75,0
172.88243,173.77528,36,60,0
172.88243,173.77528,48,60,0
174.48958,175.38243,32,45,0
174.48958,175.38243,44,45,0
176.09671,176.98958,34,60,0
176.09671,176.98958,46,60,0
177.70386,178.59671,32,75,0
177.70386,178.59671,44,75,0
179.311,180.20386,31,92,0
179.311,180.20386,43,92,0
184.13243,184.311,31,60,0
184.66814,184.84671,34,60,0
185.20386,185.38243,39,60,0
185.73956,185.91814,31,60,0
186.27528,186.45386,34,60,0
186.81099,186.98956,39,60,0
187.34671,187.52528,31,60,0
187.88243,188.06099,34,60,0
188.41814,188.59671,39,60,0
188.95386,189.84671,32,60,0
193.77528,193.95384,45,60,0
194.31099,194.48956,48,63,0
194.84671,195.02528,53,66,0
195.38242,195.56099,45,69,0
195.91814,196.09671,48,72,0
196.45384,196.63242,53,76,0
196.98956,197.16814,45,80,0
197.52527,197.70384,48,84,0
198.06099,198.23956,53,88,0
198.59671,199.48956,46,92,0
198.59671,199.48956,51,92,0
198.59671,199.48956,55,92,0
203.41814,204.34406,34,45,0
203.41814,204.34406,46,45,0
208.61557,209.61557,39,45,0
208.61557,209.61557,51,45,0
210.41557,212.55843,51,92,0
212.55843,213.08298,53,92,0
210.41557,213.08298,58,92,0
213.09413,213.2727,55,75,0
213.09413,213.2727,58,75,0
213.62985,214.5227,56,60,0
213.62985,214.5227,58,60,0
215.23698,217.37985,58,92,0
217.37985,217.9044,60,92,0
217.91556,218.09413,62,75,0
218.45128,218.97583,63,60,0
219.5227,220.05841,34,75,0
219.5227,220.05841,46,75,0
220.05841,222.20128,43,92,0
220.05841,222.20128,46,92,0
220.05841,222.20128,55,92,0
222.20128,222.72583,41,75,0
222.20128,222.72583,46,75,0
222.20128,222.72583,53,75,0
222.73698,222.91556,39,60,0
222.73698,222.91556,46,60,0
222.73698,222.91556,51,60,0
223.2727,223.79726,38,60,0
223.2727,223.79726,46,60,0
223.2727,223.79726,50,60,0
223.80841,224.33296,46,60,0
224.34413,224.86868,46,60,0
224.87984,225.4044,34,60,0
224.87984,225.4044,46,60,0
225.41556,225.94011,46,60,0
225.95128,226.47583,46,60,0
226.48698,227.01154,46,92,0
227.0227,227.54726,36,92,0
227.0227,227.54726,46,92,0
227.55841,227.73698,38,75,0
227.55841,227.73698,46,75,0
228.09413,228.61868,39,75,0
228.09413,228.61868,46,75,0
228.62984,229.15439,46,75,0
229.16556,229.69011,46,75,0
229.70126,230.22583,34,60,0
229.70126,230.22583,46,60,0
230.23698,230.76154,46,60,0
230.7727,231.29726,46,60,0
231.30841,231.83296,46,92,0
231.84413,232.36868,36,92,0
231.84413,232.36868,46,92,0
232.37984,232.55841,38,75,0
232.37984,232.55841,46,75,0
232.91556,233.44011,39,60,0
232.91556,233.44011,46,60,0
233.45126,233.97581,46,60,0
233.98698,234.51154,46,60,0
234.52269,235.04724,34,60,0
234.52269,235.04724,46,60,0
235.05841,235.58296,46,60,0
235.59412,236.11868,46,60,0
236.12984,236.65439,46,92,0
236.66556,237.19011,36,75,0
236.66556,237.19011,46,75,0
237.20126,237.37984,38,75,0
237.20126,237.37984,46,75,0
237.73698,238.6629,39,60,0
237.73698,238.6629,46,60,0
241.07031,241.99623,39,45,0
241.07031,241.99623,51,45,0
242.73698,245.91005,39,45,0
242.73698,245.91005,51,45,0
257.57214,257.82883,36,92,0
257.57214,257.82883,48,92,0
257.84,258.09668,55,92,0
258.10785,258.36456,52,75,0
258.3757,258.63242,55,75,0
258.64355,258.90027,48,75,0
258.91144,259.16812,55,75,0
259.1793,259.43597,48,60,0
259.44714,259.70383,55,60,0
259.715,259.97168,52,60,0
259.98285,260.23953,55,60,0
260.2507,260.50742,48,60,0
260.51855,260.77527,55,60,0
260.7864,261.04312,48,60,0
261.0543,261.31097,55,60,0
261.32214,261.57883,52,60,0
261.59,261.84668,55,60,0
261.85785,262.11453,48,60,0
262.1257,262.38242,55,60,0
262.39355,262.65027,50,60,0
262.6614,262.91812,55,60,0
262.9293,263.18597,53,60,0
263.19714,263.45383,55,60,0
263.465,263.72168,50,60,0
263.73285,263.98953,55,60,0
264.0007,264.25742,50,60,0
264.26855,264.52527,55,60,0
264.5364,264.79312,53,60,0
264.8043,265.06097,55,60,0
265.07214,265.32883,50,60,0
265.34,265.59668,55,60,0
265.60785,265.86453,52,60,0
265.8757,266.13242,58,60,0
266.14355,266.40027,55,60,0
266.4114,266.66812,58,60,0
266.6793,266.93597,52,60,0
266.94714,267.20383,58,60,0
267.215,267.47168,53,60,0
267.48285,267.73953,62,60,0
267.7507,268.0074,57,60,0
268.01855,268.27527,62,60,0
268.2864,268.54312,53,60,0
268.55426,268.81097,62,60,0
268.82214,269.07883,53,60,0
269.09,269.34668,62,60,0
269.35785,269.61453,57,60,0
269.6257,269.8824,62,60,0
269.89355,270.15027,53,60,0
270.1614,270.41812,62,60,0
270.42926,270.68597,55,60,0
270.69714,270.95383,62,60,0
270.965,271.22168,59,60,0
271.23285,271.48953,62,60,0
271.5007,271.7574,55,60,0
271.76855,272.02527,62,60,0
272.0364,272.29312,48,60,0
272.30426,272.56097,55,60,0
272.57214,272.82883,59,60,0
272.84,273.09668,55,60,0
273.10785,273.36453,59,60,0
273.3757,273.6324,55,60,0
273.64355,274.16812,48,60,0
273.64355,274.16812,60,60,0
274.17926,274.35785,48,60,0
274.17926,274.35785,52,60,0
274.715,274.89355,48,60,0
274.715,274.89355,52,60,0
275.2507,275.42926,50,60,0
275.2507,275.42926,53,60,0
275.7864,275.965,50,60,0
275.7864,275.965,53,60,0
276.3221,276.5007,50,60,0
276.3221,276.5007,53,60,0
276.85785,277.0364,52,60,0
276.85785,277.0364,55,60,0
277.39355,277.5721,52,60,0
277.39355,277.5721,55,60,0
277.92926,278.10785,52,60,0
277.92926,278.10785,55,60,0
278.465,278.64355,52,60,0
278.465,278.64355,55,60,0
279.0007,279.17926,52,60,0
279.0007,279.17926,55,60,0
279.5364,279.715,52,60,0
279.5364,279.715,55,60,0
280.0721,280.2507,52,60,0
280.0721,280.2507,55,60,0
280.60785,280.7864,52,60,0
280.60785,280.7864,55,60,0
281.14355,281.3221,52,60,0
281.14355,281.3221,55,60,0
281.67926,281.85785,53,60,0
281.67926,281.85785,57,60,0
282.215,282.39355,53,65,0
282.215,282.39355,57,65,0
282.7507,282.92926,53,70,0
282.7507,282.92926,57,70,0
283.2864,283.465,53,75,0
283.2864,283.465,56,75,0
283.8221,284.0007,53,80,0
283.8221,284.0007,56,80,0
284.35785,284.5364,53,86,0
284.35785,284.5364,56,86,0
284.89355,285.0721,54,92,0
284.89355,285.0721,57,92,0
285.42926,285.60785,54,92,0
285.42926,285.60785,57,92,0
285.96497,286.14355,54,75,0
285.96497,286.14355,57,75,0
286.5007,287.39355,43,60,0
286.5007,287.39355,48,60,0
286.5007,287.39355,52,60,0
286.5007,287.39355,55,60,0
289.71497,290.60785,31,60,0
289.71497,290.60785,43,60,0
291.3221,292.21497,36,60,0
291.3221,292.21497,48,60,0
293.46497,293.64355,36,92,0
293.46497,293.64355,43,92,0
293.46497,293.64355,48,92,0
294.0007,294.17926,36,75,0
294.0007,294.17926,43,75,0
294.0007,294.17926,48,75,0
294.5364,295.0721,36,60,0
294.5364,295.0721,43,60,0
294.5364,295.0721,48,60,0
295.0721,295.59668,35,60,0
295.0721,295.59668,43,60,0
295.0721,295.59668,47,60,0
295.60782,295.7864,36,60,0
295.60782,295.7864,43,60,0
295.60782,295.7864,48,60,0
296.14355,298.2864,40,92,0
296.14355,298.2864,43,92,0
296.14355,298.2864,52,92,0
298.2864,298.81094,38,92,0
298.2864,298.81094,43,92,0
298.2864,298.81094,50,92,0
298.8221,299.0007,35,92,0
298.8221,299.0007,43,92,0
298.8221,299.0007,47,92,0
299.35782,299.89355,38,75,0
299.35782,299.89355,43,75,0
299.35782,299.89355,50,75,0
299.89355,300.4181,36,75,0
299.89355,300.4181,43,75,0
299.89355,300.4181,48,75,0
300.42926,300.60782,33,75,0
300.42926,300.60782,43,75,0
300.42926,300.60782,45,75,0
300.96497,302.42703,31,60,0
300.96497,302.42703,35,60,0
300.96497,302.42703,38,60,0
300.96497,302.42703,43,60,0
302.43817,302.56094,31,60,0
302.43817,302.56094,35,60,0
302.43817,302.56094,38,60,0
302.43817,302.56094,43,60,0
302.5721,303.09668,31,60,0
302.5721,303.09668,35,60,0
302.5721,303.09668,38,60,0
302.5721,303.09668,43,60,0
303.10782,303.4873,62,60,0
303.64355,303.8221,62,66,0
304.17926,304.55872,62,72,0
304.71497,305.09442,62,78,0
305.25067,305.42926,62,85,0
305.7864,307.21497,43,92,0
305.7864,307.21497,55,92,0
307.39355,307.9181,48,60,0
307.39355,307.9181,60,60,0
307.92926,308.30872,62,60,0
308.46497,308.64352,62,68,0
309.00067,309.38016,62,76,0
309.5364,309.91586,62,84,0
310.0721,310.25067,62,92,0
310.60782,310.86453,43,60,0
310.87567,311.1324,55,60,0
311.14352,311.40024,43,60,0
311.4114,311.6681,55,60,0
311.67926,311.93594,43,60,0
311.9471,312.2038,55,60,0
312.21497,312.47165,43,75,0
312.48282,312.73953,55,75,0
312.75067,313.0074,43,75,0
313.01852,313.27524,55,75,0
313.2864,313.5431,43,75,0
313.55426,313.81094,55,75,0
313.8221,314.0788,44,92,0
314.08997,314.34665,56,92,0
314.35782,314.61453,44,92,0
314.62567,314.8824,56,92,0
314.89352,315.15024,44,75,0
315.1614,315.4181,56,75,0
315.42926,315.68594,41,60,0
315.6971,315.9538,44,60,0
315.96497,316.22165,50,60,0
316.23282,316.48953,53,60,0
316.50067,316.7574,41,60,0
316.76852,317.02524,53,60,0
317.03638,317.2931,43,60,0
317.30426,317.56094,48,60,0
317.5721,317.8288,51,60,0
317.83997,318.09665,55,60,0
318.10782,318.3645,43,60,0
318.37567,318.6324,55,60,0
318.64352,318.90024,43,60,0
318.91138,319.1681,47,60,0
319.17926,319.43594,50,60,0
319.4471,319.7038,53,60,0
319.71497,319.97165,43,60,0
319.98282,320.2395,53,60,0
320.25067,321.14352,36,60,0
320.25067,321.14352,39,60,0
320.25067,321.14352,43,60,0
320.25067,321.14352,48,60,0
325.0721,325.45157,32,45,0
325.0721,325.45157,44,45,0
325.60782,325.98727,32,45,0
325.60782,325.98727,44,45,0
326.14352,326.3221,32,45,0
326.14352,326.3221,44,45,0
326.67923,327.05872,32,45,0
326.67923,327.05872,44,45,0
327.21497,327.59442,32,45,0
327.21497,327.59442,44,45,0
327.75067,327.92923,32,45,0
327.75067,327.92923,44,45,0
328.28638,328.66586,32,45,0
328.28638,328.66586,44,45,0
328.8221,329.20157,32,45,0
328.8221,329.20157,44,45,0
329.35782,329.53638,32,45,0
329.35782,329.53638,44,45,0
329.89352,330.27298,32,45,0
329.89352,330.27298,44,45,0
330.42923,330.80872,32,45,0
330.42923,330.80872,44,45,0
330.96497,331.14352,32,45,0
330.96497,331.14352,44,45,0
331.50067,331.88013,32,45,0
331.50067,331.88013,44,45,0
332.03638,332.41586,32,45,0
332.03638,332.41586,44,45,0
332.5721,332.75067,32,45,0
332.5721,332.75067,44,45,0
333.10782,333.48727,32,45,0
333.10782,333.48727,44,45,0
333.64352,334.02298,32,45,0
333.64352,334.02298,44,45,0
334.17923,334.35782,32,45,0
334.17923,334.35782,44,45,0
334.71497,335.09442,32,45,0
334.71497,335.09442,44,45,0
335.25067,335.63013,32,45,0
335.25067,335.63013,44,45,0
335.78638,335.96497,32,45,0
335.78638,335.96497,44,45,0
336.32208,336.70157,32,45,0
336.32208,336.70157,44,45,0
336.85782,337.23727,32,45,0
336.85782,337.23727,44,45,0
337.39352,337.57208,32,45,0
337.39352,337.57208,44,45,0
337.92923,338.30872,32,45,0
337.92923,338.30872,44,45,0
338.46497,338.84442,32,45,0
338.46497,338.84442,44,45,0
339.00067,339.17923,32,45,0
339.00067,339.17923,44,45,0
339.53638,339.91583,33,45,0
339.53638,339.91583,45,45,0
340.07208,340.45157,33,47,0
340.07208,340.45157,45,47,0
340.60782,340.78638,33,49,0
340.60782,340.78638,45,49,0
341.14352,341.52298,33,51,0
341.14352,341.52298,45,51,0
341.67923,342.0587,33,53,0
341.67923,342.0587,45,53,0
342.21494,342.39352,33,55,0
342.21494,342.39352,45,55,0
342.75067,343.13013,33,57,0
342.75067,343.13013,45,57,0
343.28638,343.66583,33,59,0
343.28638,343.66583,45,59,0
343.82208,344.00067,33,62,0
343.82208,344.00067,45,62,0
344.35782,344.73727,34,65,0
344.35782,344.73727,46,65,0
344.89352,345.27298,34,68,0
344.89352,345.27298,46,68,0
345.42923,345.60782,34,71,0
345.42923,345.60782,46,71,0
345.96494,346.34442,34,74,0
345.96494,346.34442,46,74,0
346.50067,346.88013,34,77,0
346.50067,346.88013,46,77,0
347.03638,347.21494,34,80,0
347.03638,347.21494,46,80,0
347.57208,347.95157,36,83,0
347.57208,347.95157,48,83,0
348.10782,348.48727,36,86,0
348.10782,348.48727,48,86,0
348.64352,348.82208,36,89,0
348.64352,348.82208,48,89,0
349.17923,349.5587,37,92,0
349.17923,349.5587,49,92,0
349.71494,350.09442,37,75,0
349.71494,350.09442,49,75,0
350.25067,350.42923,37,60,0
350.25067,350.42923,49,60,0
350.78638,351.16583,37,92,0
350.78638,351.16583,49,92,0
351.32208,351.70154,37,92,0
351.32208,351.70154,49,92,0
351.8578,352.03638,37,92,0
351.8578,352.03638,49,92,0
352.39352,352.77298,37,92,0
352.39352,352.77298,49,92,0
352.92923,353.3087,37,92,0
352.92923,353.3087,49,92,0
353.46494,353.64352,37,92,0
353.46494,353.64352,49,92,0
354.00067,354.5252,36,92,0
354.00067,354.5252,48,92,0
354.53638,354.91583,48,45,0
355.07208,355.25067,48,45,0
355.6078,355.98727,48,45,0
356.14352,356.52298,48,45,0
356.67923,356.8578,48,45,0
357.21494,357.39352,48,45,0
357.75064,357.92923,48,45,0
358.28638,358.46494,48,45,0
358.82208,359.36606,36,45,0
358.82208,359.36606,48,45,0
359.37762,359.92163,48,45,0
359.9332,360.47717,48,45,0
360.48874,361.03275,48,45,0
361.0443,361.5883,48,45,0
361.59985,362.14383,48,45,0
362.15543,362.6994,48,45,0
362.71097,363.25494,48,45,0
363.26654,363.81052,48,45,0
363.82208,364.387,36,45,0
363.82208,364.387,48,45,0
364.39902,364.9639,48,45,0
364.97592,365.54083,48,45,0
365.55286,366.11777,48,45,0
366.12976,366.69467,48,45,0
366.7067,367.2716,48,45,0
367.28363,367.8485,48,45,0
367.86053,368.42545,48,45,0
368.43747,369.00238,48,45,0
369.0144,369.57928,36,45,0
369.0144,369.57928,48,45,0
369.5913,370.15622,36,45,0
369.5913,370.15622,48,45,0
370.16824,370.73315,36,45,0
370.16824,370.73315,48,45,0
370.74515,371.31006,36,45,0
370.74515,371.31006,48,45,0
371.32208,371.887,36,45,0
371.32208,371.887,48,45,0
371.89902,372.4639,36,45,0
371.89902,372.4639,48,45,0
372.47592,373.0005,36,92,0
372.47592,373.0005,41,92,0
372.47592,373.0005,44,92,0
372.47592,373.0005,48,92,0
373.01166,373.5362,36,92,0
373.01166,373.5362,41,92,0
373.01166,373.5362,44,92,0
373.01166,373.5362,48,92,0
373.54736,374.0719,36,92,0
373.54736,374.0719,41,92,0
373.54736,374.0719,44,92,0
373.54736,374.0719,48,92,0
374.08307,374.35092,36,92,0
374.08307,374.35092,40,92,0
374.08307,374.35092,43,92,0
374.08307,374.35092,48,92,0
388.92337,389.81622,44,60,0
388.92337,389.81622,56,60,0
390.5305,391.42337,44,60,0
390.5305,391.42337,56,60,0
392.13763,393.0305,44,60,0
392.13763,393.0305,56,60,0
393.74478,394.63763,46,60,0
393.74478,394.63763,58,60,0
395.35193,396.24478,46,60,0
395.35193,396.24478,58,60,0
396.95908,397.85193,46,60,0
396.95908,397.85193,58,60,0
398.56622,399.45908,43,60,0
398.56622,399.45908,55,60,0
400.17334,401.06622,39,60,0
400.17334,401.06622,51,60,0
401.7805,402.67334,43,60,0
401.7805,402.67334,55,60,0
403.38763,404.2805,44,60,0
403.38763,404.2805,56,60,0
404.99478,405.51932,32,60,0
404.99478,405.51932,44,60,0
405.5305,405.70908,44,70,0
405.5305,405.70908,48,70,0
406.0662,406.24478,44,81,0
406.0662,406.24478,48,81,0
406.60193,407.13763,44,92,0
406.60193,407.13763,48,92,0
407.13763,407.67334,46,75,0
407.13763,407.67334,49,75,0
407.67334,408.1979,48,60,0
407.67334,408.1979,51,60,0
408.20908,409.10193,49,60,0
408.20908,409.10193,53,60,0
409.8162,410.70905,34,60,0
409.8162,410.70905,46,60,0
411.42334,412.3162,37,60,0
411.42334,412.3162,49,60,0
413.0305,413.92334,37,60,0
413.0305,413.92334,49,60,0
414.63763,415.5305,37,60,0
414.63763,415.5305,49,60,0
416.24478,417.13763,36,60,0
416.24478,417.13763,48,60,0
417.85193,418.74478,31,60,0
417.85193,418.74478,43,60,0
419.45905,420.3519,31,60,0
419.45905,420.3519,43,60,0
421.0662,421.95905,32,60,0
421.0662,421.95905,44,60,0
422.67334,423.21732,39,60,0
423.22888,423.7729,51,60,0
423.78445,424.32843,51,60,0
424.34,425.26593,39,60,0
424.34,425.26593,51,60,0
427.73743,427.99414,44,45,0
427.73743,427.99414,48,45,0
428.0053,428.262,51,45,0
428.27316,428.52985,44,45,0
428.27316,428.52985,48,45,0
428.54102,428.7977,51,45,0
428.80887,429.06555,44,45,0
428.80887,429.06555,48,45,0
429.07672,429.33344,51,45,0
429.34457,429.6013,44,45,0
429.34457,429.6013,48,45,0
429.61243,429.86914,51,45,0
429.8803,430.137,44,45,0
429.8803,430.137,48,45,0
430.14816,430.40485,51,45,0
430.41602,430.6727,44,45,0
430.41602,430.6727,48,45,0
430.68387,430.94055,51,45,0
430.95172,431.20844,44,45,0
430.95172,431.20844,48,45,0
431.21957,431.4763,51,45,0
431.48743,431.74414,44,45,0
431.48743,431.74414,48,45,0
431.7553,432.012,51,45,0
432.02316,432.27985,44,45,0
432.02316,432.27985,48,45,0
432.29102,432.5477,51,45,0
432.55887,432.81555,46,45,0
432.55887,432.81555,49,45,0
432.82672,433.08344,51,45,0
433.09457,433.3513,46,45,0
433.09457,433.3513,49,45,0
433.36243,433.61914,51,45,0
433.6303,433.887,46,45,0
433.6303,433.887,49,45,0
433.89816,434.15485,51,45,0
434.16602,434.4227,46,45,0
434.16602,434.4227,49,45,0
434.43387,434.69055,51,45,0
434.70172,434.95844,46,45,0
434.70172,434.95844,49,45,0
434.96957,435.2263,51,45,0
435.23743,435.49414,46,45,0
435.23743,435.49414,49,45,0
435.5053,435.762,51,45,0
435.77316,436.02985,46,45,0
435.77316,436.02985,49,45,0
436.04102,436.2977,51,45,0
436.30887,436.56555,46,45,0
436.30887,436.56555,49,45,0
436.57672,436.8334,51,45,0
436.84457,437.1013,44,45,0
436.84457,437.1013,48,45,0
437.11243,437.36914,51,45,0
437.38028,437.637,43,45,0
437.38028,437.637,46,45,0
437.64816,437.90485,51,45,0
437.91602,438.1727,43,45,0
437.91602,438.1727,46,45,0
438.18387,438.44055,51,45,0
438.45172,438.7084,43,45,0
438.45172,438.7084,46,45,0
438.71957,438.9763,51,45,0
438.98743,439.24414,43,45,0
438.98743,439.24414,46,45,0
439.25528,439.512,51,45,0
439.52316,439.77985,43,45,0
439.52316,439.77985,46,45,0
439.79102,440.0477,51,45,0
440.05887,440.31555,41,45,0
440.05887,440.31555,44,45,0
440.32672,440.5834,51,45,0
440.59457,440.8513,39,45,0
440.59457,440.8513,43,45,0
440.86243,441.11914,51,45,0
441.13028,441.387,41,45,0
441.13028,441.387,44,45,0
441.39816,441.65485,51,45,0
441.66602,441.9227,43,45,0
441.66602,441.9227,46,45,0
441.93387,442.19055,51,45,0
442.20172,442.4584,44,45,0
442.46957,442.7263,51,48,0
442.73743,442.99414,44,52,0
442.73743,442.99414,55,52,0
443.00528,443.262,51,56,0
443.27316,443.52985,44,60,0
443.27316,443.52985,55,60,0
443.54102,443.7977,51,64,0
443.80887,444.06555,44,68,0
443.80887,444.06555,56,68,0
444.07672,444.3334,51,72,0
444.34457,444.60126,44,76,0
444.34457,444.60126,48,76,0
444.61243,444.86914,56,80,0
444.88028,445.137,44,84,0
444.88028,445.137,48,84,0
445.14813,445.40485,56,88,0
445.41602,445.6727,44,92,0
445.41602,445.6727,48,92,0
445.68387,445.94055,56,92,0
445.95172,446.2084,46,75,0
445.95172,446.2084,49,75,0
446.21957,446.47626,56,75,0
446.48743,446.74414,48,60,0
446.48743,446.74414,51,60,0
446.75528,447.012,56,60,0
447.02313,447.27985,49,45,0
447.02313,447.27985,53,45,0
447.29102,447.5477,58,45,0
447.55887,447.81555,49,45,0
447.55887,447.81555,53,45,0
447.82672,448.0834,58,45,0
448.09457,448.35126,49,45,0
448.09457,448.35126,53,45,0
448.36243,448.61914,58,45,0
448.63028,448.887,46,45,0
448.63028,448.887,53,45,0
448.89813,449.15485,58,45,0
449.16602,449.4227,46,45,0
449.16602,449.4227,53,45,0
449.43387,449.69055,58,45,0
449.70172,449.9584,46,45,0
449.70172,449.9584,53,45,0
449.96957,450.22626,58,45,0
450.23743,450.49414,49,45,0
450.23743,450.49414,53,45,0
450.50528,450.762,58,45,0
450.77313,451.02985,49,45,0
450.77313,451.02985,53,45,0
451.04102,451.2977,58,45,0
451.30887,451.56555,49,45,0
451.30887,451.56555,53,45,0
451.57672,451.8334,58,45,0
451.84457,452.10126,39,45,0
452.11243,452.3691,51,48,0
452.38028,452.637,39,52,0
452.64813,452.90485,51,56,0
452.916,453.1727,39,60,0
453.18387,453.44055,51,64,0
453.45172,453.7084,40,68,0
453.71957,453.97626,52,72,0
453.98743,454.2441,40,76,0
454.25528,454.512,52,80,0
454.52313,454.77985,40,84,0
454.791,455.0477,52,88,0
455.05887,455.31555,41,92,0
455.32672,455.5834,53,92,0
455.59457,455.85126,41,92,0
455.86243,456.1191,53,92,0
456.13028,456.387,41,92,0
456.39813,456.65485,53,92,0
456.666,456.9227,37,92,0
456.93387,457.19055,41,91,0
457.20172,457.4584,46,90,0
457.46957,457.72626,49,89,0
457.73743,457.9941,46,88,0
458.00528,458.262,41,86,0
458.27313,458.52985,39,84,0
458.541,458.7977,44,82,0
458.80887,459.06555,48,80,0
459.07672,459.3334,51,78,0
459.34457,459.60126,48,76,0
459.61243,459.8691,44,74,0
459.88028,460.137,39,72,0
460.14813,460.40485,46,70,0
460.416,460.6727,49,68,0
460.68384,460.94055,51,66,0
460.95172,461.2084,39,64,0
461.21957,461.47626,51,62,0
461.48743,462.38028,32,60,0
461.48743,462.38028,44,60,0
463.63028,463.80884,39,45,0
464.166,464.34457,37,45,0
464.70172,464.88028,36,45,0
465.23743,465.416,34,45,0
465.77313,465.95172,32,45,0
466.30884,466.57672,31,45,0
468.45172,468.63028,39,45,0
468.98743,469.166,38,45,0
469.52313,469.7017,39,45,0
470.05884,470.23743,41,45,0
470.59457,470.77313,43,45,0
471.13028,471.39813,44,45,0
473.27313,473.4517,32,50,0
473.80884,473.98743,31,52,0
474.34457,474.52313,32,54,0
474.88028,475.05884,34,56,0
475.416,475.59457,36,58,0
475.9517,476.21957,37,60,0
477.55884,477.8267,34,60,0
479.166,479.43384,39,60,0
480.77313,482.2017,40,75,0
480.77313,482.2017,52,75,0
482.38028,485.3267,41,92,0
482.38028,485.3267,53,92,0
485.59454,486.4874,37,60,0
487.2017,488.09454,34,60,0
488.80884,489.7017,39,60,0
490.416,490.94052,40,75,0
490.9517,491.47626,52,75,0
490.9517,491.47626,58,75,0
491.4874,492.01196,52,75,0
491.4874,492.01196,58,75,0
492.02313,492.54767,41,92,0
492.55884,493.0834,53,92,0
492.55884,493.0834,56,92,0
493.09454,493.6191,53,92,0
493.09454,493.6191,56,92,0
493.63025,494.15482,53,92,0
493.63025,494.15482,56,92,0
494.166,494.69052,53,92,0
494.166,494.69052,56,92,0
494.7017,495.22626,53,75,0
494.7017,495.22626,56,75,0
495.2374,495.76196,37,92,0
495.2374,495.76196,49,92,0
495.77313,495.9517,53,75,0
496.30884,496.4874,58,60,0
496.84454,497.02313,49,60,0
497.38025,497.55884,53,60,0
497.916,498.09454,58,60,0
498.4517,498.63025,49,60,0
498.9874,499.166,53,60,0
499.52313,499.7017,58,60,0
500.05884,500.2374,49,60,0
500.59454,500.77313,53,60,0
501.13025,501.30884,58,60,0
501.666,501.84454,49,60,0
502.2017,502.38025,53,60,0
502.7374,502.916,58,60,0
503.2731,503.4517,49,60,0
503.80884,503.9874,53,60,0
504.34454,504.5231,58,60,0
504.88025,505.05884,39,60,0
504.88025,505.05884,51,60,0
505.416,505.59454,56,60,0
505.9517,506.13025,60,60,0
506.4874,506.666,51,60,0
507.0231,507.2017,56,60,0
507.55884,507.7374,60,60,0
508.09454,508.2731,51,60,0
508.63025,508.80884,56,60,0
509.166,509.34454,60,60,0
509.7017,509.88025,51,60,0
510.2374,510.41595,56,60,0
510.7731,510.9517,60,60,0
511.30884,511.4874,56,60,0
511.84454,512.02313,60,60,0
512.38025,512.55884,63,60,0
512.91595,513.09454,60,60,0
513.45166,513.63025,63,70,0
513.98737,514.16595,68,81,0
514.52313,515.41595,67,92,0
519.34454,520.27045,39,45,0
519.34454,520.27045,51,45,0
524.542,525.542,32,45,0
524.542,525.542,44,45,0
526.342,528.4848,56,92,0
526.342,528.4848,63,92,0
528.4848,529.0094,58,75,0
528.4848,529.0094,63,75,0
529.02057,529.1991,60,75,0
529.02057,529.1991,63,75,0
529.5563,530.4491,61,60,0
529.5563,530.4491,63,60,0
531.1634,533.3063,51,92,0
531.1634,533.3063,55,92,0
533.3063,533.8308,53,75,0
533.3063,533.8308,56,75,0
533.842,534.02057,55,75,0
533.842,534.02057,58,75,0
534.3777,535.2705,56,60,0
535.4491,535.9848,39,75,0
535.9848,538.1277,36,92,0
535.9848,538.1277,39,92,0
535.9848,538.1277,48,92,0
538.1277,538.6522,34,75,0
538.1277,538.6522,39,75,0
538.1277,538.6522,46,75,0
538.6634,538.842,32,75,0
538.6634,538.842,39,75,0
538.6634,538.842,44,75,0
539.1991,539.72363,31,60,0
539.1991,539.72363,39,60,0
539.1991,539.72363,43,60,0
539.7348,540.2594,51,60,0
539.7348,540.2594,58,60,0
539.7348,540.2594,61,60,0
539.7348,540.2594,63,60,0
540.2705,540.7951,51,60,0
540.2705,540.7951,58,60,0
540.2705,540.7951,61,60,0
540.2705,540.7951,63,60,0
540.8063,541.3308,51,92,0
540.8063,541.3308,58,92,0
540.8063,541.3308,61,92,0
540.8063,541.3308,63,92,0
541.342,541.8665,51,92,0
541.342,541.8665,58,92,0
541.342,541.8665,61,92,0
541.342,541.8665,63,92,0
541.8777,542.4022,51,92,0
541.8777,542.4022,58,92,0
541.8777,542.4022,61,92,0
541.8777,542.4022,63,92,0
542.4134,542.9379,51,75,0
542.4134,542.9379,58,75,0
542.4134,542.9379,61,75,0
542.4134,542.9379,63,75,0
542.9491,543.47363,51,75,0
542.9491,543.47363,58,75,0
542.9491,543.47363,61,75,0
542.9491,543.47363,63,75,0
543.4848,544.0094,51,75,0
543.4848,544.0094,58,75,0
543.4848,544.0094,61,75,0
543.4848,544.0094,63,75,0
544.0205,544.5451,51,75,0
544.0205,544.5451,56,75,0
544.0205,544.5451,60,75,0
544.0205,544.5451,63,75,0
544.5563,545.0808,51,75,0
544.5563,545.0808,56,75,0
544.5563,545.0808,60,75,0
544.5563,545.0808,63,75,0
545.092,545.6165,51,75,0
545.092,545.6165,56,75,0
545.092,545.6165,60,75,0
545.092,545.6165,63,75,0
545.6277,546.1522,51,92,0
545.6277,546.1522,58,92,0
545.6277,546.1522,61,92,0
545.6277,546.1522,63,92,0
546.1634,546.6879,51,92,0
546.1634,546.6879,58,92,0
546.1634,546.6879,61,92,0
546.1634,546.6879,63,92,0
546.6991,547.22363,51,92,0
546.6991,547.22363,58,92,0
546.6991,547.22363,61,92,0
546.6991,547.22363,63,92,0
547.2348,547.7594,51,75,0
547.2348,547.7594,58,75,0
547.2348,547.7594,61,75,0
547.2348,547.7594,63,75,0
547.7705,548.2951,51,75,0
547.7705,548.2951,58,75,0
547.7705,548.2951,61,75,0
547.7705,548.2951,63,75,0
548.3063,548.8308,51,75,0
548.3063,548.8308,58,75,0
548.3063,548.8308,61,75,0
548.3063,548.8308,63,75,0
548.842,549.3859,51,60,0
548.842,549.3859,56,60,0
548.842,549.3859,60,60,0
548.842,549.3859,63,60,0
549.3975,549.94147,51,60,0
549.3975,549.94147,56,60,0
549.3975,549.94147,60,60,0
549.3975,549.94147,63,60,0
549.95306,550.4971,51,60,0
549.95306,550.4971,56,60,0
549.95306,550.4971,60,60,0
549.95306,550.4971,63,60,0
550.5086,551.0526,51,92,0
550.5086,551.0526,58,92,0
550.5086,551.0526,61,92,0
550.5086,551.0526,63,92,0
551.0642,551.60815,51,92,0
551.0642,551.60815,58,92,0
551.0642,551.60815,61,92,0
551.0642,551.60815,63,92,0
551.61975,552.1637,51,92,0
551.61975,552.1637,58,92,0
551.61975,552.1637,61,92,0
551.61975,552.1637,63,92,0
552.1753,552.7402,51,92,0
552.1753,552.7402,58,92,0
552.1753,552.7402,61,92,0
552.1753,552.7402,63,92,0
552.7522,553.31714,51,82,0
552.7522,553.31714,58,82,0
552.7522,553.31714,61,82,0
552.7522,553.31714,63,82,0
553.32916,553.89404,51,71,0
553.32916,553.89404,58,71,0
553.32916,553.89404,61,71,0
553.32916,553.89404,63,71,0
553.90607,554.90607,51,60,0
553.90607,554.90607,56,60,0
553.90607,554.90607,60,60,0
553.90607,554.90607,63,60,0
557.58105,558.7629,32,45,0
557.58105,558.7629,44,45,0
559.8462,565.3462,32,45,0
559.8462,565.3462,44,45,0
567.8462,568.8254,44,10,0
