start_time,end_time,note_value,velocity,instrument_program_number
9.545448,10.545447,70,60,71
10.636356,11.113628,69,60,71
11.113628,11.176128,70,64,71
11.18181,12.181809,70,64,71
12.272718,12.74999,69,76,71
12.74999,12.81249,70,80,71
12.818172,13.635616,70,80,71
13.641403,13.913394,62,92,71
14.2022,14.4793215,62,75,71
14.77368,15.056131,62,75,71
15.062141,15.552337,63,60,71
22.795824,23.795822,70,60,71
23.886732,24.364004,69,60,71
24.364004,24.426504,70,64,71
24.432186,25.432184,70,64,71
25.523094,26.000366,69,76,71
26.000366,26.062866,70,80,71
26.068548,26.885992,70,80,71
26.891779,27.16377,62,92,71
27.452576,27.729698,62,75,71
28.024055,28.306507,62,75,71
28.312517,28.802713,63,60,71
33.864384,34.40984,67,75,71
34.40984,34.864384,65,60,71
34.95529,35.409836,63,45,71
36.591656,37.137108,72,60,71
37.137108,37.409836,69,60,71
37.409836,37.682564,70,68,71
37.682564,37.955288,71,76,71
37.955288,38.222336,72,84,71
38.228016,38.68256,74,92,71
40.409832,40.955284,65,75,71
40.955284,41.409832,63,60,71
41.50074,41.955284,62,45,71
42.59165,43.1371,68,92,71
43.1371,43.59165,67,60,71
44.22801,44.682556,63,60,71
44.773464,44.864372,70,60,71
45.046192,45.1371,72,68,71
45.318916,45.40983,74,76,71
45.591644,45.682552,75,84,71
45.864372,46.682552,77,92,71
46.682552,46.949596,75,92,71
46.95528,47.04619,72,86,71
47.22801,47.318916,70,80,71
47.500732,47.591644,69,74,71
47.77346,47.86437,65,67,71
48.04619,49.68255,70,60,71
49.68255,52.273457,70,45,71
52.40982,52.887093,67,60,71
52.887093,52.949593,63,60,71
52.955273,53.091637,58,60,71
53.50073,53.637093,58,60,71
54.04618,54.182545,58,60,71
54.591637,55.04618,58,60,71
55.682545,56.682545,82,60,71
56.773453,57.250725,81,68,71
57.250725,57.313225,82,71,71
57.318905,58.318905,82,71,71
58.409813,58.887085,81,79,71
58.887085,58.949585,82,82,71
58.95527,59.963684,82,82,71
60.05628,60.197784,68,92,71
60.622314,60.766544,68,75,71
61.199238,61.689434,67,60,71
66.75111,67.296555,67,75,71
67.296555,67.75111,65,60,71
67.84201,68.296555,63,45,71
69.47837,70.02383,72,60,71
70.02383,70.296555,69,60,71
70.296555,70.56928,70,68,71
70.56928,70.84201,71,76,71
70.84201,71.109055,72,84,71
71.11474,71.56928,74,92,71
73.296555,73.842,65,75,71
73.842,74.296555,63,60,71
74.38746,74.842,62,45,71
75.47837,76.02382,68,92,71
76.02382,76.47837,67,60,71
77.11473,77.569275,63,60,71
77.66019,77.75109,70,60,71
77.932915,78.02382,72,68,71
78.205635,78.29655,74,76,71
78.47836,78.569275,75,84,71
78.75109,79.569275,77,92,71
79.569275,79.83632,75,92,71
79.842,79.93291,72,86,71
80.11472,80.205635,70,80,71
80.38745,80.47836,69,74,71
80.66018,80.75109,65,67,71
80.93291,82.56927,70,60,71
82.56927,85.16018,70,45,71
85.29654,85.77381,67,60,71
85.77381,85.83631,63,60,71
85.841995,85.978355,58,60,71
86.38745,86.52381,58,60,71
86.9329,87.06927,58,60,71
87.478355,87.9329,58,60,71
88.56927,89.56926,82,60,71
89.66017,90.13744,81,68,71
90.13744,90.19994,82,71,71
90.20563,91.20563,82,71,71
91.29653,91.7738,81,79,71
91.7738,91.8363,82,82,71
91.84199,92.8504,82,82,71
92.943,93.0845,68,92,71
93.50903,93.65327,68,75,71
94.08596,94.57616,67,60,71
100.72873,100.90487,58,45,71
100.91055,101.086685,63,45,71
101.09237,101.2685,67,46,71
101.274185,101.450325,70,48,71
101.456,101.63214,75,50,71
101.637825,101.81396,79,52,71
101.81964,101.99577,82,54,71
102.00146,102.1776,82,56,71
102.18327,102.35941,82,58,71
102.3651,102.54123,82,60,71
102.54691,102.723045,82,60,71
102.72873,102.90487,82,60,71
102.910545,103.086685,82,60,71
103.09237,103.2685,82,63,71
103.274185,103.45032,82,66,71
103.456,103.63214,82,69,71
103.63782,103.81396,82,72,71
103.81964,103.99577,82,76,71
104.00146,104.17759,82,80,71
104.18327,104.35941,82,84,71
104.36509,104.54123,82,88,71
104.54691,104.723045,82,92,71
104.72873,104.90486,82,92,71
104.910545,105.086685,82,92,71
105.09236,105.2685,82,75,71
105.274185,105.45032,82,75,71
105.456,105.63213,82,75,71
105.63782,105.81396,82,60,71
105.81963,106.00146,82,60,71
106.00146,106.18327,83,60,71
106.18327,106.36509,84,60,71
106.36509,106.546906,82,60,71
106.546906,106.72873,80,60,71
106.72873,106.917404,79,60,71
106.917404,107.10019,77,60,71
107.10609,107.229904,75,60,71
107.29476,107.882996,75,60,71
107.882996,108.17099,74,45,71
113.92577,114.101906,58,45,71
114.10759,114.28373,63,45,71
114.289406,114.465546,67,46,71
114.47123,114.64736,70,48,71
114.653046,114.82918,75,50,71
114.83486,115.011,79,52,71
115.01668,115.19282,82,54,71
115.1985,115.37463,82,56,71
115.38032,115.55645,82,58,71
115.56213,115.73827,82,60,71
115.74395,115.92009,82,60,71
115.92577,116.101906,82,60,71
116.10759,116.28372,82,60,71
116.289406,116.465546,82,63,71
116.47122,116.64736,82,66,71
116.653046,116.82918,82,69,71
116.83486,117.010994,82,72,71
117.01668,117.19282,82,76,71
117.198494,117.37463,82,80,71
117.38032,117.55645,82,84,71
117.56213,117.738266,82,88,71
117.74395,117.92009,82,92,71
117.925766,118.101906,82,92,71
118.10759,118.28372,82,92,71
118.289406,118.46554,82,75,71
118.47122,118.64736,82,75,71
118.65304,118.82918,82,75,71
118.83486,119.010994,82,60,71
119.01668,119.198494,82,60,71
119.198494,119.38031,83,60,71
119.38031,119.56213,84,60,71
119.56213,119.74395,82,60,71
119.74395,119.925766,80,60,71
119.925766,120.11445,79,60,71
120.11445,120.297226,77,60,71
120.30312,120.42695,75,60,71
120.491806,121.08004,75,60,71
121.08004,121.36803,74,45,71
132.0319,132.29895,63,60,71
132.30463,132.57167,79,60,71
132.85008,133.11713,80,60,71
133.39554,133.66258,77,60,71
133.66826,133.84439,75,60,71
133.85008,134.03189,55,60,71
134.03189,134.20804,58,60,71
134.21371,134.33304,63,60,71
134.39554,134.51485,67,60,71
134.57735,134.69667,70,60,71
134.75917,134.8785,75,60,71
134.941,135.0603,79,60,71
135.1228,135.24213,82,60,71
135.30463,135.48076,82,60,71
135.48643,135.66258,82,62,71
135.66826,135.84439,82,64,71
135.85008,136.02621,82,66,71
136.03189,136.20804,82,68,71
136.21371,136.38985,82,71,71
136.39554,136.57167,82,74,71
136.57735,136.75348,82,77,71
136.75917,136.9353,82,80,71
136.94098,137.11713,82,83,71
137.1228,137.29893,82,86,71
137.30463,137.48076,82,89,71
137.48643,137.66258,82,92,71
137.66826,137.84439,82,92,71
137.85008,138.02621,82,92,71
138.03189,138.20802,82,92,71
138.21371,138.38985,82,92,71
138.39552,138.57167,82,92,71
138.57735,138.69667,82,92,71
138.75917,138.94098,82,89,71
138.94098,139.1228,83,86,71
139.1228,139.30463,84,83,71
139.30463,139.48643,80,80,71
139.48643,139.66826,79,76,71
139.66826,139.85693,77,72,71
139.85693,140.03972,75,68,71
140.04561,140.16943,74,64,71
140.2343,140.82253,77,60,71
140.82253,141.11052,75,45,71
151.77438,152.04143,63,60,71
152.04712,152.31416,79,60,71
152.59258,152.85962,80,60,71
153.13803,153.40508,77,60,71
153.41075,153.58688,75,60,71
153.59258,153.77438,55,60,71
153.77438,153.95052,58,60,71
153.9562,154.07552,63,60,71
154.13802,154.25734,67,60,71
154.31984,154.43916,70,60,71
154.50166,154.62097,75,60,71
154.68347,154.8028,79,60,71
154.8653,154.98462,82,60,71
155.04712,155.22325,82,60,71
155.22893,155.40506,82,62,71
155.41075,155.58688,82,64,71
155.59256,155.7687,82,66,71
155.77438,155.95052,82,68,71
155.9562,156.13234,82,71,71
156.13802,156.31416,82,74,71
156.31984,156.49597,82,77,71
156.50166,156.6778,82,80,71
156.68347,156.8596,82,83,71
156.8653,157.04143,82,86,71
157.0471,157.22325,82,89,71
157.22893,157.40506,82,92,71
157.41075,157.58688,82,92,71
157.59256,157.7687,82,92,71
157.77438,157.95052,82,92,71
157.9562,158.13234,82,92,71
158.13802,158.31415,82,92,71
158.31984,158.43915,82,92,71
158.50165,158.68347,82,89,71
158.68347,158.8653,83,86,71
158.8653,159.0471,84,83,71
159.0471,159.22893,80,80,71
159.22893,159.41075,79,76,71
159.41075,159.59943,77,72,71
159.59943,159.78221,75,68,71
159.7881,159.91193,74,64,71
159.97678,160.56502,77,60,71
160.56502,160.85301,75,45,71
167.6987,168.6987,70,60,71
168.78961,169.26688,69,60,71
169.26688,169.32938,70,64,71
169.33507,170.33507,70,64,71
170.42596,170.90324,69,76,71
170.90324,170.96574,70,80,71
170.97142,171.78886,70,80,71
171.79466,172.06665,62,92,71
172.35545,172.63257,62,75,71
172.92693,173.20938,62,75,71
173.2154,173.70558,63,60,71
178.76726,179.31271,67,75,71
179.31271,179.76726,65,60,71
179.85817,180.31271,63,45,71
181.49454,182.03998,72,60,71
182.03998,182.31271,69,60,71
182.31271,182.58543,70,68,71
182.58543,182.85817,71,76,71
182.85817,183.12521,72,84,71
183.13089,183.58543,74,92,71
185.31271,185.85817,65,75,71
185.85817,186.31271,63,60,71
186.40361,186.85815,62,45,71
187.49452,188.03998,68,92,71
188.03998,188.49452,67,60,71
189.13089,189.58543,63,60,71
189.67635,189.76724,70,60,71
189.94907,190.03998,72,68,71
190.22179,190.3127,74,76,71
190.49452,190.58543,75,84,71
190.76724,191.58543,77,92,71
191.58543,191.85248,75,92,71
191.85815,191.94907,72,86,71
192.13089,192.22179,70,80,71
192.40361,192.49452,69,74,71
192.67633,192.76724,65,67,71
192.94907,194.58542,70,60,71
194.58542,197.17633,70,45,71
197.3127,197.78996,67,60,71
197.78996,197.85246,63,60,71
197.85815,197.9945,58,60,71
198.40361,198.53996,58,60,71
198.94905,199.08542,58,60,71
199.4945,199.94905,58,60,71
200.58542,201.58542,82,60,71
201.67633,202.1536,81,68,71
202.1536,202.2161,82,71,71
202.22179,203.22179,82,71,71
203.31268,203.78996,81,79,71
203.78996,203.85246,82,82,71
203.85814,204.86656,82,82,71
204.95915,205.10066,68,92,71
205.52519,205.66942,68,75,71
206.10211,206.60211,67,60,71
3.0,3.090909,55,60,42
3.272727,3.363636,46,60,42
3.545454,3.636363,56,60,42
3.818181,3.90909,46,60,42
4.090908,4.181817,56,60,42
4.363635,4.454544,46,60,42
4.636362,4.727271,56,60,42
4.909089,4.999998,46,60,42
5.181816,5.272725,55,60,42
5.454543,5.545452,46,60,42
5.72727,5.818179,55,60,42
5.999997,6.090906,46,60,42
6.272724,6.363633,55,60,42
6.545451,6.63636,46,60,42
6.818178,6.909087,53,60,42
7.090905,7.181814,46,60,42
7.363632,7.454541,50,60,42
7.636359,7.727268,46,60,42
7.909086,7.999995,53,60,42
8.181813,8.272722,46,60,42
8.45454,8.545449,55,60,42
8.727267,8.818176,46,60,42
8.999994,9.090903,55,60,42
9.272721,9.36363,46,60,42
9.545448,10.545447,58,60,42
10.636356,11.113628,57,60,42
11.113628,11.176128,58,64,42
11.18181,12.181809,58,64,42
12.272718,12.74999,57,76,42
12.74999,12.81249,58,80,42
12.818172,13.635616,58,80,42
13.641403,13.913394,56,92,42
14.2022,14.4793215,56,92,42
14.77368,15.056131,56,75,42
15.062141,15.552337,55,60,42
16.250376,16.341286,55,60,42
16.523104,16.614012,46,60,42
16.79583,16.88674,56,60,42
17.068558,17.159466,46,60,42
17.341284,17.432194,56,60,42
17.614012,17.70492,46,60,42
17.886738,17.977648,56,60,42
18.159466,18.250374,46,60,42
18.432192,18.523102,55,60,42
18.70492,18.795828,46,60,42
18.977646,19.068556,55,60,42
19.250374,19.341282,46,60,42
19.5231,19.61401,55,60,42
19.795828,19.886736,46,60,42
20.068554,20.159464,53,60,42
20.341282,20.43219,46,60,42
20.614008,20.704918,50,60,42
20.886736,20.977644,46,60,42
21.159462,21.250372,53,60,42
21.43219,21.523098,46,60,42
21.704916,21.795824,55,60,42
21.977642,22.068552,46,60,42
22.25037,22.341278,55,60,42
22.523096,22.614006,46,60,42
22.795824,23.795822,58,60,42
23.886732,24.364004,57,60,42
24.364004,24.426504,58,64,42
24.432186,25.432184,58,64,42
25.523094,26.000366,57,76,42
26.000366,26.062866,58,80,42
26.068548,26.885992,58,80,42
26.891779,27.16377,56,92,42
27.452576,27.729698,56,92,42
28.024055,28.306507,56,75,42
28.312517,28.802713,55,60,42
30.046206,30.18257,62,60,42
30.59166,30.728024,62,75,42
31.137114,31.273478,62,75,42
31.682568,32.228024,63,92,42
32.228024,32.773476,67,92,42
32.773476,33.22802,63,75,42
33.31893,34.40984,60,75,42
34.40984,34.864384,59,60,42
34.95529,35.409836,60,45,42
36.591656,37.137108,60,60,42
37.137108,37.409836,57,60,42
37.409836,37.682564,58,68,42
37.682564,37.955288,59,76,42
37.955288,38.222336,60,84,42
38.228016,38.77347,62,92,42
38.77347,39.318924,65,92,42
39.318924,39.773468,62,75,42
39.86438,40.955284,58,75,42
40.955284,41.409832,57,60,42
41.50074,41.955284,58,45,42
42.59165,43.1371,59,92,42
43.1371,43.59165,60,60,42
44.22801,44.682556,60,60,42
44.773464,44.864372,58,60,42
45.046192,45.1371,60,68,42
45.318916,45.40983,62,76,42
45.591644,45.682552,63,84,42
45.864372,46.682552,65,92,42
46.682552,46.949596,63,92,42
46.95528,47.04619,60,86,42
47.22801,47.318916,58,80,42
47.500732,47.591644,57,74,42
47.77346,47.86437,53,67,42
48.04619,48.182552,58,60,42
49.137096,49.61437,63,60,42
49.61437,49.67687,62,60,42
49.68255,50.137096,62,60,42
50.773457,51.25073,62,60,42
51.25073,51.31323,63,60,42
51.318913,51.773457,63,60,42
52.40982,52.887093,63,60,42
52.887093,52.949593,67,60,42
52.955273,53.40982,70,60,42
53.50073,53.978,70,60,42
53.978,54.0405,72,60,42
54.04618,54.137093,70,60,42
54.31891,54.409817,68,60,42
54.591637,55.13709,67,60,42
55.13709,55.591637,63,60,42
55.682545,56.682545,58,60,42
56.773453,57.250725,57,68,42
57.250725,57.313225,58,71,42
57.318905,58.318905,58,71,42
58.409813,58.887085,57,79,42
58.887085,58.949585,58,82,42
58.95527,59.772713,58,82,42
59.7785,59.871094,46,92,42
60.05628,60.150616,50,92,42
60.339294,60.433636,53,92,42
60.622314,60.718468,58,75,42
60.910774,61.006927,62,75,42
61.199238,61.689434,63,60,42
62.932926,63.06929,62,60,42
63.47838,63.614742,62,75,42
64.023834,64.160194,62,75,42
64.56929,65.11474,63,92,42
65.11474,65.660194,67,92,42
65.660194,66.11474,63,75,42
66.20565,67.296555,60,75,42
67.296555,67.75111,59,60,42
67.84201,68.296555,60,45,42
69.47837,70.02383,60,60,42
70.02383,70.296555,57,60,42
70.296555,70.56928,58,68,42
70.56928,70.84201,59,76,42
70.84201,71.109055,60,84,42
71.11474,71.66019,62,92,42
71.66019,72.20564,65,92,42
72.20564,72.66019,62,75,42
72.7511,73.842,58,75,42
73.842,74.296555,57,60,42
74.38746,74.842,58,45,42
75.47837,76.02382,59,92,42
76.02382,76.47837,60,60,42
77.11473,77.569275,60,60,42
77.66019,77.75109,58,60,42
77.932915,78.02382,60,68,42
78.205635,78.29655,62,76,42
78.47836,78.569275,63,84,42
78.75109,79.569275,65,92,42
79.569275,79.83632,63,92,42
79.842,79.93291,60,86,42
80.11472,80.205635,58,80,42
80.38745,80.47836,57,74,42
80.66018,80.75109,53,67,42
80.93291,81.069275,58,60,42
82.02382,82.50109,63,60,42
82.50109,82.56359,62,60,42
82.56927,83.02381,62,60,42
83.66018,84.13745,62,60,42
84.13745,84.19995,63,60,42
84.205635,84.66018,63,60,42
85.29654,85.77381,63,60,42
85.77381,85.83631,67,60,42
85.841995,86.29654,70,60,42
86.38745,86.86472,70,60,42
86.86472,86.92722,72,60,42
86.9329,87.02381,70,60,42
87.20563,87.29654,68,60,42
87.478355,88.02381,67,60,42
88.02381,88.478355,63,60,42
88.56927,89.56926,58,60,42
89.66017,90.13744,57,68,42
90.13744,90.19994,58,71,42
90.20563,91.20563,58,71,42
91.29653,91.7738,57,79,42
91.7738,91.8363,58,82,42
91.84199,92.65943,58,82,42
92.66522,92.75781,46,92,42
92.943,93.03734,50,92,42
93.22601,93.32036,53,92,42
93.50903,93.60519,58,75,42
93.79749,93.89365,62,75,42
94.08596,94.57616,63,60,42
97.45601,97.637825,63,60,42
97.637825,97.813965,67,60,42
97.81964,97.938965,58,60,42
98.001465,98.12078,63,60,42
98.18328,98.3026,55,58,42
98.3651,98.48441,58,56,42
98.54691,98.66624,51,54,42
98.72874,98.84805,55,51,42
98.91055,99.02987,46,48,42
99.09237,99.35941,39,45,42
102.3651,102.910545,63,60,42
102.910545,103.72873,65,60,42
103.72873,103.99577,62,76,42
104.00146,104.54691,63,81,42
104.54691,105.36509,65,92,42
105.36509,105.63213,62,75,42
105.63782,105.90486,63,60,42
106.18327,106.917404,60,60,42
106.917404,107.10019,62,60,42
107.10609,107.229904,63,60,42
107.29476,107.882996,67,60,42
107.882996,108.17099,65,45,42
110.653046,110.83487,63,60,42
110.83487,111.011,67,60,42
111.016685,111.136,58,60,42
111.1985,111.31782,63,60,42
111.38032,111.49964,55,58,42
111.56214,111.68146,58,56,42
111.74396,111.86327,51,54,42
111.92577,112.04509,55,51,42
112.10759,112.22691,46,48,42
112.28941,112.55646,39,45,42
115.56213,116.10759,63,60,42
116.10759,116.92577,65,60,42
116.92577,117.19282,62,76,42
117.198494,117.74395,63,81,42
117.74395,118.56213,65,92,42
118.56213,118.82918,62,75,42
118.83486,119.101906,63,60,42
119.38031,120.11445,60,60,42
120.11445,120.297226,62,60,42
120.30312,120.42695,63,60,42
120.491806,121.08004,67,60,42
121.08004,121.36803,65,45,42
128.21371,128.61713,46,60,42
128.62282,128.7535,46,60,42
128.75917,128.85008,51,60,42
129.0319,129.12282,67,60,42
129.57736,129.66826,68,60,42
130.12282,130.21371,65,60,42
130.39554,130.57736,63,60,42
130.57736,130.7535,67,60,42
130.75917,130.8785,58,60,42
130.941,131.0603,63,60,42
131.1228,131.24213,55,58,42
131.30463,131.42395,58,56,42
131.48645,131.60576,51,54,42
131.66826,131.78758,55,51,42
131.85008,131.9694,46,48,42
132.0319,132.29895,39,45,42
135.30463,135.85008,63,60,42
135.85008,136.66826,65,60,42
136.66826,136.9353,62,76,42
136.94098,137.48643,63,81,42
137.48643,138.30463,65,92,42
138.30463,138.57167,62,92,42
138.57735,139.03189,63,92,42
139.30463,139.48076,56,79,42
139.48643,139.66257,56,76,42
139.66826,139.85693,58,72,42
139.85693,140.03972,60,68,42
140.04561,140.16943,62,64,42
140.2343,140.82253,62,60,42
140.82253,141.11052,63,45,42
147.9562,148.35962,46,60,42
148.3653,148.49599,46,60,42
148.50166,148.59258,51,60,42
148.7744,148.8653,67,60,42
149.31984,149.41075,68,60,42
149.8653,149.9562,65,60,42
150.13803,150.31984,63,60,42
150.31984,150.49599,67,60,42
150.50166,150.62099,58,60,42
150.68349,150.8028,63,60,42
150.8653,150.98462,55,58,42
151.04712,151.16643,58,56,42
151.22893,151.34825,51,54,42
151.41075,151.53008,55,51,42
151.59258,151.71188,46,48,42
151.77438,152.04143,39,45,42
155.04712,155.59256,63,60,42
155.59256,156.41075,65,60,42
156.41075,156.6778,62,76,42
156.68347,157.22893,63,81,42
157.22893,158.0471,65,92,42
158.0471,158.31415,62,92,42
158.31984,158.77438,63,92,42
159.0471,159.22325,56,79,42
159.22893,159.40506,56,76,42
159.41075,159.59943,58,72,42
159.59943,159.78221,60,68,42
159.7881,159.91193,62,64,42
159.97678,160.56502,62,60,42
160.56502,160.85301,63,45,42
161.15326,161.24416,55,60,42
161.42598,161.51689,46,60,42
161.6987,161.78961,56,60,42
161.97144,162.06235,46,60,42
162.24416,162.33507,56,60,42
162.51689,162.6078,46,60,42
162.78961,162.88052,56,60,42
163.06235,163.15324,46,60,42
163.33507,163.42598,55,60,42
163.60779,163.6987,46,60,42
163.88052,163.97144,55,60,42
164.15324,164.24416,46,60,42
164.42598,164.51689,55,60,42
164.6987,164.78961,46,60,42
164.97144,165.06233,53,60,42
165.24416,165.33507,46,60,42
165.51689,165.60779,50,60,42
165.78961,165.88052,46,60,42
166.06233,166.15324,53,60,42
166.33507,166.42598,46,60,42
166.60779,166.6987,55,60,42
166.88052,166.97144,46,60,42
167.15324,167.24416,55,60,42
167.42598,167.51688,46,60,42
167.6987,168.6987,58,60,42
168.78961,169.26688,57,60,42
169.26688,169.32938,58,64,42
169.33507,170.33507,58,64,42
170.42596,170.90324,57,76,42
170.90324,170.96574,58,80,42
170.97142,171.78886,58,80,42
171.79466,172.06665,56,92,42
172.35545,172.63257,56,92,42
172.92693,173.20938,56,75,42
173.2154,173.70558,55,60,42
174.94908,175.08545,62,60,42
175.49454,175.6309,62,75,42
176.04,176.17636,62,75,42
176.58545,177.1309,63,92,42
177.1309,177.67635,67,92,42
177.67635,178.13089,63,75,42
178.2218,179.31271,60,75,42
179.31271,179.76726,59,60,42
179.85817,180.31271,60,45,42
181.49454,182.03998,60,60,42
182.03998,182.31271,57,60,42
182.31271,182.58543,58,68,42
182.58543,182.85817,59,76,42
182.85817,183.12521,60,84,42
183.13089,183.67635,62,92,42
183.67635,184.2218,65,92,42
184.2218,184.67635,62,75,42
184.76726,185.85817,58,75,42
185.85817,186.31271,57,60,42
186.40361,186.85815,58,45,42
187.49452,188.03998,59,92,42
188.03998,188.49452,60,60,42
189.13089,189.58543,60,60,42
189.67635,189.76724,58,60,42
189.94907,190.03998,60,68,42
190.22179,190.3127,62,76,42
190.49452,190.58543,63,84,42
190.76724,191.58543,65,92,42
191.58543,191.85248,63,92,42
191.85815,191.94907,60,86,42
192.13089,192.22179,58,80,42
192.40361,192.49452,57,74,42
192.67633,192.76724,53,67,42
192.94907,193.08543,58,60,42
194.03998,194.51724,63,60,42
194.51724,194.57974,62,60,42
194.58542,195.03998,62,60,42
195.67633,196.15361,62,60,42
196.15361,196.21611,63,60,42
196.22179,196.67633,63,60,42
197.3127,197.78996,63,60,42
197.78996,197.85246,67,60,42
197.85815,198.3127,70,60,42
198.40361,198.88087,70,60,42
198.88087,198.94337,72,60,42
198.94905,199.03996,70,60,42
199.22179,199.3127,68,60,42
199.4945,200.03996,67,60,42
200.03996,200.4945,63,60,42
200.58542,201.58542,58,60,42
201.67633,202.1536,57,68,42
202.1536,202.2161,58,71,42
202.22179,203.22179,58,71,42
203.31268,203.78996,57,79,42
203.78996,203.85246,58,82,42
203.85814,204.67558,58,82,42
204.68138,204.77397,46,92,42
204.95915,205.0535,50,92,42
205.24217,205.33652,53,92,42
205.52519,205.62134,58,75,42
205.81364,205.9098,62,75,42
206.10211,206.60211,63,60,42
3.0,3.4772723,63,60,0
3.4772723,3.5397723,62,60,0
3.545454,3.999999,62,60,0
4.636362,5.113634,62,60,0
5.113634,5.176134,63,60,0
5.181816,5.636361,63,60,0
6.272724,6.749996,63,60,0
6.749996,6.812496,67,60,0
6.818178,7.272723,70,60,0
7.363632,7.840904,70,60,0
7.840904,7.903404,72,60,0
7.909086,7.999995,70,60,0
8.181813,8.272722,68,60,0
8.45454,8.999994,67,60,0
8.999994,9.454539,63,60,0
9.545448,10.02272,63,60,0
9.545448,10.02272,75,60,0
10.02272,10.08522,62,60,0
10.02272,10.08522,74,60,0
10.090902,10.545447,62,60,0
10.090902,10.545447,74,60,0
11.18181,11.659082,62,60,0
11.18181,11.659082,74,60,0
11.659082,11.721582,63,67,0
11.659082,11.721582,75,67,0
11.727264,12.181809,63,67,0
11.727264,12.181809,75,67,0
12.818172,13.2954445,63,83,0
12.818172,13.2954445,75,83,0
13.2954445,13.3579445,67,90,0
13.2954445,13.3579445,79,90,0
13.363626,13.826589,70,92,0
13.363626,13.826589,82,92,0
13.919181,14.06069,82,92,0
14.06069,14.2022,81,88,0
14.2022,14.343709,82,84,0
14.343709,14.485218,81,80,0
14.485218,14.629449,82,76,0
14.629449,14.77368,80,72,0
14.77368,14.917911,79,68,0
14.917911,15.056131,77,64,0
15.062141,15.2092,75,60,0
16.250376,16.727648,63,60,0
16.727648,16.790148,62,60,0
16.79583,17.250376,62,60,0
17.886738,18.36401,62,60,0
18.36401,18.42651,63,60,0
18.432192,18.886738,63,60,0
19.5231,20.000372,63,60,0
20.000372,20.062872,67,60,0
20.068554,20.5231,70,60,0
20.614008,21.09128,70,60,0
21.09128,21.15378,72,60,0
21.159462,21.250372,70,60,0
21.43219,21.523098,68,60,0
21.704916,22.25037,67,60,0
22.25037,22.704914,63,60,0
22.795824,23.273096,63,60,0
22.795824,23.273096,75,60,0
23.273096,23.335596,62,60,0
23.273096,23.335596,74,60,0
23.341278,23.795822,62,60,0
23.341278,23.795822,74,60,0
24.432186,24.909458,62,60,0
24.432186,24.909458,74,60,0
24.909458,24.971958,63,67,0
24.909458,24.971958,75,67,0
24.97764,25.432184,63,67,0
24.97764,25.432184,75,67,0
26.068548,26.54582,63,83,0
26.068548,26.54582,75,83,0
26.54582,26.60832,67,90,0
26.54582,26.60832,79,90,0
26.614002,27.076965,70,92,0
26.614002,27.076965,82,92,0
27.169558,27.311066,82,92,0
27.311066,27.452576,81,88,0
27.452576,27.594086,82,84,0
27.594086,27.735594,81,80,0
27.735594,27.879826,82,76,0
27.879826,28.024055,80,72,0
28.024055,28.168285,79,68,0
28.168285,28.306507,77,64,0
28.312517,28.459576,75,60,0
29.500751,30.18257,67,60,0
30.046206,30.18257,79,60,0
30.59166,30.728024,67,60,0
30.59166,30.728024,79,60,0
31.137114,31.273478,67,75,0
31.137114,31.273478,79,75,0
31.682568,32.63711,79,92,0
32.773476,32.90984,77,92,0
32.90984,33.046204,75,84,0
33.046204,33.182568,74,76,0
33.182568,33.313248,72,68,0
33.31893,33.79052,75,60,0
33.796204,33.864384,77,60,0
33.864384,34.000748,75,60,0
34.000748,34.13711,74,60,0
34.13711,34.273476,75,60,0
34.273476,34.335976,77,60,0
34.341656,34.40984,75,60,0
34.40984,34.5462,74,60,0
34.5462,34.682564,72,60,0
34.682564,34.818928,74,60,0
34.818928,34.94961,75,60,0
34.95529,35.222336,72,60,0
35.22802,35.318928,74,60,0
35.318928,35.409836,72,60,0
35.409836,35.500748,71,60,0
35.500748,35.591656,72,60,0
35.77347,35.864384,74,60,0
36.0462,36.137108,75,60,0
36.318928,36.409836,76,60,0
36.591656,36.8587,75,60,0
36.591656,36.8587,77,60,0
36.86438,37.131428,75,65,0
36.86438,37.131428,77,65,0
37.137108,37.404152,75,70,0
37.137108,37.404152,77,70,0
37.409836,37.67688,75,75,0
37.409836,37.67688,77,75,0
37.682564,37.949608,75,80,0
37.682564,37.949608,77,80,0
37.955288,38.222336,75,86,0
37.955288,38.222336,77,86,0
38.228016,38.500744,74,92,0
38.228016,38.500744,77,92,0
38.500744,38.637108,79,92,0
38.637108,38.77347,81,89,0
38.77347,38.909832,82,86,0
38.909832,39.046196,81,83,0
39.046196,39.18256,79,80,0
39.18256,39.318924,77,77,0
39.318924,39.455288,75,74,0
39.455288,39.591652,74,71,0
39.591652,39.728016,72,68,0
39.728016,39.858696,70,64,0
39.86438,40.335968,74,60,0
40.341652,40.409832,75,60,0
40.409832,40.546196,74,60,0
40.546196,40.68256,72,60,0
40.68256,40.818924,74,60,0
40.818924,40.881424,75,60,0
40.887104,40.955284,74,60,0
40.955284,41.09165,72,60,0
41.09165,41.228012,70,60,0
41.228012,41.364376,72,60,0
41.364376,41.49506,74,60,0
41.50074,41.59165,70,60,0
41.773468,41.864376,72,68,0
42.046192,42.137104,74,76,0
42.31892,42.40983,75,84,0
42.59165,43.40983,77,92,0
43.40983,43.676876,75,92,0
43.682556,43.773464,72,86,0
43.955284,44.046192,70,80,0
44.22801,44.31892,69,74,0
44.500736,44.591644,65,67,0
44.773464,45.22801,62,60,0
44.773464,45.22801,70,60,0
45.864372,46.409824,59,92,0
45.864372,46.409824,68,92,0
46.409824,46.864372,60,60,0
46.409824,46.864372,67,60,0
47.500732,47.637096,60,75,0
47.500732,47.637096,63,75,0
48.04619,48.137096,58,60,0
48.04619,48.137096,62,60,0
48.318916,48.59164,58,60,0
48.59164,48.86437,57,60,0
48.86437,49.137096,58,60,0
49.137096,49.409824,55,60,0
49.409824,49.67687,58,60,0
49.68255,49.955276,56,60,0
49.955276,50.22232,58,60,0
50.228004,50.500732,56,60,0
50.500732,50.767776,58,60,0
50.773457,51.046185,56,60,0
51.046185,51.31323,58,60,0
51.318913,51.59164,55,60,0
51.59164,51.858685,58,60,0
51.864365,52.137093,55,60,0
52.137093,52.404137,58,60,0
52.40982,52.68255,67,60,0
52.68255,52.949593,58,60,0
52.955273,53.228,65,60,0
53.228,53.50073,58,60,0
53.50073,53.773457,62,60,0
53.773457,54.04618,58,60,0
54.04618,54.31891,65,60,0
54.31891,54.585953,58,60,0
54.591637,54.85868,67,60,0
54.864365,55.13141,58,60,0
55.13709,55.404137,55,60,0
55.409817,55.67686,58,60,0
55.682545,56.159817,63,60,0
55.682545,56.159817,75,60,0
56.159817,56.222317,62,63,0
56.159817,56.222317,74,63,0
56.227997,56.682545,62,63,0
56.227997,56.682545,74,63,0
57.318905,57.796177,62,72,0
57.318905,57.796177,74,72,0
57.796177,57.858677,63,75,0
57.796177,57.858677,75,75,0
57.86436,58.318905,63,75,0
57.86436,58.318905,75,75,0
58.95527,59.43254,63,86,0
58.95527,59.43254,75,86,0
59.43254,59.49504,67,91,0
59.43254,59.49504,79,91,0
59.50072,59.963684,70,92,0
59.50072,59.963684,82,92,0
60.05628,60.197784,82,92,0
60.197784,60.339294,81,88,0
60.339294,60.480804,82,84,0
60.480804,60.622314,81,80,0
60.622314,60.766544,82,76,0
60.766544,60.910774,80,72,0
60.910774,61.055008,79,68,0
61.055008,61.193226,77,64,0
61.199238,61.689434,75,60,0
62.38747,63.06929,67,60,0
62.932926,63.06929,79,60,0
63.47838,63.614742,67,60,0
63.47838,63.614742,79,60,0
64.023834,64.160194,67,75,0
64.023834,64.160194,79,75,0
64.56929,65.523834,79,92,0
65.660194,65.79656,77,92,0
65.79656,65.93292,75,84,0
65.93292,66.06929,74,76,0
66.06929,66.19997,72,68,0
66.20565,66.67724,75,60,0
66.68292,66.75111,77,60,0
66.75111,66.88747,75,60,0
66.88747,67.023834,74,60,0
67.023834,67.160194,75,60,0
67.160194,67.222694,77,60,0
67.22838,67.296555,75,60,0
67.296555,67.43292,74,60,0
67.43292,67.56928,72,60,0
67.56928,67.70565,74,60,0
67.70565,67.83633,75,60,0
67.84201,68.109055,72,60,0
68.11474,68.20565,74,60,0
68.20565,68.296555,72,60,0
68.296555,68.38747,71,60,0
68.38747,68.47838,72,60,0
68.660194,68.7511,74,60,0
68.93292,69.02383,75,60,0
69.20565,69.296555,76,60,0
69.47837,69.74542,75,60,0
69.47837,69.74542,77,60,0
69.7511,70.01814,75,65,0
69.7511,70.01814,77,65,0
70.02383,70.29087,75,70,0
70.02383,70.29087,77,70,0
70.296555,70.5636,75,75,0
70.296555,70.5636,77,75,0
70.56928,70.83633,75,80,0
70.56928,70.83633,77,80,0
70.84201,71.109055,75,86,0
70.84201,71.109055,77,86,0
71.11474,71.38747,74,92,0
71.11474,71.38747,77,92,0
71.38747,71.52383,79,92,0
71.52383,71.66019,81,89,0
71.66019,71.796555,82,86,0
71.796555,71.932915,81,83,0
71.932915,72.06928,79,80,0
72.06928,72.20564,77,77,0
72.20564,72.34201,75,74,0
72.34201,72.47837,74,71,0
72.47837,72.61473,72,68,0
72.61473,72.745415,70,64,0
72.7511,73.22269,74,60,0
73.22837,73.296555,75,60,0
73.296555,73.432915,74,60,0
73.432915,73.56928,72,60,0
73.56928,73.70564,74,60,0
73.70564,73.76814,75,60,0
73.77383,73.842,74,60,0
73.842,73.97837,72,60,0
73.97837,74.11473,70,60,0
74.11473,74.2511,72,60,0
74.2511,74.381775,74,60,0
74.38746,74.47837,70,60,0
74.66019,74.7511,72,68,0
74.932915,75.02383,74,76,0
75.20564,75.29655,75,84,0
75.47837,76.29655,77,92,0
76.29655,76.56359,75,92,0
76.569275,76.66019,72,86,0
76.842,76.932915,70,80,0
77.11473,77.20564,69,74,0
77.38746,77.47836,65,67,0
77.66019,78.11473,62,60,0
77.66019,78.11473,70,60,0
78.75109,79.29655,59,92,0
78.75109,79.29655,68,92,0
79.29655,79.75109,60,60,0
79.29655,79.75109,67,60,0
80.38745,80.52382,60,75,0
80.38745,80.52382,63,75,0
80.93291,81.02382,58,60,0
80.93291,81.02382,62,60,0
81.205635,81.47836,58,60,0
81.47836,81.75109,57,60,0
81.75109,82.02382,58,60,0
82.02382,82.29654,55,60,0
82.29654,82.56359,58,60,0
82.56927,82.841995,56,60,0
82.841995,83.10904,58,60,0
83.11472,83.38745,56,60,0
83.38745,83.654495,58,60,0
83.66018,83.93291,56,60,0
83.93291,84.19995,58,60,0
84.205635,84.478355,55,60,0
84.478355,84.74541,58,60,0
84.75108,85.02381,55,60,0
85.02381,85.290855,58,60,0
85.29654,85.56927,67,60,0
85.56927,85.83631,58,60,0
85.841995,86.11472,65,60,0
86.11472,86.38745,58,60,0
86.38745,86.66017,62,60,0
86.66017,86.9329,58,60,0
86.9329,87.20563,65,60,0
87.20563,87.47267,58,60,0
87.478355,87.7454,67,60,0
87.75108,88.01813,58,60,0
88.02381,88.290855,55,60,0
88.29654,88.56358,58,60,0
88.56927,89.04654,63,60,0
88.56927,89.04654,75,60,0
89.04654,89.10904,62,63,0
89.04654,89.10904,74,63,0
89.114716,89.56926,62,63,0
89.114716,89.56926,74,63,0
90.20563,90.6829,62,72,0
90.20563,90.6829,74,72,0
90.6829,90.7454,63,75,0
90.6829,90.7454,75,75,0
90.75108,91.20563,63,75,0
90.75108,91.20563,75,75,0
91.84199,92.31926,63,86,0
91.84199,92.31926,75,86,0
92.31926,92.38176,67,91,0
92.31926,92.38176,79,91,0
92.38744,92.8504,70,92,0
92.38744,92.8504,82,92,0
92.943,93.0845,82,92,0
93.0845,93.22601,81,88,0
93.22601,93.36752,82,84,0
93.36752,93.50903,81,80,0
93.50903,93.65327,82,76,0
93.65327,93.79749,80,72,0
93.79749,93.94173,79,68,0
93.94173,94.07995,77,64,0
94.08596,94.57616,75,60,0
95.27419,95.68328,58,45,0
95.68328,95.813965,63,45,0
95.81965,95.91055,58,45,0
95.81965,95.91055,63,45,0
95.81965,95.91055,67,45,0
96.3651,96.45601,60,45,0
96.3651,96.45601,65,45,0
96.3651,96.45601,68,45,0
96.91055,97.001465,56,45,0
96.91055,97.001465,62,45,0
96.91055,97.001465,65,45,0
97.45601,97.91055,55,45,0
97.45601,97.91055,58,45,0
97.45601,97.91055,63,45,0
99.09237,99.18328,58,45,0
99.09237,99.18328,63,45,0
99.09237,99.18328,67,45,0
99.637825,99.72873,60,45,0
99.637825,99.72873,65,45,0
99.637825,99.72873,68,45,0
100.18328,100.274185,56,45,0
100.18328,100.274185,62,45,0
100.18328,100.274185,65,45,0
100.72873,101.18327,55,45,0
100.72873,101.18327,58,45,0
100.72873,101.18327,63,45,0
102.3651,102.910545,67,60,0
102.3651,102.910545,79,60,0
102.910545,103.72873,68,60,0
102.910545,103.72873,80,60,0
103.72873,103.99577,65,76,0
103.72873,103.99577,77,76,0
104.00146,104.54691,67,81,0
104.00146,104.54691,79,81,0
104.54691,105.36509,68,92,0
104.54691,105.36509,80,92,0
105.36509,105.63213,65,75,0
105.36509,105.63213,77,75,0
105.63782,105.72873,67,60,0
105.63782,105.72873,79,60,0
106.18327,106.27418,63,60,0
106.18327,106.27418,72,60,0
106.72873,106.82307,63,60,0
106.72873,106.82307,72,60,0
107.29476,107.882996,58,60,0
107.29476,107.882996,63,60,0
107.882996,108.17099,62,45,0
108.47123,108.880325,58,45,0
108.880325,109.011,63,45,0
109.016685,109.1076,58,45,0
109.016685,109.1076,63,45,0
109.016685,109.1076,67,45,0
109.56214,109.65305,60,45,0
109.56214,109.65305,65,45,0
109.56214,109.65305,68,45,0
110.1076,110.1985,56,45,0
110.1076,110.1985,62,45,0
110.1076,110.1985,65,45,0
110.653046,111.1076,55,45,0
110.653046,111.1076,58,45,0
110.653046,111.1076,63,45,0
112.28941,112.38032,58,45,0
112.28941,112.38032,63,45,0
112.28941,112.38032,67,45,0
112.83486,112.92577,60,45,0
112.83486,112.92577,65,45,0
112.83486,112.92577,68,45,0
113.38032,113.47123,56,45,0
113.38032,113.47123,62,45,0
113.38032,113.47123,65,45,0
113.92577,114.38032,55,45,0
113.92577,114.38032,58,45,0
113.92577,114.38032,63,45,0
115.56213,116.10759,67,60,0
115.56213,116.10759,79,60,0
116.10759,116.92577,68,60,0
116.10759,116.92577,80,60,0
116.92577,117.19282,65,76,0
116.92577,117.19282,77,76,0
117.198494,117.74395,67,81,0
117.198494,117.74395,79,81,0
117.74395,118.56213,68,92,0
117.74395,118.56213,80,92,0
118.56213,118.82918,65,75,0
118.56213,118.82918,77,75,0
118.83486,118.925766,67,60,0
118.83486,118.925766,79,60,0
119.38031,119.47122,63,60,0
119.38031,119.47122,72,60,0
119.925766,120.0201,63,60,0
119.925766,120.0201,72,60,0
120.491806,121.08004,58,60,0
120.491806,121.08004,63,60,0
121.08004,121.36803,62,45,0
121.668274,122.07736,65,45,0
122.07736,122.208046,70,45,0
122.21373,122.304634,65,45,0
122.21373,122.304634,74,45,0
122.759186,122.85009,72,45,0
122.759186,122.85009,77,45,0
123.304634,123.395546,62,45,0
123.304634,123.395546,71,45,0
123.85009,123.941,63,45,0
123.85009,123.941,75,45,0
124.395546,124.48645,60,45,0
124.395546,124.48645,63,45,0
124.395546,124.48645,69,45,0
124.940994,125.031906,62,45,0
124.940994,125.031906,69,45,0
124.940994,125.031906,74,45,0
125.48645,125.57736,62,45,0
125.48645,125.57736,71,45,0
126.031906,126.12282,67,45,0
126.031906,126.12282,72,45,0
126.57736,126.66827,60,45,0
126.57736,126.66827,67,45,0
127.12281,127.38986,60,60,0
127.12281,127.38986,63,60,0
127.12281,127.38986,69,60,0
127.66827,127.93531,58,92,0
127.66827,127.93531,62,92,0
127.66827,128.48645,70,92,0
128.48645,128.62282,68,75,0
128.62282,128.7535,65,60,0
128.75917,128.85008,58,45,0
128.75917,128.85008,63,45,0
128.75917,128.85008,67,45,0
129.30463,129.39554,60,45,0
129.30463,129.39554,65,45,0
129.30463,129.39554,68,45,0
129.85008,129.941,56,45,0
129.85008,129.941,62,45,0
129.85008,129.941,65,45,0
130.39554,130.85008,55,45,0
130.39554,130.85008,63,45,0
132.0319,132.1228,58,45,0
132.0319,132.1228,63,45,0
132.0319,132.1228,67,45,0
132.57735,132.66826,60,45,0
132.57735,132.66826,65,45,0
132.57735,132.66826,68,45,0
133.1228,133.21371,56,45,0
133.1228,133.21371,62,45,0
133.1228,133.21371,65,45,0
133.66826,134.1228,55,45,0
133.66826,134.1228,58,45,0
133.66826,134.1228,63,45,0
135.30463,135.85008,67,60,0
135.30463,135.85008,79,60,0
135.85008,136.66826,68,60,0
135.85008,136.66826,80,60,0
136.66826,136.9353,65,76,0
136.66826,136.9353,77,76,0
136.94098,137.48643,67,81,0
136.94098,137.48643,79,81,0
137.48643,138.30463,68,92,0
137.48643,138.30463,80,92,0
138.30463,138.57167,65,92,0
138.30463,138.57167,77,92,0
138.57735,138.66826,67,92,0
138.57735,138.66826,79,92,0
139.1228,139.21371,60,82,0
139.1228,139.21371,72,82,0
139.66826,139.76259,58,72,0
139.66826,139.76259,65,72,0
139.66826,139.76259,68,72,0
140.2343,140.82253,58,60,0
140.2343,140.82253,68,60,0
140.82253,141.11052,67,45,0
141.41077,141.81985,65,45,0
141.81985,141.95053,70,45,0
141.95622,142.04712,65,45,0
141.95622,142.04712,74,45,0
142.50168,142.59258,72,45,0
142.50168,142.59258,77,45,0
143.04712,143.13803,62,45,0
143.04712,143.13803,71,45,0
143.59258,143.68349,63,45,0
143.59258,143.68349,75,45,0
144.13803,144.22894,60,45,0
144.13803,144.22894,63,45,0
144.13803,144.22894,69,45,0
144.68349,144.7744,62,45,0
144.68349,144.7744,69,45,0
144.68349,144.7744,74,45,0
145.22894,145.31985,62,45,0
145.22894,145.31985,71,45,0
145.7744,145.86531,67,45,0
145.7744,145.86531,72,45,0
146.31985,146.41075,60,45,0
146.31985,146.41075,67,45,0
146.8653,147.13235,60,60,0
146.8653,147.13235,63,60,0
146.8653,147.13235,69,60,0
147.41075,147.6778,58,92,0
147.41075,147.6778,62,92,0
147.41075,148.22894,70,92,0
148.22894,148.3653,68,75,0
148.3653,148.49599,65,60,0
148.50166,148.59258,58,45,0
148.50166,148.59258,63,45,0
148.50166,148.59258,67,45,0
149.04712,149.13803,60,45,0
149.04712,149.13803,65,45,0
149.04712,149.13803,68,45,0
149.59258,149.68349,56,45,0
149.59258,149.68349,62,45,0
149.59258,149.68349,65,45,0
150.13803,150.59258,55,45,0
150.13803,150.59258,63,45,0
151.77438,151.8653,58,45,0
151.77438,151.8653,63,45,0
151.77438,151.8653,67,45,0
152.31984,152.41075,60,45,0
152.31984,152.41075,65,45,0
152.31984,152.41075,68,45,0
152.8653,152.9562,56,45,0
152.8653,152.9562,62,45,0
152.8653,152.9562,65,45,0
153.41075,153.8653,55,45,0
153.41075,153.8653,58,45,0
153.41075,153.8653,63,45,0
155.04712,155.59256,67,60,0
155.04712,155.59256,79,60,0
155.59256,156.41075,68,60,0
155.59256,156.41075,80,60,0
156.41075,156.6778,65,76,0
156.41075,156.6778,77,76,0
156.68347,157.22893,67,81,0
156.68347,157.22893,79,81,0
157.22893,158.0471,68,92,0
157.22893,158.0471,80,92,0
158.0471,158.31415,65,92,0
158.0471,158.31415,77,92,0
158.31984,158.41075,67,92,0
158.31984,158.41075,79,92,0
158.8653,158.9562,60,82,0
158.8653,158.9562,72,82,0
159.41075,159.50508,58,72,0
159.41075,159.50508,65,72,0
159.41075,159.50508,68,72,0
159.97678,160.56502,58,60,0
159.97678,160.56502,68,60,0
160.56502,160.85301,67,45,0
161.15326,161.63052,63,60,0
161.63052,161.69302,62,60,0
161.6987,162.15324,62,60,0
162.78961,163.26689,62,60,0
163.26689,163.32939,63,60,0
163.33507,163.78961,63,60,0
164.42598,164.90324,63,60,0
164.90324,164.96574,67,60,0
164.97144,165.42598,70,60,0
165.51689,165.99416,70,60,0
165.99416,166.05666,72,60,0
166.06233,166.15324,70,60,0
166.33507,166.42598,68,60,0
166.60779,167.15324,67,60,0
167.15324,167.60779,63,60,0
167.6987,168.17598,63,60,0
167.6987,168.17598,75,60,0
168.17598,168.23848,62,60,0
168.17598,168.23848,74,60,0
168.24416,168.6987,62,60,0
168.24416,168.6987,74,60,0
169.33507,169.81233,62,60,0
169.33507,169.81233,74,60,0
169.81233,169.87483,63,67,0
169.81233,169.87483,75,67,0
169.88051,170.33507,63,67,0
169.88051,170.33507,75,67,0
170.97142,171.4487,63,83,0
170.97142,171.4487,75,83,0
171.4487,171.5112,67,90,0
171.4487,171.5112,79,90,0
171.51688,171.97984,70,92,0
171.51688,171.97984,82,92,0
172.07243,172.21394,82,92,0
172.21394,172.35545,81,88,0
172.35545,172.49696,82,84,0
172.49696,172.63847,81,80,0
172.63847,172.7827,82,76,0
172.7827,172.92693,80,72,0
172.92693,173.07117,79,68,0
173.07117,173.20938,77,64,0
173.2154,173.36246,75,60,0
174.40363,175.08545,67,60,0
174.94908,175.08545,79,60,0
175.49454,175.6309,67,60,0
175.49454,175.6309,79,60,0
176.04,176.17636,67,75,0
176.04,176.17636,79,75,0
176.58545,177.54,79,92,0
177.67635,177.81271,77,92,0
177.81271,177.94908,75,84,0
177.94908,178.08545,74,76,0
178.08545,178.21613,72,68,0
178.2218,178.69339,75,60,0
178.69908,178.76726,77,60,0
178.76726,178.90363,75,60,0
178.90363,179.04,74,60,0
179.04,179.17635,75,60,0
179.17635,179.23885,77,60,0
179.24454,179.31271,75,60,0
179.31271,179.44908,74,60,0
179.44908,179.58543,72,60,0
179.58543,179.7218,74,60,0
179.7218,179.8525,75,60,0
179.85817,180.12521,72,60,0
180.13089,180.2218,74,60,0
180.2218,180.31271,72,60,0
180.31271,180.40363,71,60,0
180.40363,180.49454,72,60,0
180.67635,180.76726,74,60,0
180.94908,181.03998,75,60,0
181.2218,181.31271,76,60,0
181.49454,181.76158,75,60,0
181.49454,181.76158,77,60,0
181.76726,182.0343,75,65,0
181.76726,182.0343,77,65,0
182.03998,182.30702,75,70,0
182.03998,182.30702,77,70,0
182.31271,182.57976,75,75,0
182.31271,182.57976,77,75,0
182.58543,182.85248,75,80,0
182.58543,182.85248,77,80,0
182.85817,183.12521,75,86,0
182.85817,183.12521,77,86,0
183.13089,183.40363,74,92,0
183.13089,183.40363,77,92,0
183.40363,183.53998,79,92,0
183.53998,183.67635,81,89,0
183.67635,183.81271,82,86,0
183.81271,183.94907,81,83,0
183.94907,184.08543,79,80,0
184.08543,184.2218,77,77,0
184.2218,184.35817,75,74,0
184.35817,184.49452,74,71,0
184.49452,184.63089,72,68,0
184.63089,184.76157,70,64,0
184.76726,185.23885,74,60,0
185.24452,185.31271,75,60,0
185.31271,185.44907,74,60,0
185.44907,185.58543,72,60,0
185.58543,185.7218,74,60,0
185.7218,185.7843,75,60,0
185.78998,185.85817,74,60,0
185.85817,185.99452,72,60,0
185.99452,186.13089,70,60,0
186.13089,186.26726,72,60,0
186.26726,186.39793,74,60,0
186.40361,186.49452,70,60,0
186.67635,186.76726,72,68,0
186.94907,187.03998,74,76,0
187.2218,187.31271,75,84,0
187.49452,188.3127,77,92,0
188.3127,188.57976,75,92,0
188.58543,188.67635,72,86,0
188.85815,188.94907,70,80,0
189.13089,189.2218,69,74,0
189.40361,189.49452,65,67,0
189.67635,190.13089,62,60,0
189.67635,190.13089,70,60,0
190.76724,191.3127,59,92,0
190.76724,191.3127,68,92,0
191.3127,191.76724,60,60,0
191.3127,191.76724,67,60,0
192.40361,192.53998,60,75,0
192.40361,192.53998,63,75,0
192.94907,193.03998,58,60,0
192.94907,193.03998,62,60,0
193.22179,193.49452,58,60,0
193.49452,193.76724,57,60,0
193.76724,194.03998,58,60,0
194.03998,194.3127,55,60,0
194.3127,194.57974,58,60,0
194.58542,194.85815,56,60,0
194.85815,195.1252,58,60,0
195.13087,195.40361,56,60,0
195.40361,195.67065,58,60,0
195.67633,195.94907,56,60,0
195.94907,196.21611,58,60,0
196.22179,196.49452,55,60,0
196.49452,196.76157,58,60,0
196.76724,197.03996,55,60,0
197.03996,197.307,58,60,0
197.3127,197.58542,67,60,0
197.58542,197.85246,58,60,0
197.85815,198.13087,65,60,0
198.13087,198.40361,58,60,0
198.40361,198.67633,62,60,0
198.67633,198.94905,58,60,0
198.94905,199.22179,65,60,0
199.22179,199.48883,58,60,0
199.4945,199.76155,67,60,0
199.76724,200.03429,58,60,0
200.03996,200.307,55,60,0
200.3127,200.57974,58,60,0
200.58542,201.0627,63,60,0
200.58542,201.0627,75,60,0
201.0627,201.1252,62,63,0
201.0627,201.1252,74,63,0
201.13087,201.58542,62,63,0
201.13087,201.58542,74,63,0
202.22179,202.69905,62,72,0
202.22179,202.69905,74,72,0
202.69905,202.76155,63,75,0
202.69905,202.76155,75,75,0
202.76724,203.22179,63,75,0
202.76724,203.22179,75,75,0
203.85814,204.33542,63,86,0
203.85814,204.33542,75,86,0
204.33542,204.39792,67,91,0
204.33542,204.39792,79,91,0
204.4036,204.86656,70,92,0
204.4036,204.86656,82,92,0
204.95915,205.10066,82,92,0
205.10066,205.24217,81,88,0
205.24217,205.38368,82,84,0
205.38368,205.52519,81,80,0
205.52519,205.66942,82,76,0
205.66942,205.81364,80,72,0
205.81364,205.95789,79,68,0
205.95789,206.0961,77,64,0
206.10211,206.60211,75,60,0
3.0,3.545454,39,60,0
3.0,3.545454,51,60,0
3.545454,3.999999,41,60,0
3.545454,3.999999,53,60,0
4.090908,4.2272716,34,60,0
4.090908,4.2272716,46,60,0
4.636362,5.181816,41,60,0
4.636362,5.181816,53,60,0
5.181816,5.636361,39,60,0
5.181816,5.636361,51,60,0
5.72727,5.8636336,34,60,0
5.72727,5.8636336,46,60,0
6.272724,6.818178,39,60,0
6.272724,6.818178,51,60,0
6.818178,7.272723,38,60,0
6.818178,7.272723,50,60,0
7.363632,7.4999957,34,60,0
7.363632,7.4999957,46,60,0
7.909086,8.45454,38,60,0
7.909086,8.45454,50,60,0
8.45454,8.909085,39,60,0
8.45454,8.909085,51,60,0
8.999994,9.136357,34,60,0
8.999994,9.136357,46,60,0
9.545448,9.818175,39,60,0
9.545448,9.818175,43,60,0
9.818175,10.08522,46,60,0
10.090902,10.363629,41,60,0
10.090902,10.363629,44,60,0
10.363629,10.636356,46,62,0
10.636356,10.909083,34,64,0
10.909083,11.18181,46,66,0
11.18181,11.454537,41,68,0
11.18181,11.454537,44,68,0
11.454537,11.721582,46,71,0
11.727264,11.999991,39,74,0
11.727264,11.999991,43,74,0
11.999991,12.272718,46,77,0
12.272718,12.545445,34,80,0
12.545445,12.818172,46,83,0
12.818172,13.090899,39,86,0
12.818172,13.090899,43,86,0
13.090899,13.3579445,46,89,0
13.363626,13.826589,34,92,0
13.363626,13.826589,46,92,0
13.919181,14.06069,46,92,0
13.919181,14.06069,53,92,0
13.919181,14.06069,56,92,0
14.485218,14.629449,46,75,0
14.485218,14.629449,53,75,0
14.485218,14.629449,56,75,0
15.062141,15.2092,51,60,0
15.062141,15.2092,55,60,0
15.650376,15.800376,39,60,0
16.250376,16.79583,39,60,0
16.250376,16.79583,51,60,0
16.79583,17.250376,41,60,0
16.79583,17.250376,53,60,0
17.341284,17.477648,34,60,0
17.341284,17.477648,46,60,0
17.886738,18.432192,41,60,0
17.886738,18.432192,53,60,0
18.432192,18.886738,39,60,0
18.432192,18.886738,51,60,0
18.977646,19.11401,34,60,0
18.977646,19.11401,46,60,0
19.5231,20.068554,39,60,0
19.5231,20.068554,51,60,0
20.068554,20.5231,38,60,0
20.068554,20.5231,50,60,0
20.614008,20.750372,34,60,0
20.614008,20.750372,46,60,0
21.159462,21.704916,38,60,0
21.159462,21.704916,50,60,0
21.704916,22.15946,39,60,0
21.704916,22.15946,51,60,0
22.25037,22.386734,34,60,0
22.25037,22.386734,46,60,0
22.795824,23.06855,39,60,0
22.795824,23.06855,43,60,0
23.06855,23.335596,46,60,0
23.341278,23.614004,41,60,0
23.341278,23.614004,44,60,0
23.614004,23.886732,46,62,0
23.886732,24.159458,34,64,0
24.159458,24.432186,46,66,0
24.432186,24.704912,41,68,0
24.432186,24.704912,44,68,0
24.704912,24.971958,46,71,0
24.97764,25.250366,39,74,0
24.97764,25.250366,43,74,0
25.250366,25.523094,46,77,0
25.523094,25.79582,34,80,0
25.79582,26.068548,46,83,0
26.068548,26.341274,39,86,0
26.068548,26.341274,43,86,0
26.341274,26.60832,46,89,0
26.614002,27.076965,34,92,0
26.614002,27.076965,46,92,0
27.169558,27.311066,46,92,0
27.169558,27.311066,53,92,0
27.169558,27.311066,56,92,0
27.735594,27.879826,46,75,0
27.735594,27.879826,53,75,0
27.735594,27.879826,56,75,0
28.312517,28.459576,51,60,0
28.312517,28.459576,55,60,0
28.900751,29.050753,39,60,0
30.046206,30.18257,47,60,0
30.046206,30.18257,55,60,0
30.046206,30.18257,59,60,0
30.59166,30.728024,47,60,0
30.59166,30.728024,55,60,0
30.59166,30.728024,59,60,0
31.137114,31.273478,47,75,0
31.137114,31.273478,55,75,0
31.137114,31.273478,59,75,0
31.682568,32.228024,48,92,0
31.682568,32.228024,60,92,0
32.228024,32.773476,51,92,0
32.228024,32.773476,63,92,0
32.773476,33.22802,48,75,0
32.773476,33.22802,60,75,0
33.31893,33.45529,43,60,0
33.31893,33.45529,55,60,0
33.864384,34.000748,43,60,0
33.864384,34.000748,55,60,0
34.40984,34.5462,43,60,0
34.40984,34.5462,55,60,0
34.95529,35.409836,48,60,0
34.95529,35.409836,60,60,0
36.591656,37.137108,45,60,0
36.591656,37.137108,57,60,0
37.137108,37.409836,41,70,0
37.137108,37.409836,53,70,0
37.409836,37.682564,43,75,0
37.409836,37.682564,55,75,0
37.682564,37.955288,44,80,0
37.682564,37.955288,56,80,0
37.955288,38.222336,45,86,0
37.955288,38.222336,57,86,0
38.228016,38.77347,46,92,0
38.228016,38.77347,58,92,0
38.77347,39.318924,50,92,0
38.77347,39.318924,62,92,0
39.318924,39.773468,46,75,0
39.318924,39.773468,58,75,0
39.86438,40.00074,41,60,0
39.86438,40.00074,53,60,0
40.409832,40.546196,41,60,0
40.409832,40.546196,53,60,0
40.955284,41.09165,41,60,0
40.955284,41.09165,53,60,0
41.50074,41.955284,46,60,0
41.50074,41.955284,58,60,0
42.59165,43.1371,38,92,0
42.59165,43.1371,50,92,0
43.1371,43.59165,39,75,0
43.1371,43.59165,51,75,0
44.22801,44.364372,41,60,0
44.22801,44.364372,53,60,0
44.773464,44.90983,34,60,0
44.773464,44.90983,46,60,0
45.864372,46.409824,38,92,0
45.864372,46.409824,50,92,0
46.409824,46.864372,39,60,0
46.409824,46.864372,51,60,0
47.500732,47.637096,41,75,0
47.500732,47.637096,53,75,0
48.04619,48.182552,34,60,0
48.04619,48.182552,46,60,0
49.137096,49.68255,39,60,0
49.137096,49.68255,51,60,0
49.68255,49.818913,41,60,0
49.68255,49.818913,53,60,0
50.228004,50.36437,34,60,0
50.228004,50.36437,46,60,0
50.773457,51.318913,41,60,0
50.773457,51.318913,53,60,0
51.318913,51.455276,39,60,0
51.318913,51.455276,51,60,0
51.864365,52.00073,34,60,0
51.864365,52.00073,46,60,0
52.40982,52.955273,39,60,0
52.40982,52.955273,51,60,0
52.955273,53.091637,38,60,0
52.955273,53.091637,50,60,0
53.50073,53.637093,34,60,0
53.50073,53.637093,46,60,0
54.04618,54.591637,38,60,0
54.04618,54.591637,50,60,0
54.591637,54.728,39,60,0
54.591637,54.728,51,60,0
55.13709,55.273453,34,60,0
55.13709,55.273453,46,60,0
55.682545,55.94959,43,60,0
55.955273,56.222317,55,62,0
56.227997,56.495045,44,64,0
56.500725,56.76777,56,66,0
56.773453,57.040497,34,68,0
57.04618,57.313225,46,70,0
57.318905,57.585953,44,72,0
57.591633,57.858677,56,74,0
57.86436,58.131405,43,76,0
58.13709,58.404133,55,78,0
58.409813,58.67686,46,80,0
58.68254,58.949585,46,83,0
58.68254,58.949585,58,83,0
58.95527,59.222313,43,86,0
58.95527,59.222313,55,86,0
59.227997,59.49504,39,89,0
59.227997,59.49504,51,89,0
59.50072,59.772713,34,92,0
59.7785,60.05049,46,92,0
59.7785,60.05049,50,92,0
59.7785,60.05049,56,92,0
60.05628,60.3334,34,86,0
60.339294,60.616417,46,80,0
60.339294,60.616417,56,80,0
60.622314,60.904766,34,74,0
60.910774,61.193226,46,67,0
60.910774,61.193226,56,67,0
61.199238,61.689434,39,60,0
61.78747,62.28747,51,60,0
61.78747,62.28747,55,60,0
62.932926,63.06929,47,60,0
62.932926,63.06929,55,60,0
62.932926,63.06929,59,60,0
63.47838,63.614742,47,60,0
63.47838,63.614742,55,60,0
63.47838,63.614742,59,60,0
64.023834,64.160194,47,75,0
64.023834,64.160194,55,75,0
64.023834,64.160194,59,75,0
64.56929,65.11474,48,92,0
64.56929,65.11474,60,92,0
65.11474,65.660194,51,92,0
65.11474,65.660194,63,92,0
65.660194,66.11474,48,75,0
65.660194,66.11474,60,75,0
66.20565,66.34201,43,60,0
66.20565,66.34201,55,60,0
66.75111,66.88747,43,60,0
66.75111,66.88747,55,60,0
67.296555,67.43292,43,60,0
67.296555,67.43292,55,60,0
67.84201,68.296555,48,60,0
67.84201,68.296555,60,60,0
69.47837,70.02383,45,60,0
69.47837,70.02383,57,60,0
70.02383,70.296555,41,70,0
70.02383,70.296555,53,70,0
70.296555,70.56928,43,75,0
70.296555,70.56928,55,75,0
70.56928,70.84201,44,80,0
70.56928,70.84201,56,80,0
70.84201,71.109055,45,86,0
70.84201,71.109055,57,86,0
71.11474,71.66019,46,92,0
71.11474,71.66019,58,92,0
71.66019,72.20564,50,92,0
71.66019,72.20564,62,92,0
72.20564,72.66019,46,75,0
72.20564,72.66019,58,75,0
72.7511,72.88746,41,60,0
72.7511,72.88746,53,60,0
73.296555,73.432915,41,60,0
73.296555,73.432915,53,60,0
73.842,73.97837,41,60,0
73.842,73.97837,53,60,0
74.38746,74.842,46,60,0
74.38746,74.842,58,60,0
75.47837,76.02382,38,92,0
75.47837,76.02382,50,92,0
76.02382,76.47837,39,75,0
76.02382,76.47837,51,75,0
77.11473,77.25109,41,60,0
77.11473,77.25109,53,60,0
77.66019,77.79655,34,60,0
77.66019,77.79655,46,60,0
78.75109,79.29655,38,92,0
78.75109,79.29655,50,92,0
79.29655,79.75109,39,60,0
79.29655,79.75109,51,60,0
80.38745,80.52382,41,75,0
80.38745,80.52382,53,75,0
80.93291,81.069275,34,60,0
80.93291,81.069275,46,60,0
82.02382,82.56927,39,60,0
82.02382,82.56927,51,60,0
82.56927,82.705635,41,60,0
82.56927,82.705635,53,60,0
83.11472,83.25109,34,60,0
83.11472,83.25109,46,60,0
83.66018,84.205635,41,60,0
83.66018,84.205635,53,60,0
84.205635,84.341995,39,60,0
84.205635,84.341995,51,60,0
84.75108,84.88745,34,60,0
84.75108,84.88745,46,60,0
85.29654,85.841995,39,60,0
85.29654,85.841995,51,60,0
85.841995,85.978355,38,60,0
85.841995,85.978355,50,60,0
86.38745,86.52381,34,60,0
86.38745,86.52381,46,60,0
86.9329,87.478355,38,60,0
86.9329,87.478355,50,60,0
87.478355,87.61472,39,60,0
87.478355,87.61472,51,60,0
88.02381,88.16017,34,60,0
88.02381,88.16017,46,60,0
88.56927,88.83631,43,60,0
88.84199,89.10904,55,62,0
89.114716,89.38176,44,64,0
89.38744,89.65449,56,66,0
89.66017,89.927216,34,68,0
89.9329,90.19994,46,70,0
90.20563,90.47267,44,72,0
90.478355,90.7454,56,74,0
90.75108,91.01813,43,76,0
91.0238,91.290855,55,78,0
91.29653,91.563576,46,80,0
91.56926,91.8363,46,83,0
91.56926,91.8363,58,83,0
91.84199,92.10903,43,86,0
91.84199,92.10903,55,86,0
92.114716,92.38176,39,89,0
92.114716,92.38176,51,89,0
92.38744,92.65943,34,92,0
92.66522,92.93721,46,92,0
92.66522,92.93721,50,92,0
92.66522,92.93721,56,92,0
92.943,93.220116,34,86,0
93.22601,93.503136,46,80,0
93.22601,93.503136,56,80,0
93.50903,93.79149,34,74,0
93.79749,94.07995,46,67,0
93.79749,94.07995,56,67,0
94.08596,94.57616,39,60,0
94.674194,95.174194,51,60,0
94.674194,95.174194,55,60,0
95.81965,95.91055,39,45,0
95.81965,95.91055,51,45,0
96.3651,96.45601,32,45,0
96.3651,96.45601,44,45,0
96.91055,97.001465,34,45,0
96.91055,97.001465,46,45,0
97.45601,97.91055,39,45,0
97.45601,97.91055,51,45,0
99.09237,99.18328,39,45,0
99.09237,99.18328,51,45,0
99.637825,99.72873,32,45,0
99.637825,99.72873,44,45,0
100.18328,100.274185,34,45,0
100.18328,100.274185,46,45,0
100.72873,101.18327,39,45,0
100.72873,101.18327,51,45,0
102.3651,102.81964,39,60,0
102.3651,102.81964,51,60,0
102.910545,103.86509,34,60,0
102.910545,103.86509,46,60,0
104.00146,104.456,39,81,0
104.00146,104.456,51,81,0
104.54691,105.50146,34,92,0
104.54691,105.50146,46,92,0
105.63782,105.72873,39,60,0
105.63782,105.72873,51,60,0
106.18327,106.27418,44,60,0
106.18327,106.27418,56,60,0
106.72873,106.82307,45,60,0
106.72873,106.82307,57,60,0
107.29476,107.582756,46,60,0
107.882996,108.17099,34,60,0
109.016685,109.1076,39,45,0
109.016685,109.1076,51,45,0
109.56214,109.65305,32,45,0
109.56214,109.65305,44,45,0
110.1076,110.1985,34,45,0
110.1076,110.1985,46,45,0
110.653046,111.1076,39,45,0
110.653046,111.1076,51,45,0
112.28941,112.38032,39,45,0
112.28941,112.38032,51,45,0
112.83486,112.92577,32,45,0
112.83486,112.92577,44,45,0
113.38032,113.47123,34,45,0
113.38032,113.47123,46,45,0
113.92577,114.38032,39,45,0
113.92577,114.38032,51,45,0
115.56213,116.01668,39,60,0
115.56213,116.01668,51,60,0
116.10759,117.06213,34,60,0
116.10759,117.06213,46,60,0
117.198494,117.653046,39,81,0
117.198494,117.653046,51,81,0
117.74395,118.698494,34,92,0
117.74395,118.698494,46,92,0
118.83486,118.925766,39,60,0
118.83486,118.925766,51,60,0
119.38031,119.47122,44,60,0
119.38031,119.47122,56,60,0
119.925766,120.0201,45,60,0
119.925766,120.0201,57,60,0
120.491806,120.77979,46,60,0
121.08004,121.36803,34,60,0
122.21373,122.304634,46,45,0
122.21373,122.304634,58,45,0
122.759186,122.85009,44,45,0
122.759186,122.85009,56,45,0
123.304634,123.395546,43,45,0
123.304634,123.395546,55,45,0
123.85009,123.941,48,45,0
123.85009,123.941,60,45,0
124.395546,124.48645,41,45,0
124.395546,124.48645,53,45,0
124.940994,125.031906,42,45,0
124.940994,125.031906,54,45,0
125.48645,125.57736,43,45,0
125.48645,125.57736,55,45,0
126.031906,126.12282,39,45,0
126.031906,126.12282,51,45,0
126.57736,126.66827,40,45,0
126.57736,126.66827,52,45,0
127.12281,127.21372,41,60,0
127.12281,127.21372,53,60,0
127.66827,127.93531,34,92,0
127.66827,127.93531,46,92,0
128.21371,128.48645,58,92,0
128.48645,128.62282,56,75,0
128.62282,128.7535,53,60,0
128.75917,128.85008,39,45,0
128.75917,128.85008,51,45,0
129.30463,129.39554,32,45,0
129.30463,129.39554,44,45,0
129.85008,129.941,34,45,0
129.85008,129.941,46,45,0
130.39554,130.85008,39,45,0
130.39554,130.85008,51,45,0
132.0319,132.1228,39,45,0
132.0319,132.1228,51,45,0
132.57735,132.66826,32,45,0
132.57735,132.66826,44,45,0
133.1228,133.21371,34,45,0
133.1228,133.21371,46,45,0
133.66826,134.1228,39,45,0
135.30463,135.75917,39,60,0
135.30463,135.75917,51,60,0
135.85008,136.80463,34,60,0
135.85008,136.80463,46,60,0
136.94098,137.39554,39,81,0
136.94098,137.39554,51,81,0
137.48643,138.44098,34,92,0
137.48643,138.44098,46,92,0
138.57735,138.66826,39,92,0
138.57735,138.66826,51,92,0
139.1228,139.21371,32,82,0
139.1228,139.21371,44,82,0
139.66826,139.76259,34,72,0
139.66826,139.76259,46,72,0
140.2343,141.0186,39,60,0
140.2343,141.0186,51,60,0
141.95622,142.04712,46,45,0
141.95622,142.04712,58,45,0
142.50168,142.59258,44,45,0
142.50168,142.59258,56,45,0
143.04712,143.13803,43,45,0
143.04712,143.13803,55,45,0
143.59258,143.68349,48,45,0
143.59258,143.68349,60,45,0
144.13803,144.22894,41,45,0
144.13803,144.22894,53,45,0
144.68349,144.7744,42,45,0
144.68349,144.7744,54,45,0
145.22894,145.31985,43,45,0
145.22894,145.31985,55,45,0
145.7744,145.86531,39,45,0
145.7744,145.86531,51,45,0
146.31985,146.41075,40,45,0
146.31985,146.41075,52,45,0
146.8653,146.9562,41,60,0
146.8653,146.9562,53,60,0
147.41075,147.6778,34,92,0
147.41075,147.6778,46,92,0
147.9562,148.22894,58,92,0
148.22894,148.3653,56,75,0
148.3653,148.49599,53,60,0
148.50166,148.59258,39,45,0
148.50166,148.59258,51,45,0
149.04712,149.13803,32,45,0
149.04712,149.13803,44,45,0
149.59258,149.68349,34,45,0
149.59258,149.68349,46,45,0
150.13803,150.59258,39,45,0
150.13803,150.59258,51,45,0
151.77438,151.8653,39,45,0
151.77438,151.8653,51,45,0
152.31984,152.41075,32,45,0
152.31984,152.41075,44,45,0
152.8653,152.9562,34,45,0
152.8653,152.9562,46,45,0
153.41075,153.8653,39,45,0
155.04712,155.50166,39,60,0
155.04712,155.50166,51,60,0
155.59256,156.5471,34,60,0
155.59256,156.5471,46,60,0
156.68347,157.13802,39,81,0
156.68347,157.13802,51,81,0
157.22893,158.18347,34,92,0
157.22893,158.18347,46,92,0
158.31984,158.41075,39,92,0
158.31984,158.41075,51,92,0
158.8653,158.9562,32,82,0
158.8653,158.9562,44,82,0
159.41075,159.50508,34,72,0
159.41075,159.50508,46,72,0
159.97678,160.7611,39,60,0
159.97678,160.7611,51,60,0
161.15326,161.6987,39,60,0
161.15326,161.6987,51,60,0
161.6987,162.15324,41,60,0
161.6987,162.15324,53,60,0
162.24416,162.38052,34,60,0
162.24416,162.38052,46,60,0
162.78961,163.33507,41,60,0
162.78961,163.33507,53,60,0
163.33507,163.78961,39,60,0
163.33507,163.78961,51,60,0
163.88052,164.01689,34,60,0
163.88052,164.01689,46,60,0
164.42598,164.97144,39,60,0
164.42598,164.97144,51,60,0
164.97144,165.42598,38,60,0
164.97144,165.42598,50,60,0
165.51689,165.65324,34,60,0
165.51689,165.65324,46,60,0
166.06233,166.60779,38,60,0
166.06233,166.60779,50,60,0
166.60779,167.06233,39,60,0
166.60779,167.06233,51,60,0
167.15324,167.28961,34,60,0
167.15324,167.28961,46,60,0
167.6987,167.97142,39,60,0
167.6987,167.97142,43,60,0
167.97142,168.23848,46,60,0
168.24416,168.51688,41,60,0
168.24416,168.51688,44,60,0
168.51688,168.78961,46,62,0
168.78961,169.06233,34,64,0
169.06233,169.33507,46,66,0
169.33507,169.60779,41,68,0
169.33507,169.60779,44,68,0
169.60779,169.87483,46,71,0
169.88051,170.15324,39,74,0
169.88051,170.15324,43,74,0
170.15324,170.42596,46,77,0
170.42596,170.6987,34,80,0
170.6987,170.97142,46,83,0
170.97142,171.24416,39,86,0
170.97142,171.24416,43,86,0
171.24416,171.5112,46,89,0
171.51688,171.97984,34,92,0
171.51688,171.97984,46,92,0
172.07243,172.21394,46,92,0
172.07243,172.21394,53,92,0
172.07243,172.21394,56,92,0
172.63847,172.7827,46,75,0
172.63847,172.7827,53,75,0
172.63847,172.7827,56,75,0
173.2154,173.36246,51,60,0
173.2154,173.36246,55,60,0
173.80363,173.95363,39,60,0
174.94908,175.08545,47,60,0
174.94908,175.08545,55,60,0
174.94908,175.08545,59,60,0
175.49454,175.6309,47,60,0
175.49454,175.6309,55,60,0
175.49454,175.6309,59,60,0
176.04,176.17636,47,75,0
176.04,176.17636,55,75,0
176.04,176.17636,59,75,0
176.58545,177.1309,48,92,0
176.58545,177.1309,60,92,0
177.1309,177.67635,51,92,0
177.1309,177.67635,63,92,0
177.67635,178.13089,48,75,0
177.67635,178.13089,60,75,0
178.2218,178.35817,43,60,0
178.2218,178.35817,55,60,0
178.76726,178.90363,43,60,0
178.76726,178.90363,55,60,0
179.31271,179.44908,43,60,0
179.31271,179.44908,55,60,0
179.85817,180.31271,48,60,0
179.85817,180.31271,60,60,0
181.49454,182.03998,45,60,0
181.49454,182.03998,57,60,0
182.03998,182.31271,41,70,0
182.03998,182.31271,53,70,0
182.31271,182.58543,43,75,0
182.31271,182.58543,55,75,0
182.58543,182.85817,44,80,0
182.58543,182.85817,56,80,0
182.85817,183.12521,45,86,0
182.85817,183.12521,57,86,0
183.13089,183.67635,46,92,0
183.13089,183.67635,58,92,0
183.67635,184.2218,50,92,0
183.67635,184.2218,62,92,0
184.2218,184.67635,46,75,0
184.2218,184.67635,58,75,0
184.76726,184.90361,41,60,0
184.76726,184.90361,53,60,0
185.31271,185.44907,41,60,0
185.31271,185.44907,53,60,0
185.85817,185.99452,41,60,0
185.85817,185.99452,53,60,0
186.40361,186.85815,46,60,0
186.40361,186.85815,58,60,0
187.49452,188.03998,38,92,0
187.49452,188.03998,50,92,0
188.03998,188.49452,39,75,0
188.03998,188.49452,51,75,0
189.13089,189.26724,41,60,0
189.13089,189.26724,53,60,0
189.67635,189.8127,34,60,0
189.67635,189.8127,46,60,0
190.76724,191.3127,38,92,0
190.76724,191.3127,50,92,0
191.3127,191.76724,39,60,0
191.3127,191.76724,51,60,0
192.40361,192.53998,41,75,0
192.40361,192.53998,53,75,0
192.94907,193.08543,34,60,0
192.94907,193.08543,46,60,0
194.03998,194.58542,39,60,0
194.03998,194.58542,51,60,0
194.58542,194.72179,41,60,0
194.58542,194.72179,53,60,0
195.13087,195.26724,34,60,0
195.13087,195.26724,46,60,0
195.67633,196.22179,41,60,0
195.67633,196.22179,53,60,0
196.22179,196.35815,39,60,0
196.22179,196.35815,51,60,0
196.76724,196.90361,34,60,0
196.76724,196.90361,46,60,0
197.3127,197.85815,39,60,0
197.3127,197.85815,51,60,0
197.85815,197.9945,38,60,0
197.85815,197.9945,50,60,0
198.40361,198.53996,34,60,0
198.40361,198.53996,46,60,0
198.94905,199.4945,38,60,0
198.94905,199.4945,50,60,0
199.4945,199.63087,39,60,0
199.4945,199.63087,51,60,0
200.03996,200.17633,34,60,0
200.03996,200.17633,46,60,0
200.58542,200.85246,43,60,0
200.85815,201.1252,55,62,0
201.13087,201.39792,44,64,0
201.4036,201.67064,56,66,0
201.67633,201.94337,34,68,0
201.94905,202.2161,46,70,0
202.22179,202.48883,44,72,0
202.4945,202.76155,56,74,0
202.76724,203.03429,43,76,0
203.03996,203.307,55,78,0
203.31268,203.57974,46,80,0
203.58542,203.85246,46,83,0
203.58542,203.85246,58,83,0
203.85814,204.12518,43,86,0
203.85814,204.12518,55,86,0
204.13087,204.39792,39,89,0
204.13087,204.39792,51,89,0
204.4036,204.67558,34,92,0
204.68138,204.95337,46,92,0
204.68138,204.95337,50,92,0
204.68138,204.95337,56,92,0
204.95915,205.23628,34,86,0
205.24217,205.51929,46,80,0
205.24217,205.51929,56,80,0
205.52519,205.80765,34,74,0
205.81364,206.0961,46,67,0
205.81364,206.0961,56,67,0
206.10211,206.60211,39,60,0
206.70212,207.25768,51,60,0
206.70212,207.25768,55,60,0
209.36877,209.92433,39,10,0
