start_time,end_time,note_value,velocity,instrument_program_number
0.0,0.6197917,60,70,0
0.625,0.7447917,56,70,0
0.75,2.9947917,53,70,0
3.0,3.6197917,56,70,0
3.625,3.7447917,60,70,0
3.75,4.4947915,65,70,0
4.5,5.1197915,68,70,0
5.125,5.2447915,72,70,0
5.25,5.9947915,77,70,0
6.0,6.7447915,65,70,0
6.75,7.9947915,72,70,0
8.0,8.244792,74,70,0
8.25,8.364583,72,70,0
8.3125,8.427083,74,70,0
8.375,8.489583,76,70,0
8.4375,8.552083,74,70,0
8.5,8.614583,76,70,0
8.5625,8.677083,74,70,0
8.625,8.739583,76,70,0
8.6875,8.802083,74,70,0
8.75,8.864583,76,70,0
8.8125,8.927083,74,70,0
8.875,8.989583,76,70,0
8.9375,9.052083,74,70,0
9.0,9.114583,76,70,0
9.0625,9.177083,74,70,0
9.125,9.239583,76,70,0
9.1875,9.302083,74,70,0
9.25,9.364583,76,70,0
9.3125,9.427083,74,70,0
9.375,9.489583,72,70,0
9.5,9.619792,76,70,0
9.625,9.744792,74,70,0
9.75,10.244792,72,70,0
12.0,12.619792,61,70,0
12.625,12.744792,58,70,0
12.75,14.994792,54,70,0
15.0,15.619792,58,70,0
15.625,15.744792,61,70,0
15.75,16.494791,66,70,0
16.5,17.119791,70,70,0
17.125,17.244791,73,70,0
17.25,17.994791,78,70,0
18.0,18.744791,66,70,0
18.75,19.994791,73,70,0
20.0,20.244791,75,70,0
20.25,20.364584,73,70,0
20.3125,20.427084,75,70,0
20.375,20.489584,77,70,0
20.4375,20.552084,75,70,0
20.5,20.614584,77,70,0
20.5625,20.677084,75,70,0
20.625,20.739584,77,70,0
20.6875,20.802084,75,70,0
20.75,20.864584,77,70,0
20.8125,20.927084,75,70,0
20.875,20.989584,77,70,0
20.9375,21.052084,75,70,0
21.0,21.114584,77,70,0
21.0625,21.177084,75,70,0
21.125,21.239584,77,70,0
21.1875,21.302084,75,70,0
21.25,21.364584,77,70,0
21.3125,21.427084,75,70,0
21.375,21.494791,73,70,0
21.5,21.619791,77,70,0
21.625,21.744791,75,70,0
21.75,22.244791,73,70,0
24.75,25.994791,72,70,0
26.0,26.244791,74,79,0
26.25,26.364584,72,80,0
26.3125,26.427084,74,80,0
26.375,26.489584,76,80,0
26.4375,26.552084,74,79,0
26.5,26.614584,76,79,0
26.5625,26.677084,74,78,0
26.625,26.739584,76,78,0
26.6875,26.802084,74,77,0
26.75,26.864584,76,77,0
26.8125,26.927084,74,76,0
26.875,26.989584,76,76,0
26.9375,27.052084,74,76,0
27.0,27.114584,76,75,0
27.0625,27.177084,74,75,0
27.125,27.239584,76,74,0
27.1875,27.302084,74,74,0
27.25,27.364584,76,73,0
27.3125,27.427084,74,73,0
27.375,27.489584,72,72,0
27.5,27.619791,76,71,0
27.625,27.744791,74,71,0
27.75,28.244791,72,70,0
30.75,31.994791,76,70,0
32.0,32.244793,77,89,0
32.25,32.364582,79,90,0
32.3125,32.427082,77,90,0
32.375,32.489582,79,89,0
32.4375,32.552082,77,88,0
32.5,32.614582,79,87,0
32.5625,32.677082,77,86,0
32.625,32.739582,79,85,0
32.6875,32.802082,77,84,0
32.75,32.864582,79,83,0
32.8125,32.927082,77,82,0
32.875,32.989582,79,81,0
32.9375,33.052082,77,81,0
33.0,33.114582,79,80,0
33.0625,33.177082,77,79,0
33.125,33.239582,79,78,0
33.1875,33.302082,77,77,0
33.25,33.364582,79,76,0
33.3125,33.427082,77,75,0
33.375,33.494793,76,74,0
33.5,33.619793,79,72,0
33.625,33.744793,77,71,0
33.75,34.244793,76,70,0
36.166664,36.493053,79,70,0
36.166664,36.493053,76,70,0
36.5,36.82639,79,70,0
36.5,36.82639,76,70,0
36.833332,37.15972,79,70,0
36.833332,37.15972,76,70,0
37.166664,37.891666,82,70,0
37.166664,37.891666,79,70,0
41.85,42.01319,82,110,0
41.85,42.01319,79,110,0
42.016663,42.17986,82,110,0
42.016663,42.17986,79,110,0
42.18333,42.346527,82,110,0
42.18333,42.346527,79,110,0
42.35,42.51319,88,110,0
42.43333,42.596523,82,110,0
42.516663,42.67986,91,110,0
42.6,42.76319,88,110,0
42.68333,42.846523,94,110,0
42.766663,42.92986,91,110,0
42.85,43.01319,88,110,0
42.93333,43.096523,91,110,0
43.016663,43.17986,82,110,0
43.1,43.26319,88,110,0
43.18333,43.346523,79,110,0
43.266663,43.42986,82,110,0
43.349995,43.51319,76,110,0
43.43333,43.596523,79,110,0
43.516663,43.67986,70,110,0
43.599995,43.76319,76,110,0
43.68333,43.846523,67,110,0
43.766663,43.929855,70,110,0
43.849995,44.01319,64,110,0
43.93333,44.096523,67,110,0
44.016663,44.179855,58,110,0
44.099995,44.26319,64,110,0
44.18333,44.346523,55,110,0
44.266663,44.429855,58,110,0
44.349995,44.51319,52,110,0
44.43333,44.596523,55,110,0
44.516663,44.679855,46,110,0
44.599995,44.76319,52,110,0
45.849995,46.013187,61,110,0
45.849995,46.013187,56,110,0
45.849995,46.013187,49,110,0
46.349995,47.865925,52,80,0
46.349995,47.865925,55,80,0
46.349995,47.865925,60,80,0
47.8696,48.3071,60,70,0
48.310776,48.395336,56,70,0
48.39901,48.594845,53,120,0
48.59901,48.994846,65,120,0
48.59901,48.994846,60,120,0
48.59901,48.994846,56,120,0
48.59901,48.994846,53,120,0
48.999012,49.394844,68,120,0
48.999012,49.394844,65,120,0
48.999012,49.394844,60,120,0
48.999012,49.394844,56,120,0
49.39901,49.794846,60,120,0
49.39901,49.794846,65,120,0
49.39901,49.794846,68,120,0
49.39901,49.794846,72,120,0
49.79901,50.194843,77,120,0
49.79901,50.194843,72,120,0
49.79901,50.194843,68,120,0
49.79901,50.194843,65,120,0
50.199013,50.594845,80,120,0
50.199013,50.594845,77,120,0
50.199013,50.594845,72,120,0
50.199013,50.594845,68,120,0
50.59901,50.794846,84,120,0
50.59901,50.794846,80,120,0
50.59901,50.794846,77,120,0
50.59901,50.794846,72,120,0
50.79901,52.594845,77,120,0
50.79901,52.594845,80,120,0
50.79901,52.594845,84,120,0
50.79901,52.594845,89,120,0
52.59901,53.094845,56,80,0
53.09901,53.194843,60,80,0
53.199013,53.794846,65,80,0
53.79901,54.294846,68,80,0
54.29901,54.394844,72,80,0
54.39901,54.994846,77,80,0
54.999012,55.594845,65,80,0
55.59901,55.794846,60,120,0
55.59901,55.794846,55,120,0
55.59901,55.794846,52,120,0
55.79901,56.194843,64,120,0
55.79901,56.194843,60,120,0
55.79901,56.194843,55,120,0
56.199013,56.594845,67,120,0
56.199013,56.594845,64,120,0
56.199013,56.594845,60,120,0
56.59901,56.994846,64,120,0
56.59901,56.994846,67,120,0
56.59901,56.994846,72,120,0
56.999012,57.394844,76,120,0
56.999012,57.394844,72,120,0
56.999012,57.394844,67,120,0
57.39901,57.794846,79,120,0
57.39901,57.794846,76,120,0
57.39901,57.794846,72,120,0
57.79901,57.994846,84,120,0
57.79901,57.994846,79,120,0
57.79901,57.994846,76,120,0
57.999012,58.994846,72,80,0
58.999012,59.194843,74,80,0
59.199013,59.29068,76,80,0
59.249012,59.34068,74,80,0
59.29901,59.39068,76,80,0
59.34901,59.440678,74,80,0
59.39901,59.490677,76,80,0
59.449013,59.54068,74,80,0
59.499012,59.59068,76,80,0
59.54901,59.64068,74,80,0
59.59901,59.690678,76,80,0
59.64901,59.740677,74,80,0
59.699013,59.79068,76,80,0
59.749012,59.84068,74,80,0
59.79901,59.89068,76,80,0
59.84901,59.940678,74,80,0
59.89901,59.990677,76,80,0
59.949013,60.04068,74,80,0
59.999012,60.09068,76,80,0
60.04901,60.14068,74,80,0
60.09901,60.190678,72,80,0
60.199013,60.294846,76,80,0
59.199013,60.394844,71,80,0
60.29901,60.394844,74,80,0
60.39901,60.594845,60,120,0
60.39901,60.594845,55,120,0
60.39901,60.594845,52,120,0
60.59901,60.994846,64,120,0
60.59901,60.994846,60,120,0
60.59901,60.994846,55,120,0
60.999012,61.394844,67,120,0
60.999012,61.394844,64,120,0
60.999012,61.394844,60,120,0
61.39901,61.794846,64,120,0
61.39901,61.794846,67,120,0
61.39901,61.794846,72,120,0
61.79901,62.194843,76,120,0
61.79901,62.194843,72,120,0
61.79901,62.194843,67,120,0
62.199013,62.594845,79,120,0
62.199013,62.594845,76,120,0
62.199013,62.594845,72,120,0
62.59901,62.794846,84,120,0
62.59901,62.794846,79,120,0
62.59901,62.794846,76,120,0
62.79901,63.794846,72,80,0
63.79901,63.994846,73,80,0
63.999012,64.090675,72,80,0
64.04901,64.14068,73,80,0
64.099014,64.19068,75,80,0
64.14901,64.24068,73,80,0
64.19901,64.29068,75,80,0
64.24901,64.340675,73,80,0
64.29901,64.39068,75,80,0
64.349014,64.44068,73,80,0
64.39901,64.49068,75,80,0
64.44901,64.54068,73,80,0
64.49901,64.590675,75,80,0
64.54901,64.64068,73,80,0
64.599014,64.69068,75,80,0
64.64901,64.74068,73,80,0
64.69901,64.79068,75,80,0
64.74901,64.840675,73,80,0
64.79901,64.89068,75,80,0
64.849014,64.94068,73,80,0
64.89901,64.99068,75,80,0
64.94901,65.04068,73,80,0
64.99901,65.09485,72,80,0
65.099014,65.19485,73,80,0
65.19901,65.69554,82,80,0
65.19901,65.69554,79,80,0
67.19901,67.69553,80,80,0
67.19901,67.69553,83,80,0
69.199005,71.19553,80,110,0
69.199005,71.19553,83,110,0
69.199005,71.19553,88,110,0
71.199005,71.52887,87,80,0
71.199005,71.52887,82,80,0
71.199005,71.52887,79,80,0
72.699005,73.1122,82,80,0
72.699005,73.1122,79,80,0
73.11567,73.19553,82,80,0
73.11567,73.19553,79,80,0
73.199005,73.52886,83,80,0
73.199005,73.52886,80,80,0
73.53233,73.69553,82,80,0
73.53233,73.69553,79,80,0
74.03233,74.19553,70,80,0
74.03233,74.19553,67,80,0
74.53233,74.695526,58,80,0
74.53233,74.695526,55,80,0
75.11567,75.195526,82,80,0
75.11567,75.195526,79,80,0
75.199005,75.52886,85,80,0
75.199005,75.52886,82,80,0
75.53233,75.695526,83,80,0
75.53233,75.695526,80,80,0
76.03233,76.195526,71,80,0
76.03233,76.195526,68,80,0
76.53233,76.695526,59,80,0
76.53233,76.695526,56,80,0
77.11567,77.195526,83,80,0
77.11567,77.195526,80,80,0
77.199,79.195526,80,110,0
77.199,79.195526,83,110,0
77.199,79.195526,88,110,0
79.199,79.52886,87,80,0
79.199,79.52886,82,80,0
79.199,79.52886,79,80,0
80.199,81.195526,75,80,0
80.199,81.195526,69,80,0
80.199,81.195526,66,80,0
81.199,81.528854,74,77,0
81.199,81.528854,68,77,0
81.199,81.528854,65,77,0
82.199,82.528854,73,73,0
82.199,82.528854,67,73,0
82.199,82.528854,64,73,0
83.19899,83.69552,73,70,0
83.19899,83.69552,67,70,0
83.19899,83.69552,63,70,0
85.19899,85.69552,61,70,0
85.19899,85.69552,58,70,0
85.19899,85.69552,55,70,0
88.99899,89.49482,60,70,0
88.99899,89.49482,48,70,0
89.49899,89.594826,63,70,0
89.49899,89.594826,51,70,0
89.59899,90.194824,68,70,0
89.59899,90.194824,56,70,0
90.19899,90.694824,72,70,0
90.19899,90.694824,60,70,0
90.69899,90.79482,68,70,0
90.69899,90.79482,56,70,0
90.79899,91.39482,67,70,0
90.79899,91.39482,55,70,0
91.39899,91.89482,70,70,0
91.39899,91.89482,58,70,0
91.89899,91.99482,67,70,0
91.89899,91.99482,55,70,0
91.99899,92.594826,68,70,0
91.99899,92.594826,56,70,0
92.59899,93.79482,51,70,0
92.59899,93.79482,63,70,0
93.79899,94.29482,65,70,0
93.79899,94.29482,53,70,0
94.29899,94.39482,61,70,0
94.29899,94.39482,49,70,0
94.39899,94.99482,60,70,0
94.39899,94.99482,48,70,0
94.99899,95.49482,63,70,0
94.99899,95.49482,51,70,0
95.49899,95.594826,60,70,0
95.49899,95.594826,48,70,0
95.59899,96.194824,58,70,0
95.59899,96.194824,46,70,0
96.19899,96.694824,63,70,0
96.19899,96.694824,51,70,0
96.69899,96.79482,61,70,0
96.69899,96.79482,49,70,0
96.79899,97.39482,60,70,0
97.39899,98.594826,63,72,0
98.59899,99.094826,72,77,0
98.59899,99.094826,60,77,0
99.09899,99.194824,75,79,0
99.09899,99.194824,63,79,0
99.19899,99.79482,80,80,0
99.19899,99.79482,68,80,0
99.79899,100.29482,84,80,0
99.79899,100.29482,72,80,0
100.29899,100.39482,80,80,0
100.29899,100.39482,68,80,0
100.39899,100.99482,79,80,0
100.39899,100.99482,67,80,0
100.99899,101.49482,82,80,0
100.99899,101.49482,70,80,0
101.49899,101.594826,79,80,0
101.49899,101.594826,67,80,0
101.59899,102.194824,80,80,0
101.59899,102.194824,68,80,0
102.19899,103.99482,63,80,0
102.19899,103.99482,75,80,0
103.99899,104.594826,76,110,0
103.99899,104.594826,64,110,0
104.59899,106.39482,61,110,0
104.59899,106.39482,73,110,0
106.39899,108.194824,71,80,0
108.19899,108.594826,70,80,0
108.59899,108.79482,68,80,0
108.79899,108.89482,69,70,0
108.84899,108.944824,70,70,0
108.89899,108.99482,71,70,0
108.94899,109.04482,70,70,0
108.99899,109.094826,71,70,0
109.04899,109.14482,70,70,0
109.09899,109.194824,71,70,0
109.14899,109.24482,70,70,0
109.19899,109.29482,71,70,0
109.24899,109.344826,70,70,0
109.29899,109.39482,71,70,0
109.34899,109.444824,70,70,0
109.39899,109.49482,71,70,0
109.44899,109.54482,70,70,0
109.49899,109.594826,71,70,0
109.54899,109.64482,70,70,0
109.59899,109.694824,71,70,0
109.64899,109.74482,70,70,0
109.69899,109.79482,71,70,0
109.74899,109.844826,70,70,0
109.79899,109.89482,71,70,0
109.84899,109.944824,70,70,0
109.89899,109.99482,71,70,0
109.94899,109.99899,70,70,0
109.99899,110.094826,71,70,0
110.04899,110.14482,70,70,0
110.09899,110.194824,71,70,0
110.14899,110.24482,70,70,0
110.19899,110.29482,71,70,0
110.24899,110.344826,70,70,0
110.29899,110.39482,71,70,0
110.34899,110.444824,70,70,0
110.39899,110.49482,71,70,0
110.44899,110.54482,70,70,0
110.49899,110.594826,71,70,0
110.54899,110.64482,70,70,0
110.59899,110.694824,71,70,0
110.64899,110.74482,70,70,0
110.69899,110.79482,71,70,0
110.74899,110.844826,70,70,0
110.79899,110.89482,71,70,0
110.84899,110.944824,70,70,0
110.89899,110.99482,71,70,0
110.94899,111.04482,70,70,0
110.99899,111.094826,71,70,0
111.04899,111.14482,70,70,0
111.09899,111.194824,71,70,0
111.14899,111.19899,70,70,0
111.19899,111.29482,76,70,0
111.24899,111.344826,75,70,0
111.29899,111.39482,76,70,0
111.34899,111.444824,75,70,0
111.39899,111.49482,76,71,0
111.44899,111.54482,75,71,0
111.49899,111.594826,76,71,0
111.54899,111.64482,75,72,0
111.59899,111.694824,76,72,0
111.64899,111.74482,75,72,0
111.69899,111.79482,76,73,0
111.74899,111.844826,75,73,0
111.79899,111.89482,76,73,0
111.84899,111.944824,75,74,0
111.89899,111.99482,76,74,0
111.94899,112.04482,75,74,0
111.99899,112.094826,76,75,0
112.04899,112.14482,75,75,0
112.09899,112.194824,76,75,0
112.14899,112.24482,75,76,0
112.19899,112.29482,76,76,0
112.24899,112.344826,75,76,0
112.29899,112.39482,76,77,0
112.34899,112.444824,75,77,0
112.39899,112.49482,76,77,0
112.44899,112.54482,75,77,0
112.49899,112.594826,76,78,0
112.54899,112.64482,75,78,0
112.59899,112.694824,76,78,0
112.64899,112.74482,75,79,0
112.69899,112.79482,76,79,0
112.74899,112.844826,75,79,0
112.79899,112.89482,76,80,0
112.84899,112.944824,75,80,0
112.89899,112.99482,76,80,0
112.94899,113.04482,75,81,0
112.99899,113.094826,76,81,0
113.04899,113.14482,75,81,0
113.09899,113.194824,76,82,0
113.14899,113.24482,75,82,0
113.19899,113.29482,76,82,0
113.24899,113.344826,75,83,0
113.29899,113.39482,76,83,0
113.34899,113.444824,75,83,0
113.39899,113.49482,76,84,0
113.44899,113.54482,75,84,0
113.49899,113.594826,74,84,0
113.54899,113.594826,75,84,0
113.59899,113.64482,87,85,0
113.59899,113.694824,88,85,0
113.64899,113.74482,87,85,0
113.69899,113.79482,88,85,0
113.74899,113.844826,87,85,0
113.79899,113.89482,88,84,0
113.84899,113.944824,87,84,0
113.89899,113.99482,88,84,0
113.94899,114.04482,87,83,0
113.99899,114.094826,88,83,0
114.04899,114.14482,87,83,0
114.09899,114.194824,88,82,0
114.14899,114.24482,87,82,0
114.19899,114.29482,88,82,0
114.24899,114.344826,87,81,0
114.29899,114.39482,88,81,0
114.34899,114.444824,87,81,0
114.39899,114.49482,88,80,0
114.44899,114.54482,87,80,0
114.49899,114.594826,88,80,0
114.54899,114.64482,87,79,0
114.59899,114.694824,88,79,0
114.64899,114.74482,87,79,0
114.69899,114.79482,88,78,0
114.74899,114.844826,87,78,0
114.79899,114.89482,88,78,0
114.84899,114.944824,87,78,0
114.89899,114.99482,88,77,0
114.94899,115.04482,87,77,0
114.99899,115.094826,88,77,0
115.04899,115.14482,87,76,0
115.09899,115.194824,88,76,0
115.14899,115.24482,87,76,0
115.19899,115.29482,88,75,0
115.24899,115.344826,87,75,0
115.29899,115.39482,88,75,0
115.34899,115.444824,87,74,0
115.39899,115.49482,88,74,0
115.44899,115.54482,87,74,0
115.49899,115.594826,88,73,0
115.54899,115.64482,87,73,0
115.59899,115.694824,88,73,0
115.64899,115.74482,87,72,0
115.69899,115.79482,88,72,0
115.74899,115.844826,87,72,0
115.79899,115.89482,88,71,0
115.84899,115.944824,87,71,0
115.89899,115.99482,86,71,0
115.94899,115.99482,87,71,0
115.99899,116.594826,88,70,0
116.19899,116.79482,87,70,0
116.39899,116.99482,85,70,0
116.59899,117.194824,83,70,0
116.79899,117.39482,82,70,0
116.99899,117.594826,80,70,0
117.19899,117.79482,79,70,0
117.39899,117.99482,78,70,0
117.59899,118.194824,76,70,0
117.79899,118.39482,75,70,0
117.99899,118.594826,73,70,0
118.19899,118.79482,71,70,0
118.39899,118.99482,70,70,0
118.59899,119.194824,68,70,0
118.79899,119.39482,67,70,0
118.99899,119.594826,66,70,0
119.19899,119.79482,64,70,0
119.39899,119.99482,63,70,0
119.59899,120.194824,61,70,0
119.79899,120.39482,59,70,0
119.99899,120.594826,58,70,0
120.19899,120.79482,56,70,0
120.39899,120.99482,55,70,0
120.59899,121.194824,54,70,0
120.79899,121.39482,52,70,0
120.99899,121.594826,51,70,0
121.19899,121.79482,49,70,0
121.39899,121.99482,47,70,0
121.59899,122.194824,46,70,0
121.79899,122.39482,44,70,0
121.99899,122.594826,43,70,0
122.19899,122.79482,42,70,0
122.39899,122.99482,41,70,0
125.59899,125.762184,56,110,0
125.68232,125.84552,51,110,0
125.765656,125.92885,47,110,0
125.84899,126.012184,51,110,0
125.93232,126.09552,56,110,0
126.015656,126.17885,51,110,0
126.09899,126.262184,59,110,0
126.18232,126.26913,51,110,0
126.265656,126.42885,58,110,0
126.34899,126.43927,51,110,0
126.43232,126.59552,56,110,0
126.515656,126.61288,51,110,0
126.59899,126.762184,56,110,0
126.68232,126.84551,51,110,0
126.765656,126.92885,47,110,0
126.84899,127.012184,51,110,0
126.93232,127.09551,56,110,0
127.015656,127.17885,51,110,0
127.09899,127.262184,59,110,0
127.18232,127.34551,51,110,0
127.265656,127.42885,58,110,0
127.34899,127.512184,51,110,0
127.43232,127.59551,56,110,0
127.515656,127.67885,51,110,0
127.59898,127.762184,64,110,0
127.68232,127.84551,59,110,0
127.765656,127.92885,56,110,0
127.84898,128.01218,59,110,0
127.93232,128.09552,64,110,0
128.01566,128.17885,59,110,0
128.09898,128.26218,68,110,0
128.18233,128.34552,59,110,0
128.26566,128.42885,66,110,0
128.34898,128.51218,59,110,0
128.43233,128.59552,64,110,0
128.51566,128.59552,59,110,0
128.59898,128.76218,64,110,0
128.68233,128.84552,59,110,0
128.76566,128.92885,56,110,0
128.84898,129.01218,59,110,0
128.93231,129.09552,64,110,0
129.01566,129.17885,59,110,0
129.09898,129.26218,68,110,0
129.18231,129.34552,59,110,0
129.26566,129.42885,66,110,0
129.34898,129.51218,59,110,0
129.43231,129.59552,64,110,0
129.51566,129.59552,59,110,0
129.59898,129.76218,73,110,0
129.68231,129.84552,76,110,0
129.76566,129.92885,73,110,0
129.84898,130.01218,76,110,0
129.93231,130.09552,73,110,0
130.01566,130.17885,76,110,0
130.09898,130.26218,73,110,0
130.18231,130.34552,76,110,0
130.26566,130.42885,73,110,0
130.34898,130.51218,76,110,0
130.43231,130.5955,73,110,0
130.51566,130.67885,76,110,0
130.59898,130.76218,73,110,0
130.68231,130.8455,76,110,0
130.76566,130.92885,73,110,0
130.84898,131.01218,76,110,0
130.93231,131.0955,73,110,0
131.01566,131.17885,76,110,0
131.09898,131.26218,73,110,0
131.18231,131.3455,76,110,0
131.26566,131.42885,70,110,0
131.34898,131.51218,73,110,0
131.43231,131.5955,67,110,0
131.51566,131.67885,70,110,0
131.59898,131.76218,64,110,0
131.68231,131.8455,67,110,0
131.76566,131.92885,61,110,0
131.84898,132.01218,64,110,0
131.93231,132.0955,58,110,0
132.01566,132.17885,61,110,0
132.09898,132.26218,56,110,0
132.18231,132.3455,58,110,0
132.26566,132.42885,61,110,0
132.34898,132.51218,58,110,0
132.43231,132.5955,56,110,0
132.51566,132.67885,58,110,0
132.68231,132.8455,56,110,0
132.76566,132.92885,61,110,0
132.84898,133.01218,58,110,0
132.93231,133.0955,56,110,0
133.01566,133.17885,61,110,0
133.18231,133.3455,55,110,0
133.26566,133.42885,61,110,0
133.34898,133.51218,58,110,0
133.43231,133.5955,55,110,0
133.51566,133.5955,61,110,0
133.59898,133.76218,68,110,0
133.68231,133.8455,63,110,0
133.76566,133.92885,59,110,0
133.84898,134.01218,63,110,0
133.93231,134.0955,68,110,0
134.01564,134.17885,63,110,0
134.09898,134.26218,71,110,0
134.18231,134.3455,63,110,0
134.26564,134.42885,70,110,0
134.34898,134.51218,63,110,0
134.43231,134.5955,68,110,0
134.51564,134.67885,63,110,0
134.59898,134.76218,68,110,0
134.68231,134.8455,63,110,0
134.76564,134.92885,59,110,0
134.84898,135.01218,63,110,0
134.93231,135.0955,68,110,0
135.01564,135.17885,63,110,0
135.09898,135.26218,71,110,0
135.18231,135.3455,63,110,0
135.26564,135.42885,70,110,0
135.34898,135.51218,63,110,0
135.43231,135.5955,68,110,0
135.51564,135.5955,63,110,0
135.59898,135.76218,76,110,0
135.68231,135.8455,71,110,0
135.76564,135.92883,68,110,0
135.84898,136.01218,71,110,0
135.93231,136.0955,76,110,0
136.01564,136.17883,71,110,0
136.09898,136.26218,80,110,0
136.18231,136.3455,71,110,0
136.26564,136.42883,78,110,0
136.34898,136.51218,71,110,0
136.43231,136.5955,76,110,0
136.51564,136.5955,71,110,0
136.59898,136.76218,76,110,0
136.68231,136.8455,71,110,0
136.76564,136.92883,68,110,0
136.84898,137.01218,71,110,0
136.93231,137.0955,76,110,0
137.01564,137.17883,71,110,0
137.09898,137.26218,80,110,0
137.18231,137.3455,71,110,0
137.26564,137.42883,78,110,0
137.34898,137.51218,71,110,0
137.43231,137.5955,76,110,0
137.51564,137.5955,71,110,0
137.59898,137.76218,85,110,0
137.68231,137.8455,88,110,0
137.76564,137.92883,85,110,0
137.84898,138.01218,88,110,0
137.93231,138.0955,85,110,0
138.01564,138.17883,88,110,0
138.09898,138.26218,85,110,0
138.18231,138.3455,88,110,0
138.26564,138.42883,85,110,0
138.34898,138.51218,88,110,0
138.43231,138.5955,85,110,0
138.51564,138.67883,88,110,0
138.59898,138.76218,85,110,0
138.68231,138.8455,88,110,0
138.76564,138.92883,85,110,0
138.84898,139.01218,88,110,0
138.93231,139.0955,85,110,0
139.01564,139.17883,88,110,0
139.09897,139.26218,85,110,0
139.18231,139.3455,88,110,0
139.26564,139.42883,85,110,0
139.34897,139.51218,88,110,0
139.43231,139.5955,85,110,0
139.51564,139.67883,88,110,0
139.59897,139.76218,85,110,0
139.68231,139.8455,88,110,0
139.76564,139.92883,82,110,0
139.84897,140.01218,85,110,0
139.93231,140.0955,80,110,0
140.01564,140.17883,82,110,0
140.09897,140.26218,80,110,0
140.18231,140.3455,82,110,0
140.26564,140.42883,85,110,0
140.34897,140.51218,82,110,0
140.43231,140.5955,80,110,0
140.51564,140.67883,82,110,0
140.68231,140.8455,80,110,0
140.76564,140.92883,85,110,0
140.84897,141.01216,82,110,0
140.93231,141.0955,80,110,0
141.01564,141.17883,85,110,0
141.18231,141.3455,79,110,0
141.26564,141.42883,85,110,0
141.34897,141.51216,82,110,0
141.43231,141.5955,79,110,0
141.51564,141.67883,85,110,0
141.68231,141.8455,76,110,0
141.76564,141.92883,85,110,0
141.84897,142.01216,82,110,0
141.93231,142.0955,76,110,0
142.01564,142.17883,85,110,0
142.18231,142.3455,75,110,0
142.26564,142.42883,85,110,0
142.34897,142.51216,82,110,0
142.43231,142.5955,75,110,0
142.51564,142.67883,85,110,0
142.68231,142.8455,80,110,0
142.76564,142.92883,85,110,0
142.84897,143.01216,82,110,0
142.93231,143.0955,80,110,0
143.01564,143.17883,85,110,0
143.18231,143.3455,79,110,0
143.26564,143.42883,85,110,0
143.34897,143.51216,82,110,0
143.43231,143.5955,79,110,0
143.51564,143.5955,85,110,0
143.84897,144.01216,83,120,0
143.93231,144.0955,86,120,0
144.01564,144.17883,89,120,0
144.09897,144.26216,92,120,0
144.1823,144.3455,89,120,0
144.26564,144.42883,86,120,0
144.34897,144.51216,95,120,0
144.4323,144.5955,94,120,0
144.51564,144.67883,92,120,0
144.59897,144.76216,91,120,0
144.6823,144.8455,94,120,0
144.76564,144.92883,92,120,0
144.84897,145.01216,91,120,0
144.9323,145.0955,88,120,0
145.01564,145.17883,87,120,0
145.09897,145.26216,85,120,0
145.1823,145.3455,88,120,0
145.26564,145.42883,87,120,0
145.34897,145.51216,85,120,0
145.4323,145.5955,83,120,0
145.51564,145.67883,82,120,0
145.6823,145.84549,80,80,0
145.76564,145.92883,83,80,0
145.84897,146.01216,87,80,0
145.9323,146.09549,92,80,0
146.01564,146.17883,80,80,0
146.34897,146.51216,92,80,0
146.4323,146.59549,80,80,0
146.51564,146.67883,92,80,0
146.84897,147.01216,92,80,0
146.9323,147.09549,80,80,0
147.01564,147.17883,92,80,0
147.34897,147.51216,91,100,0
147.4323,147.59549,79,100,0
147.51564,147.67883,91,100,0
147.6823,147.84549,68,80,0
147.76564,147.92883,71,80,0
147.84897,148.01216,75,80,0
147.9323,148.09549,80,80,0
148.01564,148.17883,68,80,0
148.34897,148.51216,80,80,0
148.4323,148.59549,68,80,0
148.51564,148.67883,80,80,0
148.84897,149.01216,80,80,0
148.9323,149.09549,68,80,0
149.01564,149.17883,80,80,0
149.34897,149.51216,79,100,0
149.4323,149.59549,67,100,0
149.51562,149.67883,79,100,0
149.6823,149.84549,80,80,0
149.76562,149.92883,83,80,0
149.84897,150.01216,87,80,0
149.9323,150.09549,92,80,0
150.01562,150.17883,80,80,0
150.34897,150.51216,92,80,0
150.4323,150.59549,80,80,0
150.51562,150.67883,92,80,0
150.84897,151.01216,92,80,0
150.9323,151.09549,80,80,0
151.01562,151.17882,92,80,0
151.34897,151.51216,91,100,0
151.4323,151.59549,79,100,0
151.51562,151.68352,91,100,0
151.59897,151.77176,92,80,0
151.6872,151.85999,87,80,0
151.77544,151.94823,83,80,0
151.86366,152.03647,87,79,0
151.9519,152.1247,92,79,0
152.04015,152.21294,87,78,0
152.12837,152.30116,83,78,0
152.21661,152.3894,87,78,0
152.30484,152.47765,92,77,0
152.39308,152.56587,87,77,0
152.48132,152.65411,83,76,0
152.56955,152.74763,87,76,0
152.65779,152.84138,92,76,0
152.75154,152.93513,87,75,0
152.84529,153.02888,83,75,0
152.93904,153.12263,87,74,0
153.03279,153.21638,92,74,0
153.12654,153.31013,87,73,0
153.22029,153.40388,92,73,0
153.31404,153.52757,87,73,0
153.40779,153.65257,92,72,0
153.53279,153.83748,87,72,0
153.65779,154.02498,92,71,0
153.84529,154.15257,87,71,0
154.03279,156.27757,92,71,0
156.28279,156.77863,59,80,0
156.78279,156.87862,56,80,0
156.88278,158.67862,51,80,0
158.68279,159.17862,59,80,0
159.18279,159.27863,56,80,0
159.28279,161.07861,52,80,0
161.08278,161.57861,56,80,0
161.58278,161.67862,59,80,0
161.68279,162.27863,64,80,0
162.28279,162.77863,68,80,0
162.78279,162.87862,71,80,0
162.88278,163.47862,76,80,0
163.48279,164.07861,64,80,0
164.08278,165.07861,71,80,0
165.08278,165.27863,73,80,0
165.28279,165.37862,71,80,0
165.33278,165.42862,73,80,0
165.38278,165.47862,75,80,0
165.43279,165.52863,73,80,0
165.48279,165.57861,75,80,0
165.53279,165.62862,73,80,0
165.58278,165.67862,75,80,0
165.63278,165.72862,73,80,0
165.68279,165.77863,75,80,0
165.73279,165.82861,73,80,0
165.78279,165.87862,75,80,0
165.83278,165.92862,73,80,0
165.88278,165.97862,75,80,0
165.93279,166.02863,73,80,0
165.98279,166.07861,75,80,0
166.03279,166.12862,73,80,0
166.08278,166.17862,75,80,0
166.13278,166.22862,73,80,0
166.18279,166.27863,71,80,0
166.28279,166.37862,75,80,0
166.38278,166.47862,73,80,0
166.48279,166.87862,71,80,0
168.88278,169.87862,78,80,0
169.88278,170.07861,80,80,0
170.08278,170.17862,81,80,0
170.13278,170.22862,80,80,0
170.18279,170.27863,81,80,0
170.23279,170.32861,80,80,0
170.28279,170.37862,81,80,0
170.33278,170.42862,80,80,0
170.38278,170.47862,81,80,0
170.43279,170.52863,80,80,0
170.48279,170.57861,81,80,0
170.53279,170.62862,80,80,0
170.58278,170.67862,81,80,0
170.63278,170.72862,80,80,0
170.68279,170.77863,81,80,0
170.73279,170.82861,80,80,0
170.78279,170.87862,81,80,0
170.83278,170.92862,80,80,0
170.88278,170.97862,81,80,0
170.93279,171.02863,80,80,0
170.98279,171.07861,78,80,0
171.08278,171.17862,81,80,0
171.18279,171.27863,80,80,0
171.28279,171.67862,78,80,0
173.68279,174.67862,64,80,0
174.68279,174.87862,66,80,0
174.88278,174.97862,68,80,0
174.93279,175.02863,66,80,0
174.98279,175.07861,68,80,0
175.03279,175.12862,66,80,0
175.08278,175.17862,68,80,0
175.13278,175.22862,66,80,0
175.18279,175.27863,68,80,0
175.23279,175.32861,66,80,0
175.28279,175.37862,68,80,0
175.33278,175.42862,66,80,0
175.38278,175.47862,68,80,0
175.43279,175.52863,66,80,0
175.48279,175.57861,68,80,0
175.53279,175.62862,66,80,0
175.58278,175.67862,68,80,0
175.63278,175.72862,66,80,0
175.68279,175.77863,68,80,0
175.73279,175.82861,66,80,0
175.78279,175.87862,64,80,0
175.88278,175.97862,68,80,0
175.98279,176.07861,66,80,0
176.08278,176.67862,64,80,0
176.68279,177.87862,57,100,0
176.68279,177.87862,61,100,0
176.68279,177.87862,69,100,0
177.88278,178.37862,66,79,0
177.88278,178.47862,61,79,0
177.88278,178.47862,57,79,0
178.38278,178.47862,68,71,0
178.48279,179.67862,64,70,0
178.48279,179.67862,59,70,0
178.48279,179.67862,56,70,0
179.68279,180.87862,63,70,0
179.68279,180.87862,57,70,0
179.68279,180.87862,54,70,0
180.88278,181.87862,76,80,0
181.88278,182.07861,78,80,0
182.08278,182.17862,80,80,0
182.13278,182.22862,78,80,0
182.18279,182.27863,80,80,0
182.23279,182.32861,78,80,0
182.28279,182.37862,80,80,0
182.33278,182.42862,78,80,0
182.38278,182.47862,80,80,0
182.43279,182.52863,78,80,0
182.48279,182.57861,80,80,0
182.53279,182.62862,78,80,0
182.58278,182.67862,80,80,0
182.63278,182.72862,78,80,0
182.68279,182.77863,80,80,0
182.73279,182.82861,78,80,0
182.78279,182.87862,80,80,0
182.83278,182.92862,78,80,0
182.88278,182.97862,80,80,0
182.93279,183.02863,78,80,0
182.98279,183.07861,76,80,0
183.08278,183.17862,80,80,0
183.18279,183.27863,78,80,0
183.28279,183.87862,76,80,0
183.88278,185.07861,69,100,0
183.88278,185.07861,73,100,0
183.88278,185.07861,81,100,0
185.08278,185.57861,78,79,0
185.08278,185.67862,73,79,0
185.08278,185.67862,69,79,0
185.58278,185.67862,80,71,0
185.68279,186.87862,76,70,0
185.68279,186.87862,71,70,0
185.68279,186.87862,68,70,0
186.88278,187.27863,75,70,0
186.88278,187.27863,69,70,0
186.88278,187.27863,66,70,0
187.98279,188.14598,71,110,0
188.06612,188.22931,67,110,0
188.14946,188.31265,71,110,0
188.23279,188.39598,67,110,0
188.31612,188.47931,71,110,0
188.39946,188.56265,67,110,0
188.48279,188.64598,71,110,0
188.56612,188.72931,67,110,0
188.64944,188.81265,71,110,0
188.73279,188.89598,67,110,0
188.81612,188.97931,71,110,0
188.89944,189.06265,67,110,0
188.98279,189.14598,71,110,0
189.06612,189.22931,67,110,0
189.14944,189.31265,71,110,0
189.23279,189.39598,67,110,0
189.31612,189.47931,71,110,0
189.39944,189.56265,67,110,0
189.48279,189.64598,71,110,0
189.56612,189.72931,67,110,0
189.64944,189.81265,71,110,0
189.73279,189.89598,67,110,0
189.81612,189.97931,71,110,0
189.89944,190.06265,67,110,0
189.98279,190.14598,71,110,0
190.06612,190.22931,67,110,0
190.14944,190.31264,71,110,0
190.23279,190.39598,67,110,0
190.31612,190.47931,71,110,0
190.39944,190.56264,67,110,0
190.48279,190.64598,71,110,0
190.56612,190.72931,67,110,0
190.64944,190.81264,71,110,0
190.73279,190.89598,67,110,0
190.81612,190.97931,71,110,0
190.89944,191.06264,67,110,0
190.98279,191.14598,71,110,0
191.06612,191.22931,67,110,0
191.14944,191.31264,71,110,0
191.23279,191.39598,67,110,0
191.31612,191.47931,71,110,0
191.39944,191.56264,67,110,0
191.48279,191.64598,71,110,0
191.56612,191.72931,67,110,0
191.64944,191.81264,71,110,0
191.73279,191.89598,67,110,0
191.81612,191.97931,71,110,0
191.89944,191.97931,67,110,0
193.48279,193.89598,71,110,0
193.89944,193.97931,74,110,0
193.98277,194.47931,79,110,0
194.48277,194.89598,83,110,0
194.89944,194.97931,86,110,0
194.98277,195.47931,91,110,0
194.98277,195.47931,79,110,0
195.48277,195.97931,91,110,0
195.48277,195.97931,79,110,0
195.98277,196.17375,79,110,0
195.98277,196.17375,91,110,0
196.08,196.27097,87,110,0
196.1807,196.37167,91,110,0
196.28139,196.47237,87,110,0
196.38208,196.57306,84,110,0
196.48277,196.67375,79,110,0
196.58,196.77097,84,110,0
196.6807,196.87167,87,110,0
196.78139,196.97237,84,110,0
196.87862,197.06958,79,110,0
196.98277,197.17375,75,110,0
197.08,197.27097,79,110,0
197.1807,197.37166,84,110,0
197.28139,197.47237,79,110,0
197.38208,197.57306,75,110,0
197.48277,197.67375,72,110,0
197.58,197.77097,75,110,0
197.6807,197.87166,79,110,0
197.78139,197.97237,75,110,0
197.87862,198.00362,72,110,0
197.98277,198.17375,67,110,0
198.08,198.27097,72,110,0
198.1807,198.37166,75,110,0
198.28139,198.47237,72,110,0
198.38208,198.57306,67,110,0
198.48277,198.67375,63,110,0
198.58,198.77097,67,110,0
198.6807,198.87166,72,110,0
198.78139,198.97235,67,110,0
198.8786,199.06958,63,110,0
198.98277,199.06958,63,110,0
199.08,199.27097,67,110,0
199.1807,199.37166,72,110,0
199.28139,199.47235,67,110,0
199.38208,199.57306,63,110,0
199.48277,199.57306,63,110,0
199.58,199.77097,67,110,0
199.6807,199.87166,72,110,0
199.78139,199.97235,67,110,0
199.8786,200.06958,63,110,0
201.48277,201.89597,67,110,0
201.89944,201.9793,70,110,0
201.98277,202.4793,75,110,0
202.48277,202.89597,79,110,0
202.89944,202.9793,82,110,0
202.98277,203.54137,87,110,0
202.98277,203.54137,75,110,0
203.54527,204.20386,87,110,0
203.54527,204.20386,75,110,0
204.20906,204.43336,87,110,0
204.32573,204.5306,92,110,0
204.4403,204.63129,96,110,0
204.54102,204.73198,92,110,0
204.64171,204.83267,87,110,0
204.7424,204.93336,84,110,0
204.83961,205.0306,87,110,0
204.9403,205.13129,92,110,0
205.041,205.23198,87,110,0
205.13823,205.32921,84,110,0
205.2424,205.43336,80,110,0
205.33961,205.5306,84,110,0
205.4403,205.63129,87,110,0
205.541,205.73198,84,110,0
205.64171,205.83267,80,110,0
205.7424,205.93336,75,110,0
205.83961,206.0306,80,110,0
205.9403,206.13129,84,110,0
206.041,206.23198,80,110,0
206.13823,206.32921,75,110,0
206.2424,206.43336,72,110,0
206.33961,206.5306,75,110,0
206.4403,206.63129,80,110,0
206.541,206.73198,75,110,0
206.6417,206.83267,72,110,0
206.7424,206.93336,68,110,0
206.83961,207.0306,72,110,0
206.9403,207.13129,75,110,0
207.041,207.23198,72,110,0
207.13823,207.3292,68,110,0
207.2424,207.43336,63,110,0
207.33961,207.5306,68,110,0
207.4403,207.63129,72,110,0
207.541,207.73198,68,110,0
207.6417,207.83267,63,110,0
207.7424,207.93336,60,110,0
207.83961,208.0306,63,110,0
207.9403,208.13129,68,110,0
208.13823,208.2181,60,110,0
208.041,208.23198,63,110,0
208.2424,209.73892,66,110,0
209.74239,210.15558,72,110,0
210.15906,210.23892,75,110,0
210.24239,210.73892,78,110,0
210.74239,211.15558,84,110,0
211.15906,211.23892,87,110,0
211.24239,211.73892,90,110,0
211.74239,212.23892,90,110,0
212.24239,212.90558,90,126,0
212.90906,213.07225,90,110,0
212.99239,213.15558,87,110,0
213.07573,213.23892,84,110,0
213.15906,213.32225,78,110,0
213.24239,213.90558,90,126,0
213.90906,214.07225,78,110,0
213.99239,214.15558,75,110,0
214.07571,214.23892,72,110,0
214.15906,214.23892,66,110,0
214.24239,214.90558,78,126,0
214.90906,215.07225,66,110,0
214.99239,215.15558,63,110,0
215.07571,215.2389,60,110,0
215.15906,215.2389,54,110,0
215.24239,215.40558,66,126,0
215.40906,215.57225,66,110,0
215.49239,215.65558,63,110,0
215.57571,215.7389,60,110,0
215.65906,215.7389,54,110,0
215.74239,215.90558,66,126,0
215.90906,216.07225,66,110,0
215.99239,216.15558,63,110,0
216.07571,216.2389,60,110,0
216.15906,216.2389,54,110,0
216.24239,216.57225,66,125,0
218.24239,218.7389,63,80,0
218.24239,218.7389,60,80,0
219.24239,219.7389,75,80,0
219.24239,219.7389,72,80,0
220.24239,220.7389,65,80,0
220.24239,220.7389,61,80,0
221.24239,221.7389,77,80,0
221.24239,221.7389,73,80,0
222.24239,224.2389,61,100,0
222.24239,224.2389,65,100,0
222.24239,224.2389,70,100,0
224.24237,224.57224,68,80,0
224.24237,224.57224,63,80,0
224.24237,224.57224,60,80,0
225.74237,226.15556,63,80,0
225.74237,226.15556,60,80,0
226.15904,226.2389,63,80,0
226.15904,226.2389,60,80,0
226.24237,226.57224,65,80,0
226.24237,226.57224,61,80,0
226.57571,226.7389,63,80,0
226.57571,226.7389,60,80,0
227.07571,227.2389,75,80,0
227.07571,227.2389,72,80,0
227.57571,227.7389,84,80,0
227.57571,227.7389,87,80,0
228.15904,228.2389,63,80,0
228.15904,228.2389,60,80,0
228.24237,228.57224,66,80,0
228.24237,228.57224,63,80,0
228.57571,228.7389,65,80,0
228.57571,228.7389,61,80,0
229.0757,229.2389,77,80,0
229.0757,229.2389,73,80,0
229.5757,229.7389,89,80,0
229.5757,229.7389,85,80,0
230.15904,230.2389,65,80,0
230.15904,230.2389,61,80,0
230.24237,232.23889,61,100,0
230.24237,232.23889,65,100,0
230.24237,232.23889,70,100,0
232.24237,232.57224,68,80,0
232.24237,232.57224,63,80,0
232.24237,232.57224,60,80,0
233.24237,234.23889,69,80,0
233.24237,234.23889,64,80,0
233.24237,234.23889,61,80,0
234.24237,234.57224,68,78,0
234.24237,234.57224,63,78,0
234.24237,234.57224,60,78,0
235.24237,236.23889,81,76,0
235.24237,236.23889,76,76,0
235.24237,236.23889,73,76,0
236.24237,236.73889,80,74,0
236.24237,236.73889,75,74,0
236.24237,236.73889,72,74,0
237.24237,237.73889,68,72,0
237.24237,237.73889,62,72,0
237.24237,237.73889,59,72,0
238.24237,238.73889,67,70,0
238.24237,238.73889,61,70,0
238.24237,238.73889,58,70,0
239.24236,239.73889,66,70,0
239.24236,239.73889,60,70,0
239.24236,239.73889,57,70,0
240.24236,240.61345,66,70,0
240.24236,240.61345,60,70,0
240.24236,240.61345,56,70,0
241.36736,241.58795,75,76,0
241.54384,241.76442,77,77,0
241.7203,241.94089,75,79,0
241.89677,242.11736,73,80,0
242.07324,242.29384,75,81,0
242.24971,242.4703,73,82,0
242.42618,242.64677,72,83,0
242.60266,242.95192,78,84,0
243.485,243.6578,78,90,0
243.66148,243.83427,80,91,0
243.83795,244.01074,78,92,0
244.01442,244.18721,77,93,0
244.19089,244.36368,78,95,0
244.36736,244.54016,77,96,0
244.54382,244.70703,75,97,0
244.7105,245.04036,87,98,0
245.54382,245.70703,87,104,0
245.7105,245.87369,89,105,0
245.87717,246.04036,87,106,0
246.04382,246.20702,85,107,0
246.2105,246.37369,87,108,0
246.37717,246.54036,85,109,0
246.54382,246.70702,84,110,0
246.7105,246.87369,85,110,0
246.87717,247.04036,84,110,0
247.04382,247.20702,82,110,0
247.2105,247.37369,84,110,0
247.37717,247.54036,82,110,0
247.54382,247.71169,80,110,0
247.71526,247.88312,82,110,0
247.88669,248.05948,80,110,0
248.06316,248.23595,78,110,0
248.23962,248.42322,80,110,0
248.42712,248.61072,78,110,0
248.61462,248.96532,77,103,0
250.13545,250.54865,65,80,0
250.13545,250.54865,53,80,0
250.55212,250.63199,68,80,0
250.55212,250.63199,56,80,0
250.63545,251.13199,73,80,0
250.63545,251.13199,61,80,0
251.13545,251.54865,77,80,0
251.13545,251.54865,65,80,0
251.55212,251.63199,73,80,0
251.55212,251.63199,61,80,0
251.63545,252.13199,72,80,0
251.63545,252.13199,60,80,0
252.13545,252.54865,75,80,0
252.13545,252.54865,63,80,0
252.55212,252.63199,72,80,0
252.55212,252.63199,60,80,0
252.63545,253.13199,73,80,0
252.63545,253.13199,61,80,0
253.13545,254.13199,56,80,0
253.13545,254.13199,68,80,0
254.13545,254.54865,70,80,0
254.13545,254.63197,58,80,0
254.55212,254.63197,66,80,0
254.63545,255.13197,65,80,0
255.13545,255.54865,68,87,0
255.55212,255.63197,65,94,0
255.63545,256.132,63,95,0
256.13544,256.54865,66,103,0
256.55212,256.632,63,109,0
256.63544,257.132,60,110,0
257.13544,258.132,65,110,0
258.13544,258.54865,73,80,0
258.13544,258.54865,61,80,0
258.55212,258.632,77,80,0
258.55212,258.632,65,80,0
258.63544,259.132,82,80,0
258.63544,259.132,70,80,0
259.13544,259.54865,85,80,0
259.13544,259.54865,73,80,0
259.55212,259.632,82,80,0
259.55212,259.632,70,80,0
259.63544,260.132,81,80,0
259.63544,260.132,69,80,0
260.13544,260.54865,84,80,0
260.13544,260.54865,72,80,0
260.55212,260.632,81,80,0
260.55212,260.632,69,80,0
260.63544,261.132,82,80,0
260.63544,261.132,70,80,0
261.13544,262.132,65,80,0
261.13544,262.132,77,80,0
262.13544,262.54865,78,80,0
262.13544,262.63196,66,80,0
262.55212,262.63196,75,80,0
262.63544,263.13196,73,80,0
263.13544,263.54865,77,87,0
263.55212,263.63196,73,94,0
263.63544,264.13196,72,95,0
264.13544,264.54865,75,103,0
264.55212,264.63196,72,109,0
264.63544,265.13196,70,110,0
265.13544,266.13196,73,110,0
266.13544,266.54865,82,110,0
266.13544,266.54865,70,110,0
266.5521,266.63196,85,110,0
266.5521,266.63196,73,110,0
266.63544,267.13196,90,110,0
266.63544,267.13196,78,110,0
267.13544,267.54865,94,110,0
267.13544,267.54865,82,110,0
267.5521,267.63196,90,110,0
267.5521,267.63196,78,110,0
267.63544,268.13196,89,110,0
267.63544,268.13196,77,110,0
268.13544,268.54865,92,110,0
268.13544,268.54865,80,110,0
268.5521,268.63196,89,110,0
268.5521,268.63196,77,110,0
268.63544,269.13196,90,110,0
268.63544,269.13196,78,110,0
269.13544,270.63196,73,110,0
269.13544,270.63196,85,110,0
270.63544,271.13196,90,110,0
270.63544,271.13196,78,110,0
271.13544,272.63196,74,110,0
271.13544,272.63196,86,110,0
272.63544,273.13196,91,110,0
272.63544,273.13196,79,110,0
273.13544,274.63196,74,110,0
273.13544,274.63196,86,110,0
274.63544,275.13196,91,110,0
274.63544,275.13196,79,110,0
275.13544,276.63196,76,110,0
275.13544,276.63196,88,110,0
277.13544,277.5486,79,110,0
277.21875,277.63196,82,110,0
277.3021,277.7153,85,110,0
277.38544,277.7986,88,110,0
277.46875,277.88196,91,110,0
277.5521,277.9653,79,110,0
278.13544,278.5486,79,110,0
278.21875,278.63196,82,110,0
278.3021,278.7153,85,110,0
278.38544,278.7986,88,110,0
278.46875,278.88196,91,110,0
278.5521,278.9653,79,110,0
279.13544,279.5486,79,110,0
279.21875,279.63196,82,110,0
279.3021,279.7153,85,110,0
279.38544,279.7986,88,110,0
279.46875,279.88196,91,110,0
279.5521,279.9653,79,110,0
280.13544,280.5486,79,110,0
280.21875,280.63196,82,110,0
280.3021,280.7153,85,110,0
280.38544,280.7986,88,110,0
280.46875,280.88196,91,110,0
280.5521,280.9653,79,110,0
280.8021,281.2153,82,110,0
280.88544,281.2986,85,110,0
280.96875,281.38196,88,110,0
281.0521,281.4653,91,110,0
281.3021,281.7153,85,110,0
281.38544,281.7986,88,110,0
281.46875,281.88196,91,110,0
281.5521,281.9653,94,110,0
281.88544,282.2986,88,110,0
281.96875,282.38196,91,110,0
282.0521,282.4653,94,110,0
282.38544,282.7986,88,110,0
282.46875,282.88196,91,110,0
282.5521,282.96527,94,110,0
282.8021,283.21527,88,110,0
282.88544,283.2986,91,110,0
282.96875,283.38196,94,110,0
283.3021,283.71527,85,110,0
283.38544,283.7986,88,110,0
283.46875,283.88196,91,110,0
283.8021,284.21527,82,110,0
283.88544,284.2986,85,110,0
283.96875,284.38196,88,110,0
284.3021,284.63544,79,110,0
284.38544,284.63544,82,110,0
284.46875,284.63544,85,110,0
284.8021,285.21527,76,110,0
284.88544,285.2986,79,110,0
284.96875,285.38196,82,110,0
285.3021,285.71527,73,110,0
285.38544,285.7986,76,110,0
285.46875,285.88196,79,110,0
285.8021,286.21527,70,110,0
285.8854,286.2986,73,110,0
285.96875,286.38196,76,110,0
286.3021,286.6354,67,110,0
286.3854,286.6354,70,110,0
286.46875,286.6354,73,110,0
286.8021,287.21527,64,110,0
286.8854,287.2986,67,110,0
286.96875,287.38196,70,110,0
287.3021,287.71527,61,110,0
287.3854,287.7986,64,110,0
287.46875,287.88196,67,110,0
287.8021,288.21527,58,110,0
287.8854,288.2986,61,110,0
287.96875,288.38196,64,110,0
288.3021,288.6354,55,110,0
288.3854,288.6354,58,110,0
288.46875,288.6354,61,110,0
288.8021,289.21527,52,110,0
288.8854,289.2986,55,110,0
288.96875,289.38196,58,110,0
289.3021,289.71527,49,110,0
289.3854,289.7986,52,110,0
289.46875,289.88196,55,110,0
289.8021,290.21527,46,110,0
289.8854,290.2986,49,110,0
289.96875,290.38196,52,110,0
290.3021,290.6354,43,110,0
290.3854,290.6354,46,110,0
290.46875,290.6354,49,110,0
290.6354,290.7986,46,110,0
290.6354,290.7986,43,110,0
290.71875,290.88196,52,110,0
290.8021,290.96527,46,110,0
290.8021,290.96527,43,110,0
290.8854,291.0486,52,110,0
290.96875,291.13196,46,110,0
290.96875,291.13196,43,110,0
291.0521,291.21527,52,110,0
291.1354,291.2986,46,110,0
291.1354,291.2986,43,110,0
291.21875,291.38196,52,110,0
291.3021,291.46527,46,110,0
291.3021,291.46527,43,110,0
291.3854,291.5486,52,110,0
291.46875,291.63196,46,110,0
291.46875,291.63196,43,110,0
291.5521,291.71527,52,110,0
291.6354,291.7986,46,110,0
291.6354,291.7986,43,110,0
291.71875,291.88196,52,110,0
291.8021,291.96527,46,110,0
291.8021,291.96527,43,110,0
291.8854,292.0486,52,110,0
291.96875,292.13196,46,110,0
291.96875,292.13196,43,110,0
292.0521,292.21527,52,110,0
292.1354,292.2986,46,110,0
292.1354,292.2986,43,110,0
292.21875,292.38196,52,110,0
292.3021,292.46527,46,110,0
292.3021,292.46527,43,110,0
292.3854,292.5486,52,110,0
292.46875,292.63196,46,110,0
292.46875,292.63196,43,110,0
292.5521,292.71527,52,110,0
292.6354,292.7986,46,110,0
292.6354,292.7986,43,110,0
292.71875,292.88193,52,110,0
292.8021,292.96527,46,110,0
292.8021,292.96527,43,110,0
292.8854,293.0486,52,110,0
292.96875,293.13193,46,110,0
292.96875,293.13193,43,110,0
293.0521,293.21527,52,110,0
293.1354,293.2986,46,110,0
293.1354,293.2986,43,110,0
293.21875,293.38193,52,110,0
293.3021,293.46527,46,110,0
293.3021,293.46527,43,110,0
293.3854,293.5486,52,110,0
293.46875,293.63193,46,110,0
293.46875,293.63193,43,110,0
293.5521,293.71527,52,110,0
293.6354,293.7986,46,110,0
293.6354,293.7986,43,110,0
293.71875,293.88193,52,110,0
293.8021,293.96527,46,110,0
293.8021,293.96527,43,110,0
293.8854,294.0486,52,110,0
293.96875,294.13193,46,110,0
293.96875,294.13193,43,110,0
294.0521,294.21527,52,110,0
294.1354,294.2986,46,110,0
294.1354,294.2986,43,110,0
294.21875,294.38193,52,110,0
294.3021,294.46527,46,110,0
294.3021,294.46527,43,110,0
294.3854,294.5486,52,110,0
294.46875,294.63193,46,110,0
294.46875,294.63193,43,110,0
294.5521,294.71527,52,110,0
294.6354,294.7986,46,110,0
294.6354,294.7986,43,110,0
294.71875,294.88193,52,110,0
294.8021,294.96527,46,110,0
294.8021,294.96527,43,110,0
294.8854,295.0486,52,110,0
294.96875,295.13193,46,110,0
294.96875,295.13193,43,110,0
295.0521,295.21527,52,110,0
295.1354,295.2986,46,110,0
295.1354,295.2986,43,110,0
295.21875,295.38193,52,110,0
295.3021,295.46527,46,110,0
295.3021,295.46527,43,110,0
295.3854,295.5486,52,110,0
295.46875,295.63193,46,110,0
295.46875,295.63193,43,110,0
295.5521,295.71527,52,110,0
295.6354,295.7986,46,110,0
295.6354,295.7986,43,110,0
295.71875,295.88193,52,110,0
295.8021,295.96527,46,110,0
295.8021,295.96527,43,110,0
295.8854,296.0486,52,110,0
295.96875,296.13193,46,110,0
295.96875,296.13193,43,110,0
296.0521,296.21527,52,110,0
296.1354,296.2986,46,110,0
296.1354,296.2986,43,110,0
296.21875,296.38193,52,110,0
296.30206,296.46527,46,110,0
296.30206,296.46527,43,110,0
296.3854,296.5486,52,110,0
296.46875,296.63193,46,110,0
296.46875,296.63193,43,110,0
296.55206,296.71527,52,110,0
296.6354,296.7986,46,110,0
296.6354,296.7986,43,110,0
296.71875,296.88193,52,110,0
296.80206,296.96527,46,110,0
296.80206,296.96527,43,110,0
296.8854,297.0486,52,110,0
296.96875,297.13193,46,110,0
296.96875,297.13193,43,110,0
297.05206,297.21527,52,110,0
297.1354,297.2986,46,110,0
297.1354,297.2986,43,110,0
297.21875,297.38193,52,110,0
297.30206,297.46527,46,110,0
297.30206,297.46527,43,110,0
297.3854,297.5486,52,110,0
297.46875,297.63193,46,110,0
297.46875,297.63193,43,110,0
297.55206,297.71527,52,110,0
297.6354,297.7986,43,110,0
297.6354,297.7986,46,110,0
297.71875,297.88193,52,110,0
297.80206,297.96527,46,110,0
297.80206,297.96527,43,110,0
297.8854,298.0486,52,110,0
297.96875,298.13193,46,110,0
297.96875,298.13193,43,110,0
298.05206,298.21527,52,110,0
298.1354,298.2986,46,110,0
298.1354,298.2986,43,110,0
298.21875,298.38193,52,110,0
298.30206,298.46527,46,110,0
298.30206,298.46527,43,110,0
298.3854,298.5486,52,110,0
298.46875,298.63193,46,110,0
298.46875,298.63193,43,110,0
298.55206,298.63193,52,110,0
298.6354,298.96527,52,110,0
298.6354,298.96527,46,110,0
298.6354,298.96527,43,110,0
302.1354,302.5486,60,70,0
302.1354,302.5486,48,70,0
302.55206,302.63193,44,70,0
302.55206,302.63193,56,70,0
302.6354,304.13193,41,70,0
302.6354,304.13193,53,70,0
304.1354,304.54858,56,70,0
304.1354,304.54858,44,70,0
304.55206,304.63193,48,70,0
304.55206,304.63193,60,70,0
304.6354,305.13193,65,70,0
304.6354,305.13193,53,70,0
305.1354,305.54858,68,70,0
305.1354,305.54858,56,70,0
305.55206,305.63193,72,70,0
305.55206,305.63193,60,70,0
305.6354,306.13193,77,70,0
305.6354,306.13193,65,70,0
306.1354,306.63193,65,70,0
306.1354,306.63193,53,70,0
306.6354,307.46527,72,70,0
306.6354,307.63193,67,70,0
306.6354,307.63193,64,70,0
307.46872,307.63193,74,70,0
307.6354,307.7118,72,70,0
307.67706,307.75345,74,70,0
307.71872,307.79514,76,70,0
307.7604,307.8368,74,70,0
307.80206,307.87845,76,70,0
307.84372,307.92014,74,70,0
307.8854,307.9618,76,70,0
307.92706,308.00345,74,70,0
307.96872,308.04514,76,70,0
308.0104,308.0868,74,70,0
308.05206,308.12845,76,70,0
308.09372,308.17014,74,70,0
308.1354,308.2118,76,70,0
308.17706,308.25345,74,70,0
308.21872,308.29514,76,70,0
308.2604,308.3368,74,70,0
308.30206,308.37845,76,70,0
308.34372,308.42014,74,70,0
308.3854,308.4618,72,70,0
308.46872,308.54858,76,70,0
307.6354,308.63193,71,70,0
307.6354,308.63193,65,70,0
308.55206,308.63193,74,70,0
308.6354,308.96527,72,70,0
308.6354,308.96527,67,70,0
308.6354,308.96527,64,70,0
310.1354,310.54858,61,70,0
310.1354,310.54858,49,70,0
310.55206,310.63193,58,70,0
310.55206,310.63193,46,70,0
310.6354,312.13193,42,70,0
310.6354,312.13193,54,70,0
312.1354,312.54858,58,70,0
312.1354,312.54858,46,70,0
312.55206,312.63193,61,70,0
312.55206,312.63193,49,70,0
312.6354,313.13193,66,70,0
312.6354,313.13193,54,70,0
313.1354,313.54858,70,70,0
313.1354,313.54858,58,70,0
313.55206,313.63193,73,70,0
313.55206,313.63193,61,70,0
313.6354,314.13193,78,70,0
313.6354,314.13193,66,70,0
314.1354,314.63193,66,70,0
314.1354,314.63193,54,70,0
314.6354,315.46524,73,70,0
314.6354,315.63193,68,70,0
314.6354,315.63193,65,70,0
315.46872,315.63193,75,70,0
315.6354,315.7118,73,70,0
315.67706,315.75345,75,70,0
315.71872,315.7951,77,70,0
315.7604,315.8368,75,70,0
315.80206,315.87845,77,70,0
315.84372,315.9201,75,70,0
315.8854,315.9618,77,70,0
315.92706,316.00345,75,70,0
315.96872,316.0451,77,70,0
316.0104,316.0868,75,70,0
316.05206,316.12845,77,70,0
316.09372,316.1701,75,70,0
316.1354,316.2118,77,70,0
316.17706,316.25345,75,70,0
316.21872,316.2951,77,70,0
316.2604,316.3368,75,70,0
316.30206,316.37845,77,70,0
316.34372,316.4201,75,70,0
316.3854,316.46524,73,70,0
316.46872,316.54858,77,70,0
315.6354,316.63193,72,70,0
315.6354,316.63193,66,70,0
316.55206,316.63193,75,70,0
316.63538,316.96524,73,70,0
316.63538,316.96524,68,70,0
316.63538,316.96524,65,70,0
318.63538,319.46524,72,70,0
319.46872,319.63193,74,70,0
319.63538,319.7118,72,70,0
319.67706,319.75345,74,70,0
319.71872,319.7951,76,70,0
319.76038,319.83676,74,70,0
319.80206,319.87845,76,70,0
319.84372,319.9201,74,70,0
319.88538,319.96176,76,70,0
319.92706,320.00345,74,70,0
319.96872,320.0451,76,70,0
320.01038,320.08676,74,70,0
320.05206,320.12845,76,70,0
320.09372,320.1701,74,70,0
320.13538,320.21176,76,70,0
320.17706,320.25345,74,70,0
320.21872,320.2951,76,70,0
320.26038,320.33676,74,70,0
320.30206,320.37845,76,70,0
320.34372,320.4201,74,70,0
320.38538,320.46176,72,70,0
320.46872,320.54858,76,70,0
320.55206,320.63193,74,70,0
320.63538,320.96524,72,70,0
322.63538,323.46524,76,70,0
323.46872,323.6319,77,70,0
323.63538,323.71176,79,70,0
323.67706,323.75345,77,70,0
323.71872,323.7951,79,70,0
323.76038,323.83676,77,70,0
323.80206,323.87845,79,70,0
323.84372,323.9201,77,70,0
323.88538,323.96176,79,70,0
323.92706,324.00345,77,70,0
323.96872,324.0451,79,70,0
324.01038,324.08676,77,70,0
324.05206,324.12845,79,70,0
324.09372,324.1701,77,70,0
324.13538,324.21176,79,70,0
324.17706,324.25345,77,70,0
324.21872,324.2951,79,70,0
324.26038,324.33676,77,70,0
324.30206,324.37845,79,70,0
324.34372,324.4201,77,70,0
324.38538,324.46524,76,70,0
324.46872,324.54858,79,70,0
324.55206,324.6319,77,70,0
324.63538,324.96524,76,70,0
326.13538,326.29858,79,70,0
326.13538,326.29858,76,70,0
326.30206,326.46524,79,70,0
326.30206,326.46524,76,70,0
326.46872,326.6319,79,70,0
326.46872,326.6319,76,70,0
326.63538,326.96524,82,70,0
326.63538,326.96524,79,70,0
328.13538,328.29858,82,78,0
328.13538,328.29858,79,78,0
328.30203,328.46524,82,79,0
328.30203,328.46524,79,79,0
328.46872,328.6319,82,79,0
328.46872,328.6319,79,79,0
328.63538,328.79858,88,80,0
328.71872,328.8819,82,81,0
328.80203,328.96524,91,82,0
328.88538,329.04858,88,83,0
328.96872,329.1319,94,84,0
329.05203,329.21524,91,86,0
329.13538,329.29858,88,87,0
329.21872,329.3819,91,88,0
329.30203,329.46524,82,89,0
329.38538,329.54858,88,91,0
329.46872,329.6319,79,92,0
329.55203,329.71524,82,93,0
329.63538,329.79858,76,94,0
329.71872,329.8819,79,96,0
329.80203,329.96524,70,97,0
329.88538,330.04858,76,98,0
329.96872,330.1319,67,99,0
330.05203,330.21524,70,101,0
330.13538,330.29858,64,102,0
330.21872,330.3819,67,103,0
330.30203,330.46524,58,104,0
330.38538,330.54858,64,106,0
330.46872,330.6319,55,107,0
330.55203,330.71524,58,108,0
330.63538,330.79858,52,110,0
330.71872,330.8819,55,110,0
330.80203,330.96524,46,110,0
330.88538,331.04858,52,110,0
330.96872,331.1319,43,110,0
331.05203,331.21524,46,110,0
331.13538,331.29858,49,110,0
331.21872,331.3819,46,110,0
331.30203,331.46524,52,110,0
331.38538,331.54858,49,110,0
331.46872,331.6319,55,110,0
331.55203,331.6319,52,110,0
331.63538,331.79858,58,110,0
332.13538,332.31897,61,110,0
332.13538,332.31897,56,110,0
332.13538,332.31897,49,110,0
332.7729,334.63065,52,80,0
332.7729,334.63065,55,80,0
332.7729,334.63065,60,80,0
334.63495,335.1479,60,80,0
335.1522,335.2513,57,80,0
335.25565,335.41882,53,120,0
335.4223,335.75217,65,120,0
335.4223,335.75217,60,120,0
335.4223,335.75217,57,120,0
335.4223,335.75217,53,120,0
335.75565,336.08548,69,120,0
335.75565,336.08548,65,120,0
335.75565,336.08548,60,120,0
335.75565,336.08548,57,120,0
336.08896,336.41882,60,120,0
336.08896,336.41882,65,120,0
336.08896,336.41882,69,120,0
336.08896,336.41882,72,120,0
336.4223,336.75217,77,120,0
336.4223,336.75217,72,120,0
336.4223,336.75217,69,120,0
336.4223,336.75217,65,120,0
336.75565,337.08548,81,120,0
336.75565,337.08548,77,120,0
336.75565,337.08548,72,120,0
336.75565,337.08548,69,120,0
337.08896,337.25217,84,120,0
337.08896,337.25217,81,120,0
337.08896,337.25217,77,120,0
337.08896,337.25217,72,120,0
337.25565,338.75217,77,120,0
337.25565,338.75217,81,120,0
337.25565,338.75217,84,120,0
337.25565,338.75217,89,120,0
338.7556,339.16882,57,80,0
339.1723,339.25217,60,80,0
339.2556,339.75217,65,80,0
339.7556,340.16882,69,80,0
340.1723,340.25217,72,80,0
340.2556,340.75217,77,80,0
340.7556,341.25217,65,80,0
341.2556,341.41882,60,120,0
341.2556,341.41882,55,120,0
341.2556,341.41882,52,120,0
341.4223,341.75217,64,120,0
341.4223,341.75217,60,120,0
341.4223,341.75217,55,120,0
341.7556,342.08548,67,120,0
341.7556,342.08548,64,120,0
341.7556,342.08548,60,120,0
342.08896,342.41882,64,120,0
342.08896,342.41882,67,120,0
342.08896,342.41882,72,120,0
342.4223,342.75217,76,120,0
342.4223,342.75217,72,120,0
342.4223,342.75217,67,120,0
342.7556,343.08548,79,120,0
342.7556,343.08548,76,120,0
342.7556,343.08548,72,120,0
343.08896,343.25217,84,120,0
343.08896,343.25217,79,120,0
343.08896,343.25217,76,120,0
343.2556,344.08548,72,80,0
344.08896,344.25217,74,80,0
344.2556,344.33548,76,80,0
344.2973,344.37717,74,80,0
344.33896,344.41882,76,80,0
344.3806,344.46048,74,80,0
344.4223,344.50217,76,80,0
344.46396,344.54382,74,80,0
344.5056,344.58548,76,80,0
344.5473,344.62717,74,80,0
344.58896,344.66882,76,80,0
344.6306,344.71048,74,80,0
344.6723,344.75217,76,80,0
344.71396,344.79382,74,80,0
344.7556,344.83548,76,80,0
344.7973,344.87717,74,80,0
344.83896,344.91882,76,80,0
344.8806,344.96048,74,80,0
344.9223,345.00217,76,80,0
344.96396,345.04382,74,80,0
345.0056,345.08548,72,80,0
345.08896,345.16882,76,80,0
345.1723,345.25214,74,80,0
345.2556,345.41882,60,120,0
345.2556,345.41882,55,120,0
345.2556,345.41882,52,120,0
345.4223,345.75214,64,120,0
345.4223,345.75214,60,120,0
345.4223,345.75214,55,120,0
345.7556,346.08548,67,120,0
345.7556,346.08548,64,120,0
345.7556,346.08548,60,120,0
346.08896,346.41882,64,120,0
346.08896,346.41882,67,120,0
346.08896,346.41882,72,120,0
346.4223,346.75214,76,120,0
346.4223,346.75214,72,120,0
346.4223,346.75214,67,120,0
346.7556,347.08548,79,120,0
346.7556,347.08548,76,120,0
346.7556,347.08548,72,120,0
347.08896,347.25214,84,120,0
347.08896,347.25214,79,120,0
347.08896,347.25214,76,120,0
347.2556,348.08548,72,80,0
348.08896,348.25214,74,80,0
348.2556,348.33548,76,80,0
348.2973,348.37714,74,80,0
348.33896,348.41882,76,80,0
348.3806,348.46048,74,80,0
348.4223,348.50214,76,80,0
348.46396,348.54382,74,80,0
348.5056,348.58548,76,80,0
348.54727,348.62714,74,80,0
348.58896,348.66882,76,80,0
348.6306,348.71048,74,80,0
348.67227,348.75214,76,80,0
348.71396,348.79382,74,80,0
348.7556,348.83548,76,80,0
348.79727,348.87714,74,80,0
348.83896,348.91882,76,80,0
348.8806,348.96048,74,80,0
348.92227,349.00214,76,80,0
348.96396,349.04382,74,80,0
349.0056,349.08548,76,80,0
349.04727,349.12714,74,80,0
349.08896,349.16882,72,80,0
349.17227,349.25214,74,80,0
349.2556,349.41882,64,120,0
349.2556,349.41882,58,120,0
349.2556,349.41882,55,120,0
349.42227,349.75214,67,120,0
349.42227,349.75214,64,120,0
349.42227,349.75214,58,120,0
349.7556,350.08548,70,120,0
349.7556,350.08548,67,120,0
349.7556,350.08548,64,120,0
350.08896,350.41882,67,120,0
350.08896,350.41882,70,120,0
350.08896,350.41882,76,120,0
350.42227,350.75214,79,120,0
350.42227,350.75214,76,120,0
350.42227,350.75214,70,120,0
350.7556,351.08548,82,120,0
350.7556,351.08548,79,120,0
350.7556,351.08548,76,120,0
351.08896,351.25214,88,120,0
351.08896,351.25214,82,120,0
351.08896,351.25214,79,120,0
351.2556,352.08548,76,80,0
352.08896,352.25214,77,80,0
352.2556,352.33548,79,80,0
352.29727,352.37714,77,80,0
352.33896,352.41882,79,80,0
352.3806,352.46048,77,80,0
352.42227,352.50214,79,80,0
352.46396,352.54382,77,80,0
352.5056,352.58548,79,80,0
352.54727,352.62714,77,80,0
352.58896,352.66882,79,80,0
352.6306,352.71048,77,80,0
352.67227,352.75214,79,80,0
352.71396,352.79382,77,80,0
352.7556,352.83548,79,80,0
352.79727,352.87714,77,80,0
352.83896,352.91882,79,80,0
352.8806,352.96048,77,80,0
352.92227,353.00214,79,80,0
352.96396,353.04382,77,80,0
353.0056,353.08548,79,80,0
353.04727,353.12714,77,80,0
353.08896,353.16882,79,80,0
353.08896,353.16882,76,80,0
353.17227,353.25214,77,80,0
353.2556,353.41882,67,120,0
353.2556,353.41882,63,120,0
353.42227,353.75214,76,120,0
353.42227,353.75214,73,120,0
353.7556,354.08548,79,120,0
353.7556,354.08548,76,120,0
354.08896,354.41882,79,120,0
354.08896,354.41882,82,120,0
354.42227,354.75214,85,120,0
354.42227,354.75214,82,120,0
354.7556,355.08548,88,120,0
354.7556,355.08548,85,120,0
355.08896,355.25214,91,120,0
355.08896,355.25214,88,120,0
355.2556,356.25143,79,120,0
355.2556,356.45145,76,120,0
356.2556,356.45145,80,120,0
356.45563,356.55145,82,120,0
356.5056,356.60144,80,120,0
356.5556,356.65146,82,120,0
356.60562,356.70145,80,120,0
356.6556,356.75143,82,120,0
356.70563,356.80145,80,120,0
356.7556,356.85144,82,120,0
356.8056,356.90146,80,120,0
356.85562,356.95145,82,120,0
356.9056,357.00143,80,120,0
356.95563,357.05145,82,120,0
357.0056,357.10144,80,120,0
357.0556,357.15146,82,120,0
357.10562,357.20145,80,120,0
357.1556,357.25143,82,120,0
357.20563,357.30145,80,120,0
357.2556,357.35144,82,120,0
357.3056,357.40146,80,120,0
357.35562,357.45145,79,120,0
357.45563,357.55145,82,120,0
356.45563,357.65146,77,120,0
357.5556,357.65146,80,120,0
357.6556,358.15213,79,120,0
357.6556,358.15213,76,120,0
359.6556,360.15213,80,80,0
359.6556,360.15213,77,80,0
361.6556,363.65213,77,110,0
361.6556,363.65213,80,110,0
361.6556,363.65213,85,110,0
363.6556,363.98547,84,80,0
363.6556,363.98547,79,80,0
363.6556,363.98547,76,80,0
365.1556,365.5688,79,80,0
365.1556,365.5688,76,80,0
365.57227,365.65213,79,80,0
365.57227,365.65213,76,80,0
365.6556,365.98547,80,80,0
365.6556,365.98547,77,80,0
365.98895,366.15213,79,80,0
365.98895,366.15213,76,80,0
366.48895,366.65213,67,80,0
366.48895,366.65213,64,80,0
366.98895,367.15213,55,80,0
366.98895,367.15213,52,80,0
367.57227,367.65213,79,80,0
367.57227,367.65213,76,80,0
367.6556,367.98547,82,80,0
367.6556,367.98547,79,80,0
367.98892,368.15213,80,80,0
367.98892,368.15213,77,80,0
368.48892,368.65213,68,80,0
368.48892,368.65213,65,80,0
368.98892,369.15213,56,80,0
368.98892,369.15213,53,80,0
369.57227,369.65213,80,80,0
369.57227,369.65213,77,80,0
369.6556,371.65213,77,110,0
369.6556,371.65213,80,110,0
369.6556,371.65213,85,110,0
371.6556,371.98547,84,80,0
371.6556,371.98547,79,80,0
371.6556,371.98547,76,80,0
372.6556,373.65213,72,80,0
372.6556,373.65213,66,80,0
372.6556,373.65213,63,80,0
373.6556,373.98544,71,77,0
373.6556,373.98544,65,77,0
373.6556,373.98544,62,77,0
374.6556,374.98544,70,73,0
374.6556,374.98544,65,73,0
374.6556,374.98544,61,73,0
375.6556,376.15213,68,70,0
375.6556,376.15213,65,70,0
375.6556,376.15213,60,70,0
377.65558,378.15213,55,70,0
377.65558,378.15213,52,70,0
377.65558,378.15213,48,70,0
377.65558,378.15213,46,70,0
381.34308,381.80792,57,70,0
381.34308,381.80792,45,70,0
381.81183,381.90167,60,70,0
381.81183,381.90167,48,70,0
381.90558,382.46417,65,70,0
381.90558,382.46417,53,70,0
382.46808,382.93292,69,70,0
382.46808,382.93292,57,70,0
382.93683,383.02667,65,70,0
382.93683,383.02667,53,70,0
383.03058,383.58917,64,70,0
383.03058,383.58917,52,70,0
383.59308,384.05792,67,70,0
383.59308,384.05792,55,70,0
384.06183,384.15167,64,70,0
384.06183,384.15167,52,70,0
384.15558,384.71417,65,70,0
384.15558,384.71417,53,70,0
384.71808,385.83917,48,70,0
384.71808,385.83917,60,70,0
385.84308,386.30792,62,70,0
385.84308,386.30792,50,70,0
386.31183,386.40167,58,70,0
386.31183,386.40167,46,70,0
386.40558,386.96417,57,70,0
386.40558,386.96417,45,70,0
386.96808,387.43292,60,70,0
386.96808,387.43292,48,70,0
387.43683,387.52667,57,70,0
387.43683,387.52667,45,70,0
387.53058,388.08917,55,70,0
387.53058,388.08917,43,70,0
388.09308,388.55792,60,70,0
388.09308,388.55792,48,70,0
388.56183,388.65167,58,70,0
388.56183,388.65167,46,70,0
388.65558,389.21417,57,70,0
389.21808,390.33917,60,73,0
390.34308,390.80792,57,80,0
390.34308,390.80792,69,80,0
390.81183,390.90167,72,83,0
390.81183,390.90167,60,83,0
390.90558,391.46417,77,83,0
390.90558,391.46417,65,83,0
391.46808,391.93292,81,87,0
391.46808,391.93292,69,87,0
391.93683,392.02667,77,89,0
391.93683,392.02667,65,89,0
392.03058,392.6082,76,90,0
392.03058,392.6082,64,90,0
392.6125,393.16074,79,90,0
392.6125,393.16074,67,90,0
393.16553,393.27612,76,90,0
393.16553,393.27612,64,90,0
393.2809,393.9684,77,80,0
393.2809,393.9684,65,80,0
393.97324,396.04535,60,80,0
393.97324,396.04535,72,80,0
396.05014,396.60873,73,110,0
396.05014,396.60873,61,110,0
396.61264,398.29623,58,110,0
396.61264,398.29623,70,110,0
398.30014,399.98373,68,80,0
399.98764,400.35873,67,80,0
400.36264,400.54623,65,80,0
400.55014,400.63998,67,80,0
400.59702,400.68686,68,80,0
400.6439,400.73373,67,80,0
400.69077,400.7806,68,80,0
400.73764,400.82748,67,80,0
400.78452,400.87436,68,80,0
400.8314,400.92123,67,80,0
400.87827,400.9681,68,80,0
400.92514,401.01498,67,80,0
400.97202,401.06186,68,80,0
401.0189,401.10873,67,80,0
401.06577,401.1556,68,80,0
401.11264,401.20248,67,80,0
401.15952,401.24936,68,80,0
401.2064,401.29623,67,80,0
401.25327,401.3431,68,80,0
401.30014,401.38998,67,80,0
401.34702,401.43686,68,80,0
401.3939,401.48373,67,80,0
401.44077,401.5306,68,80,0
401.48764,401.57748,67,80,0
401.53452,401.62436,68,80,0
401.5814,401.67123,67,80,0
401.62827,401.7181,68,80,0
401.67514,401.76498,67,80,0
401.72202,401.81186,68,80,0
401.7689,401.85873,67,80,0
401.81577,401.9056,68,80,0
401.86264,401.95248,67,80,0
401.90952,401.99936,68,80,0
401.9564,402.04623,67,80,0
402.00327,402.0931,68,80,0
402.05014,402.13998,67,80,0
402.09702,402.18686,68,80,0
402.1439,402.23373,67,80,0
402.19077,402.2806,68,80,0
402.23764,402.32748,67,80,0
402.28452,402.37436,68,80,0
402.3314,402.42123,67,80,0
402.37827,402.4681,68,80,0
402.42514,402.51498,67,80,0
402.47202,402.56186,68,80,0
402.5189,402.60873,67,80,0
402.56577,402.6556,68,80,0
402.61264,402.70248,67,80,0
402.65952,402.74936,68,80,0
402.7064,402.79623,67,80,0
402.75327,402.8431,68,80,0
402.80014,402.88998,73,80,0
402.84702,402.93686,72,80,0
402.8939,402.98373,73,80,0
402.94077,403.0306,72,80,0
402.98764,403.07748,73,80,0
403.03452,403.12436,72,81,0
403.0814,403.17123,73,81,0
403.12827,403.2181,72,81,0
403.17514,403.26498,73,81,0
403.22202,403.31186,72,81,0
403.2689,403.35873,73,82,0
403.31577,403.4056,72,82,0
403.36264,403.45248,73,82,0
403.40952,403.49936,72,82,0
403.4564,403.54623,73,82,0
403.50327,403.5931,72,83,0
403.55014,403.63998,73,83,0
403.59702,403.68686,72,83,0
403.6439,403.73373,73,83,0
403.69077,403.7806,72,84,0
403.73764,403.82748,73,84,0
403.78452,403.87436,72,84,0
403.8314,403.92123,73,84,0
403.87827,403.9681,72,84,0
403.92514,404.01498,73,85,0
403.97202,404.06186,72,85,0
404.0189,404.10873,73,85,0
404.06577,404.1556,72,85,0
404.11264,404.20248,73,85,0
404.15952,404.24936,72,86,0
404.2064,404.29623,73,86,0
404.25327,404.3431,72,86,0
404.30014,404.38998,73,86,0
404.34702,404.43686,72,87,0
404.3939,404.48373,73,87,0
404.44077,404.5306,72,87,0
404.48764,404.57748,73,87,0
404.53452,404.62436,72,87,0
404.5814,404.67123,73,88,0
404.62827,404.7181,72,88,0
404.67514,404.76498,73,88,0
404.72202,404.81186,72,88,0
404.7689,404.85873,73,88,0
404.81577,404.9056,72,89,0
404.86264,404.95248,73,89,0
404.90952,404.99936,72,89,0
404.9564,404.99936,71,89,0
405.00327,405.04623,72,89,0
405.05014,405.13998,85,90,0
405.09702,405.18686,84,90,0
405.1439,405.23373,85,90,0
405.19077,405.2806,84,90,0
405.23764,405.32748,85,90,0
405.28452,405.37436,84,89,0
405.3314,405.42123,85,89,0
405.37827,405.4681,84,89,0
405.42514,405.51498,85,89,0
405.47202,405.56186,84,89,0
405.5189,405.60873,85,88,0
405.56577,405.6556,84,88,0
405.61264,405.70248,85,88,0
405.65952,405.74936,84,88,0
405.7064,405.79623,85,88,0
405.75327,405.8431,84,87,0
405.80014,405.88998,85,87,0
405.84702,405.93686,84,87,0
405.8939,405.98373,85,87,0
405.94077,406.0306,84,86,0
405.98764,406.07748,85,86,0
406.03452,406.12436,84,86,0
406.0814,406.17123,85,86,0
406.12827,406.2181,84,86,0
406.17514,406.26498,85,85,0
406.22202,406.31186,84,85,0
406.2689,406.35873,85,85,0
406.31577,406.4056,84,85,0
406.36264,406.45248,85,85,0
406.40952,406.49936,84,84,0
406.4564,406.54623,85,84,0
406.50327,406.5931,84,84,0
406.55014,406.63998,85,84,0
406.59702,406.68686,84,83,0
406.6439,406.73373,85,83,0
406.69077,406.7806,84,83,0
406.73764,406.82748,85,83,0
406.78452,406.87436,84,83,0
406.8314,406.92123,85,82,0
406.87827,406.9681,84,82,0
406.92514,407.01498,85,82,0
406.97202,407.06186,84,82,0
407.0189,407.10873,85,82,0
407.06577,407.1556,84,81,0
407.11264,407.20248,85,81,0
407.15952,407.24936,84,81,0
407.2064,407.24936,83,81,0
407.25327,407.29623,84,81,0
407.30014,407.85873,85,80,0
407.48764,408.04623,84,80,0
407.67514,408.23373,82,80,0
407.86264,408.42123,80,80,0
408.05014,408.60873,79,80,0
408.23764,408.79623,78,80,0
408.42514,408.98373,77,80,0
408.61264,409.17123,76,80,0
408.80014,409.35873,75,80,0
408.98764,409.54623,73,80,0
409.17514,409.73373,72,80,0
409.36264,409.92123,70,80,0
409.55014,410.10873,68,80,0
409.73764,410.29623,67,80,0
409.92514,410.48373,66,80,0
410.11264,410.67123,65,80,0
410.30014,410.85873,64,80,0
410.48764,411.04623,63,80,0
410.67514,411.23373,61,80,0
410.86264,411.42123,60,80,0
411.05014,411.60873,58,80,0
411.23764,411.79623,56,80,0
411.42514,411.98373,55,80,0
411.61264,412.17123,54,80,0
411.80014,412.35873,53,80,0
411.98764,412.54623,52,80,0
412.17514,412.73373,51,80,0
412.36264,412.92123,49,80,0
412.55014,413.10873,48,80,0
412.73764,413.29623,46,80,0
412.92514,413.48373,44,80,0
413.11264,413.67123,43,80,0
413.30014,413.85873,42,80,0
416.30014,416.46802,53,110,0
416.38586,416.5537,48,110,0
416.4716,416.63943,44,110,0
416.55728,416.72516,48,110,0
416.643,416.81085,53,110,0
416.72873,416.89658,48,110,0
416.81442,416.9823,56,110,0
416.90015,417.068,48,110,0
416.98587,417.15372,55,110,0
417.07156,417.23944,48,110,0
417.1573,417.32516,53,110,0
417.243,417.41086,48,110,0
417.32874,417.49658,53,110,0
417.41443,417.5823,48,110,0
417.50015,417.668,44,110,0
417.58588,417.75372,48,110,0
417.67157,417.83945,53,110,0
417.7573,417.92514,48,110,0
417.84302,418.01086,56,110,0
417.9287,418.0966,48,110,0
418.01443,418.18228,55,110,0
418.10016,418.268,48,110,0
418.18585,418.35373,53,110,0
418.27158,418.43942,48,110,0
418.3573,418.52515,61,110,0
418.443,418.61087,56,110,0
418.52872,418.69656,53,110,0
418.61444,418.7823,56,110,0
418.70013,418.868,61,110,0
418.78586,418.95374,56,110,0
418.87158,419.03943,65,110,0
418.9573,419.12515,56,110,0
419.043,419.21088,63,110,0
419.12872,419.29657,56,110,0
419.21445,419.3823,61,110,0
419.30014,419.3823,56,110,0
419.38586,419.5537,61,110,0
419.4716,419.63943,56,110,0
419.55728,419.72516,53,110,0
419.643,419.81085,56,110,0
419.72873,419.89658,61,110,0
419.81442,419.9823,56,110,0
419.90015,420.068,65,110,0
419.98587,420.15372,56,110,0
420.07156,420.23944,63,110,0
420.1573,420.32513,56,110,0
420.243,420.41086,61,110,0
420.32874,420.41086,56,110,0
420.41443,420.5823,70,110,0
420.50015,420.668,73,110,0
420.58588,420.75372,70,110,0
420.67157,420.83945,73,110,0
420.7573,420.92514,70,110,0
420.84302,421.01086,73,110,0
420.9287,421.0966,70,110,0
421.01443,421.18228,73,110,0
421.10016,421.268,70,110,0
421.18585,421.35373,73,110,0
421.27158,421.43942,70,110,0
421.3573,421.52515,73,110,0
421.443,421.61087,70,110,0
421.52872,421.69656,73,110,0
421.61444,421.7823,70,110,0
421.70013,421.868,73,110,0
421.78586,421.9537,70,110,0
421.87158,422.03943,73,110,0
421.9573,422.12515,70,110,0
422.043,422.21088,73,110,0
422.12872,422.29657,67,110,0
422.21445,422.3823,70,110,0
422.30014,422.46802,64,110,0
422.38586,422.5537,67,110,0
422.4716,422.63943,61,110,0
422.55728,422.72516,64,110,0
422.643,422.81085,58,110,0
422.72873,422.89658,61,110,0
422.81442,422.9823,55,110,0
422.90015,423.068,58,110,0
422.98587,423.15372,53,110,0
423.07156,423.23944,55,110,0
423.1573,423.32513,58,110,0
423.243,423.41086,55,110,0
423.3287,423.49658,53,110,0
423.41443,423.58228,55,110,0
423.58588,423.75372,53,110,0
423.67157,423.83945,58,110,0
423.7573,423.92514,55,110,0
423.84302,424.01086,53,110,0
423.9287,424.0966,58,110,0
424.10016,424.268,52,110,0
424.18585,424.35373,58,110,0
424.27158,424.43942,55,110,0
424.3573,424.52515,52,110,0
424.443,424.52515,58,110,0
424.52872,424.69656,65,110,0
424.61444,424.7823,60,110,0
424.70013,424.868,56,110,0
424.78586,424.9537,60,110,0
424.87158,425.03943,65,110,0
424.95728,425.12515,60,110,0
425.043,425.21085,68,110,0
425.12872,425.29657,60,110,0
425.21445,425.3823,67,110,0
425.30014,425.46802,60,110,0
425.38586,425.5537,65,110,0
425.4716,425.63943,60,110,0
425.55728,425.72516,65,110,0
425.643,425.81085,60,110,0
425.72873,425.89658,56,110,0
425.81442,425.9823,60,110,0
425.90015,426.068,65,110,0
425.98587,426.15372,60,110,0
426.07156,426.23944,68,110,0
426.1573,426.32513,60,110,0
426.243,426.41086,67,110,0
426.3287,426.49658,60,110,0
426.41443,426.58228,65,110,0
426.50015,426.668,60,110,0
426.58585,426.75372,73,110,0
426.67157,426.83945,68,110,0
426.7573,426.92514,65,110,0
426.84302,427.01086,68,110,0
426.9287,427.0966,73,110,0
427.01443,427.18228,68,110,0
427.10016,427.268,77,110,0
427.18585,427.35373,68,110,0
427.27158,427.43942,75,110,0
427.3573,427.52515,68,110,0
427.443,427.61087,73,110,0
427.52872,427.61087,68,110,0
427.61444,427.7823,73,110,0
427.70013,427.868,68,110,0
427.78586,427.9537,65,110,0
427.87158,428.03943,68,110,0
427.95728,428.12515,73,110,0
428.043,428.21085,68,110,0
428.12872,428.29657,77,110,0
428.21442,428.3823,68,110,0
428.30014,428.46802,75,110,0
428.38586,428.5537,68,110,0
428.4716,428.63943,73,110,0
428.55728,428.63943,68,110,0
428.643,428.81085,82,110,0
428.72873,428.89658,85,110,0
428.81442,428.9823,82,110,0
428.90015,429.068,85,110,0
428.98587,429.15372,82,110,0
429.07156,429.23944,85,110,0
429.1573,429.32513,82,110,0
429.243,429.41086,85,110,0
429.3287,429.49658,82,110,0
429.41443,429.58228,85,110,0
429.50015,429.668,82,110,0
429.58585,429.75372,85,110,0
429.67157,429.83942,82,110,0
429.7573,429.92514,85,110,0
429.843,430.01086,82,110,0
429.9287,430.0966,85,110,0
430.01443,430.18228,82,110,0
430.10016,430.268,85,110,0
430.18585,430.35373,82,110,0
430.27158,430.43942,85,110,0
430.3573,430.52515,82,110,0
430.443,430.61087,85,110,0
430.52872,430.69656,82,110,0
430.61444,430.7823,85,110,0
430.70013,430.868,82,110,0
430.78586,430.9537,85,110,0
430.87158,431.03943,79,110,0
430.95728,431.12515,82,110,0
431.043,431.21085,77,110,0
431.12872,431.29657,79,110,0
431.21442,431.3823,77,110,0
431.30014,431.468,79,110,0
431.38586,431.5537,82,110,0
431.47156,431.63943,79,110,0
431.55728,431.72516,77,110,0
431.643,431.72873,79,110,0
431.81442,431.9823,77,110,0
431.90015,432.068,82,110,0
431.98587,432.15372,79,110,0
432.07156,432.23944,77,110,0
432.1573,432.32513,82,110,0
432.3287,432.49658,76,110,0
432.41443,432.58228,82,110,0
432.50015,432.668,79,110,0
432.58585,432.75372,76,110,0
432.67157,432.83942,82,110,0
432.843,433.01086,73,110,0
432.9287,433.09656,82,110,0
433.01443,433.18228,79,110,0
433.10016,433.268,73,110,0
433.18585,433.35373,82,110,0
433.3573,433.52515,72,110,0
433.443,433.61087,82,110,0
433.52872,433.69656,79,110,0
433.61444,433.7823,72,110,0
433.70013,433.868,82,110,0
433.87158,434.03943,77,110,0
433.95728,434.12515,82,110,0
434.043,434.21085,79,110,0
434.12872,434.29657,77,110,0
434.21442,434.3823,82,110,0
434.38586,434.5537,76,110,0
434.47156,434.63943,82,110,0
434.55728,434.72513,79,110,0
434.643,434.81085,76,110,0
434.72873,434.81085,82,110,0
435.1573,435.32513,83,120,0
435.243,435.41086,86,120,0
435.3287,435.49658,89,120,0
435.41443,435.58228,86,120,0
435.50015,435.668,83,120,0
435.58585,435.75372,92,120,0
435.67157,435.83942,91,120,0
435.7573,435.92514,89,120,0
435.843,436.01086,88,120,0
435.9287,436.09656,91,120,0
436.01443,436.18228,89,120,0
436.10013,436.268,88,120,0
436.18585,436.3537,85,120,0
436.27158,436.43942,84,120,0
436.3573,436.52515,82,120,0
436.443,436.61087,85,120,0
436.52872,436.69656,84,120,0
436.61444,436.7823,82,120,0
436.70013,436.868,80,120,0
436.78586,436.868,79,120,0
436.95728,437.12515,77,80,0
437.043,437.21085,80,80,0
437.12872,437.29657,84,80,0
437.21442,437.3823,89,80,0
437.30014,437.468,77,80,0
437.643,437.81085,89,80,0
437.7287,437.89658,77,80,0
437.81442,437.98227,89,80,0
438.1573,438.32513,89,80,0
438.243,438.41086,77,80,0
438.3287,438.49658,89,80,0
438.67157,438.83942,88,100,0
438.7573,438.92514,76,100,0
438.843,439.01086,88,100,0
439.01443,439.18228,77,80,0
439.10013,439.268,80,80,0
439.18585,439.3537,84,80,0
439.27158,439.43942,89,80,0
439.35727,439.52515,77,80,0
439.70013,439.868,77,80,0
439.78586,439.9537,65,80,0
439.87158,440.03943,77,80,0
440.21442,440.3823,77,80,0
440.30014,440.468,65,80,0
440.38586,440.5537,77,80,0
440.7287,440.89658,76,100,0
440.81442,440.98227,64,100,0
440.90015,441.068,76,100,0
441.07156,441.23944,77,80,0
441.1573,441.32513,80,80,0
441.243,441.41086,84,80,0
441.3287,441.49658,89,80,0
441.41443,441.83942,77,80,0
441.7573,441.92514,89,80,0
441.843,442.01086,77,80,0
441.9287,442.09656,89,80,0
442.27158,442.43942,89,80,0
442.35727,442.52515,77,80,0
442.443,442.61084,89,80,0
442.78586,442.9537,88,100,0
442.87158,443.03943,76,100,0
442.95728,443.12515,88,100,0
443.043,443.21085,89,80,0
443.12872,443.29657,84,80,0
443.21442,443.3823,80,80,0
443.30014,443.468,84,79,0
443.38586,443.5537,89,79,0
443.47156,443.63943,84,78,0
443.55728,443.72513,80,78,0
443.643,443.81085,84,78,0
443.7287,443.89658,89,77,0
443.81442,443.98227,84,77,0
443.90015,444.068,80,76,0
443.98584,444.15372,84,76,0
444.07156,444.2394,89,76,0
444.1573,444.32513,84,75,0
444.24298,444.41086,80,75,0
444.3287,444.49658,84,74,0
444.41443,444.58228,89,74,0
444.50015,444.668,84,73,0
444.58585,444.75372,89,73,0
444.67157,444.83942,84,73,0
444.7573,444.92514,89,72,0
444.843,445.01086,84,72,0
444.9287,445.09656,89,71,0
445.01443,445.18228,84,70,0
445.10013,445.268,89,70,0
445.18585,445.3537,84,70,0
445.27158,445.43942,80,70,0
445.35727,445.52515,84,70,0
445.443,445.61084,89,70,0
445.52872,445.69656,84,70,0
445.6144,445.7823,80,70,0
445.70013,445.86798,84,70,0
445.78586,445.9537,89,70,0
445.87155,446.03943,84,70,0
445.95728,446.12515,80,70,0
446.043,446.21085,84,70,0
446.12872,446.29657,89,70,0
446.21442,446.3823,84,70,0
446.30014,446.468,80,70,0
446.38586,446.5537,84,70,0
446.47156,446.63943,89,70,0
446.55728,446.72513,84,70,0
446.643,446.81085,89,70,0
446.7287,446.89658,84,70,0
446.81442,446.98227,80,70,0
446.90015,447.068,84,70,0
446.98584,447.15372,89,70,0
447.07156,447.2394,84,70,0
447.1573,447.32513,89,70,0
447.24298,447.41086,84,70,0
447.3287,447.49655,80,70,0
447.41443,447.58228,84,70,0
447.50015,447.668,89,70,0
447.58585,447.75372,84,70,0
447.67157,447.83942,89,70,0
447.7573,447.92514,84,70,0
447.843,448.01086,80,70,0
447.9287,448.09656,84,70,0
448.01443,448.18228,89,70,0
448.10013,448.268,84,70,0
448.18585,448.3537,89,70,0
448.27158,448.43942,84,70,0
448.35727,448.52515,80,70,0
448.443,448.61084,84,70,0
448.52872,448.69656,89,70,0
448.6144,448.7823,84,70,0
448.70013,448.86798,89,70,0
448.78586,448.9537,84,70,0
448.87155,449.03943,80,70,0
448.95728,449.12512,84,70,0
449.043,449.21085,89,70,0
449.12872,449.29657,84,70,0
449.21442,449.3823,87,70,0
449.30014,449.468,84,70,0
449.38586,449.5537,80,70,0
449.47156,449.63943,84,70,0
449.55728,449.72513,87,70,0
449.643,449.81085,84,70,0
449.7287,449.89658,80,70,0
449.81442,449.98227,84,70,0
449.90015,450.068,87,70,0
449.98584,450.15372,84,70,0
450.07156,450.2394,80,70,0
450.1573,450.32513,84,70,0
450.24298,450.41086,87,70,0
450.3287,450.49655,84,70,0
450.41443,450.58228,80,70,0
450.50012,450.668,84,70,0
450.58585,450.7537,87,70,0
450.67157,450.83942,84,70,0
450.7573,450.92514,87,70,0
450.843,451.01086,84,70,0
450.9287,451.09656,80,70,0
451.01443,451.18228,84,70,0
451.10013,451.268,87,70,0
451.18585,451.3537,84,70,0
451.27158,451.43942,87,70,0
451.35727,451.52515,84,70,0
451.443,451.61084,80,70,0
451.52872,451.69656,84,70,0
451.6144,451.7823,87,70,0
451.70013,451.86798,84,70,0
451.78586,451.9537,87,70,0
451.87155,452.03943,84,70,0
451.95728,452.12512,80,70,0
452.043,452.21085,84,70,0
452.1287,452.29657,87,70,0
452.21442,452.38226,84,70,0
452.30014,452.468,87,70,0
452.38586,452.5537,84,70,0
452.47156,452.63943,80,70,0
452.55728,452.72513,84,70,0
452.643,452.81085,87,70,0
452.7287,452.89658,84,70,0
452.81442,452.98227,87,70,0
452.90015,453.068,84,70,0
452.98584,453.15372,80,70,0
453.07156,453.2394,84,70,0
453.1573,453.32513,87,70,0
453.24298,453.41086,84,70,0
453.3287,453.49655,89,70,0
453.41443,453.58228,85,70,0
453.50012,453.668,80,71,0
453.58585,453.7537,85,71,0
453.67157,453.83942,89,72,0
453.75726,453.92514,85,72,0
453.843,454.01086,89,73,0
453.9287,454.09656,85,73,0
454.01443,454.18228,80,74,0
454.10013,454.268,85,74,0
454.18585,454.3537,89,75,0
454.27158,454.43942,85,75,0
454.35727,454.52515,89,76,0
454.443,454.61084,85,76,0
454.52872,454.69656,80,77,0
454.6144,454.7823,85,77,0
454.70013,454.86798,89,78,0
454.78586,454.9537,85,78,0
454.87155,455.03943,89,79,0
454.95728,455.12512,85,79,0
455.043,455.21085,80,79,0
455.1287,455.29657,85,80,0
455.21442,455.38226,89,80,0
455.30014,455.468,85,81,0
455.38583,455.5537,90,81,0
455.47156,455.63943,84,82,0
455.55728,455.72513,80,82,0
455.643,455.81085,84,83,0
455.7287,455.89658,90,83,0
455.81442,455.98227,84,84,0
455.90015,456.068,90,84,0
455.98584,456.15372,87,85,0
456.07156,456.2394,80,85,0
456.1573,456.32513,87,86,0
456.24298,456.41086,90,86,0
456.3287,456.499,87,87,0
456.41443,456.58722,90,87,0
456.50266,456.67545,84,88,0
456.59088,456.76367,80,88,0
456.67914,456.8572,84,89,0
456.76736,456.95096,90,89,0
456.8611,457.0447,84,89,0
456.95486,457.13846,90,90,0
457.0486,457.2382,87,89,0
457.14236,457.3382,80,87,0
457.24237,457.45438,87,86,0
457.34235,457.60437,90,84,0
457.46063,457.71332,87,82,0
457.61063,457.99277,89,81,0
459.19635,459.62134,77,80,0
459.6249,459.70706,80,80,0
459.71063,460.22134,85,80,0
460.2249,460.6499,89,80,0
460.65347,460.73563,85,80,0
460.7392,461.2499,84,80,0
461.25348,461.6785,87,80,0
461.68207,461.7642,84,80,0
461.76776,462.27847,85,80,0
462.28204,463.30707,80,80,0
463.31064,463.73563,77,80,0
463.7392,463.82135,80,80,0
463.82492,464.33563,85,80,0
464.3392,464.7642,89,82,0
464.76776,464.8499,85,84,0
464.8535,465.3642,84,85,0
465.36777,465.79276,87,87,0
465.79633,465.87848,84,89,0
465.88205,466.39276,83,90,0
466.39633,467.42133,86,92,0
467.4249,467.8499,86,97,0
467.8535,467.93564,83,99,0
467.9392,468.44992,84,100,0
468.4535,469.4785,88,100,0
469.48206,469.90704,91,102,0
469.48206,469.90704,79,102,0
469.9106,469.99277,89,103,0
469.9106,469.99277,77,103,0
469.99634,470.50705,76,103,0
469.99634,470.50705,88,103,0
470.51062,471.5356,79,104,0
470.51062,471.5356,91,104,0
471.53918,471.9642,91,105,0
471.53918,471.9642,79,105,0
471.96777,472.0499,88,106,0
471.96777,472.0499,76,106,0
472.05347,472.5642,89,106,0
472.05347,472.5642,77,106,0
472.56778,473.59277,80,107,0
472.56778,473.59277,92,107,0
473.59634,474.02133,92,109,0
473.59634,474.02133,80,109,0
474.0249,474.10706,89,109,0
474.0249,474.10706,77,109,0
474.19635,474.62134,61,120,0
474.28204,474.70706,58,120,0
474.36777,474.79276,66,120,0
474.71063,474.79276,66,120,0
474.79633,475.22134,61,120,0
474.88205,475.30704,70,120,0
475.2249,475.30704,70,120,0
475.3106,475.73563,66,120,0
475.39633,475.82135,73,120,0
475.7392,475.82135,73,120,0
475.82492,476.2499,70,120,0
475.9106,476.33563,78,120,0
476.25348,476.33563,78,120,0
476.3392,476.7642,73,120,0
476.4249,476.8499,82,120,0
476.76776,476.8499,82,120,0
476.8535,477.27847,78,120,0
476.93918,477.3642,85,120,0
477.28204,477.3642,85,120,0
477.36777,477.79276,82,120,0
477.4535,477.87848,90,120,0
477.88205,478.22134,90,120,0
478.05347,478.22134,94,120,0
477.96777,478.2285,85,120,0
478.3106,478.73563,63,120,0
478.39633,478.82135,60,120,0
478.48206,478.90704,69,120,0
478.82492,478.90704,69,120,0
478.9106,479.33563,63,120,0
478.99634,479.42133,72,120,0
479.3392,479.42133,72,120,0
479.4249,479.8499,69,120,0
479.51062,479.9356,75,120,0
479.8535,479.9356,75,120,0
479.93918,480.3642,72,120,0
480.0249,480.44992,81,120,0
480.36777,480.44992,81,120,0
480.4535,480.87848,75,120,0
480.53918,480.9642,84,120,0
480.88205,480.9642,84,120,0
480.96777,481.39276,81,120,0
481.05347,481.4785,87,120,0
481.39633,481.4785,87,120,0
481.48206,481.90704,84,120,0
481.56775,481.99277,93,120,0
481.99634,482.33563,93,120,0
482.16776,482.33563,96,120,0
482.08206,482.3392,87,120,0
482.4249,482.8499,65,120,0
482.51062,482.9356,61,120,0
482.59634,483.02133,70,120,0
483.0249,483.3642,70,120,0
483.19632,483.3642,73,120,0
483.11063,483.37134,65,120,0
483.45346,483.87848,67,120,0
483.53918,483.9642,64,120,0
483.6249,484.0499,72,120,0
484.05347,484.39276,72,120,0
484.2249,484.39276,76,120,0
484.1392,484.3999,67,120,0
484.48206,484.90704,68,120,0
484.56775,484.99277,65,120,0
484.65347,485.07846,73,120,0
485.08206,485.42133,73,120,0
485.25348,485.42133,77,120,0
485.16776,485.42847,68,120,0
485.51062,485.9356,70,120,0
485.59634,486.02133,67,120,0
485.68204,486.10706,76,120,0
486.11063,486.4499,76,120,0
486.28204,486.4499,79,120,0
486.19632,486.45703,70,120,0
486.53918,486.9642,72,120,0
486.6249,487.0499,68,120,0
486.71063,487.13562,77,120,0
487.05347,487.4785,73,120,0
487.1392,487.56418,70,120,0
487.2249,487.6499,79,120,0
487.56775,487.99277,75,120,0
487.65347,488.07846,72,120,0
487.7392,488.16418,81,120,0
488.08203,488.50705,77,120,0
488.16776,488.59277,73,120,0
488.25348,488.67847,82,120,0
488.59634,489.02133,79,120,0
488.68204,489.10706,76,120,0
488.76776,489.19275,84,120,0
489.11063,489.5356,80,120,0
489.19632,489.62134,77,120,0
489.28204,489.70703,85,120,0
489.6249,490.0499,82,120,0
489.7106,490.13562,79,120,0
489.79633,490.22134,88,120,0
490.1392,490.56418,84,120,0
490.2249,490.6499,80,120,0
490.3106,490.73563,89,120,0
490.65347,491.07846,85,120,0
490.7392,491.16418,82,120,0
490.8249,491.2499,91,120,0
491.16776,491.59277,87,120,0
491.25348,491.67847,84,120,0
491.33917,491.7642,93,120,0
491.68204,492.10706,89,120,0
491.76776,492.19275,85,120,0
491.8535,492.27847,94,120,0
492.19632,492.62134,89,120,0
492.36777,492.62848,94,120,0
492.28204,492.96417,85,120,0
492.88205,493.13205,89,120,0
492.96774,493.21774,85,120,0
493.05347,493.39276,94,120,0
493.1392,493.4785,89,120,0
493.2249,493.4785,85,120,0
493.3106,493.56418,82,120,0
493.39633,493.6499,77,120,0
493.48206,493.73563,73,120,0
493.56775,493.82132,82,120,0
493.65347,493.90704,77,120,0
493.7392,493.99277,73,120,0
493.8249,494.07846,70,120,0
493.9106,494.16418,65,120,0
493.99634,494.2499,61,120,0
494.08203,494.3356,70,120,0
494.16776,494.42133,65,120,0
494.25348,494.50705,61,120,0
494.33917,494.59274,58,120,0
494.4249,494.8499,53,120,0
494.5963,494.8499,58,120,0
494.51062,494.9356,49,120,0
495.19632,495.4499,61,120,0
495.28204,495.5356,65,120,0
495.36777,495.62134,70,120,0
495.45346,495.62134,73,120,0
495.6249,495.79276,73,120,0
495.53918,495.79276,77,120,0
495.7106,495.96417,70,120,0
495.79633,496.0499,73,120,0
495.88205,496.13562,77,120,0
495.96774,496.13562,82,120,0
496.05347,496.30704,85,120,0
496.1392,496.39276,82,120,0
496.22488,496.4785,89,120,0
496.3106,496.56418,85,120,0
496.39633,496.6499,94,120,0
496.48206,496.73563,89,120,0
496.56775,496.73563,85,120,0
496.65347,496.73563,82,120,0
496.99634,497.2499,92,120,0
497.08203,497.3356,89,120,0
497.16776,497.42133,95,120,0
497.25348,497.50705,92,120,0
497.33917,497.59274,89,120,0
497.4249,497.67847,86,120,0
497.51062,497.7642,83,120,0
497.5963,497.84988,80,120,0
497.68204,497.9356,77,120,0
497.76776,498.02133,83,120,0
497.8535,498.10706,80,120,0
497.93918,498.19275,77,120,0
498.0249,498.27847,74,120,0
498.11063,498.3642,71,120,0
498.19632,498.4499,68,120,0
498.28204,498.5356,74,120,0
498.36777,498.62134,71,120,0
498.45346,498.70703,68,120,0
498.53918,498.79276,65,120,0
498.6249,498.87848,62,120,0
498.7106,498.96417,59,120,0
498.79633,499.0499,68,120,0
498.88205,499.13562,65,120,0
498.96774,499.2213,62,120,0
499.05347,499.30704,59,120,0
499.1392,499.39276,56,120,0
499.22488,499.47845,53,120,0
499.8249,500.07846,62,120,0
499.9106,500.16418,65,120,0
499.99634,500.2499,68,120,0
500.08203,500.3356,71,120,0
500.16776,500.42133,74,120,0
500.25348,500.50705,77,120,0
500.33917,500.59274,80,120,0
500.4249,500.67847,83,120,0
500.51062,500.7642,86,120,0
500.5963,500.84988,89,120,0
500.68204,500.84988,92,120,0
500.76776,500.84988,95,120,0
501.11063,501.3642,92,120,0
501.19632,501.4499,89,120,0
501.28204,501.5356,96,120,0
501.36777,501.62134,92,120,0
501.45346,501.70703,89,120,0
501.53918,501.79276,84,120,0
501.6249,501.87848,80,120,0
501.7106,501.96417,77,120,0
501.79633,502.0499,84,120,0
501.88205,502.13562,80,120,0
501.96774,502.2213,77,120,0
502.05347,502.30704,72,120,0
502.1392,502.39276,68,120,0
502.22488,502.47845,65,120,0
502.3106,502.56418,72,120,0
502.39633,502.6499,68,120,0
502.48203,502.7356,65,120,0
502.56775,502.82132,60,120,0
502.65347,502.90704,56,120,0
502.7392,502.99277,53,120,0
502.8249,503.07846,60,120,0
503.4249,503.67847,41,120,0
503.51062,503.7642,44,120,0
503.5963,503.84988,48,120,0
503.68204,503.9356,53,120,0
503.76776,504.02133,56,120,0
503.85345,504.10703,60,120,0
503.93918,504.19275,65,120,0
504.0249,504.27847,68,120,0
504.1106,504.36417,72,120,0
504.19632,504.4499,77,120,0
504.28204,504.5356,80,120,0
504.36777,504.62134,84,120,0
504.45346,504.70703,89,120,0
504.53918,504.79276,92,120,0
504.7106,504.79276,92,120,0
504.6249,504.87848,96,120,0
504.79633,504.96417,89,120,0
504.88205,504.96417,84,120,0
505.22488,505.47845,91,120,0
505.3106,505.56418,88,120,0
505.39633,505.6499,94,120,0
505.48203,505.7356,91,120,0
505.56775,505.82132,88,120,0
505.65347,505.90704,84,120,0
505.73917,505.99277,82,120,0
505.8249,506.07846,79,120,0
505.9106,506.16418,76,120,0
505.99634,506.2499,72,120,0
506.08203,506.3356,70,120,0
506.16776,506.42133,67,120,0
506.25348,506.50705,64,120,0
506.33917,506.59274,60,120,0
506.4249,506.67847,58,120,0
507.0249,507.27847,36,120,0
507.1106,507.36417,40,120,0
507.19632,507.4499,43,120,0
507.28204,507.5356,46,120,0
507.36774,507.62134,48,120,0
507.45346,507.70703,52,120,0
507.53918,507.79276,55,120,0
507.6249,507.87848,58,120,0
507.7106,507.96417,60,120,0
507.79633,508.0499,64,120,0
507.88205,508.13562,67,119,0
507.96774,508.2213,70,119,0
508.05347,508.30704,72,118,0
508.1392,508.30704,76,117,0
508.22488,508.47845,79,117,0
508.3106,508.47845,76,116,0
508.39633,508.6499,72,116,0
508.48203,508.6499,76,115,0
508.56775,508.82132,79,114,0
508.65347,508.90704,76,114,0
508.8249,508.99274,79,112,0
508.73917,509.07846,82,113,0
508.9106,510.27847,76,112,0
508.9963,510.36417,79,111,0
509.08203,510.4499,82,111,0
510.62488,510.79276,76,80,0
510.62488,510.79276,79,80,0
510.79633,510.96417,76,80,0
510.79633,510.96417,79,80,0
510.96774,511.13562,79,80,0
510.96774,511.30704,76,80,0
511.1392,511.47845,79,80,0
511.1392,511.47845,79,80,0
511.1392,512.2505,82,80,0
512.85596,513.0819,64,80,0
512.85596,513.0819,67,80,0
513.08673,513.3127,67,80,0
513.08673,513.3127,64,80,0
513.3175,513.54346,67,80,0
513.3175,513.54346,64,80,0
513.5482,515.0548,70,80,0
513.5482,515.0548,67,80,0
518.1855,518.91986,76,80,0
518.1855,518.91986,70,80,0
518.1855,518.91986,67,80,0
518.9355,519.66986,76,80,0
518.9355,519.66986,70,80,0
518.9355,519.66986,67,80,0
519.6855,520.6647,76,80,0
519.6855,520.6647,70,80,0
519.6855,520.6647,67,80,0
520.6855,523.7038,67,80,0
520.6855,523.7038,70,80,0
520.6855,523.7038,76,80,0
523.7069,523.85376,88,127,0
523.7069,523.85376,84,127,0
523.7069,523.85376,82,127,0
523.7069,523.85376,79,127,0
523.7069,523.85376,76,127,0
523.85693,524.0038,88,127,0
523.85693,524.0038,84,127,0
523.85693,524.0038,82,127,0
523.85693,524.0038,79,127,0
523.85693,524.0038,76,127,0
524.0069,524.1538,88,127,0
524.0069,524.1538,84,127,0
524.0069,524.1538,82,127,0
524.0069,524.1538,79,127,0
524.0069,524.1538,76,127,0
524.1569,524.4538,89,127,0
524.1569,524.4538,84,127,0
524.1569,524.4538,80,127,0
524.1569,524.4538,77,127,0
525.5069,525.8788,68,80,0
525.8819,525.9538,72,80,0
525.9569,526.4038,77,80,0
526.4069,526.7788,80,80,0
526.7819,526.85376,77,80,0
526.85693,527.3038,76,80,0
527.3069,527.6788,79,80,0
527.6819,527.7538,76,80,0
527.7569,528.2038,77,80,0
528.2069,529.10376,72,80,0
529.10693,529.47876,80,80,0
529.10693,529.47876,68,80,0
529.48193,529.5538,84,80,0
529.48193,529.5538,72,80,0
529.5569,530.0038,89,80,0
529.5569,530.0038,77,80,0
530.0069,530.3788,92,82,0
530.0069,530.3788,80,82,0
530.3819,530.4538,89,84,0
530.3819,530.4538,77,84,0
530.4569,530.9038,88,85,0
530.4569,530.9038,76,85,0
530.9069,531.2788,91,87,0
530.9069,531.2788,79,87,0
531.2819,531.35376,88,89,0
531.2819,531.35376,76,89,0
531.35693,531.8038,90,110,0
531.35693,531.8038,78,110,0
531.8069,532.7038,72,92,0
531.8069,532.7038,84,92,0
532.7069,533.0788,87,97,0
532.7069,533.0788,75,97,0
533.0819,533.1538,84,99,0
533.0819,533.1538,72,99,0
533.1569,533.60376,89,100,0
533.1569,533.60376,77,100,0
533.60693,534.5038,70,100,0
533.60693,534.5038,82,100,0
534.5069,534.8788,85,100,0
534.5069,534.8788,73,100,0
534.8819,534.9538,82,100,0
534.8819,534.9538,70,100,0
534.9569,535.4038,80,100,0
534.9569,535.4038,68,100,0
535.4069,535.7788,84,100,0
535.4069,535.7788,72,100,0
535.7819,535.85376,80,100,0
535.7819,535.85376,68,100,0
535.85693,536.3038,79,100,0
535.85693,536.3038,67,100,0
536.3069,536.6788,91,100,0
536.3069,536.6788,79,100,0
536.6819,536.7538,88,100,0
536.6819,536.7538,76,100,0
536.7569,537.2038,90,120,0
536.7569,537.2038,78,120,0
537.2069,538.10376,72,100,0
537.2069,538.10376,84,100,0
538.10693,538.47876,87,100,0
538.10693,538.47876,75,100,0
538.48193,538.5538,84,100,0
538.48193,538.5538,72,100,0
538.5569,539.0038,89,100,0
538.5569,539.0038,77,100,0
539.0069,539.9038,70,101,0
539.0069,539.9038,82,101,0
539.9069,540.2788,85,103,0
539.9069,540.2788,73,103,0
540.2819,540.35376,82,104,0
540.2819,540.35376,70,104,0
540.35693,540.8038,80,104,0
540.35693,540.8038,68,104,0
540.8069,541.1788,84,106,0
540.8069,541.1788,72,106,0
541.1819,541.2538,80,107,0
541.1819,541.2538,68,107,0
541.2569,541.7038,79,107,0
541.2569,541.7038,67,107,0
541.7069,542.0038,84,108,0
541.7069,542.0038,72,108,0
542.0069,542.1538,84,109,0
542.0069,542.1538,72,109,0
542.1569,542.2968,72,110,0
542.1569,542.2968,84,110,0
542.29974,542.43964,72,110,0
542.29974,542.43964,68,110,0
542.29974,542.43964,65,110,0
542.29974,542.43964,60,110,0
542.4426,542.5825,72,110,0
542.4426,542.5825,68,110,0
542.4426,542.5825,65,110,0
542.4426,542.5825,60,110,0
542.58545,543.01105,72,120,0
542.58545,543.01105,68,120,0
542.58545,543.01105,65,120,0
542.58545,543.01105,60,120,0
543.1569,543.2968,72,110,0
543.1569,543.2968,67,110,0
543.1569,543.2968,64,110,0
543.1569,543.2968,60,110,0
543.29974,543.43964,72,110,0
543.29974,543.43964,67,110,0
543.29974,543.43964,64,110,0
543.29974,543.43964,60,110,0
543.4426,543.8682,72,120,0
543.4426,543.8682,70,120,0
543.4426,543.8682,67,120,0
543.4426,543.8682,60,120,0
544.01404,544.15393,72,110,0
544.01404,544.15393,68,110,0
544.01404,544.15393,65,110,0
544.01404,544.15393,60,110,0
544.1569,544.29675,72,110,0
544.1569,544.29675,68,110,0
544.1569,544.29675,65,110,0
544.1569,544.29675,60,110,0
544.29974,544.72534,72,120,0
544.29974,544.72534,68,120,0
544.29974,544.72534,65,120,0
544.29974,544.72534,60,120,0
544.72833,544.8682,65,110,0
544.8712,545.01105,72,110,0
544.8712,545.01105,67,110,0
544.8712,545.01105,64,110,0
544.8712,545.01105,60,110,0
545.01404,545.15393,72,110,0
545.01404,545.15393,67,110,0
545.01404,545.15393,64,110,0
545.01404,545.15393,60,110,0
545.1569,545.5825,72,120,0
545.1569,545.5825,70,120,0
545.1569,545.5825,67,120,0
545.1569,545.5825,60,120,0
545.72833,545.8682,72,110,0
545.72833,545.8682,68,110,0
545.72833,545.8682,65,110,0
545.72833,545.8682,60,110,0
546.01404,546.15393,73,110,0
546.01404,546.15393,67,110,0
546.01404,546.15393,65,110,0
546.01404,546.15393,61,110,0
546.29974,546.43964,73,110,0
546.29974,546.43964,67,110,0
546.29974,546.43964,65,110,0
546.29974,546.43964,61,110,0
546.58545,546.72534,72,110,0
546.58545,546.72534,68,110,0
546.58545,546.72534,65,110,0
546.58545,546.72534,60,110,0
546.87115,547.01105,72,110,0
546.87115,547.01105,67,110,0
546.87115,547.01105,64,110,0
546.87115,547.01105,60,110,0
547.1569,547.29675,72,110,0
547.1569,547.29675,67,110,0
547.1569,547.29675,64,110,0
547.1569,547.29675,60,110,0
547.29974,547.43964,72,110,0
547.29974,547.43964,60,110,0
547.29974,547.43964,68,110,0
547.29974,547.43964,65,110,0
547.4426,547.5825,60,110,0
547.4426,547.5825,56,110,0
547.4426,547.5825,53,110,0
547.4426,547.5825,48,110,0
547.58545,547.72534,60,110,0
547.58545,547.72534,56,110,0
547.58545,547.72534,53,110,0
547.58545,547.72534,48,110,0
547.72833,548.15393,60,120,0
547.72833,548.15393,56,120,0
547.72833,548.15393,53,120,0
547.72833,548.15393,48,120,0
548.29974,548.43964,60,110,0
548.29974,548.43964,55,110,0
548.29974,548.43964,52,110,0
548.29974,548.43964,48,110,0
548.4426,548.5825,60,110,0
548.4426,548.5825,55,110,0
548.4426,548.5825,52,110,0
548.4426,548.5825,48,110,0
548.58545,549.01105,60,120,0
548.58545,549.01105,58,120,0
548.58545,549.01105,55,120,0
548.58545,549.01105,48,120,0
549.1569,549.29675,60,110,0
549.1569,549.29675,56,110,0
549.1569,549.29675,53,110,0
549.1569,549.29675,48,110,0
549.29974,549.43964,60,110,0
549.29974,549.43964,56,110,0
549.29974,549.43964,53,110,0
549.29974,549.43964,48,110,0
549.4426,549.8682,60,120,0
549.4426,549.8682,56,120,0
549.4426,549.8682,53,120,0
549.4426,549.8682,48,120,0
549.87115,550.01105,53,110,0
550.01404,550.15393,60,110,0
550.01404,550.15393,55,110,0
550.01404,550.15393,52,110,0
550.01404,550.15393,48,110,0
550.1569,550.29675,60,110,0
550.1569,550.29675,55,110,0
550.1569,550.29675,52,110,0
550.1569,550.29675,48,110,0
550.29974,550.72534,60,120,0
550.29974,550.72534,58,120,0
550.29974,550.72534,55,120,0
550.29974,550.72534,48,120,0
550.87115,551.01105,60,110,0
550.87115,551.01105,56,110,0
550.87115,551.01105,53,110,0
550.87115,551.01105,48,110,0
551.1569,551.29675,61,110,0
551.1569,551.29675,55,110,0
551.1569,551.29675,53,110,0
551.1569,551.29675,49,110,0
551.4426,551.5825,61,110,0
551.4426,551.5825,55,110,0
551.4426,551.5825,53,110,0
551.4426,551.5825,49,110,0
551.72833,551.8682,60,110,0
551.72833,551.8682,56,110,0
551.72833,551.8682,53,110,0
551.72833,551.8682,48,110,0
552.01404,552.15393,60,110,0
552.01404,552.15393,55,110,0
552.01404,552.15393,52,110,0
552.01404,552.15393,48,110,0
552.29974,552.43964,60,110,0
552.29974,552.43964,55,110,0
552.29974,552.43964,52,110,0
552.29974,552.43964,48,110,0
552.58545,552.72534,72,110,0
552.58545,552.72534,68,110,0
552.58545,552.72534,65,110,0
552.58545,552.72534,60,110,0
552.87115,553.01105,73,110,0
552.87115,553.01105,67,110,0
552.87115,553.01105,65,110,0
552.87115,553.01105,61,110,0
553.1569,553.29675,73,110,0
553.1569,553.29675,67,110,0
553.1569,553.29675,65,110,0
553.1569,553.29675,61,110,0
553.4426,553.58246,72,110,0
553.4426,553.58246,68,110,0
553.4426,553.58246,65,110,0
553.4426,553.58246,60,110,0
553.72833,553.8682,72,110,0
553.72833,553.8682,67,110,0
553.72833,553.8682,64,110,0
553.72833,553.8682,60,110,0
554.01404,554.15393,72,110,0
554.01404,554.15393,67,110,0
554.01404,554.15393,64,110,0
554.01404,554.15393,60,110,0
554.29974,554.43964,84,120,0
554.29974,554.43964,80,120,0
554.29974,554.43964,77,120,0
554.29974,554.43964,72,120,0
554.58545,554.72534,85,120,0
554.58545,554.72534,79,120,0
554.58545,554.72534,77,120,0
554.58545,554.72534,73,120,0
554.87115,555.01105,85,120,0
554.87115,555.01105,79,120,0
554.87115,555.01105,77,120,0
554.87115,555.01105,73,120,0
555.1569,555.29675,84,120,0
555.1569,555.29675,80,120,0
555.1569,555.29675,77,120,0
555.1569,555.29675,72,120,0
555.4426,555.58246,84,120,0
555.4426,555.58246,79,120,0
555.4426,555.58246,76,120,0
555.4426,555.58246,72,120,0
555.75214,555.9357,84,120,0
555.75214,555.9357,79,120,0
555.75214,555.9357,76,120,0
555.75214,555.9357,72,120,0
555.93964,556.09424,60,110,0
556.01855,556.17316,56,105,0
556.09753,556.25214,60,99,0
556.17645,556.33105,56,93,0
556.25543,556.41003,60,87,0
556.33435,556.48895,56,81,0
556.4133,556.56793,60,80,0
556.49225,556.64685,56,80,0
556.5712,556.7258,60,80,0
556.65015,556.80475,56,80,0
556.7291,556.8837,60,80,0
556.80804,556.96265,56,80,0
556.887,557.0416,60,80,0
556.96594,557.12054,56,80,0
557.04486,557.1995,60,79,0
557.12384,557.27844,56,79,0
557.20276,557.35736,60,79,0
557.28174,557.43634,56,79,0
557.36066,557.51526,60,79,0
557.43964,557.59424,56,79,0
557.51855,557.67316,60,79,0
557.59753,557.75214,56,79,0
557.67645,557.83105,60,78,0
557.75543,557.91003,56,78,0
557.83435,557.91003,56,78,0
557.83435,557.98895,60,78,0
557.9133,558.06793,56,78,0
557.99225,558.14685,60,78,0
558.0712,558.2258,56,78,0
558.15015,558.30475,60,78,0
558.2291,558.3837,56,78,0
558.30804,558.46265,60,77,0
558.38696,558.5416,56,77,0
558.46594,558.62054,60,77,0
558.54486,558.69946,56,77,0
558.62384,558.77844,60,77,0
558.70276,558.85736,56,77,0
558.78174,558.93634,60,77,0
558.86066,559.01526,56,77,0
558.93964,559.09424,60,76,0
559.01855,559.17316,56,76,0
559.09753,559.25214,60,76,0
559.17645,559.33105,56,76,0
559.25543,559.41003,60,76,0
559.33435,559.48895,56,76,0
559.4133,559.56793,60,76,0
559.49225,559.64685,56,76,0
559.5712,559.7258,60,75,0
559.65015,559.80475,56,75,0
559.7291,559.8837,60,75,0
559.80804,559.96265,56,75,0
559.88696,560.0416,60,75,0
559.96594,560.12054,56,75,0
560.04486,560.19946,60,75,0
560.12384,560.27844,56,74,0
560.20276,560.35736,68,74,0
560.28174,560.43634,65,74,0
560.36066,560.51526,68,74,0
560.43964,560.59424,65,74,0
560.51855,560.67316,68,74,0
560.59753,560.75214,65,74,0
560.67645,560.83105,72,74,0
560.75543,560.91003,68,73,0
560.83435,560.98895,72,73,0
560.9133,561.06793,68,73,0
560.99225,561.14685,72,73,0
561.0712,561.2258,68,73,0
561.15015,561.30475,72,73,0
561.22906,561.3837,68,73,0
561.30804,561.46265,72,73,0
561.38696,561.54156,68,72,0
561.46594,561.62054,72,72,0
561.54486,561.69946,68,72,0
561.62384,561.77844,72,72,0
561.70276,561.85736,68,72,0
561.78174,561.93634,72,72,0
561.86066,562.01526,68,72,0
561.93964,562.09424,72,72,0
562.01855,562.17316,68,71,0
562.09753,562.25214,72,71,0
562.17645,562.33105,68,71,0
562.25543,562.41003,72,71,0
562.33435,562.48895,68,71,0
562.4133,562.56793,72,71,0
562.49225,562.64685,68,71,0
562.57117,562.7258,72,70,0
562.65015,562.80475,68,70,0
562.72906,562.88367,72,69,0
562.80804,562.96265,68,68,0
562.88696,563.04156,72,67,0
562.96594,563.12054,68,66,0
563.04486,563.19946,72,66,0
563.12384,563.27844,68,65,0
563.20276,563.35736,72,64,0
563.28174,563.43634,68,63,0
563.36066,563.51526,72,62,0
563.43964,563.59424,68,61,0
563.51855,563.67316,72,60,0
563.59753,563.75336,68,60,0
563.67645,563.8345,72,60,0
563.7567,563.916,68,60,0
563.8378,563.9993,72,60,0
563.9195,564.08264,68,60,0
564.0028,564.1701,72,60,0
564.0861,564.2583,68,60,0
564.17377,564.34906,72,60,0
564.26196,564.4428,68,60,0
564.35297,564.5371,72,60,0
564.4467,564.6371,68,60,0
564.54126,564.7371,72,60,0
564.64124,564.848,68,60,0
564.7413,564.9634,72,60,0
564.8528,565.08575,68,60,0
564.9682,565.2221,72,60,0
565.09143,565.35846,68,60,0
565.2278,565.52386,72,60,0
565.36414,565.69055,68,60,0
565.5308,565.885,72,60,0
565.6975,566.0993,68,60,0
566.1082,566.54236,68,60,0
565.8939,566.54236,72,60,0
566.5502,571.04236,68,60,0
566.5502,571.04236,72,60,0
571.9877,572.35486,65,1,0
0.0,0.6197917,36,70,0
0.625,0.7447917,32,70,0
0.75,2.9947917,29,70,0
3.0,3.6197917,32,70,0
3.625,3.7447917,36,70,0
3.75,4.4947915,41,70,0
4.5,5.1197915,44,70,0
5.125,5.2447915,48,70,0
5.25,5.9947915,53,70,0
6.0,6.7447915,56,70,0
6.75,8.244792,60,70,0
6.75,8.244792,55,70,0
6.75,8.244792,52,70,0
8.25,9.744792,59,70,0
8.25,9.744792,56,70,0
8.25,9.744792,53,70,0
9.75,10.244792,60,70,0
9.75,10.244792,55,70,0
9.75,10.244792,52,70,0
12.0,12.619792,37,70,0
12.625,12.744792,34,70,0
12.75,14.994792,30,70,0
15.0,15.619792,34,70,0
15.625,15.744792,37,70,0
15.75,16.494791,42,70,0
16.5,17.119791,46,70,0
17.125,17.244791,49,70,0
17.25,17.994791,54,70,0
18.0,18.744791,58,70,0
18.75,20.244791,61,70,0
18.75,20.244791,56,70,0
18.75,20.244791,53,70,0
20.25,21.744791,60,70,0
20.25,21.744791,57,70,0
20.25,21.744791,54,70,0
21.75,22.244791,61,70,0
21.75,22.244791,56,70,0
21.75,22.244791,53,70,0
24.75,26.244791,67,70,0
24.75,26.244791,64,70,0
26.25,27.744791,71,80,0
26.25,27.744791,68,80,0
26.25,27.744791,65,80,0
27.75,28.244791,67,70,0
27.75,28.244791,64,70,0
28.5,28.744791,37,70,0
28.75,28.994791,37,70,0
29.0,29.244791,37,70,0
29.25,29.744791,36,70,0
30.75,32.244793,73,70,0
30.75,32.244793,70,70,0
30.75,32.244793,67,70,0
32.25,33.744793,73,90,0
32.25,33.744793,70,90,0
32.25,33.744793,68,90,0
33.75,34.244793,73,70,0
33.75,34.244793,70,70,0
33.75,34.244793,67,70,0
34.5,34.744793,37,70,0
34.75,34.994793,37,70,0
35.0,35.244793,37,70,0
35.25,35.82639,36,70,0
38.3,38.691666,37,70,0
38.699997,39.091663,37,70,0
39.1,39.58958,37,70,0
39.6,41.084373,36,70,0
44.683327,44.846523,31,110,0
44.766663,44.929855,34,110,0
44.849995,45.013187,40,110,0
44.933327,45.096523,43,110,0
45.016663,45.179855,46,110,0
45.099995,45.263187,49,110,0
45.183327,45.346523,52,110,0
45.266663,45.346523,55,110,0
45.349995,45.513187,58,110,0
45.849995,46.013187,41,110,0
45.849995,46.013187,29,110,0
46.349995,47.865925,40,80,0
46.349995,47.865925,48,80,0
47.8696,48.3071,36,70,0
48.310776,48.395336,32,70,0
48.39901,48.594845,29,120,0
48.79901,49.194843,41,120,0
48.79901,49.194843,36,120,0
48.79901,49.194843,32,120,0
48.79901,49.194843,29,120,0
49.199013,49.594845,41,120,0
49.199013,49.594845,36,120,0
49.199013,49.594845,32,120,0
49.199013,49.594845,29,120,0
49.59901,49.994846,41,120,0
49.59901,49.994846,36,120,0
49.59901,49.994846,32,120,0
49.59901,49.994846,29,120,0
49.999012,50.394844,41,120,0
49.999012,50.394844,36,120,0
49.999012,50.394844,32,120,0
49.999012,50.394844,29,120,0
50.39901,50.794846,41,120,0
50.39901,50.794846,36,120,0
50.39901,50.794846,32,120,0
50.39901,50.794846,29,120,0
50.79901,52.594845,29,120,0
50.79901,52.594845,32,120,0
50.79901,52.594845,36,120,0
50.79901,52.594845,41,120,0
52.59901,53.094845,32,80,0
53.09901,53.194843,36,80,0
53.199013,53.794846,41,80,0
53.79901,54.294846,44,80,0
54.29901,54.394844,48,80,0
54.39901,54.994846,53,80,0
54.999012,55.594845,41,80,0
55.999012,56.394844,48,120,0
55.999012,56.394844,43,120,0
55.999012,56.394844,40,120,0
56.39901,56.794846,48,120,0
56.39901,56.794846,43,120,0
56.39901,56.794846,40,120,0
56.79901,57.194843,48,120,0
56.79901,57.194843,43,120,0
56.79901,57.194843,40,120,0
57.199013,57.594845,48,120,0
57.199013,57.594845,43,120,0
57.199013,57.594845,40,120,0
57.59901,57.994846,48,120,0
57.59901,57.994846,43,120,0
57.59901,57.994846,40,120,0
57.999012,59.194843,67,80,0
57.999012,59.194843,64,80,0
59.199013,60.394844,68,80,0
59.199013,60.394844,65,80,0
60.79901,61.194843,48,120,0
60.79901,61.194843,43,120,0
60.79901,61.194843,40,120,0
61.199013,61.594845,48,120,0
61.199013,61.594845,43,120,0
61.199013,61.594845,40,120,0
61.59901,61.994846,48,120,0
61.59901,61.994846,43,120,0
61.59901,61.994846,40,120,0
61.999012,62.394844,48,120,0
61.999012,62.394844,43,120,0
61.999012,62.394844,40,120,0
62.39901,62.794846,48,120,0
62.39901,62.794846,43,120,0
62.39901,62.794846,40,120,0
62.79901,63.994846,67,80,0
62.79901,63.994846,64,80,0
63.999012,65.362206,63,80,0
63.999012,65.362206,67,80,0
65.36568,65.52887,75,80,0
65.53234,65.69554,75,80,0
65.69901,65.862206,75,80,0
65.86568,66.02887,75,80,0
66.03234,66.19554,75,80,0
66.19901,66.362206,75,80,0
66.36568,66.52887,75,80,0
66.53234,66.69554,75,80,0
66.69901,66.862206,75,80,0
66.86568,67.02887,75,80,0
67.03234,67.19553,75,80,0
67.36568,67.52887,75,80,0
67.53234,67.69553,75,80,0
67.69901,67.862206,71,80,0
67.69901,67.862206,68,80,0
67.86568,68.02887,75,80,0
68.03234,68.19553,75,80,0
68.199005,68.362206,75,80,0
68.36568,68.52887,75,80,0
68.53234,68.69553,75,80,0
68.699005,68.862206,75,80,0
68.86568,69.02887,75,80,0
69.03234,69.19553,75,80,0
69.36568,69.52887,75,80,0
69.53234,69.69553,75,80,0
69.699005,70.02887,71,80,0
69.699005,70.02887,68,80,0
69.86568,70.02887,75,80,0
70.03234,70.19553,75,80,0
70.199005,70.3622,71,80,0
70.199005,70.3622,68,80,0
70.36567,70.52887,75,80,0
70.53234,70.69553,75,80,0
70.699005,70.8622,71,80,0
70.699005,70.8622,68,80,0
70.86567,71.02887,75,80,0
71.03234,71.19553,75,80,0
71.199005,71.3622,70,80,0
71.199005,71.3622,67,80,0
71.36567,71.52887,63,80,0
71.53234,71.69553,63,80,0
71.699005,71.8622,63,80,0
71.86567,72.02886,63,80,0
72.03234,72.19553,63,80,0
72.199005,72.3622,63,80,0
72.36567,72.52886,63,80,0
72.53234,72.69553,63,80,0
72.699005,72.8622,63,80,0
72.86567,73.02886,63,80,0
73.03233,73.19553,63,80,0
73.199005,73.3622,63,80,0
73.36567,73.52886,63,80,0
73.53233,73.69553,63,80,0
73.699005,73.8622,63,80,0
73.86567,74.02886,63,80,0
74.03233,74.19553,63,80,0
74.199005,74.3622,63,80,0
74.36567,74.52886,63,80,0
74.53233,74.695526,63,80,0
74.699005,74.8622,61,80,0
74.699005,74.8622,58,80,0
74.86567,75.02886,63,80,0
75.03233,75.195526,63,80,0
75.199005,75.3622,63,80,0
75.36567,75.52886,63,80,0
75.53233,75.695526,63,80,0
75.699,75.8622,63,80,0
75.86567,76.02886,63,80,0
76.03233,76.195526,63,80,0
76.199,76.3622,63,80,0
76.36567,76.52886,63,80,0
76.53233,76.695526,63,80,0
76.699,76.8622,59,80,0
76.699,76.8622,56,80,0
76.86567,77.02886,63,80,0
77.03233,77.195526,63,80,0
77.36567,77.52886,63,80,0
77.53233,77.695526,63,80,0
77.699,77.86219,59,80,0
77.699,77.86219,56,80,0
77.86567,78.02886,63,80,0
78.03233,78.195526,63,80,0
78.199,78.36219,59,80,0
78.199,78.36219,56,80,0
78.36566,78.52886,63,80,0
78.53233,78.695526,63,80,0
78.699,78.86219,59,80,0
78.699,78.86219,56,80,0
78.86566,79.02886,63,80,0
79.03233,79.195526,63,80,0
79.36566,79.52886,63,80,0
79.53233,79.695526,63,80,0
79.699,79.86219,58,80,0
79.699,79.86219,55,80,0
79.86566,80.028854,63,80,0
80.03233,80.195526,63,80,0
80.36566,80.528854,63,80,0
80.532326,80.695526,63,79,0
80.699,80.86219,57,79,0
80.699,80.86219,54,79,0
80.86566,81.028854,63,78,0
81.032326,81.195526,63,78,0
81.36566,81.528854,63,76,0
81.532326,81.695526,63,76,0
81.699,81.86219,56,75,0
81.699,81.86219,53,75,0
81.86566,82.028854,63,75,0
82.032326,82.19552,63,74,0
82.36566,82.528854,63,73,0
82.532326,82.69552,63,72,0
82.699,82.86219,55,72,0
82.699,82.86219,52,72,0
82.86566,83.028854,63,71,0
83.032326,83.19552,63,71,0
83.36566,83.528854,51,70,0
83.532326,83.69552,51,70,0
83.69899,83.86219,51,70,0
83.86566,84.028854,51,70,0
84.032326,84.19552,51,70,0
84.19899,84.36219,51,70,0
84.36566,84.528854,51,70,0
84.532326,84.69552,51,70,0
84.69899,84.86218,51,70,0
84.86566,85.028854,51,70,0
85.032326,85.19552,51,70,0
85.36566,85.528854,39,70,0
85.532326,85.69552,39,70,0
85.69899,85.86218,39,70,0
85.865654,86.028854,39,70,0
86.032326,86.19552,39,70,0
86.19899,86.36218,39,70,0
86.365654,86.528854,39,70,0
86.532326,86.69552,39,70,0
86.69899,86.86218,39,70,0
86.865654,87.028854,39,70,0
87.032326,87.19552,39,70,0
87.19899,87.39482,32,70,0
87.39899,87.594826,44,70,0
87.39899,87.594826,39,70,0
87.39899,87.594826,36,70,0
87.59899,87.79482,32,70,0
87.79899,87.99482,44,70,0
87.79899,87.99482,39,70,0
87.79899,87.99482,36,70,0
87.99899,88.194824,32,70,0
88.19899,88.39482,44,70,0
88.19899,88.39482,39,70,0
88.19899,88.39482,36,70,0
88.39899,88.594826,32,70,0
88.59899,88.79482,44,70,0
88.59899,88.79482,39,70,0
88.59899,88.79482,36,70,0
88.79899,88.99482,32,70,0
88.99899,89.194824,44,70,0
88.99899,89.194824,39,70,0
88.99899,89.194824,36,70,0
89.19899,89.39482,32,70,0
89.39899,89.594826,44,70,0
89.39899,89.594826,39,70,0
89.39899,89.594826,36,70,0
89.59899,89.79482,32,70,0
89.79899,89.99482,44,70,0
89.79899,89.99482,39,70,0
89.79899,89.99482,36,70,0
89.99899,90.194824,32,70,0
90.19899,90.39482,44,70,0
90.19899,90.39482,39,70,0
90.19899,90.39482,36,70,0
90.39899,90.594826,32,70,0
90.59899,90.79482,44,70,0
90.59899,90.79482,39,70,0
90.59899,90.79482,36,70,0
90.79899,90.99482,34,70,0
90.99899,91.194824,46,70,0
90.99899,91.194824,39,70,0
90.99899,91.194824,37,70,0
91.19899,91.39482,34,70,0
91.39899,91.594826,46,70,0
91.39899,91.594826,39,70,0
91.39899,91.594826,37,70,0
91.59899,91.79482,34,70,0
91.79899,91.99482,46,70,0
91.79899,91.99482,39,70,0
91.79899,91.99482,37,70,0
91.99899,92.194824,36,70,0
92.19899,92.39482,48,70,0
92.19899,92.39482,44,70,0
92.19899,92.39482,39,70,0
92.39899,92.594826,36,70,0
92.59899,92.79482,48,70,0
92.59899,92.79482,44,70,0
92.59899,92.79482,39,70,0
92.79899,92.99482,36,70,0
92.99899,93.194824,48,70,0
92.99899,93.194824,44,70,0
92.99899,93.194824,39,70,0
93.19899,93.39482,36,70,0
93.39899,93.594826,48,70,0
93.39899,93.594826,44,70,0
93.39899,93.594826,39,70,0
93.59899,93.79482,36,70,0
93.79899,93.99482,44,70,0
93.99899,94.194824,37,70,0
94.19899,94.39482,44,70,0
94.39899,94.594826,39,70,0
94.59899,94.79482,44,70,0
94.79899,94.99482,39,70,0
94.99899,95.194824,44,70,0
95.19899,95.39482,39,70,0
95.39899,95.594826,44,70,0
95.59899,95.79482,39,70,0
95.79899,95.99482,43,70,0
95.99899,96.194824,39,70,0
96.19899,96.39482,43,70,0
96.39899,96.594826,39,70,0
96.59899,96.79482,43,70,0
96.79899,96.99482,44,70,0
96.99899,97.194824,56,70,0
96.99899,97.194824,51,70,0
96.99899,97.194824,48,70,0
97.19899,97.39482,44,71,0
97.39899,97.594826,56,72,0
97.39899,97.594826,51,72,0
97.39899,97.594826,48,72,0
97.59899,97.79482,44,73,0
97.79899,97.99482,56,74,0
97.79899,97.99482,51,74,0
97.79899,97.99482,48,74,0
97.99899,98.194824,44,75,0
98.19899,98.39482,56,76,0
98.19899,98.39482,51,76,0
98.19899,98.39482,48,76,0
98.39899,98.594826,44,76,0
98.59899,98.79482,56,77,0
98.59899,98.79482,51,77,0
98.59899,98.79482,48,77,0
98.79899,98.99482,44,78,0
98.99899,99.194824,56,79,0
98.99899,99.194824,51,79,0
98.99899,99.194824,48,79,0
99.19899,99.39482,44,80,0
99.39899,99.594826,56,80,0
99.39899,99.594826,51,80,0
99.39899,99.594826,48,80,0
99.59899,99.79482,44,80,0
99.79899,99.99482,56,80,0
99.79899,99.99482,51,80,0
99.79899,99.99482,48,80,0
99.99899,100.194824,44,80,0
100.19899,100.39482,56,80,0
100.19899,100.39482,51,80,0
100.19899,100.39482,48,80,0
100.39899,100.594826,46,80,0
100.59899,100.79482,58,80,0
100.59899,100.79482,51,80,0
100.59899,100.79482,49,80,0
100.79899,100.99482,46,80,0
100.99899,101.194824,58,80,0
100.99899,101.194824,51,80,0
100.99899,101.194824,49,80,0
101.19899,101.39482,46,80,0
101.39899,101.594826,58,80,0
101.39899,101.594826,51,80,0
101.39899,101.594826,49,80,0
101.59899,103.99482,48,80,0
101.59899,103.99482,51,80,0
101.59899,103.99482,56,80,0
101.59899,103.99482,60,80,0
103.99899,104.594826,56,110,0
103.99899,106.39482,49,110,0
103.99899,106.39482,52,110,0
104.59899,106.39482,57,110,0
106.39899,108.79482,51,80,0
106.39899,108.79482,56,80,0
106.39899,108.79482,59,80,0
108.79899,111.194824,51,70,0
108.79899,111.194824,55,70,0
108.79899,111.194824,61,70,0
122.59899,122.79482,39,70,0
122.79899,122.99482,37,70,0
122.99899,123.194824,35,70,0
123.19899,123.39482,34,70,0
123.39899,123.594826,35,70,0
123.59899,123.79482,37,70,0
123.79899,123.99482,39,70,0
123.99899,124.194824,40,70,0
124.19899,124.39482,39,70,0
124.39899,124.594826,37,70,0
124.59899,124.79482,35,70,0
124.79899,124.99482,34,70,0
124.99899,125.194824,39,70,0
125.19899,125.39482,37,70,0
125.39899,125.594826,39,70,0
125.59899,125.762184,32,110,0
125.68232,125.84552,39,110,0
125.765656,125.92885,44,110,0
125.84899,126.012184,39,110,0
125.93232,126.09552,32,110,0
126.015656,126.17885,39,110,0
126.09899,126.262184,32,110,0
126.18232,126.34552,39,110,0
126.265656,126.42885,32,110,0
126.34899,126.512184,39,110,0
126.43232,126.59552,32,110,0
126.515656,126.67885,39,110,0
126.59899,126.762184,32,110,0
126.68232,126.84551,39,110,0
126.765656,126.92885,44,110,0
126.84899,127.012184,39,110,0
126.93232,127.09551,32,110,0
127.015656,127.17885,39,110,0
127.09899,127.262184,32,110,0
127.18232,127.34551,39,110,0
127.265656,127.42885,32,110,0
127.34899,127.512184,39,110,0
127.43232,127.59551,32,110,0
127.515656,127.59551,39,110,0
127.59898,127.762184,32,110,0
127.68232,127.84551,40,110,0
127.765656,127.92885,44,110,0
127.84898,128.01218,40,110,0
127.93232,128.09552,32,110,0
128.01566,128.17885,40,110,0
128.09898,128.26218,32,110,0
128.18233,128.34552,40,110,0
128.26566,128.42885,32,110,0
128.34898,128.51218,40,110,0
128.43233,128.59552,32,110,0
128.51566,128.59552,40,110,0
128.59898,128.76218,32,110,0
128.68233,128.84552,40,110,0
128.76566,128.92885,44,110,0
128.84898,129.01218,40,110,0
128.93231,129.09552,32,110,0
129.01566,129.17885,40,110,0
129.09898,129.26218,32,110,0
129.18231,129.34552,40,110,0
129.26566,129.42885,32,110,0
129.34898,129.51218,40,110,0
129.43231,129.59552,32,110,0
129.51566,129.59552,40,110,0
129.59898,131.0955,33,125,0
129.59898,131.0955,45,125,0
131.09898,131.5955,46,125,0
131.09898,131.5955,34,125,0
131.26566,131.76218,37,125,0
131.43231,131.92885,40,125,0
131.59898,132.0955,43,125,0
131.76566,132.26218,46,125,0
132.09898,132.26218,52,125,0
131.93231,132.42885,49,125,0
132.26566,132.42885,52,125,0
132.43231,132.5955,52,125,0
132.59898,133.0955,52,125,0
133.09898,133.5955,51,125,0
133.59898,133.76218,44,110,0
133.68231,133.8455,51,110,0
133.76566,133.92885,56,110,0
133.84898,134.01218,51,110,0
133.93231,134.0955,44,110,0
134.01564,134.17885,51,110,0
134.09898,134.26218,44,110,0
134.18231,134.3455,51,110,0
134.26564,134.42885,44,110,0
134.34898,134.51218,51,110,0
134.43231,134.5955,44,110,0
134.51564,134.67885,51,110,0
134.59898,134.76218,44,110,0
134.68231,134.8455,51,110,0
134.76564,134.92885,56,110,0
134.84898,135.01218,51,110,0
134.93231,135.0955,44,110,0
135.01564,135.17885,51,110,0
135.09898,135.26218,44,110,0
135.18231,135.3455,51,110,0
135.26564,135.42885,44,110,0
135.34898,135.51218,51,110,0
135.43231,135.5955,44,110,0
135.51564,135.5955,51,110,0
135.59898,135.76218,44,110,0
135.68231,135.8455,52,110,0
135.76564,135.92883,56,110,0
135.84898,136.01218,52,110,0
135.93231,136.0955,44,110,0
136.01564,136.17883,52,110,0
136.09898,136.26218,44,110,0
136.18231,136.3455,52,110,0
136.26564,136.42883,44,110,0
136.34898,136.51218,52,110,0
136.43231,136.5955,44,110,0
136.51564,136.5955,52,110,0
136.59898,136.76218,44,110,0
136.68231,136.8455,52,110,0
136.76564,136.92883,56,110,0
136.84898,137.01218,52,110,0
136.93231,137.0955,44,110,0
137.01564,137.17883,52,110,0
137.09898,137.26218,44,110,0
137.18231,137.3455,52,110,0
137.26564,137.42883,44,110,0
137.34898,137.51218,52,110,0
137.43231,137.5955,44,110,0
137.51564,137.5955,52,110,0
137.59898,139.0955,45,125,0
137.59898,139.0955,57,125,0
139.09897,139.5955,58,125,0
139.09897,139.5955,46,125,0
139.26564,139.76218,49,125,0
139.26564,139.76218,61,125,0
139.43231,139.92883,52,125,0
139.43231,139.92883,64,125,0
139.59897,140.0955,67,125,0
139.59897,140.0955,55,125,0
139.76564,140.26218,70,125,0
139.76564,140.26218,58,125,0
140.09897,140.26218,76,125,0
140.09897,140.26218,64,125,0
139.93231,140.42883,73,125,0
139.93231,140.42883,61,125,0
140.26564,140.42883,76,125,0
140.26564,140.42883,64,125,0
140.43231,140.5955,76,125,0
140.43231,140.5955,64,125,0
140.59897,141.0955,76,125,0
140.59897,141.0955,64,125,0
141.09897,141.5955,75,125,0
141.09897,141.5955,63,125,0
141.59897,142.0955,68,125,0
142.09897,142.5955,67,110,0
142.59897,143.0955,76,122,0
143.09897,143.5955,75,110,0
143.59897,144.5955,74,120,0
143.68231,144.5955,77,120,0
143.76564,144.5955,80,120,0
144.59897,145.5955,75,120,0
144.6823,145.5955,79,120,0
145.59897,146.09549,71,80,0
145.59897,146.09549,68,80,0
146.09897,146.59549,76,80,0
146.09897,146.59549,73,80,0
146.59897,147.09549,75,80,0
146.59897,147.09549,71,80,0
147.09897,147.59549,75,100,0
147.09897,147.59549,73,100,0
147.09897,147.59549,70,100,0
147.59897,148.09549,71,80,0
147.59897,148.09549,68,80,0
148.09897,148.59549,64,80,0
148.09897,148.59549,61,80,0
148.59897,149.09549,63,80,0
148.59897,149.09549,59,80,0
149.09897,149.59549,63,100,0
149.09897,149.59549,61,100,0
149.09897,149.59549,58,100,0
149.59897,150.09549,59,80,0
149.59897,150.09549,56,80,0
150.09897,150.59549,52,80,0
150.09897,150.59549,49,80,0
150.59897,151.09549,51,80,0
150.59897,151.09549,47,80,0
151.09897,151.59549,51,100,0
151.09897,151.59549,49,100,0
151.09897,151.59549,46,100,0
151.59897,152.65411,44,80,0
152.65779,154.02498,39,76,0
153.22029,154.02498,35,73,0
154.03279,156.27757,32,71,0
156.28279,156.77863,47,80,0
156.78279,156.87862,44,80,0
156.88278,158.67862,39,80,0
158.68279,159.17862,47,80,0
159.18279,159.27863,44,80,0
159.28279,161.07861,40,80,0
161.08278,161.57861,44,80,0
161.58278,161.67862,47,80,0
161.68279,162.27863,52,80,0
162.28279,162.77863,56,80,0
162.78279,162.87862,59,80,0
162.88278,163.47862,64,80,0
163.48279,164.07861,52,80,0
164.08278,165.27863,59,80,0
164.08278,165.27863,54,80,0
164.08278,165.27863,51,80,0
165.28279,166.47862,58,80,0
165.28279,166.47862,55,80,0
165.28279,166.47862,52,80,0
166.48279,166.87862,59,80,0
166.48279,166.87862,54,80,0
166.48279,166.87862,51,80,0
168.88278,170.07861,73,80,0
168.88278,170.07861,69,80,0
170.08278,171.27863,74,80,0
170.08278,171.27863,71,80,0
171.28279,171.67862,73,80,0
171.28279,171.67862,69,80,0
173.68279,174.87862,59,80,0
173.68279,174.87862,56,80,0
174.88278,176.07861,60,80,0
174.88278,176.07861,57,80,0
176.08278,176.67862,59,80,0
176.08278,176.67862,56,80,0
176.68279,177.87862,42,100,0
177.88278,178.47862,45,79,0
178.48279,179.67862,47,70,0
179.68279,180.87862,35,70,0
180.88278,182.07861,71,80,0
180.88278,182.07861,68,80,0
182.08278,183.27863,72,80,0
182.08278,183.27863,69,80,0
183.28279,183.87862,71,80,0
183.28279,183.87862,68,80,0
183.88278,185.07861,54,100,0
183.88278,185.07861,66,100,0
185.08278,185.67862,57,79,0
185.68279,186.87862,59,70,0
186.88278,187.27863,47,70,0
187.48279,187.89598,47,110,0
187.89946,187.97931,43,110,0
187.98279,189.47931,40,110,0
189.48279,189.89598,43,110,0
189.89944,189.97931,47,110,0
189.98279,190.47931,52,110,0
190.48279,190.89598,55,110,0
190.89944,190.97931,59,110,0
190.98279,191.47931,64,110,0
191.48279,191.97931,64,110,0
191.98279,192.17375,65,110,0
192.08,192.27098,67,110,0
192.1807,192.37167,71,110,0
192.28139,192.47237,67,110,0
192.38208,192.57306,65,110,0
192.48279,192.67375,62,110,0
192.58,192.77098,65,110,0
192.6807,192.87167,67,110,0
192.78139,192.97237,65,110,0
192.87862,193.06958,62,110,0
192.98279,193.17375,59,110,0
193.08,193.27098,62,110,0
193.1807,193.37167,65,110,0
193.28139,193.47237,62,110,0
193.38208,193.57306,59,110,0
193.48279,193.67375,55,110,0
193.58,193.77098,59,110,0
193.6807,193.87167,62,110,0
193.78139,193.97237,59,110,0
193.87862,194.06958,55,110,0
193.98277,194.17375,53,110,0
194.08,194.27098,55,110,0
194.1807,194.37167,59,110,0
194.28139,194.47237,55,110,0
194.38208,194.57306,53,110,0
194.54527,194.57306,53,110,0
194.48277,194.67375,50,110,0
194.6807,194.87167,55,110,0
194.78139,194.97237,53,110,0
194.87862,195.06958,50,110,0
194.98277,195.17375,47,110,0
195.08,195.27097,50,110,0
195.1807,195.37167,53,110,0
195.28139,195.47237,50,110,0
195.38208,195.57306,47,110,0
195.48277,195.67375,43,110,0
195.58,195.77097,47,110,0
195.6807,195.87167,50,110,0
195.78139,195.97237,47,110,0
195.87862,195.98972,43,110,0
195.98277,197.47931,36,110,0
197.48277,197.89597,39,110,0
197.89944,197.97931,43,110,0
197.98277,198.47931,48,110,0
198.48277,198.89597,51,110,0
198.89944,198.97931,55,110,0
198.98277,199.47931,60,110,0
199.48277,199.97931,60,110,0
199.98277,200.17375,61,110,0
200.08,200.27097,63,110,0
200.1807,200.37166,67,110,0
200.28139,200.47235,63,110,0
200.38208,200.57304,61,110,0
200.48277,200.67375,58,110,0
200.58,200.77097,61,110,0
200.6807,200.87166,63,110,0
200.78139,200.97235,61,110,0
200.8786,201.06958,58,110,0
200.98277,201.17375,55,110,0
201.08,201.27097,58,110,0
201.1807,201.37166,61,110,0
201.28139,201.47235,58,110,0
201.38208,201.57304,55,110,0
201.48277,201.67375,51,110,0
201.58,201.77097,55,110,0
201.6807,201.87166,58,110,0
201.78139,201.97235,55,110,0
201.8786,202.0036,51,110,0
201.98277,202.17374,49,110,0
202.07999,202.27097,51,110,0
202.1807,202.37166,55,110,0
202.28139,202.47235,51,110,0
202.38208,202.57304,49,110,0
202.48277,202.67374,46,110,0
202.57999,202.77097,49,110,0
202.6807,202.87166,51,110,0
202.78139,202.97235,49,110,0
202.8786,203.08043,46,110,0
203.07652,203.08043,46,110,0
202.98277,203.16637,43,110,0
203.17027,203.35387,49,110,0
203.26402,203.44762,46,110,0
203.35777,203.54137,43,110,0
203.45152,203.64441,39,110,0
203.54527,203.74786,37,110,0
203.64871,203.8513,39,110,0
203.75217,203.95476,43,110,0
203.85562,204.07886,39,110,0
203.95906,204.20386,37,110,0
204.08406,204.20386,34,110,0
204.20906,205.73892,32,110,0
205.7424,206.1556,36,110,0
206.15906,206.23892,39,110,0
206.2424,206.73892,44,110,0
206.7424,207.1556,48,110,0
207.15906,207.23892,51,110,0
207.2424,207.73892,56,110,0
207.7424,208.23892,56,110,0
208.2424,208.43336,57,110,0
208.33961,208.5306,60,110,0
208.4403,208.63129,63,110,0
208.541,208.73198,60,110,0
208.62086,208.81184,57,110,0
208.74239,208.93336,54,110,0
208.83961,209.0306,57,110,0
208.9403,209.13129,60,110,0
209.041,209.23198,57,110,0
209.12086,209.31184,54,110,0
209.24239,209.43336,51,110,0
209.33961,209.5306,54,110,0
209.4403,209.63129,57,110,0
209.541,209.73198,54,110,0
209.62086,209.81184,51,110,0
209.74239,209.93336,48,110,0
209.83961,210.03058,51,110,0
209.9403,210.13129,54,110,0
210.041,210.23198,51,110,0
210.12086,210.31183,48,110,0
210.24239,210.43336,45,110,0
210.33961,210.53058,48,110,0
210.4403,210.63129,51,110,0
210.541,210.73198,48,110,0
210.62086,210.81183,45,110,0
210.74239,210.93336,42,110,0
210.83961,211.03058,45,110,0
210.9403,211.13129,48,110,0
211.041,211.23198,45,110,0
211.12086,211.31183,42,110,0
211.24239,211.40558,39,110,0
211.32573,211.48892,42,110,0
211.40906,211.57225,44,110,0
211.49239,211.65558,42,110,0
211.57573,211.73892,39,110,0
211.65906,211.82225,36,110,0
211.74239,211.90558,33,110,0
211.82573,211.98892,36,110,0
211.90906,212.07225,39,110,0
211.99239,212.15558,42,110,0
212.07573,212.23892,39,110,0
212.15906,212.32225,36,110,0
212.24239,212.40558,32,110,0
212.32573,212.48892,36,110,0
212.40906,212.57225,39,110,0
212.49239,212.65558,42,110,0
212.57573,212.73892,39,110,0
212.65906,212.82225,36,110,0
212.74239,212.90558,33,110,0
212.82573,212.98892,36,110,0
212.90906,213.07225,39,110,0
212.99239,213.15558,42,110,0
213.07573,213.23892,39,110,0
213.15906,213.32225,36,110,0
213.24239,213.40558,32,110,0
213.32573,213.48892,36,110,0
213.40906,213.57225,39,110,0
213.49239,213.65558,42,110,0
213.57571,213.73892,39,110,0
213.65906,213.82225,36,110,0
213.74239,213.90558,33,110,0
213.82571,213.98892,36,110,0
213.90906,214.07225,39,110,0
213.99239,214.15558,42,110,0
214.07571,214.23892,39,110,0
214.15906,214.32225,36,110,0
214.24239,214.40558,32,110,0
214.32571,214.48892,36,110,0
214.40906,214.57225,39,110,0
214.49239,214.65558,42,110,0
214.57571,214.73892,39,110,0
214.65906,214.82225,36,110,0
214.74239,214.90558,33,110,0
214.82571,214.98892,36,110,0
214.90906,215.07225,39,110,0
214.99239,215.15558,42,110,0
215.07571,215.2389,39,110,0
215.15906,215.32225,36,110,0
215.24239,215.40558,32,110,0
215.32571,215.4889,36,110,0
215.40906,215.57225,39,110,0
215.49239,215.65558,42,110,0
215.57571,215.7389,39,110,0
215.65906,215.82225,36,110,0
215.74239,215.90558,33,110,0
215.82571,215.9889,36,110,0
215.90906,216.07225,39,110,0
215.99239,216.15558,42,110,0
216.07571,216.2389,39,110,0
216.15906,216.2389,36,110,0
216.24239,216.40558,44,125,0
216.24239,216.40558,32,125,0
216.40906,216.57225,56,80,0
216.57571,216.7389,56,80,0
216.74239,216.90558,56,80,0
216.90906,217.07225,56,80,0
217.07571,217.2389,56,80,0
217.24239,217.40558,56,80,0
217.40906,217.57225,56,80,0
217.57571,217.7389,56,80,0
217.74239,217.90558,56,80,0
217.90906,218.07225,56,80,0
218.07571,218.2389,56,80,0
218.40906,218.57225,56,80,0
218.57571,218.7389,56,80,0
218.74239,218.90558,56,80,0
218.90904,219.07225,56,80,0
219.07571,219.2389,56,80,0
219.24239,219.40558,54,80,0
219.40904,219.57225,56,80,0
219.57571,219.7389,56,80,0
219.74239,219.90558,56,80,0
219.90904,220.07225,56,80,0
220.07571,220.2389,56,80,0
220.40904,220.57224,56,80,0
220.57571,220.7389,56,80,0
220.74239,220.90558,56,80,0
220.90904,221.07224,56,80,0
221.07571,221.2389,56,80,0
221.24239,221.40558,53,80,0
221.40904,221.57224,56,80,0
221.57571,221.7389,56,80,0
221.74239,221.90558,56,80,0
221.90904,222.07224,56,80,0
222.07571,222.2389,56,80,0
222.40904,222.57224,56,80,0
222.57571,222.7389,56,80,0
222.74239,222.98543,49,80,0
222.74239,222.98543,53,80,0
222.90904,223.07224,56,80,0
223.07571,223.2389,56,80,0
223.24239,223.48543,49,80,0
223.24239,223.48543,53,80,0
223.40904,223.57224,56,80,0
223.57571,223.7389,56,80,0
223.74237,223.98543,49,80,0
223.74237,223.98543,53,80,0
223.90904,224.07224,56,80,0
224.07571,224.2389,56,80,0
224.24237,224.48543,48,80,0
224.24237,224.48543,51,80,0
224.40904,224.57224,56,80,0
224.57571,224.7389,56,80,0
224.74237,224.90558,56,80,0
224.90904,225.07224,56,80,0
225.07571,225.2389,56,80,0
225.24237,225.40556,56,80,0
225.40904,225.57224,56,80,0
225.57571,225.7389,56,80,0
225.74237,225.90556,56,80,0
225.90904,226.07224,56,80,0
226.07571,226.2389,56,80,0
226.24237,226.40556,56,80,0
226.40904,226.57224,56,80,0
226.57571,226.7389,56,80,0
226.74237,226.90556,56,80,0
226.90904,227.07224,56,80,0
227.07571,227.2389,56,80,0
227.24237,227.40556,56,80,0
227.40904,227.57224,56,80,0
227.57571,227.7389,56,80,0
227.74237,227.90556,54,80,0
227.74237,227.90556,51,80,0
227.90904,228.07224,56,80,0
228.07571,228.2389,56,80,0
228.24237,228.40556,56,80,0
228.40904,228.57224,56,80,0
228.57571,228.7389,56,80,0
228.74237,228.90556,56,80,0
228.90904,229.07224,56,80,0
229.0757,229.2389,56,80,0
229.24237,229.40556,56,80,0
229.40904,229.57224,56,80,0
229.5757,229.7389,56,80,0
229.74237,229.90556,53,80,0
229.74237,229.90556,49,80,0
229.90904,230.07224,56,80,0
230.0757,230.2389,56,80,0
230.40904,230.57224,56,80,0
230.5757,230.73889,56,80,0
230.74237,230.90556,53,80,0
230.74237,230.90556,49,80,0
230.90904,231.07224,56,80,0
231.0757,231.23889,56,80,0
231.24237,231.40556,53,80,0
231.24237,231.40556,49,80,0
231.40904,231.57224,56,80,0
231.5757,231.73889,56,80,0
231.74237,231.90556,53,80,0
231.74237,231.90556,49,80,0
231.90904,232.07224,56,80,0
232.0757,232.23889,56,80,0
232.40904,232.57224,56,80,0
232.5757,232.73889,56,80,0
232.74237,232.90556,51,80,0
232.74237,232.90556,48,80,0
232.90904,233.07224,56,80,0
233.0757,233.23889,56,80,0
233.40904,233.57224,56,80,0
233.5757,233.73889,56,80,0
233.74237,233.90556,52,79,0
233.74237,233.90556,49,79,0
233.90903,234.07224,56,79,0
234.0757,234.23889,56,79,0
234.40903,234.57224,56,78,0
234.5757,234.73889,56,78,0
234.74237,234.90556,51,77,0
234.74237,234.90556,48,77,0
234.90903,235.07224,56,77,0
235.0757,235.23889,56,77,0
235.40903,235.57222,56,76,0
235.5757,235.73889,56,76,0
235.74237,235.90556,49,75,0
235.74237,235.90556,52,75,0
235.90903,236.07222,56,75,0
236.0757,236.23889,56,75,0
236.40903,236.57222,56,74,0
236.5757,236.73889,56,74,0
236.74237,236.90556,51,73,0
236.74237,236.90556,48,73,0
236.90903,237.07222,56,73,0
237.0757,237.23889,56,73,0
237.40903,237.57222,56,72,0
237.5757,237.73889,56,72,0
237.74237,237.90556,50,71,0
237.74237,237.90556,47,71,0
237.90903,238.07222,56,71,0
238.0757,238.23889,56,71,0
238.40903,238.57222,56,70,0
238.5757,238.73889,56,70,0
238.74237,238.90556,46,70,0
238.74237,238.90556,49,70,0
238.90903,239.07222,56,70,0
239.0757,239.23889,56,70,0
239.40903,239.57222,56,70,0
239.5757,239.73889,56,70,0
239.74236,239.90556,48,70,0
239.74236,239.90556,45,70,0
239.90903,240.07222,56,70,0
240.0757,240.23889,56,70,0
240.42986,240.80095,44,71,0
240.61736,240.80095,43,72,0
240.80486,241.17595,44,73,0
240.99236,241.17595,46,74,0
241.36736,241.54016,42,76,0
241.17986,241.71663,44,75,0
241.54384,241.71663,44,77,0
241.7203,241.8931,42,79,0
241.89677,242.06956,41,80,0
242.07324,242.24603,42,81,0
242.24971,242.4225,41,82,0
242.42618,242.59898,39,83,0
242.60266,242.95192,44,84,0
242.77913,242.95192,43,85,0
242.9556,243.30486,44,87,0
243.13206,243.30486,46,88,0
243.485,243.6578,39,90,0
243.66148,243.83427,41,91,0
243.83795,244.01074,39,92,0
244.01442,244.18721,37,93,0
244.19089,244.36368,39,95,0
243.30853,244.54016,44,89,0
244.36736,244.54016,37,96,0
244.54382,244.70703,36,97,0
244.7105,245.04036,44,98,0
244.87717,245.04036,43,99,0
245.04382,245.37369,44,100,0
245.2105,245.37369,46,101,0
245.54382,245.70703,36,104,0
245.7105,245.87369,37,105,0
245.87717,246.04036,36,106,0
246.04382,246.20702,34,107,0
246.2105,246.37369,36,108,0
245.37717,246.54036,44,103,0
246.37717,246.54036,34,109,0
246.54382,246.70702,32,110,0
246.7105,246.87369,31,110,0
246.87717,247.04036,32,110,0
247.04382,247.20702,34,110,0
247.2105,247.37369,32,110,0
247.37717,247.54036,34,110,0
247.54382,247.71169,35,110,0
247.71526,247.88312,34,110,0
247.88669,248.05948,35,110,0
248.06316,248.23595,36,110,0
248.23962,248.42322,35,110,0
248.42712,248.61072,36,110,0
248.61462,248.79822,37,80,0
248.80212,248.96532,49,80,0
248.80212,248.96532,44,80,0
248.80212,248.96532,41,80,0
248.9688,249.13199,37,80,0
249.13545,249.29866,49,80,0
249.13545,249.29866,44,80,0
249.13545,249.29866,41,80,0
249.30212,249.46532,37,80,0
249.4688,249.63199,49,80,0
249.4688,249.63199,44,80,0
249.4688,249.63199,41,80,0
249.63545,249.79865,37,80,0
249.80212,249.96532,49,80,0
249.80212,249.96532,44,80,0
249.80212,249.96532,41,80,0
249.9688,250.13199,37,80,0
250.13545,250.29865,49,80,0
250.13545,250.29865,44,80,0
250.13545,250.29865,41,80,0
250.30212,250.46532,37,80,0
250.4688,250.63199,49,80,0
250.4688,250.63199,44,80,0
250.4688,250.63199,41,80,0
250.63545,250.79865,37,80,0
250.80212,250.96532,49,80,0
250.80212,250.96532,44,80,0
250.80212,250.96532,41,80,0
250.9688,251.13199,37,80,0
251.13545,251.29865,49,80,0
251.13545,251.29865,44,80,0
251.13545,251.29865,41,80,0
251.30212,251.46532,37,80,0
251.4688,251.63199,49,80,0
251.4688,251.63199,44,80,0
251.4688,251.63199,41,80,0
251.63545,251.79865,39,80,0
251.80212,251.96532,51,80,0
251.80212,251.96532,44,80,0
251.80212,251.96532,42,80,0
251.9688,252.13199,39,80,0
252.13545,252.29865,51,80,0
252.13545,252.29865,44,80,0
252.13545,252.29865,42,80,0
252.30212,252.46532,39,80,0
252.4688,252.63199,51,80,0
252.4688,252.63199,44,80,0
252.4688,252.63199,42,80,0
252.63545,252.79865,41,80,0
252.80212,252.96532,53,80,0
252.80212,252.96532,49,80,0
252.80212,252.96532,44,80,0
252.96878,253.13199,41,80,0
253.13545,253.29865,53,80,0
253.13545,253.29865,49,80,0
253.13545,253.29865,44,80,0
253.30212,253.46532,41,80,0
253.46878,253.63199,53,80,0
253.46878,253.63199,49,80,0
253.46878,253.63199,44,80,0
253.63545,253.79865,41,80,0
253.80212,253.96532,53,80,0
253.80212,253.96532,49,80,0
253.80212,253.96532,44,80,0
253.96878,254.13199,41,80,0
254.13545,254.29865,54,80,0
254.13545,254.29865,51,80,0
254.13545,254.29865,49,80,0
254.30212,254.46532,42,80,0
254.46878,254.63197,54,80,0
254.46878,254.63197,51,80,0
254.46878,254.63197,49,80,0
254.63545,254.79865,44,80,0
254.80212,254.96532,56,82,0
254.80212,254.96532,53,82,0
254.80212,254.96532,49,82,0
254.96878,255.13197,44,85,0
255.13545,255.29865,56,87,0
255.13545,255.29865,53,87,0
255.13545,255.29865,49,87,0
255.30212,255.46532,44,90,0
255.46878,255.63197,56,93,0
255.46878,255.63197,53,93,0
255.46878,255.63197,49,93,0
255.63545,255.79865,44,95,0
255.80212,255.96532,56,98,0
255.80212,255.96532,51,98,0
255.80212,255.96532,48,98,0
255.96878,256.132,44,100,0
256.13544,256.29865,56,103,0
256.13544,256.29865,51,103,0
256.13544,256.29865,48,103,0
256.30212,256.4653,44,106,0
256.46878,256.632,56,108,0
256.46878,256.632,51,108,0
256.46878,256.632,48,108,0
256.63544,256.79865,45,110,0
256.80212,256.9653,57,110,0
256.80212,256.9653,53,110,0
256.80212,256.9653,48,110,0
256.96878,257.132,45,110,0
257.13544,257.29865,57,110,0
257.13544,257.29865,53,110,0
257.13544,257.29865,48,110,0
257.30212,257.4653,45,110,0
257.46878,257.632,57,110,0
257.46878,257.632,53,110,0
257.46878,257.632,48,110,0
257.63544,257.79865,45,110,0
257.80212,257.9653,57,96,0
257.80212,257.9653,53,96,0
257.80212,257.9653,48,96,0
257.96878,258.132,45,81,0
258.13544,258.29865,58,80,0
258.13544,258.29865,53,80,0
258.13544,258.29865,49,80,0
258.30212,258.4653,46,80,0
258.46878,258.632,58,80,0
258.46878,258.632,53,80,0
258.46878,258.632,49,80,0
258.63544,258.79865,46,80,0
258.80212,258.9653,58,80,0
258.80212,258.9653,53,80,0
258.80212,258.9653,49,80,0
258.96878,259.132,46,80,0
259.13544,259.29865,58,80,0
259.13544,259.29865,53,80,0
259.13544,259.29865,49,80,0
259.30212,259.4653,46,80,0
259.46878,259.632,58,80,0
259.46878,259.632,53,80,0
259.46878,259.632,49,80,0
259.63544,259.79865,48,80,0
259.80212,259.9653,60,80,0
259.80212,259.9653,53,80,0
259.80212,259.9653,51,80,0
259.96878,260.132,48,80,0
260.13544,260.29865,60,80,0
260.13544,260.29865,53,80,0
260.13544,260.29865,51,80,0
260.30212,260.4653,48,80,0
260.46878,260.632,60,80,0
260.46878,260.632,53,80,0
260.46878,260.632,51,80,0
260.63544,260.79865,49,80,0
260.80212,260.9653,61,80,0
260.80212,260.9653,58,80,0
260.80212,260.9653,53,80,0
260.96878,261.132,49,80,0
261.13544,261.29865,61,80,0
261.13544,261.29865,58,80,0
261.13544,261.29865,53,80,0
261.30212,261.4653,49,80,0
261.46878,261.632,61,80,0
261.46878,261.632,58,80,0
261.46878,261.632,53,80,0
261.63544,261.79865,49,80,0
261.80212,261.9653,61,80,0
261.80212,261.9653,58,80,0
261.80212,261.9653,53,80,0
261.96878,262.132,49,80,0
262.13544,262.29865,63,80,0
262.13544,262.29865,58,80,0
262.13544,262.29865,54,80,0
262.30212,262.4653,51,80,0
262.46878,262.63196,63,80,0
262.46878,262.63196,58,80,0
262.46878,262.63196,54,80,0
262.63544,262.79865,53,80,0
262.80212,262.9653,65,82,0
262.80212,262.9653,61,82,0
262.80212,262.9653,58,82,0
262.96878,263.13196,53,85,0
263.13544,263.29865,65,87,0
263.13544,263.29865,61,87,0
263.13544,263.29865,58,87,0
263.30212,263.4653,53,90,0
263.46878,263.63196,65,93,0
263.46878,263.63196,61,93,0
263.46878,263.63196,58,93,0
263.63544,263.79865,53,95,0
263.80212,263.9653,57,98,0
263.80212,263.9653,60,98,0
263.80212,263.9653,63,98,0
263.96878,264.13196,53,100,0
264.13544,264.29865,57,103,0
264.13544,264.29865,60,103,0
264.13544,264.29865,63,103,0
264.30212,264.4653,53,106,0
264.46878,264.63196,57,108,0
264.46878,264.63196,60,108,0
264.46878,264.63196,63,108,0
264.63544,264.79865,54,110,0
264.80212,264.9653,66,110,0
264.80212,264.9653,61,110,0
264.80212,264.9653,58,110,0
264.96878,265.13196,54,110,0
265.13544,265.29865,66,110,0
265.13544,265.29865,61,110,0
265.13544,265.29865,58,110,0
265.30212,265.4653,54,110,0
265.46878,265.63196,66,110,0
265.46878,265.63196,61,110,0
265.46878,265.63196,58,110,0
265.63544,265.79865,54,110,0
265.8021,265.9653,66,110,0
265.8021,265.9653,61,110,0
265.8021,265.9653,58,110,0
265.96878,266.13196,54,110,0
266.13544,266.29865,66,110,0
266.13544,266.29865,61,110,0
266.13544,266.29865,58,110,0
266.3021,266.4653,54,110,0
266.46878,266.63196,66,110,0
266.46878,266.63196,61,110,0
266.46878,266.63196,58,110,0
266.63544,266.79865,54,110,0
266.8021,266.9653,66,110,0
266.8021,266.9653,61,110,0
266.8021,266.9653,58,110,0
266.96878,267.13196,54,110,0
267.13544,267.29865,66,110,0
267.13544,267.29865,61,110,0
267.13544,267.29865,58,110,0
267.3021,267.4653,54,110,0
267.46878,267.63196,66,110,0
267.46878,267.63196,61,110,0
267.46878,267.63196,58,110,0
267.63544,267.79865,58,110,0
267.8021,267.9653,68,110,0
267.8021,267.9653,61,110,0
267.8021,267.9653,59,110,0
267.96878,268.13196,58,110,0
268.13544,268.29865,68,110,0
268.13544,268.29865,61,110,0
268.13544,268.29865,59,110,0
268.3021,268.4653,58,110,0
268.46878,268.63196,68,110,0
268.46878,268.63196,61,110,0
268.46878,268.63196,59,110,0
268.63544,268.79865,58,110,0
268.8021,268.9653,61,110,0
268.8021,268.9653,66,110,0
268.8021,268.9653,70,110,0
268.96878,269.13196,58,110,0
269.13544,269.29865,61,110,0
269.13544,269.29865,66,110,0
269.13544,269.29865,70,110,0
269.3021,269.4653,58,110,0
269.46878,269.63196,61,110,0
269.46878,269.63196,66,110,0
269.46878,269.63196,70,110,0
269.63544,269.79865,58,110,0
269.8021,269.9653,61,110,0
269.8021,269.9653,66,110,0
269.8021,269.9653,70,110,0
269.96878,270.13196,58,110,0
270.13544,270.29865,61,110,0
270.13544,270.29865,66,110,0
270.13544,270.29865,70,110,0
270.3021,270.4653,58,110,0
270.46878,270.63196,61,110,0
270.46878,270.63196,66,110,0
270.46878,270.63196,70,110,0
270.63544,270.79865,59,110,0
270.8021,270.9653,71,110,0
270.8021,270.9653,66,110,0
270.8021,270.9653,62,110,0
270.96878,271.13196,59,110,0
271.13544,271.29865,71,110,0
271.13544,271.29865,66,110,0
271.13544,271.29865,62,110,0
271.3021,271.4653,59,110,0
271.46878,271.63196,71,110,0
271.46878,271.63196,66,110,0
271.46878,271.63196,62,110,0
271.63544,271.79865,59,110,0
271.8021,271.9653,71,110,0
271.8021,271.9653,66,110,0
271.8021,271.9653,62,110,0
271.96878,272.13196,59,110,0
272.13544,272.29865,71,110,0
272.13544,272.29865,66,110,0
272.13544,272.29865,62,110,0
272.3021,272.4653,59,110,0
272.46878,272.63196,71,110,0
272.46878,272.63196,66,110,0
272.46878,272.63196,62,110,0
272.63544,272.7986,59,110,0
272.8021,272.9653,62,110,0
272.8021,272.9653,67,110,0
272.8021,272.9653,71,110,0
272.96878,273.13196,59,110,0
273.13544,273.2986,62,110,0
273.13544,273.2986,67,110,0
273.13544,273.2986,71,110,0
273.3021,273.4653,59,110,0
273.46878,273.63196,62,110,0
273.46878,273.63196,67,110,0
273.46878,273.63196,71,110,0
273.63544,273.7986,59,110,0
273.8021,273.9653,62,110,0
273.8021,273.9653,67,110,0
273.8021,273.9653,71,110,0
273.96878,274.13196,59,110,0
274.13544,274.2986,62,110,0
274.13544,274.2986,67,110,0
274.13544,274.2986,71,110,0
274.3021,274.4653,59,110,0
274.46878,274.63196,62,110,0
274.46878,274.63196,67,110,0
274.46878,274.63196,71,110,0
274.63544,274.7986,60,110,0
274.8021,274.9653,67,110,0
274.8021,274.9653,64,110,0
274.8021,274.9653,72,110,0
274.96878,275.13196,60,110,0
275.13544,275.2986,67,110,0
275.13544,275.2986,64,110,0
275.13544,275.2986,72,110,0
275.3021,275.4653,60,110,0
275.46878,275.63196,67,110,0
275.46878,275.63196,64,110,0
275.46878,275.63196,72,110,0
275.63544,275.7986,60,110,0
275.8021,275.9653,67,110,0
275.8021,275.9653,64,110,0
275.8021,275.9653,72,110,0
275.96875,276.13196,60,110,0
276.13544,276.2986,67,110,0
276.13544,276.2986,64,110,0
276.13544,276.2986,72,110,0
276.3021,276.4653,60,110,0
276.46875,276.63196,67,110,0
276.46875,276.63196,64,110,0
276.46875,276.63196,72,110,0
276.63544,277.0486,61,110,0
276.71875,277.13196,64,110,0
276.8021,277.2153,67,110,0
276.88544,277.2986,70,110,0
276.96875,277.38196,73,110,0
277.63544,278.0486,64,110,0
277.71875,278.13196,67,110,0
277.8021,278.2153,70,110,0
277.88544,278.2986,73,110,0
277.96875,278.38196,76,110,0
278.63544,279.0486,67,110,0
278.71875,279.13196,70,110,0
278.8021,279.2153,73,110,0
278.88544,279.2986,76,110,0
279.63544,280.0486,70,110,0
279.71875,280.13196,73,110,0
279.8021,280.2153,76,110,0
280.63544,281.0486,73,110,0
280.71875,281.13196,76,110,0
280.8021,281.2153,79,110,0
281.13544,281.5486,76,110,0
281.21875,281.63196,79,110,0
281.3021,281.7153,82,110,0
281.63544,282.0486,79,110,0
281.71875,282.13196,82,110,0
281.8021,282.2153,85,110,0
282.13544,282.5486,82,110,0
282.21875,282.63196,85,110,0
282.3021,282.71527,88,110,0
282.63544,283.0486,85,110,0
282.71875,283.13196,88,110,0
283.13544,283.5486,82,110,0
283.21875,283.63196,85,110,0
283.63544,284.0486,79,110,0
283.71875,284.13196,82,110,0
284.13544,284.5486,76,110,0
284.21875,284.63196,79,110,0
284.63544,285.0486,73,110,0
284.71875,285.13196,76,110,0
285.13544,285.5486,70,110,0
285.21875,285.63196,73,110,0
285.63544,286.0486,67,110,0
285.71875,286.13196,70,110,0
286.1354,286.5486,64,110,0
286.21875,286.63196,67,110,0
286.6354,287.0486,61,110,0
286.71875,287.13196,64,110,0
287.1354,287.5486,58,110,0
287.21875,287.63196,61,110,0
287.6354,288.0486,55,110,0
287.71875,288.13196,58,110,0
288.1354,288.5486,52,110,0
288.21875,288.63196,55,110,0
288.6354,289.0486,49,110,0
288.71875,289.13196,52,110,0
289.1354,289.5486,46,110,0
289.21875,289.63196,49,110,0
289.6354,290.0486,43,110,0
289.71875,290.13196,46,110,0
290.1354,290.5486,40,110,0
290.21875,290.63196,43,110,0
290.6354,290.96527,37,120,0
291.1354,291.2986,73,120,0
291.3021,291.46527,73,120,0
291.46875,291.63196,73,120,0
291.6354,291.96527,73,120,0
292.1354,292.2986,37,120,0
292.3021,292.46527,37,120,0
292.46875,292.63196,37,120,0
292.6354,292.96527,37,120,0
293.1354,293.2986,73,120,0
293.3021,293.46527,73,120,0
293.46875,293.63193,73,120,0
293.6354,293.96527,73,120,0
294.1354,294.2986,37,120,0
294.3021,294.46527,37,120,0
294.46875,294.63193,37,120,0
294.6354,294.96527,36,120,0
295.1354,295.2986,73,120,0
295.3021,295.46527,73,120,0
295.46875,295.63193,73,120,0
295.6354,295.96527,72,120,0
296.1354,296.2986,37,120,0
296.30206,296.46527,37,120,0
296.46875,296.63193,37,120,0
296.6354,296.96527,36,120,0
297.1354,297.2986,73,120,0
297.30206,297.46527,73,120,0
297.46875,297.63193,73,120,0
297.6354,297.96527,72,120,0
298.1354,298.2986,37,120,0
298.30206,298.46527,37,120,0
298.46875,298.63193,37,120,0
298.6354,298.7986,36,120,0
298.80206,298.96527,36,80,0
298.96875,299.13193,36,80,0
299.1354,299.2986,36,79,0
299.30206,299.46527,36,79,0
299.46875,299.63193,36,78,0
299.6354,299.7986,36,78,0
299.80206,299.96527,36,77,0
299.96875,300.13193,36,77,0
300.1354,300.2986,36,76,0
300.30206,300.46527,36,76,0
300.46875,300.63193,36,75,0
300.6354,300.7986,36,75,0
300.80206,300.96527,36,74,0
300.96875,301.13193,36,74,0
301.1354,301.2986,36,73,0
301.30206,301.46527,36,73,0
301.46875,301.63193,36,72,0
301.6354,301.7986,36,72,0
301.80206,301.96527,36,71,0
301.96875,302.13193,36,71,0
302.1354,302.2986,36,70,0
302.30206,302.46527,36,70,0
302.46875,302.63193,36,70,0
302.6354,302.7986,36,70,0
302.80206,302.96527,36,70,0
302.96875,303.13193,36,70,0
303.1354,303.29858,36,70,0
303.30206,303.46527,36,70,0
303.46875,303.63193,36,70,0
303.6354,303.79858,36,70,0
303.80206,303.96527,36,70,0
303.96875,304.13193,36,70,0
304.1354,304.29858,36,70,0
304.30206,304.46527,36,70,0
304.46875,304.63193,36,70,0
304.6354,304.79858,36,70,0
304.80206,304.96527,36,70,0
304.96875,305.13193,36,70,0
305.1354,305.29858,36,70,0
305.30206,305.46527,36,70,0
305.46875,305.63193,36,70,0
305.6354,305.79858,36,70,0
305.80206,305.96527,36,70,0
305.96875,306.13193,36,70,0
306.1354,306.29858,36,70,0
306.30206,306.46527,36,70,0
306.46872,306.63193,36,70,0
306.6354,306.79858,36,70,0
306.80206,306.96527,36,70,0
306.96872,307.13193,36,70,0
307.1354,307.29858,36,70,0
307.30206,307.46527,36,70,0
307.46872,307.63193,36,70,0
307.6354,307.79858,36,70,0
307.80206,307.96527,36,70,0
307.96872,308.13193,36,70,0
308.1354,308.29858,36,70,0
308.30206,308.46527,36,70,0
308.46872,308.63193,36,70,0
308.6354,308.79858,36,70,0
308.80206,308.96527,36,70,0
308.96872,309.13193,36,70,0
309.1354,309.29858,36,70,0
309.30206,309.46527,36,70,0
309.46872,309.63193,36,70,0
309.6354,309.79858,36,70,0
309.80206,309.96527,37,70,0
309.96872,310.13193,37,70,0
310.1354,310.29858,37,70,0
310.30206,310.46527,37,70,0
310.46872,310.63193,37,70,0
310.6354,310.79858,37,70,0
310.80206,310.96527,37,70,0
310.96872,311.13193,37,70,0
311.1354,311.29858,37,70,0
311.30206,311.46527,37,70,0
311.46872,311.63193,37,70,0
311.6354,311.79858,37,70,0
311.80206,311.96527,37,70,0
311.96872,312.13193,37,70,0
312.1354,312.29858,37,70,0
312.30206,312.46527,37,70,0
312.46872,312.63193,37,70,0
312.6354,312.79858,37,70,0
312.80206,312.96527,37,70,0
312.96872,313.13193,37,70,0
313.1354,313.29858,37,70,0
313.30206,313.46524,37,70,0
313.46872,313.63193,37,70,0
313.6354,313.79858,37,70,0
313.80206,313.96524,37,70,0
313.96872,314.13193,37,70,0
314.1354,314.29858,37,70,0
314.30206,314.46524,37,70,0
314.46872,314.63193,37,70,0
314.6354,314.79858,37,70,0
314.80206,314.96524,37,70,0
314.96872,315.13193,37,70,0
315.1354,315.29858,37,70,0
315.30206,315.46524,37,70,0
315.46872,315.63193,37,70,0
315.6354,315.79858,37,70,0
315.80206,315.96524,37,70,0
315.96872,316.13193,37,70,0
316.1354,316.29858,37,70,0
316.30206,316.46524,37,70,0
316.46872,316.63193,37,70,0
316.63538,316.79858,37,70,0
316.80206,316.96524,41,70,0
316.80206,316.96524,35,70,0
316.96872,317.13193,41,70,0
316.96872,317.13193,35,70,0
317.13538,317.29858,41,70,0
317.13538,317.29858,35,70,0
317.30206,317.46524,41,70,0
317.30206,317.46524,35,70,0
317.46872,317.63193,41,70,0
317.46872,317.63193,35,70,0
317.63538,317.79858,41,70,0
317.63538,317.79858,35,70,0
317.80206,317.96524,41,70,0
317.80206,317.96524,35,70,0
317.96872,318.13193,41,70,0
317.96872,318.13193,35,70,0
318.13538,318.29858,41,70,0
318.13538,318.29858,35,70,0
318.30206,318.46524,41,70,0
318.30206,318.46524,35,70,0
318.46872,318.63193,41,70,0
318.46872,318.63193,35,70,0
318.80206,318.96524,36,70,0
318.96872,319.13193,36,70,0
319.13538,319.29858,36,70,0
319.30206,319.46524,36,70,0
318.63538,319.63193,40,70,0
319.46872,319.63193,36,70,0
319.80206,319.96524,36,70,0
319.96872,320.13193,36,70,0
320.13538,320.29858,36,70,0
320.30206,320.46524,36,70,0
319.63538,320.63193,41,70,0
320.46872,320.63193,36,70,0
320.63538,320.79858,40,70,0
320.80206,320.96524,36,70,0
320.96872,321.13193,36,70,0
321.13538,321.29858,36,70,0
321.13538,321.29858,49,70,0
321.30206,321.46524,36,70,0
321.30206,321.46524,49,70,0
321.46872,321.63193,36,70,0
321.46872,321.63193,49,70,0
321.63538,321.79858,36,70,0
321.63538,321.96524,48,70,0
321.80206,321.96524,36,70,0
321.96872,322.13193,36,70,0
322.13538,322.29858,36,70,0
322.30206,322.46524,36,70,0
322.46872,322.63193,36,70,0
322.80206,322.96524,36,70,0
322.96872,323.13193,36,70,0
323.13538,323.29858,36,70,0
323.30206,323.46524,36,70,0
322.63538,323.6319,43,70,0
323.46872,323.6319,36,70,0
323.80206,323.96524,36,70,0
323.96872,324.1319,36,70,0
324.13538,324.29858,36,70,0
324.30206,324.46524,36,70,0
323.63538,324.6319,44,70,0
324.46872,324.6319,36,70,0
324.63538,324.79858,46,70,0
324.80206,324.96524,36,70,0
324.96872,325.1319,36,70,0
325.13538,325.29858,36,70,0
325.13538,325.29858,49,70,0
325.30206,325.46524,36,70,0
325.30206,325.46524,49,70,0
325.46872,325.6319,36,70,0
325.46872,325.6319,49,70,0
325.63538,325.79858,36,70,0
325.63538,325.96524,48,70,0
325.80206,325.96524,36,70,0
325.96872,326.1319,36,70,0
326.13538,326.29858,36,70,0
326.30206,326.46524,36,70,0
326.46872,326.6319,36,70,0
326.63538,326.79858,36,70,0
326.80203,326.96524,36,70,0
326.96872,327.1319,36,71,0
327.13538,327.29858,36,72,0
327.13538,327.29858,49,72,0
327.30203,327.46524,36,73,0
327.30203,327.46524,49,73,0
327.46872,327.6319,36,74,0
327.46872,327.6319,49,74,0
327.63538,327.79858,36,75,0
327.63538,327.96524,48,75,0
327.80203,327.96524,36,76,0
327.96872,328.1319,36,77,0
328.13538,328.29858,36,78,0
328.30203,328.46524,36,79,0
328.46872,328.6319,36,79,0
328.63538,328.79858,36,80,0
328.80203,328.96524,36,82,0
328.96872,329.1319,36,84,0
329.13538,329.29858,36,87,0
329.30203,329.46524,36,89,0
329.46872,329.6319,36,92,0
329.63538,329.79858,36,94,0
329.80203,329.96524,36,97,0
329.96872,330.1319,36,99,0
330.13538,330.29858,36,102,0
330.30203,330.46524,36,104,0
330.46872,330.6319,36,107,0
330.63538,330.79858,36,110,0
330.80203,330.96524,36,110,0
330.96872,331.1319,36,110,0
331.13538,331.29858,36,110,0
331.30203,331.46524,36,110,0
331.46872,331.6319,36,110,0
331.63538,331.79858,43,110,0
331.63538,331.79858,31,110,0
331.80203,331.96524,36,110,0
331.96872,332.1319,36,110,0
332.13538,332.31897,41,110,0
332.13538,332.31897,29,110,0
332.32288,332.5187,36,100,0
332.5229,332.76767,36,90,0
332.7729,334.63065,36,80,0
332.7729,334.63065,40,80,0
334.63495,335.1479,36,80,0
335.1522,335.2513,33,80,0
335.25565,335.41882,29,120,0
335.58896,335.91882,41,120,0
335.58896,335.91882,36,120,0
335.58896,335.91882,33,120,0
335.58896,335.91882,29,120,0
335.9223,336.25217,41,120,0
335.9223,336.25217,36,120,0
335.9223,336.25217,33,120,0
335.9223,336.25217,29,120,0
336.25565,336.58548,41,120,0
336.25565,336.58548,36,120,0
336.25565,336.58548,33,120,0
336.25565,336.58548,29,120,0
336.58896,336.91882,41,120,0
336.58896,336.91882,36,120,0
336.58896,336.91882,33,120,0
336.58896,336.91882,29,120,0
336.9223,337.25217,41,120,0
336.9223,337.25217,36,120,0
336.9223,337.25217,33,120,0
336.9223,337.25217,29,120,0
337.25565,338.75217,29,120,0
337.25565,338.75217,33,120,0
337.25565,338.75217,36,120,0
337.25565,338.75217,41,120,0
338.7556,339.16882,33,80,0
339.1723,339.25217,36,80,0
339.2556,339.75217,41,80,0
339.7556,340.16882,45,80,0
340.1723,340.25217,48,80,0
340.2556,340.75217,53,80,0
340.7556,341.25217,41,80,0
341.58896,341.91882,48,120,0
341.58896,341.91882,43,120,0
341.58896,341.91882,40,120,0
341.9223,342.25217,48,120,0
341.9223,342.25217,43,120,0
341.9223,342.25217,40,120,0
342.2556,342.58548,48,120,0
342.2556,342.58548,43,120,0
342.2556,342.58548,40,120,0
342.58896,342.91882,48,120,0
342.58896,342.91882,43,120,0
342.58896,342.91882,40,120,0
342.9223,343.25217,48,120,0
342.9223,343.25217,43,120,0
342.9223,343.25217,40,120,0
343.2556,344.25217,67,80,0
343.2556,344.25217,64,80,0
344.2556,345.25214,68,80,0
344.2556,345.25214,65,80,0
345.58896,345.91882,48,120,0
345.58896,345.91882,43,120,0
345.58896,345.91882,40,120,0
345.9223,346.25214,48,120,0
345.9223,346.25214,43,120,0
345.9223,346.25214,40,120,0
346.2556,346.58548,48,120,0
346.2556,346.58548,43,120,0
346.2556,346.58548,40,120,0
346.58896,346.91882,48,120,0
346.58896,346.91882,43,120,0
346.58896,346.91882,40,120,0
346.9223,347.25214,48,120,0
346.9223,347.25214,43,120,0
346.9223,347.25214,40,120,0
347.2556,348.25214,67,80,0
347.2556,348.25214,64,80,0
348.2556,349.25214,68,80,0
348.2556,349.25214,65,80,0
349.58896,349.91882,52,120,0
349.58896,349.91882,46,120,0
349.58896,349.91882,43,120,0
349.92227,350.25214,52,120,0
349.92227,350.25214,46,120,0
349.92227,350.25214,43,120,0
350.2556,350.58548,52,120,0
350.2556,350.58548,46,120,0
350.2556,350.58548,43,120,0
350.58896,350.91882,52,120,0
350.58896,350.91882,46,120,0
350.58896,350.91882,43,120,0
350.92227,351.25214,52,120,0
350.92227,351.25214,46,120,0
350.92227,351.25214,43,120,0
351.2556,352.25214,70,80,0
351.2556,352.25214,67,80,0
352.2556,353.25214,72,80,0
352.2556,353.25214,68,80,0
353.58896,353.91882,55,120,0
353.58896,353.91882,52,120,0
353.58896,353.91882,49,120,0
353.58896,353.91882,46,120,0
353.92227,354.25214,67,120,0
353.92227,354.25214,64,120,0
353.92227,354.25214,61,120,0
353.92227,354.25214,58,120,0
354.2556,354.58548,67,120,0
354.2556,354.58548,64,120,0
354.2556,354.58548,61,120,0
354.2556,354.58548,58,120,0
354.58896,354.91882,67,120,0
354.58896,354.91882,64,120,0
354.58896,354.91882,61,120,0
354.58896,354.91882,58,120,0
354.92227,355.25214,67,120,0
354.92227,355.25214,64,120,0
354.92227,355.25214,61,120,0
354.92227,355.25214,58,120,0
355.2556,356.45145,73,120,0
355.2556,356.45145,70,120,0
356.45563,357.65146,74,120,0
356.45563,357.65146,71,120,0
357.6556,357.81882,60,120,0
357.82227,357.98547,72,80,0
357.98895,358.15213,72,80,0
358.1556,358.31882,72,80,0
358.32227,358.48547,72,80,0
358.48895,358.65213,72,80,0
358.6556,358.81882,72,80,0
358.82227,358.98547,72,80,0
358.98895,359.15213,72,80,0
359.1556,359.31882,72,80,0
359.32227,359.48547,72,80,0
359.48895,359.65213,72,80,0
359.82227,359.98547,72,80,0
359.98895,360.15213,72,80,0
360.1556,360.31882,68,80,0
360.1556,360.31882,65,80,0
360.32227,360.48547,72,80,0
360.48895,360.65213,72,80,0
360.6556,360.81882,72,80,0
360.82227,360.98547,72,80,0
360.98895,361.15213,72,80,0
361.1556,361.31882,72,80,0
361.32227,361.48547,72,80,0
361.48895,361.65213,72,80,0
361.82227,361.98547,72,80,0
361.98895,362.15213,72,80,0
362.1556,362.31882,68,80,0
362.1556,362.31882,65,80,0
362.32227,362.48547,72,80,0
362.48895,362.65213,72,80,0
362.6556,362.81882,68,80,0
362.6556,362.81882,65,80,0
362.82227,362.98547,72,80,0
362.98895,363.15213,72,80,0
363.1556,363.31882,68,80,0
363.1556,363.31882,65,80,0
363.32227,363.48547,72,80,0
363.48895,363.65213,72,80,0
363.6556,363.8188,67,80,0
363.6556,363.8188,64,80,0
363.82227,363.98547,60,80,0
363.98895,364.15213,60,80,0
364.1556,364.3188,60,80,0
364.32227,364.48547,60,80,0
364.48895,364.65213,60,80,0
364.6556,364.8188,60,80,0
364.82227,364.98547,60,80,0
364.98895,365.15213,60,80,0
365.1556,365.3188,60,80,0
365.32227,365.48547,60,80,0
365.48895,365.65213,60,80,0
365.6556,365.8188,60,80,0
365.82227,365.98547,60,80,0
365.98895,366.15213,60,80,0
366.1556,366.3188,60,80,0
366.32227,366.48547,60,80,0
366.48895,366.65213,60,80,0
366.6556,366.8188,60,80,0
366.82227,366.98547,60,80,0
366.98895,367.15213,60,80,0
367.1556,367.3188,58,80,0
367.1556,367.3188,55,80,0
367.32227,367.48547,60,80,0
367.48892,367.65213,60,80,0
367.6556,367.8188,60,80,0
367.82227,367.98547,60,80,0
367.98892,368.15213,60,80,0
368.1556,368.3188,60,80,0
368.32227,368.48547,60,80,0
368.48892,368.65213,60,80,0
368.6556,368.8188,60,80,0
368.82227,368.98547,60,80,0
368.98892,369.15213,60,80,0
369.1556,369.3188,56,80,0
369.1556,369.3188,53,80,0
369.32227,369.48547,60,80,0
369.48892,369.65213,60,80,0
369.82227,369.98547,60,80,0
369.98892,370.15213,60,80,0
370.1556,370.3188,56,80,0
370.1556,370.3188,53,80,0
370.32227,370.48547,60,80,0
370.48892,370.65213,60,80,0
370.6556,370.8188,56,80,0
370.6556,370.8188,53,80,0
370.82227,370.98547,60,80,0
370.98892,371.15213,60,80,0
371.1556,371.3188,56,80,0
371.1556,371.3188,53,80,0
371.32227,371.48547,60,80,0
371.48892,371.65213,60,80,0
371.82227,371.98547,60,80,0
371.98892,372.15213,60,80,0
372.1556,372.3188,55,80,0
372.1556,372.3188,52,80,0
372.32227,372.48547,60,80,0
372.48892,372.65213,60,80,0
372.82227,372.98547,60,80,0
372.98892,373.15213,60,79,0
373.1556,373.3188,54,79,0
373.1556,373.3188,51,79,0
373.32227,373.48547,60,78,0
373.48892,373.65213,60,78,0
373.82227,373.98544,60,76,0
373.98892,374.15213,60,76,0
374.1556,374.3188,53,75,0
374.1556,374.3188,50,75,0
374.32227,374.48544,60,75,0
374.48892,374.65213,60,74,0
374.82227,374.98544,60,73,0
374.98892,375.15213,60,72,0
375.1556,375.3188,53,72,0
375.1556,375.3188,49,72,0
375.32227,375.48544,60,71,0
375.48892,375.65213,60,71,0
375.82227,375.98544,48,70,0
375.98892,376.15213,48,70,0
376.1556,376.3188,48,70,0
376.32227,376.48544,48,70,0
376.48892,376.65213,48,70,0
376.6556,376.8188,48,70,0
376.82227,376.98544,48,70,0
376.98892,377.15213,48,70,0
377.1556,377.3188,48,70,0
377.32227,377.48544,48,70,0
377.48892,377.65213,48,70,0
377.82227,377.98544,36,70,0
377.98892,378.15213,36,70,0
378.15558,378.3188,36,70,0
378.32227,378.48544,36,70,0
378.48892,378.65213,36,70,0
378.65558,378.8188,36,70,0
378.82227,378.98544,36,70,0
378.98892,379.15213,36,70,0
379.15558,379.3188,36,70,0
379.32227,379.48544,36,70,0
379.48892,379.65213,36,70,0
379.65558,379.83917,29,70,0
379.84308,380.02667,41,70,0
379.84308,380.02667,36,70,0
379.84308,380.02667,33,70,0
380.03058,380.21417,29,70,0
380.21808,380.40167,41,70,0
380.21808,380.40167,36,70,0
380.21808,380.40167,33,70,0
380.40558,380.58917,29,70,0
380.59308,380.77667,41,70,0
380.59308,380.77667,36,70,0
380.59308,380.77667,33,70,0
380.78058,380.96417,29,70,0
380.96808,381.15167,41,70,0
380.96808,381.15167,36,70,0
380.96808,381.15167,33,70,0
381.15558,381.33917,29,70,0
381.34308,381.52667,41,70,0
381.34308,381.52667,36,70,0
381.34308,381.52667,33,70,0
381.53058,381.71417,29,70,0
381.71808,381.90167,41,70,0
381.71808,381.90167,36,70,0
381.71808,381.90167,33,70,0
381.90558,382.08917,29,70,0
382.09308,382.27667,41,70,0
382.09308,382.27667,36,70,0
382.09308,382.27667,33,70,0
382.28058,382.46417,29,70,0
382.46808,382.65167,41,70,0
382.46808,382.65167,36,70,0
382.46808,382.65167,33,70,0
382.65558,382.83917,29,70,0
382.84308,383.02667,41,70,0
382.84308,383.02667,36,70,0
382.84308,383.02667,33,70,0
383.03058,383.21417,31,70,0
383.21808,383.40167,43,70,0
383.21808,383.40167,40,70,0
383.21808,383.40167,34,70,0
383.40558,383.58917,31,70,0
383.59308,383.77667,43,70,0
383.59308,383.77667,40,70,0
383.59308,383.77667,34,70,0
383.78058,383.96417,31,70,0
383.96808,384.15167,43,70,0
383.96808,384.15167,40,70,0
383.96808,384.15167,34,70,0
384.15558,384.33917,33,70,0
384.34308,384.52667,45,70,0
384.34308,384.52667,41,70,0
384.34308,384.52667,36,70,0
384.53058,384.71417,33,70,0
384.71808,384.90167,45,70,0
384.71808,384.90167,41,70,0
384.71808,384.90167,36,70,0
384.90558,385.08917,33,70,0
385.09308,385.27667,45,70,0
385.09308,385.27667,41,70,0
385.09308,385.27667,36,70,0
385.28058,385.46417,33,70,0
385.46808,385.65167,45,70,0
385.46808,385.65167,41,70,0
385.46808,385.65167,36,70,0
385.65558,385.83917,33,70,0
385.84308,386.02667,41,70,0
386.03058,386.21417,34,70,0
386.21808,386.40167,41,70,0
386.40558,386.58917,36,70,0
386.59308,386.77667,41,70,0
386.78058,386.96417,36,70,0
386.96808,387.15167,41,70,0
387.15558,387.33917,36,70,0
387.34308,387.52667,41,70,0
387.53058,387.71417,36,70,0
387.71808,387.90167,40,70,0
387.90558,388.08917,36,70,0
388.09308,388.27667,40,70,0
388.28058,388.46417,36,70,0
388.46808,388.65167,40,70,0
388.65558,388.83917,41,70,0
388.84308,389.02667,45,71,0
388.84308,389.02667,48,71,0
388.84308,389.02667,53,71,0
389.03058,389.21417,41,72,0
389.21808,389.40167,45,73,0
389.21808,389.40167,48,73,0
389.21808,389.40167,53,73,0
389.40558,389.58917,41,74,0
389.59308,389.77667,45,75,0
389.59308,389.77667,48,75,0
389.59308,389.77667,53,75,0
389.78058,389.96417,41,76,0
389.96808,390.15167,45,77,0
389.96808,390.15167,48,77,0
389.96808,390.15167,53,77,0
390.15558,390.33917,41,79,0
390.34308,390.52667,45,80,0
390.34308,390.52667,48,80,0
390.34308,390.52667,53,80,0
390.53058,390.71417,41,81,0
390.71808,390.90167,45,82,0
390.71808,390.90167,48,82,0
390.71808,390.90167,53,82,0
390.90558,391.08917,41,83,0
391.09308,391.27667,45,84,0
391.09308,391.27667,48,84,0
391.09308,391.27667,53,84,0
391.28058,391.46417,41,85,0
391.46808,391.65167,45,87,0
391.46808,391.65167,48,87,0
391.46808,391.65167,53,87,0
391.65558,391.83917,41,88,0
391.84308,392.02667,45,89,0
391.84308,392.02667,48,89,0
391.84308,392.02667,53,89,0
392.03058,392.21417,43,90,0
392.21808,392.40167,46,90,0
392.21808,392.40167,48,90,0
392.21808,392.40167,55,90,0
392.40558,392.6082,43,90,0
392.6125,392.81506,46,90,0
392.6125,392.81506,48,90,0
392.6125,392.81506,55,90,0
392.8194,393.04535,43,90,0
393.05014,393.27612,46,90,0
393.05014,393.27612,48,90,0
393.05014,393.27612,55,90,0
393.2809,396.04535,45,80,0
393.2809,396.04535,48,80,0
393.2809,396.04535,53,80,0
393.2809,396.04535,57,80,0
396.05014,396.60873,53,110,0
396.05014,398.29623,46,110,0
396.05014,398.29623,49,110,0
396.61264,398.29623,54,110,0
398.30014,400.54623,48,80,0
398.30014,400.54623,53,80,0
398.30014,400.54623,56,80,0
400.55014,402.79623,48,80,0
400.55014,402.79623,52,80,0
400.55014,402.79623,58,80,0
413.48764,414.04623,41,80,0
413.67514,414.23373,40,80,0
414.05014,414.23373,37,80,0
413.86264,414.42123,39,80,0
414.23764,414.42123,36,80,0
414.42514,414.60873,34,80,0
414.61264,414.79623,32,80,0
414.80014,414.98373,31,80,0
414.98764,415.17123,32,80,0
415.17514,415.35873,34,80,0
415.36264,415.54623,36,80,0
415.55014,415.73373,35,80,0
415.73764,415.92123,36,80,0
415.92514,416.10873,35,80,0
416.11264,416.29623,36,80,0
416.30014,416.46802,29,110,0
416.38586,416.5537,36,110,0
416.4716,416.63943,41,110,0
416.55728,416.72516,36,110,0
416.643,416.81085,29,110,0
416.72873,416.89658,36,110,0
416.81442,416.9823,29,110,0
416.90015,417.068,36,110,0
416.98587,417.15372,29,110,0
417.07156,417.23944,36,110,0
417.1573,417.32516,29,110,0
417.243,417.41086,36,110,0
417.32874,417.49658,29,110,0
417.41443,417.5823,36,110,0
417.50015,417.668,41,110,0
417.58588,417.75372,36,110,0
417.67157,417.83945,29,110,0
417.7573,417.92514,36,110,0
417.84302,418.01086,29,110,0
417.9287,418.0966,36,110,0
418.01443,418.18228,29,110,0
418.10016,418.268,36,110,0
418.18585,418.35373,29,110,0
418.27158,418.35373,36,110,0
418.3573,418.52515,29,110,0
418.443,418.61087,37,110,0
418.52872,418.69656,41,110,0
418.61444,418.7823,37,110,0
418.70013,418.868,29,110,0
418.78586,418.95374,37,110,0
418.87158,419.03943,29,110,0
418.9573,419.12515,37,110,0
419.043,419.21088,29,110,0
419.12872,419.29657,37,110,0
419.21445,419.3823,29,110,0
419.30014,419.46802,37,110,0
419.38586,419.5537,29,110,0
419.4716,419.63943,37,110,0
419.55728,419.72516,41,110,0
419.643,419.81085,37,110,0
419.72873,419.89658,29,110,0
419.81442,419.9823,37,110,0
419.90015,420.068,29,110,0
419.98587,420.15372,37,110,0
420.07156,420.23944,29,110,0
420.1573,420.32513,37,110,0
420.243,420.41086,29,110,0
420.32874,420.41086,37,110,0
420.41443,421.9537,30,125,0
420.41443,421.9537,42,125,0
421.9573,422.46802,43,125,0
421.9573,422.46802,31,125,0
422.12872,422.63943,34,125,0
422.30014,422.81085,37,125,0
422.4716,422.9823,40,125,0
422.643,422.9823,43,125,0
422.81442,422.9823,46,125,0
422.98587,423.15372,49,125,0
423.1573,423.32513,49,125,0
423.3287,423.49658,49,125,0
423.50015,424.01086,49,125,0
424.01443,424.52515,48,125,0
424.52872,424.69656,41,110,0
424.61444,424.7823,48,110,0
424.70013,424.868,53,110,0
424.78586,424.9537,48,110,0
424.87158,425.03943,41,110,0
424.95728,425.12515,48,110,0
425.043,425.21085,41,110,0
425.12872,425.29657,48,110,0
425.21445,425.3823,41,110,0
425.30014,425.46802,48,110,0
425.38586,425.5537,41,110,0
425.4716,425.63943,48,110,0
425.55728,425.72516,41,110,0
425.643,425.81085,48,110,0
425.72873,425.89658,53,110,0
425.81442,425.9823,48,110,0
425.90015,426.068,41,110,0
425.98587,426.15372,48,110,0
426.07156,426.23944,41,110,0
426.1573,426.32513,48,110,0
426.243,426.41086,41,110,0
426.3287,426.49658,48,110,0
426.41443,426.58228,41,110,0
426.50015,426.58228,48,110,0
426.58585,426.75372,41,110,0
426.67157,426.83945,49,110,0
426.7573,426.92514,53,110,0
426.84302,427.01086,49,110,0
426.9287,427.0966,41,110,0
427.01443,427.18228,49,110,0
427.10016,427.268,41,110,0
427.18585,427.35373,49,110,0
427.27158,427.43942,41,110,0
427.3573,427.52515,49,110,0
427.443,427.61087,41,110,0
427.52872,427.69656,49,110,0
427.61444,427.7823,41,110,0
427.70013,427.868,49,110,0
427.78586,427.9537,53,110,0
427.87158,428.03943,49,110,0
427.95728,428.12515,41,110,0
428.043,428.21085,49,110,0
428.12872,428.29657,41,110,0
428.21442,428.3823,49,110,0
428.30014,428.46802,41,110,0
428.38586,428.5537,49,110,0
428.4716,428.63943,41,110,0
428.55728,428.63943,49,110,0
428.643,430.18228,42,125,0
428.643,430.18228,54,125,0
430.18585,430.69656,55,125,0
430.18585,430.69656,43,125,0
430.3573,430.868,46,125,0
430.3573,430.868,58,125,0
430.52872,431.03943,49,125,0
430.52872,431.03943,61,125,0
430.70013,431.21085,64,125,0
430.70013,431.21085,52,125,0
430.87158,431.3823,67,125,0
430.87158,431.3823,55,125,0
431.21442,431.3823,73,125,0
431.21442,431.3823,61,125,0
431.043,431.5537,70,125,0
431.043,431.5537,58,125,0
431.38586,431.5537,73,125,0
431.38586,431.5537,61,125,0
431.55728,431.72516,73,125,0
431.55728,431.72516,61,125,0
431.72873,432.23944,73,125,0
431.72873,432.23944,61,125,0
432.243,432.75372,72,125,0
432.243,432.75372,60,125,0
432.7573,433.268,65,121,0
433.27158,433.7823,64,110,0
433.78586,434.29657,73,121,0
434.30014,434.81085,72,110,0
434.81442,435.83942,71,120,0
434.90015,435.83942,74,120,0
434.98587,435.83942,77,120,0
435.07156,435.83942,80,120,0
435.843,436.868,72,120,0
435.9287,436.868,76,120,0
436.01443,436.868,79,120,0
436.87158,437.3823,68,80,0
436.87158,437.3823,65,80,0
437.38586,437.89658,73,80,0
437.38586,437.89658,70,80,0
437.90015,438.41086,72,80,0
437.90015,438.41086,68,80,0
438.41443,438.92514,72,100,0
438.41443,438.92514,70,100,0
438.41443,438.92514,67,100,0
438.9287,439.43942,68,80,0
438.9287,439.43942,65,80,0
439.443,439.9537,61,80,0
439.443,439.9537,58,80,0
439.95728,440.468,60,80,0
439.95728,440.468,56,80,0
440.47156,440.98227,60,100,0
440.47156,440.98227,58,100,0
440.47156,440.98227,55,100,0
440.98584,441.49658,56,80,0
440.98584,441.49658,53,80,0
441.50015,442.01086,49,80,0
441.50015,442.01086,46,80,0
442.01443,442.52515,48,80,0
442.01443,442.52515,44,80,0
442.52872,443.03943,48,100,0
442.52872,443.03943,46,100,0
442.52872,443.03943,43,100,0
443.043,444.068,41,80,0
444.07156,444.58228,36,76,0
444.58585,445.09656,32,73,0
445.10013,446.63943,29,70,0
446.643,447.068,32,70,0
447.07156,447.15372,36,70,0
447.1573,447.668,41,70,0
447.67157,448.09656,44,70,0
448.10013,448.18228,48,70,0
448.18585,448.69656,53,70,0
448.70013,449.21085,41,70,0
449.21442,450.7537,42,70,0
450.7573,451.18228,48,70,0
451.18585,451.268,51,70,0
451.27158,451.7823,54,70,0
451.78586,452.21085,60,70,0
452.21442,452.29657,63,70,0
452.30014,452.81085,66,70,0
452.81442,453.32513,54,70,0
453.3287,453.83942,53,70,0
453.843,454.268,56,73,0
454.27158,454.3537,61,75,0
454.35727,454.86798,65,76,0
454.87155,455.38226,53,79,0
455.4287,455.8537,51,82,0
455.81442,455.89658,54,84,0
455.90015,456.32513,56,84,0
456.3287,456.41086,60,87,0
456.41443,456.8572,63,87,0
456.8611,456.95096,66,89,0
456.95486,457.45438,68,90,0
457.46063,457.60437,72,82,0
457.61063,457.82047,61,81,0
457.82492,457.99277,73,80,0
457.82492,457.99277,68,80,0
457.82492,457.99277,65,80,0
457.99634,458.1642,61,80,0
458.1678,458.33563,73,80,0
458.1678,458.33563,68,80,0
458.1678,458.33563,65,80,0
458.3392,458.50705,61,80,0
458.51062,458.6785,73,80,0
458.51062,458.6785,68,80,0
458.51062,458.6785,65,80,0
458.68207,458.8499,61,80,0
458.8535,459.02133,73,80,0
458.8535,459.02133,68,80,0
458.8535,459.02133,65,80,0
459.0249,459.19278,61,80,0
459.19635,459.3642,73,80,0
459.19635,459.3642,68,80,0
459.19635,459.3642,65,80,0
459.36777,459.5356,61,80,0
459.5392,459.70706,73,80,0
459.5392,459.70706,68,80,0
459.5392,459.70706,65,80,0
459.71063,459.87848,61,80,0
459.88205,460.04993,73,80,0
459.88205,460.04993,68,80,0
459.88205,460.04993,65,80,0
460.0535,460.22134,61,80,0
460.2249,460.39276,73,80,0
460.2249,460.39276,68,80,0
460.2249,460.39276,65,80,0
460.39633,460.5642,61,80,0
460.56778,460.73563,73,80,0
460.56778,460.73563,68,80,0
460.56778,460.73563,65,80,0
460.7392,460.90704,63,80,0
460.9106,461.0785,75,80,0
460.9106,461.0785,68,80,0
460.9106,461.0785,66,80,0
461.08206,461.2499,63,80,0
461.25348,461.42136,75,80,0
461.25348,461.42136,68,80,0
461.25348,461.42136,66,80,0
461.42493,461.59277,63,80,0
461.59634,461.7642,75,80,0
461.59634,461.7642,68,80,0
461.59634,461.7642,66,80,0
461.76776,461.93564,65,80,0
461.9392,462.10706,77,80,0
461.9392,462.10706,73,80,0
461.9392,462.10706,68,80,0
462.11063,462.27847,65,80,0
462.28204,462.44992,77,80,0
462.28204,462.44992,73,80,0
462.28204,462.44992,68,80,0
462.4535,462.62134,65,80,0
462.6249,462.79276,77,80,0
462.6249,462.79276,73,80,0
462.6249,462.79276,68,80,0
462.79636,462.9642,65,80,0
462.96777,463.13562,77,80,0
462.96777,463.13562,73,80,0
462.96777,463.13562,68,80,0
463.1392,463.30707,65,80,0
463.31064,463.4785,73,80,0
463.31064,463.4785,68,80,0
463.48206,463.6499,65,80,0
463.65347,463.82135,73,80,0
463.65347,463.82135,68,80,0
463.82492,463.99277,65,80,0
463.99634,464.16418,77,80,0
463.99634,464.16418,73,80,0
463.99634,464.16418,68,80,0
464.16776,464.33563,65,81,0
464.3392,464.50705,77,82,0
464.3392,464.50705,73,82,0
464.3392,464.50705,68,82,0
464.51062,464.6785,65,83,0
464.68207,464.8499,77,84,0
464.68207,464.8499,73,84,0
464.68207,464.8499,68,84,0
464.8535,465.02133,66,85,0
465.0249,465.19278,75,85,0
465.0249,465.19278,72,85,0
465.0249,465.19278,69,85,0
465.19635,465.3642,66,86,0
465.36777,465.5356,75,87,0
465.36777,465.5356,72,87,0
465.36777,465.5356,69,87,0
465.53918,465.70706,66,88,0
465.71063,465.87848,75,89,0
465.71063,465.87848,72,89,0
465.71063,465.87848,69,89,0
465.88205,466.04993,65,90,0
466.0535,466.22134,68,91,0
466.0535,466.22134,71,91,0
466.0535,466.22134,74,91,0
466.2249,466.39276,65,91,0
466.39633,466.5642,68,92,0
466.39633,466.5642,71,92,0
466.39633,466.5642,74,92,0
466.56778,466.73563,65,93,0
466.7392,466.90704,68,94,0
466.7392,466.90704,71,94,0
466.7392,466.90704,74,94,0
466.9106,467.0785,65,95,0
467.08206,467.2499,68,96,0
467.08206,467.2499,71,96,0
467.08206,467.2499,74,96,0
467.25348,467.42133,65,97,0
467.4249,467.59277,68,97,0
467.4249,467.59277,71,97,0
467.4249,467.59277,74,97,0
467.59634,467.7642,65,98,0
467.76776,467.93564,68,99,0
467.76776,467.93564,71,99,0
467.76776,467.93564,74,99,0
467.9392,468.10706,64,100,0
468.11063,468.27847,67,100,0
468.11063,468.27847,72,100,0
468.11063,468.27847,76,100,0
468.28204,468.44992,64,100,0
468.4535,468.62134,67,100,0
468.4535,468.62134,72,100,0
468.4535,468.62134,76,100,0
468.6249,468.79276,64,101,0
468.79633,468.9642,67,101,0
468.79633,468.9642,72,101,0
468.79633,468.9642,76,101,0
468.96777,469.13562,64,101,0
469.1392,469.30707,67,101,0
469.1392,469.30707,72,101,0
469.1392,469.30707,76,101,0
469.31064,469.4785,64,102,0
469.48206,469.6499,67,102,0
469.48206,469.6499,72,102,0
469.48206,469.6499,76,102,0
469.65347,469.82135,64,102,0
469.82492,469.99277,67,103,0
469.82492,469.99277,72,103,0
469.82492,469.99277,76,103,0
469.99634,470.16418,58,103,0
470.16776,470.33563,61,103,0
470.16776,470.33563,64,103,0
470.16776,470.33563,67,103,0
470.3392,470.50705,58,103,0
470.51062,470.67847,61,104,0
470.51062,470.67847,64,104,0
470.51062,470.67847,67,104,0
470.68207,470.8499,58,104,0
470.8535,471.02133,61,104,0
470.8535,471.02133,64,104,0
470.8535,471.02133,67,104,0
471.0249,471.19278,58,105,0
471.19635,471.3642,61,105,0
471.19635,471.3642,64,105,0
471.19635,471.3642,67,105,0
471.36777,471.5356,58,105,0
471.53918,471.70706,61,105,0
471.53918,471.70706,64,105,0
471.53918,471.70706,67,105,0
471.71063,471.87848,58,106,0
471.88205,472.0499,61,106,0
471.88205,472.0499,64,106,0
471.88205,472.0499,67,106,0
472.05347,472.22134,56,106,0
472.2249,472.39276,68,107,0
472.2249,472.39276,65,107,0
472.2249,472.39276,60,107,0
472.39633,472.5642,56,107,0
472.56778,472.73563,68,107,0
472.56778,472.73563,65,107,0
472.56778,472.73563,60,107,0
472.7392,472.90704,56,107,0
472.9106,473.0785,68,108,0
472.9106,473.0785,65,108,0
472.9106,473.0785,60,108,0
473.08206,473.2499,56,108,0
473.25348,473.42133,68,108,0
473.25348,473.42133,65,108,0
473.25348,473.42133,60,108,0
473.4249,473.59277,56,109,0
473.59634,473.7642,68,109,0
473.59634,473.7642,65,109,0
473.59634,473.7642,60,109,0
473.76776,473.9356,56,109,0
473.9392,474.10706,68,109,0
473.9392,474.10706,65,109,0
473.9392,474.10706,60,109,0
474.11063,474.62134,46,120,0
474.11063,474.62134,34,120,0
474.4535,474.87848,49,120,0
474.53918,474.9642,54,120,0
474.6249,475.0499,58,120,0
474.96777,475.39276,54,120,0
475.05347,475.4785,58,120,0
475.1392,475.56418,61,120,0
475.48206,475.90704,58,120,0
475.56778,475.99277,61,120,0
475.65347,476.0785,66,120,0
475.99634,476.42133,61,120,0
476.08206,476.50705,66,120,0
476.16776,476.59277,70,120,0
476.51062,476.9356,66,120,0
476.59634,477.02133,70,120,0
476.68204,477.10706,73,120,0
477.0249,477.44992,70,120,0
477.11063,477.5356,73,120,0
477.19635,477.62134,78,120,0
477.53918,477.9642,73,120,0
477.6249,478.0499,78,120,0
477.71063,478.13562,82,120,0
478.2249,478.73563,51,120,0
478.56775,478.73563,51,120,0
478.2249,478.73563,39,120,0
478.65347,479.0785,57,120,0
478.7392,479.16418,60,120,0
479.08206,479.50705,57,120,0
479.16776,479.59277,60,120,0
479.25348,479.67847,63,120,0
479.59634,480.02133,60,120,0
479.68204,480.10706,63,120,0
479.76776,480.19275,69,120,0
480.11063,480.5356,63,120,0
480.19632,480.62134,69,120,0
480.28204,480.70706,72,120,0
480.6249,481.0499,69,120,0
480.71063,481.13562,72,120,0
480.79633,481.22134,75,120,0
481.1392,481.56418,72,120,0
481.2249,481.6499,75,120,0
481.3106,481.73563,81,120,0
481.65347,482.0785,75,120,0
481.7392,482.16418,81,120,0
481.8249,482.2499,84,120,0
482.3392,482.8499,49,120,0
482.3392,482.8499,37,120,0
482.68204,483.10706,53,120,0
482.76776,483.19275,58,120,0
482.8535,483.27847,61,120,0
483.36777,483.87848,52,120,0
483.36777,483.87848,40,120,0
483.71063,484.13562,55,120,0
483.79633,484.22134,60,120,0
483.88205,484.30704,64,120,0
484.39633,484.90704,53,120,0
484.39633,484.90704,41,120,0
484.7392,485.16418,56,120,0
484.8249,485.2499,61,120,0
484.9106,485.33563,65,120,0
485.4249,485.9356,55,120,0
485.4249,485.9356,43,120,0
485.76776,486.19275,58,120,0
485.8535,486.27847,64,120,0
485.93918,486.3642,67,120,0
486.45346,486.87848,44,120,0
486.79633,487.22134,56,120,0
486.88205,487.30704,60,120,0
486.96777,487.39276,46,120,0
487.3106,487.73563,58,120,0
487.39633,487.82132,61,120,0
487.48206,487.90704,48,120,0
487.8249,488.2499,60,120,0
487.9106,488.3356,63,120,0
487.99634,488.42133,49,120,0
488.3392,488.7642,61,120,0
488.4249,488.8499,65,120,0
488.51062,488.9356,52,120,0
488.8535,489.27847,64,120,0
488.93918,489.3642,67,120,0
489.0249,489.4499,53,120,0
489.36777,489.79276,65,120,0
489.45346,489.87848,68,120,0
489.53918,489.96417,55,120,0
489.88205,490.30704,67,120,0
489.96777,490.39276,70,120,0
490.05347,490.4785,56,120,0
490.39633,490.82132,68,120,0
490.48206,490.90704,72,120,0
490.56775,490.99277,58,120,0
490.9106,491.3356,70,120,0
490.99634,491.42133,73,120,0
491.08203,491.50705,60,120,0
491.4249,491.8499,72,120,0
491.51062,491.9356,75,120,0
491.59634,492.02133,61,120,0
491.93918,492.3642,73,120,0
492.0249,492.4499,77,120,0
492.11063,492.5356,61,120,0
492.45346,492.62134,73,120,0
492.53918,492.62134,77,120,0
492.6249,494.07846,61,120,0
492.7106,494.16418,73,120,0
492.79633,494.2499,77,120,0
494.68204,494.8499,53,120,0
494.76776,494.9356,49,120,0
494.8535,495.19275,46,120,0
494.93918,495.19275,49,120,0
495.0249,495.27847,53,120,0
495.11063,496.56418,58,120,0
496.7392,498.19275,62,120,0
496.8249,498.27847,74,120,0
496.9106,498.3642,77,120,0
499.3106,499.47845,50,120,0
499.39633,499.6499,47,120,0
499.48206,499.73563,50,120,0
499.56775,499.82132,53,120,0
499.65347,499.90704,56,120,0
499.7392,499.99277,59,120,0
500.85345,502.39276,36,120,0
502.9106,504.36417,56,120,0
502.99634,504.4499,53,120,0
503.08203,504.5356,48,120,0
503.16776,504.62134,44,120,0
503.25348,504.70703,41,120,0
503.33917,504.79276,36,120,0
504.96774,506.50705,36,120,0
505.05347,506.50705,48,120,0
505.1392,506.50705,52,120,0
505.22488,506.50705,55,120,0
505.3106,506.50705,58,120,0
506.51062,507.96417,55,120,0
506.5963,508.0499,52,120,0
506.68204,508.13562,48,120,0
506.76776,508.2213,46,120,0
506.85345,508.30704,43,120,0
506.93918,508.39276,40,120,0
509.5963,509.7642,49,80,0
509.76776,509.9356,49,80,0
510.1106,511.13562,48,80,0
509.93918,511.8505,49,80,0
511.65466,511.8505,49,80,0
511.85464,512.0505,49,80,0
512.0546,512.6505,49,80,0
512.25464,513.54346,48,80,0
514.2423,514.50934,37,80,0
514.515,514.78204,37,80,0
514.7878,515.0548,37,80,0
515.0605,515.7202,36,80,0
516.0605,516.38684,37,80,0
516.3938,516.7202,37,80,0
516.7272,517.0535,37,80,0
517.0605,517.8027,36,80,0
518.1855,518.91986,37,80,0
518.9355,519.66986,37,80,0
519.6855,520.6647,37,80,0
520.6855,523.7038,36,80,0
523.7069,523.85376,48,127,0
523.7069,523.85376,36,127,0
523.85693,524.0038,48,127,0
523.85693,524.0038,36,127,0
524.0069,524.1538,48,127,0
524.0069,524.1538,36,127,0
524.1569,524.3038,41,127,0
524.1569,524.3038,29,127,0
524.3069,524.4538,65,80,0
524.3069,524.4538,60,80,0
524.4569,524.60376,56,80,0
524.60693,524.7538,65,80,0
524.60693,524.7538,60,80,0
524.7569,524.9038,56,80,0
524.9069,525.0538,65,80,0
524.9069,525.0538,60,80,0
525.0569,525.2038,56,80,0
525.2069,525.35376,65,80,0
525.2069,525.35376,60,80,0
525.35693,525.5038,56,80,0
525.5069,525.6538,65,80,0
525.5069,525.6538,60,80,0
525.6569,525.8038,56,80,0
525.8069,525.9538,65,80,0
525.8069,525.9538,60,80,0
525.9569,526.10376,56,80,0
526.10693,526.2538,65,80,0
526.10693,526.2538,60,80,0
526.2569,526.4038,56,80,0
526.4069,526.5538,65,80,0
526.4069,526.5538,60,80,0
526.5569,526.7038,56,80,0
526.7069,526.85376,65,80,0
526.7069,526.85376,60,80,0
526.85693,527.0038,58,80,0
527.0069,527.1538,67,80,0
527.0069,527.1538,60,80,0
527.1569,527.3038,58,80,0
527.3069,527.4538,67,80,0
527.3069,527.4538,60,80,0
527.4569,527.60376,58,80,0
527.60693,527.7538,67,80,0
527.60693,527.7538,60,80,0
527.7569,527.9038,56,80,0
527.9069,528.0538,60,80,0
527.9069,528.0538,65,80,0
528.0569,528.2038,56,80,0
528.2069,528.35376,60,80,0
528.2069,528.35376,65,80,0
528.35693,528.5038,56,80,0
528.5069,528.6538,60,80,0
528.5069,528.6538,65,80,0
528.6569,528.8038,56,80,0
528.8069,528.9538,60,80,0
528.8069,528.9538,65,80,0
528.9569,529.10376,56,80,0
529.10693,529.2538,60,80,0
529.10693,529.2538,65,80,0
529.2569,529.4038,56,80,0
529.4069,529.5538,60,80,0
529.4069,529.5538,65,80,0
529.5569,529.7038,56,80,0
529.7069,529.85376,60,80,0
529.7069,529.85376,65,80,0
529.7069,529.85376,68,80,0
529.85693,530.0038,56,81,0
530.0069,530.1538,60,82,0
530.0069,530.1538,65,82,0
530.0069,530.1538,68,82,0
530.1569,530.3038,56,83,0
530.3069,530.4538,60,84,0
530.3069,530.4538,65,84,0
530.3069,530.4538,68,84,0
530.4569,530.60376,58,85,0
530.60693,530.7538,60,85,0
530.60693,530.7538,64,85,0
530.60693,530.7538,67,85,0
530.7569,530.9038,58,86,0
530.9069,531.0538,60,87,0
530.9069,531.0538,64,87,0
530.9069,531.0538,67,87,0
531.0569,531.2038,58,88,0
531.2069,531.35376,60,89,0
531.2069,531.35376,64,89,0
531.2069,531.35376,67,89,0
531.35693,531.5038,57,90,0
531.5069,531.6538,63,91,0
531.5069,531.6538,66,91,0
531.5069,531.6538,60,91,0
531.6569,531.8038,57,91,0
531.8069,531.9538,63,92,0
531.8069,531.9538,66,92,0
531.8069,531.9538,60,92,0
531.9569,532.10376,57,93,0
532.10693,532.2538,63,94,0
532.10693,532.2538,66,94,0
532.10693,532.2538,60,94,0
532.2569,532.4038,57,95,0
532.4069,532.5538,63,96,0
532.4069,532.5538,66,96,0
532.4069,532.5538,60,96,0
532.5569,532.7038,57,97,0
532.7069,532.85376,63,97,0
532.7069,532.85376,66,97,0
532.7069,532.85376,60,97,0
532.85693,533.0038,57,98,0
533.0069,533.1538,63,99,0
533.0069,533.1538,66,99,0
533.0069,533.1538,60,99,0
533.1569,533.3038,57,100,0
533.3069,533.4538,60,100,0
533.3069,533.4538,63,100,0
533.3069,533.4538,65,100,0
533.4569,533.60376,57,100,0
533.60693,533.7538,61,100,0
533.60693,533.7538,65,100,0
533.7569,533.9038,58,100,0
533.9069,534.0538,61,100,0
533.9069,534.0538,65,100,0
534.0569,534.2038,58,100,0
534.2069,534.35376,61,100,0
534.2069,534.35376,65,100,0
534.35693,534.5038,58,100,0
534.5069,534.6538,64,100,0
534.5069,534.6538,67,100,0
534.6569,534.8038,58,100,0
534.8069,534.9538,64,100,0
534.8069,534.9538,67,100,0
534.9569,535.10376,48,100,0
535.10693,535.2538,53,100,0
535.10693,535.2538,56,100,0
535.10693,535.2538,60,100,0
535.2569,535.4038,48,100,0
535.4069,535.5538,53,100,0
535.4069,535.5538,56,100,0
535.4069,535.5538,60,100,0
535.5569,535.7038,48,100,0
535.7069,535.85376,53,100,0
535.7069,535.85376,56,100,0
535.7069,535.85376,60,100,0
535.85693,536.0038,46,100,0
536.0069,536.1538,48,100,0
536.0069,536.1538,52,100,0
536.0069,536.1538,55,100,0
536.1569,536.3038,46,100,0
536.3069,536.4538,48,100,0
536.3069,536.4538,52,100,0
536.3069,536.4538,55,100,0
536.4569,536.60376,46,100,0
536.60693,536.7538,48,100,0
536.60693,536.7538,52,100,0
536.60693,536.7538,55,100,0
536.7569,536.9038,45,100,0
536.9069,537.0538,51,100,0
536.9069,537.0538,54,100,0
536.9069,537.0538,57,100,0
537.0569,537.2038,45,100,0
537.2069,537.35376,51,100,0
537.2069,537.35376,54,100,0
537.2069,537.35376,57,100,0
537.35693,537.5038,45,100,0
537.5069,537.6538,51,100,0
537.5069,537.6538,54,100,0
537.5069,537.6538,57,100,0
537.6569,537.8038,45,100,0
537.8069,537.9538,51,100,0
537.8069,537.9538,54,100,0
537.8069,537.9538,57,100,0
537.9569,538.10376,45,100,0
538.10693,538.2538,51,100,0
538.10693,538.2538,54,100,0
538.10693,538.2538,57,100,0
538.2569,538.4038,45,100,0
538.4069,538.5538,51,100,0
538.4069,538.5538,54,100,0
538.4069,538.5538,57,100,0
538.5569,538.7038,45,100,0
538.7069,538.85376,51,100,0
538.7069,538.85376,53,100,0
538.7069,538.85376,57,100,0
538.85693,539.0038,45,100,0
539.0069,539.1538,49,101,0
539.0069,539.1538,53,101,0
539.0069,539.1538,58,101,0
539.1569,539.3038,46,101,0
539.3069,539.4538,49,102,0
539.3069,539.4538,53,102,0
539.3069,539.4538,58,102,0
539.4569,539.60376,46,102,0
539.60693,539.7538,49,102,0
539.60693,539.7538,53,102,0
539.60693,539.7538,58,102,0
539.7569,539.9038,46,103,0
539.9069,540.0538,58,103,0
539.9069,540.0538,55,103,0
539.9069,540.0538,52,103,0
540.0569,540.2038,46,104,0
540.2069,540.35376,58,104,0
540.2069,540.35376,55,104,0
540.2069,540.35376,52,104,0
540.35693,540.5038,48,104,0
540.5069,540.6538,53,105,0
540.5069,540.6538,56,105,0
540.5069,540.6538,60,105,0
540.6569,540.8038,48,105,0
540.8069,540.9538,53,106,0
540.8069,540.9538,56,106,0
540.8069,540.9538,60,106,0
540.9569,541.10376,48,106,0
541.10693,541.2538,53,107,0
541.10693,541.2538,56,107,0
541.10693,541.2538,60,107,0
541.2569,541.4038,48,107,0
541.4069,541.5538,52,107,0
541.4069,541.5538,55,107,0
541.4069,541.5538,60,107,0
541.5569,541.7038,48,108,0
541.7069,541.85376,52,108,0
541.7069,541.85376,55,108,0
541.7069,541.85376,60,108,0
541.85693,542.0038,48,109,0
542.0069,542.1538,52,109,0
542.0069,542.1538,55,109,0
542.0069,542.1538,60,109,0
542.1569,542.43964,53,110,0
542.1569,542.43964,48,110,0
542.1569,542.43964,44,110,0
542.1569,542.43964,41,110,0
542.72833,542.8682,56,110,0
542.72833,542.8682,53,110,0
542.8712,543.01105,56,110,0
542.8712,543.01105,53,110,0
543.01404,543.2968,55,110,0
543.01404,543.2968,52,110,0
543.58545,543.72534,58,110,0
543.58545,543.72534,55,110,0
543.72833,543.8682,58,110,0
543.72833,543.8682,55,110,0
543.8712,544.15393,56,110,0
543.8712,544.15393,53,110,0
544.4426,544.5825,56,110,0
544.4426,544.5825,53,110,0
544.58545,544.72534,56,110,0
544.58545,544.72534,53,110,0
544.72833,545.01105,55,110,0
544.72833,545.01105,52,110,0
545.29974,545.43964,58,110,0
545.29974,545.43964,55,110,0
545.4426,545.5825,58,110,0
545.4426,545.5825,55,110,0
545.58545,545.72534,56,110,0
545.58545,545.72534,53,110,0
545.8712,546.01105,56,110,0
545.8712,546.01105,53,110,0
546.1569,546.29675,55,110,0
546.1569,546.29675,53,110,0
546.1569,546.29675,46,110,0
546.4426,546.5825,56,110,0
546.4426,546.5825,53,110,0
546.4426,546.5825,48,110,0
546.72833,546.8682,56,110,0
546.72833,546.8682,53,110,0
546.72833,546.8682,48,110,0
547.01404,547.15393,55,110,0
547.01404,547.15393,52,110,0
547.01404,547.15393,48,110,0
547.29974,547.43964,53,110,0
547.29974,547.43964,48,110,0
547.29974,547.43964,44,110,0
547.29974,547.43964,41,110,0
547.87115,548.01105,44,110,0
547.87115,548.01105,41,110,0
548.01404,548.15393,44,110,0
548.01404,548.15393,41,110,0
548.1569,548.43964,43,110,0
548.1569,548.43964,40,110,0
548.72833,548.8682,46,110,0
548.72833,548.8682,43,110,0
548.87115,549.01105,46,110,0
548.87115,549.01105,43,110,0
549.01404,549.29675,44,110,0
549.01404,549.29675,41,110,0
549.58545,549.72534,44,110,0
549.58545,549.72534,41,110,0
549.72833,549.8682,44,110,0
549.72833,549.8682,41,110,0
549.87115,550.15393,43,110,0
549.87115,550.15393,40,110,0
550.4426,550.5825,46,110,0
550.4426,550.5825,43,110,0
550.58545,550.72534,46,110,0
550.58545,550.72534,43,110,0
550.72833,550.8682,44,110,0
550.72833,550.8682,41,110,0
551.01404,551.15393,44,110,0
551.01404,551.15393,41,110,0
551.29974,551.43964,43,110,0
551.29974,551.43964,41,110,0
551.29974,551.43964,34,110,0
551.58545,551.72534,44,110,0
551.58545,551.72534,41,110,0
551.58545,551.72534,36,110,0
551.87115,552.01105,44,110,0
551.87115,552.01105,41,110,0
551.87115,552.01105,36,110,0
552.1569,552.29675,43,110,0
552.1569,552.29675,40,110,0
552.1569,552.29675,36,110,0
552.4426,552.58246,44,110,0
552.4426,552.58246,41,110,0
552.4426,552.58246,36,110,0
552.4426,552.58246,32,110,0
552.72833,552.8682,44,110,0
552.72833,552.8682,41,110,0
552.72833,552.8682,36,110,0
552.72833,552.8682,32,110,0
553.01404,553.15393,46,110,0
553.01404,553.15393,43,110,0
553.01404,553.15393,41,110,0
553.01404,553.15393,34,110,0
553.29974,553.43964,48,110,0
553.29974,553.43964,44,110,0
553.29974,553.43964,41,110,0
553.29974,553.43964,36,110,0
553.58545,553.72534,48,110,0
553.58545,553.72534,44,110,0
553.58545,553.72534,41,110,0
553.58545,553.72534,36,110,0
553.87115,554.01105,46,110,0
553.87115,554.01105,43,110,0
553.87115,554.01105,40,110,0
553.87115,554.01105,34,110,0
554.1569,554.29675,44,120,0
554.1569,554.29675,41,120,0
554.1569,554.29675,36,120,0
554.1569,554.29675,32,120,0
554.4426,554.58246,44,120,0
554.4426,554.58246,41,120,0
554.4426,554.58246,36,120,0
554.4426,554.58246,32,120,0
554.72833,555.01105,46,120,0
554.72833,555.01105,43,120,0
554.72833,555.01105,41,120,0
554.72833,555.01105,34,120,0
555.01404,555.15393,48,120,0
555.01404,555.15393,44,120,0
555.01404,555.15393,41,120,0
555.01404,555.15393,36,120,0
555.29974,555.43964,48,120,0
555.29974,555.43964,44,120,0
555.29974,555.43964,41,120,0
555.29974,555.43964,36,120,0
555.58545,555.74866,48,120,0
555.58545,555.74866,43,120,0
555.58545,555.74866,40,120,0
555.58545,555.74866,36,120,0
555.93964,556.41003,41,110,0
555.93964,556.41003,29,110,0
556.4133,556.8837,68,80,0
556.80804,556.96265,72,80,0
556.887,557.51526,77,80,0
557.36066,557.83105,80,79,0
557.75543,557.91003,84,78,0
557.83435,558.46265,89,78,0
558.30804,558.77844,84,77,0
558.70276,558.85736,80,77,0
558.78174,559.41003,77,77,0
559.25543,559.7258,72,76,0
559.65015,559.80475,68,75,0
559.7291,560.19946,65,75,0
560.20276,560.67316,60,74,0
560.59753,560.75214,56,74,0
560.67645,561.30475,53,74,0
561.15015,561.62054,48,73,0
561.54486,561.69946,44,72,0
561.62384,562.25214,41,72,0
562.09753,562.56793,36,71,0
562.49225,562.64685,32,71,0
562.57117,563.04156,29,70,0
563.04486,563.51526,29,66,0
563.51855,564.5371,29,60,0
564.54126,566.34705,29,60,0
566.5502,571.04236,29,60,0
