start_time,end_time,note_value,velocity,instrument_program_number
0.0,0.1153845,57,97,40
0.0,1.4008399,66,97,40
0.1153845,1.4008399,74,97,40
1.7307675,1.846152,69,97,40
1.846152,1.9615365,74,97,40
1.9615365,2.1436276,78,97,40
2.6538434,2.769228,74,97,40
2.769228,2.8846126,78,97,40
2.8846126,3.0667036,81,97,40
3.5769196,3.692304,81,97,40
3.692304,3.8076885,78,97,40
3.8076885,3.9897797,74,97,40
5.4230714,5.538456,78,97,40
5.538456,5.6538405,74,97,40
5.6538405,5.836055,69,97,40
6.349828,6.4668484,74,97,40
6.4668484,6.5842314,69,97,40
6.5842314,6.7702713,66,97,40
7.297729,7.4184537,69,97,40
7.4184537,7.5397882,66,97,40
7.5397882,7.7218795,62,97,40
8.34748,8.462864,69,60,40
8.462864,10.309016,81,60,40
10.309016,11.116708,78,60,40
11.116708,11.232093,74,60,40
11.232093,11.414184,73,60,40
12.0397835,12.155169,69,60,40
12.155169,14.004434,79,60,40
14.004434,14.823272,76,60,40
14.823272,14.9411335,73,60,40
14.9411335,15.123224,74,60,40
15.862247,17.692125,74,60,40
17.692125,18.48879,74,71,40
18.602482,19.966118,74,76,40
19.966118,20.19339,73,83,40
20.19339,20.374498,71,85,40
20.420662,20.648287,71,60,40
20.648287,20.87733,69,60,40
20.87733,21.108114,67,60,40
21.108114,21.293451,66,60,40
21.340977,21.57627,66,60,40
21.57627,21.81437,64,60,40
21.81437,22.055674,62,60,40
22.055674,22.250666,61,60,40
22.30063,22.5314,62,60,40
22.5314,22.762169,66,60,40
22.762169,22.992939,69,60,40
22.992939,23.223707,67,60,40
23.223707,23.454475,66,60,40
23.454475,23.685246,64,60,40
23.685246,23.916014,62,60,40
23.916014,24.146784,61,60,40
24.146784,24.377552,62,60,40
24.377552,24.608322,64,60,40
24.608322,24.83909,66,60,40
24.83909,25.069859,67,60,40
25.069859,25.300629,69,60,40
25.300629,25.531397,71,60,40
25.531397,25.762167,73,60,40
25.762167,25.94606,74,60,40
25.992935,26.223703,69,60,40
26.223703,26.454473,73,60,40
26.454473,26.685242,76,60,40
26.685242,26.916012,74,60,40
26.916012,27.14678,73,60,40
27.14678,27.37755,71,60,40
27.37755,27.608318,69,60,40
27.608318,27.839087,68,60,40
27.839087,28.069857,69,60,40
28.069857,28.300625,71,60,40
28.300625,28.531395,73,60,40
28.531395,28.762163,74,60,40
28.762163,28.992931,76,60,40
28.992931,29.223701,78,60,40
29.223701,29.45447,79,60,40
29.45447,29.638365,76,60,40
29.68524,29.916008,74,59,40
29.916008,30.146778,78,61,40
30.146778,30.377546,81,63,40
30.377546,30.608315,79,64,40
30.608315,30.839085,78,66,40
30.839085,31.069853,76,67,40
31.069853,31.300623,74,69,40
31.300623,31.531391,73,71,40
31.531391,31.76216,74,72,40
31.76216,31.99293,76,74,40
31.99293,32.223698,78,75,40
32.223698,32.454468,79,77,40
32.454468,32.685238,81,78,40
32.685238,32.916004,83,80,40
32.916004,33.146774,84,82,40
33.146774,33.33067,85,83,40
33.377544,33.491123,86,85,40
33.60831,33.83908,86,86,40
33.83908,34.06985,85,88,40
34.06985,34.30062,86,89,40
34.30062,34.531387,85,91,40
34.531387,34.762157,86,93,40
34.762157,34.992928,88,94,40
34.992928,35.17682,86,96,40
35.223694,35.454697,85,97,40
35.454697,35.686623,86,97,40
35.686623,35.91968,88,97,40
35.91968,36.154087,86,97,40
36.154087,36.390053,85,97,40
36.390053,36.627804,86,97,40
36.627804,36.867584,88,97,40
36.867584,37.060345,86,97,40
37.109642,37.571182,85,97,40
38.03272,38.1481,57,60,40
38.1481,38.26349,67,60,40
38.26349,38.378872,66,60,40
38.378872,38.49426,67,60,40
38.49426,38.609642,69,60,40
38.609642,38.725025,67,60,40
38.725025,38.840412,66,60,40
38.840412,38.932358,67,60,40
38.955795,39.41733,79,60,40
41.72502,41.84041,66,60,40
41.84041,41.95579,74,60,40
41.95579,42.07118,73,60,40
42.07118,42.18656,74,60,40
42.18656,42.301945,76,60,40
42.301945,42.41733,74,60,40
42.41733,42.532715,73,60,40
42.532715,42.62466,74,60,40
42.648098,43.10964,78,60,40
45.417328,45.53271,57,60,40
45.53271,45.648098,67,60,40
45.648098,45.76348,66,60,40
45.76348,45.878864,67,60,40
45.878864,45.99425,69,60,40
45.99425,46.109634,67,60,40
46.109634,46.225018,66,60,40
46.225018,46.316967,67,60,40
46.340405,46.919704,79,113,40
46.919704,47.036392,78,113,40
47.036392,47.15341,76,113,40
47.15341,47.270794,74,113,40
47.270794,47.38857,73,113,40
47.38857,47.50676,71,113,40
47.50676,47.6254,69,113,40
47.6254,47.744514,67,113,40
47.744514,47.864136,66,113,40
47.864136,47.98429,64,113,40
47.98429,48.105015,62,113,40
48.105015,48.226353,61,113,40
48.226353,49.95712,62,60,40
49.95712,50.072502,62,60,40
49.95712,50.072502,69,60,40
50.072502,51.22635,78,60,40
51.22635,51.341732,77,61,40
51.341732,51.45712,78,62,40
51.45712,51.572502,79,62,40
51.572502,51.687885,78,63,40
51.687885,51.803272,77,64,40
51.803272,51.895218,78,65,40
51.918655,52.38019,86,65,40
53.76481,54.91865,86,77,40
54.91865,55.034035,85,85,40
55.034035,55.14942,86,85,40
55.14942,55.264805,88,86,40
55.264805,55.38019,86,87,40
55.38019,55.495575,85,87,40
55.495575,55.58752,86,88,40
55.61096,56.0725,76,89,40
57.45711,58.151512,76,101,40
58.151512,58.384346,78,105,40
58.384346,58.618053,80,107,40
58.618053,58.852764,81,108,40
58.852764,59.088596,83,110,40
59.088596,59.277454,85,111,40
59.325684,60.47953,86,113,40
60.47953,60.594913,85,113,40
60.594913,60.710297,83,113,40
60.710297,60.825684,81,113,40
60.825684,60.941067,80,113,40
60.941067,61.05645,78,113,40
61.05645,61.1484,76,113,40
61.171837,61.28542,74,113,40
61.402702,61.51828,73,113,40
61.51828,61.63397,71,113,40
61.63397,61.749775,69,113,40
61.749775,61.86571,68,113,40
61.86571,61.981792,66,113,40
61.981792,62.0744,64,113,40
62.098026,62.32917,62,113,40
62.564705,62.797413,62,113,40
63.034725,63.26369,61,113,40
63.49626,63.725227,73,113,40
64.41934,64.880875,73,113,40
64.880875,65.062965,75,113,40
65.342415,65.57138,75,113,40
66.26549,66.72703,75,113,40
66.72703,66.90912,76,113,40
67.18857,67.880875,86,127,40
67.880875,67.99626,85,113,40
67.99626,68.11164,83,113,40
68.11164,68.22703,81,113,40
68.22703,68.342415,80,113,40
68.342415,68.457794,78,113,40
68.457794,68.54974,76,113,40
68.57318,68.68677,74,113,40
68.80405,68.919624,73,113,40
68.919624,69.03531,71,113,40
69.03531,69.15112,69,113,40
69.15112,69.26706,68,113,40
69.26706,69.38314,66,113,40
69.38314,69.475746,64,113,40
69.49937,69.730515,62,113,40
69.96605,70.19876,62,113,40
70.43607,72.28222,61,113,40
72.28222,74.12837,63,113,40
74.12837,74.24196,64,113,40
74.359146,74.474525,66,113,40
74.474525,74.58991,68,113,40
74.58991,74.7053,69,113,40
74.7053,74.82068,71,113,40
74.82068,74.936066,73,113,40
74.936066,75.028015,75,113,40
75.05145,75.16503,76,127,40
75.28222,75.397606,78,113,40
75.397606,75.512985,80,113,40
75.512985,75.62837,81,113,40
75.62837,75.74376,83,113,40
75.74376,75.85914,85,113,40
75.85914,75.95109,87,113,40
75.974525,76.436066,88,113,40
85.07955,85.323456,62,60,40
85.323456,86.01576,78,60,40
86.01576,86.19965,74,60,40
86.24653,86.477295,78,60,40
86.477295,86.70807,76,60,40
86.70807,86.938835,74,60,40
86.938835,87.12273,73,60,40
87.1696,87.400375,76,60,40
87.400375,87.63114,74,60,40
87.63114,87.86191,73,60,40
87.86191,88.04581,71,60,40
88.09268,88.32345,74,60,40
88.32345,88.55422,73,60,40
88.55422,88.78499,71,60,40
88.78499,88.96888,69,60,40
89.015755,89.24653,73,60,40
89.24653,89.477295,71,60,40
89.477295,89.70843,69,60,40
89.70843,89.941025,68,60,40
89.941025,90.175415,66,60,40
90.175415,90.41195,64,60,40
90.41195,90.650986,66,60,40
90.650986,90.8433,68,60,40
90.89237,91.89071,71,60,40
91.89071,92.29643,69,60,40
93.33179,93.791725,81,79,40
93.791725,93.972885,78,60,40
94.25054,94.70846,80,79,40
94.70846,94.88892,77,60,40
95.165474,95.621605,78,79,40
95.621605,95.80136,75,60,40
96.077065,96.53196,76,79,40
96.53196,96.711296,73,60,40
96.9865,97.8956,74,79,40
97.8956,98.12109,70,60,40
98.35014,98.58257,71,60,40
98.828255,99.08035,66,60,40
99.347725,99.618324,59,60,40
99.89318,100.07429,66,60,40
100.07429,100.22753,71,60,40
100.22753,100.35013,74,60,40
100.38258,101.073875,78,60,40
101.073875,101.303696,74,60,40
101.303696,101.45618,78,60,40
101.45618,101.57803,76,60,40
101.6085,101.68375,74,60,40
101.76251,101.83769,73,60,40
101.91464,101.989746,72,60,40
102.06664,102.14175,73,60,40
102.22043,102.37234,76,60,40
102.37234,102.49371,74,60,40
102.524055,102.59897,73,60,40
102.67744,102.75234,71,60,40
102.82897,102.90382,70,60,40
102.98043,103.05522,71,60,40
103.133575,103.28486,74,60,40
103.28486,103.40586,73,60,40
103.43609,103.51078,71,60,40
103.589035,103.66369,69,60,40
103.74012,103.814766,68,60,40
103.89116,103.96577,69,60,40
104.04393,104.19492,73,60,40
104.19492,104.31597,71,60,40
104.34626,104.4212,69,60,40
104.499825,104.57497,68,60,40
104.652084,104.727516,66,60,40
104.80487,104.8806,64,60,40
104.96011,105.03615,62,60,40
105.11417,105.190605,66,60,40
105.26902,105.34578,64,60,40
105.42647,105.50371,62,60,40
105.58298,105.66062,61,60,40
105.74043,105.818596,59,60,40
105.90069,106.36223,57,60,40
108.669914,109.47761,69,60,40
109.47761,109.592995,69,60,40
109.592995,111.7853,81,60,40
111.7853,111.81415,83,76,40
111.81415,111.84299,81,76,40
111.84299,111.87183,80,75,40
111.87183,111.89347,81,74,40
111.90068,112.01427,83,73,40
112.131454,112.24503,81,67,40
112.36222,112.4758,81,60,40
112.59299,112.70657,79,60,40
112.82376,112.93734,78,60,40
113.05453,113.168106,79,60,40
113.28529,114.208374,77,60,40
114.208374,114.576164,78,60,40
116.05453,116.86221,76,60,40
116.86221,116.918106,76,60,40
116.9776,118.36221,88,60,40
118.36221,118.4776,88,80,40
118.4776,118.59299,86,81,40
118.59299,118.70837,85,83,40
118.70837,118.800316,83,84,40
118.82375,119.05272,85,60,40
120.55452,120.66991,76,60,40
120.66991,122.05452,88,60,40
122.05452,122.16991,88,60,40
122.16991,122.285286,86,60,40
122.285286,122.40067,84,60,40
122.40067,122.49262,83,60,40
122.51606,122.745026,84,60,40
124.246826,124.362206,72,60,40
124.362206,125.746826,84,59,40
125.746826,125.862206,84,74,40
125.862206,125.97759,82,75,40
125.97759,126.09298,81,76,40
126.09298,126.18492,79,77,40
126.20836,126.437325,81,78,40
127.939125,128.05452,60,96,40
128.05452,129.46724,72,97,40
129.46724,129.58878,72,97,40
129.58878,129.71109,70,97,40
129.71109,129.83426,69,97,40
129.83426,129.93312,67,97,40
129.95834,130.1873,69,97,40
131.34296,131.80449,57,60,40
131.80449,131.98659,62,60,40
133.1891,133.65065,62,50,40
133.65065,133.83273,55,50,40
135.03526,135.4968,60,50,40
135.4968,135.67902,72,50,40
135.95973,136.19096,70,50,40
136.42719,136.6613,69,50,40
136.90091,137.13881,67,50,40
137.38275,137.49632,65,50,40
137.61351,137.7271,84,60,40
137.84428,137.95787,82,60,40
138.07506,138.18863,81,60,40
138.30582,138.76736,79,60,40
138.76736,139.13515,77,60,40
139.45967,139.57324,77,60,40
139.69043,139.80402,76,59,40
139.9212,140.03479,74,58,40
140.15198,140.61351,72,56,40
140.61351,140.98131,71,53,40
141.30582,141.4194,74,50,40
141.53659,141.65018,72,50,40
141.76736,141.88094,71,50,40
141.99812,142.45967,69,50,40
142.45967,142.82745,68,50,40
145.22853,145.68846,59,59,40
145.68846,146.1473,62,63,40
146.1473,146.51222,68,67,40
147.06221,147.51834,61,75,40
147.51834,147.9738,64,79,40
147.9738,148.33633,70,83,40
149.56506,149.79234,66,97,40
149.79234,150.0196,64,97,40
150.0196,150.24689,62,97,40
150.24689,150.47438,61,97,40
150.47438,150.70277,59,97,40
150.70277,150.93227,70,97,40
150.93227,151.11604,71,97,40
151.16307,151.39539,73,97,40
151.39539,151.62943,74,97,40
151.62943,151.86543,78,97,40
151.86543,152.05513,74,97,40
152.10364,152.79443,74,60,40
152.79443,153.02379,73,59,40
153.02379,153.25272,71,62,40
153.25272,153.48125,69,65,40
153.48125,153.70941,68,67,40
153.70941,153.93738,66,70,40
153.93738,154.29991,64,72,40
154.39217,154.61903,78,77,40
154.61903,154.84564,76,80,40
154.84564,155.07199,74,82,40
155.07199,155.29813,73,85,40
155.29813,155.52403,71,87,40
155.52403,155.70392,69,90,40
155.74977,155.97357,68,92,40
156.2009,156.2749,81,97,40
156.2749,156.35068,80,97,40
156.35068,156.42645,81,97,40
156.42645,156.50047,80,97,40
156.50047,156.57625,81,97,40
156.57625,156.65202,80,97,40
156.65202,156.72603,81,97,40
156.72603,156.8018,80,97,40
156.8018,156.87758,81,97,40
156.87758,156.9516,80,97,40
156.9516,157.02737,81,97,40
157.02737,157.10315,80,97,40
157.10315,157.17715,81,97,40
157.17715,157.25293,80,97,40
157.25293,157.3287,81,97,40
157.3287,157.40273,80,97,40
157.40273,157.4785,81,97,40
157.4785,157.55428,80,97,40
157.55428,157.6283,81,97,40
157.6283,157.70421,80,97,40
157.70421,157.78027,81,97,40
157.78027,157.8548,80,97,40
157.8548,157.93134,81,97,40
157.93134,158.00807,80,97,40
158.00807,158.08322,81,97,40
158.08322,158.16052,80,97,40
158.16052,158.23805,81,97,40
158.23805,158.31403,80,97,40
158.31403,158.39217,81,97,40
158.39217,158.47067,80,97,40
158.47067,158.54762,81,97,40
158.54762,158.62675,80,97,40
158.62675,158.70639,81,97,40
158.70639,158.7845,80,97,40
158.7845,158.86482,81,97,40
158.86482,158.9457,80,97,40
158.9457,159.02515,81,97,40
159.02515,159.1069,80,97,40
159.1069,159.18915,81,97,40
159.18915,159.27014,80,97,40
159.27014,159.35353,78,97,40
159.35353,159.41978,80,97,40
159.43735,160.24617,69,113,40
159.43735,160.24617,81,113,40
160.362,161.17519,76,113,40
161.29161,162.11072,78,113,40
162.22826,163.05537,74,113,40
163.98291,164.09874,56,113,40
163.98291,164.28168,64,113,40
164.09874,164.28168,71,113,40
164.56288,164.79369,64,113,40
165.84744,165.965,57,113,40
165.84744,166.15082,64,113,40
165.965,166.15082,73,113,40
166.43665,166.67155,69,113,40
167.38084,167.83717,74,60,40
168.28305,168.72133,69,59,40
168.28305,168.72133,76,59,40
169.04985,169.1611,62,73,40
169.04985,169.53409,69,73,40
169.1611,169.53409,78,75,40
169.97607,170.09932,64,88,40
169.97607,170.52051,74,88,40
170.09932,170.52051,80,90,40
172.54643,173.12335,81,116,40
173.12335,173.23874,80,97,40
173.23874,173.35413,78,97,40
173.35413,173.4695,76,97,40
173.4695,173.58488,75,97,40
173.58488,173.70027,76,97,40
173.70027,173.81566,78,97,40
173.81566,173.93105,76,97,40
173.93105,174.04643,74,97,40
174.04643,174.16182,73,97,40
174.16182,174.27719,71,97,40
174.27719,174.36914,69,97,40
174.39258,174.62155,68,97,40
176.23874,176.81566,69,116,40
176.81566,176.93105,68,97,40
176.93105,177.04642,66,97,40
177.04642,177.1618,64,97,40
177.1618,177.27719,63,97,40
177.27719,177.39258,64,97,40
177.39258,177.50797,66,97,40
177.50797,177.62335,64,97,40
177.62335,177.73872,62,97,40
177.73872,177.85411,61,97,40
177.85411,177.9695,59,97,40
177.9695,178.06145,57,97,40
178.08488,178.31386,56,97,40
178.54642,179.12335,74,116,40
179.12335,179.23872,73,97,40
179.23872,179.35411,71,97,40
179.35411,179.4695,69,97,40
179.4695,179.58488,68,97,40
179.58488,179.70027,66,97,40
179.70027,179.81566,64,97,40
179.81566,179.9076,62,97,40
179.93103,180.04642,61,113,40
180.04642,180.1618,62,113,40
180.1618,180.27719,64,113,40
180.27719,180.39258,66,113,40
180.39258,180.50797,68,113,40
180.50797,180.62334,69,113,40
180.62334,180.73872,71,113,40
180.73872,180.85411,73,113,40
180.85411,180.9695,74,113,40
180.9695,181.08488,76,113,40
181.08488,181.20027,78,113,40
181.20027,181.31564,80,113,40
181.31564,181.43103,81,113,40
181.43103,181.54642,83,113,40
181.54642,181.6618,85,113,40
181.6618,181.75375,86,113,40
181.77719,182.00627,88,113,40
182.24123,182.4748,89,113,40
182.71439,182.9526,90,113,40
183.19702,183.4401,93,113,40
183.68834,184.1901,76,113,40
184.57422,184.70361,64,113,40
184.57422,185.13339,74,113,40
184.70361,185.13339,80,113,40
185.62985,185.76472,57,113,40
185.62985,185.76472,64,113,40
185.76472,186.21217,73,113,40
185.76472,186.21217,81,113,40
187.94655,188.06192,57,97,40
187.94655,189.34738,66,97,40
188.06192,189.34738,74,97,40
189.6773,189.7927,69,97,40
189.7927,189.90808,74,97,40
189.90808,190.09016,78,97,40
190.60039,190.71577,74,97,40
190.71577,190.83115,78,97,40
190.83115,191.01324,81,97,40
191.52347,191.63884,81,97,40
191.63884,191.75423,78,97,40
191.75423,191.93633,74,97,40
193.36961,193.485,78,97,40
193.485,193.60039,74,97,40
193.60039,193.7826,69,97,40
194.29637,194.41339,74,97,40
194.41339,194.53078,69,97,40
194.53078,194.71681,66,97,40
195.24426,195.36499,69,97,40
195.36499,195.48633,66,97,40
195.48633,195.66843,62,97,40
196.29402,196.40941,69,60,40
196.40941,198.25555,81,60,40
198.25555,199.06325,78,60,40
199.06325,199.17863,74,60,40
199.17863,199.36072,73,60,40
199.98633,200.10172,69,60,40
200.10172,201.95097,79,60,40
201.95097,202.7698,76,60,40
202.7698,202.88768,73,60,40
202.88768,203.06976,74,60,40
203.80879,205.63867,74,60,40
205.63867,206.43533,74,71,40
206.54903,207.91266,74,76,40
207.91266,208.13994,73,83,40
208.13994,208.32104,71,85,40
208.3672,208.59483,71,60,40
208.59483,208.82387,69,60,40
208.82387,209.05466,67,60,40
209.05466,209.23999,66,60,40
209.28752,209.52281,66,60,40
209.52281,209.76091,64,60,40
209.76091,210.00221,62,60,40
210.00221,210.1972,61,60,40
210.24718,210.47794,62,60,40
210.47794,210.70871,66,60,40
210.70871,210.93948,69,60,40
210.93948,211.17024,67,60,40
211.17024,211.40102,66,60,40
211.40102,211.63179,64,60,40
211.63179,211.86255,62,60,40
211.86255,212.09332,61,60,40
212.09332,212.3241,62,60,40
212.3241,212.55486,64,60,40
212.55486,212.78563,66,60,40
212.78563,213.0164,67,60,40
213.0164,213.24716,69,60,40
213.24716,213.47794,71,60,40
213.47794,213.70871,73,60,40
213.70871,213.89261,74,60,40
213.93948,214.17024,69,60,40
214.17024,214.40102,73,60,40
214.40102,214.63179,76,60,40
214.63179,214.86255,74,60,40
214.86255,215.09332,73,60,40
215.09332,215.3241,71,60,40
215.3241,215.55486,69,60,40
215.55486,215.78563,68,60,40
215.78563,216.0164,69,60,40
216.0164,216.24716,71,60,40
216.24716,216.47794,73,60,40
216.47794,216.70871,74,60,40
216.70871,216.93947,76,60,40
216.93947,217.17024,78,60,40
217.17024,217.40102,79,60,40
217.40102,217.5849,76,60,40
217.63177,217.86255,74,59,40
217.86255,218.09332,78,61,40
218.09332,218.32408,81,63,40
218.32408,218.55486,79,64,40
218.55486,218.78563,78,66,40
218.78563,219.01639,76,67,40
219.01639,219.24716,74,69,40
219.24716,219.47794,73,71,40
219.47794,219.7087,74,72,40
219.7087,219.93947,76,74,40
219.93947,220.17024,78,75,40
220.17024,220.401,79,77,40
220.401,220.63177,81,78,40
220.63177,220.86255,83,80,40
220.86255,221.09332,84,82,40
221.09332,221.2772,85,83,40
221.32408,221.43767,86,85,40
221.55486,221.78563,86,86,40
221.78563,222.01639,85,88,40
222.01639,222.24716,86,89,40
222.24716,222.47794,85,91,40
222.47794,222.7087,86,93,40
222.7087,222.93947,88,94,40
222.93947,223.12337,86,96,40
223.17024,223.40123,85,97,40
223.40123,223.63316,86,97,40
223.63316,223.86623,88,97,40
223.86623,224.10063,86,97,40
224.10063,224.3366,85,97,40
224.3366,224.57434,86,97,40
224.57434,224.81412,88,97,40
224.81412,225.00688,86,97,40
225.05618,225.51772,85,97,40
225.97926,226.09465,57,60,40
226.09465,226.21002,67,60,40
226.21002,226.32541,66,60,40
226.32541,226.4408,67,60,40
226.4408,226.55618,69,60,40
226.55618,226.67157,67,60,40
226.67157,226.78696,66,60,40
226.78696,226.8789,67,60,40
226.90234,227.36388,79,60,40
229.67157,229.78694,66,60,40
229.78694,229.90233,74,60,40
229.90233,230.01772,73,60,40
230.01772,230.1331,74,60,40
230.1331,230.24849,76,60,40
230.24849,230.36388,74,60,40
230.36388,230.47925,73,60,40
230.47925,230.5712,74,60,40
230.59464,231.05618,78,60,40
233.36386,233.47925,57,60,40
233.47925,233.59464,67,60,40
233.59464,233.71002,66,60,40
233.71002,233.82541,67,60,40
233.82541,233.9408,69,60,40
233.9408,234.05617,67,60,40
234.05617,234.17155,66,60,40
234.17155,234.2635,67,60,40
234.28694,234.86624,79,113,40
234.86624,234.98293,78,113,40
234.98293,235.09995,76,113,40
235.09995,235.21733,74,113,40
235.21733,235.33511,73,113,40
235.33511,235.45331,71,113,40
235.45331,235.57195,69,113,40
235.57195,235.69106,67,113,40
235.69106,235.81067,66,113,40
235.81067,235.93083,64,113,40
235.93083,236.05156,62,113,40
236.05156,236.1729,61,113,40
236.1729,237.90366,62,60,40
237.90366,238.01904,62,60,40
237.90366,238.01904,69,60,40
238.01904,239.17288,78,60,40
239.17288,239.28827,77,61,40
239.28827,239.40366,78,62,40
239.40366,239.51904,79,62,40
239.51904,239.63443,78,63,40
239.63443,239.74982,77,64,40
239.74982,239.84175,78,65,40
239.86519,240.32674,86,65,40
241.71135,242.86519,86,77,40
242.86519,242.98058,85,85,40
242.98058,243.09596,86,85,40
243.09596,243.21135,88,86,40
243.21135,243.32674,86,87,40
243.32674,243.44211,85,87,40
243.44211,243.53406,86,88,40
243.5575,244.01904,76,89,40
245.40366,246.09805,76,101,40
246.09805,246.33089,78,105,40
246.33089,246.56459,80,107,40
246.56459,246.7993,81,108,40
246.7993,247.03514,83,110,40
247.03514,247.224,85,111,40
247.27223,248.42607,86,113,40
248.42607,248.54146,85,113,40
248.54146,248.65685,83,113,40
248.65685,248.77222,81,113,40
248.77222,248.8876,80,113,40
248.8876,249.00299,78,113,40
249.00299,249.09494,76,113,40
249.11838,249.23196,74,113,40
249.34924,249.46483,73,113,40
249.46483,249.5805,71,113,40
249.5805,249.69632,69,113,40
249.69632,249.81226,68,113,40
249.81226,249.92833,66,113,40
249.92833,250.02094,64,113,40
250.04457,250.27571,62,113,40
250.51125,250.74396,62,113,40
250.98126,251.21024,61,113,40
251.44281,251.67177,73,113,40
252.36588,252.82742,73,113,40
252.82742,253.0095,75,113,40
253.28896,253.51793,75,113,40
254.21204,254.67357,75,113,40
254.67357,254.85567,76,113,40
255.1351,255.82741,86,127,40
255.82741,255.9428,85,113,40
255.9428,256.0582,83,113,40
256.0582,256.17355,81,113,40
256.17355,256.28894,80,113,40
256.28894,256.40433,78,113,40
256.40433,256.49628,76,113,40
256.5197,256.6333,74,113,40
256.75058,256.86618,73,113,40
256.86618,256.98184,71,113,40
256.98184,257.09766,69,113,40
257.09766,257.2136,68,113,40
257.2136,257.32968,66,113,40
257.32968,257.42227,64,113,40
257.44592,257.67706,62,113,40
257.9126,258.1453,62,113,40
258.3826,260.22876,61,113,40
260.22876,262.07492,63,113,40
262.07492,262.1885,64,113,40
262.3057,262.42108,66,113,40
262.42108,262.53644,68,113,40
262.53644,262.65182,69,113,40
262.65182,262.7672,71,113,40
262.7672,262.8826,73,113,40
262.8826,262.97455,75,113,40
262.998,263.11157,76,127,40
263.22876,263.34415,78,113,40
263.34415,263.45953,80,113,40
263.45953,263.57492,81,113,40
263.57492,263.6903,83,113,40
263.6903,263.8057,85,113,40
263.8057,263.89764,87,113,40
263.92108,264.3826,88,113,40
273.0261,273.27,62,60,40
273.27,273.9623,78,60,40
273.9623,274.14618,74,60,40
274.19305,274.42383,78,60,40
274.42383,274.6546,76,60,40
274.6546,274.88538,74,60,40
274.88538,275.06927,73,60,40
275.11615,275.34692,76,60,40
275.34692,275.5777,74,60,40
275.5777,275.80844,73,60,40
275.80844,275.99234,71,60,40
276.0392,276.27,74,60,40
276.27,276.50076,73,60,40
276.50076,276.73154,71,60,40
276.73154,276.91544,69,60,40
276.9623,277.19305,73,60,40
277.19305,277.42383,71,60,40
277.42383,277.65497,69,60,40
277.65497,277.88757,68,60,40
277.88757,278.12195,66,60,40
278.12195,278.3585,64,60,40
278.3585,278.59753,66,60,40
278.59753,278.78983,68,60,40
278.8389,279.83725,71,60,40
279.83725,280.24298,69,60,40
281.27832,281.73828,81,79,40
281.73828,281.91943,78,60,40
282.19708,282.655,80,79,40
282.655,282.83548,77,60,40
283.112,283.56815,78,79,40
283.56815,283.7479,75,60,40
284.02362,284.47852,76,79,40
284.47852,284.65784,73,60,40
284.93304,285.84213,74,79,40
285.84213,286.06763,70,60,40
286.2967,286.5291,71,60,40
286.7748,287.0269,66,60,40
287.29428,287.56485,59,60,40
287.83972,288.0208,66,60,40
288.0208,288.17407,71,60,40
288.17407,288.29666,74,60,40
288.32913,289.02042,78,60,40
289.02042,289.25024,74,60,40
289.25024,289.4027,78,60,40
289.4027,289.52457,76,60,40
289.55502,289.63028,74,60,40
289.70905,289.78424,73,60,40
289.86118,289.93628,72,60,40
290.01318,290.0883,73,60,40
290.16696,290.31888,76,60,40
290.31888,290.44025,74,60,40
290.47058,290.5455,73,60,40
290.624,290.69888,71,60,40
290.7755,290.85034,70,60,40
290.92697,291.00177,71,60,40
291.0801,291.2314,74,60,40
291.2314,291.3524,73,60,40
291.38263,291.45734,71,60,40
291.53558,291.61023,69,60,40
291.68665,291.76132,68,60,40
291.8377,291.9123,69,60,40
291.99048,292.14148,73,60,40
292.14148,292.2625,71,60,40
292.2928,292.36774,69,60,40
292.44635,292.5215,68,60,40
292.59863,292.67407,66,60,40
292.7514,292.82715,64,60,40
292.90665,292.9827,62,60,40
293.0607,293.13715,66,60,40
293.21558,293.29233,64,60,40
293.37302,293.45026,62,60,40
293.5295,293.60718,61,60,40
293.68698,293.76514,59,60,40
293.84723,294.30878,57,60,40
296.61646,297.42416,69,60,40
297.42416,297.53952,69,60,40
297.53952,299.73184,81,60,40
299.73184,299.76068,83,76,40
299.76068,299.78952,81,76,40
299.78952,299.8184,80,75,40
299.8184,299.84003,81,74,40
299.84723,299.96082,83,73,40
300.078,300.1916,81,67,40
300.30878,300.42233,81,60,40
300.53952,300.6531,79,60,40
300.7703,300.88388,78,60,40
301.00107,301.11465,79,60,40
301.23184,302.1549,77,60,40
302.1549,302.5227,78,60,40
304.00107,304.80875,76,60,40
304.80875,304.86465,76,60,40
304.92413,306.30875,88,60,40
306.30875,306.42413,88,80,40
306.42413,306.53952,86,81,40
306.53952,306.6549,85,83,40
306.6549,306.74686,83,84,40
306.7703,306.99927,85,60,40
308.50107,308.61646,76,60,40
308.61646,310.00107,88,60,40
310.00107,310.11646,88,60,40
310.11646,310.23184,86,60,40
310.23184,310.3472,84,60,40
310.3472,310.43915,83,60,40
310.4626,310.69156,84,60,40
312.19336,312.30875,72,60,40
312.30875,313.69336,84,59,40
313.69336,313.80875,84,74,40
313.80875,313.92413,82,75,40
313.92413,314.03952,81,76,40
314.03952,314.13147,79,77,40
314.1549,314.38388,81,78,40
315.88568,316.00107,60,96,40
316.00107,317.4138,72,97,40
317.4138,317.5353,72,97,40
317.5353,317.65762,70,97,40
317.65762,317.7808,69,97,40
317.7808,317.87967,67,97,40
317.90488,318.13385,69,97,40
319.2895,319.75104,57,60,40
319.75104,319.93314,62,60,40
321.13565,321.5972,62,50,40
321.5972,321.77927,55,50,40
322.9818,323.44333,60,50,40
323.44333,323.62555,72,50,40
323.90628,324.1375,70,50,40
324.37372,324.60785,69,50,40
324.84744,325.08536,67,50,40
325.32928,325.44287,65,50,40
325.56006,325.67365,84,60,40
325.79083,325.90442,82,60,40
326.0216,326.13516,81,60,40
326.25235,326.7139,79,60,40
326.7139,327.0817,77,60,40
327.40622,327.51978,77,60,40
327.63696,327.75055,76,59,40
327.86774,327.98132,74,58,40
328.0985,328.56006,72,56,40
328.56006,328.92786,71,53,40
329.25235,329.36594,74,50,40
329.48312,329.5967,72,50,40
329.7139,329.82748,71,50,40
329.94467,330.40622,69,50,40
330.40622,330.774,68,50,40
333.17508,333.635,59,59,40
333.635,334.09384,62,63,40
334.09384,334.45877,68,67,40
335.00876,335.46487,61,75,40
335.46487,335.92035,64,79,40
335.92035,336.28287,70,83,40
337.5116,337.7389,66,97,40
337.7389,337.96616,64,97,40
337.96616,338.19342,62,97,40
338.19342,338.42093,61,97,40
338.42093,338.64932,59,97,40
338.64932,338.8788,70,97,40
338.8788,339.0626,71,97,40
339.10962,339.34192,73,97,40
339.34192,339.57596,74,97,40
339.57596,339.81198,78,97,40
339.81198,340.00168,74,97,40
340.05017,340.74097,74,60,40
340.74097,340.97034,73,59,40
340.97034,341.19925,71,62,40
341.19925,341.4278,69,65,40
341.4278,341.65594,68,67,40
341.65594,341.8839,66,70,40
341.8839,342.24646,64,72,40
342.3387,342.56558,78,77,40
342.56558,342.79218,76,80,40
342.79218,343.01852,74,82,40
343.01852,343.24466,73,85,40
343.24466,343.47058,71,87,40
343.47058,343.65045,69,90,40
343.69632,343.9201,68,92,40
344.14743,344.22144,81,97,40
344.22144,344.2972,80,97,40
344.2972,344.373,81,97,40
344.373,344.44702,80,97,40
344.44702,344.5228,81,97,40
344.5228,344.59857,80,97,40
344.59857,344.67258,81,97,40
344.67258,344.74835,80,97,40
344.74835,344.82413,81,97,40
344.82413,344.89813,80,97,40
344.89813,344.9739,81,97,40
344.9739,345.04968,80,97,40
345.04968,345.1237,81,97,40
345.1237,345.19946,80,97,40
345.19946,345.27524,81,97,40
345.27524,345.34927,80,97,40
345.34927,345.42505,81,97,40
345.42505,345.50082,80,97,40
345.50082,345.57483,81,97,40
345.57483,345.65076,80,97,40
345.65076,345.7268,81,97,40
345.7268,345.80133,80,97,40
345.80133,345.87787,81,97,40
345.87787,345.95462,80,97,40
345.95462,346.02975,81,97,40
346.02975,346.10706,80,97,40
346.10706,346.1846,81,97,40
346.1846,346.26056,80,97,40
346.26056,346.3387,81,97,40
346.3387,346.4172,80,97,40
346.4172,346.49417,81,97,40
346.49417,346.5733,80,97,40
346.5733,346.65292,81,97,40
346.65292,346.73105,80,97,40
346.73105,346.81137,81,97,40
346.81137,346.89224,80,97,40
346.89224,346.97168,81,97,40
346.97168,347.05344,80,97,40
347.05344,347.13568,81,97,40
347.13568,347.21667,80,97,40
347.21667,347.30008,78,97,40
347.30008,347.36633,80,97,40
347.38388,348.19272,69,113,40
347.38388,348.19272,81,113,40
348.30853,349.12173,76,113,40
349.23816,350.05725,78,113,40
350.1748,351.00192,74,113,40
351.92944,352.0453,56,113,40
351.92944,352.2282,64,113,40
352.0453,352.2282,71,113,40
352.50943,352.74023,64,113,40
353.79398,353.91153,57,113,40
353.79398,354.09735,64,113,40
353.91153,354.09735,73,113,40
354.38318,354.6181,69,113,40
355.3274,355.78372,74,60,40
356.22958,356.66788,69,59,40
356.22958,356.66788,76,59,40
356.9964,357.10764,62,73,40
356.9964,357.48062,69,73,40
357.10764,357.48062,78,75,40
357.9226,358.04587,64,88,40
357.9226,358.46704,74,88,40
358.04587,358.46704,80,90,40
360.49298,361.0699,81,116,40
361.0699,361.18527,80,97,40
361.18527,361.30066,78,97,40
361.30066,361.41605,76,97,40
361.41605,361.53143,75,97,40
361.53143,361.64682,76,97,40
361.64682,361.7622,78,97,40
361.7622,361.8776,76,97,40
361.8776,361.99298,74,97,40
361.99298,362.10837,73,97,40
362.10837,362.22372,71,97,40
362.22372,362.31567,69,97,40
362.3391,362.56808,68,97,40
364.18527,364.7622,69,116,40
364.7622,364.8776,68,97,40
364.8776,364.99295,66,97,40
364.99295,365.10834,64,97,40
365.10834,365.22372,63,97,40
365.22372,365.3391,64,97,40
365.3391,365.4545,66,97,40
365.4545,365.5699,64,97,40
365.5699,365.68527,62,97,40
365.68527,365.80066,61,97,40
365.80066,365.91605,59,97,40
365.91605,366.008,57,97,40
366.03143,366.2604,56,97,40
366.49295,367.0699,74,116,40
367.0699,367.18527,73,97,40
367.18527,367.30066,71,97,40
367.30066,367.41605,69,97,40
367.41605,367.53143,68,97,40
367.53143,367.64682,66,97,40
367.64682,367.7622,64,97,40
367.7622,367.85413,62,97,40
367.87756,367.99295,61,113,40
367.99295,368.10834,62,113,40
368.10834,368.22372,64,113,40
368.22372,368.3391,66,113,40
368.3391,368.4545,68,113,40
368.4545,368.5699,69,113,40
368.5699,368.68527,71,113,40
368.68527,368.80066,73,113,40
368.80066,368.91605,74,113,40
368.91605,369.03143,76,113,40
369.03143,369.14682,78,113,40
369.14682,369.2622,80,113,40
369.2622,369.37756,81,113,40
369.37756,369.49295,83,113,40
369.49295,369.60834,85,113,40
369.60834,369.7003,86,113,40
369.72372,369.95282,88,113,40
370.18777,370.42133,89,113,40
370.66092,370.89914,90,113,40
371.14355,371.38663,93,113,40
371.6349,372.13663,76,113,40
372.52075,372.65015,64,113,40
372.52075,373.07993,74,113,40
372.65015,373.07993,80,113,40
373.5764,373.71127,57,113,40
373.5764,373.71127,64,113,40
373.71127,374.15872,73,113,40
373.71127,374.15872,81,113,40
375.8931,376.70078,77,60,40
376.81616,377.62384,72,60,40
377.73923,378.54694,74,60,40
378.66232,379.47,70,60,40
380.39307,380.50845,55,60,40
380.39307,380.69055,64,60,40
380.50845,380.69055,70,60,40
380.97,381.19897,64,60,40
382.4062,382.67395,70,97,40
382.4062,382.67395,82,97,40
382.9622,383.2663,76,97,40
384.51938,384.57706,72,60,40
384.57706,386.42322,84,60,40
386.42322,387.2309,81,60,40
387.2309,387.34628,77,60,40
387.34628,387.71408,72,60,40
389.19244,391.061,69,60,40
389.19244,391.4288,60,60,40
391.061,391.4288,70,60,40
391.9841,393.83023,82,60,40
393.83023,394.63794,79,60,40
394.63794,394.7299,76,60,40
394.75333,395.6764,70,60,40
395.6764,396.0442,69,60,40
396.59946,398.46805,67,60,40
396.59946,398.83582,57,60,40
398.46805,398.83582,65,60,40
399.3911,401.23727,81,60,40
401.23727,402.04495,77,60,40
402.04495,402.16034,74,60,40
402.16034,402.34244,69,60,40
404.0065,405.87506,75,60,40
404.0065,406.24286,65,60,40
405.87506,406.24286,74,60,40
406.79816,408.6443,74,60,40
408.6443,409.452,70,60,40
409.452,409.56738,67,60,40
409.56738,409.74945,62,60,40
411.4135,413.2821,60,60,40
413.2821,413.64987,58,60,40
411.4135,413.64987,62,60,40
414.20517,416.05133,74,60,40
416.05133,416.859,70,60,40
416.859,416.95096,67,60,40
416.9744,417.20337,65,60,40
417.8975,419.63666,74,97,40
419.63666,419.73108,73,97,40
419.75522,419.99237,74,97,40
420.23618,420.47952,74,97,40
420.73047,420.85455,72,97,40
420.98257,421.21332,72,50,40
421.21332,421.4441,76,50,40
421.4441,421.67487,74,50,40
421.67487,421.90564,72,50,40
421.90564,422.1364,71,50,40
422.1364,422.3672,69,50,40
422.3672,422.55106,68,50,40
422.59793,422.71152,69,50,40
422.8287,423.05948,61,50,40
423.05948,423.29025,64,50,40
423.29025,423.52103,62,50,40
423.52103,423.7518,61,50,40
423.7518,423.98257,59,50,40
423.98257,424.21332,57,50,40
424.21332,424.39722,56,50,40
424.4441,424.67487,57,50,40
424.67487,424.90564,64,53,40
424.90564,425.1364,61,57,40
425.1364,425.3672,69,60,40
425.3672,425.59793,64,63,40
425.59793,425.8287,73,66,40
425.8287,426.05948,69,69,40
426.05948,426.24338,76,73,40
426.29025,426.52124,73,76,40
426.52124,426.75317,81,73,40
426.75317,426.98624,76,69,40
426.98624,427.22064,73,66,40
427.22064,427.4566,69,63,40
427.4566,427.69437,76,60,40
427.69437,427.93414,73,57,40
427.93414,428.1269,69,53,40
428.1762,428.28976,74,50,40
428.40695,428.63773,77,50,40
428.63773,428.8685,81,50,40
428.8685,429.09927,79,50,40
429.09927,429.33005,77,50,40
429.33005,429.56082,76,50,40
429.56082,429.7916,74,50,40
429.7916,429.97546,73,50,40
430.02234,430.13593,74,50,40
430.2531,430.4839,65,50,40
430.4839,430.71466,69,50,40
430.71466,430.94543,67,50,40
430.94543,431.1762,65,50,40
431.1762,431.40695,64,50,40
431.40695,431.63773,62,50,40
431.63773,431.82162,61,50,40
431.8685,432.09927,62,50,40
432.09927,432.33005,69,53,40
432.33005,432.56082,65,57,40
432.56082,432.79156,74,60,40
432.79156,433.02234,69,63,40
433.02234,433.2531,77,66,40
433.2531,433.4839,74,69,40
433.4839,433.6678,81,73,40
433.71466,433.82825,81,76,40
433.94565,434.17758,81,73,40
434.17758,434.41064,78,69,40
434.41064,434.5973,75,66,40
434.64505,434.761,69,63,40
434.881,435.11877,69,60,40
435.11877,435.35855,66,57,40
435.35855,435.5513,63,53,40
435.60062,435.71417,64,50,40
435.83136,436.06213,67,50,40
436.06213,436.2929,71,50,40
436.2929,436.52368,69,50,40
436.52368,436.75446,67,50,40
436.75446,436.98523,66,50,40
436.98523,437.21597,64,50,40
437.21597,437.39987,63,50,40
437.44675,437.56033,64,50,40
437.67752,437.9083,76,50,40
437.9083,438.13907,79,50,40
438.13907,438.36984,78,50,40
438.36984,438.6006,76,50,40
438.6006,438.83136,75,50,40
438.83136,439.06213,76,50,40
439.06213,439.24603,78,50,40
439.2929,439.4065,79,49,40
439.52368,439.75446,79,53,40
439.75446,439.9852,83,57,40
439.9852,440.21597,81,61,40
440.21597,440.44675,79,65,40
440.44675,440.67752,78,69,40
440.67752,440.9083,79,73,40
440.9083,441.0922,81,77,40
441.13907,441.37112,82,81,40
441.37112,441.60852,83,85,40
441.60852,441.85266,81,89,40
441.85266,442.1053,79,93,40
442.1053,442.3684,78,97,40
442.3684,442.64438,76,101,40
442.64438,442.93634,74,105,40
442.93634,443.05832,73,109,40
443.08948,443.24823,57,111,40
443.08948,444.5337,66,111,40
443.24823,444.5337,74,113,40
444.86362,444.979,69,113,40
444.979,445.0944,74,113,40
445.0944,445.2765,78,113,40
445.78668,445.90207,74,113,40
445.90207,446.01746,78,113,40
446.01746,446.19955,81,113,40
446.70978,446.82516,81,113,40
446.82516,446.94055,78,113,40
446.94055,447.12262,74,113,40
448.5559,448.6713,78,113,40
448.6713,448.78668,74,113,40
448.78668,448.9689,69,113,40
449.48267,449.5997,74,113,40
449.5997,449.71707,69,113,40
449.71707,449.9031,66,113,40
450.43057,450.5513,69,113,40
450.5513,450.67264,66,113,40
450.67264,450.86508,62,113,40
451.49347,451.60886,69,60,40
451.60886,453.455,81,60,40
453.455,454.2627,78,60,40
454.2627,454.37808,74,60,40
454.37808,454.56018,73,60,40
455.18576,455.30115,69,60,40
455.30115,457.15042,79,60,40
457.15042,457.96927,76,60,40
457.96927,458.08713,73,60,40
458.08713,458.2692,74,60,40
459.00824,460.8381,74,60,40
460.8381,461.63477,74,71,40
461.74847,463.1121,74,76,40
463.1121,463.3394,73,83,40
463.3394,463.52048,71,85,40
463.56665,463.7941,71,60,40
463.7941,464.02234,69,60,40
464.02234,464.25153,67,60,40
464.25153,464.4349,66,60,40
464.4818,464.71338,66,60,40
464.71338,464.94644,64,60,40
464.94644,465.18115,62,60,40
465.18115,465.36957,61,60,40
465.41772,465.65582,62,60,40
465.65582,465.8866,66,60,40
465.8866,466.11737,69,60,40
466.11737,466.34814,67,60,40
466.34814,466.57892,66,60,40
466.57892,466.8097,64,60,40
466.8097,467.04044,62,60,40
467.04044,467.2712,61,60,40
467.2712,467.50198,62,60,40
467.50198,467.73276,64,60,40
467.73276,467.96353,66,60,40
467.96353,468.1943,67,60,40
468.1943,468.42505,69,60,40
468.42505,468.65582,71,60,40
468.65582,468.8866,73,60,40
468.8866,469.0705,74,60,40
469.11737,469.34814,69,60,40
469.34814,469.57892,73,60,40
469.57892,469.80966,76,60,40
469.80966,470.04044,74,60,40
470.04044,470.2712,73,60,40
470.2712,470.50198,71,60,40
470.50198,470.73276,69,60,40
470.73276,470.96353,68,60,40
470.96353,471.1943,69,60,40
471.1943,471.42505,71,60,40
471.42505,471.65582,73,60,40
471.65582,471.8866,74,60,40
471.8866,472.11737,76,60,40
472.11737,472.34814,78,60,40
472.34814,472.57892,79,60,40
472.57892,472.7628,76,60,40
472.80966,473.04044,75,60,40
473.04044,473.27084,78,62,40
473.27084,473.50098,81,63,40
473.50098,473.73077,79,64,40
473.73077,473.96033,78,65,40
473.96033,474.1896,76,66,40
474.1896,474.41864,75,67,40
474.41864,474.64752,73,68,40
474.64752,474.8762,71,69,40
474.8762,475.10452,73,70,40
475.10452,475.3327,75,71,40
475.3327,475.56067,76,72,40
475.56067,475.78848,78,73,40
475.78848,476.0161,79,74,40
476.0161,476.24365,81,75,40
476.24365,476.42484,78,76,40
476.471,476.6983,76,77,40
476.6983,476.92557,78,78,40
476.92557,477.15283,79,80,40
477.15283,477.38013,81,81,40
477.38013,477.6074,83,82,40
477.6074,477.83466,85,83,40
477.83466,478.06192,86,84,40
478.06192,478.24304,87,85,40
478.2892,479.43594,88,105,40
479.43594,479.669,86,86,40
479.669,479.90372,85,86,40
479.90372,480.09213,83,86,40
480.1403,481.29413,81,113,40
481.29413,481.40952,80,113,40
481.40952,481.5249,78,113,40
481.5249,481.6403,76,113,40
481.6403,481.75568,74,113,40
481.75568,481.87106,73,113,40
481.87106,481.963,71,113,40
481.98645,482.10004,69,113,40
482.21744,482.33328,68,113,40
482.33328,482.44937,66,113,40
482.44937,482.56577,64,113,40
482.56577,482.68243,62,113,40
482.68243,482.79947,61,113,40
482.79947,482.89297,59,113,40
482.91684,483.15097,57,113,40
483.39056,483.62845,57,113,40
483.8724,485.71854,56,127,40
485.71854,487.6045,67,127,40
487.6045,487.83347,69,113,40
488.06604,488.75833,81,127,40
488.75833,488.87372,80,113,40
488.87372,488.9891,78,113,40
488.9891,489.1045,76,113,40
489.1045,489.21988,74,113,40
489.21988,489.33527,73,113,40
489.33527,489.42722,71,113,40
489.45065,489.56424,69,113,40
489.68185,489.79807,68,113,40
489.79807,489.91476,66,113,40
489.91476,490.032,64,113,40
490.032,490.14984,62,113,40
490.14984,490.2683,61,113,40
490.2683,490.38745,59,113,40
490.38745,490.57703,57,113,40
490.87216,491.1183,67,113,40
491.3729,491.6293,65,113,40
491.6293,491.86008,62,113,40
491.86008,492.09085,65,113,40
492.09085,492.32162,62,113,40
492.32162,492.55237,65,113,40
492.55237,492.78314,62,113,40
492.78314,493.01392,65,113,40
493.01392,493.1978,62,113,40
493.2447,493.47568,65,113,40
493.47568,493.7076,62,113,40
493.7076,493.94067,65,113,40
493.94067,494.17508,62,113,40
494.17508,494.41104,65,113,40
494.41104,494.6488,62,113,40
494.6488,494.88858,61,113,40
494.88858,495.08133,62,113,40
495.13065,495.24603,61,113,40
495.24603,495.3614,57,113,40
495.3614,495.47678,59,113,40
495.47678,495.59216,61,113,40
495.59216,495.70755,62,113,40
495.70755,495.82294,64,113,40
495.82294,495.93832,66,113,40
495.93832,496.03027,68,113,40
496.0537,496.1673,69,113,40
496.2845,496.39987,71,113,40
496.39987,496.51526,73,113,40
496.51526,496.63065,74,113,40
496.63065,496.74603,76,113,40
496.74603,496.8614,78,113,40
496.8614,496.95334,80,113,40
496.97678,497.20575,81,113,40
506.13538,506.38748,71,60,40
506.38748,507.07977,83,60,40
507.07977,507.26367,79,60,40
507.31055,507.54132,83,60,40
507.54132,507.7721,81,60,40
507.7721,508.00287,79,60,40
508.00287,508.18674,78,60,40
508.2336,508.4644,81,60,40
508.4644,508.69516,79,60,40
508.69516,508.92593,78,60,40
508.92593,509.10983,76,60,40
509.1567,509.38748,79,60,40
509.38748,509.61823,78,60,40
509.61823,509.849,76,60,40
509.849,510.0329,74,60,40
510.07977,510.3111,78,60,40
510.3111,510.5449,76,60,40
510.5449,510.78207,74,60,40
510.78207,511.023,73,60,40
511.023,511.26813,71,60,40
511.26813,511.51855,69,60,40
511.51855,511.77417,71,60,40
511.77417,511.98248,73,60,40
512.03564,513.16754,76,60,40
513.16754,513.687,74,60,40
514.7609,515.2209,74,79,40
515.2209,515.40204,71,60,40
515.6797,516.13763,73,79,40
516.13763,516.3181,70,60,40
516.59467,517.0508,71,79,40
517.0508,517.2305,68,60,40
517.5062,517.9611,69,79,40
517.9611,518.14044,66,60,40
518.41656,519.3392,67,79,40
519.3392,519.57104,63,60,40
519.8073,520.04156,64,60,40
520.2818,520.5202,59,60,40
520.7643,521.00665,64,60,40
521.2551,521.4204,71,60,40
521.4204,521.5866,76,60,40
521.5866,521.7202,79,60,40
521.7556,522.4469,83,60,40
522.4469,522.6767,79,60,40
522.6767,522.8292,83,60,40
522.8292,522.95105,81,60,40
522.9815,523.05676,79,60,40
523.13556,523.2107,78,60,40
523.28766,523.3628,77,60,40
523.4397,523.5148,78,60,40
523.59344,523.74536,81,60,40
523.74536,523.86676,79,60,40
523.8971,523.972,78,60,40
524.0505,524.12537,76,60,40
524.202,524.27686,75,60,40
524.35345,524.4282,76,60,40
524.5066,524.6579,79,60,40
524.6579,524.7789,78,60,40
524.80914,524.8838,76,60,40
524.96204,525.03674,74,60,40
525.11316,525.1878,73,60,40
525.26416,525.3388,74,60,40
525.41693,525.56805,78,60,40
525.56805,525.6895,76,60,40
525.7199,525.79535,74,60,40
525.8746,525.9505,73,60,40
526.0286,526.10516,71,60,40
526.1839,526.26117,69,60,40
526.3425,526.42053,67,60,40
526.5008,526.5798,71,60,40
526.661,526.7408,69,60,40
526.825,526.906,67,60,40
526.9893,527.07135,66,60,40
527.15607,527.2394,64,60,40
527.3272,527.78876,62,60,40
530.09644,530.9042,74,60,40
530.9042,531.01953,74,60,40
531.01953,533.21185,86,60,40
533.21185,533.24066,88,60,40
533.24066,533.26953,86,60,40
533.26953,533.2984,85,60,40
533.2984,533.32,86,60,40
533.3272,533.4408,88,60,40
533.558,533.6716,86,60,40
533.78876,533.90234,86,60,40
534.01953,534.1331,84,60,40
534.2503,534.3639,83,60,40
534.4811,534.59467,84,60,40
534.71185,535.63495,82,60,40
535.63495,536.0027,83,60,40
537.4811,538.28876,69,60,40
538.28876,538.4042,69,60,40
538.4042,539.78876,81,60,40
539.78876,539.9042,81,80,40
539.9042,540.01953,79,81,40
540.01953,540.1349,78,83,40
540.1349,540.22687,76,84,40
540.2503,540.47925,78,60,40
541.9811,542.09644,69,60,40
542.09644,543.4811,81,60,40
543.4811,543.59644,81,60,40
543.59644,543.71185,79,60,40
543.71185,543.8272,77,60,40
543.8272,543.9192,76,60,40
543.9426,544.1716,77,60,40
545.6734,545.78876,65,60,40
545.78876,547.17334,77,59,40
547.17334,547.28876,77,74,40
547.28876,547.4041,75,75,40
547.4041,547.51953,74,76,40
547.51953,547.61145,72,77,40
547.6349,547.8639,74,78,40
549.36566,549.4811,65,96,40
549.4811,550.89667,77,97,40
550.89667,551.01886,77,97,40
551.01886,551.14197,75,97,40
551.14197,551.2659,74,97,40
551.2659,551.36554,72,97,40
551.391,551.61993,74,97,40
552.7756,553.2371,62,60,40
553.2371,553.4192,67,60,40
554.6217,555.08325,67,50,40
555.08325,555.2654,60,50,40
556.4679,557.1586,65,50,40
557.39233,557.6236,63,50,40
557.8598,558.09393,62,50,40
558.33356,558.5714,60,50,40
558.81537,558.92896,62,50,40
559.04614,559.1597,77,60,40
559.2769,559.3905,75,60,40
559.5077,559.6213,74,60,40
559.73846,560.2,72,60,40
560.2,560.56775,70,60,40
560.8923,561.00586,82,59,40
561.12305,561.23663,81,58,40
561.3538,561.4674,79,57,40
561.5846,562.04614,77,55,40
562.04614,562.41394,76,53,40
562.73846,562.85205,79,50,40
562.96924,563.0828,77,50,40
563.2,563.31354,76,50,40
563.4307,563.8923,74,50,40
563.8923,564.2601,73,50,40
566.6695,566.90955,55,60,40
566.90955,567.1403,61,60,40
567.1403,567.37103,64,60,40
567.37103,567.73883,67,60,40
568.5247,568.7547,55,62,40
568.7547,568.9841,60,65,40
568.9841,569.16656,66,68,40
569.213,569.66956,69,71,40
571.26105,571.48834,71,97,40
571.48834,571.71564,69,97,40
571.71564,571.8967,67,97,40
571.9429,572.1708,66,97,40
572.1708,572.4013,64,97,40
572.4013,572.6351,69,97,40
572.6351,572.824,67,97,40
572.8727,573.115,66,97,40
573.115,573.36273,67,97,40
573.36273,573.6169,71,97,40
573.6169,573.82495,67,97,40
573.87854,574.57086,67,60,40
574.57086,574.80164,66,59,40
574.80164,575.03235,64,62,40
575.03235,575.2631,62,65,40
575.2631,575.4939,61,67,40
575.4939,575.6778,59,70,40
575.7247,576.1862,57,72,40
576.1862,576.417,83,77,40
576.417,576.64777,81,80,40
576.64777,576.87854,79,82,40
576.87854,577.1093,78,85,40
577.1093,577.3401,76,87,40
577.3401,577.524,74,90,40
577.57086,578.03235,73,92,40
578.03235,578.1081,86,97,40
578.1081,578.1856,85,97,40
578.1856,578.2631,86,97,40
578.2631,578.33887,85,97,40
578.33887,578.4164,86,97,40
578.4164,578.4939,85,97,40
578.4939,578.56964,86,97,40
578.56964,578.64716,85,97,40
578.64716,578.7247,86,97,40
578.7247,578.8004,85,97,40
578.8004,578.8779,86,97,40
578.8779,578.95544,85,97,40
578.95544,579.0312,86,97,40
579.0312,579.1087,85,97,40
579.1087,579.1862,86,97,40
579.1862,579.26196,85,97,40
579.26196,579.3395,86,97,40
579.3395,579.417,85,97,40
579.417,579.49274,86,97,40
579.49274,579.5705,85,97,40
579.5705,579.6486,86,97,40
579.6486,579.72534,85,97,40
579.72534,579.8043,86,97,40
579.8043,579.8837,85,97,40
579.8837,579.96173,86,97,40
579.96173,580.04224,85,97,40
580.04224,580.1233,86,97,40
580.1233,580.2029,85,97,40
580.2029,580.28516,86,97,40
580.28516,580.36816,85,97,40
580.36816,580.4498,86,97,40
580.4498,580.5341,85,97,40
580.5341,580.6195,86,97,40
580.6195,580.7036,85,97,40
580.7036,580.79047,86,97,40
580.79047,580.87854,85,97,40
580.87854,580.96564,86,97,40
580.96564,581.05566,85,97,40
581.05566,581.1468,86,97,40
581.1468,581.23737,85,97,40
581.23737,581.3311,83,97,40
581.3311,581.40607,85,97,40
581.42596,582.2382,86,113,40
582.3554,583.18555,81,113,40
583.3052,584.16064,83,113,40
584.2852,585.1767,79,113,40
586.1175,586.2341,61,113,40
586.1175,586.2341,64,113,40
586.2341,586.4185,69,113,40
586.2341,586.4185,76,113,40
586.7029,586.93695,69,113,40
588.01526,588.1368,62,113,40
588.01526,588.3295,69,113,40
588.1368,588.3295,78,113,40
588.62726,588.87335,74,113,40
589.5001,589.6231,64,60,40
589.5001,590.00964,73,60,40
589.6231,590.00964,79,60,40
590.4625,590.5799,66,60,40
590.4625,590.5799,74,60,40
590.5799,590.95105,74,59,40
590.5799,590.95105,81,59,40
591.39374,591.51184,67,73,40
591.39374,591.9113,74,73,40
591.51184,591.9113,83,75,40
592.5066,593.054,69,90,40
592.5066,593.054,85,90,40
595.01556,595.59247,86,116,40
595.59247,595.7078,85,97,40
595.7078,595.82324,83,97,40
595.82324,595.9386,81,97,40
595.9386,596.054,80,97,40
596.054,596.1694,81,97,40
596.1694,596.2848,83,97,40
596.2848,596.40015,81,97,40
596.40015,596.51556,79,97,40
596.51556,596.6309,78,97,40
596.6309,596.7463,76,97,40
596.7463,596.83826,74,97,40
596.8617,597.32324,73,97,40
598.7078,599.2848,74,116,40
599.2848,599.40015,73,97,40
599.40015,599.5155,71,97,40
599.5155,599.6309,69,97,40
599.6309,599.7463,68,97,40
599.7463,599.8617,69,97,40
599.8617,599.97705,71,97,40
599.97705,600.09247,69,97,40
600.09247,600.2078,67,97,40
600.2078,600.32324,66,97,40
600.32324,600.4386,64,97,40
600.4386,600.5306,62,97,40
600.554,601.0155,61,97,40
601.0155,601.59247,79,116,40
601.59247,601.7078,78,97,40
601.7078,601.82324,76,97,40
601.82324,601.9386,74,97,40
601.9386,602.054,73,97,40
602.054,602.1694,71,97,40
602.1694,602.2847,69,97,40
602.2847,602.3767,67,97,40
602.40015,602.5155,66,113,40
602.5155,602.6309,67,113,40
602.6309,602.7463,69,113,40
602.7463,602.8617,71,113,40
602.8617,602.97705,73,113,40
602.97705,603.09247,74,113,40
603.09247,603.2078,76,113,40
603.2078,603.2998,78,113,40
603.32324,603.5522,79,113,40
603.7847,604.01373,80,113,40
604.2463,604.4756,81,113,40
604.71515,604.95746,82,113,40
605.2104,605.466,83,113,40
605.7324,606.0014,86,113,40
606.27814,606.8505,69,113,40
607.2985,607.45087,69,113,40
607.2985,607.98114,76,113,40
607.45087,607.98114,85,113,40
608.5575,608.7201,62,113,40
608.5575,609.28156,78,113,40
608.7201,609.28156,86,113,40
0.1153845,1.4999985,54,97,0
0.1153845,1.4999985,57,97,0
0.1153845,1.4999985,62,97,0
0.1153845,1.4999985,38,97,0
0.1153845,1.4999985,42,97,0
0.1153845,1.4999985,45,97,0
0.1153845,1.4999985,50,97,0
1.7307675,1.846152,57,97,0
1.7307675,1.846152,45,97,0
1.846152,1.9615365,62,97,0
1.846152,1.9615365,50,97,0
1.9615365,2.1436276,66,97,0
1.9615365,2.1436276,54,97,0
2.6538434,2.769228,62,97,0
2.6538434,2.769228,50,97,0
2.769228,2.8846126,66,97,0
2.769228,2.8846126,54,97,0
2.8846126,3.0667036,69,97,0
2.8846126,3.0667036,57,97,0
3.5769196,3.692304,69,97,0
3.5769196,3.692304,57,97,0
3.692304,3.8076885,66,97,0
3.692304,3.8076885,54,97,0
3.8076885,3.9897797,62,97,0
3.8076885,3.9897797,50,97,0
5.4230714,5.538456,66,97,0
5.4230714,5.538456,54,97,0
5.538456,5.6538405,62,97,0
5.538456,5.6538405,50,97,0
5.6538405,5.836055,57,97,0
5.6538405,5.836055,45,97,0
6.349828,6.4668484,62,97,0
6.349828,6.4668484,50,97,0
6.4668484,6.5842314,57,97,0
6.4668484,6.5842314,45,97,0
6.5842314,6.7702713,54,97,0
6.5842314,6.7702713,42,97,0
7.297729,7.4184537,57,97,0
7.297729,7.4184537,45,97,0
7.4184537,7.5397882,54,97,0
7.4184537,7.5397882,42,97,0
7.5397882,7.7236824,50,60,0
7.7705574,8.001327,54,60,0
8.001327,8.232096,57,60,0
8.232096,8.462864,55,60,0
8.462864,8.693633,54,60,0
8.693633,8.924402,52,60,0
8.924402,9.155171,50,60,0
7.5397882,9.286782,38,60,0
7.5397882,9.286782,45,60,0
9.155171,9.339066,49,60,0
9.61671,9.847479,52,60,0
9.847479,10.078247,54,60,0
10.078247,10.309016,55,60,0
10.309016,10.539785,57,60,0
10.539785,10.770555,59,60,0
10.770555,11.001324,61,60,0
11.001324,11.232093,62,60,0
9.385941,11.232093,42,60,0
9.385941,11.232093,45,60,0
9.385941,11.232093,50,60,0
11.232093,11.462861,57,60,0
11.462861,11.69363,61,60,0
11.69363,11.924399,64,60,0
11.924399,12.155169,62,60,0
12.155169,12.385938,61,60,0
12.385938,12.616707,59,60,0
12.616707,12.847475,57,60,0
12.847475,13.078244,56,60,0
11.232093,13.078244,40,60,0
11.232093,13.078244,45,60,0
11.232093,13.078244,49,60,0
13.078244,13.309113,57,60,0
13.309113,13.540377,59,60,0
13.540377,13.772121,61,60,0
13.772121,14.004434,62,60,0
14.004434,14.237401,64,60,0
14.237401,14.471112,66,60,0
14.471112,14.705658,67,60,0
14.705658,14.9411335,64,60,0
13.078244,14.9411335,43,60,0
13.078244,14.9411335,45,60,0
13.078244,14.9411335,52,60,0
14.9411335,15.171884,62,60,0
15.171884,15.402309,66,62,0
15.402309,15.632425,69,63,0
15.632425,15.862247,67,64,0
15.862247,16.09179,66,65,0
16.09179,16.321064,64,66,0
16.321064,16.550089,62,67,0
16.550089,16.778982,61,68,0
14.9411335,16.778982,42,60,0
14.9411335,16.778982,45,60,0
14.9411335,16.778982,50,60,0
16.778982,17.00764,62,69,0
17.00764,17.235992,64,70,0
17.235992,17.46415,66,71,0
17.46415,17.692125,67,72,0
17.692125,17.919933,69,73,0
17.919933,18.147587,71,74,0
18.147587,18.3751,72,75,0
18.3751,18.602482,73,76,0
16.778982,18.602482,48,69,0
16.778982,18.602482,50,69,0
16.778982,18.602482,57,69,0
18.602482,18.829756,74,77,0
18.829756,19.057028,76,78,0
19.057028,19.2843,78,80,0
19.2843,19.511572,79,81,0
18.602482,19.511572,47,77,0
18.602482,19.511572,50,77,0
18.602482,19.511572,55,77,0
19.511572,19.738846,80,82,0
19.738846,19.966118,81,83,0
19.966118,20.19339,82,84,0
20.19339,20.374498,83,85,0
19.511572,20.420662,43,82,0
19.511572,20.420662,50,82,0
19.511572,20.420662,52,82,0
20.420662,20.648287,83,60,0
20.648287,20.87733,81,60,0
20.87733,21.108114,79,60,0
21.108114,21.293451,78,60,0
20.420662,21.340977,45,86,0
20.420662,21.340977,50,86,0
20.420662,21.340977,54,86,0
21.340977,21.57627,78,60,0
21.57627,21.81437,76,60,0
21.81437,22.055674,74,60,0
22.055674,22.250666,73,60,0
21.340977,22.30063,45,86,0
21.340977,22.30063,52,86,0
21.340977,22.30063,55,86,0
22.30063,22.762169,74,60,0
23.108322,23.223707,69,60,0
22.30063,24.146784,50,86,0
22.30063,24.146784,54,86,0
23.223707,24.300028,81,79,0
24.300028,24.453274,78,60,0
24.453274,24.608322,74,60,0
24.608322,24.761566,69,60,0
24.761566,24.914812,66,60,0
24.914812,25.069859,62,60,0
25.069859,25.298826,62,60,0
25.531397,25.87755,62,60,0
25.87755,25.915411,61,60,0
25.915411,25.953272,62,60,0
25.953272,25.992935,64,60,0
24.146784,25.992935,54,86,0
24.146784,25.992935,57,86,0
25.992935,26.360723,62,60,0
26.454473,26.638367,61,60,0
26.800627,26.916012,69,60,0
25.992935,27.839087,52,86,0
25.992935,27.839087,57,86,0
26.916012,27.992332,79,79,0
27.992332,28.145576,76,60,0
28.145576,28.300625,73,60,0
28.300625,28.45387,69,60,0
28.45387,28.607115,64,60,0
28.607115,28.762163,61,60,0
28.762163,28.991129,61,60,0
29.223701,29.68524,61,60,0
27.839087,29.68524,55,86,0
27.839087,29.68524,57,86,0
29.68524,30.146778,64,59,0
30.146778,30.330671,62,63,0
30.492931,30.608315,74,65,0
29.68524,31.531391,54,85,0
29.68524,31.531391,57,85,0
30.608315,31.684637,86,82,0
31.684637,31.837881,81,73,0
31.837881,31.99293,78,74,0
31.99293,32.146175,74,75,0
32.146175,32.29942,69,76,0
32.29942,32.454468,66,77,0
32.454468,32.683434,66,78,0
32.916004,33.14497,66,82,0
31.531391,33.377544,60,89,0
31.531391,33.377544,62,89,0
33.377544,34.06985,67,85,0
34.06985,34.145573,69,89,0
34.145573,34.223095,67,90,0
34.223095,34.284393,66,90,0
34.30062,34.416004,67,91,0
34.416004,34.531387,69,92,0
34.531387,34.646774,71,93,0
34.646774,34.762157,72,93,0
34.762157,34.87754,74,94,0
34.87754,34.992928,76,95,0
34.992928,35.10831,78,96,0
35.10831,35.223694,79,97,0
33.377544,35.223694,59,93,0
33.377544,35.223694,62,93,0
35.223694,35.299416,81,97,0
35.299416,35.377014,80,97,0
35.377014,35.454697,81,97,0
35.454697,35.53068,80,97,0
35.53068,35.6086,81,97,0
35.6086,35.686623,80,97,0
35.686623,35.762936,81,97,0
35.762936,35.841248,80,97,0
35.841248,35.91968,81,97,0
35.91968,35.996414,80,97,0
35.996414,36.07516,81,97,0
36.07516,36.154087,80,97,0
36.154087,36.23132,81,97,0
36.23132,36.31056,80,97,0
36.31056,36.390053,81,97,0
36.390053,36.46786,80,97,0
36.46786,36.5477,81,97,0
36.5477,36.627804,80,97,0
36.627804,36.706276,81,97,0
36.706276,36.78681,80,97,0
36.78681,36.867584,81,97,0
36.867584,36.946796,80,97,0
36.946796,37.02812,78,97,0
37.02812,37.09257,80,97,0
35.223694,37.109642,58,97,0
35.223694,37.109642,62,97,0
37.109642,37.22503,45,97,0
37.22503,37.340412,57,60,0
37.340412,37.455795,56,60,0
37.109642,37.571182,81,97,0
37.455795,37.571182,57,60,0
37.571182,37.686565,59,60,0
37.686565,37.80195,57,60,0
37.80195,37.917336,56,60,0
37.917336,38.03272,57,60,0
38.03272,38.49426,45,60,0
38.49426,38.609642,79,60,0
38.609642,38.725025,88,60,0
38.725025,38.840412,85,60,0
38.840412,38.955795,79,60,0
38.955795,39.07118,76,60,0
39.07118,39.186565,85,60,0
39.186565,39.30195,79,60,0
39.30195,39.41733,76,60,0
39.41733,39.53272,73,60,0
39.53272,39.6481,79,60,0
39.6481,39.763485,76,60,0
39.763485,39.878872,73,60,0
39.878872,39.994255,67,60,0
39.994255,40.109642,76,60,0
40.109642,40.225025,73,60,0
40.225025,40.34041,67,60,0
40.34041,40.455795,64,60,0
40.455795,40.57118,73,60,0
40.57118,40.68656,67,60,0
40.68656,40.80195,64,60,0
40.80195,40.91733,33,97,0
40.91733,41.032715,45,60,0
41.032715,41.1481,44,60,0
40.80195,41.263485,66,97,0
40.80195,41.263485,74,97,0
41.1481,41.263485,45,60,0
41.263485,41.37887,47,60,0
41.37887,41.494255,45,60,0
41.494255,41.60964,44,60,0
41.60964,41.72502,45,60,0
41.72502,42.18656,33,60,0
42.18656,42.301945,78,60,0
42.301945,42.41733,86,60,0
42.41733,42.532715,81,60,0
42.532715,42.648098,78,60,0
42.648098,42.763485,74,60,0
42.763485,42.87887,81,60,0
42.87887,42.99425,78,60,0
42.99425,43.10964,74,60,0
43.10964,43.22502,69,60,0
43.22502,43.340405,78,60,0
43.340405,43.45579,74,60,0
43.45579,43.571175,69,60,0
43.571175,43.68656,66,60,0
43.68656,43.801945,74,60,0
43.801945,43.917328,69,60,0
43.917328,44.032715,66,60,0
44.032715,44.148098,62,60,0
44.148098,44.26348,69,60,0
44.26348,44.37887,66,60,0
44.37887,44.49425,62,60,0
44.49425,44.609634,45,97,0
44.609634,44.72502,57,60,0
44.72502,44.840405,56,60,0
44.49425,44.955788,61,97,0
44.49425,44.955788,64,97,0
44.49425,44.955788,67,97,0
44.840405,44.955788,57,60,0
44.955788,45.071175,59,60,0
45.071175,45.186558,57,60,0
45.186558,45.30194,56,60,0
45.30194,45.417328,57,60,0
45.417328,45.878864,45,60,0
45.878864,45.99425,83,60,0
45.99425,46.109634,82,60,0
46.109634,46.225018,83,60,0
46.225018,46.316967,82,60,0
46.340405,46.4558,83,113,0
46.4558,46.571404,85,113,0
46.571404,46.687237,83,113,0
46.687237,46.80333,82,113,0
46.80333,46.919704,83,113,0
46.919704,47.036392,81,113,0
47.036392,47.15341,79,113,0
47.15341,47.270794,78,113,0
47.270794,47.38857,76,113,0
47.38857,47.50676,74,113,0
47.50676,47.6254,73,113,0
47.6254,47.744514,71,113,0
47.744514,47.864136,69,113,0
47.864136,47.98429,67,113,0
47.98429,48.105015,66,113,0
48.105015,48.2017,64,113,0
46.340405,48.226353,33,113,0
46.340405,48.226353,45,113,0
48.226353,48.45712,62,60,0
48.226353,48.45712,38,60,0
48.226353,48.45712,50,60,0
48.45712,48.68789,66,60,0
48.45712,48.68789,54,60,0
48.68789,48.91866,69,60,0
48.68789,48.91866,57,60,0
48.91866,49.149426,67,60,0
48.91866,49.149426,55,60,0
49.149426,49.380196,66,60,0
49.149426,49.380196,54,60,0
49.380196,49.610966,64,60,0
49.380196,49.610966,52,60,0
49.610966,49.841736,62,60,0
49.610966,49.841736,50,60,0
49.841736,50.072502,61,60,0
49.841736,50.072502,49,60,0
50.072502,50.303272,62,59,0
50.072502,50.303272,50,59,0
50.303272,50.534042,64,60,0
50.303272,50.534042,52,60,0
50.534042,50.76481,66,61,0
50.534042,50.76481,54,61,0
50.76481,50.99558,67,62,0
50.76481,50.99558,55,62,0
50.99558,51.22635,69,63,0
50.99558,51.22635,57,63,0
51.22635,51.45712,71,64,0
51.22635,51.45712,59,64,0
51.45712,51.687885,73,65,0
51.45712,51.687885,61,65,0
51.687885,51.918655,74,66,0
51.687885,51.918655,62,66,0
51.918655,52.149426,71,67,0
51.918655,52.149426,59,67,0
52.149426,52.38019,74,68,0
52.149426,52.38019,62,68,0
52.38019,52.610962,78,69,0
52.38019,52.610962,66,69,0
52.610962,52.841732,76,70,0
52.610962,52.841732,64,70,0
52.841732,53.0725,74,71,0
52.841732,53.0725,62,71,0
53.0725,53.30327,73,72,0
53.0725,53.30327,61,72,0
53.30327,53.53404,71,73,0
53.30327,53.53404,59,73,0
53.53404,53.76481,70,74,0
53.53404,53.76481,58,74,0
53.76481,53.995575,71,75,0
53.76481,53.995575,59,75,0
53.995575,54.226345,73,76,0
53.995575,54.226345,61,76,0
54.226345,54.457115,74,77,0
54.226345,54.457115,62,77,0
54.457115,54.68788,76,77,0
54.457115,54.68788,64,77,0
54.68788,54.91865,78,78,0
54.68788,54.91865,66,78,0
54.91865,55.14942,80,79,0
54.91865,55.14942,68,79,0
55.14942,55.38019,82,80,0
55.14942,55.38019,70,80,0
55.38019,55.564083,83,81,0
55.38019,55.564083,71,81,0
55.61096,55.84173,80,82,0
55.61096,55.84173,68,82,0
55.84173,56.0725,83,83,0
55.84173,56.0725,71,83,0
56.0725,56.303265,86,84,0
56.0725,56.303265,74,84,0
56.303265,56.534035,85,85,0
56.303265,56.534035,73,85,0
56.534035,56.764805,83,86,0
56.534035,56.764805,71,86,0
56.764805,56.995575,81,87,0
56.764805,56.995575,69,87,0
56.995575,57.22634,80,88,0
56.995575,57.22634,68,88,0
57.22634,57.45711,78,89,0
57.22634,57.45711,66,89,0
57.45711,57.68801,76,90,0
57.45711,57.68801,64,90,0
57.68801,57.91944,75,91,0
57.68801,57.91944,63,91,0
57.91944,58.151512,74,92,0
57.91944,58.151512,62,92,0
58.151512,58.384346,73,93,0
58.151512,58.384346,61,93,0
58.384346,58.618053,71,94,0
58.384346,58.618053,59,94,0
58.618053,58.852764,69,94,0
58.618053,58.852764,57,94,0
58.852764,59.088596,68,95,0
58.852764,59.088596,56,95,0
59.088596,59.277454,66,96,0
59.088596,59.277454,54,96,0
59.325684,59.439266,40,97,0
59.325684,59.55465,64,97,0
59.556454,59.78722,52,97,0
59.78722,60.01799,51,97,0
60.01799,60.201885,52,97,0
60.24876,60.362343,50,97,0
59.78722,60.710297,56,97,0
59.78722,60.710297,59,97,0
59.78722,60.710297,64,97,0
60.47953,60.710297,52,97,0
60.710297,60.941067,51,97,0
60.941067,61.12496,52,97,0
61.171837,61.28542,47,97,0
60.710297,61.63397,56,97,0
60.710297,61.63397,59,97,0
60.710297,61.63397,64,97,0
61.402702,61.63397,52,97,0
61.63397,61.86571,51,97,0
61.86571,62.050774,52,97,0
62.098026,62.2126,44,97,0
61.63397,62.564705,59,97,0
61.63397,62.564705,62,97,0
61.63397,62.564705,64,97,0
62.330994,62.564705,52,97,0
62.564705,62.797413,59,97,0
62.564705,62.797413,62,97,0
62.564705,62.797413,64,97,0
62.564705,62.799248,51,97,0
62.799248,62.986843,52,97,0
63.034725,63.26369,57,97,0
63.034725,63.26369,61,97,0
63.034725,63.26369,64,97,0
63.034725,63.265495,45,97,0
63.265495,63.49626,52,97,0
63.49626,63.72703,49,113,0
63.72703,63.9578,52,113,0
63.49626,64.18857,81,113,0
63.9578,64.18857,45,113,0
64.18857,64.303955,80,113,0
64.303955,64.41934,78,113,0
64.18857,64.41934,52,113,0
64.41934,64.53472,76,113,0
64.53472,64.65011,74,113,0
64.41934,64.65011,49,113,0
64.65011,64.765495,73,113,0
64.765495,64.880875,71,113,0
64.65011,64.880875,52,113,0
64.880875,64.97102,69,113,0
64.880875,65.11165,42,113,0
65.11165,65.22703,68,113,0
65.22703,65.342415,66,113,0
65.11165,65.342415,52,113,0
65.342415,65.4578,64,113,0
65.4578,65.57318,63,113,0
65.342415,65.57318,45,113,0
65.57318,65.68857,61,113,0
65.68857,65.803955,59,113,0
65.57318,65.803955,52,113,0
65.803955,65.986046,57,113,0
65.803955,66.03472,42,113,0
66.03472,66.26549,52,113,0
66.26549,66.49445,57,113,0
66.26549,66.49626,45,113,0
66.49626,66.72703,52,113,0
66.72703,66.84061,40,113,0
66.72703,66.95599,56,113,0
66.957794,67.18857,52,113,0
67.18857,67.419334,51,113,0
67.419334,67.60323,52,113,0
67.65011,67.76369,50,113,0
67.18857,68.11164,56,113,0
67.18857,68.11164,59,113,0
67.18857,68.11164,64,113,0
67.880875,68.11164,52,113,0
68.11164,68.342415,51,113,0
68.342415,68.526306,52,113,0
68.57318,68.68677,47,113,0
68.11164,69.03531,56,113,0
68.11164,69.03531,59,113,0
68.11164,69.03531,64,113,0
68.80405,69.03531,52,113,0
69.03531,69.26706,51,113,0
69.26706,69.45212,52,113,0
69.49937,69.613945,44,113,0
69.03531,69.96605,59,113,0
69.03531,69.96605,62,113,0
69.03531,69.96605,64,113,0
69.73234,69.96605,52,113,0
69.96605,70.19876,59,113,0
69.96605,70.19876,62,113,0
69.96605,70.19876,64,113,0
69.96605,70.20059,51,113,0
70.20059,70.38818,52,113,0
70.43607,70.66504,57,113,0
70.43607,70.66504,61,113,0
70.43607,70.66504,64,113,0
70.43607,70.66684,45,113,0
70.66684,70.897606,52,113,0
70.897606,71.12838,49,113,0
71.12838,71.359146,52,113,0
70.897606,71.58991,81,127,0
71.359146,71.58991,45,113,0
71.58991,71.7053,80,113,0
71.7053,71.82069,78,113,0
71.58991,71.82069,52,113,0
71.82069,71.936066,76,113,0
71.936066,72.05145,74,113,0
71.82069,72.05145,49,113,0
72.05145,72.16684,73,113,0
72.16684,72.28222,71,113,0
72.05145,72.28222,52,113,0
72.28222,72.37237,69,113,0
72.28222,72.51299,42,113,0
72.51299,72.62837,68,113,0
72.62837,72.74376,66,113,0
72.51299,72.74376,52,113,0
72.74376,72.859146,64,113,0
72.859146,72.974525,63,113,0
72.74376,72.974525,45,113,0
72.974525,73.08991,61,113,0
73.08991,73.2053,59,113,0
72.974525,73.2053,52,113,0
73.2053,73.38739,57,113,0
73.2053,73.436066,42,113,0
73.436066,73.66684,52,113,0
73.66684,73.895805,57,113,0
73.66684,73.897606,45,113,0
73.897606,74.12837,52,113,0
74.12837,74.35734,56,113,0
74.12837,74.35734,40,113,0
75.16683,75.28222,52,113,0
75.16683,75.28222,40,113,0
75.28222,75.397606,54,113,0
75.28222,75.397606,42,113,0
75.397606,75.512985,56,113,0
75.397606,75.512985,44,113,0
75.512985,75.62837,57,113,0
75.512985,75.62837,45,113,0
75.62837,75.74376,59,113,0
75.62837,75.74376,47,113,0
75.74376,75.85914,61,113,0
75.74376,75.85914,49,113,0
75.85914,75.974525,63,113,0
75.85914,75.974525,51,113,0
75.974525,76.06467,64,127,0
75.974525,76.06467,52,127,0
76.20529,76.32068,66,113,0
76.20529,76.32068,54,113,0
76.32068,76.436066,68,113,0
76.32068,76.436066,56,113,0
76.436066,76.551445,69,113,0
76.436066,76.551445,57,113,0
76.551445,76.66683,71,113,0
76.551445,76.66683,59,113,0
76.66683,76.78222,73,113,0
76.66683,76.78222,61,113,0
76.78222,76.8976,75,113,0
76.78222,76.8976,63,113,0
76.8976,76.98775,76,127,0
76.8976,76.98775,64,127,0
77.12837,77.24375,78,113,0
77.12837,77.24375,66,113,0
77.24375,77.35914,80,113,0
77.24375,77.35914,68,113,0
77.35914,77.474525,81,113,0
77.35914,77.474525,69,113,0
77.474525,77.58991,83,113,0
77.474525,77.58991,71,113,0
77.58991,77.70529,85,113,0
77.58991,77.70529,73,113,0
77.70529,77.82068,87,113,0
77.70529,77.82068,75,113,0
77.82068,78.00277,76,113,0
77.82068,78.413826,88,113,0
78.512985,78.74375,85,60,0
78.74375,78.974525,88,60,0
78.974525,79.20529,86,60,0
79.20529,79.43606,85,60,0
79.43606,79.61996,83,60,0
79.66683,79.8976,86,60,0
79.8976,80.128365,85,60,0
80.128365,80.35914,83,60,0
80.35914,80.54303,81,60,0
80.589905,80.82067,85,60,0
80.82067,81.051445,83,60,0
81.051445,81.28221,81,60,0
81.28221,81.46611,80,60,0
81.512985,81.74375,83,60,0
81.74375,81.97452,81,60,0
81.97452,82.20552,80,60,0
82.20552,82.43745,78,60,0
81.97452,82.43745,73,60,0
82.43745,82.67051,77,60,0
82.67051,82.90491,78,60,0
82.43745,82.90491,74,60,0
82.90491,83.14088,80,60,0
83.14088,83.33004,78,60,0
82.90491,83.37829,70,60,0
83.37829,83.76145,71,60,0
83.37829,84.34785,76,60,0
84.34785,84.736565,74,35,0
85.323456,86.24653,54,60,0
85.323456,86.24653,59,60,0
85.323456,86.24653,62,60,0
85.323456,86.24653,66,60,0
85.323456,86.24653,38,60,0
85.323456,86.24653,42,60,0
85.323456,86.24653,47,60,0
85.323456,86.24653,50,60,0
89.477295,89.70661,52,60,0
89.477295,89.70661,56,60,0
89.477295,89.70661,62,60,0
89.477295,89.70661,40,60,0
89.941025,90.17357,52,60,0
89.941025,90.17357,56,60,0
89.941025,90.17357,62,60,0
89.941025,90.17357,40,60,0
90.41195,90.60032,52,60,0
90.41195,90.60032,56,60,0
90.41195,90.60032,62,60,0
90.41195,90.60032,40,60,0
90.89237,91.89071,56,60,0
90.89237,91.89071,62,60,0
90.89237,92.29643,52,60,0
91.89071,92.29643,57,60,0
91.89071,92.29643,61,60,0
90.89237,92.29643,33,60,0
90.89237,92.29643,45,60,0
92.394905,92.56232,76,60,0
92.56232,92.71556,81,60,0
92.71556,92.83816,85,60,0
92.87061,93.561905,88,60,0
93.561905,93.791725,85,60,0
93.791725,93.94421,88,60,0
93.94421,94.09653,86,60,0
94.09653,94.25054,85,60,0
94.25054,94.40267,83,60,0
94.40267,94.55467,82,60,0
94.55467,94.70846,83,60,0
94.70846,94.86037,86,60,0
94.86037,95.012085,85,60,0
95.012085,95.165474,83,60,0
95.165474,95.317,81,60,0
95.317,95.46846,80,60,0
95.46846,95.621605,81,60,0
95.621605,95.772896,85,60,0
95.772896,95.924126,83,60,0
95.924126,96.077065,81,60,0
96.077065,96.22815,80,60,0
96.22815,96.37919,79,60,0
96.37919,96.53196,80,60,0
96.53196,96.6456,83,60,0
96.6456,96.75923,81,60,0
96.75923,96.87287,80,60,0
96.87287,96.963425,78,60,0
96.9865,97.13743,76,60,0
97.13743,97.28835,80,60,0
97.28835,97.44105,78,60,0
97.44105,97.59197,76,60,0
97.59197,97.7429,80,60,0
97.7429,97.8956,78,60,0
97.8956,98.04652,76,60,0
98.04652,98.19744,80,60,0
98.19744,98.318184,78,60,0
98.35014,99.347725,76,60,0
99.347725,99.795166,74,60,0
100.84376,101.303696,71,79,0
100.84376,101.303696,59,79,0
101.303696,101.484856,68,60,0
101.303696,101.484856,56,60,0
101.76251,102.22043,69,79,0
101.76251,102.22043,57,79,0
102.22043,102.400894,66,60,0
102.22043,102.400894,54,60,0
102.67744,103.133575,68,79,0
102.67744,103.133575,56,79,0
103.133575,103.31333,65,60,0
103.133575,103.31333,53,60,0
103.589035,104.04393,66,79,0
103.589035,104.04393,54,79,0
104.04393,104.22338,62,60,0
104.04393,104.22338,50,60,0
104.96011,105.190605,64,60,0
104.96011,105.190605,52,60,0
105.90069,106.05393,69,60,0
105.90069,106.05393,57,60,0
106.05393,106.20718,73,60,0
106.05393,106.20718,61,60,0
106.20718,106.36223,76,60,0
106.20718,106.36223,64,60,0
106.36223,106.51547,68,60,0
106.36223,106.51547,56,60,0
106.51547,106.66872,73,60,0
106.51547,106.66872,61,60,0
106.66872,106.82376,76,60,0
106.66872,106.82376,64,60,0
106.82376,106.97701,69,60,0
106.82376,106.97701,57,60,0
106.97701,107.13026,73,60,0
106.97701,107.13026,61,60,0
107.13026,107.2853,76,60,0
107.13026,107.2853,64,60,0
107.2853,107.438545,64,60,0
107.2853,107.438545,52,60,0
107.438545,107.59179,73,60,0
107.438545,107.59179,61,60,0
107.59179,107.74684,76,60,0
107.59179,107.74684,64,60,0
107.74684,107.900085,67,60,0
107.74684,107.900085,55,60,0
107.900085,108.05333,73,60,0
107.900085,108.05333,61,60,0
108.05333,108.20838,76,60,0
108.05333,108.20838,64,60,0
108.20838,108.361626,66,60,0
108.20838,108.361626,54,60,0
108.361626,108.51487,73,60,0
108.361626,108.51487,61,60,0
108.51487,108.669914,76,60,0
108.51487,108.669914,64,60,0
108.669914,108.82316,67,60,0
108.669914,108.82316,55,60,0
108.82316,108.97641,73,60,0
108.82316,108.97641,61,60,0
108.97641,109.131454,76,60,0
108.97641,109.131454,64,60,0
109.131454,109.2847,64,60,0
109.131454,109.2847,52,60,0
109.2847,109.43794,73,60,0
109.2847,109.43794,61,60,0
109.43794,109.56054,76,60,0
109.43794,109.56054,64,60,0
109.592995,109.74624,66,60,0
109.592995,109.74624,54,60,0
109.74624,109.89948,69,61,0
109.74624,109.89948,57,61,0
109.89948,110.05453,74,62,0
109.89948,110.05453,62,62,0
110.05453,110.20778,65,62,0
110.05453,110.20778,53,62,0
110.20778,110.36102,69,63,0
110.20778,110.36102,57,63,0
110.36102,110.51607,74,63,0
110.36102,110.51607,62,63,0
110.51607,110.66931,66,64,0
110.51607,110.66931,54,64,0
110.66931,110.822556,69,64,0
110.66931,110.822556,57,64,0
110.822556,110.97761,74,65,0
110.822556,110.97761,62,65,0
110.97761,111.13085,62,65,0
110.97761,111.13085,50,65,0
111.13085,111.284096,69,66,0
111.13085,111.284096,57,66,0
111.284096,111.43915,74,66,0
111.284096,111.43915,62,66,0
111.43915,111.59239,64,67,0
111.43915,111.59239,52,67,0
111.59239,111.745636,67,67,0
111.59239,111.745636,55,67,0
111.745636,111.90068,69,68,0
111.745636,111.90068,57,68,0
111.90068,112.053925,63,68,0
111.90068,112.053925,51,68,0
112.053925,112.20718,67,69,0
112.053925,112.20718,55,69,0
112.20718,112.36222,69,69,0
112.20718,112.36222,57,69,0
112.36222,112.515465,64,70,0
112.36222,112.515465,52,70,0
112.515465,112.66871,67,71,0
112.515465,112.66871,55,71,0
112.66871,112.82376,69,71,0
112.66871,112.82376,57,71,0
112.82376,112.977005,61,72,0
112.82376,112.977005,49,72,0
112.977005,113.13025,67,72,0
112.977005,113.13025,55,72,0
113.13025,113.252846,69,73,0
113.13025,113.252846,57,73,0
113.28529,113.438545,62,60,0
113.28529,113.438545,50,60,0
113.438545,113.59179,66,60,0
113.438545,113.59179,54,60,0
113.59179,113.74683,69,60,0
113.59179,113.74683,57,60,0
113.74683,113.90008,61,60,0
113.74683,113.90008,49,60,0
113.90008,114.05332,66,60,0
113.90008,114.05332,54,60,0
114.05332,114.208374,69,60,0
114.05332,114.208374,57,60,0
114.208374,114.36162,62,60,0
114.208374,114.36162,50,60,0
114.36162,114.51486,66,60,0
114.36162,114.51486,54,60,0
114.51486,114.669914,69,60,0
114.51486,114.669914,57,60,0
114.669914,114.82316,57,60,0
114.669914,114.82316,45,60,0
114.82316,114.9764,66,60,0
114.82316,114.9764,54,60,0
114.9764,115.099,69,60,0
114.9764,115.099,57,60,0
115.13145,115.28469,61,60,0
115.13145,115.28469,49,60,0
115.28469,115.43794,64,60,0
115.28469,115.43794,52,60,0
115.43794,115.59299,69,60,0
115.43794,115.59299,57,60,0
115.59299,115.74623,60,60,0
115.59299,115.74623,48,60,0
115.74623,115.899475,64,60,0
115.74623,115.899475,52,60,0
115.899475,116.05453,69,60,0
115.899475,116.05453,57,60,0
116.05453,116.20777,61,60,0
116.05453,116.20777,49,60,0
116.20777,116.361015,64,60,0
116.20777,116.361015,52,60,0
116.361015,116.51606,69,60,0
116.361015,116.51606,57,60,0
116.51606,116.66931,57,60,0
116.51606,116.66931,45,60,0
116.66931,116.822556,64,60,0
116.66931,116.822556,52,60,0
116.822556,116.9776,69,60,0
116.822556,116.9776,57,60,0
116.9776,117.130844,59,60,0
116.9776,117.130844,47,60,0
117.130844,117.28409,62,63,0
117.130844,117.28409,50,63,0
117.28409,117.43914,64,65,0
117.28409,117.43914,52,65,0
117.43914,117.592384,58,67,0
117.43914,117.592384,46,67,0
117.592384,117.74563,62,69,0
117.592384,117.74563,50,69,0
117.74563,117.90068,64,71,0
117.74563,117.90068,52,71,0
117.90068,118.053925,59,73,0
117.90068,118.053925,47,73,0
118.053925,118.20717,62,75,0
118.053925,118.20717,50,75,0
118.20717,118.36221,64,77,0
118.20717,118.36221,52,77,0
118.36221,118.51546,56,80,0
118.36221,118.51546,44,80,0
118.51546,118.638054,62,82,0
118.51546,118.6687,50,82,0
118.6687,118.74623,64,84,0
118.6687,118.7913,52,84,0
118.74623,118.82375,64,85,0
118.82375,118.977,45,86,0
118.977,119.13024,49,86,0
119.13024,119.28529,52,86,0
119.28529,119.43854,44,86,0
119.43854,119.59178,49,86,0
119.59178,119.746826,52,86,0
119.746826,119.90007,45,86,0
119.90007,120.05332,49,86,0
118.82375,120.10921,76,86,0
120.05332,120.20837,52,86,0
120.20837,120.32375,74,86,0
120.20837,120.36161,40,86,0
120.32375,120.43913,73,86,0
120.36161,120.514854,49,86,0
120.43913,120.55452,71,86,0
120.55452,120.66991,69,86,0
120.514854,120.66991,52,86,0
120.66991,120.82315,47,60,0
120.66991,120.852,64,60,0
120.82315,120.976395,50,60,0
120.976395,121.13144,52,60,0
121.13144,121.28469,46,60,0
121.28469,121.437935,50,60,0
121.437935,121.59298,52,60,0
121.59298,121.74622,47,60,0
121.74622,121.89947,50,60,0
121.89947,122.05452,52,60,0
122.05452,122.20776,44,60,0
122.20776,122.36101,50,60,0
122.40067,122.51606,76,60,0
122.36101,122.51606,52,60,0
122.51606,122.669304,45,60,0
122.669304,122.82255,48,63,0
122.82255,122.97759,52,65,0
122.97759,123.13084,44,67,0
123.13084,123.28409,48,69,0
123.28409,123.43913,52,71,0
123.43913,123.59238,45,73,0
123.59238,123.74562,48,75,0
122.51606,123.90067,88,60,0
123.74562,123.90067,52,77,0
123.90067,124.01605,86,80,0
123.90067,124.05392,40,80,0
124.01605,124.13144,84,81,0
124.05392,124.20716,48,82,0
124.13144,124.246826,83,83,0
124.246826,124.362206,81,84,0
124.20716,124.362206,52,84,0
124.362206,124.51546,43,60,0
124.362206,124.5443,82,60,0
124.51546,124.6687,46,60,0
124.6687,124.823746,48,60,0
124.823746,124.97699,42,60,0
124.97699,125.13023,46,60,0
125.13023,125.285286,48,60,0
125.285286,125.43853,43,60,0
125.43853,125.591774,46,60,0
125.591774,125.746826,48,60,0
125.746826,125.90007,40,60,0
125.90007,126.053314,46,60,0
126.09298,126.20836,72,60,0
126.053314,126.20836,48,60,0
126.20836,126.3616,41,59,0
126.3616,126.514854,45,63,0
126.514854,126.6699,48,66,0
126.6699,126.82314,40,69,0
126.82314,126.97639,45,72,0
126.97639,127.13144,48,75,0
127.13144,127.28468,41,78,0
127.28468,127.43793,45,82,0
126.20836,127.59297,84,59,0
127.43793,127.59297,48,85,0
127.59297,127.70836,82,88,0
127.59297,127.74622,33,88,0
127.70836,127.823746,81,90,0
127.74622,127.89947,45,91,0
127.823746,127.939125,79,93,0
127.939125,128.05452,77,95,0
127.89947,128.05452,48,94,0
128.05452,128.20787,43,97,0
128.05452,128.23859,72,97,0
128.20787,128.36171,46,97,0
128.28561,128.51804,84,97,0
128.36171,128.51804,48,97,0
128.51804,128.67326,42,97,0
128.51804,128.75209,84,97,0
128.67326,128.82927,46,97,0
128.75209,128.9881,84,97,0
128.82927,128.9881,48,97,0
128.9881,129.146,43,97,0
128.9881,129.22636,84,97,0
129.146,129.3051,46,97,0
129.22636,129.46724,84,97,0
129.3051,129.46724,48,97,0
129.46724,129.62885,40,97,0
129.46724,129.71109,84,97,0
129.62885,129.79192,46,97,0
129.79192,129.92343,48,97,0
129.71109,129.95834,84,97,0
129.95834,130.07193,84,97,0
130.18912,130.30269,84,60,0
129.95834,130.41988,41,97,0
129.95834,130.41988,45,97,0
129.95834,130.41988,48,97,0
129.95834,130.41988,53,97,0
130.41988,130.53346,82,60,0
130.65065,130.76424,81,60,0
130.88142,131.34296,79,60,0
131.34296,131.71074,77,60,0
131.34296,131.80449,53,60,0
131.80449,131.98659,46,60,0
132.03526,132.14885,77,60,0
132.26604,132.37961,76,59,0
132.4968,132.61038,74,58,0
132.72757,133.1891,72,56,0
133.1891,133.5569,70,53,0
133.1891,133.65065,46,50,0
133.65065,133.83273,48,50,0
133.88141,133.995,70,50,0
134.11218,134.22577,69,50,0
134.34296,134.45653,67,50,0
134.57372,135.03526,65,50,0
135.03526,135.40305,64,50,0
135.03526,135.4968,46,50,0
135.4968,135.61038,65,50,0
135.4968,135.67902,45,50,0
135.7278,135.84183,69,50,0
135.95973,136.07428,62,50,0
135.95973,136.19096,46,50,0
136.19278,136.30797,67,50,0
136.42719,136.54312,60,50,0
136.42719,136.6613,48,50,0
136.66316,136.77994,65,50,0
136.90091,137.01866,58,50,0
136.90091,137.13881,48,50,0
137.14069,137.25952,64,50,0
137.38275,137.61171,57,50,0
137.38275,137.61171,41,50,0
138.76736,139.2289,57,60,0
138.76736,139.2289,53,60,0
139.2289,139.411,65,60,0
139.2289,139.411,50,60,0
140.61351,141.07504,65,60,0
140.61351,141.07504,50,60,0
141.07504,141.25714,62,60,0
141.07504,141.25714,47,60,0
142.45967,142.9212,59,50,0
142.45967,142.9212,62,50,0
143.15198,143.26555,74,50,0
142.9212,143.38274,59,50,0
142.9212,143.38274,62,50,0
143.38274,143.49632,72,50,0
143.61351,143.7271,71,50,0
143.84428,144.30582,69,50,0
144.30582,144.6736,68,50,0
144.30582,144.76735,59,50,0
144.30582,144.76735,62,50,0
144.99811,145.22853,74,50,0
144.76735,145.22853,59,50,0
144.76735,145.22853,62,50,0
145.22853,145.45865,73,49,0
145.45865,145.68846,71,53,0
145.68846,145.91801,69,56,0
145.91801,146.1473,68,60,0
146.1473,146.37631,78,63,0
146.37631,146.55872,76,67,0
146.1473,146.60521,47,63,0
146.1473,146.60521,50,63,0
146.1473,146.60521,56,63,0
146.60521,146.78568,49,70,0
146.60521,146.78568,52,70,0
146.60521,146.78568,58,70,0
146.83386,147.06221,76,73,0
147.06221,147.29037,74,77,0
147.29037,147.51834,73,80,0
147.51834,147.74615,71,84,0
147.74615,147.9738,70,87,0
147.9738,148.20132,79,90,0
148.20132,148.38252,78,94,0
147.9738,148.42871,49,90,0
147.9738,148.42871,52,90,0
147.9738,148.42871,58,90,0
148.42871,148.60803,50,97,0
148.42871,148.60803,54,97,0
148.42871,148.60803,59,97,0
148.65598,148.88326,78,97,0
148.88326,149.11052,76,97,0
149.11052,149.3378,74,97,0
149.3378,149.56506,73,97,0
149.56506,149.79234,71,97,0
149.79234,150.0196,82,97,0
150.0196,150.20071,83,97,0
150.24689,150.47438,77,97,0
150.47438,150.70277,78,97,0
150.70277,150.93227,85,97,0
150.93227,151.16307,86,97,0
151.16307,151.39539,82,97,0
151.39539,151.62943,83,97,0
151.62943,151.86543,86,97,0
151.86543,152.05513,83,97,0
152.10364,152.17937,85,60,0
152.17937,152.25688,83,60,0
152.25688,152.33438,85,60,0
152.10364,152.33438,64,60,0
152.33438,152.40996,83,59,0
152.40996,152.48732,85,60,0
152.48732,152.56464,83,61,0
152.33438,152.56464,68,59,0
152.56464,152.64006,85,62,0
152.64006,152.71729,83,63,0
152.71729,152.79443,85,64,0
152.56464,152.79443,71,62,0
152.79443,152.86972,83,65,0
152.86972,152.9468,85,65,0
152.9468,153.02379,83,66,0
152.79443,153.02379,69,65,0
153.02379,153.09894,85,67,0
153.09894,153.17589,83,68,0
153.17589,153.25272,85,69,0
153.02379,153.25272,68,67,0
153.25272,153.32774,83,70,0
153.32774,153.40456,85,70,0
153.40456,153.48125,83,71,0
153.25272,153.48125,66,70,0
153.48125,153.55617,85,72,0
153.55617,153.63283,83,73,0
153.63283,153.70941,85,74,0
153.48125,153.70941,64,72,0
153.70941,153.78421,83,75,0
153.78421,153.8608,85,75,0
153.8608,153.93738,83,76,0
153.70941,153.93738,63,75,0
153.93738,154.01218,85,77,0
154.01218,154.08862,83,78,0
154.08862,154.165,85,79,0
153.93738,154.165,64,77,0
154.165,154.2396,83,80,0
154.2396,154.31589,85,80,0
154.31589,154.39217,83,81,0
154.165,154.39217,71,80,0
154.39217,154.46666,85,82,0
154.46666,154.54285,83,83,0
154.54285,154.61903,85,84,0
154.39217,154.61903,74,82,0
154.61903,154.69344,83,85,0
154.69344,154.76953,85,86,0
154.76953,154.84564,83,86,0
154.61903,154.84564,73,85,0
154.84564,154.91994,85,87,0
154.91994,154.99597,83,88,0
154.99597,155.07199,85,89,0
154.84564,155.07199,71,87,0
155.07199,155.14621,83,90,0
155.14621,155.22217,85,91,0
155.22217,155.29813,83,91,0
155.07199,155.29813,69,90,0
155.29813,155.37225,85,92,0
155.37225,155.44815,83,93,0
155.44815,155.52403,85,94,0
155.29813,155.52403,68,92,0
155.52403,155.5981,83,95,0
155.5981,155.67393,85,96,0
155.52403,155.70392,66,95,0
155.67393,155.74977,83,96,0
155.74977,155.82378,85,97,0
155.82378,155.89955,83,97,0
155.89955,155.97533,85,97,0
155.74977,155.97533,64,97,0
155.97533,156.04935,83,97,0
156.04935,156.12512,85,97,0
155.97533,156.15508,63,97,0
156.12512,156.2009,83,97,0
156.2009,156.2749,85,97,0
156.2009,156.31192,62,97,0
156.2749,156.35068,83,97,0
156.35068,156.42645,85,97,0
156.42645,156.50047,83,97,0
156.42645,156.53748,61,97,0
156.50047,156.57625,85,97,0
156.57625,156.65202,83,97,0
156.65202,156.72603,85,97,0
156.65202,156.76305,59,97,0
156.72603,156.8018,83,97,0
156.8018,156.87758,85,97,0
156.87758,156.9516,83,97,0
156.87758,156.9886,57,97,0
156.9516,157.02737,85,97,0
157.02737,157.10315,83,97,0
157.10315,157.17715,85,97,0
157.10315,157.21417,56,97,0
157.17715,157.25293,83,97,0
157.25293,157.3287,85,97,0
157.3287,157.40273,83,97,0
157.3287,157.43973,54,97,0
157.40273,157.4785,85,97,0
157.4785,157.55428,83,97,0
157.55428,157.6283,85,97,0
157.55428,157.66531,52,97,0
157.6283,157.70421,83,97,0
157.70421,157.78027,85,97,0
157.78027,157.8548,83,97,0
157.78027,157.89215,50,97,0
157.8548,157.93134,85,97,0
157.93134,158.00807,83,97,0
158.00807,158.08322,85,97,0
158.00807,158.12096,49,97,0
158.08322,158.16052,83,97,0
158.16052,158.23805,85,97,0
158.23805,158.31403,83,97,0
158.23805,158.35219,47,97,0
158.31403,158.39217,85,97,0
158.39217,158.47067,83,97,0
158.47067,158.54762,85,97,0
158.47067,158.58627,45,97,0
158.54762,158.62675,83,97,0
158.62675,158.70639,85,97,0
158.70639,158.7845,83,97,0
158.70639,158.8237,44,97,0
158.7845,158.86482,85,97,0
158.86482,158.9457,83,97,0
158.9457,159.02515,85,97,0
158.9457,159.06497,42,97,0
159.02515,159.1069,83,97,0
159.1069,159.18915,85,97,0
159.18915,159.27014,83,97,0
159.18915,159.31067,40,97,0
159.27014,159.35353,81,97,0
159.35353,159.41978,83,97,0
159.43735,160.24617,69,113,0
159.43735,160.24617,81,113,0
159.43735,160.24617,33,113,0
159.43735,160.24617,45,113,0
160.362,161.17519,57,113,0
160.362,161.17519,64,113,0
160.362,161.17519,69,113,0
160.362,161.17519,37,113,0
160.362,161.17519,45,113,0
160.362,161.17519,49,113,0
161.29161,162.11072,57,113,0
161.29161,162.11072,66,113,0
161.29161,162.11072,69,113,0
161.29161,162.11072,38,113,0
161.29161,162.11072,45,113,0
161.29161,162.11072,50,113,0
162.22826,163.05537,57,113,0
162.22826,163.05537,62,113,0
162.22826,163.05537,69,113,0
162.22826,163.05537,42,113,0
162.22826,163.05537,50,113,0
162.22826,163.05537,54,113,0
163.17407,163.40306,59,113,0
163.17407,163.40306,62,113,0
163.17407,163.40306,71,113,0
163.17407,163.40306,44,113,0
163.17407,163.40306,50,113,0
163.17407,163.40306,52,113,0
163.17407,163.40306,56,113,0
163.63588,163.86536,59,113,0
163.63588,163.86536,62,113,0
163.63588,163.86536,64,113,0
163.63588,163.86536,44,113,0
163.63588,163.86536,50,113,0
163.63588,163.86536,52,113,0
163.63588,163.86536,56,113,0
165.02834,165.25981,61,113,0
165.02834,165.25981,64,113,0
165.02834,165.25981,73,113,0
165.02834,165.25981,45,113,0
165.02834,165.25981,49,113,0
165.02834,165.25981,52,113,0
165.02834,165.25981,57,113,0
165.49557,165.7282,61,113,0
165.49557,165.7282,64,113,0
165.49557,165.7282,69,113,0
165.49557,165.7282,45,113,0
165.49557,165.7282,49,113,0
165.49557,165.7282,52,113,0
165.49557,165.7282,57,113,0
167.0298,167.14777,62,60,0
167.14777,167.26476,64,60,0
167.26476,167.38084,68,60,0
166.91081,167.38084,47,60,0
167.49606,167.6105,59,61,0
167.6105,167.72418,58,62,0
167.38084,167.83717,74,59,0
167.72418,167.83717,59,64,0
167.94951,168.06123,64,66,0
168.06123,168.1724,69,68,0
168.1724,168.28305,64,69,0
167.83717,168.28305,49,65,0
168.39323,168.50298,61,72,0
168.50298,168.61234,60,73,0
168.28305,168.72133,76,70,0
168.61234,168.72133,61,74,0
168.83006,168.93954,66,77,0
168.93954,169.04985,69,78,0
169.04985,169.1611,66,80,0
168.72133,169.1611,50,76,0
169.2734,169.38687,62,82,0
169.38687,169.50162,61,84,0
169.1611,169.61777,78,81,0
169.50162,169.61777,62,85,0
169.73546,169.85484,68,88,0
169.85484,169.97607,74,89,0
169.97607,170.09932,68,91,0
169.61777,170.09932,52,86,0
170.22476,170.35258,64,93,0
170.09932,170.48303,80,92,0
170.35258,170.48303,63,95,0
170.48303,170.52676,74,96,0
170.52676,170.5705,80,96,0
170.5705,170.61636,83,97,0
170.48303,170.61636,64,96,0
170.61636,171.2772,86,116,0
171.2772,171.39258,85,97,0
171.39258,171.50797,83,97,0
171.50797,171.62335,81,97,0
171.62335,171.73874,80,97,0
171.73874,171.85413,81,97,0
171.85413,171.96951,83,97,0
171.96951,172.08488,81,97,0
172.08488,172.20027,80,97,0
172.20027,172.31566,78,97,0
172.31566,172.43105,76,97,0
172.43105,172.523,74,97,0
170.61636,172.54643,52,116,0
170.61636,172.54643,59,116,0
170.61636,172.54643,62,116,0
170.61636,172.54643,64,116,0
172.54643,172.77539,73,97,0
172.54643,173.00797,57,97,0
172.54643,173.00797,61,97,0
172.54643,173.00797,64,97,0
174.27719,174.31506,62,97,0
174.31506,174.35292,68,97,0
174.35292,174.39258,71,97,0
174.39258,174.9695,74,116,0
174.9695,175.08488,73,97,0
175.08488,175.20027,71,97,0
175.20027,175.31566,69,97,0
175.31566,175.43105,68,97,0
175.43105,175.54643,69,97,0
175.54643,175.6618,71,97,0
175.6618,175.77719,69,97,0
175.77719,175.89258,68,97,0
175.89258,176.00797,66,97,0
176.00797,176.12335,64,97,0
176.12335,176.23874,62,97,0
174.39258,176.23874,40,116,0
174.39258,176.23874,47,116,0
174.39258,176.23874,50,116,0
174.39258,176.23874,52,116,0
176.23874,176.42082,57,97,0
176.23874,176.4677,45,97,0
176.23874,176.4677,49,97,0
176.23874,176.4677,52,97,0
177.9695,178.00735,52,97,0
178.00735,178.04523,56,97,0
178.04523,178.08488,59,97,0
178.08488,178.6618,62,116,0
178.6618,178.77719,61,97,0
178.77719,178.89258,59,97,0
178.89258,179.00797,57,97,0
179.00797,179.12335,56,97,0
179.12335,179.23872,57,97,0
179.23872,179.35411,56,97,0
179.35411,179.4695,54,97,0
179.4695,179.58488,52,97,0
179.58488,179.70027,50,97,0
179.70027,179.81566,49,97,0
179.81566,179.9076,47,97,0
178.08488,179.93103,40,116,0
179.93103,180.04642,45,113,0
179.93103,180.04642,33,113,0
180.04642,180.1618,47,113,0
180.04642,180.1618,35,113,0
180.1618,180.27719,49,113,0
180.1618,180.27719,37,113,0
180.27719,180.39258,50,113,0
180.27719,180.39258,38,113,0
180.39258,180.50797,52,113,0
180.39258,180.50797,40,113,0
180.50797,180.62334,54,113,0
180.50797,180.62334,42,113,0
180.62334,180.73872,56,113,0
180.62334,180.73872,44,113,0
180.73872,180.85411,57,113,0
180.73872,180.85411,45,113,0
180.85411,180.9695,59,113,0
180.85411,180.9695,47,113,0
180.9695,181.08488,61,113,0
180.9695,181.08488,49,113,0
181.08488,181.20027,62,113,0
181.08488,181.20027,50,113,0
181.20027,181.31564,64,113,0
181.20027,181.31564,52,113,0
181.31564,181.43103,66,113,0
181.31564,181.43103,54,113,0
181.43103,181.54642,68,113,0
181.43103,181.54642,56,113,0
181.54642,181.6618,69,113,0
181.54642,181.6618,57,113,0
181.6618,181.77719,71,113,0
181.6618,181.77719,59,113,0
181.77719,181.89258,73,113,0
181.77719,181.89258,61,113,0
181.89258,182.00809,74,113,0
181.89258,182.00809,62,113,0
182.00809,182.12453,76,113,0
182.00809,182.12453,64,113,0
182.12453,182.24123,78,113,0
182.12453,182.24123,66,113,0
182.24123,182.35873,80,113,0
182.24123,182.35873,68,113,0
182.35873,182.47664,81,113,0
182.35873,182.47664,69,113,0
182.47664,182.59523,83,113,0
182.47664,182.59523,71,113,0
182.59523,182.71439,85,113,0
182.59523,182.71439,73,113,0
182.71439,182.90352,86,113,0
182.71439,182.90352,74,113,0
183.19702,183.4401,87,113,0
183.19702,183.4401,75,113,0
183.68834,184.1901,88,113,0
183.68834,184.1901,76,113,0
184.70361,185.22832,59,113,0
184.70361,185.22832,62,113,0
184.70361,185.22832,64,113,0
184.70361,185.22832,68,113,0
184.70361,185.22832,40,113,0
184.70361,185.22832,52,113,0
185.76472,186.31018,57,113,0
185.76472,186.31018,61,113,0
185.76472,186.31018,64,113,0
185.76472,186.31018,69,113,0
185.76472,186.31018,33,113,0
185.76472,186.31018,45,113,0
188.06192,189.44653,54,97,0
188.06192,189.44653,57,97,0
188.06192,189.44653,62,97,0
188.06192,189.44653,38,97,0
188.06192,189.44653,42,97,0
188.06192,189.44653,45,97,0
188.06192,189.44653,50,97,0
189.6773,189.7927,57,97,0
189.6773,189.7927,45,97,0
189.7927,189.90808,62,97,0
189.7927,189.90808,50,97,0
189.90808,190.09016,66,97,0
189.90808,190.09016,54,97,0
190.60039,190.71577,62,97,0
190.60039,190.71577,50,97,0
190.71577,190.83115,66,97,0
190.71577,190.83115,54,97,0
190.83115,191.01324,69,97,0
190.83115,191.01324,57,97,0
191.52347,191.63884,69,97,0
191.52347,191.63884,57,97,0
191.63884,191.75423,66,97,0
191.63884,191.75423,54,97,0
191.75423,191.93633,62,97,0
191.75423,191.93633,50,97,0
193.36961,193.485,66,97,0
193.36961,193.485,54,97,0
193.485,193.60039,62,97,0
193.485,193.60039,50,97,0
193.60039,193.7826,57,97,0
193.60039,193.7826,45,97,0
194.29637,194.41339,62,97,0
194.29637,194.41339,50,97,0
194.41339,194.53078,57,97,0
194.41339,194.53078,45,97,0
194.53078,194.71681,54,97,0
194.53078,194.71681,42,97,0
195.24426,195.36499,57,97,0
195.24426,195.36499,45,97,0
195.36499,195.48633,54,97,0
195.36499,195.48633,42,97,0
195.48633,195.67023,50,60,0
195.7171,195.94786,54,60,0
195.94786,196.17863,57,60,0
196.17863,196.40941,55,60,0
196.40941,196.64017,54,60,0
196.64017,196.87094,52,60,0
196.87094,197.10172,50,60,0
195.48633,197.23332,38,60,0
195.48633,197.23332,45,60,0
197.10172,197.28561,49,60,0
197.56325,197.79402,52,60,0
197.79402,198.0248,54,60,0
198.0248,198.25555,55,60,0
198.25555,198.48633,57,60,0
198.48633,198.7171,59,60,0
198.7171,198.94786,61,60,0
198.94786,199.17863,62,60,0
197.33247,199.17863,42,60,0
197.33247,199.17863,45,60,0
197.33247,199.17863,50,60,0
199.17863,199.40941,57,60,0
199.40941,199.64017,61,60,0
199.64017,199.87094,64,60,0
199.87094,200.10172,62,60,0
200.10172,200.33247,61,60,0
200.33247,200.56325,59,60,0
200.56325,200.79402,57,60,0
200.79402,201.02478,56,60,0
199.17863,201.02478,40,60,0
199.17863,201.02478,45,60,0
199.17863,201.02478,49,60,0
201.02478,201.25565,57,60,0
201.25565,201.48692,59,60,0
201.48692,201.71866,61,60,0
201.71866,201.95097,62,60,0
201.95097,202.18394,64,60,0
202.18394,202.41765,66,60,0
202.41765,202.65219,67,60,0
202.65219,202.88768,64,60,0
201.02478,202.88768,43,60,0
201.02478,202.88768,45,60,0
201.02478,202.88768,52,60,0
202.88768,203.11842,62,60,0
203.11842,203.34885,66,62,0
203.34885,203.57896,69,63,0
203.57896,203.80879,67,64,0
203.80879,204.03833,66,65,0
204.03833,204.26761,64,66,0
204.26761,204.49663,62,67,0
204.49663,204.72552,61,68,0
202.88768,204.72552,42,60,0
202.88768,204.72552,45,60,0
202.88768,204.72552,50,60,0
204.72552,204.95418,62,69,0
204.95418,205.18254,64,70,0
205.18254,205.41069,66,71,0
205.41069,205.63867,67,72,0
205.63867,205.86647,69,73,0
205.86647,206.09413,71,74,0
206.09413,206.32164,72,75,0
206.32164,206.54903,73,76,0
204.72552,206.54903,48,69,0
204.72552,206.54903,50,69,0
204.72552,206.54903,57,69,0
206.54903,206.77629,74,77,0
206.77629,207.00357,76,78,0
207.00357,207.23083,78,80,0
207.23083,207.45811,79,81,0
206.54903,207.45811,47,77,0
206.54903,207.45811,50,77,0
206.54903,207.45811,55,77,0
207.45811,207.68538,80,82,0
207.68538,207.91266,81,83,0
207.91266,208.13994,82,84,0
208.13994,208.32104,83,85,0
207.45811,208.3672,43,82,0
207.45811,208.3672,50,82,0
207.45811,208.3672,52,82,0
208.3672,208.59483,83,60,0
208.59483,208.82387,81,60,0
208.82387,209.05466,79,60,0
209.05466,209.23999,78,60,0
208.3672,209.28752,45,86,0
208.3672,209.28752,50,86,0
208.3672,209.28752,54,86,0
209.28752,209.52281,78,60,0
209.52281,209.76091,76,60,0
209.76091,210.00221,74,60,0
210.00221,210.1972,73,60,0
209.28752,210.24718,45,86,0
209.28752,210.24718,52,86,0
209.28752,210.24718,55,86,0
210.24718,210.70871,74,60,0
211.05487,211.17024,69,60,0
210.24718,212.09332,50,86,0
210.24718,212.09332,54,86,0
211.17024,212.24657,81,79,0
212.24657,212.39981,78,60,0
212.39981,212.55486,74,60,0
212.55486,212.70811,69,60,0
212.70811,212.86136,66,60,0
212.86136,213.0164,62,60,0
213.0164,213.24536,62,60,0
213.47794,213.8241,62,60,0
213.8241,213.86195,61,60,0
213.86195,213.89981,62,60,0
213.89981,213.93948,64,60,0
212.09332,213.93948,54,86,0
212.09332,213.93948,57,86,0
213.93948,214.30727,62,60,0
214.40102,214.58492,61,60,0
214.74716,214.86255,69,60,0
213.93948,215.78563,52,86,0
213.93948,215.78563,57,86,0
214.86255,215.93887,79,79,0
215.93887,216.09212,76,60,0
216.09212,216.24716,73,60,0
216.24716,216.4004,69,60,0
216.4004,216.55365,64,60,0
216.55365,216.70871,61,60,0
216.70871,216.93767,61,60,0
217.17024,217.63177,61,60,0
215.78563,217.63177,55,86,0
215.78563,217.63177,57,86,0
217.63177,218.09332,64,59,0
218.09332,218.2772,62,63,0
218.43947,218.55486,74,65,0
217.63177,219.47794,54,85,0
217.63177,219.47794,57,85,0
218.55486,219.63118,86,82,0
219.63118,219.78442,81,73,0
219.78442,219.93947,78,74,0
219.93947,220.09271,74,75,0
220.09271,220.24596,69,76,0
220.24596,220.401,66,77,0
220.401,220.62997,66,78,0
220.86255,221.0915,66,82,0
219.47794,221.32408,60,89,0
219.47794,221.32408,62,89,0
221.32408,222.01639,67,85,0
222.01639,222.09212,69,89,0
222.09212,222.16963,67,90,0
222.16963,222.23094,66,90,0
222.24716,222.36255,67,91,0
222.36255,222.47794,69,92,0
222.47794,222.5933,71,93,0
222.5933,222.7087,72,93,0
222.7087,222.82408,74,94,0
222.82408,222.93947,76,95,0
222.93947,223.05486,78,96,0
223.05486,223.17024,79,97,0
221.32408,223.17024,59,93,0
221.32408,223.17024,62,93,0
223.17024,223.24596,81,97,0
223.24596,223.32356,80,97,0
223.32356,223.40123,81,97,0
223.40123,223.47722,80,97,0
223.47722,223.55515,81,97,0
223.55515,223.63316,80,97,0
223.63316,223.70947,81,97,0
223.70947,223.78778,80,97,0
223.78778,223.86623,81,97,0
223.86623,223.94295,80,97,0
223.94295,224.0217,81,97,0
224.0217,224.10063,80,97,0
224.10063,224.17786,81,97,0
224.17786,224.2571,80,97,0
224.2571,224.3366,81,97,0
224.3366,224.4144,80,97,0
224.4144,224.49425,81,97,0
224.49425,224.57434,80,97,0
224.57434,224.65282,81,97,0
224.65282,224.73335,80,97,0
224.73335,224.81412,81,97,0
224.81412,224.89334,80,97,0
224.89334,224.97466,78,97,0
224.97466,225.03911,80,97,0
223.17024,225.05618,58,97,0
223.17024,225.05618,62,97,0
225.05618,225.17157,45,97,0
225.17157,225.28696,57,60,0
225.28696,225.40234,56,60,0
225.05618,225.51772,81,97,0
225.40234,225.51772,57,60,0
225.51772,225.6331,59,60,0
225.6331,225.74849,57,60,0
225.74849,225.86388,56,60,0
225.86388,225.97926,57,60,0
225.97926,226.4408,45,60,0
226.4408,226.55618,79,60,0
226.55618,226.67157,88,60,0
226.67157,226.78696,85,60,0
226.78696,226.90234,79,60,0
226.90234,227.01772,76,60,0
227.01772,227.1331,85,60,0
227.1331,227.24849,79,60,0
227.24849,227.36388,76,60,0
227.36388,227.47926,73,60,0
227.47926,227.59465,79,60,0
227.59465,227.71002,76,60,0
227.71002,227.82541,73,60,0
227.82541,227.9408,67,60,0
227.9408,228.05618,76,60,0
228.05618,228.17157,73,60,0
228.17157,228.28696,67,60,0
228.28696,228.40233,64,60,0
228.40233,228.51772,73,60,0
228.51772,228.6331,67,60,0
228.6331,228.74849,64,60,0
228.74849,228.86388,33,97,0
228.86388,228.97926,45,60,0
228.97926,229.09464,44,60,0
228.74849,229.21002,66,97,0
228.74849,229.21002,74,97,0
229.09464,229.21002,45,60,0
229.21002,229.32541,47,60,0
229.32541,229.4408,45,60,0
229.4408,229.55618,44,60,0
229.55618,229.67157,45,60,0
229.67157,230.1331,33,60,0
230.1331,230.24849,78,60,0
230.24849,230.36388,86,60,0
230.36388,230.47925,81,60,0
230.47925,230.59464,78,60,0
230.59464,230.71002,74,60,0
230.71002,230.82541,81,60,0
230.82541,230.9408,78,60,0
230.9408,231.05618,74,60,0
231.05618,231.17157,69,60,0
231.17157,231.28694,78,60,0
231.28694,231.40233,74,60,0
231.40233,231.51772,69,60,0
231.51772,231.6331,66,60,0
231.6331,231.74849,74,60,0
231.74849,231.86388,69,60,0
231.86388,231.97925,66,60,0
231.97925,232.09464,62,60,0
232.09464,232.21002,69,60,0
232.21002,232.32541,66,60,0
232.32541,232.4408,62,60,0
232.4408,232.55618,45,97,0
232.55618,232.67155,57,60,0
232.67155,232.78694,56,60,0
232.4408,232.90233,61,97,0
232.4408,232.90233,64,97,0
232.4408,232.90233,67,97,0
232.78694,232.90233,57,60,0
232.90233,233.01772,59,60,0
233.01772,233.1331,57,60,0
233.1331,233.24849,56,60,0
233.24849,233.36386,57,60,0
233.36386,233.82541,45,60,0
233.82541,233.9408,83,60,0
233.9408,234.05617,82,60,0
234.05617,234.17155,83,60,0
234.17155,234.2635,82,60,0
234.28694,234.40234,83,113,0
234.40234,234.51794,85,113,0
234.51794,234.63377,83,113,0
234.63377,234.74988,82,113,0
234.74988,234.86624,83,113,0
234.86624,234.98293,81,113,0
234.98293,235.09995,79,113,0
235.09995,235.21733,78,113,0
235.21733,235.33511,76,113,0
235.33511,235.45331,74,113,0
235.45331,235.57195,73,113,0
235.57195,235.69106,71,113,0
235.69106,235.81067,69,113,0
235.81067,235.93083,67,113,0
235.93083,236.05156,66,113,0
236.05156,236.14824,64,113,0
234.28694,236.1729,33,113,0
234.28694,236.1729,45,113,0
236.1729,236.40366,62,60,0
236.1729,236.40366,38,60,0
236.1729,236.40366,50,60,0
236.40366,236.63443,66,60,0
236.40366,236.63443,54,60,0
236.63443,236.8652,69,60,0
236.63443,236.8652,57,60,0
236.8652,237.09596,67,60,0
236.8652,237.09596,55,60,0
237.09596,237.32674,66,60,0
237.09596,237.32674,54,60,0
237.32674,237.55751,64,60,0
237.32674,237.55751,52,60,0
237.55751,237.78827,62,60,0
237.55751,237.78827,50,60,0
237.78827,238.01904,61,60,0
237.78827,238.01904,49,60,0
238.01904,238.24982,62,59,0
238.01904,238.24982,50,59,0
238.24982,238.48058,64,60,0
238.24982,238.48058,52,60,0
238.48058,238.71135,66,61,0
238.48058,238.71135,54,61,0
238.71135,238.94212,67,62,0
238.71135,238.94212,55,62,0
238.94212,239.17288,69,63,0
238.94212,239.17288,57,63,0
239.17288,239.40366,71,64,0
239.17288,239.40366,59,64,0
239.40366,239.63443,73,65,0
239.40366,239.63443,61,65,0
239.63443,239.86519,74,66,0
239.63443,239.86519,62,66,0
239.86519,240.09596,71,67,0
239.86519,240.09596,59,67,0
240.09596,240.32674,74,68,0
240.09596,240.32674,62,68,0
240.32674,240.55751,78,69,0
240.32674,240.55751,66,69,0
240.55751,240.78827,76,70,0
240.55751,240.78827,64,70,0
240.78827,241.01904,74,71,0
240.78827,241.01904,62,71,0
241.01904,241.24982,73,72,0
241.01904,241.24982,61,72,0
241.24982,241.48058,71,73,0
241.24982,241.48058,59,73,0
241.48058,241.71135,70,74,0
241.48058,241.71135,58,74,0
241.71135,241.94212,71,75,0
241.71135,241.94212,59,75,0
241.94212,242.17288,73,76,0
241.94212,242.17288,61,76,0
242.17288,242.40366,74,77,0
242.17288,242.40366,62,77,0
242.40366,242.63443,76,77,0
242.40366,242.63443,64,77,0
242.63443,242.86519,78,78,0
242.63443,242.86519,66,78,0
242.86519,243.09596,80,79,0
242.86519,243.09596,68,79,0
243.09596,243.32674,82,80,0
243.09596,243.32674,70,80,0
243.32674,243.51062,83,81,0
243.32674,243.51062,71,81,0
243.5575,243.78827,80,82,0
243.5575,243.78827,68,82,0
243.78827,244.01904,83,83,0
243.78827,244.01904,71,83,0
244.01904,244.2498,86,84,0
244.01904,244.2498,74,84,0
244.2498,244.48058,85,85,0
244.2498,244.48058,73,85,0
244.48058,244.71135,83,86,0
244.48058,244.71135,71,86,0
244.71135,244.94211,81,87,0
244.71135,244.94211,69,87,0
244.94211,245.17288,80,88,0
244.94211,245.17288,68,88,0
245.17288,245.40366,78,89,0
245.17288,245.40366,66,89,0
245.40366,245.63455,76,90,0
245.40366,245.63455,64,90,0
245.63455,245.86598,75,91,0
245.63455,245.86598,63,91,0
245.86598,246.09805,74,92,0
245.86598,246.09805,62,92,0
246.09805,246.33089,73,93,0
246.09805,246.33089,61,93,0
246.33089,246.56459,71,94,0
246.33089,246.56459,59,94,0
246.56459,246.7993,69,94,0
246.56459,246.7993,57,94,0
246.7993,247.03514,68,95,0
246.7993,247.03514,56,95,0
247.03514,247.224,66,96,0
247.03514,247.224,54,96,0
247.27223,247.3858,40,97,0
247.27223,247.50119,64,97,0
247.50299,247.73376,52,97,0
247.73376,247.96454,51,97,0
247.96454,248.14842,52,97,0
248.1953,248.30888,50,97,0
247.73376,248.65685,56,97,0
247.73376,248.65685,59,97,0
247.73376,248.65685,64,97,0
248.42607,248.65685,52,97,0
248.65685,248.8876,51,97,0
248.8876,249.0715,52,97,0
249.11838,249.23196,47,97,0
248.65685,249.5805,56,97,0
248.65685,249.5805,59,97,0
248.65685,249.5805,64,97,0
249.34924,249.5805,52,97,0
249.5805,249.81226,51,97,0
249.81226,249.99731,52,97,0
250.04457,250.15915,44,97,0
249.5805,250.51125,59,97,0
249.5805,250.51125,62,97,0
249.5805,250.51125,64,97,0
250.27753,250.51125,52,97,0
250.51125,250.74396,59,97,0
250.51125,250.74396,62,97,0
250.51125,250.74396,64,97,0
250.51125,250.74579,51,97,0
250.74579,250.93338,52,97,0
250.98126,251.21024,57,97,0
250.98126,251.21024,61,97,0
250.98126,251.21024,64,97,0
250.98126,251.21204,45,97,0
251.21204,251.44281,52,97,0
251.44281,251.67357,49,113,0
251.67357,251.90434,52,113,0
251.44281,252.13512,81,113,0
251.90434,252.13512,45,113,0
252.13512,252.25049,80,113,0
252.25049,252.36588,78,113,0
252.13512,252.36588,52,113,0
252.36588,252.48126,76,113,0
252.48126,252.59665,74,113,0
252.36588,252.59665,49,113,0
252.59665,252.71204,73,113,0
252.71204,252.82742,71,113,0
252.59665,252.82742,52,113,0
252.82742,252.91756,69,113,0
252.82742,253.05818,42,113,0
253.05818,253.17357,68,113,0
253.17357,253.28896,66,113,0
253.05818,253.28896,52,113,0
253.28896,253.40434,64,113,0
253.40434,253.51973,63,113,0
253.28896,253.51973,45,113,0
253.51973,253.63512,61,113,0
253.63512,253.75049,59,113,0
253.51973,253.75049,52,113,0
253.75049,253.93259,57,113,0
253.75049,253.98126,42,113,0
253.98126,254.21204,52,113,0
254.21204,254.441,57,113,0
254.21204,254.4428,45,113,0
254.4428,254.67357,52,113,0
254.67357,254.78716,40,113,0
254.67357,254.90254,56,113,0
254.90434,255.1351,52,113,0
255.1351,255.36588,51,113,0
255.36588,255.54977,52,113,0
255.59665,255.71022,50,113,0
255.1351,256.0582,56,113,0
255.1351,256.0582,59,113,0
255.1351,256.0582,64,113,0
255.82741,256.0582,52,113,0
256.0582,256.28894,51,113,0
256.28894,256.47284,52,113,0
256.5197,256.6333,47,113,0
256.0582,256.98184,56,113,0
256.0582,256.98184,59,113,0
256.0582,256.98184,64,113,0
256.75058,256.98184,52,113,0
256.98184,257.2136,51,113,0
257.2136,257.39865,52,113,0
257.44592,257.5605,44,113,0
256.98184,257.9126,59,113,0
256.98184,257.9126,62,113,0
256.98184,257.9126,64,113,0
257.67886,257.9126,52,113,0
257.9126,258.1453,59,113,0
257.9126,258.1453,62,113,0
257.9126,258.1453,64,113,0
257.9126,258.14713,51,113,0
258.14713,258.33472,52,113,0
258.3826,258.61157,57,113,0
258.3826,258.61157,61,113,0
258.3826,258.61157,64,113,0
258.3826,258.61337,45,113,0
258.61337,258.84415,52,113,0
258.84415,259.07492,49,113,0
259.07492,259.3057,52,113,0
258.84415,259.53647,81,127,0
259.3057,259.53647,45,113,0
259.53647,259.65186,80,113,0
259.65186,259.7672,78,113,0
259.53647,259.7672,52,113,0
259.7672,259.8826,76,113,0
259.8826,259.998,74,113,0
259.7672,259.998,49,113,0
259.998,260.11337,73,113,0
260.11337,260.22876,71,113,0
259.998,260.22876,52,113,0
260.22876,260.3189,69,113,0
260.22876,260.45953,42,113,0
260.45953,260.57492,68,113,0
260.57492,260.6903,66,113,0
260.45953,260.6903,52,113,0
260.6903,260.8057,64,113,0
260.8057,260.92108,63,113,0
260.6903,260.92108,45,113,0
260.92108,261.03647,61,113,0
261.03647,261.15182,59,113,0
260.92108,261.15182,52,113,0
261.15182,261.33392,57,113,0
261.15182,261.3826,42,113,0
261.3826,261.61337,52,113,0
261.61337,261.84235,57,113,0
261.61337,261.84415,45,113,0
261.84415,262.07492,52,113,0
262.07492,262.3039,56,113,0
262.07492,262.3039,40,113,0
263.11337,263.22876,52,113,0
263.11337,263.22876,40,113,0
263.22876,263.34415,54,113,0
263.22876,263.34415,42,113,0
263.34415,263.45953,56,113,0
263.34415,263.45953,44,113,0
263.45953,263.57492,57,113,0
263.45953,263.57492,45,113,0
263.57492,263.6903,59,113,0
263.57492,263.6903,47,113,0
263.6903,263.8057,61,113,0
263.6903,263.8057,49,113,0
263.8057,263.92108,63,113,0
263.8057,263.92108,51,113,0
263.92108,264.0112,64,127,0
263.92108,264.0112,52,127,0
264.15182,264.2672,66,113,0
264.15182,264.2672,54,113,0
264.2672,264.3826,68,113,0
264.2672,264.3826,56,113,0
264.3826,264.498,69,113,0
264.3826,264.498,57,113,0
264.498,264.61337,71,113,0
264.498,264.61337,59,113,0
264.61337,264.72876,73,113,0
264.61337,264.72876,61,113,0
264.72876,264.84415,75,113,0
264.72876,264.84415,63,113,0
264.84415,264.9343,76,127,0
264.84415,264.9343,64,127,0
265.07492,265.1903,78,113,0
265.07492,265.1903,66,113,0
265.1903,265.3057,80,113,0
265.1903,265.3057,68,113,0
265.3057,265.42105,81,113,0
265.3057,265.42105,69,113,0
265.42105,265.53644,83,113,0
265.42105,265.53644,71,113,0
265.53644,265.65182,85,113,0
265.53644,265.65182,73,113,0
265.65182,265.7672,87,113,0
265.65182,265.7672,75,113,0
265.7672,265.9493,76,113,0
265.7672,266.36038,88,113,0
266.45953,266.6903,85,60,0
266.6903,266.92105,88,60,0
266.92105,267.15182,86,60,0
267.15182,267.3826,85,60,0
267.3826,267.5665,83,60,0
267.61337,267.84415,86,60,0
267.84415,268.07492,85,60,0
268.07492,268.30566,83,60,0
268.30566,268.48956,81,60,0
268.53644,268.7672,85,60,0
268.7672,268.998,83,60,0
268.998,269.22876,81,60,0
269.22876,269.41266,80,60,0
269.45953,269.69028,83,60,0
269.69028,269.92105,81,60,0
269.92105,270.15207,80,60,0
270.15207,270.384,78,60,0
269.92105,270.384,73,60,0
270.384,270.61703,77,60,0
270.61703,270.85144,78,60,0
270.384,270.85144,74,60,0
270.85144,271.0874,80,60,0
271.0874,271.27658,78,60,0
270.85144,271.32483,70,60,0
271.32483,271.708,71,60,0
271.32483,272.29437,76,60,0
272.29437,272.6831,74,35,0
273.27,274.19305,54,60,0
273.27,274.19305,59,60,0
273.27,274.19305,62,60,0
273.27,274.19305,66,60,0
273.27,274.19305,38,60,0
273.27,274.19305,42,60,0
273.27,274.19305,47,60,0
273.27,274.19305,50,60,0
277.42383,277.65317,52,60,0
277.42383,277.65317,56,60,0
277.42383,277.65317,62,60,0
277.42383,277.65317,40,60,0
277.88757,278.12012,52,60,0
277.88757,278.12012,56,60,0
277.88757,278.12012,62,60,0
277.88757,278.12012,40,60,0
278.3585,278.54688,52,60,0
278.3585,278.54688,56,60,0
278.3585,278.54688,62,60,0
278.3585,278.54688,40,60,0
278.8389,279.83725,56,60,0
278.8389,279.83725,62,60,0
278.8389,280.24298,52,60,0
279.83725,280.24298,57,60,0
279.83725,280.24298,61,60,0
278.8389,280.24298,33,60,0
278.8389,280.24298,45,60,0
280.34146,280.50885,76,60,0
280.50885,280.6621,81,60,0
280.6621,280.7847,85,60,0
280.81714,281.50845,88,60,0
281.50845,281.73828,85,60,0
281.73828,281.89075,88,60,0
281.89075,282.04306,86,60,0
282.04306,282.19708,85,60,0
282.19708,282.3492,83,60,0
282.3492,282.50122,82,60,0
282.50122,282.655,83,60,0
282.655,282.80692,86,60,0
282.80692,282.95862,85,60,0
282.95862,283.112,83,60,0
283.112,283.26355,81,60,0
283.26355,283.415,80,60,0
283.415,283.56815,81,60,0
283.56815,283.71942,85,60,0
283.71942,283.87067,83,60,0
283.87067,284.02362,81,60,0
284.02362,284.17468,80,60,0
284.17468,284.3257,79,60,0
284.3257,284.47852,80,60,0
284.47852,284.59213,83,60,0
284.59213,284.70578,81,60,0
284.70578,284.8194,80,60,0
284.8194,284.90997,78,60,0
284.93304,285.08398,76,60,0
285.08398,285.2349,80,60,0
285.2349,285.3876,78,60,0
285.3876,285.5385,76,60,0
285.5385,285.68945,80,60,0
285.68945,285.84213,78,60,0
285.84213,285.99307,76,60,0
285.99307,286.14398,80,60,0
286.14398,286.2647,78,60,0
286.2967,287.29428,76,60,0
287.29428,287.7417,74,60,0
288.79028,289.25024,71,79,0
288.79028,289.25024,59,79,0
289.25024,289.4314,68,60,0
289.25024,289.4314,56,60,0
289.70905,290.16696,69,79,0
289.70905,290.16696,57,79,0
290.16696,290.34744,66,60,0
290.16696,290.34744,54,60,0
290.624,291.0801,68,79,0
290.624,291.0801,56,79,0
291.0801,291.2599,65,60,0
291.0801,291.2599,53,60,0
291.53558,291.99048,66,79,0
291.53558,291.99048,54,79,0
291.99048,292.16992,62,60,0
291.99048,292.16992,50,60,0
292.90665,293.13715,64,60,0
292.90665,293.13715,52,60,0
293.84723,294.0005,69,60,0
293.84723,294.0005,57,60,0
294.0005,294.15372,73,60,0
294.0005,294.15372,61,60,0
294.15372,294.30878,76,60,0
294.15372,294.30878,64,60,0
294.30878,294.462,68,60,0
294.30878,294.462,56,60,0
294.462,294.61526,73,60,0
294.462,294.61526,61,60,0
294.61526,294.7703,76,60,0
294.61526,294.7703,64,60,0
294.7703,294.92355,69,60,0
294.7703,294.92355,57,60,0
294.92355,295.07678,73,60,0
294.92355,295.07678,61,60,0
295.07678,295.23184,76,60,0
295.07678,295.23184,64,60,0
295.23184,295.3851,64,60,0
295.23184,295.3851,52,60,0
295.3851,295.53833,73,60,0
295.3851,295.53833,61,60,0
295.53833,295.6934,76,60,0
295.53833,295.6934,64,60,0
295.6934,295.84662,67,60,0
295.6934,295.84662,55,60,0
295.84662,295.99988,73,60,0
295.84662,295.99988,61,60,0
295.99988,296.1549,76,60,0
295.99988,296.1549,64,60,0
296.1549,296.30817,66,60,0
296.1549,296.30817,54,60,0
296.30817,296.4614,73,60,0
296.30817,296.4614,61,60,0
296.4614,296.61646,76,60,0
296.4614,296.61646,64,60,0
296.61646,296.7697,67,60,0
296.61646,296.7697,55,60,0
296.7697,296.92294,73,60,0
296.7697,296.92294,61,60,0
296.92294,297.078,76,60,0
296.92294,297.078,64,60,0
297.078,297.23123,64,60,0
297.078,297.23123,52,60,0
297.23123,297.3845,73,60,0
297.23123,297.3845,61,60,0
297.3845,297.50708,76,60,0
297.3845,297.50708,64,60,0
297.53952,297.69278,66,60,0
297.53952,297.69278,54,60,0
297.69278,297.84604,69,61,0
297.69278,297.84604,57,61,0
297.84604,298.00107,74,62,0
297.84604,298.00107,62,62,0
298.00107,298.15433,65,62,0
298.00107,298.15433,53,62,0
298.15433,298.30756,69,63,0
298.15433,298.30756,57,63,0
298.30756,298.46262,74,63,0
298.30756,298.46262,62,63,0
298.46262,298.61584,66,64,0
298.46262,298.61584,54,64,0
298.61584,298.7691,69,64,0
298.61584,298.7691,57,64,0
298.7691,298.92413,74,65,0
298.7691,298.92413,62,65,0
298.92413,299.0774,62,65,0
298.92413,299.0774,50,65,0
299.0774,299.23065,69,66,0
299.0774,299.23065,57,66,0
299.23065,299.38568,74,66,0
299.23065,299.38568,62,66,0
299.38568,299.53894,64,67,0
299.38568,299.53894,52,67,0
299.53894,299.69217,67,67,0
299.53894,299.69217,55,67,0
299.69217,299.84723,69,68,0
299.69217,299.84723,57,68,0
299.84723,300.00046,63,68,0
299.84723,300.00046,51,68,0
300.00046,300.15372,67,69,0
300.00046,300.15372,55,69,0
300.15372,300.30878,69,69,0
300.15372,300.30878,57,69,0
300.30878,300.462,64,70,0
300.30878,300.462,52,70,0
300.462,300.61526,67,71,0
300.462,300.61526,55,71,0
300.61526,300.7703,69,71,0
300.61526,300.7703,57,71,0
300.7703,300.92355,61,72,0
300.7703,300.92355,49,72,0
300.92355,301.07678,67,72,0
300.92355,301.07678,55,72,0
301.07678,301.19937,69,73,0
301.07678,301.19937,57,73,0
301.23184,301.38507,62,60,0
301.23184,301.38507,50,60,0
301.38507,301.53833,66,60,0
301.38507,301.53833,54,60,0
301.53833,301.6934,69,60,0
301.53833,301.6934,57,60,0
301.6934,301.84662,61,60,0
301.6934,301.84662,49,60,0
301.84662,301.99988,66,60,0
301.84662,301.99988,54,60,0
301.99988,302.1549,69,60,0
301.99988,302.1549,57,60,0
302.1549,302.30817,62,60,0
302.1549,302.30817,50,60,0
302.30817,302.4614,66,60,0
302.30817,302.4614,54,60,0
302.4614,302.61646,69,60,0
302.4614,302.61646,57,60,0
302.61646,302.76968,57,60,0
302.61646,302.76968,45,60,0
302.76968,302.92294,66,60,0
302.76968,302.92294,54,60,0
302.92294,303.04553,69,60,0
302.92294,303.04553,57,60,0
303.078,303.23123,61,60,0
303.078,303.23123,49,60,0
303.23123,303.3845,64,60,0
303.23123,303.3845,52,60,0
303.3845,303.53952,69,60,0
303.3845,303.53952,57,60,0
303.53952,303.69278,60,60,0
303.53952,303.69278,48,60,0
303.69278,303.846,64,60,0
303.69278,303.846,52,60,0
303.846,304.00107,69,60,0
303.846,304.00107,57,60,0
304.00107,304.1543,61,60,0
304.00107,304.1543,49,60,0
304.1543,304.30756,64,60,0
304.1543,304.30756,52,60,0
304.30756,304.46262,69,60,0
304.30756,304.46262,57,60,0
304.46262,304.61584,57,60,0
304.46262,304.61584,45,60,0
304.61584,304.7691,64,60,0
304.61584,304.7691,52,60,0
304.7691,304.92413,69,60,0
304.7691,304.92413,57,60,0
304.92413,305.0774,59,60,0
304.92413,305.0774,47,60,0
305.0774,305.23062,62,63,0
305.0774,305.23062,50,63,0
305.23062,305.38568,64,65,0
305.23062,305.38568,52,65,0
305.38568,305.5389,58,67,0
305.38568,305.5389,46,67,0
305.5389,305.69217,62,69,0
305.5389,305.69217,50,69,0
305.69217,305.84723,64,71,0
305.69217,305.84723,52,71,0
305.84723,306.00046,59,73,0
305.84723,306.00046,47,73,0
306.00046,306.15372,62,75,0
306.00046,306.15372,50,75,0
306.15372,306.30875,64,77,0
306.15372,306.30875,52,77,0
306.30875,306.462,56,80,0
306.30875,306.462,44,80,0
306.462,306.5846,62,82,0
306.462,306.61523,50,82,0
306.61523,306.69278,64,84,0
306.61523,306.73785,52,84,0
306.69278,306.7703,64,85,0
306.7703,306.92355,45,86,0
306.92355,307.07678,49,86,0
307.07678,307.23184,52,86,0
307.23184,307.38507,44,86,0
307.38507,307.53833,49,86,0
307.53833,307.69336,52,86,0
307.69336,307.84662,45,86,0
307.84662,307.99985,49,86,0
306.7703,308.05576,76,86,0
307.99985,308.1549,52,86,0
308.1549,308.2703,74,86,0
308.1549,308.30817,40,86,0
308.2703,308.38568,73,86,0
308.30817,308.4614,49,86,0
308.38568,308.50107,71,86,0
308.50107,308.61646,69,86,0
308.4614,308.61646,52,86,0
308.61646,308.76968,47,60,0
308.61646,308.79852,64,60,0
308.76968,308.92294,50,60,0
308.92294,309.07797,52,60,0
309.07797,309.23123,46,60,0
309.23123,309.38446,50,60,0
309.38446,309.53952,52,60,0
309.53952,309.69278,47,60,0
309.69278,309.846,50,60,0
309.846,310.00107,52,60,0
310.00107,310.1543,44,60,0
310.1543,310.30756,50,60,0
310.3472,310.4626,76,60,0
310.30756,310.4626,52,60,0
310.4626,310.61584,45,60,0
310.61584,310.76907,48,63,0
310.76907,310.92413,52,65,0
310.92413,311.0774,44,67,0
311.0774,311.23062,48,69,0
311.23062,311.38568,52,71,0
311.38568,311.5389,45,73,0
311.5389,311.69217,48,75,0
310.4626,311.8472,88,60,0
311.69217,311.8472,52,77,0
311.8472,311.9626,86,80,0
311.8472,312.00046,40,80,0
311.9626,312.07797,84,81,0
312.00046,312.1537,48,82,0
312.07797,312.19336,83,83,0
312.19336,312.30875,81,84,0
312.1537,312.30875,52,84,0
312.30875,312.462,43,60,0
312.30875,312.49084,82,60,0
312.462,312.61523,46,60,0
312.61523,312.7703,48,60,0
312.7703,312.92352,42,60,0
312.92352,313.07678,46,60,0
313.07678,313.2318,48,60,0
313.2318,313.38507,43,60,0
313.38507,313.53833,46,60,0
313.53833,313.69336,48,60,0
313.69336,313.84662,40,60,0
313.84662,313.99985,46,60,0
314.03952,314.1549,72,60,0
313.99985,314.1549,48,60,0
314.1549,314.30814,41,59,0
314.30814,314.4614,45,63,0
314.4614,314.61642,48,66,0
314.61642,314.76968,40,69,0
314.76968,314.92294,45,72,0
314.92294,315.07797,48,75,0
315.07797,315.23123,41,78,0
315.23123,315.38446,45,82,0
314.1549,315.53952,84,59,0
315.38446,315.53952,48,85,0
315.53952,315.6549,82,88,0
315.53952,315.69275,33,88,0
315.6549,315.7703,81,90,0
315.69275,315.846,45,91,0
315.7703,315.88568,79,93,0
315.88568,316.00107,77,95,0
315.846,316.00107,48,94,0
316.00107,316.15442,43,97,0
316.00107,316.18512,72,97,0
316.15442,316.30826,46,97,0
316.23215,316.46457,84,97,0
316.30826,316.46457,48,97,0
316.46457,316.6198,42,97,0
316.46457,316.69864,84,97,0
316.6198,316.77582,46,97,0
316.69864,316.93463,84,97,0
316.77582,316.93463,48,97,0
316.93463,317.09253,43,97,0
316.93463,317.1729,84,97,0
317.09253,317.25165,46,97,0
317.1729,317.4138,84,97,0
317.25165,317.4138,48,97,0
317.4138,317.57538,40,97,0
317.4138,317.65762,84,97,0
317.57538,317.73846,46,97,0
317.73846,317.86996,48,97,0
317.65762,317.90488,84,97,0
317.90488,318.01846,84,97,0
318.13565,318.24924,84,60,0
317.90488,318.36642,41,97,0
317.90488,318.36642,45,97,0
317.90488,318.36642,48,97,0
317.90488,318.36642,53,97,0
318.36642,318.48,82,60,0
318.5972,318.7108,81,60,0
318.82797,319.2895,79,60,0
319.2895,319.6573,77,60,0
319.2895,319.75104,53,60,0
319.75104,319.93314,46,60,0
319.9818,320.0954,77,60,0
320.2126,320.32614,76,59,0
320.44333,320.55692,74,58,0
320.6741,321.13565,72,56,0
321.13565,321.50345,70,53,0
321.13565,321.5972,46,50,0
321.5972,321.77927,48,50,0
321.82794,321.94153,70,50,0
322.05872,322.1723,69,50,0
322.2895,322.40308,67,50,0
322.52026,322.9818,65,50,0
322.9818,323.34958,64,50,0
322.9818,323.44333,46,50,0
323.44333,323.55692,65,50,0
323.44333,323.62555,45,50,0
323.67435,323.78836,69,50,0
323.90628,324.0208,62,50,0
323.90628,324.1375,46,50,0
324.1393,324.25452,67,50,0
324.37372,324.48965,60,50,0
324.37372,324.60785,48,50,0
324.6097,324.72647,65,50,0
324.84744,324.9652,58,50,0
324.84744,325.08536,48,50,0
325.08722,325.20605,64,50,0
325.32928,325.55826,57,50,0
325.32928,325.55826,41,50,0
326.7139,327.17545,57,60,0
326.7139,327.17545,53,60,0
327.17545,327.35754,65,60,0
327.17545,327.35754,50,60,0
328.56006,329.0216,65,60,0
328.56006,329.0216,50,60,0
329.0216,329.20367,62,60,0
329.0216,329.20367,47,60,0
330.40622,330.86774,59,50,0
330.40622,330.86774,62,50,0
331.0985,331.2121,74,50,0
330.86774,331.32928,59,50,0
330.86774,331.32928,62,50,0
331.32928,331.44287,72,50,0
331.56006,331.67365,71,50,0
331.79083,332.25235,69,50,0
332.25235,332.62015,68,50,0
332.25235,332.7139,59,50,0
332.25235,332.7139,62,50,0
332.94464,333.17508,74,50,0
332.7139,333.17508,59,50,0
332.7139,333.17508,62,50,0
333.17508,333.40518,73,49,0
333.40518,333.635,71,53,0
333.635,333.86456,69,56,0
333.86456,334.09384,68,60,0
334.09384,334.32285,78,63,0
334.32285,334.50525,76,67,0
334.09384,334.55176,47,63,0
334.09384,334.55176,50,63,0
334.09384,334.55176,56,63,0
334.55176,334.7322,49,70,0
334.55176,334.7322,52,70,0
334.55176,334.7322,58,70,0
334.7804,335.00876,76,73,0
335.00876,335.2369,74,77,0
335.2369,335.46487,73,80,0
335.46487,335.6927,71,84,0
335.6927,335.92035,70,87,0
335.92035,336.14786,79,90,0
336.14786,336.32907,78,94,0
335.92035,336.37524,49,90,0
335.92035,336.37524,52,90,0
335.92035,336.37524,58,90,0
336.37524,336.55457,50,97,0
336.37524,336.55457,54,97,0
336.37524,336.55457,59,97,0
336.6025,336.8298,78,97,0
336.8298,337.05707,76,97,0
337.05707,337.28433,74,97,0
337.28433,337.5116,73,97,0
337.5116,337.7389,71,97,0
337.7389,337.96616,82,97,0
337.96616,338.14725,83,97,0
338.19342,338.42093,77,97,0
338.42093,338.64932,78,97,0
338.64932,338.8788,85,97,0
338.8788,339.10962,86,97,0
339.10962,339.34192,82,97,0
339.34192,339.57596,83,97,0
339.57596,339.81198,86,97,0
339.81198,340.00168,83,97,0
340.05017,340.12592,85,60,0
340.12592,340.20343,83,60,0
340.20343,340.2809,85,60,0
340.05017,340.2809,64,60,0
340.2809,340.3565,83,59,0
340.3565,340.43387,85,60,0
340.43387,340.51117,83,61,0
340.2809,340.51117,68,59,0
340.51117,340.5866,85,62,0
340.5866,340.66382,83,63,0
340.66382,340.74097,85,64,0
340.51117,340.74097,71,62,0
340.74097,340.81625,83,65,0
340.81625,340.89334,85,65,0
340.89334,340.97034,83,66,0
340.74097,340.97034,69,65,0
340.97034,341.04547,85,67,0
341.04547,341.12244,83,68,0
341.12244,341.19925,85,69,0
340.97034,341.19925,68,67,0
341.19925,341.2743,83,70,0
341.2743,341.3511,85,70,0
341.3511,341.4278,83,71,0
341.19925,341.4278,66,70,0
341.4278,341.50272,85,72,0
341.50272,341.57938,83,73,0
341.57938,341.65594,85,74,0
341.4278,341.65594,64,72,0
341.65594,341.73074,83,75,0
341.73074,341.80734,85,75,0
341.80734,341.8839,83,76,0
341.65594,341.8839,63,75,0
341.8839,341.9587,85,77,0
341.9587,342.03516,83,78,0
342.03516,342.11154,85,79,0
341.8839,342.11154,64,77,0
342.11154,342.18613,83,80,0
342.18613,342.26242,85,80,0
342.26242,342.3387,83,81,0
342.11154,342.3387,71,80,0
342.3387,342.4132,85,82,0
342.4132,342.48938,83,83,0
342.48938,342.56558,85,84,0
342.3387,342.56558,74,82,0
342.56558,342.63998,83,85,0
342.63998,342.71606,85,86,0
342.71606,342.79218,83,86,0
342.56558,342.79218,73,85,0
342.79218,342.8665,85,87,0
342.8665,342.9425,83,88,0
342.9425,343.01852,85,89,0
342.79218,343.01852,71,87,0
343.01852,343.09274,83,90,0
343.09274,343.1687,85,91,0
343.1687,343.24466,83,91,0
343.01852,343.24466,69,90,0
343.24466,343.3188,85,92,0
343.3188,343.39468,83,93,0
343.39468,343.47058,85,94,0
343.24466,343.47058,68,92,0
343.47058,343.54465,83,95,0
343.54465,343.62048,85,96,0
343.47058,343.65045,66,95,0
343.62048,343.69632,83,96,0
343.69632,343.77032,85,97,0
343.77032,343.8461,83,97,0
343.8461,343.92188,85,97,0
343.69632,343.92188,64,97,0
343.92188,343.99588,83,97,0
343.99588,344.07166,85,97,0
343.92188,344.10162,63,97,0
344.07166,344.14743,83,97,0
344.14743,344.22144,85,97,0
344.14743,344.25845,62,97,0
344.22144,344.2972,83,97,0
344.2972,344.373,85,97,0
344.373,344.44702,83,97,0
344.373,344.484,61,97,0
344.44702,344.5228,85,97,0
344.5228,344.59857,83,97,0
344.59857,344.67258,85,97,0
344.59857,344.7096,59,97,0
344.67258,344.74835,83,97,0
344.74835,344.82413,85,97,0
344.82413,344.89813,83,97,0
344.82413,344.93515,57,97,0
344.89813,344.9739,85,97,0
344.9739,345.04968,83,97,0
345.04968,345.1237,85,97,0
345.04968,345.1607,56,97,0
345.1237,345.19946,83,97,0
345.19946,345.27524,85,97,0
345.27524,345.34927,83,97,0
345.27524,345.38626,54,97,0
345.34927,345.42505,85,97,0
345.42505,345.50082,83,97,0
345.50082,345.57483,85,97,0
345.50082,345.61185,52,97,0
345.57483,345.65076,83,97,0
345.65076,345.7268,85,97,0
345.7268,345.80133,83,97,0
345.7268,345.83868,50,97,0
345.80133,345.87787,85,97,0
345.87787,345.95462,83,97,0
345.95462,346.02975,85,97,0
345.95462,346.0675,49,97,0
346.02975,346.10706,83,97,0
346.10706,346.1846,85,97,0
346.1846,346.26056,83,97,0
346.1846,346.29874,47,97,0
346.26056,346.3387,85,97,0
346.3387,346.4172,83,97,0
346.4172,346.49417,85,97,0
346.4172,346.5328,45,97,0
346.49417,346.5733,83,97,0
346.5733,346.65292,85,97,0
346.65292,346.73105,83,97,0
346.65292,346.77023,44,97,0
346.73105,346.81137,85,97,0
346.81137,346.89224,83,97,0
346.89224,346.97168,85,97,0
346.89224,347.0115,42,97,0
346.97168,347.05344,83,97,0
347.05344,347.13568,85,97,0
347.13568,347.21667,83,97,0
347.13568,347.2572,40,97,0
347.21667,347.30008,81,97,0
347.30008,347.36633,83,97,0
347.38388,348.19272,69,113,0
347.38388,348.19272,81,113,0
347.38388,348.19272,33,113,0
347.38388,348.19272,45,113,0
348.30853,349.12173,57,113,0
348.30853,349.12173,64,113,0
348.30853,349.12173,69,113,0
348.30853,349.12173,37,113,0
348.30853,349.12173,45,113,0
348.30853,349.12173,49,113,0
349.23816,350.05725,57,113,0
349.23816,350.05725,66,113,0
349.23816,350.05725,69,113,0
349.23816,350.05725,38,113,0
349.23816,350.05725,45,113,0
349.23816,350.05725,50,113,0
350.1748,351.00192,57,113,0
350.1748,351.00192,62,113,0
350.1748,351.00192,69,113,0
350.1748,351.00192,42,113,0
350.1748,351.00192,50,113,0
350.1748,351.00192,54,113,0
351.1206,351.3496,59,113,0
351.1206,351.3496,62,113,0
351.1206,351.3496,71,113,0
351.1206,351.3496,44,113,0
351.1206,351.3496,50,113,0
351.1206,351.3496,52,113,0
351.1206,351.3496,56,113,0
351.58243,351.8119,59,113,0
351.58243,351.8119,62,113,0
351.58243,351.8119,64,113,0
351.58243,351.8119,44,113,0
351.58243,351.8119,50,113,0
351.58243,351.8119,52,113,0
351.58243,351.8119,56,113,0
352.97488,353.20636,61,113,0
352.97488,353.20636,64,113,0
352.97488,353.20636,73,113,0
352.97488,353.20636,45,113,0
352.97488,353.20636,49,113,0
352.97488,353.20636,52,113,0
352.97488,353.20636,57,113,0
353.4421,353.67474,61,113,0
353.4421,353.67474,64,113,0
353.4421,353.67474,69,113,0
353.4421,353.67474,45,113,0
353.4421,353.67474,49,113,0
353.4421,353.67474,52,113,0
353.4421,353.67474,57,113,0
354.97635,355.0943,62,60,0
355.0943,355.2113,64,60,0
355.2113,355.3274,68,60,0
354.85736,355.3274,47,60,0
355.4426,355.55704,59,61,0
355.55704,355.67072,58,62,0
355.3274,355.78372,74,59,0
355.67072,355.78372,59,64,0
355.89606,356.00778,64,66,0
356.00778,356.11893,69,68,0
356.11893,356.22958,64,69,0
355.78372,356.22958,49,65,0
356.33978,356.44952,61,72,0
356.44952,356.55887,60,73,0
356.22958,356.66788,76,70,0
356.55887,356.66788,61,74,0
356.7766,356.88608,66,77,0
356.88608,356.9964,69,78,0
356.9964,357.10764,66,80,0
356.66788,357.10764,50,76,0
357.21994,357.3334,62,82,0
357.3334,357.44815,61,84,0
357.10764,357.5643,78,81,0
357.44815,357.5643,62,85,0
357.682,357.8014,68,88,0
357.8014,357.9226,74,89,0
357.9226,358.04587,68,91,0
357.5643,358.04587,52,86,0
358.1713,358.29913,64,93,0
358.04587,358.42957,80,92,0
358.29913,358.42957,63,95,0
358.42957,358.4733,74,96,0
358.4733,358.51703,80,96,0
358.51703,358.5629,83,97,0
358.42957,358.5629,64,96,0
358.5629,359.22375,86,116,0
359.22375,359.3391,85,97,0
359.3391,359.4545,83,97,0
359.4545,359.5699,81,97,0
359.5699,359.68527,80,97,0
359.68527,359.80066,81,97,0
359.80066,359.91605,83,97,0
359.91605,360.03143,81,97,0
360.03143,360.14682,80,97,0
360.14682,360.2622,78,97,0
360.2622,360.3776,76,97,0
360.3776,360.46954,74,97,0
358.5629,360.49298,52,116,0
358.5629,360.49298,59,116,0
358.5629,360.49298,62,116,0
358.5629,360.49298,64,116,0
360.49298,360.72192,73,97,0
360.49298,360.9545,57,97,0
360.49298,360.9545,61,97,0
360.49298,360.9545,64,97,0
362.22372,362.2616,62,97,0
362.2616,362.29947,68,97,0
362.29947,362.3391,71,97,0
362.3391,362.91605,74,116,0
362.91605,363.03143,73,97,0
363.03143,363.14682,71,97,0
363.14682,363.2622,69,97,0
363.2622,363.3776,68,97,0
363.3776,363.49298,69,97,0
363.49298,363.60834,71,97,0
363.60834,363.72372,69,97,0
363.72372,363.8391,68,97,0
363.8391,363.9545,66,97,0
363.9545,364.0699,64,97,0
364.0699,364.18527,62,97,0
362.3391,364.18527,40,116,0
362.3391,364.18527,47,116,0
362.3391,364.18527,50,116,0
362.3391,364.18527,52,116,0
364.18527,364.36737,57,97,0
364.18527,364.41425,45,97,0
364.18527,364.41425,49,97,0
364.18527,364.41425,52,97,0
365.91605,365.9539,52,97,0
365.9539,365.99176,56,97,0
365.99176,366.03143,59,97,0
366.03143,366.60834,62,116,0
366.60834,366.72372,61,97,0
366.72372,366.8391,59,97,0
366.8391,366.9545,57,97,0
366.9545,367.0699,56,97,0
367.0699,367.18527,57,97,0
367.18527,367.30066,56,97,0
367.30066,367.41605,54,97,0
367.41605,367.53143,52,97,0
367.53143,367.64682,50,97,0
367.64682,367.7622,49,97,0
367.7622,367.85413,47,97,0
366.03143,367.87756,40,116,0
367.87756,367.99295,45,113,0
367.87756,367.99295,33,113,0
367.99295,368.10834,47,113,0
367.99295,368.10834,35,113,0
368.10834,368.22372,49,113,0
368.10834,368.22372,37,113,0
368.22372,368.3391,50,113,0
368.22372,368.3391,38,113,0
368.3391,368.4545,52,113,0
368.3391,368.4545,40,113,0
368.4545,368.5699,54,113,0
368.4545,368.5699,42,113,0
368.5699,368.68527,56,113,0
368.5699,368.68527,44,113,0
368.68527,368.80066,57,113,0
368.68527,368.80066,45,113,0
368.80066,368.91605,59,113,0
368.80066,368.91605,47,113,0
368.91605,369.03143,61,113,0
368.91605,369.03143,49,113,0
369.03143,369.14682,62,113,0
369.03143,369.14682,50,113,0
369.14682,369.2622,64,113,0
369.14682,369.2622,52,113,0
369.2622,369.37756,66,113,0
369.2622,369.37756,54,113,0
369.37756,369.49295,68,113,0
369.37756,369.49295,56,113,0
369.49295,369.60834,69,113,0
369.49295,369.60834,57,113,0
369.60834,369.72372,71,113,0
369.60834,369.72372,59,113,0
369.72372,369.8391,73,113,0
369.72372,369.8391,61,113,0
369.8391,369.95462,74,113,0
369.8391,369.95462,62,113,0
369.95462,370.07108,76,113,0
369.95462,370.07108,64,113,0
370.07108,370.18777,78,113,0
370.07108,370.18777,66,113,0
370.18777,370.30527,80,113,0
370.18777,370.30527,68,113,0
370.30527,370.4232,81,113,0
370.30527,370.4232,69,113,0
370.4232,370.54178,83,113,0
370.4232,370.54178,71,113,0
370.54178,370.66092,85,113,0
370.54178,370.66092,73,113,0
370.66092,370.85007,86,113,0
370.66092,370.85007,74,113,0
371.14355,371.38663,87,113,0
371.14355,371.38663,75,113,0
371.6349,372.13663,88,113,0
371.6349,372.13663,76,113,0
372.65015,373.17487,59,113,0
372.65015,373.17487,62,113,0
372.65015,373.17487,64,113,0
372.65015,373.17487,68,113,0
372.65015,373.17487,40,113,0
372.65015,373.17487,52,113,0
373.71127,374.2567,57,113,0
373.71127,374.2567,61,113,0
373.71127,374.2567,64,113,0
373.71127,374.2567,69,113,0
373.71127,374.2567,33,113,0
373.71127,374.2567,45,113,0
375.8931,376.70078,53,60,0
375.8931,376.70078,57,60,0
375.8931,376.70078,65,60,0
375.8931,376.70078,29,60,0
375.8931,376.70078,41,60,0
376.81616,377.62384,53,60,0
376.81616,377.62384,60,60,0
376.81616,377.62384,65,60,0
376.81616,377.62384,33,60,0
376.81616,377.62384,45,60,0
377.73923,378.54694,53,60,0
377.73923,378.54694,62,60,0
377.73923,378.54694,65,60,0
377.73923,378.54694,34,60,0
377.73923,378.54694,46,60,0
378.66232,379.47,53,60,0
378.66232,379.47,58,60,0
378.66232,379.47,65,60,0
378.66232,379.47,38,60,0
378.66232,379.47,50,60,0
379.5854,379.81436,55,60,0
379.5854,379.81436,58,60,0
379.5854,379.81436,64,60,0
379.5854,379.81436,36,60,0
379.5854,379.81436,48,60,0
380.04694,380.27588,58,60,0
380.04694,380.27588,64,60,0
380.04694,380.27588,67,60,0
380.04694,380.27588,70,60,0
380.04694,380.27588,36,60,0
380.04694,380.27588,48,60,0
381.43155,381.662,67,97,0
381.43155,381.662,70,97,0
381.43155,381.662,76,97,0
381.43155,381.662,48,97,0
381.43155,381.662,60,97,0
381.90247,382.14722,70,97,0
381.90247,382.14722,76,97,0
381.90247,382.14722,79,97,0
381.90247,382.14722,82,97,0
381.90247,382.14722,48,97,0
381.90247,382.14722,60,97,0
383.60168,383.88477,53,60,0
383.60168,383.88477,41,60,0
383.88477,384.1155,57,60,0
383.88477,384.1155,45,60,0
384.1155,384.34628,60,60,0
384.1155,384.34628,48,60,0
384.34628,384.57706,58,60,0
384.34628,384.57706,46,60,0
384.57706,384.80783,57,60,0
384.57706,384.80783,45,60,0
384.80783,385.0386,55,60,0
384.80783,385.0386,43,60,0
385.0386,385.26938,53,60,0
385.0386,385.26938,41,60,0
385.26938,385.50012,52,60,0
385.26938,385.50012,40,60,0
385.50012,385.7309,53,60,0
385.50012,385.7309,41,60,0
385.7309,385.96167,57,60,0
385.7309,385.96167,45,60,0
385.96167,386.19244,60,60,0
385.96167,386.19244,48,60,0
386.19244,386.42322,58,60,0
386.19244,386.42322,46,60,0
386.42322,386.654,57,60,0
386.42322,386.654,45,60,0
386.654,386.88474,55,60,0
386.654,386.88474,43,60,0
386.88474,387.1155,53,60,0
386.88474,387.1155,41,60,0
387.1155,387.2994,52,60,0
387.1155,387.2994,40,60,0
387.34628,387.57706,41,60,0
387.34628,387.80783,53,60,0
387.57706,387.80783,45,60,0
387.80783,388.0386,48,60,0
388.21167,388.26938,72,60,0
388.0386,388.26938,46,60,0
388.26938,388.50012,45,60,0
388.50012,388.7309,43,60,0
388.7309,388.96167,41,60,0
388.96167,389.19244,40,60,0
389.19244,389.42334,41,60,0
389.42334,389.6548,43,60,0
389.6548,389.88684,45,60,0
388.26938,390.11966,84,60,0
389.88684,390.11966,46,60,0
390.11966,390.3534,48,60,0
390.3534,390.5881,50,60,0
390.5881,390.8239,52,60,0
390.11966,390.9423,81,60,0
390.8239,391.0128,53,60,0
390.9423,391.061,77,60,0
391.061,391.2431,76,60,0
391.061,391.29178,48,60,0
391.29178,391.52255,52,60,0
391.52255,391.75333,67,60,0
391.52255,391.75333,55,60,0
391.75333,391.9841,65,60,0
391.75333,391.9841,53,60,0
391.9841,392.21484,64,60,0
391.9841,392.21484,52,60,0
392.21484,392.44562,62,60,0
392.21484,392.44562,50,60,0
392.44562,392.6764,60,60,0
392.44562,392.6764,48,60,0
392.6764,392.90717,59,60,0
392.6764,392.90717,47,60,0
392.90717,393.13794,60,60,0
392.90717,393.13794,48,60,0
393.13794,393.3687,64,60,0
393.13794,393.3687,52,60,0
393.3687,393.59946,67,60,0
393.3687,393.59946,55,60,0
393.59946,393.83023,65,60,0
393.59946,393.83023,53,60,0
393.83023,394.061,64,60,0
393.83023,394.061,52,60,0
394.061,394.29178,62,60,0
394.061,394.29178,50,60,0
394.29178,394.52255,64,60,0
394.29178,394.52255,52,60,0
394.52255,394.70645,60,60,0
394.52255,394.70645,48,60,0
394.75333,394.9841,49,60,0
394.75333,395.21484,61,60,0
394.9841,395.21484,52,60,0
395.21484,395.44562,55,60,0
395.6187,395.6764,76,60,0
395.44562,395.6764,53,60,0
395.6764,395.90717,52,60,0
395.90717,396.13794,50,60,0
396.13794,396.3687,49,60,0
396.3687,396.59946,47,60,0
396.59946,396.78345,45,60,0
396.83038,397.0618,33,60,0
397.0618,397.29388,37,60,0
395.6764,397.5267,88,60,0
397.29388,397.5267,40,60,0
397.5267,397.7604,45,60,0
397.7604,397.99512,49,60,0
397.99512,398.23096,52,60,0
397.5267,398.34933,85,60,0
398.23096,398.4198,57,60,0
398.34933,398.46805,79,60,0
398.46805,398.65015,77,60,0
398.46805,398.69882,50,60,0
398.69882,398.92957,53,60,0
398.92957,399.16034,69,60,0
398.92957,399.16034,57,60,0
399.16034,399.3911,67,60,0
399.16034,399.3911,55,60,0
399.3911,399.6219,65,60,0
399.3911,399.6219,53,60,0
399.6219,399.85266,64,60,0
399.6219,399.85266,52,60,0
399.85266,400.08344,62,60,0
399.85266,400.08344,50,60,0
400.08344,400.31418,61,60,0
400.08344,400.31418,49,60,0
400.31418,400.54495,62,60,0
400.31418,400.54495,50,60,0
400.54495,400.77573,65,60,0
400.54495,400.77573,53,60,0
400.77573,401.0065,69,60,0
400.77573,401.0065,57,60,0
401.0065,401.23727,68,60,0
401.0065,401.23727,56,60,0
401.23727,401.46805,69,60,0
401.23727,401.46805,57,60,0
401.46805,401.69882,65,60,0
401.46805,401.69882,53,60,0
401.69882,401.92957,64,60,0
401.69882,401.92957,52,60,0
401.92957,402.11346,62,60,0
401.92957,402.11346,50,60,0
402.16034,402.3911,51,60,0
402.16034,402.6219,63,60,0
402.3911,402.6219,53,60,0
402.6219,402.85266,55,60,0
403.02573,403.08344,77,60,0
402.85266,403.08344,53,60,0
403.08344,403.31418,51,60,0
403.31418,403.54495,50,60,0
403.54495,403.77573,48,60,0
403.77573,404.0065,46,60,0
404.0065,404.2374,45,60,0
404.2374,404.46884,46,60,0
404.46884,404.7009,48,60,0
403.08344,404.93375,89,60,0
404.7009,404.93375,46,60,0
404.93375,405.16745,45,60,0
405.16745,405.40216,41,60,0
405.40216,405.63797,43,60,0
404.93375,405.75635,87,60,0
405.63797,405.82684,45,60,0
405.75635,405.87506,84,60,0
405.87506,406.05716,86,60,0
405.87506,406.10583,46,60,0
406.10583,406.3366,50,60,0
406.3366,406.56738,65,60,0
406.3366,406.56738,53,60,0
406.56738,406.79816,63,60,0
406.56738,406.79816,51,60,0
406.79816,407.0289,62,60,0
406.79816,407.0289,50,60,0
407.0289,407.25967,60,60,0
407.0289,407.25967,48,60,0
407.25967,407.49045,58,60,0
407.25967,407.49045,46,60,0
407.49045,407.72122,57,60,0
407.49045,407.72122,45,60,0
407.72122,407.952,58,60,0
407.72122,407.952,46,60,0
407.952,408.18277,62,60,0
407.952,408.18277,50,60,0
408.18277,408.41354,67,60,0
408.18277,408.41354,55,60,0
408.41354,408.6443,62,60,0
408.41354,408.6443,50,60,0
408.6443,408.87506,60,60,0
408.6443,408.87506,48,60,0
408.87506,409.10583,58,60,0
408.87506,409.10583,46,60,0
409.10583,409.3366,57,60,0
409.10583,409.3366,45,60,0
409.3366,409.5205,55,60,0
409.3366,409.5205,43,60,0
409.56738,409.79816,42,60,0
409.56738,410.0289,54,60,0
409.79816,410.0289,45,60,0
410.0289,410.25967,48,60,0
410.43277,410.49045,74,60,0
410.25967,410.49045,46,60,0
410.49045,410.72122,45,60,0
410.72122,410.952,43,60,0
410.952,411.18277,42,60,0
411.18277,411.36664,40,60,0
411.4135,411.64444,42,60,0
411.64444,411.87585,38,60,0
411.87585,412.10794,42,60,0
410.49045,412.34076,86,60,0
412.10794,412.34076,45,60,0
412.34076,412.57446,50,60,0
412.57446,412.80917,54,60,0
412.80917,413.045,57,60,0
412.34076,413.1634,84,60,0
413.045,413.23386,62,60,0
413.1634,413.2821,81,60,0
413.2821,413.4642,82,60,0
413.2821,413.51288,55,60,0
413.51288,413.74362,58,60,0
413.74362,413.9744,74,60,0
413.74362,413.9744,62,60,0
413.9744,414.20517,72,60,0
413.9744,414.20517,60,60,0
414.20517,414.43594,70,60,0
414.20517,414.43594,58,60,0
414.43594,414.66672,69,60,0
414.43594,414.66672,57,60,0
414.66672,414.8975,67,60,0
414.66672,414.8975,55,60,0
414.8975,415.12827,66,60,0
414.8975,415.12827,54,60,0
415.12827,415.359,67,60,0
415.12827,415.359,55,60,0
415.359,415.58978,55,60,0
415.359,415.58978,43,60,0
415.58978,415.82056,58,60,0
415.58978,415.82056,46,60,0
415.82056,416.05133,62,60,0
415.82056,416.05133,50,60,0
416.05133,416.2821,67,60,0
416.05133,416.2821,55,60,0
416.2821,416.51288,62,60,0
416.2821,416.51288,50,60,0
416.51288,416.74362,58,60,0
416.51288,416.74362,46,60,0
416.74362,416.92752,55,60,0
416.74362,416.92752,43,60,0
416.9744,417.20517,44,60,0
416.9744,417.43594,56,60,0
417.20517,417.43594,50,60,0
417.43594,417.66672,47,60,0
417.66672,417.8975,44,60,0
417.8975,418.12823,41,97,0
418.12823,418.359,38,97,0
418.359,418.58978,35,97,0
418.58978,418.82056,33,97,0
418.82056,419.0517,32,97,0
419.0517,419.28427,35,97,0
419.28427,419.51868,38,97,0
417.8975,419.63666,77,97,0
417.8975,419.63666,89,97,0
419.63666,419.73108,76,97,0
419.63666,419.73108,88,97,0
419.51868,419.75522,41,97,0
419.75522,419.99237,77,97,0
419.75522,419.99237,89,97,0
419.75522,419.99426,44,97,0
419.99426,420.23618,47,97,0
420.23618,420.47952,77,97,0
420.23618,420.47952,89,97,0
420.23618,420.48145,50,97,0
420.48145,420.67966,44,97,0
420.73047,420.98257,76,97,0
420.73047,420.98257,88,97,0
420.98257,421.09796,57,50,0
421.09796,421.21332,61,50,0
420.73047,421.21332,33,97,0
420.73047,421.21332,45,97,0
421.21332,421.39542,64,50,0
421.4441,421.55948,45,50,0
421.55948,421.67487,49,50,0
421.67487,421.85696,52,50,0
421.90564,422.02103,61,50,0
422.02103,422.1364,64,50,0
422.1364,422.3185,69,50,0
422.3672,422.48257,50,50,0
422.48257,422.59793,53,50,0
422.59793,422.78003,57,50,0
422.8287,422.9441,64,50,0
422.9441,423.05948,69,50,0
423.05948,423.24158,73,50,0
423.29025,423.40564,53,50,0
423.40564,423.52103,57,50,0
423.52103,423.70312,62,50,0
423.7518,423.8672,69,50,0
423.8672,423.98257,73,50,0
423.98257,424.16464,76,50,0
424.21332,424.3287,57,50,0
424.3287,424.4441,62,50,0
424.4441,424.6262,64,50,0
424.67487,424.79025,73,53,0
424.79025,424.90564,76,55,0
424.90564,425.08774,81,57,0
425.1364,425.2518,61,60,0
425.2518,425.3672,64,61,0
425.3672,425.54926,69,63,0
425.59793,425.71332,76,66,0
425.71332,425.8287,81,68,0
425.8287,426.0108,85,69,0
426.05948,426.17487,64,73,0
426.17487,426.29025,69,74,0
426.29025,426.47247,73,76,0
426.52124,426.6371,81,73,0
426.6371,426.75317,85,71,0
426.75317,426.93695,88,69,0
426.98624,427.10327,69,66,0
427.10327,427.22064,73,65,0
427.22064,427.40668,76,63,0
427.4566,427.57526,81,60,0
427.57526,427.69437,85,58,0
427.69437,427.88342,88,57,0
428.40695,428.52234,57,50,0
428.52234,428.63773,62,50,0
428.1762,428.63773,33,50,0
428.1762,428.63773,45,50,0
428.63773,428.81982,65,50,0
428.8685,428.9839,45,50,0
428.9839,429.09927,50,50,0
429.09927,429.28137,53,50,0
429.33005,429.44543,62,50,0
429.44543,429.56082,65,50,0
429.56082,429.7429,69,50,0
429.7916,429.90695,50,50,0
429.90695,430.02234,53,50,0
430.02234,430.20444,57,50,0
430.2531,430.3685,65,50,0
430.3685,430.4839,69,50,0
430.4839,430.666,74,50,0
430.71466,430.83005,53,50,0
430.83005,430.94543,57,50,0
430.94543,431.1275,62,50,0
431.1762,431.29156,69,50,0
431.29156,431.40695,74,50,0
431.40695,431.58905,77,50,0
431.63773,431.7531,57,50,0
431.7531,431.8685,62,50,0
431.8685,432.0506,65,50,0
432.09927,432.21466,74,53,0
432.21466,432.33005,77,55,0
432.33005,432.51215,81,57,0
432.56082,432.6762,57,60,0
432.6762,432.79156,62,61,0
432.79156,432.97366,65,63,0
433.02234,433.13773,77,66,0
433.13773,433.2531,81,68,0
433.2531,433.4352,86,69,0
433.4839,433.59927,57,73,0
433.59927,433.71466,63,74,0
433.71466,433.89688,66,76,0
433.94565,434.0615,78,73,0
434.0615,434.17758,81,71,0
434.17758,434.36136,87,69,0
434.41064,434.52765,57,66,0
434.52765,434.64505,63,65,0
434.64505,434.8311,66,63,0
434.881,434.99966,78,60,0
434.99966,435.11877,81,58,0
435.11877,435.30783,87,57,0
435.83136,435.94675,61,50,0
435.94675,436.06213,64,50,0
435.60062,436.06213,33,50,0
435.60062,436.06213,45,50,0
436.06213,436.24423,67,50,0
436.2929,436.4083,45,50,0
436.4083,436.52368,52,50,0
436.52368,436.70578,55,50,0
436.75446,436.86984,64,50,0
436.86984,436.98523,67,50,0
436.98523,437.1673,73,50,0
437.21597,437.33136,52,50,0
437.33136,437.44675,55,50,0
437.44675,437.62885,61,50,0
437.67752,437.7929,67,50,0
437.7929,437.9083,73,50,0
437.9083,438.0904,76,50,0
438.13907,438.25446,55,50,0
438.25446,438.36984,61,50,0
438.36984,438.5519,64,50,0
438.6006,438.71597,73,50,0
438.71597,438.83136,76,50,0
438.83136,439.01346,79,50,0
439.06213,439.17752,61,50,0
439.17752,439.2929,64,50,0
439.2929,439.475,67,49,0
439.52368,439.63907,76,53,0
439.63907,439.75446,79,55,0
439.75446,439.93652,85,57,0
439.9852,440.1006,64,61,0
440.1006,440.21597,67,63,0
440.21597,440.39807,73,65,0
440.44675,440.56213,79,69,0
440.56213,440.67752,85,71,0
440.67752,440.85962,88,73,0
440.9083,441.02368,45,77,0
441.02368,441.13907,52,79,0
441.13907,441.32184,55,81,0
441.37112,441.48907,64,85,0
441.48907,441.60852,67,87,0
441.60852,441.80035,73,89,0
441.85266,441.9778,33,93,0
441.9778,442.1053,40,95,0
442.1053,442.31183,43,97,0
442.3684,442.5046,52,101,0
442.5046,442.64438,55,103,0
442.64438,442.8736,61,105,0
443.24823,444.63284,54,113,0
443.24823,444.63284,57,113,0
443.24823,444.63284,62,113,0
443.24823,444.63284,38,113,0
443.24823,444.63284,42,113,0
443.24823,444.63284,45,113,0
443.24823,444.63284,50,113,0
444.86362,444.979,57,113,0
444.86362,444.979,45,113,0
444.979,445.0944,62,113,0
444.979,445.0944,50,113,0
445.0944,445.2765,66,113,0
445.0944,445.2765,54,113,0
445.78668,445.90207,62,113,0
445.78668,445.90207,50,113,0
445.90207,446.01746,66,113,0
445.90207,446.01746,54,113,0
446.01746,446.19955,69,113,0
446.01746,446.19955,57,113,0
446.70978,446.82516,69,113,0
446.70978,446.82516,57,113,0
446.82516,446.94055,66,113,0
446.82516,446.94055,54,113,0
446.94055,447.12262,62,113,0
446.94055,447.12262,50,113,0
448.5559,448.6713,66,113,0
448.5559,448.6713,54,113,0
448.6713,448.78668,62,113,0
448.6713,448.78668,50,113,0
448.78668,448.9689,57,113,0
448.78668,448.9689,45,113,0
449.48267,449.5997,62,113,0
449.48267,449.5997,50,113,0
449.5997,449.71707,57,113,0
449.5997,449.71707,45,113,0
449.71707,449.9031,54,113,0
449.71707,449.9031,42,113,0
450.43057,450.5513,57,113,0
450.43057,450.5513,45,113,0
450.5513,450.67264,54,113,0
450.5513,450.67264,42,113,0
450.67264,450.867,50,60,0
450.91653,451.1473,54,60,0
451.1473,451.37808,57,60,0
451.37808,451.60886,55,60,0
451.60886,451.83963,54,60,0
451.83963,452.07037,52,60,0
452.07037,452.30115,50,60,0
450.67264,452.43277,38,60,0
450.67264,452.43277,45,60,0
452.30115,452.53192,49,60,0
452.7627,452.99347,52,60,0
452.99347,453.22424,54,60,0
453.22424,453.455,55,60,0
453.455,453.68576,57,60,0
453.68576,453.91653,59,60,0
453.91653,454.1473,61,60,0
454.1473,454.37808,62,60,0
452.53192,454.37808,42,60,0
452.53192,454.37808,45,60,0
452.53192,454.37808,50,60,0
454.37808,454.60886,57,60,0
454.60886,454.8396,61,60,0
454.8396,455.07037,64,60,0
455.07037,455.30115,62,60,0
455.30115,455.53192,61,60,0
455.53192,455.7627,59,60,0
455.7627,455.99347,57,60,0
455.99347,456.2242,56,60,0
454.37808,456.2242,40,60,0
454.37808,456.2242,45,60,0
454.37808,456.2242,49,60,0
456.2242,456.4551,57,60,0
456.4551,456.68637,59,60,0
456.68637,456.9181,61,60,0
456.9181,457.15042,62,60,0
457.15042,457.3834,64,60,0
457.3834,457.6171,66,60,0
457.6171,457.85165,67,60,0
457.85165,458.08713,64,60,0
456.2242,458.08713,43,60,0
456.2242,458.08713,45,60,0
456.2242,458.08713,52,60,0
458.08713,458.31787,62,60,0
458.31787,458.54828,66,62,0
458.54828,458.7784,69,63,0
458.7784,459.00824,67,64,0
459.00824,459.23776,66,65,0
459.23776,459.46704,64,66,0
459.46704,459.69608,62,67,0
459.69608,459.92496,61,68,0
458.08713,459.92496,42,60,0
458.08713,459.92496,45,60,0
458.08713,459.92496,50,60,0
459.92496,460.15363,62,69,0
460.15363,460.382,64,70,0
460.382,460.61014,66,71,0
460.61014,460.8381,67,72,0
460.8381,461.06592,69,73,0
461.06592,461.29358,71,74,0
461.29358,461.5211,72,75,0
461.5211,461.74847,73,76,0
459.92496,461.74847,48,69,0
459.92496,461.74847,50,69,0
459.92496,461.74847,57,69,0
461.74847,461.97574,74,77,0
461.97574,462.203,76,78,0
462.203,462.4303,78,80,0
462.4303,462.65756,79,81,0
461.74847,462.65756,47,77,0
461.74847,462.65756,50,77,0
461.74847,462.65756,55,77,0
462.65756,462.88483,80,82,0
462.88483,463.1121,81,83,0
463.1121,463.3394,82,84,0
463.3394,463.52048,83,85,0
462.65756,463.56665,43,82,0
462.65756,463.56665,50,82,0
462.65756,463.56665,52,82,0
463.56665,463.7941,83,60,0
463.7941,464.02234,81,60,0
464.02234,464.25153,79,60,0
464.25153,464.4349,78,60,0
463.56665,464.4818,45,60,0
463.56665,464.4818,50,60,0
463.56665,464.4818,54,60,0
464.4818,464.71338,78,60,0
464.71338,464.94644,76,60,0
464.94644,465.18115,74,60,0
465.18115,465.36957,73,60,0
464.4818,465.41772,45,60,0
464.4818,465.41772,52,60,0
464.4818,465.41772,55,60,0
465.41772,465.8866,74,60,0
466.23276,466.34814,69,60,0
465.41772,467.2712,50,60,0
465.41772,467.2712,54,60,0
466.34814,467.42447,81,79,0
467.42447,467.5777,78,60,0
467.5777,467.73276,74,60,0
467.73276,467.886,69,60,0
467.886,468.03925,66,60,0
468.03925,468.1943,62,60,0
468.1943,468.42325,62,60,0
468.65582,469.00198,62,60,0
469.00198,469.03986,61,60,0
469.03986,469.0777,62,60,0
469.0777,469.11737,64,60,0
467.2712,469.11737,54,60,0
467.2712,469.11737,57,60,0
469.11737,469.48517,62,60,0
469.57892,469.7628,61,60,0
469.92505,470.04044,69,60,0
469.11737,470.96353,52,60,0
469.11737,470.96353,57,60,0
470.04044,471.11676,79,60,0
471.11676,471.27002,76,60,0
471.27002,471.42505,73,60,0
471.42505,471.5783,69,60,0
471.5783,471.73154,64,60,0
471.73154,471.8866,61,60,0
471.8866,472.11557,61,60,0
472.34814,472.80966,61,60,0
470.96353,472.80966,55,60,0
470.96353,472.80966,57,60,0
472.80966,473.27084,64,60,0
473.27084,473.45425,63,63,0
473.6159,473.73077,71,64,0
472.80966,474.64752,54,60,0
472.80966,474.64752,57,60,0
473.73077,474.79944,83,65,0
474.79944,474.95114,78,70,0
474.95114,475.10452,75,70,0
475.10452,475.25607,71,71,0
475.25607,475.40753,66,72,0
475.40753,475.56067,63,72,0
475.56067,475.78668,63,73,0
476.0161,476.24185,63,75,0
474.64752,476.471,42,69,0
474.64752,476.471,45,69,0
474.64752,476.471,47,69,0
474.64752,476.471,51,69,0
476.471,476.6983,64,77,0
476.6983,476.92557,66,78,0
476.92557,477.15283,67,80,0
477.15283,477.38013,69,81,0
477.38013,477.6074,71,82,0
477.6074,477.83466,73,83,0
477.83466,478.06192,74,84,0
478.06192,478.24304,75,85,0
476.471,478.2892,43,77,0
476.471,478.2892,47,77,0
476.471,478.2892,52,77,0
478.2892,478.51666,76,105,0
478.51666,478.7449,77,86,0
478.7449,478.9741,78,86,0
478.9741,479.15747,76,86,0
479.20438,479.43594,76,86,0
479.43594,479.669,74,86,0
479.669,479.90372,73,86,0
479.90372,480.09213,71,86,0
478.2892,480.1403,44,105,0
478.2892,480.1403,47,105,0
478.2892,480.1403,50,105,0
478.2892,480.1403,52,105,0
480.1403,480.37106,49,97,0
480.1403,480.60184,69,97,0
480.37106,480.60184,45,97,0
480.60184,480.8326,49,97,0
480.8326,481.0634,45,97,0
481.0634,481.29413,52,97,0
480.60184,481.5249,61,97,0
480.60184,481.5249,64,97,0
480.60184,481.5249,69,97,0
481.29413,481.5249,45,97,0
481.5249,481.75568,52,97,0
481.75568,481.98645,45,97,0
481.98645,482.21744,57,97,0
481.5249,482.44937,61,97,0
481.5249,482.44937,64,97,0
481.5249,482.44937,69,97,0
482.21744,482.44937,45,97,0
482.44937,482.68243,57,97,0
482.68243,482.91684,45,97,0
482.91684,483.1528,49,97,0
482.44937,483.39056,61,97,0
482.44937,483.39056,64,97,0
482.44937,483.39056,69,97,0
483.1528,483.39056,45,97,0
483.39056,483.5984,61,97,0
483.39056,483.5984,64,97,0
483.39056,483.5984,69,97,0
483.39056,483.63034,49,97,0
483.81174,483.8724,74,97,0
483.63034,483.8724,45,97,0
483.8724,484.10318,47,113,0
484.10318,484.33392,45,113,0
484.33392,484.5647,47,113,0
484.5647,484.79547,45,113,0
483.8724,485.02625,86,113,0
484.79547,485.02625,50,113,0
485.02625,485.14163,85,113,0
485.14163,485.25702,83,113,0
485.02625,485.25702,45,113,0
485.25702,485.3724,81,113,0
485.3724,485.4878,80,113,0
485.25702,485.4878,50,113,0
485.4878,485.60315,78,113,0
485.60315,485.71854,76,113,0
485.4878,485.71854,45,113,0
485.71854,485.8087,74,113,0
485.71854,485.94955,52,113,0
485.94955,486.06537,73,113,0
486.06537,486.1815,71,113,0
485.94955,486.1815,45,113,0
486.1815,486.29785,69,113,0
486.29785,486.41455,68,113,0
486.1815,486.41455,52,113,0
486.41455,486.53156,66,113,0
486.53156,486.64893,64,113,0
486.41455,486.64893,45,113,0
486.64893,486.835,62,113,0
486.64893,486.88492,56,113,0
486.88492,487.12265,45,113,0
487.12265,487.36057,62,113,0
487.12265,487.36243,56,113,0
487.36243,487.6045,45,113,0
487.6045,487.83527,57,97,0
487.83527,488.06604,45,97,0
488.06604,488.2968,57,97,0
487.6045,488.52756,61,97,0
487.6045,488.52756,73,97,0
488.2968,488.52756,45,97,0
488.52756,488.75833,52,97,0
488.75833,488.9891,45,97,0
488.9891,489.21988,52,97,0
488.52756,489.45065,64,97,0
488.52756,489.45065,76,97,0
489.21988,489.45065,45,97,0
489.45065,489.68185,49,97,0
489.68185,489.91476,45,97,0
489.91476,490.14984,49,97,0
489.45065,490.38745,69,97,0
489.45065,490.38745,81,97,0
490.14984,490.38745,45,97,0
490.38745,490.62805,52,97,0
490.62805,490.87216,45,97,0
490.87216,491.12024,52,97,0
490.38745,491.3729,73,97,0
490.38745,491.3729,85,97,0
491.12024,491.3729,45,97,0
491.3729,491.6273,74,97,0
491.3729,491.6273,86,97,0
491.3729,492.32162,34,97,0
491.3729,492.32162,46,97,0
491.86008,492.78314,77,116,0
491.86008,492.78314,89,116,0
492.78314,492.89853,89,97,0
492.89853,493.01392,88,97,0
493.01392,493.1293,86,97,0
493.1293,493.2447,85,97,0
492.32162,493.2447,38,97,0
492.32162,493.2447,50,97,0
493.2447,493.47388,86,97,0
493.7076,493.824,86,97,0
493.824,493.94067,84,97,0
493.94067,494.0577,82,97,0
494.0577,494.17508,81,97,0
493.2447,494.17508,41,97,0
493.2447,494.17508,53,97,0
494.17508,494.40918,68,97,0
494.17508,494.40918,80,97,0
494.6488,494.8867,68,97,0
494.6488,494.8867,80,97,0
494.17508,495.13065,46,97,0
494.17508,495.13065,58,97,0
495.13065,495.59216,69,97,0
495.13065,495.59216,81,97,0
495.13065,495.59216,45,97,0
495.13065,495.59216,57,97,0
496.1691,496.2845,45,113,0
496.1691,496.2845,33,113,0
496.2845,496.39987,47,113,0
496.2845,496.39987,35,113,0
496.39987,496.51526,49,113,0
496.39987,496.51526,37,113,0
496.51526,496.63065,50,113,0
496.51526,496.63065,38,113,0
496.63065,496.74603,52,113,0
496.63065,496.74603,40,113,0
496.74603,496.8614,54,113,0
496.74603,496.8614,42,113,0
496.8614,496.97678,56,113,0
496.8614,496.97678,44,113,0
496.97678,497.06693,57,127,0
496.97678,497.06693,45,127,0
497.20755,497.32294,59,113,0
497.20755,497.32294,47,113,0
497.32294,497.43832,61,113,0
497.32294,497.43832,49,113,0
497.43832,497.5537,62,113,0
497.43832,497.5537,50,113,0
497.5537,497.6691,64,113,0
497.5537,497.6691,52,113,0
497.6691,497.7845,66,113,0
497.6691,497.7845,54,113,0
497.7845,497.89987,68,113,0
497.7845,497.89987,56,113,0
497.89987,497.99002,69,127,0
497.89987,497.99002,57,127,0
498.13065,498.246,71,113,0
498.13065,498.246,59,113,0
498.246,498.3614,73,113,0
498.246,498.3614,61,113,0
498.3614,498.47678,74,113,0
498.3614,498.47678,62,113,0
498.47678,498.59216,76,113,0
498.47678,498.59216,64,113,0
498.59216,498.70755,78,113,0
498.59216,498.70755,66,113,0
498.70755,498.82294,80,113,0
498.70755,498.82294,68,113,0
498.82294,499.00504,69,127,0
498.82294,499.41608,81,127,0
499.51526,499.746,78,60,0
499.746,499.97678,81,60,0
499.97678,500.20755,79,60,0
500.20755,500.43832,78,60,0
500.43832,500.62222,76,60,0
500.6691,500.89987,79,60,0
500.89987,501.1306,78,60,0
501.1306,501.3614,76,60,0
501.3614,501.59216,74,60,0
501.59216,501.82294,78,60,0
501.82294,502.0537,76,60,0
502.0537,502.2845,74,60,0
502.2845,502.51523,73,60,0
502.51523,502.7462,76,60,0
502.7462,502.97797,74,60,0
502.97797,503.21085,73,60,0
503.21085,503.4449,71,60,0
502.97797,503.4449,66,60,0
503.4449,503.68024,70,60,0
503.68024,503.9172,71,60,0
503.4449,503.9172,67,60,0
503.9172,504.1557,73,60,0
503.9172,504.29828,63,60,0
504.1557,504.39587,71,60,0
504.39587,504.6358,64,60,0
504.8824,505.1276,59,60,0
504.39587,505.37906,69,60,0
505.37906,505.7848,67,60,0
505.37906,505.88327,64,60,0
506.38748,507.31055,59,60,0
506.38748,507.31055,64,60,0
506.38748,507.31055,67,60,0
506.38748,507.31055,71,60,0
506.38748,507.31055,43,60,0
506.38748,507.31055,47,60,0
506.38748,507.31055,52,60,0
506.38748,507.31055,55,60,0
510.5449,510.7802,52,60,0
510.5449,510.7802,55,60,0
510.5449,510.7802,61,60,0
510.5449,510.7802,33,60,0
510.5449,510.7802,45,60,0
511.023,511.26617,52,60,0
511.023,511.26617,55,60,0
511.023,511.26617,61,60,0
511.023,511.26617,33,60,0
511.023,511.26617,45,60,0
511.51855,511.71997,52,60,0
511.51855,511.71997,55,60,0
511.51855,511.71997,61,60,0
511.51855,511.71997,33,60,0
511.51855,511.71997,45,60,0
512.03564,513.16754,55,60,0
512.03564,513.16754,61,60,0
513.16754,513.687,54,60,0
512.03564,513.687,57,60,0
513.16754,513.687,62,60,0
512.03564,513.687,38,60,0
512.03564,513.687,50,60,0
513.78613,513.99146,69,60,0
513.99146,514.1447,74,60,0
514.1447,514.26733,78,60,0
514.2998,514.9911,81,60,0
514.9911,515.2209,78,60,0
515.2209,515.37335,81,60,0
515.37335,515.5257,79,60,0
515.5257,515.6797,78,60,0
515.6797,515.83185,76,60,0
515.83185,515.9838,75,60,0
515.9838,516.13763,76,60,0
516.13763,516.28955,79,60,0
516.28955,516.4412,78,60,0
516.4412,516.59467,76,60,0
516.59467,516.74615,74,60,0
516.74615,516.89764,73,60,0
516.89764,517.0508,74,60,0
517.0508,517.2021,78,60,0
517.2021,517.3533,76,60,0
517.3533,517.5062,74,60,0
517.5062,517.6573,73,60,0
517.6573,517.80835,72,60,0
517.80835,517.9611,73,60,0
517.9611,518.07477,76,60,0
518.07477,518.1885,74,60,0
518.1885,518.3024,73,60,0
518.3024,518.3933,71,60,0
518.41656,518.56854,70,60,0
518.56854,518.721,73,60,0
518.721,518.8756,71,60,0
518.8756,519.0289,70,60,0
519.0289,519.18286,73,60,0
519.18286,519.3392,71,60,0
519.3392,519.4941,70,60,0
519.4941,519.6498,73,60,0
519.6498,519.77435,71,60,0
519.8073,520.7643,69,60,0
520.7643,521.1587,67,60,0
522.2168,522.6767,76,79,0
522.2168,522.6767,64,79,0
522.6767,522.8579,73,60,0
522.6767,522.8579,61,60,0
523.13556,523.59344,74,79,0
523.13556,523.59344,62,79,0
523.59344,523.7739,71,60,0
523.59344,523.7739,59,60,0
524.0505,524.5066,73,79,0
524.0505,524.5066,61,79,0
524.5066,524.68634,70,60,0
524.5066,524.68634,58,60,0
524.96204,525.41693,71,79,0
524.96204,525.41693,59,79,0
525.41693,525.59656,67,60,0
525.41693,525.59656,55,60,0
526.3425,526.825,69,60,0
526.3425,526.825,57,60,0
527.3272,527.48047,62,60,0
527.3272,527.48047,50,60,0
527.48047,527.6337,66,60,0
527.48047,527.6337,54,60,0
527.6337,527.78876,69,60,0
527.6337,527.78876,57,60,0
527.78876,527.942,61,60,0
527.78876,527.942,49,60,0
527.942,528.0953,66,60,0
527.942,528.0953,54,60,0
528.0953,528.2503,69,60,0
528.0953,528.2503,57,60,0
528.2503,528.40356,62,60,0
528.2503,528.40356,50,60,0
528.40356,528.5568,66,60,0
528.40356,528.5568,54,60,0
528.5568,528.71185,69,60,0
528.5568,528.71185,57,60,0
528.71185,528.8651,57,60,0
528.71185,528.8651,45,60,0
528.8651,529.0183,66,60,0
528.8651,529.0183,54,60,0
529.0183,529.1734,69,60,0
529.0183,529.1734,57,60,0
529.1734,529.32666,60,60,0
529.1734,529.32666,48,60,0
529.32666,529.47986,66,60,0
529.32666,529.47986,54,60,0
529.47986,529.63495,69,60,0
529.47986,529.63495,57,60,0
529.63495,529.78815,59,60,0
529.63495,529.78815,47,60,0
529.78815,529.9414,66,60,0
529.78815,529.9414,54,60,0
529.9414,530.09644,69,60,0
529.9414,530.09644,57,60,0
530.09644,530.2497,60,60,0
530.09644,530.2497,48,60,0
530.2497,530.40295,66,60,0
530.2497,530.40295,54,60,0
530.40295,530.558,69,60,0
530.40295,530.558,57,60,0
530.558,530.71124,57,60,0
530.558,530.71124,45,60,0
530.71124,530.8645,66,60,0
530.71124,530.8645,54,60,0
530.8645,530.98706,69,60,0
530.8645,530.98706,57,60,0
531.01953,531.1728,59,60,0
531.01953,531.1728,47,60,0
531.1728,531.32605,62,60,0
531.1728,531.32605,50,60,0
531.32605,531.4811,67,60,0
531.32605,531.4811,55,60,0
531.4811,531.63434,58,60,0
531.4811,531.63434,46,60,0
531.63434,531.7876,62,60,0
531.63434,531.7876,50,60,0
531.7876,531.9426,67,60,0
531.7876,531.9426,55,60,0
531.9426,532.0959,59,60,0
531.9426,532.0959,47,60,0
532.0959,532.2491,62,60,0
532.0959,532.2491,50,60,0
532.2491,532.4042,67,60,0
532.2491,532.4042,55,60,0
532.4042,532.5574,55,60,0
532.4042,532.5574,43,60,0
532.5574,532.71063,62,60,0
532.5574,532.71063,50,60,0
532.71063,532.86566,67,60,0
532.71063,532.86566,55,60,0
532.86566,533.0189,57,60,0
532.86566,533.0189,45,60,0
533.0189,533.1722,60,60,0
533.0189,533.1722,48,60,0
533.1722,533.3272,62,60,0
533.1722,533.3272,50,60,0
533.3272,533.48047,56,60,0
533.3272,533.48047,44,60,0
533.48047,533.6337,60,60,0
533.48047,533.6337,48,60,0
533.6337,533.78876,62,60,0
533.6337,533.78876,50,60,0
533.78876,533.942,57,60,0
533.78876,533.942,45,60,0
533.942,534.0953,60,60,0
533.942,534.0953,48,60,0
534.0953,534.2503,62,60,0
534.0953,534.2503,50,60,0
534.2503,534.40356,54,60,0
534.2503,534.40356,42,60,0
534.40356,534.5568,60,60,0
534.40356,534.5568,48,60,0
534.5568,534.6794,62,60,0
534.5568,534.6794,50,60,0
534.71185,534.8651,55,60,0
534.71185,534.8651,43,60,0
534.8651,535.0183,59,60,0
534.8651,535.0183,47,60,0
535.0183,535.1734,62,60,0
535.0183,535.1734,50,60,0
535.1734,535.3266,54,60,0
535.1734,535.3266,42,60,0
535.3266,535.47986,59,60,0
535.3266,535.47986,47,60,0
535.47986,535.63495,62,60,0
535.47986,535.63495,50,60,0
535.63495,535.78815,55,60,0
535.63495,535.78815,43,60,0
535.78815,535.9414,59,60,0
535.78815,535.9414,47,60,0
535.9414,536.09644,62,60,0
535.9414,536.09644,50,60,0
536.09644,536.2497,50,60,0
536.09644,536.2497,38,60,0
536.2497,536.40295,59,60,0
536.2497,536.40295,47,60,0
536.40295,536.558,62,60,0
536.40295,536.558,50,60,0
536.558,536.71124,54,60,0
536.558,536.71124,42,60,0
536.71124,536.8645,57,60,0
536.71124,536.8645,45,60,0
536.8645,537.01953,62,60,0
536.8645,537.01953,50,60,0
537.01953,537.1728,53,60,0
537.01953,537.1728,41,60,0
537.1728,537.32605,57,60,0
537.1728,537.32605,45,60,0
537.32605,537.4811,62,60,0
537.32605,537.4811,50,60,0
537.4811,537.63434,54,60,0
537.4811,537.63434,42,60,0
537.63434,537.78754,57,60,0
537.63434,537.78754,45,60,0
537.78754,537.9426,62,60,0
537.78754,537.9426,50,60,0
537.9426,538.0958,50,60,0
537.9426,538.0958,38,60,0
538.0958,538.2491,57,60,0
538.0958,538.2491,45,60,0
538.2491,538.3717,62,60,0
538.2491,538.3717,50,60,0
538.4042,538.5574,52,60,0
538.4042,538.5574,40,60,0
538.5574,538.71063,55,62,0
538.5574,538.71063,43,62,0
538.71063,538.86566,57,63,0
538.71063,538.86566,45,63,0
538.86566,539.0189,51,64,0
538.86566,539.0189,39,64,0
539.0189,539.1722,55,65,0
539.0189,539.1722,43,65,0
539.1722,539.3272,57,66,0
539.1722,539.3272,45,66,0
539.3272,539.48047,52,67,0
539.3272,539.48047,40,67,0
539.48047,539.6337,55,68,0
539.48047,539.6337,43,68,0
539.6337,539.78876,57,69,0
539.6337,539.78876,45,69,0
539.78876,539.942,37,70,0
539.942,540.0953,43,71,0
540.1349,540.2503,69,72,0
540.0953,540.2503,45,72,0
540.2503,540.40356,38,73,0
540.40356,540.55676,42,74,0
540.55676,540.71185,45,75,0
540.71185,540.8651,37,76,0
540.8651,541.0183,42,77,0
541.0183,541.1734,45,78,0
541.1734,541.3266,38,80,0
541.3266,541.47986,42,81,0
540.2503,541.6349,81,73,0
541.47986,541.6349,45,82,0
541.6349,541.7503,79,83,0
541.6349,541.78815,33,83,0
541.7503,541.86566,78,83,0
541.78815,541.9414,42,84,0
541.86566,541.9811,76,84,0
541.9414,542.064,45,85,0
541.9811,542.073,74,85,0
542.09644,542.2497,40,60,0
542.09644,542.32544,69,60,0
542.2497,542.40295,43,60,0
542.40295,542.558,45,60,0
542.558,542.71124,39,60,0
542.71124,542.8645,43,60,0
542.8645,543.01953,45,60,0
543.01953,543.1728,40,60,0
543.1728,543.326,43,60,0
543.326,543.4811,45,60,0
543.4811,543.63434,37,60,0
543.63434,543.78754,43,60,0
543.8272,543.9426,69,60,0
543.78754,543.9426,45,60,0
543.9426,544.0958,38,60,0
544.0958,544.2491,41,63,0
544.2491,544.4041,45,65,0
544.4041,544.5574,37,67,0
544.5574,544.71063,41,69,0
544.71063,544.86566,45,71,0
544.86566,545.0189,38,73,0
545.0189,545.1722,41,75,0
543.9426,545.3272,81,60,0
545.1722,545.3272,45,77,0
545.3272,545.4426,79,80,0
545.3272,545.48047,33,80,0
545.4426,545.558,77,81,0
545.48047,545.6337,42,82,0
545.558,545.6734,76,83,0
545.6337,545.7563,45,84,0
545.6734,545.78876,74,84,0
545.78876,545.942,48,60,0
545.78876,545.9708,75,60,0
545.942,546.0953,51,60,0
546.0953,546.2503,53,60,0
546.2503,546.40356,47,60,0
546.40356,546.55676,51,60,0
546.55676,546.71185,53,60,0
546.71185,546.86505,48,60,0
546.86505,547.0183,51,60,0
547.0183,547.17334,53,60,0
547.17334,547.3266,45,60,0
547.3266,547.47986,51,60,0
547.51953,547.6349,77,74,0
547.47986,547.6349,53,60,0
547.6349,547.78815,46,59,0
547.78815,547.9414,50,63,0
547.9414,548.09644,53,66,0
548.09644,548.2497,45,69,0
548.2497,548.40295,50,72,0
548.40295,548.558,53,75,0
548.558,548.71124,46,78,0
548.71124,548.8645,50,82,0
547.6349,549.01953,89,76,0
548.8645,549.01953,53,85,0
549.01953,549.1349,87,92,0
549.01953,549.1728,41,88,0
549.1349,549.2503,86,93,0
549.1728,549.326,50,91,0
549.2503,549.36566,84,95,0
549.36566,549.4811,82,96,0
549.326,549.4811,53,94,0
549.4811,549.6344,48,97,0
549.4811,549.6633,77,97,0
549.6344,549.7883,51,97,0
549.7883,549.94476,53,97,0
549.94476,550.1002,47,97,0
550.1002,550.2565,51,97,0
550.2565,550.4157,53,97,0
550.4157,550.5741,48,97,0
550.5741,550.7338,51,97,0
550.6547,550.89667,77,97,0
550.7338,550.89667,53,97,0
550.89667,551.0592,45,97,0
550.89667,551.14197,89,97,0
551.0592,551.2233,51,97,0
551.2233,551.3558,53,97,0
551.14197,551.391,89,97,0
551.391,551.5046,89,97,0
551.62177,551.7353,89,60,0
551.391,551.8525,34,97,0
551.391,551.8525,46,97,0
551.8525,551.96606,87,60,0
552.08325,552.19684,86,60,0
552.314,552.7756,84,60,0
552.7756,553.1434,82,60,0
552.7756,553.2371,58,60,0
553.2371,553.4192,51,60,0
553.4679,553.5815,82,59,0
553.69867,553.81226,81,58,0
553.92944,554.043,79,57,0
554.1602,554.6217,77,55,0
554.6217,554.9895,75,53,0
554.6217,555.08325,51,53,0
555.08325,555.2654,53,50,0
555.314,555.4276,75,50,0
555.5448,555.6584,74,50,0
555.7756,555.88916,72,50,0
556.00635,556.4679,70,50,0
556.4679,556.8357,69,50,0
556.4679,556.92944,51,50,0
556.92944,557.043,70,50,0
556.92944,557.11163,50,50,0
557.1604,557.2745,74,50,0
557.39233,557.5069,67,50,0
557.39233,557.6236,51,50,0
557.6254,557.7406,72,50,0
557.8598,557.97577,65,50,0
557.8598,558.09393,53,50,0
558.09576,558.2126,70,50,0
558.33356,558.4513,63,50,0
558.33356,558.5714,41,50,0
558.5733,558.69214,69,50,0
558.81537,559.0443,62,50,0
558.81537,559.0443,70,50,0
558.81537,559.0443,46,50,0
560.2,560.6615,62,60,0
560.2,560.6615,58,60,0
560.6615,560.8436,70,60,0
560.6615,560.8436,55,60,0
562.04614,562.5077,70,57,0
562.04614,562.5077,55,57,0
562.5077,562.68976,67,55,0
562.5077,562.68976,52,55,0
563.8923,564.3538,52,50,0
563.8923,564.3538,55,50,0
564.58624,564.70276,79,50,0
564.3538,564.8246,52,50,0
564.3538,564.8246,55,50,0
564.8246,564.9442,77,50,0
565.0693,565.19214,76,50,0
565.3206,565.8447,74,50,0
565.8447,566.3027,73,50,0
565.8447,566.4003,52,50,0
565.8447,566.4003,55,50,0
565.8447,566.4003,61,50,0
566.6695,566.90955,79,50,0
566.4003,566.90955,52,50,0
566.4003,566.90955,55,50,0
566.4003,566.90955,61,50,0
566.90955,567.1403,78,49,0
567.1403,567.37103,76,53,0
567.37103,567.6018,74,56,0
567.6018,567.8326,73,60,0
567.8326,568.06335,83,63,0
568.06335,568.24725,81,67,0
567.8326,568.2941,52,63,0
567.8326,568.2941,55,63,0
567.8326,568.2941,61,63,0
568.2941,568.47614,54,70,0
568.2941,568.47614,57,70,0
568.2941,568.47614,63,70,0
568.5247,568.7547,81,73,0
568.7547,568.9841,79,77,0
568.9841,569.213,78,80,0
569.213,569.44147,76,84,0
569.44147,569.66956,75,87,0
569.66956,569.8973,84,90,0
569.8973,570.0785,83,94,0
569.66956,570.1247,54,90,0
569.66956,570.1247,57,90,0
569.66956,570.1247,63,90,0
570.1247,570.304,55,97,0
570.1247,570.304,59,97,0
570.1247,570.304,64,97,0
570.352,570.5792,83,97,0
570.5792,570.8065,81,97,0
570.8065,571.0338,79,97,0
571.0338,571.26105,78,97,0
571.26105,571.48834,76,97,0
571.48834,571.71564,87,97,0
571.71564,571.8967,88,97,0
571.9429,572.1708,81,97,0
572.1708,572.4013,79,97,0
572.4013,572.6351,78,97,0
572.6351,572.8727,76,97,0
572.8727,573.115,75,97,0
573.115,573.36273,76,97,0
573.36273,573.6169,79,97,0
573.6169,573.82495,76,97,0
573.87854,573.9542,78,60,0
573.9542,574.0318,76,60,0
574.0318,574.1093,78,60,0
573.87854,574.1093,57,60,0
574.1093,574.185,76,60,0
574.185,574.2626,78,60,0
574.2626,574.3401,76,60,0
574.1093,574.3401,61,60,0
574.3401,574.4158,78,60,0
574.4158,574.4933,76,60,0
574.4933,574.57086,78,60,0
574.3401,574.57086,64,60,0
574.57086,574.64655,76,59,0
574.64655,574.72406,78,60,0
574.72406,574.80164,76,61,0
574.57086,574.80164,62,59,0
574.80164,574.8773,78,62,0
574.8773,574.95483,76,63,0
574.95483,575.03235,78,64,0
574.80164,575.03235,61,62,0
575.03235,575.1081,76,65,0
575.1081,575.1856,78,66,0
575.1856,575.2631,76,67,0
575.03235,575.2631,59,65,0
575.2631,575.33887,78,68,0
575.33887,575.4164,76,69,0
575.4164,575.4939,78,70,0
575.2631,575.4939,57,68,0
575.4939,575.56964,76,71,0
575.56964,575.64716,78,72,0
575.4939,575.6778,56,71,0
575.64716,575.7247,76,73,0
575.7247,575.8004,78,74,0
575.8004,575.8779,76,75,0
575.8779,575.95544,78,76,0
575.7247,575.95544,57,74,0
575.95544,576.0312,76,77,0
576.0312,576.1087,78,78,0
576.1087,576.1862,76,79,0
575.95544,576.1862,64,77,0
576.1862,576.26196,78,80,0
576.26196,576.3395,76,81,0
576.3395,576.417,78,82,0
576.1862,576.417,67,80,0
576.417,576.49274,76,83,0
576.49274,576.57025,78,84,0
576.57025,576.64777,76,85,0
576.417,576.64777,66,83,0
576.64777,576.7235,78,86,0
576.7235,576.801,76,87,0
576.801,576.87854,78,88,0
576.64777,576.87854,64,86,0
576.87854,576.9542,76,89,0
576.9542,577.0318,78,90,0
577.0318,577.1093,76,90,0
576.87854,577.1093,62,89,0
577.1093,577.185,78,91,0
577.185,577.2625,76,92,0
577.2625,577.3401,78,93,0
577.1093,577.3401,61,91,0
577.3401,577.4158,76,94,0
577.4158,577.4933,78,95,0
577.3401,577.524,59,94,0
577.4933,577.57086,76,96,0
577.57086,577.64655,78,97,0
577.64655,577.72406,76,97,0
577.72406,577.8016,78,97,0
577.57086,577.8016,57,97,0
577.8016,577.8773,76,97,0
577.8773,577.95483,78,97,0
577.8016,577.9855,56,97,0
577.95483,578.03235,76,97,0
578.03235,578.1081,78,97,0
578.03235,578.14594,55,97,0
578.1081,578.1856,76,97,0
578.1856,578.2631,78,97,0
578.2631,578.33887,76,97,0
578.2631,578.3767,54,97,0
578.33887,578.4164,78,97,0
578.4164,578.4939,76,97,0
578.4939,578.56964,78,97,0
578.4939,578.6075,52,97,0
578.56964,578.64716,76,97,0
578.64716,578.7247,78,97,0
578.7247,578.8004,76,97,0
578.7247,578.83826,50,97,0
578.8004,578.8779,78,97,0
578.8779,578.95544,76,97,0
578.95544,579.0312,78,97,0
578.95544,579.06903,49,97,0
579.0312,579.1087,76,97,0
579.1087,579.1862,78,97,0
579.1862,579.26196,76,97,0
579.1862,579.2998,47,97,0
579.26196,579.3395,78,97,0
579.3395,579.417,76,97,0
579.417,579.49274,78,97,0
579.417,579.5306,45,97,0
579.49274,579.5705,76,97,0
579.5705,579.6486,78,97,0
579.6486,579.72534,76,97,0
579.6486,579.76385,43,97,0
579.72534,579.8043,78,97,0
579.8043,579.8837,76,97,0
579.8837,579.96173,78,97,0
579.8837,580.00104,42,97,0
579.96173,580.04224,76,97,0
580.04224,580.1233,78,97,0
580.1233,580.2029,76,97,0
580.1233,580.24304,40,97,0
580.2029,580.28516,78,97,0
580.28516,580.36816,76,97,0
580.36816,580.4498,78,97,0
580.36816,580.49097,38,97,0
580.4498,580.5341,76,97,0
580.5341,580.6195,78,97,0
580.6195,580.7036,76,97,0
580.6195,580.746,37,97,0
580.7036,580.79047,78,97,0
580.79047,580.87854,76,97,0
580.87854,580.96564,78,97,0
580.87854,581.00934,35,97,0
580.96564,581.05566,76,97,0
581.05566,581.1468,78,97,0
581.1468,581.23737,76,97,0
581.1468,581.2827,33,97,0
581.23737,581.3311,74,97,0
581.3311,581.40607,76,97,0
581.42596,582.2382,62,113,0
581.42596,582.2382,74,113,0
581.42596,582.2382,38,113,0
581.42596,582.2382,50,113,0
582.3554,583.18555,62,113,0
582.3554,583.18555,69,113,0
582.3554,583.18555,74,113,0
582.3554,583.18555,42,113,0
582.3554,583.18555,50,113,0
582.3554,583.18555,54,113,0
583.3052,584.16064,62,113,0
583.3052,584.16064,71,113,0
583.3052,584.16064,74,113,0
583.3052,584.16064,43,113,0
583.3052,584.16064,50,113,0
583.3052,584.16064,55,113,0
584.2852,585.1767,62,113,0
584.2852,585.1767,67,113,0
584.2852,585.1767,74,113,0
584.2852,585.1767,47,113,0
584.2852,585.1767,55,113,0
584.2852,585.1767,59,113,0
585.30664,585.53564,64,113,0
585.30664,585.53564,67,113,0
585.30664,585.53564,76,113,0
585.30664,585.53564,49,113,0
585.30664,585.53564,55,113,0
585.30664,585.53564,57,113,0
585.30664,585.53564,61,113,0
585.7689,585.99927,64,113,0
585.7689,585.99927,67,113,0
585.7689,585.99927,69,113,0
585.7689,585.99927,49,113,0
585.7689,585.99927,55,113,0
585.7689,585.99927,57,113,0
585.7689,585.99927,61,113,0
587.17535,587.4114,66,113,0
587.17535,587.4114,69,113,0
587.17535,587.4114,78,113,0
587.17535,587.4114,50,113,0
587.17535,587.4114,54,113,0
587.17535,587.4114,57,113,0
587.17535,587.4114,62,113,0
587.65295,587.8922,66,113,0
587.65295,587.8922,69,113,0
587.65295,587.8922,74,113,0
587.65295,587.8922,50,113,0
587.65295,587.8922,54,113,0
587.65295,587.8922,57,113,0
587.65295,587.8922,62,113,0
589.2513,589.3762,67,60,0
589.3762,589.5001,69,60,0
589.5001,589.6231,73,60,0
589.12524,589.6231,52,60,0
589.74524,589.8666,64,61,0
589.8666,589.9871,63,62,0
589.6231,590.10693,79,59,0
589.9871,590.10693,64,64,0
590.2261,590.34454,69,66,0
590.34454,590.4625,74,68,0
590.4625,590.5799,69,69,0
590.10693,590.5799,54,65,0
590.69684,590.8133,66,72,0
590.8133,590.9293,65,73,0
590.5799,591.04504,81,70,0
590.9293,591.04504,66,74,0
591.16046,591.2767,71,77,0
591.2767,591.39374,74,78,0
591.39374,591.51184,71,80,0
591.04504,591.51184,55,76,0
591.631,591.75134,67,82,0
591.75134,591.87305,66,84,0
591.51184,591.9962,83,81,0
591.87305,591.9962,67,85,0
592.12103,592.24756,73,88,0
592.24756,592.37604,79,89,0
592.37604,592.5066,73,91,0
591.9962,592.5066,57,86,0
592.63947,592.77484,67,93,0
592.5066,592.9129,85,92,0
592.77484,592.9129,66,95,0
592.9129,592.95917,67,96,0
592.9129,592.95917,67,96,0
592.95917,593.0055,73,96,0
593.0055,593.054,76,97,0
593.054,593.7463,79,116,0
593.7463,593.8617,78,97,0
593.8617,593.97705,76,97,0
593.97705,594.09247,74,97,0
594.09247,594.2078,73,97,0
594.2078,594.32324,74,97,0
594.32324,594.4386,76,97,0
594.4386,594.554,74,97,0
594.554,594.6694,73,97,0
594.6694,594.7848,71,97,0
594.7848,594.90015,69,97,0
594.90015,595.01556,67,97,0
593.054,595.01556,45,116,0
593.054,595.01556,52,116,0
593.054,595.01556,55,116,0
593.054,595.01556,57,116,0
595.01556,595.19763,66,97,0
595.01556,595.2445,50,97,0
595.01556,595.2445,54,97,0
595.01556,595.2445,57,97,0
596.7463,596.7842,55,97,0
596.7842,596.822,61,97,0
596.822,596.8617,64,97,0
596.8617,597.4386,67,116,0
597.4386,597.554,66,97,0
597.554,597.6694,64,97,0
597.6694,597.7848,62,97,0
597.7848,597.90015,61,97,0
597.90015,598.0155,62,97,0
598.0155,598.1309,64,97,0
598.1309,598.2463,62,97,0
598.2463,598.3617,61,97,0
598.3617,598.47705,59,97,0
598.47705,598.59247,57,97,0
598.59247,598.7078,55,97,0
596.8617,598.7078,33,116,0
596.8617,598.7078,40,116,0
596.8617,598.7078,43,116,0
596.8617,598.7078,45,116,0
598.7078,598.88995,54,97,0
598.7078,598.9368,38,97,0
598.7078,598.9368,42,97,0
598.7078,598.9368,45,97,0
600.4386,600.47644,45,97,0
600.47644,600.51434,49,97,0
600.51434,600.554,52,97,0
600.554,601.1309,55,116,0
601.1309,601.2463,54,97,0
601.2463,601.3617,52,97,0
601.3617,601.47705,50,97,0
601.47705,601.59247,49,97,0
601.59247,601.7078,50,97,0
601.7078,601.82324,49,97,0
601.82324,601.9386,47,97,0
601.9386,602.054,45,97,0
602.054,602.1694,43,97,0
602.1694,602.2847,42,97,0
602.2847,602.3767,40,97,0
600.554,602.40015,33,116,0
602.40015,602.5155,38,113,0
602.5155,602.6309,40,113,0
602.6309,602.7463,42,113,0
602.7463,602.8617,43,113,0
602.8617,602.97705,45,113,0
602.97705,603.09247,47,113,0
603.09247,603.2078,49,113,0
603.2078,603.32324,50,113,0
603.32324,603.4386,52,113,0
603.32324,603.4386,40,113,0
603.4386,603.554,54,113,0
603.4386,603.554,42,113,0
603.554,603.6694,55,113,0
603.554,603.6694,43,113,0
603.6694,603.7847,57,113,0
603.6694,603.7847,45,113,0
603.7847,603.90015,59,113,0
603.7847,603.90015,47,113,0
603.90015,604.0155,61,113,0
603.90015,604.0155,49,113,0
604.0155,604.1309,62,113,0
604.0155,604.1309,50,113,0
604.1309,604.2463,64,113,0
604.1309,604.2463,52,113,0
604.2463,604.3617,66,113,0
604.2463,604.3617,54,113,0
604.3617,604.4775,67,113,0
604.3617,604.4775,55,113,0
604.4775,604.5959,69,113,0
604.4775,604.5959,57,113,0
604.5959,604.71515,71,113,0
604.5959,604.71515,59,113,0
604.71515,604.8367,73,113,0
604.71515,604.8367,61,113,0
604.8367,604.9594,74,113,0
604.8367,604.9594,62,113,0
604.9594,605.0841,76,113,0
604.9594,605.0841,64,113,0
605.0841,605.2104,78,113,0
605.0841,605.2104,66,113,0
605.2104,605.4128,79,113,0
605.2104,605.4128,67,113,0
605.7324,606.0014,80,113,0
605.7324,606.0014,68,113,0
606.27814,606.8505,81,113,0
606.27814,606.8505,69,113,0
607.45087,608.0748,64,113,0
607.45087,608.0748,67,113,0
607.45087,608.0748,69,113,0
607.45087,608.0748,73,113,0
607.45087,608.0748,45,113,0
607.45087,608.0748,49,113,0
607.45087,608.0748,52,113,0
607.45087,608.0748,57,113,0
608.7201,609.37946,62,113,0
608.7201,609.37946,66,113,0
608.7201,609.37946,69,113,0
608.7201,609.37946,74,113,0
608.7201,609.37946,38,113,0
608.7201,609.37946,42,113,0
608.7201,609.37946,45,113,0
608.7201,609.37946,50,113,0
610.6981,611.3574,74,113,0
