start_time,end_time,note_value,velocity,instrument_program_number
0.0,0.1,67,70,40
0.1,0.2,66,70,40
0.2,0.3,64,70,40
0.3,0.4,62,70,40
0.4,0.5,64,70,40
0.5,0.6,66,70,40
0.6,0.7,67,70,40
0.7,0.8,66,70,40
0.8,0.9,64,70,40
0.9,1.0,62,70,40
1.0,1.1,64,70,40
1.1,1.2,66,70,40
1.2,1.3458333,67,70,40
1.4,1.5458333,71,70,40
1.6,1.7458333,74,70,40
1.8,1.9458333,79,70,40
2.0,2.1498284,83,70,40
2.205479,2.361729,86,70,40
2.4197645,2.843871,91,70,40
4.370312,4.447235,85,110,40
4.447235,4.890985,86,110,40
4.897235,4.993068,62,70,40
4.997235,5.093068,64,70,40
5.097235,5.1930685,66,70,40
5.197235,5.297235,67,70,40
5.297235,5.397235,66,70,40
5.397235,5.497235,64,70,40
5.497235,5.597235,62,70,40
5.597235,5.697235,64,70,40
5.697235,5.797235,66,70,40
5.797235,5.897235,67,70,40
5.897235,5.997235,66,70,40
5.997235,6.097235,64,70,40
6.097235,6.197235,62,70,40
6.197235,6.297235,64,70,40
6.297235,6.397235,66,70,40
6.397235,6.5430684,67,70,40
6.597235,6.743068,71,70,40
6.797235,6.9430685,74,70,40
6.997235,7.1430683,79,70,40
7.197235,7.343068,83,70,40
7.397235,7.5430684,86,70,40
7.597235,7.993068,91,70,40
9.411519,9.482948,90,110,40
9.482948,10.1787815,91,110,40
13.982948,14.128781,67,70,40
14.182948,14.328781,67,70,40
14.382948,14.582948,67,70,40
14.582948,14.782948,69,70,40
14.782948,14.978782,71,70,40
14.982948,15.778781,72,70,40
15.782948,15.982948,71,70,40
15.982948,16.178782,76,70,40
16.182947,16.97878,74,70,40
16.982948,17.182947,72,70,40
17.182947,17.378782,71,70,40
17.382948,17.582949,71,70,40
17.582949,17.782948,68,70,40
17.782948,17.97878,69,70,40
17.982948,18.182947,69,70,40
18.182947,18.382948,71,70,40
18.382948,18.578781,72,70,40
18.582949,18.782948,71,70,40
18.782948,18.928782,67,70,40
18.982948,19.128782,74,70,40
19.182947,19.378782,74,70,40
19.382948,19.482948,76,70,40
19.482948,19.582949,74,70,40
19.582949,19.682947,72,70,40
19.682947,19.778782,71,70,40
19.782948,19.982948,71,70,40
19.982948,20.182947,68,70,40
20.182947,20.378782,69,70,40
20.382948,20.582949,69,70,40
20.582949,20.782948,71,70,40
20.782948,20.97878,72,70,40
20.982948,21.182947,71,70,40
21.182947,21.328781,67,70,40
21.382948,21.528782,74,70,40
21.582949,21.778782,74,70,40
21.782948,21.882948,76,70,40
21.882948,21.982948,74,70,40
21.982948,22.082949,72,70,40
22.082949,22.178782,71,70,40
22.182947,22.382948,71,70,40
22.382948,22.528782,68,70,40
22.582949,22.732777,69,70,40
22.788427,22.993906,71,70,40
22.993906,23.150156,68,70,40
23.20819,23.36444,69,70,40
23.422478,24.225452,69,70,40
24.22962,24.429619,69,70,40
24.429619,24.625454,81,70,40
24.62962,25.425453,81,70,40
25.429619,25.52962,79,70,40
25.52962,25.62962,78,70,40
25.62962,25.72962,76,70,40
25.72962,25.77962,74,70,40
25.77962,25.82962,76,70,40
25.82962,26.02962,74,70,40
26.02962,26.625454,73,70,40
26.62962,26.82962,73,70,40
26.82962,27.025454,81,70,40
27.02962,27.825453,81,70,40
27.82962,27.929619,81,70,40
27.929619,28.02962,79,70,40
28.02962,28.12962,78,70,40
28.12962,28.179619,76,70,40
28.179619,28.22962,78,70,40
28.22962,28.425453,76,70,40
28.429619,29.025454,74,70,40
29.02962,29.22962,74,70,40
29.22962,29.425453,84,70,40
29.429619,30.225452,84,70,40
30.22962,30.32962,83,70,40
30.32962,30.429619,81,70,40
30.429619,30.52962,79,70,40
30.52962,30.57962,78,70,40
30.57962,30.62962,79,70,40
30.62962,30.82962,78,70,40
30.82962,30.975452,76,70,40
31.02962,31.175453,76,70,40
31.429619,31.625454,76,70,40
31.62962,31.77962,76,70,40
31.77962,31.82962,78,70,40
31.82962,32.02962,76,70,40
32.02962,32.175453,74,70,40
32.229618,32.375454,74,70,40
32.62962,32.825455,74,70,40
32.82962,33.02545,74,70,40
33.02962,33.12962,73,70,40
33.12962,33.200455,76,70,40
33.229618,33.300453,74,70,40
33.32962,33.40045,73,70,40
33.42962,33.500454,71,70,40
33.52962,33.600452,69,70,40
33.62962,33.700455,68,70,40
33.729618,33.800453,66,70,40
33.82962,33.90045,64,70,40
33.92962,34.000454,62,70,40
34.02962,34.100452,61,70,40
34.12962,34.200455,59,70,40
34.229618,34.625454,57,70,40
35.02962,35.175453,68,70,40
35.229618,35.296288,68,70,40
35.296288,35.362953,69,70,40
35.362953,35.42962,68,70,40
35.42962,35.52962,69,70,40
35.52962,35.600452,76,70,40
35.62962,35.700455,74,70,40
35.729618,35.800453,73,70,40
35.82962,35.90045,71,70,40
35.92962,36.000454,69,70,40
36.02962,36.100452,68,70,40
36.12962,36.200455,66,70,40
36.229618,36.300453,64,70,40
36.32962,36.40045,62,70,40
36.42962,36.500454,61,70,40
36.52962,36.600452,59,70,40
36.62962,37.02545,57,70,40
37.42962,37.575455,80,70,40
37.62962,37.696285,80,70,40
37.696285,37.762955,81,70,40
37.762955,37.82962,80,70,40
37.82962,37.92962,81,100,40
37.92962,38.000454,88,100,40
38.02962,38.100452,86,100,40
38.12962,38.200455,85,100,40
38.229618,38.300453,83,100,40
38.32962,38.40045,81,100,40
38.42962,38.500454,80,100,40
38.52962,38.600452,78,100,40
38.62962,38.700455,76,100,40
38.729618,38.800453,74,100,40
38.82962,38.90045,73,100,40
38.92962,39.000454,71,100,40
39.02962,39.12962,69,120,40
39.12962,39.229618,68,120,40
39.229618,39.32962,66,120,40
39.32962,39.42962,64,120,40
39.42962,39.52962,66,120,40
39.52962,39.62962,68,120,40
39.62962,39.729618,69,120,40
39.729618,39.82962,68,120,40
39.82962,39.92962,66,120,40
39.92962,40.02962,64,120,40
40.02962,40.12962,66,120,40
40.12962,40.229618,68,120,40
40.229618,40.625454,69,120,40
42.715332,43.568012,73,50,40
43.572475,43.728725,70,50,40
43.78676,43.94301,66,50,40
47.68676,48.539436,78,50,40
48.5439,48.70015,75,50,40
48.758186,48.914436,71,50,40
50.17247,51.368305,79,70,40
51.37247,51.968304,80,70,40
51.972473,52.168304,81,70,40
52.17247,52.368305,84,70,40
52.37247,52.568306,81,70,40
52.57247,52.768307,78,70,40
52.772472,52.968304,74,70,40
52.972473,53.168304,78,70,40
53.17247,53.568306,79,70,40
53.57247,53.768307,78,70,40
53.772472,54.368305,77,70,40
54.37247,54.568306,78,70,40
54.57247,54.768307,81,70,40
54.772472,54.968304,78,70,40
54.972473,55.168304,75,70,40
55.17247,55.368305,71,70,40
55.37247,55.568306,75,70,40
55.57247,55.968304,76,70,40
55.972473,56.168304,74,70,40
56.17247,56.718304,73,70,40
56.722473,56.772472,76,70,40
56.772472,56.968304,74,70,40
56.972473,57.168304,73,70,40
57.17247,57.368305,74,70,40
57.37247,58.168304,76,70,40
58.17247,58.37247,79,70,40
58.37247,58.518307,76,70,40
58.522472,58.57247,78,70,40
58.57247,58.772472,76,70,40
58.772472,58.918304,74,70,40
58.972473,59.118305,74,70,40
59.17247,59.23914,74,70,40
59.23914,59.305805,76,70,40
59.305805,59.37247,74,70,40
59.37247,59.52872,76,70,40
59.586758,59.743008,73,70,40
59.801044,59.90372,74,100,40
59.908184,60.00153,57,100,40
59.908184,60.00153,65,100,40
60.00559,60.09893,57,100,40
60.00559,60.09893,65,100,40
60.10299,60.196335,57,100,40
60.10299,60.196335,65,100,40
60.200394,60.293736,57,100,40
60.200394,60.293736,65,100,40
60.297794,60.39114,57,100,40
60.297794,60.39114,65,100,40
60.3952,60.48854,57,100,40
60.3952,60.48854,65,100,40
60.4926,60.585945,57,100,40
60.4926,60.585945,65,100,40
60.590004,60.683346,57,100,40
60.590004,60.683346,65,100,40
60.687405,60.78075,57,100,40
60.687405,60.78075,65,100,40
60.78481,60.87815,57,100,40
60.78481,60.87815,65,100,40
60.88221,60.975555,57,100,40
60.88221,60.975555,65,100,40
60.979614,61.072956,57,100,40
60.979614,61.072956,67,100,40
61.077015,61.17036,57,100,40
61.077015,61.17036,67,100,40
61.17442,61.26776,57,100,40
61.17442,61.26776,67,100,40
61.27182,61.365166,57,100,40
61.27182,61.365166,67,100,40
61.369225,61.462566,57,100,40
61.369225,61.462566,67,100,40
61.466625,61.55997,57,100,40
61.466625,61.55997,67,100,40
61.56403,61.65737,57,100,40
61.56403,61.65737,67,100,40
61.66143,61.754776,57,100,40
61.66143,61.754776,67,100,40
61.758835,61.852177,57,100,40
61.758835,61.852177,67,100,40
61.856236,61.94958,57,100,40
61.856236,61.94958,67,100,40
61.953636,62.04698,57,100,40
61.953636,62.04698,67,100,40
62.05104,62.144386,57,100,40
62.05104,62.144386,67,100,40
62.14844,62.241787,57,100,40
62.14844,62.241787,64,100,40
62.245846,62.33919,57,100,40
62.245846,62.33919,64,100,40
62.343246,62.436592,57,100,40
62.343246,62.436592,64,100,40
62.44065,62.533993,57,100,40
62.44065,62.533993,64,100,40
62.53805,62.631397,61,100,40
62.635456,62.728798,61,100,40
62.732857,62.826202,57,100,40
62.732857,62.826202,64,100,40
62.83026,62.923603,57,100,40
62.83026,62.923603,64,100,40
62.92766,63.021008,57,100,40
62.92766,63.021008,64,100,40
63.025066,63.11841,57,100,40
63.025066,63.11841,64,100,40
63.122467,63.215813,61,100,40
63.21987,63.313213,61,100,40
63.317272,63.414677,57,100,40
63.414677,63.512077,62,100,40
63.512077,63.60948,65,100,40
63.60948,63.706882,69,100,40
63.706882,63.804287,74,100,40
63.804287,63.901688,77,100,40
63.901688,64.04373,81,100,40
64.0965,64.23854,81,100,40
64.2913,64.43334,81,100,40
64.4861,65.26126,81,125,40
65.26532,65.40737,77,100,40
65.46013,65.60217,74,100,40
65.60623,65.65493,76,100,40
65.65493,65.84568,74,100,40
65.84974,66.43009,73,100,40
66.43415,66.576195,73,100,40
66.62896,66.771,74,100,40
66.82376,67.20931,76,125,40
67.21337,67.40412,73,100,40
67.40818,67.79373,69,125,40
67.79779,67.98853,67,100,40
67.99259,68.37814,65,70,40
69.16142,69.546974,77,70,40
69.55103,69.64844,74,70,40
69.64844,69.745834,70,70,40
69.745834,70.131386,69,70,40
71.499084,71.884636,82,70,40
71.888695,71.9861,79,70,40
71.9861,72.083496,75,70,40
72.083496,72.46905,74,70,40
72.667915,72.80996,73,70,40
72.86272,73.00476,74,70,40
73.057526,73.19957,73,70,40
73.25233,73.39437,74,70,40
73.447136,73.58918,73,70,40
73.64194,73.78398,74,70,40
73.83675,73.97879,73,70,40
74.03155,74.17359,74,70,40
74.22636,74.3684,73,70,40
74.42116,74.5632,74,70,40
74.61597,74.75801,73,70,40
74.81077,74.95281,74,70,40
75.00557,75.58593,73,70,40
75.58999,76.17034,77,78,40
76.1744,76.75476,76,86,40
76.75882,77.33917,85,94,40
77.34323,77.53804,85,100,40
77.53804,77.680084,86,98,40
77.73284,77.874886,86,95,40
77.92765,78.12245,86,92,40
78.12245,78.264496,83,90,40
78.31726,78.459305,83,87,40
78.46336,78.51206,85,85,40
78.51206,78.71207,83,84,40
78.71207,78.857895,81,82,40
78.91206,79.06189,81,79,40
79.06617,79.11754,85,77,40
79.11754,79.32302,83,76,40
79.32302,79.47927,81,74,40
79.53731,79.69356,81,71,40
79.751595,79.85159,81,100,40
79.85159,79.947426,74,70,40
82.55159,82.947426,78,70,40
82.95159,83.09743,76,70,40
83.15159,83.297424,74,70,40
83.35159,83.55159,73,70,40
83.55159,83.697426,74,70,40
83.751595,83.89742,71,70,40
83.95159,84.15159,69,70,40
84.15159,84.297424,71,70,40
84.35159,84.49743,67,70,40
84.55159,84.751595,66,70,40
84.751595,84.89742,69,70,40
84.95159,85.09743,62,70,40
87.35159,87.74743,78,70,40
87.751595,87.89742,76,70,40
87.95159,88.09743,74,70,40
88.15159,88.35159,73,70,40
88.35159,88.49743,74,70,40
88.55159,88.697426,71,70,40
88.751595,88.95159,69,70,40
88.95159,89.09743,71,70,40
89.15159,89.297424,67,70,40
89.35159,89.49743,66,70,40
89.55159,89.697426,62,72,40
89.751595,90.14742,78,74,40
90.15159,90.297424,76,79,40
90.35159,90.49743,74,81,40
90.55159,90.751595,73,84,40
90.751595,90.89742,74,86,40
90.95159,91.09743,71,89,40
91.15159,91.35159,69,91,40
91.35159,91.49743,71,93,40
91.55159,91.697426,67,96,40
91.751595,91.89742,66,98,40
91.95159,92.09743,62,100,40
92.15159,92.547424,66,110,40
92.55159,92.697426,64,110,40
92.751595,92.89742,62,110,40
92.95159,93.15159,61,110,40
93.15159,93.297424,62,110,40
93.35159,93.50142,59,110,40
93.55707,93.76255,57,110,40
93.76255,93.9188,59,110,40
93.97684,94.14008,56,110,40
94.200714,94.31265,57,110,40
94.31265,94.41266,62,110,40
94.41266,94.51266,66,110,40
94.51266,94.612656,69,110,40
94.612656,94.712654,74,110,40
94.712654,94.81265,78,110,40
94.81265,94.91266,81,110,40
94.91266,95.01266,80,110,40
95.01266,95.112656,83,110,40
95.112656,95.212654,81,110,40
95.212654,95.31265,79,110,40
95.31265,95.41266,78,110,40
95.41266,95.479324,76,110,40
95.479324,95.54599,78,110,40
95.54599,95.612656,76,110,40
95.612656,95.67932,78,110,40
95.67932,95.74599,76,110,40
95.74599,95.81265,78,110,40
95.81265,95.879326,76,110,40
95.879326,95.94599,78,110,40
95.94599,96.01266,76,110,40
96.01266,96.07932,78,110,40
96.07932,96.14599,76,110,40
96.14599,96.212654,78,110,40
96.212654,96.27932,76,110,40
96.27932,96.34599,78,104,40
96.34599,96.41266,76,97,40
96.41266,96.51266,74,90,40
96.51266,96.612656,76,80,40
96.612656,96.75849,74,70,40
96.81265,96.95849,74,70,40
97.01266,97.15849,74,70,40
97.212654,97.35849,74,70,40
97.41266,97.55849,76,95,40
97.612656,97.75849,74,70,40
97.81265,97.95849,72,70,40
98.01266,98.15849,74,95,40
98.212654,98.35849,72,70,40
98.41266,98.55849,71,70,40
98.612656,98.75849,72,95,40
98.81265,98.95849,71,70,40
99.01266,99.15849,69,70,40
99.212654,99.35849,71,95,40
99.41266,99.55849,69,70,40
99.612656,99.75849,67,55,40
99.81265,99.95849,66,55,40
100.01266,100.15849,67,55,40
100.212654,100.35849,66,55,40
100.41266,100.55849,67,55,40
100.612656,100.75849,66,55,40
100.81265,100.95849,67,55,40
101.01266,101.15849,66,55,40
101.212654,101.35849,67,55,40
101.41266,101.80849,66,70,40
104.41266,104.479324,85,70,40
104.479324,104.54599,86,70,40
104.54599,104.612656,85,70,40
104.612656,104.67932,86,70,40
104.67932,104.74599,85,70,40
104.74599,104.81265,86,70,40
104.81265,104.879326,85,70,40
104.879326,104.94599,83,70,40
104.94599,105.01266,85,70,40
105.01266,105.40849,86,70,40
105.612656,105.67932,85,70,40
105.67932,105.74599,86,70,40
105.74599,105.81265,85,70,40
105.81265,105.879326,86,70,40
105.879326,105.94599,85,70,40
105.94599,106.01266,86,70,40
106.01266,106.07932,85,70,40
106.07932,106.14599,83,70,40
106.14599,106.212654,85,70,40
106.212654,106.40849,86,70,40
106.41266,106.55849,67,70,40
106.612656,106.75849,66,70,40
106.81265,106.95849,67,70,40
107.01266,107.15849,66,70,40
107.212654,107.35849,67,70,40
107.41266,107.55849,66,70,40
107.612656,107.75849,67,70,40
107.81265,107.95849,66,70,40
108.01266,108.15849,67,70,40
108.212654,108.35849,66,70,40
108.41266,108.55849,67,70,40
108.612656,109.00849,66,70,40
110.712654,110.81265,62,100,40
110.81265,110.91266,64,90,40
110.91266,111.01266,66,80,40
111.01266,111.112656,67,70,40
111.112656,111.212654,66,70,40
111.212654,111.31265,64,70,40
111.31265,111.41266,62,70,40
111.41266,111.51266,64,70,40
111.51266,111.612656,66,70,40
111.612656,111.712654,67,70,40
111.712654,111.81265,66,70,40
111.81265,111.91266,64,70,40
111.91266,112.01266,62,70,40
112.01266,112.112656,64,70,40
112.112656,112.212654,66,70,40
112.212654,112.35849,67,70,40
112.41266,112.55849,71,70,40
112.612656,112.75849,74,70,40
112.81265,112.95849,79,70,40
113.01266,113.16248,83,70,40
113.21813,113.367966,86,70,40
113.423615,113.83029,91,70,40
115.25433,115.32577,85,110,40
115.32577,115.69556,86,110,40
115.70077,115.82056,62,70,40
115.82577,115.9216,64,70,40
115.925766,116.0216,66,70,40
116.025764,116.12576,67,70,40
116.12576,116.22576,66,70,40
116.22576,116.32577,64,70,40
116.32577,116.425766,62,70,40
116.425766,116.525764,64,70,40
116.525764,116.62576,66,70,40
116.62576,116.72576,67,70,40
116.72576,116.82577,66,70,40
116.82577,116.925766,64,70,40
116.925766,117.025764,62,70,40
117.025764,117.12576,64,70,40
117.12576,117.22576,66,70,40
117.22576,117.3716,67,70,40
117.425766,117.571594,71,70,40
117.62576,117.7716,74,70,40
117.82577,117.971596,79,70,40
118.025764,118.17559,83,70,40
118.23125,118.38749,86,70,40
118.445526,118.86964,91,70,40
120.30267,120.3741,90,110,40
120.3741,121.06993,91,110,40
124.8741,125.01993,67,70,40
125.0741,125.21993,67,70,40
125.2741,125.4741,67,70,40
125.4741,125.674095,69,70,40
125.674095,125.869934,71,70,40
125.8741,126.66993,72,70,40
126.674095,126.8741,71,70,40
126.8741,127.06993,76,70,40
127.0741,127.869934,74,70,40
127.8741,128.0741,72,70,40
128.0741,128.26993,71,70,40
128.2741,128.4741,71,70,40
128.4741,128.6741,68,70,40
128.6741,128.86993,69,70,40
128.8741,129.0741,69,70,40
129.0741,129.2741,71,70,40
129.2741,129.46992,72,70,40
129.4741,129.6741,71,70,40
129.6741,129.81993,67,70,40
129.8741,130.01993,74,70,40
130.0741,130.26993,74,70,40
130.2741,130.3741,76,70,40
130.3741,130.4741,74,70,40
130.4741,130.5741,72,70,40
130.5741,130.66994,71,70,40
130.6741,130.8741,71,70,40
130.8741,131.0741,68,70,40
131.0741,131.26993,69,70,40
131.2741,131.4741,69,70,40
131.4741,131.6741,71,70,40
131.6741,131.86993,72,70,40
131.8741,132.0741,71,70,40
132.0741,132.21992,67,70,40
132.2741,132.41994,74,70,40
132.4741,132.66994,74,70,40
132.6741,132.7741,76,70,40
132.7741,132.8741,74,70,40
132.8741,132.9741,72,70,40
132.9741,133.06993,71,70,40
133.0741,133.27957,71,70,40
133.27957,133.42941,68,70,40
133.48506,133.63489,69,70,40
133.69054,133.89601,71,70,40
133.89601,134.05226,68,70,40
134.1103,134.26656,69,70,40
134.32458,135.12042,69,70,40
135.12459,135.32458,69,70,40
135.32458,135.52042,81,70,40
135.52458,136.32042,81,70,40
136.32458,136.42459,79,70,40
136.42459,136.52458,78,70,40
136.52458,136.62459,76,70,40
136.62459,136.67459,74,70,40
136.67459,136.72458,76,70,40
136.72458,136.92459,74,70,40
136.92459,137.52042,73,70,40
137.52458,137.72458,73,70,40
137.72458,137.92043,81,70,40
137.92459,138.72041,81,70,40
138.72458,138.82458,81,70,40
138.82458,138.92459,79,70,40
138.92459,139.02458,78,70,40
139.02458,139.07458,76,70,40
139.07458,139.12459,78,70,40
139.12459,139.32042,76,70,40
139.32458,139.92043,74,70,40
139.92459,140.12459,74,70,40
140.12459,140.32042,84,70,40
140.32458,141.12042,84,70,40
141.12459,141.22458,83,70,40
141.22458,141.32458,81,70,40
141.32458,141.42459,79,70,40
141.42459,141.47458,78,70,40
141.47458,141.52458,79,70,40
141.52458,141.72458,78,70,40
141.72458,141.87042,76,70,40
141.92459,142.07042,76,70,40
142.32458,142.52042,76,70,40
142.52458,142.67459,76,70,40
142.67459,142.72458,78,70,40
142.72458,142.92459,76,70,40
142.92459,143.07042,74,70,40
143.12459,143.27042,74,70,40
143.52458,143.72041,74,70,40
143.72458,143.92043,74,70,40
143.92459,144.02458,73,70,40
144.02458,144.09541,76,70,40
144.12459,144.19542,74,70,40
144.22458,144.29543,73,70,40
144.32458,144.39542,71,70,40
144.42459,144.49542,69,70,40
144.52458,144.59541,68,70,40
144.62459,144.69542,66,70,40
144.72458,144.79543,64,70,40
144.82458,144.89542,62,70,40
144.92459,144.99542,61,70,40
145.02458,145.09541,59,70,40
145.12459,145.52042,57,70,40
145.92459,146.07042,68,70,40
146.12459,146.19125,68,70,40
146.19125,146.25792,69,70,40
146.25792,146.32458,68,70,40
146.32458,146.42459,69,70,40
146.42459,146.49542,76,70,40
146.52458,146.59541,74,70,40
146.62459,146.69542,73,70,40
146.72458,146.79543,71,70,40
146.82458,146.89542,69,70,40
146.92459,146.99542,68,70,40
147.02458,147.09541,66,70,40
147.12459,147.19542,64,70,40
147.22458,147.29543,62,70,40
147.32458,147.39542,61,70,40
147.42459,147.49542,59,70,40
147.52458,147.92043,57,70,40
148.32458,148.47041,80,70,40
148.52458,148.59125,80,70,40
148.59125,148.65791,81,70,40
148.65791,148.72458,80,70,40
148.72458,148.82458,81,100,40
148.82458,148.89542,88,100,40
148.92459,148.99542,86,100,40
149.02458,149.09541,85,100,40
149.12459,149.19542,83,100,40
149.22458,149.29543,81,100,40
149.32458,149.39542,80,100,40
149.42459,149.49542,78,100,40
149.52458,149.59541,76,100,40
149.62459,149.69542,74,100,40
149.72458,149.79543,73,100,40
149.82458,149.89542,71,100,40
149.92459,150.02458,69,120,40
150.02458,150.12459,68,120,40
150.12459,150.22458,66,120,40
150.22458,150.32458,64,120,40
150.32458,150.42459,66,120,40
150.42459,150.52458,68,120,40
150.52458,150.62459,69,120,40
150.62459,150.72458,68,120,40
150.72458,150.82458,66,120,40
150.82458,150.92459,64,120,40
150.92459,151.02458,66,120,40
151.02458,151.12459,68,120,40
151.12459,151.52042,69,120,40
153.6103,154.46298,73,50,40
154.46744,154.62369,70,50,40
154.68173,154.83798,66,50,40
158.58173,159.4344,78,50,40
159.43887,159.59512,75,50,40
159.65315,159.8094,71,50,40
161.06744,162.26328,79,70,40
162.26744,162.86327,80,70,40
162.86743,163.06328,81,70,40
163.06744,163.26328,84,70,40
163.26744,163.46327,81,70,40
163.46744,163.66327,78,70,40
163.66743,163.86327,74,70,40
163.86743,164.06328,78,70,40
164.06744,164.46327,79,70,40
164.46744,164.66327,78,70,40
164.66743,165.26328,77,70,40
165.26744,165.46327,78,70,40
165.46744,165.66327,81,70,40
165.66743,165.86327,78,70,40
165.86743,166.06328,75,70,40
166.06744,166.26328,71,70,40
166.26744,166.46327,75,70,40
166.46744,166.86327,76,70,40
166.86743,167.06328,74,70,40
167.06744,167.61327,73,70,40
167.61743,167.66743,76,70,40
167.66743,167.86327,74,70,40
167.86743,168.06328,73,70,40
168.06744,168.26328,74,70,40
168.26744,169.06328,76,70,40
169.06744,169.26744,79,70,40
169.26744,169.41327,76,70,40
169.41743,169.46744,78,70,40
169.46744,169.66743,76,70,40
169.66743,169.81328,74,70,40
169.86743,170.01727,74,70,40
170.07292,170.1414,74,70,40
170.1414,170.2099,76,70,40
170.2099,170.2784,74,70,40
170.2784,170.43465,76,70,40
170.49268,170.64893,73,70,40
170.70697,170.80965,74,100,40
170.8141,170.9168,57,100,40
170.8141,170.9168,65,100,40
170.92125,171.0146,57,100,40
170.92125,171.0146,65,100,40
171.01866,171.112,57,100,40
171.01866,171.112,65,100,40
171.11606,171.2094,57,100,40
171.11606,171.2094,65,100,40
171.21346,171.30681,57,100,40
171.21346,171.30681,65,100,40
171.31087,171.4042,57,100,40
171.31087,171.4042,65,100,40
171.40826,171.5016,57,100,40
171.40826,171.5016,65,100,40
171.50566,171.59901,57,100,40
171.50566,171.59901,65,100,40
171.60307,171.69641,57,100,40
171.60307,171.69641,65,100,40
171.70047,171.79382,57,100,40
171.70047,171.79382,65,100,40
171.79787,171.89122,57,100,40
171.79787,171.89122,65,100,40
171.89528,171.98862,57,100,40
171.89528,171.98862,67,100,40
171.99268,172.08603,57,100,40
171.99268,172.08603,67,100,40
172.09009,172.18343,57,100,40
172.09009,172.18343,67,100,40
172.18748,172.28082,57,100,40
172.18748,172.28082,67,100,40
172.28488,172.37823,57,100,40
172.28488,172.37823,67,100,40
172.3823,172.47563,57,100,40
172.3823,172.47563,67,100,40
172.47969,172.57303,57,100,40
172.47969,172.57303,67,100,40
172.57709,172.67044,57,100,40
172.57709,172.67044,67,100,40
172.6745,172.76784,57,100,40
172.6745,172.76784,67,100,40
172.7719,172.86525,57,100,40
172.7719,172.86525,67,100,40
172.86931,172.96265,57,100,40
172.86931,172.96265,67,100,40
172.9667,173.06004,57,100,40
172.9667,173.06004,67,100,40
173.0641,173.15746,57,100,40
173.0641,173.15746,64,100,40
173.16151,173.25485,57,100,40
173.16151,173.25485,64,100,40
173.25891,173.35225,57,100,40
173.25891,173.35225,64,100,40
173.35631,173.44966,57,100,40
173.35631,173.44966,64,100,40
173.45372,173.54706,61,100,40
173.55112,173.64447,61,100,40
173.64853,173.74187,57,100,40
173.64853,173.74187,64,100,40
173.74593,173.83926,57,100,40
173.74593,173.83926,64,100,40
173.84332,173.93668,57,100,40
173.84332,173.93668,64,100,40
173.94073,174.03407,57,100,40
173.94073,174.03407,64,100,40
174.03813,174.13147,61,100,40
174.13553,174.22888,61,100,40
174.23294,174.33034,57,100,40
174.33034,174.42773,62,100,40
174.42773,174.52515,65,100,40
174.52515,174.62254,69,100,40
174.62254,174.71996,74,100,40
174.71996,174.81735,77,100,40
174.81735,174.9594,81,100,40
175.01216,175.1542,81,100,40
175.20695,175.34901,81,100,40
175.40176,176.17693,81,125,40
176.18098,176.32303,77,100,40
176.3758,176.51784,74,100,40
176.5219,176.5706,76,100,40
176.5706,176.76134,74,100,40
176.7654,177.34576,73,100,40
177.34982,177.49187,73,100,40
177.54462,177.68666,74,100,40
177.73943,178.12498,76,125,40
178.12904,178.31978,73,100,40
178.32384,178.7094,69,125,40
178.71346,178.9042,67,100,40
178.90826,179.29381,65,70,40
180.07709,180.46263,77,70,40
180.46669,180.5641,74,70,40
180.5641,180.6615,70,70,40
180.6615,181.04706,69,70,40
182.41475,182.8003,82,70,40
182.80435,182.90176,79,70,40
182.90176,182.99916,75,70,40
182.99916,183.38472,74,70,40
183.58357,183.72562,73,70,40
183.77838,183.92043,74,70,40
183.97319,184.11523,73,70,40
184.168,184.31004,74,70,40
184.3628,184.50484,73,70,40
184.5576,184.69965,74,70,40
184.75241,184.89445,73,70,40
184.9472,185.08926,74,70,40
185.14201,185.28406,73,70,40
185.33682,185.47887,74,70,40
185.53163,185.67368,73,70,40
185.72643,185.86848,74,70,40
185.92123,186.50159,73,70,40
186.50565,187.08601,77,78,40
187.09007,187.67043,76,86,40
187.67448,188.25484,85,94,40
188.2589,188.4537,85,100,40
188.4537,188.59575,86,98,40
188.64851,188.79056,86,95,40
188.8433,189.03812,86,92,40
189.03812,189.18016,83,90,40
189.23293,189.37875,83,87,40
189.38292,189.43292,85,85,40
189.43292,189.63292,83,84,40
189.63292,189.77875,81,82,40
189.83292,189.97876,81,79,40
189.98293,190.03293,85,77,40
190.03293,190.2384,83,76,40
190.2384,190.38823,81,74,40
190.44388,190.60013,81,71,40
190.65817,190.7653,81,100,40
190.7653,190.86798,74,70,40
193.47246,193.86829,78,70,40
193.87245,194.01828,76,70,40
194.07245,194.21828,74,70,40
194.27245,194.47246,73,70,40
194.47246,194.61829,74,70,40
194.67245,194.81828,71,70,40
194.87245,195.07245,69,70,40
195.07245,195.21828,71,70,40
195.27245,195.41829,67,70,40
195.47246,195.67245,66,70,40
195.67245,195.81828,69,70,40
195.87245,196.01828,62,70,40
198.27245,198.66829,78,70,40
198.67245,198.81828,76,70,40
198.87245,199.01828,74,70,40
199.07245,199.27245,73,70,40
199.27245,199.41829,74,70,40
199.47246,199.61829,71,70,40
199.67245,199.87245,69,70,40
199.87245,200.01828,71,70,40
200.07245,200.21828,67,70,40
200.27245,200.41829,66,70,40
200.47246,200.61829,62,72,40
200.67245,201.06828,78,74,40
201.07245,201.21828,76,79,40
201.27245,201.41829,74,81,40
201.47246,201.67245,73,84,40
201.67245,201.81828,74,86,40
201.87245,202.01828,71,89,40
202.07245,202.27245,69,91,40
202.27245,202.41829,71,93,40
202.47246,202.61829,67,96,40
202.67245,202.81828,66,98,40
202.87245,203.01828,62,100,40
203.07245,203.46828,66,110,40
203.47246,203.61829,64,110,40
203.67245,203.81828,62,110,40
203.87245,204.07245,61,110,40
204.07245,204.21828,62,110,40
204.27245,204.42227,59,110,40
204.47794,204.68341,57,110,40
204.68341,204.83966,59,110,40
204.89769,205.06094,56,110,40
205.12158,205.23352,57,110,40
205.23352,205.34546,62,110,40
205.34546,205.44545,66,110,40
205.44545,205.54546,69,110,40
205.54546,205.64546,74,110,40
205.64546,205.74545,78,110,40
205.74545,205.84546,81,110,40
205.84546,205.94545,80,110,40
205.94545,206.04546,83,110,40
206.04546,206.14546,81,110,40
206.14546,206.24545,79,110,40
206.24545,206.34546,78,110,40
206.34546,206.41212,76,110,40
206.41212,206.47879,78,110,40
206.47879,206.54546,76,110,40
206.54546,206.61212,78,110,40
206.61212,206.67879,76,110,40
206.67879,206.74545,78,110,40
206.74545,206.81212,76,110,40
206.81212,206.87878,78,110,40
206.87878,206.94545,76,110,40
206.94545,207.01212,78,110,40
207.01212,207.07878,76,110,40
207.07878,207.14546,78,110,40
207.14546,207.21213,76,110,40
207.21213,207.2788,78,104,40
207.2788,207.34546,76,97,40
207.34546,207.44545,74,90,40
207.44545,207.54546,76,80,40
207.54546,207.69128,74,70,40
207.74545,207.89128,74,70,40
207.94545,208.0913,74,70,40
208.14546,208.29129,74,70,40
208.34546,208.49129,76,95,40
208.54546,208.69128,74,70,40
208.74545,208.89128,72,70,40
208.94545,209.0913,74,95,40
209.14546,209.29129,72,70,40
209.34546,209.49129,71,70,40
209.54546,209.69128,72,95,40
209.74545,209.89128,71,70,40
209.94545,210.0913,69,70,40
210.14546,210.29129,71,95,40
210.34546,210.49129,69,70,40
210.54546,210.69128,67,55,40
210.74545,210.89128,66,55,40
210.94545,211.0913,67,55,40
211.14546,211.29129,66,55,40
211.34546,211.49129,67,55,40
211.54546,211.69128,66,55,40
211.74545,211.89128,67,55,40
211.94545,212.0913,66,55,40
212.14546,212.29129,67,55,40
212.34546,212.74129,66,70,40
215.34546,215.41212,85,70,40
215.41212,215.47879,86,70,40
215.47879,215.54546,85,70,40
215.54546,215.61212,86,70,40
215.61212,215.67879,85,70,40
215.67879,215.74545,86,70,40
215.74545,215.81212,85,70,40
215.81212,215.87878,83,70,40
215.87878,215.94545,85,70,40
215.94545,216.3413,86,70,40
216.54546,216.61212,85,70,40
216.61212,216.67879,86,70,40
216.67879,216.74545,85,70,40
216.74545,216.81212,86,70,40
216.81212,216.87878,85,70,40
216.87878,216.94545,86,70,40
216.94545,217.01212,85,70,40
217.01212,217.07878,83,70,40
217.07878,217.14546,85,70,40
217.14546,217.3413,86,70,40
217.34546,217.49129,67,70,40
217.54546,217.69128,66,70,40
217.74545,217.89128,67,70,40
217.94545,218.0913,66,70,40
218.14546,218.29129,67,70,40
218.34546,218.49129,66,70,40
218.54546,218.69128,67,70,40
218.74545,218.89128,66,70,40
218.94545,219.0913,67,70,40
219.14546,219.29129,66,70,40
219.34546,219.49129,67,70,40
219.54546,219.94128,66,70,40
221.34546,221.40796,65,125,40
221.41212,221.47462,67,123,40
221.47879,221.54129,65,120,40
221.54546,221.60796,67,117,40
221.61212,221.67462,65,114,40
221.67879,221.74129,67,111,40
221.74545,221.80795,65,108,40
221.81212,221.87462,64,105,40
221.87878,221.94128,65,103,40
221.94545,222.3413,64,100,40
223.14546,223.21213,76,125,40
223.21213,223.2788,77,122,40
223.2788,223.34546,76,119,40
223.34546,223.41212,77,116,40
223.41212,223.47879,76,113,40
223.47879,223.54546,77,109,40
223.54546,223.61212,76,106,40
223.61212,223.67879,75,103,40
223.67879,223.74545,76,100,40
224.34546,224.41212,76,70,40
224.41212,224.47879,77,70,40
224.47879,224.54546,76,71,40
224.54546,224.61212,77,72,40
224.61212,224.67879,76,73,40
224.67879,224.74545,77,74,40
224.74545,224.81212,76,75,40
224.81212,224.87878,75,76,40
224.87878,224.94545,76,77,40
226.14546,226.21213,67,125,40
226.21213,226.2788,69,123,40
226.2788,226.34546,67,120,40
226.34546,226.41212,69,117,40
226.41212,226.47879,67,114,40
226.47879,226.54546,69,111,40
226.54546,226.61212,67,108,40
226.61212,226.67879,66,105,40
226.67879,226.74545,67,103,40
226.74545,227.14128,66,100,40
227.94545,228.01212,78,100,40
228.01212,228.07878,79,100,40
228.07878,228.14546,78,100,40
228.14546,228.21213,79,100,40
228.21213,228.2788,78,100,40
228.2788,228.34546,79,100,40
228.34546,228.41212,78,100,40
228.41212,228.47879,77,100,40
228.47879,228.54546,78,100,40
229.14546,229.21213,78,70,40
229.21213,229.2788,79,70,40
229.2788,229.34546,78,71,40
229.34546,229.41212,79,72,40
229.41212,229.47879,78,73,40
229.47879,229.54546,79,74,40
229.54546,229.61212,78,75,40
229.61212,229.67879,77,76,40
229.67879,229.74545,78,77,40
230.94545,231.01212,69,125,40
231.01212,231.07878,71,123,40
231.07878,231.14546,69,120,40
231.14546,231.21213,71,117,40
231.21213,231.2788,69,114,40
231.2788,231.34546,71,111,40
231.34546,231.41212,69,108,40
231.41212,231.47879,68,105,40
231.47879,231.54546,69,103,40
231.54546,231.94128,68,100,40
232.74545,232.81212,80,100,40
232.81212,232.87878,81,100,40
232.87878,232.94545,80,100,40
232.94545,233.01212,81,100,40
233.01212,233.07878,80,100,40
233.07878,233.14546,81,100,40
233.14546,233.21213,80,100,40
233.21213,233.2788,79,100,40
233.2788,233.34546,80,100,40
233.94545,234.01212,80,100,40
234.01212,234.07878,81,100,40
234.07878,234.14546,80,100,40
234.14546,234.21213,81,100,40
234.21213,234.2788,80,100,40
234.2788,234.34546,81,100,40
234.34546,234.41212,80,100,40
234.41212,234.47879,79,100,40
234.47879,234.54546,80,100,40
238.74545,238.84546,85,50,40
238.84546,238.94545,84,50,40
238.94545,239.04546,82,50,40
239.04546,239.14546,80,50,40
239.14546,239.24545,82,50,40
239.24545,239.34546,84,50,40
239.34546,239.49129,85,50,40
239.54546,239.69128,87,50,40
239.74545,239.89128,88,50,40
239.94545,240.0913,82,50,40
240.14546,240.29129,83,50,40
240.34546,240.49129,85,50,40
240.54546,240.69128,78,50,40
240.74545,240.89128,80,50,40
240.94545,241.0913,82,50,40
241.14546,241.54129,83,50,40
243.54546,243.64546,83,50,40
243.64546,243.74545,82,50,40
243.74545,243.84546,80,50,40
243.84546,243.94545,78,50,40
243.94545,244.04546,80,50,40
244.04546,244.14546,82,50,40
244.14546,244.29129,83,50,40
244.34546,244.49129,85,50,40
244.54546,244.69128,86,50,40
244.74545,244.89128,80,50,40
244.94545,245.0913,81,50,40
245.14546,245.29129,83,50,40
245.34546,245.49129,76,50,40
245.54546,245.69128,78,50,40
245.74545,245.89128,80,50,40
245.94545,246.3413,81,50,40
248.34546,248.44545,81,50,40
248.44545,248.54546,80,50,40
248.54546,248.64546,78,50,40
248.64546,248.74545,76,50,40
248.74545,248.84546,78,50,40
248.84546,248.94545,80,50,40
248.94545,249.0913,81,50,40
249.14546,249.29129,83,50,40
249.34546,249.49129,84,50,40
249.54546,249.69128,78,60,40
249.74545,249.89128,79,67,40
249.94545,250.0913,81,74,40
250.14546,250.29129,62,82,40
250.34546,250.49129,64,89,40
250.54546,250.69128,66,97,40
250.74545,250.84546,67,110,40
250.84546,250.94545,66,110,40
250.94545,251.04546,64,110,40
251.04546,251.14546,62,110,40
251.14546,251.24545,64,110,40
251.24545,251.34546,66,110,40
251.34546,251.44545,67,110,40
251.44545,251.54546,66,110,40
251.54546,251.64546,64,110,40
251.64546,251.74545,62,110,40
251.74545,251.84546,64,110,40
251.84546,251.94545,66,110,40
251.94545,252.0913,67,110,40
252.14546,252.29129,71,110,40
252.34546,252.49129,74,110,40
252.54546,252.69128,79,110,40
252.74545,252.89128,83,110,40
252.94545,253.09529,86,110,40
253.15094,253.55762,91,110,40
255.0256,255.10254,85,110,40
255.10254,255.47232,86,110,40
255.47754,255.59732,62,70,40
255.60254,255.69836,64,70,40
255.70253,255.79837,66,70,40
255.80254,255.90254,67,70,40
255.90254,256.00253,66,70,40
256.00253,256.10254,64,70,40
256.10254,256.20255,62,70,40
256.20255,256.30252,64,70,40
256.30252,256.40253,66,70,40
256.40253,256.50253,67,70,40
256.50253,256.60254,66,70,40
256.60254,256.70255,64,70,40
256.70255,256.80252,62,70,40
256.80252,256.90253,64,70,40
256.90253,257.00253,66,70,40
257.00253,257.14838,67,70,40
257.20255,257.34836,71,70,40
257.40253,257.54837,74,70,40
257.60254,257.74838,79,70,40
257.80252,257.95236,83,70,40
258.00803,258.16428,86,70,40
258.2223,258.6464,91,70,40
260.136,260.21292,90,110,40
260.21292,261.00876,91,110,40
264.81293,264.95877,67,70,40
265.01294,265.15875,67,70,40
265.21292,265.41293,67,70,40
265.41293,265.6129,69,70,40
265.6129,265.80875,71,70,40
265.81293,266.60876,72,70,40
266.6129,266.81293,71,70,40
266.81293,267.00876,76,70,40
267.01294,267.80875,74,70,40
267.81293,268.01294,72,70,40
268.01294,268.20877,71,70,40
268.21292,268.41293,71,70,40
268.41293,268.6129,68,70,40
268.6129,268.80875,69,70,40
268.81293,269.01294,69,70,40
269.01294,269.21292,71,70,40
269.21292,269.40875,72,70,40
269.41293,269.6129,71,70,40
269.6129,269.75876,67,70,40
269.81293,269.95877,74,70,40
270.01294,270.20877,74,70,40
270.21292,270.31293,76,70,40
270.31293,270.41293,74,70,40
270.41293,270.51294,72,70,40
270.51294,270.60876,71,70,40
270.6129,270.81293,71,70,40
270.81293,271.01294,68,70,40
271.01294,271.20877,69,70,40
271.21292,271.41293,69,70,40
271.41293,271.6129,71,70,40
271.6129,271.80875,72,70,40
271.81293,272.01294,71,70,40
272.01294,272.15875,67,70,40
272.21292,272.35876,74,70,40
272.41293,272.60876,74,70,40
272.6129,272.71292,76,70,40
272.71292,272.81293,74,70,40
272.81293,272.91293,72,70,40
272.91293,273.00876,71,70,40
273.01294,273.21292,71,70,40
273.21292,273.35876,68,71,40
273.41293,273.55875,69,72,40
273.6129,273.81293,71,73,40
273.81293,273.95877,68,74,40
274.01294,274.15875,69,75,40
274.21292,274.31293,69,76,40
274.31293,274.38376,81,76,40
274.41293,274.48376,79,77,40
274.51294,274.58377,78,77,40
274.6129,274.68375,76,78,40
274.71292,274.78375,74,78,40
274.81293,274.88376,73,79,40
274.91293,274.98376,71,79,40
275.01294,275.08377,69,80,40
275.1129,275.18375,67,80,40
275.21292,275.28375,66,81,40
275.31293,275.38376,64,82,40
275.41293,275.80875,62,82,40
276.21292,276.40875,73,86,40
276.41293,276.47958,73,87,40
276.47958,276.54626,74,88,40
276.54626,276.6129,73,88,40
276.6129,276.71292,74,88,40
276.71292,276.78375,81,89,40
276.81293,276.88376,79,89,40
276.91293,276.98376,78,90,40
277.01294,277.08377,76,90,40
277.1129,277.18375,74,91,40
277.21292,277.28375,73,91,40
277.31293,277.38376,71,92,40
277.41293,277.48376,69,92,40
277.51294,277.58377,67,93,40
277.6129,277.68375,66,94,40
277.71292,277.78375,64,94,40
277.81293,278.20877,62,95,40
278.6129,278.80875,85,99,40
278.81293,278.87958,85,100,40
278.87958,278.94626,86,100,40
278.94626,279.01294,85,100,40
279.01294,279.1129,86,100,40
279.1129,279.18375,81,100,40
279.21292,279.28375,79,100,40
279.31293,279.38376,78,100,40
279.41293,279.48376,76,100,40
279.51294,279.58377,74,100,40
279.6129,279.68375,73,100,40
279.71292,279.78375,71,100,40
279.81293,279.88376,69,100,40
279.91293,279.98376,67,100,40
280.01294,280.08377,66,100,40
280.1129,280.18375,64,100,40
280.21292,280.31293,62,125,40
280.31293,280.41293,61,100,40
280.41293,280.51294,59,100,40
280.51294,280.6129,57,100,40
280.6129,280.71292,59,100,40
280.71292,280.81293,61,100,40
280.81293,280.91293,62,125,40
280.91293,281.01294,61,100,40
281.01294,281.1129,59,100,40
281.1129,281.21292,57,100,40
281.21292,281.31293,59,100,40
281.31293,281.41293,61,100,40
281.41293,281.80875,62,100,40
283.89865,284.7513,78,70,40
284.75577,284.91202,75,70,40
284.97006,285.1263,71,70,40
288.87006,289.72275,83,70,40
289.7272,289.88345,80,70,40
289.9415,290.09775,76,70,40
291.35577,292.5516,84,70,40
292.5558,293.1516,85,70,40
293.15576,293.35162,86,70,40
293.35577,293.5516,89,70,40
293.5558,293.75162,86,70,40
293.75577,293.9516,83,70,40
293.95578,294.1516,79,70,40
294.15576,294.35162,83,70,40
294.35577,294.75162,84,70,40
294.75577,294.9516,83,70,40
294.95578,295.5516,82,70,40
295.5558,295.75162,83,70,40
295.75577,295.9516,86,70,40
295.95578,296.1516,83,70,40
296.15576,296.35162,80,70,40
296.35577,296.5516,76,70,40
296.5558,296.75162,80,70,40
296.75577,297.1516,81,70,40
297.15576,297.35162,79,70,40
297.35577,297.9016,78,70,40
297.90576,297.95578,81,77,40
297.95578,298.1516,79,78,40
298.15576,298.35162,78,81,40
298.35577,298.5516,79,84,40
298.5558,299.35162,81,86,40
299.35577,299.5516,84,98,40
299.5558,299.7016,81,100,40
299.70578,299.75577,83,70,40
299.75577,299.9516,81,70,40
299.95578,300.10162,79,70,40
300.15576,300.3056,79,70,40
300.36127,300.42975,79,70,40
300.42975,300.49823,81,70,40
300.49823,300.56674,79,70,40
300.56674,300.723,81,70,40
300.781,300.94427,78,70,40
301.0049,301.11218,79,100,40
301.11685,301.22412,62,100,40
301.11685,301.22412,70,100,40
301.2288,301.3221,62,100,40
301.2288,301.3221,70,100,40
301.32617,301.41953,62,100,40
301.32617,301.41953,70,100,40
301.42358,301.51694,62,100,40
301.42358,301.51694,70,100,40
301.521,301.61432,62,100,40
301.521,301.61432,70,100,40
301.61838,301.71173,62,100,40
301.61838,301.71173,70,100,40
301.7158,301.80914,62,100,40
301.7158,301.80914,70,100,40
301.8132,301.90652,62,100,40
301.8132,301.90652,70,100,40
301.91058,302.00394,62,100,40
301.91058,302.00394,70,100,40
302.008,302.10135,62,100,40
302.008,302.10135,70,100,40
302.1054,302.19876,62,100,40
302.1054,302.19876,70,100,40
302.20282,302.29614,62,100,40
302.20282,302.29614,72,100,40
302.3002,302.39355,62,100,40
302.3002,302.39355,72,100,40
302.3976,302.49097,62,100,40
302.3976,302.49097,72,100,40
302.49503,302.58835,62,100,40
302.49503,302.58835,72,100,40
302.5924,302.68576,62,100,40
302.5924,302.68576,72,100,40
302.68982,302.78317,62,100,40
302.68982,302.78317,72,100,40
302.78723,302.88055,62,100,40
302.78723,302.88055,72,100,40
302.8846,302.97797,62,100,40
302.8846,302.97797,72,100,40
302.98203,303.07538,62,100,40
302.98203,303.07538,72,100,40
303.07944,303.17276,62,100,40
303.07944,303.17276,72,100,40
303.17682,303.27017,62,100,40
303.17682,303.27017,72,100,40
303.27423,303.36758,62,100,40
303.27423,303.36758,72,100,40
303.37164,303.46497,62,125,40
303.37164,303.46497,69,125,40
303.46902,303.56238,62,100,40
303.46902,303.56238,69,100,40
303.56644,303.6598,62,100,40
303.56644,303.6598,69,100,40
303.66385,303.7572,62,100,40
303.66385,303.7572,69,100,40
303.76126,303.85458,66,100,40
303.85864,303.952,66,100,40
303.95605,304.0494,62,125,40
303.95605,304.0494,69,125,40
304.05347,304.1468,62,100,40
304.05347,304.1468,69,100,40
304.15085,304.2442,62,100,40
304.15085,304.2442,69,100,40
304.24826,304.3416,62,100,40
304.24826,304.3416,69,100,40
304.34567,304.439,66,100,40
304.44305,304.5364,66,100,40
304.54047,304.63788,62,100,40
304.63788,304.73526,67,100,40
304.73526,304.83267,70,100,40
304.83267,304.93008,74,100,40
304.93008,305.02747,79,100,40
305.02747,305.12488,82,100,40
305.12488,305.26694,86,100,40
305.31967,305.46173,86,100,40
305.5145,305.65652,86,100,40
305.7093,306.48447,86,100,40
306.48853,306.63055,82,100,40
306.68332,306.82538,79,100,40
306.82944,306.8781,81,100,40
306.8781,307.06888,79,100,40
307.07294,307.6533,78,100,40
307.65735,307.84808,78,100,40
307.85214,308.0429,79,100,40
308.04697,308.4325,81,125,40
308.43655,308.62732,78,100,40
308.63138,309.01694,74,125,40
309.02097,309.21173,72,100,40
309.2158,309.60135,70,70,40
310.3846,310.77017,82,70,40
310.77423,310.87164,79,70,40
310.87164,310.96902,75,70,40
310.96902,311.35458,74,70,40
312.7223,313.10782,87,70,40
313.11188,313.2093,84,70,40
313.2093,313.3067,80,70,40
313.3067,313.69223,79,70,40
313.8911,314.03314,78,70,40
314.0859,314.22797,79,70,40
314.2807,314.42276,78,70,40
314.47552,314.61755,79,70,40
314.67032,314.81238,78,70,40
314.86514,315.00717,79,70,40
315.05994,315.202,78,70,40
315.25473,315.3968,79,70,40
315.44955,315.59158,78,70,40
315.64435,315.7864,79,70,40
315.83914,315.9812,78,70,40
316.03397,316.176,79,70,40
316.22876,316.8091,78,71,40
316.81317,317.39352,82,80,40
317.39758,317.97797,81,87,40
317.98203,318.56238,90,94,40
318.56644,318.76123,90,100,40
318.76123,318.9033,91,98,40
318.95602,319.09808,91,95,40
319.15085,319.34564,91,92,40
319.34564,319.4877,88,90,40
319.54044,319.68628,88,87,40
319.69046,319.74045,90,85,40
319.74045,319.94046,88,84,40
319.94046,320.08627,86,82,40
320.14044,320.2863,86,79,40
320.29044,320.34045,90,77,40
320.34045,320.54593,88,76,40
320.54593,320.69577,86,74,40
320.7514,320.90765,86,71,40
320.9657,321.07285,86,100,40
321.07285,321.1755,79,70,40
323.77997,324.1758,83,70,40
324.18,324.3258,81,70,40
324.37997,324.52582,79,70,40
324.58,324.77997,78,70,40
324.77997,324.9258,79,70,40
324.97998,325.12582,76,70,40
325.18,325.37997,74,70,40
325.37997,325.52582,76,70,40
325.58,325.7258,72,70,40
325.77997,325.97998,71,100,40
325.97998,326.12582,74,70,40
326.18,326.3258,67,70,40
328.58,328.9758,83,95,40
328.97998,329.12582,81,70,40
329.18,329.3258,79,70,40
329.37997,329.58,78,70,40
329.58,329.7258,79,70,40
329.77997,329.9258,76,70,40
329.97998,330.18,74,70,40
330.18,330.3258,76,70,40
330.37997,330.52582,72,70,40
330.58,330.7258,71,70,40
330.77997,330.9258,67,70,40
330.97998,331.37582,83,95,40
331.37997,331.52582,81,70,40
331.58,331.7258,79,70,40
331.77997,331.97998,78,70,40
331.97998,332.12582,79,70,40
332.18,332.3258,76,70,40
332.37997,332.58,74,70,40
332.58,332.7258,76,70,40
332.77997,332.9258,72,70,40
332.97998,333.12582,71,70,40
333.18,333.3258,67,70,40
333.37997,333.77582,71,110,40
333.77997,333.9258,69,110,40
333.97998,334.12582,67,110,40
334.18,334.37997,66,110,40
334.37997,334.52582,67,110,40
334.58,334.7258,64,110,40
334.77997,334.97998,62,110,40
334.97998,335.12582,64,110,40
335.18,335.3258,61,110,40
335.37997,335.47998,62,110,40
335.47998,335.58,66,110,40
335.58,335.68,67,110,40
335.68,335.77997,69,110,40
335.77997,335.87997,71,110,40
335.87997,335.97998,72,110,40
335.97998,336.08,74,110,40
336.08,336.18,73,110,40
336.18,336.27997,76,110,40
336.27997,336.37997,74,110,40
336.37997,336.47998,72,110,40
336.47998,336.58,71,110,40
336.58,336.64664,69,110,40
336.64664,336.71332,71,110,40
336.71332,336.77997,69,110,40
336.77997,336.84665,71,110,40
336.84665,336.9133,69,110,40
336.9133,336.97998,71,110,40
336.97998,337.04666,69,110,40
337.04666,337.1133,71,110,40
337.1133,337.18,69,110,40
337.18,337.24664,71,110,40
337.24664,337.31332,69,110,40
337.31332,337.37997,71,110,40
337.37997,337.44666,69,110,40
337.44666,337.5133,71,110,40
337.5133,337.58,69,110,40
337.58,337.6758,67,100,40
337.68,337.77582,69,78,40
337.77997,337.9258,67,70,40
337.97998,338.12582,67,70,40
338.18,338.3258,67,70,40
338.37997,338.52582,67,70,40
338.58,338.7258,69,95,40
338.77997,338.9258,67,70,40
338.97998,339.12582,65,70,40
339.18,339.3258,67,95,40
339.37997,339.52582,65,70,40
339.58,339.7258,64,70,40
339.77997,339.9258,65,95,40
339.97998,340.12582,64,70,40
340.18,340.3258,62,70,40
340.37997,340.52582,64,95,40
340.58,340.7258,62,70,40
340.77997,340.9258,60,70,40
340.97998,341.12582,59,70,40
341.18,341.3258,60,70,40
341.37997,341.52582,59,70,40
341.58,341.7258,60,70,40
341.77997,341.9258,59,70,40
341.97998,342.12582,60,70,40
342.18,342.3258,59,70,40
342.37997,342.52582,60,70,40
342.58,342.9758,59,70,40
345.58,345.64664,78,70,40
345.64664,345.71332,79,70,40
345.71332,345.77997,78,70,40
345.77997,345.84665,79,70,40
345.84665,345.9133,78,70,40
345.9133,345.97998,79,70,40
345.97998,346.04666,78,70,40
346.04666,346.1133,76,70,40
346.1133,346.18,78,70,40
346.18,346.5758,79,70,40
346.77997,346.84665,78,70,40
346.84665,346.9133,79,70,40
346.9133,346.97998,78,70,40
346.97998,347.04666,79,70,40
347.04666,347.1133,78,70,40
347.1133,347.18,79,70,40
347.18,347.24664,78,70,40
347.24664,347.31332,76,70,40
347.31332,347.37997,78,70,40
347.37997,347.52582,79,70,40
347.58,347.7258,60,70,40
347.77997,347.9258,59,70,40
347.97998,348.12582,60,70,40
348.18,348.3258,59,70,40
348.37997,348.52582,60,70,40
348.58,348.7258,59,70,40
348.77997,348.9258,60,70,40
348.97998,349.12582,59,70,40
349.18,349.3258,60,70,40
349.37997,349.52582,59,70,40
349.58,349.7258,60,70,40
349.77997,349.9258,59,70,40
349.97998,350.12582,74,73,40
350.18,350.3258,71,76,40
350.37997,350.52582,74,80,40
350.58,350.7258,71,83,40
350.77997,350.9298,74,87,40
350.98547,351.13528,71,90,40
351.19095,351.3472,86,93,40
351.4052,351.56146,83,97,40
351.6195,351.78036,86,100,40
351.8401,352.00836,83,104,40
352.07086,352.25314,86,107,40
352.32086,352.81564,83,110,40
353.07086,353.6646,62,70,40
353.07086,353.6646,74,70,40
353.97086,354.86462,62,70,40
353.97086,354.86462,71,70,40
357.87088,358.01462,67,1,40
0.0,0.09583333,67,70,0
0.0,0.09583333,55,70,0
0.1,0.19583334,54,70,0
0.2,0.29583332,52,70,0
0.3,0.39583334,50,70,0
0.4,0.49583334,52,70,0
0.5,0.59583336,54,70,0
0.6,0.6958333,55,70,0
0.7,0.79583335,54,70,0
0.8,0.8958333,52,70,0
0.9,0.99583334,50,70,0
1.0,1.0958333,52,70,0
1.1,1.1958333,54,70,0
1.2,1.3958334,55,70,0
1.4,1.5958333,59,70,0
1.6,1.7958333,62,70,0
1.8,1.9958333,67,70,0
2.0,2.201198,71,70,0
2.205479,2.4153001,74,70,0
2.63405,2.843871,79,78,0
2.8483355,3.0581567,83,86,0
3.29339,3.5193512,78,102,0
3.29339,3.5193512,81,102,0
3.524159,3.7501204,86,110,0
3.754928,3.9808893,74,110,0
3.754928,3.9808893,79,110,0
3.754928,3.9808893,83,110,0
3.985697,4.2116585,74,110,0
3.985697,4.2116585,78,110,0
3.985697,4.2116585,81,110,0
4.897235,4.993068,50,70,0
4.997235,5.093068,52,70,0
5.097235,5.1930685,54,70,0
5.197235,5.2930684,55,70,0
5.297235,5.3930683,54,70,0
5.397235,5.493068,52,70,0
5.497235,5.593068,50,70,0
5.597235,5.6930685,52,70,0
5.697235,5.7930684,54,70,0
5.797235,5.8930683,55,70,0
5.897235,5.993068,54,70,0
5.997235,6.093068,52,70,0
6.097235,6.1930685,50,70,0
6.197235,6.2930684,52,70,0
6.297235,6.3930683,54,70,0
6.397235,6.593068,55,70,0
6.597235,6.7930684,59,70,0
6.797235,6.993068,62,70,0
6.997235,7.1930685,67,70,0
7.197235,7.3930683,71,70,0
7.397235,7.593068,74,70,0
7.797235,7.993068,79,78,0
7.997235,8.1930685,83,86,0
8.411521,8.621342,78,102,0
8.411521,8.621342,81,102,0
8.625806,8.835628,86,110,0
8.840092,9.049912,74,110,0
8.840092,9.049912,83,110,0
9.054377,9.264198,71,110,0
9.054377,9.264198,79,110,0
9.982948,10.078781,67,70,0
10.082948,10.1787815,72,70,0
10.182948,10.978782,72,70,0
10.982948,11.1787815,71,70,0
10.182948,11.378781,67,70,0
11.182948,11.378781,76,70,0
11.382948,12.1787815,74,70,0
12.182948,12.378781,72,70,0
11.382948,12.578781,67,70,0
12.382948,12.578781,71,70,0
12.582948,12.778781,71,70,0
12.782948,12.978782,68,70,0
12.582948,13.1787815,67,70,0
12.982948,13.1787815,69,70,0
13.182948,13.378781,69,70,0
13.382948,13.578781,71,70,0
13.182948,13.778781,66,70,0
13.582948,13.778781,72,70,0
13.782948,13.978782,71,70,0
13.982948,14.1787815,67,70,0
15.182948,15.378781,55,70,0
15.382948,15.578781,67,70,0
15.582948,16.178782,67,70,0
16.382948,16.578781,55,70,0
16.582949,16.778782,67,70,0
16.782948,17.378782,67,70,0
17.582949,17.778782,55,70,0
17.582949,17.778782,57,70,0
17.782948,17.97878,64,70,0
18.182947,18.378782,54,70,0
18.182947,18.378782,57,70,0
18.382948,18.578781,62,70,0
18.782948,18.97878,59,70,0
18.982948,19.178782,59,70,0
19.182947,19.378782,59,70,0
19.382948,19.47878,60,70,0
19.482948,19.578781,59,70,0
19.582949,19.678782,57,70,0
19.682947,19.778782,55,70,0
19.982948,20.178782,55,70,0
19.982948,20.178782,57,70,0
20.182947,20.378782,64,70,0
20.582949,20.778782,54,70,0
20.582949,20.778782,57,70,0
20.782948,20.97878,62,70,0
21.182947,21.378782,59,70,0
21.382948,21.578781,59,70,0
21.582949,21.778782,59,70,0
21.782948,21.878782,60,70,0
21.882948,21.97878,59,70,0
21.982948,22.078781,57,70,0
22.082949,22.178782,55,70,0
22.382948,22.578781,55,70,0
22.382948,22.578781,57,70,0
22.582949,22.784145,64,70,0
22.993906,23.203728,55,70,0
22.993906,23.203728,57,70,0
23.20819,23.418013,64,70,0
23.52962,23.725452,57,70,0
23.62962,23.825453,62,70,0
23.72962,23.925453,57,70,0
23.82962,24.025454,66,70,0
23.929619,24.125454,62,70,0
24.02962,24.225452,69,70,0
24.12962,24.325453,66,70,0
24.22962,24.425453,74,70,0
24.32962,24.525454,69,70,0
24.429619,24.625454,78,70,0
24.52962,24.625454,74,70,0
24.62962,25.025454,81,70,0
25.929619,26.125454,57,70,0
26.02962,26.225452,61,70,0
26.12962,26.325453,57,70,0
26.22962,26.425453,64,70,0
26.32962,26.525454,61,70,0
26.429619,26.625454,67,70,0
26.52962,26.725452,64,70,0
26.62962,26.825453,73,70,0
26.72962,26.925453,67,70,0
26.82962,27.025454,76,70,0
26.929619,27.025454,73,70,0
27.02962,27.425453,79,70,0
28.32962,28.525454,62,70,0
28.429619,28.625454,66,70,0
28.52962,28.725452,62,70,0
28.62962,28.825453,69,70,0
28.72962,28.925453,66,70,0
28.82962,29.025454,72,70,0
28.929619,29.125454,69,70,0
29.02962,29.225452,74,70,0
29.12962,29.325453,72,70,0
29.22962,29.425453,78,70,0
29.32962,29.425453,74,70,0
29.429619,29.825453,81,70,0
30.429619,30.625454,62,70,0
30.62962,30.825453,64,70,0
30.82962,31.025454,71,70,0
30.929619,31.125454,76,70,0
31.02962,31.225452,79,70,0
31.12962,31.325453,83,70,0
31.22962,31.625454,71,70,0
32.02962,32.225452,76,70,0
32.12962,32.325455,80,70,0
32.229618,32.425453,83,70,0
32.32962,32.52545,88,70,0
32.42962,32.825455,76,70,0
33.82962,34.02545,80,70,0
34.02962,34.158787,80,70,0
34.096287,34.225452,81,70,0
34.162952,34.225452,80,70,0
34.229618,34.325455,81,70,0
34.32962,34.425453,88,70,0
34.42962,34.52545,86,70,0
34.52962,34.625454,85,70,0
34.62962,34.725452,83,70,0
34.729618,34.825455,81,70,0
34.82962,34.925453,80,70,0
34.92962,35.02545,78,70,0
35.02962,35.125454,76,70,0
35.12962,35.225452,74,70,0
35.229618,35.325455,73,70,0
35.32962,35.425453,71,70,0
35.42962,35.825455,69,70,0
36.229618,36.425453,80,70,0
36.42962,36.55879,80,70,0
36.49629,36.625454,81,70,0
36.562954,36.625454,80,70,0
36.62962,36.725452,81,70,0
36.729618,36.825455,88,70,0
36.82962,36.925453,86,70,0
36.92962,37.02545,85,70,0
37.02962,37.125454,83,70,0
37.12962,37.225452,81,70,0
37.229618,37.325455,80,70,0
37.32962,37.425453,78,70,0
37.42962,37.52545,76,70,0
37.52962,37.625454,74,70,0
37.62962,37.725452,73,70,0
37.729618,37.825455,71,70,0
37.82962,37.925453,69,100,0
37.92962,38.02545,76,100,0
38.02962,38.125454,74,100,0
38.12962,38.225452,73,100,0
38.229618,38.325455,71,100,0
38.32962,38.425453,69,100,0
38.42962,38.52545,68,100,0
38.52962,38.625454,66,100,0
38.62962,38.725452,64,100,0
38.729618,38.825455,62,100,0
38.82962,38.925453,61,100,0
38.92962,39.02545,59,100,0
39.02962,39.125454,57,120,0
39.12962,39.225452,56,120,0
39.229618,39.325455,54,120,0
39.32962,39.425453,52,120,0
39.42962,39.52545,54,120,0
39.52962,39.625454,56,120,0
39.62962,39.725452,57,120,0
39.729618,39.825455,56,120,0
39.82962,39.925453,54,120,0
39.92962,40.02545,52,120,0
40.02962,40.125454,54,120,0
40.12962,40.225452,56,120,0
40.229618,40.625454,57,120,0
41.42962,42.068012,49,50,0
41.42962,42.068012,54,50,0
41.42962,42.068012,58,50,0
42.072475,42.71087,50,50,0
42.072475,42.71087,54,50,0
42.072475,42.71087,59,50,0
42.715332,43.353725,54,50,0
42.715332,43.353725,58,50,0
42.715332,43.353725,61,50,0
44.001045,44.096878,62,50,0
44.101048,44.19688,61,50,0
44.201046,44.29688,59,50,0
44.301044,44.396877,57,50,0
44.401047,44.49688,59,50,0
44.501045,44.596878,61,50,0
44.601048,44.69688,62,50,0
44.701046,44.79688,61,50,0
44.801044,44.896877,59,50,0
44.901047,44.99688,57,50,0
45.001045,45.096878,59,50,0
45.101048,45.19688,61,50,0
45.201046,45.596878,62,50,0
46.401047,47.039436,54,50,0
46.401047,47.039436,59,50,0
46.401047,47.039436,63,50,0
47.043903,47.682293,55,50,0
47.043903,47.682293,59,50,0
47.043903,47.682293,64,50,0
47.68676,48.110867,59,50,0
47.68676,48.110867,63,50,0
47.68676,48.110867,66,50,0
48.972473,49.068306,67,50,0
49.07247,49.168304,66,50,0
49.17247,49.268307,64,50,0
49.272472,49.368305,62,50,0
49.37247,49.468304,64,50,0
49.472473,49.568306,66,50,0
49.57247,49.668304,67,50,0
49.67247,49.768307,66,50,0
49.772472,49.868305,64,50,0
49.87247,49.968304,62,50,0
49.972473,50.068306,64,50,0
50.07247,50.168304,66,50,0
50.17247,50.568306,67,70,0
51.17247,51.568306,65,70,0
51.57247,51.768307,64,70,0
51.772472,51.968304,62,70,0
51.972473,52.368305,60,70,0
52.37247,52.768307,64,70,0
52.772472,52.968304,62,70,0
52.972473,53.168304,60,70,0
53.17247,53.568306,59,70,0
53.57247,53.968304,62,70,0
53.972473,54.168304,61,70,0
54.17247,54.368305,59,70,0
54.37247,54.768307,57,70,0
54.772472,55.168304,60,70,0
55.17247,55.368305,59,70,0
55.37247,55.568306,57,70,0
55.57247,55.968304,55,70,0
55.972473,56.368305,59,70,0
56.37247,56.568306,57,70,0
56.57247,56.768307,55,70,0
56.772472,56.968304,54,70,0
56.972473,57.168304,52,70,0
57.17247,57.368305,50,70,0
57.37247,57.568306,47,70,0
57.57247,57.768307,52,70,0
57.772472,57.968304,55,70,0
57.972473,58.168304,59,70,0
58.17247,58.368305,64,70,0
58.37247,58.568306,67,70,0
58.772472,58.968304,66,70,0
58.972473,59.168304,69,70,0
59.37247,59.582294,67,70,0
59.586758,59.796577,69,70,0
59.6939,59.796577,81,70,0
59.801044,60.585945,81,110,0
60.590004,60.78075,77,110,0
60.78481,60.975555,74,110,0
60.930912,61.024258,76,110,0
60.979614,61.17036,74,110,0
61.17442,61.754776,73,110,0
61.758835,61.94958,73,110,0
61.953636,62.144386,74,110,0
62.14844,62.533993,76,110,0
62.53805,62.728798,73,110,0
62.732857,63.11841,69,110,0
63.122467,63.313213,67,110,0
63.317272,63.50802,65,100,0
63.414677,63.605423,57,100,0
63.512077,63.702824,65,100,0
63.60948,63.80023,57,100,0
63.706882,63.89763,65,100,0
63.804287,63.995033,57,100,0
63.901688,64.09244,65,100,0
63.999092,64.189835,57,100,0
64.0965,64.28724,67,100,0
64.19389,64.38464,57,100,0
64.2913,64.48205,64,100,0
64.3887,64.579445,57,100,0
64.4861,64.67685,65,125,0
64.5835,64.774254,57,100,0
64.68091,64.87166,65,100,0
64.77831,64.969055,57,100,0
64.87571,65.06646,65,100,0
64.973114,65.163864,57,100,0
65.07052,65.26126,65,100,0
65.16792,65.358665,57,100,0
65.26532,65.45607,65,100,0
65.362724,65.553474,57,100,0
65.46013,65.65087,65,100,0
65.55753,65.748276,57,100,0
65.65493,65.84568,67,100,0
65.752335,65.943085,57,100,0
65.84974,66.04048,67,100,0
65.94714,66.137886,57,100,0
66.04454,66.23529,67,100,0
66.141945,66.332695,57,100,0
66.23935,66.43009,67,100,0
66.336754,66.5275,57,100,0
66.43415,66.6249,67,100,0
66.531555,66.722305,57,100,0
66.62896,66.8197,67,100,0
66.726364,66.91711,57,100,0
66.82376,67.01451,64,125,0
66.921165,67.111916,57,100,0
67.01857,67.20931,64,100,0
67.11597,67.30672,57,100,0
67.21337,67.40412,61,100,0
67.310776,67.50152,57,100,0
67.40818,67.59892,64,125,0
67.50558,67.69633,57,100,0
67.60298,67.79373,64,100,0
67.700386,67.89113,57,100,0
67.79779,67.98853,69,100,0
67.89519,67.98853,81,100,0
67.99259,68.37814,81,85,0
68.3822,68.57295,77,85,0
68.47961,68.67035,74,85,0
68.57701,68.96256,72,85,0
70.33025,70.715805,86,85,0
70.719864,70.91061,82,85,0
70.81727,71.00801,79,85,0
70.914665,71.30022,77,85,0
72.667915,72.85866,82,70,0
72.76531,72.95606,70,70,0
72.86272,73.05347,82,70,0
72.96012,73.15086,70,70,0
73.057526,73.24827,82,70,0
73.15492,73.34567,70,70,0
73.25233,73.44308,82,70,0
73.34973,73.540474,70,70,0
73.447136,73.63788,82,70,0
73.54453,73.73528,70,70,0
73.64194,73.83269,82,70,0
73.73934,73.930084,70,70,0
73.83675,74.02749,82,70,0
73.93414,74.12489,70,70,0
74.03155,74.2223,82,70,0
74.12895,74.319695,70,70,0
74.22636,74.4171,82,70,0
74.32375,74.5145,70,70,0
74.42116,74.61191,82,70,0
74.51856,74.709305,70,70,0
74.61597,74.80671,82,70,0
74.71336,74.90411,70,70,0
74.81077,75.00152,82,70,0
74.90817,75.098915,70,70,0
75.00557,75.19632,82,70,0
75.102974,75.293724,70,71,0
75.20038,75.39112,82,72,0
75.29778,75.488525,70,74,0
75.39518,75.58593,82,75,0
75.492584,75.683334,70,76,0
75.58999,75.78073,80,78,0
75.68739,75.878136,68,79,0
75.78479,75.97554,80,80,0
75.882195,76.072945,68,82,0
75.9796,76.17034,80,83,0
76.077,76.267746,68,84,0
76.1744,76.36515,81,86,0
76.271805,76.462555,69,87,0
76.36921,76.55995,81,88,0
76.46661,76.65736,69,90,0
76.56401,76.75476,81,91,0
76.661415,76.852165,69,92,0
76.75882,76.94956,79,94,0
76.856224,77.04697,67,95,0
76.95362,77.14437,79,96,0
77.051025,77.241776,67,98,0
77.14843,77.33917,79,99,0
77.24583,77.33917,67,100,0
77.53804,77.72878,66,98,0
77.63544,77.82619,71,96,0
77.73284,77.92359,74,95,0
77.830246,78.02099,78,94,0
78.12245,78.3132,73,90,0
78.21986,78.4106,74,88,0
78.31726,78.508,76,87,0
78.41466,78.508,74,86,0
78.71207,78.9079,73,82,0
78.812065,79.01052,74,80,0
78.91206,79.11326,76,79,0
79.0148,79.216,74,78,0
79.32302,79.532845,68,74,0
79.43016,79.639984,69,72,0
79.53731,79.74713,71,71,0
79.64445,79.74713,69,70,0
79.751595,79.947426,69,70,0
79.85159,80.047424,62,70,0
80.55159,80.74743,74,70,0
80.65159,80.84743,78,70,0
80.751595,80.947426,81,70,0
80.95159,81.34743,81,70,0
81.35159,81.547424,79,70,0
81.751595,81.947426,69,70,0
81.85159,82.047424,76,70,0
81.95159,82.14742,79,70,0
82.15159,82.547424,79,70,0
82.55159,82.74743,78,70,0
85.35159,85.547424,69,70,0
85.45159,85.64742,74,70,0
85.55159,85.74743,78,70,0
85.65159,85.74743,81,70,0
85.751595,86.14742,81,70,0
86.15159,86.34743,79,70,0
86.55159,86.74743,69,70,0
86.65159,86.84743,73,70,0
86.751595,86.947426,76,70,0
86.85159,86.947426,79,70,0
86.95159,87.34743,79,70,0
87.35159,87.547424,78,70,0
89.751595,90.34743,57,74,0
90.35159,90.547424,58,81,0
90.55159,90.947426,59,84,0
90.95159,91.14742,61,89,0
91.15159,91.547424,62,91,0
91.55159,91.74743,64,96,0
91.751595,91.947426,66,98,0
92.15159,92.547424,78,110,0
92.55159,92.74743,76,110,0
92.751595,92.947426,74,110,0
92.95159,93.14742,73,110,0
93.15159,93.34743,74,110,0
93.35159,93.55279,71,110,0
93.55707,93.75827,69,110,0
93.76255,93.972374,71,110,0
93.97684,94.19605,68,110,0
94.200714,94.60849,69,110,0
95.41266,95.50849,69,110,0
95.51266,95.60849,71,110,0
95.612656,95.70849,73,110,0
95.712654,95.80849,74,110,0
95.81265,95.90849,76,110,0
95.91266,96.00849,78,110,0
96.01266,96.10849,79,110,0
96.112656,96.20849,78,110,0
96.212654,96.30849,79,110,0
96.31265,96.40849,81,100,0
96.41266,96.50849,83,90,0
96.51266,96.60849,85,80,0
96.612656,97.00849,86,70,0
99.612656,99.74182,85,70,0
99.67932,99.80849,86,70,0
99.74599,99.87515,85,70,0
99.81265,99.941826,86,70,0
99.879326,100.00849,85,70,0
99.94599,100.07516,86,70,0
100.01266,100.14182,85,70,0
100.07932,100.20849,83,70,0
100.14599,100.20849,85,70,0
100.212654,100.60849,86,70,0
100.81265,100.941826,85,70,0
100.879326,101.00849,86,70,0
100.94599,101.07516,85,70,0
101.01266,101.14182,86,70,0
101.07932,101.20849,85,70,0
101.14599,101.275154,86,70,0
101.212654,101.34182,85,70,0
101.27932,101.40849,83,70,0
101.34599,101.40849,85,70,0
101.41266,101.60849,86,70,0
101.612656,101.80849,74,70,0
101.612656,101.80849,62,70,0
101.81265,102.00849,74,70,0
101.81265,102.00849,62,70,0
102.01266,102.20849,74,70,0
102.01266,102.20849,62,70,0
102.212654,102.40849,76,100,0
102.212654,102.40849,64,100,0
102.41266,102.60849,74,70,0
102.41266,102.60849,62,70,0
102.612656,102.80849,72,70,0
102.612656,102.80849,60,70,0
102.81265,103.00849,74,100,0
102.81265,103.00849,62,100,0
103.01266,103.20849,72,70,0
103.01266,103.20849,60,70,0
103.212654,103.40849,71,70,0
103.212654,103.40849,59,70,0
103.41266,103.60849,72,100,0
103.41266,103.60849,60,100,0
103.612656,103.80849,71,70,0
103.612656,103.80849,59,70,0
103.81265,104.00849,69,70,0
103.81265,104.00849,57,70,0
104.01266,104.20849,71,100,0
104.01266,104.20849,59,100,0
104.212654,104.40849,69,70,0
104.212654,104.40849,57,70,0
104.41266,104.60849,67,70,0
104.41266,104.60849,55,70,0
104.612656,104.80849,66,70,0
104.612656,104.80849,54,70,0
104.81265,105.00849,67,70,0
104.81265,105.00849,55,70,0
105.01266,105.20849,66,70,0
105.01266,105.20849,54,70,0
105.212654,105.40849,67,70,0
105.212654,105.40849,55,70,0
105.41266,105.60849,66,70,0
105.41266,105.60849,54,70,0
105.612656,105.80849,67,70,0
105.612656,105.80849,55,70,0
105.81265,106.00849,66,70,0
105.81265,106.00849,54,70,0
106.01266,106.20849,67,70,0
106.01266,106.20849,55,70,0
106.212654,106.60849,66,70,0
106.212654,106.60849,54,70,0
106.81265,106.941826,85,70,0
106.879326,107.00849,86,70,0
106.94599,107.07516,85,70,0
107.01266,107.14182,86,70,0
107.07932,107.20849,85,70,0
107.14599,107.275154,86,70,0
107.212654,107.34182,85,70,0
107.27932,107.40849,83,70,0
107.34599,107.40849,85,70,0
107.41266,107.80849,86,70,0
108.01266,108.14182,85,70,0
108.07932,108.20849,86,70,0
108.14599,108.275154,85,70,0
108.212654,108.34182,86,70,0
108.27932,108.40849,85,70,0
108.34599,108.47516,86,70,0
108.41266,108.541824,85,70,0
108.479324,108.60849,83,70,0
108.54599,108.60849,85,70,0
108.612656,108.80849,86,70,0
108.712654,108.90849,62,71,0
108.81265,109.00849,61,72,0
108.91266,109.10849,62,74,0
109.01266,109.20849,61,75,0
109.112656,109.30849,62,77,0
109.212654,109.40849,60,78,0
109.31265,109.50849,62,80,0
109.41266,109.60849,60,81,0
109.51266,109.70849,62,83,0
109.612656,109.80849,60,84,0
109.712654,109.90849,62,86,0
109.81265,110.00849,59,87,0
109.91266,110.10849,62,89,0
110.01266,110.20849,59,90,0
110.112656,110.30849,62,92,0
110.212654,110.40849,59,93,0
110.31265,110.50849,62,95,0
110.41266,110.60849,57,96,0
110.51266,110.70849,62,97,0
110.612656,110.80849,57,99,0
110.712654,110.90849,62,100,0
110.81265,111.00849,57,90,0
110.91266,111.00849,62,80,0
111.01266,111.10849,55,70,0
111.112656,111.20849,54,70,0
111.212654,111.30849,52,70,0
111.31265,111.40849,50,70,0
111.41266,111.50849,52,70,0
111.51266,111.60849,54,70,0
111.612656,111.70849,55,70,0
111.712654,111.80849,54,70,0
111.81265,111.90849,52,70,0
111.91266,112.00849,50,70,0
112.01266,112.10849,52,70,0
112.112656,112.20849,54,70,0
112.212654,112.40849,55,70,0
112.41266,112.60849,59,70,0
112.612656,112.80849,62,70,0
112.81265,113.00849,67,70,0
113.01266,113.21385,71,70,0
113.21813,113.419334,74,70,0
113.6291,113.83029,79,78,0
113.83457,114.035774,83,86,0
114.25433,114.46416,78,102,0
114.25433,114.46416,81,102,0
114.46862,114.678444,86,110,0
114.68291,114.89273,74,110,0
114.68291,114.89273,79,110,0
114.68291,114.89273,83,110,0
114.897194,115.10702,74,110,0
114.897194,115.10702,78,110,0
114.897194,115.10702,81,110,0
115.70077,115.82056,50,70,0
115.82577,115.9216,52,70,0
115.925766,116.0216,54,70,0
116.025764,116.1216,55,70,0
116.12576,116.221596,54,70,0
116.22576,116.321594,52,70,0
116.32577,116.4216,50,70,0
116.425766,116.5216,52,70,0
116.525764,116.6216,54,70,0
116.62576,116.721596,55,70,0
116.72576,116.821594,54,70,0
116.82577,116.9216,52,70,0
116.925766,117.0216,50,70,0
117.025764,117.1216,52,70,0
117.12576,117.221596,54,70,0
117.22576,117.4216,55,70,0
117.425766,117.6216,59,70,0
117.62576,117.821594,62,70,0
117.82577,118.0216,67,70,0
118.025764,118.22696,71,70,0
118.23125,118.44106,74,70,0
118.65981,118.86964,79,78,0
118.8741,119.08392,83,86,0
119.30267,119.51249,78,102,0
119.30267,119.51249,81,102,0
119.51695,119.726776,86,110,0
119.73124,119.94106,74,110,0
119.73124,119.94106,83,110,0
119.945526,120.15535,71,110,0
119.945526,120.15535,79,110,0
120.8741,120.96993,67,70,0
120.9741,121.06993,72,70,0
121.0741,121.869934,72,70,0
121.8741,122.06993,71,70,0
121.0741,122.26993,67,70,0
122.0741,122.26993,76,70,0
122.2741,123.06993,74,70,0
123.0741,123.26993,72,70,0
122.2741,123.46993,67,70,0
123.2741,123.46993,71,70,0
123.4741,123.66993,71,70,0
123.674095,123.869934,68,70,0
123.4741,124.06993,67,70,0
123.8741,124.06993,69,70,0
124.0741,124.26993,69,70,0
124.2741,124.46993,71,70,0
124.0741,124.66993,66,70,0
124.4741,124.66993,72,70,0
124.674095,124.869934,71,70,0
124.8741,125.06993,67,70,0
126.0741,126.26993,55,70,0
126.2741,126.46993,67,70,0
126.4741,127.06993,67,70,0
127.2741,127.46993,55,70,0
127.4741,127.66993,67,70,0
127.674095,128.26993,67,70,0
128.4741,128.66994,55,70,0
128.4741,128.66994,57,70,0
128.6741,128.86993,64,70,0
129.0741,129.26993,54,70,0
129.0741,129.26993,57,70,0
129.2741,129.46992,62,70,0
129.6741,129.86993,59,70,0
129.8741,130.06993,59,70,0
130.0741,130.26993,59,70,0
130.2741,130.36993,60,70,0
130.3741,130.46992,59,70,0
130.4741,130.56993,57,70,0
130.5741,130.66994,55,70,0
130.8741,131.06993,55,70,0
130.8741,131.06993,57,70,0
131.0741,131.26993,64,70,0
131.4741,131.66994,54,70,0
131.4741,131.66994,57,70,0
131.6741,131.86993,62,70,0
132.0741,132.26993,59,70,0
132.2741,132.46992,59,70,0
132.4741,132.66994,59,70,0
132.6741,132.76993,60,70,0
132.7741,132.86993,59,70,0
132.8741,132.96992,57,70,0
132.9741,133.06993,55,70,0
133.27957,133.48077,55,70,0
133.27957,133.48077,57,70,0
133.48506,133.68625,64,70,0
133.89601,134.10583,55,70,0
133.89601,134.10583,57,70,0
134.1103,134.32011,64,70,0
134.42459,134.62042,57,70,0
134.52458,134.72041,62,70,0
134.62459,134.82042,57,70,0
134.72458,134.92043,66,70,0
134.82458,135.02042,62,70,0
134.92459,135.12042,69,70,0
135.02458,135.22041,66,70,0
135.12459,135.32042,74,70,0
135.22458,135.42043,69,70,0
135.32458,135.52042,78,70,0
135.42459,135.52042,74,70,0
135.52458,135.92043,81,70,0
136.82458,137.02042,57,70,0
136.92459,137.12042,61,70,0
137.02458,137.22041,57,70,0
137.12459,137.32042,64,70,0
137.22458,137.42043,61,70,0
137.32458,137.52042,67,70,0
137.42459,137.62042,64,70,0
137.52458,137.72041,73,70,0
137.62459,137.82042,67,70,0
137.72458,137.92043,76,70,0
137.82458,137.92043,73,70,0
137.92459,138.32042,79,70,0
139.22458,139.42043,62,70,0
139.32458,139.52042,66,70,0
139.42459,139.62042,62,70,0
139.52458,139.72041,69,70,0
139.62459,139.82042,66,70,0
139.72458,139.92043,72,70,0
139.82458,140.02042,69,70,0
139.92459,140.12042,74,70,0
140.02458,140.22041,72,70,0
140.12459,140.32042,78,70,0
140.22458,140.32042,74,70,0
140.32458,140.72041,81,70,0
141.32458,141.52042,62,70,0
141.52458,141.72041,64,70,0
141.72458,141.92043,71,70,0
141.82458,142.02042,76,70,0
141.92459,142.12042,79,70,0
142.02458,142.22041,83,70,0
142.12459,142.52042,71,70,0
142.92459,143.12042,76,70,0
143.02458,143.22041,80,70,0
143.12459,143.32042,83,70,0
143.22458,143.42043,88,70,0
143.32458,143.72041,76,70,0
144.72458,144.92043,80,70,0
144.92459,145.05376,80,70,0
144.99126,145.12042,81,70,0
145.05792,145.12042,80,70,0
145.12459,145.22041,81,70,0
145.22458,145.32042,88,70,0
145.32458,145.42043,86,70,0
145.42459,145.52042,85,70,0
145.52458,145.62042,83,70,0
145.62459,145.72041,81,70,0
145.72458,145.82042,80,70,0
145.82458,145.92043,78,70,0
145.92459,146.02042,76,70,0
146.02458,146.12042,74,70,0
146.12459,146.22041,73,70,0
146.22458,146.32042,71,70,0
146.32458,146.72041,69,70,0
147.12459,147.32042,80,70,0
147.32458,147.45375,80,70,0
147.39125,147.52042,81,70,0
147.45792,147.52042,80,70,0
147.52458,147.62042,81,70,0
147.62459,147.72041,88,70,0
147.72458,147.82042,86,70,0
147.82458,147.92043,85,70,0
147.92459,148.02042,83,70,0
148.02458,148.12042,81,70,0
148.12459,148.22041,80,70,0
148.22458,148.32042,78,70,0
148.32458,148.42043,76,70,0
148.42459,148.52042,74,70,0
148.52458,148.62042,73,70,0
148.62459,148.72041,71,70,0
148.72458,148.82042,69,100,0
148.82458,148.92043,76,100,0
148.92459,149.02042,74,100,0
149.02458,149.12042,73,100,0
149.12459,149.22041,71,100,0
149.22458,149.32042,69,100,0
149.32458,149.42043,68,100,0
149.42459,149.52042,66,100,0
149.52458,149.62042,64,100,0
149.62459,149.72041,62,100,0
149.72458,149.82042,61,100,0
149.82458,149.92043,59,100,0
149.92459,150.02042,57,120,0
150.02458,150.12042,56,120,0
150.12459,150.22041,54,120,0
150.22458,150.32042,52,120,0
150.32458,150.42043,54,120,0
150.42459,150.52042,56,120,0
150.52458,150.62042,57,120,0
150.62459,150.72041,56,120,0
150.72458,150.82042,54,120,0
150.82458,150.92043,52,120,0
150.92459,151.02042,54,120,0
151.02458,151.12042,56,120,0
151.12459,151.52042,57,120,0
152.32458,152.96298,49,50,0
152.32458,152.96298,54,50,0
152.32458,152.96298,58,50,0
152.96744,153.60583,50,50,0
152.96744,153.60583,54,50,0
152.96744,153.60583,59,50,0
153.6103,154.24869,54,50,0
153.6103,154.24869,58,50,0
153.6103,154.24869,61,50,0
154.89601,154.99185,62,50,0
154.99602,155.09184,61,50,0
155.09601,155.19185,59,50,0
155.19601,155.29184,57,50,0
155.296,155.39185,59,50,0
155.39601,155.49185,61,50,0
155.49602,155.59184,62,50,0
155.59601,155.69185,61,50,0
155.69601,155.79184,59,50,0
155.796,155.89185,57,50,0
155.89601,155.99185,59,50,0
155.99602,156.09184,61,50,0
156.09601,156.49185,62,50,0
157.296,157.9344,54,50,0
157.296,157.9344,59,50,0
157.296,157.9344,63,50,0
157.93887,158.57726,55,50,0
157.93887,158.57726,59,50,0
157.93887,158.57726,64,50,0
158.58173,159.00583,59,50,0
158.58173,159.00583,63,50,0
158.58173,159.00583,66,50,0
159.86743,159.96327,67,50,0
159.96744,160.06328,66,50,0
160.06744,160.16327,64,50,0
160.16743,160.26328,62,50,0
160.26744,160.36327,64,50,0
160.36743,160.46327,66,50,0
160.46744,160.56328,67,50,0
160.56744,160.66327,66,50,0
160.66743,160.76328,64,50,0
160.76744,160.86327,62,50,0
160.86743,160.96327,64,50,0
160.96744,161.06328,66,50,0
161.06744,161.46327,67,70,0
162.06744,162.46327,65,70,0
162.46744,162.66327,64,70,0
162.66743,162.86327,62,70,0
162.86743,163.26328,60,70,0
163.26744,163.66327,64,70,0
163.66743,163.86327,62,70,0
163.86743,164.06328,60,70,0
164.06744,164.46327,59,70,0
164.46744,164.86327,62,70,0
164.86743,165.06328,61,70,0
165.06744,165.26328,59,70,0
165.26744,165.66327,57,70,0
165.66743,166.06328,60,70,0
166.06744,166.26328,59,70,0
166.26744,166.46327,57,70,0
166.46744,166.86327,55,70,0
166.86743,167.26328,59,70,0
167.26744,167.46327,57,70,0
167.46744,167.66327,55,70,0
167.66743,167.86327,54,70,0
167.86743,168.06328,52,70,0
168.06744,168.26328,50,70,0
168.26744,168.46327,47,70,0
168.46744,168.66327,52,70,0
168.66743,168.86327,55,70,0
168.86743,169.06328,59,70,0
169.06744,169.26328,64,70,0
169.26744,169.46327,67,70,0
169.66743,169.86327,66,70,0
169.86743,170.06863,69,70,0
170.2784,170.48822,67,70,0
170.49268,170.7025,69,70,0
170.59982,170.7025,81,70,0
170.70697,171.5016,81,110,0
171.50566,171.69641,77,110,0
171.70047,171.89122,74,110,0
171.84657,171.93993,76,110,0
171.89528,172.08603,74,110,0
172.09009,172.67044,73,110,0
172.6745,172.86525,73,110,0
172.86931,173.06004,74,110,0
173.0641,173.44966,76,110,0
173.45372,173.64447,73,110,0
173.64853,174.03407,69,110,0
174.03813,174.22888,67,110,0
174.23294,174.42369,65,100,0
174.33034,174.52109,57,100,0
174.42773,174.61848,65,100,0
174.52515,174.7159,57,100,0
174.62254,174.8133,65,100,0
174.71996,174.91069,57,100,0
174.81735,175.0081,65,100,0
174.91475,175.1055,57,100,0
175.01216,175.2029,67,100,0
175.10956,175.30031,57,100,0
175.20695,175.3977,64,100,0
175.30437,175.49512,57,100,0
175.40176,175.59251,65,125,0
175.49918,175.68991,57,100,0
175.59657,175.78732,65,100,0
175.69397,175.88472,57,100,0
175.79138,175.98212,65,100,0
175.88878,176.07953,57,100,0
175.98618,176.17693,65,100,0
176.08359,176.27434,57,100,0
176.18098,176.37173,65,100,0
176.2784,176.46913,57,100,0
176.3758,176.56654,65,100,0
176.47319,176.66394,57,100,0
176.5706,176.76134,67,100,0
176.668,176.85875,57,100,0
176.7654,176.95615,67,100,0
176.86281,177.05356,57,100,0
176.9602,177.15096,67,100,0
177.0576,177.24835,57,100,0
177.15501,177.34576,67,100,0
177.25241,177.44316,57,100,0
177.34982,177.54056,67,100,0
177.44722,177.63797,57,100,0
177.54462,177.73537,67,100,0
177.64203,177.83276,57,100,0
177.73943,177.93018,64,125,0
177.83682,178.02757,57,100,0
177.93423,178.12498,64,100,0
178.03163,178.22238,57,100,0
178.12904,178.31978,61,100,0
178.22644,178.41719,57,100,0
178.32384,178.51459,64,125,0
178.42125,178.61198,57,100,0
178.51865,178.7094,64,100,0
178.61604,178.8068,57,100,0
178.71346,178.9042,69,100,0
178.81085,178.9042,81,100,0
178.90826,179.29381,81,85,0
179.29787,179.48862,77,85,0
179.39526,179.58601,74,85,0
179.49268,179.87822,72,85,0
181.24591,181.63147,86,85,0
181.63553,181.82628,82,85,0
181.73293,181.92368,79,85,0
181.83034,182.21588,77,85,0
183.58357,183.77432,82,70,0
183.68098,183.87172,70,70,0
183.77838,183.96913,82,70,0
183.87578,184.06653,70,70,0
183.97319,184.16394,82,70,0
184.07059,184.26134,70,70,0
184.168,184.35873,82,70,0
184.2654,184.45615,70,70,0
184.3628,184.55354,82,70,0
184.4602,184.65094,70,70,0
184.5576,184.74835,82,70,0
184.655,184.84575,70,70,0
184.75241,184.94315,82,70,0
184.84981,185.04056,70,70,0
184.9472,185.13795,82,70,0
185.04462,185.23537,70,70,0
185.14201,185.33276,82,70,0
185.23943,185.43016,70,70,0
185.33682,185.52757,82,70,0
185.43422,185.62497,70,70,0
185.53163,185.72237,82,70,0
185.62903,185.81978,70,70,0
185.72643,185.91718,82,70,0
185.82384,186.01459,70,70,0
185.92123,186.11198,82,70,0
186.01865,186.20938,70,71,0
186.11604,186.3068,82,72,0
186.21344,186.40419,70,74,0
186.31085,186.50159,82,75,0
186.40825,186.599,70,76,0
186.50565,186.6964,80,78,0
186.60306,186.79381,68,79,0
186.70045,186.8912,80,80,0
186.79787,186.9886,68,82,0
186.89526,187.08601,80,83,0
186.99266,187.18341,68,84,0
187.09007,187.2808,81,86,0
187.18747,187.37822,69,87,0
187.28487,187.47562,81,88,0
187.38228,187.57301,69,90,0
187.47968,187.67043,81,91,0
187.57707,187.76782,69,92,0
187.67448,187.86523,79,94,0
187.77188,187.96263,67,95,0
187.8693,188.06003,79,96,0
187.96669,188.15744,67,98,0
188.06409,188.25484,79,99,0
188.1615,188.25484,67,100,0
188.4537,188.64445,66,98,0
188.5511,188.74185,71,96,0
188.64851,188.83925,74,95,0
188.74591,188.93666,78,94,0
189.03812,189.22887,73,90,0
189.13551,189.32875,74,88,0
189.23293,189.42876,76,87,0
189.33292,189.42876,74,86,0
189.63292,189.82875,73,82,0
189.73293,189.92876,74,80,0
189.83292,190.02875,76,79,0
189.93292,190.13138,74,78,0
190.2384,190.4396,68,74,0
190.34114,190.54655,69,72,0
190.44388,190.6537,71,71,0
190.55103,190.6537,69,70,0
190.65817,190.86798,69,70,0
190.7653,190.96828,62,70,0
191.47246,191.66829,74,70,0
191.57245,191.76828,78,70,0
191.67245,191.86829,81,70,0
191.87245,192.26828,81,70,0
192.27245,192.46828,79,70,0
192.67245,192.86829,69,70,0
192.77245,192.96828,76,70,0
192.87245,193.06828,79,70,0
193.07245,193.46828,79,70,0
193.47246,193.66829,78,70,0
196.27245,196.46828,69,70,0
196.37245,196.56828,74,70,0
196.47246,196.66829,78,70,0
196.57245,196.66829,81,70,0
196.67245,197.06828,81,70,0
197.07245,197.26828,79,70,0
197.47246,197.66829,69,70,0
197.57245,197.76828,73,70,0
197.67245,197.86829,76,70,0
197.77245,197.86829,79,70,0
197.87245,198.26828,79,70,0
198.27245,198.46828,78,70,0
200.67245,201.26828,57,74,0
201.27245,201.46828,58,81,0
201.47246,201.86829,59,84,0
201.87245,202.06828,61,89,0
202.07245,202.46828,62,91,0
202.47246,202.66829,64,96,0
202.67245,202.86829,66,98,0
203.07245,203.46828,78,110,0
203.47246,203.66829,76,110,0
203.67245,203.86829,74,110,0
203.87245,204.06828,73,110,0
204.07245,204.26828,74,110,0
204.27245,204.47365,71,110,0
204.47794,204.67912,69,110,0
204.68341,204.89323,71,110,0
204.89769,205.11691,68,110,0
205.12158,205.54129,69,110,0
206.34546,206.44128,69,110,0
206.44545,206.54129,71,110,0
206.54546,206.64128,73,110,0
206.64546,206.74129,74,110,0
206.74545,206.8413,76,110,0
206.84546,206.94128,78,110,0
206.94545,207.04129,79,110,0
207.04546,207.14128,78,110,0
207.14546,207.24129,79,110,0
207.24545,207.3413,81,100,0
207.34546,207.44128,83,90,0
207.44545,207.54129,85,80,0
207.54546,207.94128,86,70,0
210.54546,210.67462,85,70,0
210.61212,210.74129,86,70,0
210.67879,210.80795,85,70,0
210.74545,210.87462,86,70,0
210.81212,210.94128,85,70,0
210.87878,211.00795,86,70,0
210.94545,211.07462,85,70,0
211.01212,211.14128,83,70,0
211.07878,211.14128,85,70,0
211.14546,211.54129,86,70,0
211.74545,211.87462,85,70,0
211.81212,211.94128,86,70,0
211.87878,212.00795,85,70,0
211.94545,212.07462,86,70,0
212.01212,212.14128,85,70,0
212.07878,212.20796,86,70,0
212.14546,212.27463,85,70,0
212.21213,212.3413,83,70,0
212.2788,212.3413,85,70,0
212.34546,212.54129,86,70,0
212.54546,212.74129,74,70,0
212.54546,212.74129,62,70,0
212.74545,212.94128,74,70,0
212.74545,212.94128,62,70,0
212.94545,213.14128,74,70,0
212.94545,213.14128,62,70,0
213.14546,213.3413,76,100,0
213.14546,213.3413,64,100,0
213.34546,213.54129,74,70,0
213.34546,213.54129,62,70,0
213.54546,213.74129,72,70,0
213.54546,213.74129,60,70,0
213.74545,213.94128,74,100,0
213.74545,213.94128,62,100,0
213.94545,214.14128,72,70,0
213.94545,214.14128,60,70,0
214.14546,214.3413,71,70,0
214.14546,214.3413,59,70,0
214.34546,214.54129,72,100,0
214.34546,214.54129,60,100,0
214.54546,214.74129,71,70,0
214.54546,214.74129,59,70,0
214.74545,214.94128,69,70,0
214.74545,214.94128,57,70,0
214.94545,215.14128,71,100,0
214.94545,215.14128,59,100,0
215.14546,215.3413,69,70,0
215.14546,215.3413,57,70,0
215.34546,215.54129,67,70,0
215.34546,215.54129,55,70,0
215.54546,215.74129,66,70,0
215.54546,215.74129,54,70,0
215.74545,215.94128,67,70,0
215.74545,215.94128,55,70,0
215.94545,216.14128,66,70,0
215.94545,216.14128,54,70,0
216.14546,216.3413,67,70,0
216.14546,216.3413,55,70,0
216.34546,216.54129,66,70,0
216.34546,216.54129,54,70,0
216.54546,216.74129,67,70,0
216.54546,216.74129,55,70,0
216.74545,216.94128,66,70,0
216.74545,216.94128,54,70,0
216.94545,217.14128,67,70,0
216.94545,217.14128,55,70,0
217.14546,217.54129,66,70,0
217.14546,217.54129,54,70,0
217.74545,217.87462,85,70,0
217.81212,217.94128,86,70,0
217.87878,218.00795,85,70,0
217.94545,218.07462,86,70,0
218.01212,218.14128,85,70,0
218.07878,218.20796,86,70,0
218.14546,218.27463,85,70,0
218.21213,218.3413,83,70,0
218.2788,218.3413,85,70,0
218.34546,218.74129,86,70,0
218.94545,219.07462,85,70,0
219.01212,219.14128,86,70,0
219.07878,219.20796,85,70,0
219.14546,219.27463,86,70,0
219.21213,219.3413,85,70,0
219.2788,219.40796,86,70,0
219.34546,219.47462,85,70,0
219.41212,219.54129,83,70,0
219.47879,219.54129,85,70,0
219.54546,219.74129,86,70,0
219.64546,219.8413,62,71,0
219.74545,219.94128,61,72,0
219.84546,220.04129,62,74,0
219.94545,220.14128,61,75,0
220.04546,220.24129,62,77,0
220.14546,220.3413,60,78,0
220.24545,220.44128,62,80,0
220.34546,220.54129,60,81,0
220.44545,220.64128,62,83,0
220.54546,220.74129,60,84,0
220.64546,220.8413,62,86,0
220.74545,220.94128,59,87,0
220.84546,221.04129,62,88,0
220.94545,221.14128,59,89,0
221.04546,221.24129,62,90,0
221.14546,221.3413,59,92,0
221.24545,221.44128,62,93,0
221.34546,221.54129,57,94,0
221.44545,221.64128,62,95,0
221.54546,221.74129,56,97,0
221.64546,221.8413,62,98,0
221.74545,221.94128,57,99,0
221.84546,221.94128,62,100,0
221.94545,222.3413,56,100,0
222.54546,222.67462,77,125,0
222.61212,222.74129,79,123,0
222.67879,222.80795,77,120,0
222.74545,222.87462,79,117,0
222.81212,222.94128,77,114,0
222.87878,223.00795,79,111,0
222.94545,223.07462,77,108,0
223.01212,223.14128,76,105,0
223.07878,223.14128,77,103,0
223.14546,223.54129,76,100,0
223.74545,223.87462,77,125,0
223.81212,223.94128,79,123,0
223.87878,224.00795,77,120,0
223.94545,224.07462,79,117,0
224.01212,224.14128,77,114,0
224.07878,224.20796,79,111,0
224.14546,224.27463,77,108,0
224.21213,224.3413,76,105,0
224.2788,224.3413,77,103,0
224.34546,224.54129,76,70,0
224.44545,224.64128,64,71,0
224.54546,224.74129,63,72,0
224.64546,224.8413,64,74,0
224.74545,224.94128,63,75,0
224.84546,225.04129,64,76,0
224.94545,225.14128,62,78,0
225.04546,225.24129,64,79,0
225.14546,225.3413,62,80,0
225.24545,225.44128,64,82,0
225.34546,225.54129,62,83,0
225.44545,225.64128,64,84,0
225.54546,225.74129,60,86,0
225.64546,225.8413,64,87,0
225.74545,225.94128,60,88,0
225.84546,226.04129,64,90,0
225.94545,226.14128,60,91,0
226.04546,226.24129,64,92,0
226.14546,226.3413,59,94,0
226.24545,226.44128,64,95,0
226.34546,226.54129,58,96,0
226.44545,226.64128,64,98,0
226.54546,226.74129,59,99,0
226.64546,226.74129,64,100,0
226.74545,227.14128,58,100,0
227.34546,227.47462,79,125,0
227.41212,227.54129,81,123,0
227.47879,227.60796,79,120,0
227.54546,227.67462,81,117,0
227.61212,227.74129,79,114,0
227.67879,227.80795,81,111,0
227.74545,227.87462,79,108,0
227.81212,227.94128,78,105,0
227.87878,227.94128,79,103,0
227.94545,228.3413,78,100,0
228.54546,228.67462,79,125,0
228.61212,228.74129,81,122,0
228.67879,228.80795,79,119,0
228.74545,228.87462,81,116,0
228.81212,228.94128,79,113,0
228.87878,229.00795,81,109,0
228.94545,229.07462,79,106,0
229.01212,229.14128,78,103,0
229.07878,229.14128,79,100,0
229.14546,229.3413,78,70,0
229.24545,229.44128,66,71,0
229.34546,229.54129,65,72,0
229.44545,229.64128,66,74,0
229.54546,229.74129,65,75,0
229.64546,229.8413,66,76,0
229.74545,229.94128,64,78,0
229.84546,230.04129,66,79,0
229.94545,230.14128,64,80,0
230.04546,230.24129,66,82,0
230.14546,230.3413,64,83,0
230.24545,230.44128,66,84,0
230.34546,230.54129,62,86,0
230.44545,230.64128,66,87,0
230.54546,230.74129,62,88,0
230.64546,230.8413,66,90,0
230.74545,230.94128,62,91,0
230.84546,231.04129,66,92,0
230.94545,231.14128,61,94,0
231.04546,231.24129,66,95,0
231.14546,231.3413,61,96,0
231.24545,231.44128,66,98,0
231.34546,231.54129,61,99,0
231.44545,231.54129,66,100,0
231.54546,231.94128,60,100,0
232.14546,232.27463,81,125,0
232.21213,232.3413,83,123,0
232.2788,232.40796,81,120,0
232.34546,232.47462,83,117,0
232.41212,232.54129,81,114,0
232.47879,232.60796,83,111,0
232.54546,232.67462,81,108,0
232.61212,232.74129,80,105,0
232.67879,232.74129,81,103,0
232.74545,233.14128,80,100,0
233.34546,233.47462,81,125,0
233.41212,233.54129,83,122,0
233.47879,233.60796,81,119,0
233.54546,233.67462,83,116,0
233.61212,233.74129,81,113,0
233.67879,233.80795,83,109,0
233.74545,233.87462,81,106,0
233.81212,233.94128,80,103,0
233.87878,233.94128,81,100,0
233.94545,234.14128,80,100,0
234.14546,234.3413,56,50,0
234.14546,234.3413,60,50,0
234.14546,234.3413,63,50,0
234.14546,234.3413,66,50,0
234.34546,234.54129,56,50,0
234.34546,234.54129,60,50,0
234.34546,234.54129,63,50,0
234.34546,234.54129,66,50,0
234.54546,234.74129,56,50,0
234.54546,234.74129,60,50,0
234.54546,234.74129,63,50,0
234.54546,234.74129,66,50,0
234.74545,234.94128,56,50,0
234.74545,234.94128,60,50,0
234.74545,234.94128,63,50,0
234.74545,234.94128,66,50,0
234.94545,235.14128,56,50,0
234.94545,235.14128,60,50,0
234.94545,235.14128,63,50,0
234.94545,235.14128,66,50,0
235.14546,235.3413,56,50,0
235.14546,235.3413,60,50,0
235.14546,235.3413,63,50,0
235.14546,235.3413,66,50,0
235.34546,235.54129,56,50,0
235.34546,235.54129,60,50,0
235.34546,235.54129,63,50,0
235.34546,235.54129,66,50,0
235.54546,235.74129,56,50,0
235.54546,235.74129,60,50,0
235.54546,235.74129,63,50,0
235.54546,235.74129,66,50,0
235.74545,235.94128,56,50,0
235.74545,235.94128,60,50,0
235.74545,235.94128,63,50,0
235.74545,235.94128,66,50,0
235.94545,236.14128,56,50,0
235.94545,236.14128,60,50,0
235.94545,236.14128,63,50,0
235.94545,236.14128,66,50,0
236.14546,236.3413,56,50,0
236.14546,236.3413,60,50,0
236.14546,236.3413,63,50,0
236.14546,236.3413,66,50,0
236.34546,236.54129,56,50,0
236.34546,236.54129,61,50,0
236.34546,236.54129,64,50,0
236.54546,236.74129,56,50,0
236.54546,236.74129,61,50,0
236.54546,236.74129,64,50,0
236.74545,236.94128,56,50,0
236.74545,236.94128,61,50,0
236.74545,236.94128,64,50,0
236.94545,237.14128,56,50,0
236.94545,237.14128,61,50,0
236.94545,237.14128,64,50,0
237.14546,237.3413,56,50,0
237.14546,237.3413,61,50,0
237.14546,237.3413,64,50,0
237.34546,237.54129,56,50,0
237.34546,237.54129,61,50,0
237.34546,237.54129,64,50,0
237.54546,237.74129,56,50,0
237.54546,237.74129,61,50,0
237.54546,237.74129,64,50,0
237.74545,237.94128,56,50,0
237.74545,237.94128,61,50,0
237.74545,237.94128,64,50,0
237.94545,238.14128,56,50,0
237.94545,238.14128,61,50,0
237.94545,238.14128,64,50,0
238.14546,238.3413,56,50,0
238.14546,238.3413,61,50,0
238.14546,238.3413,64,50,0
238.34546,238.54129,56,50,0
238.34546,238.54129,61,50,0
238.34546,238.54129,64,50,0
238.54546,238.74129,61,50,0
238.54546,238.74129,64,50,0
238.74545,238.94128,64,50,0
238.94545,239.14128,64,50,0
238.94545,239.14128,68,50,0
239.14546,239.3413,64,50,0
239.14546,239.3413,68,50,0
239.34546,239.54129,64,50,0
239.34546,239.54129,67,50,0
239.54546,239.74129,64,50,0
239.54546,239.74129,67,50,0
239.74545,239.94128,64,50,0
239.74545,239.94128,67,50,0
239.94545,240.14128,64,50,0
239.94545,240.14128,66,50,0
240.14546,240.3413,64,50,0
240.14546,240.3413,66,50,0
240.34546,240.54129,64,50,0
240.34546,240.54129,66,50,0
240.54546,240.74129,64,50,0
240.54546,240.74129,66,50,0
240.74545,240.94128,64,50,0
240.74545,240.94128,66,50,0
240.94545,241.14128,64,50,0
240.94545,241.14128,66,50,0
241.14546,241.3413,62,50,0
241.14546,241.3413,66,50,0
241.34546,241.54129,62,50,0
241.34546,241.54129,66,50,0
241.54546,241.74129,62,50,0
241.54546,241.74129,66,50,0
241.74545,241.94128,62,50,0
241.74545,241.94128,66,50,0
241.94545,242.14128,62,50,0
241.94545,242.14128,66,50,0
242.14546,242.3413,62,50,0
242.14546,242.3413,66,50,0
242.34546,242.54129,62,50,0
242.34546,242.54129,66,50,0
242.54546,242.74129,62,50,0
242.54546,242.74129,66,50,0
242.74545,242.94128,62,50,0
242.74545,242.94128,66,50,0
242.94545,243.14128,62,50,0
242.94545,243.14128,66,50,0
243.14546,243.3413,62,50,0
243.14546,243.3413,66,50,0
243.34546,243.54129,62,50,0
243.34546,243.54129,66,50,0
243.54546,243.74129,62,50,0
243.54546,243.74129,66,50,0
243.74545,243.94128,62,50,0
243.74545,243.94128,66,50,0
243.94545,244.14128,62,50,0
243.94545,244.14128,66,50,0
244.14546,244.3413,62,50,0
244.14546,244.3413,65,50,0
244.34546,244.54129,62,50,0
244.34546,244.54129,65,50,0
244.54546,244.74129,62,50,0
244.54546,244.74129,65,50,0
244.74545,244.94128,62,50,0
244.74545,244.94128,64,50,0
244.94545,245.14128,62,50,0
244.94545,245.14128,64,50,0
245.14546,245.3413,62,50,0
245.14546,245.3413,64,50,0
245.34546,245.54129,62,50,0
245.34546,245.54129,64,50,0
245.54546,245.74129,62,50,0
245.54546,245.74129,64,50,0
245.74545,245.94128,62,50,0
245.74545,245.94128,64,50,0
245.94545,246.14128,60,50,0
245.94545,246.14128,64,50,0
246.14546,246.3413,64,50,0
246.14546,246.3413,72,50,0
246.34546,246.54129,64,50,0
246.34546,246.54129,72,50,0
246.54546,246.74129,64,50,0
246.54546,246.74129,72,50,0
246.74545,246.94128,64,50,0
246.74545,246.94128,72,50,0
246.94545,247.14128,64,50,0
246.94545,247.14128,72,50,0
247.14546,247.3413,64,50,0
247.14546,247.3413,72,50,0
247.34546,247.54129,64,50,0
247.34546,247.54129,72,50,0
247.54546,247.74129,64,50,0
247.54546,247.74129,72,50,0
247.74545,247.94128,64,50,0
247.74545,247.94128,72,50,0
247.94545,248.14128,64,50,0
247.94545,248.14128,72,50,0
248.14546,248.3413,72,50,0
248.34546,248.54129,72,50,0
248.54546,248.74129,64,50,0
248.54546,248.74129,72,50,0
248.74545,248.94128,64,50,0
248.74545,248.94128,72,50,0
248.94545,249.14128,63,50,0
248.94545,249.14128,72,50,0
249.14546,249.3413,63,50,0
249.14546,249.3413,72,50,0
249.34546,249.54129,63,50,0
249.34546,249.54129,72,50,0
249.54546,249.64128,72,60,0
249.54546,249.64128,62,60,0
249.64546,249.74129,71,63,0
249.74545,249.8413,69,67,0
249.84546,249.94128,67,71,0
249.94545,250.04129,66,74,0
250.04546,250.14128,64,78,0
250.14546,250.24129,62,82,0
250.24545,250.3413,61,85,0
250.34546,250.44128,62,89,0
250.44545,250.54129,60,93,0
250.54546,250.64128,59,97,0
250.64546,250.74129,57,100,0
250.74545,250.8413,55,110,0
250.84546,250.94128,54,110,0
250.94545,251.04129,52,110,0
251.04546,251.14128,50,110,0
251.14546,251.24129,52,110,0
251.24545,251.3413,54,110,0
251.34546,251.44128,55,110,0
251.44545,251.54129,54,110,0
251.54546,251.64128,52,110,0
251.64546,251.74129,50,110,0
251.74545,251.8413,52,110,0
251.84546,251.94128,54,110,0
251.94545,252.14128,55,110,0
252.14546,252.3413,59,110,0
252.34546,252.54129,62,110,0
252.54546,252.74129,67,110,0
252.74545,252.94128,71,110,0
252.94545,253.14665,74,110,0
253.35641,253.55762,79,70,0
253.56189,253.76309,83,70,0
253.98166,254.19148,78,70,0
253.98166,254.19148,81,70,0
254.19594,254.40576,86,70,0
254.41023,254.63618,74,70,0
254.41023,254.63618,79,70,0
254.41023,254.63618,83,70,0
254.64099,254.86696,74,70,0
254.64099,254.86696,78,70,0
254.64099,254.86696,81,70,0
255.47754,255.59732,50,70,0
255.60254,255.69836,52,70,0
255.70253,255.79837,54,70,0
255.80254,255.89836,55,70,0
255.90254,255.99837,54,70,0
256.00253,256.09836,52,70,0
256.10254,256.19836,50,70,0
256.20255,256.29837,52,70,0
256.30252,256.39838,54,70,0
256.40253,256.49838,55,70,0
256.50253,256.59836,54,70,0
256.60254,256.69836,52,70,0
256.70255,256.79837,50,70,0
256.80252,256.89838,52,70,0
256.90253,256.99838,54,70,0
257.00253,257.19836,55,70,0
257.20255,257.39838,59,70,0
257.40253,257.59836,62,70,0
257.60254,257.79837,67,70,0
257.80252,258.00372,71,70,0
258.00803,258.21783,74,70,0
258.43658,258.6464,79,78,0
258.65088,258.8607,83,86,0
259.07944,259.29544,78,102,0
259.07944,259.29544,81,102,0
259.30002,259.51602,86,110,0
259.52063,259.74658,74,110,0
259.52063,259.74658,83,110,0
259.75137,259.97736,71,110,0
259.75137,259.97736,79,110,0
260.81293,260.90875,67,70,0
260.91293,261.00876,72,70,0
261.01294,261.80875,72,70,0
261.81293,262.00876,71,70,0
261.01294,262.20877,67,70,0
262.01294,262.20877,76,70,0
262.21292,263.00876,74,70,0
263.01294,263.20877,72,70,0
262.21292,263.40875,67,70,0
263.21292,263.40875,71,70,0
263.41293,263.60876,71,70,0
263.6129,263.80875,68,70,0
263.41293,264.00876,67,70,0
263.81293,264.00876,69,70,0
264.01294,264.20877,69,70,0
264.21292,264.40875,71,70,0
264.01294,264.60876,66,70,0
264.41293,264.60876,72,70,0
264.6129,264.80875,71,70,0
264.81293,265.00876,67,70,0
266.01294,266.20877,55,70,0
266.21292,266.40875,67,70,0
266.41293,267.00876,67,70,0
267.21292,267.40875,55,70,0
267.41293,267.60876,67,70,0
267.6129,268.20877,67,70,0
268.41293,268.60876,55,70,0
268.41293,268.60876,57,70,0
268.6129,268.80875,64,70,0
269.01294,269.20877,54,70,0
269.01294,269.20877,57,70,0
269.21292,269.40875,62,70,0
269.6129,269.80875,59,70,0
269.81293,270.00876,59,70,0
270.01294,270.20877,59,70,0
270.21292,270.30875,60,70,0
270.31293,270.40875,59,70,0
270.41293,270.50876,57,70,0
270.51294,270.60876,55,70,0
270.81293,271.00876,55,70,0
270.81293,271.00876,57,70,0
271.01294,271.20877,64,70,0
271.41293,271.60876,54,70,0
271.41293,271.60876,57,70,0
271.6129,271.80875,62,70,0
272.01294,272.20877,59,70,0
272.21292,272.40875,59,70,0
272.41293,272.60876,59,70,0
272.6129,272.70877,60,70,0
272.71292,272.80875,59,70,0
272.81293,272.90875,57,70,0
272.91293,273.00876,55,70,0
273.21292,273.40875,55,71,0
273.21292,273.40875,57,71,0
273.41293,273.60876,64,72,0
273.81293,274.00876,55,74,0
273.81293,274.00876,57,74,0
274.01294,274.20877,64,75,0
274.21292,274.40875,54,76,0
274.21292,274.40875,57,76,0
275.01294,275.20877,73,80,0
275.21292,275.3421,73,81,0
275.2796,275.40875,74,81,0
275.34625,275.40875,73,82,0
275.41293,275.50876,74,82,0
275.51294,275.60876,81,83,0
275.6129,275.70877,79,83,0
275.71292,275.80875,78,84,0
275.81293,275.90875,76,84,0
275.91293,276.00876,74,85,0
276.01294,276.10876,73,85,0
276.1129,276.20877,71,86,0
276.21292,276.30875,69,86,0
276.31293,276.40875,67,87,0
276.41293,276.50876,66,87,0
276.51294,276.60876,64,88,0
276.6129,277.00876,62,88,0
277.41293,277.60876,73,92,0
277.6129,277.7421,73,94,0
277.6796,277.80875,74,94,0
277.74625,277.80875,73,94,0
277.81293,277.90875,74,95,0
277.91293,278.00876,81,95,0
278.01294,278.10876,79,96,0
278.1129,278.20877,78,96,0
278.21292,278.30875,76,97,0
278.31293,278.40875,74,97,0
278.41293,278.50876,73,98,0
278.51294,278.60876,71,98,0
278.6129,278.70877,69,99,0
278.71292,278.80875,67,99,0
278.81293,278.90875,66,100,0
278.91293,279.00876,64,100,0
279.01294,279.10876,62,100,0
279.1129,279.20877,69,100,0
279.21292,279.30875,67,100,0
279.31293,279.40875,66,100,0
279.41293,279.50876,64,100,0
279.51294,279.60876,62,100,0
279.6129,279.70877,61,100,0
279.71292,279.80875,59,100,0
279.81293,279.90875,57,100,0
279.91293,280.00876,55,100,0
280.01294,280.10876,54,100,0
280.1129,280.20877,52,100,0
280.21292,280.30875,50,125,0
280.31293,280.40875,49,100,0
280.41293,280.50876,47,100,0
280.51294,280.60876,45,100,0
280.6129,280.70877,47,100,0
280.71292,280.80875,49,100,0
280.81293,280.90875,50,125,0
280.91293,281.00876,49,100,0
281.01294,281.10876,47,100,0
281.1129,281.20877,45,100,0
281.21292,281.30875,47,100,0
281.31293,281.40875,49,100,0
281.41293,281.80875,50,100,0
282.6129,283.2513,54,70,0
282.6129,283.2513,59,70,0
282.6129,283.2513,63,70,0
283.25577,283.89417,55,70,0
283.25577,283.89417,59,70,0
283.25577,283.89417,64,70,0
283.89865,284.53702,59,70,0
283.89865,284.53702,63,70,0
283.89865,284.53702,66,70,0
285.18436,285.28018,67,70,0
285.28436,285.3802,66,70,0
285.38434,285.4802,64,70,0
285.48434,285.58017,62,70,0
285.58435,285.68018,64,70,0
285.68436,285.78018,66,70,0
285.78436,285.8802,67,70,0
285.88434,285.9802,66,70,0
285.98434,286.08017,64,70,0
286.08435,286.18018,62,70,0
286.18436,286.28018,64,70,0
286.28436,286.3802,66,70,0
286.38434,286.78018,67,70,0
287.58435,288.22275,59,70,0
287.58435,288.22275,64,70,0
287.58435,288.22275,68,70,0
288.2272,288.8656,60,70,0
288.2272,288.8656,64,70,0
288.2272,288.8656,69,70,0
288.87006,289.50845,64,70,0
288.87006,289.50845,68,70,0
288.87006,289.50845,71,70,0
290.15576,290.25162,72,70,0
290.25577,290.35162,71,70,0
290.35577,290.4516,69,70,0
290.45578,290.5516,67,70,0
290.5558,290.6516,69,70,0
290.65576,290.75162,71,70,0
290.75577,290.85162,72,70,0
290.85577,290.9516,71,70,0
290.95578,291.0516,69,70,0
291.0558,291.1516,67,70,0
291.15576,291.25162,69,70,0
291.25577,291.35162,71,70,0
291.35577,291.75162,72,70,0
292.35577,292.75162,70,70,0
292.75577,292.9516,69,70,0
292.95578,293.1516,67,70,0
293.15576,293.5516,65,70,0
293.5558,293.9516,69,70,0
293.95578,294.1516,67,70,0
294.15576,294.35162,65,70,0
294.35577,294.75162,64,70,0
294.75577,295.1516,67,70,0
295.15576,295.35162,66,70,0
295.35577,295.5516,64,70,0
295.5558,295.9516,62,70,0
295.95578,296.35162,65,70,0
296.35577,296.5516,64,70,0
296.5558,296.75162,62,70,0
296.75577,297.1516,60,70,0
297.15576,297.5516,64,70,0
297.5558,297.75162,62,72,0
297.75577,297.9516,60,75,0
297.95578,298.1516,59,78,0
298.15576,298.35162,57,81,0
298.35577,298.5516,55,84,0
298.5558,298.75162,52,86,0
298.75577,298.9516,57,89,0
298.95578,299.1516,60,92,0
299.15576,299.35162,64,95,0
299.35577,299.5516,69,98,0
299.5558,299.75162,72,100,0
299.95578,300.1516,71,70,0
300.15576,300.35696,74,70,0
300.56674,300.77655,72,70,0
300.781,301.00024,74,70,0
300.89297,301.00024,86,70,0
301.0049,301.80914,86,110,0
301.8132,302.00394,82,110,0
302.008,302.19876,79,110,0
302.1541,302.24744,81,110,0
302.20282,302.39355,79,110,0
302.3976,302.97797,78,127,0
302.98203,303.17276,78,110,0
303.17682,303.36758,79,110,0
303.37164,303.7572,81,127,0
303.76126,303.952,78,110,0
303.95605,304.3416,74,127,0
304.34567,304.5364,72,110,0
304.54047,304.7312,70,110,0
304.63788,304.8286,62,100,0
304.73526,304.92603,70,100,0
304.83267,305.0234,62,100,0
304.93008,305.12082,70,100,0
305.02747,305.21823,62,100,0
305.12488,305.3156,70,100,0
305.2223,305.41302,62,100,0
305.31967,305.51044,72,100,0
305.41708,305.60785,62,100,0
305.5145,305.70523,70,100,0
305.6119,305.80264,62,100,0
305.7093,305.90005,70,100,0
305.8067,305.99744,62,100,0
305.9041,306.09485,70,100,0
306.0015,306.19226,62,100,0
306.0989,306.28964,70,100,0
306.19632,306.38705,62,100,0
306.2937,306.48447,70,100,0
306.3911,306.58185,62,100,0
306.48853,306.67926,70,100,0
306.5859,306.77667,62,100,0
306.68332,306.87405,70,100,0
306.78073,306.97147,62,100,0
306.8781,307.06888,72,100,0
306.97552,307.16626,62,100,0
307.07294,307.26367,72,100,0
307.17032,307.36108,62,100,0
307.26773,307.4585,72,100,0
307.36514,307.55588,62,100,0
307.46255,307.6533,72,100,0
307.55994,307.7507,62,100,0
307.65735,307.84808,72,100,0
307.75476,307.9455,62,100,0
307.85214,308.0429,72,100,0
307.94955,308.1403,62,100,0
308.04697,308.2377,69,125,0
308.14435,308.3351,62,100,0
308.24176,308.4325,69,100,0
308.33917,308.5299,62,100,0
308.43655,308.62732,69,100,0
308.53397,308.7247,62,100,0
308.63138,308.8221,69,125,0
308.72876,308.91953,62,100,0
308.82617,309.01694,69,100,0
308.92358,309.11432,62,100,0
309.02097,309.21173,74,100,0
309.11838,309.21173,86,100,0
309.2158,309.60135,86,70,0
309.6054,309.79614,82,70,0
309.7028,309.89355,79,70,0
309.8002,310.18576,77,70,0
311.55344,311.939,79,70,0
311.94305,312.1338,75,70,0
312.04047,312.2312,72,70,0
312.13785,312.5234,70,70,0
313.8911,314.08185,87,70,0
313.9885,314.17926,75,70,0
314.0859,314.27667,87,70,0
314.18332,314.37405,75,70,0
314.2807,314.47147,87,70,0
314.3781,314.56888,75,70,0
314.47552,314.66626,87,70,0
314.57294,314.76367,75,70,0
314.67032,314.86108,87,70,0
314.76773,314.95847,75,70,0
314.86514,315.05588,87,70,0
314.96252,315.1533,75,70,0
315.05994,315.25067,87,70,0
315.15735,315.34808,75,70,0
315.25473,315.4455,87,70,0
315.35214,315.54288,75,70,0
315.44955,315.6403,87,70,0
315.54694,315.7377,75,70,0
315.64435,315.83508,87,70,0
315.74176,315.9325,75,70,0
315.83914,316.0299,87,70,0
315.93655,316.12732,75,70,0
316.03397,316.2247,87,70,0
316.13138,316.3221,75,70,0
316.22876,316.41953,87,71,0
316.32617,316.5169,75,72,0
316.42358,316.61432,87,73,0
316.52097,316.71173,75,75,0
316.61838,316.8091,87,76,0
316.7158,316.90652,75,77,0
316.81317,317.00394,85,79,0
316.91058,317.10132,73,80,0
317.008,317.19873,85,81,0
317.10538,317.29614,73,82,0
317.2028,317.39352,85,84,0
317.3002,317.49094,73,85,0
317.39758,317.58835,86,86,0
317.495,317.68573,74,88,0
317.5924,317.78314,86,89,0
317.6898,317.88055,74,90,0
317.7872,317.97797,86,91,0
317.8846,318.07535,74,93,0
317.98203,318.17276,84,94,0
318.0794,318.27017,72,95,0
318.17682,318.36755,84,97,0
318.27423,318.46497,72,98,0
318.3716,318.56238,84,99,0
318.46902,318.56238,72,100,0
318.76123,318.95197,71,98,0
318.85864,319.04938,76,96,0
318.95602,319.1468,79,95,0
319.05344,319.24417,83,94,0
319.34564,319.5364,78,90,0
319.44305,319.6363,79,88,0
319.54044,319.7363,81,87,0
319.64044,319.7363,79,86,0
319.94046,320.1363,73,82,0
320.04044,320.2363,74,80,0
320.14044,320.33627,76,79,0
320.24045,320.4389,74,78,0
320.54593,320.74713,73,74,0
320.64868,320.8541,74,72,0
320.7514,320.96124,76,71,0
320.85855,320.96124,74,70,0
320.9657,321.1755,74,100,0
321.07285,321.27582,67,70,0
321.77997,321.9758,67,70,0
321.87997,322.0758,71,70,0
321.97998,322.1758,74,70,0
322.18,322.5758,74,70,0
322.58,322.77582,72,70,0
322.97998,323.1758,62,70,0
323.08,323.27582,69,70,0
323.18,323.37582,72,70,0
323.37997,323.77582,72,70,0
323.77997,323.9758,71,70,0
326.58,326.77582,62,70,0
326.68,326.87582,67,70,0
326.77997,326.9758,71,70,0
326.87997,326.9758,74,70,0
326.97998,327.37582,74,70,0
327.37997,327.5758,72,70,0
327.77997,327.9758,62,70,0
327.87997,328.0758,66,70,0
327.97998,328.1758,69,70,0
328.08,328.1758,72,70,0
328.18,328.5758,72,70,0
328.58,328.77582,71,70,0
330.97998,331.5758,62,100,0
331.58,331.77582,63,70,0
331.77997,332.1758,64,70,0
332.18,332.37582,66,70,0
332.37997,332.77582,67,70,0
332.77997,332.9758,69,70,0
332.97998,333.1758,71,70,0
333.37997,333.77582,83,110,0
333.77997,333.9758,81,110,0
333.97998,334.1758,79,110,0
334.18,334.37582,78,110,0
334.37997,334.5758,79,110,0
334.58,334.77582,76,110,0
334.77997,334.9758,74,110,0
334.97998,335.1758,76,110,0
335.18,335.37582,73,110,0
335.37997,335.77582,74,110,0
336.58,336.6758,74,110,0
336.68,336.77582,75,110,0
336.77997,336.87582,76,110,0
336.87997,336.9758,77,110,0
336.97998,337.0758,78,110,0
337.08,337.1758,79,110,0
337.18,337.27582,80,110,0
337.27997,337.37582,81,110,0
337.37997,337.4758,82,110,0
337.47998,337.5758,83,110,0
337.58,337.70914,84,100,0
337.64664,337.77582,85,85,0
337.71332,337.77582,86,70,0
337.77997,338.1758,79,70,0
340.77997,340.90915,78,70,0
340.84665,340.9758,79,70,0
340.9133,341.04248,78,70,0
340.97998,341.10916,79,70,0
341.04666,341.1758,78,70,0
341.1133,341.2425,79,70,0
341.18,341.30914,78,70,0
341.24664,341.37582,76,70,0
341.31332,341.37582,78,70,0
341.37997,341.77582,79,70,0
341.97998,342.10916,78,70,0
342.04666,342.1758,79,70,0
342.1133,342.2425,78,70,0
342.18,342.30914,79,70,0
342.24664,342.37582,78,70,0
342.31332,342.44247,79,70,0
342.37997,342.50916,78,70,0
342.44666,342.5758,76,70,0
342.5133,342.5758,78,70,0
342.58,342.77582,79,70,0
342.77997,342.9758,67,70,0
342.77997,342.9758,55,70,0
342.97998,343.1758,67,70,0
342.97998,343.1758,55,70,0
343.18,343.37582,67,70,0
343.18,343.37582,55,70,0
343.37997,343.5758,69,100,0
343.37997,343.5758,57,100,0
343.58,343.77582,67,70,0
343.58,343.77582,55,70,0
343.77997,343.9758,65,70,0
343.77997,343.9758,53,70,0
343.97998,344.1758,67,100,0
343.97998,344.1758,55,100,0
344.18,344.37582,65,70,0
344.18,344.37582,53,70,0
344.37997,344.5758,64,70,0
344.37997,344.5758,52,70,0
344.58,344.77582,65,100,0
344.58,344.77582,53,100,0
344.77997,344.9758,64,70,0
344.77997,344.9758,52,70,0
344.97998,345.1758,62,70,0
344.97998,345.1758,50,70,0
345.18,345.37582,64,100,0
345.18,345.37582,52,100,0
345.37997,345.5758,62,70,0
345.37997,345.5758,50,70,0
345.58,345.77582,60,70,0
345.58,345.77582,48,70,0
345.77997,345.9758,59,70,0
345.77997,345.9758,47,70,0
345.97998,346.1758,60,70,0
345.97998,346.1758,48,70,0
346.18,346.37582,59,70,0
346.18,346.37582,47,70,0
346.37997,346.5758,60,70,0
346.37997,346.5758,48,70,0
346.58,346.77582,59,70,0
346.58,346.77582,47,70,0
346.77997,346.9758,60,70,0
346.77997,346.9758,48,70,0
346.97998,347.1758,59,70,0
346.97998,347.1758,47,70,0
347.18,347.37582,60,70,0
347.18,347.37582,48,70,0
347.37997,347.77582,59,70,0
347.37997,347.77582,47,70,0
347.97998,348.10916,78,70,0
348.04666,348.1758,79,70,0
348.1133,348.2425,78,70,0
348.18,348.30914,79,70,0
348.24664,348.37582,78,70,0
348.31332,348.44247,79,70,0
348.37997,348.50916,78,70,0
348.44666,348.5758,76,70,0
348.5133,348.5758,78,70,0
348.58,348.9758,79,70,0
349.18,349.30914,78,70,0
349.24664,349.37582,79,70,0
349.31332,349.44247,78,70,0
349.37997,349.50916,79,70,0
349.44666,349.5758,78,70,0
349.5133,349.6425,79,70,0
349.58,349.70914,78,70,0
349.64664,349.77582,76,70,0
349.71332,349.77582,78,70,0
349.77997,350.1758,79,70,0
351.19095,351.40076,74,93,0
351.2981,351.5079,62,95,0
351.4052,351.61505,71,97,0
351.51236,351.72522,62,98,0
351.6195,351.8355,74,100,0
351.7298,351.95068,62,102,0
351.8401,352.06607,71,104,0
351.95547,352.19064,62,105,0
352.07086,352.31564,74,107,0
352.19586,352.31564,62,109,0
352.32086,352.81564,71,110,0
353.07086,353.6646,50,70,0
353.07086,353.6646,59,70,0
353.07086,353.6646,62,70,0
353.97086,354.86462,50,70,0
353.97086,354.86462,55,70,0
353.97086,354.86462,59,70,0
0.0,0.09583333,43,70,0
0.1,0.19583334,42,70,0
0.2,0.29583332,40,70,0
0.3,0.39583334,38,70,0
0.4,0.49583334,40,70,0
0.5,0.59583336,42,70,0
0.6,0.6958333,43,70,0
0.7,0.79583335,42,70,0
0.8,0.8958333,40,70,0
0.9,0.99583334,38,70,0
1.0,1.0958333,40,70,0
1.1,1.1958333,42,70,0
1.2,1.3958334,43,70,0
1.4,1.5958333,47,70,0
1.6,1.7958333,50,70,0
1.8,1.9958333,55,70,0
2.0,2.201198,59,70,0
2.205479,2.4153001,62,70,0
2.4197645,2.843871,67,70,0
2.4197645,2.843871,71,70,0
3.062621,3.5193512,62,94,0
3.062621,3.5193512,69,94,0
3.754928,3.9808893,55,110,0
3.754928,3.9808893,67,110,0
3.985697,4.2116585,50,110,0
3.985697,4.2116585,62,110,0
4.897235,4.993068,38,70,0
4.997235,5.093068,40,70,0
5.097235,5.1930685,42,70,0
5.197235,5.2930684,43,70,0
5.297235,5.3930683,42,70,0
5.397235,5.493068,40,70,0
5.497235,5.593068,38,70,0
5.597235,5.6930685,40,70,0
5.697235,5.7930684,42,70,0
5.797235,5.8930683,43,70,0
5.897235,5.993068,42,70,0
5.997235,6.093068,40,70,0
6.097235,6.1930685,38,70,0
6.197235,6.2930684,40,70,0
6.297235,6.3930683,42,70,0
6.397235,6.593068,43,70,0
6.597235,6.7930684,47,70,0
6.797235,6.993068,50,70,0
6.997235,7.1930685,55,70,0
7.197235,7.3930683,59,70,0
7.397235,7.593068,62,70,0
7.597235,7.993068,67,70,0
7.597235,7.993068,71,70,0
8.197235,8.621342,62,94,0
8.197235,8.621342,69,94,0
8.840092,9.049912,55,110,0
8.840092,9.049912,67,110,0
9.054377,9.264198,55,110,0
9.054377,9.264198,67,110,0
10.182948,10.978782,64,70,0
10.982948,11.1787815,62,70,0
11.182948,11.378781,60,70,0
11.382948,12.1787815,59,70,0
12.182948,12.378781,57,70,0
12.382948,12.578781,55,70,0
12.582948,13.1787815,64,70,0
12.582948,13.1787815,60,70,0
13.182948,13.778781,62,70,0
13.782948,13.978782,43,70,0
13.982948,14.1787815,55,70,0
14.182948,14.378781,55,70,0
14.382948,14.578781,55,70,0
14.582948,14.778781,54,70,0
14.782948,14.978782,53,70,0
14.982948,15.778781,52,70,0
15.782948,15.978782,50,70,0
15.982948,16.178782,48,70,0
16.182947,16.97878,47,70,0
16.982948,17.178782,45,70,0
17.182947,17.378782,43,70,0
17.382948,17.778782,48,70,0
17.782948,17.97878,49,70,0
17.982948,18.378782,50,70,0
18.382948,18.578781,38,70,0
18.582949,18.97878,31,70,0
18.782948,18.97878,43,70,0
18.982948,19.178782,43,70,0
19.182947,19.378782,43,70,0
19.382948,19.47878,42,70,0
19.482948,19.578781,43,70,0
19.582949,19.678782,45,70,0
19.682947,19.778782,47,70,0
19.782948,20.178782,48,70,0
20.182947,20.378782,49,70,0
20.382948,20.778782,50,70,0
20.782948,20.97878,38,70,0
20.982948,21.378782,31,70,0
21.182947,21.378782,43,70,0
21.382948,21.578781,43,70,0
21.582949,21.778782,43,70,0
21.782948,21.878782,42,70,0
21.882948,21.97878,43,70,0
21.982948,22.078781,45,70,0
22.082949,22.178782,47,70,0
22.182947,22.378782,36,70,0
22.382948,22.578781,48,70,0
22.582949,22.784145,48,70,0
22.788427,22.989626,36,70,0
22.993906,23.203728,48,70,0
23.20819,23.418013,48,70,0
23.422478,23.625454,38,70,0
23.62962,23.825453,54,70,0
23.62962,23.825453,50,70,0
23.82962,24.025454,50,70,0
23.82962,24.025454,54,70,0
24.02962,24.225452,57,70,0
24.02962,24.225452,54,70,0
24.02962,24.225452,50,70,0
24.22962,24.425453,57,70,0
24.22962,24.425453,54,70,0
24.22962,24.425453,50,70,0
24.429619,24.625454,57,70,0
24.429619,24.625454,54,70,0
24.429619,24.625454,50,70,0
24.62962,24.825453,50,70,0
24.62962,24.825453,54,70,0
24.62962,24.825453,57,70,0
24.82962,25.025454,50,70,0
24.82962,25.025454,54,70,0
24.82962,25.025454,57,70,0
25.02962,25.225452,50,70,0
25.02962,25.225452,54,70,0
25.02962,25.225452,57,70,0
25.22962,25.425453,50,70,0
25.22962,25.425453,54,70,0
25.22962,25.425453,57,70,0
25.429619,25.625454,50,70,0
25.429619,25.625454,54,70,0
25.429619,25.625454,57,70,0
25.62962,25.825453,50,70,0
25.62962,25.825453,54,70,0
25.62962,25.825453,57,70,0
25.82962,26.025454,40,70,0
26.02962,26.225452,52,70,0
26.02962,26.225452,55,70,0
26.02962,26.225452,57,70,0
26.22962,26.425453,52,70,0
26.22962,26.425453,55,70,0
26.22962,26.425453,57,70,0
26.429619,26.625454,52,70,0
26.429619,26.625454,55,70,0
26.429619,26.625454,57,70,0
26.62962,26.825453,52,70,0
26.62962,26.825453,55,70,0
26.62962,26.825453,57,70,0
26.82962,27.025454,52,70,0
26.82962,27.025454,55,70,0
26.82962,27.025454,57,70,0
27.02962,27.225452,52,70,0
27.02962,27.225452,55,70,0
27.02962,27.225452,57,70,0
27.22962,27.425453,52,70,0
27.22962,27.425453,55,70,0
27.22962,27.425453,57,70,0
27.429619,27.625454,52,70,0
27.429619,27.625454,55,70,0
27.429619,27.625454,57,70,0
27.62962,27.825453,52,70,0
27.62962,27.825453,55,70,0
27.62962,27.825453,57,70,0
27.82962,28.025454,52,70,0
27.82962,28.025454,55,70,0
27.82962,28.025454,57,70,0
28.02962,28.225452,52,70,0
28.02962,28.225452,55,70,0
28.02962,28.225452,57,70,0
28.22962,28.425453,42,70,0
28.429619,28.625454,54,70,0
28.429619,28.625454,57,70,0
28.429619,28.625454,60,70,0
28.62962,28.825453,54,70,0
28.62962,28.825453,57,70,0
28.62962,28.825453,60,70,0
28.82962,29.025454,54,70,0
28.82962,29.025454,57,70,0
28.82962,29.025454,60,70,0
29.02962,29.225452,54,70,0
29.02962,29.225452,57,70,0
29.02962,29.225452,60,70,0
29.22962,29.425453,54,70,0
29.22962,29.425453,57,70,0
29.22962,29.425453,60,70,0
29.429619,29.625454,54,70,0
29.429619,29.625454,57,70,0
29.429619,29.625454,60,70,0
29.62962,29.825453,54,70,0
29.62962,29.825453,57,70,0
29.62962,29.825453,60,70,0
29.82962,30.025454,54,70,0
29.82962,30.025454,57,70,0
29.82962,30.025454,60,70,0
30.02962,30.225452,54,70,0
30.02962,30.225452,57,70,0
30.02962,30.225452,60,70,0
30.22962,30.425453,54,70,0
30.22962,30.425453,57,70,0
30.22962,30.425453,60,70,0
30.429619,30.625454,54,70,0
30.429619,30.625454,57,70,0
30.429619,30.625454,60,70,0
30.62962,30.825453,43,70,0
30.82962,31.025454,55,70,0
30.82962,31.025454,59,70,0
31.02962,31.225452,55,70,0
31.02962,31.225452,59,70,0
31.22962,31.425453,55,70,0
31.22962,31.425453,59,70,0
31.429619,31.625454,55,70,0
31.429619,31.625454,59,70,0
31.62962,31.825453,55,70,0
31.62962,31.825453,59,70,0
31.82962,32.02545,44,70,0
32.02962,32.225452,56,70,0
32.02962,32.225452,59,70,0
32.02962,32.225452,64,70,0
32.229618,32.425453,56,70,0
32.229618,32.425453,59,70,0
32.229618,32.425453,64,70,0
32.42962,32.625454,56,70,0
32.42962,32.625454,59,70,0
32.42962,32.625454,64,70,0
32.62962,32.825455,56,70,0
32.62962,32.825455,59,70,0
32.62962,32.825455,64,70,0
32.82962,33.02545,56,70,0
32.82962,33.02545,59,70,0
32.82962,33.02545,64,70,0
33.02962,33.225452,45,70,0
33.229618,33.425453,57,70,0
33.229618,33.425453,61,70,0
33.229618,33.425453,64,70,0
33.42962,33.625454,57,70,0
33.42962,33.625454,61,70,0
33.42962,33.625454,64,70,0
33.62962,33.825455,57,70,0
33.62962,33.825455,62,70,0
33.62962,33.825455,64,70,0
33.82962,34.02545,57,70,0
33.82962,34.02545,62,70,0
33.82962,34.02545,64,70,0
34.02962,34.225452,57,70,0
34.02962,34.225452,62,70,0
34.02962,34.225452,64,70,0
34.229618,34.425453,57,70,0
34.229618,34.425453,61,70,0
34.229618,34.425453,64,70,0
34.42962,34.625454,57,70,0
34.42962,34.625454,61,70,0
34.42962,34.625454,64,70,0
34.62962,34.825455,57,70,0
34.62962,34.825455,61,70,0
34.62962,34.825455,64,70,0
34.82962,35.02545,57,70,0
34.82962,35.02545,62,70,0
34.82962,35.02545,64,70,0
35.02962,35.225452,57,70,0
35.02962,35.225452,62,70,0
35.02962,35.225452,64,70,0
35.229618,35.425453,57,70,0
35.229618,35.425453,62,70,0
35.229618,35.425453,64,70,0
35.42962,35.625454,45,70,0
35.62962,35.825455,57,70,0
35.62962,35.825455,61,70,0
35.62962,35.825455,64,70,0
35.82962,36.02545,57,70,0
35.82962,36.02545,61,70,0
35.82962,36.02545,64,70,0
36.02962,36.225452,57,70,0
36.02962,36.225452,62,70,0
36.02962,36.225452,64,70,0
36.229618,36.425453,57,70,0
36.229618,36.425453,62,70,0
36.229618,36.425453,64,70,0
36.42962,36.625454,57,70,0
36.42962,36.625454,62,70,0
36.42962,36.625454,64,70,0
36.62962,36.825455,57,70,0
36.62962,36.825455,61,70,0
36.62962,36.825455,64,70,0
36.82962,37.02545,57,70,0
36.82962,37.02545,61,70,0
36.82962,37.02545,64,70,0
37.02962,37.225452,57,70,0
37.02962,37.225452,61,70,0
37.02962,37.225452,64,70,0
37.229618,37.425453,57,70,0
37.229618,37.425453,62,70,0
37.229618,37.425453,64,70,0
37.42962,37.625454,57,70,0
37.42962,37.625454,62,70,0
37.42962,37.625454,64,70,0
37.62962,37.825455,57,70,0
37.62962,37.825455,62,70,0
37.62962,37.825455,64,70,0
37.82962,37.925453,57,100,0
37.92962,38.02545,64,100,0
38.02962,38.125454,62,100,0
38.12962,38.225452,61,100,0
38.229618,38.325455,59,100,0
38.32962,38.425453,57,100,0
38.42962,38.52545,56,100,0
38.52962,38.625454,54,100,0
38.62962,38.725452,52,100,0
38.729618,38.825455,50,100,0
38.82962,38.925453,49,100,0
38.92962,39.02545,47,100,0
39.02962,39.125454,45,120,0
39.12962,39.225452,44,120,0
39.229618,39.325455,42,120,0
39.32962,39.425453,40,120,0
39.42962,39.52545,42,120,0
39.52962,39.625454,44,120,0
39.62962,39.725452,45,120,0
39.729618,39.825455,44,120,0
39.82962,39.925453,42,120,0
39.92962,40.02545,40,120,0
40.02962,40.125454,42,120,0
40.12962,40.225452,44,120,0
40.229618,40.625454,45,120,0
41.42962,42.068012,42,50,0
42.072475,42.71087,35,50,0
42.715332,43.353725,30,50,0
42.715332,43.353725,42,50,0
44.001045,44.096878,50,50,0
44.101048,44.19688,49,50,0
44.201046,44.29688,47,50,0
44.301044,44.396877,45,50,0
44.401047,44.49688,47,50,0
44.501045,44.596878,49,50,0
44.601048,44.69688,50,50,0
44.701046,44.79688,49,50,0
44.801044,44.896877,47,50,0
44.901047,44.99688,45,50,0
45.001045,45.096878,47,50,0
45.101048,45.19688,49,50,0
45.201046,45.596878,50,50,0
46.401047,47.039436,47,50,0
47.043903,47.682293,40,50,0
47.68676,48.110867,35,50,0
47.68676,48.110867,47,50,0
48.972473,49.068306,55,50,0
49.07247,49.168304,54,50,0
49.17247,49.268307,52,50,0
49.272472,49.368305,50,50,0
49.37247,49.468304,52,50,0
49.472473,49.568306,54,50,0
49.57247,49.668304,55,50,0
49.67247,49.768307,54,50,0
49.772472,49.868305,52,50,0
49.87247,49.968304,50,50,0
49.972473,50.068306,52,50,0
50.07247,50.168304,54,50,0
50.17247,50.568306,55,70,0
51.37247,51.968304,52,70,0
51.972473,52.168304,45,70,0
52.17247,52.368305,47,70,0
52.37247,52.568306,48,70,0
52.57247,53.168304,50,70,0
53.17247,53.368305,43,70,0
53.37247,53.568306,45,70,0
53.57247,53.768307,47,70,0
53.772472,54.368305,49,70,0
54.37247,54.568306,42,70,0
54.57247,54.768307,43,70,0
54.772472,54.968304,45,70,0
54.972473,55.568306,47,70,0
55.57247,55.768307,40,70,0
55.772472,55.968304,42,70,0
55.972473,56.168304,43,70,0
56.17247,56.768307,45,70,0
56.772472,57.368305,38,70,0
57.37247,58.168304,31,70,0
58.17247,58.368305,47,70,0
58.37247,58.568306,43,70,0
58.57247,58.968304,45,70,0
59.17247,59.582294,57,70,0
59.17247,59.582294,45,70,0
59.801044,60.00153,38,110,0
60.00559,60.196335,50,110,0
60.200394,60.39114,50,110,0
60.3952,60.585945,50,110,0
60.590004,60.78075,50,110,0
60.78481,60.975555,50,110,0
60.979614,61.17036,40,110,0
61.17442,61.365166,52,110,0
61.369225,61.55997,52,110,0
61.56403,61.754776,52,110,0
61.758835,61.94958,52,110,0
61.953636,62.144386,52,110,0
62.14844,62.33919,37,110,0
62.343246,62.533993,49,110,0
62.53805,62.728798,45,110,0
62.732857,62.923603,49,110,0
62.92766,63.11841,49,110,0
63.122467,63.313213,45,110,0
63.317272,63.50802,38,100,0
63.512077,63.702824,50,100,0
63.706882,63.89763,50,100,0
63.901688,64.09244,50,100,0
64.0965,64.28724,52,100,0
64.2913,64.48205,49,100,0
64.4861,64.67685,38,125,0
64.68091,64.87166,50,100,0
64.87571,65.06646,50,100,0
65.07052,65.26126,50,100,0
65.26532,65.45607,50,100,0
65.46013,65.65087,50,100,0
65.65493,65.84568,40,100,0
65.84974,66.04048,52,100,0
66.04454,66.23529,52,100,0
66.23935,66.43009,52,100,0
66.43415,66.6249,52,100,0
66.62896,66.8197,52,100,0
66.82376,67.01451,37,125,0
67.01857,67.20931,49,100,0
67.21337,67.40412,45,100,0
67.40818,67.59892,49,125,0
67.60298,67.79373,49,100,0
67.79779,67.98853,45,100,0
67.99259,68.18334,50,70,0
68.09,68.28074,57,70,0
68.1874,68.37814,53,70,0
68.2848,68.47555,57,70,0
68.3822,68.57295,53,70,0
68.47961,68.67035,57,70,0
68.57701,68.76775,52,70,0
68.67441,68.86516,55,70,0
68.77181,68.96256,52,70,0
68.86922,69.05996,55,70,0
68.96662,69.157364,52,70,0
69.06402,69.25477,55,70,0
69.16142,69.35217,50,70,0
69.25883,69.44957,53,70,0
69.35623,69.546974,50,70,0
69.45363,69.64438,53,70,0
69.55103,69.74178,50,70,0
69.64844,69.83918,53,70,0
69.745834,69.936584,48,70,0
69.84324,70.03399,52,70,0
69.94064,70.131386,48,70,0
70.03805,70.22879,52,70,0
70.135445,70.326195,48,70,0
70.23285,70.4236,52,70,0
70.33025,70.520996,46,70,0
70.42766,70.6184,50,70,0
70.525055,70.715805,46,70,0
70.62246,70.81321,50,70,0
70.719864,70.91061,46,70,0
70.81727,71.00801,50,70,0
70.914665,71.105415,45,70,0
71.01207,71.20282,48,70,0
71.109474,71.30022,45,70,0
71.20688,71.39762,48,70,0
71.304276,71.495026,45,70,0
71.40168,71.59243,48,70,0
71.499084,71.68983,43,70,0
71.59649,71.78723,46,70,0
71.693886,71.884636,43,70,0
71.79129,71.98204,46,70,0
71.888695,72.07944,43,70,0
71.9861,72.17684,46,70,0
72.083496,72.27425,41,70,0
72.1809,72.37165,45,70,0
72.278305,72.46905,41,70,0
72.3757,72.56645,45,70,0
72.47311,72.66386,41,70,0
72.57051,72.66386,45,70,0
72.667915,72.85866,40,70,0
72.76531,72.95606,43,70,0
72.86272,73.05347,41,70,0
72.96012,73.15086,45,70,0
73.057526,73.24827,40,70,0
73.15492,73.34567,43,70,0
73.25233,73.44308,41,70,0
73.34973,73.540474,45,70,0
73.447136,73.63788,40,70,0
73.54453,73.73528,43,70,0
73.64194,73.83269,41,70,0
73.73934,73.930084,45,70,0
73.83675,74.02749,40,70,0
73.93414,74.12489,43,70,0
74.03155,74.2223,41,70,0
74.12895,74.319695,45,70,0
74.22636,74.4171,40,70,0
74.32375,74.5145,43,70,0
74.42116,74.61191,41,70,0
74.51856,74.709305,45,70,0
74.61597,74.80671,40,70,0
74.71336,74.90411,43,70,0
74.81077,75.00152,41,70,0
74.90817,75.098915,45,70,0
75.00557,75.19632,40,70,0
75.102974,75.293724,43,71,0
75.20038,75.39112,40,72,0
75.29778,75.488525,43,74,0
75.39518,75.58593,40,75,0
75.492584,75.683334,43,76,0
75.58999,75.78073,38,78,0
75.68739,75.878136,47,79,0
75.78479,75.97554,38,80,0
75.882195,76.072945,47,82,0
75.9796,76.17034,38,83,0
76.077,76.267746,47,84,0
76.1744,76.36515,37,86,0
76.271805,76.462555,49,87,0
76.36921,76.55995,37,88,0
76.46661,76.65736,49,90,0
76.56401,76.75476,37,91,0
76.661415,76.852165,49,92,0
76.75882,76.94956,34,94,0
76.856224,77.04697,46,95,0
76.95362,77.14437,34,96,0
77.051025,77.241776,46,98,0
77.14843,77.33917,34,99,0
77.24583,77.33917,46,100,0
77.34323,77.72878,35,100,0
77.34323,77.72878,47,100,0
77.92765,78.3132,50,92,0
77.92765,78.3132,52,92,0
77.92765,78.3132,44,92,0
78.51206,78.9079,54,84,0
78.51206,78.9079,50,84,0
78.51206,78.9079,45,84,0
79.11754,79.532845,45,76,0
79.11754,79.532845,49,76,0
79.11754,79.532845,55,76,0
79.751595,80.34743,50,70,0
80.35159,80.947426,48,70,0
80.95159,81.547424,47,70,0
79.751595,82.14742,38,70,0
81.55159,82.14742,49,70,0
82.15159,82.74743,50,70,0
82.751595,83.34743,42,70,0
83.35159,83.74743,43,70,0
83.751595,83.947426,45,70,0
83.95159,84.34743,47,70,0
82.15159,84.547424,38,70,0
84.35159,84.547424,49,70,0
84.55159,85.14742,50,100,0
85.15159,85.74743,48,70,0
85.751595,86.34743,47,70,0
84.55159,86.947426,38,101,0
86.35159,86.947426,49,70,0
86.95159,87.547424,50,70,0
87.55159,88.14742,42,70,0
88.15159,88.547424,43,70,0
88.55159,88.74743,45,70,0
88.751595,89.14742,47,70,0
86.95159,89.34743,38,70,0
89.15159,89.34743,49,70,0
89.35159,89.947426,50,70,0
89.95159,90.547424,42,77,0
90.55159,90.947426,43,84,0
90.95159,91.14742,45,89,0
91.15159,91.547424,47,91,0
89.35159,91.74743,38,70,0
91.55159,91.74743,49,96,0
91.751595,91.947426,38,98,0
91.751595,91.947426,50,98,0
92.15159,92.547424,54,110,0
92.55159,92.74743,52,110,0
92.751595,92.947426,50,110,0
92.95159,93.14742,49,110,0
93.15159,93.34743,50,110,0
93.35159,93.55279,47,110,0
93.55707,93.75827,45,110,0
93.76255,93.972374,47,110,0
93.97684,94.19605,44,110,0
94.200714,94.40849,45,110,0
94.41266,94.60849,57,110,0
94.41266,94.60849,62,110,0
94.41266,94.60849,66,110,0
94.612656,94.80849,57,110,0
94.612656,94.80849,62,110,0
94.612656,94.80849,66,110,0
94.81265,95.00849,57,110,0
94.81265,95.00849,62,110,0
94.81265,95.00849,66,110,0
95.01266,95.20849,57,110,0
95.01266,95.20849,62,110,0
95.01266,95.20849,66,110,0
95.212654,95.40849,57,110,0
95.212654,95.40849,62,110,0
95.212654,95.40849,66,110,0
95.41266,95.60849,57,110,0
95.41266,95.60849,62,110,0
95.41266,95.60849,67,110,0
95.612656,95.80849,67,110,0
95.612656,95.80849,62,110,0
95.612656,95.80849,57,110,0
95.81265,96.00849,67,110,0
95.81265,96.00849,62,110,0
95.81265,96.00849,57,110,0
96.01266,96.20849,57,110,0
96.01266,96.20849,61,110,0
96.01266,96.20849,67,110,0
96.212654,96.40849,57,110,0
96.212654,96.40849,61,110,0
96.212654,96.40849,67,110,0
96.41266,96.60849,45,90,0
96.41266,96.60849,57,90,0
96.612656,96.80849,50,70,0
96.712654,96.90849,62,70,0
96.81265,97.00849,61,70,0
96.91266,97.10849,62,70,0
97.01266,97.20849,60,70,0
97.112656,97.30849,62,70,0
97.212654,97.40849,59,70,0
97.31265,97.50849,62,70,0
97.41266,97.60849,60,95,0
97.51266,97.70849,62,70,0
97.612656,97.80849,59,70,0
97.712654,97.80849,62,70,0
97.81265,98.00849,57,70,0
97.91266,98.10849,62,70,0
98.01266,98.20849,59,95,0
98.112656,98.30849,62,70,0
98.212654,98.40849,57,70,0
98.31265,98.50849,62,70,0
98.41266,98.60849,55,70,0
98.51266,98.70849,62,70,0
98.612656,98.80849,57,95,0
98.712654,98.90849,62,70,0
98.81265,99.00849,55,70,0
98.91266,99.00849,62,70,0
99.01266,99.20849,54,70,0
99.112656,99.30849,62,70,0
99.212654,99.40849,55,95,0
99.31265,99.50849,62,70,0
99.41266,99.60849,54,70,0
99.51266,99.70849,62,70,0
99.612656,99.80849,52,70,0
99.712654,99.90849,62,70,0
99.81265,100.00849,50,70,0
99.91266,100.10849,62,70,0
100.01266,100.20849,52,70,0
100.112656,100.20849,62,70,0
100.212654,100.40849,50,70,0
100.31265,100.50849,62,70,0
100.41266,100.60849,52,70,0
100.51266,100.70849,62,70,0
100.612656,100.80849,50,70,0
100.712654,100.90849,62,70,0
100.81265,101.00849,52,70,0
100.91266,101.10849,62,70,0
101.01266,101.20849,50,70,0
101.112656,101.30849,62,70,0
101.212654,101.40849,52,70,0
101.31265,101.40849,62,70,0
101.41266,101.60849,38,70,0
101.51266,101.70849,50,70,0
101.612656,101.80849,49,70,0
101.712654,101.90849,50,70,0
101.81265,102.00849,48,70,0
101.91266,102.10849,50,70,0
102.01266,102.20849,47,70,0
102.112656,102.30849,50,70,0
102.212654,102.40849,48,70,0
102.31265,102.50849,50,70,0
102.41266,102.60849,47,70,0
102.51266,102.60849,50,70,0
102.612656,102.80849,45,70,0
102.712654,102.90849,50,70,0
102.81265,103.00849,47,70,0
102.91266,103.10849,50,70,0
103.01266,103.20849,45,70,0
103.112656,103.30849,50,70,0
103.212654,103.40849,43,70,0
103.31265,103.50849,50,70,0
103.41266,103.60849,45,70,0
103.51266,103.70849,50,70,0
103.612656,103.80849,43,70,0
103.712654,103.80849,50,70,0
103.81265,104.00849,42,70,0
103.91266,104.10849,50,70,0
104.01266,104.20849,43,70,0
104.112656,104.30849,50,70,0
104.212654,104.40849,42,70,0
104.31265,104.50849,50,70,0
104.41266,104.60849,40,70,0
104.51266,104.70849,50,70,0
104.612656,104.80849,38,70,0
104.712654,104.90849,50,70,0
104.81265,105.00849,40,70,0
104.91266,105.00849,50,70,0
105.01266,105.20849,38,70,0
105.112656,105.30849,50,70,0
105.212654,105.40849,40,70,0
105.31265,105.50849,50,70,0
105.41266,105.60849,38,70,0
105.51266,105.70849,50,70,0
105.612656,105.80849,40,70,0
105.712654,105.90849,50,70,0
105.81265,106.00849,38,70,0
105.91266,106.10849,50,70,0
106.01266,106.20849,40,70,0
106.112656,106.20849,50,70,0
106.212654,106.40849,38,70,0
106.31265,106.50849,50,70,0
106.41266,106.60849,39,70,0
106.51266,106.70849,50,70,0
106.612656,106.80849,38,70,0
106.712654,106.90849,50,70,0
106.81265,107.00849,39,70,0
106.91266,107.10849,50,70,0
107.01266,107.20849,38,70,0
107.112656,107.30849,50,70,0
107.212654,107.40849,39,70,0
107.31265,107.50849,50,70,0
107.41266,107.60849,38,70,0
107.51266,107.70849,50,70,0
107.612656,107.80849,39,70,0
107.712654,107.90849,50,70,0
107.81265,108.00849,38,70,0
107.91266,108.10849,50,70,0
108.01266,108.20849,39,70,0
108.112656,108.30849,50,70,0
108.212654,108.40849,38,70,0
108.31265,108.50849,50,70,0
108.41266,108.60849,39,70,0
108.51266,108.70849,50,70,0
108.612656,108.80849,38,70,0
108.712654,108.90849,50,71,0
108.81265,109.00849,49,72,0
108.91266,109.10849,50,74,0
109.01266,109.20849,49,75,0
109.112656,109.30849,50,77,0
109.212654,109.40849,48,78,0
109.31265,109.50849,50,80,0
109.41266,109.60849,48,81,0
109.51266,109.70849,50,83,0
109.612656,109.80849,48,84,0
109.712654,109.90849,50,86,0
109.81265,110.00849,47,87,0
109.91266,110.10849,50,89,0
110.01266,110.20849,47,90,0
110.112656,110.30849,50,92,0
110.212654,110.40849,47,93,0
110.31265,110.50849,50,95,0
110.41266,110.60849,45,96,0
110.51266,110.70849,50,97,0
110.612656,110.80849,45,99,0
110.712654,110.90849,50,100,0
110.81265,111.00849,45,90,0
110.91266,111.00849,50,80,0
111.01266,111.10849,43,70,0
111.112656,111.20849,42,70,0
111.212654,111.30849,40,70,0
111.31265,111.40849,38,70,0
111.41266,111.50849,40,70,0
111.51266,111.60849,42,70,0
111.612656,111.70849,43,70,0
111.712654,111.80849,42,70,0
111.81265,111.90849,40,70,0
111.91266,112.00849,38,70,0
112.01266,112.10849,40,70,0
112.112656,112.20849,42,70,0
112.212654,112.40849,43,70,0
112.41266,112.60849,47,70,0
112.612656,112.80849,50,70,0
112.81265,113.00849,55,70,0
113.01266,113.21385,59,70,0
113.21813,113.419334,62,70,0
113.423615,113.83029,67,70,0
113.423615,113.83029,71,70,0
114.040054,114.46416,62,94,0
114.040054,114.46416,69,94,0
114.68291,114.89273,55,110,0
114.68291,114.89273,67,110,0
114.897194,115.10702,50,110,0
114.897194,115.10702,62,110,0
115.70077,115.82056,38,70,0
115.82577,115.9216,40,70,0
115.925766,116.0216,42,70,0
116.025764,116.1216,43,70,0
116.12576,116.221596,42,70,0
116.22576,116.321594,40,70,0
116.32577,116.4216,38,70,0
116.425766,116.5216,40,70,0
116.525764,116.6216,42,70,0
116.62576,116.721596,43,70,0
116.72576,116.821594,42,70,0
116.82577,116.9216,40,70,0
116.925766,117.0216,38,70,0
117.025764,117.1216,40,70,0
117.12576,117.221596,42,70,0
117.22576,117.4216,43,70,0
117.425766,117.6216,47,70,0
117.62576,117.821594,50,70,0
117.82577,118.0216,55,70,0
118.025764,118.22696,59,70,0
118.23125,118.44106,62,70,0
118.445526,118.86964,67,70,0
118.445526,118.86964,71,70,0
119.08839,119.51249,62,94,0
119.08839,119.51249,69,94,0
119.73124,119.94106,55,110,0
119.73124,119.94106,67,110,0
119.945526,120.15535,55,110,0
119.945526,120.15535,67,110,0
121.0741,121.869934,64,70,0
121.8741,122.06993,62,70,0
122.0741,122.26993,60,70,0
122.2741,123.06993,59,70,0
123.0741,123.26993,57,70,0
123.2741,123.46993,55,70,0
123.4741,124.06993,64,70,0
123.4741,124.06993,60,70,0
124.0741,124.66993,62,70,0
124.674095,124.869934,43,70,0
124.8741,125.06993,55,70,0
125.0741,125.26993,55,70,0
125.2741,125.46993,55,70,0
125.4741,125.66993,54,70,0
125.674095,125.869934,53,70,0
125.8741,126.66993,52,70,0
126.674095,126.869934,50,70,0
126.8741,127.06993,48,70,0
127.0741,127.869934,47,70,0
127.8741,128.06993,45,70,0
128.0741,128.26993,43,70,0
128.2741,128.66994,48,70,0
128.6741,128.86993,49,70,0
128.8741,129.26993,50,70,0
129.2741,129.46992,38,70,0
129.4741,129.86993,31,70,0
129.6741,129.86993,43,70,0
129.8741,130.06993,43,70,0
130.0741,130.26993,43,70,0
130.2741,130.36993,42,70,0
130.3741,130.46992,43,70,0
130.4741,130.56993,45,70,0
130.5741,130.66994,47,70,0
130.6741,131.06993,48,70,0
131.0741,131.26993,49,70,0
131.2741,131.66994,50,70,0
131.6741,131.86993,38,70,0
131.8741,132.26993,31,70,0
132.0741,132.26993,43,70,0
132.2741,132.46992,43,70,0
132.4741,132.66994,43,70,0
132.6741,132.76993,42,70,0
132.7741,132.86993,43,70,0
132.8741,132.96992,45,70,0
132.9741,133.06993,47,70,0
133.0741,133.2753,36,70,0
133.27957,133.48077,48,70,0
133.48506,133.68625,48,70,0
133.69054,133.89174,36,70,0
133.89601,134.10583,48,70,0
134.1103,134.32011,48,70,0
134.32458,134.52042,38,70,0
134.52458,134.72041,54,70,0
134.52458,134.72041,50,70,0
134.72458,134.92043,50,70,0
134.72458,134.92043,54,70,0
134.92459,135.12042,57,70,0
134.92459,135.12042,54,70,0
134.92459,135.12042,50,70,0
135.12459,135.32042,57,70,0
135.12459,135.32042,54,70,0
135.12459,135.32042,50,70,0
135.32458,135.52042,57,70,0
135.32458,135.52042,54,70,0
135.32458,135.52042,50,70,0
135.52458,135.72041,50,70,0
135.52458,135.72041,54,70,0
135.52458,135.72041,57,70,0
135.72458,135.92043,50,70,0
135.72458,135.92043,54,70,0
135.72458,135.92043,57,70,0
135.92459,136.12042,50,70,0
135.92459,136.12042,54,70,0
135.92459,136.12042,57,70,0
136.12459,136.32042,50,70,0
136.12459,136.32042,54,70,0
136.12459,136.32042,57,70,0
136.32458,136.52042,50,70,0
136.32458,136.52042,54,70,0
136.32458,136.52042,57,70,0
136.52458,136.72041,50,70,0
136.52458,136.72041,54,70,0
136.52458,136.72041,57,70,0
136.72458,136.92043,40,70,0
136.92459,137.12042,52,70,0
136.92459,137.12042,55,70,0
136.92459,137.12042,57,70,0
137.12459,137.32042,52,70,0
137.12459,137.32042,55,70,0
137.12459,137.32042,57,70,0
137.32458,137.52042,52,70,0
137.32458,137.52042,55,70,0
137.32458,137.52042,57,70,0
137.52458,137.72041,52,70,0
137.52458,137.72041,55,70,0
137.52458,137.72041,57,70,0
137.72458,137.92043,52,70,0
137.72458,137.92043,55,70,0
137.72458,137.92043,57,70,0
137.92459,138.12042,52,70,0
137.92459,138.12042,55,70,0
137.92459,138.12042,57,70,0
138.12459,138.32042,52,70,0
138.12459,138.32042,55,70,0
138.12459,138.32042,57,70,0
138.32458,138.52042,52,70,0
138.32458,138.52042,55,70,0
138.32458,138.52042,57,70,0
138.52458,138.72041,52,70,0
138.52458,138.72041,55,70,0
138.52458,138.72041,57,70,0
138.72458,138.92043,52,70,0
138.72458,138.92043,55,70,0
138.72458,138.92043,57,70,0
138.92459,139.12042,52,70,0
138.92459,139.12042,55,70,0
138.92459,139.12042,57,70,0
139.12459,139.32042,42,70,0
139.32458,139.52042,54,70,0
139.32458,139.52042,57,70,0
139.32458,139.52042,60,70,0
139.52458,139.72041,54,70,0
139.52458,139.72041,57,70,0
139.52458,139.72041,60,70,0
139.72458,139.92043,54,70,0
139.72458,139.92043,57,70,0
139.72458,139.92043,60,70,0
139.92459,140.12042,54,70,0
139.92459,140.12042,57,70,0
139.92459,140.12042,60,70,0
140.12459,140.32042,54,70,0
140.12459,140.32042,57,70,0
140.12459,140.32042,60,70,0
140.32458,140.52042,54,70,0
140.32458,140.52042,57,70,0
140.32458,140.52042,60,70,0
140.52458,140.72041,54,70,0
140.52458,140.72041,57,70,0
140.52458,140.72041,60,70,0
140.72458,140.92043,54,70,0
140.72458,140.92043,57,70,0
140.72458,140.92043,60,70,0
140.92459,141.12042,54,70,0
140.92459,141.12042,57,70,0
140.92459,141.12042,60,70,0
141.12459,141.32042,54,70,0
141.12459,141.32042,57,70,0
141.12459,141.32042,60,70,0
141.32458,141.52042,54,70,0
141.32458,141.52042,57,70,0
141.32458,141.52042,60,70,0
141.52458,141.72041,43,70,0
141.72458,141.92043,55,70,0
141.72458,141.92043,59,70,0
141.92459,142.12042,55,70,0
141.92459,142.12042,59,70,0
142.12459,142.32042,55,70,0
142.12459,142.32042,59,70,0
142.32458,142.52042,55,70,0
142.32458,142.52042,59,70,0
142.52458,142.72041,55,70,0
142.52458,142.72041,59,70,0
142.72458,142.92043,44,70,0
142.92459,143.12042,56,70,0
142.92459,143.12042,59,70,0
142.92459,143.12042,64,70,0
143.12459,143.32042,56,70,0
143.12459,143.32042,59,70,0
143.12459,143.32042,64,70,0
143.32458,143.52042,56,70,0
143.32458,143.52042,59,70,0
143.32458,143.52042,64,70,0
143.52458,143.72041,56,70,0
143.52458,143.72041,59,70,0
143.52458,143.72041,64,70,0
143.72458,143.92043,56,70,0
143.72458,143.92043,59,70,0
143.72458,143.92043,64,70,0
143.92459,144.12042,45,70,0
144.12459,144.32042,57,70,0
144.12459,144.32042,61,70,0
144.12459,144.32042,64,70,0
144.32458,144.52042,57,70,0
144.32458,144.52042,61,70,0
144.32458,144.52042,64,70,0
144.52458,144.72041,57,70,0
144.52458,144.72041,62,70,0
144.52458,144.72041,64,70,0
144.72458,144.92043,57,70,0
144.72458,144.92043,62,70,0
144.72458,144.92043,64,70,0
144.92459,145.12042,57,70,0
144.92459,145.12042,62,70,0
144.92459,145.12042,64,70,0
145.12459,145.32042,57,70,0
145.12459,145.32042,61,70,0
145.12459,145.32042,64,70,0
145.32458,145.52042,57,70,0
145.32458,145.52042,61,70,0
145.32458,145.52042,64,70,0
145.52458,145.72041,57,70,0
145.52458,145.72041,61,70,0
145.52458,145.72041,64,70,0
145.72458,145.92043,57,70,0
145.72458,145.92043,62,70,0
145.72458,145.92043,64,70,0
145.92459,146.12042,57,70,0
145.92459,146.12042,62,70,0
145.92459,146.12042,64,70,0
146.12459,146.32042,57,70,0
146.12459,146.32042,62,70,0
146.12459,146.32042,64,70,0
146.32458,146.52042,45,70,0
146.52458,146.72041,57,70,0
146.52458,146.72041,61,70,0
146.52458,146.72041,64,70,0
146.72458,146.92043,57,70,0
146.72458,146.92043,61,70,0
146.72458,146.92043,64,70,0
146.92459,147.12042,57,70,0
146.92459,147.12042,62,70,0
146.92459,147.12042,64,70,0
147.12459,147.32042,57,70,0
147.12459,147.32042,62,70,0
147.12459,147.32042,64,70,0
147.32458,147.52042,57,70,0
147.32458,147.52042,62,70,0
147.32458,147.52042,64,70,0
147.52458,147.72041,57,70,0
147.52458,147.72041,61,70,0
147.52458,147.72041,64,70,0
147.72458,147.92043,57,70,0
147.72458,147.92043,61,70,0
147.72458,147.92043,64,70,0
147.92459,148.12042,57,70,0
147.92459,148.12042,61,70,0
147.92459,148.12042,64,70,0
148.12459,148.32042,57,70,0
148.12459,148.32042,62,70,0
148.12459,148.32042,64,70,0
148.32458,148.52042,57,70,0
148.32458,148.52042,62,70,0
148.32458,148.52042,64,70,0
148.52458,148.72041,57,70,0
148.52458,148.72041,62,70,0
148.52458,148.72041,64,70,0
148.72458,148.82042,57,100,0
148.82458,148.92043,64,100,0
148.92459,149.02042,62,100,0
149.02458,149.12042,61,100,0
149.12459,149.22041,59,100,0
149.22458,149.32042,57,100,0
149.32458,149.42043,56,100,0
149.42459,149.52042,54,100,0
149.52458,149.62042,52,100,0
149.62459,149.72041,50,100,0
149.72458,149.82042,49,100,0
149.82458,149.92043,47,100,0
149.92459,150.02042,45,120,0
150.02458,150.12042,44,120,0
150.12459,150.22041,42,120,0
150.22458,150.32042,40,120,0
150.32458,150.42043,42,120,0
150.42459,150.52042,44,120,0
150.52458,150.62042,45,120,0
150.62459,150.72041,44,120,0
150.72458,150.82042,42,120,0
150.82458,150.92043,40,120,0
150.92459,151.02042,42,120,0
151.02458,151.12042,44,120,0
151.12459,151.52042,45,120,0
152.32458,152.96298,42,50,0
152.96744,153.60583,35,50,0
153.6103,154.24869,30,50,0
153.6103,154.24869,42,50,0
154.89601,154.99185,50,50,0
154.99602,155.09184,49,50,0
155.09601,155.19185,47,50,0
155.19601,155.29184,45,50,0
155.296,155.39185,47,50,0
155.39601,155.49185,49,50,0
155.49602,155.59184,50,50,0
155.59601,155.69185,49,50,0
155.69601,155.79184,47,50,0
155.796,155.89185,45,50,0
155.89601,155.99185,47,50,0
155.99602,156.09184,49,50,0
156.09601,156.49185,50,50,0
157.296,157.9344,47,50,0
157.93887,158.57726,40,50,0
158.58173,159.00583,35,50,0
158.58173,159.00583,47,50,0
159.86743,159.96327,55,50,0
159.96744,160.06328,54,50,0
160.06744,160.16327,52,50,0
160.16743,160.26328,50,50,0
160.26744,160.36327,52,50,0
160.36743,160.46327,54,50,0
160.46744,160.56328,55,50,0
160.56744,160.66327,54,50,0
160.66743,160.76328,52,50,0
160.76744,160.86327,50,50,0
160.86743,160.96327,52,50,0
160.96744,161.06328,54,50,0
161.06744,161.46327,55,70,0
162.26744,162.86327,52,70,0
162.86743,163.06328,45,70,0
163.06744,163.26328,47,70,0
163.26744,163.46327,48,70,0
163.46744,164.06328,50,70,0
164.06744,164.26328,43,70,0
164.26744,164.46327,45,70,0
164.46744,164.66327,47,70,0
164.66743,165.26328,49,70,0
165.26744,165.46327,42,70,0
165.46744,165.66327,43,70,0
165.66743,165.86327,45,70,0
165.86743,166.46327,47,70,0
166.46744,166.66327,40,70,0
166.66743,166.86327,42,70,0
166.86743,167.06328,43,70,0
167.06744,167.66327,45,70,0
167.66743,168.26328,38,70,0
168.26744,169.06328,31,70,0
169.06744,169.26328,47,70,0
169.26744,169.46327,43,70,0
169.46744,169.86327,45,70,0
170.07292,170.48822,57,70,0
170.07292,170.48822,45,70,0
170.70697,170.9168,38,110,0
170.92125,171.112,50,110,0
171.11606,171.30681,50,110,0
171.31087,171.5016,50,110,0
171.50566,171.69641,50,110,0
171.70047,171.89122,50,110,0
171.89528,172.08603,40,110,0
172.09009,172.28082,52,110,0
172.28488,172.47563,52,110,0
172.47969,172.67044,52,110,0
172.6745,172.86525,52,110,0
172.86931,173.06004,52,110,0
173.0641,173.25485,37,110,0
173.25891,173.44966,49,110,0
173.45372,173.64447,45,110,0
173.64853,173.83926,49,110,0
173.84332,174.03407,49,110,0
174.03813,174.22888,45,110,0
174.23294,174.42369,38,100,0
174.42773,174.61848,50,100,0
174.62254,174.8133,50,100,0
174.81735,175.0081,50,100,0
175.01216,175.2029,52,100,0
175.20695,175.3977,49,100,0
175.40176,175.59251,38,125,0
175.59657,175.78732,50,100,0
175.79138,175.98212,50,100,0
175.98618,176.17693,50,100,0
176.18098,176.37173,50,100,0
176.3758,176.56654,50,100,0
176.5706,176.76134,40,100,0
176.7654,176.95615,52,100,0
176.9602,177.15096,52,100,0
177.15501,177.34576,52,100,0
177.34982,177.54056,52,100,0
177.54462,177.73537,52,100,0
177.73943,177.93018,37,125,0
177.93423,178.12498,49,100,0
178.12904,178.31978,45,100,0
178.32384,178.51459,49,125,0
178.51865,178.7094,49,100,0
178.71346,178.9042,45,100,0
178.90826,179.099,50,70,0
179.00566,179.19641,57,70,0
179.10306,179.29381,53,70,0
179.20047,179.3912,57,70,0
179.29787,179.48862,53,70,0
179.39526,179.58601,57,70,0
179.49268,179.68343,52,70,0
179.59007,179.78082,55,70,0
179.68747,179.87822,52,70,0
179.78488,179.97563,55,70,0
179.88228,180.07303,52,70,0
179.97969,180.17043,55,70,0
180.07709,180.26784,50,70,0
180.17448,180.36523,53,70,0
180.2719,180.46263,50,70,0
180.3693,180.56004,53,70,0
180.46669,180.65744,50,70,0
180.5641,180.75485,53,70,0
180.6615,180.85225,48,70,0
180.75891,180.94965,52,70,0
180.85631,181.04706,48,70,0
180.9537,181.14445,52,70,0
181.05112,181.24185,48,70,0
181.14851,181.33926,52,70,0
181.24591,181.43666,46,70,0
181.34332,181.53407,50,70,0
181.44072,181.63147,46,70,0
181.53813,181.72887,50,70,0
181.63553,181.82628,46,70,0
181.73293,181.92368,50,70,0
181.83034,182.02107,45,70,0
181.92773,182.11848,48,70,0
182.02513,182.21588,45,70,0
182.12254,182.31328,48,70,0
182.21994,182.41069,45,70,0
182.31734,182.50809,48,70,0
182.41475,182.6055,43,70,0
182.51215,182.7029,46,70,0
182.60956,182.8003,43,70,0
182.70695,182.8977,46,70,0
182.80435,182.9951,43,70,0
182.90176,183.0925,46,70,0
182.99916,183.18991,41,70,0
183.09656,183.28731,45,70,0
183.19397,183.38472,41,70,0
183.29137,183.48212,45,70,0
183.38878,183.57951,41,70,0
183.48618,183.57951,45,70,0
183.58357,183.77432,40,70,0
183.68098,183.87172,43,70,0
183.77838,183.96913,41,70,0
183.87578,184.06653,45,70,0
183.97319,184.16394,40,70,0
184.07059,184.26134,43,70,0
184.168,184.35873,41,70,0
184.2654,184.45615,45,70,0
184.3628,184.55354,40,70,0
184.4602,184.65094,43,70,0
184.5576,184.74835,41,70,0
184.655,184.84575,45,70,0
184.75241,184.94315,40,70,0
184.84981,185.04056,43,70,0
184.9472,185.13795,41,70,0
185.04462,185.23537,45,70,0
185.14201,185.33276,40,70,0
185.23943,185.43016,43,70,0
185.33682,185.52757,41,70,0
185.43422,185.62497,45,70,0
185.53163,185.72237,40,70,0
185.62903,185.81978,43,70,0
185.72643,185.91718,41,70,0
185.82384,186.01459,45,70,0
185.92123,186.11198,40,70,0
186.01865,186.20938,43,71,0
186.11604,186.3068,40,72,0
186.21344,186.40419,43,74,0
186.31085,186.50159,40,75,0
186.40825,186.599,43,76,0
186.50565,186.6964,38,78,0
186.60306,186.79381,47,79,0
186.70045,186.8912,38,80,0
186.79787,186.9886,47,82,0
186.89526,187.08601,38,83,0
186.99266,187.18341,47,84,0
187.09007,187.2808,37,86,0
187.18747,187.37822,49,87,0
187.28487,187.47562,37,88,0
187.38228,187.57301,49,90,0
187.47968,187.67043,37,91,0
187.57707,187.76782,49,92,0
187.67448,187.86523,34,94,0
187.77188,187.96263,46,95,0
187.8693,188.06003,34,96,0
187.96669,188.15744,46,98,0
188.06409,188.25484,34,99,0
188.1615,188.25484,46,100,0
188.2589,188.64445,35,100,0
188.2589,188.64445,47,100,0
188.8433,189.22887,50,92,0
188.8433,189.22887,52,92,0
188.8433,189.22887,44,92,0
189.43292,189.82875,54,84,0
189.43292,189.82875,50,84,0
189.43292,189.82875,45,84,0
190.03293,190.4396,45,76,0
190.03293,190.4396,49,76,0
190.03293,190.4396,55,76,0
190.65817,191.26828,50,70,0
191.27245,191.86829,48,70,0
191.87245,192.46828,47,70,0
190.65817,193.06828,38,70,0
192.47246,193.06828,49,70,0
193.07245,193.66829,50,70,0
193.67245,194.26828,42,70,0
194.27245,194.66829,43,70,0
194.67245,194.86829,45,70,0
194.87245,195.26828,47,70,0
193.07245,195.46828,38,70,0
195.27245,195.46828,49,70,0
195.47246,196.06828,50,100,0
196.07245,196.66829,48,70,0
196.67245,197.26828,47,70,0
195.47246,197.86829,38,101,0
197.27245,197.86829,49,70,0
197.87245,198.46828,50,70,0
198.47246,199.06828,42,70,0
199.07245,199.46828,43,70,0
199.47246,199.66829,45,70,0
199.67245,200.06828,47,70,0
197.87245,200.26828,38,70,0
200.07245,200.26828,49,70,0
200.27245,200.86829,50,70,0
200.87245,201.46828,42,77,0
201.47246,201.86829,43,84,0
201.87245,202.06828,45,89,0
202.07245,202.46828,47,91,0
200.27245,202.66829,38,70,0
202.47246,202.66829,49,96,0
202.67245,202.86829,38,98,0
202.67245,202.86829,50,98,0
203.07245,203.46828,54,110,0
203.47246,203.66829,52,110,0
203.67245,203.86829,50,110,0
203.87245,204.06828,49,110,0
204.07245,204.26828,50,110,0
204.27245,204.47365,47,110,0
204.47794,204.67912,45,110,0
204.68341,204.89323,47,110,0
204.89769,205.11691,44,110,0
205.12158,205.34079,45,110,0
205.34546,205.54129,57,110,0
205.34546,205.54129,62,110,0
205.34546,205.54129,66,110,0
205.54546,205.74129,57,110,0
205.54546,205.74129,62,110,0
205.54546,205.74129,66,110,0
205.74545,205.94128,57,110,0
205.74545,205.94128,62,110,0
205.74545,205.94128,66,110,0
205.94545,206.14128,57,110,0
205.94545,206.14128,62,110,0
205.94545,206.14128,66,110,0
206.14546,206.3413,57,110,0
206.14546,206.3413,62,110,0
206.14546,206.3413,66,110,0
206.34546,206.54129,57,110,0
206.34546,206.54129,62,110,0
206.34546,206.54129,67,110,0
206.54546,206.74129,67,110,0
206.54546,206.74129,62,110,0
206.54546,206.74129,57,110,0
206.74545,206.94128,67,110,0
206.74545,206.94128,62,110,0
206.74545,206.94128,57,110,0
206.94545,207.14128,57,110,0
206.94545,207.14128,61,110,0
206.94545,207.14128,67,110,0
207.14546,207.3413,57,110,0
207.14546,207.3413,61,110,0
207.14546,207.3413,67,110,0
207.34546,207.54129,45,90,0
207.34546,207.54129,57,90,0
207.54546,207.74129,50,70,0
207.64546,207.8413,62,70,0
207.74545,207.94128,61,70,0
207.84546,208.04129,62,70,0
207.94545,208.14128,60,70,0
208.04546,208.24129,62,70,0
208.14546,208.3413,59,70,0
208.24545,208.44128,62,70,0
208.34546,208.54129,60,95,0
208.44545,208.64128,62,70,0
208.54546,208.74129,59,70,0
208.64546,208.74129,62,70,0
208.74545,208.94128,57,70,0
208.84546,209.04129,62,70,0
208.94545,209.14128,59,95,0
209.04546,209.24129,62,70,0
209.14546,209.3413,57,70,0
209.24545,209.44128,62,70,0
209.34546,209.54129,55,70,0
209.44545,209.64128,62,70,0
209.54546,209.74129,57,95,0
209.64546,209.8413,62,70,0
209.74545,209.94128,55,70,0
209.84546,209.94128,62,70,0
209.94545,210.14128,54,70,0
210.04546,210.24129,62,70,0
210.14546,210.3413,55,95,0
210.24545,210.44128,62,70,0
210.34546,210.54129,54,70,0
210.44545,210.64128,62,70,0
210.54546,210.74129,52,70,0
210.64546,210.8413,62,70,0
210.74545,210.94128,50,70,0
210.84546,211.04129,62,70,0
210.94545,211.14128,52,70,0
211.04546,211.14128,62,70,0
211.14546,211.3413,50,70,0
211.24545,211.44128,62,70,0
211.34546,211.54129,52,70,0
211.44545,211.64128,62,70,0
211.54546,211.74129,50,70,0
211.64546,211.8413,62,70,0
211.74545,211.94128,52,70,0
211.84546,212.04129,62,70,0
211.94545,212.14128,50,70,0
212.04546,212.24129,62,70,0
212.14546,212.3413,52,70,0
212.24545,212.3413,62,70,0
212.34546,212.54129,38,70,0
212.44545,212.64128,50,70,0
212.54546,212.74129,49,70,0
212.64546,212.8413,50,70,0
212.74545,212.94128,48,70,0
212.84546,213.04129,50,70,0
212.94545,213.14128,47,70,0
213.04546,213.24129,50,70,0
213.14546,213.3413,48,70,0
213.24545,213.44128,50,70,0
213.34546,213.54129,47,70,0
213.44545,213.54129,50,70,0
213.54546,213.74129,45,70,0
213.64546,213.8413,50,70,0
213.74545,213.94128,47,70,0
213.84546,214.04129,50,70,0
213.94545,214.14128,45,70,0
214.04546,214.24129,50,70,0
214.14546,214.3413,43,70,0
214.24545,214.44128,50,70,0
214.34546,214.54129,45,70,0
214.44545,214.64128,50,70,0
214.54546,214.74129,43,70,0
214.64546,214.74129,50,70,0
214.74545,214.94128,42,70,0
214.84546,215.04129,50,70,0
214.94545,215.14128,43,70,0
215.04546,215.24129,50,70,0
215.14546,215.3413,42,70,0
215.24545,215.44128,50,70,0
215.34546,215.54129,40,70,0
215.44545,215.64128,50,70,0
215.54546,215.74129,38,70,0
215.64546,215.8413,50,70,0
215.74545,215.94128,40,70,0
215.84546,215.94128,50,70,0
215.94545,216.14128,38,70,0
216.04546,216.24129,50,70,0
216.14546,216.3413,40,70,0
216.24545,216.44128,50,70,0
216.34546,216.54129,38,70,0
216.44545,216.64128,50,70,0
216.54546,216.74129,40,70,0
216.64546,216.8413,50,70,0
216.74545,216.94128,38,70,0
216.84546,217.04129,50,70,0
216.94545,217.14128,40,70,0
217.04546,217.14128,50,70,0
217.14546,217.3413,38,70,0
217.24545,217.44128,50,70,0
217.34546,217.54129,39,70,0
217.44545,217.64128,50,70,0
217.54546,217.74129,38,70,0
217.64546,217.8413,50,70,0
217.74545,217.94128,39,70,0
217.84546,218.04129,50,70,0
217.94545,218.14128,38,70,0
218.04546,218.24129,50,70,0
218.14546,218.3413,39,70,0
218.24545,218.44128,50,70,0
218.34546,218.54129,38,70,0
218.44545,218.64128,50,70,0
218.54546,218.74129,39,70,0
218.64546,218.8413,50,70,0
218.74545,218.94128,38,70,0
218.84546,219.04129,50,70,0
218.94545,219.14128,39,70,0
219.04546,219.24129,50,70,0
219.14546,219.3413,38,70,0
219.24545,219.44128,50,70,0
219.34546,219.54129,39,70,0
219.44545,219.64128,50,70,0
219.54546,219.74129,38,70,0
219.64546,219.8413,50,71,0
219.74545,219.94128,49,72,0
219.84546,220.04129,50,74,0
219.94545,220.14128,49,75,0
220.04546,220.24129,50,77,0
220.14546,220.3413,48,78,0
220.24545,220.44128,50,80,0
220.34546,220.54129,48,81,0
220.44545,220.64128,50,83,0
220.54546,220.74129,48,84,0
220.64546,220.8413,50,86,0
220.74545,220.94128,47,87,0
220.84546,221.04129,50,88,0
220.94545,221.14128,47,89,0
221.04546,221.24129,50,90,0
221.14546,221.3413,47,92,0
221.24545,221.44128,50,93,0
221.34546,221.54129,45,94,0
221.44545,221.64128,50,95,0
221.54546,221.74129,44,97,0
221.64546,221.8413,50,98,0
221.74545,221.94128,45,99,0
221.84546,221.94128,50,100,0
221.94545,222.14128,44,100,0
222.04546,222.24129,50,100,0
222.14546,222.3413,45,100,0
222.24545,222.44128,50,100,0
222.34546,222.54129,44,100,0
222.44545,222.64128,50,100,0
222.54546,222.74129,45,100,0
222.64546,222.8413,50,100,0
222.74545,222.94128,44,100,0
222.84546,223.04129,50,100,0
222.94545,223.14128,45,100,0
223.04546,223.24129,50,100,0
223.14546,223.3413,44,100,0
223.24545,223.44128,50,100,0
223.34546,223.54129,45,100,0
223.44545,223.64128,50,100,0
223.54546,223.74129,44,100,0
223.64546,223.8413,50,100,0
223.74545,223.94128,45,125,0
223.84546,224.04129,50,121,0
223.94545,224.14128,44,117,0
224.04546,224.24129,50,113,0
224.14546,224.3413,45,108,0
224.24545,224.3413,50,104,0
224.34546,224.54129,44,70,0
224.44545,224.64128,52,71,0
224.54546,224.74129,51,72,0
224.64546,224.8413,52,74,0
224.74545,224.94128,51,75,0
224.84546,225.04129,52,76,0
224.94545,225.14128,50,78,0
225.04546,225.24129,52,79,0
225.14546,225.3413,50,80,0
225.24545,225.44128,52,82,0
225.34546,225.54129,50,83,0
225.44545,225.64128,52,84,0
225.54546,225.74129,48,86,0
225.64546,225.8413,52,87,0
225.74545,225.94128,48,88,0
225.84546,226.04129,52,90,0
225.94545,226.14128,48,91,0
226.04546,226.24129,52,92,0
226.14546,226.3413,47,94,0
226.24545,226.44128,52,95,0
226.34546,226.54129,46,96,0
226.44545,226.64128,52,98,0
226.54546,226.74129,47,99,0
226.64546,226.74129,52,100,0
226.74545,226.94128,46,100,0
226.84546,227.04129,52,100,0
226.94545,227.14128,47,100,0
227.04546,227.24129,52,100,0
227.14546,227.3413,46,100,0
227.24545,227.44128,52,100,0
227.34546,227.54129,47,100,0
227.44545,227.64128,52,100,0
227.54546,227.74129,46,100,0
227.64546,227.8413,52,100,0
227.74545,227.94128,47,100,0
227.84546,228.04129,52,100,0
227.94545,228.14128,46,100,0
228.04546,228.24129,52,100,0
228.14546,228.3413,47,100,0
228.24545,228.44128,52,100,0
228.34546,228.54129,46,100,0
228.44545,228.64128,52,100,0
228.54546,228.74129,47,100,0
228.64546,228.8413,52,100,0
228.74545,228.94128,46,100,0
228.84546,229.04129,52,100,0
228.94545,229.14128,47,100,0
229.04546,229.14128,52,100,0
229.14546,229.3413,46,70,0
229.24545,229.44128,54,71,0
229.34546,229.54129,53,72,0
229.44545,229.64128,54,74,0
229.54546,229.74129,53,75,0
229.64546,229.8413,54,76,0
229.74545,229.94128,52,78,0
229.84546,230.04129,54,79,0
229.94545,230.14128,52,80,0
230.04546,230.24129,54,82,0
230.14546,230.3413,52,83,0
230.24545,230.44128,54,84,0
230.34546,230.54129,50,86,0
230.44545,230.64128,54,87,0
230.54546,230.74129,50,88,0
230.64546,230.8413,54,90,0
230.74545,230.94128,50,91,0
230.84546,231.04129,54,92,0
230.94545,231.14128,49,94,0
231.04546,231.24129,54,95,0
231.14546,231.3413,49,96,0
231.24545,231.44128,54,98,0
231.34546,231.54129,49,99,0
231.44545,231.54129,54,100,0
231.54546,231.74129,48,100,0
231.64546,231.8413,54,100,0
231.74545,231.94128,49,100,0
231.84546,232.04129,54,100,0
231.94545,232.14128,48,100,0
232.04546,232.24129,54,100,0
232.14546,232.3413,49,100,0
232.24545,232.44128,54,100,0
232.34546,232.54129,48,100,0
232.44545,232.64128,54,100,0
232.54546,232.74129,49,100,0
232.64546,232.8413,54,100,0
232.74545,232.94128,48,100,0
232.84546,233.04129,54,100,0
232.94545,233.14128,49,100,0
233.04546,233.24129,54,100,0
233.14546,233.3413,48,100,0
233.24545,233.44128,54,100,0
233.34546,233.54129,49,100,0
233.44545,233.64128,54,100,0
233.54546,233.74129,48,100,0
233.64546,233.8413,54,100,0
233.74545,233.94128,49,100,0
233.84546,233.94128,54,100,0
233.94545,234.3413,47,100,0
236.04546,236.14128,32,60,0
236.14546,236.24129,34,60,0
236.24545,236.3413,36,60,0
236.34546,236.44128,37,60,0
236.44545,236.54129,36,60,0
236.54546,236.64128,34,60,0
236.64546,236.74129,32,60,0
236.74545,236.8413,34,60,0
236.84546,236.94128,36,60,0
236.94545,237.04129,37,60,0
237.04546,237.14128,36,60,0
237.14546,237.24129,34,60,0
237.24545,237.3413,32,60,0
237.34546,237.44128,34,60,0
237.44545,237.54129,36,60,0
237.54546,237.74129,37,60,0
237.74545,237.94128,40,60,0
237.94545,238.14128,44,60,0
238.14546,238.3413,49,60,0
238.34546,238.54129,52,60,0
238.54546,238.74129,56,60,0
238.74545,239.14128,61,60,0
240.64546,240.74129,43,60,0
240.74545,240.8413,42,60,0
240.84546,240.94128,40,60,0
240.94545,241.04129,38,60,0
241.04546,241.14128,37,60,0
241.14546,241.24129,35,60,0
241.24545,241.3413,34,60,0
241.34546,241.44128,32,60,0
241.44545,241.54129,30,60,0
241.54546,241.64128,32,60,0
241.64546,241.74129,34,60,0
241.74545,241.8413,35,60,0
241.84546,241.94128,34,60,0
241.94545,242.04129,32,60,0
242.04546,242.14128,30,60,0
242.14546,242.24129,32,60,0
242.24545,242.3413,34,60,0
242.34546,242.54129,35,60,0
242.54546,242.74129,38,60,0
242.74545,242.94128,42,60,0
242.94545,243.14128,47,60,0
243.14546,243.3413,50,60,0
243.34546,243.54129,54,60,0
243.54546,243.94128,59,60,0
245.44545,245.54129,53,60,0
245.54546,245.64128,52,60,0
245.64546,245.74129,50,60,0
245.74545,245.8413,48,60,0
245.84546,245.94128,47,60,0
245.94545,246.04129,45,60,0
246.04546,246.14128,44,60,0
246.14546,246.24129,42,60,0
246.24545,246.3413,40,60,0
246.34546,246.44128,42,60,0
246.44545,246.54129,44,60,0
246.54546,246.64128,45,60,0
246.64546,246.74129,44,60,0
246.74545,246.8413,42,60,0
246.84546,246.94128,40,60,0
246.94545,247.04129,42,60,0
247.04546,247.14128,44,60,0
247.14546,247.3413,45,60,0
247.34546,247.54129,48,60,0
247.54546,247.74129,52,60,0
247.74545,247.94128,57,60,0
247.94545,248.14128,60,60,0
248.14546,248.3413,64,60,0
248.34546,248.74129,69,60,0
250.14546,250.24129,50,82,0
250.24545,250.3413,49,85,0
250.34546,250.44128,50,89,0
250.44545,250.54129,48,93,0
250.54546,250.64128,47,97,0
250.64546,250.74129,45,100,0
250.74545,250.8413,43,110,0
250.84546,250.94128,42,110,0
250.94545,251.04129,40,110,0
251.04546,251.14128,38,110,0
251.14546,251.24129,40,110,0
251.24545,251.3413,42,110,0
251.34546,251.44128,43,110,0
251.44545,251.54129,42,110,0
251.54546,251.64128,40,110,0
251.64546,251.74129,38,110,0
251.74545,251.8413,40,110,0
251.84546,251.94128,42,110,0
251.94545,252.14128,43,110,0
252.14546,252.3413,47,110,0
252.34546,252.54129,50,110,0
252.54546,252.74129,55,110,0
252.74545,252.94128,59,110,0
252.94545,253.14665,62,110,0
253.15094,253.55762,67,110,0
253.15094,253.55762,71,110,0
253.76736,254.19148,62,70,0
253.76736,254.19148,69,70,0
254.41023,254.63618,55,70,0
254.41023,254.63618,67,70,0
254.64099,254.86696,50,70,0
254.64099,254.86696,62,70,0
255.47754,255.59732,38,70,0
255.60254,255.69836,40,70,0
255.70253,255.79837,42,70,0
255.80254,255.89836,43,70,0
255.90254,255.99837,42,70,0
256.00253,256.09836,40,70,0
256.10254,256.19836,38,70,0
256.20255,256.29837,40,70,0
256.30252,256.39838,42,70,0
256.40253,256.49838,43,70,0
256.50253,256.59836,42,70,0
256.60254,256.69836,40,70,0
256.70255,256.79837,38,70,0
256.80252,256.89838,40,70,0
256.90253,256.99838,42,70,0
257.00253,257.19836,43,70,0
257.20255,257.39838,47,70,0
257.40253,257.59836,50,70,0
257.60254,257.79837,55,70,0
257.80252,258.00372,59,70,0
258.00803,258.21783,62,70,0
258.2223,258.6464,67,70,0
258.2223,258.6464,71,70,0
258.86514,259.29544,62,94,0
258.86514,259.29544,69,94,0
259.52063,259.74658,55,110,0
259.52063,259.74658,67,110,0
259.75137,259.97736,55,110,0
259.75137,259.97736,67,110,0
261.01294,261.80875,64,70,0
261.81293,262.00876,62,70,0
262.01294,262.20877,60,70,0
262.21292,263.00876,59,70,0
263.01294,263.20877,57,70,0
263.21292,263.40875,55,70,0
263.41293,264.00876,64,70,0
263.41293,264.00876,60,70,0
264.01294,264.60876,62,70,0
264.6129,264.80875,43,70,0
264.81293,265.00876,55,70,0
265.01294,265.20877,55,70,0
265.21292,265.40875,55,70,0
265.41293,265.60876,54,70,0
265.6129,265.80875,53,70,0
265.81293,266.60876,52,70,0
266.6129,266.80875,50,70,0
266.81293,267.00876,48,70,0
267.01294,267.80875,47,70,0
267.81293,268.00876,45,70,0
268.01294,268.20877,43,70,0
268.21292,268.60876,48,70,0
268.6129,268.80875,49,70,0
268.81293,269.20877,50,70,0
269.21292,269.40875,38,70,0
269.41293,269.80875,31,70,0
269.6129,269.80875,43,70,0
269.81293,270.00876,43,70,0
270.01294,270.20877,43,70,0
270.21292,270.30875,42,70,0
270.31293,270.40875,43,70,0
270.41293,270.50876,45,70,0
270.51294,270.60876,47,70,0
270.6129,271.00876,48,70,0
271.01294,271.20877,49,70,0
271.21292,271.60876,50,70,0
271.6129,271.80875,38,70,0
271.81293,272.20877,31,70,0
272.01294,272.20877,43,70,0
272.21292,272.40875,43,70,0
272.41293,272.60876,43,70,0
272.6129,272.70877,42,70,0
272.71292,272.80875,43,70,0
272.81293,272.90875,45,70,0
272.91293,273.00876,47,70,0
273.01294,273.20877,36,70,0
273.21292,273.40875,48,71,0
273.41293,273.60876,48,72,0
273.6129,273.80875,36,73,0
273.81293,274.00876,48,74,0
274.01294,274.20877,48,75,0
274.21292,274.40875,38,76,0
274.41293,274.60876,50,77,0
274.41293,274.60876,54,77,0
274.41293,274.60876,57,77,0
274.6129,274.80875,50,78,0
274.6129,274.80875,54,78,0
274.6129,274.80875,57,78,0
274.81293,275.00876,50,79,0
274.81293,275.00876,55,79,0
274.81293,275.00876,57,79,0
275.01294,275.20877,50,80,0
275.01294,275.20877,55,80,0
275.01294,275.20877,57,80,0
275.21292,275.40875,50,81,0
275.21292,275.40875,55,81,0
275.21292,275.40875,57,81,0
275.41293,275.60876,50,82,0
275.41293,275.60876,54,82,0
275.41293,275.60876,57,82,0
275.6129,275.80875,50,83,0
275.6129,275.80875,54,83,0
275.6129,275.80875,57,83,0
275.81293,276.00876,50,84,0
275.81293,276.00876,54,84,0
275.81293,276.00876,57,84,0
276.01294,276.20877,50,85,0
276.01294,276.20877,55,85,0
276.01294,276.20877,57,85,0
276.21292,276.40875,50,86,0
276.21292,276.40875,55,86,0
276.21292,276.40875,57,86,0
276.41293,276.60876,50,87,0
276.41293,276.60876,55,87,0
276.41293,276.60876,57,87,0
276.6129,276.80875,38,88,0
276.81293,277.00876,50,89,0
276.81293,277.00876,54,89,0
276.81293,277.00876,57,89,0
277.01294,277.20877,50,90,0
277.01294,277.20877,54,90,0
277.01294,277.20877,57,90,0
277.21292,277.40875,50,91,0
277.21292,277.40875,55,91,0
277.21292,277.40875,57,91,0
277.41293,277.60876,50,92,0
277.41293,277.60876,55,92,0
277.41293,277.60876,57,92,0
277.6129,277.80875,50,94,0
277.6129,277.80875,55,94,0
277.6129,277.80875,57,94,0
277.81293,278.00876,50,95,0
277.81293,278.00876,54,95,0
277.81293,278.00876,57,95,0
278.01294,278.20877,50,96,0
278.01294,278.20877,54,96,0
278.01294,278.20877,57,96,0
278.21292,278.40875,50,97,0
278.21292,278.40875,54,97,0
278.21292,278.40875,57,97,0
278.41293,278.60876,50,98,0
278.41293,278.60876,55,98,0
278.41293,278.60876,57,98,0
278.6129,278.80875,50,99,0
278.6129,278.80875,55,99,0
278.6129,278.80875,57,99,0
278.81293,279.00876,50,100,0
278.81293,279.00876,55,100,0
278.81293,279.00876,57,100,0
279.01294,279.10876,50,100,0
279.1129,279.20877,57,100,0
279.21292,279.30875,55,100,0
279.31293,279.40875,54,100,0
279.41293,279.50876,52,100,0
279.51294,279.60876,50,100,0
279.6129,279.70877,49,100,0
279.71292,279.80875,47,100,0
279.81293,279.90875,45,100,0
279.91293,280.00876,43,100,0
280.01294,280.10876,42,100,0
280.1129,280.20877,40,100,0
280.21292,280.30875,38,125,0
280.31293,280.40875,37,100,0
280.41293,280.50876,35,100,0
280.51294,280.60876,33,100,0
280.6129,280.70877,35,100,0
280.71292,280.80875,37,100,0
280.81293,280.90875,38,125,0
280.91293,281.00876,37,100,0
281.01294,281.10876,35,100,0
281.1129,281.20877,33,100,0
281.21292,281.30875,35,100,0
281.31293,281.40875,37,100,0
281.41293,281.80875,38,100,0
282.6129,283.2513,47,70,0
283.25577,283.89417,40,70,0
283.89865,284.53702,35,70,0
283.89865,284.53702,47,70,0
285.18436,285.28018,55,70,0
285.28436,285.3802,54,70,0
285.38434,285.4802,52,70,0
285.48434,285.58017,50,70,0
285.58435,285.68018,52,70,0
285.68436,285.78018,54,70,0
285.78436,285.8802,55,70,0
285.88434,285.9802,54,70,0
285.98434,286.08017,52,70,0
286.08435,286.18018,50,70,0
286.18436,286.28018,52,70,0
286.28436,286.3802,54,70,0
286.38434,286.78018,55,70,0
287.58435,288.22275,52,70,0
288.2272,288.8656,45,70,0
288.87006,289.50845,40,70,0
288.87006,289.50845,52,70,0
290.15576,290.25162,60,70,0
290.25577,290.35162,59,70,0
290.35577,290.4516,57,70,0
290.45578,290.5516,55,70,0
290.5558,290.6516,57,70,0
290.65576,290.75162,59,70,0
290.75577,290.85162,60,70,0
290.85577,290.9516,59,70,0
290.95578,291.0516,57,70,0
291.0558,291.1516,55,70,0
291.15576,291.25162,57,70,0
291.25577,291.35162,59,70,0
291.35577,291.75162,60,70,0
292.5558,293.1516,57,70,0
293.15576,293.35162,50,70,0
293.35577,293.5516,52,70,0
293.5558,293.75162,53,70,0
293.75577,294.35162,55,70,0
294.35577,294.5516,48,70,0
294.5558,294.75162,50,70,0
294.75577,294.9516,52,70,0
294.95578,295.5516,54,70,0
295.5558,295.75162,47,70,0
295.75577,295.9516,48,70,0
295.95578,296.1516,50,70,0
296.15576,296.75162,52,70,0
296.75577,296.9516,45,70,0
296.95578,297.1516,47,70,0
297.15576,297.35162,48,70,0
297.35577,297.9516,50,70,0
297.95578,298.5516,43,78,0
298.5558,299.35162,36,86,0
299.35577,299.5516,52,98,0
299.5558,299.75162,48,100,0
299.75577,300.1516,38,70,0
299.75577,300.1516,50,70,0
300.36127,300.77655,38,70,0
300.36127,300.77655,50,70,0
301.0049,301.22412,43,100,0
301.2288,301.41953,55,100,0
301.42358,301.61432,55,100,0
301.61838,301.80914,55,100,0
301.8132,302.00394,55,100,0
302.008,302.19876,55,100,0
302.20282,302.39355,45,100,0
302.3976,302.58835,57,100,0
302.5924,302.78317,57,100,0
302.78723,302.97797,57,100,0
302.98203,303.17276,57,100,0
303.17682,303.36758,57,100,0
303.37164,303.56238,42,125,0
303.56644,303.7572,54,100,0
303.76126,303.952,50,100,0
303.95605,304.1468,54,125,0
304.15085,304.3416,54,100,0
304.34567,304.5364,50,100,0
304.54047,304.7312,43,100,0
304.73526,304.92603,55,100,0
304.93008,305.12082,55,100,0
305.12488,305.3156,55,100,0
305.31967,305.51044,57,100,0
305.5145,305.70523,54,100,0
305.7093,305.90005,43,100,0
305.9041,306.09485,55,100,0
306.0989,306.28964,55,100,0
306.2937,306.48447,55,100,0
306.48853,306.67926,55,100,0
306.68332,306.87405,55,100,0
306.8781,307.06888,45,100,0
307.07294,307.26367,57,100,0
307.26773,307.4585,57,100,0
307.46255,307.6533,57,100,0
307.65735,307.84808,57,100,0
307.85214,308.0429,57,100,0
308.04697,308.2377,42,125,0
308.24176,308.4325,54,100,0
308.43655,308.62732,50,100,0
308.63138,308.8221,54,125,0
308.82617,309.01694,54,100,0
309.02097,309.21173,50,100,0
309.2158,309.40652,58,70,0
309.3132,309.50394,62,70,0
309.41058,309.60135,58,70,0
309.508,309.69873,62,70,0
309.6054,309.79614,58,70,0
309.7028,309.89355,62,70,0
309.8002,309.99094,57,70,0
309.8976,310.08835,60,70,0
309.995,310.18576,57,70,0
310.0924,310.28314,60,70,0
310.18982,310.38055,57,70,0
310.2872,310.38055,60,70,0
310.3846,310.57535,55,70,0
310.48203,310.67276,58,70,0
310.5794,310.77017,55,70,0
310.67682,310.86758,58,70,0
310.77423,310.96497,55,70,0
310.87164,311.06238,58,70,0
310.96902,311.1598,53,70,0
311.06644,311.25717,57,70,0
311.16385,311.35458,53,70,0
311.26123,311.452,57,70,0
311.35864,311.54938,53,70,0
311.45605,311.54938,57,70,0
311.55344,311.7442,51,70,0
311.65085,311.84158,55,70,0
311.74826,311.939,51,70,0
311.84564,312.0364,55,70,0
311.94305,312.1338,51,70,0
312.04047,312.2312,55,70,0
312.13785,312.3286,50,70,0
312.23526,312.426,53,70,0
312.33267,312.5234,50,70,0
312.43005,312.62082,53,70,0
312.52747,312.71823,50,70,0
312.62488,312.71823,53,70,0
312.7223,312.91302,48,70,0
312.81967,313.01044,51,70,0
312.91708,313.10782,48,70,0
313.0145,313.20523,51,70,0
313.11188,313.30264,48,70,0
313.2093,313.40002,51,70,0
313.3067,313.49744,46,70,0
313.40408,313.59485,50,70,0
313.5015,313.69223,46,70,0
313.5989,313.78964,50,70,0
313.6963,313.88705,46,70,0
313.7937,313.88705,50,70,0
313.8911,314.08185,45,70,0
313.9885,314.17926,48,70,0
314.0859,314.27667,46,70,0
314.18332,314.37405,50,70,0
314.2807,314.47147,45,70,0
314.3781,314.56888,48,70,0
314.47552,314.66626,46,70,0
314.57294,314.76367,50,70,0
314.67032,314.86108,45,70,0
314.76773,314.95847,48,70,0
314.86514,315.05588,46,70,0
314.96252,315.1533,50,70,0
315.05994,315.25067,45,70,0
315.15735,315.34808,48,70,0
315.25473,315.4455,46,70,0
315.35214,315.54288,50,70,0
315.44955,315.6403,45,70,0
315.54694,315.7377,48,70,0
315.64435,315.83508,46,70,0
315.74176,315.9325,50,70,0
315.83914,316.0299,45,70,0
315.93655,316.12732,48,70,0
316.03397,316.2247,46,70,0
316.13138,316.3221,50,70,0
316.22876,316.41953,45,71,0
316.32617,316.5169,48,72,0
316.42358,316.61432,45,73,0
316.52097,316.71173,48,75,0
316.61838,316.8091,45,76,0
316.7158,316.90652,48,77,0
316.81317,317.00394,43,79,0
316.91058,317.10132,52,80,0
317.008,317.19873,43,81,0
317.10538,317.29614,52,82,0
317.2028,317.39352,43,84,0
317.3002,317.49094,52,85,0
317.39758,317.58835,42,86,0
317.495,317.68573,54,88,0
317.5924,317.78314,42,89,0
317.6898,317.88055,54,90,0
317.7872,317.97797,42,91,0
317.8846,318.07535,54,93,0
317.98203,318.17276,39,94,0
318.0794,318.27017,51,95,0
318.17682,318.36755,39,97,0
318.27423,318.46497,51,98,0
318.3716,318.56238,39,99,0
318.46902,318.56238,51,100,0
318.56644,318.95197,40,100,0
318.56644,318.95197,52,100,0
319.15085,319.5364,49,92,0
319.15085,319.5364,55,92,0
319.15085,319.5364,57,92,0
319.74045,320.1363,50,84,0
319.74045,320.1363,55,84,0
319.74045,320.1363,59,84,0
320.34045,320.74713,50,76,0
320.34045,320.74713,54,76,0
320.34045,320.74713,60,76,0
320.9657,321.5758,55,100,0
321.58,322.1758,54,70,0
322.18,322.77582,52,70,0
320.9657,323.37582,43,100,0
322.77997,323.37582,54,70,0
323.37997,323.9758,55,70,0
323.97998,324.5758,47,70,0
324.58,324.9758,48,70,0
324.97998,325.1758,50,70,0
325.18,325.5758,52,70,0
323.37997,325.77582,43,70,0
325.58,325.77582,54,70,0
325.77997,326.37582,55,100,0
326.37997,326.9758,53,70,0
326.97998,327.5758,52,70,0
325.77997,328.1758,43,100,0
327.58,328.1758,54,70,0
328.18,328.77582,55,70,0
328.77997,329.37582,47,70,0
329.37997,329.77582,48,70,0
329.77997,329.9758,50,70,0
329.97998,330.37582,52,70,0
328.18,330.5758,43,70,0
330.37997,330.5758,54,70,0
330.58,331.1758,55,70,0
331.18,331.77582,47,70,0
331.77997,332.1758,48,70,0
332.18,332.37582,50,70,0
332.37997,332.77582,52,70,0
332.77997,332.9758,54,70,0
330.58,333.1758,43,70,0
332.97998,333.1758,55,70,0
333.37997,333.77582,47,110,0
333.77997,333.9758,45,110,0
333.97998,334.1758,43,110,0
334.18,334.37582,42,110,0
334.37997,334.5758,43,110,0
334.58,334.77582,40,110,0
334.77997,334.9758,38,110,0
334.97998,335.1758,40,110,0
335.18,335.37582,37,110,0
335.37997,335.5758,38,110,0
335.58,335.77582,50,110,0
335.58,335.77582,55,110,0
335.58,335.77582,59,110,0
335.77997,335.9758,50,110,0
335.77997,335.9758,55,110,0
335.77997,335.9758,59,110,0
335.97998,336.1758,50,110,0
335.97998,336.1758,55,110,0
335.97998,336.1758,59,110,0
336.18,336.37582,50,110,0
336.18,336.37582,55,110,0
336.18,336.37582,59,110,0
336.37997,336.5758,50,110,0
336.37997,336.5758,55,110,0
336.37997,336.5758,59,110,0
336.58,336.77582,50,110,0
336.58,336.77582,55,110,0
336.58,336.77582,60,110,0
336.77997,336.9758,50,110,0
336.77997,336.9758,55,110,0
336.77997,336.9758,60,110,0
336.97998,337.1758,50,110,0
336.97998,337.1758,55,110,0
336.97998,337.1758,60,110,0
337.18,337.37582,50,110,0
337.18,337.37582,54,110,0
337.18,337.37582,60,110,0
337.37997,337.5758,50,110,0
337.37997,337.5758,54,110,0
337.37997,337.5758,60,110,0
337.58,337.77582,50,100,0
337.58,337.77582,54,100,0
337.58,337.77582,60,100,0
337.77997,337.9758,43,70,0
337.87997,338.0758,55,70,0
337.97998,338.1758,54,70,0
338.08,338.27582,55,70,0
338.18,338.37582,53,70,0
338.27997,338.4758,55,70,0
338.37997,338.5758,52,70,0
338.47998,338.6758,55,70,0
338.58,338.77582,53,95,0
338.68,338.87582,55,70,0
338.77997,338.9758,52,70,0
338.87997,338.9758,55,70,0
338.97998,339.1758,50,70,0
339.08,339.27582,55,70,0
339.18,339.37582,52,95,0
339.27997,339.4758,55,70,0
339.37997,339.5758,50,70,0
339.47998,339.6758,55,70,0
339.58,339.77582,48,70,0
339.68,339.87582,55,70,0
339.77997,339.9758,50,95,0
339.87997,340.0758,55,70,0
339.97998,340.1758,48,70,0
340.08,340.1758,55,70,0
340.18,340.37582,47,70,0
340.27997,340.4758,55,70,0
340.37997,340.5758,48,95,0
340.47998,340.6758,55,70,0
340.58,340.77582,47,70,0
340.68,340.87582,55,70,0
340.77997,340.9758,45,70,0
340.87997,341.0758,55,70,0
340.97998,341.1758,43,70,0
341.08,341.27582,55,70,0
341.18,341.37582,45,70,0
341.27997,341.37582,55,70,0
341.37997,341.5758,43,70,0
341.47998,341.6758,55,70,0
341.58,341.77582,45,70,0
341.68,341.87582,55,70,0
341.77997,341.9758,43,70,0
341.87997,342.0758,55,70,0
341.97998,342.1758,45,70,0
342.08,342.27582,55,70,0
342.18,342.37582,43,70,0
342.27997,342.4758,55,70,0
342.37997,342.5758,45,70,0
342.47998,342.5758,55,70,0
342.58,342.77582,31,70,0
342.68,342.87582,43,70,0
342.77997,342.9758,42,70,0
342.87997,343.0758,43,70,0
342.97998,343.1758,41,70,0
343.08,343.27582,43,70,0
343.18,343.37582,40,70,0
343.27997,343.4758,43,70,0
343.37997,343.5758,41,100,0
343.47998,343.6758,43,70,0
343.58,343.77582,40,70,0
343.68,343.77582,43,70,0
343.77997,343.9758,38,70,0
343.87997,344.0758,43,70,0
343.97998,344.1758,40,100,0
344.08,344.27582,43,70,0
344.18,344.37582,38,70,0
344.27997,344.4758,43,70,0
344.37997,344.5758,36,70,0
344.47998,344.6758,43,70,0
344.58,344.77582,38,100,0
344.68,344.87582,43,70,0
344.77997,344.9758,36,70,0
344.87997,344.9758,43,70,0
344.97998,345.1758,35,70,0
345.08,345.27582,43,70,0
345.18,345.37582,36,100,0
345.27997,345.4758,43,70,0
345.37997,345.5758,35,70,0
345.47998,345.6758,43,70,0
345.58,345.77582,33,70,0
345.68,345.87582,43,70,0
345.77997,345.9758,31,70,0
345.87997,346.0758,43,70,0
345.97998,346.1758,33,70,0
346.08,346.1758,43,70,0
346.18,346.37582,31,70,0
346.27997,346.4758,43,70,0
346.37997,346.5758,33,70,0
346.47998,346.6758,43,70,0
346.58,346.77582,31,70,0
346.68,346.87582,43,70,0
346.77997,346.9758,33,70,0
346.87997,347.0758,43,70,0
346.97998,347.1758,31,70,0
347.08,347.27582,43,70,0
347.18,347.37582,33,70,0
347.27997,347.37582,43,70,0
347.37997,347.5758,31,70,0
347.47998,347.6758,43,70,0
347.58,347.77582,32,70,0
347.68,347.87582,43,70,0
347.77997,347.9758,31,70,0
347.87997,348.0758,43,70,0
347.97998,348.1758,32,70,0
348.08,348.27582,43,70,0
348.18,348.37582,31,70,0
348.27997,348.4758,43,70,0
348.37997,348.5758,32,70,0
348.47998,348.5758,43,70,0
348.58,348.77582,31,70,0
348.68,348.87582,43,70,0
348.77997,348.9758,32,70,0
348.87997,349.0758,43,70,0
348.97998,349.1758,31,70,0
349.08,349.27582,43,70,0
349.18,349.37582,32,70,0
349.27997,349.4758,43,70,0
349.37997,349.5758,31,70,0
349.47998,349.6758,43,70,0
349.58,349.77582,32,70,0
349.68,349.77582,43,70,0
349.77997,349.9758,31,70,0
349.87997,350.0758,43,71,0
349.97998,350.1758,35,73,0
350.08,350.27582,43,75,0
350.18,350.37582,31,76,0
350.27997,350.4758,43,78,0
350.37997,350.5758,35,80,0
350.47998,350.6758,43,81,0
350.58,350.77582,31,83,0
350.68,350.87845,43,85,0
350.77997,350.98117,35,87,0
350.88272,351.08392,43,88,0
350.98547,351.18665,31,90,0
351.0882,351.2936,43,92,0
351.19095,351.40076,35,93,0
351.2981,351.5079,43,95,0
351.4052,351.61505,31,97,0
351.51236,351.72522,43,98,0
351.6195,351.8355,35,100,0
351.7298,351.95068,43,102,0
351.8401,352.06607,31,104,0
351.95547,352.19064,43,105,0
352.07086,352.31564,35,107,0
352.19586,352.31564,43,109,0
352.32086,352.81564,31,110,0
353.07086,353.6646,30,70,0
353.07086,353.6646,43,70,0
353.97086,354.86462,31,70,0
353.97086,354.86462,43,70,0
