start_time,end_time,note_value,velocity,instrument_program_number
1.4391998,2.1813872,65,55,40
2.1891997,2.9313872,62,55,40
2.9391997,4.4313874,58,55,40
4.4392,5.1813874,55,55,40
5.1892,6.6813874,58,55,40
6.6892,7.4313874,63,55,40
7.4392,7.8142,63,55,40
7.8142,8.001699,68,55,40
8.001699,8.181387,67,55,40
8.189199,8.931387,67,55,40
8.939199,9.681387,63,55,40
9.689199,10.431387,67,55,40
10.439199,11.181387,65,55,40
11.189199,11.931387,62,55,40
11.939199,13.064199,65,55,40
13.064199,13.439199,62,55,40
13.439199,14.181387,63,55,40
14.189199,15.306387,60,55,40
14.189199,15.306387,63,55,40
15.314199,16.056387,60,55,40
16.0642,16.431387,58,55,40
16.4392,16.825712,56,55,40
16.833937,17.22045,58,55,40
17.228672,18.009922,55,55,40
18.80762,19.588867,67,70,40
19.597092,20.909592,68,70,40
20.909592,21.097092,65,70,40
21.097092,21.659592,70,70,40
21.659592,21.847092,62,70,40
21.847092,23.33928,63,70,40
23.347092,23.71428,65,70,40
23.722092,23.909592,68,70,40
23.909592,24.08928,67,70,40
24.097092,25.58928,67,70,40
25.597092,25.659592,68,70,40
25.659592,25.722092,70,70,40
25.722092,25.784592,68,70,40
25.784592,25.878342,67,70,40
25.878342,25.972092,68,70,40
25.972092,26.159592,72,70,40
26.159592,26.33928,70,70,40
26.347092,27.83928,70,70,40
27.847092,28.034592,75,70,40
28.034592,28.222092,74,70,40
28.222092,28.409592,72,70,40
28.409592,28.58928,70,70,40
28.597092,30.08928,70,70,40
30.097092,30.190842,70,80,40
30.190842,30.472092,68,81,40
30.472092,30.65178,67,83,40
30.659592,30.83928,68,84,40
30.847092,30.909592,67,86,40
30.909592,30.972092,68,86,40
30.972092,31.034592,70,87,40
31.034592,31.597092,68,87,40
31.597092,32.33928,67,91,40
32.34709,32.40959,65,96,40
32.40959,32.47209,67,97,40
32.47209,32.53459,65,97,40
32.53459,32.62834,64,98,40
32.62834,32.72209,65,98,40
32.72209,32.90178,68,99,40
32.90959,33.08928,72,100,40
33.09709,33.46428,72,100,40
33.47209,34.228584,63,95,40
34.236702,34.334103,65,85,40
34.334103,34.431507,63,84,40
34.431507,34.528908,62,82,40
34.528908,34.626312,63,81,40
34.626312,35.225975,67,80,40
35.23442,35.439777,65,72,40
35.448704,36.296917,63,70,40
46.38855,47.21915,67,70,40
47.22808,48.72027,67,95,40
48.72808,49.29058,68,92,40
49.29058,49.47027,71,100,40
49.47808,50.97027,72,110,40
50.97808,51.54058,70,81,40
51.54058,51.72027,69,70,40
51.72808,53.12652,67,70,40
53.13433,53.22808,70,70,40
53.22808,53.820183,69,70,40
53.820183,54.009327,67,70,40
54.01755,54.7988,67,70,40
56.213276,56.307026,70,70,40
56.307026,56.861713,69,70,40
56.869526,57.049213,67,70,40
57.057026,57.799213,67,70,40
59.213276,59.307026,70,75,40
59.307026,59.861713,69,76,40
59.869526,60.049213,67,80,40
60.057026,60.598183,67,82,40
60.69727,60.78873,70,87,40
60.78873,61.317005,69,88,40
61.324448,61.495575,67,93,40
61.503017,62.031292,67,94,40
62.128017,62.2173,70,100,40
62.2173,62.771988,69,100,40
62.7798,62.959488,67,80,40
62.9673,63.709488,67,70,40
67.576324,68.31851,65,55,40
68.326324,69.06851,62,55,40
69.076324,70.56851,58,55,40
70.576324,71.31851,55,55,40
71.326324,72.81851,58,55,40
72.826324,73.56851,63,55,40
73.576324,73.951324,63,55,40
73.951324,74.138824,68,55,40
74.138824,74.31851,67,55,40
74.326324,75.06851,67,55,40
75.076324,75.81851,63,55,40
75.826324,76.56851,67,55,40
76.576324,77.31851,65,55,40
77.326324,78.06851,62,55,40
78.076324,79.201324,65,55,40
79.201324,79.576324,62,55,40
79.576324,80.31851,63,55,40
80.326324,81.44351,60,55,40
80.326324,81.44351,63,55,40
81.451324,82.19351,60,55,40
82.201324,82.56851,58,55,40
82.576324,82.96284,56,55,40
82.97106,83.357574,58,55,40
83.3658,84.14705,55,55,40
84.94474,85.72599,67,70,40
85.734215,87.2264,67,80,40
87.234215,87.796715,68,100,40
87.796715,87.9764,71,108,40
87.984215,89.4764,72,110,40
89.484215,90.046715,70,90,40
90.046715,90.2264,69,75,40
90.234215,91.63265,67,70,40
91.640465,91.734215,70,70,40
91.734215,92.326324,69,70,40
92.326324,92.515465,67,70,40
92.52369,92.811516,67,70,40
92.91843,93.191864,79,70,40
93.29343,93.566864,79,70,40
93.66843,93.941864,79,70,40
94.04343,94.316864,79,70,40
94.41843,94.691864,79,70,40
94.79343,95.066864,79,70,40
95.16843,95.441864,79,70,40
95.54343,95.816864,79,70,40
95.91843,96.191864,79,70,40
96.29343,96.566864,79,70,40
96.66843,96.941864,79,70,40
97.04343,97.316864,79,70,40
97.41843,97.691864,79,75,40
97.79343,98.066864,79,81,40
98.16843,98.441864,79,86,40
98.54343,98.816864,79,92,40
98.91843,99.191864,79,98,40
99.29343,99.566864,79,110,40
99.66843,99.941864,79,95,40
100.41843,100.785614,79,84,40
101.16843,101.535614,78,72,40
101.54343,102.098114,79,70,40
102.19968,102.29343,82,70,40
102.29343,102.85593,81,70,40
102.85593,103.035614,79,70,40
103.04343,103.410614,79,70,40
104.16843,104.535614,78,70,40
104.91843,105.191864,79,70,40
105.19968,105.29343,82,70,40
105.29343,105.85593,81,70,40
105.85593,106.035614,79,70,40
106.04343,106.410614,79,70,40
107.16843,107.535614,78,70,40
107.91843,108.285614,79,79,40
108.66843,109.035614,78,88,40
109.43816,109.82468,79,97,40
110.249565,110.657555,78,106,40
110.66623,111.07422,79,110,40
111.0829,111.90755,67,70,40
111.91623,112.74088,67,62,40
112.749565,113.57422,67,54,40
113.5829,113.79123,66,50,40
113.79123,113.999565,67,54,40
113.999565,114.22684,66,59,40
114.22684,114.45411,67,63,40
114.45411,114.68138,66,68,40
114.68138,114.90865,67,72,40
114.90865,115.15865,66,77,40
115.15865,115.40865,67,81,40
115.40865,115.67651,66,86,40
115.67651,115.96401,67,90,40
115.97651,117.28901,68,70,40
117.28901,117.47651,65,70,40
117.47651,118.03901,70,70,40
118.03901,118.22651,62,70,40
118.22651,119.7187,63,70,40
119.72651,120.10151,65,70,40
120.10151,120.28901,68,70,40
120.28901,120.4687,67,70,40
120.47651,121.9687,67,70,40
121.97651,122.03901,68,70,40
122.03901,122.10151,70,70,40
122.10151,122.16401,68,70,40
122.16401,122.25776,67,70,40
122.25776,122.35151,68,70,40
122.35151,122.53901,72,70,40
122.53901,122.7187,70,70,40
122.72651,124.2187,70,70,40
124.22651,124.41401,75,70,40
124.41401,124.60151,74,70,40
124.60151,124.78901,72,70,40
124.78901,124.9687,70,70,40
124.97651,126.4687,70,70,40
126.47651,126.57026,70,70,40
126.57026,126.85151,68,70,40
126.85151,127.0312,67,70,40
127.03901,127.2187,68,70,40
127.22651,127.28901,67,70,40
127.28901,127.35151,68,70,40
127.35151,127.41401,70,70,40
127.41401,127.97651,68,70,40
127.97651,128.7187,67,70,40
128.72652,128.78902,65,70,40
128.78902,128.85152,67,70,40
128.85152,128.91402,65,70,40
128.91402,129.00777,64,70,40
129.00777,129.10152,65,70,40
129.10152,129.2812,68,70,40
129.28902,129.4687,72,70,40
129.47652,129.8437,72,70,40
129.85152,130.5937,63,70,40
130.60152,130.69527,65,70,40
130.69527,130.78902,63,70,40
130.78902,130.88277,62,70,40
130.88277,130.97652,63,70,40
130.97652,131.5604,67,70,40
131.56862,131.75777,65,70,40
131.76599,132.54723,63,70,40
133.34492,134.12617,70,70,40
134.1344,134.87659,67,70,40
134.8844,136.00159,70,70,40
136.0094,136.37659,75,70,40
136.3844,137.12659,75,70,40
137.1344,138.25159,74,70,40
138.2594,138.56409,75,70,40
138.5719,138.6344,74,70,40
138.6344,140.12659,77,70,40
140.1344,140.40784,74,70,40
140.6969,140.87659,70,70,40
140.8844,141.62659,70,70,40
141.6344,142.00159,75,70,40
142.3844,142.65784,70,70,40
142.9469,143.1344,68,70,40
143.1344,143.40784,67,70,40
143.6969,143.8844,68,70,40
143.8844,144.15784,70,70,40
144.4469,144.6344,72,70,40
144.6344,144.90784,74,70,40
145.1969,145.37659,75,70,40
145.3844,146.12659,75,70,40
146.1344,147.25159,74,70,40
147.2594,147.62659,75,70,40
147.6344,147.8219,76,70,40
147.8219,148.00159,77,70,40
148.0094,148.1969,76,70,40
148.1969,148.37659,77,70,40
148.3844,148.5719,76,70,40
148.5719,148.75159,77,70,40
148.7594,148.9469,79,70,40
148.9469,149.12659,77,70,40
149.1344,149.3219,75,70,40
149.3219,149.50159,74,70,40
149.5094,149.6969,72,70,40
149.6969,149.87659,70,70,40
149.8844,150.0719,70,70,40
150.0719,150.25159,75,70,40
152.41226,154.65445,67,55,40
154.66226,156.90445,68,55,40
156.91226,158.40445,62,55,40
158.41226,159.15445,65,55,40
152.41226,159.90445,58,55,40
159.16226,159.90445,67,55,40
161.41226,163.65445,67,55,40
163.66226,165.90445,68,55,40
161.41226,166.65445,58,55,40
165.91226,166.65445,65,55,40
166.66226,167.40445,56,55,40
166.66226,167.40445,62,55,40
167.41226,168.15445,56,55,40
167.41226,168.15445,62,55,40
168.16226,168.40445,55,60,40
168.16226,168.40445,63,60,40
168.41226,168.65445,62,63,40
168.66226,168.83414,63,67,40
168.91226,169.08414,66,71,40
169.16226,169.33414,63,75,40
169.41226,169.58414,70,79,40
169.66226,169.84317,66,83,40
169.92542,170.11057,75,87,40
170.19984,170.39627,70,90,40
170.48557,171.22775,78,50,40
171.23557,171.97775,78,50,40
171.98557,172.54025,78,50,40
172.64182,172.73557,78,50,40
172.73557,173.47775,77,50,40
173.48557,174.04025,77,57,40
174.04807,174.22775,75,62,40
174.23557,174.79025,74,64,40
174.79807,174.97775,77,69,40
174.98557,175.72775,75,71,40
175.73557,176.47775,75,78,40
176.48557,177.22775,78,86,40
177.23557,177.47775,77,70,40
177.48557,177.72775,58,70,40
177.73557,177.90744,57,70,40
177.98557,178.15744,58,70,40
178.23557,178.40744,60,70,40
178.48557,178.65744,62,70,40
178.73557,178.91649,63,70,40
178.99872,179.18387,64,70,40
179.27316,179.46959,65,70,40
179.55887,179.80887,66,50,40
179.80887,179.98074,58,50,40
180.05887,180.23074,58,50,40
180.30887,180.55887,58,50,40
180.55887,180.73074,59,50,40
180.80887,180.98074,58,50,40
181.05887,181.30887,58,50,40
181.30887,181.48074,59,50,40
181.55887,181.73074,58,50,40
181.80887,182.05887,56,50,40
182.05887,182.23074,59,50,40
182.30887,182.48074,56,50,40
182.55887,182.80887,56,50,40
182.80887,182.98074,59,50,40
183.05887,183.23074,56,50,40
183.30887,183.55887,56,50,40
183.55887,183.73074,58,50,40
183.80887,183.98074,56,50,40
184.05887,184.30887,58,50,40
184.30887,184.48074,59,50,40
184.55887,184.73074,58,50,40
184.80887,185.05887,58,50,40
185.05887,185.23074,59,50,40
185.30887,185.48074,58,50,40
185.55887,185.80887,58,50,40
185.80887,185.98074,63,50,40
186.05887,186.23074,58,50,40
186.30887,186.55887,58,50,40
186.55887,186.73074,62,50,40
186.80887,186.98074,58,50,40
187.05887,187.30887,58,50,40
187.30887,187.48074,70,50,40
187.55887,187.73074,58,50,40
187.80887,188.05887,58,50,40
188.05887,188.23074,70,50,40
188.30887,188.48074,58,50,40
188.55887,188.80887,58,50,40
188.80887,188.98074,62,50,40
189.05887,189.23074,58,50,40
189.30887,189.55887,58,50,40
189.55887,189.73074,70,50,40
189.80887,189.98074,58,50,40
190.05887,190.30887,58,50,40
190.30887,190.48074,70,50,40
190.55887,190.73074,58,50,40
190.80887,191.05887,58,50,40
191.05887,191.2296,62,52,40
191.30582,191.47351,58,54,40
191.54973,191.79362,58,57,40
191.79362,191.9613,70,59,40
192.03752,192.20522,58,61,40
192.28143,192.52533,58,64,40
192.52533,192.69193,59,66,40
192.76633,192.93002,58,68,40
193.00443,193.24252,58,71,40
193.24252,193.40622,70,73,40
193.48062,193.6443,58,76,40
193.7187,193.9568,58,78,40
193.9568,194.12273,59,80,40
194.20085,194.37273,58,83,40
194.45085,194.714,58,85,40
194.714,194.89915,70,87,40
194.98845,195.18488,58,90,40
195.27415,200.14134,58,70,40
200.14915,200.52415,62,78,40
200.52415,200.89915,63,81,40
200.89915,201.27415,60,84,40
201.27415,201.6689,58,87,40
201.6689,202.11397,56,90,40
202.12344,202.96451,56,70,40
202.12344,202.96451,62,70,40
207.05919,207.80138,65,55,40
207.80919,208.55138,62,55,40
208.55919,210.05138,58,55,40
210.05919,210.80138,55,55,40
210.80919,212.30138,58,55,40
212.30919,213.05138,63,55,40
213.05919,213.43419,63,55,40
213.43419,213.62169,68,55,40
213.62169,213.80138,67,55,40
213.80919,214.55138,67,55,40
214.55919,215.30138,63,55,40
215.30919,216.05138,67,55,40
216.05919,216.80138,65,55,40
216.80919,217.55138,62,55,40
217.55919,218.68419,65,55,40
218.68419,219.05919,62,55,40
219.05919,219.80138,63,55,40
219.80919,220.92638,60,55,40
219.80919,220.92638,63,55,40
220.93419,221.67638,60,55,40
221.68419,222.05138,58,55,40
222.05919,222.4457,56,55,40
222.45392,222.84044,58,55,40
222.84866,223.62991,55,55,40
224.42761,225.20886,67,70,40
225.21709,226.52959,68,70,40
226.52959,226.71709,65,70,40
226.71709,227.27959,70,70,40
227.27959,227.46709,62,70,40
227.46709,228.95927,63,70,40
228.96709,229.33427,65,70,40
229.34209,229.52959,68,70,40
229.52959,229.70927,67,70,40
229.71709,231.20927,67,70,40
231.21709,231.27959,68,70,40
231.27959,231.34209,70,70,40
231.34209,231.40459,68,70,40
231.40459,231.49834,67,70,40
231.49834,231.59209,68,70,40
231.59209,231.77959,72,70,40
231.77959,231.95927,70,70,40
231.96709,233.45927,70,70,40
233.46709,233.65459,75,70,40
233.65459,233.84209,74,70,40
233.84209,234.02959,72,70,40
234.02959,234.20927,70,70,40
234.21709,235.70927,70,70,40
235.71709,235.81084,70,80,40
235.81084,236.09209,68,81,40
236.09209,236.27177,67,83,40
236.27959,236.45927,68,84,40
236.46709,236.52959,67,86,40
236.52959,236.59209,68,86,40
236.59209,236.65459,70,87,40
236.65459,237.21709,68,87,40
237.21709,237.95927,67,91,40
237.96709,238.02959,65,96,40
238.02959,238.09209,67,97,40
238.09209,238.15459,65,97,40
238.15459,238.24834,64,98,40
238.24834,238.34209,65,98,40
238.34209,238.52177,68,99,40
238.52959,238.70927,72,100,40
238.71709,239.08427,72,100,40
239.09209,239.83427,63,95,40
239.84209,239.93584,65,85,40
239.93584,240.02959,63,84,40
240.02959,240.12334,62,82,40
240.12334,240.21709,63,81,40
240.21709,240.80096,67,80,40
240.80919,240.99832,65,72,40
241.00655,241.7878,63,70,40
251.62497,252.36716,67,70,40
252.37497,253.86716,67,95,40
253.87497,254.43747,68,92,40
254.43747,254.61716,71,100,40
254.62497,256.11716,72,110,40
256.12497,256.68747,70,81,40
256.68747,256.86716,69,70,40
256.87497,258.2734,67,70,40
258.28122,258.37497,70,70,40
258.37497,258.93747,69,70,40
258.93747,259.11716,67,70,40
259.12497,259.86716,67,70,40
261.28122,261.37497,70,70,40
261.37497,261.92966,69,70,40
261.93747,262.11716,67,70,40
262.12497,262.86716,67,70,40
264.28122,264.37497,70,75,40
264.37497,264.91614,69,76,40
264.92377,265.09906,67,80,40
265.1067,265.64783,67,82,40
265.74692,265.83838,70,87,40
265.83838,266.36667,69,88,40
266.37408,266.54523,67,93,40
266.55267,267.08093,67,94,40
267.17767,267.26697,70,100,40
267.26697,267.8311,69,100,40
267.83932,268.02847,67,80,40
268.03668,268.81793,67,70,40
273.00626,273.37344,65,70,40
273.38126,274.12344,62,70,40
274.13126,274.87344,62,70,40
274.88126,275.62344,58,70,40
275.63126,275.99844,58,70,40
276.00626,276.37344,55,70,40
276.38126,277.12344,58,70,40
277.13126,277.87344,58,70,40
277.88126,278.62344,63,70,40
278.63126,279.37344,63,70,40
279.38126,279.56876,68,70,40
279.56876,279.74844,67,70,40
279.75626,280.12344,67,70,40
280.13126,280.87344,55,70,40
280.88126,281.62344,67,70,40
281.63126,282.37344,67,70,40
282.38126,283.12344,65,70,40
283.13126,283.87344,62,70,40
283.88126,284.62344,65,70,40
284.63126,285.37344,65,70,40
285.38126,286.12344,63,70,40
286.13126,286.87344,60,70,40
286.13126,286.87344,63,70,40
286.88126,287.62344,60,70,40
287.63126,288.00626,58,70,40
288.00626,288.20364,56,70,40
288.20364,288.401,58,70,40
288.401,288.5984,56,70,40
288.5984,288.79575,58,70,40
288.79575,289.577,55,70,40
290.3747,291.15594,67,70,40
291.16415,292.65634,67,80,40
292.66415,293.22665,68,100,40
293.22665,293.40634,71,108,40
293.41415,294.90634,72,110,40
294.91415,295.47665,70,90,40
295.47665,295.65634,69,75,40
295.66415,297.0626,67,70,40
297.0704,297.16415,70,70,40
297.16415,297.75626,69,70,40
297.75626,297.9454,67,70,40
297.95364,298.24146,67,70,40
298.34836,298.6362,79,70,40
298.7431,299.03094,79,70,40
299.13785,299.4257,79,70,40
299.5326,299.8364,79,70,40
299.94925,300.2807,79,70,40
300.4038,300.47955,79,60,40
300.47955,300.5553,80,61,40
300.5553,300.63107,79,63,40
300.63107,300.70682,80,65,40
300.70682,300.7826,79,67,40
300.7826,300.85834,80,68,40
300.85834,300.92084,79,70,40
300.92084,300.98334,80,72,40
300.98334,301.04584,79,74,40
301.04584,301.10834,80,75,40
301.10834,301.17084,79,77,40
301.17084,301.23334,80,79,40
301.23334,301.29584,79,81,40
301.29584,301.35834,80,83,40
301.35834,301.42084,79,84,40
301.42084,301.48334,80,86,40
301.48334,301.54584,79,88,40
301.54584,301.60834,80,90,40
301.60834,301.67084,79,91,40
301.67084,301.73334,80,93,40
301.73334,301.79584,79,95,40
301.79584,301.85834,80,97,40
301.85834,301.92084,79,99,40
301.92084,301.98334,80,100,40
301.98334,302.04584,79,100,40
302.04584,302.10834,80,100,40
302.10834,302.17084,79,100,40
302.17084,302.23334,80,100,40
302.23334,302.29584,79,100,40
302.29584,302.35834,80,100,40
302.35834,302.42084,79,100,40
302.42084,302.48334,80,100,40
302.48334,302.54584,79,100,40
302.54584,302.60834,80,100,40
302.60834,302.67084,79,100,40
302.67084,302.73334,80,100,40
302.73334,302.79584,79,100,40
302.79584,302.85834,80,100,40
302.85834,302.92084,79,100,40
302.92084,302.98334,80,100,40
302.98334,303.04584,79,100,40
303.04584,303.10834,80,100,40
303.10834,303.17084,79,100,40
303.17084,303.23334,80,100,40
303.23334,303.29584,79,99,40
303.29584,303.35834,80,98,40
303.35834,303.42084,79,96,40
303.42084,303.48334,80,95,40
303.48334,303.54584,79,94,40
303.54584,303.60834,80,92,40
303.60834,303.67084,79,91,40
303.67084,303.7646,80,90,40
303.7646,303.85834,79,88,40
303.85834,304.04584,78,86,40
304.04584,304.23334,79,82,40
304.23334,304.50677,79,78,40
304.60834,304.88177,79,70,40
304.98334,305.25677,79,60,40
305.35834,305.63177,79,60,40
306.10834,306.47552,79,60,40
306.85834,307.22552,78,60,40
307.23334,307.78802,79,60,40
307.8896,307.98334,82,70,40
307.98334,308.54584,81,70,40
308.54584,308.72552,79,70,40
308.73334,309.10052,79,70,40
309.85834,310.22552,78,70,40
310.60834,310.88177,79,70,40
310.8896,310.98334,82,70,40
310.98334,311.54584,81,70,40
311.54584,311.72552,79,70,40
311.73334,312.10052,79,70,40
312.85834,313.22552,78,70,40
313.60834,313.97552,79,79,40
314.35834,314.72552,78,88,40
315.12296,315.50446,79,97,40
315.91797,316.3149,78,106,40
316.32336,316.70987,79,110,40
316.7181,317.49936,67,70,40
317.50757,318.28882,67,62,40
318.29706,319.0783,67,54,40
319.08652,319.2839,66,50,40
319.2839,319.48126,67,54,40
319.48126,319.69556,66,59,40
319.69556,319.90982,67,63,40
319.90982,320.1241,66,68,40
320.1241,320.3384,67,72,40
320.3384,320.56567,66,77,40
320.56567,320.79294,67,81,40
320.79294,321.04294,66,86,40
321.04294,321.28253,67,90,40
321.29294,322.60544,68,70,40
322.60544,322.79294,65,70,40
322.79294,323.35544,70,70,40
323.35544,323.54294,62,70,40
323.54294,325.03513,63,70,40
325.04294,325.41013,65,70,40
325.41794,325.60544,68,70,40
325.60544,325.78513,67,70,40
325.79294,327.28513,67,70,40
327.29294,327.35544,68,70,40
327.35544,327.41794,70,70,40
327.41794,327.48044,68,70,40
327.48044,327.5742,67,70,40
327.5742,327.66794,68,70,40
327.66794,327.85544,72,70,40
327.85544,328.03513,70,70,40
328.04294,329.53513,70,70,40
329.54294,329.73044,75,70,40
329.73044,329.91794,74,70,40
329.91794,330.10544,72,70,40
330.10544,330.28513,70,70,40
330.29294,331.78513,70,70,40
331.79294,331.8867,70,70,40
331.8867,332.16794,68,70,40
332.16794,332.34763,67,70,40
332.35544,332.53513,68,70,40
332.54294,332.60544,67,70,40
332.60544,332.66794,68,70,40
332.66794,332.73044,70,70,40
332.73044,333.29294,68,70,40
333.29294,334.03513,67,70,40
334.04294,334.10544,65,70,40
334.10544,334.16794,67,70,40
334.16794,334.23044,65,70,40
334.23044,334.3242,64,70,40
334.3242,334.41794,65,70,40
334.41794,334.59763,68,70,40
334.60544,334.78513,72,70,40
334.79294,335.16013,72,70,40
335.16794,335.92947,63,70,40
335.93768,336.03638,65,70,40
336.03638,336.13504,63,70,40
336.13504,336.23373,62,70,40
336.23373,336.33243,63,70,40
336.33243,336.94873,67,70,40
336.95743,337.15707,65,70,40
337.16574,337.99042,63,70,40
338.83243,339.65707,70,70,40
339.66574,340.40793,67,70,40
340.41574,341.53293,70,70,40
341.54074,341.90793,75,70,40
341.91574,342.65793,75,70,40
342.66574,343.78293,74,70,40
343.79074,344.09543,75,70,40
344.10324,344.16574,74,70,40
344.16574,345.65793,77,70,40
345.66574,345.93918,74,70,40
346.22824,346.40793,70,70,40
346.41574,347.15793,70,70,40
347.16574,347.53293,75,70,40
347.91574,348.18918,70,70,40
348.47824,348.66574,68,70,40
348.66574,348.93918,67,70,40
349.22824,349.41574,68,70,40
349.41574,349.68918,70,70,40
349.97824,350.16574,72,70,40
350.16574,350.43918,74,70,40
350.72824,350.90793,75,70,40
350.91574,351.65793,75,70,40
351.66574,352.78293,74,70,40
352.79074,353.15793,75,70,40
353.16574,353.35324,76,70,40
353.35324,353.53293,77,70,40
353.54074,353.72824,76,70,40
353.72824,353.90793,77,70,40
353.91574,354.10324,76,70,40
354.10324,354.28293,77,70,40
354.29074,354.47824,79,70,40
354.47824,354.65793,77,70,40
354.66574,354.85324,75,70,40
354.85324,355.03293,74,70,40
355.04074,355.22824,72,70,40
355.22824,355.40793,70,70,40
355.41574,355.60324,70,70,40
355.60324,355.78293,75,70,40
357.9436,360.3108,67,55,40
360.3186,362.5608,68,55,40
362.5686,364.0608,62,55,40
364.0686,364.8108,65,55,40
357.9436,365.5608,58,55,40
364.8186,365.5608,67,55,40
367.0686,369.3108,58,110,40
367.0686,370.0608,67,110,40
370.0686,370.8108,66,100,40
370.8186,372.1233,65,70,40
372.3186,372.8733,65,70,40
373.0686,373.6233,65,70,40
373.8186,376.0608,77,70,40
376.0686,376.2561,76,70,40
376.2561,376.4436,77,70,40
376.4436,376.6311,79,70,40
376.6311,376.8186,77,70,40
376.8186,377.0061,76,70,40
377.0061,377.1936,77,70,40
377.1936,377.3811,79,70,40
377.3811,377.5686,77,70,40
377.5686,377.7561,75,70,40
377.7561,377.9436,74,70,40
377.9436,378.1311,72,70,40
378.1311,378.3186,70,70,40
378.3186,379.0608,69,70,40
379.0686,379.8108,66,100,40
379.8186,381.1233,65,70,40
381.3186,381.8733,65,70,40
382.0686,382.6233,65,70,40
382.8186,383.0061,76,70,40
383.0061,383.1936,77,70,40
383.1936,383.3811,79,70,40
383.3811,383.5686,77,70,40
383.5686,383.7561,76,70,40
383.7561,383.9436,77,70,40
383.9436,384.1311,79,70,40
384.1311,384.3186,77,70,40
384.3186,384.5061,75,70,40
384.5061,384.6936,74,70,40
384.6936,384.8811,72,70,40
384.8811,385.0686,70,70,40
385.0686,385.6233,69,70,40
385.8186,386.5608,57,70,40
387.3186,387.5061,76,70,40
387.5061,387.6936,77,70,40
387.6936,387.8811,79,70,40
387.8811,388.0686,77,70,40
388.0686,388.2561,76,70,40
388.2561,388.4436,77,70,40
388.4436,388.6311,79,70,40
388.6311,388.8186,77,70,40
388.8186,389.0061,75,70,40
389.0061,389.1936,74,70,40
389.1936,389.3811,72,70,40
389.3811,389.5686,70,70,40
389.5686,390.1233,69,70,40
390.3186,391.0608,57,70,40
391.8186,392.3733,70,70,40
392.5686,393.3108,58,75,40
394.0686,394.8108,58,86,40
394.0686,394.8108,65,86,40
395.5686,396.3108,58,96,40
395.5686,396.3108,65,96,40
397.0686,397.8108,58,100,40
397.0686,397.8108,68,100,40
409.0686,409.4436,65,60,40
409.4436,409.6311,68,60,40
409.6311,409.8186,67,60,40
409.8186,411.3108,67,60,40
413.5686,413.7561,75,60,40
413.7561,413.9436,74,60,40
413.9436,414.1311,72,60,40
414.1311,414.3186,70,60,40
414.3186,415.8108,70,60,40
415.8186,415.91235,70,60,40
415.91235,416.1936,68,60,40
416.1936,416.3811,67,60,40
416.3811,416.5686,68,60,40
416.5686,416.6311,67,60,40
416.6311,416.6936,68,60,40
416.6936,416.7561,70,60,40
416.7561,417.3186,68,60,40
417.3186,418.0608,67,60,40
420.3186,420.8811,67,70,40
420.8811,421.0686,65,70,40
421.0686,422.5608,63,70,40
424.8186,425.3811,67,70,40
425.3811,425.5686,65,70,40
425.5686,426.3108,63,70,40
426.3186,426.6858,79,70,40
426.6936,427.0608,75,70,40
427.0686,427.4358,72,70,40
427.4436,427.8108,68,93,40
427.8186,428.079,67,110,40
428.17575,428.704,55,110,40
428.17575,428.704,63,110,40
428.71146,428.83795,58,110,40
428.89005,429.02286,60,110,40
429.07755,429.21036,62,110,40
429.26505,429.39786,63,110,40
429.45255,429.58536,65,110,40
429.64005,429.77985,67,110,40
429.8374,429.9772,68,110,40
430.03476,430.816,70,110,40
430.82425,431.6055,72,102,40
431.6137,432.53186,74,86,40
432.5423,433.53186,75,70,40
434.5423,435.1504,79,70,40
435.1504,435.3531,77,70,40
435.3531,436.15546,75,70,40
439.40714,440.01526,79,70,40
440.01526,440.21796,77,70,40
440.21796,441.02032,75,70,40
442.6504,443.25006,79,70,40
443.25848,443.45276,77,85,40
443.46118,444.2323,75,90,40
444.24042,444.8401,79,110,40
444.8485,445.0428,77,110,40
445.05124,445.89944,75,110,40
446.81744,446.89322,70,70,40
446.89322,446.96896,72,70,40
446.96896,447.04474,70,70,40
447.04474,447.12048,72,70,40
447.12048,447.19626,70,70,40
447.19626,447.272,72,70,40
447.272,447.34775,70,70,40
447.34775,447.42352,72,70,40
447.42352,447.49927,70,70,40
447.49927,447.72656,69,70,40
447.72656,448.1811,70,70,40
448.1811,452.26254,67,70,40
455.22653,455.44434,67,1,40
0.68919975,1.4313873,67,70,0
1.4391998,2.7438872,68,70,0
2.7516997,2.9313872,65,70,0
2.9391997,3.4938872,70,70,0
3.5016997,3.6813872,62,70,0
3.6891997,5.1813874,63,70,0
5.1892,5.5563874,65,70,0
5.5642,5.7438874,68,70,0
5.7517,5.9313874,67,70,0
5.9392,7.4313874,67,70,0
7.4392,7.6188874,68,70,0
7.53295,7.7126374,70,70,0
7.6267,7.8063874,68,70,0
7.72045,7.9001374,70,70,0
7.8142,7.9938874,72,70,0
8.001699,8.181387,70,70,0
8.189199,9.681387,70,70,0
9.689199,9.868887,75,70,0
9.876699,10.056387,74,70,0
10.064199,10.243887,72,70,0
10.251699,10.431387,70,70,0
10.439199,11.931387,70,70,0
11.939199,12.118887,70,70,0
12.032949,12.306387,68,70,0
12.314199,12.493887,67,70,0
12.501699,12.681387,68,70,0
12.689199,12.868887,67,70,0
12.782949,12.962637,68,70,0
12.876699,13.056387,70,70,0
12.970449,13.431387,68,70,0
13.439199,14.181387,67,70,0
14.189199,14.306387,65,70,0
14.251699,14.368887,67,70,0
14.314199,14.431387,65,70,0
14.376699,14.556387,64,70,0
14.470449,14.650137,65,70,0
14.564199,14.743887,68,70,0
14.751699,14.931387,72,70,0
14.939199,15.306387,72,70,0
15.314199,16.056387,63,70,0
16.0642,16.243887,65,70,0
16.15795,16.337637,63,70,0
16.2517,16.431387,62,70,0
16.34545,16.52966,63,70,0
16.4392,17.02308,67,70,0
16.4392,17.22045,62,70,0
17.031305,17.22045,65,70,0
17.228672,18.009922,63,70,0
19.847092,20.08928,53,70,0
20.097092,20.33928,58,70,0
20.597092,20.83928,50,70,0
20.597092,20.83928,53,70,0
20.847092,21.08928,58,70,0
21.347092,21.58928,50,70,0
21.347092,21.58928,53,70,0
21.597092,21.83928,58,70,0
22.097092,22.33928,51,70,0
22.097092,22.33928,55,70,0
22.347092,22.58928,58,70,0
22.847092,23.08928,51,70,0
22.847092,23.08928,55,70,0
23.097092,23.33928,58,70,0
23.597092,23.83928,53,70,0
23.597092,23.83928,56,70,0
23.847092,24.08928,58,70,0
24.347092,24.58928,55,70,0
24.347092,24.58928,58,70,0
24.597092,24.83928,63,70,0
25.097092,25.33928,55,70,0
25.097092,25.33928,58,70,0
25.347092,25.58928,63,70,0
25.847092,26.08928,56,70,0
25.847092,26.08928,60,70,0
26.097092,26.33928,63,70,0
26.597092,26.83928,55,70,0
26.597092,26.83928,58,70,0
26.847092,27.08928,63,70,0
27.347092,27.58928,58,70,0
27.597092,27.83928,63,70,0
28.097092,28.33928,55,70,0
28.347092,28.58928,58,70,0
28.847092,29.08928,53,71,0
29.097092,29.33928,58,73,0
29.597092,29.83928,53,77,0
29.847092,30.08928,62,78,0
30.347092,30.58928,53,82,0
30.347092,30.58928,56,82,0
30.597092,30.83928,62,84,0
31.097092,31.33928,53,87,0
31.097092,31.33928,56,87,0
31.347092,31.58928,62,89,0
31.847092,32.08928,51,93,0
31.847092,32.08928,55,93,0
32.09709,32.33928,63,95,0
32.59709,32.83928,51,98,0
32.59709,32.83928,53,98,0
32.84709,33.08928,60,100,0
33.34709,33.58928,51,97,0
33.34709,33.58928,54,97,0
33.59709,33.83928,60,94,0
34.10683,34.358456,51,87,0
34.10683,34.358456,55,87,0
34.366573,34.618195,58,83,0
34.896584,35.158405,50,76,0
34.896584,35.158405,56,76,0
35.16685,35.439777,58,73,0
35.448704,36.296917,51,70,0
35.448704,36.296917,55,70,0
37.16299,38.011204,67,70,0
38.02013,39.512318,67,70,0
39.52013,40.074818,68,80,0
39.52013,40.262318,67,80,0
40.08263,40.262318,71,100,0
40.27013,41.762318,67,110,0
40.27013,41.762318,72,110,0
41.77013,42.324818,70,88,0
41.77013,42.512318,67,88,0
42.33263,42.512318,69,80,0
42.52013,44.012318,67,70,0
43.92638,44.11059,70,70,0
44.02013,44.60401,69,70,0
44.02013,44.80138,66,70,0
44.612236,44.80138,67,70,0
44.809605,45.196117,67,70,0
45.20434,45.590855,79,70,0
45.599075,45.985588,79,70,0
45.993813,46.380325,79,70,0
46.38855,46.790947,79,70,0
46.799507,47.21915,79,70,0
47.22808,47.59527,79,70,0
47.60308,47.97027,79,75,0
47.97808,48.34527,79,81,0
48.35308,48.72027,79,86,0
48.72808,49.09527,79,92,0
49.10308,49.47027,79,98,0
49.47808,49.84527,79,110,0
49.85308,50.22027,79,103,0
50.22808,50.59527,79,96,0
50.60308,50.97027,79,88,0
50.97808,51.34527,79,81,0
51.35308,51.72027,79,73,0
51.72808,52.09527,79,70,0
52.10308,52.47027,79,70,0
52.85308,53.22027,79,70,0
53.622814,54.009327,78,70,0
54.01755,54.7988,79,70,0
54.70834,54.892963,82,70,0
54.807026,55.361713,81,70,0
55.369526,55.549213,79,70,0
55.557026,56.299213,79,70,0
56.682026,57.049213,72,70,0
56.682026,57.049213,74,70,0
56.682026,57.049213,78,70,0
57.432026,57.799213,74,70,0
57.432026,57.799213,70,70,0
57.432026,57.799213,79,70,0
57.713276,57.892963,82,70,0
57.807026,58.361713,81,70,0
58.369526,58.549213,79,70,0
58.557026,59.299213,79,70,0
59.682026,60.049213,74,79,0
59.682026,60.049213,72,79,0
59.682026,60.049213,78,79,0
60.42288,60.78111,70,85,0
60.42288,60.78111,74,85,0
60.42288,60.78111,79,85,0
61.145874,61.495575,72,91,0
61.145874,61.495575,74,91,0
61.145874,61.495575,78,91,0
61.86016,62.20986,70,97,0
61.86016,62.20986,74,97,0
61.86016,62.20986,79,97,0
62.5923,62.959488,72,90,0
62.5923,62.959488,74,90,0
62.5923,62.959488,78,90,0
62.9673,63.334488,74,110,0
62.9673,63.334488,70,110,0
62.9673,63.334488,79,110,0
63.3423,64.08449,67,102,0
64.0923,64.83449,67,85,0
64.8423,65.58449,67,68,0
65.5923,65.7798,66,55,0
65.7798,65.9673,67,55,0
65.9673,66.1548,66,55,0
66.1548,66.3423,67,55,0
66.3423,66.5298,66,55,0
66.5298,66.7173,67,55,0
66.7173,66.91467,66,55,0
66.91467,67.11204,67,55,0
67.11204,67.326324,66,55,0
67.326324,67.56591,67,55,0
67.576324,68.88101,68,70,0
68.888824,69.06851,65,70,0
69.076324,69.63101,70,70,0
69.638824,69.81851,62,70,0
69.826324,71.31851,63,70,0
71.326324,71.69351,65,70,0
71.701324,71.88101,68,70,0
71.888824,72.06851,67,70,0
72.076324,73.56851,67,70,0
73.576324,73.75601,68,70,0
73.670074,73.84976,70,70,0
73.763824,73.94351,68,70,0
73.857574,74.03726,70,70,0
73.951324,74.13101,72,70,0
74.138824,74.31851,70,70,0
74.326324,75.81851,70,70,0
75.826324,76.00601,75,70,0
76.013824,76.19351,74,70,0
76.201324,76.38101,72,70,0
76.388824,76.56851,70,70,0
76.576324,78.06851,70,70,0
78.076324,78.25601,70,70,0
78.170074,78.44351,68,70,0
78.451324,78.63101,67,70,0
78.638824,78.81851,68,70,0
78.826324,79.00601,67,70,0
78.920074,79.09976,68,70,0
79.013824,79.19351,70,70,0
79.107574,79.56851,68,70,0
79.576324,80.31851,67,70,0
80.326324,80.44351,65,70,0
80.388824,80.50601,67,70,0
80.451324,80.56851,65,70,0
80.513824,80.69351,64,70,0
80.607574,80.78726,65,70,0
80.701324,80.88101,68,70,0
80.888824,81.06851,72,70,0
81.076324,81.44351,72,70,0
81.451324,82.19351,63,70,0
82.201324,82.38101,65,70,0
82.295074,82.47476,63,70,0
82.388824,82.56851,62,70,0
82.482574,82.66679,63,70,0
82.576324,83.1602,67,70,0
82.576324,83.357574,62,70,0
83.16843,83.357574,65,70,0
83.3658,84.14705,63,70,0
84.94474,85.72599,59,70,0
84.94474,85.72599,62,70,0
85.734215,87.2264,59,80,0
85.734215,87.2264,62,80,0
87.234215,87.7889,60,100,0
87.234215,87.7889,63,100,0
87.796715,87.9764,62,108,0
87.796715,87.9764,65,108,0
87.984215,89.4764,63,110,0
87.984215,89.4764,67,110,0
89.484215,90.0389,62,90,0
89.484215,90.0389,65,90,0
90.046715,90.2264,60,75,0
90.046715,90.2264,66,75,0
90.234215,90.6014,58,70,0
90.234215,90.6014,62,70,0
90.234215,90.6014,67,70,0
90.609215,90.9764,58,70,0
90.609215,90.9764,62,70,0
91.359215,91.7264,58,70,0
91.359215,91.7264,62,70,0
92.12895,92.515465,60,70,0
92.12895,92.515465,62,70,0
92.12895,92.515465,66,70,0
92.52369,93.285614,58,70,0
92.52369,93.285614,62,70,0
92.52369,93.285614,67,70,0
94.04343,94.785614,67,70,0
94.79343,96.285614,67,70,0
96.29343,96.848114,68,70,0
96.85593,97.035614,71,70,0
97.04343,98.535614,72,70,0
98.54343,99.098114,70,92,0
99.10593,99.285614,69,100,0
99.29343,100.785614,67,110,0
100.69968,100.879364,70,79,0
100.88718,101.441864,69,77,0
101.35593,101.535614,67,70,0
101.54343,102.285614,67,70,0
102.66843,103.035614,60,70,0
102.66843,103.035614,62,70,0
102.66843,103.035614,66,70,0
103.41843,103.785614,58,70,0
103.41843,103.785614,62,70,0
103.41843,103.785614,67,70,0
103.69968,103.879364,70,70,0
103.79343,104.348114,69,70,0
104.35593,104.535614,67,70,0
104.54343,105.285614,67,70,0
105.66843,106.035614,60,70,0
105.66843,106.035614,62,70,0
105.66843,106.035614,66,70,0
106.41843,106.785614,58,70,0
106.41843,106.785614,62,70,0
106.41843,106.785614,67,70,0
106.69968,106.879364,70,70,0
106.79343,107.348114,69,70,0
107.35593,107.535614,67,72,0
107.54343,108.285614,67,74,0
108.19968,108.379364,70,82,0
108.29343,108.848114,69,83,0
108.85593,109.035614,67,90,0
109.04343,109.82468,67,92,0
109.734215,109.92838,70,100,0
109.8329,110.44922,69,101,0
110.4579,110.657555,67,108,0
110.66623,111.49088,67,110,0
116.16401,116.5312,50,70,0
116.35151,116.7187,53,70,0
116.53901,116.9062,58,70,0
116.91401,117.2812,50,70,0
117.10151,117.4687,53,70,0
117.28901,117.6562,58,70,0
117.66401,118.0312,50,70,0
117.85151,118.2187,53,70,0
118.03901,118.2187,58,70,0
118.41401,118.7812,51,70,0
118.60151,118.9687,55,70,0
118.78901,119.1562,58,70,0
119.16401,119.5312,51,70,0
119.35151,119.7187,55,70,0
119.53901,119.9062,58,70,0
119.91401,120.2812,53,70,0
120.10151,120.4687,56,70,0
120.28901,120.4687,58,70,0
120.66401,121.0312,55,70,0
120.85151,121.2187,58,70,0
121.03901,121.4062,63,70,0
121.41401,121.7812,55,70,0
121.60151,121.9687,58,70,0
121.78901,122.1562,63,70,0
122.16401,122.5312,56,70,0
122.35151,122.7187,60,70,0
122.53901,122.7187,63,70,0
122.91401,123.2812,55,70,0
123.10151,123.4687,58,70,0
123.28901,123.6562,63,70,0
123.66401,124.0312,55,70,0
123.85151,124.2187,58,70,0
124.03901,124.4062,63,70,0
124.41401,124.7812,55,70,0
124.60151,124.9687,58,70,0
124.78901,124.9687,55,70,0
125.16401,125.5312,53,70,0
125.35151,125.7187,58,70,0
125.53901,125.9062,53,70,0
125.91401,126.2812,53,70,0
126.10151,126.4687,62,70,0
126.28901,126.6562,53,70,0
126.66401,127.0312,53,70,0
126.85151,127.2187,56,70,0
127.03901,127.2187,62,70,0
127.41401,127.7812,53,70,0
127.60151,127.9687,56,70,0
127.78901,128.1562,62,70,0
128.16402,128.5312,51,70,0
128.35152,128.7187,55,70,0
128.53902,128.9062,60,70,0
128.91402,129.2812,51,70,0
129.10152,129.4687,53,70,0
129.28902,129.4687,60,70,0
129.66402,130.0312,51,70,0
129.85152,130.2187,54,70,0
130.03902,130.4062,60,70,0
130.41402,130.7812,51,70,0
130.41402,130.7812,55,70,0
130.60152,130.9687,58,70,0
130.78902,131.16565,51,70,0
130.78902,131.16565,55,70,0
131.17387,131.5604,56,70,0
131.37125,131.75777,50,70,0
131.56862,131.75777,56,70,0
131.76599,132.54723,51,70,0
131.76599,132.54723,55,70,0
134.3844,134.62659,55,70,0
134.3844,134.62659,58,70,0
134.6344,134.87659,55,70,0
134.6344,134.87659,58,70,0
135.1344,135.37659,55,70,0
135.1344,135.37659,58,70,0
135.3844,135.62659,55,70,0
135.3844,135.62659,58,70,0
135.8844,136.12659,55,70,0
135.8844,136.12659,58,70,0
136.1344,136.37659,55,70,0
136.1344,136.37659,58,70,0
136.6344,136.87659,58,70,0
136.6344,136.87659,56,70,0
136.8844,137.12659,58,70,0
136.8844,137.12659,56,70,0
137.3844,137.62659,58,70,0
137.3844,137.62659,56,70,0
137.6344,137.87659,58,70,0
137.6344,137.87659,56,70,0
138.1344,138.37659,58,70,0
138.1344,138.37659,56,70,0
138.3844,138.62659,58,70,0
138.3844,138.62659,56,70,0
138.8844,139.12659,50,70,0
138.8844,139.12659,53,70,0
138.8844,139.12659,58,70,0
139.1344,139.37659,50,70,0
139.1344,139.37659,53,70,0
139.1344,139.37659,58,70,0
139.6344,139.87659,50,70,0
139.6344,139.87659,53,70,0
139.6344,139.87659,58,70,0
139.8844,140.12659,50,70,0
139.8844,140.12659,53,70,0
139.8844,140.12659,58,70,0
140.3844,140.62659,50,70,0
140.3844,140.62659,53,70,0
140.3844,140.62659,58,70,0
140.6344,140.87659,50,70,0
140.6344,140.87659,53,70,0
140.6344,140.87659,58,70,0
141.1344,141.37659,51,70,0
141.1344,141.37659,55,70,0
141.1344,141.37659,58,70,0
141.3844,141.62659,51,70,0
141.3844,141.62659,55,70,0
141.3844,141.62659,58,70,0
141.8844,142.12659,51,70,0
141.8844,142.12659,55,70,0
141.8844,142.12659,58,70,0
142.1344,142.37659,51,70,0
142.1344,142.37659,55,70,0
142.1344,142.37659,58,70,0
142.6344,142.87659,51,70,0
142.6344,142.87659,55,70,0
142.6344,142.87659,58,70,0
142.8844,143.12659,51,70,0
142.8844,143.12659,55,70,0
142.8844,143.12659,58,70,0
143.3844,143.62659,55,70,0
143.3844,143.62659,58,70,0
143.6344,143.87659,55,70,0
143.6344,143.87659,58,70,0
144.1344,144.37659,55,70,0
144.1344,144.37659,58,70,0
144.3844,144.62659,55,70,0
144.3844,144.62659,58,70,0
144.8844,145.12659,55,70,0
144.8844,145.12659,58,70,0
145.1344,145.37659,55,70,0
145.1344,145.37659,58,70,0
145.6344,145.87659,56,70,0
145.6344,145.87659,58,70,0
145.8844,146.12659,56,70,0
145.8844,146.12659,58,70,0
146.3844,146.62659,56,70,0
146.3844,146.62659,58,70,0
146.6344,146.87659,56,70,0
146.6344,146.87659,58,70,0
147.1344,147.37659,56,70,0
147.1344,147.37659,58,70,0
147.3844,147.62659,56,70,0
147.3844,147.62659,58,70,0
147.8844,148.12659,56,70,0
147.8844,148.12659,58,70,0
147.8844,148.12659,62,70,0
148.1344,148.37659,56,70,0
148.1344,148.37659,58,70,0
148.1344,148.37659,62,70,0
148.6344,148.87659,56,70,0
148.6344,148.87659,58,70,0
148.6344,148.87659,62,70,0
148.8844,149.12659,56,70,0
148.8844,149.12659,58,70,0
148.8844,149.12659,62,70,0
149.3844,149.62659,56,70,0
149.3844,149.62659,58,70,0
149.3844,149.62659,62,70,0
149.6344,149.87659,56,70,0
149.6344,149.87659,58,70,0
149.6344,149.87659,62,70,0
150.3844,150.62659,55,80,0
150.6344,150.88934,58,87,0
150.89757,151.16307,63,95,0
151.172,151.44878,67,103,0
151.4577,151.75127,70,110,0
151.76074,152.06851,69,100,0
152.07892,152.40184,68,90,0
152.41226,153.15445,67,70,0
153.16226,154.27945,70,70,0
154.28726,154.65445,75,70,0
154.66226,155.40445,75,70,0
155.41226,156.52945,74,70,0
156.53726,156.90445,75,70,0
156.91226,158.40445,77,70,0
158.41226,158.96695,74,70,0
158.97476,159.15445,70,70,0
159.16226,159.90445,70,70,0
159.91226,160.27945,75,70,0
160.66226,161.21695,70,70,0
161.22476,161.40445,68,70,0
161.41226,161.96695,67,70,0
161.97476,162.15445,68,70,0
162.16226,162.71695,70,70,0
162.72476,162.90445,72,70,0
162.91226,163.46695,74,70,0
163.47476,163.65445,75,70,0
163.66226,164.40445,75,70,0
164.41226,165.52945,74,70,0
165.53726,165.90445,75,70,0
165.91226,166.09195,76,70,0
166.09976,166.27945,77,70,0
166.28726,166.46695,76,70,0
166.47476,166.65445,77,70,0
166.66226,166.84195,76,70,0
166.84976,167.02945,77,70,0
167.03726,167.21695,79,70,0
167.22476,167.40445,77,70,0
167.41226,167.59195,75,70,0
167.59976,167.77945,74,70,0
167.78726,167.96695,72,70,0
167.97476,168.15445,70,70,0
168.16226,168.34195,70,70,0
168.34976,168.52945,75,70,0
170.73557,170.97775,58,50,0
170.98557,171.22775,66,50,0
171.48557,171.72775,58,50,0
171.73557,171.97775,66,50,0
172.23557,172.47775,58,50,0
172.48557,172.72775,66,50,0
172.98557,173.22775,58,52,0
172.98557,173.22775,56,52,0
172.98557,173.22775,62,52,0
173.23557,173.47775,65,54,0
173.73557,173.97775,58,59,0
173.73557,173.97775,56,59,0
173.73557,173.97775,62,59,0
173.98557,174.22775,65,62,0
174.48557,174.72775,58,66,0
174.48557,174.72775,56,66,0
174.48557,174.72775,62,66,0
174.73557,174.97775,65,69,0
175.23557,175.47775,54,74,0
175.23557,175.47775,58,74,0
175.48557,175.72775,63,76,0
175.98557,176.22775,54,81,0
175.98557,176.22775,58,81,0
176.23557,176.47775,63,83,0
176.73557,176.97775,58,88,0
176.73557,176.97775,63,88,0
176.98557,177.22775,66,90,0
177.23557,177.47775,58,70,0
177.23557,177.47775,62,70,0
177.23557,177.47775,65,70,0
177.48557,177.72775,70,70,0
177.73557,177.97775,69,70,0
177.98557,178.22775,70,70,0
178.23557,178.47775,72,70,0
178.48557,178.72775,74,70,0
178.73557,178.9905,75,70,0
178.99872,179.26422,76,70,0
179.27316,179.54994,77,70,0
179.55887,180.30106,66,50,0
179.55887,180.30106,78,50,0
180.30887,181.05106,66,50,0
180.30887,181.05106,78,50,0
181.05887,181.7073,66,50,0
181.05887,181.7073,78,50,0
181.71512,181.8948,66,50,0
181.71512,181.8948,78,50,0
181.80887,182.55106,65,50,0
181.80887,182.55106,77,50,0
182.55887,183.11356,65,50,0
182.55887,183.11356,77,50,0
183.12137,183.30106,63,50,0
183.12137,183.30106,75,50,0
183.30887,183.86356,62,50,0
183.30887,183.86356,74,50,0
183.87137,184.05106,65,50,0
183.87137,184.05106,77,50,0
184.05887,184.80106,63,50,0
184.05887,184.80106,75,50,0
184.80887,185.55106,63,50,0
184.80887,185.55106,75,50,0
185.55887,186.30106,66,50,0
185.55887,186.30106,78,50,0
186.30887,187.05106,65,50,0
186.30887,187.61356,77,50,0
187.62137,187.80106,74,50,0
187.80887,188.36356,75,50,0
188.37137,188.55106,78,50,0
188.55887,189.86356,77,50,0
189.87137,190.05106,74,50,0
190.05887,190.61356,75,50,0
190.62137,190.80106,78,50,0
190.80887,191.35918,77,50,0
191.36679,191.5421,74,55,0
191.54973,192.09088,75,57,0
192.09851,192.2738,78,62,0
192.28143,192.81842,77,64,0
192.82585,192.99698,74,69,0
193.00443,193.5327,75,71,0
193.54015,193.71127,78,76,0
193.7187,194.25554,77,78,0
194.26335,194.44304,74,83,0
194.45085,195.05095,75,85,0
195.05988,195.26523,78,90,0
195.27415,195.64134,77,70,0
195.64915,196.01634,74,70,0
196.02415,196.39134,75,70,0
196.39915,196.76634,79,70,0
196.77415,197.14134,73,70,0
197.14915,197.51634,74,70,0
197.52415,197.89134,77,70,0
197.89915,198.26634,71,70,0
198.27415,198.64134,72,70,0
198.64915,199.01634,75,70,0
199.02415,199.39134,69,70,0
199.39915,199.76634,70,70,0
199.77415,200.14134,74,75,0
200.14915,200.51634,67,78,0
200.52415,200.89134,68,81,0
200.89915,201.26634,72,84,0
201.27415,201.66068,64,87,0
201.6689,202.11397,65,90,0
202.12344,202.417,68,70,0
202.42647,202.70134,61,75,0
202.70956,202.96451,62,78,0
202.97272,203.22766,65,82,0
203.23589,203.49081,57,86,0
203.49904,203.75397,58,89,0
203.76219,204.01714,59,93,0
204.02536,204.28029,60,97,0
204.28851,204.54344,61,100,0
204.55167,204.93819,62,100,0
204.94641,205.33292,63,95,0
205.34114,205.72766,64,90,0
205.73589,206.12239,65,85,0
206.13062,206.55026,66,80,0
206.55919,207.04877,67,75,0
207.05919,208.36388,68,70,0
208.37169,208.55138,65,70,0
208.55919,209.11388,70,70,0
209.12169,209.30138,62,70,0
209.30919,210.80138,63,70,0
210.80919,211.17638,65,70,0
211.18419,211.36388,68,70,0
211.37169,211.55138,67,70,0
211.55919,213.05138,67,70,0
213.05919,213.23888,68,70,0
213.15294,213.33263,70,70,0
213.24669,213.42638,68,70,0
213.34044,213.52013,70,70,0
213.43419,213.61388,72,70,0
213.62169,213.80138,70,70,0
213.80919,215.30138,70,70,0
215.30919,215.48888,75,70,0
215.49669,215.67638,74,70,0
215.68419,215.86388,72,70,0
215.87169,216.05138,70,70,0
216.05919,217.55138,70,70,0
217.55919,217.73888,70,70,0
217.65294,217.92638,68,70,0
217.93419,218.11388,67,70,0
218.12169,218.30138,68,70,0
218.30919,218.48888,67,70,0
218.40294,218.58263,68,70,0
218.49669,218.67638,70,70,0
218.59044,219.05138,68,70,0
219.05919,219.80138,67,70,0
219.80919,219.92638,65,70,0
219.87169,219.98888,67,70,0
219.93419,220.05138,65,70,0
219.99669,220.17638,64,70,0
220.09044,220.27013,65,70,0
220.18419,220.36388,68,70,0
220.37169,220.55138,72,70,0
220.55919,220.92638,72,70,0
220.93419,221.67638,63,70,0
221.68419,221.86388,65,70,0
221.77794,221.95763,63,70,0
221.87169,222.05138,62,70,0
221.96544,222.14964,63,70,0
222.05919,222.64307,67,70,0
222.05919,222.84044,62,70,0
222.65129,222.84044,65,70,0
222.84866,223.62991,63,70,0
225.46709,225.70927,53,70,0
225.71709,225.95927,58,70,0
226.21709,226.45927,50,70,0
226.21709,226.45927,53,70,0
226.46709,226.70927,58,70,0
226.96709,227.20927,50,70,0
226.96709,227.20927,53,70,0
227.21709,227.45927,58,70,0
227.71709,227.95927,51,70,0
227.71709,227.95927,55,70,0
227.96709,228.20927,58,70,0
228.46709,228.70927,51,70,0
228.46709,228.70927,55,70,0
228.71709,228.95927,58,70,0
229.21709,229.45927,53,70,0
229.21709,229.45927,56,70,0
229.46709,229.70927,58,70,0
229.96709,230.20927,55,70,0
229.96709,230.20927,58,70,0
230.21709,230.45927,63,70,0
230.71709,230.95927,55,70,0
230.71709,230.95927,58,70,0
230.96709,231.20927,63,70,0
231.46709,231.70927,56,70,0
231.46709,231.70927,60,70,0
231.71709,231.95927,63,70,0
232.21709,232.45927,55,70,0
232.21709,232.45927,58,70,0
232.46709,232.70927,63,70,0
232.96709,233.20927,58,70,0
233.21709,233.45927,63,70,0
233.71709,233.95927,55,70,0
233.96709,234.20927,58,70,0
234.46709,234.70927,53,71,0
234.71709,234.95927,58,73,0
235.21709,235.45927,53,77,0
235.46709,235.70927,62,78,0
235.96709,236.20927,53,82,0
235.96709,236.20927,56,82,0
236.21709,236.45927,62,84,0
236.71709,236.95927,53,87,0
236.71709,236.95927,56,87,0
236.96709,237.20927,62,89,0
237.46709,237.70927,51,93,0
237.46709,237.70927,55,93,0
237.71709,237.95927,63,95,0
238.21709,238.45927,51,98,0
238.21709,238.45927,53,98,0
238.46709,238.70927,60,100,0
238.96709,239.20927,51,97,0
238.96709,239.20927,54,97,0
239.21709,239.45927,60,94,0
239.71709,239.95927,51,87,0
239.71709,239.95927,55,87,0
239.96709,240.20927,58,83,0
240.48024,240.73517,50,76,0
240.48024,240.73517,56,76,0
240.7434,240.99832,58,73,0
241.00655,241.7878,51,70,0
241.00655,241.7878,55,70,0
242.5855,243.36674,67,70,0
243.37497,244.86716,67,70,0
244.87497,245.42966,68,80,0
244.87497,245.61716,67,80,0
245.43747,245.61716,71,100,0
245.62497,247.11716,67,110,0
245.62497,247.11716,72,110,0
247.12497,247.67966,70,88,0
247.12497,247.86716,67,88,0
247.68747,247.86716,69,80,0
247.87497,249.36716,67,70,0
249.28122,249.4609,70,70,0
249.37497,249.92966,69,70,0
249.37497,250.11716,66,70,0
249.93747,250.11716,67,70,0
250.12497,250.49216,67,70,0
250.49997,250.86716,79,70,0
250.87497,251.24216,79,70,0
251.24997,251.61716,79,70,0
251.62497,251.99216,79,70,0
251.99997,252.36716,79,70,0
252.37497,252.55466,79,70,0
252.46872,252.6484,80,71,0
252.56247,252.74216,79,73,0
252.65622,252.8359,80,75,0
252.74997,252.92966,79,76,0
252.84372,253.0234,80,78,0
252.93747,253.11716,79,80,0
253.03122,253.2109,80,81,0
253.12497,253.30466,79,83,0
253.21872,253.3984,80,85,0
253.31247,253.49216,79,87,0
253.40622,253.5859,80,88,0
253.49997,253.67966,79,90,0
253.59372,253.7734,80,92,0
253.68747,253.86716,79,93,0
253.78122,253.9609,80,95,0
253.87497,254.05466,79,97,0
253.96872,254.1484,80,98,0
254.06247,254.24216,79,100,0
254.15622,254.3359,80,102,0
254.24997,254.42966,79,104,0
254.34372,254.5234,80,105,0
254.43747,254.61716,79,107,0
254.53122,254.7109,80,109,0
254.62497,254.80466,79,110,0
254.71872,254.8984,80,108,0
254.81247,254.99216,79,105,0
254.90622,255.0859,80,102,0
254.99997,255.17966,79,99,0
255.09372,255.2734,80,96,0
255.18747,255.36716,79,93,0
255.28122,255.4609,80,90,0
255.37497,255.55466,79,87,0
255.49997,255.67966,80,83,0
255.62497,255.80466,79,79,0
255.74997,255.92966,78,76,0
255.93747,256.11716,79,70,0
256.12497,256.49216,79,81,0
256.49997,256.86716,79,73,0
256.87497,257.24216,79,70,0
257.24997,257.61716,79,70,0
257.99997,258.36716,79,70,0
258.74997,259.11716,78,70,0
259.12497,259.86716,79,70,0
259.78122,259.9609,82,70,0
259.87497,260.42966,81,70,0
260.43747,260.61716,79,70,0
260.62497,261.36716,79,70,0
261.74997,262.11716,72,70,0
261.74997,262.11716,74,70,0
261.74997,262.11716,78,70,0
262.49997,262.86716,74,70,0
262.49997,262.86716,70,70,0
262.49997,262.86716,79,70,0
262.78122,262.9609,82,70,0
262.87497,263.42966,81,70,0
263.43747,263.61716,79,70,0
263.62497,264.36716,79,70,0
264.7408,265.09906,74,79,0
264.7408,265.09906,72,79,0
264.7408,265.09906,78,79,0
265.47253,265.83075,70,85,0
265.47253,265.83075,74,85,0
265.47253,265.83075,79,85,0
266.19553,266.54523,72,91,0
266.19553,266.54523,74,91,0
266.19553,266.54523,78,91,0
266.90982,267.25952,70,97,0
266.90982,267.25952,74,97,0
266.90982,267.25952,79,97,0
267.64197,268.02847,72,90,0
267.64197,268.02847,74,90,0
267.64197,268.02847,78,90,0
268.03668,268.42322,74,110,0
268.03668,268.42322,70,110,0
268.03668,268.42322,79,110,0
268.43143,269.21268,67,102,0
269.22092,270.00214,67,85,0
270.01038,270.79163,67,68,0
270.79984,270.99722,66,55,0
270.99722,271.19458,67,55,0
271.19458,271.40887,66,55,0
271.40887,271.62317,67,55,0
271.62317,271.83743,66,55,0
271.83743,272.05173,67,55,0
272.05173,272.279,66,55,0
272.279,272.50626,67,55,0
272.50626,272.75626,66,55,0
272.75626,272.99585,67,55,0
273.00626,274.31094,68,70,0
274.31876,274.49844,65,70,0
274.50626,275.06094,70,70,0
275.06876,275.24844,62,70,0
275.25626,276.74844,63,70,0
276.75626,277.12344,65,70,0
277.13126,277.31094,68,70,0
277.31876,277.49844,67,70,0
277.50626,278.99844,67,70,0
279.00626,279.18594,68,70,0
279.1,279.2797,70,70,0
279.19376,279.37344,68,70,0
279.2875,279.4672,70,70,0
279.38126,279.56094,72,70,0
279.56876,279.74844,70,70,0
279.75626,281.24844,70,70,0
281.25626,281.43594,75,70,0
281.44376,281.62344,74,70,0
281.63126,281.81094,72,70,0
281.81876,281.99844,70,70,0
282.00626,283.49844,70,70,0
283.50626,283.68594,70,70,0
283.6,283.87344,68,70,0
283.88126,284.06094,67,70,0
284.06876,284.24844,68,70,0
284.25626,284.43594,67,70,0
284.35,284.5297,68,70,0
284.44376,284.62344,70,70,0
284.5375,284.99844,68,70,0
285.00626,285.74844,67,70,0
285.75626,285.87344,65,70,0
285.81876,285.93594,67,70,0
285.88126,285.99844,65,70,0
285.94376,286.12344,64,70,0
286.0375,286.2172,65,70,0
286.13126,286.31094,68,70,0
286.31876,286.49844,72,70,0
286.50626,286.87344,72,70,0
286.88126,287.62344,63,70,0
287.63126,287.81094,65,70,0
287.725,287.9047,63,70,0
287.81876,287.99844,62,70,0
287.9125,288.09674,63,70,0
288.00626,288.59015,67,70,0
288.00626,288.7875,62,70,0
288.5984,288.7875,65,70,0
288.79575,289.577,63,70,0
290.3747,291.15594,59,70,0
290.3747,291.15594,62,70,0
291.16415,292.65634,59,80,0
291.16415,292.65634,62,80,0
292.66415,293.21884,60,100,0
292.66415,293.21884,63,100,0
293.22665,293.40634,62,108,0
293.22665,293.40634,65,108,0
293.41415,294.90634,63,110,0
293.41415,294.90634,67,110,0
294.91415,295.46884,62,90,0
294.91415,295.46884,65,90,0
295.47665,295.65634,60,75,0
295.47665,295.65634,66,75,0
295.66415,296.03134,58,70,0
295.66415,296.03134,62,70,0
295.66415,296.03134,67,70,0
296.03915,296.40634,58,70,0
296.03915,296.40634,62,70,0
296.78915,297.15634,58,70,0
296.78915,297.15634,62,70,0
297.5589,297.9454,60,70,0
297.5589,297.9454,62,70,0
297.5589,297.9454,66,70,0
297.95364,298.7349,58,70,0
297.95364,298.7349,62,70,0
297.95364,298.7349,67,70,0
299.5326,300.39432,67,70,0
300.4038,301.97552,67,70,0
301.98334,302.53802,68,70,0
302.54584,302.72552,71,70,0
302.73334,304.22552,72,100,0
304.23334,304.78802,70,80,0
304.79584,304.97552,69,72,0
304.98334,306.47552,67,70,0
306.3896,306.56927,70,79,0
306.5771,307.13177,69,77,0
307.04584,307.22552,67,70,0
307.23334,307.97552,67,70,0
308.35834,308.72552,60,70,0
308.35834,308.72552,62,70,0
308.35834,308.72552,66,70,0
309.10834,309.47552,58,70,0
309.10834,309.47552,62,70,0
309.10834,309.47552,67,70,0
309.3896,309.56927,70,70,0
309.48334,310.03802,69,70,0
310.04584,310.22552,67,70,0
310.23334,310.97552,67,70,0
311.35834,311.72552,60,70,0
311.35834,311.72552,62,70,0
311.35834,311.72552,66,70,0
312.10834,312.47552,58,70,0
312.10834,312.47552,62,70,0
312.10834,312.47552,67,70,0
312.3896,312.56927,70,70,0
312.48334,313.03802,69,70,0
313.04584,313.22552,67,72,0
313.23334,313.97552,67,74,0
313.8896,314.06927,70,82,0
313.98334,314.53802,69,83,0
314.54584,314.72552,67,90,0
314.73334,315.50446,67,92,0
315.41516,315.60547,70,100,0
315.51257,316.1122,69,101,0
316.12067,316.3149,67,108,0
316.32336,317.1046,67,110,0
321.48044,321.84763,50,70,0
321.66794,322.03513,53,70,0
321.85544,322.22263,58,70,0
322.23044,322.59763,50,70,0
322.41794,322.78513,53,70,0
322.60544,322.97263,58,70,0
322.98044,323.34763,50,70,0
323.16794,323.53513,53,70,0
323.35544,323.53513,58,70,0
323.73044,324.09763,51,70,0
323.91794,324.28513,55,70,0
324.10544,324.47263,58,70,0
324.48044,324.84763,51,70,0
324.66794,325.03513,55,70,0
324.85544,325.22263,58,70,0
325.23044,325.59763,53,70,0
325.41794,325.78513,56,70,0
325.60544,325.78513,58,70,0
325.98044,326.34763,55,70,0
326.16794,326.53513,58,70,0
326.35544,326.72263,63,70,0
326.73044,327.09763,55,70,0
326.91794,327.28513,58,70,0
327.10544,327.47263,63,70,0
327.48044,327.84763,56,70,0
327.66794,328.03513,60,70,0
327.85544,328.03513,63,70,0
328.23044,328.59763,55,70,0
328.41794,328.78513,58,70,0
328.60544,328.97263,63,70,0
328.98044,329.34763,55,70,0
329.16794,329.53513,58,70,0
329.35544,329.72263,63,70,0
329.73044,330.09763,55,70,0
329.91794,330.28513,58,70,0
330.10544,330.28513,55,70,0
330.48044,330.84763,53,70,0
330.66794,331.03513,58,70,0
330.85544,331.22263,53,70,0
331.23044,331.59763,53,70,0
331.41794,331.78513,62,70,0
331.60544,331.97263,53,70,0
331.98044,332.34763,53,70,0
332.16794,332.53513,56,70,0
332.35544,332.53513,62,70,0
332.73044,333.09763,53,70,0
332.91794,333.28513,56,70,0
333.10544,333.47263,62,70,0
333.48044,333.84763,51,70,0
333.66794,334.03513,55,70,0
333.85544,334.22263,60,70,0
334.23044,334.59763,51,70,0
334.41794,334.78513,53,70,0
334.60544,334.78513,60,70,0
334.98044,335.34763,51,70,0
335.16794,335.53513,54,70,0
335.35544,335.7321,60,70,0
335.74033,336.12683,51,70,0
335.74033,336.12683,55,70,0
335.93768,336.3242,58,70,0
336.13504,336.53207,51,70,0
336.13504,336.53207,55,70,0
336.54074,336.94873,56,70,0
336.74908,337.15707,50,70,0
336.95743,337.15707,56,70,0
337.16574,337.99042,51,70,0
337.16574,337.99042,55,70,0
339.91574,340.15793,55,70,0
339.91574,340.15793,58,70,0
340.16574,340.40793,55,70,0
340.16574,340.40793,58,70,0
340.66574,340.90793,55,70,0
340.66574,340.90793,58,70,0
340.91574,341.15793,55,70,0
340.91574,341.15793,58,70,0
341.41574,341.65793,55,70,0
341.41574,341.65793,58,70,0
341.66574,341.90793,55,70,0
341.66574,341.90793,58,70,0
342.16574,342.40793,58,70,0
342.16574,342.40793,56,70,0
342.41574,342.65793,58,70,0
342.41574,342.65793,56,70,0
342.91574,343.15793,58,70,0
342.91574,343.15793,56,70,0
343.16574,343.40793,58,70,0
343.16574,343.40793,56,70,0
343.66574,343.90793,58,70,0
343.66574,343.90793,56,70,0
343.91574,344.15793,58,70,0
343.91574,344.15793,56,70,0
344.41574,344.65793,50,70,0
344.41574,344.65793,53,70,0
344.41574,344.65793,58,70,0
344.66574,344.90793,50,70,0
344.66574,344.90793,53,70,0
344.66574,344.90793,58,70,0
345.16574,345.40793,50,70,0
345.16574,345.40793,53,70,0
345.16574,345.40793,58,70,0
345.41574,345.65793,50,70,0
345.41574,345.65793,53,70,0
345.41574,345.65793,58,70,0
345.91574,346.15793,50,70,0
345.91574,346.15793,53,70,0
345.91574,346.15793,58,70,0
346.16574,346.40793,50,70,0
346.16574,346.40793,53,70,0
346.16574,346.40793,58,70,0
346.66574,346.90793,51,70,0
346.66574,346.90793,55,70,0
346.66574,346.90793,58,70,0
346.91574,347.15793,51,70,0
346.91574,347.15793,55,70,0
346.91574,347.15793,58,70,0
347.41574,347.65793,51,70,0
347.41574,347.65793,55,70,0
347.41574,347.65793,58,70,0
347.66574,347.90793,51,70,0
347.66574,347.90793,55,70,0
347.66574,347.90793,58,70,0
348.16574,348.40793,51,70,0
348.16574,348.40793,55,70,0
348.16574,348.40793,58,70,0
348.41574,348.65793,51,70,0
348.41574,348.65793,55,70,0
348.41574,348.65793,58,70,0
348.91574,349.15793,55,70,0
348.91574,349.15793,58,70,0
349.16574,349.40793,55,70,0
349.16574,349.40793,58,70,0
349.66574,349.90793,55,70,0
349.66574,349.90793,58,70,0
349.91574,350.15793,55,70,0
349.91574,350.15793,58,70,0
350.41574,350.65793,55,70,0
350.41574,350.65793,58,70,0
350.66574,350.90793,55,70,0
350.66574,350.90793,58,70,0
351.16574,351.40793,56,70,0
351.16574,351.40793,58,70,0
351.41574,351.65793,56,70,0
351.41574,351.65793,58,70,0
351.91574,352.15793,56,70,0
351.91574,352.15793,58,70,0
352.16574,352.40793,56,70,0
352.16574,352.40793,58,70,0
352.66574,352.90793,56,70,0
352.66574,352.90793,58,70,0
352.91574,353.15793,56,70,0
352.91574,353.15793,58,70,0
353.41574,353.65793,56,70,0
353.41574,353.65793,58,70,0
353.41574,353.65793,62,70,0
353.66574,353.90793,56,70,0
353.66574,353.90793,58,70,0
353.66574,353.90793,62,70,0
354.16574,354.40793,56,70,0
354.16574,354.40793,58,70,0
354.16574,354.40793,62,70,0
354.41574,354.65793,56,70,0
354.41574,354.65793,58,70,0
354.41574,354.65793,62,70,0
354.91574,355.15793,56,70,0
354.91574,355.15793,58,70,0
354.91574,355.15793,62,70,0
355.16574,355.40793,56,70,0
355.16574,355.40793,58,70,0
355.16574,355.40793,62,70,0
355.91574,356.15793,55,80,0
356.16574,356.4207,58,87,0
356.42892,356.69443,63,95,0
356.70334,356.98013,67,103,0
356.98907,357.28262,70,110,0
357.29208,357.59985,69,100,0
357.61026,357.9332,68,90,0
357.9436,358.8108,67,70,0
358.8186,359.9358,70,70,0
359.9436,360.3108,75,70,0
360.3186,361.0608,75,70,0
361.0686,362.1858,74,70,0
362.1936,362.5608,75,70,0
362.5686,364.0608,77,70,0
364.0686,364.6233,74,70,0
364.6311,364.8108,70,70,0
364.8186,365.5608,70,70,0
365.5686,365.9358,75,70,0
366.3186,366.8733,70,70,0
366.8811,367.0608,68,70,0
367.0686,367.6233,67,70,0
367.6311,367.8108,68,80,0
367.8186,368.3733,70,83,0
368.3811,368.5608,72,93,0
368.5686,369.1233,74,97,0
369.1311,369.3108,75,107,0
369.3186,371.5608,75,110,0
371.5686,371.7483,74,70,0
371.7561,371.9358,75,70,0
371.9436,372.1233,77,70,0
372.1311,372.3108,75,70,0
372.3186,372.4983,74,70,0
372.5061,372.6858,75,70,0
372.6936,372.8733,77,70,0
372.8811,373.0608,75,70,0
373.0686,373.2483,74,70,0
373.2561,373.4358,72,70,0
373.4436,373.6233,70,70,0
373.6311,373.8108,69,70,0
373.8186,374.1858,70,70,0
376.8186,377.5608,65,70,0
377.5686,378.3108,65,70,0
378.3186,380.5608,75,110,0
380.5686,380.7483,74,70,0
380.7561,380.9358,75,70,0
380.9436,381.1233,77,70,0
381.1311,381.3108,75,70,0
381.3186,381.4983,74,70,0
381.5061,381.6858,75,70,0
381.6936,381.8733,77,70,0
381.8811,382.0608,75,70,0
382.0686,382.2483,74,70,0
382.2561,382.4358,72,70,0
382.4436,382.6233,70,70,0
382.6311,382.8108,69,70,0
382.8186,383.5608,70,70,0
383.5686,384.3108,58,70,0
385.0686,385.2483,74,70,0
385.2561,385.4358,75,70,0
385.4436,385.6233,77,70,0
385.6311,385.8108,75,70,0
385.8186,385.9983,74,70,0
386.0061,386.1858,75,70,0
386.1936,386.3733,77,70,0
386.3811,386.5608,75,70,0
386.5686,386.7483,74,70,0
386.7561,386.9358,72,70,0
386.9436,387.1233,70,70,0
387.1311,387.3108,69,70,0
387.3186,388.0608,70,70,0
388.0686,388.8108,58,70,0
389.5686,389.7483,74,70,0
389.7561,389.9358,75,70,0
389.9436,390.1233,77,70,0
390.1311,390.3108,75,70,0
390.3186,390.4983,74,70,0
390.5061,390.6858,75,70,0
390.6936,390.8733,77,70,0
390.8811,391.0608,75,70,0
391.0686,391.2483,74,70,0
391.2561,391.4358,72,70,0
391.4436,391.6233,70,70,0
391.6311,391.8108,69,70,0
391.8186,391.9983,76,70,0
392.0061,392.1858,77,71,0
392.1936,392.3733,79,72,0
392.3811,392.5608,77,74,0
392.5686,392.7483,76,75,0
392.7561,392.9358,77,76,0
392.9436,393.1233,79,78,0
393.1311,393.3108,77,79,0
393.3186,393.4983,75,80,0
393.5061,393.6858,74,82,0
393.6936,393.8733,72,83,0
393.8811,394.0608,70,84,0
394.0686,394.2483,79,86,0
394.2561,394.4358,80,87,0
394.4436,394.6233,82,88,0
394.6311,394.8108,80,90,0
394.8186,394.9983,79,91,0
395.0061,395.1858,80,92,0
395.1936,395.3733,82,94,0
395.3811,395.5608,80,95,0
395.5686,395.7483,79,96,0
395.7561,395.9358,77,98,0
395.9436,396.1233,75,99,0
396.1311,396.3108,74,100,0
396.3186,396.4983,83,100,0
396.5061,396.6858,84,100,0
396.6936,396.8733,86,100,0
396.8811,397.0608,84,100,0
397.0686,397.2483,83,100,0
397.2561,397.4358,84,100,0
397.4436,397.6233,86,100,0
397.6311,397.8108,84,100,0
397.8186,397.9983,82,100,0
398.0061,398.1858,80,100,0
398.1936,398.3733,79,100,0
398.3811,398.5608,77,100,0
398.5686,398.7483,76,100,0
398.7561,398.9358,77,100,0
398.9436,399.1233,79,100,0
399.1311,399.3108,80,100,0
399.3186,399.4983,79,100,0
399.5061,399.6858,77,100,0
399.6936,399.8733,75,100,0
399.8811,400.0608,74,100,0
400.0686,400.2483,73,100,0
400.2561,400.4358,74,98,0
400.4436,400.6233,75,95,0
400.6311,400.8108,77,92,0
400.8186,400.9983,75,89,0
401.0061,401.1858,74,86,0
401.1936,401.3733,72,84,0
401.3811,401.5608,70,81,0
401.5686,401.7483,69,78,0
401.7561,401.9358,70,75,0
401.9436,402.1233,72,72,0
402.1311,402.3108,70,70,0
402.3186,402.5608,69,70,0
402.5686,402.8108,70,70,0
402.8186,403.0608,71,70,0
403.0686,403.3108,72,70,0
403.3186,403.5608,73,74,0
403.5686,403.8108,74,78,0
403.8186,404.0608,75,82,0
404.0686,404.3108,76,86,0
404.3186,404.5608,77,90,0
404.5686,404.9358,78,94,0
404.9436,405.3108,79,100,0
405.3186,406.6233,80,70,0
406.6311,406.8108,77,70,0
406.8186,407.3733,82,70,0
407.3811,407.5608,74,70,0
407.5686,409.0608,75,70,0
411.3186,411.4983,80,70,0
411.41235,411.59204,82,70,0
411.5061,411.6858,80,70,0
411.59985,411.77954,82,70,0
411.6936,411.8733,84,70,0
411.8811,412.0608,82,70,0
412.0686,413.5608,82,70,0
418.0686,418.1858,77,70,0
418.1311,418.2483,79,72,0
418.1936,418.3108,77,74,0
418.2561,418.4358,76,76,0
418.34985,418.4358,77,80,0
418.4436,418.6233,80,83,0
418.6311,418.8108,84,90,0
418.8186,419.1858,84,97,0
419.1936,420.3108,75,110,0
420.3186,421.0608,56,70,0
420.3186,421.0608,62,70,0
421.0686,421.8108,55,70,0
421.0686,421.8108,60,70,0
422.5686,422.65454,77,70,0
422.66235,422.7483,79,73,0
422.7561,422.84204,77,76,0
422.84985,422.9358,76,80,0
422.9436,423.0608,77,83,0
423.0061,423.1233,79,85,0
423.0686,423.1858,80,88,0
423.1311,423.21704,82,90,0
423.22485,423.3108,84,93,0
423.3186,423.6858,84,97,0
423.6936,424.8108,75,110,0
424.8186,425.5608,56,70,0
424.8186,425.5608,62,70,0
425.5686,426.3108,55,70,0
425.5686,426.3108,60,70,0
427.0686,427.15454,77,70,0
427.16235,427.2483,79,75,0
427.2561,427.34204,77,81,0
427.34985,427.4358,76,87,0
427.4436,427.5608,77,93,0
427.5061,427.6233,79,97,0
427.5686,427.6858,80,100,0
427.6311,427.71704,82,104,0
427.72485,427.8108,84,110,0
427.8186,428.079,84,110,0
428.17575,428.8826,82,110,0
428.89005,429.63223,82,110,0
429.64005,430.02655,82,110,0
430.03476,430.4213,82,110,0
430.4295,430.61865,80,110,0
430.62686,430.816,79,106,0
430.82425,431.0134,77,102,0
431.0216,431.21075,75,98,0
431.21896,431.4081,74,94,0
431.41635,431.6055,72,90,0
431.6137,431.81906,70,86,0
431.828,432.03336,68,82,0
432.0423,432.28186,67,78,0
432.2923,432.53186,65,74,0
432.5423,433.53186,63,70,0
434.5423,435.34467,68,70,0
435.3531,436.15546,67,70,0
436.97473,437.57437,67,70,0
436.97473,437.77707,62,70,0
437.58282,437.77707,65,70,0
437.78552,438.5879,63,70,0
439.40714,440.2095,68,70,0
440.21796,441.02032,67,70,0
441.02878,441.62842,67,70,0
441.02878,441.83112,62,70,0
441.63687,441.83112,65,70,0
441.83957,442.64194,63,70,0
442.6504,443.25006,67,70,0
442.6504,443.45276,62,70,0
443.25848,443.45276,65,85,0
443.46118,444.2323,63,90,0
444.24042,444.8401,67,110,0
444.24042,445.0428,62,110,0
444.8485,445.0428,65,110,0
445.05124,445.89944,63,110,0
446.81744,446.9595,82,70,0
446.89322,447.03525,84,70,0
446.96896,447.11102,82,70,0
447.04474,447.18677,84,70,0
447.12048,447.26254,82,70,0
447.19626,447.3383,84,70,0
447.272,447.41406,82,70,0
447.34775,447.4898,84,70,0
447.42352,447.56555,82,70,0
447.49927,447.71707,81,70,0
447.72656,448.17163,82,70,0
448.1811,452.26254,87,70,0
1.4391998,2.1813872,46,70,0
2.1891997,2.9313872,58,70,0
2.9391997,3.6813872,56,70,0
3.6891997,4.4313874,55,70,0
4.4392,5.1813874,51,70,0
5.1892,5.9313874,50,70,0
5.9392,6.6813874,51,70,0
6.6892,7.4313874,49,70,0
7.4392,7.8063874,48,70,0
7.8142,8.181387,44,70,0
8.189199,8.931387,51,70,0
8.939199,9.681387,55,70,0
9.689199,10.431387,51,70,0
10.439199,11.181387,50,70,0
11.189199,11.931387,46,70,0
11.939199,12.681387,47,70,0
12.689199,13.431387,48,70,0
13.439199,14.181387,36,70,0
14.189199,14.931387,53,70,0
14.189199,14.931387,44,70,0
14.939199,15.681387,45,70,0
14.939199,15.681387,54,70,0
15.689199,16.431387,46,70,0
15.689199,16.431387,55,70,0
16.4392,17.22045,34,70,0
16.4392,17.22045,46,70,0
17.228672,18.009922,39,70,0
18.018147,18.799395,51,70,0
19.597092,20.33928,34,70,0
20.347092,21.08928,46,70,0
21.097092,21.83928,44,70,0
21.847092,22.58928,43,70,0
22.597092,23.33928,39,70,0
23.347092,24.08928,38,70,0
24.097092,24.83928,39,70,0
24.847092,25.21428,51,70,0
25.222092,25.58928,49,70,0
25.597092,25.96428,48,70,0
25.972092,26.33928,44,70,0
26.347092,27.08928,39,70,0
26.347092,27.08928,51,70,0
27.097092,27.83928,43,70,0
27.097092,27.83928,55,70,0
27.847092,28.58928,39,70,0
27.847092,28.58928,51,70,0
28.597092,29.33928,38,70,0
28.597092,29.33928,50,70,0
29.347092,30.08928,34,75,0
29.347092,30.08928,46,75,0
30.097092,30.83928,35,80,0
30.097092,30.83928,47,80,0
30.847092,31.58928,36,86,0
30.847092,31.58928,48,86,0
31.597092,32.33928,36,91,0
32.34709,33.08928,32,96,0
32.34709,33.08928,44,96,0
33.09709,33.83928,33,100,0
33.09709,33.83928,45,100,0
33.84709,34.618195,34,90,0
33.84709,34.618195,46,90,0
34.626312,35.439777,34,80,0
35.448704,36.296917,39,70,0
36.305847,37.15406,51,70,0
38.02013,39.512318,59,70,0
38.02013,39.512318,62,70,0
39.52013,40.074818,63,80,0
39.52013,40.074818,60,80,0
40.08263,40.262318,62,100,0
40.08263,40.262318,65,100,0
40.27013,41.762318,63,110,0
41.77013,42.324818,65,88,0
41.77013,42.324818,62,88,0
42.33263,42.512318,60,80,0
42.33263,42.512318,63,80,0
42.52013,43.262318,58,70,0
42.52013,43.262318,62,70,0
43.27013,44.012318,50,70,0
43.27013,44.012318,58,70,0
44.02013,44.80138,60,70,0
44.02013,44.80138,50,70,0
44.809605,45.590855,55,70,0
44.809605,45.590855,58,70,0
46.38855,47.21915,62,70,0
46.38855,47.21915,59,70,0
47.22808,48.72027,62,70,0
47.22808,48.72027,59,70,0
48.72808,49.28277,60,92,0
48.72808,49.28277,63,92,0
49.29058,49.47027,62,100,0
49.29058,49.47027,65,100,0
49.47808,50.97027,67,110,0
49.47808,50.97027,63,110,0
50.97808,51.53277,62,81,0
50.97808,51.53277,65,81,0
51.54058,51.72027,60,70,0
51.54058,51.72027,63,70,0
51.72808,52.47027,62,70,0
51.72808,52.47027,58,70,0
52.47808,53.22027,50,70,0
52.47808,53.22027,58,70,0
53.22808,54.009327,60,70,0
53.22808,54.009327,50,70,0
54.01755,54.7988,55,70,0
54.01755,54.7988,58,70,0
54.807026,55.549213,62,70,0
54.807026,55.549213,72,70,0
55.557026,56.299213,70,70,0
55.557026,56.299213,67,70,0
56.307026,57.049213,50,70,0
56.307026,57.049213,62,70,0
57.057026,57.799213,43,70,0
57.057026,57.799213,55,70,0
57.807026,58.549213,62,70,0
57.807026,58.549213,72,70,0
58.557026,59.299213,67,70,0
58.557026,59.299213,70,70,0
59.307026,60.049213,50,76,0
59.307026,60.049213,62,76,0
60.057026,60.78111,43,82,0
60.057026,60.78111,55,82,0
60.78873,61.495575,38,88,0
60.78873,61.495575,50,88,0
61.503017,62.20986,43,94,0
61.503017,62.20986,55,94,0
62.2173,62.959488,38,100,0
62.2173,62.959488,50,100,0
62.9673,63.709488,43,110,0
62.9673,63.709488,55,110,0
67.576324,68.31851,46,70,0
68.326324,69.06851,58,70,0
69.076324,69.81851,56,70,0
69.826324,70.56851,55,70,0
70.576324,71.31851,51,70,0
71.326324,72.06851,50,70,0
72.076324,72.81851,51,70,0
72.826324,73.56851,49,70,0
73.576324,73.94351,48,70,0
73.951324,74.31851,44,70,0
74.326324,75.06851,51,70,0
75.076324,75.81851,55,70,0
75.826324,76.56851,51,70,0
76.576324,77.31851,50,70,0
77.326324,78.06851,46,70,0
78.076324,78.81851,47,70,0
78.826324,79.56851,48,70,0
79.576324,80.31851,36,70,0
80.326324,81.06851,53,70,0
80.326324,81.06851,44,70,0
81.076324,81.81851,45,70,0
81.076324,81.81851,54,70,0
81.826324,82.56851,46,70,0
81.826324,82.56851,55,70,0
82.576324,83.357574,34,70,0
82.576324,83.357574,46,70,0
83.3658,84.14705,39,70,0
84.15527,84.936516,51,70,0
85.734215,86.1014,43,80,0
86.109215,86.4764,55,85,0
86.484215,86.8514,55,90,0
86.859215,87.2264,55,95,0
87.234215,87.6014,55,100,0
87.609215,87.9764,55,105,0
87.984215,88.3514,55,110,0
88.359215,88.7264,55,70,0
88.734215,89.1014,55,70,0
89.109215,89.4764,55,70,0
89.484215,89.8514,55,90,0
89.859215,90.2264,55,80,0
90.234215,90.9764,43,70,0
90.984215,91.7264,50,70,0
91.734215,92.515465,38,70,0
92.52369,93.285614,43,70,0
94.04343,94.785614,62,70,0
94.04343,94.785614,59,70,0
94.79343,96.285614,59,70,0
94.79343,96.285614,62,70,0
96.29343,96.848114,60,70,0
96.29343,96.848114,63,70,0
96.85593,97.035614,62,70,0
96.85593,97.035614,65,70,0
97.04343,98.535614,67,70,0
97.04343,98.535614,63,70,0
98.54343,99.098114,62,92,0
98.54343,99.098114,65,92,0
99.10593,99.285614,60,100,0
99.10593,99.285614,63,100,0
99.29343,100.035614,58,110,0
99.29343,100.035614,62,110,0
100.04343,100.785614,50,89,0
100.04343,100.785614,58,89,0
100.79343,101.535614,50,78,0
100.79343,101.535614,60,78,0
101.54343,102.285614,58,70,0
101.54343,102.285614,55,70,0
102.29343,103.035614,38,70,0
102.29343,103.035614,50,70,0
103.04343,103.785614,43,70,0
103.04343,103.785614,55,70,0
103.79343,104.160614,60,70,0
103.79343,104.535614,50,70,0
104.16843,104.535614,62,70,0
104.54343,104.910614,58,70,0
104.54343,105.285614,55,70,0
104.91843,105.285614,62,70,0
105.29343,106.035614,38,70,0
105.29343,106.035614,50,70,0
106.04343,106.785614,43,70,0
106.04343,106.785614,55,70,0
106.79343,107.160614,60,70,0
106.79343,107.535614,50,70,0
107.16843,107.535614,62,70,0
107.54343,107.910614,58,74,0
107.54343,108.285614,55,74,0
107.91843,108.285614,62,79,0
108.29343,108.660614,60,83,0
108.29343,109.035614,50,83,0
108.66843,109.035614,62,88,0
109.04343,109.42994,58,92,0
109.04343,109.82468,55,92,0
109.43816,109.82468,62,97,0
109.8329,110.24088,60,101,0
109.8329,110.657555,50,101,0
110.249565,110.657555,62,106,0
110.66623,111.49088,55,110,0
110.66623,111.49088,58,110,0
115.97651,116.7187,34,70,0
116.72651,117.4687,46,70,0
117.47651,118.2187,44,70,0
118.22651,118.9687,43,70,0
118.97651,119.7187,39,70,0
119.72651,120.4687,38,70,0
120.47651,121.2187,39,70,0
121.22651,121.5937,51,70,0
121.60151,121.9687,49,70,0
121.97651,122.3437,48,70,0
122.35151,122.7187,44,70,0
122.72651,123.4687,51,70,0
123.47651,124.2187,39,70,0
124.22651,124.9687,39,70,0
124.22651,124.9687,51,70,0
124.97651,125.7187,38,70,0
124.97651,125.7187,50,70,0
125.72651,126.4687,34,70,0
125.72651,126.4687,46,70,0
126.47651,127.2187,35,70,0
126.47651,127.2187,47,70,0
127.22651,127.9687,36,70,0
127.22651,127.9687,48,70,0
127.97651,128.7187,36,70,0
128.72652,129.4687,32,70,0
128.72652,129.4687,44,70,0
129.47652,130.2187,33,70,0
129.47652,130.2187,45,70,0
130.22652,130.9687,34,70,0
130.22652,130.9687,46,70,0
130.97652,131.75777,34,70,0
131.76599,132.54723,39,70,0
132.55545,133.3367,51,70,0
134.1344,134.87659,39,70,0
134.8844,135.62659,34,70,0
135.6344,136.37659,39,70,0
136.3844,137.12659,34,70,0
137.1344,137.87659,41,70,0
137.8844,138.62659,34,70,0
138.6344,139.37659,44,70,0
139.3844,140.12659,34,70,0
140.1344,140.87659,44,70,0
140.8844,141.62659,34,70,0
141.6344,142.37659,43,70,0
142.3844,143.12659,34,70,0
143.1344,143.87659,39,70,0
143.8844,144.62659,34,70,0
144.6344,145.37659,39,70,0
145.3844,146.12659,34,70,0
146.1344,146.87659,41,70,0
146.8844,147.62659,34,70,0
147.6344,148.37659,46,70,0
148.3844,149.12659,34,70,0
149.1344,149.87659,46,70,0
149.8844,150.12659,39,70,0
150.1344,150.37659,51,70,0
152.66226,152.90445,55,70,0
152.41226,153.15445,51,70,0
152.91226,153.15445,58,70,0
153.41226,153.65445,55,70,0
153.16226,153.90445,46,70,0
153.66226,153.90445,58,70,0
154.16226,154.40445,55,70,0
153.91226,154.65445,51,70,0
154.41226,154.65445,58,70,0
154.91226,155.15445,56,70,0
154.66226,155.40445,46,70,0
155.16226,155.40445,58,70,0
155.66226,155.90445,56,70,0
155.41226,156.15445,53,70,0
155.91226,156.15445,58,70,0
156.41226,156.65445,56,70,0
156.16226,156.90445,46,70,0
156.66226,156.90445,58,70,0
157.16226,157.40445,58,70,0
156.91226,157.65445,56,70,0
157.41226,157.65445,56,70,0
157.91226,158.15445,56,70,0
157.66226,158.40445,46,70,0
158.16226,158.40445,58,70,0
158.66226,158.90445,58,70,0
158.41226,159.15445,56,70,0
158.91226,159.15445,56,70,0
159.41226,159.65445,55,70,0
159.16226,159.90445,46,70,0
159.66226,159.90445,58,70,0
160.16226,160.40445,58,70,0
159.91226,160.65445,55,70,0
160.41226,160.65445,55,70,0
160.91226,161.15445,55,70,0
160.66226,161.40445,46,70,0
161.16226,161.40445,58,70,0
161.66226,161.90445,55,70,0
161.41226,162.15445,51,70,0
161.91226,162.15445,58,70,0
162.41226,162.65445,55,70,0
162.16226,162.90445,46,70,0
162.66226,162.90445,58,70,0
163.16226,163.40445,55,70,0
162.91226,163.65445,51,70,0
163.41226,163.65445,58,70,0
163.91226,164.15445,56,70,0
163.66226,164.40445,46,70,0
164.16226,164.40445,58,70,0
164.66226,164.90445,56,70,0
164.41226,165.15445,53,70,0
164.91226,165.15445,58,70,0
165.41226,165.65445,56,70,0
165.16226,165.90445,46,70,0
165.66226,165.90445,58,70,0
166.16226,166.40445,58,70,0
165.91226,166.65445,56,70,0
166.41226,166.65445,56,70,0
166.91226,167.15445,53,70,0
166.66226,167.40445,46,70,0
167.16226,167.40445,56,70,0
167.66226,167.90445,53,70,0
167.41226,168.15445,46,70,0
167.91226,168.15445,56,70,0
168.16226,168.52945,39,70,0
168.16226,168.52945,51,70,0
170.48557,171.22775,51,50,0
170.48557,171.22775,39,50,0
171.23557,171.97775,51,50,0
171.23557,171.97775,39,50,0
171.98557,172.72775,51,50,0
171.98557,172.72775,39,50,0
172.73557,173.47775,46,50,0
172.73557,173.47775,34,50,0
173.48557,174.22775,46,57,0
173.48557,174.22775,34,57,0
174.23557,174.97775,46,64,0
174.23557,174.97775,34,64,0
174.98557,175.72775,42,71,0
174.98557,175.72775,30,71,0
175.73557,176.47775,42,78,0
175.73557,176.47775,30,78,0
176.48557,177.22775,39,86,0
176.48557,177.22775,27,86,0
177.23557,177.97775,46,70,0
177.23557,177.97775,34,70,0
179.55887,180.30106,39,50,0
179.55887,180.30106,46,50,0
179.55887,180.30106,51,50,0
180.30887,181.05106,39,50,0
180.30887,181.05106,46,50,0
180.30887,181.05106,51,50,0
181.05887,181.80106,39,50,0
181.05887,181.80106,46,50,0
181.05887,181.80106,51,50,0
181.80887,182.55106,34,50,0
181.80887,182.55106,46,50,0
182.55887,183.30106,34,50,0
182.55887,183.30106,46,50,0
183.30887,184.05106,34,50,0
183.30887,184.05106,46,50,0
184.05887,184.80106,30,50,0
184.05887,184.80106,34,50,0
184.05887,184.80106,42,50,0
184.80887,185.55106,30,50,0
184.80887,185.55106,34,50,0
184.80887,185.55106,42,50,0
185.55887,186.30106,39,50,0
185.55887,186.30106,46,50,0
186.30887,187.61356,34,50,0
186.30887,187.61356,46,50,0
187.62137,187.80106,46,50,0
187.80887,188.36356,42,50,0
188.37137,188.55106,39,50,0
188.55887,189.86356,34,50,0
188.55887,189.86356,46,50,0
189.87137,190.05106,46,50,0
190.05887,190.61356,42,50,0
190.62137,190.80106,39,50,0
190.80887,191.35918,34,50,0
191.36679,191.5421,46,55,0
191.54973,192.09088,42,57,0
192.09851,192.2738,39,62,0
192.28143,192.81842,34,64,0
192.82585,192.99698,46,69,0
193.00443,193.5327,42,71,0
193.54015,193.71127,39,76,0
193.7187,194.25554,34,78,0
194.26335,194.44304,46,83,0
194.45085,195.05095,42,85,0
195.05988,195.26523,39,90,0
197.89915,198.26634,62,70,0
198.27415,198.64134,63,70,0
198.64915,199.01634,67,70,0
199.02415,199.39134,61,70,0
199.39915,199.76634,62,70,0
199.77415,200.14134,65,75,0
200.14915,200.51634,59,78,0
200.52415,200.89134,60,81,0
200.89915,201.26634,56,84,0
201.27415,201.66068,55,87,0
201.6689,202.11397,53,90,0
202.12344,202.96451,46,70,0
202.12344,202.96451,53,70,0
207.05919,207.80138,46,70,0
207.80919,208.55138,58,70,0
208.55919,209.30138,56,70,0
209.30919,210.05138,55,70,0
210.05919,210.80138,51,70,0
210.80919,211.55138,50,70,0
211.55919,212.30138,51,70,0
212.30919,213.05138,49,70,0
213.05919,213.42638,48,70,0
213.43419,213.80138,44,70,0
213.80919,214.55138,51,70,0
214.55919,215.30138,55,70,0
215.30919,216.05138,51,70,0
216.05919,216.80138,50,70,0
216.80919,217.55138,46,70,0
217.55919,218.30138,47,70,0
218.30919,219.05138,48,70,0
219.05919,219.80138,36,70,0
219.80919,220.55138,53,70,0
219.80919,220.55138,44,70,0
220.55919,221.30138,45,70,0
220.55919,221.30138,54,70,0
221.30919,222.05138,46,70,0
221.30919,222.05138,55,70,0
222.05919,222.84044,34,70,0
222.05919,222.84044,46,70,0
222.84866,223.62991,39,70,0
223.63814,224.41939,51,70,0
225.21709,225.95927,34,70,0
225.96709,226.70927,46,70,0
226.71709,227.45927,44,70,0
227.46709,228.20927,43,70,0
228.21709,228.95927,39,70,0
228.96709,229.70927,38,70,0
229.71709,230.45927,39,70,0
230.46709,230.83427,51,70,0
230.84209,231.20927,49,70,0
231.21709,231.58427,48,70,0
231.59209,231.95927,44,70,0
231.96709,232.70927,39,70,0
231.96709,232.70927,51,70,0
232.71709,233.45927,43,70,0
232.71709,233.45927,55,70,0
233.46709,234.20927,39,70,0
233.46709,234.20927,51,70,0
234.21709,234.95927,38,70,0
234.21709,234.95927,50,70,0
234.96709,235.70927,34,75,0
234.96709,235.70927,46,75,0
235.71709,236.45927,35,80,0
235.71709,236.45927,47,80,0
236.46709,237.20927,36,86,0
236.46709,237.20927,48,86,0
237.21709,237.95927,36,91,0
237.96709,238.70927,32,96,0
237.96709,238.70927,44,96,0
238.71709,239.45927,33,100,0
238.71709,239.45927,45,100,0
239.46709,240.20927,34,90,0
239.46709,240.20927,46,90,0
240.21709,240.99832,34,80,0
241.00655,241.7878,39,70,0
241.79602,242.57727,51,70,0
243.37497,244.86716,59,70,0
243.37497,244.86716,62,70,0
244.87497,245.42966,63,80,0
244.87497,245.42966,60,80,0
245.43747,245.61716,62,100,0
245.43747,245.61716,65,100,0
245.62497,247.11716,63,110,0
247.12497,247.67966,65,88,0
247.12497,247.67966,62,88,0
247.68747,247.86716,60,80,0
247.68747,247.86716,63,80,0
247.87497,248.61716,58,70,0
247.87497,248.61716,62,70,0
248.62497,249.36716,50,70,0
248.62497,249.36716,58,70,0
249.37497,250.11716,60,70,0
249.37497,250.11716,50,70,0
250.12497,250.86716,55,70,0
250.12497,250.86716,58,70,0
251.62497,252.36716,62,70,0
251.62497,252.36716,59,70,0
252.37497,253.86716,62,70,0
252.37497,253.86716,59,70,0
253.87497,254.42966,60,92,0
253.87497,254.42966,63,92,0
254.43747,254.61716,62,100,0
254.43747,254.61716,65,100,0
254.62497,256.11716,67,110,0
254.62497,256.11716,63,110,0
256.12497,256.67966,62,81,0
256.12497,256.67966,65,81,0
256.68747,256.86716,60,70,0
256.68747,256.86716,63,70,0
256.87497,257.61716,62,70,0
256.87497,257.61716,58,70,0
257.62497,258.36716,50,70,0
257.62497,258.36716,58,70,0
258.37497,259.11716,60,70,0
258.37497,259.11716,50,70,0
259.12497,259.86716,55,70,0
259.12497,259.86716,58,70,0
259.87497,260.61716,62,70,0
259.87497,260.61716,72,70,0
260.62497,261.36716,70,70,0
260.62497,261.36716,67,70,0
261.37497,262.11716,50,70,0
261.37497,262.11716,62,70,0
262.12497,262.86716,43,70,0
262.12497,262.86716,55,70,0
262.87497,263.61716,62,70,0
262.87497,263.61716,72,70,0
263.62497,264.36716,67,70,0
263.62497,264.36716,70,70,0
264.37497,265.09906,50,76,0
264.37497,265.09906,62,76,0
265.1067,265.83075,43,82,0
265.1067,265.83075,55,82,0
265.83838,266.54523,38,88,0
265.83838,266.54523,50,88,0
266.55267,267.25952,43,94,0
266.55267,267.25952,55,94,0
267.26697,268.02847,38,100,0
267.26697,268.02847,50,100,0
268.03668,268.81793,43,110,0
268.03668,268.81793,55,110,0
273.00626,273.74844,46,70,0
273.75626,274.49844,58,70,0
274.50626,275.24844,56,70,0
275.25626,275.99844,55,70,0
276.00626,276.74844,51,70,0
276.75626,277.49844,50,70,0
277.50626,278.24844,51,70,0
278.25626,278.99844,49,70,0
279.00626,279.37344,48,70,0
279.38126,279.74844,44,70,0
279.75626,280.49844,51,70,0
280.50626,281.24844,55,70,0
281.25626,281.99844,51,70,0
282.00626,282.74844,50,70,0
282.75626,283.49844,46,70,0
283.50626,284.24844,47,70,0
284.25626,284.99844,48,70,0
285.00626,285.74844,36,70,0
285.75626,286.49844,53,70,0
285.75626,286.49844,44,70,0
286.50626,287.24844,45,70,0
286.50626,287.24844,54,70,0
287.25626,287.99844,46,70,0
287.25626,287.99844,55,70,0
288.00626,288.7875,34,70,0
288.00626,288.7875,46,70,0
288.79575,289.577,39,70,0
289.5852,290.36646,51,70,0
291.16415,291.53134,43,80,0
291.53915,291.90634,55,85,0
291.91415,292.28134,55,90,0
292.28915,292.65634,55,95,0
292.66415,293.03134,55,100,0
293.03915,293.40634,55,105,0
293.41415,293.78134,55,110,0
293.78915,294.15634,55,70,0
294.16415,294.53134,55,70,0
294.53915,294.90634,55,70,0
294.91415,295.28134,55,90,0
295.28915,295.65634,55,80,0
295.66415,296.40634,43,70,0
296.41415,297.15634,50,70,0
297.16415,297.9454,38,70,0
297.95364,298.7349,43,70,0
299.5326,300.39432,62,70,0
299.5326,300.39432,59,70,0
300.4038,301.97552,59,70,0
300.4038,301.97552,62,70,0
301.98334,302.53802,60,70,0
301.98334,302.53802,63,70,0
302.54584,302.72552,62,70,0
302.54584,302.72552,65,70,0
302.73334,304.22552,67,100,0
302.73334,304.22552,63,100,0
304.23334,304.78802,62,80,0
304.23334,304.78802,65,80,0
304.79584,304.97552,60,72,0
304.79584,304.97552,63,72,0
304.98334,305.72552,58,70,0
304.98334,305.72552,62,70,0
305.73334,306.47552,50,89,0
305.73334,306.47552,58,89,0
306.48334,307.22552,50,78,0
306.48334,307.22552,60,78,0
307.23334,307.97552,58,70,0
307.23334,307.97552,55,70,0
307.98334,308.72552,38,70,0
307.98334,308.72552,50,70,0
308.73334,309.47552,43,70,0
308.73334,309.47552,55,70,0
309.48334,309.85052,60,70,0
309.48334,310.22552,50,70,0
309.85834,310.22552,62,70,0
310.23334,310.60052,58,70,0
310.23334,310.97552,55,70,0
310.60834,310.97552,62,70,0
310.98334,311.72552,38,70,0
310.98334,311.72552,50,70,0
311.73334,312.47552,43,70,0
311.73334,312.47552,55,70,0
312.48334,312.85052,60,70,0
312.48334,313.22552,50,70,0
312.85834,313.22552,62,70,0
313.23334,313.60052,58,74,0
313.23334,313.97552,55,74,0
313.60834,313.97552,62,79,0
313.98334,314.35052,60,83,0
313.98334,314.72552,50,83,0
314.35834,314.72552,62,88,0
314.73334,315.11484,58,92,0
314.73334,315.50446,55,92,0
315.12296,315.50446,62,97,0
315.51257,315.90952,60,101,0
315.51257,316.3149,50,101,0
315.91797,316.3149,62,106,0
316.32336,317.1046,55,110,0
316.32336,317.1046,58,110,0
321.29294,322.03513,34,70,0
322.04294,322.78513,46,70,0
322.79294,323.53513,44,70,0
323.54294,324.28513,43,70,0
324.29294,325.03513,39,70,0
325.04294,325.78513,38,70,0
325.79294,326.53513,39,70,0
326.54294,326.91013,51,70,0
326.91794,327.28513,49,70,0
327.29294,327.66013,48,70,0
327.66794,328.03513,44,70,0
328.04294,328.78513,51,70,0
328.79294,329.53513,39,70,0
329.54294,330.28513,39,70,0
329.54294,330.28513,51,70,0
330.29294,331.03513,38,70,0
330.29294,331.03513,50,70,0
331.04294,331.78513,34,70,0
331.04294,331.78513,46,70,0
331.79294,332.53513,35,70,0
331.79294,332.53513,47,70,0
332.54294,333.28513,36,70,0
332.54294,333.28513,48,70,0
333.29294,334.03513,36,70,0
334.04294,334.78513,32,70,0
334.04294,334.78513,44,70,0
334.79294,335.53513,33,70,0
334.79294,335.53513,45,70,0
335.54294,336.3242,34,70,0
335.54294,336.3242,46,70,0
336.33243,337.15707,34,70,0
337.16574,337.99042,39,70,0
337.99908,338.82373,51,70,0
339.66574,340.40793,39,70,0
340.41574,341.15793,34,70,0
341.16574,341.90793,39,70,0
341.91574,342.65793,34,70,0
342.66574,343.40793,41,70,0
343.41574,344.15793,34,70,0
344.16574,344.90793,44,70,0
344.91574,345.65793,34,70,0
345.66574,346.40793,44,70,0
346.41574,347.15793,34,70,0
347.16574,347.90793,43,70,0
347.91574,348.65793,34,70,0
348.66574,349.40793,39,70,0
349.41574,350.15793,34,70,0
350.16574,350.90793,39,70,0
350.91574,351.65793,34,70,0
351.66574,352.40793,41,70,0
352.41574,353.15793,34,70,0
353.16574,353.90793,46,70,0
353.91574,354.65793,34,70,0
354.66574,355.40793,46,70,0
355.41574,355.65793,39,70,0
355.66574,355.90793,51,70,0
358.27695,358.5608,55,70,0
357.9436,358.8108,51,70,0
358.5686,358.8108,58,70,0
359.0686,359.3108,55,70,0
358.8186,359.5608,46,70,0
359.3186,359.5608,58,70,0
359.8186,360.0608,55,70,0
359.5686,360.3108,51,70,0
360.0686,360.3108,58,70,0
360.5686,360.8108,56,70,0
360.3186,361.0608,46,70,0
360.8186,361.0608,58,70,0
361.3186,361.5608,56,70,0
361.0686,361.8108,53,70,0
361.5686,361.8108,58,70,0
362.0686,362.3108,56,70,0
361.8186,362.5608,46,70,0
362.3186,362.5608,58,70,0
362.8186,363.0608,58,70,0
362.5686,363.3108,56,70,0
363.0686,363.3108,56,70,0
363.5686,363.8108,56,70,0
363.3186,364.0608,46,70,0
363.8186,364.0608,58,70,0
364.3186,364.5608,58,70,0
364.0686,364.8108,56,70,0
364.5686,364.8108,56,70,0
365.0686,365.3108,55,70,0
364.8186,365.5608,46,70,0
365.3186,365.5608,58,70,0
365.8186,366.0608,58,70,0
365.5686,366.3108,55,70,0
366.0686,366.3108,55,70,0
366.5686,366.8108,55,70,0
366.3186,367.0608,46,70,0
366.8186,367.0608,58,70,0
367.3186,367.5608,55,74,0
367.0686,367.8108,51,70,0
367.5686,367.8108,58,79,0
368.0686,368.3108,55,88,0
367.8186,368.5608,46,83,0
368.3186,368.5608,58,92,0
368.8186,369.0608,55,101,0
368.5686,369.3108,51,97,0
369.0686,369.3108,58,106,0
369.3186,372.3108,48,110,0
369.3186,372.3108,51,110,0
369.3186,372.3108,57,110,0
372.3186,373.0608,48,70,0
372.3186,373.0608,51,70,0
372.3186,373.0608,57,70,0
373.0686,373.8108,51,70,0
373.0686,373.8108,48,70,0
373.0686,373.8108,57,70,0
373.8186,374.1858,46,70,0
373.8186,374.1858,50,70,0
373.8186,374.1858,58,70,0
374.5686,375.3108,33,100,0
374.5686,375.3108,45,100,0
375.3186,376.8108,34,70,0
375.3186,376.8108,46,70,0
376.8186,377.5608,46,70,0
376.8186,377.5608,50,70,0
376.8186,377.5608,53,70,0
377.5686,378.3108,46,70,0
377.5686,378.3108,50,70,0
377.5686,378.3108,53,70,0
378.3186,381.3108,48,110,0
378.3186,381.3108,51,110,0
378.3186,381.3108,57,110,0
381.3186,382.0608,48,70,0
381.3186,382.0608,51,70,0
381.3186,382.0608,57,70,0
382.0686,382.8108,51,70,0
382.0686,382.8108,48,70,0
382.0686,382.8108,57,70,0
382.8186,383.5608,46,70,0
382.8186,383.5608,50,70,0
384.3186,385.0608,46,70,0
384.3186,385.0608,50,70,0
385.0686,385.8108,48,70,0
385.0686,385.8108,51,70,0
386.5686,387.3108,48,70,0
386.5686,387.3108,51,70,0
387.3186,388.0608,46,70,0
387.3186,388.0608,50,70,0
388.8186,389.5608,46,70,0
388.8186,389.5608,50,70,0
389.5686,390.3108,48,70,0
389.5686,390.3108,51,70,0
391.0686,391.8108,48,70,0
391.0686,391.8108,51,70,0
391.8186,392.5608,46,70,0
391.8186,392.5608,50,70,0
393.3186,394.0608,46,80,0
393.3186,394.0608,50,80,0
394.8186,395.5608,46,91,0
394.8186,395.5608,50,91,0
394.8186,395.5608,53,91,0
396.3186,397.0608,46,100,0
396.3186,397.0608,53,100,0
396.3186,397.0608,56,100,0
397.8186,398.5608,46,100,0
397.8186,398.5608,53,100,0
397.8186,398.5608,56,100,0
405.3186,406.0608,58,70,0
406.0686,406.8108,70,70,0
406.8186,407.5608,68,70,0
407.5686,408.3108,67,70,0
408.3186,409.0608,63,70,0
409.0686,409.8108,62,70,0
409.8186,410.5608,63,70,0
410.5686,411.3108,61,70,0
411.3186,411.6858,60,70,0
411.6936,412.0608,56,70,0
412.0686,412.8108,63,70,0
412.8186,413.5608,55,70,0
413.5686,414.3108,67,70,0
413.5686,414.3108,63,70,0
414.3186,415.0608,65,70,0
414.3186,415.0608,62,70,0
415.0686,415.8108,62,70,0
415.0686,415.8108,58,70,0
415.8186,416.5608,59,70,0
415.8186,416.5608,62,70,0
416.5686,418.0608,63,70,0
416.5686,418.0608,60,70,0
418.0686,418.8108,60,70,0
418.0686,418.8108,65,70,0
418.0686,418.8108,56,70,0
418.8186,419.5608,57,97,0
418.8186,419.5608,60,97,0
418.8186,419.5608,66,97,0
419.5686,420.3108,58,110,0
419.5686,420.3108,63,110,0
419.5686,420.3108,67,110,0
420.3186,421.0608,35,70,0
420.3186,421.0608,47,70,0
421.0686,421.8108,36,70,0
421.0686,421.8108,48,70,0
421.8186,422.5608,60,70,0
422.5686,423.3108,56,70,0
422.5686,423.3108,65,70,0
422.5686,423.3108,60,70,0
423.3186,424.0608,57,97,0
423.3186,424.0608,60,97,0
423.3186,424.0608,66,97,0
424.0686,424.8108,58,110,0
424.0686,424.8108,63,110,0
424.0686,424.8108,67,110,0
424.8186,425.5608,35,70,0
424.8186,425.5608,47,70,0
425.5686,426.3108,36,70,0
425.5686,426.3108,48,70,0
426.3186,426.6858,63,70,0
426.6936,427.0608,60,70,0
427.0686,427.4358,56,70,0
427.4436,427.8108,53,93,0
427.8186,428.52545,58,110,0
428.5329,429.25723,55,110,0
429.26505,430.02655,51,110,0
430.03476,432.53186,46,110,0
430.03476,432.53186,53,110,0
430.03476,432.53186,56,110,0
432.5423,433.53186,51,70,0
432.5423,433.53186,55,70,0
434.5423,435.34467,62,70,0
434.5423,435.34467,58,70,0
435.3531,436.15546,51,70,0
435.3531,436.15546,63,70,0
436.97473,437.77707,46,70,0
436.97473,437.77707,56,70,0
437.78552,438.5879,51,70,0
437.78552,438.5879,55,70,0
439.40714,440.2095,62,70,0
439.40714,440.2095,58,70,0
440.21796,441.02032,51,70,0
440.21796,441.02032,63,70,0
441.02878,441.83112,46,70,0
441.02878,441.83112,56,70,0
441.83957,442.64194,51,70,0
441.83957,442.64194,55,70,0
442.6504,443.45276,46,70,0
442.6504,443.45276,56,70,0
443.46118,444.2323,51,90,0
443.46118,444.2323,55,90,0
444.24042,445.0428,46,110,0
444.24042,445.0428,56,110,0
445.05124,445.89944,51,110,0
445.05124,445.89944,55,110,0
445.90836,446.80798,51,70,0
445.90836,446.80798,55,70,0
445.90836,446.80798,58,70,0
446.81744,448.17163,51,70,0
446.81744,448.17163,55,70,0
446.81744,448.17163,58,70,0
448.1811,452.26254,51,70,0
448.1811,452.26254,55,70,0
448.1811,452.26254,58,70,0
