start_time,end_time,note_value,velocity,instrument_program_number
3.749994,3.9019034,74,70,40
3.958327,4.1102366,74,70,40
4.16666,4.3185697,74,70,40
4.374993,4.409715,74,70,40
4.409715,4.4444375,76,70,40
4.4444375,4.4791594,74,70,40
4.4791594,4.531243,73,70,40
4.531243,4.583326,74,70,40
4.583326,4.7352357,76,70,40
4.791659,4.9435687,78,70,40
4.999992,5.2039847,79,70,40
5.208325,5.3081512,83,70,40
5.416658,5.5685673,74,70,40
5.624991,5.7769003,74,70,40
5.833324,5.9852333,74,70,40
6.041657,6.0763793,74,70,40
6.0763793,6.111101,76,70,40
6.111101,6.1458235,74,70,40
6.1458235,6.197907,73,70,40
6.197907,6.24999,74,70,40
6.24999,6.4018993,76,70,40
6.458323,6.6102324,78,70,40
6.666656,7.078982,79,70,40
7.083322,7.1874886,72,70,40
7.1874886,7.261273,71,70,40
7.291655,7.3654394,69,70,40
7.3958216,7.469606,67,70,40
7.499988,7.6041546,66,70,40
7.6041546,7.677939,67,70,40
7.708321,7.7821054,69,70,40
7.8124876,7.886272,71,70,40
7.916654,8.020821,72,70,40
8.020821,8.094605,71,70,40
8.124987,8.198771,69,70,40
8.229154,8.302938,67,70,40
8.33332,8.437487,66,70,40
8.437487,8.511271,67,70,40
8.541653,8.6154375,69,70,40
8.64582,8.7196045,71,70,40
8.749986,8.854153,72,70,40
8.854153,8.9279375,71,72,40
8.958319,9.032104,69,75,40
9.062486,9.1362705,67,77,40
9.166652,9.273795,66,80,40
9.273795,9.349688,67,82,40
9.380938,9.45683,69,85,40
9.48808,9.563973,71,88,40
9.595223,9.705517,72,90,40
9.705517,9.783642,71,93,40
9.815811,9.897542,72,95,40
9.931195,10.012926,71,98,40
10.04658,10.50331,72,100,40
10.508118,10.612285,62,70,40
10.612285,10.716451,67,70,40
10.716451,10.820618,71,70,40
10.820618,10.924784,74,70,40
10.924784,11.028951,73,70,40
11.028951,11.133117,74,70,40
11.133117,11.237284,76,70,40
11.237284,11.34145,74,70,40
11.34145,11.445617,71,70,40
11.445617,11.549783,74,70,40
11.549783,11.65395,72,70,40
11.65395,11.758116,69,70,40
11.758116,11.862283,67,70,40
11.862283,11.966449,71,70,40
11.966449,12.070616,62,70,40
12.070616,12.174782,71,70,40
12.174782,12.278949,62,70,40
12.278949,12.383115,67,70,40
12.383115,12.487282,71,70,40
12.487282,12.591448,74,70,40
12.591448,12.695615,73,70,40
12.695615,12.799781,74,70,40
12.799781,12.903948,76,70,40
12.903948,13.008114,74,70,40
13.008114,13.112281,71,70,40
13.112281,13.216447,74,70,40
13.216447,13.320614,72,70,40
13.320614,13.42478,69,70,40
13.42478,13.837106,67,70,40
13.841446,13.945613,62,70,40
13.945613,14.049779,67,72,40
14.049779,14.153946,71,74,40
14.153946,14.258112,74,76,40
14.258112,14.362279,73,78,40
14.362279,14.466445,74,80,40
14.466445,14.570612,76,82,40
14.570612,14.674778,74,84,40
14.674778,14.778945,71,86,40
14.778945,14.883111,74,88,40
14.883111,14.987277,72,90,40
14.987277,15.091444,69,92,40
15.091444,15.19561,67,94,40
15.19561,15.299777,71,96,40
15.299777,15.403943,62,98,40
15.403943,15.50811,71,100,40
15.50811,15.612276,62,110,40
15.612276,15.716443,67,110,40
15.716443,15.820609,71,110,40
15.820609,15.924776,74,110,40
15.924776,16.03192,73,110,40
16.03192,16.139061,74,110,40
16.139061,16.246204,76,110,40
16.246204,16.353348,74,110,40
16.353348,16.46364,71,110,40
16.46364,16.573935,74,110,40
16.573935,16.68932,72,110,40
16.68932,16.804705,69,110,40
16.804705,17.261435,67,110,40
17.266241,17.470234,67,70,40
17.474575,17.678568,71,70,40
17.682907,18.095234,69,70,40
18.099573,18.203741,71,70,40
18.203741,18.307907,62,70,40
18.307907,18.412073,67,70,40
18.412073,18.51624,62,70,40
18.51624,18.876482,66,70,40
18.880823,18.932905,69,70,40
18.932905,19.037073,67,70,40
19.037073,19.14124,66,70,40
19.14124,19.245405,67,70,40
19.245405,19.349571,71,70,40
19.349571,19.761898,69,70,40
19.766237,19.870405,71,70,40
19.870405,19.974571,62,70,40
19.974571,20.078737,67,70,40
20.078737,20.182903,62,70,40
20.182903,20.59523,66,70,40
20.59957,20.703737,72,70,40
20.703737,20.777521,74,70,40
20.807903,20.881687,71,70,40
20.91207,20.985853,72,70,40
21.016235,21.120403,69,70,40
21.120403,21.194187,71,70,40
21.22457,21.298353,67,70,40
21.328735,21.40252,69,70,40
21.432901,21.584812,66,70,40
21.641235,21.71068,66,70,40
21.71068,21.780123,67,70,40
21.780123,21.849567,66,70,40
21.849567,22.05356,67,70,40
22.057901,22.162067,74,70,40
22.266233,22.370401,72,110,40
22.370401,22.444185,74,110,40
22.474567,22.548351,71,110,40
22.578733,22.652517,72,110,40
22.6829,22.787067,69,110,40
22.787067,22.860851,71,110,40
22.891233,22.965017,67,110,40
22.9954,23.069183,69,110,40
23.099566,23.255816,66,110,40
23.313852,23.38848,66,110,40
23.38848,23.463104,67,110,40
23.463104,23.537731,66,110,40
23.537731,23.98083,67,110,40
23.985493,24.089659,59,70,40
24.089659,24.193827,62,70,40
24.193827,24.297993,67,70,40
24.297993,24.402159,62,70,40
24.402159,24.814486,66,70,40
24.818825,25.027159,74,70,40
25.027159,25.23549,71,70,40
25.23549,25.647818,69,70,40
25.652157,25.756323,59,70,40
25.756323,25.86049,62,70,40
25.86049,25.964657,59,70,40
25.964657,26.068823,67,70,40
26.068823,26.429066,66,70,40
26.433405,26.485489,76,70,40
26.485489,26.589655,74,70,40
26.589655,26.693823,73,70,40
26.693823,26.797989,74,70,40
26.797989,26.902155,71,70,40
26.902155,27.31448,69,70,40
28.985485,29.089651,84,110,40
29.089651,29.163437,86,110,40
29.193817,29.267603,83,110,40
29.297985,29.371769,84,110,40
29.402151,29.506317,81,110,40
29.506317,29.580103,83,110,40
29.610483,29.684269,79,110,40
29.714651,29.788435,81,110,40
29.818817,29.975067,78,110,40
30.033102,30.107729,78,90,40
30.107729,30.182356,79,83,40
30.182356,30.256983,78,77,40
30.256983,30.4762,79,70,40
34.022526,34.174435,74,70,40
34.230858,34.382767,74,70,40
34.43919,34.5911,74,70,40
34.647522,34.682247,74,70,40
34.682247,34.71697,76,70,40
34.71697,34.75169,74,70,40
34.75169,34.803772,73,70,40
34.803772,34.855858,74,70,40
34.855858,35.007767,76,70,40
35.06419,35.2161,78,70,40
35.272522,35.476517,79,70,40
35.480854,35.58068,83,70,40
35.68919,35.8411,74,70,40
35.897522,36.04943,74,70,40
36.105854,36.257763,74,70,40
36.314186,36.34891,74,70,40
36.34891,36.383633,76,70,40
36.383633,36.418354,74,70,40
36.418354,36.470436,73,70,40
36.470436,36.522522,74,70,40
36.522522,36.67443,76,70,40
36.730854,36.882763,78,70,40
36.939186,37.351513,79,70,40
37.355854,37.46002,72,70,40
37.46002,37.533802,71,70,40
37.564186,37.63797,69,70,40
37.66835,37.742138,67,70,40
37.77252,37.876686,66,70,40
37.876686,37.95047,67,70,40
37.98085,38.054638,69,70,40
38.08502,38.158802,71,70,40
38.189186,38.29335,72,70,40
38.29335,38.367134,71,70,40
38.39752,38.471302,69,70,40
38.501682,38.57547,67,70,40
38.60585,38.71002,66,70,40
38.71002,38.783802,67,70,40
38.814182,38.88797,69,70,40
38.91835,38.992134,71,70,40
39.02252,39.126682,72,70,40
39.126682,39.200466,71,72,40
39.23085,39.304634,69,75,40
39.335014,39.408802,67,77,40
39.439182,39.546326,66,80,40
39.546326,39.62222,67,82,40
39.65347,39.729362,69,85,40
39.760612,39.836502,71,88,40
39.867752,39.978046,72,90,40
39.978046,40.05617,71,93,40
40.08834,40.17007,72,95,40
40.203728,40.285458,71,98,40
40.31911,40.77584,72,100,40
40.780647,40.884815,62,70,40
40.884815,40.988983,67,70,40
40.988983,41.093147,71,70,40
41.093147,41.197315,74,70,40
41.197315,41.30148,73,70,40
41.30148,41.405647,74,70,40
41.405647,41.509815,76,70,40
41.509815,41.61398,74,70,40
41.61398,41.718147,71,70,40
41.718147,41.822315,74,70,40
41.822315,41.92648,72,70,40
41.92648,42.030647,69,70,40
42.030647,42.13481,67,70,40
42.13481,42.23898,71,70,40
42.23898,42.343147,62,70,40
42.343147,42.44731,71,70,40
42.44731,42.55148,62,70,40
42.55148,42.655647,67,70,40
42.655647,42.75981,71,70,40
42.75981,42.86398,74,70,40
42.86398,42.968143,73,70,40
42.968143,43.07231,74,70,40
43.07231,43.17648,76,70,40
43.17648,43.280643,74,70,40
43.280643,43.38481,71,70,40
43.38481,43.48898,74,70,40
43.48898,43.593143,72,70,40
43.593143,43.69731,69,70,40
43.69731,44.109634,67,70,40
44.113976,44.218143,62,70,40
44.218143,44.32231,67,72,40
44.32231,44.426476,71,74,40
44.426476,44.530643,74,76,40
44.530643,44.634808,73,78,40
44.634808,44.738976,74,80,40
44.738976,44.843143,76,82,40
44.843143,44.947308,74,84,40
44.947308,45.051476,71,86,40
45.051476,45.15564,74,88,40
45.15564,45.259808,72,90,40
45.259808,45.363976,69,92,40
45.363976,45.46814,67,94,40
45.46814,45.572308,71,96,40
45.572308,45.676476,62,98,40
45.676476,45.78064,71,100,40
45.78064,45.884808,62,110,40
45.884808,45.98897,67,110,40
45.98897,46.09314,71,110,40
46.09314,46.197308,74,110,40
46.197308,46.30147,73,110,40
46.30147,46.40564,74,110,40
46.40564,46.509808,76,110,40
46.509808,46.61397,74,110,40
46.61397,46.721115,71,110,40
46.721115,46.82826,74,110,40
46.82826,46.940197,72,110,40
46.940197,47.05214,69,110,40
47.05214,47.495235,67,110,40
47.4999,47.65181,71,70,40
47.708233,47.86014,71,70,40
47.916565,48.124897,71,70,40
48.124897,48.229065,73,70,40
48.229065,48.333233,75,70,40
48.333233,48.48514,76,70,40
48.541565,48.693474,78,70,40
48.749897,48.95389,79,70,40
48.95823,49.058056,76,70,40
49.166565,49.318474,71,70,40
49.374897,49.526806,71,70,40
49.58323,49.79156,71,70,40
49.79156,49.89573,73,70,40
49.89573,49.999897,75,70,40
49.999897,50.151806,76,70,40
50.20823,50.360138,78,70,40
50.41656,50.828888,79,95,40
50.83323,50.933052,69,70,40
50.937393,51.03722,59,70,40
51.04156,51.141388,66,70,40
51.145725,51.245552,59,70,40
51.249893,51.34972,67,70,40
51.35406,51.453888,59,70,40
51.458225,51.558052,60,70,40
51.562393,51.66222,59,70,40
51.66656,51.766384,55,70,40
51.770725,51.870552,59,70,40
51.874893,51.97472,63,70,40
51.979057,52.078884,59,70,40
52.083225,52.183052,64,70,40
52.187393,52.28722,59,71,40
52.291557,52.391384,67,73,40
52.395725,52.495552,59,74,40
52.499893,52.599716,69,76,40
52.604057,52.703884,59,78,40
52.708225,52.808052,66,79,40
52.81239,52.912216,59,81,40
52.916557,53.016384,67,83,40
53.020725,53.120552,59,84,40
53.12489,53.224716,57,86,40
53.229057,53.328884,59,87,40
53.333225,53.43305,55,89,40
53.43739,53.537216,59,91,40
53.541557,53.641384,63,92,40
53.64572,53.74555,59,94,40
53.74989,53.849716,64,96,40
53.854057,53.953884,59,97,40
53.95822,54.05805,64,99,40
54.06239,54.162216,59,100,40
54.166557,54.26638,66,110,40
54.27072,54.37055,62,110,40
54.37489,54.474716,57,110,40
54.479053,54.57888,62,110,40
54.58322,54.6859,66,110,40
54.690365,54.79304,62,110,40
54.79751,54.900185,57,110,40
54.90465,55.007328,62,110,40
55.01179,55.117493,66,110,40
55.122086,55.227783,62,110,40
55.23238,55.338078,57,110,40
55.342674,55.44837,62,110,40
55.45297,55.779255,66,120,40
55.894146,56.220432,62,120,40
55.894146,56.220432,69,120,40
55.894146,56.220432,78,120,40
56.33532,56.661606,62,120,40
56.33532,56.661606,69,120,40
56.33532,56.661606,78,120,40
56.776497,57.102783,62,120,40
56.776497,57.102783,69,120,40
56.776497,57.102783,78,120,40
57.217674,57.54396,62,120,40
57.217674,57.54396,69,120,40
57.217674,57.54396,78,120,40
57.658848,57.764545,62,70,40
57.769142,57.87484,66,70,40
57.879436,57.985134,69,70,40
57.98973,58.09543,66,70,40
58.100025,58.205723,62,70,40
58.21032,58.316017,66,70,40
58.320614,58.42631,69,70,40
58.43091,58.536606,66,70,40
58.5412,58.6469,62,70,40
58.651493,58.757195,66,70,40
58.761787,58.867485,69,70,40
58.87208,58.97778,66,70,40
58.982376,59.418957,62,70,40
63.692432,63.84434,74,70,40
63.900764,64.05267,74,70,40
64.10909,64.26101,74,70,40
64.31743,64.35215,74,70,40
64.35215,64.38687,76,70,40
64.38687,64.42159,74,70,40
64.42159,64.47368,73,70,40
64.47368,64.525764,74,70,40
64.525764,64.67767,76,70,40
64.73409,64.886,78,70,40
64.94243,65.14642,79,70,40
65.150764,65.25059,83,70,40
65.35909,65.511,74,70,40
65.56743,65.71934,74,70,40
65.77576,65.92767,74,70,40
65.98409,66.018814,74,70,40
66.018814,66.053535,76,70,40
66.053535,66.08826,74,70,40
66.08826,66.14034,73,70,40
66.14034,66.19243,74,70,40
66.19243,66.34434,76,70,40
66.40076,66.552666,78,70,40
66.60909,67.021416,79,70,40
67.02576,67.12993,72,70,40
67.12993,67.20371,71,70,40
67.23409,67.30788,69,70,40
67.33826,67.41204,67,70,40
67.44242,67.54659,66,70,40
67.54659,67.62038,67,70,40
67.65076,67.72454,69,70,40
67.75492,67.828705,71,70,40
67.85909,67.96326,72,70,40
67.96326,68.03704,71,70,40
68.06742,68.141205,69,70,40
68.17159,68.24538,67,70,40
68.27576,68.37992,66,70,40
68.37992,68.453705,67,70,40
68.48409,68.55788,69,70,40
68.58826,68.66204,71,70,40
68.69242,68.79659,72,70,40
68.79659,68.87038,71,72,40
68.90076,68.97454,69,75,40
69.00492,69.078705,67,77,40
69.109085,69.21623,66,80,40
69.21623,69.29212,67,82,40
69.32337,69.39927,69,85,40
69.43052,69.50641,71,88,40
69.53766,69.64796,72,90,40
69.64796,69.72608,71,93,40
69.75825,69.83998,72,95,40
69.873634,69.95536,71,98,40
69.98901,70.44575,72,100,40
70.450554,70.55472,62,70,40
70.55472,70.65889,67,70,40
70.65889,70.763054,71,70,40
70.763054,70.86722,74,70,40
70.86722,70.97139,73,70,40
70.97139,71.075554,74,70,40
71.075554,71.17972,76,70,40
71.17972,71.28389,74,70,40
71.28389,71.388054,71,70,40
71.388054,71.49222,74,70,40
71.49222,71.59639,72,70,40
71.59639,71.700554,69,70,40
71.700554,71.80472,67,70,40
71.80472,71.90888,71,70,40
71.90888,72.013054,62,70,40
72.013054,72.11722,71,70,40
72.11722,72.22138,62,70,40
72.22138,72.325554,67,70,40
72.325554,72.42972,71,70,40
72.42972,72.53388,74,70,40
72.53388,72.638054,73,70,40
72.638054,72.74222,74,70,40
72.74222,72.84638,76,70,40
72.84638,72.950554,74,70,40
72.950554,73.05472,71,70,40
73.05472,73.15888,74,70,40
73.15888,73.26305,72,70,40
73.26305,73.36722,69,70,40
73.36722,73.77954,67,70,40
73.78388,73.88805,62,70,40
73.88805,73.99222,67,72,40
73.99222,74.09638,71,74,40
74.09638,74.20055,74,76,40
74.20055,74.30472,73,78,40
74.30472,74.40888,74,80,40
74.40888,74.51305,76,82,40
74.51305,74.61722,74,84,40
74.61722,74.72138,71,86,40
74.72138,74.82555,74,88,40
74.82555,74.92971,72,90,40
74.92971,75.03388,69,92,40
75.03388,75.13805,67,94,40
75.13805,75.24221,71,96,40
75.24221,75.34638,62,98,40
75.34638,75.45055,71,100,40
75.45055,75.55471,62,110,40
75.55471,75.65888,67,110,40
75.65888,75.76305,71,110,40
75.76305,75.86721,74,110,40
75.86721,75.97138,73,110,40
75.97138,76.07555,74,110,40
76.07555,76.17971,76,110,40
76.17971,76.28388,74,110,40
76.28388,76.39102,71,110,40
76.39102,76.49816,74,110,40
76.49816,76.6118,72,110,40
76.6118,76.72543,69,110,40
76.72543,77.17525,67,110,40
77.96123,78.01331,73,100,40
78.01331,78.16522,74,100,40
78.22165,78.37356,74,70,40
79.41956,79.47164,73,100,40
79.47164,79.62355,74,100,40
79.67998,79.83189,74,70,40
79.88831,80.04022,74,70,40
80.09664,80.50897,74,70,40
81.08623,81.138306,73,100,40
81.138306,81.290215,76,100,40
81.34664,81.49855,76,70,40
81.55498,81.70689,76,70,40
81.763306,82.17564,76,70,40
82.96122,83.013306,78,100,40
83.013306,83.165215,79,100,40
83.22164,83.37355,79,70,40
83.794556,83.846634,78,100,40
83.846634,83.99855,79,100,40
84.05497,84.20688,79,70,40
84.419556,84.471634,78,100,40
84.471634,84.62354,79,100,40
84.67997,84.83188,79,70,40
84.888306,85.040215,79,70,40
85.096634,85.508965,79,70,40
85.5133,85.61747,67,110,40
85.61747,85.721634,72,110,40
85.721634,85.8258,76,110,40
85.8258,85.92997,79,110,40
85.92997,86.034134,78,110,40
86.034134,86.1383,79,110,40
86.1383,86.24247,81,110,40
86.24247,86.346634,79,110,40
86.346634,86.4508,76,110,40
86.4508,86.55497,79,110,40
86.55497,86.659134,77,110,40
86.659134,86.7633,74,110,40
86.7633,86.86747,72,110,40
86.86747,86.971634,76,110,40
86.971634,87.0758,67,110,40
87.0758,87.17996,76,110,40
87.17996,87.284134,67,110,40
87.284134,87.3883,72,110,40
87.3883,87.49246,76,110,40
87.49246,87.596634,79,110,40
87.596634,87.7008,78,110,40
87.7008,87.80496,79,110,40
87.80496,87.909134,81,110,40
87.909134,88.0133,79,110,40
88.0133,88.11746,76,110,40
88.11746,88.221634,79,110,40
88.221634,88.3258,77,110,40
88.3258,88.42996,74,110,40
88.42996,88.84229,72,110,40
88.84663,88.99854,79,110,40
89.05496,89.20687,79,110,40
89.2633,89.41521,79,110,40
89.47163,89.50635,79,110,40
89.50635,89.54107,81,110,40
89.54107,89.5758,79,110,40
89.5758,89.62788,78,110,40
89.62788,89.67996,79,110,40
89.67996,89.83187,81,110,40
89.8883,90.04021,83,110,40
90.09663,90.30062,84,110,40
90.30496,90.404785,88,110,40
90.51329,90.6652,79,110,40
90.72163,90.873535,79,110,40
90.92996,91.08187,79,110,40
91.13829,91.17301,79,110,40
91.17301,91.20773,81,110,40
91.20773,91.24246,79,110,40
91.24246,91.29454,78,110,40
91.29454,91.34663,79,110,40
91.34663,91.498535,81,110,40
91.55496,91.70687,83,110,40
91.76329,91.867455,84,110,40
91.867455,91.97163,76,100,40
91.97163,92.07579,72,100,40
92.07579,92.179955,67,100,40
92.179955,92.28413,64,100,40
92.28413,92.38829,67,100,40
92.38829,92.492455,72,100,40
92.492455,92.59663,76,100,40
92.59663,92.70079,78,100,40
92.70079,92.774574,79,100,40
92.804955,92.87874,81,100,40
92.90913,92.98291,79,100,40
93.01329,93.087074,76,100,40
93.117455,93.19124,79,100,40
93.22163,93.29541,77,100,40
93.32579,93.399574,74,100,40
93.429955,93.53412,76,100,40
93.53412,93.63829,72,100,40
93.63829,93.742455,67,100,40
93.742455,93.84662,64,100,40
93.84662,93.95079,60,100,40
93.95079,94.054955,64,100,40
94.054955,94.15912,69,100,40
94.15912,94.26329,72,100,40
94.26329,94.367455,75,100,40
94.367455,94.44124,76,100,40
94.47162,94.5454,77,100,40
94.57579,94.649574,76,100,40
94.679955,94.75374,72,100,40
94.78412,94.8579,76,100,40
94.88828,94.962074,74,100,40
94.992455,95.06624,71,100,40
95.09662,95.20078,72,100,40
95.20078,95.304955,69,100,40
95.304955,95.40912,64,100,40
95.40912,95.51328,60,100,40
95.51328,95.66519,76,100,40
95.72162,95.87353,76,100,40
95.929955,96.08186,76,100,40
96.13828,96.29019,76,100,40
96.34662,96.49853,78,100,40
96.55495,96.70686,80,100,40
96.76328,97.175606,81,125,40
97.17995,97.331856,74,100,40
97.38828,97.54019,74,100,40
97.59662,97.74853,74,100,40
97.80495,97.956856,74,100,40
98.01328,98.16519,76,100,40
98.22161,98.37353,78,100,40
98.42995,98.84227,79,125,40
98.84661,99.05495,73,100,40
99.05495,99.15911,75,100,40
99.15911,99.26328,77,100,40
99.26328,99.675606,78,100,40
99.67995,99.888275,71,100,40
99.888275,99.99245,73,100,40
99.99245,100.09661,75,100,40
100.09661,100.508934,76,100,40
100.72161,101.133934,81,100,40
101.138275,101.24244,83,100,40
101.24244,101.34661,85,100,40
101.34661,101.49852,86,100,40
101.55494,101.96727,79,100,40
101.97161,102.075775,81,100,40
102.075775,102.17994,83,100,40
102.17994,102.33185,85,100,40
102.388275,102.80643,78,100,40
102.81089,102.91804,80,100,40
102.91804,103.02518,82,100,40
103.02518,103.18603,83,100,40
103.245766,103.41403,83,100,40
103.47653,103.7025,82,100,40
103.707306,104.11963,78,70,40
104.12397,104.53629,78,70,40
104.540634,104.952965,78,70,40
104.957306,105.36963,78,70,40
105.37397,105.52588,90,100,40
105.5823,105.734215,90,70,40
105.790634,105.94254,90,70,40
105.99897,106.15088,90,70,40
106.2073,106.35921,90,70,40
106.415634,106.56754,90,70,40
106.62397,106.77588,90,70,40
106.8323,106.98421,90,70,40
107.040634,107.19254,78,100,40
107.24896,107.40087,78,70,40
107.4573,107.60921,78,100,40
107.665634,107.81754,78,70,40
107.87396,108.02587,78,100,40
108.0823,108.23855,78,70,40
108.296585,108.45983,78,100,40
108.52046,108.73968,78,100,40
111.958626,112.597015,63,60,40
112.60149,112.8113,64,60,40
112.815765,113.45416,63,60,40
113.458626,113.66845,64,60,40
113.67291,114.3113,63,60,40
114.315765,114.52559,64,60,40
114.53005,114.739876,63,60,40
119.24433,119.35148,62,70,40
119.35148,119.45862,67,70,40
119.45862,119.565765,71,70,40
119.565765,119.672905,74,70,40
119.672905,119.780045,73,70,40
119.780045,119.88719,74,70,40
119.88719,119.99433,76,70,40
119.99433,120.10148,74,70,40
120.10148,120.20862,71,70,40
120.20862,120.31576,74,70,40
120.31576,120.422905,72,70,40
120.422905,120.530045,69,70,40
120.530045,120.63719,67,70,40
120.63719,120.74433,71,70,40
120.74433,120.85147,62,70,40
120.85147,120.95862,71,70,40
120.95862,121.06576,62,70,40
121.06576,121.172905,67,70,40
121.172905,121.280045,71,70,40
121.280045,121.38719,74,70,40
121.38719,121.49433,73,70,40
121.49433,121.60147,74,70,40
121.60147,121.70862,76,70,40
121.70862,121.81576,74,70,40
121.81576,121.922905,71,70,40
121.922905,122.030045,74,70,40
122.030045,122.137184,72,70,40
122.137184,122.24433,69,70,40
122.24433,122.454155,67,70,40
122.672905,122.829155,74,70,40
122.887184,123.043434,74,70,40
123.10147,123.25772,74,70,40
123.31576,123.35147,74,70,40
123.35147,123.387184,76,70,40
123.387184,123.4229,74,70,40
123.4229,123.47647,73,70,40
123.47647,123.530045,74,70,40
123.530045,123.686295,76,70,40
123.74433,123.90058,78,70,40
123.95862,124.168434,79,70,40
124.1729,124.27558,83,70,40
124.387184,124.543434,74,70,40
124.60147,124.75772,74,70,40
124.81576,124.97201,74,70,40
125.030045,125.06576,74,70,40
125.06576,125.10147,76,70,40
125.10147,125.137184,74,70,40
125.137184,125.19076,73,70,40
125.19076,125.24432,74,70,40
125.24432,125.40057,76,70,40
125.45861,125.61486,78,70,40
125.6729,126.09701,79,70,40
126.10147,126.20861,72,70,40
126.20861,126.28451,71,70,40
126.31576,126.39165,69,70,40
126.4229,126.49879,67,70,40
126.53004,126.637184,66,70,40
126.637184,126.71307,67,70,40
126.74432,126.82022,69,70,40
126.85147,126.92736,71,70,40
126.95861,127.06576,72,70,40
127.06576,127.14165,71,70,40
127.1729,127.24879,69,70,40
127.28004,127.355934,67,70,40
127.387184,127.49432,66,70,40
127.49432,127.57022,67,70,40
127.60147,127.67736,69,70,40
127.70861,127.7845,71,70,40
127.81575,127.9229,72,70,40
127.9229,127.99879,71,72,40
128.03004,128.10593,69,75,40
128.13718,128.21307,67,77,40
128.24432,128.35461,66,80,40
128.35461,128.43274,67,82,40
128.46492,128.54305,69,85,40
128.57521,128.65334,71,88,40
128.6855,128.80089,72,90,40
128.80089,128.88261,71,93,40
128.91628,129.00195,72,95,40
129.03723,129.12292,71,98,40
129.1582,129.63704,72,100,40
129.64207,129.74625,62,70,40
129.74625,129.8504,67,70,40
129.8504,129.95457,71,70,40
129.95457,130.05875,74,70,40
130.05875,130.1629,73,70,40
130.1629,130.26707,74,70,40
130.26707,130.37125,76,70,40
130.37125,130.4754,74,70,40
130.4754,130.57957,71,70,40
130.57957,130.68375,74,70,40
130.68375,130.7879,72,70,40
130.7879,130.89207,69,70,40
130.89207,130.99625,67,70,40
130.99625,131.1004,71,70,40
131.1004,131.20457,62,70,40
131.20457,131.30873,71,70,40
131.30873,131.4129,62,70,40
131.4129,131.51707,67,70,40
131.51707,131.62123,71,70,40
131.62123,131.7254,74,70,40
131.7254,131.82957,73,70,40
131.82957,131.93373,74,70,40
131.93373,132.0379,76,70,40
132.0379,132.14207,74,70,40
132.14207,132.24623,71,70,40
132.24623,132.3504,74,70,40
132.3504,132.45457,72,70,40
132.45457,132.55873,69,70,40
132.55873,132.97107,67,70,40
132.9754,133.07957,62,70,40
133.07957,133.18373,67,72,40
133.18373,133.2879,71,74,40
133.2879,133.39207,74,76,40
133.39207,133.49623,73,78,40
133.49623,133.6004,74,80,40
133.6004,133.70457,76,82,40
133.70457,133.80873,74,84,40
133.80873,133.9129,71,86,40
133.9129,134.01707,74,88,40
134.01707,134.12123,72,90,40
134.12123,134.2254,69,92,40
134.2254,134.32957,67,94,40
134.32957,134.43373,71,96,40
134.43373,134.5379,62,98,40
134.5379,134.64206,71,100,40
134.64206,134.74623,62,110,40
134.74623,134.8504,67,110,40
134.8504,134.95456,71,110,40
134.95456,135.05873,74,110,40
135.05873,135.1629,73,110,40
135.1629,135.26706,74,110,40
135.26706,135.37123,76,110,40
135.37123,135.4754,74,110,40
135.4754,135.57956,71,110,40
135.57956,135.68373,74,110,40
135.68373,135.7879,72,110,40
135.7879,135.89206,69,110,40
135.89206,136.09605,67,110,40
136.7254,136.82956,67,90,40
136.82956,136.93373,71,91,40
136.93373,137.0379,69,93,40
137.0379,137.14206,66,94,40
137.14206,137.24623,64,96,40
137.24623,137.3504,67,97,40
137.3504,137.45456,65,99,40
137.45456,137.55873,62,100,40
137.55873,137.66289,64,110,40
137.66289,137.76706,67,110,40
137.76706,137.87123,69,110,40
137.87123,137.97539,71,110,40
137.97539,138.07956,72,110,40
138.07956,138.18373,74,110,40
138.18373,138.28789,76,110,40
138.28789,138.39206,78,110,40
138.39206,138.4992,79,110,40
138.4992,138.60634,77,110,40
138.60634,138.71349,76,110,40
138.71349,138.82063,81,110,40
138.82063,138.93092,71,110,40
138.93092,139.04121,79,110,40
139.04121,139.1566,69,110,40
139.1566,139.27199,78,110,40
139.27199,139.37616,71,80,40
139.37616,139.48032,86,81,40
139.48032,139.58449,84,82,40
139.58449,139.68866,81,84,40
139.68866,139.79282,79,85,40
139.79282,139.89699,83,86,40
139.89699,140.00116,81,88,40
140.00116,140.10532,78,89,40
140.10532,140.20949,76,91,40
140.20949,140.31366,79,92,40
140.31366,140.41782,78,93,40
140.41782,140.52199,74,95,40
140.52199,140.62616,72,96,40
140.62616,140.73032,76,98,40
140.73032,140.83449,74,99,40
140.83449,140.93866,71,100,40
140.93866,141.04282,72,110,40
141.04282,141.14699,74,110,40
141.14699,141.25114,76,110,40
141.25114,141.35532,74,110,40
141.35532,141.45949,72,110,40
141.45949,141.56364,71,110,40
141.56364,141.66782,69,110,40
141.66782,141.77199,67,110,40
141.77199,142.29282,66,110,40
142.29282,142.39699,67,110,40
142.39699,142.50114,69,110,40
142.50114,142.60532,71,110,40
142.60532,142.70949,72,110,40
142.70949,142.81364,74,110,40
142.81364,142.91782,76,110,40
142.91782,143.02199,74,110,40
143.02199,143.12614,72,110,40
143.12614,143.23032,71,110,40
143.23032,143.33449,69,110,40
143.33449,143.43864,67,110,40
143.43864,143.95949,66,110,40
143.95949,144.06364,67,110,40
144.06364,144.16782,69,110,40
144.16782,144.27199,71,110,40
144.27199,144.37614,72,110,40
144.37614,144.48032,74,110,40
144.48032,144.58447,76,110,40
144.58447,144.68864,74,110,40
144.68864,144.79282,72,110,40
144.79282,144.89697,71,110,40
144.89697,145.00114,69,110,40
145.00114,145.10532,67,110,40
145.10532,145.20947,66,125,40
145.20947,145.31364,67,100,40
145.31364,145.41782,69,100,40
145.41782,145.52197,71,100,40
145.52197,145.62614,72,100,40
145.62614,145.73032,71,100,40
145.73032,145.83447,69,100,40
145.83447,145.93864,67,100,40
145.93864,146.04579,66,125,40
146.04579,146.15292,67,100,40
146.15292,146.26007,69,100,40
146.26007,146.36722,71,100,40
146.36722,146.47751,72,100,40
146.47751,146.5878,71,100,40
146.5878,146.6981,69,100,40
146.6981,146.8084,67,100,40
146.8084,146.92203,66,125,40
146.92203,147.03566,67,100,40
147.03566,147.1493,66,100,40
147.1493,147.26294,67,100,40
147.26294,147.38199,66,100,40
147.38199,147.50104,67,100,40
147.50104,147.62604,66,100,40
147.62604,147.75104,67,100,40
147.75104,147.99582,66,110,40
148.25104,148.49582,78,110,40
148.75104,152.24582,84,125,40
155.81438,155.89137,70,50,40
155.92307,156.00006,75,50,40
156.03177,156.10875,79,50,40
156.14046,156.21745,82,50,40
156.24916,156.35785,81,50,40
156.35785,156.43484,82,50,40
156.46655,156.54353,84,50,40
156.57524,156.65224,82,50,40
156.68393,156.76093,80,50,40
156.79263,156.86963,79,50,40
156.90132,156.97832,80,50,40
157.01003,157.08702,77,50,40
157.11871,157.19571,75,50,40
157.22742,157.30441,79,50,40
157.3361,157.4131,70,50,40
157.44481,157.5218,79,50,40
157.5535,157.6305,70,50,40
157.6622,157.73918,75,50,40
157.77089,157.84789,79,50,40
157.8796,157.95657,82,50,40
157.98828,158.09698,81,50,40
158.09698,158.17397,82,50,40
158.20567,158.28267,84,50,40
158.31438,158.39136,82,50,40
158.42307,158.50006,80,50,40
158.53175,158.60875,79,50,40
158.64046,158.71745,80,50,40
158.74915,158.82614,77,50,40
158.85785,159.07071,75,50,40
159.29263,159.45114,82,50,40
159.51003,159.66853,82,50,40
159.72742,159.88593,82,50,40
159.94481,159.98103,82,50,40
159.98103,160.01727,84,50,40
160.01727,160.0535,82,50,40
160.0535,160.10785,81,50,40
160.10785,160.16219,82,50,40
160.16219,160.32071,84,50,40
160.37958,160.5381,86,50,40
160.59697,160.80983,87,50,40
160.81436,160.91853,91,50,40
161.03175,161.19028,82,50,40
161.24915,161.40767,82,50,40
161.46654,161.62505,82,50,40
161.68393,161.72017,82,50,40
161.72017,161.7564,84,50,40
161.7564,161.79263,82,50,40
161.79263,161.84697,81,50,40
161.84697,161.90132,82,50,40
161.90132,162.05983,84,50,40
162.11871,162.27722,86,50,40
162.3361,162.76636,87,50,40
163.62802,163.78427,82,50,40
163.84232,163.99857,82,50,40
164.0566,164.21284,84,50,40
164.27089,164.42714,86,50,40
164.48517,164.64142,87,50,40
165.34232,165.49857,79,50,40
165.5566,165.71284,79,50,40
165.77089,165.92714,81,50,40
165.98517,166.14142,83,50,40
166.19945,166.3557,84,50,40
167.91374,168.06999,58,50,40
168.12802,168.28427,58,50,40
168.3423,168.76642,59,50,40
168.77087,168.93172,60,50,40
168.99147,169.15973,60,50,40
169.22223,169.33762,59,50,40
169.33762,169.41936,62,50,40
169.453,169.5289,67,50,40
169.56015,169.63605,71,50,40
169.6673,169.82355,74,50,40
169.88158,170.03783,74,50,40
170.09586,170.2521,74,50,40
170.31015,170.4664,74,50,40
170.52443,170.68068,76,50,40
170.73872,170.89497,78,50,40
170.953,171.3771,79,50,40
171.38158,171.53783,72,60,40
171.59586,171.63158,72,65,40
171.63158,171.66728,74,66,40
171.66728,171.703,72,67,40
171.703,171.75658,71,68,40
171.75658,171.81015,72,69,40
171.81015,172.23425,74,70,40
172.23872,172.39497,66,81,40
172.453,172.48872,66,87,40
172.48872,172.52443,67,88,40
172.52443,172.56015,66,89,40
172.56015,172.61371,64,89,40
172.61371,172.66728,66,91,40
172.66728,172.77443,67,92,40
172.77443,172.88158,71,95,40
172.88158,172.98871,74,98,40
172.98871,173.09586,79,100,40
173.09586,173.203,78,110,40
173.203,173.2789,79,110,40
173.31015,173.38603,81,110,40
173.41728,173.49318,79,110,40
173.52443,173.63158,83,110,40
173.63158,173.70746,79,110,40
173.73871,173.8146,74,110,40
173.84586,173.92175,71,110,40
173.953,174.0633,72,110,40
174.0633,174.14142,69,110,40
174.17358,174.25533,66,110,40
174.28897,174.3707,60,110,40
174.40436,174.63033,59,70,40
174.84941,174.95656,62,70,40
174.95656,175.06369,67,70,40
175.06369,175.17084,71,70,40
175.17084,175.27798,74,70,40
175.27798,175.38513,73,70,40
175.38513,175.49226,74,70,40
175.49226,175.59941,76,70,40
175.59941,175.70656,74,70,40
175.70656,175.81369,71,70,40
175.81369,175.92084,74,70,40
175.92084,176.02798,72,70,40
176.02798,176.13513,69,70,40
176.13513,176.24226,67,70,40
176.24226,176.34941,71,70,40
176.34941,176.45656,62,70,40
176.45656,176.56369,71,70,40
176.56369,176.67084,62,70,40
176.67084,176.77798,67,70,40
176.77798,176.88513,71,70,40
176.88513,176.99226,74,70,40
176.99226,177.09941,73,70,40
177.09941,177.20656,74,70,40
177.20656,177.31369,76,70,40
177.31369,177.42084,74,70,40
177.42084,177.52798,71,70,40
177.52798,177.63512,74,70,40
177.63512,177.74226,72,70,40
177.74226,177.84941,69,70,40
177.84941,178.05923,67,70,40
178.06369,178.27351,62,55,40
178.06369,178.27351,74,55,40
178.49226,178.70209,62,55,40
178.49226,178.70209,74,55,40
178.92084,179.13066,62,55,40
178.92084,179.13066,74,55,40
179.34941,179.55923,62,55,40
179.34941,179.55923,74,55,40
179.77798,179.9878,62,55,40
179.77798,179.9878,74,55,40
180.20654,180.41637,62,55,40
180.20654,180.41637,74,55,40
180.63512,180.84494,62,55,40
180.63512,180.84494,74,55,40
181.06369,181.27351,62,55,40
181.06369,181.27351,74,55,40
181.27798,181.4878,62,55,40
181.27798,181.4878,74,55,40
181.70654,181.91637,74,70,40
181.92084,182.02797,76,70,40
182.02797,182.13512,78,70,40
182.13512,182.29137,79,70,40
182.34941,182.50566,79,70,40
182.56369,182.61726,81,70,40
182.61726,182.67084,83,70,40
182.67084,182.72441,81,70,40
182.72441,182.77797,83,70,40
182.77797,182.84941,81,70,40
182.84941,182.92084,79,70,40
182.92084,182.99226,81,70,40
182.99226,183.20209,83,70,40
183.20654,183.31369,79,70,40
183.42084,183.63065,74,70,40
183.63512,183.74226,76,70,40
183.74226,183.8494,78,70,40
183.8494,184.00565,79,70,40
184.06369,184.21994,79,70,40
184.27797,184.33154,74,70,40
184.33154,184.38512,76,70,40
184.38512,184.43869,74,70,40
184.43869,184.49226,76,70,40
184.49226,184.56369,74,70,40
184.56369,184.63512,73,70,40
184.63512,184.70654,74,70,40
184.70654,184.91637,71,70,40
185.13512,185.18869,74,70,40
185.18869,185.24226,76,70,40
185.24226,185.29584,74,70,40
185.29584,185.3494,76,70,40
185.3494,185.42084,74,70,40
185.42084,185.49226,73,70,40
185.49226,185.56369,74,70,40
185.56369,185.77351,71,70,40
185.99226,186.0994,76,70,40
186.0994,186.1753,74,70,40
186.20654,186.28244,73,70,40
186.31369,186.38957,74,70,40
186.42082,186.52646,72,70,40
186.52646,186.60129,71,70,40
186.6321,186.70692,70,70,40
186.73773,186.81256,71,70,40
186.84337,186.949,76,70,40
186.949,187.02382,74,70,40
187.05463,187.12946,73,70,40
187.16026,187.23509,74,70,40
187.2659,187.37007,72,70,40
187.37007,187.44385,71,70,40
187.47423,187.54802,70,70,40
187.5784,187.65218,71,70,40
187.68257,187.78673,76,70,40
187.78673,187.86052,74,70,40
187.8909,187.96468,73,70,40
187.99507,188.06885,74,70,40
188.09923,188.30322,71,70,40
188.5159,188.7199,74,80,40
188.93256,189.14238,79,90,40
189.36113,189.57713,83,100,40
189.81248,190.03845,86,110,40
190.27403,190.54602,62,120,40
190.27403,190.54602,69,120,40
190.27403,190.54602,78,120,40
190.82959,191.24046,62,120,40
190.82959,191.24046,71,120,40
190.82959,191.24046,79,120,40
194.3018,194.4349,67,1,40
0.0,0.09982623,67,1,0
0.416666,0.51649225,50,70,0
0.5208325,0.62065876,55,70,0
0.624999,0.7248252,59,70,0
0.7291655,0.8289917,62,70,0
0.833332,0.9331582,61,70,0
0.9374985,1.0373248,62,70,0
1.041665,1.1414912,64,70,0
1.1458315,1.2456577,62,70,0
1.249998,1.3498242,59,70,0
1.3541645,1.4539907,62,70,0
1.458331,1.5581572,60,70,0
1.5624975,1.6623237,57,70,0
1.666664,1.7664902,55,70,0
1.7708305,1.8706567,59,70,0
1.874997,1.9748232,50,70,0
1.9791635,2.0789897,59,70,0
2.08333,2.1831563,50,70,0
2.1874964,2.2873228,55,70,0
2.291663,2.3914893,59,70,0
2.3958294,2.4956558,62,70,0
2.499996,2.5998223,61,70,0
2.6041625,2.7039888,62,70,0
2.708329,2.8081553,64,70,0
2.8124955,2.9123218,62,70,0
2.916662,3.0164883,59,70,0
3.0208285,3.1206548,62,70,0
3.124995,3.2248213,60,70,0
3.2291615,3.3289878,57,70,0
3.333328,3.7456536,55,70,0
3.749994,3.8498201,50,70,0
3.8541605,3.9539866,55,70,0
3.958327,4.058153,59,70,0
4.0624933,4.1623197,62,70,0
4.16666,4.266486,61,70,0
4.2708263,4.3706527,62,70,0
4.374993,4.474819,64,70,0
4.4791594,4.5789857,62,70,0
4.583326,4.683152,59,70,0
4.6874924,4.7873187,62,70,0
4.791659,4.891485,60,70,0
4.8958254,4.9956517,57,70,0
4.999992,5.099818,55,70,0
5.1041584,5.2039847,59,70,0
5.208325,5.3081512,50,70,0
5.3124914,5.4123178,59,70,0
5.416658,5.5164843,50,70,0
5.5208244,5.620651,55,70,0
5.624991,5.7248173,59,70,0
5.7291574,5.828984,62,70,0
5.833324,5.9331503,61,70,0
5.9374905,6.037317,62,70,0
6.041657,6.1414833,64,70,0
6.1458235,6.24565,62,70,0
6.24999,6.3498163,59,70,0
6.3541565,6.453983,62,70,0
6.458323,6.5581493,60,70,0
6.5624895,6.662316,57,70,0
6.666656,7.078982,55,70,0
8.697903,8.797729,73,70,0
8.749986,8.953979,74,70,0
8.906236,9.006062,73,73,0
8.958319,9.162312,74,75,0
9.114569,9.215759,73,79,0
9.166652,9.376473,74,80,0
9.327366,9.430044,73,84,0
9.380938,9.590758,74,85,0
9.541652,9.645775,73,89,0
9.595223,9.811215,74,90,0
9.760664,9.868695,73,94,0
9.815811,10.041772,74,95,0
9.988888,10.099464,73,99,0
10.04658,10.50331,74,100,0
10.508118,10.7121105,74,70,0
10.716451,10.920444,74,70,0
10.924784,11.128777,74,70,0
11.133117,11.198221,74,70,0
11.167839,11.232944,76,70,0
11.202561,11.267666,74,70,0
11.237284,11.33711,73,70,0
11.289367,11.389193,74,70,0
11.34145,11.545443,76,70,0
11.549783,11.753776,78,70,0
11.758116,11.962109,79,70,0
11.966449,12.066276,83,70,0
12.174782,12.378775,74,70,0
12.383115,12.587108,74,70,0
12.591448,12.795441,74,70,0
12.799781,12.864885,74,70,0
12.834503,12.899608,76,70,0
12.8692255,12.934329,74,70,0
12.903948,13.003774,73,70,0
12.956031,13.055857,74,70,0
13.008114,13.212107,76,70,0
13.216447,13.42044,78,70,0
13.42478,13.837106,79,70,0
13.841446,13.941272,74,70,0
13.945613,14.045439,79,72,0
14.049779,14.149605,83,74,0
14.153946,14.253772,86,76,0
14.258112,14.362279,85,78,0
14.362279,14.466445,86,80,0
14.466445,14.570612,88,82,0
14.570612,14.674778,86,84,0
14.674778,14.778945,83,86,0
14.778945,14.883111,86,88,0
14.883111,14.987277,84,90,0
14.987277,15.091444,81,92,0
15.091444,15.19561,79,94,0
15.19561,15.299777,83,96,0
15.299777,15.403943,74,98,0
15.403943,15.50811,83,100,0
15.50811,15.612276,74,110,0
15.612276,15.716443,79,110,0
15.716443,15.820609,83,110,0
15.820609,15.924776,86,110,0
15.924776,16.03192,85,110,0
16.03192,16.139061,86,110,0
16.139061,16.246204,88,110,0
16.246204,16.353348,86,110,0
16.353348,16.46364,83,110,0
16.46364,16.573935,86,110,0
16.573935,16.68932,84,110,0
16.68932,16.804705,81,110,0
16.804705,17.261435,79,110,0
17.266241,17.470234,59,70,0
17.370409,17.574402,62,70,0
17.474575,17.678568,67,70,0
17.578741,17.678568,62,70,0
17.682907,18.095234,66,70,0
18.099573,18.303566,74,70,0
18.307907,18.5119,71,70,0
18.51624,18.928566,69,70,0
18.932905,19.032732,59,70,0
19.037073,19.136898,62,70,0
19.14124,19.241066,59,70,0
19.245405,19.345232,67,70,0
19.349571,19.761898,66,70,0
19.714155,19.81398,76,70,0
19.766237,19.866064,74,70,0
19.870405,19.97023,73,70,0
19.974571,20.074398,74,70,0
20.078737,20.178564,71,70,0
20.182903,20.59523,69,70,0
22.266233,22.470226,84,110,0
22.370401,22.574392,86,110,0
22.474567,22.67856,83,110,0
22.578733,22.782726,84,110,0
22.6829,22.886892,81,110,0
22.787067,22.991058,83,110,0
22.891233,23.095226,79,110,0
22.9954,23.202244,81,110,0
23.099566,23.309387,78,110,0
23.313852,23.45844,78,110,0
23.38848,23.533068,79,110,0
23.463104,23.533068,78,110,0
23.537731,23.98083,79,110,0
23.985493,24.189486,67,70,0
24.193827,24.39782,71,70,0
24.402159,24.814486,69,70,0
24.818825,25.022818,71,70,0
24.92299,25.126984,62,70,0
25.027159,25.231152,67,70,0
25.131325,25.231152,62,70,0
25.23549,25.647818,66,70,0
25.600073,25.6999,69,70,0
25.652157,25.85615,67,70,0
25.756323,25.960316,66,70,0
25.86049,26.064484,67,70,0
25.964657,26.064484,71,70,0
26.068823,26.48115,69,70,0
26.485489,26.689482,71,70,0
26.589655,26.793648,62,70,0
26.693823,26.897814,67,70,0
26.797989,26.897814,62,70,0
26.902155,27.31448,66,70,0
27.31882,27.522814,72,70,0
27.422987,27.62698,74,70,0
27.527155,27.731146,71,70,0
27.63132,27.835314,72,70,0
27.735487,27.93948,69,70,0
27.839653,28.043646,71,70,0
27.94382,28.147812,67,70,0
28.047987,28.25198,69,70,0
28.152153,28.356146,66,70,0
28.360485,28.495035,66,70,0
28.42993,28.564478,67,70,0
28.499374,28.564478,66,70,0
28.568819,28.772812,67,70,0
28.777151,28.876978,74,70,0
28.985485,29.189478,72,110,0
29.089651,29.293644,74,110,0
29.193817,29.39781,71,110,0
29.297985,29.501978,72,110,0
29.402151,29.606144,69,110,0
29.506317,29.71031,71,110,0
29.610483,29.814476,67,110,0
29.714651,29.921495,69,110,0
29.818817,30.028639,66,110,0
30.033102,30.177692,66,90,0
30.107729,30.25232,67,83,0
30.182356,30.25232,66,77,0
30.256983,30.36426,67,70,0
30.368923,30.4762,62,70,0
30.480864,30.58069,59,70,0
30.58503,30.684856,55,70,0
30.689196,30.789022,50,70,0
30.793364,30.893188,55,70,0
30.89753,30.997356,59,70,0
31.001696,31.101522,62,70,0
31.105862,31.205688,61,70,0
31.21003,31.309855,62,70,0
31.314196,31.414022,64,70,0
31.418362,31.518188,62,70,0
31.522528,31.622355,59,70,0
31.626696,31.72652,62,70,0
31.730862,31.830688,60,70,0
31.835028,31.934855,57,70,0
31.939194,32.03902,55,70,0
32.04336,32.14319,59,70,0
32.147526,32.247353,50,70,0
32.251694,32.35152,59,70,0
32.35586,32.45569,50,70,0
32.460026,32.559853,55,70,0
32.564194,32.66402,59,70,0
32.66836,32.768185,62,70,0
32.772526,32.872353,61,70,0
32.876694,32.97652,62,70,0
32.980858,33.080685,64,70,0
33.085026,33.184853,62,70,0
33.189194,33.28902,59,70,0
33.293358,33.393185,62,70,0
33.397526,33.497353,60,70,0
33.501694,33.601517,57,70,0
33.605858,34.018185,55,70,0
34.022526,34.122353,50,70,0
34.12669,34.226517,55,70,0
34.230858,34.330685,59,70,0
34.335026,34.43485,62,70,0
34.43919,34.539017,61,70,0
34.543358,34.643185,62,70,0
34.647522,34.74735,64,70,0
34.75169,34.851517,62,70,0
34.855858,34.95568,59,70,0
34.960022,35.05985,62,70,0
35.06419,35.164017,60,70,0
35.168358,35.26818,57,70,0
35.272522,35.37235,55,70,0
35.37669,35.476517,59,70,0
35.480854,35.58068,50,70,0
35.585022,35.68485,59,70,0
35.68919,35.789013,50,70,0
35.793354,35.89318,55,70,0
35.897522,35.99735,59,70,0
36.001686,36.101513,62,70,0
36.105854,36.20568,61,70,0
36.210022,36.30985,62,70,0
36.314186,36.414013,64,70,0
36.418354,36.51818,62,70,0
36.522522,36.622345,59,70,0
36.626686,36.726513,62,70,0
36.730854,36.83068,60,70,0
36.83502,36.934845,57,70,0
36.939186,37.351513,55,70,0
38.970432,39.07026,73,70,0
39.02252,39.22651,74,70,0
39.178764,39.27859,73,73,0
39.23085,39.43484,74,75,0
39.3871,39.48829,73,79,0
39.439182,39.649002,74,80,0
39.599895,39.702576,73,84,0
39.65347,39.86329,74,85,0
39.814182,39.918304,73,89,0
39.867752,40.083744,74,90,0
40.033195,40.141228,73,94,0
40.08834,40.314304,74,95,0
40.261417,40.371994,73,99,0
40.31911,40.77584,74,100,0
40.780647,40.984642,74,70,0
40.988983,41.192974,74,70,0
41.197315,41.401306,74,70,0
41.405647,41.470753,74,70,0
41.44037,41.505474,76,70,0
41.47509,41.540195,74,70,0
41.509815,41.609642,73,70,0
41.561897,41.661724,74,70,0
41.61398,41.817974,76,70,0
41.822315,42.026306,78,70,0
42.030647,42.23464,79,70,0
42.23898,42.338806,83,70,0
42.44731,42.651306,74,70,0
42.655647,42.85964,74,70,0
42.86398,43.06797,74,70,0
43.07231,43.137417,74,70,0
43.107033,43.17214,76,70,0
43.141754,43.20686,74,70,0
43.17648,43.276302,73,70,0
43.22856,43.32839,74,70,0
43.280643,43.48464,76,70,0
43.48898,43.69297,78,70,0
43.69731,44.109634,79,70,0
44.113976,44.213802,74,70,0
44.218143,44.31797,79,72,0
44.32231,44.422134,83,74,0
44.426476,44.526302,86,76,0
44.530643,44.634808,85,78,0
44.634808,44.738976,86,80,0
44.738976,44.843143,88,82,0
44.843143,44.947308,86,84,0
44.947308,45.051476,83,86,0
45.051476,45.15564,86,88,0
45.15564,45.259808,84,90,0
45.259808,45.363976,81,92,0
45.363976,45.46814,79,94,0
45.46814,45.572308,83,96,0
45.572308,45.676476,74,98,0
45.676476,45.78064,83,100,0
45.78064,45.884808,74,110,0
45.884808,45.98897,79,110,0
45.98897,46.09314,83,110,0
46.09314,46.197308,86,110,0
46.197308,46.30147,85,110,0
46.30147,46.40564,86,110,0
46.40564,46.509808,88,110,0
46.509808,46.61397,86,110,0
46.61397,46.721115,83,110,0
46.721115,46.82826,86,110,0
46.82826,46.940197,84,110,0
46.940197,47.05214,81,110,0
47.05214,47.495235,79,110,0
47.604065,47.80806,54,70,0
47.708233,47.912224,59,70,0
47.8124,47.912224,63,70,0
48.020733,48.224724,55,70,0
48.124897,48.32889,59,70,0
48.229065,48.433056,64,70,0
48.437397,48.64139,59,70,0
48.541565,48.745556,63,70,0
48.645733,48.745556,66,70,0
48.854065,49.058056,59,70,0
48.95823,49.162224,64,70,0
49.062397,49.266388,67,70,0
49.27073,49.474724,54,70,0
49.374897,49.578888,59,70,0
49.47906,49.578888,63,70,0
49.687397,49.891388,55,70,0
49.79156,49.995556,59,70,0
49.89573,50.09972,64,70,0
50.10406,50.308056,59,70,0
50.20823,50.41222,63,70,0
50.312393,50.41222,66,70,0
50.52073,50.72472,59,70,0
50.624893,50.828888,64,70,0
50.72906,50.933052,67,70,0
50.83323,51.03722,71,70,0
51.04156,51.245552,71,70,0
51.249893,51.38444,71,70,0
51.319336,51.453888,72,70,0
51.388783,51.52333,71,70,0
51.458225,51.66222,73,70,0
51.562393,51.766384,75,70,0
51.66656,51.870552,76,70,0
51.874893,52.078884,78,70,0
52.083225,52.28722,79,70,0
52.291557,52.391384,76,73,0
52.499893,52.703884,71,76,0
52.708225,52.912216,71,79,0
52.916557,53.051105,71,83,0
52.986,53.120552,72,84,0
53.055447,53.189995,71,85,0
53.12489,53.328884,73,86,0
53.229057,53.43305,75,87,0
53.333225,53.537216,76,89,0
53.541557,53.74555,78,92,0
53.74989,53.953884,79,96,0
54.166557,54.57888,69,110,0
54.166557,54.57888,74,110,0
54.166557,54.57888,78,110,0
54.166557,54.57888,81,110,0
54.58322,55.007328,69,110,0
54.58322,55.007328,74,110,0
54.58322,55.007328,78,110,0
54.58322,55.007328,81,110,0
55.01179,55.44837,81,110,0
55.01179,55.44837,78,110,0
55.01179,55.44837,74,110,0
55.01179,55.44837,69,110,0
55.45297,57.65425,69,120,0
55.45297,57.65425,74,120,0
55.45297,57.65425,78,120,0
55.45297,57.65425,81,120,0
57.658848,57.87484,50,70,0
57.769142,57.985134,54,70,0
57.879436,58.09543,57,70,0
57.98973,58.09543,54,70,0
58.100025,58.316017,50,70,0
58.21032,58.42631,54,70,0
58.320614,58.536606,57,70,0
58.43091,58.536606,54,70,0
58.5412,58.757195,50,70,0
58.651493,58.867485,54,70,0
58.761787,58.97778,57,70,0
58.87208,58.97778,54,70,0
58.982376,59.198368,50,70,0
59.09267,59.308662,54,70,0
59.202965,59.418957,57,70,0
59.31326,59.418957,54,70,0
59.423553,59.64609,50,70,0
59.53719,59.759727,54,70,0
59.650826,59.873363,57,70,0
59.76446,59.873363,54,70,0
59.878098,60.10759,50,70,0
59.995285,60.224777,54,70,0
60.112473,60.341965,57,70,0
60.22966,60.341965,54,70,0
60.346848,60.452545,50,70,0
60.45714,60.56284,55,70,0
60.567436,60.667263,59,70,0
60.6716,60.771427,62,70,0
60.77577,60.875595,61,70,0
60.879936,60.979763,62,70,0
60.9841,61.083927,64,70,0
61.08827,61.188095,62,70,0
61.192436,61.29226,59,70,0
61.2966,61.396427,62,70,0
61.40077,61.500595,60,70,0
61.504932,61.60476,57,70,0
61.6091,61.708927,55,70,0
61.71327,61.813095,59,70,0
61.817432,61.91726,50,70,0
61.9216,62.021427,59,70,0
62.02577,62.12559,50,70,0
62.129932,62.22976,55,70,0
62.2341,62.333927,59,70,0
62.338264,62.43809,62,70,0
62.442432,62.54226,61,70,0
62.5466,62.646423,62,70,0
62.650764,62.75059,64,70,0
62.754932,62.85476,62,70,0
62.8591,62.958923,59,70,0
62.963264,63.06309,62,70,0
63.067432,63.16726,60,70,0
63.171597,63.271423,57,70,0
63.275764,63.68809,55,70,0
63.692432,63.792255,50,70,0
63.796597,63.896423,55,70,0
63.900764,64.00059,59,70,0
64.00493,64.10476,62,70,0
64.10909,64.20892,61,70,0
64.213264,64.31309,62,70,0
64.31743,64.41726,64,70,0
64.42159,64.52142,62,70,0
64.525764,64.62559,59,70,0
64.62993,64.72975,62,70,0
64.73409,64.83392,60,70,0
64.838264,64.93809,57,70,0
64.94243,65.04225,55,70,0
65.04659,65.14642,59,70,0
65.150764,65.25059,50,70,0
65.25493,65.35475,59,70,0
65.35909,65.45892,50,70,0
65.463264,65.56309,55,70,0
65.56743,65.66725,59,70,0
65.67159,65.77142,62,70,0
65.77576,65.87559,61,70,0
65.87993,65.97975,62,70,0
65.98409,66.08392,64,70,0
66.08826,66.18809,62,70,0
66.19243,66.29225,59,70,0
66.29659,66.396416,62,70,0
66.40076,66.50059,60,70,0
66.50493,66.60475,57,70,0
66.60909,67.021416,55,70,0
68.64034,68.740166,73,70,0
68.69242,68.896416,74,70,0
68.84867,68.9485,73,73,0
68.90076,69.10475,74,75,0
69.05701,69.158195,73,79,0
69.109085,69.31891,74,80,0
69.269806,69.37248,73,84,0
69.32337,69.533195,74,85,0
69.484085,69.58821,73,89,0
69.53766,69.753654,74,90,0
69.7031,69.811134,73,94,0
69.75825,69.98421,74,95,0
69.93133,70.0419,73,99,0
69.98901,70.44575,74,100,0
70.450554,70.65455,74,70,0
70.65889,70.86288,74,70,0
70.86722,71.07121,74,70,0
71.075554,71.140656,74,70,0
71.110275,71.17538,76,70,0
71.145,71.2101,74,70,0
71.17972,71.27955,73,70,0
71.231804,71.33163,74,70,0
71.28389,71.48788,76,70,0
71.49222,71.69621,78,70,0
71.700554,71.90455,79,70,0
71.90888,72.00871,83,70,0
72.11722,72.32121,74,70,0
72.325554,72.52954,74,70,0
72.53388,72.73788,74,70,0
72.74222,72.80732,74,70,0
72.77694,72.84204,76,70,0
72.81166,72.87676,74,70,0
72.84638,72.94621,73,70,0
72.89847,72.99829,74,70,0
72.950554,73.15454,76,70,0
73.15888,73.36288,78,70,0
73.36722,73.77954,79,70,0
73.78388,73.883705,74,70,0
73.88805,73.98788,79,72,0
73.99222,74.09204,83,74,0
74.09638,74.196205,86,76,0
74.20055,74.30472,85,78,0
74.30472,74.40888,86,80,0
74.40888,74.51305,88,82,0
74.51305,74.61722,86,84,0
74.61722,74.72138,83,86,0
74.72138,74.82555,86,88,0
74.82555,74.92971,84,90,0
74.92971,75.03388,81,92,0
75.03388,75.13805,79,94,0
75.13805,75.24221,83,96,0
75.24221,75.34638,74,98,0
75.34638,75.45055,83,100,0
75.45055,75.55471,74,110,0
75.55471,75.65888,79,110,0
75.65888,75.76305,83,110,0
75.76305,75.86721,86,110,0
75.86721,75.97138,85,110,0
75.97138,76.07555,86,110,0
76.07555,76.17971,88,110,0
76.17971,76.28388,86,110,0
76.28388,76.39102,83,110,0
76.39102,76.49816,86,110,0
76.49816,76.6118,84,110,0
76.6118,76.72543,81,110,0
76.72543,77.17525,79,110,0
77.59665,78.42564,54,100,0
77.59665,78.42564,57,100,0
77.59665,78.42564,60,100,0
77.59665,78.42564,62,100,0
78.42998,79.25897,54,100,0
78.42998,79.25897,57,100,0
78.42998,79.25897,60,100,0
78.42998,79.25897,62,100,0
79.26331,79.4673,60,100,0
79.26331,79.4673,54,100,0
79.26331,79.4673,57,100,0
79.26331,79.4673,62,100,0
79.47164,79.67564,54,70,0
79.47164,79.67564,57,70,0
79.47164,79.67564,62,70,0
79.67998,79.88397,54,70,0
79.67998,79.88397,57,70,0
79.67998,79.88397,62,70,0
79.88831,80.0923,54,70,0
79.88831,80.0923,57,70,0
79.88831,80.0923,62,70,0
80.09664,80.50897,54,70,0
80.09664,80.50897,57,70,0
80.09664,80.50897,62,70,0
80.92998,81.133965,56,100,0
80.92998,81.133965,59,100,0
80.92998,81.133965,62,100,0
80.92998,81.133965,64,100,0
81.138306,81.3423,56,70,0
81.138306,81.3423,59,70,0
81.138306,81.3423,62,70,0
81.138306,81.3423,64,70,0
81.34664,81.55064,56,70,0
81.34664,81.55064,59,70,0
81.34664,81.55064,62,70,0
81.34664,81.55064,64,70,0
81.55498,81.758965,56,70,0
81.55498,81.758965,59,70,0
81.55498,81.758965,62,70,0
81.55498,81.758965,64,70,0
81.763306,82.17564,56,70,0
81.763306,82.17564,59,70,0
81.763306,82.17564,64,70,0
82.59664,83.42563,59,100,0
82.59664,83.42563,62,100,0
82.59664,83.42563,65,100,0
82.59664,83.42563,67,100,0
83.42997,84.258965,59,100,0
83.42997,84.258965,62,100,0
83.42997,84.258965,65,100,0
83.42997,84.258965,67,100,0
84.263306,84.46729,59,100,0
84.263306,84.46729,62,100,0
84.263306,84.46729,65,100,0
84.263306,84.46729,67,100,0
84.471634,84.67563,59,70,0
84.471634,84.67563,62,70,0
84.471634,84.67563,65,70,0
84.471634,84.67563,67,70,0
84.67997,84.883965,59,70,0
84.67997,84.883965,62,70,0
84.67997,84.883965,65,70,0
84.67997,84.883965,67,70,0
84.888306,85.09229,59,70,0
84.888306,85.09229,62,70,0
84.888306,85.09229,65,70,0
84.888306,85.09229,67,70,0
85.096634,85.508965,59,70,0
85.096634,85.508965,62,70,0
85.096634,85.508965,65,70,0
85.096634,85.508965,67,70,0
85.5133,85.71729,55,110,0
85.61747,85.821465,60,110,0
85.721634,85.92563,64,110,0
85.8258,86.02979,67,110,0
85.92997,86.13396,66,110,0
86.034134,86.23813,67,110,0
86.1383,86.34229,69,110,0
86.24247,86.44646,67,110,0
86.346634,86.55063,64,110,0
86.4508,86.65479,67,110,0
86.55497,86.75896,65,110,0
86.659134,86.75896,62,110,0
86.7633,86.96729,60,110,0
86.86747,87.07146,64,110,0
86.971634,87.17563,55,110,0
87.0758,87.27979,64,110,0
87.17996,87.38396,55,110,0
87.284134,87.48812,60,110,0
87.3883,87.59229,64,110,0
87.49246,87.69646,67,110,0
87.596634,87.80062,66,110,0
87.7008,87.90479,67,110,0
87.80496,88.00896,69,110,0
87.909134,88.11312,67,110,0
88.0133,88.21729,64,110,0
88.11746,88.32146,67,110,0
88.221634,88.42562,65,110,0
88.3258,88.42562,62,110,0
88.42996,88.84229,60,110,0
88.84663,89.05062,55,110,0
88.9508,89.154785,60,110,0
89.05496,89.25896,64,110,0
89.15913,89.36312,67,110,0
89.2633,89.467285,66,110,0
89.36746,89.57146,67,110,0
89.47163,89.67562,69,110,0
89.5758,89.779785,67,110,0
89.67996,89.88396,64,110,0
89.78413,89.98812,67,110,0
89.8883,90.092285,65,110,0
89.99246,90.092285,62,110,0
90.09663,90.30062,60,110,0
90.20079,90.404785,64,110,0
90.30496,90.50896,55,110,0
90.40913,90.61312,64,110,0
90.51329,90.717285,55,110,0
90.61746,90.82145,60,110,0
90.72163,90.92562,64,110,0
90.82579,91.029785,67,110,0
90.92996,91.13395,66,110,0
91.03413,91.23812,67,110,0
91.13829,91.342285,69,110,0
91.24246,91.44645,67,110,0
91.34663,91.55062,64,110,0
91.45079,91.654785,67,110,0
91.55496,91.75895,65,110,0
91.65913,91.75895,62,110,0
91.76329,91.967285,60,110,0
95.51328,95.71728,76,100,0
95.617455,95.82144,81,100,0
95.72162,95.92561,84,100,0
95.82578,95.92561,88,100,0
95.929955,96.13394,87,100,0
96.03412,96.23811,88,100,0
96.13828,96.34228,89,100,0
96.242455,96.44644,88,100,0
96.34662,96.55061,84,100,0
96.45078,96.65478,88,100,0
96.55495,96.75894,86,100,0
96.65912,96.75894,83,100,0
96.76328,96.96728,84,100,0
96.86745,97.07144,81,100,0
96.97162,97.175606,76,100,0
97.07578,97.27978,72,100,0
97.17995,97.38394,74,100,0
97.28412,97.488106,79,100,0
97.38828,97.59228,83,100,0
97.49245,97.59228,86,100,0
97.59662,97.800606,85,100,0
97.70078,97.90478,86,100,0
97.80495,98.00894,88,100,0
97.90912,98.113106,86,100,0
98.01328,98.21728,83,100,0
98.11745,98.32144,86,100,0
98.22161,98.425606,84,100,0
98.32578,98.425606,81,100,0
98.42995,98.63394,83,100,0
98.53411,98.738106,79,100,0
98.63828,98.84227,74,100,0
98.74245,98.94644,71,100,0
98.84661,99.050606,83,100,0
98.95078,99.15477,80,100,0
99.05495,99.25894,83,100,0
99.15911,99.25894,80,100,0
99.26328,99.46727,81,100,0
99.36745,99.57144,80,100,0
99.47161,99.675606,81,100,0
99.57578,99.77977,78,100,0
99.67995,99.88394,81,100,0
99.78411,99.988106,78,100,0
99.888275,100.09227,81,100,0
99.99245,100.196434,78,100,0
100.09661,100.300606,79,100,0
100.200775,100.40477,78,100,0
100.30495,100.508934,79,100,0
100.40911,100.613106,76,100,0
100.513275,100.71727,79,100,0
100.61745,100.821434,76,100,0
100.72161,100.925606,79,100,0
100.825775,101.02977,76,100,0
100.92995,101.133934,77,100,0
101.03411,101.238106,76,100,0
101.138275,101.34227,77,100,0
101.24244,101.446434,74,100,0
101.34661,101.550606,77,100,0
101.450775,101.65477,74,100,0
101.55494,101.758934,77,100,0
101.65911,101.8631,74,100,0
101.763275,101.96727,76,100,0
101.86744,102.071434,74,100,0
101.97161,102.1756,76,100,0
102.075775,102.27977,72,100,0
102.17994,102.383934,76,100,0
102.28411,102.4881,73,100,0
102.388275,102.59227,76,100,0
102.49244,102.69929,73,100,0
102.59661,102.80643,74,100,0
102.70375,102.913574,73,100,0
102.81089,103.02071,74,100,0
102.91804,103.130875,71,100,0
103.02518,103.24117,74,100,0
103.135475,103.356346,71,100,0
103.245766,103.471725,68,100,0
103.36115,103.471725,62,100,0
103.47653,103.58711,61,100,0
103.59192,103.7025,66,70,0
103.707306,103.80713,61,70,0
103.81147,103.9113,58,70,0
103.915634,104.015465,59,70,0
104.019806,104.11963,66,70,0
104.12397,104.22379,62,70,0
104.228134,104.327965,59,70,0
104.332306,104.43213,61,70,0
104.43647,104.53629,66,70,0
104.540634,104.640465,64,70,0
104.644806,104.74463,61,70,0
104.74897,104.84879,59,70,0
104.853134,104.952965,66,70,0
104.957306,105.05713,62,70,0
105.06147,105.16129,59,70,0
105.165634,105.265465,58,100,0
105.2698,105.36963,70,70,0
105.37397,105.47379,66,70,0
105.478134,105.577965,61,70,0
105.5823,105.68213,62,70,0
105.68647,105.78629,71,70,0
105.790634,105.89046,66,70,0
105.8948,105.99463,62,70,0
105.99897,106.09879,64,70,0
106.103134,106.20296,73,70,0
106.2073,106.30713,66,70,0
106.31147,106.41129,64,70,0
106.415634,106.51546,62,70,0
106.5198,106.61963,71,70,0
106.62397,106.72379,66,70,0
106.728134,106.82796,62,70,0
106.8323,106.93213,61,70,0
106.93646,107.03629,70,70,0
107.040634,107.14046,62,100,0
107.1448,107.24463,71,70,0
107.24896,107.34879,61,70,0
107.353134,107.45296,70,70,0
107.4573,107.55712,62,100,0
107.56146,107.66129,71,70,0
107.665634,107.76546,61,70,0
107.7698,107.86962,70,70,0
107.87396,107.97379,62,100,0
107.978134,108.07796,71,70,0
108.0823,108.184975,61,70,0
108.18944,108.29212,70,70,0
108.296585,108.40386,62,100,0
108.40852,108.5158,71,70,0
108.52046,108.73968,61,100,0
108.52046,108.73968,70,100,0
108.85149,109.06131,66,70,0
109.06577,109.2756,66,68,0
109.28006,109.489876,66,67,0
109.49435,109.70416,66,65,0
109.708626,109.91845,66,63,0
109.92291,110.13274,66,62,0
110.1372,110.34702,66,60,0
110.35149,110.56131,66,50,0
110.56577,110.77559,66,50,0
110.78006,110.989876,66,50,0
110.99434,111.20416,66,50,0
111.208626,111.41845,66,50,0
111.42291,111.52559,66,50,0
111.53005,111.63274,66,70,0
111.6372,111.739876,71,70,0
111.74434,111.84702,75,70,0
111.85149,111.95416,78,70,0
111.958626,112.0613,77,70,0
112.06577,112.16845,78,70,0
112.17291,112.27559,80,70,0
112.28005,112.38274,78,70,0
112.3872,112.489876,75,70,0
112.49434,112.597015,78,70,0
112.60149,112.70416,76,70,0
112.708626,112.8113,73,70,0
112.815765,112.91845,71,70,0
112.92291,113.02559,75,70,0
113.03005,113.13274,66,70,0
113.1372,113.239876,75,70,0
113.24434,113.347015,66,70,0
113.35148,113.45416,71,70,0
113.458626,113.5613,75,70,0
113.565765,113.66845,78,70,0
113.67291,113.77559,77,70,0
113.78005,113.88273,78,70,0
113.8872,113.989876,80,70,0
113.99434,114.097015,78,70,0
114.10148,114.20416,75,70,0
114.208626,114.3113,78,70,0
114.315765,114.41844,76,70,0
114.42291,114.52559,73,70,0
114.53005,114.739876,71,70,0
114.63719,114.847015,59,60,0
114.85148,115.0613,59,60,0
115.065765,115.27559,59,60,0
115.28005,115.489876,59,60,0
115.49434,115.704155,59,60,0
115.708626,115.91844,59,60,0
115.922905,116.13273,59,60,0
116.13719,116.347015,59,60,0
116.35148,116.5613,62,63,0
116.565765,116.77559,62,71,0
116.78005,116.98987,62,79,0
116.99434,117.204155,62,86,0
117.20862,117.41844,62,90,0
117.422905,117.63273,62,88,0
117.63719,117.847015,62,86,0
117.85148,118.0613,62,84,0
118.065765,118.27558,62,83,0
118.28005,118.48987,62,81,0
118.49433,118.704155,62,79,0
118.70862,118.91844,62,77,0
118.922905,119.13273,62,70,0
119.13719,119.347015,62,70,0
119.35148,119.561295,62,70,0
119.565765,119.77558,62,70,0
119.780045,119.98987,62,70,0
119.99433,120.204155,62,70,0
120.20862,120.41844,64,70,0
120.422905,120.63273,66,70,0
120.63719,120.84701,67,70,0
120.85147,121.061295,62,70,0
121.06576,121.27558,62,70,0
121.280045,121.48987,62,70,0
121.49433,121.704155,62,70,0
121.70862,121.91844,62,70,0
121.922905,122.13272,64,70,0
122.137184,122.34701,66,70,0
122.35147,122.561295,67,70,0
122.56576,122.668434,67,70,0
122.672905,122.77558,50,70,0
122.780045,122.88272,55,70,0
122.887184,122.98987,59,70,0
122.99433,123.09701,62,70,0
123.10147,123.20415,61,70,0
123.20862,123.311295,62,70,0
123.31576,123.418434,64,70,0
123.4229,123.52558,62,70,0
123.530045,123.63272,59,70,0
123.637184,123.73987,62,70,0
123.74433,123.84701,60,70,0
123.85147,123.95415,57,70,0
123.95862,124.061295,55,70,0
124.06576,124.168434,59,70,0
124.1729,124.27558,50,70,0
124.280045,124.38272,59,70,0
124.387184,124.48986,50,70,0
124.49433,124.59701,55,70,0
124.60147,124.70415,59,70,0
124.70861,124.811295,62,70,0
124.81576,124.918434,61,70,0
124.9229,125.02558,62,70,0
125.030045,125.13272,64,70,0
125.137184,125.23986,62,70,0
125.24432,125.34701,59,70,0
125.35147,125.45415,62,70,0
125.45861,125.561295,60,70,0
125.56576,125.668434,57,70,0
125.6729,126.09701,55,70,0
127.762184,127.86486,73,70,0
127.81575,128.02557,74,70,0
127.97647,128.07915,73,73,0
128.03004,128.23985,74,75,0
128.19075,128.29488,73,79,0
128.24432,128.46031,74,80,0
128.40976,128.51546,73,84,0
128.46492,128.68091,74,85,0
128.63036,128.73839,73,89,0
128.6855,128.91147,74,90,0
128.85858,128.97171,73,94,0
128.91628,129.15317,74,95,0
129.09772,129.21365,73,99,0
129.1582,129.63704,74,100,0
129.64207,129.84607,74,70,0
129.8504,130.0544,74,70,0
130.05875,130.26273,74,70,0
130.26707,130.33218,74,70,0
130.30179,130.3669,76,70,0
130.33652,130.40163,74,70,0
130.37125,130.47107,73,70,0
130.42332,130.52315,74,70,0
130.4754,130.6794,76,70,0
130.68375,130.88773,78,70,0
130.89207,131.09607,79,70,0
131.1004,131.20023,83,70,0
131.30873,131.51273,74,70,0
131.51707,131.72107,74,70,0
131.7254,131.9294,74,70,0
131.93373,131.99884,74,70,0
131.96846,132.03357,76,70,0
132.00319,132.06828,74,70,0
132.0379,132.13773,73,70,0
132.08998,132.18982,74,70,0
132.14207,132.34607,76,70,0
132.3504,132.5544,78,70,0
132.55873,132.97107,79,70,0
132.9754,133.07523,74,70,0
133.07957,133.1794,79,72,0
133.18373,133.28357,83,74,0
133.2879,133.38773,86,76,0
133.39207,133.49623,85,78,0
133.49623,133.6004,86,80,0
133.6004,133.70457,88,82,0
133.70457,133.80873,86,84,0
133.80873,133.9129,83,86,0
133.9129,134.01707,86,88,0
134.01707,134.12123,84,90,0
134.12123,134.2254,81,92,0
134.2254,134.32957,79,94,0
134.32957,134.43373,83,96,0
134.43373,134.5379,74,98,0
134.5379,134.64206,83,100,0
134.64206,134.74623,74,110,0
134.74623,134.8504,79,110,0
134.8504,134.95456,83,110,0
134.95456,135.05873,86,110,0
135.05873,135.1629,85,110,0
135.1629,135.26706,86,110,0
135.26706,135.37123,88,110,0
135.37123,135.4754,86,110,0
135.4754,135.57956,83,110,0
135.57956,135.68373,86,110,0
135.68373,135.7879,84,110,0
135.7879,135.89206,81,110,0
135.89206,135.9919,79,110,0
135.99623,136.09605,83,80,0
136.1004,136.20023,81,81,0
136.20456,136.3044,78,82,0
136.30873,136.40855,76,84,0
136.4129,136.51273,79,85,0
136.51706,136.61688,78,87,0
136.62123,136.72105,74,88,0
136.7254,136.82523,72,90,0
136.82956,136.92938,76,91,0
136.93373,137.03355,74,93,0
137.0379,137.13773,71,94,0
137.14206,137.24188,69,96,0
137.24623,137.34605,72,97,0
137.3504,137.45023,71,99,0
137.45456,137.55438,68,100,0
137.55873,137.65855,69,110,0
137.66289,137.76273,71,110,0
137.76706,137.86688,72,110,0
137.87123,137.97105,74,110,0
137.97539,138.07523,76,110,0
138.07956,138.17938,78,110,0
138.18373,138.28355,79,110,0
138.28789,138.38773,81,110,0
138.39206,138.49474,83,110,0
138.4992,138.60188,86,110,0
138.60634,138.70903,79,110,0
138.71349,138.81616,84,110,0
138.82063,138.92633,74,110,0
138.93092,139.03662,83,110,0
139.04121,139.1518,72,110,0
139.1566,139.26718,81,110,0
139.27199,139.47598,83,80,0
139.58449,139.68431,83,84,0
139.68866,139.89265,88,85,0
140.00116,140.10098,79,89,0
140.10532,140.30931,84,91,0
140.41782,140.51764,84,95,0
140.52199,140.72598,84,96,0
140.83449,140.93431,84,100,0
140.93866,141.87181,84,110,0
141.87614,141.97598,86,110,0
141.98032,142.08014,88,110,0
142.08449,142.18431,86,110,0
142.18864,142.28848,84,110,0
142.29282,142.39264,83,110,0
142.39699,142.49681,81,110,0
142.50114,142.60098,79,110,0
142.60532,143.12181,78,110,0
143.12614,143.22598,79,110,0
143.23032,143.33014,81,110,0
143.33449,143.43431,83,110,0
143.43864,143.53847,84,100,0
143.54282,143.64264,86,110,0
143.64699,143.74681,88,110,0
143.75114,143.85097,86,110,0
143.85532,143.95514,84,110,0
143.95949,144.05931,83,110,0
144.06364,144.16347,81,110,0
144.16782,144.26764,79,110,0
144.27199,144.78847,78,110,0
144.79282,144.89264,79,110,0
144.89697,144.99681,81,110,0
145.00114,145.10097,83,110,0
145.10532,145.20514,84,125,0
145.20947,145.30931,83,100,0
145.31364,145.41347,81,100,0
145.41782,145.51764,79,100,0
145.52197,145.62181,78,100,0
145.62614,145.72597,79,100,0
145.73032,145.83014,81,100,0
145.83447,145.93431,83,100,0
145.93864,146.04132,84,125,0
146.04579,146.14847,83,100,0
146.15292,146.25562,81,100,0
146.26007,146.36275,79,100,0
146.36722,146.47292,78,100,0
146.47751,146.5832,79,100,0
146.5878,146.6935,81,100,0
146.6981,146.8038,83,100,0
146.8084,146.9173,84,125,0
146.92203,147.03093,83,100,0
147.03566,147.14456,84,100,0
147.1493,147.25821,83,100,0
147.26294,147.37703,84,100,0
147.38199,147.49608,83,100,0
147.50104,147.62082,84,100,0
147.62604,147.74582,83,100,0
147.75104,147.99582,84,110,0
148.25104,152.24582,66,110,0
148.25104,152.24582,72,110,0
152.9818,153.20102,51,50,0
152.9818,153.20102,55,50,0
152.9818,153.20102,58,50,0
153.42307,153.63594,51,50,0
153.42307,153.63594,55,50,0
153.42307,153.63594,58,50,0
153.85785,154.07071,51,50,0
153.85785,154.07071,55,50,0
153.85785,154.07071,58,50,0
154.29263,154.5055,51,50,0
154.29263,154.5055,55,50,0
154.29263,154.5055,58,50,0
154.72742,154.94028,51,50,0
154.72742,154.94028,55,50,0
154.72742,154.94028,58,50,0
155.1622,155.37506,51,50,0
155.1622,155.37506,55,50,0
155.1622,155.37506,58,50,0
155.59698,155.80984,51,50,0
155.59698,155.80984,55,50,0
155.59698,155.80984,58,50,0
156.03177,156.24463,51,50,0
156.03177,156.24463,55,50,0
156.03177,156.24463,58,50,0
156.46655,156.67941,65,60,0
156.46655,156.67941,68,60,0
156.46655,156.67941,74,60,0
156.68393,156.8968,65,60,0
156.68393,156.8968,68,60,0
156.68393,156.8968,74,60,0
156.90132,157.1142,65,60,0
156.90132,157.1142,68,60,0
156.90132,157.1142,74,60,0
157.3361,157.54897,63,60,0
157.3361,157.54897,67,60,0
157.3361,157.54897,75,60,0
157.5535,157.76636,63,60,0
157.5535,157.76636,67,60,0
157.5535,157.76636,75,60,0
157.77089,157.98375,63,60,0
157.77089,157.98375,67,60,0
157.77089,157.98375,75,60,0
158.20567,158.41853,65,60,0
158.20567,158.41853,68,60,0
158.20567,158.41853,74,60,0
158.42307,158.63593,65,60,0
158.42307,158.63593,68,60,0
158.42307,158.63593,74,60,0
158.64046,158.85332,65,60,0
158.64046,158.85332,68,60,0
158.64046,158.85332,74,60,0
159.07524,159.1794,63,60,0
159.18393,159.2881,67,60,0
159.29263,159.39679,70,60,0
159.40132,159.5055,75,60,0
159.51003,159.61418,79,60,0
159.61871,159.72289,82,60,0
159.72742,159.83157,81,60,0
159.8361,159.94028,82,60,0
159.94481,160.04897,84,60,0
160.0535,160.15767,82,60,0
160.16219,160.26636,80,60,0
160.27089,160.37506,79,60,0
160.37958,160.48375,80,60,0
160.48828,160.59245,77,60,0
160.59697,160.70114,75,60,0
160.70567,160.80983,79,60,0
160.81436,160.91853,70,60,0
160.92307,161.02722,79,60,0
161.03175,161.13593,70,60,0
161.14046,161.24461,75,60,0
161.24915,161.35332,79,60,0
161.35785,161.462,82,60,0
161.46654,161.57071,81,60,0
161.57524,161.6794,82,60,0
161.68393,161.7881,84,60,0
161.79263,161.89679,82,60,0
161.90132,162.0055,80,60,0
162.01001,162.11418,79,60,0
162.11871,162.22289,80,60,0
162.2274,162.33157,77,60,0
162.3361,162.54897,75,60,0
162.5535,162.98071,67,60,0
162.5535,162.98071,70,60,0
162.98517,163.40927,67,60,0
162.98517,163.40927,70,60,0
163.41374,163.83784,67,60,0
163.41374,163.83784,68,60,0
163.84232,164.26642,65,60,0
163.84232,164.26642,68,60,0
164.27089,164.69499,65,60,0
164.27089,164.69499,67,60,0
164.69945,165.12357,63,60,0
164.69945,165.12357,67,60,0
165.12802,165.55214,63,60,0
165.12802,165.55214,65,60,0
165.5566,165.76642,65,60,0
165.5566,165.9807,62,60,0
165.77089,166.19499,63,60,0
165.98517,166.19499,60,60,0
166.19945,166.40927,66,60,0
166.19945,166.40927,74,60,0
166.41374,166.62357,66,60,0
166.41374,166.62357,74,60,0
166.62802,166.83784,66,60,0
166.62802,166.83784,74,60,0
166.84232,167.05212,66,60,0
166.84232,167.05212,74,60,0
167.0566,167.26642,67,60,0
167.0566,167.26642,76,60,0
167.27087,167.4807,69,60,0
167.27087,167.4807,78,60,0
167.48517,167.90927,70,60,0
167.48517,167.90927,79,60,0
167.91374,168.12357,73,60,0
168.12802,168.19499,73,60,0
168.16374,168.2307,74,60,0
168.19945,168.26642,73,60,0
168.23517,168.33784,71,60,0
168.28874,168.33784,73,60,0
168.3423,168.76642,74,60,0
168.77087,168.98688,66,60,0
168.99147,169.06358,66,60,0
169.02992,169.10205,67,60,0
169.06839,169.1405,66,60,0
169.10686,169.21742,64,60,0
169.16455,169.21742,66,60,0
169.22223,169.66283,67,60,0
169.6673,169.8771,66,60,0
169.88158,170.0914,66,60,0
170.09586,170.30568,66,60,0
170.31015,170.51997,66,60,0
170.52443,170.73425,67,60,0
170.73872,170.94853,69,60,0
170.953,171.3771,71,60,0
171.38158,171.5914,67,60,0
171.38158,171.5914,69,60,0
171.59586,171.80568,67,65,0
171.59586,171.80568,69,65,0
171.81015,172.23425,67,70,0
171.81015,172.23425,71,70,0
172.23872,172.44853,60,81,0
172.23872,172.44853,62,81,0
172.453,172.66283,60,87,0
172.453,172.66283,62,87,0
172.66728,173.0914,59,92,0
172.66728,173.0914,62,92,0
173.09586,173.30568,85,110,0
173.31015,173.44853,85,110,0
173.38158,173.51996,86,110,0
173.453,173.51996,85,110,0
173.52443,173.73425,86,110,0
173.73871,173.8771,86,110,0
173.81015,173.94853,88,110,0
173.88158,174.02193,86,110,0
173.953,174.16899,78,110,0
174.17358,174.32263,78,110,0
174.25052,174.39955,79,110,0
174.32744,174.39955,78,110,0
174.40436,174.63033,79,70,0
174.63513,174.84494,62,70,0
174.63513,174.84494,74,70,0
175.06369,175.27351,62,70,0
175.06369,175.27351,74,70,0
175.49226,175.70209,62,70,0
175.49226,175.70209,74,70,0
175.92084,176.13066,62,70,0
175.92084,176.13066,74,70,0
176.34941,176.55923,62,70,0
176.34941,176.55923,74,70,0
176.77798,176.98781,62,70,0
176.77798,176.98781,74,70,0
177.20656,177.41637,62,70,0
177.20656,177.41637,74,70,0
177.63512,177.84494,62,70,0
177.63512,177.84494,74,70,0
177.84941,177.95209,74,70,0
177.95656,178.05923,62,70,0
178.06369,178.16637,67,70,0
178.17084,178.27351,71,70,0
178.27798,178.38512,74,70,0
178.38512,178.49226,79,70,0
178.49226,178.59941,83,70,0
178.59941,178.70656,86,70,0
178.70656,178.81369,85,70,0
178.81369,178.92084,86,70,0
178.92084,179.02798,88,70,0
179.02798,179.13512,86,70,0
179.13512,179.24226,83,70,0
179.24226,179.34941,86,70,0
179.34941,179.45654,84,70,0
179.45654,179.56369,81,70,0
179.56369,179.67084,79,70,0
179.67084,179.77798,83,70,0
179.77798,179.88512,74,70,0
179.88512,179.99226,83,70,0
179.99226,180.09941,74,70,0
180.09941,180.20654,79,70,0
180.20654,180.31369,83,70,0
180.31369,180.42084,86,70,0
180.42084,180.52798,85,70,0
180.52798,180.63512,86,70,0
180.63512,180.74226,88,70,0
180.74226,180.84941,86,70,0
180.84941,180.95654,83,70,0
180.95654,181.06369,86,70,0
181.06369,181.17084,84,70,0
181.17084,181.27798,81,70,0
181.27798,181.70209,79,70,0
181.70654,181.91637,57,70,0
181.81369,182.02351,60,70,0
181.92084,182.13066,50,70,0
182.02797,182.2378,60,70,0
182.13512,182.34494,55,70,0
182.24226,182.45209,59,70,0
182.34941,182.55922,50,70,0
182.45654,182.66637,59,70,0
182.56369,182.77351,54,70,0
182.67084,182.88066,57,70,0
182.77797,182.9878,50,70,0
182.88512,183.09494,57,70,0
182.99226,183.20209,55,70,0
183.09941,183.30922,59,70,0
183.20654,183.41637,50,70,0
183.31369,183.52351,59,70,0
183.42084,183.63065,57,70,0
183.52797,183.7378,60,70,0
183.63512,183.84494,50,70,0
183.74226,183.95209,60,70,0
183.8494,184.05922,55,70,0
183.95654,184.16637,59,70,0
184.06369,184.27351,50,70,0
184.17084,184.38065,59,70,0
184.27797,184.4878,54,70,0
184.38512,184.59494,57,70,0
184.49226,184.70209,50,70,0
184.5994,184.80922,57,70,0
184.70654,184.91637,55,70,0
184.81369,185.02351,59,70,0
184.92084,185.13065,50,70,0
185.02797,185.2378,59,70,0
185.13512,185.34494,54,70,0
185.24226,185.45209,57,70,0
185.3494,185.55922,50,70,0
185.45654,185.55922,57,70,0
185.56369,185.77351,55,70,0
185.67082,185.88065,59,70,0
185.77797,185.9878,50,70,0
185.88512,186.09494,59,70,0
185.99226,186.20207,54,70,0
186.0994,186.30922,57,70,0
186.20654,186.41637,50,70,0
186.31369,186.41637,57,70,0
186.42082,186.6277,55,70,0
186.52646,186.73332,59,70,0
186.6321,186.83896,50,70,0
186.73773,186.9446,59,70,0
186.84337,187.05023,54,70,0
186.949,187.15587,57,70,0
187.05463,187.2615,50,70,0
187.16026,187.2615,57,70,0
187.2659,187.4699,55,70,0
187.37007,187.57405,59,70,0
187.47423,187.67822,50,70,0
187.5784,187.7824,59,70,0
187.68257,187.88655,54,70,0
187.78673,187.99072,57,70,0
187.8909,188.0949,50,70,0
187.99507,188.0949,57,70,0
188.09923,188.30322,55,70,0
188.2034,188.4074,59,72,0
188.30757,188.51155,50,75,0
188.41173,188.61572,59,77,0
188.5159,188.7199,50,80,0
188.62006,188.82405,55,82,0
188.72423,188.92822,47,85,0
188.8284,189.03525,55,87,0
188.93256,189.14238,47,90,0
189.0397,189.24953,50,93,0
189.14685,189.35667,43,95,0
189.254,189.46683,50,98,0
189.36113,189.57713,43,100,0
189.47144,189.69229,47,103,0
189.58173,189.80768,38,105,0
189.69711,189.80768,47,108,0
189.81248,190.03845,47,110,0
190.27403,190.54602,57,120,0
190.27403,190.54602,60,120,0
190.27403,190.54602,62,120,0
190.27403,190.54602,66,120,0
190.82959,191.24046,59,120,0
190.82959,191.24046,62,120,0
190.82959,191.24046,67,120,0
0.833332,1.6623237,43,70,0
0.833332,1.6623237,31,70,0
1.666664,2.4956558,43,70,0
1.666664,2.4956558,31,70,0
2.499996,3.3289878,31,70,0
2.499996,3.3289878,43,70,0
3.333328,4.1623197,43,70,0
3.333328,4.1623197,31,70,0
4.16666,4.9956517,31,70,0
4.16666,4.9956517,43,70,0
4.999992,5.828984,43,70,0
4.999992,5.828984,31,70,0
5.833324,6.662316,31,70,0
5.833324,6.662316,43,70,0
6.666656,7.078982,31,70,0
6.666656,7.078982,43,70,0
7.083322,7.1831484,54,70,0
7.1874886,7.287315,55,70,0
7.291655,7.3914814,57,70,0
7.3958216,7.495648,59,70,0
7.499988,7.5998144,60,70,0
7.6041546,7.703981,59,70,0
7.708321,7.8081474,57,70,0
7.8124876,7.912314,55,70,0
7.916654,8.01648,54,70,0
8.020821,8.120646,55,70,0
8.124987,8.224813,57,70,0
7.499988,8.3289795,50,70,0
8.229154,8.3289795,59,70,0
8.33332,8.433146,60,70,0
8.437487,8.5373125,59,70,0
8.541653,8.6414795,57,70,0
8.64582,8.7456455,55,70,0
8.749986,8.8498125,54,70,0
8.854153,8.953979,55,72,0
8.958319,9.0581455,57,75,0
8.33332,9.162312,50,70,0
9.062486,9.162312,59,77,0
9.166652,9.26933,60,80,0
9.273795,9.376473,59,82,0
9.380938,9.483616,57,85,0
9.166652,9.590758,50,80,0
9.48808,9.590758,55,88,0
9.595223,9.700921,54,90,0
9.595223,9.811215,50,90,0
9.705517,9.811215,55,93,0
9.815811,9.926388,54,95,0
9.815811,10.041772,50,95,0
9.931195,10.041772,55,98,0
10.04658,10.50331,50,100,0
10.04658,10.50331,54,100,0
10.924784,11.128777,47,70,0
10.924784,11.128777,50,70,0
11.028951,11.232944,43,70,0
11.133117,11.33711,47,70,0
11.133117,11.33711,50,70,0
11.237284,11.441277,43,70,0
11.34145,11.545443,47,70,0
11.34145,11.545443,50,70,0
11.445617,11.64961,43,70,0
11.549783,11.753776,48,70,0
11.549783,11.753776,50,70,0
11.65395,11.753776,43,70,0
11.758116,11.962109,47,70,0
11.758116,11.962109,50,70,0
11.862283,12.066276,43,70,0
11.966449,12.170442,47,70,0
11.966449,12.170442,50,70,0
12.070616,12.274609,43,70,0
12.174782,12.378775,47,70,0
12.174782,12.378775,50,70,0
12.278949,12.482942,43,70,0
12.383115,12.587108,47,70,0
12.383115,12.587108,50,70,0
12.487282,12.587108,43,70,0
12.591448,12.795441,47,70,0
12.591448,12.795441,50,70,0
12.695615,12.899608,43,70,0
12.799781,13.003774,47,70,0
12.799781,13.003774,50,70,0
12.903948,13.107941,43,70,0
13.008114,13.212107,47,70,0
13.008114,13.212107,50,70,0
13.112281,13.316274,43,70,0
13.216447,13.42044,48,70,0
13.216447,13.42044,50,70,0
13.320614,13.42044,43,70,0
13.42478,13.628773,47,70,0
13.42478,13.628773,50,70,0
13.528947,13.732939,43,70,0
13.633113,13.837106,47,70,0
13.633113,13.837106,50,70,0
13.73728,13.941272,43,70,0
13.841446,14.045439,47,70,0
13.841446,14.045439,50,70,0
13.945613,14.149605,43,72,0
14.049779,14.253772,47,74,0
14.049779,14.253772,50,74,0
14.153946,14.253772,43,76,0
14.258112,14.462105,47,78,0
14.258112,14.462105,50,78,0
14.362279,14.566271,43,80,0
14.466445,14.670438,47,82,0
14.466445,14.670438,50,82,0
14.570612,14.774604,43,84,0
14.674778,14.878771,47,86,0
14.674778,14.878771,50,86,0
14.778945,14.982937,43,88,0
14.883111,15.087104,50,90,0
14.883111,15.087104,54,90,0
14.987277,15.087104,43,92,0
15.091444,15.295437,50,94,0
15.091444,15.295437,55,94,0
15.19561,15.399603,43,96,0
15.299777,15.50377,47,98,0
15.299777,15.50377,50,98,0
15.403943,15.607936,43,100,0
15.50811,15.712103,47,110,0
15.50811,15.712103,50,110,0
15.612276,15.816269,43,110,0
15.716443,15.920436,47,110,0
15.716443,15.920436,50,110,0
15.820609,15.920436,43,110,0
15.924776,16.134598,47,110,0
15.924776,16.134598,50,110,0
16.03192,16.24174,43,110,0
16.139061,16.348883,47,110,0
16.139061,16.348883,50,110,0
16.246204,16.459045,43,110,0
16.353348,16.56934,47,110,0
16.353348,16.56934,50,110,0
16.46364,16.684511,43,110,0
16.573935,16.799896,50,110,0
16.573935,16.799896,54,110,0
16.68932,16.799896,43,110,0
16.804705,17.261435,43,110,0
16.804705,17.261435,50,110,0
16.804705,17.261435,55,110,0
17.266241,17.470234,47,70,0
17.474575,17.678568,43,70,0
17.682907,18.095234,50,70,0
18.099573,18.303566,55,70,0
18.307907,18.5119,59,70,0
18.51624,18.928566,62,70,0
18.932905,19.136898,47,70,0
19.14124,19.345232,43,70,0
19.349571,19.761898,50,70,0
19.766237,19.97023,55,70,0
19.974571,20.178564,59,70,0
20.182903,20.59523,62,70,0
20.59957,20.803562,64,70,0
20.703737,20.90773,67,70,0
20.807903,21.011896,62,70,0
20.91207,21.116062,66,70,0
21.016235,21.220228,60,70,0
21.120403,21.324396,64,70,0
21.22457,21.428562,59,70,0
21.328735,21.532728,62,70,0
21.432901,21.636894,57,70,0
21.53707,21.741062,60,70,0
21.641235,21.845228,62,70,0
21.745401,21.949394,60,70,0
21.849567,22.05356,59,70,0
21.953735,22.157726,57,70,0
22.057901,22.261894,55,70,0
22.162067,22.36606,53,70,0
22.266233,22.470226,52,110,0
22.370401,22.574392,55,110,0
22.474567,22.67856,50,110,0
22.578733,22.782726,54,110,0
22.6829,22.886892,48,110,0
22.787067,22.991058,52,110,0
22.891233,23.095226,47,110,0
22.9954,23.202244,50,110,0
23.099566,23.309387,45,110,0
23.206709,23.421127,50,110,0
23.313852,23.533068,48,110,0
23.537731,23.756948,43,110,0
23.649672,23.868889,47,110,0
23.761612,23.98083,50,110,0
23.873552,23.98083,48,90,0
23.985493,24.189486,47,70,0
24.193827,24.39782,43,70,0
24.402159,24.814486,50,70,0
24.818825,25.022818,55,70,0
25.027159,25.231152,59,70,0
25.23549,25.647818,62,70,0
25.652157,25.85615,47,70,0
25.86049,26.064484,43,70,0
26.068823,26.48115,50,70,0
26.485489,26.689482,55,70,0
26.693823,26.897814,59,70,0
26.902155,27.31448,62,70,0
27.31882,27.522814,64,70,0
27.422987,27.62698,67,70,0
27.527155,27.731146,62,70,0
27.63132,27.835314,66,70,0
27.735487,27.93948,60,70,0
27.839653,28.043646,64,70,0
27.94382,28.147812,59,70,0
28.047987,28.25198,62,70,0
28.152153,28.356146,57,70,0
28.256319,28.460312,60,70,0
28.360485,28.564478,62,70,0
28.464653,28.668646,60,70,0
28.568819,28.772812,59,70,0
28.672985,28.876978,57,70,0
28.777151,28.981144,55,70,0
28.881319,29.085312,53,70,0
28.985485,29.189478,52,110,0
29.089651,29.293644,55,110,0
29.193817,29.39781,50,110,0
29.297985,29.501978,54,110,0
29.402151,29.606144,48,110,0
29.506317,29.71031,52,110,0
29.610483,29.814476,47,110,0
29.714651,29.921495,50,110,0
29.818817,30.028639,45,110,0
29.92596,30.140379,50,100,0
30.033102,30.25232,48,90,0
30.145042,30.25232,45,80,0
30.256983,30.4762,43,70,0
31.105862,31.934855,43,70,0
31.105862,31.934855,31,70,0
31.939194,32.768185,43,70,0
31.939194,32.768185,31,70,0
32.772526,33.601517,31,70,0
32.772526,33.601517,43,70,0
33.605858,34.43485,43,70,0
33.605858,34.43485,31,70,0
34.43919,35.26818,31,70,0
34.43919,35.26818,43,70,0
35.272522,36.101513,43,70,0
35.272522,36.101513,31,70,0
36.105854,36.934845,31,70,0
36.105854,36.934845,43,70,0
36.939186,37.351513,31,70,0
36.939186,37.351513,43,70,0
37.355854,37.455677,54,70,0
37.46002,37.559845,55,70,0
37.564186,37.664013,57,70,0
37.66835,37.768177,59,70,0
37.77252,37.872345,60,70,0
37.876686,37.976513,59,70,0
37.98085,38.080677,57,70,0
38.08502,38.184845,55,70,0
38.189186,38.28901,54,70,0
38.29335,38.393177,55,70,0
38.39752,38.497345,57,70,0
37.77252,38.60151,50,70,0
38.501682,38.60151,59,70,0
38.60585,38.705677,60,70,0
38.71002,38.809845,59,70,0
38.814182,38.91401,57,70,0
38.91835,39.018177,55,70,0
39.02252,39.12234,54,70,0
39.126682,39.22651,55,72,0
39.23085,39.330677,57,75,0
38.60585,39.43484,50,70,0
39.335014,39.43484,59,77,0
39.439182,39.541862,60,80,0
39.546326,39.649002,59,82,0
39.65347,39.756145,57,85,0
39.439182,39.86329,50,80,0
39.760612,39.86329,55,88,0
39.867752,39.973454,54,90,0
39.867752,40.083744,50,90,0
39.978046,40.083744,55,93,0
40.08834,40.198917,54,95,0
40.08834,40.314304,50,95,0
40.203728,40.314304,55,98,0
40.31911,40.77584,50,100,0
40.31911,40.77584,54,100,0
41.197315,41.401306,47,70,0
41.197315,41.401306,50,70,0
41.30148,41.505474,43,70,0
41.405647,41.609642,47,70,0
41.405647,41.609642,50,70,0
41.509815,41.713806,43,70,0
41.61398,41.817974,47,70,0
41.61398,41.817974,50,70,0
41.718147,41.92214,43,70,0
41.822315,42.026306,48,70,0
41.822315,42.026306,50,70,0
41.92648,42.026306,43,70,0
42.030647,42.23464,47,70,0
42.030647,42.23464,50,70,0
42.13481,42.338806,43,70,0
42.23898,42.442974,47,70,0
42.23898,42.442974,50,70,0
42.343147,42.54714,43,70,0
42.44731,42.651306,47,70,0
42.44731,42.651306,50,70,0
42.55148,42.75547,43,70,0
42.655647,42.85964,47,70,0
42.655647,42.85964,50,70,0
42.75981,42.85964,43,70,0
42.86398,43.06797,47,70,0
42.86398,43.06797,50,70,0
42.968143,43.17214,43,70,0
43.07231,43.276302,47,70,0
43.07231,43.276302,50,70,0
43.17648,43.38047,43,70,0
43.280643,43.48464,47,70,0
43.280643,43.48464,50,70,0
43.38481,43.588802,43,70,0
43.48898,43.69297,48,70,0
43.48898,43.69297,50,70,0
43.593143,43.69297,43,70,0
43.69731,43.901302,47,70,0
43.69731,43.901302,50,70,0
43.801476,44.00547,43,70,0
43.905643,44.109634,47,70,0
43.905643,44.109634,50,70,0
44.00981,44.213802,43,70,0
44.113976,44.31797,47,70,0
44.113976,44.31797,50,70,0
44.218143,44.422134,43,72,0
44.32231,44.526302,47,74,0
44.32231,44.526302,50,74,0
44.426476,44.526302,43,76,0
44.530643,44.734634,47,78,0
44.530643,44.734634,50,78,0
44.634808,44.838802,43,80,0
44.738976,44.942966,47,82,0
44.738976,44.942966,50,82,0
44.843143,45.047134,43,84,0
44.947308,45.151302,47,86,0
44.947308,45.151302,50,86,0
45.051476,45.255466,43,88,0
45.15564,45.359634,50,90,0
45.15564,45.359634,54,90,0
45.259808,45.359634,43,92,0
45.363976,45.567966,50,94,0
45.363976,45.567966,55,94,0
45.46814,45.672134,43,96,0
45.572308,45.7763,47,98,0
45.572308,45.7763,50,98,0
45.676476,45.880466,43,100,0
45.78064,45.984634,47,110,0
45.78064,45.984634,50,110,0
45.884808,46.0888,43,110,0
45.98897,46.192966,47,110,0
45.98897,46.192966,50,110,0
46.09314,46.192966,43,110,0
46.197308,46.4013,47,110,0
46.197308,46.4013,50,110,0
46.30147,46.505466,43,110,0
46.40564,46.60963,47,110,0
46.40564,46.60963,50,110,0
46.509808,46.716652,43,110,0
46.61397,46.823795,47,110,0
46.61397,46.823795,50,110,0
46.721115,46.935535,43,110,0
46.82826,47.047474,50,110,0
46.82826,47.047474,54,110,0
46.940197,47.047474,43,110,0
47.05214,47.271355,43,100,0
47.05214,47.271355,50,100,0
47.05214,47.271355,55,100,0
47.164078,47.383297,59,100,0
47.27602,47.495235,55,100,0
47.38796,47.599728,52,100,0
47.4999,47.70389,47,70,0
47.916565,48.12056,52,70,0
48.333233,48.537224,47,70,0
48.749897,48.95389,40,70,0
49.166565,49.370556,47,70,0
49.58323,49.787224,52,70,0
49.999897,50.203888,47,70,0
50.41656,50.620556,40,95,0
50.83323,51.03722,54,70,0
51.04156,51.245552,51,70,0
51.249893,51.453888,52,70,0
51.458225,51.66222,47,70,0
51.66656,51.870552,40,70,0
51.874893,52.078884,35,70,0
52.083225,52.28722,40,70,0
52.499893,52.703884,54,76,0
52.708225,52.912216,51,79,0
52.916557,53.120552,52,83,0
53.12489,53.328884,47,86,0
53.333225,53.537216,40,89,0
53.541557,53.74555,35,92,0
53.74989,53.953884,40,96,0
54.166557,54.57888,38,110,0
54.166557,54.57888,50,110,0
54.58322,55.007328,50,110,0
54.58322,55.007328,38,110,0
55.01179,55.44837,50,110,0
55.01179,55.44837,38,110,0
55.45297,55.66896,38,120,0
55.563263,55.779255,50,120,0
55.673557,55.88955,45,120,0
55.78385,55.999844,42,120,0
55.894146,56.110138,38,120,0
56.00444,56.220432,42,120,0
56.11473,56.330727,45,120,0
56.225025,56.330727,42,120,0
56.33532,56.55131,38,120,0
56.445614,56.661606,42,120,0
56.55591,56.7719,45,120,0
56.666203,56.7719,42,120,0
56.776497,56.99249,38,120,0
56.88679,57.102783,42,120,0
56.997086,57.213078,45,120,0
57.10738,57.213078,42,120,0
57.217674,57.433666,38,120,0
57.327965,57.54396,42,120,0
57.43826,57.65425,45,110,0
57.548553,57.65425,42,90,0
57.658848,57.87484,38,70,0
57.769142,57.985134,42,70,0
57.879436,58.09543,45,70,0
57.98973,58.09543,42,70,0
58.100025,58.316017,38,70,0
58.21032,58.42631,42,70,0
58.320614,58.536606,45,70,0
58.43091,58.536606,42,70,0
58.5412,58.757195,38,70,0
58.651493,58.867485,42,70,0
58.761787,58.97778,45,70,0
58.87208,58.97778,42,70,0
58.982376,59.418957,38,70,0
60.77577,61.60476,43,70,0
60.77577,61.60476,31,70,0
61.6091,62.43809,43,70,0
61.6091,62.43809,31,70,0
62.442432,63.271423,31,70,0
62.442432,63.271423,43,70,0
63.275764,64.10476,43,70,0
63.275764,64.10476,31,70,0
64.10909,64.93809,31,70,0
64.10909,64.93809,43,70,0
64.94243,65.77142,43,70,0
64.94243,65.77142,31,70,0
65.77576,66.60475,31,70,0
65.77576,66.60475,43,70,0
66.60909,67.021416,31,70,0
66.60909,67.021416,43,70,0
67.02576,67.12559,54,70,0
67.12993,67.22975,55,70,0
67.23409,67.333916,57,70,0
67.33826,67.43809,59,70,0
67.44242,67.54225,60,70,0
67.54659,67.646416,59,70,0
67.65076,67.75059,57,70,0
67.75492,67.85475,55,70,0
67.85909,67.958916,54,70,0
67.96326,68.06308,55,70,0
68.06742,68.16725,57,70,0
67.44242,68.271416,50,70,0
68.17159,68.271416,59,70,0
68.27576,68.37558,60,70,0
68.37992,68.47975,59,70,0
68.48409,68.583916,57,70,0
68.58826,68.68808,55,70,0
68.69242,68.79225,54,70,0
68.79659,68.896416,55,72,0
68.90076,69.00058,57,75,0
68.27576,69.10475,50,70,0
69.00492,69.10475,59,77,0
69.109085,69.21177,60,80,0
69.21623,69.31891,59,82,0
69.32337,69.426056,57,85,0
69.109085,69.533195,50,80,0
69.43052,69.533195,55,88,0
69.53766,69.64336,54,90,0
69.53766,69.753654,50,90,0
69.64796,69.753654,55,93,0
69.75825,69.86883,54,95,0
69.75825,69.98421,50,95,0
69.873634,69.98421,55,98,0
69.98901,70.44575,50,100,0
69.98901,70.44575,54,100,0
70.86722,71.07121,47,70,0
70.86722,71.07121,50,70,0
70.97139,71.17538,43,70,0
71.075554,71.27955,47,70,0
71.075554,71.27955,50,70,0
71.17972,71.38371,43,70,0
71.28389,71.48788,47,70,0
71.28389,71.48788,50,70,0
71.388054,71.59205,43,70,0
71.49222,71.69621,48,70,0
71.49222,71.69621,50,70,0
71.59639,71.69621,43,70,0
71.700554,71.90455,47,70,0
71.700554,71.90455,50,70,0
71.80472,72.00871,43,70,0
71.90888,72.11288,47,70,0
71.90888,72.11288,50,70,0
72.013054,72.21704,43,70,0
72.11722,72.32121,47,70,0
72.11722,72.32121,50,70,0
72.22138,72.42538,43,70,0
72.325554,72.52954,47,70,0
72.325554,72.52954,50,70,0
72.42972,72.52954,43,70,0
72.53388,72.73788,47,70,0
72.53388,72.73788,50,70,0
72.638054,72.84204,43,70,0
72.74222,72.94621,47,70,0
72.74222,72.94621,50,70,0
72.84638,73.05038,43,70,0
72.950554,73.15454,47,70,0
72.950554,73.15454,50,70,0
73.05472,73.25871,43,70,0
73.15888,73.36288,48,70,0
73.15888,73.36288,50,70,0
73.26305,73.36288,43,70,0
73.36722,73.57121,47,70,0
73.36722,73.57121,50,70,0
73.47138,73.67538,43,70,0
73.57555,73.77954,47,70,0
73.57555,73.77954,50,70,0
73.67972,73.883705,43,70,0
73.78388,73.98788,47,70,0
73.78388,73.98788,50,70,0
73.88805,74.09204,43,72,0
73.99222,74.196205,47,74,0
73.99222,74.196205,50,74,0
74.09638,74.196205,43,76,0
74.20055,74.40454,47,78,0
74.20055,74.40454,50,78,0
74.30472,74.508705,43,80,0
74.40888,74.61288,47,82,0
74.40888,74.61288,50,82,0
74.51305,74.71704,43,84,0
74.61722,74.821205,47,86,0
74.61722,74.821205,50,86,0
74.72138,74.92538,43,88,0
74.82555,75.02954,50,90,0
74.82555,75.02954,54,90,0
74.92971,75.02954,43,92,0
75.03388,75.23788,50,94,0
75.03388,75.23788,55,94,0
75.13805,75.34204,43,96,0
75.24221,75.446205,47,98,0
75.24221,75.446205,50,98,0
75.34638,75.55037,43,100,0
75.45055,75.65454,47,110,0
75.45055,75.65454,50,110,0
75.55471,75.758705,43,110,0
75.65888,75.86287,47,110,0
75.65888,75.86287,50,110,0
75.76305,75.86287,43,110,0
75.86721,76.071205,47,110,0
75.86721,76.071205,50,110,0
75.97138,76.17537,43,110,0
76.07555,76.27954,47,110,0
76.07555,76.27954,50,110,0
76.17971,76.38656,43,110,0
76.28388,76.4937,47,110,0
76.28388,76.4937,50,110,0
76.39102,76.60706,43,110,0
76.49816,76.7207,50,110,0
76.49816,76.7207,54,110,0
76.6118,76.7207,43,110,0
76.72543,77.17525,43,110,0
76.72543,77.17525,50,110,0
76.72543,77.17525,55,110,0
76.952705,77.17525,45,70,0
77.066345,77.27981,47,70,0
77.179985,77.27981,48,70,0
77.28415,77.38397,47,70,0
77.38831,77.488144,45,70,0
77.49248,77.59231,43,70,0
77.59665,77.69647,42,70,0
77.70081,77.800644,43,70,0
77.80498,77.90481,45,70,0
77.90915,78.00897,47,70,0
78.01331,78.11314,48,70,0
78.11748,78.21731,47,70,0
78.22165,78.32147,45,70,0
78.32581,78.42564,43,70,0
78.42998,78.52981,42,70,0
78.53415,78.63397,43,70,0
78.63831,78.73814,45,70,0
78.74248,78.84231,47,70,0
78.84665,78.94647,48,70,0
78.95081,79.05064,47,70,0
79.05498,79.15481,45,70,0
79.15914,79.25897,43,70,0
79.26331,79.36314,42,70,0
79.36748,79.4673,43,70,0
79.47164,79.57147,45,70,0
79.57581,79.67564,47,70,0
79.67998,79.7798,48,70,0
79.78414,79.88397,47,70,0
79.88831,79.98814,48,70,0
79.99248,80.0923,47,70,0
80.09664,80.50897,48,70,0
80.51331,80.61314,50,70,0
80.61748,80.7173,48,70,0
80.72164,80.82147,47,70,0
80.825806,80.92564,45,70,0
80.92998,81.0298,44,70,0
81.03414,81.133965,45,70,0
81.138306,81.23814,47,70,0
81.24248,81.3423,48,70,0
81.34664,81.446465,50,70,0
81.450806,81.55064,49,70,0
81.55498,81.6548,50,70,0
81.65914,81.758965,49,70,0
81.763306,82.17564,50,70,0
82.17997,82.2798,53,70,0
82.28414,82.383965,52,70,0
82.388306,82.48814,50,70,0
82.49247,82.5923,48,70,0
82.59664,82.696465,47,70,0
82.700806,82.80063,48,70,0
82.80497,82.9048,50,70,0
82.90914,83.008965,52,70,0
83.013306,83.11313,53,70,0
83.11747,83.2173,52,70,0
83.22164,83.321465,50,70,0
83.325806,83.42563,48,70,0
83.42997,83.5298,47,70,0
83.53414,83.633965,48,70,0
83.638306,83.73813,50,70,0
83.74247,83.8423,52,70,0
83.846634,83.946465,53,70,0
83.950806,84.05063,52,70,0
84.05497,84.1548,50,70,0
84.159134,84.258965,48,70,0
84.263306,84.36313,47,70,0
84.36747,84.46729,48,70,0
84.471634,84.571465,50,70,0
84.575806,84.67563,52,70,0
84.67997,84.77979,53,70,0
84.784134,84.883965,52,70,0
84.888306,84.98813,50,70,0
84.99247,85.09229,48,70,0
85.096634,85.196465,47,70,0
85.200806,85.30063,48,70,0
85.30497,85.40479,47,70,0
85.409134,85.508965,45,70,0
85.5133,85.61313,43,110,0
85.61747,85.71729,41,110,0
85.721634,85.821465,40,110,0
85.8258,85.92563,38,110,0
85.92997,86.13396,36,110,0
85.92997,86.13396,48,110,0
86.034134,86.23813,43,110,0
86.1383,86.34229,36,110,0
86.1383,86.34229,48,110,0
86.24247,86.44646,43,110,0
86.346634,86.55063,36,110,0
86.346634,86.55063,48,110,0
86.4508,86.65479,43,110,0
86.55497,86.75896,36,110,0
86.55497,86.75896,48,110,0
86.659134,86.86313,43,110,0
86.7633,86.96729,36,110,0
86.7633,86.96729,48,110,0
86.86747,87.07146,43,110,0
86.971634,87.17563,36,110,0
86.971634,87.17563,48,110,0
87.0758,87.27979,43,110,0
87.17996,87.38396,36,110,0
87.17996,87.38396,48,110,0
87.284134,87.48812,43,110,0
87.3883,87.59229,36,110,0
87.3883,87.59229,48,110,0
87.49246,87.69646,43,110,0
87.596634,87.80062,36,110,0
87.596634,87.80062,48,110,0
87.7008,87.90479,43,110,0
87.80496,88.00896,36,110,0
87.80496,88.00896,48,110,0
87.909134,88.11312,43,110,0
88.0133,88.21729,36,110,0
88.0133,88.21729,48,110,0
88.11746,88.32146,43,110,0
88.221634,88.42562,36,110,0
88.221634,88.42562,48,110,0
88.3258,88.52979,43,110,0
88.42996,88.63396,36,110,0
88.42996,88.63396,48,110,0
88.53413,88.73812,43,110,0
88.6383,88.84229,36,110,0
88.6383,88.84229,48,110,0
88.74246,88.94646,43,110,0
88.84663,88.94646,43,110,0
88.9508,89.154785,48,110,0
89.05496,89.25896,52,110,0
89.15913,89.36312,55,110,0
89.2633,89.467285,54,110,0
89.36746,89.57146,55,110,0
89.47163,89.67562,57,110,0
89.5758,89.779785,55,110,0
89.67996,89.88396,52,110,0
89.78413,89.98812,55,110,0
89.8883,90.092285,53,110,0
89.99246,90.092285,50,110,0
90.09663,90.30062,48,110,0
90.20079,90.404785,52,110,0
90.30496,90.50896,43,110,0
90.40913,90.61312,52,110,0
90.51329,90.717285,43,110,0
90.61746,90.82145,48,110,0
90.72163,90.92562,52,110,0
90.82579,91.029785,55,110,0
90.92996,91.13395,54,110,0
91.03413,91.23812,55,110,0
91.13829,91.342285,57,110,0
91.24246,91.44645,55,110,0
91.34663,91.55062,52,110,0
91.45079,91.654785,55,110,0
91.55496,91.75895,53,110,0
91.65913,91.75895,50,110,0
91.76329,91.967285,48,110,0
92.179955,92.38395,43,100,0
92.38829,92.592285,43,100,0
92.59663,92.80061,43,100,0
92.804955,93.00895,43,100,0
93.01329,93.217285,45,100,0
93.22163,93.42561,47,100,0
93.429955,93.84228,48,100,0
93.84662,94.05061,40,100,0
94.054955,94.25895,40,100,0
94.26329,94.46728,40,100,0
94.47162,94.67561,40,100,0
94.679955,94.88395,42,100,0
94.88828,95.09228,43,100,0
95.09662,95.50894,45,100,0
95.51328,95.71728,48,100,0
95.617455,95.82144,52,100,0
95.72162,95.92561,57,100,0
95.82578,95.92561,60,100,0
95.929955,96.13394,59,100,0
96.03412,96.23811,60,100,0
96.13828,96.34228,62,100,0
96.242455,96.44644,60,100,0
96.34662,96.55061,57,100,0
96.45078,96.65478,60,100,0
96.55495,96.75894,59,100,0
96.65912,96.75894,52,100,0
96.76328,96.96728,57,100,0
96.86745,97.07144,52,100,0
96.97162,97.175606,48,100,0
97.07578,97.27978,45,100,0
97.17995,97.38394,47,100,0
97.28412,97.488106,50,100,0
97.38828,97.59228,55,100,0
97.49245,97.59228,59,100,0
97.59662,97.800606,58,100,0
97.70078,97.90478,59,100,0
97.80495,98.00894,60,100,0
97.90912,98.113106,59,100,0
98.01328,98.21728,55,100,0
98.11745,98.32144,59,100,0
98.22161,98.425606,57,100,0
98.32578,98.425606,47,100,0
98.42995,98.63394,55,100,0
98.53411,98.738106,50,100,0
98.63828,98.84227,47,100,0
98.74245,98.94644,43,100,0
98.84661,99.050606,53,100,0
99.05495,99.25894,49,100,0
99.26328,99.46727,54,100,0
99.47161,99.675606,42,100,0
99.67995,99.88394,51,100,0
99.888275,100.09227,47,100,0
100.09661,100.300606,52,100,0
100.30495,100.508934,40,100,0
100.513275,100.71727,45,100,0
100.72161,100.821434,47,100,0
100.825775,100.925606,49,100,0
100.92995,101.133934,50,100,0
101.138275,101.34227,38,100,0
101.34661,101.550606,43,100,0
101.55494,101.65477,45,100,0
101.65911,101.758934,47,100,0
101.763275,101.96727,48,100,0
101.97161,102.1756,36,100,0
102.17994,102.383934,42,100,0
102.388275,102.4881,44,100,0
102.49244,102.59227,46,100,0
102.59661,102.80643,47,100,0
102.81089,103.02071,35,100,0
103.02518,103.24117,41,100,0
103.245766,103.471725,41,100,0
103.47653,103.7025,42,100,0
103.707306,103.9113,54,70,0
103.915634,104.11963,54,70,0
104.12397,104.327965,54,70,0
104.332306,104.53629,54,70,0
104.540634,104.74463,54,70,0
104.74897,104.952965,54,70,0
104.957306,105.16129,54,70,0
105.165634,105.36963,42,100,0
105.37397,105.577965,54,70,0
105.5823,105.78629,54,70,0
105.790634,105.99463,54,70,0
105.99897,106.20296,54,70,0
106.2073,106.41129,54,70,0
106.415634,106.61963,54,70,0
106.62397,106.82796,54,70,0
106.8323,107.03629,42,70,0
107.040634,107.24463,47,100,0
107.24896,107.45296,42,70,0
107.4573,107.66129,47,100,0
107.665634,107.86962,42,70,0
107.87396,108.07796,47,100,0
108.0823,108.29212,42,70,0
108.296585,108.5158,47,100,0
108.52046,108.73968,42,100,0
108.74435,108.95416,54,70,0
108.958626,109.16845,54,69,0
109.17291,109.38274,54,67,0
109.3872,109.59702,54,66,0
109.60149,109.81131,54,64,0
109.81577,110.02559,54,63,0
110.03006,110.239876,54,61,0
110.24434,110.45416,54,50,0
110.458626,110.66845,54,50,0
110.67291,110.88274,54,50,0
110.8872,111.09702,54,50,0
111.10149,111.3113,54,50,0
111.31577,111.52559,54,50,0
111.53005,111.739876,54,70,0
111.74434,111.95416,54,70,0
111.958626,112.597015,59,70,0
111.958626,112.8113,47,70,0
111.958626,112.8113,54,70,0
112.60149,112.8113,58,70,0
112.815765,113.45416,59,70,0
112.815765,113.66845,47,70,0
113.458626,113.66845,58,70,0
113.67291,114.3113,59,70,0
113.67291,114.52559,47,70,0
113.67291,114.52559,54,70,0
114.315765,114.52559,58,70,0
114.53005,114.739876,47,70,0
114.53005,114.739876,54,70,0
114.53005,114.739876,59,70,0
114.74434,114.95416,47,60,0
114.958626,115.16844,47,60,0
115.17291,115.38273,47,60,0
115.38719,115.597015,47,60,0
115.60148,115.8113,47,60,0
115.815765,116.02559,47,60,0
116.03005,116.239876,47,60,0
116.24434,116.454155,50,60,0
116.458626,116.66844,50,67,0
116.672905,116.88273,50,75,0
116.88719,117.097015,50,83,0
117.10148,117.3113,50,90,0
117.315765,117.52559,50,89,0
117.53005,117.73987,50,87,0
117.74433,117.954155,50,85,0
117.95862,118.16844,50,84,0
118.172905,118.38273,50,82,0
118.38719,118.597015,50,80,0
118.60148,118.811295,50,78,0
118.815765,119.02558,50,77,0
119.030045,119.23987,50,70,0
119.24433,119.454155,50,70,0
119.45862,119.66844,50,70,0
119.672905,119.88273,43,70,0
119.672905,119.88273,50,70,0
119.88719,120.09701,43,70,0
119.88719,120.09701,50,70,0
120.10148,120.311295,43,70,0
120.10148,120.311295,52,70,0
120.31576,120.52558,43,70,0
120.31576,120.52558,54,70,0
120.530045,120.73987,43,70,0
120.530045,120.73987,55,70,0
120.74433,120.954155,43,70,0
120.74433,120.954155,50,70,0
120.95862,121.16844,43,70,0
120.95862,121.16844,50,70,0
121.172905,121.38272,43,70,0
121.172905,121.38272,50,70,0
121.38719,121.59701,43,70,0
121.38719,121.59701,50,70,0
121.60147,121.811295,43,70,0
121.60147,121.811295,50,70,0
121.81576,122.02558,43,70,0
121.81576,122.02558,52,70,0
122.030045,122.23987,43,70,0
122.030045,122.23987,54,70,0
122.24433,122.454155,43,70,0
122.24433,122.454155,55,70,0
122.45862,122.668434,43,70,0
122.45862,122.668434,55,70,0
122.672905,122.88272,31,70,0
122.780045,122.98987,43,70,0
122.887184,123.09701,31,70,0
122.99433,123.20415,43,70,0
123.10147,123.311295,31,70,0
123.20862,123.418434,43,70,0
123.31576,123.52558,31,70,0
123.4229,123.63272,43,70,0
123.530045,123.73987,31,70,0
123.637184,123.84701,43,70,0
123.74433,123.95415,31,70,0
123.85147,124.061295,43,70,0
123.95862,124.168434,31,70,0
124.06576,124.27558,43,70,0
124.1729,124.38272,31,70,0
124.280045,124.48986,43,70,0
124.387184,124.59701,31,70,0
124.49433,124.70415,43,70,0
124.60147,124.811295,31,70,0
124.70861,124.918434,43,70,0
124.81576,125.02558,31,70,0
124.9229,125.13272,43,70,0
125.030045,125.23986,31,70,0
125.137184,125.34701,43,70,0
125.24432,125.45415,31,70,0
125.35147,125.561295,43,70,0
125.45861,125.668434,31,70,0
125.56576,125.77557,43,70,0
125.6729,125.88272,31,70,0
125.780045,125.98986,43,70,0
125.887184,126.09701,31,70,0
125.99432,126.20415,43,70,0
126.10147,126.20415,54,70,0
126.20861,126.31129,55,70,0
126.31576,126.418434,57,70,0
126.4229,126.52557,59,70,0
126.53004,126.63272,60,70,0
126.637184,126.73986,59,70,0
126.74432,126.84701,57,70,0
126.85147,126.95415,55,70,0
126.95861,127.06129,54,70,0
127.06576,127.168434,55,70,0
127.1729,127.27557,57,70,0
126.53004,127.38272,50,70,0
127.28004,127.38272,59,70,0
127.387184,127.48986,60,70,0
127.49432,127.597,59,70,0
127.60147,127.70415,57,70,0
127.70861,127.81129,55,70,0
127.81575,127.918434,54,70,0
127.9229,128.02557,55,72,0
128.03004,128.13272,57,75,0
127.387184,128.23985,50,70,0
128.13718,128.23985,59,77,0
128.24432,128.35002,60,80,0
128.35461,128.46031,59,82,0
128.46492,128.57062,57,85,0
128.24432,128.68091,50,80,0
128.57521,128.68091,55,88,0
128.6855,128.79608,54,90,0
128.6855,128.91147,50,90,0
128.80089,128.91147,55,93,0
128.91628,129.0322,54,95,0
128.91628,129.15317,50,95,0
129.03723,129.15317,55,98,0
129.1582,129.63704,50,100,0
129.1582,129.63704,54,100,0
130.05875,130.26273,47,70,0
130.05875,130.26273,50,70,0
130.1629,130.3669,43,70,0
130.26707,130.47107,47,70,0
130.26707,130.47107,50,70,0
130.37125,130.57523,43,70,0
130.4754,130.6794,47,70,0
130.4754,130.6794,50,70,0
130.57957,130.78357,43,70,0
130.68375,130.88773,48,70,0
130.68375,130.88773,50,70,0
130.7879,130.88773,43,70,0
130.89207,131.09607,47,70,0
130.89207,131.09607,50,70,0
130.99625,131.20023,43,70,0
131.1004,131.3044,47,70,0
131.1004,131.3044,50,70,0
131.20457,131.40857,43,70,0
131.30873,131.51273,47,70,0
131.30873,131.51273,50,70,0
131.4129,131.6169,43,70,0
131.51707,131.72107,47,70,0
131.51707,131.72107,50,70,0
131.62123,131.72107,43,70,0
131.7254,131.9294,47,70,0
131.7254,131.9294,50,70,0
131.82957,132.03357,43,70,0
131.93373,132.13773,47,70,0
131.93373,132.13773,50,70,0
132.0379,132.2419,43,70,0
132.14207,132.34607,47,70,0
132.14207,132.34607,50,70,0
132.24623,132.45023,43,70,0
132.3504,132.5544,48,70,0
132.3504,132.5544,50,70,0
132.45457,132.5544,43,70,0
132.55873,132.76273,47,70,0
132.55873,132.76273,50,70,0
132.6629,132.8669,43,70,0
132.76707,132.97107,47,70,0
132.76707,132.97107,50,70,0
132.87123,133.07523,43,70,0
132.9754,133.1794,47,70,0
132.9754,133.1794,50,70,0
133.07957,133.28357,43,72,0
133.18373,133.38773,47,74,0
133.18373,133.38773,50,74,0
133.2879,133.38773,43,76,0
133.39207,133.59605,47,78,0
133.39207,133.59605,50,78,0
133.49623,133.70023,43,80,0
133.6004,133.8044,47,82,0
133.6004,133.8044,50,82,0
133.70457,133.90855,43,84,0
133.80873,134.01273,47,86,0
133.80873,134.01273,50,86,0
133.9129,134.1169,43,88,0
134.01707,134.22105,50,90,0
134.01707,134.22105,54,90,0
134.12123,134.22105,43,92,0
134.2254,134.4294,50,94,0
134.2254,134.4294,55,94,0
134.32957,134.53355,43,96,0
134.43373,134.63773,47,98,0
134.43373,134.63773,50,98,0
134.5379,134.7419,43,100,0
134.64206,134.84605,47,110,0
134.64206,134.84605,50,110,0
134.74623,134.95023,43,110,0
134.8504,135.0544,47,110,0
134.8504,135.0544,50,110,0
134.95456,135.0544,43,110,0
135.05873,135.26273,47,110,0
135.05873,135.26273,50,110,0
135.1629,135.3669,43,110,0
135.26706,135.47105,47,110,0
135.26706,135.47105,50,110,0
135.37123,135.57523,43,110,0
135.4754,135.6794,47,110,0
135.4754,135.6794,50,110,0
135.57956,135.78355,43,110,0
135.68373,135.88773,50,110,0
135.68373,135.88773,54,110,0
135.7879,135.88773,43,110,0
135.89206,136.3044,43,110,0
135.89206,136.3044,50,110,0
135.89206,136.3044,55,110,0
136.30873,136.40855,67,84,0
136.4129,136.51273,71,85,0
136.51706,136.61688,69,87,0
136.62123,136.72105,66,88,0
136.7254,136.82523,64,90,0
136.82956,136.92938,67,91,0
136.93373,137.03355,66,93,0
137.0379,137.13773,62,94,0
137.14206,137.24188,60,96,0
137.24623,137.34605,64,97,0
137.3504,137.45023,62,99,0
137.45456,137.55438,59,100,0
137.55873,137.65855,60,110,0
137.66289,137.76273,59,110,0
137.76706,137.86688,57,110,0
137.87123,137.97105,55,110,0
137.97539,138.07523,54,110,0
138.07956,138.17938,52,110,0
138.18373,138.28355,50,110,0
138.28789,138.38773,48,110,0
138.39206,138.49474,47,110,0
138.4992,138.60188,43,110,0
138.60634,138.70903,48,110,0
138.71349,138.81616,45,110,0
138.82063,138.92633,50,110,0
138.93092,139.03662,49,110,0
139.04121,139.1518,50,110,0
139.1566,139.26718,38,110,0
139.27199,139.37181,43,80,0
139.37616,139.47598,59,81,0
139.48032,139.58015,57,82,0
139.58449,139.68431,54,84,0
139.68866,139.78848,52,85,0
139.79282,139.89265,55,86,0
139.89699,139.99681,54,88,0
140.00116,140.10098,50,89,0
140.10532,140.20514,48,91,0
140.20949,140.30931,52,92,0
140.31366,140.41348,50,93,0
140.41782,140.51764,47,95,0
140.52199,140.62181,45,96,0
140.62616,140.72598,48,98,0
140.73032,140.83014,47,99,0
140.83449,140.93431,44,100,0
140.93866,141.03848,45,110,0
141.04282,141.14264,47,110,0
141.14699,141.24681,48,110,0
141.25114,141.35098,47,110,0
141.35532,141.45514,45,110,0
141.45949,141.55931,43,110,0
141.56364,141.66348,42,110,0
141.66782,141.76764,40,110,0
141.77199,142.28848,38,110,0
142.29282,142.39264,40,110,0
142.39699,142.49681,42,110,0
142.50114,142.60098,43,110,0
142.60532,142.70514,45,110,0
142.70949,142.80931,47,110,0
142.81364,142.91348,48,110,0
142.91782,143.01764,47,110,0
143.02199,143.12181,45,110,0
143.12614,143.22598,43,110,0
143.23032,143.33014,42,110,0
143.33449,143.43431,40,110,0
143.43864,143.95514,38,110,0
143.95949,144.05931,40,110,0
144.06364,144.16347,42,110,0
144.16782,144.26764,43,110,0
144.27199,144.37181,45,110,0
144.37614,144.47597,47,110,0
144.48032,144.58014,48,110,0
144.58447,144.68431,47,110,0
144.68864,144.78847,45,110,0
144.79282,144.89264,43,110,0
144.89697,144.99681,42,110,0
145.00114,145.10097,40,110,0
145.10532,145.20514,38,125,0
145.20947,145.30931,40,100,0
145.31364,145.41347,42,100,0
145.41782,145.51764,43,100,0
145.52197,145.62181,45,100,0
145.62614,145.72597,43,100,0
145.73032,145.83014,42,100,0
145.83447,145.93431,40,100,0
145.93864,146.04132,38,125,0
146.04579,146.14847,40,100,0
146.15292,146.25562,42,100,0
146.26007,146.36275,43,100,0
146.36722,146.47292,45,100,0
146.47751,146.5832,43,100,0
146.5878,146.6935,42,100,0
146.6981,146.8038,40,100,0
146.8084,146.9173,38,125,0
146.92203,147.03093,40,100,0
147.03566,147.14456,38,100,0
147.1493,147.25821,40,100,0
147.26294,147.37703,38,100,0
147.38199,147.49608,40,100,0
147.50104,147.62082,38,100,0
147.62604,147.74582,40,100,0
147.75104,147.99582,38,110,0
148.25104,152.24582,50,110,0
148.25104,152.24582,57,110,0
152.75104,152.97699,39,50,0
153.20569,153.41855,39,50,0
153.64046,153.85333,39,50,0
154.07524,154.2881,39,50,0
154.51003,154.72289,39,50,0
154.94481,155.15767,39,50,0
155.3796,155.59245,39,50,0
155.81438,156.02724,39,50,0
156.24916,156.46202,39,60,0
156.46655,156.67941,51,60,0
156.46655,156.67941,56,60,0
156.46655,156.67941,58,60,0
156.68393,156.8968,51,60,0
156.68393,156.8968,56,60,0
156.68393,156.8968,58,60,0
156.90132,157.1142,51,60,0
156.90132,157.1142,56,60,0
156.90132,157.1142,58,60,0
157.11871,157.33157,39,60,0
157.3361,157.54897,51,60,0
157.3361,157.54897,55,60,0
157.3361,157.54897,58,60,0
157.5535,157.76636,51,60,0
157.5535,157.76636,55,60,0
157.5535,157.76636,58,60,0
157.77089,157.98375,51,60,0
157.77089,157.98375,55,60,0
157.77089,157.98375,58,60,0
157.98828,158.20114,39,60,0
158.20567,158.41853,51,60,0
158.20567,158.41853,56,60,0
158.20567,158.41853,58,60,0
158.42307,158.63593,51,60,0
158.42307,158.63593,56,60,0
158.42307,158.63593,58,60,0
158.64046,158.85332,51,60,0
158.64046,158.85332,56,60,0
158.64046,158.85332,58,60,0
158.85785,159.07071,39,60,0
159.07524,159.2881,51,60,0
159.07524,159.2881,55,60,0
159.07524,159.2881,58,60,0
159.29263,159.5055,51,60,0
159.29263,159.5055,55,60,0
159.29263,159.5055,58,60,0
159.51003,159.72289,51,60,0
159.51003,159.72289,55,60,0
159.51003,159.72289,58,60,0
159.72742,159.94028,39,60,0
159.94481,160.15767,51,60,0
159.94481,160.15767,56,60,0
159.94481,160.15767,58,60,0
160.16219,160.37506,51,60,0
160.16219,160.37506,56,60,0
160.16219,160.37506,58,60,0
160.37958,160.59245,51,60,0
160.37958,160.59245,56,60,0
160.37958,160.59245,58,60,0
160.59697,160.80983,39,60,0
160.81436,161.02722,51,60,0
160.81436,161.02722,55,60,0
160.81436,161.02722,58,60,0
161.03175,161.24461,51,60,0
161.03175,161.24461,55,60,0
161.03175,161.24461,58,60,0
161.24915,161.462,51,60,0
161.24915,161.462,55,60,0
161.24915,161.462,58,60,0
161.46654,161.6794,39,60,0
161.68393,161.89679,51,60,0
161.68393,161.89679,56,60,0
161.68393,161.89679,58,60,0
161.90132,162.11418,51,60,0
161.90132,162.11418,56,60,0
161.90132,162.11418,58,60,0
162.11871,162.33157,51,60,0
162.11871,162.33157,56,60,0
162.11871,162.33157,58,60,0
162.3361,162.54897,51,60,0
162.3361,162.54897,55,60,0
162.3361,162.54897,58,60,0
162.77089,162.98071,46,60,0
162.98517,163.19499,46,60,0
163.19946,163.40927,46,60,0
163.41374,163.62357,46,60,0
163.62802,163.83784,48,60,0
163.84232,164.05214,50,60,0
164.0566,164.4807,51,60,0
164.48517,164.69499,43,60,0
164.69945,164.90927,43,60,0
164.91374,165.12357,43,60,0
165.12802,165.33784,43,60,0
165.34232,165.55214,45,60,0
165.5566,165.76642,47,60,0
165.77089,166.19499,48,60,0
166.19945,166.40927,50,60,0
166.19945,166.40927,48,60,0
166.41374,166.62357,48,60,0
166.41374,166.62357,50,60,0
166.62802,166.83784,50,60,0
166.62802,166.83784,48,60,0
166.84232,167.05212,48,60,0
166.84232,167.05212,50,60,0
167.0566,167.26642,46,60,0
167.0566,167.26642,50,60,0
167.27087,167.4807,45,60,0
167.27087,167.4807,50,60,0
167.48517,167.90927,43,60,0
167.48517,167.90927,50,60,0
167.48517,167.90927,55,60,0
167.91374,168.12357,51,60,0
167.91374,168.12357,55,60,0
168.12802,168.33784,51,60,0
168.12802,168.33784,55,60,0
168.3423,168.76642,50,60,0
168.3423,168.76642,55,60,0
168.77087,168.98688,50,60,0
168.77087,168.98688,57,60,0
168.99147,169.21742,50,60,0
168.99147,169.21742,57,60,0
169.22223,169.66283,43,60,0
169.22223,169.66283,55,60,0
169.6673,169.8771,60,60,0
169.6673,169.8771,62,60,0
169.88158,170.0914,60,60,0
169.88158,170.0914,62,60,0
170.09586,170.30568,60,60,0
170.09586,170.30568,62,60,0
170.31015,170.51997,60,60,0
170.31015,170.51997,62,60,0
170.52443,170.73425,59,60,0
170.52443,170.73425,62,60,0
170.73872,170.94853,57,60,0
170.73872,170.94853,62,60,0
170.953,171.3771,55,60,0
170.953,171.3771,62,60,0
171.38158,171.5914,52,60,0
171.38158,171.5914,55,60,0
171.38158,171.5914,57,60,0
171.59586,171.80568,52,65,0
171.59586,171.80568,55,65,0
171.59586,171.80568,57,65,0
171.81015,172.23425,50,70,0
171.81015,172.23425,55,70,0
171.81015,172.23425,59,70,0
172.23872,172.44853,50,81,0
172.23872,172.44853,57,81,0
172.453,172.66283,50,87,0
172.453,172.66283,57,87,0
172.66728,173.0914,43,92,0
172.66728,173.0914,55,92,0
173.09586,173.30568,52,110,0
173.09586,173.30568,55,110,0
173.09586,173.30568,57,110,0
173.31015,173.51996,52,110,0
173.31015,173.51996,57,110,0
173.31015,173.51996,55,110,0
173.52443,173.73425,50,110,0
173.52443,173.73425,55,110,0
173.52443,173.73425,59,110,0
173.73871,173.94853,50,110,0
173.73871,173.94853,55,110,0
173.73871,173.94853,59,110,0
173.953,174.16899,38,110,0
173.953,174.16899,50,110,0
174.17358,174.39955,38,110,0
174.17358,174.39955,50,110,0
174.40436,174.63033,43,70,0
174.40436,174.63033,47,70,0
174.40436,174.63033,50,70,0
174.40436,174.63033,55,70,0
174.84941,175.05923,43,70,0
174.84941,175.05923,47,70,0
174.84941,175.05923,50,70,0
174.84941,175.05923,55,70,0
175.27798,175.48781,43,70,0
175.27798,175.48781,48,70,0
175.27798,175.48781,50,70,0
175.27798,175.48781,54,70,0
175.70656,175.91638,43,70,0
175.70656,175.91638,48,70,0
175.70656,175.91638,50,70,0
175.70656,175.91638,54,70,0
176.13513,176.34494,43,70,0
176.13513,176.34494,47,70,0
176.13513,176.34494,50,70,0
176.13513,176.34494,55,70,0
176.56369,176.77351,43,70,0
176.56369,176.77351,47,70,0
176.56369,176.77351,50,70,0
176.56369,176.77351,55,70,0
176.99226,177.20209,43,70,0
176.99226,177.20209,48,70,0
176.99226,177.20209,50,70,0
176.99226,177.20209,54,70,0
177.42084,177.63066,43,70,0
177.42084,177.63066,48,70,0
177.42084,177.63066,50,70,0
177.42084,177.63066,54,70,0
177.84941,178.05923,43,70,0
177.84941,178.05923,47,70,0
177.84941,178.05923,50,70,0
177.84941,178.05923,55,70,0
178.27798,178.48781,43,70,0
178.27798,178.48781,47,70,0
178.27798,178.48781,50,70,0
178.27798,178.48781,55,70,0
178.70656,178.91637,43,70,0
178.70656,178.91637,48,70,0
178.70656,178.91637,50,70,0
178.70656,178.91637,54,70,0
179.13512,179.34494,43,70,0
179.13512,179.34494,48,70,0
179.13512,179.34494,50,70,0
179.13512,179.34494,54,70,0
179.56369,179.77351,43,70,0
179.56369,179.77351,47,70,0
179.56369,179.77351,50,70,0
179.56369,179.77351,55,70,0
179.99226,180.20209,43,70,0
179.99226,180.20209,47,70,0
179.99226,180.20209,50,70,0
179.99226,180.20209,55,70,0
180.42084,180.63066,43,70,0
180.42084,180.63066,48,70,0
180.42084,180.63066,50,70,0
180.42084,180.63066,54,70,0
180.84941,181.05923,43,70,0
180.84941,181.05923,48,70,0
180.84941,181.05923,50,70,0
180.84941,181.05923,54,70,0
181.27798,181.4878,43,70,0
181.27798,181.4878,47,70,0
181.27798,181.4878,50,70,0
181.27798,181.4878,55,70,0
181.49226,181.70209,31,70,0
181.92084,182.13066,31,70,0
182.34941,182.55922,31,70,0
182.77797,182.9878,31,70,0
183.20654,183.41637,31,70,0
183.63512,183.84494,31,70,0
184.06369,184.27351,31,70,0
184.49226,184.70209,31,70,0
184.92084,185.13065,31,70,0
185.3494,185.55922,31,70,0
185.77797,185.9878,31,70,0
186.20654,186.41637,31,70,0
186.6321,186.83896,31,70,0
187.05463,187.2615,31,70,0
187.47423,187.67822,31,70,0
187.8909,188.0949,31,70,0
188.30757,188.51155,31,75,0
188.72423,188.92822,31,85,0
189.14685,189.35667,31,95,0
189.58173,189.80768,31,105,0
189.81248,190.03845,31,110,0
190.27403,190.54602,38,120,0
190.27403,190.54602,50,120,0
190.82959,191.24046,43,120,0
190.82959,191.24046,55,120,0
