start_time,end_time,note_value,velocity,instrument_program_number
0.09375,0.27734375,44,80,0
0.1875,0.37109375,49,80,0
0.28125,0.46484375,52,80,0
0.375,0.55859375,56,80,0
0.46875,0.65234375,49,80,0
0.5625,0.74609375,52,80,0
0.65625,0.83984375,56,80,0
0.75,0.93359375,61,80,0
0.84375,1.0273438,52,80,0
0.9375,1.1210938,56,80,0
1.03125,1.2148438,61,80,0
1.125,1.3085938,64,80,0
1.21875,1.4023438,56,80,0
1.3125,1.4960938,61,80,0
1.40625,1.5898438,64,80,0
1.5,1.6835938,68,80,0
1.59375,1.7773438,61,80,0
1.6875,1.8710938,64,80,0
1.78125,1.9648438,68,80,0
1.875,2.0585938,73,80,0
1.96875,2.1523438,64,80,0
2.0625,2.2460938,68,80,0
2.15625,2.3398438,73,80,0
2.25,2.4335938,76,80,0
2.34375,2.5273438,68,80,0
2.4375,2.6210938,73,80,0
2.53125,2.6210938,76,80,0
2.625,2.8085938,68,110,0
2.625,2.8085938,73,110,0
2.625,2.8085938,76,110,0
2.625,2.8085938,80,110,0
2.8125,2.9960938,80,100,0
2.8125,2.9960938,76,100,0
2.8125,2.9960938,73,100,0
2.8125,2.9960938,68,100,0
3.09375,3.2773438,44,80,0
3.1875,3.3710938,48,80,0
3.28125,3.4648438,51,80,0
3.375,3.5585938,56,80,0
3.46875,3.6523438,48,80,0
3.5625,3.7460938,51,80,0
3.65625,3.8398438,56,80,0
3.75,3.9335938,60,80,0
3.84375,4.0273438,51,80,0
3.9375,4.1210938,56,80,0
4.03125,4.2148438,60,80,0
4.125,4.3085938,63,80,0
4.21875,4.4023438,56,80,0
4.3125,4.4960938,60,80,0
4.40625,4.5898438,63,80,0
4.5,4.6835938,68,80,0
4.59375,4.7773438,60,80,0
4.6875,4.8710938,63,80,0
4.78125,4.9648438,68,80,0
4.875,5.0585938,72,80,0
4.96875,5.1523438,63,80,0
5.0625,5.2460938,68,80,0
5.15625,5.3398438,72,80,0
5.25,5.4335938,75,80,0
5.34375,5.5273438,68,80,0
5.4375,5.6210938,72,80,0
5.53125,5.6210938,75,80,0
5.625,5.8085938,68,110,0
5.625,5.8085938,72,110,0
5.625,5.8085938,75,110,0
5.625,5.8085938,80,110,0
5.8125,5.9960938,68,100,0
5.8125,5.9960938,72,100,0
5.8125,5.9960938,75,100,0
5.8125,5.9960938,80,100,0
6.09375,6.2773438,49,80,0
6.1875,6.3710938,53,80,0
6.28125,6.4648438,56,80,0
6.375,6.5585938,61,80,0
6.46875,6.6523438,53,80,0
6.5625,6.7460938,56,80,0
6.65625,6.8398438,61,80,0
6.75,6.9335938,65,80,0
6.84375,7.0273438,56,80,0
6.9375,7.1210938,61,80,0
7.03125,7.2148438,65,80,0
7.125,7.3085938,68,80,0
7.21875,7.4023438,61,80,0
7.3125,7.4960938,65,80,0
7.40625,7.5898438,68,80,0
7.5,7.6835938,73,80,0
7.59375,7.7773438,65,80,0
7.6875,7.8710938,68,80,0
7.78125,7.9648438,73,80,0
7.875,8.058594,77,80,0
7.96875,8.152344,68,80,0
8.0625,8.246094,73,80,0
8.15625,8.339844,77,80,0
8.25,8.433594,80,80,0
8.34375,8.527344,73,80,0
8.4375,8.621094,77,80,0
8.53125,8.621094,80,80,0
8.625,8.808594,73,110,0
8.625,8.808594,77,110,0
8.625,8.808594,80,110,0
8.625,8.808594,85,110,0
8.8125,8.996094,85,100,0
8.8125,8.996094,80,100,0
8.8125,8.996094,77,100,0
8.8125,8.996094,73,100,0
9.09375,9.277344,49,90,0
9.1875,9.371094,54,90,0
9.28125,9.464844,57,90,0
9.375,9.464844,61,90,0
9.46875,9.652344,61,90,0
9.5625,9.746094,66,90,0
9.65625,9.839844,69,90,0
9.75,9.839844,73,90,0
9.84375,10.027344,73,90,0
9.9375,10.121094,78,90,0
10.03125,10.214844,81,90,0
10.125,10.308594,85,110,0
10.125,10.308594,73,110,0
10.125,10.308594,78,110,0
10.3125,10.496094,78,100,0
10.3125,10.496094,85,100,0
10.3125,10.496094,73,100,0
10.59375,10.777344,49,90,0
10.6875,10.871094,52,90,0
10.78125,10.964844,55,90,0
10.875,10.964844,61,90,0
10.96875,11.152344,61,90,0
11.0625,11.246094,64,90,0
11.15625,11.339844,67,90,0
11.25,11.339844,73,90,0
11.34375,11.527344,73,90,0
11.4375,11.621094,76,90,0
11.53125,11.621094,79,90,0
11.625,11.808594,73,110,0
11.625,11.808594,85,110,0
11.625,11.808594,79,110,0
11.8125,11.996094,73,100,0
11.8125,11.996094,85,100,0
11.8125,11.996094,79,100,0
12.0,12.183594,72,110,0
12.0,12.183594,84,110,0
12.0,12.183594,80,110,0
12.1875,12.371094,68,110,0
12.28125,12.464844,80,110,0
12.375,12.558594,68,110,0
12.46875,12.652344,80,110,0
12.5625,12.746094,70,110,0
12.65625,12.839844,80,110,0
12.75,12.933594,72,110,0
12.84375,13.027344,80,110,0
12.9375,13.121094,73,110,0
13.03125,13.214844,80,110,0
13.125,13.308594,75,110,0
13.21875,13.402344,80,110,0
13.3125,13.496094,72,110,0
13.40625,13.589844,80,110,0
13.5,13.683594,75,110,0
13.59375,13.777344,80,110,0
13.6875,13.871094,73,110,0
13.78125,13.964844,80,110,0
13.875,14.058594,78,110,0
13.96875,14.152344,80,110,0
14.0625,14.246094,76,110,0
14.15625,14.339844,80,110,0
14.25,14.433594,75,110,0
14.34375,14.527344,80,110,0
14.4375,14.621094,73,110,0
14.53125,14.714844,80,110,0
14.625,14.808594,72,110,0
14.71875,14.902344,80,110,0
14.8125,14.996094,69,110,0
14.90625,14.996094,79,110,0
15.0,15.183594,68,110,0
15.09375,15.277344,80,110,0
15.1875,15.371094,68,110,0
15.28125,15.464844,80,110,0
15.375,15.558594,68,110,0
15.46875,15.652344,80,110,0
15.5625,15.746094,70,110,0
15.65625,15.839844,80,110,0
15.75,15.933594,72,110,0
15.84375,16.027344,80,110,0
15.9375,16.121094,73,110,0
16.03125,16.214844,80,110,0
16.125,16.308594,75,110,0
16.21875,16.402344,80,110,0
16.3125,16.496094,72,110,0
16.40625,16.589844,80,110,0
16.5,16.683594,75,110,0
16.59375,16.777344,80,110,0
16.6875,16.871094,73,110,0
16.78125,16.964844,80,110,0
16.875,17.058594,78,110,0
16.96875,17.152344,80,110,0
17.0625,17.246094,76,110,0
17.15625,17.339844,80,110,0
17.25,17.433594,75,110,0
17.34375,17.527344,80,110,0
17.4375,17.621094,73,110,0
17.53125,17.714844,80,110,0
17.625,17.808594,72,110,0
17.71875,17.902344,80,110,0
17.8125,17.996094,69,110,0
17.90625,17.996094,79,110,0
18.0,18.183594,68,110,0
18.09375,18.277344,80,110,0
18.1875,18.371094,69,110,0
18.28125,18.464844,79,110,0
18.375,18.558594,68,110,0
18.46875,18.652344,80,110,0
18.5625,18.746094,69,110,0
18.65625,18.842741,79,110,0
18.75,18.939516,68,110,0
18.846773,19.03629,80,110,0
18.943548,19.133064,69,110,0
19.040321,19.23293,79,110,0
19.137096,19.33293,68,110,0
19.237097,19.43293,80,110,0
19.337095,19.532928,69,110,0
19.437096,19.532928,79,110,0
19.537096,19.93293,68,110,0
19.537096,19.93293,80,110,0
19.937096,22.73293,56,110,0
22.830847,23.01444,44,80,0
22.924597,23.10819,49,80,0
23.018347,23.20194,52,80,0
23.112097,23.29569,56,80,0
23.205847,23.38944,49,80,0
23.299597,23.48319,52,80,0
23.393347,23.57694,56,80,0
23.487097,23.67069,61,80,0
23.580847,23.76444,52,80,0
23.674597,23.85819,56,80,0
23.768347,23.95194,61,80,0
23.862097,24.04569,64,80,0
23.955847,24.13944,56,80,0
24.049597,24.23319,61,80,0
24.143347,24.32694,64,80,0
24.237097,24.42069,68,80,0
24.330847,24.51444,61,80,0
24.424597,24.60819,64,80,0
24.518347,24.70194,68,80,0
24.612097,24.79569,73,80,0
24.705847,24.88944,64,80,0
24.799597,24.98319,68,80,0
24.893347,25.07694,73,80,0
24.987097,25.07694,76,80,0
25.080847,25.26444,76,80,0
25.174597,25.35819,80,80,0
25.268347,25.45194,85,80,0
25.362097,25.54569,88,110,0
25.362097,25.54569,76,110,0
25.549597,25.73319,76,100,0
25.549597,25.73319,88,100,0
25.830847,26.01444,52,80,0
25.924597,26.10819,55,80,0
26.018347,26.20194,61,80,0
26.112097,26.29569,64,80,0
26.205847,26.38944,55,80,0
26.299597,26.48319,61,80,0
26.393347,26.57694,64,80,0
26.487097,26.67069,67,80,0
26.580847,26.76444,61,80,0
26.674597,26.85819,64,80,0
26.768347,26.95194,67,80,0
26.862097,27.04569,73,80,0
26.955847,27.13944,64,80,0
27.049597,27.23319,67,80,0
27.143347,27.32694,73,80,0
27.237097,27.42069,76,80,0
27.330847,27.51444,67,80,0
27.424597,27.60819,73,80,0
27.518347,27.70194,76,80,0
27.612097,27.79569,79,80,0
27.705847,27.88944,73,80,0
27.799597,27.98319,76,80,0
27.893347,28.07694,79,80,0
27.987097,28.17069,85,80,0
28.080847,28.26444,76,80,0
28.174597,28.35819,79,80,0
28.268347,28.45194,85,80,0
28.362097,28.54569,88,110,0
28.362097,28.54569,76,110,0
28.549597,28.73319,88,100,0
28.549597,28.73319,76,100,0
28.830847,29.01444,51,90,0
28.924597,29.10819,58,91,0
29.018347,29.20194,61,91,0
29.112097,29.29569,63,92,0
29.205847,29.38944,58,93,0
29.299597,29.48319,61,93,0
29.393347,29.57694,63,94,0
29.487097,29.67069,70,95,0
29.580847,29.76444,61,95,0
29.674597,29.85819,63,96,0
29.768347,29.95194,70,97,0
29.862097,30.04569,73,97,0
29.955847,30.13944,63,98,0
30.049597,30.23319,70,99,0
30.143347,30.32694,73,99,0
30.237097,30.42069,75,100,0
30.330847,30.51444,70,100,0
30.424597,30.60819,73,101,0
30.518347,30.70194,75,102,0
30.612097,30.79569,82,102,0
30.705847,30.88944,73,103,0
30.799597,30.98319,75,104,0
30.893347,31.07694,82,104,0
30.987097,31.17069,85,105,0
31.080847,31.26444,82,106,0
31.174597,31.35819,75,106,0
31.268347,31.45793,73,107,0
31.362097,31.55793,82,108,0
31.462095,31.664774,75,108,0
31.562096,31.771917,73,109,0
31.669239,31.771917,70,109,0
31.776382,32.17426,71,90,0
32.178165,32.92426,75,90,0
32.928165,33.29926,71,90,0
33.209415,33.29926,68,90,0
33.303165,33.39301,67,90,0
33.35004,33.439884,68,90,0
33.396915,33.48676,70,90,0
33.44379,33.814884,68,90,0
33.678165,34.23676,67,90,0
34.240665,34.42426,67,90,0
34.428165,34.79926,75,90,0
34.709415,34.89301,67,90,0
34.803165,35.17426,70,90,0
35.178165,35.73676,68,90,0
35.740665,35.92426,68,90,0
35.928165,36.29926,75,90,0
36.209415,36.39301,68,90,0
36.303165,36.67426,71,90,0
36.678165,37.23676,70,90,0
37.240665,37.42426,70,90,0
37.428165,37.83799,75,90,0
37.73531,37.94513,70,90,0
37.842453,38.052273,71,90,0
38.05674,38.45257,87,90,0
38.05674,38.45257,75,90,0
38.456738,38.85257,87,92,0
38.456738,38.85257,75,92,0
38.85674,39.05257,87,94,0
38.85674,39.05257,75,94,0
39.05674,39.25257,83,94,0
39.05674,39.25257,71,94,0
39.256737,39.45257,80,95,0
39.256737,39.45257,68,95,0
39.456738,39.646255,80,96,0
39.456738,39.646255,68,96,0
39.650288,40.033348,79,97,0
39.650288,40.033348,67,97,0
40.03738,40.420444,79,98,0
40.03738,40.420444,67,98,0
40.424477,40.60807,79,100,0
40.424477,40.60807,67,100,0
40.611977,40.79557,87,101,0
40.611977,40.79557,75,101,0
40.799477,40.98307,79,102,0
40.799477,40.98307,67,102,0
40.986977,41.17057,82,102,0
40.986977,41.17057,70,102,0
41.174477,41.54557,68,103,0
41.174477,41.54557,80,103,0
41.549477,41.92057,80,105,0
41.549477,41.92057,68,105,0
41.924477,42.10807,80,106,0
41.924477,42.10807,68,106,0
42.111977,42.29557,87,107,0
42.111977,42.29557,75,107,0
42.299477,42.48307,68,108,0
42.299477,42.48307,80,108,0
42.486977,42.67057,83,109,0
42.486977,42.67057,71,109,0
42.674477,43.04557,70,110,0
42.674477,43.04557,82,110,0
43.049477,43.42057,82,111,0
43.049477,43.42057,70,111,0
43.424477,43.60807,82,113,0
43.424477,43.60807,70,113,0
43.611977,43.79557,87,114,0
43.611977,43.79557,75,114,0
43.799477,43.98307,82,114,0
43.799477,43.98307,70,114,0
43.986977,44.74504,84,110,0
43.986977,44.74504,72,110,0
44.749073,45.587467,85,110,0
44.749073,45.587467,73,110,0
45.59193,45.721096,83,110,0
45.658596,45.787766,82,110,0
45.725266,45.85443,83,110,0
45.79193,45.921097,82,110,0
45.59193,45.987762,70,110,0
45.858597,45.987762,80,110,0
45.925262,46.050526,82,110,0
45.991932,47.113026,71,120,0
45.991932,47.113026,83,121,0
47.116932,47.863026,68,110,0
47.116932,47.863026,80,110,0
47.866932,48.66385,81,110,0
47.866932,48.66385,69,110,0
48.668312,48.806705,80,110,0
48.739742,48.87813,79,110,0
48.81117,48.949562,80,110,0
48.8826,49.02099,79,110,0
48.668312,49.09242,67,110,0
48.954025,49.09242,77,110,0
49.025455,49.155476,79,110,0
49.09688,50.217976,68,120,0
49.09688,50.217976,80,121,0
50.22188,51.061726,76,120,0
51.06563,51.249226,76,80,0
50.22188,51.342976,69,120,0
50.22188,51.342976,73,120,0
50.22188,51.342976,81,120,0
51.15938,51.342976,78,80,0
51.25313,51.436726,80,80,0
51.34688,51.530476,81,80,0
51.44063,51.624226,83,80,0
51.53438,51.717976,85,80,0
51.62813,51.811726,83,80,0
51.72188,51.905476,81,80,0
51.81563,51.999226,76,80,0
51.90938,52.092976,78,80,0
52.00313,52.186726,80,80,0
52.09688,52.280476,81,80,0
52.19063,52.374226,83,80,0
52.28438,52.467976,85,80,0
52.37813,52.561726,83,80,0
52.47188,52.655476,81,80,0
52.56563,52.749226,76,80,0
52.65938,52.842976,78,80,0
52.75313,52.936726,80,80,0
52.84688,53.030476,81,80,0
52.94063,53.124226,83,80,0
53.03438,53.217976,85,80,0
53.12813,53.311726,83,80,0
53.22188,53.405476,81,80,0
53.31563,53.499226,76,81,0
53.40938,53.592976,78,82,0
53.50313,53.686726,80,83,0
53.59688,53.780476,81,84,0
53.69063,53.874226,83,86,0
53.78438,53.967976,85,87,0
53.87813,54.061726,86,88,0
53.97188,54.155476,88,89,0
54.06563,54.249226,87,91,0
54.15938,54.342976,88,92,0
54.25313,54.436726,87,93,0
54.34688,54.530476,88,94,0
54.44063,54.624226,85,96,0
54.53438,54.717976,83,97,0
54.62813,54.811726,81,98,0
54.72188,55.467976,80,80,0
55.47188,55.592976,83,80,0
55.53438,55.655476,82,80,0
55.59688,55.717976,83,80,0
55.65938,55.780476,82,80,0
55.72188,55.842976,83,80,0
55.78438,55.905476,82,80,0
55.84688,55.967976,83,80,0
55.90938,56.030476,82,80,0
55.97188,56.092976,83,80,0
56.03438,56.155476,82,80,0
56.09688,56.217976,80,80,0
56.15938,56.280476,82,80,0
56.22188,56.592976,80,80,0
56.59688,57.061726,64,120,0
57.06563,57.249226,64,80,0
56.59688,57.342976,57,120,0
56.59688,57.342976,61,120,0
56.59688,57.342976,69,120,0
57.15938,57.342976,66,80,0
57.25313,57.436726,68,80,0
57.34688,57.530476,69,80,0
57.44063,57.624226,71,80,0
57.53438,57.717976,73,80,0
57.62813,57.811726,71,80,0
57.72188,57.905476,69,80,0
57.81563,57.999226,64,80,0
57.90938,58.092976,66,80,0
58.00313,58.186726,68,80,0
58.09688,58.280476,69,80,0
58.19063,58.374226,71,80,0
58.28438,58.467976,73,80,0
58.37813,58.561726,71,80,0
58.47188,58.655476,69,80,0
58.56563,58.749226,64,80,0
58.65938,58.842976,66,80,0
58.75313,58.936726,68,80,0
58.84688,59.030476,69,80,0
58.94063,59.124226,71,80,0
59.03438,59.217976,73,80,0
59.12813,59.311726,71,80,0
59.22188,59.405476,69,80,0
59.31563,59.499226,64,80,0
59.40938,59.592976,66,81,0
59.50313,59.686726,68,82,0
59.59688,59.780476,69,83,0
59.69063,59.874226,71,84,0
59.78438,59.967976,73,85,0
59.87813,60.061726,71,86,0
59.97188,60.155476,69,87,0
60.06563,60.249226,64,88,0
60.15938,60.342976,66,89,0
60.25313,60.436726,68,90,0
60.34688,60.530476,69,91,0
60.44063,60.624226,71,92,0
60.53438,60.717976,73,93,0
60.62813,60.811726,71,94,0
60.72188,60.905476,69,94,0
60.81563,60.999226,64,95,0
60.90938,61.092976,66,96,0
61.00313,61.186726,68,97,0
61.09688,61.280476,69,98,0
61.19063,61.374226,71,99,0
61.28438,61.467976,73,100,0
61.37813,61.561726,75,101,0
61.47188,61.655476,76,102,0
61.56563,61.749226,78,103,0
61.65938,61.842976,80,104,0
61.75313,61.936726,81,105,0
61.84688,62.030476,83,106,0
61.94063,62.124226,85,107,0
62.03438,62.217976,86,108,0
62.12813,62.317715,87,109,0
62.22188,63.017715,88,110,0
62.22188,63.017715,76,110,0
63.02188,63.817715,80,110,0
63.02188,63.817715,68,110,0
63.821884,64.617714,83,110,0
63.821884,64.617714,71,110,0
64.62188,65.50719,55,110,0
64.62188,65.50719,61,110,0
64.62188,65.50719,67,110,0
65.51199,65.932274,56,110,0
65.51199,65.932274,59,110,0
65.51199,65.932274,68,110,0
65.74276,65.932274,63,80,0
65.74276,65.932274,71,80,0
65.93631,66.125824,63,80,0
65.93631,66.125824,71,80,0
66.12986,66.319374,63,80,0
66.12986,66.319374,71,80,0
66.3234,66.512924,63,80,0
66.3234,66.512924,71,80,0
66.51695,66.70647,63,80,0
66.51695,66.70647,71,80,0
66.7105,66.90002,63,80,0
66.7105,66.90002,70,80,0
66.90405,67.09357,63,80,0
66.90405,67.09357,68,80,0
67.097595,67.28711,63,80,0
67.097595,67.28711,67,80,0
67.291145,67.48066,67,80,0
67.291145,67.48066,75,80,0
67.484695,67.67421,67,80,0
67.484695,67.67421,75,80,0
67.67824,67.86776,67,80,0
67.67824,67.86776,75,80,0
67.87179,68.0613,67,80,0
67.87179,68.0613,75,80,0
68.06534,68.25485,67,80,0
68.06534,68.25485,75,80,0
68.25889,68.4484,68,80,0
68.25889,68.4484,75,80,0
68.45243,68.64195,70,80,0
68.45243,68.64195,75,80,0
68.64598,68.835495,71,80,0
68.64598,68.835495,75,80,0
68.83953,69.029045,63,80,0
68.83953,69.029045,71,80,0
69.03307,69.222595,63,80,0
69.03307,69.222595,71,80,0
69.22662,69.41614,63,80,0
69.22662,69.41614,71,80,0
69.42017,69.60969,63,80,0
69.42017,69.60969,71,80,0
69.61372,69.80324,63,80,0
69.61372,69.80324,71,80,0
69.80727,69.99679,63,80,0
69.80727,69.99679,70,80,0
70.00082,70.19033,63,80,0
70.00082,70.19033,68,80,0
70.19437,70.38388,63,80,0
70.19437,70.38388,67,80,0
70.38792,70.57743,67,80,0
70.38792,70.57743,75,80,0
70.58146,70.77097,67,80,0
70.58146,70.77097,75,80,0
70.77501,70.96452,67,80,0
70.77501,70.96452,75,80,0
70.96856,71.15807,67,80,0
70.96856,71.15807,75,80,0
71.1621,71.35162,67,80,0
71.1621,71.35162,75,80,0
71.35565,71.545166,68,80,0
71.35565,71.545166,75,80,0
71.5492,71.738716,70,80,0
71.5492,71.738716,75,80,0
71.74275,71.93227,71,80,0
71.74275,71.93227,75,80,0
71.936295,72.12582,71,80,0
71.936295,72.12582,75,80,0
72.129845,72.31936,71,80,0
72.129845,72.31936,75,80,0
72.323395,72.51291,68,80,0
72.323395,72.51291,71,80,0
72.71049,72.9,73,80,0
72.71049,72.9,76,80,0
72.90404,73.09355,73,80,0
72.90404,73.09355,76,80,0
73.09759,73.2871,68,80,0
73.09759,73.2871,73,80,0
73.48468,73.674194,71,80,0
73.48468,73.674194,75,80,0
73.67823,73.867744,71,80,0
73.67823,73.867744,75,80,0
73.87178,74.061295,68,80,0
73.87178,74.061295,71,80,0
74.25887,74.44839,70,80,0
74.25887,74.44839,75,80,0
74.45242,74.64194,70,80,0
74.45242,74.64194,75,80,0
74.645966,74.83549,67,80,0
74.645966,74.83549,70,80,0
74.839516,75.02903,68,80,0
74.839516,75.02903,71,80,0
75.033066,75.22258,71,80,0
75.033066,75.22258,75,80,0
75.033066,75.22258,83,80,0
75.226616,75.41613,71,82,0
75.226616,75.41613,75,82,0
75.226616,75.41613,83,82,0
75.42016,75.60968,71,85,0
75.42016,75.60968,75,85,0
75.42016,75.60968,83,85,0
75.61371,75.80322,71,88,0
75.61371,75.80322,75,88,0
75.61371,75.80322,83,88,0
75.80726,75.99677,71,91,0
75.80726,75.99677,75,91,0
75.80726,75.99677,83,91,0
76.00081,76.19032,70,94,0
76.00081,76.19032,73,94,0
76.00081,76.19032,82,94,0
76.19435,76.383865,68,97,0
76.19435,76.383865,71,97,0
76.19435,76.383865,80,97,0
76.3879,76.61386,67,99,0
76.3879,76.61386,70,99,0
76.3879,76.61386,79,99,0
76.61867,76.80819,76,110,0
76.61867,76.80819,88,110,0
76.61867,76.80819,79,110,0
76.81222,77.00173,76,110,0
76.81222,77.00173,88,110,0
76.81222,77.00173,79,110,0
77.00577,77.19528,76,110,0
77.00577,77.19528,88,110,0
77.00577,77.19528,79,110,0
77.19931,77.38883,76,110,0
77.19931,77.38883,88,110,0
77.19931,77.38883,79,110,0
77.39286,77.582375,76,110,0
77.39286,77.582375,88,110,0
77.39286,77.582375,79,110,0
77.58641,77.775925,75,110,0
77.58641,77.775925,87,110,0
77.58641,77.775925,79,110,0
77.77996,77.969475,73,110,0
77.77996,77.969475,85,110,0
77.77996,77.969475,79,110,0
77.9735,78.163025,71,110,0
77.9735,78.163025,80,110,0
77.9735,78.163025,83,110,0
78.16705,78.35657,71,80,0
78.16705,78.35657,75,80,0
78.16705,78.35657,83,80,0
78.3606,78.55012,71,82,0
78.3606,78.55012,75,82,0
78.3606,78.55012,83,82,0
78.55415,78.74367,71,85,0
78.55415,78.74367,75,85,0
78.55415,78.74367,83,85,0
78.747696,78.93721,71,88,0
78.747696,78.93721,75,88,0
78.747696,78.93721,83,88,0
78.941246,79.13076,71,91,0
78.941246,79.13076,75,91,0
78.941246,79.13076,83,91,0
79.134796,79.32431,70,94,0
79.134796,79.32431,73,94,0
79.134796,79.32431,82,94,0
79.32834,79.51786,68,97,0
79.32834,79.51786,71,97,0
79.32834,79.51786,80,97,0
79.52189,79.74785,67,99,0
79.52189,79.74785,70,99,0
79.52189,79.74785,79,99,0
79.75266,79.94218,76,110,0
79.75266,79.94218,88,110,0
79.75266,79.94218,79,110,0
79.946205,80.13572,76,110,0
79.946205,80.13572,88,110,0
79.946205,80.13572,79,110,0
80.139755,80.32927,76,110,0
80.139755,80.32927,88,110,0
80.139755,80.32927,79,110,0
80.333305,80.52282,76,110,0
80.333305,80.52282,88,110,0
80.333305,80.52282,79,110,0
80.52685,80.71637,76,110,0
80.52685,80.71637,88,110,0
80.52685,80.71637,79,110,0
80.7204,80.90991,75,110,0
80.7204,80.90991,87,110,0
80.7204,80.90991,79,110,0
80.91395,81.10346,73,110,0
80.91395,81.10346,85,110,0
80.91395,81.10346,79,110,0
81.1075,81.29701,71,110,0
81.1075,81.29701,80,110,0
81.1075,81.29701,83,110,0
81.30104,81.49056,80,80,0
81.30104,81.49056,83,80,0
81.49459,81.684105,80,80,0
81.49459,81.684105,83,80,0
81.68814,81.877655,87,80,0
81.68814,81.877655,83,80,0
82.07523,82.26475,85,80,0
82.07523,82.26475,80,80,0
82.26878,82.4583,85,80,0
82.26878,82.4583,80,80,0
82.46233,82.65185,88,80,0
82.46233,82.65185,85,80,0
82.84819,83.03649,83,80,0
82.84819,83.03649,80,80,0
83.0405,83.2288,83,80,0
83.0405,83.2288,80,80,0
83.2328,83.421104,87,80,0
83.2328,83.421104,83,80,0
83.61742,83.80572,82,80,0
83.61742,83.80572,79,80,0
83.80972,83.998024,82,80,0
83.80972,83.998024,79,80,0
84.00203,84.19033,87,80,0
84.00203,84.19033,82,80,0
84.38542,84.572525,75,82,0
84.38542,84.572525,83,82,0
84.57651,84.7636,75,85,0
84.57651,84.7636,83,85,0
84.767586,84.95469,80,88,0
84.767586,84.95469,87,88,0
85.14975,85.33685,73,94,0
85.14975,85.33685,81,94,0
85.340836,85.52794,73,97,0
85.340836,85.52794,81,97,0
85.53191,85.71902,76,99,0
85.53191,85.71902,85,99,0
85.91287,86.09879,71,100,0
85.91287,86.09879,80,100,0
86.102745,86.288666,71,100,0
86.102745,86.288666,80,100,0
86.29262,86.47854,75,100,0
86.29262,86.47854,83,100,0
86.67236,86.868195,70,87,0
86.67236,86.868195,79,87,0
86.87236,87.082184,70,84,0
86.87236,87.082184,79,84,0
87.08665,87.312614,73,81,0
87.08665,87.312614,82,81,0
87.31742,87.7153,80,80,0
87.31742,87.7153,71,80,0
88.46921,88.8403,71,80,0
88.75046,88.93405,68,80,0
88.84421,89.2153,67,80,0
89.21921,89.5903,75,80,0
89.21921,89.5903,67,80,0
89.21921,89.5903,61,80,0
89.59421,89.9653,61,80,0
89.59421,89.9653,67,80,0
89.59421,89.9653,75,80,0
89.96921,90.3403,61,80,0
89.96921,90.3403,67,80,0
89.96921,90.3403,75,80,0
90.34421,90.7153,59,80,0
90.37546,90.7153,68,80,0
90.40671,91.4653,75,80,0
91.46921,91.8403,83,80,0
91.75046,91.93405,80,80,0
91.84421,92.2153,79,80,0
92.21921,92.5903,87,80,0
92.21921,92.5903,73,80,0
92.21921,92.5903,79,80,0
92.59421,92.9653,87,80,0
92.59421,92.9653,73,80,0
92.59421,92.9653,79,80,0
92.96921,93.3403,87,80,0
92.96921,93.3403,73,80,0
92.96921,93.3403,79,80,0
93.34421,93.7153,71,80,0
93.37546,93.7153,80,80,0
93.40671,94.0903,87,80,0
94.09421,94.4653,73,80,0
94.12546,94.4653,79,80,0
94.15671,94.8403,87,80,0
94.84421,95.2153,71,80,0
94.87546,95.2153,80,80,0
94.90671,95.5903,87,80,0
95.59421,95.9653,73,80,0
95.62546,95.9653,79,80,0
95.65671,96.3403,87,80,0
96.34421,96.5278,59,80,0
96.43796,96.62155,68,80,0
96.53171,96.7153,63,81,0
96.62546,96.80905,68,82,0
96.71921,96.9028,59,83,0
96.81296,96.99655,68,84,0
96.90671,97.0903,63,85,0
97.00046,97.18405,68,86,0
97.09421,97.2778,59,87,0
97.18796,97.37155,68,88,0
97.28171,97.4653,63,89,0
97.37546,97.55905,68,90,0
97.46921,97.6528,59,91,0
97.56296,97.74655,68,92,0
97.65671,97.8403,63,93,0
97.75046,97.93405,68,94,0
97.84421,98.0278,60,94,0
97.93796,98.12155,66,95,0
98.03171,98.2153,63,96,0
98.12546,98.30905,66,97,0
98.21921,98.4028,60,98,0
98.31296,98.49655,66,99,0
98.40671,98.5903,63,100,0
98.50046,98.68405,66,101,0
98.59421,98.7778,60,102,0
98.68796,98.87155,66,103,0
98.78171,98.9653,63,104,0
98.87546,99.05905,66,105,0
98.96921,99.1528,60,106,0
99.06296,99.24655,66,107,0
99.15671,99.3403,63,108,0
99.25046,99.43405,66,109,0
99.34421,99.62155,52,100,0
99.43796,99.62155,44,80,0
99.34421,99.7153,56,100,0
99.34421,99.7153,61,100,0
99.34421,99.7153,64,100,0
99.53171,99.7153,49,80,0
99.62546,99.80905,52,80,0
99.71921,99.9028,56,80,0
99.81296,99.99655,49,80,0
99.90671,100.0903,52,80,0
100.00046,100.18405,56,80,0
100.09421,100.2778,61,80,0
100.18796,100.37155,52,80,0
100.28171,100.4653,56,80,0
100.37546,100.55905,61,80,0
100.46921,100.6528,64,80,0
100.56296,100.74655,56,80,0
100.65671,100.8403,61,80,0
100.75046,100.93405,64,80,0
100.84421,101.0278,68,80,0
100.93796,101.12155,61,80,0
101.03171,101.2153,64,80,0
101.12546,101.30905,68,80,0
101.21921,101.4028,73,80,0
101.31296,101.49655,64,80,0
101.40671,101.5903,68,80,0
101.50046,101.68405,73,80,0
101.59421,101.7778,76,80,0
101.68796,101.87155,68,80,0
101.78171,101.9653,73,80,0
101.87546,101.9653,76,80,0
101.96921,102.1528,68,110,0
101.96921,102.1528,73,110,0
101.96921,102.1528,76,110,0
101.96921,102.1528,80,110,0
102.15671,102.3403,80,110,0
102.15671,102.3403,76,110,0
102.15671,102.3403,73,110,0
102.15671,102.3403,68,110,0
102.43796,102.62155,44,80,0
102.53171,102.7153,48,80,0
102.62546,102.80905,51,80,0
102.71921,102.9028,56,80,0
102.81296,102.99655,48,80,0
102.90671,103.0903,51,80,0
103.00046,103.18405,56,80,0
103.09421,103.2778,60,80,0
103.18796,103.37155,51,80,0
103.28171,103.4653,56,80,0
103.37546,103.55905,60,80,0
103.46921,103.6528,63,80,0
103.56296,103.74655,56,80,0
103.65671,103.8403,60,80,0
103.75046,103.93405,63,80,0
103.84421,104.0278,68,80,0
103.93796,104.12155,60,80,0
104.03171,104.2153,63,80,0
104.12546,104.30905,68,80,0
104.21921,104.4028,72,80,0
104.31296,104.49655,63,80,0
104.40671,104.5903,68,80,0
104.50046,104.68405,72,80,0
104.59421,104.7778,75,80,0
104.68796,104.87155,68,80,0
104.78171,104.9653,72,80,0
104.87546,104.9653,75,80,0
104.96921,105.1528,68,110,0
104.96921,105.1528,72,110,0
104.96921,105.1528,75,110,0
104.96921,105.1528,80,110,0
105.15671,105.3403,68,110,0
105.15671,105.3403,72,110,0
105.15671,105.3403,75,110,0
105.15671,105.3403,80,110,0
105.43796,105.62155,49,80,0
105.53171,105.7153,53,80,0
105.62546,105.80905,56,80,0
105.71921,105.9028,61,80,0
105.81296,105.99655,53,80,0
105.90671,106.0903,56,80,0
106.00046,106.18405,61,80,0
106.09421,106.2778,65,80,0
106.18796,106.37155,56,80,0
106.28171,106.4653,61,80,0
106.37546,106.55905,65,80,0
106.46921,106.6528,68,80,0
106.56296,106.74655,61,80,0
106.65671,106.8403,65,80,0
106.75046,106.93405,68,80,0
106.84421,107.0278,73,80,0
106.93796,107.12155,65,80,0
107.03171,107.2153,68,80,0
107.12546,107.30905,73,80,0
107.21921,107.4028,77,80,0
107.31296,107.49655,68,80,0
107.40671,107.5903,73,80,0
107.50046,107.68405,77,80,0
107.59421,107.7778,80,80,0
107.68796,107.87155,73,80,0
107.78171,107.9653,77,80,0
107.87546,107.9653,80,80,0
107.96921,108.1528,73,110,0
107.96921,108.1528,77,110,0
107.96921,108.1528,80,110,0
107.96921,108.1528,85,110,0
108.15671,108.3403,85,110,0
108.15671,108.3403,80,110,0
108.15671,108.3403,77,110,0
108.15671,108.3403,73,110,0
108.43796,108.62155,49,90,0
108.53171,108.7153,54,90,0
108.62546,108.80905,57,90,0
108.71921,108.80905,61,90,0
108.81296,108.99655,61,90,0
108.90671,109.0903,66,90,0
109.00046,109.18405,69,90,0
109.09421,109.18405,73,90,0
109.18796,109.37155,73,90,0
109.28171,109.4653,78,90,0
109.37546,109.55905,81,90,0
109.46921,109.6528,85,110,0
109.46921,109.6528,73,110,0
109.46921,109.6528,78,110,0
109.65671,109.8403,78,110,0
109.65671,109.8403,85,110,0
109.65671,109.8403,73,110,0
109.93796,110.12155,49,90,0
110.03171,110.2153,52,90,0
110.12546,110.30905,55,90,0
110.21921,110.30905,61,90,0
110.31296,110.49655,61,90,0
110.40671,110.5903,64,90,0
110.50046,110.68405,67,90,0
110.59421,110.68405,73,90,0
110.68796,110.87155,73,90,0
110.78171,110.9653,76,90,0
110.87546,110.9653,79,90,0
110.96921,111.1528,73,110,0
110.96921,111.1528,85,110,0
110.96921,111.1528,79,110,0
111.15671,111.3403,73,110,0
111.15671,111.3403,85,110,0
111.15671,111.3403,79,110,0
111.34421,111.5278,72,110,0
111.34421,111.5278,84,110,0
111.34421,111.5278,80,110,0
111.53171,111.7153,68,110,0
111.62546,111.80905,80,110,0
111.71921,111.9028,68,110,0
111.81296,111.99655,80,110,0
111.90671,112.0903,70,110,0
112.00046,112.18405,80,110,0
112.09421,112.2778,72,110,0
112.18796,112.37155,80,110,0
112.28171,112.4653,73,110,0
112.37546,112.55905,80,110,0
112.46921,112.6528,75,110,0
112.56296,112.74655,80,110,0
112.65671,112.8403,72,110,0
112.75046,112.93405,80,110,0
112.84421,113.0278,75,110,0
112.93796,113.12155,80,110,0
113.03171,113.2153,73,110,0
113.12546,113.30905,80,110,0
113.21921,113.4028,78,110,0
113.31296,113.49655,80,110,0
113.40671,113.5903,76,110,0
113.50046,113.68405,80,110,0
113.59421,113.7778,75,110,0
113.68796,113.87155,80,110,0
113.78171,113.9653,73,110,0
113.87546,114.05905,80,110,0
113.96921,114.1528,72,110,0
114.06296,114.24655,80,110,0
114.15671,114.3403,69,110,0
114.25046,114.3403,79,110,0
114.34421,114.5278,68,110,0
114.43796,114.62155,80,110,0
114.53171,114.7153,68,110,0
114.62546,114.80905,80,110,0
114.71921,114.9028,68,110,0
114.81296,114.99655,80,110,0
114.90671,115.0903,70,110,0
115.00046,115.18405,80,110,0
115.09421,115.2778,72,110,0
115.18796,115.37155,80,110,0
115.28171,115.4653,73,110,0
115.37546,115.55905,80,110,0
115.46921,115.6528,75,110,0
115.56296,115.74655,80,110,0
115.65671,115.8403,72,110,0
115.75046,115.93405,80,110,0
115.84421,116.0278,75,110,0
115.93796,116.12155,80,110,0
116.03171,116.2153,73,110,0
116.12546,116.30905,80,110,0
116.21921,116.4028,78,110,0
116.31296,116.49655,80,110,0
116.40671,116.5903,76,110,0
116.50046,116.68405,80,110,0
116.59421,116.7778,75,110,0
116.68796,116.87155,80,110,0
116.78171,116.9653,73,110,0
116.87546,117.05905,80,110,0
116.96921,117.1528,72,110,0
117.06296,117.24655,80,110,0
117.15671,117.3403,69,110,0
117.25046,117.3403,79,110,0
117.34421,117.5278,68,110,0
117.43796,117.62155,80,110,0
117.53171,117.7153,69,110,0
117.62546,117.80905,79,110,0
117.71921,117.9028,68,110,0
117.81296,117.99655,80,110,0
117.90671,118.0903,69,110,0
118.00046,118.18694,79,110,0
118.09421,118.28372,68,110,0
118.19098,118.38049,80,110,0
118.28775,118.477264,69,110,0
118.38453,118.57713,79,110,0
118.4813,118.67713,68,110,0
118.5813,118.78398,80,110,0
118.6813,118.89112,69,110,0
118.788445,118.89112,79,110,0
118.895584,119.319695,68,110,0
118.895584,119.319695,80,110,0
119.32416,122.31969,56,110,0
122.4313,122.62828,44,80,0
122.53844,122.72203,49,80,0
122.63219,122.81578,52,80,0
122.72594,122.90953,56,80,0
122.81969,123.00328,49,80,0
122.91344,123.09703,52,80,0
123.00719,123.19078,56,80,0
123.10094,123.28453,61,80,0
123.19469,123.37828,52,80,0
123.28844,123.47203,56,80,0
123.38219,123.56578,61,80,0
123.47594,123.65953,64,80,0
123.56969,123.75328,56,80,0
123.66344,123.84703,61,80,0
123.75719,123.94078,64,80,0
123.85094,124.03453,68,80,0
123.94469,124.12828,61,80,0
124.03844,124.22203,64,80,0
124.13219,124.31578,68,80,0
124.22594,124.40953,73,80,0
124.31969,124.50328,64,80,0
124.41344,124.59703,68,80,0
124.50719,124.69078,73,80,0
124.60094,124.69078,76,80,0
124.69469,124.87828,76,80,0
124.78844,124.97203,80,80,0
124.88219,125.06578,85,80,0
124.97594,125.15953,88,110,0
124.97594,125.15953,76,110,0
125.16344,125.34703,76,100,0
125.16344,125.34703,88,100,0
125.44469,125.62828,52,80,0
125.53844,125.72203,55,80,0
125.63219,125.81578,61,80,0
125.72594,125.90953,64,80,0
125.81969,126.00328,55,80,0
125.91344,126.09703,61,80,0
126.00719,126.19078,64,80,0
126.10094,126.28453,67,80,0
126.19469,126.37828,61,80,0
126.28844,126.47203,64,80,0
126.38219,126.56578,67,80,0
126.47594,126.65953,73,80,0
126.56969,126.75328,64,80,0
126.66344,126.84703,67,80,0
126.75719,126.94078,73,80,0
126.85094,127.03453,76,80,0
126.94469,127.12828,67,80,0
127.03844,127.22203,73,80,0
127.13219,127.31578,76,80,0
127.22594,127.40953,79,80,0
127.31969,127.50328,73,80,0
127.41344,127.59703,76,80,0
127.50719,127.69078,79,80,0
127.60094,127.78453,85,80,0
127.69469,127.87828,76,80,0
127.78844,127.97203,79,80,0
127.88219,128.06578,85,80,0
127.97594,128.15953,88,110,0
127.97594,128.15953,76,110,0
128.16344,128.34703,88,100,0
128.16344,128.34703,76,100,0
128.44469,128.62828,51,90,0
128.53844,128.72203,58,91,0
128.63219,128.81578,61,91,0
128.72594,128.90953,63,92,0
128.81969,129.00328,58,93,0
128.91344,129.09703,61,93,0
129.00719,129.19078,63,94,0
129.10094,129.28453,70,95,0
129.19469,129.37828,61,95,0
129.28844,129.47203,63,96,0
129.38219,129.56578,70,97,0
129.47594,129.65953,73,97,0
129.56969,129.75328,63,98,0
129.66344,129.84703,70,99,0
129.75719,129.94078,73,99,0
129.85094,130.03453,75,100,0
129.94469,130.12828,70,100,0
130.03844,130.22203,73,101,0
130.13219,130.31578,75,102,0
130.22594,130.40953,82,102,0
130.31969,130.50328,73,103,0
130.41344,130.59703,75,104,0
130.50719,130.69368,82,104,0
130.60094,130.79045,85,105,0
130.69771,130.88722,82,106,0
130.7945,130.98401,75,106,0
130.89127,131.08386,73,107,0
130.98804,131.18387,82,108,0
131.08803,131.29071,75,108,0
131.18803,131.39786,73,109,0
131.29518,131.39786,70,109,0
131.40231,131.8002,71,90,0
131.80411,132.5502,75,90,0
132.55411,132.9252,71,90,0
132.83536,132.9252,68,90,0
132.92911,133.01895,67,90,0
132.97598,133.06583,68,90,0
133.02286,133.1127,70,90,0
133.06973,133.44083,68,90,0
133.30411,133.8627,67,90,0
133.86661,134.0502,67,90,0
134.05411,134.4252,75,90,0
134.33536,134.51895,67,90,0
134.42911,134.8002,70,90,0
134.80411,135.3627,68,90,0
135.36661,135.5502,68,90,0
135.55411,135.9252,75,90,0
135.83536,136.01895,68,90,0
135.92911,136.3002,71,90,0
136.30411,136.8627,70,90,0
136.86661,137.05612,70,90,0
137.06015,137.46997,75,90,0
137.3673,137.57712,70,90,0
137.47444,137.68427,71,90,0
137.68872,138.05981,87,90,0
137.68872,138.05981,75,90,0
138.06372,138.43481,87,92,0
138.06372,138.43481,75,92,0
138.43872,138.62231,87,94,0
138.43872,138.62231,75,94,0
138.62622,138.80981,83,94,0
138.62622,138.80981,71,94,0
138.81372,138.99731,80,95,0
138.81372,138.99731,68,95,0
139.00122,139.18481,80,96,0
139.00122,139.18481,68,96,0
139.18872,139.55981,79,97,0
139.18872,139.55981,67,97,0
139.56372,139.93481,79,98,0
139.56372,139.93481,67,98,0
139.93872,140.12231,79,100,0
139.93872,140.12231,67,100,0
140.12622,140.30981,87,101,0
140.12622,140.30981,75,101,0
140.31372,140.49731,79,102,0
140.31372,140.49731,67,102,0
140.50122,140.68481,82,102,0
140.50122,140.68481,70,102,0
140.68872,141.05981,68,103,0
140.68872,141.05981,80,103,0
141.06372,141.43481,80,105,0
141.06372,141.43481,68,105,0
141.43872,141.62231,80,106,0
141.43872,141.62231,68,106,0
141.62622,141.80981,87,107,0
141.62622,141.80981,75,107,0
141.81372,141.99731,68,108,0
141.81372,141.99731,80,108,0
142.00122,142.18481,83,109,0
142.00122,142.18481,71,109,0
142.18872,142.55981,70,110,0
142.18872,142.55981,82,110,0
142.56372,142.93481,82,111,0
142.56372,142.93481,70,111,0
142.93872,143.12231,82,113,0
142.93872,143.12231,70,113,0
143.12622,143.30981,87,114,0
143.12622,143.30981,75,114,0
143.31372,143.49731,82,114,0
143.31372,143.49731,70,114,0
143.50122,144.24731,84,110,0
143.50122,144.24731,72,110,0
144.25122,145.07533,85,110,0
144.25122,145.07533,73,110,0
145.0798,145.21819,83,110,0
145.15123,145.28961,82,110,0
145.22266,145.36104,83,110,0
145.29408,145.43248,82,110,0
145.0798,145.5039,70,110,0
145.36551,145.5039,80,110,0
145.43694,145.57533,82,110,0
145.50836,146.65625,71,110,0
145.50836,146.65625,83,110,0
146.66016,147.40625,68,110,0
146.66016,147.40625,80,110,0
147.41016,148.23425,81,110,0
147.41016,148.23425,69,110,0
148.23872,148.37712,80,110,0
148.31015,148.44855,79,110,0
148.38158,148.51997,80,110,0
148.453,148.5914,79,110,0
148.23872,148.66283,67,110,0
148.52444,148.66283,77,110,0
148.59587,148.73425,79,110,0
148.6673,149.81517,68,110,0
148.6673,149.81517,80,110,0
149.81908,150.65892,76,120,0
150.66283,150.84642,76,80,0
149.81908,150.94017,69,120,0
149.81908,150.94017,73,120,0
149.81908,150.94017,81,120,0
150.75658,150.94017,78,80,0
150.85033,151.03392,80,80,0
150.94408,151.12767,81,80,0
151.03783,151.22142,83,80,0
151.13158,151.31517,85,80,0
151.22533,151.40892,83,80,0
151.31908,151.50267,81,80,0
151.41283,151.59642,76,80,0
151.50658,151.69017,78,80,0
151.60033,151.78392,80,80,0
151.69408,151.87767,81,80,0
151.78783,151.97142,83,80,0
151.88158,152.06517,85,80,0
151.97533,152.15892,83,80,0
152.06908,152.25267,81,80,0
152.16283,152.34642,76,80,0
152.25658,152.44017,78,80,0
152.35033,152.53392,80,80,0
152.44408,152.62767,81,80,0
152.53783,152.72142,83,80,0
152.63158,152.81517,85,80,0
152.72533,152.90892,83,80,0
152.81908,153.00267,81,80,0
152.91283,153.09642,76,81,0
153.00658,153.19017,78,82,0
153.10033,153.28392,80,83,0
153.19408,153.37767,81,84,0
153.28783,153.47142,83,86,0
153.38158,153.56517,85,87,0
153.47533,153.65892,86,88,0
153.56908,153.75267,88,89,0
153.66283,153.84642,87,91,0
153.75658,153.94017,88,92,0
153.85033,154.03392,87,93,0
153.94408,154.12767,88,94,0
154.03783,154.22142,85,96,0
154.13158,154.31517,83,97,0
154.22533,154.40892,81,98,0
154.31908,155.06517,80,80,0
155.06908,155.19017,83,80,0
155.13158,155.25267,82,80,0
155.19408,155.31517,83,80,0
155.25658,155.37767,82,80,0
155.31908,155.44017,83,80,0
155.38158,155.50267,82,80,0
155.44408,155.56517,83,80,0
155.50658,155.62767,82,80,0
155.56908,155.69017,83,80,0
155.63158,155.75267,82,80,0
155.69408,155.81517,80,80,0
155.75658,155.87767,82,80,0
155.81908,156.19017,80,80,0
156.19408,156.65892,64,120,0
156.66283,156.84642,64,80,0
156.19408,156.94017,57,120,0
156.19408,156.94017,61,120,0
156.19408,156.94017,69,120,0
156.75658,156.94017,66,80,0
156.85033,157.03392,68,80,0
156.94408,157.12767,69,80,0
157.03783,157.22142,71,80,0
157.13158,157.31517,73,80,0
157.22533,157.40892,71,80,0
157.31908,157.50267,69,80,0
157.41283,157.59642,64,80,0
157.50658,157.69017,66,80,0
157.60033,157.78392,68,80,0
157.69408,157.87767,69,80,0
157.78783,157.97142,71,80,0
157.88158,158.06517,73,80,0
157.97533,158.15892,71,80,0
158.06908,158.25267,69,80,0
158.16283,158.34642,64,80,0
158.25658,158.44017,66,80,0
158.35033,158.53392,68,80,0
158.44408,158.62767,69,80,0
158.53783,158.72142,71,80,0
158.63158,158.81517,73,80,0
158.72533,158.90892,71,80,0
158.81908,159.00267,69,80,0
158.91283,159.09642,64,80,0
159.00658,159.19017,66,81,0
159.10033,159.28392,68,82,0
159.19408,159.37767,69,83,0
159.28783,159.47142,71,84,0
159.38158,159.56517,73,85,0
159.47533,159.65892,71,86,0
159.56908,159.75267,69,87,0
159.66283,159.84642,64,88,0
159.75658,159.94017,66,89,0
159.85033,160.03392,68,90,0
159.94408,160.12767,69,91,0
160.03783,160.22142,71,92,0
160.13158,160.31517,73,93,0
160.22533,160.40892,71,94,0
160.31908,160.50267,69,94,0
160.41283,160.59642,64,95,0
160.50658,160.69017,66,96,0
160.60033,160.78392,68,97,0
160.69408,160.87767,69,98,0
160.78783,160.97142,71,99,0
160.88158,161.06517,73,100,0
160.97533,161.15892,75,101,0
161.06908,161.25267,76,102,0
161.16283,161.34642,78,103,0
161.25658,161.44017,80,104,0
161.35033,161.53392,81,105,0
161.44408,161.62767,83,106,0
161.53783,161.72142,85,107,0
161.63158,161.81517,86,108,0
161.72533,161.91182,87,109,0
161.81908,162.58923,88,110,0
161.81908,162.58923,76,110,0
162.59328,163.36343,80,110,0
162.59328,163.36343,68,110,0
163.36746,164.14769,83,110,0
163.36746,164.14769,71,110,0
164.15178,164.97588,55,110,0
164.15178,164.97588,61,110,0
164.15178,164.97588,67,110,0
164.98035,165.37822,56,110,0
164.98035,165.37822,59,110,0
164.98035,165.37822,68,110,0
165.19463,165.37822,63,80,0
165.19463,165.37822,71,80,0
165.38213,165.56572,63,80,0
165.38213,165.56572,71,80,0
165.56963,165.75322,63,80,0
165.56963,165.75322,71,80,0
165.75713,165.94072,63,80,0
165.75713,165.94072,71,80,0
165.94463,166.12822,63,80,0
165.94463,166.12822,71,80,0
166.13213,166.31572,63,80,0
166.13213,166.31572,70,80,0
166.31963,166.50322,63,80,0
166.31963,166.50322,68,80,0
166.50713,166.69072,63,80,0
166.50713,166.69072,67,80,0
166.69463,166.87822,67,80,0
166.69463,166.87822,75,80,0
166.88213,167.06572,67,80,0
166.88213,167.06572,75,80,0
167.06963,167.25322,67,80,0
167.06963,167.25322,75,80,0
167.25713,167.44072,67,80,0
167.25713,167.44072,75,80,0
167.44463,167.62822,67,80,0
167.44463,167.62822,75,80,0
167.63213,167.81572,68,80,0
167.63213,167.81572,75,80,0
167.81963,168.00322,70,80,0
167.81963,168.00322,75,80,0
168.00713,168.19072,71,80,0
168.00713,168.19072,75,80,0
168.19463,168.37822,63,80,0
168.19463,168.37822,71,80,0
168.38213,168.56572,63,80,0
168.38213,168.56572,71,80,0
168.56963,168.75322,63,80,0
168.56963,168.75322,71,80,0
168.75713,168.94072,63,80,0
168.75713,168.94072,71,80,0
168.94463,169.12822,63,80,0
168.94463,169.12822,71,80,0
169.13213,169.31572,63,80,0
169.13213,169.31572,70,80,0
169.31963,169.50322,63,80,0
169.31963,169.50322,68,80,0
169.50713,169.69072,63,80,0
169.50713,169.69072,67,80,0
169.69463,169.87822,67,80,0
169.69463,169.87822,75,80,0
169.88213,170.06572,67,80,0
169.88213,170.06572,75,80,0
170.06963,170.25322,67,80,0
170.06963,170.25322,75,80,0
170.25713,170.44072,67,80,0
170.25713,170.44072,75,80,0
170.44463,170.62822,67,80,0
170.44463,170.62822,75,80,0
170.63213,170.81572,68,80,0
170.63213,170.81572,75,80,0
170.81963,171.00322,70,80,0
170.81963,171.00322,75,80,0
171.00713,171.19072,71,80,0
171.00713,171.19072,75,80,0
171.19463,171.37822,71,80,0
171.19463,171.37822,75,80,0
171.38213,171.56572,71,80,0
171.38213,171.56572,75,80,0
171.56963,171.75322,68,80,0
171.56963,171.75322,71,80,0
171.94463,172.12822,73,80,0
171.94463,172.12822,76,80,0
172.13213,172.31572,73,80,0
172.13213,172.31572,76,80,0
172.31963,172.50322,68,80,0
172.31963,172.50322,73,80,0
172.69463,172.87822,71,80,0
172.69463,172.87822,75,80,0
172.88213,173.06572,71,80,0
172.88213,173.06572,75,80,0
173.06963,173.25322,68,80,0
173.06963,173.25322,71,80,0
173.45068,173.6402,70,80,0
173.45068,173.6402,75,80,0
173.64423,173.84006,70,80,0
173.64423,173.84006,75,80,0
173.84422,174.05405,67,80,0
173.84422,174.05405,70,80,0
174.05852,174.26834,68,80,0
174.05852,174.26834,71,80,0
174.2728,174.46231,71,80,0
174.2728,174.46231,75,80,0
174.2728,174.46231,83,80,0
174.46635,174.65587,71,82,0
174.46635,174.65587,75,82,0
174.46635,174.65587,83,82,0
174.6599,174.84941,71,85,0
174.6599,174.84941,75,85,0
174.6599,174.84941,83,85,0
174.85344,175.04295,71,88,0
174.85344,175.04295,75,88,0
174.85344,175.04295,83,88,0
175.047,175.23651,71,91,0
175.047,175.23651,75,91,0
175.047,175.23651,83,91,0
175.24054,175.43005,70,94,0
175.24054,175.43005,73,94,0
175.24054,175.43005,82,94,0
175.43408,175.6236,68,97,0
175.43408,175.6236,71,97,0
175.43408,175.6236,80,97,0
175.62764,175.85359,67,99,0
175.62764,175.85359,70,99,0
175.62764,175.85359,79,99,0
175.8584,176.04793,76,110,0
175.8584,176.04793,88,110,0
175.8584,176.04793,79,110,0
176.05196,176.24147,76,110,0
176.05196,176.24147,88,110,0
176.05196,176.24147,79,110,0
176.2455,176.43501,76,110,0
176.2455,176.43501,88,110,0
176.2455,176.43501,79,110,0
176.43904,176.62857,76,110,0
176.43904,176.62857,88,110,0
176.43904,176.62857,79,110,0
176.6326,176.82211,76,110,0
176.6326,176.82211,88,110,0
176.6326,176.82211,79,110,0
176.82614,177.01566,75,110,0
176.82614,177.01566,87,110,0
176.82614,177.01566,79,110,0
177.0197,177.20921,73,110,0
177.0197,177.20921,85,110,0
177.0197,177.20921,79,110,0
177.21324,177.41583,71,110,0
177.21324,177.41583,80,110,0
177.21324,177.41583,83,110,0
177.42014,177.60965,71,80,0
177.42014,177.60965,75,80,0
177.42014,177.60965,83,80,0
177.61368,177.8032,71,82,0
177.61368,177.8032,75,82,0
177.61368,177.8032,83,82,0
177.80724,177.99675,71,85,0
177.80724,177.99675,75,85,0
177.80724,177.99675,83,85,0
178.00078,178.19029,71,88,0
178.00078,178.19029,75,88,0
178.00078,178.19029,83,88,0
178.19434,178.38385,71,91,0
178.19434,178.38385,75,91,0
178.19434,178.38385,83,91,0
178.38788,178.5774,70,94,0
178.38788,178.5774,73,94,0
178.38788,178.5774,82,94,0
178.58142,178.77094,68,97,0
178.58142,178.77094,71,97,0
178.58142,178.77094,80,97,0
178.77498,179.00093,67,99,0
178.77498,179.00093,70,99,0
178.77498,179.00093,79,99,0
179.00574,179.19525,76,110,0
179.00574,179.19525,88,110,0
179.00574,179.19525,79,110,0
179.1993,179.38881,76,110,0
179.1993,179.38881,88,110,0
179.1993,179.38881,79,110,0
179.39284,179.58235,76,110,0
179.39284,179.58235,88,110,0
179.39284,179.58235,79,110,0
179.58638,179.7759,76,110,0
179.58638,179.7759,88,110,0
179.58638,179.7759,79,110,0
179.77994,179.96945,76,110,0
179.77994,179.96945,88,110,0
179.77994,179.96945,79,110,0
179.97348,180.163,75,110,0
179.97348,180.163,87,110,0
179.97348,180.163,79,110,0
180.16702,180.35655,73,110,0
180.16702,180.35655,85,110,0
180.16702,180.35655,79,110,0
180.36058,180.54887,71,110,0
180.36058,180.54887,80,110,0
180.36058,180.54887,83,110,0
180.55289,180.74118,80,80,0
180.55289,180.74118,83,80,0
180.7452,180.93349,80,80,0
180.7452,180.93349,83,80,0
180.9375,181.12581,87,80,0
180.9375,181.12581,83,80,0
181.32211,181.51042,85,80,0
181.32211,181.51042,80,80,0
181.51442,181.70273,85,80,0
181.51442,181.70273,80,80,0
181.70673,181.89503,88,80,0
181.70673,181.89503,85,80,0
182.09012,182.27722,83,80,0
182.09012,182.27722,80,80,0
182.2812,182.4683,83,80,0
182.2812,182.4683,80,80,0
182.47229,182.6594,87,80,0
182.47229,182.6594,83,80,0
182.85445,183.04155,82,80,0
182.85445,183.04155,79,80,0
183.04553,183.23264,82,80,0
183.04553,183.23264,79,80,0
183.23662,183.42372,87,80,0
183.23662,183.42372,82,80,0
183.61757,183.80348,75,82,0
183.61757,183.80348,83,82,0
183.80745,183.99336,75,85,0
183.80745,183.99336,83,85,0
183.99731,184.18323,80,88,0
183.99731,184.18323,87,88,0
184.37706,184.56297,73,94,0
184.37706,184.56297,81,94,0
184.56694,184.75285,73,97,0
184.56694,184.75285,81,97,0
184.7568,184.94273,76,99,0
184.7568,184.94273,85,99,0
185.13655,185.32248,71,100,0
185.13655,185.32248,80,100,0
185.32643,185.51234,71,100,0
185.32643,185.51234,80,100,0
185.5163,185.70222,75,100,0
185.5163,185.70222,83,100,0
185.89972,186.08923,70,87,0
185.89972,186.08923,79,87,0
186.09328,186.28911,70,84,0
186.09328,186.28911,79,84,0
186.29327,186.51086,73,81,0
186.29327,186.51086,82,81,0
186.51549,186.92131,80,80,0
186.51549,186.92131,71,80,0
187.67522,188.04631,71,80,0
187.95647,188.14006,68,80,0
188.05022,188.42131,67,80,0
188.42522,188.79631,75,80,0
188.42522,188.79631,67,80,0
188.42522,188.79631,61,80,0
188.80022,189.17131,61,80,0
188.80022,189.17131,67,80,0
188.80022,189.17131,75,80,0
189.17522,189.54631,61,80,0
189.17522,189.54631,67,80,0
189.17522,189.54631,75,80,0
189.55022,189.92131,59,80,0
189.58147,189.92131,68,80,0
189.61272,190.67131,75,80,0
190.67522,191.04631,83,80,0
190.95647,191.14006,80,80,0
191.05022,191.42131,79,80,0
191.42522,191.79631,87,80,0
191.42522,191.79631,73,80,0
191.42522,191.79631,79,80,0
191.80022,192.17131,87,80,0
191.80022,192.17131,73,80,0
191.80022,192.17131,79,80,0
192.17522,192.54631,87,80,0
192.17522,192.54631,73,80,0
192.17522,192.54631,79,80,0
192.55022,192.92131,71,80,0
192.58147,192.92131,80,80,0
192.61272,193.29631,87,80,0
193.30022,193.67131,73,80,0
193.33147,193.67131,79,80,0
193.36272,194.04631,87,80,0
194.05022,194.42131,71,80,0
194.08147,194.42131,80,80,0
194.11272,194.79631,87,80,0
194.80022,195.17131,73,80,0
194.83147,195.17131,79,80,0
194.86272,195.54631,87,80,0
195.55022,195.73381,59,80,0
195.64397,195.82756,68,80,0
195.73772,195.92131,63,81,0
195.83147,196.01506,68,82,0
195.92522,196.10881,59,83,0
196.01897,196.20256,68,84,0
196.11272,196.29631,63,85,0
196.20647,196.39006,68,86,0
196.30022,196.48381,59,87,0
196.39397,196.57756,68,88,0
196.48772,196.67131,63,89,0
196.58147,196.76506,68,90,0
196.67522,196.85881,59,91,0
196.76897,196.95256,68,92,0
196.86272,197.04631,63,93,0
196.95647,197.14006,68,94,0
197.05022,197.23381,60,94,0
197.14397,197.32756,66,95,0
197.23772,197.42131,63,96,0
197.33147,197.51506,66,97,0
197.42522,197.60881,60,98,0
197.51897,197.70256,66,99,0
197.61272,197.79631,63,100,0
197.70647,197.89006,66,101,0
197.80022,197.98381,60,102,0
197.89397,198.07756,66,103,0
197.98772,198.17131,63,104,0
198.08147,198.26506,66,105,0
198.17522,198.35881,60,106,0
198.26897,198.45256,66,107,0
198.36272,198.54631,63,108,0
198.45647,198.64006,66,109,0
198.55022,198.73381,53,110,0
198.55022,198.82756,56,110,0
198.64397,198.82756,49,80,0
198.55022,198.92131,65,110,0
198.55022,198.92131,61,110,0
198.73772,198.92131,53,80,0
198.83147,199.01506,56,80,0
198.92522,199.10881,61,80,0
199.01897,199.20256,53,80,0
199.11272,199.29631,56,80,0
199.20647,199.39006,61,80,0
199.30022,199.48381,65,80,0
199.39397,199.57756,56,80,0
199.48772,199.67131,61,80,0
199.58147,199.76506,65,80,0
199.67522,199.85881,68,80,0
199.76897,199.95256,61,80,0
199.86272,200.04631,65,80,0
199.95647,200.14006,68,80,0
200.05022,200.23381,73,80,0
200.14397,200.32756,65,80,0
200.23772,200.42131,68,80,0
200.33147,200.51506,73,80,0
200.42522,200.60881,77,80,0
200.51897,200.70256,68,80,0
200.61272,200.79631,73,80,0
200.70647,200.89006,77,80,0
200.80022,200.98381,80,80,0
200.89397,201.07756,73,80,0
200.98772,201.17131,77,80,0
201.08147,201.17131,80,80,0
201.17522,201.35881,85,110,0
201.17522,201.35881,80,110,0
201.17522,201.35881,77,110,0
201.17522,201.35881,73,110,0
201.36272,201.54631,73,110,0
201.36272,201.54631,77,110,0
201.36272,201.54631,80,110,0
201.36272,201.54631,85,110,0
201.64397,201.82756,49,80,0
201.73772,201.92131,53,80,0
201.83147,202.01506,56,80,0
201.92522,202.10881,61,80,0
202.01897,202.20256,53,80,0
202.11272,202.29631,56,80,0
202.20647,202.39006,61,80,0
202.30022,202.48381,65,80,0
202.39397,202.57756,56,80,0
202.48772,202.67131,61,80,0
202.58147,202.76506,65,80,0
202.67522,202.85881,68,80,0
202.76897,202.95256,61,80,0
202.86272,203.04631,65,80,0
202.95647,203.14006,68,80,0
203.05022,203.23381,73,80,0
203.14397,203.32756,65,80,0
203.23772,203.42131,68,80,0
203.33147,203.51506,73,80,0
203.42522,203.60881,77,80,0
203.51897,203.70256,68,80,0
203.61272,203.79631,73,80,0
203.70647,203.89006,77,80,0
203.80022,203.98381,80,80,0
203.89397,204.07756,73,80,0
203.98772,204.17131,77,80,0
204.08147,204.17131,80,80,0
204.17522,204.35881,85,110,0
204.17522,204.35881,80,110,0
204.17522,204.35881,77,110,0
204.17522,204.35881,73,110,0
204.36272,204.54631,73,110,0
204.36272,204.54631,77,110,0
204.36272,204.54631,80,110,0
204.36272,204.54631,85,110,0
204.64397,204.82756,49,80,0
204.73772,204.92131,54,80,0
204.83147,205.01506,57,80,0
204.92522,205.01506,61,80,0
205.01897,205.20256,61,80,0
205.11272,205.29631,66,80,0
205.20647,205.39006,69,80,0
205.30022,205.39006,73,80,0
205.39397,205.57756,73,80,0
205.48772,205.67131,78,80,0
205.58147,205.67131,81,80,0
205.67522,205.85881,85,110,0
205.67522,205.85881,81,110,0
205.67522,205.85881,78,110,0
205.67522,205.85881,73,110,0
205.86272,206.04631,73,110,0
205.86272,206.04631,78,110,0
205.86272,206.04631,81,110,0
205.86272,206.04631,85,110,0
206.14397,206.32756,49,80,0
206.23772,206.42131,56,80,0
206.33147,206.51506,59,80,0
206.42522,206.51506,61,80,0
206.51897,206.70256,61,80,0
206.61272,206.79631,68,80,0
206.70647,206.89296,71,80,0
206.80022,206.89296,73,80,0
206.89699,207.0896,73,80,0
206.99376,207.18959,80,80,0
207.09377,207.18959,83,80,0
207.19376,207.40358,85,110,0
207.19376,207.40358,83,110,0
207.19376,207.40358,73,110,0
207.19376,207.40358,80,110,0
207.40805,207.65283,85,110,0
207.40805,207.65283,83,110,0
207.40805,207.65283,73,110,0
207.40805,207.65283,80,110,0
207.65805,208.184,73,100,0
207.65805,208.184,78,100,0
207.65805,208.184,85,100,0
207.65805,208.184,81,100,0
208.18881,208.9543,73,80,0
208.9582,209.3293,69,80,0
209.23946,209.3293,66,100,0
209.36446,209.42305,66,80,0
209.3332,209.5168,65,80,0
209.3957,209.5793,68,80,0
209.42696,209.7043,66,80,0
209.7082,210.2668,65,80,0
210.2707,210.4543,65,80,0
210.4582,210.8293,73,93,0
210.73946,210.92305,65,80,0
210.8332,211.2043,68,80,0
211.2082,211.7668,66,80,0
211.7707,211.9543,66,80,0
211.9582,212.3293,73,90,0
212.23946,212.42305,66,80,0
212.3332,212.7043,69,80,0
212.7082,213.27274,68,80,0
213.27676,213.46628,68,80,0
213.4703,213.88013,73,91,0
213.77745,213.98727,68,80,0
213.8846,214.09442,66,80,0
213.99173,214.18872,73,80,0
214.09888,214.28247,69,80,0
214.19263,214.37622,73,80,0
214.28638,214.46997,66,80,0
214.38013,214.56372,73,80,0
214.47388,214.65747,69,80,0
214.56763,214.75122,73,80,0
214.66138,214.84497,66,80,0
214.75513,214.93872,73,80,0
214.84888,215.03247,69,80,0
214.94263,215.12622,73,80,0
215.03638,215.21997,66,80,0
215.13013,215.31372,73,80,0
215.22388,215.40747,69,80,0
215.31763,215.50122,73,80,0
215.41138,215.59497,68,80,0
215.50513,215.68872,73,80,0
215.59888,215.78247,71,80,0
215.69263,215.87622,73,80,0
215.78638,215.96997,68,80,0
215.88013,216.06372,73,80,0
215.97388,216.15747,71,80,0
216.06763,216.25122,73,80,0
216.16138,216.34497,68,80,0
216.25513,216.43872,73,80,0
216.34888,216.53247,71,80,0
216.44263,216.62622,73,80,0
216.53638,216.71997,68,80,0
216.63013,216.81372,73,80,0
216.72388,216.90747,71,80,0
216.81763,217.00122,73,80,0
216.91138,217.09497,66,80,0
217.00513,217.18872,73,80,0
217.09888,217.28247,69,80,0
217.19263,217.37622,73,80,0
217.28638,217.46997,66,80,0
217.38013,217.56372,73,80,0
217.47388,217.65747,69,80,0
217.56763,217.75122,73,80,0
217.66138,217.84497,66,80,0
217.75513,217.93872,73,80,0
217.84888,218.03247,69,80,0
217.94263,218.12622,73,80,0
218.03638,218.21997,66,80,0
218.13013,218.31372,73,80,0
218.22388,218.40747,69,80,0
218.31763,218.50122,73,80,0
218.41138,218.59497,66,80,0
218.50513,218.68872,74,81,0
218.59888,218.78247,69,82,0
218.69263,218.87912,74,83,0
218.78638,218.97589,66,84,0
218.88315,219.07266,74,86,0
218.97993,219.16945,69,87,0
219.0767,219.2693,74,88,0
219.17348,219.36931,69,89,0
219.27348,219.46931,74,91,0
219.37347,219.5693,72,92,0
219.47348,219.67615,74,93,0
219.57347,219.7833,69,94,0
219.68062,219.89833,74,96,0
219.78777,220.01372,72,97,0
219.90315,220.1291,74,98,0
220.01852,220.24449,67,100,0
220.13391,220.34514,74,80,0
220.2493,220.44513,71,80,0
220.3493,220.53914,74,80,0
220.4493,220.63289,67,80,0
220.54305,220.72664,74,80,0
220.6368,220.82039,71,80,0
220.73055,220.91414,74,80,0
220.8243,221.00789,67,80,0
220.91805,221.10164,74,80,0
221.0118,221.19539,71,80,0
221.10555,221.28914,74,80,0
221.1993,221.38289,67,80,0
221.29305,221.47664,74,80,0
221.3868,221.57039,71,80,0
221.48055,221.66414,74,80,0
221.5743,221.75789,69,80,0
221.66805,221.85164,74,80,0
221.7618,221.94539,72,80,0
221.85555,222.03914,74,80,0
221.9493,222.13289,69,80,0
222.04305,222.22664,74,80,0
222.1368,222.32039,72,80,0
222.23055,222.41414,74,80,0
222.3243,222.50789,69,80,0
222.41805,222.60164,74,80,0
222.5118,222.69539,72,80,0
222.60555,222.78914,74,80,0
222.6993,222.88289,69,80,0
222.79305,222.97664,74,80,0
222.8868,223.07039,72,80,0
222.98055,223.16414,74,80,0
223.0743,223.25789,67,80,0
223.16805,223.35164,74,80,0
223.2618,223.44539,71,80,0
223.35555,223.53914,74,80,0
223.4493,223.63289,67,80,0
223.54305,223.72664,74,80,0
223.6368,223.82039,71,80,0
223.73055,223.91414,74,80,0
223.8243,224.00789,67,80,0
223.91805,224.10164,74,80,0
224.0118,224.19539,71,80,0
224.10555,224.28914,74,80,0
224.1993,224.38289,67,80,0
224.29305,224.47664,74,80,0
224.3868,224.57039,71,80,0
224.48055,224.66704,74,80,0
224.5743,224.76381,68,80,0
224.67107,224.8606,74,80,0
224.76785,224.95737,71,80,0
224.86462,225.05414,74,80,0
224.9614,225.15091,68,80,0
225.05817,225.24768,73,80,0
225.15494,225.34445,71,80,0
225.25172,225.44244,73,80,0
225.3485,225.54048,68,80,0
225.44653,225.63852,73,80,0
225.54457,225.73656,71,80,0
225.64261,225.8346,73,80,0
225.74065,225.93265,68,80,0
225.83868,226.03069,73,80,0
225.93672,226.12872,71,80,0
226.03476,226.22993,73,80,0
226.1328,226.33128,66,80,0
226.23416,226.43263,73,80,0
226.33551,226.53398,69,81,0
226.43686,226.63533,73,81,0
226.53821,226.7367,66,82,0
226.63956,226.83804,73,83,0
226.7409,226.93939,69,83,0
226.84225,227.04074,73,84,0
226.94362,227.14209,66,84,0
227.04497,227.24344,78,85,0
227.14632,227.3448,69,86,0
227.24767,227.44615,78,86,0
227.34901,227.5475,66,87,0
227.45036,227.64885,78,88,0
227.55173,227.7502,69,88,0
227.65308,227.84717,78,89,0
227.75443,227.94394,66,89,0
227.8512,228.04071,78,90,0
227.94797,228.13748,68,91,0
227.94797,228.13748,75,91,0
228.04474,228.23427,78,91,0
228.14153,228.33104,66,92,0
228.2383,228.42781,78,93,0
228.33507,228.52458,68,93,0
228.33507,228.52458,75,93,0
228.43184,228.62135,78,94,0
228.52861,228.71812,66,94,0
228.6254,228.81491,78,95,0
228.72217,228.91168,68,96,0
228.72217,228.91168,75,96,0
228.81894,229.00845,78,96,0
228.91571,229.10522,66,97,0
229.01248,229.202,78,98,0
229.10925,229.29878,68,98,0
229.10925,229.29878,75,98,0
229.20604,229.39555,78,99,0
229.30281,229.49232,64,100,0
229.39958,229.5891,76,100,0
229.49635,229.68587,73,100,0
229.59312,229.78264,76,100,0
229.68991,229.87943,64,100,0
229.78668,229.9762,76,100,0
229.88345,230.07297,73,100,0
229.98022,230.16974,76,100,0
230.077,230.26651,64,100,0
230.17377,230.3633,76,100,0
230.27055,230.46007,73,100,0
230.36732,230.55684,76,100,0
230.4641,230.65361,64,100,0
230.56087,230.75038,76,100,0
230.65764,230.84715,73,100,0
230.75443,230.94702,76,100,0
230.8512,231.04703,63,100,0
230.95119,231.14702,75,99,0
231.0512,231.24702,73,98,0
231.15118,231.34703,75,97,0
231.25119,231.44702,63,96,0
231.3512,231.54703,75,94,0
231.45119,231.64702,73,93,0
231.5512,231.75034,75,92,0
231.65118,231.85378,63,91,0
231.75464,231.95723,75,89,0
231.8581,232.06067,73,88,0
231.96153,232.16766,75,87,0
232.06499,232.27481,63,86,0
232.17213,232.38985,75,84,0
232.27927,232.50523,73,83,0
232.39465,232.62062,75,82,0
232.51004,232.62062,75,100,0
232.51004,232.93665,63,100,0
232.51004,232.93665,72,100,0
232.94081,233.71097,68,80,0
233.715,233.90451,69,80,0
233.90855,234.09807,68,80,0
234.1021,234.48515,66,80,0
234.4892,234.67871,68,80,0
234.1021,234.87225,57,80,0
234.1021,234.87225,61,80,0
234.68274,234.87225,66,80,0
234.87628,235.25935,64,80,0
235.26338,235.4529,66,80,0
234.87628,235.64645,56,80,0
234.87628,235.64645,59,80,0
235.45692,235.64645,64,80,0
235.65048,236.03354,63,80,0
236.03758,236.2271,64,80,0
235.65048,236.42064,54,80,0
235.65048,236.42064,57,80,0
236.23112,236.42064,63,80,0
236.42467,236.80774,61,80,0
236.81177,237.00128,63,80,0
236.42467,237.19482,52,80,0
236.42467,237.19482,56,80,0
237.00531,237.19482,61,80,0
237.19887,237.96902,51,80,0
237.19887,237.96902,54,80,0
237.19887,237.96902,60,80,0
237.97305,238.74321,49,80,0
237.97305,238.74321,52,80,0
237.97305,238.74321,61,80,0
238.74725,239.13031,63,81,0
238.65047,239.22708,48,80,0
238.71095,239.28757,56,80,0
239.13434,239.71095,80,86,0
239.71498,239.90451,80,94,0
239.90854,240.09805,81,97,0
240.10208,240.2916,80,99,0
240.29564,240.48515,78,100,0
240.48918,240.6787,69,100,0
240.48918,240.6787,73,100,0
240.48918,240.6787,78,100,0
240.68272,240.87224,71,100,0
240.68272,240.87224,75,100,0
240.68272,240.87224,80,100,0
240.87628,241.0658,69,100,0
240.87628,241.0658,73,100,0
240.87628,241.0658,78,100,0
241.06982,241.25934,68,100,0
241.06982,241.25934,71,100,0
241.06982,241.25934,76,100,0
241.26337,241.45288,68,100,0
241.26337,241.45288,71,100,0
241.26337,241.45288,76,100,0
241.45692,241.64644,69,100,0
241.45692,241.64644,73,100,0
241.45692,241.64644,78,100,0
241.65047,241.83998,68,100,0
241.65047,241.83998,71,100,0
241.65047,241.83998,76,100,0
241.84401,242.03354,66,100,0
241.84401,242.03354,69,100,0
241.84401,242.03354,75,100,0
242.03757,242.22708,69,100,0
242.03757,242.22708,66,100,0
242.03757,242.22708,75,100,0
242.23111,242.42694,68,100,0
242.23111,242.42694,71,100,0
242.23111,242.42694,76,100,0
242.4311,242.62694,66,100,0
242.4311,242.62694,69,100,0
242.4311,242.62694,75,100,0
242.63112,242.82695,64,100,0
242.63112,242.82695,68,100,0
242.63112,242.82695,73,100,0
242.83112,243.02695,68,100,0
242.83112,243.02695,64,100,0
242.83112,243.02695,73,100,0
243.03111,243.24094,66,100,0
243.03111,243.24094,69,100,0
243.03111,243.24094,75,100,0
243.24539,243.47136,64,100,0
243.24539,243.47136,68,100,0
243.24539,243.47136,73,100,0
243.47617,244.28355,63,100,0
243.47617,244.28355,66,100,0
243.47617,244.28355,72,100,0
244.28758,245.05774,61,109,0
244.28758,245.05774,64,109,0
244.28758,245.05774,73,109,0
245.06177,246.21902,60,100,0
245.11015,246.21902,66,100,0
245.15854,246.21902,75,99,0
246.22305,246.60612,61,81,0
246.22305,246.60612,64,81,0
246.22305,246.60612,73,81,0
246.61015,246.99323,63,80,0
246.61015,246.99323,66,80,0
246.61015,246.99323,72,80,0
246.99725,247.38031,63,86,0
246.99725,247.38031,66,86,0
246.99725,247.38031,72,86,0
247.38435,247.77498,61,93,0
247.38435,247.77498,64,93,0
247.38435,247.77498,73,93,0
247.77908,248.20319,61,99,0
247.77908,248.20319,64,99,0
247.77908,248.20319,73,99,0
248.20766,249.39824,60,100,0
248.26123,249.39824,66,100,0
248.3148,249.39824,75,99,0
249.40233,249.7904,61,86,0
249.40233,249.7904,64,86,0
249.5984,249.98648,73,83,0
249.79448,250.18256,63,80,0
249.79448,250.18256,66,80,0
249.99057,250.37863,72,81,0
250.18665,250.5747,63,82,0
250.18665,250.5747,66,82,0
250.38272,250.7708,72,83,0
250.5788,250.96687,61,84,0
250.5788,250.96687,64,84,0
250.77487,251.16295,73,86,0
250.97095,251.35902,61,87,0
250.97095,251.35902,64,87,0
251.16704,251.55894,73,88,0
251.36311,251.75894,60,80,0
251.36311,251.75894,66,80,0
251.56311,251.9657,75,79,0
251.7631,252.17259,60,78,0
251.7631,252.17259,66,78,0
251.97,252.38672,75,76,0
252.17691,252.60101,61,75,0
252.17691,252.60101,64,75,0
252.39119,252.83144,73,73,0
252.60547,253.22583,61,72,0
252.60547,253.22583,64,72,0
252.83624,253.22583,73,71,0
253.23624,255.62999,57,80,0
253.23624,255.62999,61,80,0
253.23624,255.62999,63,80,0
253.23624,255.62999,69,80,0
255.63625,259.06033,56,70,0
255.63625,259.06033,60,70,0
255.63625,259.06033,63,70,0
255.63625,259.06033,68,70,0
259.15857,259.34216,44,80,0
259.25232,259.4359,49,80,0
259.34607,259.52966,52,80,0
259.43982,259.6234,56,80,0
259.53357,259.71716,49,80,0
259.62732,259.8109,52,80,0
259.72107,259.90466,56,80,0
259.81482,259.9984,61,80,0
259.90857,260.09216,52,80,0
260.00232,260.1859,56,80,0
260.09607,260.27966,61,80,0
260.18982,260.3734,64,80,0
260.28357,260.46716,56,80,0
260.37732,260.5609,61,80,0
260.47107,260.65466,64,80,0
260.56482,260.7484,68,80,0
260.65857,260.84216,61,80,0
260.75232,260.9359,64,80,0
260.84607,261.02966,68,80,0
260.93982,261.1234,73,80,0
261.03357,261.21716,64,80,0
261.12732,261.3109,68,80,0
261.22107,261.40466,73,80,0
261.31482,261.4984,76,80,0
261.40857,261.59216,68,80,0
261.50232,261.6859,73,80,0
261.59607,261.6859,76,80,0
261.68982,261.8734,68,110,0
261.68982,261.8734,73,110,0
261.68982,261.8734,76,110,0
261.68982,261.8734,80,110,0
261.87732,262.0609,80,110,0
261.87732,262.0609,76,110,0
261.87732,262.0609,73,110,0
261.87732,262.0609,68,110,0
262.15857,262.34216,44,80,0
262.25232,262.4359,48,80,0
262.34607,262.52966,51,80,0
262.43982,262.6234,56,80,0
262.53357,262.71716,48,80,0
262.62732,262.8109,51,80,0
262.72107,262.90466,56,80,0
262.81482,262.9984,60,80,0
262.90857,263.09216,51,80,0
263.00232,263.1859,56,80,0
263.09607,263.27966,60,80,0
263.18982,263.3734,63,80,0
263.28357,263.46716,56,80,0
263.37732,263.5609,60,80,0
263.47107,263.65466,63,80,0
263.56482,263.7484,68,80,0
263.65857,263.84216,60,80,0
263.75232,263.9359,63,80,0
263.84607,264.02966,68,80,0
263.93982,264.1234,72,80,0
264.03357,264.21716,63,80,0
264.12732,264.3109,68,80,0
264.22107,264.40466,72,80,0
264.31482,264.4984,75,80,0
264.40857,264.59216,68,80,0
264.50232,264.6859,72,80,0
264.59607,264.6859,75,80,0
264.68982,264.8734,68,110,0
264.68982,264.8734,72,110,0
264.68982,264.8734,75,110,0
264.68982,264.8734,80,110,0
264.87732,265.0609,68,110,0
264.87732,265.0609,72,110,0
264.87732,265.0609,75,110,0
264.87732,265.0609,80,110,0
265.15857,265.34216,49,80,0
265.25232,265.4359,53,80,0
265.34607,265.52966,56,80,0
265.43982,265.6234,61,80,0
265.53357,265.71716,53,80,0
265.62732,265.8109,56,80,0
265.72107,265.90466,61,80,0
265.81482,265.9984,65,80,0
265.90857,266.09216,56,80,0
266.00232,266.1859,61,80,0
266.09607,266.27966,65,80,0
266.18982,266.3734,68,80,0
266.28357,266.46716,61,80,0
266.37732,266.5609,65,80,0
266.47107,266.65466,68,80,0
266.56482,266.7484,73,80,0
266.65857,266.84216,65,80,0
266.75232,266.9359,68,80,0
266.84607,267.02966,73,80,0
266.93982,267.1234,77,80,0
267.03357,267.21716,68,80,0
267.12732,267.3109,73,80,0
267.22107,267.40466,77,80,0
267.31482,267.4984,80,80,0
267.40857,267.59216,73,80,0
267.50232,267.6859,77,80,0
267.59607,267.6859,80,80,0
267.68982,267.8734,73,110,0
267.68982,267.8734,77,110,0
267.68982,267.8734,80,110,0
267.68982,267.8734,85,110,0
267.87732,268.0609,85,110,0
267.87732,268.0609,80,110,0
267.87732,268.0609,77,110,0
267.87732,268.0609,73,110,0
268.15857,268.34216,49,90,0
268.25232,268.4359,54,90,0
268.34607,268.52966,57,90,0
268.43982,268.52966,61,90,0
268.53357,268.71716,61,90,0
268.62732,268.8109,66,90,0
268.72107,268.90466,69,90,0
268.81482,268.90466,73,90,0
268.90857,269.09216,73,90,0
269.00232,269.1859,78,90,0
269.09607,269.27966,81,90,0
269.18982,269.3734,85,110,0
269.18982,269.3734,73,110,0
269.18982,269.3734,78,110,0
269.37732,269.5609,78,110,0
269.37732,269.5609,85,110,0
269.37732,269.5609,73,110,0
269.65857,269.84216,49,90,0
269.75232,269.9359,52,90,0
269.84607,270.02966,55,90,0
269.93982,270.02966,61,90,0
270.03357,270.21716,61,90,0
270.12732,270.3109,64,90,0
270.22107,270.40466,67,90,0
270.31482,270.40466,73,90,0
270.40857,270.59216,73,90,0
270.50232,270.6859,76,90,0
270.59607,270.6859,79,90,0
270.68982,270.8734,73,110,0
270.68982,270.8734,85,110,0
270.68982,270.8734,79,110,0
270.87732,271.0609,73,110,0
270.87732,271.0609,85,110,0
270.87732,271.0609,79,110,0
271.06482,271.2484,72,110,0
271.06482,271.2484,84,110,0
271.06482,271.2484,80,110,0
271.25232,271.4359,68,110,0
271.34607,271.52966,80,110,0
271.43982,271.6234,68,110,0
271.53357,271.71716,80,110,0
271.62732,271.8109,70,110,0
271.72107,271.90466,80,110,0
271.81482,271.9984,72,110,0
271.90857,272.09216,80,110,0
272.00232,272.1859,73,110,0
272.09607,272.27966,80,110,0
272.18982,272.3734,75,110,0
272.28357,272.46716,80,110,0
272.37732,272.5609,72,110,0
272.47107,272.65466,80,110,0
272.56482,272.7484,75,110,0
272.65857,272.84216,80,110,0
272.75232,272.9359,73,110,0
272.84607,273.02966,80,110,0
272.93982,273.1234,78,110,0
273.03357,273.21716,80,110,0
273.12732,273.3109,76,110,0
273.22107,273.40466,80,110,0
273.31482,273.4984,75,110,0
273.40857,273.59216,80,110,0
273.50232,273.6859,73,110,0
273.59607,273.77966,80,110,0
273.68982,273.8734,72,110,0
273.78357,273.96716,80,110,0
273.87732,274.0609,69,110,0
273.97107,274.0609,79,110,0
274.06482,274.2484,68,110,0
274.15857,274.34216,80,110,0
274.25232,274.4359,68,110,0
274.34607,274.52966,80,110,0
274.43982,274.6234,68,110,0
274.53357,274.71716,80,110,0
274.62732,274.8109,70,110,0
274.72107,274.90466,80,110,0
274.81482,274.9984,72,110,0
274.90857,275.09216,80,110,0
275.00232,275.1859,73,110,0
275.09607,275.27966,80,110,0
275.18982,275.3734,75,110,0
275.28357,275.46716,80,110,0
275.37732,275.5609,72,110,0
275.47107,275.65466,80,110,0
275.56482,275.7484,75,110,0
275.65857,275.84216,80,110,0
275.75232,275.9359,73,110,0
275.84607,276.02966,80,110,0
275.93982,276.1234,78,110,0
276.03357,276.21716,80,110,0
276.12732,276.3109,76,110,0
276.22107,276.40466,80,110,0
276.31482,276.4984,75,110,0
276.40857,276.59216,80,110,0
276.50232,276.6859,73,110,0
276.59607,276.77966,80,110,0
276.68982,276.8734,72,110,0
276.78357,276.96716,80,110,0
276.87732,277.0609,69,110,0
276.97107,277.0609,79,110,0
277.06482,277.2484,68,110,0
277.15857,277.34216,80,110,0
277.25232,277.4359,69,110,0
277.34607,277.52966,79,110,0
277.43982,277.6234,68,110,0
277.53357,277.71716,80,110,0
277.62732,277.8109,69,110,0
277.72107,277.90466,79,110,0
277.81482,277.9984,68,110,0
277.90857,278.09216,80,110,0
278.00232,278.1859,69,110,0
278.09607,278.27966,79,110,0
278.18982,278.3734,68,110,0
278.28357,278.46716,80,110,0
278.37732,278.5609,69,110,0
278.47107,278.5609,79,110,0
278.56482,278.9359,68,110,0
278.56482,278.9359,80,110,0
278.93982,281.5609,56,110,0
282.02908,282.77518,68,80,0
282.77908,283.15018,64,80,0
283.18533,283.24393,61,80,0
283.15408,283.52518,60,80,0
283.24783,283.52518,61,80,0
283.21658,283.58768,63,80,0
283.52908,284.08768,60,80,0
284.09158,284.27518,60,80,0
284.27908,284.65018,68,93,0
284.56033,284.74393,60,80,0
284.65408,285.02518,63,80,0
285.02908,285.58768,61,80,0
285.59158,285.77518,61,80,0
285.77908,286.15018,68,93,0
286.06033,286.24393,61,80,0
286.15408,286.52518,64,80,0
286.52908,287.0936,63,80,0
287.09766,287.28717,63,80,0
287.2912,287.70102,68,91,0
287.59833,287.80817,63,80,0
287.70547,287.9153,64,80,0
287.91977,288.29086,68,80,0
287.91977,288.29086,80,80,0
288.29477,288.66586,80,82,0
288.29477,288.66586,68,82,0
288.66977,288.85336,80,84,0
288.66977,288.85336,68,84,0
288.85727,289.04086,64,85,0
288.85727,289.04086,76,85,0
289.04477,289.22836,73,86,0
289.04477,289.22836,61,86,0
289.23227,289.41586,61,87,0
289.23227,289.41586,73,87,0
289.41977,289.79086,60,88,0
289.41977,289.79086,72,88,0
289.79477,290.16586,60,90,0
289.79477,290.16586,72,90,0
290.16977,290.35336,60,92,0
290.16977,290.35336,72,92,0
290.35727,290.54086,80,93,0
290.35727,290.54086,68,93,0
290.54477,290.72836,60,94,0
290.54477,290.72836,72,94,0
290.73227,290.91586,63,94,0
290.73227,290.91586,75,94,0
290.91977,291.29086,61,95,0
290.91977,291.29086,73,95,0
291.29477,291.66586,61,97,0
291.29477,291.66586,73,97,0
291.66977,291.85336,61,99,0
291.66977,291.85336,73,99,0
291.85727,292.04086,80,100,0
291.85727,292.04086,68,100,0
292.04477,292.22836,73,101,0
292.04477,292.22836,61,101,0
292.23227,292.41586,64,102,0
292.23227,292.41586,76,102,0
292.41977,292.79086,63,103,0
292.41977,292.79086,75,103,0
292.79477,293.17178,63,105,0
292.79477,293.17178,75,105,0
293.1758,293.36533,63,107,0
293.1758,293.36533,75,107,0
293.36935,293.55887,80,108,0
293.36935,293.55887,68,108,0
293.5629,293.7524,75,109,0
293.5629,293.7524,63,109,0
293.75647,294.5266,65,110,0
293.75647,294.5266,77,110,0
294.53064,295.35477,66,110,0
294.53064,295.35477,78,110,0
295.35922,295.49762,76,110,0
295.43063,295.56903,75,110,0
295.50208,295.64047,76,110,0
295.57352,295.71188,75,110,0
295.35922,295.78333,63,110,0
295.64493,295.78333,73,110,0
295.71637,295.85477,75,110,0
295.78778,296.93567,64,110,0
295.78778,296.93567,76,110,0
296.93958,297.68567,61,110,0
296.93958,297.68567,73,110,0
297.68958,298.4725,62,110,0
297.68958,298.4725,74,110,0
298.47668,298.61505,73,110,0
298.5481,298.6865,72,110,0
298.61954,298.75793,73,110,0
298.69095,298.82935,72,110,0
298.47668,298.9008,60,110,0
298.7624,298.9008,69,110,0
298.8338,298.96774,72,110,0
298.90524,300.03885,61,110,0
298.90524,300.03885,73,110,0
300.04276,300.8826,69,120,0
300.8865,301.0701,69,80,0
300.04276,301.16385,62,120,0
300.04276,301.16385,66,120,0
300.04276,301.16385,74,120,0
300.98026,301.16385,71,80,0
301.074,301.2576,73,80,0
301.16776,301.35135,74,80,0
301.2615,301.4451,76,80,0
301.35526,301.53885,78,80,0
301.449,301.6326,76,80,0
301.54276,301.72635,74,80,0
301.6365,301.8201,69,80,0
301.73026,301.91385,71,80,0
301.824,302.0076,73,80,0
301.91776,302.10135,74,80,0
302.0115,302.1951,76,80,0
302.10526,302.28885,78,80,0
302.199,302.3826,76,80,0
302.29276,302.47635,74,80,0
302.3865,302.5701,69,80,0
302.48026,302.66385,71,80,0
302.574,302.7576,73,80,0
302.66776,302.85135,74,80,0
302.7615,302.9451,76,80,0
302.85526,303.03885,78,80,0
302.949,303.1326,76,80,0
303.04276,303.22635,74,80,0
303.1365,303.3201,69,81,0
303.23026,303.41385,71,82,0
303.324,303.5076,73,83,0
303.41776,303.60135,74,84,0
303.5115,303.6951,76,86,0
303.60526,303.78885,78,87,0
303.699,303.8826,79,88,0
303.79276,303.97635,81,89,0
303.8865,304.0701,80,91,0
303.98026,304.16385,83,92,0
304.074,304.2576,81,93,0
304.16776,304.35135,79,94,0
304.2615,304.4451,78,96,0
304.35526,304.53885,76,97,0
304.449,304.6326,74,98,0
304.54276,305.28885,73,80,0
305.29276,305.41385,76,89,0
305.35526,305.47635,75,90,0
305.41776,305.53885,76,91,0
305.48026,305.60135,75,92,0
305.54276,305.66385,76,93,0
305.60526,305.72635,75,94,0
305.66776,305.78885,76,94,0
305.73026,305.85135,75,95,0
305.79276,305.91385,76,96,0
305.85526,305.97635,75,97,0
305.91776,306.03885,73,98,0
305.98026,306.10135,75,99,0
306.04276,306.41385,73,99,0
306.41776,306.8826,57,120,0
306.8865,307.0701,57,90,0
306.41776,307.16385,50,120,0
306.41776,307.16385,54,120,0
306.41776,307.16385,62,120,0
306.98026,307.16385,59,90,0
307.074,307.2576,61,90,0
307.16776,307.35135,62,90,0
307.2615,307.4451,64,90,0
307.35526,307.53885,66,90,0
307.449,307.6326,64,90,0
307.54276,307.72635,62,90,0
307.6365,307.8201,57,90,0
307.73026,307.91385,59,90,0
307.824,308.0076,61,90,0
307.91776,308.10135,62,90,0
308.0115,308.1951,64,90,0
308.10526,308.28885,66,90,0
308.199,308.3826,64,90,0
308.29276,308.47635,62,90,0
308.3865,308.5701,57,90,0
308.48026,308.66385,59,90,0
308.574,308.7576,61,90,0
308.66776,308.85135,62,90,0
308.7615,308.9451,64,90,0
308.85526,309.03885,66,90,0
308.949,309.1326,64,90,0
309.04276,309.22635,62,90,0
309.1365,309.3201,57,90,0
309.23026,309.41385,59,91,0
309.324,309.5076,61,91,0
309.41776,309.60135,62,92,0
309.5115,309.6951,64,93,0
309.60526,309.78885,66,93,0
309.699,309.8826,64,94,0
309.79276,309.97635,62,94,0
309.8865,310.0701,57,95,0
309.98026,310.16385,59,96,0
310.074,310.2576,61,96,0
310.16776,310.35135,62,97,0
310.2615,310.4451,64,98,0
310.35526,310.53885,66,98,0
310.449,310.6326,64,99,0
310.54276,310.72635,62,99,0
310.6365,310.8201,57,100,0
310.73026,310.91385,59,101,0
310.824,311.0076,61,101,0
310.91776,311.10135,62,102,0
311.0115,311.1951,64,103,0
311.10526,311.28885,66,103,0
311.199,311.3826,67,104,0
311.29276,311.47635,69,104,0
311.3865,311.5701,71,105,0
311.48026,311.66385,73,106,0
311.574,311.7576,74,106,0
311.66776,311.85135,76,107,0
311.7615,311.9451,78,108,0
311.85526,312.03885,79,108,0
311.949,312.1326,80,109,0
312.04276,312.78885,69,120,0
312.04276,312.78885,81,120,0
312.79276,313.53885,61,120,0
312.79276,313.53885,73,120,0
313.54276,314.3129,64,120,0
313.54276,314.3129,76,120,0
314.31693,315.1572,48,120,0
314.31693,315.1572,54,120,0
314.31693,315.1572,60,120,0
315.162,315.38794,49,120,0
315.162,315.6187,52,120,0
315.162,315.6187,61,120,0
315.39276,315.6187,56,80,0
315.39276,315.6187,64,80,0
315.62354,315.80713,56,80,0
315.62354,315.80713,64,80,0
315.81104,315.99463,56,80,0
315.81104,315.99463,64,80,0
315.99854,316.18213,56,80,0
315.99854,316.18213,64,80,0
316.18604,316.36963,56,80,0
316.18604,316.36963,64,80,0
316.37354,316.55713,56,80,0
316.37354,316.55713,63,80,0
316.56104,316.74463,56,80,0
316.56104,316.74463,61,80,0
316.74854,316.93213,60,80,0
316.74854,316.93213,56,80,0
316.93604,317.11963,60,80,0
316.93604,317.11963,68,80,0
317.12354,317.30713,60,80,0
317.12354,317.30713,68,80,0
317.31104,317.49463,60,80,0
317.31104,317.49463,68,80,0
317.49854,317.68213,60,80,0
317.49854,317.68213,68,80,0
317.68604,317.86963,60,80,0
317.68604,317.86963,68,80,0
317.87354,318.05713,61,80,0
317.87354,318.05713,68,80,0
318.06104,318.24463,63,80,0
318.06104,318.24463,68,80,0
318.24854,318.43213,64,80,0
318.24854,318.43213,68,80,0
318.43604,318.61963,56,80,0
318.43604,318.61963,64,80,0
318.62354,318.80713,56,80,0
318.62354,318.80713,64,80,0
318.81104,318.99463,56,80,0
318.81104,318.99463,64,80,0
318.99854,319.18213,56,80,0
318.99854,319.18213,64,80,0
319.18604,319.36963,56,80,0
319.18604,319.36963,64,80,0
319.37354,319.55713,56,80,0
319.37354,319.55713,63,80,0
319.56104,319.74463,56,80,0
319.56104,319.74463,61,80,0
319.74854,319.93213,60,80,0
319.74854,319.93213,56,80,0
319.93604,320.11963,60,80,0
319.93604,320.11963,68,80,0
320.12354,320.30713,60,80,0
320.12354,320.30713,68,80,0
320.31104,320.49463,60,80,0
320.31104,320.49463,68,80,0
320.49854,320.68213,60,80,0
320.49854,320.68213,68,80,0
320.68604,320.86963,60,80,0
320.68604,320.86963,68,80,0
320.87354,321.05713,61,80,0
320.87354,321.05713,68,80,0
321.06104,321.24463,63,80,0
321.06104,321.24463,68,80,0
321.24854,321.43213,64,80,0
321.24854,321.43213,68,80,0
321.43604,321.61963,64,80,0
321.43604,321.61963,68,80,0
321.62354,321.80713,64,80,0
321.62354,321.80713,68,80,0
321.81104,321.99463,61,80,0
321.81104,321.99463,64,80,0
322.18604,322.36963,66,80,0
322.18604,322.36963,69,80,0
322.37354,322.55713,66,80,0
322.37354,322.55713,69,80,0
322.56104,322.74463,61,80,0
322.56104,322.74463,66,80,0
322.93604,323.11963,64,80,0
322.93604,323.11963,68,80,0
323.12354,323.30713,64,80,0
323.12354,323.30713,68,80,0
323.31104,323.49463,61,80,0
323.31104,323.49463,64,80,0
323.68604,323.86963,63,80,0
323.68604,323.86963,68,80,0
323.87354,324.06937,63,80,0
323.87354,324.06937,68,80,0
324.07352,324.28336,60,80,0
324.07352,324.28336,63,80,0
324.2878,324.49762,61,80,0
324.2878,324.49762,64,80,0
324.5021,324.69162,76,83,0
324.5021,324.69162,68,83,0
324.5021,324.69162,64,83,0
324.69565,324.88516,76,87,0
324.69565,324.88516,68,87,0
324.69565,324.88516,64,87,0
324.8892,325.0787,76,91,0
324.8892,325.0787,68,91,0
324.8892,325.0787,64,91,0
325.08273,325.27225,76,94,0
325.08273,325.27225,68,94,0
325.08273,325.27225,64,94,0
325.27628,325.46582,76,98,0
325.27628,325.46582,68,98,0
325.27628,325.46582,64,98,0
325.46985,325.65936,75,102,0
325.46985,325.65936,66,102,0
325.46985,325.65936,63,102,0
325.6634,325.8529,73,106,0
325.6634,325.8529,64,106,0
325.6634,325.8529,61,106,0
325.85693,326.0595,60,109,0
325.85693,326.0595,63,109,0
325.85693,326.0595,72,109,0
326.06384,326.25336,84,110,0
326.06384,326.25336,72,110,0
326.06384,326.25336,75,110,0
326.2574,326.4469,84,110,0
326.2574,326.4469,72,110,0
326.2574,326.4469,75,110,0
326.45093,326.64044,84,110,0
326.45093,326.64044,72,110,0
326.45093,326.64044,75,110,0
326.64447,326.83398,84,110,0
326.64447,326.83398,72,110,0
326.64447,326.83398,75,110,0
326.838,327.02753,84,110,0
326.838,327.02753,72,110,0
326.838,327.02753,75,110,0
327.03156,327.2211,85,110,0
327.03156,327.2211,73,110,0
327.03156,327.2211,76,110,0
327.22513,327.41464,87,110,0
327.22513,327.41464,75,110,0
327.22513,327.41464,78,110,0
327.41867,327.6082,88,110,0
327.41867,327.6082,80,110,0
327.41867,327.6082,76,110,0
327.6122,327.80173,76,90,0
327.6122,327.80173,68,90,0
327.6122,327.80173,64,90,0
327.80576,327.99527,76,92,0
327.80576,327.99527,68,92,0
327.80576,327.99527,64,92,0
327.9993,328.1888,76,95,0
327.9993,328.1888,68,95,0
327.9993,328.1888,64,95,0
328.19287,328.3824,76,98,0
328.19287,328.3824,68,98,0
328.19287,328.3824,64,98,0
328.3864,328.57593,76,101,0
328.3864,328.57593,68,101,0
328.3864,328.57593,64,101,0
328.57996,328.76947,75,104,0
328.57996,328.76947,66,104,0
328.57996,328.76947,63,104,0
328.7735,328.963,73,107,0
328.7735,328.963,64,107,0
328.7735,328.963,61,107,0
328.96704,329.17688,60,109,0
328.96704,329.17688,63,109,0
328.96704,329.17688,72,109,0
329.18134,329.37085,84,110,0
329.18134,329.37085,72,110,0
329.18134,329.37085,75,110,0
329.37488,329.5644,84,110,0
329.37488,329.5644,72,110,0
329.37488,329.5644,75,110,0
329.56842,329.75793,84,110,0
329.56842,329.75793,72,110,0
329.56842,329.75793,75,110,0
329.762,329.9515,84,110,0
329.762,329.9515,72,110,0
329.762,329.9515,75,110,0
329.95554,330.14505,84,110,0
329.95554,330.14505,72,110,0
329.95554,330.14505,75,110,0
330.14908,330.3386,85,110,0
330.14908,330.3386,73,110,0
330.14908,330.3386,76,110,0
330.34262,330.53214,87,110,0
330.34262,330.53214,75,110,0
330.34262,330.53214,78,110,0
330.53616,330.72568,80,110,0
330.53616,330.91925,88,110,0
330.53616,330.91925,76,110,0
330.7297,330.91925,80,80,0
330.7297,330.91925,85,80,0
330.92328,331.11157,80,80,0
330.92328,331.11157,85,80,0
331.11557,331.30386,76,80,0
331.11557,331.30386,80,80,0
331.50018,331.68848,85,80,0
331.50018,331.68848,81,80,0
331.6925,331.8808,85,80,0
331.6925,331.8808,81,80,0
331.8848,332.07312,78,80,0
331.8848,332.07312,81,80,0
332.2682,332.4553,80,80,0
332.2682,332.4553,76,80,0
332.4593,332.6464,80,80,0
332.4593,332.6464,76,80,0
332.65036,332.83746,73,80,0
332.65036,332.83746,76,80,0
333.03253,333.21964,75,80,0
333.03253,333.21964,80,80,0
333.2236,333.4107,75,80,0
333.2236,333.4107,80,80,0
333.4147,333.6018,72,80,0
333.4147,333.6018,75,80,0
333.79565,333.98157,73,82,0
333.79565,333.98157,80,82,0
333.9855,334.17145,73,85,0
333.9855,334.17145,80,85,0
334.17538,334.3613,68,88,0
334.17538,334.3613,76,88,0
334.55515,334.74106,69,94,0
334.55515,334.74106,78,94,0
334.74503,334.93094,69,97,0
334.74503,334.93094,78,97,0
334.93488,335.1208,66,99,0
334.93488,335.1208,74,99,0
335.31464,335.50055,68,100,0
335.31464,335.50055,76,100,0
335.50452,335.69043,68,100,0
335.50452,335.69043,76,100,0
335.69437,335.88028,64,100,0
335.69437,335.88028,73,100,0
336.08426,336.2801,66,92,0
336.08426,336.2801,75,92,0
336.28424,336.49408,66,89,0
336.28424,336.49408,75,89,0
336.49854,336.7245,63,86,0
336.49854,336.7245,72,86,0
336.7293,337.1699,64,80,0
336.7293,337.1699,73,80,0
337.9429,338.314,64,80,0
338.22415,338.40775,61,80,0
338.3179,338.689,60,80,0
338.6929,339.064,54,80,0
338.6929,339.064,60,80,0
338.6929,339.064,68,80,0
339.0679,339.439,54,80,0
339.0679,339.439,60,80,0
339.0679,339.439,68,80,0
339.4429,339.814,54,80,0
339.4429,339.814,60,80,0
339.4429,339.814,68,80,0
339.8179,340.189,52,80,0
339.86478,340.189,61,80,0
339.91165,340.939,68,80,0
340.9429,341.314,76,80,0
341.22415,341.40775,73,80,0
341.3179,341.689,72,80,0
341.6929,342.064,66,80,0
341.6929,342.064,80,80,0
341.6929,342.064,72,80,0
342.0679,342.439,66,80,0
342.0679,342.439,80,80,0
342.0679,342.439,72,80,0
342.4429,342.814,66,80,0
342.4429,342.814,80,80,0
342.4429,342.814,72,80,0
342.8179,343.564,64,80,0
342.86478,343.564,73,80,0
342.91165,343.564,80,80,0
343.5679,344.314,66,80,0
343.61478,344.314,72,80,0
343.66165,344.314,80,80,0
344.3179,345.064,64,80,0
344.36478,345.064,73,80,0
344.41165,345.064,80,80,0
345.0679,345.814,66,80,0
345.11478,345.814,72,80,0
345.16165,345.814,80,80,0
345.8179,346.0015,52,80,0
345.91165,346.09525,61,80,0
346.0054,346.189,56,81,0
346.09915,346.28275,61,82,0
346.1929,346.3765,52,83,0
346.28665,346.47025,61,84,0
346.3804,346.564,56,85,0
346.47415,346.65775,61,86,0
346.5679,346.7515,52,87,0
346.66165,346.84525,61,88,0
346.7554,346.939,56,89,0
346.84915,347.03275,61,90,0
346.9429,347.1265,52,91,0
347.03665,347.22025,61,92,0
347.1304,347.314,56,93,0
347.22415,347.40775,61,94,0
347.3179,347.5015,49,94,0
347.3179,347.5015,53,94,0
347.41165,347.59525,61,95,0
347.5054,347.689,56,96,0
347.59915,347.78275,61,97,0
347.6929,347.8765,49,98,0
347.6929,347.8765,53,98,0
347.78665,347.97025,61,99,0
347.8804,348.064,56,100,0
347.97415,348.15775,61,101,0
348.0679,348.2515,49,102,0
348.0679,348.2515,53,102,0
348.16165,348.34525,61,103,0
348.2554,348.439,56,104,0
348.34915,348.53275,61,105,0
348.4429,348.6265,49,106,0
348.4429,348.6265,53,106,0
348.53665,348.72025,61,107,0
348.6304,348.814,56,108,0
348.72415,348.814,61,109,0
348.8179,348.90775,49,100,0
348.8179,349.0015,54,100,0
348.8179,349.0015,57,100,0
348.8179,349.0015,61,100,0
348.91165,349.09525,49,90,0
349.0054,349.189,54,90,0
349.09915,349.28275,57,90,0
349.1929,349.3765,61,90,0
349.28665,349.47025,54,90,0
349.3804,349.564,57,90,0
349.47415,349.65775,61,90,0
349.5679,349.7515,66,90,0
349.66165,349.84525,57,90,0
349.7554,349.939,61,90,0
349.84915,350.03275,66,90,0
349.9429,350.1265,69,90,0
350.03665,350.22025,61,90,0
350.1304,350.314,66,90,0
350.22415,350.40775,69,90,0
350.3179,350.5015,73,90,0
350.41165,350.59525,66,90,0
350.5054,350.689,69,90,0
350.59915,350.78275,73,90,0
350.6929,350.8765,78,90,0
350.78665,350.97025,69,90,0
350.8804,351.064,73,90,0
350.97415,351.15775,78,90,0
351.0679,351.2515,81,90,0
351.16165,351.34525,73,90,0
351.2554,351.439,78,90,0
351.34915,351.439,81,90,0
351.4429,351.6265,85,110,0
351.4429,351.6265,73,110,0
351.4429,351.6265,78,110,0
351.4429,351.6265,81,110,0
351.6304,351.814,85,100,0
351.6304,351.814,81,100,0
351.6304,351.814,78,100,0
351.6304,351.814,73,100,0
351.91165,352.09525,49,90,0
352.0054,352.189,52,90,0
352.09915,352.28275,56,90,0
352.1929,352.3765,61,90,0
352.28665,352.47025,52,90,0
352.3804,352.564,56,90,0
352.47415,352.65775,61,90,0
352.5679,352.7515,64,90,0
352.66165,352.84525,56,90,0
352.7554,352.939,61,90,0
352.84915,353.03275,64,90,0
352.9429,353.1265,68,90,0
353.03665,353.22025,61,90,0
353.1304,353.314,64,90,0
353.22415,353.40775,68,90,0
353.3179,353.5015,73,90,0
353.41165,353.59525,64,90,0
353.5054,353.689,68,90,0
353.59915,353.78275,73,90,0
353.6929,353.8765,76,90,0
353.78665,353.97025,68,90,0
353.8804,354.064,73,90,0
353.97415,354.15775,76,90,0
354.0679,354.2515,80,90,0
354.16165,354.34525,73,90,0
354.2554,354.439,76,90,0
354.34915,354.439,80,90,0
354.4429,354.6265,73,110,0
354.4429,354.6265,76,110,0
354.4429,354.6265,85,110,0
354.4429,354.6265,80,110,0
354.6304,354.814,73,100,0
354.6304,354.814,76,100,0
354.6304,354.814,85,100,0
354.6304,354.814,80,100,0
355.0054,355.7515,49,92,0
355.05228,355.7515,52,93,0
355.09915,355.7515,55,94,0
355.14603,355.7515,58,95,0
355.1929,355.7515,61,95,0
355.7554,356.5015,61,104,0
355.80228,356.5015,64,105,0
355.84915,356.5015,67,106,0
355.89603,356.5015,70,107,0
355.9429,356.5015,73,107,0
356.5054,357.2515,73,116,0
356.55228,357.2515,76,117,0
356.59915,357.2515,79,118,0
356.64603,357.2515,82,119,0
356.6929,357.814,85,119,0
358.0054,358.7515,45,91,0
358.05228,358.7515,48,92,0
358.09915,358.7515,51,92,0
358.14603,358.7515,54,93,0
358.1929,358.7515,57,93,0
358.7554,359.5015,57,99,0
358.80228,359.5015,60,99,0
358.84915,359.5015,63,100,0
358.89603,359.5015,66,100,0
358.9429,359.5015,69,101,0
359.5054,362.52325,69,106,0
359.8804,362.52325,75,110,0
359.6929,362.5277,72,108,0
360.0679,362.5277,81,125,0
362.5322,362.75815,61,70,0
362.64758,362.86563,68,70,0
362.76297,362.97278,64,70,0
362.8701,363.0764,68,70,0
362.97723,363.17984,61,70,0
363.0807,363.27997,68,70,0
363.18414,363.37997,64,70,0
363.28415,363.47687,68,70,0
363.38416,363.57367,61,70,0
363.48093,363.66754,68,70,0
363.5777,363.7613,64,70,0
363.67145,363.85504,68,70,0
363.7652,363.9488,61,70,0
363.85895,364.04254,68,70,0
363.9527,364.1363,64,70,0
364.04645,364.23004,68,70,0
364.1402,364.3238,63,70,0
364.23395,364.41754,68,70,0
364.3277,364.5113,66,70,0
364.42145,364.60504,68,70,0
364.5152,364.6988,63,70,0
364.60895,364.79254,68,70,0
364.7027,364.8863,66,70,0
364.79645,364.98004,68,70,0
364.8902,365.0738,63,70,0
364.98395,365.16754,68,70,0
365.0777,365.2613,66,70,0
365.17145,365.35504,68,70,0
365.2652,365.4488,63,70,0
365.35895,365.54254,68,70,0
365.4527,365.6363,66,70,0
365.54645,365.73004,68,70,0
365.6402,365.8238,61,70,0
365.73395,365.91754,68,70,0
365.8277,366.0113,64,70,0
365.92145,366.10504,68,70,0
366.0152,366.1988,61,70,0
366.10895,366.29254,68,70,0
366.2027,366.3863,64,70,0
366.29645,366.48004,68,70,0
366.3902,366.5738,61,70,0
366.48395,366.66754,68,70,0
366.5777,366.7613,64,70,0
366.67145,366.85504,68,70,0
366.7652,366.9488,61,70,0
366.85895,367.04254,68,70,0
366.9527,367.1363,64,70,0
367.04645,367.23004,68,70,0
367.1402,367.3238,60,70,0
367.23395,367.41754,68,70,0
367.3277,367.5113,66,70,0
367.42145,367.60504,68,70,0
367.5152,367.6988,60,70,0
367.60895,367.79254,68,70,0
367.7027,367.8863,66,70,0
367.79645,367.98004,68,70,0
367.8902,368.0738,60,70,0
367.98395,368.17044,68,70,0
368.0777,368.2672,66,70,0
368.17447,368.36707,68,70,0
368.27124,368.46707,60,70,0
368.37125,368.58182,68,70,0
368.47122,368.6972,66,70,0
368.5866,368.8126,68,70,0
368.702,368.8126,68,80,0
368.702,369.13535,61,80,0
368.702,369.13535,64,80,0
369.13968,369.90002,68,80,0
369.13968,369.90002,80,80,0
369.904,370.2822,64,80,0
369.904,370.2822,76,80,0
370.1906,370.2822,61,80,0
370.1906,370.2822,73,80,0
370.28616,370.66434,61,80,0
370.28616,370.66434,73,80,0
370.66833,371.2376,60,80,0
370.66833,371.2376,72,80,0
371.24158,371.42868,60,80,0
371.24158,371.42868,72,80,0
371.43265,371.81085,80,90,0
371.43265,371.81085,68,90,0
371.7193,371.90637,60,80,0
371.7193,371.90637,72,80,0
371.81482,372.19302,63,80,0
371.81482,372.19302,75,80,0
372.197,372.76627,61,80,0
372.197,372.76627,73,80,0
372.77023,372.95734,61,80,0
372.77023,372.95734,73,80,0
372.96133,373.3395,68,90,0
372.96133,373.3395,80,90,0
373.24796,373.43506,61,80,0
373.24796,373.43506,73,80,0
373.34348,373.72168,64,80,0
373.34348,373.72168,76,80,0
373.72565,374.29492,63,80,0
373.72565,374.29492,75,80,0
374.2989,374.486,63,80,0
374.2989,374.486,75,80,0
374.49,374.86816,68,90,0
374.49,374.86816,80,90,0
374.7766,374.96487,63,80,0
374.7766,374.96487,75,80,0
374.87213,375.06168,66,90,0
374.87213,375.06168,78,90,0
375.0657,375.25522,64,91,0
375.0657,375.25522,76,91,0
375.25925,375.44876,73,92,0
375.25925,375.44876,85,92,0
375.4528,375.6423,64,93,0
375.4528,375.6423,76,93,0
375.64633,375.84216,66,94,0
375.64633,375.84216,78,94,0
375.84634,376.04218,65,96,0
375.84634,376.04218,77,96,0
376.04633,376.24216,73,97,0
376.04633,376.24216,85,97,0
376.24634,376.44217,65,98,0
376.24634,376.44217,77,98,0
376.44635,376.64893,68,99,0
376.44635,376.64893,80,99,0
376.65323,376.85583,66,101,0
376.65323,376.85583,78,101,0
376.86014,377.0627,73,102,0
376.86014,377.0627,85,102,0
377.06702,377.26962,66,103,0
377.06702,377.26962,78,103,0
377.27393,377.48373,69,104,0
377.27393,377.48373,81,104,0
377.48822,377.69803,68,106,0
377.48822,377.69803,80,106,0
377.70248,377.92847,73,107,0
377.70248,377.92847,85,107,0
377.93326,378.2636,68,108,0
377.93326,378.2636,80,108,0
378.27255,378.77322,81,120,0
378.55826,378.9271,78,120,0
378.77805,379.06107,73,120,0
378.9319,379.1905,69,120,0
379.06522,379.3155,66,120,0
379.1944,379.4405,61,120,0
379.3194,379.5655,69,120,0
379.4444,379.6905,66,120,0
379.5694,379.8155,61,120,0
379.6944,379.9405,57,120,0
379.8194,380.0655,54,120,0
379.9444,380.1905,49,120,0
380.0694,380.253,57,120,0
380.16315,380.34674,54,120,0
380.2569,380.4405,49,120,0
380.35065,380.53424,45,120,0
380.4444,380.628,49,120,0
380.53815,380.72174,54,120,0
380.6319,380.8155,57,120,0
380.72565,380.90924,61,120,0
380.8194,381.003,66,120,0
380.91315,381.09674,69,120,0
381.0069,381.1905,73,120,0
381.10065,381.28424,78,120,0
381.1944,381.378,81,120,0
381.28815,381.47174,78,120,0
381.3819,381.5655,73,120,0
381.47565,381.5655,69,120,0
381.5694,381.8155,81,120,0
381.6944,381.9405,78,120,0
381.8194,382.0655,74,120,0
381.9444,382.1905,69,120,0
382.0694,382.3155,66,120,0
382.1944,382.4405,62,120,0
382.3194,382.5655,69,120,0
382.4444,382.6905,66,120,0
382.5694,382.8155,62,120,0
382.6944,382.9405,57,120,0
382.8194,383.0655,54,120,0
382.9444,383.1905,50,120,0
383.0694,383.253,57,120,0
383.16315,383.34674,54,120,0
383.2569,383.4405,50,120,0
383.35065,383.53424,45,120,0
383.4444,383.628,50,120,0
383.53815,383.72174,54,120,0
383.6319,383.8155,57,120,0
383.72565,383.90924,62,120,0
383.8194,384.003,66,120,0
383.91315,384.09674,69,120,0
384.0069,384.1905,74,120,0
384.10065,384.28424,78,120,0
384.1944,384.378,81,120,0
384.28815,384.47174,78,120,0
384.3819,384.5655,74,120,0
384.47565,384.5655,69,120,0
384.5694,384.8155,85,120,0
384.6944,384.9405,82,120,0
384.8194,385.0655,79,120,0
384.9444,385.1905,76,120,0
385.0694,385.3155,73,120,0
385.1944,385.4405,70,120,0
385.3194,385.5655,76,120,0
385.4444,385.6905,73,120,0
385.5694,385.8155,70,120,0
385.6944,385.878,67,120,0
385.78815,385.97174,64,120,0
385.8819,386.0655,61,120,0
385.97565,386.15924,58,120,0
386.0694,386.253,64,120,0
386.16315,386.34674,61,120,0
386.2569,386.4405,58,120,0
386.35065,386.53424,55,120,0
386.4444,386.628,52,120,0
386.53815,386.72174,49,120,0
386.6319,386.8155,52,120,0
386.72565,386.90924,55,120,0
386.8194,386.9405,58,120,0
386.8819,387.003,61,120,0
386.9444,387.0655,64,120,0
387.0069,387.128,67,120,0
387.0694,387.1905,70,120,0
387.1319,387.253,73,120,0
387.1944,387.3155,76,120,0
387.2569,387.378,79,120,0
387.3194,387.4405,82,120,0
387.3819,387.503,85,120,0
387.4444,387.5655,82,120,0
387.5069,387.5655,79,120,0
387.5694,387.8155,88,120,0
387.6944,387.9405,85,120,0
387.8194,388.0655,80,120,0
387.9444,388.1905,76,120,0
388.0694,388.3155,73,120,0
388.1944,388.4405,68,120,0
388.3194,388.5655,76,120,0
388.4444,388.6905,73,120,0
388.5694,388.8155,68,120,0
388.6944,388.878,64,120,0
388.78815,388.97174,73,120,0
388.8819,389.0655,68,120,0
388.97565,389.15924,64,120,0
389.0694,389.253,61,120,0
389.16315,389.34674,68,120,0
389.2569,389.4405,64,120,0
389.35065,389.53424,61,120,0
389.4444,389.628,56,120,0
389.53815,389.72174,64,120,0
389.6319,389.8155,61,120,0
389.72565,389.90924,56,120,0
389.8194,390.003,52,120,0
389.91315,390.09674,61,120,0
390.0069,390.1905,56,120,0
390.10065,390.28424,52,120,0
390.1944,390.378,49,120,0
390.28815,390.84674,56,120,0
390.3819,390.9405,52,120,0
390.47565,390.9405,49,120,0
390.9444,391.128,48,110,0
391.03815,391.22174,49,110,0
391.1319,391.3155,50,110,0
391.22565,391.40924,51,110,0
391.3194,391.503,52,110,0
391.41315,391.59674,53,110,0
391.5069,391.6905,54,110,0
391.60065,391.78424,55,110,0
391.6944,391.878,56,110,0
391.78815,391.97174,57,110,0
391.8819,392.0655,58,110,0
391.97565,392.15924,59,110,0
392.0694,392.253,60,110,0
392.16315,392.34674,61,110,0
392.2569,392.4405,62,110,0
392.35065,392.53424,63,110,0
392.4444,392.628,64,110,0
392.5147,392.6983,65,110,0
392.58502,392.76862,66,110,0
392.65924,392.84283,67,110,0
392.7647,392.9483,68,110,0
392.8194,393.003,69,110,0
392.8897,393.0733,70,110,0
392.96002,393.14362,71,110,0
393.03424,393.21783,72,110,0
393.1944,393.3155,74,110,0
393.1397,393.3233,73,110,0
393.2569,393.378,75,110,0
393.3194,393.4405,76,110,0
393.3819,393.47174,77,110,0
393.42877,393.51862,78,110,0
393.47565,393.5655,79,110,0
393.52252,393.5655,80,110,0
393.5694,393.6905,81,100,0
393.6319,393.753,83,100,0
393.6944,393.8155,81,100,0
393.7569,393.878,83,100,0
393.8194,393.9405,81,100,0
393.8819,394.003,83,100,0
393.9444,394.0655,81,100,0
394.0069,394.128,83,100,0
394.0694,394.1905,81,100,0
394.1319,394.253,83,100,0
394.1944,394.3155,81,100,0
394.2569,394.378,83,100,0
394.3194,394.4405,81,100,0
394.3819,394.503,83,100,0
394.4444,394.5655,81,100,0
394.5069,394.628,83,100,0
394.5694,394.6905,81,100,0
394.6319,394.753,83,100,0
394.6944,394.8155,81,100,0
394.7569,394.878,83,100,0
394.8194,394.9405,81,100,0
394.8819,395.003,83,100,0
394.9444,395.4405,81,100,0
395.0694,395.4405,80,100,0
395.16315,395.4405,78,100,0
395.0069,395.503,83,100,0
395.2569,395.628,76,99,0
395.35065,395.72174,75,98,0
395.4444,395.8155,78,98,0
395.53815,395.90924,73,97,0
395.6319,396.003,72,96,0
395.72565,396.09674,75,95,0
395.8194,396.09674,69,95,0
395.91315,396.28424,68,94,0
396.0069,396.378,66,93,0
396.10065,396.47174,69,92,0
396.1944,396.5655,64,92,0
396.28815,396.65924,63,91,0
396.3819,396.753,66,90,0
396.47565,396.84674,61,89,0
396.5694,396.9405,60,89,0
396.66315,397.03424,63,88,0
396.7569,397.03424,57,87,0
396.85065,397.22174,56,86,0
396.9444,397.3155,54,86,0
397.03815,397.40924,57,85,0
397.1319,397.503,52,84,0
397.3194,397.6905,51,83,0
397.5069,397.878,54,81,0
397.6944,398.0655,49,80,0
397.8819,398.628,48,78,0
398.0694,399.5655,51,77,0
398.4444,399.5655,45,74,0
398.8194,399.9405,44,71,0
399.5694,401.0655,43,70,0
401.0694,402.5655,44,70,0
403.81015,404.18124,64,80,0
404.0914,404.275,61,80,0
404.18515,404.55624,60,80,0
404.56015,404.93124,54,80,0
404.56015,404.93124,60,80,0
404.56015,404.93124,68,80,0
404.93515,405.30624,54,80,0
404.93515,405.30624,60,80,0
404.93515,405.30624,68,80,0
405.31015,405.68124,54,80,0
405.31015,405.68124,60,80,0
405.31015,405.68124,68,80,0
405.68515,406.05624,52,80,0
405.73203,406.05624,61,80,0
405.7789,406.80624,68,80,0
406.81015,407.18124,76,80,0
407.0914,407.275,73,80,0
407.18515,407.55624,72,80,0
407.56015,407.93124,66,80,0
407.56015,407.93124,80,80,0
407.56015,407.93124,72,80,0
407.93515,408.30624,66,80,0
407.93515,408.30624,80,80,0
407.93515,408.30624,72,80,0
408.31015,408.68124,66,80,0
408.31015,408.68124,80,80,0
408.31015,408.68124,72,80,0
408.68515,409.43124,64,80,0
408.73203,409.43124,73,80,0
408.7789,409.43124,80,80,0
409.43515,410.18124,66,80,0
409.48203,410.18124,72,80,0
409.5289,410.18124,80,80,0
410.18515,410.93124,64,80,0
410.23203,410.93124,73,80,0
410.2789,410.93124,80,80,0
410.93515,411.71997,66,80,0
410.98203,411.71997,72,80,0
411.0289,411.71997,80,80,0
411.72446,411.82712,64,110,0
411.75122,412.02856,73,110,0
411.83157,412.02856,64,110,0
411.93872,412.1223,68,110,0
412.03247,412.21606,73,110,0
412.12622,412.3098,76,110,0
412.21997,412.40356,68,110,0
411.778,412.4973,80,110,0
412.31372,412.4973,73,110,0
412.40747,412.59106,76,110,0
412.50122,412.6848,80,110,0
412.59497,412.77856,73,110,0
412.68872,412.8723,76,110,0
412.78247,412.96606,80,110,0
412.87622,413.0598,85,110,0
412.96997,413.15356,76,110,0
413.06372,413.2473,80,110,0
413.15747,413.34106,85,110,0
413.25122,413.52856,88,110,0
413.34497,413.6223,85,110,0
413.43872,413.71606,80,110,0
413.53247,413.8098,76,110,0
413.62622,413.90356,85,110,0
413.71997,413.9973,80,110,0
413.81372,414.09106,76,110,0
413.90747,414.1848,73,110,0
414.00122,414.27856,80,110,0
414.09497,414.3723,76,110,0
414.18872,414.46606,73,110,0
414.28247,414.5598,68,110,0
414.37622,414.65356,76,110,0
414.46997,414.7473,73,110,0
414.56372,414.84106,68,110,0
414.65747,414.9348,64,110,0
414.75122,415.02856,73,110,0
414.84497,415.1223,68,110,0
414.93872,415.21606,64,110,0
415.03247,415.3098,61,110,0
415.12622,415.40356,68,110,0
415.21997,415.4973,64,110,0
415.31372,415.59106,61,110,0
415.40747,415.6848,56,110,0
415.50122,415.77856,64,110,0
415.59497,415.8723,61,110,0
415.68872,415.96606,56,110,0
415.78247,416.0598,52,110,0
415.87622,416.15356,61,110,0
415.96997,416.2473,56,110,0
416.15747,416.2473,56,110,0
416.06372,416.2473,52,110,0
416.25122,417.0633,49,120,0
417.06757,417.98584,85,120,0
417.06757,417.98584,80,120,0
417.06757,417.98584,76,120,0
417.06757,417.98584,73,120,0
417.99063,419.83197,73,120,0
417.99063,419.83197,68,120,0
417.99063,419.83197,64,120,0
417.99063,419.83197,61,120,0
421.68292,421.9089,61,1,0
0.0,0.18359375,37,80,0
0.1875,0.37109375,44,80,0
0.375,0.55859375,37,80,0
0.5625,0.74609375,44,80,0
0.75,0.93359375,37,80,0
0.9375,1.1210938,44,80,0
1.125,1.3085938,37,80,0
1.3125,1.4960938,44,80,0
1.5,1.6835938,37,80,0
1.6875,1.8710938,44,80,0
1.875,2.0585938,37,80,0
2.0625,2.2460938,44,80,0
2.25,2.4335938,37,80,0
2.4375,2.6210938,44,80,0
2.625,2.9960938,49,100,0
2.625,2.9960938,37,100,0
2.8125,2.9960938,44,100,0
3.0,3.1835938,36,80,0
3.1875,3.3710938,44,80,0
3.375,3.5585938,36,80,0
3.5625,3.7460938,44,80,0
3.75,3.9335938,36,80,0
3.9375,4.1210938,44,80,0
4.125,4.3085938,36,80,0
4.3125,4.4960938,44,80,0
4.5,4.6835938,36,80,0
4.6875,4.8710938,44,80,0
4.875,5.0585938,36,80,0
5.0625,5.2460938,44,80,0
5.25,5.4335938,36,80,0
5.4375,5.6210938,44,80,0
5.625,5.9960938,36,110,0
5.625,5.9960938,48,110,0
5.8125,5.9960938,44,100,0
6.0,6.1835938,35,80,0
6.1875,6.3710938,44,80,0
6.375,6.5585938,35,80,0
6.5625,6.7460938,44,80,0
6.75,6.9335938,35,80,0
6.9375,7.1210938,44,80,0
7.125,7.3085938,35,80,0
7.3125,7.4960938,44,80,0
7.5,7.6835938,35,80,0
7.6875,7.8710938,44,80,0
7.875,8.058594,35,80,0
8.0625,8.246094,44,80,0
8.25,8.433594,35,80,0
8.4375,8.621094,44,80,0
8.625,8.996094,35,110,0
8.625,8.996094,47,110,0
8.8125,8.996094,44,100,0
9.0,9.183594,33,90,0
9.1875,9.371094,44,90,0
9.375,9.558594,33,90,0
9.5625,9.746094,44,90,0
9.75,9.933594,33,90,0
9.9375,10.121094,44,90,0
10.125,10.496094,33,110,0
10.3125,10.496094,44,100,0
10.5,10.683594,33,90,0
10.6875,10.871094,45,90,0
10.875,11.058594,33,90,0
11.0625,11.246094,45,90,0
11.25,11.433594,33,90,0
11.4375,11.621094,45,90,0
11.625,11.996094,33,110,0
11.8125,11.996094,45,100,0
12.0,12.371094,32,110,0
12.0,12.371094,44,110,0
12.1875,12.371094,60,110,0
12.375,12.558594,60,110,0
12.5625,12.746094,61,110,0
12.75,12.933594,63,110,0
12.9375,13.121094,64,110,0
13.125,13.308594,66,110,0
13.3125,13.496094,64,110,0
13.5,13.683594,66,110,0
13.6875,13.871094,64,110,0
13.875,14.058594,69,110,0
14.0625,14.246094,68,110,0
14.25,14.433594,66,110,0
14.4375,14.621094,64,110,0
14.625,14.808594,63,110,0
12.1875,14.996094,56,110,0
14.8125,14.996094,61,110,0
15.0,15.183594,60,110,0
15.1875,15.371094,60,110,0
15.375,15.558594,60,110,0
15.5625,15.746094,61,110,0
15.75,15.933594,63,110,0
15.9375,16.121094,64,110,0
16.125,16.308594,66,110,0
16.3125,16.496094,64,110,0
16.5,16.683594,66,110,0
16.6875,16.871094,64,110,0
16.875,17.058594,69,110,0
17.0625,17.246094,68,110,0
17.25,17.433594,66,110,0
17.4375,17.621094,64,110,0
17.625,17.808594,63,110,0
15.0,17.996094,56,110,0
17.8125,17.996094,61,110,0
18.0,18.183594,60,110,0
18.0,18.183594,56,110,0
18.1875,18.371094,61,110,0
18.1875,18.371094,56,110,0
18.375,18.558594,60,110,0
18.375,18.558594,56,110,0
18.5625,18.746094,61,110,0
18.5625,18.746094,56,110,0
18.75,18.939516,60,110,0
18.75,18.939516,56,110,0
18.943548,19.133064,61,110,0
18.943548,19.133064,56,110,0
19.137096,19.33293,60,110,0
19.137096,19.33293,56,110,0
19.337095,19.532928,61,110,0
19.337095,19.532928,56,110,0
19.537096,19.93293,56,110,0
19.537096,19.93293,60,110,0
19.937096,22.73293,32,110,0
19.937096,22.73293,44,110,0
22.737097,22.92069,37,80,0
22.924597,23.10819,44,80,0
23.112097,23.29569,37,80,0
23.299597,23.48319,44,80,0
23.487097,23.67069,37,80,0
23.674597,23.85819,44,80,0
23.862097,24.04569,37,80,0
24.049597,24.23319,44,80,0
24.237097,24.42069,37,80,0
24.424597,24.60819,44,80,0
24.612097,24.79569,37,80,0
24.799597,24.98319,44,80,0
24.987097,25.17069,37,80,0
25.174597,25.35819,44,80,0
25.362097,25.73319,49,110,0
25.362097,25.73319,37,110,0
25.549597,25.73319,44,100,0
25.737097,25.92069,34,80,0
25.924597,26.10819,49,80,0
26.112097,26.29569,46,80,0
26.299597,26.48319,49,80,0
26.487097,26.67069,46,80,0
26.674597,26.85819,49,80,0
26.862097,27.04569,46,80,0
27.049597,27.23319,49,80,0
27.237097,27.42069,46,80,0
27.424597,27.60819,49,80,0
27.612097,27.79569,46,80,0
27.799597,27.98319,49,80,0
27.987097,28.17069,46,80,0
28.174597,28.35819,49,80,0
28.362097,28.73319,34,110,0
28.362097,28.73319,46,110,0
28.549597,28.73319,49,100,0
28.737097,28.92069,31,90,0
28.924597,29.10819,51,91,0
29.112097,29.29569,43,92,0
29.299597,29.48319,51,93,0
29.487097,29.67069,43,95,0
29.674597,29.85819,51,96,0
29.862097,30.04569,43,97,0
30.049597,30.23319,51,99,0
30.237097,30.42069,43,100,0
30.424597,30.60819,51,101,0
30.612097,30.79569,43,102,0
30.799597,30.98319,51,104,0
30.987097,31.17069,43,105,0
31.174597,31.35819,51,106,0
31.362097,31.771917,43,108,0
31.562096,31.771917,51,109,0
31.776382,31.986202,44,80,0
31.883524,32.08051,51,80,0
31.990667,32.17426,47,80,0
32.084415,32.26801,51,80,0
32.178165,32.36176,44,80,0
32.271915,32.45551,51,80,0
32.365665,32.54926,47,80,0
32.459415,32.64301,51,80,0
32.553165,32.73676,44,80,0
32.646915,32.83051,51,80,0
32.740665,32.92426,47,80,0
32.834415,33.01801,51,80,0
32.928165,33.11176,44,80,0
33.021915,33.20551,51,80,0
33.115665,33.29926,47,80,0
33.209415,33.39301,51,80,0
33.303165,33.48676,46,80,0
33.396915,33.58051,51,80,0
33.490665,33.67426,49,80,0
33.584415,33.76801,51,80,0
33.678165,33.86176,46,80,0
33.771915,33.95551,51,80,0
33.865665,34.04926,49,80,0
33.959415,34.14301,51,80,0
34.053165,34.23676,46,80,0
34.146915,34.33051,51,80,0
34.240665,34.42426,49,80,0
34.334415,34.51801,51,80,0
34.428165,34.61176,46,80,0
34.521915,34.70551,51,80,0
34.615665,34.79926,49,80,0
34.709415,34.89301,51,80,0
34.803165,34.98676,47,80,0
34.896915,35.08051,51,80,0
34.990665,35.17426,47,80,0
35.084415,35.26801,51,80,0
35.178165,35.36176,47,80,0
35.271915,35.45551,51,80,0
35.365665,35.54926,47,80,0
35.459415,35.64301,51,80,0
35.553165,35.73676,47,80,0
35.646915,35.83051,51,80,0
35.740665,35.92426,47,80,0
35.834415,36.01801,51,80,0
35.928165,36.11176,47,80,0
36.021915,36.20551,51,80,0
36.115665,36.29926,47,80,0
36.209415,36.39301,51,80,0
36.303165,36.48676,43,80,0
36.396915,36.58051,51,80,0
36.490665,36.67426,43,80,0
36.584415,36.76801,51,80,0
36.678165,36.86176,43,80,0
36.771915,36.95551,51,80,0
36.865665,37.04926,43,80,0
36.959415,37.14301,51,80,0
37.053165,37.23676,43,80,0
37.146915,37.33051,51,80,0
37.240665,37.42426,43,80,0
37.334415,37.524002,51,80,0
37.428165,37.624,43,80,0
37.528168,37.730846,51,80,0
37.628166,37.83799,43,80,0
37.73531,37.94513,51,80,0
37.842453,38.052273,44,80,0
37.949596,38.152573,51,80,0
38.05674,38.25257,47,80,0
38.15674,38.35257,51,81,0
38.256737,38.45257,44,81,0
38.35674,38.55257,51,82,0
38.456738,38.652573,47,82,0
38.55674,38.75257,51,82,0
38.65674,38.85257,44,83,0
38.756737,38.95257,51,83,0
38.85674,39.05257,47,84,0
38.956738,39.152573,51,84,0
39.05674,39.25257,44,84,0
39.15674,39.35257,51,85,0
39.256737,39.45257,47,85,0
39.35674,39.54948,51,86,0
39.456738,39.646255,46,86,0
39.553513,39.743027,51,86,0
39.650288,39.8398,49,87,0
39.74706,39.936577,51,87,0
39.843834,40.033348,46,88,0
39.94061,40.130123,51,88,0
40.03738,40.2269,49,88,0
40.134155,40.323673,51,89,0
40.23093,40.420444,46,89,0
40.327705,40.51432,51,90,0
40.424477,40.60807,49,90,0
40.518227,40.70182,51,90,0
40.611977,40.79557,46,91,0
40.705727,40.88932,51,91,0
40.799477,40.98307,49,92,0
40.893227,41.07682,51,92,0
40.986977,41.17057,47,92,0
41.080727,41.26432,51,93,0
41.174477,41.35807,47,93,0
41.268227,41.45182,51,94,0
41.361977,41.54557,47,94,0
41.455727,41.63932,51,94,0
41.549477,41.73307,47,95,0
41.643227,41.82682,51,95,0
41.736977,41.92057,47,96,0
41.830727,42.01432,51,96,0
41.924477,42.10807,47,96,0
42.018227,42.20182,51,97,0
42.111977,42.29557,47,97,0
42.205727,42.38932,51,98,0
42.299477,42.48307,47,98,0
42.393227,42.57682,51,98,0
42.486977,42.67057,43,99,0
42.580727,42.76432,51,99,0
42.674477,42.85807,43,100,0
42.768227,42.95182,51,100,0
42.861977,43.04557,43,100,0
42.955727,43.13932,51,101,0
43.049477,43.23307,43,101,0
43.143227,43.32682,51,102,0
43.236977,43.42057,43,102,0
43.330727,43.51432,51,102,0
43.424477,43.60807,43,103,0
43.518227,43.70182,51,103,0
43.611977,43.79557,43,104,0
43.705727,43.88932,51,104,0
43.799477,43.98307,43,104,0
43.893227,44.07682,51,80,0
43.986977,44.17057,42,100,0
44.080727,44.26432,51,100,0
44.174477,44.35807,44,100,0
44.268227,44.45472,51,100,0
44.361977,44.551495,42,100,0
44.45875,44.64827,51,100,0
44.555527,44.74504,44,100,0
44.6523,44.844906,51,100,0
44.749073,44.94491,40,100,0
44.849075,45.051754,49,100,0
44.949074,45.158894,44,100,0
45.056217,45.266037,49,100,0
45.16336,45.37318,40,100,0
45.270504,45.480324,49,100,0
45.377644,45.587467,44,100,0
45.484787,45.687763,49,100,0
45.59193,45.787766,40,100,0
45.69193,45.887764,49,100,0
45.79193,45.987762,42,100,0
45.89193,46.081776,49,100,0
45.991932,46.175526,39,100,0
46.085682,46.269276,47,100,0
46.179432,46.363026,42,100,0
46.273182,46.456776,47,100,0
46.366932,46.550526,39,100,0
46.460682,46.644276,47,100,0
46.554432,46.738026,42,100,0
46.648182,46.831776,47,100,0
46.741932,46.925526,39,100,0
46.835682,47.019276,47,100,0
46.929432,47.113026,42,100,0
47.023182,47.206776,47,100,0
47.116932,47.300526,38,100,0
47.210682,47.394276,47,100,0
47.304432,47.488026,40,100,0
47.398182,47.581776,47,100,0
47.491932,47.675526,38,100,0
47.585682,47.769276,47,100,0
47.679432,47.863026,40,100,0
47.773182,47.95967,47,100,0
47.866932,48.056446,37,100,0
47.963703,48.15322,45,100,0
48.06048,48.249992,40,100,0
48.157253,48.34986,45,100,0
48.25403,48.44986,37,100,0
48.354027,48.556705,45,100,0
48.454025,48.66385,40,100,0
48.56117,48.770992,45,100,0
48.668312,48.87813,37,100,0
48.775455,48.985275,46,100,0
48.8826,49.09242,39,100,0
48.98974,49.186726,46,100,0
49.09688,49.280476,35,100,0
49.19063,49.374226,44,100,0
49.28438,49.467976,39,100,0
49.37813,49.561726,44,100,0
49.47188,49.655476,35,100,0
49.56563,49.749226,44,100,0
49.65938,49.842976,39,100,0
49.75313,49.936726,44,100,0
49.84688,50.030476,35,100,0
49.94063,50.124226,44,100,0
50.03438,50.217976,39,100,0
50.12813,50.217976,44,100,0
50.22188,51.342976,37,120,0
50.22188,51.342976,40,120,0
50.22188,51.342976,45,120,0
50.22188,51.342976,49,120,0
51.72188,52.092976,61,80,0
51.72188,52.092976,64,80,0
51.72188,52.092976,69,80,0
52.47188,52.842976,61,80,0
52.47188,52.842976,64,80,0
52.47188,52.842976,69,80,0
53.22188,53.592976,61,80,0
53.22188,53.592976,64,80,0
53.22188,53.592976,69,80,0
53.59688,53.967976,61,84,0
53.59688,53.967976,64,84,0
53.59688,53.967976,69,84,0
53.97188,54.342976,61,89,0
53.97188,54.342976,64,89,0
53.97188,54.342976,69,89,0
54.34688,54.717976,61,94,0
54.34688,54.717976,64,94,0
54.34688,54.717976,69,94,0
54.72188,54.905476,63,80,0
54.81563,54.999226,71,80,0
54.90938,55.092976,68,80,0
55.00313,55.186726,71,80,0
55.09688,55.280476,63,80,0
55.19063,55.374226,71,80,0
55.28438,55.467976,68,80,0
55.37813,55.561726,71,80,0
55.47188,55.655476,63,80,0
55.56563,55.749226,73,80,0
55.65938,55.842976,67,80,0
55.75313,55.936726,73,80,0
55.84688,56.030476,63,80,0
55.94063,56.124226,73,80,0
56.03438,56.217976,67,80,0
56.12813,56.217976,73,80,0
56.22188,56.592976,71,80,0
56.22188,56.592976,68,80,0
56.22188,56.592976,64,80,0
56.59688,57.342976,37,120,0
56.59688,57.342976,40,120,0
56.59688,57.342976,45,120,0
56.59688,57.342976,49,120,0
58.09688,58.467976,49,80,0
58.09688,58.467976,52,80,0
58.09688,58.467976,57,80,0
58.84688,59.217976,49,80,0
58.84688,59.217976,52,80,0
58.84688,59.217976,57,80,0
59.40938,59.686726,49,81,0
59.40938,59.686726,52,81,0
59.40938,59.686726,57,81,0
59.78438,60.061726,49,85,0
59.78438,60.061726,52,85,0
59.78438,60.061726,57,85,0
60.15938,60.436726,49,89,0
60.15938,60.436726,52,89,0
60.15938,60.436726,57,89,0
60.53438,60.717976,49,93,0
60.53438,60.717976,52,93,0
60.53438,60.717976,57,93,0
60.72188,61.280476,49,94,0
60.72188,61.280476,52,94,0
60.72188,61.280476,57,94,0
62.22188,62.417717,49,110,0
62.321884,62.517715,57,110,0
62.421883,62.617718,52,110,0
62.52188,62.717716,57,110,0
62.621883,62.817715,49,110,0
62.72188,62.917717,57,110,0
62.821884,63.017715,52,110,0
62.921883,63.117718,57,110,0
63.02188,63.217716,50,110,0
63.121883,63.317715,59,110,0
63.22188,63.417717,53,110,0
63.321884,63.517715,59,110,0
63.421883,63.617718,50,110,0
63.52188,63.717716,59,110,0
63.621883,63.817715,53,110,0
63.72188,63.917717,59,110,0
63.821884,64.017715,51,110,0
63.921883,64.117714,59,110,0
64.02188,64.21772,56,110,0
64.12188,64.31772,59,110,0
64.221886,64.41772,51,110,0
64.321884,64.517715,59,110,0
64.42188,64.617714,56,110,0
64.52188,64.72456,59,110,0
64.62188,64.8317,39,110,0
64.72903,64.93885,51,110,0
64.83617,65.04599,50,110,0
64.94331,65.16103,51,110,0
65.05045,65.27641,50,110,0
65.16584,65.3918,51,110,0
65.28122,65.50719,50,110,0
65.39661,65.62257,51,110,0
65.51199,65.932274,44,110,0
65.74276,65.932274,56,80,0
65.93631,66.125824,56,80,0
66.12986,66.319374,56,80,0
66.3234,66.512924,56,80,0
66.51695,66.70647,56,80,0
66.7105,66.90002,58,80,0
66.90405,67.09357,59,80,0
67.097595,67.28711,51,80,0
67.097595,67.28711,61,80,0
67.291145,67.48066,63,80,0
67.291145,67.48066,61,80,0
67.484695,67.67421,63,80,0
67.484695,67.67421,61,80,0
67.67824,67.86776,63,80,0
67.67824,67.86776,61,80,0
67.87179,68.0613,63,80,0
67.87179,68.0613,61,80,0
68.06534,68.25485,63,80,0
68.06534,68.25485,61,80,0
68.25889,68.4484,63,80,0
68.25889,68.4484,59,80,0
68.25889,68.4484,61,80,0
68.45243,68.64195,63,80,0
68.45243,68.64195,58,80,0
68.64598,68.835495,44,80,0
68.64598,68.835495,56,80,0
68.83953,69.029045,56,80,0
69.03307,69.222595,56,80,0
69.22662,69.41614,56,80,0
69.42017,69.60969,56,80,0
69.61372,69.80324,56,80,0
69.80727,69.99679,58,80,0
70.00082,70.19033,59,80,0
70.19437,70.38388,51,80,0
70.19437,70.38388,61,80,0
70.38792,70.57743,63,80,0
70.38792,70.57743,61,80,0
70.58146,70.77097,63,80,0
70.58146,70.77097,61,80,0
70.77501,70.96452,63,80,0
70.77501,70.96452,61,80,0
70.96856,71.15807,63,80,0
70.96856,71.15807,61,80,0
71.1621,71.35162,63,80,0
71.1621,71.35162,61,80,0
71.35565,71.545166,63,80,0
71.35565,71.545166,59,80,0
71.35565,71.545166,61,80,0
71.5492,71.738716,63,80,0
71.5492,71.738716,58,80,0
71.74275,71.93227,44,80,0
71.936295,72.12582,59,80,0
71.936295,72.12582,56,80,0
72.129845,72.31936,56,80,0
72.129845,72.31936,59,80,0
72.323395,72.51291,63,80,0
72.323395,72.51291,59,80,0
72.51694,72.70646,49,80,0
72.71049,72.9,61,80,0
72.71049,72.9,56,80,0
72.90404,73.09355,61,80,0
72.90404,73.09355,56,80,0
73.09759,73.2871,64,80,0
73.09759,73.2871,61,80,0
73.29113,73.48065,51,80,0
73.48468,73.674194,59,80,0
73.48468,73.674194,56,80,0
73.67823,73.867744,59,80,0
73.67823,73.867744,56,80,0
73.87178,74.061295,63,80,0
73.87178,74.061295,59,80,0
74.06532,74.25484,51,80,0
74.25887,74.44839,58,80,0
74.25887,74.44839,55,80,0
74.45242,74.64194,58,80,0
74.45242,74.64194,55,80,0
74.645966,74.83549,63,80,0
74.645966,74.83549,58,80,0
74.839516,75.02903,32,80,0
74.839516,75.02903,44,80,0
75.033066,75.22258,51,80,0
75.033066,75.22258,44,80,0
75.226616,75.41613,51,82,0
75.226616,75.41613,44,82,0
75.42016,75.60968,51,85,0
75.42016,75.60968,44,85,0
75.61371,75.80322,51,88,0
75.61371,75.80322,44,88,0
75.80726,75.99677,51,91,0
75.80726,75.99677,44,91,0
76.00081,76.19032,51,94,0
76.00081,76.19032,46,94,0
76.19435,76.383865,51,97,0
76.19435,76.383865,47,97,0
76.3879,76.61386,39,99,0
76.3879,76.61386,49,99,0
76.3879,76.61386,51,99,0
76.61867,76.80819,61,110,0
76.61867,76.80819,51,110,0
76.81222,77.00173,61,110,0
76.81222,77.00173,51,110,0
77.00577,77.19528,61,110,0
77.00577,77.19528,51,110,0
77.19931,77.38883,61,110,0
77.19931,77.38883,51,110,0
77.39286,77.582375,61,110,0
77.39286,77.582375,51,110,0
77.58641,77.775925,59,110,0
77.58641,77.775925,51,110,0
77.77996,77.969475,58,110,0
77.77996,77.969475,51,110,0
77.9735,78.163025,32,110,0
77.9735,78.163025,44,110,0
78.16705,78.35657,51,80,0
78.16705,78.35657,44,80,0
78.3606,78.55012,51,82,0
78.3606,78.55012,44,82,0
78.55415,78.74367,51,85,0
78.55415,78.74367,44,85,0
78.747696,78.93721,51,88,0
78.747696,78.93721,44,88,0
78.941246,79.13076,51,91,0
78.941246,79.13076,44,91,0
79.134796,79.32431,51,94,0
79.134796,79.32431,46,94,0
79.32834,79.51786,51,97,0
79.32834,79.51786,47,97,0
79.52189,79.74785,39,99,0
79.52189,79.74785,49,99,0
79.52189,79.74785,51,99,0
79.75266,79.94218,61,110,0
79.75266,79.94218,51,110,0
79.946205,80.13572,61,110,0
79.946205,80.13572,51,110,0
80.139755,80.32927,61,110,0
80.139755,80.32927,51,110,0
80.333305,80.52282,61,110,0
80.333305,80.52282,51,110,0
80.52685,80.71637,61,110,0
80.52685,80.71637,51,110,0
80.7204,80.90991,59,110,0
80.7204,80.90991,51,110,0
80.91395,81.10346,58,110,0
80.91395,81.10346,51,110,0
81.1075,81.29701,44,110,0
81.1075,81.29701,56,110,0
81.30104,81.49056,63,80,0
81.30104,81.49056,59,80,0
81.49459,81.684105,63,80,0
81.49459,81.684105,59,80,0
81.68814,81.877655,56,80,0
81.68814,81.877655,59,80,0
81.88168,82.071205,49,80,0
82.07523,82.26475,64,80,0
82.07523,82.26475,61,80,0
82.26878,82.4583,64,80,0
82.26878,82.4583,61,80,0
82.46233,82.65185,56,80,0
82.46233,82.65185,61,80,0
82.655876,82.84418,51,80,0
82.84819,83.03649,63,80,0
82.84819,83.03649,59,80,0
83.0405,83.2288,63,80,0
83.0405,83.2288,59,80,0
83.2328,83.421104,56,80,0
83.2328,83.421104,59,80,0
83.42511,83.61341,49,80,0
83.61742,83.80572,63,80,0
83.61742,83.80572,58,80,0
83.80972,83.998024,63,80,0
83.80972,83.998024,58,80,0
84.00203,84.19033,55,80,0
84.00203,84.19033,58,80,0
84.194336,84.38144,47,80,0
84.38542,84.572525,68,82,0
84.38542,84.572525,63,82,0
84.57651,84.7636,68,85,0
84.57651,84.7636,63,85,0
84.767586,84.95469,59,88,0
84.767586,84.95469,63,88,0
84.95867,85.14577,49,91,0
85.14975,85.33685,69,94,0
85.14975,85.33685,64,94,0
85.340836,85.52794,69,97,0
85.340836,85.52794,64,97,0
85.53191,85.71902,61,99,0
85.53191,85.71902,64,99,0
85.723,85.90891,51,100,0
85.91287,86.09879,68,100,0
85.91287,86.09879,63,100,0
86.102745,86.288666,68,100,0
86.102745,86.288666,63,100,0
86.29262,86.47854,59,100,0
86.29262,86.47854,63,100,0
86.48249,86.66841,51,90,0
86.67236,86.868195,61,87,0
86.67236,86.868195,67,87,0
86.87236,87.082184,61,84,0
86.87236,87.082184,67,84,0
87.08665,87.312614,58,81,0
87.08665,87.312614,61,81,0
87.31742,87.52724,44,70,0
87.42456,87.62155,56,70,0
87.53171,87.7153,51,70,0
87.62546,87.80905,56,70,0
87.71921,87.9028,44,70,0
87.81296,87.99655,56,70,0
87.90671,88.0903,51,70,0
88.00046,88.18405,56,70,0
88.09421,88.2778,44,70,0
88.18796,88.37155,56,70,0
88.28171,88.4653,51,70,0
88.37546,88.55905,56,70,0
88.46921,88.6528,44,70,0
88.56296,88.74655,56,70,0
88.65671,88.8403,51,70,0
88.75046,88.93405,56,70,0
88.84421,89.0278,44,70,0
88.93796,89.12155,58,70,0
89.03171,89.2153,51,70,0
89.12546,89.30905,58,70,0
89.21921,89.4028,44,70,0
89.31296,89.49655,58,70,0
89.40671,89.5903,51,70,0
89.50046,89.68405,58,70,0
89.59421,89.7778,44,70,0
89.68796,89.87155,58,70,0
89.78171,89.9653,51,70,0
89.87546,90.05905,58,70,0
89.96921,90.1528,44,70,0
90.06296,90.24655,58,70,0
90.15671,90.3403,51,70,0
90.25046,90.43405,58,70,0
90.34421,90.5278,44,70,0
90.43796,90.62155,56,70,0
90.53171,90.7153,51,70,0
90.62546,90.80905,56,70,0
90.71921,90.9028,44,70,0
90.81296,90.99655,56,70,0
90.90671,91.0903,51,70,0
91.00046,91.18405,56,70,0
91.09421,91.2778,44,70,0
91.18796,91.37155,56,70,0
91.28171,91.4653,51,70,0
91.37546,91.55905,56,70,0
91.46921,91.6528,44,70,0
91.56296,91.74655,56,70,0
91.65671,91.8403,51,70,0
91.75046,91.93405,56,70,0
91.84421,92.0278,44,70,0
91.93796,92.12155,58,70,0
92.03171,92.2153,51,70,0
92.12546,92.30905,58,70,0
92.21921,92.4028,44,70,0
92.31296,92.49655,58,70,0
92.40671,92.5903,51,70,0
92.50046,92.68405,58,70,0
92.59421,92.7778,44,70,0
92.68796,92.87155,58,70,0
92.78171,92.9653,51,70,0
92.87546,93.05905,58,70,0
92.96921,93.1528,44,70,0
93.06296,93.24655,58,70,0
93.15671,93.3403,51,70,0
93.25046,93.43405,58,70,0
93.34421,93.5278,44,70,0
93.43796,93.62155,56,70,0
93.53171,93.7153,51,70,0
93.62546,93.80905,56,70,0
93.71921,93.9028,44,70,0
93.81296,93.99655,56,70,0
93.90671,94.0903,51,70,0
94.00046,94.18405,56,70,0
94.09421,94.2778,44,70,0
94.18796,94.37155,58,70,0
94.28171,94.4653,51,70,0
94.37546,94.55905,58,70,0
94.46921,94.6528,44,70,0
94.56296,94.74655,58,70,0
94.65671,94.8403,51,70,0
94.75046,94.93405,58,70,0
94.84421,95.0278,44,70,0
94.93796,95.12155,56,70,0
95.03171,95.2153,51,70,0
95.12546,95.30905,56,70,0
95.21921,95.4028,44,70,0
95.31296,95.49655,56,70,0
95.40671,95.5903,51,70,0
95.50046,95.68405,56,70,0
95.59421,95.7778,44,70,0
95.68796,95.87155,58,70,0
95.78171,95.9653,51,70,0
95.87546,96.05905,58,70,0
95.96921,96.1528,44,70,0
96.06296,96.24655,58,70,0
96.15671,96.3403,51,70,0
96.25046,96.43405,58,70,0
96.34421,96.5278,44,80,0
96.43796,96.62155,56,80,0
96.53171,96.7153,51,81,0
96.62546,96.80905,56,82,0
96.71921,96.9028,44,83,0
96.81296,96.99655,56,84,0
96.90671,97.0903,51,85,0
97.00046,97.18405,56,86,0
97.09421,97.2778,44,87,0
97.18796,97.37155,56,88,0
97.28171,97.4653,51,89,0
97.37546,97.55905,56,90,0
97.46921,97.6528,44,91,0
97.56296,97.74655,56,92,0
97.65671,97.8403,51,93,0
97.75046,97.93405,56,94,0
97.84421,98.0278,44,94,0
97.93796,98.12155,51,95,0
98.03171,98.2153,47,96,0
98.12546,98.30905,51,97,0
98.21921,98.4028,44,98,0
98.31296,98.49655,51,99,0
98.40671,98.5903,47,100,0
98.50046,98.68405,51,101,0
98.59421,98.7778,44,102,0
98.68796,98.87155,51,103,0
98.78171,98.9653,47,104,0
98.87546,99.05905,51,105,0
98.96921,99.1528,44,106,0
99.06296,99.24655,51,107,0
99.15671,99.3403,47,108,0
99.25046,99.43405,51,109,0
99.34421,99.5278,37,80,0
99.53171,99.7153,44,80,0
99.71921,99.9028,37,80,0
99.90671,100.0903,44,80,0
100.09421,100.2778,37,80,0
100.28171,100.4653,44,80,0
100.46921,100.6528,37,80,0
100.65671,100.8403,44,80,0
100.84421,101.0278,37,80,0
101.03171,101.2153,44,80,0
101.21921,101.4028,37,80,0
101.40671,101.5903,44,80,0
101.59421,101.7778,37,80,0
101.78171,101.9653,44,80,0
101.96921,102.3403,49,100,0
101.96921,102.3403,37,100,0
102.15671,102.3403,44,100,0
102.34421,102.5278,36,80,0
102.53171,102.7153,44,80,0
102.71921,102.9028,36,80,0
102.90671,103.0903,44,80,0
103.09421,103.2778,36,80,0
103.28171,103.4653,44,80,0
103.46921,103.6528,36,80,0
103.65671,103.8403,44,80,0
103.84421,104.0278,36,80,0
104.03171,104.2153,44,80,0
104.21921,104.4028,36,80,0
104.40671,104.5903,44,80,0
104.59421,104.7778,36,80,0
104.78171,104.9653,44,80,0
104.96921,105.3403,36,110,0
104.96921,105.3403,48,110,0
105.15671,105.3403,44,110,0
105.34421,105.5278,35,80,0
105.53171,105.7153,44,80,0
105.71921,105.9028,35,80,0
105.90671,106.0903,44,80,0
106.09421,106.2778,35,80,0
106.28171,106.4653,44,80,0
106.46921,106.6528,35,80,0
106.65671,106.8403,44,80,0
106.84421,107.0278,35,80,0
107.03171,107.2153,44,80,0
107.21921,107.4028,35,80,0
107.40671,107.5903,44,80,0
107.59421,107.7778,35,80,0
107.78171,107.9653,44,80,0
107.96921,108.3403,35,110,0
107.96921,108.3403,47,110,0
108.15671,108.3403,44,110,0
108.34421,108.5278,33,90,0
108.53171,108.7153,44,90,0
108.71921,108.9028,33,90,0
108.90671,109.0903,44,90,0
109.09421,109.2778,33,90,0
109.28171,109.4653,44,90,0
109.46921,109.8403,33,110,0
109.65671,109.8403,44,110,0
109.84421,110.0278,33,90,0
110.03171,110.2153,45,90,0
110.21921,110.4028,33,90,0
110.40671,110.5903,45,90,0
110.59421,110.7778,33,90,0
110.78171,110.9653,45,90,0
110.96921,111.3403,33,110,0
111.15671,111.3403,45,110,0
111.34421,111.7153,32,110,0
111.34421,111.7153,44,110,0
111.53171,111.7153,60,110,0
111.71921,111.9028,60,110,0
111.90671,112.0903,61,110,0
112.09421,112.2778,63,110,0
112.28171,112.4653,64,110,0
112.46921,112.6528,66,110,0
112.65671,112.8403,64,110,0
112.84421,113.0278,66,110,0
113.03171,113.2153,64,110,0
113.21921,113.4028,69,110,0
113.40671,113.5903,68,110,0
113.59421,113.7778,66,110,0
113.78171,113.9653,64,110,0
113.96921,114.1528,63,110,0
111.53171,114.3403,56,110,0
114.15671,114.3403,61,110,0
114.34421,114.5278,60,110,0
114.53171,114.7153,60,110,0
114.71921,114.9028,60,110,0
114.90671,115.0903,61,110,0
115.09421,115.2778,63,110,0
115.28171,115.4653,64,110,0
115.46921,115.6528,66,110,0
115.65671,115.8403,64,110,0
115.84421,116.0278,66,110,0
116.03171,116.2153,64,110,0
116.21921,116.4028,69,110,0
116.40671,116.5903,68,110,0
116.59421,116.7778,66,110,0
116.78171,116.9653,64,110,0
116.96921,117.1528,63,110,0
114.34421,117.3403,56,110,0
117.15671,117.3403,61,110,0
117.34421,117.5278,60,110,0
117.34421,117.5278,56,110,0
117.53171,117.7153,61,110,0
117.53171,117.7153,56,110,0
117.71921,117.9028,60,110,0
117.71921,117.9028,56,110,0
117.90671,118.0903,61,110,0
117.90671,118.0903,56,110,0
118.09421,118.28372,60,110,0
118.09421,118.28372,56,110,0
118.28775,118.477264,61,110,0
118.28775,118.477264,56,110,0
118.4813,118.67713,60,110,0
118.4813,118.67713,56,110,0
118.6813,118.89112,61,110,0
118.6813,118.89112,56,110,0
118.895584,119.319695,56,110,0
118.895584,119.319695,60,110,0
119.32416,122.31969,32,110,0
119.32416,122.31969,44,110,0
122.32415,122.53397,37,80,0
122.53844,122.72203,44,80,0
122.72594,122.90953,37,80,0
122.91344,123.09703,44,80,0
123.10094,123.28453,37,80,0
123.28844,123.47203,44,80,0
123.47594,123.65953,37,80,0
123.66344,123.84703,44,80,0
123.85094,124.03453,37,80,0
124.03844,124.22203,44,80,0
124.22594,124.40953,37,80,0
124.41344,124.59703,44,80,0
124.60094,124.78453,37,80,0
124.78844,124.97203,44,80,0
124.97594,125.34703,49,110,0
124.97594,125.34703,37,110,0
125.16344,125.34703,44,100,0
125.35094,125.53453,34,80,0
125.53844,125.72203,49,80,0
125.72594,125.90953,46,80,0
125.91344,126.09703,49,80,0
126.10094,126.28453,46,80,0
126.28844,126.47203,49,80,0
126.47594,126.65953,46,80,0
126.66344,126.84703,49,80,0
126.85094,127.03453,46,80,0
127.03844,127.22203,49,80,0
127.22594,127.40953,46,80,0
127.41344,127.59703,49,80,0
127.60094,127.78453,46,80,0
127.78844,127.97203,49,80,0
127.97594,128.34703,34,110,0
127.97594,128.34703,46,110,0
128.16344,128.34703,49,100,0
128.35094,128.53453,31,90,0
128.53844,128.72203,51,91,0
128.72594,128.90953,43,92,0
128.91344,129.09703,51,93,0
129.10094,129.28453,43,95,0
129.28844,129.47203,51,96,0
129.47594,129.65953,43,97,0
129.66344,129.84703,51,99,0
129.85094,130.03453,43,100,0
130.03844,130.22203,51,101,0
130.22594,130.40953,43,102,0
130.41344,130.59703,51,104,0
130.60094,130.79045,43,105,0
130.7945,130.98401,51,106,0
130.98804,131.39786,43,108,0
131.18803,131.39786,51,109,0
131.40231,131.61214,44,80,0
131.50946,131.70645,51,80,0
131.61661,131.8002,47,80,0
131.71036,131.89395,51,80,0
131.80411,131.9877,44,80,0
131.89786,132.08145,51,80,0
131.99161,132.1752,47,80,0
132.08536,132.26895,51,80,0
132.17911,132.3627,44,80,0
132.27286,132.45645,51,80,0
132.36661,132.5502,47,80,0
132.46036,132.64395,51,80,0
132.55411,132.7377,44,80,0
132.64786,132.83145,51,80,0
132.74161,132.9252,47,80,0
132.83536,133.01895,51,80,0
132.92911,133.1127,46,80,0
133.02286,133.20645,51,80,0
133.11661,133.3002,49,80,0
133.21036,133.39395,51,80,0
133.30411,133.4877,46,80,0
133.39786,133.58145,51,80,0
133.49161,133.6752,49,80,0
133.58536,133.76895,51,80,0
133.67911,133.8627,46,80,0
133.77286,133.95645,51,80,0
133.86661,134.0502,49,80,0
133.96036,134.14395,51,80,0
134.05411,134.2377,46,80,0
134.14786,134.33145,51,80,0
134.24161,134.4252,49,80,0
134.33536,134.51895,51,80,0
134.42911,134.6127,47,80,0
134.52286,134.70645,51,80,0
134.61661,134.8002,47,80,0
134.71036,134.89395,51,80,0
134.80411,134.9877,47,80,0
134.89786,135.08145,51,80,0
134.99161,135.1752,47,80,0
135.08536,135.26895,51,80,0
135.17911,135.3627,47,80,0
135.27286,135.45645,51,80,0
135.36661,135.5502,47,80,0
135.46036,135.64395,51,80,0
135.55411,135.7377,47,80,0
135.64786,135.83145,51,80,0
135.74161,135.9252,47,80,0
135.83536,136.01895,51,80,0
135.92911,136.1127,43,80,0
136.02286,136.20645,51,80,0
136.11661,136.3002,43,80,0
136.21036,136.39395,51,80,0
136.30411,136.4877,43,80,0
136.39786,136.58145,51,80,0
136.49161,136.6752,43,80,0
136.58536,136.76895,51,80,0
136.67911,136.8627,43,80,0
136.77286,136.95935,51,80,0
136.86661,137.05612,43,80,0
136.96338,137.15599,51,80,0
137.06015,137.25598,43,80,0
137.16016,137.36284,51,80,0
137.26015,137.46997,43,80,0
137.3673,137.57712,51,80,0
137.47444,137.68427,44,80,0
137.58159,137.77856,51,80,0
137.68872,137.87231,47,80,0
137.78247,137.96606,51,81,0
137.87622,138.05981,44,81,0
137.96997,138.15356,51,82,0
138.06372,138.24731,47,82,0
138.15747,138.34106,51,82,0
138.25122,138.43481,44,83,0
138.34497,138.52856,51,83,0
138.43872,138.62231,47,84,0
138.53247,138.71606,51,84,0
138.62622,138.80981,44,84,0
138.71997,138.90356,51,85,0
138.81372,138.99731,47,85,0
138.90747,139.09106,51,86,0
139.00122,139.18481,46,86,0
139.09497,139.27856,51,86,0
139.18872,139.37231,49,87,0
139.28247,139.46606,51,87,0
139.37622,139.55981,46,88,0
139.46997,139.65356,51,88,0
139.56372,139.74731,49,88,0
139.65747,139.84106,51,89,0
139.75122,139.93481,46,89,0
139.84497,140.02856,51,90,0
139.93872,140.12231,49,90,0
140.03247,140.21606,51,90,0
140.12622,140.30981,46,91,0
140.21997,140.40356,51,91,0
140.31372,140.49731,49,92,0
140.40747,140.59106,51,92,0
140.50122,140.68481,47,92,0
140.59497,140.77856,51,93,0
140.68872,140.87231,47,93,0
140.78247,140.96606,51,94,0
140.87622,141.05981,47,94,0
140.96997,141.15356,51,94,0
141.06372,141.24731,47,95,0
141.15747,141.34106,51,95,0
141.25122,141.43481,47,96,0
141.34497,141.52856,51,96,0
141.43872,141.62231,47,96,0
141.53247,141.71606,51,97,0
141.62622,141.80981,47,97,0
141.71997,141.90356,51,98,0
141.81372,141.99731,47,98,0
141.90747,142.09106,51,98,0
142.00122,142.18481,43,99,0
142.09497,142.27856,51,99,0
142.18872,142.37231,43,100,0
142.28247,142.46606,51,100,0
142.37622,142.55981,43,100,0
142.46997,142.65356,51,101,0
142.56372,142.74731,43,101,0
142.65747,142.84106,51,102,0
142.75122,142.93481,43,102,0
142.84497,143.02856,51,102,0
142.93872,143.12231,43,103,0
143.03247,143.21606,51,103,0
143.12622,143.30981,43,104,0
143.21997,143.40356,51,104,0
143.31372,143.49731,43,104,0
143.40747,143.59106,51,80,0
143.50122,143.68481,42,100,0
143.59497,143.77856,51,100,0
143.68872,143.87231,44,100,0
143.78247,143.96606,51,100,0
143.87622,144.05981,42,100,0
143.96997,144.15356,51,100,0
144.06372,144.24731,44,100,0
144.15747,144.34706,51,100,0
144.25122,144.44705,40,100,0
144.35123,144.54706,49,100,0
144.45122,144.64706,44,100,0
144.55122,144.7539,49,100,0
144.65123,144.86105,40,100,0
144.75836,144.96819,49,100,0
144.86551,145.07533,44,100,0
144.97266,145.18248,49,100,0
145.0798,145.28961,40,100,0
145.18694,145.39676,49,100,0
145.29408,145.5039,42,100,0
145.40123,145.61104,49,100,0
145.50836,145.71819,39,100,0
145.61551,145.8125,47,100,0
145.72266,145.90625,42,100,0
145.8164,146.0,47,100,0
145.91016,146.09375,39,100,0
146.0039,146.1875,47,100,0
146.09766,146.28125,42,100,0
146.1914,146.375,47,100,0
146.28516,146.46875,39,100,0
146.3789,146.5625,47,100,0
146.47266,146.65625,42,100,0
146.5664,146.75,47,100,0
146.66016,146.84375,38,100,0
146.7539,146.9375,47,100,0
146.84766,147.03125,40,100,0
146.9414,147.125,47,100,0
147.03516,147.21875,38,100,0
147.1289,147.3125,47,100,0
147.22266,147.40625,40,100,0
147.3164,147.50598,47,100,0
147.41016,147.60599,37,100,0
147.51015,147.70598,45,100,0
147.61015,147.80598,40,100,0
147.71016,147.91283,45,100,0
147.81015,148.01997,37,100,0
147.9173,148.12712,45,100,0
148.02444,148.23425,40,100,0
148.13158,148.3414,45,100,0
148.23872,148.44855,37,100,0
148.34587,148.5557,46,100,0
148.453,148.66283,39,100,0
148.56015,148.76997,46,100,0
148.6673,148.87712,35,100,0
148.77444,148.97142,44,100,0
148.88158,149.06517,39,100,0
148.97533,149.15892,44,100,0
149.06908,149.25267,35,100,0
149.16283,149.34642,44,100,0
149.25658,149.44017,39,100,0
149.35033,149.53392,44,100,0
149.44408,149.62767,35,100,0
149.53783,149.72142,44,100,0
149.63158,149.81517,39,100,0
149.72533,149.81517,44,100,0
149.81908,150.94017,37,120,0
149.81908,150.94017,40,120,0
149.81908,150.94017,45,120,0
149.81908,150.94017,49,120,0
151.31908,151.69017,61,80,0
151.31908,151.69017,64,80,0
151.31908,151.69017,69,80,0
152.06908,152.44017,61,80,0
152.06908,152.44017,64,80,0
152.06908,152.44017,69,80,0
152.81908,153.19017,61,80,0
152.81908,153.19017,64,80,0
152.81908,153.19017,69,80,0
153.19408,153.56517,61,84,0
153.19408,153.56517,64,84,0
153.19408,153.56517,69,84,0
153.56908,153.94017,61,89,0
153.56908,153.94017,64,89,0
153.56908,153.94017,69,89,0
153.94408,154.31517,61,94,0
153.94408,154.31517,64,94,0
153.94408,154.31517,69,94,0
154.31908,154.50267,63,80,0
154.41283,154.59642,71,80,0
154.50658,154.69017,68,80,0
154.60033,154.78392,71,80,0
154.69408,154.87767,63,80,0
154.78783,154.97142,71,80,0
154.88158,155.06517,68,80,0
154.97533,155.15892,71,80,0
155.06908,155.25267,63,80,0
155.16283,155.34642,73,80,0
155.25658,155.44017,67,80,0
155.35033,155.53392,73,80,0
155.44408,155.62767,63,80,0
155.53783,155.72142,73,80,0
155.63158,155.81517,67,80,0
155.72533,155.81517,73,80,0
155.81908,156.19017,71,80,0
155.81908,156.19017,68,80,0
155.81908,156.19017,64,80,0
156.19408,156.94017,37,120,0
156.19408,156.94017,40,120,0
156.19408,156.94017,45,120,0
156.19408,156.94017,49,120,0
157.69408,158.06517,49,80,0
157.69408,158.06517,52,80,0
157.69408,158.06517,57,80,0
158.44408,158.81517,49,80,0
158.44408,158.81517,52,80,0
158.44408,158.81517,57,80,0
159.00658,159.28392,49,81,0
159.00658,159.28392,52,81,0
159.00658,159.28392,57,81,0
159.38158,159.65892,49,85,0
159.38158,159.65892,52,85,0
159.38158,159.65892,57,85,0
159.75658,160.03392,49,89,0
159.75658,160.03392,52,89,0
159.75658,160.03392,57,89,0
160.13158,160.31517,49,93,0
160.13158,160.31517,52,93,0
160.13158,160.31517,57,93,0
160.31908,160.87767,49,94,0
160.31908,160.87767,52,94,0
160.31908,160.87767,57,94,0
161.81908,162.00859,49,110,0
161.91585,162.10538,57,110,0
162.01263,162.20215,52,110,0
162.1094,162.29892,57,110,0
162.20618,162.39569,49,110,0
162.30295,162.49246,57,110,0
162.39972,162.58923,52,110,0
162.49649,162.68602,57,110,0
162.59328,162.78279,50,110,0
162.69005,162.87956,59,110,0
162.78682,162.97633,53,110,0
162.88359,163.0731,59,110,0
162.98036,163.16989,50,110,0
163.07715,163.26666,59,110,0
163.17392,163.36343,53,110,0
163.27069,163.46141,59,110,0
163.36746,163.55946,51,110,0
163.4655,163.6575,59,110,0
163.56354,163.75554,56,110,0
163.66158,163.85358,59,110,0
163.75961,163.95161,51,110,0
163.85767,164.04965,59,110,0
163.9557,164.14769,56,110,0
164.05374,164.2476,59,110,0
164.15178,164.34761,39,110,0
164.25177,164.44762,51,110,0
164.35178,164.5476,50,110,0
164.45178,164.65445,51,110,0
164.55177,164.7616,50,110,0
164.65892,164.86874,51,110,0
164.76607,164.97588,50,110,0
164.8732,165.08302,51,110,0
164.98035,165.37822,44,110,0
165.19463,165.37822,56,80,0
165.38213,165.56572,56,80,0
165.56963,165.75322,56,80,0
165.75713,165.94072,56,80,0
165.94463,166.12822,56,80,0
166.13213,166.31572,58,80,0
166.31963,166.50322,59,80,0
166.50713,166.69072,51,80,0
166.50713,166.69072,61,80,0
166.69463,166.87822,63,80,0
166.69463,166.87822,61,80,0
166.88213,167.06572,63,80,0
166.88213,167.06572,61,80,0
167.06963,167.25322,63,80,0
167.06963,167.25322,61,80,0
167.25713,167.44072,63,80,0
167.25713,167.44072,61,80,0
167.44463,167.62822,63,80,0
167.44463,167.62822,61,80,0
167.63213,167.81572,63,80,0
167.63213,167.81572,59,80,0
167.63213,167.81572,61,80,0
167.81963,168.00322,63,80,0
167.81963,168.00322,58,80,0
168.00713,168.19072,44,80,0
168.00713,168.19072,56,80,0
168.19463,168.37822,56,80,0
168.38213,168.56572,56,80,0
168.56963,168.75322,56,80,0
168.75713,168.94072,56,80,0
168.94463,169.12822,56,80,0
169.13213,169.31572,58,80,0
169.31963,169.50322,59,80,0
169.50713,169.69072,51,80,0
169.50713,169.69072,61,80,0
169.69463,169.87822,63,80,0
169.69463,169.87822,61,80,0
169.88213,170.06572,63,80,0
169.88213,170.06572,61,80,0
170.06963,170.25322,63,80,0
170.06963,170.25322,61,80,0
170.25713,170.44072,63,80,0
170.25713,170.44072,61,80,0
170.44463,170.62822,63,80,0
170.44463,170.62822,61,80,0
170.63213,170.81572,63,80,0
170.63213,170.81572,59,80,0
170.63213,170.81572,61,80,0
170.81963,171.00322,63,80,0
170.81963,171.00322,58,80,0
171.00713,171.19072,44,80,0
171.19463,171.37822,59,80,0
171.19463,171.37822,56,80,0
171.38213,171.56572,56,80,0
171.38213,171.56572,59,80,0
171.56963,171.75322,63,80,0
171.56963,171.75322,59,80,0
171.75713,171.94072,49,80,0
171.94463,172.12822,61,80,0
171.94463,172.12822,56,80,0
172.13213,172.31572,61,80,0
172.13213,172.31572,56,80,0
172.31963,172.50322,64,80,0
172.31963,172.50322,61,80,0
172.50713,172.69072,51,80,0
172.69463,172.87822,59,80,0
172.69463,172.87822,56,80,0
172.88213,173.06572,59,80,0
172.88213,173.06572,56,80,0
173.06963,173.25322,63,80,0
173.06963,173.25322,59,80,0
173.25713,173.44666,51,80,0
173.45068,173.6402,58,80,0
173.45068,173.6402,55,80,0
173.64423,173.84006,58,80,0
173.64423,173.84006,55,80,0
173.84422,174.05405,63,80,0
173.84422,174.05405,58,80,0
174.05852,174.26834,32,80,0
174.05852,174.26834,44,80,0
174.2728,174.46231,51,80,0
174.2728,174.46231,44,80,0
174.46635,174.65587,51,82,0
174.46635,174.65587,44,82,0
174.6599,174.84941,51,85,0
174.6599,174.84941,44,85,0
174.85344,175.04295,51,88,0
174.85344,175.04295,44,88,0
175.047,175.23651,51,91,0
175.047,175.23651,44,91,0
175.24054,175.43005,51,94,0
175.24054,175.43005,46,94,0
175.43408,175.6236,51,97,0
175.43408,175.6236,47,97,0
175.62764,175.85359,39,99,0
175.62764,175.85359,49,99,0
175.62764,175.85359,51,99,0
175.8584,176.04793,61,110,0
175.8584,176.04793,51,110,0
176.05196,176.24147,61,110,0
176.05196,176.24147,51,110,0
176.2455,176.43501,61,110,0
176.2455,176.43501,51,110,0
176.43904,176.62857,61,110,0
176.43904,176.62857,51,110,0
176.6326,176.82211,61,110,0
176.6326,176.82211,51,110,0
176.82614,177.01566,59,110,0
176.82614,177.01566,51,110,0
177.0197,177.20921,58,110,0
177.0197,177.20921,51,110,0
177.21324,177.41583,32,110,0
177.21324,177.41583,44,110,0
177.42014,177.60965,51,80,0
177.42014,177.60965,44,80,0
177.61368,177.8032,51,82,0
177.61368,177.8032,44,82,0
177.80724,177.99675,51,85,0
177.80724,177.99675,44,85,0
178.00078,178.19029,51,88,0
178.00078,178.19029,44,88,0
178.19434,178.38385,51,91,0
178.19434,178.38385,44,91,0
178.38788,178.5774,51,94,0
178.38788,178.5774,46,94,0
178.58142,178.77094,51,97,0
178.58142,178.77094,47,97,0
178.77498,179.00093,39,99,0
178.77498,179.00093,49,99,0
178.77498,179.00093,51,99,0
179.00574,179.19525,61,110,0
179.00574,179.19525,51,110,0
179.1993,179.38881,61,110,0
179.1993,179.38881,51,110,0
179.39284,179.58235,61,110,0
179.39284,179.58235,51,110,0
179.58638,179.7759,61,110,0
179.58638,179.7759,51,110,0
179.77994,179.96945,61,110,0
179.77994,179.96945,51,110,0
179.97348,180.163,59,110,0
179.97348,180.163,51,110,0
180.16702,180.35655,58,110,0
180.16702,180.35655,51,110,0
180.36058,180.54887,44,110,0
180.36058,180.54887,56,110,0
180.55289,180.74118,63,80,0
180.55289,180.74118,59,80,0
180.7452,180.93349,63,80,0
180.7452,180.93349,59,80,0
180.9375,181.12581,56,80,0
180.9375,181.12581,59,80,0
181.1298,181.31812,49,80,0
181.32211,181.51042,64,80,0
181.32211,181.51042,61,80,0
181.51442,181.70273,64,80,0
181.51442,181.70273,61,80,0
181.70673,181.89503,56,80,0
181.70673,181.89503,61,80,0
181.89903,182.08614,51,80,0
182.09012,182.27722,63,80,0
182.09012,182.27722,59,80,0
182.2812,182.4683,63,80,0
182.2812,182.4683,59,80,0
182.47229,182.6594,56,80,0
182.47229,182.6594,59,80,0
182.66336,182.85046,49,80,0
182.85445,183.04155,63,80,0
182.85445,183.04155,58,80,0
183.04553,183.23264,63,80,0
183.04553,183.23264,58,80,0
183.23662,183.42372,55,80,0
183.23662,183.42372,58,80,0
183.4277,183.61362,47,80,0
183.61757,183.80348,68,82,0
183.61757,183.80348,63,82,0
183.80745,183.99336,68,85,0
183.80745,183.99336,63,85,0
183.99731,184.18323,59,88,0
183.99731,184.18323,63,88,0
184.1872,184.37311,49,91,0
184.37706,184.56297,69,94,0
184.37706,184.56297,64,94,0
184.56694,184.75285,69,97,0
184.56694,184.75285,64,97,0
184.7568,184.94273,61,99,0
184.7568,184.94273,64,99,0
184.94669,185.1326,51,100,0
185.13655,185.32248,68,100,0
185.13655,185.32248,63,100,0
185.32643,185.51234,68,100,0
185.32643,185.51234,63,100,0
185.5163,185.70222,59,100,0
185.5163,185.70222,63,100,0
185.70618,185.89569,51,90,0
185.89972,186.08923,61,87,0
185.89972,186.08923,67,87,0
186.09328,186.28911,61,84,0
186.09328,186.28911,67,84,0
186.29327,186.51086,58,81,0
186.29327,186.51086,61,81,0
186.51549,186.73308,44,70,0
186.6266,186.82756,56,70,0
186.73772,186.92131,51,70,0
186.83147,187.01506,56,70,0
186.92522,187.10881,44,70,0
187.01897,187.20256,56,70,0
187.11272,187.29631,51,70,0
187.20647,187.39006,56,70,0
187.30022,187.48381,44,70,0
187.39397,187.57756,56,70,0
187.48772,187.67131,51,70,0
187.58147,187.76506,56,70,0
187.67522,187.85881,44,70,0
187.76897,187.95256,56,70,0
187.86272,188.04631,51,70,0
187.95647,188.14006,56,70,0
188.05022,188.23381,44,70,0
188.14397,188.32756,58,70,0
188.23772,188.42131,51,70,0
188.33147,188.51506,58,70,0
188.42522,188.60881,44,70,0
188.51897,188.70256,58,70,0
188.61272,188.79631,51,70,0
188.70647,188.89006,58,70,0
188.80022,188.98381,44,70,0
188.89397,189.07756,58,70,0
188.98772,189.17131,51,70,0
189.08147,189.26506,58,70,0
189.17522,189.35881,44,70,0
189.26897,189.45256,58,70,0
189.36272,189.54631,51,70,0
189.45647,189.64006,58,70,0
189.55022,189.73381,44,70,0
189.64397,189.82756,56,70,0
189.73772,189.92131,51,70,0
189.83147,190.01506,56,70,0
189.92522,190.10881,44,70,0
190.01897,190.20256,56,70,0
190.11272,190.29631,51,70,0
190.20647,190.39006,56,70,0
190.30022,190.48381,44,70,0
190.39397,190.57756,56,70,0
190.48772,190.67131,51,70,0
190.58147,190.76506,56,70,0
190.67522,190.85881,44,70,0
190.76897,190.95256,56,70,0
190.86272,191.04631,51,70,0
190.95647,191.14006,56,70,0
191.05022,191.23381,44,70,0
191.14397,191.32756,58,70,0
191.23772,191.42131,51,70,0
191.33147,191.51506,58,70,0
191.42522,191.60881,44,70,0
191.51897,191.70256,58,70,0
191.61272,191.79631,51,70,0
191.70647,191.89006,58,70,0
191.80022,191.98381,44,70,0
191.89397,192.07756,58,70,0
191.98772,192.17131,51,70,0
192.08147,192.26506,58,70,0
192.17522,192.35881,44,70,0
192.26897,192.45256,58,70,0
192.36272,192.54631,51,70,0
192.45647,192.64006,58,70,0
192.55022,192.73381,44,70,0
192.64397,192.82756,56,70,0
192.73772,192.92131,51,70,0
192.83147,193.01506,56,70,0
192.92522,193.10881,44,70,0
193.01897,193.20256,56,70,0
193.11272,193.29631,51,70,0
193.20647,193.39006,56,70,0
193.30022,193.48381,44,70,0
193.39397,193.57756,58,70,0
193.48772,193.67131,51,70,0
193.58147,193.76506,58,70,0
193.67522,193.85881,44,70,0
193.76897,193.95256,58,70,0
193.86272,194.04631,51,70,0
193.95647,194.14006,58,70,0
194.05022,194.23381,44,70,0
194.14397,194.32756,56,70,0
194.23772,194.42131,51,70,0
194.33147,194.51506,56,70,0
194.42522,194.60881,44,70,0
194.51897,194.70256,56,70,0
194.61272,194.79631,51,70,0
194.70647,194.89006,56,70,0
194.80022,194.98381,44,70,0
194.89397,195.07756,58,70,0
194.98772,195.17131,51,70,0
195.08147,195.26506,58,70,0
195.17522,195.35881,44,70,0
195.26897,195.45256,58,70,0
195.36272,195.54631,51,70,0
195.45647,195.64006,58,70,0
195.55022,195.73381,44,80,0
195.64397,195.82756,56,80,0
195.73772,195.92131,51,81,0
195.83147,196.01506,56,82,0
195.92522,196.10881,44,83,0
196.01897,196.20256,56,84,0
196.11272,196.29631,51,85,0
196.20647,196.39006,56,86,0
196.30022,196.48381,44,87,0
196.39397,196.57756,56,88,0
196.48772,196.67131,51,89,0
196.58147,196.76506,56,90,0
196.67522,196.85881,44,91,0
196.76897,196.95256,56,92,0
196.86272,197.04631,51,93,0
196.95647,197.14006,56,94,0
197.05022,197.23381,44,94,0
197.14397,197.32756,51,95,0
197.23772,197.42131,47,96,0
197.33147,197.51506,51,97,0
197.42522,197.60881,44,98,0
197.51897,197.70256,51,99,0
197.61272,197.79631,47,100,0
197.70647,197.89006,51,101,0
197.80022,197.98381,44,102,0
197.89397,198.07756,51,103,0
197.98772,198.17131,47,104,0
198.08147,198.26506,51,105,0
198.17522,198.35881,44,106,0
198.26897,198.45256,51,107,0
198.36272,198.54631,47,108,0
198.45647,198.64006,51,109,0
198.55022,198.73381,37,110,0
198.73772,198.92131,44,80,0
198.92522,199.10881,37,80,0
199.11272,199.29631,44,80,0
199.30022,199.48381,37,80,0
199.48772,199.67131,44,80,0
199.67522,199.85881,37,80,0
199.86272,200.04631,44,80,0
200.05022,200.23381,37,80,0
200.23772,200.42131,44,80,0
200.42522,200.60881,37,80,0
200.61272,200.79631,44,80,0
200.80022,200.98381,37,80,0
200.98772,201.17131,44,80,0
201.17522,201.54631,37,110,0
201.17522,201.54631,49,110,0
201.36272,201.54631,44,110,0
201.55022,201.73381,35,100,0
201.73772,201.92131,44,80,0
201.92522,202.10881,35,80,0
202.11272,202.29631,44,80,0
202.30022,202.48381,35,80,0
202.48772,202.67131,44,80,0
202.67522,202.85881,35,80,0
202.86272,203.04631,44,80,0
203.05022,203.23381,35,80,0
203.23772,203.42131,44,80,0
203.42522,203.60881,35,80,0
203.61272,203.79631,44,80,0
203.80022,203.98381,35,80,0
203.98772,204.17131,44,80,0
204.17522,204.54631,35,110,0
204.17522,204.54631,49,110,0
204.36272,204.54631,44,110,0
204.55022,204.73381,33,80,0
204.73772,204.92131,45,80,0
204.92522,205.10881,33,80,0
205.11272,205.29631,45,80,0
205.30022,205.48381,33,80,0
205.48772,205.67131,45,80,0
205.67522,206.04631,33,110,0
205.86272,206.04631,45,110,0
206.05022,206.23381,29,80,0
206.23772,206.42131,41,80,0
206.42522,206.60881,29,80,0
206.61272,206.79631,41,80,0
206.80022,206.98973,29,80,0
206.99376,207.18959,41,80,0
207.19376,207.65283,29,110,0
207.40805,207.65283,41,110,0
207.80804,208.06862,61,100,0
207.65805,208.184,30,110,0
207.65805,208.184,42,110,0
207.95805,208.184,57,90,0
208.07343,208.28795,61,80,0
208.18881,208.3914,54,70,0
208.29227,208.48555,61,70,0
208.3957,208.5793,57,70,0
208.48946,208.67305,61,70,0
208.5832,208.7668,54,70,0
208.67696,208.86055,61,70,0
208.7707,208.9543,57,70,0
208.86446,209.04805,61,70,0
208.9582,209.1418,54,70,0
209.05196,209.23555,61,70,0
209.1457,209.3293,57,70,0
209.23946,209.42305,61,70,0
209.3332,209.5168,56,70,0
209.42696,209.61055,61,70,0
209.5207,209.7043,59,70,0
209.61446,209.79805,61,70,0
209.7082,209.8918,56,70,0
209.80196,209.98555,61,70,0
209.8957,210.0793,59,70,0
209.98946,210.17305,61,70,0
210.0832,210.2668,56,70,0
210.17696,210.36055,61,70,0
210.2707,210.4543,59,70,0
210.36446,210.54805,61,70,0
210.4582,210.6418,56,70,0
210.55196,210.73555,61,70,0
210.6457,210.8293,59,70,0
210.73946,210.92305,61,70,0
210.8332,211.0168,57,70,0
210.92696,211.11055,61,70,0
211.0207,211.2043,57,70,0
211.11446,211.29805,61,70,0
211.2082,211.3918,57,70,0
211.30196,211.48555,61,70,0
211.3957,211.5793,57,70,0
211.48946,211.67305,61,70,0
211.5832,211.7668,57,70,0
211.67696,211.86055,61,70,0
211.7707,211.9543,57,70,0
211.86446,212.04805,61,70,0
211.9582,212.1418,57,70,0
212.05196,212.23555,61,70,0
212.1457,212.3293,57,70,0
212.23946,212.42305,61,70,0
212.3332,212.5168,53,70,0
212.42696,212.61055,61,70,0
212.5207,212.7043,53,70,0
212.61446,212.79805,61,70,0
212.7082,212.8918,53,70,0
212.80196,212.98555,61,70,0
212.8957,213.0793,53,70,0
212.98946,213.17595,61,70,0
213.0832,213.27274,53,70,0
213.18,213.3695,61,70,0
213.27676,213.46628,53,70,0
213.37354,213.56615,61,70,0
213.4703,213.66614,53,70,0
213.57031,213.773,61,70,0
213.6703,213.88013,53,70,0
213.77745,213.98727,61,70,0
213.8846,214.28247,54,90,0
214.28638,215.03247,61,90,0
215.03638,215.40747,57,90,0
215.31763,215.40747,54,90,0
215.41138,215.78247,54,90,0
215.78638,216.34497,53,90,0
216.34888,216.53247,53,90,0
216.53638,216.90747,61,90,0
216.81763,217.00122,53,90,0
216.91138,217.28247,56,90,0
217.28638,217.84497,54,90,0
217.84888,218.03247,54,90,0
218.03638,218.40747,61,90,0
218.31763,218.40747,54,90,0
218.41138,218.59497,54,90,0
218.59888,218.78247,54,92,0
218.78638,219.16945,62,94,0
219.0767,219.16945,54,98,0
219.17348,219.36931,54,99,0
219.37347,219.5693,54,102,0
219.57347,220.01372,62,104,0
219.90315,220.01372,54,108,0
220.01852,220.44513,55,110,0
220.4493,221.19539,50,90,0
221.1993,221.57039,47,90,0
221.48055,221.57039,43,90,0
221.5743,221.94539,43,90,0
221.9493,222.50789,42,90,0
222.5118,222.69539,42,90,0
222.6993,223.07039,50,101,0
222.98055,223.16414,42,90,0
223.0743,223.44539,45,90,0
223.4493,224.00789,43,90,0
224.0118,224.19539,43,90,0
224.1993,224.57039,50,100,0
224.48055,224.57039,42,90,0
224.5743,224.95737,42,90,0
224.9614,225.54048,41,90,0
225.54457,225.73656,41,90,0
225.74065,226.12872,49,100,0
226.03476,226.22993,41,90,0
226.1328,226.33128,42,90,0
226.33551,226.53398,42,91,0
226.53821,226.7367,45,92,0
226.7409,226.93939,42,93,0
226.94362,227.14209,38,94,0
227.14632,227.3448,38,96,0
227.34901,227.5475,42,97,0
227.55173,227.7502,38,98,0
227.75443,228.71812,36,99,0
228.72217,228.91168,36,106,0
228.91571,229.10522,39,107,0
229.10925,229.29878,36,108,0
229.30281,229.49232,37,110,0
229.49635,229.68587,37,110,0
229.68991,229.87943,40,110,0
229.88345,230.07297,37,110,0
230.077,230.26651,33,110,0
230.27055,230.46007,33,110,0
230.4641,230.65361,37,110,0
230.65764,230.84715,33,110,0
230.8512,231.04703,30,110,0
231.0512,231.24702,30,108,0
231.25119,231.44702,33,106,0
231.45119,231.64702,30,103,0
231.65118,231.85378,31,101,0
231.8581,232.06067,31,98,0
232.06499,232.27481,34,96,0
232.27927,232.50523,31,93,0
232.51004,232.73601,32,100,0
232.62543,232.83664,44,70,0
232.74081,232.93665,32,70,0
232.8408,233.03355,44,70,0
232.94081,233.13033,32,70,0
233.03758,233.2271,44,70,0
233.13435,233.32387,32,70,0
233.23112,233.42064,44,70,0
233.32791,233.51743,32,70,0
233.42468,233.6142,44,70,0
233.52145,233.71097,32,70,0
233.61823,233.80774,44,70,0
233.715,233.90451,32,70,0
233.81177,234.0013,44,70,0
233.90855,234.09807,32,70,0
234.00533,234.19484,44,70,0
234.1021,234.29161,32,70,0
234.19887,234.38838,44,70,0
234.29564,234.48515,32,70,0
234.39243,234.58194,44,70,0
234.4892,234.67871,32,70,0
234.58597,234.77548,44,70,0
234.68274,234.87225,32,70,0
234.77951,234.96902,44,70,0
234.87628,235.06581,32,70,0
234.97307,235.16258,44,70,0
235.06984,235.25935,32,70,0
235.16661,235.35612,44,70,0
235.26338,235.4529,32,70,0
235.36015,235.54967,44,70,0
235.45692,235.64645,32,70,0
235.55371,235.74323,44,70,0
235.65048,235.84,32,70,0
235.74725,235.93677,44,70,0
235.84402,236.03354,32,70,0
235.9408,236.13033,44,70,0
236.03758,236.2271,32,70,0
236.13435,236.32387,44,70,0
236.23112,236.42064,32,70,0
236.3279,236.51741,44,70,0
236.42467,236.61418,32,70,0
236.52144,236.71097,44,70,0
236.61823,236.80774,32,70,0
236.715,236.90451,44,70,0
236.81177,237.00128,32,70,0
236.90854,237.09805,44,70,0
237.00531,237.19482,32,70,0
237.1021,237.29161,44,70,0
237.19887,237.38838,32,70,0
237.29564,237.48515,44,70,0
237.39241,237.58192,32,70,0
237.48918,237.6787,44,70,0
237.58595,237.77548,32,70,0
237.68274,237.87225,44,70,0
237.77951,237.96902,32,70,0
237.87628,238.0658,44,70,0
237.97305,238.16257,32,70,0
238.06982,238.25934,44,70,0
238.16661,238.35612,32,70,0
238.26338,238.4529,44,70,0
238.36015,238.54967,32,70,0
238.45692,238.64644,44,70,0
238.5537,238.74321,32,70,0
238.65047,238.84,44,70,0
238.74725,238.93677,32,70,0
238.84402,239.03354,44,70,0
238.9408,239.13031,32,70,0
239.03757,239.22708,44,70,0
239.13434,239.32385,32,70,0
239.23112,239.42064,44,70,0
239.3279,239.51741,32,70,0
239.42467,239.61418,44,70,0
239.52144,239.71095,32,70,0
239.61821,239.80772,44,70,0
239.71498,239.90451,32,70,0
239.81177,240.00128,44,70,0
239.90854,240.09805,32,70,0
240.00531,240.19482,44,70,0
240.10208,240.2916,32,70,0
240.19885,240.38837,44,70,0
240.29564,240.48515,32,70,0
240.39241,240.58192,44,70,0
240.48918,240.6787,32,70,0
240.58595,240.77547,44,70,0
240.68272,240.87224,32,70,0
240.7795,240.96902,44,70,0
240.87628,241.0658,32,70,0
240.97305,241.16257,44,70,0
241.06982,241.25934,32,70,0
241.1666,241.35611,44,70,0
241.26337,241.45288,32,70,0
241.36015,241.54967,44,70,0
241.45692,241.64644,32,70,0
241.5537,241.74321,44,70,0
241.65047,241.83998,32,70,0
241.74724,241.93675,44,70,0
241.84401,242.03354,32,70,0
241.9408,242.13031,44,70,0
242.03757,242.22708,32,70,0
242.13434,242.32695,44,70,0
242.23111,242.42694,32,70,0
242.33112,242.52695,44,70,0
242.4311,242.62694,32,70,0
242.53111,242.72694,44,70,0
242.63112,242.82695,32,70,0
242.73111,242.92694,44,70,0
242.83112,243.02695,32,70,0
242.9311,243.13379,44,70,0
243.03111,243.24094,32,70,0
243.13826,243.35597,44,70,0
243.24539,243.47136,32,70,0
243.36078,243.58675,44,70,0
243.47617,243.70213,32,70,0
243.59155,243.79968,44,70,0
243.70694,243.89645,32,70,0
243.80371,243.99323,44,70,0
243.90048,244.09,32,70,0
243.99725,244.18677,44,70,0
244.09402,244.28355,32,70,0
244.19081,244.38033,44,70,0
244.28758,244.4771,32,70,0
244.38435,244.57387,44,70,0
244.48112,244.67064,32,70,0
244.5779,244.76741,44,70,0
244.67468,244.8642,32,70,0
244.77145,244.96097,44,70,0
244.86823,245.05774,32,70,0
244.965,245.15451,44,70,0
245.06177,245.25128,32,70,0
245.15854,245.34807,44,70,0
245.25533,245.44484,32,70,0
245.3521,245.54161,44,70,0
245.44887,245.63838,32,70,0
245.54564,245.73515,44,70,0
245.64241,245.83192,32,70,0
245.7392,245.92871,44,70,0
245.83597,246.02548,32,70,0
245.93274,246.12225,44,70,0
246.02951,246.21902,32,70,0
246.12628,246.3158,44,70,0
246.22305,246.41258,32,70,0
246.31984,246.50935,44,70,0
246.41661,246.60612,32,70,0
246.51338,246.7029,44,70,0
246.61015,246.79967,32,70,0
246.70692,246.89644,44,70,0
246.80371,246.99323,32,70,0
246.90048,247.09,44,70,0
246.99725,247.18677,32,70,0
247.09402,247.28354,44,70,0
247.1908,247.38031,32,70,0
247.28757,247.47891,44,70,0
247.38435,247.5776,32,70,0
247.48303,247.67628,44,70,0
247.58171,247.77498,32,70,0
247.6804,247.88176,44,70,0
247.77908,247.9889,32,70,0
247.88623,248.09605,44,70,0
247.99336,248.20319,32,70,0
248.10051,248.31033,44,70,0
248.20766,248.41748,32,70,0
248.3148,248.5159,44,70,0
248.42194,248.61394,32,70,0
248.51997,248.71198,44,70,0
248.61801,248.81001,32,70,0
248.71606,248.90805,44,70,0
248.8141,249.00609,32,70,0
248.91214,249.10413,44,70,0
249.01018,249.20216,32,70,0
249.10822,249.3002,44,70,0
249.20625,249.39824,32,70,0
249.30429,249.49628,44,70,0
249.40233,249.59433,32,70,0
249.50037,249.69237,44,70,0
249.5984,249.7904,32,70,0
249.69644,249.88844,44,70,0
249.79448,249.98648,32,70,0
249.89253,250.08452,44,70,0
249.99057,250.18256,32,70,0
250.08861,250.2806,44,70,0
250.18665,250.37863,32,70,0
250.28468,250.47667,44,70,0
250.38272,250.5747,32,70,0
250.48076,250.67274,44,70,0
250.5788,250.7708,32,70,0
250.67683,250.86884,44,70,0
250.77487,250.96687,32,70,0
250.87291,251.06491,44,70,0
250.97095,251.16295,32,70,0
251.069,251.26099,44,70,0
251.16704,251.35902,32,70,0
251.26508,251.45894,44,70,0
251.36311,251.55894,32,70,0
251.4631,251.65895,44,70,0
251.56311,251.75894,32,70,0
251.66312,251.86224,44,70,0
251.7631,251.9657,32,70,0
251.86656,252.06914,44,70,0
251.97,252.17259,32,70,0
252.07346,252.27959,44,70,0
252.17691,252.38672,33,70,0
252.28404,252.49387,45,70,0
252.39119,252.60101,33,70,0
252.49834,252.71605,45,70,0
252.60547,252.83144,33,70,0
252.72086,252.98,45,70,0
252.83624,253.22583,33,70,0
252.98624,253.37999,45,70,0
253.23624,255.62999,30,80,0
253.23624,255.62999,42,80,0
255.63625,259.06033,32,70,0
255.63625,259.06033,44,70,0
259.06482,259.2484,37,80,0
259.25232,259.4359,44,80,0
259.43982,259.6234,37,80,0
259.62732,259.8109,44,80,0
259.81482,259.9984,37,80,0
260.00232,260.1859,44,80,0
260.18982,260.3734,37,80,0
260.37732,260.5609,44,80,0
260.56482,260.7484,37,80,0
260.75232,260.9359,44,80,0
260.93982,261.1234,37,80,0
261.12732,261.3109,44,80,0
261.31482,261.4984,37,80,0
261.50232,261.6859,44,80,0
261.68982,262.0609,49,100,0
261.68982,262.0609,37,100,0
261.87732,262.0609,44,100,0
262.06482,262.2484,36,80,0
262.25232,262.4359,44,80,0
262.43982,262.6234,36,80,0
262.62732,262.8109,44,80,0
262.81482,262.9984,36,80,0
263.00232,263.1859,44,80,0
263.18982,263.3734,36,80,0
263.37732,263.5609,44,80,0
263.56482,263.7484,36,80,0
263.75232,263.9359,44,80,0
263.93982,264.1234,36,80,0
264.12732,264.3109,44,80,0
264.31482,264.4984,36,80,0
264.50232,264.6859,44,80,0
264.68982,265.0609,36,110,0
264.68982,265.0609,48,110,0
264.87732,265.0609,44,110,0
265.06482,265.2484,35,80,0
265.25232,265.4359,44,80,0
265.43982,265.6234,35,80,0
265.62732,265.8109,44,80,0
265.81482,265.9984,35,80,0
266.00232,266.1859,44,80,0
266.18982,266.3734,35,80,0
266.37732,266.5609,44,80,0
266.56482,266.7484,35,80,0
266.75232,266.9359,44,80,0
266.93982,267.1234,35,80,0
267.12732,267.3109,44,80,0
267.31482,267.4984,35,80,0
267.50232,267.6859,44,80,0
267.68982,268.0609,35,110,0
267.68982,268.0609,47,110,0
267.87732,268.0609,44,110,0
268.06482,268.2484,33,90,0
268.25232,268.4359,44,90,0
268.43982,268.6234,33,90,0
268.62732,268.8109,44,90,0
268.81482,268.9984,33,90,0
269.00232,269.1859,44,90,0
269.18982,269.5609,33,110,0
269.37732,269.5609,44,110,0
269.56482,269.7484,33,90,0
269.75232,269.9359,45,90,0
269.93982,270.1234,33,90,0
270.12732,270.3109,45,90,0
270.31482,270.4984,33,90,0
270.50232,270.6859,45,90,0
270.68982,271.0609,33,110,0
270.87732,271.0609,45,110,0
271.06482,271.4359,32,110,0
271.06482,271.4359,44,110,0
271.25232,271.4359,60,110,0
271.43982,271.6234,60,110,0
271.62732,271.8109,61,110,0
271.81482,271.9984,63,110,0
272.00232,272.1859,64,110,0
272.18982,272.3734,66,110,0
272.37732,272.5609,64,110,0
272.56482,272.7484,66,110,0
272.75232,272.9359,64,110,0
272.93982,273.1234,69,110,0
273.12732,273.3109,68,110,0
273.31482,273.4984,66,110,0
273.50232,273.6859,64,110,0
273.68982,273.8734,63,110,0
271.25232,274.0609,56,110,0
273.87732,274.0609,61,110,0
274.06482,274.2484,60,110,0
274.25232,274.4359,60,110,0
274.43982,274.6234,60,110,0
274.62732,274.8109,61,110,0
274.81482,274.9984,63,110,0
275.00232,275.1859,64,110,0
275.18982,275.3734,66,110,0
275.37732,275.5609,64,110,0
275.56482,275.7484,66,110,0
275.75232,275.9359,64,110,0
275.93982,276.1234,69,110,0
276.12732,276.3109,68,110,0
276.31482,276.4984,66,110,0
276.50232,276.6859,64,110,0
276.68982,276.8734,63,110,0
274.06482,277.0609,56,110,0
276.87732,277.0609,61,110,0
277.06482,277.2484,60,110,0
277.06482,277.2484,56,110,0
277.25232,277.4359,61,110,0
277.25232,277.4359,56,110,0
277.43982,277.6234,60,110,0
277.43982,277.6234,56,110,0
277.62732,277.8109,61,110,0
277.62732,277.8109,56,110,0
277.81482,277.9984,60,110,0
277.81482,277.9984,56,110,0
278.00232,278.1859,61,110,0
278.00232,278.1859,56,110,0
278.18982,278.3734,60,110,0
278.18982,278.3734,56,110,0
278.37732,278.5609,61,110,0
278.37732,278.5609,56,110,0
278.56482,278.9359,56,110,0
278.56482,278.9359,60,110,0
278.93982,281.5609,32,110,0
278.93982,281.5609,44,110,0
281.56482,281.8096,49,70,0
281.68982,281.91748,56,70,0
281.81482,282.02463,52,70,0
281.92197,282.11893,56,70,0
282.02908,282.21268,49,70,0
282.12283,282.30643,56,70,0
282.21658,282.40018,52,70,0
282.31033,282.49393,56,70,0
282.40408,282.58768,49,70,0
282.49783,282.68143,56,70,0
282.59158,282.77518,52,70,0
282.68533,282.86893,56,70,0
282.77908,282.96268,49,70,0
282.87283,283.05643,56,70,0
282.96658,283.15018,52,70,0
283.06033,283.24393,56,70,0
283.15408,283.33768,51,70,0
283.24783,283.43143,56,70,0
283.34158,283.52518,54,70,0
283.43533,283.61893,56,70,0
283.52908,283.71268,51,70,0
283.62283,283.80643,56,70,0
283.71658,283.90018,54,70,0
283.81033,283.99393,56,70,0
283.90408,284.08768,51,70,0
283.99783,284.18143,56,70,0
284.09158,284.27518,54,70,0
284.18533,284.36893,56,70,0
284.27908,284.46268,51,70,0
284.37283,284.55643,56,70,0
284.46658,284.65018,54,70,0
284.56033,284.74393,56,70,0
284.65408,284.83768,52,70,0
284.74783,284.93143,56,70,0
284.84158,285.02518,52,70,0
284.93533,285.11893,56,70,0
285.02908,285.21268,52,70,0
285.12283,285.30643,56,70,0
285.21658,285.40018,52,70,0
285.31033,285.49393,56,70,0
285.40408,285.58768,52,70,0
285.49783,285.68143,56,70,0
285.59158,285.77518,52,70,0
285.68533,285.86893,56,70,0
285.77908,285.96268,52,70,0
285.87283,286.05643,56,70,0
285.96658,286.15018,52,70,0
286.06033,286.24393,56,70,0
286.15408,286.33768,48,70,0
286.24783,286.43143,56,70,0
286.34158,286.52518,48,70,0
286.43533,286.61893,56,70,0
286.52908,286.71268,48,70,0
286.62283,286.80643,56,70,0
286.71658,286.90018,48,70,0
286.81033,286.99683,56,70,0
286.90408,287.0936,48,70,0
287.0009,287.1904,56,70,0
287.09766,287.28717,48,70,0
287.19443,287.38702,56,70,0
287.2912,287.48703,48,70,0
287.3912,287.59387,56,70,0
287.49118,287.70102,48,70,0
287.59833,287.80817,56,70,0
287.70547,287.9153,49,70,0
287.81262,288.0096,56,70,0
287.91977,288.10336,52,70,0
288.01352,288.1971,56,71,0
288.10727,288.29086,49,71,0
288.20102,288.3846,56,72,0
288.29477,288.47836,52,72,0
288.38852,288.5721,56,73,0
288.48227,288.66586,49,73,0
288.57602,288.7596,56,74,0
288.66977,288.85336,52,74,0
288.76352,288.9471,56,75,0
288.85727,289.04086,49,75,0
288.95102,289.1346,56,76,0
289.04477,289.22836,52,76,0
289.13852,289.3221,56,77,0
289.23227,289.41586,51,77,0
289.32602,289.5096,56,77,0
289.41977,289.60336,54,78,0
289.51352,289.6971,56,78,0
289.60727,289.79086,51,79,0
289.70102,289.8846,56,79,0
289.79477,289.97836,54,80,0
289.88852,290.0721,56,80,0
289.98227,290.16586,51,81,0
290.07602,290.2596,56,81,0
290.16977,290.35336,54,82,0
290.26352,290.4471,56,82,0
290.35727,290.54086,51,83,0
290.45102,290.6346,56,83,0
290.54477,290.72836,54,84,0
290.63852,290.8221,56,84,0
290.73227,290.91586,52,84,0
290.82602,291.0096,56,85,0
290.91977,291.10336,52,85,0
291.01352,291.1971,56,86,0
291.10727,291.29086,52,86,0
291.20102,291.3846,56,87,0
291.29477,291.47836,52,87,0
291.38852,291.5721,56,88,0
291.48227,291.66586,52,88,0
291.57602,291.7596,56,89,0
291.66977,291.85336,52,89,0
291.76352,291.9471,56,90,0
291.85727,292.04086,52,90,0
291.95102,292.1346,56,91,0
292.04477,292.22836,52,91,0
292.13852,292.3221,56,92,0
292.23227,292.41586,48,92,0
292.32602,292.5096,56,92,0
292.41977,292.60336,48,93,0
292.51352,292.6971,56,93,0
292.60727,292.79086,48,94,0
292.70102,292.8846,56,94,0
292.79477,292.97836,48,95,0
292.88852,293.075,56,95,0
292.98227,293.17178,48,96,0
293.07904,293.26855,56,96,0
293.1758,293.36533,48,97,0
293.27258,293.4621,56,97,0
293.36935,293.55887,48,98,0
293.46613,293.65564,56,98,0
293.5629,293.7524,48,99,0
293.65967,293.84918,56,99,0
293.75647,293.94598,47,100,0
293.85324,294.04276,56,100,0
293.95,294.13953,49,100,0
294.04678,294.2363,56,100,0
294.14355,294.33307,47,100,0
294.24033,294.42984,56,100,0
294.3371,294.5266,49,100,0
294.43387,294.6265,56,100,0
294.53064,294.72647,45,100,0
294.63065,294.82648,54,100,0
294.73065,294.92648,47,100,0
294.83066,295.03333,54,100,0
294.93063,295.14047,45,100,0
295.03778,295.24762,54,100,0
295.14493,295.35477,47,100,0
295.25208,295.46188,54,100,0
295.35922,295.56903,45,100,0
295.46637,295.67618,54,100,0
295.57352,295.78333,47,100,0
295.68063,295.89047,54,100,0
295.78778,295.99762,44,100,0
295.89493,296.09192,52,100,0
296.00208,296.18567,47,100,0
296.09583,296.27942,52,100,0
296.18958,296.37317,44,100,0
296.28333,296.46692,52,100,0
296.37708,296.56067,47,100,0
296.47083,296.65442,52,100,0
296.56458,296.74817,44,100,0
296.65833,296.84192,52,100,0
296.75208,296.93567,47,100,0
296.84583,297.02942,52,100,0
296.93958,297.12317,43,100,0
297.03333,297.21692,52,100,0
297.12708,297.31067,45,100,0
297.22083,297.40442,52,100,0
297.31458,297.49817,43,100,0
297.40833,297.59192,52,100,0
297.50208,297.68567,45,100,0
297.59583,297.78232,52,100,0
297.68958,297.8791,42,100,0
297.78635,297.97586,50,100,0
297.88312,298.07263,45,100,0
297.9799,298.17252,50,100,0
298.07666,298.2725,42,100,0
298.17667,298.3725,50,100,0
298.27667,298.4725,45,100,0
298.37668,298.57935,50,100,0
298.47668,298.6865,42,100,0
298.5838,298.79364,51,100,0
298.69095,298.9008,42,100,0
298.7981,299.00107,51,100,0
298.90524,299.10107,40,100,0
299.00525,299.1951,49,100,0
299.10526,299.28885,44,100,0
299.199,299.3826,49,100,0
299.29276,299.47635,40,100,0
299.3865,299.5701,49,100,0
299.48026,299.66385,44,100,0
299.574,299.7576,49,100,0
299.66776,299.85135,40,100,0
299.7615,299.9451,49,100,0
299.85526,300.03885,44,100,0
299.949,300.1326,49,100,0
300.04276,301.16385,42,120,0
300.04276,301.16385,45,120,0
300.04276,301.16385,50,120,0
300.04276,301.16385,54,120,0
301.54276,301.91385,54,80,0
301.54276,301.91385,57,80,0
301.54276,301.91385,62,80,0
302.29276,302.66385,54,80,0
302.29276,302.66385,57,80,0
302.29276,302.66385,62,80,0
303.04276,303.41385,54,80,0
303.04276,303.41385,57,80,0
303.04276,303.41385,62,80,0
303.41776,303.78885,54,84,0
303.41776,303.78885,57,84,0
303.41776,303.78885,62,84,0
303.79276,304.16385,54,89,0
303.79276,304.16385,57,89,0
303.79276,304.16385,62,89,0
304.16776,304.53885,54,94,0
304.16776,304.53885,57,94,0
304.16776,304.53885,62,94,0
304.54276,304.72635,56,70,0
304.6365,304.8201,64,71,0
304.73026,304.91385,61,72,0
304.824,305.0076,64,73,0
304.91776,305.10135,56,74,0
305.0115,305.1951,64,76,0
305.10526,305.28885,61,77,0
305.199,305.3826,64,78,0
305.29276,305.47635,56,79,0
305.3865,305.5701,66,81,0
305.48026,305.66385,60,82,0
305.574,305.7576,66,83,0
305.66776,305.85135,56,84,0
305.7615,305.9451,66,86,0
305.85526,306.03885,60,87,0
305.949,306.1326,66,88,0
306.04276,306.41385,64,89,0
306.04276,306.41385,61,89,0
306.04276,306.41385,57,89,0
306.41776,307.16385,30,120,0
306.41776,307.16385,33,120,0
306.41776,307.16385,38,120,0
306.41776,307.16385,42,120,0
307.91776,308.28885,42,90,0
307.91776,308.28885,45,90,0
307.91776,308.28885,50,90,0
308.66776,309.03885,42,90,0
308.66776,309.03885,45,90,0
308.66776,309.03885,50,90,0
309.23026,309.48807,42,91,0
309.23026,309.4998,50,91,0
309.23026,309.5076,45,91,0
309.60526,309.8826,42,93,0
309.60526,309.8826,45,93,0
309.60526,309.8826,50,93,0
309.98026,310.2576,42,96,0
309.98026,310.2576,45,96,0
309.98026,310.2576,50,96,0
310.35526,310.53885,42,98,0
310.35526,310.53885,45,98,0
310.35526,310.53885,50,98,0
310.54276,310.91385,42,99,0
310.54276,310.91385,45,99,0
310.54276,310.91385,50,99,0
312.04276,312.22635,42,110,0
312.1365,312.3201,50,110,0
312.23026,312.41385,47,110,0
312.324,312.5076,50,110,0
312.41776,312.60135,42,110,0
312.5115,312.6951,50,110,0
312.60526,312.78885,47,110,0
312.699,312.8826,50,110,0
312.79276,312.97635,43,110,0
312.8865,313.0701,52,110,0
312.98026,313.16385,46,110,0
313.074,313.2576,52,110,0
313.16776,313.35135,43,110,0
313.2615,313.4451,52,110,0
313.35526,313.53885,46,110,0
313.449,313.6355,52,110,0
313.54276,313.73227,44,110,0
313.63953,313.82904,52,110,0
313.7363,313.9258,49,110,0
313.83307,314.02258,52,110,0
313.92984,314.11935,44,110,0
314.0266,314.21613,52,110,0
314.12338,314.3129,49,110,0
314.22015,314.41278,52,110,0
314.31693,314.51276,32,110,0
314.41693,314.61276,44,110,0
314.51694,314.71277,43,110,0
314.61694,314.8196,44,110,0
314.71692,314.92676,43,110,0
314.82407,315.0418,44,110,0
314.9312,315.1572,43,110,0
315.0466,315.27255,44,110,0
315.162,315.6187,37,110,0
315.39276,315.6187,49,80,0
315.62354,315.80713,49,80,0
315.81104,315.99463,49,80,0
315.99854,316.18213,49,80,0
316.18604,316.36963,49,80,0
316.37354,316.55713,51,80,0
316.56104,316.74463,52,80,0
316.74854,316.93213,44,80,0
316.74854,316.93213,54,80,0
316.93604,317.11963,56,80,0
316.93604,317.11963,54,80,0
317.12354,317.30713,56,80,0
317.12354,317.30713,54,80,0
317.31104,317.49463,56,80,0
317.31104,317.49463,54,80,0
317.49854,317.68213,56,80,0
317.49854,317.68213,54,80,0
317.68604,317.86963,56,80,0
317.68604,317.86963,54,80,0
317.87354,318.05713,56,80,0
317.87354,318.05713,52,80,0
318.06104,318.24463,56,80,0
318.06104,318.24463,51,80,0
318.24854,318.43213,37,80,0
318.24854,318.43213,49,80,0
318.43604,318.61963,49,80,0
318.62354,318.80713,49,80,0
318.81104,318.99463,49,80,0
318.99854,319.18213,49,80,0
319.18604,319.36963,49,80,0
319.37354,319.55713,51,80,0
319.56104,319.74463,52,80,0
319.74854,319.93213,44,80,0
319.74854,319.93213,54,80,0
319.93604,320.11963,56,80,0
319.93604,320.11963,54,80,0
320.12354,320.30713,56,80,0
320.12354,320.30713,54,80,0
320.31104,320.49463,56,80,0
320.31104,320.49463,54,80,0
320.49854,320.68213,56,80,0
320.49854,320.68213,54,80,0
320.68604,320.86963,56,80,0
320.68604,320.86963,54,80,0
320.87354,321.05713,56,80,0
320.87354,321.05713,52,80,0
321.06104,321.24463,56,80,0
321.06104,321.24463,51,80,0
321.24854,321.43213,37,80,0
321.24854,321.43213,49,80,0
321.43604,321.61963,49,80,0
321.43604,321.61963,52,80,0
321.62354,321.80713,52,80,0
321.62354,321.80713,49,80,0
321.81104,321.99463,52,80,0
321.81104,321.99463,56,80,0
321.99854,322.18213,42,80,0
322.18604,322.36963,49,80,0
322.18604,322.36963,54,80,0
322.37354,322.55713,49,80,0
322.37354,322.55713,54,80,0
322.56104,322.74463,57,80,0
322.56104,322.74463,54,80,0
322.74854,322.93213,44,80,0
322.93604,323.11963,52,80,0
322.93604,323.11963,49,80,0
323.12354,323.30713,52,80,0
323.12354,323.30713,49,80,0
323.31104,323.49463,56,80,0
323.31104,323.49463,52,80,0
323.49854,323.68213,44,80,0
323.68604,323.86963,48,80,0
323.68604,323.86963,51,80,0
323.87354,324.06937,48,80,0
323.87354,324.06937,51,80,0
324.07352,324.28336,56,80,0
324.07352,324.28336,51,80,0
324.2878,324.49762,37,80,0
324.2878,324.49762,49,80,0
324.5021,324.69162,49,83,0
324.5021,324.69162,56,83,0
324.69565,324.88516,49,87,0
324.69565,324.88516,56,87,0
324.8892,325.0787,49,91,0
324.8892,325.0787,56,91,0
325.08273,325.27225,49,94,0
325.08273,325.27225,56,94,0
325.27628,325.46582,49,98,0
325.27628,325.46582,56,98,0
325.46985,325.65936,51,102,0
325.46985,325.65936,56,102,0
325.6634,325.8529,52,106,0
325.6634,325.8529,56,106,0
325.85693,326.0595,44,109,0
325.85693,326.0595,54,109,0
325.85693,326.0595,56,109,0
326.06384,326.25336,66,110,0
326.06384,326.25336,56,110,0
326.2574,326.4469,66,110,0
326.2574,326.4469,56,110,0
326.45093,326.64044,66,110,0
326.45093,326.64044,56,110,0
326.64447,326.83398,66,110,0
326.64447,326.83398,56,110,0
326.838,327.02753,66,110,0
326.838,327.02753,56,110,0
327.03156,327.2211,64,110,0
327.03156,327.2211,56,110,0
327.22513,327.41464,63,110,0
327.22513,327.41464,56,110,0
327.41867,327.6082,37,110,0
327.41867,327.6082,49,110,0
327.6122,327.80173,49,90,0
327.6122,327.80173,56,90,0
327.80576,327.99527,49,92,0
327.80576,327.99527,56,92,0
327.9993,328.1888,49,95,0
327.9993,328.1888,56,95,0
328.19287,328.3824,49,98,0
328.19287,328.3824,56,98,0
328.3864,328.57593,49,101,0
328.3864,328.57593,56,101,0
328.57996,328.76947,51,104,0
328.57996,328.76947,56,104,0
328.7735,328.963,52,107,0
328.7735,328.963,56,107,0
328.96704,329.17688,44,109,0
328.96704,329.17688,54,109,0
328.96704,329.17688,56,109,0
329.18134,329.37085,66,110,0
329.18134,329.37085,56,110,0
329.37488,329.5644,66,110,0
329.37488,329.5644,56,110,0
329.56842,329.75793,66,110,0
329.56842,329.75793,56,110,0
329.762,329.9515,66,110,0
329.762,329.9515,56,110,0
329.95554,330.14505,66,110,0
329.95554,330.14505,56,110,0
330.14908,330.3386,64,110,0
330.14908,330.3386,56,110,0
330.34262,330.53214,63,110,0
330.34262,330.53214,56,110,0
330.53616,330.72568,61,110,0
330.53616,330.91925,49,110,0
330.7297,330.91925,64,80,0
330.7297,330.91925,61,80,0
330.92328,331.11157,64,80,0
330.92328,331.11157,61,80,0
331.11557,331.30386,68,80,0
331.11557,331.30386,64,80,0
331.3079,331.4962,54,80,0
331.50018,331.68848,66,80,0
331.50018,331.68848,61,80,0
331.6925,331.8808,66,80,0
331.6925,331.8808,61,80,0
331.8848,332.07312,69,80,0
331.8848,332.07312,66,80,0
332.07712,332.26422,56,80,0
332.2682,332.4553,64,80,0
332.2682,332.4553,61,80,0
332.4593,332.6464,64,80,0
332.4593,332.6464,61,80,0
332.65036,332.83746,68,80,0
332.65036,332.83746,64,80,0
332.84143,333.02853,54,80,0
333.03253,333.21964,63,80,0
333.03253,333.21964,60,80,0
333.2236,333.4107,63,80,0
333.2236,333.4107,60,80,0
333.4147,333.6018,68,80,0
333.4147,333.6018,63,80,0
333.60577,333.7917,52,80,0
333.79565,333.98157,61,82,0
333.79565,333.98157,56,82,0
333.9855,334.17145,61,85,0
333.9855,334.17145,56,85,0
334.17538,334.3613,64,88,0
334.17538,334.3613,61,88,0
334.36526,334.55118,42,91,0
334.55515,334.74106,57,94,0
334.55515,334.74106,54,94,0
334.74503,334.93094,57,97,0
334.74503,334.93094,54,97,0
334.93488,335.1208,62,99,0
334.93488,335.1208,57,99,0
335.12476,335.31067,44,100,0
335.31464,335.50055,56,100,0
335.31464,335.50055,52,100,0
335.50452,335.69043,56,100,0
335.50452,335.69043,52,100,0
335.69437,335.88028,61,100,0
335.69437,335.88028,56,100,0
335.88425,336.08008,44,95,0
336.08426,336.2801,54,92,0
336.08426,336.2801,51,92,0
336.28424,336.49408,54,89,0
336.28424,336.49408,51,89,0
336.49854,336.7245,60,86,0
336.49854,336.7245,54,86,0
336.7293,336.95526,37,70,0
336.8447,337.06274,49,70,0
336.96008,337.1699,44,70,0
337.0672,337.2702,49,70,0
337.17435,337.37018,37,70,0
337.27435,337.4671,49,70,0
337.37436,337.56387,44,70,0
337.47113,337.65775,49,70,0
337.5679,337.7515,37,70,0
337.66165,337.84525,49,70,0
337.7554,337.939,44,70,0
337.84915,338.03275,49,70,0
337.9429,338.1265,37,70,0
338.03665,338.22025,49,70,0
338.1304,338.314,44,70,0
338.22415,338.40775,49,70,0
338.3179,338.5015,37,70,0
338.41165,338.59525,51,70,0
338.5054,338.689,44,70,0
338.59915,338.78275,51,70,0
338.6929,338.8765,37,70,0
338.78665,338.97025,51,70,0
338.8804,339.064,44,70,0
338.97415,339.15775,51,70,0
339.0679,339.2515,37,70,0
339.16165,339.34525,51,70,0
339.2554,339.439,44,70,0
339.34915,339.53275,51,70,0
339.4429,339.6265,37,70,0
339.53665,339.72025,51,70,0
339.6304,339.814,44,70,0
339.72415,339.90775,51,70,0
339.8179,340.0015,37,70,0
339.91165,340.09525,49,70,0
340.0054,340.189,44,70,0
340.09915,340.28275,49,70,0
340.1929,340.3765,37,70,0
340.28665,340.47025,49,70,0
340.3804,340.564,44,70,0
340.47415,340.65775,49,70,0
340.5679,340.7515,37,70,0
340.66165,340.84525,49,70,0
340.7554,340.939,44,70,0
340.84915,341.03275,49,70,0
340.9429,341.1265,37,70,0
341.03665,341.22025,49,70,0
341.1304,341.314,44,70,0
341.22415,341.40775,49,70,0
341.3179,341.5015,37,70,0
341.41165,341.59525,51,70,0
341.5054,341.689,44,70,0
341.59915,341.78275,51,70,0
341.6929,341.8765,37,70,0
341.78665,341.97025,51,70,0
341.8804,342.064,44,70,0
341.97415,342.15775,51,70,0
342.0679,342.2515,37,70,0
342.16165,342.34525,51,70,0
342.2554,342.439,44,70,0
342.34915,342.53275,51,70,0
342.4429,342.6265,37,70,0
342.53665,342.72025,51,70,0
342.6304,342.814,44,70,0
342.72415,342.90775,51,70,0
342.8179,343.0015,37,70,0
342.91165,343.09525,49,70,0
343.0054,343.189,44,70,0
343.09915,343.28275,49,70,0
343.1929,343.3765,37,70,0
343.28665,343.47025,49,70,0
343.3804,343.564,44,70,0
343.47415,343.65775,49,70,0
343.5679,343.7515,37,70,0
343.66165,343.84525,51,70,0
343.7554,343.939,44,70,0
343.84915,344.03275,51,70,0
343.9429,344.1265,37,70,0
344.03665,344.22025,51,70,0
344.1304,344.314,44,70,0
344.22415,344.40775,51,70,0
344.3179,344.5015,37,70,0
344.41165,344.59525,49,70,0
344.5054,344.689,44,70,0
344.59915,344.78275,49,70,0
344.6929,344.8765,37,70,0
344.78665,344.97025,49,70,0
344.8804,345.064,44,70,0
344.97415,345.15775,49,70,0
345.0679,345.2515,37,70,0
345.16165,345.34525,51,70,0
345.2554,345.439,44,70,0
345.34915,345.53275,51,70,0
345.4429,345.6265,37,70,0
345.53665,345.72025,51,70,0
345.6304,345.814,44,70,0
345.72415,345.90775,51,70,0
345.8179,346.0015,37,80,0
345.91165,346.09525,49,80,0
346.0054,346.189,44,81,0
346.09915,346.28275,49,82,0
346.1929,346.3765,37,83,0
346.28665,346.47025,49,84,0
346.3804,346.564,44,85,0
346.47415,346.65775,49,86,0
346.5679,346.7515,37,87,0
346.66165,346.84525,49,88,0
346.7554,346.939,44,89,0
346.84915,347.03275,49,90,0
346.9429,347.1265,37,91,0
347.03665,347.22025,49,92,0
347.1304,347.314,44,93,0
347.22415,347.40775,49,94,0
347.3179,347.5015,35,94,0
347.41165,347.59525,47,95,0
347.5054,347.689,37,96,0
347.59915,347.78275,47,97,0
347.6929,347.8765,35,98,0
347.78665,347.97025,47,99,0
347.8804,348.064,37,100,0
347.97415,348.15775,47,101,0
348.0679,348.2515,35,102,0
348.16165,348.34525,47,103,0
348.2554,348.439,37,104,0
348.34915,348.53275,47,105,0
348.4429,348.6265,35,106,0
348.53665,348.72025,47,107,0
348.6304,348.814,37,108,0
348.72415,348.90775,47,109,0
348.8179,349.189,33,100,0
348.8179,349.189,45,100,0
349.0054,349.189,42,90,0
349.1929,349.3765,33,90,0
349.3804,349.564,42,90,0
349.5679,349.7515,33,90,0
349.7554,349.939,42,90,0
349.9429,350.1265,33,90,0
350.1304,350.314,42,90,0
350.3179,350.5015,33,90,0
350.5054,350.689,42,90,0
350.6929,350.8765,33,90,0
350.8804,351.064,42,90,0
351.0679,351.2515,33,90,0
351.2554,351.439,42,90,0
351.4429,351.814,33,110,0
351.4429,351.814,45,110,0
351.6304,351.814,42,100,0
351.8179,352.0015,32,90,0
352.0054,352.189,40,90,0
352.1929,352.3765,32,90,0
352.3804,352.564,40,90,0
352.5679,352.7515,32,90,0
352.7554,352.939,40,90,0
352.9429,353.1265,32,90,0
353.1304,353.314,40,90,0
353.3179,353.5015,32,90,0
353.5054,353.689,40,90,0
353.6929,353.8765,32,90,0
353.8804,354.064,40,90,0
354.0679,354.2515,32,90,0
354.2554,354.439,40,90,0
354.4429,354.814,44,110,0
354.4429,354.814,32,110,0
354.6304,354.814,40,100,0
354.8179,355.3765,30,90,0
355.3804,356.1265,30,98,0
355.42728,356.1265,34,99,0
355.47415,356.1265,37,100,0
355.52103,356.1265,40,101,0
355.5679,356.1265,43,101,0
356.1304,356.689,42,110,0
356.17728,356.689,46,111,0
356.22415,356.689,49,112,0
356.27103,356.689,52,113,0
356.3179,356.689,55,113,0
356.6929,357.814,64,119,0
356.6929,357.814,61,119,0
356.6929,357.814,58,119,0
356.6929,357.814,55,119,0
357.8179,358.3765,30,90,0
358.3804,359.1265,33,95,0
358.42728,359.1265,36,96,0
358.47415,359.1265,39,96,0
358.52103,359.1265,42,97,0
358.5679,359.1265,45,97,0
359.1304,360.064,45,103,0
359.17728,360.064,48,103,0
359.3179,360.064,57,105,0
359.22415,360.0679,51,104,0
359.27103,360.0679,54,104,0
360.0679,362.5277,54,120,0
360.0679,362.5277,57,120,0
360.0679,362.5277,60,120,0
360.0679,362.5277,63,120,0
362.5322,362.97278,49,80,0
362.97723,363.7613,56,80,0
363.7652,364.1363,52,80,0
364.04645,364.1363,49,80,0
364.1402,364.5113,49,80,0
364.5152,365.0738,48,80,0
365.0777,365.2613,48,80,0
365.2652,365.6363,56,91,0
365.54645,365.73004,48,80,0
365.6402,366.0113,51,80,0
366.0152,366.5738,49,80,0
366.5777,366.7613,49,80,0
366.7652,367.1363,56,95,0
367.04645,367.23004,49,80,0
367.1402,367.5113,52,80,0
367.5152,368.0738,51,80,0
368.0777,368.2672,51,80,0
368.27124,368.6972,56,92,0
368.5866,368.8126,51,80,0
368.702,368.92798,52,70,0
368.81738,369.03192,56,70,0
368.93277,369.13535,52,70,0
369.03622,369.23123,56,70,0
369.13968,369.32678,52,70,0
369.2352,369.4223,56,70,0
369.33075,369.51785,52,70,0
369.4263,369.6134,56,70,0
369.52185,369.70892,52,70,0
369.61737,369.80447,56,70,0
369.71292,369.90002,52,70,0
369.80847,369.99557,56,70,0
369.904,370.0911,52,70,0
369.99954,370.18665,56,70,0
370.0951,370.2822,52,70,0
370.1906,370.37772,56,70,0
370.28616,370.47327,54,70,0
370.3817,370.56882,56,70,0
370.47723,370.66434,54,70,0
370.57278,370.7599,56,70,0
370.66833,370.85544,54,70,0
370.7639,370.951,56,70,0
370.8594,371.0465,54,70,0
370.95496,371.14206,56,70,0
371.0505,371.2376,54,70,0
371.14603,371.33313,56,70,0
371.24158,371.42868,54,70,0
371.33713,371.52423,56,70,0
371.43265,371.61975,54,70,0
371.5282,371.7153,56,70,0
371.62375,371.81085,54,70,0
371.7193,371.90637,56,70,0
371.81482,372.00192,52,70,0
371.91037,372.09747,56,70,0
372.00592,372.19302,52,70,0
372.10144,372.28854,56,70,0
372.197,372.3841,52,70,0
372.29254,372.47964,56,70,0
372.38806,372.57516,52,70,0
372.4836,372.67072,56,70,0
372.57916,372.76627,52,70,0
372.67468,372.8618,56,70,0
372.77023,372.95734,52,70,0
372.86578,373.0529,56,70,0
372.96133,373.14844,52,70,0
373.05685,373.24396,56,70,0
373.1524,373.3395,52,70,0
373.24796,373.43506,56,70,0
373.34348,373.53058,48,70,0
373.43903,373.62613,56,70,0
373.53458,373.72168,48,70,0
373.6301,373.8172,56,70,0
373.72565,373.91275,48,70,0
373.8212,374.0083,56,70,0
373.91675,374.10382,48,70,0
374.01227,374.19937,56,70,0
374.10782,374.29492,48,70,0
374.20337,374.39047,56,70,0
374.2989,374.486,48,70,0
374.39444,374.58154,56,70,0
374.49,374.6771,48,70,0
374.5855,374.7726,56,70,0
374.68106,374.86816,48,70,0
374.7766,374.96487,56,70,0
374.87213,375.06168,49,90,0
374.96893,375.15845,56,90,0
375.0657,375.25522,49,91,0
375.16248,375.352,56,91,0
375.25925,375.44876,49,92,0
375.35602,375.54553,56,93,0
375.4528,375.6423,49,93,0
375.54956,375.74216,56,94,0
375.64633,375.84216,47,94,0
375.74634,375.94217,49,95,0
375.84634,376.04218,47,96,0
375.94635,376.14218,49,96,0
376.04633,376.24216,47,97,0
376.14633,376.34216,49,98,0
376.24634,376.44217,47,98,0
376.34634,376.54547,49,99,0
376.44635,376.64893,45,99,0
376.54977,376.75238,49,100,0
376.65323,376.85583,45,101,0
376.75668,376.95926,49,101,0
376.86014,377.0627,45,102,0
376.9636,377.16617,49,103,0
377.06702,377.26962,45,103,0
377.17047,377.37662,49,104,0
377.27393,377.48373,41,104,0
377.38107,377.59088,49,105,0
377.48822,377.69803,41,106,0
377.59537,377.81308,49,106,0
377.70248,377.92847,41,107,0
377.81787,378.05307,49,108,0
377.93326,378.2636,41,108,0
378.05826,378.4779,49,109,0
378.27255,381.5655,30,120,0
378.27255,381.5655,37,120,0
378.27255,381.5655,42,120,0
381.5694,384.5655,30,120,0
381.5694,384.5655,38,120,0
381.5694,384.5655,42,120,0
384.5694,387.5655,31,120,0
384.5694,387.5655,37,120,0
384.5694,387.5655,43,120,0
387.5694,390.5655,32,120,0
387.5694,390.5655,37,120,0
387.5694,390.5655,44,120,0
390.5694,390.753,44,110,0
390.66315,390.84674,45,110,0
390.7569,390.9405,46,110,0
390.85065,391.03424,47,110,0
393.5694,395.0655,66,100,0
393.5694,395.0655,60,100,0
393.5694,395.0655,56,100,0
399.5694,401.0655,31,70,0
401.0694,402.5655,32,70,0
402.5694,402.68918,49,70,0
402.5694,402.81418,37,70,0
402.6944,402.92587,49,70,0
402.8194,403.037,44,70,0
402.9305,403.13745,49,70,0
403.04163,403.23746,37,70,0
403.1416,403.33435,49,70,0
403.2416,403.43112,44,70,0
403.33838,403.525,49,70,0
403.43515,403.61874,37,70,0
403.5289,403.7125,49,70,0
403.62265,403.80624,44,70,0
403.7164,403.9,49,70,0
403.81015,403.99374,37,70,0
403.9039,404.0875,49,70,0
403.99765,404.18124,44,70,0
404.0914,404.275,49,70,0
404.18515,404.36874,37,70,0
404.2789,404.4625,51,70,0
404.37265,404.55624,44,70,0
404.4664,404.65,51,70,0
404.56015,404.74374,37,70,0
404.6539,404.8375,51,70,0
404.74765,404.93124,44,70,0
404.8414,405.025,51,70,0
404.93515,405.11874,37,70,0
405.0289,405.2125,51,70,0
405.12265,405.30624,44,70,0
405.2164,405.4,51,70,0
405.31015,405.49374,37,70,0
405.4039,405.5875,51,70,0
405.49765,405.68124,44,70,0
405.5914,405.775,51,70,0
405.68515,405.86874,37,70,0
405.7789,405.9625,49,70,0
405.87265,406.05624,44,70,0
405.9664,406.15,49,70,0
406.06015,406.24374,37,70,0
406.1539,406.3375,49,70,0
406.24765,406.43124,44,70,0
406.3414,406.525,49,70,0
406.43515,406.61874,37,70,0
406.5289,406.7125,49,70,0
406.62265,406.80624,44,70,0
406.7164,406.9,49,70,0
406.81015,406.99374,37,70,0
406.9039,407.0875,49,70,0
406.99765,407.18124,44,70,0
407.0914,407.275,49,70,0
407.18515,407.36874,37,70,0
407.2789,407.4625,51,70,0
407.37265,407.55624,44,70,0
407.4664,407.65,51,70,0
407.56015,407.74374,37,70,0
407.6539,407.8375,51,70,0
407.74765,407.93124,44,70,0
407.8414,408.025,51,70,0
407.93515,408.11874,37,70,0
408.0289,408.2125,51,70,0
408.12265,408.30624,44,70,0
408.2164,408.4,51,70,0
408.31015,408.49374,37,70,0
408.4039,408.5875,51,70,0
408.49765,408.68124,44,70,0
408.5914,408.775,51,70,0
408.68515,408.86874,37,70,0
408.7789,408.9625,49,70,0
408.87265,409.05624,44,70,0
408.9664,409.15,49,70,0
409.06015,409.24374,37,70,0
409.1539,409.3375,49,70,0
409.24765,409.43124,44,70,0
409.3414,409.525,49,70,0
409.43515,409.61874,37,70,0
409.5289,409.7125,51,70,0
409.62265,409.80624,44,70,0
409.7164,409.9,51,70,0
409.81015,409.99374,37,70,0
409.9039,410.0875,51,70,0
409.99765,410.18124,44,70,0
410.0914,410.275,51,70,0
410.18515,410.36874,37,70,0
410.2789,410.4625,49,70,0
410.37265,410.55624,44,70,0
410.4664,410.65,49,70,0
410.56015,410.74374,37,70,0
410.6539,410.8375,49,70,0
410.74765,410.93124,44,70,0
410.8414,411.025,49,70,0
410.93515,411.11874,37,70,0
411.0289,411.2125,51,70,0
411.12265,411.30624,44,70,0
411.2164,411.406,51,70,0
411.31015,411.50598,37,70,0
411.41016,411.61282,51,70,0
411.51016,411.71997,44,70,0
411.6173,411.82712,51,70,0
411.72446,411.93427,49,110,0
411.72446,411.93427,44,110,0
411.72446,411.93427,37,110,0
411.83157,412.02856,52,110,0
411.93872,412.1223,56,110,0
412.03247,412.21606,61,110,0
412.12622,412.3098,64,110,0
412.21997,412.40356,56,110,0
412.31372,412.4973,61,110,0
412.40747,412.59106,64,110,0
412.50122,412.6848,68,110,0
412.59497,412.77856,61,110,0
412.68872,412.8723,64,110,0
412.78247,412.96606,68,110,0
412.87622,413.0598,73,110,0
412.96997,413.15356,64,110,0
413.06372,413.2473,68,110,0
413.15747,413.34106,73,110,0
413.25122,413.52856,76,110,0
413.34497,413.6223,73,110,0
413.43872,413.71606,68,110,0
413.53247,413.8098,64,110,0
413.62622,413.90356,73,110,0
413.71997,413.9973,68,110,0
413.81372,414.09106,64,110,0
413.90747,414.1848,61,110,0
414.00122,414.27856,68,110,0
414.09497,414.3723,64,110,0
414.18872,414.46606,61,110,0
414.28247,414.5598,56,110,0
414.37622,414.65356,64,110,0
414.46997,414.7473,61,110,0
414.56372,414.84106,56,110,0
414.65747,414.9348,52,110,0
414.75122,415.02856,61,110,0
414.84497,415.1223,56,110,0
414.93872,415.21606,52,110,0
415.03247,415.3098,49,110,0
415.12622,415.40356,56,110,0
415.21997,415.4973,52,110,0
415.31372,415.59106,49,110,0
415.40747,415.6848,44,110,0
415.50122,415.77856,52,110,0
415.59497,415.8723,49,110,0
415.68872,415.96606,44,110,0
415.78247,416.0598,40,110,0
415.87622,416.15356,49,110,0
415.96997,416.2473,44,110,0
416.15747,416.2473,44,110,0
416.06372,416.2473,40,110,0
416.25122,417.0633,37,120,0
417.06757,417.98584,49,120,0
417.06757,417.98584,44,120,0
417.06757,417.98584,40,120,0
417.06757,417.98584,37,120,0
417.99063,419.83197,49,120,0
417.99063,419.83197,44,120,0
417.99063,419.83197,40,120,0
417.99063,419.83197,37,120,0
