start_time,end_time,note_value,velocity,instrument_program_number
0.0,1.3194441,62,80,0
0.0,1.3194441,57,80,0
0.0,1.3194441,53,80,0
1.333333,2.6527772,69,80,0
1.333333,2.6527772,64,80,0
1.333333,2.6527772,57,80,0
2.666666,3.3194437,67,80,0
3.3333325,3.8194435,65,80,0
2.666666,3.9861102,57,80,0
2.666666,3.9861102,62,80,0
3.8333323,3.9861102,64,80,0
3.999999,4.6527767,62,80,0
4.6666656,5.319443,62,80,0
4.6666656,5.319443,74,80,0
4.6666656,5.319443,69,80,0
5.333332,5.9861097,74,80,0
5.333332,5.9861097,67,80,0
5.333332,5.9861097,64,80,0
5.9999986,6.6527762,74,80,0
5.9999986,6.6527762,69,80,0
5.9999986,6.6527762,65,80,0
6.666665,7.3194427,74,80,0
6.666665,7.3194427,70,80,0
6.666665,7.3194427,64,80,0
7.3333316,7.9861093,74,80,0
7.3333316,7.9861093,71,80,0
7.3333316,7.9861093,65,80,0
7.999998,9.319442,74,80,0
7.999998,9.319442,65,80,0
7.999998,9.986109,69,80,0
9.333331,9.986109,73,80,0
9.333331,9.986109,64,80,0
10.666664,11.986108,65,80,0
10.666664,11.986108,60,80,0
10.666664,11.986108,57,80,0
11.999997,13.319441,72,80,0
11.999997,13.319441,67,80,0
11.999997,13.319441,60,80,0
13.33333,13.986108,70,80,0
13.999996,14.486108,69,80,0
14.499996,14.652774,68,80,0
13.33333,15.319441,65,80,0
13.33333,15.319441,60,80,0
14.666663,15.319441,69,80,0
15.333329,15.986107,71,80,0
15.333329,15.986107,69,80,0
15.333329,15.986107,65,80,0
15.999996,17.31944,72,80,0
15.999996,17.31944,69,80,0
15.999996,17.31944,64,80,0
17.333328,18.652773,68,80,0
17.333328,18.652773,64,80,0
17.333328,18.652773,62,80,0
18.666662,19.319439,69,80,0
18.666662,19.319439,64,80,0
18.666662,19.319439,60,80,0
19.333328,19.986107,58,80,0
19.999994,20.652773,57,80,0
20.666662,21.319439,61,80,0
21.333328,22.652773,62,80,0
21.333328,22.652773,57,80,0
21.333328,22.652773,53,80,0
22.66666,23.986105,69,80,0
22.66666,23.986105,64,80,0
22.66666,23.986105,57,80,0
23.999994,24.652771,67,80,0
24.66666,25.152771,65,80,0
23.999994,25.319439,57,80,0
23.999994,25.319439,62,80,0
25.16666,25.319439,64,80,0
25.333326,25.986105,62,80,0
25.999994,26.652771,62,80,0
25.999994,26.652771,74,80,0
25.999994,26.652771,69,80,0
26.66666,27.319437,74,80,0
26.66666,27.319437,67,80,0
26.66666,27.319437,64,80,0
27.333326,27.986105,74,85,0
27.333326,27.986105,69,85,0
27.333326,27.986105,65,85,0
27.999992,28.652771,74,91,0
27.999992,28.652771,70,91,0
27.999992,28.652771,64,91,0
28.66666,29.319437,74,97,0
28.66666,29.319437,71,97,0
28.66666,29.319437,65,97,0
29.333326,30.652771,74,80,0
29.333326,30.652771,65,80,0
29.333326,31.319437,69,80,0
30.666658,31.319437,73,80,0
30.666658,31.319437,64,80,0
31.999992,33.319435,65,80,0
31.999992,33.319435,60,80,0
31.999992,33.319435,57,80,0
33.333324,34.65277,72,80,0
33.333324,34.65277,67,80,0
33.333324,34.65277,60,80,0
34.666656,35.319435,70,80,0
35.333324,35.819435,69,80,0
35.833324,35.986103,68,80,0
34.666656,36.652767,65,80,0
34.666656,36.652767,60,80,0
35.999992,36.652767,69,80,0
36.666656,37.319435,71,80,0
36.666656,37.319435,69,80,0
36.666656,37.319435,65,80,0
37.333324,38.652767,72,80,0
37.333324,38.652767,69,80,0
37.333324,38.652767,64,80,0
38.666656,39.9861,68,80,0
38.666656,39.9861,64,80,0
38.666656,39.9861,62,80,0
39.99999,40.652767,69,80,0
39.99999,40.652767,64,80,0
39.99999,40.652767,60,80,0
40.666656,41.319435,58,80,0
41.333324,41.9861,57,80,0
41.99999,42.652767,56,80,0
42.666656,43.9861,76,80,0
42.666656,43.9861,73,80,0
43.99999,45.152767,79,100,0
43.99999,45.152767,76,100,0
45.166656,45.31943,77,80,0
45.166656,45.31943,74,80,0
45.33332,45.9861,77,80,0
45.33332,45.9861,74,80,0
45.99999,47.31943,76,80,0
45.99999,47.31943,73,80,0
45.99999,47.31943,70,80,0
47.33332,47.81943,77,80,0
47.33332,47.9861,71,80,0
47.83332,47.9861,74,80,0
47.99999,49.652767,73,80,0
47.99999,49.652767,69,80,0
49.666653,49.9861,73,80,0
49.666653,49.9861,76,80,0
49.99999,50.4861,79,80,0
49.99999,50.4861,76,80,0
50.49999,50.652763,77,80,0
50.49999,50.652763,74,80,0
50.666653,51.31943,77,80,0
50.666653,51.31943,74,80,0
51.33332,52.652763,76,100,0
51.33332,52.652763,73,100,0
51.33332,52.652763,70,100,0
52.666653,53.152763,77,80,0
52.666653,53.31943,71,80,0
53.166653,53.31943,74,80,0
53.33332,53.9861,69,80,0
53.33332,53.9861,73,80,0
53.999985,55.31943,76,100,0
53.999985,55.31943,73,100,0
53.999985,55.31943,70,100,0
55.33332,55.81943,77,80,0
55.33332,55.986095,71,80,0
55.83332,55.986095,74,80,0
55.999985,56.31943,69,80,0
55.999985,56.486095,73,80,0
56.499985,56.652763,76,80,0
56.666653,57.152763,77,80,0
56.666653,57.31943,71,80,0
57.166653,57.31943,74,80,0
57.33332,57.652763,69,80,0
57.33332,57.81943,73,80,0
57.83332,57.986095,76,80,0
57.999985,58.486095,77,80,0
57.999985,58.652763,71,80,0
58.499985,58.652763,74,80,0
58.666653,59.31943,69,80,0
58.666653,59.986095,73,80,0
59.999985,61.319427,76,80,0
61.333317,63.319427,79,80,0
63.333317,63.986095,73,80,0
63.333317,63.986095,61,80,0
63.999985,65.31943,74,80,0
63.999985,65.31943,62,80,0
65.33332,66.65276,69,80,0
65.33332,66.65276,81,80,0
66.66665,67.31943,79,80,0
66.66665,67.31943,67,80,0
67.33331,67.81943,77,80,0
67.33331,67.81943,65,80,0
67.83331,67.98609,76,80,0
67.83331,67.98609,64,80,0
67.999985,68.65276,74,80,0
67.999985,68.65276,62,80,0
68.66665,69.31943,67,100,0
68.66665,69.31943,79,100,0
69.33331,69.98609,77,80,0
69.33331,69.98609,65,80,0
69.999985,70.48609,76,80,0
69.999985,70.48609,64,80,0
70.499985,70.65276,74,80,0
70.499985,70.65276,62,80,0
70.66665,71.31943,72,80,0
70.66665,71.31943,60,80,0
71.33331,71.98609,81,100,0
71.33331,71.98609,69,100,0
71.999985,72.65276,79,80,0
71.999985,72.65276,67,80,0
72.66665,73.152756,77,80,0
72.66665,73.152756,65,80,0
73.16665,73.31943,76,80,0
73.16665,73.31943,64,80,0
73.33331,73.98609,74,83,0
73.33331,73.98609,62,83,0
73.999985,74.48609,74,98,0
73.999985,74.48609,86,98,0
74.499985,74.652756,84,109,0
74.499985,74.652756,72,109,0
74.66665,74.98609,84,110,0
74.66665,74.98609,72,110,0
74.999985,75.31943,82,110,0
74.999985,75.31943,70,110,0
75.33331,75.652756,81,110,0
75.33331,75.652756,69,110,0
75.66665,75.98609,80,110,0
75.66665,75.98609,68,110,0
75.999985,76.31943,80,110,0
75.999985,76.31943,68,110,0
76.33331,76.98609,81,110,0
76.33331,76.98609,69,110,0
76.99998,77.31943,61,95,0
76.99998,77.31943,55,95,0
77.33331,78.652756,64,80,0
77.33331,78.652756,61,80,0
77.33331,78.652756,55,80,0
78.66665,79.31943,62,80,0
78.66665,79.31943,57,80,0
78.66665,79.31943,53,80,0
79.99998,81.31943,76,80,0
79.99998,81.31943,73,80,0
81.33331,82.48609,79,100,0
81.33331,82.48609,76,100,0
82.49998,82.652756,77,80,0
82.49998,82.652756,74,80,0
82.66665,83.31942,77,80,0
82.66665,83.31942,74,80,0
83.33331,84.652756,76,80,0
83.33331,84.652756,73,80,0
83.33331,84.652756,70,80,0
84.66665,85.152756,77,80,0
84.66665,85.31942,71,80,0
85.16665,85.31942,74,80,0
85.33331,86.98609,73,80,0
85.33331,86.98609,69,80,0
86.99998,87.31942,73,80,0
86.99998,87.31942,76,80,0
87.33331,87.81942,79,80,0
87.33331,87.81942,76,80,0
87.83331,87.98609,77,80,0
87.83331,87.98609,74,80,0
87.99998,88.652756,77,80,0
87.99998,88.652756,74,80,0
88.66664,89.98609,76,100,0
88.66664,89.98609,73,100,0
88.66664,89.98609,70,100,0
89.99998,90.48609,77,80,0
89.99998,90.652756,71,80,0
90.49998,90.652756,74,80,0
90.66664,91.31942,69,80,0
90.66664,91.31942,73,80,0
91.33331,92.652756,76,100,0
91.33331,92.652756,73,100,0
91.33331,92.652756,70,100,0
92.66664,93.152756,77,80,0
92.66664,93.31942,71,80,0
93.16664,93.31942,74,80,0
93.33331,93.652756,69,80,0
93.33331,93.81942,73,80,0
93.83331,93.986084,76,80,0
93.99998,94.486084,77,80,0
93.99998,94.652756,71,80,0
94.49998,94.652756,74,80,0
94.66664,94.986084,69,80,0
94.66664,95.152756,73,80,0
95.16664,95.31942,76,80,0
95.33331,95.81942,77,80,0
95.33331,95.986084,71,80,0
95.83331,95.986084,74,80,0
95.99998,96.652756,69,80,0
95.99998,97.31942,73,80,0
97.333305,98.652756,76,80,0
98.66664,100.652756,79,80,0
100.66664,101.31942,73,80,0
100.66664,101.31942,61,80,0
101.333305,102.652756,74,80,0
101.333305,102.652756,62,80,0
102.66664,103.986084,69,80,0
102.66664,103.986084,81,80,0
103.99998,104.65275,79,80,0
103.99998,104.65275,67,80,0
104.66664,105.15275,77,80,0
104.66664,105.15275,65,80,0
105.16664,105.31942,76,80,0
105.16664,105.31942,64,80,0
105.333305,105.986084,74,80,0
105.333305,105.986084,62,80,0
105.99998,106.65275,67,80,0
105.99998,106.65275,79,80,0
106.66664,107.31942,77,80,0
106.66664,107.31942,65,80,0
107.333305,107.81942,76,80,0
107.333305,107.81942,64,80,0
107.833305,107.986084,74,80,0
107.833305,107.986084,62,80,0
107.99997,108.65275,72,80,0
107.99997,108.65275,60,80,0
108.66664,109.31942,81,80,0
108.66664,109.31942,69,80,0
109.333305,109.986084,79,80,0
109.333305,109.986084,67,80,0
109.99997,110.486084,77,80,0
109.99997,110.486084,65,80,0
110.49997,110.65275,76,80,0
110.49997,110.65275,64,80,0
110.66664,111.31942,74,83,0
110.66664,111.31942,62,83,0
111.333305,111.81942,74,98,0
111.333305,111.81942,86,98,0
111.833305,111.986084,84,109,0
111.833305,111.986084,72,109,0
111.99997,112.334274,84,110,0
111.99997,112.334274,72,110,0
112.34881,112.68311,82,110,0
112.34881,112.68311,70,110,0
112.69765,113.03195,81,110,0
112.69765,113.03195,69,110,0
113.046486,113.38078,80,110,0
113.046486,113.38078,68,110,0
113.39532,113.745926,80,110,0
113.39532,113.745926,68,110,0
113.76118,114.50532,81,110,0
113.76118,114.50532,69,110,0
114.52177,114.900055,61,95,0
114.52177,114.900055,55,95,0
114.916504,116.479004,64,80,0
114.916504,116.479004,61,80,0
114.916504,116.479004,55,80,0
116.495445,117.26847,62,80,0
116.495445,117.26847,57,80,0
116.495445,117.26847,53,80,0
117.67966,118.057945,57,80,0
118.074394,118.511894,66,80,0
118.074394,118.511894,62,80,0
118.52439,118.661896,66,80,0
118.52439,118.661896,62,80,0
118.67439,118.96189,66,80,0
118.67439,118.96189,62,80,0
119.161896,119.2494,80,80,0
119.27439,119.46189,81,80,0
119.474396,119.661896,78,80,0
119.67439,119.86189,74,80,0
119.8744,120.0619,69,80,0
120.074394,120.261894,67,80,0
120.27439,120.46189,66,80,0
120.474396,120.911896,64,80,0
120.474396,120.911896,62,80,0
120.474396,120.911896,59,80,0
120.92439,121.0619,64,80,0
120.92439,121.0619,62,80,0
120.92439,121.0619,59,80,0
121.074394,121.36189,64,80,0
121.074394,121.36189,62,80,0
121.074394,121.36189,59,80,0
121.52439,121.661896,82,80,0
121.67439,121.86189,83,80,0
121.8744,122.0619,79,80,0
122.074394,122.261894,76,80,0
122.27439,122.46189,71,80,0
122.474396,122.661896,67,80,0
122.67439,122.86189,64,80,0
122.8744,123.3119,61,80,0
123.324394,123.46189,61,80,0
123.474396,123.761894,61,80,0
123.92439,124.0619,78,80,0
124.074394,124.261894,79,80,0
124.27439,124.46189,76,80,0
124.474396,124.661896,73,80,0
124.67439,124.86189,67,80,0
124.8744,125.0619,64,80,0
125.074394,125.261894,61,80,0
125.27439,125.46189,62,80,0
125.474396,125.661896,57,80,0
125.67439,125.86189,66,80,0
125.8744,126.0619,64,80,0
125.8744,126.0619,61,80,0
126.074394,126.261894,57,80,0
126.27439,126.46189,67,80,0
126.474396,126.661896,66,80,0
126.474396,126.661896,62,80,0
126.67439,126.86189,74,80,0
126.8744,127.0619,73,80,0
127.074394,127.28273,71,80,0
127.296616,127.50495,69,80,0
127.51884,127.72717,67,80,0
127.74106,128.17856,66,80,0
127.74106,128.17856,62,80,0
128.19106,128.32857,66,80,0
128.19106,128.32857,62,80,0
128.34106,128.62856,66,80,0
128.34106,128.62856,62,80,0
128.82857,128.91606,80,80,0
128.94106,129.12856,81,80,0
129.14107,129.32857,78,80,0
129.34106,129.52856,74,80,0
129.54106,129.72856,69,80,0
129.74106,129.92856,67,80,0
129.94106,130.12856,66,80,0
130.14107,130.62717,64,110,0
130.14107,130.62717,62,110,0
130.14107,130.62717,59,110,0
130.64107,130.79384,64,110,0
130.64107,130.79384,62,110,0
130.64107,130.79384,59,110,0
130.80772,131.12717,64,110,0
130.80772,131.12717,62,110,0
130.80772,131.12717,59,110,0
131.30772,131.46051,85,100,0
131.4744,131.6619,86,98,0
131.6744,131.8619,83,94,0
131.87439,132.06189,80,91,0
132.07439,132.26189,76,88,0
132.2744,132.4619,74,84,0
132.4744,132.6619,71,81,0
132.6744,132.8619,73,80,0
132.87439,133.06189,81,80,0
133.07439,133.26189,80,80,0
133.2744,133.4619,81,80,0
133.4744,133.6619,76,80,0
133.6744,133.8619,73,80,0
133.87439,134.06189,71,80,0
134.07439,134.26189,76,80,0
134.2744,134.4619,75,80,0
134.4744,134.6619,76,80,0
134.6744,134.8619,74,80,0
134.87439,135.06189,71,80,0
135.07439,135.26189,69,80,0
135.2744,135.4619,64,80,0
135.4744,135.6619,73,80,0
135.6744,135.8619,69,80,0
135.87439,136.06189,64,80,0
136.07439,136.26189,73,80,0
136.2744,136.4619,69,80,0
136.4744,136.6619,76,80,0
136.6744,136.8619,73,80,0
136.87439,137.06189,69,80,0
137.07439,137.26189,71,80,0
137.2744,137.4619,67,80,0
137.4744,137.9119,66,80,0
137.4744,137.9119,62,80,0
137.9244,138.06189,66,80,0
137.9244,138.06189,62,80,0
138.07439,138.3619,66,80,0
138.07439,138.3619,62,80,0
138.56189,138.6494,80,80,0
138.6744,138.8619,81,80,0
138.87439,139.06189,78,80,0
139.07439,139.26189,74,80,0
139.2744,139.4619,69,80,0
139.4744,139.6619,67,80,0
139.6744,139.8619,66,80,0
139.87439,140.31189,64,80,0
139.87439,140.31189,62,80,0
139.87439,140.31189,59,80,0
140.32439,140.4619,64,80,0
140.32439,140.4619,62,80,0
140.32439,140.4619,59,80,0
140.4744,140.76189,64,80,0
140.4744,140.76189,62,80,0
140.4744,140.76189,59,80,0
140.9244,141.06189,82,80,0
141.07439,141.26189,83,80,0
141.2744,141.4619,79,80,0
141.4744,141.6619,76,80,0
141.6744,141.8619,71,80,0
141.87439,142.06189,67,80,0
142.07439,142.26189,64,80,0
142.2744,142.7119,61,80,0
142.7244,142.8619,61,80,0
142.87439,143.1619,61,80,0
143.32439,143.4619,78,80,0
143.4744,143.6619,79,80,0
143.6744,143.8619,76,80,0
143.87439,144.06189,73,80,0
144.07439,144.26189,67,80,0
144.2744,144.4619,64,80,0
144.4744,144.6619,61,80,0
144.6744,144.8619,62,80,0
144.87439,145.06189,57,80,0
145.07439,145.26189,66,80,0
145.2744,145.4619,64,80,0
145.2744,145.4619,61,80,0
145.4744,145.6619,57,80,0
145.6744,145.8619,67,80,0
145.87439,146.09242,66,80,0
145.87439,146.09242,62,80,0
146.10695,146.32498,74,80,0
146.33951,146.55753,73,80,0
146.57207,146.80644,71,80,0
146.82207,147.05644,69,80,0
147.07207,147.30644,67,80,0
147.32207,147.7778,66,80,0
147.32207,147.7778,62,80,0
147.79082,147.93405,66,80,0
147.79082,147.93405,62,80,0
147.94707,148.24655,66,80,0
147.94707,148.24655,62,80,0
148.45488,148.54602,80,80,0
148.57207,148.76738,81,80,0
148.7804,148.97571,78,80,0
148.98874,149.18405,74,80,0
149.19707,149.39238,69,80,0
149.4054,149.60071,67,80,0
149.61374,149.80905,66,80,0
149.82207,150.3308,64,110,0
149.82207,150.3308,62,110,0
149.82207,150.3308,59,110,0
150.34532,150.5052,64,110,0
150.34532,150.5052,62,110,0
150.34532,150.5052,59,110,0
150.51974,150.85405,64,110,0
150.51974,150.85405,62,110,0
150.51974,150.85405,59,110,0
151.043,151.20288,85,80,0
151.21742,151.41273,86,80,0
151.42575,151.62106,83,80,0
151.63408,151.82939,80,80,0
151.84242,152.03773,76,80,0
152.05075,152.24606,74,80,0
152.25908,152.45439,71,80,0
152.46742,152.65492,73,80,0
152.66742,152.85492,81,80,0
152.86742,153.05492,80,80,0
153.06741,153.25491,81,80,0
153.26741,153.45491,76,80,0
153.46742,153.65492,73,80,0
153.66742,153.85492,71,80,0
153.86742,154.05492,76,80,0
154.06741,154.25491,75,80,0
154.26741,154.45491,76,80,0
154.46742,154.65492,74,80,0
154.66742,154.85492,71,80,0
154.86742,155.05492,69,80,0
155.06741,155.25491,64,80,0
155.26741,155.45491,73,80,0
155.46742,155.65492,69,80,0
155.66742,155.85492,64,80,0
155.86742,156.05492,73,80,0
156.06741,156.65492,69,80,0
157.26741,157.77614,62,110,0
157.26741,157.77614,60,110,0
157.26741,157.77614,57,110,0
157.79066,157.95056,62,110,0
157.79066,157.95056,60,110,0
157.79066,157.95056,57,110,0
157.96509,158.2994,62,110,0
157.96509,158.2994,60,110,0
157.96509,158.2994,57,110,0
158.48834,158.64822,83,80,0
158.66277,158.85808,84,80,0
158.8711,159.0664,81,80,0
159.07944,159.27475,78,80,0
159.28777,159.48308,74,80,0
159.4961,159.6914,72,80,0
159.70444,159.89975,69,80,0
159.91277,160.42148,62,110,0
159.91277,160.42148,59,110,0
160.43602,160.5959,62,110,0
160.43602,160.5959,59,110,0
160.61044,160.94473,62,110,0
160.61044,160.94473,59,110,0
161.1337,161.29358,85,80,0
161.3081,161.50342,86,80,0
161.51645,161.71176,83,80,0
161.72478,161.92009,79,80,0
161.9331,162.12842,86,80,0
162.14145,162.33676,84,80,0
162.34978,162.54509,81,80,0
162.5581,162.75342,84,80,0
162.76645,162.96176,83,80,0
162.97478,163.17009,79,80,0
163.1831,163.37842,83,80,0
163.39145,163.58676,81,80,0
163.59978,163.79509,78,80,0
163.8081,163.9956,81,80,0
164.00812,164.19562,79,80,0
164.20811,164.39561,76,80,0
164.40811,164.59561,79,80,0
164.60811,164.79561,78,80,0
164.8081,164.9956,74,80,0
165.00812,165.19562,78,80,0
165.20811,165.39561,76,80,0
165.40811,165.59561,71,80,0
165.60811,165.79561,76,80,0
165.8081,165.9956,74,80,0
166.00812,166.19562,71,80,0
166.20811,166.40758,74,80,0
166.42088,166.62035,73,80,0
166.63364,166.83311,71,80,0
166.8464,167.06444,69,80,0
167.07896,167.297,71,80,0
167.31152,167.52954,67,80,0
167.54408,167.99982,66,80,0
167.54408,167.99982,62,80,0
168.01283,168.15607,62,80,0
168.01283,168.15607,66,80,0
168.16908,168.46857,66,80,0
168.16908,168.46857,62,80,0
168.63783,168.78107,80,80,0
168.79408,168.98158,81,80,0
168.99408,169.18158,78,80,0
169.19408,169.38158,74,80,0
169.39409,169.58159,69,80,0
169.59409,169.78159,67,80,0
169.79408,169.98158,66,80,0
169.99408,170.43158,64,80,0
169.99408,170.43158,62,80,0
169.99408,170.43158,59,80,0
170.44408,170.58159,64,80,0
170.44408,170.58159,62,80,0
170.44408,170.58159,59,80,0
170.59409,170.88158,64,80,0
170.59409,170.88158,62,80,0
170.59409,170.88158,59,80,0
171.04408,171.18158,85,80,0
171.19408,171.38158,86,80,0
171.39409,171.58159,83,80,0
171.59409,171.78159,81,80,0
171.79408,171.98158,79,80,0
171.99408,172.18158,78,80,0
172.19408,172.38158,76,80,0
172.39409,172.58159,74,80,0
172.59409,172.78159,81,80,0
172.79408,172.98158,80,80,0
172.99408,173.18158,81,80,0
173.19408,173.38158,78,80,0
173.39409,173.58159,74,80,0
173.59409,173.78159,73,80,0
173.79408,173.98158,79,80,0
173.99408,174.18158,78,80,0
174.19408,174.38158,79,80,0
174.39409,174.58159,76,80,0
174.59409,174.78159,73,80,0
174.79408,174.98158,74,80,0
174.99408,175.18158,69,80,0
175.19408,175.38158,78,80,0
175.39409,175.58159,74,80,0
175.59409,175.78159,69,80,0
175.79408,175.98158,78,80,0
175.99408,176.58159,74,80,0
177.23238,177.7411,62,110,0
177.23238,177.7411,60,110,0
177.23238,177.7411,57,110,0
177.75563,177.91553,62,110,0
177.75563,177.91553,60,110,0
177.75563,177.91553,57,110,0
177.93005,178.26436,62,110,0
177.93005,178.26436,60,110,0
177.93005,178.26436,57,110,0
178.45331,178.61319,83,80,0
178.62773,178.8272,84,80,0
178.8405,179.03996,81,80,0
179.05325,179.25273,78,80,0
179.26602,179.4655,74,80,0
179.47879,179.67825,72,80,0
179.69156,179.89102,69,80,0
179.90433,180.41304,62,110,0
179.90433,180.41304,59,110,0
180.42758,180.58746,62,110,0
180.42758,180.58746,59,110,0
180.602,180.9363,62,110,0
180.602,180.9363,59,110,0
181.12526,181.28514,85,80,0
181.29967,181.49498,86,80,0
181.50801,181.70332,83,80,0
181.71634,181.91165,79,80,0
181.92467,182.11998,86,80,0
182.13301,182.32832,84,80,0
182.34134,182.53665,81,80,0
182.54967,182.74498,84,80,0
182.75801,182.95332,83,80,0
182.96634,183.16165,79,80,0
183.17467,183.36998,83,80,0
183.38301,183.57832,81,80,0
183.59134,183.78665,78,80,0
183.79967,183.98717,81,80,0
183.99968,184.18718,79,80,0
184.19968,184.38718,76,80,0
184.39967,184.58717,79,80,0
184.59967,184.78717,78,80,0
184.79967,184.98717,74,80,0
184.99968,185.18718,78,80,0
185.19968,185.38718,76,80,0
185.39967,185.58717,71,80,0
185.59967,185.78717,76,80,0
185.79967,185.98717,74,80,0
185.99968,186.18718,71,80,0
186.19968,186.39914,74,80,0
186.41245,186.61191,73,80,0
186.6252,186.82468,71,80,0
186.83797,187.0463,69,80,0
187.0602,187.26852,71,80,0
187.28241,187.49075,67,80,0
187.50464,187.94214,66,80,0
187.50464,187.94214,62,80,0
187.95464,188.09213,62,80,0
187.95464,188.09213,66,80,0
188.10463,188.39214,66,80,0
188.10463,188.39214,62,80,0
188.55464,188.69214,80,80,0
188.70464,188.89214,81,80,0
188.90463,189.09213,78,80,0
189.10463,189.29213,74,80,0
189.30464,189.49214,69,80,0
189.50464,189.69214,67,80,0
189.70464,189.89214,66,80,0
189.90463,190.34213,64,80,0
189.90463,190.34213,62,80,0
189.90463,190.34213,59,80,0
190.35463,190.49214,64,80,0
190.35463,190.49214,62,80,0
190.35463,190.49214,59,80,0
190.50464,190.79213,64,80,0
190.50464,190.79213,62,80,0
190.50464,190.79213,59,80,0
190.95464,191.09213,85,80,0
191.10463,191.29213,86,80,0
191.30464,191.49214,83,80,0
191.50464,191.69214,81,80,0
191.70464,191.89214,79,80,0
191.90463,192.09213,78,80,0
192.10463,192.29213,76,80,0
192.30464,192.49214,74,80,0
192.50464,192.69214,81,80,0
192.70464,192.89214,80,80,0
192.90463,193.09213,81,80,0
193.10463,193.29213,78,80,0
193.30464,193.49214,74,80,0
193.50464,193.69214,73,80,0
193.70464,193.89214,79,80,0
193.90463,194.09213,78,80,0
194.10463,194.29213,79,80,0
194.30464,194.49214,76,80,0
194.50464,194.69214,73,80,0
194.70464,194.91296,74,80,0
194.92686,195.1352,69,80,0
195.14908,195.3574,78,80,0
195.3713,195.58932,74,80,0
195.60387,195.82188,69,80,0
195.83643,196.05444,78,80,0
196.06897,196.80334,74,80,0
196.81897,197.55334,57,80,0
197.56897,198.85974,62,80,0
197.56897,198.85974,57,80,0
197.56897,198.85974,53,80,0
198.87332,200.16408,69,80,0
198.87332,200.16408,64,80,0
198.87332,200.16408,57,80,0
200.17767,200.81625,67,80,0
200.82985,201.30539,65,80,0
200.17767,201.46843,57,80,0
200.17767,201.46843,62,80,0
201.31897,201.46843,64,80,0
201.48201,202.1206,62,80,0
202.13419,202.77278,62,80,0
202.13419,202.77278,74,80,0
202.13419,202.77278,69,80,0
202.78636,203.42496,74,80,0
202.78636,203.42496,67,80,0
202.78636,203.42496,64,80,0
203.43854,204.07712,74,88,0
203.43854,204.07712,69,88,0
203.43854,204.07712,65,88,0
204.09071,204.7293,74,97,0
204.09071,204.7293,70,97,0
204.09071,204.7293,64,97,0
204.74289,205.38147,74,105,0
204.74289,205.38147,71,105,0
204.74289,205.38147,65,105,0
205.39507,206.68582,74,80,0
205.39507,206.68582,65,80,0
205.39507,207.338,69,80,0
206.6994,207.338,73,80,0
206.6994,207.338,64,80,0
208.00375,209.29451,65,80,0
208.00375,209.29451,60,80,0
208.00375,209.29451,57,80,0
209.3081,210.59886,72,80,0
209.3081,210.59886,67,80,0
209.3081,210.59886,60,80,0
210.61244,211.25104,70,80,0
211.26462,211.74016,69,80,0
211.75375,211.90321,68,80,0
210.61244,212.55537,65,80,0
210.61244,212.55537,60,80,0
211.9168,212.55537,69,80,0
212.56897,213.20755,71,80,0
212.56897,213.20755,69,80,0
212.56897,213.20755,65,80,0
213.22115,214.5119,72,80,0
213.22115,214.5119,69,80,0
213.22115,214.5119,64,80,0
214.52548,215.81625,68,97,0
214.52548,215.81625,64,97,0
214.52548,215.81625,62,97,0
215.82983,216.46841,69,80,0
215.82983,216.46841,64,80,0
215.82983,216.46841,60,80,0
216.48201,217.12059,58,80,0
217.13419,217.77277,57,80,0
217.78636,218.42494,61,80,0
218.43852,218.68309,62,80,0
218.60158,218.8733,65,80,0
218.76462,219.03636,69,80,0
218.92766,219.1994,73,80,0
219.0907,219.38962,74,80,0
219.25374,219.53908,76,80,0
219.4168,219.70212,77,80,0
219.57983,219.85158,79,80,0
219.74287,220.0282,80,80,0
219.90591,220.16408,81,80,0
220.06897,220.36787,80,80,0
220.23201,220.54451,81,80,0
220.39505,220.6532,80,80,0
220.55809,220.80266,81,80,0
220.72113,220.99287,82,80,0
220.88419,221.16951,81,80,0
221.04723,221.35973,79,80,0
221.21027,221.52277,77,80,0
221.3733,221.6858,76,80,0
221.53635,221.84885,74,80,0
221.6994,222.0119,73,80,0
221.86244,222.17494,74,80,0
222.02548,222.33798,73,80,0
222.18852,222.50102,74,80,0
222.35156,222.66406,73,80,0
222.51462,222.82712,74,80,0
222.67766,222.99016,76,80,0
222.8407,223.1532,74,80,0
223.1668,223.47928,74,80,0
223.00374,223.64233,69,80,0
223.32983,223.64233,76,80,0
223.49287,223.80537,74,80,0
223.65591,223.96841,67,81,0
223.81895,224.13145,74,83,0
223.65591,224.29451,64,81,0
223.98201,224.29451,76,85,0
224.14505,224.45755,74,87,0
224.30809,224.62059,69,89,0
224.47113,224.78363,74,91,0
224.30809,224.94667,65,89,0
224.63417,224.94667,76,93,0
224.79723,225.10973,74,95,0
224.96027,225.27277,70,97,0
225.1233,225.4358,74,99,0
224.96027,225.59885,64,97,0
225.28635,225.59885,76,101,0
225.44939,225.76189,74,103,0
225.61244,225.92494,71,105,0
225.77548,226.08798,74,107,0
225.61244,226.25102,65,105,0
225.93852,226.25102,76,109,0
226.10156,226.41406,74,80,0
226.26462,226.57712,69,80,0
226.42766,226.74016,73,80,0
226.5907,226.9032,74,80,0
226.75374,227.06624,73,80,0
226.91678,227.22928,74,80,0
227.07983,227.39233,77,80,0
226.26462,227.55537,65,80,0
227.24287,227.55537,76,80,0
227.40591,227.71841,74,80,0
227.56895,227.88145,73,80,0
227.732,228.0445,72,80,0
227.56895,228.20755,64,80,0
227.89505,228.20755,74,80,0
228.05809,228.37059,72,80,0
228.22113,228.53363,71,80,0
228.38417,228.69667,72,80,0
228.54721,228.85971,74,80,0
228.71027,229.02277,76,80,0
228.8733,229.1858,77,80,0
229.03635,229.34885,65,80,0
229.19939,229.51189,69,80,0
229.36244,229.67494,72,80,0
229.52548,229.83798,77,80,0
229.68852,230.00102,79,80,0
229.85156,230.16406,81,80,0
230.0146,230.3271,82,80,0
230.17766,230.49016,83,80,0
230.3407,230.6532,84,80,0
230.50374,230.81624,83,80,0
230.66678,230.97928,84,80,0
230.82982,231.14232,83,80,0
230.99287,231.30537,84,80,0
231.15591,231.46841,86,80,0
231.31895,231.63145,84,80,0
231.482,231.7945,82,80,0
231.64503,231.95753,81,80,0
231.80809,232.12059,80,80,0
231.97113,232.28363,81,80,0
232.13417,232.44667,80,80,0
232.29721,232.60971,81,80,0
232.46027,232.77277,82,80,0
232.6233,232.9358,81,80,0
232.78635,233.09885,69,80,0
232.94939,233.26189,81,80,0
233.11243,233.42493,80,80,0
233.27548,233.58798,81,80,0
233.43852,233.75102,71,80,0
233.60156,233.91406,83,80,0
233.7646,234.0771,81,80,0
233.92764,234.24014,83,80,0
234.0907,234.4032,72,81,0
234.25374,234.56624,84,83,0
234.41678,234.72928,83,85,0
234.57982,234.89232,84,87,0
234.74286,235.05536,88,89,0
234.90591,235.21841,84,91,0
235.06895,235.38145,83,93,0
235.232,235.5445,81,95,0
235.39503,235.70753,80,97,0
235.55809,235.87059,77,99,0
235.72113,236.03363,76,101,0
235.88417,236.19667,74,103,0
236.04721,236.35971,72,105,0
236.21025,236.52275,71,107,0
236.3733,236.6858,69,109,0
236.53635,236.84885,68,110,0
236.69939,237.01189,69,110,0
237.02547,237.33797,57,110,0
237.67764,237.99014,58,110,0
238.32982,238.64232,57,110,0
238.982,239.2945,56,110,0
239.30807,240.59885,76,80,0
239.30807,240.59885,73,80,0
240.61243,241.74014,79,80,0
240.61243,241.74014,76,80,0
241.75374,241.90318,77,80,0
241.75374,241.90318,74,80,0
241.91678,242.55536,77,80,0
241.91678,242.55536,74,80,0
242.56895,243.85971,76,100,0
242.56895,243.85971,73,100,0
242.56895,243.85971,70,100,0
243.87329,244.34883,77,80,0
243.87329,244.51189,71,80,0
244.36243,244.51189,74,80,0
244.52547,246.14232,73,80,0
244.52547,246.14232,69,80,0
246.1559,246.4684,73,80,0
246.1559,246.4684,76,80,0
246.482,246.95753,79,80,0
246.482,246.95753,76,80,0
246.97112,247.12057,77,80,0
246.97112,247.12057,74,80,0
247.13416,247.77275,77,80,0
247.13416,247.77275,74,80,0
247.78633,249.0771,76,100,0
247.78633,249.0771,73,100,0
247.78633,249.0771,70,100,0
249.09068,249.56622,77,80,0
249.09068,249.72926,71,80,0
249.57982,249.72926,74,80,0
249.74286,250.38144,69,80,0
249.74286,250.38144,73,80,0
250.39503,251.68579,76,100,0
250.39503,251.68579,73,100,0
250.39503,251.68579,70,100,0
251.69937,252.17493,77,80,0
251.69937,252.33797,71,80,0
252.1885,252.33797,74,80,0
252.35155,252.66405,69,80,0
252.35155,252.82709,73,80,0
252.84068,252.99014,76,80,0
253.00372,253.47926,77,80,0
253.00372,253.6423,71,80,0
253.49286,253.6423,74,80,0
253.6559,253.9684,69,80,0
253.6559,254.13144,73,80,0
254.14503,254.29448,76,80,0
254.30807,254.78362,77,80,0
254.30807,254.94666,71,80,0
254.7972,254.94666,74,80,0
254.96025,255.59883,69,80,0
254.96025,256.251,73,80,0
256.2646,257.55536,76,80,0
257.56894,259.51187,79,80,0
259.52545,260.16403,73,80,0
259.52545,260.16403,61,80,0
260.17764,261.46838,74,80,0
260.17764,261.46838,62,80,0
261.482,262.77274,69,80,0
261.482,262.77274,81,80,0
262.78632,263.42493,79,80,0
262.78632,263.42493,67,80,0
263.4385,263.91403,77,80,0
263.4385,263.91403,65,80,0
263.92764,264.0771,76,80,0
263.92764,264.0771,64,80,0
264.09067,264.72925,74,80,0
264.09067,264.72925,62,80,0
264.74286,265.38144,67,100,0
264.74286,265.38144,79,100,0
265.39502,266.0336,77,80,0
265.39502,266.0336,65,80,0
266.04718,266.52274,76,80,0
266.04718,266.52274,64,80,0
266.53632,266.6858,74,80,0
266.53632,266.6858,62,80,0
266.69937,267.33795,72,80,0
266.69937,267.33795,60,80,0
267.35153,267.9901,81,100,0
267.35153,267.9901,69,100,0
268.00372,268.6423,79,80,0
268.00372,268.6423,67,80,0
268.65588,269.13144,77,80,0
268.65588,269.13144,65,80,0
269.14502,269.29446,76,80,0
269.14502,269.29446,64,80,0
269.30807,269.94666,74,83,0
269.30807,269.94666,62,83,0
269.96024,270.4358,74,98,0
269.96024,270.4358,86,98,0
270.44937,270.59882,84,109,0
270.44937,270.59882,72,109,0
270.6124,270.94672,84,110,0
270.6124,270.94672,72,110,0
270.96124,271.29556,82,110,0
270.96124,271.29556,70,110,0
271.3101,271.64438,81,110,0
271.3101,271.64438,69,110,0
271.6589,271.99323,80,110,0
271.6589,271.99323,68,110,0
272.00775,272.34207,80,110,0
272.00775,272.34207,68,110,0
272.3566,273.03973,81,110,0
272.3566,273.03973,69,110,0
273.05426,273.38858,61,95,0
273.05426,273.38858,55,95,0
273.4031,274.7839,64,80,0
273.4031,274.7839,61,80,0
273.4031,274.7839,55,80,0
274.79846,275.4816,62,80,0
274.79846,275.4816,57,80,0
274.79846,275.4816,53,80,0
276.1938,277.48456,76,80,0
276.1938,277.48456,73,80,0
277.49814,278.62585,79,80,0
277.49814,278.62585,76,80,0
278.63947,278.7889,77,80,0
278.63947,278.7889,74,80,0
278.8025,279.44107,77,80,0
278.8025,279.44107,74,80,0
279.45468,280.2563,76,80,0
279.45468,280.2563,73,80,0
280.2699,280.5824,76,80,0
279.45468,280.74542,70,80,0
280.43292,280.74542,77,80,0
280.59598,280.90848,76,80,0
280.759,281.0715,79,80,0
280.92206,281.23456,77,80,0
280.759,281.3976,71,80,0
281.0851,281.3976,76,80,0
281.24814,281.56064,74,80,0
281.4112,281.7237,73,81,0
281.57422,281.88672,75,82,0
281.4112,282.04977,69,81,0
281.73727,282.04977,76,83,0
281.90033,282.21283,75,85,0
282.06335,282.37585,76,86,0
282.2264,282.5389,78,87,0
282.38943,282.70193,79,89,0
282.5525,282.865,78,90,0
282.71555,283.02805,79,91,0
282.87857,283.19107,81,93,0
283.04163,283.35413,82,94,0
283.20465,283.51715,81,95,0
283.3677,283.6802,82,97,0
283.53076,283.84326,81,98,0
283.6938,284.0063,79,99,0
283.85684,284.16934,77,100,0
284.0199,284.16934,77,100,0
284.18292,284.49542,76,100,0
284.0199,284.65848,70,100,0
284.34598,284.65848,75,100,0
284.509,284.8215,76,100,0
284.67206,284.98456,75,100,0
284.8351,285.1476,76,100,0
284.99814,285.31064,75,100,0
285.1612,285.4737,76,100,0
285.32422,285.63672,75,98,0
285.48727,285.79977,76,95,0
284.67206,285.96283,70,100,0
285.65033,285.96283,77,92,0
285.81335,286.12585,76,89,0
285.9764,286.2889,79,86,0
286.13943,286.45193,77,84,0
285.9764,286.615,71,86,0
286.3025,286.615,76,81,0
286.46555,286.77805,74,80,0
286.62857,286.94107,73,80,0
286.79163,287.10413,76,80,0
286.62857,287.26715,69,80,0
286.95465,287.26715,75,80,0
287.1177,287.4302,76,80,0
287.28076,287.59326,75,80,0
287.4438,287.7563,76,80,0
287.60684,287.91934,75,80,0
287.76987,288.08237,76,80,0
287.93292,288.24542,75,80,0
288.09598,288.40848,76,80,0
287.28076,288.5715,70,80,0
288.259,288.5715,77,80,0
288.42206,288.73456,76,80,0
288.58508,288.89758,79,80,0
288.74814,289.06064,77,80,0
288.58508,289.2237,71,80,0
288.9112,289.2237,76,80,0
289.07422,289.38672,74,80,0
289.23727,289.54977,73,80,0
289.4003,289.7128,76,80,0
289.23727,289.87585,69,80,0
289.56335,289.87585,77,80,0
289.7264,290.0389,76,80,0
289.88943,290.20193,79,80,0
290.0525,290.365,77,80,0
289.88943,290.52805,71,80,0
290.21555,290.52805,76,80,0
290.37857,290.69107,74,80,0
290.54163,290.85413,73,80,0
290.70465,291.01715,76,80,0
290.54163,291.1802,69,80,0
290.8677,291.1802,77,80,0
291.03076,291.34326,76,80,0
291.1938,291.5063,79,80,0
291.35684,291.66934,77,80,0
291.1938,291.83237,71,80,0
291.51987,291.83237,76,80,0
291.68292,291.99542,74,80,0
291.84598,292.15848,73,80,0
292.009,292.3215,75,81,0
291.84598,292.48456,69,80,0
292.17206,292.48456,76,81,0
292.33508,292.64758,75,82,0
292.49814,292.81064,76,83,0
292.6612,292.9737,78,83,0
292.82422,293.13672,79,84,0
292.98727,293.29977,78,85,0
293.1503,293.4628,79,85,0
293.31335,293.62585,81,86,0
293.4764,293.7889,82,87,0
293.63943,293.95193,81,87,0
293.8025,294.115,84,88,0
293.9655,294.278,82,89,0
294.12857,294.44107,81,89,0
294.29163,294.60413,79,90,0
294.45465,294.76715,77,90,0
294.6177,294.9302,76,91,0
294.78073,295.09323,74,92,0
294.9438,295.2563,73,92,0
295.10684,295.41934,70,93,0
295.26987,295.58237,69,94,0
295.43292,295.74542,67,94,0
295.59595,295.90845,65,95,0
295.759,296.0715,64,96,0
295.92206,296.23456,62,96,0
296.08508,296.39758,61,97,0
296.24814,296.56064,58,98,0
296.4112,296.7237,57,98,0
296.57422,296.88672,55,99,0
296.73727,297.04977,53,99,0
296.9003,297.2128,52,100,0
297.06335,297.37585,50,100,0
297.2264,297.5389,62,100,0
297.38943,297.70193,65,100,0
297.5525,297.865,69,100,0
297.7155,298.028,74,100,0
297.87857,298.19107,76,100,0
298.04163,298.35413,77,100,0
298.20465,298.51715,79,100,0
298.3677,298.6802,80,100,0
298.53073,298.84323,81,100,0
298.6938,299.0063,80,100,0
298.85684,299.16934,81,100,0
299.01987,299.33237,80,100,0
299.18292,299.49542,81,100,0
299.34595,299.65845,82,100,0
299.509,299.8215,81,100,0
299.67206,299.98456,79,100,0
299.83508,300.14758,77,100,0
299.99814,300.31064,81,100,0
300.16116,300.47366,79,100,0
300.32422,300.63672,77,100,0
300.48727,300.79977,79,100,0
300.6503,300.9628,76,100,0
300.81335,301.12585,77,100,0
300.97638,301.28888,74,100,0
301.13943,301.45193,76,100,0
301.3025,301.615,77,100,0
301.4655,301.778,78,100,0
301.62857,301.94107,79,100,0
301.7916,302.1041,78,100,0
301.95465,302.26715,81,100,0
302.1177,302.4302,79,100,0
302.28073,302.59323,77,100,0
302.4438,302.7563,76,100,0
302.60684,302.91934,79,100,0
302.76987,303.08237,77,100,0
302.93292,303.24542,76,100,0
303.09595,303.40845,77,100,0
303.259,303.5715,74,100,0
303.42206,303.73456,76,100,0
303.58508,303.89758,72,100,0
303.74814,304.06064,76,100,0
303.91116,304.22366,77,100,0
304.07422,304.38672,79,100,0
304.23727,304.54977,81,100,0
304.4003,304.7128,80,100,0
304.56335,304.87585,82,100,0
304.72638,305.03888,81,100,0
304.88943,305.20193,79,100,0
305.0525,305.365,77,100,0
305.2155,305.528,81,100,0
305.37857,305.69785,79,100,0
305.5416,305.86832,77,100,0
305.71207,306.03876,79,100,0
305.8825,306.20923,76,100,0
306.05298,306.3953,77,100,0
306.22342,306.5828,74,101,0
306.41092,306.7583,86,102,0
306.59842,306.93274,85,104,0
306.77286,307.10004,86,105,0
306.94727,307.2667,85,107,0
307.11392,307.43338,86,108,0
307.2806,307.60004,88,109,0
307.44727,307.7667,86,110,0
307.61392,307.93338,84,110,0
307.7806,308.10004,82,110,0
307.94727,308.2667,81,110,0
308.11392,308.43338,79,110,0
308.2806,308.60004,77,110,0
308.44727,308.7667,76,110,0
308.61392,308.93338,77,110,0
308.7806,309.10004,79,110,0
308.94727,309.2667,80,110,0
309.11392,309.43338,81,110,0
309.2806,309.60004,74,110,0
309.44727,309.60004,74,110,0
309.61392,309.93338,80,110,0
309.7806,310.10004,81,110,0
309.94727,310.2667,73,110,0
310.11392,310.2667,73,110,0
310.2806,310.6149,80,110,0
310.45502,310.7893,81,110,0
310.62943,310.96375,73,110,0
310.80386,311.15015,81,110,0
310.97827,311.33765,80,110,0
311.16577,311.52515,81,110,0
311.35327,311.71265,73,110,0
311.54077,311.9141,81,110,0
311.72827,312.1168,74,110,0
311.93097,312.3195,70,110,0
312.13367,312.5222,69,105,0
312.33636,312.72488,68,99,0
312.5391,312.92758,69,93,0
312.7418,313.1303,67,87,0
312.9445,313.333,65,81,0
313.1472,313.50266,64,80,0
313.34988,314.66934,62,80,0
313.34988,314.66934,57,80,0
314.68323,316.00266,69,80,0
314.68323,316.00266,57,80,0
316.01657,316.66934,67,80,0
316.68323,317.16934,65,80,0
317.18323,317.336,64,80,0
316.01657,318.00266,57,80,0
317.34988,318.00266,62,80,0
318.01657,318.66934,62,80,0
318.01657,318.66934,57,80,0
318.68323,319.336,64,80,0
318.68323,319.336,62,80,0
318.68323,319.336,58,80,0
319.34988,320.00266,64,89,0
319.34988,320.00266,62,89,0
319.34988,320.00266,57,89,0
320.01654,320.6997,64,99,0
320.01654,320.6997,62,99,0
320.01654,320.6997,55,99,0
320.71423,321.4486,64,109,0
320.71423,321.4486,62,109,0
320.71423,321.4486,57,109,0
321.46423,324.4486,64,80,0
321.46423,324.4486,62,80,0
321.46423,324.4486,58,80,0
324.46423,325.14737,64,80,0
324.46423,325.14737,62,80,0
324.46423,325.14737,59,80,0
325.1619,325.84503,64,89,0
325.1619,325.84503,62,89,0
325.1619,325.84503,57,89,0
325.8596,326.59396,64,99,0
325.8596,326.59396,62,99,0
325.8596,326.59396,56,99,0
326.6096,327.4035,64,109,0
326.6096,327.4035,62,109,0
326.6096,327.4035,57,109,0
327.42038,330.64673,64,80,0
327.42038,330.64673,62,80,0
327.42038,330.64673,59,80,0
330.66364,331.18445,64,80,0
330.66364,331.18445,61,80,0
330.66364,331.18445,57,80,0
331.19934,331.36304,64,80,0
331.19934,331.36304,61,80,0
331.19934,331.36304,57,80,0
331.37793,332.07733,64,80,0
331.37793,332.07733,61,80,0
331.37793,332.07733,57,80,0
332.0922,332.53864,73,80,0
332.3303,332.7916,82,80,0
332.5684,332.99994,81,80,0
332.8065,333.23804,82,80,0
333.0446,333.5059,79,80,0
333.28268,333.5059,76,80,0
333.52078,334.01794,65,80,0
333.52078,334.01794,62,80,0
333.52078,334.01794,57,80,0
334.03214,334.1884,65,86,0
334.03214,334.1884,62,86,0
334.03214,334.1884,57,86,0
334.20258,334.8702,65,88,0
334.20258,334.8702,62,88,0
334.20258,334.8702,57,88,0
334.8844,335.29633,77,96,0
335.1117,335.481,86,98,0
335.33896,335.76508,85,101,0
335.56622,336.00656,86,104,0
335.7935,336.23383,81,107,0
336.02078,336.23383,77,109,0
336.24805,336.7452,67,110,0
336.24805,336.7452,64,110,0
336.24805,336.7452,61,110,0
336.24805,336.7452,58,110,0
336.7594,336.91565,67,110,0
336.7594,336.91565,64,110,0
336.7594,336.91565,61,110,0
336.7594,336.91565,58,110,0
336.92987,337.59747,67,110,0
336.92987,337.59747,64,110,0
336.92987,337.59747,61,110,0
336.92987,337.59747,58,110,0
337.6117,337.99213,79,100,0
337.82907,338.22308,88,97,0
338.04645,338.45407,87,94,0
338.26385,338.65787,88,91,0
338.48123,338.87527,85,87,0
338.69864,339.11047,82,84,0
338.91602,339.31882,79,81,0
339.13824,339.52713,88,80,0
339.36047,339.76324,87,80,0
339.5827,339.9716,88,80,0
339.8049,340.19382,85,80,0
340.02713,340.4198,82,80,0
340.24936,340.6755,79,80,0
340.47662,340.87436,85,80,0
340.70392,341.0732,84,80,0
340.93118,341.3431,85,80,0
341.15845,341.52777,82,80,0
341.3857,341.83102,79,80,0
341.613,342.04904,76,80,0
341.84555,342.20892,73,81,0
342.07812,342.5287,70,83,0
342.31067,342.68857,67,85,0
342.5432,342.92114,64,87,0
342.7758,343.18277,61,89,0
352.27744,352.73874,62,80,0
352.63458,352.99173,70,79,0
353.70602,354.04828,65,73,0
354.06317,354.40543,69,71,0
355.13458,355.47684,79,70,0
355.49173,355.83398,85,70,0
355.84888,357.26257,85,85,0
357.27744,357.6197,86,70,0
357.45602,357.79828,85,70,0
357.63458,357.97684,83,70,0
357.81317,358.2209,85,70,0
357.99173,358.63235,88,90,0
358.63235,359.07507,86,70,0
355.84888,359.1011,79,85,0
359.12714,364.1011,86,70,0
359.12714,364.1011,77,70,0
366.62714,367.8511,74,1,0
0.0,0.31944436,38,80,0
0.33333325,0.6527776,50,80,0
0.6666665,0.98611087,45,80,0
0.99999976,1.3194441,50,80,0
1.333333,1.6527773,37,80,0
1.6666663,1.9861106,49,80,0
1.9999995,2.319444,45,80,0
2.3333328,2.6527772,49,80,0
2.666666,2.9861104,38,80,0
2.9999993,3.3194437,50,80,0
3.3333325,3.652777,45,80,0
3.6666658,3.9861102,50,80,0
3.999999,4.319443,38,80,0
4.333332,4.6527767,50,80,0
4.6666656,4.9861097,41,80,0
4.9999986,5.319443,53,80,0
5.333332,5.6527762,46,80,0
5.666665,5.9861097,58,80,0
5.9999986,6.3194427,45,80,0
6.3333316,6.6527762,57,80,0
6.666665,6.9861093,43,80,0
6.999998,7.3194427,55,80,0
7.3333316,7.652776,44,80,0
7.6666646,7.9861093,56,80,0
7.999998,8.319443,45,80,0
8.333331,8.652776,57,80,0
8.666664,8.986109,56,80,0
8.999998,9.319442,57,80,0
9.333331,9.652776,45,80,0
9.666664,9.986109,57,80,0
9.999997,10.319442,43,80,0
10.333331,10.652775,55,80,0
10.666664,10.986109,41,80,0
10.999997,11.319442,53,80,0
11.33333,11.652775,48,80,0
11.666664,11.986108,53,80,0
11.999997,12.319442,40,80,0
12.33333,12.652775,52,80,0
12.666663,12.986108,48,80,0
12.999997,13.319441,52,80,0
13.33333,13.652775,41,80,0
13.666663,13.986108,53,80,0
13.999996,14.319441,48,80,0
14.33333,14.652774,53,80,0
14.666663,14.986108,41,80,0
14.999996,15.319441,53,80,0
15.333329,15.652774,38,80,0
15.666663,15.986107,50,80,0
15.999996,16.31944,40,80,0
16.33333,16.652773,52,80,0
16.666662,16.986107,45,80,0
16.999996,17.31944,52,80,0
17.333328,17.652773,40,80,0
17.666662,17.986107,52,80,0
17.999996,18.319439,47,80,0
18.333328,18.652773,52,80,0
18.666662,18.986107,33,80,0
18.999996,19.319439,45,80,0
19.333328,19.652773,34,80,0
19.666662,19.986107,46,80,0
19.999994,20.319439,33,80,0
20.333328,20.652773,45,80,0
20.666662,20.986105,37,80,0
20.999994,21.319439,49,80,0
21.333328,21.652773,38,80,0
21.66666,21.986105,50,80,0
21.999994,22.319439,45,80,0
22.333328,22.652773,50,80,0
22.66666,22.986105,37,80,0
22.999994,23.319439,49,80,0
23.333328,23.652771,45,80,0
23.66666,23.986105,49,80,0
23.999994,24.319439,38,80,0
24.333326,24.652771,50,80,0
24.66666,24.986105,45,80,0
24.999994,25.319439,50,80,0
25.333326,25.652771,38,80,0
25.66666,25.986105,50,80,0
25.999994,26.319437,41,80,0
26.333326,26.652771,53,80,0
26.66666,26.986105,46,80,0
26.999992,27.319437,58,82,0
27.333326,27.652771,45,85,0
27.66666,27.986105,57,88,0
27.999992,28.319437,43,91,0
28.333326,28.652771,55,94,0
28.66666,28.986103,44,97,0
28.999992,29.319437,56,99,0
29.333326,29.652771,45,80,0
29.666658,29.986103,57,80,0
29.999992,30.319437,56,80,0
30.333326,30.652771,57,80,0
30.666658,30.986103,45,80,0
30.999992,31.319437,57,80,0
31.333326,31.65277,43,80,0
31.666658,31.986103,55,80,0
31.999992,32.319435,41,80,0
32.333324,32.65277,53,80,0
32.66666,32.986103,48,80,0
32.999992,33.319435,53,80,0
33.333324,33.65277,40,80,0
33.666656,33.986103,52,80,0
33.999992,34.319435,48,80,0
34.333324,34.65277,52,80,0
34.666656,34.986103,41,80,0
34.999992,35.319435,53,80,0
35.333324,35.652767,48,80,0
35.666656,35.986103,53,80,0
35.999992,36.319435,41,80,0
36.333324,36.652767,53,80,0
36.666656,36.986103,38,80,0
36.999992,37.319435,50,80,0
37.333324,37.652767,40,80,0
37.666656,37.986103,52,80,0
37.999992,38.319435,45,80,0
38.333324,38.652767,52,80,0
38.666656,38.986103,40,80,0
38.99999,39.319435,52,80,0
39.333324,39.652767,47,80,0
39.666656,39.9861,52,80,0
39.99999,40.319435,33,80,0
40.333324,40.652767,45,80,0
40.666656,40.9861,34,80,0
40.99999,41.319435,46,80,0
41.333324,41.652767,33,80,0
41.666656,41.9861,45,80,0
41.99999,42.319435,32,80,0
42.333324,42.652767,44,80,0
42.666656,42.9861,45,80,0
42.666656,42.9861,33,80,0
42.99999,43.319435,57,80,0
43.33332,43.652767,57,80,0
43.666656,43.9861,57,80,0
43.99999,44.319435,57,80,0
44.33332,44.652767,57,80,0
44.666656,44.9861,57,80,0
44.99999,45.31943,57,80,0
45.33332,45.652767,57,80,0
45.666656,45.9861,57,80,0
45.99999,46.31943,57,80,0
46.33332,46.652767,57,80,0
46.666656,46.9861,57,80,0
45.99999,47.31943,67,80,0
46.99999,47.31943,57,80,0
47.33332,47.652767,57,80,0
47.33332,47.9861,68,80,0
47.666656,47.9861,57,80,0
47.99999,48.31943,57,80,0
48.33332,48.652767,57,80,0
48.666653,48.9861,57,80,0
48.99999,49.31943,57,80,0
49.33332,49.652767,57,80,0
49.666653,49.9861,57,80,0
49.99999,50.31943,57,80,0
50.33332,50.652763,57,80,0
50.666653,50.9861,57,80,0
50.99999,51.31943,57,80,0
51.33332,51.652763,57,80,0
51.666653,51.9861,57,80,0
51.99999,52.31943,57,80,0
51.33332,52.652763,67,80,0
52.33332,52.652763,57,80,0
52.666653,52.9861,57,80,0
52.666653,53.31943,68,80,0
52.99999,53.31943,57,80,0
53.33332,53.652763,57,80,0
53.33332,53.9861,64,80,0
53.666653,53.9861,57,80,0
53.999985,54.31943,57,80,0
54.33332,54.652763,57,80,0
54.666653,54.9861,57,80,0
53.999985,55.31943,67,80,0
54.999985,55.31943,57,80,0
55.33332,55.652763,57,80,0
55.33332,55.986095,68,80,0
55.666653,55.986095,57,80,0
55.999985,56.31943,64,80,0
55.999985,56.31943,57,80,0
56.33332,56.652763,57,80,0
56.666653,56.986095,57,80,0
56.666653,57.31943,68,80,0
56.999985,57.31943,57,80,0
57.33332,57.652763,64,80,0
57.33332,57.652763,57,80,0
57.666653,57.986095,57,80,0
57.999985,58.31943,57,80,0
57.999985,58.652763,68,80,0
58.33332,58.652763,57,80,0
58.666653,59.31943,64,80,0
58.666653,59.31943,57,80,0
63.999985,64.31943,38,80,0
64.33332,64.65276,50,80,0
64.66665,64.98609,45,80,0
64.999985,65.31943,50,80,0
65.33332,65.65276,37,80,0
65.66665,65.98609,49,80,0
65.999985,66.31943,45,80,0
66.33331,66.65276,49,80,0
66.66665,66.98609,38,80,0
66.999985,67.31943,50,80,0
67.33331,67.65276,45,80,0
67.66665,67.98609,50,80,0
67.999985,68.31943,38,80,0
68.33331,68.65276,50,80,0
68.66665,68.98609,35,80,0
68.999985,69.31943,47,80,0
69.33331,69.65276,36,80,0
69.66665,69.98609,48,80,0
69.999985,70.31943,43,80,0
70.33331,70.65276,48,80,0
70.66665,70.98609,36,80,0
70.999985,71.31943,48,80,0
71.33331,71.65276,37,80,0
71.66665,71.98609,49,80,0
71.999985,72.31943,38,80,0
72.33331,72.65276,50,80,0
72.66665,72.98609,45,80,0
72.999985,73.31943,50,80,0
73.33331,73.652756,38,83,0
73.66665,73.98609,50,91,0
73.999985,74.31943,42,98,0
74.33331,74.652756,54,105,0
74.66665,74.98609,43,110,0
74.999985,75.31943,55,110,0
75.33331,75.652756,46,110,0
75.66665,75.98609,58,110,0
75.999985,76.31943,45,110,0
76.33331,76.652756,57,110,0
76.66665,76.98609,33,110,0
76.99998,77.31943,45,95,0
77.33331,77.652756,38,80,0
77.66665,77.98609,50,80,0
77.99998,78.31943,45,80,0
78.33331,78.652756,50,80,0
78.66665,78.98609,38,80,0
78.99998,79.31943,57,80,0
79.33331,79.652756,53,80,0
79.66665,79.98609,50,80,0
79.99998,80.31943,45,80,0
79.99998,80.31943,33,80,0
80.33331,80.652756,57,80,0
80.66665,80.98609,57,80,0
80.99998,81.31943,57,80,0
81.33331,81.652756,57,80,0
81.66665,81.98609,57,80,0
81.99998,82.31943,57,80,0
82.33331,82.652756,57,80,0
82.66665,82.98609,57,80,0
82.99998,83.31942,57,80,0
83.33331,83.652756,57,80,0
83.66665,83.98609,57,80,0
83.99998,84.31942,57,80,0
83.33331,84.652756,67,80,0
84.33331,84.652756,57,80,0
84.66665,84.98609,57,80,0
84.66665,85.31942,68,80,0
84.99998,85.31942,57,80,0
85.33331,85.652756,57,80,0
85.66665,85.98609,57,80,0
85.99998,86.31942,57,80,0
86.33331,86.652756,57,80,0
86.66664,86.98609,57,80,0
86.99998,87.31942,57,80,0
87.33331,87.652756,57,80,0
87.66664,87.98609,57,80,0
87.99998,88.31942,57,80,0
88.33331,88.652756,57,80,0
88.66664,88.98609,57,80,0
88.99998,89.31942,57,80,0
89.33331,89.652756,57,80,0
88.66664,89.98609,67,80,0
89.66664,89.98609,57,80,0
89.99998,90.31942,57,80,0
89.99998,90.652756,68,80,0
90.33331,90.652756,57,80,0
90.66664,90.98609,57,80,0
90.66664,91.31942,64,80,0
90.99998,91.31942,57,80,0
91.33331,91.652756,57,80,0
91.66664,91.98609,57,80,0
91.99998,92.31942,57,80,0
91.33331,92.652756,67,80,0
92.33331,92.652756,57,80,0
92.66664,92.98609,57,80,0
92.66664,93.31942,68,80,0
92.99998,93.31942,57,80,0
93.33331,93.652756,64,80,0
93.33331,93.652756,57,80,0
93.66664,93.986084,57,80,0
93.99998,94.31942,57,80,0
93.99998,94.652756,68,80,0
94.33331,94.652756,57,80,0
94.66664,94.986084,64,80,0
94.66664,94.986084,57,80,0
94.99998,95.31942,57,80,0
95.33331,95.652756,57,80,0
95.33331,95.986084,68,80,0
95.66664,95.986084,57,80,0
95.99998,96.652756,64,80,0
95.99998,96.652756,57,80,0
101.333305,101.652756,38,80,0
101.66664,101.986084,50,80,0
101.99998,102.31942,45,80,0
102.333305,102.652756,50,80,0
102.66664,102.986084,37,80,0
102.99998,103.31942,49,80,0
103.333305,103.65275,45,80,0
103.66664,103.986084,49,80,0
103.99998,104.31942,38,80,0
104.333305,104.65275,50,80,0
104.66664,104.986084,45,80,0
104.99998,105.31942,50,80,0
105.333305,105.65275,38,80,0
105.66664,105.986084,50,80,0
105.99998,106.31942,35,80,0
106.333305,106.65275,47,80,0
106.66664,106.986084,36,80,0
106.99997,107.31942,48,80,0
107.333305,107.65275,43,80,0
107.66664,107.986084,48,80,0
107.99997,108.31942,36,80,0
108.333305,108.65275,48,80,0
108.66664,108.986084,37,80,0
108.99997,109.31942,49,80,0
109.333305,109.65275,38,80,0
109.66664,109.986084,50,80,0
109.99997,110.31942,45,80,0
110.333305,110.65275,50,80,0
110.66664,110.986084,38,83,0
110.99997,111.31942,50,91,0
111.333305,111.65275,42,98,0
111.66664,111.986084,54,105,0
111.99997,112.334274,43,110,0
112.34881,112.68311,55,110,0
112.69765,113.03195,46,110,0
113.046486,113.38078,58,110,0
113.39532,113.745926,45,110,0
113.76118,114.111786,57,110,0
114.12703,114.50532,33,110,0
114.52177,114.900055,45,95,0
114.916504,115.29479,38,80,0
115.31123,115.68953,50,80,0
115.70597,116.08427,45,80,0
116.10071,116.479004,50,80,0
116.495445,117.26847,38,80,0
118.074394,118.511894,57,80,0
118.074394,118.511894,50,80,0
118.52439,118.661896,57,80,0
118.52439,118.661896,50,80,0
118.67439,119.261894,57,80,0
118.67439,119.261894,50,80,0
120.474396,120.911896,55,80,0
120.474396,120.911896,43,80,0
120.92439,121.0619,55,80,0
120.92439,121.0619,43,80,0
121.074394,121.661896,55,80,0
121.074394,121.661896,43,80,0
122.8744,123.3119,55,80,0
122.8744,123.3119,52,80,0
122.8744,123.3119,45,80,0
123.324394,123.46189,55,80,0
123.324394,123.46189,52,80,0
123.324394,123.46189,45,80,0
123.474396,124.0619,55,80,0
123.474396,124.0619,52,80,0
123.474396,124.0619,45,80,0
125.27439,125.86189,50,80,0
125.27439,125.86189,38,80,0
125.8744,126.46189,45,80,0
125.8744,126.46189,33,80,0
126.474396,127.0619,50,80,0
126.474396,127.0619,38,80,0
127.74106,128.17856,57,80,0
127.74106,128.17856,50,80,0
128.19106,128.32857,57,80,0
128.19106,128.32857,50,80,0
128.34106,128.92856,57,80,0
128.34106,128.92856,50,80,0
130.14107,130.62717,52,110,0
130.14107,130.62717,44,110,0
130.64107,130.79384,52,110,0
130.64107,130.79384,44,110,0
130.80772,131.46051,52,110,0
130.80772,131.46051,44,110,0
132.6744,133.26189,64,80,0
132.6744,133.26189,57,80,0
133.87439,134.4619,62,80,0
133.87439,134.4619,52,80,0
135.07439,135.6619,61,80,0
135.07439,135.6619,57,80,0
135.6744,136.26189,61,80,0
135.6744,136.26189,57,80,0
136.2744,136.8619,61,80,0
136.2744,136.8619,57,80,0
137.4744,137.9119,57,80,0
137.4744,137.9119,50,80,0
137.9244,138.06189,57,80,0
137.9244,138.06189,50,80,0
138.07439,138.6619,57,80,0
138.07439,138.6619,50,80,0
139.87439,140.31189,55,80,0
139.87439,140.31189,43,80,0
140.32439,140.4619,55,80,0
140.32439,140.4619,43,80,0
140.4744,141.06189,55,80,0
140.4744,141.06189,43,80,0
142.2744,142.7119,55,80,0
142.2744,142.7119,52,80,0
142.2744,142.7119,45,80,0
142.7244,142.8619,55,80,0
142.7244,142.8619,52,80,0
142.7244,142.8619,45,80,0
142.87439,143.4619,55,80,0
142.87439,143.4619,52,80,0
142.87439,143.4619,45,80,0
144.6744,145.26189,50,80,0
144.6744,145.26189,38,80,0
145.2744,145.8619,45,80,0
145.2744,145.8619,33,80,0
145.87439,146.55753,50,80,0
145.87439,146.55753,38,80,0
147.32207,147.7778,57,80,0
147.32207,147.7778,50,80,0
147.79082,147.93405,57,80,0
147.79082,147.93405,50,80,0
147.94707,148.55905,57,80,0
147.94707,148.55905,50,80,0
149.82207,150.3308,52,110,0
149.82207,150.3308,44,110,0
150.34532,150.5052,52,110,0
150.34532,150.5052,44,110,0
150.51974,151.20288,52,110,0
150.51974,151.20288,44,110,0
152.46742,153.05492,64,80,0
152.46742,153.05492,57,80,0
153.66742,154.25491,62,80,0
153.66742,154.25491,52,80,0
154.86742,155.45491,61,80,0
154.86742,155.45491,57,80,0
155.46742,156.05492,61,80,0
155.46742,156.05492,57,80,0
156.06741,156.25491,61,80,0
156.06741,156.25491,57,80,0
156.26741,156.45491,64,80,0
156.46742,156.65492,61,80,0
156.66742,156.85492,57,80,0
156.86742,157.05492,59,80,0
157.06741,157.25491,55,80,0
157.26741,157.77614,54,110,0
157.26741,157.77614,50,110,0
157.26741,157.77614,42,110,0
157.79066,157.95056,54,110,0
157.79066,157.95056,50,110,0
157.79066,157.95056,42,110,0
157.96509,158.64822,54,110,0
157.96509,158.64822,42,110,0
157.96509,158.64822,50,110,0
159.91277,160.42148,55,110,0
159.91277,160.42148,50,110,0
159.91277,160.42148,43,110,0
160.43602,160.5959,55,110,0
160.43602,160.5959,50,110,0
160.43602,160.5959,43,110,0
160.61044,161.29358,55,110,0
160.61044,161.29358,50,110,0
160.61044,161.29358,43,110,0
161.9331,162.54509,66,80,0
162.5581,163.17009,67,80,0
163.1831,163.79509,63,80,0
163.8081,164.39561,64,80,0
164.40811,164.9956,66,80,0
165.00812,165.59561,67,80,0
165.60811,166.19562,68,80,0
166.20811,166.83311,69,80,0
167.54408,167.99982,57,80,0
167.54408,167.99982,50,80,0
168.01283,168.15607,57,80,0
168.01283,168.15607,50,80,0
168.16908,168.78107,57,80,0
168.16908,168.78107,50,80,0
169.99408,170.43158,55,80,0
169.99408,170.43158,43,80,0
170.44408,170.58159,55,80,0
170.44408,170.58159,43,80,0
170.59409,171.18158,55,80,0
170.59409,171.18158,43,80,0
172.39409,172.98158,66,80,0
172.39409,172.98158,62,80,0
172.39409,172.98158,57,80,0
173.59409,174.18158,67,80,0
173.59409,174.18158,64,80,0
173.59409,174.18158,57,80,0
174.79408,175.38158,62,80,0
174.79408,175.38158,66,80,0
175.39409,175.98158,66,80,0
175.39409,175.98158,62,80,0
175.99408,176.18158,66,80,0
175.99408,176.18158,62,80,0
176.19408,176.38158,50,80,0
176.39409,176.58159,48,80,0
176.59409,176.79355,47,80,0
176.80685,177.00632,45,80,0
177.0196,177.21909,43,80,0
177.23238,177.7411,54,110,0
177.23238,177.7411,50,110,0
177.23238,177.7411,42,110,0
177.75563,177.91553,54,110,0
177.75563,177.91553,50,110,0
177.75563,177.91553,42,110,0
177.93005,178.61319,54,110,0
177.93005,178.61319,42,110,0
177.93005,178.61319,50,110,0
179.90433,180.41304,55,110,0
179.90433,180.41304,50,110,0
179.90433,180.41304,43,110,0
180.42758,180.58746,55,110,0
180.42758,180.58746,50,110,0
180.42758,180.58746,43,110,0
180.602,181.28514,55,110,0
180.602,181.28514,50,110,0
180.602,181.28514,43,110,0
181.92467,182.53665,66,80,0
182.54967,183.16165,67,80,0
183.17467,183.78665,63,80,0
183.79967,184.38718,64,80,0
184.39967,184.98717,66,80,0
184.99968,185.58717,67,80,0
185.59967,186.18718,68,80,0
186.19968,186.82468,69,80,0
187.50464,187.94214,57,80,0
187.50464,187.94214,50,80,0
187.95464,188.09213,57,80,0
187.95464,188.09213,50,80,0
188.10463,188.69214,57,80,0
188.10463,188.69214,50,80,0
189.90463,190.34213,55,80,0
189.90463,190.34213,43,80,0
190.35463,190.49214,55,80,0
190.35463,190.49214,43,80,0
190.50464,191.09213,55,80,0
190.50464,191.09213,43,80,0
192.30464,192.89214,66,80,0
192.30464,192.89214,62,80,0
192.30464,192.89214,57,80,0
193.50464,194.09213,67,80,0
193.50464,194.09213,64,80,0
193.50464,194.09213,57,80,0
194.70464,195.3574,62,80,0
194.70464,195.3574,66,80,0
195.3713,196.05444,66,80,0
195.3713,196.05444,62,80,0
196.06897,196.80334,62,80,0
196.06897,196.80334,66,80,0
197.56897,197.88147,38,80,0
197.89507,198.20757,50,80,0
198.22115,198.53365,45,80,0
198.54724,198.85974,50,80,0
198.87332,199.18582,37,80,0
199.19942,199.51192,49,80,0
199.5255,199.838,45,80,0
199.85158,200.16408,49,80,0
200.17767,200.49017,38,80,0
200.50375,200.81625,50,80,0
200.82985,201.14235,45,80,0
201.15593,201.46843,50,80,0
201.48201,201.79451,38,80,0
201.8081,202.1206,50,80,0
202.13419,202.44669,41,80,0
202.46028,202.77278,53,80,0
202.78636,203.09886,46,80,0
203.11246,203.42496,58,84,0
203.43854,203.75104,45,88,0
203.76462,204.07712,57,92,0
204.09071,204.40321,43,97,0
204.4168,204.7293,55,101,0
204.74289,205.05539,44,105,0
205.06897,205.38147,56,109,0
205.39507,205.70757,45,80,0
205.72115,206.03365,57,80,0
206.04723,206.35973,56,80,0
206.37332,206.68582,57,80,0
206.6994,207.0119,45,80,0
207.0255,207.338,57,80,0
207.35158,207.66408,43,80,0
207.67767,207.99016,55,80,0
208.00375,208.31625,41,80,0
208.32983,208.64233,53,80,0
208.65593,208.96843,48,80,0
208.98201,209.29451,53,80,0
209.3081,209.6206,40,80,0
209.63419,209.94669,52,80,0
209.96027,210.27277,48,80,0
210.28636,210.59886,52,80,0
210.61244,210.92494,41,80,0
210.93854,211.25104,53,80,0
211.26462,211.57712,48,80,0
211.59071,211.90321,53,80,0
211.9168,212.2293,41,80,0
212.24287,212.55537,53,80,0
212.56897,212.88147,38,80,0
212.89505,213.20755,50,80,0
213.22115,213.53365,40,80,0
213.54723,213.85973,52,84,0
213.87332,214.1858,45,88,0
214.1994,214.5119,52,92,0
214.52548,214.83798,40,97,0
214.85158,215.16408,52,101,0
215.17766,215.49016,47,105,0
215.50375,215.81625,52,109,0
215.82983,216.14233,33,80,0
216.15591,216.46841,45,80,0
216.48201,216.79451,34,80,0
216.80809,217.12059,46,80,0
217.13419,217.44669,33,80,0
217.46027,217.77277,45,80,0
217.78636,218.09886,37,80,0
218.11244,218.42494,49,80,0
218.43852,218.75102,38,80,0
218.76462,219.07712,50,80,0
219.0907,219.4032,45,80,0
219.4168,219.7293,50,80,0
219.74287,220.05537,37,80,0
220.06897,220.38145,49,80,0
220.39505,220.70755,45,80,0
220.72113,221.03363,49,80,0
221.04723,221.35973,38,80,0
221.3733,221.6858,50,80,0
221.6994,222.0119,45,80,0
222.02548,222.33798,50,80,0
222.35156,222.66406,38,80,0
222.67766,222.99016,50,80,0
223.00374,223.31624,41,80,0
223.32983,223.64233,53,80,0
223.65591,223.96841,46,81,0
223.98201,224.29451,58,85,0
224.30809,224.62059,45,89,0
224.63417,224.94667,57,93,0
224.96027,225.27277,43,97,0
225.28635,225.59885,55,101,0
225.61244,225.92494,44,105,0
225.93852,226.25102,56,109,0
226.26462,226.57712,45,80,0
226.5907,226.9032,57,80,0
226.91678,227.22928,50,80,0
227.24287,227.55537,57,80,0
227.56895,227.88145,45,80,0
227.89505,228.20755,57,80,0
228.22113,228.53363,43,80,0
228.54721,228.85971,55,80,0
228.8733,229.1858,41,80,0
229.19939,229.51189,53,80,0
229.52548,229.83798,48,80,0
229.85156,230.16406,53,80,0
230.17766,230.49016,40,80,0
230.50374,230.81624,52,80,0
230.82982,231.14232,48,80,0
231.15591,231.46841,52,80,0
231.482,231.7945,41,80,0
231.80809,232.12059,53,80,0
232.13417,232.44667,48,80,0
232.46027,232.77277,53,80,0
232.78635,233.09885,41,80,0
233.11243,233.42493,53,80,0
233.43852,233.75102,38,80,0
233.7646,234.0771,50,80,0
234.0907,234.4032,40,81,0
234.41678,234.72928,52,85,0
234.74286,235.05536,45,89,0
235.06895,235.38145,52,93,0
235.39503,235.70753,40,97,0
235.72113,236.03363,52,101,0
236.04721,236.35971,47,105,0
236.3733,236.6858,52,109,0
236.69939,237.01189,33,110,0
237.02547,237.33797,45,110,0
237.35156,237.66406,34,110,0
237.67764,237.99014,46,110,0
238.00374,238.31624,33,110,0
238.32982,238.64232,45,110,0
238.65591,238.96841,32,110,0
238.982,239.2945,44,110,0
239.30807,239.62057,45,80,0
239.30807,239.62057,33,80,0
239.63417,239.94667,57,80,0
239.96025,240.27275,57,80,0
240.28635,240.59885,57,80,0
240.61243,240.92493,57,80,0
240.9385,241.251,57,80,0
241.2646,241.5771,57,80,0
241.59068,241.90318,57,80,0
241.91678,242.22928,57,80,0
242.24286,242.55536,57,80,0
242.56895,242.88145,57,80,0
242.89503,243.20753,57,80,0
243.22112,243.53362,57,80,0
242.56895,243.85971,67,80,0
243.54721,243.85971,57,80,0
243.87329,244.18579,57,80,0
243.87329,244.51189,68,80,0
244.19939,244.51189,57,80,0
244.52547,244.83797,57,80,0
244.85156,245.16406,57,80,0
245.17764,245.49014,57,80,0
245.50372,245.81622,57,80,0
245.82982,246.14232,57,80,0
246.1559,246.4684,57,80,0
246.482,246.7945,57,80,0
246.80807,247.12057,57,80,0
247.13416,247.44666,57,80,0
247.46025,247.77275,57,80,0
247.78633,248.09883,57,80,0
248.11243,248.42493,57,80,0
248.4385,248.751,57,80,0
247.78633,249.0771,67,80,0
248.7646,249.0771,57,80,0
249.09068,249.40318,57,80,0
249.09068,249.72926,68,80,0
249.41676,249.72926,57,80,0
249.74286,250.05536,57,80,0
249.74286,250.38144,64,80,0
250.06894,250.38144,57,80,0
250.39503,250.70753,57,80,0
250.72112,251.03362,57,80,0
251.04721,251.35971,57,80,0
250.39503,251.68579,67,80,0
251.37329,251.68579,57,80,0
251.69937,252.01187,57,80,0
251.69937,252.33797,68,80,0
252.02547,252.33797,57,80,0
252.35155,252.66405,64,80,0
252.35155,252.66405,57,80,0
252.67764,252.99014,57,80,0
253.00372,253.31622,57,80,0
253.00372,253.6423,68,80,0
253.3298,253.6423,57,80,0
253.6559,253.9684,64,80,0
253.6559,253.9684,57,80,0
253.98198,254.29448,57,80,0
254.30807,254.62057,57,80,0
254.30807,254.94666,68,80,0
254.63416,254.94666,57,80,0
254.96025,255.59883,64,80,0
254.96025,255.59883,57,80,0
260.17764,260.49014,38,80,0
260.50372,260.81622,50,80,0
260.8298,261.1423,45,80,0
261.15588,261.46838,50,80,0
261.482,261.79446,37,80,0
261.80807,262.12057,49,80,0
262.13416,262.44666,45,80,0
262.46024,262.77274,49,80,0
262.78632,263.09882,38,80,0
263.11243,263.42493,50,80,0
263.4385,263.751,45,80,0
263.7646,264.0771,50,80,0
264.09067,264.40317,38,80,0
264.41675,264.72925,50,80,0
264.74286,265.05536,35,80,0
265.06894,265.38144,47,80,0
265.39502,265.70752,36,80,0
265.7211,266.0336,48,80,0
266.04718,266.35968,43,80,0
266.3733,266.6858,48,80,0
266.69937,267.01187,36,80,0
267.02545,267.33795,48,80,0
267.35153,267.66403,37,80,0
267.67764,267.9901,49,80,0
268.00372,268.31622,38,80,0
268.3298,268.6423,50,80,0
268.65588,268.96838,45,80,0
268.98196,269.29446,50,80,0
269.30807,269.62057,38,83,0
269.63416,269.94666,50,91,0
269.96024,270.27274,42,98,0
270.28632,270.59882,54,105,0
270.6124,270.94672,43,110,0
270.96124,271.29556,55,110,0
271.3101,271.64438,46,110,0
271.6589,271.99323,58,110,0
272.00775,272.34207,45,110,0
272.3566,272.6909,57,110,0
272.70544,273.03973,33,110,0
273.05426,273.38858,45,95,0
273.4031,273.7374,38,80,0
273.75195,274.08624,50,80,0
274.10077,274.4351,45,80,0
274.44962,274.7839,50,80,0
274.79846,275.13275,38,80,0
275.14728,275.4816,57,80,0
275.49612,275.8304,53,80,0
275.84497,276.17926,50,80,0
276.1938,276.5063,45,80,0
276.1938,276.5063,33,80,0
276.5199,276.8324,57,80,0
276.84598,277.15848,57,80,0
277.17206,277.48456,57,80,0
277.49814,277.81064,57,80,0
277.82425,278.13675,57,80,0
278.15033,278.46283,57,80,0
278.4764,278.7889,57,80,0
278.8025,279.115,57,80,0
279.12857,279.44107,57,80,0
279.45468,279.76718,57,80,0
279.78076,280.09326,57,80,0
280.10684,280.41934,57,80,0
279.45468,280.74542,67,80,0
280.43292,280.74542,57,80,0
280.759,281.0715,57,80,0
280.759,281.3976,68,80,0
281.0851,281.3976,57,80,0
281.4112,281.7237,57,81,0
281.57422,281.88672,60,82,0
281.73727,282.04977,61,83,0
281.90033,282.21283,60,85,0
282.06335,282.37585,61,86,0
282.2264,282.5389,63,87,0
282.38943,282.70193,64,89,0
282.5525,282.865,63,90,0
282.71555,283.02805,64,91,0
282.87857,283.19107,66,93,0
283.04163,283.35413,67,94,0
283.20465,283.51715,66,95,0
283.3677,283.6802,67,97,0
283.53076,283.84326,65,98,0
283.6938,284.0063,64,99,0
283.85684,284.16934,62,100,0
284.0199,284.3324,57,100,0
284.0199,284.65848,67,100,0
284.34598,284.65848,57,100,0
284.67206,284.98456,57,100,0
284.99814,285.31064,57,100,0
285.32422,285.63672,57,98,0
284.67206,285.96283,67,100,0
285.65033,285.96283,57,92,0
285.9764,286.2889,57,86,0
285.9764,286.615,68,86,0
286.3025,286.615,57,81,0
286.62857,286.94107,57,80,0
286.62857,287.26715,64,80,0
286.95465,287.26715,57,80,0
287.28076,287.59326,57,80,0
287.60684,287.91934,57,80,0
287.93292,288.24542,57,80,0
287.28076,288.5715,67,80,0
288.259,288.5715,57,80,0
288.58508,288.89758,57,80,0
288.58508,289.2237,68,80,0
288.9112,289.2237,57,80,0
289.23727,289.54977,64,80,0
289.23727,289.54977,57,80,0
289.56335,289.87585,57,80,0
289.88943,290.20193,57,80,0
289.88943,290.52805,68,80,0
290.21555,290.52805,57,80,0
290.54163,290.85413,64,80,0
290.54163,290.85413,57,80,0
290.8677,291.1802,57,80,0
291.1938,291.5063,57,80,0
291.1938,291.83237,68,80,0
291.51987,291.83237,57,80,0
291.84598,292.48456,64,80,0
291.84598,292.48456,57,80,0
297.06335,297.37585,38,100,0
297.38943,297.70193,50,100,0
297.7155,298.028,45,100,0
298.04163,298.35413,50,100,0
298.3677,298.6802,37,100,0
298.6938,299.0063,49,100,0
299.01987,299.33237,45,100,0
299.34595,299.65845,49,100,0
299.67206,299.98456,38,100,0
299.99814,300.31064,50,100,0
300.32422,300.63672,45,100,0
300.6503,300.9628,50,100,0
300.97638,301.28888,38,100,0
301.3025,301.615,50,100,0
301.62857,301.94107,35,100,0
301.95465,302.26715,47,100,0
302.28073,302.59323,36,100,0
302.60684,302.91934,48,100,0
302.93292,303.24542,43,100,0
303.259,303.5715,48,100,0
303.58508,303.89758,36,100,0
303.91116,304.22366,48,100,0
304.23727,304.54977,37,100,0
304.56335,304.87585,49,100,0
304.88943,305.20193,38,100,0
305.2155,305.528,50,100,0
305.5416,305.86832,45,100,0
305.8825,306.20923,50,100,0
306.22342,306.5828,38,101,0
306.59842,306.93274,50,104,0
306.94727,307.2667,41,107,0
307.2806,307.60004,53,109,0
307.61392,307.93338,43,110,0
307.94727,308.2667,55,110,0
308.2806,308.60004,46,110,0
308.61392,308.93338,58,110,0
308.94727,309.2667,45,110,0
309.2806,309.60004,53,110,0
309.2806,309.60004,57,110,0
309.61392,309.93338,45,110,0
309.94727,310.2667,52,110,0
309.94727,310.2667,55,110,0
310.2806,310.6149,50,110,0
310.62943,310.96375,55,110,0
310.62943,310.96375,64,110,0
310.97827,311.33765,50,110,0
311.35327,311.71265,55,110,0
311.35327,311.71265,64,110,0
311.72827,312.1168,62,110,0
311.72827,312.1168,53,110,0
311.72827,312.1168,50,110,0
311.93097,312.3195,58,110,0
312.13367,312.5222,57,105,0
312.33636,312.72488,56,99,0
312.5391,312.92758,57,93,0
312.7418,313.1303,55,87,0
312.9445,313.333,53,81,0
313.1472,313.50266,52,80,0
313.34988,314.66934,53,80,0
313.34988,314.66934,50,80,0
314.68323,316.00266,49,80,0
314.68323,316.00266,52,80,0
316.01657,318.00266,53,80,0
316.01657,318.00266,50,80,0
318.01657,318.66934,50,80,0
318.01657,318.66934,41,80,0
318.68323,319.336,50,80,0
318.68323,319.336,43,80,0
319.34988,320.00266,50,89,0
319.34988,320.00266,45,89,0
320.01654,320.6997,50,99,0
320.01654,320.6997,46,99,0
320.71423,321.4486,50,109,0
320.71423,321.4486,45,109,0
321.46423,324.4486,50,80,0
321.46423,324.4486,43,80,0
324.46423,325.14737,50,80,0
324.46423,325.14737,44,80,0
325.1619,325.84503,50,89,0
325.1619,325.84503,45,89,0
325.8596,326.59396,50,99,0
325.8596,326.59396,47,99,0
326.6096,327.4035,50,109,0
326.6096,327.4035,45,109,0
327.42038,330.64673,50,80,0
327.42038,330.64673,44,80,0
330.66364,331.18445,45,80,0
330.66364,331.18445,33,80,0
331.19934,331.36304,45,80,0
331.19934,331.36304,33,80,0
331.37793,332.07733,45,80,0
331.37793,332.07733,33,80,0
333.52078,334.01794,53,80,0
333.52078,334.01794,50,80,0
333.52078,334.01794,45,80,0
334.03214,334.1884,53,86,0
334.03214,334.1884,50,86,0
334.03214,334.1884,45,86,0
334.20258,334.8702,53,88,0
334.20258,334.8702,50,88,0
334.20258,334.8702,45,88,0
336.24805,336.7452,55,110,0
336.24805,336.7452,52,110,0
336.24805,336.7452,49,110,0
336.24805,336.7452,45,110,0
336.7594,336.91565,55,110,0
336.7594,336.91565,52,110,0
336.7594,336.91565,49,110,0
336.7594,336.91565,45,110,0
336.92987,337.59747,55,110,0
336.92987,337.59747,52,110,0
336.92987,337.59747,49,110,0
336.92987,337.59747,45,110,0
343.00833,343.34265,58,91,0
343.35718,343.6915,55,94,0
343.70602,344.04828,52,97,0
344.06317,344.40543,49,99,0
345.13458,346.72684,43,101,0
346.74173,346.90543,41,80,0
346.9203,347.08398,39,80,0
344.42032,347.26257,46,101,0
347.09888,347.26257,38,80,0
347.27744,348.69113,45,80,0
347.27744,350.11972,37,80,0
348.70602,350.11972,55,80,0
350.84888,351.19113,53,80,0
350.13458,351.54828,38,80,0
351.20602,351.54828,62,80,0
351.56317,352.97684,31,80,0
352.99173,355.83398,33,77,0
354.4203,355.83398,45,70,0
355.84888,359.1011,45,85,0
355.84888,359.1011,38,85,0
359.12714,364.1011,45,70,0
359.12714,364.1011,38,70,0
