start_time,end_time,note_value,velocity,instrument_program_number
2.25,2.6210938,81,80,0
2.625,2.8085938,79,80,0
2.4375,2.9960938,69,80,0
2.8125,2.9960938,78,80,0
3.0,3.1835938,76,80,0
3.1875,3.3710938,78,80,0
3.0,3.5585938,71,80,0
3.375,3.5585938,74,80,0
3.5625,3.7460938,71,80,0
3.5625,3.9335938,67,80,0
3.75,3.9335938,76,80,0
3.9375,4.1210938,73,80,0
3.9375,4.1210938,67,80,0
4.125,4.3085938,74,80,0
4.125,4.3085938,66,80,0
6.75,7.1210938,81,80,0
7.125,7.3085938,79,80,0
6.9375,7.4960938,69,80,0
7.3125,7.4960938,78,80,0
7.5,7.6835938,76,80,0
7.6875,7.8710938,78,80,0
7.5,8.058594,71,80,0
7.875,8.058594,74,80,0
8.0625,8.246094,71,80,0
8.0625,8.433594,67,80,0
8.25,8.433594,76,80,0
8.4375,8.621094,73,80,0
8.4375,8.621094,67,80,0
8.625,8.808594,74,80,0
8.625,8.808594,66,80,0
9.0,9.183594,66,80,0
9.0,9.558594,74,80,0
9.5625,9.746094,73,80,0
9.1875,9.933594,67,80,0
9.75,9.933594,81,90,0
10.125,10.308594,73,80,0
10.125,10.308594,67,80,0
10.3125,10.683594,76,80,0
10.6875,10.871094,74,80,0
10.3125,11.058594,66,80,0
10.875,11.058594,81,90,0
11.25,11.433594,66,80,0
11.25,11.808594,74,80,0
11.8125,11.996094,73,80,0
11.4375,12.183594,67,80,0
12.0,12.183594,81,90,0
12.375,12.558594,73,80,0
12.375,12.558594,67,80,0
12.5625,12.933594,74,80,0
12.5625,12.933594,66,80,0
13.5,13.683594,66,80,0
13.5,13.964844,74,80,0
13.96875,14.058594,73,80,0
14.0625,14.152344,71,80,0
14.15625,14.246094,73,80,0
13.6875,14.433594,67,80,0
14.25,14.433594,81,90,0
14.625,14.808594,73,80,0
14.625,14.808594,67,80,0
14.8125,15.089844,76,80,0
15.09375,15.183594,74,80,0
15.1875,15.277344,73,80,0
15.28125,15.371094,74,80,0
14.8125,15.558594,66,80,0
15.375,15.558594,81,90,0
15.75,15.933594,66,80,0
15.75,16.214844,74,80,0
16.21875,16.308594,73,80,0
16.3125,16.402344,71,80,0
16.40625,16.496094,73,80,0
15.9375,16.689516,67,80,0
16.5,16.689516,81,90,0
16.893547,17.089382,73,80,0
16.893547,17.089382,67,80,0
17.093548,17.489382,74,80,0
17.093548,17.489382,66,80,0
18.093548,18.18938,62,80,0
18.193548,18.289381,57,80,0
18.481049,18.570892,54,80,0
18.574799,18.664642,57,80,0
18.668549,18.758392,62,80,0
18.762299,18.852142,66,80,0
19.043549,19.133392,64,80,0
19.137299,19.227142,69,80,0
19.231049,19.320892,73,80,0
19.324799,19.414642,76,80,0
19.606049,19.695892,62,80,0
19.699799,19.789642,66,80,0
19.793549,19.883392,71,80,0
19.887299,19.977142,74,80,0
20.168549,20.258392,73,80,0
20.262299,20.352142,78,80,0
20.356049,20.445892,81,80,0
20.449799,20.539642,85,80,0
20.731049,20.820892,59,80,0
20.824799,20.914642,62,80,0
20.918549,21.008392,67,80,0
21.012299,21.102142,71,80,0
21.293549,21.383392,69,80,0
21.387299,21.477142,74,80,0
21.481049,21.570892,78,80,0
21.574799,21.664642,81,80,0
21.668549,21.758392,79,80,0
21.668549,21.758392,73,80,0
21.762299,21.852142,69,80,0
21.856049,21.945892,79,80,0
21.856049,21.945892,73,80,0
21.949799,22.039642,69,80,0
22.043549,22.133392,78,80,0
22.043549,22.133392,74,80,0
22.137299,22.227142,69,80,0
22.231049,22.320892,76,80,0
22.231049,22.320892,73,80,0
22.324799,22.414642,74,80,0
22.418549,22.508392,73,80,0
22.512299,22.602142,71,80,0
22.606049,22.695892,69,80,0
22.699799,22.789642,67,80,0
22.981049,23.070892,54,81,0
23.074799,23.164642,57,81,0
23.168549,23.258392,62,82,0
23.262299,23.352142,66,82,0
23.543549,23.633392,64,84,0
23.637299,23.727142,69,84,0
23.731049,23.820892,73,85,0
23.824799,23.914642,76,85,0
24.106049,24.195892,62,87,0
24.199799,24.289642,66,87,0
24.293549,24.383392,71,88,0
24.387299,24.477142,74,88,0
24.668549,24.758392,73,90,0
24.762299,24.852142,78,90,0
24.856049,24.945892,81,91,0
24.949799,25.039642,85,91,0
25.231049,25.320892,59,93,0
25.324799,25.414642,62,93,0
25.418549,25.508392,68,94,0
25.512299,25.602142,71,94,0
25.793549,25.883392,69,96,0
25.887299,25.977142,75,97,0
25.981049,26.070892,78,97,0
26.074799,26.164642,81,98,0
26.356049,26.445892,56,99,0
26.449799,26.539642,59,100,0
26.543549,26.633392,64,100,0
26.637299,26.727142,68,101,0
26.918549,27.008392,73,102,0
27.012299,27.102142,76,103,0
27.106049,27.195892,81,103,0
27.199799,27.289642,85,104,0
27.481049,27.570892,59,105,0
27.574799,27.664642,62,106,0
27.668549,27.758392,68,106,0
27.762299,27.852142,71,107,0
28.043549,28.133392,69,108,0
28.137299,28.227142,75,109,0
28.231049,28.320892,78,109,0
28.324799,28.414642,81,110,0
28.612097,28.704838,68,110,0
28.70887,28.80161,71,110,0
28.805643,28.898386,76,110,0
28.902418,28.99516,80,110,0
29.19274,29.285482,64,110,0
29.289515,29.382256,68,110,0
29.386288,29.47903,71,110,0
29.483063,29.575804,76,110,0
29.779837,29.87567,59,110,0
29.879835,29.97567,64,110,0
29.979836,30.07567,68,110,0
30.079836,30.175669,71,110,0
30.386732,30.48941,56,110,0
30.493876,30.596554,59,110,0
30.601019,30.716019,64,110,0
30.721018,30.836018,68,110,0
32.04102,32.276016,85,80,0
32.281017,32.676853,81,80,0
32.68102,32.87685,88,80,0
32.88102,33.27685,85,80,0
33.281017,33.476852,81,80,0
33.281017,33.476852,73,80,0
33.481018,33.87685,76,80,0
33.481018,33.87685,69,80,0
33.88102,34.07685,76,80,0
33.88102,34.07685,85,80,0
34.081017,34.476852,81,80,0
34.081017,34.476852,73,80,0
34.481018,34.676853,69,80,0
34.68102,35.07685,73,80,0
35.081017,35.27685,69,80,0
34.481018,35.676853,76,80,0
35.281017,35.676853,64,80,0
35.68102,35.87685,73,80,0
35.68102,35.87685,69,80,0
35.88102,36.27685,71,80,0
35.88102,36.27685,68,80,0
36.281017,36.476852,74,80,0
36.281017,36.476852,71,80,0
35.68102,36.676853,76,80,0
36.481018,36.676853,73,80,0
36.481018,36.676853,69,80,0
36.781017,36.87685,85,80,0
36.88102,36.976852,84,80,0
36.981018,37.07685,85,80,0
37.081017,37.27685,81,80,0
37.38102,37.476852,88,80,0
37.481018,37.57685,87,80,0
37.581017,37.676853,88,80,0
37.68102,37.87685,85,80,0
37.981018,38.07685,73,80,0
38.081017,38.176853,72,80,0
38.081017,38.27685,81,80,0
38.18102,38.27685,73,80,0
38.281017,38.476852,76,80,0
38.281017,38.476852,69,80,0
38.581017,38.676853,76,80,0
38.68102,38.77685,75,80,0
38.68102,38.87685,85,80,0
38.781017,38.87685,76,80,0
38.88102,39.07685,81,80,0
38.88102,39.07685,73,80,0
39.281017,39.476852,76,80,0
39.281017,39.476852,69,80,0
39.88102,40.07685,69,80,0
39.481018,40.476852,76,80,0
40.081017,40.476852,64,80,0
40.481018,40.676853,69,80,0
40.481018,40.676853,73,80,0
40.68102,41.07685,71,80,0
40.68102,41.07685,68,80,0
41.081017,41.27685,74,80,0
41.081017,41.27685,71,80,0
40.481018,41.676853,76,80,0
41.281017,41.676853,69,80,0
41.281017,41.676853,73,80,0
41.68102,41.87685,81,90,0
41.68102,41.87685,76,90,0
41.68102,41.87685,73,90,0
41.88102,42.27685,80,80,0
41.88102,42.27685,76,80,0
41.88102,42.27685,71,80,0
42.281017,42.476852,83,80,0
42.281017,42.476852,76,80,0
42.281017,42.476852,74,80,0
42.481018,42.87685,81,80,0
42.481018,42.87685,76,80,0
42.481018,42.87685,73,80,0
42.88102,43.07685,69,80,0
42.88102,43.07685,73,80,0
43.081017,43.476852,71,80,0
43.081017,43.476852,68,80,0
43.481018,43.676853,74,80,0
43.481018,43.676853,71,80,0
42.88102,44.07685,76,80,0
43.68102,44.07685,69,80,0
43.68102,44.07685,73,80,0
44.081017,44.27685,81,90,0
44.081017,44.27685,76,90,0
44.081017,44.27685,73,90,0
44.281017,44.676853,80,80,0
44.281017,44.676853,76,80,0
44.281017,44.676853,71,80,0
44.68102,44.87685,83,85,0
44.68102,44.87685,76,85,0
44.68102,44.87685,74,85,0
44.88102,45.27685,81,88,0
44.88102,45.27685,76,88,0
44.88102,45.27685,73,88,0
45.281017,45.476852,81,94,0
45.281017,45.476852,76,94,0
45.281017,45.476852,73,94,0
45.481018,45.87685,80,96,0
45.481018,45.87685,76,96,0
45.481018,45.87685,71,96,0
45.88102,46.07685,83,102,0
45.88102,46.07685,76,102,0
45.88102,46.07685,74,102,0
46.081017,46.476852,81,105,0
46.081017,46.476852,76,105,0
46.081017,46.476852,73,105,0
46.481018,46.676853,82,110,0
46.481018,46.676853,76,110,0
46.481018,46.676853,73,110,0
46.68102,47.87685,78,110,0
46.68102,47.87685,74,110,0
46.68102,47.87685,83,110,0
47.88102,47.976852,80,110,0
47.93102,48.02685,81,110,0
47.981018,48.07685,80,110,0
48.031017,48.12685,81,110,0
48.081017,48.176853,80,110,0
48.13102,48.226852,81,110,0
48.18102,48.27685,80,110,0
48.231018,48.32685,81,110,0
48.281017,48.37685,80,110,0
48.331017,48.426853,81,110,0
48.38102,48.476852,80,110,0
48.43102,48.52685,81,110,0
48.481018,48.57685,80,110,0
48.531017,48.62685,81,110,0
48.581017,48.676853,80,110,0
48.63102,48.726852,81,110,0
48.68102,48.77685,80,110,0
48.731018,48.82685,81,110,0
48.781017,48.87685,80,110,0
48.831017,48.926853,81,110,0
48.88102,48.976852,80,110,0
48.93102,49.02685,81,110,0
47.88102,49.07685,71,110,0
48.981018,49.07685,78,110,0
49.031017,49.12685,80,110,0
49.081017,49.176853,69,110,0
49.18102,49.27685,73,110,0
49.281017,49.37086,76,110,0
49.374767,49.46461,81,110,0
49.468517,49.62086,69,110,0
49.562267,49.72047,81,110,0
49.656017,49.812267,68,110,0
49.749767,49.91383,80,110,0
49.843517,50.015392,66,110,0
49.937267,50.105236,78,110,0
50.031017,50.202892,64,110,0
50.124767,50.28883,76,110,0
50.218517,50.386486,66,110,0
50.312267,50.49586,78,110,0
50.406017,50.568127,64,110,0
50.499767,50.661877,76,110,0
50.593517,50.767345,62,110,0
50.687267,50.849377,74,110,0
50.781017,50.941174,61,110,0
50.874767,51.046642,73,110,0
50.968517,51.13258,62,110,0
51.062267,51.224377,74,110,0
51.156017,51.318127,64,110,0
51.249767,51.415783,76,110,0
51.343517,51.503674,69,110,0
51.437267,51.603283,73,110,0
51.531017,51.693127,76,110,0
51.624767,51.792736,81,110,0
51.718517,51.880627,69,110,0
51.812267,51.978283,81,110,0
51.906017,52.079845,68,110,0
51.999767,52.165783,80,110,0
52.093517,52.25758,66,110,0
52.187267,52.349377,78,110,0
52.281017,52.454845,64,110,0
52.374767,52.53883,76,110,0
52.468517,52.634533,66,110,0
52.562267,52.72633,78,110,0
52.656017,52.82594,64,110,0
52.749767,52.90797,76,110,0
52.843517,53.011486,62,110,0
52.937267,53.093517,74,110,0
53.031017,53.19508,61,110,0
53.124767,53.292736,73,110,0
53.218517,53.378674,62,110,0
53.312267,53.478283,74,110,0
53.406017,53.573986,64,110,0
53.499767,53.66383,76,110,0
53.593517,53.761486,69,110,0
53.687267,53.85133,73,110,0
53.781017,53.937267,76,110,0
53.874767,54.03883,81,110,0
53.968517,54.142345,69,110,0
54.062267,54.222424,81,110,0
54.156017,54.32008,67,110,0
54.249767,54.42555,79,110,0
54.343517,54.505627,66,110,0
54.437267,54.597424,78,110,0
54.531017,54.697033,64,110,0
54.624767,54.790783,76,110,0
54.718517,54.88844,62,110,0
54.812267,54.972424,74,110,0
54.906017,55.073986,61,110,0
54.999767,55.159924,73,110,0
55.093517,55.25758,59,110,0
55.187267,55.355236,71,110,0
55.281017,55.43922,57,110,0
55.374767,55.53883,69,110,0
55.468517,55.63258,55,110,0
55.562267,55.728283,67,110,0
55.656017,55.818127,54,110,0
55.749767,55.83961,66,110,0
55.843517,56.21461,67,110,0
55.843517,56.21461,55,110,0
56.968517,57.33961,68,110,0
56.968517,57.33961,56,110,0
61.281017,61.65211,81,80,0
61.656017,61.83961,79,80,0
61.468517,62.02711,69,80,0
61.843517,62.02711,78,80,0
62.031017,62.21461,76,80,0
62.218517,62.40211,78,80,0
62.031017,62.58961,71,80,0
62.406017,62.58961,74,80,0
62.593517,62.77711,71,80,0
62.593517,62.96461,67,80,0
62.781017,62.96461,76,80,0
62.968517,63.15211,73,80,0
62.968517,63.15211,67,80,0
63.156017,63.33961,74,80,0
63.156017,63.33961,66,80,0
63.999767,64.089615,74,80,0
64.09352,64.183365,78,80,0
64.18727,64.277115,66,80,0
64.28102,64.652115,69,80,0
64.65602,64.839615,67,80,0
65.12477,65.214615,87,80,0
65.21852,65.308365,88,80,0
65.31227,65.402115,76,80,0
65.40602,65.777115,79,80,0
65.78102,65.964615,78,80,0
65.96852,66.152115,81,80,0
66.15602,66.339615,79,80,0
65.96852,66.527115,69,80,0
66.34352,66.527115,78,80,0
66.53102,66.714615,76,80,0
66.71852,66.902115,78,80,0
66.53102,67.089615,71,80,0
66.90602,67.089615,74,80,0
67.09352,67.277115,71,80,0
67.09352,67.464615,67,80,0
67.28102,67.464615,76,80,0
67.46852,67.652115,73,80,0
67.46852,67.652115,67,80,0
67.65602,67.839615,74,80,0
67.65602,67.839615,66,80,0
68.03102,68.214615,66,80,0
68.03102,68.589615,74,80,0
68.59352,68.777115,73,80,0
68.21852,68.964615,67,80,0
68.78102,69.152115,81,90,0
69.15602,69.339615,73,80,0
69.15602,69.339615,67,80,0
69.34352,69.714615,76,80,0
69.71852,69.902115,74,80,0
69.34352,70.089615,66,80,0
69.90602,70.277115,81,90,0
70.28102,70.464615,66,80,0
70.28102,70.839615,74,80,0
70.84352,71.027115,73,80,0
70.46852,71.214615,67,80,0
71.03102,71.402115,81,90,0
71.40602,71.589615,73,80,0
71.40602,71.589615,67,80,0
71.59352,71.964615,74,80,0
71.59352,71.964615,66,80,0
72.53102,72.714615,66,80,0
72.53102,72.995865,74,80,0
72.99977,73.089615,73,80,0
73.09352,73.183365,72,80,0
73.18727,73.277115,73,80,0
72.71852,73.464615,67,80,0
73.28102,73.652115,81,90,0
73.65602,73.839615,73,80,0
73.65602,73.839615,67,80,0
73.84352,74.120865,76,80,0
74.12477,74.214615,74,80,0
74.21852,74.308365,73,80,0
74.31227,74.402115,74,80,0
73.84352,74.589615,66,80,0
74.40602,74.777115,81,90,0
74.78102,74.964615,66,80,0
74.78102,75.245865,74,80,0
75.24977,75.339615,73,80,0
75.34352,75.433365,72,80,0
75.43727,75.527115,73,80,0
74.96852,75.714615,67,80,0
75.53102,75.902115,81,90,0
75.90602,76.089615,73,80,0
75.90602,76.089615,67,80,0
76.09352,76.277115,74,80,0
76.09352,76.277115,66,80,0
76.46852,76.652115,74,80,0
76.65602,77.027115,69,80,0
77.03102,77.214615,66,80,0
77.21852,77.589615,62,80,0
77.59352,77.777115,74,80,0
77.78102,78.152115,62,80,0
78.15602,78.339615,73,80,0
78.34352,78.714615,62,80,0
78.71852,78.902115,72,80,0
78.90602,79.277115,62,80,0
79.28102,79.464615,71,80,0
79.46852,79.839615,64,80,0
79.84352,80.027115,69,80,0
80.03102,80.402115,64,80,0
80.40602,80.589615,67,80,0
80.59352,80.964615,62,80,0
80.96852,81.152115,66,80,0
81.15602,81.339615,62,80,0
81.34352,81.527115,74,80,0
81.53102,81.714615,74,80,0
81.71852,82.089615,74,80,0
82.09352,82.277115,86,80,0
82.28102,82.652115,74,80,0
82.65602,82.839615,85,80,0
82.84352,83.214615,74,80,0
83.21852,83.402115,84,80,0
83.40602,83.777115,74,80,0
83.78102,83.964615,83,80,0
83.96852,84.339615,76,80,0
84.34352,84.527115,81,80,0
84.53102,84.902115,72,80,0
84.90602,85.089615,78,80,0
85.09352,85.464615,71,80,0
85.46852,85.652115,79,88,0
85.65602,86.027115,77,92,0
86.03102,86.214615,86,100,0
86.21852,86.589615,76,100,0
86.59352,86.777115,84,93,0
86.78102,87.152115,72,89,0
87.15602,87.339615,81,81,0
87.34352,87.714615,71,80,0
87.71852,87.902115,79,88,0
87.90602,88.277115,77,92,0
88.28102,88.464615,86,100,0
88.46852,88.839615,76,100,0
88.84352,89.027115,84,93,0
89.03102,89.402115,72,89,0
89.40602,89.589615,81,81,0
89.59352,89.777115,71,70,0
89.78102,89.964615,72,70,0
89.96852,90.152115,74,70,0
89.59352,90.339615,79,70,0
90.34352,90.527115,78,70,0
90.53102,90.714615,80,70,0
90.15602,90.902115,76,70,0
90.90602,91.089615,74,70,0
91.09352,91.277115,76,70,0
90.71852,91.464615,81,70,0
91.46852,91.652115,80,70,0
91.65602,91.839615,82,70,0
91.28102,92.027115,78,70,0
92.03102,92.214615,76,70,0
92.21852,92.402115,78,70,0
91.84352,92.589615,83,70,0
92.40602,92.777115,79,70,0
92.59352,92.777115,84,70,0
92.78102,92.964615,78,70,0
92.78102,93.152115,83,70,0
92.96852,93.339615,76,70,0
93.15602,93.339615,81,70,0
93.34352,93.527115,74,70,0
93.34352,93.714615,80,70,0
93.53102,93.902115,76,70,0
93.71852,93.902115,81,70,0
93.90602,94.089615,79,70,0
93.90602,94.089615,76,70,0
94.09352,94.277115,78,70,0
94.28102,94.464615,79,70,0
94.46852,94.652115,81,70,0
94.09352,94.839615,74,70,0
94.84352,95.027115,73,70,0
95.03102,95.214615,75,70,0
94.65602,95.402115,83,70,0
95.40602,95.589615,81,70,0
95.59352,95.777115,83,70,0
95.21852,95.964615,76,70,0
95.96852,96.152115,75,70,0
96.15602,96.339615,77,70,0
95.78102,96.527115,85,70,0
96.53102,96.714615,83,70,0
96.71852,96.902115,85,70,0
96.34352,97.089615,78,70,0
96.90602,97.277115,86,70,0
97.09352,97.464615,77,70,0
97.28102,97.652115,86,70,0
97.46852,97.839615,76,70,0
97.84352,98.027115,75,70,0
97.65602,98.214615,84,70,0
98.03102,98.214615,74,70,0
98.21852,98.402115,86,70,0
98.21852,98.402115,78,70,0
98.40602,98.589615,81,70,0
98.40602,98.589615,78,70,0
98.59352,98.777115,83,70,0
98.59352,98.777115,79,70,0
98.59352,98.777115,71,70,0
98.78102,98.964615,65,70,0
98.96852,99.152115,63,70,0
99.34352,99.527115,74,70,0
99.53102,99.714615,71,70,0
99.15602,99.902115,64,70,0
99.90602,100.089615,67,70,0
100.09352,100.277115,65,70,0
99.71852,100.464615,72,70,0
100.46852,100.652115,76,70,0
100.65602,100.839615,73,70,0
100.28102,101.027115,66,70,0
101.03102,101.214615,69,70,0
101.21852,101.402115,66,70,0
100.84352,101.589615,74,70,0
101.59352,101.777115,77,70,0
101.78102,101.964615,75,70,0
101.40602,102.152115,67,70,0
101.96852,102.152115,76,70,0
102.15602,102.339615,72,70,0
102.15602,102.339615,69,70,0
102.34352,102.527115,71,70,0
102.34352,102.527115,67,70,0
102.53102,102.714615,69,70,0
102.53102,102.714615,66,70,0
102.71852,102.902115,74,70,0
102.71852,102.902115,67,70,0
102.90602,103.089615,72,70,0
102.90602,103.089615,69,70,0
103.09352,103.839615,79,70,0
103.09352,103.839615,70,70,0
103.09352,103.839615,67,70,0
103.84352,104.027115,78,78,0
103.84352,104.027115,69,78,0
103.84352,104.027115,66,78,0
104.03102,104.214615,79,80,0
104.03102,104.214615,70,80,0
104.03102,104.214615,67,80,0
104.21852,104.964615,81,82,0
104.21852,104.964615,72,82,0
104.21852,104.964615,69,82,0
104.96852,105.152115,79,91,0
104.96852,105.152115,71,91,0
104.96852,105.152115,67,91,0
105.15602,105.339615,81,93,0
105.15602,105.339615,72,93,0
105.15602,105.339615,69,93,0
105.34352,106.089615,83,95,0
105.34352,106.089615,74,95,0
105.34352,106.089615,71,95,0
106.09352,106.277115,84,103,0
106.09352,106.277115,75,103,0
106.09352,106.277115,72,103,0
106.28102,106.464615,74,106,0
106.28102,106.464615,70,106,0
106.28102,106.652115,82,106,0
106.46852,106.839615,73,108,0
106.46852,106.839615,69,108,0
106.65602,106.839615,81,110,0
106.84352,107.214615,80,112,0
107.03102,107.402115,73,114,0
107.03102,107.402115,69,114,0
107.21852,107.402115,81,116,0
107.40602,107.589615,79,118,0
107.40602,107.589615,76,118,0
107.40602,107.589615,73,118,0
107.59352,107.777115,77,120,0
107.59352,107.777115,74,120,0
107.59352,107.777115,69,120,0
107.78102,107.964615,53,120,0
107.96852,108.152115,57,120,0
108.15602,108.339615,62,120,0
108.34352,108.527115,77,120,0
108.53102,108.714615,74,120,0
108.71852,108.902115,73,120,0
108.90602,109.089615,61,120,0
109.09352,109.277115,64,120,0
109.28102,109.464615,67,120,0
109.46852,109.652115,79,120,0
109.65602,109.839615,76,120,0
109.84352,110.027115,74,120,0
110.03102,110.214615,62,120,0
110.21852,110.402115,65,120,0
110.40602,110.589615,69,120,0
110.59352,110.777115,81,120,0
110.78102,110.964615,77,120,0
110.96852,111.152115,75,120,0
111.15602,111.339615,63,120,0
111.34352,111.527115,67,120,0
111.53102,111.714615,70,120,0
111.71852,111.902115,82,120,0
111.90602,112.089615,79,120,0
112.09352,112.277115,78,120,0
112.28102,112.464615,66,120,0
112.46852,112.652115,69,120,0
112.65602,112.839615,72,120,0
112.84352,113.027115,84,120,0
113.03102,113.214615,81,120,0
113.21852,113.402115,79,120,0
113.40602,113.589615,86,120,0
113.59352,113.777115,79,120,0
113.78102,113.964615,80,120,0
113.96852,114.152115,86,120,0
114.15602,114.339615,80,120,0
114.34352,114.620865,73,120,0
114.43727,114.714615,76,120,0
114.53102,114.808365,81,120,0
114.62477,114.902115,85,120,0
114.71852,114.995865,69,120,0
114.81227,115.089615,81,120,0
114.90602,115.183365,71,120,0
114.99977,115.277115,83,120,0
115.09352,115.370865,73,120,0
115.18727,115.464615,85,120,0
115.28102,115.558365,74,120,0
115.37477,115.652115,86,120,0
115.46852,115.745865,76,120,0
115.56227,115.839615,88,120,0
115.65602,115.933365,74,120,0
115.74977,116.027115,86,120,0
115.84352,116.120865,73,120,0
115.93727,116.214615,85,120,0
116.03102,116.308365,77,120,0
116.12477,116.402115,89,120,0
116.21852,116.495865,76,120,0
116.31227,116.589615,88,120,0
116.40602,116.683365,74,120,0
116.49977,116.777115,86,120,0
116.59352,116.870865,73,120,0
116.68727,116.964615,76,120,0
116.78102,117.058365,81,120,0
116.87477,117.152115,85,120,0
116.96852,117.245865,69,120,0
117.06227,117.339615,81,120,0
117.15602,117.433365,71,120,0
117.24977,117.527115,83,120,0
117.34352,117.620865,73,120,0
117.43727,117.714615,85,120,0
117.53102,117.808365,74,120,0
117.62477,117.902115,86,120,0
117.71852,117.995865,76,120,0
117.81227,118.089615,88,120,0
117.90602,118.183365,74,120,0
117.99977,118.277115,86,120,0
118.09352,118.370865,73,120,0
118.18727,118.464615,85,120,0
118.28102,118.558365,77,120,0
118.37477,118.652115,89,120,0
118.46852,118.745865,76,120,0
118.56227,118.839615,88,120,0
118.65602,118.933365,74,120,0
118.74977,119.027115,86,120,0
118.84352,119.120865,73,120,0
118.93727,119.214615,76,120,0
119.03102,119.308365,81,120,0
119.12477,119.402115,85,120,0
119.21852,119.495865,69,120,0
119.31227,119.589615,81,120,0
119.40602,119.683365,71,120,0
119.49977,119.777115,83,120,0
119.59352,119.870865,73,120,0
119.68727,119.964615,85,120,0
119.78102,120.058365,74,120,0
119.87477,120.152115,86,120,0
119.96852,120.245865,76,120,0
120.06227,120.339615,88,120,0
120.15602,120.433365,74,120,0
120.24977,120.527115,86,120,0
120.34352,120.620865,73,120,0
120.43727,120.714615,85,120,0
120.53102,120.808365,77,120,0
120.62477,120.902115,89,120,0
120.71852,120.995865,76,120,0
120.81227,121.089615,88,120,0
120.90602,121.183365,74,120,0
120.99977,121.277115,86,120,0
121.09352,121.370865,76,120,0
121.18727,121.464615,88,120,0
121.28102,121.558365,74,120,0
121.37477,121.652115,86,120,0
121.46852,121.745865,73,120,0
121.56227,121.839615,85,120,0
121.65602,121.933365,77,120,0
121.74977,122.027115,89,120,0
121.84352,122.120865,76,120,0
121.93727,122.214615,88,120,0
122.03102,122.308365,74,120,0
122.12477,122.402115,86,120,0
122.21852,122.495865,76,120,0
122.31227,122.589615,88,120,0
122.40602,122.683365,74,120,0
122.49977,122.777115,86,120,0
122.59352,122.870865,73,120,0
122.68727,122.964615,85,120,0
122.78102,123.058365,77,120,0
122.87477,123.152115,89,120,0
122.96852,123.245865,76,120,0
123.06227,123.339615,88,120,0
123.24977,123.339615,86,120,0
123.15602,123.34157,74,120,0
123.34352,123.433365,85,120,0
123.43727,123.527115,88,120,0
123.53102,123.620865,86,120,0
123.62477,123.714615,85,120,0
123.71852,123.808365,83,120,0
123.81227,123.902115,81,120,0
123.90602,123.995865,80,120,0
123.99977,124.089615,78,120,0
124.09352,124.183365,76,120,0
124.18727,124.277115,74,120,0
124.28102,124.370865,73,120,0
124.37477,124.464615,71,120,0
124.46852,124.558365,69,120,0
124.56227,124.652115,76,120,0
124.65602,124.745865,74,120,0
124.74977,124.839615,73,120,0
124.84352,124.933365,71,120,0
124.93727,125.027115,69,120,0
125.03102,125.120865,68,120,0
125.12477,125.214615,66,120,0
125.21852,125.308365,64,120,0
125.31227,125.402115,62,120,0
125.40602,125.495865,61,120,0
125.49977,125.589615,59,120,0
125.59352,125.683365,57,120,0
125.68727,125.777115,64,120,0
125.78102,125.870865,62,120,0
125.87477,125.964615,61,120,0
125.96852,126.058365,59,120,0
126.06227,126.152115,57,120,0
126.15602,126.245865,56,120,0
126.24977,126.339615,54,120,0
126.34352,126.433365,52,120,0
126.43727,126.527115,50,120,0
126.53102,126.620865,49,120,0
126.62477,126.714615,47,120,0
126.91206,127.101585,61,120,0
127.10561,127.29513,64,120,0
127.299164,127.494995,69,120,0
127.299164,127.494995,57,120,0
127.49916,127.70175,73,120,0
127.49916,127.70175,61,120,0
127.706055,127.92365,76,120,0
127.706055,127.92365,64,120,0
127.92828,130.36809,69,120,0
127.92828,130.36809,81,120,0
132.65744,133.02853,81,80,0
133.03244,133.21603,79,80,0
132.84494,133.40353,69,80,0
133.21994,133.40353,78,80,0
133.40744,133.59103,76,80,0
133.59494,133.77853,78,80,0
133.40744,133.96603,71,80,0
133.78244,133.96603,74,80,0
133.96994,134.15353,71,80,0
133.96994,134.34103,67,80,0
134.15744,134.34103,76,80,0
134.34494,134.52853,73,80,0
134.34494,134.52853,67,80,0
134.53244,134.71603,74,80,0
134.53244,134.71603,66,80,0
135.18869,135.27853,74,80,0
135.28244,135.37228,78,80,0
135.37619,135.46603,74,80,0
135.46994,135.55978,69,80,0
135.56369,135.65353,66,80,0
135.65744,136.03049,69,80,0
136.03244,136.21603,67,80,0
136.31369,136.40353,87,80,0
136.40744,136.49728,88,80,0
136.50119,136.59103,85,80,0
136.59494,136.68478,79,80,0
136.68869,136.77853,76,80,0
136.78244,137.15549,79,80,0
137.15744,137.34103,78,80,0
137.34494,137.52853,81,80,0
137.53244,137.71603,79,80,0
137.34494,137.90353,69,80,0
137.71994,137.90353,78,80,0
137.90744,138.09103,76,80,0
138.09494,138.27853,78,80,0
137.90744,138.46603,71,80,0
138.28244,138.46603,74,80,0
138.46994,138.65353,71,80,0
138.46994,138.84103,67,80,0
138.65744,138.84103,76,80,0
138.84494,139.02853,73,80,0
138.84494,139.02853,67,80,0
139.03244,139.21603,74,80,0
139.03244,139.21603,66,80,0
139.40744,139.59103,66,80,0
139.40744,139.96603,74,80,0
139.96994,140.15353,73,80,0
139.59494,140.34103,67,80,0
140.15744,140.34103,81,90,0
140.53244,140.71603,73,80,0
140.53244,140.71603,67,80,0
140.71994,141.09103,76,80,0
141.09494,141.27853,74,80,0
140.71994,141.46603,66,80,0
141.28244,141.46603,81,90,0
141.65744,141.84103,66,80,0
141.65744,142.21603,74,80,0
142.21994,142.40353,73,80,0
141.84494,142.59103,67,80,0
142.40744,142.59103,81,90,0
142.78244,142.96603,73,80,0
142.78244,142.96603,67,80,0
142.96994,143.34103,74,80,0
142.96994,143.34103,66,80,0
143.90744,144.09103,66,80,0
143.90744,144.37228,74,80,0
144.37619,144.46603,73,80,0
144.46994,144.55978,71,80,0
144.56369,144.65353,73,80,0
144.09494,144.84103,67,80,0
144.65744,144.84103,81,90,0
145.03244,145.21603,73,80,0
145.03244,145.21603,67,80,0
145.21994,145.49728,76,80,0
145.50119,145.59103,74,80,0
145.59494,145.68478,73,80,0
145.68869,145.77853,74,80,0
145.21994,145.96603,66,80,0
145.78244,145.96603,81,90,0
146.15744,146.34103,66,80,0
146.15744,146.62228,74,80,0
146.62619,146.71603,73,80,0
146.71994,146.80978,71,80,0
146.81369,146.90353,73,80,0
146.34494,147.09103,67,80,0
146.90744,147.09103,81,90,0
147.28244,147.46603,73,80,0
147.28244,147.46603,67,80,0
147.46994,147.84103,74,80,0
147.46994,147.84103,66,80,0
148.40744,148.49728,62,80,0
148.50119,148.59103,57,80,0
148.78244,148.87228,54,80,0
148.87619,148.96603,57,80,0
148.96994,149.05978,62,80,0
149.06369,149.15353,66,80,0
149.34494,149.43478,64,80,0
149.43869,149.52853,69,80,0
149.53244,149.62228,73,80,0
149.62619,149.71603,76,80,0
149.90744,149.99728,62,80,0
150.00119,150.09103,66,80,0
150.09494,150.18478,71,80,0
150.18869,150.27853,74,80,0
150.46994,150.55978,73,80,0
150.56369,150.65353,78,80,0
150.65744,150.74728,81,80,0
150.75119,150.84103,85,80,0
151.03244,151.12228,59,80,0
151.12619,151.21603,62,80,0
151.21994,151.30978,67,80,0
151.31369,151.40353,71,80,0
151.59494,151.68478,69,80,0
151.68869,151.77853,74,80,0
151.78244,151.87228,78,80,0
151.87619,151.96603,81,80,0
151.96994,152.05978,79,80,0
151.96994,152.05978,73,80,0
152.06369,152.15353,69,80,0
152.15744,152.24728,79,80,0
152.15744,152.24728,73,80,0
152.25119,152.34103,69,80,0
152.34494,152.43478,78,80,0
152.34494,152.43478,74,80,0
152.43869,152.52853,69,80,0
152.53244,152.62228,76,80,0
152.53244,152.62228,73,80,0
152.62619,152.71603,74,80,0
152.71994,152.80978,73,80,0
152.81369,152.90353,71,80,0
152.90744,152.99728,69,80,0
153.00119,153.09103,67,80,0
153.28244,153.37228,54,80,0
153.37619,153.46603,57,80,0
153.46994,153.55978,62,80,0
153.56369,153.65353,66,80,0
153.84494,153.93478,64,80,0
153.93869,154.02853,70,80,0
154.03244,154.12228,73,81,0
154.12619,154.21603,76,82,0
154.40744,154.49728,62,84,0
154.50119,154.59103,66,85,0
154.59494,154.68478,71,86,0
154.68869,154.77853,74,86,0
154.96994,155.05978,72,89,0
155.06369,155.15353,78,89,0
155.15744,155.24728,81,90,0
155.25119,155.34103,84,91,0
155.53244,155.62228,59,93,0
155.62619,155.71603,62,94,0
155.71994,155.80978,67,95,0
155.81369,155.90353,71,95,0
156.09494,156.18478,75,98,0
156.18869,156.27853,81,98,0
156.28244,156.37228,83,99,0
156.37619,156.46603,87,100,0
156.65744,156.74728,64,102,0
156.75119,156.84103,67,103,0
156.84494,156.93478,71,104,0
156.93869,157.02853,76,104,0
157.21994,157.30978,74,107,0
157.31369,157.40353,76,107,0
157.40744,157.49728,83,108,0
157.50119,157.59103,86,109,0
157.78244,157.87228,61,110,0
157.87619,157.96603,64,110,0
157.96994,158.05978,69,110,0
158.06369,158.15353,73,110,0
158.34494,158.43478,73,110,0
158.43869,158.52853,76,110,0
158.53244,158.62228,81,110,0
158.62619,158.71603,85,110,0
158.90744,158.99728,62,110,0
159.00119,159.09103,66,110,0
159.09494,159.18478,69,110,0
159.18869,159.27853,74,110,0
159.46994,159.55978,74,110,0
159.56369,159.65353,80,110,0
159.65744,159.74728,83,110,0
159.75119,159.84103,86,110,0
160.03244,160.12228,49,110,0
160.12619,160.21603,52,110,0
160.21994,160.30978,57,110,0
160.31369,160.40353,61,110,0
160.59494,160.68478,61,110,0
160.68869,160.77853,64,110,0
160.78244,160.87228,69,110,0
160.87619,160.96603,73,110,0
161.15744,161.24728,50,110,0
161.25119,161.34103,54,110,0
161.34494,161.43478,57,110,0
161.43869,161.52853,62,110,0
161.71994,161.80978,62,110,0
161.81369,161.90353,68,110,0
161.90744,161.99728,71,110,0
162.00119,162.09103,74,110,0
162.2885,162.38124,61,110,0
162.38527,162.47801,64,110,0
162.48204,162.57478,69,110,0
162.57881,162.67155,73,110,0
162.86914,162.96188,57,110,0
162.96591,163.05865,61,110,0
163.06268,163.15543,64,110,0
163.15945,163.2522,69,110,0
163.45624,163.55206,52,110,0
163.55623,163.65207,57,110,0
163.65623,163.75206,61,110,0
163.75623,163.85207,64,110,0
164.07051,164.1732,49,110,0
164.17766,164.28033,52,110,0
164.2848,164.4046,57,110,0
164.4098,164.5296,61,110,0
165.7848,166.0296,78,80,0
166.0348,166.43063,74,80,0
166.4348,166.63063,81,80,0
166.6348,167.03064,78,80,0
167.0348,167.23064,66,80,0
167.0348,167.23064,74,80,0
167.2348,167.63063,62,80,0
167.2348,167.63063,69,80,0
167.6348,167.83064,69,80,0
167.6348,167.83064,78,80,0
167.83481,168.23064,74,80,0
167.83481,168.23064,66,80,0
168.2348,168.43063,62,80,0
168.4348,168.83064,66,80,0
168.83481,169.03064,62,80,0
168.2348,169.46077,69,80,0
169.0348,169.46077,57,80,0
169.46558,169.69153,62,80,0
169.46558,169.69153,66,80,0
169.69633,170.15308,64,80,0
169.69633,170.15308,61,80,0
170.15788,170.38383,67,80,0
170.15788,170.38383,64,80,0
169.46558,170.6824,69,80,0
170.38864,170.6824,69,80,0
170.38864,170.6824,66,80,0
170.38864,170.6824,62,80,0
170.79579,170.89847,78,80,0
170.90294,171.00562,77,80,0
171.01007,171.11276,78,80,0
171.11722,171.31305,74,80,0
171.41722,171.51305,81,80,0
171.51721,171.61305,80,80,0
171.61722,171.71306,81,80,0
171.71722,171.91306,78,80,0
172.01721,172.11305,66,80,0
172.11722,172.21306,65,80,0
172.11722,172.31305,74,80,0
172.21722,172.31305,66,80,0
172.31721,172.50673,62,80,0
172.31721,172.50673,69,80,0
172.60754,172.70029,69,80,0
172.70432,172.79706,68,80,0
172.70432,172.89383,78,80,0
172.80109,172.89383,69,80,0
172.89786,173.08737,74,80,0
172.89786,173.08737,66,80,0
173.28496,173.47447,62,80,0
173.28496,173.47447,69,80,0
173.8656,174.05511,62,80,0
173.4785,174.44221,69,80,0
174.05916,174.44221,57,80,0
174.44624,174.63576,66,80,0
174.44624,174.63576,62,80,0
175.02689,175.2164,67,80,0
175.02689,175.2164,64,80,0
174.44624,175.6035,69,80,0
175.22044,175.6035,66,80,0
175.22044,175.6035,62,80,0
175.60753,175.79706,74,92,0
175.60753,175.79706,69,92,0
175.60753,175.79706,66,92,0
175.80109,176.18414,73,80,0
175.80109,176.18414,69,80,0
175.80109,176.18414,64,80,0
176.18819,176.3777,76,80,0
176.18819,176.3777,69,80,0
176.18819,176.3777,67,80,0
176.38173,176.76479,74,80,0
176.38173,176.76479,69,80,0
176.38173,176.76479,66,80,0
176.76883,176.95834,66,80,0
176.76883,176.95834,62,80,0
177.34947,177.53899,67,80,0
177.34947,177.53899,64,80,0
176.76883,177.92609,69,80,0
177.54301,177.92609,66,81,0
177.54301,177.92609,62,81,0
177.93011,178.11963,74,96,0
177.93011,178.11963,69,96,0
177.93011,178.11963,66,96,0
178.12366,178.50673,73,85,0
178.12366,178.50673,69,85,0
178.12366,178.50673,64,85,0
178.51076,178.70027,76,88,0
178.51076,178.70027,69,88,0
178.51076,178.70027,67,88,0
178.7043,179.08737,74,89,0
178.7043,179.08737,69,89,0
178.7043,179.08737,66,89,0
179.0914,179.28091,78,104,0
179.0914,179.28091,74,104,0
179.0914,179.28091,69,104,0
179.28494,179.66801,76,94,0
179.28494,179.66801,73,94,0
179.28494,179.66801,69,94,0
179.67204,179.86156,79,97,0
179.67204,179.86156,76,97,0
179.67204,179.86156,69,97,0
179.86559,180.24866,78,98,0
179.86559,180.24866,74,98,0
179.86559,180.24866,69,98,0
180.25269,180.4422,86,110,0
180.25269,180.4422,81,110,0
180.25269,180.4422,78,110,0
180.44623,180.84207,85,102,0
180.44623,180.84207,81,102,0
180.44623,180.84207,76,102,0
180.84624,181.04207,88,105,0
180.84624,181.04207,81,105,0
180.84624,181.04207,79,105,0
181.04623,181.47034,86,107,0
181.04623,181.47034,81,107,0
181.04623,181.47034,78,107,0
181.47481,181.68463,87,109,0
181.47481,181.68463,81,109,0
181.47481,181.68463,78,109,0
181.68909,182.97034,88,110,0
181.68909,182.97034,83,110,0
181.68909,182.97034,79,110,0
182.97481,183.07748,85,110,0
183.02838,183.13106,86,110,0
183.08195,183.18463,85,110,0
183.13551,183.2382,86,110,0
183.18909,183.29176,85,110,0
183.24266,183.34534,86,110,0
183.29623,183.39891,85,110,0
183.34981,183.45248,86,110,0
183.40338,183.50606,85,110,0
183.45695,183.55963,86,110,0
183.51051,183.61319,85,110,0
183.56409,183.66676,86,110,0
183.61766,183.72034,85,110,0
183.67123,183.77391,86,110,0
183.72481,183.82748,85,110,0
183.77838,183.88106,86,110,0
183.83194,183.93463,85,110,0
183.88551,183.98819,86,110,0
183.93909,184.04176,85,110,0
183.99266,184.09534,86,110,0
184.04623,184.14891,85,110,0
184.09981,184.20248,86,110,0
182.97481,184.25606,79,110,0
184.15338,184.25606,83,110,0
184.20694,184.52063,85,110,0
184.26051,184.57063,74,110,0
184.36766,184.67064,78,110,0
184.5748,184.76022,86,110,0
184.47481,184.77063,81,110,0
184.6748,184.96465,74,110,0
184.77481,185.0584,86,110,0
184.8748,185.15215,73,110,0
184.96855,185.2459,85,110,0
185.0623,185.33965,71,110,0
185.15605,185.4334,83,110,0
185.2498,185.52715,69,110,0
185.34355,185.6209,81,110,0
185.4373,185.71465,71,110,0
185.53105,185.8084,83,110,0
185.6248,185.90215,69,110,0
185.71855,185.9959,81,110,0
185.8123,186.08965,67,110,0
185.90605,186.1834,79,110,0
185.9998,186.27715,66,110,0
186.09355,186.3709,78,110,0
186.1873,186.46465,67,110,0
186.28105,186.5584,79,110,0
186.3748,186.65215,69,110,0
186.46855,186.7459,81,110,0
186.5623,186.83965,74,110,0
186.65605,186.9334,78,110,0
186.84355,187.01933,86,110,0
186.7498,187.02715,81,110,0
186.9373,187.21465,74,110,0
187.03105,187.3084,86,110,0
187.1248,187.40215,73,110,0
187.21855,187.4959,85,110,0
187.3123,187.58965,71,110,0
187.40605,187.6834,83,110,0
187.4998,187.77715,69,110,0
187.59355,187.8709,81,110,0
187.6873,187.96465,71,110,0
187.78105,188.0584,83,110,0
187.8748,188.15215,69,110,0
187.96855,188.2459,81,110,0
188.0623,188.33965,67,110,0
188.15605,188.4334,79,110,0
188.2498,188.52715,66,110,0
188.34355,188.6209,78,110,0
188.4373,188.71465,67,110,0
188.53105,188.8084,79,110,0
188.6248,188.90215,69,110,0
188.71855,188.9959,81,110,0
188.8123,189.08965,74,110,0
188.90605,189.1834,78,110,0
189.09355,189.27519,86,110,0
188.9998,189.27715,81,110,0
189.1873,189.46465,74,110,0
189.28105,189.5584,86,110,0
189.3748,189.65215,72,110,0
189.46855,189.7459,84,110,0
189.5623,189.83965,71,110,0
189.65605,189.9334,83,110,0
189.7498,190.02715,69,110,0
189.84355,190.1209,81,110,0
189.9373,190.21465,67,110,0
190.03105,190.3084,79,110,0
190.1248,190.40215,66,110,0
190.21855,190.4959,78,110,0
190.3123,190.58965,64,110,0
190.40605,190.6834,76,110,0
190.4998,190.77715,62,110,0
190.59355,190.8709,74,110,0
190.6873,190.96465,60,110,0
190.8748,191.05644,59,110,0
190.78105,191.0584,72,110,0
190.96855,191.0584,71,110,0
191.0623,191.4334,72,110,0
191.0623,191.4334,60,110,0
192.1873,192.5584,73,110,0
192.1873,192.5584,61,110,0
194.6248,194.9959,74,70,0
194.6248,194.9959,71,70,0
195.1873,195.5584,72,70,0
195.1873,195.5584,71,70,0
195.7498,196.1209,72,70,0
195.7498,196.1209,69,70,0
196.3123,196.6834,71,70,0
196.3123,196.6834,67,70,0
196.8748,197.2459,79,70,0
196.8748,197.2459,83,70,0
197.4373,197.8084,79,70,0
197.4373,197.8084,81,70,0
197.9998,198.3709,78,70,0
197.9998,198.3709,81,70,0
198.5623,198.9334,79,70,0
199.1248,199.4959,74,70,0
199.1248,199.4959,71,70,0
199.6873,200.0584,72,70,0
199.6873,200.0584,71,70,0
200.2498,200.6209,72,70,0
200.2498,200.6209,69,70,0
200.8123,201.1834,71,70,0
200.8123,201.1834,67,70,0
201.3748,201.7459,71,70,0
201.3748,201.7459,65,70,0
201.3748,201.7459,62,70,0
201.9373,202.3084,69,73,0
201.9373,202.3084,65,73,0
201.9373,202.3084,62,73,0
202.4998,202.8709,68,76,0
202.4998,202.8709,65,76,0
202.4998,202.8709,62,76,0
203.0623,203.4334,68,79,0
203.0623,203.4334,62,79,0
203.4373,203.8084,69,80,0
203.4373,203.8084,61,80,0
203.8123,203.9959,69,81,0
203.8123,203.9959,61,81,0
203.9998,204.3709,66,82,0
203.9998,204.3709,62,82,0
204.3748,204.5584,71,84,0
204.3748,204.5584,63,84,0
204.5623,204.9334,67,85,0
204.5623,204.9334,64,85,0
204.9373,205.1209,73,86,0
204.9373,205.1209,65,86,0
205.1248,205.4959,69,87,0
205.1248,205.4959,66,87,0
205.4998,205.6834,74,89,0
205.4998,205.6834,66,89,0
205.6873,206.0584,71,90,0
205.6873,206.0584,67,90,0
206.0623,206.2459,76,91,0
206.0623,206.2459,68,91,0
206.2498,206.6209,73,92,0
206.2498,206.6209,69,92,0
206.6248,206.8084,70,94,0
206.6248,206.8084,78,94,0
206.8123,207.1834,74,95,0
206.8123,207.1834,71,95,0
207.1873,207.3709,79,97,0
207.1873,207.3709,71,97,0
207.3748,207.7459,76,97,0
207.3748,207.7459,72,97,0
207.7498,207.9334,81,99,0
207.7498,207.9334,73,99,0
207.9373,208.3084,74,100,0
207.9373,208.3084,78,100,0
208.3123,208.4959,79,102,0
208.3123,208.4959,71,102,0
208.4998,208.8709,76,103,0
208.4998,208.8709,72,103,0
208.8748,209.0584,81,104,0
208.8748,209.0584,73,104,0
209.0623,209.4334,74,105,0
209.0623,209.4334,78,105,0
209.4373,209.6209,79,107,0
209.4373,209.6209,71,107,0
209.6248,209.9959,76,108,0
209.6248,209.9959,72,108,0
209.9998,210.1834,81,109,0
209.9998,210.1834,73,109,0
210.1873,210.3709,78,110,0
210.1873,210.3709,74,110,0
210.3748,210.5584,79,110,0
210.3748,210.5584,71,110,0
210.5623,210.7459,76,110,0
210.5623,210.7459,73,110,0
210.7498,210.9334,78,110,0
210.7498,210.9334,69,110,0
210.9373,211.1209,74,110,0
210.9373,211.1209,71,110,0
211.1248,211.3084,76,110,0
211.1248,211.3084,67,110,0
211.3123,211.4959,73,110,0
211.3123,211.4959,69,110,0
211.4998,211.6834,74,110,0
211.4998,211.6834,66,110,0
211.6873,211.8709,71,110,0
211.6873,211.8709,67,110,0
211.8748,212.0584,73,110,0
211.8748,212.0584,64,110,0
212.0623,212.2459,69,110,0
212.0623,212.2459,66,110,0
212.2498,212.4334,62,110,0
212.2498,212.4334,71,110,0
212.4373,212.6209,67,110,0
212.4373,212.6209,64,110,0
212.6248,212.8084,69,110,0
212.6248,212.8084,61,110,0
212.8123,212.9959,66,110,0
212.8123,212.9959,62,110,0
212.9998,213.1834,67,110,0
212.9998,213.1834,59,110,0
213.1873,213.3709,64,110,0
213.1873,213.3709,61,110,0
213.3748,213.5584,66,110,0
213.3748,213.5584,57,110,0
213.5623,213.7459,62,110,0
213.5623,213.7459,59,110,0
213.7498,213.9334,64,110,0
213.7498,213.9334,55,110,0
213.9373,214.1209,61,110,0
213.9373,214.1209,57,110,0
214.1248,214.3084,62,110,0
214.1248,214.3084,54,110,0
214.3123,214.4959,59,110,0
214.3123,214.4959,55,110,0
214.4998,214.6834,52,110,0
214.4998,214.6834,61,110,0
214.96855,215.15215,45,120,0
215.0623,215.2459,49,120,0
215.15605,215.33965,52,120,0
215.2498,215.52715,55,120,0
215.53105,215.71465,57,120,0
215.6248,215.8084,61,120,0
215.71855,215.90215,64,120,0
215.8123,216.1834,67,120,0
217.21855,217.40215,57,80,0
217.3123,217.4959,61,80,0
217.40605,217.58965,64,80,0
217.4998,217.77715,67,80,0
217.78105,217.96465,69,80,0
217.8748,218.0584,73,80,0
217.96855,218.15215,76,80,0
218.0623,218.4334,79,80,0
219.50873,219.71855,69,79,0
219.61588,219.8257,73,79,0
219.72302,219.94073,76,78,0
219.83015,220.2869,79,78,0
220.89746,221.14226,69,74,0
221.02246,221.26726,73,74,0
221.14746,221.41621,76,73,0
221.27246,223.36621,79,73,0
223.53914,223.70233,79,80,0
223.62247,223.78566,78,80,0
223.7058,223.86899,77,80,0
223.78914,223.95233,78,81,0
223.87247,224.03566,79,81,0
223.9558,224.11899,78,82,0
224.03914,224.20233,86,82,0
224.12247,224.28566,78,82,0
224.2058,224.36899,81,83,0
224.28914,224.45233,79,83,0
224.37247,224.53566,78,84,0
224.4558,224.61899,79,84,0
224.53914,224.70233,86,84,0
224.62247,224.78566,79,85,0
224.7058,224.86899,81,85,0
224.78914,224.95233,79,86,0
224.87247,225.03566,78,86,0
224.9558,225.11899,79,86,0
225.03914,225.20233,88,87,0
225.12247,225.28566,79,87,0
225.2058,225.28566,79,88,0
225.28914,225.45233,78,88,0
225.37247,225.53566,77,88,0
225.4558,225.61899,78,89,0
225.53914,225.70233,86,89,0
225.62247,225.78566,78,90,0
225.7058,225.86899,76,90,0
225.78914,225.95233,74,90,0
225.87247,226.03566,73,91,0
225.9558,226.11899,74,91,0
226.03912,226.20233,86,92,0
226.12247,226.28566,74,92,0
226.2058,226.36899,73,92,0
226.28912,226.45233,71,93,0
226.37247,226.53566,70,93,0
226.4558,226.61899,71,94,0
226.53912,226.70233,83,94,0
226.62247,226.78566,71,94,0
226.7058,226.86899,69,95,0
226.78912,226.95233,67,95,0
226.87247,227.03566,66,96,0
226.9558,227.11899,67,96,0
227.03912,227.20233,79,97,0
227.12247,227.28566,67,97,0
227.2058,227.36899,66,97,0
227.28912,227.45233,69,98,0
227.37247,227.53566,74,98,0
227.4558,227.61899,78,99,0
227.53912,227.70232,81,99,0
227.62247,227.78566,79,99,0
227.7058,227.78566,79,100,0
227.78912,227.95232,78,100,0
227.87247,228.03566,77,101,0
227.9558,228.11899,78,101,0
228.03912,228.20232,86,101,0
228.12247,228.28566,78,102,0
228.2058,228.36899,81,102,0
228.28912,228.45232,79,103,0
228.37247,228.53566,78,103,0
228.4558,228.61899,79,103,0
228.53912,228.70232,86,104,0
228.62247,228.78566,79,104,0
228.7058,228.86899,81,105,0
228.78912,228.95232,79,105,0
228.87247,229.03566,78,105,0
228.9558,229.11899,79,106,0
229.03912,229.20232,88,106,0
229.12247,229.28566,79,107,0
229.2058,229.28566,79,107,0
229.28912,229.45232,78,107,0
229.37247,229.53566,77,108,0
229.4558,229.61899,78,108,0
229.53912,229.70232,86,109,0
229.62247,229.78566,78,109,0
229.7058,229.86899,76,110,0
229.78912,229.95232,74,110,0
229.87247,230.03566,73,110,0
229.9558,230.11899,74,110,0
230.03912,230.20232,86,110,0
230.12247,230.28566,74,110,0
230.2058,230.36899,73,110,0
230.28912,230.45232,71,110,0
230.37247,230.53566,70,110,0
230.4558,230.61899,71,110,0
230.53912,230.70232,83,110,0
230.62247,230.78566,71,110,0
230.7058,230.86899,69,110,0
230.78912,230.95232,67,110,0
230.87247,231.03566,66,110,0
230.9558,231.11899,67,110,0
231.03912,231.20232,79,110,0
231.12245,231.28566,67,110,0
231.2058,231.36899,66,110,0
231.28912,231.45232,69,110,0
231.37245,231.53566,74,110,0
231.4558,231.61899,78,110,0
231.53912,231.70232,81,110,0
231.62245,231.78566,79,110,0
231.7058,231.86899,76,110,0
231.78912,231.95232,74,110,0
231.87245,232.03566,73,110,0
231.9558,232.11899,74,110,0
232.03912,232.20232,86,110,0
232.12245,232.28566,74,110,0
232.2058,232.36899,73,110,0
232.28912,232.45232,71,110,0
232.37245,232.53566,70,110,0
232.4558,232.61899,71,110,0
232.53912,232.70232,83,110,0
232.62245,232.78564,71,110,0
232.7058,232.86899,69,110,0
232.78912,232.95232,67,110,0
232.87245,233.03564,66,110,0
232.9558,233.11899,67,110,0
233.03912,233.20232,79,110,0
233.12245,233.28564,67,110,0
233.2058,233.36899,66,110,0
233.28912,233.45232,69,110,0
233.37245,233.53564,74,110,0
233.4558,233.61899,78,110,0
233.53912,233.70232,81,110,0
233.62245,233.78564,79,110,0
233.7058,233.86899,76,110,0
233.78912,233.95232,74,110,0
233.87245,234.03564,73,110,0
233.9558,234.11899,74,110,0
234.03912,234.20232,86,110,0
234.12245,234.28564,74,110,0
234.2058,234.36899,73,110,0
234.28912,234.45232,71,110,0
234.37245,234.53564,70,110,0
234.4558,234.61899,71,110,0
234.53912,234.70232,83,110,0
234.62245,234.78564,71,110,0
234.7058,234.86899,69,110,0
234.78912,234.95232,67,110,0
234.87245,235.03564,66,110,0
234.9558,235.11899,67,110,0
235.03912,235.20232,79,110,0
235.12245,235.28564,67,110,0
235.2058,235.36899,66,110,0
235.28912,235.45232,69,110,0
235.37245,235.53564,74,110,0
235.4558,235.61899,78,110,0
235.53912,235.70232,81,110,0
235.62245,235.78564,66,110,0
235.7058,235.86899,69,110,0
235.78912,235.95232,67,110,0
235.87245,236.03564,66,110,0
235.9558,236.11899,67,110,0
236.03912,236.20232,79,110,0
236.12245,236.28564,67,110,0
236.20578,236.36899,66,110,0
236.28912,236.45232,69,110,0
236.37245,236.53564,74,110,0
236.45578,236.61899,78,110,0
236.53912,236.70232,81,110,0
236.62245,236.78564,66,110,0
236.70578,236.86899,69,110,0
236.78912,236.95232,67,110,0
236.87245,237.03564,73,111,0
236.95578,237.11899,67,112,0
237.03912,237.20232,76,113,0
237.12245,237.28564,73,114,0
237.20578,237.36899,79,114,0
237.28912,237.45232,76,115,0
237.37245,237.53564,85,116,0
237.45578,237.61899,79,117,0
237.53912,237.70232,88,118,0
237.62245,237.79034,85,119,0
237.70578,237.87859,86,120,0
237.79402,237.96681,81,120,0
237.88226,238.05505,78,120,0
237.97049,238.14328,86,120,0
238.05873,238.23152,81,120,0
238.14696,238.32794,78,120,0
238.2352,238.42471,74,120,0
238.33197,238.52148,81,120,0
238.42874,238.61826,78,120,0
238.52551,238.71504,74,120,0
238.6223,238.81181,69,120,0
238.71907,238.9133,78,120,0
238.81584,239.015,74,120,0
238.91754,239.11668,69,120,0
239.01923,239.21838,66,120,0
239.12093,239.32008,74,120,0
239.22263,239.42177,69,120,0
239.32431,239.52869,66,120,0
239.42601,239.63583,62,120,0
239.53316,239.74298,69,120,0
239.64029,239.85011,66,120,0
239.74744,239.95726,62,120,0
239.85458,240.0644,57,120,0
239.96173,240.17154,54,120,0
240.06886,240.49297,50,120,0
240.71172,241.27719,79,120,0
240.71172,241.27719,73,120,0
240.71172,241.27719,67,120,0
241.56886,242.70576,78,120,0
241.56886,242.70576,74,120,0
241.56886,242.70576,66,120,0
243.85458,244.13434,66,100,0
0.0,0.18359375,45,80,0
0.1875,0.55859375,38,80,0
0.5625,0.74609375,45,80,0
0.75,1.1210938,38,80,0
1.125,1.3085938,47,80,0
1.3125,1.6835938,38,80,0
1.6875,1.8710938,49,80,0
1.875,2.2460938,38,80,0
2.25,2.4335938,50,80,0
2.4375,2.8085938,38,80,0
2.8125,2.9960938,42,80,0
3.0,3.3710938,38,80,0
3.375,3.5585938,43,80,0
3.5625,3.9335938,38,80,0
3.9375,4.1210938,45,80,0
4.125,4.4960938,38,80,0
4.5,4.6835938,45,80,0
4.6875,5.0585938,38,80,0
5.0625,5.2460938,45,80,0
5.25,5.6210938,38,80,0
5.625,5.8085938,47,80,0
5.8125,6.1835938,38,80,0
6.1875,6.3710938,49,80,0
6.375,6.7460938,38,80,0
6.75,6.9335938,50,80,0
6.9375,7.3085938,38,80,0
7.3125,7.4960938,42,80,0
7.5,7.8710938,38,80,0
7.875,8.058594,43,80,0
8.0625,8.433594,38,80,0
8.4375,8.621094,45,80,0
8.625,8.996094,38,80,0
9.0,9.183594,50,80,0
9.1875,9.558594,38,80,0
9.5625,9.746094,52,80,0
9.75,10.121094,38,80,0
10.125,10.308594,45,80,0
10.3125,10.683594,38,80,0
10.6875,10.871094,50,80,0
10.875,11.246094,38,80,0
11.25,11.433594,45,80,0
11.4375,11.808594,38,80,0
11.8125,11.996094,52,80,0
12.0,12.371094,38,80,0
12.375,12.558594,45,80,0
12.5625,12.933594,38,80,0
12.9375,13.121094,50,80,0
13.125,13.496094,38,80,0
13.5,13.683594,45,80,0
13.6875,14.058594,38,80,0
14.0625,14.246094,52,80,0
14.25,14.621094,38,80,0
14.625,14.808594,45,80,0
14.8125,15.183594,38,80,0
15.1875,15.371094,50,80,0
15.375,15.746094,38,80,0
15.75,15.933594,45,80,0
15.9375,16.308594,38,80,0
16.3125,16.496094,52,80,0
16.5,16.889381,38,80,0
16.893547,17.089382,45,80,0
17.093548,17.489382,38,80,0
17.493547,17.68938,50,80,0
17.693548,18.089382,45,80,0
18.093548,18.289381,42,80,0
18.293549,18.383392,38,80,0
18.387299,18.477142,42,80,0
18.481049,18.570892,45,80,0
18.574799,18.664642,50,80,0
18.856049,18.945892,49,80,0
18.949799,19.039642,52,80,0
19.043549,19.133392,57,80,0
19.137299,19.227142,61,80,0
19.418549,19.508392,47,80,0
19.512299,19.602142,50,80,0
19.606049,19.695892,54,80,0
19.699799,19.789642,59,80,0
19.981049,20.070892,57,80,0
20.074799,20.164642,61,80,0
20.168549,20.258392,66,80,0
20.262299,20.352142,69,80,0
20.543549,20.633392,43,80,0
20.637299,20.727142,47,80,0
20.731049,20.820892,50,80,0
20.824799,20.914642,55,80,0
21.106049,21.195892,54,80,0
21.199799,21.289642,57,80,0
21.293549,21.383392,62,80,0
21.387299,21.477142,66,80,0
21.668549,21.852142,64,80,0
21.668549,21.852142,52,80,0
21.856049,22.039642,64,80,0
21.856049,22.039642,52,80,0
22.043549,22.227142,62,80,0
22.043549,22.227142,50,80,0
22.231049,22.602142,57,80,0
22.231049,22.602142,45,80,0
22.793549,22.883392,38,80,0
22.887299,22.977142,42,80,0
22.981049,23.070892,45,81,0
23.074799,23.164642,50,81,0
23.356049,23.445892,49,83,0
23.449799,23.539642,52,83,0
23.543549,23.633392,57,84,0
23.637299,23.727142,61,84,0
23.918549,24.008392,47,86,0
24.012299,24.102142,50,86,0
24.106049,24.195892,54,87,0
24.199799,24.289642,59,87,0
24.481049,24.570892,57,89,0
24.574799,24.664642,61,89,0
24.668549,24.758392,66,90,0
24.762299,24.852142,69,90,0
25.043549,25.133392,44,92,0
25.137299,25.227142,47,92,0
25.231049,25.320892,50,93,0
25.324799,25.414642,56,93,0
25.606049,25.695892,54,95,0
25.699799,25.789642,57,96,0
25.793549,25.883392,63,96,0
25.887299,25.977142,66,97,0
26.168549,26.258392,40,98,0
26.262299,26.352142,44,99,0
26.356049,26.445892,47,99,0
26.449799,26.539642,52,100,0
26.731049,26.820892,57,101,0
26.824799,26.914642,61,102,0
26.918549,27.008392,64,102,0
27.012299,27.102142,69,103,0
27.293549,27.383392,44,104,0
27.387299,27.477142,47,105,0
27.481049,27.570892,50,105,0
27.574799,27.664642,56,106,0
27.856049,27.945892,54,107,0
27.949799,28.039642,57,108,0
28.043549,28.133392,63,108,0
28.137299,28.227142,66,109,0
28.418549,28.51129,40,110,0
28.515322,28.608065,44,110,0
28.612097,28.704838,47,110,0
28.70887,28.80161,52,110,0
28.999191,29.091934,40,110,0
29.095966,29.188707,44,110,0
29.19274,29.285482,47,110,0
29.289515,29.382256,52,110,0
29.579836,29.675669,40,110,0
29.679836,29.77567,44,110,0
29.779837,29.87567,47,110,0
29.879835,29.97567,52,110,0
30.179836,30.278975,40,110,0
30.283285,30.382421,44,110,0
30.386732,30.48941,47,110,0
30.493876,30.596554,52,110,0
30.841019,32.03602,40,120,0
34.481018,34.676853,61,80,0
34.68102,35.07685,57,80,0
35.081017,35.27685,64,80,0
35.281017,35.676853,61,80,0
35.68102,35.87685,57,80,0
35.88102,36.27685,64,80,0
36.281017,36.476852,52,80,0
36.481018,36.87685,57,80,0
39.18102,39.27685,61,80,0
39.281017,39.37685,60,80,0
39.38102,39.476852,61,80,0
39.481018,39.676853,57,80,0
39.781017,39.87685,64,80,0
39.88102,39.976852,63,80,0
39.981018,40.07685,64,80,0
40.081017,40.27685,61,80,0
40.481018,40.676853,57,80,0
40.68102,41.07685,64,80,0
41.081017,41.27685,52,80,0
41.281017,41.676853,57,80,0
41.68102,41.87685,49,80,0
41.88102,42.27685,52,80,0
42.281017,42.476852,40,80,0
42.481018,42.87685,45,80,0
42.88102,43.07685,61,80,0
43.081017,43.476852,64,80,0
43.481018,43.676853,52,80,0
43.68102,44.07685,57,80,0
44.081017,44.27685,49,80,0
44.281017,44.676853,52,80,0
44.68102,44.87685,40,85,0
44.88102,45.27685,45,88,0
45.281017,45.476852,49,94,0
45.481018,45.87685,52,96,0
45.88102,46.07685,40,102,0
46.081017,46.476852,45,105,0
46.481018,46.676853,42,110,0
46.481018,46.676853,54,110,0
46.68102,47.87685,50,110,0
46.68102,47.87685,38,110,0
47.88102,49.07685,52,110,0
47.88102,49.07685,40,110,0
49.081017,49.65211,33,110,0
49.656017,49.83961,44,110,0
49.843517,50.02711,42,110,0
50.031017,50.21461,40,110,0
50.218517,50.40211,42,110,0
50.406017,50.58961,40,110,0
50.593517,50.77711,38,110,0
50.781017,50.96461,37,110,0
50.968517,51.15211,38,110,0
49.081017,51.33961,45,110,0
51.156017,51.33961,40,110,0
51.343517,51.90211,33,110,0
51.906017,52.08961,44,110,0
52.093517,52.27711,42,110,0
52.281017,52.46461,40,110,0
52.468517,52.65211,42,110,0
52.656017,52.83961,40,110,0
52.843517,53.02711,38,110,0
53.031017,53.21461,37,110,0
53.218517,53.40211,38,110,0
51.343517,53.58961,45,110,0
53.406017,53.58961,40,110,0
53.593517,54.15211,33,110,0
54.156017,54.33961,43,110,0
54.343517,54.52711,42,110,0
54.531017,54.71461,40,110,0
54.718517,54.90211,38,110,0
54.906017,55.08961,37,110,0
55.093517,55.27711,35,110,0
55.281017,55.46461,33,110,0
55.468517,55.65211,43,110,0
55.468517,55.65211,31,110,0
53.593517,55.83961,45,110,0
55.656017,55.83961,42,110,0
55.656017,55.83961,30,110,0
55.843517,56.21461,31,110,0
55.843517,56.21461,43,110,0
56.968517,57.33961,44,110,0
56.968517,57.33961,32,110,0
59.031017,59.21461,45,80,0
59.218517,59.58961,38,80,0
59.593517,59.77711,45,80,0
59.781017,60.15211,38,80,0
60.156017,60.33961,47,80,0
60.343517,60.71461,38,80,0
60.718517,60.90211,49,80,0
60.906017,61.27711,38,80,0
61.281017,61.46461,50,80,0
61.468517,61.83961,38,80,0
61.843517,62.02711,42,80,0
62.031017,62.40211,38,80,0
62.406017,62.58961,43,80,0
62.593517,62.96461,38,80,0
62.968517,63.15211,45,80,0
63.156017,63.52711,38,80,0
63.531017,63.71461,45,80,0
63.718517,64.089615,38,80,0
64.09352,64.277115,45,80,0
64.28102,64.652115,38,80,0
64.65602,64.839615,47,80,0
64.84352,65.214615,38,80,0
65.21852,65.402115,49,80,0
65.40602,65.777115,38,80,0
65.78102,65.964615,50,80,0
65.96852,66.339615,38,80,0
66.34352,66.527115,42,80,0
66.53102,66.902115,38,80,0
66.90602,67.089615,43,80,0
67.09352,67.464615,38,80,0
67.46852,67.652115,45,80,0
67.65602,68.027115,38,80,0
68.03102,68.214615,50,80,0
68.21852,68.589615,38,80,0
68.59352,68.777115,52,80,0
68.78102,69.152115,38,80,0
69.15602,69.339615,45,80,0
69.34352,69.714615,38,80,0
69.71852,69.902115,50,80,0
69.90602,70.277115,38,80,0
70.28102,70.464615,45,80,0
70.46852,70.839615,38,80,0
70.84352,71.027115,52,80,0
71.03102,71.402115,38,80,0
71.40602,71.589615,45,80,0
71.59352,71.964615,38,80,0
71.96852,72.152115,50,80,0
72.15602,72.527115,38,80,0
72.53102,72.714615,49,80,0
72.71852,73.089615,38,80,0
73.09352,73.277115,52,80,0
73.28102,73.652115,38,80,0
73.65602,73.839615,45,80,0
73.84352,74.214615,38,80,0
74.21852,74.402115,50,80,0
74.40602,74.777115,38,80,0
74.78102,74.964615,45,80,0
74.96852,75.339615,38,80,0
75.34352,75.527115,52,80,0
75.53102,75.902115,38,80,0
75.90602,76.089615,45,80,0
76.09352,76.464615,38,80,0
77.21852,77.402115,38,80,0
77.40602,77.589615,54,80,0
77.78102,77.964615,40,80,0
77.96852,78.152115,55,80,0
78.34352,78.527115,42,80,0
78.53102,78.714615,57,80,0
78.90602,79.089615,45,80,0
79.09352,79.277115,59,80,0
79.46852,79.652115,48,80,0
79.65602,79.839615,60,80,0
80.03102,80.214615,49,80,0
80.21852,80.402115,58,80,0
80.59352,80.777115,50,80,0
80.78102,80.964615,57,80,0
81.71852,81.902115,50,80,0
81.90602,82.089615,66,80,0
82.28102,82.464615,52,80,0
82.46852,82.652115,67,80,0
82.84352,83.027115,54,80,0
83.03102,83.214615,69,80,0
83.40602,83.589615,55,80,0
83.59352,83.777115,71,80,0
83.96852,84.152115,48,80,0
84.15602,84.339615,72,80,0
84.53102,84.714615,50,80,0
84.71852,84.902115,69,80,0
85.09352,85.277115,55,80,0
85.28102,85.464615,67,84,0
85.65602,85.839615,57,92,0
85.84352,86.027115,71,96,0
86.21852,86.402115,48,100,0
86.40602,86.589615,72,97,0
86.78102,86.964615,50,89,0
86.96852,87.152115,66,85,0
87.34352,87.527115,55,80,0
87.53102,87.714615,67,84,0
87.90602,88.089615,57,92,0
88.09352,88.277115,71,96,0
88.46852,88.652115,48,100,0
88.65602,88.839615,72,97,0
89.03102,89.214615,50,89,0
89.21852,89.402115,66,85,0
89.59352,89.777115,67,70,0
89.78102,89.964615,69,70,0
89.96852,90.152115,71,70,0
90.15602,90.902115,72,70,0
90.90602,91.089615,71,70,0
91.09352,91.277115,73,70,0
91.28102,92.027115,74,70,0
92.03102,92.214615,73,70,0
92.21852,92.402115,75,70,0
92.40602,92.777115,76,70,0
92.78102,92.964615,74,70,0
92.96852,93.339615,72,70,0
93.34352,93.527115,71,70,0
93.53102,93.902115,72,70,0
93.90602,94.089615,73,70,0
94.09352,94.277115,62,70,0
94.28102,94.464615,64,70,0
94.46852,94.652115,66,70,0
94.65602,95.402115,67,70,0
95.40602,95.589615,66,70,0
95.59352,95.777115,68,70,0
95.78102,96.527115,69,70,0
96.53102,96.714615,68,70,0
96.71852,96.902115,70,70,0
96.90602,97.277115,71,70,0
97.28102,97.464615,69,70,0
97.46852,97.652115,68,70,0
97.65602,97.839615,69,70,0
97.84352,98.027115,67,70,0
98.03102,98.214615,66,70,0
98.21852,98.402115,62,70,0
98.40602,98.589615,72,70,0
98.59352,99.339615,55,70,0
99.34352,99.527115,54,70,0
99.53102,99.714615,56,70,0
99.71852,100.464615,57,70,0
100.46852,100.652115,56,70,0
100.65602,100.839615,58,70,0
100.84352,101.589615,59,70,0
101.59352,101.777115,57,70,0
101.78102,101.964615,59,70,0
101.96852,102.152115,60,70,0
102.15602,102.339615,59,70,0
102.34352,102.527115,60,70,0
102.53102,102.714615,62,70,0
102.71852,102.902115,64,70,0
102.90602,103.089615,66,70,0
103.09352,103.277115,58,70,0
103.28102,103.464615,60,72,0
103.28102,103.464615,57,72,0
103.46852,103.652115,62,74,0
103.46852,103.652115,58,74,0
103.65602,104.402115,60,76,0
103.65602,104.402115,63,76,0
104.40602,104.589615,62,84,0
104.40602,104.589615,59,84,0
104.59352,104.777115,63,86,0
104.59352,104.777115,60,86,0
103.09352,105.339615,55,70,0
104.78102,105.527115,62,89,0
104.78102,105.527115,65,89,0
105.53102,105.714615,60,97,0
105.53102,105.714615,63,97,0
105.71852,105.902115,62,99,0
105.71852,105.902115,65,99,0
105.90602,106.277115,63,101,0
105.90602,106.277115,67,101,0
106.28102,106.464615,62,106,0
106.28102,106.464615,65,106,0
106.46852,106.839615,61,108,0
106.46852,106.839615,64,108,0
106.84352,107.027115,65,112,0
106.84352,107.027115,62,112,0
106.46852,107.402115,57,108,0
107.03102,107.402115,61,114,0
107.03102,107.402115,64,114,0
107.40602,107.589615,45,118,0
107.40602,107.589615,33,118,0
107.59352,108.339615,50,120,0
107.59352,108.339615,38,120,0
108.34352,108.527115,49,120,0
108.34352,108.527115,37,120,0
108.53102,108.714615,50,120,0
108.53102,108.714615,38,120,0
108.71852,109.464615,52,120,0
108.71852,109.464615,40,120,0
109.46852,109.652115,51,120,0
109.46852,109.652115,39,120,0
109.65602,109.839615,52,120,0
109.65602,109.839615,40,120,0
109.84352,110.589615,53,120,0
109.84352,110.589615,41,120,0
110.59352,110.777115,52,120,0
110.59352,110.777115,40,120,0
110.78102,110.964615,53,120,0
110.78102,110.964615,41,120,0
110.96852,111.714615,55,120,0
110.96852,111.714615,43,120,0
111.71852,111.902115,54,120,0
111.71852,111.902115,42,120,0
111.90602,112.089615,55,120,0
111.90602,112.089615,43,120,0
112.09352,112.839615,57,120,0
112.09352,112.839615,45,120,0
112.84352,113.027115,56,120,0
112.84352,113.027115,44,120,0
113.03102,113.214615,57,120,0
113.03102,113.214615,45,120,0
113.21852,113.402115,58,120,0
113.21852,113.402115,46,120,0
113.40602,113.589615,57,120,0
113.40602,113.589615,45,120,0
113.59352,113.777115,58,120,0
113.59352,113.777115,46,120,0
113.78102,113.964615,59,120,0
113.78102,113.964615,47,120,0
113.96852,114.152115,58,120,0
113.96852,114.152115,46,120,0
114.15602,114.339615,59,120,0
114.15602,114.339615,47,120,0
114.90602,115.089615,47,120,0
115.09352,115.277115,49,120,0
115.28102,115.464615,50,120,0
115.46852,115.652115,52,120,0
115.65602,115.839615,50,120,0
115.84352,116.027115,49,120,0
116.03102,116.214615,53,120,0
116.21852,116.402115,52,120,0
114.34352,116.589615,45,120,0
114.34352,116.589615,57,120,0
116.40602,116.589615,50,120,0
117.15602,117.339615,47,120,0
117.34352,117.527115,49,120,0
117.53102,117.714615,50,120,0
117.71852,117.902115,52,120,0
117.90602,118.089615,50,120,0
118.09352,118.277115,49,120,0
118.28102,118.464615,53,120,0
118.46852,118.652115,52,120,0
116.59352,118.839615,45,120,0
116.59352,118.839615,57,120,0
118.65602,118.839615,50,120,0
119.40602,119.589615,35,120,0
119.59352,119.777115,37,120,0
119.78102,119.964615,38,120,0
119.96852,120.152115,40,120,0
120.15602,120.339615,38,120,0
120.34352,120.527115,37,120,0
120.53102,120.714615,41,120,0
120.71852,120.902115,40,120,0
118.84352,121.089615,33,120,0
118.84352,121.089615,45,120,0
120.90602,121.089615,38,120,0
121.09352,121.277115,40,120,0
121.28102,121.464615,38,120,0
121.46852,121.652115,37,120,0
121.65602,121.839615,41,120,0
121.84352,122.027115,40,120,0
121.09352,122.214615,45,120,0
121.09352,122.214615,33,120,0
122.03102,122.214615,38,120,0
122.21852,122.402115,40,120,0
122.40602,122.589615,38,120,0
122.59352,122.777115,37,120,0
122.78102,122.964615,41,120,0
122.96852,123.152115,40,120,0
122.21852,123.339615,45,120,0
122.21852,123.339615,33,120,0
123.15602,123.339615,38,120,0
123.34352,126.714615,33,120,0
123.34352,126.714615,45,120,0
126.71852,126.81126,45,120,0
126.81529,126.908035,52,120,0
126.91206,127.00481,50,120,0
127.00884,127.101585,49,120,0
127.10561,127.19836,47,120,0
127.202385,127.29513,45,120,0
127.299164,127.395,44,120,0
127.39916,127.494995,42,120,0
127.49916,127.5983,40,120,0
127.60261,127.70175,38,120,0
127.706055,127.81254,37,120,0
127.81717,127.92365,35,120,0
127.92828,130.36809,33,120,0
130.37273,130.59032,45,80,0
130.59494,130.96603,38,80,0
130.96994,131.15353,45,80,0
131.15744,131.52853,38,80,0
131.53244,131.71603,47,80,0
131.71994,132.09103,38,80,0
132.09494,132.27853,49,80,0
132.28244,132.65353,38,80,0
132.65744,132.84103,50,80,0
132.84494,133.21603,38,80,0
133.21994,133.40353,42,80,0
133.40744,133.77853,38,80,0
133.78244,133.96603,43,80,0
133.96994,134.34103,38,80,0
134.34494,134.52853,45,80,0
134.53244,134.90353,38,80,0
134.90744,135.09103,45,80,0
135.09494,135.46603,38,80,0
135.46994,135.65353,45,80,0
135.65744,136.02853,38,80,0
136.03244,136.21603,47,80,0
136.21994,136.59103,38,80,0
136.59494,136.77853,49,80,0
136.78244,137.15353,38,80,0
137.15744,137.34103,50,80,0
137.34494,137.71603,38,80,0
137.71994,137.90353,42,80,0
137.90744,138.27853,38,80,0
138.28244,138.46603,43,80,0
138.46994,138.84103,38,80,0
138.84494,139.02853,45,80,0
139.03244,139.40353,38,80,0
139.40744,139.59103,50,80,0
139.59494,139.96603,38,80,0
139.96994,140.15353,52,80,0
140.15744,140.52853,38,80,0
140.53244,140.71603,45,80,0
140.71994,141.09103,38,80,0
141.09494,141.27853,50,80,0
141.28244,141.65353,38,80,0
141.65744,141.84103,45,80,0
141.84494,142.21603,38,80,0
142.21994,142.40353,52,80,0
142.40744,142.77853,38,80,0
142.78244,142.96603,45,80,0
142.96994,143.34103,38,80,0
143.34494,143.52853,50,80,0
143.53244,143.90353,38,80,0
143.90744,144.09103,45,80,0
144.09494,144.46603,38,80,0
144.46994,144.65353,52,80,0
144.65744,145.02853,38,80,0
145.03244,145.21603,45,80,0
145.21994,145.59103,38,80,0
145.59494,145.77853,50,80,0
145.78244,146.15353,38,80,0
146.15744,146.34103,45,80,0
146.34494,146.71603,38,80,0
146.71994,146.90353,52,80,0
146.90744,147.27853,38,80,0
147.28244,147.46603,45,80,0
147.46994,147.84103,38,80,0
147.84494,148.02853,50,80,0
148.03244,148.40353,45,80,0
148.40744,148.59103,42,80,0
148.59494,148.68478,38,80,0
148.68869,148.77853,42,80,0
148.78244,148.87228,45,80,0
148.87619,148.96603,50,80,0
149.15744,149.24728,49,80,0
149.25119,149.34103,52,80,0
149.34494,149.43478,57,80,0
149.43869,149.52853,61,80,0
149.71994,149.80978,47,80,0
149.81369,149.90353,50,80,0
149.90744,149.99728,54,80,0
150.00119,150.09103,59,80,0
150.28244,150.37228,57,80,0
150.37619,150.46603,61,80,0
150.46994,150.55978,66,80,0
150.56369,150.65353,69,80,0
150.84494,150.93478,43,80,0
150.93869,151.02853,47,80,0
151.03244,151.12228,50,80,0
151.12619,151.21603,55,80,0
151.40744,151.49728,54,80,0
151.50119,151.59103,57,80,0
151.59494,151.68478,62,80,0
151.68869,151.77853,66,80,0
151.96994,152.15353,64,80,0
151.96994,152.15353,52,80,0
152.15744,152.34103,64,80,0
152.15744,152.34103,52,80,0
152.34494,152.52853,62,80,0
152.34494,152.52853,50,80,0
152.53244,152.90353,57,80,0
152.53244,152.90353,45,80,0
153.09494,153.18478,38,80,0
153.18869,153.27853,42,80,0
153.28244,153.37228,45,80,0
153.37619,153.46603,50,80,0
153.65744,153.74728,49,80,0
153.75119,153.84103,52,80,0
153.84494,153.93478,58,80,0
153.93869,154.02853,61,80,0
154.21994,154.30978,47,83,0
154.31369,154.40353,50,83,0
154.40744,154.49728,54,84,0
154.50119,154.59103,59,85,0
154.78244,154.87228,57,87,0
154.87619,154.96603,60,88,0
154.96994,155.05978,66,89,0
155.06369,155.15353,69,89,0
155.34494,155.43478,43,92,0
155.43869,155.52853,47,92,0
155.53244,155.62228,50,93,0
155.62619,155.71603,55,94,0
155.90744,155.99728,54,96,0
156.00119,156.09103,57,97,0
156.09494,156.18478,63,98,0
156.18869,156.27853,66,98,0
156.46994,156.55978,43,101,0
156.56369,156.65353,47,101,0
156.65744,156.74728,52,102,0
156.75119,156.84103,55,103,0
157.03244,157.12228,56,105,0
157.12619,157.21603,59,106,0
157.21994,157.30978,64,107,0
157.31369,157.40353,68,107,0
157.59494,157.68478,45,110,0
157.68869,157.77853,49,110,0
157.78244,157.87228,52,110,0
157.87619,157.96603,57,110,0
158.15744,158.24728,57,110,0
158.25119,158.34103,61,110,0
158.34494,158.43478,64,110,0
158.43869,158.52853,69,110,0
158.71994,158.80978,45,110,0
158.81369,158.90353,50,110,0
158.90744,158.99728,54,110,0
159.00119,159.09103,57,110,0
159.28244,159.37228,57,110,0
159.37619,159.46603,62,110,0
159.46994,159.55978,65,110,0
159.56369,159.65353,69,110,0
159.84494,159.93478,33,110,0
159.93869,160.02853,37,110,0
160.03244,160.12228,40,110,0
160.12619,160.21603,45,110,0
160.40744,160.49728,45,110,0
160.50119,160.59103,49,110,0
160.59494,160.68478,52,110,0
160.68869,160.77853,57,110,0
160.96994,161.05978,33,110,0
161.06369,161.15353,38,110,0
161.15744,161.24728,42,110,0
161.25119,161.34103,45,110,0
161.53244,161.62228,45,110,0
161.62619,161.71603,50,110,0
161.71994,161.80978,53,110,0
161.81369,161.90353,57,110,0
162.09494,162.18768,33,110,0
162.19171,162.28445,38,110,0
162.2885,162.38124,42,110,0
162.38527,162.47801,45,110,0
162.67558,162.76833,33,110,0
162.77237,162.8651,38,110,0
162.86914,162.96188,42,110,0
162.96591,163.05865,45,110,0
163.25623,163.35207,33,110,0
163.35623,163.45207,38,110,0
163.45624,163.55206,42,110,0
163.55623,163.65207,45,110,0
163.85623,163.95891,33,110,0
163.96338,164.06606,38,110,0
164.07051,164.1732,42,110,0
164.17766,164.28033,45,110,0
164.5348,165.7796,33,120,0
168.2348,168.43063,54,80,0
168.4348,168.83064,50,80,0
168.83481,169.03064,57,80,0
169.0348,169.46077,54,80,0
169.46558,169.69153,50,80,0
169.69633,170.15308,57,80,0
170.15788,170.38383,45,80,0
170.38864,170.89847,50,80,0
173.18819,173.28093,54,80,0
173.28496,173.3777,53,80,0
173.38173,173.47447,54,80,0
173.4785,173.66803,50,80,0
173.76883,173.86157,57,80,0
173.8656,173.95834,56,80,0
173.96237,174.05511,57,80,0
174.05916,174.24867,54,80,0
174.44624,174.63576,50,80,0
174.6398,175.02286,57,80,0
175.02689,175.2164,45,80,0
175.22044,175.6035,50,80,0
175.60753,175.79706,42,80,0
175.80109,176.18414,43,80,0
176.18819,176.3777,33,80,0
176.38173,176.76479,38,80,0
176.76883,176.95834,54,80,0
176.96237,177.34543,57,80,0
177.34947,177.53899,45,80,0
177.54301,177.92609,50,81,0
177.93011,178.11963,42,84,0
178.12366,178.50673,43,85,0
178.51076,178.70027,33,88,0
178.7043,179.08737,38,89,0
179.0914,179.28091,38,92,0
179.28494,179.66801,45,94,0
179.67204,179.86156,33,97,0
179.86559,180.24866,38,98,0
180.25269,180.4422,38,101,0
180.44623,180.84207,45,102,0
180.84624,181.04207,33,105,0
181.04623,181.47034,38,107,0
181.47481,181.68463,35,109,0
181.47481,181.68463,47,109,0
181.68909,182.97034,43,110,0
181.68909,182.97034,31,110,0
182.97481,184.25606,45,110,0
182.97481,184.25606,33,110,0
184.26051,184.87064,38,110,0
184.8748,185.0584,49,110,0
185.0623,185.2459,47,110,0
185.2498,185.4334,45,110,0
185.4373,185.6209,47,110,0
185.6248,185.8084,45,110,0
185.8123,185.9959,43,110,0
185.9998,186.1834,42,110,0
186.1873,186.3709,43,110,0
184.26051,186.5584,50,110,0
186.3748,186.5584,45,110,0
186.5623,187.1209,38,110,0
187.1248,187.3084,49,110,0
187.3123,187.4959,47,110,0
187.4998,187.6834,45,110,0
187.6873,187.8709,47,110,0
187.8748,188.0584,45,110,0
188.0623,188.2459,43,110,0
188.2498,188.4334,42,110,0
188.4373,188.6209,43,110,0
186.5623,188.8084,50,110,0
188.6248,188.8084,45,110,0
188.8123,189.3709,38,110,0
189.3748,189.5584,48,110,0
189.5623,189.7459,47,110,0
189.7498,189.9334,45,110,0
189.9373,190.1209,43,110,0
190.1248,190.3084,42,110,0
190.3123,190.4959,40,110,0
190.4998,190.6834,38,110,0
190.6873,190.8709,36,110,0
190.6873,190.8709,48,110,0
188.8123,191.0584,50,110,0
190.8748,191.0584,35,110,0
190.8748,191.0584,47,110,0
191.0623,191.4334,36,110,0
191.0623,191.4334,48,110,0
192.1873,192.5584,37,110,0
192.1873,192.5584,49,110,0
194.2498,194.4334,50,70,0
194.4373,194.8084,43,70,0
194.8123,194.9959,50,70,0
194.9998,195.3709,43,70,0
195.3748,195.5584,52,70,0
195.5623,195.9334,43,70,0
195.9373,196.1209,54,70,0
196.1248,196.4959,43,70,0
196.4998,196.6834,55,70,0
196.6873,197.0584,43,70,0
197.0623,197.2459,47,70,0
197.2498,197.6209,43,70,0
197.6248,197.8084,48,70,0
197.8123,198.1834,43,70,0
198.1873,198.3709,50,70,0
198.3748,198.7459,43,70,0
198.7498,198.9334,55,70,0
198.9373,199.3084,43,70,0
199.3123,199.4959,50,70,0
199.4998,199.8709,43,70,0
199.8748,200.0584,52,70,0
200.0623,200.4334,43,70,0
200.4373,200.6209,54,70,0
200.6248,200.9959,43,70,0
200.9998,201.1834,55,70,0
201.1873,201.5584,44,70,0
201.5623,201.7459,56,71,0
201.7498,202.1209,45,72,0
202.1248,202.3084,57,74,0
202.3123,202.6834,46,75,0
202.6873,202.8709,58,77,0
202.8748,203.2459,47,78,0
203.2498,203.4334,59,79,0
203.4373,203.8084,45,80,0
203.8123,203.9959,57,81,0
203.9998,204.3709,45,82,0
204.3748,204.5584,57,84,0
204.5623,204.9334,45,85,0
204.9373,205.1209,57,86,0
205.1248,205.4959,45,87,0
205.4998,205.6834,57,89,0
205.6873,206.0584,45,90,0
206.0623,206.2459,57,91,0
206.2498,206.6209,45,92,0
206.6248,206.8084,57,94,0
206.8123,207.1834,45,95,0
207.1873,207.3709,57,97,0
207.3748,207.7459,45,97,0
207.7498,207.9334,57,99,0
207.9373,208.3084,45,100,0
208.3123,208.4959,57,102,0
208.4998,208.8709,45,103,0
208.8748,209.0584,57,104,0
209.0623,209.4334,45,105,0
209.4373,209.6209,57,107,0
209.6248,209.9959,45,108,0
209.9998,210.1834,57,109,0
210.1873,210.3709,45,110,0
210.3748,210.5584,57,110,0
210.5623,210.7459,45,110,0
210.7498,210.9334,57,110,0
210.9373,211.1209,45,110,0
211.1248,211.3084,57,110,0
211.3123,211.4959,33,110,0
211.4998,211.6834,45,110,0
211.6873,211.8709,33,110,0
211.8748,212.0584,45,110,0
212.0623,212.2459,33,110,0
212.2498,212.4334,45,110,0
212.4373,212.6209,33,110,0
212.6248,212.8084,45,110,0
212.8123,212.9959,33,110,0
212.9998,213.1834,45,110,0
213.1873,213.3709,33,110,0
213.3748,213.5584,45,110,0
213.5623,213.7459,33,110,0
213.7498,213.9334,45,110,0
213.9373,214.1209,33,110,0
214.1248,214.3084,45,110,0
214.3123,214.4959,33,110,0
214.4998,214.6834,45,110,0
214.6873,214.8709,33,120,0
214.78105,214.96465,37,120,0
214.8748,215.0584,40,120,0
214.96855,215.15215,43,120,0
215.2498,215.4334,45,120,0
215.34355,215.52715,49,120,0
215.4373,215.6209,52,120,0
215.53105,215.71465,55,120,0
216.9373,217.1209,45,80,0
217.03105,217.21465,49,80,0
217.1248,217.3084,52,80,0
217.21855,217.40215,55,80,0
217.4998,217.6834,57,80,0
217.59355,217.77715,61,80,0
217.6873,217.8709,64,80,0
217.78105,217.96465,67,80,0
219.1873,219.39713,57,80,0
219.29445,219.50427,61,80,0
219.4016,219.6114,64,80,0
219.50873,219.71855,67,79,0
220.52246,220.76726,57,76,0
220.64746,220.89226,61,75,0
220.77246,221.01726,64,75,0
220.89746,221.14226,67,74,0
223.53914,223.70233,57,80,0
223.53914,223.70233,45,80,0
223.7058,224.03566,50,80,0
223.7058,224.03566,38,80,0
224.03914,224.20233,57,82,0
224.03914,224.20233,45,82,0
224.2058,224.53566,50,83,0
224.2058,224.53566,38,83,0
224.53914,224.70233,59,84,0
224.53914,224.70233,47,84,0
224.7058,225.03566,50,85,0
224.7058,225.03566,38,85,0
225.03914,225.20233,61,87,0
225.03914,225.20233,49,87,0
225.2058,225.53566,50,88,0
225.2058,225.53566,38,88,0
225.53914,225.70233,62,89,0
225.53914,225.70233,50,89,0
225.7058,226.03566,50,90,0
225.7058,226.03566,38,90,0
226.03912,226.20233,54,92,0
226.03912,226.20233,42,92,0
226.2058,226.53566,50,92,0
226.2058,226.53566,38,92,0
226.53912,226.70233,55,94,0
226.53912,226.70233,43,94,0
226.7058,227.03566,50,95,0
226.7058,227.03566,38,95,0
227.03912,227.20233,57,97,0
227.03912,227.20233,45,97,0
227.2058,227.53566,38,97,0
227.2058,227.53566,50,97,0
227.53912,227.70232,62,99,0
227.53912,227.70232,50,99,0
227.7058,228.03566,50,100,0
227.7058,228.03566,38,100,0
228.03912,228.20232,57,101,0
228.03912,228.20232,45,101,0
228.2058,228.53566,50,102,0
228.2058,228.53566,38,102,0
228.53912,228.70232,59,104,0
228.53912,228.70232,47,104,0
228.7058,229.03566,50,105,0
228.7058,229.03566,38,105,0
229.03912,229.20232,61,106,0
229.03912,229.20232,49,106,0
229.2058,229.53566,50,107,0
229.2058,229.53566,38,107,0
229.53912,229.70232,62,109,0
229.53912,229.70232,50,109,0
229.7058,230.03566,50,110,0
229.7058,230.03566,38,110,0
230.03912,230.20232,54,110,0
230.03912,230.20232,42,110,0
230.2058,230.53566,50,110,0
230.2058,230.53566,38,110,0
230.53912,230.70232,55,110,0
230.53912,230.70232,43,110,0
230.7058,231.03566,50,110,0
230.7058,231.03566,38,110,0
231.03912,231.20232,57,110,0
231.03912,231.20232,45,110,0
231.2058,231.53566,38,110,0
231.2058,231.53566,50,110,0
231.53912,231.70232,62,110,0
231.53912,231.70232,50,110,0
231.7058,232.03566,50,110,0
231.7058,232.03566,38,110,0
232.03912,232.20232,54,110,0
232.03912,232.20232,42,110,0
232.2058,232.53566,50,110,0
232.2058,232.53566,38,110,0
232.53912,232.70232,55,110,0
232.53912,232.70232,43,110,0
232.7058,233.03564,50,110,0
232.7058,233.03564,38,110,0
233.03912,233.20232,57,110,0
233.03912,233.20232,45,110,0
233.2058,233.53564,38,110,0
233.2058,233.53564,50,110,0
233.53912,233.70232,62,110,0
233.53912,233.70232,50,110,0
233.7058,234.03564,50,110,0
233.7058,234.03564,38,110,0
234.03912,234.20232,54,110,0
234.03912,234.20232,42,110,0
234.2058,234.53564,50,110,0
234.2058,234.53564,38,110,0
234.53912,234.70232,55,110,0
234.53912,234.70232,43,110,0
234.7058,235.03564,50,110,0
234.7058,235.03564,38,110,0
235.03912,235.20232,57,110,0
235.03912,235.20232,45,110,0
235.2058,235.53564,38,110,0
235.2058,235.53564,50,110,0
235.53912,235.70232,62,110,0
235.53912,235.70232,50,110,0
235.7058,236.03564,50,110,0
235.7058,236.03564,38,110,0
236.03912,236.20232,57,110,0
236.03912,236.20232,45,110,0
236.20578,236.53564,38,110,0
236.20578,236.53564,50,110,0
236.53912,236.70232,62,110,0
236.53912,236.70232,50,110,0
236.70578,237.03564,50,110,0
236.70578,237.03564,38,110,0
237.03912,237.20232,57,113,0
237.03912,237.20232,45,113,0
237.20578,237.53564,38,114,0
237.20578,237.53564,50,114,0
237.53912,237.70232,57,118,0
237.53912,237.70232,45,118,0
237.70578,238.05505,50,120,0
237.70578,238.05505,38,120,0
238.2352,238.42471,62,120,0
238.33197,238.52148,69,120,0
238.42874,238.61826,66,120,0
238.52551,238.71504,62,120,0
238.6223,238.81181,57,120,0
238.71907,238.9133,66,120,0
238.81584,239.015,62,120,0
238.91754,239.11668,57,120,0
239.01923,239.21838,54,120,0
239.12093,239.32008,62,120,0
239.22263,239.42177,57,120,0
239.32431,239.52869,54,120,0
239.42601,239.63583,50,120,0
239.53316,239.74298,57,120,0
239.64029,239.85011,54,120,0
239.74744,239.95726,50,120,0
239.85458,240.0644,45,120,0
239.96173,240.17154,42,120,0
240.06886,240.49297,38,120,0
240.71172,241.27719,64,120,0
240.71172,241.27719,57,120,0
241.56886,242.70576,62,120,0
241.56886,242.70576,50,120,0
