start_time,end_time,note_value,velocity,instrument_program_number
0.0,3.315971,63,125,40
0.0,3.315971,55,125,40
3.333332,3.9999986,55,100,40
3.333332,3.9999986,63,100,40
4.333332,6.3124986,58,125,40
6.333332,6.9999986,58,100,40
7.333332,10.6493025,55,125,40
7.333332,10.6493025,67,125,40
10.666664,11.333331,55,100,40
10.666664,11.333331,67,100,40
11.666664,13.645831,58,125,40
11.666664,13.645831,65,125,40
13.666664,14.333331,58,100,40
13.666664,14.333331,65,100,40
14.666664,17.64583,70,125,40
17.666664,18.39583,67,100,40
18.666664,20.156248,72,120,40
20.166664,20.416664,71,90,40
20.416664,20.666664,72,80,40
20.666664,20.83333,71,70,40
20.83333,20.999998,72,70,40
20.999998,21.166664,71,70,40
21.166664,21.33333,72,70,40
21.33333,21.499998,71,70,40
21.499998,21.666664,72,70,40
21.666664,21.800592,71,70,40
21.800592,21.93452,72,70,40
21.93452,22.068449,71,70,40
22.068449,22.202377,72,70,40
22.202377,22.352379,71,70,40
22.352379,22.502378,72,70,40
22.502378,22.689878,74,70,40
22.689878,22.919044,72,70,40
22.939878,23.358011,72,70,40
23.362413,23.743021,79,70,40
23.747028,24.118122,74,70,40
24.122028,24.493122,70,70,40
24.497028,24.868122,75,70,40
24.872028,25.243122,72,70,40
25.247028,25.430622,70,70,40
25.434528,25.618122,68,70,40
25.622028,25.805622,68,70,40
25.809528,25.993122,67,70,40
25.997028,26.274372,68,70,40
26.372028,27.118122,70,70,40
27.122028,27.493122,71,70,40
27.497028,27.868122,72,70,40
27.872028,28.243122,77,70,40
28.247028,28.618122,74,70,40
28.622028,28.993122,70,70,40
28.997028,29.368122,75,70,40
29.372028,29.743122,72,70,40
29.747028,29.930622,70,70,40
29.934528,30.118122,68,70,40
30.122028,30.315285,68,70,40
30.319397,30.512653,67,70,40
30.516764,30.816595,68,70,40
30.922169,31.302778,67,70,40
34.383705,34.764313,74,70,40
34.76832,35.14893,82,70,40
35.152935,35.533543,74,70,40
35.537548,35.91816,75,70,40
35.922165,36.302773,82,70,40
36.306778,36.68739,83,70,40
36.691395,37.072002,84,73,40
37.076008,37.45662,89,76,40
37.460625,37.841232,86,80,40
37.845238,38.22585,82,83,40
38.229855,38.610462,87,87,40
38.614468,38.99508,84,90,40
38.999084,39.187386,82,93,40
39.19139,39.379692,80,95,40
39.383698,39.572,80,97,40
39.576008,39.76431,79,99,40
39.768314,40.03498,77,100,40
40.168316,40.434982,75,104,40
40.568314,40.818314,55,107,40
40.568314,40.818314,63,107,40
40.943314,42.064407,75,110,40
42.068314,42.251907,77,110,40
42.255814,42.439407,79,110,40
42.443314,43.189407,82,110,40
43.193314,43.376907,80,110,40
43.380814,43.564407,79,110,40
43.568314,43.751907,79,110,40
43.755814,43.939407,77,110,40
43.943314,44.126907,75,110,40
44.130814,44.314407,74,110,40
44.318314,44.501907,72,110,40
44.505814,44.689407,70,110,40
44.693314,45.064407,68,110,40
45.068314,45.439407,67,110,40
45.443314,46.564407,75,110,40
46.568314,46.751907,77,110,40
46.755814,46.939407,79,110,40
46.943314,47.126907,82,125,40
47.130814,47.267532,80,110,40
47.318314,47.455032,79,110,40
47.505814,47.642532,77,110,40
47.693314,47.830032,83,110,40
47.880814,48.017532,84,110,40
48.068314,48.251907,84,125,40
48.255814,48.392532,82,110,40
48.443314,48.580032,80,110,40
48.630814,48.767532,79,110,40
48.818314,48.955032,77,110,40
49.005814,49.142532,82,110,40
49.193314,49.376907,80,125,40
49.380814,49.517532,79,110,40
49.568314,49.705032,77,110,40
49.755814,49.892532,75,110,40
49.943314,50.080032,83,110,40
50.130814,50.267532,84,110,40
50.318314,50.506615,84,125,40
50.51062,50.650845,82,110,40
50.70293,50.848763,80,110,40
50.902927,51.048763,79,110,40
51.10293,51.252758,77,110,40
51.308407,51.464657,82,110,40
51.522694,51.918526,63,110,40
55.212803,55.987965,63,70,40
55.992023,56.18277,62,70,40
56.18683,56.377575,60,70,40
56.381634,56.677467,65,70,40
56.78163,57.08979,63,70,40
57.1983,57.34413,74,70,40
57.3983,57.540344,75,70,40
57.593105,57.78385,75,70,40
57.78791,57.929955,74,70,40
57.982716,58.12476,72,70,40
58.177517,58.319565,70,70,40
58.372322,58.51437,69,70,40
58.567127,58.709175,74,70,40
58.761932,59.050083,67,70,40
59.151543,59.439693,72,70,40
59.541153,59.829304,66,70,40
59.930763,60.218914,70,70,40
60.320374,60.608524,62,70,40
60.709984,60.90073,69,70,40
60.90479,61.095535,67,70,40
61.099594,61.29034,66,70,40
61.2944,61.685036,78,76,40
61.689205,62.0904,79,88,40
62.094685,62.310677,81,100,40
62.31527,63.511105,82,95,40
63.51527,64.311104,81,110,40
64.31527,64.5111,79,104,40
64.515274,64.711105,78,107,40
64.71527,65.11111,81,110,40
65.11527,65.5111,75,100,40
65.515274,65.711105,74,93,40
65.71527,65.9111,72,89,40
65.91527,66.311104,72,85,40
66.31527,66.711105,70,77,40
66.71527,67.11111,72,70,40
67.11527,67.5111,74,70,40
67.515274,67.9111,79,69,40
67.91527,68.711105,77,67,40
68.71527,69.11111,75,63,40
69.11527,69.711105,76,61,40
69.71527,69.9111,69,53,40
69.91527,70.311104,81,56,40
70.31527,70.73938,81,63,40
70.74384,70.94643,81,70,40
70.95074,71.15333,74,70,40
71.15764,71.367455,75,70,40
71.37192,71.58174,74,70,40
71.586205,71.80875,86,70,40
71.81348,72.046616,78,70,40
72.051575,72.26139,79,70,40
72.26586,72.46706,79,73,40
72.47134,72.67254,78,77,40
72.67682,72.87801,79,81,40
72.88229,73.083496,81,84,40
73.087776,73.28897,82,88,40
73.29325,73.49445,75,92,40
73.49873,73.69993,84,96,40
73.70421,73.90541,83,99,40
73.90969,74.110886,84,103,40
74.11517,74.31637,86,107,40
74.32065,74.52185,87,110,40
74.52613,74.727325,87,110,40
74.731606,74.93281,78,102,40
74.93709,75.13828,79,94,40
75.14256,75.343765,81,86,40
75.348045,75.54924,82,78,40
75.55352,75.75472,84,70,40
75.759,75.9602,85,70,40
75.96448,76.16568,86,70,40
76.16996,76.371155,87,70,40
76.37544,76.58526,86,70,40
76.58972,76.799545,88,70,40
76.80401,77.02997,90,70,40
77.03478,77.26074,91,70,40
77.26555,77.46674,86,69,40
77.47102,77.672226,86,67,40
77.676506,77.8777,91,65,40
77.88199,78.08318,91,64,40
78.08746,78.28866,79,62,40
78.292946,78.49414,79,60,40
78.49842,78.69962,91,58,40
78.7039,78.9051,91,57,40
78.90938,79.11058,81,55,40
79.11486,79.316055,81,53,40
79.320335,79.52154,93,51,40
79.52582,79.72701,93,50,40
79.73129,79.932495,81,55,40
79.936775,80.13797,81,60,40
80.14225,80.34345,81,65,40
80.34773,80.54893,79,70,40
80.553215,80.75441,81,75,40
80.75869,80.908516,81,80,40
80.96417,81.114,82,85,40
81.16965,81.3259,82,90,40
81.383934,81.540184,84,95,40
81.59822,81.75906,82,100,40
81.81881,81.99242,81,85,40
82.0569,82.46923,86,70,40
82.890236,83.09423,87,85,40
83.098564,83.30256,86,89,40
83.3069,83.702736,86,93,40
84.1069,84.302734,87,90,40
84.3069,84.50273,86,80,40
84.5069,84.702736,86,70,40
84.9069,85.302734,75,77,40
85.3069,85.702736,72,85,40
85.7069,86.10274,69,93,40
86.1069,86.51358,74,100,40
86.51786,86.95779,70,90,40
86.962524,87.37485,82,70,40
87.37919,87.775024,87,76,40
87.77919,88.17502,84,83,40
88.17919,88.57502,81,90,40
88.579185,88.97502,86,97,40
88.97919,89.37502,82,104,40
89.37919,89.57502,79,110,40
89.766685,90.88778,91,110,40
90.891685,90.954185,90,110,40
90.954185,91.016685,91,110,40
91.016685,91.079185,90,110,40
91.079185,91.141685,91,110,40
91.141685,91.204185,90,110,40
91.204185,91.266685,91,110,40
91.266685,91.329185,90,110,40
91.329185,91.391685,91,110,40
91.391685,91.454185,90,110,40
91.454185,91.547935,88,110,40
91.547935,91.641685,90,110,40
91.641685,91.891685,91,110,40
92.016685,92.2731,55,120,40
92.401306,92.66797,55,120,40
92.8013,93.22541,55,120,40
95.77273,96.168564,89,70,40
96.17273,96.239395,90,70,40
96.239395,96.30606,91,70,40
96.30606,96.37273,90,70,40
96.37273,96.47273,88,70,40
96.47273,96.57273,90,70,40
96.57273,96.83939,91,110,40
96.97273,97.246704,55,110,40
97.38369,97.6694,55,110,40
97.812256,98.23637,55,110,40
100.812256,101.23636,78,70,40
101.24083,101.31775,78,70,40
101.31775,101.39467,79,66,40
101.39467,101.471596,78,61,40
101.471596,101.596596,76,57,40
101.596596,101.7466,78,50,40
103.346596,103.7707,66,50,40
103.77517,103.85209,66,50,40
103.85209,103.92901,67,50,40
103.92901,104.005936,66,50,40
104.005936,104.130936,64,50,40
104.130936,104.29968,66,50,40
104.29968,104.69899,55,110,40
104.29968,104.69899,62,110,40
104.29968,104.69899,71,110,40
104.29968,107.615654,79,110,40
107.63302,108.29968,55,110,40
107.63302,108.29968,62,110,40
107.63302,108.29968,71,110,40
107.63302,108.29968,79,110,40
108.63302,110.61218,74,125,40
110.63302,111.29968,74,110,40
111.63302,112.032326,55,110,40
111.63302,112.032326,62,110,40
111.63302,112.032326,74,110,40
111.63302,114.94899,83,110,40
114.96635,115.63302,55,110,40
114.96635,115.63302,62,110,40
114.96635,115.63302,74,110,40
114.96635,115.63302,83,110,40
115.96635,117.94552,81,125,40
117.96635,118.63302,81,110,40
118.96635,121.44899,86,125,40
121.46635,122.021904,83,110,40
122.29968,123.77885,88,100,40
123.79968,124.04968,75,70,40
124.04968,124.29968,76,70,40
124.29968,124.47826,75,70,40
124.47826,124.65682,76,70,40
124.65682,124.835396,75,70,40
124.835396,125.03539,76,70,40
125.03539,125.2354,75,70,40
125.2354,125.435394,76,70,40
125.435394,125.59844,75,70,40
125.59844,125.76148,76,70,40
125.76148,125.92452,75,70,40
125.92452,126.08757,76,70,40
126.08757,126.27507,75,70,40
126.27507,126.46257,76,70,40
126.46257,126.670906,78,70,40
126.670906,126.879234,76,70,40
126.920906,127.37071,76,70,40
127.37545,127.77128,81,70,40
127.775444,128.14655,78,70,40
128.15045,128.52155,74,70,40
128.52545,128.89655,79,70,40
128.90045,129.27155,76,70,40
129.27545,129.45905,74,70,40
129.46295,129.64655,72,70,40
129.65045,129.83405,72,70,40
129.83795,130.02155,71,70,40
130.02545,130.27545,72,70,40
130.40045,131.14655,74,70,40
131.15045,131.52155,75,70,40
131.52545,131.89655,76,70,40
131.90045,132.27155,81,70,40
132.27545,133.02155,78,70,40
133.02545,133.39655,83,70,40
133.40045,134.14655,79,70,40
134.15045,134.52155,84,70,40
134.52545,135.29066,81,70,40
135.29468,135.48297,83,70,40
135.48698,135.6753,84,70,40
135.67929,135.87512,86,70,40
135.87929,136.08911,87,70,40
136.09358,137.22429,88,70,40
136.8532,137.22429,76,77,40
137.2282,138.34929,86,81,40
137.9782,138.34929,74,88,40
138.3532,139.47429,84,92,40
139.1032,139.47429,72,99,40
139.4782,140.59929,83,103,40
140.2282,140.59929,71,110,40
140.6032,141.3588,71,110,40
140.6032,141.3588,83,110,40
141.36281,142.15865,86,110,40
142.16281,142.55864,84,96,40
142.5628,142.764,84,82,40
142.76828,142.96948,81,75,40
142.97377,143.38045,81,70,40
143.38472,143.7914,79,70,40
143.79568,144.20236,83,70,40
144.20663,144.61331,75,70,40
144.6176,145.02428,74,70,40
145.02855,145.23837,76,70,40
145.24284,145.45267,78,70,40
145.45712,145.85297,79,70,40
145.85713,146.25296,84,70,40
146.25713,147.05296,81,70,40
147.05713,147.45296,86,60,40
147.45712,147.85297,83,50,40
151.45712,153.05296,79,70,40
153.05713,153.45296,84,73,40
153.45712,154.25296,81,76,40
154.25713,154.65295,86,83,40
154.65712,155.45296,83,87,40
155.45712,155.85297,87,93,40
155.85713,156.65295,84,97,40
156.65712,157.05296,83,104,40
157.05713,157.25296,84,107,40
157.25713,157.45296,86,109,40
157.45712,158.65295,87,110,40
158.65712,159.85297,87,110,40
159.85713,160.65295,87,110,40
160.65712,161.45296,91,110,40
161.45712,161.85297,89,110,40
161.85713,162.05296,89,100,40
162.05713,162.25296,86,90,40
162.25713,162.65295,86,70,40
162.65712,163.05296,84,70,40
163.05713,163.65295,87,70,40
163.65712,163.85297,55,67,40
163.85713,164.25296,68,64,40
164.25713,164.45833,67,57,40
164.4626,164.67242,71,53,40
164.6769,165.07272,72,50,40
168.27689,169.47272,72,50,40
169.4769,170.67273,75,50,40
170.6769,171.87273,73,67,40
171.87689,173.07272,72,85,40
173.07689,174.31195,70,103,40
174.31642,174.60457,69,120,40
174.60863,174.79587,69,120,40
174.70602,174.98337,78,120,40
174.98727,175.17087,69,120,40
175.08102,175.35837,78,120,40
175.36227,175.54587,69,120,40
175.45602,176.01462,78,120,40
176.01852,176.15524,57,120,40
176.20602,176.34274,60,120,40
176.39352,176.53024,63,120,40
176.58102,176.71774,66,120,40
176.76852,176.90524,69,120,40
176.95602,177.09274,72,120,40
177.14352,177.28024,75,120,40
177.33102,177.46774,78,120,40
177.51852,177.65524,81,120,40
177.70602,177.84274,84,120,40
177.89352,178.03024,87,120,40
178.08102,178.21774,87,120,40
178.26852,178.40524,90,120,40
178.45602,178.59274,90,120,40
178.64352,178.78024,69,120,40
178.83102,179.10837,70,120,40
179.11227,179.29587,70,120,40
179.20602,179.48337,77,120,40
179.48727,179.67087,70,120,40
179.58102,179.85837,77,120,40
179.86227,180.04587,70,120,40
179.95602,180.51462,77,120,40
180.51852,180.65524,58,120,40
180.70602,180.84274,61,120,40
180.89352,181.03024,65,120,40
181.08102,181.21774,70,120,40
181.26852,181.40524,73,120,40
181.45602,181.59274,77,120,40
181.64352,181.78024,82,120,40
181.83102,181.96774,85,120,40
182.01852,182.15524,89,120,40
182.20602,182.34274,89,120,40
182.39352,182.53024,94,120,40
182.58102,182.95212,94,120,40
182.95602,183.32712,70,120,40
183.33102,183.60837,71,120,40
183.61227,183.79587,71,120,40
183.70602,183.98337,77,120,40
183.98727,184.17087,71,120,40
184.08102,184.35837,77,120,40
184.36227,184.54587,71,120,40
184.45602,185.01462,77,120,40
185.01852,185.15524,65,120,40
185.20602,185.34274,68,120,40
185.39352,185.53024,71,120,40
185.58102,185.71774,77,120,40
185.76852,185.90524,80,120,40
185.95602,186.09274,83,120,40
186.14352,186.28024,89,120,40
186.33102,186.46774,89,120,40
186.51852,186.65524,91,120,40
186.70602,186.84274,91,120,40
186.89352,187.03024,92,120,40
187.08102,187.21774,92,120,40
187.26852,187.40524,77,120,40
187.45602,187.51852,77,120,40
187.51852,187.58102,79,120,40
187.58102,187.64352,77,120,40
187.64352,187.73727,76,120,40
187.73727,187.83102,77,120,40
187.83102,187.97125,84,120,40
188.02333,188.16356,76,120,40
188.21565,188.35587,76,120,40
188.40796,188.54817,60,120,40
188.60027,188.66437,72,120,40
188.66437,188.72847,74,120,40
188.72847,188.79257,72,120,40
188.79257,188.88872,71,120,40
188.88872,188.98488,74,120,40
189.18488,189.3307,88,120,40
189.38487,189.5347,88,120,40
189.59035,189.74019,72,120,40
189.79584,189.86726,84,120,40
189.86726,189.93869,86,120,40
189.93869,190.01012,84,120,40
190.01012,190.1255,83,120,40
190.1255,190.2755,84,120,40
190.2755,193.59148,72,120,40
190.2755,193.59148,84,120,40
193.60884,194.2755,76,120,40
193.60884,194.2755,60,120,40
193.60884,194.2755,67,120,40
193.60884,194.2755,84,120,40
194.60884,196.588,79,120,40
196.60884,197.2755,79,120,40
197.60884,200.9248,88,120,40
200.94217,201.60884,88,120,40
201.94217,203.92134,86,120,40
203.94217,204.60884,86,120,40
204.94217,207.08055,91,120,40
207.08502,207.88469,79,95,40
207.8886,208.25969,84,70,40
208.2636,208.63469,81,70,40
208.6386,208.82219,79,70,40
208.8261,209.00969,77,70,40
209.0136,209.19719,77,70,40
209.2011,209.38469,76,70,40
209.3886,209.66594,77,70,40
209.7636,210.13469,76,70,40
210.3261,210.46281,76,70,40
210.5136,210.65031,74,70,40
210.7011,210.83781,76,70,40
210.8886,211.02531,77,70,40
211.0761,211.21281,79,70,40
211.2636,211.40031,81,70,40
211.4511,211.58781,83,70,40
211.6386,211.75969,83,70,40
211.7636,211.88469,84,70,40
211.8886,212.00969,86,70,40
212.0136,212.38469,88,70,40
212.5761,212.71281,84,70,40
212.7636,212.90031,83,70,40
212.9511,213.08781,84,70,40
213.1386,213.27531,86,70,40
213.3261,213.46281,88,70,40
213.5136,213.65031,89,70,40
213.7011,213.83781,91,70,40
213.8886,214.02882,93,80,40
214.0809,214.23073,95,90,40
214.28638,214.57083,96,110,40
214.62292,214.67099,77,110,40
214.67099,214.8593,76,110,40
214.8633,215.0516,74,110,40
215.0556,215.34006,76,110,40
215.77676,215.82484,65,70,40
215.82484,216.01314,64,70,40
216.01715,216.20544,62,70,40
216.20946,216.49391,64,70,40
216.9306,216.97868,77,70,40
216.97868,217.16699,76,70,40
217.17099,217.3593,74,70,40
217.3633,217.64775,76,70,40
218.08446,218.13252,79,70,40
218.13252,218.32083,77,70,40
218.32484,218.51314,76,70,40
218.51715,218.8016,77,70,40
219.2383,219.28638,79,110,40
219.28638,219.47467,77,110,40
219.47868,219.66698,76,110,40
219.67099,219.95544,77,110,40
220.39214,220.44022,67,70,40
220.44022,220.62852,65,70,40
220.63252,220.82083,64,70,40
220.82483,221.10928,65,70,40
221.54599,221.59407,79,70,40
221.59407,221.78236,77,70,40
221.78638,221.97467,76,70,40
221.97868,222.26314,77,70,40
222.69983,222.74791,80,70,40
222.74791,222.93622,79,70,40
222.94022,223.12852,77,70,40
223.13252,223.41698,79,70,40
223.85368,223.90175,80,110,40
223.90175,224.09006,79,110,40
224.09406,224.28236,77,110,40
224.28638,224.57083,79,110,40
225.00752,225.0556,68,70,40
225.0556,225.2439,67,70,40
225.24791,225.4362,65,70,40
225.44022,225.72467,67,70,40
226.16136,226.20944,80,70,40
226.20944,226.39775,79,70,40
226.40175,226.59006,77,70,40
226.59406,226.87851,79,70,40
227.31522,227.3633,82,70,40
227.3633,227.55159,80,70,40
227.5556,227.7439,79,70,40
227.74791,228.03236,80,70,40
228.46906,228.51714,82,110,40
228.51714,228.70543,80,110,40
228.70944,228.89775,79,110,40
228.90175,229.1862,80,110,40
229.62291,229.67097,70,70,40
229.67097,229.85928,68,70,40
229.86328,230.05159,67,70,40
230.05559,230.34006,68,70,40
230.77675,230.82483,82,70,40
230.82483,231.01312,80,70,40
231.01714,231.20543,79,70,40
231.20944,231.4939,80,70,40
231.93059,231.97867,84,70,40
231.97867,232.16698,82,70,40
232.17097,232.35928,80,70,40
232.36328,232.64774,82,70,40
233.08444,233.13252,84,110,40
233.13252,233.32082,82,110,40
233.32483,233.51312,80,110,40
233.51714,233.80159,82,110,40
234.23828,234.28636,72,70,40
234.28636,234.47466,70,70,40
234.47867,234.66696,68,70,40
234.67097,234.95543,70,70,40
235.39873,235.44774,84,83,40
235.44774,235.63974,82,85,40
235.64383,235.83582,80,93,40
235.8399,236.12993,82,100,40
236.58206,236.63206,85,100,40
236.63206,236.83325,84,100,40
236.83754,237.03874,83,93,40
237.04301,237.35999,84,85,40
237.47159,237.87827,84,70,40
237.88254,238.27316,89,70,40
238.27728,238.65788,86,70,40
238.6619,239.04251,82,70,40
239.04651,239.42712,87,70,40
239.43112,239.81174,84,70,40
239.81573,240.00404,82,70,40
240.00804,240.19635,80,70,40
240.20036,240.38866,80,70,40
240.39267,240.58096,79,70,40
240.58498,240.86943,80,70,40
240.96959,241.7348,82,70,40
241.73882,242.11943,83,70,40
242.12343,242.31174,84,70,40
242.31573,242.50404,71,70,40
242.50804,242.69635,72,70,40
242.70035,242.88866,76,70,40
242.89265,243.08096,77,70,40
243.08496,243.27327,74,70,40
243.27728,243.46558,72,70,40
243.46959,243.65788,70,70,40
243.6619,243.85019,70,70,40
243.8542,244.0425,74,70,40
244.04651,244.2348,75,70,40
244.23882,244.42711,72,70,40
244.43112,244.61942,70,70,40
244.62343,244.81174,80,70,40
244.81573,245.00404,80,70,40
245.00804,245.19635,84,70,40
245.20035,245.38866,82,70,40
245.39265,245.58096,80,70,40
245.58496,245.77327,80,70,40
245.77727,245.96558,79,70,40
245.96957,246.15788,74,70,40
246.1619,246.35019,75,70,40
246.3542,246.5425,77,70,40
246.54651,246.7348,79,70,40
246.73882,246.92711,67,70,40
246.93112,247.11942,68,70,40
247.12343,247.50403,56,70,40
247.50804,248.08096,68,70,40
248.08496,248.27327,67,70,40
248.27727,248.65788,55,70,40
248.66188,249.2348,67,70,40
249.23882,249.42711,65,70,40
249.43112,250.38864,65,70,40
250.39265,250.77327,65,70,40
250.77727,250.96558,67,70,40
250.96957,251.15788,68,70,40
251.16188,251.35019,70,70,40
251.35419,252.11942,72,70,40
252.12343,252.50403,70,76,40
252.50804,252.88864,70,80,40
252.89265,253.27325,79,83,40
253.27727,253.65787,75,87,40
253.66188,253.85019,75,90,40
253.85419,254.0425,74,92,40
254.0465,254.2348,74,94,40
254.2388,254.42711,75,95,40
254.4311,255.00403,77,97,40
255.00803,255.19633,75,100,40
255.20035,255.38864,58,100,40
255.39265,255.53287,70,100,40
255.58496,255.72517,70,110,40
255.77727,255.91748,70,110,40
255.96957,256.1098,70,110,40
256.16187,256.3021,70,110,40
256.3542,256.49442,70,110,40
256.5465,256.6867,70,110,40
256.7388,256.9271,70,110,40
256.93112,257.11942,63,110,40
257.1234,257.26364,56,110,40
257.1234,257.26364,62,110,40
257.31573,257.45593,56,110,40
257.31573,257.45593,62,110,40
257.50803,257.64825,56,110,40
257.50803,257.64825,62,110,40
257.70035,257.84058,56,110,40
257.70035,257.84058,62,110,40
257.89264,258.03287,56,110,40
257.89264,258.03287,62,110,40
258.08496,258.2252,56,110,40
258.08496,258.2252,62,110,40
258.27725,258.41748,56,110,40
258.27725,258.41748,65,110,40
258.46957,258.6098,56,110,40
258.46957,258.6098,65,110,40
258.66187,258.8021,56,110,40
258.66187,258.8021,65,110,40
258.8542,258.99442,56,110,40
258.8542,258.99442,65,110,40
259.04648,259.1867,56,110,40
259.04648,259.1867,65,110,40
259.2388,259.37903,56,110,40
259.2388,259.37903,65,110,40
259.4311,259.57132,55,110,40
259.4311,259.57132,67,110,40
259.6234,259.76364,70,110,40
259.81573,259.95593,72,110,40
260.00803,260.14825,74,110,40
260.20035,261.3502,75,127,40
261.3542,261.54248,77,110,40
261.54648,261.7348,79,110,40
261.7388,262.50403,82,110,40
262.50803,263.46555,80,110,40
263.46957,263.65787,60,110,40
263.66187,263.85016,58,110,40
263.8542,264.04248,56,110,40
264.04648,264.1867,55,110,40
264.04648,264.1867,63,110,40
264.2388,264.37903,55,110,40
264.2388,264.37903,63,110,40
264.4311,264.57132,55,110,40
264.4311,264.57132,63,110,40
264.6234,264.76364,55,110,40
264.6234,264.76364,63,110,40
264.8157,264.95593,55,110,40
264.8157,264.95593,63,110,40
265.00803,265.14825,56,110,40
265.00803,265.14825,63,110,40
265.20032,265.34055,58,110,40
265.20032,265.34055,63,110,40
265.39264,265.53287,58,110,40
265.39264,265.53287,63,110,40
265.58496,265.72516,58,110,40
265.58496,265.72516,63,110,40
265.77725,265.91748,58,110,40
265.77725,265.91748,63,110,40
265.96957,266.10977,58,110,40
265.96957,266.10977,63,110,40
266.16187,266.3021,58,110,40
266.16187,266.3021,63,110,40
266.3542,266.49442,60,110,40
266.3542,266.49442,63,110,40
266.54648,266.6867,60,110,40
266.54648,266.6867,63,110,40
266.7388,266.87903,60,110,40
266.7388,266.87903,63,110,40
266.9311,267.07132,60,110,40
266.9311,267.07132,63,110,40
267.1234,268.27325,68,110,40
268.27725,268.46555,70,110,40
268.46954,268.65787,72,110,40
268.66187,268.85016,75,125,40
268.8542,268.9944,73,110,40
269.04648,269.1867,72,110,40
269.2388,269.379,70,110,40
269.4311,269.57132,76,110,40
269.6234,269.76364,77,110,40
269.8157,270.004,77,125,40
270.00803,270.14825,75,110,40
270.20032,270.34055,73,110,40
270.39264,270.53287,72,110,40
270.58493,270.72516,70,110,40
270.77725,270.91748,75,110,40
270.96954,271.15787,73,125,40
271.16187,271.3021,72,110,40
271.35416,271.4944,70,110,40
271.54648,271.6867,68,110,40
271.7388,271.879,76,110,40
271.9311,272.07132,77,110,40
272.1234,272.3117,77,125,40
272.3157,272.45593,75,110,40
272.50803,272.65384,73,110,40
272.708,272.85385,72,110,40
272.90802,273.05783,70,110,40
273.1135,273.26974,75,110,40
273.3278,273.7519,56,110,40
274.18494,274.33075,84,70,40
274.38492,274.53076,85,70,40
274.58493,274.78076,85,70,40
274.7849,274.93076,84,70,40
274.98492,275.13077,82,70,40
275.18494,275.33075,80,70,40
275.38492,275.53076,79,70,40
275.58493,275.73074,84,70,40
275.7849,276.05157,77,70,40
276.18494,276.4516,82,70,40
276.58493,276.8516,76,70,40
276.98492,277.2516,80,70,40
277.38492,277.65158,74,70,40
277.7849,277.98074,79,70,40
277.98492,278.18076,77,70,40
278.18494,278.4516,76,70,40
278.58493,278.8516,77,70,40
280.58493,280.78076,72,70,40
280.7849,280.93076,70,70,40
280.98492,281.13077,68,70,40
281.18494,281.33075,67,70,40
281.38492,281.53076,65,70,40
281.58493,281.73074,70,70,40
281.7849,282.58075,82,70,40
282.58493,282.78076,80,70,40
282.7849,282.98074,79,70,40
282.98492,283.18076,79,70,40
283.18494,283.38077,77,77,40
283.38492,283.58075,68,85,40
283.58493,283.78076,67,93,40
283.7849,283.98074,68,100,40
283.98492,284.18076,62,80,40
284.18494,284.38077,55,65,40
284.38492,284.58075,63,68,40
284.58493,284.78076,62,72,40
284.7849,284.98074,63,75,40
284.98492,285.18076,65,79,40
285.18494,285.38077,67,82,40
285.38492,285.58075,59,86,40
285.58493,285.78076,68,89,40
285.7849,285.98074,67,93,40
285.98492,286.18076,68,96,40
286.18494,286.38077,70,100,40
286.38492,286.58075,71,103,40
286.58493,286.78076,62,107,40
286.7849,286.98074,77,110,40
286.98492,287.18076,76,110,40
287.18494,287.38077,77,107,40
287.38492,287.58075,79,104,40
287.58493,287.78076,80,100,40
287.7849,287.98074,81,97,40
287.98492,288.18076,82,93,40
288.18494,288.3861,82,90,40
288.3904,288.5916,84,86,40
288.5959,288.8057,84,83,40
288.81018,289.0327,82,80,40
289.03745,289.46155,82,80,40
289.466,289.87268,87,77,40
289.87695,290.2728,86,73,40
290.27698,290.6728,86,69,40
290.67697,291.0728,83,65,40
291.07697,291.2728,86,61,40
291.27698,291.4728,84,60,40
291.47696,291.6728,84,60,40
291.67697,291.8728,79,70,40
291.87695,292.07816,82,80,40
292.08246,292.28363,80,90,40
292.28793,292.49774,84,100,40
292.5022,292.72818,72,80,40
292.73297,292.93417,75,70,40
292.93845,293.13965,74,70,40
293.14395,293.33978,86,70,40
293.34393,293.75375,87,70,40
293.7582,293.9842,89,70,40
293.98898,294.08746,79,65,40
294.04037,295.1772,91,65,40
295.1813,295.96667,89,87,40
295.9708,296.16403,87,103,40
296.16815,296.36142,86,107,40
296.3655,296.75613,89,110,40
296.76025,297.15088,83,104,40
297.155,297.34824,82,98,40
297.35236,297.54562,80,95,40
297.5497,297.94034,80,92,40
297.94446,298.33508,79,86,40
298.3392,298.75153,80,80,40
298.75586,298.9517,81,80,40
298.95587,299.1517,82,79,40
299.15585,299.35168,84,77,40
299.35587,299.5017,82,75,40
299.55588,299.7017,83,73,40
299.75586,299.9017,83,71,40
299.95587,300.1517,83,69,40
300.15585,300.35168,86,67,40
300.35587,300.5517,86,65,40
300.55588,300.7517,83,63,40
300.75586,300.9517,86,61,40
300.95587,301.1517,84,60,40
301.15585,301.35168,84,60,40
301.35587,301.5517,79,66,40
301.55588,301.7517,82,72,40
301.75586,301.9017,80,78,40
301.95587,302.10168,80,84,40
302.15585,302.3017,80,90,40
302.35587,302.5017,80,110,40
302.55588,302.7017,79,110,40
302.75586,302.9057,79,110,40
302.96133,303.11118,80,110,40
303.1668,303.32535,79,110,40
303.38422,303.55783,77,90,40
303.6223,304.01816,82,70,40
304.4223,304.61813,84,90,40
304.6223,304.81815,82,95,40
304.8223,305.21814,82,100,40
305.6223,305.81815,84,90,40
305.8223,306.01816,82,85,40
306.0223,306.41815,82,80,40
306.4223,306.81815,72,80,40
306.8223,307.21814,68,90,40
307.22232,307.61813,65,100,40
307.6223,308.029,70,100,40
308.03326,308.45737,67,87,40
308.46185,308.85767,79,70,40
308.86185,309.25766,84,76,40
309.26184,309.65768,80,83,40
309.66183,310.05768,77,90,40
310.06183,310.4685,82,97,40
310.4728,310.8969,79,104,40
310.90137,311.16388,75,110,40
311.28888,312.40997,87,110,40
312.41388,312.47638,86,110,40
312.47638,312.53888,87,110,40
312.53888,312.60138,86,110,40
312.60138,312.66388,87,110,40
312.66388,312.7303,86,110,40
312.72638,312.78888,87,110,40
312.78888,312.85138,86,110,40
312.85138,312.91388,87,110,40
312.91388,312.97638,86,110,40
312.97638,313.07013,84,110,40
313.07013,313.16388,86,110,40
313.16388,313.41388,87,110,40
313.53888,313.7986,55,110,40
313.53888,313.7986,63,110,40
313.92847,314.20245,55,110,40
313.92847,314.20245,63,110,40
314.33945,314.64337,55,120,40
314.33945,314.64337,63,120,40
317.05807,317.4387,86,70,40
317.4427,317.5068,86,70,40
317.5068,317.5709,87,70,40
317.5709,317.635,86,70,40
317.635,317.73117,84,70,40
317.73117,317.8273,86,70,40
317.8273,318.0837,87,110,40
318.2119,318.4786,55,110,40
318.2119,318.4786,63,110,40
318.61194,318.89764,55,110,40
318.61194,318.89764,63,110,40
319.0405,319.34445,55,110,40
319.0405,319.34445,63,110,40
321.77454,322.1812,86,70,40
322.1855,322.25693,86,70,40
322.25693,322.32834,87,70,40
322.32834,322.39978,86,70,40
322.39978,322.51517,84,60,40
322.51517,322.64017,86,50,40
324.35443,324.8183,74,70,40
324.82318,324.89673,73,70,40
324.89673,324.97025,75,70,40
324.97025,325.0438,73,70,40
325.0438,325.15408,72,70,40
325.15408,325.26437,73,70,40
325.26437,325.68848,75,70,40
325.69293,326.08878,80,70,40
326.09296,326.48877,77,70,40
326.49295,326.68878,75,70,40
326.69293,326.88876,73,70,40
326.89294,327.08878,73,70,40
327.09296,327.2888,72,70,40
327.29294,327.58878,73,70,40
327.69293,328.88876,72,70,40
328.89294,330.08878,70,70,40
330.09296,331.2888,68,70,40
331.29294,332.48877,67,70,40
332.49295,333.68878,65,70,40
333.69293,334.88876,67,70,40
334.89294,335.2888,72,70,40
335.29294,335.68878,77,70,40
335.69293,336.08878,74,70,40
336.09296,336.2888,72,70,40
336.29294,336.48877,70,70,40
336.49295,336.68878,70,70,40
336.69293,336.88876,69,70,40
336.89294,337.18878,70,70,40
337.29294,337.48877,72,70,40
337.49295,337.68878,70,70,40
337.69293,337.88876,70,70,40
337.89294,338.08878,69,70,40
338.09296,338.38876,70,70,40
338.49295,338.68878,72,70,40
338.69293,338.88876,70,70,40
338.89294,339.08878,70,70,40
339.09296,339.2888,69,70,40
339.29294,339.58878,70,70,40
339.69293,340.88876,80,70,40
340.89294,342.08878,79,75,40
342.09296,343.2888,77,81,40
343.29294,344.48877,79,86,40
344.49295,345.68878,80,92,40
345.69293,346.88876,82,98,40
346.89294,348.48877,84,102,40
348.49295,348.88876,86,90,40
348.89294,349.2888,87,95,40
349.29294,349.68878,87,100,40
349.69293,350.08878,82,100,40
350.09296,350.88876,80,94,40
350.89294,351.29962,79,80,40
351.3039,351.51373,80,73,40
351.5182,351.7374,82,70,40
351.74207,353.3379,84,90,40
353.34207,353.73788,86,81,40
353.74207,354.5379,87,84,40
354.54205,354.9379,89,89,40
354.94208,355.74875,91,92,40
355.75302,356.17712,92,98,40
356.18158,356.62814,92,100,40
356.63297,357.83426,92,70,40
357.83844,359.03427,91,70,40
359.03842,360.63428,89,63,40
360.63843,361.03427,87,53,40
361.03842,361.43427,85,51,40
361.43842,361.63428,84,50,40
361.63843,361.83426,72,52,40
361.83844,362.03427,75,55,40
362.03842,362.23425,77,57,40
362.23843,362.43427,79,60,40
362.43842,362.63428,80,62,40
362.63843,362.83426,82,65,40
362.83844,363.03427,84,67,40
363.03842,363.23425,86,70,40
363.23843,363.43427,87,73,40
363.43842,363.63428,89,75,40
363.63843,363.83426,91,78,40
363.83844,364.03427,94,80,40
364.03842,364.23425,92,83,40
364.23843,364.43427,92,85,40
364.43842,364.63428,91,88,40
364.63843,364.93427,92,90,40
365.03842,365.43427,91,90,40
365.43842,365.63428,79,88,40
365.63843,365.83426,80,87,40
365.83844,366.03427,82,85,40
366.03842,366.23425,83,84,40
366.23843,366.63428,84,83,40
366.63843,367.03427,89,80,40
367.03842,367.43427,86,77,40
367.43842,367.83426,82,75,40
367.83844,368.23425,87,72,40
368.23843,368.63428,84,70,40
368.63843,368.83426,82,70,40
368.83844,369.03427,80,70,40
369.03842,369.23425,80,70,40
369.23843,369.43427,79,70,40
369.43842,369.73425,80,70,40
369.83844,370.24234,79,70,40
373.19458,373.88925,87,50,40
373.8942,374.12735,86,50,40
374.1323,374.37708,86,50,40
374.3823,374.65942,84,50,40
374.6653,375.22,86,50,40
375.4153,376.5325,87,40,40
381.0403,381.4075,63,1,40
0.0,0.8159719,63,1,40
0.0,3.315971,55,125,40
3.333332,3.9999986,55,100,40
4.333332,6.3124986,56,125,40
6.333332,6.9999986,56,100,40
7.333332,10.6493025,55,125,40
7.333332,10.6493025,63,125,40
10.666664,11.333331,55,100,40
10.666664,11.333331,63,100,40
11.666664,13.645831,62,125,40
11.666664,13.645831,65,125,40
13.666664,14.333331,62,100,40
13.666664,14.333331,65,100,40
14.666664,17.64583,58,125,40
14.666664,17.64583,63,125,40
17.666664,18.39583,60,100,40
17.666664,18.39583,63,100,40
18.666664,21.64583,60,70,40
18.666664,21.64583,63,70,40
21.666664,23.739016,60,70,40
23.747028,24.868122,58,70,40
24.872028,25.993122,60,70,40
25.997028,27.118122,58,70,40
27.122028,27.493122,59,70,40
27.497028,28.243122,60,70,40
28.247028,28.993122,65,70,40
28.997028,29.743122,63,70,40
29.747028,30.118122,62,70,40
30.122028,30.512653,63,70,40
30.516764,30.715244,63,70,40
30.719467,30.917946,65,70,40
30.922169,31.302778,58,70,40
33.22986,33.610466,70,70,40
33.614475,33.995083,75,70,40
33.99909,34.3797,72,70,40
34.383705,34.572006,70,70,40
34.57601,34.764313,68,70,40
34.76832,34.95662,68,70,40
34.96063,35.14893,67,70,40
35.152935,35.409344,68,70,40
35.537548,35.91816,72,70,40
35.922165,36.302773,70,70,40
36.306778,36.68739,71,70,40
36.691395,37.072002,72,73,40
37.076008,37.45662,77,76,40
37.460625,37.841232,74,80,40
37.845238,38.22585,70,83,40
38.229855,38.610462,75,87,40
38.614468,38.99508,72,90,40
38.999084,39.187386,70,93,40
39.19139,39.379692,68,95,40
39.383698,39.572,68,97,40
39.576008,39.76431,67,99,40
39.768314,40.03498,58,100,40
39.768314,40.03498,65,100,40
40.168316,40.314148,58,104,40
40.368313,40.51415,58,105,40
40.368313,40.51415,63,105,40
40.568314,40.705032,58,107,40
40.568314,40.705032,63,107,40
40.755814,40.892532,58,109,40
40.755814,40.892532,63,109,40
40.943314,41.080032,58,110,40
40.943314,41.080032,63,110,40
41.130814,41.267532,58,110,40
41.130814,41.267532,63,110,40
41.318314,41.455032,58,110,40
41.318314,41.455032,63,110,40
41.505814,41.642532,58,110,40
41.505814,41.642532,63,110,40
41.693314,41.830032,58,110,40
41.693314,41.830032,63,110,40
41.880814,42.017532,58,110,40
41.880814,42.017532,63,110,40
42.068314,42.205032,58,110,40
42.068314,42.205032,63,110,40
42.255814,42.392532,58,110,40
42.255814,42.392532,63,110,40
42.443314,42.580032,58,110,40
42.443314,42.580032,62,110,40
42.630814,42.767532,58,110,40
42.630814,42.767532,62,110,40
42.818314,42.955032,58,110,40
42.818314,42.955032,62,110,40
43.005814,43.142532,58,110,40
43.005814,43.142532,62,110,40
43.193314,43.330032,58,110,40
43.193314,43.330032,62,110,40
43.380814,43.517532,58,110,40
43.380814,43.517532,62,110,40
43.568314,43.705032,58,110,40
43.568314,43.705032,62,110,40
43.755814,43.892532,58,110,40
43.755814,43.892532,62,110,40
43.943314,44.080032,62,110,40
43.943314,44.080032,58,110,40
44.130814,44.267532,62,110,40
44.130814,44.267532,58,110,40
44.318314,44.455032,63,110,40
44.318314,44.455032,58,110,40
44.505814,44.642532,65,110,40
44.505814,44.642532,58,110,40
44.693314,44.830032,58,110,40
44.693314,44.830032,62,110,40
44.880814,45.017532,58,110,40
44.880814,45.017532,62,110,40
45.068314,45.205032,58,110,40
45.068314,45.205032,63,110,40
45.255814,45.392532,58,110,40
45.255814,45.392532,63,110,40
45.443314,45.580032,58,110,40
45.443314,45.580032,63,110,40
45.630814,45.767532,58,110,40
45.630814,45.767532,63,110,40
45.818314,45.955032,58,110,40
45.818314,45.955032,63,110,40
46.005814,46.142532,58,110,40
46.005814,46.142532,63,110,40
46.193314,46.330032,58,110,40
46.193314,46.330032,63,110,40
46.380814,46.517532,58,110,40
46.380814,46.517532,63,110,40
46.568314,46.705032,63,110,40
46.755814,46.892532,61,110,40
46.943314,47.126907,62,125,40
47.130814,47.314407,65,110,40
47.318314,47.501907,65,110,40
47.505814,47.689407,65,110,40
47.693314,47.830032,65,110,40
47.880814,48.017532,65,110,40
48.068314,48.251907,65,125,40
48.068314,48.251907,75,125,40
48.255814,48.439407,67,110,40
48.255814,48.439407,75,110,40
48.443314,48.580032,67,110,40
48.443314,48.580032,75,110,40
48.630814,48.767532,67,110,40
48.630814,48.767532,75,110,40
48.818314,48.955032,65,110,40
48.818314,48.955032,74,110,40
49.005814,49.142532,65,110,40
49.005814,49.142532,74,110,40
49.193314,49.376907,74,125,40
49.380814,49.564407,75,110,40
49.568314,49.705032,68,110,40
49.755814,49.892532,67,110,40
49.943314,50.080032,67,110,40
50.130814,50.267532,68,110,40
50.318314,50.506615,65,125,40
50.51062,50.69892,67,110,40
50.70293,50.848763,60,110,40
50.902927,51.048763,72,110,40
51.10293,51.252758,65,110,40
51.308407,51.464657,56,110,40
51.308407,51.464657,62,110,40
51.522694,51.918526,55,110,40
51.522694,51.918526,63,110,40
56.381634,56.677467,62,70,40
56.78163,57.08979,60,70,40
58.761932,58.95268,75,70,40
58.956738,59.098785,74,70,40
59.151543,59.29359,72,70,40
59.346348,59.488396,70,70,40
59.541153,59.6832,69,70,40
59.73596,59.878002,74,70,40
59.930763,60.218914,67,70,40
60.320374,60.608524,70,70,40
60.709984,60.998135,62,70,40
61.099594,61.29034,60,70,40
61.099594,61.29034,62,70,40
61.2944,61.685036,72,76,40
61.689205,62.0904,70,88,40
62.094685,62.310677,66,100,40
62.31527,63.111103,55,70,40
62.31527,63.111103,67,70,40
63.115273,63.311104,57,83,40
63.31527,63.511105,58,87,40
63.51527,63.911102,60,90,40
63.91527,64.311104,57,97,40
64.31527,64.5111,58,104,40
64.515274,64.711105,60,107,40
64.71527,65.11111,57,110,40
65.11527,65.5111,72,100,40
65.515274,65.711105,70,93,40
65.71527,65.9111,69,89,40
65.91527,66.311104,69,85,40
66.31527,67.5111,67,77,40
67.515274,68.711105,62,69,40
68.71527,68.9111,60,63,40
68.91527,69.11111,58,62,40
69.11527,69.9111,57,61,40
69.91527,70.11111,64,56,40
70.11527,70.311104,62,60,40
70.31527,70.52509,61,63,40
70.52956,70.73938,73,67,40
70.74384,70.94643,72,70,40
70.95074,71.367455,66,70,40
71.37192,71.80875,67,70,40
71.81348,72.046616,69,70,40
72.051575,73.28897,70,70,40
73.29325,74.110886,69,92,40
74.11517,74.31637,67,107,40
74.32065,74.52185,66,110,40
74.52613,74.93281,69,110,40
74.93709,75.343765,63,94,40
75.348045,75.54924,62,78,40
75.55352,75.75472,60,70,40
75.759,76.16568,60,70,40
76.16996,76.58526,58,70,40
76.58972,76.799545,58,70,40
76.80401,77.02997,60,70,40
77.03478,77.26074,62,70,40
77.26555,77.46674,74,69,40
77.47102,77.8777,79,67,40
77.88199,78.69962,77,64,40
78.7039,79.11058,75,57,40
79.11486,79.52154,55,53,40
79.11486,79.72701,76,53,40
79.73129,79.932495,55,55,40
79.936775,80.34345,69,60,40
80.34773,80.75441,69,70,40
80.75869,80.908516,69,80,40
80.96417,81.114,70,85,40
81.16965,81.3259,62,90,40
81.16965,81.3259,70,90,40
81.383934,81.540184,81,95,40
81.59822,81.75906,79,100,40
81.81881,81.99242,78,85,40
82.0569,82.46923,74,70,40
82.890236,83.09423,75,85,40
83.098564,83.30256,74,89,40
83.3069,83.702736,74,93,40
84.1069,84.302734,75,90,40
84.3069,84.50273,74,80,40
84.5069,84.90273,58,70,40
84.5069,84.90273,62,70,40
85.3069,85.50273,63,85,40
85.5069,85.702736,62,89,40
85.7069,86.10274,62,93,40
86.51786,86.73072,63,90,40
86.73525,86.95779,62,80,40
86.962524,88.57502,79,100,40
88.579185,88.97502,78,97,40
88.97919,89.37502,79,104,40
89.37919,89.525024,79,110,40
89.579185,89.715904,77,110,40
89.766685,89.903404,75,110,40
89.954185,90.090904,74,110,40
90.141685,90.278404,72,110,40
90.329185,90.465904,70,110,40
90.516685,90.653404,64,110,40
90.704185,90.840904,63,110,40
90.891685,91.028404,75,110,40
91.079185,91.215904,74,110,40
91.266685,91.403404,74,110,40
91.454185,91.590904,72,110,40
91.641685,91.891685,62,110,40
91.641685,91.891685,70,110,40
92.016685,92.2731,55,120,40
92.401306,92.66797,55,120,40
92.8013,93.22541,55,120,40
94.51559,94.9397,70,70,40
94.94416,95.36826,70,70,40
95.37273,95.76856,70,70,40
95.77273,96.168564,72,70,40
96.17273,96.568565,72,70,40
96.57273,96.83939,62,110,40
96.57273,96.83939,71,110,40
96.97273,97.246704,55,110,40
97.38369,97.6694,55,110,40
97.812256,98.23637,55,110,40
99.52654,99.950645,71,70,40
99.95512,100.37922,71,70,40
100.38368,100.80779,71,70,40
100.812256,101.23636,72,70,40
101.24083,101.31775,72,70,40
101.31775,101.39467,74,66,40
101.39467,101.471596,72,61,40
101.471596,101.596596,70,57,40
101.596596,101.7466,72,50,40
103.346596,103.7707,57,50,40
103.77517,103.85209,57,50,40
103.85209,103.92901,58,50,40
103.92901,104.005936,57,50,40
104.005936,104.130936,55,50,40
104.130936,104.29968,57,50,40
104.29968,104.69899,55,110,40
104.29968,104.69899,62,110,40
104.29968,107.615654,71,110,40
107.63302,108.29968,55,110,40
107.63302,108.29968,62,110,40
107.63302,108.29968,71,110,40
108.63302,110.61218,62,125,40
108.63302,110.61218,66,125,40
110.63302,111.29968,62,110,40
110.63302,111.29968,66,110,40
111.63302,112.032326,55,110,40
111.63302,112.032326,62,110,40
111.63302,112.032326,71,110,40
111.63302,114.94899,79,110,40
114.96635,115.63302,55,110,40
114.96635,115.63302,62,110,40
114.96635,115.63302,71,110,40
114.96635,115.63302,79,110,40
115.96635,117.94552,78,125,40
117.96635,118.63302,78,110,40
118.96635,121.44899,71,125,40
118.96635,121.44899,79,125,40
121.46635,122.021904,79,110,40
122.29968,123.27885,67,100,40
122.29968,123.27885,76,100,40
123.29968,125.41039,55,70,40
123.29968,125.41039,64,70,40
125.435394,127.365974,55,70,40
125.435394,127.365974,64,70,40
127.775444,128.52155,69,70,40
128.52545,128.89655,62,70,40
128.90045,129.45905,67,70,40
129.46295,129.64655,64,70,40
129.65045,130.02155,69,70,40
130.02545,130.77155,66,70,40
130.77545,131.14655,67,70,40
131.15045,131.52155,65,70,40
131.52545,131.89655,64,70,40
131.90045,132.27155,57,70,40
132.27545,133.02155,69,70,40
133.02545,133.39655,59,70,40
133.40045,133.77155,71,70,40
133.77545,134.14655,72,70,40
134.15045,134.52155,60,70,40
134.52545,135.09836,62,70,40
134.52545,135.09836,72,70,40
135.10237,135.29066,66,70,40
135.29468,135.48297,67,70,40
135.48698,135.6753,69,70,40
135.67929,135.87512,71,70,40
135.87929,136.08911,59,70,40
136.09358,136.47418,64,70,40
136.4782,136.84929,69,73,40
136.8532,137.59929,66,77,40
137.6032,137.97429,71,84,40
137.9782,138.72429,67,88,40
138.7282,139.09929,72,96,40
139.1032,139.84929,69,99,40
139.8532,140.22429,74,107,40
140.2282,140.59929,71,110,40
140.6032,140.8532,67,110,40
140.9782,141.16649,67,110,40
141.1705,141.3588,69,110,40
141.36281,141.62947,71,110,40
142.16281,142.35864,76,96,40
142.36281,142.55864,78,89,40
142.5628,142.83678,79,82,40
143.38472,143.58592,71,70,40
143.59021,143.7914,72,70,40
143.79568,144.06966,74,70,40
144.6176,144.8188,69,70,40
144.82307,145.02428,71,70,40
145.02855,145.23837,72,70,40
145.24284,145.45267,74,70,40
145.45712,145.85297,71,70,40
146.65712,148.25296,67,70,40
148.25713,148.65295,72,70,40
148.65712,149.45296,69,70,40
149.45712,149.85297,74,70,40
149.85713,150.65295,71,70,40
150.65712,151.05296,75,70,40
151.05713,151.85297,72,70,40
151.85713,152.25296,71,70,40
152.25713,152.45296,72,70,40
152.45712,152.65295,74,70,40
152.65712,153.85297,75,70,40
153.85713,155.05296,74,80,40
155.05713,156.25296,79,90,40
156.25713,157.85297,77,100,40
157.85713,158.05296,75,110,40
158.05713,158.25296,77,110,40
158.25713,158.55296,79,110,40
159.05713,159.25296,72,110,40
159.25713,159.45296,74,110,40
159.45712,159.75296,75,110,40
160.25713,160.45296,72,110,40
160.45712,160.65295,74,110,40
160.65712,160.95296,76,110,40
161.45712,161.65295,72,110,40
161.65712,161.85297,76,110,40
161.85713,162.65295,77,100,40
162.65712,162.85297,75,70,40
162.85713,163.05296,77,70,40
163.05713,163.65295,79,70,40
163.65712,163.85297,63,67,40
163.85713,164.05296,65,64,40
164.05713,164.25296,63,60,40
164.25713,164.45833,60,57,40
164.4626,164.67242,65,53,40
164.6769,165.07272,63,50,40
165.87689,167.47272,60,50,40
167.4769,167.87273,65,50,40
167.87689,168.67273,62,50,40
168.6769,169.07272,67,50,40
169.07689,169.87273,63,50,40
169.87689,170.27272,68,55,40
170.27689,171.07272,65,61,40
171.07689,171.47272,70,73,40
171.4769,172.27272,67,79,40
172.27689,172.67273,60,91,40
172.6769,173.47272,65,97,40
173.4769,173.88358,58,109,40
173.88785,174.31195,63,115,40
174.31642,174.45847,63,120,40
174.51123,174.65327,57,120,40
174.51123,174.65327,66,120,40
174.70602,174.84274,57,120,40
174.70602,174.84274,66,120,40
174.89352,175.03024,57,120,40
174.89352,175.03024,66,120,40
175.08102,175.21774,57,120,40
175.08102,175.21774,66,120,40
175.26852,175.40524,57,120,40
175.26852,175.40524,66,120,40
175.45602,175.73337,57,120,40
175.45602,175.73337,66,120,40
175.73727,175.92087,69,120,40
175.83102,176.10837,78,120,40
176.11227,176.29587,69,120,40
176.20602,176.48337,78,120,40
176.58102,176.71774,78,120,40
176.76852,176.90524,75,120,40
176.95602,177.09274,72,120,40
177.14352,177.28024,69,120,40
177.33102,177.46774,66,120,40
177.51852,177.65524,63,120,40
177.70602,177.84274,75,120,40
177.89352,178.03024,72,120,40
178.08102,178.21774,69,120,40
178.26852,178.40524,72,120,40
178.26852,178.40524,69,120,40
178.45602,178.59274,72,120,40
178.45602,178.59274,69,120,40
178.64352,178.78024,60,120,40
178.83102,178.96774,61,120,40
178.83102,178.96774,65,120,40
179.01852,179.15524,61,120,40
179.01852,179.15524,65,120,40
179.20602,179.34274,61,120,40
179.20602,179.34274,65,120,40
179.39352,179.53024,61,120,40
179.39352,179.53024,65,120,40
179.58102,179.71774,61,120,40
179.58102,179.71774,65,120,40
179.76852,179.90524,61,120,40
179.76852,179.90524,65,120,40
179.95602,180.23337,61,120,40
179.95602,180.23337,65,120,40
180.23727,180.42087,70,120,40
180.33102,180.60837,77,120,40
180.61227,180.79587,70,120,40
180.70602,180.98337,77,120,40
181.08102,181.21774,77,120,40
181.26852,181.40524,73,120,40
181.45602,181.59274,70,120,40
181.64352,181.78024,65,120,40
181.83102,181.96774,61,120,40
182.01852,182.15524,58,120,40
182.20602,182.34274,77,120,40
182.39352,182.53024,73,120,40
182.58102,182.71774,70,120,40
182.76852,182.90524,65,120,40
182.95602,183.09274,61,120,40
183.14352,183.28024,58,120,40
183.33102,183.46774,59,120,40
183.33102,183.46774,68,120,40
183.51852,183.65524,59,120,40
183.51852,183.65524,68,120,40
183.70602,183.84274,59,120,40
183.70602,183.84274,68,120,40
183.89352,184.03024,59,120,40
183.89352,184.03024,68,120,40
184.08102,184.21774,59,120,40
184.08102,184.21774,68,120,40
184.26852,184.40524,59,120,40
184.26852,184.40524,68,120,40
184.45602,184.73337,59,120,40
184.45602,184.73337,68,120,40
184.73727,184.92087,71,120,40
184.83102,185.10837,80,120,40
185.11227,185.29587,71,120,40
185.20602,185.48337,80,120,40
185.48727,185.67087,71,120,40
185.58102,185.71774,80,120,40
185.76852,185.90524,77,120,40
185.95602,186.09274,77,120,40
186.14352,186.28024,71,120,40
186.33102,186.46774,68,120,40
186.51852,186.65524,65,120,40
186.70602,186.84274,77,120,40
186.89352,187.03024,71,120,40
187.08102,187.21774,65,120,40
187.08102,187.21774,71,120,40
187.26852,187.40524,65,120,40
187.26852,187.40524,71,120,40
187.45602,187.59274,65,120,40
187.45602,187.59274,71,120,40
187.64352,187.78024,65,120,40
187.64352,187.78024,71,120,40
187.83102,188.11548,60,120,40
188.21565,188.59625,72,120,40
188.60027,188.98087,67,120,40
188.98488,189.28072,60,120,40
189.38487,189.79155,79,120,40
189.79584,190.26926,76,120,40
190.2755,193.59148,72,120,40
190.2755,193.59148,76,120,40
193.60884,194.2755,55,120,40
193.60884,194.2755,64,120,40
193.60884,194.2755,72,120,40
193.60884,194.2755,76,120,40
194.60884,196.588,65,120,40
194.60884,196.588,71,120,40
196.60884,197.2755,65,120,40
196.60884,197.2755,71,120,40
197.60884,200.9248,64,120,40
197.60884,200.9248,76,120,40
200.94217,201.60884,72,120,40
200.94217,201.60884,76,120,40
201.94217,203.92134,71,120,40
201.94217,203.92134,79,120,40
203.94217,204.60884,71,120,40
203.94217,204.60884,79,120,40
204.94217,207.08055,72,120,40
204.94217,207.08055,79,120,40
207.08502,208.07219,64,95,40
208.0761,208.21281,64,70,40
208.2636,208.40031,62,70,40
208.4511,208.58781,64,70,40
208.6386,208.77531,65,70,40
208.8261,208.96281,67,70,40
209.0136,209.15031,69,70,40
209.2011,209.33781,71,70,40
209.3886,209.52531,72,70,40
209.5761,209.71281,74,70,40
209.7636,209.90031,76,70,40
209.9511,210.08781,64,70,40
210.1386,210.27531,64,70,40
210.3261,210.46281,64,70,40
210.5136,210.65031,65,70,40
210.7011,210.83781,65,70,40
210.8886,211.02531,64,70,40
211.0761,211.21281,62,70,40
211.2636,211.40031,62,70,40
211.4511,211.58781,60,70,40
211.6386,211.77531,60,70,40
211.8261,211.96281,79,70,40
212.0136,212.38469,79,70,40
212.3886,212.75969,84,70,40
212.7636,213.13469,81,70,40
213.1386,213.32219,79,70,40
213.3261,213.50969,77,70,40
213.5136,213.69719,77,70,40
213.7011,213.88469,76,70,40
213.8886,214.17937,77,80,40
214.28638,214.57083,76,110,40
214.67099,215.0516,73,110,40
215.0556,215.43622,70,110,40
215.44023,215.72469,67,70,40
215.82484,216.20544,61,70,40
216.20946,216.59006,58,70,40
216.59407,216.87852,61,70,40
216.97868,217.3593,67,70,40
217.3633,217.74391,73,70,40
217.74791,218.03236,72,70,40
218.13252,218.51314,56,70,40
218.51715,218.89775,60,70,40
218.90176,219.18622,65,110,40
219.28638,219.66698,72,110,40
219.67099,220.0516,68,110,40
220.0556,220.34006,65,70,40
220.44022,220.82083,72,70,40
220.82483,221.20544,77,70,40
221.20946,221.49391,80,70,40
221.59407,221.97467,84,70,40
221.97868,222.35928,80,70,40
222.3633,222.64775,79,70,40
222.74791,223.12852,64,70,40
223.13252,223.51314,61,70,40
223.51714,223.80159,55,110,40
223.90175,224.28236,73,110,40
224.28638,224.66698,70,110,40
224.67099,224.95544,67,70,40
225.0556,225.4362,76,70,40
225.44022,225.82082,75,70,40
225.82483,226.10928,73,70,40
226.20944,226.59006,64,70,40
226.59406,226.97467,61,70,40
226.97867,227.26312,58,70,40
227.3633,227.7439,60,70,40
227.74791,228.12851,56,70,40
228.13252,228.41698,60,110,40
228.51714,228.89775,75,110,40
228.90175,229.28236,72,110,40
229.28636,229.57082,68,70,40
229.67097,230.05159,68,70,40
230.05559,230.4362,63,70,40
230.44022,230.72467,60,70,40
230.82483,231.20543,63,70,40
231.20944,231.59004,72,70,40
231.59406,231.87851,73,70,40
231.97867,232.35928,55,70,40
232.36328,232.7439,58,70,40
232.7479,233.03235,64,110,40
233.13252,233.51312,70,110,40
233.51714,233.89774,65,110,40
233.90175,234.1862,64,70,40
234.28636,234.66696,67,70,40
234.67097,235.05159,70,70,40
235.05559,235.34563,73,70,40
235.05559,235.34563,64,70,40
235.44774,235.83582,70,85,40
235.8399,236.22797,67,100,40
236.23206,236.5279,64,100,40
236.63206,237.03874,72,100,40
237.04301,237.25284,68,85,40
237.25731,237.46712,67,77,40
237.47159,238.27316,65,70,40
238.27728,239.04251,70,70,40
239.04651,239.42712,63,70,40
239.43112,239.81174,72,70,40
239.81573,240.58096,65,70,40
240.58498,241.35019,68,70,40
241.3542,241.5425,67,70,40
241.54651,241.7348,65,70,40
241.73882,241.92712,63,70,40
241.93112,242.11943,62,70,40
242.12343,242.50404,60,70,40
242.50804,242.88866,65,70,40
242.89265,243.27327,59,70,40
242.89265,243.27327,62,70,40
243.27728,243.65788,58,70,40
243.27728,243.65788,62,70,40
243.6619,244.0425,63,70,40
244.04651,244.42711,60,70,40
244.43112,244.61942,58,70,40
244.62343,244.81174,56,70,40
244.81573,245.00404,56,70,40
245.00804,245.19635,55,70,40
245.20035,245.4848,56,70,40
245.58496,245.96558,55,70,40
247.12343,247.69633,79,70,40
247.70035,247.88866,77,70,40
248.27727,248.85019,77,70,40
248.85419,249.0425,75,70,40
249.43112,250.00403,75,70,40
250.00804,250.19633,75,70,40
250.20035,250.38864,74,70,40
250.39265,250.58095,75,70,40
250.58496,250.77327,77,70,40
250.77727,250.96558,79,70,40
250.96957,251.15788,80,70,40
251.16188,251.35019,82,70,40
251.35419,251.7348,84,70,40
252.31573,252.50403,65,78,40
252.50804,252.69633,58,80,40
252.70035,252.88864,62,82,40
252.89265,253.08095,63,83,40
253.08496,253.27325,62,85,40
253.27727,253.46556,63,87,40
253.46957,253.65787,60,88,40
253.66188,253.85019,58,90,40
253.85419,254.0425,68,92,40
254.0465,254.2348,68,94,40
254.2388,254.42711,67,95,40
254.4311,254.61942,65,97,40
254.62341,254.81172,68,99,40
254.81572,255.00403,68,100,40
255.00803,255.19633,67,100,40
255.20035,255.38864,67,100,40
255.39265,255.53287,58,100,40
255.39265,255.53287,63,100,40
255.58496,255.72517,58,110,40
255.58496,255.72517,63,110,40
255.77727,255.91748,58,110,40
255.77727,255.91748,63,110,40
255.96957,256.1098,58,110,40
255.96957,256.1098,63,110,40
256.16187,256.3021,58,110,40
256.16187,256.3021,63,110,40
256.3542,256.49442,58,110,40
256.3542,256.49442,63,110,40
256.5465,256.6867,58,110,40
256.5465,256.6867,63,110,40
256.7388,256.87903,58,110,40
256.7388,256.87903,63,110,40
256.93112,257.07132,58,110,40
257.1234,257.26364,58,110,40
257.31573,257.45593,58,110,40
257.50803,257.64825,58,110,40
257.70035,257.84058,58,110,40
257.89264,258.03287,58,110,40
258.08496,258.2252,58,110,40
258.27725,258.41748,58,110,40
258.46957,258.6098,58,110,40
258.66187,258.8021,58,110,40
258.8542,258.99442,58,110,40
259.04648,259.1867,58,110,40
259.2388,259.37903,58,110,40
259.4311,259.57132,58,110,40
259.4311,259.57132,63,110,40
259.6234,259.76364,58,110,40
259.6234,259.76364,63,110,40
259.81573,259.95593,58,110,40
259.81573,259.95593,63,110,40
260.00803,260.14825,58,110,40
260.00803,260.14825,63,110,40
260.20035,260.34055,58,110,40
260.20035,260.34055,63,110,40
260.39264,260.53287,58,110,40
260.39264,260.53287,63,110,40
260.58496,260.7252,58,110,40
260.58496,260.7252,63,110,40
260.77725,260.91748,58,110,40
260.77725,260.91748,63,110,40
260.96957,261.1098,58,110,40
260.96957,261.1098,63,110,40
261.16187,261.3021,58,110,40
261.16187,261.3021,63,110,40
261.3542,261.49442,58,110,40
261.3542,261.49442,63,110,40
261.54648,261.6867,58,110,40
261.54648,261.6867,63,110,40
261.7388,261.87903,60,110,40
261.7388,261.87903,63,110,40
261.9311,262.07132,60,110,40
261.9311,262.07132,63,110,40
262.1234,262.26364,60,110,40
262.1234,262.26364,63,110,40
262.3157,262.45593,60,110,40
262.3157,262.45593,63,110,40
262.50803,262.64825,60,110,40
262.50803,262.64825,63,110,40
262.70035,262.84055,60,110,40
262.70035,262.84055,63,110,40
262.89264,263.03287,60,110,40
262.89264,263.03287,63,110,40
263.08496,263.22516,60,110,40
263.08496,263.22516,63,110,40
263.27725,263.41748,60,110,40
263.27725,263.41748,63,110,40
263.46957,263.6098,60,110,40
263.46957,263.6098,63,110,40
263.66187,263.8021,60,110,40
263.66187,263.8021,63,110,40
263.8542,263.99442,60,110,40
263.8542,263.99442,63,110,40
264.04648,264.1867,61,110,40
264.04648,264.1867,63,110,40
264.2388,264.37903,61,110,40
264.2388,264.37903,63,110,40
264.4311,264.57132,61,110,40
264.4311,264.57132,63,110,40
264.6234,264.76364,61,110,40
264.6234,264.76364,63,110,40
264.8157,265.96555,75,110,40
265.96957,266.15787,77,110,40
266.16187,266.35016,79,110,40
266.3542,267.1194,82,110,40
267.1234,267.50403,80,110,40
267.50803,268.65787,78,110,40
268.66187,270.19632,77,125,40
270.20032,271.35016,79,125,40
271.35416,272.504,80,125,40
272.50803,272.65384,82,110,40
272.708,272.85385,84,110,40
272.90802,273.05783,85,110,40
273.1135,273.26974,55,110,40
273.3278,273.7519,56,110,40
276.58493,276.8516,67,70,40
276.98492,277.2516,65,70,40
277.38492,277.58075,68,70,40
277.58493,277.78076,70,70,40
277.7849,277.98074,70,70,40
277.98492,278.18076,72,70,40
278.18494,278.4516,72,70,40
278.58493,278.8516,72,70,40
278.98492,279.13077,71,70,40
279.18494,279.33075,72,70,40
279.38492,279.58075,72,70,40
279.58493,279.73074,70,70,40
279.7849,279.93076,68,70,40
279.98492,280.13077,67,70,40
280.18494,280.33075,65,70,40
280.38492,280.53076,70,70,40
280.58493,280.8516,63,70,40
280.98492,281.2516,68,70,40
281.38492,281.65158,62,70,40
281.7849,282.05157,67,70,40
282.18494,282.4516,60,70,40
282.58493,282.78076,65,70,40
282.7849,282.98074,63,70,40
282.98492,283.18076,56,70,40
282.98492,283.18076,62,70,40
283.18494,283.58075,74,77,40
283.58493,283.98074,75,93,40
283.98492,284.18076,77,80,40
284.18494,285.38077,79,65,40
285.38492,286.18076,77,86,40
286.18494,286.38077,75,100,40
286.38492,286.58075,74,103,40
286.58493,286.98074,77,107,40
286.98492,287.38077,71,110,40
287.38492,287.58075,70,104,40
287.58493,287.78076,68,100,40
287.7849,288.18076,68,97,40
288.18494,288.5916,67,90,40
288.5959,289.0327,68,83,40
289.03745,289.46155,70,80,40
289.466,289.87268,58,77,40
289.87695,290.2728,59,73,40
290.27698,291.6728,60,69,40
291.67697,291.8728,67,70,40
291.87695,292.07816,70,80,40
292.08246,292.28363,68,90,40
292.28793,292.49774,72,100,40
292.5022,292.93417,60,80,40
292.93845,293.33978,59,70,40
293.34393,293.75375,58,70,40
293.7582,293.9842,62,70,40
293.98898,294.1902,63,65,40
294.19446,294.38773,67,68,40
294.39185,294.58508,65,72,40
294.5892,294.78247,67,76,40
294.7866,294.97983,68,80,40
294.98395,295.1772,70,84,40
295.1813,295.37457,71,87,40
295.3787,295.57193,65,91,40
295.57605,295.76932,64,95,40
295.7734,295.96667,65,99,40
295.9708,296.16403,67,103,40
296.16815,296.36142,68,107,40
296.3655,296.55878,68,110,40
296.5629,296.75613,62,107,40
296.76025,296.95352,62,104,40
296.9576,297.15088,74,101,40
297.155,297.34824,75,98,40
297.35236,297.54562,77,95,40
297.5497,297.94034,77,92,40
297.94446,299.1517,75,86,40
299.15585,300.7517,63,77,40
300.75586,301.35168,64,61,40
301.35587,301.5517,64,66,40
301.55588,301.7517,67,72,40
301.75586,301.9017,65,78,40
301.95587,302.10168,65,84,40
302.15585,302.3017,77,90,40
302.35587,302.5017,77,110,40
302.55588,302.7017,75,110,40
302.75586,302.9057,75,110,40
302.96133,303.11118,72,110,40
303.1668,303.32535,75,110,40
303.38422,303.55783,74,90,40
303.6223,305.21814,75,110,40
305.22232,305.61813,74,100,40
305.6223,306.01816,75,90,40
306.0223,306.41815,70,80,40
306.0223,306.41815,75,80,40
306.8223,307.01816,60,90,40
307.0223,307.21814,58,95,40
307.22232,307.61813,58,100,40
308.03326,308.2431,60,87,40
308.24756,308.45737,58,80,40
308.46185,310.05768,63,100,40
310.06183,310.4685,62,97,40
310.4728,310.8969,63,104,40
310.90137,311.0472,63,110,40
311.10138,311.2381,70,110,40
311.28888,311.4256,68,110,40
311.47638,311.6131,67,110,40
311.66388,311.8006,65,110,40
311.85138,311.9881,63,110,40
312.03888,312.1756,68,110,40
312.22638,312.3631,68,110,40
312.41388,312.5506,67,110,40
312.60138,312.7381,74,110,40
312.78888,312.9256,75,110,40
312.97638,313.1131,77,110,40
313.16388,313.41388,79,110,40
313.53888,313.7986,55,110,40
313.53888,313.7986,63,110,40
313.92847,314.20245,55,110,40
313.92847,314.20245,63,110,40
314.33945,314.64337,55,120,40
314.33945,314.64337,63,120,40
315.90424,316.28485,75,70,40
316.28885,316.66946,75,70,40
316.67346,317.05408,77,70,40
317.05807,317.4387,65,70,40
317.05807,317.4387,74,70,40
317.4427,317.8233,65,70,40
317.4427,317.8233,74,70,40
317.8273,318.0837,67,110,40
317.8273,318.0837,75,110,40
318.2119,318.4786,55,110,40
318.2119,318.4786,63,110,40
318.61194,318.89764,55,110,40
318.61194,318.89764,63,110,40
319.0405,319.34445,55,110,40
319.0405,319.34445,63,110,40
320.60532,320.9859,75,70,40
320.98993,321.3705,75,70,40
321.37454,321.77036,77,70,40
321.77454,322.1812,68,70,40
322.1855,322.63495,68,70,40
324.35443,324.8183,68,70,40
324.82318,325.25977,67,70,40
325.69293,326.08878,56,70,40
326.09296,327.2888,68,70,40
327.29294,327.68878,67,70,40
327.69293,328.08878,63,70,40
328.09296,328.48877,68,70,40
328.49295,328.88876,65,70,40
328.89294,329.08878,65,70,40
329.09296,329.2888,64,70,40
329.29294,329.48877,64,70,40
329.49295,329.68878,62,70,40
329.69293,329.98877,64,70,40
330.09296,331.68878,65,70,40
331.69293,332.48877,63,70,40
332.49295,333.68878,62,70,40
333.69293,334.88876,63,70,40
334.89294,336.08878,68,70,40
336.09296,337.2888,67,70,40
337.29294,338.48877,65,70,40
338.49295,339.68878,67,70,40
339.69293,340.08878,72,70,40
340.09296,340.48877,77,71,40
340.49295,340.68878,74,73,40
340.69293,340.88876,72,74,40
340.89294,341.08878,72,75,40
341.09296,341.2888,70,76,40
341.29294,341.48877,70,77,40
341.49295,341.68878,69,78,40
341.69293,341.98877,70,79,40
342.09296,342.2888,72,81,40
342.29294,342.48877,70,82,40
342.49295,342.68878,70,83,40
342.69293,342.88876,69,84,40
342.89294,343.18878,70,85,40
343.29294,343.48877,84,86,40
343.49295,343.68878,82,87,40
343.69293,343.88876,82,88,40
343.89294,344.08878,81,89,40
344.09296,344.2888,82,90,40
344.29294,344.48877,70,91,40
344.49295,344.68878,72,92,40
344.69293,344.88876,70,93,40
344.89294,345.08878,70,94,40
345.09296,345.2888,69,95,40
345.29294,345.58878,70,96,40
345.69293,345.88876,70,98,40
345.69293,345.88876,77,98,40
345.89294,346.08878,75,99,40
346.09296,346.2888,75,100,40
346.29294,346.48877,74,100,40
346.49295,346.7888,75,90,40
346.89294,347.08878,74,70,40
347.09296,347.2888,72,72,40
347.29294,347.48877,72,75,40
347.49295,347.68878,71,77,40
347.69293,347.98877,65,80,40
347.69293,347.98877,72,80,40
348.09296,348.2888,74,85,40
348.29294,348.48877,72,88,40
348.49295,348.68878,72,90,40
348.69293,348.88876,71,93,40
348.89294,349.68878,65,95,40
348.89294,349.68878,72,95,40
349.69293,350.08878,67,100,40
349.69293,350.08878,70,100,40
350.09296,350.88876,68,94,40
350.89294,351.29962,67,80,40
351.3039,351.51373,68,73,40
351.5182,351.7374,70,70,40
351.74207,351.9379,74,70,40
351.94208,352.1379,72,71,40
352.14206,352.3379,72,72,40
352.34207,352.5379,71,74,40
352.54205,352.8379,72,75,40
352.94208,353.1379,74,78,40
353.14206,353.3379,72,79,40
353.34207,353.5379,72,81,40
353.54205,353.73788,71,82,40
353.74207,353.9379,65,84,40
353.74207,353.9379,72,84,40
353.94208,354.1379,65,85,40
354.14206,354.5379,67,86,40
354.54205,354.9379,68,89,40
354.94208,355.74875,70,92,40
355.75302,356.17712,72,98,40
356.18158,356.39758,73,100,40
356.4022,356.62814,75,85,40
356.63297,356.83414,75,70,40
356.83844,357.03427,68,70,40
357.03842,357.23425,68,70,40
357.23843,357.43427,67,70,40
357.43842,357.73425,68,70,40
357.83844,358.03427,72,70,40
358.03842,358.23425,70,69,40
358.23843,358.43427,70,68,40
358.43842,358.63428,69,67,40
358.63843,358.93427,70,66,40
359.03842,359.23425,75,63,40
359.23843,359.43427,74,62,40
359.43842,359.63428,74,61,40
359.63843,359.83426,72,59,40
359.83844,360.13428,74,58,40
360.23843,360.43427,77,56,40
360.43842,360.63428,75,54,40
360.63843,360.83426,75,53,40
360.83844,361.03427,74,52,40
361.03842,361.23425,75,51,40
361.23843,361.43427,73,50,40
361.43842,361.83426,72,50,40
361.83844,362.23425,77,55,40
362.23843,362.63428,74,60,40
362.63843,363.03427,70,65,40
363.03842,363.43427,75,70,40
363.43842,363.83426,72,75,40
363.83844,364.23425,74,80,40
364.23843,364.43427,77,85,40
364.43842,364.63428,75,88,40
364.63843,364.93427,70,90,40
364.63843,364.93427,77,90,40
365.03842,365.43427,70,90,40
365.03842,365.43427,79,90,40
365.43842,367.03427,75,88,40
367.03842,368.23425,77,77,40
368.23843,369.43427,75,70,40
369.43842,370.6505,74,70,40
370.65475,371.8919,75,70,40
371.89624,373.18997,74,70,40
373.19458,373.6513,67,50,40
373.19458,373.6513,75,50,40
373.6561,375.4075,68,50,40
375.4153,376.5325,67,40,40
0.0,3.315971,51,125,41
0.0,3.315971,58,125,41
3.333332,3.9999986,51,100,41
3.333332,3.9999986,58,100,41
4.333332,6.3124986,50,125,41
6.333332,6.9999986,50,100,41
7.333332,10.6493025,51,125,41
7.333332,10.6493025,58,125,41
10.666664,11.333331,51,100,41
10.666664,11.333331,58,100,41
11.666664,13.645831,58,125,41
11.666664,13.645831,53,125,41
13.666664,14.333331,53,100,41
13.666664,14.333331,58,100,41
14.666664,17.64583,51,125,41
14.666664,17.64583,55,125,41
17.666664,18.39583,51,100,41
18.666664,23.353611,51,70,41
23.362413,23.743021,48,70,41
23.747028,24.493122,53,70,41
24.497028,25.993122,51,70,41
25.997028,26.743122,50,70,41
26.747028,27.118122,51,70,41
27.122028,27.493122,49,70,41
27.497028,27.868122,48,70,41
27.872028,28.243122,56,70,41
28.247028,29.368122,58,70,41
29.372028,29.743122,56,70,41
29.747028,30.917946,53,70,41
30.922169,31.302778,55,70,41
31.306784,31.687393,56,70,41
31.691399,31.8797,58,70,41
31.883707,32.072006,59,70,41
32.076015,32.456623,60,70,41
32.46063,32.841236,65,70,41
32.845245,33.225853,62,70,41
33.22986,33.610466,58,70,41
33.614475,33.995083,63,70,41
33.99909,34.3797,60,70,41
34.383705,34.572006,58,70,41
34.57601,34.764313,56,70,41
34.76832,34.95662,56,70,41
34.96063,35.14893,55,70,41
35.152935,35.409344,56,70,41
35.537548,35.91816,60,70,41
35.922165,36.302773,58,70,41
36.306778,37.072002,51,70,41
37.076008,37.45662,48,76,41
37.460625,37.841232,53,80,41
37.845238,38.03354,58,83,41
38.037548,38.22585,55,85,41
38.229855,38.418156,56,87,41
38.42216,38.610462,58,88,41
38.614468,38.80277,51,90,41
38.806778,38.99508,53,92,41
38.999084,39.187386,55,93,41
39.19139,39.379692,53,95,41
39.383698,39.572,53,97,41
39.576008,39.76431,51,99,41
39.768314,40.03498,56,100,41
39.768314,40.03498,53,100,41
40.168316,40.314148,55,104,41
40.368313,40.51415,51,105,41
40.368313,40.51415,55,105,41
40.568314,40.705032,51,107,41
40.568314,40.705032,55,107,41
40.755814,40.892532,51,109,41
40.755814,40.892532,55,109,41
40.943314,41.080032,51,110,41
40.943314,41.080032,55,110,41
41.130814,41.267532,51,110,41
41.130814,41.267532,55,110,41
41.318314,41.455032,51,110,41
41.318314,41.455032,55,110,41
41.505814,41.642532,51,110,41
41.505814,41.642532,55,110,41
41.693314,41.830032,51,110,41
41.693314,41.830032,55,110,41
41.880814,42.017532,51,110,41
41.880814,42.017532,55,110,41
42.068314,42.205032,51,110,41
42.068314,42.205032,55,110,41
42.255814,42.392532,51,110,41
42.255814,42.392532,55,110,41
42.443314,42.580032,53,110,41
42.443314,42.580032,56,110,41
42.630814,42.767532,53,110,41
42.630814,42.767532,56,110,41
42.818314,42.955032,53,110,41
42.818314,42.955032,56,110,41
43.005814,43.142532,53,110,41
43.005814,43.142532,56,110,41
43.193314,43.330032,53,110,41
43.193314,43.330032,56,110,41
43.380814,43.517532,53,110,41
43.380814,43.517532,56,110,41
43.568314,43.705032,53,110,41
43.568314,43.705032,56,110,41
43.755814,43.892532,53,110,41
43.755814,43.892532,56,110,41
43.943314,44.080032,53,110,41
43.943314,44.080032,56,110,41
44.130814,44.267532,53,110,41
44.130814,44.267532,56,110,41
44.318314,44.455032,53,110,41
44.318314,44.455032,56,110,41
44.505814,44.642532,53,110,41
44.505814,44.642532,56,110,41
44.693314,44.830032,50,110,41
44.693314,44.830032,58,110,41
44.880814,45.017532,50,110,41
44.880814,45.017532,58,110,41
45.068314,45.205032,58,110,41
45.068314,45.205032,51,110,41
45.255814,45.392532,51,110,41
45.255814,45.392532,55,110,41
45.443314,45.580032,51,110,41
45.443314,45.580032,55,110,41
45.630814,45.767532,51,110,41
45.630814,45.767532,55,110,41
45.818314,45.955032,51,110,41
45.818314,45.955032,55,110,41
46.005814,46.142532,51,110,41
46.005814,46.142532,55,110,41
46.193314,46.330032,51,110,41
46.193314,46.330032,55,110,41
46.380814,46.517532,51,110,41
46.380814,46.517532,55,110,41
46.568314,46.705032,56,110,41
46.755814,46.892532,58,110,41
46.943314,47.126907,48,125,41
47.130814,47.314407,48,110,41
47.318314,47.501907,48,110,41
47.505814,47.689407,48,110,41
47.693314,47.830032,50,110,41
47.880814,48.017532,48,110,41
48.068314,48.251907,48,125,41
48.255814,48.439407,58,110,41
48.443314,48.580032,58,110,41
48.630814,48.767532,58,110,41
48.818314,48.955032,56,110,41
49.005814,49.142532,56,110,41
49.193314,49.376907,53,125,41
49.380814,49.564407,51,110,41
49.568314,49.705032,59,110,41
49.755814,49.892532,60,110,41
49.943314,50.080032,55,110,41
50.130814,50.267532,56,110,41
50.318314,50.506615,56,125,41
50.51062,50.69892,55,110,41
50.70293,50.848763,53,110,41
50.902927,51.048763,51,110,41
51.10293,51.252758,50,110,41
51.308407,51.464657,53,110,41
51.522694,51.918526,51,110,41
55.212803,55.598354,48,70,41
55.602413,55.987965,55,70,41
55.992023,56.777466,56,70,41
56.78163,57.08979,55,70,41
57.1983,57.34413,62,70,41
57.3983,57.540344,63,70,41
57.593105,57.78385,63,70,41
57.78791,57.929955,62,70,41
57.982716,58.12476,60,70,41
58.177517,58.319565,58,70,41
58.372322,58.51437,57,70,41
58.567127,58.709175,62,70,41
58.761932,59.050083,55,70,41
59.151543,59.439693,60,70,41
59.541153,59.829304,54,70,41
59.930763,60.218914,58,70,41
60.320374,60.608524,50,70,41
60.709984,60.90073,54,70,41
60.90479,61.095535,55,70,41
61.099594,61.29034,57,70,41
61.2944,61.685036,62,76,41
61.689205,62.0904,50,88,41
62.094685,62.310677,50,100,41
62.094685,62.310677,60,100,41
62.31527,62.711105,50,70,41
62.31527,62.711105,58,70,41
62.71527,63.111103,50,76,41
63.115273,63.311104,48,83,41
63.31527,63.511105,50,87,41
63.51527,63.911102,51,90,41
63.91527,64.311104,48,97,41
64.31527,64.5111,50,104,41
64.515274,64.711105,51,107,41
64.71527,65.5111,48,110,41
65.515274,65.711105,50,93,41
65.71527,66.311104,51,89,41
66.31527,66.711105,50,77,41
66.71527,66.9111,48,70,41
66.91527,69.11111,55,70,41
69.11527,69.9111,67,61,41
69.91527,70.11111,52,56,41
70.11527,70.311104,54,60,41
70.31527,70.73938,55,63,41
70.74384,70.94643,57,70,41
70.95074,71.367455,50,70,41
70.95074,71.367455,57,70,41
71.37192,71.80875,50,70,41
71.37192,71.80875,58,70,41
71.81348,72.046616,50,70,41
71.81348,72.046616,60,70,41
72.47134,73.28897,67,77,41
73.29325,73.90541,66,92,41
73.90969,74.110886,63,103,41
72.051575,74.31637,55,70,41
74.11517,74.31637,62,107,41
74.32065,74.52185,60,110,41
74.52613,75.343765,66,110,41
75.348045,75.54924,67,78,41
75.55352,75.75472,69,70,41
75.759,76.16568,66,70,41
76.16996,77.8777,67,70,41
77.88199,78.69962,62,64,41
78.7039,79.11058,63,57,41
79.52582,79.72701,67,50,41
79.73129,79.932495,64,55,41
74.52613,80.34345,55,110,41
79.936775,80.34345,62,60,41
80.34773,80.54893,61,70,41
80.553215,80.75441,55,75,41
80.75869,80.908516,60,80,41
80.75869,80.908516,63,80,41
80.96417,81.114,58,85,41
80.96417,81.114,62,85,41
81.16965,81.3259,58,90,41
81.16965,81.3259,62,90,41
81.383934,81.540184,75,95,41
81.59822,81.75906,74,100,41
81.81881,81.99242,74,85,41
82.0569,83.702736,67,111,41
83.7069,84.10274,66,111,41
84.1069,84.50273,67,90,41
84.5069,84.90273,50,70,41
85.3069,85.50273,51,85,41
85.5069,85.702736,50,89,41
85.7069,86.10274,50,93,41
86.51786,86.73072,51,90,41
86.73525,86.95779,50,80,41
86.962524,88.57502,67,101,41
88.579185,88.97502,66,97,41
88.97919,89.37502,67,104,41
89.37919,89.525024,55,110,41
89.579185,89.715904,65,110,41
89.766685,89.903404,63,110,41
89.954185,90.090904,62,110,41
90.141685,90.278404,60,110,41
90.329185,90.465904,58,110,41
90.516685,90.653404,61,110,41
90.704185,90.840904,60,110,41
90.891685,91.028404,48,110,41
91.079185,91.215904,58,110,41
91.266685,91.403404,57,110,41
91.454185,91.590904,50,110,41
91.454185,91.590904,57,110,41
91.641685,91.891685,50,110,41
91.641685,91.891685,55,110,41
92.016685,92.2731,55,120,41
92.401306,92.66797,55,120,41
92.8013,93.08702,55,120,41
93.22987,93.653984,62,70,41
93.65845,94.08255,62,70,41
94.08701,96.568565,62,70,41
96.57273,96.83939,55,110,41
96.57273,96.83939,62,110,41
96.97273,97.246704,55,110,41
97.38369,97.6694,55,110,41
98.24083,98.66493,62,70,41
98.6694,99.093506,62,70,41
99.09797,101.74035,62,70,41
103.346596,103.7707,60,50,41
103.77517,103.85209,60,50,41
103.85209,103.92901,62,50,41
103.92901,104.005936,60,50,41
104.005936,104.130936,59,50,41
104.130936,104.29968,60,50,41
104.29968,107.615654,50,110,41
104.29968,107.615654,59,110,41
107.63302,108.29968,50,110,41
107.63302,108.29968,59,110,41
108.63302,110.61218,50,125,41
108.63302,110.61218,60,125,41
110.63302,111.29968,60,110,41
110.63302,111.29968,50,110,41
111.63302,114.94899,50,110,41
111.63302,114.94899,59,110,41
114.96635,115.63302,50,110,41
114.96635,115.63302,59,110,41
115.96635,117.94552,50,125,41
115.96635,117.94552,62,125,41
117.96635,118.63302,62,110,41
117.96635,118.63302,50,110,41
118.96635,121.44899,55,125,41
118.96635,121.44899,62,125,41
121.46635,122.021904,55,110,41
121.46635,122.021904,67,110,41
122.29968,125.41039,48,100,41
122.29968,125.41039,55,100,41
125.435394,127.365974,48,70,41
125.435394,127.365974,55,70,41
127.37545,127.77128,48,70,41
127.775444,128.14655,60,70,41
128.15045,128.52155,62,70,41
128.90045,129.64655,55,70,41
129.65045,130.02155,60,70,41
130.02545,130.39655,57,70,41
130.40045,130.77155,62,70,41
130.77545,131.89655,55,70,41
131.90045,133.02155,48,70,41
133.02545,133.77155,50,70,41
133.77545,134.14655,52,70,41
134.15045,134.52155,64,70,41
134.52545,134.71375,54,70,41
134.71776,134.90605,66,70,41
134.91006,135.09836,62,70,41
135.10237,135.29066,60,70,41
135.29468,135.48297,59,70,41
135.48698,135.6753,57,70,41
135.67929,135.87512,55,70,41
135.87929,136.08911,53,70,41
136.09358,136.47418,52,70,41
136.4782,136.84929,57,73,41
136.8532,137.59929,54,77,41
137.6032,137.97429,59,84,41
137.9782,138.72429,55,88,41
138.7282,139.09929,60,96,41
139.1032,139.84929,57,99,41
139.8532,140.22429,62,107,41
140.2282,140.59929,59,110,41
140.6032,140.8532,55,110,41
140.9782,141.16649,55,110,41
141.1705,141.3588,57,110,41
141.36281,141.62947,59,110,41
142.16281,142.35864,64,96,41
142.36281,142.55864,66,89,41
142.5628,142.83678,67,82,41
143.38472,143.58592,59,70,41
143.59021,143.7914,60,70,41
143.79568,144.06966,62,70,41
144.6176,144.8188,57,70,41
144.82307,145.02428,59,70,41
145.02855,145.23837,60,70,41
145.24284,145.45267,62,70,41
145.45712,145.85297,59,70,41
146.25713,147.05296,60,70,41
147.05713,147.45296,59,70,41
147.45712,147.85297,62,70,41
147.85713,149.05296,55,70,41
149.05713,150.25296,53,70,41
150.25713,151.45296,51,70,41
151.45712,152.65295,50,70,41
152.65712,153.85297,48,70,41
153.85713,155.05296,53,80,41
153.85713,155.45296,55,80,41
155.45712,155.85297,60,93,41
155.85713,156.65295,57,97,41
156.65712,157.05296,55,104,41
157.05713,157.25296,57,107,41
157.25713,157.45296,59,109,41
157.45712,158.65295,48,110,41
157.45712,158.65295,60,110,41
158.65712,159.85297,48,110,41
158.65712,159.85297,60,110,41
159.85713,162.25296,48,110,41
159.85713,162.25296,60,110,41
162.25713,162.65295,48,70,41
162.65712,163.65295,67,70,41
163.65712,163.85297,60,67,41
163.85713,164.05296,59,64,41
164.05713,164.25296,60,60,41
164.25713,164.45833,51,57,41
164.4626,164.67242,50,53,41
164.6769,164.87273,48,50,41
164.87689,165.07272,55,50,41
165.07689,165.47272,68,50,41
165.4769,165.67273,67,50,41
165.6769,165.87273,71,50,41
165.87689,166.27272,72,50,41
167.4769,167.87273,60,50,41
167.87689,168.27272,65,50,41
168.27689,168.67273,53,50,41
168.6769,169.07272,51,50,41
169.07689,169.47272,55,50,41
169.4769,170.67273,60,50,41
170.6769,171.87273,58,67,41
171.87689,173.07272,56,85,41
173.07689,174.31195,55,103,41
173.88785,174.31195,67,115,41
174.31642,174.45847,66,120,41
174.51123,174.65327,60,120,41
174.51123,174.65327,63,120,41
174.70602,174.84274,60,120,41
174.70602,174.84274,63,120,41
174.89352,175.03024,60,120,41
174.89352,175.03024,63,120,41
175.08102,175.21774,60,120,41
175.08102,175.21774,63,120,41
175.26852,175.40524,60,120,41
175.26852,175.40524,63,120,41
175.45602,175.59274,60,120,41
175.45602,175.59274,63,120,41
175.64352,175.78024,63,120,41
175.83102,175.96774,60,120,41
176.01852,176.15524,57,120,41
176.20602,176.34274,55,120,41
176.39352,176.53024,51,120,41
176.58102,176.85837,63,120,41
176.86227,177.04587,57,120,41
176.95602,177.23337,66,120,41
177.23727,177.42087,57,120,41
177.33102,177.60837,66,120,41
177.61227,177.79587,57,120,41
177.70602,177.98337,66,120,41
177.98727,178.17087,48,120,41
178.08102,178.35837,54,120,41
178.36227,178.54587,48,120,41
178.45602,178.73337,54,120,41
178.83102,178.96774,53,120,41
179.01852,179.15524,58,120,41
179.01852,179.15524,49,120,41
179.20602,179.34274,58,120,41
179.20602,179.34274,49,120,41
179.39352,179.53024,58,120,41
179.39352,179.53024,49,120,41
179.58102,179.71774,58,120,41
179.58102,179.71774,49,120,41
179.76852,179.90524,58,120,41
179.76852,179.90524,49,120,41
179.95602,180.09274,70,120,41
180.14352,180.28024,65,120,41
180.33102,180.46774,61,120,41
180.51852,180.65524,58,120,41
180.70602,180.84274,53,120,41
180.89352,181.03024,49,120,41
181.08102,181.35837,65,120,41
181.36227,181.54587,58,120,41
181.45602,181.73337,65,120,41
181.73727,181.92087,58,120,41
181.83102,182.10837,65,120,41
182.11227,182.29587,58,120,41
182.20602,182.48337,65,120,41
182.48727,182.67087,49,120,41
182.58102,182.85837,53,120,41
182.86227,183.04587,53,120,41
182.95602,183.23337,58,120,41
183.33102,183.46774,53,120,41
183.33102,183.46774,56,120,41
183.51852,183.65524,53,120,41
183.51852,183.65524,56,120,41
183.70602,183.84274,53,120,41
183.70602,183.84274,56,120,41
183.89352,184.03024,53,120,41
183.89352,184.03024,56,120,41
184.08102,184.21774,53,120,41
184.08102,184.21774,56,120,41
184.26852,184.40524,53,120,41
184.26852,184.40524,56,120,41
184.45602,184.59274,68,120,41
184.64352,184.78024,65,120,41
184.83102,184.96774,59,120,41
185.01852,185.15524,56,120,41
185.20602,185.34274,53,120,41
185.39352,185.53024,50,120,41
185.58102,185.85837,53,120,41
185.58102,185.85837,56,120,41
185.86227,186.04587,59,120,41
185.95602,186.23337,68,120,41
186.23727,186.42087,59,120,41
186.33102,186.60837,68,120,41
186.61227,186.79587,59,120,41
186.70602,186.98337,68,120,41
186.98727,187.17087,49,120,41
187.08102,187.35837,56,120,41
187.36227,187.54587,49,120,41
187.45602,187.73337,56,120,41
187.83102,188.11548,48,120,41
188.21565,188.59625,60,120,41
188.60027,188.98087,55,120,41
188.98488,189.28072,48,120,41
189.38487,189.79155,67,120,41
189.79584,190.26926,64,120,41
190.2755,193.59148,48,120,41
190.2755,193.59148,55,120,41
193.60884,194.2755,48,120,41
193.60884,194.2755,55,120,41
194.60884,196.588,50,120,41
194.60884,196.588,55,120,41
196.60884,197.2755,50,120,41
196.60884,197.2755,55,120,41
197.60884,200.9248,48,120,41
197.60884,200.9248,55,120,41
200.94217,201.60884,48,120,41
200.94217,201.60884,55,120,41
201.94217,203.92134,50,120,41
201.94217,203.92134,59,120,41
203.94217,204.60884,50,120,41
203.94217,204.60884,59,120,41
204.94217,207.88469,48,120,41
204.94217,207.88469,55,120,41
209.7636,210.13469,67,70,41
210.1386,210.50969,72,70,41
210.5136,210.88469,69,70,41
210.8886,211.07219,67,70,41
211.0761,211.25969,65,70,41
211.2636,211.44719,65,70,41
211.4511,211.63469,64,70,41
211.6386,211.91594,65,70,41
212.0136,212.38469,64,70,41
212.5761,212.71281,64,70,41
212.7636,212.90031,62,70,41
212.9511,213.08781,64,70,41
213.1386,213.27531,65,70,41
213.3261,213.46281,67,70,41
213.5136,213.65031,69,70,41
213.7011,213.83781,71,70,41
213.8886,214.02882,72,80,41
214.0809,214.23073,74,90,41
214.28638,214.57083,55,110,41
214.28638,214.57083,67,110,41
214.67099,215.0516,61,110,41
215.0556,215.43622,58,110,41
215.44023,215.72469,55,70,41
215.82484,216.20544,58,70,41
216.20946,216.59006,55,70,41
216.59407,216.87852,58,70,41
216.97868,217.3593,55,70,41
217.3633,217.74391,61,70,41
217.74791,218.03236,60,70,41
218.13252,218.51314,72,70,41
218.51715,218.89775,68,70,41
218.90176,219.18622,53,110,41
219.28638,219.66698,60,110,41
219.67099,220.0516,56,110,41
220.0556,220.34006,53,70,41
220.44022,220.82083,68,70,41
220.82483,221.20544,65,70,41
221.20946,221.49391,60,70,41
221.59407,221.97467,48,70,41
221.97868,222.35928,56,70,41
222.3633,222.64775,49,70,41
222.3633,222.64775,58,70,41
222.74791,223.12852,70,70,41
223.13252,223.51314,67,70,41
223.51714,223.80159,55,110,41
223.51714,223.80159,67,110,41
223.90175,224.28236,61,110,41
224.28638,224.66698,58,110,41
224.67099,224.95544,55,70,41
225.0556,225.4362,58,70,41
225.44022,225.82082,61,70,41
225.82483,226.10928,67,70,41
226.20944,226.59006,49,70,41
226.59406,226.97467,51,70,41
226.97867,227.26312,52,70,41
227.3633,227.7439,48,70,41
227.74791,228.12851,51,70,41
228.13252,228.41698,51,110,41
228.51714,228.89775,63,110,41
228.90175,229.28236,60,110,41
229.28636,229.57082,56,70,41
229.67097,230.05159,60,70,41
230.05559,230.4362,56,70,41
230.44022,230.72467,51,70,41
230.82483,231.20543,60,70,41
231.20944,231.59004,51,70,41
231.59406,231.87851,52,70,41
231.97867,232.35928,58,70,41
232.36328,232.7439,53,70,41
232.7479,233.03235,52,110,41
233.13252,233.51312,58,110,41
233.51714,233.89774,53,110,41
233.90175,234.1862,52,70,41
234.28636,234.66696,64,70,41
234.67097,235.05159,67,70,41
235.05559,235.34563,58,70,41
235.44774,235.83582,58,85,41
235.8399,236.22797,55,100,41
236.23206,236.5279,52,100,41
236.63206,237.03874,60,100,41
237.04301,237.25284,56,85,41
237.25731,237.46712,58,77,41
236.63206,237.67279,48,100,41
237.47159,237.67279,60,70,41
237.67706,237.87827,48,70,41
237.88254,238.0758,50,70,41
238.07991,238.27316,51,70,41
238.27728,238.8502,53,70,41
238.8542,239.04251,50,70,41
239.04651,239.23482,51,70,41
239.23882,239.42712,53,70,41
239.43112,239.81174,51,70,41
239.81573,240.19635,50,70,41
240.20036,241.35019,58,70,41
241.3542,241.5425,58,70,41
241.54651,241.7348,56,70,41
241.73882,241.92712,55,70,41
241.93112,242.11943,53,70,41
242.12343,242.31174,51,70,41
242.31573,242.50404,50,70,41
242.50804,242.69635,48,70,41
242.70035,242.88866,60,70,41
242.89265,243.08096,53,70,41
243.08496,243.46558,65,70,41
243.46959,243.65788,53,70,41
243.6619,244.0425,58,70,41
244.04651,244.61942,51,70,41
244.62343,244.81174,48,70,41
244.81573,245.58096,50,70,41
245.58496,245.77327,51,70,41
245.77727,245.96558,55,70,41
245.96957,246.15788,56,70,41
246.1619,246.35019,58,70,41
246.3542,246.5425,60,70,41
246.54651,246.7348,62,70,41
246.73882,246.92711,62,70,41
246.93112,247.11942,63,70,41
247.89265,248.08096,60,70,41
248.08496,248.27327,62,70,41
249.0465,249.2348,58,70,41
249.0465,249.42711,63,70,41
249.23882,249.42711,60,70,41
249.43112,250.00403,60,70,41
249.43112,250.00403,63,70,41
250.00804,250.19633,60,70,41
250.20035,250.38864,58,70,41
250.39265,250.58095,56,70,41
250.58496,250.77327,55,70,41
250.77727,250.96558,53,70,41
250.96957,251.15788,51,70,41
251.16188,251.35019,49,70,41
251.35419,251.5425,48,70,41
251.5465,251.7348,52,71,41
251.7388,251.92711,53,73,41
251.9311,252.11942,52,75,41
252.12343,252.31172,53,76,41
252.31573,252.50403,50,78,41
252.50804,252.69633,51,80,41
252.70035,252.88864,50,82,41
252.89265,253.08095,51,83,41
253.08496,253.27325,50,85,41
253.27727,253.46556,51,87,41
253.46957,253.65787,48,88,41
253.66188,254.0425,58,90,41
254.0465,254.42711,58,94,41
254.4311,254.81172,58,97,41
254.81572,254.95595,51,100,41
254.81572,254.95595,58,100,41
255.00803,255.14825,51,100,41
255.00803,255.14825,58,100,41
255.20035,255.34056,51,100,41
255.20035,255.34056,58,100,41
255.39265,255.53287,51,100,41
255.39265,255.53287,55,100,41
255.58496,255.72517,51,110,41
255.58496,255.72517,55,110,41
255.77727,255.91748,51,110,41
255.77727,255.91748,55,110,41
255.96957,256.1098,51,110,41
255.96957,256.1098,55,110,41
256.16187,256.3021,51,110,41
256.16187,256.3021,55,110,41
256.3542,256.49442,51,110,41
256.3542,256.49442,55,110,41
256.5465,256.6867,51,110,41
256.5465,256.6867,55,110,41
256.7388,256.87903,51,110,41
256.7388,256.87903,55,110,41
256.93112,257.07132,51,110,41
256.93112,257.07132,55,110,41
257.1234,257.26364,53,110,41
257.1234,257.26364,56,110,41
257.31573,257.45593,53,110,41
257.31573,257.45593,56,110,41
257.50803,257.64825,53,110,41
257.50803,257.64825,56,110,41
257.70035,257.84058,53,110,41
257.70035,257.84058,56,110,41
257.89264,258.03287,53,110,41
257.89264,258.03287,56,110,41
258.08496,258.2252,53,110,41
258.08496,258.2252,56,110,41
258.27725,258.41748,50,110,41
258.46957,258.6098,50,110,41
258.66187,258.8021,50,110,41
258.8542,258.99442,50,110,41
259.04648,259.1867,50,110,41
259.2388,259.37903,50,110,41
259.4311,259.57132,51,110,41
259.4311,259.57132,55,110,41
259.6234,259.76364,51,110,41
259.6234,259.76364,55,110,41
259.81573,259.95593,51,110,41
259.81573,259.95593,55,110,41
260.00803,260.14825,51,110,41
260.00803,260.14825,55,110,41
260.20035,260.34055,51,110,41
260.20035,260.34055,55,110,41
260.39264,260.53287,51,110,41
260.39264,260.53287,55,110,41
260.58496,260.7252,51,110,41
260.58496,260.7252,55,110,41
260.77725,260.91748,51,110,41
260.77725,260.91748,55,110,41
260.96957,261.1098,51,110,41
260.96957,261.1098,55,110,41
261.16187,261.3021,51,110,41
261.16187,261.3021,55,110,41
261.3542,261.49442,51,110,41
261.3542,261.49442,55,110,41
261.54648,261.6867,51,110,41
261.54648,261.6867,55,110,41
261.7388,261.87903,51,110,41
261.7388,261.87903,56,110,41
261.9311,262.07132,51,110,41
261.9311,262.07132,56,110,41
262.1234,262.26364,51,110,41
262.1234,262.26364,56,110,41
262.3157,262.45593,51,110,41
262.3157,262.45593,56,110,41
262.50803,263.65787,68,110,41
263.66187,263.85016,70,110,41
263.8542,264.04248,72,110,41
264.04648,264.8117,75,110,41
264.8157,265.00403,73,110,41
265.00803,265.19632,72,110,41
265.20032,265.38864,72,110,41
265.39264,265.53287,70,110,41
265.58496,265.72516,68,110,41
265.77725,265.91748,67,110,41
265.96957,266.10977,65,110,41
266.16187,266.3021,61,110,41
266.3542,266.49442,60,110,41
266.54648,266.6867,51,110,41
266.54648,266.6867,60,110,41
266.7388,266.87903,51,110,41
266.7388,266.87903,60,110,41
266.9311,267.07132,51,110,41
266.9311,267.07132,60,110,41
267.1234,267.26364,51,110,41
267.1234,267.26364,60,110,41
267.3157,267.45593,51,110,41
267.3157,267.45593,60,110,41
267.50803,267.64825,51,110,41
267.50803,267.64825,56,110,41
267.70032,267.84055,54,110,41
267.89264,268.03287,54,110,41
268.08493,268.22516,54,110,41
268.27725,268.41748,54,110,41
268.46954,268.60977,48,110,41
268.46954,268.60977,56,110,41
268.66187,268.8021,56,125,41
268.66187,268.8021,49,125,41
268.8542,268.9944,56,110,41
268.8542,268.9944,49,110,41
269.04648,269.1867,56,110,41
269.04648,269.1867,49,110,41
269.2388,269.379,58,110,41
269.2388,269.379,49,110,41
269.4311,269.57132,58,110,41
269.4311,269.57132,49,110,41
269.6234,269.76364,58,110,41
269.6234,269.76364,49,110,41
269.8157,269.95593,58,125,41
269.8157,269.95593,51,125,41
270.00803,270.14825,58,110,41
270.00803,270.14825,51,110,41
270.20032,270.34055,58,110,41
270.20032,270.34055,51,110,41
270.39264,270.53287,60,110,41
270.39264,270.53287,51,110,41
270.58493,270.72516,62,110,41
270.58493,270.72516,51,110,41
270.77725,270.91748,55,110,41
270.77725,270.91748,51,110,41
270.96954,271.10977,55,125,41
270.96954,271.10977,48,125,41
271.16187,271.3021,60,110,41
271.16187,271.3021,48,110,41
271.35416,271.4944,60,110,41
271.35416,271.4944,48,110,41
271.54648,271.6867,60,110,41
271.54648,271.6867,48,110,41
271.7388,271.879,58,110,41
271.7388,271.879,53,110,41
271.9311,272.07132,58,110,41
271.9311,272.07132,53,110,41
272.1234,272.3117,50,125,41
272.1234,272.3117,58,125,41
272.3157,272.45593,51,110,41
272.3157,272.504,60,110,41
272.50803,272.65384,51,110,41
272.50803,272.70386,55,110,41
272.708,272.85385,51,110,41
272.708,272.90384,56,110,41
272.90802,273.05783,51,110,41
272.90802,273.10922,58,110,41
273.1135,273.3233,63,110,41
273.3278,273.7519,56,110,41
274.18494,274.33075,72,70,41
274.38492,274.53076,73,70,41
274.58493,274.78076,73,70,41
274.7849,274.93076,72,70,41
274.98492,275.13077,70,70,41
275.18494,275.33075,68,70,41
275.38492,275.53076,67,70,41
275.58493,275.73074,72,70,41
275.7849,276.05157,65,70,41
276.18494,276.4516,70,70,41
276.58493,276.8516,64,70,41
276.98492,277.2516,68,70,41
277.38492,277.58075,65,70,41
277.58493,277.78076,67,70,41
277.7849,277.98074,67,70,41
277.98492,278.18076,68,70,41
278.18494,278.4516,70,70,41
278.58493,278.8516,68,70,41
281.7849,282.38077,51,85,41
282.38492,282.58075,48,85,41
282.58493,282.78076,50,85,41
282.7849,282.98074,51,85,41
282.98492,283.18076,53,85,41
283.18494,283.58075,53,92,41
283.58493,283.78076,55,108,41
283.7849,283.98074,53,115,41
283.98492,284.18076,59,80,41
284.18494,285.38077,58,65,41
285.38492,286.18076,56,86,41
286.18494,286.38077,55,100,41
286.38492,286.58075,53,103,41
286.58493,287.38077,56,107,41
287.38492,287.58075,55,104,41
287.58493,287.78076,53,100,41
287.7849,288.18076,53,97,41
288.18494,291.0728,51,90,41
291.07697,291.4728,52,61,41
291.47696,291.6728,53,60,41
291.67697,291.8728,52,70,41
291.87695,292.07816,55,80,41
292.08246,292.28363,53,90,41
292.28793,292.93417,54,100,41
292.93845,293.33978,53,70,41
293.34393,293.75375,55,70,41
293.7582,293.9842,56,70,41
293.98898,297.94034,51,121,41
297.94446,298.33508,51,86,41
298.3392,298.75153,53,80,41
298.75586,299.9517,55,80,41
299.95587,301.1517,56,69,41
301.15585,301.9517,56,60,41
301.95587,302.10168,53,84,41
302.15585,302.3017,51,90,41
302.35587,302.5017,50,110,41
302.55588,302.7017,51,110,41
302.75586,302.9057,51,110,41
302.96133,303.11118,53,110,41
303.1668,303.32535,58,110,41
303.38422,303.55783,70,90,41
303.6223,304.01816,70,70,41
304.4223,304.61813,72,90,41
304.6223,304.81815,70,95,41
304.8223,305.21814,70,100,41
305.6223,305.81815,72,90,41
305.8223,306.01816,70,85,41
306.0223,306.41815,70,80,41
306.8223,307.01816,72,90,41
307.0223,307.21814,70,95,41
307.22232,307.61813,70,100,41
308.03326,308.2431,72,87,41
308.24756,308.45737,70,80,41
308.46185,310.05768,63,100,41
310.06183,310.4685,62,97,41
310.4728,310.8969,63,104,41
310.90137,311.0472,58,110,41
311.10138,311.2381,58,110,41
311.28888,311.4256,63,110,41
311.47638,311.6131,62,110,41
311.66388,311.8006,60,110,41
311.85138,311.9881,58,110,41
312.03888,312.1756,56,110,41
312.22638,312.3631,56,110,41
312.41388,312.5506,53,110,41
312.41388,312.5506,56,110,41
312.60138,312.7381,65,110,41
312.78888,312.9256,67,110,41
312.97638,313.1131,68,110,41
313.16388,313.41388,58,110,41
313.16388,313.41388,67,110,41
313.53888,313.7986,51,110,41
313.92847,314.20245,51,110,41
314.33945,314.6134,51,120,41
314.7504,315.131,58,82,41
315.135,315.51562,58,70,41
315.51962,317.05408,58,70,41
317.05807,317.4387,53,70,41
317.05807,317.4387,56,70,41
317.4427,317.8233,53,70,41
317.4427,317.8233,56,70,41
317.8273,318.0837,51,110,41
317.8273,318.0837,55,110,41
318.2119,318.4786,51,110,41
318.2119,318.4786,55,110,41
318.61194,318.89764,51,110,41
318.61194,318.89764,55,110,41
319.0405,319.34445,51,110,41
319.0405,319.34445,55,110,41
320.60532,320.9859,67,70,41
320.98993,321.3705,67,70,41
321.37454,321.77036,68,70,41
321.77454,322.1812,53,70,41
322.1855,322.63495,53,70,41
324.35443,324.8183,65,70,41
324.82318,325.25977,64,70,41
325.26437,328.08878,63,70,41
328.09296,330.08878,60,70,41
330.09296,330.48877,60,70,41
330.49295,330.88876,65,70,41
330.89294,331.2888,62,70,41
331.29294,331.48877,60,70,41
331.49295,331.68878,58,70,41
331.69293,331.88876,58,70,41
331.89294,332.08878,57,70,41
332.09296,332.38876,58,70,41
332.49295,332.68878,60,70,41
332.69293,332.88876,58,70,41
332.89294,333.08878,58,70,41
333.09296,333.2888,57,70,41
333.29294,333.58878,58,70,41
333.69293,333.88876,72,70,41
333.89294,334.08878,70,70,41
334.09296,334.2888,70,70,41
334.29294,334.48877,69,70,41
334.49295,334.68878,70,70,41
334.69293,335.68878,58,70,41
335.69293,336.88876,65,70,41
336.89294,338.08878,63,70,41
338.09296,338.88876,62,70,41
338.89294,339.2888,63,70,41
339.29294,340.08878,75,101,41
340.09296,340.48877,74,71,41
340.49295,341.68878,77,73,41
341.69293,342.88876,75,79,41
342.89294,343.68878,74,85,41
343.69293,344.08878,75,88,41
344.09296,344.48877,63,90,41
344.49295,344.68878,63,92,41
344.69293,344.88876,62,93,41
344.89294,345.08878,62,94,41
345.09296,345.2888,60,95,41
345.29294,345.58878,62,96,41
345.69293,345.88876,56,98,41
345.89294,346.08878,55,99,41
346.09296,346.2888,55,100,41
346.29294,346.48877,53,100,41
346.49295,346.7888,55,90,41
346.89294,347.08878,53,70,41
347.09296,347.2888,51,72,41
347.29294,347.48877,51,75,41
347.49295,347.68878,50,77,41
347.69293,347.88876,48,80,41
347.89294,348.08878,50,82,41
348.09296,348.2888,53,85,41
348.29294,348.48877,51,88,41
348.49295,348.68878,51,90,41
348.69293,348.88876,50,93,41
348.89294,349.08878,48,95,41
349.09296,349.2888,50,98,41
349.29294,349.48877,51,100,41
349.49295,349.68878,53,100,41
349.69293,350.08878,55,100,41
350.09296,350.2888,58,94,41
350.29294,350.48877,59,90,41
350.49295,350.88876,60,87,41
350.89294,351.29962,61,80,41
351.3039,351.51373,60,73,41
351.5182,351.7374,58,70,41
351.74207,351.9379,53,70,41
351.94208,352.1379,51,71,41
352.14206,352.3379,51,72,41
352.34207,352.5379,50,74,41
352.54205,352.73788,48,75,41
352.74207,352.9379,50,77,41
352.94208,353.1379,53,78,41
353.14206,353.3379,51,79,41
353.34207,353.5379,51,81,41
353.54205,353.73788,50,82,41
353.74207,353.9379,48,84,41
353.94208,354.1379,50,85,41
354.14206,355.3379,51,86,41
355.34207,355.74875,49,95,41
355.75302,356.17712,48,98,41
356.18158,356.39758,53,100,41
356.4022,356.62814,51,85,41
356.63297,357.03427,51,70,41
357.03842,357.43427,56,70,41
357.43842,358.23425,53,70,41
358.23843,358.63428,58,68,41
358.63843,359.43427,55,66,41
359.43842,359.83426,60,61,41
359.83844,360.63428,56,58,41
360.63843,361.03427,61,53,41
361.03842,361.43427,58,51,41
361.43842,362.23425,60,50,41
362.23843,363.03427,58,60,41
363.03842,363.43427,58,70,41
363.43842,363.83426,55,75,41
363.83844,364.23425,53,80,41
364.23843,364.63428,62,85,41
364.63843,364.83426,63,90,41
364.83844,365.03427,65,90,41
365.03842,365.23425,65,90,41
365.23843,365.63428,63,89,41
365.63843,365.83426,65,87,41
365.83844,366.23425,67,85,41
366.23843,367.43427,68,83,41
367.43842,368.63428,67,75,41
368.63843,370.24234,65,70,41
370.24658,370.6505,63,70,41
370.65475,371.05865,67,70,41
371.06293,372.74893,65,70,41
372.7534,373.18997,63,60,41
373.19458,373.6513,63,50,41
373.6561,375.4075,65,50,41
375.4153,376.5325,63,40,41
0.0,3.315971,39,125,42
0.0,3.315971,46,125,42
3.333332,3.9999986,39,100,42
3.333332,3.9999986,46,100,42
4.333332,6.3124986,41,125,42
6.333332,6.9999986,41,100,42
7.333332,10.6493025,39,125,42
7.333332,10.6493025,46,125,42
10.666664,11.333331,39,100,42
10.666664,11.333331,46,100,42
11.666664,13.645831,44,125,42
13.666664,14.333331,44,100,42
14.666664,17.64583,43,125,42
17.666664,18.39583,48,100,42
18.666664,22.898212,44,70,42
22.939878,24.118122,44,70,42
24.122028,25.243122,43,70,42
25.247028,26.368122,41,70,42
26.372028,27.493122,43,70,42
27.497028,28.243122,44,70,42
28.247028,28.993122,56,70,42
28.997028,29.368122,55,70,42
29.372028,29.743122,56,70,42
29.747028,30.118122,46,70,42
30.122028,30.512653,48,70,42
30.516764,30.715244,48,70,42
30.719467,30.917946,50,70,42
30.922169,31.302778,51,70,42
31.306784,31.687393,53,70,42
31.691399,32.072006,55,70,42
32.076015,33.225853,56,70,42
33.22986,34.3797,55,70,42
34.383705,35.533543,53,70,42
35.537548,36.302773,55,70,42
36.306778,36.68739,43,70,42
36.691395,36.879696,44,73,42
36.8837,37.072002,43,75,42
37.076008,37.26431,44,76,42
37.26832,37.45662,48,78,42
37.460625,37.648926,46,80,42
37.65293,37.841232,44,81,42
37.845238,38.03354,43,83,42
38.037548,38.22585,39,85,42
38.229855,38.418156,41,87,42
38.42216,38.610462,43,88,42
38.614468,38.80277,44,90,42
38.806778,38.99508,45,92,42
38.999084,39.379692,46,93,42
39.383698,39.76431,48,97,42
39.768314,40.164146,50,100,42
40.168316,40.434982,51,104,42
40.568314,40.818314,55,107,42
40.943314,41.193314,58,110,42
41.318314,41.689407,63,110,42
43.193314,44.314407,46,110,42
44.318314,44.501907,48,110,42
44.505814,44.689407,50,110,42
44.693314,45.251907,53,110,42
45.255814,45.439407,51,110,42
45.443314,45.626907,46,110,42
45.630814,45.814407,44,110,42
45.818314,46.001907,43,110,42
46.005814,46.142532,41,110,42
46.193314,46.330032,39,110,42
46.380814,46.517532,49,110,42
46.568314,46.705032,48,110,42
46.755814,46.892532,46,110,42
46.943314,47.126907,44,125,42
47.130814,47.314407,44,110,42
47.318314,47.501907,44,110,42
47.505814,47.689407,44,110,42
47.693314,47.830032,43,110,42
47.880814,48.017532,44,110,42
48.068314,48.251907,45,125,42
48.255814,48.439407,46,110,42
48.443314,48.580032,46,110,42
48.630814,48.767532,46,110,42
48.818314,48.955032,46,110,42
49.005814,49.142532,46,110,42
49.193314,49.376907,47,125,42
49.380814,49.564407,48,110,42
49.568314,49.705032,48,110,42
49.755814,49.892532,48,110,42
49.943314,50.080032,38,110,42
50.130814,50.267532,38,110,42
50.318314,50.506615,38,125,42
50.51062,50.69892,39,110,42
50.70293,50.848763,44,110,42
50.902927,51.048763,45,110,42
51.10293,51.252758,46,110,42
51.308407,51.464657,58,110,42
51.522694,51.918526,39,110,42
52.322693,52.46853,59,70,42
52.522694,52.668526,60,70,42
52.722694,52.918526,60,70,42
52.922695,53.068527,58,70,42
53.122692,53.268528,56,70,42
53.322693,53.46853,55,70,42
53.522694,53.668526,53,70,42
53.722694,53.868526,58,70,42
53.922695,54.21853,51,70,42
54.322693,54.639656,56,70,42
54.751266,55.09261,50,70,42
55.212803,55.500954,55,70,42
55.602413,55.89056,48,70,42
55.992023,56.28017,53,70,42
56.381634,56.677467,47,70,42
56.78163,57.08979,48,70,42
59.930763,60.705925,50,70,42
60.709984,60.90073,48,70,42
60.90479,61.095535,46,70,42
61.099594,61.29034,45,70,42
61.2944,61.485146,57,76,42
61.489204,61.685036,55,82,42
61.689205,61.885036,43,88,42
61.889202,62.0904,55,94,42
62.094685,62.310677,43,100,42
62.31527,64.711105,43,70,42
64.71527,66.311104,54,110,42
64.71527,66.711105,43,110,42
66.31527,66.711105,55,77,42
66.71527,67.11111,45,70,42
67.11527,68.311104,47,70,42
68.31527,69.11111,48,65,42
69.11527,70.11111,49,61,42
70.11527,70.311104,50,60,42
70.31527,70.73938,52,63,42
70.74384,70.94643,54,70,42
70.95074,71.367455,62,70,42
71.37192,71.80875,62,70,42
71.81348,72.046616,62,70,42
72.051575,73.28897,62,70,42
73.29325,74.110886,60,92,42
74.11517,74.31637,58,107,42
74.32065,74.52185,57,110,42
74.52613,74.727325,60,110,42
74.731606,74.93281,63,102,42
74.93709,75.13828,62,94,42
75.14256,75.343765,60,86,42
75.348045,75.54924,58,78,42
75.55352,75.75472,57,70,42
75.759,76.16568,57,70,42
76.16996,76.58526,55,70,42
76.58972,76.799545,55,70,42
76.80401,77.02997,57,70,42
77.03478,77.8777,58,70,42
77.88199,78.28866,59,64,42
78.292946,79.11058,60,60,42
79.11486,79.932495,61,53,42
79.936775,80.34345,62,60,42
80.34773,80.54893,64,70,42
80.553215,80.75441,52,75,42
80.75869,80.908516,54,80,42
80.96417,81.114,55,85,42
81.16965,81.3259,55,90,42
81.383934,81.540184,48,95,42
81.59822,81.75906,50,100,42
81.81881,81.99242,60,85,42
82.0569,82.46923,58,70,42
82.47357,82.885895,63,77,42
82.890236,83.30256,60,85,42
83.3069,83.702736,57,93,42
83.7069,84.10274,62,100,42
84.1069,84.50273,58,90,42
84.5069,86.10274,43,110,42
86.1069,86.51358,42,100,42
86.51786,86.95779,43,90,42
86.962524,87.37485,38,70,42
87.77919,87.97502,39,83,42
87.97919,88.17502,38,87,42
88.17919,88.57502,38,90,42
88.97919,89.17502,39,104,42
89.17919,89.37502,38,107,42
89.37919,89.525024,51,110,42
89.579185,89.715904,50,110,42
89.766685,89.903404,48,110,42
89.954185,90.090904,46,110,42
90.141685,90.278404,45,110,42
90.329185,90.465904,43,110,42
90.516685,90.653404,45,110,42
90.704185,90.840904,50,110,42
90.891685,91.028404,50,110,42
91.079185,91.215904,38,110,42
91.266685,91.403404,38,110,42
91.454185,91.590904,50,110,42
91.641685,91.891685,43,110,42
92.016685,92.2731,43,120,42
92.401306,92.66797,43,120,42
92.8013,93.22541,43,120,42
95.77273,96.168564,69,70,42
96.17273,96.568565,69,70,42
96.57273,96.83939,43,110,42
96.97273,97.246704,43,110,42
97.38369,97.6694,43,110,42
97.812256,98.23637,43,110,42
99.52654,99.950645,67,70,42
99.95512,100.37922,67,70,42
100.38368,100.80779,67,70,42
100.812256,101.23636,69,70,42
101.24083,101.31775,69,70,42
101.31775,101.39467,71,66,42
101.39467,101.471596,69,61,42
101.471596,101.596596,67,57,42
101.596596,101.7466,69,50,42
103.346596,103.7707,50,50,42
103.77517,103.89055,52,50,42
103.89055,104.005936,50,50,42
104.005936,104.130936,52,50,42
104.130936,104.29968,50,50,42
104.29968,107.615654,43,110,42
104.29968,107.615654,50,110,42
107.63302,108.29968,43,110,42
107.63302,108.29968,50,110,42
108.63302,110.61218,45,125,42
110.63302,111.29968,45,110,42
111.63302,114.94899,43,110,42
111.63302,114.94899,50,110,42
114.96635,115.63302,43,110,42
114.96635,115.63302,50,110,42
115.96635,117.94552,48,125,42
117.96635,118.63302,48,110,42
118.96635,121.44899,47,125,42
121.46635,122.021904,52,110,42
122.29968,125.41039,36,100,42
122.29968,125.41039,48,100,42
125.435394,126.879234,36,70,42
125.435394,126.879234,50,70,42
126.920906,128.14655,60,70,42
128.15045,129.27155,59,70,42
129.27545,130.39655,57,70,42
130.40045,131.52155,59,70,42
131.52545,132.64655,60,70,42
132.65045,133.77155,62,70,42
133.77545,134.52155,64,70,42
134.52545,135.29066,66,70,42
135.29468,135.6753,67,70,42
135.67929,136.08911,43,70,42
136.09358,136.47418,48,70,42
136.09358,137.22429,36,70,42
136.4782,137.59929,48,73,42
137.6032,138.72429,47,84,42
138.7282,139.84929,45,96,42
139.8532,140.22429,43,107,42
140.2282,140.59929,50,110,42
140.6032,140.97429,41,110,42
140.9782,141.3588,50,110,42
141.36281,141.75864,43,110,42
141.7628,142.15865,40,110,42
142.16281,142.55864,43,96,42
142.5628,142.96948,39,82,42
142.97377,143.38045,38,70,42
143.38472,143.7914,47,70,42
143.79568,144.20236,43,70,42
144.20663,144.61331,38,70,42
144.6176,145.02428,48,70,42
145.02855,145.45267,45,70,42
145.45712,145.85297,43,70,42
148.65712,149.45296,60,90,42
149.45712,149.85297,59,70,42
149.85713,150.25296,62,70,42
150.25713,151.45296,67,70,42
151.45712,152.65295,65,70,42
152.65712,153.85297,43,70,42
153.85713,155.05296,41,80,42
155.05713,156.25296,39,90,42
156.25713,157.45296,38,100,42
157.45712,157.85297,36,110,42
157.85713,158.25296,55,110,42
158.25713,158.65295,48,110,42
158.65712,159.05296,46,110,42
159.05713,159.45296,55,110,42
159.45712,159.85297,48,110,42
159.85713,160.25296,45,110,42
160.25713,160.65295,53,110,42
160.65712,161.05296,48,110,42
161.05713,161.45296,44,110,42
161.45712,161.65295,53,110,42
161.65712,161.85297,48,110,42
161.85713,162.25296,44,100,42
162.25713,162.65295,43,70,42
162.65712,163.05296,51,70,42
163.05713,163.45296,48,70,42
163.45712,163.85297,43,70,42
163.85713,165.07272,36,64,42
165.07689,165.47272,42,50,42
165.4769,166.27272,38,50,42
166.27689,166.67273,43,50,42
166.6769,167.07272,39,50,42
167.07689,167.27272,36,50,42
167.27689,167.47272,48,50,42
167.4769,167.87273,56,50,42
167.87689,168.07272,55,50,42
168.07689,168.27272,59,50,42
168.27689,168.67273,60,50,42
170.6769,172.27272,39,67,42
172.27689,172.67273,44,91,42
172.6769,173.07272,41,97,42
173.07689,173.47272,37,103,42
173.4769,173.88358,43,109,42
173.88785,174.31195,39,115,42
174.31642,174.45847,36,120,42
174.51123,174.65327,48,120,42
174.70602,174.84274,51,120,42
174.89352,175.03024,54,120,42
175.08102,175.21774,57,120,42
175.26852,175.40524,60,120,42
175.45602,175.82712,63,120,42
175.83102,176.20212,42,120,42
176.20602,176.57712,39,120,42
176.58102,176.85837,36,120,42
176.95602,177.32712,42,120,42
177.33102,177.70212,39,120,42
177.70602,177.98337,36,120,42
178.08102,178.45212,42,120,42
178.45602,178.82712,39,120,42
178.83102,178.96774,37,120,42
179.01852,179.15524,41,120,42
179.20602,179.34274,46,120,42
179.39352,179.53024,49,120,42
179.58102,179.71774,53,120,42
179.76852,179.90524,58,120,42
179.95602,180.23337,37,120,42
180.33102,180.70212,46,120,42
180.70602,181.07712,41,120,42
181.08102,181.35837,37,120,42
181.45602,181.82712,46,120,42
181.83102,182.20212,41,120,42
182.20602,182.48337,37,120,42
182.58102,182.95212,46,120,42
182.95602,183.32712,41,120,42
183.33102,183.46774,37,120,42
183.51852,183.65524,41,120,42
183.70602,183.84274,44,120,42
183.89352,184.03024,49,120,42
184.08102,184.21774,53,120,42
184.26852,184.40524,56,120,42
184.45602,184.73337,37,120,42
184.83102,185.20212,44,120,42
185.20602,185.57712,41,120,42
185.58102,185.85837,37,120,42
185.95602,186.32712,44,120,42
186.33102,186.70212,41,120,42
186.70602,186.98337,37,120,42
187.08102,187.45212,44,120,42
187.45602,187.82712,41,120,42
187.83102,188.11548,36,120,42
188.21565,188.59625,48,120,42
188.60027,188.98087,43,120,42
188.98488,189.28072,36,120,42
189.38487,189.79155,55,120,42
189.79584,190.26926,52,120,42
190.2755,193.59148,36,120,42
190.2755,193.59148,43,120,42
193.60884,194.2755,36,120,42
193.60884,194.2755,43,120,42
194.60884,196.588,38,120,42
194.60884,196.588,43,120,42
196.60884,197.2755,38,120,42
196.60884,197.2755,43,120,42
197.60884,200.9248,36,120,42
197.60884,200.9248,43,120,42
200.94217,201.60884,36,120,42
200.94217,201.60884,43,120,42
201.94217,203.92134,41,120,42
201.94217,203.92134,43,120,42
203.94217,204.60884,41,120,42
203.94217,204.60884,43,120,42
204.94217,207.08055,40,120,42
204.94217,207.08055,43,120,42
207.08502,208.07219,60,95,42
208.0761,208.21281,60,70,42
208.2636,208.40031,59,70,42
208.4511,208.58781,60,70,42
208.6386,208.77531,62,70,42
208.8261,208.96281,64,70,42
209.0136,209.15031,65,70,42
209.2011,209.33781,67,70,42
209.3886,209.52531,69,70,42
209.5761,209.71281,71,70,42
209.7636,210.13469,72,70,42
210.3261,210.46281,48,70,42
210.5136,210.65031,47,70,42
210.7011,210.83781,48,70,42
210.8886,211.02531,50,70,42
211.0761,211.21281,52,70,42
211.2636,211.40031,53,70,42
211.4511,211.58781,55,70,42
211.6386,211.77531,57,70,42
211.8261,211.96281,59,70,42
212.0136,212.15031,60,70,42
212.2011,212.33781,60,70,42
212.3886,212.52531,60,70,42
212.5761,212.71281,60,70,42
212.7636,212.90031,60,70,42
212.9511,213.08781,60,70,42
213.1386,213.27531,60,70,42
213.3261,213.46281,59,70,42
213.5136,213.65031,57,70,42
213.7011,213.83781,55,70,42
213.8886,214.02882,53,80,42
214.0809,214.23073,52,90,42
214.28638,214.57083,48,110,42
214.67099,215.0516,49,110,42
215.0556,215.43622,46,110,42
215.44023,215.72469,43,70,42
215.82484,216.20544,67,70,42
216.20946,216.59006,64,70,42
216.59407,216.87852,64,70,42
216.97868,217.3593,49,70,42
217.3633,217.74391,46,70,42
217.74791,218.03236,44,70,42
218.13252,218.51314,68,70,42
218.51715,218.89775,65,70,42
218.90176,219.18622,41,110,42
219.28638,219.66698,48,110,42
219.67099,220.0516,44,110,42
220.0556,220.34006,41,70,42
220.44022,220.82083,60,70,42
220.82483,221.20544,56,70,42
221.20946,221.49391,53,70,42
221.59407,221.97467,44,70,42
221.97868,222.35928,41,70,42
222.3633,222.64775,40,70,42
222.74791,223.12852,61,70,42
223.13252,223.51314,58,70,42
223.51714,223.80159,39,110,42
223.90175,224.28236,49,110,42
224.28638,224.66698,46,110,42
224.67099,224.95544,39,70,42
225.0556,225.4362,61,70,42
225.44022,225.82082,63,70,42
225.82483,226.10928,64,70,42
227.3633,227.7439,51,70,42
227.74791,228.12851,48,70,42
228.13252,228.41698,44,110,42
228.51714,228.89775,51,110,42
228.90175,229.28236,48,110,42
229.28636,229.57082,44,70,42
229.67097,230.05159,63,70,42
230.05559,230.4362,60,70,42
230.44022,230.72467,56,70,42
230.82483,231.20543,48,70,42
231.20944,231.59004,44,70,42
231.59406,231.87851,43,70,42
231.97867,232.35928,43,70,42
232.36328,232.7439,37,70,42
232.7479,233.03235,36,110,42
233.13252,233.51312,43,110,42
233.51714,233.89774,37,110,42
233.90175,234.1862,36,70,42
234.28636,234.66696,61,70,42
234.67097,235.05159,58,70,42
235.05559,235.34563,55,70,42
235.44774,235.83582,43,85,42
235.8399,236.22797,39,100,42
236.23206,236.5279,36,100,42
236.63206,237.03874,44,100,42
237.04301,237.25284,41,85,42
237.25731,237.46712,43,77,42
237.47159,238.65788,44,70,42
238.6619,239.42712,43,70,42
239.43112,239.81174,44,70,42
239.81573,240.19635,46,70,42
240.20036,240.58096,50,70,42
240.58498,241.35019,53,70,42
241.3542,241.5425,51,70,42
241.54651,241.7348,53,70,42
241.73882,241.92712,55,70,42
241.93112,242.11943,43,70,42
242.12343,242.50404,44,70,42
242.50804,243.65788,56,70,42
243.6619,244.81174,55,70,42
244.81573,245.19635,53,70,42
245.20035,245.77327,46,70,42
245.77727,245.96558,51,70,42
245.96957,246.15788,53,70,42
246.1619,246.35019,55,70,42
246.3542,246.5425,56,70,42
246.54651,246.7348,58,70,42
246.73882,246.92711,59,70,42
246.93112,247.11942,60,70,42
247.12343,247.31172,60,70,42
247.31573,247.50403,64,70,42
247.50804,247.69633,65,70,42
247.70035,247.88866,62,70,42
247.89265,248.08096,60,70,42
248.08496,248.27327,58,70,42
248.27727,248.46558,58,70,42
248.46957,248.65788,62,70,42
248.66188,248.85019,63,70,42
248.85419,249.0425,60,70,42
249.0465,249.2348,58,70,42
249.23882,249.42711,56,70,42
249.43112,249.61942,56,70,42
249.62343,249.81172,55,70,42
249.81573,250.00403,56,70,42
250.00804,250.19633,57,70,42
250.20035,250.38864,58,70,42
250.39265,250.58095,60,70,42
250.58496,250.77327,62,85,42
250.77727,250.96558,63,85,42
250.96957,251.15788,65,85,42
251.16188,251.35019,67,85,42
251.35419,252.50403,68,85,42
252.50804,253.65787,67,95,42
253.66188,253.85019,67,105,42
253.85419,254.0425,65,107,42
254.0465,254.2348,65,109,42
254.2388,254.42711,63,110,42
254.4311,254.71556,62,112,42
254.81572,255.10017,63,115,42
255.20035,255.4848,39,100,42
255.20035,255.4848,43,100,42
255.58496,256.7348,63,120,42
256.7388,256.9271,65,120,42
256.93112,257.11942,67,120,42
257.1234,257.88864,70,120,42
257.89264,258.08093,68,120,42
258.08496,258.27325,67,120,42
258.27725,258.46558,67,120,42
258.46957,258.65787,65,120,42
258.66187,258.8502,63,120,42
258.8542,259.04248,62,120,42
259.04648,259.2348,60,120,42
259.2388,259.4271,58,115,42
259.4311,259.61942,56,110,42
259.6234,259.8117,55,110,42
259.81573,260.00403,53,110,42
260.00803,260.19632,51,110,42
260.20035,260.38864,49,110,42
260.39264,260.58093,48,110,42
260.58496,260.77325,46,110,42
260.77725,260.96555,44,110,42
260.96957,261.15787,43,110,42
261.16187,261.3502,41,110,42
261.3542,261.54248,39,110,42
261.54648,261.7348,37,110,42
261.7388,261.9271,36,110,42
261.9311,262.11942,48,110,42
262.1234,262.3117,48,110,42
262.3157,262.45593,60,110,42
262.50803,262.64825,60,110,42
262.70035,262.84055,60,110,42
262.89264,263.03287,60,110,42
263.08496,263.22516,60,110,42
263.27725,263.41748,60,110,42
263.46957,263.6098,60,110,42
263.66187,263.8021,60,110,42
263.8542,263.99442,60,110,42
264.04648,264.1867,58,110,42
264.2388,264.37903,58,110,42
264.4311,264.57132,58,110,42
264.6234,264.76364,58,110,42
264.8157,265.00403,58,110,42
265.00803,265.19632,56,110,42
265.20032,265.38864,56,110,42
265.39264,265.53287,55,110,42
265.58496,265.72516,53,110,42
265.77725,265.91748,51,110,42
265.96957,266.10977,49,110,42
266.16187,266.3021,46,110,42
266.3542,266.49442,44,110,42
266.54648,266.6867,43,110,42
266.7388,266.87903,43,110,42
266.9311,267.07132,43,110,42
267.1234,267.26364,43,110,42
267.3157,267.45593,43,110,42
267.50803,267.64825,43,110,42
267.70032,267.84055,44,110,42
267.70032,267.84055,39,110,42
267.89264,268.03287,44,110,42
267.89264,268.03287,39,110,42
268.08493,268.22516,44,110,42
268.08493,268.22516,39,110,42
268.27725,268.41748,44,110,42
268.27725,268.41748,39,110,42
268.46954,268.60977,39,110,42
268.46954,268.60977,44,110,42
268.66187,268.8021,44,125,42
268.66187,268.8021,37,125,42
268.8542,268.9944,44,110,42
268.8542,268.9944,37,110,42
269.04648,269.1867,44,110,42
269.04648,269.1867,37,110,42
269.2388,269.379,46,110,42
269.2388,269.379,37,110,42
269.4311,269.57132,46,110,42
269.4311,269.57132,38,110,42
269.6234,269.76364,46,110,42
269.6234,269.76364,38,110,42
269.8157,269.95593,46,125,42
269.8157,269.95593,39,125,42
270.00803,270.14825,46,110,42
270.00803,270.14825,39,110,42
270.20032,270.34055,46,110,42
270.20032,270.34055,39,110,42
270.39264,270.53287,48,110,42
270.39264,270.53287,39,110,42
270.58493,270.72516,39,110,42
270.58493,270.72516,50,110,42
270.77725,270.91748,39,110,42
270.77725,270.91748,43,110,42
270.96954,271.10977,39,125,42
271.16187,271.3021,39,110,42
271.35416,271.4944,41,110,42
271.54648,271.6867,41,110,42
271.7388,271.879,38,110,42
271.9311,272.07132,38,110,42
272.1234,272.3117,38,125,42
272.3157,272.45593,39,110,42
272.50803,272.65384,39,110,42
272.708,272.85385,39,110,42
272.90802,273.05783,39,110,42
273.1135,273.3233,51,110,42
273.3278,273.7519,44,110,42
276.98492,277.78076,48,70,42
277.7849,277.98074,46,70,42
277.98492,278.18076,44,70,42
278.18494,278.4516,43,70,42
278.58493,278.8516,41,70,42
278.98492,279.13077,59,70,42
279.18494,279.33075,60,70,42
279.38492,279.58075,60,70,42
279.58493,279.73074,58,70,42
279.7849,279.93076,56,70,42
279.98492,280.13077,55,70,42
280.18494,280.33075,53,70,42
280.38492,280.53076,58,70,42
280.58493,280.8516,51,70,42
280.98492,281.2516,56,70,42
281.38492,281.65158,50,70,42
281.7849,282.05157,55,70,42
282.18494,282.4516,48,70,42
282.58493,282.78076,53,70,42
282.7849,282.98074,51,70,42
282.98492,283.18076,51,70,42
283.18494,283.58075,51,77,42
283.58493,283.98074,51,93,42
283.98492,284.18076,56,80,42
283.98492,284.18076,51,80,42
284.18494,288.5916,39,120,42
288.5959,289.0327,41,101,42
289.03745,290.2728,43,80,42
290.27698,292.28363,44,69,42
292.28793,292.93417,45,100,42
292.93845,293.33978,44,70,42
293.34393,293.75375,43,70,42
293.7582,293.9842,41,70,42
293.98898,294.1902,39,65,42
294.19446,294.38773,51,68,42
294.39185,294.58508,50,72,42
294.5892,294.78247,51,76,42
294.7866,294.97983,53,80,42
294.98395,295.1772,55,84,42
295.1813,295.37457,56,87,42
295.3787,295.57193,56,91,42
295.57605,295.76932,55,95,42
295.7734,295.96667,56,99,42
295.9708,296.16403,58,103,42
296.16815,296.36142,59,107,42
296.3655,296.55878,50,110,42
296.5629,296.7068,53,122,42
296.76025,296.90417,53,119,42
296.9576,297.10153,53,116,42
297.155,297.34824,55,113,42
297.35236,297.54562,56,110,42
297.5497,297.94034,56,107,42
297.94446,298.33508,55,101,42
298.3392,298.75153,56,95,42
298.75586,299.1517,58,95,42
299.15585,299.5517,63,92,42
299.55588,300.35168,62,88,42
300.35587,300.7517,59,80,42
300.75586,300.9517,62,76,42
300.95587,301.1517,60,75,42
301.15585,301.35168,60,75,42
301.35587,301.5517,55,81,42
301.55588,301.7517,58,87,42
301.75586,301.9017,56,93,42
301.95587,302.10168,50,84,42
302.15585,302.3017,48,90,42
302.35587,302.5017,47,110,42
302.55588,302.7017,48,110,42
302.75586,302.9057,48,110,42
302.96133,303.11118,44,110,42
303.1668,303.32535,46,110,42
303.38422,303.55783,44,90,42
303.6223,304.01816,43,70,42
304.0223,304.41815,48,80,42
304.4223,304.81815,44,90,42
304.8223,305.21814,41,100,42
305.22232,305.61813,46,100,42
305.6223,306.01816,43,90,42
306.0223,307.61813,63,110,42
307.6223,308.029,62,100,42
308.03326,308.45737,63,87,42
308.46185,308.85767,46,70,42
309.26184,309.45767,48,83,42
309.46185,309.65768,46,87,42
309.66183,310.05768,46,90,42
310.4728,310.68262,48,104,42
310.68707,310.8969,46,107,42
310.90137,311.0472,43,110,42
311.10138,311.2381,43,110,42
311.28888,311.4256,48,110,42
311.47638,311.6131,46,110,42
311.66388,311.8006,44,110,42
311.85138,311.9881,43,110,42
312.03888,312.1756,41,110,42
312.22638,312.3631,41,110,42
312.41388,312.5506,46,110,42
312.60138,312.7381,44,110,42
312.78888,312.9256,43,110,42
312.97638,313.1131,41,110,42
313.16388,313.41388,39,110,42
313.53888,313.7986,39,110,42
313.92847,314.20245,39,110,42
314.33945,314.64337,39,120,42
315.90424,316.28485,67,70,42
316.28885,316.66946,67,70,42
316.67346,317.05408,68,70,42
317.05807,317.4387,47,70,42
317.4427,317.8233,46,70,42
317.8273,318.0837,39,110,42
318.2119,318.4786,39,110,42
318.61194,318.89764,39,110,42
319.0405,319.34445,39,110,42
319.45145,319.83206,58,85,42
319.83606,320.21667,58,70,42
320.22067,321.77036,58,70,42
321.77454,322.1812,47,70,42
322.1855,322.63495,46,70,42
324.35443,324.8183,58,70,42
324.82318,325.25977,58,70,42
325.26437,326.48877,60,70,42
326.49295,327.68878,58,70,42
327.69293,328.88876,56,70,42
328.89294,330.08878,55,70,42
330.09296,331.2888,53,70,42
331.29294,332.48877,55,70,42
332.49295,333.68878,56,70,42
333.69293,334.88876,55,70,42
334.89294,336.08878,53,70,42
336.09296,337.2888,55,70,42
337.29294,338.48877,56,70,42
338.49295,339.68878,55,70,42
339.69293,340.88876,53,70,42
340.89294,342.08878,55,75,42
342.09296,343.2888,56,81,42
343.29294,345.2888,55,86,42
345.29294,346.48877,53,96,42
346.49295,347.68878,51,70,42
347.69293,348.88876,45,80,42
348.89294,349.68878,45,95,42
349.69293,350.08878,46,100,42
350.09296,350.88876,65,94,42
350.89294,351.09415,63,80,42
351.09842,351.29962,64,76,42
351.3039,351.51373,65,73,42
351.5182,351.7374,67,70,42
351.74207,352.1379,68,70,42
352.14206,352.5379,44,72,42
352.54205,353.73788,45,75,42
353.74207,354.1379,44,84,42
354.14206,354.5379,46,86,42
354.54205,354.9379,44,89,42
354.94208,355.3379,43,92,42
355.34207,355.74875,41,95,42
355.75302,356.17712,39,98,42
356.18158,356.39758,37,100,42
356.4022,356.62814,36,85,42
356.63297,357.03427,36,70,42
357.03842,357.43427,41,70,42
357.43842,358.23425,38,70,42
358.23843,358.63428,43,68,42
358.63843,359.43427,39,66,42
359.43842,359.83426,44,61,42
359.83844,360.63428,41,58,42
360.63843,361.03427,46,53,42
361.03842,361.43427,43,51,42
361.43842,362.23425,44,50,42
362.23843,363.03427,56,60,42
363.03842,363.43427,55,70,42
363.43842,363.83426,51,75,42
363.83844,364.23425,46,80,42
364.23843,364.63428,58,85,42
364.63843,364.83426,60,90,42
364.83844,365.03427,62,90,42
365.03842,365.43427,63,90,42
370.65475,371.05865,58,70,42
371.06293,371.2669,58,70,42
371.27124,371.47525,56,70,42
371.47958,371.68356,56,70,42
371.68793,371.8919,55,70,42
371.89624,372.21323,56,70,42
372.32483,372.74893,55,70,42
373.19458,373.6513,46,50,42
373.6561,373.88925,48,50,42
373.8942,374.12735,46,50,42
374.1323,374.37708,46,50,42
374.3823,374.65942,45,50,42
374.6653,375.22,46,50,42
375.4153,376.5325,39,40,42
