start_time,end_time,note_value,velocity,instrument_program_number
12.753661,14.615641,61,50,40
14.628661,16.49064,61,50,40
16.50366,17.11564,63,55,40
17.12866,18.36564,65,58,40
18.37866,18.99064,67,66,40
19.00366,22.11564,68,70,40
22.12866,22.74064,70,70,40
22.75366,23.99064,72,70,40
24.00366,24.61564,73,70,40
24.62866,25.86564,75,70,40
25.87866,26.49064,77,70,40
26.50366,27.74064,77,70,40
27.75366,28.36564,75,70,40
28.37866,29.61564,73,70,40
29.62866,30.24064,70,70,40
30.25366,31.49064,67,70,40
31.50366,32.794422,75,70,40
32.808006,33.47562,73,70,40
33.489826,34.2242,70,70,40
34.239826,35.476807,68,70,40
35.489826,36.101807,80,70,40
36.114826,37.351807,79,70,40
37.364826,37.976807,77,70,40
37.989826,39.226807,77,70,40
39.239826,39.851807,75,70,40
39.864826,41.101807,73,70,40
41.114826,41.726807,72,70,40
41.739826,44.851807,75,70,40
44.864826,44.968994,72,70,40
44.968994,45.07316,73,70,40
45.07316,45.177326,72,70,40
45.177326,45.281494,73,70,40
45.281494,45.38566,72,70,40
45.38566,45.489826,73,70,40
45.489826,46.726807,70,70,40
46.739826,48.725937,75,70,40
48.739826,49.4742,73,70,40
49.489826,50.780586,72,70,40
50.794174,51.40615,82,70,40
51.419174,52.65615,80,70,40
52.669174,53.28115,79,70,40
53.294174,54.53115,77,70,40
54.544174,55.15615,75,70,40
55.169174,56.40615,73,70,40
56.419174,57.03115,72,70,40
57.044174,58.28115,73,70,40
58.294174,58.90615,84,70,40
58.919174,60.15615,82,70,40
60.169174,60.78115,79,70,40
60.794174,62.03115,75,70,40
62.044174,62.65615,79,70,40
62.669174,63.988617,82,70,40
64.0025,64.73688,85,60,40
64.7525,66.10194,84,50,40
66.11614,66.72812,75,70,40
66.74114,67.97812,76,70,40
67.99114,68.60312,77,70,40
68.61614,69.85312,77,70,40
69.86614,70.47812,79,70,40
70.49114,71.72812,79,70,40
71.74114,72.35312,80,70,40
72.36614,74.22812,80,70,40
74.24114,75.560585,77,70,40
75.57448,76.30885,79,70,40
76.32448,77.80885,79,70,40
77.82448,78.47725,63,62,40
78.49114,79.810585,67,50,40
79.82447,80.47725,68,50,40
80.49114,83.686455,70,50,40
83.69947,84.311455,68,50,40
84.32447,85.561455,68,50,40
85.57447,86.186455,67,50,40
86.19947,87.436455,68,50,40
87.44947,88.061455,70,50,40
88.07447,88.23072,70,50,40
88.23072,91.186455,72,50,40
91.19947,91.811455,70,50,40
91.82447,93.061455,70,50,40
93.07447,93.686455,68,50,40
93.69947,94.936455,70,50,40
94.94947,95.561455,72,50,40
95.57447,98.686455,73,50,40
98.69947,99.311455,75,71,40
99.32447,100.561455,77,75,40
100.57447,101.186455,79,83,40
101.19947,102.436455,80,88,40
102.44947,103.061455,82,96,40
103.07447,104.365234,80,100,40
104.37882,105.01741,75,100,40
105.03099,106.380424,73,89,40
106.39463,107.129005,70,66,40
107.14463,108.629005,68,55,40
112.64463,113.25661,75,50,40
113.26963,114.50661,79,50,40
114.51963,115.13161,80,50,40
115.14463,116.38161,82,50,40
120.14463,120.75661,75,50,40
120.76963,122.00661,80,50,40
122.01963,122.63161,82,50,40
122.64463,124.50661,84,50,40
124.51963,125.75661,70,50,40
125.76963,126.38161,72,50,40
126.39463,129.5066,73,50,40
129.51962,130.1316,75,68,40
130.14462,131.3816,77,72,40
131.39462,132.0066,79,79,40
132.01962,133.2566,80,83,40
133.26962,133.8816,82,90,40
133.89462,135.1854,80,100,40
135.19897,135.83755,75,89,40
135.85115,137.20058,73,83,40
137.21478,137.94916,70,71,40
137.96478,139.37848,68,70,40
139.39336,140.04613,69,70,40
140.06003,141.37947,70,70,40
141.39336,142.04613,70,70,40
142.06003,143.37947,75,70,40
143.39336,144.00534,68,64,40
144.01836,145.25534,73,61,40
145.26836,145.88034,68,55,40
145.89336,147.13034,72,55,40
147.14336,147.79613,68,60,40
147.81003,149.22371,63,62,40
149.23859,149.938,67,68,40
149.95288,151.36656,68,70,40
152.09573,153.65823,70,50,40
154.46416,156.11346,68,40,40
156.13083,158.2588,75,70,40
158.27368,158.63081,74,70,40
158.63081,158.97308,73,70,40
158.98796,160.3074,73,70,40
160.32129,160.93327,72,70,40
171.57129,171.88379,79,70,40
171.88379,172.18327,87,70,40
172.19629,173.43327,87,70,40
173.44629,173.75879,86,70,40
173.75879,174.07129,85,70,40
174.07129,174.68327,84,70,40
174.69629,175.00879,80,94,40
175.00879,175.32129,79,82,40
175.32129,175.77702,77,70,40
176.57129,176.88379,80,91,40
176.88379,177.19629,79,80,40
177.19629,177.65202,77,70,40
178.44629,178.75879,77,91,40
178.75879,179.07129,75,81,40
179.07129,179.52702,73,70,40
180.32129,180.65463,75,92,40
180.65463,181.01178,73,81,40
181.01178,181.53261,72,70,40
181.72606,183.0455,72,60,40
183.05939,183.67137,75,72,40
183.68439,184.33717,80,78,40
184.35106,185.05046,84,84,40
185.06534,185.83836,87,90,40
185.85481,186.5076,87,80,40
186.52148,187.17426,82,70,40
187.18816,187.29926,82,70,40
187.29926,187.41037,84,70,40
187.41037,187.52148,82,70,40
187.52148,187.68816,81,70,40
187.68816,187.85481,82,70,40
187.85481,188.5076,85,70,40
188.52148,189.17426,75,70,40
189.18816,189.29926,63,70,40
189.29926,189.41037,65,70,40
189.41037,189.52148,63,70,40
189.52148,189.68816,62,70,40
189.68816,189.85481,63,70,40
189.85481,191.84093,63,110,40
191.85481,192.5076,63,91,40
192.52148,193.17426,75,70,40
193.18814,195.20424,75,110,40
195.21844,195.57559,77,92,40
195.57559,195.91786,79,70,40
195.93274,197.3814,79,90,40
197.39702,198.17004,80,70,40
201.50665,203.50826,73,70,40
203.52246,203.86472,75,70,40
203.87961,204.22186,77,70,40
204.23674,205.31041,77,70,40
205.32603,205.68541,76,70,40
205.70103,206.07932,77,70,40
206.09576,206.47406,79,70,40
206.49051,207.83994,82,70,40
207.85414,208.16664,80,70,40
208.18022,209.79707,80,70,40
209.81067,210.12317,77,70,40
210.13675,211.7536,77,70,40
211.76718,212.07968,75,70,40
212.09326,213.71011,75,70,40
213.72371,214.03621,74,70,40
214.04979,215.01447,74,70,40
215.02805,215.66664,86,80,40
215.68022,216.31882,89,90,40
216.3324,216.97098,92,100,40
216.98457,217.62315,89,90,40
217.63675,218.27533,86,80,40
218.28891,218.9275,89,70,40
218.94109,219.57968,87,70,40
219.59326,220.23186,85,70,40
220.24544,220.88402,82,70,40
220.89761,221.56523,79,82,40
221.57942,222.29594,77,94,40
222.31157,222.97919,77,100,40
222.9934,223.60536,75,90,40
223.6184,224.23036,75,80,40
224.2434,225.48036,73,70,40
225.4934,225.79286,72,70,40
225.8059,226.10536,70,70,40
226.1184,227.35536,68,70,40
227.3684,227.6809,67,70,40
227.6809,227.98036,77,70,40
227.9934,228.60536,77,70,40
228.6184,229.23036,75,82,40
229.2434,229.5559,72,94,40
229.5559,229.8684,70,100,40
229.8684,231.10536,67,125,40
231.1184,231.4309,68,80,40
231.4309,231.73036,75,75,40
231.7434,232.35536,75,70,40
232.3684,232.6809,77,70,40
232.6809,232.9934,75,75,40
232.9934,233.3059,73,80,40
233.3059,233.6184,72,85,40
233.6184,234.23036,70,90,40
234.2434,234.85536,69,100,40
234.8684,235.22554,68,86,40
235.22554,235.5678,78,71,40
235.58267,236.6541,78,70,40
236.6541,237.01125,82,70,40
237.01125,237.3684,80,70,40
237.3684,237.74667,78,70,40
237.76312,238.43074,78,70,40
238.44495,239.45346,77,73,40
239.46767,239.79437,75,78,40
239.80858,240.4762,87,80,40
240.4904,241.49892,86,84,40
241.51312,241.83983,85,89,40
241.85403,242.52165,85,91,40
242.53586,243.54437,84,94,40
243.55858,243.88528,84,100,40
243.89949,244.56711,84,102,40
244.5813,245.58983,82,105,40
245.60403,245.93074,80,110,40
245.94495,247.64949,80,125,40
247.64949,247.9762,82,91,40
247.9904,248.3313,83,87,40
248.3313,248.658,84,83,40
248.67221,249.33983,82,79,40
249.35403,250.08841,79,71,40
250.10403,250.92,79,70,40
250.93736,251.31236,80,70,40
251.31236,251.68736,72,70,40
251.68736,252.02827,77,70,40
252.02827,252.35498,75,70,40
252.36919,253.3777,75,70,40
253.3919,253.71861,79,88,40
253.73282,254.05952,79,94,40
254.07373,254.40044,80,100,40
254.41464,255.76407,81,110,40
255.77827,256.4459,82,84,40
256.46008,257.46863,82,71,40
257.48282,257.65326,84,70,40
257.65326,257.82373,82,70,40
257.82373,258.16464,80,70,40
258.16464,258.50555,79,70,40
258.50555,259.17316,77,70,40
259.18738,259.85498,75,70,40
259.86917,260.21008,75,70,40
260.21008,260.5368,87,70,40
260.551,261.5595,87,70,40
261.57373,261.91464,79,70,40
261.91464,262.25555,80,80,40
262.25555,262.58224,82,90,40
262.59647,263.60498,83,100,40
263.61917,263.9459,84,78,40
263.96008,264.62772,84,71,40
264.6419,264.98282,84,70,40
264.98282,265.32373,83,70,40
265.32373,265.66464,84,70,40
265.66464,266.00555,72,70,40
266.00555,266.34647,73,70,40
266.34647,266.68735,75,70,40
266.68735,267.02826,77,70,40
267.02826,267.36917,75,70,40
267.36917,267.71008,77,70,40
267.71008,268.0368,79,70,40
268.051,268.40814,79,70,40
268.40814,268.7504,80,70,40
268.7653,269.12244,80,70,40
269.12244,269.4647,82,70,40
269.47955,269.83893,82,70,40
269.85455,270.22955,80,70,40
270.22955,270.63498,82,70,40
270.63498,271.05777,84,70,40
271.07614,271.81052,84,70,40
271.82614,272.8347,85,73,40
272.84888,273.17557,87,78,40
273.1898,273.8574,87,80,40
273.8716,274.88013,89,84,40
274.89432,275.22104,91,89,40
275.23523,275.90286,91,91,40
275.91705,276.93317,92,94,40
276.94772,277.282,92,100,40
277.29654,277.97968,92,105,40
277.99423,279.06787,94,111,40
279.0835,279.44287,95,120,40
279.4585,280.19287,95,125,40
280.2085,280.94287,96,105,40
280.9585,281.2994,92,91,40
281.2994,281.64032,89,86,40
281.64032,282.30795,87,81,40
282.32214,283.33066,85,71,40
283.34488,283.67157,82,70,40
283.6858,284.3534,80,70,40
284.36758,285.37613,68,70,40
285.39032,285.71704,69,70,40
285.73123,286.39883,69,70,40
286.41306,287.42157,70,70,40
287.4358,287.76248,75,70,40
287.7767,289.12613,75,70,40
289.14032,289.48123,68,66,40
289.48123,289.82214,75,65,40
289.82214,291.1871,73,64,40
291.20163,291.55048,68,59,40
291.55048,291.89932,73,58,40
291.89932,293.28012,72,57,40
293.29465,293.6518,68,52,40
293.6518,294.00894,72,51,40
294.00894,295.42264,63,50,40
295.4375,295.8125,55,63,40
295.8125,296.1875,79,67,40
296.1875,296.92188,80,70,40
298.1042,298.52084,80,50,40
298.52084,299.33682,82,50,40
301.39963,301.8163,82,50,40
301.8163,302.59235,75,50,40
308.60797,309.34235,84,70,40
309.35797,309.54547,82,70,40
309.54547,309.73297,80,70,40
309.73297,309.90485,79,70,40
310.10797,310.84235,78,70,40
310.85797,311.04547,77,70,40
311.04547,311.23297,75,70,40
311.23297,311.40485,73,70,40
311.60797,311.77985,55,70,40
312.35797,312.52985,73,70,40
312.35797,312.52985,67,70,40
313.10797,313.27985,67,70,40
313.85797,314.02985,79,70,40
314.60797,315.34235,85,70,40
315.35797,315.54547,84,70,40
315.54547,315.73297,82,70,40
315.73297,315.90485,80,70,40
316.10797,316.84235,79,70,40
316.85797,317.04547,77,70,40
317.04547,317.23297,76,70,40
317.23297,317.40485,75,70,40
317.60797,317.77985,60,70,40
317.60797,317.77985,63,70,40
318.35797,318.52985,80,70,40
319.10797,319.84235,77,70,40
319.85797,320.04547,76,70,40
320.04547,320.23297,75,70,40
320.23297,320.40485,73,70,40
320.60797,320.77985,63,70,40
321.35797,321.52985,75,70,40
322.10797,322.84235,85,70,40
322.85797,323.04547,82,70,40
323.04547,323.23297,79,70,40
323.23297,323.40485,80,70,40
323.60797,323.77985,60,73,40
323.60797,323.77985,63,73,40
324.35797,324.52985,60,81,40
324.35797,324.52985,68,81,40
325.10797,325.27985,63,89,40
325.10797,325.27985,72,89,40
325.85797,326.02985,72,96,40
325.85797,326.02985,80,96,40
326.60797,327.34235,85,100,40
327.35797,327.54547,84,88,40
327.54547,327.73297,82,85,40
327.73297,327.93033,80,82,40
327.93033,328.12772,79,79,40
328.12772,328.32507,82,75,40
328.32507,328.52243,75,72,40
328.52243,328.73077,77,69,40
328.73077,328.93912,75,66,40
328.93912,329.1597,77,63,40
329.1597,329.38028,79,60,40
329.38028,329.79694,80,50,40
329.79694,330.54694,63,50,40
330.54694,330.6407,63,50,40
330.6407,330.73444,65,50,40
330.73444,330.8282,62,50,40
330.8282,330.92194,63,50,40
331.29694,332.04694,75,50,40
332.04694,332.1407,75,50,40
332.1407,332.23444,77,50,40
332.23444,332.3282,74,50,40
332.3282,332.42194,75,50,40
332.42194,332.60944,84,50,40
332.60944,332.79694,79,50,40
332.79694,332.98444,80,50,40
332.98444,333.17194,79,50,40
333.17194,333.35944,80,50,40
333.35944,333.54694,83,50,40
333.54694,333.73444,84,50,40
333.73444,333.92194,83,50,40
333.92194,334.10944,84,50,40
334.10944,334.29694,85,50,40
334.29694,334.48444,87,50,40
334.48444,334.67194,86,50,40
334.67194,334.85944,87,50,40
334.85944,335.04694,88,50,40
335.04694,335.23444,89,50,40
335.23444,335.42194,87,50,40
335.42194,335.7813,85,50,40
335.79694,336.54694,63,50,40
336.54694,336.6407,63,50,40
336.6407,336.73444,65,50,40
336.73444,336.8282,62,50,40
336.8282,336.92194,63,50,40
337.29694,338.04694,61,50,40
338.04694,338.1407,73,50,40
338.1407,338.23444,75,50,40
338.23444,338.3282,72,50,40
338.3282,338.42194,73,50,40
338.42194,338.60944,67,50,40
338.60944,338.79694,77,50,40
338.79694,338.98444,76,50,40
338.98444,339.17194,75,50,40
339.17194,339.35944,74,50,40
339.35944,339.54694,75,50,40
339.54694,339.73444,85,50,40
339.73444,339.92194,84,50,40
339.92194,340.10944,82,50,40
340.10944,340.29694,84,50,40
340.29694,340.48444,85,50,40
340.48444,340.67194,86,50,40
340.67194,340.85944,87,50,40
340.85944,341.04694,82,50,40
341.04694,341.23444,87,50,40
341.23444,341.42194,85,50,40
341.42194,341.7813,84,50,40
341.79694,342.54694,60,54,40
342.54694,342.6407,60,62,40
342.6407,342.73444,61,63,40
342.73444,342.8282,59,64,40
342.8282,342.92194,60,65,40
343.29694,344.04694,77,70,40
344.04694,344.1407,77,70,40
344.1407,344.23444,79,70,40
344.23444,344.3282,76,70,40
344.3282,344.4063,77,70,40
344.42194,344.60944,77,70,40
344.60944,344.79694,75,70,40
344.79694,344.98444,74,70,40
344.98444,345.17194,75,70,40
345.17194,345.35944,78,70,40
345.35944,345.54694,79,70,40
345.54694,345.73444,81,70,40
345.73444,345.92194,82,70,40
345.92194,346.10944,84,70,40
346.10944,346.29694,82,70,40
346.29694,346.48444,86,70,40
346.48444,346.67194,87,70,40
346.67194,346.85944,89,70,40
346.85944,347.04694,86,70,40
347.04694,347.23444,89,70,40
347.23444,347.42194,91,70,40
347.42194,348.1563,92,70,40
348.35944,348.54694,80,70,40
348.54694,348.73444,77,70,40
348.73444,348.92194,75,70,40
348.92194,349.4688,74,70,40
349.85944,350.04694,84,70,40
350.04694,350.23444,82,70,40
350.23444,350.42194,74,70,40
350.42194,350.60944,77,70,40
350.60944,350.79694,75,70,40
350.79694,350.98444,74,70,40
350.98444,351.17194,73,70,40
351.17194,351.35944,72,70,40
351.35944,351.54694,70,70,40
351.54694,351.73444,68,70,40
351.73444,351.92194,67,70,40
351.92194,352.10944,65,70,40
352.10944,352.29694,63,70,40
352.29694,352.48444,62,70,40
352.48444,352.67194,61,70,40
352.67194,352.85944,60,70,40
352.85944,353.04694,59,70,40
353.04694,353.23444,58,70,40
353.23444,353.42194,56,70,40
353.42194,353.7813,55,60,40
353.79694,354.5313,67,61,40
354.54694,354.73444,67,63,40
354.73444,354.92194,68,64,40
354.92194,355.18756,70,65,40
355.29694,356.0313,70,66,40
356.04694,356.23444,70,69,40
356.23444,356.42194,72,69,40
356.42194,356.68756,73,70,40
356.79694,357.06256,63,71,40
357.17194,357.43756,75,72,40
357.54694,357.73444,75,74,40
357.73444,357.92194,77,74,40
357.92194,358.20157,79,75,40
358.31668,359.11072,82,76,40
359.12808,359.34866,84,79,40
359.34866,359.56927,85,80,40
359.56927,360.3423,87,80,40
361.93768,362.33243,80,88,40
362.33243,362.5298,75,89,40
362.5298,362.72717,73,90,40
362.72717,362.91467,72,91,40
363.10217,363.83655,75,92,40
363.85217,364.03967,77,95,40
364.03967,364.21155,78,95,40
364.22717,364.4928,78,96,40
364.60217,365.14905,78,97,40
365.16467,365.35217,80,99,40
365.35217,365.53967,82,100,40
365.53967,365.72717,84,100,40
365.72717,369.46155,85,127,40
369.10217,369.83655,73,70,40
369.85217,370.03967,73,70,40
370.03967,370.22717,75,70,40
370.22717,370.41467,76,70,40
370.60217,371.33655,77,70,40
371.35217,371.53967,79,70,40
371.53967,371.71155,80,70,40
371.72717,371.9928,80,70,40
372.10217,372.83655,75,70,40
372.85217,373.03967,77,70,40
373.03967,373.21155,75,70,40
373.22717,373.4928,75,70,40
373.60217,374.33655,74,70,40
374.35217,374.53967,73,70,40
374.53967,374.72717,70,70,40
375.47717,375.85217,84,70,40
375.85217,376.02405,80,70,40
376.03967,376.22717,81,70,40
376.97717,377.35217,82,70,40
377.35217,377.53967,77,70,40
377.53967,377.72717,79,70,40
377.72717,377.9928,80,70,40
378.10217,378.83655,69,70,40
378.85217,379.03967,68,70,40
379.03967,379.22717,75,70,40
379.22717,379.77405,73,70,40
381.10217,381.83655,77,70,40
381.85217,382.03967,75,70,40
382.03967,382.22717,84,70,40
382.22717,382.77405,82,70,40
384.10217,384.83655,77,70,40
384.85217,385.03967,75,70,40
385.03967,385.22717,80,70,40
385.22717,385.77405,82,70,40
385.97717,386.35217,55,70,40
386.35217,386.53967,58,70,40
386.53967,386.72717,55,70,40
386.72717,387.27405,56,70,40
389.16467,389.35217,87,106,40
389.35217,389.53967,85,110,40
389.53967,389.72717,84,90,40
389.72717,389.91467,82,70,40
389.91467,390.10217,84,70,40
390.10217,390.28967,85,70,40
390.28967,390.47717,84,70,40
390.47717,390.66467,85,70,40
390.66467,390.85217,87,70,40
390.85217,391.03967,89,70,40
391.03967,391.22717,87,70,40
391.22717,391.41467,85,70,40
391.41467,391.60217,87,70,40
391.60217,391.78967,85,70,40
391.78967,391.97717,84,70,40
391.97717,392.16467,82,70,40
392.16467,392.35217,84,70,40
392.35217,392.53967,82,70,40
392.53967,392.72717,80,70,40
392.72717,393.10217,79,70,40
393.10217,393.83655,55,70,40
393.85217,393.94592,63,70,40
393.94592,394.03967,65,70,40
394.03967,394.13342,62,70,40
394.13342,394.22717,63,70,40
394.60217,395.33655,75,70,40
395.35217,395.44592,75,70,40
395.44592,395.53967,77,70,40
395.53967,395.63342,74,70,40
395.63342,395.72717,75,70,40
395.72717,395.91467,84,70,40
395.91467,396.10217,85,70,40
396.10217,396.28967,87,70,40
396.28967,396.47717,85,70,40
396.47717,396.66467,84,70,40
396.66467,396.85217,85,70,40
396.85217,397.03967,84,70,40
397.03967,397.21155,82,70,40
397.22717,397.41467,82,70,40
397.41467,397.60217,84,70,40
397.60217,397.78967,82,70,40
397.78967,397.97717,80,70,40
397.97717,398.16467,80,70,40
398.16467,398.35217,79,70,40
398.35217,398.53967,80,70,40
398.53967,398.72717,82,70,40
398.72717,399.10217,84,70,40
399.10217,399.83655,56,70,40
399.85217,399.94592,56,70,40
399.94592,400.03967,58,70,40
400.03967,400.13342,55,70,40
400.13342,400.22717,56,70,40
400.60217,401.33655,75,70,40
401.35217,401.41467,80,70,40
401.41467,401.47717,82,70,40
401.47717,401.53967,80,70,40
401.53967,401.63342,79,70,40
401.63342,401.72717,80,70,40
401.91467,402.10217,80,71,40
402.10217,402.28967,85,73,40
402.28967,402.47717,84,74,40
402.47717,402.5553,85,76,40
402.66467,402.85217,80,77,40
402.85217,403.03967,85,79,40
403.03967,403.22717,84,81,40
403.22717,403.47717,85,82,40
403.60217,404.33655,80,85,40
404.35217,404.41467,80,92,40
404.41467,404.47717,82,92,40
404.47717,404.53967,80,93,40
404.53967,404.63342,79,93,40
404.63342,404.72717,80,94,40
404.91467,405.10217,76,96,40
405.10217,405.28967,88,98,40
405.28967,405.47717,76,99,40
405.47717,405.5553,88,101,40
405.66467,405.85217,77,103,40
405.85217,406.03967,89,104,40
406.03967,406.22717,77,106,40
406.22717,406.47717,79,107,40
406.60217,406.8678,64,110,40
406.97717,407.35544,65,110,40
407.3719,407.44135,65,110,40
407.44135,407.51077,67,103,40
407.51077,407.58023,65,95,40
407.58023,407.69052,64,88,40
407.69052,407.8008,65,76,40
408.0214,408.242,80,70,40
408.242,408.4295,92,70,40
408.4295,408.617,91,70,40
408.617,408.8045,92,70,40
408.8045,408.992,87,70,40
408.992,409.1795,89,70,40
409.1795,409.367,87,70,40
409.367,409.5545,85,70,40
409.5545,409.742,82,70,40
409.742,409.9295,84,70,40
409.9295,410.117,82,70,40
410.117,410.3045,79,70,40
410.3045,410.492,75,70,40
410.492,410.6795,77,70,40
410.6795,410.867,75,70,40
410.867,411.117,80,70,40
411.242,411.97638,68,70,40
411.992,412.0545,63,70,40
412.0545,412.117,65,70,40
412.117,412.1795,63,70,40
412.1795,412.27325,62,70,40
412.27325,412.367,63,70,40
412.742,413.47638,63,70,40
413.492,413.5545,63,70,40
413.5545,413.617,65,70,40
413.617,413.6795,63,70,40
413.6795,413.77325,62,70,40
413.77325,413.867,63,70,40
414.0545,414.242,80,69,40
414.242,414.4295,87,68,40
414.4295,414.617,86,67,40
414.617,414.69513,87,65,40
414.8045,414.992,68,64,40
414.992,415.1795,78,63,40
415.1795,415.367,75,61,40
415.367,415.617,73,60,40
415.742,416.47638,80,57,40
416.492,416.5545,80,52,40
416.5545,416.617,82,52,40
416.617,416.6795,80,51,40
416.6795,416.77325,79,51,40
416.77325,416.85138,80,50,40
417.0545,417.242,80,50,40
417.242,417.4295,82,52,40
417.4295,417.617,80,55,40
417.617,417.69513,84,58,40
417.8045,417.992,80,61,40
417.992,418.1795,82,64,40
418.1795,418.367,80,66,40
418.367,418.617,75,69,40
418.742,419.47638,79,75,40
419.492,419.5545,79,86,40
419.5545,419.617,80,87,40
419.617,419.6795,79,88,40
419.6795,419.77325,77,89,40
419.77325,419.867,79,90,40
420.0545,420.242,75,90,40
420.242,420.4295,80,89,40
420.4295,420.617,79,88,40
420.617,420.867,80,87,40
420.992,421.0545,75,85,40
421.0545,421.117,77,84,40
421.117,421.1795,75,84,40
421.1795,421.27325,73,84,40
421.27325,421.367,75,83,40
421.5545,421.742,75,82,40
421.742,421.9295,82,81,40
421.9295,422.117,81,80,40
422.117,422.367,82,79,40
422.492,422.5545,75,77,40
422.5545,422.617,77,77,40
422.617,422.6795,75,77,40
422.6795,422.77325,73,76,40
422.77325,422.867,75,76,40
423.06436,423.24527,75,74,40
423.26172,423.44266,80,73,40
423.4591,423.64,79,72,40
423.65646,423.93423,80,71,40
424.07312,424.35092,60,70,40
424.4898,425.35376,61,70,40
425.37216,428.96756,64,70,40
428.98178,430.3312,68,90,40
430.34543,431.69485,73,110,40
431.70905,433.05847,73,110,40
433.0727,435.10394,71,91,40
435.11813,435.78577,71,70,40
435.79996,436.46756,73,70,40
436.48178,437.14938,75,70,40
437.1636,439.53577,76,100,40
439.54996,439.87665,66,93,40
439.89087,440.89938,66,97,40
441.25452,442.3639,66,110,40
442.75452,444.10394,66,70,40
444.11813,445.8227,73,70,40
445.8227,446.1636,71,60,40
446.1636,447.57977,83,70,40
447.5954,448.41138,81,70,40
448.42874,449.09634,81,70,40
449.11057,449.77817,80,75,40
449.7924,450.46,80,81,40
450.47418,450.8151,88,87,40
450.8151,451.156,85,90,40
451.156,451.82364,83,93,40
451.83783,452.50543,82,99,40
452.51965,453.18726,82,105,40
453.20148,453.90088,82,110,40
453.91574,454.61517,82,110,40
454.63004,455.3644,83,95,40
455.38004,456.17395,83,80,40
456.19086,456.59625,93,70,40
456.59625,457.00165,90,70,40
457.00165,457.73602,88,70,40
457.75165,458.41928,87,70,40
458.43347,459.1011,85,70,40
459.1153,459.7829,83,70,40
459.79712,460.46472,83,70,40
460.47894,461.14655,76,75,40
461.16074,461.82837,80,80,40
461.84256,462.5102,83,85,40
462.52438,463.06415,85,90,40
463.2062,463.74597,87,95,40
463.88803,464.48178,88,100,40
464.63803,465.29773,90,105,40
465.47134,467.70572,92,110,40
467.72134,468.4944,58,91,40
468.51083,469.3268,58,70,40
469.34418,470.99347,59,80,40
471.01083,471.8268,59,100,40
471.84415,473.8754,66,85,40
473.88962,474.55722,64,70,40
474.57144,475.92087,63,70,40
475.93506,476.6027,64,70,40
476.61688,477.28452,66,70,40
477.2987,479.32996,68,70,40
479.34415,480.01178,66,70,40
480.02597,481.3754,65,70,40
481.38962,482.05722,66,70,40
482.07144,482.73904,68,70,40
482.75323,484.1027,69,70,40
484.11688,486.82996,75,100,40
486.84415,487.54355,76,100,40
487.55844,488.37442,78,100,40
488.39178,490.62616,76,110,40
490.64178,492.12616,71,90,40
492.14178,492.51678,59,70,40
492.51678,492.87616,71,70,40
492.89178,493.26678,71,70,40
493.26678,493.64178,83,70,40
493.64178,494.01678,82,70,40
494.01678,494.39178,83,70,40
494.39178,497.37616,83,70,40
497.39178,498.87616,90,70,40
498.89178,500.42203,83,70,40
500.4394,503.15247,83,70,40
503.16666,504.51608,92,70,40
504.5303,506.06055,83,70,40
506.0779,507.42734,87,70,40
507.44156,508.791,90,110,40
508.8052,511.71652,93,110,40
511.73386,512.4333,91,110,40
512.4482,513.1476,90,100,40
513.1624,513.8618,88,90,40
513.8767,515.2904,90,80,40
515.3053,516.0047,88,70,40
516.0196,516.719,76,70,40
516.7339,517.4333,71,70,40
517.4482,518.1476,71,69,40
518.1624,518.8618,68,67,40
518.8767,519.5761,71,66,40
519.591,521.0047,69,64,40
521.0196,521.719,64,61,40
521.7339,522.46826,68,60,40
522.4839,524.0464,66,58,40
524.0628,524.8523,64,55,40
524.8523,526.0365,66,54,40
526.0365,527.599,59,51,40
528.0102,533.1457,64,50,40
533.1606,538.1457,63,50,40
538.1606,538.6814,75,50,40
538.7855,538.9492,75,60,40
538.8748,540.2885,84,50,40
540.3034,540.6605,82,50,40
540.6605,541.0028,80,50,40
541.0177,542.4314,80,50,40
542.4463,542.8034,79,50,40
542.8034,543.1457,75,50,40
543.1605,546.7171,87,50,40
546.732,547.4314,85,50,40
547.4463,548.8599,85,50,40
548.8748,549.232,84,50,40
549.232,549.5742,82,50,40
549.5891,550.3034,82,50,40
550.3034,551.0177,81,52,40
551.0177,551.7171,87,55,40
551.732,553.1457,87,58,40
553.1605,553.5177,85,64,40
553.5177,553.8599,84,65,40
553.8748,554.5891,84,66,40
554.5891,555.3034,82,69,40
555.3034,557.4314,89,72,40
557.4463,557.8034,87,80,40
557.8034,558.1457,85,80,40
558.1605,560.2885,84,70,40
560.3034,562.4314,83,110,40
562.4463,563.8599,82,70,40
563.8748,564.232,80,70,40
564.232,564.5891,79,70,40
564.5891,564.9463,77,70,40
564.9463,565.2885,76,70,40
565.3034,565.6605,76,70,40
565.6605,566.0177,75,70,40
566.0177,566.107,73,70,40
566.107,566.1963,75,70,40
566.1963,566.2855,73,70,40
566.2855,566.3748,75,70,40
566.3748,566.4939,73,70,40
566.4939,566.6129,72,70,40
566.6129,566.732,73,70,40
566.732,567.4314,72,70,40
567.4463,568.1457,63,70,40
568.1605,568.2498,63,70,40
568.2498,568.3391,65,70,40
568.3391,568.4284,63,70,40
568.4284,568.5177,65,70,40
568.5177,568.6367,63,70,40
568.6367,568.7558,62,70,40
568.7558,568.8748,63,70,40
568.8748,569.3957,68,70,40
569.5891,570.1099,72,70,40
570.3034,570.8242,75,70,40
571.0177,571.5385,80,70,40
571.732,572.2528,84,70,40
572.4462,572.9671,87,70,40
573.1605,573.6814,91,70,40
573.8748,574.4217,92,70,40
574.6248,575.2325,80,70,40
575.4582,576.1576,79,70,40
576.1724,576.8718,63,70,40
576.8867,576.976,63,70,40
576.976,577.0653,65,70,40
577.0653,577.1546,63,70,40
577.1546,577.2439,65,70,40
577.2439,577.3629,63,70,40
577.3629,577.482,62,70,40
577.482,577.601,63,70,40
577.601,578.1218,67,70,40
578.3153,578.8361,70,70,40
579.0296,579.5504,73,70,40
579.7439,580.2647,75,70,40
580.4581,580.979,79,70,40
581.1724,581.6933,82,70,40
581.8867,582.4076,87,70,40
582.601,583.1479,89,70,40
583.351,583.9587,91,70,40
584.1843,584.8837,92,70,40
584.8986,585.598,72,72,40
585.6129,585.7022,84,75,40
585.7022,585.7915,85,75,40
585.7915,585.8808,84,76,40
585.8808,585.9701,85,76,40
585.9701,586.0891,84,77,40
586.0891,586.2081,83,77,40
586.2081,586.3272,84,77,40
587.00903,587.67664,72,81,40
587.69086,587.77606,77,84,40
587.77606,587.86127,79,84,40
587.86127,587.94653,77,84,40
587.94653,588.03174,79,85,40
588.03174,588.1454,77,85,40
588.1454,588.25903,76,85,40
588.25903,588.3727,77,86,40
589.0545,589.7221,70,89,40
589.73627,589.82153,79,92,40
589.82153,589.90674,80,92,40
589.90674,589.992,79,93,40
589.992,590.0772,80,93,40
590.0772,590.19086,79,93,40
590.19086,590.3045,77,94,40
590.3045,590.4181,79,94,40
591.0999,591.7675,70,98,40
591.78174,591.867,80,100,40
591.867,591.9522,82,99,40
591.9522,592.0374,80,97,40
592.0374,592.1227,82,95,40
592.1227,592.23627,80,93,40
592.23627,592.3499,79,90,40
592.3499,592.46356,80,88,40
593.1454,593.813,70,70,40
593.8272,593.9124,80,70,40
593.9124,593.9977,82,70,40
593.9977,594.0829,80,70,40
594.0829,594.1681,82,70,40
594.1681,594.28174,80,70,40
594.28174,594.3954,79,70,40
594.3954,594.50903,80,70,40
595.19086,595.85846,77,70,40
595.8727,595.9579,82,70,40
595.9579,596.0431,84,70,40
596.0431,596.12836,82,70,40
596.12836,596.21356,84,70,40
596.21356,596.3272,82,70,40
596.3272,596.44086,81,70,40
596.44086,596.5545,82,70,40
597.23627,597.90393,75,70,40
597.9181,598.00336,87,72,40
598.00336,598.08856,89,72,40
598.08856,598.17377,87,73,40
598.17377,598.25903,89,73,40
598.25903,598.3727,87,73,40
598.3727,598.48627,86,74,40
598.48627,598.5999,87,74,40
599.28174,599.94934,75,77,40
599.96356,600.04877,87,79,40
600.04877,600.13403,89,79,40
600.13403,600.21924,87,80,40
600.21924,600.3045,89,80,40
600.3045,600.4181,87,80,40
600.4181,600.53174,86,81,40
600.53174,600.6454,87,81,40
600.6454,604.38116,70,82,40
604.3954,604.7221,68,95,40
604.73627,606.44086,68,96,40
606.44086,606.78174,67,102,40
606.78174,608.48627,68,103,40
608.48627,608.8272,70,109,40
608.8272,609.4948,71,110,40
609.50903,612.5772,72,110,40
612.5772,612.9181,71,110,40
612.9181,614.6227,70,110,40
614.6227,614.96356,69,110,40
614.96356,616.6681,70,110,40
616.6681,617.00903,72,110,40
617.00903,620.7448,74,120,40
620.75903,621.0999,75,110,40
621.0999,622.80444,77,110,40
622.80444,623.1454,79,110,40
623.1454,624.8499,80,120,40
624.8499,625.19086,82,77,40
625.19086,626.8954,80,70,40
626.8954,627.23627,75,70,40
627.23627,628.94086,73,70,40
628.94086,629.28174,70,70,40
629.28174,629.94934,68,70,40
629.96356,630.63116,63,70,40
630.6454,630.7306,75,72,40
630.7306,630.81586,77,72,40
630.81586,630.90106,75,73,40
630.90106,630.98627,77,73,40
630.98627,631.0999,75,73,40
631.0999,631.21356,74,74,40
631.21356,631.3272,75,74,40
632.00903,632.67664,75,77,40
632.69086,632.77606,87,79,40
632.77606,632.86127,89,79,40
632.86127,632.94653,87,80,40
632.94653,633.03174,89,80,40
633.03174,633.1454,87,80,40
633.1454,633.25903,86,81,40
633.25903,633.3726,87,81,40
633.3726,633.8698,75,82,40
634.05444,634.55164,63,84,40
634.73627,634.82153,63,86,40
634.82153,634.90674,65,87,40
634.90674,634.99194,63,87,40
634.99194,635.0772,65,87,40
635.0772,635.19086,63,88,40
635.19086,635.30444,62,88,40
635.30444,635.4181,63,88,40
635.4181,635.9153,67,89,40
636.0999,636.5971,70,91,40
636.78174,637.2789,73,94,40
637.46356,637.9607,75,96,40
638.1454,638.6425,79,98,40
638.8272,639.32434,82,101,40
639.50903,640.00616,86,103,40
640.19086,640.7117,87,106,40
640.9051,641.4808,87,108,40
641.6946,642.1918,75,110,40
642.3764,642.87354,63,110,40
643.0582,643.14343,63,110,40
643.14343,643.2287,65,110,40
643.2287,643.3139,63,110,40
643.3139,643.3991,65,110,40
643.3991,643.51276,63,110,40
643.51276,643.6264,62,110,40
643.6264,643.74005,63,110,40
643.74005,644.2372,66,110,40
644.4219,644.919,69,110,40
645.1037,645.6008,72,110,40
645.7855,646.28265,75,110,40
646.4673,646.9645,78,110,40
647.1491,647.6463,84,110,40
647.83093,648.3281,88,110,40
648.51276,649.03357,89,110,40
649.22705,649.32574,77,110,40
649.32574,649.42444,79,110,40
649.42444,649.52313,77,110,40
649.52313,649.62177,79,110,40
649.62177,649.75336,77,110,40
649.75336,649.88495,76,110,40
649.88495,650.00006,77,110,40
650.01654,650.5137,77,110,40
650.69836,651.1955,58,110,40
651.3802,651.4654,58,110,40
651.4654,651.5506,60,110,40
651.5506,651.63586,58,110,40
651.63586,651.72107,60,110,40
651.72107,651.8347,58,110,40
651.8347,651.94836,57,110,40
651.94836,652.06195,58,110,40
652.06195,652.55914,62,110,40
652.7438,653.24097,65,110,40
653.4256,653.9228,68,110,40
654.1074,654.6046,70,110,40
654.78925,655.28644,74,110,40
655.47107,655.9682,77,110,40
656.1529,656.65,82,110,40
656.8347,657.33185,89,110,40
657.51654,657.60175,87,110,40
657.60175,657.68695,89,110,40
657.68695,657.7722,87,110,40
657.7722,657.8574,89,110,40
657.8574,657.97107,87,110,40
657.97107,658.0847,86,110,40
658.0847,658.18414,87,110,40
658.19836,658.6955,87,110,40
658.8802,659.3773,63,104,40
659.56195,659.6472,75,97,40
659.6472,659.7324,77,96,40
659.7324,659.8177,75,95,40
659.8177,659.9029,77,94,40
659.9029,660.01654,75,93,40
660.01654,660.1302,74,92,40
660.1302,660.2296,75,91,40
660.2438,660.74097,75,90,40
660.9256,661.4228,63,83,40
661.6074,661.6927,79,76,40
661.6927,661.7779,80,76,40
661.7779,661.8631,79,75,40
661.8631,661.94836,80,74,40
661.94836,662.06195,79,73,40
662.06195,662.1756,77,72,40
662.1756,662.28925,79,71,40
662.28925,662.78644,80,70,40
662.97107,663.4682,63,70,40
663.6529,663.7381,75,78,40
663.7381,663.82336,77,79,40
663.82336,663.90857,75,80,40
663.90857,663.9938,77,81,40
663.9938,664.1074,75,82,40
664.1074,664.22107,74,84,40
664.22107,664.3205,75,85,40
664.3347,664.83185,75,86,40
665.01654,665.5137,63,95,40
665.69836,665.78357,79,103,40
665.78357,665.8688,80,104,40
665.8688,665.95404,79,105,40
665.95404,666.03925,80,106,40
666.03925,666.1529,79,108,40
666.1529,666.26654,77,109,40
666.26654,666.3802,79,110,40
666.3802,666.8773,80,110,40
667.06195,667.55914,80,107,40
667.7438,667.82904,78,104,40
667.82904,667.91425,80,103,40
667.91425,667.99945,78,103,40
667.99945,668.0847,80,102,40
668.0847,668.19836,78,102,40
668.19836,668.31195,77,102,40
668.31195,668.4256,78,101,40
668.4256,668.9228,77,100,40
669.1074,669.6046,80,97,40
669.78925,669.87445,76,94,40
669.87445,669.9597,78,93,40
669.9597,670.0449,76,93,40
670.0449,670.1301,78,92,40
670.1301,670.2438,76,92,40
670.2438,670.3574,75,91,40
670.3574,670.47107,76,91,40
670.47107,670.9682,75,90,40
671.1529,671.65,80,87,40
671.8347,671.9199,75,84,40
671.9199,672.0051,77,83,40
672.0051,672.0904,75,83,40
672.0904,672.1756,77,82,40
672.1756,672.28925,75,82,40
672.28925,672.4029,74,81,40
672.4029,672.5023,75,81,40
672.51654,673.0137,75,80,40
673.19836,673.7192,85,90,40
673.9126,674.00635,75,73,40
674.00635,674.1001,77,73,40
674.1001,674.19385,75,73,40
674.19385,674.2876,77,72,40
674.2876,674.4126,75,72,40
674.4126,674.5376,74,71,40
674.5376,674.647,75,71,40
674.6626,675.2383,75,70,40
675.4521,676.0278,84,70,40
676.2416,676.3403,75,70,40
676.3403,676.43896,77,70,40
676.43896,676.5376,75,70,40
676.5376,676.6363,77,70,40
676.6363,676.7679,75,70,40
676.7679,676.8995,74,70,40
676.8995,677.0146,75,70,40
677.03107,677.6387,75,70,40
677.8644,678.472,85,70,40
678.6977,678.8019,79,70,40
678.8019,678.90607,80,70,40
678.90607,679.0102,79,70,40
679.0102,679.1144,80,70,40
679.1144,679.25323,79,70,40
679.25323,679.39215,77,70,40
679.39215,679.53107,79,70,40
679.53107,681.01544,80,70,40
681.78107,683.26544,82,70,40
684.03107,685.51544,80,60,40
690.4247,691.0923,55,50,40
691.1065,692.45593,56,50,40
692.47015,693.13776,60,50,40
693.152,698.5923,61,50,40
698.6065,699.2741,65,50,40
699.2883,700.63776,66,50,40
700.652,701.3196,70,50,40
701.33374,706.0923,68,50,40
706.1065,706.7741,71,50,40
706.7883,707.45593,72,50,40
707.47015,708.8196,70,50,40
708.83374,709.5014,68,50,40
709.51556,712.91046,73,50,40
712.9247,713.5923,69,50,40
713.6065,717.0014,70,50,40
717.01556,717.6832,66,50,40
717.6974,721.0923,65,50,40
721.1065,721.7741,63,50,40
721.7883,723.8514,61,50,40
723.8662,725.3149,60,50,40
727.50494,728.1726,79,50,40
728.18677,729.5362,80,50,40
729.5504,730.218,84,50,40
730.23224,742.4908,85,110,40
742.50494,744.5362,78,70,40
744.5504,746.58167,80,70,40
746.5959,747.9453,76,70,40
747.95953,748.62714,73,70,40
748.6413,749.9907,71,72,40
750.00494,750.67255,75,76,40
750.68677,752.0362,78,78,40
752.0504,752.718,69,82,40
752.73224,754.08167,68,84,40
754.0959,754.7635,71,88,40
754.7777,756.12714,75,90,40
756.1413,756.8407,66,94,40
756.8556,758.30426,64,96,40
758.3199,759.13586,73,100,40
759.1532,760.5669,63,70,40
760.5818,761.2812,73,70,40
761.2961,762.78046,63,70,40
762.7961,763.61206,72,70,40
763.6294,765.1138,73,70,40
768.058,771.4529,73,70,40
771.4671,772.1347,75,70,40
772.14886,773.49835,76,70,40
773.5125,774.1801,78,70,40
774.19434,775.60803,80,70,40
775.6229,776.39594,81,70,40
776.4124,777.8261,81,70,40
777.84094,779.8722,73,70,40
779.8864,780.554,74,80,40
780.56824,781.98193,76,83,40
781.9968,782.6962,78,90,40
782.7111,784.1955,80,94,40
784.2111,785.02704,81,100,40
785.04443,785.74384,79,70,40
785.7587,786.4581,80,70,40
786.473,787.1724,75,70,40
787.18726,787.88666,74,70,40
787.90155,788.6746,73,70,40
788.69104,789.555,70,70,40
789.57336,789.72046,75,70,40
789.72046,789.8675,77,70,40
789.8675,790.0146,75,70,40
790.0146,790.1133,77,70,40
790.1133,790.2119,75,70,40
790.2119,790.3106,77,70,40
790.3106,790.4093,75,70,40
790.4093,790.4945,77,70,40
790.4945,790.5798,75,70,40
790.5798,790.665,77,70,40
790.665,790.7502,75,70,40
790.7502,790.83545,77,70,40
790.83545,790.92065,75,70,40
790.92065,791.0059,77,70,40
791.0059,791.0911,75,70,40
791.0911,791.17633,77,70,40
791.17633,791.2616,75,70,40
791.2616,791.3468,77,70,40
791.3468,791.432,75,70,40
791.432,791.5173,77,70,40
791.5173,791.6025,75,70,40
791.6025,791.6877,77,70,40
791.6877,791.77295,75,70,40
791.77295,791.85815,77,70,40
791.85815,791.9434,75,70,40
791.9434,792.0286,77,70,40
792.0286,792.11383,75,70,40
792.11383,792.1991,77,70,40
792.1991,792.2843,75,70,40
792.2843,792.3695,77,70,40
792.3695,792.4548,75,70,40
792.4548,792.54,77,70,40
792.54,792.6252,75,70,40
792.6252,792.71045,77,70,40
792.71045,792.79565,75,70,40
792.79565,792.8809,77,70,40
792.8809,792.9661,75,70,40
792.9661,793.05133,77,70,40
793.05133,793.1366,75,70,40
793.1366,793.2218,77,70,40
793.2218,793.307,75,70,40
793.307,793.3923,77,70,40
793.3923,793.4775,75,70,40
793.4775,793.5627,77,70,40
793.5627,793.64795,75,70,40
793.64795,793.73315,77,70,40
793.73315,793.8184,75,70,40
793.8184,793.9036,77,70,40
793.9036,793.98883,75,70,40
793.98883,794.0741,77,70,40
794.0741,794.1593,75,71,40
794.1593,794.2445,77,71,40
794.2445,794.3298,75,71,40
794.3298,794.415,77,72,40
794.415,794.5002,75,72,40
794.5002,794.58545,77,73,40
794.58545,794.67065,75,73,40
794.67065,794.7559,77,73,40
794.7559,794.8411,75,74,40
794.8411,794.92633,77,74,40
794.92633,795.0116,75,75,40
795.0116,795.0968,73,75,40
795.0968,795.182,75,75,40
795.182,795.2673,80,76,40
795.2673,795.3525,82,76,40
795.3525,795.4377,80,76,40
795.4377,795.52295,82,77,40
795.52295,795.6366,80,77,40
795.6366,795.7502,79,78,40
795.7502,795.86383,80,78,40
795.86383,795.9491,82,79,40
795.9491,796.0343,84,79,40
796.0343,796.1195,82,80,40
796.1195,796.2048,84,80,40
796.2048,796.29,82,80,40
796.29,796.3752,84,81,40
796.3752,796.46045,82,81,40
796.46045,796.54565,84,81,40
796.54565,796.6309,82,82,40
796.6309,796.7161,84,82,40
796.7161,796.80133,82,83,40
796.80133,796.8866,84,83,40
796.8866,796.9718,82,83,40
796.9718,797.057,84,84,40
797.057,797.1423,82,84,40
797.1423,797.2275,84,85,40
797.2275,797.3127,82,85,40
797.3127,797.39795,84,85,40
797.39795,797.48315,82,86,40
797.48315,797.5684,84,86,40
797.5684,797.682,82,87,40
797.682,797.79565,80,87,40
797.79565,797.9093,82,88,40
797.9093,797.9945,85,88,40
797.9945,798.0798,87,88,40
798.0798,798.165,85,89,40
798.165,798.2502,87,89,40
798.2502,798.33545,85,90,40
798.33545,798.42065,87,90,40
798.42065,798.5059,85,90,40
798.5059,798.5911,87,91,40
798.5911,798.67633,85,91,40
798.67633,798.7616,87,92,40
798.7616,798.8468,85,92,40
798.8468,798.932,87,92,40
798.932,799.0173,85,93,40
799.0173,799.1025,87,93,40
799.1025,799.1877,85,93,40
799.1877,799.27295,87,94,40
799.27295,799.36017,86,94,40
799.36017,799.4473,87,95,40
799.4473,799.53455,86,95,40
799.53455,799.62177,87,95,40
799.62177,799.73804,86,96,40
799.73804,799.8543,84,96,40
799.8543,799.97064,86,97,40
799.97064,800.0578,87,97,40
800.0578,800.145,89,98,40
800.145,800.23224,87,98,40
800.23224,800.31946,89,99,40
800.31946,800.4067,87,99,40
800.4067,800.4939,89,99,40
800.4939,800.58105,87,100,40
800.58105,800.6683,89,100,40
800.6683,800.7555,87,100,40
800.7555,800.8427,89,99,40
800.8427,800.92993,87,97,40
800.92993,801.01715,89,95,40
801.01715,801.1334,87,93,40
801.1334,801.2497,85,90,40
801.2497,801.36597,87,88,40
801.36597,801.7231,89,85,40
801.7231,802.11786,91,77,40
802.11786,802.45874,92,70,40
802.45874,802.7997,74,70,40
802.7997,803.14056,75,70,40
803.14056,803.48145,74,70,40
803.48145,803.8224,75,70,40
803.8224,804.16327,79,70,40
804.16327,804.5042,80,70,40
804.5042,804.8451,82,70,40
804.8451,805.18604,80,70,40
805.18604,805.5269,79,70,40
805.5269,805.86786,80,70,40
805.86786,806.20874,82,70,40
806.20874,806.5497,84,70,40
806.5497,806.89056,85,70,40
806.89056,807.23145,84,70,40
807.23145,807.5724,83,70,40
807.5724,807.91327,84,70,40
807.91327,808.2542,85,70,40
808.2542,808.5951,86,70,40
808.5951,808.93604,87,70,40
808.93604,809.2769,89,70,40
809.2769,809.61786,87,70,40
809.61786,809.95874,77,70,40
809.95874,810.28546,89,70,40
810.2997,810.64056,89,70,40
810.64056,810.98145,87,70,40
810.98145,811.3224,85,70,40
811.3224,811.66327,84,70,40
811.66327,812.0042,87,70,40
812.0042,812.3451,85,70,40
812.3451,812.68604,84,70,40
812.68604,813.0269,82,70,40
813.0269,813.36786,81,70,40
813.36786,813.70874,82,70,40
813.70874,814.0497,85,70,40
814.0497,814.39056,82,70,40
814.39056,814.73145,80,70,40
814.73145,815.0724,79,70,40
815.0724,815.41327,78,70,40
815.41327,815.7542,79,70,40
815.7542,816.0951,82,70,40
816.0951,816.43604,79,70,40
816.43604,816.7769,77,70,40
816.7769,817.11786,75,70,40
817.11786,817.45874,74,70,40
817.45874,817.7997,75,70,40
817.7997,818.14056,77,70,40
818.14056,818.48145,79,70,40
818.48145,818.8224,82,70,40
818.8224,819.16327,79,70,40
819.16327,819.5042,82,70,40
819.5042,819.8451,80,70,40
819.8451,820.18604,84,70,40
820.18604,820.5269,80,70,40
820.5269,820.86786,79,70,40
820.86786,821.20874,76,70,40
821.20874,821.5497,79,70,40
821.5497,821.89056,77,70,40
821.89056,822.23145,80,70,40
822.23145,822.5724,77,70,40
822.5724,822.91327,75,70,40
822.91327,823.2542,72,70,40
823.2542,823.5951,75,70,40
823.5951,823.93604,73,70,40
823.93604,824.2769,77,70,40
824.2769,824.61786,73,70,40
824.61786,824.95874,73,70,40
824.95874,825.2996,71,70,40
825.2996,825.64056,73,70,40
825.64056,825.98145,72,70,40
825.98145,826.3224,75,70,40
826.3224,826.66327,72,70,40
826.66327,827.0042,80,70,40
827.0042,827.3451,75,73,40
827.3451,827.68604,84,76,40
827.68604,828.0269,80,79,40
828.0269,828.36786,87,82,40
828.36786,828.70874,84,85,40
828.70874,829.0496,92,88,40
829.0496,829.39056,91,91,40
829.39056,829.73145,89,94,40
829.73145,830.0724,87,97,40
830.0724,830.41327,85,100,40
830.41327,830.7542,84,85,40
830.7542,831.0951,82,70,40
831.0951,831.43604,81,70,40
831.43604,831.7769,80,70,40
831.7769,832.11786,79,70,40
832.11786,832.45874,77,70,40
832.45874,832.7996,75,70,40
832.7996,833.14056,73,70,40
833.14056,833.48145,72,70,40
833.48145,833.8224,70,70,40
833.8224,834.16327,68,70,40
834.16327,834.5042,67,70,40
834.5042,834.8451,65,70,40
834.8451,839.60364,63,70,40
839.61786,841.6491,75,81,40
841.66327,843.0127,87,87,40
843.0269,847.78546,63,90,40
847.7996,849.8309,75,102,40
849.8451,850.85364,87,107,40
850.8678,851.20874,80,110,40
851.20874,855.9673,68,110,40
855.98145,858.0127,80,70,40
858.0269,860.05817,92,97,40
860.0724,862.10364,87,107,40
862.1178,863.8303,87,96,40
863.8303,864.17914,79,87,40
864.17914,864.52795,80,86,40
864.52795,864.87683,75,84,40
864.87683,865.23395,77,82,40
865.23395,865.59106,75,80,40
865.59106,865.957,73,78,40
865.957,866.3228,72,77,40
866.3228,866.6978,73,75,40
866.6978,867.0728,82,73,40
867.0728,867.4675,84,71,40
867.4675,867.8842,82,70,40
867.8842,868.2592,87,70,40
868.2592,868.6342,80,69,40
868.6342,869.7436,81,67,40
869.7592,870.1342,87,61,40
870.1342,870.5092,85,59,40
870.5092,870.8842,80,57,40
870.8842,871.9936,79,55,40
872.0092,872.3842,85,50,40
872.3842,872.7592,84,50,40
872.7592,873.1342,80,60,40
873.1342,874.2625,75,70,40
874.27893,874.6737,84,65,40
874.6737,875.09033,82,50,40
875.09033,875.507,76,50,40
875.507,876.8685,75,50,40
876.88934,877.51434,82,50,40
884.63776,889.39624,66,50,40
889.41046,889.9076,78,50,40
890.0923,890.1775,78,50,40
890.1775,890.26276,80,50,40
890.26276,890.34796,78,50,40
890.34796,890.43317,80,50,40
890.43317,890.5468,78,50,40
890.5468,890.66046,77,50,40
890.66046,890.7741,78,50,40
890.7741,891.27124,84,50,40
891.45593,891.95306,87,50,40
892.13776,892.6349,90,50,40
892.8196,897.57806,89,50,40
897.5923,898.0894,77,50,40
898.2741,898.3593,80,50,40
898.3593,898.4446,82,50,40
898.4446,898.5298,80,50,40
898.5298,898.615,82,50,40
898.615,898.72864,80,50,40
898.72864,898.8423,79,50,40
898.8423,898.95593,80,50,40
898.95593,899.45306,85,50,40
899.63776,900.1349,87,50,40
900.3196,900.8167,89,50,40
901.00134,902.70593,91,50,40
902.70593,903.0326,92,62,40
903.0468,904.75134,92,64,40
904.75134,905.07806,89,76,40
905.0923,906.80475,89,78,40
906.80475,907.13904,87,90,40
907.15356,908.94055,87,90,40
908.94055,909.35724,79,73,40
909.35724,910.7709,80,70,40
911.50006,912.98444,82,70,40
913.75006,915.23444,80,50,40
921.94965,927.39,80,80,40
927.40424,927.7451,75,70,40
927.7451,928.07184,76,70,40
928.08606,928.42694,76,70,40
928.42694,928.7678,77,70,40
928.7678,929.10876,72,70,40
929.10876,929.44965,73,70,40
929.44965,929.7906,65,70,40
929.7906,930.1315,67,70,40
930.1315,930.4724,70,70,40
930.4724,930.8133,67,70,40
930.8133,931.15424,70,70,40
931.15424,931.4951,68,70,40
931.4951,931.83606,59,70,40
931.83606,932.1627,60,70,40
932.17694,932.5178,60,70,40
932.5178,932.85876,61,70,40
932.85876,933.19965,57,70,40
933.19965,933.5406,58,70,40
933.5406,935.2451,61,70,40
935.2451,935.58606,60,70,40
935.58606,935.92694,71,70,40
935.92694,936.25366,72,70,40
936.2678,936.60876,72,70,40
936.60876,936.94965,73,70,40
936.94965,937.2906,69,70,40
937.2906,937.6315,70,70,40
937.6315,939.3681,73,70,40
939.7253,941.6017,73,70,40
941.6017,941.99646,72,70,40
941.99646,944.7373,75,70,40
944.75684,945.5381,75,85,40
945.69434,946.4756,75,90,40
946.63184,947.4131,77,95,40
947.56934,948.3506,79,100,40
948.50684,950.0917,79,50,40
950.114,953.21295,80,50,40
958.864,959.46295,68,1,40
0.0,0.37264645,68,1,40
9.003661,10.865641,58,50,40
10.878661,16.49064,58,50,40
16.50366,18.36564,58,55,40
18.37866,18.99064,58,66,40
19.00366,20.86564,56,70,40
20.87866,22.74064,60,70,40
22.75366,26.49064,60,70,40
22.75366,26.49064,63,70,40
26.50366,30.24064,58,70,40
26.50366,30.24064,63,70,40
30.25366,34.2242,61,70,40
30.25366,34.2242,63,70,40
34.239826,36.101807,60,70,40
34.239826,36.101807,63,70,40
36.114826,39.851807,56,70,40
39.864826,41.726807,60,70,40
41.739826,43.601807,60,70,40
43.614826,46.726807,63,70,40
46.739826,47.392605,55,70,40
47.406494,48.725937,56,70,40
48.739826,49.4742,58,70,40
49.489826,51.40615,60,70,40
51.419174,52.65615,68,70,40
52.669174,53.28115,63,70,40
53.294174,57.03115,60,70,40
53.294174,57.03115,63,70,40
57.044174,60.78115,58,70,40
57.044174,60.78115,63,70,40
60.794174,62.65615,61,70,40
60.794174,62.65615,63,70,40
62.669174,63.32195,61,70,40
63.33584,63.988617,58,70,40
64.0025,64.73688,63,60,40
64.7525,66.10194,60,50,40
66.11614,66.72812,72,70,40
66.74114,67.97812,70,70,40
67.99114,68.60312,68,70,40
68.61614,69.85312,68,70,40
69.86614,70.47812,67,70,40
70.49114,71.72812,67,70,40
71.74114,72.35312,65,70,40
72.36614,74.22812,65,70,40
74.24114,75.560585,68,70,40
75.57448,76.30885,67,70,40
76.32448,77.80885,55,70,40
76.32448,77.80885,67,70,40
77.82448,78.47725,61,65,40
78.49114,79.810585,61,50,40
79.82447,80.47725,61,50,40
80.49114,81.810585,61,50,40
81.82447,82.436455,61,50,40
82.44947,83.686455,61,50,40
83.69947,84.311455,61,50,40
84.32447,85.561455,61,50,40
85.57447,86.186455,61,50,40
86.19947,87.436455,61,50,40
87.44947,88.061455,61,50,40
88.07447,89.311455,60,50,40
89.32447,89.936455,60,50,40
89.94947,91.186455,60,50,40
91.19947,91.811455,61,50,40
91.82447,93.061455,63,50,40
93.07447,93.686455,63,50,40
93.69947,94.936455,63,50,40
94.94947,95.561455,63,50,40
95.57447,96.811455,63,50,40
96.82447,97.436455,61,58,40
97.44947,98.686455,60,62,40
98.69947,99.311455,58,71,40
99.32447,100.561455,56,75,40
100.57447,101.186455,58,83,40
101.19947,102.436455,58,88,40
101.19947,102.436455,65,88,40
102.44947,103.061455,58,96,40
102.44947,103.061455,67,96,40
103.07447,104.365234,60,100,40
103.07447,104.365234,68,100,40
104.37882,105.01741,60,100,40
105.03099,106.380424,58,89,40
106.39463,107.129005,55,66,40
107.14463,108.629005,56,55,40
108.64463,109.29741,55,50,40
109.311295,110.63074,63,50,40
110.64463,111.29741,65,50,40
111.311295,114.50661,67,50,40
114.51963,115.13161,65,50,40
115.14463,116.38161,65,50,40
116.39463,117.00661,63,50,40
117.01963,118.25661,65,50,40
118.26963,118.88161,67,50,40
118.89463,122.00661,68,50,40
122.01963,122.63161,67,50,40
122.64463,123.88161,63,50,40
123.89463,125.13161,68,50,40
125.14463,125.75661,58,50,40
125.76963,126.38161,56,50,40
126.39463,127.63161,56,50,40
127.64463,129.5066,68,57,40
129.51962,130.1316,68,68,40
130.14462,131.3816,68,72,40
131.39462,132.0066,70,79,40
132.01962,133.2566,72,83,40
133.26962,133.8816,70,90,40
133.89462,135.1854,72,100,40
135.19897,135.83755,60,89,40
135.85115,137.20058,61,83,40
137.21478,137.94916,61,71,40
137.96478,140.04613,60,70,40
140.06003,141.37947,55,70,40
141.39336,142.04613,67,70,40
142.06003,143.37947,66,70,40
142.06003,143.37947,56,70,40
143.39336,144.00534,60,64,40
144.01836,145.25534,56,61,40
144.01836,145.25534,65,61,40
145.26836,145.88034,61,55,40
145.89336,147.13034,56,55,40
145.89336,147.13034,68,55,40
147.14336,147.79613,60,60,40
147.81003,149.22371,56,62,40
149.23859,149.938,55,68,40
149.95288,151.36656,63,70,40
152.09573,153.65823,55,50,40
152.09573,153.65823,63,50,40
154.46416,156.11346,56,40,40
154.46416,156.11346,63,40,40
158.27368,160.3074,63,70,40
160.32129,160.63379,65,70,40
160.63379,160.93327,67,70,40
160.94629,161.87077,67,70,40
161.88379,163.43327,68,70,40
163.44629,163.75879,67,70,40
163.75879,164.07129,68,70,40
164.07129,164.38379,70,70,40
164.38379,164.68327,72,70,40
164.69629,165.93327,69,70,40
164.69629,165.93327,72,70,40
165.94629,166.25879,69,70,40
166.25879,166.57129,72,70,40
166.57129,167.18327,60,70,40
167.19629,167.80827,69,70,40
167.82129,168.13379,70,70,40
168.13379,168.43327,82,70,40
168.44629,169.68327,82,70,40
169.69629,170.00879,81,70,40
170.00879,170.30827,80,70,40
170.32129,171.55827,80,70,40
171.57129,172.49577,79,70,40
172.50879,174.05827,70,70,40
174.07129,174.38379,71,70,40
174.38379,175.93327,72,70,40
175.94629,176.25879,76,70,40
176.25879,176.55827,77,70,40
176.57129,176.88379,77,70,40
176.88379,177.19629,75,70,40
177.19629,177.65202,73,70,40
177.82129,178.13379,72,70,40
178.13379,178.43327,73,70,40
178.44629,178.75879,73,70,40
178.75879,179.07129,72,70,40
179.07129,179.52702,70,70,40
179.69629,180.00879,71,70,40
180.00879,180.30827,72,70,40
180.32129,180.65463,72,70,40
180.65463,181.01178,70,70,40
181.01178,181.53261,68,70,40
181.72606,183.0455,68,60,40
183.05939,183.67137,72,72,40
183.68439,184.33717,75,78,40
184.35106,185.05046,80,84,40
185.06534,185.83836,84,90,40
185.85481,186.84093,82,80,40
186.85481,187.18816,70,70,40
187.18816,187.52148,68,70,40
187.52148,187.84093,67,70,40
187.85481,188.5076,67,70,40
188.52148,189.17426,73,70,40
189.18816,189.84093,73,70,40
189.85481,190.5076,61,70,40
190.52148,191.17426,60,70,40
191.18816,191.84093,58,70,40
191.85481,193.17426,58,70,40
193.18814,193.5076,56,70,40
193.52148,193.84093,72,70,40
193.85481,194.52243,68,70,40
194.53664,195.20424,75,70,40
195.21844,195.56071,74,70,40
195.57559,195.91786,73,70,40
195.93274,197.3814,73,90,40
197.39702,198.17004,72,70,40
198.1865,199.53592,68,70,40
199.55013,199.86263,65,70,40
199.87622,200.18872,63,70,40
200.2023,201.49306,63,70,40
201.50665,202.14523,61,70,40
202.15883,203.50826,70,70,40
203.52246,204.22186,58,70,40
204.23674,205.31041,67,70,40
204.23674,205.31041,70,70,40
205.32603,205.68541,67,70,40
205.70103,206.07932,65,70,40
206.09576,206.47406,64,70,40
206.49051,207.83994,55,70,40
207.85414,208.16664,56,70,40
208.18022,209.79707,68,70,40
209.81067,210.12317,72,70,40
210.13675,211.7536,72,70,40
211.76718,212.07968,72,70,40
212.09326,213.71011,72,70,40
213.72371,214.03621,68,70,40
214.04979,215.01447,68,70,40
215.02805,217.62315,65,70,40
217.63675,218.9275,56,70,40
218.94109,219.57968,55,70,40
219.59326,220.88402,55,70,40
220.89761,221.56523,67,82,40
221.57942,221.83241,70,94,40
221.93657,222.2022,72,100,40
222.31157,223.60536,72,100,40
223.6184,224.23036,73,80,40
224.2434,225.48036,55,70,40
225.4934,225.79286,56,70,40
225.8059,226.10536,58,70,40
226.1184,226.73036,60,70,40
226.7434,227.35536,61,70,40
227.3684,227.98036,61,70,40
227.9934,228.60536,61,70,40
228.6184,229.23036,58,82,40
229.2434,229.5559,60,94,40
229.5559,229.85536,61,100,40
229.8684,230.48036,62,100,40
230.4934,231.10536,63,90,40
231.1184,232.35536,63,80,40
232.3684,232.98036,60,70,40
232.9934,233.3059,61,80,40
233.3059,233.6184,63,85,40
233.6184,234.23036,64,90,40
234.2434,234.5559,61,100,40
234.5559,234.85536,64,100,40
234.8684,235.21065,63,86,40
235.22554,236.28207,75,71,40
236.29697,236.99637,72,70,40
237.01125,237.3684,73,70,40
237.3684,237.76312,75,70,40
237.76312,238.43074,69,70,40
238.44495,239.45346,68,73,40
239.46767,239.79437,68,78,40
239.46767,239.79437,72,78,40
239.80858,240.4762,68,80,40
239.80858,240.4762,72,80,40
240.4904,241.49892,71,84,40
241.51312,241.83983,70,89,40
241.85403,242.52165,70,91,40
242.53586,243.54437,68,94,40
243.55858,243.88528,63,100,40
243.89949,244.56711,63,102,40
244.5813,245.58983,65,105,40
245.60403,245.93074,65,110,40
245.94495,247.29437,65,110,40
247.30858,247.9762,56,95,40
247.30858,247.9762,65,95,40
247.9904,248.3313,56,87,40
248.3313,248.67221,68,83,40
248.67221,249.71341,70,79,40
249.72903,250.08841,73,70,40
250.10403,250.92,73,70,40
250.93736,251.31236,72,70,40
251.31236,251.68736,63,70,40
251.68736,252.02827,60,70,40
252.02827,252.35498,63,70,40
252.36919,253.0368,63,70,40
253.051,253.3777,61,82,40
253.3919,253.71861,61,88,40
253.73282,254.05952,58,94,40
254.07373,254.40044,56,100,40
254.41464,255.08224,55,110,40
255.09645,256.7868,67,97,40
255.09645,257.12772,55,97,40
256.801,257.12772,64,70,40
257.1419,257.8095,64,70,40
257.82373,258.16464,63,70,40
258.16464,258.50555,61,70,40
258.50555,259.85498,60,70,40
259.86917,261.90042,58,70,40
261.91464,262.25555,56,80,40
262.25555,262.58224,55,90,40
262.59647,263.60498,55,100,40
263.61917,263.9459,56,78,40
263.96008,264.301,56,71,40
264.301,264.62772,60,70,40
264.6419,264.98282,60,70,40
264.98282,265.32373,61,70,40
265.32373,265.66464,60,70,40
265.66464,266.00555,72,70,40
266.00555,266.34647,70,70,40
266.34647,266.68735,68,70,40
266.68735,267.35498,63,70,40
267.36917,268.0368,61,70,40
268.051,268.7504,60,70,40
268.7653,269.12244,63,70,40
269.12244,269.47955,61,70,40
269.47955,269.85455,60,70,40
269.85455,270.22955,63,70,40
270.22955,270.63498,65,70,40
270.63498,271.05777,66,70,40
271.07614,271.81052,66,70,40
271.82614,272.8347,65,73,40
272.84888,273.17557,63,78,40
273.1898,273.8574,68,80,40
273.8716,274.88013,68,84,40
274.89432,275.22104,70,89,40
275.23523,275.90286,70,91,40
275.91705,276.93317,68,94,40
276.94772,277.282,68,100,40
277.29654,277.97968,68,102,40
277.99423,279.06787,68,105,40
279.0835,279.44287,77,110,40
279.4585,281.2994,77,110,40
281.2994,281.64032,73,86,40
281.64032,282.30795,72,81,40
282.32214,283.33066,70,71,40
283.34488,283.67157,67,70,40
283.6858,284.3534,63,70,40
284.36758,285.37613,60,70,40
285.39032,285.71704,60,70,40
285.73123,286.39883,60,70,40
286.41306,287.08066,55,70,40
287.09488,287.4358,58,70,40
287.4358,287.76248,67,70,40
287.7767,289.12613,67,70,40
289.14032,289.48123,60,66,40
289.48123,289.82214,67,65,40
289.82214,291.1871,65,64,40
291.20163,291.55048,61,59,40
291.55048,293.29465,68,58,40
293.29465,293.6518,63,52,40
293.6518,294.00894,60,51,40
294.00894,295.8125,61,50,40
295.8125,296.1875,73,67,40
296.1875,296.92188,70,70,40
298.1042,298.52084,74,50,40
298.52084,299.33682,73,50,40
301.39963,301.8163,73,50,40
301.8163,302.59235,72,50,40
304.10797,304.84235,63,70,40
304.85797,305.02985,65,70,40
305.04547,305.21735,67,70,40
305.23297,305.40485,68,70,40
305.60797,306.34235,62,70,40
306.35797,306.54547,63,70,40
306.54547,306.73297,71,70,40
306.73297,306.90485,72,70,40
307.10797,307.84235,67,70,40
307.85797,308.04547,68,70,40
308.04547,308.23297,72,70,40
308.23297,308.40485,75,70,40
308.60797,308.77985,60,70,40
309.35797,309.52985,72,70,40
310.10797,310.27985,60,70,40
310.85797,311.02985,75,70,40
311.60797,312.34235,77,70,40
312.35797,312.54547,76,70,40
312.54547,312.73297,75,70,40
312.73297,312.90485,74,70,40
313.10797,313.84235,73,70,40
313.85797,314.04547,70,70,40
314.04547,314.23297,68,70,40
314.23297,314.40485,67,70,40
314.60797,314.77985,55,70,40
315.35797,315.52985,67,70,40
316.10797,316.27985,75,70,40
316.85797,317.02985,75,70,40
317.60797,318.34235,80,70,40
318.35797,318.54547,75,70,40
318.54547,318.73297,76,70,40
318.73297,318.90485,77,70,40
319.10797,319.27985,65,70,40
319.85797,320.02985,65,70,40
320.60797,321.34235,75,70,40
321.35797,321.54547,74,70,40
321.54547,321.73297,73,70,40
321.73297,321.90485,72,70,40
322.10797,322.27985,63,70,40
322.85797,323.02985,75,70,40
323.60797,324.34235,84,73,40
324.35797,324.54547,82,81,40
324.54547,324.73297,80,83,40
324.73297,325.10797,79,85,40
325.10797,325.29547,80,89,40
325.29547,325.48297,82,91,40
325.48297,325.85797,80,93,40
325.85797,326.04547,75,96,40
326.04547,326.23297,72,98,40
326.23297,326.59235,70,100,40
326.60797,326.96735,63,100,40
327.35797,327.71735,75,88,40
328.12772,328.50598,63,75,40
328.93912,329.3619,75,63,40
329.38028,329.58862,68,50,40
329.58862,329.79694,67,50,40
329.79694,329.98444,68,50,40
329.98444,330.17194,63,50,40
330.17194,330.35944,68,50,40
330.35944,330.54694,63,50,40
330.54694,330.73444,65,50,40
330.73444,330.92194,67,50,40
330.92194,331.10944,68,50,40
331.10944,331.29694,67,50,40
331.29694,331.48444,68,50,40
331.48444,331.67194,63,50,40
331.67194,331.85944,65,50,40
331.85944,332.04694,67,50,40
332.04694,332.23444,68,50,40
332.23444,332.42194,70,50,40
332.42194,332.7813,63,50,40
332.79694,333.54694,72,50,40
333.54694,333.6407,72,50,40
333.6407,333.73444,73,50,40
333.73444,333.8282,71,50,40
333.8282,333.92194,72,50,40
334.29694,335.04694,68,50,40
335.04694,335.1407,68,50,40
335.1407,335.23444,70,50,40
335.23444,335.3282,67,50,40
335.3282,335.42194,68,50,40
335.42194,335.60944,75,50,40
335.60944,335.79694,73,50,40
335.79694,335.98444,72,50,40
335.98444,336.17194,73,50,40
336.17194,336.35944,75,50,40
336.35944,336.54694,73,50,40
336.54694,336.73444,77,50,40
336.73444,336.92194,73,50,40
336.92194,337.10944,72,50,40
337.10944,337.29694,70,50,40
337.29694,337.48444,73,50,40
337.48444,337.67194,70,50,40
337.67194,337.85944,68,50,40
337.85944,338.04694,67,50,40
338.04694,338.23444,70,50,40
338.23444,338.42194,68,50,40
338.42194,338.7813,67,50,40
338.79694,339.54694,67,50,40
339.54694,339.6407,68,50,40
339.6407,339.73444,70,50,40
339.73444,339.8282,67,50,40
339.8282,339.92194,68,50,40
340.29694,341.04694,70,50,40
341.04694,341.1407,70,50,40
341.1407,341.23444,72,50,40
341.23444,341.3282,68,50,40
341.3282,341.42194,70,50,40
341.42194,341.60944,71,50,40
341.60944,341.79694,72,52,40
341.79694,341.98444,73,54,40
341.98444,342.1563,72,56,40
342.17194,342.35944,72,58,40
342.35944,342.54694,70,60,40
342.54694,342.73444,68,62,40
342.73444,342.92194,67,64,40
342.92194,343.10944,68,66,40
343.10944,343.29694,67,68,40
343.29694,343.48444,65,70,40
343.48444,343.67194,64,70,40
343.67194,343.85944,65,70,40
343.85944,344.04694,60,70,40
344.04694,344.23444,67,70,40
344.23444,344.42194,65,70,40
344.79694,345.54694,58,70,40
345.54694,345.6407,70,70,40
345.6407,345.73444,72,70,40
345.73444,345.8282,69,70,40
345.8282,345.92194,70,70,40
346.29694,346.4688,63,70,40
346.67194,346.8438,62,70,40
347.04694,347.1407,74,70,40
347.1407,347.23444,75,70,40
347.23444,347.3282,72,70,40
347.3282,347.42194,74,70,40
347.60944,347.79694,74,70,40
347.79694,347.98444,77,70,40
347.98444,348.17194,79,70,40
348.17194,348.7188,80,70,40
349.10944,349.29694,62,70,40
349.29694,349.48444,65,70,40
349.48444,349.67194,67,70,40
349.67194,350.2188,68,70,40
350.79694,351.54694,63,70,40
351.54694,351.6407,60,70,40
351.6407,351.73444,61,70,40
351.73444,351.8282,58,70,40
351.8282,351.92194,60,70,40
352.29694,353.04694,75,70,40
353.04694,353.1407,75,70,40
353.1407,353.23444,77,70,40
353.23444,353.3282,74,70,40
353.3282,353.42194,75,70,40
353.42194,353.7813,75,60,40
353.79694,354.5313,63,61,40
354.54694,354.73444,63,63,40
354.73444,354.92194,65,64,40
354.92194,355.18756,67,65,40
355.29694,356.0313,67,66,40
356.04694,356.23444,67,69,40
356.23444,356.42194,68,69,40
356.42194,356.68756,70,70,40
356.79694,357.5313,79,71,40
357.54694,357.73444,79,74,40
357.73444,357.92194,80,74,40
357.92194,358.20157,82,75,40
358.31668,359.11072,79,76,40
359.12808,359.34866,80,79,40
359.34866,359.56927,82,80,40
359.56927,360.14493,84,80,40
360.35873,360.75348,80,83,40
360.75348,361.13177,72,84,40
361.14822,361.5265,72,85,40
361.93768,363.08655,80,88,40
363.10217,363.83655,84,92,40
364.22717,364.4928,84,96,40
364.60217,365.14905,75,97,40
365.16467,365.35217,77,99,40
365.35217,365.52405,78,100,40
365.53967,365.72717,78,100,40
365.72717,366.08655,76,110,40
366.10217,366.83655,61,110,40
366.85217,367.03967,61,110,40
367.03967,367.22717,63,110,40
367.22717,367.4928,64,110,40
367.60217,368.33655,73,125,40
368.35217,368.53967,73,110,40
368.53967,368.72717,75,110,40
368.72717,368.9928,76,110,40
369.47717,369.85217,64,70,40
369.85217,370.03967,61,70,40
370.03967,370.22717,56,70,40
370.97717,371.35217,68,70,40
371.35217,371.53967,65,70,40
371.53967,371.72717,62,70,40
372.47717,372.85217,72,70,40
372.85217,373.03967,68,70,40
373.03967,373.22717,69,70,40
373.97717,374.35217,82,70,40
374.35217,374.53967,77,70,40
374.53967,374.72717,79,70,40
374.72717,374.9928,80,70,40
375.10217,375.83655,75,70,40
375.85217,376.03967,77,70,40
376.03967,376.21155,75,70,40
376.22717,376.4928,75,70,40
376.60217,377.33655,74,70,40
377.35217,377.53967,73,70,40
377.53967,377.72717,70,70,40
377.72717,378.27405,63,70,40
377.72717,378.27405,72,70,40
379.60217,380.33655,58,70,40
380.35217,380.53967,56,70,40
380.53967,380.72717,61,70,40
380.72717,381.27405,60,70,40
382.60217,383.33655,67,70,40
383.35217,383.53967,64,70,40
383.53967,383.72717,63,70,40
383.72717,384.27405,68,70,40
385.60217,386.33655,64,70,40
386.35217,386.53967,63,70,40
386.53967,386.72717,70,70,40
386.72717,386.91467,68,70,40
386.91467,387.10217,56,70,40
387.10217,387.28967,58,70,40
387.28967,387.47717,60,70,40
387.47717,387.66467,62,70,40
387.66467,387.85217,63,74,40
387.85217,388.03967,56,78,40
388.03967,388.21155,64,82,40
388.22717,388.41467,64,86,40
388.41467,388.60217,65,90,40
388.60217,388.78967,58,94,40
388.78967,388.96155,67,98,40
388.97717,389.16467,67,102,40
389.16467,389.35217,68,106,40
389.35217,389.53967,63,110,40
389.53967,389.72717,68,90,40
389.72717,390.10217,70,70,40
390.10217,390.83655,63,70,40
390.85217,390.94592,63,70,40
390.94592,391.03967,65,70,40
391.03967,391.13342,62,70,40
391.13342,391.22717,63,70,40
391.60217,392.33655,75,70,40
392.35217,392.44592,75,70,40
392.44592,392.53967,77,70,40
392.53967,392.63342,74,70,40
392.63342,392.72717,75,70,40
392.72717,392.91467,70,70,40
392.91467,393.10217,63,70,40
393.10217,393.28967,65,70,40
393.28967,393.47717,63,70,40
393.47717,393.66467,65,70,40
393.66467,393.85217,63,70,40
393.85217,394.03967,65,70,40
394.03967,394.21155,67,70,40
394.22717,394.41467,67,70,40
394.41467,394.60217,68,70,40
394.60217,394.78967,63,70,40
394.78967,394.96155,68,70,40
394.97717,395.16467,68,70,40
395.16467,395.35217,70,70,40
395.35217,395.53967,63,70,40
395.53967,395.71155,70,70,40
395.72717,395.91467,70,70,40
395.91467,396.10217,63,70,40
396.10217,396.83655,72,70,40
396.85217,396.94592,63,70,40
396.94592,397.03967,65,70,40
397.03967,397.13342,62,70,40
397.13342,397.22717,63,70,40
397.60217,398.33655,72,70,40
398.35217,398.44592,75,70,40
398.44592,398.53967,77,70,40
398.53967,398.63342,74,70,40
398.63342,398.71155,75,70,40
398.72717,398.91467,75,70,40
398.91467,399.10217,77,70,40
399.10217,399.28967,78,70,40
399.28967,399.47717,77,70,40
399.47717,399.66467,75,70,40
399.66467,399.85217,77,70,40
399.85217,400.03967,75,70,40
400.03967,400.21155,73,70,40
400.22717,400.41467,73,70,40
400.41467,400.60217,72,70,40
400.60217,400.78967,73,70,40
400.78967,400.97717,75,70,40
400.97717,401.16467,70,70,40
401.16467,401.35217,68,70,40
401.35217,401.53967,70,70,40
401.53967,401.72717,72,70,40
401.72717,401.97717,73,70,40
402.10217,402.83655,61,73,40
402.85217,402.91467,66,79,40
402.91467,402.97717,64,79,40
402.97717,403.03967,66,80,40
403.03967,403.10217,64,81,40
403.10217,403.16467,63,81,40
403.16467,403.22717,64,82,40
403.41467,403.60217,68,84,40
403.60217,403.78967,72,85,40
403.60217,403.78967,73,85,40
403.78967,403.97717,72,87,40
403.97717,404.0553,73,88,40
404.16467,404.35217,68,90,40
404.35217,404.53967,73,92,40
404.53967,404.72717,75,93,40
404.72717,404.91467,76,95,40
404.91467,405.10217,67,96,40
405.10217,405.83655,68,98,40
405.85217,405.91467,68,104,40
405.91467,405.97717,70,105,40
405.97717,406.03967,68,105,40
406.03967,406.13342,67,106,40
406.13342,406.22717,68,106,40
406.41467,406.60217,67,109,40
406.60217,406.78967,79,110,40
406.78967,406.97717,67,110,40
406.97717,407.0594,80,110,40
407.17453,407.3719,70,110,40
407.3719,407.58023,82,110,40
407.58023,407.8008,70,88,40
407.8008,408.09494,80,70,40
408.242,408.97638,68,70,40
408.992,409.0545,68,70,40
409.0545,409.117,70,70,40
409.117,409.1795,68,70,40
409.1795,409.27325,67,70,40
409.27325,409.367,68,70,40
409.742,410.47638,70,70,40
410.492,410.5545,70,70,40
410.5545,410.617,72,70,40
410.617,410.6795,70,70,40
410.6795,410.77325,68,70,40
410.77325,410.867,70,70,40
411.0545,411.242,63,70,40
411.242,411.4295,75,70,40
411.4295,411.617,74,70,40
411.617,411.8045,75,70,40
411.8045,411.992,72,70,40
411.992,412.1795,71,70,40
412.1795,412.367,72,70,40
412.367,412.5545,73,70,40
412.5545,412.742,72,70,40
412.742,412.9295,73,70,40
412.9295,413.117,75,70,40
413.117,413.3045,77,70,40
413.3045,413.492,75,70,40
413.492,413.6795,77,70,40
413.6795,413.867,79,70,40
413.867,414.117,80,70,40
414.242,414.97638,75,68,40
414.992,415.03888,68,63,40
415.0545,415.10138,70,62,40
415.117,415.16388,68,62,40
415.5545,415.742,68,59,40
415.742,415.9295,73,57,40
415.9295,416.117,72,56,40
416.117,416.19513,73,55,40
416.3045,416.492,68,54,40
416.492,416.6795,76,52,40
416.6795,416.867,73,51,40
416.867,417.117,72,50,40
417.242,417.97638,68,52,40
417.992,418.0545,75,64,40
418.0545,418.117,77,64,40
418.117,418.1795,75,65,40
418.1795,418.27325,74,66,40
418.27325,418.367,75,68,40
418.5545,418.742,63,72,40
418.742,418.9295,65,75,40
418.9295,419.117,63,78,40
419.117,419.19513,67,80,40
419.3045,419.492,63,83,40
419.492,419.6795,65,86,40
419.6795,419.867,63,89,40
419.867,420.117,68,90,40
420.0545,420.117,63,90,40
420.117,420.1795,65,89,40
420.1795,420.242,63,89,40
420.242,420.33575,62,89,40
420.33575,420.4295,63,88,40
420.8045,420.992,63,86,40
420.992,421.1795,72,85,40
421.1795,421.35138,70,84,40
421.5545,421.617,63,82,40
421.367,421.63263,70,83,40
421.617,421.6795,65,82,40
421.6795,421.742,63,81,40
421.742,421.83575,62,81,40
421.83575,421.9295,63,81,40
422.3045,422.492,63,78,40
422.492,422.6795,72,77,40
422.6795,422.867,70,76,40
422.867,423.1466,68,75,40
423.26172,423.3275,63,73,40
423.3275,423.3933,65,73,40
423.3933,423.4591,63,73,40
423.4591,423.55777,62,72,40
423.55777,423.65646,63,72,40
423.65646,423.93423,68,71,40
424.07312,424.35092,60,70,40
424.4898,425.35376,61,70,40
425.37216,427.5187,64,70,40
427.61813,430.3312,56,90,40
430.34543,431.69485,58,110,40
431.70905,433.05847,66,110,40
433.0727,435.78577,59,90,40
433.0727,435.78577,66,90,40
435.79996,437.8312,71,70,40
437.8454,444.78574,64,110,40
437.8454,444.78574,76,110,40
444.79996,446.14938,64,90,40
446.1636,446.8312,63,70,40
446.8454,447.57977,71,70,40
447.5954,448.41138,71,70,40
448.42874,451.1418,68,70,40
448.42874,451.1418,71,70,40
451.156,452.50543,73,93,40
452.51965,453.90088,67,105,40
453.91574,456.98477,66,110,40
457.00165,458.41928,69,70,40
458.43347,459.7829,71,70,40
458.43347,459.7829,69,70,40
459.79712,461.14655,68,70,40
459.79712,461.14655,71,70,40
461.16074,463.192,59,80,40
463.2062,464.6224,71,95,40
464.63803,466.95572,70,110,40
466.97134,467.70572,76,90,40
467.72134,468.4944,64,70,40
468.51083,469.3268,64,70,40
469.34418,470.16013,59,80,40
471.01083,482.68222,71,100,40
477.2987,482.68222,62,70,40
482.75323,484.1027,63,70,40
484.11688,488.37442,57,100,40
484.11688,488.37442,69,100,40
488.39178,490.62616,55,110,40
488.39178,490.62616,67,110,40
490.64178,492.12616,66,90,40
492.14178,492.87616,64,70,40
492.89178,493.62616,68,70,40
493.64178,494.37616,71,70,40
494.39178,496.62616,75,70,40
496.64178,497.37616,76,70,40
497.39178,498.12616,71,70,40
498.14178,498.87616,78,70,40
498.89178,499.5912,76,70,40
499.60605,500.42203,75,70,40
500.4394,502.47064,76,70,40
502.48486,503.15247,78,70,40
503.16666,503.8343,71,70,40
503.84848,504.51608,80,70,40
504.5303,505.2297,78,70,40
505.2446,506.06055,77,70,40
506.0779,506.74554,69,70,40
506.75974,507.42734,81,75,40
507.44156,511.71652,66,110,40
507.44156,511.71652,75,110,40
511.73386,513.1476,64,110,40
511.73386,513.1476,76,110,40
513.1624,513.8618,67,90,40
513.8767,514.5761,66,80,40
514.591,515.2904,66,70,40
515.3053,515.6624,68,70,40
515.6624,516.0047,67,70,40
516.0196,516.719,55,70,40
516.0196,516.719,67,70,40
516.7339,517.4333,66,70,40
517.4482,518.8618,56,69,40
518.8767,520.2904,57,66,40
520.3053,521.719,59,63,40
521.7339,523.2569,61,60,40
523.2733,524.0464,60,57,40
524.0628,527.2043,59,55,40
528.7997,529.4247,64,50,40
529.5891,530.1546,64,50,40
530.3034,530.8689,64,50,40
531.0177,531.5832,64,50,40
531.732,532.2975,64,50,40
532.4463,533.1457,64,50,40
533.1606,533.86,63,50,40
533.8748,534.5742,63,50,40
534.5891,535.1546,60,50,40
534.5891,535.1546,63,50,40
535.3034,535.8689,60,50,40
535.3034,535.8689,63,50,40
536.0177,536.5832,60,50,40
536.0177,536.5832,63,50,40
536.732,537.2975,60,50,40
536.732,537.2975,63,50,40
537.4463,538.0117,60,50,40
537.4463,538.0117,63,50,40
538.1606,538.726,60,50,40
538.1606,538.726,63,50,40
538.8748,539.4403,60,50,40
538.8748,539.4403,63,50,40
539.5891,540.1546,60,50,40
539.5891,540.1546,63,50,40
540.3034,540.8689,60,50,40
540.3034,540.8689,63,50,40
541.0177,541.5832,61,50,40
541.0177,541.5832,63,50,40
541.732,542.2975,61,50,40
541.732,542.2975,63,50,40
542.4463,543.0117,61,50,40
542.4463,543.0117,63,50,40
543.1605,543.726,61,50,40
543.1605,543.726,63,50,40
543.8748,544.4403,61,50,40
543.8748,544.4403,63,50,40
544.5891,545.1546,61,50,40
544.5891,545.1546,63,50,40
545.3034,545.8689,61,50,40
545.3034,545.8689,63,50,40
546.0177,546.5832,61,50,40
546.0177,546.5832,63,50,40
546.732,547.2975,61,50,40
546.732,547.2975,63,50,40
547.4463,548.0117,61,50,40
547.4463,548.0117,63,50,40
548.1605,548.726,61,50,40
548.1605,548.726,63,50,40
548.8748,549.4403,61,50,40
548.8748,549.4403,63,50,40
549.5891,550.1546,63,50,40
550.3034,550.8689,57,52,40
550.3034,550.8689,63,52,40
551.0177,551.5832,57,55,40
551.0177,551.5832,63,55,40
551.732,552.2974,60,58,40
551.732,552.2974,63,58,40
552.4463,553.0117,60,61,40
552.4463,553.0117,63,61,40
553.1605,553.726,60,64,40
553.1605,553.726,63,64,40
553.8748,554.4403,58,66,40
554.5891,555.1546,65,69,40
554.5891,555.1546,58,69,40
555.3034,555.8689,65,72,40
555.3034,555.8689,61,72,40
556.0177,556.5832,61,75,40
556.0177,556.5832,65,75,40
556.732,557.2974,61,78,40
556.732,557.2974,65,78,40
557.4463,558.0117,61,80,40
557.4463,558.0117,65,80,40
558.1605,558.726,60,70,40
558.1605,558.726,68,70,40
558.8748,559.4403,60,70,40
558.8748,559.4403,68,70,40
559.5891,560.1546,60,70,40
559.5891,560.1546,68,70,40
560.3034,560.8689,68,70,40
561.0177,561.5832,68,85,40
561.732,562.2974,59,100,40
561.732,562.2974,68,100,40
562.4463,563.0117,67,70,40
563.1605,563.726,58,70,40
563.1605,563.726,63,70,40
563.8748,564.4403,58,70,40
563.8748,564.4403,63,70,40
564.5891,565.1546,58,70,40
564.5891,565.1546,63,70,40
565.3034,565.8689,58,70,40
565.3034,565.8689,63,70,40
566.0177,566.5832,58,70,40
566.0177,566.5832,63,70,40
566.732,567.3272,60,70,40
566.732,567.3272,63,70,40
567.4463,568.0415,75,70,40
568.1605,568.7558,75,70,40
568.8748,569.4701,75,70,40
569.5891,570.1843,75,70,40
570.3034,570.8986,75,70,40
571.0177,571.6129,75,70,40
571.732,572.3272,75,70,40
572.4462,573.0415,75,70,40
573.1605,573.7558,75,70,40
573.8748,574.4998,75,70,40
574.6248,575.3193,75,70,40
575.4582,576.1576,63,70,40
575.4582,576.1576,75,70,40
576.1724,576.8718,77,70,40
576.8867,577.5861,75,70,40
577.601,578.1962,63,70,40
577.601,578.1962,75,70,40
578.3153,578.9105,63,70,40
578.3153,578.9105,75,70,40
579.0296,579.6248,63,70,40
579.0296,579.6248,75,70,40
579.7439,580.3391,63,70,40
579.7439,580.3391,75,70,40
580.4581,581.0534,63,70,40
580.4581,581.0534,75,70,40
581.1724,581.7677,63,70,40
581.1724,581.7677,75,70,40
581.8867,582.482,63,70,40
581.8867,582.482,70,70,40
582.601,583.226,63,70,40
582.601,583.226,70,70,40
583.351,584.0455,67,70,40
583.351,584.0455,70,70,40
584.1843,584.7796,72,70,40
584.8986,585.4939,72,72,40
585.6129,586.2081,56,75,40
586.3272,586.9948,56,78,40
587.00903,587.67664,58,81,40
587.69086,588.35846,60,84,40
588.3727,588.94086,60,86,40
589.0545,589.6227,67,89,40
589.0545,589.6227,55,89,40
589.73627,590.3045,67,92,40
589.73627,590.3045,55,92,40
590.4181,590.98627,68,95,40
591.0999,591.6681,68,98,40
591.78174,592.3499,62,100,40
591.78174,592.3499,65,100,40
592.46356,593.03174,56,85,40
592.46356,593.03174,65,85,40
593.1454,593.71356,56,70,40
593.1454,593.71356,65,70,40
593.8272,594.3954,56,70,40
593.8272,594.3954,65,70,40
594.50903,595.0772,56,70,40
594.50903,595.0772,65,70,40
595.19086,595.75903,56,70,40
595.19086,595.75903,65,70,40
595.8727,596.44086,56,70,40
595.8727,596.44086,65,70,40
596.5545,597.1227,55,70,40
596.5545,597.1227,67,70,40
597.23627,597.90393,55,70,40
597.9181,598.58575,56,72,40
598.5999,599.2675,56,74,40
599.28174,599.94934,58,77,40
599.96356,600.63116,60,79,40
600.6454,601.21356,58,82,40
600.6454,601.21356,63,82,40
601.3272,601.8954,75,84,40
601.3272,601.8954,63,84,40
602.00903,602.5772,75,86,40
602.00903,602.5772,63,86,40
602.69086,603.25903,63,89,40
602.69086,603.25903,75,89,40
603.3727,603.94086,75,91,40
603.3727,603.94086,63,91,40
604.05444,604.6227,75,94,40
604.05444,604.6227,63,94,40
604.73627,605.30444,63,96,40
604.73627,605.30444,75,96,40
605.4181,605.98627,75,98,40
605.4181,605.98627,63,98,40
606.0999,606.6681,75,101,40
606.0999,606.6681,63,101,40
606.78174,607.3499,63,103,40
606.78174,607.3499,75,103,40
607.46356,608.03174,75,106,40
607.46356,608.03174,63,106,40
608.1454,608.71356,75,108,40
608.1454,608.71356,63,108,40
608.8272,609.3954,63,110,40
608.8272,609.3954,75,110,40
609.50903,610.0772,63,110,40
609.50903,610.0772,75,110,40
610.19086,610.75903,63,110,40
610.19086,610.75903,75,110,40
610.8727,611.44086,63,110,40
610.8727,611.44086,75,110,40
611.55444,612.1227,63,110,40
611.55444,612.1227,75,110,40
612.23627,612.80444,63,110,40
612.23627,612.80444,75,110,40
612.9181,613.48627,63,110,40
612.9181,613.48627,75,110,40
613.5999,614.1681,63,110,40
613.5999,614.1681,75,110,40
614.28174,614.8499,63,110,40
614.28174,614.8499,75,110,40
614.96356,615.53174,63,110,40
614.96356,615.53174,75,110,40
615.6454,616.21356,63,110,40
615.6454,616.21356,75,110,40
616.3272,616.8954,63,110,40
616.3272,616.8954,75,110,40
617.00903,617.5772,74,110,40
617.00903,617.5772,62,110,40
617.69086,618.25903,56,110,40
617.69086,618.25903,62,110,40
618.3727,618.94086,56,110,40
618.3727,618.94086,62,110,40
619.05444,619.6227,56,110,40
619.05444,619.6227,62,110,40
619.73627,620.30444,56,110,40
619.73627,620.30444,62,110,40
620.4181,620.98627,56,110,40
620.4181,620.98627,62,110,40
621.0999,621.6681,56,110,40
621.0999,621.6681,62,110,40
621.78174,622.3499,56,110,40
621.78174,622.3499,62,110,40
622.46356,623.03174,56,110,40
622.46356,623.03174,62,110,40
623.1454,623.71356,56,110,40
623.1454,623.71356,62,110,40
623.8272,624.3954,56,97,40
623.8272,624.3954,62,97,40
624.50903,625.0772,56,83,40
624.50903,625.0772,62,83,40
625.19086,625.75903,56,70,40
625.19086,625.75903,63,70,40
625.8726,626.44086,60,70,40
625.8726,626.44086,63,70,40
626.55444,627.1226,56,70,40
626.55444,627.1226,63,70,40
627.23627,627.80444,55,70,40
627.23627,627.80444,63,70,40
627.9181,628.48627,58,70,40
627.9181,628.48627,63,70,40
628.5999,629.1681,55,70,40
628.5999,629.1681,63,70,40
629.28174,629.8499,56,70,40
629.28174,629.8499,63,70,40
629.96356,630.63116,63,70,40
630.6454,631.313,65,72,40
631.3272,631.9948,66,74,40
632.00903,632.67664,67,77,40
632.69086,633.35846,68,79,40
633.3726,634.0403,66,82,40
634.05444,637.1226,67,84,40
637.1226,637.44934,65,95,40
637.46356,639.1681,65,96,40
639.1681,639.50903,63,102,40
639.50903,641.29987,65,103,40
641.29987,641.67816,67,109,40
641.6946,643.044,67,110,40
643.0582,645.4446,69,110,40
645.4446,645.7713,66,110,40
645.7855,647.49005,66,110,40
647.49005,647.83093,65,110,40
647.83093,649.62177,67,110,40
649.62177,650.01654,69,110,40
650.01654,653.76654,68,110,40
650.01654,653.76654,70,110,40
653.76654,654.1074,72,110,40
654.1074,655.81195,74,110,40
655.81195,656.1529,75,110,40
656.1529,657.8574,77,110,40
657.8574,658.18414,79,110,40
658.19836,658.53925,79,110,40
658.53925,659.5478,80,107,40
659.56195,659.8887,75,97,40
659.9029,660.2438,72,93,40
660.2438,661.94836,70,90,40
661.94836,662.28925,67,73,40
662.28925,662.95685,72,70,40
662.97107,663.9796,68,70,40
663.9938,664.3347,63,82,40
664.3347,665.68414,63,110,40
665.69836,666.03925,73,103,40
666.03925,666.3802,70,108,40
666.3802,668.0847,72,110,40
668.0847,668.4114,68,102,40
668.4256,670.1301,68,100,40
670.1301,670.47107,64,92,40
670.47107,672.1756,68,90,40
672.1756,672.51654,63,82,40
672.51654,674.2876,73,80,40
674.2876,674.6626,70,72,40
674.6626,676.2251,68,70,40
677.03107,678.68036,67,70,40
677.03107,678.68036,75,70,40
679.53107,681.01544,68,70,40
684.03107,684.57794,68,60,40
684.78107,685.32794,72,60,40
685.53107,685.6248,68,60,40
685.6248,685.71857,70,60,40
685.71857,685.8123,68,60,40
685.8123,685.90607,70,60,40
685.90607,686.03107,68,60,40
686.03107,686.15607,67,60,40
686.15607,686.26544,68,60,40
686.28107,686.8567,68,60,40
687.0705,687.67816,80,60,40
687.9039,688.008,72,60,40
688.008,688.1122,73,60,40
688.1122,688.2164,72,60,40
688.2164,688.3205,73,60,40
688.3205,688.4594,72,60,40
688.4594,688.59827,70,60,40
688.59827,688.7372,72,60,40
688.7372,690.40906,73,60,40
723.1519,723.8514,67,50,40
723.8662,725.3149,68,50,40
725.3305,726.12445,71,50,40
726.14136,731.58167,73,50,40
731.5959,732.2635,76,50,40
732.2777,733.62714,80,53,40
733.6413,734.30896,71,60,40
734.3231,735.67255,69,63,40
735.68677,736.3544,73,70,40
736.3686,737.718,76,73,40
737.73224,738.39984,68,80,40
738.41406,739.7635,66,83,40
739.7777,740.4453,69,90,40
740.45953,741.80896,73,94,40
741.8231,742.4908,64,100,40
742.50494,743.8544,73,70,40
743.8686,744.5362,63,70,40
744.5504,745.89984,72,70,40
745.91406,746.58167,63,70,40
746.5959,747.9453,64,70,40
746.5959,747.9453,73,70,40
763.6294,767.3288,61,70,40
767.3437,768.0431,63,70,40
768.058,769.4074,64,70,40
769.42163,770.08923,67,70,40
770.10345,771.4529,68,70,40
771.4671,772.1347,72,70,40
772.14886,776.39594,73,70,40
776.4124,777.8261,73,70,40
776.4124,777.8261,64,70,40
777.84094,779.8722,61,70,40
779.8864,780.554,62,80,40
780.56824,781.98193,64,83,40
781.9968,782.6962,66,90,40
782.7111,784.1955,68,94,40
784.2111,785.02704,69,100,40
785.04443,785.74384,67,70,40
785.7587,786.4581,68,70,40
786.473,787.1724,60,70,40
787.18726,787.88666,59,70,40
787.90155,788.6746,56,70,40
788.69104,789.555,58,70,40
789.57336,790.3929,58,70,40
790.4093,791.0769,60,70,40
791.0911,791.7587,72,70,40
791.77295,792.44055,65,70,40
792.4548,793.1224,70,70,40
793.1366,793.8042,67,70,40
793.8184,794.486,63,70,40
794.5002,795.16785,60,73,40
795.182,795.8497,72,76,40
795.86383,796.53143,77,79,40
796.54565,797.21326,70,82,40
797.2275,797.8951,73,85,40
797.9093,798.5769,73,88,40
798.5911,799.2587,82,91,40
799.27295,799.95605,82,94,40
799.97064,800.31946,82,97,40
800.31946,800.6683,70,99,40
800.6683,801.35144,77,100,40
801.36597,801.7231,75,85,40
801.7231,802.11786,73,77,40
802.11786,802.78546,72,70,40
802.7997,804.83093,60,70,40
804.8451,806.87634,60,70,40
806.89056,808.9218,60,70,40
808.93604,810.9673,60,70,40
810.98145,813.0127,61,70,40
813.0269,815.05817,61,70,40
815.0724,817.10364,61,70,40
817.11786,818.4673,61,70,40
818.48145,819.1491,63,70,40
819.16327,821.1945,56,70,40
821.20874,822.55817,68,70,40
821.20874,822.55817,56,70,40
822.5724,823.24,67,70,40
823.2542,824.60364,58,70,40
823.2542,824.60364,67,70,40
824.61786,825.28546,60,70,40
825.2996,827.3309,60,70,40
825.2996,827.3309,68,70,40
827.3451,829.37634,60,76,40
827.3451,829.37634,68,76,40
829.39056,830.74,60,94,40
829.39056,830.74,68,94,40
830.7542,831.4218,70,70,40
831.43604,833.80817,58,70,40
831.43604,833.80817,63,70,40
833.8224,834.16327,65,70,40
834.16327,834.5042,67,70,40
834.5042,834.8451,68,70,40
834.8451,835.18604,70,70,40
835.18604,835.5269,72,70,40
835.5269,835.86786,73,71,40
835.86786,836.20874,72,72,40
836.20874,836.5496,70,73,40
836.5496,836.89056,68,74,40
836.89056,837.23145,67,75,40
837.23145,837.5724,68,75,40
837.5724,837.91327,70,76,40
837.91327,838.2542,68,77,40
838.2542,838.5951,67,78,40
838.5951,838.93604,65,79,40
838.93604,839.2769,63,80,40
839.2769,839.61786,65,81,40
839.61786,839.95874,67,81,40
839.95874,840.2996,68,82,40
840.2996,840.64056,70,83,40
840.64056,840.98145,72,84,40
840.98145,841.3224,73,85,40
841.3224,841.66327,75,86,40
841.66327,842.0042,77,87,40
842.0042,842.3451,79,87,40
842.3451,842.68604,80,88,40
842.68604,843.0269,82,89,40
843.0269,843.36786,84,90,40
843.36786,843.70874,73,91,40
843.70874,844.0496,75,92,40
844.0496,844.39056,73,93,40
844.39056,844.73145,72,93,40
844.73145,845.0724,73,94,40
845.0724,845.41327,72,95,40
845.41327,845.7542,73,96,40
845.7542,846.0951,75,97,40
846.0951,846.43604,73,98,40
846.43604,846.7769,72,99,40
846.7769,847.10364,70,99,40
847.1178,847.45874,70,100,40
847.45874,847.7996,68,101,40
847.7996,848.14056,70,102,40
848.14056,848.48145,72,103,40
848.48145,848.8224,73,104,40
848.8224,849.16327,75,104,40
849.16327,849.5042,77,105,40
849.5042,849.8451,79,106,40
849.8451,850.18604,80,107,40
850.18604,850.5269,82,108,40
850.5269,850.8678,83,109,40
850.8678,851.20874,84,110,40
851.20874,851.5496,85,110,40
851.5496,851.89056,68,107,40
851.89056,852.23145,70,104,40
852.23145,852.5724,72,100,40
852.5724,852.91327,73,97,40
852.91327,853.2542,72,93,40
853.2542,853.5951,73,90,40
853.5951,853.93604,72,87,40
853.93604,854.2769,73,83,40
854.2769,854.6178,72,80,40
854.6178,854.95874,73,76,40
854.95874,855.2996,75,73,40
855.2996,855.64056,77,70,40
855.64056,855.98145,75,70,40
855.98145,856.3224,77,70,40
856.3224,856.66327,75,74,40
856.66327,857.0042,77,79,40
857.0042,857.3451,78,83,40
857.3451,857.68604,80,88,40
857.68604,858.0269,79,92,40
858.0269,858.3678,80,97,40
858.3678,858.70874,79,101,40
858.70874,859.0496,80,106,40
859.0496,859.39056,82,110,40
859.39056,859.73145,68,110,40
859.73145,860.0724,79,109,40
860.0724,860.41327,80,107,40
860.41327,860.7542,75,105,40
860.7542,861.0951,77,103,40
861.0951,861.43604,75,102,40
861.43604,861.7769,73,100,40
861.7769,862.1178,72,98,40
862.1178,862.45874,73,96,40
862.45874,862.7996,70,94,40
862.7996,863.14056,69,93,40
863.14056,863.48145,70,91,40
863.48145,863.8303,68,89,40
863.8303,864.17914,67,87,40
864.17914,864.52795,68,86,40
864.52795,864.87683,63,84,40
864.87683,865.23395,65,82,40
865.23395,865.59106,63,80,40
865.59106,865.957,61,78,40
865.957,866.3228,60,77,40
866.3228,866.6978,61,75,40
866.6978,867.0728,58,73,40
867.0728,867.4675,57,71,40
867.4675,867.8842,58,70,40
867.8842,869.7592,63,70,40
869.7592,870.1342,72,61,40
870.1342,870.5092,65,59,40
870.5092,870.8842,64,57,40
870.8842,871.2592,63,55,40
871.2592,871.9936,61,53,40
872.0092,872.3842,70,50,40
872.3842,872.7592,68,50,40
872.7592,873.1342,61,60,40
873.1342,874.2625,60,70,40
874.27893,874.6737,68,65,40
874.6737,875.4896,67,50,40
875.507,876.8685,55,50,40
876.88934,877.51434,73,50,40
880.51434,881.0352,63,50,40
881.22864,881.7258,63,50,40
881.91046,882.40765,63,50,40
882.5923,883.0894,63,50,40
883.2741,883.77124,63,50,40
883.95593,884.45306,63,50,40
884.63776,885.1349,63,50,40
885.3196,885.8167,63,50,40
886.0014,886.49854,63,50,40
886.68317,887.18036,63,50,40
887.365,887.8622,63,50,40
888.0468,888.544,63,50,40
888.72864,889.2258,63,50,40
889.41046,889.9076,63,50,40
890.0923,890.5894,63,50,40
890.7741,891.27124,63,50,40
891.45593,891.95306,63,50,40
892.13776,892.6349,63,50,40
892.8196,893.3167,65,50,40
893.50134,893.99854,65,50,40
894.18317,894.68036,65,50,40
894.865,895.3622,65,50,40
895.5468,896.044,65,50,40
896.22864,896.7258,65,50,40
896.91046,897.4076,65,50,40
897.5923,898.0894,65,50,40
898.2741,898.77124,65,50,40
898.95593,899.45306,65,50,40
899.63776,900.1349,65,50,40
900.3196,900.8167,65,50,40
901.00134,901.669,64,50,40
901.68317,902.3508,64,54,40
902.365,902.70593,64,59,40
902.70593,903.0468,63,62,40
903.0468,903.7144,65,64,40
903.72864,904.39624,73,69,40
904.41046,905.07806,73,74,40
905.0923,905.7599,73,78,40
905.7741,906.115,73,83,40
906.115,906.45593,72,86,40
906.45593,907.13904,72,88,40
907.15356,907.83673,72,90,40
907.85126,908.20844,72,84,40
908.20844,908.56555,73,80,40
908.56555,909.33984,61,77,40
909.35724,910.7709,61,70,40
911.50006,912.98444,61,70,40
913.75006,917.84515,68,50,40
917.85876,919.2082,68,50,40
919.90424,921.25366,69,50,40
921.94965,923.29913,68,50,40
926.0406,927.39,68,70,40
928.08606,929.4355,67,70,40
928.08606,929.4355,70,70,40
930.1315,931.4809,68,70,40
932.17694,933.52637,67,70,40
932.17694,933.52637,70,70,40
934.90424,935.2451,67,70,40
935.2451,935.57184,68,70,40
935.58606,935.92694,68,70,40
935.92694,936.25366,67,70,40
936.2678,936.60876,67,70,40
936.60876,936.94965,65,70,40
936.94965,937.2906,63,70,40
937.2906,937.6315,61,70,40
937.6315,937.9724,65,70,40
937.9724,938.3133,64,70,40
938.3133,939.7104,63,70,40
939.7253,940.0911,56,70,40
940.0911,940.81635,58,70,40
940.832,941.207,61,70,40
941.207,941.6017,58,70,40
941.6017,941.99646,60,70,40
941.99646,942.4131,68,70,40
942.4131,942.88184,70,72,40
942.88184,944.7373,67,75,40
944.75684,945.5381,67,85,40
945.69434,946.4756,67,90,40
946.63184,947.4131,63,95,40
946.63184,947.4131,75,95,40
947.56934,948.3506,63,100,40
947.56934,948.3506,75,100,40
948.50684,950.0917,75,50,40
948.50684,953.21295,63,50,40
950.114,953.21295,75,50,40
5.253661,7.11564,49,50,41
7.128661,16.49064,49,50,41
16.50366,18.36564,49,55,41
18.37866,18.99064,49,66,41
19.00366,26.49064,48,70,41
26.50366,28.36564,49,70,41
28.37866,32.142246,51,70,41
32.155834,34.2242,51,70,41
34.239826,37.976807,51,70,41
37.989826,39.851807,48,70,41
39.864826,41.726807,56,70,41
41.739826,45.476807,56,70,41
45.489826,46.726807,55,70,41
46.739826,48.725937,51,70,41
48.739826,49.4742,51,70,41
49.489826,51.40615,51,70,41
51.419174,52.65615,53,70,41
52.669174,53.28115,55,70,41
53.294174,57.03115,56,70,41
57.044174,60.78115,55,70,41
60.794174,62.65615,58,70,41
62.669174,64.73688,55,70,41
64.7525,68.60312,56,50,41
68.61614,70.47812,58,70,41
70.49114,72.35312,58,70,41
72.36614,76.30885,51,70,41
72.36614,76.30885,58,70,41
76.32448,77.80885,51,70,41
76.32448,77.80885,58,70,41
77.82448,78.47725,51,61,41
78.49114,79.810585,51,50,41
79.82447,80.47725,51,50,41
80.49114,81.810585,51,50,41
81.82447,82.436455,51,50,41
82.44947,83.686455,51,50,41
83.69947,84.311455,51,50,41
84.32447,85.561455,51,50,41
85.57447,86.186455,51,50,41
86.19947,87.436455,51,50,41
87.44947,88.061455,51,50,41
88.07447,89.311455,51,50,41
89.32447,89.936455,51,50,41
89.94947,91.186455,51,50,41
91.19947,91.811455,51,50,41
91.82447,93.061455,51,50,41
93.07447,93.686455,51,50,41
93.69947,94.936455,51,50,41
94.94947,95.561455,51,50,41
95.57447,96.811455,51,50,41
96.82447,97.436455,51,58,41
97.44947,98.686455,51,62,41
98.69947,99.311455,51,71,41
99.32447,100.561455,51,75,41
100.57447,101.186455,51,83,41
101.19947,102.436455,51,88,41
102.44947,103.061455,51,96,41
103.07447,104.365234,51,100,41
104.37882,105.01741,53,100,41
105.03099,106.380424,55,89,41
106.39463,107.129005,51,66,41
106.39463,107.129005,61,66,41
107.14463,108.629005,51,55,41
107.14463,108.629005,60,55,41
108.64463,109.29741,58,50,41
108.64463,109.29741,51,50,41
109.311295,110.63074,51,50,41
109.311295,110.63074,58,50,41
110.64463,111.29741,51,50,41
110.64463,111.29741,60,50,41
111.311295,112.63074,51,50,41
111.311295,112.63074,61,50,41
112.64463,113.25661,51,50,41
112.64463,113.25661,61,50,41
113.26963,114.50661,51,50,41
113.26963,114.50661,61,50,41
114.51963,115.13161,51,50,41
114.51963,115.13161,61,50,41
115.14463,116.38161,51,50,41
115.14463,116.38161,61,50,41
116.39463,117.00661,51,50,41
116.39463,117.00661,61,50,41
117.01963,118.25661,51,50,41
117.01963,118.25661,61,50,41
118.26963,118.88161,51,50,41
118.26963,118.88161,61,50,41
118.89463,120.13161,51,50,41
118.89463,120.13161,60,50,41
120.14463,120.75661,51,50,41
120.76963,122.00661,63,50,41
122.01963,122.63161,51,50,41
122.01963,122.63161,61,50,41
122.64463,123.88161,51,50,41
122.64463,123.88161,60,50,41
123.89463,124.50661,60,50,41
123.89463,124.50661,51,50,41
124.51963,125.75661,51,50,41
125.76963,126.38161,54,50,41
126.39463,127.63161,53,50,41
127.64463,128.2566,54,57,41
128.26962,129.5066,53,61,41
129.51962,130.1316,51,68,41
130.14462,131.3816,49,72,41
131.39462,132.0066,61,79,41
132.01962,133.2566,60,83,41
133.26962,133.8816,53,90,41
133.26962,133.8816,56,90,41
133.89462,135.1854,56,100,41
135.19897,135.83755,57,89,41
135.85115,137.20058,58,83,41
137.21478,137.94916,51,71,41
137.96478,141.37947,51,70,41
141.39336,143.37947,51,70,41
143.39336,144.00534,54,64,41
144.01836,145.25534,53,61,41
145.26836,145.88034,56,55,41
145.89336,147.13034,53,55,41
147.14336,147.79613,56,60,41
147.81003,149.22371,60,62,41
149.23859,149.938,51,68,41
149.23859,149.938,58,68,41
149.95288,151.36656,51,70,41
149.95288,151.36656,56,70,41
152.09573,153.65823,51,50,41
152.09573,153.65823,61,50,41
154.46416,156.11346,51,40,41
154.46416,156.11346,60,40,41
156.13083,158.2588,55,70,41
158.27368,158.63081,56,70,41
158.63081,158.97308,58,70,41
158.98796,160.3074,58,70,41
160.32129,162.18327,60,70,41
162.19629,162.50879,61,70,41
162.50879,162.80827,63,70,41
162.82129,164.05827,63,70,41
164.07129,164.38379,61,70,41
164.38379,164.68327,60,70,41
164.69629,166.55827,53,70,41
164.69629,166.55827,60,70,41
166.57129,167.18327,57,70,41
167.19629,167.80827,53,70,41
167.82129,169.05827,58,70,41
169.07129,169.68327,62,70,41
169.69629,170.00879,63,70,41
170.00879,170.30827,65,70,41
170.32129,170.93327,65,70,41
170.94629,172.18327,70,70,41
172.19629,172.80827,63,70,41
172.82129,173.43327,67,70,41
173.44629,173.75879,68,70,41
173.75879,174.05827,70,70,41
174.07129,174.68327,67,70,41
174.69629,175.30827,68,70,41
175.32129,175.63379,70,70,41
175.63379,175.94629,72,70,41
175.94629,176.55827,56,70,41
177.19629,177.50879,58,70,41
177.50879,177.82129,60,70,41
177.82129,178.27702,58,70,41
179.07129,179.38379,60,70,41
179.38379,179.69629,61,70,41
179.69629,180.15202,60,70,41
181.01178,181.36891,61,70,41
181.36891,181.71118,63,70,41
181.72606,183.0455,63,60,41
183.05939,183.67137,68,72,41
183.68439,184.33717,72,78,41
184.35106,185.05046,75,84,41
185.06534,185.83836,75,90,41
185.85481,186.5076,75,80,41
186.52148,187.17426,51,70,41
187.18816,187.52148,53,70,41
187.52148,187.84093,55,70,41
187.85481,189.17426,55,70,41
189.18816,189.52148,56,70,41
189.52148,189.84093,58,70,41
189.85481,190.5076,58,70,41
190.52148,191.17426,56,70,41
191.18816,191.84093,49,70,41
191.85481,193.17426,49,70,41
193.18814,193.5076,48,70,41
193.52148,193.84093,68,70,41
193.85481,195.20424,72,70,41
195.21844,195.56071,71,70,41
195.57559,195.91786,70,70,41
195.93274,197.3814,70,90,41
197.39702,198.17004,68,70,41
198.1865,199.53592,60,70,41
199.55013,199.86263,56,70,41
199.87622,200.18872,55,70,41
200.2023,200.8409,54,70,41
200.85448,202.14523,53,70,41
202.15883,202.82643,53,70,41
202.84064,203.50826,58,70,41
203.52246,203.86472,60,70,41
203.87961,204.22186,61,70,41
204.23674,205.68541,61,70,41
205.70103,206.07932,60,70,41
204.23674,206.47406,48,70,41
206.09576,206.47406,58,70,41
206.49051,207.83994,49,70,41
206.49051,207.83994,61,70,41
207.85414,208.16664,48,70,41
207.85414,208.16664,60,70,41
208.18022,209.79707,72,70,41
209.81067,210.12317,60,70,41
210.13675,211.7536,60,70,41
211.76718,212.07968,66,70,41
212.09326,213.71011,66,70,41
213.72371,214.03621,65,70,41
214.04979,215.01447,65,70,41
215.02805,217.62315,56,70,41
217.63675,218.27533,53,70,41
218.28891,218.9275,50,70,41
218.94109,219.57968,51,70,41
219.59326,220.88402,51,70,41
220.89761,221.56523,55,82,41
221.57942,221.83241,58,94,41
221.93657,222.2022,60,100,41
222.31157,223.60536,60,100,41
223.6184,224.23036,61,80,41
224.2434,225.48036,51,70,41
225.4934,225.79286,53,70,41
225.8059,226.10536,55,70,41
226.1184,226.73036,56,70,41
226.7434,227.35536,58,70,41
227.3684,227.98036,58,70,41
227.9934,228.60536,58,70,41
228.6184,229.23036,55,82,41
229.2434,229.85536,51,94,41
229.8684,231.10536,51,100,41
231.1184,231.73036,51,80,41
231.7434,232.35536,60,70,41
232.3684,232.98036,56,70,41
232.9934,233.3059,58,80,41
233.3059,233.6184,60,85,41
233.6184,234.23036,61,90,41
234.2434,234.5559,64,100,41
234.5559,234.8684,61,100,41
234.8684,236.28207,60,86,41
236.29697,236.99637,66,70,41
237.01125,237.3684,65,70,41
237.3684,237.74667,63,70,41
237.76312,238.43074,63,70,41
238.44495,239.45346,65,73,41
239.46767,239.79437,66,78,41
239.80858,240.4762,66,80,41
240.4904,241.49892,68,84,41
241.51312,241.83983,64,89,41
241.85403,242.52165,64,91,41
242.53586,243.54437,63,94,41
243.55858,243.88528,48,100,41
243.89949,244.56711,48,102,41
244.5813,245.58983,49,105,41
245.60403,245.93074,49,110,41
245.94495,246.61255,49,110,41
246.62675,247.29437,48,103,41
247.30858,247.9762,49,95,41
247.9904,249.33983,51,87,41
249.35403,250.08841,51,71,41
250.10403,250.92,51,70,41
250.93736,251.67174,60,70,41
251.68736,252.01407,51,70,41
252.02827,252.35498,48,70,41
252.36919,253.0368,48,70,41
253.051,253.3777,49,82,41
253.3919,254.05952,51,88,41
254.07373,254.40044,51,100,41
256.11917,256.4459,52,77,41
256.46008,257.8095,52,71,41
254.41464,258.16464,51,110,41
257.82373,258.16464,51,70,41
258.16464,258.50555,49,70,41
258.50555,259.85498,48,70,41
259.86917,261.90042,49,70,41
261.91464,262.25555,48,80,41
262.25555,262.58224,49,90,41
262.59647,263.60498,49,100,41
263.61917,263.9459,48,78,41
263.96008,264.301,48,71,41
264.301,264.62772,56,70,41
264.6419,264.98282,56,70,41
264.98282,265.32373,55,70,41
265.32373,265.65042,56,70,41
265.66464,266.00555,56,70,41
266.00555,266.34647,58,70,41
266.34647,266.68735,60,70,41
266.68735,267.35498,61,70,41
267.36917,268.0368,63,70,41
268.051,268.7504,63,70,41
268.7653,269.12244,60,70,41
269.12244,269.47955,58,70,41
269.47955,269.85455,56,70,41
269.85455,270.22955,60,70,41
270.22955,270.63498,61,70,41
270.63498,271.07614,63,70,41
271.07614,271.81052,56,70,41
271.82614,272.8347,68,73,41
272.84888,273.17557,68,78,41
273.1898,273.8574,63,80,41
273.8716,274.88013,62,84,41
274.89432,275.22104,61,89,41
275.23523,275.90286,61,91,41
275.91705,276.93317,60,94,41
276.94772,277.282,48,100,41
277.29654,277.97968,60,102,41
277.99423,279.06787,53,105,41
277.99423,279.06787,56,105,41
279.0835,279.44287,53,110,41
279.0835,279.44287,56,110,41
279.4585,280.19287,53,110,41
279.4585,280.19287,56,110,41
280.2085,280.94287,53,101,41
280.2085,280.94287,56,101,41
280.9585,282.30795,53,91,41
282.32214,283.33066,55,71,41
283.34488,283.67157,61,70,41
283.6858,284.3534,60,70,41
284.36758,285.03522,72,70,41
285.0494,285.39032,68,70,41
285.39032,285.71704,63,70,41
285.73123,286.39883,63,70,41
286.41306,287.42157,61,70,41
287.4358,287.76248,58,70,41
287.7767,288.4443,63,70,41
288.4585,289.12613,51,68,41
289.14032,289.48123,54,66,41
289.48123,289.82214,51,65,41
289.82214,291.1871,53,64,41
291.20163,291.55048,56,59,41
291.55048,291.89932,52,58,41
291.89932,293.28012,56,57,41
293.29465,293.6518,60,52,41
293.6518,294.00894,56,51,41
294.00894,295.8125,58,50,41
295.8125,296.1875,70,67,41
296.1875,296.92188,74,70,41
298.1042,299.33682,70,50,41
301.39963,301.8163,70,50,41
301.8163,302.59235,72,50,41
302.98297,303.15485,51,70,41
303.73297,303.90485,50,70,41
304.48297,304.65485,49,70,41
305.23297,305.48297,48,70,41
305.98297,306.23297,48,70,41
306.73297,306.98297,48,70,41
307.48297,307.73297,48,70,41
308.23297,308.48297,48,70,41
308.98297,309.23297,48,70,41
309.73297,309.98297,48,70,41
310.48297,310.73297,48,70,41
311.23297,311.48297,49,70,41
311.98297,312.23297,49,70,41
312.73297,312.98297,49,70,41
313.48297,313.73297,49,70,41
314.23297,314.48297,49,70,41
314.98297,315.23297,49,70,41
315.73297,315.98297,49,70,41
316.48297,316.73297,50,70,41
317.23297,317.48297,51,70,41
317.98297,318.23297,56,70,41
318.73297,318.98297,56,70,41
319.48297,319.73297,61,70,41
320.23297,320.48297,56,70,41
320.98297,321.23297,58,70,41
321.73297,321.98297,60,70,41
322.48297,322.73297,61,70,41
323.23297,323.48297,63,70,41
323.98297,324.23297,56,77,41
323.98297,324.23297,63,77,41
324.73297,324.98297,56,85,41
324.73297,324.98297,63,85,41
325.48297,325.73297,56,93,41
325.48297,325.73297,63,93,41
326.23297,326.48297,55,100,41
326.23297,326.48297,63,100,41
326.60797,326.85797,51,100,41
326.60797,326.85797,55,100,41
326.98297,327.23297,63,94,41
326.98297,327.23297,55,94,41
327.35797,327.60797,51,88,41
327.35797,327.60797,55,88,41
327.73297,327.99612,63,82,41
327.73297,327.99612,55,82,41
328.12772,328.39087,51,75,41
328.12772,328.39087,55,75,41
328.52243,328.80023,63,69,41
328.52243,328.80023,58,69,41
328.93912,329.23322,51,63,41
328.93912,329.23322,58,63,41
329.38028,329.65805,63,50,41
329.38028,329.65805,60,50,41
329.79694,330.04694,51,50,41
330.17194,330.42194,60,50,41
330.17194,330.42194,51,50,41
330.54694,330.79694,48,50,41
330.92194,331.17194,60,50,41
330.92194,331.17194,51,50,41
331.29694,331.54694,48,50,41
331.67194,331.92194,60,50,41
331.67194,331.92194,51,50,41
332.04694,332.29694,48,50,41
332.42194,332.67194,60,50,41
332.42194,332.67194,51,50,41
332.79694,333.04694,48,50,41
333.17194,333.42194,60,50,41
333.17194,333.42194,51,50,41
333.54694,333.79694,48,50,41
333.92194,334.17194,60,50,41
333.92194,334.17194,51,50,41
334.29694,334.54694,48,50,41
334.67194,334.92194,63,50,41
334.67194,334.92194,56,50,41
335.04694,335.29694,51,50,41
335.42194,335.67194,63,50,41
335.42194,335.67194,55,50,41
335.79694,336.04694,51,50,41
335.79694,336.04694,55,50,41
336.17194,336.42194,63,50,41
336.17194,336.42194,55,50,41
336.54694,336.79694,51,50,41
336.54694,336.79694,55,50,41
336.92194,337.17194,63,50,41
336.92194,337.17194,55,50,41
337.29694,337.54694,51,50,41
337.29694,337.54694,55,50,41
337.67194,337.92194,63,50,41
337.67194,337.92194,55,50,41
338.04694,338.29694,51,50,41
338.04694,338.29694,55,50,41
338.42194,338.67194,63,50,41
338.42194,338.67194,55,50,41
338.79694,339.04694,51,50,41
338.79694,339.04694,55,50,41
339.17194,339.42194,63,50,41
339.17194,339.42194,56,50,41
339.54694,339.79694,56,50,41
339.92194,340.17194,63,50,41
339.92194,340.17194,58,50,41
340.29694,340.54694,58,50,41
340.67194,340.92194,63,50,41
340.67194,340.92194,58,50,41
341.04694,341.29694,55,50,41
341.42194,341.67194,60,50,41
341.42194,341.67194,48,50,41
341.79694,342.04694,56,54,41
341.79694,342.04694,48,54,41
342.17194,342.42194,55,58,41
342.17194,342.42194,48,58,41
342.54694,342.79694,48,62,41
342.92194,343.17194,60,66,41
342.92194,343.17194,48,66,41
343.29694,343.54694,56,70,41
343.29694,343.54694,48,70,41
343.67194,343.92194,60,70,41
343.67194,343.92194,48,70,41
344.04694,344.29694,57,70,41
344.04694,344.29694,48,70,41
344.42194,344.67194,63,70,41
344.42194,344.67194,55,70,41
344.79694,345.04694,51,70,41
344.79694,345.04694,55,70,41
345.17194,345.42194,63,70,41
345.17194,345.42194,55,70,41
345.54694,345.79694,51,70,41
345.54694,345.79694,55,70,41
345.92194,346.17194,63,70,41
345.92194,346.17194,55,70,41
346.29694,346.54694,51,70,41
346.29694,346.54694,55,70,41
346.67194,346.92194,65,70,41
346.67194,346.92194,56,70,41
347.04694,347.29694,53,70,41
347.04694,347.29694,56,70,41
347.42194,347.67194,65,70,41
347.42194,347.67194,56,70,41
347.79694,348.04694,50,70,41
348.17194,348.42194,65,70,41
348.17194,348.42194,56,70,41
348.54694,348.79694,50,70,41
348.92194,349.17194,65,70,41
348.92194,349.17194,56,70,41
349.29694,349.54694,50,70,41
349.67194,349.92194,65,70,41
349.67194,349.92194,62,70,41
350.04694,350.29694,53,70,41
350.04694,350.29694,56,70,41
350.42194,350.67194,63,70,41
350.42194,350.67194,55,70,41
350.79694,351.04694,58,70,41
351.17194,351.42194,51,70,41
351.17194,351.42194,60,70,41
351.54694,351.79694,51,70,41
351.92194,352.17194,61,70,41
351.92194,352.17194,51,70,41
352.29694,352.54694,55,70,41
352.67194,352.92194,56,70,41
353.04694,353.29694,51,70,41
353.42194,353.67194,63,60,41
353.42194,353.67194,58,60,41
353.79694,354.04694,55,61,41
354.17194,354.42194,58,62,41
354.54694,354.79694,55,63,41
354.92194,355.17194,61,65,41
355.29694,355.54694,51,66,41
355.67194,355.92194,61,67,41
356.04694,356.29694,51,69,41
356.42194,357.1563,51,70,41
356.42194,357.1563,61,70,41
358.71143,359.12808,73,78,41
359.12808,359.34866,72,79,41
359.34866,359.56927,70,80,41
359.56927,359.84888,68,80,41
359.964,360.73703,48,82,41
360.75348,360.95084,48,84,41
360.95084,361.14822,51,85,41
361.14822,361.42783,56,85,41
361.54294,362.31598,60,87,41
362.33243,362.5298,60,89,41
362.5298,362.72717,61,90,41
362.72717,363.08655,63,91,41
363.47717,363.85217,68,93,41
363.85217,364.03967,65,95,41
364.03967,364.22717,61,95,41
364.22717,364.60217,60,96,41
364.60217,364.78967,56,97,41
364.78967,364.97717,48,98,41
364.97717,365.35217,63,98,41
365.35217,365.53967,60,100,41
365.53967,365.72717,56,100,41
365.72717,365.9928,68,110,41
366.10217,366.83655,49,110,41
366.85217,367.03967,49,110,41
367.03967,367.22717,51,110,41
367.22717,367.4928,52,110,41
367.60217,368.33655,61,125,41
368.35217,368.53967,61,110,41
368.53967,368.72717,63,110,41
368.72717,368.9928,64,110,41
369.47717,369.7428,68,70,41
370.22717,370.4928,70,70,41
370.22717,370.4928,68,70,41
370.97717,371.2428,70,70,41
370.97717,371.2428,68,70,41
371.72717,371.9928,72,70,41
371.72717,371.9928,68,70,41
372.47717,372.7428,72,70,41
373.22717,373.4928,67,70,41
373.22717,373.4928,70,70,41
373.97717,374.2428,70,70,41
374.72717,374.9928,68,70,41
375.47717,375.85217,68,70,41
375.85217,376.03967,63,70,41
376.03967,376.22717,60,70,41
376.22717,376.58655,58,70,41
376.97717,377.33655,58,70,41
377.35217,377.53967,58,70,41
377.53967,377.72717,51,70,41
377.72717,378.27405,60,70,41
378.47717,378.85217,63,70,41
378.85217,379.03967,60,70,41
379.03967,379.22717,54,70,41
379.97717,380.35217,65,70,41
380.35217,380.53967,61,70,41
380.53967,380.72717,56,70,41
381.47717,381.85217,63,70,41
381.85217,382.03967,60,70,41
382.03967,382.22717,56,70,41
382.22717,382.77405,55,70,41
382.97717,383.35217,58,70,41
383.35217,383.53967,55,70,41
383.53967,383.72717,49,70,41
383.72717,384.27405,48,70,41
384.47717,384.85217,60,70,41
384.85217,385.03967,56,70,41
385.03967,385.22717,51,70,41
385.22717,385.77405,49,70,41
385.97717,386.35217,58,70,41
386.35217,386.53967,55,70,41
386.53967,386.72717,49,70,41
386.72717,386.97717,60,70,41
386.72717,386.97717,48,70,41
387.10217,387.35217,48,70,41
387.47717,387.72717,56,70,41
387.47717,387.72717,48,70,41
387.85217,388.10217,48,78,41
388.22717,388.47717,58,86,41
388.22717,388.47717,55,86,41
388.60217,388.85217,51,94,41
388.97717,389.22717,63,102,41
388.97717,389.22717,60,102,41
389.35217,389.60217,51,110,41
389.72717,389.97717,61,70,41
389.72717,389.97717,51,70,41
390.10217,390.35217,55,70,41
390.47717,390.72717,61,70,41
390.47717,390.72717,51,70,41
390.85217,391.10217,58,70,41
391.22717,391.47717,51,70,41
391.22717,391.47717,61,70,41
391.60217,391.85217,58,70,41
391.97717,392.22717,58,70,41
392.35217,392.60217,55,70,41
392.72717,392.97717,51,70,41
392.72717,392.97717,58,70,41
393.10217,393.35217,51,70,41
393.47717,393.72717,58,70,41
393.47717,393.72717,51,70,41
393.85217,394.10217,51,70,41
394.22717,394.47717,51,70,41
394.22717,394.47717,60,70,41
394.60217,394.85217,48,70,41
394.97717,395.22717,61,70,41
394.97717,395.22717,51,70,41
395.35217,395.60217,49,70,41
395.72717,395.97717,56,70,41
395.72717,395.97717,51,70,41
396.10217,396.35217,48,70,41
396.47717,396.72717,56,70,41
396.47717,396.72717,51,70,41
396.85217,397.10217,48,70,41
397.22717,397.47717,56,70,41
397.22717,397.47717,51,70,41
397.60217,397.85217,51,70,41
397.97717,398.22717,60,70,41
397.97717,398.22717,51,70,41
398.35217,398.60217,56,70,41
398.72717,398.97717,51,70,41
398.72717,398.97717,56,70,41
399.10217,399.35217,48,70,41
399.47717,399.72717,60,70,41
399.47717,399.72717,51,70,41
399.85217,400.10217,48,70,41
400.22717,400.47717,60,70,41
400.22717,400.47717,51,70,41
400.60217,400.85217,48,70,41
400.97717,401.22717,60,70,41
400.97717,401.22717,51,70,41
401.35217,401.60217,48,70,41
401.72717,401.97717,56,70,41
402.10217,402.35217,52,73,41
402.47717,402.72717,56,76,41
402.85217,403.10217,52,79,41
403.22717,403.47717,56,82,41
403.60217,403.85217,52,85,41
403.97717,404.22717,56,88,41
404.35217,404.60217,52,92,41
404.72717,404.97717,56,95,41
405.10217,405.35217,49,98,41
405.47717,405.72717,56,101,41
405.85217,406.10217,53,104,41
406.22717,406.47717,63,107,41
406.22717,406.47717,58,107,41
406.60217,406.85217,49,110,41
406.97717,407.24033,58,110,41
407.3719,407.65375,50,110,41
407.8008,408.09494,63,70,41
407.8008,408.09494,60,70,41
408.242,408.492,51,70,41
408.617,408.867,63,70,41
408.617,408.867,60,70,41
408.992,409.242,51,70,41
409.367,409.617,67,70,41
409.367,409.617,58,70,41
409.742,409.992,63,70,41
409.742,409.992,55,70,41
410.117,410.367,63,70,41
410.117,410.367,58,70,41
410.492,410.742,63,70,41
410.492,410.742,55,70,41
410.867,411.117,60,70,41
410.867,411.117,63,70,41
411.242,411.492,48,70,41
411.617,411.867,63,70,41
411.617,411.867,60,70,41
411.992,412.242,56,70,41
412.367,412.617,63,70,41
412.367,412.617,58,70,41
412.742,412.992,51,70,41
413.117,413.367,63,70,41
413.117,413.367,55,70,41
413.492,413.742,51,70,41
413.492,413.742,58,70,41
413.867,414.117,63,70,41
413.867,414.117,60,70,41
414.242,414.492,48,68,41
414.242,414.492,56,68,41
414.617,414.867,68,65,41
414.617,414.867,60,65,41
414.992,415.242,48,63,41
414.992,415.242,60,63,41
415.367,415.617,68,60,41
415.367,415.617,61,60,41
415.742,415.992,53,57,41
415.742,415.992,61,57,41
416.117,416.367,68,55,41
416.117,416.367,61,55,41
416.492,416.742,56,52,41
416.492,416.742,68,52,41
416.867,417.117,68,50,41
416.867,417.117,56,50,41
417.242,417.492,51,52,41
417.617,417.867,68,58,41
417.617,417.867,60,58,41
417.992,418.242,51,64,41
418.367,418.617,67,69,41
418.367,418.617,58,69,41
418.742,418.992,51,75,41
419.117,419.367,63,80,41
419.117,419.367,58,80,41
419.492,419.742,49,86,41
419.867,420.117,63,90,41
419.867,420.117,58,90,41
420.242,420.492,48,89,41
420.617,420.867,63,87,41
420.617,420.867,56,87,41
420.992,421.242,48,85,41
421.367,421.617,63,83,41
421.367,421.617,58,83,41
421.742,421.992,49,81,41
422.117,422.367,63,79,41
422.117,422.367,55,79,41
422.492,422.742,51,77,41
422.867,423.13016,63,75,41
422.867,423.13016,56,75,41
423.26172,423.5249,48,73,41
423.65646,423.93423,56,71,41
424.07312,424.35092,48,70,41
424.4898,425.35376,49,70,41
425.37216,430.3312,52,70,41
430.34543,431.69485,55,110,41
431.70905,434.42212,54,110,41
434.4363,437.14938,59,90,41
434.4363,437.14938,54,90,41
437.1636,438.51303,52,70,41
437.1636,438.51303,59,70,41
438.52722,439.87665,52,83,41
438.52722,439.87665,61,83,41
439.89087,440.89938,52,97,41
439.89087,440.89938,59,97,41
441.25452,442.3639,58,110,41
442.75452,444.10394,59,70,41
444.11813,444.78574,52,70,41
444.79996,446.14938,55,70,41
446.1636,446.8312,54,70,41
446.8454,447.57977,66,70,41
447.5954,448.41138,66,70,41
448.42874,449.77817,59,70,41
449.7924,453.90088,64,81,41
453.91574,456.98477,63,110,41
457.00165,459.7829,66,70,41
459.79712,461.14655,64,70,41
461.16074,462.5102,56,80,41
462.52438,463.8738,54,90,41
463.88803,465.45398,52,100,41
465.47134,469.3268,52,110,41
465.47134,469.3268,56,110,41
469.34418,470.99347,54,102,41
471.01083,471.8268,54,100,41
471.84415,474.55722,54,70,41
474.57144,477.28452,57,70,41
477.2987,480.01178,56,70,41
480.02597,482.73904,59,70,41
482.75323,484.1027,57,70,41
484.11688,488.37442,54,100,41
488.39178,490.62616,48,110,41
488.39178,490.62616,60,110,41
490.64178,492.12616,54,90,41
492.14178,492.87616,56,70,41
492.89178,493.62616,68,70,41
493.64178,494.37616,68,70,41
494.39178,496.62616,69,70,41
496.64178,497.37616,68,70,41
497.39178,498.87616,66,70,41
498.89178,499.5912,68,70,41
499.60605,500.42203,69,70,41
500.4394,502.47064,71,70,41
502.48486,503.15247,69,70,41
503.16666,504.51608,68,70,41
504.5303,505.2297,69,70,41
505.2446,506.06055,71,70,41
506.0779,507.42734,66,70,41
507.44156,511.71652,48,110,41
507.44156,511.71652,60,110,41
511.73386,513.8618,48,110,41
511.73386,513.8618,60,110,41
513.8767,514.5761,51,94,41
513.8767,514.5761,59,94,41
514.591,515.2904,51,70,41
514.591,516.0047,59,70,41
515.3053,516.0047,52,70,41
516.0196,516.719,60,70,41
516.0196,516.719,48,70,41
516.7339,517.4333,51,70,41
517.4482,521.719,52,69,41
521.7339,523.2569,52,60,41
523.2733,526.0365,52,57,41
526.0365,527.599,51,51,41
528.7997,529.4247,52,50,41
529.5891,530.1546,52,50,41
530.3034,530.8689,52,50,41
531.0177,531.5832,52,50,41
531.732,532.2975,52,50,41
532.4463,533.1457,52,50,41
533.1606,539.5742,51,50,41
539.5891,540.1546,51,50,41
540.3034,540.8689,51,50,41
541.0177,548.1457,51,50,41
541.0177,548.1457,58,50,41
548.1605,548.726,51,50,41
548.1605,548.726,58,50,41
548.8748,549.4403,51,50,41
548.8748,549.4403,58,50,41
549.5891,550.2885,51,50,41
549.5891,550.2885,60,50,41
550.3034,553.8599,54,52,41
553.8748,556.7171,53,66,41
553.8748,556.7171,58,66,41
556.732,557.2974,53,78,41
556.732,557.2974,58,78,41
557.4463,558.0117,53,80,41
557.4463,558.0117,58,80,41
558.1605,560.2885,51,70,41
558.1605,562.4314,56,70,41
560.3034,563.1457,53,70,41
562.4463,565.2885,55,70,41
563.1605,565.2885,51,70,41
565.3034,566.0028,51,70,41
565.3034,566.0028,56,70,41
566.0177,566.7171,51,70,41
566.0177,566.7171,58,70,41
566.732,567.3272,51,70,41
566.732,567.3272,60,70,41
567.4463,568.0415,51,70,41
567.4463,568.0415,60,70,41
568.1605,568.7558,51,70,41
568.1605,568.7558,60,70,41
568.8748,569.4701,51,70,41
568.8748,569.4701,60,70,41
569.5891,570.1843,51,70,41
569.5891,570.1843,60,70,41
570.3034,570.8986,51,70,41
570.3034,570.8986,60,70,41
571.0177,571.6129,51,70,41
571.0177,571.6129,60,70,41
571.732,572.3272,51,70,41
571.732,572.3272,60,70,41
572.4462,573.0415,51,70,41
572.4462,573.0415,60,70,41
573.1605,573.7558,51,70,41
573.1605,573.7558,60,70,41
573.8748,574.4998,51,70,41
573.8748,574.4998,60,70,41
574.6248,575.3193,51,70,41
574.6248,575.3193,60,70,41
575.4582,576.0534,51,70,41
575.4582,576.0534,61,70,41
576.1724,576.7677,51,70,41
576.1724,576.7677,61,70,41
576.8867,577.482,51,70,41
576.8867,577.482,61,70,41
577.601,578.1962,51,70,41
577.601,578.1962,58,70,41
578.3153,578.9105,51,70,41
578.3153,578.9105,58,70,41
579.0296,579.6248,51,70,41
579.0296,579.6248,58,70,41
579.7439,580.3391,51,70,41
579.7439,580.3391,58,70,41
580.4581,581.0534,51,70,41
580.4581,581.0534,58,70,41
581.1724,581.7677,51,70,41
581.1724,581.7677,61,70,41
581.8867,582.482,51,70,41
581.8867,582.482,61,70,41
582.601,583.226,51,70,41
582.601,583.226,61,70,41
583.351,584.0455,51,70,41
583.351,584.0455,58,70,41
584.1843,584.7796,51,70,41
584.8986,585.4939,52,72,41
585.6129,586.2081,53,75,41
586.3272,586.9948,53,78,41
587.00903,587.67664,55,81,41
587.69086,588.35846,56,84,41
588.3727,589.0403,57,86,41
589.0545,589.6227,58,89,41
589.73627,590.3045,58,92,41
590.4181,590.98627,58,95,41
591.0999,591.6681,58,98,41
591.78174,592.3499,58,100,41
592.46356,593.03174,51,85,41
592.46356,593.03174,58,85,41
593.1454,593.71356,51,70,41
593.1454,593.71356,58,70,41
593.8272,594.3954,51,70,41
593.8272,594.3954,58,70,41
594.50903,595.0772,51,70,41
594.50903,595.0772,58,70,41
595.19086,595.75903,51,70,41
595.19086,595.75903,58,70,41
595.8727,596.44086,51,70,41
595.8727,596.44086,58,70,41
596.5545,597.1227,58,70,41
596.5545,597.1227,51,70,41
597.23627,597.90393,51,70,41
597.9181,598.58575,53,72,41
598.5999,599.2675,53,74,41
599.28174,599.94934,55,77,41
599.96356,600.63116,56,79,41
600.6454,601.21356,51,82,41
600.6454,601.21356,61,82,41
601.3272,601.8954,51,84,41
601.3272,601.8954,61,84,41
602.00903,602.5772,51,86,41
602.00903,602.5772,61,86,41
602.69086,603.25903,51,89,41
602.69086,603.25903,61,89,41
603.3727,603.94086,51,91,41
603.3727,603.94086,61,91,41
604.05444,604.6227,51,94,41
604.05444,604.6227,61,94,41
604.73627,605.30444,51,96,41
604.73627,605.30444,61,96,41
605.4181,605.98627,51,98,41
605.4181,605.98627,61,98,41
606.0999,606.6681,51,101,41
606.0999,606.6681,61,101,41
606.78174,607.3499,51,103,41
606.78174,607.3499,61,103,41
607.46356,608.03174,51,106,41
607.46356,608.03174,61,106,41
608.1454,608.71356,51,108,41
608.1454,608.71356,61,108,41
608.8272,609.3954,51,110,41
608.8272,609.3954,60,110,41
609.50903,610.0772,51,110,41
609.50903,610.0772,60,110,41
610.19086,610.75903,51,110,41
610.19086,610.75903,60,110,41
610.8727,611.44086,51,110,41
610.8727,611.44086,60,110,41
611.55444,612.1227,51,110,41
611.55444,612.1227,60,110,41
612.23627,612.80444,51,110,41
612.23627,612.80444,60,110,41
612.9181,613.48627,51,110,41
612.9181,613.48627,60,110,41
613.5999,614.1681,51,110,41
613.5999,614.1681,60,110,41
614.28174,614.8499,51,110,41
614.28174,614.8499,60,110,41
614.96356,615.53174,51,110,41
614.96356,615.53174,60,110,41
615.6454,616.21356,51,110,41
615.6454,616.21356,60,110,41
616.3272,616.8954,51,110,41
616.3272,616.8954,60,110,41
617.00903,617.5772,53,110,41
617.00903,617.5772,58,110,41
617.69086,618.25903,53,110,41
617.69086,618.25903,58,110,41
618.3727,618.94086,53,110,41
618.3727,618.94086,58,110,41
619.05444,619.6227,53,110,41
619.05444,619.6227,58,110,41
619.73627,620.30444,53,110,41
619.73627,620.30444,58,110,41
620.4181,620.98627,53,110,41
620.4181,620.98627,58,110,41
621.0999,621.6681,53,110,41
621.0999,621.6681,58,110,41
621.78174,622.3499,53,110,41
621.78174,622.3499,58,110,41
622.46356,623.03174,53,110,41
622.46356,623.03174,58,110,41
623.1454,623.71356,53,110,41
623.1454,623.71356,58,110,41
623.8272,624.3954,51,97,41
623.8272,624.3954,58,97,41
624.50903,625.0772,50,83,41
624.50903,625.0772,58,83,41
625.19086,625.75903,51,70,41
625.19086,625.75903,60,70,41
625.8726,626.44086,51,70,41
625.8726,626.44086,56,70,41
626.55444,627.1226,51,70,41
626.55444,627.1226,60,70,41
627.23627,627.80444,51,70,41
627.23627,627.80444,58,70,41
627.9181,628.48627,51,70,41
627.9181,628.48627,61,70,41
628.5999,629.1681,51,70,41
628.5999,629.1681,58,70,41
629.28174,629.94934,51,70,41
629.28174,629.94934,60,70,41
629.96356,630.63116,58,70,41
630.6454,631.313,60,72,41
631.3272,631.9948,63,74,41
631.3272,631.9948,60,74,41
632.00903,632.67664,61,77,41
632.69086,633.35846,51,79,41
632.69086,633.35846,60,79,41
633.3726,634.0403,51,82,41
633.3726,634.0403,60,82,41
634.05444,637.1226,61,84,41
634.05444,637.44934,51,84,41
637.1226,637.44934,60,95,41
637.46356,639.1681,60,96,41
639.1681,639.50903,58,102,41
639.50903,641.29987,60,103,41
641.29987,641.67816,61,109,41
641.6946,643.044,61,110,41
643.0582,645.4446,63,110,41
645.4446,645.7713,61,110,41
645.7855,647.49005,61,110,41
647.49005,647.83093,60,110,41
647.83093,649.62177,61,110,41
649.62177,650.01654,63,110,41
650.01654,653.76654,65,110,41
653.76654,654.1074,67,110,41
654.1074,655.81195,68,110,41
655.81195,656.1529,70,110,41
656.1529,657.8574,74,110,41
657.8574,658.18414,73,110,41
658.19836,658.53925,73,110,41
658.53925,659.8887,72,107,41
659.9029,660.2438,68,93,41
660.2438,661.94836,67,90,41
661.94836,662.275,63,73,41
662.28925,662.95685,63,70,41
662.97107,663.9796,60,70,41
663.9938,664.3347,60,82,41
664.3347,666.03925,61,110,41
666.03925,666.3802,67,108,41
666.3802,668.0847,66,110,41
668.0847,668.4256,60,102,41
668.4256,669.0932,65,100,41
669.1074,670.11597,64,97,41
670.1301,670.47107,61,92,41
670.47107,672.1756,63,90,41
672.1756,672.51654,60,82,41
672.51654,674.2876,55,80,41
674.2876,674.6626,61,72,41
674.6626,676.2251,60,70,41
677.03107,678.68036,61,70,41
679.53107,681.01544,60,70,41
684.03107,685.51544,73,50,41
686.28107,687.8865,75,50,41
688.7372,690.40906,68,50,41
694.51556,695.1832,52,50,41
695.1974,696.5468,53,50,41
696.56104,697.22864,57,50,41
697.24286,702.6832,58,50,41
702.6974,703.365,59,50,41
703.3792,704.72864,60,50,41
704.74286,705.41046,63,50,41
705.4247,710.865,66,50,41
710.8792,711.5468,64,50,41
711.56104,714.95593,65,50,41
714.97015,715.63776,62,50,41
715.652,719.0468,63,50,41
719.06104,719.72864,61,50,41
719.74286,723.13776,60,50,41
723.1519,723.8514,58,50,41
723.8662,725.3149,56,50,41
725.3305,726.12445,48,50,41
726.14136,731.58167,49,50,41
731.5959,732.2635,64,50,41
732.2777,733.62714,68,53,41
733.6413,734.30896,59,60,41
734.3231,735.67255,57,63,41
735.68677,736.3544,61,70,41
736.3686,737.718,64,73,41
737.73224,738.39984,56,80,41
738.41406,739.7635,54,83,41
739.7777,740.4453,57,90,41
740.45953,741.80896,61,94,41
741.8231,742.4908,52,100,41
742.50494,743.8544,61,70,41
743.8686,744.5362,51,70,41
744.5504,745.89984,60,70,41
745.91406,746.58167,51,70,41
746.5959,747.9453,49,70,41
747.95953,748.62714,64,70,41
748.6413,749.9907,68,72,41
750.00494,750.67255,59,76,41
750.68677,752.0362,57,78,41
752.0504,752.718,61,82,41
752.73224,754.08167,64,84,41
754.0959,754.7635,56,88,41
754.7777,756.12714,54,90,41
756.1413,756.8407,57,94,41
756.8556,758.30426,61,96,41
758.3199,759.13586,52,100,41
759.1532,760.5669,61,70,41
760.5818,761.2812,51,70,41
761.2961,762.78046,60,70,41
762.7961,763.61206,51,70,41
763.6294,767.3288,52,70,41
767.3437,768.0431,54,70,41
768.058,769.4074,52,70,41
769.42163,771.4529,64,70,41
771.4671,772.1347,66,70,41
772.14886,776.39594,64,70,41
776.4124,777.8261,57,70,41
777.84094,779.8722,57,70,41
779.8864,780.554,56,80,41
780.56824,781.98193,54,83,41
781.9968,782.6962,52,90,41
782.7111,784.1955,50,94,41
784.2111,785.02704,49,100,41
785.04443,786.4581,51,70,41
786.473,787.1724,56,70,41
787.18726,788.6746,53,70,41
788.69104,789.555,55,70,41
789.57336,790.3929,67,70,41
790.4093,791.0769,68,70,41
791.0911,791.7587,63,70,41
791.77295,792.44055,62,70,41
792.4548,793.1224,61,70,41
793.1366,793.8042,58,70,41
793.8184,794.486,59,70,41
794.5002,795.16785,60,73,41
795.182,795.8497,48,76,41
795.86383,796.53143,53,79,41
796.54565,797.21326,58,82,41
797.2275,797.8951,55,85,41
797.9093,798.5769,58,88,41
798.5911,799.2587,56,91,41
799.27295,799.95605,55,94,41
799.97064,800.65375,55,97,41
800.6683,801.35144,61,100,41
801.36597,801.7231,60,85,41
801.7231,802.11786,58,77,41
802.11786,804.1491,51,70,41
804.16327,806.1945,51,70,41
806.20874,808.24,51,70,41
808.2542,810.28546,51,70,41
810.2997,812.33093,51,70,41
812.3451,814.37634,51,70,41
814.39056,816.4218,51,70,41
816.43604,818.4673,51,70,41
818.48145,820.5127,51,70,41
820.5269,822.55817,53,70,41
822.5724,824.60364,55,70,41
824.61786,826.6491,56,70,41
826.66327,828.6945,56,70,41
828.70874,830.74,56,88,41
830.7542,833.12634,55,70,41
833.14056,833.48145,56,70,41
833.48145,833.8224,58,70,41
833.8224,834.16327,60,70,41
834.16327,834.5042,61,70,41
834.5042,834.8451,60,70,41
834.8451,835.18604,58,70,41
835.18604,835.5269,56,70,41
835.5269,835.86786,55,71,41
835.86786,836.20874,56,72,41
836.20874,836.5496,58,73,41
836.5496,836.89056,60,74,41
836.89056,837.23145,61,75,41
837.23145,837.5724,60,75,41
837.5724,837.91327,58,76,41
837.91327,838.2542,60,77,41
838.2542,838.5951,61,78,41
838.5951,838.93604,63,79,41
838.93604,839.2769,65,80,41
839.2769,839.61786,63,81,41
839.61786,839.95874,61,81,41
839.95874,840.2996,60,82,41
840.2996,840.64056,58,83,41
840.64056,840.98145,56,84,41
840.98145,841.3224,55,85,41
841.3224,841.66327,53,86,41
841.66327,842.0042,51,87,41
842.0042,842.3451,49,87,41
842.3451,842.68604,48,88,41
842.68604,843.0269,49,89,41
843.0269,843.36786,48,90,41
843.36786,843.70874,51,91,41
843.70874,844.0496,60,92,41
844.0496,844.39056,58,93,41
844.39056,844.73145,56,93,41
844.73145,845.0724,58,94,41
845.0724,845.41327,60,95,41
845.41327,845.7542,55,96,41
845.7542,846.0951,56,97,41
846.0951,846.43604,58,98,41
846.43604,846.7769,60,99,41
846.7769,847.1178,61,99,41
847.1178,847.45874,60,100,41
847.45874,847.7996,63,101,41
847.7996,848.14056,61,102,41
848.14056,848.48145,60,103,41
848.48145,848.8224,58,104,41
848.8224,849.16327,56,104,41
849.16327,849.5042,55,105,41
849.5042,849.8451,53,106,41
849.8451,850.18604,51,107,41
850.18604,850.5269,49,108,41
850.5269,850.8678,51,109,41
850.8678,851.20874,63,110,41
851.20874,851.5496,56,110,41
851.5496,851.89056,48,107,41
851.89056,852.23145,49,104,41
852.23145,852.5724,51,100,41
852.5724,852.91327,53,97,41
852.91327,853.2542,54,93,41
853.2542,853.5951,56,90,41
853.5951,853.93604,54,87,41
853.93604,854.2769,53,83,41
854.2769,854.6178,54,80,41
854.6178,854.95874,53,76,41
854.95874,855.2996,51,73,41
855.2996,855.64056,49,70,41
855.64056,855.98145,72,70,41
855.98145,856.3224,73,70,41
856.3224,856.66327,72,74,41
856.66327,857.0042,73,79,41
857.0042,857.3451,66,83,41
857.3451,857.68604,65,88,41
857.68604,858.0269,64,92,41
858.0269,858.3678,65,97,41
858.3678,858.70874,63,101,41
858.70874,859.0496,61,106,41
859.0496,859.39056,62,110,41
859.39056,859.73145,60,110,41
859.73145,860.0724,61,109,41
860.0724,860.41327,60,107,41
860.41327,860.7542,68,105,41
860.7542,861.0951,67,103,41
861.0951,861.43604,68,102,41
861.43604,861.7769,55,100,41
861.7769,862.1178,56,98,41
862.1178,862.45874,55,96,41
862.45874,862.7996,67,94,41
862.7996,863.14056,66,93,41
863.14056,863.48145,67,91,41
863.48145,863.8303,63,89,41
863.8303,864.17914,62,87,41
864.17914,864.52795,63,86,41
864.52795,864.87683,60,84,41
864.87683,865.23395,61,82,41
865.23395,865.59106,60,80,41
865.59106,865.957,55,78,41
865.957,866.3228,56,77,41
866.3228,866.6822,55,75,41
866.6978,867.0728,55,73,41
867.0728,867.4675,51,71,41
867.4675,867.8842,55,70,41
867.8842,868.9936,51,70,41
869.0092,869.3842,54,65,41
869.3842,870.1186,53,63,41
870.1342,871.2436,58,59,41
871.2592,871.6342,52,53,41
871.6342,872.3686,51,51,41
872.3842,873.4936,51,50,41
873.5092,873.8842,53,80,41
873.8842,874.6572,51,80,41
874.6737,875.9298,51,50,41
875.9482,876.38934,53,50,41
876.38934,877.48834,51,50,41
880.51434,881.0352,51,50,41
881.22864,881.7258,51,50,41
881.91046,882.40765,51,50,41
882.5923,883.0894,51,50,41
883.2741,883.77124,51,50,41
883.95593,884.45306,51,50,41
884.63776,885.1349,51,50,41
885.3196,885.8167,51,50,41
886.0014,886.49854,51,50,41
886.68317,887.18036,51,50,41
887.365,887.8622,51,50,41
888.0468,888.544,51,50,41
888.72864,889.2258,51,50,41
889.41046,889.9076,48,50,41
890.0923,890.5894,48,50,41
890.7741,891.27124,48,50,41
891.45593,891.95306,48,50,41
892.13776,892.6349,48,50,41
892.8196,893.3167,49,50,41
893.50134,893.99854,49,50,41
894.18317,894.68036,49,50,41
894.865,895.3622,49,50,41
895.5468,896.044,49,50,41
896.22864,896.7258,49,50,41
896.91046,897.4076,49,50,41
897.5923,898.0894,49,50,41
898.2741,898.77124,49,50,41
898.95593,899.45306,49,50,41
899.63776,900.1349,49,50,41
900.3196,900.8167,49,50,41
901.00134,901.669,49,50,41
901.68317,902.3508,49,54,41
902.365,902.70593,49,59,41
902.70593,903.0468,48,62,41
903.0468,903.7144,49,64,41
903.72864,904.39624,65,69,41
904.41046,904.75134,65,74,41
904.75134,905.07806,67,76,41
905.0923,905.43317,67,78,41
905.43317,905.7599,68,81,41
905.7741,906.4417,68,83,41
906.45593,907.13904,68,88,41
907.15356,907.50244,69,90,41
907.50244,907.83673,70,87,41
907.85126,908.55066,70,84,41
908.56555,909.33984,58,77,41
909.35724,910.7709,56,70,41
911.50006,912.98444,56,70,41
913.75006,915.23444,56,50,41
917.85876,919.2082,59,50,41
917.85876,919.2082,64,50,41
919.90424,921.25366,66,50,41
919.90424,921.25366,59,50,41
921.94965,923.29913,52,50,41
926.0406,927.39,60,70,41
928.08606,929.4355,61,70,41
930.1315,931.4809,51,70,41
930.1315,931.4809,60,70,41
932.17694,933.52637,51,70,41
932.17694,933.52637,61,70,41
935.58606,935.92694,63,70,41
935.92694,936.2678,64,70,41
936.2678,936.60876,60,70,41
936.60876,936.94965,56,70,41
936.94965,937.2906,60,70,41
937.2906,937.6315,53,70,41
937.6315,937.9724,56,70,41
937.9724,938.6476,58,70,41
938.6622,939.011,61,70,41
939.011,939.3681,58,70,41
939.3681,939.7253,60,70,41
939.7253,940.0911,53,70,41
940.0911,940.457,52,70,41
940.457,941.98,51,70,41
941.99646,942.4131,60,70,41
942.4131,942.88184,58,72,41
942.88184,944.7373,51,75,41
942.88184,944.7373,61,75,41
944.75684,945.5381,51,85,41
944.75684,945.5381,61,85,41
945.69434,946.4756,51,90,41
945.69434,946.4756,61,90,41
946.63184,947.4131,51,95,41
946.63184,947.4131,61,95,41
947.56934,948.3506,51,100,41
947.56934,948.3506,61,100,41
948.50684,950.0917,61,50,41
948.50684,953.21295,51,50,41
950.114,953.21295,60,50,41
1.503661,3.3656402,39,50,42
3.378661,16.49064,39,50,42
16.50366,18.36564,39,55,42
18.37866,18.99064,39,66,42
19.00366,20.86564,39,70,42
20.87866,26.49064,44,70,42
26.50366,30.24064,43,70,42
30.25366,34.2242,46,70,42
34.239826,37.976807,48,70,42
37.989826,41.726807,51,70,42
41.739826,46.726807,51,70,42
46.739826,47.392605,51,70,42
47.406494,48.725937,53,70,42
48.739826,49.4742,55,70,42
49.489826,52.65615,56,70,42
52.669174,53.28115,58,70,42
53.294174,54.53115,60,70,42
54.544174,55.15615,61,70,42
55.169174,56.40615,63,70,42
56.419174,57.03115,65,70,42
57.044174,58.28115,65,70,42
58.294174,58.90615,63,70,42
58.919174,60.15615,61,70,42
60.169174,60.78115,58,70,42
60.794174,62.03115,55,70,42
62.044174,63.32195,63,70,42
63.33584,63.988617,61,70,42
64.0025,64.73688,58,60,42
64.7525,66.10194,56,50,42
66.11614,66.72812,68,70,42
66.74114,67.97812,67,70,42
67.99114,68.60312,65,70,42
68.61614,69.85312,65,70,42
69.86614,70.47812,63,70,42
70.49114,71.72812,63,70,42
71.74114,72.35312,62,70,42
72.36614,73.91562,62,70,42
73.92864,74.03281,63,70,42
74.03281,74.13698,62,70,42
74.13698,74.24114,60,70,42
74.24114,74.89392,62,70,42
74.90781,75.560585,65,70,42
75.57448,76.30885,63,70,42
76.32448,77.80885,63,70,42
77.82448,78.47725,46,65,42
78.49114,79.810585,46,50,42
79.82447,80.47725,44,50,42
80.49114,84.311455,43,50,42
84.32447,88.061455,46,50,42
88.07447,91.811455,44,50,42
91.82447,96.811455,48,50,42
96.82447,97.436455,46,58,42
97.44947,98.686455,44,62,42
98.69947,99.311455,43,71,42
99.32447,100.561455,41,75,42
100.57447,101.186455,39,83,42
101.19947,102.436455,38,88,42
102.44947,103.061455,37,96,42
103.07447,104.365234,36,100,42
104.37882,105.01741,37,100,42
105.03099,106.380424,39,89,42
106.39463,107.129005,39,66,42
107.14463,108.629005,44,55,42
108.64463,109.29741,51,50,42
109.311295,110.63074,55,50,42
110.64463,111.29741,56,50,42
111.311295,111.47797,56,50,42
111.47797,114.50661,58,50,42
114.51963,115.13161,56,50,42
115.14463,116.38161,56,50,42
116.39463,117.00661,55,50,42
117.01963,118.25661,56,50,42
118.26963,118.88161,58,50,42
118.89463,119.05088,58,50,42
119.05088,122.00661,60,50,42
122.01963,122.63161,58,50,42
122.64463,123.88161,58,50,42
123.89463,124.50661,56,50,42
124.51963,125.75661,54,50,42
125.76963,126.38161,51,50,42
126.39463,127.63161,49,50,42
127.64463,128.2566,51,57,42
128.26962,129.5066,49,61,42
129.51962,130.1316,48,68,42
130.14462,131.3816,46,72,42
131.39462,132.0066,40,79,42
132.01962,133.2566,39,83,42
133.26962,133.8816,38,90,42
133.89462,137.20058,39,100,42
137.21478,137.94916,67,71,42
137.96478,139.37848,68,70,42
139.39336,140.04613,63,70,42
140.06003,141.37947,61,70,42
141.39336,142.04613,37,70,42
142.06003,143.37947,36,70,42
143.39336,144.00534,39,64,42
144.01836,145.25534,37,61,42
145.26836,145.88034,40,55,42
145.89336,147.13034,38,55,42
147.14336,147.79613,39,60,42
147.81003,149.22371,51,62,42
149.23859,149.938,61,68,42
149.95288,151.36656,60,70,42
152.09573,153.65823,39,50,42
154.46416,156.11346,44,40,42
156.84511,158.2588,51,70,42
158.27368,158.63081,53,70,42
158.63081,158.97308,55,70,42
158.98796,160.3074,55,70,42
160.32129,162.18327,56,70,42
162.19629,162.50879,58,70,42
162.50879,162.80827,60,70,42
162.82129,164.05827,60,70,42
164.07129,164.38379,61,70,42
164.38379,164.68327,63,70,42
164.69629,165.30827,63,70,42
165.32129,166.24577,66,70,42
166.25879,166.55827,65,70,42
166.57129,167.18327,65,70,42
167.19629,167.80827,63,70,42
167.82129,169.05827,61,70,42
169.07129,169.68327,58,70,42
169.69629,170.00879,60,70,42
170.00879,170.30827,62,70,42
170.32129,171.55827,62,70,42
171.57129,172.18327,63,70,42
172.19629,172.80827,67,70,42
172.82129,173.43327,63,70,42
173.44629,173.75879,65,70,42
173.75879,174.05827,67,70,42
174.07129,174.68327,64,70,42
174.69629,175.30827,65,70,42
175.32129,175.63379,67,70,42
175.63379,175.94629,68,70,42
175.94629,176.55827,53,70,42
177.19629,177.50879,55,70,42
177.50879,177.82129,56,70,42
177.82129,178.27702,55,70,42
179.07129,179.38379,56,70,42
179.38379,179.69629,58,70,42
179.69629,180.15202,56,70,42
181.01178,181.36891,58,70,42
181.36891,181.71118,60,70,42
181.72606,182.37883,63,60,42
182.39273,183.0455,60,66,42
183.05939,183.67137,56,72,42
183.68439,184.33717,51,78,42
184.35106,185.05046,48,84,42
185.06534,185.83836,44,90,42
185.85481,186.5076,44,80,42
186.52148,187.17426,43,70,42
187.18816,187.52148,41,70,42
187.52148,187.84093,39,70,42
187.85481,189.17426,39,70,42
189.18816,189.52148,41,70,42
189.52148,189.84093,43,70,42
189.85481,191.17426,51,70,42
191.18816,191.5076,53,70,42
191.52148,191.84093,55,70,42
191.85481,193.17426,55,70,42
193.18814,193.84093,56,70,42
197.39702,198.17004,41,70,42
198.1865,199.53592,41,70,42
199.55013,199.86263,43,70,42
199.87622,200.18872,44,70,42
200.2023,200.8409,45,70,42
200.85448,202.14523,46,70,42
204.23674,205.68541,46,70,42
205.70103,206.07932,44,70,42
204.23674,206.47406,36,70,42
206.09576,206.47406,43,70,42
206.49051,207.83994,39,70,42
207.85414,208.16664,41,70,42
208.18022,209.79707,41,70,42
209.81067,210.12317,44,70,42
210.13675,211.7536,44,70,42
211.76718,212.07968,45,70,42
212.09326,213.71011,45,70,42
213.72371,214.03621,46,70,42
214.04979,218.27533,39,70,42
214.04979,218.27533,48,70,42
218.28891,219.57968,39,70,42
218.28891,219.57968,46,70,42
219.59326,220.23186,39,70,42
220.24544,221.56523,39,70,42
221.57942,221.83241,43,94,42
221.93657,222.2022,44,100,42
222.31157,223.60536,45,100,42
223.6184,225.48036,46,80,42
225.4934,225.79286,44,70,42
225.8059,226.10536,43,70,42
226.1184,227.35536,41,70,42
227.3684,227.98036,39,70,42
227.9934,228.91786,39,70,42
228.9309,229.23036,39,88,42
229.2434,229.54286,44,94,42
229.5559,229.85536,46,100,42
229.8684,231.10536,47,100,42
231.1184,231.73036,48,80,42
234.8684,236.99637,56,86,42
237.01125,237.3684,58,70,42
237.3684,237.74667,60,70,42
237.76312,238.43074,60,70,42
238.44495,239.45346,61,73,42
239.46767,239.79437,63,78,42
239.80858,240.4762,63,80,42
240.4904,241.49892,65,84,42
241.51312,241.83983,67,89,42
241.85403,242.52165,67,91,42
242.53586,243.54437,68,94,42
243.55858,243.88528,68,100,42
243.89949,244.56711,68,102,42
244.5813,245.58983,70,105,42
245.60403,245.93074,71,110,42
245.94495,246.61255,71,110,42
246.62675,247.29437,72,103,42
247.30858,247.64949,68,95,42
247.64949,247.9762,65,91,42
247.9904,248.658,63,87,42
248.67221,249.71341,61,79,42
249.72903,250.08841,58,70,42
250.10403,250.92,58,70,42
250.93736,251.67174,56,70,42
251.68736,252.02827,44,70,42
252.02827,252.35498,45,70,42
252.36919,253.0368,45,70,42
253.051,253.71861,46,82,42
253.73282,254.07373,43,94,42
254.07373,254.40044,41,100,42
254.41464,255.08224,41,110,42
255.09645,255.76407,39,97,42
255.77827,256.11917,39,84,42
256.11917,256.4459,49,77,42
256.46008,257.8095,49,71,42
257.82373,258.16464,48,70,42
258.16464,258.50555,46,70,42
258.50555,259.85498,44,70,42
259.86917,260.5368,43,70,42
260.551,261.90042,67,70,42
261.91464,262.25555,65,80,42
262.25555,262.58224,63,90,42
262.59647,263.9459,63,100,42
263.96008,264.62772,51,71,42
264.6419,265.99133,51,70,42
266.00555,266.34647,49,70,42
266.34647,266.67316,48,70,42
266.68735,268.0368,46,70,42
268.051,268.7504,44,70,42
268.7653,269.4647,42,70,42
269.47955,270.21393,54,70,42
270.22955,270.63498,53,70,42
270.63498,271.05777,51,70,42
271.07614,271.81052,51,70,42
271.82614,272.8347,49,73,42
272.84888,273.17557,48,78,42
273.1898,273.8574,60,80,42
273.8716,274.88013,58,84,42
274.89432,275.22104,52,89,42
275.23523,275.90286,52,91,42
275.91705,276.93317,51,94,42
276.94772,277.282,39,100,42
277.29654,277.97968,39,102,42
277.99423,279.06787,37,105,42
279.0835,279.44287,37,110,42
279.4585,280.19287,37,110,42
280.2085,280.94287,36,101,42
280.9585,282.30795,37,91,42
282.32214,283.33066,39,71,42
283.34488,284.3534,39,70,42
284.36758,285.37613,51,70,42
285.39032,285.71704,51,70,42
285.73123,286.73975,51,70,42
286.75397,287.08066,51,70,42
287.09488,287.4358,51,70,42
287.4358,287.76248,49,70,42
287.7767,289.12613,48,70,42
289.14032,289.48123,51,66,42
289.48123,289.82214,48,65,42
289.82214,291.1871,49,64,42
291.20163,291.55048,52,59,42
291.55048,291.89932,49,58,42
291.89932,293.28012,51,57,42
293.29465,293.6518,56,52,42
293.6518,295.4375,51,51,42
295.4375,295.8125,63,63,42
295.8125,296.1875,64,67,42
296.1875,296.92188,65,70,42
298.1042,298.52084,65,50,42
298.52084,299.33682,67,50,42
301.39963,301.8163,67,50,42
301.8163,302.59235,68,50,42
302.98297,303.15485,51,70,42
303.73297,303.90485,51,70,42
304.48297,304.65485,51,70,42
305.23297,305.48297,51,70,42
305.98297,306.23297,44,70,42
305.98297,306.23297,51,70,42
306.73297,306.98297,44,70,42
306.73297,306.98297,51,70,42
307.48297,307.73297,44,70,42
307.48297,307.73297,51,70,42
308.23297,308.48297,44,70,42
308.23297,308.48297,51,70,42
308.98297,309.23297,44,70,42
308.98297,309.23297,51,70,42
309.73297,309.98297,44,70,42
309.73297,309.98297,51,70,42
310.48297,310.73297,44,70,42
310.48297,310.73297,51,70,42
311.23297,311.48297,46,70,42
311.23297,311.48297,51,70,42
311.98297,312.23297,46,70,42
311.98297,312.23297,51,70,42
312.73297,312.98297,46,70,42
312.73297,312.98297,51,70,42
313.48297,313.73297,46,70,42
313.48297,313.73297,51,70,42
314.23297,314.48297,46,70,42
314.23297,314.48297,51,70,42
314.98297,315.23297,46,70,42
314.98297,315.23297,51,70,42
315.73297,315.98297,46,70,42
315.73297,315.98297,51,70,42
316.48297,316.73297,47,70,42
316.48297,316.73297,51,70,42
317.23297,317.48297,48,70,42
317.98297,318.23297,48,70,42
318.73297,318.98297,49,70,42
319.48297,319.73297,56,70,42
320.23297,320.48297,53,70,42
320.98297,321.23297,55,70,42
321.73297,321.98297,56,70,42
322.48297,322.73297,58,70,42
323.23297,323.48297,60,70,42
323.98297,324.23297,51,77,42
323.98297,324.23297,60,77,42
324.73297,324.98297,51,85,42
324.73297,324.98297,60,85,42
325.48297,325.73297,51,93,42
325.48297,325.73297,60,93,42
326.23297,326.48297,51,100,42
326.23297,326.48297,58,100,42
326.60797,326.85797,58,100,42
326.98297,327.23297,51,94,42
327.35797,327.60797,61,88,42
327.73297,327.99612,51,82,42
328.12772,328.39087,61,75,42
328.52243,328.80023,51,69,42
328.93912,329.23322,61,63,42
329.38028,329.65805,51,50,42
329.79694,330.04694,60,50,42
330.17194,330.42194,44,50,42
330.54694,330.79694,51,50,42
330.92194,331.17194,44,50,42
331.29694,331.54694,51,50,42
331.67194,331.92194,44,50,42
332.04694,332.29694,51,50,42
332.42194,332.67194,44,50,42
332.79694,333.04694,51,50,42
333.17194,333.42194,44,50,42
333.54694,333.79694,51,50,42
333.92194,334.17194,44,50,42
334.29694,334.54694,51,50,42
334.67194,334.92194,47,50,42
335.04694,335.29694,51,50,42
335.42194,335.67194,46,50,42
335.79694,336.04694,51,50,42
336.17194,336.42194,46,50,42
336.54694,336.79694,51,50,42
336.92194,337.17194,49,50,42
337.29694,337.54694,51,50,42
337.67194,337.92194,46,50,42
338.04694,338.29694,51,50,42
338.42194,338.67194,46,50,42
338.79694,339.04694,51,50,42
339.17194,339.42194,48,50,42
339.54694,339.79694,51,50,42
339.92194,340.17194,49,50,42
340.29694,340.54694,51,50,42
340.67194,340.92194,43,50,42
341.04694,341.29694,51,50,42
341.42194,341.67194,44,50,42
341.79694,342.04694,48,54,42
342.17194,342.42194,40,58,42
342.54694,342.79694,48,62,42
342.92194,343.17194,41,66,42
343.29694,343.54694,48,70,42
343.67194,343.92194,45,70,42
344.04694,344.29694,53,70,42
344.42194,344.67194,46,70,42
344.79694,345.04694,55,70,42
345.17194,345.42194,46,70,42
345.54694,345.79694,55,70,42
345.92194,346.17194,46,70,42
346.29694,346.54694,55,70,42
346.67194,346.92194,46,70,42
347.04694,347.29694,56,70,42
347.42194,347.67194,47,70,42
347.79694,348.04694,56,70,42
348.17194,348.42194,46,70,42
348.54694,348.79694,56,70,42
348.92194,349.17194,47,70,42
349.29694,349.54694,56,70,42
349.67194,349.92194,46,70,42
350.04694,350.29694,56,70,42
350.42194,350.67194,51,70,42
350.79694,351.04694,55,70,42
351.17194,351.42194,51,70,42
351.54694,351.79694,56,70,42
351.92194,352.17194,51,70,42
352.29694,352.54694,58,70,42
352.67194,352.92194,51,70,42
353.04694,353.29694,60,70,42
353.42194,353.67194,51,60,42
353.79694,354.04694,61,61,42
354.17194,354.42194,51,62,42
354.54694,354.79694,61,63,42
354.92194,355.17194,51,65,42
355.29694,355.54694,61,66,42
355.67194,355.92194,51,67,42
356.04694,356.29694,61,69,42
356.42194,356.7813,51,70,42
357.17194,357.54694,63,72,42
357.54694,357.73444,61,74,42
357.73444,357.92194,58,74,42
357.92194,358.18512,51,75,42
359.964,360.73703,56,82,42
360.75348,360.95084,56,84,42
360.95084,361.14822,58,85,42
361.14822,361.42783,60,85,42
361.54294,362.31598,63,87,42
362.33243,362.5298,63,89,42
362.5298,362.72717,65,90,42
362.72717,363.08655,66,91,42
363.85217,364.41467,56,95,42
364.41467,364.60217,51,97,42
364.60217,364.78967,48,97,42
364.78967,364.96155,44,98,42
364.97717,365.35217,44,98,42
365.35217,365.53967,42,100,42
365.53967,365.72717,39,100,42
365.72717,366.08655,37,110,42
366.10217,366.83655,37,110,42
366.85217,367.03967,37,110,42
367.03967,367.22717,39,110,42
367.22717,367.4928,40,110,42
367.60217,368.33655,49,125,42
368.35217,368.53967,49,110,42
368.53967,368.72717,51,110,42
368.72717,368.9928,52,110,42
369.47717,369.7428,64,70,42
370.22717,370.4928,62,70,42
370.97717,371.2428,62,70,42
371.72717,371.9928,63,70,42
372.47717,372.7428,63,70,42
373.22717,373.4928,63,70,42
373.97717,374.2428,63,70,42
374.72717,375.10217,63,70,42
375.10217,375.28967,60,70,42
375.28967,375.47717,56,70,42
375.47717,375.83655,51,70,42
376.22717,376.60217,63,70,42
376.60217,376.78967,58,70,42
376.78967,376.97717,55,70,42
376.97717,377.35217,53,70,42
377.35217,377.52405,51,70,42
377.53967,377.72717,51,70,42
377.72717,378.10217,54,70,42
378.10217,378.28967,51,70,42
378.28967,378.47717,48,70,42
378.47717,379.02405,42,70,42
379.22717,379.60217,53,70,42
379.60217,379.78967,49,70,42
379.78967,379.97717,44,70,42
379.97717,380.52405,41,70,42
380.72717,381.10217,51,70,42
381.10217,381.28967,48,70,42
381.28967,381.47717,44,70,42
381.47717,382.02405,39,70,42
382.22717,382.60217,51,70,42
382.60217,382.78967,49,70,42
382.78967,382.97717,44,70,42
382.97717,383.52405,39,70,42
383.72717,384.10217,51,70,42
384.10217,384.28967,48,70,42
384.28967,384.47717,44,70,42
384.47717,385.02405,39,70,42
385.22717,385.60217,51,70,42
385.60217,385.78967,49,70,42
385.78967,385.97717,46,70,42
385.97717,386.52405,39,70,42
386.72717,386.97717,39,70,42
387.10217,387.35217,60,70,42
387.47717,387.72717,51,70,42
387.85217,388.10217,60,78,42
388.22717,388.47717,49,86,42
388.60217,388.85217,58,94,42
388.97717,389.22717,48,102,42
389.35217,389.60217,56,110,42
389.72717,389.97717,43,70,42
390.10217,390.35217,51,70,42
390.47717,390.72717,46,70,42
390.85217,391.10217,55,70,42
391.22717,391.47717,46,70,42
391.60217,391.85217,55,70,42
391.97717,392.22717,49,70,42
392.35217,392.60217,58,70,42
392.72717,392.97717,49,70,42
393.10217,393.35217,58,70,42
393.47717,393.72717,49,70,42
393.85217,394.10217,58,70,42
394.22717,394.47717,48,70,42
394.60217,394.85217,56,70,42
394.97717,395.22717,46,70,42
395.35217,395.60217,55,70,42
395.72717,395.97717,44,70,42
396.10217,396.35217,56,70,42
396.47717,396.72717,51,70,42
396.85217,397.10217,60,70,42
397.22717,397.47717,44,70,42
397.60217,397.85217,56,70,42
397.97717,398.22717,51,70,42
398.35217,398.60217,60,70,42
398.72717,398.97717,42,70,42
399.10217,399.35217,56,70,42
399.47717,399.72717,44,70,42
399.85217,400.10217,56,70,42
400.22717,400.47717,42,70,42
400.60217,400.85217,56,70,42
400.97717,401.22717,54,70,42
401.35217,401.60217,63,70,42
401.72717,401.97717,40,70,42
402.10217,402.35217,56,73,42
402.47717,402.72717,52,76,42
402.85217,403.10217,61,79,42
403.22717,403.47717,40,82,42
403.60217,403.85217,56,85,42
403.97717,404.22717,52,88,42
404.35217,404.60217,61,92,42
404.72717,404.97717,37,95,42
405.10217,405.35217,56,98,42
405.47717,405.72717,49,101,42
405.85217,406.10217,56,104,42
406.22717,406.47717,49,107,42
406.60217,406.85217,58,110,42
406.97717,407.24033,50,110,42
407.3719,407.65375,56,110,42
407.8008,408.09494,51,70,42
408.242,408.492,60,70,42
408.617,408.867,51,70,42
408.992,409.242,60,70,42
409.367,409.617,51,70,42
409.742,409.992,61,70,42
410.117,410.367,51,70,42
410.492,410.742,61,70,42
410.867,411.117,51,70,42
411.242,411.492,60,70,42
411.617,411.867,51,70,42
411.992,412.242,57,70,42
412.367,412.617,51,70,42
412.742,412.992,58,70,42
413.117,413.367,51,70,42
413.492,413.742,61,70,42
413.867,414.117,51,70,42
414.242,414.492,60,68,42
414.617,414.867,54,65,42
414.992,415.242,63,63,42
415.367,415.617,53,60,42
415.742,415.992,61,57,42
416.117,416.367,52,55,42
416.492,416.742,61,52,42
416.867,417.117,51,50,42
417.242,417.492,61,52,42
417.617,417.867,51,58,42
417.992,418.242,60,64,42
418.367,418.617,49,69,42
418.742,418.992,60,75,42
419.117,419.367,49,80,42
419.492,419.742,58,86,42
419.867,420.117,48,90,42
420.242,420.492,58,89,42
420.617,420.867,48,87,42
420.992,421.242,56,85,42
421.367,421.617,49,83,42
421.742,421.992,56,81,42
422.117,422.367,49,79,42
422.492,422.742,55,77,42
422.867,423.13016,48,75,42
423.26172,423.5249,56,73,42
423.65646,423.93423,36,71,42
424.07312,424.35092,48,70,42
424.4898,425.35376,37,70,42
425.37216,431.69485,40,70,42
431.70905,434.42212,39,110,42
434.4363,437.14938,45,90,42
437.1636,438.51303,44,70,42
438.52722,439.87665,45,83,42
439.89087,440.89938,47,97,42
441.25452,442.3639,49,110,42
442.75452,444.10394,47,70,42
444.11813,445.46756,46,70,42
445.48178,446.14938,47,70,42
446.1636,446.8312,47,70,42
446.8454,447.57977,63,70,42
447.5954,448.41138,63,70,42
448.42874,451.1418,64,70,42
451.156,452.50543,67,93,42
452.51965,453.90088,73,105,42
453.91574,455.3644,73,110,42
455.38004,457.73602,71,80,42
457.75165,458.41928,71,70,42
458.43347,459.1011,73,70,42
459.1153,459.7829,75,70,42
459.79712,461.14655,76,70,42
461.16074,462.5102,40,80,42
462.52438,463.8738,39,90,42
463.88803,465.45398,37,100,42
461.16074,469.3268,47,80,42
465.47134,469.3268,36,80,42
469.34418,470.99347,39,80,42
469.34418,470.99347,47,80,42
471.01083,471.8268,39,100,42
471.01083,471.8268,47,100,42
471.84415,474.55722,39,70,42
474.57144,477.28452,42,70,42
477.2987,480.01178,41,70,42
480.02597,482.05722,44,70,42
482.07144,482.73904,41,70,42
482.75323,484.1027,42,70,42
484.11688,485.4663,47,100,42
485.48053,490.62616,36,100,42
485.48053,490.62616,48,100,42
490.64178,492.12616,39,91,42
492.14178,492.87616,40,70,42
492.89178,493.62616,64,70,42
493.64178,494.37616,64,70,42
494.39178,496.62616,66,70,42
496.64178,497.37616,64,70,42
497.39178,498.87616,63,70,42
498.89178,499.5912,64,70,42
499.60605,500.42203,66,70,42
500.4394,502.47064,68,70,42
502.48486,503.15247,66,70,42
503.16666,504.51608,65,70,42
504.5303,505.2297,66,70,42
505.2446,506.06055,68,70,42
506.0779,507.42734,69,70,42
507.44156,510.15463,75,110,42
510.16882,510.88528,76,110,42
510.90054,511.71652,78,110,42
511.73386,513.8618,76,110,42
513.8767,515.2904,71,97,42
515.3053,516.0047,59,70,42
516.0196,516.719,36,70,42
516.7339,517.4333,39,70,42
517.4482,518.8618,50,69,42
518.8767,519.5761,49,66,42
519.591,520.2904,48,64,42
520.3053,521.719,47,63,42
517.4482,523.2569,40,69,42
521.7339,523.2569,46,60,42
523.2733,524.0464,45,57,42
524.0628,524.8358,43,55,42
524.8523,527.2043,45,54,42
523.2733,527.9937,40,57,42
528.7997,529.4247,40,50,42
529.5891,530.1546,40,50,42
530.3034,530.8689,40,50,42
531.0177,531.5832,40,50,42
531.732,532.2975,40,50,42
532.4463,533.1457,40,50,42
533.1606,533.86,39,50,42
533.8748,533.9641,39,50,42
533.9641,534.0534,41,50,42
534.0534,534.1427,39,50,42
534.1427,534.232,41,50,42
534.232,534.351,39,50,42
534.351,534.4701,38,50,42
534.4701,534.5891,39,50,42
534.5891,535.11,44,50,42
535.3034,535.8242,48,50,42
536.0177,536.5385,51,50,42
536.732,537.2528,55,50,42
537.4463,537.9671,56,50,42
538.1606,538.6814,60,50,42
538.8748,539.3957,63,50,42
539.5891,540.11,67,50,42
540.3034,540.8242,68,50,42
541.0177,541.5385,70,50,42
541.732,542.2528,39,50,42
542.4463,542.5355,39,50,42
542.5355,542.6248,41,50,42
542.6248,542.7141,39,50,42
542.7141,542.8034,41,50,42
542.8034,542.9225,39,50,42
542.9225,543.0415,38,50,42
543.0415,543.1605,39,50,42
543.1605,543.6814,43,50,42
543.8748,544.3957,46,50,42
544.5891,545.11,49,50,42
545.3034,545.8242,51,50,42
546.0177,546.5385,55,50,42
546.732,547.2528,58,50,42
547.4463,547.9671,63,50,42
548.1605,548.6814,65,50,42
548.8748,549.3957,67,50,42
549.5891,550.1099,66,50,42
550.3034,550.8242,36,52,42
551.0177,551.1963,37,55,42
551.1963,551.3748,36,56,42
551.3748,551.5534,37,57,42
551.5534,551.732,36,57,42
551.732,552.2528,39,58,42
552.4463,552.9671,42,61,42
553.1605,553.6814,45,64,42
553.8748,554.3957,65,66,42
554.5891,555.1099,37,69,42
555.3034,555.3927,37,72,42
555.3927,555.482,39,72,42
555.482,555.5713,37,73,42
555.5713,555.6605,39,73,42
555.6605,555.7796,37,73,42
555.7796,555.8986,36,74,42
555.8986,556.0177,37,74,42
556.0177,556.5385,41,75,42
556.732,557.2528,46,78,42
557.4463,557.9671,49,80,42
558.1605,558.6814,63,70,42
558.8748,559.3957,39,70,42
559.5891,559.6784,39,70,42
559.6784,559.7677,41,70,42
559.7677,559.857,39,70,42
559.857,559.9463,41,70,42
559.9463,560.0653,39,70,42
560.0653,560.1843,38,70,42
560.1843,560.3034,39,70,42
560.3034,560.8242,44,70,42
561.0177,561.5385,47,85,42
561.732,562.2528,50,100,42
562.4463,562.9671,51,70,42
563.1605,563.6814,55,70,42
563.8748,564.3957,56,70,42
564.5891,565.1099,63,70,42
565.3034,565.8242,65,70,42
566.0177,566.5385,67,70,42
566.732,570.6457,56,70,42
570.6605,571.0177,58,70,42
571.0177,572.8034,60,70,42
572.8034,573.1605,61,70,42
573.1605,575.0415,63,70,42
575.0415,575.4408,65,70,42
575.4582,577.2439,65,70,42
577.2439,577.601,63,70,42
577.601,579.3867,61,70,42
579.3867,579.7439,58,70,42
579.7439,581.5296,55,70,42
581.5296,581.8867,63,70,42
581.8867,583.7677,61,70,42
583.7677,584.1843,58,70,42
584.1843,585.9701,56,70,42
585.9701,586.3272,68,77,42
586.3272,588.03174,67,78,42
588.03174,588.35846,65,85,42
588.3727,590.0772,65,86,42
590.0772,590.4181,63,93,42
590.4181,592.1227,65,95,42
592.1227,592.44934,61,93,42
592.46356,594.1681,62,85,42
594.1681,594.50903,65,70,42
594.50903,595.17664,65,70,42
595.19086,596.19934,68,70,42
596.21356,596.3698,61,70,42
596.5545,597.2221,65,70,42
597.23627,597.90393,63,70,42
597.9181,598.25903,61,72,42
598.25903,598.58575,60,73,42
598.5999,599.2675,60,74,42
599.28174,599.94934,58,77,42
599.96356,600.63116,56,79,42
600.6454,601.313,55,82,42
601.3272,601.9948,39,84,42
602.00903,602.09424,39,86,42
602.09424,602.1795,41,87,42
602.1795,602.2647,39,87,42
602.2647,602.3499,41,87,42
602.3499,602.46356,39,88,42
602.46356,602.5772,38,88,42
602.5772,602.69086,39,88,42
602.69086,603.188,43,89,42
603.3727,603.8698,46,91,42
604.05444,604.55164,49,94,42
604.73627,605.23346,51,96,42
605.4181,605.9153,55,98,42
606.0999,606.5971,58,101,42
606.78174,607.27893,63,103,42
607.46356,607.9607,65,106,42
608.1454,608.6425,67,108,42
608.8272,609.4948,57,110,42
609.50903,610.17664,41,110,42
610.19086,610.27606,41,110,42
610.27606,610.36127,43,110,42
610.36127,610.44653,41,110,42
610.44653,610.53174,43,110,42
610.53174,610.6454,41,110,42
610.6454,610.75903,40,110,42
610.75903,610.8727,41,110,42
610.8727,611.3698,41,110,42
611.55444,612.05164,45,110,42
612.23627,612.73346,48,110,42
612.9181,613.4153,53,110,42
613.5999,614.0971,60,110,42
614.28174,614.77893,65,110,42
614.96356,615.4607,65,110,42
615.6454,616.1425,67,110,42
616.3272,616.82434,69,110,42
617.00903,617.67664,68,110,42
617.69086,618.35846,46,110,42
618.3727,618.4579,46,110,42
618.4579,618.5431,48,110,42
618.5431,618.62836,46,110,42
618.62836,618.71356,48,110,42
618.71356,618.8272,46,110,42
618.8272,618.94086,45,110,42
618.94086,619.05444,46,110,42
619.05444,619.55164,53,110,42
619.73627,620.23346,56,110,42
620.4181,620.9153,58,110,42
621.0999,621.5971,62,110,42
621.78174,622.27893,63,110,42
622.46356,622.9607,65,110,42
623.1454,623.6425,65,110,42
623.8272,624.32434,67,97,42
624.50903,625.00616,68,83,42
625.19086,625.85846,68,70,42
625.8726,626.5403,51,70,42
626.55444,626.6397,51,70,42
626.6397,626.7249,53,70,42
626.7249,626.8101,51,70,42
626.8101,626.8954,53,70,42
626.8954,627.00903,51,70,42
627.00903,627.1226,50,70,42
627.1226,627.23627,51,70,42
627.23627,627.9039,51,70,42
627.9181,628.5857,39,70,42
628.5999,628.6851,39,70,42
628.6851,628.7704,41,70,42
628.7704,628.8556,39,70,42
628.8556,628.94086,41,70,42
628.94086,629.05444,39,70,42
629.05444,629.1681,38,70,42
629.1681,629.28174,39,70,42
629.28174,629.94934,39,70,42
629.96356,630.63116,55,70,42
630.6454,631.313,56,72,42
631.3272,631.9948,57,74,42
632.00903,632.67664,58,77,42
632.69086,633.35846,60,79,42
633.3726,634.0403,57,82,42
634.05444,637.1226,58,84,42
637.1226,637.44934,56,95,42
637.46356,639.1681,56,96,42
639.1681,639.50903,55,102,42
639.50903,641.29987,56,103,42
641.29987,641.6946,58,109,42
641.6946,643.044,58,110,42
643.0582,645.4446,60,110,42
645.4446,645.7713,58,110,42
645.7855,647.49005,58,110,42
647.49005,647.83093,57,110,42
647.83093,649.62177,58,110,42
649.62177,650.01654,60,110,42
650.01654,653.76654,62,110,42
653.76654,654.1074,63,110,42
654.1074,655.81195,65,110,42
655.81195,656.1529,67,110,42
656.1529,657.8574,68,110,42
657.8574,658.18414,70,110,42
658.19836,658.53925,70,110,42
658.53925,659.8887,68,107,42
659.9029,660.2438,63,93,42
660.2438,661.94836,61,90,42
661.94836,662.28925,58,73,42
662.28925,663.9938,56,92,42
663.9938,664.3347,57,82,42
664.3347,666.03925,58,110,42
666.03925,666.3802,63,108,42
666.3802,668.0847,63,110,42
668.0847,668.4256,56,102,42
668.4256,670.1301,61,100,42
670.1301,670.47107,56,92,42
670.47107,672.1756,60,90,42
672.1756,672.51654,56,82,42
672.51654,674.2876,51,80,42
674.2876,674.6626,55,72,42
674.6626,676.2251,56,70,42
677.03107,678.68036,58,70,42
679.53107,681.01544,56,70,42
684.03107,685.51544,65,50,42
686.28107,687.8865,66,50,42
688.7372,690.40906,65,50,42
725.3305,726.12445,36,50,42
726.14136,731.58167,37,50,42
731.5959,732.2635,49,50,42
732.2777,733.62714,47,53,42
733.6413,734.30896,51,60,42
734.3231,735.67255,54,63,42
735.68677,736.3544,45,70,42
736.3686,737.718,44,73,42
737.73224,738.39984,47,80,42
738.41406,739.7635,51,83,42
739.7777,740.4453,42,90,42
740.45953,741.80896,40,94,42
741.8231,742.4908,49,100,42
742.50494,743.8544,39,70,42
743.8686,744.5362,49,70,42
744.5504,745.89984,39,70,42
745.91406,746.58167,48,70,42
746.5959,759.13586,37,70,42
759.1532,761.2812,42,70,42
761.2961,765.1138,44,70,42
765.1294,765.8638,43,70,42
765.8794,767.3288,44,70,42
767.3437,768.0431,48,70,42
768.058,776.39594,49,70,42
776.4124,779.8722,45,70,42
779.8864,780.554,44,80,42
780.56824,781.98193,42,83,42
781.9968,782.6962,40,90,42
782.7111,784.1955,38,94,42
784.2111,785.02704,37,100,42
785.04443,793.8042,39,70,42
793.8184,794.486,55,70,42
794.5002,795.16785,56,73,42
795.182,795.8497,51,76,42
795.86383,796.53143,50,79,42
796.54565,797.21326,49,82,42
797.2275,797.8951,46,85,42
797.9093,798.5769,43,88,42
798.5911,799.2587,41,91,42
799.27295,800.65375,39,94,42
800.6683,801.35144,51,100,42
801.36597,802.1014,63,85,42
803.48145,805.5127,44,70,42
805.5269,807.55817,44,70,42
807.5724,809.60364,44,70,42
809.61786,810.28546,44,70,42
810.2997,811.6491,46,70,42
811.66327,813.6945,46,70,42
813.70874,815.74,46,70,42
815.7542,817.78546,46,70,42
817.7997,818.4673,46,70,42
818.48145,819.83093,48,70,42
819.8451,820.5127,48,70,42
820.5269,821.87634,49,70,42
821.89056,822.55817,49,70,42
822.5724,823.9218,51,70,42
823.93604,824.60364,51,70,42
824.61786,825.9673,51,70,42
825.98145,828.0127,51,70,42
828.0269,830.05817,51,82,42
830.0724,832.10364,51,100,42
832.11786,833.12634,51,70,42
833.14056,833.48145,53,70,42
833.48145,833.8224,55,70,42
833.8224,834.16327,56,70,42
834.16327,834.5042,58,70,42
834.5042,834.8451,56,70,42
834.8451,835.18604,55,70,42
835.18604,835.5269,53,70,42
835.5269,835.86786,51,71,42
835.86786,836.20874,53,72,42
836.20874,836.5496,55,73,42
836.5496,836.89056,56,74,42
836.89056,837.23145,58,75,42
837.23145,837.5724,56,75,42
837.5724,837.91327,55,76,42
837.91327,838.2542,56,77,42
838.2542,838.5951,58,78,42
838.5951,838.93604,60,79,42
838.93604,839.2769,61,80,42
839.2769,839.61786,60,81,42
839.61786,839.95874,58,81,42
839.95874,840.2996,56,82,42
840.2996,840.64056,55,83,42
840.64056,840.98145,53,84,42
840.98145,841.3224,51,85,42
841.3224,841.66327,49,86,42
841.66327,842.0042,48,87,42
842.0042,842.3451,46,87,42
842.3451,842.68604,44,88,42
842.68604,843.0269,43,89,42
843.0269,843.36786,44,90,42
843.36786,843.70874,58,91,42
843.70874,844.0496,56,92,42
844.0496,844.39056,58,93,42
844.39056,844.73145,60,93,42
844.73145,845.0724,58,94,42
845.0724,845.41327,56,95,42
845.41327,845.7542,46,96,42
845.7542,846.0951,48,97,42
846.0951,846.43604,49,98,42
846.43604,846.7769,51,99,42
846.7769,847.1178,55,99,42
847.1178,847.45874,56,100,42
847.45874,847.7996,60,101,42
847.7996,848.14056,58,102,42
848.14056,848.48145,56,103,42
848.48145,848.8224,55,104,42
848.8224,849.16327,53,104,42
849.16327,849.5042,51,105,42
849.5042,849.8451,49,106,42
849.8451,850.18604,48,107,42
850.18604,850.5269,46,108,42
850.5269,850.8678,44,109,42
850.8678,851.20874,43,110,42
851.20874,851.5496,41,110,42
851.5496,851.89056,42,107,42
851.89056,852.23145,41,104,42
852.23145,852.5724,39,100,42
852.5724,852.91327,37,97,42
852.91327,853.2542,39,93,42
853.2542,853.5951,41,90,42
853.5951,853.93604,63,87,42
853.93604,854.2769,61,83,42
854.2769,854.6178,63,80,42
854.6178,854.95874,61,76,42
854.95874,855.2996,60,73,42
855.2996,855.64056,61,70,42
855.64056,855.98145,66,70,42
855.98145,856.3224,65,70,42
856.3224,856.66327,66,74,42
856.66327,857.0042,65,79,42
857.0042,857.3451,63,83,42
857.3451,857.68604,61,88,42
857.68604,858.0269,49,92,42
858.0269,858.3678,49,97,42
858.3678,858.70874,51,101,42
858.70874,859.0496,53,106,42
859.0496,859.39056,52,110,42
859.39056,859.73145,51,110,42
859.73145,860.0724,53,109,42
860.0724,860.41327,51,107,42
860.41327,860.7542,60,105,42
860.7542,861.0951,59,103,42
861.0951,861.43604,60,102,42
861.43604,861.7769,51,100,42
861.7769,862.1178,53,98,42
862.1178,862.45874,51,96,42
862.45874,862.7996,61,94,42
862.7996,863.14056,60,93,42
863.14056,863.48145,61,91,42
863.48145,863.8303,60,89,42
863.8303,864.17914,59,87,42
864.17914,864.52795,60,86,42
864.52795,864.87683,56,84,42
864.87683,865.23395,55,82,42
865.23395,865.59106,56,80,42
865.59106,865.957,51,78,42
865.957,866.3228,53,77,42
866.3228,866.6978,51,75,42
866.6978,867.0728,49,73,42
867.0728,867.4675,48,71,42
867.4675,867.8842,49,70,42
867.8842,869.7592,48,70,42
869.7592,870.1342,41,61,42
870.1342,872.0092,46,59,42
872.0092,872.3842,39,50,42
872.3842,874.27893,44,50,42
874.27893,874.6737,39,65,42
874.6737,876.88934,49,50,42
876.88934,877.51434,39,50,42
931.4951,931.83606,63,70,42
931.83606,932.1627,64,70,42
932.17694,932.5178,64,70,42
932.5178,932.85876,65,70,42
932.85876,933.19965,60,70,42
933.19965,933.5406,61,70,42
933.5406,933.8815,53,70,42
933.8815,934.2224,55,70,42
934.2224,934.5633,58,70,42
934.5633,934.90424,55,70,42
934.90424,935.2451,58,70,42
935.2451,935.58606,56,70,42
935.58606,935.92694,51,70,42
935.92694,936.2678,52,70,42
936.2678,936.60876,52,70,42
936.60876,936.94965,53,70,42
936.94965,937.2906,48,70,42
937.2906,937.6315,49,70,42
937.6315,937.9724,41,70,42
937.9724,938.3133,43,70,42
938.3133,938.6622,46,70,42
938.6622,939.011,43,70,42
939.011,939.3681,46,70,42
939.3681,939.7253,44,70,42
939.7253,940.0911,41,70,42
940.0911,940.457,43,70,42
940.457,940.832,46,70,42
940.832,941.207,43,70,42
941.207,941.6017,46,70,42
941.6017,941.99646,44,70,42
941.99646,942.4131,41,70,42
942.4131,942.88184,43,72,42
942.88184,944.7373,46,75,42
944.75684,945.5381,46,85,42
945.69434,946.4756,46,90,42
946.63184,947.4131,46,95,42
947.56934,948.3506,46,100,42
948.50684,950.0917,46,50,42
950.114,953.21295,44,50,42
711.56104,712.91046,61,50,45
715.652,717.0014,58,50,45
719.74286,721.0923,56,50,45
711.56104,712.91046,41,50,45
715.652,717.0014,42,50,45
719.74286,721.0923,44,50,45
884.63776,885.9872,44,50,45
886.68317,888.03265,45,50,45
888.72864,890.07806,44,50,45
892.8196,894.169,44,50,45
894.865,896.2144,46,50,45
896.91046,898.2599,44,50,45
901.00134,902.3508,44,50,45
903.0468,904.39624,37,64,45
903.0468,904.39624,46,64,45
905.0923,906.4417,48,78,45
905.0923,906.4417,39,78,45
907.15356,908.55066,39,90,45
909.35724,910.7709,40,70,45
911.50006,912.98444,40,70,45
913.75006,915.23444,40,50,45
917.85876,919.2082,52,50,45
919.90424,921.25366,51,50,45
921.94965,923.29913,52,50,45
926.0406,927.39,51,70,45
928.08606,929.4355,51,70,45
930.1315,930.7991,51,70,45
