start_time,end_time,note_value,velocity,instrument_program_number
0.0,0.16666667,67,110,40
0.0,0.16666667,55,110,40
0.25,0.41666666,79,110,40
0.5,1.2447916,80,110,40
1.25,1.4947916,77,91,40
1.5,1.7447916,74,70,40
1.75,1.9947916,75,70,40
2.0,2.2447917,71,70,40
2.25,2.4947917,72,70,40
2.5,2.7447917,69,70,40
2.75,2.9947917,70,70,40
3.0,3.2447917,67,70,40
3.25,3.4947917,68,70,40
3.5,3.753232,65,70,40
3.75862,4.0256653,70,70,40
4.031347,4.151139,63,70,40
4.156347,4.276139,70,70,40
4.281347,4.401139,67,70,40
4.406347,4.526139,63,70,40
4.531347,5.026139,68,70,40
5.031347,5.151139,63,70,40
5.156347,5.276139,70,70,40
5.281347,5.401139,67,70,40
5.406347,5.526139,63,70,40
5.531347,6.026139,68,70,40
6.031347,6.151139,63,70,40
6.156347,6.276139,70,70,40
6.281347,6.401139,67,70,40
6.406347,6.526139,63,70,40
6.531347,7.026139,69,100,40
7.031347,7.276139,70,100,40
7.281347,7.526139,72,90,40
7.531347,7.776139,68,80,40
7.781347,8.026138,65,70,40
8.031347,8.276138,63,70,40
8.281347,8.526138,62,70,40
8.531347,8.776138,60,70,40
8.781347,9.026138,58,70,40
9.031347,9.276138,60,70,40
9.281347,9.526138,62,70,40
9.531347,9.776138,63,70,40
9.781347,10.026138,65,70,40
10.031347,10.276138,67,70,40
10.281347,10.526138,70,70,40
10.531347,10.776138,68,70,40
10.781347,11.026138,67,70,40
11.031347,11.284579,67,70,40
11.289967,11.5432,65,70,40
11.548587,11.815632,65,70,40
12.094041,12.213833,63,70,40
12.219041,12.338833,70,70,40
12.344041,12.463833,67,70,40
12.469041,12.588833,63,70,40
12.594041,13.088833,68,70,40
13.094041,13.213833,63,70,40
13.219041,13.338833,70,70,40
13.344041,13.463833,67,70,40
13.469041,13.588833,63,70,40
13.594041,14.088833,68,70,40
14.094041,14.213833,63,70,40
14.219041,14.338833,70,70,40
14.344041,14.463833,67,70,40
14.469041,14.588833,63,70,40
14.594041,15.088833,69,100,40
15.094041,15.338833,70,100,40
15.344041,15.588833,72,90,40
15.594041,15.838833,68,80,40
15.844041,16.088833,65,70,40
16.094042,16.338833,63,70,40
16.344042,16.588833,62,70,40
16.594042,16.838833,60,70,40
16.844042,17.088833,58,70,40
17.094042,17.338833,60,70,40
17.344042,17.588833,62,70,40
17.594042,17.838833,63,70,40
17.844042,18.088833,65,70,40
18.094042,18.338833,67,70,40
18.344042,18.588833,70,70,40
18.594042,18.838833,68,70,40
18.844042,19.097273,65,70,40
19.102661,19.369707,65,70,40
19.375387,19.65251,63,70,40
19.658405,19.952156,63,70,40
19.958406,20.22545,70,80,40
20.231133,20.475925,75,85,40
20.481133,20.725925,74,90,40
20.731133,20.975925,75,95,40
20.981133,21.225925,79,100,40
21.231133,21.475925,70,100,40
21.481133,21.725925,68,85,40
21.731133,21.975925,67,70,40
21.981133,22.225925,75,70,40
22.231133,22.293633,75,110,40
22.293633,22.356133,77,110,40
22.356133,22.475925,75,110,40
22.481133,22.725925,72,110,40
22.731133,22.793633,70,110,40
22.793633,22.856133,72,110,40
22.856133,22.975925,70,110,40
22.981133,23.225925,69,110,40
23.231133,23.295788,72,110,40
23.295788,23.360443,74,110,40
23.360443,23.484365,72,110,40
23.489754,23.688616,70,110,40
23.76248,23.98123,70,110,40
24.06248,24.329525,70,70,40
24.335207,24.579998,75,80,40
24.585207,24.829998,74,86,40
24.835207,25.079998,75,93,40
25.085207,25.329998,79,100,40
25.335207,25.579998,70,100,40
25.585207,25.829998,68,90,40
25.835207,26.079998,67,80,40
26.085207,26.329998,75,70,40
26.335207,26.397707,75,110,40
26.397707,26.460207,77,110,40
26.460207,26.579998,75,110,40
26.585207,26.829998,72,110,40
26.835207,26.897707,70,110,40
26.897707,26.960207,72,110,40
26.960207,27.079998,70,110,40
27.085207,27.33844,68,110,40
27.343826,27.610872,67,110,40
27.616554,27.752167,68,110,40
27.758062,27.893675,65,110,40
27.899572,28.193321,63,110,40
29.2223,29.71709,75,100,40
29.7223,29.96709,74,85,40
29.9723,30.21709,75,70,40
30.2223,30.34209,79,70,40
30.3473,30.46709,80,70,40
30.4723,30.638966,82,110,40
30.7223,30.84209,84,110,40
30.8473,30.96709,86,110,40
30.9723,31.138966,87,110,40
31.2223,31.34209,89,110,40
31.3473,31.46709,91,110,40
31.4723,31.72553,91,110,40
31.4723,31.72553,87,110,40
31.730919,31.997965,92,110,40
32.003647,32.203648,89,110,40
33.326374,33.571163,75,100,40
33.576374,33.821163,70,100,40
33.826374,34.071163,68,90,40
34.076374,34.321163,67,80,40
34.326374,34.446163,67,70,40
34.451374,34.571163,68,70,40
34.576374,34.74304,70,110,40
34.826374,34.946163,75,110,40
34.951374,35.071163,77,110,40
35.076374,35.24304,79,110,40
35.326374,35.446163,79,110,40
35.451374,35.571163,80,110,40
35.576374,35.74304,82,110,40
35.826374,35.946163,84,110,40
35.951374,36.071163,86,110,40
36.076374,36.26495,87,110,40
36.33499,36.612114,87,100,40
36.61801,36.862804,87,50,40
36.86801,38.862804,82,50,40
38.86801,39.112804,87,50,40
39.11801,39.612804,84,50,40
39.61801,39.862804,77,50,40
39.86801,40.112804,77,50,40
40.11801,40.362804,82,50,40
40.36801,40.862804,82,50,40
40.86801,41.112804,75,50,40
41.11801,41.362804,77,50,40
41.36801,41.612804,70,50,40
41.86801,42.112804,87,50,40
42.11801,42.362804,89,50,40
42.36801,42.612804,82,50,40
42.61801,42.862804,91,50,40
42.86801,43.112804,87,50,40
43.11801,43.362804,84,50,40
43.36801,43.612804,89,50,40
43.61801,43.862804,89,50,40
43.86801,44.050304,87,50,40
44.11801,44.300304,87,50,40
44.36801,44.612804,87,50,40
44.61801,44.862804,86,50,40
45.11801,45.237804,67,50,40
45.24301,45.362804,72,50,40
45.36801,45.487804,69,50,40
45.49301,45.612804,65,50,40
45.61801,45.862804,74,50,40
45.86801,46.112804,70,50,40
46.11801,46.237804,67,50,40
46.24301,46.362804,72,50,40
46.36801,46.487804,69,50,40
46.49301,46.612804,65,50,40
46.61801,46.862804,74,50,40
46.86801,46.987804,77,50,40
46.99301,47.112804,74,50,40
47.11801,47.237804,73,50,40
47.24301,47.362804,72,50,40
47.36801,47.487804,73,50,40
47.49301,47.612804,70,50,40
47.61801,47.737804,70,50,40
47.74301,47.862804,69,50,40
47.86801,47.987804,70,50,40
47.99301,48.112804,72,50,40
48.11801,48.237804,67,50,40
48.24301,48.362804,65,50,40
48.36801,48.487804,67,50,40
48.49301,48.612804,69,50,40
48.61801,48.737804,70,50,40
48.74301,48.862804,77,50,40
48.86801,48.987804,74,50,40
48.99301,49.112804,70,50,40
49.11801,49.612804,75,50,40
49.61801,49.737804,70,50,40
49.74301,49.862804,77,50,40
49.86801,49.987804,74,50,40
49.99301,50.112804,70,50,40
50.11801,50.612804,75,50,40
50.61801,50.737804,70,50,40
50.74301,50.862804,77,50,40
50.86801,50.987804,74,50,40
50.99301,51.112804,70,50,40
51.11801,51.612804,76,50,40
51.61801,52.112804,77,57,40
52.11801,52.612804,78,65,40
52.61801,52.862804,78,72,40
52.86801,53.112804,79,76,40
53.11801,53.362804,75,80,40
53.36801,53.612804,72,83,40
53.61801,53.862804,74,87,40
53.86801,54.112804,75,91,40
54.11801,54.362804,72,95,40
54.36801,54.487804,69,99,40
54.49301,54.612804,81,100,40
54.61801,54.78468,82,110,40
54.86801,55.03468,82,110,40
55.11801,55.28468,82,110,40
55.36801,55.53468,82,110,40
55.61801,55.862804,82,110,40
55.86801,55.987804,84,110,40
55.99301,56.112804,86,110,40
56.11801,56.28468,87,110,40
56.36801,56.53468,86,110,40
56.61801,56.78468,91,110,40
56.86801,57.03468,89,110,40
57.11801,57.18051,89,110,40
57.18051,57.300304,87,110,40
57.36801,57.53468,86,110,40
57.61801,57.68051,86,110,40
57.68051,57.800304,84,110,40
57.86801,58.03468,82,110,40
58.11801,58.28468,84,110,40
58.36801,58.53468,77,110,40
58.61801,58.78468,82,110,40
58.86801,59.03468,82,110,40
59.11801,59.28468,82,110,40
59.36801,59.53468,82,110,40
59.61801,59.862804,82,110,40
59.86801,59.987804,84,110,40
59.99301,60.112804,86,110,40
60.11801,60.28468,87,110,40
60.36801,60.53468,86,110,40
60.61801,60.78468,91,110,40
60.86801,61.03468,89,110,40
61.11801,61.18051,89,110,40
61.18051,61.300304,87,110,40
61.36801,61.53468,86,110,40
61.61801,61.68051,86,110,40
61.68051,61.800304,84,110,40
61.86801,62.03468,82,110,40
62.11801,62.18051,82,110,40
62.18051,62.300304,81,110,40
62.36801,62.53468,79,110,40
62.61801,62.68051,79,70,40
62.68051,62.800304,77,70,40
62.86801,63.03468,75,70,40
63.11801,63.18051,75,70,40
63.18051,63.300304,74,70,40
63.36801,63.53468,72,70,40
63.61801,63.68051,72,70,40
63.68051,63.800304,70,70,40
63.86801,64.034676,69,70,40
64.11801,64.18266,69,70,40
64.18266,64.30659,67,70,40
64.37663,64.55845,65,70,40
64.64936,64.71186,80,110,40
64.71186,64.83165,79,110,40
64.89936,65.066025,77,110,40
65.14936,65.21186,77,110,40
65.21186,65.33165,75,110,40
65.39936,65.566025,74,110,40
65.64936,65.71186,74,110,40
65.71186,65.83165,72,110,40
65.89936,66.07177,70,110,40
66.157974,66.22616,70,110,40
66.22616,66.35684,69,110,40
66.4307,66.63071,67,110,40
66.730705,66.90312,61,70,40
66.98933,67.161736,62,70,40
67.24795,67.42036,58,70,40
67.50656,67.67898,62,70,40
67.76518,67.9376,63,70,40
68.0238,68.19622,64,70,40
68.282425,68.79427,67,110,40
68.79967,68.97208,68,70,40
69.05829,69.2307,69,70,40
69.3169,69.48932,65,70,40
69.57552,69.74794,69,70,40
69.834145,70.00656,70,70,40
70.092766,70.265175,71,70,40
70.35139,70.863235,74,110,40
70.86862,71.04104,71,70,40
71.12724,71.29966,72,70,40
71.385864,71.89772,75,110,40
71.90311,72.075516,73,70,40
72.16173,72.33414,74,70,40
72.42034,72.96011,77,110,40
72.9658,73.960594,70,120,40
72.9658,73.960594,82,120,40
73.9658,74.960594,70,120,40
73.9658,74.960594,82,120,40
74.9658,75.960594,70,120,40
74.9658,75.960594,82,120,40
75.9658,76.210594,82,120,40
76.2158,76.335594,81,120,40
76.3408,76.460594,79,120,40
76.4658,76.63247,77,120,40
76.7158,76.835594,75,120,40
76.8408,76.960594,74,120,40
76.9658,77.13247,82,120,40
77.2158,77.29913,84,120,40
77.29913,77.38247,82,120,40
77.38247,77.4658,81,120,40
77.4658,77.63247,82,120,40
77.7158,77.79913,84,120,40
77.79913,77.88247,82,120,40
77.88247,77.9658,81,120,40
77.9658,78.13247,82,120,40
78.2158,78.29913,84,120,40
78.29913,78.38247,82,120,40
78.38247,78.4658,81,120,40
78.4658,78.63247,82,120,40
78.7158,78.79913,84,120,40
78.79913,78.88247,82,120,40
78.88247,78.9658,81,120,40
78.9658,79.13247,82,120,40
79.2158,79.29913,84,120,40
79.29913,79.38247,82,120,40
79.38247,79.4658,81,120,40
79.4658,79.63247,82,120,40
79.7158,79.79913,84,120,40
79.79913,79.88247,82,120,40
79.88247,79.9658,81,120,40
79.9658,80.210594,82,120,40
80.2158,80.335594,81,120,40
80.3408,80.460594,79,120,40
80.4658,80.63247,77,120,40
80.7158,80.835594,75,120,40
80.8408,80.960594,74,120,40
80.9658,81.085594,77,110,40
81.0908,81.210594,75,110,40
81.2158,81.335594,74,110,40
81.3408,81.460594,75,110,40
81.4658,81.710594,75,110,40
81.7158,81.960594,75,110,40
81.9658,82.085594,75,110,40
82.0908,82.210594,74,110,40
82.2158,82.335594,72,110,40
82.3408,82.460594,74,110,40
82.4658,82.710594,74,110,40
84.7158,84.835594,79,110,40
84.8408,84.960594,77,110,40
84.9658,85.085594,77,110,40
85.0908,85.210594,75,110,40
85.2158,85.335594,74,110,40
85.3408,85.460594,75,110,40
85.4658,85.710594,75,110,40
85.7158,85.960594,75,110,40
85.9658,86.085594,75,110,40
86.0908,86.210594,74,110,40
86.2158,86.335594,72,110,40
86.3408,86.460594,74,110,40
86.4658,86.710594,74,110,40
88.7158,88.96474,87,70,40
88.97004,89.09186,86,70,40
89.09715,89.21898,84,70,40
89.22427,89.34609,82,70,40
89.351395,89.47321,84,70,40
89.47851,89.663895,82,70,40
89.73275,89.91813,84,70,40
89.986984,90.1088,82,70,40
90.114105,90.23592,80,70,40
90.24122,90.363045,79,70,40
90.36834,90.49016,80,70,40
90.49546,90.68084,79,70,40
90.749695,90.87151,84,70,40
90.876816,90.998634,82,70,40
91.00393,91.125755,82,70,40
91.13105,91.25287,80,70,40
91.25817,91.37999,79,70,40
91.385284,91.50711,80,70,40
91.512405,91.697784,80,70,40
91.76664,91.95203,80,70,40
92.02088,92.1427,80,70,40
92.147995,92.26982,79,70,40
92.275116,92.39694,78,70,40
92.40224,92.524055,79,70,40
92.52935,92.71474,79,70,40
92.78359,92.97217,79,60,40
93.04221,93.16613,80,50,40
93.171524,93.29544,79,50,40
93.300835,93.42475,78,50,40
93.43014,93.55406,79,50,40
93.55945,93.74803,79,50,40
93.81807,94.00996,79,50,40
94.08123,94.20732,80,50,40
94.21281,94.338905,79,50,40
94.34438,94.47048,78,50,40
94.47596,94.60206,79,50,40
94.607544,94.79943,79,50,40
94.8707,95.06601,79,50,40
95.13856,95.26691,80,50,40
95.272484,95.40083,79,53,40
95.40641,95.53476,78,57,40
95.540344,95.668686,79,60,40
95.67427,95.86958,79,64,40
95.94212,96.14099,79,71,40
96.21485,96.345535,80,79,40
96.35122,96.481895,79,82,40
96.48758,96.61826,78,86,40
96.62395,96.75462,79,89,40
96.76031,96.959175,79,93,40
97.033035,97.231895,79,100,40
97.30576,97.47243,67,110,40
97.30576,97.47243,55,110,40
97.55576,97.72243,79,110,40
97.80576,98.55055,80,110,40
98.55576,98.80055,77,95,40
98.80576,99.05055,74,70,40
99.05576,99.30055,75,70,40
99.30576,99.55055,71,70,40
99.55576,99.80055,72,70,40
99.80576,100.05055,69,70,40
100.05576,100.30055,70,70,40
100.30576,100.55055,67,70,40
100.55576,100.80055,68,70,40
100.80576,101.05055,65,60,40
101.05576,101.30055,70,60,40
101.30576,101.55055,65,60,40
101.55576,101.80055,67,60,40
101.80576,102.05055,63,60,40
102.05576,102.30055,77,60,40
102.30576,102.55055,72,60,40
102.55576,102.80055,74,60,40
102.80576,103.05055,70,60,40
103.05576,103.30055,75,60,40
103.30576,103.55055,71,60,40
103.55576,103.80055,72,60,40
103.80576,104.05055,68,60,40
104.05576,104.30055,74,60,40
104.30576,104.55055,69,60,40
104.55576,104.80055,70,60,40
104.80576,105.05055,67,60,40
105.05576,105.30055,72,60,40
105.30576,105.55055,67,60,40
105.55576,105.80055,68,60,40
105.80576,106.05055,65,60,40
106.05576,106.30055,80,60,40
106.30576,106.55055,80,60,40
106.55576,106.72243,79,60,40
106.80576,106.97243,79,60,40
107.05576,107.22243,79,60,40
107.30576,107.47243,79,50,40
107.55576,107.72243,84,50,40
107.80576,107.97243,84,50,40
108.05576,108.22243,84,50,40
108.30576,108.55055,84,50,40
108.55576,108.67555,86,50,40
108.68076,108.80055,88,50,40
108.80576,108.97243,89,50,40
109.05576,109.22243,88,50,40
109.30576,109.47243,93,50,40
109.55576,109.72243,91,50,40
109.80576,109.97243,89,50,40
110.05576,110.22243,88,50,40
110.30576,110.47243,86,50,40
110.55576,110.72243,84,50,40
110.80576,110.97817,86,50,40
111.064384,111.2462,79,50,40
111.33711,111.5194,79,110,40
111.58711,111.7694,79,110,40
111.83711,112.0194,77,110,40
112.08711,112.2694,75,110,40
112.33711,112.5194,74,110,40
112.58711,112.7694,72,110,40
112.83711,113.0194,70,110,40
113.08711,113.2694,72,110,40
113.33711,113.5194,72,110,40
113.58711,113.7694,84,110,40
113.83711,114.0194,84,110,40
114.08711,114.2694,84,110,40
114.33711,114.5819,84,110,40
114.58711,114.7069,86,110,40
114.71211,114.8319,87,110,40
114.83711,115.00378,89,110,40
115.08711,115.25378,87,110,40
115.33711,115.50378,87,110,40
115.58711,115.75378,86,110,40
115.83711,115.89961,86,110,40
115.89961,116.0194,84,110,40
116.08711,116.25378,83,110,40
116.33711,116.39961,83,110,40
116.39961,116.5194,80,110,40
116.58711,116.75378,79,110,40
116.83711,117.00378,78,110,40
117.08711,117.25378,79,110,40
117.33711,117.50378,79,110,40
117.58711,117.75378,79,110,40
117.83711,118.00378,79,110,40
118.08711,118.25378,79,110,40
118.33711,118.5819,79,110,40
118.58711,118.7069,81,110,40
118.71211,118.8319,83,110,40
118.83711,119.00378,84,110,40
119.08711,119.25378,83,110,40
119.33711,119.5819,83,110,40
119.58711,119.7069,84,110,40
119.71211,119.8319,86,110,40
119.83711,120.00378,87,110,40
120.08711,120.25378,86,110,40
120.33711,120.59034,86,110,40
120.595726,120.72641,87,110,40
120.73209,120.86278,89,110,40
120.868454,121.05714,91,110,40
121.151474,121.35147,71,110,40
121.45148,121.571266,72,50,40
121.57648,121.696266,79,50,40
121.70148,121.821266,75,50,40
121.82648,121.946266,72,50,40
121.95148,122.446266,80,50,40
122.45148,122.571266,72,50,40
122.57648,122.696266,79,50,40
122.70148,122.821266,75,50,40
122.82648,122.946266,72,50,40
122.95148,123.446266,79,50,40
124.45148,124.61814,79,50,40
124.70148,124.86814,79,50,40
124.95148,125.11814,79,50,40
125.20148,125.36814,79,50,40
125.45148,125.61814,84,50,40
125.70148,125.86814,84,57,40
125.95148,126.11814,84,64,40
126.20148,126.36814,84,71,40
126.45148,126.696266,84,79,40
126.70148,126.821266,86,86,40
126.82648,126.946266,88,89,40
126.95148,127.11814,89,93,40
127.20148,127.36814,88,100,40
127.45148,127.61814,89,110,40
127.70148,127.86814,89,110,40
127.95148,128.11813,91,110,40
128.20148,128.36813,91,90,40
128.45148,128.61813,91,70,40
128.70148,128.86813,91,70,40
128.95148,129.11813,91,70,40
129.20148,129.36813,91,70,40
129.45148,129.57126,64,70,40
129.57648,129.69626,72,70,40
129.70148,129.82126,67,70,40
129.82648,129.94626,64,70,40
129.95148,130.07126,67,70,40
130.07648,130.19626,76,70,40
130.20148,130.32126,72,70,40
130.32648,130.44626,67,70,40
130.45148,130.57126,72,70,40
130.57648,130.69626,79,70,40
130.70148,130.82126,76,70,40
130.82648,130.94626,72,70,40
130.95148,131.07126,76,70,40
131.07648,131.19626,91,70,40
131.20148,131.32126,88,70,40
131.32648,131.44626,84,70,40
131.45148,131.61813,89,110,40
131.70148,131.86813,89,110,40
131.95148,132.11813,91,110,40
132.20148,132.36813,91,110,40
132.45148,132.61813,91,70,40
132.70148,132.86813,91,70,40
132.95148,133.11813,91,70,40
133.20148,133.36813,91,70,40
133.45148,133.57126,64,70,40
133.57648,133.69626,72,70,40
133.70148,133.82126,67,70,40
133.82648,133.94626,64,70,40
133.95148,134.07126,67,70,40
134.07648,134.19626,76,70,40
134.20148,134.32126,72,70,40
134.32648,134.44626,67,70,40
134.45148,134.57126,72,70,40
134.57648,134.69626,79,70,40
134.70148,134.82126,76,70,40
134.82648,134.94626,72,70,40
134.95148,135.07126,76,70,40
135.07648,135.19626,91,70,40
135.20148,135.32126,88,70,40
135.32648,135.44626,84,70,40
135.45148,135.94626,84,70,40
135.95148,136.07126,74,70,40
136.07648,136.19626,82,70,40
136.20148,136.32126,77,70,40
136.32648,136.44626,74,70,40
136.45148,136.94626,82,70,40
136.95148,137.07126,72,70,40
137.07648,137.19626,80,70,40
137.20148,137.32126,75,70,40
137.32648,137.44626,72,70,40
137.45148,137.94626,80,70,40
137.95148,138.07126,70,70,40
138.07648,138.19626,79,70,40
138.20148,138.32126,73,70,40
138.32648,138.44626,70,70,40
138.45148,138.57126,82,70,40
138.57648,138.69626,79,71,40
138.70148,138.82126,72,72,40
138.82648,138.94626,82,74,40
138.95148,139.57126,80,75,40
139.57648,139.69626,77,82,40
139.70148,139.82126,70,83,40
139.82648,139.94626,80,84,40
139.95148,140.57126,79,86,40
140.57648,140.69626,76,92,40
140.70148,140.82126,68,94,40
140.82648,140.94626,79,95,40
140.95148,141.44626,77,96,40
141.45148,141.57126,75,100,40
141.57648,141.69626,72,98,40
141.70148,141.82126,68,95,40
141.82648,141.94626,75,92,40
141.95148,142.44626,74,90,40
142.45148,142.57126,73,79,40
142.57648,142.69626,70,76,40
142.70148,142.82126,64,73,40
142.82648,142.94626,73,71,40
142.95148,143.44626,72,68,40
143.45148,143.94626,71,50,40
143.95148,144.01398,70,50,40
144.01398,144.07648,72,50,40
144.07648,144.13898,70,50,40
144.13898,144.20148,72,50,40
144.20148,144.26398,70,50,40
144.26398,144.32648,72,50,40
144.32648,144.38898,70,50,40
144.38898,144.45148,72,50,40
144.45148,144.51398,70,50,40
144.51398,144.57648,72,50,40
144.57648,144.63898,70,50,40
144.63898,144.70148,72,50,40
144.70148,144.76398,70,50,40
144.76398,144.82648,72,50,40
144.82648,144.88898,70,50,40
144.88898,144.95148,72,50,40
144.95148,145.01398,70,50,40
145.01398,145.07648,72,50,40
145.07648,145.13898,70,50,40
145.13898,145.20148,72,50,40
145.20148,145.26398,70,50,40
145.26398,145.32648,72,50,40
145.32648,145.38898,70,50,40
145.38898,145.45148,72,50,40
145.45148,145.51398,68,70,40
145.51398,145.57648,70,70,40
145.57648,145.63898,68,70,40
145.63898,145.70148,70,70,40
145.70148,145.76398,68,70,40
145.76398,145.82648,70,70,40
145.82648,145.88898,68,70,40
145.88898,145.95148,70,70,40
145.95148,146.01398,68,70,40
146.01398,146.07648,70,70,40
146.07648,146.13898,68,70,40
146.13898,146.20148,70,70,40
146.20148,146.26398,68,70,40
146.26398,146.32648,70,70,40
146.32648,146.38898,68,70,40
146.38898,146.45148,70,70,40
146.45148,146.51398,68,70,40
146.51398,146.57648,70,70,40
146.57648,146.63898,68,70,40
146.63898,146.70148,70,70,40
146.70148,146.76398,68,70,40
146.76398,146.82648,70,70,40
146.82648,146.88898,68,70,40
146.88898,146.95148,70,70,40
146.95148,147.01398,68,70,40
147.01398,147.07648,70,70,40
147.07648,147.13898,68,70,40
147.13898,147.20148,70,70,40
147.20148,147.26398,68,70,40
147.26398,147.32648,70,70,40
147.32648,147.38898,68,70,40
147.38898,147.45148,70,70,40
147.45148,147.51398,68,70,40
147.51398,147.57648,70,70,40
147.57648,147.63898,68,70,40
147.63898,147.70148,70,70,40
147.70148,147.76398,68,70,40
147.76398,147.82648,70,70,40
147.82648,147.88898,68,70,40
147.88898,147.95148,70,70,40
147.95148,148.01398,68,70,40
148.01398,148.07648,70,73,40
148.07648,148.13898,68,77,40
148.13898,148.20148,70,81,40
148.20148,148.26398,68,85,40
148.26398,148.32648,70,89,40
148.32648,148.38898,68,93,40
148.38898,148.45148,70,96,40
148.45148,148.51398,68,100,40
148.51398,148.57648,70,97,40
148.57648,148.63898,68,93,40
148.63898,148.70148,70,89,40
148.70148,148.76398,68,86,40
148.76398,148.82648,70,82,40
148.82648,148.88898,68,78,40
148.88898,148.95148,70,75,40
148.95148,149.19626,67,71,40
149.20148,149.32126,68,70,40
149.32648,149.44626,70,70,40
149.45148,149.69626,72,70,40
149.70148,149.94626,73,70,40
149.95148,150.19626,74,70,40
150.20148,150.26398,75,70,40
150.26398,150.32648,77,70,40
150.32648,150.38898,75,70,40
150.38898,150.45148,77,70,40
150.45148,150.51398,75,70,40
150.51398,150.57648,77,70,40
150.57648,150.63898,75,70,40
150.63898,150.70148,77,70,40
150.70148,150.76398,75,70,40
150.76398,150.82648,77,70,40
150.82648,150.88898,75,70,40
150.88898,150.95148,77,70,40
150.95148,151.07126,75,70,40
151.07648,151.19626,77,70,40
151.20148,151.44626,79,70,40
151.45148,151.69626,80,70,40
151.70148,151.94626,75,70,40
151.95148,152.19626,79,70,40
152.20148,152.44626,80,70,40
152.45148,152.69626,80,70,40
152.70148,152.94626,79,70,40
152.95148,153.44626,79,70,40
153.45148,153.94626,80,70,40
153.95148,154.07126,75,70,40
154.07648,154.19626,82,70,40
154.20148,154.32126,79,70,40
154.32648,154.44626,75,70,40
154.45148,154.94626,80,70,40
154.95148,155.07126,75,70,40
155.07648,155.19626,82,70,40
155.20148,155.32126,79,70,40
155.32648,155.44626,75,70,40
155.45148,156.07126,80,70,40
156.07648,156.19626,84,92,40
156.20148,156.32126,82,96,40
156.32648,156.44626,80,100,40
156.45148,156.69626,79,100,40
156.70148,156.94626,80,85,40
156.95148,157.20471,77,70,40
157.2101,157.47714,85,70,40
157.48282,157.73177,84,70,40
157.73706,157.986,82,70,40
157.9913,158.24023,80,70,40
158.24553,158.49448,79,70,40
158.49977,158.7487,80,70,40
158.75401,159.00294,82,70,40
159.00824,159.25719,84,70,40
159.26248,159.51141,85,70,40
159.51672,159.76994,84,70,40
159.77533,160.02856,81,70,40
160.03395,160.29163,82,70,40
160.29712,160.55939,79,70,40
160.56497,160.83202,79,70,40
160.83769,161.04407,80,70,40
161.12071,161.39784,80,70,40
165.53595,165.803,75,70,40
165.80869,166.05348,80,77,40
166.05869,166.30348,79,85,40
166.30869,166.55348,80,93,40
166.55869,166.80348,84,100,40
166.80869,167.05348,75,100,40
167.05869,167.30348,73,90,40
167.30869,167.55348,72,80,40
167.55869,167.80348,80,70,40
167.80869,168.05348,80,70,40
168.05869,168.30348,79,71,40
168.30869,168.42848,79,72,40
168.43369,168.55348,77,73,40
168.55869,168.6826,75,73,40
168.68799,168.81192,73,74,40
168.8173,169.08435,72,75,40
169.09003,169.22072,73,76,40
169.2264,169.35707,70,77,40
169.36276,169.6298,68,77,40
169.63548,169.90253,75,79,40
169.90822,170.153,80,80,40
170.15822,170.403,79,81,40
170.40822,170.653,80,83,40
170.65822,170.903,84,84,40
170.90822,171.153,75,85,40
171.15822,171.403,73,87,40
171.40822,171.653,72,88,40
171.65822,171.903,84,89,40
171.90822,172.153,84,91,40
172.15822,172.278,82,92,40
172.28322,172.403,80,93,40
172.40822,172.528,80,93,40
172.53322,172.653,79,94,40
172.65822,172.778,79,95,40
172.78322,172.903,77,95,40
172.90822,173.153,80,96,40
173.15822,173.403,79,97,40
173.40822,173.653,79,99,40
173.65822,173.903,75,100,40
173.90822,174.153,80,101,40
174.15822,174.403,79,103,40
174.40822,174.653,80,104,40
174.65822,174.903,84,105,40
174.90822,175.153,75,107,40
175.15822,175.403,73,108,40
175.40822,175.653,72,109,40
175.65822,175.903,80,110,40
175.90822,176.153,80,110,40
176.15822,176.403,79,110,40
176.40822,176.53214,79,110,40
176.53752,176.66144,77,110,40
176.66682,176.79076,75,110,40
176.79614,176.92006,73,110,40
176.92545,177.17868,72,110,40
177.18407,177.308,73,84,40
177.31339,177.4373,70,70,40
177.44269,177.69592,67,70,40
177.70131,177.95454,73,70,40
177.95993,178.21317,77,70,40
178.21855,178.34247,75,70,40
178.34785,178.47179,72,70,40
178.47717,178.64958,68,70,40
178.7358,178.98903,76,70,40
178.99442,179.24765,79,70,40
179.25304,179.37695,77,72,40
179.38234,179.50626,73,74,40
179.51166,179.68407,70,75,40
179.77026,180.0235,79,78,40
180.02888,180.28212,80,81,40
180.2875,180.41144,79,84,40
180.41682,180.54074,76,85,40
180.54613,180.71855,72,86,40
180.80475,181.05798,79,89,40
181.06337,181.3166,82,92,40
181.32199,181.4459,81,95,40
181.4513,181.57523,75,96,40
181.58061,181.75302,72,98,40
181.83923,182.09247,81,100,40
182.09785,182.35109,84,100,40
182.35648,182.4804,83,96,40
182.48578,182.60971,77,94,40
182.6151,182.7875,74,91,40
182.87372,183.12694,83,87,40
183.13232,183.38556,84,82,40
183.39095,183.51488,83,77,40
183.52026,183.64418,77,75,40
183.64957,183.82199,74,73,40
183.90819,184.16142,83,68,40
184.16681,184.42004,84,63,40
184.42543,184.54935,83,59,40
184.55475,184.67867,77,57,40
184.68405,184.86263,74,54,40
184.9519,185.22389,82,50,40
185.22969,185.49196,84,50,40
185.49754,185.62589,82,50,40
185.63147,185.75981,77,50,40
185.7654,185.94397,74,50,40
186.03325,186.29553,82,50,40
186.30112,186.56339,84,50,40
186.56897,186.69731,82,50,40
186.7029,186.83125,77,50,40
186.83682,187.0154,74,50,40
187.10469,187.36696,82,50,40
187.37254,187.63481,84,50,40
187.6404,187.76875,82,50,40
187.77432,187.90268,77,50,40
187.90825,188.09694,74,50,40
188.19127,188.48502,82,50,40
188.49127,188.61961,75,50,40
188.6252,188.75356,82,50,40
188.75912,188.87892,79,50,40
188.88412,189.00392,75,50,40
189.00912,189.50392,80,50,40
189.50912,189.62892,75,50,40
189.63412,189.75392,82,50,40
189.75912,189.87892,79,50,40
189.88412,190.00392,75,50,40
190.00912,190.50392,80,50,40
190.50912,190.62892,75,50,40
190.63412,190.75392,82,50,40
190.75912,190.87892,79,50,40
190.88412,191.00392,75,50,40
191.00912,191.50392,81,95,40
191.50912,191.75392,82,83,40
191.75912,192.00392,84,100,40
192.00912,192.25392,80,90,40
192.25912,192.50392,77,80,40
192.50912,192.75392,75,70,40
192.75912,193.00392,74,70,40
193.00912,193.25392,72,70,40
193.25912,193.50392,70,70,40
193.50912,193.75392,72,70,40
193.75912,194.00392,74,70,40
194.00912,194.25392,75,70,40
194.25912,194.50392,77,70,40
194.50912,194.75392,79,70,40
194.75912,195.00392,82,70,40
195.00912,195.1758,80,70,40
195.25912,195.4258,79,70,40
195.50912,195.75392,79,70,40
195.75912,195.9258,77,70,40
196.00912,196.1758,77,70,40
196.25912,197.12892,82,70,40
197.13412,197.25392,89,70,40
197.25912,197.37892,86,70,40
197.38412,197.50392,82,70,40
197.50912,197.75392,87,70,40
197.75912,198.12892,82,70,40
198.13412,198.25392,89,70,40
198.25912,198.37892,86,70,40
198.38412,198.50392,82,70,40
198.50912,198.75392,87,70,40
198.75912,198.87892,82,70,40
198.88412,199.12892,87,70,40
199.13412,199.25392,91,70,40
199.25912,199.37892,89,85,40
199.38412,199.50392,87,100,40
199.50912,199.62892,87,100,40
199.63412,199.75392,86,96,40
199.75912,199.87892,84,92,40
199.88412,200.00392,86,87,40
200.00912,200.12892,86,83,40
200.13412,200.25392,84,78,40
200.25912,200.37892,84,74,40
200.38412,200.50392,82,70,40
200.50912,200.62892,82,70,40
200.63412,200.75392,87,72,40
200.75912,200.87892,82,74,40
200.88412,201.00392,86,76,40
201.00912,201.12892,82,78,40
201.13412,201.25392,84,81,40
201.25912,201.37892,82,83,40
201.38412,201.50392,82,85,40
201.50912,201.75392,84,87,40
201.75912,202.00392,86,92,40
202.00912,202.25392,87,96,40
202.25912,202.50392,89,100,40
202.50912,202.75392,91,70,40
202.75912,203.00392,94,70,40
203.00912,203.25392,92,70,40
203.25912,203.50392,89,70,40
203.50912,203.75392,89,70,40
203.75912,203.94142,87,70,40
204.00912,204.19142,87,70,40
204.25912,204.50392,82,70,40
204.50912,204.75392,87,70,40
204.75912,205.00392,86,78,40
205.00912,205.25392,87,87,40
205.25912,205.50392,91,96,40
205.50912,205.75392,82,100,40
205.75912,206.00392,80,88,40
206.00912,206.25392,79,76,40
206.25912,206.50392,87,110,40
206.50912,206.57162,87,110,40
206.57162,206.63412,89,110,40
206.63412,206.75392,87,110,40
206.75912,207.00392,84,110,40
207.00912,207.07162,82,110,40
207.07162,207.13412,84,110,40
207.13412,207.25392,82,110,40
207.25912,207.50392,81,110,40
207.50912,207.57162,84,110,40
207.57162,207.63412,86,110,40
207.63412,207.75392,84,110,40
207.75912,207.94142,82,110,40
208.00912,208.19142,82,110,40
208.25912,208.37892,82,70,40
208.38412,208.50392,87,70,40
208.50912,208.75392,87,70,40
208.75912,209.00392,86,78,40
209.00912,209.25392,87,87,40
209.25912,209.50392,91,96,40
209.50912,209.75392,82,100,40
209.75912,210.00392,80,85,40
210.00912,210.25392,79,70,40
210.25912,210.50392,87,70,40
210.50912,210.57162,87,110,40
210.57162,210.63412,89,110,40
210.63412,210.75392,87,110,40
210.75912,211.00392,84,110,40
211.00912,211.07162,82,110,40
211.07162,211.13412,84,110,40
211.13412,211.25392,82,110,40
211.25912,211.50392,80,110,40
211.50912,211.75392,79,110,40
211.75912,211.87892,80,110,40
211.88412,212.00392,77,110,40
212.00912,212.09767,75,110,40
212.13412,212.22267,86,70,40
212.25912,212.34767,87,70,40
212.38412,212.47267,84,70,40
212.50912,212.62892,84,70,40
212.63412,212.75392,82,74,40
212.75912,212.87892,70,78,40
212.88412,213.00392,80,83,40
213.00912,213.12892,80,87,40
213.13412,213.25392,79,92,40
213.25912,213.37892,67,96,40
213.38412,213.50392,77,100,40
213.50912,213.62892,77,100,40
213.63412,213.75392,75,93,40
213.75912,213.87892,77,85,40
213.88412,214.00392,79,77,40
214.00912,214.12892,80,70,40
214.13412,214.25392,81,70,40
214.25912,214.37892,82,70,40
214.38412,214.50392,84,90,40
214.50912,214.62892,82,110,40
214.63412,214.75392,81,110,40
214.75912,214.87892,82,110,40
214.88412,215.00392,84,110,40
215.00912,215.12892,86,110,40
215.13412,215.25392,87,110,40
215.25912,215.37892,89,110,40
215.38412,215.50392,89,110,40
215.50912,215.62892,89,110,40
215.63412,215.75392,89,110,40
215.75912,215.87892,91,110,40
215.88412,216.00392,93,110,40
216.00912,216.12892,94,110,40
216.13412,216.25392,82,70,40
216.25912,216.37892,84,70,40
216.38412,216.50392,82,70,40
216.50912,216.62892,84,70,40
216.63412,216.75392,82,74,40
216.75912,216.87892,70,78,40
216.88412,217.00392,80,83,40
217.00912,217.12892,80,87,40
217.13412,217.25392,79,92,40
217.25912,217.37892,67,96,40
217.38412,217.50392,77,100,40
217.50912,217.62892,77,100,40
217.63412,217.75392,75,90,40
217.75912,217.87892,87,80,40
217.88412,218.00392,86,70,40
218.00912,218.12892,87,70,40
218.13412,218.25392,86,70,40
218.25912,218.37892,84,70,40
218.38412,218.50392,83,90,40
218.50912,218.62892,83,110,40
218.63412,218.75392,84,110,40
218.75912,218.87892,86,110,40
218.88412,219.00392,87,110,40
219.00912,219.12892,88,110,40
219.13412,219.25392,89,110,40
219.25912,219.37892,91,110,40
219.38412,219.50392,92,110,40
219.50912,219.63306,93,110,40
219.63844,219.76236,94,110,40
219.76775,219.8961,96,110,40
219.90167,220.03003,98,110,40
220.03561,220.31273,99,110,40
220.31862,220.5809,75,110,40
220.58649,220.75742,75,110,40
220.8429,221.00955,75,110,40
221.0929,221.25955,75,110,40
221.3429,221.50955,75,110,40
221.5929,221.83768,75,110,40
221.8429,221.96268,77,110,40
221.9679,222.08768,79,110,40
222.0929,222.25955,80,110,40
222.3429,222.50955,79,110,40
222.5929,222.75955,84,110,40
222.8429,223.00955,82,110,40
223.0929,223.1554,82,110,40
223.1554,223.27518,80,110,40
223.3429,223.50955,79,110,40
223.5929,223.6554,79,110,40
223.6554,223.77518,77,110,40
223.8429,224.00955,75,110,40
224.0929,224.25955,77,110,40
224.3429,224.50955,70,110,40
224.5929,224.75955,75,110,40
224.8429,225.00955,75,110,40
225.0929,225.25955,75,110,40
225.3429,225.50955,75,110,40
225.5929,225.83768,75,110,40
225.8429,225.96268,77,110,40
225.9679,226.08768,79,110,40
226.0929,226.25955,80,110,40
226.3429,226.50955,79,110,40
226.5929,226.75955,84,110,40
226.8429,227.00955,82,110,40
227.0929,227.1554,82,110,40
227.1554,227.27518,80,110,40
227.3429,227.50955,79,110,40
227.5929,227.6554,79,110,40
227.6554,227.77518,77,110,40
227.8429,228.00955,75,110,40
228.0929,228.1554,75,110,40
228.1554,228.27518,74,110,40
228.3429,228.50955,72,110,40
228.5929,228.6554,72,70,40
228.6554,228.77518,70,70,40
228.8429,229.00955,70,70,40
229.0929,229.1554,68,70,40
229.1554,229.27518,67,70,40
229.3429,229.50955,65,70,40
229.5929,229.6554,65,70,40
229.6554,229.77518,63,70,40
229.8429,230.00955,62,70,40
230.0929,230.1554,62,70,40
230.1554,230.27518,60,70,40
230.3429,230.50955,58,70,40
230.5929,230.6554,86,110,40
230.6554,230.77518,84,110,40
230.8429,231.00955,82,110,40
231.0929,231.1554,82,110,40
231.1554,231.27518,80,110,40
231.3429,231.50955,79,110,40
231.5929,231.6554,79,110,40
231.6554,231.77518,77,110,40
231.8429,232.01382,75,110,40
232.0993,232.16508,75,110,40
232.16508,232.29118,74,110,40
232.36246,232.54428,72,110,40
232.6352,232.8076,66,70,40
232.8938,233.06047,67,70,40
233.1438,233.31047,63,70,40
233.3938,233.56047,67,70,40
233.6438,233.81047,68,70,40
233.8938,234.06047,69,70,40
234.1438,234.6386,72,110,40
234.6438,234.81047,61,70,40
234.8938,235.06047,62,70,40
235.1438,235.31047,58,70,40
235.3938,235.56047,62,70,40
235.6438,235.81047,63,70,40
235.8938,236.06047,64,70,40
236.1438,236.6386,67,110,40
236.6438,236.81047,64,70,40
236.8938,237.06047,65,70,40
237.1438,237.6386,68,110,40
237.6438,237.81047,66,70,40
237.8938,238.06047,67,70,40
238.1438,238.66946,70,110,40
238.67516,239.66994,75,120,40
238.67516,239.66994,87,120,40
239.67516,240.66994,75,120,40
239.67516,240.66994,87,120,40
240.67516,241.66994,75,120,40
240.67516,241.66994,87,120,40
241.67516,241.91994,75,110,40
241.67516,241.91994,87,110,40
241.92516,242.04494,86,110,40
242.05016,242.16994,84,110,40
242.17516,242.34181,82,110,40
242.42516,242.54494,80,110,40
242.55016,242.66994,79,110,40
242.67516,242.84181,87,110,40
242.92516,243.00848,89,110,40
243.00848,243.09181,87,110,40
243.09181,243.17516,86,110,40
243.17516,243.34181,87,110,40
243.42516,243.50848,89,110,40
243.50848,243.59181,87,110,40
243.59181,243.67516,86,110,40
243.67516,243.84181,87,110,40
243.92516,244.00848,89,110,40
244.00848,244.09181,87,110,40
244.09181,244.17516,86,110,40
244.17516,244.34181,87,110,40
244.42516,244.50848,89,110,40
244.50848,244.59181,87,110,40
244.59181,244.67516,86,110,40
244.67516,244.84181,87,110,40
244.92516,245.00848,89,110,40
245.00848,245.09181,87,110,40
245.09181,245.17516,86,110,40
245.17516,245.34181,87,110,40
245.42516,245.50848,89,110,40
245.50848,245.59181,87,110,40
245.59181,245.67516,86,110,40
245.67516,245.91994,87,110,40
245.92516,246.04494,86,110,40
246.05016,246.16994,84,110,40
246.17516,246.34181,82,110,40
246.42516,246.54494,80,110,40
246.55016,246.66994,79,110,40
246.67516,246.79494,82,110,40
246.80016,246.91994,80,110,40
246.92516,247.04494,79,110,40
247.05016,247.16994,80,110,40
247.17516,247.34181,80,110,40
247.42516,247.59181,80,110,40
247.67516,247.79494,80,110,40
247.80016,247.91994,79,110,40
247.92516,248.04494,78,110,40
248.05016,248.16994,79,110,40
248.17516,248.41994,79,110,40
250.42516,250.54494,84,110,40
250.55016,250.66994,82,110,40
250.67516,250.79494,82,110,40
250.80016,250.91994,80,110,40
250.92516,251.04494,79,110,40
251.05016,251.16994,80,110,40
251.17516,251.34181,80,110,40
251.42516,251.59181,80,110,40
251.67516,251.79494,80,110,40
251.80016,251.91994,79,110,40
251.92516,252.04494,78,110,40
252.05016,252.16994,79,110,40
252.17516,252.34181,79,110,40
252.42516,252.59181,82,107,40
252.67516,252.79494,82,104,40
252.80016,252.91994,80,103,40
252.92516,253.04494,79,101,40
253.05016,253.16994,80,99,40
253.17516,253.34465,80,98,40
253.4294,253.6018,80,95,40
253.688,253.81194,82,92,40
253.81732,253.94124,80,90,40
253.94662,254.07056,79,88,40
254.07594,254.19986,80,87,40
254.20525,254.38069,80,85,40
254.46841,254.64697,80,82,40
254.73627,254.86461,80,79,40
254.8702,254.99854,79,77,40
255.00412,255.13246,77,76,40
255.13805,255.2664,79,74,40
255.27197,255.4538,79,73,40
255.54471,255.72652,79,70,40
255.81743,256.09454,79,70,40
256.10046,256.37756,79,68,40
256.38345,256.67722,79,65,40
256.68347,257.00986,79,62,40
257.0168,257.384,79,59,40
257.3918,257.759,79,56,40
257.7668,258.18643,79,53,40
258.19537,258.68497,79,50,40
258.69537,258.76483,79,50,40
258.76483,258.83426,80,50,40
258.83426,258.90372,79,51,40
258.90372,258.97314,80,52,40
258.97314,259.0426,79,52,40
259.0426,259.11203,80,53,40
259.11203,259.1815,79,54,40
259.1815,259.25092,80,55,40
259.25092,259.32037,79,55,40
259.32037,259.3898,80,56,40
259.3898,259.45926,79,57,40
259.45926,259.52872,80,57,40
259.52872,259.59814,79,58,40
259.59814,259.6676,80,59,40
259.6676,259.73703,79,60,40
259.73703,259.8065,80,60,40
259.8065,259.87592,79,61,40
259.87592,259.94537,80,62,40
259.94537,260.0148,79,62,40
260.0148,260.08426,80,63,40
260.08426,260.15372,79,64,40
260.15372,260.22314,80,65,40
260.22314,260.2926,79,65,40
260.2926,260.36203,80,66,40
260.36203,260.4315,79,67,40
260.4315,260.50092,80,67,40
260.50092,260.57037,79,68,40
260.57037,260.6398,80,69,40
260.6398,260.70926,79,70,40
260.70926,260.77872,80,70,40
260.77872,260.84814,79,71,40
260.84814,260.9176,80,72,40
260.9176,260.98703,79,72,40
260.98703,261.0565,80,73,40
261.0565,261.12592,79,74,40
261.12592,261.19537,80,75,40
261.19537,261.2648,79,75,40
261.2648,261.33426,81,76,40
261.33426,261.40372,79,77,40
261.40372,261.47314,81,77,40
261.47314,261.5426,79,78,40
261.5426,261.61203,81,79,40
261.61203,261.6815,79,80,40
261.6815,261.75092,81,80,40
261.75092,261.82037,79,81,40
261.82037,261.8898,81,82,40
261.8898,261.95926,79,82,40
261.95926,262.02872,81,83,40
262.02872,262.09814,79,84,40
262.09814,262.1676,81,85,40
262.1676,262.23703,79,85,40
262.23703,262.3065,81,86,40
262.3065,262.37592,79,87,40
262.37592,262.44537,81,88,40
262.44537,262.5148,79,88,40
262.5148,262.58426,81,89,40
262.58426,262.65372,79,90,40
262.65372,262.72314,81,90,40
262.72314,262.7926,79,91,40
262.7926,262.86203,81,92,40
262.86203,262.9315,79,93,40
262.9315,263.00092,81,93,40
263.00092,263.07037,79,94,40
263.07037,263.1398,81,95,40
263.1398,263.20926,79,95,40
263.20926,263.27872,81,96,40
263.27872,263.34814,79,97,40
263.34814,263.4176,81,98,40
263.4176,263.48703,79,98,40
263.48703,263.5565,81,99,40
263.5565,263.62592,79,100,40
263.62592,263.69537,81,100,40
263.69537,263.7648,79,100,40
263.7648,263.83426,81,98,40
263.83426,263.90372,79,95,40
263.90372,263.97314,81,92,40
263.97314,264.0426,79,89,40
264.0426,264.11203,81,86,40
264.11203,264.1815,79,83,40
264.1815,264.25092,81,80,40
264.25092,264.32037,79,77,40
264.32037,264.3898,81,74,40
264.3898,264.45926,79,71,40
264.45926,264.52872,81,68,40
264.52872,264.59814,79,65,40
264.59814,264.6676,81,62,40
264.6676,264.73703,79,59,40
264.73703,264.8065,81,56,40
264.8065,264.87592,79,53,40
264.87592,264.94537,81,50,40
264.94537,265.0756,79,50,40
265.08426,265.21448,77,50,40
265.22314,265.35336,76,50,40
265.36203,265.49225,74,50,40
265.50092,265.63113,72,50,40
265.6398,265.77002,71,50,40
265.77872,265.9089,69,50,40
265.9176,266.0478,67,50,40
266.0565,266.18668,71,50,40
266.19537,266.60336,72,50,40
266.61203,267.02002,79,50,40
267.02872,267.17627,76,50,40
267.23703,267.3846,72,50,40
267.44537,267.64502,67,50,40
267.6537,268.68668,77,50,40
268.69537,269.10336,72,50,40
269.11203,269.52002,79,50,40
269.5287,269.67627,76,50,40
269.73703,269.8846,72,50,40
269.94537,270.14502,66,50,40
270.1537,271.18668,78,50,40
271.19537,271.4037,67,50,40
271.4037,271.61203,79,50,40
271.61203,271.82037,68,50,40
271.82037,272.02002,80,50,40
272.0287,272.1589,75,50,40
272.1676,272.2978,77,50,40
272.3065,272.43668,73,50,40
272.44537,272.57556,72,50,40
272.58426,272.71448,73,50,40
272.72314,272.85336,70,50,40
272.86203,272.99225,68,50,40
273.00092,273.13113,70,50,40
273.1398,273.27002,67,50,40
273.2787,273.4089,65,50,40
273.4176,273.5478,63,50,40
273.5565,273.68668,67,50,40
273.69537,273.82556,63,50,40
273.83426,273.96448,60,50,40
273.97314,274.10336,61,50,40
274.11203,274.24225,63,50,40
274.25092,274.38113,65,50,40
274.3898,274.52002,67,50,40
274.5287,274.6589,68,50,40
274.6676,274.7978,70,50,40
274.8065,274.93668,72,50,40
274.94537,275.07556,73,50,40
275.08426,275.21448,72,50,40
275.22314,275.35336,70,50,40
275.36203,275.49225,68,50,40
275.50092,275.63113,67,50,40
275.6398,275.77002,65,50,40
275.7787,275.9089,63,50,40
275.9176,276.0478,65,50,40
276.0565,276.18668,67,50,40
276.19537,276.32556,63,50,40
276.33426,276.46445,60,50,40
276.47314,276.60336,61,50,40
276.61203,276.74225,63,50,40
276.75092,276.88113,65,50,40
276.8898,277.02002,67,50,40
277.0287,277.1589,68,50,40
277.16757,277.2978,70,50,40
277.3065,277.43668,72,50,40
277.44537,277.57556,71,50,40
277.58426,277.71445,68,50,40
277.72314,277.85336,71,50,40
277.86203,277.99225,68,50,40
278.00092,278.13113,71,50,40
278.1398,278.27002,68,50,40
278.2787,278.4089,71,50,40
278.41757,278.5478,68,50,40
278.5565,278.68668,71,50,40
278.69537,278.82556,68,50,40
278.83426,278.96445,71,50,40
278.97314,279.10336,68,50,40
279.11203,279.24225,71,50,40
279.25092,279.38113,68,50,40
279.3898,279.52002,71,50,40
279.5287,279.6589,64,50,40
279.66757,279.7978,64,50,40
279.8065,279.93668,64,50,40
279.94537,280.07556,64,50,40
280.08426,280.21445,66,50,40
280.22314,280.35336,68,50,40
280.36203,280.49225,69,50,40
280.50092,280.63113,71,50,40
280.6398,280.77002,73,50,40
280.7787,280.9089,75,50,40
280.91757,281.0478,76,50,40
281.0565,281.18668,78,50,40
281.19537,281.32556,80,50,40
281.33426,281.46445,76,50,40
281.47314,281.60336,78,50,40
281.61203,281.74225,80,50,40
281.75092,281.88113,81,50,40
281.8898,282.02002,83,50,40
282.0287,282.1589,85,50,40
282.16757,282.2978,87,50,40
282.3065,282.43668,88,50,40
282.44537,282.57556,90,50,40
282.58426,282.71445,88,50,40
282.72314,282.85336,87,50,40
282.86203,282.99225,85,50,40
283.00092,283.13113,83,50,40
283.1398,283.27002,81,50,40
283.2787,283.4089,80,50,40
283.41757,283.5478,81,50,40
283.5565,283.68668,78,50,40
283.69537,283.82556,80,50,40
283.83426,283.96445,76,50,40
283.97314,284.10336,78,50,40
284.11203,284.24225,80,50,40
284.25092,284.38113,81,50,40
284.3898,284.52002,83,50,40
284.5287,284.66656,85,50,40
284.67575,284.81766,87,50,40
284.82742,284.9739,88,50,40
284.98367,285.13016,78,50,40
285.13992,285.2788,90,50,40
285.28748,285.4177,78,50,40
285.42636,285.55658,90,50,40
285.56525,285.69547,78,50,40
285.70413,285.83435,90,50,40
285.84302,285.97324,78,50,40
285.98193,286.11212,90,50,40
286.12082,286.251,78,50,40
286.2597,286.3899,90,50,40
286.3986,286.5288,78,50,40
286.53748,286.6677,90,50,40
286.67636,286.80658,79,50,40
286.81525,286.94547,91,50,40
286.95413,287.08435,79,50,40
287.09302,287.22324,91,50,40
287.23193,287.36212,79,50,40
287.37082,287.501,91,50,40
287.5097,287.6399,79,50,40
287.6486,287.7788,91,50,40
287.78748,287.9177,79,50,40
287.92636,288.05658,92,50,40
288.06525,288.19547,80,50,40
288.20413,288.33435,92,50,40
288.34302,288.47324,80,50,40
288.48193,288.61212,92,50,40
288.62082,288.751,80,50,40
288.7597,288.8899,92,50,40
288.8986,289.0288,80,50,40
289.03748,289.1677,92,50,40
289.17636,289.30658,80,50,40
289.31525,289.44547,92,50,40
289.45413,289.58435,80,50,40
289.59302,289.72324,92,50,40
289.73193,289.86212,80,50,40
289.87082,290.001,92,50,40
290.0097,290.1399,80,50,40
290.1486,290.2788,92,50,40
290.28748,290.4177,80,50,40
290.42636,290.56424,91,50,40
290.57343,290.7113,79,50,40
290.7205,290.85834,91,50,40
290.86755,291.01404,79,50,40
291.0238,291.17484,91,50,40
291.18524,291.3415,79,50,40
291.35193,293.03442,91,50,40
293.0431,293.86774,92,50,40
293.87643,295.11774,91,50,40
295.12643,295.95108,89,50,40
295.95975,296.09863,87,50,40
296.09863,296.23755,89,50,40
296.23755,296.37643,91,50,40
296.37643,296.58475,79,50,40
296.58475,296.7931,91,50,40
296.7931,297.00143,79,51,40
297.00143,297.20975,91,52,40
297.62643,297.83475,80,54,40
297.83475,298.0431,92,55,40
298.0431,298.25143,80,55,40
298.25143,298.45975,92,56,40
298.87643,299.08475,77,58,40
299.08475,299.2931,89,59,40
299.2931,299.50143,78,60,40
299.50143,299.70975,90,60,40
300.12643,300.33475,78,62,40
300.33475,300.5431,90,63,40
300.5431,300.75143,79,64,40
300.75143,300.95975,91,65,40
301.37643,301.7844,75,67,40
301.7931,302.20108,87,68,40
302.20975,302.35733,82,70,40
302.4181,302.56564,79,70,40
302.62643,303.0344,63,71,40
303.0431,303.45108,75,72,40
303.45975,303.60733,72,74,40
303.6681,303.81564,68,75,40
303.87643,304.2844,75,75,40
304.2931,304.70108,87,77,40
304.70975,304.85733,84,78,40
304.9181,305.06564,78,79,40
305.12643,305.5344,63,80,40
305.5431,305.95108,75,81,40
305.95975,306.10733,70,82,40
306.1681,306.31564,67,83,40
306.3764,306.7844,75,84,40
306.7931,307.20108,87,85,40
307.20975,307.35733,83,87,40
307.4181,307.56564,79,87,40
307.6264,308.0344,63,88,40
308.0431,308.45108,75,90,40
308.45975,308.60733,72,91,40
308.6681,308.81564,68,92,40
308.8764,309.2844,75,92,40
309.2931,309.70108,87,94,40
309.70975,309.85733,84,95,40
309.9181,310.06564,81,96,40
310.1264,310.5584,75,97,40
310.5676,311.02658,87,98,40
311.03635,311.21344,79,100,40
311.28635,311.46344,91,100,40
311.53635,311.96832,87,120,40
311.9775,312.3855,94,120,40
312.3942,312.54175,91,120,40
312.6025,312.7501,87,120,40
312.81085,314.0522,92,120,40
314.06085,314.46884,87,120,40
314.4775,314.8855,94,120,40
314.8942,315.04175,91,120,40
315.1025,315.2501,87,120,40
315.31085,316.5522,93,120,40
316.56085,316.96884,94,120,40
316.9775,317.3855,96,120,40
317.3942,317.54175,92,120,40
317.6025,317.7501,89,120,40
317.81085,318.21884,87,120,40
318.2275,318.6355,86,120,40
318.6442,318.79175,84,120,40
318.8525,319.0001,82,120,40
319.06085,319.46884,84,120,40
319.4775,319.8855,86,120,40
319.8942,320.04175,87,120,40
320.1025,320.2501,89,120,40
320.31085,320.74283,91,120,40
320.752,321.0938,92,110,40
321.22076,321.58536,89,98,40
321.72076,322.15277,63,70,40
322.16196,322.56995,70,70,40
322.5786,322.7262,67,70,40
322.78696,322.9345,63,70,40
322.99527,323.2036,58,70,40
323.2036,324.24527,68,70,40
324.24527,324.65326,63,75,40
324.66196,325.06995,70,78,40
325.0786,325.2262,67,80,40
325.28696,325.4345,63,81,40
325.49527,325.7036,69,82,40
325.7036,326.74527,81,84,40
326.74527,326.9536,70,89,40
326.9536,327.16196,82,91,40
327.16196,327.37027,72,92,40
327.37027,327.51785,84,93,40
327.5786,327.7262,80,94,40
327.78696,327.9345,77,95,40
327.99527,328.2036,75,96,40
328.2036,328.41196,87,98,40
328.41196,328.62027,74,99,40
328.62027,328.76785,86,100,40
328.8286,328.9762,84,101,40
329.03696,329.1845,82,102,40
329.24527,329.4536,72,103,40
329.4536,329.66196,84,105,40
329.66196,329.87027,74,106,40
329.87027,330.01785,86,107,40
330.0786,330.2262,87,108,40
330.28696,330.4345,89,109,40
330.49527,330.71588,79,110,40
330.71588,330.93646,91,110,40
330.93646,331.17084,80,110,40
331.17084,331.4052,92,110,40
331.4052,331.6552,77,110,40
331.6552,331.92307,89,110,40
331.92307,332.25452,87,70,40
332.3776,332.6901,87,70,40
333.23474,333.54724,91,70,40
333.66333,333.97583,92,70,40
338.3776,338.79724,79,80,40
338.80618,339.22583,80,84,40
339.23474,339.38654,77,87,40
339.44904,339.60083,74,89,40
339.66333,340.08295,82,91,40
340.0919,340.51154,84,94,40
340.52045,340.67224,80,98,40
340.73474,340.88654,77,100,40
340.94904,341.36868,87,102,40
341.3776,341.80957,89,105,40
341.8188,341.98224,82,109,40
342.04953,342.22662,86,110,40
342.29953,342.4416,87,120,40
342.45105,342.58932,86,120,40
342.59824,342.73218,84,120,40
342.7411,342.87503,82,120,40
342.88397,343.01788,80,120,40
343.02682,343.16074,79,120,40
343.16968,343.3036,84,120,40
343.31253,343.44647,82,120,40
343.45538,343.58932,80,120,40
343.59824,343.73218,79,120,40
343.7411,343.87503,77,120,40
343.88397,344.01788,75,120,40
344.02682,344.16074,74,120,40
344.16968,344.3036,72,120,40
344.31253,344.44647,70,120,40
344.45538,344.58932,72,120,40
344.59824,344.73218,74,120,40
344.7411,344.87503,70,120,40
344.88397,345.01788,75,120,40
345.02682,345.16074,74,120,40
345.16968,345.3036,72,120,40
345.31253,345.44647,70,120,40
345.45538,345.58932,68,120,40
345.59824,345.73218,67,120,40
345.7411,345.87503,72,120,40
345.88397,346.01788,70,120,40
346.02682,346.16074,68,120,40
346.16968,346.3036,67,120,40
346.31253,346.44644,65,120,40
346.45538,346.58932,63,120,40
346.59824,346.73218,62,120,40
346.7411,346.87503,60,120,40
346.88394,347.01788,58,120,40
347.02682,347.16074,60,120,40
347.16968,347.3036,62,120,40
347.31253,347.44644,58,120,40
347.45538,347.76788,63,120,40
347.88394,348.3036,55,120,40
347.88394,348.3036,63,120,40
347.88394,348.3036,75,120,40
349.16968,349.58932,77,120,40
349.16968,349.58932,70,120,40
349.16968,349.58932,62,120,40
350.45538,350.90045,63,120,40
350.45538,350.90045,70,120,40
350.45538,350.90045,79,120,40
351.81903,352.34357,70,120,40
351.81903,352.34357,82,120,40
352.89044,353.03693,70,50,40
353.0467,353.18732,72,50,40
353.19626,353.33017,70,50,40
353.3391,353.47302,71,50,40
353.48196,353.61588,72,50,40
353.62482,353.75876,71,50,40
353.76767,353.9016,70,50,40
353.91052,354.04446,72,50,40
354.05338,354.18732,70,50,40
354.19626,354.33017,70,50,40
354.3391,354.47302,72,50,40
354.48196,354.61588,70,50,40
354.62482,354.75876,71,50,40
354.76767,354.9016,72,50,40
354.91052,355.04446,71,50,40
355.05338,355.47302,70,50,40
355.48196,355.61588,70,50,40
355.62482,355.75876,72,50,40
355.76767,355.9016,74,50,40
355.91052,356.04446,75,50,40
356.05338,356.18732,77,50,40
356.19626,356.33017,79,50,40
356.3391,356.47302,80,50,40
356.48196,356.61588,82,50,40
356.62482,356.75876,84,50,40
356.76767,358.04446,86,50,40
358.05338,358.18732,70,50,40
358.19623,358.33017,72,50,40
358.3391,358.47302,70,50,40
358.48196,358.61588,71,50,40
358.62482,358.75873,72,50,40
358.76767,358.9016,71,50,40
358.91052,359.04446,70,50,40
359.05338,359.18732,72,50,40
359.19623,359.33017,70,50,40
359.3391,359.47302,70,50,40
359.48196,359.61588,72,50,40
359.62482,359.75873,70,50,40
359.76767,359.9016,71,50,40
359.91052,360.04446,72,50,40
360.05338,360.18732,71,50,40
360.19623,360.61588,70,50,40
360.62482,361.04446,75,50,40
361.05338,361.47302,82,50,40
361.48196,361.63373,79,50,40
361.69623,361.84802,75,50,40
361.91052,363.18732,81,50,40
363.19623,364.04446,82,50,40
364.48196,365.83224,81,110,40
365.84265,366.74228,82,100,40
367.2063,368.19586,70,120,40
367.2063,368.19586,77,120,40
367.2063,368.19586,86,120,40
368.7063,370.19586,70,120,40
368.7063,370.19586,79,120,40
368.7063,370.19586,87,120,40
372.2063,372.44586,63,1,40
0.0,0.16666667,67,110,40
0.0,0.16666667,55,110,40
0.25,0.41666666,67,110,40
0.5,1.2447916,68,110,40
1.25,1.4947916,65,90,40
1.5,1.7447916,62,70,40
1.75,1.9947916,63,70,40
2.0,2.2447917,59,70,40
2.25,2.4947917,60,70,40
2.5,2.7447917,57,70,40
2.75,2.9947917,58,70,40
3.0,3.2447917,55,70,40
3.25,3.4947917,56,70,40
3.5,3.753232,65,70,40
3.75862,7.776139,58,70,40
7.781347,7.901139,58,70,40
7.906347,8.026138,56,70,40
8.031347,8.276138,55,70,40
8.281347,9.526138,58,70,40
9.531347,9.776138,60,70,40
9.781347,10.026138,62,70,40
10.031347,10.276138,58,70,40
10.031347,10.276138,63,70,40
10.281347,10.526138,67,70,40
10.531347,10.776138,65,70,40
10.781347,11.026138,63,70,40
11.031347,11.5432,63,70,40
11.548587,11.815632,62,70,40
11.821314,12.088359,56,70,40
12.094041,12.338833,55,70,40
12.344041,15.838833,58,70,40
15.844041,15.963833,58,70,40
15.969041,16.088833,56,70,40
16.094042,16.338833,55,70,40
16.344042,17.588833,58,70,40
17.594042,17.838833,60,70,40
17.844042,18.088833,62,70,40
18.094042,18.838833,63,70,40
18.844042,18.967962,58,70,40
18.97335,19.097273,56,70,40
19.102661,19.369707,56,70,40
19.375387,19.65251,55,70,40
19.658405,19.952156,55,70,40
21.981133,22.225925,72,70,40
22.231133,22.293633,72,110,40
22.293633,22.356133,74,110,40
22.356133,22.475925,72,110,40
22.481133,22.725925,63,110,40
22.731133,22.793633,62,110,40
22.793633,22.856133,63,110,40
22.856133,22.975925,62,110,40
22.981133,23.225925,60,110,40
23.231133,23.295788,63,110,40
23.295788,23.360443,65,110,40
23.360443,23.484365,63,110,40
23.489754,23.756798,62,110,40
23.76248,24.05623,62,110,40
25.085207,25.329998,67,70,40
25.335207,25.579998,68,85,40
25.585207,25.829998,70,100,40
25.835207,26.079998,70,100,40
26.085207,26.329998,68,90,40
26.335207,26.579998,68,110,40
26.835207,26.897707,67,110,40
26.897707,26.960207,68,110,40
26.960207,27.079998,67,110,40
27.085207,27.33844,65,110,40
27.343826,27.610872,63,110,40
27.616554,27.893675,62,110,40
27.899572,28.193321,63,110,40
28.199572,28.71709,67,70,40
28.7223,28.96709,65,80,40
28.9723,29.21709,67,90,40
29.2223,29.46709,70,100,40
29.4723,29.71709,67,100,40
29.7223,29.96709,65,85,40
29.9723,30.21709,63,70,40
30.2223,30.34209,67,70,40
30.3473,30.46709,68,70,40
30.4723,30.638966,70,110,40
30.7223,30.84209,72,110,40
30.8473,30.96709,74,110,40
30.9723,31.138966,75,110,40
31.2223,31.34209,77,110,40
31.3473,31.46709,79,110,40
31.4723,31.72553,79,110,40
31.730919,31.997965,80,110,40
32.003647,32.203648,77,110,40
32.303646,32.57069,62,70,40
32.303646,32.57069,65,70,40
32.576374,32.821163,67,70,40
32.826374,33.071163,65,80,40
33.076374,33.321163,67,90,40
33.326374,33.571163,70,100,40
33.576374,33.821163,60,100,40
33.826374,34.071163,62,90,40
34.076374,34.321163,63,80,40
34.326374,34.446163,55,70,40
34.451374,34.571163,56,70,40
34.576374,34.74304,58,110,40
34.826374,34.946163,63,110,40
34.951374,35.071163,65,110,40
35.076374,35.24304,67,110,40
35.326374,35.446163,67,110,40
35.451374,35.571163,68,110,40
35.576374,35.74304,70,110,40
35.826374,35.946163,72,110,40
35.951374,36.071163,74,110,40
36.076374,36.248787,75,110,40
36.33499,36.470604,60,100,40
36.4765,36.612114,62,90,40
36.61801,37.112804,63,50,40
37.11801,37.237804,62,50,40
37.24301,37.362804,65,50,40
37.36801,37.487804,62,50,40
37.49301,37.612804,58,50,40
37.61801,37.862804,67,50,40
37.86801,38.112804,63,50,40
38.11801,38.237804,62,50,40
38.24301,38.362804,65,50,40
38.36801,38.487804,62,50,40
38.49301,38.612804,58,50,40
38.61801,38.862804,67,50,40
38.86801,39.237804,63,50,40
39.24301,39.362804,66,50,40
39.36801,39.487804,65,50,40
39.49301,39.612804,63,50,40
39.61801,39.737804,63,50,40
39.74301,39.862804,62,50,40
39.86801,39.987804,65,50,40
39.99301,40.112804,62,50,40
40.11801,40.237804,60,50,40
40.24301,40.362804,58,50,40
40.36801,40.487804,60,50,40
40.49301,40.612804,62,50,40
40.61801,40.862804,63,50,40
40.86801,43.112804,70,50,40
43.11801,43.612804,72,50,40
43.61801,43.862804,74,50,40
43.86801,44.112804,75,50,40
44.11801,44.362804,72,50,40
44.36801,44.612804,69,50,40
44.61801,44.737804,58,50,40
44.74301,44.862804,65,50,40
44.86801,44.987804,62,50,40
44.99301,45.112804,58,50,40
45.11801,45.612804,63,50,40
45.61801,45.737804,58,50,40
45.74301,45.862804,65,50,40
45.86801,45.987804,62,50,40
45.99301,46.112804,58,50,40
46.11801,46.612804,63,50,40
46.61801,46.737804,58,50,40
46.74301,46.862804,65,50,40
46.86801,46.987804,62,50,40
46.99301,47.112804,58,50,40
47.11801,47.612804,64,50,40
47.61801,47.862804,65,50,40
47.86801,48.112804,67,50,40
48.11801,48.362804,63,50,40
48.36801,48.612804,60,50,40
48.61801,48.737804,62,50,40
48.74301,48.862804,74,50,40
48.86801,48.987804,65,50,40
48.99301,49.112804,62,50,40
49.11801,49.612804,72,50,40
49.61801,49.737804,62,50,40
49.74301,49.862804,74,50,40
49.86801,49.987804,65,50,40
49.99301,50.112804,62,50,40
50.11801,50.612804,72,50,40
50.61801,50.737804,62,50,40
50.74301,50.862804,74,50,40
50.86801,50.987804,70,50,40
50.99301,51.112804,65,50,40
51.11801,51.612804,73,50,40
51.61801,52.112804,72,57,40
52.11801,52.862804,60,65,40
52.86801,53.112804,62,76,40
53.11801,53.362804,67,80,40
53.36801,53.612804,63,83,40
53.61801,53.862804,70,87,40
53.86801,54.112804,69,91,40
54.11801,54.362804,66,95,40
54.36801,54.487804,65,99,40
54.49301,54.612804,63,100,40
54.61801,54.78468,62,110,40
54.86801,55.03468,79,110,40
55.11801,55.28468,77,110,40
55.36801,55.53468,75,110,40
55.61801,55.78468,74,110,40
55.86801,56.03468,72,110,40
56.11801,56.28468,70,110,40
56.36801,56.53468,70,110,40
56.61801,56.78468,70,110,40
56.86801,57.03468,71,110,40
57.11801,57.28468,72,110,40
57.36801,57.487804,74,110,40
57.49301,57.612804,76,110,40
57.61801,57.78468,77,110,40
57.86801,58.03468,79,110,40
58.11801,58.28468,81,110,40
58.36801,58.487804,79,110,40
58.49301,58.612804,81,110,40
58.61801,58.78468,77,110,40
58.86801,59.03468,79,110,40
59.11801,59.28468,77,110,40
59.36801,59.53468,75,110,40
59.61801,59.78468,74,110,40
59.86801,60.03468,72,110,40
60.11801,60.28468,70,110,40
60.36801,60.53468,70,110,40
60.61801,60.78468,70,110,40
60.86801,61.03468,71,110,40
61.11801,61.28468,72,110,40
61.36801,61.53468,74,110,40
61.61801,61.78468,81,110,40
61.86801,62.03468,79,110,40
62.11801,62.28468,77,110,40
62.36801,62.53468,75,110,40
62.61801,62.78468,74,70,40
62.86801,63.03468,72,70,40
63.11801,63.28468,70,70,40
63.36801,63.53468,65,70,40
63.61801,63.78468,62,70,40
63.86801,64.034676,65,70,40
64.11801,64.29042,63,70,40
64.37663,64.55845,62,70,40
64.64936,64.816025,55,110,40
64.89936,65.066025,67,110,40
65.14936,65.316025,67,110,40
65.39936,65.566025,70,110,40
65.64936,65.816025,69,110,40
65.89936,66.07177,64,110,40
66.157974,66.3398,65,110,40
66.4307,66.63071,58,110,40
66.4307,66.63071,64,110,40
68.282425,68.45484,55,110,40
68.282425,68.45484,67,110,40
68.541046,68.713455,79,110,40
70.35139,70.523796,62,110,40
70.61001,70.78242,74,110,40
71.385864,71.55828,63,110,40
71.644485,71.816895,75,110,40
72.42034,72.602165,65,110,40
72.69307,72.87489,77,110,40
72.9658,73.13247,75,120,40
73.2158,73.38247,76,120,40
73.4658,73.960594,76,120,40
73.4658,73.960594,79,120,40
73.9658,74.13247,75,120,40
74.2158,74.38247,76,120,40
74.4658,74.960594,76,120,40
74.4658,74.960594,79,120,40
74.9658,75.13247,75,120,40
75.2158,75.38247,76,120,40
75.4658,75.960594,76,120,40
75.4658,75.960594,79,120,40
75.9658,76.210594,77,120,40
76.2158,76.335594,77,120,40
76.3408,76.460594,75,120,40
76.4658,76.63247,74,120,40
76.7158,76.835594,72,120,40
76.8408,76.960594,70,120,40
76.9658,77.13247,75,120,40
77.2158,77.38247,76,120,40
77.4658,77.960594,76,120,40
77.4658,77.960594,79,120,40
77.9658,78.13247,75,120,40
78.2158,78.38247,76,120,40
78.4658,78.960594,76,120,40
78.4658,78.960594,79,120,40
78.9658,79.13247,75,120,40
79.2158,79.38247,76,120,40
79.4658,79.960594,76,120,40
79.4658,79.960594,79,120,40
79.9658,80.210594,70,120,40
80.2158,80.460594,70,120,40
80.4658,80.710594,74,120,40
80.7158,80.835594,72,120,40
80.8408,80.960594,70,120,40
80.9658,81.085594,74,110,40
81.0908,81.210594,72,110,40
81.2158,81.335594,71,110,40
81.3408,81.460594,72,110,40
81.4658,81.710594,72,110,40
81.7158,81.960594,72,110,40
81.9658,82.085594,72,110,40
82.0908,82.210594,70,110,40
82.2158,82.335594,69,110,40
82.3408,82.460594,70,110,40
82.4658,82.710594,70,110,40
84.7158,84.835594,75,110,40
84.8408,84.960594,74,110,40
84.9658,85.085594,74,110,40
85.0908,85.210594,72,110,40
85.2158,85.335594,71,110,40
85.3408,85.460594,72,110,40
85.4658,85.710594,72,110,40
85.7158,85.960594,72,110,40
85.9658,86.085594,72,110,40
86.0908,86.210594,70,110,40
86.2158,86.335594,69,110,40
86.3408,86.460594,70,110,40
86.4658,86.710594,70,110,40
88.7158,88.96474,84,70,40
88.97004,89.09186,82,70,40
89.09715,89.21898,80,70,40
89.22427,89.34609,79,70,40
89.351395,89.47321,80,70,40
89.47851,89.663895,79,70,40
89.73275,89.91813,80,70,40
89.986984,90.1088,79,70,40
90.114105,90.23592,77,70,40
90.24122,90.363045,75,70,40
90.36834,90.49016,77,70,40
90.49546,90.68084,75,70,40
90.749695,90.87151,80,70,40
90.876816,90.998634,79,70,40
91.00393,91.125755,79,70,40
91.13105,91.25287,77,70,40
91.25817,91.37999,76,70,40
91.385284,91.50711,77,70,40
91.512405,91.697784,77,70,40
91.76664,91.95203,77,70,40
92.02088,92.1427,77,70,40
92.147995,92.26982,75,70,40
92.275116,92.39694,74,70,40
92.40224,92.524055,75,70,40
92.52935,92.71474,75,70,40
92.78359,92.97217,75,60,40
93.04221,93.16613,77,50,40
93.171524,93.29544,75,50,40
93.300835,93.42475,74,50,40
93.43014,93.55406,75,50,40
93.55945,93.74803,75,50,40
93.81807,94.00996,75,50,40
94.08123,94.20732,77,50,40
94.21281,94.338905,75,50,40
94.34438,94.47048,74,50,40
94.47596,94.60206,75,50,40
94.607544,94.79943,75,50,40
94.8707,95.06601,75,50,40
95.13856,95.26691,77,50,40
95.272484,95.40083,75,53,40
95.40641,95.53476,74,57,40
95.540344,95.668686,75,60,40
95.67427,95.86958,75,64,40
95.94212,96.14099,75,71,40
96.21485,96.345535,77,79,40
96.35122,96.481895,75,82,40
96.48758,96.61826,74,86,40
96.62395,96.75462,75,89,40
96.76031,96.959175,75,93,40
97.033035,97.231895,75,100,40
97.30576,97.47243,67,110,40
97.30576,97.47243,55,110,40
97.55576,97.72243,67,110,40
97.80576,98.55055,68,110,40
98.55576,98.80055,65,95,40
98.80576,99.05055,62,70,40
99.05576,99.30055,63,70,40
99.30576,99.55055,59,70,40
99.55576,99.80055,60,70,40
99.80576,100.05055,57,70,40
100.05576,100.30055,58,70,40
100.30576,100.55055,55,70,40
100.55576,100.80055,56,70,40
100.80576,101.05055,65,60,40
101.05576,101.30055,70,60,40
101.30576,101.55055,65,60,40
101.55576,101.80055,67,60,40
101.80576,102.05055,63,60,40
103.05576,103.30055,67,60,40
103.30576,103.55055,67,60,40
103.55576,103.80055,68,60,40
103.80576,104.05055,60,60,40
104.05576,104.30055,67,60,40
104.30576,104.80055,62,60,40
104.80576,106.05055,60,60,40
106.05576,106.55055,77,60,40
106.55576,106.72243,76,60,40
106.80576,106.97243,76,60,40
107.05576,107.22243,76,60,40
107.30576,107.47243,76,50,40
107.55576,107.72243,79,50,40
107.55576,107.72243,76,50,40
107.80576,107.97243,79,50,40
107.80576,107.97243,76,50,40
108.05576,108.22243,79,50,40
108.05576,108.22243,76,50,40
108.30576,108.47243,76,50,40
108.30576,108.47243,79,50,40
108.55576,108.72243,76,50,40
108.55576,108.72243,79,50,40
108.80576,108.97243,74,50,40
108.80576,108.97243,79,50,40
109.05576,109.22243,72,50,40
109.05576,109.22243,79,50,40
109.30576,109.47243,77,50,40
109.55576,109.72243,76,50,40
109.80576,109.97243,83,50,40
110.05576,110.22243,84,50,40
110.30576,110.47243,83,50,40
110.55576,110.72243,79,50,40
110.80576,110.97817,79,50,40
111.064384,111.2462,79,50,40
111.33711,111.5194,67,110,40
111.33711,111.5194,75,110,40
111.58711,111.7694,67,110,40
111.83711,112.0194,65,110,40
112.08711,112.2694,63,110,40
112.33711,112.5194,62,110,40
112.58711,112.7694,60,110,40
112.83711,113.0194,58,110,40
113.08711,113.2694,60,110,40
113.33711,113.5194,60,110,40
113.58711,113.7694,72,110,40
113.83711,114.0194,72,110,40
114.08711,114.2694,72,110,40
114.33711,114.5819,72,110,40
114.58711,114.7069,74,110,40
114.71211,114.8319,75,110,40
114.83711,115.00378,77,110,40
115.08711,115.25378,75,110,40
115.33711,115.50378,75,110,40
115.58711,115.75378,74,110,40
115.83711,115.89961,74,110,40
115.89961,116.0194,72,110,40
116.08711,116.25378,71,110,40
116.33711,116.39961,71,110,40
116.39961,116.5194,68,110,40
116.58711,116.75378,67,110,40
116.83711,117.00378,66,110,40
117.08711,117.25378,67,110,40
117.33711,117.50378,67,110,40
117.58711,117.75378,67,110,40
117.83711,118.00378,67,110,40
118.08711,118.25378,67,110,40
118.33711,118.5819,67,110,40
118.58711,118.7069,69,110,40
118.71211,118.8319,71,110,40
118.83711,119.00378,72,110,40
119.08711,119.25378,71,110,40
119.33711,119.5819,71,110,40
119.58711,119.7069,72,110,40
119.71211,119.8319,74,110,40
119.83711,120.00378,75,110,40
120.08711,120.25378,74,110,40
120.33711,120.59034,74,110,40
120.595726,120.72641,75,110,40
120.73209,120.86278,77,110,40
120.868454,121.05714,79,110,40
121.151474,121.35147,59,110,40
121.45148,121.61814,72,50,40
121.70148,121.86814,72,50,40
121.95148,122.11814,72,50,40
122.20148,122.36814,72,50,40
122.45148,122.696266,72,50,40
122.70148,122.821266,74,50,40
122.82648,122.946266,75,50,40
122.95148,123.11814,77,50,40
123.20148,123.36814,75,50,40
123.45148,123.946266,71,50,40
123.95148,124.446266,72,50,40
124.45148,124.946266,71,50,40
124.95148,125.446266,67,50,40
125.45148,125.571266,60,50,40
125.57648,125.696266,67,53,40
125.70148,125.821266,64,57,40
125.82648,125.946266,60,60,40
125.95148,126.446266,68,64,40
126.45148,126.571266,60,79,40
126.57648,126.696266,67,82,40
126.70148,126.821266,64,86,40
126.82648,126.946266,60,89,40
126.95148,127.446266,70,93,40
126.95148,127.446266,67,93,40
127.45148,127.61814,68,110,40
127.70148,127.86814,72,110,40
127.70148,127.86814,77,110,40
127.95148,128.11813,72,110,40
127.95148,128.11813,76,110,40
128.20148,128.36813,72,90,40
128.20148,128.36813,76,90,40
128.45148,128.61813,72,70,40
128.45148,128.61813,76,70,40
128.70148,128.86813,72,70,40
128.70148,128.86813,76,70,40
128.95148,129.11813,72,70,40
128.95148,129.11813,76,70,40
129.20148,129.36813,72,70,40
129.20148,129.36813,76,70,40
129.45148,129.61813,72,70,40
129.45148,129.61813,76,70,40
129.70148,129.86813,72,70,40
129.70148,129.86813,76,70,40
129.95148,130.11813,72,70,40
129.95148,130.11813,76,70,40
130.20148,130.36813,72,70,40
130.20148,130.36813,76,70,40
130.45148,130.61813,72,70,40
130.45148,130.61813,76,70,40
130.70148,130.86813,72,70,40
130.70148,130.86813,76,70,40
130.95148,131.11813,72,70,40
130.95148,131.11813,76,70,40
131.20148,131.36813,72,70,40
131.20148,131.36813,76,70,40
131.45148,131.61813,72,110,40
131.45148,131.61813,77,110,40
131.70148,131.86813,72,110,40
131.70148,131.86813,77,110,40
131.95148,132.11813,72,110,40
131.95148,132.11813,76,110,40
132.20148,132.36813,72,110,40
132.20148,132.36813,76,110,40
132.45148,132.61813,72,70,40
132.45148,132.61813,76,70,40
132.70148,132.86813,72,70,40
132.70148,132.86813,76,70,40
132.95148,133.11813,72,70,40
132.95148,133.11813,76,70,40
133.20148,133.36813,72,70,40
133.20148,133.36813,76,70,40
133.45148,133.61813,72,70,40
133.45148,133.61813,76,70,40
133.70148,133.86813,72,70,40
133.70148,133.86813,76,70,40
133.95148,134.11813,72,70,40
133.95148,134.11813,76,70,40
134.20148,134.36813,72,70,40
134.20148,134.36813,76,70,40
134.45148,134.61813,72,70,40
134.45148,134.61813,76,70,40
134.70148,134.86813,72,70,40
134.70148,134.86813,76,70,40
134.95148,135.11813,72,70,40
134.95148,135.11813,76,70,40
135.20148,135.36813,72,70,40
135.20148,135.36813,76,70,40
135.45148,135.57126,75,70,40
135.57648,135.69626,84,70,40
135.70148,135.82126,77,70,40
135.82648,135.94626,75,70,40
135.95148,136.44626,74,70,40
136.45148,136.57126,73,70,40
136.57648,136.69626,82,70,40
136.70148,136.82126,75,70,40
136.82648,136.94626,73,70,40
136.95148,137.57126,72,70,40
137.57648,137.69626,80,70,40
137.70148,137.82126,73,70,40
137.82648,137.94626,72,70,40
137.95148,138.69626,70,70,40
138.70148,139.07126,72,72,40
139.07648,139.19626,80,76,40
139.20148,139.32126,77,78,40
139.32648,139.44626,72,79,40
139.45148,140.07126,70,80,40
140.07648,140.19626,79,87,40
140.20148,140.32126,75,88,40
140.32648,140.44626,70,90,40
140.45148,141.07126,68,91,40
141.07648,141.19626,77,98,40
141.20148,141.32126,73,99,40
141.32648,141.44626,68,100,40
141.45148,141.94626,68,100,40
141.95148,142.07126,65,90,40
142.07648,142.19626,71,87,40
142.20148,142.32126,68,84,40
142.32648,142.44626,65,81,40
142.45148,142.94626,67,79,40
142.95148,143.07126,63,68,40
143.07648,143.19626,72,65,40
143.20148,143.32126,68,62,40
143.32648,143.44626,63,60,40
143.45148,143.57126,62,50,40
143.57648,143.69626,68,50,40
143.70148,143.82126,65,50,40
143.82648,143.94626,62,50,40
143.95148,144.07126,61,50,40
144.07648,144.19626,67,50,40
144.20148,144.32126,64,50,40
144.32648,144.44626,61,50,40
144.45148,144.57126,64,50,40
144.57648,144.69626,70,50,40
144.70148,144.82126,67,50,40
144.82648,144.94626,64,50,40
144.95148,145.07126,67,50,40
145.07648,145.19626,73,50,40
145.20148,145.32126,70,50,40
145.32648,145.44626,67,50,40
145.45148,145.57126,72,70,40
145.57648,145.69626,80,70,40
145.70148,145.82126,75,70,40
145.82648,145.94626,72,70,40
145.95148,146.44626,77,70,40
146.45148,146.57126,72,70,40
146.57648,146.69626,80,70,40
146.70148,146.82126,75,70,40
146.82648,146.94626,72,70,40
146.95148,147.44626,77,70,40
147.45148,147.57126,72,70,40
147.57648,147.69626,80,70,40
147.70148,147.82126,75,70,40
147.82648,147.94626,72,70,40
147.95148,148.19626,77,70,40
148.20148,148.69626,65,85,40
148.70148,149.19626,63,86,40
149.20148,149.32126,65,70,40
149.32648,149.44626,67,70,40
149.45148,149.69626,63,70,40
149.70148,149.94626,70,70,40
149.95148,150.19626,68,70,40
150.20148,150.44626,67,70,40
150.45148,150.69626,68,70,40
150.70148,150.94626,70,70,40
150.95148,151.19626,72,70,40
151.20148,151.44626,73,70,40
151.45148,151.69626,75,70,40
151.70148,151.94626,72,70,40
151.95148,152.19626,70,70,40
152.20148,152.44626,68,70,40
152.45148,152.69626,63,70,40
152.70148,152.94626,74,70,40
152.95148,153.19626,75,70,40
153.20148,153.44626,73,70,40
153.45148,153.94626,72,70,40
153.95148,154.44626,67,70,40
154.45148,154.94626,72,70,40
154.95148,155.44626,67,70,40
155.45148,155.94626,72,70,40
155.95148,156.44626,65,87,40
156.45148,156.69626,67,100,40
156.70148,157.20471,63,85,40
157.2101,157.34077,65,70,40
157.34645,157.47714,67,70,40
157.48282,157.73177,68,70,40
157.73706,157.986,70,70,40
157.9913,158.24023,72,70,40
158.24553,158.49448,73,70,40
158.49977,158.7487,72,70,40
158.75401,159.00294,58,70,40
159.00824,159.25719,56,70,40
159.26248,159.51141,55,70,40
158.75401,159.76994,63,70,40
159.51672,159.76994,56,70,40
159.77533,160.02856,65,70,40
160.03395,160.29163,64,70,40
160.29712,160.55939,63,70,40
160.56497,160.83202,63,70,40
160.83769,161.04407,68,70,40
161.12071,161.39784,68,70,40
164.42159,164.67482,58,70,40
164.6802,164.94725,56,70,40
164.95294,165.23006,55,70,40
165.23596,165.52971,55,70,40
166.55869,166.80348,68,100,40
166.80869,167.05348,60,100,40
167.05869,167.30348,58,90,40
167.30869,167.55348,56,80,40
167.55869,167.80348,64,70,40
167.80869,168.05348,65,70,40
168.05869,168.30348,63,71,40
168.30869,168.42848,63,72,40
168.43369,168.55348,61,73,40
168.55869,168.6826,60,73,40
168.68799,168.81192,58,74,40
168.8173,169.08435,56,75,40
169.09003,169.35707,55,76,40
169.36276,169.6298,60,77,40
169.63548,169.76616,70,79,40
169.77185,169.90253,67,79,40
169.90822,170.153,68,80,40
170.15822,170.403,67,81,40
170.40822,170.653,68,83,40
170.65822,170.903,72,84,40
170.90822,171.153,60,85,40
171.15822,171.403,58,87,40
171.40822,171.653,56,88,40
171.65822,171.778,55,89,40
171.78322,171.903,79,90,40
171.90822,172.153,80,91,40
172.15822,172.278,79,92,40
172.28322,172.403,77,93,40
172.40822,172.528,77,93,40
172.53322,172.653,75,94,40
172.65822,172.778,75,95,40
172.78322,172.903,74,95,40
172.90822,173.153,77,96,40
173.15822,173.403,75,97,40
173.40822,173.653,75,99,40
173.65822,173.778,67,100,40
173.78322,173.903,55,101,40
173.90822,174.153,63,101,40
174.15822,174.403,61,103,40
174.40822,174.653,60,104,40
174.65822,174.903,68,105,40
174.90822,175.153,72,107,40
175.15822,175.403,70,108,40
175.40822,175.653,68,109,40
175.65822,175.903,75,110,40
175.90822,176.153,77,110,40
176.15822,176.403,75,110,40
176.40822,176.53214,75,110,40
176.53752,176.66144,73,110,40
176.66682,176.79076,72,110,40
176.79614,176.92006,70,110,40
176.92545,177.17868,68,110,40
177.18407,177.308,67,84,40
177.31339,177.4373,61,70,40
177.44269,177.69592,58,70,40
177.70131,177.95454,67,70,40
177.95993,178.21317,63,70,40
178.21855,178.73041,63,70,40
178.7358,178.98903,64,70,40
178.99442,179.24765,65,70,40
179.25304,179.76488,65,72,40
179.77026,180.28212,67,78,40
180.2875,181.3166,67,84,40
181.32199,182.35109,69,95,40
182.35648,183.38556,71,96,40
183.39095,184.42004,71,77,40
184.42543,184.94633,71,59,40
184.9519,185.49196,70,50,40
184.9519,185.49196,77,50,40
185.49754,186.56339,70,50,40
185.49754,186.56339,77,50,40
186.56897,187.63481,70,50,40
186.56897,187.63481,77,50,40
187.6404,188.48502,70,50,40
187.6404,188.48502,77,50,40
188.49127,188.75356,70,50,40
188.49127,188.75356,79,50,40
188.75912,189.00392,75,50,40
189.00912,189.12892,72,50,40
189.13412,189.25392,77,50,40
189.25912,189.37892,74,50,40
189.38412,189.75392,70,50,40
189.75912,190.00392,75,50,40
190.00912,190.12892,72,50,40
190.13412,190.25392,77,50,40
190.25912,190.37892,74,50,40
190.38412,190.75392,70,50,40
190.75912,191.12892,75,50,40
191.13412,191.25392,78,58,40
191.25912,191.37892,77,66,40
191.38412,191.50392,75,75,40
191.50912,191.75392,73,83,40
191.75912,192.25392,72,100,40
192.25912,192.50392,72,80,40
192.50912,192.75392,72,70,40
192.75912,193.00392,70,70,40
193.00912,193.25392,66,70,40
193.25912,193.50392,65,70,40
193.50912,193.75392,67,70,40
193.75912,194.25392,70,70,40
194.25912,194.50392,74,70,40
194.50912,194.75392,75,70,40
194.75912,195.00392,79,70,40
195.00912,195.25392,77,70,40
195.25912,195.50392,75,70,40
195.50912,196.00392,75,70,40
196.00912,196.25392,74,70,40
196.25912,196.50392,65,70,40
196.25912,196.62892,58,70,40
196.50912,196.62892,67,70,40
196.63412,196.75392,70,70,40
196.75912,196.87892,67,70,40
196.88412,197.00392,63,70,40
197.00912,197.50392,68,70,40
197.50912,197.62892,67,70,40
197.63412,197.75392,70,70,40
197.75912,197.87892,67,70,40
197.88412,198.00392,63,70,40
198.00912,198.50392,68,70,40
198.50912,198.62892,67,70,40
198.63412,198.75392,70,70,40
198.75912,198.87892,67,70,40
198.88412,199.00392,63,70,40
199.00912,199.50392,69,70,40
199.50912,199.75392,70,100,40
199.75912,200.00392,84,92,40
200.00912,200.25392,80,83,40
200.25912,200.50392,77,74,40
200.50912,200.75392,75,70,40
200.75912,201.00392,74,74,40
201.00912,201.25392,72,78,40
201.25912,201.50392,70,83,40
201.50912,201.75392,72,87,40
201.75912,202.00392,74,92,40
202.00912,202.25392,75,96,40
202.25912,202.50392,77,100,40
202.50912,202.75392,79,70,40
202.75912,203.00392,82,70,40
203.00912,203.25392,80,70,40
203.25912,203.50392,77,70,40
203.50912,203.75392,77,70,40
203.75912,203.94142,75,70,40
204.00912,204.19142,75,70,40
204.25912,204.34767,79,70,40
204.38412,204.47267,80,70,40
204.50912,204.62892,82,70,40
204.63412,204.75392,80,74,40
204.75912,204.87892,80,78,40
204.88412,205.00392,79,83,40
205.00912,205.12892,79,87,40
205.13412,205.25392,77,92,40
205.25912,205.37892,75,96,40
205.38412,205.50392,74,100,40
205.50912,205.62892,72,100,40
205.63412,205.75392,70,94,40
205.75912,205.87892,72,88,40
205.88412,206.00392,74,82,40
206.00912,206.12892,75,76,40
206.13412,206.25392,75,70,40
206.25912,206.37892,77,110,40
206.38412,206.50392,79,110,40
206.50912,206.62892,80,110,40
206.63412,206.75392,79,110,40
206.75912,206.87892,79,110,40
206.88412,207.00392,77,110,40
207.00912,207.12892,77,110,40
207.13412,207.25392,75,110,40
207.25912,207.37892,75,110,40
207.38412,207.50392,77,110,40
207.50912,207.62892,77,110,40
207.63412,207.75392,79,110,40
207.75912,207.87892,77,110,40
207.88412,208.00392,75,110,40
208.00912,208.12892,75,110,40
208.13412,208.25392,74,90,40
208.25912,208.37892,79,70,40
208.38412,208.50392,77,70,40
208.50912,208.62892,82,70,40
208.63412,208.75392,80,74,40
208.75912,208.87892,80,78,40
208.88412,209.00392,79,83,40
209.00912,209.12892,79,87,40
209.13412,209.25392,77,92,40
209.25912,209.37892,75,96,40
209.38412,209.50392,74,100,40
209.50912,209.62892,72,100,40
209.63412,209.75392,70,93,40
209.75912,209.87892,72,85,40
209.88412,210.00392,74,77,40
210.00912,210.12892,74,70,40
210.13412,210.25392,75,70,40
210.25912,210.37892,70,70,40
210.38412,210.50392,71,90,40
210.50912,210.62892,71,110,40
210.63412,210.75392,72,110,40
210.75912,210.87892,72,110,40
210.88412,211.00392,74,110,40
211.00912,211.12892,74,110,40
211.13412,211.25392,75,110,40
211.25912,211.37892,75,110,40
211.38412,211.50392,77,110,40
211.50912,211.62892,77,110,40
211.63412,211.75392,79,110,40
211.75912,211.87892,77,110,40
211.88412,212.00392,74,110,40
212.00912,212.25392,75,110,40
212.25912,212.50392,70,70,40
212.50912,212.75392,75,70,40
212.75912,213.00392,74,78,40
213.00912,213.25392,75,87,40
213.25912,213.50392,79,96,40
213.50912,213.75392,70,100,40
213.75912,214.00392,68,85,40
214.00912,214.25392,67,70,40
214.25912,214.50392,75,70,40
214.50912,214.57162,75,110,40
214.57162,214.63412,77,110,40
214.63412,214.75392,75,110,40
214.75912,215.00392,72,110,40
215.00912,215.07162,70,110,40
215.07162,215.13412,72,110,40
215.13412,215.25392,70,110,40
215.25912,215.50392,69,110,40
215.50912,215.57162,72,110,40
215.57162,215.63412,74,110,40
215.63412,215.75392,72,110,40
215.75912,215.94142,70,110,40
216.00912,216.19142,70,110,40
216.25912,216.50392,70,70,40
216.50912,216.75392,75,70,40
216.75912,217.00392,74,78,40
217.00912,217.25392,75,87,40
217.25912,217.50392,79,96,40
217.50912,217.75392,70,100,40
217.75912,218.00392,68,80,40
218.00912,218.25392,67,70,40
218.25912,218.50392,75,70,40
218.50912,218.75392,75,110,40
218.75912,219.00392,72,110,40
219.00912,219.07162,70,110,40
219.07162,219.13412,72,110,40
219.13412,219.25392,70,110,40
219.25912,219.50392,68,110,40
219.50912,219.76236,67,110,40
219.76775,219.8961,68,110,40
219.90167,219.99655,65,110,40
220.03561,220.13585,63,110,40
220.17711,220.31273,70,110,40
220.31862,220.44698,72,110,40
220.45256,220.5809,68,110,40
220.58649,220.75742,67,110,40
220.8429,221.00955,72,110,40
221.0929,221.25955,70,110,40
221.3429,221.50955,68,110,40
221.5929,221.75955,67,110,40
221.8429,222.00955,65,110,40
222.0929,222.25955,63,110,40
222.3429,222.50955,63,110,40
222.5929,222.75955,63,110,40
222.8429,222.96268,70,110,40
222.9679,223.08768,72,110,40
223.0929,223.25955,74,110,40
223.3429,223.50955,75,110,40
223.5929,223.75955,74,110,40
223.8429,224.00955,72,110,40
224.0929,224.25955,74,110,40
225.5929,225.75955,63,110,40
225.8429,226.00955,75,110,40
226.0929,226.25955,75,110,40
226.3429,226.50955,75,110,40
226.5929,226.75955,75,110,40
226.8429,227.00955,75,110,40
227.0929,227.25955,77,110,40
227.3429,227.50955,79,110,40
227.5929,227.75955,70,110,40
227.8429,228.00955,72,110,40
228.0929,228.25955,70,110,40
228.3429,228.50955,68,110,40
228.5929,228.6554,68,70,40
228.6554,228.77518,67,70,40
228.8429,229.00955,65,70,40
229.0929,229.1554,65,70,40
229.1554,229.27518,63,70,40
229.3429,229.50955,58,70,40
229.5929,229.83768,55,70,40
230.5929,230.75955,80,110,40
230.8429,231.00955,79,110,40
231.0929,231.25955,77,110,40
231.3429,231.50955,75,110,40
231.5929,231.75955,74,110,40
231.8429,232.01382,72,110,40
232.0993,232.27473,70,110,40
232.36246,232.54428,63,110,40
232.36246,232.54428,69,110,40
234.1438,234.31047,60,110,40
234.3938,234.56047,72,110,40
236.1438,236.31047,67,110,40
236.3938,236.56047,79,110,40
237.1438,237.31047,68,110,40
237.3938,237.56047,80,110,40
238.1438,238.31622,70,110,40
238.40242,238.58424,82,110,40
238.67516,238.84181,68,110,40
238.92516,239.09181,69,110,40
239.17516,239.66994,69,110,40
239.17516,239.66994,72,110,40
239.67516,239.84181,68,110,40
239.92516,240.09181,69,110,40
240.17516,240.66994,69,110,40
240.17516,240.66994,72,110,40
240.67516,240.84181,68,110,40
240.92516,241.09181,69,110,40
241.17516,241.66994,69,110,40
241.17516,241.66994,72,110,40
241.67516,241.91994,70,110,40
241.67516,241.91994,82,110,40
241.92516,242.04494,82,110,40
242.05016,242.16994,80,110,40
242.17516,242.34181,79,110,40
242.42516,242.54494,77,110,40
242.55016,242.66994,75,110,40
242.67516,242.84181,80,110,40
242.92516,243.09181,69,110,40
242.92516,243.09181,81,110,40
243.17516,243.66994,69,110,40
243.17516,243.66994,84,110,40
243.67516,243.84181,80,110,40
243.92516,244.09181,69,110,40
243.92516,244.09181,81,110,40
244.17516,244.66994,69,110,40
244.17516,244.66994,84,110,40
244.67516,244.84181,80,110,40
244.92516,245.09181,69,110,40
244.92516,245.09181,81,110,40
245.17516,245.66994,69,110,40
245.17516,245.66994,84,110,40
245.67516,245.79494,70,110,40
245.80016,245.91994,82,110,40
245.92516,246.04494,82,110,40
246.05016,246.16994,80,110,40
246.17516,246.34181,79,110,40
246.42516,246.54494,77,110,40
246.55016,246.66994,75,110,40
246.67516,246.79494,79,110,40
246.80016,246.91994,77,110,40
246.92516,247.04494,76,110,40
247.05016,247.16994,77,110,40
247.17516,247.34181,77,110,40
247.42516,247.59181,77,110,40
247.67516,247.79494,77,110,40
247.80016,247.91994,75,110,40
247.92516,248.04494,74,110,40
248.05016,248.16994,75,110,40
248.17516,248.41994,75,110,40
250.42516,250.54494,80,110,40
250.55016,250.66994,77,110,40
250.67516,250.79494,79,110,40
250.80016,250.91994,77,110,40
250.92516,251.04494,76,110,40
251.05016,251.16994,77,110,40
251.17516,251.34181,77,110,40
251.42516,251.59181,77,110,40
251.67516,251.79494,77,110,40
251.80016,251.91994,75,110,40
251.92516,252.04494,74,110,40
252.05016,252.16994,75,110,40
252.17516,252.34181,75,110,40
252.42516,252.59181,79,107,40
252.67516,252.79494,79,104,40
252.80016,252.91994,77,103,40
252.92516,253.04494,76,101,40
253.05016,253.16994,77,99,40
253.17516,253.34465,77,98,40
253.4294,253.6018,77,95,40
253.688,253.81194,79,92,40
253.81732,253.94124,77,90,40
253.94662,254.07056,76,88,40
254.07594,254.19986,77,87,40
254.20525,254.38069,77,85,40
254.46841,254.64697,77,82,40
254.73627,254.86461,77,79,40
254.8702,254.99854,75,77,40
255.00412,255.13246,74,76,40
255.13805,255.2664,75,74,40
255.27197,255.4538,75,73,40
255.54471,255.72652,75,70,40
255.81743,256.09454,75,70,40
256.10046,256.37756,75,68,40
256.38345,256.67722,75,65,40
256.68347,257.00986,75,62,40
257.0168,257.384,76,59,40
257.3918,257.759,76,56,40
257.7668,258.18643,76,53,40
258.19537,258.68497,76,50,40
258.69537,258.76483,76,50,40
258.76483,258.83426,77,50,40
258.83426,258.90372,76,51,40
258.90372,258.97314,77,52,40
258.97314,259.0426,76,52,40
259.0426,259.11203,77,53,40
259.11203,259.1815,76,54,40
259.1815,259.25092,77,55,40
259.25092,259.32037,76,55,40
259.32037,259.3898,77,56,40
259.3898,259.45926,76,57,40
259.45926,259.52872,77,57,40
259.52872,259.59814,76,58,40
259.59814,259.6676,77,59,40
259.6676,259.73703,76,60,40
259.73703,259.8065,77,60,40
259.8065,259.87592,76,61,40
259.87592,259.94537,77,62,40
259.94537,260.0148,76,62,40
260.0148,260.08426,77,63,40
260.08426,260.15372,76,64,40
260.15372,260.22314,77,65,40
260.22314,260.2926,76,65,40
260.2926,260.36203,77,66,40
260.36203,260.4315,76,67,40
260.4315,260.50092,77,67,40
260.50092,260.57037,76,68,40
260.57037,260.6398,77,69,40
260.6398,260.70926,76,70,40
260.70926,260.77872,77,70,40
260.77872,260.84814,76,71,40
260.84814,260.9176,77,72,40
260.9176,260.98703,76,72,40
260.98703,261.0565,77,73,40
261.0565,261.12592,76,74,40
261.12592,261.19537,77,75,40
261.19537,261.2648,76,75,40
261.2648,261.33426,77,76,40
261.33426,261.40372,76,77,40
261.40372,261.47314,77,77,40
261.47314,261.5426,76,78,40
261.5426,261.61203,77,79,40
261.61203,261.6815,76,80,40
261.6815,261.75092,77,80,40
261.75092,261.82037,76,81,40
261.82037,261.8898,77,82,40
261.8898,261.95926,76,82,40
261.95926,262.02872,77,83,40
262.02872,262.09814,76,84,40
262.09814,262.1676,77,85,40
262.1676,262.23703,76,85,40
262.23703,262.3065,77,86,40
262.3065,262.37592,76,87,40
262.37592,262.44537,77,88,40
262.44537,262.5148,76,88,40
262.5148,262.58426,77,89,40
262.58426,262.65372,76,90,40
262.65372,262.72314,77,90,40
262.72314,262.7926,76,91,40
262.7926,262.86203,77,92,40
262.86203,262.9315,76,93,40
262.9315,263.00092,77,93,40
263.00092,263.07037,76,94,40
263.07037,263.1398,77,95,40
263.1398,263.20926,76,95,40
263.20926,263.27872,77,96,40
263.27872,263.34814,76,97,40
263.34814,263.4176,77,98,40
263.4176,263.48703,76,98,40
263.48703,263.5565,77,99,40
263.5565,263.62592,76,100,40
263.62592,263.69537,77,100,40
263.69537,263.7648,76,100,40
263.7648,263.83426,77,98,40
263.83426,263.90372,76,95,40
263.90372,263.97314,77,92,40
263.97314,264.0426,76,89,40
264.0426,264.11203,77,86,40
264.11203,264.1815,76,83,40
264.1815,264.25092,77,80,40
264.25092,264.32037,76,77,40
264.32037,264.3898,77,74,40
264.3898,264.45926,76,71,40
264.45926,264.52872,77,68,40
264.52872,264.59814,76,65,40
264.59814,264.6676,77,62,40
264.6676,264.73703,76,59,40
264.73703,264.8065,77,56,40
264.8065,264.87592,76,53,40
264.87592,264.94537,77,50,40
264.94537,265.0756,76,50,40
265.08426,265.21448,74,50,40
265.22314,265.35336,72,50,40
265.36203,265.49225,71,50,40
265.50092,265.63113,69,50,40
265.6398,265.77002,67,50,40
265.77872,265.9089,65,50,40
265.9176,266.0478,64,50,40
266.0565,266.18668,62,50,40
266.19537,266.3256,64,50,40
266.33426,266.46448,60,50,40
266.47314,266.60336,62,50,40
266.61203,266.74225,64,50,40
266.75092,266.88113,65,50,40
266.8898,267.02002,67,50,40
267.02872,267.1589,69,50,40
267.1676,267.2978,71,50,40
267.3065,267.43668,72,50,40
267.44537,267.57556,74,50,40
267.58426,267.71448,76,50,40
267.72314,267.85336,72,50,40
267.86203,267.99225,71,50,40
268.00092,268.13113,69,50,40
268.1398,268.27002,67,50,40
268.2787,268.4089,65,50,40
268.4176,268.5478,64,50,40
268.5565,268.68668,62,50,40
268.69537,268.82556,64,50,40
268.83426,268.96448,60,50,40
268.83426,268.96448,60,50,40
268.97314,269.10336,62,50,40
269.11203,269.24225,64,50,40
269.25092,269.38113,65,50,40
269.3898,269.52002,67,50,40
269.5287,269.6589,69,50,40
269.6676,269.7978,71,50,40
269.8065,269.93668,72,50,40
269.94537,270.07556,72,50,40
270.08426,270.21448,75,50,40
270.22314,270.35336,72,50,40
270.36203,270.49225,75,50,40
270.50092,270.63113,72,50,40
270.6398,270.77002,75,50,40
270.7787,270.9089,72,50,40
270.9176,271.0478,75,50,40
271.0565,271.18668,72,50,40
271.19537,271.32556,75,50,40
271.33426,271.46448,72,50,40
271.47314,271.60336,75,50,40
271.61203,271.74225,72,50,40
271.75092,271.88113,75,50,40
271.8898,272.02002,73,50,40
272.0287,272.1589,72,50,40
272.1676,272.2978,73,50,40
272.3065,272.43668,70,50,40
272.44537,272.57556,68,50,40
272.58426,272.71448,70,50,40
272.72314,272.85336,67,50,40
272.86203,272.99225,65,50,40
273.00092,273.13113,67,50,40
273.1398,273.27002,63,50,40
273.2787,273.4089,61,50,40
273.4176,273.5478,60,50,40
273.5565,273.68668,58,50,40
273.69537,274.10336,68,50,40
274.11203,274.52002,75,50,40
274.5287,274.67627,72,50,40
274.73703,274.8846,68,50,40
274.94537,275.1537,63,50,40
275.1537,276.18668,73,50,40
276.19537,276.60336,68,50,40
276.61203,277.02002,75,50,40
277.0287,277.17627,72,50,40
277.23703,277.3846,68,50,40
277.44537,277.6537,62,50,40
277.6537,278.68668,74,50,40
278.69537,278.9037,63,50,40
278.9037,279.11203,75,50,40
279.11203,279.32037,64,50,40
279.32037,279.52002,76,50,40
279.5287,279.6589,76,50,40
279.66757,279.7978,75,50,40
279.8065,279.93668,73,50,40
279.94537,280.07556,71,50,40
280.08426,280.21445,69,50,40
280.22314,280.35336,68,50,40
280.36203,280.49225,66,50,40
280.50092,280.63113,64,50,40
280.6398,280.77002,63,50,40
280.7787,280.9089,61,50,40
280.91757,281.0478,59,50,40
281.0565,281.18668,57,50,40
281.19537,281.32556,56,50,40
281.33426,281.46445,80,50,40
281.47314,281.60336,78,50,40
281.61203,281.74225,76,50,40
281.75092,281.88113,75,50,40
281.8898,282.02002,73,50,40
282.0287,282.1589,71,50,40
282.16757,282.2978,69,50,40
282.3065,282.43668,68,50,40
282.44537,282.57556,66,50,40
282.58426,282.71445,68,50,40
282.72314,282.85336,69,50,40
282.86203,282.99225,71,50,40
283.00092,283.13113,73,50,40
283.1398,283.27002,75,50,40
283.2787,283.4089,76,50,40
283.41757,283.5478,78,50,40
283.5565,283.68668,75,50,40
283.69537,283.82556,83,50,40
283.83426,283.96445,80,50,40
283.97314,284.10336,78,50,40
284.11203,284.24225,76,50,40
284.25092,284.38113,75,50,40
284.3898,284.52002,73,50,40
284.5287,284.66656,71,50,40
284.67575,284.81766,69,50,40
284.82742,284.9739,68,50,40
284.98367,285.13016,69,50,40
285.13992,285.2788,81,50,40
285.28748,285.4177,69,50,40
285.42636,285.55658,81,50,40
285.56525,285.69547,69,50,40
285.70413,285.83435,81,50,40
285.84302,285.97324,69,50,40
285.98193,286.11212,81,50,40
286.12082,286.251,69,50,40
286.2597,286.5635,81,50,40
286.67636,286.9802,82,50,40
287.5097,287.8135,83,50,40
287.92636,288.2302,84,50,40
288.7597,289.0635,77,50,40
289.17636,289.4802,77,50,40
290.0097,290.3135,77,50,40
290.42636,290.74805,70,50,40
290.42636,290.74805,79,50,40
291.35193,291.48978,58,50,40
291.49896,291.63684,70,50,40
291.64603,291.7839,58,50,40
291.7931,291.9233,70,50,40
291.93198,292.0622,58,50,40
292.07086,292.20108,70,50,40
292.20975,292.33997,58,50,40
292.34863,292.47885,70,50,40
292.48755,292.61774,58,50,40
292.62643,292.75662,70,50,40
292.76532,292.8955,58,50,40
292.9042,293.03442,70,50,40
293.0431,293.1733,58,50,40
293.18198,293.3122,70,50,40
293.32086,293.45108,58,50,40
293.45975,293.58997,70,50,40
293.59863,293.72885,58,50,40
293.73755,293.86774,70,50,40
293.87643,294.00662,58,50,40
294.01532,294.1455,70,50,40
294.1542,294.28442,58,50,40
294.2931,294.4233,70,50,40
294.43198,294.5622,58,50,40
294.57086,294.70108,70,50,40
294.70975,294.83997,58,50,40
294.84863,294.97885,70,50,40
294.98755,295.11774,58,50,40
295.12643,295.25662,72,50,40
295.26532,295.3955,60,50,40
295.4042,295.53442,72,50,40
295.5431,295.6733,60,50,40
295.68198,295.8122,72,50,40
295.82086,295.95108,60,50,40
295.95975,296.08997,72,50,40
296.09863,296.22885,60,50,40
296.23755,296.36774,72,50,40
296.37643,296.78442,55,50,40
297.20975,297.4181,67,52,40
297.4181,297.62643,79,53,40
298.45975,298.6681,68,57,40
298.6681,298.87643,80,57,40
299.70975,299.9181,66,61,40
299.9181,300.12643,78,62,40
300.95975,301.1681,67,65,40
301.1681,301.37643,79,66,40
301.37643,301.58475,67,67,40
301.58475,301.7931,79,67,40
301.7931,302.00143,67,68,40
302.00143,302.20975,79,69,40
302.62643,302.83475,67,71,40
302.83475,303.0431,79,72,40
303.0431,303.25143,68,72,40
303.25143,303.45975,80,73,40
303.87643,304.08475,65,75,40
304.08475,304.2931,77,76,40
304.2931,304.50143,66,77,40
304.50143,304.70975,78,77,40
305.12643,305.33475,66,80,40
305.33475,305.5431,78,80,40
305.5431,305.7514,67,81,40
305.7514,305.95975,79,82,40
306.3764,306.7844,63,84,40
306.7931,307.20108,75,85,40
307.20975,307.35733,71,87,40
307.4181,307.56564,67,87,40
308.0431,308.24274,84,90,40
308.45975,308.60733,75,91,40
308.6681,308.81564,72,92,40
308.8764,309.2844,63,92,40
309.2931,309.70108,75,94,40
309.70975,309.85733,72,95,40
309.9181,310.06564,69,96,40
310.1264,310.5584,63,97,40
310.5676,311.02658,75,98,40
311.03635,311.21344,70,100,40
311.28635,311.46344,58,100,40
311.28635,311.46344,67,100,40
311.53635,311.67422,70,110,40
311.6834,311.82126,67,110,40
311.83047,311.96832,68,110,40
311.9775,312.10773,70,110,40
312.1164,312.2466,72,110,40
312.2553,312.3855,74,110,40
312.3942,312.52438,75,110,40
312.53308,312.66327,77,110,40
312.67197,312.8022,79,125,40
312.81085,312.94107,77,115,40
312.94974,313.07996,75,110,40
313.08862,313.21884,74,110,40
313.2275,313.35773,72,110,40
313.3664,313.4966,70,110,40
313.5053,313.6355,68,110,40
313.6442,313.77438,67,110,40
313.78308,313.91327,68,110,40
313.92197,314.0522,65,110,40
314.06085,314.19107,67,110,40
314.19974,314.32996,63,110,40
314.33862,314.46884,65,110,40
314.4775,314.60773,67,110,40
314.6164,314.7466,68,110,40
314.7553,314.8855,70,110,40
314.8942,315.02438,72,110,40
315.03308,315.16327,74,110,40
315.17197,315.3022,75,110,40
315.31085,315.44107,66,125,40
315.44974,315.57996,66,115,40
315.58862,315.71884,66,110,40
315.7275,315.85773,66,110,40
315.8664,315.9966,66,110,40
316.0053,316.1355,66,110,40
316.1442,316.27438,66,110,40
316.28308,316.41327,66,110,40
316.42197,316.5522,66,110,40
316.56085,316.69107,65,125,40
316.69974,316.82996,65,115,40
316.83862,316.96884,65,110,40
316.9775,317.10773,65,110,40
317.1164,317.2466,65,110,40
317.2553,317.3855,65,110,40
317.3942,317.52438,65,110,40
317.53308,317.66327,65,110,40
317.67197,317.80215,65,110,40
317.81085,317.94107,68,125,40
317.94974,318.07996,68,115,40
318.08862,318.21884,68,110,40
318.2275,318.35773,68,110,40
318.3664,318.4966,68,110,40
318.50528,318.6355,68,110,40
318.6442,318.77438,68,110,40
318.78308,318.91327,68,110,40
318.92197,319.05215,68,110,40
319.06085,319.19107,56,125,40
319.06085,319.19107,68,125,40
319.19974,319.32996,56,115,40
319.19974,319.32996,68,115,40
319.33862,319.46884,56,110,40
319.33862,319.46884,68,110,40
319.4775,319.60773,56,110,40
319.4775,319.60773,68,110,40
319.6164,319.7466,56,110,40
319.6164,319.7466,68,110,40
319.75528,319.8855,56,110,40
319.75528,319.8855,68,110,40
319.8942,320.02438,56,110,40
319.8942,320.02438,68,110,40
320.03308,320.16327,56,110,40
320.03308,320.16327,68,110,40
320.17197,320.30215,56,110,40
320.17197,320.30215,68,110,40
320.31085,320.44873,56,125,40
320.31085,320.44873,68,125,40
320.45792,320.59576,56,115,40
320.45792,320.59576,68,115,40
320.60498,320.74283,56,110,40
320.60498,320.74283,68,110,40
320.752,320.8985,56,110,40
320.752,320.8985,68,110,40
320.90826,321.05475,56,106,40
320.90826,321.05475,68,106,40
321.0645,321.211,56,102,40
321.0645,321.211,68,102,40
321.22076,321.377,56,98,40
321.22076,321.377,68,98,40
321.38745,321.5437,56,94,40
321.38745,321.5437,68,94,40
321.5541,321.71036,56,90,40
321.5541,321.71036,68,90,40
321.72076,321.85864,55,70,40
321.72076,321.85864,67,70,40
321.86783,322.0057,55,70,40
322.0149,322.15277,56,70,40
322.16196,322.29214,58,70,40
322.30084,322.43106,60,70,40
322.43973,322.56995,62,70,40
322.5786,322.70883,63,70,40
322.7175,322.84772,65,70,40
322.85638,322.9866,67,70,40
322.99527,323.1255,68,70,40
323.1342,323.26437,70,70,40
323.27307,323.40326,72,70,40
323.41196,323.54214,74,71,40
323.55084,323.68106,75,71,40
323.68973,323.81995,77,72,40
323.8286,323.95883,79,73,40
323.9675,324.09772,80,74,40
324.10638,324.2366,77,75,40
324.24527,324.3755,82,75,40
324.3842,324.51437,67,76,40
324.52307,324.65326,68,77,40
324.66196,324.79214,70,78,40
324.80084,324.93106,72,78,40
324.93973,325.06995,74,79,40
325.0786,325.20883,75,80,40
325.2175,325.34772,77,81,40
325.35638,325.4866,79,82,40
325.49527,325.6255,79,82,40
325.6342,325.76437,75,83,40
325.77307,325.90326,74,84,40
325.91196,326.04214,72,85,40
326.05084,326.18106,70,85,40
326.18973,326.31995,69,86,40
326.3286,326.45883,67,87,40
326.4675,326.59772,65,88,40
326.60638,326.7366,63,89,40
326.74527,326.8755,56,89,40
326.74527,326.8755,62,89,40
326.8842,327.01437,56,90,40
326.8842,327.01437,62,90,40
327.02307,327.15326,56,91,40
327.02307,327.15326,62,91,40
327.16196,327.29214,56,92,40
327.16196,327.29214,62,92,40
327.30084,327.43106,56,93,40
327.30084,327.43106,62,93,40
327.43973,327.56995,56,93,40
327.43973,327.56995,62,93,40
327.5786,327.70883,56,94,40
327.5786,327.70883,62,94,40
327.7175,327.84772,56,95,40
327.7175,327.84772,62,95,40
327.85638,327.9866,56,96,40
327.85638,327.9866,62,96,40
327.99527,328.1255,56,96,40
327.99527,328.1255,62,96,40
328.1342,328.26437,56,97,40
328.1342,328.26437,62,97,40
328.27307,328.40326,56,98,40
328.27307,328.40326,62,98,40
328.41196,328.54214,56,99,40
328.41196,328.54214,62,99,40
328.55084,328.68106,56,100,40
328.55084,328.68106,62,100,40
328.68973,328.81995,56,100,40
328.68973,328.81995,62,100,40
328.8286,328.95883,56,101,40
328.8286,328.95883,62,101,40
328.9675,329.09772,56,102,40
328.9675,329.09772,62,102,40
329.10638,329.2366,56,103,40
329.10638,329.2366,62,103,40
329.24527,329.3755,56,103,40
329.24527,329.3755,62,103,40
329.3842,329.51437,56,104,40
329.3842,329.51437,62,104,40
329.52307,329.65326,56,105,40
329.52307,329.65326,62,105,40
329.66196,329.79214,56,106,40
329.66196,329.79214,62,106,40
329.80084,329.93103,56,107,40
329.80084,329.93103,62,107,40
329.93973,330.06995,56,107,40
329.93973,330.06995,62,107,40
330.0786,330.20883,56,108,40
330.0786,330.20883,62,108,40
330.2175,330.34772,56,109,40
330.2175,330.34772,62,109,40
330.35638,330.4866,56,110,40
330.35638,330.4866,62,110,40
330.49527,330.63315,56,110,40
330.49527,330.63315,62,110,40
330.64233,330.7802,56,110,40
330.64233,330.7802,62,110,40
330.7894,330.92728,56,110,40
330.7894,330.92728,62,110,40
330.93646,331.08295,56,110,40
330.93646,331.08295,62,110,40
331.0927,331.2392,56,110,40
331.0927,331.2392,62,110,40
331.24896,331.39545,56,110,40
331.24896,331.39545,62,110,40
331.4052,331.56146,56,110,40
331.4052,331.56146,62,110,40
331.57187,331.73334,56,110,40
331.57187,331.73334,62,110,40
331.7445,331.9119,56,110,40
331.7445,331.9119,62,110,40
331.92307,332.36813,82,70,40
332.3776,332.79724,84,70,40
332.80618,332.95798,80,70,40
333.02048,333.17224,77,70,40
333.23474,333.6544,75,70,40
333.66333,334.08298,77,70,40
334.0919,334.24368,74,70,40
334.30618,334.45798,70,70,40
334.52048,334.83298,75,70,40
334.94904,335.26154,75,70,40
335.80618,336.11868,79,70,40
336.23474,336.54724,80,70,40
337.0919,337.51154,70,70,40
337.52045,337.9401,72,73,40
337.94904,338.10083,68,77,40
338.16333,338.3151,65,78,40
338.3776,338.79724,67,80,40
338.80618,339.22583,68,84,40
339.23474,339.38654,65,87,40
339.44904,339.60083,62,89,40
339.66333,340.08295,75,91,40
340.0919,340.51154,75,94,40
340.52045,340.67224,75,98,40
340.73474,340.88654,74,100,40
340.94904,341.36868,79,102,40
341.59818,341.75443,77,107,40
341.3776,341.80957,80,105,40
341.8188,341.98224,77,109,40
342.04953,342.22662,65,110,40
342.04953,342.22662,74,110,40
342.29953,342.4416,58,120,40
342.45105,342.58932,58,120,40
342.59824,342.73218,58,120,40
342.7411,342.87503,58,120,40
342.88397,343.01788,58,120,40
343.02682,343.16074,58,120,40
343.16968,343.3036,60,120,40
343.31253,343.44647,60,120,40
343.45538,343.58932,60,120,40
343.59824,343.73218,60,120,40
343.7411,343.87503,60,120,40
343.88397,344.01788,60,120,40
344.02682,344.16074,62,120,40
344.16968,344.3036,62,120,40
344.31253,344.44647,62,120,40
344.45538,344.58932,62,120,40
344.59824,344.73218,62,120,40
344.7411,344.87503,62,120,40
344.88397,345.01788,75,120,40
345.02682,345.16074,74,120,40
345.16968,345.3036,72,120,40
345.31253,345.44647,70,120,40
345.45538,345.58932,68,120,40
345.59824,345.73218,67,120,40
345.7411,345.87503,72,120,40
345.88397,346.01788,70,120,40
346.02682,346.16074,68,120,40
346.16968,346.3036,67,120,40
346.31253,346.44644,65,120,40
346.45538,346.58932,63,120,40
346.59824,346.73218,62,120,40
346.7411,346.87503,60,120,40
346.88394,347.01788,58,120,40
347.02682,347.16074,60,120,40
347.16968,347.3036,62,120,40
347.31253,347.44644,58,120,40
347.45538,347.76788,63,120,40
347.88394,348.3036,55,120,40
347.88394,348.3036,63,120,40
347.88394,348.3036,75,120,40
349.16968,349.58932,62,120,40
349.16968,349.58932,70,120,40
349.16968,349.58932,77,120,40
350.45538,350.90045,63,120,40
350.45538,350.90045,70,120,40
350.45538,350.90045,79,120,40
351.81903,352.34357,62,120,40
351.81903,352.34357,70,120,40
351.81903,352.34357,77,120,40
352.89044,353.03693,75,50,40
353.0467,353.18732,77,50,40
353.19626,353.33017,75,50,40
353.3391,353.47302,74,50,40
353.48196,353.61588,75,50,40
353.62482,353.75876,74,50,40
353.76767,353.9016,75,50,40
353.91052,354.04446,77,50,40
354.05338,354.18732,75,50,40
354.19626,354.33017,75,50,40
354.3391,354.47302,77,50,40
354.48196,354.61588,75,50,40
354.62482,354.75876,74,50,40
354.76767,354.9016,75,50,40
354.91052,355.04446,74,50,40
355.05338,355.47302,75,50,40
355.48196,355.61588,75,50,40
355.62482,355.75876,67,50,40
355.62482,355.75876,70,50,40
355.76767,355.9016,67,50,40
355.76767,355.9016,70,50,40
355.91052,356.04446,67,50,40
355.91052,356.04446,70,50,40
356.05338,356.18732,67,50,40
356.05338,356.18732,70,50,40
356.19626,356.33017,67,50,40
356.19626,356.33017,70,50,40
356.3391,356.47302,67,50,40
356.3391,356.47302,70,50,40
356.48196,356.61588,67,50,40
356.48196,356.61588,70,50,40
356.62482,356.75876,67,50,40
356.62482,356.75876,70,50,40
356.76767,356.9016,77,50,40
356.91052,357.04446,75,50,40
357.05338,357.18732,74,50,40
357.19626,357.33017,72,50,40
357.3391,357.47302,70,50,40
357.48196,357.61588,68,50,40
357.62482,357.75873,67,50,40
357.76767,357.9016,67,50,40
357.91052,358.04446,65,50,40
358.05338,358.18732,75,50,40
358.19623,358.33017,77,50,40
358.3391,358.47302,75,50,40
358.48196,358.61588,74,50,40
358.62482,358.75873,75,50,40
358.76767,358.9016,74,50,40
358.91052,359.04446,75,50,40
359.05338,359.18732,77,50,40
359.19623,359.33017,75,50,40
359.3391,359.47302,75,50,40
359.48196,359.61588,77,50,40
359.62482,359.75873,75,50,40
359.76767,359.9016,74,50,40
359.91052,360.04446,75,50,40
360.05338,360.18732,74,50,40
360.19623,360.61588,75,50,40
360.62482,360.75873,75,50,40
360.76767,360.9016,70,50,40
360.91052,361.04446,70,50,40
361.05338,361.18732,70,50,40
361.19623,361.33017,70,50,40
361.3391,361.47302,70,50,40
361.48196,361.61588,70,50,40
361.62482,361.75873,70,50,40
361.76767,361.9016,70,50,40
361.91052,362.04446,70,50,40
362.05338,362.18732,70,50,40
362.19623,362.33017,70,50,40
362.33908,362.47302,70,50,40
362.48196,362.61588,70,50,40
362.62482,362.75873,70,50,40
362.76767,362.90158,70,50,40
362.91052,363.04446,70,50,40
363.05338,363.18732,70,50,40
363.19623,363.33017,70,50,40
363.33908,363.47302,70,50,40
363.48196,363.61588,70,50,40
363.62482,363.75873,70,50,40
363.76767,363.90158,70,50,40
363.91052,364.04446,70,50,40
364.05338,364.18732,70,50,40
364.19623,364.33017,70,50,40
364.33908,364.47302,70,50,40
364.48196,364.61588,70,50,40
364.62482,364.75873,70,57,40
364.76767,364.90158,70,65,40
364.91052,365.05045,70,72,40
365.05978,365.1997,70,80,40
365.209,365.34897,70,87,40
365.35828,365.50476,70,95,40
365.51453,365.6656,70,102,40
365.676,365.83224,70,110,40
365.84265,366.74228,70,100,40
367.2063,368.19586,77,120,40
367.2063,368.19586,70,120,40
368.7063,370.19586,70,120,40
368.7063,370.19586,79,120,40
0.0,0.16666667,55,110,41
0.25,0.41666666,55,110,41
0.5,1.2447916,56,110,41
1.25,1.4947916,53,95,41
1.5,1.7447916,50,70,41
1.75,1.9947916,51,70,41
2.0,2.2447917,59,70,41
2.25,2.4947917,60,70,41
2.5,2.7447917,57,70,41
2.75,2.9947917,58,70,41
3.0,3.2447917,55,70,41
3.25,3.4947917,56,70,41
3.5,3.753232,53,70,41
3.75862,4.0256653,58,70,41
4.031347,7.776139,51,70,41
7.781347,8.026138,50,70,41
8.031347,8.276138,51,70,41
8.281347,8.526138,53,70,41
8.531347,8.776138,51,70,41
8.781347,9.026138,50,70,41
9.031347,9.276138,51,70,41
9.281347,9.526138,53,70,41
9.531347,9.776138,55,70,41
9.781347,10.026138,56,70,41
10.031347,10.276138,55,70,41
10.281347,10.526138,51,70,41
10.531347,10.776138,53,70,41
10.781347,11.026138,55,70,41
11.031347,11.284579,55,70,41
11.289967,11.5432,60,70,41
11.548587,11.815632,58,70,41
11.821314,12.088359,53,70,41
12.094041,15.838833,51,70,41
15.844041,16.088833,50,70,41
16.094042,16.338833,51,70,41
16.344042,16.588833,53,70,41
16.594042,16.838833,51,70,41
16.844042,17.088833,50,70,41
17.094042,17.338833,51,70,41
17.344042,17.588833,53,70,41
17.594042,17.838833,55,70,41
17.844042,18.088833,56,70,41
18.094042,18.338833,58,70,41
18.344042,18.588833,55,70,41
18.594042,18.838833,51,70,41
18.844042,19.097273,53,70,41
19.102661,19.369707,50,70,41
19.375387,19.65251,51,70,41
19.658405,19.952156,51,70,41
20.981133,21.225925,63,80,41
21.231133,21.475925,63,90,41
21.481133,21.725925,65,100,41
21.731133,21.975925,67,85,41
21.981133,22.225925,67,70,41
22.231133,22.475925,69,110,41
22.481133,22.725925,57,110,41
22.731133,22.975925,65,110,41
22.981133,23.225925,63,110,41
23.231133,23.484365,57,110,41
23.489754,23.756798,58,110,41
23.76248,24.05623,58,110,41
25.085207,25.329998,63,70,41
25.335207,25.579998,63,85,41
25.585207,25.829998,65,100,41
25.835207,26.079998,67,100,41
26.085207,26.329998,51,90,41
26.335207,26.579998,51,110,41
26.835207,27.079998,51,110,41
27.085207,27.33844,53,110,41
27.343826,27.610872,55,110,41
27.616554,27.893675,53,110,41
27.899572,28.193321,55,110,41
28.199572,28.466618,58,70,41
28.4723,28.71709,63,70,41
28.7223,28.96709,62,80,41
28.9723,29.21709,63,90,41
29.2223,29.46709,67,100,41
29.4723,29.71709,58,100,41
29.7223,29.96709,56,85,41
29.9723,30.21709,55,70,41
30.2223,30.34209,51,70,41
30.3473,30.46709,53,70,41
30.4723,30.638966,55,110,41
30.7223,30.84209,56,110,41
30.8473,30.96709,58,110,41
30.9723,31.138966,60,110,41
31.2223,31.34209,62,110,41
31.3473,31.46709,63,110,41
31.4723,31.72553,63,110,41
31.730919,31.997965,65,110,41
32.003647,32.203648,62,110,41
32.303646,32.57069,58,70,41
32.576374,32.821163,63,70,41
32.826374,33.071163,62,80,41
33.076374,33.321163,63,90,41
33.326374,33.571163,67,100,41
33.576374,33.821163,58,100,41
33.826374,34.071163,56,90,41
34.076374,34.321163,55,80,41
34.326374,34.446163,51,70,41
34.451374,34.571163,53,70,41
34.576374,34.74304,55,110,41
34.826374,34.946163,60,110,41
34.951374,35.071163,62,110,41
35.076374,35.24304,63,110,41
35.326374,35.446163,63,110,41
35.451374,35.571163,65,110,41
35.576374,35.74304,67,110,41
35.826374,35.946163,63,110,41
35.951374,36.071163,56,110,41
36.076374,36.248787,55,110,41
36.33499,36.470604,51,100,41
36.4765,36.612114,53,90,41
36.61801,37.112804,55,50,41
37.11801,37.612804,53,50,41
37.61801,38.112804,51,50,41
38.11801,38.612804,53,50,41
38.61801,39.612804,51,50,41
39.61801,39.737804,60,50,41
39.74301,39.862804,58,50,41
39.86801,39.987804,50,50,41
39.99301,40.112804,50,50,41
40.11801,40.237804,51,50,41
40.24301,40.362804,50,50,41
40.36801,40.487804,51,50,41
40.49301,40.612804,53,50,41
40.61801,40.737804,55,50,41
40.74301,40.862804,58,50,41
40.86801,40.987804,55,50,41
40.99301,41.112804,51,50,41
41.11801,41.612804,56,50,41
41.61801,41.737804,55,50,41
41.74301,41.862804,58,50,41
41.86801,41.987804,55,50,41
41.99301,42.112804,51,50,41
42.11801,42.612804,56,50,41
42.61801,42.737804,55,50,41
42.74301,42.862804,58,50,41
42.86801,42.987804,55,50,41
42.99301,43.112804,51,50,41
43.11801,43.612804,57,50,41
43.61801,43.862804,58,50,41
43.86801,44.112804,60,50,41
44.11801,44.362804,57,50,41
44.36801,44.612804,53,50,41
44.61801,44.737804,53,50,41
44.74301,44.862804,62,50,41
44.86801,44.987804,58,50,41
44.99301,45.112804,53,50,41
45.11801,45.237804,51,50,41
45.24301,45.362804,53,50,41
45.36801,45.487804,51,50,41
45.49301,45.612804,53,50,41
45.61801,45.737804,53,50,41
45.74301,45.862804,62,50,41
45.86801,45.987804,58,50,41
45.99301,46.112804,53,50,41
46.11801,46.237804,51,50,41
46.24301,46.362804,53,50,41
46.36801,46.487804,51,50,41
46.49301,46.612804,53,50,41
46.61801,46.737804,53,50,41
46.74301,46.862804,62,50,41
46.86801,46.987804,58,50,41
46.99301,47.112804,53,50,41
47.11801,47.237804,58,50,41
47.24301,47.362804,57,50,41
47.36801,47.487804,58,50,41
47.49301,47.612804,55,50,41
47.61801,47.862804,53,50,41
49.11801,49.237804,65,50,41
49.24301,49.362804,72,50,41
49.36801,49.487804,69,50,41
49.49301,49.612804,65,50,41
49.61801,49.862804,74,50,41
50.11801,50.237804,65,50,41
50.24301,50.362804,72,50,41
50.36801,50.487804,69,50,41
50.49301,50.612804,65,50,41
50.61801,50.737804,74,50,41
50.74301,50.862804,70,50,41
50.86801,50.987804,65,50,41
50.99301,51.112804,62,50,41
51.11801,51.612804,67,50,41
51.61801,52.112804,60,57,41
52.11801,52.862804,72,65,41
52.86801,53.112804,71,76,41
53.11801,53.362804,72,80,41
53.36801,53.612804,67,83,41
53.61801,53.862804,62,87,41
53.86801,54.112804,60,91,41
54.11801,54.362804,63,95,41
54.36801,54.612804,60,99,41
54.61801,54.78468,58,110,41
54.86801,55.03468,70,110,41
55.11801,55.28468,70,110,41
55.36801,55.53468,72,110,41
55.61801,55.78468,74,110,41
55.86801,56.03468,65,110,41
56.11801,56.28468,70,110,41
56.36801,56.53468,58,110,41
56.61801,56.78468,58,110,41
56.86801,57.03468,59,110,41
57.11801,57.28468,60,110,41
57.36801,57.487804,62,110,41
57.49301,57.612804,64,110,41
57.61801,57.78468,65,110,41
57.86801,58.03468,67,110,41
58.11801,58.28468,69,110,41
58.36801,58.487804,70,110,41
58.49301,58.612804,72,110,41
58.61801,58.78468,70,110,41
58.86801,59.03468,67,110,41
59.11801,59.28468,65,110,41
59.36801,59.53468,63,110,41
59.61801,59.78468,62,110,41
59.86801,60.03468,60,110,41
60.11801,60.28468,58,110,41
60.36801,60.53468,58,110,41
60.61801,60.78468,58,110,41
60.86801,61.03468,58,110,41
61.11801,61.28468,60,110,41
61.36801,61.53468,62,110,41
61.61801,61.862804,65,110,41
62.61801,62.78468,65,70,41
62.86801,63.03468,63,70,41
63.11801,63.28468,62,70,41
63.36801,63.53468,60,70,41
63.61801,63.862804,58,70,41
64.64936,64.816025,63,110,41
64.89936,65.066025,62,110,41
65.14936,65.316025,60,110,41
65.39936,65.566025,58,110,41
65.64936,65.816025,60,110,41
65.89936,66.07177,61,110,41
66.157974,66.3398,60,110,41
66.4307,66.63071,61,110,41
68.282425,68.45484,55,110,41
68.541046,68.713455,67,110,41
70.35139,70.523796,50,110,41
70.61001,70.78242,62,110,41
71.385864,71.55828,51,110,41
71.644485,71.816895,63,110,41
72.42034,72.602165,53,110,41
72.69307,72.87489,65,110,41
72.9658,73.13247,63,120,41
73.2158,73.38247,55,120,41
73.2158,73.38247,64,120,41
73.4658,73.960594,55,120,41
73.4658,73.960594,64,120,41
73.9658,74.13247,63,120,41
74.2158,74.38247,55,120,41
74.2158,74.38247,64,120,41
74.4658,74.960594,55,120,41
74.4658,74.960594,64,120,41
74.9658,75.13247,63,120,41
75.2158,75.38247,55,120,41
75.2158,75.38247,64,120,41
75.4658,75.960594,55,120,41
75.4658,75.960594,64,120,41
75.9658,76.210594,53,120,41
76.2158,76.460594,55,120,41
76.4658,76.710594,58,120,41
76.7158,76.835594,60,120,41
76.8408,76.960594,62,120,41
76.9658,77.13247,48,120,41
76.9658,77.13247,55,120,41
77.2158,77.38247,48,120,41
77.2158,77.38247,55,120,41
77.4658,77.960594,48,120,41
77.4658,77.960594,55,120,41
77.9658,78.13247,48,120,41
77.9658,78.13247,55,120,41
78.2158,78.38247,48,120,41
78.2158,78.38247,55,120,41
78.4658,78.960594,48,120,41
78.4658,78.960594,55,120,41
78.9658,79.13247,48,120,41
78.9658,79.13247,55,120,41
79.2158,79.38247,48,120,41
79.2158,79.38247,55,120,41
79.4658,79.960594,48,120,41
79.4658,79.960594,55,120,41
79.9658,80.210594,53,120,41
80.2158,80.460594,55,120,41
80.4658,80.710594,58,120,41
80.7158,80.835594,60,120,41
80.8408,80.960594,62,120,41
80.9658,81.085594,62,110,41
81.0908,81.210594,63,110,41
81.2158,81.335594,65,110,41
81.3408,81.460594,63,110,41
81.4658,81.710594,63,110,41
81.7158,81.960594,60,110,41
81.9658,82.085594,60,110,41
82.0908,82.210594,62,110,41
82.2158,82.335594,63,110,41
82.3408,82.460594,62,110,41
82.4658,82.710594,62,110,41
82.7158,82.960594,58,70,41
82.9658,83.085594,56,70,41
83.0908,83.210594,55,70,41
83.2158,83.335594,53,70,41
83.3408,83.460594,55,70,41
83.4658,83.63247,53,70,41
83.7158,83.88247,55,70,41
83.9658,84.085594,53,70,41
84.0908,84.210594,51,70,41
84.2158,84.335594,50,70,41
84.3408,84.460594,51,70,41
84.4658,84.63247,50,70,41
84.7158,84.835594,60,110,41
84.8408,84.960594,62,110,41
84.9658,85.085594,62,110,41
85.0908,85.210594,63,110,41
85.2158,85.335594,65,110,41
85.3408,85.460594,63,110,41
85.4658,85.710594,63,110,41
85.7158,85.960594,60,110,41
85.9658,86.085594,60,110,41
86.0908,86.210594,62,110,41
86.2158,86.335594,63,110,41
86.3408,86.460594,62,110,41
86.4658,86.710594,62,110,41
86.7158,86.835594,72,70,41
86.8408,86.960594,70,70,41
86.9658,87.085594,70,70,41
87.0908,87.210594,68,70,41
87.2158,87.335594,67,70,41
87.3408,87.460594,68,70,41
87.4658,87.710594,68,70,41
87.7158,87.960594,68,70,41
87.9658,88.085594,68,70,41
88.0908,88.210594,67,70,41
88.2158,88.335594,65,70,41
88.3408,88.460594,67,70,41
88.4658,88.710594,67,70,41
90.749695,90.935074,67,70,41
91.00393,91.125755,63,70,41
91.13105,91.25287,65,70,41
92.02088,92.1427,65,70,41
92.147995,92.26982,67,70,41
93.04221,93.16613,63,50,41
93.171524,93.29544,67,50,41
94.08123,94.20732,59,50,41
94.21281,94.338905,63,50,41
95.13856,95.26691,55,50,41
95.272484,95.40083,59,53,41
96.21485,96.345535,51,79,41
96.35122,96.481895,55,82,41
96.76031,96.89099,51,93,41
96.896675,97.02735,55,97,41
97.30576,97.47243,67,100,41
97.30576,97.47243,55,110,41
97.55576,97.72243,67,110,41
97.80576,98.55055,68,110,41
98.55576,98.80055,65,92,41
98.80576,99.05055,62,70,41
99.05576,99.30055,63,70,41
99.30576,99.55055,59,70,41
99.55576,99.80055,60,70,41
99.80576,100.05055,57,70,41
100.05576,100.30055,58,70,41
100.30576,100.55055,55,70,41
100.55576,100.80055,56,70,41
100.80576,101.05055,53,60,41
101.05576,101.30055,58,60,41
101.30576,101.55055,53,60,41
101.55576,101.80055,55,60,41
101.80576,102.05055,51,60,41
102.05576,102.30055,56,60,41
102.30576,102.55055,56,60,41
102.55576,102.80055,58,60,41
102.80576,103.05055,55,60,41
104.05576,104.30055,58,60,41
104.30576,105.05055,67,60,41
105.05576,105.30055,55,60,41
105.30576,105.55055,58,60,41
105.55576,105.80055,60,60,41
105.80576,106.05055,56,60,41
106.05576,106.30055,73,60,41
106.30576,106.47243,71,60,41
106.55576,106.72243,72,60,41
106.80576,106.97243,72,60,41
107.05576,107.22243,72,60,41
107.30576,107.47243,72,50,41
107.55576,107.72243,72,50,41
107.80576,107.97243,72,50,41
108.05576,108.22243,72,50,41
108.30576,108.47243,72,50,41
108.55576,108.72243,72,50,41
108.80576,108.97243,72,50,41
109.05576,109.22243,72,50,41
109.30576,109.47243,72,50,41
109.55576,109.72243,72,50,41
109.80576,109.97243,74,50,41
110.05576,110.22243,72,50,41
110.30576,110.47243,74,50,41
110.55576,110.72243,69,50,41
110.80576,110.97817,71,50,41
111.064384,111.2462,74,50,41
111.33711,111.5194,48,110,41
111.58711,111.7694,48,110,41
111.83711,112.0194,48,110,41
112.08711,112.2694,48,110,41
112.83711,113.0194,53,110,41
113.08711,113.2694,51,110,41
113.33711,113.5194,56,110,41
113.58711,113.7694,55,110,41
113.83711,114.0194,53,110,41
114.08711,114.2694,51,110,41
114.33711,114.5194,50,110,41
114.58711,114.7694,48,110,41
114.83711,115.0194,50,110,41
115.08711,115.2694,51,110,41
115.33711,115.5194,55,110,41
115.58711,115.7694,67,110,41
115.83711,116.0194,55,110,41
116.08711,116.2694,55,110,41
116.33711,116.5819,55,110,41
116.58711,116.7069,57,110,41
116.71211,116.8319,59,110,41
116.83711,117.00378,60,110,41
117.08711,117.25378,59,110,41
117.33711,117.50378,63,110,41
117.58711,117.75378,62,110,41
117.83711,117.89961,62,110,41
117.89961,118.0194,60,110,41
118.08711,118.25378,59,110,41
118.33711,118.39961,59,110,41
118.39961,118.5194,57,110,41
118.58711,118.75378,55,110,41
118.83711,119.00378,54,110,41
119.08711,119.25378,55,110,41
119.33711,119.50378,63,110,41
119.58711,119.75378,62,110,41
119.83711,119.89961,62,110,41
119.89961,120.0194,60,110,41
120.08711,120.25378,59,110,41
120.33711,120.50952,56,110,41
120.595726,120.77755,55,110,41
120.868454,121.05714,53,110,41
121.151474,121.35147,50,110,41
121.45148,121.946266,63,50,41
121.95148,122.446266,65,50,41
122.45148,122.946266,63,50,41
122.95148,123.446266,60,50,41
123.45148,123.571266,67,50,41
123.57648,123.696266,74,50,41
123.70148,123.821266,71,50,41
123.82648,123.946266,67,50,41
123.95148,124.446266,75,50,41
124.45148,124.571266,67,50,41
124.57648,124.696266,74,50,41
124.70148,124.821266,71,50,41
124.82648,124.946266,67,50,41
124.95148,125.446266,74,50,41
125.45148,125.61814,76,50,41
125.70148,125.86814,67,57,41
125.70148,125.86814,72,57,41
125.95148,126.11814,65,64,41
125.95148,126.11814,72,64,41
126.20148,126.36814,65,71,41
126.20148,126.36814,72,71,41
126.45148,126.61814,64,79,41
126.45148,126.61814,72,79,41
126.70148,126.86814,48,86,41
126.70148,126.86814,60,86,41
126.95148,127.11814,48,93,41
126.95148,127.11814,60,93,41
127.20148,127.36814,48,100,41
127.20148,127.36814,60,100,41
127.45148,127.61814,48,110,41
127.45148,127.61814,60,110,41
127.70148,127.86814,48,110,41
127.70148,127.86814,60,110,41
127.95148,128.07126,48,110,41
128.07648,128.19626,55,100,41
128.20148,128.32126,52,90,41
128.32648,128.44626,48,80,41
128.45148,128.57126,52,70,41
128.57648,128.69626,60,70,41
128.70148,128.82126,55,70,41
128.82648,128.94626,52,70,41
128.95148,129.07126,55,70,41
129.07648,129.19626,64,70,41
129.20148,129.32126,60,70,41
129.32648,129.44626,55,70,41
129.45148,129.57126,60,70,41
129.57648,129.69626,67,70,41
129.70148,129.82126,64,70,41
129.82648,129.94626,60,70,41
129.95148,130.07126,64,70,41
130.07648,130.19626,72,70,41
130.20148,130.32126,67,70,41
130.32648,130.44626,64,70,41
130.45148,130.57126,67,70,41
130.57648,130.69626,76,70,41
130.70148,130.82126,72,70,41
130.82648,130.94626,67,70,41
130.95148,131.07126,64,70,41
131.07648,131.19626,60,70,41
131.20148,131.32126,55,70,41
131.32648,131.44626,52,70,41
131.45148,131.61813,48,110,41
131.45148,131.61813,57,110,41
131.70148,131.86813,48,110,41
131.70148,131.86813,60,110,41
131.95148,132.07126,48,110,41
132.07648,132.19626,55,110,41
132.20148,132.32126,52,110,41
132.32648,132.44626,48,110,41
132.45148,132.57126,52,70,41
132.57648,132.69626,60,70,41
132.70148,132.82126,55,70,41
132.82648,132.94626,52,70,41
132.95148,133.07126,55,70,41
133.07648,133.19626,64,70,41
133.20148,133.32126,60,70,41
133.32648,133.44626,55,70,41
133.45148,133.57126,60,70,41
133.57648,133.69626,67,70,41
133.70148,133.82126,64,70,41
133.82648,133.94626,60,70,41
133.95148,134.07126,64,70,41
134.07648,134.19626,72,70,41
134.20148,134.32126,67,70,41
134.32648,134.44626,64,70,41
134.45148,134.57126,67,70,41
134.57648,134.69626,76,70,41
134.70148,134.82126,72,70,41
134.82648,134.94626,67,70,41
134.95148,135.07126,64,70,41
135.07648,135.19626,60,70,41
135.20148,135.32126,55,70,41
135.32648,135.44626,52,70,41
135.45148,135.69626,48,70,41
135.70148,135.94626,60,70,41
135.95148,136.19626,62,70,41
136.20148,136.44626,65,70,41
136.45148,136.69626,70,70,41
136.70148,136.94626,58,70,41
136.95148,137.19626,60,70,41
137.20148,137.44626,63,70,41
137.45148,137.69626,68,70,41
137.70148,137.94626,56,70,41
137.95148,138.19626,58,70,41
138.20148,138.44626,61,70,41
138.45148,138.69626,67,70,41
138.70148,138.94626,55,72,41
138.95148,139.19626,56,75,41
139.20148,139.44626,68,78,41
139.45148,139.69626,65,80,41
139.70148,139.94626,53,83,41
139.95148,140.19626,55,86,41
140.20148,140.44626,67,88,41
140.45148,140.69626,60,91,41
140.70148,140.94626,48,94,41
140.95148,141.19626,53,96,41
141.20148,141.44626,65,99,41
141.45148,141.69626,60,100,41
141.70148,141.94626,72,95,41
141.95148,142.19626,71,90,41
142.20148,142.44626,59,84,41
142.45148,142.69626,58,79,41
142.70148,142.94626,70,73,41
142.95148,143.19626,68,68,41
143.20148,143.44626,56,62,41
143.45148,143.69626,65,50,41
143.70148,143.94626,68,50,41
143.95148,144.19626,67,50,41
144.20148,144.44626,55,50,41
144.45148,144.69626,67,50,41
144.70148,145.19626,73,50,41
145.20148,145.32126,67,50,41
145.32648,145.44626,70,50,41
145.45148,145.57126,68,70,41
145.57648,145.69626,75,70,41
145.70148,145.82126,72,70,41
145.82648,145.94626,68,70,41
145.95148,146.44626,73,70,41
146.45148,146.57126,68,70,41
146.57648,146.69626,75,70,41
146.70148,146.82126,72,70,41
146.82648,146.94626,68,70,41
146.95148,147.44626,73,70,41
147.45148,147.57126,68,70,41
147.57648,147.69626,75,70,41
147.70148,147.82126,72,70,41
147.82648,147.94626,68,70,41
147.95148,148.44626,74,70,41
148.45148,148.69626,75,100,41
148.70148,148.94626,77,86,41
148.95148,149.19626,73,71,41
149.20148,149.44626,70,70,41
149.45148,149.69626,68,70,41
149.70148,149.94626,67,70,41
149.95148,150.19626,65,70,41
150.20148,150.44626,63,70,41
150.45148,150.69626,65,70,41
150.70148,150.94626,67,70,41
150.95148,151.19626,68,70,41
151.20148,151.44626,70,70,41
151.45148,151.69626,72,70,41
151.70148,151.94626,75,70,41
151.95148,152.19626,73,70,41
152.20148,152.44626,72,70,41
152.45148,152.69626,72,70,41
152.70148,152.94626,70,70,41
152.95148,153.44626,70,70,41
153.45148,153.57126,68,70,41
153.57648,153.69626,75,70,41
153.70148,153.82126,72,70,41
153.82648,153.94626,68,70,41
153.95148,154.44626,73,70,41
154.45148,154.57126,68,70,41
154.57648,154.69626,75,70,41
154.70148,154.82126,72,70,41
154.82648,154.94626,68,70,41
154.95148,155.44626,73,70,41
155.45148,155.57126,68,70,41
155.57648,155.69626,75,74,41
155.70148,155.82126,72,78,41
155.82648,155.94626,68,83,41
155.95148,156.44626,74,87,41
156.45148,156.69626,75,100,41
156.70148,156.94626,77,85,41
156.95148,157.20471,73,70,41
157.2101,157.47714,70,70,41
157.48282,157.73177,68,70,41
157.73706,157.986,67,70,41
157.9913,158.24023,65,70,41
158.24553,158.49448,63,70,41
158.49977,158.7487,65,70,41
158.75401,159.00294,67,70,41
159.00824,159.25719,68,70,41
159.26248,159.51141,70,70,41
159.51672,159.76994,72,70,41
159.77533,160.02856,75,70,41
160.03395,160.29163,73,70,41
160.29712,160.55939,70,70,41
160.56497,160.83202,70,70,41
160.83769,161.04407,68,70,41
161.12071,161.39784,68,70,41
163.42159,163.66638,60,70,41
163.67159,163.91638,60,70,41
163.92159,164.16638,58,70,41
164.17159,164.29138,58,70,41
164.29659,164.41638,56,70,41
164.42159,164.54552,55,70,41
164.5509,164.67482,53,70,41
164.6802,164.94725,51,70,41
164.95294,165.23006,58,70,41
165.23596,165.52971,51,70,41
166.55869,167.05348,51,100,41
167.05869,167.30348,52,90,41
167.30869,167.55348,53,80,41
167.55869,167.80348,48,70,41
167.80869,168.55348,49,70,41
168.55869,168.81192,61,73,41
168.8173,169.08435,63,75,41
169.09003,169.6298,51,76,41
169.63548,169.76616,51,79,41
169.77185,169.90253,49,79,41
169.90822,171.153,48,80,41
171.15822,171.403,49,87,41
171.40822,171.653,51,88,41
171.65822,171.903,52,89,41
171.90822,172.153,53,91,41
172.15822,172.403,55,92,41
172.40822,172.653,56,93,41
172.65822,172.903,58,95,41
172.90822,173.153,51,96,41
173.15822,173.403,62,97,41
173.40822,173.653,63,99,41
173.65822,173.903,62,100,41
173.90822,174.153,60,101,41
174.15822,174.403,58,103,41
174.40822,174.653,56,104,41
174.65822,174.903,51,105,41
174.90822,175.153,53,107,41
175.15822,175.403,55,108,41
175.40822,175.653,56,109,41
175.65822,176.153,48,110,41
176.15822,176.66144,50,110,41
176.66682,176.92006,51,110,41
176.92545,177.17868,51,110,41
177.18407,177.308,70,84,41
177.31339,177.4373,67,70,41
177.44269,177.69592,61,70,41
177.70131,177.95454,70,70,41
177.95993,178.21317,68,70,41
184.9519,185.49196,74,50,41
185.49754,186.56339,74,50,41
186.56897,187.63481,74,50,41
187.6404,188.48502,74,50,41
188.49127,188.75356,75,50,41
188.75912,189.00392,70,50,41
189.00912,189.50392,68,50,41
189.50912,189.75392,75,50,41
189.75912,190.00392,70,50,41
190.00912,190.50392,68,50,41
190.50912,190.75392,75,50,41
190.75912,191.00392,70,50,41
191.00912,191.12892,72,50,41
191.13412,191.25392,75,58,41
191.25912,191.37892,74,66,41
191.38412,191.50392,72,75,41
191.50912,191.75392,70,83,41
191.75912,192.00392,67,100,41
192.00912,192.25392,68,90,41
192.25912,192.50392,60,80,41
192.50912,192.75392,66,70,41
192.75912,193.00392,65,70,41
193.00912,193.25392,63,70,41
193.25912,193.50392,62,70,41
193.50912,193.75392,63,70,41
193.75912,194.00392,65,70,41
194.00912,194.25392,67,70,41
194.25912,194.50392,56,70,41
194.50912,194.75392,55,70,41
194.75912,195.00392,51,70,41
195.00912,195.25392,53,70,41
195.25912,195.50392,55,70,41
195.50912,195.75392,55,70,41
195.75912,196.00392,60,70,41
196.00912,196.25392,58,70,41
196.25912,196.50392,53,70,41
196.25912,196.50392,56,70,41
196.50912,196.62892,51,70,41
196.50912,196.62892,55,70,41
196.63412,196.75392,58,70,41
196.75912,196.87892,55,70,41
196.88412,197.00392,51,70,41
197.00912,197.50392,56,70,41
197.50912,197.62892,55,70,41
197.63412,197.75392,58,70,41
197.75912,197.87892,55,70,41
197.88412,198.00392,51,70,41
198.00912,198.50392,56,70,41
198.50912,198.62892,55,70,41
198.63412,198.75392,58,70,41
198.75912,198.87892,55,70,41
198.88412,199.00392,51,70,41
199.00912,199.50392,57,70,41
199.50912,200.12892,58,100,41
200.13412,200.25392,50,78,41
200.25912,200.37892,51,74,41
200.38412,200.50392,53,70,41
200.50912,200.75392,55,70,41
200.75912,201.00392,53,74,41
201.00912,201.25392,51,78,41
201.25912,201.50392,50,83,41
201.50912,201.75392,51,87,41
201.75912,202.00392,53,92,41
202.00912,202.25392,55,96,41
202.25912,202.50392,56,100,41
202.50912,202.75392,58,70,41
202.75912,203.25392,51,70,41
203.25912,203.37892,53,70,41
203.38412,203.50392,56,70,41
203.50912,203.75392,56,70,41
203.75912,203.94142,55,70,41
204.00912,204.19142,55,70,41
204.25912,204.34767,63,70,41
204.38412,204.47267,65,70,41
204.50912,204.62892,67,70,41
204.63412,204.75392,65,74,41
204.75912,204.87892,65,78,41
204.88412,205.00392,63,83,41
205.00912,205.12892,75,87,41
205.13412,205.25392,74,92,41
205.25912,205.37892,72,96,41
205.38412,205.50392,70,100,41
205.50912,205.62892,68,100,41
205.63412,205.75392,67,94,41
205.75912,205.87892,68,88,41
205.88412,206.00392,65,82,41
206.00912,206.12892,63,76,41
206.13412,206.25392,67,70,41
206.25912,206.37892,68,110,41
206.38412,206.50392,70,110,41
206.50912,206.62892,72,110,41
206.63412,206.75392,75,110,41
206.75912,206.87892,75,110,41
206.88412,207.00392,74,110,41
207.00912,207.12892,74,110,41
207.13412,207.25392,72,110,41
207.25912,207.37892,72,110,41
207.38412,207.50392,74,110,41
207.50912,207.62892,74,110,41
207.63412,207.75392,75,110,41
207.75912,207.87892,74,110,41
207.88412,208.00392,72,110,41
208.00912,208.12892,72,110,41
208.13412,208.25392,70,90,41
208.25912,208.37892,70,70,41
208.38412,208.50392,68,70,41
208.50912,208.62892,67,70,41
208.63412,208.75392,65,74,41
208.75912,208.87892,65,78,41
208.88412,209.00392,63,83,41
209.00912,209.12892,75,87,41
209.13412,209.25392,74,92,41
209.25912,209.37892,72,96,41
209.38412,209.50392,70,100,41
209.50912,209.62892,68,100,41
209.63412,209.75392,67,93,41
209.75912,209.87892,65,85,41
209.88412,210.00392,65,77,41
210.00912,210.12892,65,70,41
210.13412,210.25392,63,70,41
210.25912,210.37892,55,70,41
210.38412,210.50392,55,90,41
210.50912,210.62892,55,110,41
210.63412,210.75392,56,110,41
210.75912,210.87892,56,110,41
210.88412,211.00392,58,110,41
211.00912,211.12892,58,110,41
211.13412,211.25392,60,110,41
211.25912,211.37892,60,110,41
211.38412,211.50392,62,110,41
211.50912,211.62892,62,110,41
211.63412,211.75392,63,110,41
211.75912,211.87892,70,110,41
211.88412,212.00392,68,110,41
212.00912,212.25392,67,110,41
212.00912,212.25392,70,110,41
212.25912,212.50392,67,70,41
212.50912,212.75392,67,70,41
212.75912,213.00392,65,78,41
213.00912,213.25392,67,87,41
213.25912,213.50392,70,96,41
213.50912,213.75392,67,100,41
213.75912,214.00392,65,85,41
214.00912,214.25392,63,70,41
214.25912,214.50392,67,70,41
214.50912,214.75392,67,110,41
214.75912,215.00392,63,110,41
215.00912,215.07162,62,110,41
215.07162,215.13412,63,110,41
215.13412,215.25392,62,110,41
215.25912,215.50392,60,110,41
215.50912,215.57162,63,110,41
215.57162,215.63412,65,110,41
215.63412,215.75392,63,110,41
215.75912,215.94142,62,110,41
216.00912,216.25392,62,110,41
216.25912,216.50392,67,70,41
216.50912,216.75392,67,70,41
216.75912,217.00392,65,78,41
217.00912,217.25392,67,87,41
217.25912,217.50392,70,96,41
217.50912,217.75392,67,100,41
217.75912,218.00392,65,80,41
218.00912,218.25392,63,70,41
218.25912,218.50392,67,70,41
218.50912,218.75392,72,110,41
218.75912,219.00392,68,110,41
219.00912,219.07162,67,110,41
219.07162,219.13412,68,110,41
219.13412,219.25392,67,110,41
219.25912,219.50392,65,110,41
219.50912,219.63306,63,110,41
219.63844,219.76236,58,110,41
219.76775,219.8961,58,110,41
219.90167,219.99655,56,110,41
220.03561,220.13585,55,110,41
220.17711,220.31273,55,110,41
220.31862,220.44698,56,110,41
220.45256,220.5809,53,110,41
220.58649,220.75742,55,110,41
220.8429,221.00955,63,110,41
221.0929,221.25955,63,110,41
221.3429,221.50955,63,110,41
221.5929,221.75955,63,110,41
221.8429,222.00955,75,110,41
222.0929,222.25955,75,110,41
222.3429,222.50955,75,110,41
222.5929,222.75955,75,110,41
222.8429,223.00955,75,110,41
223.0929,223.25955,70,110,41
223.3429,223.50955,70,110,41
223.5929,223.75955,70,110,41
223.8429,224.00955,70,110,41
224.0929,224.25955,70,110,41
224.3429,224.50955,68,110,41
224.5929,224.75955,67,110,41
224.8429,225.00955,72,110,41
225.0929,225.25955,70,110,41
225.3429,225.50955,68,110,41
225.5929,225.75955,67,110,41
225.8429,226.00955,65,110,41
226.0929,226.25955,63,110,41
226.3429,226.50955,63,110,41
226.5929,226.83768,70,110,41
226.8429,226.96268,70,110,41
226.9679,227.08768,72,110,41
227.0929,227.25955,74,110,41
227.3429,227.50955,75,110,41
227.5929,227.83768,74,110,41
228.3429,228.50955,58,110,41
228.5929,228.75955,58,70,41
228.8429,229.00955,56,70,41
229.0929,229.25955,55,70,41
229.3429,229.50955,53,70,41
229.5929,229.83768,51,70,41
230.5929,230.75955,62,110,41
230.8429,231.00955,63,110,41
231.0929,231.25955,70,110,41
231.3429,231.50955,70,110,41
231.5929,231.75955,70,110,41
231.8429,232.01382,65,110,41
232.0993,232.27473,65,110,41
232.36246,232.54428,66,110,41
232.6352,232.8076,54,70,41
232.8938,233.06047,55,70,41
233.1438,233.31047,51,70,41
233.3938,233.56047,55,70,41
233.6438,233.81047,56,70,41
233.8938,234.06047,57,70,41
234.1438,234.6386,60,110,41
234.1438,234.6386,48,110,41
236.1438,236.31047,55,110,41
236.3938,236.56047,67,110,41
237.1438,237.31047,56,110,41
237.3938,237.56047,68,110,41
238.1438,238.31622,58,110,41
238.40242,238.58424,70,110,41
238.67516,238.84181,56,110,41
238.92516,239.09181,57,110,41
239.17516,239.66994,53,110,41
239.17516,239.66994,57,110,41
239.67516,239.84181,56,110,41
239.92516,240.09181,57,110,41
240.17516,240.66994,53,110,41
240.17516,240.66994,57,110,41
240.67516,240.84181,56,110,41
240.92516,241.09181,57,110,41
241.17516,241.66994,53,110,41
241.17516,241.66994,57,110,41
241.67516,241.91994,58,110,41
241.92516,242.16994,60,110,41
242.17516,242.34181,63,110,41
242.42516,242.54494,65,110,41
242.55016,242.66994,67,110,41
242.67516,242.84181,53,110,41
242.67516,242.84181,60,110,41
242.92516,243.09181,53,110,41
242.92516,243.09181,60,110,41
243.17516,243.66994,53,110,41
243.17516,243.66994,60,110,41
243.67516,243.84181,53,110,41
243.67516,243.84181,60,110,41
243.92516,244.09181,53,110,41
243.92516,244.09181,60,110,41
244.17516,244.66994,53,110,41
244.17516,244.66994,60,110,41
244.67516,244.84181,53,110,41
244.67516,244.84181,60,110,41
244.92516,245.09181,53,110,41
244.92516,245.09181,60,110,41
245.17516,245.66994,53,110,41
245.17516,245.66994,60,110,41
245.67516,245.91994,55,110,41
245.92516,246.16994,48,110,41
246.17516,246.29494,51,110,41
246.30016,246.41994,63,110,41
246.42516,246.54494,65,110,41
246.55016,246.66994,67,110,41
246.67516,246.79494,63,110,41
246.80016,246.91994,65,110,41
246.92516,247.04494,67,110,41
247.05016,247.16994,65,110,41
247.17516,247.34181,65,110,41
247.42516,247.59181,65,110,41
247.67516,247.79494,65,110,41
247.80016,247.88869,67,110,41
247.92516,248.01369,67,110,41
248.05016,248.13869,67,110,41
248.17516,248.34181,67,110,41
248.42516,248.59181,63,70,41
248.67516,248.79494,62,70,41
248.80016,248.91994,60,70,41
248.92516,249.04494,58,70,41
249.05016,249.16994,60,70,41
249.17516,249.34181,58,70,41
249.42516,249.59181,60,70,41
249.67516,249.79494,58,70,41
249.80016,249.91994,56,70,41
249.92516,250.04494,55,70,41
250.05016,250.16994,56,70,41
250.17516,250.34181,55,70,41
250.42516,250.59181,67,110,41
250.67516,250.79494,63,110,41
250.80016,250.91994,65,110,41
250.92516,251.04494,67,110,41
251.05016,251.16994,65,110,41
251.17516,251.34181,65,110,41
251.42516,251.59181,65,110,41
251.67516,251.79494,65,110,41
251.80016,251.88869,67,110,41
251.92516,252.01369,67,110,41
252.05016,252.13869,67,110,41
252.17516,252.41994,67,110,41
252.67516,252.79494,48,104,41
252.80016,252.91994,50,103,41
253.688,253.81194,50,92,41
253.81732,253.94124,51,90,41
254.73627,254.86461,50,79,41
254.8702,254.99854,51,77,41
255.81743,255.95305,51,70,41
255.95894,256.09454,55,69,41
257.0168,257.1965,52,59,41
257.2043,257.384,55,57,41
263.69537,264.10336,64,100,41
264.11203,264.52002,67,83,41
264.94537,265.35336,64,50,41
265.36203,265.77002,67,50,41
266.19537,266.60336,64,50,41
266.61203,267.43668,72,50,41
267.44537,268.68668,71,50,41
268.69537,269.10336,64,50,41
269.11203,269.93668,72,50,41
269.94537,271.60336,63,50,41
271.61203,271.81168,72,50,41
273.69537,273.82556,60,50,41
273.83426,273.96448,56,50,41
273.97314,274.10336,58,50,41
274.11203,274.24225,60,50,41
274.25092,274.38113,61,50,41
274.3898,274.52002,63,50,41
274.5287,274.6589,65,50,41
274.6676,274.7978,67,50,41
274.8065,274.93668,68,50,41
274.94537,275.07556,70,50,41
275.08426,275.21448,68,50,41
275.22314,275.35336,67,50,41
275.36203,275.49225,65,50,41
275.50092,275.63113,63,50,41
275.6398,275.77002,61,50,41
275.7787,275.9089,60,50,41
275.9176,276.0478,61,50,41
276.0565,276.18668,58,50,41
276.19537,276.32556,60,50,41
276.33426,276.46445,56,50,41
276.47314,276.60336,58,50,41
276.61203,276.74225,60,50,41
276.75092,276.88113,61,50,41
276.8898,277.02002,63,50,41
277.0287,277.1589,65,50,41
277.16757,277.2978,67,50,41
277.3065,277.43668,68,50,41
277.44537,277.57556,68,50,41
277.58426,277.71445,71,50,41
277.72314,277.85336,68,50,41
277.86203,277.99225,71,50,41
278.00092,278.13113,68,50,41
278.1398,278.27002,71,50,41
278.2787,278.4089,68,50,41
278.41757,278.5478,71,50,41
278.5565,278.68668,68,50,41
278.69537,278.82556,71,50,41
278.83426,278.96445,68,50,41
278.97314,279.10336,71,50,41
279.11203,279.24225,68,50,41
279.25092,279.38113,71,50,41
279.3898,279.52002,68,50,41
279.5287,279.6589,56,50,41
279.66757,279.7978,56,50,41
279.8065,279.93668,56,50,41
279.94537,280.07556,56,50,41
280.08426,280.21445,57,50,41
280.22314,280.35336,59,50,41
280.36203,280.49225,61,50,41
280.50092,280.63113,63,50,41
280.6398,280.77002,64,50,41
280.7787,280.9089,66,50,41
280.91757,281.0478,68,50,41
281.0565,281.18668,69,50,41
281.19537,281.60336,71,50,41
281.61203,286.251,52,50,41
286.2597,286.5635,51,50,41
286.67636,286.9802,51,50,41
287.5097,287.8135,51,50,41
287.92636,288.2302,51,50,41
288.7597,289.0635,51,50,41
289.17636,289.4802,51,50,41
290.0097,290.3135,51,50,41
290.42636,290.74805,51,50,41
291.35193,291.7839,63,50,41
291.7931,292.20108,70,50,41
292.20975,292.35733,67,50,41
292.4181,292.56567,63,50,41
292.62643,292.83475,58,50,41
292.83475,293.87643,68,50,41
293.87643,294.28442,63,50,41
294.2931,294.70108,70,50,41
294.70975,294.85733,67,50,41
294.9181,295.06567,63,50,41
295.12643,295.33475,57,50,41
295.33475,296.37643,69,50,41
296.37643,296.58475,58,50,41
296.58475,296.7931,70,50,41
296.7931,297.00143,59,51,41
297.00143,297.20975,71,52,41
297.62643,297.83475,59,54,41
297.83475,298.0431,71,55,41
298.0431,298.25143,60,55,41
298.25143,298.45975,72,56,41
298.87643,299.08475,56,58,41
299.08475,299.2931,68,59,41
299.2931,299.50143,57,60,41
299.50143,299.70975,69,60,41
300.12643,300.33475,57,62,41
300.33475,300.5431,69,63,41
300.5431,300.75143,58,64,41
300.75143,300.95975,70,65,41
301.37643,301.50662,51,67,41
301.51532,301.6455,63,67,41
301.6542,301.7844,51,68,41
301.7931,301.9233,63,68,41
301.93198,302.0622,51,69,41
302.07086,302.20108,63,69,41
302.20975,302.33997,51,70,41
302.34863,302.47885,63,70,41
302.48752,302.61774,51,70,41
302.62643,302.75662,63,71,41
302.76532,302.8955,51,71,41
302.9042,303.0344,63,72,41
303.0431,303.1733,51,72,41
303.18198,303.3122,63,73,41
303.32086,303.45108,51,73,41
303.45975,303.58997,63,74,41
303.59863,303.72885,51,74,41
303.73752,303.86774,63,75,41
303.87643,304.00662,51,75,41
304.01532,304.1455,63,76,41
304.1542,304.2844,51,76,41
304.2931,304.4233,63,77,41
304.43198,304.5622,51,77,41
304.57086,304.70108,63,78,41
304.70975,304.83997,51,78,41
304.84863,304.97885,63,79,41
304.98752,305.11774,51,79,41
305.12643,305.25662,63,80,41
305.26532,305.3955,51,80,41
305.4042,305.5344,63,80,41
305.5431,305.67328,51,81,41
305.68198,305.8122,63,81,41
305.82086,305.95108,51,82,41
305.95975,306.08997,63,82,41
306.09863,306.22885,51,83,41
306.23752,306.36774,63,83,41
306.3764,306.50662,51,84,41
306.51532,306.6455,63,84,41
306.6542,306.7844,51,85,41
306.7931,306.92328,63,85,41
306.93198,307.0622,51,86,41
307.07086,307.20108,63,86,41
307.20975,307.33997,51,87,41
307.34863,307.47885,63,87,41
307.48752,307.61774,51,88,41
307.6264,307.75662,63,88,41
307.76532,307.8955,51,89,41
307.9042,308.0344,63,89,41
308.0431,308.17328,51,90,41
308.18198,308.3122,63,90,41
308.32086,308.45108,51,90,41
308.45975,308.58997,63,91,41
308.59863,308.72885,51,91,41
308.73752,308.86774,63,92,41
308.8764,309.00662,51,92,41
309.01532,309.1455,63,93,41
309.1542,309.2844,51,93,41
309.2931,309.42328,63,94,41
309.43198,309.5622,51,94,41
309.57086,309.70108,63,95,41
309.70975,309.83997,51,95,41
309.84863,309.97885,63,96,41
309.98752,310.11774,51,96,41
310.1264,310.26428,63,97,41
310.27347,310.41135,51,97,41
310.42053,310.5584,63,98,41
310.5676,310.71408,51,98,41
310.72385,310.87033,63,99,41
310.8801,311.02658,51,99,41
311.03635,311.1926,63,100,41
311.203,311.35925,51,100,41
311.3697,311.52594,63,100,41
311.53635,311.67422,67,110,41
311.6834,311.82126,63,110,41
311.83047,311.96832,65,110,41
311.9775,312.10773,67,110,41
312.1164,312.2466,68,110,41
312.2553,312.3855,70,110,41
312.3942,312.52438,72,110,41
312.53308,312.66327,74,110,41
312.67197,312.8022,75,125,41
312.81085,312.94107,74,115,41
312.94974,313.07996,72,110,41
313.08862,313.21884,70,110,41
313.2275,313.35773,68,110,41
313.3664,313.4966,67,110,41
313.5053,313.6355,65,110,41
313.6442,313.77438,63,110,41
313.78308,313.91327,65,110,41
313.92197,314.0522,62,110,41
314.06085,314.19107,58,110,41
314.19974,314.32996,55,110,41
314.33862,314.46884,56,110,41
314.4775,314.60773,58,110,41
314.6164,314.7466,60,110,41
314.7553,314.8855,62,110,41
314.8942,315.02438,63,110,41
315.03308,315.16327,65,110,41
315.17197,315.3022,67,110,41
315.31085,315.44107,72,125,41
315.44974,315.57996,72,115,41
315.58862,315.71884,72,110,41
315.7275,315.85773,72,110,41
315.8664,315.9966,72,110,41
316.0053,316.1355,72,110,41
316.1442,316.27438,72,110,41
316.28308,316.41327,72,110,41
316.42197,316.5522,72,110,41
316.56085,316.69107,58,125,41
316.56085,316.69107,68,125,41
316.69974,316.82996,58,115,41
316.69974,316.82996,68,115,41
316.83862,316.96884,58,110,41
316.83862,316.96884,68,110,41
316.9775,317.10773,58,110,41
316.9775,317.10773,68,110,41
317.1164,317.2466,58,110,41
317.1164,317.2466,68,110,41
317.2553,317.3855,58,110,41
317.2553,317.3855,68,110,41
317.3942,317.52438,58,110,41
317.3942,317.52438,68,110,41
317.53308,317.66327,58,110,41
317.53308,317.66327,68,110,41
317.67197,317.80215,58,110,41
317.67197,317.80215,68,110,41
317.81085,317.94107,58,125,41
317.81085,317.94107,65,125,41
317.94974,318.07996,58,115,41
317.94974,318.07996,65,115,41
318.08862,318.21884,58,110,41
318.08862,318.21884,65,110,41
318.2275,318.35773,58,110,41
318.2275,318.35773,65,110,41
318.3664,318.4966,58,110,41
318.3664,318.4966,65,110,41
318.50528,318.6355,58,110,41
318.50528,318.6355,65,110,41
318.6442,318.77438,58,110,41
318.6442,318.77438,65,110,41
318.78308,318.91327,58,110,41
318.78308,318.91327,65,110,41
318.92197,319.05215,58,110,41
318.92197,319.05215,65,110,41
319.06085,319.19107,58,125,41
319.06085,319.19107,65,125,41
319.19974,319.32996,58,115,41
319.19974,319.32996,65,115,41
319.33862,319.46884,58,110,41
319.33862,319.46884,65,110,41
319.4775,319.60773,58,110,41
319.4775,319.60773,65,110,41
319.6164,319.7466,58,110,41
319.6164,319.7466,65,110,41
319.75528,319.8855,58,110,41
319.75528,319.8855,65,110,41
319.8942,320.02438,58,110,41
319.8942,320.02438,65,110,41
320.03308,320.16327,58,110,41
320.03308,320.16327,65,110,41
320.17197,320.30215,58,110,41
320.17197,320.30215,65,110,41
320.31085,320.44873,58,125,41
320.31085,320.44873,65,125,41
320.45792,320.59576,58,115,41
320.45792,320.59576,65,115,41
320.60498,320.74283,58,110,41
320.60498,320.74283,65,110,41
320.752,320.8985,58,110,41
320.752,320.8985,65,110,41
320.90826,321.05475,58,106,41
320.90826,321.05475,65,106,41
321.0645,321.211,58,102,41
321.0645,321.211,65,102,41
321.22076,321.377,58,98,41
321.22076,321.377,65,98,41
321.38745,321.5437,58,94,41
321.38745,321.5437,65,94,41
321.5541,321.71036,58,90,41
321.5541,321.71036,65,90,41
321.72076,321.85864,58,70,41
321.72076,321.85864,63,70,41
321.86783,322.0057,51,70,41
322.0149,322.15277,53,70,41
322.16196,322.29214,55,70,41
322.30084,322.43106,56,70,41
322.43973,322.56995,58,70,41
322.5786,322.70883,60,70,41
322.7175,322.84772,62,70,41
322.85638,322.9866,63,70,41
322.99527,323.1255,65,70,41
323.1342,323.26437,67,70,41
323.27307,323.40326,68,70,41
323.41196,323.54214,70,71,41
323.55084,323.68106,72,71,41
323.68973,323.81995,74,72,41
323.8286,323.95883,75,73,41
323.9675,324.09772,77,74,41
324.10638,324.2366,74,75,41
324.24527,324.3755,70,75,41
324.3842,324.51437,55,76,41
324.52307,324.65326,56,77,41
324.66196,324.79214,58,78,41
324.80084,324.93106,60,78,41
324.93973,325.06995,62,79,41
325.0786,325.20883,63,80,41
325.2175,325.34772,65,81,41
325.35638,325.4866,67,82,41
325.49527,325.6255,63,82,41
325.6342,325.76437,72,83,41
325.77307,325.90326,70,84,41
325.91196,326.04214,69,85,41
326.05084,326.18106,67,85,41
326.18973,326.31995,65,86,41
326.3286,326.45883,63,87,41
326.4675,326.59772,62,88,41
326.60638,326.7366,60,89,41
326.74527,326.8755,58,89,41
326.8842,327.01437,58,90,41
327.02307,327.15326,58,91,41
327.16196,327.29214,58,92,41
327.30084,327.43106,58,93,41
327.43973,327.56995,58,93,41
327.5786,327.70883,58,94,41
327.7175,327.84772,58,95,41
327.85638,327.9866,58,96,41
327.99527,328.1255,58,96,41
328.1342,328.26437,58,97,41
328.27307,328.40326,58,98,41
328.41196,328.54214,58,99,41
328.55084,328.68106,58,100,41
328.68973,328.81995,58,100,41
328.8286,328.95883,58,101,41
328.9675,329.09772,58,102,41
329.10638,329.2366,58,103,41
329.24527,329.3755,58,103,41
329.3842,329.51437,58,104,41
329.52307,329.65326,58,105,41
329.66196,329.79214,58,106,41
329.80084,329.93103,58,107,41
329.93973,330.06995,58,107,41
330.0786,330.20883,58,108,41
330.2175,330.34772,58,109,41
330.35638,330.4866,58,110,41
330.49527,330.63315,58,110,41
330.64233,330.7802,58,110,41
330.7894,330.92728,58,110,41
330.93646,331.08295,58,110,41
331.0927,331.2392,58,110,41
331.24896,331.39545,58,110,41
331.4052,331.56146,58,110,41
331.57187,331.73334,58,110,41
331.7445,331.9119,58,110,41
331.92307,332.25452,58,70,41
332.3776,332.6901,56,70,41
333.23474,333.54724,70,70,41
333.66333,333.97583,70,70,41
334.52048,334.9401,70,70,41
334.94904,335.36868,72,70,41
335.3776,335.5294,68,70,41
335.5919,335.74368,65,70,41
335.80618,336.22583,63,70,41
336.23474,336.6544,65,70,41
336.66333,336.8151,62,70,41
336.8776,337.0294,58,70,41
337.0919,337.4044,70,70,41
337.52045,337.83295,70,73,41
338.3776,338.6901,70,80,41
338.80618,339.11868,70,84,41
339.66333,340.08295,70,91,41
340.0919,340.51154,72,94,41
340.52045,340.67224,68,98,41
340.73474,340.88654,65,100,41
340.94904,341.36868,67,102,41
341.3776,341.80957,68,105,41
341.8188,341.98224,65,109,41
342.04953,342.22662,56,110,41
342.04953,342.22662,65,110,41
342.29953,342.4416,55,120,41
342.45105,342.58932,55,120,41
342.59824,342.73218,55,120,41
342.7411,342.87503,55,120,41
342.88397,343.01788,55,120,41
343.02682,343.16074,55,120,41
343.16968,343.3036,56,120,41
343.31253,343.44647,56,120,41
343.45538,343.58932,56,120,41
343.59824,343.73218,56,120,41
343.7411,343.87503,56,120,41
343.88397,344.01788,56,120,41
344.02682,344.16074,53,120,41
344.16968,344.3036,53,120,41
344.31253,344.44647,53,120,41
344.45538,344.58932,53,120,41
344.59824,344.73218,53,120,41
344.7411,344.87503,53,120,41
344.88397,345.01788,63,120,41
345.02682,345.16074,62,120,41
345.16968,345.3036,60,120,41
345.31253,345.44647,70,120,41
345.45538,345.58932,68,120,41
345.59824,345.73218,67,120,41
345.7411,345.87503,72,120,41
345.88397,346.01788,70,120,41
346.02682,346.16074,68,120,41
346.16968,346.3036,67,120,41
346.31253,346.44644,65,120,41
346.45538,346.58932,63,120,41
346.59824,346.73218,62,120,41
346.7411,346.87503,60,120,41
346.88394,347.01788,58,120,41
347.02682,347.16074,60,120,41
347.16968,347.3036,62,120,41
347.31253,347.44644,58,120,41
347.45538,347.76788,63,120,41
347.88394,348.3036,51,120,41
347.88394,348.3036,55,120,41
349.16968,349.58932,58,120,41
349.16968,349.58932,62,120,41
350.45538,350.90045,63,120,41
351.81903,352.34357,58,120,41
352.89044,353.03693,67,50,41
353.0467,353.18732,68,50,41
353.19626,353.33017,67,50,41
353.3391,353.47302,68,50,41
353.48196,353.61588,68,50,41
353.62482,353.75876,68,50,41
353.76767,353.9016,67,50,41
353.91052,354.04446,68,50,41
354.05338,354.18732,67,50,41
354.19626,354.33017,67,50,41
354.3391,354.47302,68,50,41
354.48196,354.61588,67,50,41
354.62482,354.75876,68,50,41
354.76767,354.9016,68,50,41
354.91052,355.04446,68,50,41
355.05338,355.47302,67,50,41
355.48196,355.61588,58,50,41
355.48196,355.61588,67,50,41
355.62482,355.75876,58,50,41
355.62482,355.75876,67,50,41
355.76767,355.9016,58,50,41
355.76767,355.9016,67,50,41
355.91052,356.04446,58,50,41
355.91052,356.04446,67,50,41
356.05338,356.18732,58,50,41
356.05338,356.18732,67,50,41
356.19626,356.33017,58,50,41
356.19626,356.33017,67,50,41
356.3391,356.47302,58,50,41
356.3391,356.47302,67,50,41
356.48196,356.61588,58,50,41
356.48196,356.61588,67,50,41
356.62482,356.75876,58,50,41
356.62482,356.75876,67,50,41
356.76767,357.18732,58,50,41
357.19626,357.61588,65,50,41
357.62482,357.7766,62,50,41
357.8391,357.99088,58,50,41
358.05338,358.18732,67,50,41
358.19623,358.33017,68,50,41
358.3391,358.47302,67,50,41
358.48196,358.61588,68,50,41
358.62482,358.75873,68,50,41
358.76767,358.9016,68,50,41
358.91052,359.04446,67,50,41
359.05338,359.18732,68,50,41
359.19623,359.33017,67,50,41
359.3391,359.47302,67,50,41
359.48196,359.61588,68,50,41
359.62482,359.75873,67,50,41
359.76767,359.9016,68,50,41
359.91052,360.04446,68,50,41
360.05338,360.18732,68,50,41
360.19623,360.61588,67,50,41
360.62482,360.75873,67,50,41
360.76767,360.9016,67,50,41
360.91052,361.04446,67,50,41
361.05338,361.18732,67,50,41
361.19623,361.33017,67,50,41
361.3391,361.47302,67,50,41
361.48196,361.61588,67,50,41
361.62482,361.75873,67,50,41
361.76767,361.9016,67,50,41
361.91052,362.04446,66,50,41
362.05338,362.18732,66,50,41
362.19623,362.33017,66,50,41
362.33908,362.47302,66,50,41
362.48196,362.61588,66,50,41
362.62482,362.75873,66,50,41
362.76767,362.90158,66,50,41
362.91052,363.04446,66,50,41
363.05338,363.18732,66,50,41
363.19623,363.33017,67,50,41
363.33908,363.47302,67,50,41
363.48196,363.61588,67,50,41
363.62482,363.75873,67,50,41
363.76767,363.90158,67,50,41
363.91052,364.04446,67,50,41
364.05338,364.18732,67,50,41
364.19623,364.33017,67,50,41
364.33908,364.47302,67,50,41
364.48196,364.61588,66,50,41
364.62482,364.75873,66,57,41
364.76767,364.90158,66,65,41
364.91052,365.05045,66,72,41
365.05978,365.1997,66,80,41
365.209,365.34897,66,87,41
365.35828,365.50476,66,95,41
365.51453,365.6656,66,102,41
365.676,365.83224,66,110,41
365.84265,366.74228,58,100,41
367.2063,368.19586,58,120,41
367.2063,368.19586,65,120,41
367.2063,368.19586,74,120,41
368.7063,370.19586,55,120,41
368.7063,370.19586,63,120,41
368.7063,370.19586,75,120,41
0.0,0.16666667,43,110,42
0.25,0.41666666,55,110,42
0.5,1.2447916,56,110,42
1.25,1.4947916,53,91,42
1.5,1.7447916,50,70,42
1.75,1.9947916,51,70,42
2.0,2.2447917,47,70,42
2.25,2.4947917,48,70,42
2.5,2.7447917,45,70,42
2.75,2.9947917,46,70,42
3.0,3.2447917,43,70,42
3.25,3.4947917,44,70,42
3.5,3.753232,41,70,42
3.75862,4.0256653,46,70,42
4.031347,4.526139,39,70,42
4.531347,5.026139,41,70,42
5.031347,5.526139,39,70,42
5.531347,6.026139,41,70,42
6.031347,6.526139,39,70,42
6.531347,8.026138,41,70,42
8.031347,8.526138,43,70,42
8.531347,9.026138,44,70,42
9.031347,9.526138,43,70,42
9.531347,10.026138,41,70,42
10.031347,10.276138,39,70,42
10.281347,10.526138,36,70,42
10.531347,10.776138,38,70,42
10.781347,11.026138,39,70,42
11.031347,11.284579,46,70,42
11.289967,11.5432,45,70,42
11.548587,11.815632,46,70,42
11.821314,12.088359,38,70,42
12.094041,12.588833,39,70,42
12.594041,13.088833,41,70,42
13.094041,13.588833,39,70,42
13.594041,14.088833,41,70,42
14.094041,14.588833,39,70,42
14.594041,16.088833,41,70,42
16.094042,16.588833,43,70,42
16.594042,17.088833,44,70,42
17.094042,17.588833,43,70,42
17.594042,18.088833,41,70,42
18.094042,18.338833,39,70,42
18.344042,18.588833,37,70,42
18.594042,18.838833,36,70,42
18.844042,19.097273,38,70,42
19.102661,19.369707,39,70,42
19.375387,19.65251,46,70,42
19.658405,19.952156,51,70,42
20.981133,21.225925,58,80,42
21.231133,21.475925,60,90,42
21.481133,21.725925,62,100,42
21.731133,21.975925,63,85,42
21.981133,22.225925,63,70,42
22.231133,22.475925,65,110,42
22.731133,22.975925,53,110,42
23.231133,23.484365,53,110,42
23.489754,23.756798,58,110,42
23.76248,24.05623,58,110,42
25.085207,25.329998,58,70,42
25.335207,25.579998,60,85,42
25.585207,25.829998,62,100,42
25.835207,26.079998,63,100,42
26.085207,26.329998,48,90,42
26.335207,26.579998,48,110,42
26.835207,27.079998,48,110,42
27.085207,27.33844,50,110,42
27.343826,27.610872,51,110,42
27.616554,27.893675,46,110,42
27.899572,28.193321,51,110,42
30.2223,30.46709,51,70,42
30.4723,30.5348,51,110,42
30.5348,30.5973,53,110,42
30.5973,30.71709,51,110,42
30.7223,30.96709,48,110,42
30.9723,31.0348,46,110,42
31.0348,31.0973,48,110,42
31.0973,31.21709,46,110,42
31.2223,31.46709,45,110,42
31.601608,31.72553,48,110,42
31.730919,31.912737,46,110,42
32.003647,32.297398,46,110,42
32.303646,32.57069,56,70,42
32.576374,32.821163,55,70,42
32.826374,33.071163,53,80,42
33.076374,33.321163,55,90,42
33.326374,33.571163,58,100,42
33.576374,33.821163,48,100,42
33.826374,34.071163,50,90,42
34.076374,34.321163,51,80,42
34.326374,34.571163,51,70,42
34.576374,34.638874,51,110,42
34.638874,34.701374,53,110,42
34.701374,34.821163,51,110,42
34.826374,35.071163,48,110,42
35.076374,35.138874,46,110,42
35.138874,35.201374,48,110,42
35.201374,35.321163,46,110,42
35.326374,35.571163,44,110,42
35.576374,35.821163,43,110,42
35.826374,35.946163,44,110,42
35.951374,36.071163,41,110,42
36.076374,36.248787,39,110,42
36.33499,36.470604,44,100,42
36.4765,36.612114,41,90,42
36.61801,36.737804,39,50,42
36.74301,36.862804,46,50,42
36.86801,36.987804,43,50,42
36.99301,37.112804,39,50,42
37.11801,37.612804,44,50,42
37.61801,37.737804,39,50,42
37.74301,37.862804,46,50,42
37.86801,37.987804,43,50,42
37.99301,38.112804,39,50,42
38.11801,38.612804,44,50,42
38.61801,38.737804,39,50,42
38.74301,38.862804,46,50,42
38.86801,38.987804,43,50,42
38.99301,39.112804,39,50,42
39.11801,39.612804,45,50,42
39.61801,39.862804,46,50,42
39.86801,40.112804,48,50,42
40.11801,40.362804,44,50,42
40.36801,40.612804,41,50,42
40.61801,41.112804,39,50,42
41.11801,41.237804,38,50,42
41.24301,41.362804,46,50,42
41.36801,41.487804,41,50,42
41.49301,41.612804,38,50,42
41.61801,42.112804,39,50,42
42.11801,42.237804,38,50,42
42.24301,42.362804,46,50,42
42.36801,42.487804,41,50,42
42.49301,42.612804,38,50,42
42.61801,43.237804,39,50,42
43.24301,43.362804,42,50,42
43.36801,43.487804,41,50,42
43.49301,43.612804,39,50,42
43.61801,43.862804,38,50,42
43.86801,44.112804,36,50,42
44.11801,44.362804,41,50,42
44.36801,44.612804,53,50,42
44.61801,47.612804,53,50,42
47.61801,47.862804,51,50,42
47.86801,48.362804,65,50,42
48.36801,48.862804,65,50,42
48.86801,49.112804,58,50,42
49.11801,49.237804,57,50,42
49.24301,49.362804,65,50,42
49.36801,49.487804,60,50,42
49.49301,49.612804,57,50,42
49.61801,49.862804,63,50,42
49.86801,50.112804,58,50,42
50.11801,50.237804,57,50,42
50.24301,50.362804,65,50,42
50.36801,50.487804,60,50,42
50.49301,50.612804,57,50,42
50.61801,50.862804,63,50,42
50.86801,51.237804,58,50,42
51.24301,51.362804,61,51,42
51.36801,51.487804,60,53,42
51.49301,51.612804,58,55,42
51.61801,51.737804,57,57,42
51.74301,51.862804,60,59,42
51.86801,51.987804,58,61,42
51.99301,52.112804,57,63,42
52.11801,52.237804,56,65,42
52.24301,52.331554,55,66,42
52.36801,52.456554,56,68,42
52.49301,52.581554,56,70,42
52.61801,52.862804,56,72,42
52.86801,53.112804,55,76,42
53.11801,53.362804,48,80,42
53.36801,53.612804,51,83,42
53.61801,53.862804,53,87,42
53.86801,54.112804,41,91,42
54.11801,54.362804,53,95,42
54.36801,54.612804,53,99,42
54.61801,54.78468,46,110,42
54.86801,55.03468,63,110,42
55.11801,55.28468,62,110,42
55.36801,55.53468,60,110,42
55.61801,55.78468,58,110,42
55.86801,56.03468,57,110,42
56.11801,56.28468,55,110,42
56.36801,56.53468,53,110,42
56.61801,56.78468,51,110,42
56.86801,57.03468,50,110,42
57.11801,57.28468,48,110,42
57.36801,57.53468,46,110,42
57.61801,57.78468,45,110,42
57.86801,58.03468,43,110,42
58.11801,58.28468,41,110,42
58.36801,58.53468,63,110,42
58.61801,58.78468,62,110,42
58.86801,59.03468,63,110,42
59.11801,59.28468,62,110,42
59.36801,59.53468,60,110,42
59.61801,59.78468,58,110,42
59.86801,60.03468,57,110,42
60.11801,60.28468,55,110,42
60.36801,60.53468,53,110,42
60.61801,60.78468,51,110,42
60.86801,61.03468,50,110,42
61.11801,61.28468,48,110,42
61.36801,61.53468,46,110,42
61.61801,61.862804,53,110,42
62.61801,62.78468,62,70,42
62.86801,63.03468,60,70,42
63.11801,63.28468,58,70,42
63.36801,63.53468,53,70,42
63.61801,63.862804,50,70,42
64.37663,64.55845,46,70,42
64.64936,64.816025,46,110,42
64.89936,65.066025,47,110,42
65.14936,65.316025,48,110,42
65.39936,65.51915,50,110,42
65.52436,65.64415,52,110,42
65.64936,65.816025,53,110,42
65.89936,66.07177,53,110,42
66.157974,66.3398,53,110,42
66.4307,66.63071,53,110,42
66.730705,66.90312,49,70,42
66.98933,67.161736,50,70,42
67.24795,67.42036,46,70,42
67.50656,67.67898,50,70,42
67.76518,67.9376,51,70,42
68.0238,68.19622,52,70,42
68.282425,68.79427,55,110,42
68.79967,68.97208,56,70,42
69.05829,69.2307,57,70,42
69.3169,69.48932,53,70,42
69.57552,69.74794,57,70,42
69.834145,70.00656,58,70,42
70.092766,70.265175,59,70,42
70.35139,70.863235,62,110,42
70.86862,71.04104,59,70,42
71.12724,71.29966,60,70,42
71.385864,71.89772,63,110,42
71.90311,72.075516,61,70,42
72.16173,72.33414,62,70,42
72.42034,72.96011,65,110,42
72.9658,73.13247,47,120,42
73.2158,73.38247,36,120,42
73.2158,73.38247,48,120,42
73.4658,73.960594,36,120,42
73.4658,73.960594,48,120,42
73.9658,74.13247,47,120,42
74.2158,74.38247,36,120,42
74.2158,74.38247,48,120,42
74.4658,74.960594,36,120,42
74.4658,74.960594,48,120,42
74.9658,75.13247,47,120,42
75.2158,75.38247,36,120,42
75.2158,75.38247,48,120,42
75.4658,75.960594,36,120,42
75.4658,75.960594,48,120,42
75.9658,76.210594,38,120,42
76.2158,76.460594,39,120,42
76.4658,76.710594,41,120,42
76.7158,76.835594,57,120,42
76.8408,76.960594,58,120,42
76.9658,77.13247,36,120,42
76.9658,77.13247,43,120,42
77.2158,77.38247,36,120,42
77.2158,77.38247,43,120,42
77.4658,77.960594,36,120,42
77.4658,77.960594,43,120,42
77.9658,78.13247,36,120,42
77.9658,78.13247,43,120,42
78.2158,78.38247,36,120,42
78.2158,78.38247,43,120,42
78.4658,78.960594,36,120,42
78.4658,78.960594,43,120,42
78.9658,79.13247,36,120,42
78.9658,79.13247,43,120,42
79.2158,79.38247,36,120,42
79.2158,79.38247,43,120,42
79.4658,79.960594,36,120,42
79.4658,79.960594,43,120,42
79.9658,80.210594,38,120,42
80.2158,80.460594,39,120,42
80.4658,80.710594,41,120,42
80.7158,80.835594,57,120,42
80.8408,80.960594,58,120,42
80.9658,81.085594,59,110,42
81.0908,81.210594,60,110,42
81.2158,81.335594,62,110,42
81.3408,81.460594,60,110,42
81.4658,81.710594,60,110,42
81.7158,81.960594,57,110,42
81.9658,82.085594,57,110,42
82.0908,82.210594,58,110,42
82.2158,82.335594,60,110,42
82.3408,82.460594,58,110,42
82.4658,82.710594,58,110,42
82.7158,82.960594,55,70,42
82.9658,83.085594,53,70,42
83.0908,83.210594,51,70,42
83.2158,83.335594,50,70,42
83.3408,83.460594,51,70,42
83.4658,83.63247,50,70,42
83.7158,83.88247,51,70,42
83.9658,84.085594,50,70,42
84.0908,84.210594,48,70,42
84.2158,84.335594,46,70,42
84.3408,84.460594,48,70,42
84.4658,84.63247,46,70,42
84.7158,84.835594,57,110,42
84.8408,84.960594,58,110,42
84.9658,85.085594,58,110,42
85.0908,85.210594,60,110,42
85.2158,85.335594,62,110,42
85.3408,85.460594,60,110,42
85.4658,85.710594,60,110,42
85.7158,85.960594,57,110,42
85.9658,86.085594,57,110,42
86.0908,86.210594,58,110,42
86.2158,86.335594,60,110,42
86.3408,86.460594,58,110,42
86.4658,86.710594,58,110,42
86.7158,86.835594,68,70,42
86.8408,86.960594,67,70,42
86.9658,87.085594,67,70,42
87.0908,87.210594,65,70,42
87.2158,87.335594,64,70,42
87.3408,87.460594,65,70,42
87.4658,87.710594,65,70,42
87.7158,87.960594,65,70,42
87.9658,88.085594,65,70,42
88.0908,88.210594,63,70,42
88.2158,88.335594,62,70,42
88.3408,88.460594,63,70,42
88.4658,88.710594,63,70,42
90.749695,90.935074,63,70,42
91.00393,91.125755,60,70,42
91.13105,91.25287,62,70,42
92.02088,92.1427,62,70,42
92.147995,92.26982,63,70,42
93.04221,93.16613,59,50,42
93.171524,93.29544,63,50,42
94.08123,94.20732,55,50,42
94.21281,94.338905,59,50,42
95.13856,95.26691,51,50,42
95.272484,95.40083,55,53,42
96.21485,96.345535,47,79,42
96.35122,96.481895,51,82,42
96.76031,96.89099,48,93,42
96.896675,97.02735,51,97,42
97.30576,97.47243,43,110,42
97.55576,97.72243,55,110,42
97.80576,98.55055,56,110,42
98.55576,98.80055,53,94,42
98.80576,99.05055,50,70,42
99.05576,99.30055,51,70,42
99.30576,99.55055,47,70,42
99.55576,99.80055,48,70,42
99.80576,100.05055,45,70,42
100.05576,100.30055,46,70,42
100.30576,100.55055,43,70,42
100.55576,100.80055,44,70,42
100.80576,101.05055,41,60,42
101.05576,101.30055,46,60,42
101.30576,101.55055,41,60,42
101.55576,101.80055,43,60,42
101.80576,102.80055,39,60,42
102.80576,104.80055,51,60,42
104.80576,105.30055,52,60,42
105.30576,106.05055,53,60,42
106.05576,106.30055,53,60,42
106.30576,106.47243,60,60,42
106.55576,106.72243,60,60,42
106.80576,106.97243,60,60,42
107.05576,107.22243,60,60,42
107.30576,107.47243,67,50,42
107.55576,107.72243,67,50,42
107.80576,107.97243,67,50,42
108.05576,108.22243,67,50,42
108.30576,108.47243,67,50,42
108.55576,108.72243,67,50,42
108.80576,108.97243,67,50,42
109.05576,109.22243,67,50,42
109.30576,109.47243,67,50,42
109.55576,109.72243,67,50,42
109.80576,109.97243,67,50,42
110.05576,110.22243,67,50,42
110.30576,110.47243,67,50,42
110.55576,110.72243,67,50,42
110.80576,110.97817,67,50,42
111.064384,111.2462,67,50,42
111.33711,111.5194,36,110,42
111.58711,111.7694,36,110,42
111.83711,112.0194,36,110,42
112.08711,112.2694,36,110,42
112.83711,113.0194,41,110,42
113.08711,113.2694,41,110,42
113.33711,113.5194,44,110,42
113.58711,113.7694,43,110,42
113.83711,114.0194,41,110,42
114.08711,114.2694,39,110,42
114.33711,114.5194,38,110,42
114.58711,114.7694,36,110,42
114.83711,115.0194,47,110,42
115.08711,115.2694,48,110,42
115.33711,115.5194,43,110,42
115.58711,115.7694,55,110,42
115.83711,116.0194,43,110,42
116.08711,116.2694,43,110,42
116.33711,116.5819,43,110,42
116.58711,116.7069,45,110,42
116.71211,116.8319,47,110,42
116.83711,117.00378,48,110,42
117.08711,117.25378,47,110,42
117.33711,117.50378,51,110,42
117.58711,117.75378,50,110,42
117.83711,117.89961,50,110,42
117.89961,118.0194,48,110,42
118.08711,118.25378,47,110,42
118.33711,118.39961,47,110,42
118.39961,118.5194,45,110,42
118.58711,118.75378,43,110,42
118.83711,119.00378,42,110,42
119.08711,119.25378,43,110,42
119.33711,119.50378,51,110,42
119.58711,119.75378,50,110,42
119.83711,119.89961,50,110,42
119.89961,120.0194,48,110,42
120.08711,120.25378,47,110,42
120.33711,120.50952,44,110,42
120.595726,120.77755,43,110,42
120.868454,121.05714,41,110,42
121.151474,121.35147,38,110,42
123.45148,123.61814,55,50,42
123.70148,123.86814,55,50,42
123.95148,124.11814,55,50,42
124.20148,124.36814,55,50,42
124.45148,124.696266,55,50,42
124.70148,124.821266,57,50,42
124.82648,124.946266,59,50,42
124.95148,125.11814,60,50,42
125.20148,125.36814,59,50,42
125.45148,125.946266,46,50,42
125.95148,126.446266,48,64,42
126.45148,126.946266,46,79,42
126.95148,127.446266,43,93,42
127.45148,127.571266,41,110,42
127.57648,127.696266,48,110,42
127.70148,127.821266,44,110,42
127.82648,127.946266,41,110,42
127.95148,131.44626,46,110,42
131.45148,131.57126,41,127,42
131.57648,131.69626,48,110,42
131.70148,131.82126,45,110,42
131.82648,131.94626,41,110,42
131.95148,135.44626,46,110,42
135.45148,135.69626,45,91,42
135.70148,135.94626,57,70,42
135.95148,136.44626,58,70,42
136.45148,136.94626,55,70,42
136.95148,137.44626,56,70,42
137.45148,137.94626,53,70,42
137.95148,138.44626,55,70,42
138.45148,138.94626,52,70,42
138.95148,139.44626,53,75,42
139.45148,139.94626,50,80,42
139.95148,140.44626,51,86,42
140.45148,140.94626,48,91,42
140.95148,141.44626,49,96,42
141.45148,141.94626,51,100,42
141.95148,145.44626,51,90,42
145.45148,145.69626,56,70,42
153.95148,154.57126,63,70,42
154.57648,154.69626,72,70,42
154.70148,154.82126,68,70,42
154.82648,154.94626,63,70,42
154.95148,155.57126,63,70,42
155.57648,155.69626,72,74,42
155.70148,155.82126,68,78,42
155.82648,155.94626,63,83,42
155.95148,156.69626,63,87,42
156.95148,157.20471,67,70,42
157.2101,157.34077,68,70,42
157.34645,157.47714,70,70,42
157.48282,157.73177,72,70,42
157.73706,157.986,73,70,42
157.9913,158.24023,75,70,42
158.24553,158.49448,75,70,42
158.49977,159.76994,75,70,42
159.77533,160.02856,72,70,42
160.03395,160.29163,70,70,42
160.29712,160.55939,73,70,42
160.56497,160.83202,73,70,42
160.83769,161.04407,72,70,42
161.12071,161.39784,72,70,42
161.40373,161.66602,63,70,42
161.67159,161.91638,68,80,42
161.92159,162.16638,67,86,42
162.17159,162.41638,68,93,42
162.42159,162.66638,72,100,42
162.67159,162.91638,63,100,42
162.92159,163.16638,61,85,42
163.17159,163.41638,60,70,42
163.42159,163.66638,68,70,42
163.67159,163.91638,68,70,42
163.92159,164.16638,67,70,42
164.17159,164.29138,67,70,42
164.29659,164.41638,65,70,42
164.42159,164.54552,63,70,42
164.5509,164.67482,62,70,42
164.6802,164.94725,65,70,42
164.95294,165.23006,63,70,42
165.23596,165.52971,63,70,42
165.53595,165.803,63,70,42
165.80869,166.05348,68,77,42
166.05869,166.30348,67,85,42
166.30869,166.55348,68,93,42
166.55869,166.80348,72,100,42
166.80869,167.05348,63,100,42
167.05869,167.30348,61,90,42
167.30869,167.55348,60,80,42
167.55869,167.80348,68,70,42
167.80869,168.05348,68,70,42
168.05869,168.30348,67,71,42
168.30869,168.42848,67,72,42
168.43369,168.55348,65,73,42
168.55869,168.6826,63,73,42
168.68799,168.81192,61,74,42
168.8173,169.08435,60,75,42
169.09003,169.22072,61,76,42
169.2264,169.35707,58,77,42
169.36276,169.6298,56,77,42
169.63548,169.76616,49,79,42
169.77185,169.90253,46,79,42
169.90822,170.403,44,80,42
170.40822,171.153,36,83,42
171.15822,171.403,37,87,42
171.40822,171.653,39,88,42
171.65822,171.903,40,89,42
171.90822,172.153,41,91,42
172.15822,172.403,43,92,42
172.40822,172.653,44,93,42
172.65822,172.903,46,95,42
172.90822,173.153,39,96,42
173.15822,173.403,50,97,42
173.40822,173.653,51,99,42
173.65822,173.903,49,100,42
173.90822,174.153,48,101,42
174.15822,174.403,46,103,42
174.40822,174.653,44,104,42
174.65822,174.903,39,105,42
174.90822,175.153,41,107,42
175.15822,175.403,43,108,42
175.40822,175.653,44,109,42
175.65822,176.153,36,110,42
176.15822,176.66144,37,110,42
176.66682,176.92006,39,110,42
176.92545,177.17868,39,110,42
177.18407,177.69592,51,84,42
177.70131,177.95454,63,70,42
177.95993,178.21317,60,70,42
178.21855,178.98903,60,70,42
178.99442,179.24765,61,70,42
179.25304,179.76488,61,72,42
179.77026,180.28212,64,78,42
180.2875,181.3166,64,84,42
181.32199,182.35109,65,95,42
182.35648,183.38556,67,96,42
183.39095,184.42004,67,77,42
184.42543,185.49196,68,59,42
185.49754,186.56339,68,50,42
186.56897,187.63481,68,50,42
187.6404,188.48502,68,50,42
188.49127,189.00392,67,50,42
189.00912,189.50392,65,50,42
189.50912,190.00392,67,50,42
190.00912,190.50392,65,50,42
190.50912,191.00392,67,50,42
191.00912,191.75392,65,100,42
191.75912,192.00392,64,100,42
192.00912,192.25392,65,90,42
192.25912,192.50392,56,80,42
192.50912,192.75392,57,70,42
192.75912,193.25392,58,70,42
193.25912,193.50392,58,70,42
193.50912,193.75392,58,70,42
193.75912,194.00392,56,70,42
194.00912,194.25392,55,70,42
194.25912,194.50392,53,70,42
194.50912,194.75392,51,70,42
194.75912,195.00392,48,70,42
195.00912,195.25392,50,70,42
195.25912,195.50392,51,70,42
195.50912,195.75392,46,70,42
195.75912,196.00392,45,70,42
196.00912,196.25392,46,70,42
196.25912,196.50392,38,70,42
196.50912,198.75392,39,70,42
198.75912,199.00392,43,70,42
199.00912,199.25392,42,70,42
199.25912,199.50392,41,85,42
199.50912,200.25392,41,100,42
200.25912,200.37892,43,74,42
200.38412,200.50392,44,70,42
200.50912,201.00392,43,70,42
201.00912,201.50392,44,78,42
201.50912,202.00392,43,87,42
202.00912,202.50392,41,96,42
202.50912,202.75392,39,70,42
202.75912,203.00392,37,70,42
203.00912,203.25392,36,70,42
203.25912,203.50392,38,70,42
203.50912,203.75392,39,70,42
203.75912,203.84767,51,70,42
203.88412,203.97267,53,70,42
204.00912,204.09767,55,70,42
204.13412,204.22267,56,70,42
204.25912,204.34767,58,70,42
204.38412,204.47267,58,70,42
204.50912,204.75392,58,70,42
206.25912,206.37892,58,110,42
206.38412,206.50392,58,110,42
206.50912,206.62892,58,110,42
206.63412,206.75392,58,110,42
206.75912,206.87892,58,110,42
206.88412,207.00392,58,110,42
207.00912,207.12892,58,110,42
207.13412,207.25392,58,110,42
207.25912,207.37892,58,110,42
207.38412,207.50392,58,110,42
207.50912,207.62892,58,110,42
207.63412,207.75392,58,110,42
207.75912,207.87892,58,110,42
207.88412,208.00392,58,110,42
208.00912,208.25392,58,110,42
210.25912,210.37892,63,70,42
210.38412,210.50392,63,90,42
210.50912,210.62892,63,110,42
210.63412,210.75392,63,110,42
210.75912,210.87892,63,110,42
210.88412,211.00392,63,110,42
211.00912,211.12892,63,110,42
211.13412,211.25392,63,110,42
211.25912,211.37892,63,110,42
211.38412,211.50392,63,110,42
211.50912,211.62892,63,110,42
211.63412,211.75392,63,110,42
211.75912,211.87892,63,110,42
211.88412,212.00392,63,110,42
212.00912,212.25392,63,110,42
212.88412,213.00392,46,83,42
213.00912,213.25392,58,87,42
213.38412,213.50392,46,100,42
213.50912,213.75392,58,100,42
213.88412,214.00392,46,77,42
214.00912,214.25392,58,70,42
214.38412,214.50392,46,90,42
214.50912,214.75392,58,110,42
214.88412,215.00392,46,110,42
215.00912,215.25392,58,110,42
215.38412,215.50392,46,110,42
215.50912,215.75392,58,110,42
215.88412,216.00392,46,110,42
216.00912,216.25392,58,110,42
216.38412,216.50392,46,70,42
216.50912,216.75392,58,70,42
216.88412,217.00392,46,83,42
217.00912,217.25392,58,87,42
217.38412,217.50392,46,100,42
217.50912,217.75392,58,100,42
217.88412,218.00392,58,70,42
218.00912,218.25392,63,70,42
218.38412,218.50392,51,90,42
218.50912,218.75392,56,110,42
218.88412,219.00392,44,110,42
219.00912,219.25392,56,110,42
219.38412,219.50392,46,110,42
219.50912,219.76236,58,110,42
219.90167,220.03003,46,110,42
220.03561,220.17122,51,110,42
220.17711,220.31273,51,110,42
220.31862,220.44698,51,110,42
220.45256,220.5809,51,110,42
220.58649,220.75742,51,110,42
220.8429,221.00955,68,110,42
221.0929,221.25955,67,110,42
221.3429,221.50955,65,110,42
221.5929,221.75955,63,110,42
221.8429,222.00955,62,110,42
222.0929,222.25955,60,110,42
222.3429,222.50955,58,110,42
222.5929,222.75955,56,110,42
222.8429,223.00955,55,110,42
223.0929,223.25955,53,110,42
223.3429,223.50955,51,110,42
223.5929,223.75955,46,110,42
223.8429,224.00955,58,110,42
224.0929,224.25955,58,110,42
224.3429,224.50955,65,110,42
224.5929,224.75955,63,110,42
224.8429,225.00955,68,110,42
225.0929,225.25955,67,110,42
225.3429,225.50955,65,110,42
225.5929,225.75955,63,110,42
225.8429,226.00955,62,110,42
226.0929,226.25955,60,110,42
226.3429,226.50955,58,110,42
226.5929,226.75955,56,110,42
226.8429,227.00955,55,110,42
227.0929,227.25955,53,110,42
227.3429,227.50955,51,110,42
227.5929,227.83768,58,110,42
228.3429,228.58768,46,110,42
228.5929,228.75955,55,70,42
228.8429,229.00955,53,70,42
229.0929,229.25955,51,70,42
229.3429,229.50955,46,70,42
229.5929,229.83768,43,70,42
231.0929,231.25955,62,110,42
231.3429,231.50955,63,110,42
231.5929,231.75955,65,110,42
231.8429,232.01382,53,110,42
232.0993,232.27473,58,110,42
232.36246,232.54428,58,110,42
232.6352,232.8076,42,70,42
232.8938,233.06047,43,70,42
233.1438,233.31047,39,70,42
233.3938,233.56047,43,70,42
233.6438,233.81047,44,70,42
233.8938,234.06047,45,70,42
234.1438,234.6386,48,110,42
234.6438,234.81047,49,70,42
234.8938,235.06047,50,70,42
235.1438,235.31047,46,70,42
235.3938,235.56047,50,70,42
235.6438,235.81047,51,70,42
235.8938,236.06047,52,70,42
236.1438,236.6386,55,110,42
236.6438,236.81047,52,70,42
236.8938,237.06047,53,70,42
237.1438,237.6386,56,110,42
237.6438,237.81047,54,70,42
237.8938,238.06047,55,70,42
238.1438,238.66946,58,110,42
238.67516,238.84181,41,110,42
238.92516,239.09181,41,110,42
239.17516,239.66994,41,110,42
239.67516,239.84181,41,110,42
239.92516,240.09181,41,110,42
240.17516,240.66994,41,110,42
240.67516,240.84181,41,110,42
240.92516,241.09181,41,110,42
241.17516,241.66994,41,110,42
241.67516,241.91994,43,110,42
241.92516,242.16994,44,110,42
242.17516,242.34181,46,110,42
242.42516,242.54494,62,110,42
242.55016,242.66994,63,110,42
242.67516,242.84181,41,110,42
242.67516,242.84181,48,110,42
242.92516,243.09181,41,110,42
242.92516,243.09181,48,110,42
243.17516,243.66994,41,110,42
243.17516,243.66994,48,110,42
243.67516,243.84181,41,110,42
243.67516,243.84181,48,110,42
243.92516,244.09181,41,110,42
243.92516,244.09181,48,110,42
244.17516,244.66994,41,110,42
244.17516,244.66994,48,110,42
244.67516,244.84181,41,110,42
244.67516,244.84181,48,110,42
244.92516,245.09181,41,110,42
244.92516,245.09181,48,110,42
245.17516,245.66994,41,110,42
245.17516,245.66994,48,110,42
245.67516,245.91994,43,110,42
245.92516,246.16994,44,110,42
246.17516,246.34181,46,110,42
246.42516,246.54494,62,110,42
246.55016,246.66994,63,110,42
246.80016,246.88869,62,110,42
246.92516,247.01369,62,110,42
247.05016,247.13869,62,110,42
247.17516,247.34181,62,110,42
247.42516,247.59181,62,110,42
247.80016,247.88869,63,110,42
247.92516,248.01369,63,110,42
248.05016,248.13869,63,110,42
248.17516,248.34181,63,110,42
248.42516,248.59181,60,70,42
248.67516,248.79494,58,70,42
248.80016,248.91994,56,70,42
248.92516,249.04494,55,70,42
249.05016,249.16994,56,70,42
249.17516,249.34181,55,70,42
249.42516,249.59181,56,70,42
249.67516,249.79494,55,70,42
249.80016,249.91994,53,70,42
249.92516,250.04494,51,70,42
250.05016,250.16994,53,70,42
250.17516,250.34181,51,70,42
250.42516,250.59181,63,110,42
250.67516,250.79494,60,110,42
250.80016,250.88869,62,110,42
250.92516,251.01369,62,110,42
251.05016,251.13869,62,110,42
251.17516,251.34181,62,110,42
251.42516,251.59181,62,110,42
251.67516,251.79494,62,110,42
251.80016,251.88869,63,110,42
251.92516,252.01369,63,110,42
252.05016,252.13869,63,110,42
252.17516,252.41994,63,110,42
252.67516,252.79494,45,104,42
252.80016,252.91994,46,103,42
253.688,253.94124,47,92,42
254.73627,254.86461,47,79,42
254.8702,254.99854,48,77,42
255.81743,255.95305,48,70,42
255.95894,256.09454,51,69,42
257.0168,257.1965,48,59,42
257.2043,257.384,52,57,42
257.3918,257.759,60,56,42
257.7668,258.18643,60,53,42
258.19537,258.68497,60,50,42
258.69537,263.68668,60,50,42
263.69537,264.10336,60,100,42
264.11203,264.52002,64,83,42
264.94537,265.35336,60,50,42
265.36203,265.77002,64,50,42
266.19537,271.60336,60,50,42
271.61203,271.81168,56,50,42
273.69537,279.10336,44,50,42
279.11203,279.31168,40,50,42
281.19537,281.60336,64,50,42
281.61203,282.02002,71,50,42
282.0287,282.17627,68,50,42
282.23703,282.3846,64,50,42
282.44537,282.6537,64,50,42
282.6537,283.68668,69,50,42
283.69537,284.10336,64,50,42
284.11203,284.52002,71,50,42
284.5287,284.68494,68,50,42
284.7493,284.9153,64,50,42
284.98367,286.251,69,50,42
286.2597,286.5635,69,50,42
286.67636,286.9802,70,50,42
287.5097,287.8135,71,50,42
287.92636,288.2302,72,50,42
288.7597,289.0635,73,50,42
289.17636,289.4802,74,50,42
290.0097,290.3135,74,50,42
290.42636,290.74805,75,50,42
291.35193,291.48978,67,50,42
291.49896,291.63684,63,50,42
291.64603,291.7839,65,50,42
291.7931,291.9233,67,50,42
291.93198,292.0622,68,50,42
292.07086,292.20108,70,50,42
292.20975,292.33997,72,50,42
292.34863,292.47885,74,50,42
292.48755,292.61774,75,50,42
292.62643,292.75662,77,50,42
292.76532,292.8955,75,50,42
292.9042,293.03442,74,50,42
293.0431,293.1733,72,50,42
293.18198,293.3122,70,50,42
293.32086,293.45108,68,50,42
293.45975,293.58997,67,50,42
293.59863,293.72885,68,50,42
293.73755,293.86774,65,50,42
293.87643,294.00662,67,50,42
294.01532,294.1455,63,50,42
294.1542,294.28442,65,50,42
294.2931,294.4233,67,50,42
294.43198,294.5622,68,50,42
294.57086,294.70108,70,50,42
294.70975,294.83997,72,50,42
294.84863,294.97885,74,50,42
294.98755,295.11774,75,50,42
295.12643,295.25662,77,50,42
295.26532,295.3955,75,50,42
295.4042,295.53442,74,50,42
295.5431,295.6733,72,50,42
295.68198,295.8122,70,50,42
295.82086,295.95108,69,50,42
295.95975,296.08997,67,50,42
296.09863,296.22885,65,50,42
296.23755,296.36774,63,50,42
296.37643,296.50662,63,50,42
296.51532,296.6455,75,50,42
296.6542,296.78442,63,50,42
296.7931,296.9233,75,51,42
296.93198,297.0622,63,51,42
297.07086,297.20108,75,52,42
297.20975,297.33997,63,52,42
297.34863,297.47885,75,53,42
297.48752,297.61774,63,53,42
297.62643,297.75662,75,54,42
297.76532,297.8955,63,54,42
297.9042,298.0344,75,55,42
298.0431,298.1733,63,55,42
298.18198,298.3122,75,56,42
298.32086,298.45108,63,56,42
298.45975,298.58997,75,57,42
298.59863,298.72885,63,57,42
298.73752,298.86774,75,58,42
298.87643,299.00662,63,58,42
299.01532,299.1455,75,59,42
299.1542,299.2844,63,59,42
299.2931,299.4233,75,60,42
299.43198,299.5622,63,60,42
299.57086,299.70108,75,60,42
299.70975,299.83997,63,61,42
299.84863,299.97885,75,61,42
299.98752,300.11774,63,62,42
300.12643,300.25662,75,62,42
300.26532,300.3955,63,63,42
300.4042,300.5344,75,63,42
300.5431,300.6733,63,64,42
300.68198,300.8122,75,64,42
300.82086,300.95108,63,65,42
300.95975,301.08997,75,65,42
301.09863,301.22885,63,66,42
301.23752,301.36774,75,66,42
301.37643,301.58475,46,67,42
301.58475,301.7931,58,67,42
301.7931,302.00143,47,68,42
302.00143,302.20975,59,69,42
302.62643,302.83475,47,71,42
302.83475,303.0431,59,72,42
303.0431,303.25143,48,72,42
303.25143,303.45975,60,73,42
303.87643,304.08475,44,75,42
304.08475,304.2931,56,76,42
304.2931,304.50143,45,77,42
304.50143,304.70975,57,77,42
305.12643,305.33475,45,80,42
305.33475,305.5431,57,80,42
305.5431,305.7514,46,81,42
305.7514,305.95975,58,82,42
306.3764,306.58475,43,84,42
306.58475,306.7931,55,85,42
306.7931,307.0014,43,85,42
307.0014,307.20975,55,86,42
307.6264,307.83475,43,88,42
307.83475,308.0431,55,89,42
308.0431,308.2514,44,90,42
308.2514,308.45975,56,90,42
308.8764,309.08475,41,92,42
309.08475,309.2931,53,93,42
309.2931,309.5014,42,94,42
309.5014,309.70975,54,95,42
310.1264,310.34702,42,97,42
310.34702,310.5676,54,97,42
310.5676,310.80197,43,98,42
310.80197,311.03635,55,99,42
311.03635,311.1926,39,100,42
311.203,311.35925,39,100,42
311.3697,311.52594,39,100,42
311.53635,311.67422,39,110,42
311.6834,311.82126,39,110,42
311.83047,311.96832,39,110,42
311.9775,312.10773,39,110,42
312.1164,312.2466,39,110,42
312.2553,312.3855,39,110,42
312.3942,312.52438,39,110,42
312.53308,312.66327,39,110,42
312.67197,312.8022,39,125,42
312.81085,312.94107,39,115,42
312.94974,313.07996,39,110,42
313.08862,313.21884,39,110,42
313.2275,313.35773,39,110,42
313.3664,313.4966,39,110,42
313.5053,313.6355,39,110,42
313.6442,313.77438,39,110,42
313.78308,313.91327,39,110,42
313.92197,314.0522,39,110,42
314.06085,314.19107,39,110,42
314.19974,314.32996,39,110,42
314.33862,314.46884,39,110,42
314.4775,314.60773,39,110,42
314.6164,314.7466,39,110,42
314.7553,314.8855,39,110,42
314.8942,315.02438,39,110,42
315.03308,315.16327,39,110,42
315.17197,315.3022,39,110,42
315.31085,315.44107,39,125,42
315.44974,315.57996,39,115,42
315.58862,315.71884,39,110,42
315.7275,315.85773,39,110,42
315.8664,315.9966,39,110,42
316.0053,316.1355,39,110,42
316.1442,316.27438,39,110,42
316.28308,316.41327,39,110,42
316.42197,316.5522,39,110,42
316.56085,316.69107,39,125,42
316.69974,316.82996,39,115,42
316.83862,316.96884,39,110,42
316.9775,317.10773,39,110,42
317.1164,317.2466,39,110,42
317.2553,317.3855,39,110,42
317.3942,317.52438,39,110,42
317.53308,317.66327,39,110,42
317.67197,317.80215,39,110,42
317.81085,317.94107,39,125,42
317.94974,318.07996,39,115,42
318.08862,318.21884,39,110,42
318.2275,318.35773,39,110,42
318.3664,318.4966,39,110,42
318.50528,318.6355,39,110,42
318.6442,318.77438,39,110,42
318.78308,318.91327,39,110,42
318.92197,319.05215,39,110,42
319.06085,319.19107,39,125,42
319.19974,319.32996,39,115,42
319.33862,319.46884,39,110,42
319.4775,319.60773,39,110,42
319.6164,319.7466,39,110,42
319.75528,319.8855,39,110,42
319.8942,320.02438,39,110,42
320.03308,320.16327,39,110,42
320.17197,320.30215,39,110,42
320.31085,320.44873,39,125,42
320.45792,320.59576,39,115,42
320.60498,320.74283,39,110,42
320.752,320.8985,39,110,42
320.90826,321.05475,39,106,42
321.0645,321.211,39,102,42
321.22076,321.377,39,98,42
321.38745,321.5437,39,94,42
321.5541,321.71036,39,90,42
321.72076,321.85864,39,70,42
321.86783,322.0057,63,70,42
322.0149,322.15277,63,70,42
322.16196,322.29214,63,70,42
322.30084,322.43106,63,70,42
322.43973,322.56995,63,70,42
322.5786,322.70883,63,70,42
322.7175,322.84772,63,70,42
322.85638,322.9866,63,70,42
322.99527,323.1255,63,70,42
323.1342,323.26437,62,70,42
323.27307,323.40326,60,70,42
323.41196,323.54214,58,71,42
323.55084,323.68106,56,71,42
323.68973,323.81995,55,72,42
323.8286,323.95883,53,73,42
323.9675,324.09772,51,74,42
324.10638,324.2366,53,75,42
324.24527,324.3755,55,75,42
324.3842,324.51437,39,76,42
324.52307,324.65326,41,77,42
324.66196,324.79214,43,78,42
324.80084,324.93106,44,78,42
324.93973,325.06995,46,79,42
325.0786,325.20883,48,80,42
325.2175,325.34772,50,81,42
325.35638,325.4866,51,82,42
325.49527,325.6255,41,82,42
325.6342,325.76437,41,83,42
325.77307,325.90326,41,84,42
325.91196,326.04214,41,85,42
326.05084,326.18106,41,85,42
326.18973,326.31995,41,86,42
326.3286,326.45883,41,87,42
326.4675,326.59772,41,88,42
326.60638,326.7366,41,89,42
326.74527,326.8755,41,89,42
326.8842,327.01437,41,90,42
327.02307,327.15326,41,91,42
327.16196,327.29214,41,92,42
327.30084,327.43106,41,93,42
327.43973,327.56995,41,93,42
327.5786,327.70883,41,94,42
327.7175,327.84772,41,95,42
327.85638,327.9866,41,96,42
327.99527,328.1255,41,96,42
328.1342,328.26437,41,97,42
328.27307,328.40326,41,98,42
328.41196,328.54214,41,99,42
328.55084,328.68106,41,100,42
328.68973,328.81995,41,100,42
328.8286,328.95883,41,101,42
328.9675,329.09772,41,102,42
329.10638,329.2366,41,103,42
329.24527,329.3755,41,103,42
329.3842,329.51437,41,104,42
329.52307,329.65326,41,105,42
329.66196,329.79214,41,106,42
329.80084,329.93103,41,107,42
329.93973,330.06995,41,107,42
330.0786,330.20883,41,108,42
330.2175,330.34772,41,109,42
330.35638,330.4866,41,110,42
330.49527,330.63315,41,110,42
330.64233,330.7802,41,110,42
330.7894,330.92728,41,110,42
330.93646,331.08295,41,110,42
331.0927,331.2392,41,110,42
331.24896,331.39545,41,110,42
331.4052,331.56146,41,110,42
331.57187,331.73334,41,110,42
331.7445,331.9119,41,110,42
331.92307,332.25452,43,70,42
332.3776,332.6901,44,70,42
333.23474,333.54724,46,70,42
333.66333,333.97583,58,70,42
334.52048,334.83298,55,70,42
334.94904,335.26154,56,70,42
335.80618,336.11868,58,70,42
336.23474,336.54724,58,70,42
337.0919,337.51154,58,70,42
337.52045,337.9401,60,73,42
337.94904,338.10083,56,77,42
338.16333,338.3151,53,78,42
338.3776,338.79724,51,80,42
338.80618,339.22583,53,84,42
339.23474,339.38654,50,87,42
339.44904,339.60083,46,89,42
339.66333,340.08295,43,91,42
340.0919,340.51154,44,94,42
340.52045,340.67224,41,98,42
340.73474,340.88654,46,100,42
340.94904,341.36868,47,102,42
341.3776,341.80957,46,105,42
341.8188,341.98224,46,109,42
342.04953,342.22662,46,110,42
342.29953,342.4416,51,120,42
342.45105,342.58932,51,120,42
342.59824,342.73218,51,120,42
342.7411,342.87503,51,120,42
342.88397,343.01788,51,120,42
343.02682,343.16074,51,120,42
343.16968,343.3036,51,120,42
343.31253,343.44647,51,120,42
343.45538,343.58932,51,120,42
343.59824,343.73218,51,120,42
343.7411,343.87503,51,120,42
343.88397,344.01788,51,120,42
344.02682,344.16074,51,120,42
344.16968,344.3036,51,120,42
344.31253,344.44647,51,120,42
344.45538,344.58932,51,120,42
344.59824,344.73218,51,120,42
344.7411,344.87503,51,120,42
344.88397,345.01788,63,120,42
345.02682,345.16074,62,120,42
345.16968,345.3036,60,120,42
345.31253,345.44647,58,120,42
345.45538,345.58932,56,120,42
345.59824,345.73218,55,120,42
345.7411,345.87503,60,120,42
345.88397,346.01788,58,120,42
346.02682,346.16074,56,120,42
346.16968,346.3036,55,120,42
346.31253,346.44644,53,120,42
346.45538,346.58932,51,120,42
346.59824,346.73218,50,120,42
346.7411,346.87503,48,120,42
346.88394,347.01788,46,120,42
347.02682,347.16074,48,120,42
347.16968,347.3036,50,120,42
347.31253,347.44644,46,120,42
347.45538,347.76788,51,120,42
347.88394,348.3036,63,120,42
349.16968,349.58932,58,120,42
350.45538,350.90045,51,120,42
351.81903,352.34357,46,120,42
355.48196,355.9016,39,50,42
355.91052,356.33017,46,50,42
356.3391,356.49088,43,50,42
356.55338,356.70517,39,50,42
356.76767,358.04446,44,50,42
360.62482,360.75873,51,50,42
360.76767,360.9016,53,50,42
360.91052,361.04446,55,50,42
361.05338,361.18732,56,50,42
361.19623,361.33017,58,50,42
361.3391,361.47302,60,50,42
361.48196,361.61588,62,50,42
361.62482,361.75873,63,50,42
361.76767,361.9016,63,50,42
361.91052,362.04446,63,50,42
362.05338,362.18732,63,50,42
362.19623,362.33017,63,50,42
362.33908,362.47302,63,50,42
362.48196,362.61588,63,50,42
362.62482,362.75873,63,50,42
362.76767,362.90158,63,50,42
362.91052,363.04446,63,50,42
363.05338,363.18732,63,50,42
363.19623,363.33017,63,50,42
363.33908,363.47302,63,50,42
363.48196,363.61588,63,50,42
363.62482,363.75873,63,50,42
363.76767,363.90158,63,50,42
363.91052,364.04446,63,50,42
364.05338,364.18732,63,50,42
364.19623,364.33017,63,50,42
364.33908,364.47302,63,50,42
364.48196,364.61588,63,50,42
364.62482,364.75873,63,57,42
364.76767,364.90158,63,65,42
364.91052,365.05045,63,72,42
365.05978,365.1997,63,80,42
365.209,365.34897,63,87,42
365.35828,365.50476,63,95,42
365.51453,365.6656,63,102,42
365.676,365.83224,63,110,42
365.84265,366.74228,46,100,42
367.2063,368.19586,58,120,42
368.7063,370.19586,39,120,42
