start_time,end_time,note_value,velocity,instrument_program_number
0.0,0.39583334,71,80,0
0.4,0.79583335,75,80,0
0.4,0.79583335,63,80,0
0.8,1.5958333,76,80,0
0.8,1.5958333,64,80,0
1.6,1.9958333,76,80,0
1.6,1.9958333,64,80,0
2.0,2.3958333,64,80,0
2.0,2.3958333,76,80,0
2.4,2.9958334,78,80,0
2.4,2.9958334,66,80,0
3.0,3.1958334,80,80,0
3.0,3.1958334,68,80,0
3.2,3.5958333,81,80,0
3.2,3.5958333,69,80,0
3.6,3.9958334,81,80,0
3.6,3.9958334,69,80,0
4.0,4.3958335,81,80,0
4.0,4.3958335,69,80,0
4.4,4.795833,81,80,0
4.4,4.795833,69,80,0
4.8,5.195833,81,80,0
4.8,5.195833,69,80,0
5.2,5.5958333,81,80,0
5.2,5.5958333,69,80,0
5.6,6.3958335,81,80,0
5.6,6.3958335,69,80,0
6.4,6.4958334,81,80,0
6.5,6.5958333,80,80,0
6.6,6.695833,78,80,0
6.7,6.795833,76,80,0
6.8,6.8958335,75,80,0
6.9,6.9958334,73,80,0
7.0,7.0958333,71,80,0
7.1,7.195833,69,80,0
7.2,7.9958334,68,80,0
7.6,8.395833,71,100,0
8.4,8.695833,66,80,0
8.0,8.795834,63,80,0
8.7,8.795834,68,80,0
8.8,9.195833,64,80,0
9.6,9.695833,69,80,0
9.7,9.795834,68,80,0
9.8,9.895833,66,80,0
9.9,9.995833,64,80,0
10.0,10.095834,63,80,0
10.1,10.195833,61,80,0
10.2,10.295834,59,80,0
10.3,10.395833,57,80,0
10.4,11.195833,56,80,0
10.8,11.595834,59,100,0
11.6,11.895833,54,80,0
11.2,11.995833,51,80,0
11.9,11.995833,56,80,0
12.0,12.395833,52,80,0
12.4,12.795834,52,80,0
12.8,13.195833,71,80,0
13.2,13.595834,75,80,0
13.2,13.595834,63,80,0
13.6,14.395833,76,80,0
13.6,14.395833,64,80,0
14.4,14.795834,76,80,0
14.4,14.795834,64,80,0
14.8,15.195833,64,80,0
14.8,15.195833,76,80,0
15.2,15.795834,78,80,0
15.2,15.795834,66,80,0
15.8,15.995833,80,80,0
15.8,15.995833,68,80,0
16.0,16.395834,81,80,0
16.0,16.395834,69,80,0
16.4,16.795834,81,80,0
16.4,16.795834,69,80,0
16.8,17.195833,81,80,0
16.8,17.195833,69,80,0
17.2,17.595833,81,80,0
17.2,17.595833,69,80,0
17.6,17.995832,81,80,0
17.6,17.995832,69,80,0
18.0,18.395834,81,80,0
18.0,18.395834,69,80,0
18.4,19.195833,81,80,0
18.4,19.195833,69,80,0
19.2,19.295834,81,80,0
19.3,19.395834,80,80,0
19.4,19.495832,78,80,0
19.5,19.595833,76,80,0
19.6,19.695833,75,80,0
19.7,19.795834,73,80,0
19.8,19.895834,71,80,0
19.9,19.995832,69,80,0
20.0,20.795834,68,80,0
20.4,21.195833,71,100,0
21.2,21.495832,66,80,0
20.8,21.595833,63,80,0
21.5,21.595833,68,80,0
21.6,21.995832,64,80,0
24.0,24.095833,76,80,0
24.1,24.195833,75,80,0
24.2,24.295834,73,80,0
24.3,24.395834,71,80,0
24.4,24.495832,70,80,0
24.5,24.595833,68,80,0
24.6,24.695833,66,80,0
24.7,24.795834,64,80,0
24.8,25.195833,63,80,0
25.2,25.595833,66,80,0
25.6,25.995832,58,80,0
26.0,26.395834,66,80,0
26.4,27.195833,59,80,0
27.2,27.295834,64,80,0
27.3,27.395834,63,80,0
27.4,27.495832,61,80,0
27.5,27.595833,59,80,0
27.6,27.695833,58,80,0
27.7,27.795834,56,80,0
27.8,27.895834,54,80,0
27.9,27.995832,52,80,0
28.0,28.095833,51,80,0
28.1,28.195833,52,80,0
28.2,28.295834,54,81,0
28.3,28.395834,56,82,0
28.4,28.495832,58,82,0
28.5,28.595833,59,83,0
28.6,28.695833,61,84,0
28.7,28.795834,63,84,0
28.8,29.595833,64,85,0
29.6,29.695833,66,91,0
29.7,29.795834,68,92,0
29.8,29.895834,70,92,0
29.9,29.995832,71,93,0
30.0,30.095833,73,94,0
30.1,30.195833,75,94,0
30.2,30.295834,76,95,0
30.3,30.395834,78,96,0
30.4,31.195833,80,97,0
31.2,31.295834,82,100,0
31.25,31.345833,83,100,0
31.3,31.395834,82,100,0
31.35,31.445833,83,100,0
31.4,31.495832,80,100,0
31.5,31.595833,82,100,0
31.6,31.995832,83,100,0
32.0,32.095833,73,100,0
32.05,32.145832,75,100,0
32.1,32.195835,73,100,0
32.15,32.245834,75,100,0
32.2,32.295834,72,100,0
32.3,32.395832,73,100,0
32.4,32.795834,78,100,0
32.8,33.195835,71,100,0
33.6,34.395832,83,80,0
34.4,35.195835,71,80,0
35.2,35.995834,67,80,0
36.0,37.595833,68,80,0
36.8,37.595833,73,80,0
36.8,37.595833,64,80,0
37.6,38.395832,71,80,0
37.6,38.395832,66,80,0
37.6,38.395832,63,80,0
38.4,38.595833,71,80,0
38.6,38.795834,70,80,0
38.8,38.995834,68,80,0
38.4,39.195835,64,80,0
38.4,39.195835,61,80,0
39.0,39.195835,70,80,0
39.2,39.995834,71,80,0
39.2,39.995834,63,80,0
39.2,39.995834,59,80,0
40.0,40.395832,83,80,0
40.4,40.795834,83,80,0
40.8,41.195835,71,80,0
41.2,41.595833,71,80,0
41.6,41.995834,67,80,0
42.0,42.395832,67,80,0
42.4,43.995834,68,80,0
43.2,43.995834,73,80,0
43.2,43.995834,64,80,0
44.0,44.795834,71,80,0
44.0,44.795834,66,80,0
44.0,44.795834,63,80,0
44.8,44.995834,71,80,0
45.0,45.195835,70,80,0
45.2,45.395832,68,80,0
44.8,45.595833,64,80,0
44.8,45.595833,61,80,0
45.4,45.595833,70,80,0
45.6,46.45268,71,80,0
45.6,46.45268,63,80,0
45.6,46.45268,59,80,0
46.45714,47.41347,71,77,0
46.45714,47.41347,64,77,0
46.45714,47.41347,61,77,0
46.45714,47.41347,59,77,0
47.41868,48.557884,71,73,0
47.41868,48.557884,66,73,0
47.41868,48.557884,63,73,0
47.41868,48.557884,59,73,0
48.564133,48.95997,71,80,0
48.964134,49.359966,75,80,0
48.964134,49.359966,63,80,0
49.364136,50.159966,76,80,0
49.364136,50.159966,64,80,0
50.164135,50.559967,76,80,0
50.164135,50.559967,64,80,0
50.564133,50.95997,64,80,0
50.564133,50.95997,76,80,0
50.964134,51.559967,78,80,0
50.964134,51.559967,66,80,0
51.564133,51.759968,80,80,0
51.564133,51.759968,68,80,0
51.764133,52.159966,81,80,0
51.764133,52.159966,69,80,0
52.164135,52.559967,81,80,0
52.164135,52.559967,69,80,0
52.564133,52.95997,81,80,0
52.564133,52.95997,69,80,0
52.964134,53.359966,81,82,0
52.964134,53.359966,69,82,0
53.364136,53.759968,81,84,0
53.364136,53.759968,69,84,0
53.764133,54.159966,81,87,0
53.764133,54.159966,69,87,0
54.164135,54.95997,81,89,0
54.164135,54.95997,69,89,0
54.964134,55.059967,81,80,0
55.064133,55.159966,80,80,0
55.164135,55.259968,78,80,0
55.264133,55.359966,76,80,0
55.364136,55.45997,75,80,0
55.464134,55.559967,73,80,0
55.564133,55.659966,71,80,0
55.664135,55.759968,69,80,0
55.764133,56.559967,68,80,0
56.164135,56.95997,71,80,0
56.964134,57.259968,66,80,0
56.564133,57.359966,63,80,0
57.264133,57.359966,68,80,0
57.364136,57.759968,64,80,0
58.164135,58.259968,69,80,0
58.264133,58.359966,68,80,0
58.364136,58.45997,66,80,0
58.464134,58.559967,64,80,0
58.564133,58.659966,63,80,0
58.664135,58.759968,61,80,0
58.764133,58.859966,59,80,0
58.864136,58.95997,57,80,0
58.964134,59.759968,56,80,0
59.364136,60.159966,59,80,0
60.164135,60.45997,54,80,0
59.764133,60.559967,51,80,0
60.464134,60.559967,56,80,0
60.564133,60.95997,52,80,0
60.964134,61.359966,52,80,0
61.364136,61.759968,71,80,0
61.764133,62.159966,75,80,0
61.764133,62.159966,63,80,0
62.164135,62.95997,64,80,0
62.164135,62.95997,76,80,0
62.964134,63.359966,76,80,0
62.964134,63.359966,64,80,0
63.364136,63.759968,76,80,0
63.364136,63.759968,64,80,0
63.764133,64.35997,78,80,0
63.764133,64.35997,66,80,0
64.364136,64.55997,79,84,0
64.364136,64.55997,67,84,0
64.56413,64.95997,81,85,0
64.56413,64.95997,69,85,0
64.964134,65.35997,83,88,0
64.964134,65.35997,71,88,0
65.364136,65.759964,84,91,0
65.364136,65.759964,72,91,0
65.76414,66.159966,72,94,0
65.76414,66.159966,84,94,0
66.16413,66.55997,84,97,0
66.16413,66.55997,72,97,0
66.56413,66.95997,72,99,0
66.56413,66.95997,84,99,0
66.964134,67.759964,84,110,0
66.964134,67.759964,72,110,0
67.76414,67.85997,84,110,0
67.864136,67.95997,83,110,0
67.964134,68.05997,81,110,0
68.06413,68.159966,79,110,0
68.16413,68.259964,78,110,0
68.26414,68.35997,76,110,0
68.364136,68.45997,74,110,0
68.464134,68.55997,72,110,0
68.56413,69.35997,71,110,0
68.56413,69.45997,79,110,0
69.464134,69.55997,78,110,0
69.56413,69.659966,76,110,0
69.364136,69.759964,73,110,0
69.66413,69.759964,74,110,0
69.76414,69.85997,73,110,0
69.864136,69.95997,71,110,0
69.964134,70.05997,69,110,0
70.06413,70.159966,67,110,0
70.16413,70.95997,74,110,0
70.16413,70.95997,66,110,0
70.964134,71.05997,72,110,0
71.06413,71.159966,71,110,0
71.16413,71.259964,69,110,0
71.26414,71.35997,67,110,0
71.364136,71.45997,66,110,0
71.464134,71.55997,64,110,0
71.56413,71.659966,62,110,0
71.66413,71.759964,60,110,0
71.76414,72.55997,59,110,0
71.76414,72.659966,67,110,0
72.66413,72.759964,66,110,0
72.76414,72.85997,64,110,0
72.56413,72.95997,61,110,0
72.864136,72.95997,62,110,0
72.964134,73.05997,61,110,0
73.06413,73.159966,59,110,0
73.16413,73.259964,57,110,0
73.26414,73.35997,55,110,0
73.364136,73.45997,54,110,0
73.464134,73.55997,55,110,0
73.56413,73.659966,57,110,0
73.66413,73.759964,59,110,0
73.76414,73.85997,60,110,0
73.864136,73.95997,59,110,0
73.964134,74.05997,57,110,0
74.06413,74.159966,55,110,0
74.16413,74.259964,54,110,0
74.26414,74.35997,55,110,0
74.364136,74.45997,54,110,0
74.464134,74.55997,52,110,0
74.56413,74.659966,50,110,0
74.66413,74.759964,48,110,0
74.76414,74.85997,47,110,0
74.864136,74.95997,45,110,0
75.097466,75.22663,47,110,0
75.230804,75.35997,50,110,0
75.364136,75.4933,55,110,0
75.49747,75.62663,50,110,0
75.6308,75.759964,47,110,0
75.76414,75.8933,59,110,0
75.89747,76.026634,50,110,0
76.0308,76.159966,55,110,0
76.16413,76.293304,59,110,0
76.29747,76.426636,55,110,0
76.4308,76.55997,50,110,0
76.56413,76.6933,62,110,0
76.697464,76.82664,55,110,0
76.8308,76.95997,59,110,0
76.964134,77.0933,62,110,0
77.097466,77.22663,59,110,0
77.230804,77.35997,55,110,0
77.364136,77.4933,67,110,0
77.49747,77.62663,62,110,0
77.6308,77.759964,59,110,0
77.76414,77.8933,66,110,0
77.89747,78.026634,60,110,0
78.0308,78.159966,57,110,0
78.16413,78.293304,67,110,0
78.29747,78.426636,59,110,0
78.4308,78.55997,62,110,0
78.56413,78.6933,67,110,0
78.697464,78.82664,62,110,0
78.8308,78.95997,59,110,0
78.964134,79.0933,71,110,0
79.097466,79.22663,62,110,0
79.230804,79.35997,67,110,0
79.364136,79.4933,71,110,0
79.49747,79.62663,67,110,0
79.6308,79.759964,62,110,0
79.76414,79.8933,74,110,0
79.89747,80.026634,67,110,0
80.0308,80.159966,71,110,0
80.16413,80.293304,74,110,0
80.29747,80.426636,71,110,0
80.4308,80.55997,67,110,0
80.56413,80.6933,74,110,0
80.697464,80.82664,71,110,0
80.8308,80.95997,68,110,0
80.964134,81.0933,71,110,0
81.097466,81.22663,68,110,0
81.230804,81.35997,62,110,0
81.364136,81.4933,69,110,0
81.49747,81.62663,60,110,0
81.6308,81.759964,64,110,0
81.76414,81.8933,69,110,0
81.89747,82.026634,64,110,0
82.0308,82.159966,60,110,0
82.16413,82.293304,72,110,0
82.29747,82.426636,64,110,0
82.4308,82.55997,69,110,0
82.56413,82.6933,72,110,0
82.697464,82.82664,69,110,0
82.8308,82.95997,64,110,0
82.964134,83.0933,76,110,0
83.097466,83.22663,69,110,0
83.230804,83.35997,72,110,0
83.364136,83.4933,76,110,0
83.49747,83.62663,72,110,0
83.6308,83.759964,69,110,0
83.76414,83.8933,81,110,0
83.89747,84.026634,76,110,0
84.0308,84.159966,72,110,0
84.16413,84.293304,80,110,0
84.29747,84.426636,74,110,0
84.4308,84.55997,71,110,0
84.56413,84.6933,81,110,0
84.697464,84.82664,72,110,0
84.8308,84.95997,76,110,0
84.964134,85.0933,81,110,0
85.097466,85.22663,76,110,0
85.230804,85.35997,72,110,0
85.364136,85.4933,84,110,0
85.49747,85.62663,76,110,0
85.6308,85.759964,81,110,0
85.76414,85.8933,84,110,0
85.89747,86.026634,81,110,0
86.0308,86.159966,76,110,0
86.16413,86.293304,88,110,0
86.29747,86.426636,81,110,0
86.4308,86.55997,84,110,0
86.56413,86.6933,88,110,0
86.697464,86.82664,84,110,0
86.8308,86.95997,81,110,0
86.964134,87.0933,88,110,0
87.097466,87.22663,85,110,0
87.230804,87.35997,82,110,0
87.364136,87.4933,85,80,0
87.49747,87.62663,82,80,0
87.6308,87.759964,76,80,0
87.76414,87.8933,83,80,0
87.89747,88.026634,78,80,0
88.0308,88.159966,74,80,0
88.16413,88.293304,83,80,0
88.29747,88.426636,79,80,0
88.4308,88.55997,74,80,0
88.56413,88.6933,83,80,0
88.697464,88.82664,79,80,0
88.8308,88.95997,73,80,0
88.964134,89.0933,82,80,0
89.097466,89.22663,78,80,0
89.230804,89.35997,73,80,0
89.364136,89.4933,83,80,0
89.49747,89.62663,78,80,0
89.6308,89.759964,74,80,0
89.76414,89.8933,78,80,0
89.89747,90.026634,74,80,0
90.0308,90.159966,71,80,0
90.16413,90.293304,78,80,0
90.29747,90.426636,74,80,0
90.4308,90.55997,71,80,0
90.56413,90.6933,78,80,0
90.697464,90.82664,73,80,0
90.8308,90.95997,70,80,0
90.964134,91.0933,78,80,0
91.097466,91.22663,74,80,0
91.230804,91.35997,71,80,0
91.364136,91.4933,79,80,0
91.49747,91.62663,74,80,0
91.6308,91.759964,71,80,0
91.76414,91.8933,79,80,0
91.89747,92.026634,73,80,0
92.0308,92.159966,71,80,0
92.16413,92.293304,78,80,0
92.29747,92.426636,73,80,0
92.4308,92.55997,70,80,0
92.964134,93.0933,78,110,0
93.097466,93.22663,74,110,0
93.230804,93.35997,71,110,0
93.364136,93.4933,83,110,0
93.49747,93.62663,78,110,0
93.6308,93.759964,74,110,0
93.76414,93.8933,71,110,0
93.89747,94.026634,66,110,0
94.0308,94.159966,62,110,0
94.16413,94.293304,71,110,0
94.29747,94.426636,66,110,0
94.4308,94.55997,62,110,0
94.56413,94.6933,59,110,0
94.697464,94.82664,54,110,0
94.8308,94.95997,50,110,0
94.964134,95.0933,59,110,0
95.097466,95.22663,54,110,0
95.230804,95.35997,50,110,0
95.364136,95.4933,47,110,0
95.49747,95.62663,50,110,0
95.6308,95.759964,54,110,0
96.16413,96.293304,78,110,0
96.29747,96.426636,74,110,0
96.4308,96.55997,72,110,0
96.56413,96.6933,84,110,0
96.697464,96.82664,78,110,0
96.8308,96.95997,74,110,0
96.964134,97.0933,72,110,0
97.097466,97.22663,66,110,0
97.230804,97.35997,62,110,0
97.364136,97.4933,72,110,0
97.49747,97.62663,66,110,0
97.6308,97.759964,62,110,0
97.76414,97.8933,60,110,0
97.89747,98.026634,54,110,0
98.0308,98.159966,50,110,0
98.16413,98.293304,60,110,0
98.29747,98.426636,54,110,0
98.4308,98.55997,50,110,0
98.56413,98.6933,48,110,0
98.697464,98.82664,50,110,0
98.8308,98.95997,54,110,0
99.364136,99.4933,79,110,0
99.49747,99.62663,74,110,0
99.6308,99.759964,71,110,0
99.76414,99.8933,83,110,0
99.89747,100.026634,79,110,0
100.0308,100.159966,74,110,0
100.16413,100.293304,71,110,0
100.29747,100.426636,67,110,0
100.4308,100.55997,62,110,0
100.56413,100.6933,71,110,0
100.697464,100.82664,67,110,0
100.8308,100.95997,62,110,0
100.964134,101.0933,59,110,0
101.097466,101.22663,55,110,0
101.230804,101.35997,50,110,0
101.364136,101.4933,59,110,0
101.49747,101.62663,55,110,0
101.6308,101.759964,50,110,0
101.76414,101.8933,47,110,0
101.89747,102.026634,50,110,0
102.0308,102.159966,55,110,0
102.56413,102.6933,75,110,0
102.697464,102.82664,71,110,0
102.8308,102.95997,69,110,0
102.964134,103.0933,81,110,0
103.097466,103.22663,75,110,0
103.230804,103.35997,71,110,0
103.364136,103.4933,69,110,0
103.49747,103.62663,63,110,0
103.6308,103.759964,59,110,0
103.76414,103.8933,69,110,0
103.89747,104.026634,63,110,0
104.0308,104.159966,59,110,0
104.16413,104.293304,57,110,0
104.29747,104.426636,51,110,0
104.4308,104.55997,47,110,0
104.56413,104.6933,57,110,0
104.697464,104.82664,51,110,0
104.8308,104.95997,47,110,0
104.964134,105.0933,45,110,0
105.097466,105.22663,47,110,0
105.230804,105.35997,51,110,0
105.49747,105.62663,43,80,0
105.6308,105.759964,47,80,0
105.76414,105.8933,52,80,0
105.89747,106.026634,47,80,0
106.0308,106.159966,43,80,0
106.16413,106.293304,55,80,0
106.29747,106.426636,47,80,0
106.4308,106.55997,52,80,0
106.56413,106.6933,55,80,0
106.697464,106.82664,52,80,0
106.8308,106.95997,47,80,0
106.964134,107.0933,59,80,0
107.097466,107.22663,52,80,0
107.230804,107.35997,55,80,0
107.364136,107.4933,59,80,0
107.49747,107.62663,55,80,0
107.6308,107.759964,52,80,0
107.76414,107.8933,64,80,0
107.89747,108.026634,59,80,0
108.0308,108.159966,55,80,0
108.16413,108.293304,63,80,0
108.29747,108.426636,57,80,0
108.4308,108.55997,54,80,0
108.56413,108.6933,64,80,0
108.697464,108.82664,55,80,0
108.8308,108.95997,59,80,0
108.964134,109.0933,64,80,0
109.097466,109.22663,59,80,0
109.230804,109.35997,55,80,0
109.364136,109.4933,67,80,0
109.49747,109.62663,59,80,0
109.6308,109.759964,64,80,0
109.76414,109.8933,67,80,0
109.89747,110.026634,64,80,0
110.0308,110.159966,59,80,0
110.16413,110.293304,71,80,0
110.29747,110.426636,64,80,0
110.4308,110.55997,67,80,0
110.56413,110.6933,71,80,0
110.697464,110.82664,67,80,0
110.8308,110.95997,64,80,0
110.964134,111.0933,76,80,0
111.097466,111.22663,71,80,0
111.230804,111.35997,67,80,0
111.364136,111.4933,75,80,0
111.49747,111.62663,69,80,0
111.6308,111.759964,66,80,0
111.76414,111.8933,76,80,0
111.89747,112.026634,67,80,0
112.0308,112.159966,64,80,0
112.16413,112.293304,72,80,0
112.29747,112.426636,67,80,0
112.4308,112.55997,64,80,0
112.56413,112.6933,72,80,0
112.697464,112.82664,65,80,0
112.8308,112.95997,62,80,0
112.964134,113.0933,71,80,0
113.097466,113.22663,65,80,0
113.230804,113.35997,62,80,0
113.364136,113.4933,72,80,0
113.49747,113.62663,64,80,0
113.6308,113.759964,60,80,0
113.76414,113.8933,69,80,0
113.89747,114.026634,64,80,0
114.0308,114.159966,60,80,0
114.16413,114.293304,69,80,0
114.29747,114.426636,64,80,0
114.4308,114.55997,60,80,0
114.56413,114.6933,66,80,0
114.697464,114.82664,64,80,0
114.8308,114.95997,60,80,0
115.097466,115.22663,59,80,0
115.230804,115.35997,64,80,0
115.364136,115.4933,67,80,0
115.49747,115.62663,64,80,0
115.6308,115.759964,59,80,0
115.89747,116.026634,57,80,0
116.0308,116.159966,63,80,0
116.16413,116.293304,66,80,0
116.29747,116.426636,63,80,0
116.4308,116.55997,57,80,0
116.697464,116.82664,64,80,0
116.8308,116.95997,67,80,0
116.964134,117.0933,76,80,0
117.097466,117.22663,67,80,0
117.230804,117.35997,64,80,0
117.364136,117.4933,72,80,0
117.49747,117.62663,65,80,0
117.6308,117.759964,62,80,0
117.76414,117.8933,71,80,0
117.89747,118.026634,65,80,0
118.0308,118.159966,62,80,0
118.29747,118.426636,60,80,0
118.4308,118.55997,64,80,0
118.56413,118.6933,72,80,0
118.697464,118.82664,64,80,0
118.8308,118.95997,60,80,0
118.964134,119.0933,69,80,0
119.097466,119.22663,64,80,0
119.230804,119.35997,60,80,0
119.364136,119.4933,66,80,0
119.49747,119.62663,64,80,0
119.6308,119.759964,60,80,0
119.89747,120.026634,61,80,0
120.0308,120.159966,64,80,0
120.16413,120.293304,67,80,0
120.29747,120.426636,64,80,0
120.4308,120.55997,61,80,0
120.697464,120.82664,55,80,0
120.8308,120.95997,61,80,0
120.964134,121.0933,64,80,0
121.097466,121.22663,61,80,0
121.230804,121.35997,55,80,0
121.76414,121.8933,63,80,0
121.89747,122.026634,59,80,0
122.0308,122.159966,54,80,0
122.16413,122.293304,66,80,0
122.16413,122.293304,66,80,0
122.29747,122.426636,63,80,0
122.4308,122.55997,59,80,0
122.56413,122.6933,71,80,0
122.697464,122.82664,66,80,0
122.8308,122.95997,63,80,0
123.364136,123.4933,67,80,0
123.49747,123.62663,64,80,0
123.6308,123.759964,59,80,0
123.76414,123.8933,64,80,0
123.89747,124.026634,59,80,0
124.0308,124.159966,55,80,0
124.16413,124.293304,59,80,0
124.29747,124.426636,55,80,0
124.4308,124.55997,52,80,0
124.964134,125.0933,63,80,0
125.097466,125.22663,59,80,0
125.230804,125.35997,54,80,0
125.364136,125.4933,66,80,0
125.364136,125.4933,66,80,0
125.49747,125.62663,63,80,0
125.6308,125.759964,59,80,0
125.76414,125.8933,71,80,0
125.89747,126.026634,66,80,0
126.0308,126.159966,63,80,0
126.56413,126.6933,67,80,0
126.697464,126.82664,64,80,0
126.8308,126.95997,59,80,0
126.964134,127.0933,64,80,0
127.097466,127.22663,59,80,0
127.230804,127.35997,55,80,0
127.364136,127.4933,59,80,0
127.49747,127.62663,55,80,0
127.6308,127.759964,52,80,0
127.76414,127.8933,47,80,0
127.89747,128.02663,48,80,0
128.0308,128.15997,49,81,0
128.16414,128.2933,50,82,0
128.29747,128.42664,51,83,0
128.4308,128.55997,52,84,0
128.56413,128.6933,53,85,0
128.69746,128.82663,54,86,0
128.8308,128.95996,55,86,0
128.96413,129.0933,56,87,0
129.09747,129.22664,57,88,0
129.2308,129.35997,58,89,0
129.36414,129.4933,59,90,0
129.49747,129.62663,60,91,0
129.6308,129.75996,61,92,0
129.76413,129.8933,62,93,0
129.89746,130.02663,63,93,0
130.0308,130.15997,64,94,0
130.16414,130.2933,65,95,0
130.29747,130.42664,66,96,0
130.4308,130.55997,67,97,0
130.56413,130.6933,68,98,0
130.69746,130.82663,69,99,0
130.8308,130.95996,70,99,0
130.96413,131.10252,71,100,0
131.107,131.24538,72,99,0
131.24985,131.38824,73,97,0
131.3927,131.54175,74,95,0
131.54655,131.69559,75,93,0
131.7004,131.84944,76,91,0
131.85425,132.0157,77,90,0
132.0209,132.18237,78,88,0
132.18758,132.34903,79,86,0
132.35425,132.53038,80,84,0
132.53606,132.7122,81,82,0
132.71788,132.89401,82,81,0
132.8997,136.49345,83,80,0
136.4997,136.89552,71,80,0
136.8997,137.29553,75,80,0
136.8997,137.29553,63,80,0
137.2997,138.09554,76,80,0
137.2997,138.09554,64,80,0
138.0997,138.49553,76,80,0
138.0997,138.49553,64,80,0
138.4997,138.89552,64,80,0
138.4997,138.89552,76,80,0
138.8997,139.49553,78,80,0
138.8997,139.49553,66,80,0
139.4997,139.69553,80,80,0
139.4997,139.69553,68,80,0
139.69969,140.09554,81,80,0
139.69969,140.09554,69,80,0
140.0997,140.49553,81,80,0
140.0997,140.49553,69,80,0
140.4997,140.89552,81,80,0
140.4997,140.89552,69,80,0
140.8997,141.29553,81,83,0
140.8997,141.29553,69,83,0
141.2997,141.69553,81,87,0
141.2997,141.69553,69,87,0
141.69969,142.09554,81,91,0
141.69969,142.09554,69,91,0
142.0997,142.89552,81,95,0
142.0997,142.89552,69,95,0
142.8997,142.99553,81,80,0
142.9997,143.09554,80,80,0
143.0997,143.19553,78,80,0
143.19969,143.29553,76,80,0
143.2997,143.39552,75,80,0
143.3997,143.49553,73,80,0
143.4997,143.59554,71,80,0
143.5997,143.69553,69,80,0
143.69969,144.49553,68,80,0
144.0997,144.89552,71,80,0
144.8997,145.19553,66,80,0
144.4997,145.29553,63,80,0
145.19969,145.29553,68,80,0
145.2997,145.69553,64,80,0
146.0997,146.19553,69,80,0
146.19969,146.29553,68,80,0
146.2997,146.39552,66,80,0
146.3997,146.49553,64,80,0
146.4997,146.59554,63,80,0
146.5997,146.69553,61,80,0
146.69969,146.79553,59,80,0
146.7997,146.89552,57,80,0
146.8997,147.69553,56,80,0
147.2997,148.09554,59,80,0
148.0997,148.39552,54,80,0
147.69969,148.49553,51,80,0
148.3997,148.49553,56,80,0
148.4997,148.89552,52,80,0
148.8997,149.29553,52,80,0
150.8997,150.99553,86,80,0
150.9997,151.09554,85,80,0
151.0997,151.19553,83,80,0
151.19969,151.29553,81,80,0
151.2997,151.39552,80,80,0
151.3997,151.49553,78,80,0
151.4997,151.59554,76,80,0
151.5997,151.69553,74,80,0
151.69969,152.09554,73,80,0
152.0997,152.49553,76,80,0
152.4997,152.89552,68,80,0
152.8997,153.29553,76,80,0
153.2997,154.09554,69,80,0
154.0997,154.19553,62,80,0
154.19969,154.29553,61,80,0
154.2997,154.39552,59,80,0
154.3997,154.49553,57,80,0
154.4997,154.59554,56,80,0
154.5997,154.69553,54,80,0
154.69969,154.79553,52,80,0
154.7997,154.89552,50,80,0
154.8997,154.99553,49,80,0
154.9997,155.09554,50,80,0
155.0997,155.19553,52,80,0
155.19969,155.29553,54,80,0
155.2997,155.39552,56,80,0
155.3997,155.49553,57,80,0
155.4997,155.59554,59,80,0
155.5997,155.69553,61,80,0
155.69969,156.49553,62,80,0
156.4997,156.59554,64,80,0
156.5997,156.69553,66,80,0
156.69969,156.79553,68,80,0
156.7997,156.89552,69,80,0
156.8997,156.99553,71,80,0
156.9997,157.09554,73,80,0
157.0997,157.19553,74,80,0
157.19969,157.29553,76,80,0
157.2997,158.09554,78,80,0
158.0997,158.19553,80,80,0
158.1497,158.24553,81,80,0
158.19969,158.29553,80,80,0
158.2497,158.34554,81,80,0
158.2997,158.39552,78,80,0
158.3997,158.49553,80,80,0
158.4997,158.89552,81,80,0
158.8997,158.99553,71,80,0
158.94969,159.04553,73,80,0
158.9997,159.09554,71,80,0
159.0497,159.14552,73,80,0
159.0997,159.19553,70,80,0
159.19969,159.29553,71,80,0
159.2997,159.69553,76,80,0
159.69969,160.09554,69,80,0
160.4997,161.29553,81,80,0
161.2997,162.09554,69,80,0
162.0997,162.89552,65,80,0
162.8997,164.49553,66,80,0
163.69969,164.49553,71,80,0
163.69969,164.49553,62,80,0
164.4997,165.29553,69,80,0
164.4997,165.29553,64,80,0
164.4997,165.29553,61,80,0
165.2997,165.49553,69,80,0
165.4997,165.69553,68,80,0
165.69969,165.89552,66,80,0
165.2997,166.09554,62,80,0
165.2997,166.09554,59,80,0
165.8997,166.09554,68,80,0
166.0997,166.49553,69,80,0
166.0997,166.49553,61,80,0
166.0997,166.49553,57,80,0
166.8997,167.29553,81,80,0
167.2997,167.69553,81,80,0
167.69969,168.09554,69,80,0
168.0997,168.49553,69,80,0
168.4997,168.89552,64,80,0
168.8997,169.29553,64,80,0
170.0997,170.89552,70,80,0
170.0997,170.89552,62,80,0
169.2997,171.69553,65,80,0
170.8997,171.69553,69,80,0
170.8997,171.69553,60,80,0
171.69969,171.89552,69,80,0
171.8997,172.09554,67,80,0
172.0997,172.29553,65,80,0
171.69969,172.49553,64,80,0
171.69969,172.49553,58,80,0
172.2997,172.49553,67,80,0
172.4997,173.35237,65,80,0
172.4997,173.35237,60,80,0
172.4997,173.35237,57,80,0
173.35684,174.2751,64,80,0
173.35684,174.2751,60,80,0
173.35684,174.2751,57,80,0
174.27992,175.19818,63,80,0
174.27992,175.19818,60,80,0
174.27992,175.19818,57,80,0
175.20299,179.19778,57,80,0
175.20299,179.19778,59,80,0
175.20299,179.19778,63,80,0
179.40298,179.79883,71,80,0
179.803,180.19882,63,82,0
179.803,180.19882,75,82,0
180.20299,180.59883,76,84,0
180.20299,180.59883,64,84,0
180.603,180.99883,76,86,0
180.603,180.99883,64,86,0
181.00299,181.39882,76,89,0
181.00299,181.39882,64,89,0
181.40298,181.79883,64,91,0
181.40298,181.79883,76,91,0
181.803,182.19882,78,93,0
181.803,182.19882,66,93,0
182.20299,182.59883,80,96,0
182.20299,182.59883,68,96,0
182.603,182.99883,81,98,0
182.603,182.99883,69,98,0
183.00299,183.39882,69,100,0
183.00299,183.39882,81,100,0
183.40298,183.79883,81,103,0
183.40298,183.79883,69,103,0
183.803,184.19882,81,105,0
183.803,184.19882,69,105,0
184.20299,184.59883,81,107,0
184.20299,184.59883,69,107,0
184.603,184.79883,81,109,0
184.603,184.79883,69,109,0
184.803,185.59883,81,120,0
184.803,185.59883,69,120,0
185.603,185.99883,81,120,0
185.603,185.99883,69,120,0
186.00299,186.39882,81,120,0
186.00299,186.39882,69,120,0
186.40298,186.79883,80,120,0
186.40298,186.79883,68,120,0
186.803,187.19882,78,120,0
186.803,187.19882,66,120,0
187.20299,187.59883,76,120,0
187.20299,187.59883,64,120,0
187.603,187.99883,75,120,0
187.603,187.99883,63,120,0
188.00299,188.39882,73,120,0
188.00299,188.39882,61,120,0
188.40298,188.79883,72,120,0
188.40298,188.79883,60,120,0
188.803,189.19882,73,120,0
188.803,189.19882,61,120,0
189.20299,189.59883,71,120,0
189.20299,189.59883,59,120,0
189.603,189.99883,69,120,0
189.603,189.99883,57,120,0
190.00299,190.39882,68,120,0
190.00299,190.39882,56,120,0
190.40298,190.79883,66,120,0
190.803,191.19882,64,120,0
191.20299,191.59883,63,120,0
191.603,191.99883,66,120,0
192.00299,192.39882,69,120,0
192.40298,192.79883,72,120,0
192.803,192.89882,63,120,0
192.90298,192.99883,66,120,0
193.00299,193.09883,72,120,0
193.103,193.19882,75,120,0
193.20299,193.29883,63,120,0
193.303,193.39882,66,120,0
193.40298,193.49883,72,120,0
193.50299,193.59883,75,120,0
193.603,193.69882,63,120,0
193.70299,193.79883,66,120,0
193.803,193.89882,69,120,0
193.90298,193.99883,75,120,0
194.00299,194.09883,63,120,0
194.103,194.19882,66,120,0
194.20299,194.29883,69,120,0
194.303,194.39882,75,120,0
194.40298,194.49883,63,120,0
194.50299,194.59883,66,120,0
194.603,194.69882,69,120,0
194.70299,194.79883,75,120,0
194.803,194.89882,63,120,0
194.90298,194.99883,66,120,0
195.00299,195.09883,69,120,0
195.103,195.19882,75,120,0
195.20299,195.29883,60,120,0
195.303,195.39882,66,120,0
195.40298,195.49883,69,120,0
195.50299,195.59883,72,120,0
195.603,195.69882,60,120,0
195.70299,195.79883,66,120,0
195.803,195.89882,69,120,0
195.90298,195.99883,72,120,0
196.00299,196.09883,60,120,0
196.103,196.19882,66,120,0
196.20299,196.29883,69,119,0
196.303,196.39882,72,118,0
196.40298,196.49883,60,117,0
196.50299,196.59883,66,116,0
196.603,196.69882,69,115,0
196.70299,196.79883,72,114,0
196.803,196.89882,59,113,0
196.90298,196.99883,63,112,0
197.00299,197.09883,69,111,0
197.103,197.19882,71,110,0
197.20299,197.29883,59,109,0
197.303,197.39882,63,108,0
197.40298,197.49883,69,107,0
197.50299,197.59883,71,106,0
197.603,197.70567,59,105,0
197.71013,197.8128,63,104,0
197.81728,197.91995,69,103,0
197.92442,198.0271,71,102,0
198.03156,198.14214,59,101,0
198.14694,198.25752,63,100,0
198.26233,198.37291,69,99,0
198.37772,198.4883,71,98,0
198.4931,198.61288,59,97,0
198.6181,198.73788,63,96,0
198.7431,198.86288,69,95,0
198.8681,198.98788,71,94,0
198.9931,199.12378,59,93,0
199.12947,199.26015,63,92,0
199.26582,199.39651,69,92,0
199.40219,199.53287,71,91,0
199.53856,202.30298,59,80,0
199.53856,202.30298,63,80,0
199.53856,202.30298,69,80,0
199.53856,202.30298,71,80,0
202.30779,202.50362,71,80,0
202.50778,202.70361,73,80,0
202.70778,202.90361,74,80,0
202.90778,203.10362,75,80,0
203.10779,203.50362,76,80,0
203.90778,204.10362,64,80,0
204.10779,204.30362,66,80,0
204.30779,204.50362,67,80,0
204.50778,204.70361,68,80,0
204.70778,205.10362,69,80,0
205.50778,205.70361,76,80,0
205.70778,205.90361,78,80,0
205.90778,206.10362,79,80,0
206.10779,206.30362,80,80,0
206.30779,206.70361,81,80,0
207.10779,207.30362,81,80,0
207.30779,207.50362,80,80,0
207.50778,207.70361,81,80,0
207.70778,207.90361,80,80,0
207.90778,208.30362,81,80,0
208.70778,208.80362,81,80,0
208.80779,208.90361,80,80,0
208.90778,209.00362,78,80,0
209.00778,209.10362,76,80,0
209.10779,209.20361,75,80,0
209.20778,209.30362,73,80,0
209.30779,209.40361,71,80,0
209.40778,209.50362,69,80,0
209.50778,209.90361,68,80,0
209.90778,210.30362,71,80,0
210.30779,210.70361,63,80,0
210.70778,211.10362,71,80,0
211.10779,211.90361,64,80,0
211.90778,212.00362,69,80,0
212.00778,212.10362,68,80,0
212.10779,212.20361,66,80,0
212.20778,212.30362,64,80,0
212.30779,212.40361,63,80,0
212.40778,212.50362,61,80,0
212.50778,212.60362,59,80,0
212.60779,212.70361,57,80,0
212.70778,212.80362,56,80,0
212.80779,212.90361,57,81,0
212.90778,213.00362,59,82,0
213.00778,213.10362,61,83,0
213.10779,213.20361,63,84,0
213.20778,213.30362,64,85,0
213.30779,213.40361,66,86,0
213.40778,213.50362,68,87,0
213.50778,214.30362,69,88,0
214.30779,214.40692,71,97,0
214.41122,214.51036,73,98,0
214.51468,214.61382,75,99,0
214.61813,214.71727,76,100,0
214.72157,214.82071,78,101,0
214.82503,214.92416,80,102,0
214.92847,215.0276,81,103,0
215.03192,215.13106,83,104,0
215.13536,215.98805,85,105,0
215.99251,216.10309,82,110,0
216.0502,216.16078,83,110,0
216.1079,216.21848,82,110,0
216.16559,216.27617,83,110,0
216.22328,216.33386,82,110,0
216.28098,216.39154,83,110,0
216.33867,216.44923,82,110,0
216.39636,216.50693,83,110,0
216.45404,216.56462,82,110,0
216.51173,216.62231,83,110,0
216.56943,216.68001,82,110,0
216.62712,216.7377,83,110,0
216.68481,216.7954,81,110,0
216.8002,216.91078,82,110,0
216.91559,217.41039,83,110,0
217.41559,218.15778,83,110,0
217.41559,218.15778,71,110,0
218.16559,219.65778,76,110,0
218.16559,219.65778,64,110,0
222.66559,223.03278,64,1,0
0.0,0.12916666,56,80,0
0.13333334,0.2625,59,80,0
0.26666668,0.39583334,64,80,0
0.4,0.52916664,54,80,0
0.53333336,0.6625,57,80,0
0.6666667,0.79583335,59,80,0
0.8,0.9291667,52,80,0
0.93333334,1.0625,56,80,0
1.0666667,1.1958333,59,80,0
1.2,1.3291667,51,80,0
1.3333334,1.4625,54,80,0
1.4666667,1.5958333,59,80,0
1.6,1.7291666,49,80,0
1.7333333,1.8625,52,80,0
1.8666667,1.9958333,57,80,0
2.0,2.1291666,47,80,0
2.1333334,2.2625,51,80,0
2.2666667,2.3958333,56,80,0
2.4,2.5291667,45,80,0
2.5333333,2.6625,49,80,0
2.6666667,2.7958333,54,80,0
2.8,2.9291666,44,80,0
2.9333334,3.0625,47,80,0
3.0666666,3.1958334,52,80,0
3.2,3.3291667,42,80,0
3.3333333,3.4625,45,80,0
3.4666667,3.5958333,51,80,0
3.6,3.7291667,40,80,0
3.7333333,3.8625,44,80,0
3.8666666,3.9958334,49,80,0
4.0,4.1291666,39,80,0
4.133333,4.2625,42,80,0
4.266667,4.3958335,47,80,0
4.4,4.5291667,40,80,0
4.5333333,4.6625,44,80,0
4.6666665,4.795833,49,80,0
4.8,4.929167,39,80,0
4.9333334,5.0625,42,80,0
5.0666666,5.195833,47,80,0
5.2,5.329167,37,80,0
5.3333335,5.4625,40,80,0
5.4666667,5.5958333,47,80,0
5.6,5.9958334,39,80,0
5.6,6.3958335,35,80,0
6.0,6.3958335,47,80,0
7.2,7.9958334,52,80,0
7.6,8.395833,59,100,0
8.0,8.795834,47,80,0
8.4,8.795834,57,80,0
8.8,9.195833,56,80,0
8.8,9.595834,52,80,0
9.2,9.595834,59,80,0
10.4,11.195833,40,80,0
10.8,11.595834,47,100,0
11.2,11.995833,35,80,0
11.6,11.995833,45,80,0
12.0,12.395833,47,80,0
12.0,12.395833,44,80,0
12.8,12.929167,56,80,0
12.933333,13.0625,59,80,0
13.066667,13.195833,64,80,0
13.2,13.329166,54,80,0
13.333333,13.4625,57,80,0
13.466666,13.595834,59,80,0
13.6,13.729167,52,80,0
13.733334,13.8625,56,80,0
13.866667,13.995833,59,80,0
14.0,14.129167,51,80,0
14.133333,14.2625,54,80,0
14.266666,14.395833,59,80,0
14.4,14.529166,49,80,0
14.533334,14.6625,52,80,0
14.666667,14.795834,57,80,0
14.8,14.929167,47,80,0
14.933333,15.0625,51,80,0
15.066667,15.195833,56,80,0
15.2,15.329166,45,80,0
15.333333,15.4625,49,80,0
15.466666,15.595834,54,80,0
15.6,15.729167,44,80,0
15.733334,15.8625,47,80,0
15.866667,15.995833,52,80,0
16.0,16.129168,42,80,0
16.133333,16.2625,45,80,0
16.266666,16.395834,51,80,0
16.4,16.529167,40,80,0
16.533333,16.6625,44,80,0
16.666666,16.795834,49,80,0
16.8,16.929167,39,80,0
16.933332,17.0625,42,80,0
17.066668,17.195833,47,80,0
17.2,17.329166,40,80,0
17.333334,17.4625,44,80,0
17.466667,17.595833,49,80,0
17.6,17.729166,39,80,0
17.733334,17.8625,42,80,0
17.866667,17.995832,47,80,0
18.0,18.129168,37,80,0
18.133333,18.2625,40,80,0
18.266666,18.395834,47,80,0
18.4,18.795834,39,80,0
18.4,19.195833,35,80,0
18.8,19.195833,47,80,0
20.0,20.795834,52,80,0
20.4,21.195833,59,100,0
20.8,21.595833,47,80,0
21.2,21.595833,57,80,0
21.6,21.995832,56,80,0
21.6,21.995832,52,80,0
22.4,22.495832,64,80,0
22.5,22.595833,63,80,0
22.6,22.695833,61,80,0
22.7,22.795834,59,80,0
22.8,22.895834,58,80,0
22.9,22.995832,56,80,0
23.0,23.095833,54,80,0
23.1,23.195833,52,80,0
23.2,23.595833,51,80,0
23.6,23.995832,54,80,0
24.0,24.395834,46,80,0
24.4,24.795834,54,80,0
24.8,25.595833,47,80,0
25.6,25.695833,52,80,0
25.7,25.795834,51,80,0
25.8,25.895834,49,80,0
25.9,25.995832,47,80,0
26.0,26.095833,46,80,0
26.1,26.195833,44,80,0
26.2,26.295834,42,80,0
26.3,26.395834,40,80,0
26.4,26.795834,39,80,0
26.8,27.195833,42,80,0
27.2,27.595833,34,80,0
27.6,27.995832,42,80,0
28.0,28.795834,35,80,0
28.4,28.795834,47,82,0
28.8,29.595833,49,85,0
28.8,29.595833,37,85,0
29.2,29.595833,47,88,0
29.6,30.395834,51,91,0
29.6,30.395834,39,91,0
30.0,30.395834,47,94,0
30.4,31.195833,52,97,0
30.4,31.195833,40,97,0
30.8,31.195833,47,99,0
31.2,31.595833,54,100,0
31.2,31.595833,42,100,0
31.6,31.995832,56,100,0
31.6,31.995832,44,100,0
32.0,32.395832,52,100,0
32.0,32.395832,40,100,0
32.4,32.795834,54,100,0
32.4,32.795834,42,100,0
32.8,33.195835,47,100,0
32.8,33.195835,35,100,0
37.2,37.595833,52,80,0
38.0,38.395832,54,80,0
38.8,39.195835,42,80,0
39.6,39.995834,47,80,0
39.6,39.995834,35,80,0
43.6,43.995834,52,80,0
44.4,44.795834,54,80,0
45.2,45.595833,42,80,0
46.028572,46.45268,47,79,0
46.91868,47.41347,58,75,0
46.91868,47.41347,46,75,0
47.964134,48.557884,57,71,0
47.964134,48.557884,45,71,0
48.564133,48.693302,56,80,0
48.697468,48.826633,59,80,0
48.8308,48.95997,64,80,0
48.964134,49.0933,54,80,0
49.097466,49.226635,57,80,0
49.2308,49.359966,59,80,0
49.364136,49.4933,52,80,0
49.497467,49.626633,56,80,0
49.630802,49.759968,59,80,0
49.764133,49.8933,51,80,0
49.89747,50.026634,54,80,0
50.0308,50.159966,59,80,0
50.164135,50.2933,49,80,0
50.297466,50.426636,52,80,0
50.4308,50.559967,57,80,0
50.564133,50.693302,47,80,0
50.697468,50.826633,51,80,0
50.8308,50.95997,56,80,0
50.964134,51.0933,45,80,0
51.097466,51.226635,49,80,0
51.2308,51.359966,54,80,0
51.364136,51.4933,44,80,0
51.497467,51.626633,47,80,0
51.630802,51.759968,52,80,0
51.764133,51.8933,42,80,0
51.89747,52.026634,45,80,0
52.0308,52.159966,51,80,0
52.164135,52.2933,40,80,0
52.297466,52.426636,44,80,0
52.4308,52.559967,49,80,0
52.564133,52.693302,39,80,0
52.697468,52.826633,42,80,0
52.8308,52.95997,47,81,0
52.964134,53.0933,40,82,0
53.097466,53.226635,44,83,0
53.2308,53.359966,49,84,0
53.364136,53.4933,39,84,0
53.497467,53.626633,42,85,0
53.630802,53.759968,47,86,0
53.764133,53.8933,37,87,0
53.89747,54.026634,40,88,0
54.0308,54.159966,47,89,0
54.164135,54.559967,39,89,0
54.164135,54.95997,35,89,0
54.564133,54.95997,47,80,0
55.764133,56.559967,52,80,0
56.164135,56.95997,59,80,0
56.564133,57.359966,47,80,0
56.964134,57.359966,57,80,0
57.364136,57.759968,56,80,0
57.364136,58.159966,52,80,0
57.764133,58.159966,59,80,0
58.964134,59.759968,40,80,0
59.364136,60.159966,47,80,0
59.764133,60.559967,35,80,0
60.164135,60.559967,45,80,0
60.564133,60.95997,47,80,0
60.564133,60.95997,44,80,0
61.364136,61.4933,55,80,0
61.497467,61.626633,59,80,0
61.630802,61.759968,64,80,0
61.764133,61.8933,54,80,0
61.89747,62.026634,57,80,0
62.0308,62.159966,59,80,0
62.164135,62.2933,52,80,0
62.297466,62.426636,55,80,0
62.4308,62.559967,59,80,0
62.564133,62.693302,50,80,0
62.697468,62.826633,54,80,0
62.8308,62.95997,59,80,0
62.964134,63.0933,48,80,0
63.097466,63.226635,52,80,0
63.2308,63.359966,57,80,0
63.364136,63.4933,47,80,0
63.497467,63.626633,50,80,0
63.630802,63.759968,55,80,0
63.764133,63.8933,45,80,0
63.89747,64.026634,48,80,0
64.0308,64.159966,54,81,0
64.16413,64.293304,43,82,0
64.29747,64.426636,47,83,0
64.4308,64.55997,52,84,0
64.56413,64.6933,42,85,0
64.697464,64.82664,45,86,0
64.8308,64.95997,50,87,0
64.964134,65.0933,40,88,0
65.097466,65.22663,43,89,0
65.230804,65.35997,50,90,0
65.364136,65.4933,38,91,0
65.49747,65.62663,42,92,0
65.6308,65.759964,50,93,0
65.76414,65.8933,43,94,0
65.89747,66.026634,47,95,0
66.0308,66.159966,50,96,0
66.16413,66.293304,42,97,0
66.29747,66.426636,45,98,0
66.4308,66.55997,50,99,0
66.56413,66.6933,40,99,0
66.697464,66.82664,43,80,0
66.8308,66.95997,50,80,0
66.964134,67.35997,42,110,0
66.964134,68.55997,38,110,0
67.364136,68.55997,50,110,0
68.56413,70.159966,38,110,0
68.964134,70.159966,50,110,0
70.16413,71.759964,38,110,0
70.56413,71.759964,50,110,0
71.76414,73.35997,38,110,0
72.16413,73.35997,50,110,0
73.364136,73.759964,38,110,0
74.964134,75.35997,43,110,0
74.964134,75.35997,31,110,0
77.76414,78.159966,50,110,0
77.76414,78.159966,38,110,0
78.16413,78.55997,55,110,0
78.16413,78.55997,43,110,0
80.964134,81.35997,52,110,0
80.964134,81.35997,40,110,0
81.364136,81.759964,57,110,0
81.364136,81.759964,45,110,0
84.16413,84.55997,52,110,0
84.16413,84.55997,40,110,0
84.56413,84.95997,57,110,0
84.56413,84.95997,45,110,0
87.364136,87.759964,54,80,0
87.364136,87.759964,66,80,0
87.76414,88.159966,59,80,0
87.76414,88.159966,71,80,0
88.16413,88.55997,55,80,0
88.16413,88.55997,67,80,0
88.56413,88.95997,52,80,0
88.56413,88.95997,64,80,0
88.964134,89.35997,54,80,0
88.964134,89.35997,66,80,0
89.364136,89.759964,47,80,0
89.364136,89.759964,59,80,0
90.56413,90.95997,54,80,0
90.56413,90.95997,42,80,0
90.964134,91.35997,59,80,0
90.964134,91.35997,47,80,0
91.364136,91.759964,55,80,0
91.364136,91.759964,43,80,0
91.76414,92.159966,52,80,0
91.76414,92.159966,40,80,0
92.16413,92.55997,54,80,0
92.16413,92.55997,42,80,0
92.56413,95.759964,35,110,0
92.56413,95.759964,47,110,0
95.76414,98.95997,33,110,0
95.76414,98.95997,45,110,0
98.964134,102.159966,31,110,0
98.964134,102.159966,43,110,0
102.16413,105.35997,30,110,0
102.16413,105.35997,42,110,0
105.364136,105.759964,40,80,0
105.364136,105.759964,28,80,0
108.16413,108.55997,47,80,0
108.16413,108.55997,35,80,0
108.56413,108.95997,52,80,0
108.56413,108.95997,40,80,0
111.364136,111.759964,59,80,0
111.364136,111.759964,47,80,0
111.76414,112.159966,60,80,0
111.76414,112.159966,48,80,0
112.964134,113.35997,55,80,0
112.964134,113.35997,43,80,0
113.364136,113.759964,57,80,0
113.364136,113.759964,45,80,0
114.56413,114.95997,45,80,0
114.56413,114.95997,33,80,0
114.964134,115.35997,47,80,0
114.964134,115.35997,35,80,0
115.76414,116.159966,47,80,0
115.76414,116.159966,35,80,0
116.56413,116.95997,48,80,0
116.56413,116.95997,36,80,0
117.76414,118.159966,44,80,0
117.76414,118.159966,32,80,0
118.16413,118.55997,33,80,0
118.16413,118.55997,45,80,0
119.364136,119.759964,45,80,0
119.364136,119.759964,33,80,0
119.76414,120.159966,46,80,0
119.76414,120.159966,34,80,0
120.56413,120.95997,46,80,0
120.56413,120.95997,34,80,0
121.364136,122.95997,47,80,0
121.364136,122.95997,35,80,0
122.964134,124.55997,47,80,0
122.964134,124.55997,35,80,0
124.56413,126.159966,47,80,0
124.56413,126.159966,35,80,0
126.16413,127.759964,47,80,0
126.16413,127.759964,35,80,0
127.76414,136.49345,35,80,0
129.36414,136.49345,47,90,0
136.4997,136.62886,56,80,0
136.63303,136.76219,59,80,0
136.76636,136.89552,64,80,0
136.8997,137.02887,54,80,0
137.03304,137.1622,57,80,0
137.16637,137.29553,59,80,0
137.2997,137.42886,52,80,0
137.43303,137.5622,56,80,0
137.56636,137.69553,59,80,0
137.69969,137.82886,51,80,0
137.83302,137.9622,54,80,0
137.96637,138.09554,59,80,0
138.0997,138.22887,49,80,0
138.23303,138.3622,52,80,0
138.36636,138.49553,57,80,0
138.4997,138.62886,47,80,0
138.63303,138.76219,51,80,0
138.76636,138.89552,56,80,0
138.8997,139.02887,45,80,0
139.03304,139.1622,49,80,0
139.16637,139.29553,54,80,0
139.2997,139.42886,44,80,0
139.43303,139.5622,47,80,0
139.56636,139.69553,52,80,0
139.69969,139.82886,42,80,0
139.83302,139.9622,45,80,0
139.96637,140.09554,51,80,0
140.0997,140.22887,40,80,0
140.23303,140.3622,44,80,0
140.36636,140.49553,49,80,0
140.4997,140.62886,39,80,0
140.63303,140.76219,42,81,0
140.76636,140.89552,47,82,0
140.8997,141.02887,40,83,0
141.03304,141.1622,44,85,0
141.16637,141.29553,49,86,0
141.2997,141.42886,39,87,0
141.43303,141.5622,42,89,0
141.56636,141.69553,47,90,0
141.69969,141.82886,37,91,0
141.83302,141.9622,40,93,0
141.96637,142.09554,47,94,0
142.0997,142.49553,39,95,0
142.0997,142.89552,35,95,0
142.4997,142.89552,47,99,0
143.69969,144.49553,52,80,0
144.0997,144.89552,59,80,0
144.4997,145.29553,47,80,0
144.8997,145.29553,57,80,0
145.2997,145.69553,56,80,0
145.2997,146.09554,52,80,0
145.69969,146.09554,59,80,0
146.8997,147.69553,40,80,0
147.2997,148.09554,47,80,0
147.69969,148.49553,35,80,0
148.0997,148.49553,45,80,0
148.4997,148.89552,44,80,0
148.4997,148.89552,40,80,0
149.2997,149.39552,62,80,0
149.3997,149.49553,61,80,0
149.4997,149.59554,59,80,0
149.5997,149.69553,57,80,0
149.69969,149.79553,56,80,0
149.7997,149.89552,54,80,0
149.8997,149.99553,52,80,0
149.9997,150.09554,50,80,0
150.0997,150.49553,49,80,0
150.4997,150.89552,52,80,0
150.8997,151.29553,44,80,0
151.2997,151.69553,52,80,0
151.69969,152.49553,45,80,0
152.4997,152.59554,50,80,0
152.5997,152.69553,49,80,0
152.69969,152.79553,47,80,0
152.7997,152.89552,45,80,0
152.8997,152.99553,44,80,0
152.9997,153.09554,42,80,0
153.0997,153.19553,40,80,0
153.19969,153.29553,38,80,0
153.2997,153.69553,37,80,0
153.69969,154.09554,40,80,0
154.0997,154.89552,32,80,0
154.4997,154.89552,40,80,0
154.8997,155.69553,33,80,0
155.2997,155.69553,45,80,0
155.69969,156.49553,47,80,0
155.69969,156.49553,35,80,0
156.0997,156.49553,45,80,0
156.4997,157.29553,49,80,0
156.4997,157.29553,37,80,0
156.8997,157.29553,45,80,0
157.2997,158.09554,50,80,0
157.2997,158.09554,38,80,0
157.69969,158.09554,45,80,0
158.0997,158.49553,52,80,0
158.0997,158.49553,40,80,0
158.4997,158.89552,54,80,0
158.4997,158.89552,42,80,0
158.8997,159.29553,50,80,0
158.8997,159.29553,38,80,0
159.2997,159.69553,52,80,0
159.2997,159.69553,40,80,0
159.69969,160.09554,45,80,0
159.69969,160.09554,33,80,0
164.0997,164.49553,50,80,0
164.8997,165.29553,52,80,0
165.69969,166.09554,40,80,0
166.0997,166.49553,45,80,0
166.4997,166.89552,57,80,0
170.4997,170.89552,53,80,0
170.4997,170.89552,41,80,0
171.2997,171.69553,53,80,0
171.2997,171.69553,41,80,0
172.0997,172.49553,53,80,0
172.0997,172.49553,41,80,0
172.92827,173.35237,53,80,0
172.92827,173.35237,41,80,0
173.81837,174.2751,53,80,0
173.81837,174.2751,41,80,0
174.74146,175.19818,54,80,0
174.74146,175.19818,42,80,0
175.70299,176.19778,54,80,0
175.70299,176.19778,42,80,0
179.20299,179.33215,56,80,0
179.33632,179.46548,59,80,0
179.46965,179.59883,64,80,0
179.603,179.73216,54,81,0
179.73633,179.8655,57,81,0
179.86966,179.99883,59,82,0
180.00299,180.13216,52,83,0
180.13632,180.26549,56,84,0
180.26965,180.39882,59,84,0
180.40298,180.53215,51,85,0
180.53633,180.6655,54,86,0
180.66966,180.79883,59,87,0
180.803,180.93216,49,88,0
180.93633,181.06549,52,88,0
181.06966,181.19882,57,89,0
181.20299,181.33215,47,90,0
181.33632,181.46548,51,91,0
181.46965,181.59883,56,91,0
181.603,181.73216,45,92,0
181.73633,181.8655,49,93,0
181.86966,181.99883,54,94,0
182.00299,182.13216,44,94,0
182.13632,182.26549,47,95,0
182.26965,182.39882,52,96,0
182.40298,182.53215,42,97,0
182.53633,182.6655,45,98,0
182.66966,182.79883,51,98,0
182.803,182.93216,40,99,0
182.93633,183.06549,44,100,0
183.06966,183.19882,49,101,0
183.20299,183.33215,39,101,0
183.33632,183.46548,42,102,0
183.46965,183.59883,47,103,0
183.603,183.73216,40,104,0
183.73633,183.8655,44,104,0
183.86966,183.99883,49,105,0
184.00299,184.13216,39,106,0
184.13632,184.26549,42,107,0
184.26965,184.39882,47,108,0
184.40298,184.53215,37,108,0
184.53633,184.6655,40,109,0
184.66966,184.79883,47,80,0
184.803,185.19882,39,120,0
184.803,185.59883,35,120,0
185.20299,185.59883,47,120,0
185.803,186.19882,47,120,0
185.803,186.19882,35,120,0
186.20299,186.59883,39,120,0
186.20299,186.59883,51,120,0
186.603,186.99883,52,120,0
186.603,186.99883,40,120,0
187.00299,187.39882,52,120,0
187.00299,187.39882,40,120,0
187.40298,187.79883,52,120,0
187.40298,187.79883,40,120,0
187.803,188.19882,40,120,0
187.803,188.19882,52,120,0
188.20299,188.59883,52,120,0
188.20299,188.59883,40,120,0
188.603,188.99883,52,120,0
188.603,188.99883,40,120,0
189.00299,189.39882,52,120,0
189.00299,189.39882,40,120,0
189.40298,189.79883,41,120,0
189.40298,189.79883,53,120,0
189.803,190.19882,54,120,0
189.803,190.19882,42,120,0
190.20299,190.59883,56,120,0
190.20299,190.59883,44,120,0
190.603,190.99883,57,120,0
190.603,190.99883,45,120,0
191.00299,191.39882,45,120,0
191.00299,191.39882,57,120,0
191.40298,191.79883,57,120,0
191.40298,191.79883,45,120,0
191.803,192.19882,57,120,0
191.803,192.19882,45,120,0
192.20299,192.59883,57,120,0
192.20299,192.59883,45,120,0
192.603,192.79883,57,120,0
192.603,192.79883,45,120,0
192.803,193.59883,57,120,0
192.803,193.59883,45,120,0
193.603,193.99883,48,120,0
193.603,193.99883,36,120,0
194.00299,194.39882,48,120,0
194.00299,194.39882,36,120,0
194.40298,195.19882,48,120,0
194.40298,195.19882,36,120,0
195.20299,195.59883,51,120,0
195.20299,195.59883,39,120,0
195.603,195.99883,51,120,0
195.603,195.99883,39,120,0
196.00299,196.79883,51,120,0
196.00299,196.79883,39,120,0
196.803,197.19882,54,113,0
196.803,197.19882,42,113,0
197.20299,197.59883,54,109,0
197.20299,197.59883,42,109,0
197.603,198.0271,54,105,0
197.603,198.0271,42,105,0
198.03156,198.4883,54,101,0
198.03156,198.4883,42,101,0
198.4931,198.98788,54,97,0
198.4931,198.98788,42,97,0
198.9931,199.53287,54,93,0
198.9931,199.53287,42,93,0
199.53856,202.30298,42,80,0
199.53856,202.30298,54,80,0
202.30779,202.43695,56,80,0
202.44112,202.57028,59,80,0
202.57445,202.70361,64,80,0
202.70778,202.83694,54,80,0
202.84111,202.97028,57,80,0
202.97444,203.10362,59,80,0
203.10779,203.23695,52,80,0
203.24112,203.37029,56,80,0
203.37445,203.50362,59,80,0
203.50778,203.63695,51,80,0
203.64111,203.77028,54,80,0
203.77444,203.90361,59,80,0
203.90778,204.03694,49,80,0
204.04112,204.17029,52,80,0
204.17445,204.30362,57,80,0
204.30779,204.43695,47,80,0
204.44112,204.57028,51,80,0
204.57445,204.70361,56,80,0
204.70778,204.83694,45,80,0
204.84111,204.97028,49,80,0
204.97444,205.10362,54,80,0
205.10779,205.23695,44,80,0
205.24112,205.37029,47,80,0
205.37445,205.50362,52,80,0
205.50778,205.63695,42,80,0
205.64111,205.77028,45,80,0
205.77444,205.90361,51,80,0
205.90778,206.03694,40,80,0
206.04112,206.17029,44,80,0
206.17445,206.30362,49,80,0
206.30779,206.43695,39,80,0
206.44112,206.57028,42,80,0
206.57445,206.70361,47,80,0
206.70778,206.83694,40,80,0
206.84111,206.97028,44,80,0
206.97444,207.10362,49,80,0
207.10779,207.23695,39,80,0
207.24112,207.37029,42,80,0
207.37445,207.50362,47,80,0
207.50778,207.63695,37,80,0
207.64111,207.77028,40,80,0
207.77444,207.90361,47,80,0
207.90778,208.30362,39,80,0
207.90778,208.30362,35,80,0
208.30779,208.70361,47,80,0
210.30779,210.40361,57,80,0
210.40778,210.50362,56,80,0
210.50778,210.60362,54,80,0
210.60779,210.70361,52,80,0
210.70778,210.80362,51,80,0
210.80779,210.90361,49,80,0
210.90778,211.00362,47,80,0
211.00778,211.10362,45,80,0
211.10779,211.50362,44,80,0
211.50778,211.90361,47,80,0
211.90778,212.30362,39,80,0
212.30779,212.70361,47,80,0
212.70778,213.50362,40,80,0
213.10779,213.50362,52,84,0
213.50778,214.30362,54,88,0
213.50778,214.30362,42,88,0
213.90778,214.30362,52,92,0
214.30779,215.13106,56,97,0
214.30779,215.13106,44,97,0
214.72157,215.13106,52,101,0
215.13536,215.98805,57,105,0
215.13536,215.98805,45,105,0
215.56393,215.98805,52,109,0
215.99251,216.91078,61,110,0
215.99251,216.91078,49,110,0
216.45404,216.91078,52,110,0
216.91559,217.41039,59,110,0
216.91559,217.41039,47,110,0
217.41559,218.15778,59,110,0
217.41559,218.15778,47,110,0
218.16559,219.65778,52,110,0
218.16559,219.65778,40,110,0
