start_time,end_time,note_value,velocity,instrument_program_number
0.0,0.50426126,64,110,40
0.0,0.50426126,71,110,40
0.0,0.50426126,76,110,40
1.022727,1.5269883,71,110,40
1.022727,1.5269883,83,110,40
3.545454,3.8792608,64,50,40
3.886363,4.2201695,59,50,40
4.227272,4.5610785,67,50,40
4.568181,5.75426,71,50,40
5.7613626,5.9247146,72,50,40
5.931817,6.1029477,69,50,40
6.1103883,6.281519,66,50,40
6.2889595,6.468647,63,50,40
6.4764595,6.656147,59,50,40
6.6639595,7.283751,64,50,40
9.0389595,9.3727665,65,50,40
9.3798685,9.7136755,60,50,40
9.7207775,10.0545845,69,50,40
10.0616865,11.247766,72,50,40
11.254868,11.4182205,74,50,40
11.425323,11.596454,70,50,40
11.603893,11.775024,67,50,40
11.782465,11.9621525,64,50,40
11.969965,12.1496525,60,50,40
12.157465,12.777257,65,50,40
15.555192,15.888999,75,70,40
15.896101,16.229908,72,70,40
16.23701,18.825333,78,70,40
18.833555,19.167362,78,70,40
19.174465,19.508272,75,70,40
19.515373,23.126423,81,70,40
23.134647,23.638908,79,70,40
23.646011,23.809362,76,70,40
23.816465,23.979816,79,70,40
23.98692,24.150272,76,70,40
24.157373,25.343452,75,70,40
25.350555,25.513908,76,70,40
25.52101,25.684362,78,70,40
25.691465,25.854816,76,70,40
25.86192,26.02527,79,70,40
26.032373,26.195726,76,70,40
26.202827,26.536634,76,70,40
26.543737,27.218452,75,70,40
27.225555,27.39601,76,70,40
27.39601,27.566463,75,70,40
27.566463,27.73692,76,70,40
27.73692,27.907373,78,70,40
27.907373,28.077827,79,70,40
28.077827,28.248281,71,70,40
28.248281,28.418737,72,70,40
28.418737,28.589191,74,70,40
28.589191,28.759645,76,70,40
28.759645,28.9301,68,70,40
28.9301,29.100555,69,70,40
29.100555,29.27101,71,70,40
29.27101,29.441463,72,70,40
29.441463,29.611917,64,70,40
29.611917,29.782373,65,70,40
29.782373,29.952827,67,70,40
29.952827,30.123281,69,70,40
30.123281,30.293736,60,70,40
30.293736,30.464191,62,70,40
30.464191,30.634645,64,70,40
30.634645,30.8051,65,70,40
30.8051,30.975554,67,70,40
30.975554,31.14601,69,70,40
31.14601,31.30936,71,70,40
31.316463,31.486917,72,70,40
31.486917,31.657372,71,70,40
31.657372,31.827827,74,70,40
31.827827,31.998281,72,70,40
31.998281,32.168736,71,70,40
32.168736,32.33919,69,70,40
32.33919,32.509644,67,70,40
32.509644,32.6801,65,70,40
32.6801,32.85867,64,70,40
32.85867,33.037243,65,70,40
33.037243,33.224743,69,70,40
33.224743,33.413887,72,70,40
33.42211,33.771812,72,70,40
33.77925,34.84324,64,76,40
34.85068,35.21787,67,94,40
35.22568,35.62264,66,100,40
35.631084,36.15936,66,110,40
36.70251,37.230785,83,110,40
36.70251,37.230785,71,110,40
39.955757,40.289566,76,70,40
40.296665,40.971382,78,70,40
40.978485,41.141838,84,70,40
41.14894,41.31229,83,70,40
41.319393,41.99411,83,70,40
42.001213,42.33502,76,70,40
42.34212,43.016838,78,70,40
43.023937,43.18729,84,70,40
43.194393,43.357746,83,70,40
43.36485,43.698654,83,70,40
44.21712,44.380474,71,70,40
44.387573,44.550926,72,70,40
44.55803,44.721382,74,70,40
44.728485,44.891834,76,70,40
44.898937,45.06229,68,70,40
45.069393,45.232746,69,70,40
45.23985,45.4032,71,70,40
45.4103,45.573654,72,70,40
45.580757,45.74411,64,71,40
45.75121,45.914562,65,72,40
45.921665,46.08502,67,74,40
46.09212,46.25547,69,75,40
46.262573,46.425926,60,76,40
46.43303,46.596382,62,78,40
46.603485,46.766834,64,79,40
46.773937,46.93729,65,80,40
46.944393,47.107746,67,82,40
47.114845,47.2782,69,83,40
47.2853,47.448654,71,84,40
47.455757,47.622906,72,86,40
47.630173,47.797325,74,87,40
47.804592,47.971745,76,88,40
47.97901,48.146164,77,90,40
48.15343,48.326622,79,91,40
48.334152,48.507343,81,92,40
48.514874,48.68807,83,94,40
48.6956,48.86879,84,95,40
48.87632,49.056007,86,96,40
49.06382,49.196632,88,98,40
49.25132,49.384132,89,99,40
49.43882,49.571632,89,100,40
49.62632,51.323765,89,120,40
51.330864,51.387684,65,120,40
51.387684,51.444504,67,120,40
51.444504,51.50132,65,120,40
51.50132,51.586548,63,120,40
51.586548,51.664673,65,120,40
51.671776,51.83513,63,120,40
51.842228,52.00558,67,120,40
52.012684,52.176037,72,120,40
52.18314,52.34649,67,120,40
52.353592,52.516945,75,120,40
52.524048,52.6874,72,120,40
52.6945,52.857853,79,120,40
52.864956,53.02831,75,120,40
53.03541,53.198765,84,120,40
53.205864,53.326603,79,120,40
53.37632,53.49706,87,120,40
53.546776,53.66751,87,120,40
53.717228,55.414673,86,120,40
55.421772,55.478592,60,120,40
55.478592,55.53541,62,120,40
55.53541,55.592228,60,120,40
55.592228,55.677456,59,120,40
55.677456,55.75558,60,120,40
55.762684,55.926037,58,120,40
55.933136,56.09649,62,120,40
56.103592,56.266945,67,120,40
56.274048,56.437397,62,120,40
56.4445,56.607853,70,120,40
56.614956,56.77831,67,120,40
56.785408,56.94876,74,120,40
56.955864,57.119217,70,120,40
57.12632,57.289673,79,120,40
57.296772,57.41751,74,120,40
57.467228,57.587967,82,120,40
57.637684,57.75842,82,120,40
57.808136,59.50558,82,110,40
59.51268,59.5695,61,110,40
59.5695,59.62632,62,110,40
59.62632,59.683136,61,110,40
59.683136,59.768364,59,110,40
59.768364,59.84649,61,110,40
59.853592,60.016945,62,110,40
60.024044,60.187397,69,110,40
60.1945,60.357853,74,110,40
60.364956,60.528305,72,110,40
60.535408,60.869217,70,110,40
60.876316,61.551033,69,110,40
61.558136,61.89194,67,110,40
61.899044,62.062397,66,110,40
62.0695,62.232853,75,110,40
62.239952,62.403305,72,110,40
62.410408,62.57376,73,110,40
62.580864,62.744213,74,110,40
62.751316,62.91467,79,110,40
62.921772,63.085125,78,110,40
63.092228,63.255577,82,110,40
63.26268,63.426033,81,110,40
63.433136,63.59649,85,110,40
63.60359,63.76694,86,110,40
63.774044,63.937397,85,110,40
63.9445,64.19308,86,110,40
64.28541,64.53399,86,110,40
64.62632,64.87489,86,110,40
64.967224,65.30103,86,110,40
70.080864,70.58512,81,70,40
70.592224,70.75558,78,70,40
70.76268,70.92603,79,70,40
70.933136,71.09649,76,70,40
71.103584,71.352165,74,70,40
71.444496,71.69308,74,70,40
71.78541,72.03399,74,70,40
72.12631,72.80103,74,70,40
74.17177,74.67603,84,70,40
74.683136,74.84648,83,70,40
74.853584,75.01694,81,70,40
75.02404,75.18739,80,70,40
75.194496,75.35785,81,70,40
75.36495,75.528305,83,70,40
75.53541,75.69875,84,70,40
75.70586,75.86921,86,70,40
75.87631,76.039665,88,70,40
76.04677,76.21012,86,70,40
76.217224,76.89194,86,70,40
76.89904,77.23285,91,70,40
77.23995,77.914665,90,70,40
77.92177,77.978584,88,70,40
77.978584,78.0354,90,70,40
78.0354,78.092224,88,70,40
78.092224,78.17745,86,70,40
78.17745,78.25558,88,70,40
78.26268,78.93739,86,70,40
78.944496,79.00131,84,70,40
79.00131,79.05813,86,70,40
79.05813,79.11495,84,70,40
79.11495,79.20018,83,70,40
79.20018,79.2854,84,70,40
79.2854,79.61921,83,70,40
79.79677,79.96012,66,70,40
79.967224,80.13058,67,70,40
80.13768,80.301025,69,70,40
80.30813,80.47148,67,70,40
80.478584,80.64194,62,70,40
80.64904,80.81239,67,70,40
80.819496,80.98285,62,70,40
80.98995,81.1533,67,70,40
81.1604,81.32375,62,70,40
81.33086,81.49421,67,70,40
81.50131,81.664665,64,70,40
81.67177,81.83512,72,70,40
81.842224,82.00558,67,70,40
82.01267,82.18381,72,70,40
82.191246,82.36238,67,70,40
82.36982,82.71952,72,70,40
82.72696,83.07666,84,76,40
83.08411,83.451294,84,82,40
83.45911,84.71558,84,88,40
84.72505,85.96761,83,70,40
85.97505,86.14618,80,70,40
86.15362,86.32475,81,70,40
86.33219,86.45868,84,70,40
86.510765,86.63725,88,70,40
86.68934,86.81583,88,70,40
86.867905,87.57475,88,70,40
87.58219,88.110466,86,70,40
88.117905,88.28903,90,70,40
88.29648,88.467606,93,70,40
88.475044,88.64618,90,70,40
88.65362,88.82475,86,70,40
88.83219,89.00332,84,70,40
89.01076,89.717606,83,70,40
89.725044,90.25332,71,70,40
90.26076,90.43189,68,70,40
90.43933,90.61046,69,70,40
90.617905,90.78903,72,70,40
90.79647,90.967606,76,70,40
90.975044,91.14618,76,70,40
91.15362,91.86046,76,70,40
91.867905,92.39617,74,70,40
92.40362,92.574745,78,70,40
92.582184,92.75332,81,70,40
92.76076,92.931885,78,70,40
92.93933,93.11046,74,70,40
93.1179,93.467606,72,70,40
93.475044,93.64617,70,70,40
93.65361,93.824745,72,70,40
93.832184,94.00332,71,70,40
94.01076,94.181885,81,70,40
94.18933,94.36046,79,70,40
94.54647,94.7176,69,70,40
94.725044,94.89617,76,70,40
94.90361,95.074745,75,70,40
95.082184,95.25331,78,70,40
95.26076,95.431885,76,70,40
95.43932,95.78903,76,70,40
95.79647,96.8958,67,76,40
96.90361,97.19144,71,97,40
97.29835,97.602165,69,104,40
97.71501,98.2989,66,120,40
97.71501,98.2989,69,120,40
98.30712,98.44692,66,100,40
98.30712,98.44692,69,100,40
98.504486,98.630974,66,100,40
98.504486,98.630974,69,100,40
98.68306,98.803795,66,100,40
98.68306,98.803795,69,100,40
98.853516,99.35777,66,120,40
98.853516,99.35777,69,120,40
99.364876,99.48562,66,100,40
99.364876,99.48562,69,100,40
99.53533,99.65607,66,100,40
99.53533,99.65607,69,100,40
99.70579,99.82652,66,100,40
99.70579,99.82652,69,100,40
99.87624,100.3805,67,120,40
99.87624,100.3805,70,120,40
100.3876,100.50834,67,100,40
100.3876,100.50834,70,100,40
100.55806,100.678795,67,100,40
100.55806,100.678795,70,100,40
100.728516,100.84925,67,100,40
100.728516,100.84925,70,100,40
100.898964,101.40323,67,120,40
100.898964,101.40323,70,120,40
101.41033,101.53107,67,100,40
101.41033,101.53107,70,100,40
101.58079,101.7136,67,100,40
101.58079,101.7136,70,100,40
101.76829,101.915855,67,100,40
101.76829,101.915855,70,100,40
101.976616,102.683464,66,100,40
101.976616,102.683464,69,100,40
102.6909,103.0406,72,100,40
103.04804,103.39775,71,100,40
103.40519,103.75489,69,100,40
103.76233,104.11203,67,100,40
104.11948,104.46918,64,100,40
104.476616,104.82632,62,100,40
104.833755,105.183464,61,100,40
105.1909,105.93309,62,100,40
105.9409,106.348885,60,100,40
106.35757,106.88584,69,120,40
106.89328,107.01977,69,100,40
107.07185,107.19834,69,100,40
107.25043,107.376915,69,100,40
107.42899,107.95727,69,120,40
107.96471,108.091194,69,100,40
108.14328,108.26977,67,100,40
108.32185,108.44834,79,100,40
108.50042,109.028694,79,120,40
109.03613,109.16262,79,100,40
109.21471,109.341194,77,100,40
109.39328,109.51977,89,100,40
109.571846,110.10868,89,120,40
110.11649,110.249306,89,100,40
110.30399,110.44198,88,100,40
110.498795,110.64238,91,100,40
110.7015,111.76549,91,105,40
111.77293,113.5512,89,70,40
113.55864,114.62263,88,70,40
114.630066,114.97977,87,70,40
114.98721,115.15834,86,70,40
115.16578,115.336914,85,70,40
115.34435,115.51548,84,70,40
115.52293,115.69405,83,70,40
115.70149,115.87263,81,70,40
115.880066,116.05119,79,70,40
116.05864,116.22977,77,70,40
116.237206,116.40834,76,70,40
116.41578,116.586914,74,70,40
116.59435,116.76548,72,70,40
116.77292,116.94405,71,70,40
116.95149,117.12263,69,70,40
117.130066,117.83691,68,50,40
117.84435,118.90834,69,50,40
118.91578,119.62262,66,50,40
119.630066,120.33691,67,50,40
120.344345,121.05119,65,50,40
121.05863,121.76548,64,50,40
121.77292,122.47976,55,50,40
121.77292,122.47976,67,50,40
122.487206,123.194046,55,50,40
122.487206,123.194046,67,50,40
123.201485,123.90833,55,50,40
123.201485,123.90833,67,50,40
123.91577,124.62262,55,50,40
123.91577,124.62262,67,50,40
124.63006,125.3369,55,55,40
124.63006,125.3369,67,55,40
125.344345,126.051186,55,61,40
125.344345,126.051186,67,61,40
126.058624,126.76547,55,67,40
126.058624,126.76547,70,67,40
126.77291,127.47976,55,73,40
126.77291,127.47976,70,73,40
127.4872,128.19405,55,79,40
127.4872,128.19405,70,79,40
128.20148,128.90833,74,85,40
128.91577,129.6226,74,91,40
129.63005,130.37224,74,97,40
130.38005,131.12224,74,110,40
130.38005,131.12224,86,110,40
131.13005,131.9113,74,110,40
131.13005,131.9113,86,110,40
131.91953,132.33917,74,110,40
131.91953,132.33917,86,110,40
132.3481,132.5356,86,125,40
132.5356,132.6511,83,115,40
132.69864,132.81413,79,110,40
132.86168,132.97717,74,110,40
133.02472,133.14021,71,110,40
133.18777,133.30325,67,110,40
133.35081,134.32228,62,110,40
134.32907,134.49211,86,125,40
134.49211,134.6076,84,115,40
134.65515,134.77065,81,110,40
134.8182,134.93369,74,110,40
134.98125,135.09674,72,110,40
135.14429,135.25978,69,110,40
135.30733,136.2788,62,110,40
137.26385,137.4269,86,125,40
137.4269,137.54239,83,115,40
137.58994,137.70543,79,110,40
137.75298,137.86847,74,110,40
137.91603,138.03151,71,110,40
138.07907,138.19455,67,110,40
138.24211,139.21358,62,110,40
139.22037,139.3834,86,125,40
139.3834,139.4989,84,115,40
139.54646,139.66194,81,110,40
139.7095,139.82498,74,110,40
139.87254,139.98804,72,110,40
140.03558,140.15108,69,110,40
140.19862,140.84401,67,110,40
141.1769,141.33994,81,125,40
141.33994,141.45541,78,115,40
141.50298,141.61847,75,110,40
141.66602,141.78151,71,110,40
141.82906,141.94455,69,110,40
141.99211,142.10759,66,110,40
142.15515,142.65941,64,110,40
142.15515,142.65941,71,110,40
142.15515,142.65941,76,110,40
143.17787,143.68213,71,110,40
143.17787,143.68213,83,110,40
145.7006,146.03441,64,50,40
146.0415,146.37532,59,50,40
146.38242,146.71623,67,50,40
146.72333,147.90941,71,50,40
147.9165,148.07986,72,50,40
148.08696,148.2581,69,50,40
148.26553,148.43666,66,50,40
148.4441,148.6238,63,50,40
148.6316,148.8113,59,50,40
148.8191,149.4389,64,50,40
151.1941,151.52791,65,50,40
151.53502,151.86882,60,50,40
151.87593,152.20973,69,50,40
152.21683,153.40291,72,50,40
153.41002,153.57336,74,50,40
153.58047,153.7516,70,50,40
153.75905,153.93018,67,50,40
153.9376,154.1173,64,50,40
154.1251,154.3048,60,50,40
154.3126,154.9324,65,50,40
157.71034,158.04414,75,70,40
158.05125,158.38506,72,70,40
158.39215,160.92168,78,70,40
160.92949,161.2633,78,70,40
161.2704,161.60422,75,70,40
161.61131,165.22237,81,70,40
165.23059,165.73485,79,70,40
165.74194,165.9053,76,70,40
165.9124,166.07576,79,70,40
166.08286,166.24622,76,70,40
166.25331,167.43939,75,70,40
167.44649,167.60985,76,70,40
167.61694,167.7803,78,70,40
167.7874,167.95076,76,70,40
167.95786,168.12122,79,70,40
168.12831,168.29167,76,70,40
168.29877,168.63257,76,70,40
168.63968,169.31439,75,70,40
169.32149,169.48485,76,70,40
169.49194,169.6553,75,70,40
169.6624,169.82576,76,70,40
169.83286,169.99622,78,70,40
170.00331,170.16666,79,70,40
170.17377,170.33711,71,70,40
170.34422,170.50757,72,70,40
170.51468,170.67802,74,70,40
170.68513,170.84848,76,70,40
170.85559,171.01894,68,70,40
171.02603,171.18939,69,70,40
171.19649,171.35985,71,70,40
171.36694,171.5303,72,70,40
171.5374,171.70076,64,70,40
171.70786,171.87122,65,70,40
171.87831,172.04166,67,70,40
172.04877,172.21211,69,70,40
172.21922,172.38257,60,70,40
172.38968,172.55302,62,70,40
172.56013,172.72348,64,70,40
172.73059,172.89394,65,70,40
172.90103,173.06439,67,70,40
173.07149,173.23485,69,70,40
173.24194,173.4053,71,70,40
173.4124,173.57576,72,70,40
173.58286,173.74622,71,70,40
173.75331,173.91666,74,70,40
173.92377,174.08711,72,70,40
174.09422,174.25757,71,70,40
174.26468,174.42802,69,70,40
174.43513,174.59848,67,70,40
174.60558,174.76894,65,70,40
174.77603,174.93939,64,70,40
174.94649,175.10985,65,70,40
175.11694,175.28807,69,70,40
175.29552,175.46664,72,70,40
175.47409,175.82379,72,70,40
175.83124,176.89522,64,76,40
176.90266,177.26985,67,94,40
177.27766,177.66417,66,100,40
177.6724,178.20067,66,110,40
178.74382,179.2721,83,110,40
178.74382,179.2721,71,110,40
181.99707,182.33087,76,70,40
182.33798,183.0127,78,70,40
183.01979,183.18315,84,70,40
183.19025,183.3536,83,70,40
183.3607,184.03542,83,70,40
184.04253,184.37633,76,70,40
184.38344,185.05815,78,70,40
185.06525,185.2286,84,70,40
185.2357,185.39906,83,70,40
185.40616,185.73996,83,70,40
186.25844,186.42178,71,70,40
186.42888,186.59224,72,70,40
186.59933,186.7627,74,70,40
186.76979,186.92952,76,70,40
186.93646,187.09618,68,70,40
187.10313,187.26285,69,70,40
187.26979,187.42952,71,70,40
187.43646,187.59271,72,70,40
187.5995,187.75575,64,71,40
187.76254,187.9188,65,72,40
187.92558,188.08183,67,74,40
188.08864,188.24489,69,75,40
188.25168,188.40793,60,76,40
188.41472,188.57097,62,78,40
188.57776,188.73401,64,79,40
188.7408,188.89705,65,80,40
188.90385,189.0601,67,82,40
189.0669,189.22314,69,83,40
189.22993,189.38618,71,84,40
189.39297,189.54922,72,86,40
189.55603,189.71227,74,87,40
189.71907,189.87532,76,88,40
189.88211,190.03836,77,90,40
190.04515,190.2014,79,91,40
190.20819,190.36444,81,92,40
190.37125,190.5275,83,94,40
190.53429,190.69054,84,95,40
190.69733,190.86067,86,96,40
190.86778,190.98853,88,98,40
191.03824,191.16472,89,99,40
191.21681,191.34962,89,100,40
191.40431,193.10175,89,120,40
193.10886,193.16566,65,120,40
193.16566,193.22249,67,120,40
193.22249,193.27931,65,120,40
193.27931,193.36453,63,120,40
193.36453,193.44266,65,120,40
193.44975,193.61311,63,120,40
193.62021,193.78357,67,120,40
193.79066,193.95403,72,120,40
193.96112,194.12448,67,120,40
194.13158,194.29494,75,120,40
194.30203,194.46538,72,120,40
194.47249,194.63583,79,120,40
194.64294,194.80629,75,120,40
194.8134,194.97675,84,120,40
194.98386,195.10458,79,120,40
195.15431,195.27504,87,120,40
195.32475,195.4455,87,120,40
195.49521,197.19266,86,120,40
197.19975,197.25658,60,120,40
197.25658,197.3134,62,120,40
197.3134,197.37021,60,120,40
197.37021,197.45544,59,120,40
197.45544,197.53357,60,120,40
197.54066,197.70403,58,120,40
197.71112,197.87448,62,120,40
197.88158,198.04492,67,120,40
198.05203,198.21538,62,120,40
198.22249,198.38583,70,120,40
198.39294,198.55629,67,120,40
198.5634,198.72675,74,120,40
198.73386,198.8972,70,120,40
198.9043,199.06766,79,120,40
199.07475,199.1955,74,120,40
199.24521,199.36595,82,120,40
199.41566,199.5364,82,120,40
199.58612,201.28357,82,110,40
201.29066,201.34749,61,110,40
201.34749,201.4043,62,110,40
201.4043,201.46112,61,110,40
201.46112,201.54634,59,110,40
201.54634,201.62447,61,110,40
201.63158,201.79492,62,110,40
201.80203,201.96538,69,110,40
201.97249,202.13583,74,110,40
202.14294,202.30629,72,110,40
202.3134,202.6472,70,110,40
202.6543,203.32903,69,110,40
203.33612,203.66992,67,110,40
203.67703,203.84038,66,110,40
203.84749,204.01083,75,110,40
204.01794,204.18129,72,110,40
204.1884,204.35175,73,110,40
204.35884,204.5222,74,110,40
204.5293,204.69266,79,110,40
204.69975,204.86311,78,110,40
204.87021,205.03357,82,110,40
205.04066,205.20403,81,110,40
205.21112,205.37447,85,110,40
205.38158,205.54492,86,110,40
205.55203,205.71538,85,110,40
205.72249,205.97107,86,110,40
206.0634,206.31197,86,110,40
206.4043,206.65288,86,110,40
206.74521,207.07901,86,110,40
211.85884,212.36311,81,70,40
212.37021,212.53355,78,70,40
212.54066,212.70401,79,70,40
212.71112,212.87447,76,70,40
212.88158,213.13016,74,70,40
213.22249,213.47105,74,70,40
213.56339,213.81197,74,70,40
213.9043,214.57901,74,70,40
215.94975,216.45401,84,70,40
216.46112,216.62447,83,70,40
216.63158,216.79492,81,70,40
216.80203,216.96538,80,70,40
216.97247,217.13583,81,70,40
217.14293,217.30629,83,70,40
217.31339,217.47675,84,70,40
217.48384,217.6472,86,70,40
217.6543,217.81766,88,70,40
217.82475,217.9881,86,70,40
217.99521,218.66992,86,70,40
218.67703,219.01083,91,70,40
219.01793,219.69266,90,70,40
219.69975,219.75658,88,70,40
219.75658,219.81339,90,70,40
219.81339,219.87021,88,70,40
219.87021,219.95543,86,70,40
219.95543,220.03355,88,70,40
220.04066,220.71538,86,70,40
220.72247,220.7793,84,70,40
220.7793,220.83612,86,70,40
220.83612,220.89293,84,70,40
220.89293,220.97816,83,70,40
220.97816,221.06339,84,70,40
221.06339,221.3972,83,70,40
221.57475,221.7381,66,70,40
221.74521,221.90855,67,70,40
221.91566,222.07901,69,70,40
222.08612,222.24947,67,70,40
222.25658,222.41992,62,70,40
222.42702,222.59038,67,70,40
222.59747,222.76083,62,70,40
222.76793,222.93129,67,70,40
222.93839,223.10175,62,70,40
223.10884,223.2722,67,70,40
223.2793,223.44264,64,70,40
223.44975,223.6131,72,70,40
223.62021,223.78355,67,70,40
223.79066,223.95401,72,70,40
223.96112,224.12447,67,70,40
224.13158,224.46538,72,70,40
224.47247,224.80629,84,76,40
224.81339,225.16309,84,82,40
225.17053,226.31065,84,88,40
226.31934,227.5619,83,70,40
227.56934,227.74046,80,70,40
227.74791,227.91904,81,70,40
227.92648,228.05296,84,70,40
228.10506,228.23154,88,70,40
228.28363,228.41011,88,70,40
228.46219,229.16904,88,70,40
229.17648,229.70476,86,70,40
229.71219,229.88333,90,70,40
229.89076,230.06189,93,70,40
230.06934,230.24046,90,70,40
230.24791,230.41904,86,70,40
230.42648,230.59761,84,70,40
230.60506,231.31189,83,70,40
231.31934,231.84761,71,70,40
231.85504,232.02618,68,70,40
232.03362,232.20474,69,70,40
232.21219,232.38332,72,70,40
232.39076,232.56189,76,70,40
232.56934,232.74046,76,70,40
232.74791,233.45474,76,70,40
233.46219,233.99046,74,70,40
233.99791,234.16904,78,70,40
234.17647,234.35616,81,70,40
234.36397,234.54366,78,70,40
234.55147,234.74062,74,70,40
234.74884,235.11734,72,70,40
235.12479,235.29591,70,70,40
235.30336,235.47449,72,70,40
235.48192,235.65306,71,70,40
235.66049,235.83162,81,70,40
235.83907,236.0102,79,70,40
236.19621,236.36734,69,70,40
236.37479,236.54591,76,70,40
236.55334,236.72449,75,70,40
236.73192,236.90306,78,70,40
236.91049,237.08162,76,70,40
237.08907,237.43877,76,70,40
237.44621,238.54553,67,76,40
238.55334,238.84119,71,97,40
238.94809,239.2519,69,104,40
239.36476,239.91945,66,120,40
239.36476,239.91945,69,120,40
239.92726,240.04799,66,100,40
239.92726,240.04799,69,100,40
240.0977,240.21844,66,100,40
240.0977,240.21844,69,100,40
240.26816,240.3889,66,100,40
240.26816,240.3889,69,100,40
240.43861,240.94287,66,120,40
240.43861,240.94287,69,120,40
240.94998,241.07072,66,100,40
240.94998,241.07072,69,100,40
241.12044,241.24118,66,100,40
241.12044,241.24118,69,100,40
241.2909,241.41162,66,100,40
241.2909,241.41162,69,100,40
241.46135,241.9656,67,120,40
241.46135,241.9656,70,120,40
241.9727,242.09344,67,100,40
241.9727,242.09344,70,100,40
242.14316,242.2639,67,100,40
242.14316,242.2639,70,100,40
242.31361,242.43436,67,100,40
242.31361,242.43436,70,100,40
242.48407,242.98833,67,120,40
242.48407,242.98833,70,120,40
242.99544,243.11618,67,100,40
242.99544,243.11618,70,100,40
243.1659,243.29237,67,100,40
243.1659,243.29237,70,100,40
243.34447,243.47728,67,100,40
243.34447,243.47728,70,100,40
243.53197,244.2388,66,100,40
243.53197,244.2388,69,100,40
244.24625,244.59595,72,100,40
244.6034,244.9531,71,100,40
244.96053,245.31023,69,100,40
245.31767,245.66737,67,100,40
245.67482,246.02452,64,100,40
246.03195,246.38165,62,100,40
246.3891,246.7388,61,100,40
246.74625,247.48843,62,100,40
247.49625,247.90424,60,100,40
247.9129,248.46759,69,120,40
248.4754,248.59615,69,100,40
248.64586,248.7666,69,100,40
248.81631,248.93706,69,100,40
248.98677,249.49103,69,120,40
249.49814,249.61888,69,100,40
249.6686,249.78934,67,100,40
249.83905,249.95978,79,100,40
250.0095,250.51376,79,120,40
250.52086,250.6416,79,100,40
250.69131,250.81781,77,100,40
250.86989,250.99638,89,100,40
251.04846,251.57674,89,120,40
251.58417,251.71066,89,100,40
251.76274,251.89555,88,100,40
251.95024,252.09383,91,100,40
252.15295,253.21693,91,105,40
253.22438,255.00266,89,70,40
255.01009,256.07407,88,70,40
256.0815,256.4312,87,70,40
256.43866,256.6098,86,70,40
256.61722,256.78836,85,70,40
256.7958,256.96692,84,70,40
256.97437,257.1455,83,70,40
257.15295,257.32407,81,70,40
257.3315,257.50266,79,70,40
257.51007,257.6812,77,70,40
257.68866,257.8598,76,70,40
257.86722,258.03836,74,70,40
258.0458,258.21692,72,70,40
258.22437,258.3955,71,70,40
258.40295,258.57407,69,70,40
258.5815,259.28836,68,50,40
259.2958,260.35977,69,50,40
260.36722,261.07407,66,50,40
261.0815,261.78836,67,50,40
261.7958,262.50266,65,50,40
262.51007,263.21692,64,50,40
263.22437,263.9312,55,50,40
263.22437,263.9312,67,50,40
263.93866,264.6455,55,50,40
263.93866,264.6455,67,50,40
264.65292,265.35977,55,50,40
264.65292,265.35977,67,50,40
265.36722,266.07407,55,50,40
265.36722,266.07407,67,50,40
266.0815,266.78836,55,55,40
266.0815,266.78836,67,55,40
266.79578,267.50262,55,61,40
266.79578,267.50262,67,61,40
267.51007,268.21692,55,67,40
267.51007,268.21692,70,67,40
268.22437,268.9312,55,73,40
268.22437,268.9312,70,73,40
268.93866,269.64548,55,79,40
268.93866,269.64548,70,79,40
269.65292,270.35977,74,85,40
270.36722,271.07407,74,91,40
271.0815,271.8237,74,97,40
271.8315,272.5737,74,110,40
271.8315,272.5737,86,110,40
272.5815,273.36276,74,110,40
272.5815,273.36276,86,110,40
273.37097,273.79062,74,110,40
273.37097,273.79062,86,110,40
273.79953,273.97812,86,125,40
273.97812,274.09885,83,115,40
274.14856,274.26932,79,110,40
274.31903,274.43976,74,110,40
274.48947,274.61023,71,110,40
274.65994,274.78067,67,110,40
274.83038,275.846,62,110,40
275.85312,276.02356,86,125,40
276.02356,276.14432,84,115,40
276.19403,276.31476,81,110,40
276.36447,276.48523,74,110,40
276.53494,276.65567,72,110,40
276.70538,276.82614,69,110,40
276.87585,277.89148,62,110,40
278.9213,279.09174,86,125,40
279.09174,279.2125,83,115,40
279.2622,279.38293,79,110,40
279.43265,279.5534,74,110,40
279.60312,279.72385,71,110,40
279.77356,279.89432,67,110,40
279.94403,280.95966,62,110,40
280.96674,281.1372,86,125,40
281.1372,281.25793,84,115,40
281.30765,281.4284,81,110,40
281.47812,281.59885,74,110,40
281.64856,281.76932,72,110,40
281.81903,281.93976,69,110,40
281.98947,282.66418,67,110,40
283.0122,283.18265,80,125,40
283.18265,283.3034,77,115,40
283.35312,283.47385,74,110,40
283.52356,283.64432,70,110,40
283.69403,283.81476,68,110,40
283.86447,283.98523,65,110,40
284.03494,284.53918,55,120,40
284.03494,284.53918,63,120,40
284.03494,284.53918,75,120,40
285.05765,285.56192,70,120,40
285.05765,285.56192,82,120,40
288.12585,288.6301,63,70,40
289.14856,289.65283,70,70,40
292.21674,292.721,63,50,40
293.23947,293.74374,70,50,40
296.30765,296.81192,62,120,40
296.30765,296.81192,71,120,40
297.33038,297.83466,66,120,40
297.33038,297.83466,73,120,40
297.33038,302.60736,78,120,40
302.61447,302.77783,79,50,40
302.7849,302.95605,76,50,40
302.9635,303.1346,73,50,40
303.14206,303.32175,70,50,40
303.32956,303.52924,66,50,40
303.5379,304.24832,71,50,40
308.0591,308.5634,79,50,40
308.57047,308.73383,80,50,40
308.74094,308.91205,77,50,40
308.9195,309.09064,74,50,40
309.09808,309.27777,71,50,40
309.28558,309.48523,67,50,40
309.4939,310.85043,72,50,40
310.85754,311.19135,68,50,40
311.19846,311.53226,75,50,40
311.53937,312.72543,80,50,40
312.73254,312.8959,75,50,40
312.90298,313.06635,72,50,40
313.07346,313.23682,68,50,40
313.2439,313.40726,63,50,40
313.41437,313.5777,60,50,40
313.5848,313.9186,63,50,40
313.92572,314.17432,61,50,40
314.26663,314.5152,61,50,40
314.60754,314.94135,73,50,40
314.94846,315.28226,70,50,40
315.28937,315.62317,79,50,40
315.63028,316.81635,82,50,40
316.82346,316.98682,79,50,40
316.9939,317.15726,73,50,40
317.16437,317.3277,70,50,40
317.3348,317.49817,67,50,40
317.50528,317.6686,63,50,40
317.67572,318.00952,61,50,40
318.01663,318.2652,60,50,40
318.35754,318.6061,60,50,40
318.69846,319.03226,72,50,40
319.03937,319.37317,68,50,40
319.38028,320.055,75,50,40
320.06207,320.3959,72,50,40
320.40298,321.0777,78,50,40
321.0848,321.24817,78,50,40
321.25528,321.4186,75,50,40
321.42572,321.58908,72,50,40
321.5962,321.75952,70,50,40
321.76663,322.0152,69,50,40
322.10754,322.2709,78,50,40
322.27798,322.44135,75,50,40
322.44846,322.61182,72,50,40
322.6189,322.78226,69,50,40
322.78937,322.9527,70,50,40
323.13028,323.2936,82,50,40
323.30072,323.46408,77,50,40
323.4712,323.63452,73,50,40
323.64163,323.805,70,50,40
323.81207,323.97543,69,50,40
324.15298,324.31635,78,50,40
324.32346,324.4868,75,50,40
324.4939,324.65726,72,50,40
324.66437,324.8277,69,50,40
324.8348,324.99817,70,50,40
325.00528,325.1686,77,50,40
325.17572,325.33908,82,50,40
325.34616,325.50952,77,50,40
325.51663,325.68,73,50,40
325.68707,325.85043,70,50,40
325.85754,326.02866,69,50,40
326.0361,326.20724,75,50,40
326.2147,326.39438,78,50,40
326.4022,326.58188,75,50,40
326.5897,326.77884,72,50,40
326.78705,326.9867,69,50,40
326.9954,327.36258,70,50,40
327.3704,328.0608,73,50,40
328.06805,328.75845,73,50,40
328.76572,329.45615,73,50,40
329.4634,330.1538,73,50,40
330.16107,330.85147,73,50,40
330.85876,331.54916,73,50,40
331.55643,332.24683,73,52,40
332.2541,332.94452,73,58,40
332.95178,333.64218,73,64,40
333.64944,334.33984,73,69,40
334.34714,335.03754,73,75,40
335.0448,335.7352,73,81,40
335.74246,336.4329,73,86,40
335.74246,336.4329,76,86,40
336.44016,337.13055,73,92,40
336.44016,337.13055,76,92,40
337.13782,337.84467,73,98,40
337.13782,337.84467,76,98,40
337.8521,338.55896,73,110,40
337.8521,338.55896,82,110,40
338.56638,339.30856,73,110,40
338.56638,339.30856,82,110,40
339.31638,339.73602,73,110,40
339.31638,339.73602,82,110,40
339.74496,339.91608,83,70,40
339.74496,339.91608,74,70,40
340.1021,340.25836,83,70,40
340.25836,340.4146,78,70,40
340.4146,340.57086,74,70,40
340.57086,340.7271,71,70,40
340.7271,340.88336,70,70,40
341.0396,341.19586,79,70,40
341.19586,341.3521,76,70,40
341.3521,341.50836,73,70,40
341.50836,341.65808,70,70,40
341.6646,341.82086,71,70,40
341.82086,341.9771,78,70,40
341.9771,342.13336,83,70,40
342.13336,342.2896,78,70,40
342.2896,342.44586,74,70,40
342.44586,342.6021,71,70,40
342.6021,342.75836,70,70,40
342.75836,342.9146,76,70,40
342.9146,343.08505,79,70,40
343.08505,343.25552,76,70,40
343.25552,343.44302,73,70,40
343.44302,343.64267,70,70,40
343.65134,343.98514,71,50,40
343.99225,344.66696,74,50,40
344.67407,345.3488,74,50,40
345.3559,346.0306,74,50,40
346.03772,346.71243,74,50,40
346.7195,347.39426,74,50,40
347.40134,348.07605,74,50,40
348.08316,348.75787,74,52,40
348.76498,349.4397,74,57,40
349.4468,350.12152,74,62,40
350.1286,350.80334,74,67,40
350.81042,351.48514,74,72,40
351.49225,352.16696,74,77,40
352.17407,352.8488,74,83,40
352.8559,353.5306,74,88,40
353.53772,354.21243,74,93,40
354.2195,354.89423,77,98,40
354.90134,355.57605,77,103,40
355.58316,356.25787,77,108,40
356.26498,356.9397,77,110,40
356.9468,357.62152,77,110,40
357.6286,358.33545,77,110,40
358.3429,359.04974,83,110,40
359.0572,359.79938,83,110,40
359.8072,360.21518,83,110,40
360.22385,360.40353,84,120,40
360.41135,360.5747,83,120,40
360.58182,360.73807,84,120,40
360.74484,360.9011,88,120,40
360.9079,361.06415,86,120,40
361.07092,361.22717,84,120,40
361.23398,361.39023,83,120,40
361.39703,361.55328,84,120,40
361.56006,361.7163,83,120,40
361.7231,361.87936,81,120,40
361.88614,362.0424,79,120,40
362.0492,362.20544,81,120,40
362.21225,362.3685,79,120,40
362.37527,362.53152,77,120,40
362.53833,362.69458,76,120,40
362.70135,362.8576,77,120,40
362.8644,363.02066,76,120,40
363.02747,363.18372,74,120,40
363.1905,363.34674,72,120,40
363.35355,363.5098,74,120,40
363.51657,363.67282,72,120,40
363.67963,363.83588,71,120,40
363.84268,363.99893,69,120,40
364.0057,364.16196,71,120,40
364.16876,364.6511,72,120,40
365.147,365.62936,79,120,40
367.7557,368.075,80,120,40
368.0818,368.23804,81,120,40
368.24484,368.4011,80,120,40
368.40787,368.56412,81,120,40
368.57092,368.72717,84,120,40
368.73398,368.89023,83,120,40
368.897,369.05325,81,120,40
369.06006,369.2163,80,120,40
369.22308,369.37933,81,120,40
369.38614,369.5424,80,120,40
369.5492,369.70544,77,120,40
369.71222,369.86847,76,120,40
369.87527,370.03152,77,120,40
370.0383,370.19455,76,120,40
370.20135,370.3576,74,120,40
370.3644,370.52066,72,120,40
370.52744,370.6837,74,120,40
370.6905,370.84674,72,120,40
370.85352,371.00977,71,120,40
371.01657,371.17282,69,120,40
371.17963,371.33588,71,120,40
371.34265,371.4989,69,120,40
371.5057,371.66196,68,120,40
371.66873,371.82498,66,120,40
371.8318,371.98804,68,120,40
371.99484,372.47717,69,120,40
372.97308,373.4554,76,120,40
376.47403,376.6374,69,50,40
376.6445,376.80786,72,50,40
376.81494,376.9783,69,50,40
376.9854,378.17148,68,50,40
378.1786,378.34195,69,50,40
378.34903,378.5124,71,50,40
378.5195,378.68286,69,50,40
378.68994,378.8533,72,50,40
378.8604,379.02374,69,50,40
379.03085,380.04648,68,50,40
380.0536,380.21695,69,50,40
380.22403,380.3874,68,50,40
380.3945,380.55786,69,50,40
380.56494,380.7283,71,50,40
380.7354,380.89874,72,50,40
380.90585,381.0692,64,50,40
381.07632,381.23965,65,50,40
381.24677,381.41013,67,50,40
381.41724,381.58057,69,50,40
382.2695,382.43994,69,60,40
382.43994,382.6104,70,60,40
382.6104,382.78085,72,60,40
382.78085,382.95132,74,60,40
382.95132,383.12177,65,60,40
383.12177,383.29224,67,60,40
383.29224,383.46268,69,60,40
383.46268,383.63312,70,60,40
383.63312,383.8036,72,60,40
383.8036,383.97403,74,60,40
383.97403,384.1374,75,60,40
384.1445,384.31494,77,60,40
384.31494,384.4854,76,60,40
384.4854,384.65585,79,60,40
384.65585,384.82632,77,60,40
384.82632,384.99677,75,60,40
384.99677,385.1672,74,60,40
385.1672,385.33768,72,60,40
385.33768,385.50812,70,60,40
385.50812,385.6786,69,60,40
385.6786,385.84903,70,60,40
385.84903,386.0195,74,60,40
386.0195,386.18283,77,60,40
386.18994,386.52374,77,60,40
386.53085,387.54648,69,60,40
387.5536,387.9033,72,60,40
387.91074,388.29724,71,60,40
388.30545,389.36945,72,60,40
389.3769,390.4409,71,60,40
390.4483,391.6909,72,60,40
391.6983,391.86945,71,60,40
391.8769,392.048,72,60,40
392.05545,392.2266,71,60,40
392.23404,392.40515,74,60,40
392.4126,392.58374,71,60,40
392.5912,393.298,72,60,40
396.15234,396.3086,77,60,40
396.31537,396.47162,79,60,40
396.47842,396.63467,81,60,40
396.64148,396.79773,82,60,40
396.8045,396.96075,77,61,40
396.96756,397.1238,79,63,40
397.13058,397.28683,81,65,40
397.29364,397.4499,82,67,40
397.4567,397.61295,77,68,40
397.61972,397.77597,79,70,40
397.78278,397.93903,81,72,40
397.9458,398.10205,82,74,40
398.10886,398.2651,77,76,40
398.2719,398.42816,79,77,40
398.43494,398.5912,81,79,40
398.598,398.75424,82,81,40
398.76102,398.91727,77,83,40
398.92407,399.08032,79,84,40
399.08713,399.24338,81,86,40
399.25015,399.4064,82,88,40
399.4132,399.56946,77,90,40
399.57623,399.73248,79,92,40
399.7393,399.89554,81,93,40
399.90234,400.0586,82,95,40
400.06537,400.22162,77,97,40
400.22842,400.38467,79,99,40
400.39145,400.5477,81,100,40
400.5545,402.16455,82,127,40
402.18494,402.2393,56,110,40
402.2393,402.29364,58,110,40
402.29364,402.348,56,110,40
402.348,402.4295,55,110,40
402.4295,402.50424,56,110,40
402.51102,402.66727,55,110,40
402.67407,402.83032,59,110,40
402.8371,402.99335,62,110,40
403.00015,403.1564,59,110,40
403.1632,403.31946,67,110,40
403.32623,403.48248,62,110,40
403.4893,403.64554,71,110,40
403.65234,403.80856,67,110,40
403.81537,403.97162,74,110,40
403.97842,404.0939,71,110,40
404.14145,404.25696,79,110,40
404.3045,404.41998,79,110,40
404.46756,406.0776,84,127,40
406.098,406.1523,58,110,40
406.1523,406.20667,60,110,40
406.20667,406.26102,58,110,40
406.26102,406.34253,57,110,40
406.34253,406.41727,58,110,40
406.42407,406.58032,57,110,40
406.5871,406.74335,61,110,40
406.75015,406.9064,64,110,40
406.9132,407.06946,61,110,40
407.07623,407.23248,69,110,40
407.2393,407.39554,64,110,40
407.4023,407.55856,73,110,40
407.56537,407.72162,69,110,40
407.72842,407.88467,76,110,40
407.89145,408.00693,73,110,40
408.0545,408.16998,81,110,40
408.21753,408.33304,81,110,40
408.38058,409.99063,86,127,40
410.01102,410.06537,60,110,40
410.06537,410.11972,62,110,40
410.11972,410.17407,60,110,40
410.17407,410.25558,59,110,40
410.25558,410.33032,60,110,40
410.3371,410.49335,59,110,40
410.50015,410.6564,63,110,40
410.66318,410.81943,66,110,40
410.82623,410.98248,63,110,40
410.9893,411.14554,71,110,40
411.1523,411.30856,66,110,40
411.31537,411.47162,75,110,40
411.4784,411.63464,71,110,40
411.64145,411.7977,78,110,40
411.8045,411.91998,75,110,40
411.96753,412.08304,83,110,40
412.13058,412.24606,83,110,40
412.2936,413.91727,88,120,40
413.92404,413.9784,86,120,40
413.9784,414.03275,88,120,40
414.03275,414.0871,86,120,40
414.0871,414.1686,84,120,40
414.1686,414.25015,86,120,40
414.25015,414.56943,84,120,40
414.9023,414.95667,83,120,40
414.95667,415.01102,84,120,40
415.01102,415.06537,83,120,40
415.06537,415.14688,81,120,40
415.14688,415.2284,83,120,40
415.2284,415.5477,81,120,40
415.88058,415.9349,79,120,40
415.9349,415.98926,81,120,40
415.98926,416.0436,79,120,40
416.0436,416.12512,78,120,40
416.12512,416.20667,79,120,40
416.20667,417.8303,78,120,40
417.8371,417.89145,76,120,40
417.89145,417.9458,78,120,40
417.9458,418.00012,76,120,40
418.00012,418.08167,75,120,40
418.08167,418.16318,76,120,40
418.16318,418.48248,75,120,40
418.81534,418.8697,75,120,40
418.8697,418.92404,76,120,40
418.92404,418.9784,75,120,40
418.9784,419.0599,73,120,40
419.0599,419.14145,75,120,40
419.14145,419.46072,76,120,40
419.7936,419.84796,70,120,40
419.84796,419.9023,71,120,40
419.9023,419.95667,70,120,40
419.95667,420.03818,69,120,40
420.03818,420.1197,70,120,40
420.1197,420.439,71,120,40
420.77188,420.8262,71,120,40
420.8262,420.88055,72,120,40
420.88055,420.9349,71,120,40
420.9349,421.01645,69,120,40
421.01645,421.09796,71,120,40
421.09796,421.41724,72,120,40
421.75012,421.80447,66,120,40
421.80447,421.85883,67,120,40
421.85883,421.91318,66,120,40
421.91318,421.9947,64,120,40
421.9947,422.0762,66,120,40
422.0762,422.3955,67,120,40
422.7284,422.78275,67,120,40
422.78275,422.8371,69,120,40
422.8371,422.89142,67,120,40
422.89142,422.97296,66,120,40
422.97296,423.05447,67,120,40
423.05447,423.37378,69,120,40
423.7377,423.79724,63,120,40
423.79724,423.85675,64,120,40
423.85675,423.9163,63,120,40
423.9163,424.00555,61,120,40
424.00555,424.09485,63,120,40
424.09485,424.266,64,120,40
424.2734,424.44455,67,120,40
424.452,424.6231,66,120,40
424.63055,424.8017,64,120,40
424.80914,424.98026,63,120,40
424.9877,425.15884,64,120,40
425.16626,425.67865,63,120,40
426.2223,426.39273,75,70,40
426.39273,426.5632,78,70,40
426.5632,426.73364,76,70,40
426.73364,426.90408,75,70,40
426.90408,427.07455,73,70,40
427.07455,427.245,75,70,40
427.245,427.41547,81,70,40
427.41547,427.5859,84,70,40
427.5859,427.75638,83,70,40
427.75638,427.92682,81,70,40
427.92682,428.0973,79,80,40
428.0973,428.26062,78,100,40
428.26773,428.772,64,120,40
428.26773,428.772,71,120,40
428.26773,428.772,76,120,40
429.29047,429.7947,71,120,40
429.29047,429.7947,83,120,40
430.3132,430.48364,63,70,40
430.48364,430.65408,66,69,40
430.65408,430.82455,64,67,40
430.82455,430.995,63,65,40
430.995,431.16547,61,63,40
431.16547,431.3359,63,61,40
431.3359,431.50638,69,60,40
431.50638,431.67682,72,58,40
431.67682,431.8554,71,56,40
431.8554,432.03397,69,54,40
432.03397,432.22147,67,52,40
432.22147,432.4211,66,51,40
432.4298,432.7636,64,50,40
432.77072,433.10452,59,50,40
433.1116,433.44543,67,50,40
433.4525,434.6386,71,50,40
434.64572,434.80905,72,50,40
434.81616,434.9873,69,50,40
434.99472,435.16586,66,50,40
435.1733,435.353,63,50,40
435.3608,435.5405,59,50,40
435.5483,436.19034,64,50,40
438.10513,438.43893,65,50,40
438.44604,438.77985,60,50,40
438.78693,439.12076,69,50,40
439.12784,440.31393,72,50,40
440.32104,440.48438,74,50,40
440.4915,440.65485,70,50,40
440.66193,440.8253,67,50,40
440.8324,441.0035,64,50,40
441.01096,441.1821,60,50,40
441.18954,441.8964,65,50,40
445.3557,445.6895,75,50,40
445.69662,446.03043,72,50,40
446.03754,448.56705,78,70,40
448.57486,448.90866,78,50,40
448.91577,449.24957,75,50,40
449.25668,452.86774,81,70,40
452.87595,453.38022,79,70,40
453.38733,453.5507,76,70,40
453.55777,453.72113,79,70,40
453.72824,453.89157,76,70,40
453.89868,455.08478,75,70,40
455.09186,455.25522,76,70,40
455.26233,455.4257,78,70,40
455.43277,455.59613,76,70,40
455.60324,455.76657,79,70,40
455.77368,455.93704,76,70,40
455.94415,456.95978,75,70,40
456.96686,457.13022,76,70,40
457.13733,457.3007,75,70,40
457.30777,457.47113,76,70,40
457.47824,457.64157,78,70,40
457.64868,457.81204,79,70,40
457.81915,457.98248,71,70,40
457.9896,458.15295,72,70,40
458.16003,458.3234,74,70,40
458.3305,458.49387,76,70,40
458.50095,458.6643,68,70,40
458.67142,458.83478,69,70,40
458.84186,459.00522,71,70,40
459.01233,459.17566,72,70,40
465.31915,465.48248,70,72,40
465.4896,465.65295,69,75,40
465.66003,465.8234,67,78,40
465.8305,465.98676,65,80,40
465.99353,466.14978,74,83,40
466.1566,466.31284,72,86,40
466.31964,466.4759,70,89,40
466.48267,466.63892,69,91,40
466.64572,466.80197,82,94,40
466.80875,466.965,81,97,40
466.9718,467.12805,79,99,40
467.13486,467.2911,77,100,40
467.29788,467.45413,86,100,40
467.46094,467.6172,84,100,40
467.62396,467.7802,82,100,40
467.78702,467.94327,81,100,40
467.95007,468.10632,82,100,40
468.1131,468.27646,81,100,40
468.28357,468.4469,80,100,40
468.454,468.62515,81,100,40
468.6326,468.8037,79,100,40
468.81116,468.99084,77,100,40
468.99866,469.1929,76,100,40
469.20135,469.38104,74,110,40
469.38885,469.55222,55,110,40
469.55933,469.72266,62,110,40
469.72977,469.89313,59,110,40
469.90024,470.06357,67,110,40
470.07068,470.23404,62,110,40
470.24112,470.40448,71,110,40
470.4116,470.57495,67,110,40
470.58203,470.7454,74,110,40
470.7525,470.87323,71,110,40
470.92294,471.0437,79,110,40
471.0934,471.21414,79,110,40
471.26385,472.92578,79,127,40
472.9684,473.02524,67,110,40
473.02524,473.08203,69,110,40
473.08203,473.13885,67,110,40
473.13885,473.2241,65,110,40
473.2241,473.30933,67,110,40
473.30933,473.47266,65,110,40
473.47977,473.64313,55,110,40
473.65024,473.81357,62,110,40
473.82068,473.98404,59,110,40
473.99112,474.15448,65,110,40
474.1616,474.32495,62,110,40
474.33203,474.4954,71,110,40
474.5025,474.66586,65,110,40
474.67294,474.8363,74,110,40
474.8434,474.96414,71,110,40
475.01385,475.1346,77,110,40
475.18433,475.30505,77,110,40
475.35477,477.0167,76,127,40
477.05933,477.11612,64,110,40
477.11612,477.17294,66,110,40
477.17294,477.22977,64,110,40
477.22977,477.315,63,110,40
477.315,477.4002,64,110,40
477.4002,478.07495,63,110,40
479.10477,479.43857,78,110,40
479.44568,481.1076,79,127,40
481.1502,481.20703,76,110,40
481.20703,481.26385,78,110,40
481.26385,481.32068,76,110,40
481.32068,481.4059,75,110,40
481.4059,481.49112,76,110,40
481.49112,481.65448,75,110,40
481.6616,481.82495,66,110,40
481.83203,481.9954,71,110,40
482.0025,482.16583,69,110,40
482.17294,482.50674,67,110,40
482.51385,483.18857,66,110,40
483.19568,483.52948,64,110,40
483.5366,483.69995,63,110,40
483.70703,483.8704,72,110,40
483.8775,484.04083,67,110,40
484.04794,484.2113,70,110,40
484.2184,484.38174,71,110,40
484.38885,484.55222,76,110,40
484.55933,484.72266,75,110,40
484.72977,484.89313,79,110,40
484.9002,485.06357,78,110,40
485.07068,485.23404,82,110,40
485.24112,485.40448,83,110,40
485.4116,485.57495,82,110,40
485.58203,485.83063,83,110,40
485.92294,486.17154,83,110,40
486.26385,486.51245,83,110,40
486.60477,487.27948,83,110,40
491.7184,492.22266,78,70,40
492.22977,492.39313,75,70,40
492.4002,492.56357,76,70,40
492.57068,492.73404,73,70,40
492.74112,493.07492,71,70,40
493.08203,493.41583,71,70,40
493.42294,493.75674,71,70,40
493.76385,494.43857,71,70,40
495.8093,496.31357,81,70,40
496.32068,496.48404,78,70,40
496.49112,496.65448,80,70,40
496.6616,496.82492,76,70,40
496.83203,497.16583,75,70,40
497.17294,497.50674,75,70,40
497.51385,497.84766,75,70,40
497.85477,498.52948,75,70,40
499.9002,500.40448,71,70,40
500.4116,500.57492,75,70,40
500.58203,500.7454,73,70,40
500.7525,500.91583,76,70,40
500.92294,501.42722,75,70,40
501.4343,501.59766,78,70,40
501.60477,501.76813,77,70,40
501.7752,501.93857,80,70,40
501.94568,502.6204,78,70,40
503.99112,504.4954,75,70,40
504.5025,504.66583,78,70,40
504.67294,504.8363,77,70,40
504.84338,505.00674,80,70,40
505.01385,505.17722,78,70,40
505.1843,505.34766,80,70,40
505.35477,505.52588,81,70,40
505.53333,505.70447,83,70,40
505.7119,505.8916,85,70,40
505.8994,506.0791,83,70,40
506.0869,506.79376,83,70,40
506.80118,507.15088,88,70,40
507.15833,507.86517,87,70,40
507.87262,507.93512,85,70,40
507.93512,507.99762,87,70,40
507.99762,508.06012,85,70,40
508.06012,508.1588,83,70,40
508.1588,508.25748,85,70,40
508.25748,508.96432,83,70,40
508.97177,509.03128,81,70,40
509.03128,509.09082,83,70,40
509.09082,509.15033,81,70,40
509.15033,509.23962,80,70,40
509.23962,509.32892,81,70,40
509.32892,509.67862,80,70,40
509.86462,510.03577,63,70,40
510.04318,510.21432,64,70,40
510.22177,510.39288,66,70,40
510.40033,510.57147,64,70,40
510.57892,510.75003,59,70,40
510.75748,510.92862,64,70,40
510.93607,511.10718,59,70,40
511.11462,511.28577,64,70,40
511.29318,511.46432,59,70,40
511.47177,511.64288,64,70,40
511.65033,511.82147,64,70,40
511.82892,512.00006,69,70,40
512.0075,512.1786,64,70,40
512.18604,512.3572,69,70,40
512.3646,512.53577,64,70,40
512.5432,512.8929,69,70,40
512.9003,513.25006,81,78,40
513.2575,513.6247,81,86,40
513.6325,514.8102,81,94,40
514.8189,516.03253,80,70,40
516.0398,516.207,77,70,40
516.21423,516.3814,78,70,40
516.3887,516.5122,81,70,40
516.56305,516.6866,85,70,40
516.7375,516.861,85,70,40
516.9119,517.6023,85,70,40
517.60956,518.12555,83,70,40
518.1328,518.3,87,70,40
518.30725,518.4744,90,70,40
518.4817,518.6488,87,70,40
518.65607,518.82324,83,70,40
518.8305,518.9977,81,70,40
519.00494,519.6953,80,70,40
519.7026,520.21857,68,70,40
520.2258,520.393,65,70,40
520.40027,520.56744,66,70,40
520.5747,520.69824,69,70,40
520.7491,520.8727,73,70,40
520.9235,521.04706,73,70,40
521.09796,521.7883,73,70,40
521.7956,522.3116,71,70,40
522.31885,522.486,75,70,40
522.4933,522.66046,78,70,40
522.6677,522.83484,75,70,40
522.84216,523.0093,71,70,40
523.01654,523.3581,69,70,40
523.3654,523.53253,67,70,40
523.5398,523.707,69,70,40
523.71423,523.88135,68,70,40
523.8887,524.0558,78,70,40
524.06305,524.2302,76,70,40
524.4119,524.57904,66,70,40
524.5863,524.7535,73,70,40
524.76074,524.9279,72,70,40
524.9352,525.1023,75,70,40
525.10956,525.27673,73,70,40
525.284,525.62555,73,70,40
525.6328,526.70575,64,70,40
526.7134,527.09485,68,70,40
527.10297,527.511,66,70,40
527.51965,528.07434,63,120,40
527.51965,528.07434,66,120,40
528.08215,528.2029,63,100,40
528.08215,528.2029,66,100,40
528.2526,528.37335,63,100,40
528.2526,528.37335,66,100,40
528.42303,528.5438,63,100,40
528.42303,528.5438,66,100,40
528.5935,529.0978,63,120,40
528.5935,529.0978,66,120,40
529.10486,529.2256,63,100,40
529.10486,529.2256,66,100,40
529.2753,529.39606,63,100,40
529.2753,529.39606,66,100,40
529.4458,529.5665,63,100,40
529.4458,529.5665,66,100,40
529.6162,530.1205,67,120,40
530.1276,530.24835,67,100,40
530.29803,530.4188,67,100,40
530.4685,530.58923,67,100,40
530.639,531.14325,67,120,40
531.1503,531.27106,67,100,40
531.3208,531.44727,67,100,40
531.4993,531.63214,67,90,40
531.6868,533.108,66,70,40
533.1154,533.46515,59,70,40
533.4726,534.17944,57,70,40
534.1868,534.53656,59,70,40
534.544,534.8937,61,70,40
534.9011,535.608,59,70,40
535.6154,535.9826,63,70,40
535.9904,536.4947,66,120,40
536.5018,536.6225,66,100,40
536.67224,536.79297,66,100,40
536.8427,536.96344,66,100,40
537.0131,537.5174,66,120,40
537.52454,537.64526,66,100,40
537.69495,537.81573,64,100,40
537.8654,537.98615,76,100,40
538.0359,538.54016,76,120,40
538.54724,538.66797,76,100,40
538.7177,538.83844,74,100,40
538.8881,539.0089,86,100,40
539.0586,539.5706,86,120,40
539.57806,539.7046,86,100,40
539.75665,539.88947,85,100,40
539.94415,540.09174,88,100,40
540.15247,541.2165,88,100,40
541.22394,543.0022,86,70,40
543.00964,544.0736,85,70,40
544.08105,544.4308,84,70,40
544.4382,544.6093,83,70,40
544.61676,544.7879,81,70,40
544.79535,544.9665,80,70,40
544.97394,545.145,78,70,40
545.15247,545.3236,76,70,40
545.33105,545.5022,75,70,40
545.50964,545.6808,74,70,40
545.6882,545.8593,73,70,40
545.86676,546.0379,71,70,40
546.04535,546.2165,69,70,40
546.22394,546.395,68,70,40
546.40247,546.5736,66,60,40
546.58105,547.2879,65,50,40
547.29535,548.3593,66,50,40
548.36676,549.0736,63,50,40
549.08105,549.7879,64,50,40
549.79535,550.5022,62,50,40
550.50964,551.2165,61,50,40
551.2239,551.9307,64,50,40
551.9382,552.645,64,50,40
552.65247,553.3593,64,50,40
553.36676,554.0736,64,50,40
554.08105,554.7879,64,55,40
554.79535,555.5022,64,61,40
555.50964,556.2165,67,67,40
556.2239,556.9307,67,73,40
556.9382,557.645,67,79,40
557.65247,558.3593,71,85,40
558.36676,559.0736,71,91,40
559.08105,559.82324,71,97,40
559.83105,560.57324,71,110,40
559.83105,560.57324,83,110,40
560.58105,561.3623,71,110,40
560.58105,561.3623,83,110,40
561.37054,561.7785,71,110,40
561.37054,561.7785,83,110,40
561.7872,561.96686,83,125,40
561.9747,562.0954,80,111,40
562.14514,562.26587,76,100,40
562.3156,562.43634,71,100,40
562.486,562.6068,68,100,40
562.6565,562.7772,64,100,40
562.82697,563.8426,59,100,40
563.8497,564.01306,83,125,40
564.02014,564.14087,81,111,40
564.1906,564.31134,78,100,40
564.361,564.4818,71,100,40
564.5315,564.6522,69,100,40
564.70197,564.8227,66,100,40
564.87244,565.88806,59,100,40
566.91785,567.08124,83,125,40
567.0883,567.20905,80,111,40
567.2588,567.3795,76,100,40
567.4292,567.55,71,100,40
567.5997,567.7204,68,100,40
567.77014,567.89087,64,100,40
567.9406,568.95624,59,100,40
568.9633,569.12665,83,125,40
569.1338,569.2545,81,111,40
569.3042,569.425,78,100,40
569.4747,569.5954,71,100,40
569.64514,569.76587,69,100,40
569.8156,569.93634,66,100,40
569.986,570.66077,55,125,40
569.986,570.66077,64,125,40
571.0088,571.1721,77,100,40
571.1792,571.3,74,100,40
571.3497,571.4704,71,100,40
571.52014,571.64087,67,100,40
571.6906,571.81134,65,100,40
571.861,571.9818,62,100,40
572.0315,572.53577,55,120,40
572.0315,572.53577,64,120,40
572.0315,572.53577,72,120,40
573.0542,573.5585,79,120,40
573.0542,573.5585,74,120,40
576.1224,576.7971,60,70,40
577.14514,577.8198,67,70,40
580.2133,580.888,60,50,40
581.236,581.91077,67,50,40
584.3042,584.97894,59,110,40
584.3042,584.97894,68,110,40
585.32697,594.5244,75,110,40
594.5315,598.6153,76,70,40
598.6224,600.66077,74,70,40
600.66785,602.7062,72,70,40
602.7133,604.75165,71,70,40
604.7588,605.7744,72,70,40
605.7815,606.7971,69,70,40
606.8042,607.8198,67,70,40
607.82697,608.8426,66,70,40
608.8497,609.1835,66,50,40
609.19055,609.8653,66,50,40
609.8724,610.5471,66,50,40
610.5542,611.22894,66,50,40
611.236,611.91077,66,50,40
611.91785,612.5926,66,50,40
612.5997,613.2744,66,50,40
613.2815,613.9562,69,50,40
613.9633,614.638,69,57,40
614.64514,615.3198,69,65,40
615.32697,616.00165,72,72,40
616.0087,616.6835,75,80,40
616.69055,617.3653,78,87,40
617.3724,618.0471,81,95,40
618.0542,618.72894,84,102,40
618.736,619.41077,81,110,40
619.41785,620.0926,78,120,40
620.0997,620.77435,75,120,40
620.7815,621.4562,72,120,40
621.4633,622.138,69,120,40
622.14514,622.8198,66,120,40
622.82697,623.50165,63,120,40
623.5087,624.1835,60,120,40
624.19055,624.8653,72,120,40
624.19055,624.8653,63,120,40
624.8724,625.5549,63,120,40
624.8724,625.5549,72,120,40
625.56213,626.269,63,120,40
625.56213,626.269,72,120,40
626.2764,627.03796,63,120,40
626.2764,627.03796,72,120,40
627.04614,627.4658,72,120,40
627.04614,627.4658,63,120,40
627.47473,629.7169,63,120,40
627.47473,629.7169,72,120,40
629.72473,634.3888,63,120,40
629.72473,634.3888,72,120,40
634.41223,634.5919,71,100,40
634.59973,634.7794,70,85,40
634.78723,634.9669,71,70,40
634.97473,635.1544,75,70,40
635.16223,635.3419,78,70,40
635.34973,635.5294,81,70,40
635.53723,635.7169,79,70,40
635.72473,635.9044,78,70,40
635.91223,636.0919,81,70,40
636.09973,636.2794,84,70,40
636.28723,636.4669,75,60,40
636.47473,637.0294,76,50,40
637.03723,637.2169,76,50,40
637.22473,637.4044,79,50,40
637.41223,637.5919,76,50,40
637.59973,638.9044,75,50,40
638.91223,639.0919,76,50,40
639.09973,639.2794,78,50,40
639.28723,639.4669,76,50,40
639.47473,639.6544,79,50,40
639.66223,639.8419,76,50,40
639.84973,640.9669,75,50,40
640.97473,641.1544,76,50,40
641.16223,641.3419,75,50,40
641.34973,641.5294,76,50,40
641.53723,641.7169,78,50,40
641.72473,641.9,79,50,40
641.90765,642.08295,71,50,40
642.0906,642.26587,72,50,40
642.2735,642.4488,74,50,40
642.4564,642.62756,76,50,40
642.635,642.80615,68,50,40
642.8136,642.98474,69,50,40
642.9921,643.16327,71,50,40
643.1707,643.3379,72,50,40
643.34515,643.51227,64,50,40
643.51953,643.6867,65,50,40
643.694,643.86115,67,50,40
643.8684,644.0355,69,50,40
644.0428,644.20996,60,50,40
644.2172,644.3844,62,50,40
644.39166,644.5588,64,50,40
644.56604,644.7332,65,50,40
644.7405,644.90765,67,50,40
644.9149,645.08203,69,50,40
645.08936,645.2565,71,50,40
645.26373,645.4309,72,50,40
645.4382,645.6053,71,50,40
645.6126,645.7797,74,50,40
645.787,645.95416,72,50,40
645.9614,646.12854,71,50,40
646.13586,646.303,69,50,40
646.31024,646.4774,67,50,40
646.4847,646.65186,65,50,40
646.6591,646.82623,64,50,40
646.8335,647.0007,65,50,40
647.00793,647.1751,69,50,40
647.1824,647.5239,72,50,40
647.5312,647.69836,64,51,40
647.7056,647.87274,63,52,40
647.88,648.0472,64,53,40
648.05444,648.2216,67,54,40
648.2289,648.57043,71,55,40
648.5777,648.7449,71,57,40
648.75214,648.91925,70,59,40
648.9265,649.0937,71,60,40
649.10095,649.2681,75,61,40
649.2754,649.61694,78,62,40
649.6242,649.7914,76,64,40
649.79865,649.96576,75,65,40
649.973,650.1402,76,66,40
650.14746,650.31464,79,68,40
650.3219,650.489,83,69,40
650.4963,650.66345,84,70,40
650.6707,650.8379,77,71,40
650.84515,651.01227,76,72,40
651.01953,651.1867,77,73,40
651.194,651.36115,81,74,40
651.3684,651.70996,84,76,40
651.7172,651.8844,76,78,40
651.89166,652.0588,75,79,40
652.06604,652.2332,76,80,40
652.2405,652.40765,79,81,40
652.4149,652.7565,83,82,40
652.76373,652.9309,75,85,40
652.9382,653.1053,73,86,40
653.11255,653.2797,75,87,40
653.287,653.45416,78,88,40
653.4614,653.803,83,89,40
653.81024,653.9774,76,91,40
653.9847,654.1518,75,92,40
654.15906,654.32623,76,94,40
654.3335,654.5007,79,95,40
654.50793,654.67505,83,96,40
654.6824,654.8495,84,97,40
654.85675,655.0239,77,98,40
655.0312,655.1983,76,99,40
655.2056,655.37274,77,100,40
655.38,655.55115,81,102,40
655.5586,655.90826,84,103,40
655.9157,656.08685,83,105,40
656.0943,656.26544,82,106,40
656.2729,656.44403,83,107,40
656.4514,656.62256,88,108,40
656.63,656.80115,91,109,40
656.8086,657.51544,93,110,40
657.5229,657.78326,75,110,40
657.88,658.22974,76,120,40
658.2372,658.58685,71,120,40
658.5943,658.94403,79,120,40
658.9514,660.19403,71,120,40
658.9514,660.19403,83,120,40
660.2014,660.37256,84,120,40
660.38,660.55115,81,120,40
660.5586,660.72974,78,120,40
660.7372,660.90826,75,120,40
660.9157,661.08685,71,120,40
661.0943,661.22076,76,115,40
661.2729,661.444,72,107,40
661.4514,661.62256,69,99,40
661.63,661.80115,66,91,40
661.8086,661.97974,63,83,40
661.9872,662.15826,59,75,40
662.1657,662.33685,64,70,40
662.3443,662.51544,72,70,40
662.5229,662.694,69,70,40
662.7014,662.87256,66,70,40
662.88,663.05115,63,70,40
663.0586,663.22974,59,70,40
663.2372,663.4169,64,70,40
663.4247,663.6044,72,70,40
663.6122,663.7919,69,70,40
663.7997,663.9794,66,70,40
663.9872,664.1763,63,70,40
664.1845,664.38416,59,70,40
664.3929,665.2175,64,70,40
665.6429,666.63245,64,70,40
667.1429,668.63245,55,70,40
667.1429,668.63245,64,70,40
673.3929,673.63245,64,1,40
0.0,0.50426126,67,110,40
0.0,0.50426126,71,110,40
0.0,0.50426126,76,110,40
1.022727,1.5269883,71,110,40
1.022727,1.5269883,78,110,40
4.568181,5.5838056,59,50,40
5.590908,6.656147,57,50,40
6.6639595,7.283751,55,50,40
10.0616865,11.0773115,60,50,40
11.084414,12.1496525,58,50,40
12.157465,12.777257,57,50,40
16.577919,17.641907,72,70,40
17.649347,18.825333,71,70,40
18.833555,19.167362,63,70,40
19.174465,19.508272,57,70,40
19.515373,23.126423,66,70,40
23.134647,24.150272,67,70,40
24.157373,24.49118,69,70,40
24.498283,24.661634,72,70,40
24.668737,24.83209,71,70,40
24.839191,25.002544,66,70,40
25.009647,25.172998,69,70,40
25.180101,25.854816,67,70,40
25.86192,26.195726,67,70,40
26.202827,26.36618,69,70,40
26.373283,26.536634,69,70,40
26.543737,26.707088,72,70,40
26.714191,26.877544,71,70,40
26.884645,27.047998,66,70,40
27.055101,27.218452,69,70,40
27.225555,27.559362,67,70,40
28.077827,28.24118,59,70,40
28.248281,28.411634,60,70,40
28.418737,28.582088,62,70,40
28.589191,28.752542,64,70,40
28.759645,28.922998,56,70,40
28.9301,29.093452,57,70,40
29.100555,29.263906,59,70,40
29.27101,29.604816,60,70,40
33.77925,34.128956,61,76,40
34.136395,34.486095,61,82,40
34.493538,34.84324,59,88,40
34.85068,35.21787,64,94,40
35.22568,35.62264,63,100,40
35.631084,36.15936,63,110,40
36.70251,37.230785,78,110,40
36.70251,37.230785,71,110,40
39.785305,39.948654,64,70,40
39.955757,40.11911,67,70,40
40.126213,40.289566,64,70,40
40.296665,41.482746,63,70,40
41.48985,41.653202,64,70,40
41.6603,41.823654,66,70,40
41.830757,41.99411,64,70,40
42.001213,42.164562,67,70,40
42.171665,42.33502,64,70,40
42.34212,43.357746,63,70,40
43.36485,43.5282,64,70,40
43.5353,43.698654,63,70,40
43.705757,43.86911,64,70,40
43.876213,44.039562,66,70,40
44.046665,44.21002,67,70,40
44.21712,44.380474,59,70,40
44.387573,44.550926,60,70,40
44.55803,44.721382,62,70,40
44.728485,44.891834,64,70,40
44.898937,45.06229,56,70,40
45.069393,45.232746,57,70,40
45.23985,45.4032,59,70,40
45.4103,45.74411,60,70,40
47.455757,47.622906,60,86,40
47.630173,47.797325,62,87,40
47.804592,47.971745,64,88,40
47.97901,48.146164,65,90,40
48.15343,48.326622,67,91,40
48.334152,48.507343,69,92,40
48.514874,48.68807,71,94,40
48.6956,48.86879,72,95,40
48.87632,49.056007,74,96,40
49.06382,49.196632,76,98,40
49.25132,49.384132,77,99,40
49.43882,49.571632,65,100,40
49.62632,49.74706,71,120,40
49.796776,49.917515,59,120,40
49.967228,50.087967,59,120,40
50.137684,50.258423,59,120,40
50.30814,50.42888,59,120,40
50.478592,50.59933,59,120,40
50.649048,50.769787,59,120,40
50.819504,50.94024,59,120,40
50.989956,51.110695,59,120,40
51.16041,51.28115,59,120,40
51.330864,51.451603,59,120,40
51.50132,51.62206,59,120,40
51.671776,53.369217,75,120,40
53.37632,53.43314,63,120,40
53.43314,53.489956,65,120,40
53.489956,53.546776,63,120,40
53.546776,53.632,62,120,40
53.632,53.710125,63,120,40
53.717228,53.837967,60,120,40
53.717228,53.837967,69,120,40
53.887684,54.008423,60,120,40
53.887684,54.008423,69,120,40
54.058136,54.178875,60,120,40
54.058136,54.178875,69,120,40
54.228592,54.34933,60,120,40
54.228592,54.34933,69,120,40
54.399048,54.519787,60,120,40
54.399048,54.519787,69,120,40
54.5695,54.69024,60,120,40
54.5695,54.69024,69,120,40
54.739956,54.860695,60,120,40
54.739956,54.860695,69,120,40
54.91041,55.031147,60,120,40
54.91041,55.031147,69,120,40
55.080864,55.201603,60,120,40
55.080864,55.201603,69,120,40
55.25132,55.37206,60,120,40
55.25132,55.37206,69,120,40
55.421772,55.54251,60,120,40
55.421772,55.54251,69,120,40
55.592228,55.712967,60,120,40
55.592228,55.712967,69,120,40
55.762684,57.460125,70,120,40
57.467228,57.524044,58,120,40
57.524044,57.580864,60,120,40
57.580864,57.637684,58,120,40
57.637684,57.722908,57,120,40
57.722908,57.801033,58,120,40
57.808136,57.928875,55,110,40
57.808136,57.928875,67,110,40
57.978592,58.09933,55,110,40
57.978592,58.09933,67,110,40
58.149044,58.269783,55,110,40
58.149044,58.269783,67,110,40
58.3195,58.44024,55,110,40
58.3195,58.44024,67,110,40
58.489956,58.610695,55,110,40
58.489956,58.610695,67,110,40
58.660408,58.781147,55,110,40
58.660408,58.781147,67,110,40
58.830864,58.951603,55,110,40
58.830864,58.951603,67,110,40
59.00132,59.122055,55,110,40
59.00132,59.122055,67,110,40
59.171772,59.29251,55,110,40
59.171772,59.29251,67,110,40
59.342228,59.462967,55,110,40
59.342228,59.462967,67,110,40
59.51268,59.63342,55,110,40
59.51268,59.63342,67,110,40
59.683136,59.803875,55,110,40
59.683136,59.803875,67,110,40
59.853592,60.528305,66,110,40
60.535408,60.869217,67,110,40
60.876316,61.03967,66,110,40
61.046772,61.210125,57,110,40
61.217228,61.380577,62,110,40
61.38768,61.551033,60,110,40
61.558136,61.72149,58,110,40
61.728592,61.89194,70,110,40
61.899044,62.062397,69,110,40
62.0695,62.232853,70,110,40
62.239952,62.403305,72,110,40
62.410408,62.57376,70,110,40
62.580864,62.744213,69,110,40
62.751316,62.91467,73,110,40
62.921772,63.085125,74,110,40
63.092228,63.255577,79,110,40
63.26268,63.426033,78,110,40
63.433136,63.59649,79,110,40
63.60359,63.76694,78,110,40
63.774044,63.937397,79,110,40
63.9445,64.19308,78,110,40
64.28541,64.53399,69,110,40
64.28541,64.53399,78,110,40
64.62632,64.87489,69,110,40
64.62632,64.87489,78,110,40
64.967224,65.30103,69,110,40
64.967224,65.30103,78,110,40
74.17177,74.33512,66,70,40
74.342224,74.50558,62,70,40
74.51268,74.67603,66,70,40
74.683136,74.84648,62,70,40
74.853584,75.01694,66,70,40
75.02404,75.18739,62,70,40
75.194496,75.35785,66,70,40
75.36495,75.528305,62,70,40
75.53541,75.69875,66,70,40
75.70586,75.86921,62,70,40
75.87631,76.039665,66,70,40
76.04677,76.21012,62,70,40
76.217224,76.38058,67,70,40
76.38768,76.55103,62,70,40
76.55813,76.72148,67,70,40
76.728584,76.89194,62,70,40
76.89904,77.06239,67,70,40
77.069496,77.23285,62,70,40
77.23995,77.403305,67,70,40
77.41041,77.57375,64,70,40
77.58086,77.74421,67,70,40
77.75131,77.914665,64,70,40
77.92177,78.08512,67,70,40
78.092224,78.25558,64,70,40
78.26268,78.426025,66,70,40
78.43313,78.59648,69,70,40
78.603584,78.76694,62,70,40
78.77404,78.93739,66,70,40
78.944496,79.10785,69,70,40
79.11495,79.278305,66,70,40
79.2854,79.44875,67,70,40
79.45586,79.61921,66,70,40
79.62631,79.789665,67,70,40
79.79677,79.96012,69,70,40
79.967224,80.13058,71,70,40
80.13768,80.301025,72,70,40
80.30813,80.98285,74,70,40
80.98995,81.32375,79,70,40
81.33086,82.00558,78,70,40
82.01267,82.0722,76,70,40
82.0722,82.13172,78,70,40
82.13172,82.191246,76,70,40
82.191246,82.25077,78,70,40
82.25077,82.310295,76,70,40
82.310295,82.36238,78,70,40
82.36982,83.84562,75,70,40
83.853836,84.261826,74,94,40
84.27051,84.71558,74,100,40
84.72505,85.07475,74,70,40
85.08219,85.25333,79,70,40
85.260765,85.43189,78,70,40
85.43934,85.610466,76,70,40
85.617905,85.78904,75,70,40
85.79648,86.32475,76,70,40
86.33219,86.50333,74,70,40
86.510765,86.68189,72,70,40
86.68934,86.860466,71,70,40
86.867905,88.28903,69,70,40
88.29648,88.64618,66,70,40
88.65362,88.82475,67,70,40
88.83219,89.00332,69,70,40
89.01076,89.18189,71,70,40
89.18933,89.360466,74,70,40
89.367905,89.53903,79,70,40
89.54648,89.717606,78,70,40
89.725044,89.89618,76,70,40
89.90362,90.074745,75,70,40
90.08219,90.25332,76,70,40
90.26076,90.43189,77,70,40
90.43933,90.61046,76,70,40
90.617905,90.78903,74,70,40
90.79647,90.967606,72,70,40
90.975044,91.14618,71,70,40
91.15362,91.324745,69,70,40
91.332184,91.50332,71,70,40
91.51076,91.68189,72,70,40
91.68933,91.86046,71,70,40
91.867905,92.03903,69,70,40
92.04647,92.217606,67,70,40
92.225044,92.39617,66,70,40
92.40362,92.574745,66,70,40
92.582184,92.75332,64,70,40
92.76076,92.931885,66,70,40
92.93933,93.11046,67,70,40
93.1179,93.28903,69,70,40
93.29647,94.36046,62,70,40
94.3679,95.78903,67,70,40
95.79647,96.14617,62,76,40
96.15361,96.5208,62,83,40
96.52861,96.8958,62,90,40
96.90361,97.19144,67,97,40
97.29835,97.602165,66,104,40
97.71501,98.2989,60,120,40
98.30712,98.44692,62,100,40
98.504486,98.630974,63,100,40
98.68306,98.803795,62,100,40
98.853516,99.35777,60,120,40
99.364876,99.48562,62,100,40
99.53533,99.65607,63,100,40
99.70579,99.82652,63,100,40
99.87624,100.3805,64,120,40
100.3876,100.50834,62,100,40
100.55806,100.678795,61,100,40
100.728516,100.84925,62,100,40
100.898964,101.40323,64,120,40
101.41033,101.53107,62,100,40
101.58079,101.7136,61,100,40
101.76829,101.915855,61,100,40
101.976616,102.683464,60,100,40
102.6909,103.0406,69,100,40
103.04804,103.39775,67,100,40
103.40519,103.75489,66,100,40
103.76233,104.11203,62,100,40
104.11948,104.46918,60,100,40
104.476616,104.82632,59,100,40
104.833755,105.183464,57,100,40
105.1909,105.93309,59,100,40
105.9409,106.348885,57,100,40
106.35757,106.88584,66,120,40
106.89328,107.01977,66,100,40
107.07185,107.19834,66,100,40
107.25043,107.376915,66,100,40
107.42899,107.95727,66,120,40
107.96471,108.091194,66,100,40
108.14328,108.26977,64,100,40
108.32185,108.44834,76,100,40
108.50042,109.028694,76,120,40
109.03613,109.16262,76,100,40
109.21471,109.341194,74,100,40
109.39328,109.51977,74,100,40
109.571846,110.10868,74,120,40
110.11649,110.249306,74,100,40
110.30399,110.44198,72,100,40
110.498795,110.64238,79,100,40
110.498795,110.64238,70,100,40
110.7015,111.0512,79,105,40
110.7015,111.0512,71,105,40
111.05864,112.836914,62,93,40
112.84435,113.90834,62,70,40
113.91578,114.62263,61,70,40
114.630066,114.97977,60,70,40
114.98721,115.69405,59,70,40
116.41578,116.76548,59,70,40
116.77292,117.83691,65,70,40
117.84435,118.90834,64,50,40
118.91578,119.62262,63,50,40
119.630066,120.33691,62,50,40
120.344345,121.05119,62,50,40
121.05863,121.76548,60,50,40
121.77292,122.47976,64,50,40
122.487206,123.194046,64,50,40
123.201485,123.90833,61,50,40
123.91577,124.62262,60,50,40
124.63006,125.3369,61,55,40
125.344345,126.051186,61,61,40
126.058624,126.76547,67,67,40
126.77291,127.47976,67,73,40
127.4872,128.19405,67,79,40
128.20148,128.90833,67,85,40
128.20148,128.90833,71,85,40
128.91577,129.6226,67,91,40
128.91577,129.6226,71,91,40
129.63005,130.37224,67,97,40
129.63005,130.37224,71,97,40
130.38005,131.12224,72,110,40
130.38005,131.12224,78,110,40
131.13005,131.9113,72,110,40
131.13005,131.9113,78,110,40
131.91953,132.33917,72,110,40
131.91953,132.33917,78,110,40
136.28558,136.44183,59,125,40
136.44864,136.60489,62,115,40
136.61168,136.76793,59,110,40
136.77472,136.93097,62,110,40
136.93776,137.09401,59,110,40
137.10081,137.25705,62,110,40
137.26385,137.4201,59,110,40
137.4269,137.58315,62,110,40
137.58994,137.74619,59,110,40
137.75298,137.90923,62,110,40
137.91603,138.07228,59,110,40
138.07907,138.23532,62,110,40
138.24211,138.39836,60,125,40
138.40515,138.5614,62,115,40
138.56819,138.72444,60,110,40
138.73125,138.8875,62,110,40
138.89429,139.05054,60,110,40
139.05733,139.21358,62,110,40
139.22037,139.37662,60,110,40
139.3834,139.53966,62,110,40
139.54646,139.70271,60,110,40
139.7095,139.86575,62,110,40
139.87254,140.0288,60,110,40
140.03558,140.19183,62,110,40
140.19862,140.35487,59,110,40
140.36168,140.51793,62,110,40
140.52472,140.68097,59,110,40
140.68776,140.84401,62,110,40
140.8508,141.00705,59,110,40
141.01384,141.17009,62,110,40
141.1769,141.33315,59,110,40
141.33994,141.49619,63,110,40
141.50298,141.65923,59,110,40
141.66602,141.82227,63,110,40
141.82906,141.9853,59,110,40
141.99211,142.14836,63,110,40
142.15515,142.65941,55,110,40
142.15515,142.65941,64,110,40
143.17787,143.68213,59,110,40
143.17787,143.68213,66,110,40
143.17787,143.68213,71,110,40
146.72333,147.73895,59,50,40
147.74606,148.8113,57,50,40
148.8191,149.4389,55,50,40
152.21683,153.23245,60,50,40
153.23956,154.3048,58,50,40
154.3126,154.9324,57,50,40
158.73306,159.79706,72,70,40
159.80449,160.92168,71,70,40
160.92949,161.2633,63,70,40
161.2704,161.60422,57,70,40
161.61131,165.22237,66,70,40
165.23059,166.24622,67,70,40
166.25331,166.58711,69,70,40
166.59422,166.75757,72,70,40
166.76468,166.92802,71,70,40
166.93513,167.09848,66,70,40
167.10559,167.26894,69,70,40
167.27605,167.95076,67,70,40
167.95786,168.29167,67,70,40
168.29877,168.46211,69,70,40
168.46922,168.63257,69,70,40
168.63968,168.80302,72,70,40
168.81013,168.97348,71,70,40
168.98059,169.14394,66,70,40
169.15103,169.31439,69,70,40
169.32149,169.6553,67,70,40
170.17377,170.33711,59,70,40
170.34422,170.50757,60,70,40
170.51468,170.67802,62,70,40
170.68513,170.84848,64,70,40
170.85559,171.01894,56,70,40
171.02603,171.18939,57,70,40
171.19649,171.35985,59,70,40
171.36694,171.70076,60,70,40
175.83124,176.18094,61,76,40
176.18837,176.53807,61,82,40
176.54552,176.89522,59,88,40
176.90266,177.26985,64,94,40
177.27766,177.66417,63,100,40
177.6724,178.20067,63,110,40
178.74382,179.2721,78,110,40
178.74382,179.2721,71,110,40
181.82661,181.98996,64,70,40
181.99707,182.16042,67,70,40
182.16753,182.33087,64,70,40
182.33798,183.52406,63,70,40
183.53116,183.6945,64,70,40
183.70161,183.86496,66,70,40
183.87207,184.03542,64,70,40
184.04253,184.20587,67,70,40
184.21298,184.37633,64,70,40
184.38344,185.39906,63,70,40
185.40616,185.5695,64,70,40
185.57661,185.73996,63,70,40
185.74707,185.91042,64,70,40
185.91753,186.08087,66,70,40
186.08798,186.25133,67,70,40
186.25844,186.42178,59,70,40
186.42888,186.59224,60,70,40
186.59933,186.7627,62,70,40
186.76979,186.92952,64,70,40
186.93646,187.09618,56,70,40
187.10313,187.26285,57,70,40
187.26979,187.42952,59,70,40
187.43646,187.75575,60,70,40
189.39297,189.54922,60,86,40
189.55603,189.71227,62,87,40
189.71907,189.87532,64,88,40
189.88211,190.03836,65,90,40
190.04515,190.2014,67,91,40
190.20819,190.36444,69,92,40
190.37125,190.5275,71,94,40
190.53429,190.69054,72,95,40
190.69733,190.86067,74,96,40
190.86778,190.98853,76,98,40
191.03824,191.16472,77,99,40
191.21681,191.34962,65,100,40
191.40431,191.52504,71,120,40
191.57475,191.6955,59,120,40
191.74521,191.86595,59,120,40
191.91566,192.0364,59,120,40
192.08612,192.20686,59,120,40
192.25658,192.37732,59,120,40
192.42703,192.54778,59,120,40
192.59749,192.71823,59,120,40
192.76794,192.88869,59,120,40
192.9384,193.05913,59,120,40
193.10886,193.22958,59,120,40
193.27931,193.40004,59,120,40
193.44975,195.1472,75,120,40
195.15431,195.21112,63,120,40
195.21112,195.26794,65,120,40
195.26794,195.32475,63,120,40
195.32475,195.40999,62,120,40
195.40999,195.48811,63,120,40
195.49521,195.61595,60,120,40
195.49521,195.61595,69,120,40
195.66566,195.7864,60,120,40
195.66566,195.7864,69,120,40
195.83612,195.95686,60,120,40
195.83612,195.95686,69,120,40
196.00658,196.12732,60,120,40
196.00658,196.12732,69,120,40
196.17703,196.29778,60,120,40
196.17703,196.29778,69,120,40
196.34749,196.46823,60,120,40
196.34749,196.46823,69,120,40
196.51794,196.63867,60,120,40
196.51794,196.63867,69,120,40
196.6884,196.80913,60,120,40
196.6884,196.80913,69,120,40
196.85886,196.97958,60,120,40
196.85886,196.97958,69,120,40
197.0293,197.15004,60,120,40
197.0293,197.15004,69,120,40
197.19975,197.3205,60,120,40
197.19975,197.3205,69,120,40
197.37021,197.49095,60,120,40
197.37021,197.49095,69,120,40
197.54066,199.23811,70,120,40
199.24521,199.30203,58,120,40
199.30203,199.35886,60,120,40
199.35886,199.41566,58,120,40
199.41566,199.5009,57,120,40
199.5009,199.57903,58,120,40
199.58612,199.70686,55,110,40
199.58612,199.70686,67,110,40
199.75658,199.87732,55,110,40
199.75658,199.87732,67,110,40
199.92703,200.04778,55,110,40
199.92703,200.04778,67,110,40
200.09749,200.21823,55,110,40
200.09749,200.21823,67,110,40
200.26794,200.38867,55,110,40
200.26794,200.38867,67,110,40
200.4384,200.55913,55,110,40
200.4384,200.55913,67,110,40
200.60886,200.72958,55,110,40
200.60886,200.72958,67,110,40
200.7793,200.90004,55,110,40
200.7793,200.90004,67,110,40
200.94975,201.0705,55,110,40
200.94975,201.0705,67,110,40
201.12021,201.24095,55,110,40
201.12021,201.24095,67,110,40
201.29066,201.4114,55,110,40
201.29066,201.4114,67,110,40
201.46112,201.58186,55,110,40
201.46112,201.58186,67,110,40
201.63158,202.30629,66,110,40
202.3134,202.6472,67,110,40
202.6543,202.81766,66,110,40
202.82475,202.98811,57,110,40
202.99521,203.15857,62,110,40
203.16566,203.32903,60,110,40
203.33612,203.49947,58,110,40
203.50658,203.66992,70,110,40
203.67703,203.84038,69,110,40
203.84749,204.01083,70,110,40
204.01794,204.18129,72,110,40
204.1884,204.35175,70,110,40
204.35884,204.5222,69,110,40
204.5293,204.69266,73,110,40
204.69975,204.86311,74,110,40
204.87021,205.03357,79,110,40
205.04066,205.20403,78,110,40
205.21112,205.37447,79,110,40
205.38158,205.54492,78,110,40
205.55203,205.71538,79,110,40
205.72249,205.97107,78,110,40
206.0634,206.31197,69,110,40
206.0634,206.31197,78,110,40
206.4043,206.65288,69,110,40
206.4043,206.65288,78,110,40
206.74521,207.07901,69,110,40
206.74521,207.07901,78,110,40
215.94975,216.11311,66,70,40
216.12021,216.28355,62,70,40
216.29066,216.45401,66,70,40
216.46112,216.62447,62,70,40
216.63158,216.79492,66,70,40
216.80203,216.96538,62,70,40
216.97247,217.13583,66,70,40
217.14293,217.30629,62,70,40
217.31339,217.47675,66,70,40
217.48384,217.6472,62,70,40
217.6543,217.81766,66,70,40
217.82475,217.9881,62,70,40
217.99521,218.15855,67,70,40
218.16566,218.32901,62,70,40
218.33612,218.49947,67,70,40
218.50658,218.66992,62,70,40
218.67703,218.84038,67,70,40
218.84747,219.01083,62,70,40
219.01793,219.18129,67,70,40
219.18839,219.35175,64,70,40
219.35884,219.5222,67,70,40
219.5293,219.69266,64,70,40
219.69975,219.8631,67,70,40
219.87021,220.03355,64,70,40
220.04066,220.20401,66,70,40
220.21112,220.37447,69,70,40
220.38158,220.54492,62,70,40
220.55203,220.71538,66,70,40
220.72247,220.88583,69,70,40
220.89293,221.05629,66,70,40
221.06339,221.22675,67,70,40
221.23384,221.3972,66,70,40
221.4043,221.56766,67,70,40
221.57475,221.7381,69,70,40
221.74521,221.90855,71,70,40
221.91566,222.07901,72,70,40
222.08612,222.76083,74,70,40
222.76793,223.10175,79,70,40
223.10884,223.78355,78,70,40
223.79066,223.84747,76,70,40
223.84747,223.9043,78,70,40
223.9043,223.96112,76,70,40
223.96112,224.01793,78,70,40
224.01793,224.07475,76,70,40
224.07475,224.12447,78,70,40
224.13158,225.52023,75,70,40
225.52768,225.89487,74,94,40
225.90268,226.31065,74,100,40
226.31934,226.66904,74,70,40
226.67648,226.84761,79,70,40
226.85506,227.02618,78,70,40
227.03363,227.20476,76,70,40
227.21219,227.38333,75,70,40
227.39076,227.91904,76,70,40
227.92648,228.09761,74,70,40
228.10506,228.27618,72,70,40
228.28363,228.45476,71,70,40
228.46219,229.88333,69,70,40
229.89076,230.24046,66,70,40
230.24791,230.41904,67,70,40
230.42648,230.59761,69,70,40
230.60506,230.77618,71,70,40
230.78362,230.95476,74,70,40
230.96219,231.13332,79,70,40
231.14076,231.31189,78,70,40
231.31934,231.49046,76,70,40
231.49791,231.66904,75,70,40
231.67648,231.84761,76,70,40
231.85504,232.02618,77,70,40
232.03362,232.20474,76,70,40
232.21219,232.38332,74,70,40
232.39076,232.56189,72,70,40
232.56934,232.74046,71,70,40
232.74791,232.91904,69,70,40
232.92647,233.09761,71,70,40
233.10504,233.27618,72,70,40
233.28362,233.45474,71,70,40
233.46219,233.63332,69,70,40
233.64076,233.81189,67,70,40
233.81934,233.99046,66,70,40
233.99791,234.16904,66,70,40
234.17647,234.35616,64,70,40
234.36397,234.54366,66,70,40
234.55147,234.74062,67,70,40
234.74884,234.93799,69,70,40
234.94621,236.0102,62,70,40
236.01764,237.43877,67,70,40
237.44621,237.79591,62,76,40
237.80334,238.17053,62,83,40
238.17834,238.54553,62,90,40
238.55334,238.84119,67,97,40
238.94809,239.2519,66,104,40
239.36476,239.91945,60,120,40
239.92726,240.04799,62,100,40
240.0977,240.21844,63,100,40
240.26816,240.3889,62,100,40
240.43861,240.94287,60,120,40
240.94998,241.07072,62,100,40
241.12044,241.24118,63,100,40
241.2909,241.41162,63,100,40
241.46135,241.9656,64,120,40
241.9727,242.09344,62,100,40
242.14316,242.2639,61,100,40
242.31361,242.43436,62,100,40
242.48407,242.98833,64,120,40
242.99544,243.11618,62,100,40
243.1659,243.29237,61,100,40
243.34447,243.47728,61,100,40
243.53197,244.2388,60,100,40
244.24625,244.59595,69,100,40
244.6034,244.9531,67,100,40
244.96053,245.31023,66,100,40
245.31767,245.66737,62,100,40
245.67482,246.02452,60,100,40
246.03195,246.38165,59,100,40
246.3891,246.7388,57,100,40
246.74625,247.48843,59,100,40
247.49625,247.90424,57,100,40
247.9129,248.46759,66,120,40
248.4754,248.59615,66,100,40
248.64586,248.7666,66,100,40
248.81631,248.93706,66,100,40
248.98677,249.49103,66,120,40
249.49814,249.61888,66,100,40
249.6686,249.78934,64,100,40
249.83905,249.95978,76,100,40
250.0095,250.51376,76,120,40
250.52086,250.6416,76,100,40
250.69131,250.81781,74,100,40
250.86989,250.99638,74,100,40
251.04846,251.57674,74,120,40
251.58417,251.71066,74,100,40
251.76274,251.89555,72,100,40
251.95024,252.09383,79,100,40
251.95024,252.09383,70,100,40
252.15295,252.50266,79,105,40
252.15295,252.50266,71,105,40
252.51009,254.28836,62,93,40
254.2958,255.35979,62,70,40
255.36723,256.07407,61,70,40
256.0815,256.4312,60,70,40
256.43866,257.1455,59,70,40
257.86722,258.21692,59,70,40
258.22437,259.28836,65,70,40
259.2958,260.35977,64,50,40
260.36722,261.07407,63,50,40
261.0815,261.78836,62,50,40
261.7958,262.50266,62,50,40
262.51007,263.21692,60,50,40
263.22437,263.9312,64,50,40
263.93866,264.6455,64,50,40
264.65292,265.35977,61,50,40
265.36722,266.07407,60,50,40
266.0815,266.78836,61,55,40
266.79578,267.50262,61,61,40
267.51007,268.21692,67,67,40
268.22437,268.9312,67,73,40
268.93866,269.64548,67,79,40
269.65292,270.35977,67,85,40
269.65292,270.35977,71,85,40
270.36722,271.07407,67,91,40
270.36722,271.07407,71,91,40
271.0815,271.8237,67,97,40
271.0815,271.8237,71,97,40
271.8315,272.5737,72,110,40
271.8315,272.5737,78,110,40
272.5815,273.36276,72,110,40
272.5815,273.36276,78,110,40
273.37097,273.79062,72,110,40
273.37097,273.79062,78,110,40
277.89856,278.06192,59,125,40
278.06903,278.23236,62,115,40
278.23947,278.40283,59,110,40
278.40994,278.57327,62,110,40
278.58038,278.74374,59,110,40
278.75085,278.91418,62,110,40
278.9213,279.08466,59,110,40
279.09174,279.2551,62,110,40
279.2622,279.42557,59,110,40
279.43265,279.596,62,110,40
279.60312,279.76648,59,110,40
279.77356,279.93692,62,110,40
279.94403,280.10736,60,125,40
280.11447,280.27783,62,115,40
280.28494,280.44827,60,110,40
280.45538,280.61874,62,110,40
280.62585,280.78918,60,110,40
280.7963,280.95966,62,110,40
280.96674,281.1301,60,110,40
281.1372,281.30057,62,110,40
281.30765,281.471,60,110,40
281.47812,281.64148,62,110,40
281.64856,281.81192,60,110,40
281.81903,281.98236,62,110,40
281.98947,282.15283,58,110,40
282.15994,282.32327,62,110,40
282.33038,282.49374,58,110,40
282.50085,282.66418,62,110,40
282.6713,282.83466,58,110,40
282.84174,283.0051,62,110,40
283.0122,283.17557,58,110,40
283.18265,283.346,62,110,40
283.35312,283.51648,58,110,40
283.52356,283.68692,62,110,40
283.69403,283.85736,58,110,40
283.86447,284.02783,62,110,40
284.03494,284.53918,55,120,40
284.03494,284.53918,63,120,40
285.05765,285.56192,58,120,40
285.05765,285.56192,65,120,40
288.12585,288.6301,58,70,40
289.14856,289.65283,58,70,40
292.21674,292.721,58,50,40
293.23947,293.74374,64,50,40
296.30765,296.81192,62,120,40
297.33038,297.83466,61,120,40
297.33038,297.83466,66,120,40
302.10312,302.43692,62,50,40
302.44403,303.1346,61,50,40
303.14206,303.52924,64,50,40
303.5379,304.24832,62,50,40
308.0591,308.3929,63,50,40
308.40002,309.09064,62,50,40
309.09808,309.48523,65,50,40
310.51663,313.5777,56,50,40
313.5848,317.6686,55,50,40
317.67572,319.71408,56,50,40
309.4939,319.71408,63,50,40
319.7212,320.055,60,50,40
320.06207,320.3959,56,50,40
320.40298,321.0777,63,50,40
321.0848,321.4186,60,50,40
321.42572,321.75952,66,50,40
321.76663,322.10043,63,50,40
322.10754,322.44135,60,50,40
322.44846,322.78226,65,50,40
322.78937,323.12317,61,50,40
323.13028,323.46408,58,50,40
323.4712,323.805,65,50,40
323.81207,324.4868,66,50,40
324.4939,324.8277,65,50,40
324.8348,325.1686,61,50,40
325.17572,325.50952,58,50,40
325.51663,325.85043,65,50,40
325.85754,326.58188,66,50,40
326.5897,326.9867,65,50,40
327.3704,328.0608,70,50,40
328.06805,328.75845,70,50,40
328.76572,329.45615,70,50,40
329.4634,330.1538,70,50,40
330.16107,330.85147,70,50,40
330.85876,331.54916,70,50,40
331.55643,332.24683,70,52,40
332.2541,332.94452,70,58,40
332.95178,333.64218,70,64,40
333.64944,334.33984,70,69,40
334.34714,335.03754,70,75,40
335.0448,335.7352,70,81,40
335.74246,336.4329,70,86,40
336.44016,337.13055,70,92,40
337.13782,337.84467,70,98,40
337.8521,338.55896,79,110,40
338.56638,339.30856,79,110,40
339.31638,339.73602,78,110,40
339.74496,340.09467,78,70,40
340.1021,340.40808,59,70,40
340.4146,340.72058,66,70,40
340.7271,341.34558,67,70,40
341.3521,341.65808,66,70,40
341.6646,341.97058,62,70,40
341.9771,342.28308,59,70,40
342.2896,342.59558,66,70,40
342.6021,343.2484,67,70,40
343.25552,343.64267,66,70,40
343.65134,343.98514,66,50,40
343.99225,344.66696,71,50,40
344.67407,345.3488,71,50,40
345.3559,346.0306,71,50,40
346.03772,346.71243,71,50,40
346.7195,347.39426,71,50,40
347.40134,347.73514,71,50,40
347.74225,348.07605,72,50,40
348.08316,348.75787,72,52,40
348.76498,349.4397,72,57,40
349.4468,350.12152,72,62,40
350.1286,350.80334,72,67,40
350.81042,351.48514,72,72,40
351.49225,351.82605,72,77,40
351.83316,352.16696,71,80,40
352.17407,352.8488,71,83,40
352.8559,353.5306,71,88,40
353.53772,354.21243,71,93,40
353.8786,354.21243,67,95,40
354.2195,354.89423,67,98,40
354.2195,354.89423,71,98,40
354.90134,355.57605,67,103,40
354.90134,355.57605,71,103,40
355.58316,355.91696,71,108,40
355.58316,356.25787,67,108,40
355.92407,356.25787,74,110,40
356.26498,356.9397,67,110,40
356.26498,356.9397,74,110,40
356.9468,357.62152,67,110,40
356.9468,357.62152,74,110,40
357.6286,357.9783,67,110,40
357.6286,357.9783,74,110,40
357.98575,358.33545,59,110,40
358.3429,359.04974,77,110,40
359.0572,359.79938,77,110,40
359.8072,360.21518,77,110,40
360.22385,360.40353,76,120,40
360.41135,360.5747,74,120,40
360.58182,360.73807,76,120,40
360.74484,360.9011,79,120,40
360.9079,361.06415,77,120,40
361.07092,361.22717,76,120,40
361.23398,361.39023,74,120,40
361.39703,361.55328,76,120,40
361.56006,361.7163,74,120,40
361.7231,361.87936,72,120,40
361.88614,362.0424,71,120,40
362.0492,362.20544,72,120,40
362.21225,362.3685,71,120,40
362.37527,362.53152,69,120,40
362.53833,362.69458,67,120,40
362.70135,362.8576,69,120,40
362.8644,363.02066,67,120,40
363.02747,363.18372,65,120,40
363.1905,363.34674,64,120,40
363.35355,363.5098,65,120,40
363.51657,363.67282,64,120,40
363.67963,363.83588,62,120,40
363.84268,363.99893,60,120,40
364.0057,364.16196,62,120,40
364.16876,364.6511,60,120,40
365.147,365.62936,67,120,40
368.0818,368.23804,72,120,40
368.24484,368.4011,71,120,40
368.40787,368.56412,72,120,40
368.57092,368.72717,76,120,40
368.73398,368.89023,74,120,40
368.897,369.05325,72,120,40
369.06006,369.2163,71,120,40
369.22308,369.37933,72,120,40
369.38614,369.5424,71,120,40
369.5492,369.70544,69,120,40
369.71222,369.86847,68,120,40
369.87527,370.03152,69,120,40
370.0383,370.19455,67,120,40
370.20135,370.3576,65,120,40
370.3644,370.52066,64,120,40
370.52744,370.6837,65,120,40
370.6905,370.84674,64,120,40
370.85352,371.00977,62,120,40
371.01657,371.17282,60,120,40
371.17963,371.33588,62,120,40
371.34265,371.4989,60,120,40
371.5057,371.66196,59,120,40
371.66873,371.82498,57,120,40
371.8318,371.98804,59,120,40
371.99484,372.47717,57,120,40
372.97308,373.4554,64,120,40
376.6445,376.9783,64,50,40
376.9854,377.48965,65,50,40
377.49677,377.66013,59,50,40
377.66724,377.83057,62,50,40
377.83768,378.00104,60,50,40
378.00812,378.68286,60,50,40
378.68994,379.02374,64,50,40
379.03085,379.53513,65,50,40
379.54224,379.70557,59,50,40
379.71268,379.87604,62,50,40
379.88312,380.04648,60,50,40
380.0536,380.7283,60,50,40
381.07632,381.41013,62,50,40
386.53085,386.86465,66,60,40
386.87177,387.20557,66,60,40
387.21268,387.54648,64,60,40
387.5536,387.9033,69,60,40
387.91074,388.29724,68,60,40
388.30545,389.0123,69,60,40
389.01974,389.36945,66,60,40
389.3769,390.08374,65,60,40
390.0912,390.4409,64,60,40
390.4483,391.15515,64,60,40
391.1626,391.5123,66,60,40
391.51974,392.2266,65,60,40
392.23404,392.58374,64,60,40
392.5912,393.298,64,60,40
395.50015,395.6564,65,60,40
395.6632,395.81946,67,60,40
395.82626,395.9825,69,60,40
395.9893,396.14554,70,60,40
396.15234,396.3086,65,60,40
396.31537,396.47162,67,60,40
396.47842,396.63467,69,60,40
396.64148,396.79773,70,60,40
396.8045,396.96075,65,61,40
396.96756,397.1238,67,63,40
397.13058,397.28683,69,65,40
397.29364,397.4499,70,67,40
397.4567,397.61295,65,68,40
397.61972,397.77597,67,70,40
397.78278,397.93903,69,72,40
397.9458,398.10205,70,74,40
398.10886,398.2651,65,76,40
398.2719,398.42816,67,77,40
398.43494,398.5912,69,79,40
398.598,398.75424,70,81,40
398.76102,398.91727,65,83,40
398.92407,399.08032,67,84,40
399.08713,399.24338,69,86,40
399.25015,399.4064,70,88,40
399.4132,399.56946,65,90,40
399.57623,399.73248,67,92,40
399.7393,399.89554,69,93,40
399.90234,400.0586,70,95,40
400.06537,400.22162,65,97,40
400.22842,400.38467,67,99,40
400.39145,400.5477,69,100,40
400.5545,400.66998,70,110,40
400.71756,400.83304,62,110,40
400.88058,400.9961,62,110,40
401.04364,401.15912,62,110,40
401.20667,401.32217,62,110,40
401.36972,401.4852,62,110,40
401.53278,401.64825,62,110,40
401.6958,401.8113,62,110,40
401.85886,401.97433,62,110,40
402.02188,402.1374,62,110,40
402.18494,402.3004,62,110,40
402.348,402.46347,62,110,40
402.51102,404.12106,77,127,40
404.14145,404.1958,66,110,40
404.1958,404.25015,67,110,40
404.25015,404.3045,66,110,40
404.3045,404.38602,64,110,40
404.38602,404.46075,66,110,40
404.46756,404.58304,64,110,40
404.63058,404.74606,64,110,40
404.79364,404.90912,64,110,40
404.95667,405.07217,64,110,40
405.11972,405.2352,64,110,40
405.28278,405.39825,64,110,40
405.4458,405.56128,64,110,40
405.60886,405.72433,64,110,40
405.77188,405.8874,64,110,40
405.93494,406.0504,64,110,40
406.098,406.21347,64,110,40
406.26102,406.3765,64,110,40
406.42407,408.03412,79,127,40
408.0545,408.10886,67,110,40
408.10886,408.16318,69,110,40
408.16318,408.21753,67,110,40
408.21753,408.29907,65,110,40
408.29907,408.37378,67,110,40
408.38058,408.49606,65,110,40
408.54364,408.65912,65,110,40
408.70667,408.82214,65,110,40
408.86972,408.9852,65,110,40
409.03275,409.14825,65,110,40
409.1958,409.31128,65,110,40
409.35886,409.47433,65,110,40
409.52188,409.63736,65,110,40
409.68494,409.8004,65,110,40
409.84796,409.96347,65,110,40
410.01102,410.1265,65,110,40
410.17407,410.28955,65,110,40
410.3371,411.94714,81,127,40
411.96753,412.02188,69,110,40
412.02188,412.07623,71,110,40
412.07623,412.13058,69,110,40
412.13058,412.2121,67,110,40
412.2121,412.28683,69,110,40
412.2936,412.6129,67,120,40
412.61972,413.91727,76,120,40
413.92404,413.9784,74,120,40
413.9784,414.03275,76,120,40
414.03275,414.0871,74,120,40
414.0871,414.1686,72,120,40
414.1686,414.25015,74,120,40
414.25015,414.56943,72,120,40
414.9023,414.95667,71,120,40
414.95667,415.01102,72,120,40
415.01102,415.06537,71,120,40
415.06537,415.14688,69,120,40
415.14688,415.2284,71,120,40
415.2284,415.5477,69,120,40
415.88058,415.9349,67,120,40
415.9349,415.98926,69,120,40
415.98926,416.0436,67,120,40
416.0436,416.12512,66,120,40
416.12512,416.20667,67,120,40
416.20667,417.8303,66,120,40
417.8371,417.89145,64,120,40
417.89145,417.9458,66,120,40
417.9458,418.00012,64,120,40
418.00012,418.08167,63,120,40
418.08167,418.16318,64,120,40
418.16318,418.48248,63,120,40
418.81534,418.8697,63,120,40
418.8697,418.92404,64,120,40
418.92404,418.9784,63,120,40
418.9784,419.0599,61,120,40
419.0599,419.14145,63,120,40
419.14145,419.46072,64,120,40
419.7936,419.84796,58,120,40
419.84796,419.9023,59,120,40
419.9023,419.95667,58,120,40
419.95667,420.03818,57,120,40
420.03818,420.1197,58,120,40
420.1197,420.439,59,120,40
420.77188,420.8262,71,120,40
420.8262,420.88055,72,120,40
420.88055,420.9349,71,120,40
420.9349,421.01645,69,120,40
421.01645,421.09796,71,120,40
421.09796,421.41724,72,120,40
421.75012,421.80447,66,120,40
421.80447,421.85883,67,120,40
421.85883,421.91318,66,120,40
421.91318,421.9947,64,120,40
421.9947,422.0762,66,120,40
422.0762,422.3955,67,120,40
422.7284,422.78275,67,120,40
422.78275,422.8371,69,120,40
422.8371,422.89142,67,120,40
422.89142,422.97296,66,120,40
422.97296,423.05447,67,120,40
423.05447,423.37378,69,120,40
423.7377,423.79724,63,120,40
423.79724,423.85675,64,120,40
423.85675,423.9163,63,120,40
423.9163,424.00555,61,120,40
424.00555,424.09485,63,120,40
424.09485,424.44455,64,120,40
426.2223,426.38562,66,70,40
426.39273,426.5561,69,70,40
426.5632,426.72653,67,70,40
426.73364,426.897,66,70,40
426.90408,427.06744,64,70,40
427.07455,427.2379,66,70,40
427.245,427.40836,78,70,40
427.41547,427.57883,81,70,40
427.5859,427.74927,79,70,40
427.75638,427.9197,78,70,40
427.92682,428.09018,76,80,40
428.0973,428.26062,75,100,40
428.26773,428.772,64,120,40
428.26773,428.772,71,120,40
428.26773,428.772,76,120,40
429.29047,429.7947,66,120,40
429.29047,429.7947,71,120,40
433.4525,434.46814,59,50,40
434.47525,435.5405,57,50,40
435.5483,436.19034,55,50,40
439.12784,440.14346,60,50,40
440.15057,441.1821,58,50,40
441.18954,441.8964,57,50,40
444.33298,444.6668,66,50,40
444.6739,445.0077,63,50,40
445.0148,448.56705,69,70,40
449.5976,451.6843,72,70,40
451.69174,452.86774,71,70,40
452.87595,453.5507,71,70,40
453.55777,453.89157,67,70,40
453.89868,454.23248,69,70,40
454.2396,454.40295,72,70,40
454.41006,454.5734,71,70,40
454.5805,454.74387,66,70,40
454.75095,454.9143,69,70,40
454.92142,455.59613,67,70,40
455.60324,455.93704,67,70,40
455.94415,456.10748,69,70,40
456.1146,456.27795,69,70,40
456.28506,456.4484,72,70,40
456.4555,456.61887,71,70,40
456.62595,456.7893,66,70,40
456.79642,456.95978,69,70,40
456.96686,457.64157,67,70,40
457.9896,458.6643,60,70,40
459.18277,459.34613,64,70,40
459.35324,459.51657,66,70,40
459.52368,459.68704,68,70,40
459.69415,459.85748,69,70,40
459.8646,460.02795,59,70,40
460.03503,460.1984,60,70,40
460.2055,460.36887,62,70,40
460.37595,460.5393,64,70,40
465.99353,466.14978,70,83,40
466.1566,466.31284,69,86,40
466.31964,466.4759,67,89,40
466.48267,466.63892,65,91,40
466.64572,466.80197,74,94,40
466.80875,466.965,72,97,40
466.9718,467.12805,70,99,40
467.13486,467.2911,69,100,40
467.29788,467.45413,82,100,40
467.46094,467.6172,81,100,40
467.62396,467.7802,79,100,40
467.78702,467.94327,77,100,40
467.95007,468.10632,79,100,40
468.1131,468.27646,77,100,40
468.28357,468.4469,76,100,40
468.454,468.62515,77,100,40
468.6326,468.8037,76,100,40
468.81116,468.99084,74,100,40
468.99866,469.1929,72,100,40
469.20135,469.89313,71,110,40
471.26385,471.42722,55,110,40
471.43433,471.59766,60,110,40
471.60477,471.76813,64,110,40
471.77524,471.93857,60,110,40
471.94568,472.10904,67,110,40
472.11612,472.27948,64,110,40
472.2866,472.44995,72,110,40
472.45703,472.6204,67,110,40
472.6275,472.79086,76,110,40
472.79794,472.9187,72,110,40
472.9684,473.08914,79,110,40
473.13885,473.2596,79,110,40
473.30933,473.98404,79,110,40
475.35477,475.51813,57,110,40
475.52524,475.68857,60,110,40
475.69568,475.85904,64,110,40
475.86612,476.02948,60,110,40
476.0366,476.19995,69,110,40
476.20703,476.3704,64,110,40
476.3775,476.54086,72,110,40
476.54794,476.7113,69,110,40
476.7184,476.88174,76,110,40
476.88885,477.0096,72,110,40
477.05933,477.18005,81,110,40
477.22977,477.3505,81,110,40
477.4002,479.06216,81,127,40
479.10477,479.1616,69,110,40
479.1616,479.2184,71,110,40
479.2184,479.2752,69,110,40
479.2752,479.36044,67,110,40
479.36044,479.44568,69,110,40
479.44568,479.60904,67,110,40
479.61612,479.77948,58,110,40
479.7866,479.94995,64,110,40
479.95703,480.1204,61,110,40
480.1275,480.29083,67,110,40
480.29794,480.4613,64,110,40
480.4684,480.63174,61,110,40
480.63885,480.80222,58,110,40
480.80933,480.97266,67,110,40
480.97977,481.14313,64,110,40
481.1502,481.31357,61,110,40
481.32068,481.48404,58,110,40
481.49112,481.82495,59,110,40
481.83203,482.16583,63,110,40
482.17294,482.50674,64,110,40
482.51385,482.84766,63,110,40
483.36612,483.52948,61,110,40
483.5366,483.69995,59,110,40
483.70703,483.8704,67,110,40
483.8775,484.04083,69,110,40
484.04794,484.2113,67,110,40
484.2184,484.38174,66,110,40
484.38885,484.55222,70,110,40
484.55933,484.72266,71,110,40
484.72977,484.89313,76,110,40
484.9002,485.06357,75,110,40
485.07068,485.23404,76,110,40
485.24112,485.40448,75,110,40
485.4116,485.57495,76,110,40
485.58203,485.83063,75,110,40
485.92294,486.17154,75,110,40
486.26385,486.51245,75,110,40
486.60477,487.27948,75,110,40
499.9002,500.40448,59,70,40
500.4116,500.57492,63,70,40
500.58203,500.7454,61,70,40
500.7525,500.91583,64,70,40
500.92294,501.42722,63,70,40
501.4343,501.59766,66,70,40
501.60477,501.76813,65,70,40
501.7752,501.93857,68,70,40
501.94568,502.6204,66,70,40
503.99112,504.4954,63,70,40
504.5025,504.66583,66,70,40
504.67294,504.8363,65,70,40
504.84338,505.00674,68,70,40
505.01385,505.17722,66,70,40
505.1843,505.34766,68,70,40
505.35477,505.52588,69,70,40
505.53333,505.70447,71,70,40
505.7119,505.8916,73,70,40
505.8994,506.0791,71,70,40
506.0869,506.79376,71,70,40
509.32892,509.50003,64,70,40
509.50748,509.67862,63,70,40
509.68607,509.85718,64,70,40
509.86462,510.03577,66,70,40
510.04318,510.21432,68,70,40
510.22177,510.39288,69,70,40
510.40033,511.10718,71,70,40
511.11462,511.46432,76,70,40
511.47177,512.1786,75,70,40
512.18604,512.2456,73,70,40
512.2456,512.3051,75,70,40
512.3051,512.3646,73,70,40
512.3646,512.42413,75,70,40
512.42413,512.48364,73,70,40
512.48364,512.5432,75,70,40
512.5432,513.9997,72,70,40
514.0075,514.394,71,102,40
514.4022,514.8102,71,110,40
514.8189,515.16046,71,70,40
515.1677,515.3349,76,70,40
515.34216,515.5093,75,70,40
515.51654,515.6837,73,70,40
515.691,515.85815,72,70,40
515.8654,516.3814,73,70,40
516.3887,516.5558,71,70,40
516.56305,516.7302,69,70,40
516.7375,516.90466,68,70,40
516.9119,518.3,66,70,40
518.30725,518.6488,63,70,40
518.65607,518.82324,64,70,40
518.8305,518.9977,66,70,40
519.00494,519.17206,68,70,40
519.1793,519.3465,71,70,40
519.35376,519.52094,76,70,40
519.5282,519.6953,75,70,40
519.7026,519.86975,73,70,40
519.877,520.0442,72,70,40
520.05145,520.56744,73,70,40
520.5747,520.7418,71,70,40
520.7491,520.91626,69,70,40
520.9235,521.0907,68,70,40
521.09796,521.2651,66,70,40
521.27234,521.4395,68,70,40
521.4468,521.61395,69,70,40
521.6212,521.7883,68,70,40
521.7956,521.96277,66,70,40
521.97003,522.1372,64,70,40
522.1445,522.3116,63,70,40
522.31885,522.486,63,70,40
522.4933,522.66046,61,70,40
522.6677,522.83484,63,70,40
522.84216,523.0093,64,70,40
523.01654,523.1837,66,70,40
523.191,524.2302,59,70,40
524.2375,525.62555,64,70,40
525.6328,525.9744,59,70,40
525.9817,526.3399,59,70,40
526.34753,526.70575,59,70,40
526.7134,527.09485,64,70,40
527.10297,527.511,63,70,40
527.51965,528.07434,57,120,40
528.08215,528.2029,59,100,40
528.2526,528.37335,60,100,40
528.42303,528.5438,59,100,40
528.5935,529.0978,57,120,40
529.10486,529.2256,59,100,40
529.2753,529.39606,60,100,40
529.4458,529.5665,60,100,40
529.6162,530.1205,64,120,40
530.1276,530.24835,64,100,40
530.29803,530.4188,64,100,40
530.4685,530.58923,64,100,40
530.639,531.14325,64,120,40
531.1503,531.27106,64,100,40
531.3208,531.44727,64,100,40
531.4993,531.63214,64,90,40
531.6868,533.108,63,70,40
533.1154,533.46515,64,70,40
533.4726,534.53656,64,70,40
534.544,534.8937,64,70,40
534.9011,535.608,56,70,40
535.6154,535.9826,57,70,40
535.9904,536.4947,63,120,40
536.5018,536.6225,63,100,40
536.67224,536.79297,63,100,40
536.8427,536.96344,63,100,40
537.0131,537.5174,63,120,40
537.52454,537.64526,63,100,40
537.69495,537.81573,61,100,40
537.8654,537.98615,73,100,40
538.0359,538.54016,73,120,40
538.54724,538.66797,73,100,40
538.7177,538.83844,71,100,40
538.8881,539.0089,74,100,40
538.8881,539.0089,83,100,40
539.0586,539.5706,74,120,40
539.0586,539.5706,83,120,40
539.57806,539.7046,71,100,40
539.75665,539.88947,69,100,40
539.94415,540.09174,73,100,40
539.94415,540.09174,76,100,40
540.15247,540.5022,71,100,40
540.15247,540.5022,76,100,40
542.29535,543.3593,68,70,40
543.36676,544.0736,73,70,40
544.08105,544.4308,66,70,40
544.4382,544.7879,71,70,40
545.86676,546.2165,56,70,40
546.22394,547.2879,62,70,40
547.29535,548.3593,61,50,40
548.36676,549.0736,60,50,40
549.08105,549.7879,59,50,40
549.79535,550.5022,59,50,40
550.50964,551.2165,57,50,40
551.2239,551.9307,61,50,40
551.9382,552.645,59,50,40
552.65247,553.3593,58,50,40
553.36676,554.0736,58,50,40
554.08105,554.7879,58,55,40
554.79535,555.5022,58,61,40
555.50964,556.2165,64,67,40
556.2239,556.9307,64,73,40
556.9382,557.645,64,79,40
557.65247,558.3593,67,85,40
558.36676,559.0736,67,91,40
559.08105,559.82324,67,97,40
559.83105,560.57324,66,110,40
559.83105,560.57324,75,110,40
560.58105,561.3623,66,110,40
560.58105,561.3623,75,110,40
561.37054,561.7785,66,110,40
561.37054,561.7785,75,110,40
561.7872,562.47894,68,100,40
561.7872,562.47894,76,100,40
565.89514,566.0585,68,125,40
566.0656,566.22894,71,111,40
566.236,566.3994,68,100,40
566.4065,566.5698,71,100,40
566.57697,566.7403,68,100,40
566.74744,566.91077,71,100,40
566.91785,567.08124,68,100,40
567.0883,567.25165,71,100,40
567.2588,567.4221,68,100,40
567.4292,567.5926,71,100,40
567.5997,567.76306,68,100,40
567.77014,567.9335,71,100,40
567.9406,568.10394,69,125,40
568.111,568.2744,71,111,40
568.2815,568.4448,69,100,40
568.45197,568.6153,71,100,40
568.62244,568.78577,69,100,40
568.79285,568.95624,71,100,40
568.9633,569.12665,69,100,40
569.1338,569.2971,71,100,40
569.3042,569.4676,69,100,40
569.4747,569.63806,71,100,40
569.64514,569.8085,69,100,40
569.8156,569.97894,71,100,40
569.986,570.1494,67,125,40
570.1565,570.3198,71,111,40
570.32697,570.4903,67,100,40
570.49744,570.66077,71,100,40
570.66785,570.83124,67,100,40
570.8383,571.00165,71,100,40
571.0088,571.1721,65,100,40
571.1792,571.3426,71,100,40
571.3497,571.51306,65,100,40
571.52014,571.6835,71,100,40
571.6906,571.85394,65,100,40
571.861,572.0244,71,100,40
572.0315,572.53577,55,120,40
572.0315,572.53577,64,120,40
572.0315,572.53577,72,120,40
573.0542,573.5585,55,120,40
573.0542,573.5585,65,120,40
573.0542,573.5585,74,120,40
576.1224,576.7971,55,70,40
576.1224,576.7971,63,70,40
577.14514,577.8198,55,70,40
577.14514,577.8198,65,70,40
580.2133,580.888,55,50,40
580.2133,580.888,63,50,40
581.236,581.91077,55,50,40
581.236,581.91077,63,50,40
584.3042,584.97894,59,110,40
585.32697,586.3426,58,110,40
586.3497,587.3653,63,100,40
587.3724,588.388,70,85,40
588.39514,590.4335,71,70,40
590.4406,590.7744,68,70,40
590.7815,591.1153,63,70,40
591.1224,591.45624,71,70,40
591.4633,594.5244,71,70,40
594.5315,594.8653,68,70,40
594.8724,595.2062,64,70,40
595.2133,596.5698,71,70,40
596.57697,598.6153,72,70,40
598.6224,598.9562,69,70,40
598.9633,599.2971,62,70,40
599.3042,600.66077,72,70,40
600.66785,601.00165,64,70,40
601.0088,601.3426,60,70,40
601.3497,602.7062,67,70,40
602.7133,603.0471,62,70,40
603.0542,603.388,59,70,40
603.39514,604.75165,65,70,40
604.7588,607.8198,64,70,40
607.82697,608.8426,63,70,40
608.8497,609.1835,63,50,40
609.19055,609.8653,63,50,40
609.8724,610.5471,63,50,40
610.5542,611.22894,63,50,40
611.236,611.91077,63,50,40
611.91785,612.5926,63,50,40
612.5997,613.2744,63,50,40
613.2815,613.9562,66,50,40
613.9633,614.638,66,57,40
614.64514,615.3198,66,65,40
615.32697,616.00165,69,72,40
616.0087,616.6835,72,80,40
616.69055,617.3653,75,87,40
617.3724,618.0471,78,95,40
618.0542,618.72894,81,102,40
618.736,619.41077,78,110,40
619.41785,620.0926,75,120,40
620.0997,620.77435,72,120,40
620.7815,621.4562,69,120,40
621.4633,622.138,66,120,40
622.14514,622.8198,63,120,40
622.82697,623.50165,60,120,40
623.5087,624.1835,57,120,40
624.19055,624.8653,69,120,40
624.19055,624.8653,66,120,40
624.8724,625.5549,66,120,40
624.8724,625.5549,69,120,40
625.56213,626.269,69,120,40
625.56213,626.269,66,120,40
626.2764,627.03796,66,120,40
626.2764,627.03796,69,120,40
627.04614,627.4658,66,120,40
627.04614,627.4658,69,120,40
627.47473,629.7169,66,120,40
627.47473,629.7169,69,120,40
629.72473,634.5919,66,120,40
629.72473,634.5919,69,120,40
636.47473,637.5919,67,50,40
637.59973,637.9669,69,50,40
637.97473,638.1544,72,50,40
638.16223,638.3419,71,50,40
638.34973,638.5294,66,50,40
638.53723,638.7169,69,50,40
638.72473,639.4669,67,50,40
639.47473,639.8419,67,50,40
639.84973,640.0294,69,50,40
640.03723,640.2169,69,50,40
640.22473,640.4044,72,50,40
640.41223,640.5919,71,50,40
640.59973,640.7794,66,50,40
640.78723,640.9669,69,50,40
640.97473,641.7169,67,50,40
642.0906,642.80615,64,50,40
642.0906,642.80615,72,50,40
646.4847,646.65186,60,50,40
646.6591,646.82623,65,50,40
646.8335,647.0007,60,50,40
647.00793,647.1751,65,50,40
647.1824,647.3495,60,50,40
647.5312,647.69836,59,51,40
647.7056,647.87274,64,52,40
647.88,648.0472,59,53,40
648.05444,648.2216,64,54,40
648.2289,648.396,59,55,40
648.5777,648.7449,59,57,40
648.75214,648.91925,63,59,40
648.9265,649.0937,59,60,40
649.10095,649.2681,63,61,40
649.2754,649.4425,59,62,40
649.6242,649.7914,59,64,40
649.79865,649.96576,64,65,40
649.973,650.1402,59,66,40
650.14746,650.31464,64,68,40
650.3219,650.489,59,69,40
650.6707,650.8379,65,71,40
650.84515,651.01227,69,72,40
651.01953,651.1867,65,73,40
651.194,651.36115,69,74,40
651.3684,651.5355,65,76,40
651.7172,651.8844,64,78,40
651.89166,652.0588,67,79,40
652.06604,652.2332,64,80,40
652.2405,652.40765,67,81,40
652.4149,652.58203,64,82,40
652.76373,652.9309,63,85,40
652.9382,653.1053,66,86,40
653.11255,653.2797,63,87,40
653.287,653.45416,66,88,40
653.4614,653.62854,63,89,40
653.81024,653.9774,67,91,40
653.9847,654.1518,71,92,40
654.15906,654.32623,67,94,40
654.3335,654.5007,71,95,40
654.50793,654.67505,67,96,40
654.85675,655.0239,65,98,40
655.0312,655.1983,69,99,40
655.2056,655.37274,65,100,40
655.38,655.55115,69,102,40
655.5586,655.72974,65,103,40
655.9157,656.08685,64,105,40
656.0943,656.26544,67,106,40
656.2729,656.44403,64,107,40
656.4514,656.62256,67,108,40
656.63,656.80115,64,109,40
656.8086,656.97974,69,110,40
656.9872,657.15826,66,110,40
657.1657,657.33685,69,110,40
657.3443,657.51544,66,110,40
657.5229,657.69403,69,110,40
657.7014,657.87256,66,110,40
657.88,658.22974,64,120,40
658.2372,658.58685,59,120,40
658.5943,658.94403,67,120,40
658.9514,660.19403,71,120,40
660.2014,660.37256,72,120,40
660.38,660.55115,69,120,40
660.5586,660.72974,66,120,40
660.7372,660.90826,63,120,40
660.9157,661.08685,59,120,40
661.0943,661.444,64,115,40
661.4514,661.80115,60,99,40
661.8086,662.51544,59,83,40
662.5229,662.87256,60,70,40
662.88,663.6044,59,70,40
663.6122,663.9794,60,70,40
663.9872,665.2175,59,70,40
665.6429,666.63245,59,70,40
667.1429,668.63245,59,70,40
0.0,0.50426126,59,110,41
0.0,0.50426126,64,110,41
1.022727,1.5269883,59,110,41
1.022727,1.5269883,66,110,41
5.590908,6.656147,54,50,41
6.6639595,7.283751,52,50,41
9.0389595,9.3727665,53,50,41
9.3798685,9.7136755,48,50,41
9.7207775,10.0545845,57,50,41
10.0616865,11.0773115,60,50,41
11.084414,12.1496525,55,50,41
12.157465,12.777257,53,50,41
14.532465,14.866272,66,70,41
14.873374,15.207181,63,70,41
15.214283,18.825333,69,70,41
20.87901,23.126423,51,70,41
23.134647,23.809362,52,70,41
23.816465,24.150272,52,70,41
24.157373,24.83209,54,70,41
24.839191,25.002544,60,70,41
25.009647,25.172998,59,70,41
25.180101,25.854816,59,70,41
25.86192,26.195726,52,70,41
26.202827,26.877544,54,70,41
26.884645,27.047998,60,70,41
27.055101,27.218452,59,70,41
27.225555,27.559362,59,70,41
28.248281,28.582088,57,70,41
29.441463,29.604816,52,70,41
29.611917,29.77527,53,70,41
29.782373,29.945724,55,70,41
29.952827,30.116179,57,70,41
30.123281,30.286634,48,70,41
30.293736,30.457088,50,70,41
30.464191,30.627542,52,70,41
30.634645,30.797997,53,70,41
30.8051,30.968452,55,70,41
30.975554,31.138906,57,70,41
31.14601,31.30936,59,70,41
31.316463,31.479815,60,70,41
31.486917,31.65027,59,70,41
31.657372,31.820724,62,70,41
31.827827,31.991179,60,70,41
31.998281,32.161633,59,70,41
32.168736,32.33209,57,70,41
32.33919,32.50254,55,70,41
32.509644,32.672997,53,70,41
32.6801,32.85123,52,70,41
32.85867,33.0298,53,70,41
33.037243,33.21693,57,70,41
33.224743,33.413887,60,70,41
33.42211,33.771812,60,70,41
33.77925,34.84324,55,76,41
34.85068,35.21787,59,94,41
35.22568,35.62264,57,100,41
35.631084,36.15936,57,110,41
36.70251,37.230785,63,110,41
36.70251,37.230785,66,110,41
39.955757,40.289566,55,70,41
40.296665,40.630474,57,70,41
40.637577,40.800926,60,70,41
40.80803,40.971382,59,70,41
40.978485,41.141838,54,70,41
41.14894,41.31229,57,70,41
41.319393,41.653202,57,70,41
41.6603,41.908882,55,70,41
42.001213,42.24979,55,70,41
42.34212,42.675926,57,70,41
42.68303,42.846382,60,70,41
42.853485,43.016838,59,70,41
43.023937,43.18729,54,70,41
43.194393,43.357746,57,70,41
43.36485,44.039562,55,70,41
44.387573,45.06229,57,70,41
45.580757,45.74411,52,71,41
45.75121,45.914562,53,72,41
45.921665,46.08502,55,74,41
46.09212,46.25547,57,75,41
46.262573,46.425926,48,76,41
46.43303,46.596382,50,78,41
46.603485,46.766834,52,79,41
46.773937,46.93729,53,80,41
46.944393,47.107746,55,82,41
47.114845,47.2782,57,83,41
47.2853,47.448654,59,84,41
47.455757,47.710117,60,86,41
47.97901,48.146164,53,90,41
48.15343,48.326622,55,91,41
48.334152,48.507343,57,92,41
48.514874,48.68807,59,94,41
48.6956,48.86879,60,95,41
48.87632,49.056007,62,96,41
49.06382,49.196632,64,98,41
49.25132,49.384132,65,99,41
49.43882,49.571632,48,100,41
49.62632,49.74706,50,120,41
49.796776,49.917515,50,120,41
49.967228,50.087967,50,120,41
50.137684,50.258423,50,120,41
50.30814,50.42888,50,120,41
50.478592,50.59933,50,120,41
50.649048,50.769787,50,120,41
50.819504,50.94024,50,120,41
50.989956,51.110695,50,120,41
51.16041,51.28115,50,120,41
51.330864,51.451603,50,120,41
51.50132,51.62206,50,120,41
51.671776,53.369217,72,120,41
53.37632,53.43314,60,120,41
53.43314,53.489956,62,120,41
53.489956,53.546776,60,120,41
53.546776,53.632,59,120,41
53.632,53.710125,60,120,41
53.717228,53.837967,62,120,41
53.887684,54.008423,62,120,41
54.058136,54.178875,62,120,41
54.228592,54.34933,62,120,41
54.399048,54.519787,62,120,41
54.5695,54.69024,62,120,41
54.739956,54.860695,62,120,41
54.91041,55.031147,62,120,41
55.080864,55.201603,62,120,41
55.25132,55.37206,62,120,41
55.421772,55.54251,62,120,41
55.592228,55.712967,62,120,41
55.762684,57.460125,67,120,41
57.467228,57.524044,55,120,41
57.524044,57.580864,57,120,41
57.580864,57.637684,55,120,41
57.637684,57.722908,54,120,41
57.722908,57.801033,55,120,41
57.808136,57.928875,51,110,41
57.978592,58.09933,51,110,41
58.149044,58.269783,51,110,41
58.3195,58.44024,51,110,41
58.489956,58.610695,51,110,41
58.660408,58.781147,51,110,41
58.830864,58.951603,51,110,41
59.00132,59.122055,51,110,41
59.171772,59.29251,51,110,41
59.342228,59.462967,51,110,41
59.51268,59.63342,51,110,41
59.683136,59.803875,51,110,41
59.853592,60.357853,50,110,41
60.364956,60.528305,51,110,41
60.535408,60.69876,48,110,41
60.705864,60.869217,49,110,41
60.876316,61.210125,50,110,41
62.0695,62.232853,67,110,41
62.239952,62.403305,69,110,41
62.410408,62.57376,67,110,41
62.580864,62.744213,66,110,41
62.751316,62.91467,63,110,41
62.921772,63.085125,62,110,41
63.092228,63.255577,61,110,41
63.26268,63.426033,62,110,41
63.433136,63.59649,64,110,41
63.60359,63.76694,62,110,41
63.774044,63.937397,64,110,41
63.9445,64.19308,62,110,41
64.28541,64.53399,50,110,41
64.62632,64.87489,50,110,41
64.967224,65.13058,50,110,41
65.13768,65.30103,49,100,41
65.308136,65.47149,50,100,41
65.47859,65.641945,49,100,41
65.64904,65.81239,50,100,41
65.819496,65.98285,49,100,41
65.98995,66.153305,50,100,41
66.16041,66.32376,49,98,41
66.330864,66.49422,50,95,41
66.50132,66.664665,49,92,41
66.67177,66.83512,50,90,41
66.842224,67.00558,49,87,41
67.01268,67.17603,50,84,41
67.183136,67.34649,49,81,41
67.35359,67.51694,50,79,41
67.52404,67.68739,49,76,41
67.694496,67.85785,50,73,41
67.86495,68.028305,49,71,41
68.03541,68.19876,50,70,41
68.205864,68.36922,48,70,41
68.37631,68.539665,50,70,41
68.54677,68.71012,48,70,41
68.717224,68.88058,50,70,41
68.88768,69.05103,48,70,41
69.058136,69.22149,50,70,41
69.22859,69.39194,48,70,41
69.39904,69.56239,50,70,41
69.569496,69.73285,48,70,41
69.73995,69.903305,50,70,41
69.91041,70.07376,48,70,41
70.080864,70.24421,50,70,41
70.25131,70.414665,48,70,41
70.42177,70.58512,50,70,41
70.592224,70.75558,48,70,41
70.76268,70.92603,50,70,41
70.933136,71.09649,48,70,41
71.103584,71.26694,50,70,41
71.27404,71.43739,48,70,41
71.444496,71.60785,50,70,41
71.61495,71.778305,48,70,41
71.78541,71.94876,50,70,41
71.955864,72.11921,48,70,41
72.12631,72.289665,50,70,41
72.29677,72.46012,48,70,41
72.467224,72.63058,50,70,41
72.63768,72.80103,48,70,41
72.808136,72.97148,50,70,41
72.978584,73.14194,48,70,41
73.14904,73.31239,50,70,41
73.319496,73.48285,48,70,41
73.48995,73.653305,50,70,41
73.66041,73.82376,48,70,41
73.83086,73.99421,50,70,41
74.00131,74.164665,48,70,41
74.17177,74.33512,50,70,41
74.342224,74.50558,48,70,41
74.51268,74.67603,50,70,41
74.683136,74.84648,48,70,41
74.853584,75.01694,50,70,41
75.02404,75.18739,48,70,41
75.194496,75.35785,50,70,41
75.36495,75.528305,48,70,41
75.53541,75.69875,50,70,41
75.70586,75.86921,48,70,41
75.87631,76.039665,54,70,41
76.04677,76.21012,50,70,41
76.217224,76.38058,55,70,41
76.38768,76.55103,50,70,41
76.55813,76.72148,55,70,41
76.728584,76.89194,50,70,41
76.89904,77.06239,55,70,41
77.069496,77.23285,50,70,41
77.23995,77.403305,55,70,41
77.41041,77.57375,52,70,41
77.58086,77.74421,55,70,41
77.75131,77.914665,52,70,41
77.92177,78.08512,55,70,41
78.092224,78.25558,52,70,41
78.26268,78.426025,54,70,41
78.43313,78.59648,57,70,41
78.603584,78.76694,50,70,41
78.77404,78.93739,54,70,41
78.944496,79.10785,57,70,41
79.11495,79.278305,54,70,41
79.2854,80.301025,55,70,41
81.33086,81.49421,64,70,41
81.50131,81.664665,60,70,41
81.67177,81.83512,64,70,41
81.842224,82.00558,60,70,41
82.01267,82.18381,64,70,41
82.191246,82.36238,60,70,41
82.36982,82.54095,69,70,41
82.54839,82.71952,66,73,41
82.72696,82.898094,69,76,41
82.90553,83.07666,66,79,41
83.08411,83.263794,69,82,41
83.27161,83.451294,66,85,41
83.45911,83.64825,69,88,41
83.65647,83.84562,66,91,41
83.853836,84.05349,69,94,41
84.06217,84.261826,66,97,41
84.27051,84.48831,69,100,41
84.49778,84.71558,66,85,41
84.72505,85.78904,71,70,41
85.79648,86.14618,64,70,41
86.15362,86.32475,72,70,41
86.33219,86.50333,71,70,41
86.510765,86.68189,69,70,41
86.68934,86.860466,67,70,41
86.867905,88.28903,66,70,41
88.29648,88.64618,62,70,41
88.65362,88.82475,64,70,41
88.83219,89.00332,66,70,41
89.01076,89.18189,67,70,41
89.18933,89.360466,62,70,41
89.367905,89.53903,67,70,41
89.54648,89.717606,66,70,41
89.725044,89.89618,64,70,41
89.90362,90.074745,63,70,41
90.08219,90.25332,64,70,41
90.26076,90.43189,65,70,41
90.43933,90.61046,64,70,41
90.617905,90.78903,62,70,41
90.79647,90.967606,60,70,41
90.975044,91.14618,59,70,41
91.15362,91.324745,57,70,41
91.332184,91.50332,59,70,41
91.51076,91.68189,60,70,41
91.68933,91.86046,59,70,41
91.867905,92.03903,57,70,41
92.04647,92.217606,55,70,41
92.225044,92.39617,54,70,41
92.40362,92.574745,54,70,41
92.582184,92.75332,52,70,41
92.76076,92.931885,54,70,41
92.93933,93.11046,55,70,41
93.1179,93.28903,57,70,41
93.29647,94.36046,59,70,41
94.3679,95.78903,57,70,41
95.79647,96.14617,59,76,41
96.15361,96.5208,59,83,41
96.52861,96.8958,59,90,41
96.90361,97.19144,62,97,41
97.29835,97.602165,60,104,41
99.87624,100.3805,73,120,41
100.3876,100.50834,74,100,41
100.55806,100.678795,76,100,41
100.728516,100.84925,74,100,41
100.898964,101.40323,73,120,41
101.41033,101.53107,74,100,41
101.58079,101.7136,76,100,41
101.76829,101.915855,76,100,41
101.976616,102.683464,76,100,41
102.6909,103.39775,74,100,41
103.40519,103.75489,72,100,41
103.76233,104.11203,71,100,41
104.11948,104.2906,71,100,41
104.29804,104.46918,69,100,41
104.476616,104.82632,67,100,41
104.833755,105.183464,67,100,41
105.1909,105.93309,67,100,41
105.9409,106.348885,66,100,41
106.35757,106.88584,60,120,41
106.89328,107.01977,62,100,41
107.07185,107.19834,63,100,41
107.25043,107.376915,63,100,41
107.42899,107.95727,63,120,41
107.96471,108.091194,63,100,41
108.14328,108.26977,64,100,41
108.32185,108.44834,62,100,41
108.50042,109.028694,61,120,41
109.03613,109.16262,61,100,41
109.21471,109.341194,62,100,41
109.39328,109.51977,60,100,41
109.571846,110.10868,59,120,41
110.11649,110.249306,59,100,41
110.30399,110.44198,64,100,41
110.498795,110.64238,64,100,41
110.7015,110.961914,62,105,41
111.05864,111.40835,62,93,41
111.41579,111.94406,74,80,41
111.9515,112.12263,76,70,41
112.13007,112.3012,74,70,41
112.30864,112.479774,72,70,41
112.48721,112.65834,71,70,41
112.66579,112.836914,69,70,41
112.84435,113.90834,68,70,41
113.91578,114.62263,69,70,41
114.630066,114.97977,66,70,41
114.98721,115.336914,67,70,41
115.70149,116.05119,53,70,41
116.05864,117.12263,62,70,41
117.130066,117.83691,59,50,41
117.84435,118.90834,57,50,41
118.91578,119.62262,57,50,41
119.630066,120.33691,55,50,41
120.344345,121.05119,56,50,41
121.05863,121.76548,57,50,41
121.77292,122.47976,58,50,41
122.487206,123.194046,59,50,41
123.201485,123.90833,58,50,41
123.91577,124.62262,58,50,41
124.63006,125.3369,58,55,41
125.344345,126.051186,58,61,41
126.058624,126.76547,61,67,41
126.77291,127.47976,61,73,41
127.4872,128.19405,61,79,41
128.20148,128.90833,62,85,41
128.91577,129.6226,62,91,41
129.63005,130.37224,62,97,41
130.38005,131.12224,62,110,41
130.38005,131.12224,69,110,41
131.13005,131.9113,62,110,41
131.13005,131.9113,69,110,41
131.91953,132.33917,62,110,41
131.91953,132.33917,69,110,41
132.3481,132.52779,59,125,41
132.5356,132.69185,62,115,41
132.69864,132.85489,59,110,41
132.86168,133.01793,62,110,41
133.02472,133.18097,59,110,41
133.18777,133.34402,62,110,41
133.35081,133.50706,59,110,41
133.51385,133.6701,62,110,41
133.6769,133.83315,59,110,41
133.83994,133.99619,62,110,41
134.00299,134.15924,59,110,41
134.16603,134.32228,62,110,41
134.32907,134.48532,60,125,41
134.49211,134.64836,62,115,41
134.65515,134.8114,60,110,41
134.8182,134.97446,62,110,41
134.98125,135.1375,60,110,41
135.14429,135.30054,62,110,41
135.30733,135.46358,60,110,41
135.47037,135.62662,62,110,41
135.63342,135.78967,60,110,41
135.79646,135.95271,62,110,41
135.9595,136.11575,60,110,41
136.12254,136.2788,62,110,41
136.28558,136.44183,74,125,41
136.44864,136.56412,71,115,41
136.61168,136.72717,67,110,41
136.77472,136.89021,62,110,41
136.93776,137.05325,59,110,41
137.10081,137.2163,55,110,41
137.26385,138.23532,50,110,41
138.24211,138.39836,74,125,41
138.40515,138.52065,72,115,41
138.56819,138.68369,69,110,41
138.73125,138.84673,62,110,41
138.89429,139.00977,60,110,41
139.05733,139.17282,57,110,41
139.22037,140.19183,50,110,41
140.19862,140.35487,55,110,41
140.36168,140.51793,59,110,41
140.52472,140.68097,55,110,41
140.68776,140.84401,59,110,41
140.8508,141.00705,55,110,41
141.01384,141.17009,59,110,41
141.1769,141.33315,57,110,41
141.33994,141.49619,59,110,41
141.50298,141.65923,57,110,41
141.66602,141.82227,59,110,41
141.82906,141.9853,57,110,41
141.99211,142.14836,59,110,41
142.15515,142.65941,55,110,41
143.17787,143.68213,54,110,41
143.17787,143.68213,59,110,41
147.74606,148.8113,54,50,41
148.8191,149.4389,52,50,41
151.1941,151.52791,53,50,41
151.53502,151.86882,48,50,41
151.87593,152.20973,57,50,41
152.21683,153.23245,60,50,41
153.23956,154.3048,55,50,41
154.3126,154.9324,53,50,41
156.6876,157.02142,66,70,41
157.02852,157.36234,63,70,41
157.36943,160.92168,69,70,41
162.97495,165.22237,51,70,41
165.23059,165.9053,52,70,41
165.9124,166.24622,52,70,41
166.25331,166.92802,54,70,41
166.93513,167.09848,60,70,41
167.10559,167.26894,59,70,41
167.27605,167.95076,59,70,41
167.95786,168.29167,52,70,41
168.29877,168.97348,54,70,41
168.98059,169.14394,60,70,41
169.15103,169.31439,59,70,41
169.32149,169.6553,59,70,41
170.34422,170.67802,57,70,41
171.5374,171.70076,52,70,41
171.70786,171.87122,53,70,41
171.87831,172.04166,55,70,41
172.04877,172.21211,57,70,41
172.21922,172.38257,48,70,41
172.38968,172.55302,50,70,41
172.56013,172.72348,52,70,41
172.73059,172.89394,53,70,41
172.90103,173.06439,55,70,41
173.07149,173.23485,57,70,41
173.24194,173.4053,59,70,41
173.4124,173.57576,60,70,41
173.58286,173.74622,59,70,41
173.75331,173.91666,62,70,41
173.92377,174.08711,60,70,41
174.09422,174.25757,59,70,41
174.26468,174.42802,57,70,41
174.43513,174.59848,55,70,41
174.60558,174.76894,53,70,41
174.77603,174.93939,52,70,41
174.94649,175.10985,53,70,41
175.11694,175.28807,57,70,41
175.29552,175.46664,60,70,41
175.47409,175.82379,60,70,41
175.83124,176.89522,55,76,41
176.90266,177.26985,59,94,41
177.27766,177.66417,57,100,41
177.6724,178.20067,57,110,41
178.74382,179.2721,63,110,41
178.74382,179.2721,66,110,41
181.99707,182.33087,55,70,41
182.33798,182.67178,57,70,41
182.6789,182.84224,60,70,41
182.84933,183.0127,59,70,41
183.01979,183.18315,54,70,41
183.19025,183.3536,57,70,41
183.3607,183.6945,57,70,41
183.70161,183.9502,55,70,41
184.04253,184.2911,55,70,41
184.38344,184.71724,57,70,41
184.72433,184.8877,60,70,41
184.89479,185.05815,59,70,41
185.06525,185.2286,54,70,41
185.2357,185.39906,57,70,41
185.40616,186.08087,55,70,41
186.42888,187.09618,57,70,41
187.5995,187.75575,52,71,41
187.76254,187.9188,53,72,41
187.92558,188.08183,55,74,41
188.08864,188.24489,57,75,41
188.25168,188.40793,48,76,41
188.41472,188.57097,50,78,41
188.57776,188.73401,52,79,41
188.7408,188.89705,53,80,41
188.90385,189.0601,55,82,41
189.0669,189.22314,57,83,41
189.22993,189.38618,59,84,41
189.39297,189.63075,60,86,41
189.88211,190.03836,53,90,41
190.04515,190.2014,55,91,41
190.20819,190.36444,57,92,41
190.37125,190.5275,59,94,41
190.53429,190.69054,60,95,41
190.69733,190.86067,62,96,41
190.86778,190.98853,64,98,41
191.03824,191.16472,65,99,41
191.21681,191.34962,48,100,41
191.40431,191.52504,50,120,41
191.57475,191.6955,50,120,41
191.74521,191.86595,50,120,41
191.91566,192.0364,50,120,41
192.08612,192.20686,50,120,41
192.25658,192.37732,50,120,41
192.42703,192.54778,50,120,41
192.59749,192.71823,50,120,41
192.76794,192.88869,50,120,41
192.9384,193.05913,50,120,41
193.10886,193.22958,50,120,41
193.27931,193.40004,50,120,41
193.44975,195.1472,72,120,41
195.15431,195.21112,60,120,41
195.21112,195.26794,62,120,41
195.26794,195.32475,60,120,41
195.32475,195.40999,59,120,41
195.40999,195.48811,60,120,41
195.49521,195.61595,62,120,41
195.66566,195.7864,62,120,41
195.83612,195.95686,62,120,41
196.00658,196.12732,62,120,41
196.17703,196.29778,62,120,41
196.34749,196.46823,62,120,41
196.51794,196.63867,62,120,41
196.6884,196.80913,62,120,41
196.85886,196.97958,62,120,41
197.0293,197.15004,62,120,41
197.19975,197.3205,62,120,41
197.37021,197.49095,62,120,41
197.54066,199.23811,67,120,41
199.24521,199.30203,55,120,41
199.30203,199.35886,57,120,41
199.35886,199.41566,55,120,41
199.41566,199.5009,54,120,41
199.5009,199.57903,55,120,41
199.58612,199.70686,51,110,41
199.75658,199.87732,51,110,41
199.92703,200.04778,51,110,41
200.09749,200.21823,51,110,41
200.26794,200.38867,51,110,41
200.4384,200.55913,51,110,41
200.60886,200.72958,51,110,41
200.7793,200.90004,51,110,41
200.94975,201.0705,51,110,41
201.12021,201.24095,51,110,41
201.29066,201.4114,51,110,41
201.46112,201.58186,51,110,41
201.63158,202.13583,50,110,41
202.14294,202.30629,51,110,41
202.3134,202.47675,48,110,41
202.48384,202.6472,49,110,41
202.6543,202.98811,50,110,41
203.84749,204.01083,67,110,41
204.01794,204.18129,69,110,41
204.1884,204.35175,67,110,41
204.35884,204.5222,66,110,41
204.5293,204.69266,63,110,41
204.69975,204.86311,62,110,41
204.87021,205.03357,61,110,41
205.04066,205.20403,62,110,41
205.21112,205.37447,64,110,41
205.38158,205.54492,62,110,41
205.55203,205.71538,64,110,41
205.72249,205.97107,62,110,41
206.0634,206.31197,50,110,41
206.4043,206.65288,50,110,41
206.74521,206.90857,50,110,41
206.91566,207.07901,49,100,41
207.08612,207.24947,50,100,41
207.25658,207.41992,49,100,41
207.42703,207.59038,50,100,41
207.59749,207.76083,49,100,41
207.76794,207.93129,50,100,41
207.93839,208.10175,49,98,41
208.10884,208.2722,50,95,41
208.2793,208.44266,49,92,41
208.44975,208.61311,50,90,41
208.62021,208.78357,49,87,41
208.79066,208.95401,50,84,41
208.96112,209.12447,49,81,41
209.13158,209.29492,50,79,41
209.30203,209.46538,49,76,41
209.47249,209.63583,50,73,41
209.64294,209.80629,49,71,41
209.81339,209.97675,50,70,41
209.98384,210.1472,48,70,41
210.1543,210.31766,50,70,41
210.32475,210.48811,48,70,41
210.49521,210.65857,50,70,41
210.66566,210.82901,48,70,41
210.83612,210.99947,50,70,41
211.00658,211.16992,48,70,41
211.17703,211.34038,50,70,41
211.34749,211.51083,48,70,41
211.51794,211.68129,50,70,41
211.68839,211.85175,48,70,41
211.85884,212.0222,50,70,41
212.0293,212.19266,48,70,41
212.19975,212.36311,50,70,41
212.37021,212.53355,48,70,41
212.54066,212.70401,50,70,41
212.71112,212.87447,48,70,41
212.88158,213.04492,50,70,41
213.05203,213.21538,48,70,41
213.22249,213.38583,50,70,41
213.39293,213.55629,48,70,41
213.56339,213.72675,50,70,41
213.73384,213.8972,48,70,41
213.9043,214.06766,50,70,41
214.07475,214.23811,48,70,41
214.24521,214.40855,50,70,41
214.41566,214.57901,48,70,41
214.58612,214.74947,50,70,41
214.75658,214.91992,48,70,41
214.92703,215.09038,50,70,41
215.09749,215.26083,48,70,41
215.26793,215.43129,50,70,41
215.43839,215.60175,48,70,41
215.60884,215.7722,50,70,41
215.7793,215.94266,48,70,41
215.94975,216.11311,50,70,41
216.12021,216.28355,48,70,41
216.29066,216.45401,50,70,41
216.46112,216.62447,48,70,41
216.63158,216.79492,50,70,41
216.80203,216.96538,48,70,41
216.97247,217.13583,50,70,41
217.14293,217.30629,48,70,41
217.31339,217.47675,50,70,41
217.48384,217.6472,48,70,41
217.6543,217.81766,54,70,41
217.82475,217.9881,50,70,41
217.99521,218.15855,55,70,41
218.16566,218.32901,50,70,41
218.33612,218.49947,55,70,41
218.50658,218.66992,50,70,41
218.67703,218.84038,55,70,41
218.84747,219.01083,50,70,41
219.01793,219.18129,55,70,41
219.18839,219.35175,52,70,41
219.35884,219.5222,55,70,41
219.5293,219.69266,52,70,41
219.69975,219.8631,55,70,41
219.87021,220.03355,52,70,41
220.04066,220.20401,54,70,41
220.21112,220.37447,57,70,41
220.38158,220.54492,50,70,41
220.55203,220.71538,54,70,41
220.72247,220.88583,57,70,41
220.89293,221.05629,54,70,41
221.06339,222.07901,55,70,41
223.10884,223.2722,64,70,41
223.2793,223.44264,60,70,41
223.44975,223.6131,64,70,41
223.62021,223.78355,60,70,41
223.79066,223.95401,64,70,41
223.96112,224.12447,60,70,41
224.13158,224.29492,69,70,41
224.30202,224.46538,66,73,41
224.47247,224.63583,69,76,41
224.64293,224.80629,66,79,41
224.81339,224.98451,69,82,41
224.99196,225.16309,66,85,41
225.17053,225.34166,69,88,41
225.3491,225.52023,66,91,41
225.52768,225.70737,69,94,41
225.71518,225.89487,66,97,41
225.90268,226.10233,69,100,41
226.11101,226.31065,66,85,41
226.31934,227.38333,71,70,41
227.39076,227.74046,64,70,41
227.74791,227.91904,72,70,41
227.92648,228.09761,71,70,41
228.10506,228.27618,69,70,41
228.28363,228.45476,67,70,41
228.46219,229.88333,66,70,41
229.89076,230.24046,62,70,41
230.24791,230.41904,64,70,41
230.42648,230.59761,66,70,41
230.60506,230.77618,67,70,41
230.78362,230.95476,62,70,41
230.96219,231.13332,67,70,41
231.14076,231.31189,66,70,41
231.31934,231.49046,64,70,41
231.49791,231.66904,63,70,41
231.67648,231.84761,64,70,41
231.85504,232.02618,65,70,41
232.03362,232.20474,64,70,41
232.21219,232.38332,62,70,41
232.39076,232.56189,60,70,41
232.56934,232.74046,59,70,41
232.74791,232.91904,57,70,41
232.92647,233.09761,59,70,41
233.10504,233.27618,60,70,41
233.28362,233.45474,59,70,41
233.46219,233.63332,57,70,41
233.64076,233.81189,55,70,41
233.81934,233.99046,54,70,41
233.99791,234.16904,54,70,41
234.17647,234.35616,52,70,41
234.36397,234.54366,54,70,41
234.55147,234.74062,55,70,41
234.74884,234.93799,57,70,41
234.94621,236.0102,59,70,41
236.01764,237.43877,57,70,41
237.44621,237.79591,59,76,41
237.80334,238.17053,59,83,41
238.17834,238.54553,59,90,41
238.55334,238.84119,62,97,41
238.94809,239.2519,60,104,41
241.46135,241.9656,73,120,41
241.9727,242.09344,74,100,41
242.14316,242.2639,76,100,41
242.31361,242.43436,74,100,41
242.48407,242.98833,73,120,41
242.99544,243.11618,74,100,41
243.1659,243.29237,76,100,41
243.34447,243.47728,76,100,41
243.53197,244.2388,76,100,41
244.24625,244.9531,74,100,41
244.96053,245.31023,72,100,41
245.31767,245.66737,71,100,41
245.67482,245.84595,71,100,41
245.8534,246.02452,69,100,41
246.03195,246.38165,67,100,41
246.3891,246.7388,67,100,41
246.74625,247.48843,67,100,41
247.49625,247.90424,66,100,41
247.9129,248.46759,60,120,41
248.4754,248.59615,62,100,41
248.64586,248.7666,63,100,41
248.81631,248.93706,63,100,41
248.98677,249.49103,63,120,41
249.49814,249.61888,63,100,41
249.6686,249.78934,64,100,41
249.83905,249.95978,62,100,41
250.0095,250.51376,61,120,41
250.52086,250.6416,61,100,41
250.69131,250.81781,62,100,41
250.86989,250.99638,60,100,41
251.04846,251.57674,59,120,41
251.58417,251.71066,59,100,41
251.76274,251.89555,64,100,41
251.95024,252.09383,64,100,41
252.15295,252.41336,62,105,41
252.51009,252.85979,62,93,41
252.86723,253.39551,74,80,41
253.40295,253.57408,76,70,41
253.58151,253.75266,74,70,41
253.76009,253.93121,72,70,41
253.93866,254.10979,71,70,41
254.11723,254.28836,69,70,41
254.2958,255.35979,68,70,41
255.36723,256.07407,69,70,41
256.0815,256.4312,66,70,41
256.43866,256.78836,67,70,41
257.15295,257.50266,53,70,41
257.51007,258.57407,62,70,41
258.5815,259.28836,59,50,41
259.2958,260.35977,57,50,41
260.36722,261.07407,57,50,41
261.0815,261.78836,55,50,41
261.7958,262.50266,56,50,41
262.51007,263.21692,57,50,41
263.22437,263.9312,58,50,41
263.93866,264.6455,59,50,41
264.65292,265.35977,58,50,41
265.36722,266.07407,58,50,41
266.0815,266.78836,58,55,41
266.79578,267.50262,58,61,41
267.51007,268.21692,61,67,41
268.22437,268.9312,61,73,41
268.93866,269.64548,61,79,41
269.65292,270.35977,62,85,41
270.36722,271.07407,62,91,41
271.0815,271.8237,62,97,41
271.8315,272.5737,62,110,41
271.8315,272.5737,69,110,41
272.5815,273.36276,62,110,41
272.5815,273.36276,69,110,41
273.37097,273.79062,62,110,41
273.37097,273.79062,69,110,41
273.79953,273.97067,59,125,41
273.97812,274.14148,62,115,41
274.14856,274.31192,59,110,41
274.31903,274.4824,62,110,41
274.48947,274.65283,59,110,41
274.65994,274.82327,62,110,41
274.83038,274.99374,59,110,41
275.00085,275.16418,62,110,41
275.1713,275.33466,59,110,41
275.34177,275.5051,62,110,41
275.5122,275.67557,59,110,41
275.68265,275.846,62,110,41
275.85312,276.01648,60,125,41
276.02356,276.18692,62,115,41
276.19403,276.3574,60,110,41
276.36447,276.52783,62,110,41
276.53494,276.69827,60,110,41
276.70538,276.86874,62,110,41
276.87585,277.03918,60,110,41
277.0463,277.20966,62,110,41
277.21677,277.3801,60,110,41
277.3872,277.55057,62,110,41
277.55765,277.721,60,110,41
277.72812,277.89148,62,110,41
277.89856,278.06192,74,125,41
278.06903,278.18976,71,115,41
278.23947,278.36023,67,110,41
278.40994,278.53067,62,110,41
278.58038,278.7011,59,110,41
278.75085,278.87158,55,110,41
278.9213,279.93692,50,110,41
279.94403,280.10736,74,125,41
280.11447,280.23523,72,115,41
280.28494,280.40567,69,110,41
280.45538,280.5761,62,110,41
280.62585,280.74658,60,110,41
280.7963,280.91702,57,110,41
280.96674,281.98236,50,110,41
281.98947,282.15283,55,110,41
282.15994,282.32327,58,110,41
282.33038,282.49374,55,110,41
282.50085,282.66418,58,110,41
282.6713,282.83466,55,110,41
282.84174,283.0051,58,110,41
283.0122,283.17557,56,110,41
283.18265,283.346,58,110,41
283.35312,283.51648,56,110,41
283.52356,283.68692,58,110,41
283.69403,283.85736,56,110,41
283.86447,284.02783,58,110,41
284.03494,284.53918,51,120,41
285.05765,285.56192,50,120,41
288.12585,288.6301,54,70,41
289.14856,289.65283,53,70,41
292.21674,292.721,54,50,41
293.23947,293.74374,61,50,41
296.30765,296.81192,54,120,41
297.33038,297.83466,54,120,41
302.10312,302.43692,59,50,41
302.44403,303.1346,58,50,41
303.14206,303.52924,61,50,41
303.5379,304.24832,59,50,41
308.0591,308.3929,60,50,41
308.40002,309.09064,59,50,41
309.09808,309.48523,62,50,41
309.4939,313.5777,60,50,41
313.5848,317.6686,58,50,41
317.67572,319.71408,60,50,41
319.7212,320.055,56,50,41
320.06207,320.3959,51,50,41
320.40298,321.0777,60,50,41
321.0848,321.4186,57,50,41
321.42572,321.75952,63,50,41
321.76663,322.10043,60,50,41
322.10754,322.44135,57,50,41
322.44846,322.78226,63,50,41
323.81207,324.1459,60,50,41
324.15298,324.4868,53,50,41
324.4939,324.8277,63,50,41
325.51663,325.85043,61,50,41
325.85754,326.20724,60,50,41
326.2147,326.58188,53,50,41
326.5897,326.9867,63,50,41
326.9954,327.36258,61,50,41
327.7192,328.0608,53,50,41
328.4169,328.75845,53,50,41
329.11456,329.45615,53,50,41
329.81226,330.1538,53,50,41
330.50992,330.85147,53,50,41
331.20758,331.54916,54,50,41
331.90527,332.24683,54,55,41
332.60294,332.94452,54,61,41
333.3006,333.64218,54,66,41
333.9983,334.33984,54,72,41
334.69595,335.03754,54,78,41
335.39365,335.7352,67,83,41
335.74246,336.4329,67,86,41
336.44016,337.13055,67,92,41
337.13782,337.84467,67,98,41
337.8521,338.55896,64,110,41
338.56638,339.30856,64,110,41
339.31638,339.73602,64,110,41
340.7271,341.03308,61,70,41
341.0396,341.34558,54,70,41
341.3521,341.65808,64,70,41
342.2896,342.59558,62,70,41
342.6021,342.90808,61,70,41
342.9146,343.2484,54,70,41
343.25552,343.64267,64,70,41
343.65134,343.98514,62,50,41
344.33316,344.66696,66,50,41
345.01498,345.3488,66,50,41
345.6968,346.0306,66,50,41
346.37863,346.71243,66,50,41
347.06042,347.39426,66,50,41
347.74225,348.07605,69,50,41
348.08316,348.75787,69,52,41
348.76498,349.4397,69,57,41
349.4468,350.12152,69,62,41
350.1286,350.80334,69,67,41
350.81042,351.48514,69,72,41
351.49225,351.82605,69,77,41
351.83316,352.16696,67,80,41
352.17407,352.8488,67,83,41
352.8559,353.5306,67,88,41
353.53772,353.87152,67,93,41
353.8786,354.21243,62,95,41
353.8786,354.21243,65,95,41
354.2195,354.89423,62,98,41
354.2195,354.89423,65,98,41
354.90134,355.57605,62,103,41
354.90134,355.57605,65,103,41
355.58316,356.25787,62,108,41
355.58316,356.25787,65,108,41
356.26498,356.9397,62,110,41
356.26498,356.9397,65,110,41
356.9468,357.62152,62,110,41
356.9468,357.62152,65,110,41
357.6286,357.9783,62,110,41
357.6286,357.9783,65,110,41
357.98575,358.33545,62,110,41
357.98575,358.33545,55,110,41
358.3429,359.04974,55,110,41
358.3429,359.04974,62,110,41
359.0572,359.79938,55,110,41
359.0572,359.79938,62,110,41
359.8072,360.21518,55,110,41
359.8072,360.21518,62,110,41
360.22385,360.9011,60,120,41
360.22385,360.9011,48,120,41
361.23398,361.55328,55,120,41
361.23398,361.55328,67,120,41
361.7231,361.87936,76,120,41
361.88614,362.0424,74,120,41
362.0492,362.20544,76,120,41
362.21225,362.3685,74,120,41
362.37527,362.53152,72,120,41
362.53833,362.69458,71,120,41
362.70135,362.8576,72,120,41
362.8644,363.02066,71,120,41
363.02747,363.18372,69,120,41
363.1905,363.34674,67,120,41
363.35355,363.5098,69,120,41
363.51657,363.67282,67,120,41
363.67963,363.83588,65,120,41
363.84268,363.99893,64,120,41
364.0057,364.16196,65,120,41
364.16876,364.325,64,120,41
364.3318,364.48804,62,120,41
364.49484,364.6511,64,120,41
364.6579,364.81415,67,120,41
364.82092,364.97717,65,120,41
364.98398,365.14023,64,120,41
365.147,365.30325,62,120,41
365.31006,365.4663,64,120,41
365.4731,365.62936,65,120,41
365.63614,365.7924,64,120,41
365.7992,365.95544,62,120,41
365.96222,366.11847,64,120,41
366.12527,366.28152,62,120,41
366.28833,366.44458,60,120,41
366.45135,366.6076,59,120,41
366.6144,366.77066,60,120,41
366.77744,366.9337,59,120,41
366.9405,367.09674,57,120,41
367.10355,367.2598,55,120,41
367.26657,367.42282,57,120,41
367.42963,367.58588,55,120,41
367.59265,367.7489,53,120,41
367.7557,367.91196,52,120,41
367.91876,368.075,50,120,41
368.0818,368.56412,48,120,41
368.0818,368.56412,57,120,41
369.06006,369.37933,64,120,41
369.5492,369.70544,72,120,41
369.71222,369.86847,71,120,41
369.87527,370.03152,72,120,41
370.0383,370.19455,71,120,41
370.20135,370.3576,69,120,41
370.3644,370.52066,67,120,41
370.52744,370.6837,69,120,41
370.6905,370.84674,67,120,41
370.85352,371.00977,65,120,41
371.01657,371.17282,64,120,41
371.17963,371.33588,65,120,41
371.34265,371.4989,64,120,41
371.5057,371.66196,62,120,41
371.66873,371.82498,60,120,41
371.8318,371.98804,62,120,41
371.99484,372.1511,60,120,41
372.15787,372.31412,59,120,41
372.32092,372.47717,60,120,41
372.48395,372.6402,64,120,41
372.647,372.80325,62,120,41
372.81006,372.9663,60,120,41
372.97308,373.12933,59,120,41
373.13614,373.2924,60,120,41
373.29916,373.4554,59,120,41
373.46222,373.61847,57,120,41
373.62527,373.78152,56,120,41
373.7883,373.94455,57,120,41
373.95135,374.1076,55,120,41
374.11438,374.27063,53,120,41
374.27744,374.4337,52,120,41
374.4405,374.59674,53,120,41
374.60352,374.75977,52,120,41
374.76657,374.92282,50,120,41
374.9296,375.08585,48,120,41
375.09265,375.2489,50,120,41
375.2557,375.41904,52,110,41
375.42615,375.5895,50,97,41
375.59662,375.76773,48,84,41
375.77518,375.95486,50,70,41
375.96268,376.9783,48,50,41
376.9854,377.66013,50,50,41
377.66724,378.00104,53,50,41
378.00812,378.68286,52,50,41
378.68994,379.02374,48,50,41
379.03085,379.70557,50,50,41
379.71268,379.87604,53,50,41
379.88312,380.04648,52,50,41
380.0536,380.7283,52,50,41
381.07632,381.41013,57,50,41
381.58768,381.75104,61,60,41
381.75812,381.92148,62,60,41
381.9286,382.09195,64,60,41
382.09903,382.2624,65,60,41
382.2695,382.43286,57,60,41
382.43994,382.6033,58,60,41
382.6104,382.77374,60,60,41
382.78085,382.9442,62,60,41
382.95132,383.11465,53,60,41
383.12177,383.28513,55,60,41
383.29224,383.45557,57,60,41
383.46268,383.62604,58,60,41
383.63312,383.79648,60,60,41
383.8036,383.96695,62,60,41
383.97403,384.1374,63,60,41
384.1445,384.30783,65,60,41
384.31494,384.4783,64,60,41
384.4854,384.64874,67,60,41
384.65585,384.8192,65,60,41
384.82632,384.98965,63,60,41
384.99677,385.16013,62,60,41
385.1672,385.33057,60,60,41
385.33768,385.50104,58,60,41
385.50812,385.67148,57,60,41
385.6786,385.84195,58,60,41
385.84903,386.0124,62,60,41
386.0195,386.18283,65,60,41
386.18994,386.52374,65,60,41
386.53085,387.54648,60,60,41
387.5536,387.9033,64,60,41
387.91074,388.29724,64,60,41
388.30545,389.0123,64,60,41
389.01974,389.36945,63,60,41
389.3769,390.4409,62,60,41
390.4483,391.15515,60,60,41
391.1626,391.5123,63,60,41
391.51974,392.58374,62,60,41
392.5912,393.298,60,60,41
394.17358,394.33694,61,60,41
394.34406,394.5074,62,60,41
394.5145,394.67786,64,60,41
394.68494,394.8412,65,60,41
394.848,395.00424,57,60,41
395.01105,395.1673,58,60,41
395.17407,395.33032,60,60,41
395.33713,395.49338,62,60,41
395.50015,395.6564,53,60,41
395.6632,395.81946,55,60,41
395.82626,395.9825,57,60,41
395.9893,396.14554,58,60,41
396.15234,396.3086,53,60,41
396.31537,396.47162,55,60,41
396.47842,396.63467,57,60,41
396.64148,396.79773,58,60,41
396.8045,396.96075,53,61,41
396.96756,397.1238,55,63,41
397.13058,397.28683,57,65,41
397.29364,397.4499,58,67,41
397.4567,397.61295,53,68,41
397.61972,397.77597,55,70,41
397.78278,397.93903,57,72,41
397.9458,398.10205,58,74,41
398.10886,398.2651,53,76,41
398.2719,398.42816,55,77,41
398.43494,398.5912,57,79,41
398.598,398.75424,58,81,41
398.76102,398.91727,53,83,41
398.92407,399.08032,55,84,41
399.08713,399.24338,57,86,41
399.25015,399.4064,58,88,41
399.4132,399.56946,53,90,41
399.57623,399.73248,55,92,41
399.7393,399.89554,57,93,41
399.90234,400.0586,58,95,41
400.06537,400.22162,53,97,41
400.22842,400.38467,55,99,41
400.39145,400.5477,57,100,41
400.5545,400.66998,58,110,41
400.71756,400.83304,53,110,41
400.88058,400.9961,53,110,41
401.04364,401.15912,53,110,41
401.20667,401.32217,53,110,41
401.36972,401.4852,53,110,41
401.53278,401.64825,53,110,41
401.6958,401.8113,53,110,41
401.85886,401.97433,53,110,41
402.02188,402.1374,53,110,41
402.18494,402.3004,53,110,41
402.348,402.46347,53,110,41
402.51102,404.12106,74,127,41
404.14145,404.1958,62,110,41
404.1958,404.25015,64,110,41
404.25015,404.3045,62,110,41
404.3045,404.38602,60,110,41
404.38602,404.46075,62,110,41
404.46756,404.58304,60,110,41
404.63058,404.74606,52,110,41
404.63058,404.74606,55,110,41
404.79364,404.90912,52,110,41
404.79364,404.90912,55,110,41
404.95667,405.07217,52,110,41
404.95667,405.07217,55,110,41
405.11972,405.2352,52,110,41
405.11972,405.2352,55,110,41
405.28278,405.39825,52,110,41
405.28278,405.39825,55,110,41
405.4458,405.56128,52,110,41
405.4458,405.56128,55,110,41
405.60886,405.72433,52,110,41
405.60886,405.72433,55,110,41
405.77188,405.8874,52,110,41
405.77188,405.8874,55,110,41
405.93494,406.0504,52,110,41
405.93494,406.0504,55,110,41
406.098,406.21347,52,110,41
406.098,406.21347,55,110,41
406.26102,406.3765,52,110,41
406.26102,406.3765,55,110,41
406.42407,408.03412,76,127,41
408.0545,408.10886,64,110,41
408.10886,408.16318,65,110,41
408.16318,408.21753,64,110,41
408.21753,408.29907,62,110,41
408.29907,408.37378,64,110,41
408.38058,408.49606,62,110,41
408.54364,408.65912,53,110,41
408.54364,408.65912,57,110,41
408.70667,408.82214,53,110,41
408.70667,408.82214,57,110,41
408.86972,408.9852,53,110,41
408.86972,408.9852,57,110,41
409.03275,409.14825,53,110,41
409.03275,409.14825,57,110,41
409.1958,409.31128,53,110,41
409.1958,409.31128,57,110,41
409.35886,409.47433,53,110,41
409.35886,409.47433,57,110,41
409.52188,409.63736,53,110,41
409.52188,409.63736,57,110,41
409.68494,409.8004,53,110,41
409.68494,409.8004,57,110,41
409.84796,409.96347,53,110,41
409.84796,409.96347,57,110,41
410.01102,410.1265,53,110,41
410.01102,410.1265,57,110,41
410.17407,410.28955,53,110,41
410.17407,410.28955,57,110,41
410.3371,411.94714,66,127,41
411.96753,412.02188,66,110,41
412.02188,412.07623,67,110,41
412.07623,412.13058,66,110,41
412.13058,412.2121,64,110,41
412.2121,412.28683,66,110,41
412.2936,412.6129,64,120,41
412.61972,413.91727,64,120,41
413.92404,413.9784,62,120,41
413.9784,414.03275,64,120,41
414.03275,414.0871,62,120,41
414.0871,414.1686,60,120,41
414.1686,414.25015,62,120,41
414.25015,414.56943,60,120,41
414.9023,414.95667,59,120,41
414.95667,415.01102,60,120,41
415.01102,415.06537,59,120,41
415.06537,415.14688,57,120,41
415.14688,415.2284,59,120,41
415.2284,415.5477,57,120,41
415.88058,415.9349,55,120,41
415.9349,415.98926,57,120,41
415.98926,416.0436,55,120,41
416.0436,416.12512,54,120,41
416.12512,416.20667,55,120,41
416.20667,417.8303,54,120,41
417.8371,417.89145,52,120,41
417.89145,417.9458,54,120,41
417.9458,418.00012,52,120,41
418.00012,418.08167,51,120,41
418.08167,418.16318,52,120,41
418.16318,418.48248,51,120,41
418.81534,418.8697,51,120,41
418.8697,418.92404,52,120,41
418.92404,418.9784,51,120,41
418.9784,419.0599,49,120,41
419.0599,419.14145,51,120,41
419.14145,419.46072,52,120,41
419.7936,419.84796,58,120,41
419.84796,419.9023,59,120,41
419.9023,419.95667,58,120,41
419.95667,420.03818,57,120,41
420.03818,420.1197,58,120,41
420.1197,420.439,59,120,41
420.77188,420.8262,59,120,41
420.8262,420.88055,60,120,41
420.88055,420.9349,59,120,41
420.9349,421.01645,57,120,41
421.01645,421.09796,59,120,41
421.09796,421.41724,60,120,41
421.75012,421.80447,54,120,41
421.80447,421.85883,55,120,41
421.85883,421.91318,54,120,41
421.91318,421.9947,52,120,41
421.9947,422.0762,54,120,41
422.0762,422.3955,55,120,41
422.7284,422.78275,55,120,41
422.78275,422.8371,57,120,41
422.8371,422.89142,55,120,41
422.89142,422.97296,54,120,41
422.97296,423.05447,55,120,41
423.05447,423.37378,57,120,41
423.7377,423.79724,51,120,41
423.79724,423.85675,52,120,41
423.85675,423.9163,51,120,41
423.9163,424.00555,49,120,41
424.00555,424.09485,51,120,41
424.09485,424.8017,52,120,41
425.16626,425.3374,57,120,41
425.34485,425.5082,60,120,41
425.5153,425.67865,59,120,41
425.68576,425.84912,57,120,41
425.8562,426.02734,56,110,41
426.0348,426.21448,57,90,41
427.41547,427.57883,59,70,41
427.5859,427.74927,61,70,41
427.75638,427.9197,63,70,41
427.92682,428.09018,64,80,41
428.0973,428.26062,66,100,41
428.26773,428.94244,67,120,41
429.29047,429.45383,57,120,41
429.4609,429.62427,59,120,41
429.63138,429.7947,59,120,41
429.80182,429.96518,57,120,41
429.9723,430.13562,56,110,41
430.14273,430.3061,57,90,41
434.47525,435.5405,54,50,41
435.5483,436.19034,52,50,41
438.10513,438.43893,53,50,41
438.44604,438.77985,48,50,41
438.78693,439.12076,57,50,41
439.12784,440.14346,60,50,41
440.15057,441.1821,55,50,41
441.18954,441.8964,53,50,41
448.57486,448.90866,63,50,41
448.91577,449.24957,59,50,41
449.25668,450.2723,66,70,41
450.27942,450.61322,64,50,41
450.62033,452.86774,63,50,41
452.87595,453.5507,64,70,41
453.55777,453.89157,52,70,41
453.89868,454.5734,54,70,41
454.5805,454.74387,60,70,41
454.75095,454.9143,59,70,41
454.92142,455.59613,59,70,41
455.60324,455.93704,52,70,41
455.94415,456.61887,54,70,41
456.62595,456.7893,60,70,41
456.79642,456.95978,59,70,41
456.96686,457.64157,59,70,41
457.9896,458.6643,57,70,41
460.54642,460.70978,56,70,41
460.71686,460.88022,57,70,41
460.88733,461.05066,59,70,41
461.05777,461.22113,60,70,41
461.22824,461.39157,52,70,41
461.39868,461.56204,54,70,41
461.56915,461.73248,56,70,41
461.7396,461.90295,57,70,41
462.59186,462.75522,52,70,41
462.76233,462.92566,53,70,41
462.93277,463.09613,55,70,41
463.10324,463.26657,57,70,41
463.9555,464.11887,48,70,41
464.12595,464.2893,50,70,41
464.29642,464.45978,52,70,41
464.46686,464.63022,53,70,41
465.31915,465.48248,48,72,41
465.4896,465.65295,50,75,41
465.66003,465.8234,52,78,41
465.8305,465.98676,53,80,41
465.99353,466.14978,48,83,41
466.1566,466.31284,50,86,41
466.31964,466.4759,52,89,41
466.48267,466.63892,53,91,41
466.64572,466.80197,48,94,41
466.80875,466.965,50,97,41
466.9718,467.12805,52,99,41
467.13486,467.2911,53,100,41
467.29788,467.45413,60,100,41
467.46094,467.6172,62,100,41
467.62396,467.7802,64,100,41
467.78702,467.9025,65,100,41
467.95007,468.06555,65,100,41
468.1131,468.23386,65,100,41
468.28357,468.4043,65,100,41
468.454,468.5805,65,100,41
468.6326,468.75906,65,100,41
468.81116,468.94397,65,100,41
468.99866,469.14224,65,100,41
469.20135,470.88034,65,127,41
470.92294,470.97977,53,110,41
470.97977,471.0366,55,110,41
471.0366,471.0934,53,110,41
471.0934,471.17862,52,110,41
471.17862,471.26385,53,110,41
471.26385,471.93857,52,110,41
473.30933,474.97125,62,127,41
475.01385,475.07068,50,110,41
475.07068,475.1275,52,110,41
475.1275,475.18433,50,110,41
475.18433,475.26953,48,110,41
475.26953,475.35477,50,110,41
475.35477,476.02948,48,110,41
477.4002,477.56357,51,110,41
477.57068,477.73404,54,110,41
477.74112,477.90448,59,110,41
477.9116,478.07495,54,110,41
478.08203,478.2454,63,110,41
478.2525,478.41583,59,110,41
478.42294,478.5863,66,110,41
478.5934,478.75674,63,110,41
478.76385,478.92722,71,110,41
478.93433,479.05505,66,110,41
479.10477,479.2255,75,110,41
479.2752,479.39597,75,110,41
479.44568,481.1076,76,127,41
481.1502,481.20703,67,110,41
481.20703,481.26385,69,110,41
481.26385,481.32068,67,110,41
481.32068,481.4059,66,110,41
481.4059,481.49112,67,110,41
481.49112,481.82495,66,110,41
482.0025,482.16583,60,110,41
482.17294,482.3363,57,110,41
482.3434,482.50674,58,110,41
482.51385,482.67722,59,110,41
482.68433,482.84766,54,110,41
482.85477,483.01813,59,110,41
483.0252,483.18857,57,110,41
483.19568,483.52948,55,110,41
483.5366,483.69995,54,110,41
483.70703,483.8704,64,110,41
483.8775,484.04083,66,110,41
484.04794,484.2113,64,110,41
484.2184,484.38174,63,110,41
484.38885,484.55222,61,110,41
484.55933,484.72266,59,110,41
484.72977,484.89313,58,110,41
484.9002,485.06357,59,110,41
485.07068,485.23404,61,110,41
485.24112,485.40448,59,110,41
485.4116,485.57495,61,110,41
485.58203,485.83063,59,110,41
485.92294,486.17154,59,110,41
486.26385,486.51245,59,110,41
486.60477,486.76813,59,110,41
486.7752,486.93857,58,110,41
486.94568,487.10904,59,110,41
487.11612,487.27948,58,110,41
487.2866,487.44995,59,110,41
487.45703,487.6204,58,110,41
487.6275,487.79083,59,110,41
487.79794,487.9613,58,107,41
487.9684,488.13174,59,103,41
488.13885,488.30222,58,100,41
488.3093,488.47266,59,96,41
488.47977,488.64313,58,92,41
488.6502,488.81357,59,89,41
488.82068,488.98404,58,85,41
488.99112,489.15448,59,82,41
489.1616,489.32492,58,78,41
489.33203,489.4954,59,74,41
489.5025,489.66583,58,71,41
489.67294,489.8363,59,70,41
489.8434,490.00674,57,70,41
490.01385,490.17722,59,70,41
490.1843,490.34766,57,70,41
490.35477,490.51813,59,70,41
490.5252,490.68857,57,70,41
490.69568,490.85904,59,70,41
490.86612,491.02948,57,70,41
491.0366,491.19992,59,70,41
491.20703,491.3704,57,70,41
491.3775,491.54083,59,70,41
491.54794,491.7113,57,70,41
491.7184,491.88174,59,70,41
491.88885,492.05222,57,70,41
492.0593,492.22266,59,70,41
492.22977,492.39313,57,70,41
492.4002,492.56357,59,70,41
492.57068,492.73404,57,70,41
492.74112,492.90448,59,70,41
492.9116,493.07492,57,70,41
493.08203,493.2454,59,70,41
493.2525,493.41583,57,70,41
493.42294,493.5863,59,70,41
493.5934,493.75674,57,70,41
493.76385,493.92722,59,70,41
493.9343,494.09766,57,70,41
494.10477,494.26813,59,70,41
494.2752,494.43857,57,70,41
494.44568,494.60904,59,70,41
494.61612,494.77948,57,70,41
494.7866,494.94992,59,70,41
494.95703,495.1204,57,70,41
495.1275,495.29083,59,70,41
495.29794,495.4613,57,70,41
495.4684,495.63174,59,70,41
495.63885,495.80222,57,70,41
495.8093,495.97266,59,70,41
495.97977,496.14313,57,70,41
496.1502,496.31357,59,70,41
496.32068,496.48404,57,70,41
496.49112,496.65448,59,70,41
496.6616,496.82492,57,70,41
496.83203,496.9954,59,70,41
497.0025,497.16583,57,70,41
497.17294,497.3363,59,70,41
497.3434,497.50674,57,70,41
497.51385,497.67722,59,70,41
497.6843,497.84766,57,70,41
497.85477,498.359,59,70,41
498.36612,498.52948,63,70,41
498.5366,498.69992,61,70,41
498.70703,498.8704,64,70,41
498.8775,499.38174,63,70,41
499.38885,499.55222,66,70,41
499.5593,499.72266,65,70,41
499.72977,499.89313,68,70,41
499.9002,500.57492,66,70,41
501.94568,502.44992,63,70,41
502.45703,502.6204,66,70,41
502.6275,502.79083,65,70,41
502.79794,502.9613,68,70,41
502.96838,503.47266,66,70,41
503.47977,503.64313,69,70,41
503.6502,503.81357,68,70,41
503.82068,503.984,71,70,41
505.7119,505.8916,54,70,41
505.8994,506.0791,51,70,41
506.0869,506.25803,59,70,41
506.26547,506.4366,52,70,41
506.44403,506.61517,59,70,41
506.62262,506.79376,52,70,41
506.80118,506.97232,59,70,41
506.97977,507.15088,52,70,41
507.15833,507.32947,61,70,41
507.3369,507.50803,52,70,41
507.51547,507.6866,61,70,41
507.69403,507.86517,52,70,41
507.87262,508.0523,61,70,41
508.06012,508.24927,52,70,41
508.25748,508.42862,51,70,41
508.43607,508.60718,54,70,41
508.61462,508.78577,51,70,41
508.7932,508.96432,54,70,41
508.97177,509.1429,51,70,41
509.15033,509.32147,54,70,41
509.32892,509.67862,56,70,41
511.47177,511.64288,61,70,41
511.65033,511.82147,57,70,41
511.82892,512.00006,61,70,41
512.0075,512.1786,57,70,41
512.18604,512.3572,61,70,41
512.3646,512.53577,57,70,41
512.5432,512.7143,66,70,41
512.72174,512.8929,63,74,41
512.9003,513.0715,66,78,41
513.0789,513.25006,63,82,41
513.2575,513.4372,66,86,41
513.445,513.6247,63,90,41
513.6325,513.8122,66,94,41
513.82,513.9997,63,98,41
514.0075,514.1966,66,102,41
514.20483,514.394,63,106,41
514.4022,514.60187,66,110,41
514.61053,514.8102,63,85,41
514.8189,515.85815,64,70,41
515.8654,516.207,61,70,41
516.21423,516.3814,69,70,41
516.3887,516.5558,68,70,41
516.56305,516.7302,66,70,41
516.7375,516.90466,64,70,41
516.9119,518.3,63,70,41
518.30725,518.6488,59,70,41
518.65607,518.82324,61,70,41
518.8305,518.9977,63,70,41
519.00494,519.17206,64,70,41
519.1793,519.3465,59,70,41
519.35376,519.52094,64,70,41
519.5282,519.6953,63,70,41
519.7026,519.86975,61,70,41
519.877,520.0442,60,70,41
520.05145,520.56744,61,70,41
520.5747,520.7418,59,70,41
520.7491,520.91626,57,70,41
520.9235,521.0907,56,70,41
521.09796,521.2651,54,70,41
521.27234,521.4395,56,70,41
521.4468,521.61395,57,70,41
521.6212,521.7883,56,70,41
521.7956,521.96277,54,70,41
521.97003,522.1372,52,70,41
522.1445,522.3116,51,70,41
522.31885,522.486,59,70,41
522.4933,522.66046,58,70,41
522.6677,522.83484,59,70,41
522.84216,523.0093,59,70,41
523.01654,523.1837,59,70,41
523.191,524.2302,52,70,41
524.2375,525.62555,54,70,41
525.6328,525.9744,56,70,41
525.9817,526.3399,56,70,41
526.34753,526.70575,56,70,41
526.7134,527.09485,59,70,41
527.10297,527.511,57,70,41
529.6162,530.1205,70,120,41
530.1276,530.24835,71,100,41
530.29803,530.4188,73,100,41
530.4685,530.58923,71,100,41
530.639,531.14325,70,120,41
531.1503,531.27106,71,100,41
531.3208,531.44727,73,100,41
531.4993,531.63214,73,90,41
531.6868,532.3937,73,70,41
532.4011,533.108,72,70,41
533.1154,533.46515,71,70,41
533.4726,534.17944,69,70,41
534.1868,534.44727,68,70,41
534.544,534.8044,66,70,41
534.9011,535.608,64,70,41
535.6154,535.7951,68,70,41
535.8029,535.9826,66,70,41
535.9904,536.4947,57,120,41
536.5018,536.6225,59,100,41
536.67224,536.79297,60,100,41
536.8427,536.96344,60,100,41
537.0131,537.5174,60,120,41
537.52454,537.64526,60,100,41
537.69495,537.81573,61,100,41
537.8654,537.98615,59,100,41
538.0359,538.54016,58,120,41
538.54724,538.66797,58,100,41
538.7177,538.83844,59,100,41
538.8881,539.0089,57,100,41
539.0586,539.5706,56,120,41
539.57806,539.7046,68,100,41
539.75665,539.88947,69,100,41
539.94415,540.09174,67,100,41
540.15247,540.5022,68,100,41
540.50964,540.8593,59,90,41
540.86676,541.395,71,80,41
541.40247,541.5736,73,70,41
541.58105,541.7522,71,70,41
541.75964,541.9308,69,70,41
541.93823,542.1093,68,70,41
542.11676,542.2879,66,70,41
542.29535,543.3593,65,70,41
543.36676,544.0736,66,70,41
544.08105,544.4308,63,70,41
544.4382,544.7879,64,70,41
545.50964,545.8593,50,70,41
545.86676,546.5736,59,70,41
546.58105,547.2879,56,50,41
547.29535,548.3593,54,50,41
548.36676,549.0736,54,50,41
549.08105,549.7879,52,50,41
549.79535,550.5022,53,50,41
550.50964,551.2165,54,50,41
551.2239,551.9307,55,50,41
551.9382,552.645,55,50,41
552.65247,553.3593,55,50,41
553.36676,554.0736,55,50,41
554.08105,554.7879,55,55,41
554.79535,555.5022,55,61,41
555.50964,556.2165,58,67,41
556.2239,556.9307,58,73,41
556.9382,557.645,58,79,41
557.65247,558.3593,59,85,41
557.65247,558.3593,64,85,41
558.36676,559.0736,59,91,41
558.36676,559.0736,64,91,41
559.08105,559.82324,59,97,41
559.08105,559.82324,64,97,41
559.83105,560.57324,59,110,41
559.83105,560.57324,69,110,41
560.58105,561.3623,59,110,41
560.58105,561.3623,69,110,41
561.37054,561.7785,59,110,41
561.37054,561.7785,69,110,41
561.7872,561.96686,56,125,41
561.9747,562.13806,59,111,41
562.14514,562.3085,56,100,41
562.3156,562.47894,59,100,41
562.486,562.6494,56,100,41
562.6565,562.8198,59,100,41
562.82697,562.9903,56,100,41
562.99744,563.16077,59,100,41
563.16785,563.33124,56,100,41
563.3383,563.50165,59,100,41
563.5088,563.6721,56,100,41
563.6792,563.8426,59,100,41
563.8497,564.01306,57,125,41
564.02014,564.1835,59,111,41
564.1906,564.35394,57,100,41
564.361,564.5244,59,100,41
564.5315,564.6948,57,100,41
564.70197,564.8653,59,100,41
564.87244,565.03577,57,100,41
565.04285,565.20624,59,100,41
565.2133,565.37665,57,100,41
565.3838,565.5471,59,100,41
565.5542,565.7176,57,100,41
565.7247,565.88806,59,100,41
565.89514,566.0585,71,125,41
566.0656,566.18634,68,111,41
566.236,566.3568,64,100,41
566.4065,566.5272,59,100,41
566.57697,566.6977,56,100,41
566.74744,566.86816,59,100,41
566.91785,567.9335,52,100,41
567.9406,568.10394,71,125,41
568.111,568.2318,69,111,41
568.2815,568.4022,66,100,41
568.45197,568.5727,59,100,41
568.62244,568.74316,57,100,41
568.79285,568.9136,59,100,41
568.9633,569.97894,54,100,41
569.986,570.1494,52,125,41
570.1565,570.3198,55,111,41
570.32697,570.4903,52,100,41
570.49744,570.66077,55,100,41
570.66785,570.83124,52,100,41
570.8383,571.00165,55,100,41
571.0088,571.1721,50,100,41
571.1792,571.3426,55,100,41
571.3497,571.51306,50,100,41
571.52014,571.6835,55,100,41
571.6906,571.85394,50,100,41
571.861,572.0244,55,100,41
572.0315,572.53577,48,120,41
573.0542,573.5585,62,120,41
573.0542,573.5585,59,120,41
576.1224,576.7971,60,70,41
577.14514,577.8198,62,70,41
580.2133,580.888,60,50,41
581.236,581.91077,61,50,41
584.3042,584.97894,51,110,41
585.32697,589.41077,51,110,41
589.41785,589.75165,56,70,41
589.7588,590.0926,51,70,41
590.0997,593.50165,59,70,41
593.5088,593.8426,56,70,41
593.8497,594.1835,51,70,41
594.19055,597.5926,59,70,41
597.5997,597.9335,57,70,41
597.94055,598.2744,52,70,41
598.2815,599.638,60,70,41
599.64514,599.97894,53,70,41
599.986,600.3198,50,70,41
600.32697,600.66077,57,70,41
600.66785,601.6835,55,70,41
601.69055,602.0244,52,70,41
602.0315,602.3653,48,70,41
602.3724,602.7062,55,70,41
602.7133,603.72894,53,70,41
603.736,604.0698,59,70,41
604.07697,604.41077,53,70,41
604.41785,605.0926,62,70,41
605.0997,605.4335,52,70,41
605.44055,605.7744,60,70,41
605.7815,606.1153,52,70,41
606.1224,606.4562,60,70,41
606.4633,606.7971,52,70,41
606.8042,607.138,59,70,41
607.14514,607.47894,52,70,41
607.486,607.8198,59,70,41
607.82697,608.16077,54,70,41
608.16785,608.50165,57,70,41
608.5088,608.8426,54,70,41
608.8497,609.1835,57,50,41
609.5315,609.8653,57,50,41
610.2133,610.5471,57,50,41
610.89514,611.22894,57,50,41
611.57697,611.91077,57,50,41
612.2588,612.5926,57,50,41
612.94055,613.2744,54,50,41
612.94055,613.2744,57,50,41
613.6224,613.9562,54,53,41
613.6224,613.9562,57,53,41
614.3042,614.638,54,61,41
614.3042,614.638,57,61,41
614.986,615.3198,54,68,41
614.986,615.3198,57,68,41
615.66785,616.00165,54,76,41
615.66785,616.00165,57,76,41
616.3497,616.6835,54,83,41
616.3497,616.6835,57,83,41
617.0315,617.3653,54,91,41
617.0315,617.3653,57,91,41
617.7133,618.0471,54,98,41
617.7133,618.0471,57,98,41
618.39514,618.72894,54,106,41
618.39514,618.72894,57,106,41
619.07697,619.41077,54,120,41
619.07697,619.41077,57,120,41
619.7587,620.0926,54,120,41
619.7587,620.0926,57,120,41
620.44055,620.77435,54,120,41
620.44055,620.77435,57,120,41
621.1224,621.4562,54,120,41
621.1224,621.4562,57,120,41
621.8042,622.138,54,120,41
621.8042,622.138,57,120,41
622.486,622.8198,54,120,41
622.486,622.8198,57,120,41
623.16785,623.50165,54,120,41
623.16785,623.50165,57,120,41
623.8497,624.1835,54,120,41
623.8497,624.1835,57,120,41
624.5315,624.8653,54,120,41
624.5315,624.8653,57,120,41
625.2133,625.5549,54,120,41
625.2133,625.5549,57,120,41
625.91925,626.269,54,120,41
625.91925,626.269,57,120,41
626.6514,627.03796,54,120,41
626.6514,627.03796,57,120,41
627.04614,628.5919,54,120,41
627.04614,628.5919,57,120,41
628.59973,630.8419,54,120,41
628.59973,630.8419,57,120,41
630.84973,634.5919,54,120,41
630.84973,634.5919,57,120,41
636.47473,637.5919,64,50,41
637.59973,638.3419,66,50,41
638.34973,638.5294,72,50,41
638.53723,638.7169,71,50,41
638.72473,639.4669,71,50,41
639.47473,639.8419,64,50,41
639.84973,640.5919,66,50,41
640.59973,640.7794,72,50,41
640.78723,640.9669,71,50,41
640.97473,641.7169,71,50,41
642.0906,642.80615,69,50,41
646.4847,646.65186,57,50,41
646.6591,646.82623,60,50,41
646.8335,647.0007,57,50,41
647.00793,647.1751,60,50,41
647.1824,647.3495,57,50,41
647.5312,647.69836,55,51,41
647.7056,647.87274,59,52,41
647.88,648.0472,55,53,41
648.05444,648.2216,59,54,41
648.2289,648.396,55,55,41
648.5777,648.7449,54,57,41
648.75214,648.91925,59,59,41
648.9265,649.0937,54,60,41
649.10095,649.2681,59,61,41
649.2754,649.4425,54,62,41
649.6242,649.7914,55,64,41
649.79865,649.96576,59,65,41
649.973,650.1402,55,66,41
650.14746,650.31464,59,68,41
650.3219,650.489,55,69,41
650.6707,650.8379,57,71,41
650.84515,651.01227,60,72,41
651.01953,651.1867,57,73,41
651.194,651.36115,60,74,41
651.3684,651.5355,57,76,41
651.7172,651.8844,55,78,41
651.89166,652.0588,59,79,41
652.06604,652.2332,55,80,41
652.2405,652.40765,59,81,41
652.4149,652.58203,55,82,41
652.76373,652.9309,54,85,41
652.9382,653.1053,59,86,41
653.11255,653.2797,54,87,41
653.287,653.45416,59,88,41
653.4614,653.62854,54,89,41
653.81024,653.9774,64,91,41
653.9847,654.1518,67,92,41
654.15906,654.32623,64,94,41
654.3335,654.5007,67,95,41
654.50793,654.67505,64,96,41
654.85675,655.0239,60,98,41
655.0312,655.1983,65,99,41
655.2056,655.37274,60,100,41
655.38,655.55115,65,102,41
655.5586,655.72974,60,103,41
655.9157,656.08685,59,105,41
656.0943,656.26544,64,106,41
656.2729,656.44403,59,107,41
656.4514,656.62256,64,108,41
656.63,656.80115,59,109,41
656.8086,656.97974,66,110,41
656.9872,657.15826,59,110,41
657.1657,657.33685,66,110,41
657.3443,657.51544,59,110,41
657.5229,657.69403,66,110,41
657.7014,657.87256,59,110,41
657.88,658.22974,64,120,41
658.2372,658.58685,59,120,41
658.5943,658.94403,67,120,41
658.9514,660.19403,71,120,41
660.2014,660.37256,72,120,41
660.38,660.55115,69,120,41
660.5586,660.72974,66,120,41
660.7372,660.90826,63,120,41
660.9157,661.08685,59,120,41
661.0943,661.444,64,115,41
661.4514,662.15826,57,99,41
662.1657,662.51544,55,70,41
662.5229,663.22974,57,70,41
663.2372,663.6044,55,70,41
663.6122,664.38416,57,70,41
664.3929,665.2175,55,70,41
665.6429,666.63245,55,70,41
667.1429,668.63245,52,70,41
0.0,0.50426126,52,110,42
1.022727,1.5269883,51,110,42
3.545454,3.8792608,52,50,42
3.886363,4.2201695,47,50,42
4.227272,4.5610785,55,50,42
4.568181,6.281519,59,50,42
6.2889595,6.656147,47,50,42
6.6639595,7.283751,40,50,42
9.0389595,9.3727665,41,50,42
9.3798685,9.7136755,36,50,42
9.7207775,10.0545845,45,50,42
10.0616865,11.775024,48,50,42
11.782465,12.1496525,48,50,42
12.157465,12.777257,41,50,42
16.577919,18.825333,63,70,42
19.856283,20.19009,45,70,42
20.197191,20.530998,42,70,42
20.538101,21.942997,48,70,42
21.950438,23.126423,47,70,42
23.134647,27.218452,47,70,42
27.225555,27.559362,52,70,42
28.248281,28.582088,45,70,42
33.77925,34.128956,46,76,42
34.136395,34.486095,46,82,42
34.493538,34.84324,47,88,42
34.85068,35.21787,47,94,42
35.22568,35.62264,47,100,42
35.631084,36.15936,48,110,42
36.70251,37.230785,39,110,42
39.27394,41.31229,52,70,42
41.319393,43.357746,52,70,42
43.36485,44.039562,52,70,42
44.387573,45.06229,45,70,42
47.97901,48.146164,41,90,42
48.15343,48.326622,43,91,42
48.334152,48.507343,45,92,42
48.514874,48.68807,47,94,42
48.6956,48.86879,48,95,42
48.87632,49.056007,50,96,42
49.06382,49.196632,52,98,42
49.25132,49.384132,53,99,42
49.43882,49.571632,45,100,42
49.62632,49.74706,43,120,42
49.796776,49.917515,43,120,42
49.967228,50.087967,43,120,42
50.137684,50.258423,43,120,42
50.30814,50.42888,43,120,42
50.478592,50.59933,43,120,42
50.649048,50.769787,43,120,42
50.819504,50.94024,43,120,42
50.989956,51.110695,43,120,42
51.16041,51.28115,43,120,42
51.330864,51.451603,43,120,42
51.50132,51.62206,43,120,42
51.671776,52.34649,48,120,42
53.717228,53.837967,42,120,42
53.887684,54.008423,42,120,42
54.058136,54.178875,42,120,42
54.228592,54.34933,42,120,42
54.399048,54.519787,42,120,42
54.5695,54.69024,42,120,42
54.739956,54.860695,42,120,42
54.91041,55.031147,42,120,42
55.080864,55.201603,42,120,42
55.25132,55.37206,42,120,42
55.421772,55.54251,42,120,42
55.592228,55.712967,42,120,42
55.762684,56.437397,43,120,42
57.808136,57.928875,39,110,42
57.978592,58.09933,39,110,42
58.149044,58.269783,39,110,42
58.3195,58.44024,39,110,42
58.489956,58.610695,39,110,42
58.660408,58.781147,39,110,42
58.830864,58.951603,39,110,42
59.00132,59.122055,39,110,42
59.171772,59.29251,39,110,42
59.342228,59.462967,39,110,42
59.51268,59.63342,39,110,42
59.683136,59.803875,39,110,42
59.853592,61.380577,38,110,42
61.38768,61.551033,39,110,42
61.558136,61.72149,36,110,42
61.728592,61.89194,37,110,42
61.899044,63.426033,38,110,42
63.433136,63.59649,45,110,42
63.60359,63.76694,38,110,42
63.774044,63.937397,45,110,42
63.9445,64.10785,38,110,42
64.11495,64.278305,37,110,42
64.28541,64.44876,38,110,42
64.455864,64.61922,37,110,42
64.62632,64.789665,38,110,42
64.79677,64.96012,37,110,42
64.967224,68.497055,38,110,42
68.54677,68.71012,42,70,42
68.717224,68.88058,40,70,42
68.88768,69.05103,43,70,42
69.058136,69.56239,42,70,42
69.569496,69.73285,45,70,42
69.73995,69.903305,44,70,42
69.91041,70.07376,47,70,42
70.080864,70.75558,45,70,42
72.12631,72.63058,42,70,42
72.63768,72.80103,45,70,42
72.808136,72.97148,44,70,42
72.978584,73.14194,47,70,42
73.14904,73.653305,45,70,42
73.66041,73.82376,48,70,42
73.83086,73.99421,47,70,42
74.00131,74.164665,50,70,42
74.17177,74.84648,48,70,42
75.87631,76.21012,48,70,42
76.217224,76.89194,47,70,42
77.23995,77.914665,48,70,42
78.26268,78.93739,50,70,42
79.2854,79.61921,43,70,42
79.79677,79.96012,64,70,42
79.967224,80.13058,62,70,42
80.13768,80.301025,60,70,42
80.30813,81.32375,59,70,42
81.33086,82.00558,60,70,42
82.01267,82.18381,60,70,42
82.191246,82.36238,64,70,42
82.36982,82.54095,66,70,42
82.54839,82.71952,69,73,42
82.72696,82.898094,66,76,42
82.90553,83.07666,69,79,42
83.08411,83.263794,66,82,42
83.27161,83.451294,69,85,42
83.45911,83.64825,66,88,42
83.65647,83.84562,69,91,42
83.853836,84.05349,66,94,42
84.06217,84.261826,69,97,42
84.27051,84.48831,66,100,42
84.49778,84.71558,69,85,42
84.72505,85.78904,67,70,42
85.79648,86.860466,60,70,42
86.867905,87.03904,62,70,42
87.04648,87.217606,54,70,42
87.22505,87.39618,57,70,42
87.40362,87.57475,55,70,42
87.58219,87.75332,54,70,42
87.760765,87.93189,52,70,42
87.93933,89.00332,50,70,42
89.01076,90.074745,55,70,42
90.08219,90.25332,48,70,42
90.26076,90.43189,50,70,42
90.43933,90.61046,48,70,42
90.617905,90.78903,47,70,42
90.79647,90.967606,45,70,42
90.975044,91.14618,43,70,42
91.15362,91.324745,42,70,42
91.332184,91.50332,43,70,42
91.51076,91.68189,45,70,42
91.68933,91.86046,43,70,42
91.867905,92.03903,42,70,42
92.04647,92.217606,40,70,42
92.225044,92.39617,38,70,42
92.40362,92.574745,50,70,42
92.582184,92.75332,49,70,42
92.76076,92.931885,50,70,42
92.93933,93.11046,52,70,42
93.1179,93.28903,54,70,42
93.29647,94.36046,55,70,42
94.3679,95.78903,49,70,42
95.79647,96.14617,50,76,42
96.15361,96.5208,50,83,42
96.52861,96.8958,50,90,42
96.90361,97.29012,50,97,42
97.29835,97.70634,50,104,42
97.71501,98.2989,51,120,42
98.30712,98.44692,50,100,42
98.504486,98.630974,48,100,42
98.68306,98.803795,50,100,42
98.853516,99.35777,51,120,42
99.364876,99.48562,50,100,42
99.53533,99.65607,48,100,42
99.70579,99.82652,48,100,42
102.6909,103.0406,42,100,42
103.04804,103.39775,43,100,42
103.40519,103.75489,45,100,42
103.76233,104.11203,47,100,42
104.11948,104.46918,48,100,42
104.476616,104.82632,50,100,42
104.833755,105.183464,52,100,42
105.1909,106.348885,50,100,42
106.35757,106.88584,51,120,42
106.89328,107.01977,50,100,42
107.07185,107.19834,48,100,42
107.25043,107.376915,48,100,42
107.42899,107.95727,47,120,42
107.96471,108.091194,47,100,42
108.14328,108.26977,47,100,42
108.32185,108.44834,46,100,42
108.50042,109.028694,45,120,42
109.03613,109.16262,45,100,42
109.21471,109.341194,45,100,42
109.39328,109.51977,44,100,42
109.571846,110.10868,43,120,42
110.11649,110.249306,43,100,42
110.30399,110.44198,36,100,42
110.498795,110.64238,36,100,42
110.7015,111.0512,38,105,42
115.34435,115.69405,38,70,42
115.70149,117.83691,50,70,42
117.84435,118.90834,49,50,42
118.91578,119.62262,48,50,42
119.630066,120.33691,47,50,42
120.344345,121.05119,47,50,42
121.05863,121.76548,48,50,42
121.77292,122.47976,49,50,42
122.487206,123.194046,50,50,42
123.201485,123.90833,51,50,42
123.91577,124.62262,52,50,42
124.63006,125.3369,52,55,42
125.344345,126.051186,52,61,42
126.058624,126.76547,51,67,42
126.77291,127.47976,51,73,42
127.4872,128.19405,51,79,42
128.20148,128.90833,50,85,42
128.91577,129.6226,50,91,42
129.63005,130.37224,50,97,42
130.38005,131.12224,38,110,42
131.13005,131.9113,38,110,42
131.91953,132.33917,38,110,42
132.3481,132.52779,43,125,42
132.5356,132.69185,38,115,42
132.69864,132.85489,43,110,42
132.86168,133.01793,38,110,42
133.02472,133.18097,43,110,42
133.18777,133.34402,38,110,42
133.35081,133.50706,43,110,42
133.51385,133.6701,38,110,42
133.6769,133.83315,43,110,42
133.83994,133.99619,38,110,42
134.00299,134.15924,43,110,42
134.16603,134.32228,38,110,42
134.32907,134.48532,42,125,42
134.49211,134.64836,38,115,42
134.65515,134.8114,42,110,42
134.8182,134.97446,38,110,42
134.98125,135.1375,42,110,42
135.14429,135.30054,38,110,42
135.30733,135.46358,42,110,42
135.47037,135.62662,38,110,42
135.63342,135.78967,42,110,42
135.79646,135.95271,38,110,42
135.9595,136.11575,42,110,42
136.12254,136.2788,38,110,42
136.28558,136.44183,43,125,42
136.44864,136.60489,38,115,42
136.61168,136.76793,43,110,42
136.77472,136.93097,38,110,42
136.93776,137.09401,43,110,42
137.10081,137.25705,38,110,42
137.26385,137.4201,43,110,42
137.4269,137.58315,38,110,42
137.58994,137.74619,43,110,42
137.75298,137.90923,38,110,42
137.91603,138.07228,43,110,42
138.07907,138.23532,38,110,42
138.24211,138.39836,42,125,42
138.40515,138.5614,38,115,42
138.56819,138.72444,42,110,42
138.73125,138.8875,38,110,42
138.89429,139.05054,42,110,42
139.05733,139.21358,38,110,42
139.22037,139.37662,42,110,42
139.3834,139.53966,38,110,42
139.54646,139.70271,42,110,42
139.7095,139.86575,38,110,42
139.87254,140.0288,42,110,42
140.03558,140.19183,38,110,42
140.19862,140.35487,62,125,42
140.36168,140.47716,59,115,42
140.52472,140.6402,55,110,42
140.68776,140.80325,50,110,42
140.8508,140.9663,47,110,42
141.01384,141.12933,43,110,42
141.1769,141.82227,42,110,42
141.82906,142.14836,47,110,42
142.15515,142.65941,52,110,42
143.17787,143.68213,51,110,42
145.7006,146.03441,52,50,42
146.0415,146.37532,47,50,42
146.38242,146.71623,55,50,42
146.72333,148.43666,59,50,42
148.4441,148.8113,47,50,42
148.8191,149.4389,40,50,42
151.1941,151.52791,41,50,42
151.53502,151.86882,36,50,42
151.87593,152.20973,45,50,42
152.21683,153.93018,48,50,42
153.9376,154.3048,48,50,42
154.3126,154.9324,41,50,42
158.73306,160.92168,63,70,42
161.95222,162.28603,45,70,42
162.29314,162.62694,42,70,42
162.63403,164.03894,48,70,42
164.04637,165.22237,47,70,42
165.23059,169.31439,47,70,42
169.32149,169.6553,52,70,42
170.34422,170.67802,45,70,42
175.83124,176.18094,46,76,42
176.18837,176.53807,46,82,42
176.54552,176.89522,47,88,42
176.90266,177.26985,47,94,42
177.27766,177.66417,47,100,42
177.6724,178.20067,48,110,42
178.74382,179.2721,39,110,42
181.31525,183.3536,52,70,42
183.3607,185.39906,52,70,42
185.40616,186.08087,52,70,42
186.42888,187.09618,45,70,42
189.88211,190.03836,41,90,42
190.04515,190.2014,43,91,42
190.20819,190.36444,45,92,42
190.37125,190.5275,47,94,42
190.53429,190.69054,48,95,42
190.69733,190.86067,50,96,42
190.86778,190.98853,52,98,42
191.03824,191.16472,53,99,42
191.21681,191.34962,45,100,42
191.40431,191.52504,43,120,42
191.57475,191.6955,43,120,42
191.74521,191.86595,43,120,42
191.91566,192.0364,43,120,42
192.08612,192.20686,43,120,42
192.25658,192.37732,43,120,42
192.42703,192.54778,43,120,42
192.59749,192.71823,43,120,42
192.76794,192.88869,43,120,42
192.9384,193.05913,43,120,42
193.10886,193.22958,43,120,42
193.27931,193.40004,43,120,42
193.44975,194.12448,48,120,42
195.49521,195.61595,42,120,42
195.66566,195.7864,42,120,42
195.83612,195.95686,42,120,42
196.00658,196.12732,42,120,42
196.17703,196.29778,42,120,42
196.34749,196.46823,42,120,42
196.51794,196.63867,42,120,42
196.6884,196.80913,42,120,42
196.85886,196.97958,42,120,42
197.0293,197.15004,42,120,42
197.19975,197.3205,42,120,42
197.37021,197.49095,42,120,42
197.54066,198.21538,43,120,42
199.58612,199.70686,39,110,42
199.75658,199.87732,39,110,42
199.92703,200.04778,39,110,42
200.09749,200.21823,39,110,42
200.26794,200.38867,39,110,42
200.4384,200.55913,39,110,42
200.60886,200.72958,39,110,42
200.7793,200.90004,39,110,42
200.94975,201.0705,39,110,42
201.12021,201.24095,39,110,42
201.29066,201.4114,39,110,42
201.46112,201.58186,39,110,42
201.63158,203.15857,38,110,42
203.16566,203.32903,39,110,42
203.33612,203.49947,36,110,42
203.50658,203.66992,37,110,42
203.67703,205.20403,38,110,42
205.21112,205.37447,45,110,42
205.38158,205.54492,38,110,42
205.55203,205.71538,45,110,42
205.72249,205.88583,38,110,42
205.89294,206.05629,37,110,42
206.0634,206.22675,38,110,42
206.23384,206.3972,37,110,42
206.4043,206.56766,38,110,42
206.57475,206.73811,37,110,42
206.74521,210.27504,38,110,42
210.32475,210.48811,42,70,42
210.49521,210.65857,40,70,42
210.66566,210.82901,43,70,42
210.83612,211.34038,42,70,42
211.34749,211.51083,45,70,42
211.51794,211.68129,44,70,42
211.68839,211.85175,47,70,42
211.85884,212.53355,45,70,42
213.9043,214.40855,42,70,42
214.41566,214.57901,45,70,42
214.58612,214.74947,44,70,42
214.75658,214.91992,47,70,42
214.92703,215.43129,45,70,42
215.43839,215.60175,48,70,42
215.60884,215.7722,47,70,42
215.7793,215.94266,50,70,42
215.94975,216.62447,48,70,42
217.6543,217.9881,48,70,42
217.99521,218.66992,47,70,42
219.01793,219.69266,48,70,42
220.04066,220.71538,50,70,42
221.06339,221.3972,43,70,42
221.57475,221.7381,64,70,42
221.74521,221.90855,62,70,42
221.91566,222.07901,60,70,42
222.08612,223.10175,59,70,42
223.10884,223.78355,60,70,42
223.79066,223.95401,60,70,42
223.96112,224.12447,64,70,42
224.13158,224.29492,66,80,42
224.30202,224.46538,69,83,42
224.47247,224.63583,66,86,42
224.64293,224.80629,69,89,42
224.81339,224.98451,66,92,42
224.99196,225.16309,69,95,42
225.17053,225.34166,66,98,42
225.3491,225.52023,69,101,42
225.52768,225.70737,66,104,42
225.71518,225.89487,69,107,42
225.90268,226.10233,66,110,42
226.11101,226.31065,69,95,42
226.31934,227.38333,67,80,42
227.39076,228.45476,60,80,42
228.46219,228.63333,62,70,42
228.64076,228.81189,54,70,42
228.81934,228.99046,57,70,42
228.99791,229.16904,55,70,42
229.17648,229.34761,54,70,42
229.35506,229.52618,52,70,42
229.53362,230.59761,50,70,42
230.60506,231.66904,55,70,42
231.67648,231.84761,48,70,42
231.85504,232.02618,50,70,42
232.03362,232.20474,48,70,42
232.21219,232.38332,47,70,42
232.39076,232.56189,45,70,42
232.56934,232.74046,43,70,42
232.74791,232.91904,42,70,42
232.92647,233.09761,43,70,42
233.10504,233.27618,45,70,42
233.28362,233.45474,43,70,42
233.46219,233.63332,42,70,42
233.64076,233.81189,40,70,42
233.81934,233.99046,38,70,42
233.99791,234.16904,50,70,42
234.17647,234.35616,49,70,42
234.36397,234.54366,50,70,42
234.55147,234.74062,52,70,42
234.74884,234.93799,54,70,42
234.94621,236.0102,55,70,42
236.01764,237.43877,49,70,42
237.44621,237.79591,50,76,42
237.80334,238.17053,50,83,42
238.17834,238.54553,50,90,42
238.55334,238.93987,50,97,42
238.94809,239.35608,50,104,42
239.36476,239.91945,51,120,42
239.92726,240.04799,50,100,42
240.0977,240.21844,48,100,42
240.26816,240.3889,50,100,42
240.43861,240.94287,51,120,42
240.94998,241.07072,50,100,42
241.12044,241.24118,48,100,42
241.2909,241.41162,48,100,42
244.24625,244.59595,42,100,42
244.6034,244.9531,43,100,42
244.96053,245.31023,45,100,42
245.31767,245.66737,47,100,42
245.67482,246.02452,48,100,42
246.03195,246.38165,50,100,42
246.3891,246.7388,52,100,42
246.74625,247.90424,50,100,42
247.9129,248.46759,51,120,42
248.4754,248.59615,50,100,42
248.64586,248.7666,48,100,42
248.81631,248.93706,48,100,42
248.98677,249.49103,47,120,42
249.49814,249.61888,47,100,42
249.6686,249.78934,47,100,42
249.83905,249.95978,46,100,42
250.0095,250.51376,45,120,42
250.52086,250.6416,45,100,42
250.69131,250.81781,45,100,42
250.86989,250.99638,44,100,42
251.04846,251.57674,43,120,42
251.58417,251.71066,43,100,42
251.76274,251.89555,36,100,42
251.95024,252.09383,36,100,42
252.15295,252.50266,38,105,42
256.7958,257.1455,38,70,42
257.15295,259.28836,50,70,42
259.2958,260.35977,49,50,42
260.36722,261.07407,48,50,42
261.0815,261.78836,47,50,42
261.7958,262.50266,47,50,42
262.51007,263.21692,48,50,42
263.22437,263.9312,49,50,42
263.93866,264.6455,50,50,42
264.65292,265.35977,51,50,42
265.36722,266.07407,52,50,42
266.0815,266.78836,52,55,42
266.79578,267.50262,52,61,42
267.51007,268.21692,51,67,42
268.22437,268.9312,51,73,42
268.93866,269.64548,51,79,42
269.65292,270.35977,50,85,42
270.36722,271.07407,50,91,42
271.0815,271.8237,50,97,42
271.8315,272.5737,38,110,42
272.5815,273.36276,38,110,42
273.37097,273.79062,38,110,42
273.79953,273.97067,43,125,42
273.97812,274.14148,38,115,42
274.14856,274.31192,43,110,42
274.31903,274.4824,38,110,42
274.48947,274.65283,43,110,42
274.65994,274.82327,38,110,42
274.83038,274.99374,43,110,42
275.00085,275.16418,38,110,42
275.1713,275.33466,43,110,42
275.34177,275.5051,38,110,42
275.5122,275.67557,43,110,42
275.68265,275.846,38,110,42
275.85312,276.01648,42,125,42
276.02356,276.18692,38,115,42
276.19403,276.3574,42,110,42
276.36447,276.52783,38,110,42
276.53494,276.69827,42,110,42
276.70538,276.86874,38,110,42
276.87585,277.03918,42,110,42
277.0463,277.20966,38,110,42
277.21677,277.3801,42,110,42
277.3872,277.55057,38,110,42
277.55765,277.721,42,110,42
277.72812,277.89148,38,110,42
277.89856,278.06192,43,125,42
278.06903,278.23236,38,115,42
278.23947,278.40283,43,110,42
278.40994,278.57327,38,110,42
278.58038,278.74374,43,110,42
278.75085,278.91418,38,110,42
278.9213,279.08466,43,110,42
279.09174,279.2551,38,110,42
279.2622,279.42557,43,110,42
279.43265,279.596,38,110,42
279.60312,279.76648,43,110,42
279.77356,279.93692,38,110,42
279.94403,280.10736,42,125,42
280.11447,280.27783,38,115,42
280.28494,280.44827,42,110,42
280.45538,280.61874,38,110,42
280.62585,280.78918,42,110,42
280.7963,280.95966,38,110,42
280.96674,281.1301,42,110,42
281.1372,281.30057,38,110,42
281.30765,281.471,42,110,42
281.47812,281.64148,38,110,42
281.64856,281.81192,42,110,42
281.81903,281.98236,38,110,42
281.98947,282.15283,62,110,42
282.15994,282.28067,58,110,42
282.33038,282.4511,55,110,42
282.50085,282.62158,50,110,42
282.6713,282.79202,46,110,42
282.84174,282.9625,43,110,42
283.0122,283.68692,41,110,42
283.69403,284.02783,47,110,42
284.03494,284.53918,39,120,42
285.05765,285.56192,38,120,42
288.12585,288.6301,51,70,42
289.14856,289.65283,50,70,42
292.21674,292.721,51,50,42
293.23947,293.74374,49,50,42
296.30765,296.81192,47,120,42
297.33038,297.83466,46,120,42
300.39856,300.73236,47,50,42
300.73947,301.07327,42,50,42
301.08038,301.41418,50,50,42
301.4213,303.52924,54,50,42
303.5379,304.24832,55,50,42
306.35458,306.6884,48,50,42
306.69547,307.0293,43,50,42
307.03638,307.37018,51,50,42
307.3773,309.48523,55,50,42
309.4939,311.53226,56,50,42
311.53937,311.87317,44,50,42
311.88028,312.21408,39,50,42
312.2212,312.555,48,50,42
312.5621,313.9186,51,50,42
313.92572,314.08908,53,50,42
314.0962,314.25952,49,50,42
314.26663,314.43,46,50,42
314.43707,314.60043,43,50,42
314.60754,314.94135,41,50,42
314.94846,315.19702,39,50,42
315.28937,315.53793,39,50,42
315.63028,315.96408,46,50,42
315.9712,316.305,39,50,42
316.31207,316.6459,49,50,42
316.65298,318.00952,51,50,42
318.01663,318.18,60,50,42
318.18707,318.35043,56,50,42
318.35754,318.5209,51,50,42
318.52798,318.69135,48,50,42
318.69846,319.03226,46,50,42
319.03937,319.28793,44,50,42
319.38028,319.62885,44,50,42
319.7212,320.055,44,50,42
320.06207,320.31067,42,50,42
320.40298,320.65158,42,50,42
320.7439,321.0777,42,50,42
321.0848,321.3334,41,50,42
321.42572,321.67432,41,50,42
321.76663,322.0152,41,50,42
322.10754,322.3561,41,50,42
322.44846,322.69702,41,50,42
322.78937,327.36258,41,50,42
327.7192,328.0608,41,50,42
328.4169,328.75845,41,50,42
329.11456,329.45615,41,50,42
329.81226,330.1538,41,50,42
330.50992,330.85147,41,50,42
331.20758,331.54916,42,50,42
331.90527,332.24683,42,55,42
332.60294,332.94452,42,61,42
333.3006,333.64218,42,66,42
333.9983,334.33984,42,72,42
334.69595,335.03754,42,78,42
335.39365,335.7352,54,83,42
336.0913,336.4329,54,89,42
336.78897,337.13055,54,95,42
337.49496,337.84467,54,100,42
338.20926,338.55896,54,110,42
338.94138,339.30856,54,110,42
339.74496,343.64267,54,70,42
343.65134,343.98514,54,50,42
344.33316,344.66696,54,50,42
345.01498,345.3488,54,50,42
345.6968,346.0306,54,50,42
346.37863,346.71243,54,50,42
347.06042,347.39426,54,50,42
347.74225,348.07605,54,50,42
348.42407,348.75787,54,55,42
349.1059,349.4397,54,60,42
349.78772,350.12152,54,65,42
350.4695,350.80334,54,70,42
351.15134,351.48514,54,75,42
351.83316,352.16696,53,80,42
352.51498,352.8488,53,85,42
353.1968,353.5306,53,90,42
353.8786,354.21243,50,95,42
354.56042,354.89423,50,100,42
355.24225,355.57605,50,105,42
355.92407,356.25787,47,110,42
356.6059,356.9397,47,110,42
357.28772,357.62152,47,110,42
357.98575,358.33545,43,110,42
358.70004,359.04974,43,110,42
359.4322,359.79938,43,110,42
360.22385,360.9011,36,120,42
361.23398,361.7163,43,120,42
364.16876,364.325,60,120,42
364.3318,364.48804,59,120,42
364.49484,364.6511,60,120,42
364.6579,364.81415,64,120,42
364.82092,364.97717,62,120,42
364.98398,365.14023,60,120,42
365.147,365.30325,59,120,42
365.31006,365.4663,60,120,42
365.4731,365.62936,62,120,42
365.63614,365.7924,60,120,42
365.7992,365.95544,59,120,42
365.96222,366.11847,60,120,42
366.12527,366.28152,59,120,42
366.28833,366.44458,57,120,42
366.45135,366.6076,55,120,42
366.6144,366.77066,57,120,42
366.77744,366.9337,55,120,42
366.9405,367.09674,53,120,42
367.10355,367.2598,52,120,42
367.26657,367.42282,53,120,42
367.42963,367.58588,52,120,42
367.59265,367.7489,50,120,42
367.7557,367.91196,48,120,42
367.91876,368.075,47,120,42
368.0818,368.56412,45,120,42
369.06006,369.5424,52,120,42
371.99484,372.1511,57,120,42
372.15787,372.31412,56,120,42
372.32092,372.47717,57,120,42
372.48395,372.6402,60,120,42
372.647,372.80325,59,120,42
372.81006,372.9663,57,120,42
372.97308,373.12933,56,120,42
373.13614,373.2924,57,120,42
373.29916,373.4554,56,120,42
373.46222,373.61847,53,120,42
373.62527,373.78152,52,120,42
373.7883,373.94455,53,120,42
373.95135,374.1076,52,120,42
374.11438,374.27063,50,120,42
374.27744,374.4337,48,120,42
374.4405,374.59674,50,120,42
374.60352,374.75977,48,120,42
374.76657,374.92282,47,120,42
374.9296,375.08585,45,120,42
375.09265,375.2489,47,120,42
375.2557,375.41904,48,110,42
375.42615,375.5895,47,97,42
375.59662,375.76773,45,84,42
375.77518,375.95486,47,70,42
375.96268,380.04648,45,50,42
380.0536,380.7283,45,50,42
381.07632,381.75104,38,50,42
386.53085,386.86465,50,60,42
386.87177,387.20557,50,60,42
387.21268,387.54648,52,60,42
387.5536,387.9033,52,60,42
387.91074,388.29724,52,60,42
388.30545,388.83374,57,60,42
388.8412,389.0123,57,60,42
389.01974,389.1909,60,60,42
389.19833,389.36945,57,60,42
389.3769,390.61945,56,60,42
390.6269,390.79803,57,60,42
390.80545,390.9766,59,60,42
390.98404,391.15515,57,60,42
391.1626,391.33374,60,60,42
391.3412,391.5123,57,60,42
391.51974,392.7623,56,60,42
392.76974,392.9409,56,60,42
392.9483,393.11945,57,60,42
393.1269,393.298,59,60,42
393.30545,393.4726,60,60,42
393.4799,393.64703,52,60,42
393.6543,393.82144,53,60,42
393.8287,393.99585,55,60,42
394.00314,394.16647,57,60,42
394.17358,394.33694,49,60,42
394.34406,394.5074,50,60,42
394.5145,394.67786,52,60,42
394.68494,394.8412,53,60,42
394.848,395.00424,45,60,42
395.01105,395.1673,46,60,42
395.17407,395.33032,48,60,42
395.33713,395.49338,50,60,42
395.50015,395.6564,41,60,42
395.6632,395.81946,43,60,42
395.82626,395.9825,45,60,42
395.9893,396.14554,46,60,42
396.15234,396.3086,41,60,42
396.31537,396.47162,43,60,42
396.47842,396.63467,45,60,42
396.64148,396.79773,46,60,42
396.8045,396.96075,41,61,42
396.96756,397.1238,43,63,42
397.13058,397.28683,45,65,42
397.29364,397.4499,46,67,42
397.4567,397.61295,41,68,42
397.61972,397.77597,43,70,42
397.78278,397.93903,45,72,42
397.9458,398.10205,46,74,42
398.10886,398.2651,41,76,42
398.2719,398.42816,43,77,42
398.43494,398.5912,45,79,42
398.598,398.75424,46,81,42
398.76102,398.91727,41,83,42
398.92407,399.08032,43,84,42
399.08713,399.24338,45,86,42
399.25015,399.4064,46,88,42
399.4132,399.56946,41,90,42
399.57623,399.73248,43,92,42
399.7393,399.89554,45,93,42
399.90234,400.0586,46,95,42
400.06537,400.22162,41,97,42
400.22842,400.38467,43,99,42
400.39145,400.5477,45,100,42
400.5545,400.66998,46,110,42
400.71756,400.83304,46,110,42
400.88058,400.9961,46,110,42
401.04364,401.15912,46,110,42
401.20667,401.32217,46,110,42
401.36972,401.4852,46,110,42
401.53278,401.64825,46,110,42
401.6958,401.8113,46,110,42
401.85886,401.97433,46,110,42
402.02188,402.1374,46,110,42
402.18494,402.3004,46,110,42
402.348,402.46347,46,110,42
402.51102,403.1564,47,110,42
404.14145,404.2977,43,110,42
404.3045,404.46075,43,110,42
404.46756,404.58304,36,110,42
404.63058,404.74606,48,110,42
404.79364,404.90912,48,110,42
404.95667,405.07217,48,110,42
405.11972,405.2352,48,110,42
405.28278,405.39825,48,110,42
405.4458,405.56128,48,110,42
405.60886,405.72433,48,110,42
405.77188,405.8874,48,110,42
405.93494,406.0504,48,110,42
406.098,406.21347,48,110,42
406.26102,406.3765,48,110,42
406.42407,407.06946,49,110,42
408.0545,408.21075,45,110,42
408.21753,408.37378,45,110,42
408.38058,408.49606,38,110,42
408.54364,408.65912,50,110,42
408.70667,408.82214,50,110,42
408.86972,408.9852,50,110,42
409.03275,409.14825,50,110,42
409.1958,409.31128,50,110,42
409.35886,409.47433,50,110,42
409.52188,409.63736,50,110,42
409.68494,409.8004,50,110,42
409.84796,409.96347,50,110,42
410.01102,410.1265,50,110,42
410.17407,410.28955,50,110,42
410.3371,410.98248,51,110,42
411.96753,412.12378,47,110,42
412.13058,412.28683,47,110,42
412.2936,413.91727,52,120,42
413.92404,413.9784,50,120,42
413.9784,414.03275,52,120,42
414.03275,414.0871,50,120,42
414.0871,414.1686,48,120,42
414.1686,414.25015,50,120,42
414.25015,414.56943,48,120,42
414.9023,414.95667,47,120,42
414.95667,415.01102,48,120,42
415.01102,415.06537,47,120,42
415.06537,415.14688,45,120,42
415.14688,415.2284,47,120,42
415.2284,415.5477,45,120,42
415.88058,415.9349,43,120,42
415.9349,415.98926,45,120,42
415.98926,416.0436,43,120,42
416.0436,416.12512,42,120,42
416.12512,416.20667,43,120,42
416.20667,417.8303,42,120,42
417.8371,417.89145,40,120,42
417.89145,417.9458,42,120,42
417.9458,418.00012,40,120,42
418.00012,418.08167,39,120,42
418.08167,418.16318,40,120,42
418.16318,418.48248,39,120,42
418.81534,418.8697,39,120,42
418.8697,418.92404,40,120,42
418.92404,418.9784,39,120,42
418.9784,419.0599,37,120,42
419.0599,419.14145,39,120,42
419.14145,419.46072,40,120,42
419.7936,419.84796,46,120,42
419.84796,419.9023,47,120,42
419.9023,419.95667,46,120,42
419.95667,420.03818,45,120,42
420.03818,420.1197,46,120,42
420.1197,420.439,47,120,42
420.77188,420.8262,47,120,42
420.8262,420.88055,48,120,42
420.88055,420.9349,47,120,42
420.9349,421.01645,45,120,42
421.01645,421.09796,47,120,42
421.09796,421.41724,48,120,42
421.75012,421.80447,42,120,42
421.80447,421.85883,43,120,42
421.85883,421.91318,42,120,42
421.91318,421.9947,40,120,42
421.9947,422.0762,42,120,42
422.0762,422.3955,43,120,42
422.7284,422.78275,43,120,42
422.78275,422.8371,45,120,42
422.8371,422.89142,43,120,42
422.89142,422.97296,42,120,42
422.97296,423.05447,43,120,42
423.05447,423.37378,45,120,42
423.7377,423.79724,39,120,42
423.79724,423.85675,40,120,42
423.85675,423.9163,39,120,42
423.9163,424.00555,37,120,42
424.00555,424.09485,39,120,42
424.09485,424.8017,40,120,42
425.16626,425.67865,47,120,42
428.26773,428.4311,52,120,42
428.4382,428.60153,55,120,42
428.60864,428.772,54,120,42
428.77908,428.94244,52,120,42
428.94955,429.1129,51,120,42
429.12,429.28336,52,120,42
429.29047,429.96518,51,120,42
431.50638,431.6697,60,58,42
431.67682,431.84796,59,56,42
431.8554,432.02652,57,54,42
432.03397,432.21365,55,52,42
432.22147,432.4211,54,51,42
432.4298,432.7636,52,50,42
432.77072,433.10452,47,50,42
433.1116,433.44543,55,50,42
433.4525,435.16586,59,50,42
435.1733,435.5405,47,50,42
435.5483,436.19034,40,50,42
438.10513,438.43893,41,50,42
438.44604,438.77985,36,50,42
438.78693,439.12076,45,50,42
439.12784,441.35324,48,50,42
441.3681,441.53925,50,50,42
441.5467,441.7178,46,50,42
441.72525,441.8964,43,50,42
441.9038,442.0835,40,50,42
442.0913,442.291,36,50,42
442.29965,443.1243,41,50,42
446.37845,447.4424,60,50,42
447.44986,448.56705,59,50,42
449.5976,449.9314,39,50,42
449.9385,450.2723,36,50,42
450.27942,452.86774,42,70,42
452.87595,456.95978,40,70,42
456.96686,457.64157,52,70,42
457.9896,458.6643,45,70,42
461.91003,462.0734,52,70,42
462.0805,462.24387,54,70,42
462.25095,462.4143,56,70,42
462.42142,462.58478,57,70,42
463.27368,463.43704,52,70,42
463.44415,463.60748,53,70,42
463.6146,463.77795,55,70,42
463.78503,463.9484,57,70,42
464.63733,464.80066,48,70,42
464.80777,464.97113,50,70,42
464.97824,465.14157,52,70,42
465.14868,465.31204,53,70,42
465.31915,465.48248,36,72,42
465.4896,465.65295,38,75,42
465.66003,465.8234,40,78,42
465.8305,465.98676,41,80,42
465.99353,466.14978,36,83,42
466.1566,466.31284,38,86,42
466.31964,466.4759,40,89,42
466.48267,466.63892,41,91,42
466.64572,466.80197,36,94,42
466.80875,466.965,38,97,42
466.9718,467.12805,40,99,42
467.13486,467.2911,41,100,42
467.29788,467.45413,48,100,42
467.46094,467.6172,50,100,42
467.62396,467.7802,52,100,42
467.78702,467.9025,53,100,42
467.95007,468.06555,53,100,42
468.1131,468.23386,53,100,42
468.28357,468.4043,53,100,42
468.454,468.5805,53,100,42
468.6326,468.75906,53,100,42
468.81116,468.94397,53,100,42
468.99866,469.14224,53,100,42
469.20135,470.88034,53,127,42
470.92294,470.97977,41,110,42
470.97977,471.0366,43,110,42
471.0366,471.0934,41,110,42
471.0934,471.17862,40,110,42
471.17862,471.26385,41,110,42
471.26385,471.93857,40,110,42
473.30933,474.97125,50,127,42
475.01385,475.07068,38,110,42
475.07068,475.1275,40,110,42
475.1275,475.18433,38,110,42
475.18433,475.26953,36,110,42
475.26953,475.35477,38,110,42
475.35477,476.02948,36,110,42
479.10477,479.26813,47,110,42
479.2752,479.43857,47,110,42
479.44568,479.60904,46,110,42
479.61612,479.77948,46,110,42
479.7866,479.94995,52,110,42
479.95703,480.1204,49,110,42
480.1275,480.29083,55,110,42
480.29794,480.4613,52,110,42
480.4684,480.63174,49,110,42
480.63885,480.80222,46,110,42
480.80933,480.97266,55,110,42
480.97977,481.14313,52,110,42
481.1502,481.31357,49,110,42
481.32068,481.48404,46,110,42
481.49112,483.01102,47,110,42
483.0252,483.18857,48,110,42
483.19568,483.35904,45,110,42
483.36612,483.52948,46,110,42
483.5366,485.05646,47,110,42
485.07068,485.23404,54,110,42
485.24112,485.40448,47,110,42
485.4116,485.57495,52,110,42
485.58203,485.7454,47,110,42
485.7525,485.91583,46,110,42
485.92294,486.0863,47,110,42
486.0934,486.25674,46,110,42
486.26385,486.42722,47,110,42
486.43433,486.59766,46,110,42
486.60477,490.17722,47,110,42
490.1843,490.34766,51,70,42
490.35477,490.51813,49,70,42
490.5252,490.68857,52,70,42
490.69568,491.19992,51,70,42
491.20703,491.3704,54,70,42
491.3775,491.54083,53,70,42
491.54794,491.7113,56,70,42
491.7184,492.39313,54,70,42
493.76385,494.26813,51,70,42
494.2752,494.43857,54,70,42
494.44568,494.60904,53,70,42
494.61612,494.77948,56,70,42
494.7866,495.29083,54,70,42
495.29794,495.4613,57,70,42
495.4684,495.63174,56,70,42
495.63885,495.80222,59,70,42
495.8093,496.48404,57,70,42
497.85477,498.01813,47,70,42
498.0252,498.18857,45,70,42
498.19568,498.359,47,70,42
498.36612,498.52948,45,70,42
498.5366,498.69992,47,70,42
498.70703,498.8704,45,70,42
498.8775,499.04083,47,70,42
499.04794,499.2113,45,70,42
499.21838,499.38174,47,70,42
499.38885,499.55222,45,70,42
499.5593,499.72266,47,70,42
499.72977,499.89313,45,70,42
499.9002,500.06357,47,70,42
500.07068,500.234,45,70,42
500.24112,500.40448,47,70,42
500.4116,500.57492,45,70,42
500.58203,500.7454,47,70,42
500.7525,500.91583,45,70,42
500.92294,501.0863,47,70,42
501.09338,501.25674,45,70,42
501.26385,501.42722,47,70,42
501.4343,501.59766,45,70,42
501.60477,501.76813,47,70,42
501.7752,501.93857,45,70,42
501.94568,502.109,47,70,42
502.11612,502.27948,45,70,42
502.2866,502.44992,47,70,42
502.45703,502.6204,45,70,42
502.6275,502.79083,47,70,42
502.79794,502.9613,45,70,42
502.96838,503.13174,47,70,42
503.13885,503.30222,45,70,42
503.3093,503.47266,47,70,42
503.47977,503.64313,45,70,42
503.6502,503.81357,47,70,42
503.82068,503.984,45,70,42
503.99112,504.15448,47,70,42
504.1616,504.32492,45,70,42
504.33203,504.4954,47,70,42
504.5025,504.66583,45,70,42
504.67294,504.8363,47,70,42
504.84338,505.00674,45,70,42
505.01385,505.17722,47,70,42
505.1843,505.34766,45,70,42
505.35477,505.52588,47,70,42
505.53333,505.70447,45,70,42
505.7119,505.8916,47,70,42
505.8994,506.0791,45,70,42
506.0869,506.25803,44,70,42
506.26547,506.4366,52,70,42
506.44403,506.61517,44,70,42
506.62262,506.79376,52,70,42
506.80118,506.97232,44,70,42
506.97977,507.15088,52,70,42
507.15833,507.32947,45,70,42
507.3369,507.50803,52,70,42
507.51547,507.6866,45,70,42
507.69403,507.86517,52,70,42
507.87262,508.0523,45,70,42
508.06012,508.24927,52,70,42
508.25748,508.42862,47,70,42
508.43607,508.60718,51,70,42
508.61462,508.78577,47,70,42
508.7932,508.96432,51,70,42
508.97177,509.1429,47,70,42
509.15033,509.32147,51,70,42
509.32892,509.67862,52,70,42
509.86462,510.03577,61,70,42
510.04318,510.21432,59,70,42
510.22177,510.39288,57,70,42
510.40033,511.46432,56,70,42
511.47177,512.53577,57,70,42
512.5432,512.7143,63,70,42
512.72174,512.8929,66,74,42
512.9003,513.0715,63,78,42
513.0789,513.25006,66,82,42
513.2575,513.4372,63,86,42
513.445,513.6247,66,90,42
513.6325,513.8122,63,94,42
513.82,513.9997,66,98,42
514.0075,514.1966,63,102,42
514.20483,514.394,66,106,42
514.4022,514.60187,63,110,42
514.61053,514.8102,66,85,42
514.8189,515.85815,64,70,42
515.8654,516.90466,57,70,42
516.9119,517.07904,59,70,42
517.0863,517.2535,51,70,42
517.26074,517.4279,54,70,42
517.4352,517.6023,52,70,42
517.60956,517.77673,51,70,42
517.784,517.9512,49,70,42
517.95844,518.9977,47,70,42
519.00494,520.0442,52,70,42
520.05145,520.21857,57,70,42
520.2258,520.393,45,70,42
520.40027,520.56744,57,70,42
520.5747,520.7418,56,70,42
520.7491,520.91626,54,70,42
520.9235,521.0907,52,70,42
521.09796,521.2651,51,70,42
521.27234,521.4395,52,70,42
521.4468,521.61395,54,70,42
521.6212,521.7883,52,70,42
521.7956,521.96277,51,70,42
521.97003,522.1372,49,70,42
522.1445,522.66046,47,70,42
522.6677,522.83484,47,70,42
522.84216,523.0093,49,70,42
523.01654,523.1837,51,70,42
523.191,524.2302,52,70,42
524.2375,525.62555,46,70,42
525.6328,525.9744,47,70,42
525.9817,526.3399,47,70,42
526.34753,526.70575,47,70,42
526.7134,527.09485,47,70,42
527.10297,527.511,47,70,42
527.51965,528.07434,48,120,42
528.08215,528.2029,47,100,42
528.2526,528.37335,45,100,42
528.42303,528.5438,47,100,42
528.5935,529.0978,48,120,42
529.10486,529.2256,47,100,42
529.2753,529.39606,45,100,42
529.4458,529.5665,45,100,42
529.6162,530.1205,61,120,42
530.1276,530.24835,59,100,42
530.29803,530.4188,58,100,42
530.4685,530.58923,59,100,42
530.639,531.14325,61,120,42
531.1503,531.27106,59,100,42
531.3208,531.44727,58,100,42
531.4993,531.63214,58,90,42
531.6868,532.3937,57,70,42
532.4011,533.108,45,70,42
533.1154,533.46515,44,70,42
533.4726,534.17944,49,70,42
534.1868,534.44727,47,70,42
534.544,534.8044,46,70,42
534.9011,535.608,47,70,42
535.6154,535.9826,47,70,42
535.9904,536.4947,48,120,42
536.5018,536.6225,47,100,42
536.67224,536.79297,45,100,42
536.8427,536.96344,45,100,42
537.0131,537.5174,44,120,42
537.52454,537.64526,44,100,42
537.69495,537.81573,44,100,42
537.8654,537.98615,43,100,42
538.0359,538.54016,42,120,42
538.54724,538.66797,54,100,42
538.7177,538.83844,54,100,42
538.8881,539.0089,53,100,42
539.0586,539.5706,52,120,42
539.57806,539.7046,52,100,42
539.75665,539.88947,57,100,42
539.94415,540.09174,58,100,42
540.15247,543.3593,59,100,42
543.36676,544.0736,58,70,42
544.08105,544.4308,57,70,42
544.4382,544.7879,56,70,42
544.79535,545.145,47,70,42
545.15247,546.2165,59,70,42
546.22394,547.2879,47,70,42
547.29535,548.3593,46,50,42
548.36676,549.0736,45,50,42
549.08105,549.7879,44,50,42
549.79535,550.5022,44,50,42
550.50964,551.2165,45,50,42
551.2239,551.9307,46,50,42
551.9382,552.645,47,50,42
552.65247,553.3593,48,50,42
553.36676,554.0736,49,50,42
554.08105,554.7879,49,55,42
554.79535,555.5022,49,61,42
555.50964,556.2165,48,67,42
556.2239,556.9307,48,73,42
556.9382,557.645,48,79,42
557.65247,558.3593,47,85,42
558.36676,559.0736,47,91,42
559.08105,559.82324,47,97,42
559.83105,560.57324,47,110,42
560.58105,561.3623,47,110,42
561.37054,561.7785,47,110,42
561.7872,561.96686,52,125,42
561.9747,562.13806,47,111,42
562.14514,562.3085,52,100,42
562.3156,562.47894,47,100,42
562.486,562.6494,52,100,42
562.6565,562.8198,47,100,42
562.82697,562.9903,52,100,42
562.99744,563.16077,47,100,42
563.16785,563.33124,52,100,42
563.3383,563.50165,47,100,42
563.5088,563.6721,52,100,42
563.6792,563.8426,47,100,42
563.8497,564.01306,51,125,42
564.02014,564.1835,47,111,42
564.1906,564.35394,51,100,42
564.361,564.5244,47,100,42
564.5315,564.6948,51,100,42
564.70197,564.8653,47,100,42
564.87244,565.03577,51,100,42
565.04285,565.20624,47,100,42
565.2133,565.37665,51,100,42
565.3838,565.5471,47,100,42
565.5542,565.7176,51,100,42
565.7247,565.88806,47,100,42
565.89514,566.0585,52,125,42
566.0656,566.22894,47,111,42
566.236,566.3994,52,100,42
566.4065,566.5698,47,100,42
566.57697,566.7403,52,100,42
566.74744,566.91077,47,100,42
566.91785,567.08124,52,100,42
567.0883,567.25165,47,100,42
567.2588,567.4221,52,100,42
567.4292,567.5926,47,100,42
567.5997,567.76306,52,100,42
567.77014,567.9335,47,100,42
567.9406,568.10394,51,125,42
568.111,568.2744,47,111,42
568.2815,568.4448,51,100,42
568.45197,568.6153,47,100,42
568.62244,568.78577,51,100,42
568.79285,568.95624,47,100,42
568.9633,569.12665,51,100,42
569.1338,569.2971,47,100,42
569.3042,569.4676,51,100,42
569.4747,569.63806,47,100,42
569.64514,569.8085,51,100,42
569.8156,569.97894,47,100,42
569.986,570.1494,59,125,42
570.1565,570.2772,55,111,42
570.32697,570.4477,52,100,42
570.49744,570.61816,47,100,42
570.66785,570.7886,43,100,42
570.8383,570.95905,40,100,42
571.0088,571.6835,38,100,42
571.6906,572.0244,43,100,42
572.0315,572.53577,36,120,42
573.0542,573.5585,47,120,42
576.1224,576.7971,48,70,42
577.14514,577.8198,47,70,42
580.2133,580.888,48,50,42
581.236,581.91077,46,50,42
584.3042,584.97894,44,110,42
585.32697,588.388,43,110,42
588.39514,596.5698,44,70,42
596.57697,598.6153,45,70,42
598.6224,600.66077,41,70,42
600.66785,602.7062,43,70,42
602.7133,604.75165,44,70,42
604.7588,606.7971,45,70,42
606.8042,607.8198,47,70,42
607.82697,608.8426,48,70,42
608.8497,609.1835,48,50,42
609.5315,609.8653,48,50,42
610.2133,610.5471,48,50,42
610.89514,611.22894,48,50,42
611.57697,611.91077,48,50,42
612.2588,612.5926,48,50,42
612.94055,613.2744,47,50,42
613.6224,613.9562,47,53,42
614.3042,614.638,47,61,42
614.986,615.3198,47,68,42
615.66785,616.00165,47,76,42
616.3497,616.6835,47,83,42
617.0315,617.3653,47,91,42
617.7133,618.0471,47,98,42
618.39514,618.72894,47,106,42
619.07697,619.41077,47,120,42
619.7587,620.0926,47,120,42
620.44055,620.77435,47,120,42
621.1224,621.4562,47,120,42
621.8042,622.138,47,120,42
622.486,622.8198,47,120,42
623.16785,623.50165,47,120,42
623.8497,624.1835,47,120,42
624.5315,624.8653,47,120,42
625.2133,625.5549,47,120,42
625.91925,626.269,47,120,42
626.6514,627.03796,47,120,42
627.04614,628.5919,47,120,42
628.59973,630.8419,47,120,42
630.84973,634.5919,47,120,42
636.47473,640.9669,64,50,42
640.97473,641.7169,64,50,42
642.0906,642.80615,57,50,42
646.31024,646.65186,45,50,42
647.00793,647.3495,45,50,42
647.35675,647.69836,47,50,42
648.05444,648.396,47,54,42
648.40326,648.7449,45,56,42
649.10095,649.4425,45,61,42
649.44977,649.7914,43,63,42
650.14746,650.489,43,68,42
650.4963,650.8379,45,70,42
651.194,651.5355,45,74,42
651.5428,651.8844,47,77,42
652.2405,652.58203,47,81,42
652.5893,652.9309,45,83,42
653.287,653.62854,45,88,42
653.6358,653.9774,43,90,42
654.3335,654.67505,43,95,42
654.6824,655.0239,45,97,42
655.38,655.72974,45,102,42
655.7372,656.08685,47,104,42
656.0943,656.44403,47,106,42
656.4514,656.80115,47,108,42
656.8086,657.15826,47,110,42
657.1657,657.51544,47,110,42
657.5229,657.87256,47,110,42
657.88,658.22974,52,120,42
658.2372,658.58685,47,120,42
658.5943,658.94403,55,120,42
658.9514,660.19403,59,120,42
660.2014,660.37256,60,120,42
660.38,660.55115,57,120,42
660.5586,660.72974,54,120,42
660.7372,660.90826,51,120,42
660.9157,661.08685,47,120,42
661.0943,661.444,52,115,42
661.4514,661.80115,40,99,42
661.8086,662.15826,40,83,42
662.1657,662.51544,40,70,42
662.5229,662.87256,40,70,42
662.88,663.22974,40,70,42
663.2372,663.6044,40,70,42
663.6122,663.9794,40,70,42
663.9872,664.38416,40,70,42
664.3929,665.2175,40,70,42
665.6429,666.63245,40,70,42
667.1429,668.63245,40,70,42
