start_time,end_time,note_value,velocity,instrument_program_number
0.0,1.9895834,64,70,40
2.0,3.9895833,63,70,40
4.0,5.9895835,66,70,40
6.0,7.9895835,64,70,40
8.0,9.989583,69,70,40
10.0,10.989583,68,70,40
11.0,11.79241,71,70,40
11.803571,12.060267,69,70,40
12.071428,14.620859,68,70,40
14.635064,15.984495,66,70,40
17.070127,19.059711,71,70,40
19.070127,21.059711,69,70,40
21.070127,23.059711,66,110,40
23.070127,25.059711,68,110,40
25.070127,27.059711,64,110,40
27.070127,28.809711,66,90,40
28.820127,29.059711,68,70,40
29.070127,30.059711,64,70,40
32.141556,33.029057,59,70,40
33.041557,33.329056,59,70,40
33.341557,34.38322,59,70,40
34.394188,35.13377,71,70,40
35.144188,35.38377,71,70,40
35.394188,36.13377,69,70,40
36.144188,36.38377,68,70,40
36.394188,37.13377,66,70,40
37.144188,37.38377,64,70,40
37.394188,38.38377,63,70,40
38.394188,39.13377,73,70,40
39.144188,39.38377,73,70,40
39.394188,40.13377,73,70,40
40.144188,40.38377,71,70,40
40.394188,41.13377,76,70,40
41.144188,41.38377,80,70,40
41.394188,42.13377,80,70,40
42.144188,42.38377,78,70,40
42.394188,43.13377,76,70,40
43.144188,43.38377,75,70,40
43.394188,44.13377,76,70,40
44.144188,44.38377,64,70,40
44.394188,45.13377,63,70,40
45.144188,45.38377,64,70,40
45.394188,46.13377,64,70,40
46.144188,46.38377,66,70,40
46.394188,47.13377,68,70,40
47.144188,47.38377,70,70,40
47.394188,48.186596,70,70,40
48.197758,48.454453,71,70,40
48.465614,49.353115,71,70,40
49.365616,49.653114,71,70,40
49.665615,50.444122,71,70,40
50.45509,50.70728,72,70,40
50.718246,51.45783,72,70,40
51.468246,51.70783,73,70,40
51.718246,52.45783,73,70,40
52.468246,52.70783,75,70,40
52.718246,53.45783,76,70,40
53.468246,53.70783,78,70,40
53.718246,54.45783,80,70,40
54.468246,54.70783,80,78,40
54.718246,55.45783,81,80,40
55.468246,55.70783,80,89,40
55.718246,56.45783,80,91,40
56.468246,56.70783,78,99,40
56.718246,57.45783,76,102,40
57.468246,57.70783,75,110,40
57.718246,58.45783,76,110,40
58.468246,58.70783,73,110,40
58.718246,59.45783,71,110,40
59.468246,59.70783,70,110,40
59.718246,60.496754,69,105,40
60.50772,60.75991,66,92,40
60.770878,61.592636,63,88,40
61.60421,61.870415,59,74,40
61.88199,62.39734,64,70,40
62.671463,62.923653,68,70,40
62.93462,63.424202,64,70,40
63.68462,63.924202,68,70,40
63.93462,64.4242,59,70,40
64.684616,64.9242,68,70,40
64.934616,65.4242,64,70,40
65.684616,65.9242,68,70,40
65.934616,66.4242,59,70,40
66.684616,66.9242,68,70,40
66.934616,67.4242,66,70,40
67.684616,67.9242,68,70,40
67.934616,68.4242,59,70,40
68.684616,68.9242,68,70,40
68.934616,69.4242,66,70,40
69.684616,69.9242,68,70,40
69.934616,70.4242,59,70,40
70.684616,70.9242,68,70,40
70.934616,71.4242,64,70,40
71.684616,71.9242,68,70,40
71.934616,72.4242,59,70,40
72.684616,72.9242,68,70,40
72.934616,73.4242,64,70,40
73.684616,73.9242,68,70,40
73.934616,74.4242,59,70,40
74.684616,74.9242,66,70,40
74.934616,75.4242,63,70,40
75.684616,75.9242,66,70,40
75.934616,76.4242,59,70,40
76.684616,76.9242,69,70,40
76.934616,77.4242,66,70,40
77.684616,77.9242,69,70,40
77.934616,78.4242,59,70,40
78.684616,78.9242,64,70,40
78.934616,79.4242,59,70,40
79.684616,79.9242,64,70,40
79.934616,80.4242,56,70,40
80.684616,80.9242,64,70,40
80.934616,81.4242,61,70,40
81.684616,81.9242,64,70,40
81.934616,83.9242,68,70,40
83.934616,85.9242,72,70,40
85.934616,88.9242,73,110,40
88.934616,89.6742,75,110,40
89.684616,89.9242,76,110,40
89.934616,90.9242,73,110,40
89.934616,90.9242,76,110,40
90.934616,91.6742,78,70,40
91.684616,91.9242,76,70,40
91.934616,92.6742,75,70,40
92.684616,92.9242,73,70,40
92.934616,93.6742,71,70,40
93.684616,93.9242,73,70,40
93.934616,94.6742,70,70,40
94.684616,94.9242,80,95,40
94.934616,95.6742,78,84,40
95.684616,95.9242,76,70,40
95.934616,96.6742,75,70,40
96.684616,96.9242,73,70,40
96.934616,97.6742,71,70,40
97.684616,97.9242,73,70,40
97.934616,98.9242,70,70,40
98.934616,99.9242,73,74,40
99.934616,100.9242,74,78,40
100.934616,101.9242,77,83,40
101.934616,106.96999,78,87,40
106.981155,107.237854,80,70,40
107.249016,107.50571,82,70,40
107.51687,107.756454,83,70,40
107.76687,108.006454,85,70,40
108.01687,108.256454,87,70,40
108.26687,108.506454,88,70,40
108.51687,111.006454,90,70,40
111.01687,111.256454,92,70,40
111.26687,111.506454,94,70,40
111.51687,111.756454,95,70,40
111.76687,112.006454,94,70,40
112.01687,112.256454,92,70,40
112.26687,112.506454,90,70,40
112.51687,112.756454,95,70,40
112.76687,113.006454,94,70,40
113.01687,113.256454,92,70,40
113.26687,113.506454,90,70,40
113.51687,113.756454,88,70,40
113.76687,114.006454,87,70,40
114.01687,114.256454,85,70,40
114.26687,114.506454,83,70,40
114.51687,114.756454,82,70,40
114.76687,115.006454,80,70,40
115.01687,115.256454,78,70,40
115.26687,115.506454,76,70,40
115.51687,115.769066,75,70,40
115.78003,116.03222,73,70,40
116.04319,116.29538,76,70,40
116.30634,116.83571,80,70,40
116.84728,117.11348,71,70,40
117.12506,117.39126,75,70,40
117.40283,117.96812,78,70,40
117.98061,118.26811,73,70,40
118.28062,118.586464,78,70,40
118.59976,118.95914,76,70,40
118.97476,120.8059,75,110,40
120.816864,121.06906,73,110,40
121.080025,121.81961,71,110,40
121.955025,122.06961,66,110,40
122.080025,122.81961,71,110,40
122.955025,123.06961,73,110,40
123.080025,124.81961,75,110,40
124.830025,125.06961,76,91,40
125.080025,127.06961,78,70,40
127.080025,128.56961,80,70,40
128.58002,129.06961,68,70,40
129.08002,130.17957,71,80,40
130.19113,131.60483,69,90,40
131.6197,132.60928,69,70,40
133.6197,134.60928,68,70,40
135.6197,136.60928,67,70,40
137.6197,138.60928,66,70,40
139.6197,141.60928,75,70,40
141.6197,142.94263,76,70,40
142.95303,143.27596,78,70,40
143.28638,143.60928,80,70,40
143.6197,144.60928,80,70,40
144.6197,145.60928,73,80,40
145.6197,146.67998,75,90,40
146.69113,147.87863,76,100,40
147.89113,148.23712,75,70,40
148.24828,148.5831,76,70,40
148.59352,148.91643,78,70,40
148.92685,149.24977,80,70,40
149.26018,149.5831,82,70,40
149.59352,149.91643,83,70,40
149.92685,150.24977,82,70,40
150.26018,150.5831,80,70,40
150.59352,150.91643,78,70,40
150.92685,151.24977,76,70,40
151.26018,151.5831,75,70,40
151.59352,151.91643,73,70,40
151.92685,152.24977,71,70,40
152.26018,152.5831,73,70,40
152.59352,152.91643,75,70,40
152.92685,153.24977,76,70,40
153.26018,153.5831,78,70,40
153.59352,153.91643,80,70,40
153.92685,154.24977,78,70,40
154.26018,154.5831,76,70,40
154.59352,154.91643,75,70,40
154.92685,155.24977,73,70,40
155.26018,155.5831,71,70,40
155.59352,155.91643,70,70,40
155.92685,156.24977,68,70,40
156.26018,156.5831,70,70,40
156.59352,156.91643,71,70,40
156.92685,157.24977,73,70,40
157.26018,157.5831,75,70,40
157.59352,157.91643,76,70,40
157.92685,158.24977,75,70,40
158.26018,158.5831,73,70,40
158.59352,158.91643,71,70,40
158.92685,159.24977,70,70,40
159.26018,159.5831,68,70,40
159.59352,159.91643,66,70,40
159.92685,162.91643,64,70,40
162.92685,164.91643,76,70,40
164.92685,166.91643,88,70,40
166.92685,167.91643,88,86,40
167.92685,168.91643,87,94,40
168.92685,169.91643,85,102,40
169.92685,172.24977,83,110,40
172.26018,172.59352,85,110,40
172.59352,172.92685,87,110,40
172.92685,173.26018,88,110,40
173.26018,173.59352,90,110,40
173.59352,173.92685,92,110,40
173.92685,174.26018,90,110,40
174.26018,174.59352,92,110,40
174.59352,174.92685,94,110,40
174.92685,175.26018,95,110,40
175.26018,175.59352,94,97,40
175.59352,175.91643,92,83,40
175.92685,176.26018,90,70,40
176.26018,176.59352,88,70,40
176.59352,176.92685,87,70,40
176.92685,177.26018,85,70,40
177.26018,177.59352,83,70,40
177.59352,177.92685,82,70,40
177.92685,178.26018,80,70,40
178.26018,178.59352,78,70,40
178.59352,178.92685,76,70,40
178.92685,179.26018,75,70,40
179.26018,179.59352,73,70,40
179.59352,179.91643,71,70,40
179.92685,180.26018,70,70,40
180.26018,180.59352,68,70,40
180.59352,180.92685,66,70,40
180.92685,181.26018,65,70,40
181.26018,181.59352,66,70,40
181.59352,181.92685,67,70,40
181.92685,182.26018,68,70,40
182.26018,182.59352,69,70,40
182.59352,182.92685,70,70,40
182.92685,183.26018,71,70,40
183.26018,183.59352,72,70,40
183.59352,183.91643,73,70,40
183.92685,184.26018,74,70,40
184.26018,184.59352,75,70,40
184.59352,184.92685,76,70,40
184.92685,185.26018,77,70,40
185.26018,185.59352,78,70,40
185.59352,185.92685,80,70,40
185.92685,186.26018,79,70,40
186.26018,186.59352,78,70,40
186.59352,186.92685,76,70,40
186.92685,187.26018,75,70,40
187.26018,187.59352,73,70,40
187.59352,187.91643,76,70,40
187.92685,188.26018,71,70,40
188.26018,188.59352,70,70,40
188.59352,188.92685,73,70,40
188.92685,189.27167,67,70,40
189.27167,189.6165,66,70,40
189.6165,189.96133,70,70,40
189.96133,190.31847,73,70,40
190.31847,190.67561,76,70,40
190.67561,191.03276,80,70,40
191.03276,191.40312,77,70,40
191.40312,191.78831,78,70,40
191.78831,192.17581,70,70,40
192.18831,193.51123,71,70,40
193.52165,193.84456,78,70,40
193.85498,194.1779,75,70,40
194.18831,195.51123,71,70,40
195.52165,195.84456,75,70,40
195.85498,196.1779,71,70,40
196.18831,199.1779,64,70,40
199.18831,200.1779,70,70,40
200.18831,201.51123,71,70,40
201.52165,201.84456,83,70,40
201.85498,202.1779,78,70,40
202.18831,203.51123,75,70,40
203.52165,203.84456,78,70,40
203.85498,204.1779,75,70,40
204.18831,206.1779,70,70,40
206.18831,207.1779,73,70,40
207.18831,208.1779,78,70,40
208.18831,208.25081,78,70,40
208.25081,208.31331,80,70,40
208.31331,208.37581,78,70,40
208.37581,208.43831,80,70,40
208.43831,208.50081,78,70,40
208.50081,208.56331,80,70,40
208.56331,208.62581,78,70,40
208.62581,208.68831,80,70,40
208.68831,208.75081,78,70,40
208.75081,208.81331,80,70,40
208.81331,208.87581,78,70,40
208.87581,208.93831,80,70,40
208.93831,209.00081,78,70,40
209.00081,209.06331,80,70,40
209.06331,209.12581,78,70,40
209.12581,209.18831,80,70,40
209.18831,209.25081,78,70,40
209.25081,209.31331,80,70,40
209.31331,209.37581,78,70,40
209.37581,209.43831,80,70,40
209.43831,209.50081,78,70,40
209.50081,209.56331,80,70,40
209.56331,209.62581,78,70,40
209.62581,209.68831,80,70,40
209.68831,209.75081,78,70,40
209.75081,209.81331,80,70,40
209.81331,209.87581,78,70,40
209.87581,209.93831,80,70,40
209.93831,210.00081,78,70,40
210.00081,210.06331,80,70,40
210.06331,210.12581,78,70,40
210.12581,210.18831,80,70,40
210.18831,210.25081,78,70,40
210.25081,210.31331,80,70,40
210.31331,210.37581,78,70,40
210.37581,210.43831,80,70,40
210.43831,210.50081,78,70,40
210.50081,210.56331,80,70,40
210.56331,210.62581,78,70,40
210.62581,210.68831,80,70,40
210.68831,210.75081,78,70,40
210.75081,210.81331,80,70,40
210.81331,210.87581,78,70,40
210.87581,210.93831,80,70,40
210.93831,211.00081,78,70,40
211.00081,211.06331,80,70,40
211.06331,211.12581,78,70,40
211.12581,211.18831,80,70,40
211.18831,211.25081,78,70,40
211.25081,211.31331,80,70,40
211.31331,211.37581,78,70,40
211.37581,211.43831,80,70,40
211.43831,211.50081,78,70,40
211.50081,211.56331,80,70,40
211.56331,211.62581,78,70,40
211.62581,211.68831,80,70,40
211.68831,211.77165,78,70,40
211.77165,211.85498,77,70,40
211.85498,211.93831,78,70,40
211.93831,212.1779,80,70,40
212.18831,214.1779,82,70,40
214.18831,216.1779,83,70,40
216.18831,218.1779,85,70,40
218.18831,219.1779,83,70,40
219.18831,219.93831,87,70,40
219.93831,220.1779,85,70,40
220.18831,222.32,83,70,40
222.33118,223.51868,82,70,40
228.62209,229.11166,81,110,40
229.12209,229.36166,83,70,40
229.37209,229.61166,85,70,40
229.62209,229.86166,86,70,40
229.87209,230.11166,88,70,40
230.12209,230.36166,90,70,40
230.37209,230.61166,91,70,40
230.62209,231.86166,93,110,40
231.87209,232.11166,91,110,40
232.12209,232.36166,90,110,40
232.37209,232.61166,88,110,40
232.62209,232.86166,86,120,40
232.87209,233.11166,85,120,40
233.12209,233.36166,83,120,40
233.37209,233.61166,81,120,40
233.62209,233.86166,79,120,40
233.87209,234.11166,78,120,40
234.12209,234.36166,76,120,40
234.37209,234.61166,74,120,40
234.62209,234.87427,73,110,40
234.88524,235.13744,71,105,40
235.14839,235.40059,69,100,40
235.41154,235.66374,67,95,40
235.67471,235.94092,66,90,40
235.95248,236.21869,64,85,40
236.23027,236.51776,62,80,40
236.53026,236.81776,61,75,40
236.83026,238.21985,62,70,40
238.23027,238.55318,69,70,40
238.5636,238.88652,66,70,40
238.89693,240.21985,62,70,40
240.23027,240.55318,66,70,40
240.5636,240.88652,62,70,40
240.89693,242.88652,58,70,40
242.89693,243.88652,57,70,40
243.89693,244.88652,61,70,40
244.89693,246.88652,62,70,40
246.89693,248.88652,69,70,40
246.89693,248.88652,77,70,40
248.89693,250.21985,69,70,40
248.89693,250.21985,77,70,40
250.23027,250.55318,87,70,40
250.5636,250.88652,84,70,40
250.89693,252.21985,81,70,40
252.23027,252.55318,84,70,40
252.5636,252.88652,89,70,40
252.89693,253.88652,82,60,40
254.23027,254.49068,74,50,40
254.5636,254.82402,74,50,40
254.89693,255.21985,74,50,40
255.23027,255.49068,72,50,40
255.5636,255.82402,72,50,40
258.23026,258.4907,75,50,40
258.5636,258.824,75,50,40
258.89694,259.21985,75,50,40
259.23026,259.4907,74,50,40
259.5636,259.824,74,50,40
262.23026,262.4907,77,50,40
262.5636,262.824,77,50,40
262.89694,263.21985,77,50,40
263.23026,263.4907,76,50,40
263.5636,263.824,76,50,40
265.23026,265.4907,79,52,40
265.5636,265.824,79,54,40
265.89694,266.15735,79,56,40
266.23026,266.4907,79,58,40
266.5636,266.824,79,60,40
266.89694,267.21985,79,62,40
267.23026,267.4907,78,64,40
267.5636,267.824,78,66,40
267.89694,268.21985,78,68,40
268.23026,268.4907,80,70,40
268.5636,268.824,80,72,40
268.89694,269.21985,80,74,40
269.23026,269.4907,81,76,40
269.5636,269.824,81,78,40
269.89694,270.15735,81,80,40
270.23026,270.4907,81,82,40
270.5636,270.824,81,84,40
270.89694,271.21985,81,86,40
271.23026,271.4907,80,88,40
271.5636,271.824,80,90,40
271.89694,272.21985,80,92,40
272.23026,272.4907,83,94,40
272.5636,272.824,83,96,40
272.89694,273.21985,83,98,40
273.23026,273.4907,86,100,40
273.5636,273.824,86,102,40
273.89694,274.21985,86,104,40
274.23026,274.4907,89,106,40
274.5636,274.824,89,108,40
274.89694,275.21985,89,110,40
275.23026,275.4907,92,110,40
275.5636,275.824,92,110,40
275.89694,276.23685,92,110,40
276.2478,276.53143,95,110,40
276.61554,276.91605,89,110,40
277.00018,278.3588,90,120,40
278.36923,278.62964,85,120,40
278.70255,278.96298,81,120,40
279.0359,279.2963,78,120,40
279.36923,279.62964,73,120,40
279.70255,279.96298,69,120,40
280.0359,280.2963,66,120,40
280.36923,280.62964,61,105,40
280.70255,280.96298,57,90,40
281.0359,282.3588,55,70,40
282.36923,282.69214,59,70,40
282.70255,283.02548,62,70,40
284.0359,286.02548,85,110,40
286.0359,286.2963,90,110,40
286.36923,286.62964,85,110,40
286.70255,286.96298,81,110,40
287.0359,287.2963,78,110,40
287.36923,287.62964,73,110,40
287.70255,287.96298,69,110,40
288.0359,288.2963,66,110,40
288.36923,288.62964,61,100,40
288.70255,288.96298,57,90,40
289.0359,290.3588,55,70,40
290.36923,290.69214,59,70,40
290.70255,291.02548,62,70,40
292.0359,292.3588,65,70,40
292.36923,292.69214,68,70,40
292.70255,293.02548,73,70,40
293.0359,294.3588,66,70,40
294.36923,294.69214,69,70,40
294.70255,295.02548,72,70,40
295.0359,296.3588,63,70,40
296.36923,296.69214,66,70,40
296.70255,297.02548,71,70,40
297.0359,298.3588,72,70,40
298.36923,298.43173,74,70,40
298.43173,298.69214,72,70,40
298.70255,299.02548,71,70,40
299.0359,300.3588,72,70,40
300.36923,300.43173,74,70,40
300.43173,300.69214,72,70,40
300.70255,301.02548,71,70,40
301.0359,302.3588,72,70,40
302.36923,302.43173,74,70,40
302.43173,302.69214,72,70,40
302.70255,303.02548,71,70,40
303.0359,304.4473,72,70,40
304.4589,304.52832,74,83,40
304.52832,304.83157,72,86,40
304.84406,305.23157,71,97,40
305.24408,309.90656,69,110,40
305.24408,309.90656,76,110,40
310.04407,310.30447,75,100,40
310.3774,310.4399,62,70,40
310.4399,310.65866,60,70,40
310.71072,310.97116,59,70,40
311.04407,313.39005,60,70,40
313.4012,313.76727,59,70,40
313.7798,314.1673,59,90,40
314.17978,318.8173,64,110,40
318.9798,319.96936,63,70,40
320.9798,321.96936,72,70,40
320.9798,321.96936,63,70,40
322.9798,323.96936,64,70,40
322.9798,323.96936,71,70,40
324.9798,325.96936,69,70,40
324.9798,325.96936,60,70,40
326.9798,327.96936,67,70,40
326.9798,327.96936,59,70,40
328.9798,329.96936,66,65,40
328.9798,329.96936,57,65,40
330.9798,331.96936,64,60,40
330.9798,331.96936,55,60,40
332.9798,333.96936,55,55,40
332.9798,333.96936,64,55,40
334.9798,335.96936,63,50,40
340.9798,342.96936,59,110,40
340.9798,342.96936,66,110,40
342.9798,344.96936,64,92,40
344.9798,346.96936,63,70,40
346.9798,348.96936,66,70,40
348.9798,350.96936,64,70,40
350.9798,352.96936,69,70,40
352.9798,353.96936,68,70,40
353.9798,354.71936,71,70,40
354.7298,354.96936,69,70,40
354.9798,356.96936,68,70,40
356.9798,357.96936,66,70,40
358.9798,360.96936,71,70,40
360.9798,362.96936,69,70,40
362.9798,364.96936,66,70,40
364.9798,366.96936,68,90,40
366.9798,369.00348,64,110,40
369.01425,370.9089,66,110,40
370.92142,371.20892,68,75,40
371.2214,372.211,64,70,40
375.2214,377.211,71,70,40
377.2214,379.211,75,70,40
379.2214,382.211,76,70,40
382.2214,382.961,75,70,40
382.9714,383.211,73,70,40
383.2214,384.211,71,70,40
384.2214,384.961,78,70,40
384.9714,385.211,75,70,40
385.2214,386.211,71,70,40
386.2214,386.961,73,70,40
386.9714,387.211,69,70,40
387.2214,387.2839,68,70,40
387.2839,387.3464,69,70,40
387.3464,387.4089,68,70,40
387.4089,387.4714,69,70,40
387.4714,387.5339,68,70,40
387.5339,387.5964,69,70,40
387.5964,387.6589,68,70,40
387.6589,387.7214,69,70,40
387.7214,387.7839,68,70,40
387.7839,387.8464,69,70,40
387.8464,387.9089,68,70,40
387.9089,387.9714,69,70,40
387.9714,388.05475,68,70,40
388.05475,388.13806,66,70,40
388.13806,388.2214,68,70,40
388.2214,388.961,71,70,40
388.9714,389.211,68,70,40
389.2214,390.211,64,70,40
391.2214,393.211,76,70,40
393.2214,394.211,80,70,40
394.2214,394.961,83,70,40
394.9714,395.211,85,70,40
395.2214,395.961,83,70,40
395.9714,396.211,81,70,40
396.2214,396.961,80,70,40
396.9714,397.211,78,70,40
397.2214,399.211,77,70,40
399.2214,403.211,78,110,40
403.2214,404.211,80,110,40
404.2214,404.961,80,70,40
404.9714,405.211,78,70,40
405.2214,405.961,76,70,40
405.9714,406.211,75,70,40
406.2214,406.961,73,70,40
406.9714,407.211,75,70,40
407.2214,407.961,72,70,40
407.9714,408.211,81,77,40
408.2214,408.961,80,80,40
408.9714,409.211,78,87,40
409.2214,409.961,76,90,40
409.9714,410.211,75,98,40
410.2214,410.961,73,100,40
410.9714,411.211,72,108,40
411.2214,412.211,71,110,40
412.2214,412.961,83,70,40
412.9714,413.211,81,70,40
413.2214,413.961,80,70,40
413.9714,414.211,78,70,40
414.2214,414.961,76,70,40
414.9714,415.211,78,70,40
415.2214,415.961,75,70,40
415.9714,416.211,84,70,40
416.2214,416.961,83,70,40
416.9714,417.211,81,70,40
417.2214,417.98648,79,70,40
417.99728,418.24512,78,70,40
418.2559,419.0578,76,70,40
419.0694,419.33557,78,70,40
419.34717,420.3923,75,70,40
420.4027,421.3923,78,70,40
421.4027,422.3923,79,70,40
422.4027,423.3923,82,70,40
423.4027,428.2961,83,70,40
428.30862,428.59613,85,70,40
428.6086,428.89612,87,70,40
428.90863,429.14822,88,70,40
429.15863,429.39822,90,70,40
429.40863,429.64822,92,70,40
429.65863,429.89822,93,70,40
429.90863,432.14822,95,70,40
432.15863,432.39822,93,70,40
432.40863,432.64822,92,70,40
432.65863,432.89822,90,70,40
432.90863,433.14822,88,70,40
433.15863,433.39822,87,70,40
433.40863,433.64822,85,70,40
433.65863,433.89822,83,70,40
433.90863,434.14822,88,70,40
434.15863,434.39822,87,70,40
434.40863,434.64822,85,70,40
434.65863,434.89822,83,70,40
434.90863,435.14822,81,70,40
435.15863,435.39822,80,70,40
435.40863,435.64822,78,70,40
435.65863,435.89822,76,70,40
435.90863,436.14822,75,70,40
436.15863,436.39822,73,70,40
436.40863,436.64822,72,70,40
436.65863,436.89822,73,70,40
436.90863,437.15646,77,70,40
437.16724,437.4151,78,70,40
437.42587,437.6737,81,70,40
437.68448,438.1998,85,70,40
438.21097,438.46765,76,70,40
438.47882,438.74503,80,70,40
438.7566,439.32187,83,70,40
439.33438,439.6219,78,70,40
439.63437,439.94687,83,70,40
439.96045,440.31982,81,70,40
440.33545,442.1666,80,110,40
442.17758,442.42975,78,110,40
442.44073,443.1803,76,110,40
443.31573,443.4303,71,110,40
443.44073,444.1803,76,110,40
444.31573,444.4303,78,110,40
444.44073,446.1803,80,110,40
446.19073,446.4303,81,90,40
446.44073,448.4303,83,70,40
448.44073,449.9303,85,70,40
449.94073,450.4303,73,70,40
450.44073,451.4824,76,80,40
451.49335,452.68085,65,90,40
451.49335,452.68085,74,90,40
452.69336,453.75363,65,70,40
452.69336,453.75363,74,70,40
454.76477,455.75436,73,70,40
456.76477,457.75436,72,70,40
458.76477,459.75436,71,70,40
460.76477,462.75436,80,70,40
462.76477,464.0877,81,70,40
464.0981,464.42102,83,70,40
464.43146,464.75436,85,70,40
464.76477,465.75436,85,70,40
465.76477,466.75436,78,80,40
466.76477,467.80646,80,90,40
467.8174,469.03293,81,100,40
469.0465,469.3925,80,80,40
469.40366,469.73846,81,70,40
469.7489,470.0718,83,70,40
470.0822,470.40515,85,70,40
470.41556,470.73846,87,70,40
470.7489,471.0718,88,70,40
471.0822,471.40515,87,70,40
471.41556,471.73846,85,70,40
471.7489,472.0718,83,70,40
472.0822,472.40515,81,70,40
472.41556,472.73846,80,70,40
472.7489,473.0718,78,70,40
473.0822,473.40515,76,70,40
473.41556,473.73846,78,70,40
473.7489,474.0718,80,70,40
474.0822,474.40515,81,70,40
474.41556,474.73846,83,70,40
474.7489,475.0718,85,70,40
475.0822,475.40515,83,70,40
475.41556,475.73846,81,70,40
475.7489,476.0718,80,70,40
476.0822,476.40515,78,70,40
476.41556,476.73846,76,70,40
476.7489,477.0718,75,70,40
477.0822,477.40515,73,70,40
477.41556,477.73846,75,70,40
477.7489,478.0718,76,70,40
478.0822,478.40515,78,70,40
478.41556,478.73846,80,70,40
478.7489,479.0718,81,70,40
479.0822,479.40515,80,70,40
479.41556,479.73846,78,70,40
479.7489,480.0718,76,70,40
480.0822,480.40515,75,70,40
480.41556,480.73846,73,70,40
480.7489,481.0718,71,70,40
481.0822,484.0718,69,70,40
484.0822,486.0718,78,70,40
486.0822,488.0718,81,74,40
488.0822,490.0718,90,82,40
490.0822,491.0718,88,90,40
491.0822,492.0718,85,94,40
492.0822,493.0718,83,98,40
493.0822,494.0718,80,102,40
494.0822,495.0718,78,106,40
495.0822,497.40515,76,110,40
497.41556,497.73846,78,107,40
497.7489,498.0718,80,104,40
498.0822,498.40515,81,100,40
498.41556,498.73846,83,97,40
498.7489,499.0718,85,93,40
499.0822,499.40515,83,90,40
499.41556,499.73846,85,87,40
499.7489,500.0718,87,83,40
500.0822,500.40515,88,80,40
500.41556,500.73846,90,76,40
500.7489,501.0718,92,73,40
501.0822,501.40515,93,70,40
501.41556,501.73846,95,70,40
501.7489,502.0718,97,70,40
502.0822,502.40515,95,70,40
502.41556,502.73846,93,70,40
502.7489,503.0718,92,70,40
503.0822,503.40515,90,70,40
503.41556,503.73846,88,70,40
503.7489,504.0718,87,70,40
504.0822,504.40515,85,70,40
504.41556,504.73846,83,70,40
504.7489,505.0718,81,70,40
505.0822,505.40515,80,70,40
505.41556,505.73846,78,70,40
505.7489,506.0718,76,70,40
506.0822,506.40515,75,70,40
506.41556,506.73846,73,70,40
506.7489,507.0718,71,70,40
507.0822,507.40515,69,70,40
507.41556,507.73846,68,70,40
507.7489,508.0718,66,70,40
508.0822,508.40515,64,70,40
508.41556,508.73846,63,70,40
508.7489,509.0718,61,70,40
509.0822,509.40515,59,70,40
509.41556,509.73846,60,70,40
509.7489,510.0718,61,70,40
510.0822,510.40515,62,70,40
510.41556,510.73846,63,70,40
510.7489,511.0718,64,70,40
511.0822,511.40515,65,70,40
511.41556,511.73846,66,70,40
511.7489,512.07184,67,70,40
512.0822,512.40515,68,70,40
512.4156,512.73846,69,70,40
512.7489,513.07184,70,70,40
513.0822,514.07184,71,70,40
514.0822,515.07184,72,70,40
515.0822,516.07184,75,70,40
516.0822,517.07184,73,70,40
517.0822,518.10596,71,70,40
518.1167,519.177,69,80,40
519.1881,520.3756,66,90,40
520.3881,521.8725,63,100,40
521.8881,523.23486,62,70,40
523.2453,523.5682,71,70,40
523.5786,523.90155,68,70,40
523.9119,525.23486,62,70,40
525.2453,525.5682,64,70,40
525.5786,525.90155,62,70,40
525.9119,527.23486,60,70,40
527.2453,527.5682,64,70,40
527.5786,527.90155,69,70,40
527.9119,529.23486,63,70,40
529.2453,529.5682,66,70,40
529.5786,529.90155,71,70,40
529.9119,531.90155,71,70,40
531.9119,535.90155,76,70,40
533.9119,537.90155,69,70,40
535.9119,537.90155,78,70,40
537.9119,538.90155,71,70,40
537.9119,538.90155,76,70,40
538.9119,540.90155,80,70,40
540.9119,541.90155,78,70,40
541.9119,542.90155,76,70,40
542.9119,544.90155,80,70,40
544.9119,545.90155,78,70,40
545.9119,547.90155,76,70,40
547.9119,549.90155,78,70,40
549.9119,552.5895,85,70,40
553.13635,553.6609,83,70,40
554.20776,554.7323,81,80,40
555.2792,555.8037,80,88,40
556.3506,556.9155,78,97,40
557.50446,558.14307,76,105,40
558.8088,560.7984,64,110,40
558.8088,560.7984,76,110,40
560.8088,562.7984,75,110,40
562.8088,564.7984,78,110,40
564.8088,566.7984,64,110,40
564.8088,566.7984,76,110,40
566.8088,568.7984,81,110,40
568.8088,570.5484,80,110,40
570.5588,570.7984,81,110,40
570.8088,572.7984,80,110,40
572.8088,573.7984,78,110,40
574.8088,576.7984,83,110,40
576.8088,578.7984,69,110,40
576.8088,578.7984,81,110,40
578.8088,580.7984,78,110,40
578.8088,580.7984,69,110,40
580.8088,580.97546,71,110,40
580.97546,583.0484,80,110,40
583.0588,583.2984,78,91,40
583.3088,583.5484,76,70,40
583.5588,583.7984,75,70,40
583.8088,584.05664,73,70,40
584.06744,584.31525,71,70,40
584.32605,584.5739,69,70,40
584.58466,584.8325,68,70,40
584.84326,585.1,66,70,40
585.11115,585.36786,64,70,40
585.379,585.6357,63,70,40
585.64685,585.90356,61,70,40
585.91473,586.1809,59,70,40
586.1925,586.4587,73,70,40
586.4703,586.75775,71,70,40
586.77026,587.12964,63,70,40
587.14526,588.62445,64,70,40
588.64526,588.9682,71,72,40
588.9786,589.3015,68,73,40
589.31195,590.62445,62,74,40
590.64526,590.9682,64,76,40
590.9786,591.3015,62,77,40
591.31195,592.3015,60,78,40
592.31195,592.6348,61,80,40
592.64526,592.9682,64,81,40
592.9786,593.3015,69,81,40
593.31195,594.62445,63,82,40
594.64526,594.9682,66,85,40
594.9786,595.3015,71,85,40
595.31195,596.3015,68,86,40
596.31195,596.6348,80,88,40
596.64526,596.9682,80,89,40
596.9786,597.3015,80,90,40
598.31195,598.6348,80,92,40
598.64526,598.9682,80,93,40
598.9786,599.3015,80,94,40
600.31195,600.6348,81,97,40
600.64526,600.9682,81,97,40
600.9786,601.3015,81,98,40
602.31195,602.6348,83,101,40
602.64526,602.9682,83,101,40
602.9786,603.6348,83,102,40
603.64526,603.9682,76,104,40
603.9786,604.3015,80,104,40
604.31195,605.6348,83,105,40
605.64526,605.9682,78,108,40
605.9786,606.3015,81,108,40
606.31195,607.6632,83,109,40
607.674,608.01385,76,108,40
608.02496,608.371,80,105,40
608.38214,609.8322,83,102,40
609.84375,610.2092,78,91,40
610.22125,610.5939,81,88,40
610.6059,611.8735,83,85,40
611.8877,612.2752,83,80,40
612.2877,612.6551,81,80,40
612.66626,613.01227,80,80,40
613.02344,613.3694,78,79,40
613.38055,613.72656,76,79,40
613.7377,614.0837,75,79,40
614.09485,614.4408,76,78,40
614.45197,614.798,75,78,40
614.80914,615.1551,73,77,40
615.16626,615.51227,71,77,40
615.52344,615.8694,70,77,40
615.88055,616.22656,73,76,40
616.2377,620.51227,71,76,40
620.52344,631.246,68,71,40
631.2575,631.82245,64,60,40
632.4114,632.9989,64,60,40
633.6114,634.19885,64,60,40
636.01135,636.5989,59,60,40
638.4114,644.39575,59,100,40
649.6614,650.02075,64,1,40
0.0,0.48958334,64,1,40
2.0,3.9895833,59,70,40
4.0,5.9895835,57,70,40
6.0,7.9895835,56,70,40
8.0,9.989583,63,70,40
10.0,10.989583,64,70,40
11.0,12.060267,61,70,40
12.071428,14.620859,64,70,40
14.635064,15.984495,63,70,40
15.9987,19.059711,62,70,40
19.070127,21.059711,61,70,40
21.070127,23.059711,63,110,40
23.070127,25.059711,63,110,40
25.070127,27.059711,58,110,40
27.070127,29.059711,57,90,40
29.070127,30.059711,56,70,40
30.070127,31.059711,71,70,40
31.070127,32.130394,69,70,40
32.141556,33.329056,66,70,40
33.341557,35.38377,64,70,40
35.394188,37.38377,63,70,40
37.394188,39.38377,66,70,40
39.394188,41.38377,64,70,40
41.394188,43.38377,69,70,40
43.394188,44.38377,68,70,40
44.394188,45.13377,71,70,40
45.144188,45.38377,68,70,40
45.394188,47.38377,68,70,40
47.394188,48.454453,66,70,40
49.665615,51.70783,71,70,40
51.718246,53.70783,69,70,40
53.718246,55.70783,66,70,40
55.718246,57.70783,68,91,40
57.718246,59.70783,64,110,40
59.718246,61.592636,66,105,40
61.60421,61.870415,68,74,40
61.88199,62.923653,64,70,40
65.934616,67.9242,71,70,40
67.934616,69.9242,75,70,40
69.934616,72.9242,76,70,40
72.934616,73.6742,75,70,40
73.684616,73.9242,73,70,40
73.934616,74.9242,71,70,40
74.934616,75.6742,78,70,40
75.684616,75.9242,75,70,40
75.934616,76.9242,71,70,40
76.934616,77.6742,73,70,40
77.684616,77.9242,69,70,40
77.934616,81.9242,68,70,40
81.934616,82.4242,56,70,40
82.684616,82.9242,66,70,40
82.934616,83.4242,63,70,40
83.684616,83.9242,66,70,40
83.934616,84.4242,56,70,40
84.684616,84.9242,63,70,40
84.934616,85.4242,60,70,40
85.684616,85.9242,63,70,40
85.934616,86.4242,56,70,40
86.684616,86.9242,64,77,40
86.934616,87.4242,61,80,40
87.684616,87.9242,64,87,40
87.934616,88.4242,56,90,40
88.684616,88.9242,64,98,40
88.934616,89.4242,61,100,40
89.684616,89.9242,64,108,40
89.934616,90.9242,61,110,40
89.934616,90.9242,64,110,40
90.934616,91.6742,73,70,40
91.684616,91.9242,73,70,40
91.934616,92.6742,71,70,40
92.684616,92.9242,68,70,40
92.934616,93.6742,68,70,40
93.434616,93.6742,68,70,40
93.934616,94.9242,66,70,40
94.934616,95.6742,61,70,40
95.684616,95.9242,61,70,40
95.934616,96.6742,63,70,40
96.684616,96.9242,63,70,40
96.934616,97.6742,65,70,40
97.684616,97.9242,65,70,40
97.934616,98.9242,66,70,40
98.934616,99.9242,70,74,40
99.934616,100.9242,71,78,40
100.934616,101.9242,74,83,40
101.934616,102.9242,73,87,40
102.934616,103.71313,76,92,40
103.72409,103.97629,75,95,40
103.98725,104.840614,73,96,40
104.85264,105.129074,71,99,40
105.1411,106.10577,70,100,40
106.119354,106.431854,76,85,40
106.44544,107.50571,75,70,40
118.97476,120.8059,66,110,40
120.816864,121.06906,64,110,40
121.080025,121.81961,63,110,40
121.955025,122.06961,61,110,40
122.080025,122.81961,63,110,40
122.955025,123.06961,70,110,40
123.080025,124.81961,71,110,40
124.830025,125.06961,73,91,40
125.080025,127.06961,75,70,40
127.080025,128.56961,76,70,40
128.58002,129.06961,62,70,40
129.08002,130.17957,63,80,40
130.19113,131.60483,60,90,40
131.6197,132.60928,60,70,40
133.6197,134.60928,64,70,40
135.6197,136.60928,61,70,40
137.6197,138.60928,63,70,40
139.6197,141.60928,72,70,40
141.6197,142.94263,73,70,40
142.95303,143.27596,75,70,40
143.28638,143.60928,76,70,40
143.6197,144.60928,76,70,40
144.6197,145.60928,70,80,40
145.6197,146.67998,71,90,40
146.69113,147.87863,73,100,40
147.89113,148.91643,71,70,40
150.92685,151.66643,66,70,40
151.67685,151.91643,64,70,40
151.92685,152.91643,63,70,40
154.92685,155.66643,59,70,40
155.67685,155.91643,58,70,40
155.92685,157.66643,56,70,40
157.67685,157.91643,58,70,40
157.92685,159.24977,59,70,40
159.26018,159.5831,61,70,40
159.59352,159.91643,63,70,40
159.92685,160.24977,64,70,40
160.26018,160.5831,63,70,40
160.59352,162.91643,61,70,40
162.92685,164.91643,64,70,40
164.92685,166.91643,73,70,40
164.92685,166.91643,76,70,40
166.92685,167.91643,76,86,40
166.92685,168.91643,66,86,40
167.92685,168.91643,75,94,40
168.92685,169.91643,64,102,40
168.92685,169.91643,73,102,40
169.92685,170.24977,71,110,40
170.26018,170.5831,73,110,40
170.59352,170.91643,75,110,40
170.92685,171.24977,76,110,40
171.26018,171.5831,78,110,40
171.59352,171.91643,80,110,40
171.92685,179.91643,71,110,40
171.92685,179.91643,78,110,40
179.92685,188.91643,64,110,40
196.18831,197.51123,58,70,40
197.52165,197.84456,64,70,40
197.85498,198.1779,61,70,40
198.18831,199.51123,58,70,40
199.52165,199.84456,61,70,40
199.85498,200.1779,66,70,40
200.18831,201.51123,66,70,40
201.52165,201.84456,63,70,40
201.85498,202.1779,66,70,40
202.18831,203.51123,59,70,40
203.52165,203.84456,63,70,40
203.85498,204.1779,66,70,40
204.18831,205.51123,66,70,40
205.52165,205.84456,76,70,40
205.85498,206.1779,73,70,40
206.18831,206.51123,70,70,40
206.52165,206.84456,76,70,40
206.85498,207.1779,73,70,40
207.18831,207.51123,70,70,40
207.52165,207.84456,73,70,40
207.85498,208.1779,70,70,40
208.18831,210.1779,71,70,40
210.18831,212.1779,70,70,40
212.18831,214.1779,73,70,40
214.18831,216.1779,71,70,40
216.18831,218.1779,76,70,40
218.18831,219.1779,75,70,40
220.18831,222.32,75,70,40
222.33118,223.51868,73,70,40
224.62209,226.61166,78,50,40
226.62209,228.61166,76,110,40
226.62209,230.61166,64,110,40
228.62209,230.61166,73,110,40
230.62209,232.61166,62,110,40
230.62209,232.61166,74,110,40
232.62209,234.61166,62,120,40
234.62209,236.51776,64,110,40
236.53026,236.81776,66,75,40
236.83026,237.88652,62,70,40
240.89693,242.21985,67,70,40
242.23027,242.55318,79,70,40
242.5636,242.88652,76,70,40
242.89693,244.21985,73,70,40
244.23027,244.55318,76,70,40
244.5636,244.88652,67,70,40
244.89693,246.21985,65,70,40
246.23027,246.55318,69,70,40
246.5636,246.88652,65,70,40
246.89693,248.21985,62,70,40
248.23027,248.55318,65,70,40
248.5636,248.88652,62,70,40
248.89693,250.21985,63,70,40
250.23027,250.55318,69,70,40
250.5636,250.88652,72,70,40
250.89693,251.21985,75,70,40
251.23027,251.55318,69,70,40
251.5636,251.88652,72,70,40
251.89693,252.21985,65,70,40
252.23027,252.55318,77,70,40
252.5636,252.88652,69,70,40
252.89693,253.88652,70,60,40
255.23027,255.49068,60,50,40
255.5636,255.82402,60,50,40
255.89693,256.21985,60,50,40
256.23026,256.4907,62,50,40
256.5636,256.824,62,50,40
256.89694,257.21985,62,50,40
257.23026,257.4907,63,50,40
257.5636,257.824,63,50,40
259.23026,259.4907,63,50,40
259.5636,259.824,63,50,40
259.89694,260.21985,63,50,40
260.23026,260.4907,64,50,40
260.5636,260.824,64,50,40
260.89694,261.21985,64,50,40
261.23026,261.4907,65,50,40
261.5636,261.824,65,50,40
263.23026,263.4907,64,50,40
263.5636,263.824,64,50,40
263.89694,264.21985,64,50,40
264.23026,264.4907,66,50,40
264.5636,264.824,66,50,40
264.89694,265.21985,66,50,40
265.23026,265.4907,67,52,40
265.5636,265.824,67,54,40
265.89694,266.15735,67,56,40
266.23026,266.4907,67,58,40
266.5636,266.824,67,60,40
266.89694,267.21985,67,62,40
267.23026,267.4907,66,64,40
267.5636,267.824,66,66,40
267.89694,268.21985,66,68,40
268.23026,268.4907,68,70,40
268.5636,268.824,68,72,40
268.89694,269.21985,68,74,40
269.23026,269.4907,69,76,40
269.5636,269.824,69,78,40
269.89694,270.15735,69,80,40
270.23026,270.4907,69,82,40
270.5636,270.824,69,84,40
270.89694,271.21985,69,86,40
271.23026,271.4907,68,88,40
271.5636,271.824,68,90,40
271.89694,272.21985,68,92,40
272.23026,272.4907,71,94,40
272.5636,272.824,71,96,40
272.89694,273.21985,71,98,40
273.23026,273.4907,74,100,40
273.5636,273.824,74,102,40
273.89694,274.21985,74,104,40
274.23026,274.4907,77,106,40
274.5636,274.824,77,108,40
274.89694,275.21985,77,110,40
275.23026,275.4907,80,110,40
275.5636,275.824,80,110,40
275.89694,276.23685,80,110,40
276.2478,276.53143,83,110,40
276.61554,276.91605,77,110,40
277.00018,277.34616,78,120,40
277.3573,277.69214,66,120,40
277.70255,278.02548,66,120,40
278.0359,278.3588,66,120,40
278.36923,278.69214,66,120,40
278.70255,279.02548,66,120,40
279.0359,279.3588,66,120,40
279.36923,279.69214,66,120,40
279.70255,280.02548,66,120,40
280.0359,280.3588,66,120,40
280.36923,280.69214,66,105,40
280.70255,281.02548,66,90,40
281.0359,281.3588,67,70,40
281.36923,281.69214,62,70,40
281.70255,282.02548,62,70,40
282.0359,282.52548,62,70,40
283.36923,283.69214,59,70,40
283.70255,284.02548,59,70,40
284.0359,284.52548,59,70,40
285.0359,285.3588,57,110,40
285.0359,285.3588,66,110,40
285.36923,285.69214,57,110,40
285.36923,285.69214,66,110,40
285.70255,286.02548,57,110,40
285.70255,286.02548,66,110,40
286.0359,286.3588,57,110,40
286.0359,286.3588,66,110,40
286.36923,286.69214,57,110,40
286.36923,286.69214,66,110,40
286.70255,287.02548,57,110,40
286.70255,287.02548,66,110,40
287.0359,287.3588,57,110,40
287.0359,287.3588,66,110,40
287.36923,287.69214,57,110,40
287.36923,287.69214,66,110,40
287.70255,288.02548,57,110,40
287.70255,288.02548,66,110,40
288.0359,288.3588,57,110,40
288.0359,288.3588,66,110,40
288.36923,288.69214,57,100,40
288.36923,288.69214,66,100,40
288.70255,289.02548,57,90,40
288.70255,289.02548,66,90,40
289.0359,289.3588,67,70,40
289.36923,289.69214,62,70,40
289.70255,290.02548,62,70,40
290.0359,290.52548,62,70,40
297.36923,297.69214,63,70,40
297.70255,298.02548,64,70,40
298.0359,299.3588,66,70,40
299.36923,299.69214,66,70,40
299.70255,300.02548,67,70,40
300.0359,301.3588,69,70,40
301.36923,301.69214,63,70,40
301.70255,302.02548,64,70,40
302.0359,303.3758,66,70,40
303.38675,303.72668,66,70,40
303.73764,304.07755,67,70,40
304.0885,304.4473,69,70,40
304.4589,304.83157,69,83,40
304.84406,305.23157,69,97,40
305.24408,309.91907,69,110,40
305.24408,309.93158,64,110,40
310.04407,310.53366,71,100,40
311.3774,311.4399,59,70,40
311.4399,311.65866,57,70,40
311.71072,311.97116,56,70,40
312.04407,312.36697,57,70,40
313.4012,313.76727,57,70,40
313.7798,314.1673,55,90,40
314.17978,318.8173,57,110,40
318.9798,319.96936,59,70,40
320.9798,321.96936,69,70,40
322.9798,323.96936,67,70,40
324.9798,325.96936,63,70,40
326.9798,327.96936,64,70,40
328.9798,329.96936,63,65,40
330.9798,331.96936,59,60,40
332.9798,333.96936,61,55,40
334.9798,335.96936,59,50,40
336.9798,340.96936,72,110,40
340.9798,343.96936,71,110,40
343.9798,345.96936,71,91,40
345.9798,346.96936,69,70,40
346.9798,347.96936,68,70,40
347.9798,349.96936,75,70,40
349.9798,351.96936,73,70,40
351.9798,352.96936,78,70,40
352.9798,353.96936,76,70,40
353.9798,354.71936,80,70,40
354.7298,354.96936,78,70,40
354.9798,356.96936,76,70,40
356.9798,357.96936,75,70,40
357.9798,358.96936,74,70,40
358.9798,361.96936,73,70,40
361.9798,362.71936,72,70,40
362.7298,362.96936,73,70,40
362.9798,364.96936,75,70,40
364.9798,365.96936,76,90,40
365.9798,366.96936,78,100,40
366.9798,369.00348,76,110,40
369.01425,370.07452,81,110,40
370.0857,370.9089,78,90,40
370.92142,371.20892,80,75,40
371.2214,373.211,76,70,40
373.2214,375.211,80,70,40
375.2214,378.211,83,70,40
378.2214,378.961,85,70,40
378.9714,379.211,81,70,40
379.2214,379.2839,80,70,40
379.2839,379.3464,81,70,40
379.3464,379.4089,80,70,40
379.4089,379.4714,81,70,40
379.4714,379.5339,80,70,40
379.5339,379.5964,81,70,40
379.5964,379.6589,80,70,40
379.6589,379.7214,81,70,40
379.7214,379.7839,80,70,40
379.7839,379.8464,81,70,40
379.8464,379.9089,80,70,40
379.9089,379.9714,81,70,40
379.9714,380.05475,80,70,40
380.05475,380.13806,78,70,40
380.13806,380.2214,80,70,40
380.2214,380.961,83,70,40
380.9714,381.211,80,70,40
381.2214,382.211,76,70,40
387.2214,389.211,64,70,40
389.2214,398.211,68,70,40
391.2214,398.211,71,70,40
398.2214,398.961,73,70,40
398.9714,399.211,71,70,40
399.2214,399.961,69,70,40
399.9714,400.211,68,77,40
400.2214,400.961,66,80,40
400.9714,401.211,64,87,40
401.2214,402.211,63,90,40
402.2214,403.211,61,100,40
403.2214,404.211,60,110,40
404.2214,404.961,68,70,40
404.9714,405.211,68,70,40
405.2214,405.961,68,70,40
405.9714,406.211,67,70,40
406.2214,406.961,67,70,40
406.9714,407.211,67,70,40
407.2214,408.211,68,70,40
408.2214,408.961,68,80,40
408.9714,409.211,68,87,40
409.2214,409.961,68,90,40
409.9714,410.211,69,98,40
410.2214,410.961,69,100,40
410.9714,411.211,63,108,40
410.9714,411.211,69,108,40
411.2214,412.211,63,110,40
411.2214,412.211,69,110,40
412.2214,412.961,71,70,40
412.9714,413.211,71,70,40
413.2214,413.961,71,70,40
413.9714,414.211,69,70,40
414.2214,414.961,69,70,40
414.9714,415.211,69,70,40
415.2214,416.211,71,70,40
416.2214,416.961,66,70,40
416.9714,417.211,66,70,40
417.2214,417.98648,67,70,40
417.99728,418.24512,70,70,40
418.2559,419.0578,70,70,40
419.0694,419.33557,70,70,40
419.34717,420.3923,71,70,40
420.4027,421.3923,75,70,40
421.4027,422.3923,76,70,40
422.4027,423.3923,79,70,40
423.4027,424.3923,78,70,40
424.4027,425.16782,78,70,40
425.1786,425.42642,76,70,40
425.4372,426.2296,75,70,40
426.24075,426.49747,73,70,40
426.50864,427.39612,71,70,40
427.40863,427.69614,81,70,40
427.70862,428.89612,80,70,40
440.33545,442.1666,71,110,40
442.17758,442.42975,69,110,40
442.44073,443.1803,68,110,40
443.31573,443.4303,66,110,40
443.44073,444.1803,68,110,40
444.31573,444.4303,75,110,40
444.44073,446.1803,76,110,40
446.19073,446.4303,78,90,40
446.44073,448.4303,80,70,40
448.44073,449.9303,81,70,40
449.94073,450.4303,64,70,40
450.44073,451.4824,64,80,40
451.49335,452.68085,71,90,40
452.69336,453.75363,71,70,40
454.76477,455.75436,69,70,40
456.76477,457.75436,69,70,40
458.76477,459.75436,68,70,40
460.76477,462.75436,77,70,40
462.76477,464.0877,78,70,40
464.0981,464.42102,80,70,40
464.43146,464.75436,81,70,40
464.76477,465.75436,81,70,40
465.76477,466.75436,75,80,40
466.76477,467.80646,76,90,40
467.8174,469.03293,78,100,40
469.0465,470.0718,76,80,40
471.0822,472.0718,66,70,40
472.0822,472.8218,71,70,40
472.8322,473.0718,69,70,40
473.0822,474.0718,68,70,40
475.0822,476.0718,59,70,40
476.0822,476.8218,64,70,40
476.8322,477.0718,63,70,40
477.0822,478.8218,61,70,40
478.8322,479.0718,63,70,40
479.0822,480.41556,64,70,40
480.41556,480.73846,66,70,40
480.7489,481.0718,68,70,40
481.0822,481.40515,69,70,40
481.41556,481.73846,68,70,40
481.7489,484.0718,66,70,40
484.0822,486.0718,69,70,40
486.0822,488.0718,69,74,40
488.0822,490.0718,78,82,40
490.0822,491.0718,71,90,40
490.0822,491.0718,76,90,40
491.0822,492.0718,69,94,40
491.0822,492.0718,73,94,40
492.0822,494.0718,71,98,40
494.0822,495.0718,69,106,40
495.0822,495.40515,68,110,40
495.41556,495.73846,66,110,40
495.7489,496.0718,68,110,40
496.0822,496.40515,69,110,40
496.41556,496.73846,71,110,40
496.7489,497.0718,73,110,40
497.0822,499.0718,71,110,40
499.0822,507.0718,68,90,40
507.0822,518.10596,75,70,40
518.1167,519.177,57,80,40
519.1881,520.3756,57,90,40
520.3881,521.8725,57,100,40
521.8881,525.90155,59,70,40
525.9119,529.90155,57,70,40
529.9119,531.90155,56,70,40
531.9119,533.90155,68,70,40
533.9119,535.90155,72,70,40
535.9119,537.90155,71,70,40
537.9119,538.90155,71,70,40
538.9119,539.90155,71,70,40
539.9119,541.90155,69,70,40
541.9119,542.90155,68,70,40
542.9119,543.90155,71,70,40
543.9119,545.90155,69,70,40
545.9119,547.90155,68,70,40
547.9119,549.90155,76,70,40
549.9119,552.5895,69,70,40
549.9119,552.5895,81,70,40
553.13635,553.6609,68,70,40
554.20776,554.7323,63,80,40
555.2792,555.8037,64,88,40
556.3506,556.9155,66,97,40
557.50446,558.14307,68,105,40
558.8088,560.7984,68,110,40
560.8088,564.7984,66,110,40
560.8088,564.7984,69,110,40
564.8088,566.7984,68,110,40
566.8088,568.7984,64,110,40
566.8088,568.7984,73,110,40
568.8088,572.7984,71,110,40
572.8088,576.7984,69,110,40
576.8088,580.7984,66,110,40
576.8088,580.7984,75,110,40
580.8088,582.7984,64,110,40
580.8088,582.7984,76,110,40
582.8088,584.8325,56,90,40
584.84326,586.75775,57,70,40
586.77026,587.12964,59,70,40
587.14526,588.3015,56,70,40
588.31195,588.6348,68,72,40
588.64526,588.9682,68,72,40
588.9786,589.3015,68,73,40
590.31195,590.6348,71,76,40
590.64526,590.9682,71,76,40
590.9786,591.3015,71,77,40
592.31195,592.6348,73,80,40
592.64526,592.9682,73,81,40
592.9786,593.3015,73,81,40
594.31195,594.6348,71,84,40
594.64526,594.9682,71,85,40
594.9786,595.3015,71,85,40
595.31195,595.6348,71,86,40
595.64526,595.9682,64,87,40
595.9786,596.3015,68,88,40
596.31195,597.62445,71,88,40
597.64526,597.9682,68,91,40
597.9786,598.3015,71,92,40
598.31195,599.62445,76,92,40
599.64526,599.9682,69,95,40
599.9786,600.3015,72,96,40
600.31195,601.3015,76,97,40
601.31195,601.6348,78,99,40
601.64526,601.9682,69,99,40
601.9786,602.3015,71,100,40
602.31195,602.6348,78,101,40
602.64526,602.9682,71,101,40
602.9786,603.3015,69,102,40
603.31195,604.3015,68,103,40
604.64526,604.9682,68,106,40
604.9786,605.3015,71,106,40
605.31195,606.3015,69,107,40
606.64526,606.9736,69,110,40
606.9844,607.3184,71,110,40
607.32916,608.371,68,110,40
608.73926,609.09143,68,99,40
609.103,609.46185,71,96,40
609.4734,610.5939,69,94,40
611.00586,611.41895,69,82,40
611.43317,611.8735,71,80,40
611.8877,616.22656,68,80,40
616.2377,616.5837,71,76,40
616.59485,616.9408,69,75,40
616.95197,617.298,68,75,40
617.30914,617.6551,66,75,40
617.66626,618.01227,64,74,40
618.02344,618.3694,63,74,40
618.38055,618.72656,64,74,40
618.7377,619.0837,63,73,40
619.09485,619.4408,61,73,40
619.45197,619.798,59,72,40
619.80914,620.1551,58,72,40
620.16626,620.51227,61,72,40
620.52344,631.246,59,71,40
620.52344,631.246,64,71,40
631.2575,631.82245,59,60,40
632.4114,632.9989,59,60,40
633.6114,634.19885,59,60,40
636.01135,636.5989,56,60,40
638.4114,644.39575,56,100,40
4.0,5.9895835,54,70,41
6.0,7.9895835,61,70,41
8.0,9.989583,54,70,41
10.0,10.989583,52,70,41
11.0,12.060267,54,70,41
12.071428,13.258928,56,70,41
13.271428,14.620859,58,70,41
14.635064,15.984495,59,70,41
19.070127,23.059711,57,110,41
23.070127,25.059711,56,110,41
25.070127,27.059711,52,110,41
27.070127,29.059711,51,94,41
29.070127,30.059711,52,70,41
30.070127,31.059711,59,70,41
31.070127,32.130394,57,70,41
32.141556,33.329056,54,70,41
33.341557,35.38377,52,70,41
35.394188,37.38377,51,70,41
37.394188,39.38377,54,70,41
39.394188,41.38377,52,70,41
41.394188,43.38377,57,70,41
43.394188,44.38377,56,70,41
44.394188,45.13377,59,70,41
45.144188,45.38377,56,70,41
45.394188,47.38377,56,70,41
47.394188,48.454453,54,70,41
49.665615,51.70783,59,70,41
51.718246,53.70783,57,70,41
53.718246,55.70783,54,70,41
55.718246,57.70783,56,91,41
57.718246,59.70783,52,110,41
59.718246,61.592636,54,105,41
61.60421,61.870415,56,74,41
61.88199,62.923653,52,70,41
69.934616,71.9242,52,70,41
71.934616,73.9242,56,70,41
73.934616,77.9242,59,70,41
77.934616,78.9242,59,70,41
78.934616,79.6742,68,70,41
79.684616,79.9242,64,70,41
79.934616,80.9242,61,70,41
80.934616,81.6742,64,70,41
81.684616,81.9242,61,70,41
81.934616,83.9242,56,70,41
83.934616,85.9242,54,70,41
85.934616,87.9242,52,110,41
87.934616,89.9242,68,110,41
89.934616,90.9242,66,110,41
90.934616,91.6742,54,70,41
91.684616,91.9242,54,70,41
91.934616,92.6742,54,70,41
92.684616,92.9242,53,70,41
92.934616,93.6742,53,70,41
93.684616,93.9242,53,70,41
93.934616,94.9242,54,70,41
94.934616,95.6742,58,70,41
95.684616,95.9242,58,70,41
95.934616,96.6742,59,70,41
96.684616,96.9242,59,70,41
96.934616,97.6742,61,70,41
97.684616,97.9242,61,70,41
97.934616,98.9242,61,70,41
98.934616,99.9242,66,74,41
99.934616,100.9242,66,78,41
100.934616,101.9242,68,83,41
101.934616,102.9242,66,87,41
102.934616,103.71313,54,92,41
103.72409,103.97629,56,95,41
103.98725,104.840614,58,96,41
104.85264,105.129074,59,99,41
105.1411,106.10577,61,100,41
106.119354,106.431854,58,85,41
106.44544,108.256454,59,70,41
108.26687,108.506454,54,70,41
108.51687,109.256454,51,70,41
109.39187,109.506454,51,70,41
109.51687,110.256454,51,70,41
110.39187,110.506454,54,70,41
110.51687,112.256454,59,70,41
112.26687,112.506454,61,70,41
112.51687,114.506454,63,70,41
114.51687,116.03222,64,70,41
116.04319,116.55854,52,70,41
116.5695,117.66904,54,70,41
117.68061,118.95914,54,70,41
118.97476,120.8059,59,110,41
120.816864,121.06906,54,110,41
121.080025,121.81961,54,110,41
121.955025,122.06961,54,110,41
122.080025,122.81961,54,110,41
122.955025,123.06961,54,110,41
123.080025,127.06961,54,110,41
127.080025,127.81961,52,90,41
127.830025,128.06961,54,70,41
128.08002,128.56961,56,70,41
128.58002,129.06961,59,70,41
129.08002,130.17957,59,80,41
130.19113,131.60483,63,90,41
131.6197,132.60928,63,70,41
132.6197,133.35928,66,70,41
133.3697,133.60928,54,70,41
133.6197,134.60928,54,70,41
134.6197,135.35928,66,70,41
135.3697,135.60928,54,70,41
135.6197,136.60928,54,70,41
136.6197,137.35928,66,70,41
137.3697,137.60928,54,70,41
137.6197,138.60928,54,70,41
138.6197,139.35928,66,70,41
139.3697,139.60928,54,70,41
139.6197,140.60928,54,70,41
140.6197,141.35928,66,70,41
141.3697,141.60928,54,70,41
141.6197,142.60928,54,70,41
142.6197,143.35928,66,70,41
143.3697,143.60928,54,70,41
143.6197,144.60928,54,70,41
144.6197,145.35928,66,80,41
145.3697,145.60928,54,88,41
145.6197,146.67998,54,90,41
146.69113,147.57863,66,100,41
147.59114,147.87863,54,77,41
147.89113,149.91643,63,70,41
149.92685,151.91643,58,70,41
151.92685,153.91643,59,70,41
153.92685,155.91643,54,70,41
155.92685,157.91643,56,70,41
157.92685,159.91643,51,70,41
159.92685,160.91643,58,70,41
160.92685,161.24977,59,70,41
161.26018,161.5831,58,70,41
161.59352,161.91643,56,70,41
161.92685,162.91643,54,70,41
162.92685,164.91643,61,70,41
164.92685,165.91643,68,70,41
165.92685,166.91643,70,78,41
166.92685,167.91643,73,86,41
167.92685,168.91643,71,94,41
168.92685,169.91643,68,102,41
169.92685,171.91643,66,110,41
169.92685,179.91643,63,110,41
179.92685,188.91643,61,105,41
192.18831,192.41748,51,70,41
192.52165,192.75081,51,70,41
192.85498,193.08415,51,70,41
193.18831,193.6779,51,70,41
194.18831,194.41748,51,70,41
194.52165,194.75081,51,70,41
194.85498,195.08415,51,70,41
195.18831,195.6779,51,70,41
196.18831,196.41748,52,70,41
196.52165,196.75081,52,70,41
196.85498,197.08415,52,70,41
197.18831,197.6779,52,70,41
198.18831,198.41748,52,70,41
198.52165,198.75081,52,70,41
198.85498,199.08415,52,70,41
199.18831,199.6779,52,70,41
200.18831,200.41748,51,70,41
200.52165,200.75081,51,70,41
200.85498,201.08415,51,70,41
201.18831,201.6779,51,70,41
202.18831,202.41748,51,70,41
202.52165,202.75081,51,70,41
202.85498,203.08415,51,70,41
203.18831,203.6779,51,70,41
204.18831,204.41748,52,70,41
204.52165,204.75081,52,70,41
204.85498,205.08415,52,70,41
205.18831,205.6779,52,70,41
206.18831,206.41748,52,70,41
206.52165,206.75081,52,70,41
206.85498,207.08415,52,70,41
207.18831,207.6779,52,70,41
208.18831,210.1779,66,70,41
210.18831,212.1779,64,70,41
212.18831,214.1779,67,70,41
214.18831,216.1779,66,70,41
216.18831,218.1779,70,70,41
218.18831,219.1779,71,70,41
219.18831,220.1779,68,70,41
220.18831,223.51868,66,70,41
223.53117,224.61072,64,60,41
224.62209,226.61166,62,50,41
226.62209,228.61166,59,110,41
228.62209,230.61166,57,110,41
230.62209,232.61166,54,110,41
230.62209,232.61166,57,110,41
232.62209,234.61166,54,120,41
234.62209,236.51776,55,110,41
236.53026,236.81776,57,75,41
236.83026,237.88652,54,70,41
244.89693,246.21985,50,70,41
246.23027,246.55318,57,70,41
246.5636,246.88652,53,70,41
246.89693,248.21985,50,70,41
248.23027,248.55318,53,70,41
248.5636,248.88652,50,70,41
248.89693,253.21985,51,70,41
253.23027,253.49068,50,50,41
253.5636,253.82402,50,50,41
253.89693,254.21985,50,50,41
254.23027,254.49068,52,50,41
254.5636,254.82402,52,50,41
254.89693,255.21985,52,50,41
255.23027,255.49068,53,50,41
255.5636,255.82402,53,50,41
255.89693,256.15735,53,50,41
256.23026,256.4907,53,50,41
256.5636,256.824,53,50,41
256.89694,257.21985,53,50,41
257.23026,257.4907,51,50,41
257.5636,257.824,51,50,41
257.89694,258.21985,51,50,41
258.23026,258.4907,54,50,41
258.5636,258.824,54,50,41
258.89694,259.21985,54,50,41
259.23026,259.4907,55,50,41
259.5636,259.824,55,50,41
259.89694,260.15735,55,50,41
260.23026,260.4907,55,50,41
260.5636,260.824,55,50,41
260.89694,261.21985,55,50,41
261.23026,261.4907,53,50,41
261.5636,261.824,53,50,41
261.89694,262.21985,53,50,41
262.23026,262.4907,56,50,41
262.5636,262.824,56,50,41
262.89694,263.21985,56,50,41
263.23026,263.4907,57,50,41
263.5636,263.824,57,50,41
263.89694,264.15735,57,50,41
264.23026,264.4907,57,50,41
264.5636,264.824,57,50,41
264.89694,265.21985,57,50,41
265.23026,265.4907,58,52,41
265.5636,265.824,58,54,41
265.89694,266.15735,58,56,41
266.23026,266.4907,58,58,41
266.5636,266.824,58,60,41
266.89694,267.21985,58,62,41
267.23026,267.4907,59,64,41
267.5636,267.824,59,66,41
267.89694,268.15735,59,68,41
268.23026,268.4907,59,70,41
268.5636,268.824,59,72,41
268.89694,269.21985,59,74,41
269.23026,269.4907,60,76,41
269.5636,269.824,60,78,41
269.89694,270.15735,60,80,41
270.23026,270.4907,60,82,41
270.5636,270.824,60,84,41
270.89694,271.21985,60,86,41
271.23026,271.4907,61,88,41
271.5636,271.824,61,90,41
271.89694,272.21985,61,92,41
272.23026,272.4907,62,94,41
272.5636,272.824,62,96,41
272.89694,273.21985,62,98,41
273.23026,273.5532,65,100,41
273.5636,273.8865,62,102,41
273.5636,273.8865,71,102,41
273.89694,274.21985,62,104,41
273.89694,274.21985,71,104,41
274.23026,274.5532,62,106,41
274.23026,274.5532,71,106,41
274.5636,274.8865,62,108,41
274.5636,274.8865,71,108,41
274.89694,275.21985,62,110,41
274.89694,275.21985,71,110,41
275.23026,275.5532,62,110,41
275.23026,275.5532,71,110,41
275.5636,275.8865,62,110,41
275.5636,275.8865,71,110,41
275.89694,276.23685,62,110,41
275.89694,276.23685,71,110,41
276.2478,276.60355,62,110,41
276.2478,276.60355,71,110,41
276.61554,276.98816,62,110,41
276.61554,276.98816,71,110,41
277.00018,277.34616,61,120,41
277.3573,277.69214,61,120,41
277.70255,278.02548,61,120,41
278.0359,278.3588,61,120,41
278.36923,278.69214,61,120,41
278.70255,279.02548,61,120,41
279.0359,279.3588,61,120,41
279.36923,279.69214,61,120,41
279.70255,280.02548,61,120,41
280.0359,280.3588,61,120,41
280.36923,280.69214,61,105,41
280.70255,281.02548,61,90,41
281.0359,281.3588,62,70,41
281.36923,281.69214,59,70,41
281.70255,282.02548,59,70,41
282.0359,282.52548,59,70,41
283.0359,284.36923,53,70,41
284.36923,284.69214,56,70,41
284.70255,285.02548,61,70,41
285.0359,285.3588,49,110,41
285.36923,285.69214,49,110,41
285.70255,286.02548,49,110,41
286.0359,286.3588,49,110,41
286.36923,286.69214,49,110,41
286.70255,287.02548,49,110,41
287.0359,287.3588,49,110,41
287.36923,287.69214,49,110,41
287.70255,288.02548,49,110,41
288.0359,288.3588,49,110,41
288.36923,288.69214,49,100,41
288.70255,289.02548,49,90,41
289.0359,289.3588,50,70,41
289.36923,289.69214,59,70,41
289.70255,290.02548,59,70,41
291.0359,292.3588,53,70,41
292.36923,292.69214,56,70,41
292.70255,293.02548,61,70,41
293.0359,294.3588,54,70,41
294.36923,294.69214,57,70,41
294.70255,295.02548,60,70,41
295.0359,296.3588,51,70,41
296.36923,296.69214,54,70,41
296.70255,297.02548,59,70,41
297.36923,297.69214,57,70,41
297.70255,298.02548,55,70,41
298.0359,299.3588,54,70,41
299.36923,299.69214,54,70,41
299.70255,300.02548,52,70,41
300.0359,301.3588,51,70,41
301.36923,301.69214,57,70,41
301.70255,302.02548,55,70,41
302.0359,303.3758,54,70,41
303.38675,303.72668,54,70,41
303.73764,304.07755,52,70,41
304.0885,304.4473,51,70,41
304.4589,304.83157,51,83,41
304.84406,305.23157,51,97,41
305.24408,309.90656,52,110,41
310.04407,310.53366,54,100,41
312.3774,312.4399,55,70,41
312.4399,312.70032,54,70,41
312.71072,313.03366,53,70,41
313.04407,313.39005,54,70,41
313.4012,313.76727,51,70,41
313.7798,314.1673,52,90,41
314.17978,318.8173,52,110,41
318.9798,319.96936,54,70,41
320.9798,321.96936,66,70,41
322.9798,323.96936,59,70,41
324.9798,325.96936,66,70,41
326.9798,327.96936,59,70,41
328.9798,329.96936,60,65,41
330.9798,331.96936,59,60,41
332.9798,333.96936,58,55,41
334.9798,335.96936,54,50,41
338.9798,340.96936,64,110,41
340.9798,342.96936,63,110,41
342.9798,343.96936,68,90,41
344.4798,344.96936,56,70,41
344.9798,346.96936,54,70,41
346.9798,348.96936,56,70,41
348.9798,350.96936,49,70,41
350.9798,351.96936,57,70,41
351.9798,352.96936,54,70,41
352.9798,353.96936,56,70,41
353.9798,354.96936,61,70,41
354.9798,357.46936,49,70,41
359.9798,360.96936,56,70,41
360.9798,361.96936,54,70,41
361.9798,362.96936,57,70,41
362.9798,364.96936,56,70,41
364.9798,366.96936,56,90,41
366.9798,367.96936,61,110,41
367.9798,369.00348,58,110,41
369.01425,370.07452,57,110,41
370.0857,370.9089,57,90,41
370.92142,371.20892,59,75,41
371.2214,372.211,56,70,41
379.2214,381.211,52,70,41
381.2214,383.211,56,70,41
383.2214,385.211,59,70,41
385.2214,387.211,63,70,41
387.2214,390.211,64,70,41
390.2214,390.961,62,70,41
390.9714,391.211,61,70,41
391.2214,391.961,59,70,41
391.9714,392.211,57,70,41
392.2214,392.961,56,70,41
392.9714,393.211,54,70,41
393.2214,394.211,52,70,41
394.2214,395.211,50,70,41
395.2214,399.211,49,70,41
399.2214,399.711,49,70,41
399.9714,400.1485,57,77,41
400.2214,400.711,54,80,41
400.9714,401.1485,57,87,41
401.2214,401.711,54,90,41
401.9714,402.1485,57,98,41
402.2214,402.711,54,100,41
402.9714,403.1485,57,108,41
403.2214,404.211,51,110,41
404.2214,404.961,51,70,41
404.9714,405.211,51,70,41
405.2214,405.961,52,70,41
405.9714,406.211,58,70,41
406.2214,406.961,58,70,41
406.9714,407.211,58,70,41
407.2214,408.211,56,70,41
408.2214,408.961,51,80,41
408.9714,409.211,51,87,41
409.2214,409.961,52,90,41
409.9714,410.211,57,98,41
410.2214,410.961,57,100,41
410.9714,411.211,57,108,41
411.2214,412.211,57,110,41
412.2214,412.961,66,70,41
412.9714,413.211,66,70,41
413.2214,413.961,68,70,41
413.9714,414.211,61,70,41
414.2214,414.961,61,70,41
414.9714,415.211,61,70,41
415.2214,416.211,59,70,41
416.2214,416.961,63,70,41
416.9714,417.211,63,70,41
417.2214,417.98648,64,70,41
417.99728,418.24512,66,70,41
418.2559,419.0578,67,70,41
419.0694,419.33557,66,70,41
419.34717,420.3923,66,70,41
420.4027,421.3923,71,70,41
421.4027,422.3923,71,70,41
422.4027,423.3923,73,70,41
423.4027,424.3923,66,70,41
424.4027,425.16782,63,70,41
425.1786,425.42642,64,70,41
425.4372,426.2296,66,70,41
426.24075,426.49747,59,70,41
426.50864,427.39612,61,70,41
427.40863,427.69614,63,70,41
427.70862,429.64822,64,70,41
429.65863,429.89822,59,70,41
429.90863,430.64822,56,70,41
430.78363,430.89822,56,70,41
430.90863,431.64822,56,70,41
431.78363,431.89822,63,70,41
431.90863,433.64822,64,70,41
433.65863,433.89822,66,70,41
433.90863,435.89822,68,70,41
435.90863,437.4151,69,70,41
437.42587,437.93234,57,70,41
437.9431,439.0228,59,70,41
439.03436,440.31982,59,70,41
440.33545,442.1666,64,110,41
442.17758,442.42975,59,110,41
442.44073,443.1803,59,110,41
443.31573,443.4303,59,110,41
443.44073,444.1803,59,110,41
444.31573,444.4303,59,110,41
444.44073,448.4303,59,110,41
448.44073,449.1803,57,90,41
449.19073,449.4303,59,70,41
449.44073,449.9303,61,70,41
449.94073,450.4303,55,70,41
450.44073,451.4824,56,80,41
451.49335,453.75363,68,90,41
453.76477,454.50436,71,70,41
454.51477,454.75436,59,70,41
454.76477,455.75436,59,70,41
455.76477,456.50436,71,70,41
456.51477,456.75436,59,70,41
456.76477,457.75436,59,70,41
457.76477,458.50436,71,70,41
458.51477,458.75436,59,70,41
458.76477,459.75436,59,70,41
459.76477,460.50436,71,70,41
460.51477,460.75436,59,70,41
460.76477,461.75436,59,70,41
461.76477,462.50436,71,70,41
462.51477,462.75436,59,70,41
462.76477,463.75436,59,70,41
463.76477,464.50436,71,70,41
464.51477,464.75436,59,70,41
464.76477,465.75436,59,70,41
465.76477,466.50436,71,80,41
466.51477,466.75436,59,88,41
466.76477,467.80646,59,90,41
467.8174,468.70685,71,100,41
468.72043,469.03293,59,84,41
469.0465,471.0718,68,80,41
471.0822,473.0718,63,70,41
473.0822,475.0718,64,70,41
475.0822,477.0718,59,70,41
477.0822,479.0718,61,70,41
479.0822,481.0718,56,70,41
481.0822,482.0718,63,70,41
482.0822,482.40515,64,70,41
482.41556,482.73846,63,70,41
482.7489,483.0718,61,70,41
483.0822,485.0718,59,70,41
485.0822,488.0718,66,70,41
488.0822,490.0718,69,82,41
490.0822,491.0718,68,90,41
491.0822,492.0718,64,94,41
492.0822,493.0718,66,98,41
493.0822,494.0718,68,102,41
494.0822,495.0718,61,106,41
495.0822,495.40515,59,110,41
495.41556,495.73846,63,110,41
495.7489,496.0718,64,110,41
496.0822,496.40515,66,110,41
496.41556,496.73846,68,110,41
496.7489,497.0718,69,110,41
497.0822,499.0718,68,110,41
499.0822,507.0718,64,90,41
507.0822,518.10596,66,70,41
507.0822,518.10596,69,70,41
518.1167,519.177,54,80,41
519.1881,520.3756,54,90,41
520.3881,521.8725,54,100,41
521.8881,525.90155,56,70,41
525.9119,527.90155,52,70,41
527.9119,529.90155,51,70,41
529.9119,531.23486,50,70,41
531.2453,531.5682,59,70,41
531.5786,531.90155,56,70,41
531.9119,533.23486,50,70,41
533.2453,533.5682,52,70,41
533.5786,533.90155,50,70,41
533.9119,535.23486,48,70,41
535.2453,535.5682,52,70,41
535.5786,535.90155,57,70,41
535.9119,537.23486,51,70,41
537.2453,537.5682,54,70,41
537.5786,537.90155,59,70,41
537.9119,539.23486,52,70,41
539.2453,539.5682,51,70,41
539.5786,539.90155,52,70,41
539.9119,541.23486,51,70,41
541.2453,541.5682,49,70,41
541.5786,541.90155,51,70,41
541.9119,543.23486,52,70,41
543.2453,543.5682,51,70,41
543.5786,543.90155,52,70,41
545.2453,545.5682,49,70,41
545.5786,545.90155,51,70,41
545.9119,546.23486,52,70,41
546.2453,546.5682,54,70,41
546.5786,546.90155,56,70,41
546.9119,547.23486,57,70,41
547.2453,547.5682,59,70,41
547.5786,547.90155,61,70,41
547.9119,549.90155,59,70,41
549.9119,550.9184,57,70,41
550.9292,552.0524,61,70,41
552.0649,552.5895,54,70,41
553.13635,553.6609,56,70,41
554.20776,554.7323,57,80,41
555.2792,555.8037,59,88,41
556.3506,556.9155,61,97,41
557.50446,558.14307,61,105,41
558.8088,560.7984,59,110,41
560.8088,564.7984,57,110,41
564.8088,568.7984,61,110,41
568.8088,572.7984,62,110,41
572.8088,576.7984,63,110,41
576.8088,580.7984,57,110,41
580.8088,582.7984,56,110,41
582.8088,584.8325,52,90,41
584.84326,586.75775,54,70,41
586.77026,587.12964,56,70,41
587.14526,588.3015,52,70,41
588.31195,588.6348,52,72,41
588.64526,588.9682,52,72,41
588.9786,589.3015,52,73,41
590.31195,590.6348,56,76,41
590.64526,590.9682,56,76,41
590.9786,591.3015,56,77,41
592.31195,592.6348,57,80,41
592.64526,592.9682,57,81,41
592.9786,593.3015,57,81,41
594.31195,594.6348,57,84,41
594.64526,594.9682,57,85,41
594.9786,595.3015,57,85,41
595.31195,596.62445,52,86,41
596.64526,596.9682,59,89,41
596.9786,597.3015,56,90,41
597.31195,598.62445,50,90,41
598.64526,598.9682,52,93,41
598.9786,599.3015,50,94,41
599.31195,600.3015,48,95,41
600.31195,600.6348,49,97,41
600.64526,600.9682,52,97,41
600.9786,601.3015,57,98,41
601.31195,602.62445,51,99,41
602.64526,602.9682,54,101,41
602.9786,603.3015,59,102,41
603.31195,604.6348,52,103,41
604.64526,604.9682,51,106,41
604.9786,605.3015,52,106,41
605.64526,606.9736,51,108,41
606.64526,606.9736,49,110,41
606.9844,607.3184,51,110,41
607.32916,608.7281,52,110,41
608.73926,609.09143,51,99,41
609.103,609.46185,52,96,41
609.4734,610.9934,51,94,41
611.00586,611.41895,49,82,41
611.43317,611.8735,51,80,41
611.8877,614.0837,52,80,41
614.09485,620.51227,56,78,41
620.52344,620.8694,59,71,41
620.88055,621.22656,57,71,41
621.2377,621.5837,56,70,41
621.59485,621.9408,54,70,41
621.95197,622.298,52,70,41
622.30914,622.6551,51,69,41
622.66626,631.246,52,69,41
631.2575,631.82245,56,60,41
632.4114,632.9989,56,60,41
633.6114,634.19885,56,60,41
636.01135,636.5989,52,60,41
638.4114,644.39575,52,100,41
6.0,7.9895835,49,70,42
8.0,9.989583,48,70,42
10.0,10.989583,47,70,42
11.0,12.060267,45,70,42
12.071428,15.984495,47,70,42
21.070127,23.059711,47,110,42
23.070127,25.059711,48,110,42
25.070127,27.059711,49,110,42
27.070127,29.059711,47,90,42
29.070127,30.059711,40,70,42
31.070127,32.130394,47,70,42
32.141556,33.329056,45,70,42
33.341557,35.38377,44,70,42
35.394188,37.38377,42,70,42
37.394188,39.38377,45,70,42
39.394188,41.38377,44,70,42
41.394188,43.38377,48,70,42
43.394188,45.38377,49,70,42
45.394188,48.454453,47,70,42
49.665615,51.70783,53,70,42
51.718246,53.70783,54,70,42
53.718246,57.70783,48,110,42
57.718246,59.70783,49,110,42
59.718246,61.870415,47,105,42
61.88199,62.923653,40,70,42
73.934616,75.9242,47,70,42
75.934616,77.9242,51,70,42
77.934616,81.9242,52,70,42
81.934616,83.9242,48,70,42
83.934616,85.9242,44,70,42
85.934616,87.9242,49,110,42
87.934616,89.9242,47,110,42
89.934616,90.9242,46,110,42
90.934616,91.6742,46,70,42
91.684616,91.9242,46,70,42
91.934616,92.6742,47,70,42
92.684616,92.9242,49,70,42
92.934616,93.6742,49,70,42
93.684616,93.9242,49,70,42
93.934616,97.9242,54,70,42
97.934616,98.6742,54,70,42
98.684616,98.9242,67,83,42
98.934616,99.6742,66,84,42
99.684616,99.9242,64,87,42
99.934616,100.6742,62,88,42
100.684616,100.9242,61,92,42
100.934616,101.6742,59,93,42
101.684616,101.9242,61,96,42
101.934616,103.71313,58,97,42
103.72409,103.97629,59,105,42
103.98725,104.840614,61,106,42
104.85264,105.129074,63,109,42
105.1411,106.10577,64,110,42
106.119354,106.431854,61,95,42
106.44544,108.256454,63,80,42
108.26687,108.506454,61,80,42
108.51687,109.256454,59,80,42
109.39187,109.506454,54,80,42
109.51687,110.256454,59,80,42
110.39187,110.506454,61,80,42
110.51687,112.256454,63,80,42
112.26687,112.506454,63,80,42
112.51687,114.506454,66,80,42
114.51687,116.03222,68,80,42
116.04319,116.55854,56,80,42
116.5695,117.66904,59,80,42
117.68061,118.95914,58,80,42
118.97476,120.8059,47,110,42
120.816864,121.06906,49,110,42
121.080025,121.81961,51,110,42
121.955025,122.06961,52,110,42
122.080025,122.81961,51,110,42
122.955025,123.06961,49,110,42
123.080025,124.81961,47,110,42
124.830025,125.06961,46,90,42
125.080025,125.81961,44,70,42
125.955025,126.06961,42,70,42
126.080025,126.81961,40,70,42
126.955025,127.06961,39,70,42
127.080025,127.81961,37,70,42
127.830025,128.06961,39,70,42
128.08002,128.56961,40,70,42
128.58002,129.06961,41,70,42
129.08002,130.17957,42,80,42
130.19113,131.60483,54,90,42
131.6197,132.60928,54,70,42
133.6197,134.60928,61,70,42
135.6197,136.60928,58,70,42
137.6197,138.60928,59,70,42
139.6197,141.60928,69,80,42
141.6197,141.94263,68,80,42
141.95303,142.27596,66,80,42
142.28638,142.60928,64,80,42
142.6197,142.94263,63,80,42
142.95303,143.27596,61,80,42
143.28638,143.60928,59,80,42
143.6197,144.60928,58,80,42
144.6197,145.60928,67,90,42
145.6197,145.96568,66,100,42
145.97685,146.32283,64,104,42
146.33398,146.67998,63,107,42
146.69113,147.07863,61,110,42
147.09114,147.47864,59,100,42
147.49113,147.87863,58,90,42
147.89113,149.91643,59,80,42
149.92685,151.91643,54,80,42
151.92685,153.91643,56,70,42
153.92685,155.91643,51,70,42
155.92685,157.91643,52,70,42
157.92685,159.91643,47,70,42
159.92685,161.91643,49,70,42
161.92685,162.24977,54,70,42
162.26018,162.5831,52,70,42
162.59352,162.91643,51,70,42
162.92685,163.24977,49,70,42
163.26018,163.5831,47,70,42
163.59352,163.91643,46,70,42
163.92685,164.24977,44,70,42
164.26018,164.5831,42,70,42
164.59352,164.91643,40,70,42
164.92685,165.24977,39,70,42
165.26018,165.5831,37,72,42
165.59352,165.91643,36,75,42
165.92685,166.24977,37,78,42
166.26018,166.5831,39,80,42
166.59352,166.91643,40,83,42
166.92685,167.24977,42,86,42
167.26018,167.5831,44,89,42
167.59352,167.91643,46,91,42
167.92685,168.24977,47,94,42
168.26018,168.5831,49,97,42
168.59352,168.91643,51,100,42
168.92685,169.24977,52,102,42
169.26018,169.5831,54,105,42
169.59352,169.91643,56,108,42
169.92685,188.91643,54,110,42
192.18831,192.41748,47,70,42
192.52165,192.75081,47,70,42
192.85498,193.08415,47,70,42
193.18831,193.6779,47,70,42
194.18831,194.41748,47,70,42
194.52165,194.75081,47,70,42
194.85498,195.08415,47,70,42
195.18831,195.6779,47,70,42
196.18831,196.41748,47,70,42
196.52165,196.75081,47,70,42
196.85498,197.08415,47,70,42
197.18831,197.6779,47,70,42
198.18831,198.41748,47,70,42
198.52165,198.75081,47,70,42
198.85498,199.08415,47,70,42
199.18831,199.6779,47,70,42
200.18831,200.41748,47,70,42
200.52165,200.75081,47,70,42
200.85498,201.08415,47,70,42
201.18831,201.6779,47,70,42
202.18831,202.41748,47,70,42
202.52165,202.75081,47,70,42
202.85498,203.08415,47,70,42
203.18831,203.6779,47,70,42
204.18831,204.41748,47,70,42
204.52165,204.75081,47,70,42
204.85498,205.08415,47,70,42
205.18831,205.6779,47,70,42
206.18831,206.41748,47,70,42
206.52165,206.75081,47,70,42
206.85498,207.08415,47,70,42
207.18831,207.6779,47,70,42
208.18831,210.1779,63,70,42
210.18831,212.1779,61,70,42
212.18831,214.1779,64,70,42
214.18831,216.1779,63,70,42
216.18831,218.1779,67,70,42
218.18831,219.1779,68,70,42
219.18831,220.1779,64,70,42
220.18831,222.32,66,70,42
222.33118,223.51868,54,70,42
224.62209,226.61166,47,50,42
226.62209,230.61166,43,110,42
230.62209,232.61166,42,110,42
232.62209,234.61166,45,120,42
234.62209,236.81776,45,110,42
236.83026,237.10527,38,70,42
237.23027,237.45943,38,70,42
237.5636,237.79277,38,70,42
237.89693,238.38652,38,70,42
238.89693,239.1261,38,70,42
239.23027,239.45943,38,70,42
239.5636,239.79277,38,70,42
239.89693,240.38652,38,70,42
240.89693,241.1261,38,70,42
241.23027,241.45943,38,70,42
241.5636,241.79277,38,70,42
241.89693,242.38652,38,70,42
242.89693,243.1261,38,70,42
243.23027,243.45943,38,70,42
243.5636,243.79277,38,70,42
243.89693,244.38652,38,70,42
244.89693,245.1261,38,70,42
245.23027,245.45943,38,70,42
245.5636,245.79277,38,70,42
245.89693,246.38652,38,70,42
246.89693,247.1261,38,70,42
247.23027,247.45943,38,70,42
247.5636,247.79277,38,70,42
247.89693,248.38652,38,70,42
248.89693,249.1261,36,70,42
249.23027,249.45943,36,70,42
249.5636,249.79277,36,70,42
249.89693,250.38652,36,70,42
250.89693,251.1261,41,70,42
251.23027,251.45943,41,70,42
251.5636,251.79277,41,70,42
251.89693,252.38652,41,70,42
252.89693,254.88652,46,50,42
254.89693,256.8865,45,50,42
256.89694,258.8865,48,50,42
258.89694,260.8865,47,50,42
260.89694,262.8865,50,50,42
262.89694,264.8865,48,50,42
264.89694,266.8865,52,50,42
266.89694,268.8865,51,62,42
268.89694,270.8865,54,74,42
270.89694,272.8865,53,86,42
272.89694,273.21985,56,98,42
273.23026,273.5532,56,100,42
273.5636,273.8865,56,102,42
273.89694,274.21985,56,104,42
274.23026,274.5532,56,106,42
274.5636,274.8865,56,108,42
274.89694,275.21985,56,110,42
275.23026,275.5532,56,110,42
275.5636,275.8865,56,110,42
275.89694,276.23685,56,110,42
276.2478,276.60355,56,110,42
276.61554,276.98816,56,110,42
277.00018,277.34616,57,120,42
277.3573,277.69214,57,120,42
277.70255,278.02548,57,120,42
278.0359,278.3588,57,120,42
278.36923,278.69214,57,120,42
278.70255,279.02548,57,120,42
279.0359,279.3588,57,120,42
279.36923,279.69214,57,120,42
279.70255,280.02548,57,120,42
280.0359,280.3588,57,120,42
280.36923,280.69214,57,105,42
280.70255,281.02548,57,90,42
281.0359,281.3588,59,70,42
281.36923,281.69214,47,70,42
281.70255,282.02548,47,70,42
282.0359,282.52548,47,70,42
283.0359,283.3588,49,70,42
283.36923,283.69214,49,70,42
283.70255,284.02548,49,70,42
284.0359,284.52548,49,70,42
285.0359,285.3588,45,110,42
285.36923,285.69214,45,110,42
285.70255,286.02548,45,110,42
286.0359,286.3588,45,110,42
286.36923,286.69214,45,110,42
286.70255,287.02548,45,110,42
287.0359,287.3588,45,110,42
287.36923,287.69214,45,110,42
287.70255,288.02548,45,110,42
288.0359,288.3588,45,110,42
288.36923,288.69214,45,100,42
288.70255,289.02548,45,90,42
289.0359,289.3588,45,70,42
289.36923,289.69214,47,70,42
289.70255,290.02548,47,70,42
290.0359,290.52548,47,70,42
291.0359,291.3588,49,70,42
291.36923,291.69214,49,70,42
291.70255,292.02548,49,70,42
292.0359,292.52548,49,70,42
293.36923,293.69214,45,70,42
293.70255,294.02548,45,70,42
294.0359,294.52548,45,70,42
295.36923,295.69214,47,70,42
295.70255,296.02548,47,70,42
296.0359,296.52548,47,70,42
297.0359,300.3588,47,70,42
300.36923,300.69214,47,70,42
300.70255,301.02548,47,70,42
301.0359,304.4473,47,70,42
304.4589,304.83157,47,83,42
304.84406,305.23157,47,97,42
305.24408,309.93158,48,110,42
310.04407,310.36697,47,100,42
313.4012,313.76727,47,70,42
313.7798,314.1673,47,90,42
314.17978,318.8173,36,110,42
314.17978,318.8173,48,110,42
318.9798,319.96936,47,70,42
319.9798,320.71936,59,70,42
320.7298,320.96936,47,70,42
320.9798,321.96936,47,70,42
321.9798,322.71936,59,70,42
322.7298,322.96936,47,70,42
322.9798,323.96936,47,70,42
323.9798,324.71936,59,70,42
324.7298,324.96936,47,70,42
324.9798,325.96936,47,70,42
325.9798,326.71936,59,70,42
326.7298,326.96936,47,70,42
326.9798,327.96936,47,70,42
327.9798,328.71936,59,68,42
328.7298,328.96936,47,66,42
328.9798,329.96936,47,65,42
329.9798,330.71936,59,63,42
330.7298,330.96936,47,61,42
330.9798,331.96936,47,60,42
331.9798,332.71936,59,57,42
332.7298,332.96936,47,55,42
332.9798,333.96936,47,55,42
333.9798,334.71936,59,52,42
334.7298,334.96936,47,50,42
334.9798,335.46936,47,50,42
335.7298,335.90686,46,50,42
335.9798,336.46936,47,50,42
336.7298,336.90686,46,50,42
336.9798,337.46936,47,50,42
337.7298,337.90686,46,50,42
337.9798,338.46936,47,50,42
338.7298,338.90686,46,50,42
338.9798,339.46936,47,50,42
339.7298,339.90686,45,72,42
339.9798,340.46936,47,80,42
340.7298,340.90686,45,103,42
340.9798,341.46936,47,110,42
341.7298,341.90686,45,95,42
341.9798,342.46936,47,90,42
342.7298,342.90686,45,75,42
342.9798,343.71936,44,70,42
343.7298,343.90686,47,70,42
343.9798,344.71936,45,70,42
344.7298,344.90686,44,70,42
344.9798,345.71936,42,70,42
345.7298,345.90686,40,70,42
345.9798,346.71936,39,70,42
346.7298,346.90686,37,70,42
346.9798,347.71936,36,70,42
347.7298,347.90686,44,70,42
347.9798,348.71936,46,70,42
348.7298,348.90686,48,70,42
349.4798,349.65686,47,70,42
348.9798,349.71936,49,70,42
349.9798,350.71936,45,70,42
350.7298,350.90686,44,70,42
350.9798,351.71936,42,70,42
351.7298,351.90686,47,70,42
351.9798,352.71936,49,70,42
352.7298,352.90686,51,70,42
352.9798,353.71936,52,70,42
353.7298,353.90686,51,70,42
353.9798,354.71936,49,70,42
354.7298,354.90686,45,70,42
354.9798,355.71936,47,70,42
355.7298,355.90686,52,70,42
355.9798,356.71936,56,70,42
356.7298,356.90686,58,70,42
356.9798,357.71936,59,70,42
357.7298,357.90686,57,70,42
357.9798,358.71936,56,70,42
358.7298,358.90686,54,70,42
358.9798,359.71936,53,70,42
359.7298,359.90686,51,70,42
359.9798,360.71936,49,70,42
360.7298,360.90686,53,70,42
360.9798,361.71936,54,70,42
361.7298,361.90686,52,70,42
361.9798,362.71936,51,70,42
362.7298,362.90686,49,70,42
362.9798,363.71936,48,70,42
363.7298,363.90686,46,77,42
363.9798,364.71936,44,80,42
364.7298,364.90686,42,87,42
364.9798,365.71936,40,90,42
365.7298,365.90686,39,98,42
365.9798,366.71936,37,100,42
366.7298,366.90686,36,108,42
366.9798,367.71936,37,110,42
367.7298,367.90686,40,110,42
367.9798,368.74487,46,110,42
368.75565,368.93884,49,110,42
369.01425,369.80667,47,110,42
369.81784,370.00757,51,95,42
370.0857,370.9089,54,90,42
370.92142,371.1339,59,75,42
371.2214,371.711,40,70,42
371.9714,372.1485,56,70,42
372.2214,372.711,52,70,42
372.9714,373.1485,56,70,42
373.2214,373.711,47,70,42
373.9714,374.1485,56,70,42
374.2214,374.711,52,70,42
374.9714,375.1485,56,70,42
375.2214,375.711,47,70,42
375.9714,376.1485,54,70,42
376.2214,376.711,51,70,42
376.9714,377.1485,54,70,42
377.2214,377.711,47,70,42
377.9714,378.1485,57,70,42
378.2214,378.711,54,70,42
378.9714,379.1485,57,70,42
379.2214,379.711,47,70,42
379.9714,380.1485,56,70,42
380.2214,380.711,52,70,42
380.9714,381.1485,56,70,42
381.2214,381.711,47,70,42
381.9714,382.1485,56,70,42
382.2214,382.711,52,70,42
382.9714,383.1485,56,70,42
383.2214,383.711,47,70,42
383.9714,384.1485,57,70,42
384.2214,384.711,54,70,42
384.9714,385.1485,57,70,42
385.2214,385.711,47,70,42
385.9714,386.1485,57,70,42
386.2214,386.711,54,70,42
386.9714,387.1485,57,70,42
387.2214,387.711,52,70,42
387.9714,388.1485,59,70,42
388.2214,388.711,56,70,42
388.9714,389.1485,59,70,42
389.2214,389.711,52,70,42
389.9714,390.1485,59,70,42
390.2214,390.711,56,70,42
390.9714,391.1485,59,70,42
391.2214,391.711,52,70,42
391.9714,392.1485,62,70,42
392.2214,392.711,59,70,42
392.9714,393.1485,62,70,42
393.2214,393.711,52,70,42
393.9714,394.1485,59,70,42
394.2214,394.711,56,70,42
394.9714,395.1485,59,70,42
395.2214,395.711,53,70,42
395.9714,396.1485,61,70,42
396.2214,396.711,56,70,42
396.9714,397.1485,61,70,42
397.2214,397.711,49,70,42
397.9714,398.1485,56,70,42
398.2214,398.711,53,70,42
398.9714,399.1485,56,70,42
399.2214,401.211,42,70,42
401.2214,403.211,45,90,42
403.2214,404.211,44,110,42
404.2214,404.961,48,70,42
404.9714,405.211,48,70,42
405.2214,405.961,49,70,42
405.9714,406.211,51,70,42
406.2214,406.961,51,70,42
406.9714,407.211,51,70,42
407.2214,408.211,44,70,42
408.2214,408.961,48,80,42
408.9714,409.211,48,87,42
409.2214,409.961,49,90,42
409.9714,410.211,54,98,42
410.2214,410.961,54,100,42
410.9714,411.211,54,108,42
411.2214,412.211,54,110,42
412.2214,412.961,51,70,42
412.9714,413.211,51,70,42
413.2214,413.961,52,70,42
413.9714,414.211,54,70,42
414.2214,414.961,54,70,42
414.9714,415.211,54,70,42
415.2214,419.33557,59,70,42
419.34717,420.1423,59,70,42
420.1527,420.3923,72,80,42
420.4027,421.1423,71,80,42
421.1527,421.3923,69,80,42
421.4027,422.1423,67,80,42
422.1527,422.3923,66,80,42
422.4027,423.1423,64,80,42
423.1527,423.3923,66,80,42
423.4027,424.1423,63,80,42
424.1527,424.3923,64,80,42
424.4027,425.16782,66,80,42
425.1786,425.42642,68,80,42
425.4372,426.2296,69,80,42
426.24075,426.49747,63,80,42
426.50864,427.39612,64,80,42
427.40863,427.69614,66,80,42
427.70862,429.64822,68,80,42
429.65863,429.89822,66,80,42
429.90863,430.64822,64,80,42
430.78363,430.89822,59,80,42
430.90863,431.64822,64,80,42
431.78363,431.89822,66,80,42
431.90863,433.64822,68,80,42
433.65863,433.89822,69,80,42
433.90863,435.89822,71,80,42
435.90863,437.4151,73,80,42
437.42587,437.93234,61,80,42
437.9431,439.0228,64,80,42
439.03436,440.31982,63,80,42
440.33545,442.1666,52,110,42
442.17758,442.42975,54,110,42
442.44073,443.1803,56,110,42
443.31573,443.4303,57,110,42
443.44073,444.1803,56,110,42
444.31573,444.4303,54,110,42
444.44073,446.1803,52,110,42
446.19073,446.4303,51,90,42
446.44073,447.1803,49,70,42
447.31573,447.4303,47,70,42
447.44073,448.1803,45,70,42
448.31573,448.4303,44,70,42
448.44073,449.1803,42,70,42
449.19073,449.4303,44,70,42
449.44073,449.9303,45,70,42
449.94073,450.4303,46,70,42
450.44073,451.4824,47,80,42
451.49335,452.68085,59,90,42
452.69336,453.75363,59,70,42
454.76477,455.75436,66,70,42
456.76477,457.75436,63,70,42
458.76477,459.75436,64,70,42
460.76477,462.75436,74,80,42
462.76477,463.0877,73,80,42
463.0981,463.42102,71,80,42
463.43146,463.75436,69,80,42
463.76477,464.0877,68,80,42
464.0981,464.42102,66,80,42
464.43146,464.75436,64,80,42
464.76477,465.75436,63,80,42
465.76477,466.75436,72,90,42
466.76477,467.1047,71,100,42
467.11566,467.45557,69,104,42
467.46655,467.80646,68,107,42
467.8174,468.19,66,110,42
468.20203,468.59814,64,100,42
468.61172,469.03293,63,95,42
469.0465,471.0718,64,90,42
471.0822,473.0718,59,80,42
473.0822,475.0718,61,70,42
475.0822,477.0718,56,70,42
477.0822,479.0718,57,70,42
479.0822,481.0718,52,70,42
481.0822,483.0718,54,70,42
483.0822,483.40515,59,70,42
483.41556,483.73846,57,70,42
483.7489,484.0718,56,70,42
484.0822,484.40515,54,70,42
484.41556,484.73846,52,70,42
484.7489,485.0718,51,70,42
485.0822,485.40515,49,70,42
485.41556,485.73846,47,71,42
485.7489,486.0718,45,72,42
486.0822,486.40515,44,74,42
486.41556,486.73846,42,75,42
486.7489,487.0718,40,76,42
487.0822,487.40515,39,78,42
487.41556,487.73846,37,79,42
487.7489,488.0718,36,80,42
488.0822,488.40515,37,82,42
488.41556,488.73846,39,83,42
488.7489,489.0718,40,85,42
489.0822,489.40515,42,86,42
489.41556,489.73846,40,87,42
489.7489,490.0718,39,89,42
490.0822,490.40515,40,90,42
490.41556,490.73846,42,91,42
490.7489,491.0718,44,93,42
491.0822,491.40515,45,94,42
491.41556,491.73846,47,95,42
491.7489,492.0718,49,97,42
492.0822,492.40515,51,98,42
492.41556,492.73846,52,100,42
492.7489,493.0718,54,101,42
493.0822,493.40515,52,102,42
493.41556,493.73846,54,104,42
493.7489,494.0718,56,105,42
494.0822,494.40515,57,106,42
494.41556,494.73846,59,108,42
494.7489,495.0718,61,109,42
495.0822,518.10596,59,110,42
518.1167,519.177,47,80,42
519.1881,520.3756,47,90,42
520.3881,521.8725,47,100,42
521.8881,522.1672,40,70,42
522.2453,522.5057,40,70,42
522.5786,522.83905,40,70,42
522.9119,523.40155,40,70,42
523.9119,524.17236,40,70,42
524.2453,524.5057,40,70,42
524.5786,524.83905,40,70,42
524.9119,525.40155,40,70,42
525.9119,526.17236,40,70,42
526.2453,526.5057,40,70,42
526.5786,526.83905,40,70,42
526.9119,527.40155,40,70,42
527.9119,528.17236,40,70,42
528.2453,528.5057,40,70,42
528.5786,528.83905,40,70,42
528.9119,529.40155,40,70,42
529.9119,530.17236,40,70,42
530.2453,530.5057,40,70,42
530.5786,530.83905,40,70,42
530.9119,531.40155,40,70,42
531.9119,532.17236,40,70,42
532.2453,532.5057,40,70,42
532.5786,532.83905,40,70,42
532.9119,533.40155,40,70,42
533.9119,534.17236,40,70,42
534.2453,534.5057,40,70,42
534.5786,534.83905,40,70,42
534.9119,535.40155,40,70,42
535.9119,536.17236,40,70,42
536.2453,536.5057,40,70,42
536.5786,536.83905,40,70,42
536.9119,537.40155,40,70,42
537.9119,538.17236,40,70,42
538.2453,538.5057,40,70,42
538.5786,538.83905,40,70,42
538.9119,539.40155,40,70,42
539.9119,540.17236,40,70,42
540.2453,540.5057,40,70,42
540.5786,540.83905,40,70,42
540.9119,541.40155,40,70,42
541.9119,542.17236,40,70,42
542.2453,542.5057,40,70,42
542.5786,542.83905,40,70,42
542.9119,543.40155,40,70,42
543.9119,544.17236,40,70,42
544.2453,544.5057,40,70,42
544.5786,544.83905,40,70,42
544.9119,545.40155,40,70,42
545.9119,546.40155,40,70,42
547.9119,548.23486,59,70,42
548.2453,548.5682,57,70,42
548.5786,548.90155,56,70,42
548.9119,549.23486,54,70,42
549.2453,549.5682,52,70,42
549.5786,549.90155,51,70,42
549.9119,550.23486,49,70,42
550.2453,550.5736,47,70,42
550.58435,550.9184,45,70,42
550.9292,551.27515,44,70,42
551.2863,551.6524,42,70,42
551.6649,552.0524,40,70,42
552.0649,552.5895,39,70,42
553.13635,553.6609,40,70,42
554.20776,554.7323,42,80,42
555.2792,555.8037,44,88,42
556.3506,556.9155,45,97,42
557.50446,558.14307,46,105,42
558.8088,560.7984,47,110,42
560.8088,564.7984,48,110,42
564.8088,568.7984,49,110,42
568.8088,572.7984,53,110,42
572.8088,576.7984,54,110,42
576.8088,580.7984,48,110,42
580.8088,582.7984,47,110,42
582.8088,587.12964,47,90,42
587.14526,587.5359,40,70,42
587.64526,587.9057,40,70,42
587.9786,588.239,40,71,42
588.31195,588.8015,40,72,42
589.31195,589.5723,40,74,42
589.64526,589.9057,40,74,42
589.9786,590.239,40,75,42
590.31195,590.8015,40,76,42
591.31195,591.5723,40,78,42
591.64526,591.9057,40,79,42
591.9786,592.239,40,79,42
592.31195,592.8015,40,80,42
593.31195,593.5723,40,82,42
593.64526,593.9057,40,83,42
593.9786,594.239,40,83,42
594.31195,594.8015,40,84,42
595.31195,595.5723,40,86,42
595.64526,595.9057,40,87,42
595.9786,596.239,40,88,42
596.31195,596.8015,40,88,42
597.31195,597.5723,40,90,42
597.64526,597.9057,40,91,42
597.9786,598.239,40,92,42
598.31195,598.8015,40,92,42
599.31195,599.5723,40,95,42
599.64526,599.9057,40,95,42
599.9786,600.239,40,96,42
600.31195,600.8015,40,97,42
601.31195,601.5723,40,99,42
601.64526,601.9057,40,99,42
601.9786,602.239,40,100,42
602.31195,602.8015,40,101,42
603.31195,603.5723,40,103,42
603.64526,603.9057,40,104,42
603.9786,604.239,40,104,42
604.31195,604.8015,40,105,42
605.31195,605.5723,40,107,42
605.64526,605.9057,40,108,42
605.9786,606.239,40,108,42
606.31195,606.8015,40,109,42
607.32916,607.5986,40,110,42
607.674,607.94684,40,108,42
608.02496,608.304,40,105,42
608.38214,608.9067,40,102,42
609.4734,609.76276,40,94,42
609.84375,610.13715,40,91,42
610.22125,610.5217,40,88,42
610.6059,611.19336,40,85,42
611.8877,616.22656,40,80,42
616.2377,623.01227,52,76,42
623.02344,623.3694,51,68,42
623.38055,623.72656,49,68,42
623.7377,624.0837,47,68,42
624.09485,624.4408,46,67,42
624.45197,624.798,49,67,42
624.80914,625.1551,47,67,42
625.16626,625.51227,45,66,42
625.52344,625.8694,44,66,42
625.88055,626.2265,42,65,42
626.2377,626.5837,40,65,42
626.59485,626.9408,39,65,42
626.95197,627.298,40,64,42
627.30914,627.6551,39,64,42
627.66626,628.01227,42,63,42
628.0234,628.3694,40,63,42
628.38055,628.7265,39,63,42
628.7377,629.0837,42,62,42
629.09485,629.4408,40,62,42
629.45197,629.798,39,61,42
629.80914,630.1551,42,61,42
630.16626,630.51227,40,61,42
630.5234,630.8756,39,60,42
630.88715,631.246,42,60,42
631.2575,631.6301,40,60,42
631.64215,632.0148,39,60,42
632.02673,632.39935,42,60,42
632.4114,632.7989,40,60,42
632.8114,633.19885,39,60,42
633.21136,633.5989,42,60,42
633.6114,634.19885,40,60,42
636.01135,636.5989,40,60,42
638.4114,644.39575,40,100,42
