start_time,end_time,note_value,velocity,instrument_program_number
0.0,0.66203636,60,110,40
0.666666,0.7731474,84,90,40
0.777777,0.8842584,86,70,40
0.888888,0.9953694,88,70,40
1.222221,1.3287023,86,70,40
1.333332,1.4398134,84,70,40
1.666665,1.7731464,81,70,40
1.777776,2.4398124,79,70,40
2.444442,2.5509233,84,70,40
2.555553,2.6620343,86,70,40
2.666664,2.7731454,88,70,40
2.777775,2.8564787,86,70,40
2.888886,2.9675896,84,70,40
2.999997,3.0787005,83,70,40
3.111108,3.2175894,86,70,40
3.222219,3.3009226,84,70,40
3.33333,3.4120336,83,70,40
3.444441,3.5231447,81,70,40
3.555552,4.2175884,79,70,40
4.333329,4.4120326,77,70,40
4.44444,4.5509214,76,70,40
4.777773,4.8842545,74,70,40
4.888884,4.995365,72,70,40
5.222217,5.328698,71,70,40
5.333328,5.4398093,71,70,40
5.444439,5.5509205,69,70,40
5.55555,5.662031,67,70,40
5.666661,5.7731423,69,70,40
5.777772,6.4398084,71,70,40
6.444438,6.5509195,73,70,40
6.555549,6.66203,75,72,40
6.66666,6.8842525,76,75,40
6.888882,6.995363,78,81,40
6.999993,7.1064744,75,84,40
7.111104,7.2175856,76,87,40
7.333326,7.4398074,76,93,40
7.444437,7.5509186,77,96,40
7.555548,7.666125,79,99,40
7.786317,7.902244,81,105,40
7.9072847,8.0232115,83,107,40
8.028252,8.690289,84,120,40
8.694918,8.801399,84,70,40
8.806029,8.91251,86,70,40
8.91714,9.023622,88,70,40
9.250473,9.356955,86,70,40
9.361584,9.468065,84,70,40
9.694917,9.801398,81,70,40
9.806028,10.468064,79,70,40
10.472694,10.579175,84,70,40
10.583805,10.690287,86,70,40
10.694916,10.801397,88,70,40
10.806027,10.88473,86,70,40
10.917138,10.995842,84,70,40
11.028249,11.106953,83,70,40
11.13936,11.245841,86,70,40
11.250471,11.329175,84,70,40
11.361582,11.440286,83,70,40
11.472693,11.551396,81,70,40
11.583804,12.24584,79,70,40
12.361581,12.440285,77,70,40
12.472692,12.579173,76,70,40
12.806025,12.912506,74,70,40
12.917136,13.023618,72,70,40
13.250469,13.356951,71,70,40
13.36158,13.468061,71,70,40
13.472691,13.579172,69,70,40
13.583802,13.690284,67,70,40
13.694913,13.801394,69,70,40
13.806024,14.4680605,71,70,40
14.47269,14.579171,73,75,40
14.583801,14.690283,75,77,40
14.694912,14.912504,76,80,40
14.917134,15.023616,78,85,40
15.028245,15.134727,75,87,40
15.139356,15.46806,76,90,40
15.5838,15.912503,79,100,40
16.028244,16.69028,78,110,40
16.69491,16.912502,85,90,40
16.917131,17.023613,85,70,40
17.028242,17.134724,82,70,40
17.139355,17.301392,78,70,40
17.361576,17.523613,78,70,40
17.583797,17.745834,78,70,40
17.80602,18.134724,78,70,40
18.250463,18.59181,84,80,40
18.712002,19.069864,83,90,40
19.195871,19.565664,83,100,40
19.695871,20.357908,84,120,40
20.362537,20.469019,84,70,40
20.473648,20.58013,86,70,40
20.58476,20.691242,88,70,40
20.918093,21.024574,86,70,40
21.029203,21.135685,84,70,40
21.362537,21.469019,81,70,40
21.473648,22.135685,79,70,40
22.140314,22.246796,84,70,40
22.251425,22.357906,86,70,40
22.362535,22.469017,88,70,40
22.473646,22.552351,86,70,40
22.584759,22.663462,84,70,40
22.69587,22.774572,83,70,40
22.80698,22.913462,86,70,40
22.91809,22.996794,84,70,40
23.029202,23.107906,83,70,40
23.140312,23.219017,81,70,40
23.251425,23.91346,79,70,40
24.029202,24.107904,77,70,40
24.140312,24.246794,76,70,40
24.473644,24.580126,74,70,40
24.584757,24.691236,72,70,40
24.918089,25.02457,71,70,40
25.0292,25.135681,71,70,40
25.14031,25.246792,69,70,40
25.251423,25.357903,67,70,40
25.362534,25.469015,69,70,40
25.473644,26.135681,71,70,40
26.14031,26.246792,73,75,40
26.251421,26.357903,75,77,40
26.362532,26.580124,76,80,40
26.584755,26.691235,78,85,40
26.695866,26.802347,75,87,40
26.806976,27.13568,76,90,40
27.25142,27.592766,79,100,40
27.712957,28.383541,78,110,40
28.38817,28.605762,85,90,40
28.610394,28.716875,85,70,40
28.721504,28.827986,82,70,40
28.832615,28.994652,78,70,40
29.054836,29.216873,78,70,40
29.27706,29.439096,78,70,40
29.49928,29.827984,78,70,40
29.943726,30.28507,84,80,40
30.405264,30.757444,83,90,40
30.881453,31.251245,83,100,40
31.381453,32.043488,84,120,40
32.04812,32.154602,84,70,40
32.15923,32.265713,86,70,40
32.27034,32.376823,88,70,40
32.603676,32.710155,86,70,40
32.714787,32.821266,84,70,40
33.04812,33.1546,81,70,40
33.15923,33.821266,79,70,40
33.825893,33.932377,84,70,40
33.937008,34.043488,86,70,40
34.04812,34.1546,88,70,40
34.15923,34.23793,86,70,40
34.27034,34.34904,84,70,40
34.38145,34.460155,83,70,40
34.49256,34.59904,86,70,40
34.603672,34.682377,84,70,40
34.714783,34.793488,83,70,40
34.825893,34.9046,81,70,40
34.937004,35.59904,79,70,40
35.714783,35.793484,77,70,40
35.825893,35.932373,76,70,40
36.159225,36.26571,74,70,40
36.270336,36.37682,72,70,40
36.60367,36.71015,71,70,40
36.714783,36.821262,71,70,40
36.825893,36.932373,69,70,40
36.937004,37.043484,67,71,40
37.048115,37.154594,69,72,40
37.159225,37.821262,71,73,40
37.82589,37.932373,69,78,40
37.937,38.043484,71,79,40
38.048115,38.710148,72,80,40
38.71478,38.82126,71,85,40
38.82589,38.932373,75,86,40
38.937,39.04117,76,87,40
39.154392,39.25856,71,88,40
39.26309,39.367252,76,89,40
39.371784,39.47595,78,90,40
39.589172,39.69334,71,92,40
39.69787,39.802036,78,93,40
39.806564,39.910732,79,93,40
40.023956,40.128124,76,95,40
40.132652,40.236816,79,96,40
40.24135,40.345512,81,97,40
40.458736,40.562904,76,99,40
40.567432,40.6716,81,99,40
40.67613,40.780296,83,100,40
40.89352,40.99769,76,102,40
41.002216,41.10638,83,103,40
41.110912,41.215076,84,104,40
41.3283,41.43247,81,105,40
41.436996,41.541164,78,106,40
41.545692,41.64986,75,107,40
41.763084,41.867252,71,109,40
41.87178,41.975945,75,110,40
41.980476,42.08464,76,110,40
42.197865,42.302032,71,110,40
42.30656,42.41073,75,110,40
42.415257,42.519424,76,110,40
42.63265,42.736816,71,110,40
42.741344,42.84551,76,110,40
42.85004,42.954205,78,110,40
43.06743,43.171597,71,110,40
43.176125,43.280293,78,110,40
43.28482,43.38899,79,110,40
43.502213,43.606377,76,110,40
43.61091,43.715073,79,110,40
43.719604,43.82377,81,110,40
43.936993,44.04116,76,110,40
44.04569,44.149857,81,110,40
44.154385,44.258553,83,110,40
44.371777,44.47594,76,110,40
44.480473,44.584637,83,110,40
44.58917,44.693333,84,110,40
44.806557,44.910725,81,110,40
44.915253,45.01942,78,110,40
45.02395,45.128117,75,110,40
45.24134,45.345505,71,110,40
45.350037,45.4542,75,110,40
45.458733,45.562897,76,110,40
45.567425,45.671593,78,110,40
45.67612,45.78029,76,110,40
45.784817,45.888985,75,110,40
45.893513,45.99768,76,110,40
46.00221,46.106377,79,110,40
46.110905,46.21507,78,110,40
46.2196,46.323765,76,110,40
46.328297,46.43246,75,110,40
46.43699,46.541157,76,110,40
46.545685,46.649853,75,110,40
46.65438,46.75855,73,110,40
46.763077,46.867245,75,110,40
46.871773,46.97594,78,110,40
46.98047,47.084633,76,110,40
47.089165,47.19333,75,110,40
47.19786,47.302025,76,110,40
47.306553,47.41072,78,110,40
47.41525,47.519417,76,110,40
47.523945,47.628113,75,110,40
47.63264,47.73681,76,110,40
47.741337,47.845505,79,110,40
47.850033,47.954197,78,110,40
47.95873,48.062893,76,110,40
48.067425,48.17159,75,110,40
48.176117,48.280285,76,110,40
48.284813,48.38898,78,110,40
48.39351,48.497677,79,110,40
48.502205,48.606373,81,110,40
48.6109,48.71507,83,110,40
48.719597,48.82376,85,110,40
48.828293,48.932457,87,110,40
48.93699,49.14985,88,110,40
50.241333,50.29568,72,110,40
50.29568,50.35003,74,110,40
50.35003,50.404377,72,110,40
50.404377,50.458725,74,110,40
50.458725,50.53119,72,110,40
50.53119,50.603653,71,110,40
50.603653,50.676113,72,110,40
50.676113,50.78028,71,110,40
50.893505,50.997673,71,110,40
51.0022,51.10637,72,110,40
51.110897,51.215065,74,110,40
51.32829,51.432453,74,110,40
51.436985,51.54115,76,110,40
51.545677,51.649845,78,110,40
51.76307,51.867237,79,110,40
51.871765,51.975933,81,110,40
51.98046,52.03481,83,110,40
52.03481,52.089157,84,110,40
52.089157,52.143505,83,110,40
52.143505,52.197853,84,110,40
52.197853,52.270317,83,110,40
52.270317,52.34278,81,110,40
52.34278,52.41524,83,110,40
52.41524,52.628105,81,110,40
53.71959,53.773937,69,110,40
53.773937,53.828285,71,110,40
53.828285,53.882633,69,110,40
53.882633,53.93698,71,110,40
53.93698,54.009445,69,110,40
54.009445,54.08191,67,110,40
54.08191,54.15437,69,110,40
54.15437,54.258537,67,110,40
54.37176,54.47593,67,110,40
54.480457,54.584625,69,110,40
54.589153,54.69332,71,110,40
54.806545,54.91071,71,110,40
54.91524,55.019405,72,110,40
55.023933,55.1281,74,110,40
55.241325,55.345493,76,110,40
55.35002,55.45419,78,110,40
55.458717,55.513065,79,110,40
55.513065,55.567413,81,110,40
55.567413,55.62176,79,110,40
55.62176,55.67611,81,110,40
55.67611,55.748573,79,110,40
55.748573,55.821033,78,110,40
55.821033,55.893497,79,110,40
55.893497,56.54114,78,126,40
56.545673,56.758533,79,110,40
56.76306,57.410706,78,126,40
57.415237,57.628098,77,110,40
57.632626,57.84549,78,110,40
57.850018,58.28027,90,110,40
58.2848,58.49766,91,110,40
58.50219,59.149834,90,110,40
59.154366,59.367226,89,110,40
59.371754,59.584618,90,110,40
59.589146,60.024128,78,110,40
60.02876,60.246353,79,100,40
60.25098,60.468575,76,93,40
60.4732,60.690796,74,85,40
60.695423,60.921387,73,77,40
60.926193,61.170986,78,70,40
61.176193,61.393787,71,70,40
61.398415,61.61601,74,70,40
61.62064,61.83823,78,70,40
61.84286,62.06045,83,70,40
62.065083,62.282673,82,70,40
62.287304,62.504898,85,70,40
62.731747,62.94934,85,70,40
62.95397,63.171562,83,70,40
63.176193,63.393784,86,70,40
63.620636,63.83823,86,70,40
63.842857,64.06045,84,70,40
64.06508,64.28267,88,70,40
64.50952,64.72712,88,70,40
64.73174,64.94934,79,70,40
64.953964,65.17156,84,70,40
65.17619,65.39378,88,70,40
65.398415,65.616005,91,70,40
65.620636,65.83823,90,70,40
65.84286,66.06045,86,70,40
66.2873,66.50489,86,70,40
66.50952,66.72711,85,70,40
66.73174,66.94933,90,70,40
67.176186,67.39378,90,70,40
67.39841,67.616005,86,70,40
67.62063,67.83823,83,70,40
68.73174,68.94933,78,95,40
68.953964,69.171555,74,100,40
69.62063,69.83822,78,70,40
69.84285,70.06045,73,70,40
70.50952,70.72711,78,70,40
70.73174,70.94933,74,70,40
71.39841,71.616,76,70,40
71.62063,71.83822,72,70,40
72.28729,72.50488,79,70,40
72.509514,72.72711,76,70,40
73.176186,73.393776,74,70,40
73.39841,73.616,78,70,40
74.08216,74.3153,73,70,40
74.32026,74.56505,82,70,40
74.57026,75.23229,83,50,40
75.23692,75.34341,85,50,40
75.34804,75.45452,83,50,40
75.459145,76.121185,82,50,40
76.12582,76.23229,83,50,40
76.23692,76.34341,82,50,40
76.34804,77.01007,83,50,40
77.0147,77.121185,85,50,40
77.12581,77.23229,83,50,40
77.23692,77.34341,82,50,40
77.34804,77.45451,83,50,40
77.459145,77.56563,85,50,40
77.57026,77.676735,83,50,40
77.681366,77.78785,82,50,40
77.79248,77.89896,85,50,40
77.90359,78.01007,83,50,40
78.0147,78.12118,82,50,40
78.12581,78.34341,83,50,40
78.34803,78.45451,71,50,40
78.459145,78.56563,73,50,40
78.57025,78.676735,74,50,40
79.23692,79.3434,71,50,40
79.34803,79.45451,73,50,40
79.459145,79.56563,74,50,40
81.90359,82.01006,71,50,40
82.014694,82.12118,73,50,40
82.12581,82.23229,74,50,40
82.34803,82.45451,71,50,40
82.45914,82.56562,72,50,40
82.57025,82.676735,74,50,40
85.014694,85.12118,71,50,40
85.1258,85.232285,72,50,40
85.236916,85.3434,74,50,40
85.45914,85.56562,74,50,40
85.57025,85.67673,76,50,40
85.68136,85.78784,77,50,40
86.34802,86.454506,62,50,40
86.45914,86.56562,64,50,40
86.570244,86.67673,65,50,40
89.90358,90.010056,74,50,40
90.01469,90.12117,76,50,40
90.1258,90.34339,77,50,40
91.23691,91.34339,74,50,40
91.34802,91.4545,76,52,40
91.45913,91.67672,77,54,40
91.68135,91.787834,86,59,40
91.792465,91.89895,88,61,40
91.90357,92.12117,89,64,40
92.12579,92.23228,86,68,40
92.23691,92.34339,88,71,40
92.34802,92.56561,89,73,40
93.81749,93.93158,55,103,40
93.93654,94.056335,57,106,40
94.06154,94.181335,59,108,40
94.18654,94.84858,60,110,40
94.8532,94.95969,84,90,40
94.96432,95.0708,86,70,40
95.075424,95.18191,88,70,40
95.40876,95.51524,86,70,40
95.519875,95.62635,84,70,40
95.8532,95.95969,81,70,40
95.96432,96.62635,79,70,40
96.63098,96.737465,84,70,40
96.742096,96.84857,86,70,40
96.8532,96.95969,88,70,40
96.96432,97.04302,86,70,40
97.075424,97.15413,84,70,40
97.18654,97.26524,83,70,40
97.297646,97.40413,86,70,40
97.40876,97.487465,84,70,40
97.51987,97.59857,83,70,40
97.63098,97.70969,81,70,40
97.74209,98.40413,79,70,40
98.51987,98.59857,77,70,40
98.63098,98.737465,76,70,40
98.96431,99.07079,74,70,40
99.075424,99.18191,72,70,40
99.40876,99.515236,71,70,40
99.51987,99.62635,71,70,40
99.63098,99.73746,69,70,40
99.74209,99.84857,67,70,40
99.8532,99.95968,69,70,40
99.96431,100.62635,71,70,40
100.63098,100.73746,73,70,40
100.74209,100.84857,75,72,40
100.8532,101.07079,76,75,40
101.075424,101.1819,78,81,40
101.18653,101.293015,75,84,40
101.297646,101.40822,76,87,40
101.52841,101.63899,76,93,40
101.6438,101.75437,77,96,40
101.759186,101.87327,79,99,40
101.99728,102.11137,81,105,40
102.116325,102.230415,83,107,40
102.235374,102.89741,84,120,40
102.90204,103.00852,84,70,40
103.013145,103.11963,86,70,40
103.12426,103.23074,88,70,40
103.457596,103.56407,86,70,40
103.5687,103.675186,84,70,40
103.90204,104.00852,81,70,40
104.013145,104.675186,79,70,40
104.67982,104.78629,84,70,40
104.790924,104.89741,86,70,40
104.90204,105.008514,88,70,40
105.013145,105.09185,86,70,40
105.12426,105.202965,84,70,40
105.23537,105.31407,83,70,40
105.34648,105.452965,86,70,40
105.45759,105.53629,84,70,40
105.5687,105.64741,83,70,40
105.67981,105.758514,81,70,40
105.790924,106.45296,79,70,40
106.5687,106.64741,77,70,40
106.67981,106.78629,76,70,40
107.013145,107.11963,74,70,40
107.12425,107.230736,72,70,40
107.45759,107.56407,71,70,40
107.5687,107.67518,71,70,40
107.67981,107.78629,69,70,40
107.790924,107.8974,67,70,40
107.90203,108.008514,69,70,40
108.013145,108.67518,71,70,40
108.67981,108.78629,73,75,40
108.790924,108.8974,75,77,40
108.90203,109.11962,76,80,40
109.12425,109.230736,78,85,40
109.23537,109.34184,75,87,40
109.34647,109.68782,76,90,40
109.808014,110.14936,79,100,40
110.269554,110.94013,78,110,40
110.94476,111.16236,85,90,40
111.166985,111.27347,85,70,40
111.2781,111.38458,82,70,40
111.389206,111.55125,78,70,40
111.61143,111.77347,78,70,40
111.83366,111.99569,78,70,40
112.05588,112.384575,78,70,40
112.50032,112.84167,84,80,40
112.96186,113.31404,83,90,40
113.43805,113.80784,83,100,40
113.93805,114.60008,84,120,40
114.60471,114.7112,84,70,40
114.71582,114.8223,86,70,40
114.826935,114.93342,88,70,40
115.16027,115.26675,86,70,40
115.27138,115.37786,84,70,40
115.60471,115.7112,81,70,40
115.71582,116.37786,79,70,40
116.38249,116.48897,84,70,40
116.4936,116.60008,86,70,40
116.60471,116.71119,88,70,40
116.71582,116.794525,86,70,40
116.826935,116.90564,84,70,40
116.93804,117.01675,83,70,40
117.04916,117.15564,86,70,40
117.16026,117.23897,84,70,40
117.27138,117.35008,83,70,40
117.382484,117.46119,81,70,40
117.4936,118.15563,79,70,40
118.27138,118.35008,77,70,40
118.382484,118.48897,76,70,40
118.71582,118.8223,74,70,40
118.826935,118.93341,72,70,40
119.16026,119.26675,71,70,40
119.27138,119.37785,71,70,40
119.382484,119.48897,69,70,40
119.4936,119.600075,67,70,40
119.604706,119.71119,69,70,40
119.71582,120.37785,71,70,40
120.382484,120.48897,73,75,40
120.4936,120.600075,75,77,40
120.604706,120.822296,76,80,40
120.82693,120.93341,78,85,40
120.93804,121.044525,75,87,40
121.04915,121.37785,76,90,40
121.49359,121.822296,79,100,40
121.93804,122.04452,85,110,40
122.04915,122.15563,82,90,40
122.16026,122.322296,78,70,40
122.382484,122.48897,78,70,40
122.604706,122.71119,78,70,40
122.82693,123.48896,78,70,40
123.49359,123.71118,85,70,40
123.71581,123.822296,85,70,40
123.82693,123.93341,82,72,40
123.938034,124.04452,78,75,40
124.160255,124.26674,84,80,40
124.27137,124.37785,81,82,40
124.382484,124.48896,78,85,40
124.604706,124.71528,86,90,40
124.720085,124.830666,83,93,40
124.83547,124.94605,77,95,40
125.06624,125.18033,86,100,40
125.18529,125.29938,83,103,40
125.30434,125.424126,79,105,40
125.55434,125.66082,88,110,40
125.88767,125.99415,86,70,40
125.99878,126.10526,84,70,40
126.332115,126.43859,81,70,40
126.44322,126.66082,79,70,40
127.10989,127.21637,84,70,40
127.221,127.327484,86,70,40
127.332115,127.43859,88,70,40
127.44322,127.52193,86,70,40
127.55434,127.63304,84,70,40
127.66544,127.74415,83,70,40
127.77656,127.88303,86,70,40
127.887665,127.96637,84,70,40
127.99878,128.07748,83,70,40
128.1099,128.1886,81,70,40
128.221,128.4386,79,70,40
128.88766,128.99414,84,85,40
128.99878,129.10526,86,100,40
129.1099,129.1886,88,120,40
129.221,129.2997,86,120,40
129.3321,129.41081,84,120,40
129.44322,129.52193,83,120,40
129.55434,129.63304,84,120,40
129.66544,129.74414,83,120,40
129.77655,129.85526,81,120,40
129.88766,129.96637,79,120,40
129.99878,130.07748,81,120,40
130.1099,130.18858,79,120,40
130.221,130.2997,77,120,40
130.3321,130.41081,76,120,40
130.44322,130.52193,77,120,40
130.55434,130.63304,76,120,40
130.66544,130.74414,74,120,40
130.77655,130.85526,72,120,40
130.88766,130.96637,71,120,40
130.99878,131.07748,72,120,40
131.10988,131.18858,74,120,40
131.221,131.2997,76,120,40
131.3321,131.41081,77,120,40
131.44322,131.52193,76,120,40
131.55434,131.63303,74,120,40
131.66544,131.74414,72,120,40
131.77655,131.85526,71,120,40
131.88766,131.96637,72,120,40
131.99878,132.07748,74,120,40
132.10988,132.18858,72,120,40
132.221,132.2997,71,120,40
132.3321,132.41081,67,120,40
132.44322,132.52193,69,120,40
132.55434,132.63303,71,120,40
132.66544,133.53047,72,120,40
132.66544,133.53047,76,120,40
133.535,134.40004,81,120,40
134.40457,134.83482,77,120,40
134.83936,135.2696,86,120,40
135.27414,135.70439,83,120,40
135.70891,136.13916,88,120,40
136.14369,136.22069,84,120,40
136.2524,136.32939,83,120,40
136.36108,136.43808,81,120,40
136.46979,136.54677,80,120,40
136.57848,136.65547,81,120,40
136.68718,136.76416,79,120,40
136.79587,136.87286,77,120,40
136.90457,136.98155,76,120,40
137.01326,137.09026,77,120,40
137.12195,137.19894,76,120,40
137.23065,137.30765,74,120,40
137.33934,137.41634,72,120,40
137.44804,137.52504,74,120,40
137.55673,137.63373,72,120,40
137.66544,137.74243,71,120,40
137.77412,137.85112,69,120,40
137.88283,137.95982,68,120,40
137.99152,138.06851,69,120,40
138.10022,138.1772,71,120,40
138.20891,138.2859,72,120,40
138.31761,138.39459,74,120,40
138.4263,138.5033,72,120,40
138.535,138.61198,71,120,40
138.64369,138.72069,69,120,40
138.75238,138.82938,68,120,40
138.86108,138.93808,69,120,40
138.96977,139.04677,71,120,40
139.07848,139.15547,69,120,40
139.18716,139.26416,68,120,40
139.29587,139.37286,64,120,40
139.40456,139.48155,66,120,40
139.51326,139.59026,68,120,40
139.62195,140.48698,69,120,40
139.62195,140.48698,72,120,40
140.49152,141.35655,77,120,40
141.36108,141.79134,74,120,40
141.79587,142.22612,82,120,40
142.23064,142.6609,79,120,40
142.66542,143.53046,84,120,40
143.53499,143.96524,81,119,40
143.96977,144.40002,77,119,40
144.40456,145.26959,82,118,40
145.27412,145.70438,79,117,40
145.7089,146.13916,76,116,40
146.14368,146.57393,81,116,40
146.57846,146.79132,74,115,40
147.66542,147.76959,83,114,40
147.77411,147.87828,84,113,40
147.88281,147.98697,86,113,40
147.9915,148.09567,83,113,40
148.1002,148.20436,84,113,40
148.2089,148.31306,86,113,40
148.3176,148.53046,84,113,40
149.40454,149.50871,81,111,40
149.51324,149.61742,82,111,40
149.62193,149.7261,84,111,40
149.73064,149.8348,81,111,40
149.83932,149.9435,82,111,40
149.94803,150.05219,84,111,40
150.05672,150.71875,82,110,40
150.72339,150.82986,82,70,40
150.8345,150.94098,84,70,40
150.9456,151.0521,86,70,40
151.27895,151.38542,84,70,40
151.39005,151.49654,82,70,40
151.72339,151.82986,79,70,40
151.8345,151.94098,77,70,40
152.16783,152.2743,75,70,40
152.27895,152.38542,74,70,40
152.61227,152.71875,72,70,40
152.72339,152.82986,70,70,40
153.05672,153.1632,69,70,40
153.16783,153.2743,70,70,40
153.50116,153.60764,67,70,40
153.61227,154.2743,65,70,40
154.27893,154.38542,70,70,40
154.39005,154.49654,72,70,40
154.50116,154.60764,74,70,40
154.83449,154.94098,72,70,40
154.9456,155.05208,70,70,40
155.27893,155.38542,67,70,40
155.39005,155.49654,65,70,40
155.72337,155.82986,63,79,40
155.83449,155.94098,62,82,40
156.16783,156.2743,60,92,40
156.27893,156.38542,58,95,40
156.50116,156.60764,69,101,40
156.72337,156.94098,67,108,40
156.9456,157.05208,65,114,40
157.05672,157.1632,67,117,40
157.16783,157.82986,69,120,40
157.83449,158.05208,57,120,40
158.05672,158.71875,69,120,40
158.72337,158.94096,57,120,40
158.9456,159.60764,69,120,40
159.61226,159.82986,57,120,40
159.83449,160.05208,69,120,40
160.05672,160.2743,57,120,40
160.27893,160.49652,69,120,40
160.50116,160.71875,57,120,40
160.72337,160.8854,77,120,40
160.9456,161.10764,76,120,40
161.16782,161.3854,74,120,40
161.39005,161.49652,73,120,40
161.50116,161.60764,74,120,40
161.61226,161.7743,75,120,40
161.83449,161.99652,74,120,40
162.0567,162.2743,72,120,40
162.27893,162.3854,71,120,40
162.39005,162.49652,72,120,40
162.50114,162.6632,74,120,40
162.72337,162.8854,72,120,40
162.9456,163.1632,70,120,40
163.16782,163.27429,69,120,40
163.27893,163.3854,70,120,40
163.39005,163.55208,72,120,40
163.61226,163.77429,70,120,40
163.83449,164.05208,69,120,40
164.0567,164.1632,67,120,40
164.16782,164.27429,69,120,40
164.27893,164.49652,71,120,40
165.16782,165.32985,80,120,40
165.39005,165.55208,79,120,40
165.61226,165.82985,77,120,40
165.83449,165.94096,75,120,40
165.94559,166.05208,77,120,40
166.0567,166.21873,79,120,40
166.27893,166.44096,77,120,40
166.50114,166.71873,75,120,40
166.72337,166.82985,74,120,40
166.83449,166.94096,75,120,40
166.94559,167.10764,77,120,40
167.16782,167.32985,75,120,40
167.39003,167.60764,74,120,40
167.61226,167.71873,72,120,40
167.72337,167.82985,74,120,40
167.83447,167.99652,76,120,40
168.0567,168.16318,76,120,40
168.16782,168.27429,77,120,40
168.27893,168.49652,79,120,40
168.50114,168.60762,81,120,40
168.61226,168.71873,82,120,40
168.72337,169.82985,81,120,40
169.83447,169.94096,77,120,40
169.94559,170.05206,79,120,40
170.0567,170.27429,81,120,40
170.27892,170.3854,83,120,40
170.39003,170.49652,84,120,40
170.50114,173.3854,83,120,40
173.39003,173.4965,71,120,40
173.50114,173.60762,72,120,40
173.61226,173.71873,74,120,40
173.83447,173.94095,74,120,40
173.94559,174.05206,76,120,40
174.0567,174.16318,77,120,40
174.27892,174.3854,79,120,40
174.39003,174.4965,81,120,40
174.50114,174.5567,83,120,40
174.5567,174.61224,84,120,40
174.61224,174.6678,83,120,40
174.6678,174.72336,84,120,40
174.72336,174.79744,83,120,40
174.79744,174.8715,81,120,40
174.8715,174.94559,83,120,40
174.94559,175.16318,84,120,40
176.50114,176.71873,67,120,40
176.72336,176.82983,68,120,40
176.94559,177.05206,68,120,40
177.05669,177.16318,69,120,40
177.1678,177.27429,71,120,40
177.39003,177.4965,71,120,40
177.50114,177.60762,72,120,40
177.61224,177.71873,74,120,40
177.83447,177.94095,76,120,40
177.94559,178.05206,78,120,40
178.05669,178.11224,80,120,40
178.11224,178.1678,81,120,40
178.1678,178.22336,80,120,40
178.22336,178.27892,81,120,40
178.27892,178.35298,80,120,40
178.35298,178.42706,78,120,40
178.42706,178.50113,80,120,40
178.50113,178.71873,81,120,40
178.72336,178.82983,69,120,40
178.83447,178.94095,71,120,40
178.94559,179.05206,72,120,40
179.1678,179.27428,72,120,40
179.27892,179.38539,74,120,40
179.39003,179.4965,76,120,40
179.61224,179.71873,78,120,40
179.72336,179.82983,80,120,40
179.83447,179.89003,81,120,40
179.89003,179.94557,83,120,40
179.94557,180.00113,81,120,40
180.00113,180.05669,83,120,40
180.05669,180.13077,81,120,40
180.13077,180.20483,80,120,40
180.20483,180.27892,81,120,40
180.27892,180.38539,83,120,40
180.50113,180.60762,76,120,40
180.61224,180.71872,78,120,40
180.72336,180.82983,79,120,40
180.94557,181.05206,79,120,40
181.05669,181.16318,81,120,40
181.1678,181.27428,83,120,40
181.39001,181.4965,85,120,40
181.50113,181.60762,87,120,40
181.61224,181.6678,88,120,40
181.6678,181.72336,90,120,40
181.72336,181.77892,88,120,40
181.77892,181.83447,90,120,40
181.83447,181.90854,88,120,40
181.90854,181.98262,87,120,40
181.98262,182.05669,88,120,40
182.27892,182.4965,87,120,40
182.50113,182.55669,87,120,40
182.55669,182.61224,88,120,40
182.61224,182.6678,87,120,40
182.6678,182.72336,88,120,40
182.72336,182.79742,87,120,40
182.79742,182.8715,85,120,40
182.8715,182.94557,87,120,40
183.1678,183.38539,88,120,40
183.39001,183.44557,88,120,40
183.44557,183.50113,90,120,40
183.50113,183.55669,88,120,40
183.55669,183.61224,90,120,40
183.61224,183.68631,88,120,40
183.68631,183.76039,87,120,40
183.76039,183.83446,88,120,40
184.05669,184.27428,90,120,40
184.27892,184.33446,90,120,40
184.33446,184.39001,91,120,40
184.39001,184.44557,90,120,40
184.44557,184.50113,91,120,40
184.50113,184.57521,90,120,40
184.57521,184.64928,88,120,40
184.64928,184.72336,90,120,40
184.72336,184.7789,91,120,40
184.7789,184.83446,93,120,40
184.83446,184.89001,91,120,40
184.89001,184.94557,93,120,40
184.94557,185.01965,91,120,40
185.01965,185.09372,90,120,40
185.09372,185.1678,91,120,40
185.1678,185.22336,93,120,40
185.22336,185.2789,95,120,40
185.2789,185.33446,93,120,40
185.33446,185.39001,95,120,40
185.39001,185.4641,93,120,40
185.4641,185.53816,91,120,40
185.53816,185.61224,93,120,40
185.61224,186.27428,95,120,40
186.2789,186.4965,96,120,40
186.50113,187.16316,95,120,40
187.1678,187.38539,94,120,40
187.39001,187.6076,95,120,40
187.61224,188.05205,83,120,40
188.05669,188.27428,84,120,40
188.2789,188.94093,83,120,40
188.94557,189.16316,82,120,40
189.16779,189.38539,83,120,40
189.39001,189.8382,83,120,40
189.843,190.06897,84,104,40
190.07378,190.30692,81,95,40
190.31187,190.545,79,87,40
190.54996,190.79475,78,78,40
190.79996,191.04475,83,70,40
191.04996,191.26756,76,70,40
191.27219,191.48978,79,70,40
191.49442,191.712,83,70,40
191.71663,191.93422,88,70,40
191.93886,192.15645,87,70,40
192.16107,192.37866,90,70,40
192.60551,192.8231,90,70,40
192.82774,193.04533,88,70,40
193.04996,193.26755,91,70,40
193.4944,193.712,91,70,40
193.71663,193.93422,89,70,40
193.93884,194.15645,93,70,40
194.3833,194.60089,93,70,40
194.60551,194.8231,84,70,40
194.82774,195.04533,89,70,40
195.04996,195.26755,93,70,40
195.27219,195.48978,96,70,40
195.4944,195.71199,95,70,40
195.71663,195.93422,91,70,40
196.16107,196.37866,91,70,40
196.38329,196.60089,93,70,40
196.60551,196.8231,90,70,40
197.04996,197.26755,90,70,40
197.27219,197.48978,91,70,40
197.4944,197.71199,88,74,40
197.93884,198.15643,88,83,40
198.60551,198.8231,83,96,40
198.82773,199.04533,79,100,40
199.4944,199.71199,83,70,40
199.71663,199.93422,78,70,40
200.38329,200.60088,83,70,40
200.60551,200.8231,79,70,40
201.27217,201.48976,81,70,40
201.4944,201.71199,77,70,40
202.16106,202.37866,84,70,40
202.38329,202.60088,81,70,40
203.04996,203.26755,79,70,40
203.27217,203.48976,83,70,40
203.93884,204.15643,78,70,40
204.16106,204.37865,83,70,40
204.38329,204.60088,76,70,40
204.6055,204.8231,79,80,40
204.82773,205.04532,82,90,40
205.04996,205.26755,88,100,40
205.27217,206.15643,89,110,40
206.16106,207.04532,88,110,40
207.04994,207.96822,89,110,40
207.97302,208.944,88,110,40
209.41075,209.63672,72,70,40
209.64153,209.86748,69,70,40
210.33383,210.55978,67,70,40
210.56459,210.79056,71,70,40
211.2569,211.48286,66,70,40
211.48767,211.71364,71,70,40
212.62442,212.84201,72,110,40
212.84665,213.06424,77,110,40
213.06886,213.28645,81,110,40
213.29109,213.50868,84,110,40
213.5133,213.73091,82,110,40
213.73553,213.95312,79,110,40
214.17998,214.39757,79,110,40
214.4022,214.6198,81,110,40
214.62442,214.84201,77,110,40
215.06886,215.28645,77,110,40
215.29109,215.51704,79,110,40
215.52185,215.74782,72,110,40
215.99072,216.23552,72,90,40
216.70226,216.92822,84,70,40
216.93303,217.159,81,70,40
217.62534,217.8513,79,70,40
217.85611,218.08206,83,70,40
218.54842,218.77437,78,70,40
218.77917,219.00514,87,70,40
219.00995,219.67198,88,70,40
219.67662,219.7831,90,70,40
219.78772,219.89421,88,70,40
219.89883,220.56087,87,70,40
220.5655,220.67198,88,70,40
220.67662,220.7831,90,70,40
220.78772,221.44977,88,70,40
221.45439,221.56087,90,70,40
221.5655,221.67198,88,70,40
221.67662,221.7831,87,70,40
221.78772,221.89421,88,70,40
221.89883,222.00531,90,70,40
222.00995,222.11642,88,70,40
222.12106,222.22754,87,70,40
222.23216,222.33865,90,70,40
222.34328,222.44975,88,70,40
222.45439,222.56087,87,70,40
222.5655,222.7831,88,70,40
222.78772,222.89421,76,50,40
222.89883,223.00531,78,50,40
223.00995,223.22754,79,50,40
223.6766,223.7831,76,50,40
223.78772,223.89421,78,50,40
223.89883,224.11642,79,50,40
226.34328,226.44975,76,50,40
226.45439,226.56087,78,50,40
226.56549,226.67198,79,50,40
226.78772,226.8942,76,50,40
226.89883,227.00531,77,50,40
227.00993,227.11642,79,50,40
227.6766,227.78308,76,50,40
227.78772,227.8942,77,50,40
227.89883,228.00531,79,50,40
230.78772,230.8942,74,50,40
230.89882,231.00531,76,50,40
231.00993,231.11642,77,50,40
232.56549,232.67197,71,50,40
232.6766,232.78308,72,50,40
232.78772,232.8942,74,50,40
233.45438,233.56087,55,50,40
233.56549,233.67197,57,50,40
233.6766,233.78308,59,50,40
234.34326,234.44975,57,50,40
234.45438,234.56085,59,50,40
234.56549,234.67197,60,50,40
235.23216,235.33864,59,50,40
235.34326,235.44975,60,50,40
235.45438,235.56085,62,50,40
236.12105,236.22752,60,50,40
236.23215,236.33864,62,50,40
236.34326,236.44975,64,50,40
237.00993,237.11641,62,50,40
237.12105,237.22752,64,50,40
237.23215,237.33864,65,50,40
239.67659,239.78308,62,50,40
239.7877,239.89418,64,50,40
239.89882,240.0053,65,50,40
240.56548,240.67197,62,53,40
240.67659,240.78308,64,54,40
240.7877,240.89418,65,56,40
241.00993,241.11641,74,59,40
241.12103,241.22752,76,61,40
241.23215,241.33862,77,63,40
241.45438,241.56085,86,66,40
241.56548,241.67197,88,68,40
241.67659,241.78308,89,69,40
241.89882,242.0053,86,73,40
242.00993,242.11641,88,74,40
242.12103,242.22752,89,76,40
243.59052,243.7046,55,97,40
243.70956,243.82935,57,99,40
243.83456,243.95435,59,100,40
243.95956,244.6216,60,110,40
244.62622,244.73271,84,90,40
244.73734,244.84381,86,70,40
244.84845,244.95493,88,70,40
245.18178,245.28825,86,70,40
245.2929,245.39937,84,70,40
245.62622,245.73271,81,70,40
245.73734,246.39937,79,70,40
246.404,246.51048,84,70,40
246.5151,246.6216,86,70,40
246.62622,246.7327,88,70,40
246.73734,246.81604,86,70,40
246.84845,246.92715,84,70,40
246.95955,247.03825,83,70,40
247.07066,247.17715,86,70,40
247.18178,247.26048,84,70,40
247.2929,247.3716,83,70,40
247.40399,247.4827,81,70,40
247.5151,248.17714,79,70,40
248.2929,248.3716,77,70,40
248.40399,248.51048,76,70,40
248.73734,248.84381,74,70,40
248.84843,248.95493,72,70,40
249.18178,249.28825,71,70,40
249.2929,249.39937,71,70,40
249.40399,249.51048,69,70,40
249.5151,249.62158,67,70,40
249.62622,249.7327,69,70,40
249.73734,250.39937,71,70,40
250.40399,250.51048,73,75,40
250.5151,250.62158,75,77,40
250.62622,250.84381,76,80,40
250.84843,250.95493,78,85,40
250.95955,251.06602,75,87,40
251.07066,251.18124,76,90,40
251.30144,251.412,76,95,40
251.41681,251.52739,77,98,40
251.5322,251.64629,79,100,40
251.7703,251.89009,81,105,40
251.8953,252.01509,83,108,40
252.0203,252.68233,84,110,40
252.68697,252.79344,84,70,40
252.79807,252.90456,86,70,40
252.90918,253.01567,88,70,40
253.24252,253.349,86,70,40
253.35362,253.46011,84,70,40
253.68697,253.79344,81,70,40
253.79807,254.46011,79,70,40
254.46474,254.57121,84,70,40
254.57585,254.68233,86,70,40
254.68697,254.79344,88,70,40
254.79807,254.87677,86,70,40
254.90918,254.98788,84,70,40
255.0203,255.099,83,70,40
255.13141,255.23788,86,70,40
255.24251,255.32121,84,70,40
255.35362,255.43233,83,70,40
255.46474,255.54344,81,70,40
255.57585,256.23788,79,70,40
256.35364,256.43234,77,70,40
256.46472,256.57123,76,70,40
256.79807,256.90454,74,70,40
256.90918,257.01566,72,70,40
257.24252,257.349,71,70,40
257.35364,257.4601,71,70,40
257.46472,257.57123,69,70,40
257.57584,257.6823,67,71,40
257.68695,257.79343,69,72,40
257.79807,258.4601,71,73,40
258.46472,258.57123,69,78,40
258.57584,258.6823,71,79,40
258.68695,259.349,72,80,40
259.3536,259.4601,71,85,40
259.46472,259.57123,75,86,40
259.57584,259.68002,76,87,40
259.79324,259.8974,71,88,40
259.90192,260.0061,76,89,40
260.01062,260.11478,78,90,40
260.22803,260.33218,71,92,40
260.3367,260.4409,78,93,40
260.4454,260.54956,79,93,40
260.6628,260.76697,76,95,40
260.77148,260.87567,79,96,40
260.8802,260.98434,81,97,40
261.0976,261.20175,76,99,40
261.20627,261.31046,81,99,40
261.31497,261.41913,83,100,40
261.53235,261.63654,76,102,40
261.64105,261.74524,83,103,40
261.74976,261.8539,84,104,40
261.96713,262.07132,81,105,40
262.07584,262.18,78,106,40
262.18454,262.2887,75,107,40
262.40192,262.5061,71,109,40
262.51062,262.61478,75,110,40
262.61932,262.72348,76,110,40
262.8367,262.9409,71,110,40
262.9454,263.04956,75,110,40
263.0541,263.15826,76,110,40
263.27148,263.37567,71,110,40
263.3802,263.48434,76,110,40
263.4889,263.59305,78,110,40
263.70627,263.81042,71,110,40
263.81497,263.91913,78,110,40
263.92368,264.02783,79,110,40
264.14105,264.2452,76,110,40
264.24976,264.3539,79,110,40
264.35846,264.46262,81,110,40
264.57584,264.68,76,110,40
264.68454,264.7887,81,110,40
264.7932,264.8974,83,110,40
265.01062,265.11478,76,110,40
265.11932,265.22348,83,110,40
265.228,265.33218,84,110,40
265.4454,265.54956,81,110,40
265.5541,265.65826,78,110,40
265.66278,265.76697,75,110,40
265.8802,265.98434,71,110,40
265.9889,266.09305,75,110,40
266.09756,266.20175,76,110,40
266.20627,266.31042,78,110,40
266.31497,266.41913,76,110,40
266.42365,266.52783,75,110,40
266.53235,266.63654,76,110,40
266.64105,266.7452,79,110,40
266.74976,266.8539,78,110,40
266.85843,266.96262,76,110,40
266.96713,267.0713,75,110,40
267.07584,267.18,76,110,40
267.18454,267.2887,75,110,40
267.2932,267.3974,73,110,40
267.40192,267.50607,75,110,40
267.51062,267.61478,78,110,40
267.61932,267.72348,76,110,40
267.728,267.83218,75,110,40
267.8367,267.94086,76,110,40
267.9454,268.04956,78,110,40
268.05408,268.15826,76,110,40
268.16278,268.26697,75,110,40
268.27148,268.37564,76,110,40
268.3802,268.48434,79,110,40
268.48886,268.59305,78,110,40
268.59756,268.70172,76,110,40
268.70627,268.81042,75,110,40
268.81497,268.91913,76,110,40
268.92365,269.02783,78,110,40
269.03235,269.1365,79,110,40
269.14105,269.2452,81,110,40
269.24976,269.3539,83,110,40
269.35843,269.46262,85,110,40
269.46713,269.5713,87,110,40
269.57584,269.73434,88,110,40
269.90192,270.00607,91,110,40
270.01062,270.11478,90,110,40
270.3367,270.44086,88,110,40
270.4454,270.54956,93,110,40
270.77148,270.87564,91,110,40
270.8802,270.98434,90,110,40
271.20627,271.31042,83,110,40
271.31497,271.41913,91,110,40
271.64105,271.7452,90,110,40
271.74973,271.8539,88,110,40
272.07584,272.18,79,110,40
272.1845,272.2887,89,110,40
272.51062,272.61478,88,110,40
272.6193,272.72348,86,110,40
272.9454,273.04956,79,110,40
273.05408,273.15826,88,110,40
273.38016,273.48434,86,110,40
273.48886,273.59305,84,110,40
273.81494,273.91913,76,110,40
273.92365,274.0278,86,110,40
274.24973,274.3539,84,110,40
274.35843,274.4626,83,110,40
274.6845,274.7887,76,110,40
274.7932,274.95172,84,110,40
275.0106,275.16913,83,110,40
275.228,275.44086,81,110,40
275.44537,275.54956,80,110,40
275.55408,275.65823,81,110,40
275.66278,275.8213,83,110,40
275.88016,276.0387,81,110,40
276.09756,276.31042,79,110,40
276.31494,276.41913,78,110,40
276.42365,276.5278,79,110,40
276.53235,276.69086,81,110,40
276.74973,276.90823,79,110,40
276.96713,277.18,78,110,40
277.1845,277.28867,76,110,40
277.2932,277.39737,78,110,40
277.40192,277.56042,79,110,40
277.6193,277.7778,78,110,40
277.8367,278.04956,76,110,40
278.05408,278.16055,75,100,40
278.1652,278.27167,76,90,40
278.2763,279.16055,74,70,40
279.1652,280.93832,72,70,40
280.94296,281.16055,71,70,40
281.1652,281.27167,73,70,40
281.2763,281.38278,75,70,40
281.38742,281.605,76,70,40
281.60962,281.8272,75,70,40
281.83185,282.71613,74,70,40
282.72073,284.93832,72,70,40
284.94296,285.8272,70,70,40
285.83185,286.7161,70,70,40
286.72073,287.60498,69,68,40
287.60962,288.4939,68,64,40
288.4985,289.38278,67,59,40
289.3874,290.27167,67,54,40
290.27628,290.49387,66,50,40
290.4985,290.60498,63,50,40
290.60962,290.7161,64,50,40
290.72073,290.8272,66,50,40
291.05408,291.16055,64,50,40
291.16516,291.27167,63,50,40
291.3874,291.49387,66,50,40
291.4985,291.60498,67,50,40
291.60962,291.7161,69,50,40
291.94296,292.04944,67,50,40
292.05408,292.16055,66,50,40
292.27628,292.38278,64,50,40
292.3874,292.49387,66,50,40
292.4985,292.60498,67,50,40
292.83185,292.93832,66,50,40
292.94296,293.04944,64,50,40
293.16516,293.27167,67,50,40
293.27628,293.38275,69,50,40
293.3874,293.49387,71,50,40
293.72073,293.8272,69,50,40
293.83185,293.93832,67,50,40
294.27628,294.38275,75,50,40
294.60962,294.7161,76,50,40
294.72073,294.8272,78,50,40
294.94296,295.04944,78,50,40
295.05405,295.16055,79,50,40
295.16516,295.27167,81,50,40
295.4985,295.60498,79,50,40
295.60962,295.7161,78,50,40
296.05405,296.16055,76,50,40
296.3874,296.49387,78,50,40
296.4985,296.60498,79,50,40
296.72073,296.8272,79,50,40
296.83185,296.93832,81,50,40
296.94296,297.04944,83,50,40
297.27628,297.38275,81,50,40
297.3874,297.49387,79,50,40
298.72073,298.8272,87,63,40
298.94293,299.04944,88,66,40
299.16516,299.27164,90,69,40
300.4985,300.60498,88,89,40
300.72073,300.8272,90,92,40
300.94293,301.04944,91,96,40
301.16516,301.27164,89,99,40
301.27628,301.38275,91,100,40
301.3874,301.60498,93,110,40
301.72073,301.8272,91,110,40
301.83182,301.93832,89,110,40
302.05405,302.16052,93,110,40
302.16516,302.27164,94,110,40
302.27628,302.50223,96,110,40
302.62244,302.733,94,110,40
302.73782,302.8519,93,110,40
303.22592,303.51965,96,120,40
305.62592,305.8435,59,70,40
305.84814,305.95462,61,70,40
305.95923,306.06573,63,70,40
306.07034,306.28793,64,70,40
306.29257,306.39905,66,70,40
306.4037,306.51016,63,70,40
306.5148,306.7324,64,70,40
306.73703,306.95462,66,70,40
306.95923,307.17682,67,70,40
307.18146,307.39905,69,70,40
307.4037,308.7324,71,110,40
308.73703,308.95462,72,100,40
308.95923,309.06573,77,105,40
309.07034,309.17682,79,108,40
309.18146,309.28793,81,110,40
309.5148,309.62128,79,110,40
309.62592,309.7324,77,110,40
309.8481,309.9587,81,110,40
309.9635,310.0741,82,110,40
310.0789,310.193,84,110,40
310.43604,310.55014,82,110,40
310.55508,310.67487,81,110,40
311.07782,311.37155,72,120,40
311.07782,311.37155,84,120,40
313.4778,313.6954,59,70,40
313.70004,313.80652,61,70,40
313.81116,313.91763,63,70,40
313.92227,314.13986,64,70,40
314.14447,314.25095,66,70,40
314.25558,314.36206,63,70,40
314.3667,314.5843,64,70,40
314.58893,314.80652,66,70,40
314.81116,315.02875,67,70,40
315.03336,315.25095,69,70,40
315.25558,316.5843,71,110,40
316.58893,317.47318,72,75,40
317.4778,317.91763,74,85,40
317.92224,318.36206,75,90,40
318.3667,318.80652,76,95,40
318.81113,319.25095,77,100,40
319.25558,319.6954,78,105,40
319.70004,321.01022,78,110,40
321.03336,321.1954,76,90,40
321.25558,321.41763,76,70,40
321.92224,322.0843,76,73,40
322.14447,322.30652,76,74,40
322.81113,322.97318,76,77,40
323.03336,323.1954,76,78,40
323.7,323.86206,75,80,40
323.92224,324.0843,75,81,40
324.58893,324.6954,79,84,40
324.7,324.80652,79,84,40
324.81113,324.9176,79,85,40
324.92224,325.02872,79,85,40
325.4778,325.5843,79,88,40
325.5889,325.6954,79,88,40
325.7,325.80652,79,88,40
325.81113,325.9176,79,89,40
326.3667,326.47318,78,91,40
326.4778,326.5843,78,92,40
326.5889,326.6954,78,92,40
326.7,326.80652,78,92,40
327.25558,327.36206,78,95,40
327.3667,327.47318,78,95,40
327.4778,327.5843,78,96,40
327.5889,327.6954,78,96,40
327.7,327.8065,79,97,40
327.81113,327.9176,79,97,40
327.92224,328.02872,79,97,40
328.03336,328.13983,79,98,40
328.14447,328.25095,83,98,40
328.25558,328.36206,83,99,40
328.3667,328.47318,83,99,40
328.47778,328.5843,83,100,40
328.5889,328.6954,83,100,40
328.7,328.8065,83,101,40
328.81113,328.9176,83,101,40
328.92224,329.02872,83,101,40
329.03336,329.13983,83,102,40
329.14447,329.25095,83,102,40
329.25558,329.36206,83,103,40
329.3667,329.47318,83,103,40
329.47778,329.5843,83,104,40
329.5889,329.6954,83,104,40
329.7,329.8065,83,105,40
329.81113,329.9176,83,105,40
329.92224,330.02872,83,106,40
330.03336,330.13983,83,106,40
330.14447,330.25095,83,106,40
330.25558,330.36206,83,107,40
330.3667,330.47726,83,107,40
330.48206,330.59265,83,108,40
330.59744,330.70804,83,108,40
330.71283,330.82343,83,109,40
330.82822,330.94232,83,109,40
330.94727,331.06137,83,110,40
331.0663,331.1861,83,110,40
331.1913,331.3111,83,110,40
331.3163,331.97363,84,120,40
331.97815,332.0823,84,120,40
332.08685,332.191,86,120,40
332.19556,332.2997,88,120,40
332.52164,332.6258,86,120,40
332.63034,332.7345,84,120,40
332.95642,333.06058,81,120,40
333.0651,333.71274,79,120,40
333.7173,333.82144,84,120,40
333.826,333.93015,86,120,40
333.93466,334.03885,88,120,40
334.04337,334.12036,86,120,40
334.15207,334.22906,84,120,40
334.26077,334.33774,83,120,40
334.36945,334.47363,86,120,40
334.47815,334.55515,84,120,40
334.58685,334.66385,83,120,40
334.69553,334.77252,81,120,40
334.80423,335.45187,79,120,40
335.5651,335.6421,77,120,40
335.6738,335.77795,76,120,40
335.99988,336.10406,74,120,40
336.10858,336.21274,72,120,40
336.43466,336.53885,71,120,40
336.54337,336.64752,71,120,40
336.65207,336.75623,69,120,40
336.76074,336.86493,67,120,40
336.86945,336.9736,69,120,40
336.97815,337.6258,71,120,40
337.6303,337.7345,69,120,40
337.739,337.84317,71,120,40
337.84772,338.49536,72,120,40
338.49988,338.60403,71,120,40
338.60858,338.71274,75,120,40
338.7173,338.82144,76,120,40
338.93466,339.03882,71,120,40
339.04337,339.14752,76,120,40
339.15207,339.25623,78,120,40
339.36945,339.4736,71,120,40
339.47815,339.5823,78,120,40
339.58685,339.691,79,120,40
339.80423,339.9084,76,120,40
339.91293,340.0171,79,120,40
340.0216,340.1258,81,120,40
340.239,340.34317,76,120,40
340.34772,340.45187,81,120,40
340.4564,340.56058,83,120,40
340.6738,340.77795,76,120,40
340.7825,340.88666,83,120,40
340.89117,340.99765,84,120,40
341.1134,341.21988,81,120,40
341.22452,341.331,78,120,40
341.33563,341.4462,75,120,40
341.5664,341.6814,71,120,40
341.6864,341.8014,75,120,40
341.8064,342.0162,76,125,40
342.53497,342.6308,64,110,40
342.63498,342.72482,76,110,40
342.91623,343.00607,74,110,40
343.00998,343.09354,72,110,40
343.2716,343.35516,69,110,40
343.3588,343.522,67,125,40
343.94214,344.022,64,110,40
344.02548,344.10532,76,110,40
344.27545,344.35532,74,110,40
344.3588,344.43866,72,110,40
344.6088,344.68866,69,110,40
344.69214,344.85532,67,125,40
345.27545,345.35532,67,110,40
345.3588,345.43866,79,110,40
345.6088,345.68866,78,110,40
345.69214,345.77197,76,110,40
345.94214,346.02197,72,110,40
346.02545,346.18866,71,125,40
346.6088,346.68866,79,110,40
346.6921,346.8171,91,110,40
346.9421,347.02197,90,110,40
347.02545,347.14352,88,110,40
347.27545,347.35532,84,110,40
347.3588,347.48032,83,125,40
347.6088,347.68866,81,110,40
347.6921,347.81366,79,110,40
347.9421,348.02197,78,110,40
348.02545,348.14697,76,125,40
348.27545,348.35532,72,110,40
348.3588,348.48032,71,110,40
348.6088,348.68863,69,110,40
348.6921,348.81363,67,125,40
348.9421,349.02197,66,110,40
349.02545,349.14697,64,110,40
349.27545,349.35532,63,120,40
349.35876,349.48032,64,120,40
349.60876,349.68863,63,120,40
349.6921,349.81363,64,120,40
349.9421,350.02197,64,120,40
350.02545,350.14697,65,120,40
350.27545,350.35532,64,120,40
350.35876,350.48032,65,120,40
350.60876,350.68863,66,120,40
350.6921,350.81363,67,120,40
350.9421,351.02197,68,120,40
351.02545,351.14697,69,120,40
351.27545,351.3553,70,120,40
351.35876,351.4803,71,120,40
351.60876,351.68863,71,120,40
351.6921,351.81363,72,120,40
351.9421,352.02197,73,120,40
352.02542,352.14697,74,120,40
352.27542,352.3553,75,120,40
352.35876,352.4803,76,120,40
352.60876,352.68863,75,120,40
352.6921,352.81363,76,120,40
352.9421,353.02197,78,120,40
353.02542,353.14697,79,120,40
353.27542,353.3553,78,120,40
353.35876,353.48593,79,120,40
353.6204,353.70398,87,120,40
353.7076,353.8394,88,120,40
353.9821,354.07193,87,120,40
354.07584,354.21255,88,120,40
354.3571,354.44693,90,120,40
354.45084,354.58755,91,120,40
354.7321,354.82193,90,120,40
354.82584,354.96255,91,120,40
355.1071,355.19693,95,120,40
355.20084,355.33755,95,120,40
355.4821,355.57193,95,120,40
355.57584,355.71255,95,120,40
355.8571,355.94693,95,120,40
355.95084,356.08755,95,120,40
356.2321,356.32193,95,120,40
356.32584,356.50943,95,120,40
356.70084,356.88443,63,120,40
356.70084,356.88443,71,120,40
356.70084,356.88443,78,120,40
357.07584,357.27167,64,120,40
357.07584,357.27167,71,120,40
357.07584,357.27167,79,120,40
357.47583,357.68564,59,120,40
357.47583,357.68564,66,120,40
357.47583,357.68564,75,120,40
357.9044,358.1142,55,120,40
357.9044,358.1142,64,120,40
357.9044,358.1142,76,120,40
358.76154,358.9875,59,120,40
358.76154,358.9875,66,120,40
358.76154,358.9875,71,120,40
359.6846,360.02594,64,127,40
363.4923,363.60287,64,1,40
0.0,0.050925873,64,1,40
0.0,0.10648137,55,110,40
0.333333,0.4398144,55,70,40
0.444444,0.5509254,55,70,40
0.777777,0.8842584,55,70,40
0.888888,0.9953694,55,70,40
1.222221,1.3287023,55,70,40
1.333332,1.4398134,57,70,40
1.666665,1.7731464,59,70,40
1.777776,1.8842573,60,70,40
2.111109,2.2175903,55,70,40
2.22222,2.3287013,55,70,40
2.555553,2.6620343,55,70,40
2.666664,2.7731454,55,70,40
2.999997,3.1064785,55,70,40
3.111108,3.2175894,57,70,40
3.444441,3.5509224,59,70,40
3.555552,3.6620333,60,70,40
3.888885,3.9953663,55,70,40
3.999996,4.1064773,55,70,40
4.333329,4.4398103,55,70,40
4.44444,4.5509214,55,70,40
4.777773,4.8842545,55,70,40
4.888884,4.995365,55,70,40
5.222217,5.328698,55,70,40
5.333328,5.4398093,55,70,40
5.666661,5.7731423,55,70,40
5.777772,5.8842535,55,70,40
6.111105,6.2175865,55,70,40
6.222216,6.328697,57,70,40
6.555549,6.66203,57,72,40
6.66666,6.7731414,57,75,40
6.999993,7.1064744,57,84,40
7.111104,7.2175856,55,87,40
7.444437,7.5509186,67,96,40
7.555548,7.666125,65,99,40
7.9072847,8.0232115,65,107,40
8.028252,8.134733,64,110,40
8.361585,8.468066,67,70,40
8.472696,8.579177,67,70,40
8.806029,8.91251,67,70,40
8.91714,9.023622,67,70,40
9.250473,9.356955,67,70,40
9.361584,9.468065,69,70,40
9.694917,9.801398,71,70,40
9.806028,9.912509,72,70,40
10.139361,10.245842,67,70,40
10.250472,10.356954,67,70,40
10.583805,10.690287,67,70,40
10.694916,10.801397,67,70,40
11.028249,11.13473,67,70,40
11.13936,11.245841,69,70,40
11.472693,11.579174,71,70,40
11.583804,11.690286,72,70,40
11.917137,12.023619,67,70,40
12.028248,12.134729,67,70,40
12.361581,12.468062,67,70,40
12.472692,12.579173,67,70,40
12.806025,12.912506,67,70,40
12.917136,13.023618,67,70,40
13.250469,13.356951,67,70,40
13.36158,13.468061,67,70,40
13.694913,13.801394,67,70,40
13.806024,13.912505,67,70,40
14.139357,14.245838,67,70,40
14.250468,14.35695,69,70,40
14.583801,14.690283,69,77,40
14.694912,14.8013935,69,80,40
15.028245,15.134727,69,87,40
15.139356,15.245837,67,90,40
15.472689,15.57917,64,98,40
15.5838,15.690281,64,100,40
15.917133,16.023615,64,108,40
16.028244,16.134726,61,110,40
16.361576,16.468058,61,70,40
16.472689,16.57917,61,70,40
16.80602,16.912502,61,70,40
16.917131,17.023613,61,70,40
17.250465,17.356947,61,70,40
17.361576,17.468058,61,70,40
17.694908,17.80139,61,70,40
17.80602,18.134724,61,70,40
18.250463,18.59181,66,80,40
18.712002,19.069864,65,90,40
19.195871,19.565664,77,100,40
19.695871,19.802353,76,110,40
20.029205,20.135687,64,70,40
20.140316,20.246798,64,70,40
20.473648,20.58013,64,70,40
20.58476,20.691242,64,70,40
20.918093,21.024574,64,70,40
21.029203,21.135685,65,70,40
21.362537,21.469019,65,70,40
21.473648,21.58013,64,70,40
21.80698,21.913462,64,70,40
21.918093,22.024574,64,70,40
22.251425,22.357906,64,70,40
22.362535,22.469017,64,70,40
22.69587,22.802351,64,70,40
22.80698,22.913462,65,70,40
23.140312,23.246794,65,70,40
23.251425,23.357904,64,70,40
23.584757,23.691238,67,70,40
23.695868,23.80235,67,70,40
24.029202,24.107904,65,70,40
24.140312,24.246794,64,70,40
24.473644,24.580126,62,70,40
24.584757,24.691236,60,70,40
24.918089,25.02457,59,70,40
25.0292,25.135681,59,70,40
25.14031,25.246792,57,70,40
25.251423,25.357903,55,70,40
25.362534,25.469015,57,70,40
25.473644,26.135681,59,70,40
26.14031,26.246792,61,75,40
26.251421,26.357903,63,77,40
26.362532,26.580124,64,80,40
26.584755,26.691235,66,85,40
26.695866,26.802347,63,87,40
26.806976,26.913458,67,90,40
27.140308,27.24679,64,98,40
27.25142,27.361998,64,100,40
27.597574,27.70815,64,108,40
27.712957,27.823534,61,110,40
28.054838,28.16132,61,70,40
28.165949,28.27243,61,70,40
28.499283,28.605762,61,70,40
28.610394,28.716875,61,70,40
28.943726,29.050207,61,70,40
29.054836,29.161318,61,70,40
29.38817,29.494652,61,70,40
29.49928,29.827984,61,70,40
29.943726,30.28507,66,80,40
30.405264,30.757444,65,90,40
30.881453,31.251245,77,100,40
31.381453,31.487934,76,110,40
31.714787,31.821268,64,70,40
31.825897,31.932379,64,70,40
32.15923,32.265713,64,70,40
32.27034,32.376823,64,70,40
32.603676,32.710155,64,70,40
32.714787,32.821266,65,70,40
33.04812,33.1546,65,70,40
33.15923,33.26571,64,70,40
33.49256,33.599045,67,70,40
33.603672,33.710155,67,70,40
33.937008,34.043488,67,70,40
34.04812,34.1546,67,70,40
34.38145,34.48793,67,70,40
34.714783,34.821266,72,70,40
34.825893,34.932377,74,70,40
34.937004,35.043488,76,70,40
35.048115,35.12682,74,70,40
35.159225,35.23793,72,70,40
35.270336,35.34904,71,70,40
35.38145,35.48793,74,70,40
35.49256,35.571262,72,70,40
35.603672,35.682373,71,70,40
35.714783,35.793484,69,70,40
35.825893,35.932373,67,70,40
36.159225,36.26571,69,70,40
36.270336,36.37682,67,70,40
36.60367,36.71015,65,70,40
36.714783,36.821262,64,70,40
37.048115,37.154594,64,72,40
37.159225,37.265705,67,73,40
37.492558,37.59904,67,75,40
37.60367,37.71015,67,76,40
37.937,38.043484,67,79,40
38.048115,38.154594,69,80,40
38.381447,38.487926,69,82,40
38.492558,38.599037,66,83,40
38.82589,38.932373,66,86,40
38.937,39.04117,64,87,40
39.26309,39.367252,64,89,40
39.371784,39.47595,63,90,40
39.69787,39.802036,63,93,40
39.806564,39.910732,64,93,40
40.132652,40.236816,64,96,40
40.24135,40.345512,64,97,40
40.567432,40.6716,64,99,40
40.67613,40.780296,64,100,40
41.002216,41.10638,68,103,40
41.110912,41.215076,69,104,40
41.436996,41.541164,69,106,40
41.545692,41.64986,63,107,40
41.87178,41.975945,71,110,40
41.980476,42.08464,71,110,40
42.197865,42.41073,55,110,40
42.197865,42.41073,64,110,40
42.63265,42.84551,55,110,40
42.63265,42.84551,64,110,40
43.06743,43.280293,57,110,40
43.06743,43.280293,66,110,40
43.502213,43.715073,59,110,40
43.502213,43.715073,67,110,40
43.936993,44.149857,64,110,40
43.936993,44.149857,69,110,40
44.371777,44.584637,62,110,40
44.371777,44.584637,71,110,40
44.806557,45.01942,72,110,40
45.24134,45.4542,69,110,40
45.458733,45.562897,67,110,40
45.784817,45.888985,66,110,40
45.893513,45.99768,64,110,40
46.2196,46.323765,59,110,40
46.328297,46.43246,69,110,40
46.65438,46.75855,67,110,40
46.763077,46.867245,66,110,40
47.089165,47.19333,59,110,40
47.19786,47.302025,67,110,40
47.523945,47.628113,66,110,40
47.63264,47.73681,64,110,40
47.95873,48.062893,59,110,40
48.067425,48.17159,69,110,40
48.39351,48.497677,67,110,40
48.502205,48.606373,66,110,40
48.828293,48.932457,59,110,40
48.93699,49.14985,67,110,40
50.676113,50.78028,78,110,40
51.0022,51.10637,76,110,40
51.110897,51.215065,74,110,40
51.436985,51.54115,71,110,40
51.545677,51.649845,66,110,40
51.871765,51.975933,64,110,40
51.98046,52.08463,62,110,40
52.30655,52.410713,59,110,40
54.15437,54.258537,74,110,40
54.480457,54.584625,72,110,40
54.589153,54.69332,71,110,40
54.91524,55.019405,67,110,40
55.023933,55.1281,62,110,40
55.35002,55.45419,60,110,40
55.458717,55.562885,59,110,40
55.784805,55.88897,55,110,40
57.850018,57.954185,73,110,40
57.958714,58.06288,74,110,40
58.06741,58.715054,76,110,40
58.71958,58.82375,74,110,40
58.828278,58.932446,73,110,40
58.936974,59.149834,74,110,40
59.154366,59.367226,71,110,40
59.371754,59.584618,73,110,40
60.926193,61.170986,61,70,40
61.176193,61.393787,62,70,40
61.62064,61.83823,62,70,40
61.84286,62.06045,66,70,40
62.509525,62.72712,61,70,40
62.731747,62.94934,66,70,40
63.398415,63.616005,62,70,40
63.620636,63.83823,66,70,40
64.2873,64.5049,64,70,40
64.50952,64.72712,67,70,40
65.17619,65.39378,60,70,40
65.398415,65.616005,64,70,40
66.06508,66.28267,62,70,40
66.2873,66.50489,66,70,40
66.953964,67.171555,61,70,40
67.176186,67.39378,66,70,40
68.73174,68.94933,74,95,40
68.953964,69.171555,71,100,40
69.62063,69.83822,73,70,40
69.84285,70.06045,70,70,40
70.50952,70.72711,74,70,40
70.73174,70.94933,71,70,40
71.39841,71.616,72,70,40
71.62063,71.83822,67,70,40
72.28729,72.50488,76,70,40
72.509514,72.72711,72,70,40
73.176186,73.393776,71,70,40
73.39841,73.616,74,70,40
74.08216,74.3153,70,70,40
74.32026,74.56505,73,70,40
74.57026,74.78785,71,50,40
74.79248,74.898964,71,50,40
74.903595,75.01007,73,50,40
75.0147,75.45452,74,50,40
75.459145,75.67674,76,50,40
75.681366,75.78785,73,50,40
75.79248,75.898964,74,50,40
75.90359,76.121185,76,50,40
76.12582,76.23229,74,50,40
76.23692,76.34341,73,50,40
76.34804,76.56563,71,50,40
76.57026,76.676735,71,50,40
76.681366,76.78785,73,50,40
76.79248,76.898964,74,50,40
76.90359,77.01007,71,50,40
77.0147,77.121185,73,50,40
77.12581,77.23229,74,50,40
77.23692,77.89896,76,50,40
77.90359,78.01007,74,50,40
78.0147,78.12118,73,50,40
78.12581,78.34341,71,50,40
78.79248,78.89896,71,50,40
78.90359,79.01007,73,50,40
79.0147,79.12118,74,50,40
80.12581,80.23229,59,50,40
80.23692,80.3434,61,50,40
80.34803,80.45451,62,50,40
81.459145,81.56562,59,50,40
81.57025,81.676735,61,50,40
81.681366,81.78784,62,50,40
82.79247,82.89896,59,50,40
82.90359,83.01006,60,50,40
83.014694,83.12118,62,50,40
84.12581,84.232285,59,50,40
84.236916,84.3434,60,50,40
84.34803,84.454506,62,50,40
85.90358,86.01006,62,50,40
86.014694,86.12117,64,50,40
86.1258,86.232285,65,50,40
89.01469,89.12117,62,50,40
89.1258,89.232285,64,50,40
89.23691,89.454506,65,50,40
90.792465,90.89895,62,50,40
90.90358,91.010056,64,50,40
91.01469,91.23228,65,50,40
91.23691,91.34339,62,50,40
91.34802,91.4545,64,52,40
91.45913,91.67672,65,54,40
91.68135,91.787834,74,59,40
91.792465,91.89895,76,61,40
91.90357,92.12117,77,64,40
92.12579,92.23228,74,68,40
92.23691,92.34339,76,71,40
92.34802,92.56561,77,73,40
94.18654,94.29302,60,110,40
94.519875,94.62636,55,70,40
94.63098,94.737465,55,70,40
94.96432,95.0708,55,70,40
95.075424,95.18191,55,70,40
95.40876,95.51524,55,70,40
95.519875,95.62635,57,70,40
95.8532,95.95969,59,70,40
95.96432,96.0708,60,70,40
96.297646,96.40413,55,70,40
96.40876,96.51524,55,70,40
96.742096,96.84857,55,70,40
96.8532,96.95969,55,70,40
97.18654,97.29302,55,70,40
97.297646,97.40413,57,70,40
97.63098,97.737465,59,70,40
97.74209,97.84857,60,70,40
98.075424,98.18191,55,70,40
98.18654,98.293015,55,70,40
98.51987,98.62635,55,70,40
98.63098,98.737465,55,70,40
98.96431,99.07079,55,70,40
99.075424,99.18191,55,70,40
99.40876,99.515236,55,70,40
99.51987,99.62635,55,70,40
99.8532,99.95968,55,70,40
99.96431,100.07079,55,70,40
100.297646,100.40413,55,70,40
100.40875,100.515236,57,70,40
100.74209,100.84857,57,72,40
100.8532,100.95968,57,75,40
101.18653,101.293015,57,84,40
101.297646,101.40822,55,87,40
101.6438,101.75437,67,96,40
101.759186,101.87327,65,99,40
102.116325,102.230415,65,107,40
102.235374,102.34185,64,110,40
102.5687,102.675186,67,70,40
102.67982,102.7863,67,70,40
103.013145,103.11963,67,70,40
103.12426,103.23074,67,70,40
103.457596,103.56407,67,70,40
103.5687,103.675186,69,70,40
103.90204,104.00852,71,70,40
104.013145,104.11963,72,70,40
104.34648,104.452965,67,70,40
104.45759,104.56407,67,70,40
104.790924,104.89741,67,70,40
104.90204,105.008514,67,70,40
105.23537,105.34185,67,70,40
105.34648,105.452965,69,70,40
105.67981,105.78629,71,70,40
105.790924,105.89741,72,70,40
106.12426,106.230736,67,70,40
106.23537,106.34185,67,70,40
106.5687,106.675186,67,70,40
106.67981,106.78629,67,70,40
107.013145,107.11963,67,70,40
107.12425,107.230736,67,70,40
107.45759,107.56407,67,70,40
107.5687,107.67518,67,70,40
107.90203,108.008514,67,70,40
108.013145,108.11963,67,70,40
108.34647,108.45296,67,70,40
108.45759,108.56407,69,70,40
108.790924,108.8974,69,77,40
108.90203,109.008514,69,80,40
109.23537,109.34184,69,87,40
109.34647,109.457054,67,90,40
109.69263,109.80321,64,98,40
109.808014,109.918594,64,100,40
110.15417,110.26475,64,108,40
110.269554,110.38013,61,110,40
110.611435,110.71791,61,70,40
110.72254,110.829025,61,70,40
111.05588,111.16236,61,70,40
111.166985,111.27347,61,70,40
111.50032,111.606804,61,70,40
111.61143,111.71791,61,70,40
111.94476,112.05125,61,70,40
112.05588,112.384575,61,70,40
112.50032,112.84167,66,80,40
112.96186,113.31404,65,90,40
113.43805,113.80784,77,100,40
113.93805,114.044525,76,110,40
114.27138,114.37786,64,70,40
114.38249,114.488976,64,70,40
114.71582,114.8223,64,70,40
114.826935,114.93342,64,70,40
115.16027,115.26675,64,70,40
115.27138,115.37786,65,70,40
115.60471,115.7112,65,70,40
115.71582,115.8223,64,70,40
116.04916,116.15564,64,70,40
116.16027,116.26675,64,70,40
116.4936,116.60008,64,70,40
116.60471,116.71119,64,70,40
116.93804,117.044525,64,70,40
117.04916,117.15564,65,70,40
117.382484,117.48897,65,70,40
117.4936,117.60008,64,70,40
117.826935,117.93341,67,70,40
117.93804,118.044525,67,70,40
118.27138,118.37786,67,70,40
118.382484,118.48897,67,70,40
118.71582,118.8223,67,70,40
118.826935,118.93341,67,70,40
119.16026,119.26675,67,70,40
119.27138,119.37785,67,70,40
119.604706,119.71119,67,70,40
119.71582,119.8223,67,70,40
120.04915,120.15563,67,70,40
120.16026,120.26675,69,100,40
120.4936,120.600075,69,100,40
120.604706,120.71119,69,100,40
120.93804,121.044525,69,100,40
121.04915,121.15563,67,90,40
121.382484,121.48897,64,98,40
121.49359,121.600075,64,100,40
121.82693,121.93341,67,108,40
121.93804,122.600075,66,110,40
122.604706,122.822296,73,70,40
122.82693,122.93341,73,70,40
122.93804,123.04452,70,70,40
123.04915,123.15563,66,70,40
123.27137,123.37785,66,70,40
123.49359,123.600075,66,70,40
123.71581,124.04452,66,70,40
124.160255,124.48896,72,80,40
124.604706,124.94605,71,90,40
125.06624,125.424126,77,100,40
125.55434,126.21637,76,110,40
126.221,126.327484,72,70,40
126.332115,126.43859,74,70,40
126.44322,126.549706,76,70,40
126.77656,126.88304,74,70,40
126.887665,126.99415,72,70,40
127.221,127.327484,69,70,40
127.332115,127.549706,67,70,40
127.99878,128.10526,72,70,40
128.1099,128.21637,74,70,40
128.221,128.32748,76,70,40
128.3321,128.41081,74,70,40
128.44322,128.52193,72,70,40
128.55434,128.63304,71,70,40
128.66545,128.77193,74,70,40
128.77655,128.85526,72,70,40
128.88766,128.96637,71,85,40
128.99878,129.07748,69,100,40
129.1099,129.32748,67,120,40
133.10022,133.53047,64,120,40
133.535,134.40004,69,120,40
134.40457,134.83482,65,120,40
134.83936,135.81308,74,120,40
135.81761,135.8946,68,120,40
135.9263,136.0033,69,120,40
136.035,136.112,71,120,40
136.14369,136.35655,72,120,40
140.05673,140.48698,60,120,40
140.49152,141.79134,65,120,40
141.79587,142.6609,70,120,40
142.66542,143.09567,79,120,40
143.1002,143.53046,77,120,40
143.53499,143.96524,72,119,40
143.96977,144.40002,74,119,40
144.40456,144.83481,80,118,40
144.83934,145.26959,79,118,40
145.27412,145.70438,75,117,40
145.7089,146.13916,73,116,40
146.14368,146.57393,79,116,40
146.57846,146.79132,77,115,40
146.79585,146.90002,65,115,40
146.90456,147.00871,67,115,40
147.01324,147.11742,68,115,40
147.12195,147.2261,65,114,40
147.23064,147.33481,67,114,40
147.33932,147.4435,68,114,40
147.44803,147.66089,67,114,40
148.53499,148.63914,63,112,40
148.64368,148.74785,65,112,40
148.75238,148.85654,66,112,40
148.86107,148.96524,63,112,40
148.96977,149.07393,65,112,40
149.07846,149.18263,66,112,40
149.18715,149.40002,65,112,40
149.62193,150.05219,75,111,40
150.05672,150.2743,74,110,40
150.27895,153.38542,62,60,40
153.39005,153.60764,63,70,40
153.61227,155.1632,62,70,40
155.16783,155.38542,63,70,40
155.39005,155.49654,62,70,40
155.72337,155.82986,58,79,40
155.83449,155.94098,58,82,40
156.16783,156.2743,69,92,40
156.16783,156.2743,65,92,40
156.27893,156.42708,65,95,40
156.27893,156.42708,70,95,40
156.50116,156.6493,57,101,40
156.72337,156.87152,55,108,40
156.9456,157.09375,62,114,40
157.16783,157.38542,61,120,40
158.9456,159.10764,81,120,40
159.16782,159.32986,79,120,40
159.39005,159.60764,77,120,40
159.61226,159.71875,76,120,40
159.72337,159.82986,77,120,40
159.83449,159.99652,79,120,40
160.05672,160.21875,77,120,40
160.27893,160.49652,76,120,40
160.50116,160.60764,74,120,40
160.61226,160.71875,76,120,40
160.72337,160.94096,77,120,40
162.27893,162.49652,78,120,40
162.50114,162.6632,79,120,40
162.72337,162.8854,81,120,40
162.9456,163.1632,82,120,40
163.16782,163.27429,84,120,40
163.27893,163.3854,82,120,40
163.39005,163.55208,81,120,40
163.61226,163.77429,82,120,40
163.83449,164.05208,84,120,40
164.0567,164.1632,86,120,40
164.16782,164.27429,84,120,40
164.27893,164.49652,83,120,40
166.0567,166.21873,60,120,40
166.27893,166.44096,62,120,40
166.50114,166.71873,63,120,40
166.72337,166.82985,65,120,40
166.83449,166.94096,63,120,40
166.94559,167.10764,62,120,40
167.16782,167.32985,63,120,40
167.39003,167.60764,65,120,40
167.61226,167.71873,67,120,40
167.72337,167.82985,65,120,40
167.83447,168.94096,64,120,40
168.94559,169.05208,61,120,40
169.0567,169.16318,62,120,40
169.16782,169.3854,64,120,40
169.39003,169.49652,65,120,40
169.50114,169.60762,67,120,40
169.61226,170.49652,65,120,40
170.50114,170.71873,66,120,40
170.72337,170.82985,63,120,40
170.83447,170.94096,64,120,40
170.94559,171.16318,66,120,40
171.16782,171.27429,67,120,40
171.27892,171.3854,69,120,40
171.39003,176.4965,67,120,40
176.50114,176.71873,76,120,40
176.72336,177.60762,64,120,40
177.61224,177.82983,74,120,40
177.94559,178.05206,72,120,40
178.05669,178.16318,71,120,40
178.39003,178.4965,68,120,40
178.50113,178.71873,64,120,40
178.50113,178.71873,72,120,40
180.05669,180.27428,72,120,40
180.27892,180.4965,71,120,40
181.83447,182.05206,71,120,40
182.05669,182.27428,69,120,40
182.05669,182.27428,71,120,40
182.27892,182.4965,69,120,40
182.27892,182.4965,71,120,40
182.50113,182.94095,69,120,40
182.50113,182.94095,71,120,40
183.1678,183.38539,67,120,40
183.1678,183.38539,71,120,40
183.39001,183.82983,67,120,40
183.39001,183.82983,71,120,40
184.05669,184.27428,66,120,40
184.05669,184.27428,71,120,40
184.27892,184.71872,66,120,40
184.27892,184.71872,71,120,40
184.94557,185.16316,71,120,40
185.39001,185.6076,76,120,40
185.61224,185.82983,75,120,40
186.72334,186.82983,76,120,40
186.83446,186.94095,78,120,40
186.94557,187.16316,79,120,40
187.1678,187.38539,76,120,40
187.39001,187.6076,78,120,40
187.61224,187.71872,66,120,40
187.72334,187.82983,67,120,40
187.83446,188.49649,69,120,40
188.50113,188.6076,67,120,40
188.61224,188.71872,66,120,40
188.72334,188.94093,67,120,40
188.94557,189.16316,64,120,40
189.16779,189.38539,66,120,40
190.79996,191.04475,66,70,40
191.04996,191.26756,67,70,40
191.49442,191.712,67,70,40
191.71663,191.93422,71,70,40
192.3833,192.60089,69,70,40
192.60551,192.8231,71,70,40
193.27219,193.48978,67,70,40
193.4944,193.712,71,70,40
194.16107,194.37866,69,70,40
194.3833,194.60089,72,70,40
195.04996,195.26755,65,70,40
195.27219,195.48978,69,70,40
195.93884,196.15643,67,70,40
196.16107,196.37866,71,70,40
196.82774,197.04533,69,70,40
197.04996,197.26755,71,70,40
198.60551,198.8231,79,96,40
198.82773,199.04533,76,100,40
199.4944,199.71199,78,70,40
199.71663,199.93422,75,70,40
200.38329,200.60088,79,70,40
200.60551,200.8231,76,70,40
201.27217,201.48976,77,70,40
201.4944,201.71199,72,70,40
202.16106,202.37866,81,70,40
202.38329,202.60088,77,70,40
203.04996,203.26755,76,70,40
203.27217,203.48976,79,70,40
203.93884,204.15643,75,70,40
204.16106,204.37865,78,70,40
205.27217,205.48976,72,110,40
205.4944,205.71199,77,110,40
205.71661,205.9342,81,110,40
205.93884,206.15643,84,110,40
206.16106,206.37865,82,110,40
206.38329,206.60088,79,110,40
206.82773,207.04532,79,110,40
207.04994,207.27591,81,110,40
207.28072,207.50668,77,110,40
207.74225,207.96822,77,110,40
207.97302,208.20616,79,110,40
208.21112,208.44426,72,110,40
208.69922,208.944,72,90,40
209.41075,209.63672,69,70,40
209.64153,209.86748,65,70,40
210.33383,210.55978,64,70,40
210.56459,210.79056,67,70,40
211.2569,211.48286,63,70,40
211.48767,211.71364,63,70,40
211.71844,211.9444,64,70,40
211.9492,212.17517,67,80,40
212.17998,212.39757,70,90,40
212.4022,212.6198,76,100,40
212.62442,213.50868,72,110,40
212.62442,213.50868,77,110,40
213.5133,214.39757,70,110,40
213.5133,214.39757,76,110,40
214.4022,215.28645,69,110,40
214.4022,215.28645,77,110,40
215.29109,216.23552,67,110,40
215.29109,216.23552,76,110,40
216.70226,216.92822,81,70,40
216.93303,217.159,77,70,40
217.62534,217.8513,76,70,40
217.85611,218.08206,79,70,40
218.54842,218.77437,75,70,40
218.77917,219.00514,78,70,40
219.00995,219.22754,76,50,40
219.23218,219.33865,64,50,40
219.34328,219.44977,66,50,40
219.45439,219.89421,67,50,40
219.89883,220.11642,69,50,40
220.12106,220.22754,66,50,40
220.23216,220.33865,67,50,40
220.34328,220.56087,69,50,40
220.5655,220.67198,67,50,40
220.67662,220.7831,66,50,40
220.78772,221.00531,64,50,40
221.00995,221.11642,64,50,40
221.12106,221.22754,66,50,40
221.23216,221.33865,67,50,40
221.34328,221.44977,64,50,40
221.45439,221.56087,66,50,40
221.5655,221.67198,67,50,40
221.67662,222.33865,69,50,40
222.34328,222.44975,67,50,40
222.45439,222.56087,66,50,40
222.5655,222.7831,64,50,40
223.23216,223.33865,76,50,40
223.34328,223.44975,78,50,40
223.45439,223.67198,79,50,40
224.5655,224.67198,64,50,40
224.6766,224.7831,66,50,40
224.78772,224.8942,67,50,40
225.89883,226.00531,64,50,40
226.00995,226.11642,66,50,40
226.12105,226.22754,67,50,40
227.23216,227.33864,76,50,40
227.34328,227.44975,77,50,40
227.45439,227.56087,79,50,40
228.12105,228.22754,64,50,40
228.23216,228.33864,65,50,40
228.34328,228.44975,67,50,40
229.89883,230.00531,62,50,40
230.00993,230.11642,64,50,40
230.12105,230.22752,65,50,40
231.6766,231.78308,59,50,40
231.78772,231.8942,60,50,40
231.89882,232.00531,62,50,40
241.00993,241.11641,62,59,40
241.12103,241.22752,64,61,40
241.23215,241.33862,65,63,40
241.45438,241.56085,74,66,40
241.56548,241.67197,76,68,40
241.67659,241.78308,77,69,40
241.89882,242.0053,74,73,40
242.00993,242.11641,76,74,40
242.12103,242.22752,77,76,40
243.95956,244.06604,55,110,40
244.2929,244.39937,55,70,40
244.404,244.51048,55,70,40
244.73734,244.84381,55,70,40
244.84845,244.95493,55,70,40
245.18178,245.28825,55,70,40
245.2929,245.39937,57,70,40
245.62622,245.73271,59,70,40
245.73734,245.84381,60,70,40
246.07066,246.17715,67,70,40
246.18178,246.28825,67,70,40
246.5151,246.6216,67,70,40
246.62622,246.7327,67,70,40
246.95955,247.06604,67,70,40
247.07066,247.17715,69,70,40
247.40399,247.51048,71,70,40
247.5151,247.6216,72,70,40
247.84845,247.95493,67,70,40
247.95955,248.06604,67,70,40
248.2929,248.39937,67,70,40
248.40399,248.51048,67,70,40
248.73734,248.84381,67,70,40
248.84843,248.95493,67,70,40
249.18178,249.28825,67,70,40
249.2929,249.39937,67,70,40
249.62622,249.7327,67,70,40
249.73734,249.84381,67,70,40
250.07066,250.17714,67,70,40
250.18178,250.28825,69,70,40
250.5151,250.62158,69,77,40
250.62622,250.7327,69,80,40
250.95955,251.06602,69,87,40
251.07066,251.18124,67,90,40
251.41681,251.52739,55,98,40
251.41681,251.52739,67,98,40
251.5322,251.64629,55,100,40
251.5322,251.64629,67,100,40
251.8953,252.01509,55,108,40
251.8953,252.01509,67,108,40
252.0203,252.12677,55,110,40
252.0203,252.12677,67,110,40
252.13141,252.23788,64,70,40
252.24252,252.349,66,70,40
252.35362,252.46011,67,70,40
252.68697,252.79344,69,70,40
252.79807,252.90456,71,70,40
252.90918,253.57121,72,70,40
253.57585,253.68233,72,70,40
253.68697,253.79344,74,70,40
253.79807,253.90456,76,70,40
254.13141,254.23788,74,70,40
254.24251,254.349,72,70,40
254.57585,254.68233,69,70,40
254.68697,255.349,67,70,40
255.35362,255.46011,72,70,40
255.46474,255.57121,74,70,40
255.57585,255.68233,76,70,40
255.68695,255.76566,74,70,40
255.79807,255.87677,72,70,40
255.90918,255.98788,71,70,40
256.0203,256.12677,74,70,40
256.1314,256.2101,72,70,40
256.24252,256.32123,71,70,40
256.35364,256.43234,69,70,40
256.46472,256.57123,67,70,40
256.79807,256.90454,65,70,40
256.90918,257.01566,64,70,40
257.24252,257.349,64,70,40
257.35364,257.4601,64,70,40
257.68695,257.79343,64,72,40
257.79807,257.90454,63,73,40
258.1314,258.23788,63,75,40
258.24252,258.349,63,76,40
258.57584,258.6823,63,79,40
258.68695,258.79343,63,80,40
259.0203,259.12677,63,82,40
259.1314,259.23788,63,83,40
259.46472,259.57123,59,86,40
259.57584,259.68002,59,87,40
259.90192,260.0061,59,89,40
260.01062,260.11478,63,90,40
260.3367,260.4409,63,93,40
260.4454,260.54956,64,93,40
260.77148,260.87567,64,96,40
260.8802,260.98434,64,97,40
261.20627,261.31046,64,99,40
261.31497,261.41913,68,100,40
261.64105,261.74524,68,103,40
261.74976,261.8539,69,104,40
262.07584,262.18,69,106,40
262.18454,262.2887,69,107,40
262.51062,262.61478,69,110,40
262.61932,262.83218,67,110,40
262.8367,263.04956,55,110,40
262.8367,263.04956,64,110,40
263.27148,263.48434,55,110,40
263.27148,263.48434,64,110,40
263.70627,263.91913,57,110,40
263.70627,263.91913,66,110,40
264.14105,264.3539,59,110,40
264.14105,264.3539,67,110,40
264.57584,264.7887,60,110,40
264.57584,264.7887,69,110,40
265.01062,265.22348,62,110,40
265.01062,265.22348,71,110,40
265.4454,265.65826,72,110,40
265.8802,266.09305,69,110,40
266.09756,266.20175,67,110,40
266.42365,266.52783,66,110,40
266.53235,266.63654,64,110,40
266.85843,266.96262,59,110,40
266.96713,267.0713,69,110,40
267.2932,267.3974,67,110,40
267.40192,267.50607,66,110,40
267.728,267.83218,59,110,40
267.8367,267.94086,67,110,40
268.16278,268.26697,66,110,40
268.27148,268.37564,64,110,40
268.59756,268.70172,59,110,40
268.70627,268.81042,69,110,40
269.03235,269.1365,67,110,40
269.14105,269.2452,66,110,40
269.46713,269.5713,59,110,40
269.57584,269.7887,71,110,40
269.57584,269.7887,67,110,40
270.4454,270.65826,66,110,40
270.4454,270.65826,71,110,40
271.31497,271.52783,67,110,40
271.31497,271.52783,71,110,40
272.1845,272.39737,77,110,40
273.05408,273.26694,76,110,40
273.92365,274.1365,71,110,40
274.7932,275.00607,64,110,40
274.7932,275.00607,72,110,40
275.66278,275.87564,64,110,40
275.66278,275.87564,71,110,40
276.53235,276.69086,72,110,40
276.74973,276.90823,71,110,40
276.96713,277.18,69,110,40
277.1845,277.28867,68,110,40
277.2932,277.39737,69,110,40
277.40192,277.56042,71,110,40
277.6193,277.7778,69,110,40
277.8367,278.04956,67,110,40
278.05408,278.16055,66,100,40
278.1652,278.27167,64,90,40
278.2763,278.4939,64,70,40
278.49854,278.605,66,70,40
278.60962,278.71613,68,70,40
278.72073,278.93832,69,70,40
278.94296,279.04944,71,70,40
279.05408,279.16055,68,70,40
279.1652,281.38278,69,70,40
281.38742,281.605,68,70,40
281.60962,281.8272,69,70,40
281.83185,282.04944,64,70,40
282.05408,282.16055,66,70,40
282.1652,282.27167,68,70,40
282.2763,282.4939,69,70,40
282.4985,282.605,71,70,40
282.60962,282.71613,68,70,40
282.72073,284.4939,69,70,40
284.4985,285.38278,65,70,40
285.3874,286.27167,67,70,40
286.2763,286.93832,64,70,40
286.94296,287.04944,64,67,40
287.05408,287.16055,67,66,40
287.1652,287.60498,65,66,40
287.60962,288.7161,65,64,40
288.72073,288.8272,62,58,40
288.83185,288.93832,65,57,40
288.94296,289.16055,64,57,40
289.1652,289.27167,64,55,40
289.27628,289.38278,62,55,40
289.3874,289.60498,60,54,40
289.60962,290.49387,64,53,40
290.72073,290.93832,63,50,40
291.60962,291.8272,63,50,40
292.4985,292.7161,64,50,40
293.3874,293.60498,64,50,40
294.05408,294.16055,75,50,40
294.16516,294.27167,76,50,40
294.27628,294.38275,78,50,40
294.60962,294.7161,76,50,40
294.72073,294.8272,75,50,40
295.83185,295.93832,76,50,40
295.94296,296.04944,78,50,40
296.05405,296.16055,79,50,40
296.3874,296.49387,78,50,40
296.4985,296.60498,76,50,40
297.83185,297.93832,75,50,40
298.05405,298.16055,76,53,40
298.27628,298.38275,78,56,40
299.60962,299.7161,76,76,40
299.83185,299.93832,78,79,40
300.05405,300.16052,79,82,40
301.3874,301.60498,65,110,40
301.3874,301.60498,69,110,40
302.05405,302.16052,77,110,40
302.16516,302.27164,79,110,40
302.27628,302.50223,81,110,40
302.62244,302.733,79,110,40
302.73782,302.8519,77,110,40
303.22592,303.51965,69,120,40
303.22592,303.51965,77,120,40
306.5148,307.8435,64,70,40
307.8481,308.28793,63,80,40
308.29257,308.7324,64,90,40
308.73703,309.17682,64,100,40
309.18146,309.39905,57,110,40
309.18146,309.39905,65,110,40
309.8481,309.9587,77,110,40
309.9635,310.0741,79,110,40
310.0789,310.193,81,110,40
310.43604,310.55014,79,110,40
310.55508,310.67487,77,110,40
311.07782,311.37155,69,120,40
311.07782,311.37155,77,120,40
314.3667,315.6954,64,70,40
315.70004,316.13986,63,80,40
316.14447,316.5843,64,70,40
316.58893,317.02875,64,75,40
317.03336,317.47318,65,80,40
317.4778,317.91763,65,85,40
317.92224,318.36206,63,90,40
318.3667,319.6954,70,95,40
319.70004,320.5843,69,110,40
320.58893,321.02872,67,94,40
321.03336,321.1954,67,70,40
321.25558,321.41763,67,70,40
321.92224,322.0843,67,73,40
322.14447,322.30652,67,74,40
322.81113,322.97318,66,77,40
323.03336,323.1954,66,78,40
323.7,323.86206,66,80,40
323.92224,324.0843,66,81,40
324.58893,324.6954,64,84,40
324.7,324.80652,64,84,40
324.81113,324.9176,64,85,40
324.92224,325.02872,64,85,40
325.4778,325.5843,64,88,40
325.5889,325.6954,64,88,40
325.7,325.80652,64,88,40
325.81113,325.9176,64,89,40
326.3667,326.47318,64,91,40
326.4778,326.5843,64,92,40
326.5889,326.6954,64,92,40
326.7,326.80652,64,92,40
327.25558,327.36206,63,95,40
327.3667,327.47318,63,95,40
327.4778,327.5843,63,96,40
327.5889,327.6954,63,96,40
327.7,327.8065,64,97,40
327.81113,327.9176,64,97,40
327.92224,328.02872,64,97,40
328.03336,328.13983,64,98,40
328.14447,328.25095,67,98,40
328.25558,328.36206,67,99,40
328.3667,328.47318,67,99,40
328.47778,328.5843,67,100,40
328.5889,328.6954,67,100,40
328.7,328.8065,67,101,40
328.81113,328.9176,67,101,40
328.92224,329.02872,67,101,40
329.03336,329.13983,67,102,40
329.14447,329.25095,67,102,40
329.25558,329.36206,67,103,40
329.3667,329.47318,67,103,40
329.47778,329.5843,67,104,40
329.5889,329.6954,67,104,40
329.7,329.8065,67,105,40
329.81113,329.9176,67,105,40
329.92224,330.02872,67,106,40
330.03336,330.13983,67,106,40
330.14447,330.25095,67,106,40
330.25558,330.36206,67,107,40
330.3667,330.47726,74,107,40
330.3667,330.47726,67,107,40
330.48206,330.59265,74,108,40
330.48206,330.59265,67,108,40
330.59744,330.70804,74,108,40
330.59744,330.70804,67,108,40
330.71283,330.82343,74,109,40
330.71283,330.82343,67,109,40
330.82822,330.94232,74,109,40
330.82822,330.94232,67,109,40
330.94727,331.06137,74,110,40
330.94727,331.06137,67,110,40
331.0663,331.1861,74,110,40
331.0663,331.1861,67,110,40
331.1913,331.3111,74,110,40
331.1913,331.3111,67,110,40
331.3163,331.47836,67,120,40
331.3163,331.47836,72,120,40
331.64966,331.75613,67,120,40
331.76077,331.91928,67,120,40
332.08685,332.191,60,120,40
332.08685,332.191,67,120,40
332.19556,332.35406,60,120,40
332.19556,332.35406,67,120,40
332.52164,332.6258,60,120,40
332.52164,332.6258,67,120,40
332.63034,332.78885,69,120,40
332.63034,332.78885,60,120,40
332.95642,333.06058,60,120,40
332.95642,333.06058,69,120,40
333.0651,333.22363,60,120,40
333.0651,333.22363,67,120,40
333.3912,333.49536,60,120,40
333.3912,333.49536,67,120,40
333.49988,333.65842,60,120,40
333.49988,333.65842,67,120,40
333.826,333.93015,60,120,40
333.826,333.93015,67,120,40
333.93466,334.0932,60,120,40
333.93466,334.0932,67,120,40
334.26077,334.36493,60,120,40
334.26077,334.36493,67,120,40
334.36945,334.52795,60,120,40
334.36945,334.52795,69,120,40
334.69553,334.7997,60,120,40
334.69553,334.7997,69,120,40
334.80423,334.96274,60,120,40
334.80423,334.96274,67,120,40
335.1303,335.2345,60,120,40
335.1303,335.2345,67,120,40
335.239,335.39752,60,120,40
335.239,335.39752,67,120,40
335.5651,335.66928,60,120,40
335.5651,335.66928,65,120,40
335.6738,335.8323,60,120,40
335.6738,335.8323,64,120,40
335.99988,336.10406,60,120,40
335.99988,336.10406,65,120,40
336.10858,336.2671,60,120,40
336.10858,336.2671,67,120,40
336.43466,336.53885,64,120,40
336.54337,336.70187,64,120,40
336.86945,336.9736,64,120,40
336.97815,337.13666,63,120,40
337.30423,337.4084,63,120,40
337.41293,337.57144,63,120,40
337.739,337.84317,63,120,40
337.84772,338.00623,63,120,40
338.1738,338.27795,63,120,40
338.2825,338.441,63,120,40
338.60858,338.71274,66,120,40
338.7173,338.8758,64,120,40
339.04337,339.14752,64,120,40
339.15207,339.31058,63,120,40
339.47815,339.5823,63,120,40
339.58685,339.74536,64,120,40
339.91293,340.0171,67,120,40
340.0216,340.18015,69,120,40
340.34772,340.45187,69,120,40
340.4564,340.61493,68,120,40
340.7825,340.88666,68,120,40
340.89117,341.05322,69,120,40
341.22452,341.331,69,120,40
341.33563,341.5039,69,120,40
341.6864,341.8014,69,120,40
341.8064,341.96265,64,125,40
342.12784,342.2305,62,110,40
342.23495,342.3308,60,110,40
342.53497,342.6308,57,110,40
342.63498,342.81857,55,110,40
343.3588,343.43866,64,125,40
343.6088,343.68866,62,110,40
343.69214,343.772,60,110,40
343.94214,344.022,57,110,40
344.02548,344.18866,55,110,40
344.69214,344.772,67,125,40
344.94214,345.022,66,110,40
345.02545,345.10532,64,110,40
345.27545,345.35532,60,110,40
345.3588,345.522,59,110,40
346.02545,346.10532,67,125,40
346.27545,346.35532,66,110,40
346.3588,346.43866,64,110,40
346.6088,346.68866,60,110,40
346.6921,346.85532,59,110,40
347.27545,347.35532,69,110,40
347.3588,347.52197,67,125,40
347.9421,348.02197,69,110,40
348.02545,348.18866,67,125,40
348.6088,348.68863,63,110,40
348.6921,348.85532,64,125,40
349.27545,349.35532,57,120,40
349.35876,349.52197,59,120,40
349.9421,350.02197,58,120,40
350.02545,350.18863,60,120,40
350.60876,350.68863,60,120,40
350.6921,350.81363,59,120,40
350.9421,351.02197,62,120,40
351.02545,351.14697,60,120,40
351.27545,351.3553,64,120,40
351.35876,351.4803,62,120,40
351.60876,351.68863,65,120,40
351.6921,351.81363,64,120,40
351.9421,352.02197,67,120,40
352.02542,352.14697,65,120,40
352.27542,352.3553,69,120,40
352.35876,352.4803,67,120,40
352.60876,352.68863,69,120,40
352.6921,352.81363,67,120,40
352.9421,353.02197,75,120,40
353.02542,353.14697,76,120,40
353.27542,353.3553,75,120,40
353.35876,353.48593,76,120,40
353.6204,353.70398,78,120,40
353.7076,353.8394,79,120,40
353.9821,354.07193,78,120,40
354.07584,354.21255,79,120,40
354.3571,354.44693,75,120,40
354.45084,354.58755,76,120,40
354.7321,354.82193,75,120,40
354.82584,354.96255,76,120,40
355.1071,355.19693,71,120,40
355.1071,355.19693,78,120,40
355.20084,355.33755,71,120,40
355.20084,355.33755,79,120,40
355.4821,355.57193,71,120,40
355.4821,355.57193,78,120,40
355.57584,355.71255,71,120,40
355.57584,355.71255,79,120,40
355.8571,355.94693,71,120,40
355.8571,355.94693,78,120,40
355.95084,356.08755,71,120,40
355.95084,356.08755,79,120,40
356.2321,356.32193,71,120,40
356.2321,356.32193,78,120,40
356.32584,356.50943,71,120,40
356.32584,356.50943,79,120,40
356.70084,356.88443,59,120,40
356.70084,356.88443,66,120,40
356.70084,356.88443,75,120,40
357.07584,357.27167,59,120,40
357.07584,357.27167,67,120,40
357.07584,357.27167,76,120,40
357.47583,357.68564,59,120,40
357.47583,357.68564,69,120,40
357.9044,358.1142,59,120,40
357.9044,358.1142,67,120,40
358.76154,358.9875,59,120,40
358.76154,358.9875,66,120,40
359.6846,360.02594,55,127,40
359.6846,360.02594,64,127,40
0.0,0.10648137,52,110,41
0.333333,0.4398144,52,70,41
0.444444,0.5509254,52,70,41
0.777777,0.8842584,52,70,41
0.888888,0.9953694,52,70,41
1.222221,1.3287023,52,70,41
1.333332,1.4398134,53,70,41
1.666665,1.7731464,53,70,41
1.777776,1.8842573,52,70,41
2.111109,2.2175903,52,70,41
2.22222,2.3287013,52,70,41
2.555553,2.6620343,52,70,41
2.666664,2.7731454,52,70,41
2.999997,3.1064785,52,70,41
3.111108,3.2175894,53,70,41
3.444441,3.5509224,53,70,41
3.555552,3.6620333,52,70,41
3.888885,3.9953663,52,70,41
3.999996,4.1064773,52,70,41
4.333329,4.4398103,52,70,41
4.44444,4.5509214,52,70,41
4.777773,4.8842545,52,70,41
4.888884,4.995365,52,70,41
5.222217,5.328698,52,70,41
5.333328,5.4398093,52,70,41
5.666661,5.7731423,52,70,41
5.777772,5.8842535,52,70,41
6.111105,6.2175865,52,70,41
6.222216,6.328697,54,70,41
6.555549,6.66203,54,72,41
6.66666,6.7731414,54,75,41
6.999993,7.1064744,54,84,41
7.111104,7.2175856,52,87,41
7.444437,7.5509186,55,96,41
7.555548,7.666125,55,99,41
7.9072847,8.0232115,55,107,41
8.028252,8.134733,55,110,41
8.361585,8.468066,64,70,41
8.472696,8.579177,64,70,41
8.806029,8.91251,64,70,41
8.91714,9.023622,64,70,41
9.250473,9.356955,64,70,41
9.361584,9.468065,65,70,41
9.694917,9.801398,65,70,41
9.806028,9.912509,64,70,41
10.139361,10.245842,64,70,41
10.250472,10.356954,64,70,41
10.583805,10.690287,64,70,41
10.694916,10.801397,64,70,41
11.028249,11.13473,64,70,41
11.13936,11.245841,65,70,41
11.472693,11.579174,65,70,41
11.583804,11.690286,64,70,41
11.917137,12.023619,64,70,41
12.028248,12.134729,64,70,41
12.361581,12.468062,64,70,41
12.472692,12.579173,64,70,41
12.806025,12.912506,64,70,41
12.917136,13.023618,64,70,41
13.250469,13.356951,64,70,41
13.36158,13.468061,64,70,41
13.694913,13.801394,64,70,41
13.806024,13.912505,64,70,41
14.139357,14.245838,64,70,41
14.250468,14.35695,66,70,41
14.583801,14.690283,66,77,41
14.694912,14.8013935,66,80,41
15.028245,15.134727,66,87,41
15.139356,15.245837,59,90,41
15.472689,15.57917,59,98,41
15.5838,15.690281,59,100,41
15.917133,16.023615,59,108,41
16.028244,16.134726,58,110,41
16.361576,16.468058,58,70,41
16.472689,16.57917,58,70,41
16.80602,16.912502,58,70,41
16.917131,17.023613,58,70,41
17.250465,17.356947,58,70,41
17.361576,17.468058,58,70,41
17.694908,17.80139,58,70,41
17.80602,18.134724,58,70,41
18.250463,18.59181,57,80,41
18.712002,19.069864,62,90,41
19.195871,19.565664,55,100,41
19.195871,19.565664,62,100,41
19.695871,19.802353,55,110,41
20.029205,20.135687,55,70,41
20.140316,20.246798,55,70,41
20.473648,20.58013,55,70,41
20.58476,20.691242,55,70,41
20.918093,21.024574,55,70,41
21.029203,21.135685,57,70,41
21.362537,21.469019,59,70,41
21.473648,21.58013,60,70,41
21.80698,21.913462,55,70,41
21.918093,22.024574,55,70,41
22.251425,22.357906,55,70,41
22.362535,22.469017,55,70,41
22.69587,22.802351,55,70,41
22.80698,22.913462,57,70,41
23.140312,23.246794,59,70,41
23.251425,23.357904,60,70,41
23.584757,23.691238,52,70,41
23.695868,23.80235,52,70,41
24.029202,24.135683,50,70,41
24.140312,24.246794,48,70,41
24.473644,24.580126,50,70,41
24.584757,24.691236,52,70,41
24.918089,25.02457,52,70,41
25.0292,25.135681,52,70,41
25.362534,25.469015,52,70,41
25.473644,25.580126,55,70,41
25.473644,25.580126,52,70,41
25.806976,25.913458,55,70,41
25.806976,25.913458,52,70,41
25.918089,26.024569,54,70,41
25.918089,26.024569,57,70,41
26.251421,26.357903,54,77,41
26.251421,26.357903,57,77,41
26.362532,26.469013,54,80,41
26.362532,26.469013,57,80,41
26.695866,26.802347,54,87,41
26.695866,26.802347,57,87,41
26.806976,26.913458,59,90,41
27.140308,27.24679,59,98,41
27.25142,27.361998,59,100,41
27.597574,27.70815,59,108,41
27.712957,27.823534,58,110,41
28.054838,28.16132,58,70,41
28.165949,28.27243,58,70,41
28.499283,28.605762,58,70,41
28.610394,28.716875,58,70,41
28.943726,29.050207,58,70,41
29.054836,29.161318,58,70,41
29.38817,29.494652,58,70,41
29.49928,29.827984,58,70,41
29.943726,30.28507,57,80,41
30.405264,30.757444,62,90,41
30.881453,31.251245,55,100,41
30.881453,31.251245,62,100,41
31.381453,31.487934,55,110,41
31.714787,31.821268,52,70,41
31.714787,31.821268,55,70,41
31.825897,31.932379,52,70,41
31.825897,31.932379,55,70,41
32.15923,32.265713,52,70,41
32.15923,32.265713,55,70,41
32.27034,32.376823,52,70,41
32.27034,32.376823,55,70,41
32.603676,32.710155,52,70,41
32.603676,32.710155,55,70,41
32.714787,32.821266,54,70,41
32.714787,32.821266,57,70,41
33.04812,33.1546,59,70,41
33.15923,33.26571,60,70,41
33.49256,33.599045,52,70,41
33.49256,33.599045,55,70,41
33.603672,33.710155,52,70,41
33.603672,33.710155,55,70,41
33.937008,34.043488,52,70,41
33.937008,34.043488,55,70,41
34.04812,34.1546,52,70,41
34.04812,34.1546,55,70,41
34.38145,34.48793,52,70,41
34.38145,34.48793,55,70,41
34.49256,34.59904,54,70,41
34.49256,34.59904,57,70,41
34.825893,34.932377,59,70,41
34.937004,35.043488,60,70,41
35.270336,35.37682,52,70,41
35.38145,35.48793,53,70,41
35.714783,35.821262,57,70,41
35.825893,35.932373,60,70,41
36.159225,36.26571,65,70,41
36.270336,36.37682,64,70,41
36.60367,36.71015,62,70,41
36.714783,36.821262,60,70,41
37.048115,37.154594,60,72,41
37.159225,37.265705,64,73,41
37.492558,37.59904,64,75,41
37.60367,37.71015,64,76,41
37.937,38.043484,64,79,41
38.048115,38.154594,64,80,41
38.381447,38.487926,64,82,41
38.492558,38.599037,63,83,41
38.82589,38.932373,59,86,41
38.937,39.04117,59,87,41
39.26309,39.367252,59,89,41
39.371784,39.47595,57,90,41
39.69787,39.802036,57,93,41
39.806564,39.910732,59,93,41
40.132652,40.236816,59,96,41
40.24135,40.345512,57,97,41
40.567432,40.6716,57,99,41
40.67613,40.780296,56,100,41
41.002216,41.10638,52,103,41
41.110912,41.215076,52,104,41
41.436996,41.541164,54,106,41
41.545692,41.64986,54,107,41
41.87178,41.975945,54,110,41
41.980476,42.08464,55,110,41
42.197865,42.41073,59,110,41
42.63265,42.84551,59,110,41
43.06743,43.280293,63,110,41
43.502213,43.715073,64,110,41
43.936993,44.149857,60,110,41
44.371777,44.584637,68,110,41
44.806557,45.01942,69,110,41
45.24134,45.4542,66,110,41
45.458733,45.671593,59,110,41
46.328297,46.541157,59,110,41
46.328297,46.541157,66,110,41
47.19786,47.41072,59,110,41
48.067425,48.280285,54,110,41
48.067425,48.280285,59,110,41
48.93699,49.041153,55,110,41
49.154377,49.258545,55,110,41
49.263073,49.36724,57,110,41
49.37177,49.475937,59,110,41
49.58916,49.693325,60,110,41
49.697857,49.80202,62,110,41
49.806553,49.910717,64,110,41
50.02394,50.12811,64,110,41
50.132637,50.236805,66,110,41
50.241333,50.29568,67,110,41
50.29568,50.35003,69,110,41
50.35003,50.404377,67,110,41
50.404377,50.458725,69,110,41
50.458725,50.53119,67,110,41
50.53119,50.603653,66,110,41
50.603653,50.676113,67,110,41
50.676113,50.888977,66,110,41
52.41524,52.51941,52,110,41
52.632633,52.7368,52,110,41
52.74133,52.845497,54,110,41
52.850025,52.954193,55,110,41
53.067417,53.17158,57,110,41
53.176113,53.280277,59,110,41
53.284805,53.388973,60,110,41
53.502197,53.606365,60,110,41
53.610893,53.71506,62,110,41
53.71959,53.773937,64,110,41
53.773937,53.828285,66,110,41
53.828285,53.882633,64,110,41
53.882633,53.93698,66,110,41
53.93698,54.009445,64,110,41
54.009445,54.08191,62,110,41
54.08191,54.15437,64,110,41
54.15437,54.367233,62,110,41
55.67611,55.88897,62,110,41
55.893497,56.10636,61,110,41
56.11089,56.215057,61,110,41
56.219585,56.323753,62,110,41
56.32828,56.975925,64,110,41
56.980453,57.08462,62,110,41
57.08915,57.193317,61,110,41
57.197845,57.410706,62,110,41
57.415237,57.628098,59,110,41
57.632626,57.84549,58,110,41
57.850018,57.954185,70,110,41
57.958714,58.06288,71,110,41
58.06741,58.715054,73,110,41
58.71958,58.82375,71,110,41
58.828278,58.932446,70,110,41
58.936974,59.149834,71,110,41
59.154366,59.367226,68,110,41
59.371754,59.584618,70,110,41
60.926193,61.170986,58,70,41
61.176193,61.393787,59,70,41
61.62064,61.83823,59,70,41
61.84286,62.06045,62,70,41
62.509525,62.72712,54,70,41
62.731747,62.94934,64,70,41
63.398415,63.616005,59,70,41
63.620636,63.83823,62,70,41
64.2873,64.5049,60,70,41
64.50952,64.72712,64,70,41
65.17619,65.39378,55,70,41
65.398415,65.616005,60,70,41
66.06508,66.28267,59,70,41
66.2873,66.50489,54,70,41
66.953964,67.171555,58,70,41
67.176186,67.39378,54,70,41
67.62063,67.83823,50,70,41
67.84286,68.06045,54,75,41
68.06508,68.28267,59,80,41
68.2873,68.50489,50,85,41
68.50952,68.72711,54,90,41
68.73174,68.94933,59,95,41
68.953964,69.171555,62,100,41
69.176186,69.393776,61,70,41
69.39841,69.616,64,70,41
69.84285,70.06045,64,70,41
70.06507,70.28267,62,70,41
70.28729,70.50489,66,70,41
70.73174,70.94933,66,70,41
70.953964,71.171555,64,70,41
71.176186,71.393776,67,70,41
71.62063,71.83822,67,70,41
71.84285,72.06044,55,70,41
72.06507,72.28266,60,70,41
72.28729,72.50488,64,70,41
72.509514,72.72711,67,70,41
72.731735,72.94933,66,70,41
72.95396,73.171555,62,70,41
73.39841,73.616,62,70,41
73.62063,73.84659,64,70,41
73.851395,74.077354,61,70,41
74.32026,74.56505,61,70,41
74.57026,74.78785,62,50,41
74.79248,74.898964,62,50,41
74.903595,75.01007,64,50,41
75.0147,75.45452,66,50,41
75.459145,75.67674,67,50,41
75.681366,75.78785,64,50,41
75.79248,75.898964,66,50,41
75.90359,76.121185,67,50,41
76.12582,76.23229,66,50,41
76.23692,76.34341,64,50,41
76.34804,76.56563,62,50,41
76.57026,76.676735,62,50,41
76.681366,76.78785,64,50,41
76.79248,76.898964,66,50,41
76.90359,77.01007,62,50,41
77.0147,77.121185,64,50,41
77.12581,77.23229,66,50,41
77.23692,77.89896,67,50,41
77.90359,78.01007,66,50,41
78.0147,78.12118,64,50,41
78.12581,78.34341,62,50,41
79.681366,79.78785,59,50,41
79.79247,79.89896,61,50,41
79.90359,80.01007,62,50,41
81.014694,81.12118,59,50,41
81.12581,81.23229,61,50,41
81.236916,81.3434,62,50,41
83.236916,83.3434,59,50,41
83.34803,83.454506,60,50,41
83.45914,83.56562,62,50,41
84.57025,84.67673,59,50,41
84.68136,84.78784,60,50,41
84.79247,84.89895,62,50,41
87.236916,87.34339,50,50,41
87.34802,87.454506,52,50,41
87.45914,87.56561,53,50,41
88.1258,88.232285,50,50,41
88.236916,88.34339,52,50,41
88.34802,88.454506,53,50,41
89.01469,89.12117,50,50,41
89.1258,89.232285,52,50,41
89.23691,89.454506,53,50,41
89.90358,90.010056,50,50,41
90.01469,90.12117,52,50,41
90.1258,90.34339,53,50,41
90.570244,90.787834,53,50,41
90.792465,90.89895,50,50,41
90.90358,91.010056,52,50,41
91.01469,91.23228,53,50,41
91.23691,91.34339,50,50,41
91.34802,91.4545,52,52,41
91.45913,91.67672,53,54,41
91.68135,91.787834,50,59,41
91.792465,91.89895,52,61,41
91.90357,92.12117,53,64,41
92.12579,92.23228,50,68,41
92.23691,92.34339,52,71,41
92.34802,92.56561,53,73,41
92.570244,92.67672,50,78,41
92.68135,92.787834,52,80,41
92.792465,93.010056,53,82,41
93.01469,93.12117,50,87,41
93.12579,93.23228,52,89,41
93.23691,93.34748,53,92,41
93.352295,93.46287,50,94,41
93.467674,93.578255,52,96,41
93.58306,93.693634,53,99,41
93.69845,93.81253,55,101,41
93.81749,93.93158,53,103,41
93.93654,94.056335,52,106,41
94.06154,94.181335,50,108,41
94.18654,94.29302,48,110,41
94.519875,94.62636,52,70,41
94.63098,94.737465,52,70,41
94.96432,95.0708,52,70,41
95.075424,95.18191,52,70,41
95.40876,95.51524,52,70,41
95.519875,95.62635,53,70,41
95.8532,95.95969,53,70,41
95.96432,96.0708,52,70,41
96.297646,96.40413,52,70,41
96.40876,96.51524,52,70,41
96.742096,96.84857,52,70,41
96.8532,96.95969,52,70,41
97.18654,97.29302,52,70,41
97.297646,97.40413,53,70,41
97.63098,97.737465,53,70,41
97.74209,97.84857,52,70,41
98.075424,98.18191,52,70,41
98.18654,98.293015,52,70,41
98.51987,98.62635,52,70,41
98.63098,98.737465,52,70,41
98.96431,99.07079,52,70,41
99.075424,99.18191,52,70,41
99.40876,99.515236,52,70,41
99.51987,99.62635,52,70,41
99.8532,99.95968,52,70,41
99.96431,100.07079,52,70,41
100.297646,100.40413,52,70,41
100.40875,100.515236,54,70,41
100.74209,100.84857,54,72,41
100.8532,100.95968,54,75,41
101.18653,101.293015,54,84,41
101.297646,101.40822,52,87,41
101.6438,101.75437,55,96,41
101.759186,101.87327,55,99,41
102.116325,102.230415,55,107,41
102.235374,102.34185,55,110,41
102.5687,102.675186,64,70,41
102.67982,102.7863,64,70,41
103.013145,103.11963,64,70,41
103.12426,103.23074,64,70,41
103.457596,103.56407,64,70,41
103.5687,103.675186,65,70,41
103.90204,104.00852,65,70,41
104.013145,104.11963,64,70,41
104.34648,104.452965,64,70,41
104.45759,104.56407,64,70,41
104.790924,104.89741,64,70,41
104.90204,105.008514,64,70,41
105.23537,105.34185,64,70,41
105.34648,105.452965,65,70,41
105.67981,105.78629,65,70,41
105.790924,105.89741,64,70,41
106.12426,106.230736,64,70,41
106.23537,106.34185,64,70,41
106.5687,106.675186,64,70,41
106.67981,106.78629,64,70,41
107.013145,107.11963,64,70,41
107.12425,107.230736,64,70,41
107.45759,107.56407,64,70,41
107.5687,107.67518,64,70,41
107.90203,108.008514,64,70,41
108.013145,108.11963,64,70,41
108.34647,108.45296,64,70,41
108.45759,108.56407,66,70,41
108.790924,108.8974,66,77,41
108.90203,109.008514,66,80,41
109.23537,109.34184,66,87,41
109.34647,109.457054,59,90,41
109.69263,109.80321,59,98,41
109.808014,109.918594,59,100,41
110.15417,110.26475,59,108,41
110.269554,110.38013,58,110,41
110.611435,110.71791,58,70,41
110.72254,110.829025,58,70,41
111.05588,111.16236,58,70,41
111.166985,111.27347,58,70,41
111.50032,111.606804,58,70,41
111.61143,111.71791,58,70,41
111.94476,112.05125,58,70,41
112.05588,112.384575,58,70,41
112.50032,112.84167,57,80,41
112.96186,113.31404,62,90,41
113.43805,113.80784,55,100,41
113.43805,113.80784,62,100,41
113.93805,114.044525,55,110,41
114.27138,114.37786,52,70,41
114.27138,114.37786,55,70,41
114.38249,114.488976,52,70,41
114.38249,114.488976,55,70,41
114.71582,114.8223,52,70,41
114.71582,114.8223,55,70,41
114.826935,114.93342,52,70,41
114.826935,114.93342,55,70,41
115.16027,115.26675,52,70,41
115.16027,115.26675,55,70,41
115.27138,115.37786,53,70,41
115.27138,115.37786,57,70,41
115.60471,115.7112,53,70,41
115.71582,115.8223,52,70,41
116.04916,116.15564,52,70,41
116.04916,116.15564,55,70,41
116.16027,116.26675,52,70,41
116.16027,116.26675,55,70,41
116.4936,116.60008,52,70,41
116.4936,116.60008,55,70,41
116.60471,116.71119,52,70,41
116.60471,116.71119,55,70,41
116.93804,117.044525,52,70,41
116.93804,117.044525,55,70,41
117.04916,117.15564,53,70,41
117.04916,117.15564,57,70,41
117.382484,117.48897,53,70,41
117.4936,117.60008,52,70,41
117.826935,117.93341,55,70,41
117.826935,117.93341,52,70,41
117.93804,118.044525,55,70,41
117.93804,118.044525,52,70,41
118.27138,118.37786,52,70,41
118.27138,118.37786,55,70,41
118.382484,118.48897,52,70,41
118.382484,118.48897,55,70,41
118.71582,118.8223,55,70,41
118.71582,118.8223,52,70,41
118.826935,118.93341,55,70,41
118.826935,118.93341,52,70,41
119.16026,119.26675,55,70,41
119.16026,119.26675,52,70,41
119.27138,119.37785,55,70,41
119.27138,119.37785,52,70,41
119.604706,119.71119,55,70,41
119.604706,119.71119,52,70,41
119.71582,119.8223,55,70,41
119.71582,119.8223,52,70,41
120.04915,120.15563,55,70,41
120.04915,120.15563,52,70,41
120.16026,120.26675,54,70,41
120.16026,120.26675,57,70,41
120.4936,120.600075,54,77,41
120.4936,120.600075,57,77,41
120.604706,120.71119,54,80,41
120.604706,120.71119,57,80,41
120.93804,121.044525,54,87,41
120.93804,121.044525,57,87,41
121.04915,121.15563,59,90,41
121.382484,121.48897,59,98,41
121.49359,121.600075,59,100,41
121.82693,121.93341,59,108,41
121.93804,122.04452,58,110,41
122.27137,122.37785,58,70,41
122.382484,122.48897,58,70,41
122.71581,122.822296,58,70,41
122.82693,122.93341,58,70,41
123.16026,123.26674,58,70,41
123.27137,123.37785,58,70,41
123.604706,123.71118,58,70,41
123.71581,124.04452,58,70,41
124.160255,124.48896,57,80,41
124.604706,124.94605,55,90,41
125.06624,125.424126,55,100,41
125.06624,125.424126,62,100,41
125.55434,125.66082,55,110,41
125.88767,125.99415,52,70,41
125.99878,126.10526,52,70,41
126.332115,126.43859,53,70,41
126.44322,126.549706,52,70,41
126.77656,126.88304,55,70,41
126.77656,126.88304,52,70,41
126.887665,126.99415,55,70,41
126.887665,126.99415,52,70,41
127.221,127.327484,53,70,41
127.221,127.327484,57,70,41
127.332115,127.43859,52,70,41
127.332115,127.43859,55,70,41
127.66544,127.77193,52,70,41
127.77656,127.88303,52,70,41
128.1099,128.21637,53,70,41
128.221,128.32748,52,70,41
128.55434,128.66081,55,70,41
128.55434,128.66081,52,70,41
128.66545,128.77193,52,70,41
128.66545,128.77193,55,70,41
128.99878,129.10526,53,100,41
128.99878,129.10526,57,100,41
129.1099,129.99414,52,120,41
129.99878,130.88304,57,120,41
130.88766,131.32748,53,120,41
131.3321,131.77193,62,120,41
131.77655,132.21637,59,120,41
132.221,132.66081,65,120,41
132.66544,132.8783,64,120,41
133.10022,133.53047,60,120,41
133.535,134.40004,65,120,41
134.40457,134.83482,62,120,41
134.83936,135.70439,71,120,41
135.70891,136.13916,64,120,41
136.14369,137.00873,48,120,41
137.01326,137.8783,53,120,41
137.88283,138.31308,50,120,41
138.31761,138.74786,59,120,41
138.75238,139.18265,56,120,41
139.18716,139.61742,62,120,41
139.62195,139.83481,60,120,41
140.05673,140.48698,57,120,41
140.49152,141.79134,62,120,41
141.79587,142.6609,67,120,41
142.66542,143.09567,70,120,41
143.1002,143.31306,69,120,41
143.3176,143.42177,53,120,41
143.4263,143.53046,55,119,41
143.53499,143.63916,57,119,41
143.64369,143.74785,53,119,41
143.75238,143.85655,55,119,41
143.86108,143.96524,57,119,41
143.96977,144.18263,58,119,41
145.05673,145.16089,51,117,41
145.16542,145.26959,53,117,41
145.27412,145.37828,55,117,41
145.38281,145.48698,51,117,41
145.49152,145.59567,53,117,41
145.6002,145.70438,55,116,41
145.7089,145.92177,57,116,41
146.25238,146.35654,52,116,41
146.36107,146.46524,53,115,41
146.46977,146.57393,55,115,41
146.57846,147.00871,56,115,41
147.01324,147.4435,53,115,41
147.44803,147.87828,50,114,41
147.88281,148.74785,55,113,41
148.75238,149.18263,51,112,41
149.18715,149.61742,48,112,41
149.62193,153.38542,53,111,41
153.39005,153.49654,55,70,41
153.50116,153.60764,57,70,41
153.61227,155.60764,58,70,41
155.72337,155.82986,55,79,41
155.83449,155.94098,53,82,41
156.16783,156.2743,51,92,41
156.27893,156.42708,50,95,41
156.50116,156.6493,48,101,41
156.72337,156.87152,50,108,41
156.9456,157.09375,50,114,41
157.16783,157.38542,52,120,41
159.83449,159.99652,64,120,41
160.05672,160.21875,62,120,41
160.27893,160.49652,61,120,41
160.50116,160.60764,59,120,41
160.61226,160.71875,61,120,41
160.72337,161.3854,62,120,41
161.39005,161.60764,50,120,41
161.61226,162.2743,62,120,41
162.27893,162.49652,50,120,41
162.50114,163.1632,62,120,41
163.16782,163.3854,50,120,41
163.39005,163.60764,62,120,41
163.61226,163.82985,50,120,41
163.83449,164.05208,62,120,41
164.0567,164.27429,50,120,41
164.27893,164.44096,67,120,41
164.50114,164.6632,65,120,41
164.72337,164.94096,63,120,41
164.94559,165.05208,62,120,41
165.0567,165.1632,63,120,41
165.16782,165.32985,65,120,41
165.39005,165.55208,63,120,41
165.61226,165.82985,62,120,41
165.83449,165.94096,60,120,41
165.94559,166.05208,62,120,41
166.0567,166.21873,63,120,41
166.27893,166.44096,62,120,41
166.50114,166.71873,60,120,41
166.72337,166.82985,59,120,41
166.83449,166.94096,60,120,41
166.94559,167.10764,62,120,41
167.16782,167.32985,60,120,41
167.39003,167.60764,59,120,41
167.61226,167.71873,57,120,41
167.72337,167.82985,59,120,41
167.83447,168.71873,60,120,41
168.72337,168.94096,57,120,41
168.94559,169.05208,57,120,41
169.0567,169.16318,59,120,41
169.16782,169.3854,61,120,41
169.39003,169.49652,62,120,41
169.50114,169.60762,64,120,41
169.61226,170.49652,62,120,41
170.50114,170.71873,59,120,41
170.72337,170.82985,59,120,41
170.83447,170.94096,61,120,41
170.94559,171.16318,63,120,41
171.16782,171.27429,64,120,41
171.27892,171.3854,66,120,41
171.39003,173.16318,64,120,41
173.1678,174.94095,65,120,41
174.94559,175.05206,64,120,41
175.1678,175.27429,52,120,41
175.27892,175.38539,53,120,41
175.39003,175.4965,55,120,41
175.61224,175.71873,57,120,41
175.72336,175.82985,59,120,41
175.83447,175.94095,60,120,41
176.05669,176.16318,60,120,41
176.1678,176.27429,62,120,41
176.27892,176.33447,64,120,41
176.33447,176.39003,66,120,41
176.39003,176.44559,64,120,41
176.44559,176.50114,66,120,41
176.50114,176.57521,64,120,41
176.57521,176.64929,62,120,41
176.64929,176.72336,64,120,41
176.72336,178.4965,62,120,41
178.50113,178.71873,60,120,41
180.05669,180.4965,64,120,41
181.83447,182.05206,64,120,41
182.05669,182.27428,66,120,41
182.27892,182.4965,66,120,41
182.50113,182.94095,66,120,41
183.1678,183.38539,64,120,41
183.39001,183.82983,64,120,41
184.05669,184.27428,63,120,41
184.27892,184.71872,63,120,41
184.94557,185.16316,64,120,41
185.39001,185.6076,64,120,41
185.61224,185.82983,66,120,41
185.83446,185.94095,66,120,41
185.94557,186.05205,67,120,41
186.05669,186.71872,69,120,41
186.72334,186.82983,67,120,41
186.83446,186.94095,66,120,41
186.94557,187.16316,67,120,41
187.1678,187.38539,64,120,41
187.39001,187.6076,63,120,41
187.61224,187.71872,63,120,41
187.72334,187.82983,64,120,41
187.83446,188.49649,66,120,41
188.50113,188.6076,64,120,41
188.61224,188.71872,63,120,41
188.72334,188.94093,64,120,41
188.94557,189.16316,61,120,41
189.16779,189.38539,63,120,41
190.79996,191.04475,63,70,41
191.04996,191.26756,64,70,41
191.49442,191.712,64,70,41
191.71663,191.93422,67,70,41
192.3833,192.60089,66,70,41
192.60551,192.8231,69,70,41
193.27219,193.48978,59,70,41
193.4944,193.712,67,70,41
194.16107,194.37866,65,70,41
194.3833,194.60089,69,70,41
195.04996,195.26755,60,70,41
195.27219,195.48978,65,70,41
195.93884,196.15643,64,70,41
196.16107,196.37866,59,70,41
196.82774,197.04533,66,70,41
197.04996,197.26755,59,70,41
198.16107,198.37866,52,87,41
198.38329,198.60088,55,92,41
198.60551,198.8231,59,96,41
198.82773,199.04533,64,100,41
199.04996,199.26755,63,70,41
199.27217,199.48978,66,70,41
199.71663,199.93422,66,70,41
199.93884,200.15643,64,70,41
200.16107,200.37866,67,70,41
200.60551,200.8231,67,70,41
200.82773,201.04532,65,70,41
201.04996,201.26755,69,70,41
201.4944,201.71199,69,70,41
201.71661,201.93422,57,70,41
201.93884,202.15643,60,70,41
202.16106,202.37866,65,70,41
202.38329,202.60088,69,70,41
202.60551,202.8231,67,70,41
202.82773,203.04532,64,70,41
203.27217,203.48976,64,70,41
203.4944,203.71199,66,70,41
203.71661,203.9342,59,70,41
204.16106,204.37865,59,70,41
204.38329,204.60088,64,70,41
204.82773,206.15643,48,90,41
204.82773,206.15643,60,90,41
206.16106,207.04532,48,110,41
206.16106,207.04532,60,110,41
207.04994,207.96822,60,110,41
207.04994,207.96822,48,110,41
207.97302,208.944,48,110,41
207.97302,208.944,60,110,41
208.94922,209.17517,48,70,41
209.17998,209.40594,53,70,41
209.41075,209.63672,57,70,41
209.64153,209.86748,60,70,41
209.87228,210.09825,59,70,41
210.10306,210.32903,55,70,41
210.56459,210.79056,55,70,41
210.79536,211.02133,57,70,41
211.02614,211.25209,54,70,41
211.48767,211.71364,54,70,41
211.71844,211.9444,55,70,41
212.17998,213.50868,48,90,41
212.17998,213.50868,60,90,41
213.5133,214.39757,48,110,41
213.5133,214.39757,60,110,41
214.4022,215.28645,48,110,41
214.4022,215.28645,60,110,41
215.29109,216.23552,48,110,41
215.29109,216.23552,60,110,41
216.24072,216.46667,48,70,41
216.4715,216.69745,53,70,41
216.70226,216.92822,57,70,41
216.93303,217.159,60,70,41
217.1638,217.38976,59,70,41
217.39456,217.62053,55,70,41
217.85611,218.08206,55,70,41
218.08687,218.31284,57,70,41
218.31764,218.54361,54,70,41
218.77917,219.00514,54,70,41
219.00995,219.22754,55,50,41
219.23218,219.33865,55,50,41
219.34328,219.44977,57,50,41
219.45439,219.89421,59,50,41
219.89883,220.11642,60,50,41
220.12106,220.22754,57,50,41
220.23216,220.33865,59,50,41
220.34328,220.56087,60,50,41
220.5655,220.67198,59,50,41
220.67662,220.7831,57,50,41
220.78772,221.00531,55,50,41
221.00995,221.11642,55,50,41
221.12106,221.22754,57,50,41
221.23216,221.33865,59,50,41
221.34328,221.44977,55,50,41
221.45439,221.56087,57,50,41
221.5655,221.67198,59,50,41
221.67662,222.33865,60,50,41
222.34328,222.44975,59,50,41
222.45439,222.56087,57,50,41
222.5655,222.7831,55,50,41
224.12105,224.22754,64,50,41
224.23216,224.33865,66,50,41
224.34328,224.56087,67,50,41
225.45439,225.56087,52,50,41
225.56549,225.67198,54,50,41
225.6766,225.7831,55,50,41
229.00993,229.11642,52,50,41
229.12105,229.22752,53,50,41
229.23216,229.33864,55,50,41
230.34328,230.44975,62,50,41
230.45438,230.56087,64,50,41
230.56549,230.67198,65,50,41
232.12105,232.22752,59,50,41
232.23216,232.33864,60,50,41
232.34326,232.44975,62,50,41
237.89882,238.0053,50,50,41
238.00993,238.11641,52,50,41
238.12105,238.22752,54,50,41
238.7877,238.8942,50,50,41
238.89882,239.0053,52,50,41
239.00993,239.11641,54,50,41
239.67659,239.78308,50,50,41
239.7877,239.89418,52,50,41
239.89882,240.0053,53,50,41
240.34326,240.44974,53,50,41
240.56548,240.67197,50,53,41
240.67659,240.78308,52,54,41
240.7877,240.89418,53,56,41
241.00993,241.11641,50,59,41
241.12103,241.22752,52,61,41
241.23215,241.33862,53,63,41
241.45438,241.56085,50,66,41
241.56548,241.67197,52,68,41
241.67659,241.78308,53,69,41
241.89882,242.0053,50,73,41
242.00993,242.11641,52,74,41
242.12103,242.22752,53,76,41
242.34326,242.44974,50,79,41
242.45438,242.56085,52,81,41
242.56548,242.67197,53,82,41
242.7877,242.89418,50,86,41
242.89882,243.0053,52,87,41
243.00992,243.1205,53,89,41
243.1253,243.23589,50,91,41
243.24069,243.35127,52,92,41
243.35608,243.46666,53,94,41
243.47147,243.58556,55,96,41
243.59052,243.7046,53,97,41
243.70956,243.82935,52,99,41
243.83456,243.95435,50,100,41
243.95956,244.06604,52,110,41
244.2929,244.39937,52,70,41
244.404,244.51048,52,70,41
244.73734,244.84381,52,70,41
244.84845,244.95493,52,70,41
245.18178,245.28825,52,70,41
245.2929,245.39937,53,70,41
245.62622,245.73271,53,70,41
245.73734,245.84381,52,70,41
246.07066,246.17715,64,70,41
246.18178,246.28825,64,70,41
246.5151,246.6216,64,70,41
246.62622,246.7327,64,70,41
246.95955,247.06604,64,70,41
247.07066,247.17715,65,70,41
247.40399,247.51048,65,70,41
247.5151,247.6216,64,70,41
247.84845,247.95493,64,70,41
247.95955,248.06604,64,70,41
248.2929,248.39937,64,70,41
248.40399,248.51048,64,70,41
248.73734,248.84381,64,70,41
248.84843,248.95493,64,70,41
249.18178,249.28825,64,70,41
249.2929,249.39937,64,70,41
249.62622,249.7327,64,70,41
249.73734,249.84381,64,70,41
250.07066,250.17714,64,70,41
250.18178,250.28825,66,70,41
250.5151,250.62158,66,77,41
250.62622,250.7327,66,80,41
250.95955,251.06602,66,87,41
251.07066,251.18124,64,90,41
251.41681,251.52739,55,98,41
251.5322,251.64629,53,100,41
251.8953,252.01509,53,108,41
252.0203,252.12677,52,110,41
252.35362,252.46011,52,70,41
252.46474,252.57121,52,70,41
252.79807,252.90456,52,70,41
252.90918,253.01567,52,70,41
253.24252,253.349,52,70,41
253.35362,253.46011,53,70,41
253.68697,253.79344,53,70,41
253.79807,253.90456,52,70,41
254.13141,254.23788,52,70,41
254.24251,254.349,52,70,41
254.57585,254.68233,52,70,41
254.68697,254.79344,52,70,41
255.0203,255.12677,52,70,41
255.13141,255.23788,53,70,41
255.46474,255.57121,53,70,41
255.57585,255.68233,52,70,41
255.90918,256.01566,52,70,41
256.0203,256.12677,52,70,41
256.35364,256.4601,53,70,41
256.46472,256.57123,55,70,41
256.79807,256.90454,59,70,41
256.90918,257.01566,60,70,41
257.24252,257.349,52,70,41
257.35364,257.4601,52,70,41
257.68695,257.79343,52,72,41
257.79807,257.90454,54,73,41
258.1314,258.23788,54,75,41
258.24252,258.349,54,76,41
258.57584,258.6823,54,79,41
258.68695,258.79343,54,80,41
259.0203,259.12677,54,82,41
259.1314,259.23788,54,83,41
259.46472,259.57123,54,86,41
259.57584,259.68002,55,87,41
259.90192,260.0061,55,89,41
260.01062,260.11478,57,90,41
260.3367,260.4409,57,93,41
260.4454,260.54956,59,93,41
260.77148,260.87567,59,96,41
260.8802,260.98434,60,97,41
261.20627,261.31046,60,99,41
261.31497,261.41913,62,100,41
261.64105,261.74524,62,103,41
261.74976,261.8539,64,104,41
262.07584,262.18,60,106,41
262.18454,262.2887,59,107,41
262.51062,262.61478,59,110,41
262.61932,262.83218,59,110,41
262.8367,263.04956,59,110,41
263.27148,263.48434,59,110,41
263.70627,263.91913,63,110,41
264.14105,264.3539,64,110,41
264.57584,264.7887,60,110,41
265.01062,265.22348,68,110,41
265.4454,265.65826,69,110,41
265.8802,266.09305,66,110,41
266.09756,266.31042,64,110,41
266.09756,266.31042,59,110,41
266.96713,267.18,59,110,41
266.96713,267.18,66,110,41
267.8367,268.04956,64,110,41
267.8367,268.04956,59,110,41
268.70627,268.91913,66,110,41
268.70627,268.91913,59,110,41
269.57584,269.7887,59,110,41
269.57584,269.7887,64,110,41
270.4454,270.65826,59,110,41
271.31497,271.52783,59,110,41
272.1845,272.39737,55,110,41
272.1845,272.39737,62,110,41
273.05408,273.26694,55,110,41
273.92365,274.1365,64,110,41
274.7932,275.00607,69,110,41
275.66278,275.87564,67,110,41
276.53235,276.7452,59,110,41
277.40192,277.61478,52,110,41
280.05408,280.27167,52,70,41
280.2763,280.38278,54,70,41
280.38742,280.4939,56,70,41
280.49854,280.71613,57,70,41
280.72073,280.8272,53,70,41
280.83185,280.93832,52,70,41
280.94296,281.16055,51,70,41
281.1652,281.38278,54,70,41
281.38742,281.605,52,70,41
281.60962,281.8272,54,70,41
281.83185,282.04944,56,70,41
282.05408,283.8272,52,70,41
283.83185,283.93832,54,70,41
283.94296,284.04944,56,70,41
284.05408,284.27167,57,70,41
284.2763,284.38278,53,70,41
284.3874,284.4939,52,70,41
284.4985,285.605,50,70,41
285.60962,285.7161,51,70,41
285.72073,285.8272,53,70,41
285.83185,286.04944,55,70,41
286.05408,286.16055,51,70,41
286.1652,286.27167,50,70,41
286.2763,286.93832,49,70,41
286.94296,287.04944,61,67,41
287.05408,287.16055,64,66,41
287.1652,287.60498,62,66,41
287.60962,288.7161,62,64,41
288.72073,288.8272,59,58,41
288.83185,288.93832,62,57,41
288.94296,289.16055,60,57,41
289.60962,289.7161,58,53,41
289.72073,289.8272,59,52,41
289.83185,290.04944,61,52,41
290.05408,290.16055,61,51,41
290.1652,290.27167,59,50,41
290.27628,290.49387,58,50,41
290.4985,290.7161,59,50,41
290.72073,290.93832,59,50,41
291.60962,291.8272,59,50,41
292.4985,292.7161,59,50,41
293.3874,293.60498,59,50,41
294.27628,294.49387,69,50,41
294.27628,294.49387,66,50,41
294.94296,295.04944,63,50,41
295.05405,295.16055,64,50,41
295.16516,295.27167,66,50,41
295.4985,295.60498,64,50,41
295.60962,295.7161,63,50,41
296.72073,296.8272,64,50,41
296.83185,296.93832,66,50,41
296.94296,297.04944,67,50,41
297.27628,297.38275,66,50,41
297.3874,297.49387,64,50,41
298.4985,298.60498,63,59,41
298.60962,298.7161,64,61,41
298.72073,298.8272,66,63,41
299.05405,299.16055,64,68,41
299.16516,299.27164,63,69,41
300.27628,300.38275,64,86,41
300.3874,300.49387,66,87,41
300.4985,300.60498,67,89,41
300.83185,300.93832,66,94,41
300.94293,301.04944,64,96,41
301.3874,301.60498,60,110,41
303.22592,303.51965,53,120,41
303.22592,303.51965,60,120,41
306.5148,307.8435,55,70,41
307.8481,308.28793,54,80,41
308.29257,308.7324,55,90,41
308.73703,309.17682,55,100,41
309.18146,309.39905,53,110,41
309.18146,309.39905,60,110,41
311.07782,311.37155,53,120,41
311.07782,311.37155,60,120,41
314.3667,315.6954,55,70,41
315.70004,316.13986,54,80,41
316.14447,316.5843,55,70,41
316.58893,317.02875,55,75,41
317.03336,317.47318,60,80,41
317.4778,318.36206,58,85,41
318.3667,320.13983,61,111,41
320.14447,321.01022,59,110,41
321.03336,321.1954,59,92,41
321.25558,321.41763,59,70,41
321.92224,322.0843,60,73,41
322.14447,322.30652,60,74,41
322.81113,322.97318,60,77,41
323.03336,323.1954,60,78,41
323.7,323.86206,59,80,41
323.92224,324.0843,59,81,41
324.58893,324.6954,59,84,41
324.7,324.80652,59,84,41
324.81113,324.9176,59,85,41
324.92224,325.02872,59,85,41
325.4778,325.5843,60,88,41
325.5889,325.6954,60,88,41
325.7,325.80652,60,88,41
325.81113,325.9176,60,89,41
326.3667,326.47318,60,91,41
326.4778,326.5843,60,92,41
326.5889,326.6954,60,92,41
326.7,326.80652,60,92,41
327.25558,327.36206,59,95,41
327.3667,327.47318,59,95,41
327.4778,327.5843,59,96,41
327.5889,327.6954,59,96,41
327.7,327.8065,59,97,41
327.81113,327.9176,59,97,41
327.92224,328.02872,59,97,41
328.03336,328.13983,59,98,41
328.14447,328.25095,64,98,41
328.25558,328.36206,64,99,41
328.3667,328.47318,64,99,41
328.47778,328.5843,64,100,41
328.5889,328.6954,64,100,41
328.7,328.8065,64,101,41
328.81113,328.9176,64,101,41
328.92224,329.02872,64,101,41
329.03336,329.13983,64,102,41
329.14447,329.25095,64,102,41
329.25558,329.36206,64,103,41
329.3667,329.47318,64,103,41
329.47778,329.5843,65,104,41
329.5889,329.6954,65,104,41
329.7,329.8065,65,105,41
329.81113,329.9176,65,105,41
329.92224,330.02872,65,106,41
330.03336,330.13983,65,106,41
330.14447,330.25095,65,106,41
330.25558,330.36206,65,107,41
330.3667,330.47726,55,107,41
330.3667,330.47726,65,107,41
330.48206,330.59265,55,108,41
330.48206,330.59265,65,108,41
330.59744,330.70804,55,108,41
330.59744,330.70804,65,108,41
330.71283,330.82343,55,109,41
330.71283,330.82343,65,109,41
330.82822,330.94232,55,109,41
330.82822,330.94232,65,109,41
330.94727,331.06137,55,110,41
330.94727,331.06137,65,110,41
331.0663,331.1861,55,110,41
331.0663,331.1861,65,110,41
331.1913,331.3111,55,110,41
331.1913,331.3111,65,110,41
331.3163,331.47836,55,120,41
331.3163,331.47836,64,120,41
331.64966,331.75613,52,120,41
331.76077,331.91928,52,120,41
332.08685,332.191,52,120,41
332.19556,332.35406,52,120,41
332.52164,332.6258,52,120,41
332.63034,332.78885,53,120,41
332.95642,333.06058,53,120,41
333.0651,333.22363,52,120,41
333.3912,333.49536,52,120,41
333.49988,333.65842,52,120,41
333.826,333.93015,52,120,41
333.93466,334.0932,52,120,41
334.26077,334.36493,52,120,41
334.36945,334.52795,53,120,41
334.69553,334.7997,53,120,41
334.80423,334.96274,52,120,41
335.1303,335.2345,52,120,41
335.239,335.39752,52,120,41
335.5651,335.66928,50,120,41
335.6738,335.8323,48,120,41
335.99988,336.10406,50,120,41
336.10858,336.2671,52,120,41
336.43466,336.53885,52,120,41
336.54337,336.70187,52,120,41
336.86945,336.9736,52,120,41
336.97815,337.13666,54,120,41
337.30423,337.4084,54,120,41
337.41293,337.57144,54,120,41
337.739,337.84317,54,120,41
337.84772,338.00623,54,120,41
338.1738,338.27795,54,120,41
338.2825,338.441,54,120,41
338.60858,338.71274,59,120,41
338.7173,338.8758,59,120,41
339.04337,339.14752,59,120,41
339.15207,339.31058,57,120,41
339.47815,339.5823,57,120,41
339.58685,339.74536,59,120,41
339.91293,340.0171,64,120,41
340.0216,340.18015,64,120,41
340.34772,340.45187,64,120,41
340.4564,340.61493,62,120,41
340.7825,340.88666,62,120,41
340.89117,341.05322,60,120,41
341.22452,341.331,66,120,41
341.33563,341.5039,66,120,41
341.6864,341.8014,66,120,41
341.8064,341.96265,64,125,41
342.12784,342.2305,55,110,41
342.23495,342.3308,57,110,41
342.53497,342.6308,60,110,41
342.63498,342.81857,59,110,41
343.3588,343.43866,55,125,41
343.6088,343.68866,55,110,41
343.69214,343.772,57,110,41
343.94214,344.022,60,110,41
344.02548,344.18866,59,110,41
344.69214,344.772,55,125,41
344.69214,344.772,59,125,41
344.94214,345.022,55,110,41
344.94214,345.022,59,110,41
345.02545,345.10532,55,110,41
345.02545,345.10532,59,110,41
345.27545,345.35532,57,110,41
345.3588,345.522,55,110,41
346.02545,346.10532,55,125,41
346.02545,346.10532,59,125,41
346.27545,346.35532,55,110,41
346.27545,346.35532,59,110,41
346.3588,346.43866,55,110,41
346.3588,346.43866,59,110,41
346.6088,346.68866,57,110,41
346.6921,346.85532,55,110,41
347.27545,347.35532,64,110,41
347.3588,347.52197,64,125,41
347.9421,348.02197,63,110,41
348.02545,348.18866,64,125,41
348.6088,348.68863,54,110,41
348.6921,348.85532,55,125,41
349.27545,349.35532,54,120,41
349.35876,349.52197,55,120,41
349.9421,350.02197,55,120,41
350.02545,350.18863,57,120,41
350.60876,350.68863,57,120,41
350.6921,350.81363,55,120,41
350.9421,351.02197,59,120,41
351.02545,351.14697,57,120,41
351.27545,351.3553,61,120,41
351.35876,351.4803,59,120,41
351.60876,351.68863,62,120,41
351.6921,351.81363,60,120,41
351.9421,352.02197,64,120,41
352.02542,352.14697,62,120,41
352.27542,352.3553,66,120,41
352.35876,352.4803,64,120,41
352.60876,352.68863,66,120,41
352.6921,352.81363,64,120,41
352.9421,353.02197,69,120,41
353.02542,353.14697,67,120,41
353.27542,353.3553,69,120,41
353.35876,353.48593,67,120,41
353.6204,353.70398,71,120,41
353.7076,353.8394,71,120,41
353.9821,354.07193,71,120,41
354.07584,354.21255,71,120,41
354.3571,354.44693,59,120,41
354.45084,354.58755,59,120,41
354.7321,354.82193,59,120,41
354.82584,354.96255,59,120,41
355.1071,355.19693,63,120,41
355.20084,355.33755,64,120,41
355.4821,355.57193,63,120,41
355.57584,355.71255,64,120,41
355.8571,355.94693,63,120,41
355.95084,356.08755,64,120,41
356.2321,356.32193,63,120,41
356.32584,356.50943,64,120,41
356.70084,356.88443,59,120,41
356.70084,356.88443,69,120,41
357.07584,357.27167,67,120,41
357.07584,357.27167,59,120,41
357.47583,357.68564,59,120,41
357.47583,357.68564,66,120,41
357.9044,358.1142,59,120,41
357.9044,358.1142,64,120,41
358.76154,358.9875,59,120,41
358.76154,358.9875,63,120,41
359.6846,360.02594,52,127,41
0.0,0.10648137,36,110,42
0.333333,0.4398144,48,70,42
0.444444,0.5509254,48,70,42
0.777777,0.8842584,48,70,42
0.888888,0.9953694,48,70,42
1.222221,1.3287023,48,70,42
1.333332,1.4398134,48,70,42
1.666665,1.7731464,48,70,42
1.777776,1.8842573,48,70,42
2.111109,2.2175903,48,70,42
2.22222,2.3287013,48,70,42
2.555553,2.6620343,48,70,42
2.666664,2.7731454,48,70,42
2.999997,3.1064785,48,70,42
3.111108,3.2175894,48,70,42
3.444441,3.5509224,48,70,42
3.555552,3.6620333,48,70,42
3.888885,3.9953663,48,70,42
3.999996,4.1064773,48,70,42
4.333329,4.4398103,48,70,42
4.44444,4.5509214,48,70,42
4.777773,4.8842545,48,70,42
4.888884,4.995365,48,70,42
5.222217,5.328698,48,70,42
5.333328,5.4398093,48,70,42
5.666661,5.7731423,48,70,42
5.777772,5.8842535,47,70,42
6.111105,6.2175865,47,70,42
6.222216,6.328697,47,70,42
6.555549,6.66203,47,72,42
6.66666,6.7731414,47,75,42
6.999993,7.1064744,47,84,42
7.111104,7.2175856,52,87,42
7.444437,7.5509186,52,96,42
7.555548,7.666125,50,99,42
7.9072847,8.0232115,50,107,42
8.028252,8.134733,48,110,42
8.361585,8.468066,60,70,42
8.472696,8.579177,60,70,42
8.806029,8.91251,60,70,42
8.91714,9.023622,60,70,42
9.250473,9.356955,60,70,42
9.361584,9.468065,60,70,42
9.694917,9.801398,60,70,42
9.806028,9.912509,60,70,42
10.139361,10.245842,60,70,42
10.250472,10.356954,60,70,42
10.583805,10.690287,60,70,42
10.694916,10.801397,60,70,42
11.028249,11.13473,60,70,42
11.13936,11.245841,60,70,42
11.472693,11.579174,60,70,42
11.583804,11.690286,60,70,42
11.917137,12.023619,60,70,42
12.028248,12.134729,60,70,42
12.361581,12.468062,60,70,42
12.472692,12.579173,60,70,42
12.806025,12.912506,60,70,42
12.917136,13.023618,60,70,42
13.250469,13.356951,60,70,42
13.36158,13.468061,60,70,42
13.694913,13.801394,60,70,42
13.806024,13.912505,59,70,42
14.139357,14.245838,59,70,42
14.250468,14.35695,59,70,42
14.583801,14.690283,59,77,42
14.694912,14.8013935,59,80,42
15.028245,15.134727,59,87,42
15.139356,15.245837,64,90,42
15.472689,15.57917,52,98,42
15.5838,15.690281,52,100,42
15.917133,16.023615,52,108,42
16.028244,16.134726,54,110,42
16.361576,16.468058,54,70,42
16.472689,16.57917,54,70,42
16.80602,16.912502,54,70,42
16.917131,17.023613,54,70,42
17.250465,17.356947,54,70,42
17.361576,17.468058,54,70,42
17.694908,17.80139,54,70,42
17.80602,18.134724,54,70,42
18.250463,18.59181,50,80,42
18.712002,19.069864,55,90,42
19.195871,19.565664,43,100,42
19.695871,19.802353,48,110,42
19.695871,19.802353,36,110,42
20.029205,20.135687,48,70,42
20.029205,20.135687,36,70,42
20.140316,20.246798,48,70,42
20.140316,20.246798,36,70,42
20.473648,20.58013,48,70,42
20.473648,20.58013,36,70,42
20.58476,20.691242,48,70,42
20.58476,20.691242,36,70,42
20.918093,21.024574,48,70,42
20.918093,21.024574,36,70,42
21.029203,21.135685,48,70,42
21.029203,21.135685,36,70,42
21.362537,21.469019,48,70,42
21.362537,21.469019,36,70,42
21.473648,21.58013,48,70,42
21.473648,21.58013,36,70,42
21.80698,21.913462,48,70,42
21.80698,21.913462,36,70,42
21.918093,22.024574,48,70,42
21.918093,22.024574,36,70,42
22.251425,22.357906,48,70,42
22.251425,22.357906,36,70,42
22.362535,22.469017,48,70,42
22.362535,22.469017,36,70,42
22.69587,22.802351,48,70,42
22.69587,22.802351,36,70,42
22.80698,22.913462,48,70,42
22.80698,22.913462,36,70,42
23.140312,23.246794,48,70,42
23.140312,23.246794,36,70,42
23.251425,23.357904,48,70,42
23.251425,23.357904,36,70,42
23.584757,23.691238,48,70,42
23.584757,23.691238,36,70,42
23.695868,23.80235,48,70,42
23.695868,23.80235,36,70,42
24.029202,24.135683,48,70,42
24.029202,24.135683,36,70,42
24.140312,24.246794,48,70,42
24.140312,24.246794,36,70,42
24.473644,24.580126,48,70,42
24.473644,24.580126,36,70,42
24.584757,24.691236,48,70,42
24.584757,24.691236,36,70,42
24.918089,25.02457,48,70,42
24.918089,25.02457,36,70,42
25.0292,25.135681,48,70,42
25.0292,25.135681,36,70,42
25.362534,25.469015,48,70,42
25.362534,25.469015,36,70,42
25.473644,25.580126,47,70,42
25.806976,25.913458,47,70,42
25.918089,26.024569,47,70,42
26.251421,26.357903,47,77,42
26.362532,26.469013,47,80,42
26.695866,26.802347,47,87,42
26.806976,26.913458,64,90,42
27.140308,27.24679,52,98,42
27.25142,27.361998,52,100,42
27.597574,27.70815,52,108,42
27.712957,27.823534,54,110,42
28.054838,28.16132,54,70,42
28.165949,28.27243,54,70,42
28.499283,28.605762,54,70,42
28.610394,28.716875,54,70,42
28.943726,29.050207,54,70,42
29.054836,29.161318,54,70,42
29.38817,29.494652,54,70,42
29.49928,29.827984,54,70,42
29.943726,30.28507,50,80,42
30.405264,30.757444,55,90,42
30.881453,31.251245,43,100,42
31.381453,31.487934,48,110,42
31.381453,31.487934,36,110,42
31.714787,31.821268,48,70,42
31.714787,31.821268,36,70,42
31.825897,31.932379,48,70,42
31.825897,31.932379,36,70,42
32.15923,32.265713,48,70,42
32.15923,32.265713,36,70,42
32.27034,32.376823,48,70,42
32.27034,32.376823,36,70,42
32.603676,32.710155,48,70,42
32.603676,32.710155,36,70,42
32.714787,32.821266,48,70,42
32.714787,32.821266,36,70,42
33.04812,33.1546,48,70,42
33.04812,33.1546,36,70,42
33.15923,33.26571,48,70,42
33.15923,33.26571,36,70,42
33.49256,33.599045,48,70,42
33.49256,33.599045,36,70,42
33.603672,33.710155,48,70,42
33.603672,33.710155,36,70,42
33.937008,34.043488,48,70,42
33.937008,34.043488,36,70,42
34.04812,34.1546,48,70,42
34.04812,34.1546,36,70,42
34.38145,34.48793,48,70,42
34.38145,34.48793,36,70,42
34.49256,34.59904,48,70,42
34.49256,34.59904,36,70,42
34.825893,34.932377,48,70,42
34.825893,34.932377,36,70,42
34.937004,35.043488,48,70,42
34.937004,35.043488,36,70,42
35.270336,35.37682,48,70,42
35.270336,35.37682,36,70,42
35.38145,35.48793,48,70,42
35.38145,35.48793,36,70,42
35.714783,35.821262,48,70,42
35.714783,35.821262,36,70,42
35.825893,35.932373,48,70,42
35.825893,35.932373,36,70,42
36.159225,36.26571,48,70,42
36.159225,36.26571,36,70,42
36.270336,36.37682,48,70,42
36.270336,36.37682,36,70,42
36.60367,36.71015,48,70,42
36.60367,36.71015,36,70,42
36.714783,36.821262,48,70,42
36.714783,36.821262,36,70,42
37.048115,37.154594,60,72,42
37.159225,37.265705,59,73,42
37.492558,37.59904,59,75,42
37.60367,37.71015,59,76,42
37.937,38.043484,59,79,42
38.048115,38.154594,57,80,42
38.381447,38.487926,57,82,42
38.492558,38.599037,57,83,42
38.82589,38.932373,57,86,42
38.937,39.04117,55,87,42
39.26309,39.367252,55,89,42
39.371784,39.47595,54,90,42
39.69787,39.802036,54,93,42
39.806564,39.910732,52,93,42
40.132652,40.236816,52,96,42
40.24135,40.345512,48,97,42
40.567432,40.6716,48,99,42
40.67613,40.780296,47,100,42
41.002216,41.10638,47,103,42
41.110912,41.215076,45,104,42
41.436996,41.541164,45,106,42
41.545692,41.64986,47,107,42
41.87178,41.975945,47,110,42
41.980476,42.193336,43,110,42
42.415257,42.62812,55,110,42
42.85004,43.0629,54,110,42
43.28482,43.497684,52,110,42
43.719604,43.932465,48,110,42
44.154385,44.36725,47,110,42
44.58917,44.80203,45,110,42
45.02395,45.236813,47,110,42
45.458733,45.671593,40,110,42
46.328297,46.541157,47,110,42
47.19786,47.41072,52,110,42
48.067425,48.280285,47,110,42
48.93699,49.041153,52,110,42
49.154377,49.258545,52,110,42
49.263073,49.36724,54,110,42
49.37177,49.475937,55,110,42
49.58916,49.693325,57,110,42
49.697857,49.80202,59,110,42
49.806553,49.910717,60,110,42
50.02394,50.12811,60,110,42
50.132637,50.236805,62,110,42
50.241333,50.29568,64,110,42
50.29568,50.35003,66,110,42
50.35003,50.404377,64,110,42
50.404377,50.458725,66,110,42
50.458725,50.53119,64,110,42
50.53119,50.603653,62,110,42
50.603653,50.676113,64,110,42
50.676113,50.888977,62,110,42
52.41524,52.51941,48,110,42
52.632633,52.7368,48,110,42
52.74133,52.845497,50,110,42
52.850025,52.954193,52,110,42
53.067417,53.17158,54,110,42
53.176113,53.280277,55,110,42
53.284805,53.388973,57,110,42
53.502197,53.606365,57,110,42
53.610893,53.71506,59,110,42
53.71959,53.773937,59,110,42
53.773937,53.828285,60,110,42
53.828285,53.882633,59,110,42
53.882633,53.93698,60,110,42
53.93698,54.009445,60,110,42
54.009445,54.08191,59,110,42
54.08191,54.15437,60,110,42
54.15437,54.367233,59,110,42
55.67611,55.88897,59,110,42
55.893497,56.10636,58,110,42
56.11089,56.215057,58,110,42
56.219585,56.323753,59,110,42
56.32828,56.975925,61,110,42
56.980453,57.08462,59,110,42
57.08915,57.193317,58,110,42
57.197845,57.410706,59,110,42
57.415237,57.628098,55,110,42
57.632626,57.84549,54,110,42
57.850018,58.06288,66,110,42
58.06741,58.28027,66,110,42
58.2848,58.49766,66,110,42
58.50219,58.715054,66,110,42
58.71958,58.932446,66,110,42
58.936974,59.149834,66,110,42
59.154366,59.367226,66,110,42
59.371754,59.584618,66,110,42
60.926193,61.170986,42,70,42
61.176193,61.393787,47,70,42
61.62064,61.83823,47,70,42
61.84286,62.06045,42,70,42
62.509525,62.72712,54,70,42
62.731747,62.94934,46,70,42
63.398415,63.616005,54,70,42
63.620636,63.83823,47,70,42
64.2873,64.5049,55,70,42
64.50952,64.72712,52,70,42
65.17619,65.39378,40,70,42
65.398415,65.616005,36,70,42
66.06508,66.28267,42,70,42
66.2873,66.50489,47,70,42
66.953964,67.171555,42,70,42
67.176186,67.39378,46,70,42
67.39841,68.50489,47,70,42
68.50952,68.72711,50,90,42
68.73174,68.94933,54,95,42
68.953964,69.171555,59,100,42
69.176186,69.393776,58,70,42
69.39841,69.616,61,70,42
69.84285,70.06045,61,70,42
70.06507,70.28267,59,70,42
70.28729,70.50489,62,70,42
70.73174,70.94933,62,70,42
70.953964,71.171555,60,70,42
71.176186,71.393776,64,70,42
71.62063,71.83822,64,70,42
71.84285,72.06044,52,70,42
72.06507,72.28266,55,70,42
72.28729,72.50488,60,70,42
72.509514,72.72711,64,70,42
72.731735,72.94933,62,70,42
72.95396,73.171555,59,70,42
73.39841,73.616,59,70,42
73.62063,73.84659,61,70,42
73.851395,74.077354,54,70,42
74.32026,74.56505,54,70,42
74.57026,75.45452,59,50,42
75.459145,76.34341,59,50,42
76.34804,77.23229,59,50,42
77.23692,78.12118,59,50,42
78.12581,78.34341,59,50,42
80.57025,80.676735,47,50,42
80.681366,80.78784,49,50,42
80.79247,80.89896,50,50,42
83.68136,83.78784,47,50,42
83.79247,83.89896,48,50,42
83.90358,84.01006,50,50,42
86.792465,86.89895,50,50,42
86.90358,87.01006,52,50,42
87.014694,87.12117,53,50,42
87.68136,87.78784,38,50,42
87.792465,87.89895,40,50,42
87.90358,88.01006,41,50,42
88.570244,88.67673,38,50,42
88.68136,88.787834,40,50,42
88.792465,88.89895,41,50,42
89.45913,89.56561,38,50,42
89.570244,89.67673,40,50,42
89.68136,89.89895,41,50,42
90.570244,90.787834,41,50,42
90.792465,90.89895,38,50,42
90.90358,91.010056,40,50,42
91.01469,91.23228,41,50,42
91.23691,91.34339,38,50,42
91.34802,91.4545,40,52,42
91.45913,91.67672,41,54,42
91.68135,91.787834,38,59,42
91.792465,91.89895,40,61,42
91.90357,92.12117,41,64,42
92.12579,92.23228,38,68,42
92.23691,92.34339,40,71,42
92.34802,92.56561,41,73,42
92.570244,92.67672,38,78,42
92.68135,92.787834,40,80,42
92.792465,93.010056,41,82,42
93.01469,93.12117,38,87,42
93.12579,93.23228,40,89,42
93.23691,93.34748,41,92,42
93.352295,93.46287,38,94,42
93.467674,93.578255,40,96,42
93.58306,93.693634,41,99,42
93.69845,93.81253,43,101,42
93.81749,93.93158,41,103,42
93.93654,94.056335,40,106,42
94.06154,94.181335,38,108,42
94.18654,94.29302,36,110,42
94.519875,94.62636,48,70,42
94.63098,94.737465,48,70,42
94.96432,95.0708,48,70,42
95.075424,95.18191,48,70,42
95.40876,95.51524,48,70,42
95.519875,95.62635,48,70,42
95.8532,95.95969,48,70,42
95.96432,96.0708,48,70,42
96.297646,96.40413,48,70,42
96.40876,96.51524,48,70,42
96.742096,96.84857,48,70,42
96.8532,96.95969,48,70,42
97.18654,97.29302,48,70,42
97.297646,97.40413,48,70,42
97.63098,97.737465,48,70,42
97.74209,97.84857,48,70,42
98.075424,98.18191,48,70,42
98.18654,98.293015,48,70,42
98.51987,98.62635,48,70,42
98.63098,98.737465,48,70,42
98.96431,99.07079,48,70,42
99.075424,99.18191,48,70,42
99.40876,99.515236,48,70,42
99.51987,99.62635,48,70,42
99.8532,99.95968,48,70,42
99.96431,100.07079,47,70,42
100.297646,100.40413,47,70,42
100.40875,100.515236,47,70,42
100.74209,100.84857,47,72,42
100.8532,100.95968,47,75,42
101.18653,101.293015,47,84,42
101.297646,101.40822,52,87,42
101.6438,101.75437,52,96,42
101.759186,101.87327,50,99,42
102.116325,102.230415,50,107,42
102.235374,102.34185,48,110,42
102.5687,102.675186,60,70,42
102.67982,102.7863,60,70,42
103.013145,103.11963,60,70,42
103.12426,103.23074,60,70,42
103.457596,103.56407,60,70,42
103.5687,103.675186,60,70,42
103.90204,104.00852,60,70,42
104.013145,104.11963,60,70,42
104.34648,104.452965,60,70,42
104.45759,104.56407,60,70,42
104.790924,104.89741,60,70,42
104.90204,105.008514,60,70,42
105.23537,105.34185,60,70,42
105.34648,105.452965,60,70,42
105.67981,105.78629,60,70,42
105.790924,105.89741,60,70,42
106.12426,106.230736,60,70,42
106.23537,106.34185,60,70,42
106.5687,106.675186,60,70,42
106.67981,106.78629,60,70,42
107.013145,107.11963,60,70,42
107.12425,107.230736,60,70,42
107.45759,107.56407,60,70,42
107.5687,107.67518,60,70,42
107.90203,108.008514,60,70,42
108.013145,108.11963,59,70,42
108.34647,108.45296,59,70,42
108.45759,108.56407,59,70,42
108.790924,108.8974,59,77,42
108.90203,109.008514,59,80,42
109.23537,109.34184,59,87,42
109.34647,109.457054,64,90,42
109.69263,109.80321,52,98,42
109.808014,109.918594,52,100,42
110.15417,110.26475,52,108,42
110.269554,110.38013,54,110,42
110.611435,110.71791,54,70,42
110.72254,110.829025,54,70,42
111.05588,111.16236,54,70,42
111.166985,111.27347,54,70,42
111.50032,111.606804,54,70,42
111.61143,111.71791,54,70,42
111.94476,112.05125,54,70,42
112.05588,112.384575,54,70,42
112.50032,112.84167,50,80,42
112.96186,113.31404,55,90,42
113.43805,113.80784,43,100,42
113.93805,114.044525,48,110,42
114.27138,114.37786,48,70,42
114.27138,114.37786,36,70,42
114.38249,114.488976,48,70,42
114.38249,114.488976,36,70,42
114.71582,114.8223,48,70,42
114.71582,114.8223,36,70,42
114.826935,114.93342,48,70,42
114.826935,114.93342,36,70,42
115.16027,115.26675,48,70,42
115.16027,115.26675,36,70,42
115.27138,115.37786,48,70,42
115.27138,115.37786,36,70,42
115.60471,115.7112,48,70,42
115.60471,115.7112,36,70,42
115.71582,115.8223,48,70,42
115.71582,115.8223,36,70,42
116.04916,116.15564,48,70,42
116.04916,116.15564,36,70,42
116.16027,116.26675,48,70,42
116.16027,116.26675,36,70,42
116.4936,116.60008,48,70,42
116.4936,116.60008,36,70,42
116.60471,116.71119,48,70,42
116.60471,116.71119,36,70,42
116.93804,117.044525,48,70,42
116.93804,117.044525,36,70,42
117.04916,117.15564,48,70,42
117.04916,117.15564,36,70,42
117.382484,117.48897,48,70,42
117.382484,117.48897,36,70,42
117.4936,117.60008,48,70,42
117.4936,117.60008,36,70,42
117.826935,117.93341,48,70,42
117.826935,117.93341,36,70,42
117.93804,118.044525,48,70,42
117.93804,118.044525,36,70,42
118.27138,118.37786,48,70,42
118.27138,118.37786,36,70,42
118.382484,118.48897,48,70,42
118.382484,118.48897,36,70,42
118.71582,118.8223,48,70,42
118.71582,118.8223,36,70,42
118.826935,118.93341,48,70,42
118.826935,118.93341,36,70,42
119.16026,119.26675,48,70,42
119.16026,119.26675,36,70,42
119.27138,119.37785,48,70,42
119.27138,119.37785,36,70,42
119.604706,119.71119,48,70,42
119.604706,119.71119,36,70,42
119.71582,119.8223,47,70,42
120.04915,120.15563,47,70,42
120.16026,120.26675,47,70,42
120.4936,120.600075,47,77,42
120.604706,120.71119,47,80,42
120.93804,121.044525,47,87,42
121.04915,121.15563,64,90,42
121.382484,121.48897,52,98,42
121.49359,121.600075,52,100,42
121.82693,121.93341,52,108,42
121.93804,122.04452,42,110,42
122.27137,122.37785,54,70,42
122.382484,122.48897,54,70,42
122.71581,122.822296,54,70,42
122.82693,122.93341,54,70,42
123.16026,123.26674,54,70,42
123.27137,123.37785,54,70,42
123.604706,123.71118,54,70,42
123.71581,124.04452,54,70,42
124.160255,124.48896,50,80,42
124.604706,124.94605,55,90,42
125.06624,125.424126,43,100,42
125.55434,125.66082,48,110,42
125.55434,125.66082,36,110,42
125.88767,125.99415,48,70,42
125.88767,125.99415,36,70,42
125.99878,126.10526,48,70,42
125.99878,126.10526,36,70,42
126.332115,126.43859,48,70,42
126.332115,126.43859,36,70,42
126.44322,126.549706,48,70,42
126.44322,126.549706,36,70,42
126.77656,126.88304,48,70,42
126.77656,126.88304,36,70,42
126.887665,126.99415,48,70,42
126.887665,126.99415,36,70,42
127.221,127.327484,48,70,42
127.221,127.327484,36,70,42
127.332115,127.43859,48,70,42
127.332115,127.43859,36,70,42
127.66544,127.77193,48,70,42
127.66544,127.77193,36,70,42
127.77656,127.88303,48,70,42
127.77656,127.88303,36,70,42
128.1099,128.21637,48,70,42
128.1099,128.21637,36,70,42
128.221,128.32748,48,70,42
128.221,128.32748,36,70,42
128.55434,128.66081,48,70,42
128.55434,128.66081,36,70,42
128.66545,128.77193,48,70,42
128.66545,128.77193,36,70,42
128.99878,129.10526,48,100,42
128.99878,129.10526,36,100,42
129.1099,129.99414,48,120,42
129.99878,130.88304,53,120,42
130.88766,131.32748,50,120,42
131.3321,131.77193,59,120,42
131.77655,132.21637,55,120,42
132.221,132.66081,62,120,42
132.66544,132.74243,60,120,42
132.77414,132.85114,59,120,42
132.88283,132.95982,57,120,42
132.99153,133.06851,55,120,42
133.10022,133.17722,57,120,42
133.20892,133.2859,55,120,42
133.31761,133.3946,53,120,42
133.42632,133.5033,52,120,42
133.535,133.612,53,120,42
133.64369,133.72069,52,120,42
133.7524,133.82939,50,120,42
133.86108,133.93808,48,120,42
133.96979,134.04678,53,120,42
134.07848,134.15547,52,120,42
134.18718,134.26418,50,120,42
134.29587,134.37286,48,120,42
134.40457,134.48157,50,120,42
134.51326,134.59026,48,120,42
134.62196,134.69894,47,120,42
134.73065,134.80765,45,120,42
134.83936,134.91634,47,120,42
134.94804,135.02504,45,120,42
135.05675,135.13373,44,120,42
135.16544,135.24243,42,120,42
135.27414,135.35112,44,120,42
135.38283,135.45982,45,120,42
135.49152,135.56851,47,120,42
135.60022,135.67722,45,120,42
135.70891,135.7859,44,120,42
135.81761,135.8946,40,120,42
135.9263,136.0033,42,120,42
136.035,136.112,44,120,42
136.14369,137.00873,45,120,42
137.01326,137.8783,50,120,42
137.88283,138.31308,47,120,42
138.31761,138.74786,56,120,42
138.75238,139.18265,52,120,42
139.18716,139.61742,59,120,42
139.62195,139.69894,57,120,42
139.73065,139.80765,55,120,42
139.83934,139.91634,53,120,42
139.94804,140.02502,52,120,42
140.05673,140.13373,57,120,42
140.16544,140.24242,55,120,42
140.27412,140.35112,53,120,42
140.38283,140.45981,52,120,42
140.49152,140.56851,53,120,42
140.6002,140.6772,52,120,42
140.70891,140.7859,50,120,42
140.8176,140.89459,48,120,42
140.9263,141.0033,50,120,42
141.03499,141.11198,48,120,42
141.14369,141.22069,46,120,42
141.25238,141.32938,45,120,42
141.36108,141.43808,46,120,42
141.46977,141.54677,45,120,42
141.57848,141.65546,43,120,42
141.68716,141.76416,41,120,42
141.79587,141.87285,43,120,42
141.90456,141.98155,41,120,42
142.01326,142.09024,40,120,42
142.12195,142.19894,38,120,42
142.23064,142.30763,40,120,42
142.33934,142.41634,41,120,42
142.44803,142.52502,43,120,42
142.55673,142.63373,41,120,42
142.66542,142.74242,40,120,42
142.77412,142.85112,36,120,42
142.88281,142.95981,38,120,42
142.99152,143.06851,40,120,42
143.1002,143.31306,41,120,42
144.18716,144.29134,38,118,42
144.29585,144.40002,39,118,42
144.40456,144.50873,41,118,42
144.51324,144.61742,38,118,42
144.62195,144.7261,39,118,42
144.73064,144.83481,41,118,42
144.83934,145.0522,39,118,42
145.92628,146.03046,49,116,42
146.03499,146.13916,50,116,42
146.14368,146.24785,52,116,42
146.25238,146.35654,49,116,42
146.36107,146.46524,50,115,42
146.46977,146.57393,52,115,42
146.57846,147.00871,53,115,42
147.01324,147.4435,50,115,42
147.44803,147.87828,47,114,42
147.88281,148.31306,53,113,42
148.3176,148.74785,51,113,42
148.75238,149.18263,48,112,42
149.18715,149.61742,45,112,42
149.62193,150.05219,41,111,42
150.05672,156.94098,46,110,42
156.9456,157.1632,46,114,42
157.16783,157.32986,45,120,42
157.39005,157.55208,43,120,42
157.61227,157.82986,41,120,42
157.83449,157.94098,40,120,42
157.9456,158.05208,41,120,42
158.05672,158.21875,43,120,42
158.27893,158.44096,41,120,42
158.50116,158.71875,40,120,42
158.72337,158.82986,38,120,42
158.83449,158.94096,40,120,42
158.9456,159.10764,41,120,42
159.16782,159.32986,40,120,42
159.39005,159.60764,38,120,42
159.61226,159.71875,37,120,42
159.72337,159.82986,38,120,42
159.83449,159.99652,40,120,42
160.05672,160.21875,41,120,42
160.27893,160.49652,43,120,42
160.50116,160.60764,45,120,42
160.61226,160.71875,43,120,42
160.72337,160.94096,41,120,42
162.27893,162.49652,57,120,42
162.50114,162.6632,58,120,42
162.72337,162.8854,57,120,42
162.9456,163.1632,55,120,42
163.16782,163.27429,54,120,42
163.27893,163.3854,55,120,42
163.39005,163.55208,57,120,42
163.61226,163.77429,55,120,42
163.83449,164.05208,54,120,42
164.0567,164.1632,52,120,42
164.16782,164.27429,54,120,42
164.27893,164.94096,55,120,42
164.94559,165.1632,43,120,42
165.16782,165.82985,55,120,42
165.83449,166.05208,43,120,42
166.0567,166.71873,55,120,42
166.72337,166.94096,43,120,42
166.94559,167.16318,55,120,42
167.16782,167.3854,43,120,42
167.39003,167.60764,55,120,42
167.61226,167.82985,43,120,42
167.83447,168.71873,48,120,42
168.72337,168.94096,49,120,42
168.94559,169.05208,52,120,42
169.0567,169.16318,50,120,42
169.16782,169.3854,49,120,42
169.39003,169.49652,47,120,42
169.50114,169.60762,45,120,42
169.61226,170.49652,50,120,42
170.50114,170.71873,51,120,42
170.72337,170.82985,54,120,42
170.83447,170.94096,52,120,42
170.94559,171.16318,51,120,42
171.16782,171.27429,49,120,42
171.27892,171.3854,47,120,42
171.39003,171.49652,52,120,42
171.61226,171.71873,52,120,42
171.72336,171.82985,54,120,42
171.83447,171.94096,55,120,42
172.0567,172.16318,55,120,42
172.16782,172.27429,57,120,42
172.27892,172.3854,59,120,42
172.50114,172.60762,61,120,42
172.61226,172.71873,63,120,42
172.72336,172.77892,64,120,42
172.77892,172.83447,66,120,42
172.83447,172.89003,64,120,42
172.89003,172.94559,66,120,42
172.94559,173.01965,64,120,42
173.01965,173.09373,63,120,42
173.09373,173.1678,64,120,42
173.1678,174.94095,62,120,42
174.94559,175.05206,60,120,42
175.1678,175.27429,48,120,42
175.27892,175.38539,50,120,42
175.39003,175.4965,52,120,42
175.61224,175.71873,53,120,42
175.72336,175.82985,55,120,42
175.83447,175.94095,57,120,42
176.05669,176.16318,57,120,42
176.1678,176.27429,59,120,42
176.27892,176.33447,60,120,42
176.33447,176.39003,62,120,42
176.39003,176.44559,60,120,42
176.44559,176.50114,62,120,42
176.50114,176.57521,60,120,42
176.57521,176.64929,59,120,42
176.64929,176.72336,60,120,42
176.72336,178.4965,59,120,42
178.50113,178.71873,57,120,42
180.05669,180.27428,57,120,42
180.27892,180.4965,55,120,42
181.83447,182.05206,55,120,42
182.05669,182.27428,54,120,42
182.94557,183.16316,52,120,42
183.83446,184.05206,51,120,42
184.72336,184.94095,52,120,42
184.94557,185.16316,64,120,42
185.1678,185.38539,48,120,42
185.39001,185.6076,60,120,42
185.61224,185.82983,59,120,42
185.83446,185.94095,63,120,42
185.94557,186.05205,64,120,42
186.05669,186.71872,66,120,42
186.72334,186.82983,64,120,42
186.83446,186.94095,63,120,42
186.94557,187.16316,64,120,42
187.1678,187.38539,60,120,42
187.39001,187.6076,59,120,42
187.61224,187.82983,59,120,42
187.83446,188.05205,59,120,42
188.05669,188.27428,59,120,42
188.2789,188.49649,59,120,42
188.50113,188.71872,59,120,42
188.72334,188.94093,59,120,42
188.94557,189.16316,59,120,42
189.16779,189.38539,59,120,42
190.79996,191.04475,47,70,42
191.04996,191.26756,52,70,42
191.49442,191.712,52,70,42
191.71663,191.93422,47,70,42
192.3833,192.60089,59,70,42
192.60551,192.8231,51,70,42
193.27219,193.48978,59,70,42
193.4944,193.712,52,70,42
194.16107,194.37866,60,70,42
194.3833,194.60089,57,70,42
195.04996,195.26755,45,70,42
195.27219,195.48978,41,70,42
195.93884,196.15643,47,70,42
196.16107,196.37866,52,70,42
196.82774,197.04533,47,70,42
197.04996,197.26755,51,70,42
197.27219,197.48978,52,70,42
197.4944,197.71199,55,74,42
197.71663,197.93422,59,78,42
197.93884,198.15643,64,83,42
198.16107,198.37866,55,97,42
198.38329,198.60088,59,102,42
198.60551,198.8231,64,106,42
198.82773,199.04533,67,110,42
199.04996,199.26755,66,80,42
199.27217,199.48978,69,80,42
199.71663,199.93422,69,80,42
199.93884,200.15643,67,80,42
200.16107,200.37866,71,80,42
200.60551,200.8231,71,80,42
200.82773,201.04532,69,80,42
201.04996,201.26755,72,80,42
201.4944,201.71199,72,80,42
201.71661,201.93422,60,80,42
201.93884,202.15643,65,80,42
202.16106,202.37866,69,80,42
202.38329,202.60088,72,80,42
202.60551,202.8231,71,80,42
202.82773,203.04532,67,80,42
203.27217,203.48976,67,80,42
203.4944,203.71199,69,80,42
203.71661,203.9342,66,80,42
204.16106,204.37865,66,80,42
204.38329,204.60088,67,80,42
204.6055,204.8231,64,90,42
205.27217,206.15643,45,110,42
206.16106,207.04532,43,110,42
207.04994,207.96822,41,110,42
207.97302,208.944,36,110,42
208.94922,209.17517,45,70,42
209.17998,209.40594,48,70,42
209.41075,209.63672,53,70,42
209.64153,209.86748,57,70,42
209.87228,210.09825,55,70,42
210.10306,210.32903,52,70,42
210.56459,210.79056,52,70,42
210.79536,211.02133,54,70,42
211.02614,211.25209,47,70,42
211.48767,211.71364,47,70,42
211.71844,211.9444,52,70,42
212.62442,213.50868,45,110,42
213.5133,214.39757,43,110,42
214.4022,215.28645,41,110,42
215.29109,216.23552,36,110,42
216.24072,216.46667,45,70,42
216.4715,216.69745,48,70,42
216.70226,216.92822,53,70,42
216.93303,217.159,57,70,42
217.1638,217.38976,55,70,42
217.39456,217.62053,52,70,42
217.85611,218.08206,52,70,42
218.08687,218.31284,54,70,42
218.31764,218.54361,47,70,42
218.77917,219.00514,47,70,42
219.00995,219.89421,40,50,42
219.89883,220.7831,40,50,42
220.78772,221.67198,40,50,42
221.67662,222.56087,40,50,42
222.5655,222.7831,40,50,42
225.00995,225.11642,52,50,42
225.12105,225.22754,54,50,42
225.23216,225.33865,55,50,42
228.56549,228.67198,52,50,42
228.6766,228.78308,53,50,42
228.78772,228.8942,55,50,42
229.45438,229.56087,50,50,42
229.56549,229.67198,52,50,42
229.6766,229.78308,53,50,42
231.23216,231.33864,47,50,42
231.34328,231.44975,48,50,42
231.45438,231.56087,50,50,42
233.00993,233.11641,43,50,42
233.12105,233.22752,45,50,42
233.23216,233.33864,47,50,42
233.89882,234.00531,45,50,42
234.00993,234.11641,47,50,42
234.12105,234.22752,48,50,42
234.7877,234.8942,47,50,42
234.89882,235.00531,48,50,42
235.00993,235.11641,50,50,42
235.6766,235.78308,48,50,42
235.7877,235.8942,50,50,42
235.89882,236.0053,52,50,42
236.56549,236.67197,50,50,42
236.6766,236.78308,52,50,42
236.7877,236.8942,53,50,42
237.45438,237.56085,38,50,42
237.56549,237.67197,40,50,42
237.67659,237.78308,41,50,42
238.34326,238.44974,38,50,42
238.45438,238.56085,40,50,42
238.56549,238.67197,41,50,42
239.23215,239.33864,38,50,42
239.34326,239.44974,40,50,42
239.45438,239.56085,41,50,42
240.12103,240.22752,38,50,42
240.23215,240.33864,40,50,42
240.34326,240.44974,42,50,42
240.56548,240.67197,38,53,42
240.67659,240.78308,40,54,42
240.7877,240.89418,41,56,42
241.00993,241.11641,38,59,42
241.12103,241.22752,40,61,42
241.23215,241.33862,41,63,42
241.45438,241.56085,38,66,42
241.56548,241.67197,40,68,42
241.67659,241.78308,41,69,42
241.89882,242.0053,38,73,42
242.00993,242.11641,40,74,42
242.12103,242.22752,41,76,42
242.34326,242.44974,38,79,42
242.45438,242.56085,40,81,42
242.56548,242.67197,41,82,42
242.7877,242.89418,38,86,42
242.89882,243.0053,40,87,42
243.00992,243.1205,41,89,42
243.1253,243.23589,38,91,42
243.24069,243.35127,40,92,42
243.35608,243.46666,41,94,42
243.47147,243.58556,43,96,42
243.59052,243.7046,41,97,42
243.70956,243.82935,40,99,42
243.83456,243.95435,38,100,42
243.95956,244.06604,36,110,42
244.2929,244.39937,48,70,42
244.404,244.51048,48,70,42
244.73734,244.84381,48,70,42
244.84845,244.95493,48,70,42
245.18178,245.28825,48,70,42
245.2929,245.39937,48,70,42
245.62622,245.73271,48,70,42
245.73734,245.84381,48,70,42
246.07066,246.17715,60,70,42
246.18178,246.28825,60,70,42
246.5151,246.6216,60,70,42
246.62622,246.7327,60,70,42
246.95955,247.06604,60,70,42
247.07066,247.17715,60,70,42
247.40399,247.51048,60,70,42
247.5151,247.6216,60,70,42
247.84845,247.95493,60,70,42
247.95955,248.06604,60,70,42
248.2929,248.39937,60,70,42
248.40399,248.51048,60,70,42
248.73734,248.84381,60,70,42
248.84843,248.95493,60,70,42
249.18178,249.28825,60,70,42
249.2929,249.39937,60,70,42
249.62622,249.7327,60,70,42
249.73734,249.84381,59,70,42
250.07066,250.17714,59,70,42
250.18178,250.28825,59,70,42
250.5151,250.62158,59,77,42
250.62622,250.7327,59,80,42
250.95955,251.06602,59,87,42
251.07066,251.18124,52,90,42
251.41681,251.52739,52,98,42
251.5322,251.64629,50,100,42
251.8953,252.01509,50,108,42
252.0203,252.12677,48,110,42
252.35362,252.46011,48,70,42
252.46474,252.57121,48,70,42
252.79807,252.90456,48,70,42
252.90918,253.01567,48,70,42
253.24252,253.349,48,70,42
253.35362,253.46011,48,70,42
253.68697,253.79344,48,70,42
253.79807,253.90456,48,70,42
254.13141,254.23788,48,70,42
254.24251,254.349,48,70,42
254.57585,254.68233,48,70,42
254.68697,254.79344,48,70,42
255.0203,255.12677,48,70,42
255.13141,255.23788,48,70,42
255.46474,255.57121,48,70,42
255.57585,255.68233,48,70,42
255.90918,256.01566,48,70,42
256.0203,256.12677,48,70,42
256.35364,256.4601,48,70,42
256.46472,256.57123,48,70,42
256.79807,256.90454,48,70,42
256.90918,257.01566,48,70,42
257.24252,257.349,48,70,42
257.35364,257.4601,48,70,42
257.68695,257.79343,48,72,42
257.79807,257.90454,47,73,42
258.1314,258.23788,47,75,42
258.24252,258.349,47,76,42
258.57584,258.6823,47,79,42
258.68695,258.79343,45,80,42
259.0203,259.12677,45,82,42
259.1314,259.23788,45,83,42
259.46472,259.57123,45,86,42
259.57584,259.68002,43,87,42
259.90192,260.0061,43,89,42
260.01062,260.11478,54,90,42
260.3367,260.4409,54,93,42
260.4454,260.54956,52,93,42
260.77148,260.87567,52,96,42
260.8802,260.98434,48,97,42
261.20627,261.31046,48,99,42
261.31497,261.41913,47,100,42
261.64105,261.74524,47,103,42
261.74976,261.8539,45,104,42
262.07584,262.18,45,106,42
262.18454,262.2887,47,107,42
262.51062,262.61478,47,110,42
262.61932,262.83218,52,110,42
263.0541,263.26697,55,110,42
263.4889,263.70175,54,110,42
263.92368,264.13654,52,110,42
264.35846,264.57132,48,110,42
264.7932,265.0061,47,110,42
265.228,265.44086,45,110,42
265.66278,265.87564,47,110,42
266.09756,266.31042,52,110,42
266.96713,267.18,47,110,42
267.8367,268.04956,40,110,42
268.70627,268.91913,47,110,42
269.57584,269.7887,52,110,42
270.4454,270.54956,51,110,42
270.77148,270.87564,52,110,42
270.8802,270.98434,54,110,42
271.20627,271.31042,59,110,42
271.31497,271.52783,52,110,42
272.1845,272.2887,47,110,42
272.51062,272.61478,48,110,42
272.6193,272.72348,50,110,42
272.9454,273.04956,55,110,42
273.05408,273.26694,48,110,42
273.92365,274.0278,44,110,42
274.24973,274.3539,45,110,42
274.35843,274.4626,47,110,42
274.6845,274.7887,52,110,42
274.7932,275.00607,45,110,42
275.66278,275.87564,52,110,42
276.53235,276.7452,47,110,42
277.40192,277.61478,40,110,42
279.1652,279.38278,40,70,42
279.38742,279.4939,42,70,42
279.49854,279.605,44,70,42
279.60962,279.8272,45,70,42
279.83185,279.93832,47,70,42
279.94296,280.04944,44,70,42
280.05408,280.93832,45,70,42
280.94296,281.38278,47,70,42
281.38742,281.605,40,70,42
281.60962,281.8272,40,70,42
281.83185,282.93832,40,70,42
282.94296,283.04944,42,70,42
283.05408,283.16055,43,70,42
283.1652,283.38278,45,70,42
283.38742,283.4939,47,70,42
283.4985,283.605,43,70,42
283.60962,284.7161,45,70,42
284.72073,284.8272,46,70,42
284.83185,284.93832,48,70,42
284.94296,285.16055,50,70,42
285.1652,285.27167,46,70,42
285.2763,285.38278,45,70,42
285.3874,286.4939,43,70,42
286.4985,286.60498,52,69,42
286.60962,286.7161,53,69,42
286.72073,286.93832,55,68,42
286.94296,287.04944,52,67,42
287.05408,287.16055,49,66,42
287.1652,287.38278,50,66,42
287.3874,287.4939,50,65,42
287.4985,287.60498,52,64,42
287.60962,287.8272,53,64,42
287.83185,287.93832,50,62,42
287.94296,288.04944,48,62,42
288.05408,288.27167,47,61,42
288.27628,288.38278,50,60,42
288.3874,288.4939,52,59,42
288.4985,288.7161,53,59,42
288.72073,288.8272,50,58,42
288.83185,288.93832,47,57,42
288.94296,289.16055,48,57,42
289.1652,289.27167,48,55,42
289.27628,289.38278,50,55,42
289.3874,289.60498,52,54,42
289.60962,289.7161,48,53,42
289.72073,289.8272,47,52,42
289.83185,290.04944,46,52,42
290.05408,290.16055,46,51,42
290.1652,290.27167,47,50,42
290.27628,290.49387,49,50,42
290.4985,290.7161,47,50,42
290.72073,290.93832,47,50,42
291.60962,291.8272,47,50,42
292.4985,292.7161,47,50,42
293.3874,293.60498,47,50,42
294.27628,294.49387,59,50,42
295.16516,295.38275,59,50,42
296.05405,296.27167,59,50,42
296.94296,297.16055,59,50,42
297.60962,297.7161,63,50,42
297.72073,297.8272,64,50,42
297.83185,297.93832,66,50,42
298.16516,298.27164,64,54,42
298.27628,298.38275,63,56,42
298.4985,298.60498,66,59,42
298.60962,298.7161,67,61,42
298.72073,298.8272,69,63,42
299.05405,299.16055,67,68,42
299.16516,299.27164,66,69,42
299.3874,299.49387,64,73,42
299.4985,299.60498,66,74,42
299.60962,299.7161,67,76,42
299.94293,300.04944,66,81,42
300.05405,300.16052,64,82,42
300.27628,300.38275,67,86,42
300.3874,300.49387,69,87,42
300.4985,300.60498,71,89,42
300.83185,300.93832,69,94,42
300.94293,301.04944,67,96,42
301.3874,301.60498,57,110,42
302.97592,303.0957,41,120,42
303.10092,303.2207,43,120,42
303.22592,303.36966,45,120,42
303.6759,303.81967,43,120,42
303.8259,304.11966,41,120,42
305.62592,308.7324,47,70,42
308.73703,309.17682,46,100,42
309.18146,309.39905,45,110,42
310.80508,310.93576,41,120,42
310.94144,311.07214,43,120,42
311.07782,311.22156,45,120,42
311.5278,311.67157,43,120,42
311.67783,311.97156,41,120,42
313.4778,316.5843,47,70,42
316.58893,317.02875,46,75,42
317.03336,317.47318,45,80,42
317.4778,317.91763,44,85,42
317.92224,318.36206,43,90,42
318.3667,318.80652,42,95,42
318.81113,319.25095,41,100,42
319.25558,319.6954,40,105,42
319.70004,320.5843,39,110,42
320.58893,320.75095,40,96,42
320.81113,320.97318,40,91,42
321.4778,321.63983,48,71,42
321.7,321.86206,48,72,42
322.3667,322.52872,45,75,42
322.58893,322.75095,45,76,42
323.25558,323.41763,47,79,42
323.4778,323.63983,47,79,42
324.14447,324.25095,40,82,42
324.25558,324.36206,40,83,42
324.3667,324.47318,40,83,42
324.4778,324.5843,40,83,42
325.03336,325.13983,48,86,42
325.14447,325.25095,48,86,42
325.25558,325.36206,48,87,42
325.3667,325.47318,48,87,42
325.92224,326.02872,45,89,42
326.03336,326.13983,45,90,42
326.14447,326.25095,45,90,42
326.25558,326.36206,45,91,42
326.81113,326.9176,47,93,42
326.92224,327.02872,47,93,42
327.03336,327.13983,47,94,42
327.14447,327.25095,47,94,42
327.7,327.8065,52,97,42
327.81113,327.9176,52,97,42
327.92224,328.02872,52,97,42
328.03336,328.13983,52,98,42
328.14447,328.25095,52,98,42
328.25558,328.36206,52,99,42
328.3667,328.47318,52,99,42
328.47778,328.5843,52,100,42
328.5889,328.6954,52,100,42
328.7,328.8065,52,101,42
328.81113,328.9176,52,101,42
328.92224,329.02872,52,101,42
329.03336,329.13983,52,102,42
329.14447,329.25095,52,102,42
329.25558,329.36206,52,103,42
329.3667,329.47318,52,103,42
329.47778,329.5843,50,104,42
329.5889,329.6954,50,104,42
329.7,329.8065,50,105,42
329.81113,329.9176,50,105,42
329.92224,330.02872,50,106,42
330.03336,330.13983,50,106,42
330.14447,330.25095,50,106,42
330.25558,330.36206,50,107,42
330.3667,330.47726,43,107,42
330.48206,330.59265,43,108,42
330.59744,330.70804,43,108,42
330.71283,330.82343,43,109,42
330.82822,330.94232,43,109,42
330.94727,331.06137,43,110,42
331.0663,331.1861,43,110,42
331.1913,331.3111,43,110,42
331.3163,331.4228,48,120,42
331.3163,331.4228,36,120,42
331.64966,331.75613,48,120,42
331.64966,331.75613,36,120,42
331.76077,331.86493,48,120,42
331.76077,331.86493,36,120,42
332.08685,332.191,48,120,42
332.08685,332.191,36,120,42
332.19556,332.2997,48,120,42
332.19556,332.2997,36,120,42
332.52164,332.6258,48,120,42
332.52164,332.6258,36,120,42
332.63034,332.7345,48,120,42
332.63034,332.7345,36,120,42
332.95642,333.06058,48,120,42
332.95642,333.06058,36,120,42
333.0651,333.16928,48,120,42
333.0651,333.16928,36,120,42
333.3912,333.49536,48,120,42
333.3912,333.49536,36,120,42
333.49988,333.60406,48,120,42
333.49988,333.60406,36,120,42
333.826,333.93015,48,120,42
333.826,333.93015,36,120,42
333.93466,334.03885,48,120,42
333.93466,334.03885,36,120,42
334.26077,334.36493,48,120,42
334.26077,334.36493,36,120,42
334.36945,334.47363,48,120,42
334.36945,334.47363,36,120,42
334.69553,334.7997,48,120,42
334.69553,334.7997,36,120,42
334.80423,334.90842,48,120,42
334.80423,334.90842,36,120,42
335.1303,335.2345,48,120,42
335.1303,335.2345,36,120,42
335.239,335.34317,48,120,42
335.239,335.34317,36,120,42
335.5651,335.66928,48,120,42
335.5651,335.66928,36,120,42
335.6738,335.77795,48,120,42
335.6738,335.77795,36,120,42
335.99988,336.10406,48,120,42
335.99988,336.10406,36,120,42
336.10858,336.21274,48,120,42
336.10858,336.21274,36,120,42
336.43466,336.53885,48,120,42
336.43466,336.53885,36,120,42
336.54337,336.64752,48,120,42
336.86945,336.9736,48,120,42
336.97815,337.0823,47,120,42
337.30423,337.4084,47,120,42
337.41293,337.5171,47,120,42
337.739,337.84317,47,120,42
337.84772,337.95187,45,120,42
338.1738,338.27795,45,120,42
338.2825,338.38666,45,120,42
338.60858,338.71274,57,120,42
338.7173,338.82144,55,120,42
339.04337,339.14752,55,120,42
339.15207,339.25623,54,120,42
339.47815,339.5823,54,120,42
339.58685,339.691,52,120,42
339.91293,340.0171,52,120,42
340.0216,340.1258,48,120,42
340.34772,340.45187,48,120,42
340.4564,340.56058,47,120,42
340.7825,340.88666,47,120,42
340.89117,340.99765,45,120,42
341.22452,341.331,45,120,42
341.33563,341.4462,47,120,42
341.6864,341.8014,47,120,42
341.8064,342.0162,40,125,42
342.12784,342.2305,52,110,42
342.23495,342.3308,52,110,42
342.53497,342.6308,52,110,42
342.63498,342.81857,52,110,42
343.3588,343.43866,40,125,42
343.6088,343.68866,52,110,42
343.69214,343.772,52,110,42
343.94214,344.022,52,110,42
344.02548,344.18866,52,110,42
344.69214,344.772,40,125,42
344.94214,345.022,52,110,42
345.02545,345.10532,52,110,42
345.27545,345.35532,52,110,42
345.3588,345.522,52,110,42
346.02545,346.10532,40,125,42
346.27545,346.35532,52,110,42
346.3588,346.43866,52,110,42
346.6088,346.68866,52,110,42
346.6921,346.85532,52,110,42
347.27545,347.35532,52,110,42
347.3588,347.52197,52,125,42
347.9421,348.02197,47,110,42
348.02545,348.18866,52,125,42
348.6088,348.68863,47,110,42
348.6921,348.85532,52,125,42
349.27545,349.35532,47,120,42
349.35876,349.52197,52,120,42
349.9421,350.02197,48,120,42
350.02545,350.18863,53,120,42
350.60876,350.68863,50,120,42
350.6921,350.81363,55,120,42
350.9421,351.02197,52,120,42
351.02545,351.14697,57,120,42
351.27545,351.3553,54,120,42
351.35876,351.4803,59,120,42
351.60876,351.68863,55,120,42
351.6921,351.81363,60,120,42
351.9421,352.02197,57,120,42
352.02542,352.14697,62,120,42
352.27542,352.3553,59,120,42
352.35876,352.4803,52,120,42
352.60876,352.68863,59,120,42
352.6921,352.81363,52,120,42
352.9421,353.02197,59,120,42
353.02542,353.14697,52,120,42
353.27542,353.3553,59,120,42
353.35876,353.48593,52,120,42
353.6204,353.70398,47,120,42
353.7076,353.8394,52,120,42
353.9821,354.07193,47,120,42
354.07584,354.21255,52,120,42
354.3571,354.44693,47,120,42
354.45084,354.58755,52,120,42
354.7321,354.82193,47,120,42
354.82584,354.96255,52,120,42
355.1071,355.19693,47,120,42
355.20084,355.33755,40,120,42
355.4821,355.57193,47,120,42
355.57584,355.71255,40,120,42
355.8571,355.94693,47,120,42
355.95084,356.08755,40,120,42
356.2321,356.32193,47,120,42
356.32584,356.50943,40,120,42
356.70084,356.88443,47,120,42
357.07584,357.27167,52,120,42
357.47583,357.68564,47,120,42
357.9044,358.1142,52,120,42
358.76154,358.9875,47,120,42
359.6846,360.02594,40,127,42
