start_time,end_time,note_value,velocity,instrument_program_number
0.0,0.091265686,70,1,40
0.70484656,1.6944299,58,70,40
1.7048465,3.1944299,57,75,40
3.2048466,3.6944299,56,90,40
3.7048466,4.2293997,55,95,40
4.2405605,4.8280606,63,100,40
4.8405604,6.093338,62,80,40
6.107227,6.7600045,60,70,40
7.44056,8.430143,70,70,40
8.44056,9.930143,69,75,40
9.94056,10.430143,68,90,40
10.44056,10.965114,67,95,40
10.9762745,11.563774,69,100,40
11.576274,12.829052,69,80,40
12.84294,13.577315,70,70,40
14.8786545,15.403208,72,70,40
15.414369,16.474636,72,75,40
16.485796,17.01035,74,87,40
18.09294,18.617493,76,105,40
18.628653,21.296062,76,110,40
21.307222,21.595684,79,100,40
21.595684,21.915129,77,85,40
21.929018,23.05357,77,70,40
35.86538,36.389935,77,72,40
36.401093,36.925648,77,75,40
36.93681,37.46136,82,78,40
37.472523,38.037426,82,81,40
38.049446,38.661423,83,84,40
38.674446,39.198997,84,86,40
39.21016,39.478016,79,89,40
39.478016,39.745872,82,91,40
39.745872,40.270428,80,92,40
40.281586,40.549442,76,95,40
40.549442,40.8173,79,96,40
40.8173,41.341854,77,98,40
41.353016,41.877567,75,100,40
41.88873,42.41328,75,100,40
42.424442,42.948997,74,94,40
42.960155,43.48471,72,88,40
43.495872,44.020424,70,82,40
44.031586,44.59649,69,76,40
44.60851,45.220486,68,70,40
45.23351,45.886284,67,70,40
45.900173,46.257317,77,85,40
46.257317,46.656624,75,93,40
46.673985,49.663567,75,100,40
50.118427,50.22491,74,110,40
50.229538,50.33602,75,110,40
50.34065,50.447132,74,110,40
50.45176,50.558243,72,110,40
50.56287,50.669353,70,110,40
50.67398,50.780464,72,110,40
50.785095,50.891575,70,110,40
50.896206,51.002686,69,110,40
51.007317,51.113796,67,110,40
51.118427,51.224907,69,110,40
51.229538,51.336018,67,110,40
51.34065,51.44713,65,110,40
51.45176,51.558243,63,110,40
51.56287,51.669353,65,110,40
51.67398,51.780464,63,110,40
51.78509,51.891575,62,110,40
51.896202,52.00678,60,110,40
52.01159,52.122166,62,110,40
52.126972,52.246765,60,100,40
52.251972,52.371765,58,90,40
52.376972,52.496765,58,70,40
52.501972,52.621765,57,70,40
52.626972,52.733456,55,70,40
52.738083,52.844566,57,70,40
52.849194,52.955677,60,70,40
52.960304,53.066788,65,70,40
53.071415,53.1779,69,70,40
53.182526,53.28901,70,70,40
53.29364,53.40012,72,70,40
53.40475,53.51123,71,70,40
53.51586,53.62234,72,80,40
53.626972,53.73345,74,90,40
53.738083,53.844563,75,110,40
53.849194,53.955673,77,110,40
53.960304,54.066788,75,110,40
54.071415,54.1779,74,110,40
54.182526,54.28901,72,110,40
54.293636,54.40012,74,110,40
54.404747,54.51123,72,110,40
54.515858,54.62234,70,110,40
54.626972,54.73345,69,110,40
54.738083,54.844563,70,110,40
54.849194,54.955673,69,110,40
54.960304,55.066784,67,110,40
55.071415,55.177895,65,110,40
55.182526,55.289005,67,110,40
55.293636,55.40012,65,110,40
55.404747,55.51123,63,110,40
55.515858,55.628162,62,110,40
55.633045,55.74535,63,110,40
55.750233,55.870026,62,100,40
55.875233,55.995026,60,90,40
56.000233,56.11432,60,70,40
56.11928,56.233368,58,70,40
56.238327,56.34481,57,70,40
56.349438,56.45592,58,70,40
56.460552,56.56703,62,70,40
56.571663,56.678143,65,70,40
56.682774,56.789253,70,71,40
56.793884,56.900364,74,73,40
56.904995,57.011475,77,74,40
57.016106,57.122585,79,76,40
57.127216,57.2337,77,78,40
57.238327,57.34481,75,79,40
57.349438,57.45592,74,81,40
57.46055,57.56703,75,83,40
57.57166,57.678143,74,84,40
57.68277,57.789253,72,86,40
57.793884,57.900364,70,88,40
57.904995,58.011475,69,89,40
58.016106,58.122585,70,91,40
58.127216,58.233696,72,92,40
58.238327,58.344807,74,94,40
58.349438,58.455917,75,96,40
58.46055,58.567028,77,97,40
58.57166,58.678143,79,99,40
58.68277,58.79167,81,101,40
58.796406,58.905308,82,102,40
58.91004,59.022346,84,104,40
59.02723,59.139534,86,106,40
59.144417,59.32671,87,107,40
59.394417,59.613167,86,110,40
59.69442,60.684002,89,110,40
68.23013,69.2904,69,70,40
69.30156,70.361824,67,70,40
70.372986,71.56189,84,82,40
71.57491,73.60616,82,94,40
73.62036,74.969795,74,84,40
74.984,77.24705,72,70,40
77.91834,78.024826,72,110,40
78.02946,78.13593,71,110,40
78.140564,78.24705,72,110,40
78.25168,78.358154,70,110,40
78.362785,78.802605,69,110,40
78.80723,79.13593,77,110,40
79.25168,79.580376,77,110,40
79.69612,79.92561,77,110,40
79.9305,80.175285,77,100,40
80.1805,81.53697,82,70,40
82.43049,82.75919,79,110,40
82.87494,83.203636,79,110,40
83.31938,83.548874,79,110,40
83.55376,83.798546,79,100,40
83.80376,85.16023,84,70,40
88.72042,88.8269,86,110,40
88.83153,88.93801,87,110,40
88.94264,89.04912,86,110,40
89.05375,89.16023,84,110,40
89.16486,89.27134,82,110,40
89.27597,89.382454,84,110,40
89.387085,89.49356,82,110,40
89.49819,89.604675,81,110,40
89.60931,89.71579,79,110,40
89.72041,89.8269,81,110,40
89.83153,89.93801,79,110,40
89.942635,90.04912,77,110,40
90.05375,90.16023,75,110,40
90.16486,90.27134,77,110,40
90.27597,90.382454,75,110,40
90.387085,90.49356,74,110,40
90.49819,90.60877,72,110,40
90.61358,90.72415,74,110,40
90.728966,90.84305,72,100,40
90.84801,90.9621,70,90,40
90.96706,91.08115,70,70,40
91.086105,91.200195,69,70,40
91.205154,91.31163,67,70,40
91.31626,91.422745,69,70,40
91.427376,91.53385,72,70,40
91.53848,91.644966,77,70,40
91.6496,91.75608,81,70,40
91.760704,91.86719,82,70,40
91.87182,91.9783,84,70,40
91.982925,92.08941,82,70,40
92.09404,92.20052,84,80,40
92.205154,92.31163,86,90,40
92.31626,92.422745,87,110,40
92.427376,92.53385,89,110,40
92.53848,92.644966,87,110,40
92.6496,92.75607,86,110,40
92.760704,92.86719,84,110,40
92.87182,92.9783,86,110,40
92.982925,93.08941,84,110,40
93.09404,93.20052,82,110,40
93.20515,93.31163,81,110,40
93.31626,93.422745,82,110,40
93.427376,93.53385,81,110,40
93.53848,93.644966,79,110,40
93.6496,93.75607,77,110,40
93.760704,93.86719,79,110,40
93.87182,93.978294,77,110,40
93.982925,94.08941,75,110,40
94.09404,94.20461,74,110,40
94.20942,94.32,75,110,40
94.32481,94.440735,74,100,40
94.44578,94.5617,72,90,40
94.56674,94.68267,72,70,40
94.687706,94.803635,70,70,40
94.80868,94.91516,69,70,40
94.919785,95.02627,70,70,40
95.0309,95.13738,74,70,40
95.14201,95.24849,77,70,40
95.25312,95.359604,81,70,40
95.364235,95.47071,82,70,40
95.47534,95.581825,72,70,40
95.58646,95.69293,70,71,40
95.69756,95.80405,69,72,40
95.80868,95.91516,70,73,40
95.919785,96.02627,74,74,40
96.0309,96.13738,77,75,40
96.142006,96.24849,79,76,40
96.25312,96.359604,80,77,40
96.36423,96.47071,72,78,40
96.47534,96.581825,71,79,40
96.58646,96.69293,70,80,40
96.69756,96.80405,71,81,40
96.80868,96.91515,74,82,40
96.919785,97.02627,77,83,40
97.0309,97.137375,79,84,40
97.142006,97.24849,80,85,40
97.25312,97.359604,79,86,40
97.36423,97.47071,81,87,40
97.47534,97.581825,83,88,40
97.58645,97.69293,84,89,40
97.69756,97.80405,86,91,40
97.80868,97.91515,87,92,40
97.919785,98.02627,89,93,40
98.0309,98.137375,91,94,40
98.142006,98.30405,89,95,40
98.36423,98.52627,91,97,40
98.58645,98.74849,93,99,40
98.80867,98.97071,94,101,40
99.03089,99.13979,79,103,40
99.14453,99.25343,77,104,40
99.25817,99.367065,76,105,40
99.3718,99.480705,77,106,40
99.48544,99.59775,81,107,40
99.60263,99.714935,84,108,40
99.71982,99.83574,87,109,40
99.84078,99.96057,81,110,40
99.96578,100.08557,86,110,40
100.21578,100.3269,85,110,40
100.3269,100.438,87,110,40
100.438,100.54449,86,110,40
100.660225,100.77134,81,110,40
100.77134,100.88245,84,110,40
100.88245,100.98893,82,110,40
101.10467,101.21578,77,100,40
101.21578,101.32689,80,95,40
101.32689,101.43337,79,90,40
101.54912,101.660225,74,80,40
101.660225,101.77134,77,75,40
101.77134,101.98893,75,70,40
102.88245,102.99356,76,70,40
102.99356,103.10467,79,70,40
103.10467,103.21578,77,70,40
103.32689,103.438,72,70,40
103.438,103.54911,75,70,40
103.54911,103.660225,74,110,40
103.77133,103.88245,85,110,40
103.88245,103.99355,87,110,40
103.99355,104.10467,86,110,40
104.21578,104.377815,63,110,40
104.438,104.60004,65,110,40
104.660225,104.77133,77,99,40
104.77133,104.88245,80,93,40
104.88245,105.04448,79,87,40
105.10467,105.2667,70,76,40
105.32689,105.54448,70,70,40
106.437996,106.54911,76,88,40
106.54911,106.66022,79,92,40
106.66022,106.82226,77,97,40
106.88245,107.04448,77,106,40
107.10467,107.54448,86,110,40
107.99355,108.10004,84,110,40
108.10466,108.21114,82,110,40
108.215775,108.32226,81,110,40
108.32689,108.433365,79,110,40
108.437996,108.54448,81,110,40
108.54911,108.65559,82,110,40
108.66022,108.7667,84,110,40
108.77133,108.87781,86,110,40
108.88244,109.32226,86,110,40
109.77133,109.87781,84,110,40
109.88244,109.98892,82,110,40
109.99355,110.10003,81,110,40
110.10466,110.21114,79,110,40
110.215775,110.32225,81,110,40
110.32688,110.433365,82,110,40
110.437996,110.54448,84,110,40
110.5491,110.65559,86,110,40
110.66022,110.82225,86,125,40
110.88244,110.98892,82,110,40
110.99355,111.10003,81,110,40
111.10466,111.21114,82,110,40
111.215775,111.32225,84,110,40
111.32688,111.433365,86,110,40
111.437996,111.54447,87,110,40
111.5491,111.71114,86,125,40
111.771324,111.87781,79,110,40
111.88244,111.98892,78,110,40
111.993546,112.10003,79,110,40
112.10466,112.21114,81,110,40
112.21577,112.32225,82,110,40
112.32688,112.433365,84,110,40
112.437996,112.60003,82,125,40
112.66022,112.76669,76,110,40
112.771324,112.87781,74,110,40
112.88244,112.988914,76,110,40
112.993546,113.10003,77,110,40
113.10466,113.21114,79,110,40
113.21577,113.32225,81,110,40
113.32688,113.488914,82,125,40
113.5491,113.65559,82,110,40
113.66022,113.76669,81,110,40
113.771324,113.87781,82,110,40
113.88244,113.988914,84,110,40
113.993546,114.10003,86,110,40
114.10466,114.211136,88,110,40
114.21577,114.37781,89,110,40
114.43799,114.60003,84,110,40
114.66021,114.82225,81,125,40
114.88243,115.04447,77,110,40
115.10466,115.26669,75,125,40
115.32688,115.488914,72,110,40
115.5491,115.711136,69,125,40
115.771324,115.93336,65,110,40
115.993546,116.15558,63,125,40
116.21577,116.3778,62,110,40
116.43799,116.60003,65,125,40
116.66021,116.82225,70,110,40
116.88243,117.04447,74,125,40
117.10465,117.26669,77,110,40
117.32687,117.488914,82,125,40
117.549095,117.711136,76,110,40
117.771324,118.06762,77,110,40
118.21577,118.51206,84,110,40
118.66021,119.766685,89,127,40
119.77132,119.93336,62,110,40
119.99354,120.15558,65,125,40
120.21576,120.3778,70,110,40
120.43799,120.60002,74,125,40
120.66021,120.82224,77,110,40
120.88243,121.044464,82,125,40
121.10465,121.266685,86,110,40
121.32687,121.43798,93,110,40
121.43798,121.98891,69,126,40
121.99354,122.21113,70,110,40
122.21576,122.766685,72,125,40
122.77132,122.8778,74,110,40
122.88242,122.98891,76,110,40
122.99354,123.10002,77,110,40
123.104645,123.65557,79,125,40
123.6602,123.766685,77,110,40
123.77132,123.87779,76,110,40
123.88242,123.98891,74,110,40
123.99354,124.21113,72,110,40
124.21576,124.43335,70,110,40
124.43798,124.65557,69,110,40
124.6602,124.87779,67,110,40
124.88242,125.10001,65,110,40
125.326866,125.544464,66,105,40
125.77131,125.98891,67,100,40
126.21576,126.43335,68,94,40
126.6602,126.87779,69,88,40
127.104645,127.32718,70,82,40
127.55919,127.79233,71,76,40
128.03539,128.28017,72,70,40
128.53539,129.86407,73,70,40
132.09093,132.97519,58,70,40
132.97981,133.86407,66,70,40
133.86871,134.24371,65,70,40
134.31316,134.68816,63,70,40
134.7576,135.1326,61,70,40
135.20204,135.57704,59,70,40
135.64648,136.0863,58,70,40
136.09093,136.75296,61,70,40
139.20204,140.08629,70,110,40
140.09093,140.97519,78,110,40
140.97981,141.35481,77,70,40
141.42426,141.79926,75,80,40
141.8687,142.2437,73,90,40
142.31314,142.68814,72,100,40
142.75758,143.64185,71,70,40
143.64647,144.53073,70,70,40
144.53537,145.43971,68,70,40
145.44446,146.40715,68,70,40
146.4122,147.07423,68,70,40
147.07886,147.29645,70,70,40
147.30109,147.74089,71,70,40
148.20007,148.9094,66,70,40
148.91435,149.15915,68,70,40
149.16435,149.65915,70,70,40
149.77547,149.85417,70,50,40
149.88658,149.96529,69,50,40
149.9977,150.07639,67,50,40
150.1088,150.54861,65,50,40
150.66435,150.74306,66,50,40
150.77547,150.85417,65,50,40
150.88658,150.96529,63,50,40
150.99768,151.4375,61,50,40
151.55324,151.63194,71,50,40
151.66435,151.74306,70,50,40
151.77547,151.85417,68,50,40
151.88658,152.32639,70,50,40
153.33102,153.40973,66,50,40
153.44212,153.52083,65,50,40
153.55324,153.63194,63,50,40
153.66435,154.10417,62,50,40
154.21991,154.29861,63,50,40
154.33102,154.40971,61,50,40
154.44212,154.52083,59,50,40
154.55324,154.99306,58,50,40
155.1088,155.1875,68,50,40
155.21991,155.29861,66,50,40
155.33102,155.40971,65,50,40
155.44212,155.88194,66,50,40
155.99768,156.07639,65,50,40
156.1088,156.1875,63,51,40
156.21991,156.29861,61,52,40
156.33101,156.77083,60,53,40
156.88657,156.96527,70,59,40
156.99768,157.07639,68,60,40
157.1088,157.1875,66,61,40
157.21991,157.65971,65,62,40
157.77545,157.85416,75,68,40
157.88657,157.96527,73,69,40
157.99768,158.07639,71,71,40
158.1088,158.5486,70,72,40
158.66435,158.74306,78,78,40
158.77545,158.85416,77,79,40
158.88657,158.96527,78,80,40
158.99768,159.4375,68,81,40
159.55751,159.63924,75,87,40
159.6729,159.75462,74,88,40
159.78828,159.87396,75,89,40
159.90924,160.38808,65,90,40
160.39311,160.50423,82,50,40
160.50423,160.61534,83,50,40
160.61534,160.72644,82,50,40
160.72644,160.83755,80,50,40
160.83755,160.94867,82,50,40
160.94867,161.05978,83,50,40
161.05978,161.1709,82,50,40
161.1709,161.282,80,50,40
161.282,161.39311,78,50,40
161.39311,161.50423,80,50,40
161.50423,161.61534,78,50,40
161.61534,161.72182,77,50,40
161.72644,161.83755,77,50,40
161.83755,161.94867,78,50,40
161.94867,162.05978,77,50,40
162.05978,162.17088,75,50,40
162.17088,162.282,73,50,40
162.282,162.39311,75,50,40
162.39311,162.50423,73,50,40
162.50423,162.61534,72,50,40
162.61534,162.72644,71,50,40
162.72644,162.83755,73,53,40
162.83755,162.94867,71,57,40
162.94867,163.05978,70,61,40
163.05978,163.17088,68,65,40
163.17088,163.282,70,69,40
163.282,163.39311,68,73,40
163.39311,163.50423,66,77,40
163.50423,163.61533,65,81,40
163.61533,163.72644,66,85,40
163.72644,163.83755,65,89,40
163.83755,163.94867,63,93,40
163.94867,164.05978,61,96,40
164.05978,164.17088,63,100,40
164.17088,164.282,61,90,40
164.282,164.39311,59,80,40
164.39311,164.72182,58,70,40
164.83755,165.16626,70,70,40
165.282,165.6107,73,70,40
165.72644,166.05515,73,70,40
166.17088,166.6107,75,70,40
166.61533,167.05515,77,79,40
167.05977,167.49959,78,89,40
167.50421,167.94403,80,98,40
167.94867,168.27736,78,70,40
168.39311,168.72182,80,70,40
168.83755,169.17372,73,70,40
169.2921,169.64998,77,70,40
170.25241,170.36353,71,70,40
170.36353,170.47464,73,70,40
170.47464,170.58574,71,70,40
170.58574,170.69685,70,70,40
170.69685,171.02556,68,70,40
171.1413,171.47,68,70,40
171.58574,171.69685,70,70,40
171.69685,171.80797,82,70,40
171.80797,171.91908,80,70,40
171.91908,172.03018,78,70,40
172.03018,172.1413,77,70,40
172.1413,172.25241,78,70,40
172.25241,172.36353,77,70,40
172.36353,172.47464,75,70,40
172.47464,172.58574,73,70,40
172.58574,172.69685,75,70,40
172.69685,172.80797,73,70,40
172.80797,172.91908,71,70,40
172.91908,173.03018,70,70,40
173.03018,173.1413,71,70,40
173.1413,173.25241,70,70,40
173.25241,173.36353,68,70,40
173.36353,173.80333,66,70,40
178.25241,178.36351,78,70,40
178.36351,178.47462,80,70,40
178.47462,178.58574,78,70,40
178.58574,178.69221,77,70,40
178.69685,178.80795,77,70,40
178.80795,178.91907,78,70,40
178.91907,179.03018,77,70,40
179.03018,179.1413,75,70,40
179.1413,179.25241,73,70,40
179.25241,179.36351,75,70,40
179.36351,179.47462,73,70,40
179.47462,179.5811,71,70,40
179.58574,179.69685,71,70,40
179.69685,179.80795,70,70,40
179.80795,179.91907,68,70,40
179.91907,180.03018,66,70,40
180.03018,180.1413,83,70,40
180.1413,180.2524,85,70,40
180.2524,180.36351,83,70,40
180.36351,180.47462,82,70,40
180.47462,180.80333,80,70,40
180.91907,181.03018,82,72,40
181.03018,181.1413,83,72,40
181.1413,181.2524,82,73,40
181.2524,181.36351,80,73,40
181.36351,181.69221,78,74,40
181.80795,181.91907,80,76,40
181.91907,182.03018,82,76,40
182.03018,182.1413,80,77,40
182.1413,182.2524,78,77,40
182.2524,182.36351,77,78,40
182.36351,182.47462,75,78,40
182.47462,182.58574,73,79,40
182.58574,182.69684,72,79,40
182.69684,182.85889,70,80,40
182.91907,183.0811,82,81,40
183.14128,183.2524,84,82,40
183.2524,183.36351,85,82,40
183.36351,183.47462,84,83,40
183.47462,183.58574,82,84,40
183.58574,183.74777,81,84,40
183.80795,183.96999,89,85,40
184.03018,184.19221,70,86,40
184.2524,184.41443,77,87,40
184.47462,185.13666,78,88,40
185.14128,185.30333,78,91,40
185.36351,185.52554,80,92,40
185.58572,185.74777,82,93,40
185.80795,185.96999,83,94,40
186.03018,186.19221,84,95,40
186.2524,186.91443,85,120,40
186.91907,187.0811,87,100,40
187.14128,187.80331,89,120,40
187.80795,187.96999,90,104,40
188.03017,188.69716,92,125,40
188.70189,188.87279,77,108,40
188.93626,189.11267,78,109,40
189.17819,189.36049,80,110,40
189.42819,190.34024,82,110,40
190.34486,191.22913,87,125,40
191.23375,192.11801,85,125,40
192.12263,193.0069,89,125,40
193.01154,193.89578,90,125,40
193.90042,194.78467,92,125,40
194.7893,194.95134,90,70,40
195.01152,195.17357,66,70,40
195.23375,195.45134,66,70,40
195.45598,195.67357,64,70,40
195.67819,195.89578,64,70,40
195.90042,196.11801,63,70,40
196.12263,196.28467,66,70,40
196.34486,196.5069,63,70,40
196.56708,196.78467,63,70,40
196.7893,197.0069,61,70,40
197.01152,197.17357,66,70,40
197.23375,197.39578,64,70,40
197.45596,197.67357,64,70,40
197.67819,197.89578,63,70,40
197.9004,198.06245,66,70,40
198.12263,198.28467,63,70,40
198.34486,198.56245,63,60,40
198.56708,198.78467,61,60,40
198.7893,198.95134,66,60,40
199.01152,199.17355,59,60,40
199.23375,199.45628,59,60,40
199.46101,199.6905,58,60,40
199.69539,199.87181,66,60,40
199.93733,200.11961,66,60,40
200.18733,200.78108,66,50,40
200.78732,202.77692,65,50,40
210.76749,211.09619,73,50,40
211.21193,211.55327,73,50,40
211.67346,211.85576,73,50,40
211.92346,212.12233,73,50,40
212.1962,213.68839,78,50,40
221.67635,222.00505,69,50,40
222.1208,222.47136,69,50,40
222.60156,222.80043,69,50,40
222.8743,223.09305,69,50,40
223.17429,224.66647,74,50,40
228.44572,228.9353,76,50,40
228.94572,231.20465,69,50,40
234.58467,235.02449,69,70,40
235.02911,235.46893,69,70,40
235.47356,235.63559,69,70,40
235.69579,235.85782,69,70,40
235.918,236.35782,74,70,40
241.69577,242.13559,74,70,40
242.14021,242.58003,74,70,40
242.58466,242.7467,74,70,40
242.80688,242.96892,74,70,40
243.0291,243.91336,86,70,40
247.0291,247.3578,79,70,40
247.47354,247.80225,79,70,40
247.91798,248.08003,79,70,40
248.14021,248.30225,79,70,40
248.36243,249.24669,84,70,40
252.36243,252.69113,74,70,40
252.80687,253.13557,74,70,40
253.25131,253.41336,74,70,40
253.47354,253.63557,74,70,40
253.69576,254.58002,79,70,40
257.69577,258.02448,74,70,40
258.1402,258.4689,74,70,40
258.58466,258.74667,74,70,40
258.80685,258.9689,74,70,40
259.02908,259.91336,86,70,40
261.2513,261.41336,74,70,40
261.47354,261.63556,74,70,40
261.69574,262.58002,86,70,40
263.02908,263.19113,74,70,40
263.2513,263.41333,74,70,40
263.47354,264.3578,86,70,40
265.69574,265.8578,79,70,40
265.91797,266.08002,79,70,40
266.1402,267.02444,79,110,40
267.02908,268.3578,91,110,40
268.36243,268.58002,89,100,40
268.58463,268.80222,87,96,40
268.80685,269.02444,86,92,40
269.02908,269.24667,84,88,40
269.2513,269.4689,87,84,40
269.4735,269.6911,84,80,40
269.69574,270.13556,79,70,40
271.91797,272.24667,79,70,40
272.3624,272.6911,79,70,40
272.80685,272.9689,79,70,40
273.02908,273.1911,79,70,40
273.25128,274.13556,84,70,40
275.4735,275.63556,79,65,40
275.69574,275.8578,79,62,40
275.91797,276.80222,84,59,40
277.25128,277.58,79,50,40
277.69574,278.03192,79,50,40
278.15027,278.32117,79,50,40
278.38464,278.56107,79,50,40
278.6266,279.52795,79,70,40
279.53256,280.86127,91,63,40
280.8659,281.0835,89,82,40
281.08813,281.30573,87,86,40
281.31036,281.52795,86,89,40
281.53256,281.75015,84,92,40
281.7548,281.97238,82,96,40
281.97702,282.1946,84,99,40
282.19925,282.52795,86,110,40
282.64368,282.97238,82,110,40
283.08813,283.41684,82,110,40
283.53256,283.70084,82,110,40
283.76334,283.94562,82,100,40
284.01334,285.3698,87,70,40
286.26334,286.59204,84,110,40
286.7078,287.0365,84,110,40
287.15222,287.3205,84,110,40
287.383,287.56528,84,100,40
287.633,288.98947,89,70,40
288.9941,289.1006,89,70,40
289.10522,289.2117,91,71,40
289.21634,289.3228,89,73,40
289.32742,289.43393,87,75,40
289.43854,289.54504,74,76,40
289.54965,289.65613,79,78,40
289.66077,289.76724,77,80,40
289.77188,289.87836,75,82,40
289.883,289.98947,86,83,40
289.9941,290.1006,84,85,40
290.10522,290.2117,82,87,40
290.21634,290.3228,81,88,40
290.32742,290.43393,79,90,40
290.43854,290.545,77,92,40
290.54965,290.65613,77,94,40
290.66077,290.76724,77,95,40
290.77188,290.93393,77,97,40
290.9941,291.15613,77,100,40
291.2163,291.65613,77,110,40
291.66077,291.8228,77,110,40
291.883,292.045,79,110,40
292.10522,292.545,79,110,40
292.54965,292.7117,76,110,40
292.77188,292.93393,75,110,40
292.9941,293.4339,80,110,40
293.43854,293.6006,78,110,40
293.66077,293.8228,77,110,40
293.883,293.98947,82,110,40
293.9941,294.1006,84,110,40
294.10522,294.2117,82,110,40
294.2163,294.3228,80,110,40
294.32742,294.4339,79,110,40
294.43854,294.545,80,110,40
294.54965,294.65613,79,110,40
294.66077,294.76724,77,110,40
294.77188,294.87836,75,110,40
294.883,294.98947,77,110,40
294.9941,295.1006,75,110,40
295.1052,295.2117,74,110,40
295.2163,295.3228,72,110,40
295.32742,295.4339,74,110,40
295.43854,295.545,72,110,40
295.54965,295.65613,70,110,40
295.66077,295.76724,68,110,40
295.77188,295.87836,70,110,40
295.883,295.98947,68,110,40
295.9941,296.1006,67,110,40
296.1052,296.2158,65,110,40
296.22058,296.33118,67,110,40
296.33597,296.45578,65,100,40
296.46097,296.58078,63,90,40
296.58597,296.71097,63,70,40
296.71097,296.83597,55,70,40
296.83597,296.94708,63,70,40
296.94708,297.0582,67,70,40
297.0582,297.1693,75,70,40
297.1693,297.28043,67,70,40
297.28043,297.39154,75,70,40
297.39154,297.50266,79,70,40
297.50266,297.61374,75,70,40
297.61374,297.72485,79,70,40
297.72485,297.83597,87,80,40
297.83597,297.94708,79,90,40
297.94708,298.11536,87,110,40
298.17786,298.54764,87,110,40
298.55286,298.65933,89,110,40
298.66397,298.77045,87,110,40
298.7751,298.88156,86,110,40
298.8862,298.99268,84,110,40
298.9973,299.1038,86,110,40
299.1084,299.2149,84,110,40
299.2195,299.326,82,110,40
299.33063,299.4371,80,110,40
299.44174,299.54822,82,110,40
299.55286,299.65933,80,110,40
299.66397,299.77045,79,110,40
299.7751,299.88565,77,110,40
299.89047,300.00104,79,110,40
300.00586,300.12564,77,100,40
300.13086,300.25064,75,90,40
300.25586,300.38086,63,70,40
300.38086,300.50586,60,70,40
300.50586,300.61694,57,70,40
300.61694,300.72806,60,70,40
300.72806,300.83917,63,70,40
300.83917,300.9503,66,70,40
300.9503,301.0614,69,70,40
301.0614,301.17252,72,70,40
301.17252,301.28363,75,70,40
301.28363,301.39474,78,70,40
301.39474,301.50586,77,70,40
301.50586,301.61234,75,70,40
301.61694,301.72806,75,70,40
301.72806,301.83917,74,71,40
301.83917,301.9503,77,72,40
301.9503,302.0614,74,73,40
302.0614,302.17252,77,74,40
302.17252,302.28363,79,75,40
302.28363,302.39474,81,76,40
302.39474,302.50583,82,77,40
302.50583,302.61694,84,79,40
302.61694,302.72806,86,80,40
302.72806,302.83917,87,81,40
302.83917,302.9503,89,82,40
302.9503,303.11234,91,83,40
303.17252,303.33453,92,85,40
303.39474,303.55676,94,88,40
303.61694,303.779,95,90,40
303.83917,304.05676,96,92,40
304.0614,304.17252,72,95,40
304.17252,304.28363,74,96,40
304.28363,304.39474,75,97,40
304.39474,304.50583,77,98,40
304.50583,304.61694,79,99,40
304.61694,304.72342,80,100,40
304.72806,304.83917,80,101,40
304.83917,304.9503,79,102,40
304.9503,305.0614,80,104,40
305.0614,305.17252,82,105,40
305.17252,305.28363,84,106,40
305.28363,305.3947,86,107,40
305.3947,305.50583,87,108,40
305.50583,305.61694,89,109,40
305.61694,305.72806,91,110,40
305.72806,305.83917,89,110,40
305.83917,305.9503,87,110,40
305.9503,306.0614,86,110,40
306.0614,306.17252,87,110,40
306.17252,306.28363,89,110,40
306.28363,306.3947,91,110,40
306.3947,306.50583,93,110,40
306.50583,306.66788,94,110,40
306.72806,306.83917,82,110,40
306.83917,306.9503,84,110,40
306.9503,307.0614,82,110,40
307.0614,307.17252,81,110,40
307.17252,307.28363,79,110,40
307.28363,307.3947,77,110,40
307.3947,307.50583,79,110,40
307.50583,307.61694,77,110,40
307.61694,307.72806,75,110,40
307.72806,307.83917,74,110,40
307.83917,307.9503,75,110,40
307.9503,308.0614,77,110,40
308.0614,308.17252,79,110,40
308.17252,308.28363,80,110,40
308.28363,308.44565,82,110,40
308.50583,308.61694,82,110,40
308.61694,308.72806,84,110,40
308.72806,308.83917,82,110,40
308.83917,308.9503,80,110,40
308.9503,309.0614,79,110,40
309.0614,309.17252,77,110,40
309.17252,309.33453,79,110,40
309.3947,309.50583,74,110,40
309.50583,309.61694,77,110,40
309.61694,309.779,75,110,40
309.83917,310.00122,63,110,40
310.0614,310.22342,63,104,40
310.72806,310.83917,77,85,40
310.83917,310.9503,80,75,40
310.9503,311.0614,78,70,40
311.0614,311.17252,77,70,40
311.17252,311.2836,75,70,40
311.2836,311.3947,74,70,40
311.3947,311.50583,75,70,40
311.50583,311.61694,77,70,40
311.61694,311.72806,78,70,40
311.72806,311.83917,80,70,40
311.83917,312.0012,82,70,40
312.0614,312.1725,82,70,40
312.1725,312.2836,83,70,40
312.2836,312.3947,82,70,40
312.3947,312.50583,80,70,40
312.50583,312.61694,78,70,40
312.61694,312.72806,77,70,40
312.72806,313.16788,75,70,40
313.61694,313.779,82,70,40
313.83917,313.9503,82,70,40
313.9503,314.0614,83,70,40
314.0614,314.1725,82,70,40
314.1725,314.2836,80,70,40
314.2836,314.3947,78,70,40
314.3947,314.50583,77,70,40
314.50583,314.66788,78,70,40
314.72806,314.83917,78,75,40
314.83917,314.9503,80,77,40
314.9503,315.0614,78,80,40
315.0614,315.1725,77,82,40
315.1725,315.2836,75,85,40
315.2836,315.3947,73,87,40
315.3947,315.55676,72,90,40
315.61694,315.72806,72,95,40
315.72806,315.83917,73,98,40
315.83917,315.9503,72,100,40
315.9503,316.06137,70,103,40
316.06137,316.1725,68,105,40
316.1725,316.2836,75,108,40
316.2836,316.72342,77,110,40
317.1725,317.2836,75,110,40
317.2836,317.3947,73,110,40
317.3947,317.50583,72,110,40
317.50583,317.61694,70,110,40
317.61694,317.72806,72,110,40
317.72806,317.83917,73,110,40
317.83917,317.9503,75,110,40
317.9503,318.05676,77,110,40
318.06137,318.5012,77,110,40
318.95026,319.06137,84,110,40
319.06137,319.1725,82,110,40
319.1725,319.2836,80,110,40
319.2836,319.3947,79,110,40
319.3947,319.50583,80,110,40
319.50583,319.61694,82,110,40
319.61694,319.72806,84,110,40
319.72806,319.83453,85,110,40
319.83917,320.0012,85,110,40
320.06137,320.1725,82,110,40
320.1725,320.2836,81,110,40
320.2836,320.3947,82,110,40
320.3947,320.50583,84,110,40
320.50583,320.61694,85,110,40
320.61694,320.72342,87,110,40
320.72806,320.89008,87,110,40
320.95026,321.06137,75,110,40
321.06137,321.1725,74,110,40
321.1725,321.2836,75,110,40
321.2836,321.3947,77,110,40
321.3947,321.50583,79,110,40
321.50583,321.6123,80,110,40
321.61694,321.91324,80,110,40
322.06137,322.35767,87,110,40
322.50583,325.39008,92,127,40
325.3947,325.55673,87,110,40
325.61694,325.77896,84,125,40
325.83914,326.0012,80,110,40
326.06137,326.22342,78,125,40
326.2836,326.44565,75,110,40
326.50583,326.66785,72,125,40
326.72803,326.89008,68,110,40
326.95026,327.1123,66,125,40
327.1725,327.33453,65,110,40
327.3947,327.55673,68,125,40
327.61694,327.77896,73,110,40
327.83914,328.0012,77,125,40
328.06137,328.22342,80,110,40
328.2836,328.44562,85,125,40
328.50583,328.66785,89,110,40
328.72803,329.16785,92,110,40
330.06137,330.27896,58,93,40
330.50583,330.72836,59,87,40
330.96036,331.18985,60,81,40
331.4291,331.66602,62,75,40
331.913,332.15778,63,70,40
332.413,333.74167,63,70,40
335.96854,336.85278,65,110,40
336.85742,337.74167,73,110,40
337.7463,338.1213,72,87,40
338.19077,338.56577,70,80,40
338.6352,339.0102,68,90,40
339.07965,339.45465,66,100,40
339.52408,339.9639,65,70,40
339.96854,340.63055,68,70,40
343.07965,343.9639,65,70,40
343.96854,344.85278,73,70,40
344.85742,345.23242,72,70,40
345.30185,345.67685,70,70,40
345.7463,346.1213,68,70,40
346.19073,346.56573,67,70,40
346.6352,347.51944,66,70,40
347.52408,348.40833,65,70,40
348.41296,349.2972,63,70,40
349.30185,350.1861,63,70,40
350.19073,351.075,63,70,40
351.07962,351.99805,61,70,40
352.00293,352.88718,61,82,40
352.8918,353.8102,61,94,40
353.8151,355.1438,60,70,40
360.9262,361.81046,77,70,40
361.8151,362.69937,86,78,40
362.70398,364.03268,89,87,40
364.03732,364.47714,93,100,40
364.48175,364.92157,94,86,40
364.9262,367.58823,89,74,40
367.59286,368.03268,88,100,40
368.03732,368.92157,87,70,40
368.9262,369.81046,86,80,40
369.8151,370.71945,84,90,40
370.72418,371.6869,84,100,40
371.69193,372.4127,84,70,40
372.41772,372.65463,86,70,40
372.65967,373.1385,87,70,40
373.6274,374.3722,82,70,40
374.3774,374.64444,84,70,40
374.65012,375.24387,86,70,40
375.36124,375.43994,74,50,40
375.47235,375.55106,72,50,40
375.58347,375.66217,70,50,40
375.69458,376.1344,69,50,40
376.25012,376.32883,70,50,40
376.36124,376.43994,69,50,40
376.47235,376.55106,67,50,40
376.58347,377.0233,65,50,40
377.139,377.2177,75,50,40
377.25012,377.32883,74,50,40
377.36124,377.43994,72,50,40
377.47235,377.91217,74,50,40
378.91678,378.99548,70,50,40
379.0279,379.1066,69,50,40
379.139,379.2177,67,50,40
379.25012,379.68994,66,50,40
379.80566,379.88437,67,50,40
379.91678,379.99548,66,50,40
380.0279,380.1066,64,50,40
380.139,380.57883,62,50,40
380.69458,380.7733,72,50,40
380.80566,380.88437,70,50,40
380.91678,380.99548,69,50,40
381.0279,381.4677,70,50,40
381.58347,381.66217,69,56,40
381.69458,381.77325,67,57,40
381.80566,381.88437,65,58,40
381.91678,382.3566,64,60,40
382.47235,382.55106,74,66,40
382.58347,382.66217,72,67,40
382.69455,382.77325,70,69,40
382.80566,383.24548,69,70,40
383.36124,383.43994,79,76,40
383.47235,383.55106,77,78,40
383.58347,383.66217,75,79,40
383.69455,384.13437,74,80,40
384.25012,384.32883,82,86,40
384.36124,384.43994,81,88,40
384.47235,384.55106,82,89,40
384.58347,385.0402,72,90,40
385.16403,385.24835,79,97,40
385.28308,385.3674,78,98,40
385.40213,385.49066,79,99,40
385.52713,386.0219,69,100,40
386.02713,386.13824,86,50,40
386.13824,386.24936,87,50,40
386.24936,386.36047,86,50,40
386.36047,386.46695,85,50,40
386.4716,386.58267,86,50,40
386.58267,386.6938,87,50,40
386.6938,386.8049,86,50,40
386.8049,386.91602,84,50,40
386.91602,387.02713,82,50,40
387.02713,387.13824,84,50,40
387.13824,387.24936,82,50,40
387.24936,387.35583,81,50,40
387.36047,387.4716,81,50,40
387.4716,387.58267,82,50,40
387.58267,387.6938,81,50,40
387.6938,387.8049,79,50,40
387.8049,387.91602,77,50,40
387.91602,388.02713,79,50,40
388.02713,388.13824,77,50,40
388.13824,388.24936,76,50,40
388.24936,388.36047,75,50,40
388.36047,388.4716,77,54,40
388.4716,388.58267,75,58,40
388.58267,388.6938,74,62,40
388.6938,388.8049,72,66,40
388.8049,388.91602,74,71,40
388.91602,389.02713,72,75,40
389.02713,389.1336,70,79,40
389.13824,389.24936,70,83,40
389.24936,389.36047,72,88,40
389.36047,389.4716,70,92,40
389.4716,389.57806,69,96,40
389.58267,389.6938,69,100,40
389.6938,389.8049,67,90,40
389.8049,389.91602,65,83,40
389.91602,390.02713,63,75,40
390.02713,390.35583,62,70,40
390.47156,390.80026,74,70,40
390.91602,391.24472,77,70,40
391.36047,391.68918,77,70,40
391.8049,392.24472,79,70,40
392.24936,392.68915,81,80,40
392.6938,393.1336,82,90,40
393.13824,393.57806,84,100,40
393.58267,393.87897,82,70,40
394.02713,394.32343,84,70,40
394.47156,394.7746,77,70,40
394.92612,395.24112,81,70,40
396.3084,396.6047,87,70,40
396.75284,397.04913,89,70,40
397.1973,397.4936,82,70,40
397.64172,397.93802,84,70,40
398.08618,398.38248,77,70,40
398.53064,398.82693,81,70,40
398.97507,399.4149,82,70,40
399.41953,399.63712,84,80,40
399.64172,399.8593,77,85,40
399.86395,400.30377,86,90,40
400.3084,400.74823,87,100,40
400.75284,401.04913,86,70,40
401.1973,401.4936,88,70,40
401.64172,405.6371,89,70,40
405.64172,405.75284,87,70,40
405.75284,405.86395,89,70,40
405.86395,405.97507,87,71,40
405.97507,406.08618,86,71,40
406.08618,406.38248,84,71,40
406.5306,406.64172,86,73,40
406.64172,406.75284,87,73,40
406.75284,406.86395,86,74,40
406.86395,406.97507,84,74,40
406.97507,407.27136,82,74,40
407.4195,407.5306,84,76,40
407.5306,407.64172,82,76,40
407.64172,407.75284,81,77,40
407.75284,407.86395,79,77,40
407.86395,407.97507,77,77,40
407.97507,408.08618,79,78,40
408.08618,408.1973,77,78,40
408.1973,408.30838,75,78,40
408.30838,408.47043,74,79,40
408.5306,408.69266,82,79,40
408.75284,408.86395,75,80,40
408.86395,408.97507,77,81,40
408.97507,409.08618,75,81,40
409.08618,409.1973,74,81,40
409.1973,409.3593,72,82,40
409.4195,409.58154,81,82,40
409.64172,409.80377,74,83,40
409.86395,410.02597,81,84,40
410.08618,410.7482,82,85,40
410.75284,410.9149,82,87,40
410.97507,411.1371,84,88,40
411.19727,411.3593,86,88,40
411.4195,411.58154,87,89,40
411.64172,411.80377,88,90,40
411.86395,412.52597,89,110,40
412.5306,412.69266,91,93,40
412.75284,413.41486,93,115,40
413.4195,413.58154,94,96,40
413.64172,414.30872,96,120,40
414.31345,414.48434,81,99,40
414.54782,414.7242,82,99,40
414.78973,414.97205,84,100,40
415.03973,415.93256,86,125,40
415.9372,416.82144,91,125,40
416.82608,417.71033,89,125,40
417.71497,418.5992,93,125,40
418.60385,419.4881,94,125,40
419.49274,420.41275,96,125,40
420.41794,420.60025,94,70,40
420.66794,420.83,70,70,40
420.89017,421.10776,70,70,40
421.1124,421.33,68,70,40
421.33463,421.55222,68,70,40
421.55682,421.7744,67,70,40
421.77905,421.9411,70,70,40
422.00128,422.16333,67,70,40
422.2235,422.4411,67,70,40
422.4457,422.66333,65,70,40
422.66794,422.83,70,70,40
422.89017,423.05222,68,70,40
423.1124,423.33,68,70,40
423.33463,423.55222,67,70,40
423.55682,423.71887,70,70,40
423.77905,423.9411,67,70,40
424.00128,424.21887,67,70,40
424.2235,424.4411,65,70,40
424.4457,424.61398,70,70,40
424.67648,424.84476,63,70,40
424.90726,425.14038,63,70,40
425.14536,425.37848,62,69,40
425.38345,425.56573,70,68,40
425.63345,425.8323,62,67,40
425.9062,426.40097,62,66,40
426.4062,427.65097,60,64,40
427.6562,427.90097,58,58,40
427.9062,428.44595,58,57,40
428.45163,429.53687,57,54,40
429.54254,430.20227,70,50,40
430.2092,431.6988,69,50,40
431.7092,432.1988,68,74,40
432.2092,432.73376,67,82,40
432.7449,433.33243,75,90,40
433.3449,434.5977,74,70,40
434.61157,435.34595,72,70,40
436.11157,437.17184,82,70,40
437.183,438.779,81,70,40
438.79016,439.3147,80,88,40
439.32587,439.89078,79,94,40
439.9028,440.51477,81,100,40
440.5278,441.87723,81,70,40
441.89142,442.55905,82,70,40
444.75507,444.87485,82,110,40
444.88007,444.99985,84,110,40
445.00507,445.11154,82,110,40
445.11618,445.22266,81,110,40
445.2273,445.33377,79,110,40
445.3384,445.4449,81,110,40
445.4495,445.556,79,110,40
445.5606,445.6671,77,110,40
445.67172,445.78232,75,110,40
445.7871,445.8977,77,110,40
445.9025,446.01657,75,110,40
446.02155,446.13562,74,110,40
446.1406,446.26038,72,110,40
446.2656,446.38538,70,110,40
446.3906,446.68436,82,90,40
446.69058,447.68018,83,70,40
447.69058,448.18018,84,70,40
449.8906,450.01038,84,110,40
450.0156,450.13538,86,110,40
450.1406,450.24707,84,110,40
450.2517,450.3582,82,110,40
450.36282,450.4693,81,110,40
450.47394,450.5804,82,110,40
450.58505,450.69153,81,110,40
450.69614,450.80264,79,110,40
450.80725,450.91785,77,110,40
450.92264,451.03323,79,110,40
451.03802,451.15213,77,110,40
451.15707,451.27115,75,110,40
451.27612,451.3959,74,110,40
451.40112,451.5209,72,110,40
451.52612,451.74487,84,90,40
451.8261,452.8157,85,70,40
452.8261,453.35068,86,70,40
455.09756,455.21735,86,110,40
455.22256,455.34235,87,110,40
455.34756,455.45404,86,110,40
455.45865,455.56516,84,110,40
455.56976,455.67627,82,110,40
455.68088,455.78735,84,110,40
455.792,455.89847,82,110,40
455.9031,456.00958,81,110,40
456.01422,456.1207,79,110,40
456.12534,456.2318,81,105,40
456.23645,456.34293,79,99,40
456.34756,456.45404,77,93,40
456.45865,456.56516,75,88,40
456.56976,456.67627,77,82,40
456.68088,456.78735,75,76,40
456.792,456.89847,74,71,40
456.9031,457.34293,86,70,40
457.34756,457.56516,87,72,40
457.56976,457.78735,88,73,40
457.792,458.2318,88,74,40
458.23645,458.45404,89,76,40
458.45865,458.67624,90,77,40
458.68088,459.1207,90,78,40
459.12534,459.34293,91,80,40
459.34753,459.56516,89,81,40
459.56976,460.00958,89,82,40
460.01422,460.2318,87,84,40
460.23645,460.45404,88,85,40
460.45865,460.89847,88,86,40
460.9031,461.1207,89,88,40
461.12534,461.34293,87,89,40
461.34753,461.78735,87,90,40
461.792,462.00958,86,92,40
462.01422,462.2318,86,93,40
462.23642,462.67624,86,94,40
462.68088,462.89847,87,96,40
462.9031,463.1207,79,97,40
463.12534,463.57513,79,98,40
463.57986,463.813,82,100,40
463.81796,464.06274,82,85,40
464.06796,464.2939,82,70,40
464.29874,464.51633,86,74,40
464.52097,464.73856,84,78,40
464.74316,464.96075,82,83,40
464.9654,465.18298,86,87,40
465.18762,465.4052,89,92,40
465.40985,465.62744,87,96,40
465.63205,465.84967,86,100,40
465.85428,466.07187,82,100,40
466.0765,466.2941,86,95,40
466.29874,466.51633,84,89,40
466.52097,466.73856,81,83,40
466.74316,466.96075,79,77,40
466.9654,467.18298,77,71,40
467.18762,467.41357,79,65,40
467.4184,467.65527,81,60,40
468.12448,468.4532,82,50,40
468.5689,468.8976,82,50,40
469.01337,469.1754,82,50,40
469.2356,469.3976,82,50,40
469.45782,471.23096,87,50,40
471.68002,472.00873,82,50,40
472.12448,472.4532,82,50,40
472.5689,472.73096,82,50,40
472.79114,472.9532,82,50,40
473.01337,474.34207,87,50,40
474.34668,474.51242,81,50,40
474.57397,474.74487,81,50,40
474.80835,475.15503,82,50,40
475.2771,475.448,84,50,40
475.51147,475.68787,84,50,40
475.7534,476.1232,82,70,40
476.2534,476.45227,72,110,40
476.2534,476.45227,81,110,40
476.52612,476.79956,72,110,40
476.52612,476.79956,81,110,40
476.90112,477.6433,65,110,40
476.90112,477.6433,74,110,40
476.90112,477.6433,82,110,40
481.02612,481.2058,70,1,40
0.0,0.091265686,70,1,40
0.70484656,1.6944299,58,70,40
1.7048465,3.1944299,57,75,40
3.2048466,3.6944299,56,90,40
3.7048466,4.2293997,55,95,40
4.2405605,4.8280606,60,100,40
4.8405604,6.093338,58,80,40
6.107227,6.7600045,57,70,40
7.44056,8.430143,62,70,40
8.44056,9.930143,63,75,40
9.94056,10.430143,59,90,40
10.44056,10.965114,60,95,40
10.9762745,11.563774,63,100,40
10.9762745,11.563774,60,100,40
11.576274,12.829052,60,80,40
11.576274,12.829052,63,80,40
12.84294,13.577315,58,70,40
12.84294,13.577315,62,70,40
14.8786545,15.403208,60,70,40
15.414369,16.474636,60,75,40
16.485796,17.01035,58,87,40
18.09294,18.617493,58,105,40
18.628653,19.68892,58,110,40
19.70008,21.583664,70,110,40
21.595684,21.915129,69,85,40
21.929018,23.05357,69,70,40
25.837912,26.362465,59,70,40
26.373625,26.898178,60,70,40
26.909338,27.433891,62,70,40
27.445053,27.969606,63,70,40
27.980766,28.545671,64,70,40
28.55769,29.122593,65,70,40
29.134613,29.659166,65,70,40
29.670326,30.19488,65,70,40
30.206041,30.730595,65,70,40
30.741755,31.306658,65,70,40
31.318678,31.930656,66,70,40
31.943678,32.46823,67,70,40
32.479393,32.74725,62,70,40
32.74725,33.015106,65,70,40
33.015106,33.539658,63,70,40
33.55082,33.818676,59,70,40
33.818676,34.086533,62,70,40
34.086533,34.651436,60,70,40
34.663456,35.275436,58,70,40
35.288456,35.85336,58,70,40
35.86538,36.389935,57,72,40
36.401093,36.925648,67,75,40
36.93681,37.46136,65,78,40
37.472523,38.037426,68,81,40
38.049446,38.661423,56,84,40
38.674446,39.198997,55,86,40
39.21016,40.270428,60,89,40
40.281586,41.341854,72,95,40
41.353016,41.877567,72,100,40
41.88873,42.41328,72,100,40
42.424442,42.948997,70,94,40
42.960155,43.48471,66,88,40
42.960155,43.48471,69,88,40
43.495872,44.59649,65,82,40
44.60851,45.886284,58,70,40
45.900173,46.656624,70,85,40
46.673985,47.663567,69,100,40
47.673985,49.663567,72,70,40
51.007317,51.44713,70,110,40
51.45176,51.891575,70,110,40
51.896202,52.122166,70,110,40
52.126972,52.371765,70,100,40
52.376972,53.73345,75,70,40
54.626972,55.066784,72,110,40
55.071415,55.51123,72,110,40
55.515858,55.74535,72,110,40
55.750233,55.995026,72,100,40
56.000233,57.011475,77,70,40
57.016106,57.122585,75,76,40
57.127216,57.2337,74,78,40
57.238327,57.34481,72,79,40
57.349438,57.45592,70,81,40
57.46055,57.56703,72,83,40
57.57166,57.678143,70,84,40
57.68277,57.789253,69,86,40
57.793884,57.900364,67,88,40
57.904995,58.011475,65,89,40
58.016106,58.122585,67,91,40
58.127216,58.233696,69,92,40
58.238327,58.344807,70,94,40
58.349438,58.455917,72,96,40
58.46055,58.567028,74,97,40
58.57166,58.678143,75,99,40
58.68277,58.79167,77,101,40
58.796406,58.905308,79,102,40
58.91004,59.022346,81,104,40
59.02723,59.139534,82,106,40
59.144417,59.32671,84,107,40
59.394417,59.613167,82,110,40
59.69442,60.684002,81,110,40
62.69442,63.684002,60,70,40
63.69442,65.21897,58,82,40
65.23013,65.817635,67,100,40
65.83013,67.01763,65,80,40
67.03013,67.61763,64,70,40
68.23013,69.82611,60,70,40
69.83727,70.361824,58,76,40
70.372986,70.93789,55,82,40
70.94991,71.56189,57,88,40
71.57491,72.24252,58,94,40
72.25673,73.60616,67,100,40
72.25673,73.60616,70,100,40
73.62036,74.969795,58,84,40
74.984,77.24705,57,70,40
77.91834,78.024826,84,110,40
78.02946,78.13593,86,110,40
78.140564,78.24705,84,110,40
78.25168,78.358154,82,110,40
78.362785,78.46927,81,110,40
78.4739,78.580376,82,110,40
78.58501,78.69149,81,110,40
78.69612,78.802605,79,110,40
78.80723,78.91371,77,110,40
78.91834,79.024826,79,110,40
79.02945,79.13593,77,110,40
79.140564,79.24705,76,110,40
79.25168,79.358154,74,110,40
79.362785,79.46927,76,110,40
79.4739,79.580376,74,110,40
79.58501,79.69149,72,110,40
79.69612,79.808426,70,110,40
79.81331,79.92561,72,110,40
79.9305,80.050285,70,100,40
80.0555,80.175285,69,90,40
80.1805,80.300285,69,70,40
80.3055,80.425285,67,70,40
80.4305,80.53697,65,70,40
80.5416,80.64809,67,70,40
80.65272,80.7592,70,70,40
80.763824,80.87031,76,70,40
80.87494,80.98142,79,70,40
80.986046,81.09253,81,70,40
81.09716,81.20364,82,70,40
81.208275,81.31475,64,70,40
81.31938,81.425865,67,80,40
81.4305,81.53697,69,90,40
81.5416,81.64809,70,110,40
81.65272,81.75919,72,110,40
81.763824,81.87031,70,110,40
81.87494,81.981415,69,110,40
81.986046,82.09253,67,110,40
82.09716,82.20364,69,110,40
82.20827,82.31475,67,110,40
82.31938,82.425865,65,110,40
82.43049,82.53697,64,110,40
82.5416,82.64809,65,110,40
82.65272,82.75919,64,110,40
82.763824,82.87031,62,110,40
82.87494,82.981415,60,110,40
82.986046,83.09253,62,110,40
83.09716,83.203636,60,110,40
83.20827,83.31475,58,110,40
83.31938,83.43169,57,110,40
83.43657,83.548874,70,110,40
83.55376,83.673546,69,100,40
83.67876,83.798546,67,90,40
83.80376,83.923546,67,70,40
83.92876,84.048546,65,70,40
84.05376,84.16024,64,70,40
84.16486,84.27135,65,70,40
84.27598,84.38246,69,70,40
84.387085,84.49357,72,70,40
84.4982,84.60468,77,70,40
84.60931,84.71579,81,70,40
84.72042,84.826904,84,70,40
84.831535,84.93801,74,70,40
84.94264,85.049126,72,70,40
85.05376,85.16023,70,70,40
85.16486,85.27135,69,70,40
85.27598,85.382454,70,70,40
85.387085,85.49357,69,70,40
85.4982,85.60468,67,70,40
85.60931,85.71579,65,70,40
85.72042,85.826904,64,71,40
85.83153,85.93801,65,72,40
85.94264,86.049126,67,73,40
86.05376,86.16023,69,74,40
86.16486,86.27135,70,75,40
86.27598,86.382454,72,76,40
86.387085,86.49357,74,77,40
86.4982,86.604675,76,78,40
86.60931,86.71579,77,79,40
86.72042,86.8269,79,80,40
86.83153,86.93801,81,81,40
86.94264,87.104675,82,82,40
87.16486,87.3269,81,84,40
87.387085,87.49357,69,86,40
87.4982,87.604675,67,87,40
87.60931,87.71579,69,88,40
87.72042,87.8269,70,89,40
87.83153,87.93801,72,90,40
87.94264,88.04912,74,91,40
88.05375,88.16023,75,92,40
88.16486,88.27135,77,93,40
88.27597,88.382454,79,94,40
88.387085,88.49357,81,95,40
88.49819,88.604675,82,96,40
88.60931,88.71579,84,97,40
88.72042,88.882454,79,98,40
88.94264,89.104675,81,100,40
89.16486,89.27134,58,110,40
89.27597,89.382454,57,110,40
89.387085,89.49356,58,110,40
89.49819,89.604675,60,110,40
89.60931,89.71579,62,110,40
89.72041,89.8269,60,110,40
89.83153,89.93801,62,110,40
89.942635,90.04912,63,110,40
90.05375,90.16023,65,110,40
90.16486,90.27134,63,110,40
90.27597,90.382454,65,110,40
90.387085,90.49356,67,110,40
90.49819,90.60877,69,110,40
90.61358,90.72415,67,110,40
90.728966,90.84305,69,100,40
90.84801,90.9621,70,90,40
90.96706,91.08115,72,70,40
91.086105,91.200195,72,70,40
91.205154,91.31163,72,70,40
91.31626,91.422745,72,70,40
91.427376,91.53385,72,70,40
91.53848,91.644966,65,70,40
91.6496,91.75608,65,70,40
91.760704,91.86719,65,70,40
91.87182,91.9783,65,70,40
91.982925,92.08941,65,70,40
92.09404,92.20052,65,80,40
92.205154,92.31163,65,90,40
92.31626,92.422745,65,110,40
92.427376,92.53385,55,110,40
92.53848,92.644966,57,110,40
92.6496,92.75607,58,110,40
92.760704,92.86719,60,110,40
92.87182,92.9783,58,110,40
92.982925,93.08941,60,110,40
93.09404,93.20052,62,110,40
93.20515,93.31163,63,110,40
93.31626,93.422745,62,110,40
93.427376,93.53385,63,110,40
93.53848,93.644966,65,110,40
93.6496,93.75607,67,110,40
93.760704,93.86719,65,110,40
93.87182,93.978294,67,110,40
93.982925,94.08941,69,110,40
94.09404,94.20461,70,110,40
94.20942,94.32,69,110,40
94.32481,94.440735,70,100,40
94.44578,94.5617,72,90,40
94.56674,94.68267,67,70,40
94.687706,94.803635,65,70,40
94.80868,94.91516,63,70,40
94.919785,95.02627,65,70,40
95.0309,95.13738,70,70,40
95.14201,95.24849,65,70,40
95.25312,95.359604,63,70,40
95.364235,95.47071,62,70,40
95.47534,95.581825,67,70,40
95.58646,95.69293,65,71,40
95.69756,95.80405,63,72,40
95.80868,95.91516,65,73,40
95.919785,96.02627,68,74,40
96.0309,96.13738,65,75,40
96.142006,96.24849,63,76,40
96.25312,96.359604,62,77,40
96.36423,96.47071,68,78,40
96.47534,96.581825,62,79,40
96.58646,96.69293,65,80,40
96.69756,96.80405,65,81,40
96.80868,96.91515,68,82,40
96.919785,97.02627,65,83,40
97.0309,97.137375,63,84,40
97.142006,97.24849,62,85,40
97.25312,97.359604,60,86,40
97.36423,97.47071,67,87,40
97.47534,97.581825,67,88,40
97.58645,97.69293,67,89,40
97.69756,97.80405,67,91,40
97.80868,97.91515,67,92,40
97.919785,98.02627,67,93,40
98.0309,98.137375,67,94,40
98.142006,98.24849,70,95,40
98.25312,98.3596,65,96,40
98.36423,98.47071,65,97,40
98.47534,98.58182,65,98,40
98.58645,98.69293,63,99,40
98.69756,98.80405,63,100,40
98.80867,98.91515,62,101,40
98.919785,99.02627,62,102,40
99.03089,99.13979,61,103,40
99.14453,99.25343,61,104,40
99.25817,99.367065,62,105,40
99.3718,99.480705,62,106,40
99.48544,99.59775,63,107,40
99.60263,99.714935,63,108,40
99.71982,99.83574,63,109,40
99.84078,99.96057,63,110,40
99.96578,100.21057,62,110,40
101.77134,101.877815,55,70,40
101.99356,102.10467,59,70,40
102.10467,102.21578,62,70,40
102.21578,102.32689,60,70,40
102.438,102.54911,55,70,40
102.54911,102.660225,58,70,40
102.660225,102.77133,57,70,40
102.88245,103.04449,70,70,40
103.10467,103.26671,72,70,40
103.32689,103.438,69,70,40
103.438,103.54911,72,70,40
103.54911,103.76671,70,110,40
104.21578,104.32689,81,100,40
104.32689,104.438,84,80,40
104.438,104.54911,82,110,40
104.660225,104.82226,58,99,40
104.88245,105.04448,58,87,40
105.10467,105.215775,74,76,40
105.215775,105.32689,77,70,40
105.32689,105.48892,75,70,40
105.99355,106.10467,67,70,40
106.10467,106.215775,70,74,40
106.215775,106.377815,69,79,40
106.437996,106.60004,70,88,40
106.66022,106.82226,72,97,40
106.88245,107.04448,65,106,40
107.10467,107.54448,65,110,40
107.77133,107.845406,79,110,40
107.845406,107.91948,77,110,40
107.91948,107.99355,76,110,40
107.99355,108.433365,77,110,40
108.66022,108.73429,67,110,40
108.73429,108.808365,65,110,40
108.808365,108.88244,64,110,40
108.88244,109.32226,65,110,40
109.5491,109.623184,79,110,40
109.623184,109.69726,77,110,40
109.69726,109.77133,76,110,40
109.77133,110.21114,77,110,40
110.66022,110.82225,74,125,40
110.88244,110.98892,74,110,40
110.99355,111.10003,75,110,40
111.10466,111.21114,74,110,40
111.215775,111.32225,72,110,40
111.32688,111.433365,70,110,40
111.437996,111.54447,69,110,40
111.5491,111.71114,70,125,40
111.771324,111.87781,70,110,40
111.88244,111.98892,72,110,40
111.993546,112.10003,70,110,40
112.10466,112.21114,69,110,40
112.21577,112.32225,67,110,40
112.32688,112.433365,66,110,40
112.437996,112.60003,67,125,40
112.66022,112.76669,67,110,40
112.771324,112.87781,69,110,40
112.88244,112.988914,67,110,40
112.993546,113.10003,65,110,40
113.10466,113.21114,64,110,40
113.21577,113.32225,62,110,40
113.32688,113.488914,60,125,40
113.5491,113.65559,72,110,40
113.66022,113.76669,74,110,40
113.771324,113.87781,72,110,40
113.88244,113.988914,70,110,40
113.993546,114.10003,69,110,40
114.10466,114.211136,67,110,40
114.21577,114.37781,65,110,40
114.43799,114.60003,84,110,40
114.66021,114.82225,81,125,40
114.88243,115.04447,77,110,40
115.10466,115.26669,75,125,40
115.32688,115.488914,72,110,40
115.5491,115.711136,69,125,40
115.771324,115.93336,65,110,40
115.993546,116.15558,63,125,40
116.21577,116.3778,62,110,40
116.43799,116.60003,65,125,40
116.66021,116.82225,70,110,40
116.88243,117.04447,74,125,40
117.10465,117.26669,65,110,40
117.32687,117.488914,70,125,40
117.549095,117.711136,64,110,40
117.771324,117.93336,65,125,40
117.993546,118.15558,84,110,40
118.21577,118.3778,81,125,40
118.43799,118.60002,77,110,40
118.66021,118.82224,75,125,40
118.88243,119.044464,72,110,40
119.10465,119.26669,69,125,40
119.32687,119.488914,65,110,40
119.549095,119.711136,63,125,40
119.77132,119.93336,62,110,40
119.99354,120.15558,65,125,40
120.21576,120.3778,70,110,40
120.43799,120.60002,74,125,40
120.66021,120.82224,77,110,40
120.88243,121.044464,82,125,40
121.10465,121.266685,86,110,40
121.32687,121.766685,77,110,40
122.21576,122.766685,65,125,40
122.77132,122.8778,65,110,40
122.88242,122.98891,67,110,40
122.99354,123.10002,69,110,40
123.104645,123.65557,70,125,40
123.6602,123.766685,69,110,40
123.77132,123.87779,67,110,40
123.88242,123.98891,65,110,40
123.99354,124.21113,64,110,40
124.21576,124.43335,62,110,40
124.43798,124.65557,60,110,40
124.6602,124.87779,58,110,40
124.88242,125.10001,65,110,40
125.326866,125.544464,66,105,40
125.77131,125.98891,55,100,40
126.21576,126.43335,56,94,40
126.6602,126.87779,57,88,40
127.104645,127.32718,58,82,40
127.55919,127.79233,59,76,40
128.03539,128.28017,60,70,40
128.53539,129.86407,61,70,40
132.97981,133.86407,57,70,40
133.86871,134.75296,56,70,40
134.7576,135.64186,65,70,40
135.64648,136.53075,66,70,40
140.09093,141.86407,57,110,40
141.8687,142.2437,58,90,40
142.31314,142.68814,60,100,40
142.75758,143.64185,62,70,40
143.64647,144.53073,61,70,40
144.53537,145.43971,66,70,40
145.44446,146.40715,66,70,40
146.4122,147.74089,61,70,40
147.74553,148.19534,68,70,40
148.20007,149.15915,58,70,40
149.16435,149.65915,66,70,40
151.55324,151.63194,62,50,40
151.66435,151.74306,62,50,40
151.77547,151.85417,62,50,40
151.88658,152.32639,61,50,40
155.1088,155.1875,58,50,40
155.21991,155.29861,58,50,40
155.33102,155.40971,58,50,40
155.44212,155.88194,58,50,40
155.99768,156.07639,58,50,40
156.1088,156.1875,58,51,40
156.21991,156.29861,58,52,40
156.33101,156.77083,63,53,40
156.88657,156.96527,60,59,40
156.99768,157.07639,61,60,40
157.1088,157.1875,63,61,40
157.21991,157.65971,56,62,40
157.77545,157.85416,68,68,40
157.88657,157.96527,68,69,40
157.99768,158.07639,68,71,40
158.1088,158.5486,66,72,40
158.66435,158.74306,58,78,40
158.77545,158.85416,58,79,40
158.88657,158.96527,58,80,40
158.99768,159.4375,63,81,40
159.55751,159.63924,60,87,40
159.6729,159.75462,60,88,40
159.78828,159.87396,60,89,40
159.90924,160.38808,59,90,40
160.83755,164.49959,61,100,40
164.50423,164.61533,63,70,40
164.61533,164.72644,61,70,40
164.72644,164.83755,60,70,40
164.83755,164.94867,61,70,40
164.94867,165.05978,63,70,40
165.05978,165.17088,61,70,40
165.17088,165.282,59,70,40
165.282,165.39311,58,70,40
165.39311,165.50423,59,70,40
165.50423,165.61533,58,70,40
165.61533,165.72644,56,70,40
165.72644,165.83755,70,70,40
165.83755,165.94867,71,70,40
165.94867,166.05977,70,70,40
166.05977,166.17088,68,70,40
166.17088,166.282,66,70,40
166.282,166.39311,68,72,40
166.39311,166.50423,66,74,40
166.50423,166.61533,65,77,40
166.61533,166.72644,66,79,40
166.72644,166.83755,68,81,40
166.83755,166.94867,66,84,40
166.94867,167.05515,65,86,40
167.05977,167.17088,65,89,40
167.17088,167.282,66,91,40
167.282,167.39311,65,93,40
167.39311,167.49959,63,96,40
167.50421,167.61533,63,98,40
167.61533,167.72644,61,100,40
167.72644,167.83755,63,90,40
167.83755,167.94867,65,80,40
167.94867,168.05977,61,70,40
168.05977,168.17088,63,70,40
168.17088,168.282,61,70,40
168.282,168.38847,59,70,40
168.39311,168.50421,59,70,40
168.50421,168.61533,61,70,40
168.61533,168.72644,59,70,40
168.72644,168.83292,58,70,40
168.83755,168.95119,58,70,40
168.95119,169.06482,59,70,40
169.06482,169.17847,58,70,40
169.17847,169.2921,56,70,40
169.2921,169.41115,58,70,40
169.41115,169.5302,59,70,40
169.5302,169.6552,58,70,40
169.6552,169.7802,56,70,40
169.7802,170.24779,58,70,40
171.1413,171.25241,73,70,40
171.25241,171.36353,75,70,40
171.36353,171.47464,73,70,40
171.47464,171.58574,71,70,40
171.58574,172.02556,70,70,40
172.47464,172.80333,65,70,40
172.91908,173.24779,65,70,40
173.36353,173.69223,66,70,40
173.80797,174.13667,63,79,40
174.25241,174.58112,70,89,40
174.69685,175.02556,70,98,40
175.1413,175.58112,70,70,40
175.58574,176.02556,72,70,40
176.03018,176.47,73,70,40
176.47462,176.91444,68,70,40
176.91907,177.24777,66,70,40
177.36351,177.69221,68,70,40
177.80797,178.13666,61,70,40
179.1413,179.47,78,70,40
179.58574,179.91444,70,70,40
180.03018,180.35889,71,70,40
180.47462,180.80333,71,70,40
180.91907,181.24777,77,72,40
181.36351,181.69221,70,74,40
181.80795,181.91907,68,76,40
181.91907,182.03018,66,76,40
182.03018,182.1413,65,77,40
182.1413,182.2524,63,77,40
182.2524,182.36351,65,78,40
182.36351,182.47462,66,78,40
182.47462,182.58574,65,79,40
182.58574,182.69684,63,79,40
182.69684,183.02554,61,80,40
183.14128,183.2524,63,82,40
183.2524,183.36351,65,82,40
183.36351,183.47462,63,83,40
183.47462,183.58574,61,84,40
183.58574,183.91443,60,84,40
184.03018,184.14128,70,86,40
184.14128,184.2524,71,87,40
184.2524,184.36351,70,87,40
184.36351,184.47462,68,88,40
184.47462,184.63666,66,88,40
184.69684,185.13666,75,89,40
185.14128,185.30333,75,91,40
185.36351,185.52554,77,92,40
185.58572,185.74777,78,93,40
185.80795,185.91907,80,94,40
185.91907,186.03018,82,95,40
186.03018,186.14128,80,95,40
186.14128,186.2524,78,96,40
186.2524,186.36351,77,120,40
186.36351,186.47462,78,97,40
186.47462,186.58572,77,98,40
186.58572,186.69684,75,98,40
186.69684,186.80795,73,99,40
186.80795,186.91907,75,99,40
186.91907,187.03017,73,100,40
187.03017,187.14128,71,100,40
187.14128,187.2524,70,120,40
187.2524,187.36351,71,101,40
187.36351,187.47462,70,102,40
187.47462,187.5811,68,102,40
187.58572,187.69684,68,103,40
187.69684,187.80795,70,103,40
187.80795,187.91907,68,104,40
187.91907,188.03017,66,104,40
188.03017,188.14128,65,125,40
188.14128,188.2524,66,105,40
188.2524,188.36351,65,106,40
188.36351,188.47461,63,106,40
188.47461,188.58826,61,107,40
188.58826,188.70189,63,107,40
188.70189,188.81908,61,108,40
188.81908,188.93626,59,108,40
188.93626,189.05724,58,109,40
189.05724,189.17819,59,109,40
189.17819,189.30319,58,110,40
189.30319,189.42819,56,110,40
189.42819,191.22913,66,110,40
191.23375,192.11801,66,125,40
192.12263,193.0069,71,125,40
193.01154,193.89578,70,125,40
193.90042,194.78467,71,125,40
194.7893,194.95134,70,70,40
195.01152,195.17357,66,70,40
195.23375,195.45134,66,70,40
195.45598,195.67357,64,70,40
195.67819,195.89578,64,70,40
195.90042,196.11801,63,70,40
196.12263,196.28467,66,70,40
196.34486,196.5069,63,70,40
196.56708,196.78467,63,70,40
196.7893,197.0069,61,70,40
197.01152,197.17357,66,70,40
197.23375,197.39578,64,70,40
197.45596,197.67357,64,70,40
197.67819,197.89578,63,70,40
197.9004,198.06245,66,70,40
198.12263,198.28467,63,70,40
198.34486,198.56245,63,60,40
198.56708,198.78467,61,60,40
198.7893,198.95134,66,60,40
199.01152,199.17355,59,60,40
199.23375,199.45628,59,60,40
199.46101,199.6905,58,60,40
199.69539,199.87181,66,60,40
199.93733,200.11961,66,60,40
200.18733,200.78108,66,50,40
200.78732,202.77692,65,50,40
203.78732,205.27692,56,70,40
205.28732,205.77692,58,88,40
205.78732,206.31187,59,94,40
206.32304,206.91054,59,100,40
206.92303,209.31055,61,80,40
210.76749,210.8786,73,50,40
210.8786,210.9897,75,50,40
210.9897,211.10081,73,50,40
211.10081,211.21193,71,50,40
211.21193,211.32732,70,50,40
211.32732,211.4427,71,50,40
211.4427,211.55809,70,50,40
211.55809,211.67346,68,50,40
211.67346,212.1905,66,50,40
213.6962,217.22075,62,100,40
217.2319,217.81941,64,100,40
217.83191,220.2194,57,80,40
221.67635,221.78746,69,50,40
221.78746,221.89857,71,50,40
221.89857,222.00969,69,50,40
222.00969,222.1208,67,50,40
222.1208,222.23618,66,50,40
222.23618,222.35156,67,50,40
222.35156,222.47656,66,50,40
222.47656,222.60156,64,50,40
222.60156,223.16805,62,50,40
225.17429,225.66388,64,50,40
225.67429,227.93323,57,50,40
228.44572,228.9353,67,50,40
228.94572,230.00598,67,50,40
230.01715,231.20465,66,50,40
231.71715,232.20673,64,50,40
232.21715,232.96194,57,70,40
233.21715,233.90465,57,70,40
234.14023,234.80226,57,70,40
235.02911,235.46893,57,70,40
235.47356,235.58003,69,70,40
235.58467,235.69115,71,70,40
235.69579,235.80226,69,70,40
235.80688,235.91338,67,70,40
235.918,236.35782,66,70,40
236.36244,236.58003,62,70,40
236.80688,237.2467,66,70,40
237.25133,237.46892,62,70,40
237.69577,238.13559,62,70,40
238.14021,238.35782,57,70,40
238.58467,239.02448,66,70,40
239.02911,239.2467,57,70,40
239.47356,239.91336,62,70,40
239.918,240.13559,57,70,40
240.36244,240.80226,62,70,40
240.80688,241.02448,57,70,40
241.25133,241.69115,62,70,40
241.69577,241.91336,57,70,40
242.14021,242.58003,62,70,40
242.58466,242.69115,69,70,40
242.69577,242.80225,71,70,40
242.80688,242.91336,69,70,40
242.918,243.02448,67,70,40
243.0291,243.46892,67,70,40
243.0291,243.69115,57,70,40
243.47354,243.69115,66,70,40
243.918,244.3578,67,70,40
243.918,244.58003,57,70,40
244.36244,244.58003,66,70,40
244.80688,245.24669,57,70,40
244.80688,245.24669,69,70,40
245.25133,245.46892,60,70,40
245.69577,246.13559,57,70,40
245.69577,246.13559,69,70,40
246.14021,246.3578,60,70,40
246.58466,247.02448,60,70,40
247.0291,247.24669,59,70,40
247.47354,247.91336,60,70,40
247.47354,247.91336,69,70,40
247.91798,248.13557,67,70,40
247.91798,248.13557,59,70,40
248.36243,248.80225,59,70,40
248.36243,248.80225,67,70,40
248.80687,249.02448,57,70,40
248.80687,249.02448,66,70,40
249.25133,249.69113,59,70,40
249.25133,249.69113,67,70,40
249.69577,249.91336,57,70,40
249.69577,249.91336,66,70,40
250.14021,250.58002,69,70,40
250.58466,250.80225,67,70,40
251.0291,251.46892,69,70,40
251.47354,251.69113,67,70,40
251.91798,252.3578,69,70,40
252.36243,252.58002,67,70,40
252.80687,253.24669,69,70,40
253.25131,253.3578,71,70,40
253.36243,253.4689,72,70,40
253.47354,253.58002,71,70,40
253.58466,253.69113,69,70,40
253.69576,254.13557,60,70,40
254.1402,254.3578,59,70,40
254.58466,255.02446,67,70,40
255.0291,255.24669,59,70,40
255.47354,255.91335,67,70,40
255.91798,256.13556,62,70,40
256.36243,256.80225,67,70,40
256.80685,257.02448,62,70,40
257.2513,257.69113,60,70,40
257.69577,257.91336,57,70,40
258.1402,258.58002,60,70,40
258.58466,258.80225,57,70,40
259.02908,259.4689,60,70,40
259.47354,259.69113,57,70,40
259.91797,260.3578,62,70,40
260.36243,260.58002,60,70,40
260.80685,261.24667,60,70,40
261.2513,261.4689,59,70,40
261.69574,262.13556,71,70,40
261.69574,262.13556,62,70,40
262.1402,262.3578,60,70,40
262.1402,262.3578,69,70,40
262.58466,263.02444,60,70,40
263.02908,263.24667,59,70,40
263.47354,263.91333,71,70,40
263.47354,263.91333,62,70,40
263.91797,264.13556,60,70,40
263.91797,264.13556,69,70,40
264.36243,264.80225,60,70,40
264.80685,265.02444,59,70,40
265.2513,265.69113,60,70,40
265.69574,265.91333,59,70,40
266.1402,266.58002,62,70,40
266.58463,266.80222,60,70,40
267.02908,267.4689,62,70,40
267.4735,267.69113,60,70,40
267.91797,268.3578,62,70,40
268.36243,268.58002,60,70,40
268.80685,269.24667,62,70,40
269.2513,269.4689,60,70,40
269.69574,270.13556,62,70,40
270.1402,270.3578,60,70,40
270.58463,271.02444,62,70,40
271.02908,271.24667,60,70,40
271.4735,271.91333,62,70,40
271.91797,272.13556,60,70,40
272.3624,272.80222,67,70,40
272.80685,273.02444,60,70,40
273.25128,273.6911,62,70,40
273.69574,273.91333,60,70,40
274.1402,274.58,62,70,40
274.58463,274.80222,60,70,40
275.02908,275.46887,62,70,40
275.4735,275.6911,60,65,40
275.91797,276.3578,62,59,40
276.3624,276.58,60,54,40
276.80685,277.24667,60,50,40
277.25128,277.46887,55,50,40
277.69574,278.14554,60,50,40
278.15027,278.37976,55,50,40
278.6266,279.0833,67,50,40
279.08813,279.30573,63,56,40
279.53256,279.97238,63,63,40
279.97702,280.1946,57,69,40
280.42145,280.86127,75,76,40
280.8659,281.0835,69,82,40
281.31036,281.52795,75,89,40
281.53256,281.75015,65,92,40
281.7548,281.86127,67,96,40
281.8659,281.97238,65,97,40
281.97702,282.0835,67,99,40
282.08813,282.1946,69,100,40
282.19925,282.30573,70,110,40
282.31036,282.41684,69,110,40
282.42145,282.52795,70,110,40
282.53256,282.63904,72,110,40
282.64368,282.75015,74,110,40
282.7548,282.86127,72,110,40
282.8659,282.97238,74,110,40
282.97702,283.0835,75,110,40
283.08813,283.1946,77,110,40
283.19925,283.30573,75,110,40
283.31033,283.41684,77,110,40
283.42145,283.52795,79,110,40
283.53256,283.64316,81,110,40
283.64795,283.75854,79,110,40
283.76334,283.88312,81,100,40
283.88834,284.00812,82,90,40
284.01334,285.3698,84,70,40
285.37445,285.48093,69,110,40
285.48557,285.59204,67,110,40
285.59668,285.70316,69,110,40
285.7078,285.81427,70,110,40
285.81888,285.92538,72,110,40
285.93,286.0365,70,110,40
286.0411,286.14758,72,110,40
286.15222,286.2587,74,110,40
286.26334,286.3698,75,110,40
286.37445,286.48093,74,110,40
286.48557,286.59204,75,110,40
286.59668,286.70316,77,110,40
286.7078,286.81427,79,110,40
286.81888,286.92538,77,110,40
286.93,287.0365,79,110,40
287.0411,287.14758,81,110,40
287.15222,287.2628,82,110,40
287.2676,287.37817,81,110,40
287.383,287.50278,82,100,40
287.508,287.62778,84,90,40
287.633,288.98947,86,70,40
288.9941,289.1006,82,70,40
289.10522,289.2117,81,71,40
289.21634,289.3228,82,73,40
289.32742,289.43393,84,75,40
289.43854,289.54504,77,76,40
289.54965,289.65613,87,78,40
289.66077,289.76724,86,80,40
289.77188,289.87836,84,82,40
289.883,289.98947,82,83,40
289.9941,290.1006,81,85,40
290.10522,290.2117,79,87,40
290.21634,290.3228,77,88,40
290.32742,290.43393,75,90,40
290.43854,290.545,74,92,40
290.54965,290.65613,72,94,40
290.66077,290.76724,70,95,40
290.77188,290.93393,69,97,40
290.9941,291.15613,70,100,40
291.2163,291.65613,69,110,40
291.66077,291.8228,68,110,40
291.883,292.045,72,110,40
292.10522,292.26724,71,110,40
292.32742,292.48947,70,110,40
292.54965,292.7117,73,110,40
292.77188,292.93393,73,110,40
292.9941,293.15613,73,110,40
293.2163,293.37836,72,110,40
293.43854,293.6006,72,110,40
293.66077,293.8228,74,110,40
293.883,293.98947,74,110,40
293.9941,294.1006,75,110,40
294.10522,294.2117,77,110,40
294.2163,294.3228,77,110,40
294.32742,294.4339,75,110,40
294.43854,294.545,77,110,40
294.54965,294.65613,75,110,40
294.66077,294.76724,72,110,40
294.77188,294.87836,70,110,40
294.883,294.98947,72,110,40
294.9941,295.1006,70,110,40
295.1052,295.2117,68,110,40
295.2163,295.3228,67,110,40
295.32742,295.4339,68,110,40
295.43854,295.545,67,110,40
295.54965,295.65613,65,110,40
295.66077,295.76724,63,110,40
295.77188,295.87836,65,110,40
295.883,295.98947,63,110,40
295.9941,296.1006,62,110,40
296.1052,296.2158,60,110,40
296.22058,296.33118,58,110,40
296.33597,296.45578,60,100,40
296.46097,296.58078,58,90,40
296.58597,297.94244,59,70,40
296.58597,297.94244,63,70,40
297.94708,298.05768,79,110,40
298.06247,298.17303,80,110,40
298.17786,298.29764,79,110,40
298.30286,298.42264,77,110,40
298.42786,298.54764,75,110,40
298.55286,298.65933,72,110,40
298.66397,298.77045,70,110,40
298.7751,298.88156,68,110,40
298.8862,298.99268,67,110,40
298.9973,299.1038,68,110,40
299.1084,299.2149,67,110,40
299.2195,299.326,65,110,40
299.33063,299.4371,63,110,40
299.44174,299.54822,65,110,40
299.55286,299.65933,63,110,40
299.66397,299.77045,62,110,40
299.7751,299.88565,60,110,40
299.89047,300.00104,58,110,40
300.00586,300.12564,60,100,40
300.13086,300.25064,58,90,40
300.25586,301.61234,60,70,40
301.61694,301.83453,59,70,40
301.83917,302.05676,58,72,40
302.0614,302.94565,58,74,40
302.0614,302.94565,65,74,40
302.9503,303.3901,58,83,40
302.9503,303.3901,63,83,40
303.39474,303.55676,56,88,40
303.39474,303.55676,63,88,40
303.61694,303.779,55,90,40
303.61694,303.779,63,90,40
303.83917,304.279,60,92,40
303.83917,304.279,63,92,40
304.28363,304.44565,58,97,40
304.28363,304.44565,63,97,40
304.50583,304.66788,56,99,40
304.50583,304.66788,63,99,40
304.72806,305.16788,56,101,40
304.72806,305.16788,62,101,40
305.17252,305.33453,57,106,40
305.3947,305.55676,56,108,40
305.61694,306.05676,55,110,40
306.50583,306.61694,77,110,40
306.61694,306.72806,75,110,40
306.72806,306.83917,74,110,40
306.83917,306.9503,72,110,40
306.9503,307.0614,74,110,40
307.0614,307.17252,75,110,40
307.17252,307.28363,77,110,40
307.28363,307.3947,79,110,40
307.3947,307.83453,79,110,40
308.28363,308.3947,77,110,40
308.3947,308.50583,75,110,40
308.50583,308.61694,74,110,40
308.61694,308.72806,72,110,40
308.72806,308.83917,74,110,40
308.83917,308.9503,75,110,40
308.9503,309.0614,77,110,40
309.0614,309.17252,79,110,40
309.17252,309.33453,79,110,40
309.3947,309.55676,68,110,40
309.61694,309.779,70,110,40
309.83917,309.9503,69,110,40
309.9503,310.0614,72,107,40
310.0614,310.22342,70,104,40
310.72806,310.83917,70,85,40
310.83917,310.9503,65,75,40
310.9503,311.3901,66,70,40
311.83917,311.9503,65,70,40
311.9503,312.0614,63,70,40
312.0614,312.1725,62,70,40
312.1725,312.2836,63,70,40
312.2836,312.3947,68,70,40
312.3947,312.50583,65,70,40
312.50583,312.61694,66,70,40
312.61694,312.72806,68,70,40
312.72806,313.16788,70,70,40
313.61694,313.72806,65,70,40
313.72806,313.83917,63,70,40
313.83917,313.9503,62,70,40
313.9503,314.0614,65,70,40
314.0614,314.1725,68,70,40
314.1725,314.2836,65,70,40
314.2836,314.3947,66,70,40
314.3947,314.50583,68,70,40
314.50583,314.66788,70,70,40
314.72806,314.89008,62,75,40
314.9503,315.1123,63,80,40
315.1725,315.33453,63,85,40
315.3947,315.55676,63,90,40
315.61694,315.779,63,95,40
315.83917,316.0012,63,100,40
316.06137,316.22342,60,105,40
316.2836,316.72342,61,110,40
317.1725,317.2836,60,110,40
317.2836,317.3947,58,110,40
317.3947,317.50583,56,110,40
317.50583,317.61694,55,110,40
317.61694,317.72806,56,110,40
317.72806,317.83917,58,110,40
317.83917,317.9503,60,110,40
317.9503,318.06137,61,110,40
318.06137,318.5012,73,110,40
318.95026,319.06137,72,110,40
319.06137,319.1725,73,110,40
319.1725,319.2836,72,110,40
319.2836,319.3947,70,110,40
319.3947,319.50583,72,110,40
319.50583,319.61694,73,110,40
319.61694,319.72806,75,110,40
319.72806,319.83453,77,110,40
319.83917,320.0012,77,110,40
320.06137,320.1725,73,110,40
320.1725,320.2836,72,110,40
320.2836,320.3947,73,110,40
320.3947,320.50583,75,110,40
320.50583,320.58453,77,110,40
320.61694,320.69565,77,110,40
320.72806,320.89008,79,110,40
320.95026,321.06137,63,110,40
321.06137,321.1725,62,110,40
321.1725,321.2836,63,110,40
321.2836,321.3947,65,110,40
321.3947,321.50583,67,110,40
321.50583,321.6123,68,110,40
321.61694,322.05676,68,110,40
323.3947,323.691,73,125,40
323.83914,324.13544,68,125,40
324.2836,325.16785,61,125,40
325.3947,325.55673,75,110,40
325.61694,325.77896,72,125,40
325.83914,326.0012,68,110,40
326.06137,326.22342,66,125,40
326.2836,326.44565,63,110,40
326.50583,326.66785,60,125,40
326.72803,326.89008,56,110,40
326.95026,327.1123,66,125,40
327.1725,327.33453,65,110,40
327.3947,327.55673,68,125,40
327.61694,327.77896,73,110,40
327.83914,328.0012,65,125,40
328.06137,328.22342,68,110,40
328.2836,328.44562,73,125,40
328.50583,328.66785,77,110,40
328.72803,329.16785,80,110,40
329.6169,329.83453,56,99,40
330.06137,330.27896,56,93,40
330.50583,330.72836,56,87,40
330.96036,331.18985,56,81,40
331.4291,331.66602,56,75,40
331.913,332.15778,57,70,40
332.413,333.74167,57,70,40
336.85742,337.74167,65,110,40
337.7463,338.63055,66,87,40
338.6352,339.075,63,70,40
339.07965,339.51944,63,70,40
339.07965,343.9639,56,70,40
343.96854,344.85278,57,70,40
344.85742,345.74167,58,70,40
345.7463,346.1213,60,70,40
346.19073,346.56573,58,70,40
346.6352,347.51944,57,70,40
347.52408,348.40833,56,70,40
348.41296,349.2972,58,70,40
349.30185,350.1861,58,70,40
350.19073,351.075,60,70,40
351.07962,351.99805,58,70,40
352.00293,352.88718,58,82,40
352.8918,353.8102,58,94,40
353.8151,355.1438,57,70,40
359.14844,360.03268,60,70,40
360.03732,360.92157,69,70,40
360.9262,361.36603,70,70,40
361.37067,361.81046,74,74,40
361.8151,362.2549,77,78,40
362.25955,362.69937,82,83,40
362.70398,363.81046,65,87,40
363.8151,363.9262,65,98,40
363.9262,364.03732,64,99,40
364.03732,364.14844,65,100,40
364.14844,364.25955,67,90,40
364.25955,364.37067,65,80,40
364.37067,364.48175,63,70,40
364.48175,365.36603,62,70,40
365.37064,366.2549,82,78,40
366.25955,366.63455,81,87,40
366.70398,367.07898,79,92,40
367.14844,367.52344,77,96,40
367.59286,367.96786,76,100,40
368.03732,368.92157,75,70,40
368.9262,369.81046,74,80,40
369.8151,370.71945,72,90,40
370.72418,371.6869,72,100,40
371.69193,372.65463,65,70,40
372.65967,373.1385,65,70,40
373.6274,375.24387,70,70,40
375.25012,375.68994,62,50,40
376.25012,376.32883,58,50,40
376.36124,376.43994,57,50,40
376.47235,376.55106,55,50,40
376.58347,377.0233,65,50,40
377.139,377.2177,65,50,40
377.25012,377.32883,65,50,40
377.36124,377.43994,65,50,40
377.47235,377.91217,65,50,40
378.91678,378.99548,58,50,40
379.0279,379.1066,57,50,40
379.139,379.2177,55,50,40
379.25012,379.68994,66,50,40
379.80566,379.88437,67,50,40
379.91678,379.99548,66,50,40
380.0279,380.1066,64,50,40
380.139,380.57883,62,50,40
380.69458,380.7733,62,50,40
380.80566,380.88437,62,50,40
380.91678,380.99548,62,50,40
381.0279,381.4677,62,50,40
381.58347,381.66217,58,56,40
381.69458,381.77325,58,57,40
381.80566,381.88437,58,58,40
381.91678,382.3566,58,60,40
382.47235,382.55106,70,66,40
382.58347,382.66217,69,67,40
382.69455,382.77325,67,69,40
382.80566,383.24548,60,70,40
383.36124,383.43994,72,76,40
383.47235,383.55106,72,78,40
383.58347,383.66217,72,79,40
383.69455,384.13437,70,80,40
384.25012,384.32883,70,86,40
384.36124,384.43994,70,88,40
384.47235,384.55106,70,89,40
384.58347,385.0402,70,90,40
385.16403,385.24835,67,97,40
385.28308,385.3674,67,98,40
385.40213,385.49066,67,99,40
385.52713,386.0219,65,100,40
386.02713,386.91138,65,50,40
386.91602,387.8003,67,50,40
387.8049,388.68918,69,50,40
388.6938,389.57806,70,66,40
389.58267,390.0225,72,100,40
390.02713,390.1336,74,70,40
390.13824,390.24472,67,70,40
390.24936,390.35583,65,70,40
390.36047,390.46695,63,70,40
390.47156,390.57806,62,70,40
390.58267,390.68918,63,70,40
390.6938,390.80026,65,70,40
390.8049,390.91138,67,70,40
390.91602,391.1336,60,70,40
391.91602,392.02713,62,72,40
392.02713,392.13824,60,75,40
392.13824,392.24472,58,77,40
392.24936,392.36047,58,80,40
392.36047,392.47156,60,82,40
392.47156,392.58267,58,85,40
392.58267,392.68915,57,88,40
392.6938,392.8049,57,90,40
392.8049,392.91602,58,93,40
392.91602,393.02713,57,95,40
393.02713,393.13824,55,98,40
393.13824,393.24936,67,100,40
393.24936,393.36044,69,92,40
393.36044,393.47156,67,83,40
393.47156,393.57806,65,75,40
393.58267,394.0225,65,70,40
394.5852,394.69885,62,70,40
394.69885,394.81247,60,70,40
394.81247,394.92612,58,70,40
394.92612,395.0433,57,70,40
395.0433,395.1605,60,70,40
395.1605,395.28146,62,70,40
395.28146,395.40244,63,70,40
395.40244,395.7101,62,70,40
395.86395,396.16025,72,70,40
396.3084,396.6047,65,70,40
396.75284,397.04913,69,70,40
397.1973,397.3084,70,70,40
397.3084,397.41953,74,70,40
397.41953,397.53064,72,70,40
397.53064,397.64172,70,70,40
397.64172,397.75284,65,70,40
397.75284,397.86395,74,70,40
397.86395,397.97507,72,70,40
397.97507,398.08154,70,70,40
398.08618,398.1973,70,70,40
398.1973,398.3084,72,70,40
398.3084,398.41953,70,70,40
398.41953,398.526,69,70,40
398.53064,398.64172,69,70,40
398.64172,398.75284,67,70,40
398.75284,398.86395,65,70,40
398.86395,398.97507,63,70,40
398.97507,399.27136,62,70,40
399.41953,399.71582,63,80,40
399.86395,400.16025,65,90,40
400.3084,400.6047,65,100,40
400.75284,400.86395,65,70,40
400.86395,400.97507,74,70,40
400.97507,401.08618,72,70,40
401.08618,401.19266,70,70,40
401.1973,401.3084,70,70,40
401.3084,401.41953,72,70,40
401.41953,401.5306,70,70,40
401.5306,401.64172,69,70,40
401.64172,401.75284,67,70,40
401.75284,401.86395,69,70,40
401.86395,401.97507,67,70,40
401.97507,402.08618,65,70,40
402.08618,402.38248,72,70,40
402.5306,402.8269,70,70,40
402.97507,403.27136,72,70,40
403.4195,403.7158,65,70,40
403.86395,403.97507,82,70,40
403.97507,404.08618,84,70,40
404.08618,404.1973,82,70,40
404.1973,404.30377,81,70,40
404.3084,404.4195,81,70,40
404.4195,404.5306,82,70,40
404.5306,404.64172,81,70,40
404.64172,404.7482,79,70,40
404.75284,404.86395,79,70,40
404.86395,404.97507,81,70,40
404.97507,405.08618,79,70,40
405.08618,405.1973,77,70,40
405.1973,405.3084,75,70,40
405.3084,405.4195,74,70,40
405.4195,405.5306,72,70,40
405.5306,405.64172,70,70,40
405.64172,406.1973,75,70,40
406.1973,406.30838,74,72,40
406.30838,406.4195,72,72,40
406.4195,406.5306,75,72,40
406.5306,406.69266,69,73,40
406.75284,407.08154,74,74,40
407.08618,407.1973,72,75,40
407.1973,407.30838,70,75,40
407.30838,407.4195,74,75,40
407.4195,407.5306,72,76,40
407.5306,407.64172,74,76,40
407.64172,407.75284,72,77,40
407.75284,407.86395,70,77,40
407.86395,407.97507,69,77,40
407.97507,408.08618,70,78,40
408.08618,408.1973,69,78,40
408.1973,408.30838,67,78,40
408.30838,408.60468,65,79,40
408.75284,408.86395,67,80,40
408.86395,408.97507,69,81,40
408.97507,409.08618,67,81,40
409.08618,409.1973,65,81,40
409.1973,409.3593,63,82,40
409.4195,409.58154,72,82,40
409.64172,409.75284,74,83,40
409.75284,409.86395,75,84,40
409.86395,409.97507,74,84,40
409.97507,410.08618,72,84,40
410.08618,410.19727,70,85,40
410.19727,410.30838,72,85,40
410.30838,410.4195,70,85,40
410.4195,410.5306,69,86,40
410.5306,410.64172,67,86,40
410.64172,410.75284,69,86,40
410.75284,410.86395,67,87,40
410.86395,410.97507,65,87,40
410.97507,411.08618,63,88,40
411.08618,411.19727,65,88,40
411.19727,411.30838,63,88,40
411.30838,411.4195,62,89,40
411.4195,411.58154,60,89,40
411.64172,411.80377,67,90,40
411.86395,412.02597,69,110,40
412.08618,412.2482,70,91,40
412.30838,412.47043,69,92,40
412.5306,412.69266,70,93,40
412.75284,412.91486,72,115,40
412.97507,413.1371,74,94,40
413.19727,413.3593,72,95,40
413.4195,413.58154,74,96,40
413.64172,413.80377,75,120,40
413.86395,414.02597,76,97,40
414.08615,414.2519,77,98,40
414.31345,414.48434,65,99,40
414.54782,414.7242,77,99,40
414.78973,414.97205,77,100,40
415.03973,415.15512,77,125,40
415.15512,415.2705,79,110,40
415.2705,415.38162,77,110,40
415.38162,415.49274,75,110,40
415.49274,415.60385,74,110,40
415.60385,415.71497,75,110,40
415.71497,415.82608,74,110,40
415.82608,415.93256,72,110,40
415.9372,416.04828,72,125,40
416.04828,416.1594,70,110,40
416.1594,416.2705,69,110,40
416.2705,416.38162,70,110,40
416.38162,416.49274,72,110,40
416.49274,416.60385,70,110,40
416.60385,416.71497,69,110,40
416.71497,416.82608,67,110,40
416.82608,417.4881,70,125,40
417.49274,417.60385,72,110,40
417.60385,417.71033,74,110,40
417.71497,417.93256,74,125,40
417.9372,418.0992,75,110,40
418.1594,418.32144,75,110,40
418.38162,418.54367,75,110,40
418.60385,418.82144,75,125,40
418.82608,418.9881,74,110,40
419.04828,419.21033,74,110,40
419.2705,419.43256,82,110,40
419.49274,419.71033,82,125,40
419.71497,419.87698,81,105,40
419.93716,420.10544,81,95,40
420.16794,420.35025,81,85,40
420.41794,420.60025,82,70,40
420.66794,420.83,70,70,40
420.89017,421.10776,70,70,40
421.1124,421.33,68,70,40
421.33463,421.55222,68,70,40
421.55682,421.7744,67,70,40
421.77905,421.9411,70,70,40
422.00128,422.16333,67,70,40
422.2235,422.4411,67,70,40
422.4457,422.66333,65,70,40
422.66794,422.83,70,70,40
422.89017,423.05222,68,70,40
423.1124,423.33,68,70,40
423.33463,423.55222,67,70,40
423.55682,423.71887,70,70,40
423.77905,423.9411,67,70,40
424.00128,424.21887,67,70,40
424.2235,424.4411,65,70,40
424.4457,424.61398,70,70,40
424.67648,424.84476,63,70,40
424.90726,425.14038,63,70,40
425.14536,425.37848,62,69,40
425.38345,425.56573,70,68,40
425.63345,425.8323,62,67,40
425.9062,426.40097,62,66,40
426.4062,427.65097,60,64,40
427.6562,427.90097,58,58,40
427.9062,428.44595,58,57,40
428.45163,429.53687,57,54,40
429.54254,430.20227,64,50,40
430.2092,431.6988,65,50,40
431.7092,432.1988,65,74,40
432.2092,432.73376,63,82,40
432.7449,433.33243,72,90,40
433.3449,433.9324,70,70,40
433.94492,434.5977,65,70,40
434.61157,435.34595,65,70,40
436.11157,436.63614,65,70,40
436.6473,437.17184,74,70,40
437.183,438.779,75,70,40
438.79016,439.3147,71,88,40
439.32587,439.89078,72,94,40
439.9028,440.51477,75,100,40
440.5278,441.87723,75,70,40
441.89142,442.55905,74,70,40
443.25507,444.73944,57,50,40
444.75507,445.22266,58,110,40
445.2273,445.3893,70,110,40
445.4495,445.61154,70,110,40
446.1406,446.32288,75,110,40
446.3906,446.60934,75,90,40
446.69058,447.68018,75,70,40
447.69058,448.18018,72,70,40
448.69058,449.87808,59,50,40
449.8906,450.3582,60,110,40
450.36282,450.52484,69,110,40
450.58505,450.74707,69,110,40
451.27612,451.4584,69,110,40
451.52612,451.74487,69,90,40
451.8261,452.8157,69,70,40
452.8261,453.35068,70,70,40
453.89755,455.08505,61,50,40
455.09756,455.56516,62,110,40
455.56976,455.7318,62,110,40
455.792,455.95404,62,110,40
456.45865,456.6207,74,88,40
456.68088,456.84293,74,76,40
456.9031,457.34293,74,70,40
457.34756,457.56516,73,72,40
457.56976,457.78735,73,73,40
457.792,458.2318,73,74,40
458.23645,458.45404,72,76,40
458.45865,458.67624,72,77,40
458.68088,459.1207,72,78,40
459.12534,459.34293,74,80,40
459.34753,459.56516,74,81,40
459.56976,460.00958,74,82,40
460.01422,460.2318,75,84,40
460.23645,460.45404,73,85,40
460.45865,460.89847,73,86,40
460.9031,461.1207,72,88,40
461.12534,461.34293,72,89,40
461.34753,461.78735,72,90,40
461.792,462.00958,70,92,40
462.01422,462.2318,70,93,40
462.23642,462.89847,70,94,40
462.9031,463.1207,70,97,40
463.12534,463.813,70,98,40
463.81796,464.06274,70,85,40
464.06796,464.51633,70,70,40
464.52097,464.96075,72,78,40
464.9654,465.4052,74,87,40
465.40985,465.84967,72,96,40
465.85428,466.2941,70,100,40
466.29874,466.73856,69,89,40
466.74316,467.18298,72,77,40
467.18762,467.65527,63,65,40
467.6603,468.11984,62,50,40
469.45782,469.5689,57,50,40
469.5689,469.68002,55,50,40
469.68002,469.79114,57,50,40
469.79114,469.90225,58,50,40
469.90225,470.01337,60,50,40
470.01337,470.12448,58,50,40
470.12448,470.2356,60,50,40
470.2356,470.3467,62,50,40
470.3467,470.4578,63,50,40
470.4578,470.5689,62,50,40
470.5689,470.68002,63,50,40
470.68002,470.79114,65,50,40
470.79114,470.90225,67,50,40
470.90225,471.01337,65,50,40
471.01337,471.12448,67,50,40
471.12448,471.23096,69,50,40
471.2356,473.00873,70,50,40
473.01337,473.12448,57,50,40
473.12448,473.2356,55,50,40
473.2356,473.3467,57,50,40
473.3467,473.4578,58,50,40
473.4578,473.5689,60,50,40
473.5689,473.68002,58,50,40
473.68002,473.79114,60,50,40
473.79114,473.90225,62,50,40
473.90225,474.01337,63,50,40
474.01337,474.12448,62,50,40
474.12448,474.2356,63,50,40
474.2356,474.34668,65,50,40
474.34668,474.46033,67,50,40
474.46033,474.57397,65,50,40
474.57397,474.69116,67,50,40
474.69116,474.80347,69,50,40
474.80835,475.15503,65,50,40
475.2771,475.448,63,50,40
475.51147,475.68787,63,50,40
475.7534,476.1232,62,70,40
476.2534,476.45227,72,110,40
476.2534,476.45227,65,110,40
476.52612,476.79956,72,110,40
476.52612,476.79956,65,110,40
476.90112,477.6433,58,110,40
476.90112,477.6433,65,110,40
476.90112,477.6433,74,110,40
0.0,0.091265686,46,1,41
0.70484656,1.6944299,58,70,41
1.7048465,3.1944299,57,75,41
3.2048466,3.6944299,56,90,41
3.7048466,4.2293997,55,95,41
4.2405605,4.8280606,55,100,41
4.8405604,6.093338,53,80,41
6.107227,6.7600045,53,70,41
7.44056,8.430143,53,70,41
8.44056,9.930143,53,75,41
9.94056,10.430143,53,90,41
10.44056,10.965114,55,95,41
10.9762745,11.563774,53,100,41
11.576274,13.577315,53,80,41
14.8786545,15.403208,53,70,41
15.414369,17.01035,53,75,41
18.09294,18.617493,48,105,41
18.09294,18.617493,55,105,41
18.628653,19.68892,48,110,41
18.628653,19.68892,55,110,41
19.70008,21.296062,67,110,41
21.307222,21.595684,64,100,41
21.595684,21.915129,65,85,41
21.929018,23.05357,65,70,41
32.479393,33.003944,53,70,41
33.015106,33.539658,53,70,41
33.55082,34.075375,53,70,41
34.086533,34.651436,55,70,41
34.663456,35.275436,55,70,41
35.288456,35.85336,55,70,41
35.86538,36.389935,53,72,41
36.401093,36.925648,53,75,41
36.93681,37.46136,53,78,41
37.472523,38.037426,53,81,41
38.049446,38.661423,53,84,41
38.674446,39.198997,48,86,41
39.21016,39.73471,55,89,41
39.745872,40.270428,53,92,41
40.281586,40.80614,58,95,41
40.8173,41.341854,56,98,41
41.353016,41.877567,54,100,41
41.88873,42.41328,54,100,41
42.424442,42.948997,53,94,41
42.960155,43.48471,51,88,41
43.495872,44.020424,50,82,41
44.031586,44.59649,51,76,41
44.60851,45.220486,53,70,41
45.23351,46.242435,55,70,41
46.257317,46.673985,58,93,41
46.673985,47.663567,60,100,41
47.673985,49.663567,57,70,41
52.376972,53.73345,60,70,41
52.376972,53.73345,69,70,41
56.000233,57.34481,70,70,41
57.349438,57.45592,62,81,41
57.46055,57.56703,60,83,41
57.57166,57.678143,62,84,41
57.68277,57.789253,63,86,41
57.793884,57.900364,65,88,41
57.904995,58.011475,67,89,41
58.016106,58.122585,65,91,41
58.127216,58.233696,63,92,41
58.238327,58.344807,62,94,41
58.349438,58.455917,60,96,41
58.46055,58.567028,58,97,41
58.57166,58.678143,57,99,41
58.68277,58.79167,55,101,41
58.796406,58.905308,53,102,41
58.91004,59.022346,51,104,41
59.02723,59.139534,50,106,41
59.144417,59.32671,48,107,41
59.394417,59.613167,58,110,41
59.69442,60.684002,60,110,41
63.69442,64.184,55,82,41
64.19442,64.684,54,88,41
64.69442,65.21897,53,94,41
65.23013,65.817635,50,100,41
65.83013,66.41763,48,80,41
66.43013,67.01763,59,70,41
67.03013,67.61763,60,70,41
67.630135,68.21763,58,70,41
68.23013,69.2904,53,70,41
69.30156,70.93789,52,70,41
70.94991,71.56189,51,88,41
71.57491,72.24252,50,94,41
72.25673,72.92434,52,100,41
72.938545,73.60616,52,90,41
73.62036,77.24705,53,84,41
77.91834,78.024826,69,110,41
78.02946,78.13593,68,110,41
78.140564,78.24705,69,110,41
78.25168,78.358154,67,110,41
78.362785,78.46927,65,110,41
78.4739,78.580376,64,110,41
78.58501,78.69149,65,110,41
78.69612,78.802605,64,110,41
78.80723,78.91371,62,110,41
78.91834,79.024826,64,110,41
79.02945,79.13593,62,110,41
79.140564,79.24705,60,110,41
79.25168,79.358154,58,110,41
79.362785,79.46927,60,110,41
79.4739,79.580376,58,110,41
79.58501,79.69149,57,110,41
79.69612,79.808426,55,110,41
79.81331,79.92561,57,110,41
79.9305,80.050285,55,100,41
80.0555,80.175285,53,90,41
80.1805,80.300285,53,70,41
80.3055,80.425285,52,70,41
80.4305,80.53697,50,70,41
80.5416,80.64809,52,70,41
80.65272,80.7592,55,70,41
80.763824,80.87031,60,70,41
80.87494,80.98142,64,70,41
80.986046,81.09253,65,70,41
81.09716,81.20364,67,70,41
81.208275,81.31475,60,70,41
81.31938,81.425865,52,80,41
81.4305,81.53697,53,90,41
81.5416,81.64809,55,110,41
81.65272,81.75919,57,110,41
81.763824,81.87031,55,110,41
81.87494,81.981415,65,110,41
81.986046,82.09253,64,110,41
82.09716,82.20364,65,110,41
82.20827,82.31475,64,110,41
82.31938,82.425865,62,110,41
82.43049,82.53697,60,110,41
82.5416,82.64809,62,110,41
82.65272,82.75919,60,110,41
82.763824,82.87031,58,110,41
82.87494,82.981415,57,110,41
82.986046,83.09253,58,110,41
83.09716,83.203636,57,110,41
83.20827,83.31475,55,110,41
83.31938,83.43169,53,110,41
83.43657,83.548874,53,110,41
83.55376,83.673546,53,100,41
83.67876,83.798546,52,90,41
83.80376,83.923546,58,70,41
83.92876,84.048546,57,70,41
84.05376,84.16024,55,70,41
84.16486,84.27135,57,70,41
84.27598,84.38246,53,70,41
84.387085,84.49357,57,70,41
84.4982,84.60468,60,70,41
84.60931,84.71579,65,70,41
84.72042,84.826904,60,70,41
84.831535,84.93801,58,70,41
84.94264,85.049126,57,70,41
85.05376,85.16023,55,70,41
85.16486,85.27135,53,70,41
85.27598,85.382454,53,70,41
85.387085,85.49357,53,70,41
85.4982,85.60468,52,70,41
85.60931,85.71579,48,70,41
85.72042,85.826904,48,71,41
85.83153,85.93801,50,72,41
85.94264,86.049126,52,73,41
86.05376,86.16023,53,74,41
86.16486,86.27135,55,75,41
86.27598,86.382454,57,76,41
86.387085,86.49357,58,77,41
86.4982,86.604675,60,78,41
86.60931,86.71579,62,79,41
86.72042,86.8269,64,80,41
86.83153,86.93801,65,81,41
86.94264,87.104675,67,82,41
87.16486,87.3269,65,84,41
87.387085,87.49357,60,86,41
87.4982,87.604675,58,87,41
87.60931,87.71579,60,88,41
87.72042,87.8269,62,89,41
87.83153,87.93801,63,90,41
87.94264,88.04912,65,91,41
88.05375,88.16023,67,92,41
88.16486,88.27135,69,93,41
88.27597,88.382454,70,94,41
88.387085,88.49357,72,95,41
88.49819,88.604675,74,96,41
88.60931,88.71579,75,97,41
88.72042,88.882454,77,98,41
88.94264,89.104675,75,100,41
89.16486,89.27134,50,110,41
89.27597,89.382454,48,110,41
89.387085,89.49356,50,110,41
89.49819,89.604675,51,110,41
89.60931,89.71579,53,110,41
89.72041,89.8269,51,110,41
89.83153,89.93801,53,110,41
89.942635,90.04912,55,110,41
90.05375,90.16023,57,110,41
90.16486,90.27134,55,110,41
90.27597,90.382454,57,110,41
90.387085,90.49356,58,110,41
90.49819,90.60877,60,110,41
90.61358,90.72415,58,110,41
90.728966,90.84305,60,100,41
90.84801,90.9621,62,90,41
90.96706,91.08115,55,70,41
91.086105,91.200195,53,70,41
91.205154,91.31163,52,70,41
91.31626,91.422745,53,70,41
91.427376,91.53385,57,70,41
91.53848,91.644966,60,70,41
91.6496,91.75608,65,70,41
91.760704,91.86719,67,70,41
91.87182,91.9783,69,70,41
91.982925,92.08941,67,70,41
92.09404,92.20052,69,80,41
92.205154,92.31163,70,90,41
92.31626,92.422745,72,110,41
92.427376,92.53385,74,110,41
92.53848,92.644966,72,110,41
92.6496,92.75607,70,110,41
92.760704,92.86719,69,110,41
92.87182,92.9783,70,110,41
92.982925,93.08941,69,110,41
93.09404,93.20052,67,110,41
93.20515,93.31163,65,110,41
93.31626,93.422745,67,110,41
93.427376,93.53385,65,110,41
93.53848,93.644966,63,110,41
93.6496,93.75607,62,110,41
93.760704,93.86719,63,110,41
93.87182,93.978294,62,110,41
93.982925,94.08941,60,110,41
94.09404,94.20461,58,110,41
94.20942,94.32,60,110,41
94.32481,94.440735,58,100,41
94.44578,94.5617,57,90,41
94.56674,94.68267,63,70,41
94.687706,94.803635,62,70,41
94.80868,94.91516,60,70,41
94.919785,95.02627,62,70,41
95.0309,95.13738,65,70,41
95.14201,95.24849,62,70,41
95.25312,95.359604,60,70,41
95.364235,95.47071,58,70,41
95.47534,95.581825,63,70,41
95.58646,95.69293,62,71,41
95.69756,95.80405,60,72,41
95.80868,95.91516,62,73,41
95.919785,96.02627,65,74,41
96.0309,96.13738,62,75,41
96.142006,96.24849,60,76,41
96.25312,96.359604,59,77,41
96.36423,96.47071,53,78,41
96.47534,96.581825,56,79,41
96.58646,96.69293,62,80,41
96.69756,96.80405,62,81,41
96.80868,96.91515,65,82,41
96.919785,97.02627,62,83,41
97.0309,97.137375,60,84,41
97.142006,97.24849,59,85,41
97.25312,97.359604,55,86,41
97.36423,97.47071,55,87,41
97.47534,97.581825,55,88,41
97.58645,97.69293,55,89,41
97.69756,97.80405,65,91,41
97.80868,97.91515,65,92,41
97.919785,98.02627,63,93,41
98.0309,98.137375,63,94,41
98.142006,98.24849,58,95,41
98.25312,98.3596,58,96,41
98.36423,98.47071,58,97,41
98.47534,98.58182,58,98,41
98.58645,98.69293,65,99,41
98.69756,98.80405,65,100,41
98.80867,98.91515,53,101,41
98.919785,99.02627,53,102,41
99.03089,99.13979,58,103,41
99.14453,99.25343,58,104,41
99.25817,99.367065,58,105,41
99.3718,99.480705,58,106,41
99.48544,99.59775,57,107,41
99.60263,99.714935,57,108,41
99.71982,99.83574,60,109,41
99.84078,99.96057,60,110,41
99.96578,100.14807,58,110,41
100.21578,100.37782,53,110,41
100.438,100.600044,53,110,41
100.660225,100.822266,51,110,41
100.88245,101.04449,53,110,41
101.10467,101.26671,58,100,41
101.32689,101.48893,58,90,41
101.54912,101.71115,58,80,41
101.77134,101.93337,58,70,41
101.99356,102.155594,62,70,41
102.21578,102.377815,63,70,41
102.438,102.60004,64,70,41
102.660225,102.82226,65,70,41
102.88245,103.04449,67,70,41
103.10467,103.26671,69,70,41
103.32689,103.48893,65,70,41
103.54911,103.71115,58,110,41
103.77133,103.93337,53,110,41
103.99355,104.155594,53,110,41
104.21578,104.377815,60,110,41
104.438,104.60004,62,110,41
105.10467,105.2667,65,76,41
105.32689,105.48892,67,70,41
105.54911,105.660225,59,70,41
105.660225,105.77133,62,70,41
105.77133,105.93337,60,70,41
105.99355,106.155594,60,70,41
106.215775,106.377815,60,79,41
106.437996,106.60004,67,88,41
106.66022,106.82226,69,97,41
106.88245,106.99355,60,106,41
106.99355,107.10467,63,110,41
107.10467,107.21114,62,110,41
107.215775,107.32226,60,110,41
107.32689,107.433365,58,110,41
107.437996,107.54448,57,110,41
107.54911,107.65559,58,110,41
107.66022,107.7667,60,110,41
107.77133,107.877815,62,110,41
107.88244,107.98892,63,110,41
107.99355,108.15559,65,110,41
108.215775,108.32226,65,110,41
108.32689,108.433365,67,110,41
108.437996,108.54448,65,110,41
108.54911,108.65559,63,110,41
108.66022,108.7667,62,110,41
108.77133,108.87781,60,110,41
108.88244,108.98892,62,110,41
108.99355,109.10004,60,110,41
109.10466,109.21114,58,110,41
109.215775,109.32226,57,110,41
109.32688,109.433365,58,110,41
109.437996,109.54448,60,110,41
109.5491,109.65559,62,110,41
109.66022,109.7667,63,110,41
109.77133,109.933365,65,110,41
109.99355,110.10003,65,110,41
110.10466,110.21114,67,110,41
110.215775,110.32225,65,110,41
110.32688,110.433365,63,110,41
110.437996,110.54448,62,110,41
110.5491,110.65559,60,110,41
110.66022,110.82225,62,125,41
110.88244,110.98892,62,110,41
110.99355,111.10003,63,110,41
111.10466,111.21114,62,110,41
111.215775,111.32225,60,110,41
111.32688,111.433365,58,110,41
111.437996,111.54447,57,110,41
111.5491,111.71114,58,125,41
111.771324,111.87781,58,110,41
111.88244,111.98892,60,110,41
111.993546,112.10003,58,110,41
112.10466,112.21114,57,110,41
112.21577,112.32225,55,110,41
112.32688,112.433365,54,110,41
112.437996,112.60003,55,125,41
112.66022,112.76669,55,110,41
112.771324,112.87781,57,110,41
112.88244,112.988914,55,110,41
112.993546,113.10003,53,110,41
113.10466,113.21114,52,110,41
113.21577,113.32225,50,110,41
113.32688,113.488914,48,125,41
113.5491,113.65559,60,110,41
113.66022,113.76669,62,110,41
113.771324,113.87781,60,110,41
113.88244,113.988914,58,110,41
113.993546,114.10003,57,110,41
114.10466,114.211136,55,110,41
114.21577,114.37781,53,110,41
114.43799,114.60003,72,110,41
114.66021,114.82225,69,125,41
114.88243,115.04447,65,110,41
115.10466,115.26669,63,125,41
115.32688,115.488914,60,110,41
115.5491,115.711136,57,125,41
115.771324,115.93336,53,110,41
115.993546,116.15558,51,125,41
116.21577,116.3778,50,110,41
116.43799,116.60003,53,125,41
116.66021,116.82225,58,110,41
116.88243,117.04447,62,125,41
117.10465,117.26669,65,110,41
117.32687,117.488914,70,125,41
117.549095,117.711136,64,110,41
117.771324,117.93336,65,125,41
117.993546,118.15558,72,110,41
118.21577,118.3778,69,125,41
118.43799,118.60002,65,110,41
118.66021,118.82224,63,125,41
118.88243,119.044464,60,110,41
119.10465,119.26669,57,125,41
119.32687,119.488914,53,110,41
119.549095,119.711136,51,125,41
119.77132,119.93336,50,110,41
119.99354,120.15558,53,125,41
120.21576,120.3778,58,110,41
120.43799,120.60002,62,125,41
120.66021,120.82224,65,110,41
120.88243,121.044464,70,125,41
121.10465,121.266685,74,110,41
121.32687,121.766685,65,110,41
123.104645,123.65557,48,125,41
123.6602,123.766685,50,110,41
123.77132,123.87779,52,110,41
123.88242,123.98891,53,110,41
123.99354,124.544464,48,110,41
123.99354,124.544464,55,110,41
124.549095,124.65557,48,110,41
124.6602,124.766685,50,110,41
124.77132,124.87779,52,110,41
124.88242,125.10001,53,110,41
125.326866,125.544464,54,105,41
125.77131,125.98891,55,100,41
126.21576,126.43335,56,94,41
126.6602,126.87779,57,88,41
127.104645,127.32718,58,82,41
127.55919,127.79233,59,76,41
128.03539,128.28017,60,70,41
128.53539,129.86407,49,70,41
132.97981,133.86407,48,70,41
133.86871,134.75296,49,70,41
134.7576,135.64186,56,70,41
135.64648,136.53075,58,70,41
140.09093,141.86407,48,110,41
141.8687,142.2437,49,90,41
142.31314,142.68814,54,100,41
142.75758,143.64185,53,70,41
143.64647,144.53073,54,70,41
144.53537,145.43971,51,70,41
145.44446,146.40715,63,70,41
146.4122,147.07423,53,70,41
147.07886,147.29645,54,70,41
147.30109,147.74089,56,70,41
148.20007,149.65915,58,70,41
149.66435,149.74306,49,70,41
149.77547,149.85417,58,50,41
149.88658,149.96529,56,50,41
149.9977,150.07639,54,50,41
150.1088,150.54861,53,50,41
150.66435,150.74306,54,50,41
150.77547,150.85417,53,50,41
150.88658,150.96529,51,50,41
150.99768,151.4375,49,50,41
151.55324,151.63194,53,50,41
151.66435,151.74306,54,50,41
151.77547,151.85417,56,50,41
151.88658,152.32639,49,50,41
153.33102,153.40973,54,50,41
153.44212,153.52083,53,50,41
153.55324,153.63194,51,50,41
153.66435,154.10417,50,50,41
154.21991,154.29861,51,50,41
154.33102,154.40971,49,50,41
154.44212,154.52083,59,50,41
154.55324,154.99306,58,50,41
155.1088,155.1875,53,50,41
155.21991,155.29861,53,50,41
155.33102,155.40971,53,50,41
155.44212,155.88194,54,50,41
155.99768,156.07639,54,50,41
156.1088,156.1875,54,51,41
156.21991,156.29861,54,52,41
156.33101,156.77083,54,53,41
156.88657,156.96527,54,59,41
156.99768,157.07639,53,60,41
157.1088,157.1875,51,61,41
157.21991,157.65971,53,62,41
157.77545,157.85416,53,68,41
157.88657,157.96527,53,69,41
157.99768,158.07639,53,71,41
158.1088,158.5486,54,72,41
158.66435,158.74306,54,78,41
158.77545,158.85416,54,79,41
158.88657,158.96527,54,80,41
158.99768,159.4375,54,81,41
159.55751,159.63924,54,87,41
159.6729,159.75462,54,88,41
159.78828,159.87396,54,89,41
159.90924,160.38808,56,90,41
160.39311,161.27737,49,50,41
161.282,162.16626,51,50,41
162.17088,163.05515,53,50,41
163.05978,163.49959,54,65,41
163.50423,163.94403,56,81,41
163.94867,164.38847,53,96,41
164.39311,164.72182,49,70,41
164.83755,165.16626,58,70,41
165.282,165.6107,56,70,41
165.72644,166.05515,61,70,41
166.17088,166.6107,66,70,41
166.61533,167.05515,65,79,41
167.05977,167.49959,63,89,41
167.50421,167.94403,56,100,41
167.94867,168.38847,49,70,41
168.39311,168.50421,51,70,41
168.50421,168.61533,53,70,41
168.61533,168.72644,51,70,41
168.72644,168.83292,54,70,41
168.83755,168.95119,54,70,41
168.95119,169.06482,56,70,41
169.06482,169.17847,54,70,41
169.17847,169.2921,53,70,41
169.2921,169.41115,54,70,41
169.41115,169.5302,56,70,41
169.5302,169.6552,54,70,41
169.6552,169.7802,53,70,41
169.7802,170.24779,54,70,41
172.03018,172.1413,56,70,41
172.1413,172.25241,58,70,41
172.25241,172.36353,56,70,41
172.36353,172.47464,54,70,41
172.47464,172.80333,53,70,41
172.91908,173.24779,65,70,41
173.36353,173.80333,58,70,41
173.80797,173.91908,56,79,41
173.91908,174.03018,58,81,41
174.03018,174.1413,56,84,41
174.1413,174.24777,54,86,41
174.25241,174.58112,54,89,41
174.69685,174.80797,66,98,41
174.80797,174.91907,68,100,41
174.91907,175.03018,66,90,41
175.03018,175.1413,65,80,41
175.1413,175.47,63,70,41
175.58574,175.91444,63,70,41
176.03018,176.35889,65,70,41
176.47462,176.58574,61,70,41
176.58574,176.69685,58,70,41
176.69685,176.80797,56,70,41
176.80797,176.91444,54,70,41
176.91907,177.03018,54,70,41
177.03018,177.1413,56,70,41
177.1413,177.25241,54,70,41
177.25241,177.36351,53,70,41
177.36351,177.47462,65,70,41
177.47462,177.58574,66,70,41
177.58574,177.69685,65,70,41
177.69685,177.80333,63,70,41
177.80797,177.91907,63,70,41
177.91907,178.03018,61,70,41
178.03018,178.1413,59,70,41
178.1413,178.24777,58,70,41
178.25241,178.5811,58,70,41
178.69685,179.02556,56,70,41
179.1413,179.47,58,70,41
179.58574,179.91444,49,70,41
180.47462,180.58574,68,70,41
180.58574,180.69685,70,70,41
180.69685,180.80795,68,71,41
180.80795,180.91907,66,71,41
180.91907,181.24777,65,72,41
181.36351,181.47462,66,74,41
181.47462,181.58574,68,74,41
181.58574,181.69684,66,75,41
181.69684,181.80795,65,75,41
181.80795,182.13666,63,76,41
182.69684,182.80795,66,80,41
182.80795,182.91907,68,80,41
182.91907,183.03018,66,81,41
183.03018,183.14128,65,81,41
183.14128,183.46999,63,82,41
183.58574,183.91443,53,84,41
184.03018,184.35889,65,86,41
184.47462,184.58574,63,88,41
184.58574,184.69684,68,89,41
184.69684,184.80795,66,89,41
184.80795,184.91907,65,90,41
184.91907,185.03018,63,90,41
185.03018,185.14128,65,91,41
185.14128,185.2524,63,91,41
185.2524,185.36351,61,92,41
185.36351,185.47462,59,92,41
185.47462,185.58572,61,93,41
185.58572,185.69684,59,93,41
185.69684,185.80795,58,94,41
185.80795,185.96999,56,94,41
186.03018,186.19221,68,95,41
186.2524,186.41443,49,120,41
186.47462,186.63666,53,98,41
186.69684,186.85887,49,99,41
186.91907,187.0811,61,100,41
187.14128,187.30331,49,120,41
187.36351,187.52554,61,102,41
187.58572,187.74777,49,103,41
187.80795,187.96999,61,104,41
188.03017,188.19221,49,125,41
188.2524,188.41443,56,106,41
188.47461,188.64034,53,107,41
188.70189,188.87279,61,108,41
188.93626,189.11267,49,109,41
189.17819,189.36049,56,110,41
189.42819,189.55319,54,110,41
189.55319,189.67819,56,110,41
189.67819,189.7893,54,110,41
189.7893,189.90042,53,110,41
189.90042,190.01154,54,110,41
190.01154,190.12265,56,110,41
190.12265,190.23375,54,110,41
190.23375,190.34486,53,110,41
190.34486,190.45598,54,110,41
190.45598,190.5671,56,110,41
190.5671,190.67819,54,110,41
190.67819,190.7893,53,110,41
190.7893,190.90042,54,110,41
190.90042,191.01154,56,110,41
191.01154,191.12263,54,110,41
191.12263,191.23375,53,110,41
191.23375,191.34486,54,110,41
191.34486,191.45598,56,110,41
191.45598,191.5671,54,110,41
191.5671,191.67357,53,110,41
191.67819,191.7893,53,110,41
191.7893,191.90042,54,110,41
191.90042,192.01154,53,110,41
192.01154,192.11801,51,110,41
192.12263,192.23375,51,110,41
192.23375,192.34486,53,110,41
192.34486,192.45598,51,110,41
192.45598,192.56708,49,110,41
192.56708,192.67819,51,110,41
192.67819,192.7893,53,110,41
192.7893,192.90042,51,110,41
192.90042,193.0069,49,110,41
193.01154,193.89578,49,125,41
193.90042,194.34023,49,125,41
194.34486,194.45598,51,100,41
194.45598,194.56708,49,93,41
194.56708,194.67819,51,85,41
194.67819,194.7893,53,77,41
194.7893,194.95134,54,70,41
195.01152,195.17357,54,70,41
195.23375,195.45134,54,70,41
195.45598,195.67357,52,70,41
195.67819,195.89578,52,70,41
195.90042,196.11801,51,70,41
196.12263,196.28467,54,70,41
196.34486,196.5069,51,70,41
196.56708,196.78467,51,70,41
196.7893,197.0069,49,70,41
197.01152,197.17357,54,70,41
197.23375,197.39578,52,70,41
197.45596,197.67357,52,70,41
197.67819,197.89578,51,70,41
197.9004,198.06245,54,70,41
198.12263,198.28467,51,70,41
198.34486,198.56245,51,60,41
198.56708,198.78467,49,60,41
198.7893,198.95134,54,60,41
199.01152,199.17355,59,60,41
199.23375,199.45628,59,60,41
199.46101,199.6905,58,60,41
199.69539,199.87181,66,60,41
199.93733,200.11961,54,60,41
200.18733,200.78108,54,50,41
200.78732,202.77692,53,50,41
202.78732,208.11053,54,100,41
208.12305,209.31055,53,70,41
213.6962,214.68578,50,70,41
214.6962,216.18578,52,70,41
216.1962,216.68578,54,88,41
216.6962,217.22075,55,94,41
217.2319,217.81941,55,100,41
217.83191,219.01941,55,80,41
219.0319,220.2194,54,70,41
225.17429,225.66388,55,50,41
225.67429,226.73456,55,50,41
226.74573,227.93323,54,50,41
228.44572,228.9353,61,50,41
228.94572,230.00598,61,50,41
230.01715,231.20465,62,50,41
231.71715,232.20673,55,50,41
232.21715,232.71194,55,70,41
232.71715,232.96194,54,70,41
233.21715,233.67387,55,70,41
233.67868,233.90465,54,70,41
234.14023,234.58003,55,70,41
234.58467,234.80226,54,70,41
235.02911,235.46893,55,70,41
235.47356,235.69115,54,70,41
235.918,236.35782,62,70,41
236.36244,236.58003,54,70,41
236.80688,237.2467,62,70,41
237.25133,237.46892,54,70,41
237.69577,238.13559,54,70,41
238.14021,238.35782,50,70,41
238.58467,239.02448,57,70,41
239.02911,239.2467,50,70,41
239.47356,239.91336,55,70,41
239.918,240.13559,54,70,41
240.36244,240.80226,55,70,41
240.80688,241.02448,54,70,41
241.25133,241.69115,55,70,41
241.69577,241.91336,54,70,41
242.14021,242.58003,55,70,41
242.58466,242.80225,54,70,41
243.0291,243.46892,48,70,41
243.47354,243.69115,50,70,41
243.918,244.3578,48,70,41
244.36244,244.58003,50,70,41
244.80688,245.24669,48,70,41
245.25133,245.46892,50,70,41
245.69577,246.13559,48,70,41
246.14021,246.3578,50,70,41
246.58466,247.02448,50,70,41
247.0291,247.24669,55,70,41
247.47354,247.91336,50,70,41
247.91798,248.13557,55,70,41
248.36243,248.80225,62,70,41
248.80687,249.02448,60,70,41
249.25133,249.69113,62,70,41
249.69577,249.91336,60,70,41
250.14021,250.58002,60,70,41
250.14021,250.80225,50,70,41
250.58466,250.80225,59,70,41
251.0291,251.46892,60,70,41
251.0291,251.69113,50,70,41
251.47354,251.69113,59,70,41
251.91798,252.3578,60,70,41
251.91798,252.58002,50,70,41
252.36243,252.58002,59,70,41
252.80687,252.91336,60,70,41
252.91798,253.02446,62,70,41
253.0291,253.13557,60,70,41
253.14021,253.24669,59,70,41
252.80687,253.4689,50,70,41
253.25131,253.4689,59,70,41
253.69576,254.13557,57,70,41
254.1402,254.3578,55,70,41
254.58466,255.02446,59,70,41
255.0291,255.24669,55,70,41
255.47354,255.91335,59,70,41
255.91798,256.13556,55,70,41
256.36243,256.80225,59,70,41
256.80685,257.02448,55,70,41
257.2513,257.69113,57,70,41
257.69577,257.91336,50,70,41
258.1402,258.58002,57,70,41
258.58466,258.80225,50,70,41
259.02908,259.4689,57,70,41
259.47354,259.69113,54,70,41
259.91797,260.3578,52,70,41
260.36243,260.58002,54,70,41
260.80685,261.24667,54,70,41
261.2513,261.4689,55,70,41
261.69574,262.13556,52,70,41
262.1402,262.3578,54,70,41
262.58466,263.02444,54,70,41
263.02908,263.24667,55,70,41
263.47354,263.91333,52,70,41
263.91797,264.13556,54,70,41
264.36243,264.80225,50,70,41
264.80685,265.02444,53,70,41
265.2513,265.69113,50,70,41
265.69574,265.91333,53,70,41
266.1402,266.58002,51,70,41
266.58463,266.80222,55,70,41
267.02908,267.4689,51,70,41
267.4735,267.69113,55,70,41
267.91797,268.3578,51,70,41
268.36243,268.58002,55,70,41
268.80685,269.24667,51,70,41
269.2513,269.4689,55,70,41
269.69574,270.13556,51,70,41
270.1402,270.3578,55,70,41
270.58463,271.02444,51,70,41
271.02908,271.24667,55,70,41
271.4735,271.91333,51,70,41
271.91797,272.13556,55,70,41
272.3624,272.80222,51,70,41
272.80685,273.02444,55,70,41
273.25128,273.6911,52,70,41
273.69574,273.91333,55,70,41
274.1402,274.58,52,70,41
274.58463,274.80222,55,70,41
275.02908,275.46887,48,70,41
275.4735,275.6911,55,65,41
275.91797,276.3578,51,59,41
276.3624,276.58,55,54,41
276.80685,277.24667,48,50,41
277.25128,277.46887,52,50,41
277.69574,278.14554,48,50,41
278.15027,278.37976,51,50,41
278.6266,279.0833,48,50,41
279.08813,279.30573,51,56,41
279.53256,279.97238,48,63,41
279.97702,280.1946,53,69,41
280.42145,280.86127,53,76,41
280.8659,281.0835,60,82,41
281.31036,281.52795,53,89,41
281.53256,281.75015,63,92,41
281.7548,281.86127,65,96,41
281.8659,281.97238,67,97,41
281.97702,282.0835,65,99,41
282.08813,282.1946,63,100,41
282.19925,282.30573,62,110,41
282.31036,282.41684,63,110,41
282.42145,282.52795,62,110,41
282.53256,282.63904,60,110,41
282.64368,282.75015,58,110,41
282.7548,282.86127,60,110,41
282.8659,282.97238,58,110,41
282.97702,283.0835,57,110,41
283.08813,283.1946,55,110,41
283.19925,283.30573,57,110,41
283.31033,283.41684,55,110,41
283.42145,283.52795,53,110,41
283.53256,283.64316,51,110,41
283.64795,283.75854,53,110,41
283.76334,283.88312,51,100,41
283.88834,284.00812,50,90,41
284.01334,284.13312,48,70,41
284.13834,284.25812,60,70,41
284.26334,284.3698,58,70,41
284.37445,284.48093,60,70,41
284.48557,284.59204,57,70,41
284.59668,284.70316,60,70,41
284.7078,284.81427,65,70,41
284.8189,284.92538,67,70,41
284.93,285.0365,69,70,41
285.0411,285.14758,67,70,41
285.15222,285.2587,69,80,41
285.26334,285.3698,70,90,41
285.37445,285.48093,72,110,41
285.48557,285.59204,74,110,41
285.59668,285.70316,72,110,41
285.7078,285.81427,70,110,41
285.81888,285.92538,69,110,41
285.93,286.0365,70,110,41
286.0411,286.14758,69,110,41
286.15222,286.2587,67,110,41
286.26334,286.3698,65,110,41
286.37445,286.48093,67,110,41
286.48557,286.59204,65,110,41
286.59668,286.70316,63,110,41
286.7078,286.81427,62,110,41
286.81888,286.92538,63,110,41
286.93,287.0365,62,110,41
287.0411,287.14758,60,110,41
287.15222,287.2628,58,110,41
287.2676,287.37817,60,110,41
287.383,287.50278,58,100,41
287.508,287.62778,57,90,41
287.633,287.75278,51,70,41
287.758,287.87778,50,70,41
287.883,287.98947,48,70,41
287.9941,288.1006,50,70,41
288.10522,288.2117,53,70,41
288.21634,288.3228,58,70,41
288.32742,288.43393,62,70,41
288.43854,288.54504,65,70,41
288.54965,288.65613,62,70,41
288.66077,288.76724,63,70,41
288.77188,288.87836,62,70,41
288.883,288.98947,60,70,41
288.9941,289.1006,65,70,41
289.10522,289.2117,65,71,41
289.21634,289.3228,67,73,41
289.32742,289.43393,69,75,41
289.43854,289.54504,70,76,41
289.54965,289.65613,48,78,41
289.66077,289.76724,50,80,41
289.77188,289.87836,51,82,41
289.883,289.98947,53,83,41
289.9941,290.1006,55,85,41
290.10522,290.2117,57,87,41
290.21634,290.3228,58,88,41
290.32742,290.43393,60,90,41
290.43854,290.545,62,92,41
290.54965,290.65613,63,94,41
290.66077,290.76724,65,95,41
290.77188,290.93393,72,97,41
290.9941,291.15613,74,100,41
291.2163,291.65613,72,110,41
291.66077,291.8228,72,110,41
291.883,292.045,67,110,41
292.10522,292.545,74,110,41
292.54965,292.7117,67,110,41
292.77188,292.93393,68,110,41
292.9941,293.4339,68,110,41
293.43854,293.6006,69,110,41
293.66077,293.8228,70,110,41
293.883,294.4339,70,110,41
294.43854,294.545,72,110,41
294.54965,294.65613,70,110,41
294.66077,294.76724,68,110,41
294.77188,294.87836,67,110,41
294.883,294.98947,69,110,41
294.9941,295.1006,67,110,41
295.1052,295.2117,65,110,41
295.2163,295.3228,63,110,41
295.32742,295.4339,65,110,41
295.43854,295.545,63,110,41
295.54965,295.65613,62,110,41
295.66077,295.76724,60,110,41
295.77188,295.87836,62,110,41
295.883,295.98947,60,110,41
295.9941,296.1006,58,110,41
296.1052,296.2158,57,110,41
296.22058,296.33118,55,110,41
296.33597,296.45578,57,100,41
296.46097,296.58078,55,90,41
296.58597,297.94244,51,70,41
296.58597,297.94244,55,70,41
298.42786,298.54764,67,110,41
298.55286,298.65933,68,110,41
298.66397,298.77045,67,110,41
298.7751,298.88156,65,110,41
298.8862,298.99268,63,110,41
298.9973,299.1038,65,110,41
299.1084,299.2149,63,110,41
299.2195,299.326,62,110,41
299.33063,299.4371,60,110,41
299.44174,299.54822,62,110,41
299.55286,299.65933,60,110,41
299.66397,299.77045,58,110,41
299.7751,299.88565,56,110,41
299.89047,300.00104,55,110,41
300.00586,300.12564,56,100,41
300.13086,300.25064,55,90,41
300.25586,301.61234,54,70,41
301.61694,302.05676,53,70,41
302.0614,302.94565,53,74,41
302.9503,303.3901,55,83,41
303.39474,303.55676,53,88,41
303.61694,303.779,51,90,41
303.83917,304.279,56,92,41
304.28363,304.44565,55,97,41
304.50583,304.66788,53,99,41
304.72806,305.16788,53,101,41
305.17252,305.33453,51,106,41
305.3947,305.55676,53,108,41
305.61694,306.05676,51,110,41
306.50583,306.61694,62,110,41
306.61694,306.72806,60,110,41
306.72806,306.83917,58,110,41
306.83917,306.9503,57,110,41
306.9503,307.0614,58,110,41
307.0614,307.17252,60,110,41
307.17252,307.28363,62,110,41
307.28363,307.3947,63,110,41
307.3947,307.83453,63,110,41
308.28363,308.3947,62,110,41
308.3947,308.50583,60,110,41
308.50583,308.61694,58,110,41
308.61694,308.72806,57,110,41
308.72806,308.83917,58,110,41
308.83917,308.9503,60,110,41
308.9503,309.0614,62,110,41
309.0614,309.17252,63,110,41
309.17252,309.6123,63,110,41
310.2836,310.3947,65,97,41
310.3947,310.50583,68,93,41
310.50583,310.66788,67,90,41
310.72806,310.8901,70,85,41
310.9503,311.3901,70,70,41
311.83917,311.9503,62,70,41
311.9503,312.0614,60,70,41
312.0614,312.1725,58,70,41
312.1725,312.2836,62,70,41
312.2836,312.3947,65,70,41
312.3947,312.50583,62,70,41
312.50583,312.61694,63,70,41
312.61694,312.72806,65,70,41
312.72806,312.83917,66,70,41
312.83917,312.9503,65,70,41
312.9503,313.0614,63,70,41
313.0614,313.1725,62,70,41
313.1725,313.2836,63,70,41
313.2836,313.3947,65,70,41
313.3947,313.50583,66,70,41
313.50583,313.61694,68,70,41
313.61694,313.72806,62,70,41
313.72806,313.83917,60,70,41
313.83917,313.9503,58,70,41
313.9503,314.0614,62,70,41
314.0614,314.1725,65,70,41
314.1725,314.2836,62,70,41
314.2836,314.3947,63,70,41
314.3947,314.50583,65,70,41
314.50583,314.66788,63,70,41
314.72806,314.89008,56,75,41
314.9503,315.1123,58,80,41
315.1725,315.33453,58,85,41
315.3947,315.55676,60,90,41
315.61694,315.779,55,95,41
315.83917,316.0012,56,100,41
316.06137,316.22342,56,105,41
316.2836,316.72342,56,110,41
317.1725,317.33453,56,110,41
317.3947,317.50583,56,110,41
317.50583,317.61694,58,110,41
317.61694,317.72806,56,110,41
317.72806,317.83917,54,110,41
317.83917,317.9503,53,110,41
317.9503,318.06137,51,110,41
318.06137,318.5012,49,110,41
318.50583,318.61694,66,110,41
318.61694,318.72806,65,110,41
318.72806,318.83917,63,110,41
318.83917,318.95026,61,110,41
318.95026,319.27896,60,110,41
319.3947,319.50583,65,110,41
319.50583,319.61694,63,110,41
319.61694,319.72806,61,110,41
319.72806,319.83917,60,110,41
319.83917,320.16788,61,110,41
320.2836,320.3947,61,110,41
320.3947,320.50583,60,110,41
320.50583,320.61694,58,110,41
320.61694,320.72806,56,110,41
320.72806,320.89008,55,110,41
320.95026,321.06137,63,110,41
321.06137,321.1725,65,110,41
321.1725,321.2836,63,110,41
321.2836,321.3947,61,110,41
321.3947,321.50583,60,110,41
321.50583,321.61694,58,110,41
321.61694,321.77896,56,110,41
321.83917,322.0012,75,110,41
322.06137,322.22342,72,125,41
322.2836,322.44565,68,110,41
322.50583,322.66785,66,125,41
322.72806,322.89008,63,110,41
322.95026,323.1123,60,125,41
323.1725,323.33453,56,110,41
323.3947,323.55676,54,125,41
323.61694,323.77896,53,110,41
323.83914,324.0012,56,125,41
324.06137,324.22342,61,110,41
324.2836,324.44565,65,125,41
324.50583,324.66785,68,110,41
324.72806,324.89008,73,125,41
324.95026,325.1123,67,110,41
325.1725,325.46878,56,110,41
325.61694,325.91324,63,125,41
326.06137,326.94565,68,125,41
326.95026,327.1123,54,125,41
327.1725,327.33453,53,110,41
327.3947,327.55673,56,125,41
327.61694,327.77896,61,110,41
327.83914,328.0012,65,125,41
328.06137,328.22342,68,110,41
328.2836,328.44562,73,125,41
328.50583,328.66785,65,110,41
328.72803,329.16785,68,110,41
329.1725,329.39008,55,105,41
329.6169,329.83453,54,99,41
330.06137,330.27896,53,93,41
330.50583,330.72836,52,87,41
330.96036,331.18985,51,81,41
331.4291,331.66602,50,75,41
331.913,332.15778,49,70,41
332.413,333.74167,48,70,41
333.7463,333.85742,56,70,41
333.85742,333.96854,58,70,41
333.96854,334.07965,56,70,41
334.07965,334.19077,54,70,41
334.19077,335.51947,53,70,41
335.52408,335.6352,53,70,41
335.6352,335.7463,54,70,41
335.7463,335.85742,53,70,41
335.85742,335.96854,51,70,41
335.96854,340.40836,49,70,41
341.52408,341.6352,56,70,41
341.6352,341.7463,55,70,41
341.7463,341.85742,56,70,41
341.85742,341.96854,58,70,41
341.96854,342.07965,56,70,41
342.07965,342.19073,54,70,41
342.19073,343.29724,53,70,41
343.30185,343.41296,53,70,41
343.41296,343.52408,52,70,41
343.52408,343.6352,53,70,41
343.6352,343.7463,54,70,41
343.7463,343.85742,53,70,41
343.85742,343.96854,51,70,41
343.96854,345.74167,49,70,41
345.7463,346.63055,51,70,41
346.6352,347.51944,51,70,41
347.52408,348.40833,53,70,41
348.41296,349.2972,54,70,41
349.30185,350.1861,55,70,41
350.19073,350.63055,56,70,41
350.6352,351.075,54,70,41
351.07962,351.99805,53,70,41
352.00293,353.3416,53,82,41
353.34634,353.8102,52,100,41
353.8151,355.1438,53,70,41
357.37067,358.2549,50,70,41
358.25955,359.1438,58,70,41
359.14844,359.52344,57,70,41
359.59286,359.96786,55,70,41
360.03732,360.41232,53,70,41
360.48178,360.85678,51,70,41
360.9262,361.36603,50,70,41
361.37067,362.92157,53,74,41
362.9262,363.03732,53,89,41
363.03732,363.14844,52,91,41
363.14844,363.25955,53,92,41
363.25955,363.37067,55,93,41
363.37067,363.48175,53,94,41
363.48175,363.59286,51,95,41
363.59286,364.03268,50,96,41
364.48175,365.36603,50,70,41
365.37064,365.81046,62,78,41
365.8151,366.2549,70,83,41
366.25955,366.63455,69,87,41
366.70398,367.07898,67,92,41
367.14844,367.52344,65,96,41
367.59286,367.96786,55,100,41
368.03732,368.92157,53,70,41
368.03732,368.92157,57,70,41
368.9262,369.81046,53,80,41
368.9262,369.81046,58,80,41
369.8151,370.71945,58,90,41
369.8151,370.71945,55,90,41
370.72418,371.6869,58,100,41
370.72418,371.6869,67,100,41
371.69193,372.4127,57,70,41
372.41772,372.65463,59,70,41
372.65967,373.1385,60,70,41
373.6274,374.3722,65,70,41
374.3774,374.64444,63,70,41
374.65012,375.24387,62,70,41
375.25012,375.32883,58,50,41
375.36124,375.43994,62,50,41
375.47235,375.55106,60,50,41
375.58347,375.66217,58,50,41
375.69458,376.1344,57,50,41
376.25012,376.32883,58,50,41
376.36124,376.43994,57,50,41
376.47235,376.55106,55,50,41
376.58347,377.0233,53,50,41
377.139,377.2177,57,50,41
377.25012,377.32883,58,50,41
377.36124,377.43994,60,50,41
377.47235,377.91217,53,50,41
378.91678,378.99548,58,50,41
379.0279,379.1066,57,50,41
379.139,379.2177,55,50,41
379.25012,379.68994,54,50,41
379.80566,379.88437,55,50,41
379.91678,379.99548,54,50,41
380.0279,380.1066,52,50,41
380.139,380.57883,50,50,41
380.69458,380.7733,50,50,41
380.80566,380.88437,50,50,41
380.91678,380.99548,50,50,41
381.0279,381.4677,50,50,41
381.58347,381.66217,50,56,41
381.69458,381.77325,50,57,41
381.80566,381.88437,50,58,41
381.91678,382.3566,55,60,41
382.47235,382.55106,52,66,41
382.58347,382.66217,53,67,41
382.69455,382.77325,55,69,41
382.80566,383.24548,57,70,41
383.36124,383.43994,57,76,41
383.47235,383.55106,57,78,41
383.58347,383.66217,57,79,41
383.69455,384.13437,58,80,41
384.25012,384.32883,62,86,41
384.36124,384.43994,62,88,41
384.47235,384.55106,62,89,41
384.58347,385.0402,67,90,41
385.16403,385.24835,60,97,41
385.28308,385.3674,60,98,41
385.40213,385.49066,60,99,41
385.52713,386.0219,60,100,41
386.02713,387.35583,58,50,41
387.36047,388.24472,60,50,41
388.24936,389.1336,62,50,41
389.13824,389.35583,67,83,41
389.36047,389.80026,60,92,41
389.8049,390.0225,69,83,41
390.02713,390.46695,70,70,41
391.02713,391.1336,53,70,41
391.13824,391.24472,52,70,41
391.24936,391.35583,50,70,41
391.36047,391.46695,48,70,41
391.47156,391.57806,50,70,41
391.58267,391.68918,52,70,41
391.6938,391.80026,53,70,41
391.8049,392.24472,52,70,41
392.24936,392.68915,50,80,41
392.6938,393.1336,48,90,41
393.13824,393.57806,60,100,41
393.6938,393.8049,62,70,41
393.8049,393.91602,60,70,41
393.91602,394.02713,58,70,41
394.02713,394.13824,57,70,41
394.13824,394.24936,58,70,41
394.24936,394.36044,57,70,41
394.36044,394.46695,55,70,41
394.47156,394.5852,55,70,41
394.5852,394.69885,53,70,41
394.69885,394.81247,51,70,41
394.81247,394.92612,50,70,41
394.92612,395.0433,48,70,41
395.0433,395.1605,57,70,41
395.1605,395.28146,58,70,41
395.28146,395.40244,60,70,41
395.40244,395.7101,58,70,41
395.86395,396.16025,60,70,41
396.3084,396.6047,53,70,41
396.75284,397.04913,57,70,41
397.1973,397.3084,58,70,41
397.3084,397.41953,62,70,41
397.41953,397.53064,60,70,41
397.53064,397.64172,58,70,41
397.64172,397.75284,53,70,41
397.75284,397.86395,62,70,41
397.86395,397.97507,60,70,41
397.97507,398.08154,58,70,41
398.08618,398.1973,58,70,41
398.1973,398.3084,60,70,41
398.3084,398.41953,58,70,41
398.41953,398.526,57,70,41
398.53064,398.64172,57,70,41
398.64172,398.75284,55,70,41
398.75284,398.86395,53,70,41
398.86395,398.97507,51,70,41
398.97507,399.08618,50,70,41
399.08618,399.1973,51,72,41
399.1973,399.3084,50,75,41
399.3084,399.41953,48,77,41
399.41953,399.5306,50,80,41
399.5306,399.64172,60,82,41
399.64172,399.75284,58,85,41
399.75284,399.8593,57,88,41
399.86395,399.97507,57,90,41
399.97507,400.08618,58,93,41
400.08618,400.1973,57,95,41
400.1973,400.30377,55,98,41
400.3084,400.41953,55,100,41
400.41953,400.5306,57,92,41
400.5306,400.64172,55,83,41
400.64172,400.74823,53,75,41
400.75284,401.04913,55,70,41
401.1973,401.4936,55,70,41
401.64172,401.93802,60,70,41
402.08618,402.38248,60,70,41
402.5306,402.97043,62,70,41
402.97507,403.4149,63,70,41
403.4195,403.8593,65,70,41
403.86395,404.16025,62,70,41
404.3084,404.6047,60,70,41
404.75284,405.04913,62,70,41
405.1973,405.4936,53,70,41
406.08618,406.1973,60,71,41
406.1973,406.30838,62,72,41
406.30838,406.4195,60,72,41
406.4195,406.5306,58,72,41
406.5306,406.69266,69,73,41
406.75284,406.9149,57,74,41
406.97507,407.08618,58,74,41
407.08618,407.1973,60,75,41
407.1973,407.30838,58,75,41
407.30838,407.4195,57,75,41
407.4195,407.58154,55,76,41
407.64172,407.80377,48,77,41
407.86395,408.026,60,77,41
408.08618,408.2482,62,78,41
408.30838,408.4195,70,79,41
408.4195,408.5306,72,79,41
408.5306,408.64172,70,79,41
408.64172,408.75284,69,80,41
408.75284,409.04913,70,80,41
409.1973,409.3593,69,82,41
409.4195,409.58154,64,82,41
409.64172,409.93802,69,83,41
410.08618,410.38248,67,85,41
410.75284,410.9149,67,87,41
410.97507,411.1371,69,88,41
411.19727,411.3593,70,88,41
411.4195,411.5306,60,89,41
411.5306,411.64172,62,89,41
411.64172,411.75284,60,90,41
411.75284,411.86395,58,90,41
411.86395,411.97507,57,110,41
411.97507,412.08618,58,91,41
412.08618,412.19727,57,91,41
412.19727,412.30838,55,92,41
412.30838,412.4195,53,92,41
412.4195,412.5306,55,92,41
412.5306,412.64172,53,93,41
412.64172,412.75284,52,93,41
412.75284,412.86395,51,115,41
412.86395,412.97507,53,94,41
412.97507,413.08615,51,94,41
413.08615,413.19727,50,95,41
413.19727,413.30838,60,95,41
413.30838,413.4195,62,95,41
413.4195,413.5306,60,96,41
413.5306,413.64172,58,96,41
413.64172,413.75284,57,120,41
413.75284,413.86395,58,97,41
413.86395,413.97507,57,97,41
413.97507,414.08615,55,98,41
414.08615,414.1998,53,98,41
414.1998,414.31345,55,98,41
414.31345,414.43063,53,99,41
414.43063,414.54782,51,99,41
414.54782,414.6688,50,122,41
414.6688,414.78973,51,100,41
414.78973,414.91473,50,100,41
414.91473,415.03973,48,100,41
415.03973,415.93256,53,125,41
415.9372,416.82144,58,125,41
416.82608,416.9372,65,125,41
416.9372,417.04828,67,110,41
417.04828,417.1594,65,110,41
417.1594,417.2705,63,110,41
417.2705,417.38162,62,110,41
417.38162,417.49274,63,110,41
417.49274,417.60385,62,110,41
417.60385,417.71033,60,110,41
417.71497,417.82608,60,125,41
417.82608,417.9372,58,110,41
417.9372,418.04828,57,110,41
418.04828,418.1548,55,110,41
418.1594,418.2705,55,110,41
418.2705,418.38162,53,110,41
418.38162,418.49274,52,110,41
418.49274,418.60385,53,110,41
418.60385,418.71497,55,125,41
418.71497,418.82608,53,110,41
418.82608,418.93716,52,110,41
418.93716,419.04828,53,110,41
419.04828,419.1594,55,110,41
419.1594,419.2705,53,110,41
419.2705,419.38162,52,110,41
419.38162,419.49274,53,110,41
419.49274,419.60385,55,125,41
419.60385,419.71497,53,110,41
419.71497,419.82608,52,105,41
419.82608,419.93256,53,100,41
419.93716,420.05255,53,95,41
420.05255,420.16794,51,90,41
420.16794,420.29294,50,85,41
420.29294,420.41794,51,80,41
420.41794,420.60025,50,70,41
420.66794,420.83,58,70,41
420.89017,421.10776,58,70,41
421.1124,421.33,56,70,41
421.33463,421.55222,56,70,41
421.55682,421.7744,55,70,41
421.77905,421.9411,58,70,41
422.00128,422.16333,55,70,41
422.2235,422.4411,55,70,41
422.4457,422.66333,53,70,41
422.66794,422.83,58,70,41
422.89017,423.05222,56,70,41
423.1124,423.33,56,70,41
423.33463,423.55222,55,70,41
423.55682,423.71887,58,70,41
423.77905,423.9411,55,70,41
424.00128,424.21887,55,70,41
424.2235,424.4411,53,70,41
424.4457,424.61398,58,70,41
424.67648,424.84476,51,70,41
424.90726,425.14038,51,70,41
425.14536,425.37848,50,69,41
425.38345,425.56573,58,68,41
425.63345,425.8323,50,67,41
425.9062,426.40097,50,66,41
426.4062,427.65097,48,64,41
427.6562,427.90097,58,58,41
427.9062,428.44595,58,57,41
428.45163,429.53687,57,54,41
429.54254,430.20227,58,50,41
430.2092,431.6988,60,50,41
431.7092,432.1988,59,74,41
432.2092,432.73376,60,82,41
432.7449,433.33243,67,90,41
433.3449,433.9324,65,70,41
433.94492,434.5977,70,70,41
434.61157,435.34595,69,70,41
436.11157,436.63614,62,70,41
436.6473,437.17184,70,70,41
437.183,438.779,65,70,41
438.79016,439.3147,65,88,41
439.32587,439.89078,67,94,41
439.9028,440.51477,72,100,41
440.5278,441.87723,72,70,41
443.25507,444.73944,51,50,41
444.75507,445.22266,50,110,41
445.2273,445.3893,67,110,41
445.4495,445.61154,67,110,41
446.1406,446.32288,67,110,41
446.3906,446.60934,67,90,41
446.69058,447.68018,67,70,41
447.69058,448.18018,69,70,41
448.69058,449.87808,51,50,41
449.8906,450.3582,48,110,41
450.36282,450.52484,65,110,41
450.58505,450.74707,65,110,41
451.27612,451.4584,65,110,41
451.52612,451.74487,65,90,41
451.8261,452.8157,65,70,41
452.8261,453.35068,58,70,41
453.89755,455.08505,57,50,41
455.09756,455.56516,58,110,41
455.56976,455.7318,58,110,41
455.792,455.95404,58,110,41
456.45865,456.6207,70,88,41
456.68088,456.84293,70,76,41
456.9031,457.56516,70,70,41
457.56976,457.78735,70,73,41
457.792,458.2318,70,74,41
458.23645,458.45404,69,76,41
458.45865,458.67624,69,77,41
458.68088,459.1207,69,78,41
459.12534,459.34293,71,80,41
459.34753,459.56516,71,81,41
459.56976,460.00958,71,82,41
460.01422,460.2318,72,84,41
460.23645,460.45404,70,85,41
460.45865,460.89847,70,86,41
460.9031,461.1207,69,88,41
461.12534,461.34293,69,89,41
461.34753,461.78735,69,90,41
461.792,462.00958,68,92,41
462.01422,462.2318,68,93,41
462.23642,462.67624,68,94,41
462.68088,462.89847,67,96,41
462.9031,463.1207,67,97,41
463.12534,463.813,67,98,41
463.81796,464.06274,66,85,41
464.06796,464.51633,65,70,41
464.52097,464.96075,63,78,41
464.9654,465.4052,62,87,41
465.40985,466.2941,55,96,41
466.29874,466.73856,60,89,41
466.74316,467.18298,63,77,41
467.18762,467.65527,60,65,41
467.6603,467.78128,58,50,41
467.78128,467.90225,63,50,41
467.90225,468.01337,62,50,41
468.01337,468.12448,60,50,41
468.12448,468.2356,58,50,41
468.2356,468.3467,60,50,41
468.3467,468.45782,58,50,41
468.45782,468.5689,57,50,41
468.5689,468.68002,55,50,41
468.68002,468.79114,57,50,41
468.79114,468.90225,55,50,41
468.90225,469.01337,53,50,41
469.01337,469.12448,51,50,41
469.12448,469.2356,53,50,41
469.2356,469.3467,51,50,41
469.3467,469.4532,50,50,41
469.45782,471.23096,48,50,41
471.2356,471.3467,62,50,41
471.3467,471.4578,63,50,41
471.4578,471.5689,62,50,41
471.5689,471.68002,60,50,41
471.68002,471.79114,58,50,41
471.79114,471.90225,60,50,41
471.90225,472.01337,58,50,41
472.01337,472.12448,57,50,41
472.12448,472.2356,55,50,41
472.2356,472.3467,57,50,41
472.3467,472.4578,55,50,41
472.4578,472.5689,53,50,41
472.5689,472.68002,51,50,41
472.68002,472.79114,53,50,41
472.79114,472.90225,51,50,41
472.90225,473.00873,50,50,41
473.01337,474.80347,48,50,41
474.80835,475.15503,50,50,41
475.2771,475.448,57,50,41
475.51147,475.68787,57,50,41
475.7534,476.1232,58,70,41
476.2534,476.45227,65,110,41
476.52612,476.79956,65,110,41
476.90112,477.6433,50,110,41
476.90112,477.6433,58,110,41
0.0,0.091265686,46,1,42
0.70484656,1.6944299,46,70,42
1.7048465,3.1944299,45,75,42
3.2048466,3.6944299,44,90,42
3.7048466,4.2293997,43,95,42
4.2405605,4.8280606,36,100,42
4.8405604,5.4280605,38,80,42
5.4405603,6.093338,39,70,42
6.107227,6.7600045,41,70,42
7.44056,7.9301434,53,70,42
7.94056,8.430143,46,70,42
8.44056,9.930143,48,75,42
9.94056,10.430143,50,90,42
10.44056,10.965114,51,95,42
10.9762745,11.563774,53,100,42
11.576274,12.829052,53,80,42
12.84294,13.577315,46,70,42
14.8786545,15.403208,45,70,42
15.414369,16.474636,45,75,42
16.485796,17.01035,43,87,42
18.09294,18.617493,43,105,42
18.628653,19.68892,43,110,42
19.70008,20.760347,36,110,42
20.77151,21.296062,48,110,42
21.307222,21.915129,41,100,42
21.929018,22.516518,41,70,42
22.529016,23.05357,65,70,42
23.064732,23.589285,65,70,42
23.600445,24.124998,65,70,42
24.13616,24.690405,65,70,42
24.702196,25.289698,66,70,42
25.302197,25.82675,67,70,42
25.837912,26.105768,62,70,42
26.105768,26.373625,65,70,42
26.373625,26.898178,63,70,42
26.909338,27.177197,59,70,42
27.177197,27.445053,62,70,42
27.445053,27.969606,60,70,42
27.980766,28.545671,58,70,42
28.55769,29.122593,58,70,42
29.134613,29.659166,57,70,42
29.670326,30.19488,55,70,42
30.206041,30.730595,53,70,42
30.741755,31.306658,51,70,42
31.318678,31.930656,50,70,42
31.943678,32.46823,51,70,42
32.479393,33.003944,47,70,42
33.015106,33.539658,48,70,42
33.55082,34.075375,50,70,42
34.086533,34.651436,51,70,42
34.663456,35.275436,52,70,42
35.288456,35.85336,52,70,42
35.86538,36.389935,53,72,42
36.401093,36.925648,51,75,42
36.93681,37.46136,50,78,42
37.472523,38.037426,38,81,42
38.049446,38.661423,38,84,42
38.674446,39.198997,39,86,42
39.21016,39.73471,40,89,42
39.745872,40.270428,41,92,42
40.281586,40.80614,43,95,42
40.8173,41.341854,44,98,42
41.353016,41.877567,45,100,42
41.88873,42.41328,45,100,42
42.424442,42.948997,46,94,42
42.960155,43.48471,46,88,42
43.495872,44.020424,46,82,42
44.031586,44.59649,48,76,42
44.60851,45.220486,50,70,42
45.23351,45.886284,51,70,42
45.900173,46.656624,55,85,42
46.673985,47.663567,54,100,42
47.673985,49.663567,53,70,42
52.376972,53.73345,53,70,42
56.000233,57.34481,50,70,42
57.349438,57.45592,58,81,42
57.46055,57.56703,57,83,42
57.57166,57.678143,58,84,42
57.68277,57.789253,60,86,42
57.793884,57.900364,62,88,42
57.904995,58.011475,63,89,42
58.016106,58.122585,62,91,42
58.127216,58.233696,60,92,42
58.238327,58.344807,58,94,42
58.349438,58.455917,57,96,42
58.46055,58.567028,55,97,42
58.57166,58.678143,53,99,42
58.68277,58.79167,51,101,42
58.796406,58.905308,50,102,42
58.91004,59.022346,48,104,42
59.02723,59.139534,46,106,42
59.144417,59.32671,45,107,42
59.394417,59.613167,46,110,42
59.69442,60.684002,41,110,42
61.69442,62.684002,41,70,42
62.69442,64.184,40,70,42
64.19442,64.684,39,88,42
64.69442,65.21897,38,94,42
65.23013,65.817635,46,100,42
65.83013,67.01763,45,80,42
67.03013,67.61763,43,70,42
68.23013,68.754684,41,70,42
68.76585,69.2904,41,70,42
69.30156,69.82611,41,70,42
69.83727,70.361824,41,76,42
70.372986,70.93789,41,82,42
70.94991,71.56189,41,88,42
71.57491,72.24252,41,94,42
72.25673,72.92434,41,100,42
72.938545,73.60616,41,90,42
73.62036,77.24705,41,84,42
78.80723,79.13593,65,110,42
79.25168,79.580376,65,110,42
79.69612,79.92561,65,110,42
79.9305,80.175285,65,100,42
80.1805,81.53697,60,70,42
82.43049,82.75919,60,110,42
82.87494,83.203636,60,110,42
83.31938,83.548874,60,110,42
83.55376,83.798546,60,100,42
83.80376,85.16023,57,70,42
85.16486,85.27135,60,70,42
85.27598,85.382454,62,70,42
85.387085,85.49357,60,70,42
85.4982,85.60468,58,70,42
85.60931,85.71579,57,70,42
85.72042,85.826904,58,71,42
85.83153,85.93801,57,72,42
85.94264,86.049126,55,73,42
86.05376,86.16023,53,74,42
86.16486,86.27135,52,75,42
86.27598,86.382454,50,76,42
86.387085,86.49357,48,77,42
86.4982,86.604675,46,78,42
86.60931,86.71579,45,79,42
86.72042,86.8269,43,80,42
86.83153,86.93801,41,81,42
86.94264,87.104675,40,82,42
87.16486,87.3269,41,84,42
87.387085,87.49357,53,86,42
87.4982,87.604675,58,87,42
87.60931,87.71579,57,88,42
87.72042,87.8269,55,89,42
87.83153,87.93801,53,90,42
87.94264,88.04912,51,91,42
88.05375,88.16023,50,92,42
88.16486,88.27135,48,93,42
88.27597,88.382454,46,94,42
88.387085,88.49357,45,95,42
88.49819,88.604675,43,96,42
88.60931,88.71579,41,97,42
88.72042,88.882454,41,98,42
88.94264,89.104675,53,100,42
89.60931,89.93801,46,110,42
90.05375,90.382454,46,110,42
90.49819,90.666466,46,110,42
90.728966,90.90257,46,100,42
90.96706,92.31163,51,70,42
93.20515,93.53385,48,110,42
93.6496,93.978294,48,110,42
94.09404,94.26231,48,110,42
94.32481,94.50122,48,100,42
94.56674,95.47071,53,70,42
95.47534,95.91516,53,70,42
95.919785,96.081825,53,74,42
96.142006,96.30405,53,76,42
96.36423,97.24849,53,78,42
97.25312,97.69293,51,86,42
97.69756,97.91515,50,91,42
97.919785,98.137375,48,93,42
98.142006,98.58182,50,95,42
98.58645,98.80405,48,99,42
98.80867,99.02627,46,101,42
99.03089,99.480705,53,103,42
99.48544,99.96057,41,107,42
99.96578,100.14807,46,110,42
100.21578,100.37782,45,110,42
100.438,100.600044,46,110,42
100.660225,100.822266,48,110,42
100.88245,101.04449,50,110,42
101.10467,101.26671,50,100,42
101.32689,101.48893,51,90,42
101.54912,101.71115,53,80,42
101.77134,101.98893,55,70,42
103.54911,103.71115,46,110,42
103.77133,103.93337,45,110,42
103.99355,104.155594,46,110,42
104.660225,104.82226,50,99,42
104.88245,105.04448,51,87,42
105.54911,105.71115,50,70,42
105.77133,105.93337,51,70,42
105.99355,106.155594,52,70,42
106.215775,106.377815,53,79,42
106.88245,107.10004,57,106,42
107.10467,107.54448,58,110,42
107.99355,108.10004,45,110,42
108.10466,108.21114,43,110,42
108.215775,108.32226,41,110,42
108.32689,108.433365,40,110,42
108.437996,108.54448,41,110,42
108.54911,108.65559,43,110,42
108.66022,108.7667,45,110,42
108.77133,108.87781,46,110,42
108.88244,109.32226,46,110,42
109.77133,109.87781,45,110,42
109.88244,109.98892,43,110,42
109.99355,110.10003,41,110,42
110.10466,110.21114,40,110,42
110.215775,110.32225,41,110,42
110.32688,110.433365,43,110,42
110.437996,110.54448,45,110,42
110.5491,110.65559,46,110,42
110.66022,110.82225,50,125,42
110.88244,110.98892,50,110,42
110.99355,111.10003,51,110,42
111.10466,111.21114,50,110,42
111.215775,111.32225,48,110,42
111.32688,111.433365,46,110,42
111.437996,111.54447,45,110,42
111.5491,111.71114,46,125,42
111.771324,111.87781,46,110,42
111.88244,111.98892,48,110,42
111.993546,112.10003,46,110,42
112.10466,112.21114,45,110,42
112.21577,112.32225,43,110,42
112.32688,112.433365,42,110,42
112.437996,112.60003,43,125,42
112.66022,112.76669,43,110,42
112.771324,112.87781,45,110,42
112.88244,112.988914,43,110,42
112.993546,113.10003,41,110,42
113.10466,113.21114,40,110,42
113.21577,113.32225,38,110,42
113.32688,113.488914,36,125,42
113.5491,113.65559,48,110,42
113.66022,113.76669,50,110,42
113.771324,113.87781,48,110,42
113.88244,113.988914,46,110,42
113.993546,114.10003,45,110,42
114.10466,114.211136,43,110,42
114.21577,114.37781,41,110,42
114.43799,114.60003,60,110,42
114.66021,114.82225,57,125,42
114.88243,115.04447,53,110,42
115.10466,115.26669,51,125,42
115.32688,115.488914,48,110,42
115.5491,115.711136,45,125,42
115.771324,115.93336,41,110,42
115.993546,116.15558,39,125,42
116.21577,116.3778,38,110,42
116.43799,116.60003,41,125,42
116.66021,116.82225,46,110,42
116.88243,117.04447,50,125,42
117.10465,117.26669,53,110,42
117.32687,117.488914,58,125,42
117.549095,117.711136,52,110,42
117.771324,117.93336,53,125,42
117.993546,118.15558,60,110,42
118.21577,118.3778,57,125,42
118.43799,118.60002,53,110,42
118.66021,118.82224,51,125,42
118.88243,119.044464,48,110,42
119.10465,119.26669,45,125,42
119.32687,119.488914,41,110,42
119.549095,119.711136,39,125,42
119.77132,119.93336,38,110,42
119.99354,120.15558,41,125,42
120.21576,120.3778,46,110,42
120.43799,120.60002,50,125,42
120.66021,120.82224,53,110,42
120.88243,121.044464,58,125,42
121.10465,121.266685,62,110,42
121.32687,121.8778,65,110,42
121.88243,121.98891,63,110,42
121.99354,122.10002,62,110,42
122.10465,122.21113,60,110,42
122.21576,122.3778,58,125,42
122.43798,122.60002,57,110,42
122.6602,122.82224,55,110,42
122.88242,123.044464,53,110,42
123.104645,123.266685,52,125,42
123.32687,123.48891,53,110,42
123.549095,123.71113,55,110,42
123.77132,123.93335,57,110,42
123.99354,124.15557,58,110,42
124.21576,124.37779,60,110,42
124.43798,124.60001,62,110,42
124.6602,124.82224,64,110,42
124.88242,125.10001,41,110,42
125.326866,125.544464,42,105,42
125.77131,125.98891,43,100,42
126.21576,126.43335,44,94,42
126.6602,126.87779,45,88,42
127.104645,127.32718,46,82,42
127.55919,127.79233,47,76,42
128.03539,128.28017,48,70,42
128.53539,129.86407,49,70,42
129.86871,129.97983,49,70,42
129.97983,130.09093,51,70,42
130.09093,130.20204,49,70,42
130.20204,130.31316,47,70,42
130.31316,131.64186,46,70,42
131.64648,131.7576,46,70,42
131.7576,131.86871,47,70,42
131.86871,131.97983,46,70,42
131.97983,132.09093,44,70,42
132.09093,136.75296,42,70,42
136.7576,136.8687,49,70,42
136.8687,136.97981,48,70,42
136.97981,137.09093,49,70,42
137.09093,137.20204,51,70,42
137.20204,137.31316,49,70,42
137.31316,137.42426,47,70,42
137.42426,138.53075,46,70,42
138.53537,138.64648,46,70,42
138.64648,138.7576,45,70,42
138.7576,138.8687,46,70,42
138.8687,138.97981,47,70,42
138.97981,139.09093,46,70,42
139.09093,139.20204,44,70,42
139.20204,142.30852,42,110,42
142.31314,142.75296,44,100,42
142.75758,143.64185,44,70,42
143.64647,144.53073,46,70,42
144.53537,145.43971,47,70,42
145.44446,146.40715,48,70,42
146.4122,147.74089,49,70,42
147.74553,148.19534,41,70,42
148.20007,149.65915,49,70,42
149.66435,149.74306,42,70,42
149.77547,149.85417,46,50,42
149.88658,149.96529,44,50,42
149.9977,150.07639,42,50,42
150.1088,150.54861,41,50,42
150.66435,150.74306,42,50,42
150.77547,150.85417,41,50,42
150.88658,150.96529,39,50,42
150.99768,151.4375,37,50,42
151.55324,151.63194,37,50,42
151.66435,151.74306,39,50,42
151.77547,151.85417,41,50,42
151.88658,152.32639,42,50,42
153.33102,153.40973,42,50,42
153.44212,153.52083,41,50,42
153.55324,153.63194,39,50,42
153.66435,154.10417,38,50,42
154.21991,154.29861,51,50,42
154.33102,154.40971,49,50,42
154.44212,154.52083,47,50,42
154.55324,154.99306,46,50,42
155.1088,155.1875,46,50,42
155.21991,155.29861,48,50,42
155.33102,155.40971,50,50,42
155.44212,155.88194,51,50,42
155.99768,156.07639,51,50,42
156.1088,156.1875,51,51,42
156.21991,156.29861,51,52,42
156.33101,156.77083,44,53,42
156.88657,156.96527,44,59,42
156.99768,157.07639,46,60,42
157.1088,157.1875,48,61,42
157.21991,157.65971,49,62,42
157.77545,157.85416,37,68,42
157.88657,157.96527,37,69,42
157.99768,158.07639,37,71,42
158.1088,158.5486,39,72,42
158.66435,158.74306,39,78,42
158.77545,158.85416,39,79,42
158.88657,158.96527,39,80,42
158.99768,159.4375,47,81,42
159.55751,159.63924,44,87,42
159.6729,159.75462,44,88,42
159.78828,159.87396,44,89,42
159.90924,160.38808,49,90,42
160.83755,161.72182,42,50,42
161.72644,162.6107,44,50,42
162.61534,163.49959,46,50,42
163.50423,163.94403,47,81,42
163.94867,164.38847,49,96,42
164.39311,164.72182,54,70,42
164.83755,165.16626,54,70,42
165.282,165.6107,53,70,42
165.72644,166.05515,53,70,42
166.17088,166.6107,51,70,42
166.61533,167.05515,49,79,42
167.05977,167.49959,48,89,42
167.50421,167.94403,47,98,42
167.94867,168.27736,46,70,42
168.39311,168.72182,47,70,42
168.83755,169.17372,49,70,42
169.2921,169.64998,49,70,42
170.25241,170.58112,44,70,42
170.69685,171.02556,37,70,42
171.1413,171.47,41,70,42
171.58574,171.91444,46,70,42
172.03018,172.35889,46,70,42
172.47464,172.80333,49,70,42
172.91908,173.24779,49,70,42
173.36353,173.80333,51,70,42
173.80797,174.24777,53,79,42
174.25241,174.69223,54,89,42
174.69685,175.13667,56,98,42
175.1413,175.47,54,70,42
175.58574,175.91444,56,70,42
176.03018,176.35889,49,70,42
176.47462,176.58574,53,70,42
176.58574,176.69685,54,70,42
176.69685,176.80797,53,70,42
176.80797,176.91444,51,70,42
176.91907,177.03018,51,70,42
177.03018,177.1413,53,70,42
177.1413,177.25241,51,70,42
177.25241,177.35889,49,70,42
177.36351,177.47462,49,70,42
177.47462,177.58574,51,70,42
177.58574,177.69685,49,70,42
177.69685,177.80333,47,70,42
177.80797,177.91907,47,70,42
177.91907,178.03018,46,70,42
178.03018,178.1413,44,70,42
178.1413,178.25241,42,70,42
179.1413,179.25241,46,70,42
179.25241,179.36351,47,70,42
179.36351,179.47462,46,70,42
179.47462,179.5811,44,70,42
179.58574,179.69685,44,70,42
179.69685,179.80795,42,70,42
179.80795,179.91907,41,70,42
179.91907,180.03018,42,70,42
180.03018,180.1413,44,70,42
180.1413,180.2524,46,70,42
180.2524,180.36351,44,70,42
180.36351,180.47462,42,70,42
180.47462,180.58574,41,70,42
180.58574,180.69685,42,70,42
180.69685,180.80795,41,71,42
180.80795,180.91907,39,71,42
180.91907,181.24777,38,72,42
181.36351,181.47462,39,74,42
181.47462,181.58574,41,74,42
181.58574,181.69684,39,75,42
181.69684,181.80795,37,75,42
181.80795,182.13666,36,76,42
182.2524,182.5811,37,78,42
182.69684,183.02554,42,80,42
183.14128,183.46999,36,82,42
183.58574,183.69684,65,84,42
183.69684,183.80795,66,85,42
183.80795,183.91907,65,85,42
183.91907,184.03018,63,86,42
184.03018,184.35889,62,86,42
184.47462,184.58574,63,88,42
184.58574,184.69684,65,89,42
184.69684,184.80795,63,89,42
184.80795,184.91907,61,90,42
184.91907,185.03018,59,90,42
185.03018,185.14128,61,91,42
185.14128,185.2524,59,91,42
185.2524,185.36351,58,92,42
185.36351,185.47462,56,92,42
185.47462,185.58572,58,93,42
185.58572,185.69684,56,93,42
185.69684,185.80795,54,94,42
185.80795,185.96999,53,94,42
186.03018,186.19221,51,95,42
186.2524,186.41443,49,120,42
186.47462,186.63666,48,98,42
186.69684,186.85887,47,99,42
186.91907,187.0811,46,100,42
187.14128,187.30331,44,120,42
187.36351,187.52554,42,102,42
187.58572,187.74777,41,103,42
187.80795,187.96999,39,104,42
188.03017,188.19221,37,125,42
188.2524,188.41443,36,106,42
188.47461,188.64034,47,107,42
188.70189,188.87279,44,108,42
188.93626,189.11267,42,109,42
189.17819,189.36049,41,110,42
189.42819,190.34024,42,110,42
190.34486,191.22913,47,125,42
191.23375,192.11801,46,125,42
192.12263,193.0069,44,125,42
193.01154,193.12263,44,110,42
193.12263,193.23375,46,110,42
193.23375,193.34486,44,110,42
193.34486,193.45598,42,110,42
193.45598,193.56708,44,110,42
193.56708,193.67819,46,110,42
193.67819,193.7893,44,110,42
193.7893,193.89578,42,110,42
193.90042,194.01154,42,110,42
194.01154,194.12263,44,110,42
194.12263,194.23375,42,110,42
194.23375,194.34486,41,110,42
194.34486,194.45598,39,100,42
194.45598,194.56708,41,93,42
194.56708,194.67819,39,85,42
194.67819,194.7893,37,77,42
194.7893,194.95134,42,70,42
195.01152,195.17357,54,70,42
195.23375,195.45134,54,70,42
195.45598,195.67357,52,70,42
195.67819,195.89578,52,70,42
195.90042,196.11801,51,70,42
196.12263,196.28467,54,70,42
196.34486,196.5069,51,70,42
196.56708,196.78467,51,70,42
196.7893,197.0069,49,70,42
197.01152,197.17357,54,70,42
197.23375,197.39578,52,70,42
197.45596,197.67357,52,70,42
197.67819,197.89578,51,70,42
197.9004,198.06245,54,70,42
198.12263,198.28467,51,70,42
198.34486,198.56245,51,60,42
198.56708,198.78467,49,60,42
198.7893,198.95134,54,60,42
199.01152,199.17355,47,60,42
199.23375,199.45628,47,60,42
199.46101,199.6905,46,60,42
199.69539,199.87181,54,60,42
199.93733,200.11961,42,60,42
200.18733,200.78108,42,50,42
200.78732,202.77692,41,50,42
203.78732,205.27692,41,70,42
205.28732,205.77692,40,88,42
205.78732,206.31187,39,94,42
206.32304,206.91054,47,100,42
206.92303,208.11053,46,80,42
208.12305,209.31055,44,70,42
213.6962,214.68578,38,70,42
214.6962,216.18578,37,70,42
216.1962,216.43578,36,88,42
216.4462,216.68578,48,91,42
216.6962,217.22075,47,94,42
217.2319,217.81941,49,100,42
217.83191,219.01941,49,80,42
219.0319,220.2194,50,70,42
225.17429,225.66388,49,50,42
225.67429,226.73456,49,50,42
226.74573,227.93323,50,50,42
231.71715,232.20673,49,50,42
232.21715,232.71194,49,70,42
232.71715,232.96194,50,70,42
233.21715,233.67387,49,70,42
233.67868,233.90465,50,70,42
234.14023,234.58003,49,70,42
234.58467,234.80226,50,70,42
235.02911,235.46893,49,70,42
235.47356,235.69115,50,70,42
235.918,236.80226,57,70,42
236.80688,238.13559,69,70,42
238.14021,238.35782,67,70,42
238.36244,238.58003,66,70,42
238.58467,238.80226,64,70,42
238.80688,239.02448,62,70,42
239.02911,239.2467,66,70,42
239.25133,239.46892,62,70,42
239.47356,239.91336,47,70,42
239.918,240.13559,48,70,42
240.36244,240.80226,47,70,42
240.80688,241.02448,48,70,42
241.25133,241.69115,47,70,42
241.69577,241.91336,48,70,42
242.14021,242.58003,47,70,42
242.58466,242.80225,48,70,42
243.0291,243.91336,57,70,42
243.918,245.24669,69,70,42
245.25133,245.46892,67,70,42
245.47354,245.69113,66,70,42
245.69577,245.91336,64,70,42
245.91798,246.13559,62,70,42
246.14021,246.3578,64,70,42
246.36244,246.58003,66,70,42
246.58466,247.02448,69,70,42
247.0291,247.24669,67,70,42
248.80687,249.13557,38,70,42
249.25133,249.58002,38,70,42
249.69577,249.8578,38,70,42
249.91798,250.08002,38,70,42
250.14021,250.58002,42,70,42
250.58466,250.80225,43,70,42
251.0291,251.46892,42,70,42
251.47354,251.69113,43,70,42
251.91798,252.3578,42,70,42
252.36243,252.58002,43,70,42
252.80687,253.24669,42,70,42
253.25131,253.4689,43,70,42
253.69576,254.58002,50,70,42
254.58466,255.91335,62,70,42
255.91798,256.13556,60,70,42
256.1402,256.3578,59,70,42
256.36243,256.58002,57,70,42
256.58466,256.80225,55,70,42
256.80685,257.02448,59,70,42
257.02908,257.24667,55,70,42
257.2513,257.69113,43,70,42
257.69577,257.91336,42,70,42
258.1402,258.58002,43,70,42
258.58466,258.80225,42,70,42
259.47354,259.80225,38,70,42
259.91797,260.24667,38,70,42
260.36243,260.52444,38,70,42
260.58466,260.74667,38,70,42
260.80685,261.69113,43,70,42
262.1402,262.30225,38,70,42
262.36243,262.52444,38,70,42
262.58466,263.4689,43,70,42
263.91797,264.08002,38,70,42
264.1402,264.30225,38,70,42
264.36243,264.80225,41,70,42
264.80685,264.9689,38,70,42
265.02908,265.19113,38,70,42
265.2513,265.69113,41,70,42
265.69574,265.8578,38,70,42
265.91797,266.08002,38,70,42
266.1402,266.58002,36,70,42
266.58463,266.91333,43,70,42
267.02908,267.3578,43,70,42
267.4735,267.63556,43,70,42
267.69574,267.8578,43,70,42
267.91797,268.3578,48,70,42
268.36243,268.6911,55,70,42
268.80685,269.13556,55,70,42
269.2513,269.41333,55,70,42
269.4735,269.63556,55,70,42
269.69574,270.58002,55,110,42
270.58463,271.91333,67,110,42
271.91797,272.13556,65,100,42
272.1402,272.3578,63,96,42
272.3624,272.58,62,92,42
272.58463,272.80222,60,88,42
272.80685,273.02444,63,84,42
273.02908,273.24667,60,80,42
273.25128,273.6911,55,70,42
273.69574,274.02444,60,70,42
274.1402,274.4689,60,70,42
274.58463,274.74667,60,70,42
274.80685,274.9689,60,70,42
275.02908,275.91333,64,70,42
276.3624,276.52444,60,60,42
276.58463,276.74667,60,60,42
276.80685,277.24667,64,60,42
277.25128,277.41333,60,60,42
277.4735,277.63556,60,60,42
277.69574,278.14554,63,60,42
278.15027,278.32117,60,60,42
278.38464,278.56107,60,60,42
278.6266,281.75015,63,100,42
281.7548,281.86127,62,96,42
281.8659,281.97238,63,97,42
281.97702,282.0835,62,99,42
282.08813,282.1946,60,100,42
282.19925,282.30573,58,110,42
282.31036,282.41684,60,110,42
282.42145,282.52795,58,110,42
282.53256,282.63904,57,110,42
282.64368,282.75015,55,110,42
282.7548,282.86127,57,110,42
282.8659,282.97238,55,110,42
282.97702,283.0835,53,110,42
283.08813,283.1946,51,110,42
283.19925,283.30573,53,110,42
283.31033,283.41684,51,110,42
283.42145,283.52795,50,110,42
283.53256,283.64316,48,110,42
283.64795,283.75854,50,110,42
283.76334,283.88312,48,100,42
283.88834,284.00812,46,90,42
284.01334,284.13312,46,70,42
284.13834,284.25812,45,70,42
284.26334,284.3698,48,70,42
284.37445,284.48093,52,70,42
284.48557,284.59204,53,70,42
284.59668,284.70316,55,70,42
284.7078,284.81427,57,70,42
284.8189,284.92538,58,70,42
284.93,285.0365,60,70,42
285.0411,285.14758,59,70,42
285.15222,285.2587,60,80,42
285.26334,285.3698,62,90,42
285.37445,285.48093,63,110,42
285.48557,285.59204,65,110,42
285.59668,285.70316,63,110,42
285.7078,285.81427,62,110,42
285.81888,285.92538,60,110,42
285.93,286.0365,62,110,42
286.0411,286.14758,60,110,42
286.15222,286.2587,58,110,42
286.26334,286.3698,57,110,42
286.37445,286.48093,58,110,42
286.48557,286.59204,57,110,42
286.59668,286.70316,55,110,42
286.7078,286.81427,53,110,42
286.81888,286.92538,55,110,42
286.93,287.0365,53,110,42
287.0411,287.14758,51,110,42
287.15222,287.2628,50,110,42
287.2676,287.37817,51,110,42
287.383,287.50278,50,100,42
287.508,287.62778,48,90,42
287.633,287.75278,48,70,42
287.758,287.87778,46,70,42
287.883,287.98947,45,70,42
287.9941,288.1006,46,70,42
288.10522,288.2117,50,70,42
288.21634,288.3228,53,70,42
288.32742,288.43393,58,70,42
288.43854,288.54504,62,70,42
288.54965,288.65613,65,70,42
288.66077,288.76724,67,70,42
288.77188,288.87836,65,70,42
288.883,288.98947,63,70,42
288.9941,289.1006,62,70,42
289.10522,289.2117,63,71,42
289.21634,289.3228,62,73,42
289.32742,289.43393,60,75,42
289.43854,289.54504,58,76,42
289.54965,289.65613,45,78,42
289.66077,289.76724,46,80,42
289.77188,289.87836,48,82,42
289.883,289.98947,50,83,42
289.9941,290.1006,51,85,42
290.10522,290.2117,53,87,42
290.21634,290.3228,55,88,42
290.32742,290.43393,57,90,42
290.43854,290.545,58,92,42
290.54965,290.65613,60,94,42
290.66077,290.76724,62,95,42
290.77188,290.93393,63,97,42
290.9941,291.15613,60,100,42
291.2163,291.65613,65,110,42
291.66077,291.8228,65,110,42
291.883,292.045,63,110,42
292.10522,292.545,67,110,42
292.9941,293.15613,65,110,42
293.2163,293.37836,63,110,42
293.66077,293.8228,62,110,42
293.883,294.045,65,110,42
294.10522,294.26724,62,110,42
294.32742,294.76724,63,110,42
295.2163,295.545,51,110,42
295.66077,295.98947,51,110,42
296.1052,296.27347,51,110,42
296.33597,296.51828,51,100,42
296.58597,297.94244,47,70,42
298.8862,299.2149,51,110,42
299.33063,299.65933,51,110,42
299.7751,299.94336,51,110,42
300.00586,300.18814,51,100,42
300.25586,301.61234,45,70,42
301.61694,302.94565,44,70,42
302.9503,303.3901,43,83,42
303.39474,303.55676,41,88,42
303.61694,303.779,39,90,42
303.83917,304.279,44,92,42
304.28363,304.44565,43,97,42
304.50583,304.66788,41,99,42
304.72806,305.16788,46,101,42
305.17252,305.61234,46,106,42
305.61694,306.05676,39,110,42
307.3947,307.83453,39,110,42
309.17252,309.33453,39,110,42
309.3947,309.55676,41,110,42
309.61694,309.779,43,110,42
309.83917,310.00122,54,110,42
310.0614,310.22342,55,104,42
310.2836,310.44565,62,97,42
310.50583,310.66788,63,90,42
310.72806,310.83917,62,85,42
310.83917,310.9503,65,75,42
310.9503,311.3901,63,70,42
312.2836,312.44565,58,70,42
312.50583,312.66788,58,70,42
312.72806,313.16788,63,70,42
314.0614,314.22342,46,70,42
314.2836,314.44565,46,70,42
314.50583,314.66788,39,70,42
314.72806,314.89008,41,75,42
314.9503,315.1123,42,80,42
315.1725,315.33453,43,85,42
315.3947,315.55676,44,90,42
315.61694,315.779,46,95,42
315.83917,316.0012,44,100,42
316.06137,316.1725,44,105,42
316.1725,316.2836,42,108,42
316.2836,316.3947,41,110,42
316.3947,316.50583,39,110,42
316.50583,316.61694,37,110,42
316.61694,316.72806,36,110,42
316.72806,316.83917,37,110,42
316.83917,316.9503,39,110,42
316.9503,317.06137,41,110,42
317.06137,317.1725,42,110,42
317.1725,317.39008,44,110,42
317.83917,317.9503,44,110,42
317.9503,318.06137,42,110,42
318.06137,318.1725,41,110,42
318.1725,318.2836,39,110,42
318.2836,318.3947,37,110,42
318.3947,318.50583,36,110,42
318.50583,318.61694,37,110,42
318.61694,318.72806,39,110,42
318.72806,318.83917,41,110,42
318.83917,318.95026,42,110,42
318.95026,319.1123,44,110,42
319.1725,319.2836,56,110,42
319.2836,319.3947,58,110,42
319.3947,319.50583,56,110,42
319.50583,319.61694,54,110,42
319.61694,319.72806,53,110,42
319.72806,319.83917,51,110,42
319.83917,320.0012,53,110,42
320.06137,320.1725,53,110,42
320.1725,320.2836,54,110,42
320.2836,320.3947,53,110,42
320.3947,320.50583,51,110,42
320.50583,320.61694,49,110,42
320.61694,320.72806,48,110,42
320.72806,320.89008,46,110,42
320.95026,321.06137,51,110,42
321.06137,321.1725,53,110,42
321.1725,321.2836,51,110,42
321.2836,321.3947,49,110,42
321.3947,321.50583,48,110,42
321.50583,321.61694,46,110,42
321.61694,321.77896,44,110,42
321.83917,322.0012,63,110,42
322.06137,322.22342,60,125,42
322.2836,322.44565,56,110,42
322.50583,322.66785,54,125,42
322.72806,322.89008,51,110,42
322.95026,323.1123,48,125,42
323.1725,323.33453,44,110,42
323.3947,323.55676,42,125,42
323.61694,323.77896,41,110,42
323.83914,324.0012,44,125,42
324.06137,324.22342,49,110,42
324.2836,324.44565,53,125,42
324.50583,324.66785,56,110,42
324.72806,324.89008,61,125,42
324.95026,325.1123,55,110,42
325.1725,325.46878,44,110,42
325.61694,325.91324,51,125,42
326.06137,326.94565,56,125,42
326.95026,327.1123,42,125,42
327.1725,327.33453,41,110,42
327.3947,327.55673,44,125,42
327.61694,327.77896,49,110,42
327.83914,328.0012,53,125,42
328.06137,328.22342,56,110,42
328.2836,328.44562,61,125,42
328.50583,328.66785,53,110,42
328.72803,328.94562,56,110,42
329.1725,329.39008,58,105,42
329.6169,329.83453,60,99,42
330.06137,330.27896,61,93,42
330.50583,330.72836,62,87,42
330.96036,331.18985,63,81,42
331.4291,331.66602,65,75,42
331.913,332.15778,66,70,42
332.413,333.74167,66,70,42
335.96854,336.85278,56,70,42
336.85742,337.74167,57,70,42
337.7463,338.63055,58,70,42
338.6352,339.0102,59,70,42
339.07965,339.45465,60,70,42
339.52408,340.40836,61,70,42
340.6352,340.7463,44,70,42
340.7463,340.85742,43,70,42
340.85742,340.96854,44,70,42
340.96854,341.07965,46,70,42
341.07965,341.19073,44,70,42
341.19073,341.30185,42,70,42
341.30185,342.40836,41,70,42
342.41296,342.52408,41,70,42
342.52408,342.6352,40,70,42
342.6352,342.7463,41,70,42
342.7463,342.85742,42,70,42
342.85742,342.96854,41,70,42
342.96854,343.07965,39,70,42
343.07965,343.9639,37,70,42
343.96854,345.74167,65,70,42
345.7463,346.40833,63,70,42
346.41296,346.63055,61,70,42
346.6352,347.51944,60,70,42
347.52408,348.40833,61,70,42
348.41296,349.2972,61,70,42
349.30185,350.1861,61,70,42
350.19073,350.63055,44,70,42
350.6352,351.075,45,70,42
351.07962,351.52945,46,70,42
351.53418,351.99805,65,76,42
352.00293,353.3416,65,82,42
353.34634,353.8102,67,100,42
353.8151,354.69937,69,70,42
354.70398,355.25955,41,70,42
355.25955,355.37067,43,70,42
355.37067,355.48178,41,70,42
355.48178,355.5929,39,70,42
355.5929,356.92157,38,70,42
356.9262,357.03732,38,70,42
357.03732,357.14844,39,70,42
357.14844,357.25955,38,70,42
357.25955,357.37067,36,70,42
357.37067,360.92157,46,70,42
360.9262,362.03268,46,70,42
362.03732,362.14844,41,81,42
362.14844,362.25955,40,82,42
362.25955,362.37067,41,83,42
362.37067,362.48175,43,84,42
362.48175,362.59286,41,85,42
362.59286,362.70398,39,86,42
362.70398,363.81046,38,87,42
363.8151,363.9262,38,98,42
363.9262,364.03732,37,99,42
364.03732,364.14844,38,100,42
364.14844,364.25955,39,90,42
364.25955,364.37067,38,80,42
364.37067,364.48175,36,70,42
364.48175,366.2549,46,70,42
366.25955,368.92157,48,87,42
368.9262,369.81046,50,80,42
369.8151,370.71945,51,90,42
370.72418,371.6869,52,100,42
371.69193,373.1385,63,70,42
373.14352,373.62234,45,70,42
373.6274,374.3722,62,70,42
374.3774,374.64444,60,70,42
374.65012,375.24387,58,70,42
375.25012,375.32883,46,50,42
375.36124,375.43994,50,50,42
375.47235,375.55106,48,50,42
375.58347,375.66217,46,50,42
375.69458,376.1344,45,50,42
376.25012,376.32883,46,50,42
376.36124,376.43994,45,50,42
376.47235,376.55106,43,50,42
376.58347,377.0233,41,50,42
377.139,377.2177,41,50,42
377.25012,377.32883,43,50,42
377.36124,377.43994,45,50,42
377.47235,377.91217,46,50,42
378.91678,378.99548,46,50,42
379.0279,379.1066,45,50,42
379.139,379.2177,43,50,42
379.25012,379.68994,42,50,42
379.80566,379.88437,43,50,42
379.91678,379.99548,42,50,42
380.0279,380.1066,40,50,42
380.139,380.57883,38,50,42
380.69458,380.7733,38,50,42
380.80566,380.88437,40,50,42
380.91678,380.99548,41,50,42
381.0279,381.4677,43,50,42
381.58347,381.66217,43,56,42
381.69458,381.77325,45,57,42
381.80566,381.88437,46,58,42
381.91678,382.3566,48,60,42
382.47235,382.55106,48,66,42
382.58347,382.66217,48,67,42
382.69455,382.77325,48,69,42
382.80566,383.24548,53,70,42
383.36124,383.43994,53,76,42
383.47235,383.55106,53,78,42
383.58347,383.66217,53,79,42
383.69455,384.13437,55,80,42
384.25012,384.32883,55,86,42
384.36124,384.43994,55,88,42
384.47235,384.55106,55,89,42
384.58347,385.0402,51,90,42
385.16403,385.24835,51,97,42
385.28308,385.3674,51,98,42
385.40213,385.49066,51,99,42
385.52713,386.0219,53,100,42
386.02713,386.91138,53,50,42
386.91602,387.1336,46,50,42
387.13824,387.8003,55,50,42
387.8049,388.0225,48,50,42
388.02713,388.46695,57,50,42
388.4716,388.68918,53,58,42
388.6938,388.91138,50,66,42
388.91602,389.35583,58,75,42
389.36047,389.57806,51,92,42
389.58267,389.80026,52,100,42
389.8049,390.0225,53,83,42
390.02713,390.35583,46,70,42
390.47156,390.80026,46,70,42
390.91602,391.24472,45,70,42
391.36047,391.68918,45,70,42
391.8049,392.24472,43,70,42
392.24936,392.68915,41,80,42
392.6938,393.1336,40,90,42
393.13824,393.57806,39,100,42
393.58267,393.87897,38,70,42
394.02713,394.32343,39,70,42
394.47156,394.7746,41,70,42
394.92612,395.24112,41,70,42
397.1973,397.4936,38,70,42
397.64172,397.93802,38,70,42
398.08618,398.38248,41,70,42
398.53064,398.82693,41,70,42
398.97507,399.4149,43,70,42
399.41953,399.8593,45,80,42
399.86395,400.30377,46,90,42
400.3084,400.74823,48,100,42
400.75284,401.04913,46,70,42
401.1973,401.4936,48,70,42
401.64172,401.93802,41,70,42
402.08618,402.1973,57,70,42
402.1973,402.3084,58,70,42
402.3084,402.41953,57,70,42
402.41953,402.526,55,70,42
402.5306,402.64172,55,70,42
402.64172,402.75284,57,70,42
402.75284,402.86395,55,70,42
402.86395,402.97043,53,70,42
402.97507,403.08618,53,70,42
403.08618,403.1973,55,70,42
403.1973,403.3084,53,70,42
403.3084,403.4149,51,70,42
403.4195,403.5306,51,70,42
403.5306,403.64172,50,70,42
403.64172,403.75284,48,70,42
403.75284,403.86395,46,70,42
403.86395,404.16025,38,70,42
404.3084,404.6047,39,70,42
404.75284,405.04913,41,70,42
405.1973,405.3084,43,70,42
405.3084,405.4195,46,70,42
405.4195,405.5306,45,70,42
405.5306,405.64172,43,70,42
405.64172,405.75284,48,70,42
405.75284,405.86395,50,70,42
405.86395,405.97507,48,71,42
405.97507,406.08618,46,71,42
406.08618,406.1973,45,71,42
406.1973,406.30838,46,72,42
406.30838,406.4195,45,72,42
406.4195,406.5306,43,72,42
406.5306,406.8269,42,73,42
406.97507,407.08618,43,74,42
407.08618,407.1973,45,75,42
407.1973,407.30838,43,75,42
407.30838,407.4195,41,75,42
407.4195,407.7158,40,76,42
407.86395,408.16025,41,77,42
408.30838,408.60468,46,79,42
408.75284,408.9149,43,80,42
408.97507,409.1371,55,81,42
409.1973,409.30838,57,82,42
409.30838,409.4195,58,82,42
409.4195,409.5306,57,82,42
409.5306,409.64172,55,83,42
409.64172,409.80377,54,83,42
409.86395,410.02597,66,84,42
410.08618,410.2482,67,85,42
410.30838,410.47043,65,85,42
410.5306,410.69266,63,86,42
410.75284,410.9149,62,87,42
410.97507,411.1371,60,88,42
411.19727,411.3593,58,88,42
411.4195,411.58154,57,89,42
411.64172,411.80377,55,90,42
411.86395,412.02597,53,110,42
412.08618,412.2482,52,91,42
412.30838,412.47043,51,92,42
412.5306,412.69266,50,93,42
412.75284,412.91486,48,115,42
412.97507,413.1371,46,94,42
413.19727,413.3593,45,95,42
413.4195,413.58154,43,96,42
413.64172,413.80377,41,120,42
413.86395,414.02597,39,97,42
414.08615,414.2519,39,98,42
414.31345,414.48434,48,99,42
414.54782,414.7242,46,124,42
414.78973,414.97205,45,100,42
415.03973,415.93256,46,125,42
415.9372,416.82144,39,125,42
416.82608,417.71033,38,125,42
417.71497,418.1548,36,125,42
418.1594,418.5992,48,110,42
418.60385,419.4881,46,125,42
419.49274,420.41275,41,125,42
420.41794,420.60025,46,70,42
420.66794,420.83,46,70,42
420.89017,421.10776,46,70,42
421.1124,421.33,44,70,42
421.33463,421.55222,44,70,42
421.55682,421.7744,43,70,42
421.77905,421.9411,46,70,42
422.00128,422.16333,43,70,42
422.2235,422.4411,43,70,42
422.4457,422.66333,41,70,42
422.66794,422.83,46,70,42
422.89017,423.05222,44,70,42
423.1124,423.33,44,70,42
423.33463,423.55222,43,70,42
423.55682,423.71887,46,70,42
423.77905,423.9411,43,70,42
424.00128,424.21887,43,70,42
424.2235,424.4411,41,70,42
424.4457,424.61398,46,70,42
424.67648,424.84476,39,70,42
424.90726,425.14038,39,70,42
425.14536,425.37848,38,69,42
425.38345,425.56573,46,68,42
425.63345,425.8323,38,67,42
425.9062,426.40097,38,66,42
426.4062,427.65097,36,64,42
427.6562,427.90097,46,58,42
427.9062,428.44595,46,57,42
428.45163,429.53687,45,54,42
429.54254,430.20227,43,50,42
430.2092,431.1988,41,50,42
431.2092,431.6988,53,66,42
431.7092,432.1988,50,74,42
432.2092,432.73376,51,82,42
432.7449,433.33243,48,90,42
433.3449,433.9324,50,70,42
433.94492,434.5977,51,70,42
434.61157,435.34595,53,70,42
436.11157,436.63614,65,70,42
436.6473,437.17184,58,70,42
437.183,438.779,60,70,42
438.79016,439.3147,62,88,42
439.32587,439.89078,63,94,42
439.9028,440.51477,65,100,42
440.5278,441.87723,66,70,42
441.89142,442.55905,67,70,42
443.25507,444.73944,42,50,42
444.75507,445.22266,43,110,42
448.69058,449.87808,43,50,42
449.8906,450.3582,45,110,42
453.89755,455.08505,53,50,42
455.09756,455.56516,53,110,42
455.56976,455.7318,53,110,42
455.792,455.95404,53,110,42
456.45865,456.6207,65,88,42
456.68088,456.84293,65,76,42
456.9031,457.56516,65,70,42
457.56976,457.78735,65,73,42
457.792,460.00958,65,74,42
460.01422,460.2318,65,84,42
460.23645,460.89847,65,85,42
460.9031,461.1207,65,88,42
461.12534,461.78735,65,89,42
461.792,462.00958,65,92,42
462.01422,462.67624,65,93,42
462.68088,462.89847,63,96,42
462.9031,463.1207,63,97,42
463.12534,463.813,63,98,42
463.81796,464.06274,63,85,42
464.06796,464.51633,62,70,42
464.52097,464.96075,60,78,42
464.9654,465.4052,58,87,42
465.40985,465.84967,51,96,42
465.85428,466.2941,52,100,42
466.29874,467.65527,53,89,42
467.6603,469.4532,46,50,42
469.90225,470.23096,41,50,42
470.3467,470.6754,41,50,42
470.79114,470.9532,41,50,42
471.01337,471.1754,41,50,42
471.2356,473.00873,46,50,42
473.4578,473.7865,41,50,42
473.90225,474.23096,41,50,42
474.34668,474.51242,41,50,42
474.57397,474.74487,41,50,42
474.80835,475.15503,46,50,42
475.2771,475.448,41,50,42
475.51147,475.68787,41,50,42
475.7534,476.1232,46,70,42
476.2534,476.45227,41,110,42
476.52612,476.79956,41,110,42
476.90112,477.6433,46,110,42
