start_time,end_time,note_value,velocity,instrument_program_number
0.0,0.18359375,65,50,40
0.1875,0.27734375,63,50,40
0.28125,0.37109375,65,50,40
0.375,0.5,66,50,40
0.75,0.93359375,63,50,40
0.9375,1.0273438,61,50,40
1.03125,1.1210938,63,50,40
1.125,1.25,65,50,40
1.5,1.6835938,61,50,40
1.6875,1.7773438,60,50,40
1.78125,1.8710938,61,50,40
1.875,2.0,63,50,40
2.0625,2.1875,63,50,40
2.25,2.4335938,65,50,40
3.0,3.1835938,65,50,40
3.1875,3.2773438,63,50,40
3.28125,3.3710938,65,50,40
3.375,3.5,66,50,40
3.75,3.9335938,63,50,40
3.9375,4.0273438,61,50,40
4.03125,4.1210938,63,50,40
4.125,4.25,65,50,40
4.5,4.6835938,61,50,40
4.6875,4.7773438,60,50,40
4.78125,4.8710938,61,50,40
4.875,5.0,63,50,40
5.0625,5.1875,60,50,40
5.25,5.4335938,58,50,40
6.0,6.1835938,65,50,40
6.1875,6.2773438,63,50,40
6.28125,6.3710938,65,50,40
6.375,6.5,66,50,40
6.75,6.9335938,63,50,40
6.9375,7.0273438,61,50,40
7.03125,7.1210938,63,50,40
7.125,7.25,65,50,40
7.5,7.6835938,61,50,40
7.6875,7.7773438,60,50,40
7.78125,7.8710938,61,50,40
7.875,8.0,63,50,40
8.0625,8.1875,63,50,40
8.25,8.433594,65,50,40
9.0,9.183594,65,50,40
9.1875,9.277344,63,50,40
9.28125,9.371094,65,50,40
9.375,9.5,66,50,40
9.75,9.933594,63,50,40
9.9375,10.027344,61,50,40
10.03125,10.121094,63,50,40
10.125,10.25,65,50,40
10.5,10.683594,61,50,40
10.6875,10.777344,60,50,40
10.78125,10.871094,61,50,40
10.875,11.008333,63,50,40
11.075,11.217856,60,50,40
11.289285,11.499105,58,50,40
12.146425,12.330019,73,50,40
12.333925,12.423769,72,70,40
12.427675,12.517519,73,70,40
12.521425,12.646425,75,70,40
12.896425,13.080019,73,50,40
13.083925,13.208925,80,70,40
13.271425,13.396425,78,70,40
13.646425,13.830019,73,50,40
13.833925,13.923769,72,70,40
13.927675,14.017519,73,70,40
14.021425,14.146425,75,70,40
14.396425,14.580019,73,50,40
14.583925,14.708925,80,70,40
14.771425,14.896425,78,70,40
15.146425,15.330019,70,50,40
15.333925,15.423769,69,54,40
15.427675,15.517519,70,56,40
15.521425,15.646425,71,58,40
15.896425,16.080019,70,67,40
16.083925,16.173769,69,71,40
16.177675,16.267519,70,73,40
16.271425,16.396425,72,75,40
16.646425,16.830019,70,84,40
16.833925,16.923769,69,88,40
16.927675,17.017519,70,90,40
17.021425,17.146425,71,110,40
17.208925,17.33713,71,110,40
17.401232,17.597065,70,110,40
17.601233,17.74409,69,110,40
17.815517,18.025337,70,110,40
18.244087,18.427681,73,50,40
18.431587,18.521431,72,70,40
18.525337,18.615181,73,70,40
18.619087,18.744087,75,70,40
18.994087,19.177681,73,50,40
19.181587,19.306587,80,70,40
19.369087,19.494087,78,70,40
19.744087,19.927681,73,50,40
19.931587,20.021431,72,70,40
20.025337,20.115181,73,70,40
20.119087,20.244087,75,70,40
20.494087,20.677681,73,50,40
20.681587,20.806587,80,70,40
20.869087,20.994087,78,70,40
21.244087,21.427681,70,50,40
21.431587,21.521431,69,54,40
21.525337,21.615181,70,56,40
21.619087,21.744087,71,58,40
21.994087,22.177681,70,67,40
22.181587,22.271431,69,71,40
22.275337,22.365181,70,73,40
22.369087,22.494087,72,75,40
22.744087,22.927681,70,84,40
22.931587,23.021431,69,88,40
23.025337,23.115181,70,90,40
23.119087,23.244087,71,110,40
23.306587,23.43992,71,110,40
23.506586,23.716408,70,110,40
23.720873,23.887539,69,110,40
23.970873,24.215664,70,110,40
24.470873,24.570871,62,110,40
24.620872,24.71178,65,110,40
24.757235,24.840569,70,110,40
24.882235,24.913485,72,125,40
24.913485,25.004631,70,125,40
25.007235,25.129631,69,110,40
25.132235,25.254631,70,110,40
25.257235,25.340569,65,110,40
25.382235,25.465569,69,110,40
25.507235,25.590569,72,110,40
25.632235,25.663485,74,125,40
25.663485,25.754631,72,125,40
25.757235,25.879631,71,110,40
25.882235,26.004631,72,110,40
26.007235,26.090569,65,110,40
26.132235,26.215569,70,110,40
26.257235,26.340569,74,110,40
26.382235,26.413485,75,125,40
26.413485,26.504631,74,125,40
26.507235,26.629631,72,110,40
26.632235,26.754631,74,110,40
26.757235,26.840569,69,110,40
26.882235,26.965569,72,110,40
27.007235,27.090569,77,110,40
27.132235,27.163485,79,125,40
27.163485,27.254631,77,125,40
27.257235,27.379631,76,110,40
27.382235,27.504631,77,110,40
27.507235,27.590569,74,110,40
27.632235,27.715569,77,110,40
27.757235,27.840569,82,110,40
27.882235,27.913485,84,125,40
27.913485,28.004631,82,125,40
28.007235,28.129631,81,110,40
28.132235,28.254631,82,110,40
28.257235,28.340569,77,110,40
28.382235,28.465569,81,110,40
28.507235,28.590569,84,110,40
28.632235,28.663485,86,125,40
28.663485,28.754631,84,125,40
28.757235,28.879631,83,110,40
28.882235,29.004631,84,110,40
29.007235,29.090569,84,110,40
29.132235,29.215569,86,110,40
29.257235,29.34198,87,110,40
29.384354,29.47131,89,110,40
29.514788,29.603283,91,110,40
29.64753,29.73844,93,110,40
29.783894,29.917416,94,110,40
30.584284,30.667618,62,110,40
30.709284,30.792618,65,110,40
30.834284,30.917618,70,110,40
30.959284,30.990534,72,125,40
30.990534,31.08168,70,125,40
31.084284,31.20668,69,110,40
31.209284,31.33168,70,110,40
31.334284,31.417618,65,110,40
31.459284,31.542618,69,110,40
31.584284,31.667618,72,110,40
31.709284,31.740534,74,125,40
31.740534,31.83168,72,125,40
31.834284,31.95668,71,110,40
31.959284,32.08168,72,110,40
32.084286,32.167618,65,110,40
32.209286,32.292618,70,110,40
32.334286,32.417618,74,110,40
32.459286,32.490536,75,125,40
32.490536,32.58168,74,125,40
32.584286,32.70668,72,110,40
32.709286,32.83168,74,110,40
32.834286,32.917618,69,110,40
32.959286,33.042618,72,110,40
33.084286,33.167618,77,110,40
33.209286,33.240536,79,125,40
33.240536,33.33168,77,125,40
33.334286,33.45668,76,110,40
33.459286,33.58168,77,110,40
33.584286,33.667618,74,110,40
33.709286,33.792618,77,110,40
33.834286,33.917618,82,110,40
33.959286,33.990536,84,125,40
33.990536,34.08168,82,125,40
34.084286,34.20668,81,110,40
34.209286,34.33168,82,110,40
34.334286,34.417618,77,110,40
34.459286,34.542618,81,110,40
34.584286,34.667618,84,110,40
34.709286,34.740536,86,125,40
34.740536,34.83168,84,125,40
34.834286,34.95668,83,110,40
34.959286,35.08168,84,110,40
35.084286,35.167618,84,110,40
35.209286,35.292618,86,110,40
35.334286,35.42124,87,110,40
35.464718,35.555626,89,110,40
35.60108,35.69632,91,110,40
35.74394,35.843937,93,110,40
35.893936,36.040813,94,110,40
36.75303,36.848137,72,70,40
36.88346,36.974606,77,70,40
37.00846,37.099606,81,70,40
37.13346,37.16471,82,70,40
37.16471,37.255856,81,70,40
37.25846,37.380856,79,70,40
37.38346,37.505856,81,71,40
37.50846,37.599606,72,72,40
37.63346,37.724606,76,73,40
37.75846,37.849606,79,74,40
37.88346,37.91471,81,75,40
37.91471,38.005856,79,76,40
38.00846,38.130856,78,76,40
38.13346,38.255856,79,77,40
38.25846,38.349606,72,78,40
38.38346,38.474606,76,79,40
38.50846,38.599606,79,80,40
38.63346,38.66471,81,81,40
38.66471,38.755856,79,81,40
38.75846,38.880856,78,82,40
38.88346,39.005856,79,83,40
39.00846,39.099606,71,84,40
39.13346,39.224606,74,85,40
39.25846,39.349606,79,86,40
39.38346,39.41471,81,87,40
39.41471,39.505856,79,87,40
39.50846,39.630856,78,88,40
39.63346,39.755856,79,89,40
39.75846,39.849606,71,90,40
39.88346,39.974606,74,91,40
40.00846,40.099606,79,92,40
40.13346,40.16471,81,93,40
40.16471,40.255856,79,93,40
40.25846,40.380856,78,94,40
40.38346,40.505856,79,95,40
40.50846,40.599606,69,96,40
40.63346,40.724606,74,97,40
40.75846,40.849606,77,98,40
40.88346,40.91471,79,99,40
40.91471,41.005856,77,99,40
41.00846,41.130856,76,100,40
41.13346,41.255856,77,100,40
41.25846,41.349606,69,110,40
41.38346,41.474606,74,110,40
41.50846,41.60357,77,110,40
41.638893,41.738327,69,110,40
41.775257,41.879425,73,110,40
41.918114,42.02749,76,90,40
42.068115,42.167545,65,50,40
42.20448,42.295624,69,50,40
42.32948,42.420624,74,50,40
42.45448,42.48573,76,50,40
42.48573,42.576874,74,50,40
42.57948,42.701874,73,50,40
42.70448,42.826874,74,50,40
42.82948,42.920624,67,50,40
42.95448,43.045624,70,50,40
43.07948,43.170624,74,50,40
43.20448,43.23573,76,50,40
43.23573,43.326874,74,50,40
43.32948,43.451874,73,50,40
43.45448,43.576874,74,50,40
43.57948,43.670624,65,50,40
43.70448,43.795624,69,50,40
43.82948,43.920624,74,50,40
43.95448,43.98573,76,50,40
43.98573,44.076874,74,50,40
44.07948,44.201874,73,50,40
44.20448,44.326874,74,50,40
44.32948,44.420624,65,50,40
44.45448,44.545624,69,50,40
44.57948,44.670624,74,50,40
44.70448,44.795624,69,50,40
44.82948,44.920624,73,50,40
44.95448,45.045624,76,50,40
45.07948,45.170624,69,50,40
45.20448,45.295624,74,50,40
45.32948,45.420624,77,50,40
45.45448,45.48573,79,50,40
45.48573,45.576874,77,50,40
45.57948,45.701874,76,52,40
45.70448,45.826874,77,55,40
45.82948,45.920624,71,57,40
45.95448,46.045624,74,60,40
46.07948,46.170624,79,62,40
46.20448,46.23573,81,65,40
46.23573,46.326874,79,65,40
46.32948,46.451874,78,67,40
46.45448,46.576874,79,70,40
46.57948,46.670624,72,72,40
46.70448,46.795624,76,75,40
46.82948,46.920624,79,78,40
46.95448,46.98573,81,80,40
46.98573,47.076874,79,81,40
47.07948,47.201874,78,83,40
47.20448,47.326874,79,85,40
47.32948,47.420624,72,88,40
47.45448,47.545624,76,90,40
47.57948,47.670624,79,93,40
47.70448,47.795624,72,95,40
47.82948,47.920624,75,98,40
47.95448,48.045624,81,100,40
48.07948,48.170624,74,110,40
48.20448,48.295624,77,110,40
48.32948,48.420624,82,110,40
48.45448,48.48573,84,110,40
48.48573,48.576874,82,110,40
48.57948,48.701874,81,110,40
48.70448,48.826874,82,110,40
48.82948,48.920624,77,110,40
48.95448,49.045624,81,110,40
49.07948,49.170624,84,110,40
49.20448,49.23573,86,125,40
49.23573,49.326874,84,125,40
49.32948,49.451874,83,110,40
49.45448,49.576874,84,110,40
49.57948,49.670624,77,110,40
49.70448,49.795624,82,110,40
49.82948,49.920624,86,110,40
49.95448,49.98573,87,125,40
49.98573,50.076874,86,125,40
50.07948,50.201874,84,110,40
50.20448,50.326874,86,110,40
50.32948,50.420624,81,110,40
50.45448,50.545624,84,110,40
50.57948,50.670624,89,110,40
50.70448,50.73573,91,125,40
50.73573,50.826874,89,125,40
50.82948,50.951874,88,110,40
50.95448,51.076874,89,110,40
51.07948,51.170624,74,110,40
51.20448,51.295624,77,110,40
51.32948,51.420624,82,110,40
51.45448,51.48573,84,125,40
51.48573,51.576874,82,125,40
51.57948,51.701874,81,110,40
51.70448,51.826874,82,110,40
51.82948,51.920624,77,110,40
51.95448,52.045624,81,110,40
52.07948,52.170624,84,110,40
52.20448,52.23573,86,125,40
52.23573,52.326874,84,125,40
52.32948,52.451874,83,110,40
52.45448,52.576874,84,110,40
52.57948,52.670624,84,120,40
52.70448,52.795624,86,120,40
52.82948,52.920624,87,120,40
52.95448,53.045624,89,120,40
53.07948,53.174587,91,120,40
53.20991,53.309345,93,120,40
53.346275,53.479797,94,120,40
54.146667,54.241776,72,70,40
54.2771,54.368244,77,70,40
54.4021,54.493244,81,70,40
54.5271,54.55835,82,70,40
54.55835,54.649494,81,70,40
54.6521,54.774494,79,70,40
54.7771,54.899494,81,71,40
54.9021,54.993244,72,72,40
55.0271,55.118244,76,73,40
55.1521,55.243244,79,74,40
55.2771,55.30835,81,75,40
55.30835,55.399494,79,76,40
55.4021,55.524494,78,76,40
55.5271,55.649494,79,77,40
55.6521,55.743244,72,78,40
55.7771,55.868244,76,79,40
55.9021,55.993244,79,80,40
56.0271,56.05835,81,81,40
56.05835,56.149494,79,81,40
56.1521,56.274494,78,82,40
56.2771,56.399494,79,83,40
56.4021,56.493244,71,84,40
56.5271,56.618244,74,85,40
56.6521,56.743244,79,86,40
56.7771,56.80835,81,87,40
56.80835,56.899494,79,87,40
56.9021,57.024494,78,88,40
57.0271,57.149494,79,89,40
57.1521,57.243244,71,90,40
57.2771,57.368244,74,91,40
57.4021,57.493244,79,92,40
57.5271,57.55835,81,93,40
57.55835,57.649494,79,93,40
57.6521,57.774494,78,94,40
57.7771,57.899494,79,95,40
57.9021,57.993244,69,96,40
58.0271,58.118244,74,97,40
58.1521,58.243244,77,98,40
58.2771,58.30835,79,99,40
58.30835,58.399494,77,99,40
58.4021,58.524494,76,100,40
58.5271,58.649494,77,100,40
58.6521,58.743244,69,110,40
58.7771,58.868244,74,110,40
58.9021,58.997208,77,110,40
59.032536,59.131966,69,110,40
59.168896,59.273064,73,110,40
59.311752,59.421127,76,90,40
59.461754,59.561184,65,50,40
59.598118,59.689262,69,50,40
59.723118,59.814262,74,50,40
59.848118,59.879368,76,50,40
59.879368,59.970512,74,50,40
59.973118,60.095512,73,50,40
60.098118,60.220512,74,50,40
60.223118,60.314262,67,50,40
60.348118,60.439262,70,50,40
60.473118,60.564262,74,50,40
60.598118,60.629368,76,50,40
60.629368,60.720512,74,50,40
60.723118,60.845512,73,50,40
60.848118,60.970512,74,50,40
60.973118,61.064262,65,50,40
61.098118,61.189262,69,50,40
61.223118,61.314262,74,50,40
61.348118,61.379368,76,50,40
61.379368,61.470512,74,50,40
61.473118,61.595512,73,50,40
61.598118,61.720512,74,50,40
61.723118,61.814262,65,50,40
61.848118,61.939262,69,50,40
61.973118,62.064262,74,50,40
62.098118,62.189262,69,50,40
62.223118,62.314262,73,50,40
62.348118,62.439262,76,50,40
62.473118,62.564262,69,50,40
62.598118,62.689262,74,50,40
62.723118,62.814262,77,50,40
62.848118,62.879368,79,50,40
62.879368,62.970512,77,50,40
62.973118,63.095512,76,52,40
63.098118,63.220512,77,55,40
63.223118,63.314262,71,57,40
63.348118,63.439262,74,60,40
63.473118,63.564262,79,62,40
63.598118,63.629368,81,65,40
63.629368,63.720512,79,65,40
63.723118,63.845512,78,67,40
63.848118,63.970512,79,70,40
63.973118,64.06426,72,72,40
64.098114,64.18926,76,75,40
64.223114,64.31426,79,78,40
64.348114,64.379364,81,80,40
64.379364,64.47051,79,81,40
64.473114,64.59551,78,83,40
64.598114,64.72051,79,85,40
64.723114,64.81426,72,88,40
64.848114,64.93926,76,90,40
64.973114,65.06426,79,93,40
65.098114,65.18926,72,95,40
65.223114,65.31426,75,98,40
65.348114,65.43926,81,100,40
65.473114,65.56426,74,110,40
65.598114,65.68926,77,110,40
65.723114,65.81426,82,110,40
65.848114,65.879364,84,110,40
65.879364,65.97051,82,110,40
65.973114,66.09551,81,110,40
66.098114,66.22051,82,110,40
66.223114,66.31426,77,110,40
66.348114,66.43926,81,110,40
66.473114,66.56426,84,110,40
66.598114,66.629364,86,125,40
66.629364,66.72051,84,125,40
66.723114,66.84551,83,110,40
66.848114,66.97051,84,110,40
66.973114,67.06426,77,110,40
67.098114,67.18926,82,110,40
67.223114,67.31426,86,110,40
67.348114,67.379364,87,125,40
67.379364,67.47051,86,125,40
67.473114,67.59551,84,110,40
67.598114,67.72051,86,110,40
67.723114,67.81426,81,110,40
67.848114,67.93926,84,110,40
67.973114,68.06426,89,110,40
68.098114,68.129364,91,125,40
68.129364,68.22051,89,125,40
68.223114,68.34551,88,110,40
68.348114,68.47051,89,110,40
68.473114,68.56426,74,110,40
68.598114,68.68926,77,110,40
68.723114,68.81426,82,110,40
68.848114,68.879364,84,125,40
68.879364,68.97051,82,125,40
68.973114,69.09551,81,110,40
69.098114,69.22051,82,110,40
69.223114,69.31426,77,110,40
69.348114,69.43926,81,110,40
69.473114,69.56426,84,110,40
69.598114,69.629364,86,125,40
69.629364,69.72051,84,125,40
69.723114,69.84551,83,110,40
69.848114,69.97051,84,110,40
69.973114,70.06426,84,120,40
70.098114,70.18926,86,120,40
70.223114,70.31822,87,120,40
70.35355,70.45298,89,120,40
70.489914,70.59408,91,120,40
70.632774,70.74215,93,120,40
70.78277,70.92965,94,120,40
71.64186,71.741295,72,97,40
71.77822,71.877655,74,93,40
71.91459,72.014015,75,88,40
72.05095,72.15038,77,84,40
72.18731,72.28674,79,79,40
72.32368,72.4231,81,75,40
72.46004,72.59356,82,70,40
73.30484,73.57472,60,70,40
73.71645,73.99134,62,70,40
74.13312,74.415855,63,70,40
74.56446,74.85269,65,70,40
75.00136,75.29823,67,70,40
75.454414,75.757355,69,70,40
75.913605,76.2261,70,70,40
76.38728,77.73336,72,70,40
77.73596,77.86096,71,70,40
77.86096,77.98596,70,70,40
77.98596,78.11096,69,70,40
78.11096,78.23596,68,70,40
78.23596,78.29846,67,70,40
78.29846,78.35836,66,70,40
78.36096,78.48596,65,110,40
78.54846,78.67346,65,110,40
78.73596,78.86096,66,110,40
79.86096,80.73596,75,70,40
80.73596,80.86096,74,70,40
80.86096,80.92346,72,70,40
80.92346,80.98596,71,70,40
80.98596,81.04846,70,70,40
81.04846,81.11096,69,70,40
81.11096,81.17346,68,70,40
81.17346,81.23596,67,70,40
81.23596,81.35836,66,70,40
81.36096,81.48596,65,110,40
81.54846,81.67346,65,110,40
81.73596,81.86096,66,110,40
82.86096,83.74732,78,70,40
83.74732,83.815506,77,70,40
83.815506,83.88369,75,70,40
83.88369,83.951866,73,70,40
83.951866,84.0233,72,70,40
84.0233,84.09473,71,70,40
84.09473,84.16615,70,70,40
84.16615,84.23758,69,70,40
84.23758,84.312584,68,65,40
84.312584,84.38758,67,60,40
84.38758,84.55077,66,55,40
84.55425,84.73785,65,50,40
84.74175,84.8316,63,50,40
84.8355,84.92535,65,50,40
84.92925,85.06597,66,50,40
85.30425,85.48785,63,50,40
85.49175,85.5816,61,50,40
85.5855,85.67535,63,50,40
85.67925,85.81597,65,50,40
86.05425,86.23785,61,50,40
86.24175,86.3316,60,50,40
86.3355,86.42535,61,50,40
86.42925,86.56597,63,50,40
86.61675,86.75347,63,50,40
86.80425,86.98785,65,50,40
87.55425,87.73785,65,50,40
87.74175,87.8316,63,50,40
87.8355,87.92535,65,50,40
87.92925,88.06597,66,50,40
88.30425,88.48785,63,50,40
88.49175,88.5816,61,50,40
88.5855,88.67535,63,50,40
88.67925,88.81597,65,50,40
89.05425,89.23785,61,50,40
89.24175,89.3316,60,50,40
89.3355,89.42535,61,50,40
89.42925,89.56597,63,50,40
89.61675,89.75347,60,50,40
89.80425,89.98785,58,50,40
90.55425,90.60113,65,50,40
90.60113,90.648,66,50,40
90.648,90.69488,65,50,40
90.69488,90.74175,66,50,40
90.74175,90.80425,65,50,40
90.80425,90.86675,63,50,40
90.86675,90.92535,65,50,40
90.92925,91.06597,66,50,40
91.11675,91.25347,78,50,40
91.30425,91.35113,63,50,40
91.35113,91.398,65,50,40
91.398,91.44488,63,50,40
91.44488,91.49175,65,50,40
91.49175,91.55425,63,50,40
91.55425,91.61675,61,50,40
91.61675,91.67535,63,50,40
91.67925,91.81597,65,50,40
91.86675,92.00347,77,50,40
92.05425,92.10113,61,50,40
92.10113,92.148,63,50,40
92.148,92.19488,61,50,40
92.19488,92.24175,63,50,40
92.24175,92.30425,61,50,40
92.30425,92.36675,60,50,40
92.36675,92.42535,61,50,40
92.42925,92.56597,63,50,40
92.61675,92.75347,75,50,40
92.80425,92.94097,65,50,40
92.99175,93.12847,77,50,40
93.55425,93.60113,65,50,40
93.60113,93.648,66,50,40
93.648,93.69488,65,50,40
93.69488,93.74175,66,50,40
93.74175,93.80425,65,50,40
93.80425,93.86675,63,50,40
93.86675,93.92535,65,50,40
93.92925,94.06597,66,50,40
94.11675,94.25347,78,50,40
94.30425,94.35113,63,50,40
94.35113,94.398,65,50,40
94.398,94.44488,63,50,40
94.44488,94.49175,65,50,40
94.49175,94.55425,63,50,40
94.55425,94.61675,61,50,40
94.61675,94.67535,63,50,40
94.67925,94.81597,65,50,40
94.86675,95.00347,77,50,40
95.05425,95.10113,61,50,40
95.10113,95.148,63,50,40
95.148,95.19488,61,50,40
95.19488,95.24175,63,50,40
95.24175,95.30425,61,50,40
95.30425,95.36675,60,50,40
95.36675,95.42535,61,50,40
95.42925,95.56597,63,50,40
95.61675,95.75347,60,50,40
95.80425,95.98785,58,50,40
96.55425,96.73785,73,50,40
96.74175,96.8355,72,50,40
96.8355,96.92925,73,50,40
96.92925,97.05425,75,50,40
97.30425,97.48785,73,50,40
97.49175,97.61675,80,50,40
97.67925,97.80425,78,50,40
98.05425,98.23785,73,50,40
98.24175,98.3355,72,50,40
98.3355,98.42925,73,50,40
98.42925,98.55425,75,50,40
98.80425,98.98785,73,50,40
98.99175,99.11675,80,50,40
99.17925,99.30425,78,50,40
99.55425,99.73785,70,50,40
99.74175,99.8355,69,50,40
99.8355,99.92925,70,50,40
99.92925,100.05425,71,50,40
100.30425,100.48785,70,50,40
100.49175,100.5855,69,50,40
100.5855,100.67925,70,50,40
100.67925,100.80425,72,50,40
101.05425,101.23785,70,50,40
101.24175,101.3355,69,50,40
101.3355,101.42925,70,50,40
101.42925,101.55425,71,50,40
101.61675,101.74175,71,50,40
101.80425,101.98785,70,50,40
101.99175,102.11675,69,50,40
102.17925,102.30425,70,50,40
102.55425,102.60113,73,60,40
102.60113,102.648,75,63,40
102.648,102.69488,73,67,40
102.69488,102.74175,75,71,40
102.74175,102.80425,73,75,40
102.80425,102.86675,72,80,40
102.86675,102.92925,73,85,40
102.92925,103.06597,75,90,40
103.11675,103.25347,87,60,40
103.30425,103.36675,73,60,40
103.36675,103.42925,75,65,40
103.42925,103.49175,73,70,40
103.49175,103.62847,80,75,40
103.67925,103.81597,78,90,40
103.86675,104.00347,90,60,40
104.05425,104.11675,73,60,40
104.11675,104.17925,75,65,40
104.17925,104.24175,73,70,40
104.24175,104.3355,72,75,40
104.3355,104.42925,73,83,40
104.42925,104.56597,75,90,40
104.61675,104.75347,87,60,40
104.80425,104.86675,73,60,40
104.86675,104.92925,75,65,40
104.92925,104.99175,73,70,40
104.99175,105.12847,80,75,40
105.17925,105.31597,78,90,40
105.36675,105.50347,90,60,40
105.55425,105.61675,70,60,40
105.61675,105.67925,72,61,40
105.67925,105.74175,70,62,40
105.74175,105.8355,69,64,40
105.8355,105.92925,70,66,40
105.92925,106.06597,71,68,40
106.30425,106.36675,70,77,40
106.36675,106.42925,72,78,40
106.42925,106.49175,70,80,40
106.49175,106.5855,69,81,40
106.5855,106.67925,70,83,40
106.67925,106.81597,72,85,40
107.05425,107.11675,70,94,40
107.11675,107.17925,72,95,40
107.17925,107.24175,70,97,40
107.24175,107.3355,69,98,40
107.3355,107.42925,70,100,40
107.42925,107.56597,71,110,40
107.61675,107.76258,71,110,40
107.81675,108.01258,70,110,40
108.01675,108.173,69,110,40
108.23103,108.38728,70,110,40
108.65961,109.23252,61,50,40
109.23653,109.328674,63,50,40
109.33268,109.42483,61,50,40
109.42883,110.00175,60,50,40
110.00575,110.0979,61,50,40
110.101906,110.19405,60,50,40
110.19806,110.77851,58,50,40
110.78268,110.97851,60,50,40
110.98267,111.178505,57,50,40
111.78268,112.4372,58,50,40
112.44202,112.686806,60,50,40
112.69202,112.936806,57,50,40
113.69202,113.936806,73,50,40
113.94202,114.06702,72,50,40
114.06702,114.19202,73,50,40
114.19202,114.37383,75,50,40
114.46474,114.68696,75,50,40
114.79807,115.12446,77,50,40
116.13141,116.32724,73,120,40
116.331406,116.431404,72,120,40
116.431404,116.5314,73,120,40
116.5314,116.66839,75,120,40
116.736885,116.87974,77,120,40
116.95117,117.16099,70,120,40
119.62973,119.67884,70,1,40
0.0,0.55859375,61,50,40
0.5625,0.65234375,63,50,40
0.65625,0.74609375,61,50,40
0.75,1.3085938,60,50,40
1.3125,1.4023438,61,50,40
1.40625,1.4960938,60,50,40
1.5,2.0585938,58,50,40
2.0625,2.1523438,60,50,40
2.15625,2.2460938,58,50,40
2.25,2.4335938,57,50,40
3.0,3.5585938,61,50,40
3.5625,3.6523438,63,50,40
3.65625,3.7460938,61,50,40
3.75,4.3085938,60,50,40
4.3125,4.4023438,61,50,40
4.40625,4.4960938,60,50,40
4.5,4.625,58,50,40
4.6875,4.8125,58,50,40
4.875,5.0,57,50,40
5.0625,5.1875,57,50,40
5.25,5.4335938,58,50,40
6.0,6.5585938,61,50,40
6.5625,6.6523438,63,50,40
6.65625,6.7460938,61,50,40
6.75,7.3085938,60,50,40
7.3125,7.4023438,61,50,40
7.40625,7.4960938,60,50,40
7.5,8.058594,58,50,40
8.0625,8.152344,60,50,40
8.15625,8.246094,58,50,40
8.25,8.433594,57,50,40
9.0,9.558594,61,50,40
9.5625,9.652344,63,50,40
9.65625,9.746094,61,50,40
9.75,10.308594,60,50,40
10.3125,10.402344,61,50,40
10.40625,10.496094,60,50,40
10.5,10.625,58,50,40
10.6875,10.8125,58,50,40
10.875,11.008333,57,50,40
11.075,11.217856,57,50,40
11.289285,11.499105,58,50,40
12.146425,12.517519,65,50,40
12.521425,12.705019,66,70,40
12.896425,13.267519,65,50,40
13.271425,13.455019,63,70,40
13.458925,13.642519,66,50,40
13.646425,14.017519,65,50,40
14.021425,14.205019,66,70,40
14.396425,14.767519,65,50,40
14.771425,14.955019,63,70,40
14.958925,15.142519,66,50,40
15.146425,15.517519,65,50,40
15.521425,15.705019,66,58,40
15.896425,16.267519,65,67,40
16.271425,16.455019,66,75,40
16.646425,17.017519,65,84,40
17.021425,17.146425,66,110,40
17.208925,17.33713,63,110,40
17.401232,17.597065,61,110,40
17.601233,17.74409,60,110,40
17.815517,18.025337,61,110,40
18.244087,18.615181,65,50,40
18.619087,18.802681,66,70,40
18.994087,19.365181,65,50,40
19.369087,19.552681,63,70,40
19.556587,19.740181,66,50,40
19.744087,20.115181,65,50,40
20.119087,20.302681,66,70,40
20.494087,20.865181,65,50,40
20.869087,21.052681,63,70,40
21.056587,21.240181,66,50,40
21.244087,21.615181,65,50,40
21.619087,21.802681,66,58,40
21.994087,22.365181,65,67,40
22.369087,22.552681,66,75,40
22.744087,23.115181,65,84,40
23.119087,23.244087,66,110,40
23.306587,23.43992,63,110,40
23.506586,23.716408,61,110,40
23.720873,23.887539,60,110,40
23.970873,24.215664,61,110,40
24.882235,24.965569,65,110,40
25.007235,25.090569,65,110,40
25.132235,25.215569,65,110,40
25.632235,25.715569,65,110,40
25.757235,25.840569,65,110,40
25.882235,25.965569,65,110,40
26.382235,26.465569,62,110,40
26.507235,26.590569,60,110,40
26.632235,26.715569,58,110,40
27.132235,27.223381,60,110,40
27.257235,27.348381,60,110,40
27.382235,27.473381,60,110,40
27.882235,27.973381,77,110,40
28.007235,28.098381,75,110,40
28.132235,28.223381,74,110,40
28.632235,28.723381,72,110,40
28.757235,28.848381,77,110,40
28.882235,28.973381,77,110,40
29.384354,29.479462,72,110,40
29.514788,29.611578,72,110,40
29.64753,29.746962,72,110,40
29.783894,29.917416,74,110,40
30.192982,30.28809,65,70,40
30.323416,30.418524,65,70,40
30.45385,30.548958,65,70,40
30.959284,31.042618,65,110,40
31.084284,31.167618,65,110,40
31.209284,31.292618,65,110,40
31.709284,31.792618,65,110,40
31.834284,31.917618,65,110,40
31.959284,32.042618,65,110,40
32.459286,32.542618,62,110,40
32.584286,32.667618,60,110,40
32.709286,32.792618,58,110,40
33.209286,33.30043,60,110,40
33.334286,33.42543,60,110,40
33.459286,33.55043,60,110,40
33.959286,34.05043,77,110,40
34.084286,34.17543,75,110,40
34.209286,34.30043,74,110,40
34.709286,34.80043,72,110,40
34.834286,34.92543,77,110,40
34.959286,35.05043,77,110,40
35.464718,35.564148,72,110,40
35.60108,35.705246,72,110,40
35.74394,35.853313,72,110,40
35.893936,36.040813,74,110,40
36.343937,36.44337,65,70,40
36.343937,36.44337,72,70,40
36.4803,36.57973,65,70,40
36.4803,36.57973,72,70,40
36.616665,36.716095,65,70,40
36.616665,36.716095,72,70,40
37.13346,37.224606,65,70,40
37.13346,37.224606,72,70,40
37.25846,37.349606,65,70,40
37.25846,37.349606,72,70,40
37.38346,37.474606,65,71,40
37.38346,37.474606,72,71,40
37.88346,37.974606,72,75,40
38.00846,38.099606,72,76,40
38.13346,38.224606,72,77,40
38.63346,38.724606,67,81,40
38.75846,38.849606,67,82,40
38.88346,38.974606,67,83,40
39.38346,39.474606,71,87,40
39.50846,39.599606,71,88,40
39.63346,39.724606,71,89,40
40.13346,40.224606,71,93,40
40.25846,40.349606,71,94,40
40.38346,40.474606,71,95,40
40.88346,40.974606,69,99,40
41.00846,41.099606,69,100,40
41.13346,41.224606,69,100,40
41.25846,41.380856,69,110,40
41.638893,41.77242,69,110,40
42.45448,42.545624,62,50,40
42.57948,42.670624,62,50,40
42.70448,42.795624,62,50,40
43.20448,43.295624,58,50,40
43.32948,43.420624,58,50,40
43.45448,43.545624,58,50,40
43.95448,44.045624,57,50,40
44.07948,44.170624,57,50,40
44.20448,44.295624,57,50,40
44.70448,44.795624,57,50,40
44.82948,44.920624,61,50,40
44.95448,45.045624,61,50,40
45.45448,45.545624,62,50,40
45.57948,45.670624,69,52,40
45.70448,45.795624,69,55,40
46.20448,46.295624,71,65,40
46.32948,46.420624,71,67,40
46.45448,46.545624,71,70,40
46.95448,47.045624,72,80,40
47.07948,47.170624,72,83,40
47.20448,47.295624,72,85,40
47.70448,47.795624,72,95,40
47.82948,47.920624,72,98,40
47.95448,48.045624,72,100,40
48.45448,48.545624,65,110,40
48.57948,48.670624,65,110,40
48.70448,48.795624,65,110,40
49.20448,49.295624,65,110,40
49.32948,49.420624,65,110,40
49.45448,49.545624,65,110,40
49.95448,50.045624,65,110,40
50.07948,50.170624,65,110,40
50.20448,50.295624,65,110,40
50.70448,50.795624,65,110,40
50.82948,50.920624,65,110,40
50.95448,51.045624,65,110,40
51.45448,51.545624,65,110,40
51.57948,51.670624,65,110,40
51.70448,51.795624,65,110,40
52.20448,52.295624,69,110,40
52.32948,52.420624,69,110,40
52.45448,52.545624,69,110,40
52.95448,53.045624,69,120,40
52.95448,53.045624,77,120,40
53.07948,53.174587,69,120,40
53.07948,53.174587,77,120,40
53.20991,53.309345,69,120,40
53.20991,53.309345,77,120,40
53.346275,53.479797,70,120,40
53.346275,53.479797,77,120,40
53.755363,53.85047,72,70,40
53.8858,53.980907,72,70,40
54.01623,54.11134,72,70,40
54.5271,54.618244,65,70,40
54.5271,54.618244,72,70,40
54.6521,54.743244,65,70,40
54.6521,54.743244,72,70,40
54.7771,54.868244,65,71,40
54.7771,54.868244,72,71,40
55.2771,55.368244,72,75,40
55.4021,55.493244,72,76,40
55.5271,55.618244,72,77,40
56.0271,56.118244,67,81,40
56.1521,56.243244,67,82,40
56.2771,56.368244,67,83,40
56.7771,56.868244,71,87,40
56.9021,56.993244,71,88,40
57.0271,57.118244,71,89,40
57.5271,57.618244,71,93,40
57.6521,57.743244,71,94,40
57.7771,57.868244,71,95,40
58.2771,58.368244,69,99,40
58.4021,58.493244,69,100,40
58.5271,58.618244,69,100,40
58.6521,58.774494,69,110,40
59.032536,59.166058,69,110,40
59.848118,59.939262,62,50,40
59.973118,60.064262,62,50,40
60.098118,60.189262,62,50,40
60.598118,60.689262,58,50,40
60.723118,60.814262,58,50,40
60.848118,60.939262,58,50,40
61.348118,61.439262,57,50,40
61.473118,61.564262,57,50,40
61.598118,61.689262,57,50,40
62.098118,62.189262,57,50,40
62.223118,62.314262,61,50,40
62.348118,62.439262,61,50,40
62.848118,62.939262,62,50,40
62.973118,63.064262,69,52,40
63.098118,63.189262,69,55,40
63.598118,63.689262,71,65,40
63.723118,63.814262,71,67,40
63.848118,63.939262,71,70,40
64.348114,64.43926,72,80,40
64.473114,64.56426,72,83,40
64.598114,64.68926,72,85,40
65.098114,65.18926,72,95,40
65.223114,65.31426,72,98,40
65.348114,65.43926,72,100,40
65.848114,65.93926,65,110,40
65.973114,66.06426,65,110,40
66.098114,66.18926,65,110,40
66.598114,66.68926,65,110,40
66.723114,66.81426,65,110,40
66.848114,66.93926,65,110,40
67.348114,67.43926,65,110,40
67.473114,67.56426,65,110,40
67.598114,67.68926,65,110,40
68.098114,68.18926,65,110,40
68.223114,68.31426,65,110,40
68.348114,68.43926,65,110,40
68.848114,68.93926,65,110,40
68.973114,69.06426,65,110,40
69.098114,69.18926,65,110,40
69.598114,69.68926,69,110,40
69.723114,69.81426,69,110,40
69.848114,69.93926,69,110,40
70.35355,70.45298,69,120,40
70.35355,70.45298,77,120,40
70.489914,70.59408,69,120,40
70.489914,70.59408,77,120,40
70.632774,70.74215,69,120,40
70.632774,70.74215,77,120,40
70.78277,70.92965,70,120,40
70.78277,70.92965,77,120,40
71.23277,71.3322,75,110,40
71.36913,71.46857,75,106,40
71.5055,71.60493,75,102,40
72.05095,72.15038,75,84,40
72.18731,72.28674,75,79,40
72.32368,72.4231,75,75,40
72.46004,72.55947,62,70,40
72.5964,72.69583,63,70,40
72.732765,72.8322,65,70,40
72.869125,72.9733,67,70,40
73.011986,73.11615,69,70,40
73.15484,73.26421,70,70,40
73.30484,73.57472,60,70,40
73.71645,73.99134,62,70,40
74.13312,74.415855,63,70,40
74.56446,74.85269,65,70,40
75.00136,75.29823,67,70,40
75.454414,75.757355,69,70,40
75.913605,76.2261,70,70,40
76.38728,76.69978,60,70,40
78.36096,78.48596,65,110,40
78.54846,78.67346,65,110,40
78.73596,78.86096,66,110,40
81.36096,81.48596,65,110,40
81.54846,81.67346,65,110,40
81.73596,81.86096,66,110,40
84.55425,85.11285,61,50,40
85.11675,85.2066,63,50,40
85.2105,85.30035,61,50,40
85.30425,85.86285,60,50,40
85.86675,85.9566,61,50,40
85.9605,86.05035,60,50,40
86.05425,86.17925,58,50,40
86.24175,86.36675,58,50,40
86.42925,86.55425,58,50,40
86.61675,86.74175,58,50,40
86.80425,86.98785,57,50,40
86.99175,87.0816,60,50,40
87.0855,87.17535,61,50,40
87.17925,87.30425,63,50,40
87.36675,87.49175,60,50,40
87.55425,88.30035,61,50,40
88.30425,88.86285,60,50,40
88.86675,88.9566,61,50,40
88.9605,89.05035,60,50,40
89.05425,89.17925,58,50,40
89.24175,89.36675,58,50,40
89.42925,89.55425,57,50,40
89.61675,89.74175,57,50,40
89.80425,89.98785,58,50,40
90.55425,90.92535,61,50,40
90.92925,91.05425,75,50,40
91.11675,91.24175,63,50,40
91.30425,91.67535,60,50,40
91.67925,91.80425,73,50,40
91.86675,91.99175,61,50,40
92.05425,92.42535,58,50,40
92.42925,92.55425,70,50,40
92.61675,92.74175,58,50,40
92.80425,92.92925,57,50,40
92.99175,93.11675,69,50,40
93.17925,93.30425,77,50,40
93.36675,93.49175,65,50,40
93.55425,93.67925,73,50,40
93.74175,93.86675,61,50,40
94.11675,94.24175,66,50,40
94.30425,94.42925,72,50,40
94.49175,94.61675,60,50,40
94.86675,94.99175,65,50,40
95.05425,95.17925,70,50,40
95.24175,95.36675,70,50,40
95.42925,95.55425,72,50,40
95.61675,95.74175,69,50,40
95.80425,95.98785,70,50,40
96.55425,96.92535,65,50,40
96.92925,97.11285,66,50,40
97.30425,97.86285,68,50,40
97.86675,98.05035,78,50,40
98.05425,98.42535,65,50,40
98.42925,98.61285,66,50,40
98.80425,99.36285,68,50,40
99.36675,99.55035,78,50,40
99.55425,99.92535,65,50,40
99.92925,100.11285,66,50,40
100.30425,100.67535,65,50,40
100.67925,100.86285,66,50,40
101.05425,101.42535,65,50,40
101.42925,101.55425,66,50,40
101.61675,101.74175,63,50,40
101.80425,101.98785,61,50,40
101.99175,102.11675,60,50,40
102.17925,102.30425,61,50,40
102.55425,102.92535,65,90,40
102.92925,103.11285,66,90,40
103.11675,103.30035,75,60,40
103.30425,103.67535,65,90,40
103.67925,103.86285,72,90,40
103.86675,104.05035,75,60,40
104.05425,104.42535,65,90,40
104.42925,104.61285,66,90,40
104.61675,104.80035,75,60,40
104.80425,105.17535,65,90,40
105.17925,105.36285,72,90,40
105.36675,105.55035,75,60,40
105.55425,105.92535,65,60,40
105.92925,106.11285,66,68,40
106.30425,106.67535,65,77,40
106.67925,106.86285,66,85,40
107.05425,107.42535,65,94,40
107.42925,107.56597,66,110,40
107.61675,107.76258,63,110,40
107.81675,108.01258,61,110,40
108.01675,108.173,60,110,40
108.23103,108.38728,61,110,40
113.69202,114.45906,82,50,40
114.46474,114.79113,84,50,40
114.79807,115.12446,69,50,40
114.79807,115.12446,81,50,40
116.13141,116.52724,70,120,40
116.5314,116.66839,70,120,40
116.736885,116.87974,60,120,40
116.736885,116.87974,65,120,40
116.95117,117.16099,58,120,40
116.95117,117.16099,65,120,40
0.375,1.1210938,58,50,41
1.125,1.8710938,56,50,41
1.875,2.0,54,50,41
2.0625,2.1875,51,50,41
2.25,2.4335938,48,50,41
3.375,4.1210938,58,50,41
4.125,4.3085938,56,50,41
4.3125,4.6367188,53,50,41
4.6875,4.8125,51,50,41
4.875,5.0,48,50,41
5.0625,5.1875,53,50,41
5.25,5.4335938,53,50,41
6.375,7.1210938,58,50,41
7.125,7.8710938,56,50,41
7.875,8.0,54,50,41
8.0625,8.1875,51,50,41
8.25,8.433594,48,50,41
9.375,10.121094,58,50,41
10.125,10.308594,56,50,41
10.3125,10.636719,53,50,41
10.6875,10.8125,51,50,41
10.875,11.008333,48,50,41
11.075,11.217856,53,50,41
11.289285,11.499105,53,50,41
12.146425,12.701113,68,50,41
12.708925,12.892519,75,50,41
12.896425,13.451113,68,50,41
13.458925,13.642519,75,50,41
13.646425,14.201113,68,50,41
14.208925,14.392519,75,50,41
14.396425,14.951113,68,50,41
14.958925,15.142519,75,50,41
15.146425,15.517519,61,50,41
15.521425,15.705019,63,58,41
15.896425,16.267519,61,67,41
16.271425,16.455019,63,75,41
16.646425,17.017519,61,84,41
17.021425,17.146425,54,110,41
17.208925,17.33713,54,110,41
17.401232,17.534565,53,110,41
17.601233,17.74409,65,110,41
17.815517,18.025337,65,110,41
18.244087,18.798775,68,50,41
18.806587,18.990181,75,50,41
18.994087,19.548775,68,50,41
19.556587,19.740181,75,50,41
19.744087,20.298775,68,50,41
20.306587,20.490181,75,50,41
20.494087,21.048775,68,50,41
21.056587,21.240181,75,50,41
21.244087,21.615181,61,50,41
21.619087,21.802681,63,58,41
21.994087,22.365181,61,67,41
22.369087,22.552681,63,75,41
22.744087,23.115181,61,84,41
23.119087,23.244087,54,110,41
23.306587,23.43992,54,110,41
23.506586,23.649445,53,110,41
23.720873,23.887539,65,110,41
23.970873,24.215664,65,110,41
24.882235,24.973381,65,110,41
25.007235,25.098381,63,110,41
25.132235,25.223381,62,110,41
25.632235,25.723381,57,110,41
25.757235,25.848381,55,110,41
25.882235,25.973381,57,110,41
26.382235,26.473381,53,110,41
26.507235,26.598381,53,110,41
26.632235,26.723381,53,110,41
27.132235,27.223381,57,110,41
27.257235,27.348381,57,110,41
27.382235,27.473381,57,110,41
27.882235,27.973381,65,110,41
28.007235,28.098381,65,110,41
28.132235,28.223381,65,110,41
28.632235,28.723381,65,110,41
28.757235,28.848381,65,110,41
28.882235,28.973381,65,110,41
29.384354,29.479462,65,110,41
29.514788,29.611578,65,110,41
29.64753,29.746962,65,110,41
29.783894,29.917416,65,110,41
30.192982,30.28809,65,70,41
30.323416,30.418524,63,70,41
30.45385,30.548958,62,70,41
30.959284,31.05043,65,110,41
31.084284,31.17543,63,110,41
31.209284,31.30043,62,110,41
31.709284,31.80043,57,110,41
31.834284,31.92543,55,110,41
31.959284,32.05043,57,110,41
32.459286,32.55043,53,110,41
32.584286,32.67543,53,110,41
32.709286,32.80043,53,110,41
33.209286,33.30043,57,110,41
33.334286,33.42543,57,110,41
33.459286,33.55043,57,110,41
33.959286,34.05043,65,110,41
34.084286,34.17543,65,110,41
34.209286,34.30043,65,110,41
34.709286,34.80043,65,110,41
34.834286,34.92543,65,110,41
34.959286,35.05043,65,110,41
35.464718,35.564148,65,110,41
35.60108,35.705246,65,110,41
35.74394,35.853313,65,110,41
35.893936,36.040813,65,110,41
36.343937,36.44337,69,70,41
36.4803,36.57973,69,70,41
36.616665,36.716095,69,70,41
37.13346,37.224606,69,70,41
37.25846,37.349606,69,70,41
37.38346,37.474606,69,71,41
37.88346,37.974606,64,75,41
38.00846,38.099606,64,76,41
38.13346,38.224606,64,77,41
38.63346,38.724606,64,81,41
38.75846,38.849606,64,82,41
38.88346,38.974606,64,83,41
39.38346,39.474606,62,87,41
39.50846,39.599606,62,88,41
39.63346,39.724606,62,89,41
40.13346,40.224606,62,93,41
40.25846,40.349606,62,94,41
40.38346,40.474606,62,95,41
40.88346,40.974606,62,99,41
41.00846,41.099606,62,100,41
41.13346,41.224606,62,100,41
41.25846,41.380856,62,110,41
41.638893,41.77242,61,110,41
42.45448,42.545624,50,50,41
42.57948,42.670624,50,50,41
42.70448,42.795624,50,50,41
43.20448,43.295624,55,50,41
43.32948,43.420624,55,50,41
43.45448,43.545624,55,50,41
43.95448,44.045624,53,50,41
44.07948,44.170624,53,50,41
44.20448,44.295624,53,50,41
44.70448,44.795624,49,50,41
44.82948,44.920624,57,50,41
44.95448,45.045624,57,50,41
45.45448,45.545624,57,50,41
45.57948,45.670624,62,52,41
45.70448,45.795624,62,55,41
46.20448,46.295624,62,65,41
46.32948,46.420624,62,67,41
46.45448,46.545624,62,70,41
46.95448,47.045624,64,80,41
47.07948,47.170624,64,83,41
47.20448,47.295624,64,85,41
47.70448,47.795624,63,95,41
47.82948,47.920624,63,98,41
47.95448,48.045624,63,100,41
48.45448,48.545624,62,110,41
48.57948,48.670624,62,110,41
48.70448,48.795624,62,110,41
49.20448,49.295624,57,110,41
49.32948,49.420624,57,110,41
49.45448,49.545624,57,110,41
49.95448,50.045624,62,110,41
50.07948,50.170624,62,110,41
50.20448,50.295624,62,110,41
50.70448,50.795624,57,110,41
50.82948,50.920624,57,110,41
50.95448,51.045624,57,110,41
51.45448,51.545624,62,110,41
51.57948,51.670624,62,110,41
51.70448,51.795624,62,110,41
52.20448,52.295624,65,110,41
52.32948,52.420624,65,110,41
52.45448,52.545624,65,110,41
52.95448,53.045624,60,120,41
53.07948,53.174587,60,120,41
53.20991,53.309345,60,120,41
53.346275,53.479797,62,120,41
53.755363,53.85047,69,70,41
53.8858,53.980907,69,70,41
54.01623,54.11134,69,70,41
54.5271,54.618244,69,70,41
54.6521,54.743244,69,70,41
54.7771,54.868244,69,71,41
55.2771,55.368244,64,75,41
55.4021,55.493244,64,76,41
55.5271,55.618244,64,77,41
56.0271,56.118244,64,81,41
56.1521,56.243244,64,82,41
56.2771,56.368244,64,83,41
56.7771,56.868244,62,87,41
56.9021,56.993244,62,88,41
57.0271,57.118244,62,89,41
57.5271,57.618244,62,93,41
57.6521,57.743244,62,94,41
57.7771,57.868244,62,95,41
58.2771,58.368244,62,99,41
58.4021,58.493244,62,100,41
58.5271,58.618244,62,100,41
58.6521,58.774494,62,110,41
59.032536,59.166058,61,110,41
59.848118,59.939262,50,50,41
59.973118,60.064262,50,50,41
60.098118,60.189262,50,50,41
60.598118,60.689262,55,50,41
60.723118,60.814262,55,50,41
60.848118,60.939262,55,50,41
61.348118,61.439262,53,50,41
61.473118,61.564262,53,50,41
61.598118,61.689262,53,50,41
62.098118,62.189262,49,50,41
62.223118,62.314262,57,50,41
62.348118,62.439262,57,50,41
62.848118,62.939262,57,50,41
62.973118,63.064262,62,52,41
63.098118,63.189262,62,55,41
63.598118,63.689262,62,65,41
63.723118,63.814262,62,67,41
63.848118,63.939262,62,70,41
64.348114,64.43926,64,80,41
64.473114,64.56426,64,83,41
64.598114,64.68926,64,85,41
65.098114,65.18926,63,95,41
65.223114,65.31426,63,98,41
65.348114,65.43926,63,100,41
65.848114,65.93926,62,110,41
65.973114,66.06426,62,110,41
66.098114,66.18926,62,110,41
66.598114,66.68926,57,110,41
66.723114,66.81426,57,110,41
66.848114,66.93926,57,110,41
67.348114,67.43926,62,110,41
67.473114,67.56426,62,110,41
67.598114,67.68926,62,110,41
68.098114,68.18926,57,110,41
68.223114,68.31426,57,110,41
68.348114,68.43926,57,110,41
68.848114,68.93926,62,110,41
68.973114,69.06426,62,110,41
69.098114,69.18926,62,110,41
69.598114,69.68926,65,110,41
69.723114,69.81426,65,110,41
69.848114,69.93926,65,110,41
70.35355,70.45298,60,120,41
70.489914,70.59408,60,120,41
70.632774,70.74215,60,120,41
70.78277,70.92965,62,120,41
71.23277,71.3322,72,110,41
71.36913,71.46857,72,106,41
71.5055,71.60493,72,102,41
72.05095,72.15038,72,84,41
72.18731,72.28674,72,79,41
72.32368,72.4231,72,75,41
72.46004,72.55947,50,70,41
72.5964,72.69583,51,70,41
72.732765,72.8322,53,70,41
72.869125,72.9733,55,70,41
73.011986,73.11615,57,70,41
73.15484,73.26421,58,70,41
73.30484,73.57472,48,70,41
73.71645,73.99134,50,70,41
74.13312,74.415855,51,70,41
74.56446,74.85269,53,70,41
75.00136,75.29823,55,70,41
75.454414,75.757355,57,70,41
75.913605,76.2261,58,70,41
76.38728,76.69978,60,70,41
78.36096,78.48596,53,110,41
78.54846,78.67346,53,110,41
78.73596,78.86096,54,110,41
81.36096,81.48596,53,110,41
81.54846,81.67346,53,110,41
81.73596,81.86096,54,110,41
84.55425,84.92535,53,50,41
84.92925,85.67535,51,50,41
85.67925,86.05035,49,50,41
86.05425,86.17925,49,50,41
86.24175,86.36675,49,50,41
86.42925,86.55425,48,50,41
86.61675,86.74175,48,50,41
86.80425,86.98785,48,50,41
87.55425,87.92535,53,50,41
87.92925,88.67535,51,50,41
88.67925,89.23785,49,50,41
89.24175,89.36675,51,50,41
89.42925,89.55425,51,50,41
89.61675,89.74175,53,50,41
89.80425,89.92925,53,50,41
89.99175,90.0816,48,50,41
90.0855,90.17535,49,50,41
90.17925,90.30425,51,50,41
90.36675,90.49175,48,50,41
90.55425,90.67925,61,50,41
90.74175,90.86675,49,50,41
91.11675,91.24175,54,50,41
91.30425,91.42925,60,50,41
91.49175,91.61675,48,50,41
91.86675,91.99175,53,50,41
92.05425,92.17925,70,50,41
92.24175,92.36675,58,50,41
92.61675,92.74175,58,50,41
92.80425,92.92925,69,50,41
92.99175,93.11675,57,50,41
93.55425,94.11285,61,50,41
94.11675,94.2066,63,50,41
94.2105,94.30035,61,50,41
94.30425,94.86285,60,50,41
94.86675,94.9566,61,50,41
94.9605,95.05035,60,50,41
95.05425,95.17925,58,50,41
95.24175,95.36675,58,50,41
95.42925,95.55425,57,50,41
95.61675,95.74175,57,50,41
95.80425,95.92925,58,50,41
95.99175,96.0816,61,50,41
96.0855,96.17535,63,50,41
96.17925,96.30425,65,50,41
96.36675,96.49175,61,50,41
96.55425,97.11285,68,50,41
97.11675,97.30035,75,50,41
97.30425,97.67535,65,50,41
97.67925,97.86285,63,50,41
98.05425,98.61285,68,50,41
98.61675,98.80035,75,50,41
98.80425,99.17535,65,50,41
99.17925,99.36285,63,50,41
99.55425,99.92535,61,50,41
99.92925,100.11285,63,50,41
100.30425,100.67535,61,50,41
100.67925,100.86285,63,50,41
101.05425,101.42535,61,50,41
101.42925,101.55425,54,50,41
101.61675,101.74175,54,50,41
101.80425,101.92925,53,50,41
101.99175,102.11675,65,50,41
102.17925,102.30425,65,50,41
102.55425,102.92535,61,90,41
102.92925,103.11285,60,90,41
103.11675,103.30035,66,60,41
103.30425,103.67535,61,90,41
103.67925,103.86285,63,90,41
103.86675,104.05035,72,60,41
104.05425,104.42535,61,90,41
104.42925,104.61285,60,90,41
104.61675,104.80035,66,60,41
104.80425,105.17535,61,90,41
105.17925,105.36285,63,90,41
105.36675,105.55035,72,60,41
105.55425,105.92535,61,60,41
105.92925,106.11285,63,68,41
106.30425,106.67535,61,77,41
106.67925,106.86285,63,85,41
107.05425,107.42535,61,94,41
107.42925,107.56597,54,110,41
107.61675,107.76258,54,110,41
107.81675,107.962585,53,110,41
108.01675,108.173,65,110,41
108.23103,108.38728,65,110,41
108.65961,108.84791,53,50,41
108.85191,108.94807,51,50,41
108.94807,109.04422,53,50,41
109.04422,109.18444,54,50,41
109.42883,109.617134,51,50,41
109.62114,109.71729,49,50,41
109.71729,109.813446,51,50,41
109.813446,109.95367,53,50,41
110.19806,110.38636,49,50,41
110.390366,110.48652,48,50,41
110.48652,110.58267,49,50,41
110.58267,110.72851,51,50,41
110.78268,110.928505,51,50,41
110.98267,111.178505,53,50,41
111.78268,111.99249,49,50,41
111.996956,112.1041,48,50,41
112.1041,112.21124,49,50,41
112.21124,112.37952,51,50,41
112.44202,112.624306,51,50,41
112.69202,112.936806,53,50,41
113.69202,113.85868,54,50,41
113.94202,114.10868,66,50,41
114.19202,114.37383,66,50,41
114.46474,114.68696,66,50,41
114.79807,115.12446,65,50,41
116.13141,116.52724,58,120,41
116.5314,116.66839,58,120,41
116.736885,116.87974,57,120,41
116.95117,117.16099,58,120,41
0.0,0.125,46,50,42
0.1875,0.3125,58,50,42
0.5625,0.6875,39,50,42
0.75,0.875,56,50,42
0.9375,1.0625,44,50,42
1.3125,1.4375,37,50,42
1.5,1.625,42,50,42
1.6875,1.8125,54,50,42
1.875,2.0,42,50,42
2.0625,2.1875,42,50,42
2.25,2.4335938,41,50,42
3.0,3.125,46,50,42
3.1875,3.3125,58,50,42
3.5625,3.6875,39,50,42
3.75,3.875,56,50,42
3.9375,4.0625,44,50,42
4.3125,4.4375,37,50,42
4.5,4.625,42,50,42
4.6875,4.8125,42,50,42
4.875,5.0,41,50,42
5.0625,5.1875,41,50,42
5.25,5.4335938,46,50,42
6.0,6.125,46,50,42
6.1875,6.3125,58,50,42
6.5625,6.6875,39,50,42
6.75,6.875,56,50,42
6.9375,7.0625,44,50,42
7.3125,7.4375,37,50,42
7.5,7.625,42,50,42
7.6875,7.8125,54,50,42
7.875,8.0,42,50,42
8.0625,8.1875,42,50,42
8.25,8.433594,41,50,42
9.0,9.125,46,50,42
9.1875,9.3125,58,50,42
9.5625,9.6875,39,50,42
9.75,9.875,56,50,42
9.9375,10.0625,44,50,42
10.3125,10.4375,37,50,42
10.5,10.625,42,50,42
10.6875,10.8125,42,50,42
10.875,11.008333,41,50,42
11.075,11.217856,41,50,42
11.289285,11.499105,46,50,42
12.146425,12.330019,44,50,42
12.333925,12.517519,56,70,42
12.708925,12.892519,56,50,42
12.896425,13.080019,44,50,42
13.083925,13.267519,56,70,42
13.458925,13.642519,56,50,42
13.646425,13.830019,44,50,42
13.833925,14.017519,56,70,42
14.208925,14.392519,56,50,42
14.396425,14.580019,44,50,42
14.583925,14.767519,56,70,42
14.771425,14.955019,56,70,42
14.958925,15.142519,44,50,42
15.146425,15.330019,46,50,42
15.333925,15.517519,58,54,42
15.708925,15.892519,58,62,42
15.896425,16.080019,46,67,42
16.083925,16.267519,58,71,42
16.458925,16.642519,58,80,42
16.646425,16.830019,46,84,42
16.833925,17.017519,58,88,42
17.021425,17.205019,51,110,42
17.208925,17.397226,51,110,42
17.401232,17.534565,53,110,42
17.601233,17.74409,53,110,42
17.815517,18.025337,46,110,42
18.244087,18.427681,44,50,42
18.431587,18.615181,56,70,42
18.806587,18.990181,56,50,42
18.994087,19.177681,44,50,42
19.181587,19.365181,56,70,42
19.556587,19.740181,56,50,42
19.744087,19.927681,44,50,42
19.931587,20.115181,56,70,42
20.306587,20.490181,56,50,42
20.494087,20.677681,44,50,42
20.681587,20.865181,56,70,42
20.869087,21.052681,56,70,42
21.056587,21.240181,44,50,42
21.244087,21.427681,46,50,42
21.431587,21.615181,58,54,42
21.806587,21.990181,58,62,42
21.994087,22.177681,46,67,42
22.181587,22.365181,58,71,42
22.556587,22.740181,58,80,42
22.744087,22.927681,46,84,42
22.931587,23.115181,58,88,42
23.119087,23.302681,51,110,42
23.306587,23.50242,51,110,42
23.506586,23.649445,53,110,42
23.720873,23.887539,53,110,42
23.970873,24.215664,46,110,42
24.882235,24.973381,62,110,42
25.007235,25.098381,60,110,42
25.132235,25.223381,58,110,42
25.632235,25.723381,53,110,42
25.757235,25.848381,53,110,42
25.882235,25.973381,53,110,42
26.382235,26.473381,46,110,42
26.507235,26.598381,45,110,42
26.632235,26.723381,43,110,42
27.132235,27.223381,41,110,42
27.257235,27.348381,41,110,42
27.382235,27.473381,41,110,42
27.882235,27.973381,62,110,42
28.007235,28.098381,60,110,42
28.132235,28.223381,58,110,42
28.632235,28.723381,57,110,42
28.757235,28.848381,55,110,42
28.882235,28.973381,53,110,42
29.384354,29.479462,53,110,42
29.514788,29.611578,53,110,42
29.64753,29.746962,53,110,42
29.783894,29.917416,46,110,42
30.192982,30.28809,62,70,42
30.323416,30.418524,60,70,42
30.45385,30.548958,58,70,42
30.959284,31.05043,62,110,42
31.084284,31.17543,60,110,42
31.209284,31.30043,58,110,42
31.709284,31.80043,53,110,42
31.834284,31.92543,53,110,42
31.959284,32.05043,53,110,42
32.459286,32.55043,46,110,42
32.584286,32.67543,45,110,42
32.709286,32.80043,43,110,42
33.209286,33.30043,41,110,42
33.334286,33.42543,41,110,42
33.459286,33.55043,41,110,42
33.959286,34.05043,62,110,42
34.084286,34.17543,60,110,42
34.209286,34.30043,58,110,42
34.709286,34.80043,57,110,42
34.834286,34.92543,55,110,42
34.959286,35.05043,53,110,42
35.464718,35.564148,53,110,42
35.60108,35.705246,53,110,42
35.74394,35.853313,53,110,42
35.893936,36.040813,46,110,42
36.343937,36.44337,53,70,42
36.4803,36.57973,53,70,42
36.616665,36.716095,53,70,42
37.13346,37.224606,53,70,42
37.25846,37.349606,53,70,42
37.38346,37.474606,53,71,42
37.88346,37.974606,60,75,42
38.00846,38.099606,60,76,42
38.13346,38.224606,60,77,42
38.63346,38.724606,60,81,42
38.75846,38.849606,60,82,42
38.88346,38.974606,60,83,42
39.38346,39.474606,55,87,42
39.50846,39.599606,55,88,42
39.63346,39.724606,55,89,42
40.13346,40.224606,55,93,42
40.25846,40.349606,55,94,42
40.38346,40.474606,55,95,42
40.88346,40.974606,57,99,42
41.00846,41.099606,57,100,42
41.13346,41.224606,57,100,42
41.25846,41.380856,57,110,42
41.638893,41.77242,57,110,42
42.45448,42.545624,38,50,42
42.57948,42.670624,38,50,42
42.70448,42.795624,38,50,42
43.20448,43.295624,38,50,42
43.32948,43.420624,38,50,42
43.45448,43.545624,38,50,42
43.95448,44.045624,38,50,42
44.07948,44.170624,38,50,42
44.20448,44.295624,38,50,42
44.70448,44.795624,45,50,42
44.82948,44.920624,57,50,42
44.95448,45.045624,57,50,42
45.45448,45.545624,50,50,42
45.57948,45.670624,50,52,42
45.70448,45.795624,50,55,42
46.20448,46.295624,43,65,42
46.32948,46.420624,43,67,42
46.45448,46.545624,43,70,42
46.95448,47.045624,48,80,42
47.07948,47.170624,48,83,42
47.20448,47.295624,48,85,42
47.70448,47.795624,41,95,42
47.82948,47.920624,41,98,42
47.95448,48.045624,41,100,42
48.45448,48.545624,46,110,42
48.57948,48.670624,46,110,42
48.70448,48.795624,46,110,42
49.20448,49.295624,41,110,42
49.32948,49.420624,41,110,42
49.45448,49.545624,41,110,42
49.95448,50.045624,58,110,42
50.07948,50.170624,58,110,42
50.20448,50.295624,58,110,42
50.70448,50.795624,53,110,42
50.82948,50.920624,53,110,42
50.95448,51.045624,53,110,42
51.45448,51.545624,58,110,42
51.57948,51.670624,58,110,42
51.70448,51.795624,58,110,42
52.20448,52.295624,53,110,42
52.32948,52.420624,53,110,42
52.45448,52.545624,53,110,42
52.95448,53.045624,53,120,42
53.07948,53.174587,53,120,42
53.20991,53.309345,53,120,42
53.346275,53.479797,58,120,42
53.755363,53.85047,65,70,42
53.8858,53.980907,65,70,42
54.01623,54.11134,65,70,42
54.5271,54.618244,53,70,42
54.6521,54.743244,53,70,42
54.7771,54.868244,53,71,42
55.2771,55.368244,60,75,42
55.4021,55.493244,60,76,42
55.5271,55.618244,60,77,42
56.0271,56.118244,60,81,42
56.1521,56.243244,60,82,42
56.2771,56.368244,60,83,42
56.7771,56.868244,55,87,42
56.9021,56.993244,55,88,42
57.0271,57.118244,55,89,42
57.5271,57.618244,55,93,42
57.6521,57.743244,55,94,42
57.7771,57.868244,55,95,42
58.2771,58.368244,57,99,42
58.4021,58.493244,57,100,42
58.5271,58.618244,57,100,42
58.6521,58.774494,57,110,42
59.032536,59.166058,57,110,42
59.848118,59.939262,38,50,42
59.973118,60.064262,38,50,42
60.098118,60.189262,38,50,42
60.598118,60.689262,38,50,42
60.723118,60.814262,38,50,42
60.848118,60.939262,38,50,42
61.348118,61.439262,38,50,42
61.473118,61.564262,38,50,42
61.598118,61.689262,38,50,42
62.098118,62.189262,45,50,42
62.223118,62.314262,57,50,42
62.348118,62.439262,57,50,42
62.848118,62.939262,50,50,42
62.973118,63.064262,50,52,42
63.098118,63.189262,50,55,42
63.598118,63.689262,43,65,42
63.723118,63.814262,43,67,42
63.848118,63.939262,43,70,42
64.348114,64.43926,48,80,42
64.473114,64.56426,48,83,42
64.598114,64.68926,48,85,42
65.098114,65.18926,41,95,42
65.223114,65.31426,41,98,42
65.348114,65.43926,41,100,42
65.848114,65.93926,46,110,42
65.973114,66.06426,46,110,42
66.098114,66.18926,46,110,42
66.598114,66.68926,41,110,42
66.723114,66.81426,41,110,42
66.848114,66.93926,41,110,42
67.348114,67.43926,58,110,42
67.473114,67.56426,58,110,42
67.598114,67.68926,58,110,42
68.098114,68.18926,53,110,42
68.223114,68.31426,53,110,42
68.348114,68.43926,53,110,42
68.848114,68.93926,58,110,42
68.973114,69.06426,58,110,42
69.098114,69.18926,58,110,42
69.598114,69.68926,53,110,42
69.723114,69.81426,53,110,42
69.848114,69.93926,53,110,42
70.35355,70.45298,53,120,42
70.489914,70.59408,53,120,42
70.632774,70.74215,53,120,42
70.78277,70.92965,58,120,42
71.23277,71.3322,65,110,42
71.36913,71.46857,65,106,42
71.5055,71.60493,65,102,42
72.05095,72.15038,65,84,42
72.18731,72.28674,65,79,42
72.32368,72.4231,65,75,42
72.46004,72.55947,50,70,42
72.5964,72.69583,51,70,42
72.732765,72.8322,53,70,42
72.869125,72.9733,55,70,42
73.011986,73.11615,57,70,42
73.15484,73.26421,58,70,42
73.30484,73.57472,48,70,42
73.71645,73.99134,50,70,42
74.13312,74.415855,39,70,42
74.56446,74.85269,41,70,42
75.00136,75.29823,43,70,42
75.454414,75.757355,45,70,42
75.913605,76.2261,46,70,42
76.38728,76.69978,48,70,42
78.36096,78.48596,41,110,42
78.54846,78.67346,41,110,42
78.73596,78.86096,42,110,42
81.36096,81.48596,41,110,42
81.54846,81.67346,41,110,42
81.73596,81.86096,42,110,42
84.55425,84.67925,58,50,42
84.74175,84.86675,46,50,42
85.11675,85.24175,39,50,42
85.30425,85.42925,44,50,42
85.49175,85.61675,56,50,42
85.86675,85.99175,49,50,42
86.05425,86.17925,54,50,42
86.24175,86.36675,42,50,42
86.42925,86.55425,42,50,42
86.61675,86.74175,42,50,42
86.80425,86.98785,42,50,42
87.55425,87.67925,58,50,42
87.74175,87.86675,46,50,42
88.11675,88.24175,39,50,42
88.30425,88.42925,44,50,42
88.49175,88.61675,56,50,42
88.86675,88.99175,49,50,42
89.05425,89.17925,54,50,42
89.24175,89.36675,42,50,42
89.42925,89.55425,41,50,42
89.61675,89.74175,41,50,42
89.80425,89.98785,46,50,42
89.99175,90.0816,60,50,42
90.0855,90.17535,61,50,42
90.17925,90.30425,63,50,42
90.36675,90.49175,60,50,42
90.55425,90.67925,58,50,42
90.74175,90.86675,46,50,42
91.11675,91.24175,39,50,42
91.30425,91.42925,44,50,42
91.49175,91.61675,56,50,42
91.86675,91.99175,49,50,42
92.05425,92.17925,54,50,42
92.24175,92.36675,42,50,42
92.61675,92.74175,42,50,42
92.80425,92.92925,53,50,42
92.99175,93.11675,41,50,42
93.17925,93.30425,65,50,42
93.36675,93.49175,53,50,42
93.55425,93.67925,58,50,42
93.74175,93.86675,46,50,42
94.11675,94.24175,39,50,42
94.30425,94.42925,44,50,42
94.49175,94.61675,56,50,42
94.86675,94.99175,49,50,42
95.05425,95.17925,54,50,42
95.24175,95.36675,42,50,42
95.42925,95.55425,41,50,42
95.61675,95.74175,41,50,42
95.80425,95.98785,46,50,42
95.99175,96.0816,49,50,42
96.0855,96.17535,51,50,42
96.17925,96.30425,53,50,42
96.36675,96.49175,49,50,42
96.55425,96.67925,44,50,42
96.74175,96.86675,56,50,42
97.11675,97.24175,56,50,42
97.30425,97.42925,44,50,42
97.49175,97.61675,56,50,42
97.86675,97.99175,56,50,42
98.05425,98.17925,44,50,42
98.24175,98.36675,56,50,42
98.61675,98.74175,56,50,42
98.80425,98.92925,44,50,42
98.99175,99.11675,56,50,42
99.36675,99.49175,44,50,42
99.55425,99.67925,46,50,42
99.74175,99.86675,58,50,42
100.11675,100.24175,58,50,42
100.30425,100.42925,46,50,42
100.49175,100.61675,58,50,42
100.86675,100.99175,58,50,42
101.05425,101.17925,46,50,42
101.24175,101.36675,58,50,42
101.42925,101.55425,51,50,42
101.61675,101.74175,51,50,42
101.80425,101.92925,53,50,42
101.99175,102.11675,53,50,42
102.17925,102.30425,46,50,42
102.55425,102.69097,46,60,42
102.74175,102.87847,56,75,42
103.11675,103.25347,56,60,42
103.30425,103.44097,44,60,42
103.49175,103.62847,56,75,42
103.86675,104.00347,56,60,42
104.05425,104.19097,44,60,42
104.24175,104.37847,56,75,42
104.61675,104.75347,56,60,42
104.80425,104.94097,44,60,42
104.99175,105.12847,56,75,42
105.36675,105.50347,44,60,42
105.55425,105.69097,46,60,42
105.74175,105.87847,58,64,42
106.11675,106.25347,58,72,42
106.30425,106.44097,46,77,42
106.49175,106.62847,58,81,42
106.86675,107.00347,58,90,42
107.05425,107.19097,46,94,42
107.24175,107.37847,58,98,42
107.42925,107.56597,51,110,42
107.61675,107.76258,51,110,42
107.81675,107.962585,53,110,42
108.01675,108.173,53,110,42
108.23103,108.38728,46,110,42
108.65961,108.79983,58,50,42
108.85191,108.992134,46,50,42
109.23653,109.37675,39,50,42
109.42883,109.56905,44,50,42
109.62114,109.76136,56,50,42
110.00575,110.14597,49,50,42
110.19806,110.33829,54,50,42
110.390366,110.530594,42,50,42
110.58267,110.72851,42,50,42
110.78268,110.928505,42,50,42
110.98267,111.178505,41,50,42
111.78268,111.93893,42,50,42
111.996956,112.153206,42,50,42
112.21124,112.37952,42,50,42
112.44202,112.624306,42,50,42
112.69202,112.936806,41,50,42
116.13141,116.26474,42,120,42
116.331406,116.46474,54,120,42
116.5314,116.66839,42,120,42
116.736885,116.87974,41,120,42
116.95117,117.16099,46,120,42
109.04422,109.23252,66,65,45
109.23653,109.42483,75,65,45
109.23653,109.42483,66,65,45
109.813446,110.00175,65,65,45
110.00575,110.19405,73,65,45
110.00575,110.19405,65,65,45
110.58267,110.77851,70,65,45
110.78268,110.97851,75,65,45
110.98267,111.178505,65,65,45
110.98267,111.178505,72,65,45
112.21124,112.4372,82,65,45
112.44202,112.686806,87,65,45
112.69202,112.936806,84,65,45
