start_time,end_time,note_value,velocity,instrument_program_number
0.0,1.9270834,70,100,40
1.9375,2.3964844,69,103,40
3.8597343,4.7874684,70,70,40
4.797234,5.7868176,82,100,40
5.797234,6.2562184,81,90,40
7.234734,10.118272,80,70,40
10.128037,10.821397,80,70,40
10.831162,11.290147,78,70,40
11.299912,11.465928,72,70,40
11.534287,13.399522,73,70,40
13.409287,13.575303,72,70,40
13.643662,13.809678,70,70,40
13.878037,14.044053,68,70,40
14.112412,14.278428,66,70,40
14.346787,14.571397,65,70,40
14.815537,15.040147,72,70,40
15.284287,16.212023,73,70,40
16.221788,16.915148,77,70,40
16.924913,17.0421,75,70,40
17.0421,17.159288,73,70,40
17.159288,17.383898,75,70,40
17.628038,17.852648,77,70,40
18.096788,18.321398,78,70,40
19.034288,19.962023,77,70,40
19.971788,20.665148,80,70,40
20.674913,20.7921,78,70,40
20.7921,20.909288,77,70,40
20.909288,21.133898,82,70,40
21.378038,21.609892,84,80,40
21.861908,22.101492,85,90,40
22.361908,22.618605,87,100,40
22.929766,23.63875,89,70,40
23.648516,23.765703,87,96,40
23.765703,23.88289,85,100,40
23.88289,24.1075,87,70,40
24.35164,24.57625,80,70,40
24.82039,25.279375,65,70,40
25.28914,26.216875,67,87,40
26.22664,26.685625,68,70,40
26.69539,27.38875,89,70,40
27.398516,27.515703,87,93,40
27.515703,27.63289,85,96,40
27.63289,27.8575,87,100,40
28.10164,28.32625,92,70,40
28.57039,28.795,82,70,40
29.03914,29.26375,87,70,40
29.50789,29.739744,80,70,40
29.99176,30.239605,82,70,40
30.509003,30.733612,78,70,40
30.977753,31.202362,80,70,40
31.446503,31.671112,77,70,40
31.915253,32.147106,85,70,40
32.399124,32.638706,75,70,40
32.899124,33.15582,80,50,40
33.434837,33.691532,73,50,40
37.318764,37.543373,75,70,40
37.787514,38.012123,84,70,40
38.256264,39.184,84,110,40
39.193764,39.27189,73,70,40
39.27189,39.42814,72,70,40
39.42814,39.594154,70,70,40
39.662514,39.82853,72,70,40
39.89689,40.062904,75,70,40
40.131264,40.355873,73,70,40
40.600014,40.824623,73,70,40
41.068764,41.300617,72,70,40
42.07049,42.998226,80,70,40
43.00799,43.066586,82,70,40
43.066586,43.242367,80,70,40
43.242367,43.408382,79,70,40
43.47674,43.642757,80,70,40
43.711117,43.877132,84,70,40
43.94549,44.1701,82,70,40
44.41424,44.63885,82,70,40
44.88299,45.114845,80,70,40
45.88472,46.10933,84,50,40
46.35347,46.57808,84,50,40
46.82222,47.054073,82,50,40
47.823948,48.06353,87,100,40
48.323948,48.56353,78,50,40
52.870823,52.98801,72,50,40
52.98801,53.105198,73,50,40
53.105198,53.271214,75,50,40
53.339573,53.50559,72,50,40
53.573948,54.267307,77,50,40
54.277073,54.501682,82,50,40
54.511448,55.204807,75,50,40
55.214573,55.439182,80,50,40
58.730198,58.954807,75,50,40
59.198948,59.423557,73,50,40
59.667698,59.892307,75,50,40
60.136448,60.361057,72,50,40
60.605198,60.829807,75,50,40
61.073948,61.3058,73,50,40
61.557816,61.7974,79,55,40
62.057816,62.314514,80,60,40
62.593533,63.38594,84,100,40
63.397102,63.586834,84,90,40
63.66496,63.830975,79,70,40
64.36809,64.5341,79,70,40
64.83684,64.954025,81,70,40
64.954025,65.06145,82,70,40
65.07121,65.23723,82,70,40
65.30559,65.4716,70,68,40
65.53996,65.70598,70,65,40
65.77434,65.891525,70,63,40
65.891525,66.00871,72,61,40
66.00871,66.4677,69,60,40
67.18059,67.3466,82,50,40
67.41496,67.58098,82,50,40
67.64934,67.766525,82,50,40
67.766525,67.88371,84,50,40
67.88371,68.04973,81,50,40
68.11809,68.2841,82,50,40
68.35246,68.51848,82,50,40
68.58684,68.704025,82,50,40
68.704025,68.82121,84,50,40
68.82121,68.98723,81,50,40
69.05559,69.2216,79,55,40
69.28996,69.45598,77,60,40
69.52434,69.69035,76,65,40
69.75871,69.93008,75,70,40
70.00064,70.17201,74,75,40
70.24258,70.425766,72,80,40
70.5012,70.69796,64,85,40
70.77898,73.16648,73,100,40
73.17898,74.10671,72,94,40
74.11648,74.80984,76,70,40
74.8196,74.93679,74,70,40
74.93679,75.05398,72,70,40
75.05398,75.27859,74,70,40
75.52273,75.74734,76,70,40
75.99148,76.21609,77,70,40
76.92898,77.85671,76,70,40
77.86648,78.55984,79,80,40
78.5696,78.68679,77,88,40
78.68679,78.80398,76,89,40
78.80398,79.51971,81,90,40
79.529785,79.65075,79,98,40
79.65075,79.77172,77,99,40
79.77172,80.52841,82,100,40
80.53957,80.689575,81,78,40
80.689575,80.83958,79,75,40
80.83958,82.07916,84,70,40
82.21458,82.32916,84,84,40
82.33958,82.57916,84,85,40
82.71458,82.82916,84,89,40
82.83958,83.32916,76,90,40
84.21458,84.32916,84,89,40
84.33958,84.57916,84,86,40
84.71458,84.82916,84,75,40
84.83958,85.32916,85,70,40
86.21458,86.32916,85,52,40
86.33958,86.57916,85,51,40
86.71458,86.82916,85,50,40
86.83958,87.82916,85,50,40
88.234314,88.35493,85,61,40
88.36589,88.632095,85,64,40
88.79367,88.93117,80,73,40
88.94367,89.12075,87,76,40
89.19367,89.35969,84,82,40
89.42805,89.59406,80,88,40
89.66242,89.82844,87,94,40
89.8968,90.82453,85,100,40
90.8343,91.00031,84,50,40
91.06867,91.23469,80,63,40
91.30305,91.46906,75,76,40
91.53742,91.70344,84,90,40
91.7718,92.69953,82,100,40
92.7093,93.16828,80,100,40
93.17805,93.87141,87,100,40
93.88117,94.04719,77,100,40
94.11555,94.28156,75,100,40
94.34992,94.51594,77,100,40
94.5843,94.75567,80,100,40
94.82623,94.9976,80,100,40
95.06816,95.30002,82,120,40
95.55203,95.72912,80,100,40
95.80203,95.97912,75,100,40
96.05203,96.24177,75,100,40
96.31989,96.532394,79,80,40
96.619896,96.859474,82,70,40
96.869896,97.351746,80,70,40
97.361824,97.59368,80,70,40
97.60376,97.83562,82,70,40
97.845695,98.31949,80,70,40
98.32957,98.561424,80,70,40
98.5715,98.80336,82,70,40
98.81344,99.28723,80,70,40
99.29731,99.52917,80,70,40
99.539246,100.25497,85,70,40
100.26505,100.38602,82,70,40
100.38602,100.50699,79,70,40
100.50699,100.73884,82,70,40
100.748924,100.980774,80,70,40
100.99086,101.22271,82,70,40
101.23279,101.40416,84,70,40
101.474724,101.646095,77,70,40
101.71666,101.88803,77,70,40
101.958595,102.12997,79,70,40
102.20053,102.3719,80,70,40
102.44247,102.68205,77,70,40
102.69247,102.93205,75,70,40
102.94247,103.11955,73,70,40
103.19247,103.36955,72,70,40
103.44247,103.507126,70,70,40
103.507126,103.57178,72,70,40
103.57178,103.63644,70,70,40
103.63644,103.70109,72,70,40
103.70109,103.76575,70,70,40
103.76575,103.8304,72,70,40
103.8304,103.89505,70,70,40
103.89505,103.95971,72,70,40
103.95971,104.02667,70,70,40
104.02667,104.093636,72,70,40
104.093636,104.1606,70,70,40
104.1606,104.22756,72,70,40
104.22756,104.32372,70,70,40
104.32372,104.419876,68,70,40
104.419876,104.51603,70,70,40
104.51603,104.99064,68,100,40
105.000404,105.69376,75,100,40
105.70353,105.869545,77,100,40
105.937904,106.10392,75,100,40
106.17228,106.338295,79,100,40
106.406654,106.57267,80,100,40
106.64103,106.807045,80,100,40
106.875404,107.10001,82,100,40
107.344154,107.515526,80,100,40
107.58609,107.75746,84,100,40
107.828026,108.005104,75,100,40
108.078026,108.26775,79,100,40
108.34588,108.577736,82,70,40
108.587814,109.06161,80,70,40
109.071686,109.30354,80,70,40
109.31362,109.54548,82,70,40
109.55556,110.02934,80,70,40
110.03943,110.27128,80,70,40
110.281364,110.513214,82,70,40
110.5233,110.997086,80,75,40
111.007164,111.23902,80,85,40
111.2491,112.0058,90,90,40
112.01696,112.161194,87,90,40
112.161194,112.30542,84,80,40
112.30542,112.545006,87,70,40
112.55542,112.78003,85,70,40
112.789795,112.95581,87,70,40
113.02417,113.190186,89,70,40
113.258545,113.42456,82,70,40
113.49292,113.658936,82,70,40
113.727295,113.89331,84,70,40
113.96167,114.127686,85,70,40
114.196045,114.420654,82,70,40
114.43042,114.596436,80,70,40
114.664795,114.83081,78,70,40
114.89917,115.065186,77,70,40
115.133545,115.21419,75,70,40
115.21419,115.29484,77,72,40
115.29484,115.37548,75,74,40
115.37548,115.45612,77,76,40
115.45612,115.53677,75,78,40
115.53677,115.61742,77,80,40
115.61742,115.70075,75,82,40
115.70075,115.78408,77,84,40
115.78408,115.86742,75,87,40
115.86742,115.93438,77,89,40
115.93438,116.00134,75,90,40
116.00134,116.068306,74,75,40
116.068306,116.13528,75,60,40
116.13528,116.312355,74,50,40
116.38528,116.55129,77,50,40
116.61965,116.78567,74,50,40
116.85403,117.02004,80,50,40
117.0884,118.016136,78,50,40
118.0259,118.19192,78,50,40
118.26028,118.42629,77,50,40
118.49465,118.66067,78,50,40
118.72903,118.89504,78,50,40
118.9634,119.14048,77,60,40
119.2134,119.39048,82,73,40
119.4634,119.6498,80,86,40
119.726555,119.930885,84,100,40
120.015015,120.94275,85,70,40
122.0072,122.08533,68,70,40
122.12439,122.202515,70,70,40
122.24158,122.3197,72,70,40
122.358765,122.43689,73,70,40
122.47595,122.55408,75,70,40
122.59314,122.671265,77,70,40
122.71033,122.78845,79,70,40
122.827515,122.90564,80,70,40
122.9447,123.02283,82,70,40
123.06189,123.140015,84,70,40
123.17908,123.2572,85,70,40
123.296265,123.46228,87,70,40
123.53064,123.696655,78,70,40
123.765015,123.93103,77,70,40
123.99939,124.165405,77,70,40
124.233765,124.39978,73,70,40
124.46814,124.634155,77,70,40
124.702515,124.86853,72,70,40
124.93689,125.102905,77,70,40
125.171265,125.33728,70,70,40
125.40564,125.571655,77,70,40
125.640015,125.80603,69,70,40
125.87439,126.040405,77,70,40
126.108765,126.27478,67,70,40
126.34314,126.509155,77,70,40
126.577515,126.74353,65,70,40
126.81189,126.977905,77,70,40
127.046265,127.21228,68,70,40
127.28064,127.446655,77,70,40
127.515015,127.739624,77,70,40
127.74939,128.20837,62,70,40
128.21814,128.44275,62,70,40
128.45251,129.14587,80,70,40
129.15564,129.27283,77,70,40
129.27283,129.39001,74,70,40
129.39001,129.46814,75,70,40
129.5072,129.58533,75,70,40
129.62439,129.70251,77,70,40
129.74158,129.8197,79,70,40
129.85876,129.93689,80,70,40
129.97595,130.05408,83,70,40
130.09314,130.17126,84,70,40
130.21033,130.28845,86,70,40
130.32751,130.40564,87,70,40
130.4447,130.52283,89,70,40
130.56189,130.64001,91,70,40
130.67908,130.7572,92,70,40
130.79626,130.96228,94,70,40
131.03064,131.19666,87,70,40
131.26501,131.48962,89,70,40
131.49939,131.95837,87,70,40
131.96814,132.19275,87,70,40
132.20251,132.89587,87,70,40
132.90564,133.02283,84,70,40
133.02283,133.14001,80,70,40
133.14001,133.36462,89,70,40
133.37439,133.83337,87,70,40
133.84314,134.06775,75,70,40
134.07751,134.80096,85,70,40
134.81139,134.93639,82,70,40
134.93639,135.06139,79,70,40
135.06139,135.80096,85,100,40
135.81139,135.93639,82,85,40
135.93639,136.06139,79,80,40
136.06139,137.05096,80,75,40
137.06139,137.55096,82,70,40
139.06139,139.80096,85,100,40
139.81139,139.93639,82,93,40
139.93639,140.06139,79,74,40
140.06139,141.05096,80,70,40
141.06139,142.05096,82,70,40
142.06139,142.8538,84,70,40
142.86496,143.00919,82,70,40
143.00919,143.15343,80,70,40
143.15343,143.62804,85,70,40
143.6378,144.09679,73,70,40
144.10655,144.79991,77,70,40
144.80968,144.92686,75,70,40
144.92686,145.04405,73,70,40
145.04405,145.26866,75,70,40
145.5128,145.73741,77,70,40
145.98155,146.20616,78,70,40
146.91905,147.84679,77,70,40
147.85655,148.54991,80,70,40
148.55968,148.67686,78,70,40
148.67686,148.79405,77,70,40
148.79405,149.01866,82,70,40
149.2628,149.48741,84,70,40
149.73155,149.9634,85,70,40
150.21542,150.455,87,70,40
150.73328,150.91035,80,70,40
150.98328,151.14929,82,70,40
151.21765,151.38367,80,70,40
151.45203,151.53015,78,70,40
151.56921,151.64734,77,70,40
151.6864,151.85242,73,70,40
151.92078,152.08679,82,70,40
152.15515,152.32117,80,70,40
152.38953,152.46765,78,70,40
152.50671,152.58484,77,70,40
152.6239,152.78992,78,70,40
152.85828,153.02429,82,70,40
153.09265,153.25867,80,70,40
153.32703,153.40515,75,70,40
153.44421,153.52234,73,70,40
153.5614,153.72742,72,70,40
153.79578,153.96179,82,70,40
154.03015,154.19617,84,70,40
154.26453,154.34265,85,70,40
154.38171,154.45984,87,70,40
154.4989,154.72351,89,70,40
154.96765,155.42664,77,70,40
155.4364,156.12976,80,70,40
156.13953,156.25671,78,70,40
156.25671,156.3739,77,70,40
156.3739,156.59851,82,70,40
156.84265,157.06726,84,80,40
157.3114,157.53601,85,90,40
157.78015,158.00476,87,100,40
158.2489,158.94226,89,70,40
158.95203,159.06921,87,85,40
159.06921,159.1864,85,88,40
159.1864,159.41101,87,90,40
159.65515,159.87976,80,70,40
160.1239,160.58289,80,70,40
160.59265,161.52039,82,80,40
161.53015,161.98914,84,70,40
161.9989,162.69226,89,70,40
162.70203,162.81921,87,85,40
162.81921,162.9364,85,88,40
162.9364,163.16101,87,90,40
163.40515,163.62976,92,70,40
163.8739,164.09851,82,70,40
164.34265,164.56726,87,70,40
164.8114,165.04326,80,70,40
165.29527,165.53485,82,70,40
165.79527,166.01988,78,76,40
166.26402,166.48863,80,83,40
166.73277,166.96463,77,90,40
167.21664,167.45622,85,70,40
167.71664,167.96883,75,70,40
168.24295,168.5194,80,50,40
168.81989,169.21051,73,50,40
172.89131,173.06839,75,50,40
173.39131,173.56839,84,50,40
173.89131,174.88089,85,110,40
174.89131,174.9499,75,93,40
174.9499,175.05733,73,91,40
175.12569,175.2917,72,70,40
175.36006,175.52608,73,70,40
175.59444,175.76045,77,70,40
175.82881,176.05342,75,70,40
176.29756,176.52217,75,70,40
176.76631,176.99092,73,70,40
177.70381,178.63155,77,70,40
178.64131,178.6999,78,70,40
178.6999,178.80733,77,70,40
178.87569,179.0417,75,70,40
179.11006,179.27608,77,70,40
179.34444,179.51045,80,70,40
179.57881,179.80342,78,70,40
180.04756,180.27217,78,70,40
180.51631,180.74092,77,70,40
181.45381,181.67842,80,50,40
181.92256,182.1544,80,50,40
182.40643,182.64601,78,50,40
183.44214,183.68172,83,110,40
183.94214,184.18172,83,70,40
188.69214,188.81714,77,50,40
188.81714,188.94214,78,50,40
188.94214,189.11922,80,50,40
189.19214,189.36922,77,50,40
189.44214,190.18172,82,90,40
190.19214,190.43172,87,90,40
190.44214,191.18172,80,90,40
191.19214,191.43172,85,50,40
192.69214,192.81714,73,50,40
192.81714,192.94214,75,50,40
192.94214,193.11922,77,50,40
193.19214,193.36922,73,50,40
193.44214,193.68172,75,50,40
193.94214,194.18172,72,50,40
194.44214,194.68172,68,50,40
194.94214,195.18172,80,50,40
195.44214,195.68172,78,50,40
195.94214,196.18172,80,50,40
196.44214,196.68172,77,50,40
196.94214,197.18172,80,50,40
197.44214,197.68172,78,50,40
197.94214,198.19884,84,50,40
198.47786,198.76535,85,50,40
199.07785,199.90247,89,110,40
199.91223,200.07825,89,70,40
200.1466,200.31262,84,70,40
200.84973,201.01575,84,70,40
201.31848,201.43567,86,70,40
201.43567,201.54309,87,70,40
201.55286,201.71887,87,70,40
201.78723,201.95325,63,68,40
202.0216,202.18762,63,65,40
202.25598,202.37317,63,63,40
202.37317,202.49036,65,61,40
202.49036,202.94934,62,60,40
203.66223,203.82825,84,50,40
203.8966,204.06262,84,50,40
204.13098,204.24817,84,50,40
204.24817,204.36536,86,50,40
204.36536,204.53137,82,50,40
204.59973,204.76575,87,50,40
204.8341,205.00548,87,50,40
205.07603,205.197,87,50,40
205.197,205.31798,89,50,40
205.31798,205.48935,86,50,40
205.5599,205.73128,84,56,40
205.80185,205.97322,82,62,40
206.04378,206.21515,81,69,40
206.28572,206.4628,80,75,40
206.53572,206.7128,79,81,40
206.78572,206.97545,77,88,40
207.05357,207.26607,69,94,40
207.35358,209.74107,78,113,40
209.75357,210.69693,77,91,40
210.7067,211.40005,81,70,40
211.40982,211.52701,79,70,40
211.52701,211.6442,77,70,40
211.6442,211.8688,79,70,40
212.11295,212.33755,81,70,40
212.5817,212.8063,82,70,40
213.5192,214.44693,81,70,40
214.4567,215.15005,84,80,40
215.15982,215.27701,82,88,40
215.27701,215.3942,81,89,40
215.3942,216.08755,86,90,40
216.09732,216.21451,84,98,40
216.21451,216.3317,82,99,40
216.3317,217.08032,87,100,40
217.09149,217.24149,86,70,40
217.24149,217.3915,84,70,40
217.3915,217.63107,86,70,40
217.87587,218.10048,87,75,40
218.34462,218.56923,89,80,40
218.69618,218.8036,89,84,40
218.81337,219.03798,89,85,40
219.16493,219.27235,89,89,40
219.28212,219.7411,81,90,40
220.57118,220.6786,89,88,40
220.68837,220.91298,89,83,40
221.03993,221.14735,89,70,40
221.15712,221.6161,90,70,40
222.44618,222.5536,90,50,40
222.56337,222.78798,90,50,40
222.91493,223.02235,90,50,40
223.03212,223.5059,90,50,40
224.37486,224.48944,90,60,40
224.49986,224.75655,90,68,40
224.91771,225.0552,85,92,40
225.06772,225.2448,92,100,40
225.31772,225.48373,77,100,40
225.5521,225.71811,73,100,40
225.78647,225.95248,80,100,40
226.02084,226.94858,78,100,40
226.95834,227.12436,77,100,40
227.19272,227.35873,85,100,40
227.4271,227.59311,80,100,40
227.66147,227.82748,89,100,40
227.89584,228.82358,87,100,40
228.83334,229.29233,85,100,40
229.3021,229.99545,80,100,40
230.00522,230.17123,82,100,40
230.2396,230.40561,80,100,40
230.47397,230.63998,84,100,40
230.70834,230.87436,85,100,40
230.94272,231.10873,85,100,40
231.1771,231.4017,87,120,40
231.64584,231.81721,85,100,40
231.88777,232.05914,82,93,40
232.12971,232.3068,80,85,40
232.37971,232.56944,75,77,40
232.64757,232.8912,75,70,40
232.90181,233.3756,73,70,40
233.38567,233.61752,73,70,40
233.62761,233.85947,75,70,40
233.86954,234.34334,73,70,40
234.35341,234.58527,73,70,40
234.59535,234.82721,75,70,40
234.83728,235.31108,73,70,40
235.32115,235.55301,73,70,40
235.5631,236.27881,78,80,40
236.2889,236.40987,75,70,40
236.40987,236.53084,72,70,40
236.53084,236.76268,75,70,40
236.77277,236.94414,73,70,40
237.01471,237.18607,75,70,40
237.25664,237.42801,77,70,40
237.49857,237.66994,70,70,40
237.74051,237.91188,70,70,40
237.98244,238.15381,72,70,40
238.22438,238.39575,73,70,40
238.46631,238.69817,70,70,40
238.70825,238.87962,68,70,40
238.95018,239.12155,66,70,40
239.19212,239.3635,65,70,40
239.43405,239.5147,63,70,40
239.5147,239.59535,65,70,40
239.59535,239.676,63,70,40
239.676,239.75664,65,70,40
239.75664,239.83728,63,70,40
239.83728,239.91792,65,70,40
239.91792,239.99857,63,70,40
239.99857,240.07921,65,70,40
240.07921,240.15987,63,70,40
240.15987,240.28082,61,70,40
240.28082,240.4018,63,70,40
240.4018,240.87558,61,70,40
241.1276,241.29897,77,70,40
241.36954,241.54091,73,75,40
241.61147,241.78284,80,80,40
241.85341,242.02478,77,85,40
242.09534,242.26671,85,90,40
242.33728,242.50865,85,95,40
242.57921,242.75058,87,100,40
242.82115,242.99252,85,85,40
243.06308,243.23445,89,70,40
243.30502,243.4764,90,70,40
243.54695,243.71832,90,80,40
243.7889,244.26268,92,90,40
244.27277,245.23042,90,70,40
245.2405,246.19817,87,70,40
246.20824,246.28888,85,70,40
246.32921,246.40985,73,70,40
246.45018,246.53082,75,70,40
246.57115,246.6518,77,70,40
246.69211,246.77275,78,70,40
246.81308,246.89372,80,70,40
246.93405,247.0147,82,70,40
247.05501,247.13567,83,70,40
247.17598,247.25662,85,70,40
247.29695,247.3776,87,70,40
247.41792,247.49857,89,70,40
247.53888,247.61954,90,70,40
247.65985,247.83122,92,70,40
247.9018,248.07317,83,70,40
248.14372,248.37558,83,70,40
248.38567,248.61751,82,70,40
248.6276,248.79897,83,70,40
248.86952,249.0409,85,70,40
249.11147,249.28854,87,70,40
249.36147,249.53854,87,70,40
249.61147,249.79465,89,70,40
249.87009,250.05327,90,70,40
250.12871,250.3854,87,70,40
250.39656,250.58629,85,70,40
250.66441,250.86874,83,70,40
250.95288,251.17424,82,70,40
251.26538,251.35797,80,70,40
251.35797,251.45056,82,70,40
251.45056,251.54315,80,70,40
251.54315,251.63576,82,70,40
251.63576,251.72835,80,70,40
251.72835,251.82094,82,70,40
251.82094,251.91353,80,70,40
251.91353,252.00612,82,70,40
252.00612,252.09871,80,70,40
252.09871,252.19131,82,70,40
252.19131,252.2839,80,70,40
252.2839,252.3765,82,70,40
252.3765,252.46909,80,70,40
252.46909,252.56168,82,70,40
252.56168,252.65427,80,70,40
252.65427,252.74686,82,70,40
252.74686,252.83946,80,70,40
252.83946,252.93205,82,70,40
252.93205,253.19826,80,70,40
253.20982,253.7751,78,70,40
253.7876,255.2751,80,70,40
255.68939,255.75635,56,70,40
255.75635,255.82332,58,70,40
255.82332,255.88582,59,70,40
255.88582,255.94832,61,70,40
255.94832,256.0108,63,70,40
256.0108,256.0733,65,70,40
256.0733,256.1358,66,70,40
256.1358,256.1983,68,70,40
256.1983,256.2608,70,70,40
256.2608,256.3233,71,70,40
256.3233,256.3819,73,70,40
256.3819,256.4405,75,70,40
256.4405,256.49908,77,70,40
256.49908,256.55768,78,70,40
256.55768,256.61627,80,70,40
256.61627,256.67487,82,70,40
256.67487,256.73346,83,70,40
256.73346,256.7823,85,70,40
256.79205,257.4854,87,70,40
257.49518,257.61237,85,85,40
257.61237,257.72955,83,88,40
257.72955,257.95416,85,90,40
258.1983,258.4229,78,70,40
258.66705,259.12604,63,70,40
259.1358,260.06354,65,80,40
260.0733,260.5323,66,70,40
260.54205,261.2354,87,70,40
261.24518,261.36237,85,85,40
261.36237,261.47955,83,88,40
261.47955,261.70416,85,90,40
261.9483,262.1879,90,70,40
262.4483,262.70502,80,50,40
262.98404,263.27155,85,50,40
263.58405,263.84073,78,50,40
267.15546,267.39505,70,50,40
267.65546,267.89505,76,50,40
268.15546,268.39505,82,50,40
268.65546,268.89505,76,50,40
269.15546,269.39505,82,50,40
269.65546,269.89505,75,50,40
270.15546,270.39505,81,50,40
270.65546,270.89505,74,50,40
271.15546,271.39505,80,50,40
271.65546,271.9033,73,50,40
272.1727,272.42938,79,50,40
272.729,273.4686,79,50,40
273.479,273.604,77,50,40
273.604,273.729,76,50,40
273.729,274.4686,79,50,40
274.479,274.604,77,50,40
274.604,274.729,76,50,40
274.729,275.4686,82,50,40
275.479,275.604,81,66,40
275.604,275.729,79,69,40
275.729,276.52155,82,71,40
276.5331,276.6831,81,88,40
276.6831,276.8331,79,90,40
276.8331,278.7585,82,100,40
278.7686,279.24237,81,91,40
279.73633,280.45206,73,70,40
280.46213,280.5831,74,70,40
280.5831,280.70407,76,70,40
280.70407,282.6295,82,100,40
282.63956,283.11334,80,93,40
283.6073,284.32303,72,70,40
284.3331,284.45407,73,70,40
284.45407,284.57504,75,70,40
284.57504,286.50043,82,100,40
286.51053,286.9843,81,93,40
286.9944,287.95206,81,70,40
287.96213,288.4359,81,60,40
288.446,289.40366,80,60,40
289.41376,290.12946,83,60,40
290.13956,290.26053,82,60,40
290.26053,290.3714,80,60,40
290.3815,290.8553,80,60,40
290.86536,291.82303,79,60,40
291.8331,292.3069,79,60,40
292.31696,293.27463,78,60,40
293.2847,294.00043,82,60,40
294.01053,294.13147,80,60,40
294.13147,294.24237,78,55,40
294.25244,294.72623,78,50,40
294.73633,295.69397,77,50,40
295.70407,296.17786,77,50,40
296.18793,296.6617,77,50,40
296.6718,297.62946,78,50,40
297.63956,298.11334,78,50,40
298.1234,298.5972,78,50,40
298.60727,299.59763,80,90,40
299.6084,300.17368,80,90,40
300.1862,300.36325,80,100,40
300.4362,300.6022,87,100,40
300.67056,300.83658,80,100,40
300.90494,301.07095,90,100,40
301.1393,302.30142,89,100,40
302.3112,302.4772,84,100,40
302.54556,302.71158,80,100,40
302.77994,302.94595,87,100,40
303.0143,304.17642,85,100,40
304.1862,304.3522,85,70,40
304.42056,304.58658,84,70,40
304.65494,304.82095,82,70,40
304.8893,305.11392,82,70,40
305.1237,305.2897,80,70,40
305.35806,305.52408,78,70,40
305.59244,305.75845,77,70,40
305.8268,306.05142,75,70,40
306.0612,306.2858,71,70,40
306.29556,306.52017,70,70,40
306.52994,306.75455,74,70,40
306.7643,306.99615,75,70,40
307.00623,307.1776,77,70,40
307.24817,307.42526,78,70,40
307.49817,307.6879,72,70,40
307.76602,308.92813,80,50,40
308.9379,309.1039,87,79,40
309.17227,309.3383,80,84,40
309.40665,309.57266,90,90,40
309.64102,309.80704,89,90,40
309.8754,310.0414,85,80,40
310.10977,310.33438,87,70,40
310.57852,310.7499,85,90,40
310.82047,310.99182,85,80,40
311.0624,311.30197,87,70,40
311.58026,312.03925,86,50,40
315.56464,315.73065,70,50,40
315.799,316.49237,66,50,40
316.50214,316.66815,68,50,40
316.7365,317.42987,65,50,40
317.43964,317.60565,66,50,40
317.674,317.84003,63,50,40
317.9084,318.0744,66,50,40
318.14276,318.60175,65,50,40
319.7834,319.9494,71,50,40
320.01776,320.71112,70,50,40
320.7209,320.8869,71,50,40
320.95526,321.64862,70,50,40
321.6584,321.8244,71,50,40
321.89276,322.58612,70,50,40
322.5959,322.7619,71,50,40
322.83026,323.28925,70,50,40
323.5334,323.6994,78,50,40
323.76776,323.99237,75,50,40
324.4709,324.6369,77,50,40
324.70526,324.92987,73,50,40
325.4084,325.5744,75,50,40
325.64276,325.86737,77,50,40
326.3459,326.5119,85,50,40
326.58026,326.80487,87,70,40
326.81464,327.03925,85,73,40
327.049,327.24432,84,77,40
327.2834,327.4787,82,81,40
327.51776,327.74237,82,84,40
327.75214,327.97675,80,88,40
327.9865,328.18182,78,92,40
328.2209,328.4162,77,95,40
328.45526,328.67987,77,95,40
328.68964,328.91425,75,92,40
328.924,329.1256,75,88,40
329.16592,329.36755,74,85,40
329.40787,329.64746,75,81,40
329.65787,329.89746,77,78,40
329.90787,330.1311,78,74,40
330.17572,330.4161,72,71,40
330.4642,330.69604,75,70,40
330.70612,331.17993,73,70,40
331.19,331.42184,73,70,40
331.43195,331.6638,75,70,40
331.67386,332.14764,73,70,40
332.15775,332.3896,73,70,40
332.3997,332.63153,75,70,40
332.6416,333.1154,73,70,40
333.1255,333.35733,73,70,40
333.3674,334.08313,78,70,40
334.09323,334.2142,75,70,40
334.2142,334.33514,72,65,40
334.33514,334.56702,75,60,40
334.5771,335.05087,73,60,40
335.06097,335.29282,73,60,40
335.3029,335.53476,73,60,40
335.54483,336.01862,71,60,40
336.02872,336.26056,71,60,40
336.27063,336.5025,71,60,40
336.51257,336.98636,70,60,40
336.99643,337.2283,70,60,40
337.23837,337.47797,70,60,40
337.48837,337.9951,68,60,40
338.00623,338.29373,68,60,40
338.30624,339.41827,68,50,40
339.4586,339.5392,68,50,40
339.57956,339.6602,70,50,40
339.70053,339.78116,72,50,40
339.82147,339.90213,73,50,40
339.94244,340.0231,75,50,40
340.06342,340.14407,77,50,40
340.1844,340.26505,78,50,40
340.30536,340.38602,80,50,40
340.42633,340.50696,80,50,40
340.5473,340.62793,82,50,40
340.66827,340.7489,84,50,40
340.7892,340.86987,85,50,40
340.9102,340.99084,87,50,40
341.03116,341.11182,89,50,40
341.15213,341.2328,90,50,40
341.2731,341.50494,92,50,40
341.75696,341.98883,94,53,40
342.24084,342.4727,84,56,40
342.7247,342.9643,85,60,40
343.2247,343.47256,80,63,40
343.74194,343.99866,82,67,40
344.2987,344.5112,68,70,40
344.8987,345.1862,72,50,40
346.3987,346.5487,56,90,40
346.5487,346.6987,65,100,40
346.6987,347.8862,73,110,40
350.8987,351.0362,61,1,40
0.9375,2.8652344,63,100,40
2.875,3.5907252,66,90,40
3.6008058,3.7258058,65,70,40
3.7258058,3.8597343,63,70,40
3.8597343,4.3187184,65,70,40
4.797234,5.7868176,70,100,40
5.797234,6.2562184,69,101,40
7.234734,13.399522,68,70,40
13.409287,13.575303,68,70,40
13.643662,13.809678,66,70,40
14.112412,14.278428,63,70,40
14.581162,14.747178,61,70,40
14.815537,14.981553,60,70,40
15.049912,15.215928,66,70,40
15.284287,17.618273,56,70,40
15.753037,17.618273,68,70,40
17.628038,18.321398,56,70,40
17.628038,18.321398,68,70,40
18.331163,18.790148,66,70,40
18.799913,18.965929,60,70,40
19.034288,19.493273,68,70,40
19.503038,20.430773,65,70,40
19.034288,20.899523,56,70,40
20.440538,20.899523,65,70,40
20.909288,21.133898,58,70,40
21.378038,21.609892,66,80,40
21.861908,22.101492,65,90,40
22.361908,22.55164,60,100,40
22.629765,22.842266,63,85,40
22.929766,23.404375,65,70,40
23.41414,24.341875,67,87,40
24.35164,24.810625,68,70,40
24.82039,25.51375,77,70,40
25.523516,25.640703,75,96,40
25.640703,25.75789,73,100,40
25.75789,25.9825,75,70,40
26.22664,27.154375,68,70,40
27.16414,27.623125,70,85,40
27.63289,27.8575,63,100,40
28.10164,28.32625,60,70,40
28.57039,28.795,58,70,40
29.03914,29.26375,58,70,40
29.50789,29.739744,59,70,40
29.99176,30.239605,58,70,40
30.509003,30.733612,58,70,40
30.977753,31.202362,56,70,40
31.446503,31.671112,56,70,40
31.915253,32.147106,68,70,40
32.399124,32.638706,66,70,40
32.899124,33.15582,63,50,40
33.434837,33.691532,65,50,40
38.256264,38.33439,65,110,40
38.33439,38.49064,63,90,40
38.49064,38.656654,62,70,40
38.725014,38.89103,63,70,40
38.95939,39.125404,68,70,40
39.193764,39.35978,68,70,40
39.42814,39.594154,67,70,40
39.662514,39.82853,68,70,40
39.89689,40.062904,72,70,40
40.131264,40.355873,67,70,40
40.600014,40.824623,63,70,40
41.068764,41.300617,63,70,40
42.07049,42.148617,73,70,40
42.148617,42.304867,72,70,40
42.304867,42.470882,70,70,40
42.53924,42.705257,72,70,40
42.773617,42.939632,75,70,40
43.00799,43.086117,61,70,40
43.086117,43.242367,60,70,40
43.242367,43.408382,61,70,40
43.47674,43.642757,60,70,40
43.711117,43.877132,68,70,40
43.94549,44.1701,67,70,40
44.41424,44.63885,67,70,40
44.88299,45.054363,63,70,40
45.124928,45.2963,67,70,40
45.366863,45.543945,68,70,40
45.616863,45.806595,72,70,40
45.88472,46.10933,72,50,40
46.35347,46.57808,65,50,40
46.82222,46.8827,66,50,40
46.8827,46.99359,65,50,40
47.064156,47.235527,64,50,40
47.30609,47.483173,65,50,40
47.55609,47.745823,70,50,40
47.823948,48.06353,75,100,40
48.323948,48.56353,63,50,40
54.042698,54.970432,70,50,40
54.980198,55.439182,68,50,40
56.620823,56.73801,68,50,40
56.73801,56.855198,70,50,40
56.855198,57.021214,72,50,40
57.089573,57.25559,68,50,40
57.323948,57.548557,70,50,40
57.792698,58.017307,63,50,40
58.261448,58.486057,63,50,40
58.730198,58.954807,63,50,40
60.136448,60.214573,65,50,40
60.214573,60.292698,63,50,40
60.292698,60.370823,65,50,40
60.370823,60.448948,63,50,40
60.448948,60.527073,65,50,40
60.527073,60.605198,63,50,40
60.605198,60.683323,65,50,40
60.683323,60.761448,63,50,40
60.761448,60.839573,65,50,40
60.839573,60.917698,63,50,40
60.917698,60.995823,62,50,40
60.995823,61.064182,63,50,40
61.073948,61.3058,61,50,40
61.557816,61.7349,58,55,40
61.807816,61.9849,61,58,40
62.057816,62.314514,60,60,40
62.593533,63.88957,67,100,40
62.593533,63.88957,72,100,40
63.899334,64.06535,72,90,40
64.13371,64.35832,67,70,40
64.83684,65.00285,67,70,40
65.07121,65.23723,64,70,40
65.30559,65.4716,65,68,40
65.53996,65.70598,67,65,40
65.77434,65.94035,60,63,40
66.00871,66.17473,60,60,40
66.24309,66.4091,72,57,40
66.47746,66.64348,72,55,40
66.71184,66.829025,72,52,40
66.829025,66.94621,74,51,40
66.94621,67.11223,70,50,40
67.18059,67.3466,55,50,40
67.41496,67.58098,55,50,40
67.64934,67.81535,60,50,40
67.88371,68.04973,60,50,40
68.11809,68.2841,65,50,40
68.35246,68.51848,64,50,40
68.58684,68.75285,67,50,40
68.82121,68.98723,69,50,40
69.05559,69.2216,64,55,40
69.28996,69.45598,65,60,40
69.52434,69.69035,61,65,40
69.75871,69.93008,60,70,40
70.00064,70.17201,55,75,40
70.24258,70.425766,55,80,40
70.5012,70.69796,60,85,40
74.11648,75.04421,67,70,40
75.05398,75.74734,71,70,40
75.7571,75.87429,69,70,40
75.87429,75.99148,67,70,40
75.99148,76.21609,69,70,40
76.46023,76.68484,71,70,40
76.92898,77.15359,72,70,40
77.39773,77.62234,74,75,40
77.86648,78.03249,76,80,40
78.10085,78.26687,74,82,40
78.33523,78.50124,72,85,40
78.5696,78.73562,60,88,40
78.80398,78.97535,60,90,40
79.04591,79.217285,74,93,40
79.28785,79.45922,72,95,40
79.529785,79.70116,60,98,40
79.77172,79.9488,60,100,40
80.02172,80.1988,74,93,40
80.27172,80.46145,72,86,40
80.53957,80.752075,60,78,40
80.83958,81.07916,60,70,40
81.21458,81.32916,72,73,40
81.33958,81.57916,72,75,40
81.71458,81.82916,72,79,40
81.83958,82.32916,65,80,40
83.21458,83.32916,72,94,40
83.33958,83.57916,72,95,40
83.71458,83.82916,72,99,40
83.83958,84.32916,64,100,40
85.21458,85.32916,73,66,40
85.33958,85.57916,73,64,40
85.71458,85.82916,73,59,40
85.83958,86.32916,58,57,40
87.21458,87.32916,73,50,40
87.33958,87.57916,73,50,40
87.71458,87.82916,73,50,40
87.83958,88.09177,73,52,40
88.234314,88.35493,61,61,40
88.234314,88.35493,68,61,40
88.36589,88.632095,61,64,40
88.36589,88.632095,68,64,40
88.79367,88.93117,61,73,40
88.79367,88.93117,68,73,40
88.94367,89.18325,68,76,40
89.42805,89.65266,68,88,40
89.8968,90.59016,67,100,40
90.59992,90.82453,70,70,40
90.8343,91.05891,68,50,40
91.30305,91.52766,60,76,40
91.7718,92.69953,61,100,40
92.7093,92.87531,60,100,40
92.94367,93.10969,68,100,40
93.17805,93.34406,63,100,40
93.41242,93.57844,72,100,40
93.6468,94.57453,70,100,40
94.5843,94.75567,68,100,40
94.82623,94.9976,72,100,40
95.06816,95.30002,73,120,40
95.55203,95.72912,72,100,40
95.80203,95.97912,68,100,40
96.05203,96.60739,70,100,40
96.619896,96.859474,68,70,40
96.869896,96.953224,77,70,40
96.953224,97.03656,75,70,40
97.03656,97.119896,74,70,40
97.119896,97.29126,75,70,40
97.361824,97.533195,68,70,40
97.845695,97.926346,79,70,40
97.926346,98.00699,77,70,40
98.00699,98.08763,76,70,40
98.08763,98.259,77,70,40
98.32957,98.50094,68,70,40
98.81344,98.89408,77,70,40
98.89408,98.97473,75,70,40
98.97473,99.055374,74,70,40
99.055374,99.226746,75,70,40
99.29731,99.46868,68,70,40
99.78118,99.861824,75,70,40
99.861824,99.94247,73,70,40
99.94247,100.02312,72,70,40
100.02312,100.19449,73,70,40
100.26505,100.436424,63,70,40
100.748924,100.82957,73,70,40
100.82957,100.91021,72,70,40
100.91021,100.99086,70,70,40
100.99086,101.162224,72,70,40
101.23279,101.40416,60,70,40
101.71666,101.79731,70,70,40
101.79731,101.87795,68,70,40
101.87795,101.958595,67,70,40
101.958595,102.12997,68,70,40
102.20053,102.3719,56,70,40
102.69247,102.7758,65,70,40
102.7758,102.85913,63,70,40
102.85913,102.94247,62,70,40
102.94247,103.11955,63,70,40
103.19247,103.36955,56,70,40
103.70109,103.78729,77,70,40
103.78729,103.873505,75,70,40
103.873505,103.95971,74,70,40
103.95971,104.149445,75,70,40
104.22756,104.43189,67,70,40
105.000404,105.16642,60,100,40
105.23478,105.400795,68,100,40
105.469154,106.39689,67,100,40
106.406654,106.57267,68,100,40
106.64103,106.807045,75,100,40
106.875404,107.10001,75,100,40
107.344154,107.515526,63,100,40
107.58609,107.75746,72,100,40
107.828026,108.33472,73,100,40
108.34588,108.81967,75,70,40
108.82975,109.30354,72,70,40
109.31362,110.75515,56,70,40
109.31362,110.75515,68,70,40
110.765236,112.2934,78,80,40
112.30542,112.78003,80,70,40
112.789795,113.71753,73,70,40
113.727295,114.65503,61,70,40
114.664795,115.12378,73,70,40
115.133545,115.60734,72,70,40
115.61742,115.857,60,82,40
115.86742,116.124115,59,89,40
116.13528,116.312355,58,50,40
116.38528,116.55129,58,50,40
116.61965,116.78567,58,50,40
116.85403,117.02004,58,50,40
117.0884,117.25442,58,50,40
117.32278,117.48879,66,50,40
117.55715,117.72317,63,50,40
117.79153,117.95754,70,50,40
118.0259,118.19192,70,50,40
118.26028,118.42629,70,50,40
118.49465,118.66067,70,50,40
118.72903,118.89504,68,50,40
118.9634,119.14048,68,60,40
119.2134,119.39048,65,73,40
119.4634,119.6498,66,86,40
119.726555,119.930885,68,100,40
120.015015,120.239624,68,70,40
120.24939,120.708374,56,70,40
120.71814,120.94275,56,70,40
120.952515,121.177124,58,70,40
121.18689,121.645874,56,70,40
121.65564,121.88025,56,70,40
121.890015,122.114624,70,70,40
122.12439,122.583374,68,70,40
122.59314,122.81775,68,70,40
122.827515,123.520874,78,70,40
123.53064,123.64783,75,70,40
123.64783,123.765015,72,70,40
123.765015,124.69275,73,70,40
125.7572,125.83533,65,70,40
125.87439,125.952515,67,70,40
125.99158,126.0697,69,70,40
126.108765,126.18689,70,70,40
126.22595,126.30408,72,70,40
126.34314,126.421265,74,70,40
126.46033,126.53845,76,70,40
126.577515,126.65564,77,70,40
126.6947,126.77283,79,70,40
126.81189,126.890015,81,70,40
126.92908,127.0072,82,70,40
127.046265,127.21228,84,70,40
127.28064,127.446655,75,70,40
127.515015,127.739624,74,70,40
127.74939,128.20837,77,70,40
128.21814,128.67712,77,70,40
128.68689,129.14587,62,70,40
129.15564,129.61462,70,70,40
129.62439,130.08337,67,70,40
129.62439,130.08337,70,70,40
130.09314,130.55212,67,70,40
130.09314,130.55212,70,70,40
130.56189,131.02087,67,70,40
130.56189,131.02087,70,70,40
131.03064,131.25525,67,70,40
131.03064,131.25525,70,70,40
131.26501,131.34314,68,70,40
131.3822,131.46033,56,70,40
131.49939,131.57751,58,70,40
131.61658,131.6947,60,70,40
131.73376,131.81189,61,70,40
131.85095,131.92908,63,70,40
131.96814,132.04626,65,70,40
132.08533,132.16345,67,70,40
132.20251,132.28064,68,70,40
132.3197,132.39783,70,70,40
132.43689,132.51501,72,70,40
132.55408,132.6322,73,70,40
132.67126,132.83728,75,70,40
132.90564,133.07166,68,70,40
133.37439,133.83337,70,70,40
133.84314,134.30937,70,70,40
134.31946,134.80096,70,70,40
135.06139,137.05096,70,100,40
137.06139,138.05096,70,91,40
138.06139,138.80096,73,70,40
138.81139,138.93639,72,70,40
138.93639,139.06139,70,70,40
139.06139,142.05096,70,100,40
142.06139,143.1414,68,90,40
143.15343,143.62804,68,70,40
143.6378,143.80382,65,70,40
143.87218,144.0382,68,70,40
144.5753,144.74132,65,70,40
144.80968,144.9757,68,70,40
145.5128,145.67882,65,70,40
145.74718,145.9132,68,70,40
146.4503,146.61632,68,70,40
146.68468,146.8507,72,70,40
147.3878,147.55382,61,70,40
147.62218,147.7882,65,70,40
148.3253,148.49132,65,70,40
148.55968,148.7257,73,70,40
149.2628,149.42882,66,70,40
149.49718,149.6632,72,70,40
150.21542,150.3925,68,70,40
150.46542,150.65515,78,70,40
150.73328,150.91035,77,70,40
150.98328,151.14929,70,70,40
151.21765,151.38367,68,70,40
151.45203,151.53015,66,70,40
151.56921,151.64734,65,70,40
151.6864,151.85242,61,70,40
151.92078,152.08679,70,70,40
152.15515,152.32117,68,70,40
152.38953,152.46765,66,70,40
152.50671,152.58484,65,70,40
152.6239,152.78992,66,70,40
152.85828,153.02429,70,70,40
153.09265,153.25867,68,70,40
153.32703,153.40515,66,70,40
153.44421,153.52234,65,70,40
153.5614,153.72742,63,70,40
153.79578,153.96179,70,70,40
154.03015,154.19617,68,70,40
154.26453,154.34265,70,70,40
154.38171,154.45984,72,70,40
154.4989,154.95789,73,70,40
155.90515,156.36414,73,70,40
156.3739,157.06726,70,70,40
157.07703,157.19421,68,85,40
157.19421,157.30164,66,87,40
157.3114,158.00476,66,90,40
158.01453,158.13171,65,90,40
158.13171,158.2489,63,80,40
158.2489,158.70789,68,70,40
158.71765,159.64539,70,80,40
159.65515,160.11414,72,70,40
160.1239,160.81726,77,70,40
160.82703,160.94421,75,85,40
160.94421,161.0614,73,88,40
161.0614,161.28601,75,90,40
161.53015,161.75476,68,70,40
161.9989,162.45789,68,70,40
162.46765,162.92664,70,80,40
162.9364,163.2782,68,90,40
163.40515,163.62976,68,70,40
163.8739,164.09851,65,70,40
164.34265,164.56726,58,70,40
164.8114,165.04326,59,70,40
165.29527,165.53485,58,70,40
165.79527,166.01988,58,76,40
166.26402,166.48863,56,83,40
166.73277,166.96463,56,90,40
167.21664,167.45622,68,70,40
167.71664,167.96883,70,70,40
168.24295,168.5194,72,50,40
168.81989,169.21051,68,50,40
173.89131,174.88089,65,110,40
174.89131,175.11592,68,93,40
175.36006,175.58467,56,70,40
175.82881,175.8874,58,70,40
175.8874,175.99483,56,70,40
176.06319,176.2292,55,70,40
176.29756,176.46358,56,70,40
176.53194,176.69795,60,70,40
177.70381,177.7624,70,70,40
177.7624,177.86983,68,70,40
177.93819,178.1042,67,70,40
178.17256,178.33858,68,70,40
178.40694,178.57295,72,70,40
179.57881,179.6374,70,70,40
179.6374,179.74483,68,70,40
179.81319,179.9792,67,70,40
180.04756,180.21358,68,70,40
180.28194,180.44795,72,70,40
180.51631,180.68233,73,70,40
180.75069,180.9167,72,70,40
180.98506,181.15108,73,70,40
181.21944,181.38545,77,60,40
181.45381,181.5124,72,50,40
181.5124,181.61983,70,50,40
181.68819,181.8542,69,50,40
181.92256,182.09393,70,50,40
182.16449,182.33586,74,50,40
182.40643,182.64601,75,50,40
183.44214,183.68172,80,110,40
183.94214,184.18172,68,70,40
187.44214,187.68172,66,50,40
187.94214,188.18172,68,50,40
188.44214,188.68172,65,50,40
189.94214,190.06714,60,50,40
190.06714,190.19214,58,70,40
190.94214,191.06714,58,50,40
191.06714,191.19214,56,70,40
191.94214,192.18172,63,50,40
192.44214,192.68172,56,50,40
192.94214,193.18172,65,50,40
193.94214,194.18172,63,50,40
194.44214,194.68172,56,50,40
195.44214,195.52547,70,50,40
195.52547,195.60881,68,50,40
195.60881,195.69214,70,50,40
195.69214,195.77547,68,50,40
195.77547,195.85881,70,50,40
195.85881,195.94214,68,50,40
195.94214,196.02547,70,50,40
196.02547,196.10881,68,50,40
196.10881,196.19214,70,50,40
196.19214,196.27547,68,50,40
196.27547,196.35881,67,50,40
196.35881,196.43172,68,50,40
196.44214,196.61922,68,50,40
196.69214,196.81714,73,50,40
196.81714,196.94214,75,50,40
196.94214,197.11922,77,50,40
197.19214,197.36922,73,50,40
197.44214,197.68172,72,50,40
197.94214,198.13187,63,50,40
198.20999,198.39973,66,50,40
198.77785,198.99036,65,50,40
199.07785,200.37122,72,110,40
199.07785,200.37122,77,110,40
200.38098,200.547,77,70,40
200.61536,200.83997,72,70,40
201.31848,201.4845,65,70,40
201.31848,201.4845,72,70,40
201.55286,201.71887,65,70,40
201.55286,201.71887,72,70,40
201.78723,201.95325,65,68,40
201.78723,201.95325,72,68,40
202.0216,202.18762,65,65,40
202.0216,202.18762,72,65,40
202.25598,202.422,65,63,40
202.25598,202.422,72,63,40
202.49036,202.65637,65,60,40
202.49036,202.65637,74,60,40
202.72473,202.89075,77,57,40
202.9591,203.12512,77,55,40
203.19348,203.31067,77,52,40
203.31067,203.42786,79,51,40
203.42786,203.59387,75,50,40
203.66223,203.82825,77,50,40
203.8966,204.06262,77,50,40
204.13098,204.297,77,50,40
204.36536,204.53137,77,50,40
204.59973,204.76575,75,50,40
204.8341,205.00548,81,50,40
205.07603,205.2474,84,50,40
205.31798,205.48935,77,50,40
205.5599,205.73128,69,56,40
205.80185,205.97322,70,62,40
206.04378,206.21515,66,69,40
206.28572,206.4628,65,75,40
206.53572,206.7128,60,81,40
206.78572,206.97545,62,88,40
207.05357,207.26607,65,94,40
210.7067,211.63443,72,70,40
211.6442,212.33755,76,70,40
212.34732,212.46451,74,70,40
212.46451,212.5817,72,70,40
212.5817,212.8063,74,70,40
213.05045,213.27505,76,70,40
213.5192,213.7438,77,70,40
213.98795,214.21255,79,75,40
214.4567,214.62271,81,80,40
214.69107,214.85709,79,82,40
214.92545,215.09146,77,85,40
215.15982,215.32584,65,88,40
215.3942,215.56021,65,90,40
215.62857,215.79459,79,93,40
215.86295,216.02896,77,95,40
216.09732,216.26334,65,98,40
216.3317,216.50307,65,100,40
216.57364,216.75072,79,70,40
216.82364,217.01337,77,70,40
217.09149,217.30399,65,70,40
217.3915,217.63107,65,70,40
217.75868,217.8661,77,73,40
217.87587,218.10048,77,75,40
218.22743,218.33485,77,79,40
218.34462,218.8036,70,80,40
219.63368,219.7411,77,94,40
219.75087,219.97548,77,95,40
220.10243,220.20985,77,99,40
220.21962,220.44423,69,100,40
220.68837,220.91298,70,83,40
221.15712,221.38173,70,70,40
221.50868,221.6161,78,65,40
221.62587,221.85048,78,63,40
221.97743,222.08485,78,57,40
222.09462,222.31923,78,55,40
222.44618,222.5536,75,50,40
222.56337,222.78798,75,50,40
222.91493,223.02235,75,50,40
223.03212,223.26398,75,50,40
223.39502,223.5059,78,50,40
223.51599,223.74783,78,50,40
223.87889,223.98978,78,50,40
223.99986,224.23944,78,50,40
224.37486,224.48944,78,60,40
224.49986,224.75655,78,68,40
224.91771,225.0552,77,92,40
225.06772,225.3073,77,100,40
225.5521,225.7767,68,100,40
226.02084,226.7142,72,100,40
226.72397,226.94858,75,100,40
226.95834,227.18295,73,100,40
227.4271,227.6517,65,100,40
227.89584,228.82358,66,100,40
228.83334,228.99936,65,100,40
229.06772,229.23373,73,100,40
229.3021,229.46811,73,100,40
229.53647,229.70248,77,100,40
229.77084,230.69858,75,100,40
230.70834,230.87436,73,100,40
230.94272,231.10873,73,100,40
231.1771,231.4017,68,120,40
231.64584,231.81721,68,100,40
231.88777,232.05914,65,93,40
232.12971,232.6364,66,85,40
232.90181,232.98245,70,70,40
232.98245,233.0631,68,70,40
233.0631,233.14374,67,70,40
233.14374,233.31511,68,70,40
233.38567,233.55704,61,70,40
233.86954,233.9502,84,70,40
233.9502,234.03084,82,70,40
234.03084,234.11148,81,70,40
234.11148,234.28285,82,70,40
234.35341,234.52478,70,70,40
234.83728,234.91792,70,70,40
234.91792,234.99858,68,70,40
234.99858,235.07922,67,70,40
235.07922,235.2506,68,70,40
235.32115,235.49252,61,70,40
235.80502,235.88567,70,70,40
235.88567,235.96631,68,70,40
235.96631,236.04697,67,70,40
236.04697,236.21834,68,70,40
236.2889,236.46027,56,70,40
236.77277,236.85341,75,70,40
236.85341,236.93405,73,70,40
236.93405,237.01471,72,70,40
237.01471,237.18607,73,70,40
237.25664,237.42801,65,70,40
237.74051,237.82115,72,70,40
237.82115,237.9018,70,70,40
237.9018,237.98244,69,70,40
237.98244,238.15381,70,70,40
238.22438,238.39575,58,70,40
238.70825,238.7889,63,70,40
238.7889,238.86954,61,70,40
238.86954,238.95018,60,70,40
238.95018,239.12155,61,70,40
239.19212,239.3635,56,70,40
239.676,239.75664,73,70,40
239.75664,239.83728,72,70,40
239.83728,239.91792,70,70,40
239.91792,240.0893,72,70,40
240.15987,240.33124,63,70,40
241.61147,241.78284,75,80,40
241.85341,242.02478,73,85,40
242.09534,242.26671,77,90,40
242.33728,242.50865,78,95,40
242.57921,242.75058,78,100,40
242.82115,243.05301,80,85,40
243.30502,243.4764,78,70,40
243.54695,243.71832,82,80,40
243.7889,244.26268,83,90,40
244.27277,244.50461,82,70,40
244.5147,244.59534,71,70,40
244.59534,244.67598,70,70,40
244.67598,244.75664,68,70,40
244.75664,244.928,70,70,40
244.99857,245.16994,58,70,40
245.48244,245.56308,80,70,40
245.56308,245.64372,78,70,40
245.64372,245.72437,77,70,40
245.72437,245.89574,78,70,40
245.96631,246.13768,66,70,40
246.45018,246.53082,75,70,40
246.53082,246.61147,73,70,40
246.61147,246.69211,72,70,40
246.69211,246.86348,73,70,40
246.93405,247.10542,66,70,40
247.41792,247.49857,75,70,40
247.49857,247.57921,73,70,40
247.57921,247.65985,72,70,40
247.65985,247.83122,73,70,40
247.9018,248.07317,61,70,40
248.14372,249.10138,73,70,40
249.11147,251.25237,66,70,40
251.26538,252.36491,65,70,40
256.79205,256.95807,59,70,40
257.02643,257.19244,68,70,40
257.2608,257.42682,66,70,40
257.49518,257.6612,59,70,40
257.72955,257.89557,58,70,40
257.96393,258.12994,66,70,40
258.1983,258.36432,61,70,40
258.43268,258.5987,58,70,40
258.66705,259.3604,75,70,40
259.37018,259.48737,73,85,40
259.48737,259.60455,71,88,40
259.60455,259.82916,73,90,40
260.0733,260.2979,66,70,40
260.54205,261.00104,63,70,40
261.0108,261.93854,65,80,40
261.9483,262.97287,66,70,40
262.98404,263.27155,65,50,40
263.58405,263.84073,66,50,40
268.8221,268.9367,64,50,40
268.9888,269.10336,70,50,40
269.15546,269.27005,76,50,40
269.3221,269.4367,64,50,40
269.8221,269.9367,63,50,40
269.9888,270.10336,69,50,40
270.15546,270.27005,75,50,40
270.3221,270.4367,63,50,40
270.8221,270.9367,62,50,40
270.9888,271.10336,68,50,40
271.15546,271.27005,74,50,40
271.3221,271.4367,62,50,40
271.82788,271.9464,61,50,40
272.00027,272.11884,67,50,40
272.1727,272.29547,73,50,40
272.35126,272.47662,61,50,40
272.8957,273.01025,61,50,40
273.06235,273.17694,67,50,40
273.229,273.3436,73,50,40
273.3957,273.51025,61,50,40
273.8957,274.01025,61,50,40
274.06235,274.17694,67,50,40
274.229,274.3436,73,50,40
274.3957,274.51025,61,50,40
274.8957,275.01025,61,53,40
275.06235,275.17694,70,57,40
275.229,275.3436,73,60,40
275.3957,275.51025,61,64,40
275.90445,276.0251,61,75,40
276.0799,276.2005,70,78,40
276.25534,276.38266,73,82,40
276.44052,276.57062,61,86,40
276.8331,277.79077,73,100,40
277.80084,279.24237,61,94,40
279.25247,279.72626,64,70,40
279.73633,280.45206,67,70,40
280.46213,280.5831,65,70,40
280.5831,280.70407,64,70,40
280.70407,281.66174,73,100,40
281.6718,282.6295,61,92,40
282.63956,283.11334,60,70,40
283.12344,283.59723,72,70,40
283.6073,284.32303,75,70,40
284.3331,284.45407,73,70,40
284.45407,284.57504,72,70,40
284.57504,285.5327,75,100,40
285.5428,286.9843,63,94,40
286.9944,287.46817,75,70,40
287.47827,288.194,78,60,40
288.20407,288.32504,77,60,40
288.32504,288.4359,75,60,40
288.446,288.9198,75,60,40
288.92987,289.88754,74,60,40
289.8976,290.3714,74,60,40
290.3815,291.33914,73,60,40
291.3492,292.06494,77,60,40
292.07504,292.196,75,60,40
292.196,292.31696,73,60,40
292.31696,292.79077,73,60,40
292.80084,293.75848,72,60,40
293.7686,294.24237,72,60,40
294.25244,295.2101,71,50,40
295.22018,295.9359,75,50,40
295.94598,296.06696,73,50,40
296.06696,296.17786,71,50,40
296.18793,296.6617,71,50,40
296.6718,297.1456,70,50,40
297.15567,297.8714,73,50,40
297.88147,298.00244,71,50,40
298.00244,298.1234,70,50,40
298.1234,298.5972,70,50,40
298.60727,299.59763,68,90,40
299.6084,300.17368,68,90,40
300.1862,300.42575,66,100,40
300.67056,300.89517,63,100,40
301.1393,301.30533,65,100,40
301.3737,301.5397,68,90,40
301.60806,301.77408,65,80,40
301.84244,302.00845,73,70,40
302.0768,303.23892,75,100,40
303.2487,303.4147,73,90,40
303.48306,303.64908,73,80,40
303.71744,303.88345,72,70,40
303.9518,304.17642,70,70,40
304.42056,304.64517,66,70,40
304.8893,305.11392,63,70,40
305.35806,305.58267,61,70,40
305.8268,306.05142,63,70,40
306.29556,306.52017,68,70,40
306.7643,306.99615,66,70,40
307.24817,307.48776,66,70,40
307.76602,307.93204,65,50,40
308.0004,308.1664,68,55,40
308.23477,308.4008,65,61,40
308.46915,308.63516,73,67,40
308.70352,309.39688,75,73,40
309.40665,309.57266,72,90,40
309.64102,309.80704,73,90,40
309.8754,310.0414,77,80,40
310.10977,310.33438,78,70,40
310.57852,310.7499,77,90,40
310.82047,310.99182,73,80,40
311.0624,311.30197,72,70,40
311.58026,311.74628,74,50,40
311.81464,311.98065,62,50,40
312.049,312.74237,63,50,40
312.75214,312.91815,62,50,40
312.9865,313.67987,63,50,40
313.68964,313.85565,62,50,40
313.924,314.61737,63,50,40
314.62714,314.79315,62,50,40
314.8615,315.3205,63,50,40
316.0334,316.1994,66,50,40
316.26776,316.49237,63,50,40
316.9709,317.1369,65,50,40
317.20526,317.42987,61,50,40
317.9084,318.0744,63,50,40
318.14276,318.36737,65,50,40
318.37714,318.83612,59,50,40
318.8459,319.0705,58,50,40
320.25214,320.41815,70,50,40
320.4865,320.71112,66,50,40
322.12714,322.29315,70,50,40
322.3615,322.58612,66,50,40
323.06464,323.23065,70,50,40
323.299,323.99237,66,50,40
324.00214,324.16815,68,50,40
324.2365,324.92987,65,50,40
324.93964,325.10565,66,50,40
325.174,325.34003,63,50,40
325.4084,325.5744,66,50,40
325.87714,326.04315,65,50,40
326.1115,326.27753,61,50,40
326.3459,326.5119,65,50,40
326.58026,326.80487,66,70,40
327.049,327.27362,70,77,40
327.51776,327.74237,63,84,40
327.9865,328.21112,65,92,40
328.45526,328.67987,68,95,40
328.68964,328.85565,66,92,40
328.924,329.09537,68,88,40
329.16592,329.3373,68,85,40
329.40787,329.64746,70,81,40
329.65787,329.83496,68,78,40
329.90787,330.0976,68,74,40
330.17572,330.38007,66,71,40
330.4642,330.938,65,70,40
330.94806,331.90573,61,70,40
331.9158,332.52063,61,70,40
332.52063,332.6013,68,80,40
332.6416,332.72226,70,80,40
332.76257,332.84323,72,81,40
332.88354,332.9642,73,82,40
333.00452,333.08514,75,83,40
333.1255,333.20612,77,84,40
333.24646,333.3271,78,85,40
333.3674,333.44806,80,86,40
333.48837,333.56903,82,87,40
333.60934,333.69,84,88,40
333.73032,333.81097,85,89,40
333.8513,334.02264,87,90,40
334.09323,334.2646,78,70,40
334.33514,334.56702,77,60,40
334.5771,334.65775,70,60,40
334.65775,334.73837,68,60,40
334.73837,334.81903,67,60,40
334.81903,334.9904,68,60,40
335.06097,335.23233,61,60,40
335.54483,335.6255,66,60,40
335.6255,335.70612,65,60,40
335.70612,335.78677,63,60,40
335.78677,335.95813,65,60,40
336.02872,336.20007,56,60,40
336.51257,336.59323,75,60,40
336.59323,336.67386,73,60,40
336.67386,336.75452,72,60,40
336.75452,336.92587,73,60,40
336.99643,337.16782,66,60,40
337.48837,337.57172,75,60,40
337.57172,337.65506,73,60,40
337.65506,337.73837,72,60,40
337.73837,337.9281,73,60,40
338.00623,338.21875,65,60,40
338.30624,338.40625,73,50,40
338.45624,338.54883,61,50,40
338.59512,338.68134,61,50,40
338.72443,338.81064,61,50,40
338.85376,338.9344,61,50,40
338.9747,339.05536,61,50,40
339.09567,339.17633,61,50,40
339.21664,339.2973,61,50,40
339.33762,339.41827,61,50,40
339.4586,339.5392,61,50,40
339.57956,339.6602,61,50,40
339.70053,339.78116,61,50,40
339.82147,339.90213,61,50,40
339.94244,340.0231,61,50,40
340.06342,340.14407,61,50,40
340.1844,340.26505,61,50,40
340.30536,340.38602,61,50,40
340.42633,340.50696,61,50,40
340.5473,340.62793,61,50,40
340.66827,340.7489,61,50,40
340.7892,340.86987,61,50,40
340.9102,340.99084,61,50,40
341.03116,341.11182,61,50,40
341.15213,341.2328,61,50,40
341.2731,341.35373,61,50,40
341.39407,341.4747,61,50,40
341.51505,341.59567,61,51,40
341.636,341.71664,61,52,40
341.75696,341.83762,61,53,40
341.87793,341.9586,61,54,40
341.9989,342.07956,61,55,40
342.11987,342.20053,61,56,40
342.24084,342.34164,66,56,40
342.36182,342.46262,66,57,40
342.4828,342.5836,66,58,40
342.60373,342.70456,66,59,40
342.7247,342.8289,65,60,40
342.8497,342.9539,65,61,40
342.9747,343.0789,65,62,40
343.0997,343.2039,65,63,40
343.2247,343.33246,63,63,40
343.35403,343.4618,63,64,40
343.48334,343.5911,61,65,40
343.61264,343.7204,61,66,40
343.74194,343.85355,61,67,40
343.8759,343.9875,61,68,40
344.0098,344.12555,61,69,40
344.1487,344.2737,61,70,40
344.2987,344.5112,61,70,40
344.8987,345.1862,66,50,40
346.3987,346.5487,56,90,40
346.5487,346.6987,61,100,40
346.6987,347.8862,65,110,40
0.0,0.22460938,49,1,41
0.9375,2.8652344,60,100,41
2.875,3.5907252,63,92,41
3.6008058,3.7258058,61,70,41
3.7258058,3.8597343,60,70,41
3.7258058,3.8597343,58,70,41
3.8597343,4.3187184,61,70,41
4.797234,6.7249684,51,100,41
6.734734,7.4743176,54,100,41
7.484734,7.618663,53,70,41
7.618663,7.768663,51,70,41
7.768663,8.712022,49,70,41
8.721787,9.415147,53,70,41
9.424912,9.5421,51,70,41
9.5421,9.659287,49,70,41
9.659287,9.883897,51,70,41
10.128037,10.352647,53,70,41
10.596787,10.821397,54,70,41
11.534287,12.462022,53,70,41
12.471787,13.165147,56,70,41
13.174912,13.2921,54,70,41
13.2921,13.409287,53,70,41
13.409287,13.633897,58,70,41
13.878037,14.102647,60,70,41
14.346787,14.571397,61,70,41
14.815537,15.040147,63,70,41
15.284287,15.450303,61,70,41
15.518662,15.684678,58,70,41
15.753037,15.919053,56,70,41
15.987412,16.153429,54,70,41
16.221788,16.446398,49,70,41
17.393663,17.559679,58,70,41
17.628038,17.794054,56,70,41
17.862413,18.028429,49,70,41
18.096788,18.321398,51,70,41
19.268663,19.434679,58,70,41
19.503038,19.669054,56,70,41
19.737413,19.903429,53,70,41
19.971788,20.196398,49,70,41
21.143663,21.309679,65,75,41
21.378038,21.549408,63,80,41
21.619972,21.791344,56,85,41
21.861908,22.101492,58,90,41
22.361908,22.618605,48,100,41
22.929766,23.404375,49,70,41
23.41414,24.341875,58,87,41
24.35164,24.810625,60,70,41
24.82039,25.279375,49,70,41
25.28914,26.216875,58,87,41
26.22664,26.685625,60,70,41
26.69539,27.154375,53,70,41
27.16414,28.091875,55,85,41
28.10164,28.32625,56,70,41
28.57039,28.795,56,70,41
29.03914,29.26375,55,70,41
29.50789,29.739744,51,70,41
29.99176,30.239605,53,70,41
30.509003,30.733612,54,70,41
30.977753,31.202362,51,70,41
31.446503,31.671112,53,70,41
31.915253,32.147106,53,70,41
31.915253,32.147106,56,70,41
32.399124,32.638706,58,70,41
32.899124,33.15582,60,50,41
33.434837,33.691532,56,50,41
39.193764,39.35978,51,70,41
39.42814,39.594154,61,70,41
39.662514,39.82853,60,70,41
39.89689,40.062904,56,70,41
40.131264,40.355873,58,70,41
40.600014,40.824623,58,70,41
41.068764,41.14941,58,70,41
41.14941,41.3107,56,70,41
41.3107,41.48207,55,70,41
41.552635,41.729717,56,70,41
41.802635,41.992367,60,70,41
43.00799,43.086117,55,70,41
43.086117,43.242367,56,70,41
43.242367,43.408382,58,70,41
43.47674,43.642757,56,70,41
43.711117,43.877132,48,70,41
43.94549,44.1701,49,70,41
44.41424,44.63885,49,70,41
44.88299,45.054363,48,70,41
45.124928,45.2963,58,70,41
45.366863,45.543945,60,70,41
45.616863,45.806595,63,70,41
45.88472,46.10933,63,50,41
46.35347,46.57808,63,50,41
46.82222,46.8827,63,50,41
46.8827,46.99359,61,50,41
47.064156,47.235527,61,50,41
47.30609,47.483173,61,50,41
47.55609,47.745823,61,50,41
47.823948,48.06353,48,100,41
48.323948,48.56353,60,50,41
51.698948,51.923557,49,50,41
52.167698,52.392307,51,50,41
52.636448,52.861057,48,50,41
54.042698,54.159885,63,50,41
54.159885,54.277073,61,50,41
54.980198,55.097385,61,50,41
55.097385,55.214573,60,50,41
55.448948,55.527073,53,50,41
55.527073,55.605198,51,50,41
55.605198,55.683323,53,50,41
55.683323,55.761448,51,50,41
55.761448,55.839573,53,50,41
55.839573,55.917698,51,50,41
55.917698,55.995823,53,50,41
55.995823,56.073948,51,50,41
56.073948,56.152073,53,50,41
56.152073,56.230198,51,50,41
56.230198,56.308323,50,50,41
56.308323,56.376682,51,50,41
56.386448,56.464573,58,50,41
56.464573,56.542698,56,50,41
56.542698,56.620823,58,50,41
56.620823,56.698948,56,50,41
56.698948,56.777073,58,50,41
56.777073,56.855198,56,50,41
56.855198,56.933323,58,50,41
56.933323,57.011448,56,50,41
57.011448,57.089573,58,50,41
57.089573,57.167698,56,50,41
57.167698,57.245823,55,50,41
57.245823,57.314182,56,50,41
57.323948,57.489964,55,50,41
57.558323,57.67551,58,50,41
57.67551,57.792698,60,50,41
57.792698,57.958714,61,50,41
58.027073,58.19309,58,50,41
58.261448,58.486057,60,50,41
58.730198,58.954807,56,50,41
59.198948,59.277073,53,50,41
59.277073,59.355198,51,50,41
59.355198,59.433323,53,50,41
59.433323,59.511448,51,50,41
59.511448,59.589573,53,50,41
59.589573,59.667698,51,50,41
59.667698,59.745823,53,50,41
59.745823,59.823948,51,50,41
59.823948,59.902073,53,50,41
59.902073,59.980198,51,50,41
59.980198,60.058323,50,50,41
60.058323,60.126682,51,50,41
60.136448,60.361057,51,50,41
60.605198,60.829807,60,50,41
61.073948,61.3058,51,50,41
61.13443,61.366283,63,50,41
61.557816,61.7974,63,55,41
61.620316,61.8599,75,56,41
62.057816,62.314514,60,60,41
62.124783,62.381477,72,70,41
62.593533,64.35832,48,100,41
62.593533,64.35832,55,100,41
64.36809,64.5341,60,95,41
64.60246,64.76848,55,70,41
64.83684,65.00285,52,70,41
64.83684,65.00285,55,70,41
65.07121,65.29582,52,70,41
65.07121,65.29582,55,70,41
66.24309,66.4091,58,57,41
66.47746,66.64348,57,55,41
66.71184,66.87785,69,52,41
66.94621,67.11223,64,50,41
67.18059,67.3466,67,50,41
67.41496,67.58098,67,50,41
67.64934,67.766525,67,50,41
67.766525,67.88371,69,50,41
67.88371,68.04973,65,50,41
68.11809,68.2841,53,50,41
68.35246,68.51848,55,50,41
68.58684,68.75285,48,50,41
68.82121,68.98723,60,50,41
69.05559,69.2216,58,55,41
69.28996,69.45598,57,60,41
69.52434,69.69035,55,65,41
69.75871,69.93008,54,70,41
70.00064,70.17201,53,75,41
70.24258,70.425766,52,80,41
70.5012,70.69796,55,85,41
73.17898,73.34499,60,70,41
73.41335,73.57937,69,70,41
73.64773,73.81374,67,70,41
73.8821,74.04812,60,70,41
74.11648,74.28249,60,70,41
74.35085,74.51687,69,70,41
74.58523,74.75124,67,70,41
74.8196,74.98562,60,70,41
75.05398,75.21999,55,70,41
75.28835,75.45437,69,70,41
75.52273,75.68874,67,70,41
75.7571,75.92312,55,70,41
75.99148,76.15749,55,70,41
76.22585,76.39187,67,70,41
76.46023,76.62624,65,70,41
76.6946,76.86062,55,70,41
76.92898,77.09499,55,70,41
77.16335,77.32937,62,72,41
77.39773,77.56374,60,75,41
77.6321,77.79812,55,77,41
77.86648,78.79421,48,80,41
78.80398,79.51971,53,90,41
79.529785,79.65075,52,98,41
79.65075,79.77172,50,99,41
79.77172,80.52841,55,100,41
80.53957,80.689575,53,78,41
80.689575,80.83958,52,75,41
80.83958,81.07916,57,70,41
81.33958,81.57916,58,75,41
81.83958,82.07916,60,80,41
83.83958,84.07916,60,100,41
83.83958,84.07916,67,100,41
84.33958,84.57916,60,86,41
84.33958,84.57916,69,86,41
84.83958,85.32916,70,70,41
85.83958,86.07916,61,57,41
86.33958,86.57916,63,51,41
86.83958,87.07916,65,50,41
87.21458,87.32916,65,50,41
87.33958,87.57916,65,50,41
87.71458,87.82916,65,50,41
87.83958,88.09177,68,52,41
88.234314,88.35493,70,61,41
88.36589,88.632095,70,64,41
88.79367,88.93117,70,73,41
88.94367,89.18325,56,76,41
89.42805,89.65266,60,88,41
89.8968,90.59016,58,100,41
90.59992,90.82453,51,70,41
90.8343,91.05891,51,50,41
91.30305,91.52766,56,76,41
91.7718,92.46516,55,100,41
92.47492,92.69953,51,100,41
92.7093,92.87531,51,100,41
92.94367,93.10969,51,100,41
93.17805,93.34406,51,100,41
93.41242,93.57844,51,100,41
93.6468,94.57453,51,100,41
94.5843,94.75567,51,100,41
94.82623,94.9976,51,100,41
95.06816,95.30002,51,120,41
95.55203,95.72912,51,100,41
95.80203,95.97912,51,100,41
96.05203,96.60739,51,100,41
96.619896,97.109474,48,70,41
97.119896,98.561424,56,70,41
97.60376,98.561424,49,70,41
98.5715,99.52917,56,70,41
98.5715,99.52917,48,70,41
99.539246,100.4969,58,70,41
99.539246,100.4969,51,70,41
100.50699,100.980774,60,70,41
100.50699,100.980774,51,70,41
100.99086,101.464645,48,70,41
101.474724,102.43239,56,70,41
101.474724,102.43239,49,70,41
102.44247,102.93205,48,70,41
102.44247,102.93205,56,70,41
102.94247,103.43205,72,70,41
103.44247,103.94894,73,70,41
103.95971,104.21641,61,70,41
104.51603,104.69311,60,100,41
104.76603,104.932045,68,100,41
105.000404,105.16642,63,100,41
105.23478,105.400795,72,100,41
105.469154,106.39689,70,100,41
106.406654,106.57267,68,100,41
106.64103,106.807045,53,100,41
106.875404,107.04142,51,100,41
107.10978,107.275795,55,100,41
107.344154,107.515526,56,100,41
107.58609,107.75746,63,100,41
107.828026,108.33472,63,100,41
108.587814,108.66846,65,70,41
108.66846,108.74911,63,70,41
108.74911,108.82975,62,70,41
108.82975,109.00112,63,70,41
109.071686,109.24306,56,70,41
109.55556,109.6362,66,70,41
109.6362,109.71684,65,70,41
109.71684,109.79749,64,70,41
109.79749,109.968864,65,70,41
110.03943,110.2108,56,70,41
110.5233,110.60394,68,75,41
110.60394,110.684586,66,76,41
110.684586,110.765236,65,78,41
110.765236,110.9366,66,80,41
111.007164,111.178535,60,85,41
111.4991,111.582436,70,95,41
111.582436,111.66577,68,97,41
111.66577,111.7491,67,99,41
111.7491,111.938835,68,100,41
112.01696,112.22128,60,90,41
112.55542,112.633545,58,70,41
112.633545,112.71167,56,70,41
112.71167,112.789795,55,70,41
112.789795,112.95581,56,70,41
113.02417,113.190186,49,70,41
113.49292,113.571045,60,70,41
113.571045,113.64917,58,70,41
113.64917,113.727295,57,70,41
113.727295,113.89331,58,70,41
113.96167,114.127686,49,70,41
114.43042,114.508545,63,70,41
114.508545,114.58667,61,70,41
114.58667,114.664795,60,70,41
114.664795,114.83081,61,70,41
114.89917,115.065186,53,70,41
115.37548,115.45612,58,76,41
115.45612,115.53677,56,78,41
115.53677,115.61742,55,80,41
115.61742,115.7945,56,82,41
115.86742,116.05715,44,89,41
116.13528,116.312355,53,50,41
116.38528,116.55129,50,50,41
116.61965,116.78567,65,50,41
116.85403,117.02004,53,50,41
117.0884,117.25442,54,50,41
117.32278,117.48879,58,50,41
117.55715,117.72317,58,50,41
117.79153,117.95754,58,50,41
118.0259,118.19192,58,50,41
118.26028,118.42629,62,50,41
118.49465,118.66067,63,50,41
118.72903,118.89504,63,50,41
118.9634,119.14048,56,60,41
119.2134,119.39048,56,73,41
119.4634,119.6498,56,86,41
119.726555,119.930885,66,100,41
120.015015,120.474,65,70,41
121.65564,121.88025,49,70,41
121.890015,122.114624,58,70,41
122.12439,122.583374,56,70,41
122.59314,122.81775,56,70,41
122.827515,123.520874,66,70,41
123.53064,123.64783,63,70,41
123.64783,123.765015,60,70,41
123.765015,124.69275,61,70,41
125.40564,125.63025,53,70,41
125.640015,125.864624,54,70,41
125.87439,126.333374,53,70,41
126.34314,126.56775,53,70,41
126.577515,127.270874,63,70,41
127.28064,127.39783,60,70,41
127.39783,127.515015,57,70,41
127.515015,127.59314,53,70,41
127.6322,127.71033,58,70,41
127.74939,127.827515,60,70,41
127.86658,127.9447,62,70,41
127.983765,128.06189,63,70,41
128.10095,128.17908,65,70,41
128.21814,128.29626,67,70,41
128.33533,128.41345,69,70,41
128.45251,128.53064,70,70,41
128.5697,128.64783,72,70,41
128.68689,128.76501,74,70,41
128.80408,128.8822,75,70,41
128.92126,129.08728,77,70,41
129.15564,129.32166,68,70,41
129.39001,129.61462,67,70,41
129.62439,130.08337,51,70,41
130.09314,130.31775,51,70,41
130.32751,131.02087,58,70,41
131.03064,131.14783,55,70,41
131.14783,131.26501,51,70,41
131.26501,131.48962,51,70,41
131.49939,131.95837,48,70,41
131.96814,132.42712,48,70,41
132.43689,132.89587,48,70,41
132.90564,133.13025,48,70,41
133.14001,133.21814,49,70,41
133.2572,133.33533,55,70,41
133.37439,133.45251,56,70,41
133.49158,133.5697,58,70,41
133.60876,133.68689,60,70,41
133.72595,133.80408,61,70,41
133.84314,133.92126,63,70,41
133.96033,134.03845,65,70,41
134.07751,134.15816,67,70,41
134.19849,134.27913,68,70,41
134.31946,134.4001,70,70,41
134.44041,134.52107,72,70,41
134.56139,134.73846,73,70,41
134.81139,134.98846,55,70,41
135.06139,135.55096,55,100,41
135.56139,137.55096,61,95,41
137.56139,138.05096,55,95,41
138.06139,138.80096,58,70,41
138.81139,138.93639,56,70,41
138.93639,139.06139,55,70,41
139.06139,139.55096,55,100,41
139.56139,141.55096,61,85,41
141.56139,142.05096,55,70,41
142.06139,143.1414,54,70,41
143.15343,143.62804,53,70,41
143.6378,143.80382,53,70,41
143.87218,144.0382,56,70,41
144.5753,144.74132,53,70,41
144.80968,144.9757,56,70,41
145.5128,145.67882,53,70,41
145.74718,145.9132,56,70,41
146.4503,146.61632,56,70,41
146.68468,146.8507,60,70,41
147.3878,147.55382,49,70,41
147.62218,147.7882,53,70,41
148.3253,148.49132,53,70,41
148.55968,148.7257,61,70,41
149.2628,149.42882,54,70,41
149.49718,149.6632,60,70,41
150.21542,150.3925,56,70,41
150.46542,150.65515,66,70,41
150.73328,151.20789,65,70,41
151.21765,151.67664,49,70,41
151.6864,152.37976,53,70,41
152.38953,152.50671,51,70,41
152.50671,152.6239,49,70,41
152.6239,152.84851,51,70,41
153.09265,153.31726,53,70,41
153.5614,153.78601,54,70,41
154.4989,155.42664,49,70,41
155.4364,156.12976,53,70,41
156.13953,156.25671,51,70,41
156.25671,156.3739,49,70,41
156.3739,156.59851,54,70,41
156.84265,157.06726,54,80,41
157.3114,157.53601,54,90,41
157.78015,158.00476,54,100,41
158.2489,158.70789,53,70,41
158.71765,159.64539,55,80,41
159.65515,160.11414,56,70,41
160.1239,160.28992,56,70,41
160.35828,160.52429,68,75,41
160.59265,160.75867,61,80,41
160.82703,160.90515,60,85,41
160.94421,161.02234,58,88,41
161.0614,161.22742,58,90,41
161.29578,161.46179,63,70,41
161.53015,161.69617,63,70,41
161.76453,161.84265,61,70,41
161.88171,161.95984,60,70,41
161.9989,162.45789,53,70,41
162.46765,162.92664,55,80,41
162.9364,163.2782,51,90,41
163.40515,163.62976,48,70,41
163.8739,164.09851,56,70,41
164.34265,164.56726,55,70,41
164.8114,165.04326,51,70,41
165.29527,165.53485,53,70,41
165.79527,166.01988,54,76,41
166.26402,166.48863,51,83,41
166.73277,166.96463,53,90,41
167.21664,167.45622,53,70,41
167.71664,167.96883,54,70,41
168.24295,168.5194,54,50,41
168.81989,169.21051,53,50,41
173.89131,174.88089,68,110,41
174.89131,175.05733,53,91,41
175.12569,175.2917,54,70,41
175.36006,175.52608,53,70,41
175.59444,175.76045,49,70,41
175.82881,176.05342,54,70,41
176.29756,176.52217,54,70,41
176.76631,176.99092,53,70,41
177.70381,178.1628,53,70,41
178.64131,178.69014,51,70,41
178.6999,178.80733,49,70,41
178.87569,179.0417,48,70,41
179.11006,179.27608,49,70,41
179.34444,179.51045,53,70,41
179.57881,179.80342,51,70,41
180.04756,180.27217,51,70,41
180.51631,180.68233,53,70,41
180.75069,180.9167,54,70,41
180.98506,181.15108,53,70,41
181.21944,181.38545,49,60,41
182.40643,182.58351,51,50,41
182.65643,182.83351,50,50,41
182.90643,183.09616,51,50,41
183.17429,183.36401,54,50,41
183.44214,183.68172,53,110,41
183.94214,184.18172,65,70,41
187.44214,187.68172,60,50,41
187.94214,188.18172,56,50,41
188.44214,188.68172,61,50,41
190.19214,190.31714,69,50,41
190.31714,190.44214,70,70,41
191.19214,191.31714,67,50,41
191.31714,191.43172,68,70,41
191.44214,191.52547,58,50,41
191.52547,191.60881,56,50,41
191.60881,191.69214,58,50,41
191.69214,191.77547,56,50,41
191.77547,191.85881,58,50,41
191.85881,191.94214,56,50,41
191.94214,192.02547,58,50,41
192.02547,192.10881,56,50,41
192.10881,192.19214,58,50,41
192.19214,192.27547,56,50,41
192.27547,192.35881,55,50,41
192.35881,192.43172,56,50,41
192.44214,192.52547,63,50,41
192.52547,192.60881,61,50,41
192.60881,192.69214,63,50,41
192.69214,192.77547,61,50,41
192.77547,192.85881,63,50,41
192.85881,192.94214,61,50,41
192.94214,193.02547,63,50,41
193.02547,193.10881,61,50,41
193.10881,193.19214,63,50,41
193.19214,193.27547,61,50,41
193.27547,193.35881,60,50,41
193.35881,193.43172,61,50,41
193.44214,193.61922,63,50,41
193.69214,193.81714,51,50,41
193.81714,193.94214,53,50,41
193.94214,194.11922,54,50,41
194.19214,194.36922,51,50,41
194.44214,194.68172,53,50,41
194.94214,195.18172,61,50,41
196.44214,196.52547,58,50,41
196.52547,196.60881,56,50,41
196.60881,196.69214,58,50,41
196.69214,196.77547,56,50,41
196.77547,196.85881,58,50,41
196.85881,196.94214,56,50,41
196.94214,197.02547,58,50,41
197.02547,197.10881,56,50,41
197.10881,197.19214,58,50,41
197.19214,197.27547,56,50,41
197.27547,197.35881,55,50,41
197.35881,197.43172,56,50,41
197.44214,197.55672,56,50,41
197.50464,197.74422,68,50,41
197.94214,198.06491,56,50,41
198.00911,198.26581,68,50,41
198.47786,198.61536,53,50,41
198.55286,198.84035,65,50,41
199.07785,200.83997,65,110,41
199.07785,200.83997,72,110,41
200.84973,201.01575,65,91,41
201.0841,201.25012,60,70,41
201.31848,201.4845,57,70,41
201.55286,201.71887,69,70,41
201.78723,201.95325,58,68,41
202.0216,202.18762,57,65,41
202.25598,202.422,60,63,41
202.49036,202.65637,70,60,41
202.72473,202.89075,65,57,41
202.72473,202.89075,74,57,41
202.9591,203.12512,65,55,41
202.9591,203.12512,74,55,41
203.19348,203.3595,65,52,41
203.19348,203.3595,74,52,41
203.42786,203.59387,69,50,41
203.42786,203.59387,65,50,41
203.66223,203.82825,57,50,41
203.8966,204.06262,65,50,41
204.13098,204.297,69,50,41
204.13098,204.297,65,50,41
204.36536,204.53137,65,50,41
204.36536,204.53137,70,50,41
204.59973,204.76575,58,50,41
204.8341,205.00548,60,50,41
205.07603,205.2474,65,50,41
205.31798,205.48935,65,50,41
205.5599,205.73128,63,56,41
205.80185,205.97322,62,62,41
206.04378,206.21515,60,69,41
206.28572,206.4628,59,75,41
206.53572,206.7128,58,81,41
206.78572,206.97545,58,88,41
207.05357,207.26607,60,94,41
209.75357,209.93065,65,70,41
210.00357,210.16959,74,70,41
210.23795,210.40396,72,70,41
210.47232,210.63834,65,70,41
210.7067,210.87271,65,70,41
210.94107,211.10709,74,70,41
211.17545,211.34146,72,70,41
211.40982,211.57584,65,70,41
211.6442,211.81021,60,70,41
211.87857,212.04459,74,70,41
212.11295,212.27896,72,70,41
212.34732,212.51334,60,70,41
212.5817,212.74771,60,70,41
212.81607,212.98209,74,70,41
213.05045,213.21646,72,70,41
213.28482,213.45084,60,70,41
213.5192,213.68521,60,70,41
213.75357,213.91959,74,72,41
213.98795,214.15396,72,75,41
214.22232,214.38834,60,77,41
214.4567,215.38443,65,80,41
215.3942,216.08755,70,90,41
216.09732,216.21451,69,98,41
216.21451,216.3317,67,99,41
216.3317,217.08032,72,100,41
217.09149,217.24149,70,70,41
217.24149,217.3915,69,70,41
217.3915,217.63107,70,70,41
217.87587,218.10048,72,75,41
218.34462,219.03798,65,80,41
219.04774,219.16493,63,88,41
219.16493,219.28212,62,89,41
219.28212,219.50673,63,90,41
219.75087,219.97548,58,95,41
220.21962,220.44423,60,100,41
220.68837,220.91298,62,83,41
221.15712,221.38173,63,70,41
221.50868,221.6161,63,65,41
221.62587,221.85048,63,63,41
221.97743,222.08485,63,57,41
222.09462,222.31923,63,55,41
222.56337,222.78798,65,50,41
223.03212,223.26398,66,50,41
223.39502,223.5059,63,50,41
223.51599,223.74783,63,50,41
223.87889,223.98978,63,50,41
223.99986,224.23944,63,50,41
224.37486,224.48944,63,60,41
224.37486,224.48944,73,60,41
224.49986,224.75655,73,68,41
224.49986,224.75655,63,68,41
224.91771,225.0552,73,92,41
224.91771,225.0552,65,92,41
225.06772,225.3073,65,100,41
225.5521,225.7767,65,100,41
226.02084,226.7142,63,100,41
226.72397,226.94858,56,100,41
226.95834,227.18295,56,100,41
227.4271,227.6517,61,100,41
227.89584,228.5892,60,100,41
228.59897,228.82358,56,100,41
228.83334,228.99936,54,100,41
229.06772,229.23373,68,100,41
229.3021,229.46811,66,100,41
229.53647,229.70248,73,100,41
229.77084,230.69858,72,100,41
230.70834,230.87436,68,100,41
230.94272,231.10873,61,100,41
231.1771,231.4017,66,120,41
231.64584,231.81721,65,100,41
231.88777,232.05914,49,93,41
232.12971,232.3068,60,85,41
232.37971,232.56944,56,77,41
232.64757,233.61752,56,70,41
233.62761,234.58527,54,70,41
234.59535,235.55301,56,70,41
235.5631,236.52075,56,70,41
235.5631,236.52075,66,70,41
236.53084,237.4885,56,70,41
236.53084,237.4885,65,70,41
237.49857,238.45624,54,70,41
238.46631,239.42398,49,70,41
239.43405,239.66591,48,70,41
239.91792,240.14978,66,70,41
240.4018,240.57317,53,70,41
240.64374,240.81511,56,70,41
240.88567,241.05704,53,70,41
241.1276,241.29897,61,70,41
241.36954,242.3272,59,75,41
242.33728,242.50865,58,95,41
242.57921,242.75058,58,100,41
242.82115,243.05301,59,85,41
243.30502,243.4764,58,70,41
243.54695,243.71832,61,80,41
243.7889,244.26268,61,90,41
244.27277,244.50461,61,70,41
244.5147,244.98848,54,70,41
244.99857,245.23042,54,70,41
245.2405,245.47235,56,70,41
245.48244,245.95622,54,70,41
245.96631,246.19817,54,70,41
246.20824,246.4401,56,70,41
246.45018,246.92397,54,70,41
246.93405,247.16591,54,70,41
247.17598,247.89171,59,70,41
247.9018,248.02275,56,70,41
248.02275,248.14372,53,70,41
248.14372,248.37558,66,70,41
248.38567,248.46631,68,70,41
248.46631,248.54695,66,70,41
248.54695,248.6276,65,70,41
248.6276,248.79897,66,70,41
248.86952,249.0409,58,70,41
249.36147,249.4448,65,70,41
249.4448,249.52814,63,70,41
249.52814,249.61147,62,70,41
249.61147,249.79465,63,70,41
249.87009,250.05327,54,70,41
250.39656,250.48586,63,70,41
250.48586,250.57513,61,70,41
250.57513,250.66441,60,70,41
250.66441,250.86874,61,70,41
250.95288,251.17424,49,70,41
251.26538,252.36491,61,70,41
258.66705,259.12604,51,70,41
259.1358,260.06354,53,80,41
260.0733,260.5323,54,70,41
260.54205,261.4698,59,70,41
261.47955,261.70416,58,90,41
261.9483,262.1879,58,70,41
262.4483,262.70502,56,50,41
262.98404,263.27155,56,50,41
263.58405,263.84073,58,50,41
268.65546,269.14505,55,50,41
269.3221,269.4367,64,50,41
269.4888,269.60336,58,50,41
269.65546,270.14505,57,50,41
270.3221,270.4367,63,50,41
270.4888,270.60336,57,50,41
270.65546,271.14505,56,50,41
271.3221,271.4367,62,50,41
271.4888,271.60336,56,50,41
271.65546,272.16193,55,50,41
272.35126,272.47662,64,50,41
272.5367,272.6689,55,50,41
272.729,273.2186,52,50,41
272.729,273.2186,55,50,41
273.3957,273.51025,61,50,41
273.56235,273.67694,55,50,41
274.3957,274.51025,61,50,41
274.56235,274.67694,55,50,41
275.3957,275.51025,61,64,41
275.56235,275.67694,55,68,41
276.44052,276.57062,61,86,41
276.63312,276.7706,55,89,41
276.8331,277.79077,64,100,41
277.80084,279.24237,52,94,41
279.25247,279.72626,61,70,41
279.73633,280.45206,64,70,41
280.46213,280.5831,62,70,41
280.5831,280.70407,61,70,41
280.70407,281.66174,64,100,41
281.6718,282.6295,52,70,41
282.63956,283.11334,51,70,41
283.12344,283.59723,63,70,41
283.6073,284.32303,66,70,41
284.3331,284.45407,65,70,41
284.45407,284.57504,63,70,41
284.57504,285.5327,72,100,41
285.5428,286.9843,60,94,41
286.9944,287.46817,72,70,41
287.47827,288.194,75,60,41
288.20407,288.32504,73,60,41
288.32504,288.446,72,60,41
288.446,289.40366,65,60,41
289.41376,290.12946,68,60,41
290.13956,290.26053,67,60,41
290.26053,290.3815,65,60,41
290.3815,291.33914,70,60,41
291.3492,292.06494,73,60,41
292.07504,292.196,72,60,41
292.196,292.31696,70,60,41
292.31696,293.27463,63,60,41
293.2847,294.00043,66,60,41
294.01053,294.13147,65,60,41
294.13147,294.25244,63,55,41
294.25244,295.2101,68,50,41
295.22018,295.9359,71,50,41
295.94598,296.06696,70,50,41
296.06696,296.17786,68,50,41
296.18793,296.6617,68,50,41
296.6718,297.1456,66,50,41
297.15567,297.8714,70,50,41
297.88147,298.00244,68,50,41
298.00244,298.11334,66,50,41
298.1234,298.5972,66,50,41
298.60727,299.0811,65,50,41
299.09116,299.8746,56,68,41
299.88617,300.03616,54,96,41
300.03616,300.1862,53,100,41
300.1862,300.42575,63,100,41
300.67056,300.89517,60,100,41
301.1393,301.30533,61,100,41
301.3737,301.5397,65,90,41
301.60806,301.77408,61,80,41
301.84244,302.00845,68,70,41
302.0768,303.23892,68,100,41
303.2487,303.4147,68,90,41
303.48306,303.64908,53,80,41
303.71744,303.88345,56,70,41
303.9518,304.17642,58,70,41
304.42056,304.64517,61,70,41
304.8893,305.11392,56,70,41
305.35806,305.58267,56,70,41
305.8268,306.05142,58,70,41
306.29556,306.52017,58,70,41
306.7643,306.99615,70,70,41
307.24817,307.48776,63,70,41
307.76602,307.93204,53,50,41
308.0004,308.1664,65,55,41
308.23477,308.4008,61,61,41
308.46915,308.63516,65,67,41
308.70352,309.39688,60,73,41
309.40665,309.57266,56,90,41
309.64102,309.80704,56,90,41
309.8754,310.0414,70,80,41
310.10977,310.2758,68,70,41
310.34415,310.51016,72,60,41
310.57852,310.7499,73,90,41
310.82047,310.99182,65,80,41
311.0624,311.30197,66,70,41
311.58026,312.03925,65,50,41
315.33026,315.55487,62,50,41
315.799,316.02362,63,50,41
316.26776,316.49237,60,50,41
316.7365,316.96112,61,50,41
317.20526,317.42987,58,50,41
317.674,317.89862,60,50,41
318.14276,318.36737,61,50,41
318.6115,318.83612,62,50,41
319.31464,319.48065,58,50,41
319.549,320.24237,54,50,41
320.25214,320.41815,58,50,41
320.4865,321.17987,54,50,41
321.18964,321.35565,58,50,41
321.424,322.11737,54,50,41
322.12714,322.29315,58,50,41
322.3615,322.8205,54,50,41
322.83026,322.99628,53,50,41
323.06464,323.23065,65,50,41
323.5334,323.6994,63,50,41
324.00214,324.16815,63,50,41
324.4709,324.6369,61,50,41
324.93964,325.10565,61,50,41
325.4084,325.5744,56,50,41
325.87714,326.04315,56,50,41
326.1115,326.27753,56,50,41
326.3459,326.5119,61,50,41
326.58026,326.80487,61,70,41
327.049,327.27362,61,77,41
327.51776,327.74237,60,84,41
327.9865,328.21112,59,92,41
328.45526,328.91425,58,95,41
328.924,329.3978,56,88,41
329.40787,329.64746,54,81,41
329.65787,329.83496,56,78,41
329.90787,330.0976,56,74,41
330.17572,330.38007,56,71,41
330.4642,331.42184,56,70,41
331.43195,332.3896,58,70,41
332.3997,333.35733,56,70,41
333.3674,334.32507,48,70,41
333.3674,334.32507,56,70,41
334.33514,334.4158,49,60,41
334.33514,334.4158,56,60,41
334.45612,334.53677,49,60,41
334.5771,334.65775,51,60,41
334.69806,334.77872,53,60,41
334.81903,334.89966,54,60,41
334.94,335.02063,56,60,41
335.06097,335.1416,58,60,41
335.18192,335.26257,60,60,41
335.3029,335.38354,61,60,41
335.42386,335.50452,63,60,41
335.54483,335.6255,65,60,41
335.6658,335.74646,66,60,41
335.78677,335.95813,68,60,41
336.02872,336.20007,59,60,41
336.27063,337.2283,54,60,41
337.23837,338.29373,53,60,41
338.30624,338.40625,53,50,41
338.45624,338.54883,53,50,41
338.59512,338.68134,53,50,41
338.72443,338.81064,53,50,41
338.85376,338.9344,53,50,41
338.9747,339.05536,53,50,41
339.09567,339.17633,53,50,41
339.21664,339.2973,53,50,41
339.33762,339.41827,53,50,41
339.4586,339.5392,53,50,41
339.57956,339.6602,53,50,41
339.70053,339.78116,53,50,41
339.82147,339.90213,53,50,41
339.94244,340.0231,53,50,41
340.06342,340.14407,53,50,41
340.1844,340.26505,53,50,41
340.30536,340.38602,53,50,41
340.42633,340.50696,56,50,41
340.5473,340.62793,56,50,41
340.66827,340.7489,56,50,41
340.7892,340.86987,56,50,41
340.9102,340.99084,56,50,41
341.03116,341.11182,56,50,41
341.15213,341.2328,56,50,41
341.2731,341.35373,56,50,41
341.39407,341.4747,56,50,41
341.51505,341.59567,56,51,41
341.636,341.71664,56,52,41
341.75696,341.8578,54,53,41
341.87793,341.97873,54,54,41
341.9989,342.0997,54,55,41
342.11987,342.22067,54,56,41
342.24084,342.34164,51,56,41
342.36182,342.46262,51,57,41
342.4828,342.5836,51,58,41
342.60373,342.70456,51,59,41
342.7247,342.8289,49,60,41
342.8497,342.9539,49,61,41
342.9747,343.0789,49,62,41
343.0997,343.2039,49,63,41
343.2247,343.33246,51,63,41
343.35403,343.4618,51,64,41
343.48334,343.5911,53,65,41
343.61264,343.7204,53,66,41
343.74194,343.85355,51,67,41
343.8759,343.9875,51,68,41
344.0098,344.12555,63,69,41
344.1487,344.2737,63,70,41
344.2987,344.5112,65,70,41
344.8987,345.1862,51,50,41
346.3987,346.4987,49,90,41
346.4987,346.5987,56,96,41
346.5987,346.6987,65,103,41
346.6987,347.8862,49,110,41
0.0,0.22460938,49,1,42
4.797234,6.7249684,36,100,42
6.734734,7.4743176,39,97,42
7.484734,7.618663,37,70,42
7.618663,7.768663,36,70,42
7.768663,7.945746,37,70,42
8.018662,8.184678,46,70,42
8.253037,8.419053,44,70,42
8.487412,8.653428,41,70,42
8.721787,8.887803,37,70,42
8.956162,9.122178,46,70,42
9.190537,9.356553,44,70,42
9.424912,9.590928,41,70,42
9.659287,9.825303,36,70,42
9.893662,10.059678,46,70,42
10.128037,10.294053,44,70,42
10.362412,10.528428,37,70,42
10.596787,10.762803,39,70,42
10.831162,10.997178,46,70,42
11.065537,11.231553,44,70,42
11.299912,11.465928,39,70,42
11.534287,11.700303,37,70,42
11.768662,11.934678,46,70,42
12.003037,12.169053,44,70,42
12.237412,12.403428,41,70,42
12.471787,12.637803,41,70,42
12.706162,12.872178,51,70,42
12.940537,13.106553,49,70,42
13.174912,13.340928,44,70,42
13.409287,13.575303,42,70,42
13.643662,13.809678,54,70,42
13.878037,14.044053,51,70,42
14.112412,14.278428,44,70,42
14.346787,14.512803,44,70,42
14.581162,14.747178,56,70,42
14.815537,14.981553,56,70,42
15.049912,15.215928,44,70,42
15.284287,15.508897,37,70,42
16.456163,16.622179,46,70,42
16.690538,16.856554,44,70,42
16.924913,17.090929,37,70,42
17.159288,17.383898,36,70,42
18.331163,18.497179,46,70,42
18.565538,18.731554,44,70,42
18.799913,18.965929,39,70,42
19.034288,19.258898,37,70,42
20.206163,20.372179,51,70,42
20.440538,20.606554,49,70,42
20.674913,20.840929,44,70,42
20.909288,21.133898,42,70,42
22.111908,22.288992,58,95,42
22.361908,22.55164,56,100,42
22.629765,22.842266,48,85,42
22.929766,23.106848,46,70,42
23.179766,23.345781,56,78,42
23.41414,23.580156,55,87,42
23.648516,23.814531,46,96,42
23.88289,24.048906,48,70,42
24.117266,24.283281,53,70,42
24.35164,24.517656,51,70,42
24.586016,24.752031,48,70,42
24.82039,24.986406,46,70,42
25.054766,25.220781,56,78,42
25.28914,25.455156,55,87,42
25.523516,25.689531,46,96,42
25.75789,25.923906,48,70,42
25.992266,26.158281,53,70,42
26.22664,26.392656,51,70,42
26.461016,26.627031,48,70,42
26.69539,26.861406,46,70,42
26.929766,27.095781,56,77,42
27.16414,27.330156,55,85,42
27.398516,27.564531,46,93,42
27.63289,27.798906,48,100,42
27.867266,28.033281,53,70,42
28.10164,28.267656,51,70,42
28.336016,28.502031,48,70,42
28.57039,28.736406,49,70,42
28.804766,28.970781,53,70,42
29.03914,29.205156,51,70,42
29.273516,29.439531,39,70,42
29.50789,29.67926,44,70,42
29.749826,29.921196,56,70,42
29.99176,30.17495,50,70,42
30.250381,30.43357,38,70,42
30.509003,30.675018,39,70,42
30.743378,30.909393,54,70,42
30.977753,31.143768,48,70,42
31.212128,31.378143,36,70,42
31.446503,31.612518,37,70,42
31.680878,31.846893,56,70,42
31.915253,32.086624,53,70,42
32.15719,32.328556,41,70,42
32.399124,32.576206,42,70,42
32.649124,32.826206,58,70,42
32.899124,33.088856,46,50,42
33.16698,33.356712,44,50,42
33.434837,33.95939,49,50,42
40.131264,40.20939,41,70,42
40.20939,40.36564,39,70,42
40.36564,40.531654,38,70,42
40.600014,40.76603,39,70,42
40.83439,41.000404,43,70,42
41.068764,41.300617,44,70,42
43.94549,44.023617,65,70,42
44.023617,44.179867,63,70,42
44.179867,44.345882,62,70,42
44.41424,44.580257,63,70,42
44.648617,44.814632,67,70,42
44.88299,45.114845,68,70,42
45.88472,45.943314,42,50,42
45.943314,46.050735,41,50,42
46.119095,46.28511,40,50,42
46.35347,46.519485,41,50,42
46.587845,46.75386,45,50,42
46.82222,47.054073,46,50,42
47.823948,48.06353,44,100,42
48.323948,48.56353,56,50,42
49.073948,49.198948,36,50,42
49.198948,49.323948,37,50,42
49.323948,49.50103,39,50,42
49.573948,49.75103,36,50,42
49.823948,50.517307,41,50,42
50.527073,50.751682,46,50,42
50.761448,51.454807,39,50,42
51.464573,51.689182,44,50,42
52.167698,52.392307,43,50,42
52.636448,52.861057,44,50,42
53.105198,53.329807,36,50,42
54.277073,54.39426,49,50,42
54.39426,54.511448,53,50,42
54.511448,54.736057,48,50,42
55.214573,55.33176,48,50,42
55.33176,55.448948,51,50,42
55.448948,55.673557,37,50,42
55.917698,56.142307,39,50,42
56.386448,56.611057,36,50,42
56.855198,57.079807,39,50,42
57.323948,57.548557,37,50,42
57.792698,58.017307,43,50,42
58.261448,58.486057,44,50,42
58.730198,58.954807,48,50,42
58.964573,59.08176,43,50,42
59.08176,59.198948,44,50,42
59.198948,59.364964,46,50,42
59.433323,59.55051,43,50,42
59.55051,59.667698,44,50,42
59.667698,59.833714,46,50,42
59.902073,60.06809,43,50,42
60.136448,60.361057,44,50,42
60.605198,60.829807,39,50,42
61.073948,61.24532,46,50,42
61.315884,61.43685,58,52,42
61.43685,61.557816,60,54,42
61.557816,61.7349,61,55,42
61.807816,61.9849,58,58,42
62.057816,62.314514,56,60,42
62.593533,64.82707,40,100,42
64.83684,65.00285,48,91,42
65.07121,65.23723,36,70,42
65.30559,65.4716,50,68,42
65.53996,65.70598,48,65,42
65.77434,65.94035,52,63,42
66.00871,66.17473,53,60,42
66.24309,66.4091,50,57,42
66.47746,66.64348,48,55,42
66.71184,66.87785,53,52,42
66.94621,67.11223,55,50,42
67.18059,67.3466,50,50,42
67.41496,67.58098,48,50,42
67.64934,67.81535,52,50,42
67.88371,68.04973,53,50,42
68.11809,68.2841,50,50,42
68.35246,68.51848,48,50,42
68.58684,68.75285,40,50,42
68.82121,68.98723,41,50,42
69.05559,69.2216,43,55,42
69.28996,69.45598,45,60,42
69.52434,69.69035,46,65,42
69.75871,69.93008,46,70,42
70.00064,70.17201,47,75,42
70.24258,70.425766,48,80,42
70.5012,70.69796,48,85,42
73.64773,74.10671,48,70,42
74.58523,75.04421,48,70,42
75.52273,75.98171,43,70,42
76.46023,76.91921,43,70,42
77.339134,77.39773,47,74,42
77.39773,77.85671,48,75,42
78.276634,78.33523,38,84,42
78.33523,78.79421,36,85,42
79.22736,79.28785,47,95,42
79.28785,79.761635,48,95,42
80.20922,80.27172,59,88,42
80.27172,80.82708,60,86,42
80.83958,81.82916,41,70,42
81.83958,82.57916,45,80,42
82.58958,82.71458,43,88,42
82.71458,82.83958,41,89,42
82.83958,83.07916,43,90,42
83.33958,83.57916,45,95,42
83.83958,84.07916,46,100,42
84.83958,85.07916,46,70,42
85.33958,85.57916,48,64,42
85.83958,86.07916,49,57,42
86.83958,87.07916,49,50,42
87.33958,87.57916,51,50,42
87.83958,88.09177,53,52,42
88.234314,88.35493,41,61,42
88.36589,88.632095,53,64,42
88.79367,88.93117,53,73,42
88.94367,89.18325,51,76,42
89.42805,90.12141,51,88,42
90.13117,90.29719,41,70,42
90.36555,90.53156,39,70,42
90.59992,90.76594,43,70,42
90.8343,91.05891,44,50,42
91.30305,91.99641,51,76,42
92.00617,92.17219,41,100,42
92.24055,92.40656,39,100,42
92.47492,92.64094,43,100,42
92.7093,92.87531,44,100,42
92.94367,93.10969,48,100,42
93.17805,93.34406,44,100,42
93.41242,93.57844,51,100,42
93.6468,94.57453,49,100,42
94.5843,94.75567,48,100,42
94.82623,94.9976,41,100,42
95.06816,95.23953,39,120,42
95.3101,95.48147,43,100,42
95.55203,95.72912,44,100,42
95.80203,95.97912,48,100,42
96.05203,96.60739,49,100,42
96.619896,97.109474,48,70,42
97.119896,97.351746,56,70,42
97.361824,97.59368,63,70,42
97.60376,98.07755,49,70,42
98.08763,98.31949,56,70,42
98.32957,98.561424,65,70,42
98.5715,99.045296,48,70,42
99.055374,99.28723,56,70,42
99.29731,99.52917,63,70,42
99.539246,100.01303,46,70,42
100.02312,100.25497,51,70,42
100.26505,100.4969,61,70,42
100.50699,100.980774,44,70,42
100.99086,101.22271,51,70,42
101.23279,101.464645,56,70,42
101.474724,101.94852,37,70,42
101.958595,102.19045,49,70,42
102.20053,102.43239,53,70,42
102.44247,102.93205,39,70,42
102.94247,103.18205,44,70,42
103.19247,103.43205,51,70,42
103.44247,103.94894,39,70,42
103.95971,104.21641,43,70,42
104.22756,104.504005,51,70,42
104.51603,104.69311,51,100,42
104.76603,104.932045,60,100,42
105.000404,105.16642,56,100,42
105.23478,105.400795,63,100,42
105.469154,106.39689,61,100,42
106.406654,106.57267,60,100,42
106.64103,106.807045,60,100,42
106.875404,107.10001,61,100,42
107.344154,107.515526,60,100,42
107.58609,107.75746,56,100,42
107.828026,108.33472,58,100,42
108.34588,108.81967,48,70,42
108.82975,109.06161,56,70,42
109.071686,109.30354,63,70,42
109.31362,109.78741,49,70,42
109.79749,110.02934,56,70,42
110.03943,110.27128,65,70,42
110.281364,110.75515,51,70,42
110.765236,110.997086,56,80,42
111.007164,111.23902,66,85,42
111.2491,111.738686,51,90,42
111.7491,112.0058,56,100,42
112.01696,112.2934,66,90,42
112.30542,112.78003,41,70,42
112.789795,113.014404,49,70,42
113.02417,113.24878,56,70,42
113.258545,113.71753,42,70,42
113.727295,113.951904,49,70,42
113.96167,114.18628,58,70,42
114.196045,114.65503,44,70,42
114.664795,114.889404,53,70,42
114.89917,115.12378,61,70,42
115.133545,115.60734,44,70,42
115.61742,115.857,51,82,42
115.86742,116.124115,60,89,42
116.13528,116.312355,44,50,42
116.38528,116.55129,41,50,42
116.61965,116.78567,44,50,42
116.85403,117.02004,38,50,42
117.0884,117.25442,39,50,42
117.32278,117.48879,51,50,42
117.55715,117.72317,46,50,42
117.79153,117.95754,51,50,42
118.0259,118.19192,50,50,42
118.26028,118.42629,46,50,42
118.49465,118.66067,51,50,42
118.72903,118.89504,48,50,42
118.9634,119.14048,49,60,42
119.2134,119.39048,37,73,42
119.4634,119.6498,39,86,42
119.726555,119.930885,39,100,42
120.015015,120.18103,37,70,42
120.24939,120.415405,56,70,42
120.483765,120.64978,53,70,42
120.71814,120.884155,56,70,42
120.952515,121.11853,51,70,42
121.18689,121.352905,56,70,42
121.421265,121.58728,49,70,42
121.65564,121.821655,56,70,42
121.890015,122.05603,48,70,42
122.12439,122.290405,56,70,42
122.358765,122.52478,46,70,42
122.59314,122.759155,56,70,42
122.827515,122.99353,44,70,42
123.06189,123.227905,56,70,42
123.296265,123.46228,44,70,42
123.53064,123.696655,56,70,42
123.765015,123.989624,49,70,42
123.99939,124.458374,41,70,42
124.46814,124.69275,41,70,42
124.702515,124.927124,42,70,42
124.93689,125.395874,41,70,42
125.40564,125.63025,41,70,42
125.640015,125.864624,42,70,42
125.87439,126.333374,41,70,42
126.34314,126.56775,41,70,42
126.577515,127.270874,51,70,42
127.28064,127.39783,48,70,42
127.39783,127.515015,45,70,42
127.515015,127.739624,47,70,42
127.74939,128.20837,46,70,42
128.21814,128.67712,46,70,42
128.68689,129.14587,46,70,42
129.15564,129.38025,46,70,42
129.39001,129.849,51,70,42
129.85876,130.31775,39,70,42
130.79626,131.25525,37,70,42
131.26501,131.48962,36,70,42
131.49939,131.95837,56,70,42
131.96814,132.19275,56,70,42
132.20251,132.42712,58,70,42
132.43689,132.89587,56,70,42
132.90564,133.13025,56,70,42
133.14001,133.21814,51,70,42
133.2572,133.33533,39,70,42
133.37439,133.45251,41,70,42
133.49158,133.5697,43,70,42
133.60876,133.68689,44,70,42
133.72595,133.80408,46,70,42
133.84314,133.92126,48,70,42
133.96033,134.03845,49,70,42
134.07751,134.15816,51,70,42
134.19849,134.27913,53,70,42
134.31946,134.4001,55,70,42
134.44041,134.52107,56,70,42
134.56139,134.73846,58,70,42
134.81139,134.98846,39,70,42
135.06139,137.05096,41,100,42
137.06139,137.55096,39,91,42
139.06139,141.05096,40,100,42
141.06139,143.1414,39,92,42
143.15343,143.3305,37,70,42
143.40343,143.56944,46,70,42
143.6378,143.80382,44,70,42
143.87218,143.9503,42,70,42
143.98936,144.06749,41,70,42
144.10655,144.27257,37,70,42
144.34093,144.50694,46,70,42
144.5753,144.74132,44,70,42
144.80968,144.8878,42,70,42
144.92686,145.00499,41,70,42
145.04405,145.21007,36,70,42
145.27843,145.44444,46,70,42
145.5128,145.67882,44,70,42
145.74718,145.8253,39,70,42
145.86436,145.94249,38,70,42
145.98155,146.14757,39,70,42
146.21593,146.38194,48,70,42
146.4503,146.61632,44,70,42
146.68468,146.7628,41,70,42
146.80186,146.87999,39,70,42
146.91905,147.08507,37,70,42
147.15343,147.31944,46,70,42
147.3878,147.55382,44,70,42
147.62218,147.7003,42,70,42
147.73936,147.81749,41,70,42
147.85655,148.02257,41,70,42
148.09093,148.25694,51,70,42
148.3253,148.49132,49,70,42
148.55968,148.6378,46,70,42
148.67686,148.75499,44,70,42
148.79405,148.96007,42,70,42
149.02843,149.19444,53,70,42
149.2628,149.42882,51,70,42
149.49718,149.5753,46,70,42
149.61436,149.69249,44,70,42
149.73155,149.90292,46,70,42
149.97348,150.14485,56,70,42
150.21542,150.3925,54,70,42
150.46542,150.5547,49,70,42
150.59935,150.68863,48,70,42
150.73328,151.67664,37,70,42
151.6864,152.37976,41,70,42
152.38953,152.50671,39,70,42
152.50671,152.6239,37,70,42
152.6239,152.84851,39,70,42
153.09265,153.31726,41,70,42
153.5614,153.78601,42,70,42
154.4989,154.66492,37,70,42
154.73328,154.89929,46,70,42
154.96765,155.13367,44,70,42
155.20203,155.28015,42,70,42
155.31921,155.39734,41,70,42
155.4364,155.60242,41,70,42
155.67078,155.83679,51,70,42
155.90515,156.07117,49,70,42
156.13953,156.21765,46,70,42
156.25671,156.33484,44,70,42
156.3739,156.53992,42,70,42
156.60828,156.77429,53,75,42
156.84265,157.00867,51,80,42
157.07703,157.15515,46,85,42
157.19421,157.27234,44,87,42
157.3114,157.47742,46,90,42
157.54578,157.71179,56,95,42
157.78015,157.94617,54,100,42
158.01453,158.09265,49,90,42
158.13171,158.20984,48,80,42
158.2489,158.41492,46,70,42
158.48328,158.64929,56,75,42
158.71765,158.88367,55,80,42
158.95203,159.03015,48,85,42
159.06921,159.14734,46,88,42
159.1864,159.35242,48,90,42
159.42078,159.58679,53,70,42
159.65515,159.82117,51,70,42
159.88953,159.96765,49,70,42
160.00671,160.08484,48,70,42
160.1239,160.58289,41,70,42
160.59265,161.52039,43,80,42
161.53015,161.75476,44,70,42
161.76453,161.98914,56,70,42
161.9989,162.16492,46,70,42
162.23328,162.39929,56,75,42
162.46765,162.63367,55,80,42
162.70203,162.78015,48,85,42
162.81921,162.89734,46,88,42
162.9364,163.10242,48,90,42
163.17078,163.33679,53,70,42
163.40515,163.57117,51,70,42
163.63953,163.71765,49,70,42
163.75671,163.83484,48,70,42
163.8739,164.03992,49,70,42
164.10828,164.27429,53,70,42
164.34265,164.50867,51,70,42
164.57703,164.65515,41,70,42
164.69421,164.77234,39,70,42
164.8114,164.98277,44,70,42
165.05333,165.2247,56,70,42
165.29527,165.47235,50,70,42
165.54527,165.6286,39,73,42
165.67027,165.7536,38,75,42
165.79527,165.96129,39,76,42
166.02965,166.19566,51,80,42
166.26402,166.43004,48,83,42
166.4984,166.57652,37,87,42
166.61559,166.69371,36,89,42
166.73277,166.90414,37,90,42
166.9747,167.14607,56,80,42
167.21664,167.39372,53,70,42
167.46664,167.54997,42,70,42
167.59164,167.67497,41,70,42
167.71664,167.90305,42,70,42
167.9798,168.1662,54,60,42
168.24295,168.44728,51,50,42
168.53142,168.62756,46,50,42
168.67564,168.7718,44,50,42
168.81989,169.21051,49,50,42
173.89131,173.95381,58,110,42
173.95381,174.06839,56,90,42
174.14131,174.31839,55,70,42
174.39131,174.56839,56,70,42
174.64131,174.81839,61,70,42
174.89131,174.9499,66,70,42
174.9499,175.05733,65,70,42
175.12569,175.2917,63,70,42
175.36006,175.52608,65,70,42
175.59444,175.76045,68,70,42
175.82881,176.05342,68,70,42
176.29756,176.75655,44,70,42
176.76631,176.8249,51,70,42
176.8249,176.93233,49,70,42
177.00069,177.1667,48,70,42
177.23506,177.40108,49,70,42
177.46944,177.63545,53,70,42
177.70381,178.1628,37,70,42
178.64131,178.80733,41,70,42
178.87569,179.0417,42,70,42
179.11006,179.27608,41,70,42
179.34444,179.51045,37,70,42
179.57881,179.80342,44,70,42
180.04756,180.27217,44,70,42
180.51631,180.68233,49,70,42
180.75069,180.9167,51,70,42
180.98506,181.15108,49,70,42
181.21944,181.38545,37,60,42
181.45381,181.67842,65,50,42
181.92256,182.1544,65,50,42
182.40643,182.46893,65,50,42
182.46893,182.58351,63,50,42
182.65643,182.83351,62,50,42
182.90643,183.09616,63,50,42
183.17429,183.36401,66,50,42
183.44214,183.68172,49,110,42
183.94214,184.18172,61,70,42
184.69214,184.81714,41,70,42
184.81714,184.94214,42,70,42
184.94214,185.11922,44,70,42
185.19214,185.36922,41,70,42
185.44214,186.18172,46,90,42
186.19214,186.43172,51,90,42
186.44214,187.18172,44,90,42
187.19214,187.43172,49,60,42
187.94214,188.18172,60,50,42
188.44214,188.68172,61,50,42
188.94214,189.18172,49,50,42
189.94214,190.93172,42,50,42
190.94214,191.43172,41,50,42
191.19214,191.43172,42,50,42
191.69214,191.93172,44,50,42
192.44214,192.68172,41,50,42
192.94214,193.18172,44,50,42
193.44214,193.68172,42,50,42
193.94214,194.18172,48,50,42
194.44214,194.68172,49,50,42
194.94214,195.18172,53,50,42
195.44214,195.61922,51,50,42
195.69214,195.81714,48,50,42
195.81714,195.94214,49,50,42
195.94214,196.11922,51,50,42
196.19214,196.36922,48,50,42
196.44214,196.68172,49,50,42
196.94214,197.18172,44,50,42
197.44214,197.61922,51,50,42
197.94214,198.13187,66,50,42
198.20999,198.39973,63,50,42
198.47786,198.76535,61,50,42
199.07785,201.30872,45,110,42
199.07785,201.30872,53,110,42
201.31848,201.4845,53,70,42
201.55286,201.71887,41,70,42
201.78723,201.95325,55,68,42
202.0216,202.18762,53,65,42
202.25598,202.422,57,63,42
202.49036,202.65637,58,60,42
202.72473,202.89075,55,57,42
202.9591,203.12512,53,55,42
203.19348,203.3595,59,52,42
203.42786,203.59387,60,50,42
203.66223,203.77942,39,50,42
203.77942,203.8966,38,50,42
203.8966,204.06262,39,50,42
204.13098,204.297,41,50,42
204.36536,204.53137,38,50,42
204.59973,204.76575,43,50,42
204.8341,205.00548,41,50,42
205.07603,205.2474,45,50,42
205.31798,205.48935,46,50,42
205.5599,205.73128,48,56,42
205.80185,205.97322,50,62,42
206.04378,206.21515,51,69,42
206.28572,206.4628,51,75,42
206.53572,206.7128,52,81,42
206.78572,206.97545,53,88,42
207.05357,207.26607,53,94,42
210.23795,210.69693,65,70,42
211.17545,211.63443,65,70,42
212.11295,212.57193,60,70,42
213.05045,213.50943,60,70,42
213.92935,213.98795,52,74,42
213.98795,214.44693,53,75,42
214.86685,214.92545,64,84,42
214.92545,215.38443,65,85,42
215.80435,215.86295,40,95,42
215.86295,216.32193,41,95,42
216.76114,216.82364,52,70,42
216.82364,217.379,53,70,42
217.3915,218.33485,46,70,42
218.34462,219.03798,50,80,42
219.04774,219.16493,48,88,42
219.16493,219.28212,46,89,42
219.28212,219.50673,48,90,42
219.75087,219.97548,50,95,42
220.21962,220.44423,51,100,42
221.15712,221.38173,51,70,42
221.62587,221.85048,53,63,42
222.09462,222.31923,54,55,42
223.03212,223.26398,54,50,42
223.51599,223.74783,56,50,42
223.99986,224.23944,58,50,42
224.37486,224.48944,46,60,42
224.49986,224.75655,58,68,42
224.91771,225.0552,58,92,42
225.06772,225.3073,56,100,42
225.5521,226.24545,56,100,42
226.25522,226.42123,46,100,42
226.4896,226.65561,44,100,42
226.72397,226.88998,48,100,42
226.95834,227.18295,49,100,42
227.4271,228.12045,56,100,42
228.13022,228.29623,46,100,42
228.3646,228.53061,44,100,42
228.59897,228.76498,48,100,42
228.83334,228.99936,49,100,42
229.06772,229.23373,65,100,42
229.3021,229.46811,61,100,42
229.53647,229.70248,68,100,42
229.77084,230.69858,66,100,42
230.70834,230.87436,65,100,42
230.94272,231.10873,46,100,42
231.1771,231.34311,44,120,42
231.41147,231.57748,48,100,42
231.64584,231.81721,49,100,42
231.88777,232.05914,37,93,42
232.12971,232.6364,39,85,42
232.64757,233.13365,41,70,42
233.14374,233.3756,49,70,42
233.38567,233.61752,56,70,42
233.62761,234.1014,42,70,42
234.11148,234.34334,49,70,42
234.35341,234.58527,58,70,42
234.35341,234.58527,56,70,42
234.59535,235.06914,41,70,42
235.07922,235.31108,49,70,42
235.32115,235.55301,56,70,42
235.5631,236.03688,39,70,42
236.04697,236.27881,44,70,42
236.2889,236.52075,54,70,42
236.53084,237.00462,37,70,42
237.01471,237.24655,44,70,42
237.25664,237.4885,49,70,42
237.49857,237.97237,42,70,42
237.98244,238.2143,46,70,42
238.22438,238.45624,54,70,42
238.46631,238.94011,44,70,42
238.95018,239.18204,49,70,42
239.19212,239.42398,53,70,42
239.43405,239.90785,44,70,42
239.91792,240.14978,51,70,42
240.15987,240.39171,60,70,42
240.4018,240.57317,61,70,42
240.64374,240.81511,65,70,42
240.88567,241.05704,61,70,42
241.1276,241.29897,68,70,42
241.36954,242.3272,68,75,42
242.33728,242.50865,66,95,42
242.57921,242.75058,66,100,42
242.82115,243.05301,61,85,42
243.30502,243.4764,66,70,42
243.54695,243.71832,39,80,42
243.7889,243.96027,37,90,42
244.03082,244.2022,41,85,42
244.27277,244.74655,42,70,42
244.75664,244.98848,49,70,42
244.99857,245.23042,58,70,42
245.2405,245.7143,47,70,42
245.72437,245.95622,54,70,42
245.96631,246.19817,63,70,42
246.20824,246.68204,46,70,42
246.69211,246.92397,54,70,42
246.93405,247.16591,61,70,42
247.17598,247.64977,44,70,42
247.65985,247.89171,49,70,42
247.9018,248.13364,59,70,42
248.14372,248.61751,42,70,42
248.6276,248.85945,49,70,42
248.86952,249.10138,58,70,42
249.11147,249.60104,47,70,42
249.61147,249.85931,51,70,42
249.87009,250.11794,59,70,42
250.12871,250.65326,49,70,42
250.66441,250.94086,54,70,42
250.95288,251.25237,58,70,42
251.26538,252.36491,49,70,42
257.96393,258.12994,54,70,42
258.1983,258.36432,49,70,42
258.43268,258.5987,46,70,42
258.66705,258.83307,47,70,42
258.90143,259.06744,56,75,42
259.1358,259.30182,53,80,42
259.37018,259.5362,44,85,42
259.60455,259.77057,46,90,42
259.83893,260.00494,54,70,42
260.0733,260.23932,49,70,42
260.30768,260.4737,46,70,42
260.54205,260.70807,44,70,42
260.77643,260.94244,54,75,42
261.0108,261.17682,53,80,42
261.24518,261.4112,44,85,42
261.47955,261.64557,46,90,42
261.71393,261.87994,56,70,42
261.9483,262.1254,54,70,42
262.1983,262.3754,46,70,42
262.4483,262.63806,47,50,42
262.7162,262.9059,59,50,42
262.98404,263.19653,39,50,42
263.28403,263.49652,37,50,42
263.58405,263.84073,42,50,42
276.8331,278.7585,43,100,42
278.7686,279.24237,45,98,42
279.73633,280.45206,57,70,42
280.46213,280.694,58,70,42
280.70407,282.6295,43,100,42
282.63956,283.11334,44,92,42
283.6073,284.32303,56,70,42
284.3331,284.56497,58,70,42
284.57504,286.50043,42,100,42
286.51053,286.9843,41,95,42
286.9944,287.46817,65,70,42
287.96213,288.4359,65,60,42
288.92987,289.10126,65,60,42
289.1718,289.34317,58,60,42
289.8976,290.12946,58,60,42
290.6234,290.7948,58,60,42
290.86536,291.0367,63,60,42
291.8331,292.06494,63,60,42
292.5589,292.7303,63,60,42
292.80084,292.9722,56,60,42
293.7686,294.00043,56,60,42
294.4944,294.66574,56,50,42
294.73633,294.90768,61,50,42
295.70407,295.9359,61,50,42
296.42987,296.60123,49,50,42
296.6718,296.84317,61,50,42
297.63956,297.8714,61,50,42
298.36536,298.5367,49,50,42
298.60727,298.77866,61,50,42
299.09116,299.8746,41,68,42
299.88617,300.03616,39,96,42
300.03616,300.1862,37,100,42
300.1862,300.42575,36,100,42
300.67056,301.36392,56,100,42
301.3737,301.5397,61,90,42
301.60806,301.77408,56,80,42
301.84244,302.00845,65,70,42
302.0768,303.23892,66,100,42
303.2487,303.4147,65,90,42
303.48306,303.64908,37,80,42
303.71744,303.88345,41,70,42
303.9518,304.17642,42,70,42
304.42056,304.64517,46,70,42
304.8893,305.11392,48,70,42
305.35806,305.58267,49,70,42
305.8268,306.05142,54,70,42
306.29556,306.52017,53,70,42
306.7643,306.99615,51,70,42
307.24817,307.48776,56,70,42
308.9379,309.1039,48,79,42
309.17227,309.3383,44,84,42
309.40665,309.57266,51,90,42
309.64102,310.56876,49,90,42
310.82047,310.99182,46,80,42
311.0624,311.23947,44,70,42
311.3124,311.50214,45,60,42
311.58026,312.03925,46,50,42
318.6115,319.48065,50,50,42
319.31464,319.48065,50,50,42
319.549,320.24237,51,50,42
320.25214,320.41815,50,50,42
320.4865,321.17987,51,50,42
321.18964,321.35565,50,50,42
321.424,322.11737,51,50,42
322.12714,322.29315,50,50,42
322.3615,322.8205,51,50,42
322.83026,323.05487,50,50,42
323.299,323.52362,51,50,42
323.76776,323.99237,48,50,42
324.2365,324.46112,49,50,42
324.70526,324.92987,46,50,42
325.174,325.39862,48,50,42
325.64276,325.86737,49,50,42
326.1115,326.33612,47,50,42
326.58026,326.74628,42,70,42
326.81464,326.98065,42,73,42
327.049,327.74237,42,77,42
327.75214,327.91815,44,88,42
327.9865,328.67987,38,92,42
328.68964,328.85565,42,92,42
328.924,329.3978,41,88,42
329.40787,329.64746,42,81,42
329.65787,329.83496,41,78,42
329.90787,330.0976,39,74,42
330.17572,330.38007,44,71,42
330.4642,330.938,37,70,42
330.94806,331.17993,49,70,42
331.19,331.42184,53,70,42
331.43195,331.90573,42,70,42
331.9158,332.14764,49,70,42
332.15775,332.3896,58,70,42
332.3997,332.87347,41,70,42
332.88354,333.1154,49,70,42
333.1255,333.35733,56,70,42
333.3674,333.84122,39,70,42
333.8513,334.08313,44,70,42
334.09323,334.32507,54,70,42
334.33514,334.80896,37,60,42
334.81903,335.05087,44,60,42
335.06097,335.29282,53,60,42
335.3029,335.77667,37,60,42
335.78677,336.01862,44,60,42
336.02872,336.26056,53,60,42
336.27063,336.3513,37,60,42
336.3916,336.47226,37,60,42
336.51257,336.59323,39,60,42
336.63354,336.71417,41,60,42
336.75452,336.83514,42,60,42
336.8755,336.95612,44,60,42
336.99643,337.0771,46,60,42
337.1174,337.19806,48,60,42
337.23837,337.32172,49,60,42
337.36337,337.44672,51,60,42
337.48837,337.57172,53,60,42
337.61337,337.69672,54,60,42
337.73837,337.9281,56,60,42
338.00623,338.21875,49,60,42
338.30624,338.40625,47,50,42
338.45624,338.54883,47,50,42
338.59512,338.68134,47,50,42
338.72443,338.81064,47,50,42
338.85376,338.9344,47,50,42
338.9747,339.05536,47,50,42
339.09567,339.17633,47,50,42
339.21664,339.2973,47,50,42
339.33762,339.41827,47,50,42
339.4586,339.5392,47,50,42
339.57956,339.6602,47,50,42
339.70053,339.78116,47,50,42
339.82147,339.90213,47,50,42
339.94244,340.0231,47,50,42
340.06342,340.14407,47,50,42
340.1844,340.26505,47,50,42
340.30536,340.38602,47,50,42
340.42633,340.50696,41,50,42
340.5473,340.62793,41,50,42
340.66827,340.7489,41,50,42
340.7892,340.86987,41,50,42
340.9102,340.99084,41,50,42
341.03116,341.11182,41,50,42
341.15213,341.2328,41,50,42
341.2731,341.35373,41,50,42
341.39407,341.4747,41,50,42
341.51505,341.59567,41,51,42
341.636,341.71664,41,52,42
341.75696,341.8578,42,53,42
341.87793,341.97873,42,54,42
341.9989,342.0997,42,55,42
342.11987,342.22067,42,56,42
342.24084,342.34164,44,56,42
342.36182,342.46262,44,57,42
342.4828,342.5836,44,58,42
342.60373,342.70456,44,59,42
342.7247,342.8289,46,60,42
342.8497,342.9539,46,61,42
342.9747,343.0789,46,62,42
343.0997,343.2039,46,63,42
343.2247,343.33246,48,63,42
343.35403,343.4618,48,64,42
343.48334,343.5911,49,65,42
343.61264,343.7204,49,66,42
343.74194,343.85355,42,67,42
343.8759,343.9875,42,68,42
344.0098,344.12555,43,69,42
344.1487,344.2737,43,70,42
344.2987,344.5112,44,70,42
344.8987,345.1862,44,50,42
346.3987,346.4987,37,90,42
346.4987,346.5987,44,96,42
346.5987,346.6987,53,103,42
346.6987,347.8862,37,110,42
36.381264,36.84025,70,70,45
36.850014,37.309,75,70,45
37.318764,37.77775,72,70,45
170.89131,171.38089,60,70,45
171.39131,171.88089,68,70,45
171.89131,172.38089,67,70,45
172.89131,173.38089,66,70,45
173.39131,173.88089,66,70,45
266.15546,266.64505,72,50,45
266.65546,267.14505,65,50,45
267.15546,267.64505,70,50,45
267.65546,268.14505,64,50,45
268.15546,268.64505,70,50,45
35.443764,35.90275,73,70,45
35.912514,36.3715,82,70,45
36.381264,36.84025,76,70,45
36.850014,37.309,88,70,45
37.318764,37.77775,77,70,45
37.318764,37.77775,89,70,45
171.89131,172.38089,70,70,45
172.39131,172.88089,75,70,45
172.89131,173.38089,72,70,45
173.39131,173.88089,68,70,45
265.15546,265.64505,62,50,45
265.65546,266.14505,66,50,45
267.15546,267.64505,58,50,45
267.65546,268.14505,67,50,45
268.15546,268.64505,55,50,45
34.506264,34.96525,39,70,45
34.975014,35.434,44,70,45
35.443764,35.90275,37,70,45
36.381264,36.84025,39,70,45
37.318764,37.77775,44,70,45
169.89131,170.38089,46,70,45
170.39131,170.88089,51,70,45
170.89131,171.38089,44,70,45
171.89131,172.38089,51,70,45
172.89131,173.38089,56,70,45
264.11975,264.6443,59,70,45
264.65546,265.14505,53,50,45
265.15546,265.64505,58,50,45
265.65546,266.14505,51,50,45
266.15546,266.64505,56,50,45
266.65546,267.14505,50,50,45
267.15546,267.64505,55,50,45
267.65546,268.14505,49,50,45
268.15546,268.64505,55,50,45
268.65546,269.14505,48,50,45
269.15546,269.64505,55,50,45
269.65546,270.14505,48,50,45
270.15546,270.64505,53,50,45
270.65546,271.14505,47,50,45
271.15546,271.64505,53,50,45
271.65546,272.16193,46,50,45
272.1727,272.717,52,50,45
272.729,273.2186,46,50,45
273.229,273.7186,52,50,45
273.729,274.2186,46,50,45
274.229,274.7186,52,50,45
274.729,275.2186,43,50,45
275.229,275.7186,52,60,45
275.729,276.24435,43,71,45
276.25534,276.82062,52,82,45
