start_time,end_time,note_value,velocity,instrument_program_number
0.4999995,0.82638806,69,80,0
0.666666,0.99305457,77,80,0
0.8333325,1.1545688,76,80,0
0.999999,1.3158591,74,80,0
1.4838698,1.7997298,69,80,0
1.64516,1.9610201,77,80,0
1.8064502,2.1223104,76,80,0
1.9677405,2.2836006,74,80,0
2.4516113,2.7674713,69,80,0
2.6129014,2.9287615,77,80,0
2.7741919,3.090052,76,80,0
2.935482,3.251342,74,80,0
3.4193528,3.7352128,69,80,0
3.580643,3.896503,77,80,0
3.7419333,4.057793,74,80,0
3.9032235,4.219084,76,80,0
4.387094,4.7029543,69,80,0
4.5483847,4.8642445,79,80,0
4.709675,5.0255346,77,80,0
4.870965,5.1868253,76,80,0
5.354836,5.670696,69,80,0
5.516126,5.831986,79,80,0
5.6774163,5.993276,77,80,0
5.8387065,6.154567,76,80,0
6.3225775,6.6384373,69,80,0
6.4838676,6.7997274,79,80,0
6.645158,6.9610176,77,80,0
6.806448,7.1223083,76,80,0
7.290319,7.6061788,69,80,0
7.451609,7.767469,79,80,0
7.6128993,7.928759,76,80,0
7.7741895,8.09005,77,80,0
8.25806,8.57392,74,83,0
8.419351,8.73521,81,84,0
8.580641,8.896501,86,85,0
8.741931,9.057791,82,86,0
9.225801,9.541662,70,89,0
9.387092,9.702952,74,91,0
9.548382,9.864243,82,92,0
9.709673,10.025533,79,93,0
10.193543,10.509403,67,96,0
10.354834,10.670693,70,97,0
10.516124,10.831984,79,98,0
10.677414,10.993274,76,100,0
11.161284,11.477145,64,96,0
11.322575,11.638435,69,94,0
11.483865,11.799726,76,92,0
11.645156,11.961016,77,91,0
12.129026,12.444886,65,86,0
12.290317,12.606176,69,84,0
12.451607,12.767467,77,82,0
12.612897,12.928757,74,80,0
13.096767,13.412628,62,87,0
13.258058,13.573918,69,89,0
13.419349,13.7352085,74,92,0
13.580639,13.896499,73,94,0
14.064509,14.380369,61,102,0
14.2258,14.541659,69,104,0
14.38709,14.70295,73,107,0
14.54838,14.86424,74,110,0
15.193541,15.509401,65,110,0
15.354832,15.6706915,69,110,0
15.516122,15.831982,74,110,0
15.677412,15.993272,77,110,0
15.838702,16.154562,81,110,0
15.999992,16.315853,77,110,0
16.161282,16.477142,86,110,0
16.322573,16.638433,81,110,0
16.483864,16.799723,82,86,0
16.967733,17.283594,70,89,0
17.129025,17.444883,74,91,0
17.290314,17.606174,82,92,0
17.451605,17.767464,79,93,0
17.935474,18.251335,67,96,0
18.096766,18.412626,70,97,0
18.258057,18.573915,79,98,0
18.419346,18.735207,76,100,0
18.903217,19.219076,64,96,0
19.064507,19.380367,69,94,0
19.225798,19.541656,76,92,0
19.387087,19.702948,77,91,0
19.870958,20.18682,65,86,0
20.03225,20.348108,69,84,0
20.193539,20.5094,77,82,0
20.35483,20.670689,74,80,0
20.8387,21.15456,62,87,0
20.99999,21.31585,69,89,0
21.16128,21.47714,74,92,0
21.32257,21.63843,73,94,0
21.80644,22.122301,61,102,0
21.967731,22.283592,69,104,0
22.129023,22.444881,73,107,0
22.290312,22.606173,74,110,0
22.532248,22.686817,69,108,0
22.612892,23.251333,81,107,0
23.258053,23.493269,80,101,0
23.419344,23.654558,79,99,0
23.580633,23.81585,78,97,0
23.741924,23.977139,77,96,0
23.903215,24.13843,76,94,0
24.064505,24.299719,75,92,0
24.225796,24.541655,74,80,0
24.709665,25.025526,62,87,0
24.870956,25.186815,69,89,0
25.032246,25.348106,74,92,0
25.193537,25.509398,73,94,0
25.677406,25.993267,61,102,0
25.838697,26.154558,69,104,0
25.999989,26.315847,73,107,0
26.161278,26.477139,74,110,0
26.403214,26.477139,74,110,0
26.483858,27.1223,86,110,0
27.129019,27.364235,85,110,0
27.29031,27.525524,84,107,0
27.4516,27.686815,83,104,0
27.61289,27.848104,82,101,0
27.774181,28.009396,81,97,0
27.93547,28.170685,80,94,0
28.096762,28.41262,81,80,0
28.580631,28.896492,62,91,0
28.741922,29.057781,69,94,0
28.903212,29.219072,74,98,0
29.064503,29.380363,73,102,0
29.548374,29.864233,73,110,0
29.709663,30.025524,81,110,0
29.870955,30.18356,85,110,0
30.032244,30.341454,86,110,0
30.190138,30.499348,50,110,0
30.348034,30.657244,53,110,0
30.505928,30.815138,57,110,0
30.663822,30.973032,62,110,0
31.137505,31.446716,50,110,0
31.2954,31.60461,53,110,0
31.453295,31.762505,57,110,0
31.611189,31.920399,62,110,0
32.084873,32.39408,50,110,0
32.242767,32.551975,53,110,0
32.40066,32.709873,57,110,0
32.558556,32.867767,62,110,0
32.874344,33.183556,50,110,0
33.032238,33.34145,53,110,0
33.190132,33.499344,59,110,0
33.34803,33.657238,62,110,0
33.505924,33.815132,65,110,0
33.66382,33.973026,71,110,0
33.821712,34.13092,60,110,0
33.979607,34.28882,72,110,0
34.1375,34.446712,64,110,0
34.295395,34.604607,76,110,0
34.45329,34.7625,67,110,0
34.611183,34.920395,79,110,0
34.769077,35.07829,72,110,0
34.926975,35.236183,84,110,0
35.08487,35.394077,76,110,0
35.242764,35.55197,88,110,0
35.400658,35.709866,72,110,0
35.55855,35.86776,84,110,0
35.716446,36.025658,67,110,0
35.87434,36.18355,79,110,0
36.032234,36.341446,64,110,0
36.19013,36.49934,76,110,0
36.348022,36.657234,67,110,0
36.505917,36.81513,79,110,0
36.663815,36.973022,64,110,0
36.82171,37.130917,76,110,0
36.979603,37.28881,60,110,0
37.137497,37.446705,72,110,0
37.769073,38.078285,48,110,0
37.926968,38.23618,52,110,0
38.08486,38.394073,55,110,0
38.24276,38.551968,60,110,0
38.716442,39.02565,48,110,0
38.874336,39.183544,52,110,0
39.03223,39.341442,55,110,0
39.190125,39.499336,60,110,0
39.663807,39.97302,48,110,0
39.821705,40.130913,52,110,0
39.9796,40.288807,55,110,0
40.137493,40.4467,60,110,0
40.45328,40.76249,50,110,0
40.45328,40.76249,57,110,0
40.611176,40.920387,62,110,0
40.76907,41.07828,50,110,0
40.76907,41.07828,57,110,0
40.926964,41.236176,62,110,0
41.084858,41.39407,57,110,0
41.084858,41.39407,51,110,0
41.242752,41.551964,63,110,0
41.400646,41.709858,52,110,0
41.400646,41.709858,56,110,0
41.400646,41.709858,64,110,0
41.71644,41.867752,77,110,0
41.795383,41.9467,79,110,0
41.874332,42.104595,77,110,0
42.032227,42.341434,76,110,0
42.348015,42.499332,77,110,0
42.426964,42.578278,79,110,0
42.50591,42.73617,77,110,0
42.663803,42.973015,76,110,0
42.97959,43.13091,77,110,0
43.05854,43.209854,79,110,0
43.13749,43.367752,77,110,0
43.295383,43.60459,76,110,0
43.61117,43.762486,77,110,0
43.690117,43.841434,79,110,0
43.769066,43.99933,77,110,0
43.92696,44.23617,76,110,0
44.24275,44.394066,77,110,0
44.321697,44.47301,79,110,0
44.400642,44.630905,77,110,0
44.558537,44.86775,76,110,0
44.87433,45.025642,77,110,0
44.953274,45.10459,79,110,0
45.032223,45.262486,77,110,0
45.190117,45.499325,76,110,0
45.505905,46.446693,77,110,0
46.453274,46.76248,76,97,0
46.769062,47.07827,74,94,0
47.08485,47.236164,72,80,0
47.163795,47.315113,74,80,0
47.242744,47.473007,72,80,0
47.40064,47.70985,71,80,0
47.716427,48.02564,69,80,0
48.032215,48.341427,68,80,0
48.348007,48.657215,69,80,0
48.663795,48.973003,71,80,0
48.979584,49.288795,69,80,0
49.295372,49.604584,77,110,0
49.453266,49.762478,89,110,0
49.61116,49.920372,76,110,0
49.76906,50.078266,88,110,0
49.926952,50.23616,77,110,0
50.084846,50.394054,89,110,0
50.24274,50.55195,76,110,0
50.400635,50.709843,88,110,0
50.55853,50.86774,77,110,0
50.716423,51.025635,89,110,0
50.874317,51.18353,76,110,0
51.03221,51.341423,88,110,0
51.190105,51.499317,77,110,0
51.348003,51.65721,89,110,0
51.505898,51.815105,76,110,0
51.66379,51.973,88,110,0
51.821686,52.130894,77,110,0
51.97958,52.288788,89,110,0
52.137474,52.446686,76,110,0
52.29537,52.60458,88,110,0
52.453262,52.762474,77,110,0
52.611156,52.92037,89,110,0
52.76905,53.078262,88,110,0
52.76905,53.078262,76,110,0
53.084843,54.02563,77,110,0
53.084843,54.02563,89,110,0
54.032207,54.34142,88,95,0
54.032207,54.34142,76,95,0
54.347996,54.657207,86,93,0
54.347996,54.657207,74,93,0
54.663788,54.972996,84,80,0
54.663788,54.972996,72,80,0
54.979576,55.288784,83,80,0
54.979576,55.288784,71,80,0
55.295364,55.604572,81,80,0
55.295364,55.604572,69,80,0
55.611153,55.920364,80,80,0
55.611153,55.920364,68,80,0
55.92694,56.236153,81,80,0
55.92694,56.236153,69,80,0
56.24273,56.55194,83,80,0
56.24273,56.55194,71,80,0
56.55852,56.86773,81,80,0
56.55852,56.86773,69,80,0
56.87431,57.183517,77,80,0
56.87431,57.183517,89,80,0
57.190098,57.49931,77,82,0
57.190098,57.49931,89,82,0
57.505886,57.815098,89,85,0
57.505886,57.815098,77,85,0
57.821674,58.130886,88,88,0
57.821674,58.130886,76,88,0
58.137466,58.446674,86,90,0
58.137466,58.446674,74,90,0
58.453255,58.762463,84,93,0
58.453255,58.762463,72,93,0
58.769043,59.078255,83,96,0
58.769043,59.078255,71,96,0
59.08483,59.394043,81,99,0
59.08483,59.394043,69,99,0
59.40062,59.70983,80,101,0
59.40062,59.70983,68,101,0
59.71641,60.02562,81,104,0
59.71641,60.02562,69,104,0
60.0322,60.341408,83,107,0
60.0322,60.341408,71,107,0
60.34799,60.6837,81,110,0
60.34799,60.6837,69,110,0
60.690845,61.026558,77,110,0
60.690845,61.026558,89,110,0
61.033703,61.369415,77,110,0
61.033703,61.369415,89,110,0
61.37656,61.70424,89,110,0
61.37656,61.70424,77,110,0
61.71103,62.02024,88,110,0
61.71103,62.02024,76,110,0
62.02682,62.33603,86,110,0
62.02682,62.33603,74,110,0
62.34261,62.651817,84,110,0
62.34261,62.651817,72,110,0
62.658398,62.96761,83,110,0
62.658398,62.96761,71,110,0
62.974186,63.283398,81,110,0
62.974186,63.283398,69,110,0
63.289974,63.599186,80,110,0
63.289974,63.599186,68,110,0
63.605766,63.914974,81,110,0
63.605766,63.914974,69,110,0
63.921555,64.23077,83,110,0
63.921555,64.23077,71,110,0
64.23734,64.546555,81,80,0
64.23734,64.546555,69,80,0
64.86892,65.17813,69,80,0
65.02682,65.33603,81,80,0
65.18471,65.49392,72,80,0
65.816284,66.125496,72,80,0
65.97418,66.283394,84,80,0
66.13208,66.441284,76,80,0
66.76366,67.07287,76,80,0
66.92155,67.23076,88,80,0
67.079445,67.38866,72,80,0
67.71102,68.02023,72,80,0
67.86892,68.17812,84,80,0
68.02681,69.28339,69,80,0
68.3426,69.28339,81,83,0
69.28997,69.599174,71,93,0
69.28997,69.599174,83,93,0
69.60576,69.91496,68,96,0
69.60576,69.91496,80,96,0
69.92155,70.23075,81,99,0
69.92155,70.23075,69,99,0
70.395226,70.70444,69,80,0
70.55312,70.862335,81,80,0
70.71101,71.020226,69,80,0
70.86891,71.17812,72,80,0
71.3426,71.6518,72,80,0
71.50049,71.8097,84,80,0
71.65839,71.9676,72,80,0
71.81628,72.12549,76,80,0
72.28996,72.599174,76,80,0
72.44785,72.757065,88,80,0
72.60575,72.91496,76,80,0
72.76365,73.07285,72,80,0
73.23733,73.54654,72,80,0
73.395226,73.70444,84,80,0
73.553116,73.86233,72,80,0
73.71101,74.96759,69,90,0
74.0268,74.96759,81,92,0
74.97417,75.28338,71,93,0
74.97417,75.28338,83,93,0
75.289955,75.59917,68,96,0
75.289955,75.59917,80,96,0
75.60574,75.914955,69,100,0
75.60574,75.914955,81,100,0
75.92154,76.23074,71,103,0
75.92154,76.23074,83,103,0
76.23733,76.54653,73,106,0
76.23733,76.54653,85,106,0
76.553116,76.86233,74,110,0
76.553116,76.86233,86,110,0
76.868904,77.178116,72,107,0
76.868904,77.178116,84,107,0
77.18469,77.493904,71,104,0
77.18469,77.493904,83,104,0
77.50048,77.80969,72,101,0
77.50048,77.80969,84,101,0
77.81627,78.12548,68,100,0
77.81627,78.12548,80,100,0
78.13206,78.44127,69,100,0
78.13206,78.44127,81,100,0
78.447845,78.75706,71,100,0
78.447845,78.75706,83,100,0
78.76363,79.072845,66,100,0
78.76363,79.072845,78,100,0
79.07942,79.38863,68,100,0
79.07942,79.38863,80,100,0
79.39522,79.70442,69,100,0
79.55311,79.86232,81,101,0
79.711006,80.02021,71,103,0
79.8689,80.17811,83,104,0
80.026794,80.336006,73,106,0
80.184685,80.4939,85,108,0
80.34258,80.651794,74,109,0
80.50047,80.809685,86,109,0
80.65837,80.96758,72,107,0
80.81627,81.12547,84,106,0
80.97416,81.28337,71,104,0
81.13206,81.44126,83,102,0
81.28995,81.59916,72,101,0
81.447845,81.75705,84,100,0
81.605736,81.91495,68,100,0
81.76363,82.072845,80,100,0
81.921524,82.230736,69,100,0
82.07942,82.38863,81,100,0
82.23731,82.546524,71,100,0
82.39521,82.70442,83,100,0
82.55311,82.86231,66,100,0
82.711,83.02021,78,100,0
82.8689,83.1781,68,100,0
83.02679,83.336,80,100,0
83.184685,83.4939,69,112,0
83.342575,83.65179,81,100,0
83.50047,83.809685,68,100,0
83.65836,83.967575,69,100,0
83.81626,84.12547,81,100,0
83.97415,84.28336,69,100,0
84.13205,84.44126,68,120,0
84.28995,84.59915,69,100,0
84.44784,84.75705,81,100,0
84.605736,84.91494,69,100,0
84.763626,85.07284,68,100,0
84.921524,85.230736,69,100,0
85.079414,85.388626,81,112,0
85.23731,85.546524,69,100,0
85.3952,85.704414,68,100,0
85.5531,85.86231,69,100,0
85.711,86.0202,81,100,0
85.86889,86.1781,69,100,0
86.02679,86.33599,68,120,0
86.18468,86.49389,69,100,0
86.342575,86.65178,81,100,0
86.500465,86.80968,69,100,0
86.65836,86.967575,68,100,0
86.81625,87.12872,69,100,0
86.97415,87.29001,70,100,0
87.135445,87.4513,69,80,0
87.29673,87.612595,70,80,0
87.45802,87.77388,69,80,0
87.61931,87.93517,70,80,0
87.7806,88.09646,69,80,0
87.941895,88.25775,70,80,0
88.10318,88.419044,69,80,0
88.26447,88.58033,70,80,0
88.425766,88.74162,69,80,0
88.58705,88.902916,70,80,0
88.748344,89.0642,69,80,0
88.90964,89.225494,70,80,0
89.07092,89.38679,69,80,0
89.232216,89.54807,70,80,0
89.3935,89.709366,69,80,0
89.554794,89.87065,73,80,0
89.71609,90.031944,69,80,0
89.87737,90.19324,74,80,0
90.038666,90.35452,69,80,0
90.19996,90.515816,76,80,0
90.361244,90.67711,69,80,0
90.52254,90.838394,77,80,0
90.68383,90.99969,76,80,0
90.845116,91.16098,74,80,0
91.32899,91.644844,69,80,0
91.49028,91.80614,77,80,0
91.651566,91.96743,76,80,0
91.81286,92.128716,74,80,0
92.29673,92.61259,69,80,0
92.458015,92.77388,77,80,0
92.61931,92.93517,76,80,0
92.7806,93.09646,74,80,0
93.26447,93.58033,69,80,0
93.42576,93.74162,77,80,0
93.58705,93.90291,74,80,0
93.748344,94.0642,76,80,0
94.23221,94.54807,69,80,0
94.3935,94.709366,79,80,0
94.554794,94.87065,77,80,0
94.71608,95.031944,76,80,0
95.19995,95.515816,69,80,0
95.361244,95.6771,79,80,0
95.52254,95.838394,77,80,0
95.68382,95.99969,76,80,0
96.167694,96.48356,69,80,0
96.32899,96.644844,79,80,0
96.49027,96.80614,77,80,0
96.651566,96.96742,76,80,0
97.13544,97.451294,69,80,0
97.29673,97.61259,79,80,0
97.458015,97.77388,76,80,0
97.61931,97.935165,77,80,0
98.10318,98.41904,74,83,0
98.264465,98.58033,81,84,0
98.42576,98.741615,86,85,0
98.58705,98.90291,82,86,0
99.07092,99.38678,70,89,0
99.23221,99.54807,74,91,0
99.3935,99.70936,82,92,0
99.55479,99.87065,79,93,0
100.03866,100.35452,67,96,0
100.19995,100.51581,70,97,0
100.361244,100.6771,79,98,0
100.52253,100.838394,76,100,0
101.0064,101.322266,64,96,0
101.167694,101.48355,69,94,0
101.32898,101.644844,76,92,0
101.49027,101.80614,77,91,0
101.974144,102.29,65,86,0
102.13544,102.451294,69,84,0
102.29672,102.61259,77,82,0
102.458015,102.77387,74,80,0
102.94189,103.257744,62,87,0
103.10317,103.41904,69,89,0
103.264465,103.58032,74,92,0
103.42576,103.741615,73,94,0
103.90963,104.22549,61,102,0
104.070915,104.38678,69,104,0
104.23221,104.548065,73,107,0
104.3935,104.70936,74,110,0
105.03866,105.354515,65,110,0
105.19995,105.51581,69,110,0
105.36124,105.6771,74,110,0
105.52253,105.83839,77,110,0
105.68382,105.99968,81,110,0
105.84511,106.16097,77,110,0
106.0064,106.32226,86,110,0
106.167694,106.48355,81,110,0
106.32898,106.644844,82,86,0
106.81285,107.12871,70,89,0
106.974144,107.29,74,91,0
107.13543,107.451294,82,92,0
107.29672,107.61258,79,93,0
107.780594,108.09645,67,96,0
107.94189,108.257744,70,97,0
108.10317,108.41904,79,98,0
108.264465,108.58032,76,100,0
108.74834,109.06419,64,96,0
108.90962,109.22549,69,94,0
109.070915,109.38677,76,92,0
109.23221,109.548065,77,91,0
109.71608,110.03194,65,86,0
109.877365,110.19323,69,84,0
110.03866,110.354515,77,82,0
110.19994,110.51581,74,80,0
110.683815,110.99968,62,87,0
110.84511,111.160965,69,89,0
111.0064,111.32226,74,92,0
111.16769,111.48355,73,94,0
111.65156,111.96742,61,102,0
111.81285,112.12871,69,104,0
111.97414,112.29,73,107,0
112.13543,112.45129,74,110,0
112.377365,112.53194,69,108,0
112.45801,113.09645,81,107,0
113.10317,113.33839,80,101,0
113.26446,113.49968,79,99,0
113.42575,113.660965,78,97,0
113.58704,113.82226,77,96,0
113.74833,113.98354,76,94,0
113.90962,114.14484,75,92,0
114.070915,114.38677,74,80,0
114.55479,114.87064,62,87,0
114.71607,115.03194,69,89,0
114.877365,115.19322,74,92,0
115.03865,115.354515,73,94,0
115.52252,115.83839,61,102,0
115.683815,115.99967,69,104,0
115.84511,116.160965,73,107,0
116.00639,116.32226,74,110,0
116.24833,116.32226,74,110,0
116.32898,116.967415,86,110,0
116.97414,117.20935,85,110,0
117.13543,117.37064,84,107,0
117.296715,117.53193,83,104,0
117.45801,117.69322,82,101,0
117.6193,117.854515,81,97,0
117.78059,118.0158,80,94,0
117.94188,118.25774,81,80,0
118.42575,118.74161,62,91,0
118.587036,118.9029,69,94,0
118.74833,119.06419,74,98,0
118.90962,119.22548,73,102,0
119.39349,119.69948,73,110,0
119.54974,119.85573,81,110,0
119.70599,120.01198,85,110,0
119.86224,120.16823,86,110,0
120.01849,120.32448,50,110,0
120.17474,120.48073,53,110,0
120.33099,120.63698,57,110,0
120.48724,120.79323,62,110,0
120.95599,121.26198,50,110,0
121.11224,121.41823,53,110,0
121.26849,121.57448,57,110,0
121.42474,121.73073,62,110,0
121.89349,122.19948,50,110,0
122.04974,122.35573,53,110,0
122.20599,122.51198,57,110,0
122.36224,122.66823,62,110,0
122.67474,122.98073,50,110,0
122.83099,123.13698,53,110,0
122.98724,123.29323,59,110,0
123.14349,123.44948,62,110,0
123.29974,123.60573,65,110,0
123.45599,123.76198,71,110,0
123.61224,123.91823,60,110,0
123.76849,124.07448,72,110,0
123.92474,124.23073,64,110,0
124.08099,124.38698,76,110,0
124.23724,124.54323,67,110,0
124.39349,124.69948,79,110,0
124.54974,124.85573,72,110,0
124.70599,125.01198,84,110,0
124.86224,125.16823,76,110,0
125.01849,125.32448,88,110,0
125.17474,125.48073,72,110,0
125.33099,125.63698,84,110,0
125.48724,125.79323,67,110,0
125.64349,125.94948,79,110,0
125.79974,126.10573,64,110,0
125.95599,126.26198,76,110,0
126.11224,126.41823,67,110,0
126.26849,126.57448,79,110,0
126.42474,126.73073,64,110,0
126.58099,126.88698,76,110,0
126.73724,127.04323,60,110,0
126.89349,127.19948,72,110,0
127.51849,127.82448,48,110,0
127.67474,127.98073,52,110,0
127.83099,128.13698,55,110,0
127.98724,128.29323,60,110,0
128.456,128.76198,48,110,0
128.61224,128.91823,52,110,0
128.7685,129.07448,55,110,0
128.92474,129.23073,60,110,0
129.3935,129.69948,48,110,0
129.54974,129.85573,52,110,0
129.706,130.01198,55,110,0
129.86224,130.16823,60,110,0
130.17474,130.48073,50,110,0
130.17474,130.48073,57,110,0
130.331,130.63698,62,110,0
130.48724,130.79323,50,110,0
130.48724,130.79323,57,110,0
130.6435,130.94948,62,110,0
130.79974,131.10573,57,110,0
130.79974,131.10573,51,110,0
130.956,131.26198,63,110,0
131.11224,131.41823,52,110,0
131.11224,131.41823,56,110,0
131.11224,131.41823,64,110,0
131.42474,131.57448,77,110,0
131.50287,131.6526,79,110,0
131.581,131.80885,77,110,0
131.73724,132.04323,76,110,0
132.04974,132.19948,77,110,0
132.12787,132.2776,79,110,0
132.206,132.43385,77,110,0
132.36224,132.66823,76,110,0
132.67474,132.82448,77,110,0
132.75287,132.9026,79,110,0
132.831,133.05885,77,110,0
132.98724,133.29323,76,110,0
133.29974,133.44948,77,110,0
133.37787,133.5276,79,110,0
133.456,133.68385,77,110,0
133.61224,133.91823,76,110,0
133.92474,134.07448,77,110,0
134.00287,134.1526,79,110,0
134.081,134.30885,77,110,0
134.23724,134.54323,76,110,0
134.54974,134.69948,77,110,0
134.62787,134.7776,79,110,0
134.706,134.93385,77,110,0
134.86224,135.16823,76,110,0
135.17474,136.10573,77,110,0
136.11224,136.41823,76,97,0
136.42474,136.73073,74,94,0
136.73724,136.88698,72,80,0
136.81537,136.9651,74,80,0
136.8935,137.12135,72,80,0
137.04974,137.35573,71,80,0
137.36224,137.66823,69,80,0
137.67474,137.98073,68,80,0
137.98724,138.29323,69,80,0
138.29974,138.60573,71,80,0
138.61224,138.91823,69,80,0
138.92474,139.23073,77,110,0
139.081,139.38698,89,110,0
139.23724,139.54323,76,110,0
139.3935,139.69948,88,110,0
139.54974,139.85573,77,110,0
139.706,140.01198,89,110,0
139.86224,140.16823,76,110,0
140.0185,140.32448,88,110,0
140.17474,140.48073,77,110,0
140.331,140.63698,89,110,0
140.48724,140.79323,76,110,0
140.6435,140.94948,88,110,0
140.79974,141.10573,77,110,0
140.956,141.26198,89,110,0
141.11224,141.41823,76,110,0
141.2685,141.57448,88,110,0
141.42474,141.73073,77,110,0
141.581,141.88698,89,110,0
141.73724,142.04323,76,110,0
141.8935,142.19948,88,110,0
142.04974,142.35573,77,110,0
142.206,142.51198,89,110,0
142.36224,142.66823,88,110,0
142.36224,142.66823,76,110,0
142.67474,143.60573,77,110,0
142.67474,143.60573,89,110,0
143.61224,143.91823,88,95,0
143.61224,143.91823,76,95,0
143.92474,144.23073,86,93,0
143.92474,144.23073,74,93,0
144.23724,144.54323,84,80,0
144.23724,144.54323,72,80,0
144.54974,144.85573,83,80,0
144.54974,144.85573,71,80,0
144.86224,145.16823,81,80,0
144.86224,145.16823,69,80,0
145.17474,145.48073,80,80,0
145.17474,145.48073,68,80,0
145.48724,145.79323,81,80,0
145.48724,145.79323,69,80,0
145.79974,146.10573,83,80,0
145.79974,146.10573,71,80,0
146.11224,146.41823,81,80,0
146.11224,146.41823,69,80,0
146.42474,146.73073,77,80,0
146.42474,146.73073,89,80,0
146.73724,147.04323,77,82,0
146.73724,147.04323,89,82,0
147.04974,147.35573,89,85,0
147.04974,147.35573,77,85,0
147.36224,147.66823,88,88,0
147.36224,147.66823,76,88,0
147.67474,147.98073,86,90,0
147.67474,147.98073,74,90,0
147.98724,148.29323,84,93,0
147.98724,148.29323,72,93,0
148.29974,148.60573,83,96,0
148.29974,148.60573,71,96,0
148.61224,148.91823,81,99,0
148.61224,148.91823,69,99,0
148.92474,149.23073,80,101,0
148.92474,149.23073,68,101,0
149.23724,149.54323,81,104,0
149.23724,149.54323,69,104,0
149.54974,149.87122,83,107,0
149.54974,149.87122,71,107,0
149.8784,150.21605,81,110,0
149.8784,150.21605,69,110,0
150.22324,150.56088,77,110,0
150.22324,150.56088,89,110,0
150.56805,150.9057,77,110,0
150.56805,150.9057,89,110,0
150.91289,151.24155,89,110,0
150.91289,151.24155,77,110,0
151.24834,151.56764,88,110,0
151.24834,151.56764,76,110,0
151.57443,151.88364,86,110,0
151.57443,151.88364,74,110,0
151.89021,152.19943,84,110,0
151.89021,152.19943,72,110,0
152.20601,152.51521,83,110,0
152.20601,152.51521,71,110,0
152.5218,152.83101,81,110,0
152.5218,152.83101,69,110,0
152.83759,153.14679,80,110,0
152.83759,153.14679,68,110,0
153.15338,153.46259,81,110,0
153.15338,153.46259,69,110,0
153.46916,153.77838,83,110,0
153.46916,153.77838,71,110,0
153.78496,154.09416,81,80,0
153.78496,154.09416,69,80,0
154.41653,154.72574,69,80,0
154.57443,154.88364,81,80,0
154.73232,155.04153,72,80,0
155.36389,155.67311,72,80,0
155.52179,155.83101,84,80,0
155.67969,155.98889,76,80,0
156.31126,156.62048,76,80,0
156.46916,156.77837,88,80,0
156.62706,156.93626,72,80,0
157.25864,157.56784,72,80,0
157.41653,157.72574,84,80,0
157.57442,158.831,69,80,0
157.89021,158.831,81,83,0
158.83757,159.14679,71,93,0
158.83757,159.14679,83,93,0
159.15337,159.46257,68,96,0
159.15337,159.46257,80,96,0
159.46916,159.77837,81,99,0
159.46916,159.77837,69,99,0
159.94284,160.25204,69,80,0
160.10074,160.40994,81,80,0
160.25862,160.56784,69,80,0
160.41652,160.72574,72,80,0
160.89021,161.19942,72,80,0
161.0481,161.35732,84,80,0
161.206,161.5152,72,80,0
161.36389,161.6731,76,80,0
161.83757,162.14679,76,80,0
161.99547,162.30467,88,80,0
162.15337,162.46257,76,80,0
162.31126,162.62047,72,80,0
162.78494,163.09415,72,80,0
162.94284,163.25204,84,80,0
163.10072,163.40994,72,80,0
163.25862,164.5152,69,90,0
163.57442,164.5152,81,92,0
164.52177,164.831,71,93,0
164.52177,164.831,83,93,0
164.83757,165.14677,68,96,0
164.83757,165.14677,80,96,0
165.15335,165.46257,69,100,0
165.15335,165.46257,81,100,0
165.46915,165.77835,71,103,0
165.46915,165.77835,83,103,0
165.78494,166.09415,73,106,0
165.78494,166.09415,85,106,0
166.10072,166.40993,74,110,0
166.10072,166.40993,86,110,0
166.41652,166.72572,72,107,0
166.41652,166.72572,84,107,0
166.7323,167.04152,71,104,0
166.7323,167.04152,83,104,0
167.0481,167.3573,72,101,0
167.0481,167.3573,84,101,0
167.36388,167.6731,68,100,0
167.36388,167.6731,80,100,0
167.67967,167.98888,69,100,0
167.67967,167.98888,81,100,0
167.99545,168.30467,71,100,0
167.99545,168.30467,83,100,0
168.31125,168.62045,66,100,0
168.31125,168.62045,78,100,0
168.62703,168.93625,68,100,0
168.62703,168.93625,80,100,0
168.94283,169.25203,69,100,0
169.10072,169.40993,81,101,0
169.25862,169.56783,71,103,0
169.4165,169.72572,83,104,0
169.5744,169.88362,73,106,0
169.7323,170.0415,85,108,0
169.8902,170.1994,74,109,0
170.04808,170.3573,86,109,0
170.20598,170.5152,72,107,0
170.36388,170.67308,84,106,0
170.52177,170.83098,71,104,0
170.67967,170.98888,83,102,0
170.83755,171.14677,72,101,0
170.99545,171.30466,84,100,0
171.15335,171.46255,68,100,0
171.31125,171.62045,80,100,0
171.46913,171.77835,69,100,0
171.62703,171.93625,81,100,0
171.78493,172.09413,71,100,0
171.94283,172.25203,83,100,0
172.10072,172.40993,66,100,0
172.2586,172.56783,78,100,0
172.4165,172.72571,68,100,0
172.5744,172.8836,80,100,0
172.7323,173.0415,69,112,0
172.89018,173.1994,81,100,0
173.04808,173.3573,68,100,0
173.20598,173.51518,69,100,0
173.36388,173.67308,81,100,0
173.52176,173.83098,69,100,0
173.67966,173.98888,68,120,0
173.83755,174.14676,69,100,0
173.99545,174.30466,81,100,0
174.15335,174.46255,69,100,0
174.31123,174.62045,68,100,0
174.46913,174.77835,69,100,0
174.62703,174.93623,81,112,0
174.78493,175.09413,69,100,0
174.94281,175.25203,68,100,0
175.10071,175.40993,69,100,0
175.2586,175.56781,81,100,0
175.4165,175.72571,69,100,0
175.5744,175.8836,68,120,0
175.73228,176.0415,69,100,0
175.89018,176.19939,81,100,0
176.04808,176.35728,69,100,0
176.20598,176.51518,68,100,0
176.36386,176.67633,69,100,0
176.52176,176.83762,70,100,0
176.68304,176.99892,69,80,0
176.84435,177.1602,70,80,0
177.00563,177.32149,69,80,0
177.16692,177.48279,70,80,0
177.32822,177.64407,69,80,0
177.4895,177.80536,70,80,0
177.65079,177.96666,69,80,0
177.81209,178.12794,70,80,0
177.97337,178.28923,69,80,0
178.13466,178.45053,70,80,0
178.29596,178.61182,69,80,0
178.45724,178.7731,70,80,0
178.61853,178.9344,69,80,0
178.77983,179.09569,70,80,0
178.94112,179.25697,69,80,0
179.1024,179.41826,73,80,0
179.2637,179.57956,69,80,0
179.42499,179.74084,74,80,0
179.58627,179.90213,69,80,0
179.74757,180.06343,76,80,0
179.90886,180.22472,69,80,0
180.07014,180.386,77,80,0
180.23143,180.5473,76,80,0
180.39273,180.70859,75,80,0
180.8766,181.19246,75,80,0
181.03789,181.35374,81,80,0
181.19917,181.51505,82,80,0
181.36047,181.67633,84,80,0
181.84435,182.1602,75,80,0
182.00563,182.32149,81,80,0
182.16692,182.48279,82,80,0
182.32822,182.64407,84,80,0
182.81209,183.12794,75,80,0
182.97337,183.28923,81,80,0
183.13466,183.45052,82,80,0
183.29596,183.61182,84,80,0
183.77982,184.09569,75,80,0
183.94112,184.25697,84,80,0
184.1024,184.41344,81,80,0
184.26369,184.57294,82,110,0
184.73244,185.04169,46,110,0
185.04494,185.19469,55,110,0
184.88869,185.19794,50,110,0
185.20119,185.50719,58,110,0
185.66994,185.97594,58,110,0
185.82619,186.13219,62,110,0
185.98244,186.13219,67,110,0
186.13869,186.44469,70,110,0
186.60744,186.91344,70,110,0
186.76369,187.06969,74,110,0
186.91994,187.22594,79,110,0
187.07619,187.38219,82,110,0
187.54494,187.85094,77,110,0
187.70119,188.00719,83,110,0
187.85744,188.1691,84,110,0
188.01369,188.33127,86,80,0
188.50018,188.81775,77,80,0
188.66234,188.9799,83,80,0
188.82451,189.14207,84,80,0
188.98666,189.30423,86,80,0
189.47314,189.79073,77,80,0
189.63531,189.95288,83,80,0
189.79747,190.11504,84,80,0
189.95964,190.2772,86,80,0
190.44612,190.76369,77,80,0
190.60829,190.92586,83,80,0
190.77045,191.08801,84,80,0
190.93262,191.25018,86,80,0
191.4191,191.73666,77,80,0
191.58125,191.89882,86,80,0
191.74342,192.05533,83,80,0
191.90558,192.21158,84,110,0
192.37433,192.68033,48,110,0
192.53058,192.83658,52,110,0
192.68683,192.83658,57,110,0
192.84308,193.14908,60,110,0
193.31183,193.61783,60,110,0
193.46808,193.77408,64,110,0
193.62433,193.77408,69,110,0
193.78058,194.08658,72,110,0
194.24933,194.55533,72,110,0
194.40558,194.71158,76,110,0
194.56183,194.86783,81,110,0
194.71808,195.02408,84,110,0
195.81183,196.11783,58,100,0
195.96808,196.27408,64,100,0
196.12433,196.43033,67,100,0
196.28058,196.58658,70,100,0
196.74933,197.05533,61,100,0
196.90558,197.21158,67,100,0
197.06183,197.36783,70,100,0
197.21808,197.52408,73,100,0
197.68683,197.99283,70,100,0
197.84308,198.14908,73,100,0
197.99933,198.30533,76,100,0
198.15558,198.46158,79,100,0
198.62433,198.93033,76,100,0
198.78058,199.08658,82,100,0
198.93683,199.24283,81,100,0
199.56183,199.86783,62,100,0
199.71808,200.02408,65,100,0
199.87433,200.18033,69,100,0
200.03058,200.33658,74,100,0
200.49933,200.80533,65,100,0
200.65558,200.96158,69,100,0
200.81183,201.11783,74,100,0
200.96808,201.27408,77,100,0
201.43683,201.74283,69,100,0
201.59308,201.89908,74,100,0
201.74933,202.05533,77,100,0
201.90558,202.21158,81,100,0
202.68683,202.99283,80,100,0
202.84308,203.14908,74,100,0
202.99933,203.30533,75,100,0
203.15558,203.46158,77,100,0
203.62433,203.93033,77,100,0
203.78058,204.08658,71,100,0
203.93683,204.24283,72,100,0
204.09308,204.39908,74,100,0
204.56183,204.86783,74,100,0
204.71808,205.02408,65,100,0
204.87433,205.18033,67,100,0
205.03058,205.33658,68,100,0
205.49933,205.80533,68,100,0
205.65558,205.96158,62,100,0
205.81183,206.11783,63,100,0
205.96808,206.27408,65,100,0
206.43683,206.74283,79,100,0
206.59308,206.89908,72,100,0
206.74933,207.05533,74,100,0
206.90558,207.21158,75,100,0
207.37433,207.68033,75,100,0
207.53058,207.83658,67,100,0
207.68683,207.99283,71,100,0
207.84308,208.14908,72,100,0
208.31183,208.61783,72,100,0
208.46808,208.77408,63,100,0
208.62433,208.93033,65,100,0
208.78058,209.08658,67,100,0
209.24933,209.55533,67,100,0
209.40558,209.71158,60,100,0
209.56183,209.86783,62,100,0
209.71808,210.02408,63,100,0
209.87433,210.18033,60,100,0
210.03058,210.33658,55,100,0
210.81183,211.11783,54,100,0
210.96808,211.27408,60,100,0
211.12433,211.43033,63,100,0
211.28058,211.58658,66,100,0
211.74933,212.05533,57,100,0
211.90558,212.21158,63,100,0
212.06183,212.36783,66,100,0
212.21808,212.52408,69,100,0
212.68683,212.99283,66,100,0
212.84308,213.14908,69,100,0
212.99933,213.30533,70,100,0
213.15558,213.46158,75,100,0
213.62433,213.93033,72,100,0
213.78058,214.08658,78,100,0
213.93683,214.24283,77,100,0
214.56183,214.86783,61,100,0
214.71808,215.02408,65,100,0
214.87433,215.18033,70,100,0
215.03058,215.33658,73,100,0
215.49933,215.80533,65,100,0
215.65558,215.96158,70,100,0
215.81183,216.11783,73,100,0
215.96808,216.27408,77,100,0
216.43683,216.74283,70,100,0
216.59308,216.89908,73,100,0
216.74933,217.05533,77,100,0
216.90558,217.21158,82,100,0
217.68683,217.99283,89,100,0
217.84308,218.14908,82,100,0
217.99933,218.30533,84,100,0
218.15558,218.46158,85,100,0
218.62433,218.93033,85,100,0
218.78058,219.08658,78,100,0
218.93683,219.24283,80,100,0
219.09308,219.39908,82,100,0
219.56183,219.86783,82,100,0
219.71808,220.02408,73,100,0
219.87433,220.18033,77,100,0
220.03058,220.33658,78,100,0
220.49933,220.80533,78,100,0
220.65558,220.96158,70,100,0
220.81183,221.11783,72,100,0
220.96808,221.27408,73,100,0
221.43683,221.74283,89,100,0
221.59308,221.89908,82,100,0
221.74933,222.05533,84,100,0
221.90558,222.21158,85,100,0
222.37433,222.68033,85,100,0
222.53058,222.83658,77,100,0
222.68683,222.99283,81,100,0
222.84308,223.14908,82,100,0
223.31183,223.61783,82,100,0
223.46808,223.77408,73,100,0
223.62433,223.93033,75,100,0
223.78058,224.08658,77,100,0
224.24933,224.55533,77,100,0
224.40558,224.71158,70,100,0
224.56183,224.86783,72,100,0
224.71808,225.02408,73,100,0
225.18683,225.49283,85,100,0
225.34308,225.64908,82,100,0
225.49933,225.80533,84,100,0
225.65558,225.96158,85,100,0
226.12433,226.43033,73,100,0
226.28058,226.58658,70,100,0
226.43683,226.74283,72,100,0
226.59308,226.89908,73,100,0
227.06183,227.36783,85,100,0
227.21808,227.52408,82,100,0
227.37433,227.68033,84,100,0
227.53058,227.83658,85,100,0
227.99933,228.30533,73,100,0
228.15558,228.46158,70,100,0
228.31183,228.61783,72,100,0
228.46808,228.77408,73,100,0
228.93683,229.24283,84,100,0
229.09308,229.39908,80,100,0
229.24933,229.55533,82,100,0
229.40558,229.71158,84,100,0
229.87433,230.18033,72,103,0
230.03058,230.33658,68,104,0
230.18683,230.49283,70,106,0
230.34308,230.64908,72,107,0
230.81183,231.11783,87,120,0
230.96808,231.27408,84,120,0
231.12433,231.43033,85,120,0
231.28058,231.58658,87,120,0
231.74933,232.05533,75,120,0
231.90558,232.21158,72,120,0
232.06183,232.36783,73,120,0
232.21808,232.52408,75,120,0
232.68683,232.99283,65,80,0
232.84308,233.14908,73,80,0
232.99933,233.30533,72,80,0
233.15558,233.46158,70,80,0
233.62433,233.93033,65,80,0
233.78058,234.08658,73,80,0
233.93683,234.24283,72,80,0
234.09308,234.39908,70,80,0
234.56183,234.86783,65,80,0
234.71808,235.02408,73,80,0
234.87433,235.18033,72,80,0
235.03058,235.33658,70,80,0
235.49933,235.80533,65,80,0
235.65558,235.96158,73,80,0
235.81183,236.11783,70,80,0
235.96808,236.27408,72,80,0
236.43683,236.74283,65,80,0
236.59308,236.89908,75,80,0
236.74933,237.05533,73,80,0
236.90558,237.21158,72,80,0
237.37433,237.68033,65,80,0
237.53058,237.83658,75,80,0
237.68683,237.99283,73,80,0
237.84308,238.14908,72,80,0
238.31183,238.61783,65,80,0
238.46808,238.77408,75,80,0
238.62433,238.93033,73,80,0
238.78058,239.08658,72,80,0
239.24933,239.55533,65,80,0
239.40558,239.71158,75,80,0
239.56183,239.86783,72,80,0
239.71808,240.02408,73,80,0
240.18683,240.49283,65,80,0
240.34308,240.64908,73,80,0
240.49933,240.80533,77,80,0
241.12433,241.43033,65,81,0
241.28058,241.58658,73,81,0
241.43683,241.74283,77,82,0
242.06183,242.36783,65,83,0
242.21808,242.52408,73,84,0
242.37433,242.68033,77,84,0
242.99933,243.30533,66,86,0
243.15558,243.46158,73,86,0
243.31183,243.61783,78,87,0
243.93683,244.24283,66,88,0
244.09308,244.39908,73,89,0
244.24933,244.55533,78,89,0
244.87433,245.18033,67,91,0
245.03058,245.33658,73,91,0
245.18683,245.49283,79,92,0
245.81183,246.11783,67,93,0
245.96808,246.27408,73,94,0
246.12433,246.43033,79,94,0
246.74933,247.05533,68,96,0
246.90558,247.21158,74,96,0
247.06183,247.36783,80,97,0
247.68683,247.99283,68,98,0
247.84308,248.14908,74,99,0
247.99933,248.30533,80,99,0
248.62433,248.93033,68,101,0
248.78058,249.08658,74,101,0
248.93683,249.24283,80,102,0
249.56183,249.86783,68,103,0
249.71808,250.02408,74,104,0
249.87433,250.18033,80,104,0
250.03058,250.33658,81,110,0
250.49933,250.80533,69,110,0
250.65558,250.96158,76,110,0
250.65558,250.96158,81,121,0
250.81183,251.11783,73,110,0
250.96808,251.27408,77,110,0
250.96808,251.27408,80,110,0
251.43683,251.74283,69,110,0
251.59308,251.89908,77,110,0
251.59308,251.89908,80,122,0
251.74933,252.05533,74,110,0
251.90558,252.21158,76,110,0
251.90558,252.21158,81,110,0
252.37433,252.68033,69,110,0
252.53058,252.83658,76,110,0
252.53058,252.83658,81,122,0
252.68683,252.99283,73,110,0
252.84308,253.14908,77,110,0
252.84308,253.14908,80,110,0
253.31183,253.61783,69,110,0
253.46808,253.77408,77,110,0
253.46808,253.77408,80,123,0
253.62433,253.93033,74,110,0
253.78058,254.08658,81,100,0
253.78058,254.08658,76,100,0
253.78058,254.08658,73,100,0
254.24933,254.55533,73,80,0
254.40558,254.71158,76,80,0
254.56183,254.86783,79,80,0
254.71808,255.02408,70,80,0
255.18683,255.49283,70,80,0
255.34308,255.64908,73,80,0
255.49933,255.80533,76,80,0
255.65558,255.96158,67,92,0
256.12433,256.43033,70,80,0
256.28058,256.58658,69,80,0
256.43683,256.74283,67,80,0
256.59308,256.89908,65,80,0
257.06183,257.36783,65,80,0
257.21808,257.52408,64,80,0
257.37433,257.68033,62,80,0
257.53058,257.83658,61,80,0
257.99933,258.30533,73,80,0
258.15558,258.46158,76,80,0
258.31183,258.61783,79,80,0
258.46808,258.77408,70,80,0
258.93683,259.24283,70,80,0
259.09308,259.39908,73,80,0
259.24933,259.55533,76,80,0
259.40558,259.71158,67,94,0
259.87433,260.18033,70,80,0
260.03058,260.33658,69,80,0
260.18683,260.49283,67,80,0
260.34308,260.64908,65,80,0
260.81183,261.11783,65,80,0
260.96808,261.27408,64,80,0
261.12433,261.43033,62,80,0
261.28058,261.58658,78,80,0
261.74933,262.05533,78,80,0
261.90558,262.21158,81,80,0
262.06183,262.36783,84,80,0
262.21808,262.52408,75,80,0
262.68683,262.99283,75,80,0
262.84308,263.14908,78,80,0
262.99933,263.30533,81,80,0
263.15558,263.46158,72,96,0
263.62433,263.93033,75,80,0
263.78058,264.08658,74,80,0
263.93683,264.24283,72,80,0
264.09308,264.39908,70,80,0
264.56183,264.86783,70,80,0
264.71808,265.02408,69,80,0
264.87433,265.18033,67,80,0
265.03058,265.33658,66,80,0
265.49933,265.80533,78,80,0
265.65558,265.96158,81,80,0
265.81183,266.11783,84,80,0
265.96808,266.27408,75,80,0
266.43683,266.74283,75,80,0
266.59308,266.89908,78,80,0
266.74933,267.05533,81,80,0
266.90558,267.21158,72,96,0
267.37433,267.68033,75,80,0
267.53058,267.83658,74,80,0
267.68683,267.99283,72,80,0
267.84308,268.14908,70,80,0
268.31183,268.61783,70,80,0
268.46808,268.77408,69,80,0
268.62433,268.93033,67,80,0
268.78058,269.08658,82,80,0
269.24933,269.55533,82,80,0
269.40558,269.71158,81,80,0
269.56183,269.86783,79,80,0
269.71808,270.02408,77,80,0
270.18683,270.49283,77,80,0
270.34308,270.64908,76,80,0
270.49933,270.80533,74,80,0
270.65558,270.96158,75,91,0
271.12433,271.43033,75,80,0
271.28058,271.58658,74,80,0
271.43683,271.74283,72,80,0
271.59308,271.89908,70,80,0
272.06183,272.36783,70,80,0
272.21808,272.52408,69,80,0
272.37433,272.68033,67,80,0
272.53058,272.83658,82,80,0
272.99933,273.30533,82,82,0
273.15558,273.46158,81,83,0
273.31183,273.61783,79,84,0
273.46808,273.77408,77,84,0
273.93683,274.24283,77,87,0
274.09308,274.39908,76,88,0
274.24933,274.55533,74,89,0
274.40558,274.71158,82,103,0
274.87433,275.18033,82,92,0
275.03058,275.33658,81,93,0
275.18683,275.49283,79,94,0
275.34308,275.64908,77,94,0
275.81183,276.11783,77,97,0
275.96808,276.27408,76,98,0
276.12433,276.43033,74,99,0
276.28058,276.58658,82,114,0
276.74933,277.05533,82,102,0
276.90558,277.21158,81,103,0
277.06183,277.36783,79,104,0
277.21808,277.52408,77,104,0
277.69186,278.02228,77,107,0
277.85315,278.19876,76,108,0
278.02963,278.3752,74,109,0
278.20612,278.5423,82,110,0
278.38257,278.70895,79,110,0
278.54926,278.86722,78,110,0
278.7159,279.02512,79,109,0
278.8738,279.183,82,109,0
279.0317,279.3409,79,108,0
279.18958,279.4988,78,108,0
279.34747,279.6567,79,108,0
279.50537,279.81458,82,107,0
279.66327,279.97247,79,107,0
279.82117,280.13037,78,106,0
279.97906,280.28827,79,106,0
280.13696,280.44617,75,118,0
280.29486,280.60406,76,105,0
280.45276,280.76196,79,105,0
280.61063,280.91986,76,104,0
280.76852,281.07776,75,104,0
280.92642,281.23563,76,103,0
281.08432,281.39352,79,103,0
281.24222,281.55142,76,103,0
281.40012,281.70932,75,102,0
281.558,281.86722,76,102,0
281.7159,282.02512,79,101,0
281.8738,282.183,76,101,0
282.03168,282.3409,72,114,0
282.18958,282.4988,73,100,0
282.34747,282.65668,76,100,0
282.50537,282.81458,73,99,0
282.66327,282.97247,72,99,0
282.82117,283.13037,73,98,0
282.97906,283.28827,76,98,0
283.13696,283.44617,73,98,0
283.29486,283.60406,72,97,0
283.45273,283.76196,73,97,0
283.61063,283.91986,76,96,0
283.76852,284.07773,73,96,0
283.92642,284.23563,69,110,0
284.08432,284.39352,70,95,0
284.24222,284.55142,73,95,0
284.40012,284.70932,70,94,0
284.558,284.86722,69,94,0
284.7159,285.02512,70,93,0
284.87378,285.183,73,93,0
285.03168,285.3409,70,93,0
285.18958,285.49878,69,92,0
285.34747,285.65668,70,92,0
285.50537,285.81458,73,91,0
285.66327,285.97247,70,91,0
285.82117,286.13037,66,104,0
285.97906,286.28827,67,90,0
286.13696,286.44617,70,90,0
286.29483,286.60406,67,89,0
286.45273,286.76193,66,89,0
286.61063,286.91983,67,88,0
286.76852,287.07773,70,88,0
286.92642,287.23563,67,88,0
287.08432,287.39352,66,87,0
287.24222,287.55142,67,87,0
287.40012,287.70932,70,86,0
287.558,287.86722,67,86,0
287.71588,288.02512,66,86,0
287.87378,288.18298,67,85,0
288.03168,288.34088,70,85,0
288.18958,288.49878,67,84,0
288.34747,288.65668,66,84,0
288.50537,288.66327,67,83,0
288.66327,288.97247,70,83,0
288.82117,289.13037,67,83,0
288.97903,289.28827,66,82,0
289.13693,289.44617,67,82,0
289.29483,289.60403,70,81,0
289.45273,289.76193,67,81,0
289.61063,289.91983,66,80,0
289.76852,290.07773,67,80,0
289.92642,290.23563,70,80,0
290.08432,290.39352,67,80,0
290.24222,290.55142,66,80,0
290.4001,290.70932,67,80,0
290.55798,290.86722,70,80,0
290.71588,291.0251,73,79,0
290.87378,291.18298,70,77,0
291.03168,291.34415,67,76,0
291.18958,291.50543,66,74,0
291.35086,291.66672,67,72,0
291.51215,291.828,70,70,0
291.67343,291.99445,73,70,0
291.83475,292.16113,76,70,0
292.0014,292.3278,67,70,0
292.16806,292.49445,66,70,0
292.33475,292.66113,67,70,0
292.5014,292.8278,70,70,0
292.66806,292.99445,73,70,0
292.83475,293.16113,76,70,0
293.0014,293.3278,69,73,0
293.16806,293.49445,77,76,0
293.33472,293.65598,76,77,0
293.5014,293.81726,74,80,0
293.98526,294.30112,69,80,0
294.14655,294.46243,77,80,0
294.30786,294.62372,76,80,0
294.46915,294.785,74,80,0
294.953,295.26886,69,80,0
295.1143,295.43018,77,80,0
295.2756,295.59146,76,80,0
295.4369,295.75275,74,80,0
295.92075,296.2366,69,80,0
296.08203,296.3979,77,80,0
296.24335,296.5592,74,80,0
296.40463,296.7205,76,80,0
296.8885,297.20435,69,80,0
297.04977,297.36563,79,80,0
297.21106,297.52695,77,80,0
297.37238,297.68823,76,80,0
297.85623,298.1721,69,80,0
298.01752,298.33337,79,80,0
298.1788,298.4947,77,80,0
298.34012,298.65598,76,80,0
298.82397,299.13983,69,80,0
298.98526,299.30112,79,80,0
299.14655,299.4624,77,80,0
299.30786,299.62372,76,80,0
299.79172,300.10757,69,80,0
299.953,300.26886,79,80,0
300.1143,300.43015,76,80,0
300.27557,300.59146,77,80,0
300.75946,301.07532,74,83,0
300.92075,301.2366,81,84,0
301.08203,301.3979,86,85,0
301.24332,301.5592,82,86,0
301.7272,302.04306,70,89,0
301.8885,302.20435,74,91,0
302.04977,302.36563,82,92,0
302.21106,302.52695,79,93,0
302.69495,303.0108,67,96,0
302.85623,303.1721,70,97,0
303.01752,303.33337,79,98,0
303.1788,303.49466,76,100,0
303.6627,303.97855,64,96,0
303.82397,304.13983,69,94,0
303.98526,304.30112,76,92,0
304.14655,304.4624,77,91,0
304.63043,304.9463,65,86,0
304.79172,305.10757,69,84,0
304.953,305.26886,77,82,0
305.1143,305.43015,74,80,0
305.59818,305.91403,62,87,0
305.75946,306.07532,69,89,0
305.92075,306.2366,74,92,0
306.08203,306.3979,73,94,0
306.56592,306.88177,61,102,0
306.7272,307.04306,69,104,0
306.8885,307.20435,73,107,0
307.04977,307.36563,74,110,0
307.69495,308.0108,65,110,0
307.85623,308.1721,69,110,0
308.01752,308.33337,74,110,0
308.1788,308.49466,77,110,0
308.3401,308.65598,81,110,0
308.5014,308.81726,77,110,0
308.6627,308.97855,86,110,0
308.82397,309.13983,81,110,0
308.98526,309.30112,82,86,0
309.46915,309.785,70,89,0
309.63043,309.9463,74,91,0
309.79172,310.10757,82,92,0
309.953,310.26886,79,93,0
310.4369,310.75275,67,96,0
310.59818,310.91403,70,97,0
310.75946,311.07532,79,98,0
310.92075,311.2366,75,100,0
311.4046,311.7205,63,96,0
311.56592,311.88177,67,94,0
311.7272,312.04306,75,92,0
311.8885,312.20435,72,91,0
312.37234,312.68823,60,86,0
312.53366,312.84952,65,84,0
312.69495,313.0108,72,82,0
312.85623,313.1721,74,80,0
313.3401,313.65594,62,84,0
313.5014,313.81726,65,85,0
313.6627,313.97855,74,87,0
313.82397,314.13983,75,88,0
314.30783,314.6237,63,92,0
314.46912,314.785,67,94,0
314.63043,314.9463,75,95,0
314.79172,315.10757,72,97,0
315.27557,315.59143,60,110,0
315.43686,315.75275,69,110,0
315.59818,315.91403,72,110,0
315.75946,316.07532,77,110,0
316.24332,316.55917,65,98,0
316.4046,316.72046,70,94,0
316.56592,316.88177,77,90,0
316.7272,317.04306,74,86,0
317.21106,317.52692,62,83,0
317.37234,317.6882,70,85,0
317.53363,317.84952,74,87,0
317.69495,318.0108,75,88,0
318.1788,318.49466,63,94,0
318.3401,318.65594,67,95,0
318.50137,318.81726,75,97,0
318.6627,318.97855,72,99,0
319.14655,319.4624,60,104,0
319.30783,319.6237,69,106,0
319.46912,319.785,72,108,0
319.63043,319.9463,70,110,0
320.75946,321.07532,46,110,0
320.92075,321.2366,49,110,0
321.08203,321.3979,53,110,0
321.24332,321.55917,58,110,0
321.7272,322.04306,46,110,0
321.8885,322.20435,49,110,0
322.04977,322.36563,53,110,0
322.21106,322.52692,58,110,0
322.69495,323.0108,46,110,0
322.85623,323.1721,49,110,0
323.01752,323.33337,53,110,0
323.1788,323.49466,58,110,0
323.50137,323.80737,43,120,0
323.65762,323.96362,46,110,0
323.81387,324.11987,52,110,0
323.97012,324.27612,55,110,0
324.12637,324.43237,58,110,0
324.28262,324.58862,64,110,0
324.43887,324.74487,53,110,0
324.59512,324.90112,65,110,0
324.75137,325.05737,56,110,0
324.90762,325.21362,68,110,0
325.06387,325.36987,60,110,0
325.22012,325.52612,72,110,0
325.37637,325.68237,65,110,0
325.53262,325.83862,77,110,0
325.68887,325.99487,68,110,0
325.84512,326.15112,80,110,0
326.00137,326.30737,65,110,0
326.15762,326.46362,77,110,0
326.31387,326.61987,60,110,0
326.47012,326.77612,72,110,0
326.62637,326.93237,56,110,0
326.78262,327.08862,68,110,0
326.93887,327.24487,60,110,0
327.09512,327.40112,72,110,0
327.25137,327.55737,56,110,0
327.40762,327.71362,68,110,0
327.56387,327.86987,53,110,0
327.72012,328.02612,65,110,0
328.34512,328.65112,53,110,0
328.50137,328.80737,56,110,0
328.65762,328.96362,60,110,0
328.81387,329.11987,65,110,0
329.28262,329.58862,53,110,0
329.43887,329.74487,56,110,0
329.59512,329.90112,60,110,0
329.75137,330.05737,65,110,0
330.22012,330.52612,53,110,0
330.37637,330.68237,56,110,0
330.53262,330.83862,60,110,0
330.68887,330.99487,65,110,0
331.00137,331.30737,50,120,0
331.15762,331.46362,53,110,0
331.31387,331.61987,59,110,0
331.47012,331.77612,62,110,0
331.62637,331.93237,65,110,0
331.78262,332.08862,71,110,0
331.93887,332.24487,60,110,0
332.09512,332.40112,72,110,0
332.25137,332.55737,63,110,0
332.40762,332.71362,75,110,0
332.56387,332.86987,67,110,0
332.72012,333.02612,79,110,0
332.87637,333.18237,72,110,0
333.03262,333.33862,84,110,0
333.18887,333.49487,75,110,0
333.34512,333.65112,87,110,0
333.50137,333.80737,72,110,0
333.65762,333.96362,84,110,0
333.81387,334.11987,67,110,0
333.97012,334.27612,79,110,0
334.12637,334.43237,63,110,0
334.28262,334.58862,75,110,0
334.43887,334.74487,67,110,0
334.59512,334.90112,79,110,0
334.75137,335.05737,63,110,0
334.90762,335.21362,75,110,0
335.06387,335.36987,60,110,0
335.22012,335.52612,72,110,0
335.84512,336.15112,48,110,0
336.00137,336.30737,51,110,0
336.15762,336.46362,55,110,0
336.31387,336.61987,60,110,0
336.78262,337.08862,48,110,0
336.93887,337.24487,51,110,0
337.09512,337.40112,55,110,0
337.25137,337.55737,60,110,0
337.72012,338.02612,48,110,0
337.87637,338.18237,51,110,0
338.03262,338.33862,55,110,0
338.18887,338.49487,60,110,0
338.50137,338.80737,45,120,0
338.65762,338.96362,48,110,0
338.81387,339.11987,54,110,0
338.97012,339.27612,57,110,0
339.12637,339.43237,60,110,0
339.28262,339.58862,66,110,0
339.43887,339.74487,55,110,0
339.59512,339.90112,67,110,0
339.75137,340.05737,58,110,0
339.90762,340.21362,70,110,0
340.06387,340.36987,62,110,0
340.22012,340.52612,74,110,0
340.37637,340.68237,67,110,0
340.53262,340.83862,79,110,0
340.68887,340.99487,70,110,0
340.84512,341.15112,82,110,0
341.00137,341.30737,67,110,0
341.15762,341.46362,79,110,0
341.31387,341.61987,62,110,0
341.47012,341.77612,74,110,0
341.62637,341.93237,58,110,0
341.78262,342.08862,70,110,0
341.93887,342.24487,62,110,0
342.09512,342.40112,74,110,0
342.25137,342.55737,58,110,0
342.40762,342.71362,70,110,0
342.56387,342.86987,55,110,0
342.72012,343.02612,67,110,0
343.34512,343.65112,50,110,0
343.50137,343.80737,55,110,0
343.65762,343.96362,58,110,0
343.81387,344.11987,62,110,0
344.28262,344.58862,50,110,0
344.43887,344.74487,55,110,0
344.59512,344.90112,58,110,0
344.75137,345.05737,62,110,0
345.22012,345.52612,50,110,0
345.37637,345.68237,55,110,0
345.53262,345.84512,58,110,0
345.68887,346.00818,62,110,0
346.01498,346.33426,50,120,0
346.01498,346.33426,56,120,0
346.178,346.50534,62,110,0
346.34106,346.67676,50,110,0
346.34106,346.67676,56,110,0
346.51248,346.8482,62,110,0
346.68393,347.01962,50,110,0
346.68393,347.01962,56,110,0
346.85535,347.19107,62,110,0
347.02676,347.3625,52,110,0
347.02676,347.3625,57,110,0
347.02676,347.3625,61,110,0
347.36963,347.5339,70,110,0
347.45535,347.61343,72,110,0
347.54105,347.77133,70,110,0
347.69894,348.00815,69,110,0
348.01474,348.16605,70,110,0
348.0937,348.245,72,110,0
348.17264,348.4029,70,110,0
348.33054,348.63974,69,110,0
348.64633,348.79764,70,110,0
348.72528,348.8766,72,110,0
348.8042,349.0345,70,110,0
348.9621,349.27133,69,110,0
349.2779,349.4292,70,110,0
349.35684,349.50815,72,110,0
349.4358,349.66605,70,110,0
349.5937,349.9029,69,110,0
349.9095,350.0608,70,110,0
349.98843,350.13974,72,110,0
350.06738,350.29764,70,110,0
350.22525,350.5345,69,110,0
350.54105,350.69238,70,110,0
350.62,350.7713,72,110,0
350.69894,350.9292,70,110,0
350.85684,351.16605,69,110,0
351.17264,352.11343,70,110,0
352.12,352.4292,69,103,0
352.4358,352.745,67,97,0
352.7516,352.9029,65,80,0
352.83054,352.98184,67,80,0
352.9095,353.13974,65,80,0
353.06735,353.3766,64,80,0
353.38315,353.69235,62,80,0
353.69894,354.00815,61,80,0
354.01474,354.32394,62,80,0
354.33054,354.63974,64,80,0
354.6463,354.9555,62,80,0
354.9621,355.2713,70,110,0
355.12,355.4292,82,110,0
355.2779,355.5871,69,110,0
355.4358,355.745,81,110,0
355.5937,355.9029,70,110,0
355.75156,356.0608,82,110,0
355.90945,356.2187,69,110,0
356.06735,356.37656,81,110,0
356.22525,356.53445,70,110,0
356.38315,356.69235,82,110,0
356.54105,356.85025,69,110,0
356.69894,357.00815,81,110,0
356.85684,357.16605,70,110,0
357.01474,357.32394,82,110,0
357.1726,357.48184,69,110,0
357.3305,357.63974,81,110,0
357.4884,357.7976,70,110,0
357.6463,357.9555,82,110,0
357.8042,358.1134,69,110,0
357.9621,358.2713,81,110,0
358.12,358.4292,70,110,0
358.2779,358.5871,82,110,0
358.4358,358.745,81,110,0
358.4358,358.745,69,110,0
358.75156,359.69235,70,110,0
358.75156,359.69235,82,110,0
359.69894,360.00815,81,102,0
359.69894,360.00815,69,102,0
360.0147,360.32394,79,94,0
360.0147,360.32394,67,94,0
360.3305,360.6397,77,80,0
360.3305,360.6397,65,80,0
360.6463,360.9555,76,80,0
360.6463,360.9555,64,80,0
360.9621,361.2713,74,80,0
360.9621,361.2713,62,80,0
361.2779,361.5871,73,80,0
361.2779,361.5871,61,80,0
361.59366,361.9029,74,80,0
361.59366,361.9029,62,80,0
361.90945,362.21866,76,80,0
361.90945,362.21866,64,80,0
362.22525,362.53445,62,80,0
362.22525,362.53445,74,80,0
362.54105,362.85025,82,82,0
362.54105,362.85025,70,82,0
362.8568,363.16605,82,84,0
362.8568,363.16605,70,84,0
363.1726,363.4818,82,87,0
363.1726,363.4818,70,87,0
363.4884,363.7976,81,89,0
363.4884,363.7976,69,89,0
363.8042,364.1134,79,91,0
363.8042,364.1134,67,91,0
364.11996,364.4292,77,94,0
364.11996,364.4292,65,94,0
364.43576,364.74496,76,96,0
364.43576,364.74496,64,96,0
364.75156,365.06076,74,99,0
364.75156,365.06076,62,99,0
365.06735,365.37656,73,101,0
365.06735,365.37656,61,101,0
365.38315,365.69235,74,103,0
365.38315,365.69235,62,103,0
365.6989,366.00815,76,106,0
365.6989,366.00815,64,106,0
366.0147,366.3239,62,108,0
366.0147,366.3239,74,108,0
366.3305,366.6397,82,110,0
366.3305,366.6397,70,110,0
366.6463,366.9555,82,110,0
366.6463,366.9555,70,110,0
366.96207,367.2713,82,110,0
366.96207,367.2713,70,110,0
367.27786,367.58707,81,110,0
367.27786,367.58707,69,110,0
367.59366,367.90286,79,110,0
367.59366,367.90286,67,110,0
367.90945,368.21866,77,110,0
367.90945,368.21866,65,110,0
368.22525,368.53445,76,110,0
368.22525,368.53445,64,110,0
368.54102,368.85025,74,110,0
368.54102,368.85025,62,110,0
368.8568,369.16602,73,110,0
368.8568,369.16602,61,110,0
369.1726,369.4818,74,110,0
369.1726,369.4818,62,110,0
369.4884,369.7976,76,110,0
369.4884,369.7976,64,110,0
369.80417,370.1134,62,105,0
369.80417,370.1134,74,105,0
370.43576,370.74496,62,80,0
370.59366,370.90286,74,80,0
370.75156,371.06076,65,80,0
371.38312,371.69232,65,80,0
371.54102,371.85022,77,80,0
371.6989,372.00812,69,80,0
372.3305,372.6397,69,80,0
372.4884,372.7976,81,80,0
372.64627,372.9555,65,80,0
373.27786,373.58707,65,80,0
373.43576,373.74496,77,80,0
373.59366,374.85022,62,80,0
373.90942,374.85022,74,83,0
374.8568,375.16602,64,93,0
374.8568,375.16602,76,93,0
375.1726,375.4818,61,96,0
375.1726,375.4818,73,96,0
375.48837,375.7976,62,99,0
375.48837,375.7976,74,99,0
375.96207,376.27127,62,80,0
376.11996,376.42917,74,80,0
376.27786,376.58707,62,80,0
376.43576,376.74496,65,80,0
376.90942,377.21866,65,80,0
377.06732,377.37653,77,80,0
377.22522,377.53442,65,80,0
377.38312,377.69232,69,80,0
377.8568,378.16602,69,80,0
378.0147,378.3239,81,80,0
378.17258,378.4818,69,80,0
378.33047,378.6397,65,80,0
378.80417,379.11337,65,80,0
378.96207,379.27127,77,80,0
379.11996,379.42917,65,80,0
379.27786,380.53442,62,80,0
379.59363,380.53442,74,83,0
380.54102,380.85022,64,93,0
380.54102,380.85022,76,93,0
380.8568,381.16602,61,96,0
380.8568,381.16602,73,96,0
381.17258,381.48178,62,80,0
381.17258,381.48178,74,80,0
381.48837,381.79758,76,86,0
381.80417,382.11337,78,93,0
382.11996,382.42917,79,99,0
382.43573,382.74496,86,100,0
382.43573,382.74496,77,100,0
382.75153,383.06073,86,100,0
382.75153,383.06073,76,100,0
383.06732,383.37653,86,100,0
383.06732,383.37653,77,100,0
383.38312,383.69232,85,100,0
383.38312,383.69232,73,100,0
383.69888,384.00812,86,100,0
383.69888,384.00812,74,100,0
384.01468,384.32388,88,100,0
384.01468,384.32388,76,100,0
384.33047,384.63968,83,100,0
384.33047,384.63968,71,100,0
384.64627,384.95547,85,100,0
384.64627,384.95547,73,100,0
384.96207,385.27127,74,90,0
385.11993,385.42917,86,91,0
385.27783,385.58707,76,93,0
385.43573,385.74493,86,94,0
385.59363,385.90283,78,96,0
385.75153,386.06073,86,98,0
385.90942,386.21863,79,99,0
386.06732,386.37653,86,100,0
386.22522,386.53442,77,100,0
386.38312,386.69232,86,100,0
386.541,386.85022,76,100,0
386.69888,387.00812,86,100,0
386.85678,387.166,77,100,0
387.01468,387.32388,86,100,0
387.17258,387.48178,73,100,0
387.33047,387.63968,85,100,0
387.48837,387.79758,74,100,0
387.64627,387.95547,86,100,0
387.80417,388.11337,76,100,0
387.96204,388.27127,88,100,0
388.11993,388.42917,71,100,0
388.27783,388.58704,83,100,0
388.43573,388.74493,73,100,0
388.59363,388.90283,85,100,0
388.75153,389.06073,74,120,0
388.90942,389.21863,86,100,0
389.06732,389.37653,73,100,0
389.22522,389.53442,74,100,0
389.3831,389.53442,74,100,0
389.541,389.8502,86,100,0
389.69888,390.0081,73,120,0
389.85678,390.166,74,100,0
390.01468,390.166,74,100,0
390.17258,390.48178,86,100,0
390.33047,390.63968,73,100,0
390.48837,390.79758,74,100,0
390.64627,390.79758,74,120,0
390.80414,391.11337,86,100,0
390.96204,391.27124,73,100,0
391.11993,391.42914,74,100,0
391.27783,391.42914,74,100,0
391.43573,391.74493,86,100,0
391.59363,391.90283,73,120,0
391.75153,392.06073,74,100,0
391.90942,392.06073,74,100,0
392.0673,392.37653,86,100,0
392.2252,392.53442,73,100,0
392.3831,392.69556,74,100,0
392.541,392.85684,75,90,0
392.70227,393.01813,74,89,0
392.86356,393.17944,75,87,0
393.02487,393.34073,74,86,0
393.18616,393.502,75,84,0
393.34744,393.6633,74,82,0
393.50873,393.8246,75,80,0
393.67,393.98587,74,80,0
393.8313,394.1472,75,80,0
393.9926,394.30847,74,80,0
394.1539,394.46976,75,80,0
394.3152,394.63104,74,80,0
394.47647,394.79233,75,80,0
394.63776,394.9536,74,80,0
394.79904,395.1149,75,80,0
394.96036,395.2762,74,80,0
395.12164,395.4375,75,80,0
395.28293,395.5988,74,80,0
395.4442,395.76007,75,80,0
395.6055,395.92136,74,80,0
395.76678,395.92136,75,80,0
395.92807,396.24396,75,80,0
396.0894,396.40524,81,80,0
396.25067,396.56653,82,80,0
396.41196,396.7278,84,80,0
396.8958,397.2117,75,80,0
397.05713,397.373,81,80,0
397.2184,397.53427,82,80,0
397.3797,397.69556,84,80,0
397.86356,398.1794,75,80,0
398.02487,398.34073,81,80,0
398.18616,398.502,82,80,0
398.34744,398.6633,84,80,0
398.8313,399.14716,75,80,0
398.9926,399.30847,81,80,0
399.1539,399.46976,82,80,0
399.3152,399.63104,84,80,0
399.79904,400.1149,75,80,0
399.96033,400.2762,84,80,0
400.12164,400.4375,81,80,0
400.28293,400.5988,82,80,0
400.76678,401.08264,67,82,0
400.92807,401.24396,70,83,0
401.0894,401.40524,74,84,0
401.73453,402.05038,67,87,0
401.8958,402.21167,70,88,0
402.05713,402.373,73,89,0
402.70227,403.01813,67,92,0
402.86356,403.1794,70,93,0
403.02484,403.34073,74,94,0
403.67,403.98587,67,97,0
403.8313,404.14716,70,98,0
403.99258,404.30847,76,99,0
404.63776,404.9536,77,80,0
404.79904,405.1149,83,80,0
404.96033,405.27618,85,80,0
405.12164,405.4375,86,80,0
405.6055,405.92136,77,80,0
405.76678,406.08264,83,80,0
405.92807,406.24393,85,80,0
406.0894,406.40524,86,80,0
406.57324,406.8891,77,80,0
406.73453,407.05038,83,80,0
406.8958,407.21167,85,80,0
407.0571,407.373,86,80,0
407.541,407.85684,77,80,0
407.70227,408.01813,86,80,0
407.86356,408.1794,83,80,0
408.02484,408.34073,85,80,0
408.50873,408.8246,69,82,0
408.67,408.98587,73,83,0
408.8313,409.14716,76,84,0
409.47647,409.79233,69,87,0
409.63776,409.9536,73,88,0
409.79904,410.1149,75,89,0
410.4442,410.76007,69,92,0
410.6055,410.92136,73,93,0
410.76678,411.08264,76,94,0
411.41196,411.7278,69,97,0
411.57324,411.8891,73,98,0
411.73453,412.05038,78,99,0
412.3797,412.69556,69,98,0
412.541,412.85684,73,97,0
412.70227,413.01813,79,96,0
413.34744,413.6633,69,93,0
413.50873,413.8246,73,92,0
413.67,413.98587,78,91,0
414.3152,414.63104,69,88,0
414.47647,414.79233,73,87,0
414.63776,414.9536,79,86,0
415.28293,415.5988,69,83,0
415.4442,415.76007,73,82,0
415.6055,415.92136,77,81,0
416.25067,416.56653,69,80,0
416.41196,416.7278,73,80,0
416.57324,416.8891,76,81,0
417.21838,417.53427,69,85,0
417.3797,417.69556,73,86,0
417.541,417.85684,75,87,0
418.18613,418.502,69,91,0
418.34744,418.6633,73,92,0
418.50873,418.8246,76,93,0
419.15387,419.46973,69,97,0
419.3152,419.63104,73,98,0
419.47647,419.79233,78,99,0
420.1216,420.43747,69,96,0
420.2829,420.5988,73,94,0
420.4442,420.76175,79,92,0
421.09464,421.41562,69,86,0
421.25766,421.58047,73,84,0
421.42252,421.7453,79,82,0
422.08368,422.41006,69,76,0
422.25034,422.57672,73,74,0
422.417,422.73825,79,72,0
423.06754,423.3834,69,120,0
423.22882,423.5447,77,120,0
423.39014,423.70273,76,120,0
423.22882,423.86063,81,127,0
423.55142,423.86063,74,120,0
424.0251,424.33432,69,120,0
424.18298,424.4922,77,120,0
424.34088,424.6501,76,120,0
424.18298,424.80798,81,127,0
424.49878,424.80798,74,120,0
424.97247,425.28168,69,120,0
425.13037,425.43958,77,120,0
425.28824,425.59747,76,120,0
425.13037,425.75537,81,127,0
425.44614,425.75537,74,120,0
425.91983,426.22903,69,120,0
426.07773,426.38693,77,120,0
426.23563,426.54483,74,120,0
426.07773,426.70273,81,127,0
426.39352,426.70273,76,120,0
426.8672,427.17642,69,120,0
427.0251,427.3343,79,120,0
427.18298,427.4922,77,120,0
427.0251,427.6501,81,127,0
427.34088,427.6501,76,120,0
427.81458,428.12378,69,120,0
427.97247,428.28168,79,120,0
428.13034,428.43958,77,120,0
427.97247,428.59747,81,127,0
428.28824,428.59747,76,120,0
428.76193,429.07114,69,120,0
428.91983,429.22903,79,120,0
429.07773,429.38693,77,120,0
428.91983,429.54483,81,127,0
429.23563,429.54483,76,120,0
429.7093,430.01852,69,120,0
429.8672,430.1764,79,120,0
430.0251,430.3343,76,120,0
429.8672,430.4922,81,127,0
430.18298,430.4922,77,110,0
430.65668,430.96588,74,88,0
430.81458,431.12378,81,88,0
430.97244,431.28168,86,88,0
431.13034,431.43954,82,86,0
431.60403,431.91324,70,89,0
431.76193,432.07114,74,91,0
431.91983,432.22903,82,92,0
432.07773,432.38693,79,93,0
432.5514,432.8606,67,96,0
432.7093,433.0185,70,97,0
432.8672,433.1764,79,98,0
433.0251,433.3343,76,100,0
433.49878,433.80798,64,96,0
433.65665,433.96588,69,94,0
433.81454,434.12378,76,92,0
433.97244,434.28165,77,91,0
434.44614,434.75534,65,86,0
434.60403,434.91324,69,84,0
434.76193,435.07114,77,82,0
434.91983,435.22903,74,80,0
435.3935,435.7027,62,87,0
435.5514,435.8606,69,89,0
435.7093,436.0185,74,92,0
435.8672,436.1764,73,94,0
436.34088,436.6501,61,102,0
436.49875,436.80798,69,104,0
436.65665,436.96588,73,107,0
436.81454,437.12375,74,110,0
437.44614,437.75534,65,110,0
437.60403,437.91324,69,110,0
437.76193,438.07114,74,110,0
437.9198,438.22903,77,110,0
438.0777,438.38693,81,110,0
438.2356,438.5448,77,110,0
438.3935,438.7027,86,110,0
438.5514,438.8606,81,110,0
438.7093,439.0185,82,86,0
439.18298,439.4922,70,89,0
439.34085,439.6501,74,91,0
439.49875,439.80798,82,92,0
439.65665,439.96585,79,93,0
440.13034,440.43954,67,96,0
440.28824,440.59744,70,97,0
440.44614,440.75534,79,98,0
440.60403,440.91324,76,100,0
441.0777,441.3869,64,96,0
441.2356,441.5448,69,94,0
441.3935,441.7027,76,92,0
441.5514,441.8606,77,91,0
442.0251,442.3343,65,86,0
442.18295,442.4922,69,84,0
442.34085,442.65005,77,82,0
442.49875,442.80795,74,80,0
442.97244,443.28165,62,87,0
443.13034,443.43954,69,89,0
443.28824,443.59744,74,92,0
443.4461,443.75534,73,94,0
443.9198,444.229,61,102,0
444.0777,444.3869,69,104,0
444.2356,444.5448,73,107,0
444.3935,444.7027,74,110,0
444.63034,444.78165,69,108,0
444.7093,445.3343,81,107,0
445.34085,445.5711,80,101,0
445.49875,445.729,79,99,0
445.65665,445.8869,78,97,0
445.81454,446.0448,77,96,0
445.97244,446.2027,76,94,0
446.13034,446.3606,75,92,0
446.2882,446.59744,74,80,0
446.7619,447.0711,62,87,0
446.9198,447.229,69,89,0
447.0777,447.3869,74,92,0
447.2356,447.5448,73,94,0
447.70926,448.0185,61,102,0
447.86716,448.1764,69,104,0
448.02505,448.33426,73,107,0
448.18295,448.49216,74,110,0
448.4198,448.49216,74,110,0
448.49875,449.12375,86,110,0
449.1303,449.3606,85,110,0
449.2882,449.5185,84,107,0
449.4461,449.67636,83,104,0
449.604,449.83426,82,101,0
449.7619,449.99216,81,97,0
449.9198,450.15005,80,94,0
450.0777,450.3869,81,80,0
450.55136,450.8606,62,87,0
450.70926,451.01846,69,90,0
450.86716,451.17636,74,94,0
451.02505,451.33426,73,98,0
451.49875,451.80795,61,109,0
451.65665,451.96585,69,112,0
451.8145,452.12375,73,116,0
451.9724,452.2027,74,119,0
452.20926,452.3606,74,120,0
452.2882,453.229,89,120,0
453.0777,453.3869,88,120,0
453.23557,453.5448,87,120,0
453.39346,453.7027,86,120,0
453.55136,453.86057,85,120,0
453.70926,454.01846,84,120,0
453.86716,454.0711,83,120,0
453.9724,454.17636,82,120,0
454.0777,454.28162,81,120,0
454.18295,454.3869,80,120,0
454.2882,454.49216,79,120,0
454.39346,454.5974,78,120,0
454.49875,454.65005,77,120,0
454.5777,454.729,76,120,0
454.65662,454.80795,75,120,0
454.73557,454.8869,74,120,0
454.8145,455.12375,81,120,0
455.4461,455.7553,69,120,0
455.7619,456.0711,74,80,0
456.23557,456.5448,69,80,0
456.39346,456.70267,77,80,0
456.55136,456.86057,74,80,0
456.70926,457.01846,73,80,0
457.18295,457.49216,69,80,0
457.34085,457.65005,76,80,0
457.49872,457.80795,73,80,0
457.65662,457.96585,74,80,0
458.1303,458.4395,81,80,0
458.2882,458.5974,89,80,0
458.4461,458.7553,86,80,0
458.604,458.9132,85,80,0
459.07767,459.38687,81,80,0
459.23557,459.54477,88,80,0
459.39346,459.70267,85,80,0
459.55136,459.86057,86,80,0
460.02505,460.33426,69,80,0
460.18295,460.49216,77,80,0
460.34082,460.65005,74,80,0
460.49872,460.80792,73,80,0
460.9724,461.28162,69,80,0
461.1303,461.4395,76,80,0
461.2882,461.5974,73,80,0
461.4461,461.7553,74,80,0
461.91977,462.22897,81,80,0
462.07767,462.38687,89,80,0
462.23557,462.54477,86,80,0
462.39346,462.70267,85,80,0
462.86716,463.17636,81,80,0
463.02502,463.33426,88,80,0
463.18292,463.49216,85,80,0
463.8145,464.12372,89,80,0
463.9724,464.28162,81,81,0
464.1303,464.4395,86,83,0
464.2882,464.5974,77,85,0
464.76187,465.07108,86,90,0
464.91977,465.22897,77,92,0
465.07767,465.38687,81,94,0
465.23557,465.54477,74,95,0
465.70926,466.01846,81,101,0
465.86713,466.17636,74,102,0
466.02502,466.33426,77,104,0
466.18292,466.49213,69,107,0
466.65662,466.96582,77,107,0
466.8145,467.12372,69,103,0
466.9724,467.28162,74,100,0
467.1303,467.4395,65,80,0
467.28818,467.5974,74,80,0
467.44608,467.7553,69,79,0
467.60397,467.91318,65,78,0
467.76187,468.07108,62,77,0
467.91977,468.23306,57,76,0
468.07767,468.39523,53,76,0
468.23984,468.57013,62,75,0
468.40198,468.74554,57,74,0
468.57742,468.93033,53,73,0
468.75287,469.17764,50,72,0
471.68805,472.17764,62,1,0
0.999999,1.3158591,50,80,0
1.3225795,1.6384395,62,80,0
1.4838698,1.7997298,65,80,0
1.1612892,1.9610201,57,80,0
1.9677405,2.2836006,50,80,0
2.290321,2.6061811,62,80,0
2.4516113,2.7674713,65,80,0
2.1290307,2.9287615,57,80,0
2.935482,3.251342,50,80,0
3.2580626,3.5739226,62,80,0
3.4193528,3.7352128,65,80,0
3.0967722,3.896503,57,80,0
3.9032235,4.219084,45,80,0
4.225804,4.541664,61,80,0
4.387094,4.7029543,64,80,0
4.0645137,4.8642445,57,80,0
4.870965,5.1868253,45,80,0
5.1935453,5.5094056,61,80,0
5.354836,5.670696,64,80,0
5.032255,5.831986,57,80,0
5.8387065,6.154567,45,80,0
6.161287,6.477147,61,80,0
6.3225775,6.6384373,64,80,0
5.9999967,6.7997274,57,80,0
6.806448,7.1223083,45,80,0
7.1290283,7.4448886,61,80,0
7.290319,7.6061788,64,80,0
6.967738,7.767469,57,80,0
7.7741895,8.09005,50,80,0
8.09677,8.41263,62,82,0
8.25806,8.57392,65,83,0
7.9354796,8.73521,57,81,0
8.741931,9.702952,55,86,0
8.903221,9.702952,62,87,0
9.064511,9.702952,67,88,0
9.709673,10.670693,51,93,0
9.870963,10.670693,58,94,0
10.032253,10.670693,63,95,0
10.677414,11.638435,49,100,0
10.838704,11.638435,57,99,0
10.999994,11.638435,61,97,0
11.645156,12.606176,50,91,0
11.806446,12.606176,57,89,0
11.967736,12.606176,62,87,0
12.612897,13.573918,45,80,0
12.774187,13.573918,53,82,0
12.935477,13.573918,57,84,0
13.580639,14.541659,45,94,0
13.741929,14.541659,52,97,0
13.903219,14.541659,55,99,0
14.064509,14.541659,57,102,0
14.54838,14.86424,38,110,0
14.70967,15.02553,50,110,0
14.87096,15.186821,53,110,0
15.03225,15.348111,57,110,0
15.193541,15.509401,62,110,0
16.483864,17.444883,55,86,0
16.645153,17.444883,62,87,0
16.806444,17.444883,67,88,0
17.451605,18.412626,51,93,0
17.612894,18.412626,58,94,0
17.774185,18.412626,63,95,0
18.419346,19.380367,49,100,0
18.580637,19.380367,57,99,0
18.741926,19.380367,61,97,0
19.387087,20.348108,50,91,0
19.548378,20.348108,57,89,0
19.709667,20.348108,62,87,0
20.35483,21.31585,45,80,0
20.516119,21.31585,53,82,0
20.67741,21.31585,57,84,0
21.32257,22.283592,45,94,0
21.48386,22.283592,52,97,0
21.645151,22.283592,55,99,0
21.80644,22.283592,57,102,0
22.290312,22.606173,38,110,0
22.451603,22.767462,53,109,0
22.612892,22.928753,57,107,0
22.774183,23.090042,62,106,0
24.225796,25.186815,45,80,0
24.387085,25.186815,53,82,0
24.548376,25.186815,57,84,0
25.193537,26.154558,45,94,0
25.354826,26.154558,52,97,0
25.516117,26.154558,55,99,0
25.677406,26.154558,57,102,0
26.161278,26.477139,38,110,0
26.322569,26.638428,53,110,0
26.483858,26.799719,57,110,0
26.64515,26.961008,62,110,0
28.096762,29.057781,45,80,0
28.25805,29.057781,53,83,0
28.419342,29.057781,57,87,0
29.064503,29.380363,45,102,0
29.225792,29.541653,52,106,0
29.387083,29.702944,55,109,0
29.548374,29.864233,33,110,0
29.709663,30.025524,41,110,0
29.870955,30.18356,40,110,0
30.032244,30.341454,38,110,0
30.505928,30.815138,33,110,0
30.663822,30.973032,41,110,0
30.821716,31.130926,40,110,0
30.97961,31.28882,38,110,0
31.453295,31.762505,33,110,0
31.611189,31.920399,41,110,0
31.769083,32.078293,40,110,0
31.926977,32.236187,38,110,0
32.40066,32.709873,33,110,0
32.558556,32.867767,41,110,0
32.71645,33.02566,38,110,0
32.874344,33.815132,43,110,0
32.874344,33.815132,31,110,0
33.821712,34.446712,36,110,0
33.821712,34.446712,48,110,0
34.1375,34.446712,52,110,0
34.45329,34.7625,55,110,0
34.769077,35.07829,60,110,0
35.08487,35.394077,64,110,0
35.400658,35.709866,60,110,0
35.716446,36.025658,55,110,0
36.032234,36.341446,52,110,0
36.348022,36.657234,55,110,0
36.663815,36.973022,52,110,0
36.979603,37.28881,48,110,0
37.137497,37.446705,31,110,0
37.29539,37.604603,40,110,0
37.453285,37.762497,38,110,0
37.61118,37.92039,36,110,0
38.08486,38.394073,31,110,0
38.24276,38.551968,40,110,0
38.400654,38.70986,38,110,0
38.558548,38.867756,36,110,0
39.03223,39.341442,31,110,0
39.190125,39.499336,40,110,0
39.34802,39.65723,38,110,0
39.505913,39.815125,36,110,0
39.9796,40.288807,31,110,0
40.137493,40.4467,40,110,0
40.295387,40.604595,36,110,0
40.45328,41.39407,29,110,0
40.45328,41.39407,41,110,0
41.400646,41.709858,28,110,0
41.400646,41.709858,40,110,0
41.71644,42.025646,62,110,0
41.71644,42.025646,59,110,0
41.874332,42.18354,64,110,0
42.032227,42.341434,56,110,0
42.19012,42.499332,64,110,0
42.348015,42.657227,62,110,0
42.348015,42.657227,59,110,0
42.50591,42.81512,64,110,0
42.663803,42.973015,56,110,0
42.821697,43.13091,64,110,0
42.97959,43.288803,62,110,0
42.97959,43.288803,59,110,0
43.13749,43.446697,64,110,0
43.295383,43.60459,56,110,0
43.453278,43.762486,64,110,0
43.61117,43.92038,62,110,0
43.61117,43.92038,59,110,0
43.769066,44.078274,64,110,0
43.92696,44.23617,56,110,0
44.084854,44.394066,64,110,0
44.24275,44.55196,62,110,0
44.24275,44.55196,59,110,0
44.400642,44.709854,64,110,0
44.558537,44.86775,56,110,0
44.71643,45.025642,64,110,0
44.87433,45.183537,62,110,0
44.87433,45.183537,59,110,0
45.032223,45.34143,64,110,0
45.190117,45.499325,56,110,0
45.34801,45.65722,64,110,0
45.505905,45.815117,62,110,0
45.505905,45.815117,59,110,0
45.6638,45.97301,64,110,0
45.821693,46.130905,56,110,0
45.979588,46.2888,64,110,0
46.13748,46.446693,62,100,0
46.13748,46.446693,59,100,0
46.295376,46.604588,64,99,0
46.453274,46.76248,56,97,0
46.611168,46.920376,64,96,0
46.769062,47.07827,59,94,0
46.769062,47.07827,62,94,0
46.926956,47.236164,64,92,0
47.08485,47.39406,57,80,0
47.242744,47.551956,64,80,0
47.40064,47.70985,60,80,0
47.558533,47.867744,64,80,0
47.716427,48.02564,57,80,0
47.87432,48.183533,64,80,0
48.032215,48.341427,52,80,0
48.190113,48.49932,62,80,0
48.348007,48.657215,59,80,0
48.5059,48.81511,62,80,0
48.663795,48.973003,52,80,0
48.82169,49.1309,62,80,0
48.979584,49.288795,60,80,0
48.979584,49.288795,57,80,0
49.137478,49.44669,64,80,0
49.295372,49.604584,62,110,0
49.295372,49.604584,59,110,0
49.453266,49.762478,64,110,0
49.61116,49.920372,56,110,0
49.76906,50.078266,64,110,0
49.926952,50.23616,62,110,0
49.926952,50.23616,59,110,0
50.084846,50.394054,64,110,0
50.24274,50.55195,56,110,0
50.400635,50.709843,64,110,0
50.55853,50.86774,62,110,0
50.55853,50.86774,59,110,0
50.716423,51.025635,64,110,0
50.874317,51.18353,56,110,0
51.03221,51.341423,64,110,0
51.190105,51.499317,62,110,0
51.190105,51.499317,59,110,0
51.348003,51.65721,64,110,0
51.505898,51.815105,56,110,0
51.66379,51.973,64,110,0
51.821686,52.130894,62,110,0
51.821686,52.130894,59,110,0
51.97958,52.288788,64,110,0
52.137474,52.446686,56,110,0
52.29537,52.60458,64,110,0
52.453262,52.762474,62,110,0
52.453262,52.762474,59,110,0
52.611156,52.92037,64,110,0
52.76905,53.078262,56,110,0
52.926945,53.236156,64,110,0
53.084843,53.39405,62,110,0
53.084843,53.39405,59,110,0
53.242737,53.551945,64,100,0
53.40063,53.70984,56,99,0
53.558525,53.867733,64,98,0
53.71642,54.02563,62,97,0
53.71642,54.02563,59,97,0
53.874313,54.183525,64,96,0
54.032207,54.34142,56,95,0
54.1901,54.499313,64,94,0
54.347996,54.657207,59,93,0
54.347996,54.657207,62,93,0
54.50589,54.8151,64,92,0
54.663788,54.972996,57,80,0
54.821682,55.13089,64,80,0
54.979576,55.288784,60,80,0
55.13747,55.44668,64,80,0
55.295364,55.604572,57,80,0
55.45326,55.76247,64,80,0
55.611153,55.920364,52,80,0
55.769047,56.07826,62,80,0
55.92694,56.236153,59,80,0
56.084835,56.394047,62,80,0
56.24273,56.55194,52,80,0
56.400627,56.709835,62,80,0
56.55852,56.86773,53,80,0
56.716415,57.025623,60,80,0
56.87431,57.183517,57,80,0
57.032204,57.341415,60,81,0
57.190098,57.49931,53,82,0
57.347992,57.657204,60,84,0
57.505886,57.815098,50,85,0
57.66378,57.972992,58,86,0
57.821674,58.130886,53,88,0
57.979572,58.28878,58,89,0
58.137466,58.446674,50,90,0
58.29536,58.60457,58,92,0
58.453255,58.762463,52,93,0
58.61115,58.920357,60,94,0
58.769043,59.078255,57,96,0
58.926937,59.23615,60,97,0
59.08483,59.394043,52,99,0
59.242725,59.551937,60,100,0
59.40062,59.70983,50,101,0
59.558514,59.867725,59,103,0
59.71641,60.02562,52,104,0
59.874306,60.183514,59,105,0
60.0322,60.341408,50,107,0
60.190094,60.51227,59,108,0
60.34799,60.6837,48,110,0
60.519417,60.85513,57,110,0
60.690845,61.026558,47,110,0
60.862274,61.197987,57,110,0
61.033703,61.369415,48,110,0
61.20513,61.540844,57,110,0
61.37656,61.70424,50,110,0
61.54799,61.862347,59,110,0
61.54799,61.862347,57,110,0
61.71103,62.02024,48,110,0
61.868927,62.178135,59,110,0
61.868927,62.178135,57,110,0
62.02682,62.33603,50,110,0
62.184715,62.493923,57,110,0
62.184715,62.493923,59,110,0
62.34261,62.651817,52,110,0
62.500504,62.80971,60,110,0
62.500504,62.80971,57,110,0
62.658398,62.96761,51,110,0
62.81629,63.125504,60,110,0
62.81629,63.125504,57,110,0
62.974186,63.283398,52,110,0
63.13208,63.44129,57,110,0
63.13208,63.44129,60,110,0
63.289974,63.599186,52,110,0
63.44787,63.75708,62,110,0
63.44787,63.75708,59,110,0
63.605766,63.914974,52,110,0
63.76366,64.07287,60,110,0
63.76366,64.07287,57,110,0
63.921555,64.23077,52,110,0
64.079445,64.38866,56,110,0
64.079445,64.38866,59,110,0
64.23734,64.546555,45,80,0
64.39524,64.704445,60,80,0
64.55313,64.86234,57,80,0
64.71103,65.02023,60,80,0
64.86892,65.17813,52,80,0
65.02682,65.33603,60,80,0
65.18471,65.49392,45,80,0
65.342606,65.65182,60,80,0
65.500496,65.80971,57,80,0
65.658394,65.967606,60,80,0
65.816284,66.125496,52,80,0
65.97418,66.283394,60,80,0
66.13208,66.441284,45,80,0
66.28997,66.59918,60,80,0
66.44787,66.75707,57,80,0
66.60576,66.91497,60,80,0
66.76366,67.07287,52,80,0
66.92155,67.23076,60,80,0
67.079445,67.38866,45,80,0
67.237335,67.54655,60,80,0
67.39523,67.704445,57,80,0
67.55312,67.862335,60,80,0
67.71102,68.02023,52,80,0
67.86892,68.17812,60,80,0
68.02681,68.33602,45,80,0
68.18471,68.49391,60,81,0
68.3426,68.65181,57,83,0
68.500496,68.80971,60,84,0
68.65839,68.9676,52,86,0
68.816284,69.125496,60,88,0
68.974174,69.28339,40,89,0
69.13207,69.441284,62,91,0
69.28997,69.599174,59,93,0
69.44786,69.75707,62,94,0
69.60576,69.91496,52,96,0
69.76365,70.07286,62,98,0
69.92155,70.23075,45,100,0
70.07944,70.38865,60,80,0
70.237335,70.54655,57,80,0
70.395226,70.70444,60,80,0
70.55312,70.862335,52,80,0
70.71101,71.020226,60,80,0
70.86891,71.17812,45,80,0
71.02681,71.33601,60,80,0
71.1847,71.49391,57,80,0
71.3426,71.6518,60,80,0
71.50049,71.8097,52,80,0
71.65839,71.9676,60,80,0
71.81628,72.12549,45,80,0
71.974174,72.28339,60,80,0
72.132065,72.44128,57,80,0
72.28996,72.599174,60,80,0
72.44785,72.757065,52,80,0
72.60575,72.91496,60,80,0
72.76365,73.07285,45,80,0
72.92154,73.23075,60,80,0
73.07944,73.38864,57,80,0
73.23733,73.54654,60,80,0
73.395226,73.70444,52,80,0
73.553116,73.86233,60,80,0
73.71101,74.020226,45,80,0
73.868904,74.178116,60,81,0
74.0268,74.33601,57,83,0
74.1847,74.493904,60,84,0
74.34259,74.6518,52,86,0
74.50049,74.80969,60,88,0
74.65838,74.96759,40,89,0
74.81628,75.12548,62,91,0
74.97417,75.28338,59,93,0
75.132065,75.44128,62,94,0
75.289955,75.59917,52,96,0
75.44785,75.757065,62,98,0
75.60574,75.914955,45,100,0
75.76364,76.07285,57,101,0
75.92154,76.23074,56,103,0
76.07943,76.38864,57,104,0
76.23733,76.54653,55,106,0
76.39522,76.70443,57,108,0
76.553116,76.86233,53,110,0
76.711006,77.02022,57,109,0
76.868904,77.178116,52,107,0
77.026794,77.336006,57,106,0
77.18469,77.493904,51,104,0
77.34258,77.651794,57,102,0
77.50048,77.80969,52,101,0
77.65838,77.96758,57,100,0
77.81627,78.12548,59,100,0
77.97417,78.28337,52,100,0
78.13206,78.44127,60,100,0
78.289955,78.59917,52,100,0
78.447845,78.75706,62,100,0
78.60574,78.914955,52,100,0
78.76363,79.072845,60,100,0
78.92153,79.23074,52,100,0
79.07942,79.38863,59,100,0
79.23732,79.54653,52,100,0
79.39522,79.70442,45,100,0
79.55311,79.86232,57,101,0
79.711006,80.02021,56,103,0
79.8689,80.17811,57,104,0
80.026794,80.336006,55,106,0
80.184685,80.4939,57,108,0
80.34258,80.651794,53,109,0
80.50047,80.809685,57,109,0
80.65837,80.96758,52,107,0
80.81627,81.12547,57,106,0
80.97416,81.28337,51,104,0
81.13206,81.44126,57,102,0
81.28995,81.59916,52,101,0
81.447845,81.75705,57,100,0
81.605736,81.91495,59,100,0
81.76363,82.072845,52,100,0
81.921524,82.230736,60,100,0
82.07942,82.38863,52,100,0
82.23731,82.546524,62,100,0
82.39521,82.70442,52,100,0
82.55311,82.86231,60,100,0
82.711,83.02021,52,100,0
82.8689,83.1781,59,100,0
83.02679,83.336,52,100,0
83.184685,83.4939,45,112,0
83.342575,83.65179,57,100,0
83.50047,83.809685,56,100,0
83.65836,83.967575,57,100,0
83.81626,84.12547,45,100,0
83.97415,84.28336,57,100,0
84.13205,84.44126,56,120,0
84.28995,84.59915,57,100,0
84.44784,84.75705,45,100,0
84.605736,84.91494,57,100,0
84.763626,85.07284,56,100,0
84.921524,85.230736,57,100,0
85.079414,85.388626,45,112,0
85.23731,85.546524,57,100,0
85.3952,85.704414,56,100,0
85.5531,85.86231,57,100,0
85.711,86.0202,45,100,0
85.86889,86.1781,57,100,0
86.02679,86.33599,56,120,0
86.18468,86.49389,57,100,0
86.342575,86.65178,45,100,0
86.500465,86.80968,57,100,0
86.65836,86.967575,56,100,0
86.81625,87.12872,57,100,0
86.97415,87.29001,67,100,0
86.97415,87.29001,64,100,0
86.97415,87.29001,61,100,0
90.845116,91.16098,50,80,0
91.167694,91.48356,62,80,0
91.32899,91.644844,65,80,0
91.00641,91.80614,57,80,0
91.81286,92.128716,50,80,0
92.13544,92.4513,62,80,0
92.29673,92.61259,65,80,0
91.97415,92.77388,57,80,0
92.7806,93.09646,50,80,0
93.10318,93.41904,62,80,0
93.26447,93.58033,65,80,0
92.94189,93.74162,57,80,0
93.748344,94.0642,45,80,0
94.07092,94.38678,61,80,0
94.23221,94.54807,64,80,0
93.90963,94.709366,57,80,0
94.71608,95.031944,45,80,0
95.038666,95.35452,61,80,0
95.19995,95.515816,64,80,0
94.87737,95.6771,57,80,0
95.68382,95.99969,45,80,0
96.0064,96.322266,61,80,0
96.167694,96.48356,64,80,0
95.845116,96.644844,57,80,0
96.651566,96.96742,45,80,0
96.974144,97.29001,61,80,0
97.13544,97.451294,64,80,0
96.81286,97.61259,57,80,0
97.61931,97.935165,50,80,0
97.94189,98.25775,62,82,0
98.10318,98.41904,65,83,0
97.780594,98.58033,57,81,0
98.58705,99.54807,55,86,0
98.74834,99.54807,62,87,0
98.90963,99.54807,67,88,0
99.55479,100.51581,51,93,0
99.71608,100.51581,58,94,0
99.87737,100.51581,63,95,0
100.52253,101.48355,49,100,0
100.68382,101.48355,57,99,0
100.845116,101.48355,61,97,0
101.49027,102.451294,50,91,0
101.651566,102.451294,57,89,0
101.81285,102.451294,62,87,0
102.458015,103.41904,45,80,0
102.61931,103.41904,53,82,0
102.780594,103.41904,57,84,0
103.42576,104.38678,45,94,0
103.58704,104.38678,52,97,0
103.74834,104.38678,55,99,0
103.90963,104.38678,57,102,0
104.3935,104.70936,38,110,0
104.55479,104.87065,50,110,0
104.71608,105.03194,53,110,0
104.877365,105.19323,57,110,0
105.03866,105.354515,62,110,0
106.32898,107.29,55,86,0
106.49027,107.29,62,87,0
106.65156,107.29,67,88,0
107.29672,108.257744,51,93,0
107.458015,108.257744,58,94,0
107.6193,108.257744,63,95,0
108.264465,109.22549,49,100,0
108.42575,109.22549,57,99,0
108.58704,109.22549,61,97,0
109.23221,110.19323,50,91,0
109.39349,110.19323,57,89,0
109.55479,110.19323,62,87,0
110.19994,111.160965,45,80,0
110.36124,111.160965,53,82,0
110.52253,111.160965,57,84,0
111.16769,112.12871,45,94,0
111.32898,112.12871,52,97,0
111.49027,112.12871,55,99,0
111.65156,112.12871,57,102,0
112.13543,112.45129,38,110,0
112.29672,112.61258,53,109,0
112.45801,112.77387,57,107,0
112.6193,112.93516,62,106,0
114.070915,115.03194,45,80,0
114.2322,115.03194,53,82,0
114.39349,115.03194,57,84,0
115.03865,115.99967,45,94,0
115.19994,115.99967,52,97,0
115.36124,115.99967,55,99,0
115.52252,115.99967,57,102,0
116.00639,116.32226,38,110,0
116.16769,116.48354,53,110,0
116.32898,116.64484,57,110,0
116.490265,116.80613,62,110,0
117.94188,118.9029,45,80,0
118.10317,118.9029,53,83,0
118.26446,118.9029,57,87,0
118.90962,119.22548,45,102,0
119.07091,119.38677,52,106,0
119.2322,119.54323,55,109,0
119.39349,119.69948,33,110,0
119.54974,119.85573,41,110,0
119.70599,120.01198,40,110,0
119.86224,120.16823,38,110,0
120.33099,120.63698,33,110,0
120.48724,120.79323,41,110,0
120.64349,120.94948,40,110,0
120.79974,121.10573,38,110,0
121.26849,121.57448,33,110,0
121.42474,121.73073,41,110,0
121.58099,121.88698,40,110,0
121.73724,122.04323,38,110,0
122.20599,122.51198,33,110,0
122.36224,122.66823,41,110,0
122.51849,122.82448,38,110,0
122.67474,123.60573,43,110,0
122.67474,123.60573,31,110,0
123.61224,124.23073,36,110,0
123.61224,124.23073,48,110,0
123.92474,124.23073,52,110,0
124.23724,124.54323,55,110,0
124.54974,124.85573,60,110,0
124.86224,125.16823,64,110,0
125.17474,125.48073,60,110,0
125.48724,125.79323,55,110,0
125.79974,126.10573,52,110,0
126.11224,126.41823,55,110,0
126.42474,126.73073,52,110,0
126.73724,127.04323,48,110,0
126.89349,127.19948,31,110,0
127.04974,127.35573,40,110,0
127.20599,127.51198,38,110,0
127.36224,127.66823,36,110,0
127.83099,128.13698,31,110,0
127.98724,128.29323,40,110,0
128.1435,128.44948,38,110,0
128.29974,128.60573,36,110,0
128.7685,129.07448,31,110,0
128.92474,129.23073,40,110,0
129.081,129.38698,38,110,0
129.23724,129.54323,36,110,0
129.706,130.01198,31,110,0
129.86224,130.16823,40,110,0
130.0185,130.32448,36,110,0
130.17474,131.10573,29,110,0
130.17474,131.10573,41,110,0
131.11224,131.41823,28,110,0
131.11224,131.41823,40,110,0
131.42474,131.73073,62,110,0
131.42474,131.73073,59,110,0
131.581,131.88698,64,110,0
131.73724,132.04323,56,110,0
131.8935,132.19948,64,110,0
132.04974,132.35573,62,110,0
132.04974,132.35573,59,110,0
132.206,132.51198,64,110,0
132.36224,132.66823,56,110,0
132.5185,132.82448,64,110,0
132.67474,132.98073,62,110,0
132.67474,132.98073,59,110,0
132.831,133.13698,64,110,0
132.98724,133.29323,56,110,0
133.1435,133.44948,64,110,0
133.29974,133.60573,62,110,0
133.29974,133.60573,59,110,0
133.456,133.76198,64,110,0
133.61224,133.91823,56,110,0
133.7685,134.07448,64,110,0
133.92474,134.23073,62,110,0
133.92474,134.23073,59,110,0
134.081,134.38698,64,110,0
134.23724,134.54323,56,110,0
134.3935,134.69948,64,110,0
134.54974,134.85573,62,110,0
134.54974,134.85573,59,110,0
134.706,135.01198,64,110,0
134.86224,135.16823,56,110,0
135.0185,135.32448,64,110,0
135.17474,135.48073,62,110,0
135.17474,135.48073,59,110,0
135.331,135.63698,64,110,0
135.48724,135.79323,56,110,0
135.6435,135.94948,64,110,0
135.79974,136.10573,62,100,0
135.79974,136.10573,59,100,0
135.956,136.26198,64,99,0
136.11224,136.41823,56,97,0
136.2685,136.57448,64,96,0
136.42474,136.73073,59,94,0
136.42474,136.73073,62,94,0
136.581,136.88698,64,92,0
136.73724,137.04323,57,80,0
136.8935,137.19948,64,80,0
137.04974,137.35573,60,80,0
137.206,137.51198,64,80,0
137.36224,137.66823,57,80,0
137.5185,137.82448,64,80,0
137.67474,137.98073,52,80,0
137.831,138.13698,62,80,0
137.98724,138.29323,59,80,0
138.1435,138.44948,62,80,0
138.29974,138.60573,52,80,0
138.456,138.76198,62,80,0
138.61224,138.91823,60,80,0
138.61224,138.91823,57,80,0
138.7685,139.07448,64,80,0
138.92474,139.23073,62,110,0
138.92474,139.23073,59,110,0
139.081,139.38698,64,110,0
139.23724,139.54323,56,110,0
139.3935,139.69948,64,110,0
139.54974,139.85573,62,110,0
139.54974,139.85573,59,110,0
139.706,140.01198,64,110,0
139.86224,140.16823,56,110,0
140.0185,140.32448,64,110,0
140.17474,140.48073,62,110,0
140.17474,140.48073,59,110,0
140.331,140.63698,64,110,0
140.48724,140.79323,56,110,0
140.6435,140.94948,64,110,0
140.79974,141.10573,62,110,0
140.79974,141.10573,59,110,0
140.956,141.26198,64,110,0
141.11224,141.41823,56,110,0
141.2685,141.57448,64,110,0
141.42474,141.73073,62,110,0
141.42474,141.73073,59,110,0
141.581,141.88698,64,110,0
141.73724,142.04323,56,110,0
141.8935,142.19948,64,110,0
142.04974,142.35573,62,110,0
142.04974,142.35573,59,110,0
142.206,142.51198,64,110,0
142.36224,142.66823,56,110,0
142.5185,142.82448,64,110,0
142.67474,142.98073,62,110,0
142.67474,142.98073,59,110,0
142.831,143.13698,64,100,0
142.98724,143.29323,56,99,0
143.1435,143.44948,64,98,0
143.29974,143.60573,62,97,0
143.29974,143.60573,59,97,0
143.456,143.76198,64,96,0
143.61224,143.91823,56,95,0
143.7685,144.07448,64,94,0
143.92474,144.23073,59,93,0
143.92474,144.23073,62,93,0
144.081,144.38698,64,92,0
144.23724,144.54323,57,80,0
144.3935,144.69948,64,80,0
144.54974,144.85573,60,80,0
144.706,145.01198,64,80,0
144.86224,145.16823,57,80,0
145.0185,145.32448,64,80,0
145.17474,145.48073,52,80,0
145.331,145.63698,62,80,0
145.48724,145.79323,59,80,0
145.6435,145.94948,62,80,0
145.79974,146.10573,52,80,0
145.956,146.26198,62,80,0
146.11224,146.41823,53,80,0
146.2685,146.57448,60,80,0
146.42474,146.73073,57,80,0
146.581,146.88698,60,81,0
146.73724,147.04323,53,82,0
146.8935,147.19948,60,84,0
147.04974,147.35573,50,85,0
147.206,147.51198,58,86,0
147.36224,147.66823,53,88,0
147.5185,147.82448,58,89,0
147.67474,147.98073,50,90,0
147.831,148.13698,58,92,0
147.98724,148.29323,52,93,0
148.1435,148.44948,60,94,0
148.29974,148.60573,57,96,0
148.456,148.76198,60,97,0
148.61224,148.91823,52,99,0
148.7685,149.07448,60,100,0
148.92474,149.23073,50,101,0
149.081,149.38698,59,103,0
149.23724,149.54323,52,104,0
149.3935,149.69948,59,105,0
149.54974,149.87122,50,107,0
149.706,150.04364,59,108,0
149.8784,150.21605,48,110,0
150.05081,150.38846,57,110,0
150.22324,150.56088,47,110,0
150.39565,150.73329,57,110,0
150.56805,150.9057,48,110,0
150.74048,151.07811,57,110,0
150.91289,151.24155,50,110,0
151.0853,151.40459,59,110,0
151.0853,151.40459,57,110,0
151.24834,151.56764,48,110,0
151.41139,151.72575,59,110,0
151.41139,151.72575,57,110,0
151.57443,151.88364,50,110,0
151.73233,152.04153,57,110,0
151.73233,152.04153,59,110,0
151.89021,152.19943,52,110,0
152.04811,152.35733,60,110,0
152.04811,152.35733,57,110,0
152.20601,152.51521,51,110,0
152.3639,152.67311,60,110,0
152.3639,152.67311,57,110,0
152.5218,152.83101,52,110,0
152.67969,152.9889,57,110,0
152.67969,152.9889,60,110,0
152.83759,153.14679,52,110,0
152.99548,153.30469,62,110,0
152.99548,153.30469,59,110,0
153.15338,153.46259,52,110,0
153.31126,153.62048,60,110,0
153.31126,153.62048,57,110,0
153.46916,153.77838,52,110,0
153.62706,153.93626,56,110,0
153.62706,153.93626,59,110,0
153.78496,154.09416,45,80,0
153.94286,154.25206,60,80,0
154.10074,154.40996,57,80,0
154.25864,154.56784,60,80,0
154.41653,154.72574,52,80,0
154.57443,154.88364,60,80,0
154.73232,155.04153,45,80,0
154.89021,155.19943,60,80,0
155.04811,155.35732,57,80,0
155.20601,155.51521,60,80,0
155.36389,155.67311,52,80,0
155.52179,155.83101,60,80,0
155.67969,155.98889,45,80,0
155.83759,156.14679,60,80,0
155.99548,156.30469,57,80,0
156.15337,156.46259,60,80,0
156.31126,156.62048,52,80,0
156.46916,156.77837,60,80,0
156.62706,156.93626,45,80,0
156.78494,157.09416,60,80,0
156.94284,157.25206,57,80,0
157.10074,157.40994,60,80,0
157.25864,157.56784,52,80,0
157.41653,157.72574,60,80,0
157.57442,157.88364,45,80,0
157.73232,158.04152,60,81,0
157.89021,158.19942,57,83,0
158.04811,158.35732,60,84,0
158.206,158.51521,52,86,0
158.36389,158.67311,60,88,0
158.52179,158.831,40,89,0
158.67969,158.98889,62,91,0
158.83757,159.14679,59,93,0
158.99547,159.30469,62,94,0
159.15337,159.46257,52,96,0
159.31126,159.62047,62,98,0
159.46916,159.77837,45,100,0
159.62704,159.93626,60,80,0
159.78494,160.09416,57,80,0
159.94284,160.25204,60,80,0
160.10074,160.40994,52,80,0
160.25862,160.56784,60,80,0
160.41652,160.72574,45,80,0
160.57442,160.88362,60,80,0
160.73232,161.04152,57,80,0
160.89021,161.19942,60,80,0
161.0481,161.35732,52,80,0
161.206,161.5152,60,80,0
161.36389,161.6731,45,80,0
161.52179,161.831,60,80,0
161.67967,161.98889,57,80,0
161.83757,162.14679,60,80,0
161.99547,162.30467,52,80,0
162.15337,162.46257,60,80,0
162.31126,162.62047,45,80,0
162.46915,162.77837,60,80,0
162.62704,162.93625,57,80,0
162.78494,163.09415,60,80,0
162.94284,163.25204,52,80,0
163.10072,163.40994,60,80,0
163.25862,163.56784,45,80,0
163.41652,163.72572,60,81,0
163.57442,163.88362,57,83,0
163.7323,164.04152,60,84,0
163.8902,164.19942,52,86,0
164.0481,164.3573,60,88,0
164.206,164.5152,40,89,0
164.36389,164.6731,62,91,0
164.52177,164.831,59,93,0
164.67967,164.98889,62,94,0
164.83757,165.14677,52,96,0
164.99547,165.30467,62,98,0
165.15335,165.46257,45,100,0
165.31125,165.62047,57,101,0
165.46915,165.77835,56,103,0
165.62704,165.93625,57,104,0
165.78494,166.09415,55,106,0
165.94283,166.25204,57,108,0
166.10072,166.40993,53,110,0
166.25862,166.56783,57,109,0
166.41652,166.72572,52,107,0
166.5744,166.88362,57,106,0
166.7323,167.04152,51,104,0
166.8902,167.1994,57,102,0
167.0481,167.3573,52,101,0
167.206,167.5152,57,100,0
167.36388,167.6731,59,100,0
167.52177,167.83098,52,100,0
167.67967,167.98888,60,100,0
167.83757,168.14677,52,100,0
167.99545,168.30467,62,100,0
168.15335,168.46257,52,100,0
168.31125,168.62045,60,100,0
168.46915,168.77835,52,100,0
168.62703,168.93625,59,100,0
168.78493,169.09415,52,100,0
168.94283,169.25203,45,100,0
169.10072,169.40993,57,101,0
169.25862,169.56783,56,103,0
169.4165,169.72572,57,104,0
169.5744,169.88362,55,106,0
169.7323,170.0415,57,108,0
169.8902,170.1994,53,109,0
170.04808,170.3573,57,109,0
170.20598,170.5152,52,107,0
170.36388,170.67308,57,106,0
170.52177,170.83098,51,104,0
170.67967,170.98888,57,102,0
170.83755,171.14677,52,101,0
170.99545,171.30466,57,100,0
171.15335,171.46255,59,100,0
171.31125,171.62045,52,100,0
171.46913,171.77835,60,100,0
171.62703,171.93625,52,100,0
171.78493,172.09413,62,100,0
171.94283,172.25203,52,100,0
172.10072,172.40993,60,100,0
172.2586,172.56783,52,100,0
172.4165,172.72571,59,100,0
172.5744,172.8836,52,100,0
172.7323,173.0415,45,112,0
172.89018,173.1994,57,100,0
173.04808,173.3573,56,100,0
173.20598,173.51518,57,100,0
173.36388,173.67308,45,100,0
173.52176,173.83098,57,100,0
173.67966,173.98888,56,120,0
173.83755,174.14676,57,100,0
173.99545,174.30466,45,100,0
174.15335,174.46255,57,100,0
174.31123,174.62045,56,100,0
174.46913,174.77835,57,100,0
174.62703,174.93623,45,112,0
174.78493,175.09413,57,100,0
174.94281,175.25203,56,100,0
175.10071,175.40993,57,100,0
175.2586,175.56781,45,100,0
175.4165,175.72571,57,100,0
175.5744,175.8836,56,120,0
175.73228,176.0415,57,100,0
175.89018,176.19939,45,100,0
176.04808,176.35728,57,100,0
176.20598,176.51518,56,100,0
176.36386,176.67633,57,100,0
176.52176,176.83762,67,100,0
176.52176,176.83762,64,100,0
176.52176,176.83762,61,100,0
180.55402,181.03117,69,80,0
180.7153,181.03117,72,80,0
180.39273,181.35374,66,80,0
181.52176,181.99892,69,80,0
181.68304,181.99892,72,80,0
181.36047,182.32149,66,80,0
182.4895,182.96664,69,80,0
182.65079,182.96664,72,80,0
182.32822,183.28923,66,80,0
183.45724,183.93439,69,80,0
183.61853,183.93439,72,80,0
183.29596,184.25697,66,80,0
184.26369,184.88219,31,110,0
184.41994,185.03844,34,110,0
184.57619,185.19469,38,110,0
184.73244,185.19469,43,110,0
185.20119,185.81969,43,110,0
185.35744,185.97594,46,110,0
185.51369,186.13219,50,110,0
185.66994,186.13219,55,110,0
186.13869,186.75719,55,110,0
186.29494,186.91344,58,110,0
186.45119,187.06969,62,110,0
186.60744,187.06969,67,110,0
187.07619,187.38219,67,110,0
187.23244,187.53844,70,110,0
187.38869,187.69469,74,110,0
187.54494,187.85094,72,110,0
187.70119,188.00719,70,110,0
187.85744,188.1691,69,110,0
188.17586,188.49342,71,80,0
188.33801,188.65558,74,80,0
188.01369,188.9799,68,80,0
189.14883,189.4664,71,80,0
189.31099,189.62856,74,80,0
188.98666,189.95288,68,80,0
190.1218,190.43936,71,80,0
190.28397,190.60153,74,80,0
189.95964,190.92586,68,80,0
191.09477,191.41234,71,80,0
191.25693,191.5745,74,80,0
190.93262,191.89882,68,80,0
191.90558,192.52408,33,110,0
192.06183,192.68033,36,110,0
192.21808,192.83658,40,110,0
192.37433,192.83658,45,110,0
192.84308,193.46158,45,110,0
192.99933,193.61783,48,110,0
193.15558,193.77408,52,110,0
193.31183,193.77408,57,110,0
193.78058,194.39908,57,110,0
193.93683,194.55533,60,110,0
194.09308,194.71158,64,110,0
194.24933,194.71158,69,110,0
194.87433,195.18033,45,110,0
195.03058,195.33658,46,110,0
195.18683,195.49283,43,110,0
195.34308,195.64908,52,110,0
195.49933,195.80533,50,110,0
195.65558,195.96158,49,100,0
196.12433,196.43033,49,100,0
196.28058,196.58658,55,100,0
196.43683,196.74283,53,100,0
196.59308,196.89908,52,100,0
197.06183,197.36783,52,100,0
197.21808,197.52408,58,100,0
197.37433,197.68033,57,100,0
197.53058,197.83658,55,100,0
197.99933,198.30533,55,100,0
198.15558,198.46158,64,100,0
198.31183,198.61783,62,100,0
198.46808,198.77408,61,100,0
198.93683,199.24283,41,100,0
199.09308,199.39908,45,100,0
199.24933,199.55533,43,100,0
199.40558,199.71158,41,100,0
199.87433,200.18033,41,100,0
200.03058,200.33658,53,100,0
200.18683,200.49283,52,100,0
200.34308,200.64908,50,100,0
200.81183,201.11783,50,100,0
200.96808,201.27408,57,100,0
201.12433,201.43033,55,100,0
201.28058,201.58658,53,100,0
201.74933,202.05533,53,100,0
201.90558,202.21158,65,100,0
202.06183,202.36783,64,100,0
202.21808,202.52408,62,100,0
202.37433,202.68033,65,100,0
202.53058,202.83658,68,100,0
203.31183,203.61783,38,100,0
203.46808,203.77408,41,100,0
203.62433,203.93033,44,100,0
203.78058,204.08658,47,100,0
204.24933,204.55533,41,100,0
204.40558,204.71158,44,100,0
204.56183,204.86783,47,100,0
204.71808,205.02408,50,100,0
205.18683,205.49283,47,100,0
205.34308,205.64908,50,100,0
205.49933,205.80533,53,100,0
205.65558,205.96158,56,100,0
206.12433,206.43033,56,100,0
206.28058,206.58658,55,100,0
206.43683,206.74283,53,100,0
206.59308,206.89908,51,100,0
206.74933,207.05533,50,100,0
206.90558,207.21158,48,100,0
207.06183,207.36783,39,100,0
207.21808,207.52408,43,100,0
207.37433,207.68033,48,100,0
207.99933,208.30533,43,100,0
208.15558,208.46158,48,100,0
208.31183,208.61783,51,100,0
208.93683,209.24283,48,100,0
209.09308,209.39908,51,100,0
209.24933,209.55533,55,100,0
210.18683,210.49283,36,100,0
210.34308,210.64908,48,100,0
210.49933,210.80533,46,100,0
210.65558,210.96158,45,100,0
211.12433,211.43033,45,100,0
211.28058,211.58658,51,100,0
211.43683,211.74283,49,100,0
211.59308,211.89908,48,100,0
212.06183,212.36783,48,100,0
212.21808,212.52408,54,100,0
212.37433,212.68033,53,100,0
212.53058,212.83658,51,100,0
212.99933,213.30533,51,100,0
213.15558,213.46158,60,100,0
213.31183,213.61783,58,100,0
213.46808,213.77408,57,100,0
213.93683,214.24283,37,100,0
214.09308,214.39908,49,100,0
214.24933,214.55533,48,100,0
214.40558,214.71158,46,100,0
214.87433,215.18033,46,100,0
215.03058,215.33658,53,100,0
215.18683,215.49283,51,100,0
215.34308,215.64908,49,100,0
215.81183,216.11783,49,100,0
215.96808,216.27408,61,100,0
216.12433,216.43033,60,100,0
216.28058,216.58658,58,100,0
216.74933,217.05533,58,100,0
216.90558,217.21158,65,100,0
217.06183,217.36783,63,100,0
217.21808,217.52408,61,100,0
217.37433,217.68033,65,100,0
217.53058,217.83658,70,100,0
218.31183,218.61783,39,100,0
218.46808,218.77408,42,100,0
218.62433,218.93033,46,100,0
219.24933,219.55533,42,100,0
219.40558,219.71158,46,100,0
219.56183,219.86783,51,100,0
220.18683,220.49283,46,100,0
220.34308,220.64908,51,100,0
220.49933,220.80533,54,100,0
221.12433,221.43033,51,100,0
221.28058,221.58658,54,100,0
221.43683,221.74283,58,100,0
222.06183,222.36783,41,100,0
222.21808,222.52408,46,100,0
222.37433,222.68033,49,100,0
222.99933,223.30533,46,100,0
223.15558,223.46158,49,100,0
223.31183,223.61783,53,100,0
223.93683,224.24283,49,100,0
224.09308,224.39908,53,100,0
224.24933,224.55533,58,100,0
224.87433,225.18033,53,100,0
225.03058,225.33658,58,100,0
225.18683,225.49283,61,100,0
225.81183,226.11783,42,100,0
225.96808,226.27408,46,100,0
226.12433,226.43033,49,100,0
226.74933,227.05533,54,100,0
226.90558,227.21158,58,100,0
227.06183,227.36783,61,100,0
227.68683,227.99283,43,100,0
227.84308,228.14908,46,100,0
227.99933,228.30533,49,100,0
228.62433,228.93033,55,100,0
228.78058,229.08658,58,100,0
228.93683,229.24283,63,100,0
229.56183,229.86783,44,101,0
229.71808,230.02408,48,102,0
229.87433,230.18033,51,103,0
230.49933,230.80533,57,108,0
230.65558,230.96158,60,109,0
230.81183,231.11783,63,120,0
231.43683,231.74283,45,120,0
231.59308,231.89908,48,120,0
231.74933,232.05533,53,120,0
232.37433,232.68033,57,107,0
232.53058,232.83658,60,97,0
233.15558,233.46158,46,80,0
233.46808,233.77408,58,80,0
233.62433,233.93033,61,80,0
233.31183,234.08658,53,80,0
234.09308,234.39908,46,80,0
234.40558,234.71158,58,80,0
234.56183,234.86783,61,80,0
234.24933,235.02408,53,80,0
235.03058,235.33658,46,80,0
235.34308,235.64908,58,80,0
235.49933,235.80533,61,80,0
235.18683,235.96158,53,80,0
235.96808,236.27408,41,80,0
236.28058,236.58658,57,80,0
236.43683,236.74283,60,80,0
236.12433,236.89908,53,80,0
236.90558,237.21158,41,80,0
237.21808,237.52408,57,80,0
237.37433,237.68033,60,80,0
237.06183,237.83658,53,80,0
237.84308,238.14908,41,80,0
238.15558,238.46158,57,80,0
238.31183,238.61783,60,80,0
237.99933,238.77408,53,80,0
238.78058,239.08658,41,80,0
239.09308,239.39908,57,80,0
239.24933,239.55533,60,80,0
238.93683,239.71158,53,80,0
239.71808,240.02408,46,80,0
240.03058,240.33658,58,80,0
240.18683,240.49283,61,80,0
239.87433,240.64908,53,80,0
240.65558,240.96158,46,80,0
240.96808,241.27408,58,80,0
241.12433,241.43033,61,81,0
240.81183,241.58658,53,80,0
241.59308,241.89908,46,82,0
241.90558,242.21158,58,83,0
242.06183,242.36783,61,83,0
241.74933,242.52408,53,82,0
242.53058,242.83658,46,84,0
242.68683,243.14908,54,85,0
242.84308,243.14908,58,85,0
242.99933,243.30533,61,86,0
243.46808,243.77408,46,87,0
243.62433,244.08658,54,87,0
243.78058,244.08658,58,88,0
243.93683,244.24283,61,88,0
244.40558,244.71158,46,89,0
244.56183,245.02408,55,90,0
244.71808,245.02408,61,90,0
244.87433,245.18033,64,91,0
245.34308,245.64908,46,92,0
245.49933,245.96158,55,92,0
245.65558,245.96158,61,93,0
245.81183,246.11783,64,93,0
246.28058,246.58658,46,94,0
246.59308,246.89908,62,95,0
246.74933,247.05533,65,96,0
246.43683,247.21158,56,95,0
247.21808,247.52408,46,97,0
247.53058,247.83658,62,98,0
247.68683,247.99283,65,98,0
247.37433,248.14908,56,97,0
248.15558,248.46158,46,99,0
248.46808,248.77408,62,100,0
248.62433,248.93033,65,101,0
248.31183,249.08658,56,100,0
249.09308,249.39908,46,102,0
249.40558,249.71158,62,103,0
249.56183,249.86783,65,103,0
249.24933,250.02408,56,102,0
250.03058,250.33658,45,110,0
250.18683,250.64908,57,110,0
250.34308,250.64908,61,110,0
250.49933,250.80533,64,110,0
250.96808,251.27408,50,110,0
251.12433,251.58658,57,110,0
251.28058,251.58658,62,110,0
251.43683,251.74283,65,110,0
251.90558,252.21158,45,110,0
252.06183,252.52408,57,110,0
252.21808,252.52408,61,110,0
252.37433,252.68033,64,110,0
252.84308,253.14908,50,110,0
252.99933,253.46158,57,110,0
253.15558,253.46158,62,110,0
253.31183,253.61783,65,110,0
253.78058,254.08658,45,100,0
254.09308,254.39908,61,91,0
253.93683,254.71158,57,96,0
254.24933,254.71158,64,80,0
254.87433,255.33658,57,80,0
254.71808,255.64908,55,80,0
255.03058,255.64908,64,80,0
255.81183,256.27408,52,80,0
255.65558,256.58658,49,80,0
255.96808,256.58658,57,80,0
256.74933,257.21158,53,80,0
256.59308,257.52408,50,80,0
256.90558,257.52408,57,80,0
257.53058,257.83658,45,80,0
257.84308,258.14908,61,80,0
257.68683,258.46158,57,80,0
257.99933,258.46158,64,80,0
258.62433,259.08658,57,80,0
258.46808,259.39908,55,80,0
258.78058,259.39908,64,80,0
259.56183,260.02408,52,80,0
259.40558,260.33658,49,80,0
259.71808,260.33658,57,80,0
260.49933,260.96158,53,80,0
260.34308,261.27408,50,80,0
260.65558,261.27408,57,80,0
261.28058,261.58658,50,80,0
261.43683,262.21158,62,80,0
261.59308,262.21158,66,80,0
261.74933,262.21158,69,80,0
262.37433,262.83658,62,80,0
262.21808,263.14908,60,80,0
262.53058,263.14908,69,80,0
263.31183,263.77408,57,80,0
263.15558,264.08658,54,80,0
263.46808,264.08658,63,80,0
264.24933,264.71158,58,80,0
264.09308,265.02408,55,80,0
264.40558,265.02408,62,80,0
265.03058,265.33658,50,80,0
265.18683,265.96158,62,80,0
265.34308,265.96158,66,80,0
265.49933,265.96158,69,80,0
265.96808,266.89908,60,80,0
266.12433,266.89908,62,80,0
266.28058,266.89908,69,80,0
266.90558,267.83658,54,80,0
267.06183,267.83658,57,80,0
267.21808,267.83658,63,80,0
267.84308,268.77408,55,80,0
267.99933,268.77408,58,80,0
268.15558,268.77408,62,80,0
268.78058,269.71158,49,80,0
268.93683,269.71158,52,80,0
269.09308,269.71158,57,80,0
269.71808,270.64908,50,80,0
269.87433,270.64908,53,80,0
270.03058,270.64908,57,80,0
270.65558,271.58658,54,80,0
270.81183,271.58658,57,80,0
270.96808,271.58658,63,80,0
271.59308,272.52408,55,80,0
271.74933,272.52408,58,80,0
271.90558,272.52408,62,80,0
272.53058,273.46158,49,80,0
272.68683,273.46158,52,80,0
272.84308,273.46158,57,81,0
273.46808,274.39908,50,84,0
273.62433,274.39908,53,85,0
273.78058,274.39908,57,86,0
274.40558,275.33658,49,89,0
274.56183,275.33658,52,90,0
274.71808,275.33658,57,91,0
275.34308,276.27408,50,94,0
275.49933,276.27408,53,95,0
275.65558,276.27408,57,96,0
276.28058,277.21158,49,99,0
276.43683,277.21158,52,100,0
276.59308,277.21158,57,101,0
277.21808,278.19876,50,104,0
277.37433,278.19876,53,105,0
277.53058,278.19876,57,106,0
278.20612,278.5423,45,110,0
278.20612,278.5423,49,110,0
278.20612,278.5423,52,110,0
278.20612,278.5423,55,110,0
293.5014,293.81726,50,80,0
293.82397,294.13983,62,80,0
293.98526,294.30112,65,80,0
293.6627,294.46243,57,80,0
294.46915,294.785,50,80,0
294.79172,295.10757,62,80,0
294.953,295.26886,65,80,0
294.63043,295.43018,57,80,0
295.4369,295.75275,50,80,0
295.75946,296.07532,62,80,0
295.92075,296.2366,65,80,0
295.59818,296.3979,57,80,0
296.40463,296.7205,45,80,0
296.7272,297.04306,61,80,0
296.8885,297.20435,64,80,0
296.56592,297.36563,57,80,0
297.37238,297.68823,45,80,0
297.69495,298.0108,61,80,0
297.85623,298.1721,64,80,0
297.53366,298.33337,57,80,0
298.34012,298.65598,45,80,0
298.6627,298.97855,61,80,0
298.82397,299.13983,64,80,0
298.5014,299.30112,57,80,0
299.30786,299.62372,45,80,0
299.63043,299.9463,61,80,0
299.79172,300.10757,64,80,0
299.46915,300.26886,57,80,0
300.27557,300.59146,50,80,0
300.59818,300.91403,62,82,0
300.75946,301.07532,65,83,0
300.4369,301.2366,57,81,0
301.24332,302.20435,55,86,0
301.40463,302.20435,62,87,0
301.56592,302.20435,67,88,0
302.21106,303.1721,51,93,0
302.37238,303.1721,58,94,0
302.53366,303.1721,63,95,0
303.1788,304.13983,49,100,0
303.34012,304.13983,57,99,0
303.5014,304.13983,61,97,0
304.14655,305.10757,50,91,0
304.30783,305.10757,57,89,0
304.46915,305.10757,62,87,0
305.1143,306.07532,45,80,0
305.27557,306.07532,53,82,0
305.4369,306.07532,57,84,0
306.08203,307.04306,45,94,0
306.24332,307.04306,52,97,0
306.40463,307.04306,55,99,0
306.56592,307.04306,57,102,0
307.04977,307.36563,38,110,0
307.21106,307.52692,50,110,0
307.37234,307.68823,53,110,0
307.53366,307.84952,57,110,0
307.69495,308.0108,62,110,0
308.98526,309.9463,55,86,0
309.14655,309.9463,62,87,0
309.30783,309.9463,67,88,0
309.953,310.91403,51,93,0
310.1143,310.91403,58,94,0
310.27557,310.91403,63,95,0
310.92075,311.88177,48,100,0
311.08203,311.88177,55,99,0
311.24332,311.88177,60,97,0
311.8885,312.84952,45,91,0
312.04977,312.84952,53,89,0
312.21106,312.84952,57,87,0
312.85623,313.81726,46,80,0
313.01752,313.81726,53,81,0
313.1788,313.81726,58,82,0
313.82397,314.785,39,88,0
313.98526,314.785,48,89,0
314.14655,314.785,51,91,0
314.79172,315.75275,41,97,0
314.953,315.75275,48,98,0
315.1143,315.75275,53,99,0
315.75946,316.72046,38,110,0
315.92075,316.72046,46,106,0
316.08203,316.72046,50,102,0
316.7272,317.6882,43,86,0
316.8885,317.6882,46,80,0
317.04977,317.6882,55,81,0
317.69495,318.65594,39,88,0
317.85623,318.65594,48,90,0
318.01752,318.65594,51,92,0
318.6627,319.6237,41,99,0
318.82397,319.6237,48,101,0
318.98526,319.6237,53,102,0
319.63043,319.9463,34,110,0
319.79172,320.10757,41,110,0
319.953,320.26886,46,110,0
320.1143,320.43015,29,110,0
320.27557,320.59143,37,110,0
320.43686,320.75272,36,110,0
320.59818,320.91403,34,110,0
321.08203,321.3979,29,110,0
321.24332,321.55917,37,110,0
321.4046,321.72046,36,110,0
321.5659,321.88177,34,110,0
322.04977,322.36563,29,110,0
322.21106,322.52692,37,110,0
322.37234,322.6882,36,110,0
322.53363,322.84952,34,110,0
323.01752,323.33337,29,110,0
323.1788,323.49466,37,110,0
323.3401,323.65112,34,110,0
323.50137,324.43237,24,121,0
323.50137,324.43237,36,120,0
324.43887,324.74487,29,110,0
324.43887,324.74487,41,110,0
324.75137,325.05737,44,110,0
325.06387,325.36987,48,110,0
325.37637,325.68237,53,110,0
325.68887,325.99487,56,110,0
326.00137,326.30737,53,110,0
326.31387,326.61987,48,110,0
326.62637,326.93237,44,110,0
326.93887,327.24487,48,110,0
327.25137,327.55737,44,110,0
327.56387,327.86987,41,110,0
327.72012,328.02612,36,110,0
327.87637,328.18237,44,110,0
328.03262,328.33862,43,110,0
328.18887,328.49487,41,110,0
328.65762,328.96362,36,110,0
328.81387,329.11987,44,110,0
328.97012,329.27612,43,110,0
329.12637,329.43237,41,110,0
329.59512,329.90112,36,110,0
329.75137,330.05737,44,110,0
329.90762,330.21362,43,110,0
330.06387,330.36987,41,110,0
330.53262,330.83862,36,110,0
330.68887,330.99487,44,110,0
330.84512,331.15112,41,110,0
331.00137,331.93237,31,120,0
331.00137,331.93237,43,122,0
331.93887,332.24487,48,110,0
331.93887,332.24487,36,110,0
332.25137,332.55737,51,110,0
332.56387,332.86987,55,110,0
332.87637,333.18237,60,110,0
333.18887,333.49487,63,110,0
333.50137,333.80737,60,110,0
333.81387,334.11987,55,110,0
334.12637,334.43237,51,110,0
334.43887,334.74487,55,110,0
334.75137,335.05737,51,110,0
335.06387,335.36987,48,110,0
335.22012,335.52612,31,110,0
335.37637,335.68237,39,110,0
335.53262,335.83862,38,110,0
335.68887,335.99487,36,110,0
336.15762,336.46362,31,110,0
336.31387,336.61987,39,110,0
336.47012,336.77612,38,110,0
336.62637,336.93237,36,110,0
337.09512,337.40112,31,110,0
337.25137,337.55737,39,110,0
337.40762,337.71362,38,110,0
337.56387,337.86987,36,110,0
338.03262,338.33862,31,110,0
338.18887,338.49487,39,110,0
338.34512,338.65112,36,110,0
338.50137,339.43237,26,123,0
338.50137,339.43237,38,121,0
339.43887,339.74487,31,110,0
339.43887,339.74487,43,110,0
339.75137,340.05737,46,110,0
340.06387,340.36987,50,110,0
340.37637,340.68237,55,110,0
340.68887,340.99487,58,110,0
341.00137,341.30737,55,110,0
341.31387,341.61987,50,110,0
341.62637,341.93237,46,110,0
341.93887,342.24487,50,110,0
342.25137,342.55737,46,110,0
342.56387,342.86987,43,110,0
342.72012,343.02612,38,110,0
342.87637,343.18237,46,110,0
343.03262,343.33862,45,110,0
343.18887,343.49487,43,110,0
343.65762,343.96362,38,110,0
343.81387,344.11987,46,110,0
343.97012,344.27612,45,110,0
344.12637,344.43237,43,110,0
344.59512,344.90112,38,110,0
344.75137,345.05737,46,110,0
344.90762,345.21362,45,110,0
345.06387,345.36987,43,110,0
345.53262,345.84512,38,110,0
345.68887,346.00818,46,110,0
345.85193,346.17123,43,110,0
346.01498,347.01962,34,120,0
346.01498,347.01962,46,120,0
347.02676,347.3625,33,110,0
347.02676,347.3625,45,110,0
347.36963,347.69238,52,110,0
347.36963,347.69238,55,110,0
347.54105,347.85028,57,110,0
347.69894,348.00815,49,110,0
347.85684,348.16605,57,110,0
348.01474,348.32394,52,110,0
348.01474,348.32394,55,110,0
348.17264,348.48184,57,110,0
348.33054,348.63974,49,110,0
348.48843,348.79764,57,110,0
348.64633,348.95554,52,110,0
348.64633,348.95554,55,110,0
348.8042,349.11343,57,110,0
348.9621,349.27133,49,110,0
349.12,349.4292,57,110,0
349.2779,349.5871,52,110,0
349.2779,349.5871,55,110,0
349.4358,349.745,57,110,0
349.5937,349.9029,49,110,0
349.7516,350.0608,57,110,0
349.9095,350.2187,52,110,0
349.9095,350.2187,55,110,0
350.06738,350.3766,57,110,0
350.22525,350.5345,49,110,0
350.38315,350.69238,57,110,0
350.54105,350.85025,52,110,0
350.54105,350.85025,55,110,0
350.69894,351.00815,57,110,0
350.85684,351.16605,49,110,0
351.01474,351.32394,57,110,0
351.17264,351.48184,52,110,0
351.17264,351.48184,55,110,0
351.33054,351.63974,57,110,0
351.48843,351.79764,49,110,0
351.6463,351.95554,57,110,0
351.8042,352.11343,52,110,0
351.8042,352.11343,55,110,0
351.9621,352.2713,57,105,0
352.12,352.4292,49,103,0
352.2779,352.5871,57,100,0
352.4358,352.745,52,93,0
352.4358,352.745,55,93,0
352.5937,352.9029,57,89,0
352.7516,353.0608,50,80,0
352.9095,353.2187,57,80,0
353.06735,353.3766,53,80,0
353.22525,353.53445,57,80,0
353.38315,353.69235,50,80,0
353.54105,353.85025,57,80,0
353.69894,354.00815,45,80,0
353.85684,354.16605,55,80,0
354.01474,354.32394,52,80,0
354.17264,354.48184,55,80,0
354.33054,354.63974,45,80,0
354.4884,354.79764,55,80,0
354.6463,354.9555,50,80,0
354.6463,354.9555,53,80,0
354.8042,355.1134,57,80,0
354.9621,355.2713,52,110,0
354.9621,355.2713,55,110,0
355.12,355.4292,57,110,0
355.2779,355.5871,49,110,0
355.4358,355.745,57,110,0
355.5937,355.9029,52,110,0
355.5937,355.9029,55,110,0
355.75156,356.0608,57,110,0
355.90945,356.2187,49,110,0
356.06735,356.37656,57,110,0
356.22525,356.53445,52,110,0
356.22525,356.53445,55,110,0
356.38315,356.69235,57,110,0
356.54105,356.85025,49,110,0
356.69894,357.00815,57,110,0
356.85684,357.16605,52,110,0
356.85684,357.16605,55,110,0
357.01474,357.32394,57,110,0
357.1726,357.48184,49,110,0
357.3305,357.63974,57,110,0
357.4884,357.7976,52,110,0
357.4884,357.7976,55,110,0
357.6463,357.9555,57,110,0
357.8042,358.1134,49,110,0
357.9621,358.2713,57,110,0
358.12,358.4292,52,110,0
358.12,358.4292,55,110,0
358.2779,358.5871,57,110,0
358.4358,358.745,49,110,0
358.59366,358.9029,57,110,0
358.75156,359.0608,52,110,0
358.75156,359.0608,55,110,0
358.90945,359.21866,57,110,0
359.06735,359.37656,49,110,0
359.22525,359.53445,57,110,0
359.38315,359.69235,52,110,0
359.38315,359.69235,55,110,0
359.54105,359.85025,57,105,0
359.69894,360.00815,49,102,0
359.85684,360.16605,57,98,0
360.0147,360.32394,52,94,0
360.0147,360.32394,55,94,0
360.1726,360.48184,57,90,0
360.3305,360.6397,50,80,0
360.4884,360.7976,57,80,0
360.6463,360.9555,53,80,0
360.8042,361.1134,57,80,0
360.9621,361.2713,50,80,0
361.12,361.4292,57,80,0
361.2779,361.5871,45,80,0
361.43576,361.745,55,80,0
361.59366,361.9029,52,80,0
361.75156,362.06076,55,80,0
361.90945,362.21866,45,80,0
362.06735,362.37656,55,80,0
362.22525,362.53445,46,80,0
362.38315,362.69235,53,81,0
362.54105,362.85025,50,82,0
362.69894,363.00815,53,83,0
362.8568,363.16605,46,84,0
363.0147,363.3239,53,85,0
363.1726,363.4818,43,87,0
363.3305,363.6397,51,88,0
363.4884,363.7976,46,89,0
363.6463,363.9555,51,90,0
363.8042,364.1134,43,91,0
363.9621,364.2713,51,93,0
364.11996,364.4292,45,94,0
364.27786,364.5871,53,95,0
364.43576,364.74496,50,96,0
364.59366,364.90286,53,97,0
364.75156,365.06076,45,99,0
364.90945,365.21866,53,100,0
365.06735,365.37656,43,101,0
365.22525,365.53445,52,102,0
365.38315,365.69235,45,103,0
365.54102,365.85025,52,105,0
365.6989,366.00815,43,106,0
365.8568,366.16602,52,107,0
366.0147,366.3239,41,108,0
366.1726,366.4818,50,109,0
366.3305,366.6397,40,110,0
366.4884,366.7976,50,110,0
366.6463,366.9555,41,110,0
366.8042,367.1134,50,110,0
366.96207,367.2713,43,110,0
367.11996,367.4292,52,110,0
367.11996,367.4292,50,110,0
367.27786,367.58707,41,110,0
367.43576,367.74496,52,110,0
367.43576,367.74496,50,110,0
367.59366,367.90286,43,110,0
367.75156,368.06076,50,110,0
367.75156,368.06076,52,110,0
367.90945,368.21866,45,110,0
368.06735,368.37656,53,110,0
368.06735,368.37656,50,110,0
368.22525,368.53445,44,110,0
368.38312,368.69235,53,110,0
368.38312,368.69235,50,110,0
368.54102,368.85025,45,110,0
368.6989,369.00812,50,110,0
368.6989,369.00812,53,110,0
368.8568,369.16602,45,110,0
369.0147,369.3239,52,110,0
369.0147,369.3239,55,110,0
369.1726,369.4818,45,110,0
369.3305,369.6397,50,110,0
369.3305,369.6397,53,110,0
369.4884,369.7976,45,110,0
369.6463,369.9555,49,110,0
369.6463,369.9555,52,110,0
369.80417,370.1134,38,105,0
369.96207,370.2713,53,99,0
370.11996,370.42917,50,92,0
370.27786,370.58707,53,86,0
370.43576,370.74496,45,80,0
370.59366,370.75156,53,80,0
370.75156,371.06076,38,80,0
370.90945,371.21866,53,80,0
371.06735,371.37656,50,80,0
371.22522,371.53445,53,80,0
371.38312,371.69232,45,80,0
371.54102,371.6989,53,80,0
371.6989,372.00812,38,80,0
371.8568,372.16602,53,80,0
372.0147,372.3239,50,80,0
372.1726,372.4818,53,80,0
372.3305,372.6397,45,80,0
372.4884,372.64627,53,80,0
372.64627,372.9555,38,80,0
372.80417,373.11337,53,80,0
372.96207,373.27127,50,80,0
373.11996,373.42917,53,80,0
373.27786,373.58707,45,80,0
373.43576,373.59366,53,80,0
373.59366,373.90286,33,80,0
373.75156,374.06076,53,81,0
373.90942,374.21866,50,83,0
374.06732,374.37656,53,84,0
374.22522,374.53442,45,86,0
374.38312,374.54102,53,88,0
374.54102,374.85022,33,89,0
374.6989,375.00812,55,91,0
374.8568,375.16602,52,93,0
375.0147,375.3239,55,94,0
375.1726,375.4818,45,96,0
375.33047,375.6397,55,98,0
375.48837,375.7976,38,99,0
375.64627,375.95547,53,99,0
375.80417,376.11337,50,92,0
375.96207,376.27127,53,80,0
376.11996,376.42917,45,80,0
376.27786,376.43576,53,80,0
376.43576,376.74496,38,80,0
376.59366,376.90286,53,80,0
376.75153,377.06076,50,80,0
376.90942,377.21866,53,80,0
377.06732,377.37653,45,80,0
377.22522,377.38312,53,80,0
377.38312,377.69232,38,80,0
377.54102,377.85022,53,80,0
377.6989,378.00812,50,80,0
377.8568,378.16602,53,80,0
378.0147,378.3239,45,80,0
378.17258,378.33047,53,80,0
378.33047,378.6397,38,80,0
378.48837,378.79758,53,80,0
378.64627,378.95547,50,80,0
378.80417,379.11337,53,80,0
378.96207,379.27127,45,80,0
379.11996,379.27786,53,80,0
379.27786,379.58707,33,80,0
379.43576,379.74496,53,81,0
379.59363,379.90286,50,83,0
379.75153,380.06076,53,84,0
379.90942,380.21863,45,86,0
380.06732,380.22522,53,88,0
380.22522,380.53442,33,89,0
380.38312,380.69232,55,91,0
380.54102,380.85022,52,93,0
380.6989,381.00812,55,94,0
380.8568,381.16602,45,96,0
381.01468,381.3239,55,98,0
381.17258,381.48178,50,80,0
381.33047,381.63968,62,83,0
381.48837,381.79758,61,86,0
381.64627,381.95547,62,89,0
381.80417,382.11337,60,93,0
381.96207,382.27127,62,96,0
382.11996,382.42917,58,99,0
382.27783,382.58707,62,100,0
382.43573,382.74496,57,100,0
382.59363,382.90283,62,100,0
382.75153,383.06073,56,100,0
382.90942,383.21863,62,100,0
383.06732,383.37653,57,100,0
383.22522,383.53442,62,100,0
383.38312,383.69232,64,100,0
383.54102,383.85022,57,100,0
383.69888,384.00812,65,100,0
383.85678,384.16602,57,100,0
384.01468,384.32388,67,100,0
384.17258,384.48178,57,100,0
384.33047,384.63968,65,100,0
384.48837,384.79758,57,100,0
384.64627,384.95547,64,100,0
384.80417,385.11337,57,100,0
384.96207,385.27127,50,90,0
385.11993,385.42917,62,91,0
385.27783,385.58707,61,93,0
385.43573,385.74493,62,94,0
385.59363,385.90283,60,96,0
385.75153,386.06073,62,98,0
385.90942,386.21863,58,99,0
386.06732,386.37653,62,100,0
386.22522,386.53442,57,100,0
386.38312,386.69232,62,100,0
386.541,386.85022,56,100,0
386.69888,387.00812,62,100,0
386.85678,387.166,57,100,0
387.01468,387.32388,62,100,0
387.17258,387.48178,64,100,0
387.33047,387.63968,57,100,0
387.48837,387.79758,65,100,0
387.64627,387.95547,57,100,0
387.80417,388.11337,67,100,0
387.96204,388.27127,57,100,0
388.11993,388.42917,65,100,0
388.27783,388.58704,57,100,0
388.43573,388.74493,64,100,0
388.59363,388.90283,57,100,0
388.75153,389.06073,50,120,0
388.90942,389.21863,62,100,0
389.06732,389.37653,61,100,0
389.22522,389.53442,62,100,0
389.3831,389.69232,50,100,0
389.541,389.8502,62,100,0
389.69888,390.0081,61,120,0
389.85678,390.166,62,100,0
390.01468,390.32388,50,100,0
390.17258,390.48178,62,100,0
390.33047,390.63968,61,100,0
390.48837,390.79758,62,100,0
390.64627,390.95547,50,120,0
390.80414,391.11337,62,100,0
390.96204,391.27124,61,100,0
391.11993,391.42914,62,100,0
391.27783,391.58704,50,100,0
391.43573,391.74493,62,100,0
391.59363,391.90283,61,120,0
391.75153,392.06073,62,100,0
391.90942,392.21863,50,100,0
392.0673,392.37653,62,100,0
392.2252,392.53442,61,100,0
392.3831,392.69556,62,100,0
392.541,392.85684,72,90,0
392.541,392.85684,69,90,0
392.541,392.85684,66,90,0
396.57324,396.8891,69,80,0
396.73453,397.05038,72,80,0
396.41196,397.373,66,80,0
397.541,397.85684,69,80,0
397.70227,398.01813,72,80,0
397.3797,398.34073,66,80,0
398.50873,398.8246,69,80,0
398.67,398.98587,72,80,0
398.34744,399.30847,66,80,0
399.47647,399.79233,69,80,0
399.63776,399.9536,72,80,0
399.3152,400.2762,66,80,0
400.28293,401.24396,55,80,0
400.4442,401.24396,58,80,0
400.6055,401.24396,62,81,0
401.25067,402.21167,55,84,0
401.41196,402.21167,58,85,0
401.57324,402.21167,61,86,0
402.2184,403.1794,55,89,0
402.3797,403.1794,58,90,0
402.541,403.1794,62,91,0
403.18616,404.14716,55,94,0
403.34744,404.14716,61,95,0
403.50873,404.14716,64,96,0
404.3152,404.63104,71,91,0
404.47647,404.79233,74,81,0
404.1539,405.1149,68,100,0
405.28293,405.5988,71,80,0
405.4442,405.76007,74,80,0
405.12164,406.08264,68,80,0
406.25067,406.56653,71,80,0
406.41196,406.7278,74,80,0
406.0894,407.05038,68,80,0
407.2184,407.53427,71,80,0
407.3797,407.69556,74,80,0
407.0571,408.01813,68,80,0
408.02484,408.98587,57,80,0
408.18616,408.98587,61,80,0
408.34744,408.98587,64,81,0
408.99258,409.9536,57,84,0
409.1539,409.9536,61,85,0
409.3152,409.9536,63,86,0
409.96033,410.92136,57,89,0
410.1216,410.92136,61,90,0
410.28293,410.92136,64,91,0
410.92807,411.8891,57,94,0
411.08936,411.8891,61,95,0
411.25067,411.8891,66,96,0
411.8958,412.85684,57,100,0
412.0571,412.85684,61,100,0
412.2184,412.85684,67,99,0
412.86356,413.8246,57,96,0
413.02484,413.8246,61,95,0
413.18613,413.8246,66,94,0
413.8313,414.79233,57,91,0
413.99258,414.79233,61,90,0
414.15387,414.79233,67,89,0
414.79904,415.76007,57,86,0
414.96033,415.76007,61,85,0
415.1216,415.76007,65,84,0
415.76678,416.7278,57,80,0
415.92807,416.7278,61,80,0
416.08936,416.7278,64,80,0
416.73453,417.69556,57,82,0
416.8958,417.69556,61,83,0
417.0571,417.69556,63,84,0
417.70227,418.6633,57,88,0
417.86356,418.6633,61,89,0
418.02484,418.6633,64,90,0
418.67,419.63104,57,94,0
418.8313,419.63104,61,95,0
418.99258,419.63104,66,96,0
419.63776,420.5988,57,100,0
419.79904,420.5988,61,99,0
419.96033,420.5988,67,97,0
420.6055,421.58047,57,91,0
420.76852,421.58047,61,89,0
420.93158,421.58047,67,87,0
421.58734,422.57672,57,81,0
421.75217,422.57672,61,79,0
421.917,422.57672,67,77,0
422.74496,423.06082,61,80,0
422.90625,423.2221,64,80,0
422.58368,423.5447,57,80,0
423.55142,423.86063,53,120,0
423.8672,424.17642,62,120,0
424.0251,424.33432,65,120,0
423.70932,424.4922,57,120,0
424.49878,424.80798,53,120,0
424.81458,425.12378,62,120,0
424.97247,425.28168,65,120,0
424.65668,425.43958,57,120,0
425.44614,425.75537,53,120,0
425.76193,426.07114,62,120,0
425.91983,426.22903,65,120,0
425.60403,426.38693,57,120,0
426.39352,426.70273,45,120,0
426.7093,427.01852,61,120,0
426.8672,427.17642,64,120,0
426.55142,427.3343,57,120,0
427.34088,427.6501,45,120,0
427.65668,427.96588,61,120,0
427.81458,428.12378,64,120,0
427.49878,428.28168,57,120,0
428.28824,428.59747,45,120,0
428.60403,428.91324,61,120,0
428.76193,429.07114,64,120,0
428.44614,429.22903,57,120,0
429.23563,429.54483,45,120,0
429.5514,429.86063,61,120,0
429.7093,430.01852,64,120,0
429.39352,430.1764,57,120,0
430.18298,430.4922,50,110,0
430.49878,430.80798,62,97,0
430.65668,430.96588,65,88,0
430.34088,431.12378,57,104,0
431.13034,432.07114,55,88,0
431.28824,432.07114,62,87,0
431.44614,432.07114,67,88,0
432.07773,433.0185,51,93,0
432.23563,433.0185,58,94,0
432.3935,433.0185,63,95,0
433.0251,433.96588,49,100,0
433.18298,433.96588,57,99,0
433.34088,433.96588,61,97,0
433.97244,434.91324,50,91,0
434.13034,434.91324,57,89,0
434.28824,434.91324,62,87,0
434.91983,435.8606,45,80,0
435.0777,435.8606,53,82,0
435.2356,435.8606,57,84,0
435.8672,436.80798,45,94,0
436.0251,436.80798,52,97,0
436.18298,436.80798,55,99,0
436.34088,436.80798,57,102,0
436.81454,437.12375,38,110,0
436.97244,437.28165,50,110,0
437.13034,437.43954,53,110,0
437.28824,437.59744,57,110,0
437.44614,437.75534,62,110,0
438.7093,439.6501,55,86,0
438.8672,439.6501,62,87,0
439.0251,439.6501,67,88,0
439.65665,440.59744,51,93,0
439.81454,440.59744,58,94,0
439.97244,440.59744,63,95,0
440.60403,441.5448,49,100,0
440.7619,441.5448,57,99,0
440.9198,441.5448,61,97,0
441.5514,442.4922,50,91,0
441.7093,442.4922,57,89,0
441.8672,442.4922,62,87,0
442.49875,443.43954,45,80,0
442.65665,443.43954,53,82,0
442.81454,443.43954,57,84,0
443.4461,444.3869,45,94,0
443.604,444.3869,52,97,0
443.7619,444.3869,55,99,0
443.9198,444.3869,57,102,0
444.3935,444.7027,38,110,0
444.5514,444.8606,53,109,0
444.7093,445.0185,57,107,0
444.86716,445.1764,62,106,0
446.2882,447.229,45,80,0
446.4461,447.229,53,82,0
446.604,447.229,57,84,0
447.2356,448.1764,45,94,0
447.3935,448.1764,52,97,0
447.5514,448.1764,55,99,0
447.70926,448.1764,57,102,0
448.18295,448.49216,38,110,0
448.34085,448.65005,53,110,0
448.49875,448.80795,57,110,0
448.65665,448.96585,62,110,0
450.0777,451.01846,45,80,0
450.2356,451.01846,53,80,0
450.3935,451.01846,57,83,0
451.18295,451.65005,52,101,0
451.02505,451.96585,45,98,0
451.34085,451.96585,55,105,0
451.49875,451.96585,57,109,0
451.9724,452.28165,50,119,0
452.2882,453.229,77,120,0
453.0777,453.3869,76,120,0
453.23557,453.5448,75,120,0
453.39346,453.7027,74,120,0
453.55136,453.86057,73,120,0
453.70926,454.01846,72,120,0
453.86716,454.0711,71,120,0
453.9724,454.17636,70,120,0
454.0777,454.28162,69,120,0
454.18295,454.3869,68,120,0
454.2882,454.49216,67,120,0
454.39346,454.5974,66,120,0
454.49875,454.65005,65,120,0
454.5777,454.729,64,120,0
454.65662,454.80795,63,120,0
454.73557,454.8869,62,120,0
454.8145,455.12375,69,120,0
455.4461,455.7553,57,120,0
455.7619,456.0711,50,80,0
456.07767,456.3869,62,80,0
456.23557,456.5448,65,80,0
455.9198,456.70267,57,80,0
456.70926,457.01846,45,80,0
457.02505,457.33426,61,80,0
457.18295,457.49216,64,80,0
456.86716,457.65005,57,80,0
457.65662,457.96585,50,80,0
457.9724,458.28162,62,80,0
458.1303,458.4395,65,80,0
457.8145,458.5974,57,80,0
458.604,458.9132,45,80,0
458.91977,459.229,61,80,0
459.07767,459.38687,64,80,0
458.7619,459.54477,57,80,0
459.55136,459.86057,50,80,0
459.86716,460.17636,62,80,0
460.02505,460.33426,65,80,0
459.70926,460.49216,57,80,0
460.49872,460.80792,45,80,0
460.8145,461.12372,61,80,0
460.9724,461.28162,64,80,0
460.65662,461.4395,57,80,0
461.4461,461.7553,50,80,0
461.76187,462.0711,62,80,0
461.91977,462.22897,65,80,0
461.60397,462.38687,57,80,0
462.39346,462.70267,45,80,0
462.70926,463.01846,61,80,0
462.86716,463.17636,64,80,0
462.55136,463.33426,57,80,0
463.34082,463.65002,50,80,0
463.65662,463.96582,62,80,0
463.8145,464.12372,65,80,0
463.49872,464.28162,57,80,0
464.2882,464.5974,50,85,0
464.60397,464.9132,62,88,0
464.76187,465.07108,65,90,0
464.44608,465.22897,57,87,0
465.23557,465.54477,50,95,0
465.55136,465.86057,62,99,0
465.70926,466.01846,65,101,0
465.39346,466.17636,57,97,0
466.18292,466.49213,50,106,0
466.49872,466.80792,62,109,0
466.65662,466.96582,65,105,0
466.34082,467.12372,57,108,0
467.1303,467.4395,50,80,0
468.8763,469.17764,45,72,0
469.0214,469.3443,41,71,0
469.18805,470.67764,38,71,0
