start_time,end_time,note_value,velocity,instrument_program_number
2.0,6.9895835,61,70,0
3.0,6.9895835,64,70,0
4.0,6.9895835,69,70,0
7.0,7.122396,69,80,0
7.125,7.247396,67,80,0
7.25,7.372396,67,80,0
7.375,7.497396,65,80,0
7.5,7.622396,65,80,0
7.625,7.747396,64,80,0
7.75,7.872396,64,80,0
7.875,7.997396,62,80,0
8.0,8.1223955,69,80,0
8.125,8.2473955,67,80,0
8.25,8.3723955,67,80,0
8.375,8.4973955,65,80,0
8.5,8.6223955,65,80,0
8.625,8.7473955,64,80,0
8.75,8.8723955,64,80,0
8.875,8.9973955,62,80,0
9.0,9.1223955,74,80,0
9.125,9.2473955,72,83,0
9.25,9.3723955,72,86,0
9.375,9.4973955,70,89,0
9.5,9.6223955,70,92,0
9.625,9.7473955,69,95,0
9.75,9.896875,69,98,0
9.9,10.046875,67,101,0
10.05,10.233594,67,104,0
10.2375,10.421094,68,107,0
10.425,11.909375,68,110,0
11.925,12.284375,69,80,0
12.1125,12.471875,68,80,0
12.3,12.659375,66,80,0
12.4875,12.846875,68,80,0
12.675,13.034375,71,80,0
10.425,13.409375,65,110,0
13.05,13.409375,69,80,0
13.425,16.409374,69,80,0
13.425,16.409374,64,80,0
19.425,22.414583,67,70,0
18.425,23.414583,64,70,0
20.425,23.414583,72,70,0
23.425,23.547396,72,80,0
23.55,23.672396,70,80,0
23.675,23.797396,70,81,0
23.8,23.922396,68,82,0
23.925,24.047396,68,83,0
24.05,24.172396,69,84,0
24.175,24.297396,69,85,0
24.3,24.422396,74,86,0
24.425,24.547396,74,87,0
24.55,24.672396,72,88,0
24.675,24.797396,72,89,0
24.8,24.922396,69,90,0
24.925,25.047396,69,91,0
25.05,25.172396,70,92,0
25.175,25.297396,70,93,0
25.3,25.422396,75,94,0
25.425,25.547396,75,95,0
25.55,25.672396,74,95,0
25.675,25.797396,74,96,0
25.8,25.922396,73,97,0
25.925,26.047396,73,98,0
26.05,26.172396,82,99,0
26.175,26.297396,82,100,0
26.3,26.422396,76,101,0
26.425,26.547396,76,102,0
26.55,26.672396,85,103,0
26.675,26.797396,85,104,0
26.8,26.922396,77,105,0
26.925,27.047396,77,106,0
27.05,27.172396,86,107,0
27.175,27.297396,86,108,0
27.3,27.422396,77,109,0
27.425,27.547396,77,110,0
27.55,27.672396,89,110,0
27.675,27.797396,89,110,0
27.8,27.922396,85,110,0
27.925,28.047396,85,110,0
28.05,28.172396,86,110,0
28.175,28.297396,86,110,0
28.3,28.422396,80,110,0
28.425,28.547396,80,110,0
28.55,28.672396,81,110,0
28.675,28.797396,81,110,0
28.8,28.922396,76,110,0
28.925,29.047396,76,110,0
29.05,29.172396,77,110,0
29.175,29.297396,77,110,0
29.3,29.422396,73,110,0
29.425,29.547396,73,110,0
29.55,29.672396,74,110,0
29.675,29.797396,74,110,0
29.8,29.922396,68,110,0
29.925,30.047396,68,110,0
30.05,30.172396,69,110,0
30.175,30.297396,69,110,0
30.3,30.422396,64,110,0
30.425,30.547396,64,110,0
30.55,30.672396,65,110,0
30.675,30.802717,65,110,0
30.805435,30.933151,61,110,0
30.93587,31.063585,61,110,0
31.066303,31.194021,62,110,0
31.196737,31.330261,62,110,0
31.333101,31.466623,58,110,0
31.469465,31.602987,58,110,0
31.60583,31.739351,57,110,0
31.742191,31.875715,57,110,0
31.878555,32.012077,61,110,0
32.01492,32.137314,61,110,0
32.13992,32.262314,62,110,0
32.26492,32.387314,62,110,0
32.38992,32.512314,58,110,0
32.51492,32.637314,58,110,0
32.63992,32.762314,57,110,0
32.76492,32.887314,57,110,0
32.88992,33.012314,61,110,0
33.01492,33.137314,61,110,0
33.13992,33.262314,62,110,0
33.26492,33.387314,62,110,0
33.38992,33.512314,58,110,0
33.51492,33.637314,58,110,0
33.63992,33.762314,57,110,0
33.76492,33.887314,57,110,0
33.88992,34.012314,58,110,0
34.01492,34.137314,59,110,0
34.13992,34.262314,60,110,0
34.26492,34.387314,61,110,0
34.38992,34.512314,62,110,0
34.51492,34.637314,63,110,0
34.63992,34.762314,64,110,0
34.76492,34.89844,65,110,0
34.901283,35.034805,66,110,0
35.037647,35.17117,67,110,0
35.17401,35.307533,68,110,0
35.31037,35.45725,69,110,0
35.460373,35.607246,70,110,0
35.610374,35.79397,61,110,0
35.797874,35.98147,69,110,0
35.985374,36.16897,62,110,0
36.110374,36.258812,57,110,0
36.21454,36.360374,53,110,0
36.297874,36.4385,57,110,0
36.381207,36.506207,53,110,0
36.46454,36.605164,57,110,0
36.547874,36.685894,53,110,0
36.631207,36.766624,57,110,0
36.71454,36.849957,53,110,0
36.797874,36.92808,57,110,0
36.881207,37.006207,53,110,0
36.96454,37.09735,57,110,0
37.047874,37.18329,53,110,0
37.131207,37.266624,57,107,0
37.21454,37.34735,53,103,0
37.297874,37.43329,57,99,0
37.381207,37.516624,53,96,0
37.46454,37.602562,57,92,0
37.547874,37.68329,53,88,0
37.631207,37.751,57,84,0
37.71454,37.84735,53,81,0
37.797874,37.93329,57,80,0
37.881207,37.998394,53,80,0
37.797874,38.04527,69,93,0
37.96454,38.08954,57,80,0
38.047874,38.18329,53,80,0
38.131207,38.26402,57,80,0
38.047874,38.29527,68,100,0
38.21454,38.342144,53,80,0
38.297874,38.4411,57,80,0
38.381207,38.511414,53,80,0
38.297874,38.54527,69,105,0
38.46454,38.592144,57,80,0
38.547874,38.67808,53,80,0
38.631207,38.766624,57,80,0
38.547874,38.79527,70,101,0
38.71454,38.83433,53,80,0
38.797874,38.92808,57,80,0
38.881207,39.040062,53,80,0
38.797874,39.04527,69,100,0
38.96454,39.092144,57,80,0
39.047874,39.175476,53,80,0
39.131207,39.256207,57,80,0
39.21454,39.33433,53,80,0
39.297874,39.4385,57,80,0
39.381207,39.516624,53,80,0
39.047874,39.54527,69,102,0
39.46454,39.592144,57,80,0
39.547874,39.67808,53,80,0
39.631207,39.758812,57,80,0
39.71454,39.83954,53,80,0
39.797874,39.9385,57,80,0
39.881207,40.02183,53,80,0
39.547874,40.04527,69,101,0
39.96454,40.04527,57,80,0
40.047874,40.185894,69,110,0
40.131207,40.287457,61,110,0
40.21454,40.368187,55,110,0
40.297874,40.448914,61,110,0
40.381207,40.537457,55,110,0
40.46454,40.62079,61,110,0
40.547874,40.704124,55,110,0
40.631207,40.787457,61,110,0
40.71454,40.85777,55,110,0
40.797874,40.956726,61,110,0
40.881207,41.029644,55,110,0
40.96454,41.123394,61,110,0
41.047874,41.204124,55,107,0
41.131207,41.287457,61,104,0
41.21454,41.35777,55,101,0
41.297874,41.456726,61,97,0
41.381207,41.529644,55,94,0
41.46454,41.623394,61,91,0
41.547874,41.704124,55,87,0
41.631207,41.787457,61,84,0
41.71454,41.85777,55,81,0
41.797874,41.956726,61,80,0
41.881207,42.029644,55,80,0
41.797874,42.04527,69,100,0
41.96454,42.123394,61,80,0
42.047874,42.204124,55,80,0
42.131207,42.287457,61,80,0
42.047874,42.29527,68,102,0
42.21454,42.35777,55,80,0
42.297874,42.456726,61,80,0
42.381207,42.529644,55,80,0
42.297874,42.54527,69,103,0
42.46454,42.623394,61,80,0
42.547874,42.704124,55,80,0
42.631207,42.787457,61,80,0
42.547874,42.79527,70,103,0
42.71454,42.85777,55,80,0
42.797874,42.956726,61,80,0
42.881207,43.029644,55,80,0
42.797874,43.04527,69,103,0
42.96454,43.123394,61,80,0
43.047874,43.204124,55,80,0
43.131207,43.287457,61,80,0
43.21454,43.35777,55,80,0
43.297874,43.456726,61,80,0
43.381207,43.529644,55,80,0
43.047874,43.54527,69,103,0
43.46454,43.623394,61,80,0
43.547874,43.704124,55,80,0
43.631207,43.787457,61,80,0
43.71454,43.85777,55,80,0
43.797874,43.956726,61,80,0
43.881207,44.029644,55,80,0
43.547874,44.04527,69,100,0
43.96454,44.04527,61,80,0
44.047874,44.206726,69,110,0
44.131207,44.28485,62,110,0
44.21454,44.373394,57,110,0
44.297874,44.448914,62,110,0
44.381207,44.516624,57,110,0
44.46454,44.605164,62,110,0
44.547874,44.706726,57,110,0
44.631207,44.78485,62,110,0
44.71454,44.873394,57,110,0
44.797874,44.948914,62,110,0
44.881207,45.016624,57,110,0
44.96454,45.105164,62,110,0
45.047874,45.206726,57,110,0
45.131207,45.28485,62,110,0
45.21454,45.373394,57,110,0
45.297874,45.448914,62,110,0
45.381207,45.516624,57,110,0
45.46454,45.605164,62,110,0
45.547874,45.706726,57,110,0
45.631207,45.78485,62,110,0
45.547874,45.79527,74,122,0
45.71454,45.873394,57,110,0
45.797874,45.948914,62,110,0
45.881207,46.016624,57,110,0
45.96454,46.04527,62,110,0
46.047874,46.180687,64,110,0
46.131207,46.269226,59,110,0
46.21454,46.35777,64,110,0
46.297874,46.443707,59,110,0
46.381207,46.516624,64,110,0
46.46454,46.581726,59,110,0
46.547874,46.680687,64,110,0
46.631207,46.769226,59,110,0
46.71454,46.85777,64,110,0
46.797874,46.943707,59,110,0
46.881207,47.016624,64,110,0
46.96454,47.081726,59,110,0
47.047874,47.180687,64,110,0
47.131207,47.269226,59,110,0
47.21454,47.35777,64,110,0
47.297874,47.443707,59,110,0
47.381207,47.516624,64,110,0
47.46454,47.581726,59,110,0
47.547874,47.680687,64,110,0
47.631207,47.769226,59,110,0
47.547874,47.79527,76,120,0
47.71454,47.85777,64,110,0
47.797874,47.943707,59,110,0
47.881207,48.016624,64,110,0
47.96454,48.04527,59,110,0
48.047874,48.185894,65,110,0
48.131207,48.266624,60,110,0
48.21454,48.360374,65,110,0
48.297874,48.454124,60,110,0
48.381207,48.524437,65,110,0
48.46454,48.61558,60,110,0
48.547874,48.685894,65,110,0
48.631207,48.766624,60,110,0
48.71454,48.860374,65,110,0
48.797874,48.954124,60,110,0
48.881207,49.024437,65,110,0
48.96454,49.11558,60,110,0
49.047874,49.185894,65,110,0
49.131207,49.266624,60,110,0
49.21454,49.360374,65,110,0
49.297874,49.454124,60,110,0
49.381207,49.524437,65,110,0
49.46454,49.61558,60,110,0
49.547874,49.685894,65,110,0
49.631207,49.766624,60,110,0
49.547874,49.79527,77,121,0
49.71454,49.860374,65,110,0
49.797874,49.954124,60,110,0
49.881207,50.024437,65,110,0
49.96454,50.04527,60,110,0
50.047874,50.193707,68,110,0
50.131207,50.27704,62,110,0
50.21454,50.34735,68,110,0
50.297874,50.4411,62,110,0
50.381207,50.52704,68,110,0
50.46454,50.605164,62,110,0
50.547874,50.693707,68,110,0
50.631207,50.77704,62,110,0
50.71454,50.84735,68,110,0
50.797874,50.9411,62,110,0
50.881207,51.02704,68,110,0
50.96454,51.105164,62,110,0
51.047874,51.193707,68,110,0
51.131207,51.27704,62,110,0
51.21454,51.34735,68,110,0
51.297874,51.4411,62,110,0
51.381207,51.52704,68,110,0
51.46454,51.605164,62,110,0
51.547874,51.693707,68,110,0
51.631207,51.77704,62,110,0
51.547874,51.79527,80,120,0
51.71454,51.84735,68,110,0
51.797874,51.9411,62,110,0
51.881207,52.02704,68,110,0
51.96454,52.04527,62,110,0
52.047874,52.1885,69,110,0
52.131207,52.287457,64,110,0
52.21454,52.368187,69,110,0
52.297874,52.45152,64,110,0
52.381207,52.540062,69,110,0
52.46454,52.60777,64,110,0
52.547874,52.6885,69,110,0
52.631207,52.787457,64,110,0
52.71454,52.868187,69,110,0
52.797874,52.95152,64,110,0
52.881207,53.040062,69,110,0
52.96454,53.04527,64,110,0
53.047874,53.180687,69,110,0
53.131207,53.266624,72,110,0
53.21454,53.349957,69,110,0
53.297874,53.4411,72,110,0
53.381207,53.52183,69,110,0
53.46454,53.599957,72,110,0
53.547874,53.680687,69,110,0
53.631207,53.766624,72,110,0
53.547874,53.79527,81,120,0
53.71454,53.849957,69,110,0
53.797874,53.9411,72,110,0
53.881207,54.02183,69,110,0
53.96454,54.04527,72,110,0
54.047874,54.180687,69,110,0
54.131207,54.266624,72,110,0
54.21454,54.349957,69,110,0
54.297874,54.4411,72,110,0
54.381207,54.52183,69,110,0
54.46454,54.599957,72,110,0
54.547874,54.680687,69,110,0
54.631207,54.766624,72,110,0
54.547874,54.79527,81,122,0
54.71454,54.849957,69,110,0
54.797874,54.9411,72,110,0
54.881207,55.02183,69,110,0
54.96454,55.04527,72,110,0
55.047874,55.180687,69,110,0
55.131207,55.266624,72,110,0
55.21454,55.349957,69,110,0
55.297874,55.4411,72,110,0
55.381207,55.52183,69,110,0
55.46454,55.602222,72,110,0
55.547874,55.68646,69,110,0
55.63483,55.776134,72,110,0
55.547874,55.806026,81,120,0
55.721786,55.86556,69,110,0
55.808743,55.964993,72,110,0
55.89965,56.05306,69,110,0
55.99056,56.07863,72,110,0
56.08147,56.351357,80,110,0
56.08147,56.351357,71,110,0
56.08147,56.351357,68,110,0
56.854195,56.976593,83,80,0
56.979195,57.101593,80,80,0
57.104195,57.226593,76,80,0
57.229195,57.351593,77,80,0
57.354195,57.476593,77,80,0
57.479195,57.601593,74,80,0
57.854195,57.976593,83,80,0
57.979195,58.101593,80,80,0
58.104195,58.226593,76,80,0
58.229195,58.351593,77,80,0
58.354195,58.476593,77,80,0
58.479195,58.601593,74,80,0
58.854195,58.976593,83,80,0
58.979195,59.101593,80,80,0
59.104195,59.226593,76,80,0
59.229195,59.351593,77,80,0
59.354195,59.476593,77,80,0
59.479195,59.601593,74,80,0
59.604195,59.726593,74,80,0
59.729195,59.851593,72,80,0
59.854195,59.976593,72,80,0
59.979195,60.101593,71,80,0
60.104195,60.226593,71,80,0
60.229195,60.351593,72,80,0
60.354195,60.601593,69,80,0
60.854195,60.976593,84,80,0
60.979195,61.101593,81,80,0
61.104195,61.226593,75,80,0
61.229195,61.351593,76,80,0
61.354195,61.476593,76,80,0
61.479195,61.601593,72,80,0
61.854195,61.976593,84,80,0
61.979195,62.101593,81,80,0
62.104195,62.226593,75,80,0
62.229195,62.351593,76,80,0
62.354195,62.476593,76,80,0
62.479195,62.601593,72,80,0
62.854195,62.976593,84,80,0
62.979195,63.101593,81,80,0
63.104195,63.226593,75,80,0
63.229195,63.351593,76,80,0
63.354195,63.476593,76,80,0
63.479195,63.601593,72,80,0
63.604195,63.726593,72,80,0
63.729195,63.851593,71,80,0
63.854195,63.976593,71,80,0
63.979195,64.10159,69,80,0
64.104195,64.22659,69,80,0
64.229195,64.35159,68,80,0
64.354195,64.60159,71,80,0
64.854195,64.97659,89,90,0
64.979195,65.10159,86,91,0
65.104195,65.22659,85,93,0
65.229195,65.35159,86,95,0
65.354195,65.60159,83,97,0
65.854195,65.97659,89,104,0
65.979195,66.10159,86,105,0
66.104195,66.22659,85,107,0
66.229195,66.35159,86,109,0
66.354195,66.60159,83,111,0
66.854195,66.97659,89,118,0
66.979195,67.10159,86,119,0
67.104195,67.22659,83,120,0
67.229195,67.35159,86,120,0
67.354195,67.47659,80,120,0
67.479195,67.60159,83,120,0
67.604195,67.72659,77,120,0
67.729195,67.85159,80,120,0
67.854195,67.97659,74,120,0
67.979195,68.10159,77,120,0
68.104195,68.22659,71,120,0
68.229195,68.35159,74,120,0
68.354195,68.47659,68,120,0
68.479195,68.60159,71,120,0
68.604195,68.72659,65,120,0
68.729195,68.85159,68,120,0
68.854195,68.97659,62,120,0
68.979195,69.10159,65,120,0
69.104195,69.22659,59,120,0
69.229195,69.35159,62,120,0
69.354195,69.47659,56,120,0
69.479195,69.60159,59,120,0
69.604195,69.72659,50,120,0
69.729195,69.85159,59,120,0
69.854195,69.97659,56,120,0
69.979195,70.10159,50,120,0
70.104195,70.35159,48,110,0
70.354195,70.60159,52,110,0
70.354195,70.60159,48,110,0
70.354195,70.60159,57,110,0
70.604195,71.60159,58,110,0
71.604195,71.85159,57,110,0
70.604195,72.10159,50,110,0
70.604195,72.10159,53,110,0
71.854195,72.10159,56,110,0
72.104195,72.35159,57,110,0
72.104195,72.35159,52,110,0
72.104195,72.35159,48,110,0
72.354195,72.60159,64,110,0
72.354195,72.60159,60,110,0
72.354195,72.60159,69,110,0
72.604195,73.60159,70,110,0
73.604195,73.85159,69,110,0
72.604195,74.10159,62,110,0
72.604195,74.10159,65,110,0
73.854195,74.10159,68,110,0
74.104195,74.35159,69,110,0
74.104195,74.35159,64,110,0
74.104195,74.35159,60,110,0
74.354195,74.60159,81,110,0
74.354195,74.60159,69,110,0
74.604195,75.35159,70,110,0
74.604195,75.35159,82,110,0
75.354195,75.60159,83,110,0
75.354195,75.60159,71,110,0
75.604195,76.35159,72,110,0
75.604195,76.35159,84,110,0
76.354195,76.60159,85,110,0
76.354195,76.60159,73,110,0
76.604195,76.85159,86,101,0
76.604195,76.85159,74,101,0
76.854195,77.10159,88,91,0
76.854195,77.10159,76,91,0
77.104195,77.35159,89,81,0
77.104195,77.35159,77,81,0
77.354195,77.85159,77,80,0
77.354195,77.85159,65,80,0
77.854195,78.10159,76,80,0
77.854195,78.10159,64,80,0
78.104195,78.35159,69,110,0
78.854195,79.10159,64,110,0
78.854195,79.10159,61,110,0
79.104195,79.35159,65,110,0
79.104195,79.35159,62,110,0
79.354195,79.85159,74,110,0
79.354195,79.85159,65,110,0
79.854195,80.10159,74,110,0
79.854195,80.10159,65,110,0
80.104195,80.35159,73,110,0
80.104195,80.35159,64,110,0
80.854195,81.10159,64,110,0
80.854195,81.10159,61,110,0
81.104195,81.35159,65,110,0
81.104195,81.35159,62,110,0
81.354195,81.85159,77,110,0
81.354195,81.85159,74,110,0
81.854195,82.10159,77,110,0
81.854195,82.10159,74,110,0
82.104195,82.35159,76,110,0
82.104195,82.35159,73,110,0
82.854195,83.10159,64,110,0
82.854195,83.10159,61,110,0
83.104195,83.35159,65,110,0
83.104195,83.35159,62,110,0
83.354195,83.85159,77,110,0
83.354195,83.85159,74,110,0
83.854195,84.35159,86,110,0
83.854195,84.35159,89,110,0
84.854195,85.10159,77,80,0
84.854195,85.10159,74,80,0
85.104195,85.35159,76,80,0
85.104195,85.35159,72,80,0
85.854195,86.10159,88,80,0
85.854195,86.10159,84,80,0
86.104195,86.35159,86,80,0
86.104195,86.35159,83,80,0
86.854195,87.10159,74,80,0
86.854195,87.10159,71,80,0
87.104195,87.35159,72,80,0
87.104195,87.35159,69,80,0
87.854195,88.10159,84,80,0
87.854195,88.35159,81,80,0
88.104195,88.35159,83,85,0
88.854195,89.10159,69,103,0
88.854195,89.35159,71,103,0
89.104195,89.35159,68,109,0
89.89965,90.196526,80,98,0
89.89965,90.196526,71,98,0
90.19965,90.34653,81,80,0
90.34965,90.49653,76,80,0
90.49965,90.62518,72,80,0
90.62785,90.75339,84,80,0
90.75606,90.88159,83,80,0
90.88426,91.009796,80,80,0
91.01247,91.138,76,80,0
91.14068,91.26621,86,80,0
91.26888,91.39442,84,80,0
91.39709,91.52262,81,80,0
91.52529,91.650826,76,80,0
91.653496,91.77903,88,80,0
91.7817,91.907234,87,80,0
91.909904,92.03544,88,80,0
92.03811,92.16364,87,80,0
92.16631,92.29185,88,80,0
92.29452,92.80467,88,80,0
92.29452,92.80467,76,80,0
92.29452,92.80467,84,80,0
92.80734,93.31749,83,80,0
92.80734,93.31749,74,80,0
92.80734,93.31749,86,80,0
93.32016,93.83031,84,80,0
93.32016,93.83031,81,80,0
93.32016,93.83031,72,80,0
93.83298,94.34313,83,80,0
93.83298,94.34313,80,80,0
93.83298,94.34313,71,80,0
94.3458,94.47134,81,80,0
94.47401,94.59954,76,80,0
94.60221,94.727745,72,80,0
94.730415,94.85595,84,80,0
94.85862,94.98415,83,80,0
94.986824,95.11236,80,80,0
95.11503,95.24056,76,80,0
95.24323,95.36877,86,80,0
95.37144,95.49697,84,80,0
95.49964,95.625175,81,80,0
95.62785,95.75339,76,80,0
95.75606,95.88159,88,80,0
95.88426,96.009796,87,80,0
96.01247,96.138,88,80,0
96.14067,96.266205,87,80,0
96.268875,96.39441,88,80,0
96.39708,97.163635,76,80,0
96.65349,97.163635,84,80,0
96.65349,97.163635,88,80,0
97.16631,97.67646,74,80,0
97.16631,97.67646,83,80,0
97.16631,97.67646,86,80,0
97.67913,98.18928,84,80,0
97.67913,98.18928,81,80,0
97.67913,98.18928,72,80,0
98.19195,98.44569,83,80,0
98.19195,98.44569,80,80,0
98.19195,98.44569,71,80,0
98.44836,98.57389,81,80,0
98.57657,98.7021,76,80,0
98.70477,98.83031,72,80,0
98.83298,98.95851,84,80,0
98.96118,99.086716,83,80,0
99.089386,99.21492,80,80,0
99.21759,99.343124,76,80,0
99.345795,99.47133,86,80,0
99.474,99.59953,84,80,0
99.6022,99.72774,81,80,0
99.73041,99.85594,76,80,0
99.85861,99.984146,88,80,0
99.98682,100.11235,87,80,0
100.11503,100.24056,88,80,0
100.24323,100.36877,87,80,0
100.37144,100.49697,88,80,0
100.49964,100.625175,84,80,0
100.627846,100.75338,81,80,0
100.75605,100.881584,76,80,0
100.884254,101.00979,88,80,0
101.01246,101.13799,87,80,0
101.14066,101.2662,88,80,0
101.26887,101.3944,87,80,0
101.39707,101.522606,88,80,0
101.52528,101.65526,84,80,0
101.65802,101.788,81,80,0
101.790764,101.920746,76,80,0
101.92351,102.05349,88,80,0
102.05625,102.18977,87,80,0
102.19261,102.32614,88,80,0
102.32898,102.47585,87,80,0
102.47898,102.625854,88,80,0
102.62898,102.898865,81,80,0
103.17443,103.71705,57,80,0
103.71989,104.28834,57,80,0
104.29131,104.9196,57,80,0
104.92289,107.445915,57,80,0
107.4492,108.07749,55,80,0
108.08078,108.70907,53,80,0
108.712364,109.34065,52,80,0
109.34394,109.65644,53,80,0
109.65973,109.97223,50,80,0
111.97552,116.9651,61,70,0
112.97552,116.9651,64,70,0
113.97552,116.9651,69,70,0
116.97552,117.097916,69,80,0
117.10052,117.222916,67,80,0
117.22552,117.347916,67,80,0
117.35052,117.472916,65,80,0
117.47552,117.597916,65,80,0
117.60052,117.722916,64,80,0
117.72552,117.847916,64,80,0
117.85052,117.972916,62,80,0
117.97552,118.097916,69,80,0
118.10052,118.222916,67,80,0
118.22552,118.347916,67,80,0
118.35052,118.472916,65,80,0
118.47552,118.597916,65,80,0
118.60052,118.722916,64,80,0
118.72552,118.847916,64,80,0
118.85052,118.972916,62,80,0
118.97552,119.097916,74,80,0
119.10052,119.222916,72,83,0
119.22552,119.347916,72,86,0
119.35052,119.472916,70,89,0
119.47552,119.597916,70,92,0
119.60052,119.722916,69,95,0
119.72552,119.85904,69,98,0
119.86188,119.9954,67,101,0
119.998245,120.14512,67,104,0
120.14825,120.29512,68,107,0
120.29824,121.782616,68,110,0
121.79824,122.157616,69,80,0
121.98574,122.345116,68,80,0
122.17324,122.532616,66,80,0
122.36074,122.720116,68,80,0
122.54824,122.907616,71,80,0
120.29824,123.282616,65,110,0
122.92324,123.282616,69,80,0
123.29824,126.282616,69,80,0
123.29824,126.282616,64,80,0
129.29825,132.28783,67,70,0
128.29825,133.28783,64,70,0
130.29825,133.28783,72,70,0
133.29825,133.42064,72,80,0
133.42325,133.54564,70,80,0
133.54825,133.67064,70,81,0
133.67325,133.79564,68,82,0
133.79825,133.92064,68,83,0
133.92325,134.04564,69,84,0
134.04825,134.17064,69,85,0
134.17325,134.29564,74,86,0
134.29825,134.42064,74,87,0
134.42325,134.54564,72,88,0
134.54825,134.67064,72,89,0
134.67325,134.79564,69,90,0
134.79825,134.92064,69,91,0
134.92325,135.04564,70,92,0
135.04825,135.17064,70,93,0
135.17325,135.29564,75,94,0
135.29825,135.42064,75,95,0
135.42325,135.54564,74,95,0
135.54825,135.67064,74,96,0
135.67325,135.79564,73,97,0
135.79825,135.92064,73,98,0
135.92325,136.04564,82,99,0
136.04825,136.17064,82,100,0
136.17325,136.29564,76,101,0
136.29825,136.42064,76,102,0
136.42325,136.54564,85,103,0
136.54825,136.67596,85,104,0
136.67868,136.8064,77,105,0
136.80911,136.93683,77,106,0
136.93954,137.06726,86,107,0
137.06998,137.2035,86,108,0
137.20634,137.33987,77,109,0
137.34271,137.48958,77,110,0
137.4927,137.63959,89,110,0
137.64272,137.78958,89,110,0
137.79271,137.93959,85,110,0
137.9427,138.06511,85,110,0
138.0677,138.19011,86,110,0
138.1927,138.31511,86,110,0
138.3177,138.44011,80,110,0
138.4427,138.56511,80,110,0
138.5677,138.69011,81,110,0
138.6927,138.81511,81,110,0
138.8177,138.94011,76,110,0
138.9427,139.06511,76,110,0
139.0677,139.19011,77,110,0
139.1927,139.31511,77,110,0
139.3177,139.44011,73,110,0
139.4427,139.56511,73,110,0
139.5677,139.69011,74,110,0
139.6927,139.81511,74,110,0
139.8177,139.94011,68,110,0
139.9427,140.06511,68,110,0
140.0677,140.19011,69,110,0
140.1927,140.31511,69,110,0
140.3177,140.44011,64,110,0
140.4427,140.56511,64,110,0
140.5677,140.69011,65,110,0
140.6927,140.82042,65,110,0
140.82315,140.95087,61,110,0
140.95358,141.0813,61,110,0
141.08401,141.21173,62,110,0
141.21445,141.34798,62,110,0
141.35081,141.48433,58,110,0
141.48717,141.63405,58,110,0
141.63718,141.78404,57,110,0
141.78717,141.9207,57,110,0
141.92354,142.05705,61,110,0
142.0599,142.1823,61,110,0
142.1849,142.3073,62,110,0
142.3099,142.4323,62,110,0
142.4349,142.5573,58,110,0
142.5599,142.6823,58,110,0
142.6849,142.8073,57,110,0
142.8099,142.9323,57,110,0
142.9349,143.0573,61,110,0
143.0599,143.1823,61,110,0
143.1849,143.3073,62,110,0
143.3099,143.4323,62,110,0
143.4349,143.5573,58,110,0
143.5599,143.6823,58,110,0
143.6849,143.8073,57,110,0
143.8099,143.9323,57,110,0
143.9349,144.0573,58,110,0
144.0599,144.1823,59,110,0
144.1849,144.3073,60,110,0
144.3099,144.4323,61,110,0
144.4349,144.5573,62,110,0
144.5599,144.6823,63,110,0
144.6849,144.8073,64,110,0
144.8099,144.93762,65,110,0
144.94034,145.06805,66,110,0
145.07077,145.19849,67,110,0
145.2012,145.32892,68,110,0
145.33163,145.46516,69,110,0
145.468,145.60153,70,110,0
145.60437,145.75124,61,110,0
145.75436,145.90125,69,110,0
145.90437,146.05124,62,110,0
146.00436,146.15749,57,110,0
146.10437,146.26686,53,110,0
146.20436,146.34499,57,110,0
146.2877,146.4127,53,110,0
146.37103,146.51166,57,110,0
146.45436,146.59239,53,110,0
146.5377,146.67311,57,110,0
146.62103,146.75645,53,110,0
146.70436,146.83458,57,110,0
146.7877,146.9127,53,110,0
146.87103,147.00385,57,110,0
146.95436,147.08978,53,110,0
147.0377,147.17311,57,107,0
147.12103,147.25385,53,103,0
147.20436,147.33978,57,99,0
147.2877,147.42311,53,96,0
147.37103,147.50905,57,92,0
147.45436,147.58978,53,88,0
147.5377,147.65749,57,84,0
147.62103,147.75385,53,81,0
147.70436,147.83978,57,80,0
147.7877,147.90489,53,80,0
147.70436,147.95177,69,93,0
147.87103,147.99603,57,80,0
147.95436,148.08978,53,80,0
148.0377,148.17052,57,80,0
147.95436,148.20177,68,100,0
148.12103,148.24864,53,80,0
148.20436,148.3476,57,80,0
148.2877,148.41791,53,80,0
148.20436,148.45177,69,105,0
148.37103,148.49864,57,80,0
148.45436,148.58458,53,80,0
148.5377,148.67311,57,80,0
148.45436,148.70177,70,101,0
148.62103,148.74083,53,80,0
148.70436,148.83458,57,80,0
148.7877,148.94655,53,80,0
148.70436,148.95177,69,100,0
148.87103,148.99864,57,80,0
148.95436,149.08197,53,80,0
149.0377,149.1627,57,80,0
149.12103,149.24083,53,80,0
149.20436,149.34499,57,80,0
149.2877,149.42311,53,80,0
148.95436,149.45177,69,102,0
149.37103,149.49864,57,80,0
149.45436,149.58458,53,80,0
149.5377,149.6653,57,80,0
149.62103,149.74603,53,80,0
149.70436,149.84499,57,80,0
149.7877,149.92833,53,80,0
149.45436,149.95177,69,101,0
149.87103,149.95177,57,80,0
149.95436,150.09239,69,110,0
150.0377,150.19395,61,110,0
150.12103,150.27467,55,110,0
150.20436,150.35541,61,110,0
150.2877,150.44395,55,110,0
150.37103,150.52728,61,110,0
150.45436,150.61061,55,110,0
150.5377,150.69395,61,110,0
150.62103,150.76427,55,110,0
150.70436,150.86322,61,110,0
150.7877,150.93614,55,110,0
150.87103,151.02989,61,110,0
150.95436,151.11061,55,107,0
151.0377,151.19395,61,104,0
151.12103,151.26427,55,101,0
151.20436,151.36322,61,97,0
151.2877,151.43614,55,94,0
151.37103,151.52989,61,91,0
151.45436,151.61061,55,87,0
151.5377,151.69395,61,84,0
151.62103,151.76427,55,81,0
151.70436,151.86322,61,80,0
151.7877,151.93614,55,80,0
151.70436,151.95177,69,100,0
151.87103,152.02989,61,80,0
151.95436,152.11061,55,80,0
152.0377,152.19395,61,80,0
151.95436,152.20177,68,102,0
152.12103,152.26427,55,80,0
152.20436,152.36322,61,80,0
152.2877,152.43614,55,80,0
152.20436,152.45177,69,103,0
152.37103,152.52989,61,80,0
152.45436,152.61061,55,80,0
152.5377,152.69395,61,80,0
152.45436,152.70177,70,103,0
152.62103,152.76427,55,80,0
152.70436,152.86322,61,80,0
152.7877,152.93614,55,80,0
152.70436,152.95177,69,103,0
152.87103,153.02989,61,80,0
152.95436,153.11061,55,80,0
153.0377,153.19395,61,80,0
153.12103,153.26427,55,80,0
153.20436,153.36322,61,80,0
153.2877,153.43614,55,80,0
152.95436,153.45177,69,103,0
153.37103,153.52989,61,80,0
153.45436,153.61061,55,80,0
153.5377,153.69395,61,80,0
153.62103,153.76427,55,80,0
153.70436,153.86322,61,80,0
153.7877,153.93614,55,80,0
153.45436,153.95177,69,100,0
153.87103,153.95177,61,80,0
153.95436,154.11322,69,110,0
154.0377,154.19135,62,110,0
154.12103,154.27989,57,110,0
154.20436,154.35541,62,110,0
154.2877,154.42311,57,110,0
154.37103,154.51166,62,110,0
154.45436,154.61322,57,110,0
154.5377,154.69135,62,110,0
154.62103,154.77989,57,110,0
154.70436,154.85541,62,110,0
154.7877,154.92311,57,110,0
154.87103,155.01166,62,110,0
154.95436,155.11322,57,110,0
155.0377,155.19135,62,110,0
155.12103,155.27989,57,110,0
155.20436,155.35541,62,110,0
155.2877,155.42311,57,110,0
155.37103,155.51166,62,110,0
155.45436,155.61322,57,110,0
155.5377,155.69135,62,110,0
155.45436,155.70177,74,122,0
155.62103,155.77989,57,110,0
155.70436,155.85541,62,110,0
155.7877,155.92311,57,110,0
155.87103,155.95177,62,110,0
155.95436,156.08717,64,110,0
156.0377,156.17572,59,110,0
156.12103,156.26427,64,110,0
156.20436,156.3502,59,110,0
156.2877,156.42311,64,110,0
156.37103,156.48822,59,110,0
156.45436,156.58717,64,110,0
156.5377,156.67572,59,110,0
156.62103,156.76427,64,110,0
156.70436,156.8502,59,110,0
156.7877,156.92311,64,110,0
156.87103,156.98822,59,110,0
156.95436,157.08717,64,110,0
157.0377,157.17572,59,110,0
157.12103,157.26427,64,110,0
157.20436,157.3502,59,110,0
157.2877,157.42311,64,110,0
157.37103,157.48822,59,110,0
157.45436,157.58717,64,110,0
157.5377,157.67572,59,110,0
157.45436,157.70177,76,120,0
157.62103,157.76427,64,110,0
157.70436,157.8502,59,110,0
157.7877,157.92311,64,110,0
157.87103,157.95177,59,110,0
157.95436,158.09239,65,110,0
158.0377,158.17311,60,110,0
158.12103,158.26686,65,110,0
158.20436,158.36061,60,110,0
158.2877,158.43092,65,110,0
158.37103,158.52208,60,110,0
158.45436,158.59239,65,110,0
158.5377,158.67311,60,110,0
158.62103,158.76686,65,110,0
158.70436,158.86061,60,110,0
158.7877,158.93092,65,110,0
158.87103,159.02208,60,110,0
158.95436,159.09239,65,110,0
159.0377,159.17311,60,110,0
159.12103,159.26686,65,110,0
159.20436,159.36061,60,110,0
159.2877,159.43092,65,110,0
159.37103,159.52208,60,110,0
159.45436,159.59239,65,110,0
159.5377,159.67311,60,110,0
159.45436,159.70177,77,121,0
159.62103,159.76686,65,110,0
159.70436,159.86061,60,110,0
159.7877,159.93092,65,110,0
159.87103,159.95177,60,110,0
159.95436,160.1002,68,110,0
160.0377,160.18353,62,110,0
160.12103,160.25385,68,110,0
160.20436,160.3476,62,110,0
160.2877,160.43353,68,110,0
160.37103,160.51166,62,110,0
160.45436,160.6002,68,110,0
160.5377,160.68353,62,110,0
160.62103,160.75385,68,110,0
160.70436,160.8476,62,110,0
160.7877,160.93353,68,110,0
160.87103,161.01166,62,110,0
160.95436,161.1002,68,110,0
161.0377,161.18353,62,110,0
161.12103,161.25385,68,110,0
161.20436,161.3476,62,110,0
161.2877,161.43353,68,110,0
161.37103,161.51166,62,110,0
161.45436,161.6002,68,110,0
161.5377,161.68353,62,110,0
161.45436,161.70177,80,120,0
161.62103,161.75385,68,110,0
161.70436,161.8476,62,110,0
161.7877,161.93353,68,110,0
161.87103,161.95177,62,110,0
161.95436,162.09499,69,110,0
162.0377,162.19395,64,110,0
162.12103,162.27467,69,110,0
162.20436,162.35802,64,110,0
162.2877,162.44655,69,110,0
162.37103,162.51427,64,110,0
162.45436,162.59499,69,110,0
162.5377,162.69395,64,110,0
162.62103,162.77467,69,110,0
162.70436,162.85802,64,110,0
162.7877,162.94655,69,110,0
162.87103,162.95177,64,110,0
162.95436,163.08717,69,110,0
163.0377,163.17311,72,110,0
163.12103,163.25645,69,110,0
163.20436,163.3476,72,110,0
163.2877,163.42833,69,110,0
163.37103,163.50645,72,110,0
163.45436,163.58717,69,110,0
163.5377,163.67311,72,110,0
163.45436,163.70177,81,120,0
163.62103,163.75645,69,110,0
163.70436,163.8476,72,110,0
163.7877,163.92833,69,110,0
163.87103,163.95177,72,110,0
163.95436,164.08717,69,110,0
164.0377,164.17311,72,110,0
164.12103,164.25645,69,110,0
164.20436,164.3476,72,110,0
164.2877,164.42833,69,110,0
164.37103,164.50645,72,110,0
164.45436,164.58717,69,110,0
164.5377,164.67311,72,110,0
164.45436,164.70177,81,122,0
164.62103,164.75645,69,110,0
164.70436,164.8476,72,110,0
164.7877,164.92833,69,110,0
164.87103,164.95177,72,110,0
164.95436,165.08717,69,110,0
165.0377,165.17311,72,110,0
165.12103,165.25645,69,110,0
165.20436,165.3476,72,110,0
165.2877,165.42833,69,110,0
165.37103,165.50871,72,110,0
165.45436,165.59296,69,110,0
165.54132,165.68263,72,110,0
165.45436,165.71252,81,120,0
165.62828,165.77205,69,110,0
165.71524,165.87149,72,110,0
165.80614,165.95955,69,110,0
165.89705,165.98512,72,110,0
165.98796,166.24672,80,110,0
165.98796,166.24672,71,110,0
165.98796,166.24672,68,110,0
166.74933,166.87172,83,80,0
166.87433,166.99672,80,80,0
166.99933,167.12172,76,80,0
167.12433,167.24672,77,80,0
167.24933,167.37172,77,80,0
167.37433,167.49672,74,80,0
167.74933,167.87172,83,80,0
167.87433,167.99672,80,80,0
167.99933,168.12172,76,80,0
168.12433,168.24672,77,80,0
168.24933,168.37172,77,80,0
168.37433,168.49672,74,80,0
168.74933,168.87172,83,80,0
168.87433,168.99672,80,80,0
168.99933,169.12172,76,80,0
169.12433,169.24672,77,80,0
169.24933,169.37172,77,80,0
169.37433,169.49672,74,80,0
169.49933,169.62172,74,80,0
169.62433,169.74672,72,80,0
169.74933,169.87172,72,80,0
169.87433,169.99672,71,80,0
169.99933,170.12172,71,80,0
170.12433,170.24672,72,80,0
170.24933,170.49672,69,80,0
170.74933,170.87172,84,80,0
170.87433,170.99672,81,80,0
170.99933,171.12172,75,80,0
171.12433,171.24672,76,80,0
171.24933,171.37172,76,80,0
171.37433,171.49672,72,80,0
171.74933,171.87172,84,80,0
171.87433,171.99672,81,80,0
171.99933,172.12172,75,80,0
172.12433,172.24672,76,80,0
172.24933,172.37172,76,80,0
172.37433,172.49672,72,80,0
172.74933,172.87172,84,80,0
172.87433,172.99672,81,80,0
172.99933,173.12172,75,80,0
173.12433,173.24672,76,80,0
173.24933,173.37172,76,80,0
173.37433,173.49672,72,80,0
173.49933,173.62172,72,80,0
173.62433,173.74672,71,80,0
173.74933,173.87172,71,80,0
173.87433,173.99672,69,80,0
173.99933,174.12172,69,80,0
174.12433,174.24672,68,80,0
174.24933,174.49672,71,80,0
174.74933,174.87172,89,90,0
174.87433,174.99672,86,91,0
174.99933,175.12172,85,93,0
175.12433,175.24672,86,95,0
175.24933,175.49672,83,97,0
175.74933,175.87172,89,104,0
175.87433,175.99672,86,105,0
175.99933,176.12172,85,107,0
176.12433,176.24672,86,109,0
176.24933,176.49672,83,111,0
176.74933,176.87172,89,118,0
176.87433,176.99672,86,119,0
176.99933,177.12172,83,120,0
177.12433,177.24672,86,120,0
177.24933,177.37172,80,120,0
177.37433,177.49672,83,120,0
177.49933,177.62172,77,120,0
177.62433,177.74672,80,120,0
177.74933,177.87172,74,120,0
177.87433,177.99672,77,120,0
177.99933,178.12172,71,120,0
178.12433,178.24672,74,120,0
178.24933,178.37172,68,120,0
178.37433,178.49672,71,120,0
178.49933,178.62172,65,120,0
178.62433,178.74672,68,120,0
178.74933,178.87172,62,120,0
178.87433,178.99672,65,120,0
178.99933,179.12172,59,120,0
179.12433,179.24672,62,120,0
179.24933,179.37172,56,120,0
179.37433,179.49672,59,120,0
179.49933,179.62172,50,120,0
179.62433,179.74672,59,120,0
179.74933,179.88284,56,120,0
179.8857,180.01921,50,120,0
180.02205,180.29193,48,110,0
180.29478,180.56467,52,110,0
180.29478,180.56467,48,110,0
180.29478,180.56467,57,110,0
180.5675,181.5649,58,110,0
181.5675,181.8149,57,110,0
180.5675,182.0649,50,110,0
180.5675,182.0649,53,110,0
181.8175,182.0649,56,110,0
182.0675,182.3149,57,110,0
182.0675,182.3149,52,110,0
182.0675,182.3149,48,110,0
182.3175,182.5649,64,110,0
182.3175,182.5649,60,110,0
182.3175,182.5649,69,110,0
182.5675,183.5649,70,110,0
183.5675,183.8149,69,110,0
182.5675,184.0649,62,110,0
182.5675,184.0649,65,110,0
183.8175,184.0649,68,110,0
184.0675,184.3149,69,110,0
184.0675,184.3149,64,110,0
184.0675,184.3149,60,110,0
184.3175,184.5649,81,110,0
184.3175,184.5649,69,110,0
184.5675,185.3149,70,110,0
184.5675,185.3149,82,110,0
185.3175,185.5649,83,110,0
185.3175,185.5649,71,110,0
185.5675,186.3149,72,110,0
185.5675,186.3149,84,110,0
186.3175,186.5649,85,110,0
186.3175,186.5649,73,110,0
186.5675,186.8149,86,101,0
186.5675,186.8149,74,101,0
186.8175,187.0649,88,91,0
186.8175,187.0649,76,91,0
187.0675,187.3149,89,81,0
187.0675,187.3149,77,81,0
187.3175,187.8149,77,80,0
187.3175,187.8149,65,80,0
187.8175,188.0649,76,80,0
187.8175,188.0649,64,80,0
188.0675,188.3149,69,110,0
188.8175,189.0649,64,110,0
188.8175,189.0649,61,110,0
189.0675,189.3149,65,110,0
189.0675,189.3149,62,110,0
189.3175,189.8149,74,110,0
189.3175,189.8149,65,110,0
189.8175,190.0649,74,110,0
189.8175,190.0649,65,110,0
190.0675,190.3149,73,110,0
190.0675,190.3149,64,110,0
190.8175,191.0649,64,110,0
190.8175,191.0649,61,110,0
191.0675,191.3149,65,110,0
191.0675,191.3149,62,110,0
191.3175,191.8149,77,110,0
191.3175,191.8149,74,110,0
191.8175,192.0649,77,110,0
191.8175,192.0649,74,110,0
192.0675,192.3149,76,110,0
192.0675,192.3149,73,110,0
192.8175,193.0649,64,110,0
192.8175,193.0649,61,110,0
193.0675,193.3149,65,110,0
193.0675,193.3149,62,110,0
193.3175,193.8149,77,110,0
193.3175,193.8149,74,110,0
193.8175,194.3149,86,110,0
193.8175,194.3149,89,110,0
194.8175,195.0649,77,80,0
194.8175,195.0649,74,80,0
195.0675,195.3149,76,80,0
195.0675,195.3149,72,80,0
195.8175,196.0649,88,80,0
195.8175,196.0649,84,80,0
196.0675,196.3149,86,80,0
196.0675,196.3149,83,80,0
196.8175,197.0649,74,80,0
196.8175,197.0649,71,80,0
197.0675,197.3149,72,80,0
197.0675,197.3149,69,80,0
197.8175,198.0649,84,80,0
197.8175,198.3149,81,80,0
198.0675,198.3149,83,85,0
198.8175,199.0649,69,103,0
198.8175,199.3149,71,103,0
199.0675,199.3149,68,109,0
199.8175,200.0649,80,98,0
199.8175,200.0649,71,98,0
200.0675,200.1899,81,80,0
200.1925,200.3149,76,80,0
200.3175,200.4399,72,80,0
200.4425,200.5649,84,80,0
200.5675,200.6899,83,80,0
200.6925,200.8149,80,80,0
200.8175,200.9399,76,80,0
200.9425,201.0649,86,80,0
201.0675,201.1899,84,80,0
201.1925,201.3149,81,80,0
201.3175,201.4399,76,80,0
201.4425,201.5649,88,80,0
201.5675,201.6899,87,80,0
201.6925,201.8149,88,80,0
201.8175,201.9399,87,80,0
201.9425,202.0649,88,80,0
202.0675,202.5649,88,80,0
202.0675,202.5649,76,80,0
202.0675,202.5649,84,80,0
202.5675,203.0649,83,80,0
202.5675,203.0649,74,80,0
202.5675,203.0649,86,80,0
203.0675,203.5649,84,80,0
203.0675,203.5649,81,80,0
203.0675,203.5649,72,80,0
203.5675,204.0649,83,80,0
203.5675,204.0649,80,80,0
203.5675,204.0649,71,80,0
204.0675,204.1899,81,80,0
204.1925,204.3149,76,80,0
204.3175,204.4399,72,80,0
204.4425,204.5649,84,80,0
204.5675,204.6899,83,80,0
204.6925,204.8149,80,80,0
204.8175,204.9399,76,80,0
204.9425,205.0649,86,80,0
205.0675,205.1899,84,80,0
205.1925,205.3149,81,80,0
205.3175,205.4399,76,80,0
205.4425,205.5649,88,80,0
205.5675,205.6899,87,80,0
205.6925,205.8149,88,80,0
205.8175,205.9399,87,80,0
205.9425,206.0649,88,80,0
206.0675,206.8149,76,80,0
206.3175,206.8149,84,80,0
206.3175,206.8149,88,80,0
206.8175,207.3149,74,80,0
206.8175,207.3149,83,80,0
206.8175,207.3149,86,80,0
207.3175,207.8149,84,80,0
207.3175,207.8149,81,80,0
207.3175,207.8149,72,80,0
207.8175,208.0649,83,80,0
207.8175,208.0649,80,80,0
207.8175,208.0649,71,80,0
208.0675,208.1899,81,80,0
208.1925,208.3149,76,80,0
208.3175,208.4399,72,80,0
208.4425,208.5649,84,80,0
208.5675,208.6899,83,80,0
208.6925,208.8149,80,80,0
208.8175,208.9399,76,80,0
208.9425,209.0649,86,80,0
209.0675,209.1899,84,80,0
209.1925,209.3149,81,80,0
209.3175,209.4399,76,80,0
209.4425,209.5649,88,80,0
209.5675,209.6899,87,80,0
209.6925,209.8149,88,80,0
209.8175,209.9399,87,80,0
209.9425,210.0649,88,80,0
210.0675,210.1899,84,80,0
210.1925,210.3149,81,80,0
210.3175,210.4399,76,80,0
210.4425,210.5649,88,80,0
210.5675,210.6899,87,80,0
210.6925,210.8149,88,80,0
210.8175,210.9399,87,80,0
210.9425,211.0649,88,80,0
211.0675,211.19522,84,80,0
211.19794,211.32565,81,80,0
211.32837,211.45609,76,80,0
211.45882,211.58653,88,80,0
211.58925,211.72276,87,80,0
211.7256,211.85913,88,80,0
211.86197,212.00885,87,80,0
212.01198,212.15884,88,80,0
212.16197,212.45885,81,80,0
212.76198,213.35884,57,80,0
213.36197,213.95885,57,80,0
213.96198,214.55885,57,80,0
214.56197,216.95885,57,80,0
216.96198,219.35884,55,80,0
219.86197,222.35155,62,70,0
221.36197,224.35155,66,70,0
222.36197,226.35155,69,70,0
223.36197,226.35155,74,70,0
227.98697,234.35155,66,70,0
229.36197,234.35155,69,70,0
230.36197,234.35155,75,70,0
231.36197,234.35155,78,70,0
235.86197,243.35155,70,70,0
237.36197,243.35155,73,70,0
238.36197,243.35155,78,70,0
239.36197,243.35155,82,70,0
243.36197,243.49217,57,100,0
243.36197,243.49217,54,100,0
243.4453,243.58592,61,100,0
243.52864,243.66666,57,100,0
243.52864,243.66927,54,100,0
243.61197,243.76302,61,100,0
243.6953,243.83853,57,100,0
243.6953,243.84373,54,100,0
243.77864,243.92447,61,100,0
243.86197,243.99217,57,100,0
243.86197,243.99217,54,100,0
243.9453,244.08592,61,100,0
244.02864,244.16666,57,100,0
244.02864,244.16927,54,100,0
244.11197,244.26302,61,100,0
244.1953,244.33853,57,100,0
244.1953,244.34373,54,100,0
244.27864,244.42447,61,100,0
244.36197,244.49217,57,98,0
244.36197,244.49217,54,98,0
244.4453,244.58592,61,96,0
244.52864,244.66666,57,93,0
244.52864,244.66927,54,93,0
244.61197,244.76302,61,91,0
244.6953,244.83853,57,88,0
244.6953,244.84373,54,88,0
244.77864,244.92447,61,86,0
244.86197,244.99217,57,83,0
244.86197,244.99217,54,83,0
244.9453,245.08592,61,80,0
245.02864,245.16666,57,80,0
245.02864,245.16927,54,80,0
245.11197,245.26302,61,80,0
245.1953,245.33853,57,80,0
245.1953,245.34373,54,80,0
245.27864,245.42447,61,80,0
245.36197,245.49217,57,80,0
245.36197,245.49217,54,80,0
245.4453,245.58592,61,80,0
245.52864,245.66666,57,80,0
245.52864,245.66927,54,80,0
245.61197,245.76302,61,80,0
245.6953,245.83853,57,80,0
245.6953,245.84373,54,80,0
245.77864,245.92447,61,80,0
245.86197,245.99217,57,80,0
245.86197,245.99217,54,80,0
245.9453,246.08592,61,80,0
246.02864,246.16666,57,80,0
246.02864,246.16927,54,80,0
246.11197,246.26302,61,80,0
246.1953,246.33853,57,80,0
246.1953,246.34373,54,80,0
246.27864,246.42447,61,80,0
246.36197,246.49217,57,80,0
246.36197,246.49217,54,80,0
246.4453,246.58592,61,80,0
246.52864,246.66666,57,80,0
246.52864,246.66927,54,80,0
246.61197,246.76302,61,80,0
246.6953,246.83853,57,80,0
246.6953,246.84373,54,80,0
246.77864,246.92447,61,80,0
246.86197,246.99217,57,80,0
246.86197,246.99217,54,80,0
246.9453,247.08592,61,80,0
247.02864,247.16666,57,80,0
247.02864,247.16927,54,80,0
247.11197,247.26302,61,80,0
247.1953,247.33853,57,80,0
247.1953,247.34373,54,80,0
247.27864,247.35936,61,80,0
247.36197,247.49739,53,100,0
247.36197,247.49998,59,100,0
247.4453,247.59373,61,100,0
247.52864,247.66927,59,100,0
247.52864,247.68228,53,100,0
247.61197,247.76561,61,100,0
247.6953,247.82552,53,100,0
247.6953,247.84114,59,100,0
247.77864,247.91405,61,100,0
247.86197,247.99739,53,100,0
247.86197,247.99998,59,100,0
247.9453,248.09373,61,100,0
248.02864,248.16927,59,100,0
248.02864,248.18228,53,100,0
248.11197,248.26561,61,100,0
248.1953,248.32552,53,100,0
248.1953,248.34114,59,100,0
248.27864,248.41405,61,100,0
248.36197,248.49739,53,100,0
248.36197,248.49998,59,100,0
248.4453,248.59373,61,97,0
248.52864,248.66927,59,93,0
248.52864,248.68228,53,93,0
248.61197,248.76561,61,89,0
248.6953,248.82552,53,85,0
248.6953,248.84114,59,85,0
248.77864,248.91405,61,81,0
248.86197,248.99739,53,80,0
248.86197,248.99998,59,80,0
248.9453,249.09373,61,80,0
249.02864,249.16927,59,80,0
249.02864,249.18228,53,80,0
249.11197,249.26561,61,80,0
249.1953,249.32552,53,80,0
249.1953,249.34114,59,80,0
249.27864,249.41405,61,80,0
249.36197,249.49739,53,80,0
249.36197,249.49998,59,80,0
249.4453,249.59373,61,80,0
249.52864,249.66927,59,80,0
249.52864,249.68228,53,80,0
249.61197,249.76561,61,80,0
249.6953,249.82552,53,80,0
249.6953,249.84114,59,80,0
249.77864,249.91405,61,80,0
249.86197,249.99739,53,80,0
249.86197,249.99998,59,80,0
249.9453,250.09373,61,80,0
250.02864,250.16927,59,80,0
250.02864,250.18228,53,80,0
250.11197,250.26561,61,80,0
250.1953,250.32552,53,80,0
250.1953,250.34114,59,80,0
250.27864,250.41405,61,80,0
250.36197,250.49739,53,80,0
250.36197,250.49998,59,80,0
250.4453,250.59373,61,80,0
250.52864,250.66927,59,80,0
250.52864,250.68228,53,80,0
250.61197,250.76561,61,80,0
250.6953,250.82552,53,80,0
250.6953,250.84114,59,80,0
250.77864,250.91405,61,80,0
250.86197,250.99739,53,80,0
250.86197,250.99998,59,80,0
250.9453,251.09373,61,80,0
251.02864,251.16927,59,80,0
251.02864,251.18228,53,80,0
251.11197,251.26561,61,80,0
251.1953,251.32552,53,80,0
251.1953,251.34114,59,80,0
251.27864,251.35936,61,80,0
251.36197,251.49478,54,100,0
251.4453,251.59114,57,100,0
251.4453,251.60416,61,100,0
251.52864,251.66405,54,100,0
251.61197,251.74217,57,100,0
251.61197,251.7578,61,100,0
251.6953,251.84114,54,100,0
251.77864,251.91927,61,100,0
251.77864,251.92447,57,100,0
251.86197,251.99478,54,100,0
251.9453,252.09114,57,100,0
251.9453,252.10416,61,100,0
252.02864,252.16405,54,100,0
252.11197,252.24217,57,100,0
252.11197,252.2578,61,100,0
252.1953,252.34114,54,100,0
252.27864,252.41927,61,100,0
252.27864,252.42447,57,100,0
252.36197,252.49478,54,100,0
252.4453,252.59114,57,100,0
252.4453,252.60416,61,100,0
252.52864,252.66405,54,100,0
252.61197,252.74217,57,100,0
252.61197,252.7578,61,100,0
252.6953,252.84114,54,100,0
252.77864,252.91927,61,100,0
252.77864,252.92447,57,100,0
252.86197,252.99478,54,100,0
252.9453,253.09114,57,100,0
252.9453,253.10416,61,100,0
253.02864,253.16405,54,100,0
253.11197,253.24217,57,100,0
253.11197,253.2578,61,100,0
253.1953,253.34114,54,100,0
253.27864,253.35936,61,100,0
253.27864,253.35936,57,100,0
253.36197,253.52083,54,100,0
253.4453,253.57811,59,100,0
253.4453,253.59373,62,100,0
253.52864,253.67967,54,100,0
253.61197,253.74217,59,100,0
253.61197,253.74998,62,100,0
253.6953,253.84634,54,100,0
253.77864,253.91405,62,100,0
253.77864,253.91666,59,100,0
253.86197,254.02083,54,100,0
253.9453,254.07811,59,100,0
253.9453,254.09373,62,100,0
254.02864,254.17967,54,100,0
254.11197,254.24217,59,100,0
254.11197,254.24998,62,100,0
254.1953,254.34634,54,100,0
254.27864,254.41405,62,100,0
254.27864,254.41666,59,100,0
254.36197,254.52083,54,100,0
254.4453,254.57811,59,100,0
254.4453,254.59373,62,100,0
254.52864,254.67967,54,100,0
254.61197,254.74217,59,100,0
254.61197,254.74998,62,100,0
254.6953,254.84634,54,100,0
254.77864,254.91405,62,100,0
254.77864,254.91666,59,100,0
254.86197,255.02083,54,100,0
254.9453,255.07811,59,100,0
254.9453,255.09373,62,100,0
255.02864,255.17967,54,100,0
255.11197,255.24217,59,100,0
255.11197,255.24998,62,100,0
255.1953,255.34634,54,100,0
255.27864,255.35936,62,100,0
255.27864,255.35936,59,100,0
255.36197,255.5078,55,100,0
255.4453,255.57552,62,100,0
255.4453,255.58333,59,100,0
255.52864,255.66145,55,100,0
255.61197,255.7526,59,100,0
255.61197,255.76302,62,100,0
255.6953,255.83853,55,100,0
255.77864,255.92186,59,100,0
255.77864,255.92186,62,100,0
255.86197,256.0078,55,100,0
255.9453,256.0755,62,100,0
255.9453,256.0833,59,100,0
256.02863,256.16144,55,100,0
256.11197,256.2526,59,100,0
256.11197,256.263,62,100,0
256.1953,256.33853,55,100,0
256.27863,256.42188,59,100,0
256.27863,256.42188,62,100,0
256.36197,256.5078,55,100,0
256.4453,256.5755,62,100,0
256.4453,256.5833,59,100,0
256.52863,256.66144,55,100,0
256.61197,256.7526,59,100,0
256.61197,256.763,62,100,0
256.6953,256.83853,55,100,0
256.77863,256.92188,59,100,0
256.77863,256.92188,62,100,0
256.86197,257.0078,55,100,0
256.9453,257.0755,62,100,0
256.9453,257.0833,59,100,0
257.02863,257.16144,55,100,0
257.11197,257.2526,59,100,0
257.11197,257.263,62,100,0
257.1953,257.33853,55,100,0
257.27863,257.35938,59,100,0
257.27863,257.35938,62,100,0
257.36197,257.5,55,100,0
257.4453,257.59113,64,100,0
257.4453,257.60416,60,100,0
257.52863,257.66666,55,100,0
257.61197,257.74478,64,100,0
257.61197,257.7552,60,100,0
257.6953,257.85156,55,100,0
257.77863,257.91406,60,100,0
257.77863,257.91925,64,100,0
257.86197,258.0,55,100,0
257.9453,258.09113,64,100,0
257.9453,258.10416,60,100,0
258.02863,258.16666,55,100,0
258.11197,258.24478,64,100,0
258.11197,258.2552,60,100,0
258.1953,258.35156,55,100,0
258.27863,258.41406,60,100,0
258.27863,258.41925,64,100,0
258.36197,258.5,55,100,0
258.4453,258.59113,64,100,0
258.4453,258.60416,60,100,0
258.52863,258.66666,55,100,0
258.61197,258.74478,64,100,0
258.61197,258.7552,60,100,0
258.6953,258.85156,55,100,0
258.77863,258.91406,60,100,0
258.77863,258.91925,64,100,0
258.86197,259.0,55,100,0
258.9453,259.09113,64,100,0
258.9453,259.10416,60,100,0
259.02863,259.16666,55,100,0
259.11197,259.24478,64,100,0
259.11197,259.2552,60,100,0
259.1953,259.35156,55,100,0
259.27863,259.35938,64,100,0
259.27863,259.35938,60,100,0
259.36197,259.5052,57,100,0
259.4453,259.58853,61,100,0
259.4453,259.59894,64,100,0
259.52863,259.67706,57,100,0
259.61197,259.7578,64,100,0
259.61197,259.7604,61,100,0
259.6953,259.85156,57,100,0
259.77863,259.92706,64,100,0
259.77863,259.9375,61,100,0
259.86197,260.0052,57,100,0
259.9453,260.08853,61,100,0
259.9453,260.09894,64,100,0
260.02863,260.17706,57,100,0
260.11197,260.2578,64,100,0
260.11197,260.2604,61,100,0
260.1953,260.35156,57,100,0
260.27863,260.42706,64,100,0
260.27863,260.4375,61,100,0
260.36197,260.5052,57,100,0
260.4453,260.58853,61,100,0
260.4453,260.59894,64,100,0
260.52863,260.67706,57,100,0
260.61197,260.7578,64,100,0
260.61197,260.7604,61,100,0
260.6953,260.85156,57,100,0
260.77863,260.92706,64,100,0
260.77863,260.9375,61,100,0
260.86197,261.0052,57,100,0
260.9453,261.08853,61,100,0
260.9453,261.09894,64,100,0
261.02863,261.17706,57,100,0
261.11197,261.2578,64,100,0
261.11197,261.2604,61,100,0
261.1953,261.35156,57,100,0
261.27863,261.35938,64,100,0
261.27863,261.35938,61,100,0
261.36197,261.5,57,100,0
261.4453,261.57812,65,100,0
261.4453,261.5833,62,100,0
261.52863,261.67188,57,100,0
261.61197,261.74738,65,100,0
261.61197,261.7552,62,100,0
261.6953,261.83853,57,100,0
261.77863,261.91666,62,100,0
261.77863,261.9297,65,100,0
261.86197,262.0,57,100,0
261.9453,262.07812,65,100,0
261.9453,262.0833,62,100,0
262.02863,262.17188,57,100,0
262.11197,262.24738,65,100,0
262.11197,262.2552,62,100,0
262.1953,262.33853,57,100,0
262.27863,262.41666,62,100,0
262.27863,262.4297,65,100,0
262.36197,262.5,57,100,0
262.4453,262.57812,65,100,0
262.4453,262.5833,62,100,0
262.52863,262.67188,57,100,0
262.61197,262.74738,65,100,0
262.61197,262.7552,62,100,0
262.6953,262.83853,57,100,0
262.77863,262.91666,62,100,0
262.77863,262.9297,65,100,0
262.86197,263.0,57,100,0
262.9453,263.07812,65,100,0
262.9453,263.0833,62,100,0
263.02863,263.17188,57,100,0
263.11197,263.24738,65,100,0
263.11197,263.2552,62,100,0
263.1953,263.33853,57,100,0
263.27863,263.35938,65,100,0
263.27863,263.35938,62,100,0
263.86197,264.10938,80,120,0
263.86197,264.10938,68,120,0
264.8837,265.1536,86,120,0
264.8837,265.1536,74,120,0
265.45645,265.6033,85,110,0
265.45645,265.6033,73,110,0
265.60645,265.75333,69,110,0
265.75644,265.88196,68,110,0
265.88464,266.01016,69,110,0
266.01285,266.13837,68,110,0
266.14105,266.26657,69,110,0
266.26926,266.39478,68,110,0
266.39746,266.523,69,110,0
266.52567,266.6512,68,110,0
266.65387,266.77942,69,110,0
266.78207,266.90762,76,110,0
266.78207,266.90762,73,110,0
266.91028,267.03583,69,110,0
267.03848,267.16403,77,110,0
267.03848,267.16403,74,110,0
267.1667,267.29224,69,110,0
267.2949,267.42044,74,110,0
267.2949,267.42044,71,110,0
267.4231,267.54865,69,110,0
267.5513,267.67685,76,110,0
267.5513,267.67685,73,110,0
267.6795,267.80505,69,110,0
267.8077,267.93326,76,110,0
267.8077,267.93326,73,110,0
267.9359,268.06146,69,110,0
268.06412,268.18967,77,110,0
268.06412,268.18967,74,110,0
268.19232,268.31787,69,110,0
268.32053,268.44608,74,110,0
268.32053,268.44608,71,110,0
268.44873,268.57428,69,110,0
268.57693,268.70248,76,110,0
268.57693,268.70248,73,110,0
268.70514,268.8307,69,110,0
268.83334,268.9589,76,110,0
268.83334,268.9589,73,110,0
268.96155,269.0871,69,110,0
269.08975,269.2153,77,110,0
269.08975,269.2153,74,110,0
269.21796,269.3435,69,110,0
269.3462,269.4717,74,110,0
269.3462,269.4717,71,110,0
269.4744,269.5999,69,110,0
269.6026,269.72812,73,110,0
269.6026,269.72812,76,110,0
269.7308,269.85632,69,110,0
269.859,269.98453,68,110,0
269.9872,270.11273,69,110,0
270.11542,270.24094,68,110,0
270.24362,270.36914,69,110,0
270.37183,270.49734,68,110,0
270.50003,270.62555,69,110,0
270.62823,270.75375,68,110,0
270.75644,270.88196,69,110,0
270.88464,271.01016,64,110,0
270.88464,271.01016,61,110,0
271.01285,271.13837,69,110,0
271.14105,271.26657,65,110,0
271.14105,271.26657,62,110,0
271.26926,271.39478,69,110,0
271.39746,271.52298,62,110,0
271.39746,271.52298,59,110,0
271.52567,271.65118,69,110,0
271.65387,271.7794,64,110,0
271.65387,271.7794,61,110,0
271.78207,271.9076,69,110,0
271.91028,272.0358,64,110,0
271.91028,272.0358,61,110,0
272.03848,272.164,69,110,0
272.1667,272.2922,65,110,0
272.1667,272.2922,62,110,0
272.2949,272.42044,69,110,0
272.4231,272.54865,62,110,0
272.4231,272.54865,59,110,0
272.5513,272.67685,69,110,0
272.6795,272.80505,64,110,0
272.6795,272.80505,61,110,0
272.8077,272.93326,69,110,0
272.9359,273.06146,64,110,0
272.9359,273.06146,61,110,0
273.06412,273.18967,69,110,0
273.19232,273.31787,65,110,0
273.19232,273.31787,62,110,0
273.32053,273.44608,69,110,0
273.44873,273.57428,62,110,0
273.44873,273.57428,59,110,0
273.57693,273.70248,69,110,0
273.70514,273.8307,61,110,0
273.70514,273.8307,64,110,0
273.83334,273.9589,57,110,0
273.96155,274.0871,56,110,0
274.08975,274.2153,57,110,0
274.21796,274.3435,56,110,0
274.34616,274.4717,57,110,0
274.47437,274.5999,56,110,0
274.60257,274.72812,57,110,0
274.73077,274.85632,56,110,0
274.85898,274.98453,57,110,0
274.98718,275.11273,64,110,0
274.98718,275.11273,61,110,0
275.1154,275.24094,57,110,0
275.2436,275.36914,65,110,0
275.2436,275.36914,62,110,0
275.37183,275.49734,57,110,0
275.50003,275.62555,62,110,0
275.50003,275.62555,59,110,0
275.62823,275.75375,57,110,0
275.75644,275.88196,64,110,0
275.75644,275.88196,61,110,0
275.88464,276.01016,57,110,0
276.01285,276.13837,64,110,0
276.01285,276.13837,61,110,0
276.14105,276.26657,57,110,0
276.26926,276.39478,65,110,0
276.26926,276.39478,62,110,0
276.39746,276.52298,57,110,0
276.52567,276.65118,62,110,0
276.52567,276.65118,59,110,0
276.65387,276.7794,57,110,0
276.78207,276.9098,64,110,0
276.78207,276.9098,61,110,0
276.9125,277.04022,57,110,0
277.04294,277.17065,64,110,0
277.04294,277.17065,61,110,0
277.17337,277.3011,57,110,0
277.3038,277.43732,65,110,0
277.3038,277.43732,62,110,0
277.44016,277.5737,57,110,0
277.57654,277.72342,62,110,0
277.57654,277.72342,59,110,0
277.72653,277.8734,57,110,0
277.87653,279.03467,64,110,0
277.87653,279.03467,61,110,0
277.87653,279.03467,57,110,0
279.0374,280.07816,62,100,0
279.0374,280.07816,57,100,0
279.0374,280.07816,53,100,0
280.08087,281.12164,61,90,0
280.08087,281.12164,57,90,0
280.08087,281.12164,52,90,0
281.12436,282.1651,58,80,0
281.12436,282.1651,53,80,0
281.12436,282.1651,50,80,0
282.16782,282.55643,48,80,0
282.29825,282.68686,52,80,0
282.4287,284.25208,57,80,0
284.2548,285.03467,58,80,0
285.03738,285.29553,57,80,0
285.29825,285.5564,55,80,0
285.5591,285.8173,53,80,0
285.82,286.07816,51,80,0
286.08087,286.33902,50,80,0
286.34174,286.61163,49,80,0
286.61447,286.88434,55,80,0
286.88718,287.15707,58,80,0
287.1599,287.4298,57,80,0
287.43265,287.72952,55,80,0
287.73264,288.0295,53,80,0
288.03265,288.40375,51,80,0
288.40765,288.77875,50,80,0
290.78265,295.77222,61,70,0
291.78265,295.77222,64,70,0
292.78265,295.77222,69,70,0
295.28265,295.77222,69,70,0
295.78265,296.27222,69,70,0
296.28265,296.77222,70,70,0
296.78265,298.77222,69,70,0
297.78265,299.77222,67,70,0
299.65765,299.77222,67,70,0
299.78265,300.77222,76,70,0
300.65765,300.77222,74,70,0
300.78265,302.77222,74,70,0
301.78265,303.77222,73,70,0
303.78265,305.77222,76,70,0
304.78265,305.77222,76,70,0
306.28265,307.27222,67,70,0
306.78265,308.77222,70,70,0
308.28265,309.27222,69,70,0
308.78265,310.77222,67,70,0
309.78265,310.77222,65,70,0
311.78265,311.90503,69,80,0
311.90765,312.03003,67,80,0
312.03265,312.15503,67,80,0
312.15765,312.28003,65,80,0
312.28265,312.40503,65,80,0
312.40765,312.53003,64,80,0
312.53265,312.65503,64,80,0
312.65765,312.78003,62,80,0
312.78265,312.90503,69,80,0
312.90765,313.03003,67,80,0
313.03265,313.15503,67,80,0
313.15765,313.28003,65,80,0
313.28265,313.40503,65,80,0
313.40765,313.53003,64,80,0
313.53265,313.65503,64,80,0
313.65765,313.78003,62,80,0
313.78265,313.90503,74,80,0
313.90765,314.03003,72,83,0
314.03265,314.16037,72,86,0
314.1631,314.2908,70,89,0
314.29352,314.42123,70,92,0
314.42395,314.55167,69,95,0
314.55438,314.70126,69,98,0
314.70438,314.85126,67,101,0
314.85437,315.03796,67,104,0
315.04187,315.22546,68,107,0
315.22937,316.71375,68,110,0
316.72937,317.08875,69,80,0
316.91687,317.27625,68,80,0
317.10437,317.46375,66,80,0
317.29187,317.65125,68,80,0
317.47937,317.83875,71,80,0
315.22937,318.21375,65,110,0
317.85437,318.21375,69,80,0
318.22937,321.21375,69,80,0
318.22937,321.21375,64,80,0
323.22937,329.21896,64,70,0
324.22937,329.21896,67,70,0
325.22937,329.21896,72,70,0
329.22937,332.21896,73,70,0
331.22937,333.21896,61,70,0
332.95856,333.21896,61,70,0
333.22937,335.21896,60,70,0
334.22937,336.21896,58,70,0
335.72937,336.71896,67,70,0
336.22937,336.71896,67,70,0
336.72937,337.71896,68,70,0
337.22937,339.21896,70,70,0
338.72937,339.21896,70,70,0
339.22937,341.6121,73,70,0
340.3008,341.6121,72,70,0
340.87772,342.3621,67,70,0
341.62772,347.6121,68,70,0
347.62772,347.9246,68,70,0
347.62772,347.9246,61,70,0
347.62772,347.9246,56,70,0
348.22772,348.5246,68,70,0
348.22772,348.5246,61,70,0
348.22772,348.5246,56,70,0
348.82773,349.1246,68,70,0
348.82773,349.1246,61,70,0
348.82773,349.1246,56,70,0
349.42773,349.7246,68,70,0
349.42773,349.7246,61,70,0
349.42773,349.7246,56,70,0
350.02774,350.20584,69,80,0
350.12772,350.30585,66,81,0
350.22772,350.39334,61,82,0
350.32773,350.49023,57,84,0
350.42773,350.61523,54,85,0
350.52774,350.70273,49,87,0
350.62772,350.80273,57,88,0
350.72772,350.9121,54,89,0
350.82773,351.00897,49,91,0
351.22772,351.41522,69,97,0
351.32773,351.50897,66,98,0
351.42773,351.59647,61,99,0
351.52774,351.71524,57,101,0
351.62772,351.809,61,102,0
351.72772,351.9246,66,104,0
351.82773,352.01212,69,105,0
351.92773,352.10272,73,107,0
352.02774,352.20898,78,108,0
352.20273,352.20898,78,100,0
352.12772,352.26212,81,109,0
352.27774,352.41522,73,97,0
352.35272,352.4246,69,94,0
352.42773,352.7246,69,80,0
352.42773,352.7246,62,80,0
352.42773,352.7246,57,80,0
353.02774,353.32462,69,80,0
353.02774,353.32462,62,80,0
353.02774,353.32462,57,80,0
353.62772,353.9246,69,80,0
353.62772,353.9246,62,80,0
353.62772,353.9246,57,80,0
354.22772,354.5246,69,80,0
354.22772,354.5246,62,80,0
354.22772,354.5246,57,80,0
354.82773,354.9996,70,80,0
354.92773,355.1215,67,81,0
355.02774,355.20584,62,83,0
356.02774,356.21835,70,100,0
356.12772,356.31522,67,101,0
356.22772,356.41522,62,103,0
356.32773,356.51834,58,105,0
356.42773,356.61835,62,106,0
356.52774,356.7121,67,108,0
356.62772,356.81836,70,110,0
356.72772,356.90897,74,111,0
356.82773,357.00897,79,113,0
357.00272,357.00897,79,116,0
356.92773,357.05585,82,115,0
357.07773,357.20898,74,117,0
357.15274,357.2246,70,118,0
357.22772,357.5246,76,120,0
357.22772,357.5246,73,120,0
357.22772,357.5246,70,120,0
357.22772,357.5246,67,120,0
357.82773,358.1246,76,120,0
357.82773,358.1246,73,120,0
357.82773,358.1246,70,120,0
357.82773,358.1246,67,120,0
358.42773,358.7246,76,120,0
358.42773,358.7246,73,120,0
358.42773,358.7246,70,120,0
358.42773,358.7246,67,120,0
359.02774,359.4746,76,120,0
359.02774,359.4746,73,120,0
359.02774,359.4746,70,120,0
359.02774,359.4746,67,120,0
359.62772,359.7871,77,120,0
359.72772,359.90274,74,120,0
359.82773,360.01834,71,120,0
359.92773,360.09647,68,120,0
360.02774,360.184,65,120,0
360.12772,360.29648,74,120,0
360.22772,360.39648,71,120,0
360.32773,360.4996,68,120,0
360.42773,360.5871,65,120,0
360.52774,360.7121,62,120,0
360.62772,360.79648,65,120,0
360.72772,360.91013,68,120,0
360.82773,360.99533,71,120,0
360.91864,361.0749,74,120,0
361.00955,361.18,77,120,0
361.10046,361.2567,80,120,0
361.19138,361.34763,83,120,0
361.2823,361.46378,86,120,0
361.37317,361.9875,89,120,0
361.66302,361.9875,86,120,0
361.9909,362.31537,85,120,0
362.8188,362.94116,88,80,0
362.9438,363.06616,85,80,0
363.0688,363.19116,81,80,0
363.1938,363.31616,82,80,0
363.3188,363.44116,82,80,0
363.4438,363.56616,79,80,0
363.8188,363.94116,88,80,0
363.9438,364.06616,85,80,0
364.0688,364.19116,81,80,0
364.1938,364.31616,82,80,0
364.3188,364.44116,82,80,0
364.4438,364.56616,79,80,0
364.8188,364.94116,88,80,0
364.9438,365.06616,85,80,0
365.0688,365.19116,81,80,0
365.1938,365.31616,82,80,0
365.3188,365.44116,82,80,0
365.4438,365.56616,79,80,0
365.5688,365.69116,79,80,0
365.6938,365.81616,77,80,0
365.8188,365.94116,77,80,0
365.9438,366.06616,76,80,0
366.0688,366.19116,76,80,0
366.1938,366.31616,77,80,0
366.3188,366.56616,74,80,0
366.8188,366.94116,89,80,0
366.9438,367.06616,86,80,0
367.0688,367.19116,80,80,0
367.1938,367.31616,81,80,0
367.3188,367.44116,81,80,0
367.4438,367.56616,77,80,0
367.8188,367.94116,89,80,0
367.9438,368.06616,86,80,0
368.0688,368.19116,80,80,0
368.1938,368.31616,81,80,0
368.3188,368.44116,81,80,0
368.4438,368.56616,77,80,0
368.8188,368.94116,89,80,0
368.9438,369.06616,86,80,0
369.0688,369.19116,80,80,0
369.1938,369.31616,81,80,0
369.3188,369.44116,81,80,0
369.4438,369.56616,77,80,0
369.5688,369.69116,77,80,0
369.6938,369.81616,76,80,0
369.8188,369.94116,76,80,0
369.9438,370.06616,74,80,0
370.0688,370.19116,74,80,0
370.1938,370.31616,73,80,0
370.3188,370.56616,76,80,0
370.8188,370.94116,82,80,0
370.9438,371.06616,79,81,0
371.0688,371.19116,75,83,0
371.1938,371.31616,76,85,0
371.3188,371.56616,73,87,0
371.8188,371.94116,82,94,0
371.9438,372.06616,79,95,0
372.0688,372.19116,75,97,0
372.1938,372.31616,76,99,0
372.3188,372.56616,73,101,0
372.8188,372.94116,82,108,0
372.9438,373.06616,79,109,0
373.0688,373.19116,76,110,0
373.1938,373.31616,79,110,0
373.3188,373.44116,73,110,0
373.4438,373.56616,76,110,0
373.5688,373.69116,70,110,0
373.6938,373.81616,73,110,0
373.8188,373.94116,67,110,0
373.9438,374.06616,70,110,0
374.0688,374.19116,64,110,0
374.1938,374.31616,67,110,0
374.3188,374.44116,61,110,0
374.4438,374.56616,64,110,0
374.5688,374.69116,58,110,0
374.6938,374.81616,61,110,0
374.8188,374.94116,55,110,0
374.9438,375.06616,58,110,0
375.0688,375.19116,52,110,0
375.1938,375.31616,55,110,0
375.3188,375.44116,49,110,0
375.4438,375.56616,52,110,0
375.5688,375.69116,43,110,0
375.6938,375.81616,52,110,0
375.8188,375.94116,49,110,0
375.9438,376.06616,43,110,0
376.0688,376.31616,41,110,0
376.3188,376.56616,62,110,0
376.3188,376.56616,57,110,0
376.3188,376.56616,53,110,0
376.5688,377.56616,63,110,0
377.5688,377.81616,62,110,0
376.5688,378.06616,55,110,0
376.5688,378.06616,58,110,0
377.8188,378.06616,61,110,0
378.0688,378.31616,62,110,0
378.0688,378.31616,57,110,0
378.0688,378.31616,53,110,0
378.3188,378.56616,74,110,0
378.3188,378.56616,69,110,0
378.3188,378.56616,65,110,0
378.5688,379.56616,75,110,0
379.5688,379.81616,74,110,0
378.5688,380.06616,67,110,0
378.5688,380.06616,70,110,0
379.8188,380.06616,73,110,0
380.0688,380.31616,74,110,0
380.0688,380.31616,69,110,0
380.0688,380.31616,65,110,0
380.3188,380.56616,86,110,0
380.3188,380.56616,74,110,0
380.5688,381.31616,75,110,0
380.5688,381.31616,86,110,0
381.3188,381.56616,76,110,0
381.3188,381.56616,86,110,0
381.5688,382.31616,77,110,0
381.5688,382.31616,86,110,0
382.3188,382.56616,78,110,0
382.3188,382.81616,86,110,0
382.5688,382.81616,79,110,0
382.8188,383.06616,81,110,0
382.8188,383.31616,86,110,0
383.0688,383.31616,82,110,0
383.3188,383.81616,82,96,0
383.3188,383.81616,70,96,0
383.8188,384.06616,81,80,0
383.8188,384.06616,69,80,0
384.0688,384.31616,74,110,0
384.8188,385.06616,57,110,0
384.8188,385.06616,54,110,0
385.0688,385.31616,58,110,0
385.0688,385.31616,55,110,0
385.3188,385.81616,67,110,0
385.3188,385.81616,58,110,0
385.8188,386.06616,67,110,0
385.8188,386.06616,58,110,0
386.0688,386.31616,66,110,0
386.0688,386.31616,57,110,0
386.8188,387.06616,57,110,0
386.8188,387.06616,54,110,0
387.0688,387.31616,58,110,0
387.0688,387.31616,55,110,0
387.3188,387.81616,70,110,0
387.3188,387.81616,67,110,0
387.8188,388.06616,70,110,0
387.8188,388.06616,67,110,0
388.0688,388.31616,69,110,0
388.0688,388.31616,66,110,0
388.8188,389.06616,57,110,0
388.8188,389.06616,54,110,0
389.0688,389.31616,58,110,0
389.0688,389.31616,55,110,0
389.3188,389.81616,70,110,0
389.3188,389.81616,67,110,0
389.8188,390.31616,79,110,0
389.8188,390.31616,82,110,0
390.8188,391.06616,70,80,0
390.8188,391.06616,67,80,0
391.0688,391.31616,69,80,0
391.0688,391.31616,65,80,0
391.8188,392.06616,81,80,0
391.8188,392.06616,77,80,0
392.0688,392.31616,79,80,0
392.0688,392.31616,76,80,0
392.8188,393.06616,67,80,0
392.8188,393.06616,64,80,0
393.0688,393.31616,65,80,0
393.0688,393.31616,62,80,0
393.8188,394.06616,77,80,0
393.8188,394.31616,74,80,0
394.0688,394.31616,76,88,0
394.8188,395.06616,86,120,0
394.8188,395.32693,76,120,0
395.0688,395.32693,85,120,0
395.86325,396.16013,73,93,0
395.86325,396.16013,64,93,0
396.16324,396.31012,74,80,0
396.31323,396.4601,69,80,0
396.46323,396.5877,65,80,0
396.59036,396.7148,77,80,0
396.71747,396.84195,76,80,0
396.8446,396.96906,73,80,0
396.9717,397.0962,69,80,0
397.09885,397.2233,79,80,0
397.22595,397.35043,77,80,0
397.35306,397.47754,74,80,0
397.4802,397.60464,69,80,0
397.6073,397.73178,81,80,0
397.73444,397.8589,80,80,0
397.86154,397.98602,81,80,0
397.98865,398.11313,80,80,0
398.11578,398.24026,81,80,0
398.2429,398.74872,81,80,0
398.2429,398.74872,77,80,0
398.2429,398.74872,69,80,0
398.75137,399.2572,79,80,0
398.75137,399.2572,76,80,0
398.75137,399.2572,67,80,0
399.25986,399.7657,77,80,0
399.25986,399.7657,74,80,0
399.25986,399.7657,65,80,0
399.7683,400.27414,76,80,0
399.7683,400.27414,73,80,0
399.7683,400.27414,64,80,0
400.2768,400.40128,74,80,0
400.4039,400.52838,69,80,0
400.53104,400.6555,65,80,0
400.65814,400.78262,77,80,0
400.78528,400.90973,76,80,0
400.91238,401.03687,73,80,0
401.03952,401.16397,69,80,0
401.16663,401.2911,79,80,0
401.29373,401.4182,77,80,0
401.42087,401.54532,74,80,0
401.54797,401.67245,69,80,0
401.6751,401.79956,81,80,0
401.80222,401.9267,80,80,0
401.92932,402.0538,81,80,0
402.05646,402.18094,80,80,0
402.18356,402.30804,81,80,0
402.3107,403.07074,69,80,0
402.56494,403.07074,81,80,0
402.56494,403.07074,77,80,0
403.0734,403.57922,67,80,0
403.0734,403.57922,76,80,0
403.0734,403.57922,79,80,0
403.58188,404.0877,77,80,0
403.58188,404.0877,74,80,0
403.58188,404.0877,65,80,0
404.09036,404.34195,76,80,0
404.09036,404.34195,73,80,0
404.09036,404.34195,64,80,0
404.34457,404.46906,74,80,0
404.4717,404.59616,69,80,0
404.59882,404.7233,65,80,0
404.72595,404.8504,77,80,0
404.85306,404.97754,76,80,0
404.9802,405.10464,73,80,0
405.1073,405.23178,69,80,0
405.2344,405.3589,79,80,0
405.36154,405.486,77,80,0
405.48865,405.61313,74,80,0
405.61578,405.74023,69,80,0
405.7429,405.86737,81,80,0
405.87,405.99448,80,80,0
405.99713,406.12158,81,80,0
406.12424,406.24872,80,80,0
406.25137,406.37582,81,80,0
406.37848,406.5062,77,80,0
406.5089,406.63663,74,80,0
406.63934,406.76706,69,80,0
406.76978,406.8975,81,80,0
406.9002,407.02792,80,80,0
407.03067,407.1584,81,80,0
407.1611,407.28882,80,80,0
407.29153,407.41925,81,80,0
407.42197,407.55795,77,80,0
407.56085,407.69684,74,80,0
407.69974,407.83572,69,80,0
407.83862,407.9746,81,80,0
407.9775,408.13376,80,80,0
408.1371,408.29333,81,80,0
408.29666,408.48026,80,80,0
408.48416,408.66776,81,80,0
408.67166,408.96854,74,80,0
409.27167,409.86853,62,80,0
409.87167,410.49994,62,94,0
410.50323,411.24933,62,109,0
411.25323,419.81567,53,70,0
411.25323,419.81567,57,70,0
411.25323,419.81567,62,70,0
419.81915,421.41498,77,70,0
419.81915,421.41498,74,70,0
419.81915,421.41498,69,70,0
419.81915,421.41498,65,70,0
421.41916,424.615,62,70,0
421.41916,424.615,65,70,0
421.41916,424.615,69,70,0
421.41916,424.615,74,70,0
426.21915,426.615,62,1,0
0.1875,1.9895834,49,70,0
0.25,1.9895834,52,70,0
0.3125,1.9895834,57,70,0
0.0,6.9895835,37,70,0
0.0625,6.9895835,40,70,0
0.125,6.9895835,45,70,0
7.0,7.247396,57,80,0
7.0,7.247396,49,80,0
7.25,7.497396,57,80,0
7.25,7.497396,50,80,0
7.5,7.747396,57,80,0
7.5,7.747396,52,80,0
7.75,7.997396,57,80,0
7.75,7.997396,53,80,0
8.0,8.2473955,57,80,0
8.0,8.2473955,49,80,0
8.25,8.4973955,57,80,0
8.25,8.4973955,50,80,0
8.5,8.7473955,57,80,0
8.5,8.7473955,52,80,0
8.75,8.9973955,57,80,0
8.75,8.9973955,53,80,0
9.0,9.2473955,62,80,0
9.0,9.2473955,54,80,0
9.25,9.4973955,62,86,0
9.25,9.4973955,55,86,0
9.5,9.7473955,62,92,0
9.5,9.7473955,57,92,0
9.75,10.046875,62,98,0
9.75,10.046875,58,98,0
10.05,10.421094,62,104,0
10.05,10.421094,58,104,0
10.425,13.409375,62,110,0
10.425,13.409375,57,110,0
13.425,16.409374,61,80,0
13.425,16.409374,57,80,0
16.6125,18.414583,52,70,0
16.675,18.414583,55,70,0
16.7375,18.414583,60,70,0
16.425,23.414583,40,70,0
16.4875,23.414583,43,70,0
16.55,23.414583,48,70,0
23.425,23.672396,60,80,0
23.425,23.672396,52,80,0
23.675,23.922396,60,81,0
23.675,23.922396,53,81,0
24.425,24.672396,62,87,0
24.425,24.672396,54,87,0
24.675,24.922396,62,89,0
24.675,24.922396,55,89,0
25.425,25.672396,63,95,0
25.425,25.672396,58,95,0
25.425,25.672396,55,95,0
25.925,26.172396,64,98,0
25.925,26.172396,61,98,0
25.925,26.172396,58,98,0
25.925,26.172396,55,98,0
26.425,26.672396,64,102,0
26.425,26.672396,61,102,0
26.425,26.672396,58,102,0
26.425,26.672396,55,102,0
26.925,27.172396,65,106,0
26.925,27.172396,62,106,0
26.925,27.172396,59,106,0
26.925,27.172396,56,106,0
27.425,27.672396,65,110,0
27.425,27.672396,62,110,0
27.425,27.672396,59,110,0
27.425,27.672396,56,110,0
27.675,27.922396,65,110,0
27.675,27.922396,62,110,0
27.675,27.922396,57,110,0
31.469465,31.602987,46,110,0
31.60583,31.739351,45,110,0
31.742191,31.875715,45,110,0
31.878555,32.012077,49,110,0
32.01492,32.137314,49,110,0
32.13992,32.262314,50,110,0
32.26492,32.387314,50,110,0
32.38992,32.512314,46,110,0
32.51492,32.637314,46,110,0
32.63992,32.762314,45,110,0
32.76492,32.887314,45,110,0
32.88992,33.012314,49,110,0
33.01492,33.137314,49,110,0
33.13992,33.262314,50,110,0
33.26492,33.387314,50,110,0
33.38992,33.512314,46,110,0
33.51492,33.637314,46,110,0
33.63992,33.762314,45,110,0
33.76492,34.762314,46,110,0
34.01492,34.762314,53,110,0
34.01492,34.762314,50,110,0
34.76492,35.034805,53,110,0
34.76492,35.034805,50,110,0
34.76492,35.034805,45,110,0
35.037647,35.307533,53,110,0
35.037647,35.307533,50,110,0
35.037647,35.307533,45,110,0
35.31037,35.607246,55,110,0
35.31037,35.607246,52,110,0
35.31037,35.607246,45,110,0
35.610374,35.98147,55,110,0
35.610374,35.98147,52,110,0
35.610374,35.98147,45,110,0
35.985374,36.54527,38,110,0
36.547874,36.79527,41,110,0
36.797874,37.04527,45,110,0
37.047874,40.04527,50,110,0
40.047874,40.54527,40,110,0
40.547874,40.79527,43,110,0
40.797874,41.04527,49,110,0
41.047874,44.04527,52,107,0
44.047874,44.54527,41,110,0
44.547874,44.79527,45,110,0
44.797874,45.04527,50,110,0
45.047874,46.04527,53,110,0
46.047874,46.54527,44,110,0
46.547874,46.79527,47,110,0
46.797874,47.04527,52,110,0
47.047874,48.04527,56,110,0
48.047874,48.54527,45,110,0
48.547874,48.79527,48,110,0
48.797874,49.04527,53,110,0
49.047874,50.04527,57,110,0
50.047874,50.54527,47,110,0
50.547874,50.79527,50,110,0
50.797874,51.04527,56,110,0
51.047874,52.04527,59,110,0
52.047874,52.54527,48,110,0
52.547874,52.79527,57,110,0
52.797874,53.04527,60,110,0
53.047874,54.04527,66,110,0
53.047874,54.04527,63,110,0
54.047874,55.04527,66,110,0
54.047874,55.04527,63,110,0
55.047874,56.07863,66,110,0
55.047874,56.07863,63,110,0
56.08147,56.214993,52,110,0
56.21783,56.351357,64,80,0
56.354195,56.476593,62,80,0
56.354195,56.476593,59,80,0
56.479195,56.601593,64,80,0
56.604195,56.726593,65,80,0
56.729195,56.851593,64,80,0
56.854195,56.976593,62,80,0
56.854195,56.976593,59,80,0
56.979195,57.101593,64,80,0
57.104195,57.226593,52,80,0
57.229195,57.351593,64,80,0
57.354195,57.476593,62,80,0
57.354195,57.476593,59,80,0
57.479195,57.601593,64,80,0
57.604195,57.726593,65,80,0
57.729195,57.851593,64,80,0
57.854195,57.976593,62,80,0
57.854195,57.976593,59,80,0
57.979195,58.101593,64,80,0
58.104195,58.226593,52,80,0
58.229195,58.351593,64,80,0
58.354195,58.476593,62,80,0
58.354195,58.476593,59,80,0
58.479195,58.601593,64,80,0
58.604195,58.726593,65,80,0
58.729195,58.851593,64,80,0
58.854195,58.976593,62,80,0
58.854195,58.976593,59,80,0
58.979195,59.101593,64,80,0
59.104195,59.226593,52,80,0
59.229195,59.351593,64,80,0
59.354195,59.476593,62,80,0
59.354195,59.476593,59,80,0
59.479195,59.601593,64,80,0
59.604195,59.726593,52,80,0
59.729195,59.851593,64,80,0
59.854195,59.976593,59,80,0
59.854195,59.976593,56,80,0
59.979195,60.101593,64,80,0
60.104195,60.226593,52,80,0
60.229195,60.351593,64,80,0
60.354195,60.476593,60,80,0
60.354195,60.476593,57,80,0
60.479195,60.601593,64,80,0
60.604195,60.726593,65,80,0
60.729195,60.851593,64,80,0
60.854195,60.976593,60,80,0
60.854195,60.976593,57,80,0
60.979195,61.101593,64,80,0
61.104195,61.226593,52,80,0
61.229195,61.351593,64,80,0
61.354195,61.476593,60,80,0
61.354195,61.476593,57,80,0
61.479195,61.601593,64,80,0
61.604195,61.726593,65,80,0
61.729195,61.851593,64,80,0
61.854195,61.976593,60,80,0
61.854195,61.976593,57,80,0
61.979195,62.101593,64,80,0
62.104195,62.226593,52,80,0
62.229195,62.351593,64,80,0
62.354195,62.476593,60,80,0
62.354195,62.476593,57,80,0
62.479195,62.601593,64,80,0
62.604195,62.726593,65,80,0
62.729195,62.851593,64,80,0
62.854195,62.976593,60,80,0
62.854195,62.976593,57,80,0
62.979195,63.101593,64,80,0
63.104195,63.226593,52,80,0
63.229195,63.351593,64,80,0
63.354195,63.476593,60,80,0
63.354195,63.476593,57,80,0
63.479195,63.601593,64,80,0
63.604195,63.726593,52,80,0
63.729195,63.851593,64,80,0
63.854195,63.976593,60,80,0
63.854195,63.976593,57,80,0
63.979195,64.10159,64,80,0
64.104195,64.22659,52,80,0
64.229195,64.35159,64,80,0
64.354195,64.47659,62,80,0
64.354195,64.47659,59,80,0
64.479195,64.60159,64,80,0
64.604195,64.72659,65,80,0
64.729195,64.85159,64,80,0
64.854195,64.97659,62,80,0
64.854195,64.97659,59,80,0
64.979195,65.10159,64,81,0
65.104195,65.22659,52,83,0
65.229195,65.35159,64,85,0
65.354195,65.47659,62,87,0
65.354195,65.47659,59,87,0
65.479195,65.60159,64,88,0
65.604195,65.72659,65,90,0
65.729195,65.85159,64,92,0
65.854195,65.97659,62,94,0
65.854195,65.97659,59,94,0
65.979195,66.10159,64,95,0
66.104195,66.22659,52,97,0
66.229195,66.35159,64,99,0
66.354195,66.47659,62,101,0
66.354195,66.47659,59,101,0
66.479195,66.60159,64,102,0
66.604195,66.72659,65,104,0
66.729195,66.85159,64,106,0
66.854195,66.97659,62,108,0
66.854195,66.97659,59,108,0
66.979195,67.10159,64,109,0
67.104195,67.35159,62,110,0
67.104195,67.35159,59,110,0
67.104195,67.35159,52,110,0
69.354195,69.47659,44,110,0
69.479195,69.60159,47,110,0
69.604195,69.72659,38,110,0
69.729195,69.85159,47,110,0
69.854195,69.97659,44,110,0
69.979195,70.10159,38,110,0
70.104195,70.35159,36,110,0
70.354195,70.60159,45,110,0
70.354195,70.60159,40,110,0
70.354195,70.60159,36,110,0
70.604195,71.60159,46,110,0
71.604195,71.85159,45,110,0
70.604195,72.10159,38,110,0
70.604195,72.10159,41,110,0
71.854195,72.10159,44,110,0
72.104195,72.35159,45,110,0
72.104195,72.35159,40,110,0
72.104195,72.35159,36,110,0
72.354195,72.60159,57,110,0
72.354195,72.60159,52,110,0
72.354195,72.60159,48,110,0
72.604195,73.60159,58,110,0
73.604195,73.85159,57,110,0
72.604195,74.10159,50,110,0
72.604195,74.10159,53,110,0
73.854195,74.10159,56,110,0
74.104195,74.35159,57,110,0
74.104195,74.35159,52,110,0
74.104195,74.35159,48,110,0
74.354195,74.60159,60,110,0
74.354195,74.60159,64,110,0
74.604195,75.35159,62,110,0
74.604195,75.35159,65,110,0
75.354195,75.60159,66,110,0
75.354195,75.60159,63,110,0
75.604195,76.35159,64,110,0
75.604195,76.35159,69,110,0
76.354195,76.60159,64,110,0
76.604195,76.85159,65,101,0
76.854195,77.10159,61,91,0
76.354195,77.35159,69,110,0
77.104195,77.35159,62,81,0
77.354195,77.60159,62,80,0
77.354195,77.60159,58,80,0
77.354195,77.60159,50,80,0
77.604195,77.85159,60,80,0
77.604195,77.85159,57,80,0
77.604195,78.10159,52,80,0
77.854195,78.10159,59,80,0
77.854195,78.10159,56,80,0
78.104195,78.35159,57,110,0
78.104195,78.35159,45,110,0
78.354195,78.60159,33,110,0
78.604195,79.60159,34,110,0
79.604195,79.85159,33,110,0
79.854195,80.10159,32,110,0
80.104195,80.35159,33,110,0
80.354195,80.60159,33,110,0
80.604195,81.60159,34,110,0
81.604195,81.85159,33,110,0
81.854195,82.10159,32,110,0
82.104195,82.35159,33,110,0
82.354195,82.60159,33,110,0
82.604195,83.60159,34,110,0
83.604195,83.85159,33,110,0
83.854195,84.10159,32,110,0
84.104195,84.22659,31,80,0
84.229195,84.35159,30,80,0
84.354195,84.47659,31,80,0
84.479195,84.60159,33,80,0
84.604195,84.72659,35,80,0
84.729195,84.85159,31,80,0
84.854195,84.97659,33,80,0
84.979195,85.10159,35,80,0
85.104195,85.22659,36,80,0
85.229195,85.35159,35,80,0
85.354195,85.47659,36,80,0
85.479195,85.60159,38,80,0
85.604195,85.72659,40,80,0
85.729195,85.85159,39,80,0
85.854195,85.97659,40,80,0
85.979195,86.10159,39,80,0
86.104195,86.22659,40,80,0
86.229195,86.35159,39,80,0
86.354195,86.47659,40,80,0
86.479195,86.60159,42,80,0
86.604195,86.72659,44,80,0
86.729195,86.85159,40,80,0
86.854195,86.97659,42,80,0
86.979195,87.10159,44,80,0
87.104195,87.22659,45,80,0
87.229195,87.35159,44,80,0
87.354195,87.47659,45,80,0
87.479195,87.60159,47,80,0
87.604195,87.72659,48,80,0
87.729195,87.85159,45,81,0
87.854195,87.97659,47,82,0
87.979195,88.10159,48,83,0
88.104195,88.22659,50,84,0
88.229195,88.35159,49,85,0
88.354195,88.47659,50,86,0
88.479195,88.60159,52,87,0
88.604195,88.72659,53,88,0
88.729195,88.85159,50,89,0
88.854195,88.97659,52,90,0
88.979195,89.10159,53,91,0
89.104195,89.22659,52,92,0
89.229195,89.35159,63,93,0
89.354195,89.48772,64,94,0
89.49056,89.624084,63,95,0
89.62692,89.760445,64,96,0
89.76328,89.89681,63,97,0
89.89965,90.046524,64,98,0
90.04965,90.196526,52,99,0
90.19965,90.75339,64,80,0
90.19965,90.75339,60,80,0
90.75606,91.26621,62,80,0
90.75606,91.26621,59,80,0
91.26888,91.77903,60,80,0
91.26888,91.77903,57,80,0
90.19965,92.29185,52,80,0
91.7817,92.29185,59,80,0
91.7817,92.29185,56,80,0
92.29452,92.42005,57,80,0
92.42272,92.548256,52,80,0
92.55093,92.67646,48,80,0
92.67914,92.80467,60,80,0
92.80734,92.93288,59,80,0
92.93555,93.06108,56,80,0
93.06375,93.189285,52,80,0
93.191956,93.31749,62,80,0
93.32016,93.445694,60,80,0
93.448364,93.5739,57,80,0
93.57657,93.7021,52,80,0
93.70477,93.83031,64,80,0
93.83298,93.95851,63,80,0
93.96118,94.086716,64,80,0
94.08939,94.21493,63,80,0
94.2176,94.34313,64,80,0
94.3458,94.85595,52,80,0
94.60221,95.11236,64,80,0
94.60221,95.11236,60,80,0
94.85862,95.36877,52,80,0
95.11503,95.625175,59,80,0
95.11503,95.625175,62,80,0
95.37144,95.88159,52,80,0
95.62785,96.138,60,80,0
95.62785,96.138,57,80,0
95.88426,96.39441,52,80,0
96.14067,96.39441,59,80,0
96.14067,96.39441,56,80,0
96.39708,96.52261,57,80,0
96.52528,96.65082,52,80,0
96.65349,96.77902,48,80,0
96.78169,96.90723,60,80,0
96.9099,97.03543,59,80,0
97.0381,97.163635,56,80,0
97.16631,97.29185,52,80,0
97.29452,97.42005,62,80,0
97.42272,97.548256,60,80,0
97.55093,97.67646,57,80,0
97.67913,97.804665,52,80,0
97.807335,97.93287,64,80,0
97.93554,98.06107,63,80,0
98.06374,98.18928,64,80,0
98.19195,98.31748,63,80,0
98.32015,98.44569,64,80,0
98.44836,98.95851,52,80,0
98.70477,99.21492,64,80,0
98.70477,99.21492,60,80,0
98.96118,99.47133,52,80,0
99.21759,99.72774,59,80,0
99.21759,99.72774,62,80,0
99.474,99.984146,52,80,0
99.73041,100.24056,60,80,0
99.73041,100.24056,57,80,0
99.98682,100.49697,52,80,0
100.24323,100.49697,59,80,0
100.24323,100.49697,56,80,0
100.49964,101.00979,45,80,0
100.75605,101.00979,57,80,0
101.01246,101.522606,52,80,0
101.26887,101.522606,59,80,0
101.26887,101.522606,56,80,0
101.52528,102.05349,57,80,0
101.790764,102.05349,60,80,0
102.05625,102.625854,52,80,0
102.32898,102.625854,59,80,0
102.32898,102.625854,56,80,0
102.62898,102.898865,57,80,0
102.62898,102.898865,45,80,0
103.17443,103.71705,45,80,0
103.17443,103.71705,33,80,0
103.71989,104.28834,45,80,0
103.71989,104.28834,33,80,0
104.29131,104.9196,45,80,0
104.29131,104.9196,33,80,0
104.92289,107.445915,33,80,0
104.92289,107.445915,45,80,0
107.4492,108.07749,43,80,0
107.4492,108.07749,31,80,0
108.08078,108.70907,41,80,0
108.08078,108.70907,29,80,0
108.712364,109.34065,40,80,0
108.712364,109.34065,28,80,0
109.34394,109.65644,41,80,0
109.65973,109.97223,38,80,0
110.16302,111.9651,49,70,0
110.22552,111.9651,52,70,0
110.28802,111.9651,57,70,0
109.97552,116.9651,37,70,0
110.03802,116.9651,40,70,0
110.10052,116.9651,45,70,0
116.97552,117.222916,57,80,0
116.97552,117.222916,49,80,0
117.22552,117.472916,57,80,0
117.22552,117.472916,50,80,0
117.47552,117.722916,57,80,0
117.47552,117.722916,52,80,0
117.72552,117.972916,57,80,0
117.72552,117.972916,53,80,0
117.97552,118.222916,57,80,0
117.97552,118.222916,49,80,0
118.22552,118.472916,57,80,0
118.22552,118.472916,50,80,0
118.47552,118.722916,57,80,0
118.47552,118.722916,52,80,0
118.72552,118.972916,57,80,0
118.72552,118.972916,53,80,0
118.97552,119.222916,62,80,0
118.97552,119.222916,54,80,0
119.22552,119.472916,62,86,0
119.22552,119.472916,55,86,0
119.47552,119.722916,62,92,0
119.47552,119.722916,57,92,0
119.72552,119.9954,62,98,0
119.72552,119.9954,58,98,0
119.998245,120.29512,62,104,0
119.998245,120.29512,58,104,0
120.29824,123.282616,62,110,0
120.29824,123.282616,57,110,0
123.29824,126.282616,61,80,0
123.29824,126.282616,57,80,0
126.48574,128.28783,52,70,0
126.54824,128.28783,55,70,0
126.61074,128.28783,60,70,0
126.29824,133.28783,40,70,0
126.36074,133.28783,43,70,0
126.42324,133.28783,48,70,0
133.29825,133.54564,60,80,0
133.29825,133.54564,52,80,0
133.54825,133.79564,60,81,0
133.54825,133.79564,53,81,0
134.29825,134.54564,62,87,0
134.29825,134.54564,54,87,0
134.54825,134.79564,62,89,0
134.54825,134.79564,55,89,0
135.29825,135.54564,63,95,0
135.29825,135.54564,58,95,0
135.29825,135.54564,55,95,0
135.79825,136.04564,64,98,0
135.79825,136.04564,61,98,0
135.79825,136.04564,58,98,0
135.79825,136.04564,55,98,0
136.29825,136.54564,64,102,0
136.29825,136.54564,61,102,0
136.29825,136.54564,58,102,0
136.29825,136.54564,55,102,0
136.80911,137.06726,65,106,0
136.80911,137.06726,62,106,0
136.80911,137.06726,59,106,0
136.80911,137.06726,56,106,0
137.34271,137.63959,65,110,0
137.34271,137.63959,62,110,0
137.34271,137.63959,59,110,0
137.34271,137.63959,56,110,0
137.64272,137.93959,65,110,0
137.64272,137.93959,62,110,0
137.64272,137.93959,57,110,0
141.48717,141.63405,46,110,0
141.63718,141.78404,45,110,0
141.78717,141.9207,45,110,0
141.92354,142.05705,49,110,0
142.0599,142.1823,49,110,0
142.1849,142.3073,50,110,0
142.3099,142.4323,50,110,0
142.4349,142.5573,46,110,0
142.5599,142.6823,46,110,0
142.6849,142.8073,45,110,0
142.8099,142.9323,45,110,0
142.9349,143.0573,49,110,0
143.0599,143.1823,49,110,0
143.1849,143.3073,50,110,0
143.3099,143.4323,50,110,0
143.4349,143.5573,46,110,0
143.5599,143.6823,46,110,0
143.6849,143.8073,45,110,0
143.8099,144.8073,46,110,0
144.0599,144.8073,53,110,0
144.0599,144.8073,50,110,0
144.8099,145.06805,53,110,0
144.8099,145.06805,50,110,0
144.8099,145.06805,45,110,0
145.07077,145.32892,53,110,0
145.07077,145.32892,50,110,0
145.07077,145.32892,45,110,0
145.33163,145.60153,55,110,0
145.33163,145.60153,52,110,0
145.33163,145.60153,45,110,0
145.60437,145.90125,55,110,0
145.60437,145.90125,52,110,0
145.60437,145.90125,45,110,0
145.90437,146.45177,38,110,0
146.45436,146.70177,41,110,0
146.70436,146.95177,45,110,0
146.95436,149.95177,50,110,0
149.95436,150.45177,40,110,0
150.45436,150.70177,43,110,0
150.70436,150.95177,49,110,0
150.95436,153.95177,52,107,0
153.95436,154.45177,41,110,0
154.45436,154.70177,45,110,0
154.70436,154.95177,50,110,0
154.95436,155.95177,53,110,0
155.95436,156.45177,44,110,0
156.45436,156.70177,47,110,0
156.70436,156.95177,52,110,0
156.95436,157.95177,56,110,0
157.95436,158.45177,45,110,0
158.45436,158.70177,48,110,0
158.70436,158.95177,53,110,0
158.95436,159.95177,57,110,0
159.95436,160.45177,47,110,0
160.45436,160.70177,50,110,0
160.70436,160.95177,56,110,0
160.95436,161.95177,59,110,0
161.95436,162.45177,48,110,0
162.45436,162.70177,57,110,0
162.70436,162.95177,60,110,0
162.95436,163.95177,66,110,0
162.95436,163.95177,63,110,0
163.95436,164.95177,66,110,0
163.95436,164.95177,63,110,0
164.95436,165.98512,66,110,0
164.95436,165.98512,63,110,0
165.98796,166.12149,52,110,0
166.12433,166.24672,64,80,0
166.24933,166.37172,62,80,0
166.24933,166.37172,59,80,0
166.37433,166.49672,64,80,0
166.49933,166.62172,65,80,0
166.62433,166.74672,64,80,0
166.74933,166.87172,62,80,0
166.74933,166.87172,59,80,0
166.87433,166.99672,64,80,0
166.99933,167.12172,52,80,0
167.12433,167.24672,64,80,0
167.24933,167.37172,62,80,0
167.24933,167.37172,59,80,0
167.37433,167.49672,64,80,0
167.49933,167.62172,65,80,0
167.62433,167.74672,64,80,0
167.74933,167.87172,62,80,0
167.74933,167.87172,59,80,0
167.87433,167.99672,64,80,0
167.99933,168.12172,52,80,0
168.12433,168.24672,64,80,0
168.24933,168.37172,62,80,0
168.24933,168.37172,59,80,0
168.37433,168.49672,64,80,0
168.49933,168.62172,65,80,0
168.62433,168.74672,64,80,0
168.74933,168.87172,62,80,0
168.74933,168.87172,59,80,0
168.87433,168.99672,64,80,0
168.99933,169.12172,52,80,0
169.12433,169.24672,64,80,0
169.24933,169.37172,62,80,0
169.24933,169.37172,59,80,0
169.37433,169.49672,64,80,0
169.49933,169.62172,52,80,0
169.62433,169.74672,64,80,0
169.74933,169.87172,59,80,0
169.74933,169.87172,56,80,0
169.87433,169.99672,64,80,0
169.99933,170.12172,52,80,0
170.12433,170.24672,64,80,0
170.24933,170.37172,60,80,0
170.24933,170.37172,57,80,0
170.37433,170.49672,64,80,0
170.49933,170.62172,65,80,0
170.62433,170.74672,64,80,0
170.74933,170.87172,60,80,0
170.74933,170.87172,57,80,0
170.87433,170.99672,64,80,0
170.99933,171.12172,52,80,0
171.12433,171.24672,64,80,0
171.24933,171.37172,60,80,0
171.24933,171.37172,57,80,0
171.37433,171.49672,64,80,0
171.49933,171.62172,65,80,0
171.62433,171.74672,64,80,0
171.74933,171.87172,60,80,0
171.74933,171.87172,57,80,0
171.87433,171.99672,64,80,0
171.99933,172.12172,52,80,0
172.12433,172.24672,64,80,0
172.24933,172.37172,60,80,0
172.24933,172.37172,57,80,0
172.37433,172.49672,64,80,0
172.49933,172.62172,65,80,0
172.62433,172.74672,64,80,0
172.74933,172.87172,60,80,0
172.74933,172.87172,57,80,0
172.87433,172.99672,64,80,0
172.99933,173.12172,52,80,0
173.12433,173.24672,64,80,0
173.24933,173.37172,60,80,0
173.24933,173.37172,57,80,0
173.37433,173.49672,64,80,0
173.49933,173.62172,52,80,0
173.62433,173.74672,64,80,0
173.74933,173.87172,60,80,0
173.74933,173.87172,57,80,0
173.87433,173.99672,64,80,0
173.99933,174.12172,52,80,0
174.12433,174.24672,64,80,0
174.24933,174.37172,62,80,0
174.24933,174.37172,59,80,0
174.37433,174.49672,64,80,0
174.49933,174.62172,65,80,0
174.62433,174.74672,64,80,0
174.74933,174.87172,62,80,0
174.74933,174.87172,59,80,0
174.87433,174.99672,64,81,0
174.99933,175.12172,52,83,0
175.12433,175.24672,64,85,0
175.24933,175.37172,62,87,0
175.24933,175.37172,59,87,0
175.37433,175.49672,64,88,0
175.49933,175.62172,65,90,0
175.62433,175.74672,64,92,0
175.74933,175.87172,62,94,0
175.74933,175.87172,59,94,0
175.87433,175.99672,64,95,0
175.99933,176.12172,52,97,0
176.12433,176.24672,64,99,0
176.24933,176.37172,62,101,0
176.24933,176.37172,59,101,0
176.37433,176.49672,64,102,0
176.49933,176.62172,65,104,0
176.62433,176.74672,64,106,0
176.74933,176.87172,62,108,0
176.74933,176.87172,59,108,0
176.87433,176.99672,64,109,0
176.99933,177.24672,62,110,0
176.99933,177.24672,59,110,0
176.99933,177.24672,52,110,0
179.24933,179.37172,44,110,0
179.37433,179.49672,47,110,0
179.49933,179.62172,38,110,0
179.62433,179.74672,47,110,0
179.74933,179.88284,44,110,0
179.8857,180.01921,38,110,0
180.02205,180.29193,36,110,0
180.29478,180.56467,45,110,0
180.29478,180.56467,40,110,0
180.29478,180.56467,36,110,0
180.5675,181.5649,46,110,0
181.5675,181.8149,45,110,0
180.5675,182.0649,38,110,0
180.5675,182.0649,41,110,0
181.8175,182.0649,44,110,0
182.0675,182.3149,45,110,0
182.0675,182.3149,40,110,0
182.0675,182.3149,36,110,0
182.3175,182.5649,57,110,0
182.3175,182.5649,52,110,0
182.3175,182.5649,48,110,0
182.5675,183.5649,58,110,0
183.5675,183.8149,57,110,0
182.5675,184.0649,50,110,0
182.5675,184.0649,53,110,0
183.8175,184.0649,56,110,0
184.0675,184.3149,57,110,0
184.0675,184.3149,52,110,0
184.0675,184.3149,48,110,0
184.3175,184.5649,60,110,0
184.3175,184.5649,64,110,0
184.5675,185.3149,62,110,0
184.5675,185.3149,65,110,0
185.3175,185.5649,66,110,0
185.3175,185.5649,63,110,0
185.5675,186.3149,64,110,0
185.5675,186.3149,69,110,0
186.3175,186.5649,64,110,0
186.5675,186.8149,65,101,0
186.8175,187.0649,61,91,0
186.3175,187.3149,69,110,0
187.0675,187.3149,62,81,0
187.3175,187.5649,62,80,0
187.3175,187.5649,58,80,0
187.3175,187.5649,50,80,0
187.5675,187.8149,60,80,0
187.5675,187.8149,57,80,0
187.5675,188.0649,52,80,0
187.8175,188.0649,59,80,0
187.8175,188.0649,56,80,0
188.0675,188.3149,57,110,0
188.0675,188.3149,45,110,0
188.3175,188.5649,33,110,0
188.5675,189.5649,34,110,0
189.5675,189.8149,33,110,0
189.8175,190.0649,32,110,0
190.0675,190.3149,33,110,0
190.3175,190.5649,33,110,0
190.5675,191.5649,34,110,0
191.5675,191.8149,33,110,0
191.8175,192.0649,32,110,0
192.0675,192.3149,33,110,0
192.3175,192.5649,33,110,0
192.5675,193.5649,34,110,0
193.5675,193.8149,33,110,0
193.8175,194.0649,32,110,0
194.0675,194.1899,31,80,0
194.1925,194.3149,30,80,0
194.3175,194.4399,31,80,0
194.4425,194.5649,33,80,0
194.5675,194.6899,35,80,0
194.6925,194.8149,31,80,0
194.8175,194.9399,33,80,0
194.9425,195.0649,35,80,0
195.0675,195.1899,36,80,0
195.1925,195.3149,35,80,0
195.3175,195.4399,36,80,0
195.4425,195.5649,38,80,0
195.5675,195.6899,40,80,0
195.6925,195.8149,39,80,0
195.8175,195.9399,40,80,0
195.9425,196.0649,39,80,0
196.0675,196.1899,40,80,0
196.1925,196.3149,39,80,0
196.3175,196.4399,40,80,0
196.4425,196.5649,42,80,0
196.5675,196.6899,44,80,0
196.6925,196.8149,40,80,0
196.8175,196.9399,42,80,0
196.9425,197.0649,44,80,0
197.0675,197.1899,45,80,0
197.1925,197.3149,44,80,0
197.3175,197.4399,45,80,0
197.4425,197.5649,47,80,0
197.5675,197.6899,48,80,0
197.6925,197.8149,45,81,0
197.8175,197.9399,47,82,0
197.9425,198.0649,48,83,0
198.0675,198.1899,50,84,0
198.1925,198.3149,49,85,0
198.3175,198.4399,50,86,0
198.4425,198.5649,52,87,0
198.5675,198.6899,53,88,0
198.6925,198.8149,50,89,0
198.8175,198.9399,52,90,0
198.9425,199.0649,53,91,0
199.0675,199.1899,52,92,0
199.1925,199.3149,63,93,0
199.3175,199.4399,64,94,0
199.4425,199.5649,63,95,0
199.5675,199.6899,64,96,0
199.6925,199.8149,63,97,0
199.8175,199.9399,64,98,0
199.9425,200.0649,52,99,0
200.0675,200.5649,64,80,0
200.0675,200.5649,60,80,0
200.5675,201.0649,62,80,0
200.5675,201.0649,59,80,0
201.0675,201.5649,60,80,0
201.0675,201.5649,57,80,0
200.0675,202.0649,52,80,0
201.5675,202.0649,59,80,0
201.5675,202.0649,56,80,0
202.0675,202.1899,57,80,0
202.1925,202.3149,52,80,0
202.3175,202.4399,48,80,0
202.4425,202.5649,60,80,0
202.5675,202.6899,59,80,0
202.6925,202.8149,56,80,0
202.8175,202.9399,52,80,0
202.9425,203.0649,62,80,0
203.0675,203.1899,60,80,0
203.1925,203.3149,57,80,0
203.3175,203.4399,52,80,0
203.4425,203.5649,64,80,0
203.5675,203.6899,63,80,0
203.6925,203.8149,64,80,0
203.8175,203.9399,63,80,0
203.9425,204.0649,64,80,0
204.0675,204.5649,52,80,0
204.3175,204.8149,64,80,0
204.3175,204.8149,60,80,0
204.5675,205.0649,52,80,0
204.8175,205.3149,59,80,0
204.8175,205.3149,62,80,0
205.0675,205.5649,52,80,0
205.3175,205.8149,60,80,0
205.3175,205.8149,57,80,0
205.5675,206.0649,52,80,0
205.8175,206.0649,59,80,0
205.8175,206.0649,56,80,0
206.0675,206.1899,57,80,0
206.1925,206.3149,52,80,0
206.3175,206.4399,48,80,0
206.4425,206.5649,60,80,0
206.5675,206.6899,59,80,0
206.6925,206.8149,56,80,0
206.8175,206.9399,52,80,0
206.9425,207.0649,62,80,0
207.0675,207.1899,60,80,0
207.1925,207.3149,57,80,0
207.3175,207.4399,52,80,0
207.4425,207.5649,64,80,0
207.5675,207.6899,63,80,0
207.6925,207.8149,64,80,0
207.8175,207.9399,63,80,0
207.9425,208.0649,64,80,0
208.0675,208.5649,52,80,0
208.3175,208.8149,64,80,0
208.3175,208.8149,60,80,0
208.5675,209.0649,52,80,0
208.8175,209.3149,59,80,0
208.8175,209.3149,62,80,0
209.0675,209.5649,52,80,0
209.3175,209.8149,60,80,0
209.3175,209.8149,57,80,0
209.5675,210.0649,52,80,0
209.8175,210.0649,59,80,0
209.8175,210.0649,56,80,0
210.0675,210.5649,45,80,0
210.3175,210.5649,57,80,0
210.5675,211.0649,52,80,0
210.8175,211.0649,59,80,0
210.8175,211.0649,56,80,0
211.0675,211.58653,57,80,0
211.32837,211.58653,60,80,0
211.58925,212.15884,52,80,0
211.86197,212.15884,59,80,0
211.86197,212.15884,56,80,0
212.16197,212.45885,57,80,0
212.16197,212.45885,45,80,0
212.76198,213.35884,45,80,0
212.76198,213.35884,33,80,0
213.36197,213.95885,45,80,0
213.36197,213.95885,33,80,0
213.96198,214.55885,45,80,0
213.96198,214.55885,33,80,0
214.56197,216.95885,33,80,0
214.56197,216.95885,45,80,0
216.96198,219.35884,31,80,0
216.96198,219.35884,43,80,0
219.48697,219.67447,38,70,0
219.54947,219.72655,42,70,0
219.61197,219.77864,45,70,0
219.67447,219.86197,50,70,0
219.73697,219.91405,54,70,0
219.79947,222.35155,57,70,0
219.36197,226.35155,30,70,0
219.42447,226.35155,33,70,0
227.48697,227.62239,42,70,0
227.54947,227.70572,45,70,0
227.61197,227.77864,48,70,0
227.67447,227.83072,51,70,0
227.73697,227.89322,54,70,0
227.79947,227.96614,57,70,0
227.86197,228.02864,60,70,0
227.92447,229.05989,63,70,0
227.36197,234.35155,36,70,0
227.42447,234.35155,39,70,0
235.48697,235.62239,46,70,0
235.54947,235.68489,49,70,0
235.61197,235.76822,54,70,0
235.67447,235.83072,58,70,0
235.73697,235.8828,61,70,0
235.79947,236.85155,66,70,0
235.36197,243.35155,37,70,0
235.42447,243.35155,42,70,0
243.36197,243.85936,30,120,0
243.86197,244.10936,33,120,0
244.11197,244.35936,37,120,0
244.36197,244.85936,42,120,0
245.11197,245.35936,73,110,0
245.36197,245.60936,72,110,0
245.61197,245.85936,73,110,0
245.86197,246.10936,74,110,0
246.11197,246.35936,73,110,0
246.36197,246.85936,73,110,0
246.86197,247.35936,73,110,0
247.36197,247.85936,32,120,0
247.86197,248.10936,35,120,0
248.11197,248.35936,41,120,0
248.36197,248.85936,44,120,0
249.11197,249.35936,73,110,0
249.36197,249.60936,72,110,0
249.61197,249.85936,73,110,0
249.86197,250.10936,74,110,0
250.11197,250.35936,73,110,0
250.36197,250.85936,73,110,0
250.86197,251.35936,73,110,0
251.36197,251.85936,33,120,0
251.86197,252.10936,37,120,0
252.11197,252.35936,42,120,0
252.36197,252.60936,45,120,0
252.86197,253.10936,78,110,0
253.36197,253.85936,35,120,0
253.86197,254.10936,38,120,0
254.11197,254.35936,42,120,0
254.36197,254.60936,47,120,0
254.86197,255.10936,78,120,0
255.36197,255.85936,35,120,0
255.86197,256.10938,38,120,0
256.11197,256.35938,43,120,0
256.36197,256.85938,47,120,0
256.86197,257.10938,79,120,0
257.36197,257.85938,36,120,0
257.86197,258.10938,40,120,0
258.11197,258.35938,43,120,0
258.36197,258.85938,48,120,0
258.86197,259.10938,79,120,0
259.36197,259.85938,37,120,0
259.86197,260.10938,40,120,0
260.11197,260.35938,45,120,0
260.36197,260.85938,49,120,0
260.86197,261.10938,81,120,0
261.36197,261.85938,38,120,0
261.86197,262.10938,41,120,0
262.11197,262.35938,45,120,0
262.36197,262.85938,50,120,0
262.86197,263.10938,81,120,0
263.36197,263.49478,46,110,0
263.4453,263.58853,62,110,0
263.52863,263.6875,59,110,0
263.61197,263.7578,62,110,0
263.6953,263.84375,59,110,0
263.77863,263.91925,62,110,0
263.86197,263.99478,59,110,0
263.9453,264.08853,62,110,0
264.02863,264.1875,59,110,0
264.11197,264.2578,62,110,0
264.1953,264.34375,59,110,0
264.27863,264.42175,62,110,0
264.36197,264.50055,46,110,0
264.4489,264.5984,62,110,0
264.5359,264.70163,58,110,0
264.62283,264.77502,62,110,0
264.7098,264.8647,58,110,0
264.79675,264.9462,62,110,0
264.8837,265.0286,58,110,0
264.9746,265.13086,62,110,0
265.06552,265.24707,58,110,0
265.15643,265.33145,62,110,0
265.25644,265.43457,58,110,0
265.35645,265.4533,62,110,0
265.45645,265.6033,45,110,0
265.60645,265.75333,57,110,0
265.75644,265.88196,56,110,0
265.88464,266.01016,57,110,0
266.01285,266.13837,56,110,0
266.14105,266.26657,57,110,0
266.26926,266.39478,56,110,0
266.39746,266.523,57,110,0
266.52567,266.6512,56,110,0
266.65387,266.77942,57,110,0
266.78207,266.90762,64,110,0
266.78207,266.90762,61,110,0
266.91028,267.03583,57,110,0
267.03848,267.16403,65,110,0
267.03848,267.16403,62,110,0
267.1667,267.29224,57,110,0
267.2949,267.42044,62,110,0
267.2949,267.42044,59,110,0
267.4231,267.54865,57,110,0
267.5513,267.67685,64,110,0
267.5513,267.67685,61,110,0
267.6795,267.80505,57,110,0
267.8077,267.93326,64,110,0
267.8077,267.93326,61,110,0
267.9359,268.06146,57,110,0
268.06412,268.18967,65,110,0
268.06412,268.18967,62,110,0
268.19232,268.31787,57,110,0
268.32053,268.44608,62,110,0
268.32053,268.44608,59,110,0
268.44873,268.57428,57,110,0
268.57693,268.70248,64,110,0
268.57693,268.70248,61,110,0
268.70514,268.8307,57,110,0
268.83334,268.9589,64,110,0
268.83334,268.9589,61,110,0
268.96155,269.0871,57,110,0
269.08975,269.2153,65,110,0
269.08975,269.2153,62,110,0
269.21796,269.3435,57,110,0
269.3462,269.4717,62,110,0
269.3462,269.4717,59,110,0
269.4744,269.5999,57,110,0
269.6026,269.72812,61,110,0
269.6026,269.72812,64,110,0
269.7308,269.85632,57,110,0
269.859,269.98453,56,110,0
269.9872,270.11273,57,110,0
270.11542,270.24094,56,110,0
270.24362,270.36914,57,110,0
270.37183,270.49734,56,110,0
270.50003,270.62555,57,110,0
270.62823,270.75375,56,110,0
270.75644,270.88196,57,110,0
270.88464,271.01016,52,110,0
270.88464,271.01016,49,110,0
271.01285,271.13837,57,110,0
271.14105,271.26657,53,110,0
271.14105,271.26657,50,110,0
271.26926,271.39478,57,110,0
271.39746,271.52298,50,110,0
271.39746,271.52298,47,110,0
271.52567,271.65118,57,110,0
271.65387,271.7794,52,110,0
271.65387,271.7794,49,110,0
271.78207,271.9076,57,110,0
271.91028,272.0358,52,110,0
271.91028,272.0358,49,110,0
272.03848,272.164,57,110,0
272.1667,272.2922,53,110,0
272.1667,272.2922,50,110,0
272.2949,272.42044,57,110,0
272.4231,272.54865,50,110,0
272.4231,272.54865,47,110,0
272.5513,272.67685,57,110,0
272.6795,272.80505,52,110,0
272.6795,272.80505,49,110,0
272.8077,272.93326,57,110,0
272.9359,273.06146,52,110,0
272.9359,273.06146,49,110,0
273.06412,273.18967,57,110,0
273.19232,273.31787,53,110,0
273.19232,273.31787,50,110,0
273.32053,273.44608,57,110,0
273.44873,273.57428,50,110,0
273.44873,273.57428,47,110,0
273.57693,273.70248,57,110,0
273.70514,273.8307,52,110,0
273.70514,273.8307,49,110,0
273.83334,273.9589,45,110,0
273.96155,274.0871,44,110,0
274.08975,274.2153,45,110,0
274.21796,274.3435,44,110,0
274.34616,274.4717,45,110,0
274.47437,274.5999,44,110,0
274.60257,274.72812,45,110,0
274.73077,274.85632,44,110,0
274.85898,274.98453,45,110,0
274.98718,275.11273,52,110,0
274.98718,275.11273,49,110,0
275.1154,275.24094,45,110,0
275.2436,275.36914,53,110,0
275.2436,275.36914,50,110,0
275.37183,275.49734,45,110,0
275.50003,275.62555,50,110,0
275.50003,275.62555,47,110,0
275.62823,275.75375,45,110,0
275.75644,275.88196,52,110,0
275.75644,275.88196,49,110,0
275.88464,276.01016,45,110,0
276.01285,276.13837,52,110,0
276.01285,276.13837,49,110,0
276.14105,276.26657,45,110,0
276.26926,276.39478,53,110,0
276.26926,276.39478,50,110,0
276.39746,276.52298,45,110,0
276.52567,276.65118,50,110,0
276.52567,276.65118,47,110,0
276.65387,276.7794,45,110,0
276.78207,276.9098,52,110,0
276.78207,276.9098,49,110,0
276.9125,277.04022,45,110,0
277.04294,277.17065,52,110,0
277.04294,277.17065,49,110,0
277.17337,277.3011,45,110,0
277.3038,277.43732,53,110,0
277.3038,277.43732,50,110,0
277.44016,277.5737,45,110,0
277.57654,277.72342,50,110,0
277.57654,277.72342,47,110,0
277.72653,277.8734,45,110,0
277.87653,279.03467,52,110,0
277.87653,279.03467,49,110,0
277.87653,279.03467,45,110,0
279.0374,280.07816,45,100,0
279.0374,280.07816,33,100,0
280.08087,281.12164,45,90,0
280.08087,281.12164,33,90,0
281.12436,282.1651,45,80,0
281.12436,282.1651,33,80,0
282.4287,284.25208,33,80,0
282.4287,284.25208,45,80,0
284.2548,285.03467,46,80,0
285.03738,285.29553,45,80,0
285.29825,285.5564,43,80,0
285.5591,285.8173,41,80,0
285.82,286.07816,39,80,0
286.08087,286.33902,38,80,0
286.34174,286.61163,37,80,0
286.61447,286.88434,43,80,0
286.88718,287.15707,46,80,0
287.1599,287.4298,45,80,0
287.43265,287.72952,43,80,0
287.73264,288.0295,41,80,0
288.03265,288.40375,39,80,0
288.40765,288.77875,38,80,0
288.97015,290.77222,49,70,0
289.03265,290.77222,52,70,0
289.09515,290.77222,57,70,0
288.78265,295.77222,37,70,0
288.84515,295.77222,40,70,0
288.90765,295.77222,45,70,0
311.78265,312.03003,57,80,0
311.78265,312.03003,49,80,0
312.03265,312.28003,57,80,0
312.03265,312.28003,50,80,0
312.28265,312.53003,57,80,0
312.28265,312.53003,52,80,0
312.53265,312.78003,57,80,0
312.53265,312.78003,53,80,0
312.78265,313.03003,57,80,0
312.78265,313.03003,49,80,0
313.03265,313.28003,57,80,0
313.03265,313.28003,50,80,0
313.28265,313.53003,57,80,0
313.28265,313.53003,52,80,0
313.53265,313.78003,57,80,0
313.53265,313.78003,53,80,0
313.78265,314.03003,62,80,0
313.78265,314.03003,54,80,0
314.03265,314.2908,62,86,0
314.03265,314.2908,55,86,0
314.29352,314.55167,62,92,0
314.29352,314.55167,57,92,0
314.55438,314.85126,62,98,0
314.55438,314.85126,58,98,0
314.85437,315.22546,62,104,0
314.85437,315.22546,58,104,0
315.22937,318.21375,62,110,0
315.22937,318.21375,57,110,0
318.22937,321.21375,61,80,0
318.22937,321.21375,57,80,0
321.41687,323.21896,52,70,0
321.47937,323.21896,55,70,0
321.54187,323.21896,60,70,0
321.22937,329.21896,40,70,0
321.29187,329.21896,43,70,0
321.35437,329.21896,48,70,0
347.62772,347.9246,41,70,0
347.62772,347.9246,37,70,0
347.62772,347.9246,29,70,0
348.22772,348.5246,41,70,0
348.22772,348.5246,37,70,0
348.22772,348.5246,29,70,0
348.82773,349.1246,41,70,0
348.82773,349.1246,37,70,0
348.82773,349.1246,29,70,0
349.42773,349.7246,41,70,0
349.42773,349.7246,37,70,0
349.42773,349.7246,29,70,0
350.02774,350.32462,42,80,0
350.02774,350.32462,37,80,0
350.02774,350.32462,30,80,0
350.92773,351.00586,45,92,0
350.97772,351.07462,49,93,0
351.02774,351.11835,54,94,0
351.07773,351.1746,57,94,0
351.12772,351.2246,61,95,0
351.17773,351.2746,66,96,0
352.42773,352.7246,54,80,0
352.42773,352.7246,50,80,0
352.42773,352.7246,42,80,0
353.02774,353.32462,54,80,0
353.02774,353.32462,50,80,0
353.02774,353.32462,42,80,0
353.62772,353.9246,54,80,0
353.62772,353.9246,50,80,0
353.62772,353.9246,42,80,0
354.22772,354.5246,54,80,0
354.22772,354.5246,50,80,0
354.22772,354.5246,42,80,0
354.82773,355.1246,55,80,0
354.82773,355.1246,50,80,0
354.82773,355.1246,43,80,0
355.12772,355.31836,58,85,0
355.22772,355.3996,55,86,0
355.32773,355.51212,50,88,0
355.42773,355.60272,58,90,0
355.52774,355.7246,55,91,0
355.62772,355.80273,50,93,0
355.77774,355.80273,50,95,0
355.72772,355.82462,46,95,0
355.82773,355.92148,55,96,0
355.87772,355.9746,58,97,0
355.92773,356.0246,62,98,0
355.97772,356.07462,67,99,0
357.22772,357.5246,64,120,0
357.22772,357.5246,61,120,0
357.22772,357.5246,58,120,0
357.22772,357.5246,55,120,0
357.82773,358.1246,64,120,0
357.82773,358.1246,61,120,0
357.82773,358.1246,58,120,0
357.82773,358.1246,55,120,0
358.42773,358.7246,64,120,0
358.42773,358.7246,61,120,0
358.42773,358.7246,58,120,0
358.42773,358.7246,55,120,0
359.02774,359.4746,64,120,0
359.02774,359.4746,61,120,0
359.02774,359.4746,58,120,0
359.02774,359.4746,55,120,0
359.62772,359.9246,65,120,0
359.62772,359.9246,62,120,0
359.62772,359.9246,59,120,0
359.62772,359.9246,56,120,0
361.9909,362.15143,57,96,0
362.15485,362.31537,69,80,0
362.3188,362.44116,67,80,0
362.3188,362.44116,64,80,0
362.4438,362.56616,69,80,0
362.5688,362.69116,70,80,0
362.6938,362.81616,69,80,0
362.8188,362.94116,67,80,0
362.8188,362.94116,64,80,0
362.9438,363.06616,69,80,0
363.0688,363.19116,57,80,0
363.1938,363.31616,69,80,0
363.3188,363.44116,67,80,0
363.3188,363.44116,64,80,0
363.4438,363.56616,69,80,0
363.5688,363.69116,70,80,0
363.6938,363.81616,69,80,0
363.8188,363.94116,67,80,0
363.8188,363.94116,64,80,0
363.9438,364.06616,69,80,0
364.0688,364.19116,57,80,0
364.1938,364.31616,69,80,0
364.3188,364.44116,67,80,0
364.3188,364.44116,64,80,0
364.4438,364.56616,69,80,0
364.5688,364.69116,70,80,0
364.6938,364.81616,69,80,0
364.8188,364.94116,67,80,0
364.8188,364.94116,64,80,0
364.9438,365.06616,69,80,0
365.0688,365.19116,57,80,0
365.1938,365.31616,69,80,0
365.3188,365.44116,67,80,0
365.3188,365.44116,64,80,0
365.4438,365.56616,69,80,0
365.5688,365.69116,57,80,0
365.6938,365.81616,69,80,0
365.8188,365.94116,64,80,0
365.8188,365.94116,61,80,0
365.9438,366.06616,69,80,0
366.0688,366.19116,57,80,0
366.1938,366.31616,69,80,0
366.3188,366.44116,65,80,0
366.3188,366.44116,62,80,0
366.4438,366.56616,69,80,0
366.5688,366.69116,70,80,0
366.6938,366.81616,69,80,0
366.8188,366.94116,65,80,0
366.8188,366.94116,62,80,0
366.9438,367.06616,69,80,0
367.0688,367.19116,57,80,0
367.1938,367.31616,69,80,0
367.3188,367.44116,65,80,0
367.3188,367.44116,62,80,0
367.4438,367.56616,69,80,0
367.5688,367.69116,70,80,0
367.6938,367.81616,69,80,0
367.8188,367.94116,65,80,0
367.8188,367.94116,62,80,0
367.9438,368.06616,69,80,0
368.0688,368.19116,57,80,0
368.1938,368.31616,69,80,0
368.3188,368.44116,65,80,0
368.3188,368.44116,62,80,0
368.4438,368.56616,69,80,0
368.5688,368.69116,70,80,0
368.6938,368.81616,69,80,0
368.8188,368.94116,65,80,0
368.8188,368.94116,62,80,0
368.9438,369.06616,69,80,0
369.0688,369.19116,57,80,0
369.1938,369.31616,69,80,0
369.3188,369.44116,65,80,0
369.3188,369.44116,62,80,0
369.4438,369.56616,69,80,0
369.5688,369.69116,57,80,0
369.6938,369.81616,69,80,0
369.8188,369.94116,65,80,0
369.8188,369.94116,62,80,0
369.9438,370.06616,69,80,0
370.0688,370.19116,57,80,0
370.1938,370.31616,69,80,0
370.3188,370.44116,67,80,0
370.3188,370.44116,64,80,0
370.4438,370.56616,69,80,0
370.5688,370.69116,70,80,0
370.6938,370.81616,69,80,0
370.8188,370.94116,67,80,0
370.8188,370.94116,64,80,0
370.9438,371.06616,69,81,0
371.0688,371.19116,57,83,0
371.1938,371.31616,69,85,0
371.3188,371.44116,67,87,0
371.3188,371.44116,64,87,0
371.4438,371.56616,69,88,0
371.5688,371.69116,70,90,0
371.6938,371.81616,69,92,0
371.8188,371.94116,67,94,0
371.8188,371.94116,64,94,0
371.9438,372.06616,69,95,0
372.0688,372.19116,57,97,0
372.1938,372.31616,69,99,0
372.3188,372.44116,67,101,0
372.3188,372.44116,64,101,0
372.4438,372.56616,69,102,0
372.5688,372.69116,70,104,0
372.6938,372.81616,69,106,0
372.8188,372.94116,67,108,0
372.8188,372.94116,64,108,0
372.9438,373.06616,69,109,0
373.0688,373.31616,67,110,0
373.0688,373.31616,64,110,0
373.0688,373.31616,57,110,0
375.3188,375.44116,37,110,0
375.4438,375.56616,40,110,0
375.5688,375.69116,31,110,0
375.6938,375.81616,40,110,0
375.8188,375.94116,37,110,0
375.9438,376.06616,31,110,0
376.0688,376.31616,29,110,0
376.3188,376.56616,50,110,0
376.3188,376.56616,45,110,0
376.3188,376.56616,41,110,0
376.5688,377.56616,51,110,0
377.5688,377.81616,50,110,0
376.5688,378.06616,43,110,0
376.5688,378.06616,46,110,0
377.8188,378.06616,49,110,0
378.0688,378.31616,50,110,0
378.0688,378.31616,45,110,0
378.0688,378.31616,41,110,0
378.3188,378.56616,62,110,0
378.3188,378.56616,57,110,0
378.3188,378.56616,53,110,0
378.5688,379.56616,63,110,0
379.5688,379.81616,62,110,0
378.5688,380.06616,55,110,0
378.5688,380.06616,58,110,0
379.8188,380.06616,61,110,0
380.0688,380.31616,62,110,0
380.0688,380.31616,57,110,0
380.0688,380.31616,53,110,0
380.3188,380.56616,69,110,0
380.3188,380.56616,65,110,0
380.5688,381.31616,67,110,0
380.5688,381.31616,70,110,0
381.3188,381.56616,71,110,0
381.3188,381.56616,68,110,0
381.5688,382.31616,69,110,0
381.5688,382.31616,72,110,0
382.3188,382.56616,72,110,0
382.3188,382.56616,69,110,0
382.5688,382.81616,74,110,0
382.5688,382.81616,70,110,0
382.8188,383.06616,72,110,0
382.8188,383.06616,66,110,0
383.0688,383.31616,70,110,0
383.0688,383.31616,67,110,0
383.3188,383.56616,67,96,0
383.3188,383.56616,63,96,0
383.3188,383.56616,55,96,0
383.5688,383.81616,65,81,0
383.5688,383.81616,62,81,0
383.5688,384.06616,57,81,0
383.8188,384.06616,64,80,0
383.8188,384.06616,61,80,0
384.0688,384.31616,62,110,0
384.0688,384.31616,50,110,0
384.3188,384.56616,38,110,0
384.5688,385.56616,39,110,0
385.5688,385.81616,38,110,0
385.8188,386.06616,37,110,0
386.0688,386.31616,38,110,0
386.3188,386.56616,38,110,0
386.5688,387.56616,39,110,0
387.5688,387.81616,38,110,0
387.8188,388.06616,37,110,0
388.0688,388.31616,38,110,0
388.3188,388.56616,38,110,0
388.5688,389.56616,39,110,0
389.5688,389.81616,38,110,0
389.8188,390.06616,37,80,0
390.0688,390.19116,36,80,0
390.1938,390.31616,35,80,0
390.3188,390.44116,36,80,0
390.4438,390.56616,38,80,0
390.5688,390.69116,40,80,0
390.6938,390.81616,36,80,0
390.8188,390.94116,38,80,0
390.9438,391.06616,40,80,0
391.0688,391.19116,41,80,0
391.1938,391.31616,40,80,0
391.3188,391.44116,41,80,0
391.4438,391.56616,43,80,0
391.5688,391.69116,45,80,0
391.6938,391.81616,44,80,0
391.8188,391.94116,45,80,0
391.9438,392.06616,44,80,0
392.0688,392.19116,45,80,0
392.1938,392.31616,44,80,0
392.3188,392.44116,45,80,0
392.4438,392.56616,47,80,0
392.5688,392.69116,49,80,0
392.6938,392.81616,45,80,0
392.8188,392.94116,47,80,0
392.9438,393.06616,49,80,0
393.0688,393.19116,50,80,0
393.1938,393.31616,49,80,0
393.3188,393.44116,50,80,0
393.4438,393.56616,52,80,0
393.5688,393.69116,53,80,0
393.6938,393.81616,50,80,0
393.8188,393.94116,52,80,0
393.9438,394.06616,53,84,0
394.0688,394.19116,55,88,0
394.1938,394.31616,54,92,0
394.3188,394.44116,55,97,0
394.4438,394.56616,57,101,0
394.5688,394.69116,58,105,0
394.6938,394.81616,55,109,0
394.8188,394.94116,57,110,0
394.9438,395.06616,58,108,0
395.0688,395.1965,57,106,0
395.19922,395.32693,56,104,0
395.32965,395.45737,57,102,0
395.46008,395.5878,56,99,0
395.5905,395.72403,57,97,0
395.72687,395.8604,56,95,0
395.86325,396.0101,57,93,0
396.01324,396.16013,45,91,0
396.16324,396.7148,57,80,0
396.16324,396.7148,53,80,0
396.71747,397.2233,55,80,0
396.71747,397.2233,52,80,0
397.22595,397.73178,53,80,0
397.22595,397.73178,50,80,0
396.16324,398.24026,45,80,0
397.73444,398.24026,52,80,0
397.73444,398.24026,49,80,0
398.2429,398.36737,50,80,0
398.37003,398.49448,45,80,0
398.49713,398.6216,41,80,0
398.62427,398.74872,53,80,0
398.75137,398.87585,52,80,0
398.87848,399.00296,49,80,0
399.0056,399.13007,45,80,0
399.13272,399.2572,55,80,0
399.25986,399.3843,53,80,0
399.38696,399.51144,50,80,0
399.51407,399.63855,45,80,0
399.6412,399.7657,57,80,0
399.7683,399.8928,56,80,0
399.89545,400.0199,57,80,0
400.02255,400.14703,56,80,0
400.1497,400.27414,57,80,0
400.2768,400.78262,45,80,0
400.53104,401.03687,57,80,0
400.53104,401.03687,53,80,0
400.78528,401.2911,45,80,0
401.03952,401.54532,52,80,0
401.03952,401.54532,55,80,0
401.29373,401.79956,45,80,0
401.54797,402.0538,53,80,0
401.54797,402.0538,50,80,0
401.80222,402.30804,45,80,0
402.05646,402.30804,52,80,0
402.05646,402.30804,49,80,0
402.3107,402.43515,50,80,0
402.4378,402.5623,45,80,0
402.56494,402.6894,41,80,0
402.69205,402.81653,53,80,0
402.81915,402.94363,52,80,0
402.9463,403.07074,49,80,0
403.0734,403.19788,45,80,0
403.20053,403.32498,55,80,0
403.32764,403.45212,53,80,0
403.45474,403.57922,50,80,0
403.58188,403.70636,45,80,0
403.70898,403.83347,57,80,0
403.83612,403.96057,56,80,0
403.96323,404.0877,57,80,0
404.09036,404.2148,56,80,0
404.21747,404.34195,57,80,0
404.34457,404.8504,45,80,0
404.59882,405.10464,57,80,0
404.59882,405.10464,53,80,0
404.85306,405.3589,45,80,0
405.1073,405.61313,52,80,0
405.1073,405.61313,55,80,0
405.36154,405.86737,45,80,0
405.61578,406.12158,53,80,0
405.61578,406.12158,50,80,0
405.87,406.37582,45,80,0
406.12424,406.37582,52,80,0
406.12424,406.37582,49,80,0
406.37848,406.8975,38,80,0
406.63934,406.8975,50,80,0
406.9002,407.41925,45,80,0
407.1611,407.41925,52,80,0
407.1611,407.41925,49,80,0
407.42197,407.9746,50,80,0
407.69974,407.9746,53,80,0
407.9775,408.66776,45,80,0
408.29666,408.66776,52,80,0
408.29666,408.66776,49,80,0
408.67166,408.96854,50,80,0
408.67166,408.96854,38,80,0
409.27167,409.86853,50,80,0
409.27167,409.86853,38,80,0
409.87167,410.49994,50,94,0
409.87167,410.49994,38,94,0
410.50323,411.24933,50,109,0
410.50323,411.24933,38,109,0
411.25323,411.73346,38,70,0
411.4199,411.88345,33,70,0
411.58658,412.03345,29,70,0
411.73657,412.18344,41,70,0
411.88657,412.33344,38,70,0
412.03656,412.48346,33,70,0
412.18658,412.63345,45,70,0
412.33658,412.78345,41,70,0
412.48657,412.93344,38,70,0
412.63657,413.08344,33,70,0
412.78656,413.23346,29,70,0
412.93658,413.38345,41,70,0
413.08658,413.53345,38,70,0
413.23657,413.68344,33,70,0
413.38657,413.83344,45,70,0
413.53656,413.98346,41,70,0
413.68658,414.13345,38,70,0
413.83658,414.28345,33,70,0
413.98657,414.43344,29,70,0
414.13657,414.58344,41,70,0
414.28656,414.73346,38,70,0
414.43658,414.88345,33,70,0
414.58658,415.03345,45,70,0
414.73657,415.18344,41,70,0
414.88657,415.33344,38,70,0
415.03656,415.48346,33,70,0
415.18658,415.63345,29,70,0
415.33658,415.78345,41,70,0
415.48657,415.93344,38,70,0
415.63657,416.08344,33,70,0
415.78656,416.2201,45,70,0
415.93658,416.35645,41,70,0
416.08658,416.49283,38,70,0
416.22293,416.62918,33,70,0
416.35928,416.76553,45,70,0
416.49567,416.90192,41,70,0
416.63202,417.03827,38,70,0
416.7684,417.17465,33,70,0
416.90475,417.32434,45,70,0
417.0411,417.47437,41,70,0
417.1775,417.62436,38,70,0
417.32748,417.77435,33,70,0
417.47748,417.94067,45,70,0
417.62747,418.10733,41,70,0
417.77747,418.2944,38,70,0
417.94415,418.4819,33,70,0
418.1108,418.4819,45,70,0
418.2983,418.4819,41,70,0
418.4858,419.81567,38,70,0
419.81915,421.41498,50,70,0
419.81915,421.41498,45,70,0
419.81915,421.41498,38,70,0
421.41916,424.615,38,70,0
421.41916,424.615,45,70,0
421.41916,424.615,50,70,0
