start_time,end_time,note_value,velocity,instrument_program_number
0.0,0.5,57,92,40
0.0,2.0,64,92,40
0.5,2.0,69,92,40
0.5,2.0,81,92,40
2.0,4.0,74,45,40
2.0,4.0,78,45,40
4.0,5.6666665,71,45,40
4.0,5.6666665,74,45,40
6.0,8.0,68,45,40
6.0,8.0,71,45,40
8.0,11.0,64,45,40
8.0,11.0,76,45,40
11.0,11.979167,62,45,40
11.0,11.979167,68,45,40
12.0,13.666667,61,45,40
12.0,13.666667,69,45,40
14.0,14.5,59,45,40
14.0,15.979167,66,45,40
14.5,15.979167,74,45,40
16.0,16.5,59,45,40
16.0,17.979166,68,45,40
16.5,17.979166,74,45,40
18.0,18.5,57,45,40
18.0,20.0,64,45,40
18.5,20.0,74,45,40
20.0,20.979166,73,45,40
39.0,40.25,77,45,40
40.5,40.875,55,45,40
40.5,41.984375,62,45,40
40.875,41.984375,71,45,40
40.875,41.984375,77,45,40
42.0,42.375,60,45,40
42.0,43.5,67,45,40
42.375,43.5,72,45,40
42.375,43.5,77,45,40
43.5,44.234375,76,45,40
48.0,49.25,81,45,40
49.5,49.875,59,45,40
49.5,50.984375,66,45,40
49.875,50.984375,75,45,40
49.875,50.984375,81,45,40
51.0,51.375,64,45,40
51.0,52.5,71,45,40
51.375,52.5,81,45,40
52.5,57.0,80,45,40
57.0,59.25,81,45,40
59.25,59.984375,72,45,40
60.0,61.25,71,45,40
62.625,63.0,73,45,40
63.0,63.359375,74,45,40
64.125,64.5,72,45,40
64.5,65.234375,71,45,40
67.125,67.5,73,45,40
67.5,67.859375,74,45,40
68.625,69.0,72,45,40
69.0,69.734375,70,45,40
71.625,72.0,73,45,40
72.0,72.359375,74,45,40
73.125,73.5,76,45,40
73.5,74.234375,77,45,40
76.125,76.5,76,45,40
76.5,76.859375,77,45,40
76.875,77.25,76,45,40
77.25,77.609375,77,45,40
77.625,78.0,76,45,40
78.0,78.734375,77,45,40
80.625,81.0,76,45,40
81.0,81.359375,77,45,40
81.375,81.75,76,45,40
81.75,82.109375,77,45,40
82.125,82.5,76,45,40
82.5,86.0,77,45,40
86.5,86.71429,76,45,40
86.71429,87.303566,77,92,40
87.35714,87.41071,69,45,40
87.57143,87.625,68,45,40
87.78571,87.83928,64,45,40
87.99999,88.053566,64,45,40
88.21428,88.26785,68,45,40
88.428566,88.48214,69,45,40
88.64285,88.69642,64,45,40
88.85713,88.910706,64,45,40
89.07142,89.12499,69,45,40
89.285706,89.33928,71,45,40
89.49999,89.55356,64,45,40
89.71427,89.767845,64,45,40
89.92856,89.98213,71,45,40
90.142845,90.19642,72,45,40
90.35713,90.4107,69,45,40
90.57142,90.624985,69,45,40
90.7857,90.83927,72,45,40
90.999985,91.05356,72,45,40
91.21427,91.26784,69,45,40
91.42856,91.482124,69,45,40
91.64284,91.69641,72,45,40
91.857124,92.62498,74,45,40
92.74998,92.994774,55,45,40
92.74998,92.994774,62,45,40
92.99998,93.87498,71,45,40
92.99998,93.87498,79,45,40
93.99998,94.244774,60,45,40
93.99998,94.244774,67,45,40
93.99998,94.244774,72,45,40
94.24998,95.62498,76,45,40
98.3214,98.37497,69,45,40
98.53568,98.58926,68,45,40
98.74997,98.80354,64,45,40
98.96426,99.01783,64,45,40
99.17854,99.23211,68,45,40
99.39282,99.446396,69,45,40
99.60711,99.66068,64,45,40
99.821396,99.87497,64,45,40
100.03568,100.08925,69,45,40
100.24996,100.303535,69,45,40
100.46425,100.51782,64,45,40
100.678535,100.73211,64,45,40
100.89282,100.94639,69,45,40
101.1071,101.285675,71,45,40
101.96425,102.142815,55,92,40
101.96425,102.142815,62,92,40
101.96425,102.142815,71,92,40
102.82139,103.15472,55,108,40
102.82139,103.15472,64,108,40
102.82139,103.15472,72,108,40
107.32138,107.53567,76,45,40
107.53567,108.17852,77,45,40
108.17852,108.39281,76,56,40
108.39281,109.03566,77,60,40
109.03566,109.24995,77,72,40
109.24995,110.107086,78,76,40
110.107086,110.91065,79,92,40
110.964226,111.7678,80,92,40
111.821365,112.03565,81,92,40
112.03565,112.089226,76,92,40
112.24994,112.303505,72,92,40
112.464226,112.51779,74,92,40
112.678505,112.89279,76,92,40
112.89279,112.946365,72,92,40
113.10708,113.160645,69,92,40
113.321365,113.37493,69,92,40
113.535645,113.74993,74,92,40
113.74993,113.803505,71,92,40
113.96422,114.01779,68,92,40
114.178505,114.23207,68,92,40
114.392784,114.497696,57,92,40
114.49993,114.60484,69,92,40
114.60707,114.71198,68,92,40
114.71422,114.81912,69,92,40
114.82136,114.92627,57,92,40
114.9285,115.03341,69,92,40
115.035645,115.14055,59,92,40
115.142784,115.247696,69,92,40
115.24992,115.354836,60,92,40
115.35707,115.46198,69,92,40
115.46421,115.56912,62,92,40
115.57136,115.67626,69,92,40
115.6785,115.78341,60,92,40
115.78564,115.89055,69,92,40
115.892784,115.997696,59,92,40
115.99992,116.104836,69,92,40
116.10706,116.28564,57,92,40
117.82135,117.926254,64,92,40
117.92849,118.0334,76,92,40
118.03563,118.14054,75,92,40
118.14278,118.24769,76,92,40
118.249916,118.35483,64,92,40
118.35706,118.46197,76,92,40
118.4642,118.569115,66,92,40
118.57134,118.676254,76,92,40
118.67849,118.783394,68,92,40
118.78563,118.89054,76,92,40
118.89277,118.99768,69,92,40
118.999916,119.10483,76,92,40
119.107056,119.21197,71,92,40
119.2142,119.31911,76,92,40
119.32134,119.426254,68,92,40
119.42848,119.533394,76,92,40
119.53563,119.714195,64,92,40
119.74991,120.12491,64,92,40
120.17848,120.571335,64,92,40
120.607056,120.98205,64,92,40
121.03562,121.214195,64,92,40
121.24991,121.35482,60,92,40
121.35705,121.46196,57,92,40
121.464195,121.5691,60,92,40
121.571335,121.67625,57,92,40
121.678474,121.78339,60,92,40
121.78562,121.89053,57,92,40
121.89276,121.99767,60,92,40
121.9999,122.10481,57,92,40
122.10705,122.21196,60,92,40
122.21419,122.3191,57,92,40
122.321335,122.42624,60,92,40
122.428474,122.53339,57,92,40
122.535614,122.640526,60,92,40
122.64276,122.74767,57,92,40
122.7499,122.85481,60,92,40
122.85705,122.96195,57,92,40
122.96419,123.0691,69,92,40
123.07133,123.17624,81,92,40
123.178474,123.28338,80,92,40
123.285614,123.390526,81,92,40
123.39275,123.497665,69,92,40
123.4999,123.60481,81,92,40
123.60704,123.71195,71,92,40
123.71419,123.81909,81,92,40
123.82133,123.92624,72,92,40
123.92847,124.03338,81,92,40
124.035614,124.140526,71,92,40
124.14275,124.247665,81,92,40
124.24989,124.354805,72,92,40
124.35704,124.46195,81,92,40
124.46418,124.56909,69,92,40
124.57133,124.67623,81,92,40
124.67847,124.78338,64,92,40
124.78561,124.89052,56,92,40
124.89275,124.997665,59,92,40
124.99989,125.104805,56,92,40
125.10704,125.211945,59,92,40
125.21418,125.31909,56,92,40
125.32132,125.42623,59,92,40
125.42847,125.53338,56,92,40
125.53561,125.64052,59,92,40
125.642746,125.74766,56,92,40
125.74989,125.854805,59,92,40
125.85703,125.961945,56,92,40
125.96418,126.069084,59,92,40
126.07132,126.17623,56,92,40
126.17846,126.28337,59,92,40
126.28561,126.39052,56,92,40
126.392746,126.49766,64,92,40
126.49989,126.6048,76,92,40
126.60703,126.711945,75,92,40
126.71417,126.819084,76,92,40
126.82132,126.92622,64,92,40
126.92846,127.03337,76,92,40
127.0356,127.14051,65,92,40
127.142746,127.24766,77,92,40
127.249886,127.3548,64,92,40
127.35703,127.46194,76,92,40
127.46417,127.569084,62,92,40
127.57131,127.67622,74,92,40
127.67846,127.78337,60,92,40
127.7856,127.89051,72,92,40
127.89274,127.99765,59,92,40
127.999886,128.1048,71,92,40
128.10703,128.2856,57,92,40
128.5356,128.71417,69,92,40
128.5356,128.71417,72,92,40
128.5356,128.71417,76,92,40
129.39273,129.5713,69,92,40
129.39273,129.5713,72,92,40
129.39273,129.5713,77,92,40
129.8213,129.99988,67,92,40
129.8213,129.99988,74,92,40
129.8213,129.99988,77,92,40
130.24988,130.42845,67,92,40
130.24988,130.42845,77,92,40
130.24988,130.42845,86,92,40
131.3213,131.49988,71,92,40
131.53558,131.71416,72,92,40
131.96416,132.14273,64,92,40
131.96416,132.14273,76,92,40
131.96416,132.14273,79,92,40
132.8213,132.99986,79,92,40
132.8213,132.99986,81,92,40
133.24986,133.42844,77,92,40
133.24986,133.42844,81,92,40
133.67844,133.85701,63,92,40
133.67844,133.85701,71,92,40
133.67844,133.85701,81,92,40
134.74986,134.92844,75,92,40
134.96414,135.14272,76,92,40
135.39272,135.57129,76,92,40
135.39272,135.57129,88,92,40
136.24986,136.42842,76,92,40
136.24986,136.42842,88,92,40
136.67842,136.857,76,92,40
136.67842,136.857,88,92,40
137.107,137.28557,76,92,40
137.107,137.28557,88,92,40
137.96414,138.14272,79,92,40
138.17842,138.357,79,92,40
138.3927,138.57127,78,92,40
138.82127,140.28555,87,92,40
140.53555,140.5869,87,92,40
140.58913,140.64047,88,92,40
140.6427,140.69405,87,92,40
140.69627,140.7476,88,92,40
140.74985,140.80118,87,92,40
140.8034,140.85475,88,92,40
140.85698,140.90833,85,92,40
140.91055,140.9619,87,92,40
140.96413,141.1427,88,92,40
141.3927,141.44403,88,92,40
141.44627,141.4976,89,92,40
141.49983,141.55118,88,92,40
141.5534,141.60475,89,92,40
141.60698,141.65833,88,92,40
141.66055,141.7119,89,92,40
141.71413,141.76546,87,92,40
141.7677,141.81903,88,92,40
141.82127,141.99983,87,92,40
142.24983,143.71411,75,92,40
143.96411,144.01546,75,92,40
144.01768,144.06903,76,92,40
144.07126,144.1226,75,92,40
144.12483,144.17616,76,92,40
144.1784,144.22974,75,92,40
144.23198,144.28331,76,92,40
144.28554,144.33688,73,92,40
144.33911,144.39046,75,92,40
144.39268,144.57126,76,92,40
144.82126,144.87259,76,92,40
144.87483,144.92616,77,92,40
144.9284,144.97974,76,92,40
144.98196,145.03331,77,92,40
145.03554,145.08688,76,92,40
145.08911,145.14046,77,92,40
145.14268,145.19403,75,92,40
145.19626,145.24759,76,92,40
145.24983,145.35474,75,92,40
145.35696,145.46188,66,92,40
145.46411,145.56902,64,92,40
145.57126,145.67616,63,92,40
145.67839,145.78331,76,92,40
145.78554,145.89046,67,92,40
145.89268,145.99759,66,92,40
145.99982,146.10474,64,92,40
146.10696,146.21188,75,92,40
146.21411,146.31902,66,92,40
146.32126,146.42616,64,92,40
146.42839,146.53331,63,92,40
146.53554,146.64044,76,92,40
146.64268,146.74759,67,92,40
146.74982,146.85474,66,92,40
146.85696,146.96187,64,92,40
146.96411,147.06902,75,92,40
147.07124,147.17616,66,92,40
147.17839,147.28331,64,92,40
147.28554,147.39044,63,92,40
147.39267,147.49759,76,92,40
147.49982,147.60474,67,92,40
147.60696,147.71187,66,92,40
147.71411,147.81902,64,92,40
147.82124,147.92616,75,92,40
147.92839,148.0333,66,92,40
148.03554,148.14044,64,92,40
148.14267,148.24759,63,92,40
148.24982,148.35472,76,92,40
148.35696,148.46187,67,92,40
148.4641,148.56902,66,92,40
148.57124,148.67615,64,92,40
148.67839,148.7833,75,92,40
148.78552,148.89044,66,92,40
148.89267,148.99759,64,92,40
148.99982,149.10472,63,92,40
149.10696,149.21187,71,92,40
149.2141,149.31902,66,92,40
149.32124,149.42615,64,92,40
149.42839,149.5333,63,92,40
149.53552,149.64044,71,92,40
149.64267,149.74757,66,92,40
149.74982,149.85472,64,92,40
149.85695,149.96187,63,92,40
149.9641,150.069,71,92,40
150.07124,150.17615,66,92,40
150.17838,150.2833,64,92,40
150.28552,150.39044,63,92,40
150.39267,150.49757,71,92,40
150.49982,150.60472,66,92,40
150.60695,150.71187,64,92,40
150.7141,150.819,63,92,40
150.82124,150.92615,71,92,40
150.92838,151.0333,66,92,40
151.03552,151.14043,64,92,40
151.14267,151.24757,63,92,40
151.2498,151.35472,71,92,40
151.35695,151.46185,66,92,40
151.4641,151.569,64,92,40
151.57123,151.67615,63,92,40
151.67838,151.7833,71,92,40
151.78552,151.89043,66,92,40
151.89265,151.99757,64,92,40
151.9998,152.10472,63,92,40
152.10695,153.06694,71,92,40
153.06694,153.96695,69,76,40
154.02695,154.98695,68,60,40
154.98695,155.94695,69,60,40
155.94695,156.90695,68,60,40
156.90695,157.80695,66,60,40
157.86694,158.82695,68,60,40
158.82695,159.30695,71,60,40
159.30695,159.78694,69,60,40
159.78694,160.74695,68,60,40
160.74695,161.64694,66,60,40
161.70694,162.66695,68,60,40
162.66695,162.90695,71,60,40
162.90695,163.14694,69,60,40
163.14694,163.56694,68,60,40
163.62695,164.52695,66,60,40
164.58694,165.48695,66,60,40
165.54695,166.44695,66,60,40
166.50694,167.40695,66,60,40
167.46695,167.66695,66,60,40
169.38695,171.72694,76,60,40
171.78694,172.20694,76,60,40
172.26695,172.46695,88,60,40
172.74695,172.94695,88,60,40
173.22694,173.70694,88,60,40
173.70694,175.56694,76,60,40
175.62695,176.04695,76,60,40
176.10695,176.30695,88,60,40
176.58694,176.78694,88,60,40
177.06694,179.46695,88,60,40
179.46695,181.11694,86,60,40
181.26695,181.48123,62,60,40
181.48123,182.12408,74,60,40
182.12408,182.30266,69,60,40
182.33838,182.51694,71,60,40
182.98123,183.08614,71,108,40
183.08836,183.19328,71,108,40
183.19551,183.30042,66,108,40
183.30266,183.40756,66,108,40
183.40979,183.51471,67,108,40
183.51694,183.62186,67,108,40
183.62408,183.72899,69,108,40
183.73123,183.83614,69,108,40
183.83836,183.94328,66,108,40
183.94551,184.05042,66,108,40
184.05266,184.23122,71,108,40
184.69551,184.90979,71,60,40
184.90979,185.55264,83,60,40
185.55264,185.73122,78,60,40
185.76694,185.9455,79,60,40
186.40979,186.5147,67,108,40
186.51692,186.62184,67,108,40
186.62407,186.72899,63,108,40
186.73122,186.83612,63,108,40
186.83836,186.94327,64,108,40
186.9455,187.05042,64,108,40
187.05264,187.15755,66,108,40
187.15979,187.2647,66,108,40
187.26692,187.37184,63,108,40
187.37407,187.47897,63,108,40
187.48122,187.65979,67,108,40
188.12407,188.22897,79,108,40
188.23122,188.33612,79,108,40
188.33835,188.44327,75,108,40
188.4455,188.5504,75,108,40
188.55264,188.65755,76,108,40
188.65977,188.7647,76,108,40
188.76692,188.87183,78,108,40
188.87407,188.97897,78,108,40
188.9812,189.08612,75,108,40
189.08835,189.19325,75,108,40
189.1955,189.3004,79,108,40
189.30263,189.40755,79,108,40
189.40977,189.5147,81,108,40
189.51692,189.62183,81,108,40
189.62407,189.72897,83,108,40
189.7312,189.83612,83,108,40
189.83835,189.94325,79,108,40
189.9455,190.0504,79,108,40
190.05263,190.15755,75,108,40
190.15977,190.26468,75,108,40
190.26692,190.37183,76,108,40
190.37405,190.47897,76,108,40
190.4812,190.5861,78,108,40
190.58835,190.69325,78,108,40
190.69548,190.8004,75,108,40
190.80263,190.90755,75,108,40
190.90977,191.08835,79,108,40
191.33835,191.94548,88,108,40
192.19548,192.80263,88,108,40
193.05263,193.65976,88,108,40
193.69548,193.74905,84,108,40
193.90976,193.96333,83,108,40
194.12405,194.17761,81,108,40
194.33833,194.44324,79,108,40
194.44548,194.55038,79,108,40
194.55261,194.65753,81,108,40
194.65976,194.76466,81,108,40
194.7669,194.87181,83,108,40
194.87404,194.97896,83,108,40
194.98119,195.08609,79,108,40
195.08833,195.19324,79,108,40
195.19547,195.30038,81,108,40
195.30261,195.40753,81,108,40
195.40976,195.51466,83,108,40
195.5169,195.62181,83,108,40
195.62404,195.72896,84,108,40
195.73119,195.83609,84,108,40
195.83833,195.94324,81,108,40
195.94547,196.05038,81,108,40
196.05261,196.15752,83,108,40
196.15976,196.26466,83,108,40
196.26689,196.37181,84,108,40
196.37404,196.47894,84,108,40
196.48119,196.58609,86,108,40
196.58832,196.69324,86,108,40
196.69547,196.80038,88,108,40
196.80261,196.90752,88,108,40
196.90976,197.01466,89,108,40
197.01689,197.12181,89,108,40
197.12404,197.22894,86,108,40
197.23119,197.33609,86,108,40
197.33832,197.44324,83,108,40
197.44547,197.55037,83,108,40
197.55261,197.65752,86,108,40
197.65974,197.76466,86,108,40
197.76689,197.8718,89,108,40
197.87404,197.97894,89,108,40
197.98117,198.08609,86,108,40
198.08832,198.19324,86,108,40
198.19547,198.30037,83,108,40
198.3026,198.40752,83,108,40
198.40974,198.51466,86,108,40
198.51689,198.6218,86,108,40
198.62404,198.72894,89,108,40
198.73117,198.83609,89,108,40
198.83832,198.94322,86,108,40
198.94547,199.05037,86,108,40
199.0526,199.15752,84,108,40
199.15974,199.26465,84,108,40
199.26689,199.3718,83,108,40
199.37402,199.47894,83,108,40
200.76688,200.8718,88,108,40
200.87402,200.97893,88,108,40
200.98117,201.08607,88,108,40
201.0883,201.19322,88,108,40
201.19545,201.30037,93,108,40
201.3026,201.4075,93,108,40
201.40974,201.51465,93,108,40
201.51688,201.6218,93,108,40
201.62402,201.72893,91,108,40
201.73117,201.83607,91,108,40
201.8383,201.94322,90,108,40
201.94545,202.05035,90,108,40
202.0526,202.1575,93,108,40
202.15973,202.26465,93,108,40
202.26688,202.37178,90,108,40
202.37402,202.47893,90,108,40
202.48116,202.58607,88,108,40
202.5883,202.69322,88,108,40
202.69545,202.80035,87,108,40
202.8026,202.9075,87,108,40
202.90973,203.01465,88,108,40
203.01688,203.12178,88,108,40
203.12402,203.22893,84,108,40
203.23116,203.33607,84,108,40
203.3383,203.4432,83,108,40
203.44545,203.55035,83,108,40
203.55258,203.6575,82,108,40
203.65973,203.76463,82,108,40
203.76688,203.87178,83,108,40
203.87401,203.97893,83,108,40
203.98116,204.08607,82,108,40
204.0883,204.1932,82,108,40
204.19543,204.30035,83,108,40
204.30258,204.4075,83,108,40
204.40973,204.51463,83,108,40
204.51688,204.62178,83,108,40
204.62401,204.80258,76,108,40
214.80255,214.9097,75,108,40
214.9097,215.62398,76,108,40
215.65968,215.76683,75,108,40
215.76683,216.48111,76,108,40
216.51683,216.62398,75,108,40
216.62398,217.33826,76,108,40
217.37396,217.48111,78,108,40
217.48111,217.65968,79,108,40
217.80254,217.90968,82,108,40
217.90968,218.08826,83,108,40
218.23111,218.33826,87,108,40
218.33826,219.14182,88,108,40
219.19539,219.40968,86,108,40
219.40968,219.46324,85,108,40
219.62396,219.67754,83,108,40
219.83824,219.89182,85,108,40
220.05254,220.42754,86,108,40
220.48111,220.8561,81,108,40
220.90967,221.08824,83,108,40
221.12396,221.19315,84,108,40
221.19539,221.26459,83,108,40
221.26682,221.33601,84,108,40
221.33824,221.40744,83,108,40
221.40967,221.47887,84,108,40
221.4811,221.5503,83,108,40
221.55252,221.65744,81,108,40
221.65967,221.76459,83,108,40
221.76682,222.57037,84,108,40
222.62395,222.83824,83,108,40
222.83824,222.89182,81,108,40
223.05252,223.1061,80,108,40
223.2668,223.32037,81,108,40
223.4811,223.8561,83,108,40
223.90967,224.28467,76,108,40
224.33823,224.71323,78,108,40
224.7668,225.1418,71,108,40
225.19537,226.2668,83,108,40
226.2668,226.32037,81,108,40
226.48108,226.53465,79,108,40
226.69537,226.74893,81,108,40
226.90965,227.28465,83,108,40
227.33823,227.71323,76,108,40
227.76678,228.14178,78,108,40
228.19536,228.57036,71,108,40
228.62393,228.72884,83,108,40
228.73108,228.83598,88,108,40
228.83821,228.94313,88,108,40
228.94536,229.05026,88,108,40
229.0525,229.15741,88,108,40
229.15964,229.26456,88,108,40
229.26678,229.3717,88,108,40
229.37393,229.47884,88,108,40
229.48108,229.58598,88,108,40
229.58821,229.69313,88,108,40
229.69536,229.80026,88,108,40
229.8025,229.90741,88,108,40
229.90964,230.01456,88,108,40
230.01678,230.12169,88,108,40
230.12393,230.22884,88,108,40
230.23106,230.33598,88,108,40
230.33821,230.44312,88,108,40
230.44536,230.55026,88,108,40
230.55249,230.65741,91,108,40
230.65964,230.76456,91,108,40
230.76678,230.87169,88,108,40
230.87393,230.97884,88,108,40
230.98106,231.08598,91,108,40
231.08821,231.19312,91,108,40
231.19536,231.30026,87,108,40
231.30249,231.40741,87,108,40
231.40964,231.51454,90,108,40
231.51678,231.62169,90,108,40
231.62392,231.72884,87,108,40
231.73106,231.83597,87,108,40
231.83821,231.94312,87,108,40
231.94534,232.05026,87,108,40
232.05249,232.23106,88,108,40
232.90964,233.0882,64,108,40
232.90964,233.0882,71,108,40
232.90964,233.0882,76,108,40
233.76677,233.87169,69,108,40
233.87392,233.97882,81,108,40
233.98106,234.08597,80,108,40
234.0882,234.19312,81,108,40
234.19534,234.30025,78,108,40
234.30249,234.4074,81,108,40
234.40962,234.51454,76,108,40
234.51677,234.62167,81,108,40
234.62392,234.72882,75,108,40
234.73105,234.83597,81,108,40
234.8382,234.9431,72,108,40
234.94534,235.05025,75,108,40
235.05247,235.1574,71,108,40
235.15962,235.26454,75,108,40
235.26677,235.37167,69,108,40
235.37392,235.47882,75,108,40
235.48105,235.65962,67,108,40
236.3382,236.51677,64,108,40
236.3382,236.51677,71,108,40
236.3382,236.51677,76,108,40
237.19533,237.30025,69,108,40
237.30247,237.40738,81,108,40
237.40962,237.51453,80,108,40
237.51675,237.62167,81,108,40
237.6239,237.7288,78,108,40
237.73105,237.83595,81,108,40
237.83818,237.9431,76,108,40
237.94533,238.05025,81,108,40
238.05247,238.15738,75,108,40
238.1596,238.26453,81,108,40
238.26675,238.37167,72,108,40
238.3739,238.4788,75,108,40
238.48105,238.58595,71,108,40
238.58818,238.6931,75,108,40
238.69533,238.80023,69,108,40
238.80247,238.90738,75,108,40
238.9096,239.01453,67,108,40
239.01675,239.12166,76,108,40
239.1239,239.2288,64,108,40
239.23103,239.33595,66,108,40
239.33818,239.4431,69,108,40
239.44533,239.55023,67,108,40
239.55246,239.65738,66,108,40
239.6596,239.76453,64,108,40
239.76675,239.87166,63,108,40
239.8739,239.9788,66,108,40
239.98103,240.08595,59,108,40
240.08818,240.19308,63,108,40
240.19533,240.30023,66,108,40
240.30246,240.40738,71,108,40
240.4096,240.51451,69,108,40
240.51675,240.62166,66,108,40
240.62389,240.7288,67,108,40
240.73103,240.83594,76,108,40
240.83818,240.94308,64,108,40
240.94531,241.05023,66,108,40
241.05246,241.15738,69,108,40
241.1596,241.26451,67,108,40
241.26675,241.37166,66,108,40
241.37389,241.4788,64,108,40
241.48103,241.58594,63,108,40
241.58818,241.69308,66,108,40
241.69531,241.80023,59,108,40
241.80246,241.90736,63,108,40
241.9096,242.01451,66,108,40
242.01674,242.12166,71,108,40
242.12389,242.22879,69,108,40
242.23103,242.33594,66,108,40
242.33817,242.44308,67,108,40
242.44531,242.55023,76,108,40
242.55246,242.65736,64,108,40
242.6596,242.76451,67,108,40
242.76674,242.87166,59,108,40
242.87389,242.97879,67,108,40
242.98103,243.08594,76,108,40
243.08817,243.19308,67,108,40
243.19531,243.30022,59,108,40
243.30246,243.40736,66,108,40
243.40959,243.51451,75,108,40
243.51674,243.62164,66,108,40
243.62389,243.72879,59,108,40
243.73102,243.83594,66,108,40
243.83817,243.94308,75,108,40
243.94531,244.05022,66,108,40
244.05244,244.29724,59,108,40
244.05244,244.29724,64,108,40
244.30244,247.92744,74,108,40
248.05244,251.71912,72,108,40
258.65958,258.76672,78,60,40
258.76672,259.481,79,60,40
259.51672,259.62384,78,60,40
259.62384,260.33813,79,60,40
260.37384,260.481,78,60,40
260.481,261.19528,79,60,40
261.231,261.33813,81,60,40
261.33813,261.62384,82,60,40
261.65958,261.7667,85,60,40
261.7667,262.05243,86,60,40
262.08813,262.19528,90,60,40
262.19528,263.2667,91,60,40
263.2667,263.481,90,70,40
263.481,263.69528,88,72,40
263.69528,263.87384,90,74,40
263.90955,264.33813,91,76,40
264.33813,264.71313,86,80,40
264.7667,264.981,87,84,40
264.981,265.19525,86,86,40
265.19525,265.40955,84,88,40
265.40955,265.58813,86,90,40
265.62384,265.72876,87,92,40
265.731,265.83588,70,92,40
265.8381,265.94302,79,92,40
265.94525,266.05017,70,92,40
266.0524,266.15732,79,92,40
266.15955,266.26447,70,92,40
266.2667,266.3716,79,92,40
266.37384,266.47873,70,92,40
266.481,266.58588,63,92,40
266.5881,266.69302,70,92,40
266.69525,266.80017,79,92,40
266.8024,266.90732,70,92,40
266.90955,267.01447,79,92,40
267.0167,267.1216,70,92,40
267.12384,267.22873,79,92,40
267.23096,267.33588,70,92,40
267.3381,267.44302,63,92,40
267.44525,267.55017,70,92,40
267.5524,267.65732,79,92,40
267.65955,267.76447,70,92,40
267.7667,267.87158,63,92,40
267.87384,267.97873,70,92,40
267.98096,268.08588,79,92,40
268.0881,268.19302,70,92,40
268.19525,268.30017,63,92,40
268.3024,268.40732,70,92,40
268.40955,268.51443,79,92,40
268.5167,268.62158,70,92,40
268.6238,268.72873,63,92,40
268.73096,268.83588,70,92,40
268.8381,268.94302,79,92,40
268.94525,269.05017,70,92,40
269.0524,269.15732,63,92,40
269.15955,269.26443,70,92,40
269.2667,269.37158,79,92,40
269.3738,269.47873,70,92,40
269.48096,269.58588,79,92,40
269.5881,269.69302,70,92,40
269.69525,269.80017,79,92,40
269.8024,269.9073,70,92,40
269.90955,270.01443,64,92,40
270.01666,270.12158,69,92,40
270.1238,270.22873,79,92,40
270.23096,270.33588,69,92,40
270.3381,270.44302,79,92,40
270.44525,270.55017,69,92,40
270.5524,270.6573,79,92,40
270.65955,270.76443,69,92,40
270.76666,270.87158,62,92,40
270.8738,270.97873,69,92,40
270.98096,271.08588,79,92,40
271.0881,271.19302,69,92,40
271.19525,271.30014,62,92,40
271.3024,271.4073,69,92,40
271.40952,271.51443,77,92,40
271.51666,271.62158,69,92,40
271.6238,271.72873,55,92,40
271.73096,271.83588,67,92,40
271.8381,271.94302,77,92,40
271.94525,272.05014,67,92,40
272.0524,272.1573,55,92,40
272.15952,272.26443,67,92,40
272.26666,272.37158,77,92,40
272.3738,272.47873,67,92,40
272.48096,272.58588,60,92,40
272.5881,272.693,67,92,40
272.69525,272.80014,77,92,40
272.80237,272.9073,67,92,40
272.90952,273.01443,60,92,40
273.01666,273.12158,67,92,40
273.1238,273.22873,75,92,40
273.23096,273.33588,67,92,40
273.3381,273.443,60,92,40
273.44525,273.55014,65,92,40
273.55237,273.6573,75,92,40
273.65952,273.76443,65,92,40
273.76666,273.87158,75,92,40
273.8738,273.97873,65,92,40
273.98096,274.08585,75,92,40
274.0881,274.193,65,92,40
274.19522,274.30014,58,92,40
274.30237,274.4073,65,92,40
274.40952,274.51443,75,92,40
274.51666,274.62158,65,92,40
274.6238,274.72873,58,92,40
274.73096,274.83585,65,92,40
274.8381,274.943,73,92,40
274.94522,275.05014,65,92,40
275.05237,275.1573,58,92,40
275.15952,275.26443,63,92,40
275.26666,275.37158,73,92,40
275.3738,275.4787,63,92,40
275.48096,275.58585,58,92,40
275.58807,275.693,63,92,40
275.69522,275.80014,73,92,40
275.80237,275.9073,63,92,40
275.90952,276.01443,56,92,40
276.01666,276.12158,63,92,40
276.1238,276.2287,73,92,40
276.23096,276.33585,63,92,40
276.33807,276.443,56,92,40
276.44522,276.55014,63,92,40
276.55237,276.6573,72,92,40
276.65952,276.76443,63,92,40
276.76666,276.87155,56,92,40
276.8738,276.9787,68,92,40
276.98093,277.08585,72,92,40
277.08807,277.193,68,92,40
277.19522,277.30014,72,92,40
277.30237,277.4073,68,92,40
277.40952,277.51443,72,92,40
277.51666,277.62155,68,92,40
277.62378,277.7287,61,92,40
277.73093,277.83585,68,92,40
277.83807,277.943,70,92,40
277.94522,278.05014,68,92,40
278.05237,278.1573,60,92,40
278.15952,278.2644,67,92,40
278.26666,278.37155,70,92,40
278.37378,278.4787,67,92,40
278.48093,278.58585,60,92,40
278.58807,278.693,67,92,40
278.69522,278.80014,68,92,40
278.80237,278.9073,65,92,40
278.90952,279.0144,68,92,40
279.01663,279.12155,65,92,40
279.12378,279.2287,61,92,40
279.23093,279.33585,56,92,40
279.33807,279.51663,55,92,40
279.65952,279.76663,59,92,40
279.76663,280.48093,60,92,40
280.51663,280.62378,71,92,40
280.62378,281.33807,72,92,40
281.37378,281.48093,83,92,40
281.48093,281.6595,84,92,40
283.08807,283.1952,64,92,40
283.1952,283.9095,65,92,40
283.9452,284.05234,76,92,40
284.05234,284.76663,77,92,40
284.80234,284.9095,88,92,40
284.9095,285.08804,89,92,40
286.4095,286.51663,57,92,40
286.51663,286.62378,60,92,40
286.62378,286.7309,58,92,40
286.7309,286.83804,61,92,40
286.83804,286.9452,60,92,40
286.9452,287.0501,63,92,40
287.05234,287.1595,61,92,40
287.1595,287.26663,65,92,40
287.26663,287.37375,57,92,40
287.37375,287.4809,60,92,40
287.4809,287.58804,58,92,40
287.58804,287.6952,61,92,40
287.6952,287.80234,60,92,40
287.80234,287.90726,63,92,40
287.9095,288.01663,61,92,40
288.01663,288.12375,65,92,40
288.12375,288.2309,57,92,40
288.2309,288.33804,60,92,40
288.33804,288.4452,58,92,40
288.4452,288.55234,61,92,40
288.55234,288.6595,60,92,40
288.6595,288.76437,63,92,40
288.7666,288.87375,61,92,40
288.87375,288.9809,65,92,40
288.9809,289.08804,62,92,40
289.08804,289.1952,65,92,40
289.1952,289.30234,63,92,40
289.30234,289.40945,67,92,40
289.40945,289.5166,65,92,40
289.5166,289.62152,68,92,40
289.62375,289.7309,67,92,40
289.7309,289.83582,70,92,40
289.9452,290.05234,62,92,40
290.05234,290.7666,63,92,40
290.8023,290.90945,74,92,40
290.90945,291.62375,75,92,40
291.65945,291.7666,86,92,40
291.7666,291.9452,87,92,40
293.37375,293.4809,55,92,40
293.4809,293.65945,56,92,40
294.2309,294.338,76,92,40
294.338,294.5166,77,92,40
295.088,295.19516,81,92,40
295.19516,295.37375,82,92,40
295.94516,296.0523,76,92,40
296.0523,296.23087,88,92,40
296.48087,296.65945,89,92,40
296.69516,296.8023,85,92,40
296.8023,296.90945,82,92,40
296.90945,297.0166,84,92,40
297.0166,297.12372,80,92,40
297.12372,297.23087,82,92,40
297.23087,297.3358,79,92,40
297.338,297.44516,80,92,40
297.44516,297.5523,77,92,40
297.5523,297.65945,78,92,40
297.65945,297.76657,75,92,40
297.76657,297.87372,77,92,40
297.87372,297.98087,73,92,40
297.98087,298.088,75,92,40
298.088,298.19293,72,92,40
298.19516,298.3023,73,92,40
298.3023,298.40945,70,92,40
298.40945,298.51657,84,92,40
298.51657,298.62372,80,92,40
298.62372,298.73087,82,92,40
298.73087,298.838,79,92,40
298.838,298.94516,80,92,40
298.94516,299.05005,77,92,40
299.0523,299.15942,79,92,40
299.15942,299.26657,75,92,40
299.26657,299.37372,77,92,40
299.37372,299.48087,73,92,40
299.48087,299.588,75,92,40
299.588,299.69516,72,92,40
299.69516,299.8023,73,92,40
299.8023,299.9072,70,92,40
299.90942,300.01657,72,92,40
300.01657,300.1215,68,92,40
301.088,301.19513,84,92,40
301.19513,302.05228,85,92,40
302.05228,302.23087,82,92,40
302.80228,302.90942,83,92,40
302.90942,303.55228,84,92,40
303.55228,303.73087,80,92,40
304.83798,305.01657,65,92,40
305.05228,305.23083,66,92,40
305.90942,306.08798,68,92,40
306.65942,306.76654,72,60,40
306.76654,307.5358,73,60,40
307.57425,307.68964,72,60,40
307.68964,308.45886,73,60,40
308.4973,308.6127,72,60,40
308.6127,309.38193,73,60,40
309.4204,309.5358,76,60,40
309.5358,309.59348,77,60,40
309.88193,309.9973,79,60,40
309.9973,310.05502,80,60,40
310.34348,310.45886,84,60,40
310.45886,311.32425,85,60,40
311.38193,311.6127,84,60,40
311.6127,311.84348,82,60,40
311.84348,312.07425,80,60,40
312.07425,312.26654,82,60,40
312.30502,312.76654,84,60,40
312.76654,313.2281,77,60,40
313.2281,313.68964,79,60,40
313.68964,314.09348,72,60,40
314.15115,314.34348,77,60,40
316.45886,317.15115,77,60,40
317.15115,317.38193,76,60,40
317.38193,317.6127,74,60,40
317.6127,317.805,76,60,40
317.84348,318.02203,77,60,40
318.48633,318.5399,65,60,40
318.7006,318.87918,60,60,40
319.34348,319.39703,60,60,40
319.55774,319.73633,65,60,40
320.2006,320.25418,77,60,40
320.4149,320.59344,72,60,40
321.05774,321.1113,72,60,40
321.27203,321.37692,77,60,40
321.37918,321.48407,80,60,40
321.4863,321.59122,79,60,40
321.59344,321.69836,80,60,40
321.7006,321.8055,77,60,40
321.80774,321.91266,80,60,40
321.9149,322.0198,75,60,40
322.02203,322.12692,80,60,40
322.12918,322.23407,74,60,40
322.2363,322.34122,77,60,40
322.34344,322.44836,75,60,40
322.4506,322.5555,77,60,40
322.55774,322.66266,74,60,40
322.6649,322.76978,77,60,40
322.77203,322.87692,72,60,40
322.87915,322.98407,77,60,40
322.9863,323.09122,71,60,40
323.09344,323.19836,74,60,40
323.2006,323.3055,72,60,40
323.30774,323.41266,74,60,40
323.4149,323.51978,71,60,40
323.52203,323.62692,74,60,40
323.62915,323.73407,68,60,40
323.7363,323.84122,71,60,40
323.84344,323.94836,67,60,40
323.9506,324.0555,71,60,40
324.05774,324.16263,65,60,40
324.1649,324.26978,71,60,40
324.272,324.37692,63,60,40
324.37915,324.48407,72,60,40
324.4863,324.59122,62,60,40
324.59344,324.69836,74,60,40
324.7006,324.87915,75,60,40
325.34344,325.397,72,60,40
325.55774,325.7363,67,60,40
326.2006,326.25415,67,60,40
326.41486,326.59344,72,60,40
327.0577,327.1113,84,60,40
327.272,327.4506,79,60,40
327.91486,327.96844,79,60,40
328.12915,328.23407,75,60,40
328.2363,328.3412,75,60,40
328.34344,328.44833,74,60,40
328.45056,328.55548,75,60,40
328.5577,328.66263,72,60,40
328.66486,328.76978,75,60,40
328.772,328.87692,70,60,40
328.87915,328.98404,75,60,40
328.9863,329.0912,69,60,40
329.0934,329.19833,72,60,40
329.20056,329.30548,70,60,40
329.3077,329.41263,72,60,40
329.41486,329.51978,69,60,40
329.522,329.62692,72,60,40
329.62915,329.73404,67,60,40
329.7363,329.8412,72,60,40
329.8434,329.94833,66,60,40
329.95056,330.05548,69,60,40
330.0577,330.16263,67,60,40
330.16486,330.26978,69,60,40
330.272,330.3769,66,60,40
330.37915,330.48404,69,60,40
330.48627,330.5912,63,60,40
330.5934,330.69833,66,60,40
330.70056,330.80548,62,60,40
330.8077,330.91263,66,60,40
330.91486,331.01978,60,60,40
331.022,331.1269,66,60,40
331.12915,331.23404,58,60,40
331.23627,331.3412,67,60,40
331.3434,331.44833,57,60,40
331.45056,331.55548,69,60,40
331.5577,331.73627,70,60,40
332.20056,332.25412,67,60,40
332.41486,332.5934,62,60,40
333.0577,333.11127,74,60,40
333.27197,333.45056,79,60,40
333.70056,334.3077,91,60,40
334.3434,334.39697,88,60,40
334.5577,334.61127,89,60,40
334.77197,334.82556,91,60,40
334.98627,335.16483,93,60,40
335.62912,335.68268,74,60,40
335.8434,336.02197,69,60,40
336.48627,336.53983,81,60,40
336.70056,336.87912,86,60,40
337.12912,337.73627,86,60,40
337.77197,337.82553,83,60,40
337.98627,338.03983,84,60,40
338.20053,338.25412,86,60,40
338.41483,338.59338,88,108,40
339.05768,339.23627,81,108,40
339.27197,339.3769,76,108,40
339.37912,339.484,76,108,40
339.48624,339.59116,78,108,40
339.59338,339.6983,78,108,40
339.70053,339.80545,80,108,40
339.80768,339.9126,80,108,40
339.91483,340.01974,76,108,40
340.02197,340.12686,76,108,40
340.12912,340.234,81,108,40
340.23624,340.34116,81,108,40
340.34338,340.4483,83,108,40
340.45053,340.55545,83,108,40
340.55768,340.6626,84,108,40
340.66483,340.7697,84,108,40
340.77197,340.87686,81,108,40
340.8791,340.984,81,108,40
340.98624,341.09116,88,108,40
341.09338,341.1983,88,108,40
341.20053,341.30545,88,108,40
341.30768,341.4126,88,108,40
341.41483,341.5197,90,108,40
341.52197,341.62686,90,108,40
341.6291,341.734,92,108,40
341.73624,341.84116,92,108,40
341.84338,341.9483,93,108,40
341.95053,342.05545,93,108,40
342.05768,342.16257,91,108,40
342.16483,342.2697,91,108,40
342.27194,342.37686,89,108,40
342.3791,342.484,89,108,40
342.48624,342.59116,88,108,40
342.59338,342.6983,88,108,40
342.70053,342.80545,86,108,40
342.80768,342.91257,86,108,40
342.91483,343.0197,84,108,40
343.02194,343.12686,84,108,40
343.1291,343.234,83,108,40
343.23624,343.34116,83,108,40
343.34338,343.4483,81,108,40
343.45053,343.55542,81,108,40
343.55768,343.73624,88,108,40
343.98624,344.4148,76,60,40
344.4148,344.84338,77,60,40
344.84338,345.27194,87,60,40
345.27194,345.70053,88,60,40
345.70053,346.0755,76,60,40
346.1291,346.55765,77,60,40
346.55765,346.98624,87,60,40
346.98624,347.36124,88,60,40
347.4148,348.27194,76,60,40
348.27194,348.7005,75,73,40
348.7005,349.1291,74,80,40
349.1291,349.93265,62,87,40
349.9862,350.3612,60,101,40
350.4148,352.51904,68,108,40
350.4148,352.51904,59,108,40
357.30194,357.40686,57,60,40
357.4091,357.51398,61,60,40
357.51624,357.62112,64,61,40
357.62335,357.72827,69,62,40
357.7305,357.83542,73,63,40
357.83765,357.94257,76,64,40
357.9448,358.0497,81,65,40
358.1591,358.26398,59,67,40
358.2662,358.37112,62,68,40
358.37335,358.47827,68,69,40
358.4805,358.58542,71,70,40
358.58765,358.69257,74,71,40
358.6948,358.7997,80,72,40
358.80194,358.90683,83,74,40
359.0162,359.12112,61,78,40
359.12335,359.22827,64,80,40
359.2305,359.33542,68,82,40
359.33765,359.44257,73,84,40
359.4448,359.54968,76,86,40
359.55194,359.65683,79,88,40
359.65906,359.76398,85,90,40
359.87335,359.97827,62,94,40
359.9805,360.08542,65,96,40
360.08765,360.19257,69,98,40
360.1948,360.29968,74,100,40
360.30194,360.40683,77,102,40
360.40906,360.51398,81,104,40
360.5162,360.62112,86,106,40
360.62335,360.72827,88,108,40
360.7305,360.83542,91,108,40
360.83765,360.94254,88,108,40
360.9448,361.04968,86,108,40
361.0519,361.15683,85,108,40
361.15906,361.26398,88,108,40
361.2662,361.37112,82,108,40
361.37335,361.47827,81,108,40
361.4805,361.58542,79,108,40
361.58765,361.69254,82,108,40
361.6948,361.79968,79,108,40
361.8019,361.90683,77,108,40
361.90906,362.01398,76,108,40
362.0162,362.12112,79,108,40
362.12335,362.22827,76,108,40
362.2305,362.3354,74,108,40
362.33765,362.44254,73,108,40
362.44476,362.54968,76,108,40
362.5519,362.65683,70,108,40
362.65906,362.76398,69,108,40
362.7662,362.87192,67,108,40
362.8742,362.98233,85,60,40
362.98468,363.09537,79,60,40
363.09775,363.2111,77,60,40
363.21353,363.32968,76,60,40
363.33218,363.4513,79,59,40
363.45386,363.57605,76,57,40
363.57867,363.70413,74,55,40
363.70682,363.83572,73,53,40
363.83853,363.97107,79,51,40
363.97394,364.11032,76,49,40
364.11325,364.25372,74,47,40
364.25674,366.46115,73,45,40
371.34448,371.58447,62,60,40
371.58447,371.64447,61,60,40
371.82446,371.88446,57,60,40
372.06448,372.12448,57,60,40
372.30447,372.54446,61,60,40
372.54446,372.60446,62,60,40
372.7845,372.84448,57,62,40
373.02448,373.08447,57,64,40
373.26447,373.32446,62,66,40
373.5045,373.56448,62,68,40
373.74448,373.80447,57,70,40
373.98447,374.04446,57,72,40
374.2245,374.2845,62,75,40
374.46448,374.6645,64,60,40
375.42447,375.62448,55,60,40
375.42447,375.62448,64,60,40
376.38446,376.58447,57,60,40
376.38446,376.58447,65,60,40
379.98447,380.2245,74,45,40
380.2245,380.88446,75,45,40
380.9445,381.18448,74,45,40
381.18448,381.84448,75,45,40
381.90448,382.14447,76,45,40
382.14447,382.80447,77,45,40
382.86447,383.10446,76,53,40
383.10446,383.76447,77,56,40
383.82446,384.06448,76,65,40
384.06448,384.7245,77,68,40
384.7845,385.02448,76,77,40
385.02448,385.2245,77,80,40
385.26447,385.5045,76,83,40
385.5045,385.70447,77,86,40
385.74448,385.98447,76,89,40
385.98447,386.64447,77,92,40
386.70447,386.75806,69,60,40
386.91876,386.97232,68,60,40
387.13306,387.1866,64,60,40
387.34732,387.4009,64,60,40
387.5616,387.61517,68,60,40
387.7759,387.82947,69,60,40
387.99017,388.04376,64,60,40
388.20447,388.25803,64,60,40
388.41876,388.47232,69,60,40
388.63303,388.6866,71,60,40
388.84732,388.9009,64,60,40
389.0616,389.11517,64,60,40
389.2759,389.32947,71,60,40
389.49017,389.54376,72,60,40
389.70447,389.75803,69,61,40
389.91876,389.97232,69,62,40
390.13303,390.1866,72,63,40
390.34732,390.40088,72,64,40
390.5616,390.61517,69,65,40
390.77588,390.82947,69,66,40
390.99017,391.04373,72,67,40
391.20447,391.90088,74,68,40
391.95447,392.1503,55,72,40
391.95447,392.1503,62,72,40
392.15445,392.8509,71,72,40
392.15445,392.8509,79,72,40
392.90445,393.10028,60,76,40
392.90445,393.10028,67,76,40
393.10446,393.90802,72,76,40
393.10446,394.76517,76,76,40
396.53302,397.22943,76,96,40
397.28302,397.47885,57,101,40
397.28302,397.47885,64,101,40
397.483,398.2866,73,101,40
397.483,398.2866,81,101,40
398.34015,398.51874,62,108,40
398.34015,398.51874,69,108,40
398.34015,398.51874,77,108,40
400.05444,400.858,83,108,40
400.91156,401.71515,76,108,40
400.91156,401.71515,88,108,40
401.7687,401.9473,84,108,40
402.1973,403.00085,93,108,40
403.0544,403.69727,93,108,40
403.69727,403.75085,88,108,40
403.91156,403.96512,84,108,40
404.12585,404.1794,84,108,40
404.34012,404.5544,88,108,40
404.5544,404.608,86,108,40
404.7687,404.82227,83,108,40
404.983,405.03656,83,108,40
405.19727,405.3022,81,108,40
405.3044,405.40933,69,60,40
405.41156,405.51648,68,60,40
405.5187,405.6236,69,60,40
405.62585,405.73074,57,60,40
405.73297,405.8379,69,60,40
405.84012,405.94504,59,60,40
405.94727,406.0522,69,60,40
406.0544,406.15933,60,60,40
406.16156,406.26648,69,60,40
406.2687,406.3736,62,60,40
406.37585,406.48074,69,60,40
406.48297,406.5879,60,60,40
406.59012,406.69504,69,60,40
406.69727,406.8022,59,60,40
406.8044,406.90933,69,60,40
406.91156,407.09012,57,60,40
408.62582,408.73074,64,60,40
408.73297,408.8379,76,60,40
408.84012,408.94504,75,60,40
408.94727,409.0522,76,60,40
409.0544,409.1593,64,60,40
409.16153,409.26645,76,60,40
409.26868,409.3736,66,60,40
409.37582,409.48074,76,60,40
409.48297,409.5879,68,60,40
409.59012,409.69504,76,60,40
409.69727,409.80215,69,60,40
409.8044,409.9093,76,60,40
409.91153,410.01645,71,60,40
410.01868,410.1236,76,60,40
410.12582,410.23074,68,60,40
410.23297,410.3379,76,60,40
410.34012,410.51868,64,60,40
410.55438,410.92938,64,60,40
410.98297,411.37582,64,60,40
411.41153,411.78653,64,60,40
411.84012,412.01868,64,60,40
412.05438,412.1593,69,60,40
412.16153,412.26645,57,60,40
412.26868,412.3736,60,60,40
412.37582,412.48074,57,60,40
412.48297,412.58786,60,60,40
412.59012,412.695,57,60,40
412.69724,412.80215,60,60,40
412.80438,412.9093,57,60,40
412.91153,413.01645,60,60,40
413.01868,413.1236,57,60,40
413.12582,413.2307,60,60,40
413.23297,413.33786,57,60,40
413.3401,413.445,60,60,40
413.44724,413.55215,57,60,40
413.55438,413.6593,60,60,40
413.66153,413.76645,57,60,40
413.76868,413.8736,69,60,40
413.87582,413.9807,81,60,40
413.98297,414.08786,80,60,40
414.0901,414.195,81,60,40
414.19724,414.30215,69,60,40
414.30438,414.4093,81,60,40
414.41153,414.51645,71,60,40
414.51868,414.62357,81,60,40
414.62582,414.7307,72,60,40
414.73294,414.83786,81,60,40
414.8401,414.945,71,60,40
414.94724,415.05215,81,60,40
415.05438,415.1593,72,60,40
415.16153,415.26645,81,60,40
415.26868,415.37357,69,60,40
415.37582,415.4807,81,60,40
415.48294,415.58786,64,60,40
415.5901,415.695,56,60,40
415.69724,415.80215,59,60,40
415.80438,415.9093,56,60,40
415.91153,416.01642,59,60,40
416.01868,416.12357,56,60,40
416.1258,416.2307,59,60,40
416.23294,416.33786,56,60,40
416.3401,416.445,59,60,40
416.44724,416.55215,56,60,40
416.55438,416.6593,59,60,40
416.66153,416.76642,56,60,40
416.76868,416.87357,59,60,40
416.8758,416.9807,56,60,40
416.98294,417.08786,59,60,40
417.0901,417.195,56,60,40
417.19724,417.30215,64,60,40
417.30438,417.40927,76,62,40
417.41153,417.51642,75,64,40
417.51865,417.62357,76,66,40
417.6258,417.7307,64,68,40
417.73294,417.83786,76,70,40
417.8401,417.945,65,72,40
417.94724,418.05215,77,74,40
418.05438,418.15927,64,76,40
418.16153,418.26642,76,78,40
418.26865,418.37357,62,80,40
418.3758,418.4807,74,82,40
418.48294,418.58786,60,84,40
418.5901,418.695,72,86,40
418.69724,418.80212,59,88,40
418.80438,418.90927,71,90,40
418.9115,419.0901,57,92,40
419.3401,419.51865,69,92,40
419.3401,419.51865,72,92,40
419.3401,419.51865,76,92,40
420.19724,420.3758,69,92,40
420.19724,420.3758,72,92,40
420.19724,420.3758,77,92,40
420.6258,420.80435,67,92,40
420.6258,420.80435,74,92,40
420.6258,420.80435,77,92,40
421.05435,421.23294,67,92,40
421.05435,421.23294,77,92,40
421.05435,421.23294,86,92,40
422.1258,422.34006,71,92,40
422.34006,422.51865,72,92,40
422.76865,422.9472,64,92,40
422.76865,422.9472,72,92,40
422.76865,422.9472,79,92,40
423.6258,423.80435,79,92,40
423.6258,423.80435,69,92,40
423.6258,423.80435,64,92,40
424.05435,424.2329,62,92,40
424.05435,424.2329,69,92,40
424.05435,424.2329,77,92,40
424.4829,424.6615,63,92,40
424.4829,424.6615,71,92,40
424.4829,424.6615,81,92,40
424.9115,425.09006,64,92,40
424.9115,425.09006,71,92,40
424.9115,425.09006,79,92,40
425.34006,425.51865,64,92,40
425.34006,425.51865,72,92,40
425.34006,425.51865,82,92,40
425.76865,425.9472,65,92,40
425.76865,425.9472,72,92,40
425.76865,425.9472,81,92,40
426.1972,426.37576,66,92,40
426.1972,426.37576,74,92,40
426.1972,426.37576,84,92,40
426.62576,426.80435,67,92,40
426.62576,426.80435,74,92,40
426.62576,426.80435,83,92,40
427.05435,427.1079,76,92,40
427.05435,427.1079,88,92,40
427.26862,427.3222,76,92,40
427.26862,427.3222,88,92,40
427.4829,427.53647,76,92,40
427.4829,427.53647,88,92,40
427.6972,427.75076,76,92,40
427.6972,427.75076,88,92,40
427.91147,427.96506,76,92,40
427.91147,427.96506,88,92,40
428.12576,428.17935,76,92,40
428.12576,428.17935,88,92,40
428.34006,428.55435,76,92,40
428.34006,428.55435,88,92,40
428.55435,428.66147,86,92,40
428.66147,428.7664,84,92,40
428.76862,428.8222,83,92,40
428.9829,429.03647,81,92,40
429.1972,429.37576,80,92,40
429.62576,431.09006,92,92,40
431.34003,431.3914,92,92,40
431.39362,431.44495,93,92,40
431.44717,431.49854,92,92,40
431.50076,431.5521,93,92,40
431.55432,431.60565,92,92,40
431.6079,431.65924,93,92,40
431.66147,431.7128,90,92,40
431.71503,431.7664,92,92,40
431.76862,431.94717,93,92,40
432.19717,432.24854,93,92,40
432.25076,432.3021,95,92,40
432.30432,432.35565,93,92,40
432.3579,432.40924,95,92,40
432.41147,432.4628,93,92,40
432.46503,432.5164,95,92,40
432.51862,432.56995,92,92,40
432.57217,432.62354,93,92,40
432.62576,432.80432,92,92,40
433.05432,434.51862,80,92,40
434.76862,434.81995,80,92,40
434.82217,434.8735,81,92,40
434.87573,434.9271,80,92,40
434.92932,434.98065,81,92,40
434.98288,435.03424,80,92,40
435.03647,435.0878,81,92,40
435.09003,435.14136,78,92,40
435.14362,435.19495,80,92,40
435.19717,435.37573,81,92,40
435.62573,435.6771,81,92,40
435.67932,435.73065,83,92,40
435.73288,435.7842,81,92,40
435.78647,435.8378,83,92,40
435.84003,435.89136,81,92,40
435.8936,435.94495,83,92,40
435.94717,435.9985,80,92,40
436.00073,436.0521,81,92,40
436.05432,436.1592,80,92,40
436.16147,436.26636,68,92,40
436.2686,436.3735,66,92,40
436.37573,436.48065,64,92,40
436.48288,436.5878,75,92,40
436.59003,436.69495,69,92,40
436.69717,436.80206,68,92,40
436.80432,436.9092,66,92,40
436.91144,437.01636,76,92,40
437.0186,437.1235,68,92,40
437.12573,437.23065,66,92,40
437.23288,437.3378,64,92,40
437.34003,437.44495,75,92,40
437.44717,437.55206,69,92,40
437.55432,437.6592,68,92,40
437.66144,437.76636,66,92,40
437.7686,437.8735,76,92,40
437.87573,437.98065,68,92,40
437.98288,438.0878,66,92,40
438.09003,438.19492,64,92,40
438.19717,438.30206,75,92,40
438.3043,438.4092,69,92,40
438.41144,438.51636,68,92,40
438.5186,438.6235,66,92,40
438.62573,438.73065,76,92,40
438.73288,438.8378,68,92,40
438.84003,438.94492,66,92,40
438.94717,439.05206,64,92,40
439.0543,439.1592,75,92,40
439.16144,439.26636,69,92,40
439.2686,439.3735,68,92,40
439.37573,439.48065,66,92,40
439.48288,439.58777,76,92,40
439.59003,439.69492,68,92,40
439.69714,439.80206,66,92,40
439.8043,439.9092,64,92,40
439.91144,440.01636,76,92,40
440.0186,440.1235,68,92,40
440.12573,440.23065,66,92,40
440.23288,440.33777,64,92,40
440.34003,440.44492,76,92,40
440.44714,440.55206,68,92,40
440.5543,440.6592,66,92,40
440.66144,440.76636,64,92,40
440.7686,440.8735,76,92,40
440.87573,440.98062,68,92,40
440.98288,441.08777,66,92,40
441.09,441.19492,64,92,40
441.19714,441.30206,76,92,40
441.3043,441.4092,68,92,40
441.41144,441.51636,66,92,40
441.5186,441.6235,64,92,40
441.62573,441.73062,76,92,40
441.73288,441.83777,68,92,40
441.84,441.94492,66,92,40
441.94714,442.05206,64,92,40
442.0543,442.1592,76,92,40
442.16144,442.26636,68,92,40
442.2686,442.37347,66,92,40
442.37573,442.48062,64,92,40
442.48285,442.58777,76,92,40
442.59,442.69492,68,92,40
442.69714,442.80206,66,92,40
442.8043,442.9092,64,92,40
442.91144,443.91144,76,92,40
443.91144,444.84894,74,76,40
444.91144,445.91144,73,60,40
445.91144,446.91144,74,60,40
446.91144,447.91144,73,60,40
447.91144,448.84894,71,60,40
448.91144,449.41144,73,60,40
449.41144,449.53644,74,60,40
449.53644,449.66144,73,60,40
449.66144,449.78644,71,60,40
449.78644,449.91144,73,60,40
449.91144,450.41144,76,60,40
450.41144,450.91144,74,60,40
450.91144,451.91144,73,60,40
451.91144,452.84894,71,60,40
452.91144,453.91144,73,60,40
453.91144,454.16144,76,60,40
454.16144,454.41144,74,60,40
454.41144,454.84894,73,60,40
454.91144,455.84894,71,60,40
455.91144,456.84894,71,60,40
456.91144,457.84894,71,60,40
457.91144,458.84894,71,60,40
458.91144,459.11975,71,60,40
460.91144,463.34894,69,60,40
463.41144,463.91144,69,60,40
463.91144,464.11975,81,60,40
464.41144,464.61975,81,60,40
464.91144,465.41144,81,60,40
465.41144,467.34894,69,60,40
467.41144,467.84894,69,60,40
467.91144,468.11975,81,60,40
468.41144,468.61975,81,60,40
468.91144,470.91144,81,60,40
470.91144,472.28644,79,60,40
472.41144,472.6257,67,60,40
472.6257,473.2686,79,60,40
473.2686,473.44714,74,60,40
473.48285,473.66144,76,60,40
474.1257,474.23062,64,108,40
474.23285,474.33777,64,108,40
474.34,474.44492,59,108,40
474.44714,474.55206,59,108,40
474.5543,474.65918,60,108,40
474.66144,474.76633,60,108,40
474.76855,474.87347,62,108,40
474.8757,474.98062,62,108,40
474.98285,475.08777,59,108,40
475.09,475.19492,59,108,40
475.19714,475.3757,64,108,40
475.84,476.0543,64,60,40
476.0543,476.69714,76,60,40
476.69714,476.8757,71,60,40
476.9114,477.09,72,60,40
477.55426,477.65918,60,108,40
477.6614,477.76633,60,108,40
477.76855,477.87347,56,108,40
477.8757,477.98062,56,108,40
477.98285,478.08774,57,108,40
478.09,478.1949,57,108,40
478.1971,478.30203,59,108,40
478.30426,478.40918,59,108,40
478.4114,478.51633,56,108,40
478.51855,478.62347,56,108,40
478.6257,478.80426,60,108,40
479.26855,479.37347,72,108,40
479.3757,479.4806,72,108,40
479.48285,479.58774,68,108,40
479.58997,479.6949,68,108,40
479.6971,479.80203,69,108,40
479.80426,479.90918,69,108,40
479.9114,480.01633,71,108,40
480.01855,480.12347,71,108,40
480.1257,480.2306,68,108,40
480.23285,480.33774,68,108,40
480.33997,480.4449,72,108,40
480.4471,480.55203,72,108,40
480.55426,480.65918,74,108,40
480.6614,480.76633,74,108,40
480.76855,480.87344,76,108,40
480.8757,480.9806,76,108,40
480.98282,481.08774,72,108,40
481.08997,481.1949,72,108,40
481.1971,481.30203,68,108,40
481.30426,481.40918,68,108,40
481.4114,481.51633,69,108,40
481.51855,481.62344,69,108,40
481.6257,481.7306,71,108,40
481.73282,481.83774,71,108,40
481.83997,481.9449,68,108,40
481.9471,482.05203,68,108,40
482.05426,482.23282,72,108,40
482.48282,483.2864,81,108,40
483.33997,484.14352,81,108,40
484.1971,484.80426,81,108,40
484.83997,484.89352,89,108,40
485.05426,485.10782,88,108,40
485.26852,485.3221,86,108,40
485.48282,485.58774,84,108,40
485.58997,485.69485,84,108,40
485.6971,485.802,86,108,40
485.80423,485.90915,86,108,40
485.91138,486.0163,88,108,40
486.01852,486.12344,88,108,40
486.12567,486.2306,84,108,40
486.23282,486.33774,84,108,40
486.33997,486.44485,86,108,40
486.4471,486.552,86,108,40
486.55423,486.65915,88,108,40
486.66138,486.7663,88,108,40
486.76852,486.87344,89,108,40
486.87567,486.9806,89,108,40
486.98282,487.0877,86,108,40
487.08997,487.19485,86,108,40
487.19708,487.302,88,108,40
487.30423,487.40915,88,108,40
487.41138,487.5163,89,108,40
487.51852,487.62344,89,108,40
487.62567,487.7306,91,108,40
487.73282,487.8377,91,108,40
487.83997,487.94485,93,108,40
487.94708,488.052,93,108,40
488.05423,488.15915,94,108,40
488.16138,488.2663,94,108,40
488.26852,488.37344,91,108,40
488.37567,488.48056,91,108,40
488.48282,488.5877,88,108,40
488.58994,488.69485,88,108,40
488.69708,488.802,91,108,40
488.80423,488.90915,91,108,40
488.91138,489.0163,94,108,40
489.01852,489.12344,94,108,40
489.12567,489.23056,91,108,40
489.23282,489.3377,91,108,40
489.33994,489.44485,88,108,40
489.44708,489.552,88,108,40
489.55423,489.65915,91,108,40
489.66138,489.7663,91,108,40
489.76852,489.8734,94,108,40
489.87567,489.98056,94,108,40
489.9828,490.0877,91,108,40
490.08994,490.19485,91,108,40
490.19708,490.302,89,108,40
490.30423,490.40915,89,108,40
490.41138,490.5163,88,108,40
490.51852,490.6234,88,108,40
491.91138,492.01627,88,108,40
492.01852,492.1234,88,108,40
492.12564,492.23056,88,108,40
492.2328,492.3377,88,108,40
492.33994,492.44485,89,108,40
492.44708,492.552,89,108,40
492.55423,492.65912,86,108,40
492.66138,492.76627,86,108,40
492.7685,492.8734,84,108,40
492.87564,492.98056,84,108,40
492.9828,493.0877,83,108,40
493.08994,493.19485,83,108,40
493.19708,493.302,86,108,40
493.30423,493.40912,86,108,40
493.41138,493.51627,83,108,40
493.5185,493.6234,83,108,40
493.62564,493.73056,81,108,40
493.7328,493.8377,81,108,40
493.83994,493.94485,80,108,40
493.94708,494.05197,80,108,40
494.05423,494.15912,81,108,40
494.16135,494.26627,81,108,40
494.2685,494.3734,77,108,40
494.37564,494.48056,77,108,40
494.4828,494.5877,76,108,40
494.58994,494.69485,76,108,40
494.69708,494.80197,75,108,40
494.80423,494.90912,75,108,40
494.91135,495.01627,76,108,40
495.0185,495.1234,76,108,40
495.12564,495.23056,75,108,40
495.2328,495.3377,75,108,40
495.33994,495.44482,76,108,40
495.44708,495.55197,76,108,40
495.5542,495.65912,76,108,40
495.66135,495.76627,76,108,40
495.7685,495.94708,69,108,40
505.94702,506.05417,80,108,40
506.05417,506.76846,81,108,40
506.80417,506.91132,80,108,40
506.91132,507.6256,81,108,40
507.66132,507.76846,80,108,40
507.76846,508.48273,81,108,40
508.51846,508.6256,83,108,40
508.6256,508.80417,84,108,40
508.94702,509.05417,87,108,40
509.05417,509.23273,88,108,40
509.37558,509.48273,92,108,40
509.48273,510.28632,93,108,40
510.33987,510.55417,91,108,40
510.55417,510.60773,90,108,40
510.76843,510.82202,88,108,40
510.98273,511.03632,90,108,40
511.19702,511.57202,91,108,40
511.62558,512.0006,86,108,40
512.05414,512.2327,88,108,40
512.26843,512.33765,89,108,40
512.33984,512.40906,88,108,40
512.4113,512.48047,89,108,40
512.4827,512.55194,88,108,40
512.55414,512.62335,89,108,40
512.6256,512.69476,88,108,40
512.697,512.80194,86,108,40
512.80414,512.90906,88,108,40
512.9113,513.71484,89,108,40
513.76843,513.9827,88,108,40
513.9827,514.0363,86,108,40
514.197,514.25055,84,108,40
514.4113,514.46484,86,108,40
514.62555,515.00055,88,108,40
515.05414,515.42914,81,108,40
515.4827,515.8577,83,108,40
515.9113,516.2863,76,108,40
516.33984,517.41125,88,108,40
517.41125,517.46484,86,108,40
517.62555,517.67914,84,108,40
517.83984,517.89343,86,108,40
518.05414,518.42914,88,108,40
518.4827,518.8577,81,108,40
518.91125,519.28625,83,108,40
519.33984,519.71484,76,108,40
519.76843,519.87335,88,108,40
519.87555,519.98047,93,108,40
519.9827,520.0876,93,108,40
520.08984,520.19476,93,108,40
520.19696,520.3019,93,108,40
520.30414,520.40906,93,108,40
520.41125,520.5162,93,108,40
520.51843,520.62335,93,108,40
520.62555,520.73047,93,108,40
520.7327,520.8376,93,108,40
520.83984,520.94476,93,108,40
520.94696,521.0519,93,108,40
521.05414,521.15906,93,108,40
521.16125,521.2662,93,108,40
521.26843,521.37335,93,108,40
521.37555,521.48047,93,108,40
521.4827,521.5876,93,108,40
521.58984,521.69476,93,108,40
521.69696,521.8019,96,108,40
521.80414,521.90906,96,108,40
521.91125,522.0162,93,108,40
522.01843,522.1233,93,108,40
522.12555,522.23047,96,108,40
522.23267,522.3376,96,108,40
522.33984,522.44476,92,108,40
522.44696,522.5519,92,108,40
522.55414,522.65906,95,108,40
522.66125,522.7662,95,108,40
522.76843,522.8733,92,108,40
522.87555,522.98047,92,108,40
522.98267,523.0876,92,108,40
523.08984,523.19476,92,108,40
523.19696,523.37555,93,108,40
524.05414,524.23267,64,108,40
524.05414,524.23267,72,108,40
524.05414,524.23267,81,108,40
524.91125,525.0162,64,108,40
524.91125,525.0162,71,108,40
524.91125,525.0162,80,108,40
525.0184,525.1233,83,108,40
525.12555,525.23047,82,108,40
525.23267,525.3376,83,108,40
525.33984,525.44476,80,108,40
525.44696,525.5519,83,108,40
525.55414,525.659,77,108,40
525.66125,525.7662,83,108,40
525.7684,525.8733,76,108,40
525.87555,525.98047,80,108,40
525.98267,526.0876,74,108,40
526.08984,526.19476,80,108,40
526.19696,526.3019,72,108,40
526.30414,526.409,80,108,40
526.41125,526.5162,71,108,40
526.5184,526.6233,80,108,40
526.62555,526.80414,69,108,40
527.48267,527.66125,64,108,40
527.48267,527.66125,72,108,40
527.48267,527.66125,81,108,40
528.33984,528.4447,64,108,40
528.33984,528.4447,71,108,40
528.33984,528.4447,80,108,40
528.44696,528.5519,83,108,40
528.5541,528.659,82,108,40
528.66125,528.7662,83,108,40
528.7684,528.8733,80,108,40
528.87555,528.98047,83,108,40
528.98267,529.0876,77,108,40
529.08984,529.1947,80,108,40
529.19696,529.3019,76,108,40
529.3041,529.409,80,108,40
529.41125,529.5162,74,108,40
529.5184,529.6233,80,108,40
529.62555,529.7304,72,108,40
529.73267,529.8376,80,108,40
529.8398,529.9447,71,108,40
529.94696,530.0519,80,108,40
530.0541,530.159,69,108,40
530.16125,530.2662,81,108,40
530.2684,530.3733,69,108,40
530.37555,530.4804,71,108,40
530.48267,530.5876,72,108,40
530.5898,530.6947,71,108,40
530.69696,530.8019,72,108,40
530.8041,530.909,69,108,40
530.91125,531.0162,68,108,40
531.0184,531.1233,69,108,40
531.12555,531.2304,64,108,40
531.23267,531.3376,68,108,40
531.3398,531.4447,71,108,40
531.44696,531.5519,76,108,40
531.5541,531.659,74,108,40
531.66125,531.7662,71,108,40
531.7684,531.8733,69,108,40
531.87555,531.9804,81,108,40
531.98267,532.0876,69,108,40
532.0898,532.1947,71,108,40
532.19696,532.3019,72,108,40
532.3041,532.409,71,108,40
532.41125,532.5161,72,108,40
532.5184,532.6233,69,108,40
532.6255,532.7304,68,108,40
532.73267,532.8376,69,108,40
532.8398,532.9447,64,108,40
532.94696,533.0519,68,108,40
533.0541,533.159,71,108,40
533.16125,533.2661,76,108,40
533.2684,533.3733,74,108,40
533.3755,533.4804,71,108,40
533.48267,533.5876,69,108,40
533.5898,533.6947,81,108,40
533.69696,533.8019,69,108,40
533.8041,533.909,71,108,40
533.91125,534.0161,72,108,40
534.0184,534.1233,71,108,40
534.1255,534.2304,72,108,40
534.23267,534.3376,69,108,40
534.3398,534.4447,70,108,40
534.44696,534.5519,67,108,40
534.5541,534.659,64,108,40
534.66125,534.7661,60,108,40
534.7684,534.8733,58,108,40
534.8755,534.9804,55,108,40
534.98267,535.0876,60,108,40
535.0898,535.1947,58,108,40
535.19696,535.3018,57,108,40
535.3041,535.409,69,108,40
535.4112,535.5161,65,108,40
535.5184,535.6233,67,108,40
535.6255,535.7304,69,108,40
535.73267,535.8376,67,108,40
535.8398,535.9447,69,108,40
535.94696,536.0518,65,108,40
536.0541,536.159,67,108,40
536.1612,536.2661,64,108,40
536.2684,536.3733,61,108,40
536.3755,536.4804,57,108,40
536.48267,536.5876,67,108,40
536.5898,536.6947,64,108,40
536.69696,536.8018,69,108,40
536.8041,536.909,67,108,40
536.9112,537.0161,65,108,40
537.0184,537.1233,77,108,40
537.1255,537.2304,74,108,40
537.23267,537.3375,76,108,40
537.3398,537.4447,77,108,40
537.4469,537.5518,76,108,40
537.5541,537.659,77,108,40
537.6612,537.7661,74,108,40
537.7684,537.8733,75,108,40
537.8755,537.9804,72,108,40
537.98267,538.0875,69,108,40
538.0898,538.1947,65,108,40
538.1969,538.3018,63,108,40
538.3041,538.409,65,108,40
538.4112,538.5161,63,108,40
538.5184,538.6233,60,108,40
538.6255,538.7304,57,108,40
538.73267,538.8375,65,108,40
538.8398,538.9447,63,108,40
538.9469,539.0518,60,108,40
539.0541,539.159,57,108,40
539.1612,539.2661,65,108,40
539.2684,539.3733,63,108,40
539.3755,539.4804,60,108,40
539.48267,539.5875,57,108,40
539.5898,539.6947,65,108,40
539.6969,539.8018,63,108,40
539.8041,539.909,60,108,40
539.9112,540.0161,57,108,40
540.0184,540.1232,60,108,40
540.1255,540.2304,63,108,40
540.2326,540.3375,69,108,40
540.3398,544.1433,70,108,40
544.1969,547.6255,82,108,40
547.6255,549.2862,86,108,40
549.3397,551.0004,74,108,40
551.054,551.8576,86,108,40
551.9112,552.7147,74,108,40
552.7683,553.3754,74,108,40
553.41113,553.51605,68,108,40
553.5183,553.6232,69,108,40
553.6254,553.73035,71,108,40
553.7326,553.8375,72,108,40
553.8397,553.94464,74,108,40
553.9469,554.05176,76,108,40
554.054,554.6433,77,108,40
554.6969,554.8754,69,108,40
554.91113,554.9647,68,108,40
555.1254,555.179,64,108,40
555.3397,555.3933,64,108,40
555.554,555.6076,68,108,40
555.7683,555.82184,69,108,40
555.9826,556.03613,64,108,40
556.19684,556.2504,64,108,40
556.41113,556.4647,69,108,40
556.6254,556.679,71,108,40
556.8397,556.8933,64,108,40
557.054,557.1076,64,108,40
557.2683,557.32184,71,108,40
557.4826,557.53613,72,108,40
557.69684,557.7504,64,108,40
557.91113,557.9647,73,108,40
558.1254,558.179,64,108,40
558.3397,558.3933,74,108,40
558.554,558.60754,64,108,40
558.7683,558.82184,75,108,40
558.98254,559.03613,64,108,40
559.19684,559.2504,76,108,40
559.41113,559.4644,64,108,40
559.624,559.677,65,108,40
559.83545,559.8882,77,108,40
560.04553,560.098,78,108,40
560.2543,560.30634,66,108,40
560.4617,560.51337,67,108,40
560.66766,560.71906,79,108,40
560.87244,560.9234,80,108,40
561.07587,561.1265,68,108,40
561.278,561.3283,69,108,40
561.4789,561.5289,81,108,40
561.6785,561.7282,70,108,40
561.87695,561.9263,82,108,40
562.07416,562.12317,71,108,40
562.27014,562.31885,83,108,40
562.46497,562.5133,72,108,40
562.65906,562.708,84,108,40
562.8556,562.9051,73,108,40
563.05457,563.1046,85,108,40
563.256,563.30664,74,108,40
563.45996,563.51135,86,108,40
563.6666,563.7187,75,108,40
563.8759,563.9287,87,108,40
564.08795,564.14154,76,108,40
564.303,564.35724,88,108,40
564.52094,564.57587,77,108,40
564.7418,564.7975,89,108,40
564.9658,565.0222,74,108,40
565.193,565.25024,86,108,40
565.42346,565.48157,76,108,40
565.6572,565.7163,88,108,40
565.8945,566.79443,88,108,40
566.85443,567.75446,88,108,40
567.81445,568.29443,88,108,40
568.29443,568.5344,86,108,40
568.5344,568.73444,84,108,40
568.7745,569.25446,86,108,40
569.25446,569.49445,84,108,40
569.49445,569.69446,83,108,40
569.73444,570.2145,84,108,40
570.2145,570.45447,83,108,40
570.45447,570.6545,84,108,40
570.69446,570.8945,86,108,40
571.17444,571.37445,83,108,40
571.6545,572.13446,76,108,40
572.13446,572.37445,74,108,40
571.6545,572.55444,64,92,40
572.37445,572.57446,72,108,40
572.61444,573.0944,74,108,40
573.0944,573.3345,72,108,40
572.61444,573.51447,64,92,40
573.3345,573.5344,71,108,40
573.57446,574.05444,72,108,40
574.05444,574.29443,71,108,40
573.57446,574.4744,64,92,40
574.29443,574.49445,69,108,40
574.5344,575.01447,71,108,40
575.01447,575.25446,69,108,40
574.5344,575.43445,64,92,40
575.25446,575.45447,68,108,40
575.49445,576.1545,69,108,40
576.2145,576.4144,69,108,40
576.45447,576.6545,71,108,40
576.93445,577.13446,68,108,40
577.4144,577.5319,69,108,40
577.5344,577.652,57,60,40
577.6545,577.772,60,60,40
577.7745,577.89197,57,60,40
577.8945,578.01196,60,60,40
578.01447,578.13196,57,60,40
578.13446,578.25195,60,60,40
578.25446,578.37195,57,60,40
578.37445,578.49194,60,60,40
578.49445,578.61194,57,60,40
578.61444,578.73193,60,60,40
578.73444,578.8519,57,60,40
578.85443,578.9719,60,60,40
578.9744,579.092,57,60,40
579.0944,579.212,60,60,40
579.2145,579.332,57,60,40
579.3345,579.45197,60,60,40
579.45447,579.57196,57,60,40
579.57446,579.69196,60,60,40
579.69446,579.81195,57,60,40
579.81445,579.93195,60,60,40
579.93445,580.05194,57,60,40
580.05444,580.17194,60,60,40
580.17444,580.29193,57,60,40
580.29443,580.4119,60,60,40
580.4144,580.5319,57,60,40
580.5344,580.652,60,60,40
580.6545,580.772,57,60,40
580.7745,580.89197,60,60,40
580.8945,581.01196,57,60,40
581.01447,581.13196,60,60,40
581.13446,581.25195,57,60,40
581.25446,581.37195,60,60,40
581.37445,581.49194,57,60,40
581.49445,581.61194,60,60,40
581.61444,581.73193,57,60,40
581.73444,581.8519,60,60,40
581.85443,581.9719,57,60,40
581.9744,582.092,60,60,40
582.0944,582.212,57,60,40
582.2145,582.332,60,60,40
582.3345,582.45197,57,60,40
582.45447,582.57196,60,60,40
582.57446,582.69196,57,60,40
582.69446,582.81195,60,60,40
582.81445,582.93195,57,60,40
582.93445,583.05194,60,60,40
583.05444,583.17194,57,60,40
583.17444,583.29193,60,60,40
583.29443,583.4119,57,60,40
583.4144,583.5319,60,60,40
583.5344,583.652,57,60,40
583.6545,583.772,60,60,40
583.7745,583.89197,57,60,40
583.8945,584.01196,60,60,40
584.01447,584.13196,57,60,40
584.13446,584.25195,60,60,40
584.25446,584.37195,57,60,40
584.37445,584.49194,60,60,40
584.49445,584.61194,57,60,40
584.61444,584.73193,60,60,40
584.73444,584.8519,57,60,40
584.85443,584.9719,60,60,40
584.9744,585.092,57,60,40
585.0944,585.212,60,60,40
585.2145,585.332,57,60,40
585.3345,585.45197,60,60,40
585.45447,585.57196,57,60,40
585.57446,585.69196,60,60,40
585.69446,585.81195,57,60,40
585.81445,585.93195,60,60,40
585.93445,586.05194,57,60,40
586.05444,586.17194,60,60,40
586.17444,586.29193,57,60,40
586.29443,586.4119,60,60,40
586.4144,586.5319,57,60,40
586.5344,586.652,60,60,40
586.6545,586.772,57,60,40
586.7745,586.89197,60,60,40
586.8945,587.01196,57,60,40
587.01447,587.13196,60,60,40
587.13446,587.25195,57,60,40
587.25446,587.37195,60,59,40
587.37445,587.49194,57,58,40
587.49445,587.61194,60,57,40
587.61444,587.73193,57,56,40
587.73444,587.8519,60,55,40
587.85443,587.9719,57,54,40
587.9744,588.092,60,53,40
588.0944,588.212,57,52,40
588.2145,588.332,60,51,40
588.3345,588.45197,57,50,40
588.45447,588.57196,60,49,40
588.57446,588.69196,57,48,40
588.69446,588.81195,60,47,40
588.81445,588.93195,57,46,40
588.93445,589.13446,60,45,40
589.17444,589.37445,72,45,40
589.4144,589.61444,76,45,40
589.6545,589.85443,72,45,40
589.8945,590.0944,69,45,40
592.5344,593.0344,76,45,40
593.0344,595.0344,77,45,40
595.0344,597.0344,72,45,40
597.0344,600.4094,74,45,40
608.5344,609.0344,69,108,40
609.0344,609.1324,68,108,40
609.13446,609.23236,66,108,40
609.23444,609.3324,64,108,40
609.3345,609.4324,66,108,40
609.43445,609.53235,68,108,40
609.5344,609.6324,69,108,40
609.63446,609.73236,71,108,40
609.73444,609.8324,72,108,40
609.8345,609.9324,74,108,40
609.93445,610.03235,72,108,40
610.0344,610.1324,71,108,40
610.13446,610.23236,77,108,40
610.23444,610.3324,76,108,40
610.3345,610.4324,74,108,40
610.43445,610.53235,72,108,40
610.5344,610.6324,71,108,40
610.63446,610.80115,72,108,40
612.0344,612.23444,69,108,40
612.23444,612.3324,68,108,40
612.3345,612.4324,66,108,40
612.43445,612.53235,64,108,40
612.5344,612.6324,66,108,40
612.63446,612.73236,68,108,40
612.73444,612.8324,69,108,40
612.8345,612.9324,71,108,40
612.93445,613.03235,72,108,40
613.0344,613.1324,74,108,40
613.13446,613.23236,72,108,40
613.23444,613.3324,71,108,40
613.3345,613.4324,77,108,40
613.43445,613.53235,76,108,40
613.5344,613.6324,74,108,40
613.63446,613.73236,72,108,40
613.73444,613.8324,71,108,40
613.8345,614.0011,72,108,40
615.23444,615.43445,69,108,40
615.43445,615.53235,68,108,40
615.5344,615.6324,66,108,40
615.63446,615.73236,64,108,40
615.73444,615.8324,66,108,40
615.8345,615.9324,68,108,40
615.93445,616.03235,69,108,40
616.0344,616.1324,71,108,40
616.13446,616.23236,72,108,40
616.23444,616.3324,74,108,40
616.3345,616.4324,72,108,40
616.43445,616.53235,71,108,40
616.5344,616.6324,77,108,40
616.63446,616.73236,76,108,40
616.73444,616.8324,74,108,40
616.8345,616.9324,72,108,40
616.93445,617.03235,71,108,40
617.0344,617.1324,72,108,40
617.13446,617.23236,69,108,40
617.23444,617.3324,67,108,40
617.3345,617.4324,65,108,40
617.43445,617.53235,64,108,40
617.5344,617.6324,65,108,40
617.63446,617.73236,64,108,40
617.73444,617.8324,62,108,40
617.8345,617.9324,60,108,40
617.93445,618.03235,65,108,40
618.0344,618.1324,64,108,40
618.13446,618.23236,62,108,40
618.23444,618.3324,60,108,40
618.3345,618.4324,62,108,40
618.43445,618.53235,60,108,40
618.5344,618.6324,59,108,40
618.63446,618.80115,57,108,40
619.43445,619.60114,64,108,40
619.43445,619.60114,72,108,40
619.43445,619.60114,81,108,40
619.8345,620.0011,64,108,40
619.8345,620.0011,72,108,40
619.8345,620.0011,81,108,40
620.23444,620.4011,64,108,40
620.23444,620.4011,72,108,40
620.23444,620.4011,81,108,40
621.0344,621.23444,64,108,40
621.0344,621.23444,71,108,40
621.0344,621.23444,76,108,40
621.99445,622.32776,57,108,40
621.99445,622.32776,64,108,40
621.99445,622.32776,69,108,40
24.0,25.5,69,92,0
24.0,25.5,73,92,0
24.0,25.5,76,92,0
24.0,25.5,81,92,0
24.0,25.5,33,92,0
24.0,25.5,45,92,0
25.5,27.0,65,60,0
25.5,27.0,69,60,0
25.5,27.0,74,60,0
25.5,27.0,77,60,0
25.5,27.0,38,60,0
25.5,27.0,50,60,0
27.0,28.25,62,60,0
27.0,28.25,69,60,0
27.0,28.25,74,60,0
27.0,28.25,41,60,0
27.0,28.25,53,60,0
28.5,29.75,71,60,0
28.5,29.75,69,45,0
28.5,30.5,40,60,0
28.5,30.734375,62,45,0
28.5,31.125,52,45,0
30.75,31.484375,59,45,0
30.0,32.0,68,60,0
30.0,32.0,76,60,0
31.5,32.234375,64,45,0
31.5,32.75,52,60,0
32.25,32.984375,68,60,0
32.25,32.984375,62,45,0
33.0,34.109375,60,45,0
33.0,34.25,69,60,0
34.125,34.484375,59,45,0
34.5,35.234375,57,45,0
33.0,35.625,53,60,0
34.5,35.75,62,60,0
34.5,35.75,74,60,0
35.25,35.984375,57,45,0
36.0,36.734375,59,45,0
36.0,37.25,62,60,0
36.0,37.25,74,60,0
36.0,37.25,54,60,0
36.75,37.484375,60,45,0
37.5,38.75,66,60,0
37.5,38.75,69,60,0
37.5,39.0,60,45,0
37.5,39.5,55,60,0
37.5,39.734375,62,60,0
37.5,39.734375,74,60,0
39.0,39.734375,67,60,0
39.0,39.734375,59,45,0
43.5,44.75,60,60,0
43.5,44.75,64,60,0
43.5,45.0,67,60,0
43.5,45.0,76,60,0
45.0,46.25,69,60,0
45.0,46.25,76,60,0
45.0,46.25,60,60,0
45.0,46.25,64,60,0
46.5,48.0,76,60,0
46.5,48.5,69,45,0
46.5,48.5,59,60,0
46.5,48.5,66,60,0
48.0,48.734375,75,60,0
52.5,53.75,59,60,0
52.5,53.75,62,60,0
52.5,53.75,68,60,0
52.5,53.75,40,60,0
54.0,55.5,59,60,0
54.0,55.5,40,60,0
55.5,56.75,41,60,0
54.0,57.0,60,60,0
54.0,57.0,68,60,0
55.5,58.25,57,60,0
57.0,58.25,60,60,0
57.0,58.25,69,60,0
57.0,58.5,29,60,0
57.0,58.5,41,60,0
58.5,59.75,57,60,0
58.5,59.75,60,60,0
58.5,59.75,62,60,0
58.5,59.75,30,60,0
58.5,59.75,42,60,0
60.0,61.25,55,60,0
60.0,61.25,59,60,0
60.0,61.25,62,60,0
60.0,61.25,31,60,0
60.0,61.25,43,60,0
62.625,63.0,64,60,0
62.625,63.0,55,60,0
62.625,63.0,58,60,0
63.0,63.359375,66,60,0
63.0,63.359375,54,60,0
63.0,63.359375,57,60,0
64.125,64.484375,63,60,0
64.125,64.5,54,60,0
64.125,64.5,57,60,0
64.5,65.234375,62,60,0
64.5,65.234375,55,60,0
64.5,65.234375,59,60,0
65.625,66.0,67,60,0
66.0,66.359375,79,60,0
67.125,67.5,64,60,0
67.125,67.5,55,60,0
67.125,67.5,58,60,0
67.5,67.859375,66,60,0
67.5,67.859375,54,60,0
67.5,67.859375,57,60,0
68.625,69.0,63,60,0
68.625,69.0,54,60,0
68.625,69.0,57,60,0
69.0,69.734375,62,60,0
69.0,69.734375,55,60,0
69.0,69.734375,58,60,0
70.125,70.5,67,60,0
70.5,70.859375,79,60,0
71.625,72.0,64,60,0
71.625,72.0,55,60,0
71.625,72.0,58,60,0
72.0,72.359375,65,60,0
72.0,72.359375,53,60,0
72.0,72.359375,57,60,0
73.125,73.5,64,60,0
73.125,73.5,67,60,0
73.125,73.5,49,60,0
73.125,73.5,57,60,0
73.5,74.234375,62,60,0
73.5,74.234375,65,60,0
73.5,74.234375,50,60,0
73.5,74.234375,57,60,0
74.625,74.984375,69,60,0
75.0,75.359375,81,60,0
76.125,76.5,64,60,0
76.125,76.5,67,60,0
76.125,76.5,49,60,0
76.125,76.5,57,60,0
76.5,76.859375,62,60,0
76.5,76.859375,65,60,0
76.5,76.859375,50,60,0
76.5,76.859375,57,60,0
76.875,77.25,64,60,0
76.875,77.25,67,60,0
76.875,77.25,49,60,0
76.875,77.25,57,60,0
77.25,77.609375,62,60,0
77.25,77.609375,65,60,0
77.25,77.609375,50,60,0
77.25,77.609375,57,60,0
77.625,78.0,64,60,0
77.625,78.0,67,60,0
77.625,78.0,49,60,0
77.625,78.0,57,60,0
78.0,78.734375,62,60,0
78.0,78.734375,65,60,0
78.0,78.734375,50,60,0
78.0,78.734375,57,60,0
79.125,79.5,69,60,0
79.5,79.859375,81,60,0
80.625,81.0,70,60,0
80.625,81.0,73,60,0
80.625,81.0,57,60,0
80.625,81.0,67,60,0
81.0,81.359375,69,60,0
81.0,81.359375,74,60,0
81.0,81.359375,62,60,0
81.0,81.359375,65,60,0
81.375,81.75,70,60,0
81.375,81.75,73,60,0
81.375,81.75,57,60,0
81.375,81.75,67,60,0
81.75,82.109375,69,60,0
81.75,82.109375,74,60,0
81.75,82.109375,62,60,0
81.75,82.109375,65,60,0
82.125,82.5,70,60,0
82.125,82.5,73,60,0
82.125,82.5,57,60,0
82.125,82.5,67,60,0
82.5,82.979164,69,60,0
82.5,82.979164,74,60,0
82.5,83.479164,62,60,0
82.5,83.479164,65,60,0
83.0,83.5,69,60,0
83.5,83.979164,81,60,0
84.0,84.479164,69,60,0
84.5,86.166664,81,60,0
86.71429,87.303566,57,92,0
86.71429,87.303566,62,92,0
86.71429,87.303566,65,92,0
86.71429,87.303566,38,92,0
86.71429,87.303566,50,92,0
87.35714,87.53571,57,60,0
87.35714,87.53571,62,60,0
87.35714,87.53571,41,45,0
87.35714,87.53571,53,45,0
87.57143,87.74999,56,60,0
87.57143,87.74999,59,60,0
87.57143,87.74999,64,60,0
87.57143,87.74999,40,45,0
87.57143,87.74999,52,45,0
88.428566,88.60714,57,60,0
88.428566,88.60714,60,60,0
88.428566,88.60714,64,60,0
88.428566,88.60714,45,45,0
89.285706,89.46428,56,60,0
89.285706,89.46428,59,60,0
89.285706,89.46428,64,60,0
89.285706,89.46428,40,45,0
89.285706,89.46428,52,45,0
90.142845,90.32142,57,60,0
90.142845,90.32142,60,60,0
90.142845,90.32142,64,60,0
90.142845,90.32142,33,45,0
90.142845,90.32142,45,45,0
90.999985,91.17856,57,60,0
90.999985,91.17856,60,60,0
90.999985,91.17856,64,60,0
90.999985,91.17856,33,45,0
90.999985,91.17856,45,45,0
91.42856,91.607124,57,60,0
91.42856,91.607124,60,60,0
91.42856,91.607124,64,60,0
91.42856,91.607124,33,45,0
91.42856,91.607124,45,45,0
91.857124,92.0357,59,60,0
91.857124,92.0357,62,60,0
91.857124,92.0357,67,60,0
91.857124,92.0357,31,45,0
91.857124,92.0357,43,45,0
92.99998,93.20831,55,60,0
92.99998,93.20831,59,60,0
92.99998,93.20831,62,60,0
92.99998,93.20831,67,60,0
92.99998,93.20831,31,45,0
92.99998,93.20831,43,45,0
94.24998,95.62498,55,60,0
94.24998,95.62498,60,60,0
94.24998,95.62498,64,60,0
94.24998,95.62498,36,45,0
94.24998,95.62498,43,45,0
94.24998,95.62498,48,45,0
95.74998,95.92855,76,60,0
95.964264,96.55355,65,60,0
95.964264,96.55355,77,60,0
95.964264,96.55355,50,45,0
95.964264,96.55355,57,45,0
95.964264,96.55355,62,45,0
96.60712,96.66069,62,60,0
96.60712,96.66069,69,60,0
96.60712,96.78569,53,45,0
96.60712,96.78569,57,45,0
96.8214,96.87498,64,60,0
96.8214,96.87498,68,60,0
96.8214,96.99998,52,45,0
96.8214,96.99998,59,45,0
97.03569,97.089264,64,60,0
97.24998,97.30354,64,60,0
97.46426,97.51783,68,60,0
97.67854,97.73212,69,60,0
97.67854,97.85712,45,45,0
97.67854,97.85712,48,45,0
97.67854,97.85712,52,45,0
97.67854,97.85712,57,45,0
97.89283,97.9464,64,60,0
98.10712,98.16068,64,60,0
98.3214,98.37497,69,60,0
98.53568,98.58926,71,60,0
98.53568,98.71426,40,45,0
98.53568,98.71426,44,45,0
98.53568,98.71426,47,45,0
98.53568,98.71426,52,45,0
98.74997,98.80354,64,60,0
98.96426,99.01783,64,60,0
99.17854,99.23211,71,60,0
99.39282,99.446396,72,60,0
99.39282,99.571396,33,45,0
99.39282,99.571396,36,45,0
99.39282,99.571396,40,45,0
99.39282,99.571396,45,45,0
99.60711,99.66068,69,60,0
99.821396,99.87497,69,60,0
100.03568,100.08925,72,60,0
100.24996,100.303535,72,60,0
100.24996,100.428535,33,45,0
100.24996,100.428535,45,45,0
100.46425,100.51782,69,60,0
100.678535,100.73211,69,60,0
100.678535,100.85711,33,45,0
100.678535,100.85711,45,45,0
100.89282,100.94639,72,60,0
101.1071,101.285675,31,45,0
101.1071,101.285675,43,45,0
101.1071,101.910675,74,60,0
101.96425,102.767815,67,92,0
101.96425,102.767815,71,92,0
101.96425,102.767815,74,92,0
101.96425,102.767815,79,92,0
101.96425,102.767815,43,92,0
101.96425,102.767815,47,92,0
101.96425,102.767815,50,92,0
101.96425,102.767815,55,92,0
102.82139,102.901245,36,108,0
102.90472,102.98458,48,108,0
102.98805,103.06791,52,108,0
103.07139,103.151245,55,108,0
103.15472,103.23458,60,108,0
103.23805,103.31791,64,108,0
103.32139,103.401245,67,108,0
103.40472,103.48458,72,108,0
103.48805,103.56791,76,108,0
103.57138,103.651245,79,108,0
103.65472,103.73458,84,108,0
103.73805,103.81791,88,108,0
103.82138,103.901245,84,108,0
103.90472,103.98458,79,108,0
103.98805,104.06791,76,108,0
104.07138,104.151245,72,108,0
104.15472,104.23458,67,108,0
104.23805,104.31791,76,108,0
104.32138,104.401245,72,108,0
104.40472,104.48458,67,108,0
104.48805,104.56791,64,108,0
104.57138,104.651245,60,108,0
104.65472,104.73458,55,108,0
104.73805,104.81791,64,108,0
104.82138,104.901245,60,108,0
104.90472,104.98458,55,108,0
104.98805,105.06791,52,108,0
105.07138,105.151245,55,108,0
105.15472,105.23457,60,108,0
105.23805,105.31791,64,108,0
105.32138,105.401245,67,108,0
105.40472,105.48457,72,108,0
105.48805,105.56791,76,108,0
105.57138,105.651245,79,108,0
105.65472,105.73457,84,108,0
105.82138,106.18857,36,108,0
105.73805,106.25888,88,108,0
107.53567,107.64058,60,60,0
107.53567,107.71424,33,45,0
107.64281,107.74772,63,60,0
107.749954,107.854866,65,60,0
107.749954,107.92852,45,45,0
107.85709,107.962006,63,60,0
107.96423,108.069145,65,60,0
107.96423,108.14281,45,45,0
108.07138,108.17629,63,64,0
108.17852,108.28343,65,68,0
108.17852,108.35709,45,52,0
108.28567,108.39057,63,72,0
108.39281,108.49772,58,76,0
108.39281,108.57138,34,60,0
108.49995,108.60486,62,80,0
108.60709,108.712006,65,84,0
108.60709,108.78566,46,68,0
108.71423,108.819145,62,88,0
108.82138,108.926285,65,92,0
108.82138,108.99995,46,76,0
108.92852,109.03343,62,96,0
109.03566,109.14057,65,100,0
109.03566,109.21423,46,84,0
109.14281,109.24771,62,104,0
109.24995,109.35486,58,108,0
109.24995,109.42852,34,92,0
109.357086,109.462,63,108,0
109.46423,109.569145,66,108,0
109.46423,109.6428,46,92,0
109.57137,109.676285,63,108,0
109.67852,109.783424,66,108,0
109.67852,109.857086,46,92,0
109.78566,109.89057,63,108,0
109.8928,109.99771,66,108,0
109.8928,110.07137,46,92,0
109.99995,110.10486,63,108,0
110.107086,110.212,58,108,0
110.107086,110.28566,34,92,0
110.214226,110.31914,64,108,0
110.32137,110.426285,67,108,0
110.32137,110.49995,46,92,0
110.42851,110.533424,64,108,0
110.53566,110.640564,67,108,0
110.53566,110.714226,46,92,0
110.6428,110.74771,64,108,0
110.74994,110.85485,67,108,0
110.74994,110.92851,46,92,0
110.857086,110.962,64,108,0
110.964226,111.06914,62,108,0
110.964226,111.1428,35,92,0
111.07137,111.17628,65,108,0
111.17851,111.283424,68,108,0
111.17851,111.357086,47,92,0
111.28565,111.390564,65,108,0
111.3928,111.4977,68,108,0
111.3928,111.571365,47,92,0
111.49994,111.60485,65,108,0
111.60708,111.71199,68,108,0
111.60708,111.78565,47,92,0
111.714226,111.81914,65,108,0
111.821365,111.92628,57,108,0
111.821365,111.99994,36,92,0
111.92851,112.03342,64,108,0
112.03565,112.140564,69,108,0
112.03565,112.214226,48,92,0
112.14279,112.2477,64,108,0
112.24994,112.35485,57,108,0
112.24994,112.428505,41,92,0
112.35708,112.46199,62,108,0
112.464226,112.56913,69,108,0
112.464226,112.64279,53,92,0
112.571365,112.67628,62,108,0
112.678505,112.78342,60,108,0
112.678505,112.85708,40,92,0
112.78565,112.89056,64,108,0
112.89279,112.9977,69,108,0
112.89279,113.071365,52,92,0
112.99993,113.10484,64,108,0
113.10708,113.21199,60,108,0
113.10708,113.285645,52,92,0
113.21422,113.31913,64,108,0
113.321365,113.42627,60,108,0
113.321365,113.49993,52,92,0
113.428505,113.53342,64,108,0
113.535645,113.64056,59,108,0
113.535645,113.71422,40,92,0
113.64279,113.7477,64,108,0
113.74993,113.85484,62,108,0
113.74993,113.928505,52,92,0
113.85707,113.96198,64,108,0
113.96422,114.06913,59,108,0
113.96422,114.142784,52,92,0
114.07136,114.17627,64,108,0
114.178505,114.28341,62,108,0
114.178505,114.35707,52,92,0
114.285645,114.39056,64,108,0
114.392784,114.497696,45,92,0
114.392784,114.57136,60,108,0
114.49993,114.60484,57,92,0
114.60707,114.71198,60,92,0
114.71422,114.81912,57,92,0
114.82136,114.92627,60,92,0
114.9285,115.03341,57,92,0
115.035645,115.14055,60,92,0
115.142784,115.247696,57,92,0
115.24992,115.354836,60,92,0
115.35707,115.46198,57,92,0
115.46421,115.56912,60,92,0
115.57136,115.67626,57,92,0
115.6785,115.78341,60,92,0
115.78564,115.89055,57,92,0
115.892784,115.997696,60,92,0
115.99992,116.104836,57,92,0
116.10706,116.211975,69,108,0
116.10706,116.211975,33,92,0
116.21421,116.31912,81,108,0
116.21421,116.31912,45,92,0
116.32135,116.42626,80,108,0
116.32135,116.42626,44,92,0
116.4285,116.5334,81,108,0
116.4285,116.5334,45,92,0
116.53564,116.64055,69,108,0
116.53564,116.64055,33,92,0
116.64278,116.74769,81,108,0
116.64278,116.74769,45,92,0
116.74992,116.854836,71,108,0
116.74992,116.854836,35,92,0
116.85706,116.961975,81,108,0
116.85706,116.961975,45,92,0
116.96421,117.069115,72,108,0
116.96421,117.069115,36,92,0
117.07135,117.17626,81,108,0
117.07135,117.17626,45,92,0
117.17849,117.2834,71,108,0
117.17849,117.2834,35,92,0
117.28564,117.39054,81,108,0
117.28564,117.39054,45,92,0
117.39278,117.49769,72,108,0
117.39278,117.49769,36,92,0
117.499916,117.60483,81,108,0
117.499916,117.60483,45,92,0
117.60706,117.711975,69,108,0
117.60706,117.711975,33,92,0
117.7142,117.819115,81,108,0
117.7142,117.819115,45,92,0
117.82135,117.926254,40,92,0
117.82135,117.926254,52,92,0
117.82135,117.999916,76,108,0
117.92849,118.0334,56,92,0
118.03563,118.14054,59,92,0
118.14278,118.24769,56,92,0
118.249916,118.35483,59,92,0
118.35706,118.46197,56,92,0
118.4642,118.569115,59,92,0
118.57134,118.676254,56,92,0
118.67849,118.783394,59,92,0
118.78563,118.89054,56,92,0
118.89277,118.99768,59,92,0
118.999916,119.10483,56,92,0
119.107056,119.21197,59,92,0
119.2142,119.31911,56,92,0
119.32134,119.426254,59,92,0
119.42848,119.533394,56,92,0
119.53563,119.64054,76,108,0
119.53563,119.64054,40,92,0
119.64277,119.74768,88,108,0
119.64277,119.74768,52,92,0
119.74991,119.85482,87,108,0
119.74991,119.85482,51,92,0
119.857056,119.96197,88,108,0
119.857056,119.96197,52,92,0
119.964195,120.06911,76,108,0
119.964195,120.06911,40,92,0
120.07134,120.17625,88,108,0
120.07134,120.17625,52,92,0
120.17848,120.283394,77,108,0
120.17848,120.283394,41,92,0
120.28562,120.39053,89,108,0
120.28562,120.39053,53,92,0
120.39277,120.49768,76,108,0
120.39277,120.49768,40,92,0
120.49991,120.60482,88,108,0
120.49991,120.60482,52,92,0
120.607056,120.71196,74,108,0
120.607056,120.71196,38,92,0
120.714195,120.81911,86,108,0
120.714195,120.81911,50,92,0
120.821335,120.92625,72,108,0
120.821335,120.92625,36,92,0
120.92848,121.03339,84,108,0
120.92848,121.03339,48,92,0
121.03562,121.14053,71,108,0
121.03562,121.14053,35,92,0
121.14276,121.24767,83,108,0
121.14276,121.24767,47,92,0
121.24991,121.35482,69,108,0
121.24991,121.428474,33,92,0
121.24991,121.428474,45,92,0
121.35705,121.46196,81,108,0
121.464195,121.5691,80,108,0
121.571335,121.67625,81,108,0
121.678474,121.78339,69,108,0
121.78562,121.89053,81,108,0
121.89276,121.99767,71,108,0
121.9999,122.10481,81,108,0
122.10705,122.21196,72,108,0
122.21419,122.3191,81,108,0
122.321335,122.42624,74,108,0
122.428474,122.53339,81,108,0
122.535614,122.640526,72,108,0
122.64276,122.74767,81,108,0
122.7499,122.85481,71,108,0
122.85705,122.96195,81,108,0
122.96419,123.0691,33,92,0
122.96419,123.14276,69,108,0
123.07133,123.17624,45,92,0
123.178474,123.28338,44,92,0
123.285614,123.390526,45,92,0
123.39275,123.497665,33,92,0
123.4999,123.60481,45,92,0
123.60704,123.71195,35,92,0
123.71419,123.81909,45,92,0
123.82133,123.92624,36,92,0
123.92847,124.03338,45,92,0
124.035614,124.140526,35,92,0
124.14275,124.247665,45,92,0
124.24989,124.354805,36,92,0
124.35704,124.46195,45,92,0
124.46418,124.56909,33,92,0
124.57133,124.67623,45,92,0
124.67847,124.78338,76,108,0
124.67847,124.85704,40,92,0
124.78561,124.89052,88,108,0
124.89275,124.997665,87,108,0
124.99989,125.104805,88,108,0
125.10704,125.211945,76,108,0
125.21418,125.31909,88,108,0
125.32132,125.42623,78,108,0
125.42847,125.53338,88,108,0
125.53561,125.64052,80,108,0
125.642746,125.74766,88,108,0
125.74989,125.854805,81,108,0
125.85703,125.961945,88,108,0
125.96418,126.069084,83,108,0
126.07132,126.17623,88,108,0
126.17846,126.28337,80,108,0
126.28561,126.39052,88,108,0
126.392746,126.49766,40,92,0
126.392746,126.57132,76,108,0
126.49989,126.6048,52,92,0
126.60703,126.711945,51,92,0
126.71417,126.819084,52,92,0
126.82132,126.92622,40,92,0
126.92846,127.03337,52,92,0
127.0356,127.14051,41,92,0
127.142746,127.24766,53,92,0
127.249886,127.3548,40,92,0
127.35703,127.46194,52,92,0
127.46417,127.569084,38,92,0
127.57131,127.67622,50,92,0
127.67846,127.78337,36,92,0
127.7856,127.89051,48,92,0
127.89274,127.99765,35,92,0
127.999886,128.1048,47,92,0
128.10703,128.21194,57,108,0
128.10703,128.21194,33,92,0
128.10703,128.21194,45,92,0
128.21417,128.31908,60,108,0
128.21417,128.31908,48,92,0
128.32132,128.42622,64,108,0
128.32132,128.42622,52,92,0
128.42845,128.53337,60,108,0
128.42845,128.53337,48,92,0
128.5356,128.6405,64,108,0
128.5356,128.6405,52,92,0
128.64275,128.74765,60,108,0
128.64275,128.74765,48,92,0
128.74988,128.8548,57,108,0
128.74988,128.8548,45,92,0
128.85703,128.96193,60,108,0
128.85703,128.96193,48,92,0
128.96417,129.06908,57,108,0
128.96417,129.06908,45,92,0
129.0713,129.17622,60,108,0
129.0713,129.17622,48,92,0
129.17845,129.28336,65,108,0
129.17845,129.28336,53,92,0
129.2856,129.3905,60,108,0
129.2856,129.3905,48,92,0
129.39273,129.49765,65,108,0
129.39273,129.49765,53,92,0
129.49988,129.6048,60,108,0
129.49988,129.6048,48,92,0
129.60703,129.71193,57,108,0
129.60703,129.71193,45,92,0
129.71416,129.81908,60,108,0
129.71416,129.81908,48,92,0
129.8213,129.92622,59,108,0
129.8213,129.92622,47,92,0
129.92845,130.03336,62,108,0
129.92845,130.03336,50,92,0
130.0356,130.1405,65,108,0
130.0356,130.1405,53,92,0
130.14273,130.24765,67,108,0
130.14273,130.24765,55,92,0
130.24988,130.35478,71,108,0
130.24988,130.35478,59,92,0
130.35703,130.46193,74,108,0
130.35703,130.46193,62,92,0
130.46416,130.56908,77,108,0
130.46416,130.56908,65,92,0
130.5713,130.67621,74,108,0
130.5713,130.67621,62,92,0
130.67845,130.78336,77,108,0
130.67845,130.78336,65,92,0
130.78558,130.8905,74,108,0
130.78558,130.8905,62,92,0
130.89273,130.99763,71,108,0
130.89273,130.99763,59,92,0
130.99988,131.10478,67,108,0
130.99988,131.10478,55,92,0
131.10701,131.21193,65,108,0
131.10701,131.21193,53,92,0
131.21416,131.31908,67,108,0
131.21416,131.31908,55,92,0
131.3213,131.42621,65,108,0
131.3213,131.42621,53,92,0
131.42845,131.53336,62,108,0
131.42845,131.53336,50,92,0
131.53558,131.6405,60,108,0
131.53558,131.6405,48,92,0
131.64273,131.74763,64,108,0
131.64273,131.74763,52,92,0
131.74988,131.85478,67,108,0
131.74988,131.85478,55,92,0
131.85701,131.96193,64,108,0
131.85701,131.96193,52,92,0
131.96416,132.06906,67,108,0
131.96416,132.06906,55,92,0
132.0713,132.17621,64,108,0
132.0713,132.17621,52,92,0
132.17844,132.28336,60,108,0
132.17844,132.28336,48,92,0
132.28558,132.39049,64,108,0
132.28558,132.39049,52,92,0
132.39273,132.49763,61,108,0
132.39273,132.49763,49,92,0
132.49986,132.60478,64,108,0
132.49986,132.60478,52,92,0
132.60701,132.71193,69,108,0
132.60701,132.71193,57,92,0
132.71416,132.81906,64,108,0
132.71416,132.81906,52,92,0
132.8213,132.92621,69,108,0
132.8213,132.92621,57,92,0
132.92844,133.03336,64,108,0
132.92844,133.03336,52,92,0
133.03558,133.14049,61,108,0
133.03558,133.14049,49,92,0
133.14273,133.24763,64,108,0
133.14273,133.24763,52,92,0
133.24986,133.35478,62,108,0
133.24986,133.35478,50,92,0
133.35701,133.46191,65,108,0
133.35701,133.46191,53,92,0
133.46416,133.56906,69,108,0
133.46416,133.56906,57,92,0
133.57129,133.67621,65,108,0
133.57129,133.67621,53,92,0
133.67844,133.78334,63,108,0
133.67844,133.78334,51,92,0
133.78558,133.89049,66,108,0
133.78558,133.89049,54,92,0
133.89272,133.99763,71,108,0
133.89272,133.99763,59,92,0
133.99986,134.10478,75,108,0
133.99986,134.10478,63,92,0
134.10701,134.21191,78,108,0
134.10701,134.21191,66,92,0
134.21416,134.31906,81,108,0
134.21416,134.31906,69,92,0
134.32129,134.42621,78,108,0
134.32129,134.42621,66,92,0
134.42844,134.53334,75,108,0
134.42844,134.53334,63,92,0
134.53558,134.64049,71,108,0
134.53558,134.64049,59,92,0
134.64272,134.74763,69,108,0
134.64272,134.74763,57,92,0
134.74986,134.85477,67,108,0
134.74986,134.85477,55,92,0
134.85701,134.96191,66,108,0
134.85701,134.96191,54,92,0
134.96414,135.06906,64,108,0
134.96414,135.06906,52,92,0
135.07129,135.1762,55,92,0
135.07129,135.1762,67,108,0
135.17844,135.28334,71,108,0
135.17844,135.28334,59,92,0
135.28557,135.39049,67,108,0
135.28557,135.39049,55,92,0
135.39272,135.49763,71,108,0
135.39272,135.49763,59,92,0
135.49986,135.60477,67,108,0
135.49986,135.60477,55,92,0
135.607,135.71191,64,108,0
135.607,135.71191,52,92,0
135.71414,135.81906,67,108,0
135.71414,135.81906,55,92,0
135.82129,135.9262,66,108,0
135.82129,135.9262,54,92,0
135.92844,136.03334,69,108,0
135.92844,136.03334,57,92,0
136.03557,136.14049,75,108,0
136.03557,136.14049,63,92,0
136.14272,136.24762,69,108,0
136.14272,136.24762,57,92,0
136.24986,136.35477,75,108,0
136.24986,136.35477,63,92,0
136.357,136.46191,69,108,0
136.357,136.46191,57,92,0
136.46414,136.56905,66,108,0
136.46414,136.56905,54,92,0
136.57129,136.6762,69,108,0
136.57129,136.6762,57,92,0
136.67842,136.78334,67,108,0
136.67842,136.78334,55,92,0
136.78557,136.89047,71,108,0
136.78557,136.89047,59,92,0
136.89272,136.99762,76,108,0
136.89272,136.99762,64,92,0
136.99985,137.10477,71,108,0
136.99985,137.10477,59,92,0
137.107,137.21191,69,108,0
137.107,137.21191,57,92,0
137.21414,137.31905,72,108,0
137.21414,137.31905,60,92,0
137.32129,137.4262,76,108,0
137.32129,137.4262,64,92,0
137.42842,137.53334,72,108,0
137.42842,137.53334,60,92,0
137.53557,137.64047,69,108,0
137.53557,137.64047,57,92,0
137.64272,137.74762,72,108,0
137.64272,137.74762,60,92,0
137.74985,137.85477,76,108,0
137.74985,137.85477,64,92,0
137.857,137.9619,69,108,0
137.857,137.9619,57,92,0
137.96414,138.06905,70,108,0
137.96414,138.06905,58,92,0
138.07127,138.1762,73,108,0
138.07127,138.1762,61,92,0
138.17842,138.28333,76,108,0
138.17842,138.28333,64,92,0
138.28557,138.39047,70,108,0
138.28557,138.39047,58,92,0
138.3927,138.49762,71,108,0
138.3927,138.49762,59,92,0
138.49985,138.60477,75,108,0
138.49985,138.60477,63,92,0
138.607,138.7119,78,108,0
138.607,138.7119,66,92,0
138.71414,138.81905,79,108,0
138.71414,138.81905,63,92,0
138.82127,138.9262,81,108,0
138.82127,138.9262,60,92,0
138.92842,139.03333,78,108,0
138.92842,139.03333,63,92,0
139.03557,139.14047,75,108,0
139.03557,139.14047,66,92,0
139.1427,139.24762,78,108,0
139.1427,139.24762,63,92,0
139.24985,139.35475,81,108,0
139.24985,139.35475,60,92,0
139.357,139.4619,78,108,0
139.357,139.4619,63,92,0
139.46413,139.56905,75,108,0
139.46413,139.56905,66,92,0
139.57127,139.67618,78,108,0
139.57127,139.67618,63,92,0
139.67842,139.78333,81,108,0
139.67842,139.78333,60,92,0
139.78555,139.89047,78,108,0
139.78555,139.89047,63,92,0
139.8927,139.99762,75,108,0
139.8927,139.99762,66,92,0
139.99985,140.10475,78,108,0
139.99985,140.10475,63,92,0
140.107,140.2119,81,108,0
140.107,140.2119,60,92,0
140.21413,140.31905,78,108,0
140.21413,140.31905,63,92,0
140.32127,140.42618,75,108,0
140.32127,140.42618,66,92,0
140.42842,140.53333,78,108,0
140.42842,140.53333,63,92,0
140.53555,140.64047,81,108,0
140.6427,140.7476,78,108,0
140.53555,140.74985,47,92,0
140.74985,140.85475,75,108,0
140.85698,140.9619,69,108,0
140.74985,140.96413,59,92,0
140.96413,141.06903,79,108,0
141.07127,141.17618,76,108,0
140.96413,141.1784,52,92,0
141.1784,141.28333,71,108,0
141.28555,141.39047,76,108,0
141.1784,141.3927,64,92,0
141.3927,141.4976,79,108,0
141.49983,141.60475,76,108,0
141.3927,141.60698,46,92,0
141.60698,141.7119,73,108,0
141.60698,141.78555,58,92,0
141.71413,141.81903,67,108,0
141.82127,141.92618,47,92,0
141.82127,141.99983,66,108,0
141.9284,142.03333,51,92,0
142.03555,142.14046,54,92,0
142.1427,142.2476,51,92,0
142.24983,142.35475,69,108,0
142.24983,142.35475,48,92,0
142.35698,142.46188,66,108,0
142.35698,142.46188,51,92,0
142.46413,142.56903,63,108,0
142.46413,142.56903,54,92,0
142.57126,142.67618,66,108,0
142.57126,142.67618,51,92,0
142.6784,142.78331,69,108,0
142.6784,142.78331,48,92,0
142.78555,142.89046,66,108,0
142.78555,142.89046,51,92,0
142.89268,142.9976,63,108,0
142.89268,142.9976,54,92,0
142.99983,143.10475,66,108,0
142.99983,143.10475,51,92,0
143.10698,143.21188,69,108,0
143.10698,143.21188,48,92,0
143.21413,143.31903,66,108,0
143.21413,143.31903,51,92,0
143.32126,143.42618,63,108,0
143.32126,143.42618,54,92,0
143.4284,143.53331,66,108,0
143.4284,143.53331,51,92,0
143.53555,143.64046,69,108,0
143.53555,143.64046,48,92,0
143.64268,143.7476,66,108,0
143.64268,143.7476,51,92,0
143.74983,143.85474,63,108,0
143.74983,143.85474,54,92,0
143.85698,143.96188,66,108,0
143.85698,143.96188,51,92,0
143.96411,144.06903,69,108,0
143.96411,144.14268,35,92,0
144.07126,144.17616,66,108,0
144.1784,144.28331,63,108,0
144.1784,144.35698,47,92,0
144.28554,144.39046,57,108,0
144.39268,144.4976,67,108,0
144.39268,144.57126,40,92,0
144.49983,144.60474,64,108,0
144.60698,144.71188,59,108,0
144.60698,144.78554,52,92,0
144.71411,144.81903,64,108,0
144.82126,144.92616,67,108,0
144.82126,144.99983,34,92,0
144.9284,145.03331,64,108,0
145.03554,145.14046,61,108,0
145.03554,145.21411,46,92,0
145.14268,145.24759,55,108,0
145.24983,145.35474,35,92,0
145.24983,145.42839,54,108,0
145.35696,145.46188,42,92,0
145.46411,145.56902,47,92,0
145.57126,145.67616,42,92,0
145.67839,145.78331,46,92,0
145.78554,145.89046,49,92,0
145.89268,145.99759,46,92,0
145.99982,146.10474,42,92,0
146.10696,146.21188,35,92,0
146.21411,146.31902,42,92,0
146.32126,146.42616,47,92,0
146.42839,146.53331,42,92,0
146.53554,146.64044,46,92,0
146.64268,146.74759,49,92,0
146.74982,146.85474,46,92,0
146.85696,146.96187,42,92,0
146.96411,147.06902,35,92,0
147.07124,147.17616,42,92,0
147.17839,147.28331,47,92,0
147.28554,147.39044,42,92,0
147.39267,147.49759,46,92,0
147.49982,147.60474,49,92,0
147.60696,147.71187,46,92,0
147.71411,147.81902,42,92,0
147.82124,147.92616,35,92,0
147.92839,148.0333,42,92,0
148.03554,148.14044,47,92,0
148.14267,148.24759,42,92,0
148.24982,148.35472,46,92,0
148.35696,148.46187,49,92,0
148.4641,148.56902,46,92,0
148.57124,148.67615,42,92,0
148.67839,148.7833,35,92,0
148.78552,148.89044,42,92,0
148.89267,148.99759,47,92,0
148.99982,149.10472,42,92,0
149.10696,149.21187,35,92,0
149.2141,149.31902,39,92,0
149.32124,149.42615,42,92,0
149.42839,149.5333,47,92,0
149.53552,149.64044,35,92,0
149.64267,149.74757,39,92,0
149.74982,149.85472,42,92,0
149.85695,149.96187,47,92,0
149.9641,150.069,35,92,0
150.07124,150.17615,39,92,0
150.17838,150.2833,42,92,0
150.28552,150.39044,47,92,0
150.39267,150.49757,35,92,0
150.49982,150.60472,39,92,0
150.60695,150.71187,42,92,0
150.7141,150.819,47,92,0
150.82124,150.92615,83,108,0
150.82124,150.92615,35,92,0
150.92838,151.0333,78,108,0
150.92838,151.0333,39,92,0
151.03552,151.14043,76,108,0
151.03552,151.14043,42,92,0
151.14267,151.24757,75,108,0
151.14267,151.24757,47,92,0
151.2498,151.35472,83,108,0
151.2498,151.35472,35,92,0
151.35695,151.46185,78,108,0
151.35695,151.46185,39,92,0
151.4641,151.569,76,108,0
151.4641,151.569,42,92,0
151.57123,151.67615,75,108,0
151.57123,151.67615,47,92,0
151.67838,151.7833,83,108,0
151.67838,151.7833,35,92,0
151.78552,151.89043,78,108,0
151.78552,151.89043,39,92,0
151.89265,151.99757,76,108,0
151.89265,151.99757,42,92,0
151.9998,152.10472,75,108,0
151.9998,152.10472,47,92,0
152.10695,152.30695,83,108,0
152.10695,153.48695,35,92,0
152.10695,153.48695,47,92,0
153.54695,153.74695,49,57,0
153.78694,153.98695,51,51,0
154.02695,154.92694,59,60,0
154.02695,154.92694,64,60,0
154.02695,154.92694,40,45,0
154.02695,154.92694,52,45,0
154.98695,155.88695,57,60,0
154.98695,155.88695,64,60,0
154.98695,155.88695,42,45,0
154.98695,155.88695,52,45,0
155.94695,156.84695,59,60,0
155.94695,156.84695,64,60,0
155.94695,156.84695,44,45,0
155.94695,156.84695,52,45,0
156.90695,157.38695,61,45,0
156.90695,157.38695,45,45,0
157.38695,157.62695,59,45,0
157.38695,157.62695,44,45,0
156.90695,157.80695,64,60,0
156.90695,157.80695,52,60,0
157.62695,157.82695,57,45,0
157.62695,157.82695,42,45,0
157.86694,158.76695,59,60,0
157.86694,158.76695,64,60,0
157.86694,158.76695,40,45,0
157.86694,158.76695,52,45,0
158.82695,159.72694,57,60,0
158.82695,159.72694,64,60,0
158.82695,159.72694,42,45,0
158.82695,159.72694,52,45,0
159.78694,160.68695,59,60,0
159.78694,160.68695,64,60,0
159.78694,160.68695,44,45,0
159.78694,160.68695,52,45,0
160.74695,161.22694,61,45,0
160.74695,161.22694,45,45,0
161.22694,161.46695,59,45,0
161.22694,161.46695,44,45,0
160.74695,161.64694,64,60,0
160.74695,161.64694,52,60,0
161.46695,161.66695,57,45,0
161.46695,161.66695,42,45,0
161.70694,162.60695,59,60,0
161.70694,162.60695,64,60,0
161.70694,162.60695,40,45,0
161.70694,162.60695,52,45,0
162.66695,163.08694,57,60,0
162.66695,163.08694,64,60,0
162.66695,163.08694,42,45,0
162.66695,163.08694,52,45,0
163.14694,163.56694,59,60,0
163.14694,163.56694,64,60,0
163.14694,163.56694,44,45,0
163.14694,163.56694,52,45,0
163.62695,164.52695,61,60,0
163.62695,164.52695,64,60,0
163.62695,164.52695,45,45,0
163.62695,164.52695,52,45,0
164.58694,165.48695,61,60,0
164.58694,165.48695,64,60,0
164.58694,165.48695,46,45,0
164.58694,165.48695,52,45,0
165.54695,166.44695,59,60,0
165.54695,166.44695,64,60,0
165.54695,166.44695,47,45,0
165.54695,166.44695,52,45,0
166.50694,167.40695,58,60,0
166.50694,167.40695,64,60,0
166.50694,167.40695,48,45,0
166.50694,167.40695,52,45,0
167.46695,167.66695,59,60,0
167.46695,167.66695,63,60,0
167.46695,167.66695,47,45,0
167.46695,167.66695,54,45,0
167.94695,168.84695,71,60,0
167.94695,168.84695,83,60,0
168.42694,168.90695,47,45,0
168.42694,168.90695,51,45,0
168.90695,169.14694,49,45,0
168.90695,169.14694,52,45,0
168.90695,169.32695,69,60,0
168.90695,169.32695,81,60,0
169.14694,169.34695,51,45,0
169.14694,169.34695,54,45,0
169.38695,170.34695,67,60,0
169.38695,170.34695,79,60,0
169.38695,170.34695,52,45,0
169.38695,170.34695,55,45,0
170.34695,171.30695,69,60,0
170.34695,171.30695,81,60,0
170.34695,171.30695,54,45,0
170.34695,171.30695,57,45,0
171.30695,172.26695,67,60,0
171.30695,172.26695,79,60,0
171.30695,172.26695,55,45,0
171.30695,172.26695,59,45,0
172.26695,172.74695,57,45,0
172.26695,172.74695,60,45,0
172.74695,172.98695,55,45,0
172.74695,172.98695,59,45,0
172.26695,173.16695,66,60,0
172.26695,173.16695,78,60,0
172.98695,173.18695,54,45,0
172.98695,173.18695,57,45,0
173.22694,173.64694,79,60,0
173.70694,173.82445,81,60,0
173.82695,173.94444,79,60,0
173.94695,174.06445,78,60,0
173.22694,174.12695,67,45,0
174.06694,174.18445,79,60,0
173.22694,174.18695,52,45,0
173.22694,174.18695,55,45,0
174.18695,174.60695,71,60,0
174.18695,174.60695,83,60,0
174.66695,175.08694,69,60,0
174.66695,175.08694,81,60,0
174.18695,175.14694,54,45,0
174.18695,175.14694,57,45,0
175.14694,176.04695,79,60,0
175.14694,176.04695,67,60,0
175.14694,176.10695,59,45,0
175.14694,176.10695,55,45,0
176.10695,176.58694,57,45,0
176.10695,176.58694,60,45,0
176.58694,176.82695,55,45,0
176.58694,176.82695,59,45,0
176.10695,177.00694,66,60,0
176.10695,177.00694,78,60,0
176.82695,177.02695,54,45,0
176.82695,177.02695,57,45,0
177.06694,179.31694,67,60,0
177.06694,179.31694,79,60,0
177.06694,179.31694,52,45,0
177.06694,179.31694,55,45,0
179.46695,181.11694,69,60,0
179.46695,181.11694,54,45,0
179.54195,181.11694,72,60,0
179.54195,181.11694,57,45,0
179.61694,181.11694,74,60,0
179.61694,181.11694,60,45,0
179.69194,181.11694,78,60,0
179.69194,181.11694,62,45,0
179.76695,181.11694,81,60,0
181.48123,181.58614,38,60,0
181.58838,181.69328,50,60,0
181.69551,181.80043,40,60,0
181.80266,181.90756,50,60,0
181.9098,182.01471,42,60,0
182.01694,182.12186,50,60,0
182.12408,182.229,38,60,0
182.23123,182.33614,50,60,0
182.33838,182.44328,43,60,0
182.44551,182.55043,50,60,0
182.55266,182.65756,45,60,0
182.6598,182.76471,50,60,0
182.76694,182.87186,47,60,0
182.87408,182.97899,50,60,0
182.98123,183.08614,74,108,0
182.98123,183.08614,43,92,0
183.08836,183.19328,86,108,0
183.08836,183.19328,50,92,0
183.19551,183.30042,84,108,0
183.19551,183.30042,38,92,0
183.30266,183.40756,81,108,0
183.30266,183.40756,50,92,0
183.40979,183.51471,78,108,0
183.40979,183.51471,40,92,0
183.51694,183.62186,74,108,0
183.51694,183.62186,50,92,0
183.62408,183.72899,72,108,0
183.62408,183.72899,42,92,0
183.73123,183.83614,69,108,0
183.73123,183.83614,50,92,0
183.83836,183.94328,66,108,0
183.83836,183.94328,38,92,0
183.94551,184.05042,60,108,0
183.94551,184.05042,50,92,0
184.05266,184.15756,43,92,0
184.05266,184.23122,59,108,0
184.15979,184.26471,47,92,0
184.26694,184.37184,42,60,0
184.37408,184.47899,47,60,0
184.48122,184.58614,43,60,0
184.58836,184.69327,47,60,0
184.69551,184.80042,40,60,0
184.80264,184.90756,47,60,0
184.90979,185.01471,35,60,0
185.01694,185.12184,47,60,0
185.12408,185.22899,37,60,0
185.23122,185.33614,47,60,0
185.33836,185.44327,39,60,0
185.44551,185.55042,47,60,0
185.55264,185.65756,35,60,0
185.65979,185.7647,47,60,0
185.76694,185.87184,40,60,0
185.87407,185.97899,47,60,0
185.98122,186.08612,42,60,0
186.08836,186.19327,47,60,0
186.1955,186.30042,43,60,0
186.30264,186.40756,47,60,0
186.40979,186.5147,71,108,0
186.40979,186.5147,40,92,0
186.51692,186.62184,83,108,0
186.51692,186.62184,47,92,0
186.62407,186.72899,81,108,0
186.62407,186.72899,35,92,0
186.73122,186.83612,78,108,0
186.73122,186.83612,47,92,0
186.83836,186.94327,75,108,0
186.83836,186.94327,37,92,0
186.9455,187.05042,71,108,0
186.9455,187.05042,47,92,0
187.05264,187.15755,69,108,0
187.05264,187.15755,39,92,0
187.15979,187.2647,66,108,0
187.15979,187.2647,47,92,0
187.26692,187.37184,63,108,0
187.26692,187.37184,35,92,0
187.37407,187.47897,57,108,0
187.37407,187.47897,47,92,0
187.48122,187.58612,55,108,0
187.48122,187.58612,40,92,0
187.58835,187.69327,59,108,0
187.58835,187.69327,47,92,0
187.6955,187.8004,64,108,0
187.6955,187.8004,42,92,0
187.80264,187.90755,67,108,0
187.80264,187.90755,47,92,0
187.90977,188.0147,71,108,0
187.90977,188.0147,43,92,0
188.01692,188.12184,76,108,0
188.01692,188.12184,47,92,0
188.12407,188.22897,79,108,0
188.12407,188.22897,40,92,0
188.23122,188.33612,83,108,0
188.23122,188.33612,47,92,0
188.33835,188.44327,81,108,0
188.33835,188.44327,35,92,0
188.4455,188.5504,78,108,0
188.4455,188.5504,47,92,0
188.55264,188.65755,75,108,0
188.55264,188.65755,37,92,0
188.65977,188.7647,71,108,0
188.65977,188.7647,47,92,0
188.76692,188.87183,69,108,0
188.76692,188.87183,39,92,0
188.87407,188.97897,66,108,0
188.87407,188.97897,47,92,0
188.9812,189.08612,63,108,0
188.9812,189.08612,35,92,0
189.08835,189.19325,57,108,0
189.08835,189.19325,47,92,0
189.1955,189.3004,55,108,0
189.1955,189.3004,40,92,0
189.30263,189.40755,59,108,0
189.30263,189.40755,47,92,0
189.40977,189.5147,64,108,0
189.40977,189.5147,42,92,0
189.51692,189.62183,67,108,0
189.51692,189.62183,47,92,0
189.62407,189.72897,71,108,0
189.62407,189.72897,43,92,0
189.7312,189.83612,76,108,0
189.7312,189.83612,47,92,0
189.83835,189.94325,79,108,0
189.83835,189.94325,40,92,0
189.9455,190.0504,83,108,0
189.9455,190.0504,47,92,0
190.05263,190.15755,81,108,0
190.05263,190.15755,35,92,0
190.15977,190.26468,78,108,0
190.15977,190.26468,47,92,0
190.26692,190.37183,75,108,0
190.26692,190.37183,37,92,0
190.37405,190.47897,71,108,0
190.37405,190.47897,47,92,0
190.4812,190.5861,67,108,0
190.4812,190.5861,39,92,0
190.58835,190.69325,66,108,0
190.58835,190.69325,47,92,0
190.69548,190.8004,63,108,0
190.69548,190.8004,35,92,0
190.80263,190.90755,57,108,0
190.80263,190.90755,47,92,0
190.90977,191.01468,55,108,0
190.90977,191.01468,40,92,0
191.01692,191.12183,67,108,0
191.01692,191.12183,52,92,0
191.12405,191.22897,57,108,0
191.12405,191.22897,42,92,0
191.2312,191.3361,69,108,0
191.2312,191.3361,52,92,0
191.33835,191.44325,59,108,0
191.33835,191.44325,43,92,0
191.44548,191.5504,71,108,0
191.44548,191.5504,52,92,0
191.55263,191.65753,55,108,0
191.55263,191.65753,40,92,0
191.65977,191.76468,67,108,0
191.65977,191.76468,52,92,0
191.7669,191.87183,57,108,0
191.7669,191.87183,42,92,0
191.87405,191.97896,69,108,0
191.87405,191.97896,52,92,0
191.9812,192.0861,59,108,0
191.9812,192.0861,43,92,0
192.08833,192.19325,71,108,0
192.08833,192.19325,52,92,0
192.19548,192.3004,60,108,0
192.19548,192.3004,45,92,0
192.30263,192.40753,72,108,0
192.30263,192.40753,52,92,0
192.40976,192.51468,57,108,0
192.40976,192.51468,42,92,0
192.5169,192.62183,69,108,0
192.5169,192.62183,52,92,0
192.62405,192.72896,59,108,0
192.62405,192.72896,44,92,0
192.7312,192.8361,71,108,0
192.7312,192.8361,52,92,0
192.83833,192.94325,60,108,0
192.83833,192.94325,45,92,0
192.94548,193.05038,72,108,0
192.94548,193.05038,52,92,0
193.05263,193.15753,62,108,0
193.05263,193.15753,47,92,0
193.15976,193.26468,74,108,0
193.15976,193.26468,52,92,0
193.2669,193.37181,59,108,0
193.2669,193.37181,44,92,0
193.37405,193.47896,71,108,0
193.37405,193.47896,52,92,0
193.48119,193.5861,60,108,0
193.48119,193.5861,45,92,0
193.58833,193.69324,72,108,0
193.58833,193.69324,52,92,0
193.69548,193.80038,63,108,0
193.69548,193.80038,47,92,0
193.80261,193.90753,75,108,0
193.80261,193.90753,52,92,0
193.90976,194.01468,64,108,0
193.90976,194.01468,48,92,0
194.0169,194.12181,76,108,0
194.0169,194.12181,52,92,0
194.12405,194.22896,66,108,0
194.12405,194.22896,51,92,0
194.23119,194.3361,78,108,0
194.23119,194.3361,52,92,0
194.33833,194.44324,52,92,0
194.33833,194.5169,67,108,0
194.33833,194.5169,79,108,0
194.44548,194.55038,64,92,0
194.55261,194.65753,54,92,0
194.65976,194.76466,64,92,0
194.7669,194.87181,55,92,0
194.87404,194.97896,64,92,0
194.98119,195.08609,52,92,0
195.08833,195.19324,64,92,0
195.19547,195.30038,54,92,0
194.7669,195.37404,76,108,0
194.7669,195.37404,88,108,0
195.30261,195.40753,64,92,0
195.40976,195.51466,55,92,0
195.5169,195.62181,64,92,0
195.62404,195.72896,57,92,0
195.73119,195.83609,64,92,0
195.83833,195.94324,54,92,0
195.94547,196.05038,64,92,0
196.05261,196.15752,56,92,0
195.62404,196.23119,76,108,0
195.62404,196.23119,88,108,0
196.15976,196.26466,64,92,0
196.26689,196.37181,57,92,0
196.37404,196.47894,64,92,0
196.48119,196.58609,59,92,0
196.58832,196.69324,64,92,0
196.69547,196.80038,59,92,0
196.80261,196.90752,64,92,0
196.90976,197.01466,62,92,0
197.01689,197.12181,64,92,0
197.12404,197.22894,59,92,0
196.48119,197.28474,76,108,0
196.48119,197.28474,88,108,0
197.23119,197.33609,64,92,0
197.33832,197.44324,56,92,0
197.33832,197.51689,76,108,0
197.33832,197.51689,88,108,0
197.44547,197.55037,64,92,0
197.55261,197.65752,59,92,0
197.55261,197.73117,76,108,0
197.55261,197.73117,88,108,0
197.65974,197.76466,64,92,0
197.76689,197.8718,62,92,0
197.87404,197.97894,64,92,0
197.98117,198.08609,59,92,0
198.08832,198.19324,64,92,0
198.19547,198.30037,56,92,0
198.19547,198.37404,76,108,0
198.19547,198.37404,88,108,0
198.3026,198.40752,64,92,0
198.40974,198.51466,59,92,0
198.40974,198.58832,76,108,0
198.40974,198.58832,88,108,0
198.51689,198.6218,64,92,0
198.62404,198.72894,62,92,0
198.62404,198.8026,76,108,0
198.62404,198.8026,88,108,0
198.73117,198.83609,64,92,0
198.83832,198.94322,59,92,0
198.83832,199.01689,76,108,0
198.83832,199.01689,88,108,0
198.94547,199.05037,64,92,0
199.0526,199.15752,57,92,0
199.0526,199.23117,76,108,0
199.0526,199.23117,88,108,0
199.15974,199.26465,64,92,0
199.26689,199.3718,56,92,0
199.26689,199.44547,76,108,0
199.26689,199.44547,88,108,0
199.37402,199.47894,64,92,0
199.48117,199.58607,77,108,0
199.48117,199.58607,62,92,0
199.58832,199.69322,89,108,0
199.58832,199.69322,64,92,0
199.69545,199.80037,74,108,0
199.69545,199.80037,59,92,0
199.8026,199.90752,86,108,0
199.8026,199.90752,64,92,0
199.90974,200.01465,71,108,0
199.90974,200.01465,56,92,0
200.01689,200.1218,83,108,0
200.01689,200.1218,64,92,0
200.12402,200.22894,74,108,0
200.12402,200.22894,59,92,0
200.23117,200.33607,86,108,0
200.23117,200.33607,64,92,0
200.33832,200.44322,77,108,0
200.33832,200.44322,62,92,0
200.44545,200.55037,89,108,0
200.44545,200.55037,64,92,0
200.5526,200.6575,74,108,0
200.5526,200.6575,59,92,0
200.65974,200.76465,86,108,0
200.65974,200.76465,64,92,0
200.76688,200.8718,72,108,0
200.76688,200.8718,57,92,0
200.87402,200.97893,84,108,0
200.87402,200.97893,64,92,0
200.98117,201.08607,71,108,0
200.98117,201.08607,56,92,0
201.0883,201.19322,83,108,0
201.0883,201.19322,64,92,0
201.19545,201.30037,72,108,0
201.19545,201.30037,48,92,0
201.3026,201.4075,84,108,0
201.3026,201.4075,60,92,0
201.40974,201.51465,69,108,0
201.40974,201.51465,45,92,0
201.51688,201.6218,81,108,0
201.51688,201.6218,57,92,0
201.62402,201.72893,67,108,0
201.62402,201.72893,43,92,0
201.73117,201.83607,79,108,0
201.73117,201.83607,55,92,0
201.8383,201.94322,66,108,0
201.8383,201.94322,42,92,0
201.94545,202.05035,78,108,0
201.94545,202.05035,54,92,0
202.0526,202.1575,69,108,0
202.0526,202.1575,45,92,0
202.15973,202.26465,81,108,0
202.15973,202.26465,57,92,0
202.26688,202.37178,66,108,0
202.26688,202.37178,42,92,0
202.37402,202.47893,78,108,0
202.37402,202.47893,54,92,0
202.48116,202.58607,64,108,0
202.48116,202.58607,40,92,0
202.5883,202.69322,76,108,0
202.5883,202.69322,52,92,0
202.69545,202.80035,63,108,0
202.69545,202.80035,39,92,0
202.8026,202.9075,75,108,0
202.8026,202.9075,51,92,0
202.90973,203.01465,64,108,0
202.90973,203.01465,40,92,0
203.01688,203.12178,76,108,0
203.01688,203.12178,52,92,0
203.12402,203.22893,60,108,0
203.12402,203.22893,36,92,0
203.23116,203.33607,48,92,0
203.23116,203.33607,72,108,0
203.3383,203.4432,59,108,0
203.3383,203.4432,35,92,0
203.44545,203.55035,71,108,0
203.44545,203.55035,47,92,0
203.55258,203.6575,58,108,0
203.55258,203.6575,34,92,0
203.65973,203.76463,70,108,0
203.65973,203.76463,46,92,0
203.76688,203.87178,59,108,0
203.76688,203.87178,35,92,0
203.87401,203.97893,71,108,0
203.87401,203.97893,47,92,0
203.98116,204.08607,58,108,0
203.98116,204.08607,34,92,0
204.0883,204.1932,70,108,0
204.0883,204.1932,46,92,0
204.19543,204.30035,59,108,0
204.19543,204.30035,35,92,0
204.30258,204.4075,71,108,0
204.30258,204.4075,47,92,0
204.40973,204.51463,63,108,0
204.40973,204.5883,35,92,0
204.40973,204.5883,47,92,0
204.51688,204.62178,75,108,0
204.62401,204.80258,40,92,0
204.62401,204.80258,52,92,0
204.62401,204.99901,64,108,0
204.62401,204.99901,76,108,0
204.8383,205.01686,55,92,0
204.8383,205.01686,59,92,0
205.05258,205.23116,55,92,0
205.05258,205.23116,59,92,0
205.05258,205.3383,64,108,0
205.05258,205.3383,76,108,0
205.26686,205.44543,55,92,0
205.26686,205.44543,59,92,0
205.37401,205.48116,63,108,0
205.37401,205.48116,75,108,0
205.48116,205.65973,40,92,0
205.48116,205.65973,52,92,0
205.69543,205.87401,55,92,0
205.69543,205.87401,59,92,0
205.90973,206.08829,55,92,0
205.90973,206.08829,59,92,0
205.48116,206.19543,64,108,0
205.48116,206.19543,76,108,0
206.12401,206.30258,55,92,0
206.12401,206.30258,59,92,0
206.23116,206.33829,63,108,0
206.23116,206.33829,75,108,0
206.33829,206.51686,40,92,0
206.33829,206.51686,52,92,0
206.55258,206.73116,55,92,0
206.55258,206.73116,59,92,0
206.76686,206.94543,55,92,0
206.76686,206.94543,59,92,0
206.33829,207.05258,64,108,0
206.33829,207.05258,76,108,0
206.98114,207.15971,55,92,0
206.98114,207.15971,59,92,0
207.08829,207.19543,66,108,0
207.08829,207.19543,78,108,0
207.19543,207.37401,67,108,0
207.19543,207.37401,79,108,0
207.19543,207.37401,52,92,0
207.40971,207.58829,55,92,0
207.40971,207.58829,59,92,0
207.51686,207.62401,70,108,0
207.51686,207.62401,82,108,0
207.62401,207.80257,71,108,0
207.62401,207.80257,83,108,0
207.62401,207.80257,52,92,0
207.83829,208.01686,55,92,0
207.83829,208.01686,59,92,0
207.94543,208.05257,75,108,0
207.94543,208.05257,87,108,0
208.05257,208.10614,52,92,0
208.26686,208.44543,64,92,0
208.26686,208.44543,67,92,0
208.48114,208.65971,59,92,0
208.05257,208.85614,76,108,0
208.05257,208.85614,88,108,0
208.69543,208.874,64,92,0
208.69543,208.874,67,92,0
208.90971,209.08829,45,92,0
208.90971,209.124,74,108,0
208.90971,209.124,86,108,0
209.124,209.17757,73,108,0
209.124,209.17757,85,108,0
209.124,209.30257,64,92,0
209.124,209.30257,67,92,0
209.33829,209.39185,71,108,0
209.33829,209.39185,83,108,0
209.33829,209.51685,57,92,0
209.55257,209.60614,73,108,0
209.55257,209.60614,85,108,0
209.55257,209.73114,64,92,0
209.55257,209.73114,67,92,0
209.76685,209.82042,50,92,0
209.76685,210.14185,74,108,0
209.76685,210.14185,86,108,0
209.98114,210.15971,62,92,0
209.98114,210.15971,65,92,0
210.19542,210.374,57,92,0
210.19542,210.57042,69,108,0
210.19542,210.57042,81,108,0
210.40971,210.58827,62,92,0
210.40971,210.58827,65,92,0
210.624,210.80257,83,108,0
210.624,210.80257,43,92,0
210.83827,210.90747,84,108,0
210.9097,210.9789,83,108,0
210.83827,211.01685,62,92,0
210.83827,211.01685,65,92,0
210.98114,211.05032,84,108,0
211.05257,211.12177,83,108,0
211.124,211.19319,84,108,0
211.05257,211.23114,55,92,0
211.19542,211.26462,83,108,0
211.26685,211.37175,81,108,0
211.26685,211.44542,62,92,0
211.26685,211.44542,65,92,0
211.374,211.4789,83,108,0
211.48112,211.5347,48,92,0
211.69542,211.874,60,92,0
211.69542,211.874,64,92,0
211.9097,212.08827,55,92,0
211.48112,212.2847,72,108,0
211.48112,212.2847,84,108,0
212.124,212.30255,60,92,0
212.124,212.30255,64,92,0
212.33827,212.51685,48,92,0
212.33827,212.55255,71,108,0
212.33827,212.55255,83,108,0
212.55255,212.60612,69,108,0
212.55255,212.60612,81,108,0
212.55255,212.73112,60,92,0
212.55255,212.73112,64,92,0
212.76685,212.82042,68,108,0
212.76685,212.82042,80,108,0
212.76685,212.94542,57,92,0
212.98112,213.0347,69,108,0
212.98112,213.0347,81,108,0
212.98112,213.1597,60,92,0
212.98112,213.1597,64,92,0
213.19542,213.37398,47,92,0
213.19542,213.5704,71,108,0
213.19542,213.5704,76,108,0
213.19542,213.5704,83,108,0
213.4097,213.58827,59,92,0
213.62398,213.80255,55,92,0
213.62398,213.99898,64,108,0
213.62398,213.99898,76,108,0
213.83827,214.01683,52,92,0
214.05255,214.23112,47,92,0
214.05255,214.42755,66,108,0
214.05255,214.42755,78,108,0
214.26683,214.4454,45,92,0
214.48112,214.6597,43,92,0
214.48112,214.85612,59,108,0
214.48112,214.85612,71,108,0
214.6954,214.87398,42,92,0
214.9097,215.0146,64,108,0
214.9097,215.0146,76,108,0
214.9097,215.08826,40,92,0
215.01683,215.12175,59,108,0
215.12398,215.22888,64,108,0
215.23112,215.33603,59,108,0
215.23112,215.33826,39,92,0
215.33826,215.44318,55,108,0
215.4454,215.55031,59,108,0
215.55255,215.65746,64,108,0
215.65968,215.7646,59,108,0
215.76683,215.87175,55,108,0
215.87398,215.97888,59,108,0
215.33826,216.05255,40,92,0
215.98111,216.08603,64,108,0
216.08826,216.19318,59,108,0
216.08826,216.1954,39,92,0
216.1954,216.30031,55,108,0
216.30255,216.40746,59,108,0
216.40968,216.5146,64,108,0
216.51683,216.62173,59,108,0
216.62398,216.72888,55,108,0
216.73111,216.83603,59,108,0
216.1954,216.90968,40,92,0
216.83826,216.94316,64,108,0
216.9454,217.05031,59,108,0
216.9454,217.05254,39,92,0
217.05254,217.15746,55,108,0
217.15968,217.26459,59,108,0
217.05254,217.33826,40,92,0
217.26683,217.37173,64,108,0
217.37396,217.47888,59,108,0
217.37396,217.48111,42,92,0
217.48111,217.58603,55,108,0
217.48111,217.65968,43,92,0
217.58826,217.69316,59,108,0
217.6954,217.80031,64,108,0
217.80254,217.90746,59,108,0
217.80254,217.90968,46,92,0
217.90968,218.01459,55,108,0
217.90968,218.08826,47,92,0
218.01683,218.12173,59,108,0
218.12396,218.22888,64,108,0
218.23111,218.33601,59,108,0
218.23111,218.33826,51,92,0
218.33826,218.44316,55,108,0
218.44539,218.55031,59,108,0
218.55254,218.65744,64,108,0
218.65968,218.76459,59,108,0
218.76682,218.87173,55,108,0
218.87396,218.97888,59,108,0
218.98111,219.08601,64,108,0
218.33826,219.14182,52,92,0
219.08826,219.19316,59,108,0
219.19539,219.30031,55,108,0
219.30254,219.40744,57,108,0
219.19539,219.40968,50,60,0
219.40968,219.46324,48,60,0
219.40968,219.51459,64,108,0
219.51682,219.62173,57,108,0
219.62396,219.67754,47,60,0
219.62396,219.72887,55,108,0
219.73111,219.83601,57,108,0
219.83824,219.89182,48,60,0
219.83824,219.94316,64,108,0
219.19539,219.99896,45,92,0
219.94539,220.0503,57,108,0
220.05254,220.15744,53,108,0
220.05254,220.23111,38,92,0
220.15967,220.26459,57,108,0
220.26682,220.37173,62,108,0
220.05254,220.42754,50,60,0
220.37396,220.47887,55,108,0
220.48111,220.58601,53,108,0
220.58824,220.69316,62,108,0
220.69539,220.8003,57,108,0
220.48111,220.8561,45,60,0
220.80254,220.90744,62,108,0
220.90967,220.93646,31,92,0
220.90967,221.01459,53,108,0
220.93646,221.12172,47,92,0
221.01682,221.12172,55,108,0
221.12396,221.19315,48,92,0
221.12396,221.22887,62,108,0
221.19539,221.26459,47,92,0
221.2311,221.33601,55,108,0
221.26682,221.33601,48,92,0
221.33824,221.40744,47,92,0
221.33824,221.44315,53,108,0
221.40967,221.47887,48,92,0
221.44539,221.5503,55,108,0
221.4811,221.5503,47,92,0
221.55252,221.65744,62,108,0
221.55252,221.65744,45,92,0
221.65967,221.76459,55,108,0
221.65967,221.76459,47,92,0
221.76682,221.87172,52,108,0
221.87395,221.97887,55,108,0
221.9811,222.08601,60,108,0
222.08824,222.19315,55,108,0
222.19539,222.3003,52,108,0
222.30252,222.40744,55,108,0
222.40967,222.51457,60,108,0
221.76682,222.57037,36,92,0
221.76682,222.57037,48,92,0
222.51682,222.62172,64,108,0
222.62395,222.72887,54,108,0
222.7311,222.836,60,108,0
222.62395,222.83824,35,92,0
222.62395,222.83824,47,92,0
222.83824,222.89182,33,92,0
222.83824,222.89182,45,92,0
222.83824,222.94315,64,108,0
222.94537,223.0503,60,108,0
223.05252,223.1061,31,92,0
223.05252,223.1061,43,92,0
223.05252,223.15742,54,108,0
223.15967,223.26457,60,108,0
223.2668,223.32037,33,92,0
223.2668,223.32037,45,92,0
223.2668,223.37172,64,108,0
223.37395,223.47887,60,108,0
223.4811,223.586,54,108,0
223.58824,223.69315,59,108,0
223.69537,223.8003,63,108,0
223.4811,223.8561,35,92,0
223.4811,223.8561,47,92,0
223.80252,223.90742,59,108,0
223.90967,224.01457,55,108,0
224.0168,224.12172,59,108,0
224.12395,224.22885,64,108,0
223.90967,224.28467,40,92,0
224.2311,224.336,59,108,0
224.33823,224.44315,57,108,0
224.44537,224.55028,59,108,0
224.55252,224.65742,64,108,0
224.33823,224.71323,42,92,0
224.65965,224.76457,59,108,0
224.7668,224.87172,54,108,0
224.7668,224.94537,35,92,0
224.87395,224.97885,59,108,0
224.9811,225.086,63,108,0
224.9811,225.15965,33,92,0
225.08823,225.19315,59,108,0
225.19537,225.30028,55,108,0
225.19537,225.37395,31,92,0
225.30252,225.40742,59,108,0
225.40965,225.51457,64,108,0
225.40965,225.58823,43,92,0
225.5168,225.6217,67,108,0
225.62395,225.72885,59,108,0
225.62395,225.8025,43,92,0
225.73108,225.836,64,108,0
225.83823,225.94313,67,108,0
225.83823,226.0168,43,92,0
225.94537,226.05028,71,108,0
226.0525,226.15742,57,108,0
226.0525,226.23108,36,92,0
226.15965,226.26457,64,108,0
226.2668,226.3717,69,108,0
226.2668,226.44537,48,92,0
226.37393,226.47885,64,108,0
226.48108,226.586,57,108,0
226.48108,226.65965,48,92,0
226.58823,226.69313,64,108,0
226.69537,226.80028,69,108,0
226.69537,226.87393,48,92,0
226.8025,226.90742,60,108,0
226.90965,227.01456,59,108,0
226.90965,227.08823,35,92,0
227.0168,227.1217,64,108,0
227.12393,227.22885,67,108,0
227.12393,227.3025,47,92,0
227.23108,227.33598,64,108,0
227.33823,227.44313,59,108,0
227.33823,227.5168,47,92,0
227.44536,227.55028,64,108,0
227.5525,227.65742,67,108,0
227.5525,227.73108,47,92,0
227.65965,227.76456,64,108,0
227.76678,227.8717,59,108,0
227.76678,227.94536,33,92,0
227.87393,227.97885,64,108,0
227.98108,228.08598,66,108,0
227.98108,228.15965,45,92,0
228.08823,228.19313,64,108,0
228.19536,228.30028,59,108,0
228.19536,228.37393,45,92,0
228.3025,228.40741,63,108,0
228.40965,228.51456,66,108,0
228.40965,228.58821,45,92,0
228.51678,228.6217,63,108,0
228.62393,228.72884,59,108,0
228.62393,228.72884,31,92,0
228.73108,228.83598,71,108,0
228.73108,228.83598,43,92,0
228.83821,228.94313,71,108,0
228.83821,228.94313,43,92,0
228.94536,229.05026,83,108,0
228.94536,229.05026,55,92,0
229.0525,229.15741,71,108,0
229.0525,229.15741,43,92,0
229.15964,229.26456,83,108,0
229.15964,229.26456,55,92,0
229.26678,229.3717,71,108,0
229.26678,229.3717,43,92,0
229.37393,229.47884,83,108,0
229.37393,229.47884,55,92,0
229.48108,229.58598,71,108,0
229.48108,229.58598,36,92,0
229.58821,229.69313,83,108,0
229.58821,229.69313,48,92,0
229.69536,229.80026,69,108,0
229.69536,229.80026,48,92,0
229.8025,229.90741,81,108,0
229.8025,229.90741,60,92,0
229.90964,230.01456,67,108,0
229.90964,230.01456,48,92,0
230.01678,230.12169,79,108,0
230.01678,230.12169,60,92,0
230.12393,230.22884,69,108,0
230.12393,230.22884,48,92,0
230.23106,230.33598,81,108,0
230.23106,230.33598,60,92,0
230.33821,230.44312,71,108,0
230.33821,230.44312,47,92,0
230.44536,230.55026,83,108,0
230.44536,230.55026,59,92,0
230.55249,230.65741,71,108,0
230.55249,230.65741,55,92,0
230.65964,230.76456,83,108,0
230.65964,230.76456,52,92,0
230.76678,230.87169,64,108,0
230.76678,230.87169,47,92,0
230.87393,230.97884,76,108,0
230.87393,230.97884,43,92,0
230.98106,231.08598,64,108,0
230.98106,231.08598,40,92,0
231.08821,231.19312,76,108,0
231.08821,231.19312,43,92,0
231.19536,231.30026,35,92,0
231.19536,231.30026,66,108,0
231.30249,231.40741,78,108,0
231.30249,231.40741,47,92,0
231.40964,231.51454,66,108,0
231.40964,231.51454,33,92,0
231.51678,231.62169,78,108,0
231.51678,231.62169,45,92,0
231.62392,231.72884,59,108,0
231.62392,231.72884,31,92,0
231.73106,231.83597,71,108,0
231.73106,231.83597,43,92,0
231.83821,231.94312,59,108,0
231.83821,231.94312,30,92,0
231.94534,232.05026,71,108,0
231.94534,232.05026,42,92,0
232.05249,232.15741,64,108,0
232.05249,232.15741,40,92,0
232.15964,232.26454,76,108,0
232.15964,232.26454,52,92,0
232.26677,232.37169,75,108,0
232.26677,232.37169,51,92,0
232.37392,232.47884,76,108,0
232.37392,232.47884,52,92,0
232.48106,232.58597,64,108,0
232.48106,232.58597,40,92,0
232.58821,232.69312,76,108,0
232.58821,232.69312,52,92,0
232.69534,232.80026,66,108,0
232.69534,232.80026,42,92,0
232.80249,232.9074,76,108,0
232.80249,232.9074,52,92,0
232.90964,233.01454,67,108,0
232.90964,233.01454,43,92,0
233.01677,233.12169,76,108,0
233.01677,233.12169,52,92,0
233.12392,233.22882,66,108,0
233.12392,233.22882,42,92,0
233.23106,233.33597,76,108,0
233.23106,233.33597,52,92,0
233.3382,233.44312,67,108,0
233.3382,233.44312,43,92,0
233.44534,233.55026,76,108,0
233.44534,233.55026,52,92,0
233.55249,233.6574,64,108,0
233.55249,233.6574,40,92,0
233.65962,233.76454,76,108,0
233.65962,233.76454,52,92,0
233.76677,233.94534,59,108,0
233.76677,233.94534,63,108,0
233.76677,233.94534,66,108,0
233.76677,233.94534,71,108,0
233.76677,233.94534,35,92,0
233.76677,233.94534,39,92,0
233.76677,233.94534,42,92,0
233.76677,233.94534,47,92,0
234.62392,234.80249,71,108,0
234.62392,234.80249,75,108,0
234.62392,234.80249,78,108,0
234.62392,234.80249,83,108,0
234.62392,234.80249,47,92,0
234.62392,234.80249,51,92,0
234.62392,234.80249,54,92,0
234.62392,234.80249,59,92,0
235.48105,235.58597,64,108,0
235.48105,235.58597,40,92,0
235.5882,235.6931,76,108,0
235.5882,235.6931,52,92,0
235.69534,235.80025,75,108,0
235.69534,235.80025,51,92,0
235.80247,235.9074,76,108,0
235.80247,235.9074,52,92,0
235.90962,236.01453,64,108,0
235.90962,236.01453,40,92,0
236.01677,236.12167,76,108,0
236.01677,236.12167,52,92,0
236.1239,236.22882,66,108,0
236.1239,236.22882,42,92,0
236.23105,236.33595,76,108,0
236.23105,236.33595,52,92,0
236.3382,236.4431,67,108,0
236.3382,236.4431,43,92,0
236.44533,236.55025,76,108,0
236.44533,236.55025,52,92,0
236.55247,236.6574,66,108,0
236.55247,236.6574,42,92,0
236.65962,236.76453,76,108,0
236.65962,236.76453,52,92,0
236.76677,236.87167,67,108,0
236.76677,236.87167,43,92,0
236.8739,236.97882,76,108,0
236.8739,236.97882,52,92,0
236.98105,237.08595,64,108,0
236.98105,237.08595,40,92,0
237.0882,237.1931,76,108,0
237.0882,237.1931,52,92,0
237.19533,237.3739,59,108,0
237.19533,237.3739,63,108,0
237.19533,237.3739,66,108,0
237.19533,237.3739,71,108,0
237.19533,237.3739,35,92,0
237.19533,237.3739,39,92,0
237.19533,237.3739,42,92,0
237.19533,237.3739,47,92,0
238.05247,238.23105,71,108,0
238.05247,238.23105,75,108,0
238.05247,238.23105,78,108,0
238.05247,238.23105,83,108,0
238.05247,238.23105,47,92,0
238.05247,238.23105,51,92,0
238.05247,238.23105,54,92,0
238.05247,238.23105,59,92,0
238.9096,239.08818,64,108,0
238.9096,239.08818,67,108,0
238.9096,239.08818,71,108,0
238.9096,239.08818,76,108,0
238.9096,239.08818,40,92,0
238.9096,239.08818,43,92,0
238.9096,239.08818,47,92,0
238.9096,239.08818,52,92,0
239.76675,239.94533,71,108,0
239.76675,239.94533,75,108,0
239.76675,239.94533,78,108,0
239.76675,239.94533,83,108,0
239.76675,239.94533,35,92,0
239.76675,239.94533,39,92,0
239.76675,239.94533,42,92,0
239.76675,239.94533,47,92,0
240.62389,240.80246,64,108,0
240.62389,240.80246,67,108,0
240.62389,240.80246,71,108,0
240.62389,240.80246,76,108,0
240.62389,240.80246,40,92,0
240.62389,240.80246,43,92,0
240.62389,240.80246,47,92,0
240.62389,240.80246,52,92,0
241.48103,241.6596,71,108,0
241.48103,241.6596,75,108,0
241.48103,241.6596,78,108,0
241.48103,241.6596,83,108,0
241.48103,241.6596,35,92,0
241.48103,241.6596,39,92,0
241.48103,241.6596,42,92,0
241.48103,241.6596,47,92,0
242.33817,242.51674,64,108,0
242.33817,242.51674,67,108,0
242.33817,242.51674,71,108,0
242.33817,242.51674,76,108,0
242.33817,242.51674,40,92,0
242.33817,242.51674,43,92,0
242.33817,242.51674,47,92,0
242.33817,242.51674,52,92,0
243.19531,243.37389,71,108,0
243.19531,243.37389,75,108,0
243.19531,243.37389,78,108,0
243.19531,243.37389,83,108,0
243.19531,243.37389,35,92,0
243.19531,243.37389,47,92,0
243.62389,243.80246,71,108,0
243.62389,243.80246,75,108,0
243.62389,243.80246,78,108,0
243.62389,243.80246,83,108,0
243.62389,243.80246,33,92,0
243.62389,243.80246,45,92,0
244.05244,247.92744,76,108,0
244.05244,247.92744,83,108,0
244.05244,247.92744,86,108,0
244.05244,247.92744,88,108,0
244.05244,247.92744,32,92,0
244.05244,247.92744,44,92,0
248.05244,251.71912,57,75,0
248.05244,251.71912,60,75,0
248.05244,251.71912,64,75,0
248.05244,251.71912,33,60,0
248.05244,251.71912,45,60,0
251.80244,251.90959,76,60,0
251.90959,252.08817,41,45,0
251.90959,252.08817,53,45,0
252.12389,252.30244,57,45,0
252.12389,252.30244,60,45,0
252.33817,252.51674,57,45,0
252.33817,252.51674,60,45,0
251.90959,252.62387,65,60,0
251.90959,252.62387,77,60,0
252.55244,252.73102,57,45,0
252.55244,252.73102,60,45,0
252.65959,252.76674,76,60,0
252.76674,252.94531,41,45,0
252.76674,252.94531,53,45,0
252.98102,253.15959,57,45,0
252.98102,253.15959,60,45,0
253.1953,253.37387,57,45,0
253.1953,253.37387,60,45,0
252.76674,253.48102,65,60,0
252.76674,253.48102,77,60,0
253.40959,253.58817,57,45,0
253.40959,253.58817,60,45,0
253.51674,253.62387,76,60,0
253.62387,253.80244,41,45,0
253.62387,253.80244,53,45,0
253.83817,254.01672,57,45,0
253.83817,254.01672,60,45,0
254.05244,254.23102,57,45,0
254.05244,254.23102,60,45,0
253.62387,254.33817,65,60,0
253.62387,254.33817,77,60,0
254.26672,254.4453,57,45,0
254.26672,254.4453,60,45,0
254.37387,254.48102,80,60,0
254.48102,254.65959,81,60,0
254.48102,254.65959,53,45,0
254.6953,254.87387,57,45,0
254.6953,254.87387,60,45,0
254.80244,254.90959,83,60,0
254.90959,255.08815,84,60,0
254.90959,255.08815,53,45,0
255.12387,255.30244,57,45,0
255.12387,255.30244,60,45,0
255.23102,255.33815,88,60,0
255.33815,255.51672,53,45,0
255.55244,255.731,57,45,0
255.55244,255.731,60,45,0
255.76672,255.9453,57,45,0
255.76672,255.9453,60,45,0
255.981,256.15958,57,45,0
255.981,256.15958,60,45,0
255.33815,256.19528,89,60,0
256.19528,256.37387,53,45,0
256.19528,256.40958,87,60,0
256.40958,256.58817,57,50,0
256.40958,256.58817,60,50,0
256.40958,256.62387,86,66,0
256.62387,256.80243,53,56,0
256.62387,256.83813,84,72,0
256.83813,257.01672,57,62,0
256.83813,257.01672,60,62,0
256.83813,257.05243,86,78,0
257.05243,257.23102,54,68,0
257.26672,257.44528,57,74,0
257.26672,257.44528,60,74,0
257.05243,257.48102,87,84,0
257.48102,257.65958,57,80,0
257.48102,257.65958,60,80,0
257.48102,257.85602,81,96,0
257.69528,257.87387,57,86,0
257.69528,257.87387,60,86,0
257.90958,258.12387,74,108,0
257.90958,258.12387,86,108,0
257.90958,258.12387,50,92,0
257.90958,258.12387,62,92,0
258.12387,258.17743,72,108,0
258.12387,258.17743,84,108,0
258.12387,258.17743,48,92,0
258.12387,258.17743,60,92,0
258.33813,258.39172,70,108,0
258.33813,258.39172,82,108,0
258.33813,258.39172,46,92,0
258.33813,258.39172,58,92,0
258.55243,258.606,69,108,0
258.55243,258.606,81,108,0
258.55243,258.606,45,92,0
258.55243,258.606,57,92,0
258.76672,258.8716,67,108,0
258.76672,258.8716,79,108,0
258.76672,258.94528,43,92,0
258.76672,258.94528,55,92,0
258.87387,258.97876,58,60,0
258.981,259.0859,62,60,0
259.08813,259.19305,58,60,0
259.19528,259.3002,62,60,0
259.30243,259.40735,58,60,0
259.40958,259.51447,62,60,0
259.51672,259.6216,58,60,0
259.62384,259.72876,55,60,0
259.62384,259.80243,31,45,0
259.62384,259.80243,43,45,0
259.731,259.8359,58,60,0
259.83813,259.94305,62,60,0
259.94528,260.0502,58,60,0
260.05243,260.15735,62,60,0
260.15958,260.26447,58,60,0
260.26672,260.3716,62,60,0
260.37384,260.47876,58,60,0
260.481,260.5859,55,60,0
260.481,260.65958,31,45,0
260.481,260.65958,43,45,0
260.58813,260.69305,58,60,0
260.69528,260.8002,62,60,0
260.80243,260.90732,58,60,0
260.90958,261.01447,62,60,0
261.0167,261.1216,58,60,0
261.12384,261.22876,62,60,0
261.231,261.3359,58,60,0
261.33813,261.44305,55,60,0
261.33813,261.5167,31,45,0
261.33813,261.5167,43,45,0
261.44528,261.5502,58,60,0
261.55243,261.65732,62,60,0
261.65958,261.76447,58,60,0
261.7667,261.8716,55,60,0
261.7667,261.94528,31,45,0
261.7667,261.94528,43,45,0
261.87384,261.97876,58,60,0
261.981,262.0859,62,60,0
262.08813,262.19305,58,60,0
262.19528,262.30017,55,60,0
262.30243,262.40732,58,60,0
262.40955,262.51447,62,60,0
262.5167,262.6216,58,60,0
262.62384,262.72876,50,60,0
262.731,262.8359,58,61,0
262.83813,262.94305,62,62,0
262.19528,262.99884,31,45,0
262.19528,262.99884,43,45,0
262.94528,263.05017,58,63,0
263.05243,263.15732,50,64,0
263.15955,263.26447,60,65,0
263.2667,263.3716,62,66,0
263.37384,263.47876,60,67,0
263.481,263.5859,50,68,0
263.58813,263.69302,60,70,0
263.69528,263.80017,62,72,0
263.05243,263.856,33,45,0
263.05243,263.856,45,45,0
263.8024,263.90732,60,74,0
263.90955,264.01447,50,76,0
264.0167,264.1216,58,78,0
264.12384,264.22876,62,80,0
264.231,264.3359,58,82,0
264.33813,264.44302,50,84,0
264.44528,264.55017,58,86,0
264.5524,264.65732,62,88,0
263.90955,264.71313,31,60,0
263.90955,264.71313,43,60,0
264.65955,264.76447,58,90,0
264.7667,264.8716,56,92,0
264.87384,264.97876,58,94,0
264.981,265.08588,62,96,0
265.08813,265.19302,58,98,0
265.19525,265.30017,56,100,0
265.3024,265.40732,62,102,0
265.40955,265.51447,58,104,0
264.7667,265.57025,29,76,0
264.7667,265.57025,41,76,0
265.5167,265.6216,56,106,0
265.62384,265.8024,55,108,0
265.94525,266.0524,74,108,0
265.62384,266.3381,39,92,0
266.37384,266.481,38,92,0
266.0524,266.7667,63,108,0
266.0524,266.7667,75,108,0
266.8024,266.90955,74,108,0
266.481,267.19525,39,92,0
267.23096,267.3381,38,92,0
266.90955,267.62384,63,108,0
266.90955,267.62384,75,108,0
267.65955,267.7667,74,108,0
267.3381,268.0524,39,92,0
267.7667,268.0524,63,108,0
267.7667,268.0524,75,108,0
268.0881,268.19525,78,108,0
268.0881,268.19525,42,92,0
268.19525,268.37384,67,108,0
268.19525,268.37384,79,108,0
268.19525,268.37384,43,92,0
268.5167,268.6238,81,108,0
268.5167,268.6238,45,92,0
268.6238,268.8024,70,108,0
268.6238,268.8024,82,108,0
268.6238,268.8024,46,92,0
268.94525,269.0524,86,108,0
268.94525,269.0524,50,92,0
269.0524,269.23096,75,108,0
269.0524,269.23096,87,108,0
269.0524,269.85596,39,92,0
269.0524,269.85596,51,92,0
269.90955,270.1238,38,92,0
269.90955,270.1238,50,92,0
270.1238,270.1774,37,92,0
270.1238,270.1774,49,92,0
270.3381,270.39166,35,92,0
270.3381,270.39166,47,92,0
270.5524,270.60596,37,92,0
270.5524,270.60596,49,92,0
270.3381,270.7131,76,108,0
270.3381,270.7131,88,108,0
270.76666,271.14166,38,92,0
270.76666,271.14166,50,92,0
270.76666,271.57025,77,108,0
270.76666,271.57025,89,108,0
271.19525,271.57025,33,92,0
271.19525,271.57025,45,92,0
271.6238,271.6506,35,92,0
271.6506,271.83588,47,92,0
271.6238,271.8381,75,108,0
271.6238,271.8381,87,108,0
271.8381,271.89166,74,108,0
271.8381,271.89166,86,108,0
271.8381,271.9073,48,92,0
271.90952,271.97873,47,92,0
271.98096,272.05014,48,92,0
272.0524,272.10596,72,108,0
272.0524,272.10596,84,108,0
272.0524,272.12158,47,92,0
272.1238,272.19302,48,92,0
272.19525,272.26443,47,92,0
272.26666,272.32025,74,108,0
272.26666,272.32025,86,108,0
272.26666,272.37158,45,92,0
272.3738,272.47873,47,92,0
272.48096,272.85596,75,108,0
272.48096,272.85596,87,108,0
272.48096,273.28452,36,92,0
272.48096,273.28452,48,92,0
272.90952,273.28452,72,108,0
272.90952,273.28452,84,108,0
273.3381,273.55237,34,92,0
273.3381,273.55237,46,92,0
273.55237,273.60596,33,92,0
273.55237,273.60596,45,92,0
273.3381,273.7131,77,108,0
273.3381,273.7131,89,108,0
273.76666,273.82022,31,92,0
273.76666,273.82022,43,92,0
273.98096,274.03452,33,92,0
273.98096,274.03452,45,92,0
273.76666,274.14166,72,108,0
273.76666,274.14166,84,108,0
274.19522,274.57022,34,92,0
274.19522,274.57022,46,92,0
274.19522,274.9988,73,108,0
274.19522,274.9988,85,108,0
274.6238,274.9988,29,92,0
274.6238,274.9988,41,92,0
275.05237,275.07916,31,92,0
275.07916,275.26443,43,92,0
275.05237,275.26666,72,108,0
275.05237,275.26666,84,108,0
275.26666,275.32022,70,108,0
275.26666,275.32022,82,108,0
275.26666,275.33585,44,92,0
275.33807,275.4073,43,92,0
275.40952,275.4787,44,92,0
275.48096,275.53452,68,108,0
275.48096,275.53452,80,108,0
275.48096,275.55014,43,92,0
275.55237,275.62158,44,92,0
275.6238,275.693,43,92,0
275.69522,275.7488,68,108,0
275.69522,275.7488,80,108,0
275.69522,275.80014,41,92,0
275.80237,275.9073,43,92,0
275.90952,276.28452,72,108,0
275.90952,276.28452,84,108,0
275.90952,276.71307,32,92,0
275.90952,276.71307,44,92,0
276.33807,276.71307,68,108,0
276.33807,276.71307,80,108,0
276.76666,276.98093,31,92,0
276.76666,276.98093,43,92,0
276.98093,277.03452,29,92,0
276.98093,277.03452,41,92,0
276.76666,277.14166,73,108,0
276.76666,277.14166,85,108,0
277.19522,277.2488,28,92,0
277.19522,277.2488,40,92,0
277.40952,277.46307,29,92,0
277.40952,277.46307,41,92,0
277.19522,277.57022,68,108,0
277.19522,277.57022,80,108,0
277.62378,277.80237,31,92,0
277.62378,277.80237,43,92,0
277.62378,277.99878,70,108,0
277.62378,277.99878,82,108,0
278.05237,278.12155,40,92,0
278.12378,278.193,41,92,0
278.19522,278.2644,40,92,0
278.26666,278.33585,41,92,0
278.33807,278.4073,38,92,0
278.05237,278.42737,72,108,0
278.05237,278.42737,84,108,0
278.40952,278.4787,40,92,0
278.48093,278.65952,29,92,0
278.48093,278.65952,41,92,0
278.48093,278.85593,68,108,0
278.48093,278.85593,80,108,0
278.90952,278.9787,47,92,0
278.98093,279.05014,48,92,0
279.05237,279.12155,47,92,0
279.12378,279.193,48,92,0
279.19522,279.2644,45,92,0
278.90952,279.28452,77,108,0
278.90952,279.28452,89,108,0
279.26663,279.33585,47,92,0
279.33807,279.51663,76,108,0
279.33807,279.51663,88,108,0
279.33807,279.51663,36,92,0
279.33807,279.51663,48,92,0
279.55237,279.65726,68,108,0
279.65952,279.7644,65,108,0
279.76663,279.87155,67,108,0
279.87378,279.9787,64,108,0
279.98093,280.08585,65,108,0
280.08807,280.193,62,108,0
280.19522,280.3001,64,108,0
280.30237,280.40726,60,108,0
280.4095,280.5144,68,108,0
280.51663,280.62155,65,108,0
280.62378,280.7287,67,108,0
280.73093,280.83585,64,108,0
280.83807,280.943,65,108,0
280.94522,281.0501,62,108,0
281.05237,281.15726,64,108,0
281.1595,281.2644,60,108,0
281.26663,281.37155,68,108,0
281.37378,281.4787,65,108,0
281.48093,281.58585,67,108,0
281.58807,281.69296,64,108,0
281.69522,281.8001,65,108,0
281.80234,281.90726,62,108,0
281.9095,282.0144,67,108,0
282.01663,282.12155,60,108,0
282.12378,282.2287,61,108,0
282.23093,282.33585,58,108,0
282.33807,282.44296,60,108,0
282.44522,282.5501,56,108,0
282.55234,282.65726,58,108,0
282.6595,282.7644,55,108,0
282.76663,282.9452,56,108,0
282.76663,282.9452,41,92,0
282.76663,282.9452,53,92,0
282.98093,283.08582,64,108,0
282.98093,283.08582,61,92,0
283.08807,283.19296,67,108,0
283.08807,283.19296,58,92,0
283.1952,283.3001,65,108,0
283.1952,283.3001,60,92,0
283.30234,283.40726,68,108,0
283.30234,283.40726,56,92,0
283.4095,283.5144,67,108,0
283.4095,283.5144,58,92,0
283.51663,283.62155,70,108,0
283.51663,283.62155,55,92,0
283.62378,283.7287,68,108,0
283.62378,283.7287,56,92,0
283.73093,283.83582,72,108,0
283.73093,283.83582,53,92,0
283.83807,283.94296,64,108,0
283.83807,283.94296,61,92,0
283.9452,284.0501,67,108,0
283.9452,284.0501,58,92,0
284.05234,284.15726,65,108,0
284.05234,284.15726,60,92,0
284.1595,284.2644,68,108,0
284.1595,284.2644,56,92,0
284.26663,284.37155,67,108,0
284.26663,284.37155,58,92,0
284.37378,284.47867,70,108,0
284.37378,284.47867,55,92,0
284.48093,284.58582,68,108,0
284.48093,284.58582,56,92,0
284.58804,284.69296,72,108,0
284.58804,284.69296,53,92,0
284.6952,284.8001,64,108,0
284.6952,284.8001,61,92,0
284.80234,284.90726,67,108,0
284.80234,284.90726,58,92,0
284.9095,285.0144,65,108,0
284.9095,285.0144,60,92,0
285.01663,285.12155,68,108,0
285.01663,285.12155,56,92,0
285.12378,285.22867,67,108,0
285.12378,285.22867,58,92,0
285.23093,285.33582,70,108,0
285.23093,285.33582,55,92,0
285.33804,285.44296,68,108,0
285.33804,285.44296,56,92,0
285.4452,285.5501,72,108,0
285.4452,285.5501,53,92,0
285.55234,285.65726,69,108,0
285.55234,285.65726,54,92,0
285.6595,285.7644,72,108,0
285.6595,285.7644,51,92,0
285.76663,285.87152,70,108,0
285.76663,285.87152,53,92,0
285.87378,285.97867,73,108,0
285.87378,285.97867,49,92,0
285.9809,286.08582,72,108,0
285.9809,286.08582,51,92,0
286.08804,286.19296,75,108,0
286.08804,286.19296,48,92,0
286.1952,286.3001,73,108,0
286.1952,286.37378,46,92,0
286.30234,286.40726,77,108,0
286.4095,286.5144,87,108,0
286.51663,286.62152,78,108,0
286.51663,286.62378,34,92,0
286.62378,286.72867,85,108,0
286.7309,286.83582,77,108,0
286.83804,286.94296,84,108,0
286.9452,287.0501,75,108,0
287.05234,287.15726,82,108,0
287.1595,287.26437,73,108,0
286.62378,287.33804,46,92,0
287.26663,287.37152,87,108,0
287.37375,287.47867,78,108,0
287.37375,287.4809,46,92,0
287.4809,287.58582,85,108,0
287.58804,287.69296,77,108,0
287.6952,287.8001,84,108,0
287.80234,287.90726,75,108,0
287.9095,288.01437,82,108,0
288.01663,288.12152,73,108,0
287.4809,288.1952,58,92,0
288.12375,288.22867,87,108,0
288.2309,288.33582,78,108,0
288.2309,288.33804,58,92,0
288.33804,288.44296,85,108,0
288.33804,288.5166,70,92,0
288.4452,288.5501,77,108,0
288.55234,288.65723,84,108,0
288.6595,288.76437,75,108,0
288.7666,288.87152,82,108,0
288.87375,288.97867,73,108,0
288.9809,289.08582,80,108,0
289.08804,289.19296,72,108,0
289.1952,289.3001,79,108,0
289.30234,289.40723,70,108,0
289.40945,289.51437,77,108,0
289.5166,289.62152,68,108,0
289.62375,289.72867,75,108,0
289.62375,289.80234,39,92,0
289.62375,289.80234,51,92,0
289.7309,289.83582,67,108,0
289.83804,289.94296,62,108,0
289.83804,289.94296,59,92,0
289.9452,290.05008,65,108,0
289.9452,290.05008,56,92,0
290.05234,290.15723,63,108,0
290.05234,290.15723,58,92,0
290.15945,290.26437,67,108,0
290.15945,290.26437,55,92,0
290.2666,290.37152,65,108,0
290.2666,290.37152,56,92,0
290.37375,290.47867,68,108,0
290.37375,290.47867,53,92,0
290.4809,290.58582,67,108,0
290.4809,290.58582,55,92,0
290.58804,290.69293,70,108,0
290.58804,290.69293,51,92,0
290.6952,290.80008,62,108,0
290.6952,290.80008,59,92,0
290.8023,290.90723,65,108,0
290.8023,290.90723,56,92,0
290.90945,291.01437,63,108,0
290.90945,291.01437,58,92,0
291.0166,291.12152,67,108,0
291.0166,291.12152,55,92,0
291.12375,291.22867,65,108,0
291.12375,291.22867,56,92,0
291.2309,291.33582,68,108,0
291.2309,291.33582,53,92,0
291.33804,291.44293,67,108,0
291.33804,291.44293,55,92,0
291.4452,291.55008,70,108,0
291.4452,291.55008,51,92,0
291.5523,291.65723,62,108,0
291.5523,291.65723,59,92,0
291.65945,291.76437,65,108,0
291.65945,291.76437,56,92,0
291.7666,291.87152,63,108,0
291.7666,291.87152,58,92,0
291.87375,291.97867,67,108,0
291.87375,291.97867,55,92,0
291.9809,292.0858,65,108,0
291.9809,292.0858,56,92,0
292.08804,292.19293,68,108,0
292.08804,292.19293,53,92,0
292.19516,292.30008,67,108,0
292.19516,292.30008,55,92,0
292.3023,292.40723,70,108,0
292.3023,292.40723,51,92,0
292.40945,292.51437,67,108,0
292.40945,292.51437,53,92,0
292.5166,292.62152,70,108,0
292.5166,292.62152,49,92,0
292.62375,292.72867,68,108,0
292.62375,292.72867,51,92,0
292.7309,292.8358,72,108,0
292.7309,292.8358,48,92,0
292.83804,292.94293,70,108,0
292.83804,292.94293,49,92,0
292.94516,293.05008,46,92,0
292.94516,293.05008,73,108,0
293.0523,293.15723,72,108,0
293.0523,293.15723,48,92,0
293.15945,293.26437,75,108,0
293.15945,293.26437,44,92,0
293.2666,293.37152,60,108,0
293.2666,293.37152,58,92,0
293.37375,293.47864,63,108,0
293.37375,293.47864,55,92,0
293.4809,293.5858,61,108,0
293.4809,293.5858,56,92,0
293.588,293.69293,65,108,0
293.588,293.69293,53,92,0
293.69516,293.80008,63,108,0
293.69516,293.80008,55,92,0
293.8023,293.90723,67,108,0
293.8023,293.90723,51,92,0
293.90945,294.01437,65,108,0
293.90945,294.01437,53,92,0
294.0166,294.12152,68,108,0
294.0166,294.12152,49,92,0
294.12375,294.22864,65,108,0
294.12375,294.22864,51,92,0
294.2309,294.3358,68,108,0
294.2309,294.3358,48,92,0
294.338,294.44293,67,108,0
294.338,294.44293,49,92,0
294.44516,294.55008,70,108,0
294.44516,294.55008,46,92,0
294.5523,294.65723,68,108,0
294.5523,294.65723,48,92,0
294.65945,294.76437,72,108,0
294.65945,294.76437,44,92,0
294.7666,294.8715,70,108,0
294.7666,294.8715,46,92,0
294.87375,294.97864,73,108,0
294.87375,294.97864,43,92,0
294.98087,295.0858,58,108,0
294.98087,295.0858,56,92,0
295.088,295.19293,62,108,0
295.088,295.19293,53,92,0
295.19516,295.30008,60,108,0
295.19516,295.30008,55,92,0
295.3023,295.40723,64,108,0
295.3023,295.40723,52,92,0
295.40945,295.51437,62,108,0
295.40945,295.51437,53,92,0
295.5166,295.6215,65,108,0
295.5166,295.6215,50,92,0
295.62375,295.72864,64,108,0
295.62375,295.72864,52,92,0
295.73087,295.8358,67,108,0
295.73087,295.8358,48,92,0
295.838,295.94293,64,108,0
295.838,295.94293,49,92,0
295.94516,296.05008,67,108,0
295.94516,296.05008,46,92,0
296.0523,296.15723,65,108,0
296.0523,296.15723,48,92,0
296.15945,296.26434,68,108,0
296.15945,296.26434,44,92,0
296.2666,296.3715,67,108,0
296.2666,296.3715,46,92,0
296.37372,296.47864,70,108,0
296.37372,296.47864,43,92,0
296.48087,296.5858,68,108,0
296.48087,296.5858,44,92,0
296.588,296.69293,72,108,0
296.588,296.69293,41,92,0
296.69516,296.87372,52,92,0
296.69516,296.87372,55,92,0
296.8023,296.90945,65,108,0
296.90945,297.088,77,108,0
296.90945,297.088,53,92,0
296.90945,297.088,56,92,0
297.12372,297.3023,55,92,0
297.12372,297.3023,58,92,0
297.338,297.51657,56,92,0
297.338,297.51657,60,92,0
297.5523,297.73087,57,92,0
297.5523,297.73087,60,92,0
297.65945,297.76657,77,108,0
297.76657,297.94516,89,108,0
297.76657,297.94516,58,92,0
297.76657,297.94516,61,92,0
297.98087,298.15945,60,92,0
297.98087,298.15945,63,92,0
298.19516,298.37372,61,92,0
298.19516,298.37372,65,92,0
298.40945,298.588,50,92,0
298.40945,298.588,53,92,0
298.51657,298.62372,63,108,0
298.62372,298.8023,75,108,0
298.62372,298.8023,51,92,0
298.62372,298.8023,55,92,0
298.838,299.01657,50,92,0
298.838,299.01657,52,92,0
299.0523,299.23087,55,92,0
299.0523,299.23087,58,92,0
299.26657,299.44516,55,92,0
299.26657,299.44516,58,92,0
299.37372,299.48087,75,108,0
299.48087,299.65942,87,108,0
299.48087,299.65942,56,92,0
299.48087,299.65942,60,92,0
299.69516,299.87372,58,92,0
299.69516,299.87372,61,92,0
299.90942,300.088,60,92,0
299.90942,300.088,63,92,0
300.12372,300.22864,82,108,0
300.12372,300.22864,32,92,0
300.23087,300.3358,73,108,0
300.23087,300.3358,44,92,0
300.338,300.4429,80,108,0
300.338,300.4429,34,92,0
300.44516,300.55005,72,108,0
300.44516,300.55005,46,92,0
300.55228,300.6572,79,108,0
300.55228,300.6572,36,92,0
300.65942,300.76434,70,108,0
300.65942,300.76434,48,92,0
300.76657,300.8715,77,108,0
300.76657,300.8715,37,92,0
300.87372,300.97864,68,108,0
300.87372,300.97864,49,92,0
300.98087,301.0858,75,108,0
300.98087,301.0858,37,92,0
301.088,301.1929,67,108,0
301.088,301.1929,49,92,0
301.19513,301.30005,73,108,0
301.19513,301.30005,39,92,0
301.30228,301.4072,65,108,0
301.30228,301.4072,51,92,0
301.40942,301.51434,72,108,0
301.40942,301.51434,41,92,0
301.51657,301.6215,63,108,0
301.51657,301.6215,53,92,0
301.62372,301.72864,70,108,0
301.62372,301.72864,43,92,0
301.73087,301.83575,61,108,0
301.73087,301.83575,55,92,0
301.838,301.9429,80,108,0
301.838,301.9429,31,92,0
301.94513,302.05005,72,108,0
301.94513,302.05005,43,92,0
302.05228,302.1572,79,108,0
302.05228,302.1572,32,92,0
302.15942,302.26434,70,108,0
302.15942,302.26434,44,92,0
302.26657,302.3715,77,108,0
302.26657,302.3715,34,92,0
302.37372,302.4786,68,108,0
302.37372,302.4786,46,92,0
302.48087,302.58575,76,108,0
302.48087,302.58575,36,92,0
302.58798,302.6929,67,108,0
302.58798,302.6929,48,92,0
302.69513,302.80005,73,108,0
302.69513,302.80005,36,92,0
302.80228,302.9072,64,108,0
302.80228,302.9072,48,92,0
302.90942,303.01434,72,108,0
302.90942,303.01434,38,92,0
303.01657,303.1215,65,108,0
303.01657,303.1215,50,92,0
303.12372,303.2286,70,108,0
303.12372,303.2286,40,92,0
303.23087,303.33575,67,108,0
303.23087,303.33575,52,92,0
303.33798,303.4429,41,92,0
303.33798,303.51657,68,108,0
303.44513,303.55005,53,92,0
303.55228,303.6572,89,108,0
303.55228,303.6572,29,92,0
303.65942,303.76434,80,108,0
303.65942,303.76434,41,92,0
303.76657,303.87146,85,108,0
303.76657,303.87146,29,92,0
303.87372,303.9786,77,108,0
303.87372,303.9786,41,92,0
303.98083,304.08575,84,108,0
303.98083,304.08575,29,92,0
304.08798,304.1929,75,108,0
304.08798,304.1929,41,92,0
304.19513,304.30005,82,108,0
304.19513,304.30005,29,92,0
304.30228,304.4072,73,108,0
304.30228,304.4072,41,92,0
304.40942,304.51434,80,108,0
304.40942,304.51434,29,92,0
304.51657,304.62146,72,108,0
304.51657,304.62146,41,92,0
304.62372,304.7286,78,108,0
304.62372,304.7286,29,92,0
304.73083,304.83575,70,108,0
304.73083,304.83575,41,92,0
304.83798,304.9429,77,108,0
304.83798,304.9429,29,92,0
304.94513,305.05005,68,108,0
304.94513,305.05005,41,92,0
305.05228,305.1572,75,108,0
305.05228,305.1572,30,92,0
305.15942,305.2643,66,108,0
305.15942,305.2643,42,92,0
305.26657,305.37146,73,108,0
305.26657,305.37146,30,92,0
305.3737,305.4786,65,108,0
305.3737,305.4786,42,92,0
305.48083,305.58575,72,108,0
305.48083,305.58575,30,92,0
305.58798,305.6929,63,108,0
305.58798,305.6929,42,92,0
305.69513,305.80005,70,108,0
305.69513,305.80005,30,92,0
305.80228,305.9072,61,108,0
305.80228,305.9072,42,92,0
305.90942,306.0143,68,108,0
305.90942,306.0143,32,92,0
306.01657,306.12146,60,108,0
306.01657,306.12146,44,92,0
306.1237,306.2286,66,108,0
306.1237,306.2286,32,92,0
306.23083,306.33575,58,108,0
306.23083,306.33575,44,92,0
306.33798,306.4429,65,108,0
306.33798,306.4429,32,92,0
306.44513,306.55005,56,108,0
306.44513,306.55005,44,92,0
306.55228,306.65717,63,108,0
306.55228,306.65717,32,92,0
306.65942,306.7643,54,108,0
306.65942,306.7643,44,92,0
306.76654,306.95886,53,108,0
306.76654,306.95886,61,108,0
306.76654,306.95886,37,92,0
306.76654,306.95886,49,92,0
306.9973,307.18964,53,45,0
306.9973,307.18964,56,45,0
306.9973,307.18964,61,45,0
306.9973,307.18964,65,45,0
307.2281,307.4204,53,45,0
307.2281,307.4204,56,45,0
307.2281,307.4204,61,45,0
307.2281,307.4204,65,45,0
307.45886,307.65118,53,45,0
307.45886,307.65118,56,45,0
307.45886,307.65118,61,45,0
307.45886,307.65118,65,45,0
307.68964,307.88193,37,60,0
307.68964,307.88193,49,60,0
307.9204,308.1127,53,45,0
307.9204,308.1127,56,45,0
307.9204,308.1127,61,45,0
307.9204,308.1127,65,45,0
308.15115,308.34348,53,45,0
308.15115,308.34348,56,45,0
308.15115,308.34348,61,45,0
308.15115,308.34348,65,45,0
308.38193,308.57425,53,45,0
308.38193,308.57425,56,45,0
308.38193,308.57425,61,45,0
308.38193,308.57425,65,45,0
308.6127,308.80502,37,60,0
308.6127,308.80502,49,60,0
308.84348,309.0358,53,45,0
308.84348,309.0358,56,45,0
308.84348,309.0358,61,45,0
308.84348,309.0358,65,45,0
309.07425,309.26654,53,45,0
309.07425,309.26654,56,45,0
309.07425,309.26654,61,45,0
309.07425,309.26654,65,45,0
309.30502,309.4973,53,45,0
309.30502,309.4973,56,45,0
309.30502,309.4973,61,45,0
309.30502,309.4973,65,45,0
309.5358,309.7281,37,60,0
309.5358,309.7281,49,60,0
309.76654,309.95886,53,45,0
309.76654,309.95886,56,45,0
309.76654,309.95886,61,45,0
309.76654,309.95886,65,45,0
309.9973,310.18964,37,60,0
309.9973,310.18964,49,60,0
310.2281,310.4204,53,45,0
310.2281,310.4204,56,45,0
310.2281,310.4204,61,45,0
310.2281,310.4204,65,45,0
310.68964,310.88193,53,45,0
310.68964,310.88193,56,45,0
310.68964,310.88193,61,45,0
310.68964,310.88193,65,45,0
310.9204,311.1127,53,45,0
310.9204,311.1127,56,45,0
310.9204,311.1127,61,45,0
310.9204,311.1127,65,45,0
310.45886,311.32425,37,60,0
310.45886,311.32425,49,60,0
311.15115,311.34348,53,45,0
311.15115,311.34348,56,45,0
311.15115,311.34348,61,45,0
311.15115,311.34348,65,45,0
311.6127,311.80502,53,45,0
311.6127,311.80502,58,45,0
311.6127,311.80502,65,45,0
311.84348,312.03577,53,45,0
311.84348,312.03577,58,45,0
311.84348,312.03577,65,45,0
311.38193,312.2473,37,60,0
311.38193,312.2473,49,60,0
312.07425,312.26654,53,45,0
312.07425,312.26654,58,45,0
312.07425,312.26654,65,45,0
312.53577,312.7281,53,45,0
312.53577,312.7281,56,45,0
312.53577,312.7281,60,45,0
312.53577,312.7281,65,45,0
312.30502,313.17038,36,60,0
312.30502,313.17038,48,60,0
312.76654,313.42038,72,60,0
313.45886,313.65115,70,60,0
313.68964,313.88193,68,60,0
313.2281,314.09348,67,45,0
313.2281,314.09348,46,45,0
313.2281,314.09348,52,45,0
313.92038,314.1127,70,60,0
314.15115,314.6127,68,45,0
314.15115,314.6127,72,45,0
314.15115,314.6127,44,45,0
314.15115,314.6127,53,45,0
314.6127,315.01654,65,45,0
314.6127,315.305,36,45,0
314.6127,315.305,48,45,0
315.07425,315.53577,64,45,0
315.07425,315.53577,67,45,0
315.305,315.53577,34,45,0
315.305,315.53577,46,45,0
315.53577,315.76654,32,45,0
315.53577,315.76654,44,45,0
315.53577,315.93964,60,45,0
315.76654,315.95886,34,45,0
315.76654,315.95886,46,45,0
315.9973,316.45886,36,45,0
315.9973,316.45886,48,45,0
316.45886,316.8627,56,45,0
316.45886,316.8627,29,45,0
316.45886,316.8627,41,45,0
315.9973,317.1127,65,45,0
317.15115,317.34348,64,60,0
316.92038,317.38193,31,45,0
316.92038,317.38193,43,45,0
317.38193,317.57425,62,60,0
316.92038,317.78577,58,45,0
317.38193,317.78577,36,45,0
317.6127,317.805,64,60,0
317.84348,317.89703,29,45,0
317.84348,317.89703,41,45,0
317.84348,317.94836,56,60,0
317.95062,318.0555,65,60,0
318.05774,318.11133,43,45,0
318.05774,318.16266,58,60,0
318.1649,318.2698,65,60,0
318.27203,318.32562,44,45,0
318.27203,318.37695,60,60,0
318.37918,318.4841,65,60,0
318.48633,318.5399,41,45,0
318.48633,318.59122,58,60,0
318.59348,318.69836,65,60,0
318.7006,318.75418,36,45,0
318.7006,318.75418,48,45,0
318.7006,318.8055,64,60,0
318.80774,318.91266,72,60,0
318.9149,318.96848,50,45,0
318.9149,319.0198,65,60,0
319.02203,319.12695,72,60,0
319.12918,319.18274,52,45,0
319.12918,319.2341,67,60,0
319.23633,319.34122,72,60,0
319.34348,319.39703,48,45,0
319.34348,319.44836,64,60,0
319.4506,319.5555,72,60,0
319.55774,319.61133,41,45,0
319.55774,319.61133,53,45,0
319.55774,319.66266,68,60,0
319.6649,319.7698,77,60,0
319.77203,319.8256,55,45,0
319.77203,319.87695,70,60,0
319.87918,319.98407,77,60,0
319.98633,320.0399,56,45,0
319.98633,320.09122,72,60,0
320.09344,320.19836,77,60,0
320.2006,320.25418,53,45,0
320.2006,320.3055,68,60,0
320.30774,320.41266,77,60,0
320.4149,320.46844,48,45,0
320.4149,320.46844,60,45,0
320.4149,320.5198,76,60,0
320.52203,320.62695,84,60,0
320.62918,320.68274,62,45,0
320.62918,320.73407,77,60,0
320.73633,320.84122,84,60,0
320.84344,320.89703,64,45,0
320.84344,320.94836,79,60,0
320.9506,321.0555,84,60,0
321.05774,321.1113,60,45,0
321.05774,321.16266,76,60,0
321.1649,321.2698,84,60,0
321.27203,321.3256,53,45,0
321.27203,321.3256,65,45,0
321.27203,321.4506,80,60,0
321.4863,321.5399,75,45,0
321.7006,321.75418,86,60,0
321.7006,321.75418,74,45,0
321.9149,321.96844,87,60,0
321.9149,321.96844,72,45,0
322.12918,322.18274,89,60,0
322.12918,322.18274,71,45,0
322.34344,322.39703,72,45,0
322.55774,322.6113,83,60,0
322.55774,322.6113,71,45,0
322.77203,322.8256,84,60,0
322.77203,322.8256,68,45,0
322.9863,323.0399,86,60,0
322.9863,323.0399,67,45,0
323.2006,323.25415,68,45,0
323.4149,323.46844,79,60,0
323.4149,323.46844,67,45,0
323.62915,323.68274,79,60,0
323.62915,323.68274,65,45,0
323.84344,323.897,79,60,0
323.84344,323.897,63,45,0
324.05774,324.1113,79,60,0
324.05774,324.1113,62,45,0
324.272,324.3256,79,60,0
324.272,324.3256,60,45,0
324.4863,324.5399,79,60,0
324.4863,324.5399,59,45,0
324.7006,324.75415,36,45,0
324.7006,324.75415,48,45,0
324.7006,324.8055,51,60,0
324.80774,324.91263,60,60,0
324.9149,324.96844,50,45,0
324.9149,325.01978,53,60,0
325.022,325.12692,60,60,0
325.12915,325.18274,51,45,0
325.12915,325.23407,55,60,0
325.2363,325.34122,60,60,0
325.34344,325.397,48,45,0
325.34344,325.44836,51,60,0
325.4506,325.55548,60,60,0
325.55774,325.6113,43,45,0
325.55774,325.6113,55,45,0
325.55774,325.66263,59,60,0
325.66486,325.76978,67,60,0
325.772,325.8256,57,45,0
325.772,325.87692,60,60,0
325.87915,325.98407,67,60,0
325.9863,326.03986,59,45,0
325.9863,326.09122,62,60,0
326.09344,326.19836,67,60,0
326.2006,326.25415,55,45,0
326.2006,326.30548,59,60,0
326.30774,326.41263,67,60,0
326.41486,326.46844,48,45,0
326.41486,326.46844,60,45,0
326.41486,326.51978,63,60,0
326.522,326.62692,72,60,0
326.62915,326.6827,62,45,0
326.62915,326.73407,65,60,0
326.7363,326.84122,72,60,0
326.84344,326.897,63,45,0
326.84344,326.94833,67,60,0
326.9506,327.05548,72,60,0
327.0577,327.1113,60,45,0
327.0577,327.16263,63,60,0
327.16486,327.26978,72,60,0
327.272,327.3256,55,45,0
327.272,327.3256,67,45,0
327.272,327.37692,71,60,0
327.37915,327.48407,79,60,0
327.4863,327.53986,69,45,0
327.4863,327.59122,72,60,0
327.59344,327.69833,79,60,0
327.70056,327.75415,71,45,0
327.70056,327.80548,74,60,0
327.8077,327.91263,79,60,0
327.91486,327.96844,67,45,0
327.91486,328.01978,71,60,0
328.022,328.12692,79,60,0
328.12915,328.1827,60,45,0
328.12915,328.1827,72,45,0
328.12915,328.3077,75,60,0
328.34344,328.397,70,45,0
328.5577,328.6113,84,60,0
328.5577,328.6113,69,45,0
328.772,328.82556,86,60,0
328.772,328.82556,67,45,0
328.9863,329.03986,87,60,0
328.9863,329.03986,66,45,0
329.20056,329.25415,67,45,0
329.41486,329.4684,81,60,0
329.41486,329.4684,66,45,0
329.62915,329.6827,82,60,0
329.62915,329.6827,63,45,0
329.8434,329.897,84,60,0
329.8434,329.897,62,45,0
330.0577,330.1113,63,45,0
330.272,330.32556,78,60,0
330.272,330.32556,62,45,0
330.48627,330.53986,81,60,0
330.48627,330.53986,60,45,0
330.70056,330.75415,74,60,0
330.70056,330.75415,58,45,0
330.91486,330.9684,86,60,0
330.91486,330.9684,57,45,0
331.12915,331.1827,86,60,0
331.12915,331.1827,55,45,0
331.3434,331.397,86,60,0
331.3434,331.397,54,45,0
331.5577,331.61127,43,45,0
331.5577,331.61127,55,45,0
331.5577,331.66263,58,60,0
331.66486,331.76974,67,60,0
331.772,331.82556,57,45,0
331.772,331.8769,60,60,0
331.87912,331.98404,67,60,0
331.98627,332.03986,58,45,0
331.98627,332.0912,62,60,0
332.0934,332.19833,67,60,0
332.20056,332.25412,55,45,0
332.20056,332.30548,58,60,0
332.3077,332.41263,67,60,0
332.41486,332.4684,50,45,0
332.41486,332.4684,62,45,0
332.41486,332.51974,66,60,0
332.522,332.6269,74,60,0
332.62912,332.6827,64,45,0
332.62912,332.73404,67,60,0
332.73627,332.8412,74,60,0
332.8434,332.89697,66,45,0
332.8434,332.94833,69,60,0
332.95056,333.05548,74,60,0
333.0577,333.11127,62,45,0
333.0577,333.1626,66,60,0
333.16486,333.26974,74,60,0
333.27197,333.32556,55,45,0
333.27197,333.32556,67,45,0
333.27197,333.3769,70,60,0
333.37912,333.48404,79,60,0
333.48627,333.53986,69,45,0
333.48627,333.5912,72,60,0
333.5934,333.69833,79,60,0
333.70056,333.75412,70,45,0
333.70056,333.80548,74,60,0
333.8077,333.9126,79,60,0
333.91486,333.9684,67,45,0
333.91486,334.01974,70,60,0
334.02197,334.1269,79,60,0
334.12912,334.1827,69,45,0
334.12912,334.23404,73,60,0
334.23627,334.3412,79,60,0
334.3434,334.39697,67,45,0
334.3434,334.44833,70,60,0
334.45056,334.55545,73,60,0
334.5577,334.61127,65,45,0
334.5577,334.6626,69,60,0
334.66483,334.76974,73,60,0
334.77197,334.82556,64,45,0
334.77197,334.8769,67,60,0
334.87912,334.98404,73,60,0
334.98627,335.03983,38,45,0
334.98627,335.03983,50,45,0
334.98627,335.0912,53,60,0
335.0934,335.19833,62,60,0
335.20056,335.25412,52,45,0
335.20056,335.30545,55,60,0
335.3077,335.4126,62,60,0
335.41483,335.4684,53,45,0
335.41483,335.51974,57,60,0
335.52197,335.6269,62,60,0
335.62912,335.68268,50,45,0
335.62912,335.73404,53,60,0
335.73627,335.8412,62,60,0
335.8434,335.89697,45,45,0
335.8434,335.89697,57,45,0
335.8434,335.9483,61,60,0
335.95056,336.05545,69,60,0
336.05768,336.11127,59,45,0
336.05768,336.1626,62,60,0
336.16483,336.26974,69,60,0
336.27197,336.32556,61,45,0
336.27197,336.3769,64,60,0
336.37912,336.48404,69,60,0
336.48627,336.53983,57,45,0
336.48627,336.5912,61,60,0
336.5934,336.6983,69,60,0
336.70056,336.75412,50,45,0
336.70056,336.75412,62,45,0
336.70056,336.80545,65,60,0
336.80768,336.9126,74,60,0
336.91483,336.9684,64,45,0
336.91483,337.01974,67,60,0
337.02197,337.1269,74,60,0
337.12912,337.18268,65,45,0
337.12912,337.23404,69,60,0
337.23627,337.34116,74,60,0
337.3434,337.39697,62,45,0
337.3434,337.4483,65,60,0
337.45053,337.55545,74,60,0
337.55768,337.61127,64,45,0
337.55768,337.6626,68,60,0
337.66483,337.76974,74,60,0
337.77197,337.82553,62,45,0
337.77197,337.8769,65,60,0
337.87912,337.98404,68,60,0
337.98627,338.03983,60,45,0
337.98627,338.09116,64,60,0
338.09338,338.1983,68,60,0
338.20053,338.25412,59,45,0
338.20053,338.30545,62,60,0
338.30768,338.4126,68,60,0
338.41483,338.51974,57,108,0
338.41483,338.51974,33,92,0
338.52197,338.6269,69,108,0
338.52197,338.6269,45,92,0
338.62912,338.734,59,108,0
338.62912,338.734,35,92,0
338.73627,338.84116,71,108,0
338.73627,338.84116,47,92,0
338.84338,338.9483,60,108,0
338.84338,338.9483,36,92,0
338.95053,339.05545,72,108,0
338.95053,339.05545,48,92,0
339.05768,339.1626,57,108,0
339.05768,339.1626,33,92,0
339.16483,339.26974,69,108,0
339.16483,339.26974,45,92,0
339.27197,339.3769,64,108,0
339.27197,339.3769,40,92,0
339.37912,339.484,76,108,0
339.37912,339.484,52,92,0
339.48624,339.59116,66,108,0
339.48624,339.59116,42,92,0
339.59338,339.6983,78,108,0
339.59338,339.6983,54,92,0
339.70053,339.80545,68,108,0
339.70053,339.80545,44,92,0
339.80768,339.9126,80,108,0
339.80768,339.9126,56,92,0
339.91483,340.01974,64,108,0
339.91483,340.01974,40,92,0
340.02197,340.12686,76,108,0
340.02197,340.12686,52,92,0
340.12912,340.234,69,108,0
340.12912,340.234,45,92,0
340.23624,340.34116,81,108,0
340.23624,340.34116,57,92,0
340.34338,340.4483,71,108,0
340.34338,340.4483,47,92,0
340.45053,340.55545,83,108,0
340.45053,340.55545,59,92,0
340.55768,340.6626,72,108,0
340.55768,340.6626,48,92,0
340.66483,340.7697,84,108,0
340.66483,340.7697,60,92,0
340.77197,340.87686,69,108,0
340.77197,340.87686,45,92,0
340.8791,340.984,81,108,0
340.8791,340.984,57,92,0
340.98624,341.09116,76,108,0
340.98624,341.09116,52,92,0
341.09338,341.1983,88,108,0
341.09338,341.1983,64,92,0
341.20053,341.30545,74,108,0
341.20053,341.30545,50,92,0
341.30768,341.4126,86,108,0
341.30768,341.4126,62,92,0
341.41483,341.5197,72,108,0
341.41483,341.5197,48,92,0
341.52197,341.62686,84,108,0
341.52197,341.62686,60,92,0
341.6291,341.734,71,108,0
341.6291,341.734,47,92,0
341.73624,341.84116,83,108,0
341.73624,341.84116,59,92,0
341.84338,341.9483,69,108,0
341.84338,341.9483,45,92,0
341.95053,342.05545,81,108,0
341.95053,342.05545,57,92,0
342.05768,342.16257,67,108,0
342.05768,342.16257,43,92,0
342.16483,342.2697,79,108,0
342.16483,342.2697,55,92,0
342.27194,342.37686,65,108,0
342.27194,342.37686,41,92,0
342.3791,342.484,77,108,0
342.3791,342.484,53,92,0
342.48624,342.59116,64,108,0
342.48624,342.59116,40,92,0
342.59338,342.6983,76,108,0
342.59338,342.6983,52,92,0
342.70053,342.80545,62,108,0
342.70053,342.80545,38,92,0
342.80768,342.91257,74,108,0
342.80768,342.91257,50,92,0
342.91483,343.0197,60,108,0
342.91483,343.0197,36,92,0
343.02194,343.12686,72,108,0
343.02194,343.12686,48,92,0
343.1291,343.234,59,108,0
343.1291,343.234,35,92,0
343.23624,343.34116,71,108,0
343.23624,343.34116,47,92,0
343.34338,343.4483,57,108,0
343.34338,343.4483,33,92,0
343.45053,343.55542,69,108,0
343.45053,343.55542,45,92,0
343.55768,343.73624,40,92,0
343.6648,343.77194,52,45,0
343.77194,343.8791,56,45,0
343.8791,343.98624,59,45,0
343.98624,344.09338,64,45,0
344.09338,344.20053,59,45,0
344.20053,344.30768,56,45,0
344.20053,344.30768,47,45,0
344.30768,344.41257,52,45,0
344.30768,344.4148,44,45,0
344.4148,344.59338,40,45,0
344.52194,344.6291,52,45,0
344.6291,344.73624,56,45,0
344.73624,344.84338,59,45,0
344.84338,344.95053,64,45,0
344.95053,345.05765,59,45,0
345.05765,345.1648,56,45,0
345.05765,345.1648,48,45,0
345.1648,345.2697,52,45,0
345.1648,345.27194,45,45,0
345.27194,345.45053,40,45,0
345.3791,345.48624,52,45,0
345.48624,345.59338,56,45,0
345.59338,345.70053,59,45,0
345.70053,345.80765,64,45,0
345.80765,345.9148,59,45,0
345.9148,346.02194,56,45,0
345.9148,346.02194,47,45,0
346.02194,346.12686,52,45,0
346.02194,346.1291,44,45,0
346.1291,346.30765,40,45,0
346.23624,346.34338,52,45,0
346.34338,346.4505,57,45,0
346.4505,346.55765,60,45,0
346.55765,346.6648,64,45,0
346.6648,346.77194,60,45,0
346.77194,346.8791,57,45,0
346.77194,346.8791,48,45,0
346.8791,346.984,52,45,0
346.8791,346.98624,45,45,0
346.98624,347.1648,40,45,0
347.09338,347.19827,52,45,0
347.2005,347.30542,56,45,0
347.30765,347.41257,59,45,0
347.4148,347.5197,64,45,0
347.52194,347.62686,68,47,0
347.6291,347.73398,71,49,0
347.73624,347.84113,76,52,0
347.73624,347.84335,52,51,0
347.84335,348.02194,40,53,0
347.9505,348.05542,54,57,0
348.05765,348.16257,57,60,0
348.1648,348.2697,60,63,0
348.27194,348.37686,66,66,0
348.3791,348.48398,69,69,0
348.48624,348.59113,72,72,0
348.59335,348.69827,78,75,0
348.59335,348.7005,52,67,0
348.7005,348.8791,40,69,0
348.80765,348.91257,56,81,0
348.9148,349.0197,59,84,0
349.02194,349.12683,62,87,0
349.1291,349.23398,68,90,0
349.2362,349.34113,71,93,0
349.34335,349.44827,74,96,0
349.4505,349.55542,80,99,0
349.4505,349.55765,52,85,0
349.55765,349.7362,40,87,0
349.6648,349.7697,57,105,0
349.77194,349.87683,60,108,0
349.87906,349.98398,64,111,0
349.9862,350.09113,69,114,0
350.09335,350.19827,72,117,0
350.2005,350.30542,76,120,0
350.30765,350.41257,81,123,0
350.30765,350.4148,52,105,0
350.4148,350.52008,86,127,0
350.4148,350.59473,40,108,0
350.52234,350.62885,89,127,0
350.63113,350.73886,86,127,0
350.74115,350.85013,84,124,0
350.85245,350.9627,83,121,0
350.96506,351.07663,86,118,0
351.079,351.1919,83,115,0
351.1943,351.30856,81,112,0
351.311,351.4267,80,108,0
351.42917,351.5463,83,104,0
351.5488,351.6674,77,100,0
351.66992,351.79004,76,96,0
351.7926,351.91428,74,92,0
351.91687,352.04013,77,88,0
352.04276,352.16766,74,84,0
352.17032,352.2969,72,80,0
352.29962,352.42792,71,76,0
352.43066,352.56076,74,72,0
352.56354,352.69543,71,68,0
352.69827,352.83206,69,64,0
352.83493,352.97064,68,60,0
352.97354,353.11124,77,60,0
353.1142,353.25394,74,60,0
352.83493,353.32913,52,45,0
352.83493,353.32913,59,45,0
352.83493,353.32913,62,45,0
353.25693,353.39877,72,60,0
353.40182,353.54584,71,60,0
353.54895,353.69522,74,59,0
353.69836,353.84695,71,57,0
353.40182,353.9269,52,45,0
353.40182,353.9269,59,45,0
353.40182,353.9269,62,45,0
353.85013,354.0011,69,55,0
354.00436,354.15778,68,53,0
354.16107,354.31705,74,51,0
354.3204,354.479,71,49,0
354.00436,354.56445,52,45,0
354.00436,354.56445,59,45,0
354.00436,354.56445,62,45,0
354.4824,354.64374,69,47,0
354.6472,356.8972,68,45,0
354.6472,356.8972,52,45,0
354.6472,356.8972,59,45,0
354.6472,356.8972,62,45,0
356.9805,357.1948,68,45,0
356.9805,357.1948,80,45,0
357.1948,357.37335,33,45,0
357.1948,357.5698,69,45,0
357.1948,357.5698,81,45,0
357.9448,358.05194,45,52,0
358.05194,358.2305,33,53,0
357.62335,358.4805,57,45,0
357.62335,358.4805,69,45,0
358.4805,358.8555,56,63,0
358.4805,358.8555,68,63,0
358.80194,358.9091,45,63,0
358.9091,359.08765,33,64,0
358.9091,359.2841,55,72,0
358.9091,359.2841,67,72,0
359.65906,359.7662,45,74,0
359.7662,359.9448,33,76,0
359.33765,360.1948,67,81,0
359.33765,360.1948,79,81,0
360.1948,360.5698,65,99,0
360.1948,360.5698,77,99,0
360.5162,360.62335,45,90,0
360.62335,360.8019,61,108,0
360.62335,360.8019,73,108,0
360.62335,360.8019,33,92,0
362.7662,363.15527,57,60,0
362.7662,363.15527,61,60,0
362.7662,363.15527,64,60,0
362.7662,363.15527,67,60,0
362.7662,363.15527,45,45,0
362.7662,363.15527,52,45,0
362.7662,363.15527,55,45,0
363.21353,363.64236,57,60,0
363.21353,363.64236,61,60,0
363.21353,363.64236,64,60,0
363.21353,363.64236,67,60,0
363.21353,363.64236,45,45,0
363.21353,363.64236,52,45,0
363.21353,363.64236,55,45,0
363.70682,364.18442,57,53,0
363.70682,364.18442,61,53,0
363.70682,364.18442,64,53,0
363.70682,364.18442,67,53,0
363.70682,364.18442,45,38,0
363.70682,364.18442,52,38,0
363.70682,364.18442,55,38,0
364.25674,366.46115,57,45,0
364.25674,366.46115,61,45,0
364.25674,366.46115,64,45,0
364.25674,366.46115,67,45,0
364.25674,366.46115,45,30,0
364.25674,366.46115,52,30,0
364.25674,366.46115,55,30,0
366.54446,366.7845,69,45,0
366.7845,368.40448,58,45,0
366.7845,368.40448,62,45,0
366.7845,368.40448,67,45,0
366.7845,368.40448,70,45,0
366.7845,368.40448,31,30,0
366.7845,368.40448,38,30,0
366.7845,368.40448,43,30,0
368.46448,368.70447,69,60,0
368.70447,369.36447,58,60,0
368.70447,369.36447,62,60,0
368.70447,369.36447,70,60,0
368.70447,369.36447,43,45,0
368.70447,369.36447,50,45,0
368.70447,369.36447,55,45,0
369.42447,369.6645,55,60,0
369.42447,369.6645,62,60,0
369.42447,369.6645,46,45,0
369.42447,369.6645,50,45,0
369.6645,369.86447,57,60,0
369.6645,369.86447,61,60,0
369.6645,369.86447,45,45,0
369.6645,369.86447,52,45,0
369.90448,369.96448,57,60,0
370.14447,370.20447,57,60,0
370.38446,370.62448,61,60,0
370.62448,370.68448,62,60,0
370.62448,370.82446,38,45,0
370.62448,370.82446,50,45,0
370.86447,370.92447,57,60,0
371.10446,371.1645,57,60,0
371.34448,371.58447,62,60,0
371.58447,371.64447,64,60,0
371.58447,371.7845,33,45,0
371.58447,371.7845,45,45,0
371.82446,371.88446,57,60,0
372.06448,372.12448,57,60,0
372.30447,372.54446,64,60,0
372.54446,372.60446,65,60,0
372.54446,372.74448,38,45,0
372.54446,372.74448,50,45,0
372.7845,372.84448,62,62,0
373.02448,373.08447,62,64,0
373.26447,373.32446,65,66,0
373.5045,373.56448,65,68,0
373.5045,373.70447,38,54,0
373.5045,373.70447,50,54,0
373.74448,373.80447,62,70,0
373.98447,374.04446,62,72,0
373.98447,374.18448,38,60,0
373.98447,374.18448,50,60,0
374.2245,374.2845,65,75,0
374.46448,374.6645,36,45,0
374.46448,374.6645,48,45,0
374.46448,375.36447,67,60,0
375.42447,376.32446,60,60,0
375.42447,376.32446,64,60,0
375.42447,376.32446,67,60,0
375.42447,376.32446,72,60,0
375.42447,376.32446,36,45,0
375.42447,376.32446,40,45,0
375.42447,376.32446,43,45,0
375.42447,376.32446,48,45,0
376.38446,378.0045,57,60,0
376.38446,378.0045,60,60,0
376.38446,378.0045,65,60,0
376.38446,378.0045,69,60,0
376.38446,378.0045,41,45,0
376.38446,378.0045,45,45,0
376.38446,378.0045,48,45,0
376.38446,378.0045,53,45,0
378.06448,378.30447,69,60,0
378.30447,378.96448,70,60,0
379.02448,379.26447,69,45,0
379.02448,379.26447,66,30,0
379.26447,379.92447,70,45,0
379.26447,379.92447,67,30,0
379.98447,380.2245,69,45,0
379.98447,380.2245,66,30,0
380.2245,380.88446,70,45,0
380.2245,380.88446,67,30,0
380.9445,381.18448,69,45,0
380.9445,381.18448,66,30,0
381.18448,381.84448,70,45,0
381.18448,381.84448,67,30,0
381.90448,382.14447,67,45,0
381.90448,382.14447,70,45,0
381.90448,382.14447,60,30,0
382.14447,382.80447,65,45,0
382.14447,382.80447,69,45,0
382.14447,382.80447,53,30,0
382.86447,383.10446,67,53,0
382.86447,383.10446,70,53,0
382.86447,383.10446,48,38,0
382.86447,383.76447,60,53,0
383.10446,383.76447,65,56,0
383.10446,383.76447,69,56,0
383.10446,383.76447,41,40,0
383.82446,384.06448,67,65,0
383.82446,384.06448,70,65,0
383.82446,384.06448,36,48,0
383.82446,384.7245,60,65,0
384.06448,384.7245,65,68,0
384.06448,384.7245,69,68,0
384.06448,384.7245,29,51,0
384.7845,385.02448,67,77,0
384.7845,385.02448,70,77,0
384.7845,385.02448,36,60,0
384.7845,385.2245,60,77,0
385.02448,385.2245,65,80,0
385.02448,385.2245,69,80,0
385.02448,385.2245,41,63,0
385.26447,385.5045,67,83,0
385.26447,385.5045,70,83,0
385.26447,385.5045,36,66,0
385.26447,385.70447,60,83,0
385.5045,385.70447,65,86,0
385.5045,385.70447,69,86,0
385.5045,385.70447,41,69,0
385.74448,385.9445,57,89,0
385.74448,385.9445,61,89,0
385.74448,385.9445,67,89,0
385.74448,385.9445,69,89,0
385.74448,385.9445,33,72,0
385.74448,385.9445,45,72,0
385.98447,386.64447,57,92,0
385.98447,386.64447,62,92,0
385.98447,386.64447,65,92,0
385.98447,386.64447,69,92,0
385.98447,386.64447,38,75,0
385.98447,386.64447,50,75,0
386.70447,386.91876,57,60,0
386.70447,386.91876,62,60,0
386.70447,386.91876,41,45,0
386.70447,386.91876,53,45,0
386.91876,387.09732,56,60,0
386.91876,387.09732,59,60,0
386.91876,387.09732,64,60,0
386.91876,387.09732,40,45,0
386.91876,387.09732,52,45,0
387.7759,387.95447,57,60,0
387.7759,387.95447,60,60,0
387.7759,387.95447,64,60,0
387.7759,387.95447,33,45,0
387.7759,387.95447,45,45,0
388.63303,388.8116,56,60,0
388.63303,388.8116,59,60,0
388.63303,388.8116,64,60,0
388.63303,388.8116,40,45,0
388.63303,388.8116,52,45,0
389.49017,389.66876,57,60,0
389.49017,389.66876,60,60,0
389.49017,389.66876,64,60,0
389.49017,389.66876,33,45,0
389.49017,389.66876,45,45,0
390.34732,390.52588,57,64,0
390.34732,390.52588,60,64,0
390.34732,390.52588,64,64,0
390.34732,390.52588,33,49,0
390.34732,390.52588,45,49,0
390.77588,390.95447,57,66,0
390.77588,390.95447,60,66,0
390.77588,390.95447,64,66,0
390.77588,390.95447,33,51,0
390.77588,390.95447,45,51,0
391.20447,391.38303,59,68,0
391.20447,391.38303,62,68,0
391.20447,391.38303,67,68,0
391.20447,391.38303,31,53,0
391.20447,391.38303,43,53,0
392.15445,392.33304,55,72,0
392.15445,392.33304,59,72,0
392.15445,392.33304,62,72,0
392.15445,392.33304,67,72,0
392.15445,392.33304,31,57,0
392.15445,392.33304,43,57,0
393.10446,394.76517,60,76,0
393.10446,394.76517,64,76,0
393.10446,394.76517,36,61,0
393.10446,394.76517,43,61,0
393.10446,394.76517,48,61,0
393.10446,394.76517,55,76,0
394.81873,395.6223,62,86,0
394.81873,395.6223,67,86,0
394.81873,395.6223,71,86,0
394.81873,395.6223,74,86,0
394.81873,395.6223,43,71,0
394.81873,395.6223,47,71,0
394.81873,395.6223,50,71,0
394.81873,395.6223,55,71,0
395.67587,396.47943,67,91,0
395.67587,396.47943,71,91,0
395.67587,396.47943,74,91,0
395.67587,396.47943,79,91,0
395.67587,396.47943,31,76,0
395.67587,396.47943,35,76,0
395.67587,396.47943,38,76,0
395.67587,396.47943,43,76,0
396.53302,396.71158,64,96,0
396.53302,396.71158,67,96,0
396.53302,396.71158,72,96,0
396.53302,396.71158,76,96,0
396.53302,396.71158,36,81,0
396.53302,396.71158,40,81,0
396.53302,396.71158,43,81,0
396.53302,396.71158,48,81,0
397.9116,398.2866,64,104,0
397.9116,398.2866,69,104,0
397.9116,398.2866,73,104,0
397.9116,398.2866,76,104,0
397.9116,398.2866,45,89,0
397.9116,398.2866,49,89,0
397.9116,398.2866,52,89,0
397.9116,398.2866,57,89,0
398.34015,399.1437,65,108,0
398.34015,399.1437,69,108,0
398.34015,399.1437,74,108,0
398.34015,399.1437,77,108,0
398.34015,399.1437,50,92,0
398.34015,399.1437,53,92,0
398.34015,399.1437,57,92,0
398.34015,399.1437,62,92,0
399.1973,400.00085,74,108,0
399.1973,400.00085,81,108,0
399.1973,400.00085,86,108,0
399.1973,400.00085,41,92,0
399.1973,400.00085,45,92,0
399.1973,400.00085,50,92,0
399.1973,400.00085,53,92,0
400.05444,400.233,74,108,0
400.05444,400.233,80,108,0
400.05444,400.233,83,108,0
400.05444,400.233,40,92,0
400.05444,400.233,44,92,0
400.05444,400.233,47,92,0
400.05444,400.233,52,92,0
401.34015,401.7687,68,108,0
401.34015,401.7687,74,108,0
401.34015,401.7687,80,108,0
401.34015,401.7687,40,92,0
401.34015,401.7687,52,92,0
401.7687,401.9473,69,108,0
401.7687,401.9473,72,108,0
401.7687,401.9473,81,108,0
401.7687,401.9473,41,92,0
401.7687,401.9473,53,92,0
401.983,402.16156,53,92,0
402.1973,402.37585,53,92,0
402.41156,402.59015,53,92,0
402.1973,402.8044,60,108,0
402.1973,402.8044,72,108,0
402.62585,402.8044,41,92,0
402.62585,402.8044,53,92,0
402.84015,403.0187,53,92,0
402.84015,403.0544,60,108,0
402.84015,403.0544,72,108,0
403.0544,403.233,53,92,0
403.0544,403.2687,62,108,0
403.0544,403.2687,74,108,0
403.2687,403.44727,63,108,0
403.2687,403.44727,75,108,0
403.2687,403.44727,53,92,0
403.483,403.66156,40,92,0
403.483,403.69727,64,108,0
403.483,403.69727,76,108,0
403.69727,403.75085,60,108,0
403.69727,403.75085,72,108,0
403.69727,403.87585,52,92,0
403.91156,403.96512,57,108,0
403.91156,403.96512,69,108,0
403.91156,404.09012,52,92,0
404.12585,404.1794,57,108,0
404.12585,404.1794,69,108,0
404.12585,404.3044,52,92,0
404.34012,404.5187,40,92,0
404.34012,404.5544,62,108,0
404.34012,404.5544,74,108,0
404.5544,404.608,59,108,0
404.5544,404.608,71,108,0
404.5544,404.733,52,92,0
404.7687,404.82227,56,108,0
404.7687,404.82227,68,108,0
404.7687,404.94727,52,92,0
404.983,405.03656,56,108,0
404.983,405.03656,68,108,0
404.983,405.16156,52,92,0
405.19727,405.3022,45,45,0
405.19727,405.37585,57,60,0
405.3044,405.37585,57,45,0
405.19727,405.37585,69,60,0
405.41156,405.51648,60,45,0
405.5187,405.6236,57,45,0
405.62585,405.73074,60,45,0
405.73297,405.8379,57,45,0
405.84012,405.94504,60,45,0
405.94727,406.0522,57,45,0
406.0544,406.15933,60,45,0
406.16156,406.26648,57,45,0
406.2687,406.3736,60,45,0
406.37585,406.48074,57,45,0
406.48297,406.5879,60,45,0
406.59012,406.69504,57,45,0
406.69727,406.8022,60,45,0
406.8044,406.90933,57,45,0
406.91156,407.01645,69,60,0
406.91156,407.01645,33,45,0
407.0187,407.1236,81,60,0
407.0187,407.1236,45,45,0
407.12582,407.23074,80,60,0
407.12582,407.23074,44,45,0
407.23297,407.3379,81,60,0
407.23297,407.3379,45,45,0
407.34012,407.44504,69,60,0
407.34012,407.44504,33,45,0
407.44727,407.5522,81,60,0
407.44727,407.5522,45,45,0
407.5544,407.65933,71,60,0
407.5544,407.65933,35,45,0
407.66156,407.76645,81,60,0
407.66156,407.76645,45,45,0
407.7687,407.8736,72,60,0
407.7687,407.8736,36,45,0
407.87582,407.98074,81,60,0
407.87582,407.98074,45,45,0
407.98297,408.0879,71,60,0
407.98297,408.0879,35,45,0
408.09012,408.19504,81,60,0
408.09012,408.19504,45,45,0
408.19727,408.3022,72,60,0
408.19727,408.3022,36,45,0
408.3044,408.4093,81,60,0
408.3044,408.4093,45,45,0
408.41156,408.51645,69,60,0
408.41156,408.51645,33,45,0
408.51868,408.6236,81,60,0
408.51868,408.6236,45,45,0
408.62582,408.73074,40,45,0
408.62582,408.73074,52,45,0
408.62582,408.8044,76,60,0
408.73297,408.8379,56,45,0
408.84012,408.94504,59,45,0
408.94727,409.0522,56,45,0
409.0544,409.1593,59,45,0
409.16153,409.26645,56,45,0
409.26868,409.3736,59,45,0
409.37582,409.48074,56,45,0
409.48297,409.5879,59,45,0
409.59012,409.69504,56,45,0
409.69727,409.80215,59,45,0
409.8044,409.9093,56,45,0
409.91153,410.01645,59,45,0
410.01868,410.1236,56,45,0
410.12582,410.23074,59,45,0
410.23297,410.3379,56,45,0
410.34012,410.445,76,60,0
410.34012,410.445,40,45,0
410.44727,410.55215,88,60,0
410.44727,410.55215,52,45,0
410.55438,410.6593,87,60,0
410.55438,410.6593,51,45,0
410.66153,410.76645,88,60,0
410.66153,410.76645,52,45,0
410.76868,410.8736,76,60,0
410.76868,410.8736,40,45,0
410.87582,410.98074,88,60,0
410.87582,410.98074,52,45,0
410.98297,411.0879,77,60,0
410.98297,411.0879,41,45,0
411.09012,411.195,89,60,0
411.09012,411.195,53,45,0
411.19727,411.30215,76,60,0
411.19727,411.30215,40,45,0
411.30438,411.4093,88,60,0
411.30438,411.4093,52,45,0
411.41153,411.51645,74,60,0
411.41153,411.51645,38,45,0
411.51868,411.6236,86,60,0
411.51868,411.6236,50,45,0
411.62582,411.73074,72,60,0
411.62582,411.73074,36,45,0
411.73297,411.83786,84,60,0
411.73297,411.83786,48,45,0
411.84012,411.945,71,60,0
411.84012,411.945,35,45,0
411.94724,412.05215,83,60,0
411.94724,412.05215,47,45,0
412.05438,412.1593,69,60,0
412.05438,412.23297,33,45,0
412.05438,412.23297,45,45,0
412.16153,412.26645,81,60,0
412.26868,412.3736,80,60,0
412.37582,412.48074,81,60,0
412.48297,412.58786,69,60,0
412.59012,412.695,81,60,0
412.69724,412.80215,71,60,0
412.80438,412.9093,81,60,0
412.91153,413.01645,72,60,0
413.01868,413.1236,81,60,0
413.12582,413.2307,74,60,0
413.23297,413.33786,81,60,0
413.3401,413.445,72,60,0
413.44724,413.55215,81,60,0
413.55438,413.6593,71,60,0
413.66153,413.76645,81,60,0
413.76868,413.8736,33,45,0
413.76868,413.94724,69,60,0
413.87582,413.9807,45,45,0
413.98297,414.08786,44,45,0
414.0901,414.195,45,45,0
414.19724,414.30215,33,45,0
414.30438,414.4093,45,45,0
414.41153,414.51645,35,45,0
414.51868,414.62357,45,45,0
414.62582,414.7307,36,45,0
414.73294,414.83786,45,45,0
414.8401,414.945,35,45,0
414.94724,415.05215,45,45,0
415.05438,415.1593,36,45,0
415.16153,415.26645,45,45,0
415.26868,415.37357,33,45,0
415.37582,415.4807,45,45,0
415.48294,415.58786,76,60,0
415.48294,415.66153,40,45,0
415.5901,415.695,88,60,0
415.69724,415.80215,87,60,0
415.80438,415.9093,88,60,0
415.91153,416.01642,76,60,0
416.01868,416.12357,88,60,0
416.1258,416.2307,78,60,0
416.23294,416.33786,88,60,0
416.3401,416.445,80,60,0
416.44724,416.55215,88,60,0
416.55438,416.6593,81,60,0
416.66153,416.76642,88,60,0
416.76868,416.87357,83,60,0
416.8758,416.9807,88,60,0
416.98294,417.08786,80,60,0
417.0901,417.195,88,60,0
417.19724,417.30215,40,45,0
417.19724,417.3758,76,60,0
417.30438,417.40927,52,47,0
417.41153,417.51642,51,50,0
417.51865,417.62357,52,53,0
417.6258,417.7307,40,56,0
417.73294,417.83786,52,59,0
417.8401,417.945,41,62,0
417.94724,418.05215,53,65,0
418.05438,418.15927,40,68,0
418.16153,418.26642,52,71,0
418.26865,418.37357,38,74,0
418.3758,418.4807,50,77,0
418.48294,418.58786,36,80,0
418.5901,418.695,48,83,0
418.69724,418.80212,35,86,0
418.80438,418.90927,47,89,0
418.9115,419.01642,57,108,0
418.9115,419.01642,33,92,0
418.9115,419.01642,45,92,0
419.01865,419.12357,60,108,0
419.01865,419.12357,48,92,0
419.1258,419.2307,64,108,0
419.1258,419.2307,52,92,0
419.23294,419.33786,60,108,0
419.23294,419.33786,48,92,0
419.3401,419.445,64,108,0
419.3401,419.445,52,92,0
419.44724,419.55212,60,108,0
419.44724,419.55212,48,92,0
419.55435,419.65927,57,108,0
419.55435,419.65927,45,92,0
419.6615,419.76642,60,108,0
419.6615,419.76642,48,92,0
419.76865,419.87357,57,108,0
419.76865,419.87357,45,92,0
419.8758,419.9807,60,108,0
419.8758,419.9807,48,92,0
419.98294,420.08786,65,108,0
419.98294,420.08786,53,92,0
420.0901,420.19498,60,108,0
420.0901,420.19498,48,92,0
420.19724,420.30212,65,108,0
420.19724,420.30212,53,92,0
420.30435,420.40927,60,108,0
420.30435,420.40927,48,92,0
420.4115,420.51642,57,108,0
420.4115,420.51642,45,92,0
420.51865,420.62357,60,108,0
420.51865,420.62357,48,92,0
420.6258,420.7307,59,108,0
420.6258,420.7307,47,92,0
420.73294,420.83786,62,108,0
420.73294,420.83786,50,92,0
420.8401,420.94498,65,108,0
420.8401,420.94498,53,92,0
420.9472,421.05212,67,108,0
420.9472,421.05212,55,92,0
421.05435,421.15927,71,108,0
421.05435,421.15927,59,92,0
421.1615,421.26642,74,108,0
421.1615,421.26642,62,92,0
421.26865,421.37357,77,108,0
421.26865,421.37357,65,92,0
421.3758,421.4807,74,108,0
421.3758,421.4807,62,92,0
421.48294,421.58783,77,108,0
421.48294,421.58783,65,92,0
421.5901,421.69498,74,108,0
421.5901,421.69498,62,92,0
421.6972,421.80212,71,108,0
421.6972,421.80212,59,92,0
421.80435,421.90927,67,108,0
421.80435,421.90927,55,92,0
421.9115,422.01642,65,108,0
421.9115,422.01642,53,92,0
422.01865,422.12357,67,108,0
422.01865,422.12357,55,92,0
422.1258,422.23068,65,108,0
422.1258,422.23068,53,92,0
422.23294,422.33783,62,108,0
422.23294,422.33783,50,92,0
422.34006,422.44498,60,108,0
422.34006,422.44498,48,92,0
422.4472,422.55212,64,108,0
422.4472,422.55212,52,92,0
422.55435,422.65927,67,108,0
422.55435,422.65927,55,92,0
422.6615,422.76642,64,108,0
422.6615,422.76642,52,92,0
422.76865,422.87357,67,108,0
422.76865,422.87357,55,92,0
422.8758,422.98068,64,108,0
422.8758,422.98068,52,92,0
422.98294,423.08783,60,108,0
422.98294,423.08783,48,92,0
423.09006,423.19498,64,108,0
423.09006,423.19498,52,92,0
423.1972,423.30212,61,108,0
423.1972,423.30212,49,92,0
423.30435,423.40927,64,108,0
423.30435,423.40927,52,92,0
423.4115,423.51642,69,108,0
423.4115,423.51642,57,92,0
423.51865,423.62354,64,108,0
423.51865,423.62354,52,92,0
423.6258,423.73068,69,108,0
423.6258,423.73068,57,92,0
423.7329,423.83783,64,108,0
423.7329,423.83783,52,92,0
423.84006,423.94498,61,108,0
423.84006,423.94498,49,92,0
423.9472,424.05212,64,108,0
423.9472,424.05212,52,92,0
424.05435,424.15927,62,108,0
424.05435,424.15927,50,92,0
424.1615,424.26642,65,108,0
424.1615,424.26642,53,92,0
424.26865,424.37354,69,108,0
424.26865,424.37354,57,92,0
424.3758,424.48068,65,108,0
424.3758,424.48068,53,92,0
424.4829,424.58783,63,108,0
424.4829,424.58783,51,92,0
424.59006,424.69498,66,108,0
424.59006,424.69498,54,92,0
424.6972,424.80212,71,108,0
424.6972,424.80212,59,92,0
424.80435,424.90927,66,108,0
424.80435,424.90927,54,92,0
424.9115,425.0164,64,108,0
424.9115,425.0164,52,92,0
425.01865,425.12354,67,108,0
425.01865,425.12354,55,92,0
425.12576,425.23068,71,108,0
425.12576,425.23068,59,92,0
425.2329,425.33783,67,108,0
425.2329,425.33783,55,92,0
425.34006,425.44498,71,108,0
425.34006,425.44498,52,92,0
425.4472,425.55212,67,108,0
425.4472,425.55212,55,92,0
425.55435,425.65927,64,108,0
425.55435,425.65927,60,92,0
425.6615,425.7664,67,108,0
425.6615,425.7664,55,92,0
425.76865,425.87354,65,108,0
425.76865,425.87354,53,92,0
425.87576,425.98068,69,108,0
425.87576,425.98068,57,92,0
425.9829,426.08783,72,108,0
425.9829,426.08783,60,92,0
426.09006,426.19498,69,108,0
426.09006,426.19498,57,92,0
426.1972,426.30212,66,108,0
426.1972,426.30212,54,92,0
426.30435,426.40924,69,108,0
426.30435,426.40924,57,92,0
426.4115,426.5164,74,108,0
426.4115,426.5164,62,92,0
426.51862,426.62354,69,108,0
426.51862,426.62354,57,92,0
426.62576,426.73068,67,108,0
426.62576,426.73068,55,92,0
426.7329,426.83783,71,108,0
426.7329,426.83783,59,92,0
426.84006,426.94498,74,108,0
426.84006,426.94498,62,92,0
426.9472,427.05212,71,108,0
426.9472,427.05212,59,92,0
427.05435,427.15924,68,108,0
427.05435,427.15924,56,92,0
427.1615,427.2664,71,108,0
427.1615,427.2664,59,92,0
427.26862,427.37354,74,108,0
427.26862,427.37354,64,92,0
427.37576,427.48068,71,108,0
427.37576,427.48068,59,92,0
427.4829,427.58783,69,108,0
427.4829,427.58783,57,92,0
427.59006,427.69498,72,108,0
427.59006,427.69498,60,92,0
427.6972,427.8021,76,108,0
427.6972,427.8021,64,92,0
427.80435,427.90924,72,108,0
427.80435,427.90924,60,92,0
427.91147,428.0164,71,108,0
427.91147,428.0164,59,92,0
428.01862,428.12354,74,108,0
428.01862,428.12354,62,92,0
428.12576,428.23068,80,108,0
428.12576,428.23068,68,92,0
428.2329,428.33783,74,108,0
428.2329,428.33783,62,92,0
428.34006,428.44498,72,108,0
428.34006,428.44498,60,92,0
428.4472,428.5521,76,108,0
428.4472,428.5521,64,92,0
428.55435,428.65924,81,108,0
428.55435,428.65924,69,92,0
428.66147,428.7664,76,108,0
428.66147,428.7664,64,92,0
428.76862,428.87354,75,108,0
428.76862,428.87354,63,92,0
428.87576,428.98068,78,108,0
428.87576,428.98068,66,92,0
428.9829,429.08783,81,108,0
428.9829,429.08783,69,92,0
429.09006,429.19495,75,108,0
429.09006,429.19495,63,92,0
429.1972,429.3021,76,108,0
429.1972,429.3021,64,92,0
429.30432,429.40924,80,108,0
429.30432,429.40924,68,92,0
429.41147,429.5164,83,108,0
429.41147,429.5164,71,92,0
429.51862,429.62354,84,108,0
429.51862,429.62354,68,92,0
429.62576,429.73068,86,108,0
429.62576,429.73068,65,92,0
429.7329,429.83783,83,108,0
429.7329,429.83783,68,92,0
429.84006,429.94495,80,108,0
429.84006,429.94495,71,92,0
429.9472,430.0521,83,108,0
429.9472,430.0521,68,92,0
430.05432,430.15924,86,108,0
430.05432,430.15924,65,92,0
430.16147,430.2664,83,108,0
430.16147,430.2664,68,92,0
430.26862,430.37354,80,108,0
430.26862,430.37354,71,92,0
430.37576,430.48068,83,108,0
430.37576,430.48068,68,92,0
430.4829,430.5878,86,108,0
430.4829,430.5878,65,92,0
430.59006,430.69495,83,108,0
430.59006,430.69495,68,92,0
430.69717,430.8021,80,108,0
430.69717,430.8021,71,92,0
430.80432,430.90924,83,108,0
430.80432,430.90924,68,92,0
430.91147,431.0164,86,108,0
430.91147,431.0164,65,92,0
431.01862,431.12354,83,108,0
431.01862,431.12354,68,92,0
431.12576,431.23068,80,108,0
431.12576,431.23068,71,92,0
431.2329,431.3378,83,108,0
431.2329,431.3378,68,92,0
431.34003,431.44495,86,108,0
431.34003,431.51862,52,92,0
431.44717,431.5521,83,108,0
431.55432,431.65924,80,108,0
431.66147,431.7664,74,108,0
431.55432,431.76862,64,92,0
431.76862,431.87354,84,108,0
431.87576,431.98065,81,108,0
431.76862,431.9829,57,92,0
431.9829,432.0878,76,108,0
432.09003,432.19495,81,108,0
431.9829,432.19717,69,92,0
432.19717,432.3021,84,108,0
432.30432,432.40924,81,108,0
432.19717,432.41147,51,92,0
432.41147,432.5164,78,108,0
432.41147,432.59003,63,92,0
432.51862,432.62354,72,108,0
432.62576,432.73065,52,92,0
432.62576,432.80432,71,108,0
432.73288,432.8378,56,92,0
432.84003,432.94495,59,92,0
432.94717,433.0521,56,92,0
433.05432,433.15924,74,108,0
433.05432,433.15924,53,92,0
433.16147,433.2664,71,108,0
433.16147,433.2664,56,92,0
433.26862,433.3735,68,108,0
433.26862,433.3735,59,92,0
433.37576,433.48065,71,108,0
433.37576,433.48065,56,92,0
433.48288,433.5878,74,108,0
433.48288,433.5878,53,92,0
433.59003,433.69495,71,108,0
433.59003,433.69495,56,92,0
433.69717,433.8021,68,108,0
433.69717,433.8021,59,92,0
433.80432,433.90924,71,108,0
433.80432,433.90924,56,92,0
433.91147,434.01636,74,108,0
433.91147,434.01636,53,92,0
434.01862,434.1235,71,108,0
434.01862,434.1235,56,92,0
434.12573,434.23065,68,108,0
434.12573,434.23065,59,92,0
434.23288,434.3378,71,108,0
434.23288,434.3378,56,92,0
434.34003,434.44495,74,108,0
434.34003,434.44495,53,92,0
434.44717,434.5521,71,108,0
434.44717,434.5521,56,92,0
434.55432,434.65924,68,108,0
434.55432,434.65924,59,92,0
434.66147,434.76636,71,108,0
434.66147,434.76636,56,92,0
434.76862,434.8735,74,108,0
434.87573,434.98065,71,108,0
434.76862,434.98288,40,92,0
434.98288,435.0878,68,108,0
435.09003,435.19495,62,108,0
434.98288,435.19717,52,92,0
435.19717,435.3021,72,108,0
435.30432,435.4092,69,108,0
435.19717,435.41147,45,92,0
435.41147,435.51636,64,108,0
435.5186,435.6235,69,108,0
435.41147,435.62573,57,92,0
435.62573,435.73065,72,108,0
435.73288,435.8378,69,108,0
435.62573,435.84003,39,92,0
435.84003,435.94495,66,108,0
435.84003,436.0186,51,92,0
435.94717,436.0521,60,108,0
436.05432,436.1592,40,92,0
436.05432,436.23288,59,108,0
436.16147,436.26636,44,92,0
436.2686,436.3735,47,92,0
436.37573,436.48065,52,92,0
436.48288,436.5878,48,92,0
436.59003,436.69495,52,92,0
436.69717,436.80206,48,92,0
436.80432,436.9092,45,92,0
436.91144,437.01636,40,92,0
437.0186,437.1235,44,92,0
437.12573,437.23065,47,92,0
437.23288,437.3378,52,92,0
437.34003,437.44495,48,92,0
437.44717,437.55206,52,92,0
437.55432,437.6592,48,92,0
437.66144,437.76636,45,92,0
437.7686,437.8735,40,92,0
437.87573,437.98065,44,92,0
437.98288,438.0878,47,92,0
438.09003,438.19492,52,92,0
438.19717,438.30206,48,92,0
438.3043,438.4092,52,92,0
438.41144,438.51636,48,92,0
438.5186,438.6235,45,92,0
438.62573,438.73065,40,92,0
438.73288,438.8378,44,92,0
438.84003,438.94492,47,92,0
438.94717,439.05206,52,92,0
439.0543,439.1592,48,92,0
439.16144,439.26636,52,92,0
439.2686,439.3735,48,92,0
439.37573,439.48065,45,92,0
439.48288,439.58777,40,92,0
439.59003,439.69492,44,92,0
439.69714,439.80206,47,92,0
439.8043,439.9092,52,92,0
439.91144,440.01636,40,92,0
440.0186,440.1235,44,92,0
440.12573,440.23065,47,92,0
440.23288,440.33777,52,92,0
440.34003,440.44492,40,92,0
440.44714,440.55206,44,92,0
440.5543,440.6592,47,92,0
440.66144,440.76636,52,92,0
440.7686,440.8735,40,92,0
440.87573,440.98062,44,92,0
440.98288,441.08777,47,92,0
441.09,441.19492,52,92,0
441.19714,441.30206,40,92,0
441.3043,441.4092,44,92,0
441.41144,441.51636,47,92,0
441.5186,441.6235,52,92,0
441.62573,441.73062,88,108,0
441.62573,441.73062,40,92,0
441.73288,441.83777,80,108,0
441.73288,441.83777,44,92,0
441.84,441.94492,78,108,0
441.84,441.94492,47,92,0
441.94714,442.05206,76,108,0
441.94714,442.05206,52,92,0
442.0543,442.1592,88,108,0
442.0543,442.1592,40,92,0
442.16144,442.26636,80,108,0
442.16144,442.26636,44,92,0
442.2686,442.37347,78,108,0
442.2686,442.37347,47,92,0
442.37573,442.48062,76,108,0
442.37573,442.48062,52,92,0
442.48285,442.58777,88,108,0
442.48285,442.58777,40,92,0
442.59,442.69492,80,108,0
442.59,442.69492,44,92,0
442.69714,442.80206,78,108,0
442.69714,442.80206,47,92,0
442.8043,442.9092,76,108,0
442.8043,442.9092,52,92,0
442.91144,443.11975,88,108,0
442.91144,444.41144,40,92,0
444.41144,444.66144,42,69,0
442.91144,444.84894,52,60,0
444.66144,444.86975,44,57,0
444.91144,445.84894,52,60,0
444.91144,445.84894,57,60,0
444.91144,445.84894,61,60,0
444.91144,445.84894,33,45,0
444.91144,445.84894,45,45,0
445.91144,446.84894,50,60,0
445.91144,446.84894,57,60,0
445.91144,446.84894,62,60,0
445.91144,446.84894,35,45,0
445.91144,446.84894,45,45,0
446.91144,447.84894,52,60,0
446.91144,447.84894,57,60,0
446.91144,447.84894,61,60,0
446.91144,447.84894,37,45,0
446.91144,447.84894,45,45,0
447.91144,448.41144,54,45,0
447.91144,448.41144,38,45,0
448.41144,448.66144,52,45,0
448.41144,448.66144,37,45,0
447.91144,448.84894,57,60,0
447.91144,448.84894,59,60,0
447.91144,448.84894,45,45,0
448.66144,448.86975,50,45,0
448.66144,448.86975,35,45,0
448.91144,449.84894,52,60,0
448.91144,449.84894,57,60,0
448.91144,449.84894,61,60,0
448.91144,449.84894,33,45,0
448.91144,449.84894,45,45,0
449.91144,450.84894,50,60,0
449.91144,450.84894,57,60,0
449.91144,450.84894,62,60,0
449.91144,450.84894,35,45,0
449.91144,450.84894,45,45,0
450.91144,451.84894,52,60,0
450.91144,451.84894,57,60,0
450.91144,451.84894,61,60,0
450.91144,451.84894,37,45,0
450.91144,451.84894,45,45,0
451.91144,452.41144,54,45,0
451.91144,452.41144,38,45,0
452.41144,452.66144,52,45,0
452.41144,452.66144,37,45,0
451.91144,452.84894,57,60,0
451.91144,452.84894,59,60,0
452.66144,452.86975,50,45,0
452.66144,452.86975,35,45,0
452.91144,453.84894,52,60,0
452.91144,453.84894,57,60,0
452.91144,453.84894,61,60,0
452.91144,453.84894,33,45,0
452.91144,453.84894,45,45,0
453.91144,454.41144,62,60,0
453.91144,454.41144,35,45,0
453.91144,454.41144,57,60,0
453.91144,454.41144,50,60,0
453.91144,454.84894,45,45,0
454.41144,454.84894,52,60,0
454.41144,454.84894,57,60,0
454.41144,454.84894,61,60,0
454.41144,454.84894,37,45,0
454.91144,455.84894,54,60,0
454.91144,455.84894,57,60,0
454.91144,455.84894,59,60,0
454.91144,455.84894,38,45,0
454.91144,455.84894,45,45,0
455.91144,456.84894,54,60,0
455.91144,456.84894,57,60,0
455.91144,456.84894,59,60,0
455.91144,456.84894,39,45,0
455.91144,456.84894,45,45,0
456.91144,457.84894,52,60,0
456.91144,457.84894,57,60,0
456.91144,457.84894,59,60,0
456.91144,457.84894,40,45,0
456.91144,457.84894,45,45,0
457.91144,458.84894,51,60,0
457.91144,458.84894,57,60,0
457.91144,458.84894,59,60,0
457.91144,458.84894,41,45,0
457.91144,458.84894,45,45,0
458.91144,459.11975,52,60,0
458.91144,459.11975,56,60,0
458.91144,459.11975,59,60,0
458.91144,459.11975,40,45,0
458.91144,459.11975,47,45,0
459.41144,460.34894,76,60,0
459.41144,460.34894,88,60,0
459.91144,460.41144,52,45,0
459.91144,460.41144,56,45,0
460.41144,460.66144,54,45,0
460.41144,460.66144,57,45,0
460.41144,460.84894,74,60,0
460.41144,460.84894,86,60,0
460.66144,460.86975,56,45,0
460.66144,460.86975,59,45,0
460.91144,461.91144,72,60,0
460.91144,461.91144,84,60,0
460.91144,461.91144,57,45,0
460.91144,461.91144,60,45,0
461.91144,462.91144,74,60,0
461.91144,462.91144,86,60,0
461.91144,462.91144,59,45,0
461.91144,462.91144,62,45,0
462.91144,463.91144,72,60,0
462.91144,463.91144,84,60,0
462.91144,463.91144,60,45,0
462.91144,463.91144,64,45,0
463.91144,464.41144,62,45,0
463.91144,464.41144,65,45,0
464.41144,464.66144,60,45,0
464.41144,464.66144,64,45,0
463.91144,464.84894,71,60,0
463.91144,464.84894,83,60,0
464.66144,464.86975,59,45,0
464.66144,464.86975,62,45,0
464.91144,465.41144,84,60,0
465.41144,465.53644,86,60,0
465.53644,465.66144,84,60,0
465.66144,465.78644,83,60,0
464.91144,465.91144,57,45,0
464.91144,465.91144,60,45,0
465.78644,465.91144,84,60,0
465.91144,466.41144,76,60,0
465.91144,466.41144,88,60,0
465.91144,466.91144,59,45,0
465.91144,466.91144,62,45,0
466.41144,466.91144,74,60,0
466.41144,466.91144,86,60,0
466.91144,467.91144,72,60,0
466.91144,467.91144,84,60,0
466.91144,467.91144,60,45,0
466.91144,467.91144,64,45,0
467.91144,468.41144,62,45,0
467.91144,468.41144,65,45,0
468.41144,468.66144,60,45,0
468.41144,468.66144,64,45,0
467.91144,468.84894,71,60,0
467.91144,468.84894,83,60,0
468.66144,468.86975,59,45,0
468.66144,468.86975,62,45,0
468.91144,470.78644,72,60,0
468.91144,470.78644,84,60,0
468.91144,470.78644,57,45,0
468.91144,470.78644,60,45,0
470.91144,472.28644,74,60,0
470.91144,472.28644,60,45,0
470.97394,472.28644,77,60,0
470.97394,472.28644,62,45,0
471.03644,472.28644,79,60,0
471.03644,472.28644,65,45,0
471.09894,472.28644,83,60,0
471.09894,472.28644,67,45,0
471.16144,472.28644,86,60,0
472.6257,472.73062,31,60,0
472.73285,472.83777,43,60,0
472.84,472.94492,33,60,0
472.94714,473.05206,43,60,0
473.0543,473.1592,35,60,0
473.16144,473.26633,43,60,0
473.2686,473.37347,31,60,0
473.3757,473.48062,43,60,0
473.48285,473.58777,36,60,0
473.59,473.69492,43,60,0
473.69714,473.80206,38,60,0
473.8043,473.90918,43,60,0
473.91144,474.01633,40,60,0
474.01855,474.12347,43,60,0
474.1257,474.23062,88,108,0
474.1257,474.23062,36,92,0
474.23285,474.33777,91,108,0
474.23285,474.33777,43,92,0
474.34,474.44492,89,108,0
474.34,474.44492,31,92,0
474.44714,474.55206,86,108,0
474.44714,474.55206,43,92,0
474.5543,474.65918,83,108,0
474.5543,474.65918,33,92,0
474.66144,474.76633,79,108,0
474.66144,474.76633,43,92,0
474.76855,474.87347,77,108,0
474.76855,474.87347,35,92,0
474.8757,474.98062,74,108,0
474.8757,474.98062,43,92,0
474.98285,475.08777,71,108,0
474.98285,475.08777,31,92,0
475.09,475.19492,65,108,0
475.09,475.19492,43,92,0
475.19714,475.30203,36,92,0
475.19714,475.3757,64,108,0
475.3043,475.40918,43,92,0
475.4114,475.51633,38,60,0
475.51855,475.62347,43,60,0
475.6257,475.73062,40,60,0
475.73285,475.83777,43,60,0
475.84,475.94492,36,60,0
475.94714,476.05203,43,60,0
476.0543,476.15918,40,60,0
476.1614,476.26633,52,60,0
476.26855,476.37347,42,60,0
476.3757,476.48062,52,60,0
476.48285,476.58777,44,60,0
476.59,476.6949,52,60,0
476.69714,476.80203,40,60,0
476.80426,476.90918,52,60,0
476.9114,477.01633,45,60,0
477.01855,477.12347,52,60,0
477.1257,477.23062,47,60,0
477.23285,477.33777,52,60,0
477.34,477.4449,48,60,0
477.44714,477.55203,52,60,0
477.55426,477.65918,84,108,0
477.55426,477.65918,45,92,0
477.6614,477.76633,88,108,0
477.6614,477.76633,52,92,0
477.76855,477.87347,86,108,0
477.76855,477.87347,40,92,0
477.8757,477.98062,83,108,0
477.8757,477.98062,52,92,0
477.98285,478.08774,80,108,0
477.98285,478.08774,42,92,0
478.09,478.1949,76,108,0
478.09,478.1949,52,92,0
478.1971,478.30203,74,108,0
478.1971,478.30203,44,92,0
478.30426,478.40918,71,108,0
478.30426,478.40918,52,92,0
478.4114,478.51633,68,108,0
478.4114,478.51633,40,92,0
478.51855,478.62347,62,108,0
478.51855,478.62347,52,92,0
478.6257,478.73062,60,108,0
478.6257,478.73062,45,92,0
478.73285,478.83774,64,108,0
478.73285,478.83774,52,92,0
478.84,478.9449,69,108,0
478.84,478.9449,47,92,0
478.9471,479.05203,72,108,0
478.9471,479.05203,52,92,0
479.05426,479.15918,76,108,0
479.05426,479.15918,48,92,0
479.1614,479.26633,81,108,0
479.1614,479.26633,52,92,0
479.26855,479.37347,84,108,0
479.26855,479.37347,45,92,0
479.3757,479.4806,88,108,0
479.3757,479.4806,52,92,0
479.48285,479.58774,86,108,0
479.48285,479.58774,40,92,0
479.58997,479.6949,83,108,0
479.58997,479.6949,52,92,0
479.6971,479.80203,80,108,0
479.6971,479.80203,42,92,0
479.80426,479.90918,76,108,0
479.80426,479.90918,52,92,0
479.9114,480.01633,74,108,0
479.9114,480.01633,44,92,0
480.01855,480.12347,71,108,0
480.01855,480.12347,52,92,0
480.1257,480.2306,68,108,0
480.1257,480.2306,40,92,0
480.23285,480.33774,62,108,0
480.23285,480.33774,52,92,0
480.33997,480.4449,60,108,0
480.33997,480.4449,45,92,0
480.4471,480.55203,64,108,0
480.4471,480.55203,52,92,0
480.55426,480.65918,69,108,0
480.55426,480.65918,47,92,0
480.6614,480.76633,72,108,0
480.6614,480.76633,52,92,0
480.76855,480.87344,76,108,0
480.76855,480.87344,48,92,0
480.8757,480.9806,81,108,0
480.8757,480.9806,52,92,0
480.98282,481.08774,84,108,0
480.98282,481.08774,45,92,0
481.08997,481.1949,88,108,0
481.08997,481.1949,52,92,0
481.1971,481.30203,86,108,0
481.1971,481.30203,40,92,0
481.30426,481.40918,83,108,0
481.30426,481.40918,52,92,0
481.4114,481.51633,80,108,0
481.4114,481.51633,42,92,0
481.51855,481.62344,76,108,0
481.51855,481.62344,52,92,0
481.6257,481.7306,72,108,0
481.6257,481.7306,44,92,0
481.73282,481.83774,71,108,0
481.73282,481.83774,52,92,0
481.83997,481.9449,68,108,0
481.83997,481.9449,40,92,0
481.9471,482.05203,62,108,0
481.9471,482.05203,52,92,0
482.05426,482.15918,60,108,0
482.05426,482.15918,45,92,0
482.1614,482.2663,72,108,0
482.1614,482.2663,57,92,0
482.26855,482.37344,62,108,0
482.26855,482.37344,47,92,0
482.37567,482.4806,74,108,0
482.37567,482.4806,57,92,0
482.48282,482.58774,64,108,0
482.48282,482.58774,48,92,0
482.58997,482.6949,76,108,0
482.58997,482.6949,57,92,0
482.6971,482.80203,60,108,0
482.6971,482.80203,45,92,0
482.80426,482.90918,72,108,0
482.80426,482.90918,57,92,0
482.9114,483.0163,62,108,0
482.9114,483.0163,47,92,0
483.01855,483.12344,74,108,0
483.01855,483.12344,57,92,0
483.12567,483.2306,64,108,0
483.12567,483.2306,48,92,0
483.23282,483.33774,76,108,0
483.23282,483.33774,57,92,0
483.33997,483.4449,65,108,0
483.33997,483.4449,50,92,0
483.4471,483.55203,77,108,0
483.4471,483.55203,57,92,0
483.55426,483.65915,62,108,0
483.55426,483.65915,47,92,0
483.6614,483.7663,74,108,0
483.6614,483.7663,57,92,0
483.76852,483.87344,64,108,0
483.76852,483.87344,49,92,0
483.87567,483.9806,76,108,0
483.87567,483.9806,57,92,0
483.98282,484.08774,65,108,0
483.98282,484.08774,50,92,0
484.08997,484.1949,77,108,0
484.08997,484.1949,57,92,0
484.1971,484.30203,67,108,0
484.1971,484.30203,52,92,0
484.30426,484.40915,79,108,0
484.30426,484.40915,57,92,0
484.41138,484.5163,64,108,0
484.41138,484.5163,49,92,0
484.51852,484.62344,76,108,0
484.51852,484.62344,57,92,0
484.62567,484.7306,65,108,0
484.62567,484.7306,50,92,0
484.73282,484.83774,77,108,0
484.73282,484.83774,57,92,0
484.83997,484.9449,68,108,0
484.83997,484.9449,52,92,0
484.9471,485.052,80,108,0
484.9471,485.052,57,92,0
485.05426,485.15915,69,108,0
485.05426,485.15915,53,92,0
485.16138,485.2663,81,108,0
485.16138,485.2663,57,92,0
485.26852,485.37344,71,108,0
485.26852,485.37344,56,92,0
485.37567,485.4806,83,108,0
485.37567,485.4806,57,92,0
485.48282,485.58774,57,92,0
485.48282,485.66138,72,108,0
485.48282,485.66138,84,108,0
485.58997,485.69485,69,92,0
485.6971,485.802,59,92,0
485.80423,485.90915,69,92,0
485.91138,486.0163,60,92,0
486.01852,486.12344,69,92,0
486.12567,486.2306,57,92,0
486.23282,486.33774,69,92,0
486.33997,486.44485,59,92,0
485.91138,486.51852,81,108,0
486.4471,486.552,69,92,0
486.55423,486.65915,60,92,0
486.66138,486.7663,69,92,0
486.76852,486.87344,62,92,0
486.87567,486.9806,69,92,0
486.98282,487.0877,59,92,0
487.08997,487.19485,69,92,0
487.19708,487.302,61,92,0
486.76852,487.37567,81,108,0
487.30423,487.40915,69,92,0
487.41138,487.5163,62,92,0
487.51852,487.62344,69,92,0
487.62567,487.7306,64,92,0
487.73282,487.8377,69,92,0
487.83997,487.94485,64,92,0
487.94708,488.052,69,92,0
488.05423,488.15915,67,92,0
488.16138,488.2663,69,92,0
488.26852,488.37344,64,92,0
487.62567,488.42923,81,108,0
488.37567,488.48056,69,92,0
488.48282,488.5877,61,92,0
488.48282,488.66138,81,108,0
488.58994,488.69485,69,92,0
488.69708,488.802,64,92,0
488.69708,488.87567,81,108,0
488.80423,488.90915,69,92,0
488.91138,489.0163,67,92,0
489.01852,489.12344,69,92,0
489.12567,489.23056,64,92,0
489.23282,489.3377,69,92,0
489.33994,489.44485,61,92,0
489.33994,489.51852,81,108,0
489.44708,489.552,69,92,0
489.55423,489.65915,64,92,0
489.55423,489.7328,81,108,0
489.66138,489.7663,69,92,0
489.76852,489.8734,67,92,0
489.76852,489.94708,81,108,0
489.87567,489.98056,69,92,0
489.9828,490.0877,64,92,0
489.9828,490.16138,81,108,0
490.08994,490.19485,69,92,0
490.19708,490.302,62,92,0
490.19708,490.37567,81,108,0
490.30423,490.40915,69,92,0
490.41138,490.5163,61,92,0
490.41138,490.58994,81,108,0
490.51852,490.6234,69,92,0
490.62567,490.73056,70,108,0
490.62567,490.73056,55,92,0
490.7328,490.8377,82,108,0
490.7328,490.8377,57,92,0
490.83994,490.94485,67,108,0
490.83994,490.94485,52,92,0
490.94708,491.052,79,108,0
490.94708,491.052,57,92,0
491.05423,491.15915,64,108,0
491.05423,491.15915,49,92,0
491.16138,491.26627,76,108,0
491.16138,491.26627,57,92,0
491.26852,491.3734,67,108,0
491.26852,491.3734,52,92,0
491.37564,491.48056,57,92,0
491.37564,491.48056,79,108,0
491.4828,491.5877,70,108,0
491.4828,491.5877,55,92,0
491.58994,491.69485,82,108,0
491.58994,491.69485,57,92,0
491.69708,491.802,67,108,0
491.69708,491.802,52,92,0
491.80423,491.90915,79,108,0
491.80423,491.90915,57,92,0
491.91138,492.01627,65,108,0
491.91138,492.01627,50,92,0
492.01852,492.1234,77,108,0
492.01852,492.1234,57,92,0
492.12564,492.23056,64,108,0
492.12564,492.23056,49,92,0
492.2328,492.3377,76,108,0
492.2328,492.3377,57,92,0
492.33994,492.44485,65,108,0
492.33994,492.44485,41,92,0
492.44708,492.552,77,108,0
492.44708,492.552,53,92,0
492.55423,492.65912,62,108,0
492.55423,492.65912,38,92,0
492.66138,492.76627,74,108,0
492.66138,492.76627,50,92,0
492.7685,492.8734,60,108,0
492.7685,492.8734,36,92,0
492.87564,492.98056,72,108,0
492.87564,492.98056,48,92,0
492.9828,493.0877,59,108,0
492.9828,493.0877,35,92,0
493.08994,493.19485,71,108,0
493.08994,493.19485,47,92,0
493.19708,493.302,62,108,0
493.19708,493.302,38,92,0
493.30423,493.40912,74,108,0
493.30423,493.40912,50,92,0
493.41138,493.51627,59,108,0
493.41138,493.51627,35,92,0
493.5185,493.6234,71,108,0
493.5185,493.6234,47,92,0
493.62564,493.73056,57,108,0
493.62564,493.73056,33,92,0
493.7328,493.8377,69,108,0
493.7328,493.8377,45,92,0
493.83994,493.94485,56,108,0
493.83994,493.94485,32,92,0
493.94708,494.05197,68,108,0
493.94708,494.05197,44,92,0
494.05423,494.15912,57,108,0
494.05423,494.15912,33,92,0
494.16135,494.26627,69,108,0
494.16135,494.26627,45,92,0
494.2685,494.3734,53,108,0
494.2685,494.3734,29,92,0
494.37564,494.48056,65,108,0
494.37564,494.48056,41,92,0
494.4828,494.5877,52,108,0
494.4828,494.66135,40,92,0
494.58994,494.69485,64,108,0
494.69708,494.80197,51,108,0
494.69708,494.87564,39,92,0
494.80423,494.90912,63,108,0
494.91135,495.01627,52,108,0
494.91135,495.08994,40,92,0
495.0185,495.1234,64,108,0
495.12564,495.23056,51,108,0
495.12564,495.3042,39,92,0
495.2328,495.3377,63,108,0
495.33994,495.44482,52,108,0
495.33994,495.5185,40,92,0
495.44708,495.55197,64,108,0
495.5542,495.65912,56,108,0
495.5542,495.7328,40,92,0
495.66135,495.76627,68,108,0
495.7685,495.94708,33,75,0
495.7685,495.94708,45,75,0
495.7685,496.1435,57,108,0
495.7685,496.1435,69,108,0
495.9828,496.16135,48,75,0
495.9828,496.16135,52,75,0
496.19705,496.37564,48,75,0
496.19705,496.37564,52,75,0
496.19705,496.4828,57,108,0
496.19705,496.4828,69,108,0
496.41135,496.58994,48,75,0
496.41135,496.58994,52,75,0
496.5185,496.62564,56,108,0
496.5185,496.62564,68,108,0
496.62564,496.8042,33,75,0
496.62564,496.8042,45,75,0
496.83994,497.0185,48,75,0
496.83994,497.0185,52,75,0
497.0542,497.2328,48,75,0
497.0542,497.2328,52,75,0
496.62564,497.33994,57,108,0
496.62564,497.33994,69,108,0
497.2685,497.44705,48,75,0
497.2685,497.44705,52,75,0
497.37564,497.4828,56,108,0
497.37564,497.4828,68,108,0
497.4828,497.66135,33,75,0
497.4828,497.66135,45,75,0
497.69705,497.87564,48,75,0
497.69705,497.87564,52,75,0
497.91135,498.0899,48,75,0
497.91135,498.0899,52,75,0
497.4828,498.19705,57,108,0
497.4828,498.19705,69,108,0
498.12564,498.3042,48,75,0
498.12564,498.3042,52,75,0
498.2328,498.3399,59,108,0
498.2328,498.3399,71,108,0
498.3399,498.5185,60,108,0
498.3399,498.5185,72,108,0
498.3399,498.5185,45,75,0
498.5542,498.7328,57,75,0
498.5542,498.7328,60,75,0
498.66135,498.7685,63,108,0
498.66135,498.7685,75,108,0
498.7685,498.94705,64,108,0
498.7685,498.94705,76,108,0
498.7685,498.94705,45,75,0
498.98276,499.16135,57,75,0
498.98276,499.16135,60,75,0
499.0899,499.19705,68,108,0
499.0899,499.19705,80,108,0
499.19705,499.37564,45,75,0
499.41135,499.5899,57,75,0
499.41135,499.5899,60,75,0
499.62564,499.8042,52,75,0
499.19705,500.00064,69,108,0
499.19705,500.00064,81,108,0
499.8399,500.0185,57,75,0
499.8399,500.0185,60,75,0
500.0542,500.23276,38,75,0
500.0542,500.2685,67,108,0
500.0542,500.2685,79,108,0
500.2685,500.32205,66,108,0
500.2685,500.32205,78,108,0
500.2685,500.44705,57,75,0
500.2685,500.44705,60,75,0
500.48276,500.53635,64,108,0
500.48276,500.53635,76,108,0
500.48276,500.66135,50,75,0
500.69705,500.7506,66,108,0
500.69705,500.7506,78,108,0
500.69705,500.8756,57,75,0
500.69705,500.8756,60,75,0
500.91135,501.0899,43,75,0
500.91135,501.28635,67,108,0
500.91135,501.28635,79,108,0
501.1256,501.3042,55,75,0
501.1256,501.3042,58,75,0
501.3399,501.51846,50,75,0
501.3399,501.7149,62,108,0
501.3399,501.7149,74,108,0
501.5542,501.73276,55,75,0
501.5542,501.73276,58,75,0
501.76846,501.79526,64,108,0
501.76846,501.94705,36,75,0
501.79526,501.98053,76,108,0
501.98276,502.05197,77,108,0
502.0542,502.12338,76,108,0
501.98276,502.16135,55,75,0
501.98276,502.16135,58,75,0
502.1256,502.19482,77,108,0
502.19705,502.26624,76,108,0
502.26846,502.33768,77,108,0
502.19705,502.3756,48,75,0
502.3399,502.4091,76,108,0
502.41135,502.51624,74,108,0
502.41135,502.5899,55,75,0
502.41135,502.5899,58,75,0
502.51846,502.62338,76,108,0
502.6256,502.8042,41,75,0
502.8399,503.01846,53,75,0
502.8399,503.01846,57,75,0
503.0542,503.23276,48,75,0
502.6256,503.4292,65,108,0
502.6256,503.4292,77,108,0
503.26846,503.44705,53,75,0
503.26846,503.44705,57,75,0
503.48276,503.66132,41,75,0
503.48276,503.69705,64,108,0
503.48276,503.69705,76,108,0
503.69705,503.7506,62,108,0
503.69705,503.7506,74,108,0
503.69705,503.8756,53,75,0
503.69705,503.8756,57,75,0
503.91132,503.9649,60,108,0
503.91132,503.9649,72,108,0
503.91132,504.0899,50,75,0
504.1256,504.17917,62,108,0
504.1256,504.17917,74,108,0
504.1256,504.30417,53,75,0
504.1256,504.30417,57,75,0
504.3399,504.51846,40,75,0
504.3399,504.7149,64,108,0
504.3399,504.7149,76,108,0
504.55417,504.73276,52,75,0
504.76846,504.94705,48,75,0
504.76846,505.14346,57,108,0
504.76846,505.14346,69,108,0
504.98276,505.16132,45,75,0
505.19705,505.3756,40,75,0
505.19705,505.3756,52,75,0
505.19705,505.57202,59,108,0
505.19705,505.57202,71,108,0
505.41132,505.5899,38,75,0
505.41132,505.5899,50,75,0
505.6256,505.80417,36,75,0
505.6256,505.80417,48,75,0
505.6256,506.0006,52,108,0
505.6256,506.0006,64,108,0
505.8399,506.01846,35,75,0
505.8399,506.01846,47,75,0
506.05417,506.1591,57,75,0
506.05417,506.23276,33,75,0
506.05417,506.23276,45,75,0
506.16132,506.26624,60,75,0
506.26846,506.37338,64,75,0
506.3756,506.48053,60,75,0
506.3756,506.48276,44,92,0
506.48276,506.58765,57,75,0
506.5899,506.6948,60,75,0
506.69702,506.80194,64,75,0
506.80417,506.9091,60,75,0
506.91132,507.01624,64,75,0
507.01846,507.12338,60,75,0
506.48276,507.19702,45,92,0
507.1256,507.2305,64,75,0
507.23276,507.33765,60,75,0
507.23276,507.33987,44,92,0
507.33987,507.4448,64,75,0
507.44702,507.55194,60,75,0
507.55417,507.6591,64,75,0
507.66132,507.76624,60,75,0
507.76846,507.87338,57,75,0
507.8756,507.9805,60,75,0
507.33987,508.05417,45,92,0
507.98273,508.08765,64,75,0
508.08987,508.1948,60,75,0
508.08987,508.19702,44,92,0
508.19702,508.30194,57,75,0
508.30417,508.4091,60,75,0
508.19702,508.48273,45,92,0
508.41132,508.51624,64,75,0
508.51846,508.62335,60,75,0
508.51846,508.6256,48,92,0
508.6256,508.7305,57,75,0
508.6256,508.80417,48,92,0
508.73273,508.83765,60,75,0
508.83987,508.9448,64,75,0
508.94702,509.05194,60,75,0
508.94702,509.05417,51,92,0
509.05417,509.1591,57,75,0
509.05417,509.23273,52,92,0
509.16132,509.2662,60,75,0
509.26846,509.37335,64,75,0
509.37558,509.4805,60,75,0
509.37558,509.48273,56,92,0
509.48273,509.58765,60,75,0
509.58987,509.6948,64,75,0
509.69702,509.80194,69,75,0
509.80417,509.9091,64,75,0
509.91132,510.0162,60,75,0
510.01846,510.12335,64,75,0
510.12558,510.2305,69,75,0
509.48273,510.28632,57,92,0
510.23273,510.33765,64,75,0
510.33987,510.4448,60,75,0
510.44702,510.55194,62,75,0
510.33987,510.55417,55,92,0
510.55417,510.60773,54,92,0
510.55417,510.65906,69,75,0
510.66132,510.7662,62,75,0
510.76843,510.82202,52,92,0
510.76843,510.87335,60,75,0
510.87558,510.9805,62,75,0
510.98273,511.03632,54,92,0
510.98273,511.08765,69,75,0
510.33987,511.14343,50,92,0
511.08987,511.1948,62,75,0
511.19702,511.30194,58,75,0
511.19702,511.37558,43,92,0
511.30417,511.40906,62,75,0
511.41132,511.5162,67,75,0
511.19702,511.57202,55,92,0
511.51843,511.62335,60,75,0
511.62558,511.7305,58,75,0
511.73273,511.83765,67,75,0
511.83987,511.9448,62,75,0
511.62558,512.0006,50,92,0
511.94702,512.05194,67,75,0
512.05414,512.08093,36,92,0
512.05414,512.15906,58,75,0
512.08093,512.26624,52,92,0
512.1613,512.26624,60,75,0
512.26843,512.33765,53,92,0
512.26843,512.37335,67,75,0
512.33984,512.40906,52,92,0
512.3756,512.48047,60,75,0
512.4113,512.48047,53,92,0
512.4827,512.55194,52,92,0
512.4827,512.58765,58,75,0
512.55414,512.62335,53,92,0
512.58984,512.69476,60,75,0
512.6256,512.69476,52,92,0
512.697,512.80194,67,75,0
512.697,512.80194,50,92,0
512.80414,512.90906,60,75,0
512.80414,512.90906,52,92,0
512.9113,513.01624,57,75,0
512.9113,513.08984,41,92,0
513.01843,513.12335,60,75,0
513.1256,513.23047,65,75,0
513.2327,513.33765,60,75,0
513.33984,513.44476,57,75,0
513.447,513.55194,60,75,0
513.55414,513.65906,65,75,0
512.9113,513.71484,53,92,0
513.6613,513.76624,60,75,0
513.76843,513.87335,57,75,0
513.87555,513.98047,59,75,0
513.76843,513.9827,40,92,0
513.76843,513.9827,52,92,0
513.9827,514.0363,38,92,0
513.9827,514.0363,50,92,0
513.9827,514.08765,65,75,0
514.08984,514.19476,59,75,0
514.197,514.25055,36,92,0
514.197,514.25055,48,92,0
514.197,514.30194,57,75,0
514.30414,514.40906,59,75,0
514.4113,514.46484,38,92,0
514.4113,514.46484,50,92,0
514.4113,514.5162,65,75,0
514.51843,514.62335,59,75,0
514.62555,514.73047,60,75,0
514.7327,514.83765,62,75,0
514.83984,514.94476,68,75,0
514.62555,515.00055,40,92,0
514.62555,515.00055,52,92,0
514.947,515.05194,62,75,0
515.05414,515.15906,57,75,0
515.1613,515.2662,60,75,0
515.26843,515.37335,65,75,0
515.05414,515.42914,33,92,0
515.05414,515.42914,45,92,0
515.37555,515.48047,60,75,0
515.4827,515.58765,57,75,0
515.58984,515.69476,62,75,0
515.697,515.80194,64,75,0
515.4827,515.8577,35,92,0
515.4827,515.8577,47,92,0
515.80414,515.90906,62,75,0
515.9113,516.0162,56,75,0
515.9113,516.08984,40,92,0
516.01843,516.12335,59,75,0
516.12555,516.23047,64,75,0
516.12555,516.30414,38,92,0
516.2327,516.33765,59,75,0
516.33984,516.44476,57,75,0
516.33984,516.51843,36,92,0
516.447,516.5519,60,75,0
516.55414,516.65906,64,75,0
516.55414,516.7327,48,92,0
516.66125,516.7662,69,75,0
516.76843,516.87335,57,75,0
516.76843,516.947,48,92,0
516.87555,516.98047,60,75,0
516.9827,517.08765,64,75,0
516.9827,517.16125,48,92,0
517.08984,517.19476,69,75,0
517.197,517.3019,57,75,0
517.197,517.37555,41,92,0
517.30414,517.40906,69,76,0
517.41125,517.5162,59,77,0
517.41125,517.58984,53,92,0
517.51843,517.62335,69,78,0
517.62555,517.73047,57,79,0
517.62555,517.80414,53,92,0
517.7327,517.83765,69,80,0
517.83984,517.94476,59,81,0
517.83984,518.01843,53,92,0
517.947,518.0519,69,82,0
518.05414,518.15906,57,83,0
518.05414,518.2327,40,92,0
518.16125,518.2662,69,84,0
518.26843,518.37335,60,85,0
518.26843,518.447,52,92,0
518.37555,518.48047,69,86,0
518.4827,518.58765,57,87,0
518.4827,518.66125,52,92,0
518.58984,518.69476,69,88,0
518.697,518.8019,60,89,0
518.697,518.87555,52,92,0
518.80414,518.90906,69,90,0
518.91125,519.0162,56,92,0
518.91125,519.08984,40,92,0
519.01843,519.12335,68,94,0
519.12555,519.23047,62,96,0
519.12555,519.30414,52,92,0
519.2327,519.3376,68,98,0
519.33984,519.44476,56,100,0
519.33984,519.51843,40,92,0
519.44696,519.5519,64,102,0
519.55414,519.65906,59,104,0
519.55414,519.7327,52,92,0
519.66125,519.7662,64,106,0
519.76843,519.87335,64,108,0
519.76843,519.87335,36,92,0
519.87555,519.98047,76,108,0
519.87555,519.98047,48,92,0
519.9827,520.0876,76,108,0
519.9827,520.0876,48,92,0
520.08984,520.19476,88,108,0
520.08984,520.19476,60,92,0
520.19696,520.3019,76,108,0
520.19696,520.3019,48,92,0
520.30414,520.40906,88,108,0
520.30414,520.40906,60,92,0
520.41125,520.5162,76,108,0
520.41125,520.5162,48,92,0
520.51843,520.62335,88,108,0
520.51843,520.62335,60,92,0
520.62555,520.73047,76,108,0
520.62555,520.73047,41,92,0
520.7327,520.8376,88,108,0
520.7327,520.8376,53,92,0
520.83984,520.94476,74,108,0
520.83984,520.94476,53,92,0
520.94696,521.0519,86,108,0
520.94696,521.0519,65,92,0
521.05414,521.15906,72,108,0
521.05414,521.15906,53,92,0
521.16125,521.2662,84,108,0
521.16125,521.2662,65,92,0
521.26843,521.37335,74,108,0
521.26843,521.37335,53,92,0
521.37555,521.48047,86,108,0
521.37555,521.48047,65,92,0
521.4827,521.5876,76,108,0
521.4827,521.5876,52,92,0
521.58984,521.69476,88,108,0
521.58984,521.69476,64,92,0
521.69696,521.8019,76,108,0
521.69696,521.8019,60,92,0
521.80414,521.90906,88,108,0
521.80414,521.90906,57,92,0
521.91125,522.0162,69,108,0
521.91125,522.0162,52,92,0
522.01843,522.1233,81,108,0
522.01843,522.1233,48,92,0
522.12555,522.23047,69,108,0
522.12555,522.23047,45,92,0
522.23267,522.3376,81,108,0
522.23267,522.3376,48,92,0
522.33984,522.44476,71,108,0
522.33984,522.44476,40,92,0
522.44696,522.5519,83,108,0
522.44696,522.5519,52,92,0
522.55414,522.65906,71,108,0
522.55414,522.65906,38,92,0
522.66125,522.7662,83,108,0
522.66125,522.7662,50,92,0
522.76843,522.8733,64,108,0
522.76843,522.8733,36,92,0
522.87555,522.98047,76,108,0
522.87555,522.98047,48,92,0
522.98267,523.0876,64,108,0
522.98267,523.0876,35,92,0
523.08984,523.19476,76,108,0
523.08984,523.19476,47,92,0
523.19696,523.3019,69,108,0
523.19696,523.3019,33,92,0
523.30414,523.40906,81,108,0
523.30414,523.40906,45,92,0
523.41125,523.5162,80,108,0
523.41125,523.5162,44,92,0
523.51843,523.6233,81,108,0
523.51843,523.6233,45,92,0
523.62555,523.73047,69,108,0
523.62555,523.73047,33,92,0
523.73267,523.8376,81,108,0
523.73267,523.8376,45,92,0
523.83984,523.94476,71,108,0
523.83984,523.94476,35,92,0
523.94696,524.0519,81,108,0
523.94696,524.0519,45,92,0
524.05414,524.15906,72,108,0
524.05414,524.15906,36,92,0
524.16125,524.2662,81,108,0
524.16125,524.2662,45,92,0
524.2684,524.3733,71,108,0
524.2684,524.3733,35,92,0
524.37555,524.48047,81,108,0
524.37555,524.48047,45,92,0
524.48267,524.5876,72,108,0
524.48267,524.5876,36,92,0
524.58984,524.69476,81,108,0
524.58984,524.69476,45,92,0
524.69696,524.8019,69,108,0
524.69696,524.8019,33,92,0
524.80414,524.909,81,108,0
524.80414,524.909,45,92,0
524.91125,525.08984,64,108,0
524.91125,525.08984,68,108,0
524.91125,525.08984,71,108,0
524.91125,525.08984,76,108,0
524.91125,525.08984,40,92,0
524.91125,525.08984,44,92,0
524.91125,525.08984,47,92,0
524.91125,525.08984,52,92,0
525.7684,525.94696,76,108,0
525.7684,525.94696,80,108,0
525.7684,525.94696,83,108,0
525.7684,525.94696,88,108,0
525.7684,525.94696,52,92,0
525.7684,525.94696,56,92,0
525.7684,525.94696,59,92,0
525.7684,525.94696,64,92,0
526.62555,526.73047,69,108,0
526.62555,526.73047,33,92,0
526.73267,526.8376,81,108,0
526.73267,526.8376,45,92,0
526.83984,526.9447,80,108,0
526.83984,526.9447,44,92,0
526.94696,527.0519,81,108,0
526.94696,527.0519,45,92,0
527.0541,527.159,69,108,0
527.0541,527.159,33,92,0
527.16125,527.2662,81,108,0
527.16125,527.2662,45,92,0
527.2684,527.3733,71,108,0
527.2684,527.3733,35,92,0
527.37555,527.48047,81,108,0
527.37555,527.48047,45,92,0
527.48267,527.5876,72,108,0
527.48267,527.5876,36,92,0
527.58984,527.6947,81,108,0
527.58984,527.6947,45,92,0
527.69696,527.8019,71,108,0
527.69696,527.8019,35,92,0
527.8041,527.909,81,108,0
527.8041,527.909,45,92,0
527.91125,528.0162,72,108,0
527.91125,528.0162,36,92,0
528.0184,528.1233,81,108,0
528.0184,528.1233,45,92,0
528.12555,528.23047,69,108,0
528.12555,528.23047,33,92,0
528.23267,528.3376,81,108,0
528.23267,528.3376,45,92,0
528.33984,528.5184,64,108,0
528.33984,528.5184,68,108,0
528.33984,528.5184,71,108,0
528.33984,528.5184,76,108,0
528.33984,528.5184,40,92,0
528.33984,528.5184,44,92,0
528.33984,528.5184,47,92,0
528.33984,528.5184,52,92,0
529.19696,529.37555,76,108,0
529.19696,529.37555,80,108,0
529.19696,529.37555,83,108,0
529.19696,529.37555,88,108,0
529.19696,529.37555,52,92,0
529.19696,529.37555,56,92,0
529.19696,529.37555,59,92,0
529.19696,529.37555,64,92,0
530.0541,530.23267,69,108,0
530.0541,530.23267,72,108,0
530.0541,530.23267,76,108,0
530.0541,530.23267,81,108,0
530.0541,530.23267,45,92,0
530.0541,530.23267,48,92,0
530.0541,530.23267,52,92,0
530.0541,530.23267,57,92,0
530.91125,531.0898,76,108,0
530.91125,531.0898,80,108,0
530.91125,531.0898,83,108,0
530.91125,531.0898,88,108,0
530.91125,531.0898,40,92,0
530.91125,531.0898,44,92,0
530.91125,531.0898,47,92,0
530.91125,531.0898,52,92,0
531.7684,531.94696,69,108,0
531.7684,531.94696,72,108,0
531.7684,531.94696,76,108,0
531.7684,531.94696,81,108,0
531.7684,531.94696,45,92,0
531.7684,531.94696,48,92,0
531.7684,531.94696,52,92,0
531.7684,531.94696,57,92,0
532.6255,532.8041,76,108,0
532.6255,532.8041,80,108,0
532.6255,532.8041,83,108,0
532.6255,532.8041,88,108,0
532.6255,532.8041,40,92,0
532.6255,532.8041,44,92,0
532.6255,532.8041,47,92,0
532.6255,532.8041,52,92,0
533.48267,533.66125,69,108,0
533.48267,533.66125,72,108,0
533.48267,533.66125,76,108,0
533.48267,533.66125,81,108,0
533.48267,533.66125,45,92,0
533.48267,533.66125,48,92,0
533.48267,533.66125,52,92,0
533.48267,533.66125,57,92,0
534.3398,534.5184,76,108,0
534.3398,534.5184,79,108,0
534.3398,534.5184,82,108,0
534.3398,534.5184,84,108,0
534.3398,534.5184,88,108,0
534.3398,534.5184,48,92,0
534.3398,534.5184,52,92,0
534.3398,534.5184,55,92,0
534.3398,534.5184,60,92,0
535.19696,535.3755,77,108,0
535.19696,535.3755,81,108,0
535.19696,535.3755,84,108,0
535.19696,535.3755,89,108,0
535.19696,535.3755,41,92,0
535.19696,535.3755,45,92,0
535.19696,535.3755,48,92,0
535.19696,535.3755,53,92,0
536.0541,536.23267,73,108,0
536.0541,536.23267,76,108,0
536.0541,536.23267,79,108,0
536.0541,536.23267,81,108,0
536.0541,536.23267,85,108,0
536.0541,536.23267,45,92,0
536.0541,536.23267,49,92,0
536.0541,536.23267,52,92,0
536.0541,536.23267,57,92,0
536.9112,537.0898,74,108,0
536.9112,537.0898,77,108,0
536.9112,537.0898,81,108,0
536.9112,537.0898,86,108,0
536.9112,537.0898,38,92,0
536.9112,537.0898,41,92,0
536.9112,537.0898,45,92,0
536.9112,537.0898,50,92,0
537.7684,537.9469,69,108,0
537.7684,537.9469,72,108,0
537.7684,537.9469,75,108,0
537.7684,537.9469,77,108,0
537.7684,537.9469,81,108,0
537.7684,537.9469,41,92,0
537.7684,537.9469,45,92,0
537.7684,537.9469,48,92,0
537.7684,537.9469,53,92,0
538.1969,538.3755,77,108,0
538.1969,538.3755,81,108,0
538.1969,538.3755,84,108,0
538.1969,538.3755,87,108,0
538.1969,538.3755,89,108,0
538.1969,538.3755,29,92,0
538.1969,538.3755,41,92,0
538.6255,538.8041,77,108,0
538.6255,538.8041,81,108,0
538.6255,538.8041,84,108,0
538.6255,538.8041,87,108,0
538.6255,538.8041,89,108,0
538.6255,538.8041,29,92,0
538.6255,538.8041,41,92,0
539.0541,539.23267,77,108,0
539.0541,539.23267,81,108,0
539.0541,539.23267,84,108,0
539.0541,539.23267,87,108,0
539.0541,539.23267,89,108,0
539.0541,539.23267,29,92,0
539.0541,539.23267,41,92,0
539.48267,539.6612,77,108,0
539.48267,539.6612,81,108,0
539.48267,539.6612,84,108,0
539.48267,539.6612,87,108,0
539.48267,539.6612,89,108,0
539.48267,539.6612,29,92,0
539.48267,539.6612,41,92,0
539.9112,540.0898,77,108,0
539.9112,540.0898,81,108,0
539.9112,540.0898,84,108,0
539.9112,540.0898,87,108,0
539.9112,540.0898,89,108,0
539.9112,540.0898,29,92,0
539.9112,540.0898,41,92,0
540.3398,540.5184,70,108,0
540.3398,540.5184,74,108,0
540.3398,540.5184,77,108,0
540.3398,540.5184,82,108,0
540.3398,540.5184,34,92,0
540.3398,541.1434,46,92,0
541.1969,541.3018,57,45,0
541.1969,541.3018,45,45,0
541.3041,541.409,58,45,0
541.3041,541.409,46,45,0
541.4112,541.5161,63,45,0
541.4112,541.5161,51,45,0
541.5184,541.6232,58,45,0
541.5184,541.6232,46,45,0
541.6255,541.7304,55,45,0
541.6255,541.7304,43,45,0
541.7326,541.8375,58,45,0
541.7326,541.8375,46,45,0
541.8398,541.9447,63,45,0
541.8398,541.9447,51,45,0
541.9469,542.0518,58,45,0
541.9469,542.0518,46,45,0
542.0541,542.159,45,45,0
542.0541,542.159,57,45,0
542.1612,542.2661,58,45,0
542.1612,542.2661,46,45,0
542.2684,542.3732,62,45,0
542.2684,542.3732,50,45,0
542.3755,542.4804,58,45,0
542.3755,542.4804,46,45,0
542.4826,542.5875,53,45,0
542.4826,542.5875,41,45,0
542.5898,542.6947,58,45,0
542.5898,542.6947,46,45,0
542.6969,542.8018,62,45,0
542.6969,542.8018,50,45,0
542.8041,542.90894,58,45,0
542.8041,542.90894,46,45,0
542.9112,543.0161,57,45,0
542.9112,543.0161,45,45,0
543.0183,543.1232,58,45,0
543.0183,543.1232,46,45,0
543.1255,543.2304,61,45,0
543.1255,543.2304,49,45,0
543.2326,543.3375,58,45,0
543.2326,543.3375,46,45,0
543.3398,543.4447,52,45,0
543.3398,543.4447,40,45,0
543.4469,543.5518,58,45,0
543.4469,543.5518,46,45,0
543.5541,543.65894,61,45,0
543.5541,543.65894,49,45,0
543.6612,543.7661,58,45,0
543.6612,543.7661,46,45,0
543.7683,543.8732,57,45,0
543.7683,543.8732,45,45,0
543.8755,543.9804,58,45,0
543.8755,543.9804,46,45,0
543.9826,544.0875,62,45,0
543.9826,544.0875,50,45,0
544.0898,544.1947,58,45,0
544.0898,544.1947,46,45,0
544.1969,544.3018,53,45,0
544.1969,544.3018,41,45,0
544.3041,544.40894,58,45,0
544.3041,544.40894,46,45,0
544.4112,544.5161,62,45,0
544.4112,544.5161,50,45,0
544.5183,544.6232,58,45,0
544.5183,544.6232,46,45,0
544.6255,544.7304,57,45,0
544.6255,544.7304,45,45,0
544.7326,544.8375,58,45,0
544.7326,544.8375,46,45,0
544.8398,544.9447,63,45,0
544.8398,544.9447,51,45,0
544.9469,545.0518,58,45,0
544.9469,545.0518,46,45,0
545.0541,545.15894,53,45,0
545.0541,545.15894,41,45,0
545.1612,545.2661,58,45,0
545.1612,545.2661,46,45,0
545.2683,545.3732,63,45,0
545.2683,545.3732,51,45,0
545.3755,545.4804,58,45,0
545.3755,545.4804,46,45,0
545.4826,545.5875,57,45,0
545.4826,545.5875,45,45,0
545.5898,545.69464,58,45,0
545.5898,545.69464,46,45,0
545.6969,545.8018,62,45,0
545.6969,545.8018,50,45,0
545.804,545.90894,58,45,0
545.804,545.90894,46,45,0
545.9112,546.0161,53,45,0
545.9112,546.0161,41,45,0
546.0183,546.1232,58,45,0
546.0183,546.1232,46,45,0
546.1255,546.2304,62,45,0
546.1255,546.2304,50,45,0
546.2326,546.3375,58,45,0
546.2326,546.3375,46,45,0
546.3398,546.44464,57,45,0
546.3398,546.44464,45,45,0
546.4469,546.5518,58,45,0
546.4469,546.5518,46,45,0
546.554,546.65894,63,45,0
546.554,546.65894,51,45,0
546.6612,546.7661,58,45,0
546.6612,546.7661,46,45,0
546.7683,546.8732,53,45,0
546.7683,546.8732,41,45,0
546.8755,546.9804,58,45,0
546.8755,546.9804,46,45,0
546.9826,547.0875,63,45,0
546.9826,547.0875,51,45,0
547.0898,547.19464,58,45,0
547.0898,547.19464,46,45,0
547.1969,547.3018,57,45,0
547.1969,547.3018,45,45,0
547.304,547.40894,58,45,0
547.304,547.40894,46,45,0
547.4112,547.5161,62,45,0
547.4112,547.5161,50,45,0
547.5183,547.6232,58,45,0
547.5183,547.6232,46,45,0
547.6255,547.7304,53,45,0
547.6255,547.7304,41,45,0
547.7326,547.8375,58,45,0
547.7326,547.8375,46,45,0
547.8397,547.94464,62,45,0
547.8397,547.94464,50,45,0
547.9469,548.0518,58,45,0
547.9469,548.0518,46,45,0
548.054,548.15894,53,45,0
548.054,548.15894,41,45,0
548.1612,548.2661,58,45,0
548.1612,548.2661,46,45,0
548.2683,548.3732,62,45,0
548.2683,548.3732,50,45,0
548.3755,548.48035,58,45,0
548.3755,548.48035,46,45,0
548.4826,548.5875,53,45,0
548.4826,548.5875,41,45,0
548.5897,548.69464,58,45,0
548.5897,548.69464,46,45,0
548.6969,548.8018,62,45,0
548.6969,548.8018,50,45,0
548.804,548.90894,58,45,0
548.804,548.90894,46,45,0
548.9112,549.0161,56,45,0
548.9112,549.0161,44,45,0
549.0183,549.1232,57,45,0
549.0183,549.1232,45,45,0
549.1255,549.23035,62,45,0
549.1255,549.23035,50,45,0
549.2326,549.3375,57,45,0
549.2326,549.3375,45,45,0
549.3397,549.44464,53,45,0
549.3397,549.44464,41,45,0
549.4469,549.5518,57,45,0
549.4469,549.5518,45,45,0
549.554,549.65894,62,45,0
549.554,549.65894,50,45,0
549.6612,549.7661,57,45,0
549.6612,549.7661,45,45,0
549.7683,549.8732,53,45,0
549.7683,549.8732,41,45,0
549.8755,549.98035,57,45,0
549.8755,549.98035,45,45,0
549.9826,550.0875,62,45,0
549.9826,550.0875,50,45,0
550.0897,550.19464,57,45,0
550.0897,550.19464,45,45,0
550.1969,550.3018,53,45,0
550.1969,550.3018,41,45,0
550.304,550.40894,57,45,0
550.304,550.40894,45,45,0
550.4112,550.51605,62,45,0
550.4112,550.51605,50,45,0
550.5183,550.6232,57,45,0
550.5183,550.6232,45,45,0
550.6254,550.73035,52,45,0
550.6254,550.73035,40,45,0
550.7326,550.8375,56,45,0
550.7326,550.8375,44,45,0
550.8397,550.94464,62,45,0
550.8397,550.94464,50,45,0
550.9469,551.0518,56,45,0
550.9469,551.0518,44,45,0
551.054,551.15894,53,45,0
551.054,551.15894,41,45,0
551.1612,551.26605,57,45,0
551.1612,551.26605,45,45,0
551.2683,551.3732,62,45,0
551.2683,551.3732,50,45,0
551.3754,551.48035,57,45,0
551.3754,551.48035,45,45,0
551.4826,551.5875,52,45,0
551.4826,551.5875,40,45,0
551.5897,551.69464,56,45,0
551.5897,551.69464,44,45,0
551.6969,551.8018,62,45,0
551.6969,551.8018,50,45,0
551.804,551.90894,56,45,0
551.804,551.90894,44,45,0
551.9112,552.01605,53,45,0
551.9112,552.01605,41,45,0
552.0183,552.1232,57,45,0
552.0183,552.1232,45,45,0
552.1254,552.23035,62,45,0
552.1254,552.23035,50,45,0
552.2326,552.3375,57,45,0
552.2326,552.3375,45,45,0
552.3397,552.44464,52,45,0
552.3397,552.44464,40,45,0
552.4469,552.5518,56,45,0
552.4469,552.5518,44,45,0
552.554,552.65894,62,45,0
552.554,552.65894,50,45,0
552.6612,552.76605,56,45,0
552.6612,552.76605,44,45,0
552.7683,552.8732,53,45,0
552.7683,552.8732,41,45,0
552.8754,552.98035,57,45,0
552.8754,552.98035,45,45,0
552.9826,553.0875,62,45,0
552.9826,553.0875,50,45,0
553.0897,553.19464,57,45,0
553.0897,553.19464,45,45,0
553.1969,553.30176,52,45,0
553.1969,553.30176,40,45,0
553.304,553.40894,54,52,0
553.304,553.40894,42,50,0
553.41113,553.51605,56,60,0
553.41113,553.51605,44,56,0
553.5183,553.6232,57,68,0
553.5183,553.6232,45,62,0
553.6254,553.73035,59,76,0
553.6254,553.73035,47,68,0
553.7326,553.8375,60,84,0
553.7326,553.8375,48,74,0
553.8397,553.94464,62,92,0
553.8397,553.94464,50,80,0
553.9469,554.05176,64,100,0
553.9469,554.05176,52,86,0
554.054,554.6433,65,108,0
554.054,554.6433,53,92,0
554.6969,554.8754,57,108,0
554.6969,554.8754,45,92,0
554.91113,554.9647,56,108,0
554.91113,554.9647,44,92,0
555.1254,555.179,52,108,0
555.1254,555.179,40,92,0
555.3397,555.3933,52,108,0
555.3397,555.3933,40,92,0
555.554,555.6076,56,108,0
555.554,555.6076,44,92,0
555.7683,555.82184,57,108,0
555.7683,555.82184,33,92,0
555.7683,555.82184,45,92,0
555.9826,556.03613,52,108,0
555.9826,556.03613,40,92,0
556.19684,556.2504,52,108,0
556.19684,556.2504,40,92,0
556.41113,556.4647,57,108,0
556.41113,556.4647,45,92,0
556.6254,556.679,59,108,0
556.6254,556.679,35,92,0
556.6254,556.679,47,92,0
556.8397,556.8933,52,108,0
556.8397,556.8933,40,92,0
557.054,557.1076,52,108,0
557.054,557.1076,40,92,0
557.2683,557.32184,59,108,0
557.2683,557.32184,47,92,0
557.4826,557.53613,60,108,0
557.4826,557.53613,36,92,0
557.4826,557.53613,48,92,0
557.69684,557.7504,52,108,0
557.69684,557.7504,40,92,0
557.91113,557.9647,61,108,0
557.91113,557.9647,37,92,0
557.91113,557.9647,49,92,0
558.1254,558.179,52,108,0
558.1254,558.179,40,92,0
558.3397,558.3933,62,108,0
558.3397,558.3933,38,92,0
558.3397,558.3933,50,92,0
558.554,558.60754,52,108,0
558.554,558.60754,40,92,0
558.7683,558.82184,63,108,0
558.7683,558.82184,39,92,0
558.7683,558.82184,51,92,0
558.98254,559.03613,52,108,0
558.98254,559.03613,40,92,0
559.19684,559.2504,64,108,0
559.19684,559.2504,52,92,0
559.41113,559.4644,52,108,0
559.41113,559.4644,40,92,0
559.624,559.677,53,108,0
559.624,559.677,41,92,0
559.83545,559.8882,65,108,0
559.83545,559.8882,53,92,0
560.04553,560.098,66,108,0
560.04553,560.098,54,92,0
560.2543,560.30634,54,108,0
560.2543,560.30634,42,92,0
560.4617,560.51337,55,108,0
560.4617,560.51337,43,92,0
560.66766,560.71906,67,108,0
560.66766,560.71906,31,92,0
560.87244,560.9234,56,108,0
560.87244,560.9234,32,92,0
561.07587,561.1265,68,108,0
561.07587,561.1265,44,92,0
561.278,561.3283,57,108,0
561.278,561.3283,33,92,0
561.4789,561.5289,69,108,0
561.4789,561.5289,45,92,0
561.6785,561.7282,58,108,0
561.6785,561.7282,34,92,0
561.87695,561.9263,70,108,0
561.87695,561.9263,46,92,0
562.07416,562.12317,59,108,0
562.07416,562.12317,35,92,0
562.27014,562.31885,71,108,0
562.27014,562.31885,47,92,0
562.46497,562.5133,60,108,0
562.46497,562.5133,36,92,0
562.65906,562.708,72,108,0
562.65906,562.708,48,92,0
562.8556,562.9051,61,108,0
562.8556,562.9051,37,92,0
563.05457,563.1046,73,108,0
563.05457,563.1046,49,92,0
563.256,563.30664,62,108,0
563.256,563.30664,38,92,0
563.45996,563.51135,74,108,0
563.45996,563.51135,50,92,0
563.6666,563.7187,63,108,0
563.6666,563.7187,39,92,0
563.8759,563.9287,75,108,0
563.8759,563.9287,51,92,0
564.08795,564.14154,64,108,0
564.08795,564.14154,40,92,0
564.303,564.35724,76,108,0
564.303,564.35724,52,92,0
564.52094,564.57587,65,108,0
564.52094,564.57587,41,92,0
564.7418,564.7975,77,108,0
564.7418,564.7975,53,92,0
564.9658,565.0222,62,108,0
564.9658,565.0222,38,92,0
565.193,565.25024,74,108,0
565.193,565.25024,50,92,0
565.42346,565.48157,64,108,0
565.42346,565.48157,40,92,0
565.6572,565.7163,76,108,0
565.6572,565.7163,52,92,0
565.8945,566.37445,76,108,0
566.37445,566.61444,74,108,0
565.8945,566.79443,43,92,0
565.8945,566.79443,48,92,0
565.8945,566.79443,48,92,0
565.8945,566.79443,52,92,0
565.8945,566.79443,60,92,0
566.61444,566.81445,72,108,0
566.85443,567.3345,74,108,0
567.3345,567.57446,72,108,0
566.85443,567.75446,41,92,0
566.85443,567.75446,48,92,0
566.85443,567.75446,47,92,0
566.85443,567.75446,52,92,0
566.85443,567.75446,59,92,0
567.57446,567.7745,71,108,0
567.81445,568.23444,45,92,0
567.81445,568.23444,52,92,0
567.81445,568.23444,57,92,0
567.81445,568.29443,60,108,0
567.81445,568.29443,72,108,0
568.29443,568.5344,59,108,0
568.29443,568.5344,71,108,0
568.5344,568.73444,57,108,0
568.5344,568.73444,69,108,0
568.29443,569.19446,40,92,0
568.29443,569.19446,52,92,0
568.7745,569.25446,59,108,0
568.7745,569.25446,71,108,0
569.25446,569.49445,57,108,0
569.25446,569.49445,69,108,0
569.49445,569.69446,56,108,0
569.49445,569.69446,68,108,0
569.25446,569.93445,40,92,0
569.25446,569.93445,52,92,0
569.9744,570.17444,40,92,0
569.9744,570.17444,52,92,0
569.73444,570.2145,57,108,0
569.73444,570.2145,69,108,0
570.2145,570.4144,38,92,0
570.2145,570.4144,50,92,0
570.2145,570.45447,56,108,0
570.2145,570.45447,68,108,0
570.45447,570.6545,36,92,0
570.45447,570.6545,48,92,0
570.45447,570.6545,69,108,0
570.45447,570.6545,57,108,0
570.69446,570.8945,59,108,0
570.69446,570.8945,71,108,0
570.69446,570.8945,35,92,0
570.69446,570.8945,47,92,0
570.93445,571.13446,41,92,0
570.93445,571.13446,53,92,0
571.17444,571.37445,56,108,0
571.17444,571.37445,68,108,0
571.17444,571.37445,40,92,0
571.17444,571.37445,52,92,0
571.4144,571.61444,38,92,0
571.4144,571.61444,50,92,0
571.6545,572.55444,76,108,0
571.6545,572.55444,88,108,0
571.6545,572.55444,36,92,0
571.6545,572.55444,40,92,0
571.6545,572.55444,48,92,0
572.61444,573.51447,76,108,0
572.61444,573.51447,88,108,0
572.61444,573.51447,35,92,0
572.61444,573.51447,40,92,0
572.61444,573.51447,47,92,0
573.57446,573.99445,33,92,0
573.57446,573.99445,40,92,0
573.57446,573.99445,45,92,0
573.57446,574.05444,76,108,0
573.57446,574.05444,88,108,0
574.05444,574.29443,74,108,0
574.05444,574.29443,86,108,0
574.29443,574.49445,72,108,0
574.29443,574.49445,84,108,0
574.05444,574.73444,40,92,0
574.05444,574.73444,52,92,0
574.7745,574.9744,41,92,0
574.7745,574.9744,53,92,0
574.5344,575.01447,74,108,0
574.5344,575.01447,86,108,0
575.01447,575.2145,40,92,0
575.01447,575.2145,52,92,0
575.01447,575.25446,72,108,0
575.01447,575.25446,84,108,0
575.25446,575.45447,71,108,0
575.25446,575.45447,83,108,0
575.25446,575.45447,38,92,0
575.25446,575.45447,50,92,0
575.49445,575.69446,36,92,0
575.49445,575.69446,48,92,0
575.73444,575.93445,35,92,0
575.73444,575.93445,47,92,0
575.49445,575.9744,72,108,0
575.49445,575.9744,84,108,0
575.9744,576.17444,33,92,0
575.9744,576.17444,45,92,0
575.9744,576.2145,71,108,0
575.9744,576.2145,83,108,0
576.2145,576.4144,72,108,0
576.2145,576.4144,84,108,0
576.2145,576.4144,31,92,0
576.2145,576.4144,43,92,0
576.45447,576.6545,74,108,0
576.45447,576.6545,86,108,0
576.45447,576.6545,29,92,0
576.45447,576.6545,41,92,0
576.69446,576.8945,38,92,0
576.93445,577.13446,71,108,0
576.93445,577.13446,83,108,0
576.93445,577.13446,40,92,0
577.17444,577.37445,52,92,0
577.4144,577.61444,69,60,0
577.4144,577.61444,81,60,0
577.4144,577.61444,33,45,0
577.4144,577.61444,45,45,0
577.8945,578.0944,72,60,0
577.8945,578.0944,84,60,0
578.37445,578.57446,76,60,0
578.37445,578.57446,88,60,0
578.85443,579.05444,72,60,0
578.85443,579.05444,84,60,0
579.3345,579.5344,69,60,0
579.3345,579.5344,81,60,0
579.3345,579.5344,33,45,0
579.3345,579.5344,45,45,0
579.81445,580.01447,36,45,0
579.81445,580.01447,48,45,0
580.29443,580.49445,40,45,0
580.29443,580.49445,52,45,0
580.7745,580.9744,36,45,0
580.7745,580.9744,48,45,0
581.25446,581.45447,33,45,0
581.25446,581.45447,45,45,0
581.25446,581.67444,69,60,0
581.25446,581.67444,81,60,0
581.73444,582.1545,72,60,0
581.73444,582.1545,84,60,0
582.2145,582.63446,76,60,0
582.2145,582.63446,88,60,0
582.69446,583.11444,72,60,0
582.69446,583.11444,84,60,0
583.17444,583.37445,69,60,0
583.17444,583.37445,81,60,0
583.17444,583.6545,33,45,0
583.17444,583.6545,45,45,0
583.6545,584.13446,36,44,0
583.6545,584.13446,48,44,0
584.13446,584.61444,40,43,0
584.13446,584.61444,52,43,0
584.61444,585.0944,36,42,0
584.61444,585.0944,48,42,0
585.0944,585.57446,33,41,0
585.0944,585.57446,45,41,0
585.57446,585.99445,72,60,0
585.57446,585.99445,84,60,0
585.57446,586.05444,36,40,0
585.57446,586.05444,48,40,0
586.05444,586.4744,76,58,0
586.05444,586.4744,88,58,0
586.05444,586.5344,40,39,0
586.05444,586.5344,52,39,0
586.5344,586.95447,72,56,0
586.5344,586.95447,84,56,0
586.5344,587.01447,36,38,0
586.5344,587.01447,48,38,0
587.01447,587.43445,69,54,0
587.01447,587.43445,81,54,0
587.01447,587.49445,33,37,0
587.01447,587.49445,45,37,0
587.49445,587.9144,72,52,0
587.49445,587.9144,84,52,0
587.49445,587.9744,36,36,0
587.49445,587.9744,48,36,0
587.9744,588.3945,76,50,0
587.9744,588.3945,88,50,0
587.9744,588.45447,40,34,0
587.9744,588.45447,52,34,0
588.45447,588.87445,72,48,0
588.45447,588.87445,84,48,0
588.45447,588.87445,36,32,0
588.45447,588.87445,48,32,0
588.93445,589.05194,69,45,0
588.93445,589.05194,81,45,0
588.93445,589.05194,33,30,0
588.93445,589.05194,45,30,0
589.05444,589.17194,57,45,0
589.05444,589.17194,45,30,0
589.17444,589.29193,60,45,0
589.17444,589.29193,48,30,0
589.29443,589.4119,57,45,0
589.29443,589.4119,45,30,0
589.4144,589.5319,60,45,0
589.4144,589.5319,48,30,0
589.5344,589.652,57,45,0
589.5344,589.652,45,30,0
589.6545,589.772,60,45,0
589.6545,589.772,48,30,0
589.7745,589.89197,57,45,0
589.7745,589.89197,45,30,0
589.8945,590.01196,60,45,0
589.8945,590.01196,48,30,0
590.01447,590.13196,57,45,0
590.01447,590.13196,45,30,0
590.13446,590.25195,60,45,0
590.13446,590.25195,48,30,0
590.25446,590.37195,57,45,0
590.25446,590.37195,45,30,0
590.37445,590.49194,60,45,0
590.37445,590.49194,48,30,0
590.49445,590.61194,57,45,0
590.49445,590.61194,45,30,0
590.61444,590.73193,60,45,0
590.61444,590.73193,48,30,0
590.73444,590.8519,57,45,0
590.73444,590.8519,45,30,0
590.85443,590.9719,60,45,0
590.85443,590.9719,48,30,0
590.9744,591.092,57,45,0
590.9744,591.092,45,30,0
591.0944,591.212,60,45,0
591.0944,591.212,48,30,0
591.2145,591.332,57,45,0
591.2145,591.332,45,30,0
591.3345,591.45197,60,45,0
591.3345,591.45197,48,30,0
591.45447,591.57196,57,45,0
591.45447,591.57196,45,30,0
591.57446,591.69196,60,45,0
591.57446,591.69196,48,30,0
591.69446,591.81195,57,45,0
591.69446,591.81195,45,30,0
591.81445,591.93195,60,45,0
591.81445,591.93195,48,30,0
591.93445,592.05194,57,45,0
591.93445,592.05194,45,30,0
592.05444,592.17194,60,45,0
592.05444,592.17194,48,30,0
592.17444,592.29193,57,45,0
592.17444,592.29193,45,30,0
592.29443,592.4119,60,45,0
592.29443,592.4119,48,30,0
592.4144,592.5319,57,45,0
592.4144,592.5319,45,30,0
592.5344,592.77924,60,45,0
592.5344,592.77924,48,30,0
592.7844,593.02924,57,45,0
592.7844,593.02924,45,30,0
593.0344,596.9094,53,45,0
593.0344,596.9094,57,45,0
593.0344,596.9094,60,45,0
593.0344,596.9094,41,30,0
593.0344,596.9094,45,30,0
593.0344,596.9094,48,30,0
597.0344,600.4094,50,45,0
597.0344,600.4094,53,45,0
597.0344,600.4094,58,45,0
597.0344,600.4094,62,45,0
597.0344,600.4094,34,30,0
597.0344,600.4094,41,30,0
597.0344,600.4094,46,30,0
600.5344,601.0344,73,45,0
601.0344,602.9094,62,45,0
601.0344,602.9094,65,45,0
601.0344,602.9094,69,45,0
601.0344,602.9094,74,45,0
601.0344,602.9094,38,30,0
601.0344,602.9094,50,30,0
603.0344,604.9094,57,45,0
603.0344,604.9094,62,45,0
603.0344,604.9094,69,45,0
603.0344,604.9094,41,30,0
603.0344,604.9094,50,30,0
603.0344,604.9094,53,30,0
605.0344,608.4094,60,45,0
605.0344,608.4094,64,45,0
605.0344,608.4094,69,45,0
605.0344,608.4094,72,45,0
605.0344,608.4094,45,30,0
605.0344,608.4094,52,30,0
605.0344,608.4094,57,30,0
609.0344,609.2011,59,108,0
609.0344,609.2011,64,108,0
609.0344,609.2011,68,108,0
609.0344,609.2011,71,108,0
609.0344,609.2011,38,92,0
609.0344,609.2011,43,92,0
609.0344,609.2011,48,92,0
609.0344,609.2011,50,92,0
609.8345,610.0011,76,108,0
609.8345,610.0011,80,108,0
609.8345,610.0011,83,108,0
609.8345,610.0011,88,108,0
609.8345,610.0011,52,92,0
609.8345,610.0011,56,92,0
609.8345,610.0011,59,92,0
609.8345,610.0011,64,92,0
610.63446,610.73236,72,108,0
610.63446,610.73236,76,108,0
610.63446,610.73236,81,108,0
610.63446,610.73236,84,108,0
610.63446,610.73236,45,92,0
610.63446,610.73236,48,92,0
610.63446,610.73236,53,92,0
610.63446,610.73236,57,92,0
610.73444,610.8324,59,108,0
610.73444,610.8324,47,92,0
610.8345,610.9324,60,108,0
610.8345,610.9324,48,92,0
610.93445,611.03235,62,108,0
610.93445,611.03235,50,92,0
611.0344,611.1324,64,108,0
611.0344,611.1324,52,92,0
611.13446,611.23236,66,108,0
611.13446,611.23236,54,92,0
611.23444,611.3324,68,108,0
611.23444,611.3324,56,92,0
611.3345,611.4324,64,108,0
611.3345,611.4324,52,92,0
611.43445,611.53235,69,108,0
611.43445,611.53235,57,92,0
611.5344,611.6324,67,108,0
611.5344,611.6324,55,92,0
611.63446,611.73236,65,108,0
611.63446,611.73236,53,92,0
611.73444,611.8324,64,108,0
611.73444,611.8324,52,92,0
611.8345,611.9324,62,108,0
611.8345,611.9324,50,92,0
611.93445,612.03235,60,108,0
611.93445,612.03235,48,92,0
612.0344,612.1324,59,108,0
612.0344,612.1324,47,92,0
612.13446,612.23236,57,108,0
612.13446,612.23236,45,92,0
612.23444,612.4011,59,108,0
612.23444,612.4011,64,108,0
612.23444,612.4011,68,108,0
612.23444,612.4011,71,108,0
612.23444,612.4011,40,92,0
612.23444,612.4011,44,92,0
612.23444,612.4011,47,92,0
612.23444,612.4011,52,92,0
613.0344,613.2011,76,108,0
613.0344,613.2011,80,108,0
613.0344,613.2011,83,108,0
613.0344,613.2011,88,108,0
613.0344,613.2011,52,92,0
613.0344,613.2011,56,92,0
613.0344,613.2011,59,92,0
613.0344,613.2011,64,92,0
613.8345,613.9324,72,108,0
613.8345,613.9324,76,108,0
613.8345,613.9324,81,108,0
613.8345,613.9324,84,108,0
613.8345,613.9324,45,92,0
613.8345,613.9324,48,92,0
613.8345,613.9324,53,92,0
613.8345,613.9324,57,92,0
613.93445,614.03235,59,108,0
613.93445,614.03235,47,92,0
614.0344,614.1324,60,108,0
614.0344,614.1324,48,92,0
614.13446,614.23236,62,108,0
614.13446,614.23236,50,92,0
614.23444,614.3324,64,108,0
614.23444,614.3324,52,92,0
614.3345,614.4324,66,108,0
614.3345,614.4324,54,92,0
614.43445,614.53235,68,108,0
614.43445,614.53235,56,92,0
614.5344,614.6324,64,108,0
614.5344,614.6324,52,92,0
614.63446,614.73236,69,108,0
614.63446,614.73236,57,92,0
614.73444,614.8324,67,108,0
614.73444,614.8324,55,92,0
614.8345,614.9324,65,108,0
614.8345,614.9324,53,92,0
614.93445,615.03235,64,108,0
614.93445,615.03235,52,92,0
615.0344,615.1324,62,108,0
615.0344,615.1324,50,92,0
615.13446,615.23236,60,108,0
615.13446,615.23236,48,92,0
615.23444,615.3324,59,108,0
615.23444,615.3324,47,92,0
615.3345,615.4324,45,92,0
615.3345,615.4324,57,108,0
615.43445,615.60114,59,108,0
615.43445,615.60114,64,108,0
615.43445,615.60114,68,108,0
615.43445,615.60114,71,108,0
615.43445,615.60114,40,92,0
615.43445,615.60114,44,92,0
615.43445,615.60114,47,92,0
615.43445,615.60114,52,92,0
616.23444,616.4011,76,108,0
616.23444,616.4011,80,108,0
616.23444,616.4011,83,108,0
616.23444,616.4011,88,108,0
616.23444,616.4011,52,92,0
616.23444,616.4011,56,92,0
616.23444,616.4011,59,92,0
616.23444,616.4011,64,92,0
617.0344,617.1324,72,108,0
617.0344,617.1324,76,108,0
617.0344,617.1324,81,108,0
617.0344,617.1324,84,108,0
617.0344,617.1324,45,92,0
617.0344,617.1324,48,92,0
617.0344,617.1324,53,92,0
617.0344,617.1324,57,92,0
617.13446,617.23236,81,108,0
617.13446,617.23236,57,92,0
617.23444,617.3324,79,108,0
617.23444,617.3324,55,92,0
617.3345,617.4324,77,108,0
617.3345,617.4324,53,92,0
617.43445,617.53235,76,108,0
617.43445,617.53235,52,92,0
617.5344,617.6324,77,108,0
617.5344,617.6324,53,92,0
617.63446,617.73236,76,108,0
617.63446,617.73236,52,92,0
617.73444,617.8324,74,108,0
617.73444,617.8324,50,92,0
617.8345,617.9324,72,108,0
617.8345,617.9324,48,92,0
617.93445,618.03235,77,108,0
617.93445,618.03235,53,92,0
618.0344,618.1324,76,108,0
618.0344,618.1324,52,92,0
618.13446,618.23236,74,108,0
618.13446,618.23236,50,92,0
618.23444,618.3324,72,108,0
618.23444,618.3324,48,92,0
618.3345,618.4324,74,108,0
618.3345,618.4324,50,92,0
618.43445,618.53235,72,108,0
618.43445,618.53235,48,92,0
618.5344,618.6324,71,108,0
618.5344,618.6324,47,92,0
618.63446,618.73236,69,108,0
618.63446,618.73236,45,92,0
618.73444,618.8324,65,108,0
618.73444,618.8324,41,92,0
618.8345,618.9324,64,108,0
618.8345,618.9324,40,92,0
618.93445,619.03235,62,108,0
618.93445,619.03235,38,92,0
619.0344,619.1324,60,108,0
619.0344,619.1324,36,92,0
619.13446,619.23236,62,108,0
619.13446,619.23236,38,92,0
619.23444,619.3324,60,108,0
619.23444,619.3324,36,92,0
619.3345,619.4324,59,108,0
619.3345,619.4324,35,92,0
619.43445,619.53235,57,108,0
619.43445,619.53235,33,92,0
619.5344,619.6324,65,108,0
619.5344,619.6324,41,92,0
619.63446,619.73236,64,108,0
619.63446,619.73236,40,92,0
619.73444,619.8324,62,108,0
619.73444,619.8324,38,92,0
619.8345,619.9324,60,108,0
619.8345,619.9324,36,92,0
619.93445,620.03235,62,108,0
619.93445,620.03235,38,92,0
620.0344,620.1324,60,108,0
620.0344,620.1324,36,92,0
620.13446,620.23236,59,108,0
620.13446,620.23236,35,92,0
620.23444,620.4011,57,108,0
620.23444,620.4011,33,92,0
621.0344,621.23444,68,108,0
621.0344,621.23444,71,108,0
621.0344,621.23444,74,108,0
621.0344,621.23444,76,108,0
621.0344,621.23444,80,108,0
621.0344,621.23444,40,92,0
621.0344,621.23444,44,92,0
621.0344,621.23444,47,92,0
621.0344,621.23444,52,92,0
621.99445,622.32776,69,108,0
621.99445,622.32776,72,108,0
621.99445,622.32776,76,108,0
621.99445,622.32776,81,108,0
621.99445,622.32776,33,92,0
621.99445,622.32776,36,92,0
621.99445,622.32776,40,92,0
621.99445,622.32776,45,92,0
209.33829,209.51685,57,108,45
209.33829,209.51685,64,108,45
209.33829,209.51685,69,108,45
209.33829,209.51685,79,108,45
210.19542,210.374,62,108,45
210.19542,210.374,69,108,45
210.19542,210.374,77,108,45
211.05257,211.23114,55,108,45
211.05257,211.23114,62,108,45
211.05257,211.23114,71,108,45
211.05257,211.23114,77,108,45
211.48112,211.6597,60,108,45
211.48112,211.6597,64,108,45
211.48112,211.6597,72,108,45
211.48112,211.6597,76,108,45
212.76685,212.94542,64,108,45
212.76685,212.94542,69,108,45
212.76685,212.94542,81,108,45
213.62398,213.80255,64,108,45
213.62398,213.80255,71,108,45
213.62398,213.80255,83,108,45
214.48112,214.6597,63,108,45
214.48112,214.6597,71,108,45
214.48112,214.6597,83,108,45
499.62564,499.8042,69,108,45
499.62564,499.8042,76,108,45
499.62564,499.8042,84,108,45
500.48276,500.66135,62,108,45
500.48276,500.66135,74,108,45
500.48276,500.66135,84,108,45
501.3399,501.51846,67,108,45
501.3399,501.51846,72,108,45
501.3399,501.51846,82,108,45
502.19705,502.3756,64,108,45
502.19705,502.3756,72,108,45
502.19705,502.3756,82,108,45
502.6256,502.8042,65,108,45
502.6256,502.8042,72,108,45
502.6256,502.8042,81,108,45
503.91132,504.0899,65,108,45
503.91132,504.0899,72,108,45
503.91132,504.0899,81,108,45
504.76846,504.94705,64,108,45
504.76846,504.94705,72,108,45
504.76846,504.94705,81,108,45
505.6256,505.80417,64,108,45
505.6256,505.80417,71,108,45
505.6256,505.80417,80,108,45
