start_time,end_time,note_value,velocity,instrument_program_number
1.8,2.4,57,60,0
1.8,2.4,60,60,0
1.8,2.4,65,60,0
2.4,2.6,55,60,0
2.4,2.6,58,60,0
2.4,2.6,64,60,0
3.0,4.0,55,75,0
3.0,4.0,58,75,0
3.0,4.0,64,75,0
2.4,4.5,36,45,0
2.4,4.5,48,45,0
4.2,4.8,53,60,0
4.2,4.8,58,60,0
4.2,4.8,62,60,0
4.8,5.0,52,60,0
4.8,5.0,58,60,0
4.8,5.0,60,60,0
5.4,6.4,52,75,0
5.4,6.4,58,75,0
5.4,6.4,60,75,0
4.8,6.9,36,45,0
4.8,6.9,48,45,0
6.6,7.1875,53,60,0
6.6,7.1875,58,60,0
6.6,7.1875,62,60,0
7.2,7.7875,55,60,0
7.2,7.7875,58,60,0
7.2,7.7875,64,60,0
7.2,8.2,36,45,0
7.2,8.2,48,45,0
7.8,8.3875,53,60,0
7.8,8.3875,58,60,0
7.8,8.3875,62,60,0
8.4,8.9875,55,60,0
8.4,8.9875,58,60,0
8.4,8.9875,64,60,0
8.4,9.4,36,45,0
8.4,9.4,48,45,0
9.0,9.5875,57,60,0
9.0,9.5875,60,60,0
9.0,9.5875,65,60,0
9.6,10.6,57,60,0
9.6,10.6,60,60,0
9.6,10.6,63,60,0
9.6,10.6,66,60,0
9.6,11.2,36,45,0
9.6,11.2,48,45,0
10.8,11.3875,58,67,0
10.8,11.3875,60,67,0
10.8,11.3875,64,67,0
10.8,11.3875,67,67,0
11.4,11.6875,48,56,0
11.7,11.8375,50,58,0
11.4,11.9875,58,71,0
11.4,11.9875,60,71,0
11.4,11.9875,68,71,0
11.85,11.9875,52,59,0
12.0,12.5875,57,45,0
12.0,12.5875,60,45,0
12.0,12.5875,53,45,0
12.0,13.6,69,60,0
12.6,13.6,57,45,0
12.6,13.6,41,45,0
13.8,14.0875,58,45,0
13.8,14.0875,43,45,0
13.8,14.3875,65,60,0
14.1,14.3875,60,45,0
14.1,14.3875,45,45,0
12.6,14.9875,53,45,0
14.4,14.9875,62,60,0
14.4,14.9875,46,45,0
15.0,16.0,70,75,0
15.0,16.0,58,45,0
15.0,16.0,55,60,0
15.0,16.0,43,45,0
16.2,16.4875,69,60,0
16.2,16.4875,60,45,0
16.2,16.4875,45,45,0
16.2,16.7875,55,60,0
16.5,16.7875,67,60,0
16.5,16.7875,62,45,0
16.5,16.7875,46,45,0
16.8,17.1,65,60,0
17.1,17.3,64,60,0
16.8,17.3875,48,45,0
16.8,17.3875,55,45,0
17.4,17.9875,64,60,0
17.4,17.9875,48,45,0
17.4,17.9875,55,45,0
18.0,18.075,64,60,0
18.075,18.15,65,60,0
18.15,18.225,64,60,0
18.225,18.3,65,60,0
18.3,18.375,64,60,0
18.375,18.45,65,60,0
18.45,18.525,64,60,0
18.0,18.5875,55,60,0
18.0,18.5875,48,45,0
18.525,18.6,65,60,0
18.6,18.8875,57,53,0
18.6,18.9,72,60,0
18.6,19.1875,48,45,0
18.9,19.1875,64,58,0
18.9,19.1875,58,49,0
19.2,19.4,53,45,0
19.8,20.0,48,45,0
19.2,20.4,58,56,0
19.2,20.4,60,56,0
19.2,20.4,64,56,0
19.2,20.4,67,56,0
20.4,21.4,57,45,0
20.4,21.4,60,45,0
20.4,21.4,65,45,0
20.4,21.4,53,45,0
21.6,22.1875,36,45,0
22.2,22.7875,48,45,0
22.2,23.2,55,45,0
22.2,23.2,58,45,0
22.2,23.2,64,45,0
22.8,23.3875,48,45,0
23.4,23.9875,53,45,0
23.4,23.9875,58,45,0
23.4,23.9875,62,45,0
23.4,23.9875,48,45,0
24.0,24.5875,36,45,0
24.6,25.1875,48,45,0
24.6,25.6,52,45,0
24.6,25.6,58,45,0
24.6,25.6,60,45,0
25.2,25.7875,48,45,0
25.8,26.3875,53,45,0
25.8,26.3875,58,45,0
25.8,26.3875,62,45,0
25.8,26.3875,48,45,0
26.4,26.9875,55,45,0
26.4,26.9875,58,45,0
26.4,26.9875,64,45,0
26.4,26.9875,36,45,0
27.0,27.5875,53,45,0
27.0,27.5875,58,45,0
27.0,27.5875,62,45,0
27.0,27.5875,48,45,0
27.6,28.1875,55,45,0
27.6,28.1875,58,45,0
27.6,28.1875,64,45,0
27.6,28.1875,36,45,0
28.2,28.7875,57,45,0
28.2,28.7875,60,45,0
28.2,28.7875,65,45,0
28.2,28.7875,48,45,0
28.8,29.3875,36,45,0
29.4,29.9875,48,48,0
28.8,30.0,57,45,0
28.8,30.0,60,45,0
28.8,30.0,63,45,0
28.8,30.0,66,45,0
30.0,30.5875,48,52,0
30.0,30.6,58,60,0
30.0,30.6,60,60,0
30.0,30.6,64,60,0
30.0,30.6,67,60,0
30.6,30.9,48,56,0
30.9,31.05,50,58,0
30.6,31.2,58,67,0
30.6,31.2,60,67,0
30.6,31.2,68,67,0
31.05,31.2,52,59,0
31.2,31.4,53,45,0
31.2,31.7875,57,60,0
31.2,31.7875,60,60,0
31.2,31.7875,69,60,0
31.8,32.8,29,45,0
31.8,32.8,41,45,0
31.8,33.0,57,60,0
33.0,33.2875,31,52,0
33.0,33.2875,43,52,0
33.0,33.3,58,67,0
33.3,33.5875,33,54,0
33.3,33.5875,45,54,0
33.3,33.6,60,69,0
33.6,34.1875,62,71,0
33.6,34.1875,34,56,0
33.6,34.1875,46,56,0
34.2,35.2,31,60,0
34.2,35.2,43,60,0
34.2,35.4,58,75,0
35.4,35.6875,33,60,0
35.4,35.6875,45,60,0
35.4,35.7,60,75,0
35.7,35.9875,62,68,0
35.7,35.9875,34,53,0
35.7,35.9875,46,53,0
36.0,36.5875,36,45,0
36.0,36.6,55,60,0
36.6,37.1875,48,45,0
36.6,37.2,55,60,0
37.2,37.275,55,60,0
37.275,37.35,57,60,0
37.35,37.425,55,60,0
37.425,37.5,57,60,0
37.5,37.575,55,60,0
37.575,37.65,57,60,0
37.65,37.725,55,60,0
37.2,37.7875,48,45,0
37.725,37.8,57,60,0
37.8,38.1,57,60,0
37.8,38.3875,48,45,0
38.1,38.3875,58,60,0
38.4,38.6,41,45,0
39.0,39.2,36,45,0
38.4,39.6,48,60,0
38.4,39.6,52,60,0
38.4,39.6,58,60,0
39.6,39.8,41,45,0
39.6,40.1875,48,60,0
39.6,40.1875,53,60,0
39.6,40.1875,57,60,0
40.2,40.7875,53,45,0
40.2,40.7875,57,45,0
40.2,40.8,69,60,0
40.8,41.3875,52,45,0
40.8,41.3875,55,45,0
40.2,41.4,60,60,0
40.8,41.4,67,60,0
41.4,41.9875,48,45,0
41.4,41.9875,55,45,0
41.4,42.0,64,60,0
41.4,42.0,72,60,0
41.4,42.4,60,45,0
42.0,42.5875,53,45,0
42.0,42.5875,57,45,0
42.0,42.6,65,60,0
42.0,42.6,69,60,0
42.6,43.1875,65,60,0
42.6,43.1875,60,45,0
42.6,43.1875,57,45,0
43.2,43.7875,67,60,0
43.2,43.7875,60,45,0
43.2,43.7875,52,45,0
43.2,43.7875,55,45,0
43.8,44.3875,64,60,0
43.8,44.3875,72,60,0
43.8,44.3875,48,45,0
43.8,44.3875,55,45,0
43.8,44.8,60,45,0
44.4,44.9875,65,63,0
44.4,44.9875,69,63,0
44.4,44.9875,53,48,0
44.4,44.9875,57,48,0
45.0,45.5875,65,67,0
45.0,45.5875,69,67,0
45.0,45.5875,77,67,0
45.0,45.5875,62,52,0
45.0,45.5875,50,52,0
45.0,45.5875,57,52,0
45.6,46.1875,65,71,0
45.6,46.1875,71,71,0
45.6,46.1875,62,56,0
45.6,46.1875,55,56,0
45.6,46.1875,59,56,0
46.2,47.2,67,75,0
46.2,47.2,79,75,0
46.2,47.2,55,60,0
46.2,47.2,59,60,0
47.4,47.6875,57,45,0
47.4,47.6875,60,45,0
47.4,47.9875,67,60,0
47.4,47.9875,77,60,0
47.7,47.9875,59,45,0
47.7,47.9875,62,45,0
48.0,48.5875,67,60,0
48.0,48.5875,72,60,0
48.0,48.5875,76,60,0
48.0,48.5875,60,45,0
48.0,48.5875,64,45,0
48.6,49.1875,67,62,0
48.6,49.1875,71,62,0
48.6,49.1875,74,62,0
48.6,49.1875,62,47,0
48.6,49.1875,65,47,0
49.2,49.7875,67,64,0
49.2,49.7875,72,64,0
49.2,49.7875,64,49,0
49.8,50.3875,69,66,0
49.8,50.3875,72,66,0
49.8,50.3875,74,66,0
49.8,50.3875,53,51,0
49.8,50.3875,65,51,0
50.4,51.4,76,69,0
50.4,51.4,72,45,0
50.4,51.4,55,54,0
50.4,51.4,67,54,0
51.6,52.4875,77,75,0
51.6,52.6,65,60,0
51.6,52.6,71,60,0
51.6,52.6,43,60,0
51.6,52.6,55,60,0
52.5,52.7875,74,75,0
52.8,53.3875,64,60,0
52.8,53.3875,72,60,0
53.4,53.9875,64,60,0
53.4,53.9875,67,60,0
54.0,54.5875,65,60,0
54.0,54.5875,69,60,0
54.6,55.1875,62,60,0
54.6,55.1875,71,60,0
52.8,55.7875,60,45,0
55.2,55.7875,64,60,0
55.2,55.7875,72,60,0
55.8,56.3875,67,60,0
55.8,56.3875,74,60,0
55.8,56.3875,59,45,0
52.8,56.8,48,45,0
56.4,56.9875,72,60,0
56.4,56.9875,76,60,0
56.4,56.9875,60,45,0
57.0,57.4375,71,75,0
57.0,57.4375,77,75,0
57.0,57.5875,55,60,0
57.45,57.5875,65,60,0
57.45,57.5875,74,60,0
57.6,58.1875,64,60,0
57.6,58.1875,72,60,0
57.6,58.1875,60,45,0
58.2,58.2625,67,60,0
58.275,58.3375,69,60,0
58.35,58.4125,67,60,0
58.425,58.4875,69,60,0
58.5,58.5625,67,60,0
58.575,58.6375,69,60,0
58.65,58.7125,66,60,0
58.2,58.7875,52,45,0
58.725,58.7875,67,60,0
58.8,58.8625,69,60,0
58.875,58.9375,71,60,0
58.95,59.0125,69,60,0
59.025,59.0875,71,60,0
59.1,59.1625,69,60,0
59.175,59.2375,71,60,0
59.25,59.3125,68,60,0
58.8,59.3875,53,45,0
59.325,59.3875,69,60,0
59.4,59.4625,71,60,0
59.475,59.5375,72,60,0
59.55,59.6125,71,60,0
59.625,59.6875,72,60,0
59.7,59.7625,71,60,0
59.775,59.8375,72,60,0
59.85,59.9125,69,60,0
59.4,59.9875,50,45,0
59.925,59.9875,71,60,0
60.0,60.0625,72,60,0
60.075,60.1375,74,60,0
60.15,60.2125,72,60,0
60.225,60.2875,74,60,0
60.3,60.3625,72,60,0
60.375,60.4375,74,60,0
60.45,60.5125,71,60,0
60.0,60.5875,52,45,0
60.525,60.5875,72,60,0
60.6,60.6625,74,60,0
60.675,60.7375,76,60,0
60.75,60.8125,74,60,0
60.825,60.8875,76,60,0
60.9,60.9625,74,60,0
60.975,61.0375,76,60,0
61.05,61.1125,72,60,0
60.6,61.1875,55,45,0
61.125,61.1875,74,60,0
61.2,61.2625,76,60,0
61.275,61.3375,77,60,0
61.35,61.4125,76,60,0
61.425,61.4875,77,60,0
61.5,61.5625,76,60,0
61.575,61.6375,77,60,0
61.65,61.7125,74,60,0
61.2,61.7875,60,45,0
61.725,61.7875,76,60,0
57.0,62.1,48,60,0
61.8,62.2375,71,75,0
61.8,62.2375,77,75,0
62.25,62.3875,65,60,0
62.25,62.3875,74,60,0
61.8,62.4,43,60,0
61.8,62.4,55,60,0
62.4,62.4625,72,60,0
62.475,62.5375,74,60,0
62.55,62.6125,72,60,0
62.625,62.6875,74,60,0
62.7,62.7625,72,60,0
62.775,62.8375,74,60,0
62.85,62.9125,72,60,0
62.4,62.9875,64,60,0
62.4,62.9875,48,45,0
62.4,62.9875,55,45,0
62.925,62.9875,74,60,0
63.0,63.4375,71,75,0
63.0,63.4375,77,75,0
63.0,63.5875,43,60,0
63.0,63.5875,55,60,0
63.45,63.5875,65,60,0
63.45,63.5875,74,60,0
63.6,63.6625,72,60,0
63.675,63.7375,74,60,0
63.75,63.8125,72,60,0
63.825,63.8875,74,60,0
63.9,63.9625,72,60,0
63.975,64.0375,74,60,0
64.05,64.1125,72,60,0
63.6,64.1875,64,60,0
63.6,64.1875,48,45,0
63.6,64.1875,55,45,0
64.125,64.1875,74,60,0
64.2,64.6375,71,75,0
64.2,64.6375,77,75,0
64.2,64.7875,43,60,0
64.2,64.7875,55,60,0
64.65,64.7875,65,60,0
64.65,64.7875,74,60,0
64.8,65.3875,48,45,0
64.8,65.3875,60,45,0
64.8,65.4,64,60,0
64.8,65.4,72,60,0
65.4,65.9875,60,45,0
65.4,66.0,62,63,0
65.4,66.0,65,63,0
65.4,66.0,70,63,0
66.0,66.5875,60,50,0
66.0,66.6,64,67,0
66.0,66.6,69,67,0
66.6,67.0375,48,55,0
66.6,67.05,58,71,0
66.6,67.05,62,71,0
66.6,67.05,67,71,0
67.05,67.1875,48,58,0
67.05,67.2,57,74,0
67.05,67.2,60,74,0
67.05,67.2,65,74,0
67.2,67.4,55,60,0
67.2,67.4,58,60,0
67.2,67.4,64,60,0
67.8,68.8,55,75,0
67.8,68.8,58,75,0
67.8,68.8,64,75,0
67.2,69.3,36,45,0
67.2,69.3,48,45,0
69.0,69.6,53,60,0
69.0,69.6,62,60,0
69.0,70.1875,58,60,0
69.6,70.1875,52,60,0
69.6,70.1875,60,60,0
70.2,71.2,52,60,0
70.2,71.2,58,60,0
70.2,71.2,60,60,0
69.6,71.7,36,45,0
69.6,71.7,48,45,0
71.4,71.9875,53,60,0
71.4,71.9875,58,60,0
71.4,71.9875,62,60,0
72.0,72.5875,55,60,0
72.0,72.5875,58,60,0
72.0,72.5875,64,60,0
72.0,72.8875,48,45,0
72.9,73.0375,46,45,0
72.6,73.1875,53,60,0
72.6,73.1875,58,60,0
72.6,73.1875,62,60,0
73.05,73.1875,45,45,0
73.2,73.7875,55,60,0
73.2,73.7875,58,60,0
73.2,73.7875,60,60,0
73.2,73.7875,64,60,0
73.2,73.7875,43,45,0
73.2,73.7875,48,45,0
73.8,74.3875,57,60,0
73.8,74.3875,60,60,0
73.8,74.3875,65,60,0
73.8,74.3875,41,45,0
73.8,74.3875,48,45,0
74.4,74.9875,40,45,0
74.4,74.9875,48,45,0
74.4,75.4,66,60,0
74.4,76.0,58,60,0
74.4,76.0,60,60,0
75.0,76.0,52,48,0
75.6,76.1875,67,70,0
76.2,76.5,36,56,0
76.5,76.65,38,58,0
76.2,76.7875,68,75,0
76.2,76.7875,58,60,0
76.2,76.7875,60,60,0
76.65,76.8,40,59,0
76.8,77.0,41,45,0
76.8,77.3875,57,45,0
76.8,77.3875,60,45,0
76.8,78.4,69,60,0
77.4,78.4,57,45,0
77.4,78.4,41,45,0
77.4,78.4,53,45,0
78.6,78.8875,58,55,0
78.6,78.8875,43,55,0
78.6,79.1875,65,60,0
78.9,79.1875,60,57,0
78.9,79.1875,45,57,0
79.2,79.7875,62,75,0
79.2,79.7875,53,60,0
79.2,79.7875,46,60,0
79.8,80.8,55,60,0
79.8,80.8,43,60,0
79.8,81.0,58,75,0
79.8,81.0,70,75,0
81.0,81.2875,45,60,0
81.0,81.3,60,68,0
81.0,81.3,69,68,0
81.0,81.5875,55,50,0
81.3,81.5875,62,66,0
81.3,81.5875,67,66,0
81.3,81.5875,46,60,0
81.6,81.9,65,64,0
81.9,82.1,64,62,0
81.6,82.1875,48,45,0
81.6,82.1875,55,45,0
82.2,82.7875,64,60,0
82.2,82.7875,48,45,0
82.2,82.7875,55,45,0
82.8,82.875,64,60,0
82.875,82.95,65,60,0
82.95,83.025,64,60,0
83.025,83.1,65,60,0
83.1,83.175,64,60,0
83.175,83.25,65,60,0
83.25,83.325,64,60,0
82.8,83.3875,55,45,0
82.8,83.3875,48,45,0
83.325,83.4,65,60,0
83.4,83.6875,57,45,0
83.4,83.7,72,60,0
83.4,83.9875,48,45,0
83.7,83.9875,64,60,0
83.7,83.9875,58,45,0
84.0,84.2,53,45,0
84.6,84.8,48,45,0
84.0,85.2,58,60,0
84.0,85.2,60,60,0
84.0,85.2,64,60,0
84.0,85.2,67,60,0
85.2,85.7875,57,60,0
85.2,85.7875,60,60,0
85.2,85.7875,65,60,0
85.2,85.7875,53,45,0
85.8,86.3875,57,60,0
85.8,86.3875,41,45,0
85.8,86.9875,60,60,0
85.8,86.9875,48,45,0
86.4,86.9875,55,60,0
86.4,86.9875,40,45,0
87.0,87.5875,52,60,0
87.0,87.5875,55,60,0
87.0,87.5875,60,60,0
87.0,87.5875,36,45,0
87.0,87.5875,48,45,0
87.6,88.1875,53,60,0
87.6,88.1875,57,60,0
87.6,88.1875,60,60,0
87.6,88.1875,41,45,0
87.6,88.1875,48,45,0
88.2,88.7875,45,45,0
88.2,88.7875,48,45,0
88.2,88.8,53,60,0
88.2,89.3875,60,60,0
88.8,89.3875,55,60,0
88.8,89.3875,40,45,0
88.8,89.3875,48,45,0
89.4,89.9875,52,63,0
89.4,89.9875,55,63,0
89.4,89.9875,36,48,0
89.4,89.9875,48,48,0
89.4,90.5875,60,63,0
90.0,90.5875,53,66,0
90.0,90.5875,57,66,0
90.0,90.5875,41,51,0
90.0,90.5875,48,51,0
90.6,91.1875,38,54,0
90.6,91.2,53,69,0
90.6,91.2,57,69,0
90.6,91.2,65,69,0
90.6,91.7875,50,54,0
91.2,91.7875,53,72,0
91.2,91.7875,59,72,0
91.2,91.7875,43,57,0
91.8,93.0,55,75,0
91.8,93.0,59,75,0
91.8,93.0,67,75,0
91.8,93.0,31,60,0
91.8,93.0,43,60,0
93.0,93.3,60,60,0
93.0,93.3,33,45,0
93.0,93.3,45,45,0
93.0,93.5875,55,45,0
93.0,93.5875,65,45,0
93.3,93.5875,62,60,0
93.3,93.5875,35,45,0
93.3,93.5875,47,45,0
93.6,94.1875,55,60,0
93.6,94.1875,60,60,0
93.6,94.1875,64,60,0
93.6,94.1875,36,45,0
93.6,94.1875,48,45,0
94.2,94.7875,53,62,0
94.2,94.7875,55,62,0
94.2,94.7875,59,62,0
94.2,94.7875,62,62,0
94.2,94.7875,38,47,0
94.2,94.7875,50,47,0
94.8,95.3875,55,64,0
94.8,95.3875,60,64,0
94.8,95.3875,40,49,0
94.8,95.3875,52,49,0
95.4,95.9875,57,66,0
95.4,95.9875,60,66,0
95.4,95.9875,62,66,0
95.4,95.9875,41,51,0
95.4,95.9875,53,51,0
96.0,97.0,60,69,0
96.0,97.0,64,69,0
96.0,97.0,43,54,0
96.0,97.0,55,54,0
97.2,98.2,53,75,0
97.2,98.2,55,75,0
97.2,98.2,59,75,0
97.2,98.2,62,75,0
97.2,98.2,31,60,0
97.2,98.2,43,60,0
98.4,98.9875,52,60,0
98.4,98.9875,60,60,0
99.0,99.6,52,60,0
99.0,99.6,55,60,0
99.6,100.2,53,60,0
99.6,100.2,57,60,0
100.2,100.8,50,60,0
100.2,100.8,59,60,0
98.4,101.3875,48,45,0
100.8,101.4,52,60,0
100.8,101.4,60,60,0
101.4,101.9875,47,45,0
101.4,102.0,55,60,0
101.4,102.0,62,60,0
98.4,102.4,36,45,0
102.0,102.5875,48,45,0
102.0,102.6,55,60,0
102.0,102.6,64,60,0
102.6,103.05,59,75,0
102.6,103.05,65,75,0
102.6,103.1875,43,75,0
103.05,103.1875,53,60,0
103.05,103.1875,62,60,0
103.2,103.7875,52,60,0
103.2,103.7875,60,60,0
103.8,104.1,52,60,0
104.1,104.4,55,61,0
104.4,104.7,53,62,0
104.7,105.0,57,63,0
105.0,105.3,50,64,0
105.3,105.6,59,65,0
105.6,105.9,52,66,0
103.2,106.1875,48,45,0
105.9,106.2,60,67,0
106.2,106.5,55,68,0
106.2,106.7875,47,45,0
106.5,106.8,62,69,0
106.8,107.1,60,71,0
102.6,107.2,36,75,0
106.8,107.3875,48,45,0
107.1,107.4,64,73,0
107.4,107.7,59,75,0
107.4,107.7,65,75,0
107.7,107.9875,53,75,0
107.7,107.9875,62,75,0
107.4,108.0,31,60,0
107.4,108.0,43,60,0
108.0,108.2875,36,60,0
108.0,108.2875,43,60,0
108.0,108.3,52,60,0
108.3,108.6,60,60,0
108.6,108.9,59,75,0
108.6,108.9,65,75,0
108.9,109.1875,53,75,0
108.9,109.1875,62,75,0
108.6,109.2,31,60,0
108.6,109.2,43,60,0
109.2,109.4875,36,60,0
109.2,109.4875,43,60,0
109.2,109.5,52,60,0
109.5,109.8,60,60,0
109.8,110.1,59,75,0
109.8,110.1,65,75,0
110.1,110.3875,53,75,0
110.1,110.3875,62,75,0
109.8,110.4,31,60,0
109.8,110.4,43,60,0
110.4,110.9875,36,60,0
110.4,110.9875,48,60,0
110.4,111.0,52,75,0
110.4,111.0,60,75,0
111.0,111.5875,48,60,0
111.0,111.6,62,75,0
111.0,111.6,65,75,0
111.0,111.6,70,75,0
111.6,112.1875,48,60,0
111.6,112.2,60,75,0
111.6,112.2,64,75,0
111.6,112.2,69,75,0
112.2,112.6375,48,60,0
112.2,112.65,58,75,0
112.2,112.65,62,75,0
112.2,112.65,67,75,0
112.65,112.7875,57,75,0
112.65,112.7875,60,75,0
112.65,112.7875,65,75,0
112.65,112.7875,48,60,0
112.8,113.3875,55,60,0
112.8,113.3875,58,60,0
112.8,113.3875,64,60,0
113.4,114.4,55,75,0
113.4,114.4,58,75,0
113.4,114.4,64,75,0
112.8,114.9,36,45,0
112.8,114.9,48,45,0
114.6,115.2,53,60,0
114.6,115.2,58,60,0
114.6,115.2,62,60,0
115.2,115.7875,52,60,0
115.2,115.7875,58,60,0
115.2,115.7875,60,60,0
115.8,116.8,52,75,0
115.8,116.8,58,75,0
115.8,116.8,60,75,0
115.2,117.3,36,45,0
115.2,117.3,48,45,0
117.0,117.6,53,60,0
117.0,117.6,58,60,0
117.0,117.6,62,60,0
117.6,117.75,36,45,0
117.6,118.1875,55,60,0
117.6,118.1875,58,60,0
117.6,118.1875,64,60,0
117.75,118.4875,48,45,0
118.5,118.6375,46,45,0
118.2,118.7875,53,60,0
118.2,118.7875,58,60,0
118.2,118.7875,62,60,0
118.65,118.7875,45,45,0
118.8,119.3875,55,60,0
118.8,119.3875,58,60,0
118.8,119.3875,60,60,0
118.8,119.3875,64,60,0
118.8,119.3875,43,45,0
118.8,119.3875,48,45,0
119.4,119.9875,57,60,0
119.4,119.9875,60,60,0
119.4,119.9875,65,60,0
119.4,119.9875,41,45,0
119.4,119.9875,48,45,0
120.0,120.6,40,45,0
120.0,120.6,48,45,0
120.0,121.2,66,60,0
120.0,121.6,58,45,0
120.0,121.6,60,45,0
120.6,121.6,52,48,0
121.2,121.8,67,67,0
121.8,122.1,36,56,0
122.1,122.25,38,58,0
121.8,122.3875,68,71,0
121.8,122.3875,58,56,0
121.8,122.3875,60,56,0
122.25,122.4,40,59,0
122.4,122.6,41,45,0
122.4,122.9875,57,60,0
122.4,122.9875,60,60,0
122.4,122.9875,69,60,0
123.0,124.0,29,45,0
123.0,124.0,41,45,0
123.0,124.2,57,60,0
124.2,124.5,58,67,0
124.2,124.5,31,52,0
124.2,124.5,43,52,0
124.5,124.8,60,69,0
124.5,124.8,33,54,0
124.5,124.8,45,54,0
124.8,125.3875,62,71,0
124.8,125.3875,34,56,0
124.8,125.3875,46,56,0
125.4,126.6,58,75,0
125.4,126.6,70,75,0
125.4,126.6,31,60,0
125.4,126.6,43,60,0
126.6,126.9,60,75,0
126.6,126.9,69,75,0
126.6,126.9,33,60,0
126.6,126.9,45,60,0
126.9,127.1875,62,72,0
126.9,127.1875,67,72,0
126.9,127.2,34,57,0
126.9,127.2,46,57,0
127.2,127.5,65,68,0
127.5,127.7,64,64,0
127.2,127.7875,36,53,0
127.2,127.7875,48,53,0
127.8,128.3875,64,60,0
127.8,128.3875,55,45,0
127.8,128.3875,36,45,0
127.8,128.3875,48,45,0
128.4,128.9875,36,45,0
128.4,128.9875,48,45,0
128.4,128.9875,64,60,0
128.4,129.0,55,45,0
129.0,129.3,57,45,0
129.0,129.5875,64,60,0
129.0,129.5875,36,45,0
129.0,129.5875,48,45,0
129.3,129.5875,58,45,0
129.6,129.8,41,45,0
129.6,129.8,53,45,0
130.2,130.4,36,45,0
130.2,130.4,48,45,0
129.6,130.8,58,60,0
129.6,130.8,60,60,0
129.6,130.8,64,60,0
129.6,130.8,67,60,0
130.8,131.3875,57,60,0
130.8,131.3875,60,60,0
130.8,131.3875,65,60,0
130.8,131.3875,41,45,0
130.8,131.3875,53,45,0
131.4,131.475,77,60,0
131.4,131.53125,53,45,0
131.475,131.55,79,60,0
131.55,131.625,77,60,0
131.625,131.7,79,60,0
131.6,131.73125,57,45,0
131.7,131.775,77,60,0
131.775,131.85,79,60,0
131.85,131.925,77,60,0
131.8,131.93124,60,45,0
131.925,132.0,79,60,0
132.0,132.13126,55,45,0
132.2,132.33125,58,45,0
132.4,132.53125,60,45,0
132.0,132.5875,76,60,0
132.6,132.73125,55,45,0
132.8,132.93124,58,45,0
133.0,133.13126,60,45,0
133.2,133.33125,55,45,0
133.4,133.53125,58,45,0
132.6,133.6,76,84,0
132.6,133.6,88,84,0
133.6,133.73125,60,45,0
133.8,133.875,74,60,0
133.8,133.93124,53,45,0
133.875,133.95,76,60,0
133.95,134.025,74,60,0
134.025,134.1,76,60,0
134.0,134.13126,57,45,0
134.1,134.175,74,60,0
132.6,134.2,48,45,0
134.175,134.25,76,60,0
134.25,134.325,74,60,0
134.2,134.33125,60,45,0
134.325,134.4,76,60,0
134.4,134.53125,52,45,0
134.6,134.73125,55,45,0
134.8,134.93124,60,45,0
134.4,134.9875,72,60,0
134.4,134.9875,48,45,0
135.0,135.13126,52,45,0
135.2,135.33125,55,45,0
135.4,135.53125,60,45,0
135.6,135.73125,52,45,0
135.8,135.93124,55,45,0
135.0,136.0,72,84,0
135.0,136.0,84,84,0
136.0,136.13126,60,45,0
136.2,136.2625,74,60,0
136.2,136.33125,53,45,0
136.275,136.3375,76,60,0
136.35,136.4125,74,60,0
136.425,136.4875,76,60,0
136.4,136.53125,57,45,0
136.5,136.5625,74,60,0
135.0,136.6,48,45,0
136.575,136.6375,76,60,0
136.65,136.7125,74,60,0
136.6,136.73125,60,45,0
136.725,136.7875,76,60,0
136.8,136.93124,64,60,0
136.8,136.93124,55,45,0
137.0,137.13126,76,60,0
137.0,137.13126,58,45,0
137.2,137.33125,64,60,0
137.2,137.33125,60,45,0
136.8,137.3875,48,45,0
137.4,137.53125,74,60,0
137.4,137.53125,53,45,0
137.6,137.73125,62,60,0
137.6,137.73125,57,45,0
137.8,137.93124,74,60,0
137.8,137.93124,60,45,0
137.4,137.9875,48,45,0
138.0,138.13126,64,60,0
138.0,138.13126,46,45,0
138.2,138.33125,72,60,0
138.2,138.33125,76,60,0
138.2,138.33125,55,45,0
138.4,138.53125,64,60,0
138.4,138.53125,58,45,0
138.6,138.73125,72,60,0
138.6,138.73125,77,60,0
138.6,138.73125,45,45,0
138.8,138.93124,65,60,0
138.8,138.93124,53,45,0
139.0,139.13126,72,60,0
139.0,139.13126,77,60,0
139.0,139.13126,57,45,0
139.2,139.33125,66,60,0
139.2,139.33125,40,45,0
139.4,139.53125,72,60,0
139.4,139.53125,78,60,0
139.4,139.53125,55,45,0
139.6,139.73125,66,60,0
139.6,139.73125,60,45,0
139.8,139.93124,72,60,0
139.8,139.93124,79,60,0
139.8,139.93124,52,45,0
140.0,140.13126,67,60,0
140.0,140.13126,55,45,0
140.2,140.33125,72,60,0
140.2,140.33125,79,60,0
140.2,140.33125,60,45,0
140.4,140.53125,67,60,0
140.4,140.53125,52,45,0
140.6,140.73125,72,60,0
140.6,140.73125,79,60,0
140.6,140.73125,55,45,0
140.8,140.93124,67,60,0
140.8,140.93124,60,45,0
141.0,141.13126,72,60,0
141.0,141.13126,80,60,0
141.0,141.13126,40,45,0
141.2,141.33125,68,60,0
141.2,141.33125,56,45,0
141.4,141.53125,72,60,0
141.4,141.53125,80,60,0
141.4,141.53125,60,45,0
141.6,141.73125,69,60,0
141.6,141.73125,41,45,0
141.8,141.93124,81,60,0
141.8,141.93124,57,45,0
142.0,142.13126,60,45,0
142.0,142.33125,81,84,0
142.2,142.33125,41,45,0
142.4,142.53125,81,60,0
142.4,142.53125,53,45,0
142.6,142.73125,81,60,0
142.6,142.73125,57,45,0
142.8,142.93124,43,45,0
143.0,143.05,81,60,0
143.05,143.1,82,60,0
143.0,143.13126,55,45,0
143.1,143.2,81,60,0
143.2,143.33125,79,60,0
143.2,143.33125,58,45,0
143.4,143.45,79,60,0
143.45,143.5,81,60,0
143.4,143.53125,45,45,0
143.5,143.6,79,60,0
143.6,143.73125,77,60,0
143.6,143.73125,57,45,0
143.8,143.93124,76,60,0
143.8,143.93124,60,45,0
144.0,144.05,76,60,0
144.05,144.1,77,60,0
144.0,144.13126,46,45,0
144.1,144.2,76,60,0
144.2,144.33125,74,60,0
144.2,144.33125,58,45,0
144.4,144.53125,62,45,0
144.6,144.73125,43,45,0
144.4,144.7875,82,84,0
144.8,144.93124,82,60,0
144.8,144.93124,55,45,0
145.0,145.13126,82,60,0
145.0,145.13126,58,45,0
145.2,145.33125,45,45,0
145.4,145.45,82,60,0
145.45,145.5,84,60,0
145.4,145.53125,57,45,0
145.5,145.6,82,60,0
145.6,145.73125,81,60,0
145.6,145.73125,60,45,0
145.8,145.85,81,60,0
145.85,145.9,82,60,0
145.8,145.93124,46,45,0
145.9,146.0,81,60,0
146.0,146.13126,79,60,0
146.0,146.13126,58,45,0
146.2,146.33125,77,60,0
146.2,146.33125,62,45,0
146.4,146.45,77,60,0
146.45,146.5,79,60,0
146.4,146.53125,48,45,0
146.4,146.53125,55,45,0
146.5,146.6,77,60,0
146.6,146.73125,76,60,0
146.6,146.73125,58,45,0
146.8,146.93124,84,60,0
146.8,146.93124,60,45,0
147.0,147.05,77,60,0
147.05,147.1,79,60,0
147.0,147.13126,36,45,0
147.1,147.2,77,60,0
147.2,147.33125,76,60,0
147.2,147.33125,58,45,0
147.4,147.53125,85,60,0
147.4,147.53125,60,45,0
147.6,147.65,77,60,0
147.65,147.7,79,60,0
147.6,147.73125,48,45,0
147.6,147.73125,55,45,0
147.7,147.8,77,60,0
147.8,147.93124,76,60,0
147.8,147.93124,58,45,0
148.0,148.13126,86,60,0
148.0,148.13126,60,45,0
148.2,148.25,77,60,0
148.25,148.3,79,60,0
148.2,148.33125,48,45,0
148.2,148.33125,55,45,0
148.3,148.4,77,60,0
148.4,148.53125,76,60,0
148.4,148.53125,58,45,0
148.6,148.73125,84,60,0
148.6,148.73125,60,45,0
148.8,148.85,77,60,0
148.85,148.9,79,60,0
148.8,148.93124,53,45,0
148.8,148.93124,55,45,0
148.9,149.0,77,60,0
149.0,149.13126,76,60,0
149.0,149.13126,58,45,0
149.2,149.33125,84,60,0
149.2,149.33125,60,45,0
149.4,149.45,65,60,0
149.45,149.5,67,60,0
149.4,149.53125,48,45,0
149.4,149.53125,55,45,0
149.5,149.6,65,60,0
149.6,149.73125,64,60,0
149.6,149.73125,58,45,0
149.8,149.93124,72,60,0
149.8,149.93124,60,45,0
150.0,150.5875,65,60,0
150.0,150.5875,53,45,0
150.0,150.5875,57,45,0
150.6,150.675,77,60,0
150.6,150.73125,53,45,0
150.675,150.75,79,60,0
150.75,150.825,77,60,0
150.825,150.9,79,60,0
150.8,150.93124,57,45,0
150.9,150.975,77,60,0
150.975,151.05,79,60,0
151.05,151.125,77,60,0
151.0,151.13126,60,45,0
151.125,151.2,79,60,0
151.2,151.33125,55,45,0
151.4,151.53125,58,45,0
151.6,151.73125,60,45,0
151.2,151.7875,76,60,0
151.8,151.93124,55,45,0
152.0,152.13126,58,45,0
152.2,152.33125,60,45,0
152.4,152.53125,55,45,0
152.6,152.73125,58,45,0
151.8,152.8,76,84,0
151.8,152.8,88,84,0
152.8,152.93124,60,45,0
153.0,153.075,74,60,0
153.0,153.13126,53,45,0
153.075,153.15,76,60,0
153.15,153.225,74,60,0
153.225,153.3,76,60,0
153.2,153.33125,57,45,0
153.3,153.375,74,60,0
151.8,153.4,48,45,0
153.375,153.45,76,60,0
153.45,153.525,74,60,0
153.4,153.53125,60,45,0
153.525,153.6,76,60,0
153.6,153.73125,52,45,0
153.8,153.93124,55,45,0
154.0,154.13126,60,45,0
153.6,154.1875,72,60,0
153.6,154.1875,48,45,0
154.2,154.33125,52,45,0
154.4,154.53125,55,45,0
154.6,154.73125,60,45,0
154.8,154.93124,52,45,0
155.0,155.13126,55,45,0
154.2,155.2,72,84,0
154.2,155.2,84,84,0
155.2,155.33125,60,45,0
155.4,155.4625,74,60,0
155.4,155.53125,53,45,0
155.475,155.5375,76,60,0
155.55,155.6125,74,60,0
155.625,155.6875,76,60,0
155.6,155.73125,57,45,0
155.7,155.7625,74,60,0
154.2,155.8,48,45,0
155.775,155.8375,76,60,0
155.85,155.9125,74,60,0
155.8,155.93124,60,45,0
155.925,155.9875,76,60,0
156.0,156.13126,64,60,0
156.0,156.13126,55,45,0
156.2,156.33125,76,60,0
156.2,156.33125,58,45,0
156.4,156.53125,64,60,0
156.4,156.53125,60,45,0
156.0,156.5875,48,45,0
156.6,156.73125,74,60,0
156.6,156.73125,53,45,0
156.8,156.93124,62,60,0
156.8,156.93124,57,45,0
157.0,157.13126,74,60,0
157.0,157.13126,60,45,0
156.6,157.1875,48,45,0
157.2,157.33125,64,60,0
157.2,157.33125,46,45,0
157.4,157.53125,72,60,0
157.4,157.53125,76,60,0
157.4,157.53125,55,45,0
157.6,157.73125,64,60,0
157.6,157.73125,58,45,0
157.8,157.93124,72,60,0
157.8,157.93124,77,60,0
157.8,157.93124,45,45,0
158.0,158.13126,65,60,0
158.0,158.13126,53,45,0
158.2,158.33125,72,60,0
158.2,158.33125,77,60,0
158.2,158.33125,57,45,0
158.4,158.53125,66,60,0
158.4,158.53125,40,45,0
158.6,158.73125,72,60,0
158.6,158.73125,78,60,0
158.6,158.73125,55,45,0
158.8,158.93124,66,60,0
158.8,158.93124,60,45,0
159.0,159.13126,72,60,0
159.0,159.13126,79,60,0
159.0,159.13126,52,45,0
159.2,159.33125,67,60,0
159.2,159.33125,55,45,0
159.4,159.53125,72,60,0
159.4,159.53125,79,60,0
159.4,159.53125,60,45,0
159.6,159.73125,67,60,0
159.6,159.73125,52,45,0
159.8,159.93124,72,60,0
159.8,159.93124,79,60,0
159.8,159.93124,55,45,0
160.0,160.13126,67,60,0
160.0,160.13126,60,45,0
160.2,160.33125,72,60,0
160.2,160.33125,80,60,0
160.2,160.33125,40,45,0
160.4,160.53125,68,60,0
160.4,160.53125,56,45,0
160.6,160.73125,72,60,0
160.6,160.73125,80,60,0
160.6,160.73125,60,45,0
160.8,160.93124,69,60,0
160.8,160.93124,41,45,0
161.0,161.13126,81,60,0
161.0,161.13126,57,45,0
161.2,161.33125,60,45,0
161.2,161.53125,81,84,0
161.4,161.53125,41,45,0
161.6,161.73125,81,60,0
161.6,161.73125,53,45,0
161.8,161.93124,81,60,0
161.8,161.93124,57,45,0
162.0,162.13126,43,45,0
162.2,162.25,81,60,0
162.25,162.3,82,60,0
162.2,162.33125,55,45,0
162.3,162.4,81,60,0
162.4,162.53125,79,60,0
162.4,162.53125,58,45,0
162.6,162.65,79,60,0
162.65,162.7,81,60,0
162.6,162.73125,45,45,0
162.7,162.8,79,60,0
162.8,162.93124,77,60,0
162.8,162.93124,57,45,0
163.0,163.13126,76,60,0
163.0,163.13126,60,45,0
163.2,163.25,76,60,0
163.25,163.3,77,60,0
163.2,163.33125,46,45,0
163.3,163.4,76,60,0
163.4,163.53125,74,60,0
163.4,163.53125,58,45,0
163.6,163.73125,62,45,0
163.8,163.93124,43,45,0
163.6,163.9875,82,84,0
164.0,164.13126,82,60,0
164.0,164.13126,55,45,0
164.2,164.33125,82,60,0
164.2,164.33125,58,45,0
164.4,164.53125,45,45,0
164.6,164.65,82,60,0
164.65,164.7,84,60,0
164.6,164.73125,57,45,0
164.7,164.8,82,60,0
164.8,164.93124,81,60,0
164.8,164.93124,60,45,0
165.0,165.05,81,60,0
165.05,165.1,82,60,0
165.0,165.13126,46,45,0
165.1,165.2,81,60,0
165.2,165.33125,79,60,0
165.2,165.33125,58,45,0
165.4,165.53125,77,60,0
165.4,165.53125,62,45,0
165.6,165.65,77,60,0
165.65,165.7,79,60,0
165.6,165.73125,48,45,0
165.6,165.73125,55,45,0
165.7,165.8,77,60,0
165.8,165.93124,76,60,0
165.8,165.93124,58,45,0
166.0,166.13126,84,60,0
166.0,166.13126,60,45,0
166.2,166.25,77,60,0
166.25,166.3,79,60,0
166.2,166.33125,36,45,0
166.3,166.4,77,60,0
166.4,166.53125,76,60,0
166.4,166.53125,58,45,0
166.6,166.73125,85,60,0
166.6,166.73125,60,45,0
166.8,166.85,77,60,0
166.85,166.9,79,60,0
166.8,166.93124,48,45,0
166.8,166.93124,55,45,0
166.9,167.0,77,60,0
167.0,167.13126,76,60,0
167.0,167.13126,58,45,0
167.2,167.33125,86,60,0
167.2,167.33125,60,45,0
167.4,167.45,77,60,0
167.45,167.5,79,60,0
167.4,167.53125,48,45,0
167.4,167.53125,55,45,0
167.5,167.6,77,60,0
167.6,167.73125,76,60,0
167.6,167.73125,58,45,0
167.8,167.93124,84,60,0
167.8,167.93124,60,45,0
168.0,168.05,77,60,0
168.05,168.1,79,60,0
168.0,168.13126,53,45,0
168.0,168.13126,55,45,0
168.1,168.2,77,60,0
168.2,168.33125,76,60,0
168.2,168.33125,58,45,0
168.4,168.53125,84,60,0
168.4,168.53125,60,45,0
168.6,168.65,65,60,0
168.65,168.7,67,60,0
168.6,168.73125,48,45,0
168.6,168.73125,55,45,0
168.7,168.8,65,60,0
168.8,168.93124,64,60,0
168.8,168.93124,58,45,0
169.0,169.13126,72,60,0
169.0,169.13126,60,45,0
169.2,169.7875,65,60,0
169.2,169.7875,53,45,0
169.2,169.7875,57,45,0
169.8,169.93124,69,60,0
169.8,169.93124,41,45,0
170.0,170.2,57,60,0
170.0,170.2,48,45,0
170.2,170.3875,60,60,0
170.2,170.3875,53,45,0
170.4,170.53125,67,60,0
170.4,170.5875,40,45,0
170.6,170.7875,48,45,0
170.6,170.8,55,60,0
170.8,170.9875,60,60,0
170.8,170.9875,52,45,0
171.0,171.13126,72,84,0
171.0,171.1875,36,45,0
171.2,171.3875,48,45,0
171.2,171.4,64,60,0
171.4,171.5875,67,60,0
171.4,171.5875,52,45,0
171.6,171.73125,69,60,0
171.6,171.7875,41,45,0
171.8,171.9875,48,45,0
171.8,172.0,57,60,0
172.0,172.1875,60,60,0
172.0,172.1875,53,45,0
172.2,172.33125,65,60,0
172.2,172.3875,45,45,0
172.4,172.5875,48,45,0
172.4,172.6,57,60,0
172.6,172.7875,60,60,0
172.6,172.7875,53,45,0
172.8,172.93124,67,60,0
172.8,172.9875,40,45,0
173.0,173.1875,48,45,0
173.0,173.2,55,60,0
173.2,173.3875,60,60,0
173.2,173.3875,52,45,0
173.4,173.53125,72,84,0
173.4,173.5875,36,45,0
173.6,173.7875,48,45,0
173.6,173.8,64,60,0
173.8,173.9875,67,60,0
173.8,173.9875,52,45,0
174.0,174.13126,69,60,0
174.0,174.1875,41,45,0
174.2,174.3875,53,45,0
174.2,174.4,60,60,0
174.4,174.5875,65,60,0
174.4,174.5875,57,45,0
174.6,174.73125,77,84,0
174.6,174.7875,38,45,0
174.8,174.9875,50,45,0
174.8,175.0,65,60,0
175.0,175.1875,69,60,0
175.0,175.1875,53,45,0
175.2,175.33125,71,60,0
175.2,175.3875,43,45,0
175.4,175.5875,55,45,0
175.4,175.6,62,60,0
175.6,175.7875,67,60,0
175.6,175.7875,59,45,0
175.8,175.93124,79,60,0
175.8,175.9875,43,45,0
176.0,176.1875,55,45,0
176.0,176.2,67,60,0
176.2,176.3875,71,60,0
176.2,176.3875,59,45,0
176.4,176.53125,79,60,0
176.4,176.5875,45,45,0
176.6,176.7875,57,45,0
176.6,176.8,67,60,0
176.8,176.9875,72,60,0
176.8,176.9875,60,45,0
177.0,177.13126,77,60,0
177.0,177.1875,47,45,0
177.2,177.3875,59,45,0
177.2,177.4,67,60,0
177.4,177.5875,74,60,0
177.4,177.5875,62,45,0
177.6,177.73125,76,60,0
177.6,177.7875,48,45,0
177.8,177.9875,60,45,0
177.8,178.0,67,60,0
178.0,178.1875,72,60,0
178.0,178.1875,64,45,0
178.2,178.33125,74,60,0
178.2,178.3875,50,45,0
178.4,178.5875,55,45,0
178.4,178.6,65,60,0
178.6,178.7875,71,60,0
178.6,178.7875,59,45,0
178.8,178.93124,72,60,0
178.8,178.9875,52,45,0
179.0,179.13126,67,60,0
179.0,179.1875,60,45,0
179.2,179.33125,72,60,0
179.2,179.3875,52,45,0
179.4,179.53125,69,60,0
179.4,179.5875,60,45,0
179.6,179.73125,74,60,0
179.6,179.7875,53,45,0
179.8,179.93124,69,60,0
179.8,179.9875,60,45,0
180.0,180.13126,76,60,0
180.0,180.1875,55,45,0
180.2,180.3875,60,45,0
180.2,180.4,67,60,0
180.4,180.5875,72,60,0
180.4,180.5875,64,45,0
180.6,180.73125,76,60,0
180.6,180.7875,55,45,0
180.8,180.9875,61,45,0
180.8,181.0,67,60,0
181.0,181.1875,73,60,0
181.0,181.1875,64,45,0
181.2,181.33125,77,60,0
181.2,181.3875,55,45,0
181.4,181.5875,62,45,0
181.4,181.6,67,60,0
181.6,181.7875,71,60,0
181.6,181.7875,65,45,0
181.8,181.93124,77,60,0
181.8,181.9875,43,45,0
182.0,182.1875,55,45,0
182.0,182.2,67,60,0
182.2,182.3875,65,60,0
182.2,182.3875,74,60,0
182.2,182.3875,59,45,0
182.4,182.5875,48,45,0
182.4,182.6,64,60,0
182.4,182.6,72,60,0
182.6,182.7875,60,45,0
182.8,182.9875,60,45,0
183.0,183.1875,48,45,0
183.2,183.3875,60,45,0
183.2,183.3875,64,45,0
183.4,183.5875,60,45,0
183.4,183.5875,64,45,0
183.0,183.6,67,60,0
183.0,183.6,79,60,0
183.6,183.7875,48,45,0
183.8,183.9875,60,45,0
183.8,183.9875,65,45,0
184.0,184.1875,60,45,0
184.0,184.1875,65,45,0
183.6,184.2,69,60,0
183.6,184.2,81,60,0
184.2,184.3875,48,45,0
184.4,184.5875,60,45,0
184.4,184.5875,62,45,0
184.6,184.7875,60,45,0
184.6,184.7875,62,45,0
184.2,184.8,71,60,0
184.2,184.8,83,60,0
184.8,184.9875,48,45,0
185.0,185.1875,60,45,0
185.0,185.1875,64,45,0
185.2,185.3875,60,45,0
185.2,185.3875,64,45,0
184.8,185.4,72,60,0
184.8,185.4,84,60,0
185.4,185.5875,48,45,0
185.6,185.7875,55,45,0
185.6,185.7875,59,45,0
185.8,185.9875,55,45,0
185.8,185.9875,59,45,0
185.4,186.0,74,60,0
185.4,186.0,86,60,0
186.0,186.1875,48,45,0
186.2,186.3875,55,45,0
186.2,186.3875,60,45,0
186.4,186.5875,55,45,0
186.4,186.5875,60,45,0
186.0,186.6,76,60,0
186.0,186.6,88,60,0
186.6,186.7875,48,45,0
186.8,186.9875,53,45,0
186.8,186.9875,55,45,0
186.8,186.9875,59,45,0
186.6,187.05,77,84,0
186.6,187.05,89,84,0
187.0,187.1875,53,45,0
187.0,187.1875,55,45,0
187.0,187.1875,59,45,0
187.05,187.1875,74,60,0
187.05,187.1875,86,60,0
187.2,187.33125,72,60,0
187.2,187.3875,48,45,0
187.4,187.53125,84,60,0
187.4,187.5875,52,45,0
187.4,187.5875,55,45,0
187.4,187.5875,60,45,0
187.6,187.73125,72,60,0
187.6,187.7875,52,45,0
187.6,187.7875,55,45,0
187.6,187.7875,60,45,0
187.8,187.93124,79,60,0
187.8,187.9875,48,45,0
188.0,188.13126,67,60,0
188.0,188.1875,60,45,0
188.0,188.1875,64,45,0
188.2,188.33125,79,60,0
188.2,188.3875,60,45,0
188.2,188.3875,64,45,0
188.4,188.53125,69,60,0
188.4,188.5875,48,45,0
188.6,188.73125,81,60,0
188.6,188.7875,60,45,0
188.6,188.7875,65,45,0
188.8,188.93124,69,60,0
188.8,188.9875,60,45,0
188.8,188.9875,65,45,0
189.0,189.13126,83,60,0
189.0,189.1875,48,45,0
189.2,189.33125,71,60,0
189.2,189.3875,60,45,0
189.2,189.3875,62,45,0
189.4,189.53125,83,60,0
189.4,189.5875,60,45,0
189.4,189.5875,62,45,0
189.6,189.73125,72,60,0
189.6,189.7875,48,45,0
189.8,189.93124,84,60,0
189.8,189.9875,60,45,0
189.8,189.9875,64,45,0
190.0,190.13126,72,60,0
190.0,190.1875,60,45,0
190.0,190.1875,64,45,0
190.2,190.33125,86,60,0
190.2,190.3875,48,45,0
190.4,190.53125,74,60,0
190.4,190.5875,55,45,0
190.4,190.5875,59,45,0
190.6,190.73125,86,60,0
190.6,190.7875,55,45,0
190.6,190.7875,59,45,0
190.8,190.93124,76,60,0
190.8,190.9875,48,45,0
191.0,191.13126,88,60,0
191.0,191.1875,55,45,0
191.0,191.1875,60,45,0
191.2,191.33125,76,60,0
191.2,191.3875,55,45,0
191.2,191.3875,60,45,0
191.4,191.5875,43,45,0
191.4,191.6,89,84,0
191.6,191.7875,53,45,0
191.6,191.7875,55,45,0
191.6,191.7875,59,45,0
191.6,191.8,77,60,0
191.8,191.9875,86,60,0
191.8,191.9875,53,45,0
191.8,191.9875,55,45,0
191.8,191.9875,59,45,0
192.0,192.13126,76,60,0
192.0,192.1875,48,45,0
192.2,192.33125,84,60,0
192.2,192.3875,52,45,0
192.2,192.3875,55,45,0
192.2,192.3875,60,45,0
192.4,192.53125,76,60,0
192.4,192.5875,52,45,0
192.4,192.5875,55,45,0
192.4,192.5875,60,45,0
192.6,192.7875,43,45,0
192.6,192.8,89,84,0
192.8,192.9875,53,45,0
192.8,192.9875,55,45,0
192.8,192.9875,59,45,0
192.8,193.0,77,60,0
193.0,193.1875,86,60,0
193.0,193.1875,53,45,0
193.0,193.1875,55,45,0
193.0,193.1875,59,45,0
193.2,193.33125,76,60,0
193.2,193.3875,48,45,0
193.4,193.53125,84,60,0
193.4,193.5875,52,45,0
193.4,193.5875,55,45,0
193.4,193.5875,60,45,0
193.6,193.73125,76,60,0
193.6,193.7875,52,45,0
193.6,193.7875,55,45,0
193.6,193.7875,60,45,0
193.8,193.9875,43,45,0
193.8,194.0,89,84,0
194.0,194.1875,53,45,0
194.0,194.1875,55,45,0
194.0,194.1875,59,45,0
194.0,194.2,77,60,0
194.2,194.3875,86,60,0
194.2,194.3875,53,45,0
194.2,194.3875,55,45,0
194.2,194.3875,59,45,0
194.4,194.5875,48,45,0
194.4,194.6,86,60,0
194.6,194.73125,84,61,0
194.6,194.7875,60,46,0
194.6,194.7875,64,46,0
194.8,194.93124,84,62,0
194.8,194.9875,60,47,0
194.8,194.9875,64,47,0
195.0,195.1875,48,48,0
195.2,195.3875,74,64,0
195.2,195.3875,77,64,0
195.2,195.3875,82,64,0
195.2,195.3875,62,49,0
195.2,195.3875,65,49,0
195.4,195.5875,74,65,0
195.4,195.5875,77,65,0
195.4,195.5875,82,65,0
195.4,195.5875,62,50,0
195.4,195.5875,65,50,0
195.6,195.7875,48,51,0
195.8,195.9875,72,67,0
195.8,195.9875,76,67,0
195.8,195.9875,81,67,0
195.8,195.9875,60,52,0
195.8,195.9875,64,52,0
196.0,196.1875,72,68,0
196.0,196.1875,76,68,0
196.0,196.1875,81,68,0
196.0,196.1875,60,53,0
196.0,196.1875,64,53,0
196.2,196.3875,48,54,0
196.4,196.5875,70,71,0
196.4,196.5875,74,71,0
196.4,196.5875,79,71,0
196.4,196.5875,58,56,0
196.4,196.5875,62,56,0
196.6,196.7875,69,73,0
196.6,196.7875,72,73,0
196.6,196.7875,77,73,0
196.6,196.7875,57,58,0
196.6,196.7875,60,58,0
196.8,196.93124,55,60,0
196.8,197.0,67,60,0
196.8,197.0,70,60,0
196.8,197.0,72,60,0
196.8,197.0,76,60,0
197.0,197.13126,58,60,0
197.2,197.33125,60,60,0
197.4,197.53125,55,60,0
197.6,197.73125,58,60,0
196.8,197.8,48,45,0
197.8,197.93124,60,60,0
198.0,198.13126,55,60,0
198.2,198.33125,58,60,0
197.4,198.4,67,75,0
197.4,198.4,70,75,0
197.4,198.4,72,75,0
197.4,198.4,76,75,0
198.4,198.53125,60,60,0
198.6,198.6625,74,60,0
198.6,198.73125,53,60,0
198.675,198.7375,76,60,0
198.75,198.8125,74,60,0
198.825,198.8875,76,60,0
198.8,198.93124,57,60,0
198.9,198.9625,74,60,0
198.975,199.0375,76,60,0
199.05,199.1125,74,60,0
199.0,199.13126,60,60,0
198.6,199.1875,65,60,0
198.6,199.1875,69,60,0
198.6,199.1875,48,45,0
199.125,199.1875,76,60,0
199.2,199.33125,52,60,0
199.2,199.4,64,60,0
199.2,199.4,67,60,0
199.2,199.4,72,60,0
199.4,199.53125,55,60,0
199.6,199.73125,60,60,0
199.8,199.93124,52,60,0
200.0,200.13126,55,60,0
199.2,200.2,48,45,0
200.2,200.33125,60,60,0
200.4,200.53125,52,60,0
200.6,200.73125,55,60,0
199.8,200.8,64,75,0
199.8,200.8,67,75,0
199.8,200.8,72,75,0
200.8,200.93124,60,60,0
201.0,201.0625,74,60,0
201.0,201.13126,53,60,0
201.075,201.1375,76,60,0
201.15,201.2125,74,60,0
201.225,201.2875,76,60,0
201.2,201.33125,57,60,0
201.3,201.3625,74,60,0
201.375,201.4375,76,60,0
201.45,201.5125,74,60,0
201.4,201.53125,60,60,0
201.0,201.5875,65,60,0
201.0,201.5875,69,60,0
201.0,201.5875,48,45,0
201.525,201.5875,76,60,0
201.6,201.73125,64,60,0
201.6,201.73125,72,60,0
201.6,201.73125,55,60,0
201.8,201.93124,72,60,0
201.8,201.93124,76,60,0
201.8,201.93124,58,60,0
202.0,202.13126,64,60,0
202.0,202.13126,60,60,0
201.6,202.1875,48,45,0
202.2,202.33125,72,60,0
202.2,202.33125,74,60,0
202.2,202.33125,53,60,0
202.4,202.53125,62,60,0
202.4,202.53125,57,60,0
202.6,202.73125,60,60,0
202.6,202.73125,74,60,0
202.6,202.73125,72,60,0
202.2,202.7875,48,45,0
202.8,202.93124,64,60,0
202.8,202.9875,46,60,0
203.0,203.13126,76,60,0
203.0,203.13126,72,60,0
203.0,203.1875,55,60,0
203.2,203.33125,64,60,0
203.2,203.3875,58,60,0
203.4,203.53125,72,60,0
203.4,203.53125,77,60,0
203.4,203.5875,45,60,0
203.6,203.73125,65,60,0
203.6,203.7875,53,60,0
203.8,203.93124,72,60,0
203.8,203.93124,77,60,0
203.8,203.9875,57,60,0
204.0,204.13126,66,61,0
204.0,204.1875,40,60,0
204.2,204.33125,72,62,0
204.2,204.33125,78,62,0
204.2,204.3875,55,60,0
204.2,204.3875,60,60,0
204.4,204.53125,66,63,0
204.4,204.5875,55,60,0
204.4,204.5875,60,60,0
204.6,204.73125,72,64,0
204.6,204.73125,79,64,0
204.6,204.7875,52,60,0
204.8,204.93124,67,65,0
204.8,204.9875,55,60,0
204.8,204.9875,60,60,0
205.0,205.13126,72,66,0
205.0,205.13126,79,66,0
205.0,205.1875,55,60,0
205.0,205.1875,60,60,0
205.2,205.33125,67,67,0
205.2,205.3875,52,60,0
205.4,205.53125,72,68,0
205.4,205.53125,79,68,0
205.4,205.5875,55,60,0
205.4,205.5875,60,60,0
205.6,205.73125,67,69,0
205.6,205.7875,55,60,0
205.6,205.7875,60,60,0
205.8,205.93124,72,70,0
205.8,205.93124,80,70,0
205.8,205.9875,40,60,0
206.0,206.13126,68,71,0
206.0,206.1875,56,60,0
206.0,206.1875,60,60,0
206.2,206.33125,72,72,0
206.2,206.33125,80,72,0
206.2,206.3875,56,60,0
206.2,206.3875,60,60,0
206.4,206.53125,69,73,0
206.4,206.5875,41,60,0
206.6,206.73125,81,74,0
206.6,206.7875,57,60,0
206.6,206.7875,60,60,0
206.8,206.9875,57,60,0
206.8,206.9875,60,60,0
206.8,207.13126,81,105,0
207.0,207.1875,41,45,0
207.2,207.33125,81,60,0
207.2,207.3875,53,45,0
207.2,207.3875,57,45,0
207.4,207.53125,81,60,0
207.4,207.5875,53,45,0
207.4,207.5875,57,45,0
207.6,207.7875,43,45,0
207.8,207.85,81,60,0
207.85,207.9,82,60,0
207.8,207.9875,55,45,0
207.8,207.9875,58,45,0
207.9,208.0,81,60,0
208.0,208.13126,79,60,0
208.0,208.1875,55,45,0
208.0,208.1875,58,45,0
208.2,208.25,79,60,0
208.25,208.3,81,60,0
208.2,208.3875,45,45,0
208.3,208.4,79,60,0
208.4,208.53125,77,60,0
208.4,208.5875,57,45,0
208.4,208.5875,60,45,0
208.6,208.73125,76,60,0
208.6,208.7875,57,45,0
208.6,208.7875,60,45,0
208.8,208.85,76,60,0
208.85,208.9,77,60,0
208.8,208.9875,46,45,0
208.9,209.0,76,60,0
209.0,209.13126,74,60,0
209.0,209.1875,58,45,0
209.0,209.1875,62,45,0
209.2,209.3875,58,45,0
209.2,209.3875,62,45,0
209.2,209.5875,82,84,0
209.4,209.5875,43,45,0
209.6,209.73125,82,60,0
209.6,209.7875,55,45,0
209.6,209.7875,58,45,0
209.8,209.93124,82,60,0
209.8,209.9875,55,45,0
209.8,209.9875,58,45,0
210.0,210.1875,45,45,0
210.2,210.25,82,60,0
210.25,210.3,84,60,0
210.2,210.3875,57,45,0
210.2,210.3875,60,45,0
210.3,210.4,82,60,0
210.4,210.53125,81,60,0
210.4,210.5875,57,45,0
210.4,210.5875,60,45,0
210.6,210.65,81,60,0
210.65,210.7,82,60,0
210.6,210.7875,46,45,0
210.7,210.8,81,60,0
210.8,210.93124,79,60,0
210.8,210.9875,58,45,0
210.8,210.9875,62,45,0
211.0,211.13126,77,60,0
211.0,211.1875,58,45,0
211.0,211.1875,62,45,0
211.2,211.25,77,60,0
211.25,211.3,79,60,0
211.2,211.3875,48,45,0
211.3,211.4,77,60,0
211.4,211.53125,76,60,0
211.4,211.5875,55,45,0
211.4,211.5875,58,45,0
211.4,211.5875,60,45,0
211.6,211.73125,84,60,0
211.6,211.7875,55,45,0
211.6,211.7875,58,45,0
211.6,211.7875,60,45,0
211.8,211.85,77,60,0
211.85,211.9,79,60,0
211.8,211.9875,36,45,0
211.9,212.0,77,60,0
212.0,212.13126,76,60,0
212.0,212.1875,55,45,0
212.0,212.1875,58,45,0
212.0,212.1875,60,45,0
212.2,212.33125,85,60,0
212.2,212.3875,55,45,0
212.2,212.3875,58,45,0
212.2,212.3875,60,45,0
212.4,212.45,77,60,0
212.45,212.5,79,60,0
212.4,212.5875,48,45,0
212.5,212.6,77,60,0
212.6,212.73125,76,60,0
212.6,212.7875,55,45,0
212.6,212.7875,58,45,0
212.6,212.7875,60,45,0
212.8,212.93124,86,60,0
212.8,212.9875,55,45,0
212.8,212.9875,58,45,0
212.8,212.9875,60,45,0
213.0,213.05,77,60,0
213.05,213.1,79,60,0
213.0,213.1875,48,45,0
213.1,213.2,77,60,0
213.2,213.33125,76,60,0
213.2,213.3875,55,45,0
213.2,213.3875,58,45,0
213.2,213.3875,60,45,0
213.4,213.53125,84,60,0
213.4,213.5875,55,45,0
213.4,213.5875,58,45,0
213.4,213.5875,60,45,0
213.6,213.65,77,60,0
213.65,213.7,79,60,0
213.6,213.7875,53,45,0
213.7,213.8,77,60,0
213.8,213.93124,76,60,0
213.8,213.9875,55,45,0
213.8,213.9875,58,45,0
213.8,213.9875,60,45,0
214.0,214.13126,84,60,0
214.0,214.1875,55,45,0
214.0,214.1875,58,45,0
214.0,214.1875,60,45,0
214.2,214.25,65,60,0
214.25,214.3,67,60,0
214.2,214.3875,48,45,0
214.3,214.4,65,60,0
214.4,214.53125,64,60,0
214.4,214.5875,55,45,0
214.4,214.5875,58,45,0
214.4,214.5875,60,45,0
214.6,214.73125,72,60,0
214.6,214.7875,55,45,0
214.6,214.7875,58,45,0
214.6,214.7875,60,45,0
214.8,215.3875,65,60,0
214.8,215.3875,53,45,0
214.8,215.3875,57,45,0
214.8,215.3875,60,45,0
215.4,215.53125,69,60,0
215.4,215.53125,41,45,0
215.6,215.8,57,60,0
215.6,215.8,48,45,0
215.8,215.9875,60,60,0
215.8,215.9875,53,45,0
216.0,216.13126,67,60,0
216.0,216.1875,40,45,0
216.2,216.3875,48,45,0
216.2,216.4,55,60,0
216.4,216.5875,60,60,0
216.4,216.5875,52,45,0
216.6,216.73125,72,84,0
216.6,216.7875,36,45,0
216.8,216.9875,48,45,0
216.8,217.0,64,60,0
217.0,217.1875,67,60,0
217.0,217.1875,52,45,0
217.2,217.33125,69,60,0
217.2,217.3875,41,45,0
217.4,217.5875,48,45,0
217.4,217.6,57,60,0
217.6,217.7875,60,60,0
217.6,217.7875,53,45,0
217.8,217.93124,65,60,0
217.8,217.9875,45,45,0
218.0,218.1875,48,45,0
218.0,218.2,57,60,0
218.2,218.3875,60,60,0
218.2,218.3875,53,45,0
218.4,218.53125,67,60,0
218.4,218.5875,40,45,0
218.6,218.7875,48,45,0
218.6,218.8,55,60,0
218.8,218.9875,60,60,0
218.8,218.9875,52,45,0
219.0,219.13126,72,84,0
219.0,219.1875,36,45,0
219.2,219.3875,48,45,0
219.2,219.4,64,60,0
219.4,219.5875,67,60,0
219.4,219.5875,52,45,0
219.6,219.73125,69,60,0
219.6,219.7875,41,45,0
219.8,219.9875,53,45,0
219.8,220.0,60,60,0
220.0,220.1875,65,60,0
220.0,220.1875,57,45,0
220.2,220.33125,77,84,0
220.2,220.3875,38,45,0
220.4,220.5875,50,45,0
220.4,220.6,65,60,0
220.6,220.7875,69,60,0
220.6,220.7875,53,45,0
220.8,220.93124,71,60,0
220.8,220.9875,43,45,0
221.0,221.1875,55,45,0
221.0,221.2,62,60,0
221.2,221.3875,67,60,0
221.2,221.3875,59,45,0
221.4,221.53125,79,60,0
221.4,221.5875,43,45,0
221.6,221.7875,55,45,0
221.6,221.8,67,60,0
221.8,221.9875,71,60,0
221.8,221.9875,59,45,0
222.0,222.13126,79,60,0
222.0,222.1875,45,45,0
222.2,222.3875,57,45,0
222.2,222.4,67,60,0
222.4,222.5875,72,60,0
222.4,222.5875,60,45,0
222.6,222.73125,77,60,0
222.6,222.7875,47,45,0
222.8,222.9875,59,45,0
222.8,223.0,67,60,0
223.0,223.1875,74,60,0
223.0,223.1875,62,45,0
223.2,223.33125,76,60,0
223.2,223.3875,48,45,0
223.4,223.5875,60,45,0
223.4,223.6,67,60,0
223.6,223.7875,72,60,0
223.6,223.7875,64,45,0
223.8,223.93124,74,60,0
223.8,223.9875,50,45,0
224.0,224.1875,55,45,0
224.0,224.2,65,60,0
224.2,224.3875,71,60,0
224.2,224.3875,59,45,0
224.4,224.53125,72,60,0
224.4,224.5875,52,45,0
224.6,224.73125,67,60,0
224.6,224.7875,60,45,0
224.8,224.93124,72,60,0
224.8,224.9875,52,45,0
225.0,225.13126,69,60,0
225.0,225.1875,60,45,0
225.2,225.33125,74,60,0
225.2,225.3875,53,45,0
225.4,225.53125,69,60,0
225.4,225.5875,60,45,0
225.6,225.73125,76,60,0
225.6,225.7875,55,45,0
225.8,225.9875,60,45,0
225.8,226.0,67,60,0
226.0,226.1875,72,60,0
226.0,226.1875,64,45,0
226.2,226.33125,76,60,0
226.2,226.3875,55,45,0
226.4,226.5875,61,45,0
226.4,226.6,67,60,0
226.6,226.7875,73,60,0
226.6,226.7875,64,45,0
226.8,226.93124,77,60,0
226.8,226.9875,55,45,0
227.0,227.1875,62,45,0
227.0,227.2,67,60,0
227.2,227.3875,71,60,0
227.2,227.3875,65,45,0
227.4,227.53125,77,60,0
227.4,227.5875,43,45,0
227.6,227.7875,55,45,0
227.6,227.8,67,60,0
227.8,227.9875,65,60,0
227.8,227.9875,74,60,0
227.8,227.9875,59,45,0
228.0,228.1875,48,45,0
228.0,228.2,64,60,0
228.0,228.2,72,60,0
228.2,228.3875,60,45,0
228.4,228.5875,60,45,0
228.6,228.7875,48,45,0
228.8,228.9875,60,45,0
228.8,228.9875,64,45,0
229.0,229.1875,60,45,0
229.0,229.1875,64,45,0
228.6,229.2,67,60,0
228.6,229.2,79,60,0
229.2,229.3875,48,45,0
229.4,229.5875,60,45,0
229.4,229.5875,65,45,0
229.6,229.7875,60,45,0
229.6,229.7875,65,45,0
229.2,229.8,69,60,0
229.2,229.8,81,60,0
229.8,229.9875,48,45,0
230.0,230.1875,60,45,0
230.0,230.1875,62,45,0
230.2,230.3875,60,45,0
230.2,230.3875,62,45,0
229.8,230.4,71,60,0
229.8,230.4,83,60,0
230.4,230.5875,48,45,0
230.6,230.7875,60,45,0
230.6,230.7875,64,45,0
230.8,230.9875,60,45,0
230.8,230.9875,64,45,0
230.4,231.0,72,60,0
230.4,231.0,84,60,0
231.0,231.1875,48,45,0
231.2,231.3875,55,45,0
231.2,231.3875,59,45,0
231.4,231.5875,55,45,0
231.4,231.5875,59,45,0
231.0,231.6,74,60,0
231.0,231.6,86,60,0
231.6,231.7875,48,45,0
231.8,231.9875,55,45,0
231.8,231.9875,60,45,0
232.0,232.1875,55,45,0
232.0,232.1875,60,45,0
231.6,232.2,76,60,0
231.6,232.2,88,60,0
232.2,232.3875,48,45,0
232.4,232.5875,53,45,0
232.4,232.5875,55,45,0
232.4,232.5875,59,45,0
232.2,232.65,77,84,0
232.2,232.65,89,84,0
232.6,232.7875,53,45,0
232.6,232.7875,55,45,0
232.6,232.7875,59,45,0
232.65,232.7875,74,60,0
232.65,232.7875,86,60,0
232.8,232.93124,72,60,0
232.8,232.9875,48,45,0
233.0,233.13126,84,60,0
233.0,233.1875,52,45,0
233.0,233.1875,55,45,0
233.0,233.1875,60,45,0
233.2,233.33125,72,60,0
233.2,233.3875,52,45,0
233.2,233.3875,55,45,0
233.2,233.3875,60,45,0
233.4,233.53125,79,60,0
233.4,233.5875,48,45,0
233.6,233.73125,67,60,0
233.6,233.7875,60,45,0
233.6,233.7875,64,45,0
233.8,233.93124,79,60,0
233.8,233.9875,60,45,0
233.8,233.9875,64,45,0
234.0,234.13126,69,60,0
234.0,234.1875,48,45,0
234.2,234.33125,81,60,0
234.2,234.3875,60,45,0
234.2,234.3875,65,45,0
234.4,234.53125,69,60,0
234.4,234.5875,60,45,0
234.4,234.5875,65,45,0
234.6,234.73125,83,60,0
234.6,234.7875,48,45,0
234.8,234.93124,71,60,0
234.8,234.9875,60,45,0
234.8,234.9875,62,45,0
235.0,235.13126,83,60,0
235.0,235.1875,60,45,0
235.0,235.1875,62,45,0
235.2,235.33125,72,60,0
235.2,235.3875,48,45,0
235.4,235.53125,84,60,0
235.4,235.5875,60,45,0
235.4,235.5875,64,45,0
235.6,235.73125,72,60,0
235.6,235.7875,60,45,0
235.6,235.7875,64,45,0
235.8,235.93124,86,60,0
235.8,235.9875,48,45,0
236.0,236.13126,74,60,0
236.0,236.1875,55,45,0
236.0,236.1875,59,45,0
236.2,236.33125,86,60,0
236.2,236.3875,55,45,0
236.2,236.3875,59,45,0
236.4,236.53125,76,60,0
236.4,236.5875,48,45,0
236.6,236.73125,88,60,0
236.6,236.7875,55,45,0
236.6,236.7875,60,45,0
236.8,236.93124,76,60,0
236.8,236.9875,55,45,0
236.8,236.9875,60,45,0
237.0,237.1875,43,45,0
237.0,237.2,89,84,0
237.2,237.3875,53,45,0
237.2,237.3875,55,45,0
237.2,237.3875,59,45,0
237.2,237.4,77,60,0
237.4,237.5875,86,60,0
237.4,237.5875,53,45,0
237.4,237.5875,55,45,0
237.4,237.5875,59,45,0
237.6,237.73125,76,60,0
237.6,237.7875,48,45,0
237.8,237.93124,84,60,0
237.8,237.9875,52,45,0
237.8,237.9875,55,45,0
237.8,237.9875,60,45,0
238.0,238.13126,76,60,0
238.0,238.1875,52,45,0
238.0,238.1875,55,45,0
238.0,238.1875,60,45,0
238.2,238.3875,43,45,0
238.2,238.4,89,84,0
238.4,238.5875,53,45,0
238.4,238.5875,55,45,0
238.4,238.5875,59,45,0
238.4,238.6,77,60,0
238.6,238.7875,86,60,0
238.6,238.7875,53,45,0
238.6,238.7875,55,45,0
238.6,238.7875,59,45,0
238.8,238.93124,76,60,0
238.8,238.9875,48,45,0
239.0,239.13126,84,60,0
239.0,239.1875,52,45,0
239.0,239.1875,55,45,0
239.0,239.1875,60,45,0
239.2,239.33125,76,60,0
239.2,239.3875,52,45,0
239.2,239.3875,55,45,0
239.2,239.3875,60,45,0
239.4,239.5875,43,45,0
239.4,239.6,89,84,0
239.6,239.7875,53,45,0
239.6,239.7875,55,45,0
239.6,239.7875,59,45,0
239.6,239.8,77,60,0
239.8,239.9875,86,60,0
239.8,239.9875,53,45,0
239.8,239.9875,55,45,0
239.8,239.9875,59,45,0
240.0,240.1875,48,45,0
240.0,240.2,86,60,0
240.2,240.33125,84,61,0
240.2,240.3875,60,46,0
240.2,240.3875,64,46,0
240.4,240.53125,84,62,0
240.4,240.5875,60,47,0
240.4,240.5875,64,47,0
240.6,240.7875,48,48,0
240.8,240.9875,74,64,0
240.8,240.9875,77,64,0
240.8,240.9875,82,64,0
240.8,240.9875,62,49,0
240.8,240.9875,65,49,0
241.0,241.1875,74,65,0
241.0,241.1875,77,65,0
241.0,241.1875,82,65,0
241.0,241.1875,62,50,0
241.0,241.1875,65,50,0
241.2,241.3875,48,51,0
241.4,241.5875,72,67,0
241.4,241.5875,76,67,0
241.4,241.5875,81,67,0
241.4,241.5875,60,52,0
241.4,241.5875,64,52,0
241.6,241.7875,72,68,0
241.6,241.7875,76,68,0
241.6,241.7875,81,68,0
241.6,241.7875,60,53,0
241.6,241.7875,64,53,0
241.8,241.9875,48,54,0
242.0,242.1875,70,71,0
242.0,242.1875,74,71,0
242.0,242.1875,79,71,0
242.0,242.1875,58,56,0
242.0,242.1875,62,56,0
242.2,242.3875,69,73,0
242.2,242.3875,72,73,0
242.2,242.3875,77,73,0
242.2,242.3875,57,58,0
242.2,242.3875,60,58,0
242.4,242.53125,55,60,0
242.4,242.6,67,60,0
242.4,242.6,70,60,0
242.4,242.6,72,60,0
242.4,242.6,76,60,0
242.6,242.73125,58,60,0
242.8,242.93124,60,60,0
243.0,243.13126,55,60,0
243.2,243.33125,58,60,0
242.4,243.4,48,45,0
243.4,243.53125,60,60,0
243.6,243.73125,55,60,0
243.8,243.93124,58,60,0
243.0,244.0,67,75,0
243.0,244.0,70,75,0
243.0,244.0,72,75,0
243.0,244.0,76,75,0
244.0,244.13126,60,60,0
244.2,244.2625,74,60,0
244.2,244.33125,53,60,0
244.275,244.3375,76,60,0
244.35,244.4125,74,60,0
244.425,244.4875,76,60,0
244.4,244.53125,57,60,0
244.5,244.5625,74,60,0
244.575,244.6375,76,60,0
244.65,244.7125,74,60,0
244.6,244.73125,60,60,0
244.2,244.7875,65,60,0
244.2,244.7875,69,60,0
244.2,244.7875,48,45,0
244.725,244.7875,76,60,0
244.8,244.93124,52,60,0
244.8,245.0,64,60,0
244.8,245.0,67,60,0
244.8,245.0,72,60,0
245.0,245.13126,55,60,0
245.2,245.33125,60,60,0
245.4,245.53125,52,60,0
245.6,245.73125,55,60,0
244.8,245.8,48,45,0
245.8,245.93124,60,60,0
246.0,246.13126,52,60,0
246.2,246.33125,55,60,0
245.4,246.4,64,75,0
245.4,246.4,67,75,0
245.4,246.4,72,75,0
246.4,246.53125,60,60,0
246.6,246.6625,74,60,0
246.6,246.73125,53,60,0
246.675,246.7375,76,60,0
246.75,246.8125,74,60,0
246.825,246.8875,76,60,0
246.8,246.93124,57,60,0
246.9,246.9625,74,60,0
246.975,247.0375,76,60,0
247.05,247.1125,74,60,0
247.0,247.13126,60,60,0
246.6,247.1875,65,60,0
246.6,247.1875,69,60,0
246.6,247.1875,48,45,0
247.125,247.1875,76,60,0
247.2,247.33125,64,60,0
247.2,247.33125,72,60,0
247.2,247.33125,55,60,0
247.4,247.53125,72,60,0
247.4,247.53125,76,60,0
247.4,247.53125,58,60,0
247.6,247.73125,64,60,0
247.6,247.73125,60,60,0
247.2,247.7875,48,45,0
247.8,247.93124,72,60,0
247.8,247.93124,74,60,0
247.8,247.93124,53,60,0
248.0,248.13126,62,60,0
248.0,248.13126,57,60,0
248.2,248.33125,72,60,0
248.2,248.33125,74,60,0
248.2,248.33125,60,60,0
247.8,248.3875,48,45,0
248.4,248.53125,64,60,0
248.4,248.5875,46,60,0
248.6,248.73125,72,60,0
248.6,248.73125,76,60,0
248.6,248.7875,55,60,0
248.8,248.93124,64,60,0
248.8,248.9875,58,60,0
249.0,249.13126,72,60,0
249.0,249.13126,77,60,0
249.0,249.1875,45,60,0
249.2,249.33125,65,60,0
249.2,249.3875,53,60,0
249.4,249.53125,72,60,0
249.4,249.53125,77,60,0
249.4,249.5875,57,60,0
249.6,249.73125,66,61,0
249.6,249.7875,40,60,0
249.8,249.93124,72,62,0
249.8,249.93124,78,62,0
249.8,249.9875,55,60,0
249.8,249.9875,60,60,0
250.0,250.13126,66,63,0
250.0,250.1875,55,60,0
250.0,250.1875,60,60,0
250.2,250.33125,72,64,0
250.2,250.33125,79,64,0
250.2,250.3875,52,60,0
250.4,250.53125,67,65,0
250.4,250.5875,55,60,0
250.4,250.5875,60,60,0
250.6,250.73125,72,66,0
250.6,250.73125,79,66,0
250.6,250.7875,55,60,0
250.6,250.7875,60,60,0
250.8,250.93124,67,67,0
250.8,250.9875,52,60,0
251.0,251.13126,72,68,0
251.0,251.13126,79,68,0
251.0,251.1875,55,60,0
251.0,251.1875,60,60,0
251.2,251.33125,67,69,0
251.2,251.3875,55,60,0
251.2,251.3875,60,60,0
251.4,251.53125,72,70,0
251.4,251.53125,80,70,0
251.4,251.5875,40,60,0
251.6,251.73125,68,71,0
251.6,251.7875,56,60,0
251.6,251.7875,60,60,0
251.8,251.93124,72,72,0
251.8,251.93124,80,72,0
251.8,251.9875,56,60,0
251.8,251.9875,60,60,0
252.0,252.13126,69,73,0
252.0,252.1875,41,60,0
252.2,252.33125,81,74,0
252.2,252.3875,57,60,0
252.2,252.3875,60,60,0
252.4,252.5875,57,60,0
252.4,252.5875,60,60,0
252.4,252.73125,81,105,0
252.6,252.7875,41,45,0
252.8,252.93124,81,60,0
252.8,252.9875,53,45,0
252.8,252.9875,57,45,0
253.0,253.13126,81,60,0
253.0,253.1875,53,45,0
253.0,253.1875,57,45,0
253.2,253.3875,43,45,0
253.4,253.45,81,60,0
253.45,253.5,82,60,0
253.4,253.5875,55,45,0
253.4,253.5875,58,45,0
253.5,253.6,81,60,0
253.6,253.73125,79,60,0
253.6,253.7875,55,45,0
253.6,253.7875,58,45,0
253.8,253.85,79,60,0
253.85,253.9,81,60,0
253.8,253.9875,45,45,0
253.9,254.0,79,60,0
254.0,254.13126,77,60,0
254.0,254.1875,57,45,0
254.0,254.1875,60,45,0
254.2,254.33125,76,60,0
254.2,254.3875,57,45,0
254.2,254.3875,60,45,0
254.4,254.45,76,60,0
254.45,254.5,77,60,0
254.4,254.5875,46,45,0
254.5,254.6,76,60,0
254.6,254.73125,74,60,0
254.6,254.7875,58,45,0
254.6,254.7875,62,45,0
254.8,254.9875,58,45,0
254.8,254.9875,62,45,0
254.8,255.1875,82,84,0
255.0,255.1875,43,45,0
255.2,255.33125,82,60,0
255.2,255.3875,55,45,0
255.2,255.3875,58,45,0
255.4,255.53125,82,60,0
255.4,255.5875,55,45,0
255.4,255.5875,58,45,0
255.6,255.7875,45,45,0
255.8,255.85,82,60,0
255.85,255.9,84,60,0
255.8,255.9875,57,45,0
255.8,255.9875,60,45,0
255.9,256.0,82,60,0
256.0,256.13126,81,60,0
256.0,256.1875,57,45,0
256.0,256.1875,60,45,0
256.2,256.25,81,60,0
256.25,256.3,82,60,0
256.2,256.3875,46,45,0
256.3,256.4,81,60,0
256.4,256.53125,79,60,0
256.4,256.5875,58,45,0
256.4,256.5875,62,45,0
256.6,256.73126,77,60,0
256.6,256.7875,58,45,0
256.6,256.7875,62,45,0
256.8,256.85,77,60,0
256.85,256.9,79,60,0
256.8,256.9875,48,45,0
256.9,257.0,77,60,0
257.0,257.13126,76,60,0
257.0,257.1875,55,45,0
257.0,257.1875,58,45,0
257.0,257.1875,60,45,0
257.2,257.33124,84,60,0
257.2,257.3875,55,45,0
257.2,257.3875,58,45,0
257.2,257.3875,60,45,0
257.4,257.45,77,60,0
257.45,257.5,79,60,0
257.4,257.5875,36,45,0
257.5,257.6,77,60,0
257.6,257.73126,76,60,0
257.6,257.7875,55,45,0
257.6,257.7875,58,45,0
257.6,257.7875,60,45,0
257.8,257.93124,85,60,0
257.8,257.9875,55,45,0
257.8,257.9875,58,45,0
257.8,257.9875,60,45,0
258.0,258.05,77,60,0
258.05,258.1,79,60,0
258.0,258.1875,48,45,0
258.1,258.2,77,60,0
258.2,258.33124,76,60,0
258.2,258.3875,55,45,0
258.2,258.3875,58,45,0
258.2,258.3875,60,45,0
258.4,258.53125,86,60,0
258.4,258.5875,55,45,0
258.4,258.5875,58,45,0
258.4,258.5875,60,45,0
258.6,258.65,77,60,0
258.65,258.7,79,60,0
258.6,258.7875,48,45,0
258.7,258.8,77,60,0
258.8,258.93124,76,60,0
258.8,258.9875,55,45,0
258.8,258.9875,58,45,0
258.8,258.9875,60,45,0
259.0,259.13126,84,60,0
259.0,259.1875,55,45,0
259.0,259.1875,58,45,0
259.0,259.1875,60,45,0
259.2,259.25,77,60,0
259.25,259.3,79,60,0
259.2,259.3875,53,45,0
259.3,259.4,77,60,0
259.4,259.53125,76,60,0
259.4,259.5875,55,45,0
259.4,259.5875,58,45,0
259.4,259.5875,60,45,0
259.6,259.73126,84,60,0
259.6,259.7875,55,45,0
259.6,259.7875,58,45,0
259.6,259.7875,60,45,0
259.8,259.85,65,60,0
259.85,259.9,67,60,0
259.8,259.9875,48,45,0
259.9,260.0,65,60,0
260.0,260.13126,64,60,0
260.0,260.1875,55,45,0
260.0,260.1875,58,45,0
260.0,260.1875,60,45,0
260.2,260.33124,72,60,0
260.2,260.3875,55,45,0
260.2,260.3875,58,45,0
260.2,260.3875,60,45,0
260.4,260.9875,65,60,0
260.4,260.9875,53,45,0
260.4,260.9875,57,45,0
260.4,260.9875,60,45,0
261.0,261.16666,48,45,0
261.25,261.4896,57,45,0
261.25,261.4896,60,45,0
261.25,261.4896,65,45,0
261.5,261.66666,36,45,0
261.5,261.66666,48,45,0
261.75,261.9896,55,45,0
261.75,261.9896,58,45,0
261.75,261.9896,64,45,0
262.0,262.16666,48,45,0
262.25,262.4896,55,45,0
262.25,262.4896,58,45,0
262.25,262.4896,64,45,0
262.5,262.66666,48,45,0
262.75,262.9896,55,45,0
262.75,262.9896,58,45,0
262.75,262.9896,64,45,0
263.0,263.16666,48,45,0
263.25,263.4896,53,45,0
263.25,263.4896,58,45,0
263.25,263.4896,62,45,0
263.5,263.66666,36,45,0
263.5,263.66666,48,45,0
263.75,263.9896,52,45,0
263.75,263.9896,58,45,0
263.75,263.9896,60,45,0
264.0,264.16666,48,45,0
264.25,264.4896,52,45,0
264.25,264.4896,58,45,0
264.25,264.4896,60,45,0
264.5,264.66666,48,45,0
264.75,264.9896,52,45,0
264.75,264.9896,58,45,0
264.75,264.9896,60,45,0
265.0,265.16666,48,45,0
265.25,265.4896,53,45,0
265.25,265.4896,58,45,0
265.25,265.4896,62,45,0
265.5,265.66666,48,45,0
265.75,265.9896,55,45,0
265.75,265.9896,58,45,0
265.75,265.9896,64,45,0
266.0,266.16666,48,45,0
266.25,266.4896,62,45,0
266.25,266.4896,58,45,0
266.25,266.4896,53,45,0
266.5,266.66666,46,45,0
266.5,266.66666,48,45,0
266.75,266.9896,55,45,0
266.75,266.9896,60,45,0
266.75,266.9896,64,45,0
267.0,267.16666,45,45,0
267.0,267.16666,48,45,0
267.25,267.4896,57,45,0
267.25,267.4896,60,45,0
267.25,267.4896,65,45,0
267.5,267.66666,40,45,0
267.5,267.66666,48,45,0
267.75,267.9896,58,45,0
267.75,267.9896,60,45,0
267.75,267.9896,66,45,0
268.0,268.16666,40,45,0
268.0,268.16666,48,45,0
268.0,268.16666,52,45,0
268.25,268.4896,58,45,0
268.25,268.4896,60,45,0
268.25,268.4896,67,45,0
268.5,268.66666,40,45,0
268.5,268.66666,48,45,0
268.5,268.66666,52,45,0
268.75,268.9896,58,45,0
268.75,268.9896,60,45,0
268.75,268.9896,67,45,0
269.0,269.16666,40,45,0
269.0,269.16666,48,45,0
269.0,269.16666,52,45,0
269.25,269.4896,58,45,0
269.25,269.4896,60,45,0
269.25,269.4896,68,45,0
269.5,269.7396,41,45,0
269.5,269.7396,48,45,0
269.5,269.7396,53,45,0
269.75,269.9896,57,45,0
269.75,269.9896,60,45,0
269.75,269.9896,69,45,0
270.0,270.2396,41,45,0
270.0,270.2396,53,45,0
270.25,270.4896,57,45,0
270.25,270.4896,69,45,0
270.5,270.7396,43,45,0
270.5,270.7396,55,45,0
270.75,270.9896,58,45,0
270.75,270.9896,70,45,0
271.0,271.2396,45,45,0
271.0,271.2396,57,45,0
271.25,271.4896,60,45,0
271.25,271.4896,72,45,0
271.5,271.7396,46,45,0
271.5,271.7396,58,45,0
271.75,271.9896,62,45,0
271.75,271.9896,74,45,0
272.0,272.2396,43,45,0
272.0,272.2396,55,45,0
272.25,272.4896,58,45,0
272.25,272.4896,70,45,0
272.5,272.7396,45,45,0
272.5,272.7396,57,45,0
272.75,272.9896,60,45,0
272.75,272.9896,72,45,0
273.0,273.2396,46,45,0
273.0,273.2396,58,45,0
273.25,273.4896,62,45,0
273.25,273.4896,74,45,0
273.5,273.7396,48,45,0
273.5,273.7396,60,45,0
273.75,273.9896,67,45,0
273.75,273.9896,70,45,0
274.0,274.2396,48,45,0
274.0,274.2396,60,45,0
274.25,274.4896,67,45,0
274.25,274.4896,70,45,0
274.5,274.7396,48,45,0
274.75,274.9896,58,45,0
274.75,274.9896,64,45,0
274.75,274.9896,67,45,0
275.0,275.2396,36,45,0
275.0,275.2396,48,45,0
275.25,275.4896,55,45,0
275.25,275.4896,58,45,0
275.25,275.4896,60,45,0
275.25,275.4896,64,45,0
275.5,275.7396,41,45,0
275.5,275.7396,53,45,0
275.75,275.9896,55,45,0
275.75,275.9896,58,45,0
275.75,275.9896,60,45,0
275.75,275.9896,64,45,0
276.0,276.2396,29,45,0
276.0,276.2396,41,45,0
276.25,276.4896,55,45,0
276.25,276.4896,58,45,0
276.25,276.4896,60,45,0
276.25,276.4896,64,45,0
276.5,276.9896,57,45,0
276.5,276.9896,60,45,0
276.5,276.9896,65,45,0
276.5,276.9896,29,45,0
276.5,276.9896,41,45,0
277.0,277.16666,48,45,0
277.25,277.4896,57,45,0
277.25,277.4896,60,45,0
277.25,277.4896,65,45,0
277.5,277.66666,36,45,0
277.5,277.66666,48,45,0
277.75,277.9896,55,45,0
277.75,277.9896,58,45,0
277.75,277.9896,64,45,0
278.0,278.16666,48,45,0
278.25,278.4896,55,45,0
278.25,278.4896,58,45,0
278.25,278.4896,64,45,0
278.5,278.66666,48,45,0
278.75,278.9896,55,45,0
278.75,278.9896,58,45,0
278.75,278.9896,64,45,0
279.0,279.16666,48,45,0
279.25,279.4896,53,45,0
279.25,279.4896,58,45,0
279.25,279.4896,62,45,0
279.5,279.66666,36,45,0
279.5,279.66666,48,45,0
279.75,279.9896,52,45,0
279.75,279.9896,58,45,0
279.75,279.9896,60,45,0
280.0,280.16666,48,45,0
280.25,280.4896,52,45,0
280.25,280.4896,58,45,0
280.25,280.4896,60,45,0
280.5,280.66666,48,45,0
280.75,280.9896,52,45,0
280.75,280.9896,58,45,0
280.75,280.9896,60,45,0
281.0,281.16666,48,45,0
281.25,281.4896,53,45,0
281.25,281.4896,58,45,0
281.25,281.4896,62,45,0
281.5,281.66666,48,45,0
281.75,281.9896,55,45,0
281.75,281.9896,58,45,0
281.75,281.9896,64,45,0
282.0,282.16666,48,45,0
282.25,282.4896,53,45,0
282.25,282.4896,58,45,0
282.25,282.4896,62,45,0
282.5,282.66666,46,45,0
282.5,282.66666,48,45,0
282.75,282.9896,55,45,0
282.75,282.9896,60,45,0
282.75,282.9896,64,45,0
283.0,283.16666,45,45,0
283.0,283.16666,48,45,0
283.25,283.4896,57,45,0
283.25,283.4896,60,45,0
283.25,283.4896,65,45,0
283.5,283.66666,40,45,0
283.5,283.66666,48,45,0
283.75,283.9896,58,45,0
283.75,283.9896,60,45,0
283.75,283.9896,66,45,0
284.0,284.16666,40,45,0
284.0,284.16666,48,45,0
284.0,284.16666,52,45,0
284.25,284.4896,58,45,0
284.25,284.4896,60,45,0
284.25,284.4896,67,45,0
284.5,284.66666,40,45,0
284.5,284.66666,48,45,0
284.5,284.66666,52,45,0
284.75,284.9896,58,45,0
284.75,284.9896,60,45,0
284.75,284.9896,67,45,0
285.0,285.16666,40,45,0
285.0,285.16666,48,45,0
285.0,285.16666,52,45,0
285.25,285.4896,58,45,0
285.25,285.4896,60,45,0
285.25,285.4896,68,45,0
285.5,285.7396,41,45,0
285.5,285.7396,48,45,0
285.5,285.7396,53,45,0
285.75,285.9896,57,45,0
285.75,285.9896,60,45,0
285.75,285.9896,69,45,0
286.0,286.2396,41,45,0
286.0,286.2396,53,45,0
286.25,286.4896,57,45,0
286.25,286.4896,69,45,0
286.5,286.7396,43,45,0
286.5,286.7396,55,45,0
286.75,286.9896,58,45,0
286.75,286.9896,70,45,0
287.0,287.2396,45,45,0
287.0,287.2396,57,45,0
287.25,287.4896,60,45,0
287.25,287.4896,72,45,0
287.5,287.7396,46,45,0
287.5,287.7396,58,45,0
287.75,287.9896,62,45,0
287.75,287.9896,74,45,0
288.0,288.2396,43,45,0
288.0,288.2396,55,45,0
288.25,288.4896,58,45,0
288.25,288.4896,70,45,0
288.5,288.7396,45,45,0
288.5,288.7396,57,45,0
288.75,288.9896,60,45,0
288.75,288.9896,72,45,0
289.0,289.2396,46,45,0
289.0,289.2396,58,45,0
289.25,289.4896,62,45,0
289.25,289.4896,74,45,0
289.5,289.7396,48,45,0
289.5,289.7396,60,45,0
289.75,289.9896,67,45,0
289.75,289.9896,70,45,0
290.0,290.2396,48,45,0
290.0,290.2396,60,45,0
290.25,290.4896,67,45,0
290.25,290.4896,70,45,0
290.5,290.7396,48,45,0
290.75,290.9896,58,45,0
290.75,290.9896,64,45,0
290.75,290.9896,67,45,0
291.0,291.2396,36,45,0
291.0,291.2396,48,45,0
291.25,291.4896,55,45,0
291.25,291.4896,58,45,0
291.25,291.4896,60,45,0
291.25,291.4896,64,45,0
291.5,291.7396,41,45,0
291.5,291.7396,53,45,0
291.75,291.9896,55,45,0
291.75,291.9896,58,45,0
291.75,291.9896,60,45,0
291.75,291.9896,64,45,0
292.0,292.2396,29,45,0
292.0,292.2396,41,45,0
292.25,292.4896,55,45,0
292.25,292.4896,58,45,0
292.25,292.4896,60,45,0
292.25,292.4896,64,45,0
292.5,292.9896,57,45,0
292.5,292.9896,60,45,0
292.5,292.9896,65,45,0
292.5,292.9896,29,45,0
292.5,292.9896,41,45,0
293.0,293.2396,53,45,0
293.25,293.4896,60,45,0
293.25,293.4896,69,45,0
293.5,293.7396,52,45,0
293.75,293.9896,60,45,0
293.75,293.9896,67,45,0
294.0,294.2396,48,45,0
294.25,294.4896,64,45,0
294.25,294.4896,72,45,0
294.5,294.7396,53,45,0
294.75,294.9896,60,45,0
294.75,294.9896,69,45,0
295.0,295.2396,57,45,0
295.25,295.4896,60,45,0
295.25,295.4896,65,45,0
295.5,295.7396,52,45,0
295.75,295.9896,60,45,0
295.75,295.9896,67,45,0
296.0,296.2396,48,45,0
296.25,296.4896,64,45,0
296.25,296.4896,72,45,0
296.5,296.7396,53,45,0
296.75,296.9896,69,45,0
296.75,296.9896,60,45,0
297.0,297.2396,50,45,0
297.25,297.4896,65,45,0
297.25,297.4896,69,45,0
297.25,297.4896,77,45,0
297.5,297.7396,55,45,0
297.75,297.9896,62,45,0
297.75,297.9896,67,45,0
297.75,297.9896,71,45,0
298.0,298.2396,55,45,0
298.25,298.4896,67,45,0
298.25,298.4896,71,45,0
298.25,298.4896,79,45,0
298.5,298.7396,57,45,0
298.75,298.9896,67,45,0
298.75,298.9896,72,45,0
298.75,298.9896,79,45,0
299.0,299.2396,59,45,0
299.25,299.4896,67,45,0
299.25,299.4896,74,45,0
299.25,299.4896,77,45,0
299.5,299.7396,60,45,0
299.75,299.9896,67,45,0
299.75,299.9896,72,45,0
299.75,299.9896,76,45,0
300.0,300.2396,62,45,0
300.25,300.4896,65,45,0
300.25,300.4896,67,45,0
300.25,300.4896,71,45,0
300.25,300.4896,74,45,0
300.5,300.7396,52,45,0
300.5,300.7396,64,45,0
300.75,300.9896,67,45,0
300.75,300.9896,72,45,0
301.0,301.2396,53,45,0
301.0,301.2396,65,45,0
301.25,301.4896,69,45,0
301.25,301.4896,72,45,0
301.25,301.4896,74,45,0
301.5,301.9896,55,45,0
301.5,301.9896,67,45,0
301.75,301.9896,72,45,0
301.75,301.9896,76,45,0
302.0,302.2396,52,45,0
302.0,302.2396,64,45,0
302.25,302.4896,67,45,0
302.25,302.4896,72,45,0
302.25,302.4896,76,45,0
302.25,302.4896,48,45,0
302.25,302.4896,60,45,0
302.5,302.9896,55,45,0
302.5,302.9896,67,45,0
302.75,302.9896,71,45,0
302.75,302.9896,74,45,0
302.75,302.9896,77,45,0
303.0,303.4896,43,45,0
303.0,303.4896,55,45,0
303.25,303.4896,65,45,0
303.25,303.4896,71,45,0
303.25,303.4896,74,45,0
303.5,303.9896,60,45,0
303.75,303.9896,64,45,0
303.75,303.9896,72,45,0
304.0,304.4896,52,45,0
304.25,304.4896,60,45,0
304.25,304.4896,67,45,0
304.5,304.9896,53,45,0
304.75,304.9896,60,45,0
304.75,304.9896,69,45,0
305.0,305.4896,50,45,0
305.25,305.4896,65,45,0
305.25,305.4896,71,45,0
305.5,305.9896,52,45,0
305.75,305.9896,67,45,0
305.75,305.9896,72,45,0
306.0,306.4896,55,45,0
306.25,306.4896,67,45,0
306.25,306.4896,71,45,0
306.25,306.4896,74,45,0
303.5,306.83334,48,45,0
306.5,306.9896,60,45,0
306.75,306.9896,67,45,0
306.75,306.9896,72,45,0
306.75,306.9896,76,45,0
307.0,307.4896,55,60,0
307.25,307.4896,65,45,0
307.25,307.4896,71,45,0
307.25,307.4896,74,45,0
307.0,307.7396,48,60,0
307.5,307.7396,48,30,0
307.5,307.7396,60,30,0
307.75,307.9896,64,30,0
307.75,307.9896,72,30,0
308.0,308.2396,48,30,0
308.0,308.2396,52,30,0
308.25,308.4896,60,30,0
308.25,308.4896,67,30,0
308.5,308.7396,48,30,0
308.5,308.7396,53,30,0
308.75,308.9896,60,30,0
308.75,308.9896,69,30,0
309.0,309.2396,48,30,0
309.0,309.2396,50,30,0
309.25,309.4896,65,30,0
309.25,309.4896,71,30,0
309.5,309.7396,48,30,0
309.5,309.7396,52,30,0
309.75,309.9896,67,30,0
309.75,309.9896,72,30,0
310.0,310.2396,48,30,0
310.0,310.2396,55,30,0
310.25,310.4896,67,30,0
310.25,310.4896,71,30,0
310.25,310.4896,74,30,0
310.5,310.7396,48,30,0
310.5,310.7396,60,30,0
310.75,310.9896,67,30,0
310.75,310.9896,72,30,0
310.75,310.9896,76,30,0
311.0,311.2396,43,60,0
311.0,311.2396,55,60,0
311.25,311.4896,65,60,0
311.25,311.4896,71,60,0
311.25,311.4896,74,60,0
311.5,311.7396,48,45,0
311.5,311.7396,55,45,0
311.75,311.9896,64,45,0
311.75,311.9896,72,45,0
312.0,312.2396,43,60,0
312.0,312.2396,55,60,0
312.25,312.4896,65,60,0
312.25,312.4896,71,60,0
312.25,312.4896,74,60,0
312.5,312.7396,48,45,0
312.5,312.7396,55,45,0
312.75,312.9896,64,60,0
312.75,312.9896,72,60,0
313.0,313.2396,43,60,0
313.0,313.2396,55,60,0
313.25,313.4896,65,60,0
313.25,313.4896,71,60,0
313.25,313.4896,74,60,0
313.5,313.7396,48,45,0
313.5,313.7396,55,45,0
313.75,313.9896,64,45,0
313.75,313.9896,67,45,0
313.75,313.9896,72,45,0
314.0,314.2396,60,45,0
314.25,314.4896,62,47,0
314.25,314.4896,65,47,0
314.25,314.4896,70,47,0
314.5,314.7396,60,49,0
314.75,314.9896,60,52,0
314.75,314.9896,64,52,0
314.75,314.9896,69,52,0
315.0,315.2396,48,54,0
315.125,315.2396,58,56,0
315.125,315.2396,62,56,0
315.125,315.2396,67,56,0
315.25,315.4896,48,57,0
315.375,315.4896,57,60,0
315.375,315.4896,60,60,0
315.375,315.4896,65,60,0
315.5,315.7396,36,45,0
315.5,315.7396,48,45,0
315.75,315.9896,55,45,0
315.75,315.9896,58,45,0
315.75,315.9896,64,45,0
316.0,316.2396,48,45,0
316.25,316.4896,55,45,0
316.25,316.4896,58,45,0
316.25,316.4896,64,45,0
316.5,316.7396,48,45,0
316.75,316.9896,55,45,0
316.75,316.9896,58,45,0
316.75,316.9896,64,45,0
317.0,317.2396,48,45,0
317.25,317.4896,53,45,0
317.25,317.4896,58,45,0
317.25,317.4896,62,45,0
317.5,317.7396,36,45,0
317.5,317.7396,48,45,0
317.75,317.9896,52,45,0
317.75,317.9896,58,45,0
317.75,317.9896,60,45,0
318.0,318.2396,48,45,0
318.25,318.4896,52,45,0
318.25,318.4896,58,45,0
318.25,318.4896,60,45,0
318.5,318.7396,48,45,0
318.75,318.9896,52,45,0
318.75,318.9896,58,45,0
318.75,318.9896,60,45,0
319.0,319.2396,48,45,0
319.25,319.4896,53,45,0
319.25,319.4896,58,45,0
319.25,319.4896,62,45,0
319.5,319.7396,48,45,0
319.75,319.9896,55,45,0
319.75,319.9896,58,45,0
319.75,319.9896,64,45,0
320.0,320.2396,48,45,0
320.25,320.4896,53,45,0
320.25,320.4896,58,45,0
320.25,320.4896,62,45,0
320.5,320.7396,46,45,0
320.5,320.7396,48,45,0
320.75,320.9896,55,45,0
320.75,320.9896,60,45,0
320.75,320.9896,64,45,0
321.0,321.2396,45,45,0
321.0,321.2396,48,45,0
321.25,321.4896,57,45,0
321.25,321.4896,60,45,0
321.25,321.4896,65,45,0
321.5,321.7396,40,45,0
321.5,321.7396,48,45,0
321.75,321.9896,58,45,0
321.75,321.9896,60,45,0
321.75,321.9896,66,45,0
322.0,322.2396,40,45,0
322.0,322.2396,48,45,0
322.0,322.2396,52,45,0
322.25,322.4896,58,45,0
322.25,322.4896,60,45,0
322.25,322.4896,67,45,0
322.5,322.7396,40,45,0
322.5,322.7396,48,45,0
322.5,322.7396,52,45,0
322.75,322.9896,58,45,0
322.75,322.9896,60,45,0
322.75,322.9896,67,45,0
323.0,323.2396,40,45,0
323.0,323.2396,48,45,0
323.0,323.2396,52,45,0
323.25,323.4896,58,45,0
323.25,323.4896,60,45,0
323.25,323.4896,68,45,0
323.5,323.7396,41,45,0
323.5,323.7396,48,45,0
323.5,323.7396,53,45,0
323.75,323.9896,57,45,0
323.75,323.9896,60,45,0
323.75,323.9896,69,45,0
324.0,324.2396,41,45,0
324.0,324.2396,53,45,0
324.25,324.4896,57,45,0
324.25,324.4896,69,45,0
324.5,324.7396,43,45,0
324.5,324.7396,55,45,0
324.75,324.9896,58,45,0
324.75,324.9896,70,45,0
325.0,325.2396,45,45,0
325.0,325.2396,57,45,0
325.25,325.4896,60,45,0
325.25,325.4896,72,45,0
325.5,325.7396,46,45,0
325.5,325.7396,58,45,0
325.75,325.9896,62,45,0
325.75,325.9896,74,45,0
326.0,326.2396,43,45,0
326.0,326.2396,55,45,0
326.25,326.4896,58,45,0
326.25,326.4896,70,45,0
326.5,326.7396,45,45,0
326.5,326.7396,57,45,0
326.75,326.9896,60,45,0
326.75,326.9896,72,45,0
327.0,327.2396,58,45,0
327.0,327.2396,46,45,0
327.25,327.4896,74,45,0
327.25,327.4896,62,45,0
327.5,327.7396,48,45,0
327.5,327.7396,60,45,0
327.75,327.9896,67,45,0
327.75,327.9896,70,45,0
328.0,328.2396,48,45,0
328.0,328.2396,60,45,0
328.25,328.4896,67,45,0
328.25,328.4896,70,45,0
328.25,328.4896,76,45,0
328.5,328.7396,48,45,0
328.5,328.7396,60,45,0
328.75,328.9896,70,45,0
328.75,328.9896,76,45,0
328.75,328.9896,79,45,0
329.0,329.2396,48,45,0
329.0,329.2396,60,45,0
329.25,329.4896,79,45,0
329.25,329.4896,82,45,0
329.5,329.7396,53,45,0
329.5,329.7396,65,45,0
329.75,329.9896,72,45,0
329.75,329.9896,79,45,0
329.75,329.9896,82,45,0
330.0,330.2396,48,45,0
330.0,330.2396,60,45,0
330.25,330.4896,72,45,0
330.25,330.4896,79,45,0
330.25,330.4896,82,45,0
330.5,330.9896,72,45,0
330.5,330.9896,77,45,0
330.5,330.9896,81,45,0
330.5,330.9896,53,45,0
330.5,330.9896,65,45,0
331.0,331.2396,53,45,0
331.25,331.4896,60,45,0
331.25,331.4896,69,45,0
331.5,331.7396,52,45,0
331.75,331.9896,60,45,0
331.75,331.9896,67,45,0
332.0,332.2396,48,45,0
332.25,332.4896,64,45,0
332.25,332.4896,72,45,0
332.5,332.7396,53,45,0
332.75,332.9896,60,45,0
332.75,332.9896,69,45,0
333.0,333.2396,57,45,0
333.25,333.4896,60,45,0
333.25,333.4896,65,45,0
333.5,333.7396,52,45,0
333.75,333.9896,60,45,0
333.75,333.9896,67,45,0
334.0,334.2396,48,45,0
334.25,334.4896,64,45,0
334.25,334.4896,72,45,0
334.5,334.7396,53,45,0
334.75,334.9896,60,45,0
334.75,334.9896,69,45,0
335.0,335.2396,50,45,0
335.25,335.4896,65,45,0
335.25,335.4896,69,45,0
335.25,335.4896,77,45,0
335.5,335.7396,55,45,0
335.75,335.9896,62,45,0
335.75,335.9896,67,45,0
335.75,335.9896,71,45,0
336.0,336.2396,55,45,0
336.25,336.4896,67,45,0
336.25,336.4896,71,45,0
336.25,336.4896,79,45,0
336.5,336.7396,57,45,0
336.75,336.9896,67,45,0
336.75,336.9896,72,45,0
336.75,336.9896,79,45,0
337.0,337.2396,59,45,0
337.25,337.4896,67,45,0
337.25,337.4896,74,45,0
337.25,337.4896,77,45,0
337.5,337.7396,60,45,0
337.75,337.9896,67,45,0
337.75,337.9896,72,45,0
337.75,337.9896,76,45,0
338.0,338.2396,62,45,0
338.25,338.4896,65,45,0
338.25,338.4896,67,45,0
338.25,338.4896,71,45,0
338.25,338.4896,74,45,0
338.5,338.7396,52,45,0
338.5,338.7396,64,45,0
338.75,338.9896,67,45,0
338.75,338.9896,72,45,0
339.0,339.2396,53,45,0
339.0,339.2396,65,45,0
339.25,339.4896,69,45,0
339.25,339.4896,72,45,0
339.25,339.4896,74,45,0
339.5,339.9896,55,45,0
339.5,339.9896,67,45,0
339.75,339.9896,72,45,0
339.75,339.9896,76,45,0
340.0,340.2396,52,45,0
340.0,340.2396,64,45,0
340.25,340.4896,67,45,0
340.25,340.4896,72,45,0
340.25,340.4896,76,45,0
340.25,340.4896,48,45,0
340.25,340.4896,60,45,0
340.5,340.9896,55,45,0
340.5,340.9896,67,45,0
340.75,340.9896,71,45,0
340.75,340.9896,74,45,0
340.75,340.9896,77,45,0
341.0,341.4896,43,45,0
341.0,341.4896,55,45,0
341.25,341.4896,65,45,0
341.25,341.4896,71,45,0
341.25,341.4896,74,45,0
341.5,341.9896,60,45,0
341.75,341.9896,64,45,0
341.75,341.9896,72,45,0
342.0,342.4896,52,45,0
342.25,342.4896,60,45,0
342.25,342.4896,67,45,0
342.5,342.9896,53,45,0
342.75,342.9896,60,45,0
342.75,342.9896,69,45,0
343.0,343.4896,50,45,0
343.25,343.4896,65,45,0
343.25,343.4896,71,45,0
343.5,343.9896,52,45,0
343.75,343.9896,67,45,0
343.75,343.9896,72,45,0
344.0,344.4896,55,45,0
344.25,344.4896,67,45,0
344.25,344.4896,71,45,0
344.25,344.4896,74,45,0
341.5,344.83334,48,30,0
344.5,344.9896,60,45,0
344.75,344.9896,67,45,0
344.75,344.9896,72,45,0
344.75,344.9896,76,45,0
345.0,345.4896,55,60,0
345.25,345.4896,65,45,0
345.25,345.4896,71,45,0
345.25,345.4896,74,45,0
345.0,345.7396,48,60,0
345.5,345.7396,48,30,0
345.5,345.7396,60,30,0
345.75,345.9896,64,30,0
345.75,345.9896,72,30,0
346.0,346.2396,48,30,0
346.0,346.2396,52,30,0
346.25,346.4896,60,30,0
346.25,346.4896,67,30,0
346.5,346.7396,48,30,0
346.5,346.7396,53,30,0
346.75,346.9896,60,30,0
346.75,346.9896,69,30,0
347.0,347.2396,48,30,0
347.0,347.2396,50,30,0
347.25,347.4896,65,30,0
347.25,347.4896,71,30,0
347.5,347.7396,48,30,0
347.5,347.7396,52,30,0
347.75,347.9896,67,30,0
347.75,347.9896,72,30,0
348.0,348.2396,48,30,0
348.0,348.2396,55,30,0
348.25,348.4896,67,30,0
348.25,348.4896,71,30,0
348.25,348.4896,74,30,0
348.5,348.7396,48,30,0
348.5,348.7396,60,30,0
348.75,348.9896,67,30,0
348.75,348.9896,72,30,0
348.75,348.9896,76,30,0
349.0,349.2396,43,60,0
349.0,349.2396,55,60,0
349.25,349.4896,65,60,0
349.25,349.4896,71,60,0
349.25,349.4896,74,60,0
349.5,349.7396,48,45,0
349.5,349.7396,55,45,0
349.75,349.9896,64,45,0
349.75,349.9896,72,45,0
350.0,350.2396,43,60,0
350.0,350.2396,55,60,0
350.25,350.4896,65,60,0
350.25,350.4896,71,60,0
350.25,350.4896,74,60,0
350.5,350.7396,48,45,0
350.5,350.7396,55,45,0
350.75,350.9896,64,60,0
350.75,350.9896,72,60,0
351.0,351.2396,43,60,0
351.0,351.2396,55,60,0
351.25,351.4896,65,60,0
351.25,351.4896,71,60,0
351.25,351.4896,74,60,0
351.5,351.7396,48,45,0
351.5,351.7396,55,45,0
351.75,351.9896,64,45,0
351.75,351.9896,67,45,0
351.75,351.9896,72,45,0
352.0,352.2396,60,45,0
352.25,352.4896,62,47,0
352.25,352.4896,65,47,0
352.25,352.4896,70,47,0
352.5,352.7396,60,49,0
352.75,352.9896,60,52,0
352.75,352.9896,64,52,0
352.75,352.9896,69,52,0
353.0,353.2396,48,54,0
353.125,353.2396,58,56,0
353.125,353.2396,62,56,0
353.125,353.2396,67,56,0
353.25,353.4896,48,57,0
353.375,353.4896,57,60,0
353.375,353.4896,60,60,0
353.375,353.4896,65,60,0
353.5,353.7396,36,45,0
353.5,353.7396,48,45,0
353.75,353.9896,55,45,0
353.75,353.9896,58,45,0
353.75,353.9896,64,45,0
354.0,354.2396,48,45,0
354.25,354.4896,55,45,0
354.25,354.4896,58,45,0
354.25,354.4896,64,45,0
354.5,354.7396,48,45,0
354.75,354.9896,55,45,0
354.75,354.9896,58,45,0
354.75,354.9896,64,45,0
355.0,355.2396,48,45,0
355.25,355.4896,53,45,0
355.25,355.4896,58,45,0
355.25,355.4896,62,45,0
355.5,355.7396,36,45,0
355.5,355.7396,48,45,0
355.75,355.9896,52,45,0
355.75,355.9896,58,45,0
355.75,355.9896,60,45,0
356.0,356.2396,48,45,0
356.25,356.4896,52,45,0
356.25,356.4896,58,45,0
356.25,356.4896,60,45,0
356.5,356.7396,48,45,0
356.75,356.9896,52,45,0
356.75,356.9896,58,45,0
356.75,356.9896,60,45,0
357.0,357.2396,48,45,0
357.25,357.4896,53,45,0
357.25,357.4896,58,45,0
357.25,357.4896,62,45,0
357.5,357.7396,48,45,0
357.75,357.9896,55,45,0
357.75,357.9896,58,45,0
357.75,357.9896,64,45,0
358.0,358.2396,48,45,0
358.25,358.4896,53,45,0
358.25,358.4896,58,45,0
358.25,358.4896,62,45,0
358.5,358.7396,46,45,0
358.5,358.7396,48,45,0
358.75,358.9896,55,45,0
358.75,358.9896,60,45,0
358.75,358.9896,64,45,0
359.0,359.2396,45,45,0
359.0,359.2396,48,45,0
359.25,359.4896,57,45,0
359.25,359.4896,60,45,0
359.25,359.4896,65,45,0
359.5,359.7396,40,45,0
359.5,359.7396,48,45,0
359.75,359.9896,58,45,0
359.75,359.9896,60,45,0
359.75,359.9896,66,45,0
360.0,360.2396,40,45,0
360.0,360.2396,48,45,0
360.0,360.2396,52,45,0
360.25,360.4896,58,45,0
360.25,360.4896,60,45,0
360.25,360.4896,67,45,0
360.5,360.7396,40,45,0
360.5,360.7396,48,45,0
360.5,360.7396,52,45,0
360.75,360.9896,58,45,0
360.75,360.9896,60,45,0
360.75,360.9896,67,45,0
361.0,361.2396,40,45,0
361.0,361.2396,48,45,0
361.0,361.2396,52,45,0
361.25,361.4896,58,45,0
361.25,361.4896,60,45,0
361.25,361.4896,68,45,0
361.5,361.7396,41,45,0
361.5,361.7396,48,45,0
361.5,361.7396,53,45,0
361.75,361.9896,57,45,0
361.75,361.9896,60,45,0
361.75,361.9896,69,45,0
362.0,362.2396,41,45,0
362.0,362.2396,53,45,0
362.25,362.4896,57,45,0
362.25,362.4896,69,45,0
362.5,362.7396,43,45,0
362.5,362.7396,55,45,0
362.75,362.9896,58,45,0
362.75,362.9896,70,45,0
363.0,363.2396,45,45,0
363.0,363.2396,57,45,0
363.25,363.4896,60,45,0
363.25,363.4896,72,45,0
363.5,363.7396,46,45,0
363.5,363.7396,58,45,0
363.75,363.9896,62,45,0
363.75,363.9896,74,45,0
364.0,364.2396,43,45,0
364.0,364.2396,55,45,0
364.25,364.4896,58,45,0
364.25,364.4896,70,45,0
364.5,364.7396,45,45,0
364.5,364.7396,57,45,0
364.75,364.9896,60,45,0
364.75,364.9896,72,45,0
365.0,365.2396,46,45,0
365.0,365.2396,58,45,0
365.25,365.4896,62,45,0
365.25,365.4896,74,45,0
365.5,365.7396,48,45,0
365.5,365.7396,60,45,0
365.75,365.9896,67,45,0
365.75,365.9896,70,45,0
366.0,366.2396,48,45,0
366.0,366.2396,60,45,0
366.25,366.4896,67,45,0
366.25,366.4896,70,45,0
366.25,366.4896,76,45,0
366.5,366.7396,48,45,0
366.5,366.7396,60,45,0
366.75,366.9896,70,45,0
366.75,366.9896,76,45,0
366.75,366.9896,79,45,0
367.0,367.2396,48,45,0
367.0,367.2396,60,45,0
367.25,367.4896,79,45,0
367.25,367.4896,82,45,0
367.5,367.7396,53,45,0
367.5,367.7396,65,45,0
367.75,367.9896,72,45,0
367.75,367.9896,79,45,0
367.75,367.9896,82,45,0
368.0,368.2396,48,45,0
368.0,368.2396,60,45,0
368.25,368.4896,72,45,0
368.25,368.4896,79,45,0
368.25,368.4896,82,45,0
368.5,368.9896,72,45,0
368.5,368.9896,77,45,0
368.5,368.9896,81,45,0
368.5,368.9896,53,45,0
368.5,368.9896,65,45,0
369.0,369.375,60,60,0
369.0,369.73438,56,30,0
369.375,369.73438,65,60,0
369.75,370.10938,55,45,0
369.75,370.125,58,60,0
369.75,370.125,64,60,0
370.125,370.48438,56,45,0
370.125,370.5,60,60,0
370.125,370.5,65,60,0
370.5,370.85938,58,45,0
370.5,370.875,61,60,0
370.5,370.875,67,60,0
370.875,371.23438,56,45,0
370.875,371.25,60,60,0
370.875,371.25,65,60,0
371.25,371.60938,55,45,0
371.25,371.625,58,60,0
371.25,371.625,64,60,0
371.625,371.98438,56,45,0
371.625,372.0,60,60,0
371.625,372.0,65,60,0
372.0,372.35938,55,45,0
369.75,372.375,48,30,0
372.0,372.375,58,60,0
372.0,372.375,63,60,0
372.375,372.73438,53,45,0
372.375,372.75,56,60,0
372.375,372.75,61,60,0
372.75,373.10938,52,45,0
372.75,373.125,55,60,0
372.75,373.125,60,60,0
373.125,373.48438,50,45,0
373.125,373.5,53,60,0
373.125,373.5,59,60,0
373.5,373.85938,52,45,0
373.5,373.875,55,60,0
373.5,373.875,60,60,0
373.875,374.23438,50,45,0
373.875,374.25,53,60,0
373.875,374.25,59,60,0
374.25,374.60938,52,45,0
374.25,374.625,55,60,0
374.25,374.625,60,60,0
374.625,374.98438,50,45,0
374.625,375.0,53,60,0
374.625,375.0,59,60,0
375.0,375.35938,52,45,0
372.75,375.375,48,30,0
375.0,375.375,55,60,0
375.0,375.375,60,60,0
375.375,375.73438,53,45,0
375.375,375.75,56,60,0
375.375,375.75,62,60,0
375.75,376.10938,55,45,0
375.75,376.125,58,60,0
375.75,376.125,64,60,0
376.125,376.48438,53,46,0
376.125,376.5,56,61,0
376.125,376.5,62,61,0
376.5,376.85938,52,48,0
376.5,376.875,55,63,0
376.5,376.875,60,63,0
376.875,377.23438,53,50,0
376.875,377.25,56,65,0
376.875,377.25,62,65,0
377.25,377.60938,55,52,0
377.25,377.625,58,67,0
377.25,377.625,64,67,0
375.75,377.75,48,30,0
377.625,377.98438,56,54,0
377.625,378.0,60,69,0
377.625,378.0,65,69,0
378.0,378.35938,58,56,0
378.0,378.375,61,71,0
378.0,378.375,67,71,0
378.0,378.73438,48,30,0
378.375,378.73438,63,73,0
378.375,378.73438,68,73,0
378.375,378.73438,60,58,0
378.75,380.0,48,60,0
378.75,380.0,60,60,0
378.75,380.25,63,75,0
378.75,380.25,66,75,0
378.75,380.25,69,75,0
380.25,380.98438,49,60,0
380.25,380.98438,61,60,0
380.25,381.0,65,75,0
380.25,381.0,70,75,0
381.0,381.73438,59,60,0
381.0,381.73438,65,60,0
381.0,381.73438,71,60,0
381.0,381.73438,43,53,0
381.0,381.73438,55,53,0
381.75,382.10938,60,45,0
381.75,382.10938,65,45,0
381.75,382.10938,72,45,0
381.75,382.10938,44,45,0
381.75,382.10938,56,45,0
382.125,382.5,56,45,0
382.125,382.5,60,45,0
382.125,382.5,53,45,0
382.5,382.875,60,45,0
382.5,382.875,65,45,0
382.5,382.875,48,45,0
382.875,383.25,65,45,0
382.875,383.25,68,45,0
382.875,383.25,44,45,0
383.25,383.625,68,45,0
383.25,383.625,72,45,0
383.25,383.625,41,45,0
383.625,384.0,72,45,0
383.625,384.0,77,45,0
383.625,384.0,36,45,0
384.0,384.375,77,45,0
384.0,384.375,80,45,0
384.0,384.375,32,45,0
384.375,384.73438,80,45,0
384.375,384.73438,84,45,0
384.375,384.73438,29,45,0
384.75,385.10938,34,45,0
385.125,385.5,82,45,0
385.125,385.5,85,45,0
385.125,385.5,46,45,0
385.125,385.5,49,45,0
385.5,385.875,78,50,0
385.5,385.875,82,50,0
385.5,385.875,49,47,0
385.5,385.875,54,47,0
385.875,386.25,73,55,0
385.875,386.25,78,55,0
385.875,386.25,54,49,0
385.875,386.25,58,49,0
386.25,386.625,70,60,0
386.25,386.625,73,60,0
386.25,386.625,58,51,0
386.25,386.625,61,51,0
386.625,387.0,73,65,0
386.625,387.0,78,65,0
386.625,387.0,54,54,0
386.625,387.0,58,54,0
387.0,387.375,78,70,0
387.0,387.375,82,70,0
387.0,387.375,49,57,0
387.0,387.375,54,57,0
387.375,387.73438,82,75,0
387.375,387.73438,85,75,0
387.375,387.73438,46,60,0
387.375,387.73438,49,60,0
387.75,388.48438,48,45,0
388.125,388.5,79,60,0
388.125,388.5,82,60,0
388.5,388.875,76,60,0
388.5,388.875,79,60,0
388.875,389.23438,70,60,0
388.875,389.23438,76,60,0
389.25,389.98438,36,45,0
389.25,389.98438,48,45,0
389.625,390.0,70,60,0
389.625,390.0,76,60,0
390.0,390.375,67,60,0
390.0,390.375,70,60,0
390.375,390.73438,64,60,0
390.375,390.73438,67,60,0
390.9375,391.125,67,60,0
390.9375,391.125,70,60,0
391.125,391.3125,64,60,0
391.125,391.3125,67,60,0
390.75,391.48438,41,45,0
390.75,391.48438,53,45,0
391.3125,391.48438,58,60,0
391.3125,391.48438,64,60,0
391.6875,391.875,64,60,0
391.6875,391.875,67,60,0
391.875,392.0625,60,60,0
391.875,392.0625,64,60,0
391.5,392.23438,36,45,0
391.5,392.23438,48,45,0
392.0625,392.25,58,60,0
392.0625,392.25,60,60,0
392.25,392.98438,56,60,0
392.25,392.98438,60,60,0
392.25,392.98438,41,45,0
392.25,392.98438,53,45,0
393.0,393.375,60,60,0
393.0,393.73438,56,30,0
393.375,393.73438,65,60,0
393.75,394.10938,55,45,0
393.75,394.125,58,60,0
393.75,394.125,64,60,0
394.125,394.48438,56,45,0
394.125,394.5,60,60,0
394.125,394.5,65,60,0
394.5,394.85938,58,45,0
394.5,394.875,61,60,0
394.5,394.875,67,60,0
394.875,395.23438,56,45,0
394.875,395.25,60,60,0
394.875,395.25,65,60,0
395.25,395.60938,55,45,0
395.25,395.625,58,60,0
395.25,395.625,64,60,0
395.625,395.98438,56,45,0
395.625,396.0,60,60,0
395.625,396.0,65,60,0
396.0,396.35938,55,45,0
393.75,396.375,48,30,0
396.0,396.375,58,60,0
396.0,396.375,63,60,0
396.375,396.73438,53,45,0
396.375,396.75,56,60,0
396.375,396.75,61,60,0
396.75,397.10938,52,45,0
396.75,397.125,55,60,0
396.75,397.125,60,60,0
397.125,397.48438,50,45,0
397.125,397.5,53,60,0
397.125,397.5,59,60,0
397.5,397.85938,52,45,0
397.5,397.875,55,60,0
397.5,397.875,60,60,0
397.875,398.23438,50,45,0
397.875,398.25,53,60,0
397.875,398.25,59,60,0
398.25,398.60938,52,45,0
398.25,398.625,55,60,0
398.25,398.625,60,60,0
398.625,398.98438,50,45,0
398.625,399.0,53,60,0
398.625,399.0,59,60,0
399.0,399.35938,52,45,0
396.75,399.375,48,30,0
399.0,399.375,55,60,0
399.0,399.375,60,60,0
399.375,399.73438,53,45,0
399.375,399.75,56,60,0
399.375,399.75,62,60,0
399.75,400.10938,55,45,0
399.75,400.125,58,60,0
399.75,400.125,64,60,0
400.125,400.48438,53,46,0
400.125,400.5,56,61,0
400.125,400.5,62,61,0
400.5,400.85938,52,48,0
400.5,400.875,55,63,0
400.5,400.875,60,63,0
400.875,401.23438,53,50,0
400.875,401.25,56,65,0
400.875,401.25,62,65,0
401.25,401.60938,55,52,0
401.25,401.625,58,67,0
401.25,401.625,64,67,0
399.75,401.75,48,30,0
401.625,401.98438,56,54,0
401.625,402.0,60,69,0
401.625,402.0,65,69,0
402.0,402.35938,58,56,0
402.0,402.375,61,71,0
402.0,402.375,67,71,0
402.0,402.73438,48,30,0
402.375,402.73438,63,73,0
402.375,402.73438,68,73,0
402.375,402.73438,60,58,0
402.75,404.0,48,60,0
402.75,404.0,60,60,0
402.75,404.25,63,75,0
402.75,404.25,66,75,0
402.75,404.25,69,75,0
404.25,404.98438,49,60,0
404.25,404.98438,61,60,0
404.25,405.0,65,75,0
404.25,405.0,70,75,0
405.0,405.73438,59,60,0
405.0,405.73438,65,60,0
405.0,405.73438,71,60,0
405.0,405.73438,43,53,0
405.0,405.73438,55,53,0
405.75,406.10938,65,45,0
405.75,406.10938,72,45,0
405.75,406.10938,44,45,0
405.75,406.10938,56,45,0
405.75,406.10938,60,45,0
406.125,406.5,56,45,0
406.125,406.5,60,45,0
406.125,406.5,53,45,0
406.5,406.875,60,45,0
406.5,406.875,65,45,0
406.5,406.875,48,45,0
406.875,407.25,65,45,0
406.875,407.25,68,45,0
406.875,407.25,44,45,0
407.25,407.625,68,45,0
407.25,407.625,72,45,0
407.25,407.625,41,45,0
407.625,408.0,72,45,0
407.625,408.0,77,45,0
407.625,408.0,36,45,0
408.0,408.375,77,45,0
408.0,408.375,80,45,0
408.0,408.375,32,45,0
408.375,408.73438,80,45,0
408.375,408.73438,84,45,0
408.375,408.73438,29,45,0
408.75,409.10938,34,45,0
409.125,409.5,82,45,0
409.125,409.5,85,45,0
409.125,409.5,46,45,0
409.125,409.5,49,45,0
409.5,409.875,78,50,0
409.5,409.875,82,50,0
409.5,409.875,49,47,0
409.5,409.875,54,47,0
409.875,410.25,73,55,0
409.875,410.25,78,55,0
409.875,410.25,54,49,0
409.875,410.25,58,49,0
410.25,410.625,70,60,0
410.25,410.625,73,60,0
410.25,410.625,58,51,0
410.25,410.625,61,51,0
410.625,411.0,73,65,0
410.625,411.0,78,65,0
410.625,411.0,54,54,0
410.625,411.0,58,54,0
411.0,411.375,78,70,0
411.0,411.375,82,70,0
411.0,411.375,49,57,0
411.0,411.375,54,57,0
411.375,411.73438,82,75,0
411.375,411.73438,85,75,0
411.375,411.73438,46,60,0
411.375,411.73438,49,60,0
411.75,412.48438,48,45,0
412.125,412.5,79,60,0
412.125,412.5,82,60,0
412.5,412.875,76,60,0
412.5,412.875,79,60,0
412.875,413.23438,70,60,0
412.875,413.23438,76,60,0
413.25,413.98438,36,45,0
413.25,413.98438,48,45,0
413.625,414.0,70,60,0
413.625,414.0,76,60,0
414.0,414.375,67,60,0
414.0,414.375,70,60,0
414.375,414.73438,64,60,0
414.375,414.73438,67,60,0
414.9375,415.125,67,60,0
414.9375,415.125,70,60,0
415.125,415.3125,64,60,0
415.125,415.3125,67,60,0
414.75,415.48438,41,45,0
414.75,415.48438,53,45,0
415.3125,415.48438,58,60,0
415.3125,415.48438,64,60,0
415.6875,415.875,64,60,0
415.6875,415.875,67,60,0
415.875,416.0625,60,60,0
415.875,416.0625,64,60,0
415.5,416.23438,36,45,0
415.5,416.23438,48,45,0
416.0625,416.25,58,60,0
416.0625,416.25,60,60,0
416.25,416.98438,56,60,0
416.25,416.98438,60,60,0
416.25,416.98438,41,45,0
416.25,416.98438,53,45,0
417.0,417.35938,68,60,0
417.0,417.35938,53,45,0
417.375,417.73438,65,60,0
417.375,417.73438,56,45,0
417.75,418.10938,67,60,0
417.75,418.125,52,45,0
418.125,418.5,64,60,0
418.125,418.5,72,60,0
418.125,418.5,48,45,0
418.5,418.875,65,60,0
418.5,418.875,71,60,0
418.5,418.875,50,45,0
418.875,419.25,67,60,0
418.875,419.25,70,60,0
418.875,419.25,52,45,0
418.125,419.60938,60,45,0
419.25,419.60938,53,45,0
419.25,419.625,69,60,0
419.625,419.98438,41,45,0
419.625,420.0,60,60,0
419.625,420.0,68,60,0
420.0,420.35938,40,45,0
420.0,420.375,58,60,0
420.0,420.375,67,60,0
419.625,420.73438,48,45,0
420.375,420.73438,56,60,0
420.375,420.73438,65,60,0
420.375,420.73438,41,45,0
420.75,421.10938,60,60,0
420.75,421.10938,64,60,0
420.75,421.10938,52,45,0
420.75,421.10938,55,45,0
420.75,421.10938,36,45,0
420.75,421.10938,48,45,0
421.125,421.5,64,60,0
421.125,421.5,72,60,0
421.125,421.5,48,45,0
421.5,421.875,65,60,0
421.5,421.875,71,60,0
421.5,421.875,50,45,0
421.125,422.23438,60,45,0
421.875,422.25,67,60,0
421.875,422.25,70,60,0
421.875,422.25,52,45,0
422.25,422.625,60,60,0
422.25,422.625,68,60,0
422.25,422.625,53,45,0
422.625,423.0,68,60,0
422.625,423.0,77,60,0
422.625,423.0,50,45,0
423.0,423.375,65,60,0
423.0,423.375,74,60,0
423.0,423.375,51,45,0
423.375,423.73438,63,60,0
423.375,423.73438,72,60,0
423.375,423.73438,53,45,0
423.75,424.10938,62,60,0
423.75,424.10938,71,60,0
423.75,424.10938,55,45,0
424.125,424.5,55,45,0
424.125,424.85938,67,60,0
424.125,424.85938,79,60,0
424.5,424.875,56,47,0
424.875,425.25,55,49,0
424.875,425.60938,67,63,0
424.875,425.60938,79,63,0
425.25,425.625,56,51,0
425.625,426.0,57,53,0
425.625,426.35938,67,66,0
425.625,426.35938,79,66,0
426.0,426.375,59,55,0
426.375,426.73438,65,69,0
426.375,426.73438,77,69,0
426.375,426.73438,55,57,0
426.75,427.10938,63,70,0
426.75,427.10938,75,70,0
426.75,427.125,48,59,0
426.75,427.125,60,59,0
427.125,427.48438,65,71,0
427.125,427.48438,77,71,0
427.125,427.5,47,61,0
427.125,427.5,59,61,0
427.5,427.85938,63,72,0
427.5,427.85938,75,72,0
427.5,427.875,48,63,0
427.5,427.875,60,63,0
427.875,428.23438,62,74,0
427.875,428.23438,74,74,0
427.875,428.25,43,65,0
427.875,428.25,55,65,0
428.25,428.60938,60,76,0
428.25,428.60938,72,76,0
428.25,428.625,44,67,0
428.25,428.625,56,67,0
428.625,428.98438,59,78,0
428.625,428.98438,71,78,0
428.625,429.0,43,69,0
428.625,429.0,55,69,0
429.0,429.35938,60,80,0
429.0,429.35938,72,80,0
429.0,429.375,44,71,0
429.0,429.375,56,71,0
429.375,429.73438,62,82,0
429.375,429.73438,74,82,0
429.375,429.73438,41,73,0
429.375,429.73438,53,73,0
429.75,430.10938,63,75,0
429.75,430.125,43,75,0
429.75,430.125,55,75,0
430.125,430.5,39,75,0
430.125,430.5,51,75,0
429.75,430.85938,75,84,0
430.125,430.85938,67,75,0
430.5,430.875,36,75,0
430.5,430.875,48,75,0
430.875,431.23438,75,90,0
430.875,431.23438,65,75,0
430.875,431.25,32,75,0
430.875,431.25,44,75,0
431.25,431.60938,67,75,0
431.25,431.625,31,75,0
431.25,431.625,43,75,0
431.25,431.98438,75,92,0
431.625,431.98438,69,60,0
431.625,432.0,30,60,0
431.625,432.0,42,60,0
432.0,432.35938,67,60,0
432.0,432.375,31,60,0
432.0,432.375,43,60,0
432.0,432.54688,77,75,0
432.375,432.73438,65,60,0
432.375,432.73438,31,60,0
432.375,432.73438,43,60,0
432.5625,432.73438,75,60,0
432.75,433.10938,63,45,0
432.75,433.10938,72,45,0
432.75,433.125,36,45,0
433.125,433.5,52,45,0
433.5,433.875,53,49,0
433.875,434.25,52,53,0
434.25,434.625,53,57,0
434.625,435.0,51,61,0
432.75,435.375,48,45,0
435.0,435.375,50,65,0
435.375,435.73438,74,45,0
435.375,435.73438,55,70,0
435.75,436.10938,48,75,0
435.75,436.125,75,54,0
436.125,436.5,74,63,0
436.125,436.5,47,75,0
436.125,436.875,67,75,0
436.5,436.875,75,72,0
436.5,436.875,48,75,0
436.875,437.25,72,82,0
436.875,437.25,76,82,0
436.875,437.25,67,75,0
436.875,437.25,46,75,0
437.25,437.625,77,92,0
437.25,437.625,68,75,0
437.25,437.625,72,75,0
437.25,437.625,44,75,0
437.625,438.0,74,92,0
437.625,438.0,65,68,0
437.625,438.0,68,68,0
437.625,438.0,41,68,0
438.0,438.375,72,82,0
438.0,438.375,63,61,0
438.0,438.375,67,61,0
438.0,438.375,43,61,0
438.375,438.73438,71,71,0
438.375,438.73438,62,53,0
438.375,438.73438,65,53,0
438.375,438.73438,31,53,0
438.75,439.10938,36,45,0
438.75,439.125,63,60,0
438.75,439.125,72,60,0
439.125,439.5,67,60,0
439.125,439.5,55,45,0
439.5,439.875,68,63,0
439.5,439.875,56,48,0
439.875,440.25,67,66,0
439.875,440.25,55,51,0
440.25,440.625,68,69,0
440.25,440.625,56,55,0
440.625,441.0,69,72,0
440.625,441.0,57,59,0
438.75,441.375,48,45,0
441.0,441.375,70,76,0
441.0,441.375,58,63,0
441.375,441.73438,71,80,0
441.375,441.73438,59,67,0
441.75,442.10938,48,71,0
441.75,442.10938,60,71,0
441.75,442.125,72,84,0
442.125,442.5,74,88,0
442.125,442.5,59,75,0
442.125,442.85938,67,75,0
442.5,442.875,75,92,0
442.5,442.875,60,75,0
442.875,443.23438,67,75,0
442.875,443.25,72,92,0
442.875,443.25,76,92,0
442.875,443.25,58,75,0
443.25,443.60938,68,69,0
443.25,443.60938,72,69,0
443.25,443.625,77,86,0
443.25,443.625,56,75,0
443.625,443.98438,65,63,0
443.625,443.98438,68,63,0
443.625,444.0,74,80,0
443.625,444.0,53,75,0
444.0,444.35938,63,57,0
444.0,444.35938,67,57,0
444.0,444.375,72,74,0
444.0,444.375,55,75,0
444.375,444.73438,71,67,0
444.375,444.73438,62,51,0
444.375,444.73438,65,51,0
444.375,444.73438,43,75,0
444.75,445.10938,36,45,0
444.75,445.10938,43,45,0
444.75,445.125,63,60,0
444.75,445.125,67,60,0
444.75,445.125,72,60,0
445.125,445.5,65,84,0
445.125,445.5,68,84,0
445.125,445.5,74,84,0
445.5,445.875,63,60,0
445.5,445.875,67,60,0
445.5,445.875,72,60,0
445.125,446.25,31,63,0
445.125,446.25,43,63,0
445.875,446.25,62,60,0
445.875,446.25,65,60,0
445.875,446.25,71,60,0
446.25,446.60938,36,45,0
446.25,446.60938,43,45,0
446.25,446.625,63,60,0
446.25,446.625,67,60,0
446.25,446.625,72,60,0
446.625,447.0,65,84,0
446.625,447.0,68,84,0
446.625,447.0,74,84,0
447.0,447.375,63,60,0
447.0,447.375,67,60,0
447.0,447.375,72,60,0
446.625,447.73438,31,63,0
447.375,447.73438,62,60,0
447.375,447.73438,65,60,0
447.375,447.73438,71,60,0
446.625,448.10938,43,63,0
447.75,448.10938,63,45,0
447.75,448.10938,67,45,0
448.125,448.48438,64,48,0
447.75,448.5,72,60,0
448.5,448.85938,65,52,0
448.5,448.85938,68,52,0
448.5,448.875,73,63,0
448.875,449.23438,63,56,0
448.875,449.23438,67,56,0
448.875,449.25,72,65,0
448.125,449.60938,48,46,0
449.25,449.625,61,67,0
449.25,449.625,65,67,0
449.25,449.625,70,67,0
449.625,450.0,60,69,0
449.625,450.0,63,69,0
449.625,450.0,68,69,0
450.0,450.35938,46,56,0
450.0,450.375,58,71,0
450.0,450.375,61,71,0
450.0,450.375,67,71,0
450.375,450.73438,56,73,0
450.375,450.73438,60,73,0
450.375,450.73438,65,73,0
450.375,450.73438,44,58,0
450.75,451.10938,55,60,0
450.75,451.10938,58,60,0
450.75,451.10938,64,60,0
450.75,451.10938,43,45,0
451.125,451.48438,56,60,0
451.125,451.48438,60,60,0
451.125,451.48438,65,60,0
451.125,451.48438,44,45,0
451.5,451.85938,58,60,0
451.5,451.85938,61,60,0
451.5,451.85938,67,60,0
451.5,451.85938,46,45,0
451.875,452.23438,56,60,0
451.875,452.23438,60,60,0
451.875,452.23438,65,60,0
451.875,452.23438,44,45,0
452.25,452.60938,55,60,0
452.25,452.60938,58,60,0
452.25,452.60938,64,60,0
452.25,452.60938,43,45,0
452.625,452.98438,56,60,0
452.625,452.98438,60,60,0
452.625,452.98438,65,60,0
452.625,452.98438,44,45,0
453.0,453.35938,55,60,0
453.0,453.35938,58,60,0
453.0,453.35938,63,60,0
453.0,453.35938,43,45,0
453.375,453.73438,53,60,0
453.375,453.73438,56,60,0
453.375,453.73438,61,60,0
453.375,453.73438,41,45,0
453.75,454.10938,52,60,0
453.75,454.10938,55,60,0
453.75,454.10938,60,60,0
453.75,454.10938,40,45,0
454.125,454.48438,50,60,0
454.125,454.48438,53,60,0
454.125,454.48438,59,60,0
454.125,454.48438,38,45,0
454.5,454.85938,52,60,0
454.5,454.85938,55,60,0
454.5,454.85938,60,60,0
454.5,454.85938,40,45,0
454.875,455.23438,50,60,0
454.875,455.23438,53,60,0
454.875,455.23438,59,60,0
454.875,455.23438,38,45,0
455.25,455.60938,52,60,0
455.25,455.60938,55,60,0
455.25,455.60938,40,45,0
455.25,455.60938,60,60,0
455.625,455.98438,59,60,0
455.625,455.98438,53,60,0
455.625,455.98438,50,60,0
455.625,455.98438,38,45,0
456.0,456.35938,52,60,0
456.0,456.35938,55,60,0
456.0,456.35938,60,60,0
456.0,456.35938,40,45,0
447.75,456.375,36,45,0
449.625,456.375,48,54,0
456.375,456.73438,53,60,0
456.375,456.73438,56,60,0
456.375,456.73438,62,60,0
456.375,456.73438,41,45,0
456.75,457.10938,43,45,0
456.75,457.125,55,60,0
456.75,457.125,58,60,0
456.75,457.125,64,60,0
457.125,457.48438,41,48,0
457.125,457.5,53,64,0
457.125,457.5,56,64,0
457.125,457.5,62,64,0
457.5,457.85938,40,51,0
457.5,457.875,52,68,0
457.5,457.875,55,68,0
457.5,457.875,60,68,0
457.875,458.23438,41,55,0
457.875,458.25,53,72,0
457.875,458.25,56,72,0
457.875,458.25,62,72,0
458.25,458.60938,43,59,0
458.25,458.625,55,76,0
458.25,458.625,58,76,0
458.25,458.625,64,76,0
458.625,458.98438,44,63,0
458.625,459.0,56,80,0
458.625,459.0,60,80,0
458.625,459.0,65,80,0
459.0,459.35938,46,67,0
459.0,459.375,58,84,0
459.0,459.375,61,84,0
459.0,459.375,67,84,0
459.375,459.73438,60,88,0
459.375,459.73438,63,88,0
459.375,459.73438,68,88,0
459.375,459.73438,48,71,0
459.375,459.73438,51,71,0
459.375,459.73438,56,71,0
459.75,461.0,48,75,0
459.75,461.0,51,75,0
459.75,461.0,54,75,0
459.75,461.0,57,75,0
459.75,461.25,60,92,0
459.75,461.25,63,92,0
459.75,461.25,66,92,0
459.75,461.25,69,92,0
461.25,461.98438,49,75,0
461.25,461.98438,53,75,0
461.25,461.98438,58,75,0
461.25,462.0,61,92,0
461.25,462.0,65,92,0
461.25,462.0,70,92,0
462.0,462.73438,59,76,0
462.0,462.73438,65,76,0
462.0,462.73438,71,76,0
462.0,462.73438,31,60,0
462.0,462.73438,43,60,0
462.75,463.10938,60,60,0
462.75,463.10938,65,60,0
462.75,463.10938,72,60,0
462.75,463.10938,32,45,0
462.75,463.10938,44,45,0
463.125,463.5,56,60,0
463.125,463.5,60,60,0
463.125,463.5,53,45,0
463.5,463.875,60,60,0
463.5,463.875,65,60,0
463.5,463.875,68,60,0
463.5,463.875,48,45,0
463.875,464.23438,65,60,0
463.875,464.23438,68,60,0
463.875,464.25,44,45,0
464.25,464.625,68,60,0
464.25,464.625,72,60,0
464.25,464.625,41,45,0
464.625,465.0,72,60,0
464.625,465.0,77,60,0
464.625,465.0,36,45,0
465.0,465.375,77,60,0
465.0,465.375,80,60,0
465.0,465.375,32,45,0
465.375,465.73438,80,60,0
465.375,465.73438,84,60,0
465.375,465.73438,29,45,0
465.75,466.10938,34,45,0
466.125,466.5,82,61,0
466.125,466.5,85,61,0
466.125,466.5,46,46,0
466.125,466.5,49,46,0
466.5,466.875,78,63,0
466.5,466.875,82,63,0
466.5,466.875,49,48,0
466.5,466.875,54,48,0
466.875,467.25,73,65,0
466.875,467.25,78,65,0
466.875,467.25,54,50,0
466.875,467.25,58,50,0
467.25,467.625,70,67,0
467.25,467.625,73,67,0
467.25,467.625,58,52,0
467.25,467.625,61,52,0
467.625,468.0,73,69,0
467.625,468.0,78,69,0
467.625,468.0,54,54,0
467.625,468.0,58,54,0
468.0,468.375,78,71,0
468.0,468.375,82,71,0
468.0,468.375,49,56,0
468.0,468.375,54,56,0
468.375,468.73438,82,73,0
468.375,468.73438,85,73,0
468.375,468.73438,46,58,0
468.375,468.73438,49,58,0
468.75,469.48438,48,45,0
469.125,469.5,79,60,0
469.125,469.5,82,60,0
469.5,469.875,76,60,0
469.5,469.875,79,60,0
469.875,470.23438,70,60,0
469.875,470.23438,76,60,0
470.25,470.98438,36,45,0
470.25,470.98438,48,45,0
470.625,471.0,70,60,0
470.625,471.0,76,60,0
471.0,471.375,67,60,0
471.0,471.375,70,60,0
471.375,471.73438,64,60,0
471.375,471.73438,67,60,0
471.9375,472.125,67,60,0
471.9375,472.125,70,60,0
472.125,472.3125,64,60,0
472.125,472.3125,67,60,0
471.75,472.48438,41,45,0
471.75,472.48438,53,45,0
472.3125,472.48438,58,60,0
472.3125,472.48438,64,60,0
472.6875,472.875,64,60,0
472.6875,472.875,67,60,0
472.875,473.0625,60,60,0
472.875,473.0625,64,60,0
472.5,473.23438,36,45,0
472.5,473.23438,48,45,0
473.0625,473.25,58,60,0
473.0625,473.25,60,60,0
473.25,473.98438,56,60,0
473.25,473.98438,60,60,0
473.25,473.98438,41,45,0
473.25,473.98438,53,45,0
474.0,474.35938,68,60,0
474.0,474.35938,53,45,0
474.375,474.73438,65,60,0
474.375,474.73438,56,45,0
474.75,475.10938,67,60,0
474.75,475.125,52,45,0
475.125,475.5,64,60,0
475.125,475.5,72,60,0
475.125,475.5,48,45,0
475.5,475.875,65,60,0
475.5,475.875,71,60,0
475.5,475.875,50,45,0
475.875,476.25,67,60,0
475.875,476.25,70,60,0
475.875,476.25,52,45,0
475.125,476.60938,60,45,0
476.25,476.60938,53,45,0
476.25,476.625,69,60,0
476.625,476.98438,41,45,0
476.625,477.0,60,60,0
476.625,477.0,68,60,0
477.0,477.35938,40,45,0
477.0,477.375,58,60,0
477.0,477.375,67,60,0
476.625,477.73438,48,45,0
477.375,477.73438,56,60,0
477.375,477.73438,65,60,0
477.375,477.73438,41,45,0
477.75,478.10938,60,60,0
477.75,478.10938,64,60,0
477.75,478.10938,52,45,0
477.75,478.10938,55,45,0
477.75,478.10938,36,45,0
477.75,478.10938,48,45,0
478.125,478.5,64,60,0
478.125,478.5,72,60,0
478.125,478.5,48,45,0
478.5,478.875,65,60,0
478.5,478.875,71,60,0
478.5,478.875,50,45,0
478.125,479.23438,60,45,0
478.875,479.25,67,60,0
478.875,479.25,70,60,0
478.875,479.25,52,45,0
479.25,479.625,60,60,0
479.25,479.625,68,60,0
479.25,479.625,53,45,0
479.625,480.0,68,60,0
479.625,480.0,77,60,0
479.625,480.0,50,45,0
480.0,480.375,65,60,0
480.0,480.375,74,60,0
480.0,480.375,51,45,0
480.375,480.73438,63,60,0
480.375,480.73438,72,60,0
480.375,480.73438,53,45,0
480.75,481.10938,62,60,0
480.75,481.10938,71,60,0
480.75,481.10938,55,45,0
481.125,481.5,55,45,0
481.125,481.85938,67,60,0
481.125,481.85938,79,60,0
481.5,481.875,56,47,0
481.875,482.25,55,49,0
481.875,482.60938,67,63,0
481.875,482.60938,79,63,0
482.25,482.625,56,51,0
482.625,483.0,57,53,0
482.625,483.35938,67,66,0
482.625,483.35938,79,66,0
483.0,483.375,59,55,0
483.375,483.73438,65,69,0
483.375,483.73438,77,69,0
483.375,483.73438,55,57,0
483.75,484.10938,63,70,0
483.75,484.10938,75,70,0
483.75,484.125,48,59,0
483.75,484.125,60,59,0
484.125,484.48438,65,71,0
484.125,484.48438,77,71,0
484.125,484.5,47,61,0
484.125,484.5,59,61,0
484.5,484.85938,63,72,0
484.5,484.85938,75,72,0
484.5,484.875,48,63,0
484.5,484.875,60,63,0
484.875,485.23438,62,74,0
484.875,485.23438,74,74,0
484.875,485.25,43,65,0
484.875,485.25,55,65,0
485.25,485.60938,60,76,0
485.25,485.60938,72,76,0
485.25,485.625,44,67,0
485.25,485.625,56,67,0
485.625,485.98438,59,78,0
485.625,485.98438,71,78,0
485.625,486.0,43,69,0
485.625,486.0,55,69,0
486.0,486.35938,60,80,0
486.0,486.35938,72,80,0
486.0,486.375,44,71,0
486.0,486.375,56,71,0
486.375,486.73438,62,82,0
486.375,486.73438,74,82,0
486.375,486.73438,41,73,0
486.375,486.73438,53,73,0
486.75,487.10938,63,75,0
486.75,487.125,43,75,0
486.75,487.125,55,75,0
487.125,487.5,39,75,0
487.125,487.5,51,75,0
486.75,487.85938,75,84,0
487.125,487.85938,67,75,0
487.5,487.875,36,75,0
487.5,487.875,48,75,0
487.875,488.23438,75,90,0
487.875,488.23438,65,75,0
487.875,488.25,32,75,0
487.875,488.25,44,75,0
488.25,488.60938,67,75,0
488.25,488.625,31,75,0
488.25,488.625,43,75,0
488.25,488.98438,75,92,0
488.625,488.98438,69,60,0
488.625,489.0,30,60,0
488.625,489.0,42,60,0
489.0,489.35938,67,60,0
489.0,489.375,31,60,0
489.0,489.375,43,60,0
489.0,489.54688,77,75,0
489.375,489.73438,65,60,0
489.375,489.73438,31,60,0
489.375,489.73438,43,60,0
489.5625,489.73438,75,60,0
489.75,490.10938,63,45,0
489.75,490.10938,72,45,0
489.75,490.125,36,45,0
490.125,490.5,52,45,0
490.5,490.875,53,49,0
490.875,491.25,52,53,0
491.25,491.625,53,57,0
491.625,492.0,51,61,0
489.75,492.375,48,45,0
492.0,492.375,50,65,0
492.375,492.73438,74,45,0
492.375,492.73438,55,70,0
492.75,493.10938,48,75,0
492.75,493.125,75,54,0
493.125,493.5,74,63,0
493.125,493.5,47,75,0
493.125,493.875,67,75,0
493.5,493.875,75,72,0
493.5,493.875,48,75,0
493.875,494.25,72,82,0
493.875,494.25,76,82,0
493.875,494.25,67,75,0
493.875,494.25,46,75,0
494.25,494.625,77,92,0
494.25,494.625,68,75,0
494.25,494.625,72,75,0
494.25,494.625,44,75,0
494.625,495.0,74,92,0
494.625,495.0,65,68,0
494.625,495.0,68,68,0
494.625,495.0,41,68,0
495.0,495.375,72,82,0
495.0,495.375,63,61,0
495.0,495.375,67,61,0
495.0,495.375,43,61,0
495.375,495.73438,71,71,0
495.375,495.73438,62,53,0
495.375,495.73438,65,53,0
495.375,495.73438,31,53,0
495.75,496.10938,36,45,0
495.75,496.125,63,60,0
495.75,496.125,72,60,0
496.125,496.5,67,60,0
496.125,496.5,55,45,0
496.5,496.875,68,63,0
496.5,496.875,56,48,0
496.875,497.25,67,66,0
496.875,497.25,55,51,0
497.25,497.625,68,69,0
497.25,497.625,56,55,0
497.625,498.0,69,72,0
497.625,498.0,57,59,0
495.75,498.375,48,45,0
498.0,498.375,70,76,0
498.0,498.375,58,63,0
498.375,498.73438,71,80,0
498.375,498.73438,59,67,0
498.75,499.10938,48,71,0
498.75,499.10938,60,71,0
498.75,499.125,72,84,0
499.125,499.5,74,88,0
499.125,499.5,59,75,0
499.125,499.85938,67,75,0
499.5,499.875,75,92,0
499.5,499.875,60,75,0
499.875,500.23438,67,75,0
499.875,500.25,72,92,0
499.875,500.25,76,92,0
499.875,500.25,58,75,0
500.25,500.60938,68,69,0
500.25,500.60938,72,69,0
500.25,500.625,77,86,0
500.25,500.625,56,75,0
500.625,500.98438,65,63,0
500.625,500.98438,68,63,0
500.625,501.0,74,80,0
500.625,501.0,53,75,0
501.0,501.35938,63,57,0
501.0,501.35938,67,57,0
501.0,501.375,72,74,0
501.0,501.375,55,75,0
501.375,501.73438,71,67,0
501.375,501.73438,62,51,0
501.375,501.73438,65,51,0
501.375,501.73438,43,75,0
501.75,502.10938,36,45,0
501.75,502.10938,43,45,0
501.75,502.125,63,60,0
501.75,502.125,67,60,0
501.75,502.125,72,60,0
502.125,502.5,65,84,0
502.125,502.5,68,84,0
502.125,502.5,74,84,0
502.5,502.875,63,60,0
502.5,502.875,67,60,0
502.5,502.875,72,60,0
502.125,503.25,31,63,0
502.125,503.25,43,63,0
502.875,503.25,62,60,0
502.875,503.25,65,60,0
502.875,503.25,71,60,0
503.25,503.60938,36,45,0
503.25,503.60938,43,45,0
503.25,503.625,63,60,0
503.25,503.625,67,60,0
503.25,503.625,72,60,0
503.625,504.0,65,84,0
503.625,504.0,68,84,0
503.625,504.0,74,84,0
504.0,504.375,63,60,0
504.0,504.375,67,60,0
504.0,504.375,72,60,0
503.625,504.73438,31,63,0
504.375,504.73438,62,60,0
504.375,504.73438,65,60,0
504.375,504.73438,71,60,0
503.625,505.10938,43,63,0
504.75,505.10938,63,45,0
504.75,505.10938,67,45,0
505.125,505.48438,64,48,0
504.75,505.5,72,60,0
505.5,505.85938,65,52,0
505.5,505.85938,68,52,0
505.5,505.875,73,63,0
505.875,506.23438,67,56,0
505.875,506.23438,63,56,0
505.875,506.25,72,65,0
505.125,506.60938,48,46,0
506.25,506.625,70,67,0
506.25,506.625,65,67,0
506.25,506.625,61,67,0
506.625,507.0,68,69,0
506.625,507.0,63,69,0
506.625,507.0,60,69,0
507.0,507.35938,46,56,0
507.0,507.375,58,71,0
507.0,507.375,61,71,0
507.0,507.375,67,71,0
507.375,507.73438,56,73,0
507.375,507.73438,60,73,0
507.375,507.73438,65,73,0
507.375,507.73438,44,58,0
507.75,508.10938,55,60,0
507.75,508.10938,58,60,0
507.75,508.10938,64,60,0
507.75,508.10938,43,45,0
508.125,508.48438,56,60,0
508.125,508.48438,60,60,0
508.125,508.48438,65,60,0
508.125,508.48438,44,45,0
508.5,508.85938,58,60,0
508.5,508.85938,61,60,0
508.5,508.85938,67,60,0
508.5,508.85938,46,45,0
508.875,509.23438,56,60,0
508.875,509.23438,60,60,0
508.875,509.23438,65,60,0
508.875,509.23438,44,45,0
509.25,509.60938,55,60,0
509.25,509.60938,58,60,0
509.25,509.60938,64,60,0
509.25,509.60938,43,45,0
509.625,509.98438,56,60,0
509.625,509.98438,60,60,0
509.625,509.98438,65,60,0
509.625,509.98438,44,45,0
510.0,510.35938,55,60,0
510.0,510.35938,58,60,0
510.0,510.35938,63,60,0
510.0,510.35938,43,45,0
510.375,510.73438,53,60,0
510.375,510.73438,56,60,0
510.375,510.73438,61,60,0
510.375,510.73438,41,45,0
510.75,511.10938,52,60,0
510.75,511.10938,55,60,0
510.75,511.10938,60,60,0
510.75,511.10938,40,45,0
511.125,511.48438,50,60,0
511.125,511.48438,53,60,0
511.125,511.48438,59,60,0
511.125,511.48438,38,45,0
511.5,511.85938,52,60,0
511.5,511.85938,55,60,0
511.5,511.85938,60,60,0
511.5,511.85938,40,45,0
511.875,512.2344,50,60,0
511.875,512.2344,53,60,0
511.875,512.2344,59,60,0
511.875,512.2344,38,45,0
512.25,512.6094,52,60,0
512.25,512.6094,55,60,0
512.25,512.6094,60,60,0
512.25,512.6094,40,45,0
512.625,512.9844,50,60,0
512.625,512.9844,53,60,0
512.625,512.9844,59,60,0
512.625,512.9844,38,45,0
513.0,513.3594,52,60,0
513.0,513.3594,55,60,0
513.0,513.3594,60,60,0
513.0,513.3594,40,45,0
504.75,513.375,36,45,0
506.625,513.375,48,54,0
513.375,513.7344,53,60,0
513.375,513.7344,56,60,0
513.375,513.7344,62,60,0
513.375,513.7344,41,45,0
513.75,514.1094,43,45,0
513.75,514.125,55,60,0
513.75,514.125,58,60,0
513.75,514.125,64,60,0
514.125,514.4844,41,48,0
514.125,514.5,53,64,0
514.125,514.5,56,64,0
514.125,514.5,62,64,0
514.5,514.8594,40,51,0
514.5,514.875,52,68,0
514.5,514.875,55,68,0
514.5,514.875,60,68,0
514.875,515.2344,41,55,0
514.875,515.25,53,72,0
514.875,515.25,56,72,0
514.875,515.25,62,72,0
515.25,515.6094,43,59,0
515.25,515.625,55,76,0
515.25,515.625,58,76,0
515.25,515.625,64,76,0
515.625,515.9844,44,63,0
515.625,516.0,56,80,0
515.625,516.0,60,80,0
515.625,516.0,65,80,0
516.0,516.3594,46,67,0
516.0,516.375,58,84,0
516.0,516.375,61,84,0
516.0,516.375,67,84,0
516.375,516.7344,60,88,0
516.375,516.7344,63,88,0
516.375,516.7344,68,88,0
516.375,516.7344,48,71,0
516.375,516.7344,51,71,0
516.375,516.7344,56,71,0
516.75,518.0,48,75,0
516.75,518.0,51,75,0
516.75,518.0,54,75,0
516.75,518.0,57,75,0
516.75,518.25,60,92,0
516.75,518.25,63,92,0
516.75,518.25,66,92,0
516.75,518.25,69,92,0
518.25,518.9844,49,75,0
518.25,518.9844,53,75,0
518.25,518.9844,58,75,0
518.25,519.0,61,92,0
518.25,519.0,65,92,0
518.25,519.0,70,92,0
519.0,519.7344,59,76,0
519.0,519.7344,65,76,0
519.0,519.7344,71,76,0
519.0,519.7344,31,60,0
519.0,519.7344,43,60,0
519.75,520.1094,60,60,0
519.75,520.1094,65,60,0
519.75,520.1094,72,60,0
519.75,520.1094,32,45,0
519.75,520.1094,44,45,0
520.125,520.5,56,60,0
520.125,520.5,60,60,0
520.125,520.5,53,45,0
520.5,520.875,60,60,0
520.5,520.875,65,60,0
520.5,520.875,68,60,0
520.5,520.875,48,45,0
520.875,521.2344,65,60,0
520.875,521.2344,68,60,0
520.875,521.25,44,45,0
521.25,521.625,68,60,0
521.25,521.625,72,60,0
521.25,521.625,41,45,0
521.625,522.0,72,60,0
521.625,522.0,77,60,0
521.625,522.0,36,45,0
522.0,522.375,77,60,0
522.0,522.375,80,60,0
522.0,522.375,32,45,0
522.375,522.7344,80,60,0
522.375,522.7344,84,60,0
522.375,522.7344,29,45,0
522.75,523.1094,34,45,0
523.125,523.5,82,61,0
523.125,523.5,85,61,0
523.125,523.5,46,46,0
523.125,523.5,49,46,0
523.5,523.875,78,63,0
523.5,523.875,82,63,0
523.5,523.875,49,48,0
523.5,523.875,54,48,0
523.875,524.25,73,65,0
523.875,524.25,78,65,0
523.875,524.25,54,50,0
523.875,524.25,58,50,0
524.25,524.625,70,67,0
524.25,524.625,73,67,0
524.25,524.625,58,52,0
524.25,524.625,61,52,0
524.625,525.0,73,69,0
524.625,525.0,78,69,0
524.625,525.0,54,54,0
524.625,525.0,58,54,0
525.0,525.375,78,71,0
525.0,525.375,82,71,0
525.0,525.375,49,56,0
525.0,525.375,54,56,0
525.375,525.7344,82,73,0
525.375,525.7344,85,73,0
525.375,525.7344,46,58,0
525.375,525.7344,49,58,0
525.75,526.4844,48,45,0
526.125,526.5,79,60,0
526.125,526.5,82,60,0
526.5,526.875,76,60,0
526.5,526.875,79,60,0
526.875,527.2344,70,60,0
526.875,527.2344,76,60,0
527.25,527.9844,36,45,0
527.25,527.9844,48,45,0
527.625,528.0,70,60,0
527.625,528.0,76,60,0
528.0,528.375,67,60,0
528.0,528.375,70,60,0
528.375,528.7344,64,60,0
528.375,528.7344,67,60,0
528.9375,529.125,67,60,0
528.9375,529.125,70,60,0
529.125,529.3125,64,60,0
529.125,529.3125,67,60,0
528.75,529.4844,41,45,0
528.75,529.4844,53,45,0
529.3125,529.4844,58,60,0
529.3125,529.4844,64,60,0
529.6875,529.875,64,60,0
529.6875,529.875,67,60,0
529.875,530.0625,60,60,0
529.875,530.0625,64,60,0
529.5,530.2344,36,45,0
529.5,530.2344,48,45,0
530.0625,530.25,58,60,0
530.0625,530.25,60,60,0
530.25,530.9844,56,60,0
530.25,530.9844,60,60,0
530.25,530.9844,41,45,0
530.25,530.9844,53,45,0
531.0,531.1528,65,45,0
531.1667,531.31946,69,45,0
531.3333,531.4861,60,45,0
531.0,531.5,72,60,0
531.5,531.6528,77,60,0
531.5,531.6528,69,45,0
531.6667,531.75,77,60,0
531.6667,531.81946,67,45,0
531.75,531.8333,79,60,0
531.8333,531.9861,70,45,0
531.8333,532.0,77,60,0
532.0,532.1528,60,45,0
532.0,532.31946,76,60,0
532.1667,532.31946,70,45,0
532.3333,532.4861,67,45,0
532.5,532.6528,70,45,0
532.6667,532.81946,60,45,0
532.8333,532.9861,70,45,0
533.0,533.1528,67,45,0
532.3333,533.31946,76,60,0
533.1667,533.31946,70,45,0
533.3333,533.4028,77,60,0
533.3333,533.4861,60,45,0
533.4167,533.4861,76,60,0
533.5,533.56946,74,60,0
533.5,533.6528,70,45,0
533.5833,533.6528,76,60,0
533.6667,533.81946,65,45,0
533.8333,533.9861,69,45,0
534.0,534.1528,60,45,0
533.6667,534.1667,77,60,0
534.1667,534.31946,74,60,0
534.1667,534.31946,69,45,0
534.3333,534.4167,74,60,0
534.3333,534.4861,64,45,0
534.4167,534.5,76,60,0
534.5,534.6528,67,45,0
534.5,534.6667,74,60,0
534.6667,534.81946,60,45,0
534.6667,534.9861,72,60,0
534.8333,534.9861,67,45,0
535.0,535.1528,64,45,0
535.1667,535.31946,67,45,0
535.3333,535.4861,60,45,0
535.5,535.6528,67,45,0
535.6667,535.81946,64,45,0
535.8333,535.9861,67,45,0
535.0,536.1111,72,60,0
536.0,536.1528,60,45,0
536.1667,536.31946,67,45,0
536.3333,536.43054,74,60,0
536.3333,536.4861,65,45,0
536.44446,536.5417,76,60,0
536.5,536.6528,69,45,0
536.55554,536.6528,74,60,0
536.6667,536.7639,73,60,0
536.6667,536.81946,60,45,0
536.7778,536.875,74,60,0
536.8333,536.9861,69,45,0
536.8889,536.9861,84,60,0
537.0,537.0972,76,60,0
537.0,537.1528,67,45,0
537.1111,537.2083,77,60,0
537.1667,537.31946,70,45,0
537.2222,537.31946,76,60,0
537.3333,537.43054,75,60,0
537.3333,537.4861,60,45,0
537.44446,537.5417,76,60,0
537.5,537.6528,70,45,0
537.55554,537.6528,84,60,0
537.6667,537.7639,74,60,0
537.6667,537.81946,65,45,0
537.7778,537.875,76,60,0
537.8333,537.9861,69,45,0
537.8889,537.9861,74,60,0
538.0,538.0972,73,60,0
538.0,538.1528,60,45,0
538.1111,538.2083,74,60,0
538.1667,538.31946,69,45,0
538.2222,538.31946,84,60,0
538.3333,538.43054,76,60,0
538.3333,538.4861,67,45,0
538.44446,538.5417,77,60,0
538.5,538.6528,70,45,0
538.55554,538.6528,76,60,0
538.6667,538.7639,75,60,0
538.6667,538.81946,60,45,0
538.7778,538.875,76,60,0
538.8333,538.9861,70,45,0
538.8889,538.9861,84,60,0
539.0,539.0972,77,60,0
539.0,539.1528,69,45,0
539.1111,539.2083,79,60,0
539.1667,539.31946,72,45,0
539.2222,539.31946,77,60,0
539.3333,539.43054,76,60,0
539.3333,539.4861,60,45,0
539.44446,539.5417,77,60,0
539.5,539.6528,72,45,0
539.55554,539.6528,84,60,0
539.6667,539.7639,78,60,0
539.6667,539.81946,70,45,0
539.7778,539.875,79,60,0
539.8333,539.9861,72,45,0
539.8889,539.9861,78,60,0
540.0,540.0972,79,60,0
540.0,540.1528,60,45,0
540.1111,540.2083,78,60,0
540.1667,540.31946,72,45,0
540.2222,540.31946,79,60,0
540.3333,540.4028,79,60,0
540.3333,540.4861,70,45,0
540.4167,540.4861,81,60,0
540.5,540.56946,79,60,0
540.5,540.6528,72,45,0
540.5833,540.6528,81,60,0
540.6667,540.7361,79,60,0
540.6667,540.81946,60,45,0
540.75,540.81946,81,60,0
540.8333,540.9028,79,60,0
540.8333,540.9861,72,45,0
540.9167,540.9861,81,60,0
541.0,541.06946,79,60,0
541.0,541.1528,70,45,0
541.0833,541.1528,81,60,0
541.1667,541.2361,79,60,0
541.1667,541.31946,72,45,0
541.25,541.31946,81,60,0
541.3333,541.4028,79,60,0
541.3333,541.4861,62,45,0
541.4167,541.4861,81,60,0
541.5,541.56946,79,60,0
541.5,541.6528,72,45,0
541.5833,541.6528,81,60,0
541.6667,541.7361,80,60,0
541.6667,541.81946,70,45,0
541.75,541.81946,81,60,0
541.8333,541.9028,80,60,0
541.8333,541.9861,72,45,0
541.9167,541.9861,81,60,0
542.0,542.06946,80,60,0
542.0,542.1528,64,45,0
542.0833,542.1528,81,60,0
542.1667,542.2361,80,60,0
542.1667,542.31946,72,45,0
542.25,542.31946,81,60,0
542.3333,542.4028,81,60,0
542.3333,542.4861,65,45,0
542.4167,542.4861,82,60,0
542.5,542.56946,81,60,0
542.5,542.6528,77,45,0
542.5833,542.6528,82,60,0
542.6667,542.7361,81,60,0
542.6667,542.81946,72,45,0
542.75,542.81946,82,60,0
542.8333,542.9028,80,60,0
542.8333,542.9861,69,45,0
542.9167,542.9861,81,60,0
543.0,543.06946,89,60,0
543.0,543.1528,65,45,0
543.0833,543.1528,88,60,0
543.1667,543.2361,89,60,0
543.1667,543.31946,77,45,0
543.25,543.31946,88,60,0
543.3333,543.4028,89,60,0
543.3333,543.4861,69,45,0
543.4167,543.4861,88,60,0
543.5,543.56946,89,60,0
543.5,543.6528,77,45,0
543.5833,543.6528,88,60,0
543.6667,543.7361,89,60,0
543.6667,543.81946,67,45,0
543.75,543.81946,88,60,0
543.8333,543.9028,89,60,0
543.8333,543.9861,77,45,0
543.9167,543.9861,88,60,0
544.0,544.06946,89,60,0
544.0,544.1528,70,45,0
544.0833,544.1528,88,60,0
544.1667,544.2361,89,60,0
544.1667,544.31946,77,45,0
544.25,544.31946,88,60,0
544.3333,544.4028,89,60,0
544.3333,544.4861,69,45,0
544.4167,544.4861,88,60,0
544.5,544.56946,89,60,0
544.5,544.6528,77,45,0
544.5833,544.6528,88,60,0
544.6667,544.7361,89,60,0
544.6667,544.81946,72,45,0
544.75,544.81946,88,60,0
544.8333,544.9028,89,60,0
544.8333,544.9861,77,45,0
544.9167,544.9861,85,60,0
545.0,545.06946,86,60,0
545.0,545.1528,70,45,0
545.0833,545.1528,88,60,0
545.1667,545.2361,86,60,0
545.1667,545.31946,77,45,0
545.25,545.31946,88,60,0
545.3333,545.4028,86,60,0
545.3333,545.4861,74,45,0
545.4167,545.4861,88,60,0
545.5,545.56946,86,60,0
545.5,545.6528,77,45,0
545.5833,545.6528,88,60,0
545.6667,545.7361,86,60,0
545.6667,545.81946,67,45,0
545.75,545.81946,88,60,0
545.8333,545.9028,86,60,0
545.8333,545.9861,79,45,0
545.9167,545.9861,88,60,0
546.0,546.06946,86,60,0
546.0,546.1528,70,45,0
546.0833,546.1528,88,60,0
546.1667,546.2361,86,60,0
546.1667,546.31946,79,45,0
546.25,546.31946,88,60,0
546.3333,546.4028,86,60,0
546.3333,546.4861,69,45,0
546.4167,546.4861,88,60,0
546.5,546.56946,86,60,0
546.5,546.6528,79,45,0
546.5833,546.6528,88,60,0
546.6667,546.7361,86,60,0
546.6667,546.81946,72,45,0
546.75,546.81946,88,60,0
546.8333,546.9028,86,60,0
546.8333,546.9861,79,45,0
546.9167,546.9861,88,60,0
547.0,547.0417,86,60,0
547.05554,547.0972,88,60,0
547.0,547.1528,70,45,0
547.1111,547.2083,86,60,0
547.1667,547.31946,74,45,0
547.2222,547.31946,84,60,0
547.3333,547.43054,82,60,0
547.3333,547.4861,67,45,0
547.44446,547.5417,81,60,0
547.5,547.6528,74,45,0
547.55554,547.6528,79,60,0
547.6667,547.76385,77,60,0
547.6667,547.81946,60,45,0
547.7778,547.875,76,60,0
547.8333,547.9861,70,45,0
547.88885,547.9861,79,60,0
548.0,548.0972,77,60,0
548.0,548.1528,67,45,0
548.1111,548.2083,81,60,0
548.1667,548.31946,70,45,0
548.2222,548.31946,79,61,0
548.3333,548.43054,82,61,0
548.3333,548.4861,60,45,0
548.44446,548.5417,81,62,0
548.5,548.6528,70,45,0
548.55554,548.6528,84,63,0
548.6667,548.76385,82,64,0
548.6667,548.81946,67,45,0
548.7778,548.875,86,65,0
548.8333,548.9861,70,45,0
548.88885,548.9861,84,66,0
549.0,549.0972,82,67,0
549.0,549.1528,60,45,0
549.1111,549.2083,81,68,0
549.1667,549.31946,70,45,0
549.2222,549.31946,79,69,0
549.3333,549.43054,77,70,0
549.3333,549.4861,67,46,0
549.44446,549.5417,76,71,0
549.5,549.6528,70,47,0
549.55554,549.6528,74,72,0
549.6667,549.76385,72,73,0
549.6667,549.81946,60,48,0
549.7778,549.875,71,74,0
549.8333,549.9861,70,49,0
549.88885,549.9861,72,75,0
550.0,550.0972,73,76,0
550.0,550.1528,67,50,0
550.1111,550.2083,74,77,0
550.1667,550.31946,70,51,0
550.2222,550.31946,75,78,0
550.3333,550.43054,76,79,0
550.3333,550.4861,65,52,0
550.44446,550.5417,77,80,0
550.5,550.6528,70,53,0
550.55554,550.6528,78,81,0
550.6667,550.76385,79,82,0
550.6667,550.81946,67,54,0
550.7778,550.875,80,83,0
550.8333,550.9861,70,55,0
550.88885,550.9861,81,84,0
551.0,551.0972,82,85,0
551.0,551.1528,60,56,0
551.1111,551.2083,83,86,0
551.1667,551.31946,70,57,0
551.2222,551.31946,84,87,0
551.3333,551.4028,85,88,0
551.3333,551.4861,67,58,0
551.4167,551.4861,86,89,0
551.5,551.56946,87,90,0
551.5,551.6528,70,59,0
551.5833,551.6528,88,91,0
551.6667,552.31946,89,92,0
551.6667,552.31946,65,60,0
551.6667,552.31946,69,60,0
552.3333,552.55554,48,45,0
552.5,552.6528,65,45,0
552.5,552.6528,69,45,0
552.5,552.6528,72,45,0
552.6667,552.88885,60,45,0
552.8333,552.9861,65,45,0
552.8333,552.9861,69,45,0
552.8333,552.9861,72,45,0
553.0,553.2222,48,45,0
553.1667,553.31946,67,45,0
553.1667,553.31946,70,45,0
553.1667,553.31946,72,45,0
553.3333,553.55554,60,45,0
553.5,553.6528,67,45,0
553.5,553.6528,70,45,0
553.5,553.6528,72,45,0
553.6667,553.88885,48,45,0
553.8333,553.9861,67,45,0
553.8333,553.9861,70,45,0
553.8333,553.9861,72,45,0
554.0,554.2222,60,45,0
554.1667,554.31946,67,45,0
554.1667,554.31946,70,45,0
554.1667,554.31946,72,45,0
554.3333,554.55554,48,45,0
554.5,554.6528,67,45,0
554.5,554.6528,70,45,0
554.5,554.6528,72,45,0
554.6667,554.88885,60,45,0
554.8333,554.9861,67,45,0
554.8333,554.9861,70,45,0
554.8333,554.9861,72,45,0
555.0,555.2222,48,45,0
555.1667,555.31946,65,45,0
555.1667,555.31946,69,45,0
555.1667,555.31946,72,45,0
555.3333,555.55554,60,45,0
555.5,555.6528,65,45,0
555.5,555.6528,69,45,0
555.5,555.6528,72,45,0
555.6667,555.88885,48,45,0
555.8333,555.9861,64,45,0
555.8333,555.9861,67,45,0
555.8333,555.9861,72,45,0
556.0,556.2222,60,45,0
556.1667,556.31946,64,45,0
556.1667,556.31946,67,45,0
556.1667,556.31946,72,45,0
556.3333,556.55554,59,45,0
556.5,556.6528,64,45,0
556.5,556.6528,67,45,0
556.5,556.6528,72,45,0
556.6667,556.88885,60,45,0
556.8333,556.9861,64,45,0
556.8333,556.9861,67,45,0
556.8333,556.9861,72,45,0
557.0,557.2222,58,45,0
557.1667,557.31946,64,45,0
557.1667,557.31946,67,45,0
557.1667,557.31946,72,45,0
557.3333,557.55554,60,45,0
557.5,557.6528,64,45,0
557.5,557.6528,67,45,0
557.5,557.6528,72,45,0
557.6667,557.88885,57,45,0
557.8333,557.9861,65,45,0
557.8333,557.9861,72,45,0
558.0,558.2222,60,45,0
558.1667,558.31946,65,45,0
558.1667,558.31946,72,45,0
558.3333,558.55554,55,45,0
558.5,558.6528,70,45,0
558.5,558.6528,72,45,0
558.6667,558.88885,60,45,0
558.8333,558.9861,70,45,0
558.8333,558.9861,72,45,0
559.0,559.2222,53,45,0
559.1667,559.31946,69,45,0
559.1667,559.31946,72,45,0
559.3333,559.55554,60,45,0
559.5,559.6528,69,45,0
559.5,559.6528,72,45,0
559.6667,559.88885,52,45,0
559.8333,559.9861,67,45,0
559.8333,559.9861,70,45,0
559.8333,559.9861,72,45,0
560.0,560.2222,60,45,0
560.1667,560.31946,67,45,0
560.1667,560.31946,70,45,0
560.1667,560.31946,72,45,0
560.3333,560.55554,50,45,0
560.5,560.6528,65,45,0
560.5,560.6528,70,45,0
560.5,560.6528,72,45,0
560.6667,560.88885,60,45,0
560.8333,560.9861,65,45,0
560.8333,560.9861,70,45,0
560.8333,560.9861,72,45,0
561.0,561.2222,48,45,0
561.1667,561.31946,64,45,0
561.1667,561.31946,70,45,0
561.1667,561.31946,72,45,0
561.3333,561.55554,60,45,0
561.5,561.6528,64,45,0
561.5,561.6528,70,45,0
561.5,561.6528,72,45,0
561.6667,561.88885,48,45,0
561.8333,561.9861,64,45,0
561.8333,561.9861,70,45,0
561.8333,561.9861,72,45,0
562.0,562.2222,60,45,0
562.1667,562.31946,70,45,0
562.1667,562.31946,72,45,0
562.3333,562.55554,50,45,0
562.5,562.6528,70,45,0
562.5,562.6528,72,45,0
562.6667,562.88885,62,45,0
562.8333,562.9861,70,45,0
562.8333,562.9861,72,45,0
563.0,563.2222,50,45,0
563.1667,563.31946,70,45,0
563.1667,563.31946,72,45,0
563.3333,563.55554,62,45,0
563.5,563.6528,70,45,0
563.5,563.6528,72,45,0
563.6667,563.88885,53,45,0
563.8333,563.9861,69,45,0
563.8333,563.9861,72,45,0
564.0,564.2222,65,45,0
564.1667,564.31946,69,45,0
564.1667,564.31946,72,45,0
564.3333,564.55554,53,45,0
564.5,564.6528,69,45,0
564.5,564.6528,72,45,0
564.5,564.6528,77,45,0
564.6667,564.88885,65,45,0
564.8333,564.9861,69,45,0
564.8333,564.9861,72,45,0
564.8333,564.9861,77,45,0
565.0,565.2222,55,45,0
565.1667,565.31946,70,45,0
565.1667,565.31946,72,45,0
565.1667,565.31946,76,45,0
565.3333,565.55554,67,45,0
565.5,565.6528,70,45,0
565.5,565.6528,72,45,0
565.5,565.6528,76,45,0
565.6667,565.88885,57,45,0
565.8333,565.9861,72,45,0
565.8333,565.9861,77,45,0
566.0,566.2222,69,45,0
566.1667,566.31946,72,45,0
566.1667,566.31946,77,45,0
566.3333,566.55554,58,45,0
566.5,566.6528,74,45,0
566.6667,566.88885,70,45,0
566.8333,566.9861,74,45,0
567.0,567.2222,55,45,0
567.1667,567.31946,70,45,0
567.1667,567.31946,74,45,0
567.1667,567.31946,79,45,0
567.3333,567.55554,67,45,0
567.5,567.6528,70,45,0
567.5,567.6528,74,45,0
567.5,567.6528,79,45,0
567.6667,567.88885,57,45,0
567.8333,567.9861,72,45,0
567.8333,567.9861,74,45,0
567.8333,567.9861,78,45,0
568.0,568.2222,69,45,0
568.1667,568.31946,72,45,0
568.1667,568.31946,74,45,0
568.1667,568.31946,78,45,0
568.3333,568.4861,58,45,0
568.5,568.6528,74,45,0
568.5,568.6528,79,45,0
568.5,568.6528,70,45,0
568.6667,568.81946,55,45,0
568.8333,568.9861,70,45,0
568.8333,568.9861,79,45,0
568.8333,568.9861,67,45,0
569.0,569.2222,60,45,0
569.1667,569.31946,79,45,0
569.1667,569.31946,82,45,0
569.3333,569.55554,72,46,0
569.5,569.6528,79,47,0
569.5,569.6528,82,47,0
569.6667,569.88885,60,48,0
569.8333,569.9861,79,49,0
569.8333,569.9861,82,49,0
570.0,570.2222,72,50,0
570.1667,570.31946,79,51,0
570.1667,570.31946,82,51,0
570.3333,570.55554,61,52,0
570.5,570.6528,79,53,0
570.5,570.6528,82,53,0
570.6667,570.88885,73,54,0
570.8333,570.9861,79,55,0
570.8333,570.9861,82,55,0
571.0,571.2222,60,56,0
571.1667,571.31946,79,57,0
571.1667,571.31946,82,57,0
571.3333,571.55554,72,58,0
571.5,571.6528,79,59,0
571.5,571.6528,82,59,0
571.6667,571.88885,65,60,0
571.8333,571.9861,76,60,0
571.8333,571.9861,82,60,0
571.8333,571.9861,84,60,0
572.0,572.2222,72,60,0
572.1666,572.31946,76,58,0
572.1666,572.31946,82,58,0
572.1666,572.31946,84,58,0
572.3333,572.55554,60,55,0
572.5,572.6528,76,54,0
572.5,572.6528,82,54,0
572.5,572.6528,84,54,0
572.6666,572.88885,72,50,0
572.8333,572.9861,76,48,0
572.8333,572.9861,82,48,0
572.8333,572.9861,84,48,0
573.0,573.6528,77,45,0
573.0,573.6528,81,45,0
573.0,573.6528,84,45,0
573.0,573.6528,65,45,0
573.6666,573.81946,65,45,0
573.6666,573.8333,81,60,0
573.8333,573.9861,72,45,0
573.8333,574.0,80,60,0
574.0,574.1528,69,45,0
574.0,574.1666,81,60,0
574.1666,574.31946,77,60,0
574.1666,574.31946,72,45,0
574.3333,574.4861,64,45,0
574.5,574.6528,72,45,0
574.6666,574.81946,67,45,0
574.3333,574.9861,79,60,0
574.8333,574.9861,72,45,0
575.0,575.1528,60,45,0
575.1666,575.31946,72,45,0
575.3333,575.4861,64,45,0
575.5,575.6528,72,45,0
575.6666,575.81946,65,45,0
575.8333,575.9861,72,45,0
576.0,576.1528,69,45,0
576.1666,576.31946,72,45,0
576.3333,576.43054,81,60,0
576.3333,576.4861,65,45,0
576.44446,576.5416,82,60,0
576.5,576.6528,72,45,0
576.55554,576.6528,81,60,0
576.6666,576.76385,80,60,0
576.6666,576.81946,69,45,0
576.7778,576.875,81,60,0
576.8333,576.9861,72,45,0
576.88885,576.9861,77,60,0
577.0,577.1528,64,45,0
577.1666,577.31946,72,45,0
577.3333,577.4861,67,45,0
577.0,577.6528,79,60,0
577.5,577.6528,72,45,0
577.6666,577.81946,60,45,0
577.8333,577.9861,72,45,0
578.0,578.1528,64,45,0
578.1666,578.31946,72,45,0
578.3333,578.4861,65,45,0
578.5,578.6528,72,45,0
578.6666,578.81946,69,45,0
578.8333,578.9861,72,45,0
579.0,579.1528,62,45,0
579.1666,579.31946,74,45,0
579.3333,579.4861,69,45,0
579.5,579.6528,74,45,0
579.6666,579.81946,67,45,0
579.8333,579.9861,74,45,0
580.0,580.1528,71,45,0
580.1666,580.31946,74,45,0
580.3333,580.4028,89,60,0
580.3333,580.4861,67,45,0
580.4166,580.4861,88,60,0
580.5,580.56946,89,60,0
580.5,580.6528,79,45,0
580.5833,580.6528,88,60,0
580.6666,580.7361,89,60,0
580.6666,580.81946,71,45,0
580.75,580.81946,88,60,0
580.8333,580.9028,89,60,0
580.8333,580.9861,79,45,0
580.9166,580.9861,88,60,0
581.0,581.06946,89,60,0
581.0,581.1528,69,45,0
581.0833,581.1528,88,60,0
581.1666,581.2361,89,60,0
581.1666,581.31946,79,45,0
581.25,581.31946,88,60,0
581.3333,581.4028,89,60,0
581.3333,581.4861,72,45,0
581.4166,581.4861,88,60,0
581.5,581.56946,89,60,0
581.5,581.6528,79,45,0
581.5833,581.6528,88,60,0
581.6666,581.7361,89,60,0
581.6666,581.81946,71,45,0
581.75,581.81946,88,60,0
581.8333,581.9028,86,60,0
581.8333,581.9861,74,45,0
581.9166,581.9861,84,60,0
582.0,582.06946,83,60,0
582.0,582.1528,67,45,0
582.0833,582.1528,81,60,0
582.1666,582.2361,79,60,0
582.1666,582.31946,71,45,0
582.25,582.31946,77,60,0
582.3333,582.43054,77,60,0
582.3333,582.4861,60,45,0
582.44446,582.5416,76,60,0
582.5,582.6528,72,45,0
582.55554,582.6528,77,60,0
582.6666,582.76385,79,60,0
582.6666,582.81946,67,45,0
582.7778,582.875,77,60,0
582.8333,582.9861,72,45,0
582.88885,582.9861,76,60,0
583.0,583.0972,76,60,0
583.0,583.1528,62,45,0
583.1111,583.2083,74,60,0
583.1666,583.31946,71,45,0
583.2222,583.31946,76,60,0
583.3333,583.43054,77,60,0
583.3333,583.4861,65,45,0
583.44446,583.5416,76,60,0
583.5,583.6528,71,45,0
583.55554,583.6528,74,60,0
583.6666,583.76385,74,60,0
583.6666,583.81946,64,45,0
583.7778,583.875,72,60,0
583.8333,583.9861,67,45,0
583.88885,583.9861,74,60,0
584.0,584.0972,76,60,0
584.0,584.1528,64,45,0
584.1111,584.2083,74,60,0
584.1666,584.31946,67,45,0
584.2222,584.31946,72,60,0
584.3333,584.4861,65,45,0
584.44446,584.5416,74,60,0
584.5,584.6528,69,45,0
584.55554,584.6528,73,60,0
584.6666,584.76385,74,60,0
584.6666,584.81946,66,45,0
584.7778,584.875,73,60,0
584.8333,584.9861,72,45,0
584.88885,584.9861,74,60,0
585.0,585.0972,67,45,0
585.1111,585.2083,72,45,0
585.2222,585.31946,76,45,0
585.3333,585.43054,76,60,0
585.44446,585.5416,79,60,0
585.55554,585.6528,84,60,0
585.6666,585.76385,67,45,0
585.7778,585.875,72,45,0
585.88885,585.9861,76,45,0
586.0,586.0972,79,60,0
586.1111,586.2083,84,60,0
586.2222,586.31946,88,60,0
586.3333,586.43054,67,45,0
586.44446,586.5416,74,45,0
586.55554,586.6528,77,45,0
586.6666,586.76385,89,60,0
586.7778,586.875,86,60,0
586.88885,586.9861,83,60,0
587.0,587.0972,80,60,0
587.1111,587.2083,79,60,0
587.1111,587.2083,55,45,0
587.2222,587.31946,78,60,0
587.2222,587.31946,56,45,0
587.3333,587.43054,77,60,0
587.3333,587.43054,57,45,0
587.44446,587.5416,76,60,0
587.44446,587.5416,58,45,0
587.55554,587.6528,74,60,0
587.55554,587.6528,59,45,0
587.6666,587.81946,48,45,0
587.6666,587.9861,72,60,0
587.8333,587.9861,60,45,0
588.0,588.1528,59,45,0
588.0,588.31946,79,60,0
588.0,588.31946,88,60,0
588.1666,588.31946,60,45,0
588.3333,588.4861,48,45,0
588.5,588.6528,55,45,0
588.6666,588.81946,54,45,0
588.6666,588.9861,79,60,0
588.6666,588.9861,88,60,0
588.8333,588.9861,55,45,0
589.0,589.1528,48,45,0
589.1666,589.31946,57,45,0
589.3333,589.4861,56,45,0
589.3333,589.6528,77,60,0
589.3333,589.6528,88,60,0
589.5,589.6528,57,45,0
589.6666,589.81946,48,45,0
589.8333,589.9861,59,45,0
590.0,590.1528,58,45,0
590.0,590.31946,77,60,0
590.0,590.31946,86,60,0
590.1666,590.31946,59,45,0
590.3333,590.4861,48,45,0
590.5,590.6528,60,45,0
590.6666,590.81946,59,45,0
590.6666,590.9861,76,60,0
590.6666,590.9861,84,60,0
590.8333,590.9861,60,45,0
591.0,591.1528,48,45,0
591.1666,591.31946,62,45,0
591.3333,591.4861,61,45,0
591.3333,591.6528,77,60,0
591.3333,591.6528,83,60,0
591.5,591.6528,62,45,0
591.6666,591.81946,48,45,0
591.8333,591.9861,64,45,0
592.0,592.1528,63,45,0
592.0,592.1666,79,60,0
592.1666,592.31946,84,60,0
592.1666,592.31946,64,45,0
592.3333,592.4861,48,63,0
592.3333,592.55554,72,84,0
592.3333,592.55554,81,84,0
592.5,592.6528,65,45,0
592.6666,592.81946,48,45,0
592.6666,592.88885,77,60,0
592.6666,592.88885,83,60,0
592.8333,592.9861,62,45,0
593.0,593.1528,76,60,0
593.0,593.1528,84,60,0
593.0,593.1528,48,45,0
593.1666,593.2361,88,60,0
593.1666,593.31946,60,45,0
593.25,593.31946,87,60,0
593.3333,593.4861,59,45,0
593.3333,593.6528,79,60,0
593.3333,593.6528,88,60,0
593.5,593.6528,60,45,0
593.6666,593.81946,48,45,0
593.8333,593.9028,88,60,0
593.8333,593.9861,55,45,0
593.9166,593.9861,87,60,0
594.0,594.1528,54,45,0
594.0,594.31946,79,60,0
594.0,594.31946,88,60,0
594.1666,594.31946,55,45,0
594.3333,594.4861,48,45,0
594.5,594.56946,88,60,0
594.5,594.6528,57,45,0
594.5833,594.6528,87,60,0
594.6666,594.81946,56,45,0
594.6666,594.9861,77,60,0
594.6666,594.9861,88,60,0
594.8333,594.9861,57,45,0
595.0,595.1528,48,45,0
595.1666,595.2361,86,60,0
595.1666,595.31946,59,45,0
595.25,595.31946,85,60,0
595.3333,595.4861,58,45,0
595.3333,595.6528,77,60,0
595.3333,595.6528,86,60,0
595.5,595.6528,59,45,0
595.6666,595.81946,48,45,0
595.8333,595.9028,84,60,0
595.8333,595.9861,60,45,0
595.9166,595.9861,83,60,0
596.0,596.1528,59,45,0
596.0,596.31946,76,60,0
596.0,596.31946,84,60,0
596.1666,596.31946,60,45,0
596.3333,596.4861,48,45,0
596.5,596.56946,83,60,0
596.5,596.6528,62,45,0
596.5833,596.6528,82,60,0
596.6666,596.81946,61,45,0
596.6666,596.9861,77,60,0
596.6666,596.9861,83,60,0
596.8333,596.9861,62,45,0
597.0,597.1528,48,45,0
597.1666,597.2361,84,60,0
597.1666,597.31946,64,45,0
597.25,597.31946,83,60,0
597.3333,597.4861,63,45,0
597.3333,597.6528,79,60,0
597.3333,597.6528,84,60,0
597.5,597.6528,64,45,0
597.6666,597.81946,48,63,0
597.8333,597.9028,74,60,0
597.8333,597.9861,65,45,0
597.9166,597.9861,81,60,0
598.0,598.1528,48,45,0
598.1666,598.2361,77,60,0
598.1666,598.31946,62,45,0
598.25,598.31946,83,60,0
598.3333,598.4861,48,45,0
598.5,598.56946,84,60,0
598.5,598.6528,60,45,0
598.5833,598.6528,83,60,0
598.6666,598.8194,59,45,0
598.6666,598.9861,76,60,0
598.6666,598.9861,84,60,0
598.8333,598.9861,60,45,0
599.0,599.1528,48,63,0
599.1666,599.2361,72,60,0
599.1666,599.3194,65,45,0
599.25,599.3194,81,60,0
599.3333,599.4861,48,45,0
599.5,599.5694,77,60,0
599.5,599.6528,62,45,0
599.5833,599.6528,83,60,0
599.6666,599.8194,48,45,0
599.8333,599.9028,84,60,0
599.8333,599.9861,60,45,0
599.9166,599.9861,83,60,0
600.0,600.1528,59,45,0
600.0,600.3194,76,60,0
600.0,600.3194,84,60,0
600.1666,600.3194,60,45,0
600.3333,600.4861,48,63,0
600.5,600.5694,72,60,0
600.5,600.6528,65,45,0
600.5833,600.6528,81,60,0
600.6666,600.8194,48,45,0
600.8333,600.9028,77,60,0
600.8333,600.9861,62,45,0
600.9166,600.9861,83,60,0
601.0,601.0972,60,45,0
601.1111,601.2083,84,60,0
601.1111,601.2083,76,45,0
601.2222,601.3194,83,60,0
601.2222,601.3194,75,45,0
601.3333,601.43054,84,60,0
601.3333,601.43054,76,45,0
601.4444,601.5416,83,60,0
601.4444,601.5416,75,45,0
601.55554,601.6528,84,60,0
601.55554,601.6528,76,45,0
601.6666,601.76385,60,45,0
601.7778,601.875,82,61,0
601.7778,601.875,74,46,0
601.88885,601.9861,81,62,0
601.88885,601.9861,73,47,0
602.0,602.0972,82,63,0
602.0,602.0972,74,48,0
602.1111,602.2083,81,64,0
602.1111,602.2083,73,49,0
602.2222,602.3194,82,66,0
602.2222,602.3194,74,50,0
602.3333,602.43054,61,51,0
602.4444,602.5416,81,70,0
602.4444,602.5416,72,53,0
602.55554,602.6528,80,72,0
602.55554,602.6528,71,55,0
602.6666,602.76385,81,74,0
602.6666,602.76385,72,57,0
602.7778,602.875,80,76,0
602.7778,602.875,71,59,0
602.88885,602.9861,81,78,0
602.88885,602.9861,72,61,0
603.0,603.0694,58,63,0
603.0833,603.1528,70,64,0
603.1666,603.25,74,83,0
603.25,603.3194,79,84,0
603.3333,603.4028,57,68,0
603.4166,603.4861,69,69,0
603.5,603.5833,72,88,0
603.5833,603.6528,77,90,0
603.6666,603.75,77,60,0
603.75,603.8333,79,60,0
603.6666,603.9861,55,45,0
603.8333,604.0,77,60,0
604.0,604.1528,60,45,0
604.0,604.3194,76,60,0
604.1666,604.3194,70,45,0
604.3333,604.4861,67,45,0
604.5,604.6528,70,45,0
604.6666,604.8194,60,45,0
604.8333,604.9861,70,45,0
605.0,605.1528,67,45,0
605.1666,605.3194,70,45,0
604.3333,605.3333,76,60,0
605.3333,605.4861,60,45,0
605.3333,605.5,77,60,0
605.5,605.6528,70,45,0
605.5,605.6666,76,60,0
605.6666,605.8194,65,45,0
605.6666,605.8333,79,60,0
605.8333,605.9861,69,45,0
605.8333,606.0,77,60,0
606.0,606.1528,60,45,0
606.0,606.1666,76,60,0
606.1666,606.3194,74,60,0
606.1666,606.3194,69,45,0
606.3333,606.4166,74,60,0
606.3333,606.4861,64,45,0
606.4166,606.5,76,60,0
606.5,606.5833,74,60,0
606.5,606.6528,67,45,0
606.5833,606.6666,76,60,0
606.6666,606.8194,60,45,0
606.6666,606.9861,72,60,0
606.8333,606.9861,67,45,0
607.0,607.1528,64,45,0
607.1666,607.3194,67,45,0
607.3333,607.4861,60,45,0
607.5,607.6528,67,45,0
607.6666,607.8194,64,45,0
607.8333,607.9861,67,45,0
607.0,608.1111,72,60,0
608.0,608.1528,60,45,0
608.1666,608.3194,67,45,0
608.3333,608.4028,74,60,0
608.3333,608.4861,65,45,0
608.4166,608.4861,76,60,0
608.5,608.5694,74,60,0
608.5,608.6528,69,45,0
608.5833,608.6528,76,60,0
608.6666,608.7361,74,60,0
608.6666,608.8194,60,45,0
608.75,608.8194,76,60,0
608.8333,608.9028,74,60,0
608.8333,608.9861,69,45,0
608.9166,608.9861,76,60,0
609.0,609.0694,76,60,0
609.0,609.1528,67,45,0
609.0833,609.1528,77,60,0
609.1666,609.2361,76,60,0
609.1666,609.3194,70,45,0
609.25,609.3194,77,60,0
609.3333,609.4028,76,60,0
609.3333,609.4861,60,45,0
609.4166,609.4861,77,60,0
609.5,609.5694,76,60,0
609.5,609.6528,70,45,0
609.5833,609.6528,77,60,0
609.6666,609.7361,74,60,0
609.6666,609.8194,65,45,0
609.75,609.8194,76,60,0
609.8333,609.9028,74,60,0
609.8333,609.9861,69,45,0
609.9166,609.9861,76,60,0
610.0,610.0694,74,60,0
610.0,610.1528,60,45,0
610.0833,610.1528,76,60,0
610.1666,610.2361,74,60,0
610.1666,610.3194,69,45,0
610.25,610.3194,76,60,0
610.3333,610.4028,76,60,0
610.3333,610.4861,67,45,0
610.4166,610.4861,77,60,0
610.5,610.5694,76,60,0
610.5,610.6528,70,45,0
610.5833,610.6528,77,60,0
610.6666,610.7361,76,60,0
610.6666,610.8194,60,45,0
610.75,610.8194,77,60,0
610.8333,610.9028,76,60,0
610.8333,610.9861,70,45,0
610.9166,610.9861,77,60,0
611.0,611.0694,77,60,0
611.0,611.1528,69,45,0
611.0833,611.1528,79,60,0
611.1666,611.2361,77,60,0
611.1666,611.3194,72,45,0
611.25,611.3194,79,60,0
611.3333,611.4028,77,60,0
611.3333,611.4861,60,45,0
611.4166,611.4861,79,60,0
611.5,611.5694,77,60,0
611.5,611.6528,72,45,0
611.5833,611.6528,79,60,0
611.6666,611.7361,78,60,0
611.6666,611.8194,70,45,0
611.75,611.8194,79,60,0
611.8333,611.9028,78,60,0
611.8333,611.9861,72,45,0
611.9166,611.9861,79,60,0
612.0,612.0694,78,60,0
612.0,612.1528,60,45,0
612.0833,612.1528,79,60,0
612.1666,612.2361,78,60,0
612.1666,612.3194,72,45,0
612.25,612.3194,79,60,0
612.3333,612.4028,79,60,0
612.3333,612.4861,70,45,0
612.4166,612.4861,81,60,0
612.5,612.5694,79,60,0
612.5,612.6528,72,45,0
612.5833,612.6528,81,60,0
612.6666,612.7361,79,60,0
612.6666,612.8194,60,45,0
612.75,612.8194,81,60,0
612.8333,612.9028,79,60,0
612.8333,612.9861,72,45,0
612.9166,612.9861,81,60,0
613.0,613.0694,79,60,0
613.0,613.1528,70,45,0
613.0833,613.1528,81,60,0
613.1666,613.2361,79,60,0
613.1666,613.3194,72,45,0
613.25,613.3194,81,60,0
613.3333,613.4028,79,60,0
613.3333,613.4861,62,45,0
613.4166,613.4861,81,60,0
613.5,613.5694,79,60,0
613.5,613.6528,72,45,0
613.5833,613.6528,81,60,0
613.6666,613.7361,80,60,0
613.6666,613.8194,64,45,0
613.75,613.8194,81,60,0
613.8333,613.9028,80,60,0
613.8333,613.9861,72,45,0
613.9166,613.9861,81,60,0
614.0,614.0694,80,60,0
614.0,614.1528,70,45,0
614.0833,614.1528,81,60,0
614.1666,614.2361,80,60,0
614.1666,614.3194,72,45,0
614.25,614.3194,81,60,0
614.3333,614.4028,81,60,0
614.3333,614.4861,65,45,0
614.4166,614.4861,82,60,0
614.5,614.5694,81,60,0
614.5,614.6528,77,45,0
614.5833,614.6528,82,60,0
614.6666,614.7361,81,60,0
614.6666,614.8194,72,45,0
614.75,614.8194,82,60,0
614.8333,614.9028,81,60,0
614.8333,614.9861,69,45,0
614.9166,614.9861,82,60,0
615.0,615.0694,89,60,0
615.0,615.1528,65,45,0
615.0833,615.1528,88,60,0
615.1666,615.2361,89,60,0
615.1666,615.3194,77,45,0
615.25,615.3194,88,60,0
615.3333,615.4028,89,60,0
615.3333,615.4861,69,45,0
615.4166,615.4861,88,60,0
615.5,615.5694,89,60,0
615.5,615.6528,77,45,0
615.5833,615.6528,88,60,0
615.6666,615.7361,89,60,0
615.6666,615.8194,67,45,0
615.75,615.8194,88,60,0
615.8333,615.9028,89,60,0
615.8333,615.9861,77,45,0
615.9166,615.9861,88,60,0
616.0,616.0694,89,60,0
616.0,616.1528,70,45,0
616.0833,616.1528,88,60,0
616.1666,616.2361,89,60,0
616.1666,616.3194,77,45,0
616.25,616.3194,88,60,0
616.3333,616.4028,89,60,0
616.3333,616.4861,69,45,0
616.4166,616.4861,88,60,0
616.5,616.5694,89,60,0
616.5,616.6528,77,45,0
616.5833,616.6528,88,60,0
616.6666,616.7361,89,60,0
616.6666,616.8194,72,45,0
616.75,616.8194,88,60,0
616.8333,616.9028,89,60,0
616.8333,616.9861,77,45,0
616.9166,616.9861,85,60,0
617.0,617.0694,86,60,0
617.0,617.1528,70,45,0
617.0833,617.1528,88,60,0
617.1666,617.2361,86,60,0
617.1666,617.3194,77,45,0
617.25,617.3194,88,60,0
617.3333,617.4028,86,60,0
617.3333,617.4861,74,45,0
617.4166,617.4861,88,60,0
617.5,617.5694,86,60,0
617.5,617.6528,77,45,0
617.5833,617.6528,88,60,0
617.6666,617.7361,86,60,0
617.6666,617.8194,67,45,0
617.75,617.8194,88,60,0
617.8333,617.9028,86,60,0
617.8333,617.9861,79,45,0
617.9166,617.9861,88,60,0
618.0,618.0694,86,60,0
618.0,618.1528,70,45,0
618.0833,618.1528,88,60,0
618.1666,618.2361,86,60,0
618.1666,618.3194,79,45,0
618.25,618.3194,88,60,0
618.3333,618.4028,86,60,0
618.3333,618.4861,69,45,0
618.4166,618.4861,88,60,0
618.5,618.5694,86,60,0
618.5,618.6528,79,45,0
618.5833,618.6528,88,60,0
618.6666,618.7361,86,60,0
618.6666,618.8194,72,45,0
618.75,618.8194,88,60,0
618.8333,618.9028,86,60,0
618.8333,618.9861,79,45,0
618.9166,618.9861,88,60,0
619.0,619.0416,86,60,0
619.05554,619.0972,88,60,0
619.0,619.1528,70,45,0
619.1111,619.2083,86,60,0
619.1666,619.3194,74,45,0
619.2222,619.3194,84,60,0
619.3333,619.43054,82,60,0
619.3333,619.4861,67,45,0
619.4444,619.5416,81,60,0
619.5,619.6528,74,45,0
619.55554,619.6528,79,60,0
619.6666,619.76385,77,60,0
619.6666,619.8194,60,45,0
619.7778,619.875,76,60,0
619.8333,619.9861,70,46,0
619.88885,619.9861,79,60,0
620.0,620.0972,77,60,0
620.0,620.1528,67,47,0
620.1111,620.2083,81,60,0
620.1666,620.3194,70,48,0
620.2222,620.3194,79,61,0
620.3333,620.43054,82,61,0
620.3333,620.4861,60,49,0
620.4444,620.5416,81,62,0
620.5,620.6528,70,50,0
620.55554,620.6528,84,63,0
620.6666,620.76385,82,64,0
620.6666,620.8194,67,51,0
620.7778,620.875,86,65,0
620.8333,620.9861,70,52,0
620.88885,620.9861,84,66,0
621.0,621.0972,82,67,0
621.0,621.1528,60,53,0
621.1111,621.2083,81,68,0
621.1666,621.3194,70,54,0
621.2222,621.3194,79,69,0
621.3333,621.43054,77,70,0
621.3333,621.4861,67,55,0
621.4444,621.5416,76,71,0
621.5,621.6528,70,56,0
621.55554,621.6528,74,72,0
621.6666,621.76385,72,73,0
621.6666,621.8194,60,57,0
621.7778,621.875,71,74,0
621.8333,621.9861,70,58,0
621.88885,621.9861,72,75,0
622.0,622.0972,73,76,0
622.0,622.1528,67,59,0
622.1111,622.2083,74,77,0
622.1666,622.3194,70,60,0
622.2222,622.3194,75,78,0
622.3333,622.43054,76,79,0
622.3333,622.4861,65,61,0
622.4444,622.5416,77,80,0
622.5,622.6528,70,62,0
622.55554,622.6528,78,81,0
622.6666,622.76385,79,82,0
622.6666,622.8194,67,63,0
622.7778,622.875,80,83,0
622.8333,622.9861,70,65,0
622.88885,622.9861,81,84,0
623.0,623.0972,82,85,0
623.0,623.1528,60,67,0
623.1111,623.2083,83,86,0
623.1666,623.3194,70,69,0
623.2222,623.3194,84,87,0
623.3333,623.4028,85,88,0
623.3333,623.4861,67,71,0
623.4166,623.4861,86,89,0
623.5,623.5694,87,90,0
623.5,623.6528,70,73,0
623.5833,623.6528,88,91,0
623.6666,624.3194,89,92,0
623.6666,624.3194,65,75,0
623.6666,624.3194,69,75,0
624.3333,624.4861,65,45,0
624.5,624.6528,72,45,0
624.6666,624.8194,69,45,0
624.8333,624.9861,72,45,0
625.0,625.1528,64,45,0
625.1666,625.3194,72,45,0
625.3333,625.4861,67,45,0
625.5,625.6528,72,45,0
625.6666,625.8194,60,45,0
625.6666,625.8333,84,60,0
625.8333,625.9861,72,45,0
625.8333,626.0,83,60,0
626.0,626.1528,64,45,0
626.0,626.1666,84,60,0
626.1666,626.3194,79,60,0
626.1666,626.3194,72,45,0
626.3333,626.4861,65,45,0
626.5,626.6528,72,45,0
626.6666,626.8194,69,45,0
626.3333,626.9861,81,60,0
626.8333,626.9861,72,45,0
627.0,627.1528,65,45,0
627.1666,627.3194,72,45,0
627.3333,627.4861,69,45,0
627.5,627.6528,72,45,0
627.6666,627.8194,64,45,0
627.8333,627.9861,72,45,0
628.0,628.1528,67,45,0
628.1666,628.3194,72,45,0
628.3333,628.43054,84,60,0
628.3333,628.4861,60,45,0
628.4444,628.5416,86,60,0
628.5,628.6528,72,45,0
628.55554,628.6528,84,60,0
628.6666,628.76385,83,60,0
628.6666,628.8194,64,45,0
628.7778,628.875,84,60,0
628.8333,628.9861,72,45,0
628.88885,628.9861,79,60,0
629.0,629.1528,65,45,0
629.1666,629.3194,72,45,0
629.3333,629.4861,69,45,0
629.0,629.6528,81,60,0
629.5,629.6528,72,45,0
629.6666,629.76385,81,60,0
629.6666,629.8194,62,45,0
629.7778,629.875,89,60,0
629.8333,629.9861,74,45,0
629.88885,629.9861,88,60,0
630.0,630.09717,89,60,0
630.0,630.1528,69,45,0
630.1111,630.2083,88,60,0
630.1666,630.3194,74,45,0
630.22217,630.3194,89,60,0
630.3333,630.4861,67,45,0
630.5,630.6528,79,45,0
630.6666,630.8194,74,45,0
630.3333,630.9861,83,60,0
630.8333,630.9861,71,45,0
631.0,631.3194,67,45,0
631.1666,631.3194,83,60,0
631.3333,631.6528,79,45,0
631.5,631.6528,83,60,0
631.6666,631.9861,69,45,0
631.8333,631.9861,84,60,0
632.0,632.3194,81,45,0
632.1666,632.3194,84,60,0
632.3333,632.6528,71,45,0
632.5,632.6528,86,60,0
632.6666,632.9861,83,45,0
632.8333,632.9861,86,60,0
633.0,633.3194,60,45,0
633.1666,633.3194,79,60,0
633.1666,633.3194,88,60,0
633.3333,633.6528,72,45,0
633.5,633.6528,79,60,0
633.5,633.6528,88,60,0
633.6666,633.9861,62,45,0
633.8333,633.9861,77,60,0
633.8333,633.9861,79,60,0
633.8333,633.9861,83,60,0
634.0,634.3194,74,45,0
634.1666,634.3194,77,60,0
634.1666,634.3194,79,60,0
634.1666,634.3194,83,60,0
634.3333,634.6528,64,45,0
634.5,634.6528,79,60,0
634.5,634.6528,84,60,0
634.6666,634.9861,76,45,0
634.8333,634.9861,79,60,0
634.8333,634.9861,84,60,0
635.0,635.1528,65,45,0
635.1666,635.3194,81,60,0
635.1666,635.3194,84,60,0
635.1666,635.3194,77,45,0
635.3333,635.4861,66,45,0
635.5,635.6528,81,60,0
635.5,635.6528,84,60,0
635.5,635.6528,78,45,0
635.6666,635.9861,67,45,0
635.8333,635.9861,76,60,0
635.8333,635.9861,84,60,0
636.0,636.3194,79,45,0
636.1666,636.3194,76,60,0
636.1666,636.3194,84,60,0
636.3333,636.6528,55,45,0
636.5,636.6528,72,60,0
636.5,636.6528,76,60,0
636.6666,636.9861,67,45,0
636.8333,636.9861,72,60,0
636.8333,636.9861,76,60,0
637.0,637.3194,55,45,0
637.1666,637.3194,71,60,0
637.1666,637.3194,77,60,0
637.3333,637.6528,67,45,0
637.5,637.6528,68,60,0
637.5,637.6528,71,60,0
637.6666,637.9861,55,45,0
637.8333,637.9861,67,60,0
637.8333,637.9861,71,60,0
638.0,638.3194,67,45,0
638.1666,638.3194,65,60,0
638.1666,638.3194,71,60,0
638.3333,638.6528,48,45,0
638.5,638.6528,64,60,0
638.5,638.6528,72,60,0
638.6666,638.9861,60,45,0
638.8333,638.9861,72,60,0
639.0,639.3194,48,45,0
639.1666,639.3194,67,60,0
639.3333,639.6528,55,45,0
639.5,639.6528,67,60,0
639.6666,639.9861,48,45,0
639.8333,639.9861,69,60,0
640.0,640.3194,57,45,0
640.1666,640.3194,69,60,0
640.3333,640.6528,48,45,0
640.5,640.6528,71,60,0
640.6666,640.9861,59,45,0
640.8333,640.9861,71,60,0
641.0,641.3194,48,45,0
641.1666,641.3194,72,60,0
641.3333,641.6528,60,45,0
641.5,641.6528,72,60,0
641.6666,641.9861,48,45,0
641.8333,641.9861,74,60,0
642.0,642.3194,62,45,0
642.1666,642.3194,74,60,0
642.3333,642.6528,48,45,0
642.5,642.6528,76,60,0
642.6666,642.9861,64,45,0
642.8333,642.9861,76,60,0
643.0,643.1528,48,63,0
643.1666,643.3194,77,60,0
643.1666,643.3194,65,45,0
643.3333,643.4861,48,45,0
643.5,643.6528,74,60,0
643.5,643.6528,62,45,0
643.6666,643.76385,48,45,0
643.7778,643.875,72,60,0
643.7778,643.875,60,45,0
643.88885,643.9861,71,60,0
643.88885,643.9861,59,45,0
644.0,644.09717,72,60,0
644.0,644.09717,60,45,0
644.1111,644.2083,71,60,0
644.1111,644.2083,59,45,0
644.22217,644.3194,72,60,0
644.22217,644.3194,60,45,0
644.3333,644.43054,48,45,0
644.4444,644.5416,67,60,0
644.4444,644.5416,55,45,0
644.55554,644.6528,66,60,0
644.55554,644.6528,54,45,0
644.6666,644.76385,67,60,0
644.6666,644.76385,55,45,0
644.7778,644.875,66,60,0
644.7778,644.875,54,45,0
644.88885,644.9861,67,60,0
644.88885,644.9861,55,45,0
645.0,645.09717,48,45,0
645.1111,645.2083,69,60,0
645.1111,645.2083,57,45,0
645.22217,645.3194,68,60,0
645.22217,645.3194,56,45,0
645.3333,645.43054,69,60,0
645.3333,645.43054,57,45,0
645.4444,645.5416,68,60,0
645.4444,645.5416,56,45,0
645.55554,645.6528,69,60,0
645.55554,645.6528,57,45,0
645.6666,645.76385,48,45,0
645.7778,645.875,71,60,0
645.7778,645.875,59,45,0
645.88885,645.9861,58,45,0
645.88885,645.9861,70,60,0
646.0,646.09717,71,60,0
646.0,646.09717,59,45,0
646.1111,646.2083,70,60,0
646.1111,646.2083,58,45,0
646.22217,646.3194,71,60,0
646.22217,646.3194,59,45,0
646.3333,646.43054,48,45,0
646.4444,646.5416,72,60,0
646.4444,646.5416,60,45,0
646.55554,646.6528,71,60,0
646.55554,646.6528,59,45,0
646.6666,646.76385,72,60,0
646.6666,646.76385,60,45,0
646.7778,646.875,71,60,0
646.7778,646.875,59,45,0
646.88885,646.9861,72,60,0
646.88885,646.9861,60,45,0
647.0,647.09717,48,45,0
647.1111,647.2083,74,60,0
647.1111,647.2083,62,45,0
647.22217,647.3194,73,60,0
647.22217,647.3194,61,45,0
647.3333,647.43054,74,60,0
647.3333,647.43054,62,45,0
647.4444,647.5416,73,60,0
647.4444,647.5416,61,45,0
647.55554,647.6528,74,60,0
647.55554,647.6528,62,45,0
647.6666,647.76385,48,45,0
647.7778,647.875,76,60,0
647.7778,647.875,64,45,0
647.88885,647.9861,75,60,0
647.88885,647.9861,63,45,0
648.0,648.09717,76,60,0
648.0,648.09717,64,45,0
648.1111,648.2083,75,60,0
648.1111,648.2083,63,45,0
648.22217,648.3194,76,60,0
648.22217,648.3194,64,45,0
648.3333,648.4861,48,63,0
648.5,648.6528,77,60,0
648.5,648.6528,65,45,0
648.6666,648.8194,48,45,0
648.8333,648.9861,74,60,0
648.8333,648.9861,62,45,0
649.0,649.09717,48,45,0
649.1111,649.2083,72,60,0
649.1111,649.2083,60,45,0
649.22217,649.3194,71,60,0
649.22217,649.3194,59,45,0
649.3333,649.43054,72,60,0
649.3333,649.43054,60,45,0
649.4444,649.5416,71,60,0
649.4444,649.5416,59,45,0
649.55554,649.6528,72,60,0
649.55554,649.6528,60,45,0
649.6666,649.8194,48,63,0
649.8333,649.9861,77,60,0
649.8333,649.9861,65,45,0
650.0,650.1528,48,45,0
650.1666,650.3194,74,60,0
650.1666,650.3194,62,45,0
650.3333,650.43054,48,45,0
650.4444,650.5416,72,60,0
650.4444,650.5416,60,45,0
650.55554,650.6528,71,60,0
650.55554,650.6528,59,45,0
650.6666,650.76385,72,60,0
650.6666,650.76385,60,45,0
650.7778,650.875,71,60,0
650.7778,650.875,59,45,0
650.88885,650.9861,72,60,0
650.88885,650.9861,60,45,0
651.0,651.1528,48,63,0
651.1666,651.3194,77,60,0
651.1666,651.3194,65,45,0
651.3333,651.4861,48,45,0
651.5,651.6528,74,60,0
651.5,651.6528,62,45,0
651.7778,651.875,76,60,0
651.6666,651.9861,60,45,0
651.88885,651.9861,79,60,0
652.0,652.09717,83,60,0
652.1111,652.2083,84,60,0
652.22217,652.3194,79,60,0
652.22217,652.3194,76,47,0
652.4444,652.5416,77,60,0
652.3333,652.6528,74,47,0
652.55554,652.6528,79,60,0
652.6666,652.76385,81,60,0
652.7778,652.875,82,60,0
652.88885,652.9861,77,60,0
652.88885,652.9861,62,49,0
653.1111,653.2083,76,60,0
653.0,653.3194,60,49,0
653.22217,653.3194,77,60,0
653.3333,653.43054,80,60,0
653.4444,653.5416,81,60,0
653.55554,653.6528,76,60,0
653.55554,653.6528,72,53,0
653.6666,653.74994,58,54,0
653.74994,653.8194,70,54,0
653.8333,653.9028,74,60,0
653.9166,653.9861,79,60,0
653.99994,654.0833,57,55,0
654.0833,654.1528,69,55,0
654.1666,654.2361,72,61,0
654.24994,654.3194,77,61,0
654.3333,654.6528,55,56,0
654.49994,654.6528,70,62,0
654.49994,654.6528,72,62,0
654.49994,654.6528,76,62,0
654.6666,654.9861,60,59,0
654.8333,654.9861,70,64,0
654.8333,654.9861,72,64,0
654.8333,654.9861,76,64,0
654.99994,655.3194,67,63,0
655.1666,655.3194,70,66,0
655.1666,655.3194,72,66,0
655.1666,655.3194,76,66,0
655.3333,655.6528,60,67,0
655.49994,655.6528,70,68,0
655.49994,655.6528,72,68,0
655.49994,655.6528,76,68,0
655.6666,655.9861,67,71,0
655.8333,655.9861,70,70,0
655.8333,655.9861,72,70,0
655.8333,655.9861,76,70,0
655.99994,656.3194,60,75,0
656.1666,656.3194,70,73,0
656.1666,656.3194,72,73,0
656.1666,656.3194,76,73,0
656.3333,656.6528,65,75,0
656.49994,656.6528,69,75,0
656.49994,656.6528,72,75,0
656.49994,656.6528,74,75,0
656.6666,656.9861,60,60,0
656.8333,656.9861,69,65,0
656.8333,656.9861,72,65,0
656.8333,656.9861,74,65,0
656.99994,657.3194,64,45,0
657.1666,657.3194,67,45,0
657.1666,657.3194,72,45,0
657.3333,657.6528,60,45,0
657.49994,657.6528,67,45,0
657.49994,657.6528,72,45,0
657.6666,657.9861,64,45,0
657.8333,657.9861,67,45,0
657.8333,657.9861,72,45,0
657.99994,658.3194,60,45,0
658.1666,658.3194,67,45,0
658.1666,658.3194,72,45,0
658.3333,658.6528,64,45,0
658.49994,658.6528,67,45,0
658.49994,658.6528,72,45,0
658.6666,658.9861,60,45,0
658.8333,658.9861,67,45,0
658.8333,658.9861,72,45,0
658.99994,659.3194,66,45,0
659.1666,659.3194,69,45,0
659.1666,659.3194,72,45,0
659.1666,659.3194,74,45,0
659.3333,659.6528,60,45,0
659.49994,659.6528,69,45,0
659.49994,659.6528,72,45,0
659.49994,659.6528,74,45,0
659.6666,659.9861,67,45,0
659.8333,659.9861,70,45,0
659.8333,659.9861,72,45,0
659.8333,659.9861,76,45,0
659.99994,660.3194,60,45,0
660.1666,660.3194,70,45,0
660.1666,660.3194,72,45,0
660.1666,660.3194,76,45,0
660.3333,660.6528,66,45,0
660.49994,660.6528,69,45,0
660.49994,660.6528,72,45,0
660.49994,660.6528,74,45,0
660.6666,660.9861,60,45,0
660.8333,660.9861,69,45,0
660.8333,660.9861,72,45,0
660.8333,660.9861,74,45,0
660.99994,661.3194,67,45,0
661.1666,661.3194,70,45,0
661.1666,661.3194,72,45,0
661.1666,661.3194,76,45,0
661.3333,661.6528,60,45,0
661.49994,661.6528,70,45,0
661.49994,661.6528,72,45,0
661.49994,661.6528,76,45,0
661.6666,661.9861,69,45,0
661.8333,661.9861,72,45,0
661.8333,661.9861,77,45,0
661.99994,662.3194,60,45,0
662.1666,662.3194,72,45,0
662.1666,662.3194,77,45,0
662.3333,662.6528,70,45,0
662.49994,662.6528,72,45,0
662.49994,662.6528,75,45,0
662.49994,662.6528,78,45,0
662.6666,662.9861,60,45,0
662.8333,662.9861,72,45,0
662.8333,662.9861,75,45,0
662.8333,662.9861,78,45,0
662.99994,663.3194,70,45,0
663.1666,663.3194,72,45,0
663.1666,663.3194,76,45,0
663.1666,663.3194,79,45,0
663.3333,663.6528,60,45,0
663.49994,663.6528,72,45,0
663.49994,663.6528,76,45,0
663.49994,663.6528,79,45,0
663.6666,663.9861,62,45,0
663.8333,663.9861,72,45,0
663.8333,663.9861,79,45,0
663.99994,664.3194,70,45,0
664.1666,664.3194,72,45,0
664.1666,664.3194,79,45,0
664.3333,664.6528,64,45,0
664.49994,664.6528,72,45,0
664.49994,664.6528,80,45,0
664.6666,664.9861,70,45,0
664.8333,664.9861,72,45,0
664.8333,664.9861,80,45,0
664.99994,665.3194,65,45,0
665.1666,665.3194,72,45,0
665.1666,665.3194,81,45,0
665.3333,665.6528,77,45,0
665.49994,665.6528,81,45,0
665.6666,665.9861,65,45,0
665.8333,665.9861,81,45,0
665.99994,666.3194,77,45,0
666.1666,666.3194,81,45,0
666.3333,666.6528,67,45,0
666.49994,666.6528,82,45,0
666.6666,666.9861,79,45,0
666.8333,666.9861,82,45,0
666.99994,667.3194,69,45,0
667.1666,667.3194,84,45,0
667.3333,667.6528,81,45,0
667.49994,667.6528,84,45,0
667.6666,667.9861,70,45,0
667.8333,667.9861,86,45,0
667.99994,668.3194,82,45,0
668.1666,668.3194,86,45,0
668.3333,668.6528,67,45,0
668.49994,668.6528,82,45,0
668.6666,668.9861,79,45,0
668.8333,668.9861,82,45,0
668.99994,669.3194,69,45,0
669.1666,669.3194,84,45,0
669.3333,669.6528,81,45,0
669.49994,669.6528,84,45,0
669.6666,669.9861,70,45,0
669.8333,669.9861,86,45,0
669.99994,670.3194,82,45,0
670.1666,670.3194,86,45,0
670.3333,670.4861,60,45,0
670.49994,670.6528,79,45,0
670.49994,670.6528,82,45,0
670.49994,670.6528,72,45,0
670.6666,670.8194,61,45,0
670.8333,670.9861,79,45,0
670.8333,670.9861,82,45,0
670.8333,670.9861,73,45,0
670.99994,671.1528,60,45,0
671.1666,671.3194,79,45,0
671.1666,671.3194,82,45,0
671.1666,671.3194,72,45,0
671.3333,671.4861,61,45,0
671.49994,671.6528,79,45,0
671.49994,671.6528,82,45,0
671.49994,671.6528,73,45,0
671.6666,671.9861,60,45,0
671.8333,671.9861,79,45,0
671.8333,671.9861,82,45,0
671.99994,672.3194,72,45,0
672.1666,672.3194,79,45,0
672.1666,672.3194,82,45,0
672.3333,672.6528,60,45,0
672.49994,672.6528,79,45,0
672.49994,672.6528,82,45,0
672.6666,672.9861,72,45,0
672.8333,672.9861,79,45,0
672.8333,672.9861,82,45,0
672.99994,673.3194,65,45,0
673.1666,673.3194,76,45,0
673.1666,673.3194,82,45,0
673.1666,673.3194,84,45,0
673.3333,673.6528,72,45,0
673.49994,673.6528,76,45,0
673.49994,673.6528,82,45,0
673.49994,673.6528,84,45,0
673.6666,673.9861,60,45,0
673.8333,673.9861,76,45,0
673.8333,673.9861,82,45,0
673.8333,673.9861,84,45,0
673.99994,674.3194,72,45,0
674.1666,674.3194,76,45,0
674.1666,674.3194,82,45,0
674.1666,674.3194,84,45,0
674.3333,674.4861,77,60,0
674.3333,674.4861,81,60,0
674.3333,674.4861,84,60,0
674.49994,674.6528,60,60,0
674.6666,674.8194,62,60,0
674.3333,674.9861,65,45,0
674.8333,674.9861,60,60,0
674.99994,675.09717,59,60,0
675.1111,675.2083,60,60,0
675.22217,675.3194,62,60,0
675.3333,675.43054,64,60,0
675.4444,675.5416,65,60,0
675.55554,675.6528,67,60,0
675.6666,676.99994,57,60,0
675.6666,676.99994,65,60,0
675.6666,676.99994,69,60,0
675.6666,676.99994,41,45,0
675.6666,676.99994,53,45,0
675.6666,678.1111,60,60,0
675.6666,678.1111,48,45,0
676.99994,678.1111,58,60,0
676.99994,678.1111,64,60,0
676.99994,678.1111,67,60,0
676.99994,678.1111,43,45,0
676.99994,678.1111,55,45,0
678.3333,680.1111,65,60,0
678.3333,680.6666,60,45,0
678.3333,680.6666,45,45,0
678.3333,680.6666,53,45,0
678.3333,680.6666,57,45,0
680.3333,680.9861,64,60,0
680.99994,681.9791,62,60,0
680.99994,681.9791,46,45,0
680.99994,681.9791,55,45,0
680.99994,681.9791,58,45,0
682.99994,683.9791,38,45,0
681.99994,684.2291,74,60,0
684.24994,684.4791,74,60,0
684.49994,684.7291,75,60,0
683.99994,684.9791,57,45,0
683.99994,684.9791,60,45,0
683.99994,684.9791,66,45,0
684.74994,684.9791,74,60,0
684.99994,685.6458,77,60,0
685.6666,686.31244,75,60,0
686.3333,686.9791,74,60,0
686.99994,687.6458,72,60,0
687.6666,688.31244,70,60,0
688.3333,688.9791,69,60,0
689.99994,690.4791,62,45,0
688.99994,690.7291,72,60,0
690.49994,690.9791,66,45,0
690.74994,692.4687,58,60,0
690.74994,692.4687,43,45,0
690.8333,692.4687,62,60,0
690.8333,692.4687,50,45,0
690.9166,692.4687,67,60,0
690.9166,692.4687,55,45,0
690.99994,692.4687,70,60,0
693.49994,695.1666,55,60,0
693.49994,695.1666,58,60,0
693.49994,695.1666,62,60,0
693.49994,695.1666,31,45,0
693.49994,695.1666,43,45,0
695.49994,697.1666,54,60,0
695.49994,697.1666,60,60,0
695.49994,697.1666,62,60,0
695.49994,697.1666,33,45,0
695.49994,697.1666,45,45,0
697.49994,700.99994,55,60,0
697.49994,700.99994,62,60,0
697.49994,700.99994,34,45,0
697.49994,700.99994,46,45,0
701.49994,703.1666,55,75,0
701.49994,703.1666,62,75,0
701.49994,703.1666,67,75,0
701.49994,703.1666,35,60,0
701.49994,703.1666,47,60,0
703.49994,703.5694,31,75,0
703.5833,703.6527,43,75,0
703.6666,703.7361,47,75,0
703.74994,703.8194,50,75,0
703.8333,704.8194,55,75,0
703.9166,704.8194,59,75,0
703.99994,704.8194,62,75,0
704.0833,704.8194,65,75,0
707.49994,707.7343,55,60,0
707.49994,707.7343,60,60,0
707.49994,707.7343,64,60,0
707.49994,707.7343,36,45,0
707.49994,707.7343,48,45,0
707.74994,707.9843,60,60,0
707.74994,707.9843,48,45,0
707.99994,708.2343,60,60,0
707.99994,708.2343,48,45,0
708.24994,708.49994,59,60,0
708.24994,708.49994,47,45,0
708.49994,708.664,60,60,0
708.49994,708.664,48,45,0
708.74994,708.914,60,60,0
708.74994,708.914,48,45,0
708.99994,709.24994,59,60,0
708.99994,709.24994,47,45,0
709.24994,709.414,60,60,0
709.24994,709.414,48,45,0
709.49994,709.664,60,60,0
709.49994,709.664,48,45,0
709.74994,709.914,57,60,0
709.74994,709.914,45,45,0
709.99994,710.164,60,60,0
709.99994,710.164,48,45,0
710.24994,710.414,65,60,0
710.24994,710.414,53,45,0
710.49994,710.664,55,60,0
710.49994,710.664,43,45,0
710.74994,710.914,58,60,0
710.74994,710.914,46,45,0
710.99994,711.164,64,60,0
710.99994,711.164,52,45,0
711.24994,711.414,55,60,0
711.24994,711.414,43,45,0
711.49994,711.664,58,60,0
711.49994,711.664,46,45,0
711.74994,711.914,64,60,0
711.74994,711.914,52,45,0
711.99994,712.164,55,60,0
711.99994,712.164,43,45,0
712.24994,712.414,58,60,0
712.24994,712.414,46,45,0
712.49994,712.664,64,60,0
712.49994,712.664,52,45,0
712.74994,712.914,53,60,0
712.74994,712.914,41,45,0
712.99994,713.164,58,60,0
712.99994,713.164,46,45,0
713.24994,713.414,62,60,0
713.24994,713.414,50,45,0
713.49994,713.664,52,60,0
713.49994,713.664,40,45,0
713.74994,713.914,58,60,0
713.74994,713.914,46,45,0
713.99994,714.164,60,60,0
713.99994,714.164,48,45,0
714.24994,714.414,52,60,0
714.24994,714.414,40,45,0
714.49994,714.664,58,60,0
714.49994,714.664,46,45,0
714.74994,714.914,60,60,0
714.74994,714.914,48,45,0
714.99994,715.164,52,60,0
714.99994,715.164,40,45,0
715.24994,715.414,58,60,0
715.24994,715.414,46,45,0
715.49994,715.664,60,60,0
715.49994,715.664,48,45,0
715.74994,715.914,53,60,0
715.74994,715.914,41,45,0
715.99994,716.164,58,60,0
715.99994,716.164,46,45,0
716.24994,716.414,62,60,0
716.24994,716.414,50,45,0
716.49994,716.664,55,60,0
716.49994,716.664,43,45,0
716.74994,716.914,58,60,0
716.74994,716.914,46,45,0
716.99994,717.164,64,60,0
716.99994,717.164,52,45,0
717.24994,717.414,53,60,0
717.24994,717.414,41,45,0
717.49994,717.664,58,60,0
717.49994,717.664,46,45,0
717.74994,717.914,62,60,0
717.74994,717.914,50,45,0
717.99994,718.164,55,60,0
717.99994,718.164,43,45,0
718.24994,718.414,58,60,0
718.24994,718.414,46,45,0
718.49994,718.664,64,60,0
718.49994,718.664,52,45,0
718.74994,718.914,57,60,0
718.74994,718.914,45,45,0
718.99994,719.164,60,60,0
718.99994,719.164,48,45,0
719.24994,719.414,65,60,0
719.24994,719.414,53,45,0
719.49994,719.664,57,60,0
719.49994,719.664,45,45,0
719.74994,719.914,63,60,0
719.74994,719.914,48,45,0
719.99994,720.164,66,60,0
719.99994,720.164,54,45,0
720.24994,720.414,57,60,0
720.24994,720.414,45,45,0
720.49994,720.664,63,60,0
720.49994,720.664,48,45,0
720.74994,720.914,66,60,0
720.74994,720.914,54,45,0
720.99994,721.164,58,60,0
720.99994,721.164,46,45,0
721.24994,721.414,64,60,0
721.24994,721.414,48,45,0
721.49994,721.664,66,60,0
721.49994,721.664,55,45,0
721.74994,721.914,58,60,0
721.74994,721.914,40,45,0
721.99994,722.164,64,60,0
721.99994,722.164,48,45,0
722.24994,722.414,68,60,0
722.24994,722.414,52,45,0
722.49994,722.664,57,60,0
722.49994,722.664,41,45,0
722.74994,722.914,69,60,0
722.74994,722.914,53,45,0
722.99994,723.164,69,60,0
722.99994,723.164,53,45,0
723.24994,723.414,57,60,0
723.24994,723.414,41,45,0
723.49994,723.664,69,60,0
723.49994,723.664,53,45,0
723.74994,723.914,69,60,0
723.74994,723.914,53,45,0
723.99994,724.164,57,60,0
723.99994,724.164,41,45,0
724.24994,724.414,69,60,0
724.24994,724.414,53,45,0
724.49994,724.664,69,60,0
724.49994,724.664,53,45,0
724.74994,724.914,69,60,0
724.74994,724.914,53,45,0
724.99994,725.164,70,60,0
724.99994,725.164,55,45,0
725.24994,725.414,72,60,0
725.24994,725.414,57,45,0
725.49994,725.664,46,45,0
725.74994,725.914,58,45,0
725.99994,726.164,58,45,0
725.49994,726.2343,74,60,0
726.24994,726.414,43,60,0
726.49994,726.664,55,60,0
726.74994,726.914,55,59,0
726.99994,727.164,43,57,0
727.24994,727.414,55,55,0
726.24994,727.49994,82,75,0
727.49994,727.664,55,53,0
727.74994,727.914,55,51,0
727.99994,728.164,57,49,0
727.74994,728.2968,81,75,0
728.24994,728.414,58,47,0
728.31244,728.4843,79,64,0
728.49994,728.6718,77,60,0
728.68744,728.7343,76,60,0
728.74994,728.9843,60,60,0
728.49994,729.2343,48,45,0
728.99994,729.4843,58,60,0
728.99994,729.4843,61,60,0
728.99994,729.4843,67,60,0
729.49994,729.7343,58,60,0
729.49994,729.7343,61,60,0
729.49994,729.7343,67,60,0
729.24994,729.9843,48,45,0
729.74994,730.2343,58,60,0
729.74994,730.2343,61,60,0
729.74994,730.2343,67,60,0
730.24994,730.4843,58,60,0
730.24994,730.4843,60,60,0
730.24994,730.4843,67,60,0
729.99994,730.7343,48,45,0
730.49994,730.9843,58,60,0
730.49994,730.9843,60,60,0
730.49994,730.9843,67,60,0
730.99994,731.2343,55,60,0
730.99994,731.2343,58,60,0
730.99994,731.2343,60,60,0
730.99994,731.2343,64,60,0
730.74994,731.4843,36,45,0
730.74994,731.4843,48,45,0
731.24994,731.4843,55,60,0
731.24994,731.4843,58,60,0
731.24994,731.4843,60,60,0
731.24994,731.4843,64,60,0
731.49994,731.6718,29,45,0
731.49994,731.6718,41,45,0
731.68744,731.8593,48,45,0
731.87494,732.0468,53,45,0
731.49994,732.2343,57,60,0
732.06244,732.2343,57,45,0
731.49994,732.2343,60,60,0
731.49994,732.2343,65,60,0
732.24994,732.4843,60,45,0
732.49994,732.7343,57,45,0
732.74994,732.9843,53,45,0
732.99994,733.2343,48,45,0
733.24994,733.4843,53,45,0
733.49994,733.7343,57,45,0
733.74994,733.9843,60,45,0
733.99994,734.2343,57,45,0
733.74994,734.4843,77,60,0
733.74994,734.4843,89,60,0
734.24994,734.4843,53,45,0
734.49994,734.7343,48,45,0
734.74994,734.9843,53,45,0
734.49994,735.2343,72,60,0
734.49994,735.2343,84,60,0
734.99994,735.2343,57,45,0
735.24994,735.4843,60,45,0
735.49994,735.7343,57,45,0
735.24994,735.9843,69,60,0
735.24994,735.9843,81,60,0
735.74994,735.9843,53,45,0
735.99994,736.2343,48,45,0
736.24994,736.4843,53,45,0
735.99994,736.7343,65,60,0
735.99994,736.7343,77,60,0
736.49994,736.7343,57,45,0
736.74994,736.9843,48,45,0
736.99994,737.2343,53,45,0
736.74994,737.4843,60,60,0
736.74994,737.4843,72,60,0
737.24994,737.4843,57,45,0
737.49994,737.6718,29,45,0
737.49994,737.6718,41,45,0
737.68744,737.8593,48,45,0
737.87494,738.0468,52,45,0
737.49994,738.2343,58,60,0
737.49994,738.2343,70,60,0
738.06244,738.2343,55,45,0
738.24994,738.4843,58,45,0
738.49994,738.7343,55,45,0
738.74994,738.9843,52,45,0
738.99994,739.2343,48,45,0
739.24994,739.4843,52,45,0
739.49994,739.7343,55,45,0
739.74994,739.9843,58,45,0
739.99994,740.2343,55,45,0
740.24994,740.4843,52,45,0
739.74994,740.49994,64,60,0
740.49994,740.7343,48,45,0
740.74994,740.9843,52,45,0
740.99994,741.2343,55,45,0
740.49994,741.24994,67,60,0
741.24994,741.4843,58,45,0
741.49994,741.7343,55,45,0
741.74994,741.9843,52,45,0
741.24994,741.99994,70,60,0
741.99994,742.2343,48,45,0
742.24994,742.4843,55,45,0
742.49994,742.7343,58,45,0
741.99994,742.74994,76,60,0
742.74994,742.9843,48,45,0
742.99994,743.2343,55,45,0
742.74994,743.4843,79,60,0
743.24994,743.4843,58,45,0
743.49994,743.6718,29,45,0
743.49994,743.6718,41,45,0
743.68744,743.8593,48,45,0
743.87494,744.0468,53,45,0
743.49994,744.2343,77,60,0
744.06244,744.2343,57,45,0
744.24994,744.4843,60,45,0
744.49994,744.7343,57,45,0
744.74994,744.9843,53,45,0
744.99994,745.2343,48,45,0
745.24994,745.4843,53,45,0
745.49994,745.7343,57,45,0
745.74994,745.9843,60,45,0
745.99994,746.2343,89,60,0
745.99994,746.2343,57,45,0
746.24994,746.4843,84,60,0
746.24994,746.4843,53,45,0
746.49994,746.7343,48,45,0
746.74994,746.9843,84,60,0
746.74994,746.9843,53,45,0
746.99994,747.2343,81,60,0
746.99994,747.2343,57,45,0
747.24994,747.4843,60,45,0
747.49994,747.7343,81,60,0
747.49994,747.7343,57,45,0
747.74994,747.9843,77,60,0
747.74994,747.9843,53,45,0
747.99994,748.2343,48,45,0
748.24994,748.4843,77,60,0
748.24994,748.4843,53,45,0
748.49994,748.7343,72,60,0
748.49994,748.7343,57,45,0
748.74994,748.9843,48,45,0
748.99994,749.2343,72,60,0
748.99994,749.2343,53,45,0
749.24994,749.4843,69,60,0
749.24994,749.4843,57,45,0
749.49994,749.6718,29,45,0
749.49994,749.6718,41,45,0
749.68744,749.8593,48,45,0
749.87494,750.0468,52,45,0
749.49994,750.2343,70,60,0
750.06244,750.2343,55,45,0
750.24994,750.4843,58,45,0
750.49994,750.7343,55,45,0
750.74994,750.9843,52,45,0
750.99994,751.2343,48,45,0
751.24994,751.4843,52,45,0
751.49994,751.7343,55,45,0
751.74994,751.9843,58,45,0
751.99994,752.2343,64,60,0
751.99994,752.2343,55,45,0
752.24994,752.4843,67,60,0
752.24994,752.4843,52,45,0
752.49994,752.7343,48,45,0
752.74994,752.9843,67,60,0
752.74994,752.9843,52,45,0
752.99994,753.2343,70,60,0
752.99994,753.2343,55,45,0
753.24994,753.4843,58,45,0
753.49994,753.7343,70,60,0
753.49994,753.7343,55,45,0
753.74994,753.9843,76,60,0
753.74994,753.9843,52,45,0
753.99994,754.2343,48,45,0
754.24994,754.4843,76,60,0
754.24994,754.4843,55,45,0
754.49994,754.7343,79,60,0
754.49994,754.7343,58,45,0
754.74994,754.9843,48,45,0
754.99994,755.2343,79,60,0
754.99994,755.2343,55,45,0
755.24994,755.4843,82,60,0
755.24994,755.4843,58,45,0
755.49994,755.7343,81,60,0
755.74994,755.9843,60,60,0
755.99994,756.2343,65,60,0
756.24994,756.4843,69,60,0
756.49994,756.7343,65,60,0
756.74994,756.9843,60,60,0
756.99994,757.2343,57,60,0
757.24994,757.4843,60,60,0
757.49994,757.7343,65,60,0
757.74994,757.9843,69,60,0
755.49994,758.12494,41,45,0
755.49994,758.12494,53,45,0
757.99994,758.2343,65,60,0
758.24994,758.4843,60,60,0
758.49994,758.7343,56,45,0
758.74994,758.9843,59,45,0
758.99994,759.2343,65,45,0
759.24994,759.4843,68,45,0
759.49994,759.7343,65,45,0
759.74994,759.9843,59,45,0
759.99994,760.2343,56,45,0
760.24994,760.4843,59,45,0
760.49994,760.7343,65,45,0
760.74994,760.9843,68,45,0
758.49994,761.12494,38,45,0
758.49994,761.12494,50,45,0
760.99994,761.2343,65,45,0
761.24994,761.4843,59,45,0
761.49994,761.7343,56,45,0
761.74994,761.9843,62,45,0
761.99994,762.2343,65,45,0
762.24994,762.4843,68,45,0
762.49994,762.7343,65,45,0
762.74994,762.9843,62,45,0
762.99994,763.2343,56,45,0
763.24994,763.4843,62,45,0
763.49994,763.7343,65,45,0
763.74994,763.9843,68,45,0
761.49994,764.12494,35,45,0
761.49994,764.12494,47,45,0
763.99994,764.2343,65,45,0
764.24994,764.4843,62,45,0
764.49994,764.7343,59,45,0
764.74994,764.9843,62,45,0
764.99994,765.2343,65,45,0
765.24994,765.4843,71,45,0
765.49994,765.7343,65,45,0
765.74994,765.9843,62,45,0
765.99994,766.2343,59,45,0
766.24994,766.4843,62,45,0
766.49994,766.7343,65,45,0
766.74994,766.9843,71,45,0
764.49994,767.12494,32,45,0
764.49994,767.12494,44,45,0
766.99994,767.2343,65,45,0
767.24994,767.4843,62,45,0
767.49994,767.7343,60,45,0
767.74994,767.9843,65,45,0
767.99994,768.2343,72,45,0
768.24994,768.4843,60,45,0
768.49994,768.7343,65,45,0
768.74994,768.9843,69,45,0
767.49994,768.99994,33,45,0
767.49994,768.99994,45,45,0
768.99994,769.2343,58,45,0
769.24994,769.4843,62,45,0
769.49994,769.7343,69,45,0
769.74994,769.9843,58,45,0
769.99994,770.2343,62,45,0
768.99994,770.24994,34,45,0
768.99994,770.24994,46,45,0
770.24994,770.4843,67,45,0
770.49994,770.7343,64,45,0
770.74994,770.9843,65,46,0
770.99994,771.2343,60,47,0
771.24994,771.4843,57,48,0
771.49994,771.7343,60,50,0
771.74994,771.9843,65,52,0
770.49994,772.2343,36,45,0
770.49994,772.2343,48,45,0
771.99994,772.2343,58,54,0
772.24994,772.4843,60,56,0
772.24994,772.4843,46,56,0
772.49994,772.7343,64,58,0
772.49994,772.7343,43,58,0
772.74994,772.9843,58,60,0
772.74994,772.9843,40,60,0
772.99994,773.2343,60,60,0
772.99994,773.2343,36,60,0
773.24994,773.4843,58,60,0
773.24994,773.4843,40,60,0
773.49994,774.2343,57,45,0
773.49994,774.2343,29,45,0
773.49994,774.2343,41,45,0
774.99994,775.7343,65,45,0
774.99994,776.24994,69,60,0
774.99994,776.24994,72,60,0
774.99994,776.24994,77,60,0
774.99994,776.24994,81,60,0
776.49994,777.2343,38,45,0
777.62494,777.68744,50,49,0
777.68744,777.74994,53,49,0
777.74994,777.81244,56,49,0
777.81244,777.87494,59,49,0
777.87494,777.93744,62,49,0
777.93744,777.99994,65,49,0
777.99994,778.7343,68,49,0
776.49994,779.12494,71,45,0
776.49994,779.12494,74,45,0
776.49994,779.12494,77,45,0
776.49994,779.12494,80,45,0
776.49994,779.12494,83,45,0
779.49994,780.2343,35,57,0
780.43744,780.51556,47,62,0
780.5312,780.6093,50,62,0
780.62494,780.6718,53,62,0
780.68744,780.7343,56,62,0
780.74994,780.7968,59,62,0
780.81244,780.8593,62,62,0
780.87494,780.9218,65,62,0
780.93744,780.9843,68,62,0
780.99994,781.7343,71,62,0
779.49994,782.12494,74,60,0
779.49994,782.12494,77,60,0
779.49994,782.12494,80,60,0
779.49994,782.12494,86,60,0
782.49994,783.2343,32,75,0
783.3437,783.4218,44,74,0
783.43744,783.4843,47,73,0
783.49994,783.5468,50,73,0
783.56244,783.6093,53,73,0
783.62494,783.6718,56,73,0
783.68744,783.7343,59,73,0
783.74994,783.7968,62,73,0
783.81244,783.8593,65,72,0
783.87494,783.9218,68,71,0
783.93744,783.9843,71,70,0
782.49994,784.49994,77,75,0
782.49994,784.49994,83,75,0
782.49994,784.49994,86,75,0
782.49994,784.49994,89,75,0
783.99994,784.7343,74,70,0
784.74994,785.4843,77,75,0
784.74994,785.4843,89,75,0
785.49994,786.24994,77,60,0
785.49994,786.24994,89,60,0
785.49994,786.74994,33,45,0
785.49994,786.74994,45,45,0
786.24994,787.74994,72,60,0
786.24994,787.74994,84,60,0
786.99994,788.24994,34,45,0
786.99994,788.24994,46,45,0
787.74994,788.31244,74,60,0
787.74994,788.31244,86,60,0
788.31244,788.4843,70,60,0
788.31244,788.4843,82,60,0
788.49994,788.7343,36,45,0
788.49994,788.7343,48,45,0
788.74994,788.9843,60,46,0
788.99994,789.2343,59,47,0
789.24994,789.4843,60,48,0
789.49994,789.7343,57,49,0
789.74994,789.9843,53,50,0
789.99994,790.2343,48,51,0
790.24994,790.4843,49,52,0
788.49994,790.49994,69,60,0
788.49994,790.49994,81,60,0
790.49994,790.7343,48,53,0
790.74994,790.9843,47,54,0
790.99994,791.2343,48,56,0
790.74994,791.2968,70,72,0
791.24994,791.4843,48,58,0
791.31244,791.4843,67,75,0
791.49994,791.57806,67,45,0
791.5937,791.6718,69,45,0
791.68744,791.76556,67,45,0
791.7812,791.8593,69,45,0
791.87494,791.95306,67,45,0
791.9687,792.0468,69,45,0
792.06244,792.14056,67,45,0
791.49994,792.2343,48,45,0
792.1562,792.2343,69,45,0
792.24994,792.32806,67,45,0
792.3437,792.4218,69,45,0
792.43744,792.51556,67,45,0
792.5312,792.6093,69,45,0
792.62494,792.70306,67,45,0
792.7187,792.7968,69,45,0
792.81244,792.89056,67,45,0
792.9062,792.9843,69,45,0
792.99994,793.07806,67,45,0
793.0937,793.1718,69,45,0
793.18744,793.26556,67,45,0
793.2812,793.3593,69,45,0
793.37494,793.45306,67,45,0
793.4687,793.5468,69,45,0
793.56244,793.64056,67,45,0
793.6562,793.7343,69,45,0
793.6562,793.7343,48,45,0
793.74994,793.7968,50,45,0
793.74994,793.82806,67,45,0
793.81244,793.8593,52,45,0
793.8437,793.9218,69,45,0
793.87494,793.9218,53,45,0
793.93744,793.9843,55,45,0
793.93744,794.01556,67,45,0
793.99994,794.0468,57,45,0
794.0312,794.1093,69,45,0
794.06244,794.1093,58,45,0
794.12494,794.1718,60,45,0
794.12494,794.20306,67,45,0
794.18744,794.2343,62,45,0
794.2187,794.2968,69,45,0
794.24994,794.2968,64,45,0
794.31244,794.3593,65,45,0
794.31244,794.39056,67,45,0
794.37494,794.39056,67,45,0
794.4062,794.4843,69,45,0
794.43744,794.4843,69,45,0
794.49994,794.57806,79,45,0
794.5937,794.6718,81,45,0
794.68744,794.76556,79,45,0
794.7812,794.8593,81,45,0
794.87494,794.95306,79,45,0
794.9687,795.0468,81,45,0
795.06244,795.14056,79,45,0
794.49994,795.2343,70,45,0
795.1562,795.2343,81,45,0
795.24994,795.32806,79,45,0
795.3437,795.4218,81,45,0
795.43744,795.51556,79,45,0
795.5312,795.6093,81,45,0
795.62494,795.68744,60,45,0
795.62494,795.70306,79,45,0
795.68744,795.74994,62,45,0
795.7187,795.7968,81,45,0
795.74994,795.81244,64,45,0
795.81244,795.87494,65,45,0
795.81244,795.89056,79,45,0
795.87494,795.93744,67,45,0
795.9062,795.9843,81,45,0
795.93744,795.99994,69,45,0
795.99994,796.07806,79,45,0
796.0937,796.1718,81,45,0
796.18744,796.26556,79,45,0
795.99994,796.3593,70,45,0
796.2812,796.3593,81,45,0
796.37494,796.43744,60,45,0
796.37494,796.45306,79,45,0
796.43744,796.49994,62,45,0
796.4687,796.5468,81,45,0
796.49994,796.56244,64,45,0
796.56244,796.62494,65,45,0
796.56244,796.64056,79,45,0
796.62494,796.68744,67,45,0
796.6562,796.7343,81,45,0
796.68744,796.74994,69,45,0
796.74994,796.82806,79,45,0
796.8437,796.9218,81,45,0
796.93744,797.01556,79,45,0
796.74994,797.1093,70,45,0
797.0312,797.1093,81,45,0
797.12494,797.18744,60,45,0
797.12494,797.20306,79,45,0
797.18744,797.24994,62,45,0
797.2187,797.2968,81,45,0
797.24994,797.31244,64,45,0
797.31244,797.37494,65,45,0
797.31244,797.39056,79,45,0
797.37494,797.43744,67,45,0
797.4062,797.4843,81,45,0
797.43744,797.4843,69,45,0
797.49994,797.57806,79,45,0
797.5937,797.6718,81,45,0
797.68744,797.76556,79,46,0
797.7812,797.8593,81,47,0
797.87494,797.95306,79,48,0
797.9687,798.0468,81,49,0
798.06244,798.14056,79,50,0
798.1562,798.2343,81,51,0
798.24994,798.32806,79,52,0
798.3437,798.4218,81,53,0
798.43744,798.51556,79,54,0
798.5312,798.6093,81,55,0
798.62494,798.70306,79,56,0
798.7187,798.7968,81,57,0
798.81244,798.89056,79,58,0
798.9062,798.9843,81,59,0
798.99994,799.07806,80,60,0
799.0937,799.1718,81,62,0
799.18744,799.26556,80,64,0
799.2812,799.3593,81,66,0
799.37494,799.45306,80,68,0
799.4687,799.5468,81,70,0
799.56244,799.64056,80,72,0
799.6562,799.7343,81,74,0
799.74994,799.82806,80,76,0
799.8437,799.9218,81,78,0
799.93744,800.01556,80,80,0
800.0312,800.1093,81,82,0
797.49994,800.12494,60,45,0
797.49994,800.12494,70,45,0
800.12494,800.20306,80,84,0
800.2187,800.2968,81,86,0
800.31244,800.39056,80,88,0
800.4062,800.4843,81,90,0
801.24994,802.49994,53,45,0
800.49994,802.74994,81,60,0
802.74994,803.2968,55,60,0
802.74994,803.4843,77,60,0
803.31244,803.4843,57,60,0
803.49994,804.2343,74,60,0
803.49994,804.2343,58,45,0
804.24994,805.74994,58,75,0
804.24994,805.74994,31,60,0
804.24994,805.74994,43,60,0
805.74994,806.31244,60,60,0
805.74994,806.31244,33,45,0
805.74994,806.31244,45,45,0
806.31244,806.4843,62,60,0
806.31244,806.4843,34,45,0
806.31244,806.4843,46,45,0
806.49994,807.2343,55,60,0
806.49994,807.2343,36,45,0
806.49994,807.2343,48,45,0
807.24994,808.37494,76,75,0
808.37494,808.4687,77,60,0
807.24994,808.49994,60,45,0
807.24994,808.49994,67,45,0
807.24994,808.49994,70,45,0
808.4687,808.56244,76,60,0
808.56244,808.6562,74,60,0
808.6562,808.74994,76,60,0
808.74994,809.31244,84,60,0
808.74994,809.4843,60,45,0
808.74994,809.4843,67,45,0
808.74994,809.4843,70,45,0
809.31244,809.4843,76,60,0
809.49994,810.2343,77,60,0
809.49994,810.2343,65,45,0
809.49994,810.2343,69,45,0
810.24994,811.49994,55,60,0
810.24994,811.49994,58,60,0
810.24994,811.49994,36,45,0
810.24994,811.49994,48,45,0
811.74994,812.49994,55,60,0
811.74994,812.49994,58,60,0
811.74994,812.49994,36,45,0
811.74994,812.49994,48,45,0
812.49994,813.2343,53,60,0
812.49994,813.2343,57,60,0
812.49994,813.2343,41,45,0
812.49994,813.2343,48,45,0
813.24994,813.81244,84,75,0
813.24994,813.99994,60,45,0
813.24994,813.99994,67,45,0
813.24994,813.99994,70,45,0
813.81244,813.99994,76,75,0
813.99994,814.7343,77,60,0
813.99994,814.7343,65,45,0
813.99994,814.7343,69,45,0
814.74994,815.49994,55,60,0
814.74994,815.49994,58,60,0
814.74994,815.49994,36,45,0
814.74994,815.49994,48,45,0
815.49994,816.26556,53,60,0
815.49994,816.26556,57,60,0
815.49994,816.26556,41,45,0
815.49994,816.26556,48,45,0
816.28296,816.4045,48,45,0
816.28296,816.49384,84,60,0
816.4218,816.549,58,45,0
816.5674,816.69604,55,45,0
816.49384,816.7144,83,61,0
816.7144,816.84595,58,45,0
816.7144,816.9436,84,62,0
816.8655,817.0022,55,45,0
817.0217,817.15845,58,45,0
816.9436,817.178,76,63,0
817.178,817.32385,48,45,0
817.178,817.428,77,64,0
817.34467,817.4905,57,45,0
817.51135,817.66315,53,45,0
817.428,817.6854,83,65,0
817.6854,817.8417,57,45,0
817.6854,817.9533,84,66,0
817.864,818.022,53,45,0
818.046,818.2143,57,45,0
817.9533,818.23834,83,67,0
818.23834,818.4066,48,45,0
818.23834,818.5318,84,68,0
818.43066,818.6099,58,45,0
818.636,818.81824,55,45,0
818.5318,818.8443,83,69,0
818.8443,819.03253,58,45,0
818.8443,819.17456,84,71,0
819.0609,819.25977,55,45,0
819.17456,819.48706,76,73,0
819.2882,819.48706,58,45,0
819.51544,820.9842,77,60,0
819.51544,820.9842,53,45,0
819.51544,820.9842,57,45,0
822.51544,822.89044,69,60,0
822.89044,823.2342,65,59,0
823.26544,823.51544,60,57,0
823.64044,823.89044,57,55,0
824.01544,824.26544,53,53,0
824.39044,824.64044,57,51,0
824.39044,824.64044,41,42,0
824.76544,825.01544,53,49,0
824.76544,825.01544,36,38,0
825.14044,825.39044,48,47,0
825.14044,825.39044,33,34,0
825.51544,829.51544,45,45,0
825.51544,829.51544,29,30,0
21.0,21.6,77,45,40
21.6,21.8,76,45,40
22.2,23.2,76,60,40
23.4,24.0,74,45,40
24.0,24.2,72,45,40
24.6,25.8,72,60,40
25.8,26.3875,74,45,40
26.4,26.9875,76,45,40
27.0,27.5875,74,45,40
27.6,28.1875,76,45,40
28.2,28.7875,77,45,40
28.8,30.0,78,45,40
30.0,30.6,79,52,40
30.6,31.1875,80,56,40
31.2,33.0,81,45,40
33.0,33.6,77,45,40
33.6,34.1875,74,52,40
34.2,35.4,82,60,40
35.4,35.7,81,60,40
35.7,35.9875,79,53,40
36.0,36.3,77,45,40
36.3,36.5875,76,45,40
36.6,37.1875,76,45,40
37.2,37.275,76,45,40
37.275,37.35,77,45,40
37.35,37.425,76,45,40
37.425,37.5,77,45,40
37.5,37.575,76,45,40
37.575,37.65,77,45,40
37.65,37.725,76,45,40
37.725,37.8,77,45,40
37.8,38.1,84,45,40
38.1,38.3875,76,45,40
38.4,39.6,79,45,40
39.6,40.1875,77,45,40
66.6,67.7875,72,45,40
67.8,68.8,72,60,40
69.0,70.1875,72,45,40
70.2,71.4,72,60,40
71.4,71.9875,74,45,40
72.0,72.6,76,45,40
72.6,73.2,74,45,40
73.2,73.8,76,45,40
73.8,74.3875,77,45,40
74.4,75.6,78,45,40
75.6,76.2,79,55,40
76.2,76.7875,80,60,40
76.8,78.6,81,45,40
78.6,79.2,77,45,40
79.2,79.7875,74,52,40
79.8,81.0,82,60,40
81.0,81.3,81,60,40
81.3,81.5875,79,57,40
81.6,81.9,77,53,40
81.9,82.1,76,49,40
82.2,82.7875,76,45,40
82.8,82.875,76,45,40
82.875,82.95,77,45,40
82.95,83.025,76,45,40
83.025,83.1,77,45,40
83.1,83.175,76,45,40
83.175,83.25,77,45,40
83.25,83.325,76,45,40
83.325,83.4,77,45,40
83.4,83.7,84,45,40
83.7,83.9875,76,45,40
84.0,85.2,79,45,40
85.2,85.7875,77,45,40
85.8,86.4,69,45,40
86.4,87.0,67,45,40
87.0,87.6,72,45,40
87.6,88.2,69,45,40
88.2,88.7875,65,45,40
88.8,89.4,67,45,40
89.4,90.0,72,48,40
90.0,90.6,69,51,40
90.6,91.1875,77,54,40
91.2,91.7875,71,57,40
91.8,92.8,79,60,40
93.0,93.5875,77,45,40
93.6,94.1875,76,45,40
94.2,94.7875,74,47,40
94.8,95.3875,72,49,40
95.4,95.9875,74,51,40
96.0,97.2,76,54,40
97.2,98.1,77,60,40
98.1,98.3875,74,60,40
98.4,98.9875,72,45,40
99.0,99.6,67,45,40
99.6,100.2,69,45,40
100.2,100.8,71,45,40
100.8,101.4,72,45,40
101.4,102.0,74,45,40
102.0,102.6,76,45,40
102.6,103.05,77,60,40
103.05,103.1875,74,45,40
103.2,103.7875,72,45,40
103.8,103.8625,67,45,40
103.875,103.9375,69,45,40
103.95,104.0125,67,45,40
104.025,104.0875,69,45,40
104.1,104.1625,67,45,40
104.175,104.2375,69,45,40
104.25,104.3125,66,45,40
104.325,104.3875,67,45,40
104.4,104.4625,69,45,40
104.475,104.5375,71,45,40
104.55,104.6125,69,45,40
104.625,104.6875,71,45,40
104.7,104.7625,69,45,40
104.775,104.8375,71,45,40
104.85,104.9125,68,45,40
104.925,104.9875,69,45,40
105.0,105.0625,71,45,40
105.075,105.1375,72,45,40
105.15,105.2125,71,45,40
105.225,105.2875,72,45,40
105.3,105.3625,71,45,40
105.375,105.4375,72,45,40
105.45,105.5125,69,45,40
105.525,105.5875,71,45,40
105.6,105.6625,72,45,40
105.675,105.7375,74,45,40
105.75,105.8125,72,45,40
105.825,105.8875,74,45,40
105.9,105.9625,72,45,40
105.975,106.0375,74,45,40
106.05,106.1125,71,45,40
106.125,106.1875,72,45,40
106.2,106.2625,74,45,40
106.275,106.3375,76,45,40
106.35,106.4125,74,46,40
106.425,106.4875,76,47,40
106.5,106.5625,74,48,40
106.575,106.6375,76,49,40
106.65,106.7125,72,50,40
106.725,106.7875,74,51,40
106.8,106.8625,76,52,40
106.875,106.9375,77,53,40
106.95,107.0125,76,54,40
107.025,107.0875,77,55,40
107.1,107.1625,76,56,40
107.175,107.2375,77,57,40
107.25,107.3125,74,58,40
107.325,107.3875,76,59,40
107.4,107.85,77,60,40
107.85,107.9875,74,60,40
108.0,108.0625,72,45,40
108.075,108.1375,74,45,40
108.15,108.2125,72,45,40
108.225,108.2875,74,45,40
108.3,108.3625,72,45,40
108.375,108.4375,74,45,40
108.45,108.5125,71,45,40
108.525,108.5875,72,45,40
108.6,109.05,77,60,40
109.05,109.1875,74,60,40
109.2,109.2625,72,45,40
109.275,109.3375,74,45,40
109.35,109.4125,72,45,40
109.425,109.4875,74,45,40
109.5,109.5625,72,45,40
109.575,109.6375,74,45,40
109.65,109.7125,71,45,40
109.725,109.7875,72,45,40
109.8,110.25,77,60,40
110.25,110.3875,74,60,40
110.4,111.0,72,60,40
111.0,111.6,82,60,40
111.6,112.2,81,60,40
112.2,112.65,79,60,40
112.65,112.7875,77,60,40
112.8,112.95,77,45,40
112.95,113.25,76,45,40
113.4,114.6,76,60,40
114.6,115.1875,74,45,40
115.2,115.35,74,45,40
115.35,115.65,72,45,40
115.8,117.0,72,60,40
117.0,117.5875,74,60,40
117.6,117.675,77,45,40
117.675,118.1875,76,45,40
118.2,118.7875,74,45,40
118.8,119.3875,76,45,40
119.4,119.9875,77,45,40
120.0,121.2,78,45,40
121.2,121.8,79,52,40
121.8,122.3875,80,56,40
122.4,124.2,81,45,40
124.2,124.8,77,45,40
124.8,125.3875,74,52,40
125.4,126.6,82,60,40
126.6,126.9,81,60,40
126.9,127.1875,79,57,40
127.2,127.5,77,53,40
127.5,127.7,76,49,40
127.8,128.3875,76,45,40
128.4,128.475,76,45,40
128.475,128.55,77,45,40
128.55,128.625,76,45,40
128.625,128.7,77,45,40
128.7,128.775,76,45,40
128.775,128.85,77,45,40
128.85,128.925,76,45,40
128.925,129.0,77,45,40
129.0,129.3,84,45,40
129.3,129.5875,76,45,40
129.6,130.8,79,45,40
130.8,131.3875,77,45,40
132.6,132.73125,84,45,40
132.8,132.93124,84,45,40
133.0,133.13126,84,45,40
133.2,133.7875,84,45,40
135.0,135.13126,84,45,40
135.2,135.33125,84,45,40
135.4,135.53125,84,45,40
135.6,136.1875,84,45,40
137.4,137.53125,84,45,40
137.6,137.73125,84,45,40
137.8,137.93124,84,45,40
138.6,138.73125,84,45,40
138.8,138.93124,84,45,40
139.0,139.13126,84,45,40
139.8,139.93124,84,45,40
140.0,140.13126,84,45,40
140.2,140.33125,84,45,40
140.4,140.9875,84,45,40
146.6,146.73125,65,45,40
146.8,146.93124,70,45,40
147.2,147.33125,67,45,40
147.4,147.53125,70,45,40
147.8,147.93124,67,45,40
148.0,148.13126,70,45,40
148.4,148.53125,67,45,40
148.6,148.73125,70,45,40
149.0,149.13126,67,45,40
149.2,149.33125,70,45,40
149.6,149.73125,79,45,40
149.8,149.93124,82,45,40
150.0,150.5875,81,45,40
151.8,151.93124,84,45,40
152.0,152.13126,84,45,40
152.2,152.33125,84,45,40
152.4,152.9875,84,45,40
154.2,154.33125,84,45,40
154.4,154.53125,84,45,40
154.6,154.73125,84,45,40
154.8,155.3875,84,45,40
156.6,156.73125,84,45,40
156.8,156.93124,84,45,40
157.0,157.13126,84,45,40
157.8,157.93124,84,45,40
158.0,158.13126,84,45,40
158.2,158.33125,84,45,40
159.0,159.13126,84,45,40
159.2,159.33125,84,45,40
159.4,159.53125,84,45,40
159.6,160.1875,84,45,40
165.8,165.93124,65,45,40
166.0,166.13126,70,45,40
166.4,166.53125,67,45,40
166.6,166.73125,70,45,40
167.0,167.13126,67,45,40
167.2,167.33125,70,45,40
167.6,167.73125,67,45,40
167.8,167.93124,70,45,40
168.2,168.33125,67,45,40
168.4,168.53125,70,45,40
168.8,168.93124,79,45,40
169.0,169.13126,82,45,40
169.2,169.7875,81,45,40
171.0,171.13126,84,45,40
171.2,171.33125,84,45,40
171.4,171.53125,84,45,40
171.6,172.1875,84,45,40
173.4,173.53125,84,45,40
173.6,173.73125,84,45,40
173.8,173.93124,84,45,40
174.6,174.73125,89,45,40
174.8,174.93124,89,45,40
175.0,175.13126,89,45,40
175.4,175.53125,86,45,40
175.6,175.73125,86,45,40
175.8,175.93124,91,45,40
176.0,176.13126,91,45,40
176.2,176.33125,91,45,40
176.4,176.53125,91,45,40
176.6,176.73125,91,45,40
176.8,176.93124,91,45,40
177.0,177.13126,91,45,40
177.2,177.33125,91,45,40
177.4,177.53125,91,45,40
177.6,178.1875,91,45,40
180.6,180.73125,79,45,40
180.8,180.93124,79,45,40
181.0,181.13126,79,45,40
181.8,181.93124,67,45,40
182.0,182.13126,67,45,40
182.2,182.33125,67,45,40
182.4,182.9875,67,45,40
186.6,186.73125,79,45,40
186.8,186.93124,79,45,40
187.0,187.13126,79,45,40
187.2,187.7875,79,45,40
191.4,191.53125,67,45,40
191.6,191.73125,67,45,40
191.8,191.93124,67,45,40
192.6,192.73125,67,45,40
192.8,192.93124,67,45,40
193.0,193.13126,67,45,40
193.8,193.93124,67,45,40
194.0,194.13126,67,45,40
194.2,194.33125,67,45,40
194.6,194.73125,72,46,40
194.8,194.93124,72,47,40
195.2,195.33125,72,49,40
195.4,195.53125,72,50,40
195.8,195.93124,72,52,40
196.0,196.13126,72,53,40
196.4,196.53125,84,56,40
196.6,196.73125,84,58,40
197.4,197.53125,84,45,40
197.6,197.73125,84,45,40
197.8,197.93124,84,45,40
198.0,198.5875,84,45,40
199.8,199.93124,84,45,40
200.0,200.13126,84,45,40
200.2,200.33125,84,45,40
200.4,200.9875,84,45,40
202.2,202.33125,84,45,40
202.4,202.53125,84,45,40
202.6,202.73125,84,45,40
203.4,203.53125,84,45,40
203.6,203.73125,84,45,40
203.8,203.93124,84,45,40
204.6,204.73125,84,45,40
204.8,204.93124,84,45,40
205.0,205.13126,84,45,40
205.2,205.7875,84,45,40
211.4,211.53125,67,45,40
211.4,211.53125,70,45,40
211.6,211.73125,67,45,40
211.6,211.73125,70,45,40
212.0,212.13126,67,45,40
212.0,212.13126,70,45,40
212.2,212.33125,67,45,40
212.2,212.33125,70,45,40
212.6,212.73125,67,45,40
212.6,212.73125,70,45,40
212.8,212.93124,67,45,40
212.8,212.93124,70,45,40
213.2,213.33125,67,45,40
213.2,213.33125,70,45,40
213.4,213.53125,67,45,40
213.4,213.53125,70,45,40
213.8,213.93124,67,45,40
213.8,213.93124,70,45,40
214.0,214.13126,67,45,40
214.0,214.13126,70,45,40
214.4,214.53125,82,45,40
214.6,214.73125,82,45,40
214.8,215.3875,81,45,40
216.6,216.73125,84,45,40
216.8,216.93124,84,45,40
217.0,217.13126,84,45,40
217.2,217.7875,84,45,40
219.0,219.13126,84,45,40
219.2,219.33125,84,45,40
219.4,219.53125,84,45,40
220.2,220.33125,89,45,40
220.4,220.53125,89,45,40
220.6,220.73125,89,45,40
221.0,221.13126,86,45,40
221.2,221.33125,86,45,40
221.4,221.53125,91,45,40
221.6,221.73125,91,45,40
221.8,221.93124,91,45,40
222.0,222.13126,91,45,40
222.2,222.33125,91,45,40
222.4,222.53125,91,45,40
222.6,222.73125,91,45,40
222.8,222.93124,91,45,40
223.0,223.13126,91,45,40
223.2,223.7875,91,45,40
226.2,226.33125,79,45,40
226.4,226.53125,79,45,40
226.6,226.73125,79,45,40
227.4,227.53125,67,45,40
227.6,227.73125,67,45,40
227.8,227.93124,67,45,40
228.0,228.5875,67,45,40
232.2,232.33125,79,45,40
232.4,232.53125,79,45,40
232.6,232.73125,79,45,40
232.8,233.3875,79,45,40
237.0,237.13126,67,45,40
237.2,237.33125,67,45,40
237.4,237.53125,67,45,40
238.2,238.33125,67,45,40
238.4,238.53125,67,45,40
238.6,238.73125,67,45,40
239.4,239.53125,67,45,40
239.6,239.73125,67,45,40
239.8,239.93124,67,45,40
240.2,240.33125,72,46,40
240.4,240.53125,72,47,40
240.8,240.93124,72,49,40
241.0,241.13126,72,50,40
241.4,241.53125,72,52,40
241.6,241.73125,72,53,40
242.0,242.13126,84,56,40
242.2,242.33125,84,58,40
243.0,243.13126,84,45,40
243.2,243.33125,84,45,40
243.4,243.53125,84,45,40
243.6,244.1875,84,45,40
245.4,245.53125,84,45,40
245.6,245.73125,84,45,40
245.8,245.93124,84,45,40
246.0,246.5875,84,45,40
247.8,247.93124,84,45,40
248.0,248.13126,84,45,40
248.2,248.33125,84,45,40
249.0,249.13126,84,45,40
249.2,249.33125,84,45,40
249.4,249.53125,84,45,40
250.2,250.33125,84,45,40
250.4,250.53125,84,45,40
250.6,250.73125,84,45,40
250.8,251.3875,84,45,40
257.0,257.13126,67,45,40
257.0,257.13126,70,45,40
257.2,257.33124,67,45,40
257.2,257.33124,70,45,40
257.6,257.73126,67,45,40
257.6,257.73126,70,45,40
257.8,257.93124,67,45,40
257.8,257.93124,70,45,40
258.2,258.33124,67,45,40
258.2,258.33124,70,45,40
258.4,258.53125,67,45,40
258.4,258.53125,70,45,40
258.8,258.93124,67,45,40
258.8,258.93124,70,45,40
259.0,259.13126,67,45,40
259.0,259.13126,70,45,40
259.4,259.53125,67,45,40
259.4,259.53125,70,45,40
259.6,259.73126,67,45,40
259.6,259.73126,70,45,40
260.0,260.13126,82,45,40
260.2,260.33124,82,45,40
260.4,260.9875,81,45,40
261.0,261.125,72,45,40
261.125,261.20834,77,45,40
261.25,261.33334,77,45,40
261.375,261.45834,77,45,40
261.5,261.625,77,45,40
261.625,261.70834,76,45,40
261.75,261.83334,76,45,40
261.875,261.95834,76,45,40
262.0,262.125,75,45,40
262.125,262.20834,76,45,40
262.25,262.33334,76,45,40
262.375,262.45834,76,45,40
262.5,262.625,75,45,40
262.625,262.70834,76,45,40
262.75,262.83334,76,45,40
262.875,262.95834,76,45,40
263.0,263.125,77,45,40
263.125,263.20834,74,45,40
263.25,263.33334,74,45,40
263.375,263.45834,74,45,40
263.5,263.625,74,45,40
263.625,263.70834,72,45,40
263.75,263.83334,72,45,40
263.875,263.95834,72,45,40
264.0,264.125,71,45,40
264.125,264.20834,72,45,40
264.25,264.33334,72,45,40
264.375,264.45834,72,45,40
264.5,264.625,71,45,40
264.625,264.70834,72,45,40
264.75,264.83334,72,45,40
264.875,264.95834,72,45,40
265.0,265.125,73,45,40
265.125,265.20834,74,45,40
265.25,265.33334,74,45,40
265.375,265.45834,74,45,40
265.5,265.625,75,45,40
265.625,265.70834,76,45,40
265.75,265.83334,76,45,40
265.875,265.95834,76,45,40
266.0,266.125,73,45,40
266.125,266.20834,74,45,40
266.25,266.33334,74,45,40
266.375,266.45834,74,45,40
266.5,266.625,75,45,40
266.625,266.70834,76,45,40
266.75,266.83334,76,45,40
266.875,266.95834,76,45,40
267.0,267.125,76,45,40
267.125,267.20834,77,45,40
267.25,267.33334,77,45,40
267.375,267.45834,77,45,40
267.5,267.625,78,45,40
267.625,267.70834,79,45,40
267.75,267.83334,79,45,40
267.875,267.95834,79,45,40
268.0,268.125,78,45,40
268.125,268.20834,79,45,40
268.25,268.33334,79,45,40
268.375,268.45834,79,45,40
268.5,268.625,78,45,40
268.625,268.70834,79,45,40
268.75,268.83334,79,45,40
268.875,268.95834,79,45,40
269.0,269.125,79,45,40
269.125,269.20834,80,45,40
269.25,269.33334,80,45,40
269.375,269.45834,80,45,40
269.5,269.625,80,45,40
269.625,269.70834,81,45,40
269.75,269.83334,81,45,40
269.875,269.95834,81,48,40
270.0,270.08334,81,51,40
270.125,270.20834,81,54,40
270.25,270.33334,81,57,40
270.375,270.45834,81,60,40
270.5,270.58334,81,63,40
270.625,270.70834,81,66,40
270.75,270.83334,81,69,40
270.875,270.95834,79,72,40
271.0,271.125,79,75,40
271.125,271.20834,77,45,40
271.25,271.33334,77,45,40
271.375,271.45834,76,45,40
271.5,271.625,73,45,40
271.625,271.70834,74,45,40
271.75,271.83334,82,45,40
271.875,271.95834,82,48,40
272.0,272.08334,82,51,40
272.125,272.20834,82,54,40
272.25,272.33334,82,57,40
272.375,272.45834,82,60,40
272.5,272.58334,82,63,40
272.625,272.70834,82,66,40
272.75,272.83334,82,69,40
272.875,272.95834,81,72,40
273.0,273.125,81,75,40
273.125,273.20834,79,75,40
273.25,273.33334,79,45,40
273.375,273.45834,77,45,40
273.5,273.625,77,45,40
273.625,273.70834,76,45,40
273.75,273.83334,77,45,40
273.875,273.95834,79,45,40
274.0,274.08334,81,45,40
274.125,274.20834,82,45,40
274.25,274.33334,84,45,40
274.375,274.45834,86,45,40
274.5,274.58334,88,45,40
274.625,274.70834,89,45,40
274.75,274.83334,91,45,40
274.875,274.95834,93,45,40
275.0,275.125,94,45,40
275.125,275.20834,95,45,40
275.25,275.33334,96,45,40
275.375,275.45834,96,45,40
275.5,275.58334,96,45,40
275.625,275.70834,96,45,40
275.75,275.83334,96,45,40
275.875,275.95834,96,45,40
276.0,276.08334,96,45,40
276.125,276.20834,96,45,40
276.25,276.33334,96,45,40
276.375,276.45834,96,45,40
276.5,276.9896,89,45,40
277.0,277.125,72,45,40
277.125,277.20834,77,45,40
277.25,277.33334,77,45,40
277.375,277.45834,77,45,40
277.5,277.625,77,45,40
277.625,277.70834,76,45,40
277.75,277.83334,76,45,40
277.875,277.95834,76,45,40
278.0,278.125,75,45,40
278.125,278.20834,76,45,40
278.25,278.33334,76,45,40
278.375,278.45834,76,45,40
278.5,278.625,75,45,40
278.625,278.70834,76,45,40
278.75,278.83334,76,45,40
278.875,278.95834,76,45,40
279.0,279.125,77,45,40
279.125,279.20834,74,45,40
279.25,279.33334,74,45,40
279.375,279.45834,74,45,40
279.5,279.625,74,45,40
279.625,279.70834,72,45,40
279.75,279.83334,72,45,40
279.875,279.95834,72,45,40
280.0,280.125,71,45,40
280.125,280.20834,72,45,40
280.25,280.33334,72,45,40
280.375,280.45834,72,45,40
280.5,280.625,71,45,40
280.625,280.70834,72,45,40
280.75,280.83334,72,45,40
280.875,280.95834,72,45,40
281.0,281.125,73,45,40
281.125,281.20834,74,45,40
281.25,281.33334,74,45,40
281.375,281.45834,74,45,40
281.5,281.625,75,45,40
281.625,281.70834,76,45,40
281.75,281.83334,76,45,40
281.875,281.95834,76,45,40
282.0,282.125,73,45,40
282.125,282.20834,74,45,40
282.25,282.33334,74,45,40
282.375,282.45834,74,45,40
282.5,282.625,75,45,40
282.625,282.70834,76,45,40
282.75,282.83334,76,45,40
282.875,282.95834,76,45,40
283.0,283.125,76,45,40
283.125,283.20834,77,45,40
283.25,283.33334,77,45,40
283.375,283.45834,77,45,40
283.5,283.625,78,45,40
283.625,283.70834,79,45,40
283.75,283.83334,79,45,40
283.875,283.95834,79,45,40
284.0,284.125,78,45,40
284.125,284.20834,79,45,40
284.25,284.33334,79,45,40
284.375,284.45834,79,45,40
284.5,284.625,78,45,40
284.625,284.70834,79,45,40
284.75,284.83334,79,45,40
284.875,284.95834,79,45,40
285.0,285.125,79,45,40
285.125,285.20834,80,45,40
285.25,285.33334,80,45,40
285.375,285.45834,80,45,40
285.5,285.625,80,45,40
285.625,285.70834,81,45,40
285.75,285.83334,81,45,40
285.875,285.95834,81,48,40
286.0,286.08334,81,51,40
286.125,286.20834,81,54,40
286.25,286.33334,81,57,40
286.375,286.45834,81,60,40
286.5,286.58334,81,63,40
286.625,286.70834,81,66,40
286.75,286.83334,81,69,40
286.875,286.95834,79,72,40
287.0,287.125,79,75,40
287.125,287.20834,77,45,40
287.25,287.33334,77,45,40
287.375,287.45834,76,45,40
287.5,287.625,73,45,40
287.625,287.70834,74,45,40
287.75,287.83334,82,45,40
287.875,287.95834,82,48,40
288.0,288.08334,82,51,40
288.125,288.20834,82,54,40
288.25,288.33334,82,57,40
288.375,288.45834,82,60,40
288.5,288.58334,82,63,40
288.625,288.70834,82,66,40
288.75,288.83334,82,69,40
288.875,288.95834,81,72,40
289.0,289.125,81,75,40
289.125,289.20834,79,75,40
289.25,289.33334,79,45,40
289.375,289.45834,77,45,40
289.5,289.625,77,45,40
289.625,289.70834,76,45,40
289.75,289.83334,77,45,40
289.875,289.95834,79,45,40
290.0,290.08334,81,45,40
290.125,290.20834,82,45,40
290.25,290.33334,84,45,40
290.375,290.45834,86,45,40
290.5,290.58334,88,45,40
290.625,290.70834,89,45,40
290.75,290.83334,91,45,40
290.875,290.95834,93,45,40
291.0,291.125,94,45,40
291.125,291.20834,95,45,40
291.25,291.33334,96,45,40
291.375,291.45834,96,45,40
291.5,291.58334,96,45,40
291.625,291.70834,96,45,40
291.75,291.83334,96,45,40
291.875,291.95834,96,45,40
292.0,292.08334,96,45,40
292.125,292.20834,96,45,40
292.25,292.33334,96,45,40
292.375,292.45834,96,45,40
292.5,292.9896,89,45,40
293.0,293.125,80,45,40
293.125,293.20834,81,45,40
293.25,293.33334,81,45,40
293.375,293.45834,81,45,40
293.5,293.625,78,45,40
293.625,293.70834,79,45,40
293.75,293.83334,79,45,40
293.875,293.95834,79,45,40
294.0,294.125,83,45,40
294.125,294.20834,84,45,40
294.25,294.33334,84,45,40
294.375,294.45834,84,45,40
294.5,294.625,80,45,40
294.625,294.70834,81,45,40
294.75,294.83334,81,45,40
294.875,294.95834,81,45,40
295.0,295.125,76,45,40
295.125,295.20834,77,45,40
295.25,295.33334,77,45,40
295.375,295.45834,77,45,40
295.5,295.625,78,45,40
295.625,295.70834,79,45,40
295.75,295.83334,79,45,40
295.875,295.95834,79,45,40
296.0,296.125,83,45,40
296.125,296.20834,84,45,40
296.25,296.33334,84,45,40
296.375,296.45834,84,45,40
296.5,296.625,80,45,40
296.625,296.70834,81,45,40
296.75,296.83334,81,45,40
296.875,296.95834,81,45,40
297.0,297.125,88,45,40
297.125,297.20834,89,45,40
297.25,297.33334,89,45,40
297.375,297.45834,89,45,40
297.5,297.625,82,45,40
297.625,297.70834,83,45,40
297.75,297.83334,91,45,40
297.875,297.95834,91,45,40
298.0,298.125,91,45,40
298.125,298.20834,79,45,40
298.25,298.33334,91,45,40
298.375,298.45834,91,45,40
298.5,298.625,91,45,40
298.625,298.70834,79,45,40
298.75,298.83334,91,45,40
298.875,298.95834,91,45,40
299.0,299.125,89,45,40
299.125,299.20834,77,45,40
299.25,299.33334,89,45,40
299.375,299.45834,89,45,40
299.5,299.625,88,45,40
299.625,299.70834,76,45,40
299.75,299.83334,88,45,40
299.875,299.95834,88,45,40
300.0,300.125,86,45,40
300.125,300.20834,74,45,40
300.25,300.33334,86,45,40
300.375,300.45834,86,45,40
300.5,300.625,84,45,40
300.625,300.70834,72,45,40
300.75,300.83334,84,45,40
300.875,300.95834,84,45,40
301.0,301.125,86,45,40
301.125,301.20834,74,45,40
301.25,301.33334,86,45,40
301.375,301.45834,86,45,40
301.5,301.625,88,45,40
301.625,301.70834,76,45,40
301.75,301.83334,88,45,40
301.875,301.95834,88,45,40
302.0,302.125,88,45,40
302.125,302.20834,76,45,40
302.25,302.33334,88,45,40
302.375,302.45834,88,45,40
302.5,302.58334,89,45,40
302.625,302.70834,77,45,40
302.75,302.83334,83,45,40
302.875,302.95834,86,45,40
303.0,303.08334,89,45,40
303.125,303.20834,86,45,40
303.25,303.33334,89,45,40
303.375,303.45834,86,45,40
303.5,303.625,83,45,40
303.625,303.70834,84,45,40
303.75,303.83334,84,45,40
303.875,303.95834,84,45,40
304.0,304.125,78,45,40
304.125,304.20834,79,45,40
304.25,304.33334,79,45,40
304.375,304.45834,79,45,40
304.5,304.625,80,45,40
304.625,304.70834,81,45,40
304.75,304.83334,81,45,40
304.875,304.95834,81,45,40
305.0,305.125,82,45,40
305.125,305.20834,83,45,40
305.25,305.33334,83,45,40
305.375,305.45834,83,45,40
305.5,305.625,83,45,40
305.625,305.70834,84,45,40
305.75,305.83334,84,45,40
305.875,305.95834,84,45,40
306.0,306.125,85,45,40
306.125,306.20834,86,45,40
306.25,306.33334,86,45,40
306.375,306.45834,86,45,40
306.5,306.625,87,45,40
306.625,306.70834,88,45,40
306.75,306.83334,88,45,40
306.875,306.95834,88,45,40
307.0,307.125,89,60,40
307.125,307.20834,77,60,40
307.25,307.33334,89,60,40
307.375,307.45834,86,60,40
307.5,307.625,83,30,40
307.625,307.70834,84,30,40
307.75,307.83334,84,30,40
307.875,307.95834,84,30,40
308.0,308.125,78,30,40
308.125,308.20834,79,30,40
308.25,308.33334,79,30,40
308.375,308.45834,79,30,40
308.5,308.625,80,30,40
308.625,308.70834,81,30,40
308.75,308.83334,81,30,40
308.875,308.95834,81,30,40
309.0,309.125,83,30,40
309.125,309.20834,83,30,40
309.25,309.33334,83,30,40
309.375,309.45834,83,30,40
309.5,309.625,83,30,40
309.625,309.70834,84,30,40
309.75,309.83334,84,30,40
309.875,309.95834,84,30,40
310.0,310.125,85,30,40
310.125,310.20834,86,30,40
310.25,310.33334,86,30,40
310.375,310.45834,86,30,40
310.5,310.625,87,30,40
310.625,310.70834,88,30,40
310.75,310.83334,88,30,40
310.875,310.95834,88,30,40
311.0,311.125,89,60,40
311.125,311.20834,77,60,40
311.25,311.33334,89,60,40
311.375,311.45834,86,60,40
311.5,311.58334,83,45,40
311.625,311.70834,84,45,40
311.75,311.83334,84,45,40
311.875,311.95834,84,45,40
312.0,312.08334,89,60,40
312.125,312.20834,77,60,40
312.25,312.33334,89,60,40
312.375,312.45834,86,60,40
312.5,312.58334,83,45,40
312.625,312.70834,84,45,40
312.75,312.83334,84,45,40
312.875,312.95834,84,45,40
313.0,313.08334,89,60,40
313.125,313.20834,77,60,40
313.25,313.33334,89,60,40
313.375,313.45834,86,60,40
313.5,313.58334,83,45,40
313.625,313.70834,84,45,40
313.75,313.83334,86,46,40
313.875,313.95834,84,47,40
314.0,314.08334,81,48,40
314.125,314.20834,82,49,40
314.25,314.33334,84,50,40
314.375,314.45834,82,51,40
314.5,314.58334,80,52,40
314.625,314.70834,81,53,40
314.75,314.83334,82,54,40
314.875,314.95834,81,55,40
315.0,315.08334,78,56,40
315.125,315.20834,79,57,40
315.25,315.33334,76,58,40
315.375,315.45834,77,60,40
315.5,315.625,77,45,40
315.625,315.70834,76,45,40
315.75,315.83334,76,45,40
315.875,315.95834,76,45,40
316.0,316.125,75,45,40
316.125,316.20834,76,45,40
316.25,316.33334,76,45,40
316.375,316.45834,76,45,40
316.5,316.625,75,45,40
316.625,316.70834,76,45,40
316.75,316.83334,76,45,40
316.875,316.95834,76,45,40
317.0,317.125,77,45,40
317.125,317.20834,74,45,40
317.25,317.33334,74,45,40
317.375,317.45834,74,45,40
317.5,317.625,74,45,40
317.625,317.70834,72,45,40
317.75,317.83334,72,45,40
317.875,317.95834,72,45,40
318.0,318.125,71,45,40
318.125,318.20834,72,45,40
318.25,318.33334,72,45,40
318.375,318.45834,72,45,40
318.5,318.625,71,45,40
318.625,318.70834,72,45,40
318.75,318.83334,72,45,40
318.875,318.95834,72,45,40
319.0,319.125,73,45,40
319.125,319.20834,74,45,40
319.25,319.33334,74,45,40
319.375,319.45834,74,45,40
319.5,319.625,75,45,40
319.625,319.70834,76,45,40
319.75,319.83334,76,45,40
319.875,319.95834,76,45,40
320.0,320.125,73,45,40
320.125,320.20834,74,45,40
320.25,320.33334,74,45,40
320.375,320.45834,74,45,40
320.5,320.625,75,45,40
320.625,320.70834,76,45,40
320.75,320.83334,76,45,40
320.875,320.95834,76,45,40
321.0,321.125,76,45,40
321.125,321.20834,77,45,40
321.25,321.33334,77,45,40
321.375,321.45834,77,45,40
321.5,321.625,78,45,40
321.625,321.70834,79,45,40
321.75,321.83334,79,45,40
321.875,321.95834,79,45,40
322.0,322.125,78,45,40
322.125,322.20834,79,45,40
322.25,322.33334,79,45,40
322.375,322.45834,79,45,40
322.5,322.625,78,45,40
322.625,322.70834,79,45,40
322.75,322.83334,79,45,40
322.875,322.95834,79,45,40
323.0,323.125,79,45,40
323.125,323.20834,80,45,40
323.25,323.33334,80,45,40
323.375,323.45834,80,45,40
323.5,323.625,80,45,40
323.625,323.70834,81,47,40
323.75,323.83334,81,49,40
323.875,323.95834,81,51,40
324.0,324.08334,81,53,40
324.125,324.20834,81,55,40
324.25,324.33334,81,57,40
324.375,324.45834,81,60,40
324.5,324.58334,81,63,40
324.625,324.70834,81,66,40
324.75,324.83334,81,69,40
324.875,324.95834,79,72,40
325.0,325.125,79,75,40
325.125,325.20834,77,45,40
325.25,325.33334,77,45,40
325.375,325.45834,76,45,40
325.5,325.625,76,45,40
325.625,325.70834,74,47,40
325.75,325.83334,82,49,40
325.875,325.95834,82,51,40
326.0,326.08334,82,53,40
326.125,326.20834,82,55,40
326.25,326.33334,82,57,40
326.375,326.45834,82,60,40
326.5,326.58334,82,63,40
326.625,326.70834,82,66,40
326.75,326.83334,82,69,40
326.875,326.95834,81,72,40
327.0,327.125,81,75,40
327.125,327.20834,79,45,40
327.25,327.33334,79,45,40
327.375,327.45834,77,45,40
327.5,327.625,77,45,40
327.625,327.70834,76,45,40
327.75,327.83334,77,45,40
327.875,327.95834,79,45,40
328.0,328.08334,81,45,40
328.125,328.20834,82,45,40
328.25,328.33334,84,45,40
328.375,328.45834,86,45,40
328.5,328.58334,88,45,40
328.625,328.70834,89,45,40
328.75,328.83334,91,45,40
328.875,328.95834,93,45,40
329.0,329.08334,94,45,40
329.125,329.20834,96,45,40
329.25,329.33334,98,45,40
329.375,329.45834,100,45,40
329.5,329.58334,100,45,40
329.625,329.70834,100,45,40
329.75,329.83334,100,45,40
329.875,329.95834,100,45,40
330.0,330.08334,100,45,40
330.125,330.20834,100,45,40
330.25,330.33334,100,45,40
330.375,330.45834,100,45,40
330.5,330.9896,101,45,40
331.0,331.125,80,45,40
331.125,331.20834,81,45,40
331.25,331.33334,81,45,40
331.375,331.45834,81,45,40
331.5,331.625,78,45,40
331.625,331.70834,79,45,40
331.75,331.83334,79,45,40
331.875,331.95834,79,45,40
332.0,332.125,83,45,40
332.125,332.20834,84,45,40
332.25,332.33334,84,45,40
332.375,332.45834,84,45,40
332.5,332.625,80,45,40
332.625,332.70834,81,45,40
332.75,332.83334,81,45,40
332.875,332.95834,81,45,40
333.0,333.125,76,45,40
333.125,333.20834,77,45,40
333.25,333.33334,77,45,40
333.375,333.45834,77,45,40
333.5,333.625,78,45,40
333.625,333.70834,79,45,40
333.75,333.83334,79,45,40
333.875,333.95834,79,45,40
334.0,334.125,83,45,40
334.125,334.20834,84,45,40
334.25,334.33334,84,45,40
334.375,334.45834,84,45,40
334.5,334.625,80,45,40
334.625,334.70834,81,45,40
334.75,334.83334,81,45,40
334.875,334.95834,81,45,40
335.0,335.125,88,45,40
335.125,335.20834,89,45,40
335.25,335.33334,89,45,40
335.375,335.45834,89,45,40
335.5,335.625,82,45,40
335.625,335.70834,83,45,40
335.75,335.83334,91,45,40
335.875,335.95834,91,45,40
336.0,336.125,91,45,40
336.125,336.20834,79,45,40
336.25,336.33334,91,45,40
336.375,336.45834,91,45,40
336.5,336.625,91,45,40
336.625,336.70834,79,45,40
336.75,336.83334,91,45,40
336.875,336.95834,91,45,40
337.0,337.125,89,45,40
337.125,337.20834,77,45,40
337.25,337.33334,89,45,40
337.375,337.45834,89,45,40
337.5,337.625,88,45,40
337.625,337.70834,76,45,40
337.75,337.83334,88,45,40
337.875,337.95834,88,45,40
338.0,338.125,86,45,40
338.125,338.20834,74,45,40
338.25,338.33334,86,45,40
338.375,338.45834,86,45,40
338.5,338.625,84,45,40
338.625,338.70834,72,45,40
338.75,338.83334,84,45,40
338.875,338.95834,84,45,40
339.0,339.125,86,45,40
339.125,339.20834,74,45,40
339.25,339.33334,86,45,40
339.375,339.45834,86,45,40
339.5,339.625,88,45,40
339.625,339.70834,76,45,40
339.75,339.83334,88,45,40
339.875,339.95834,88,45,40
340.0,340.125,88,45,40
340.125,340.20834,76,45,40
340.25,340.33334,88,45,40
340.375,340.45834,88,45,40
340.5,340.58334,89,45,40
340.625,340.70834,77,45,40
340.75,340.83334,83,45,40
340.875,340.95834,86,45,40
341.0,341.08334,89,45,40
341.125,341.20834,86,45,40
341.25,341.33334,89,45,40
341.375,341.45834,86,45,40
341.5,341.625,83,45,40
341.625,341.70834,84,45,40
341.75,341.83334,84,45,40
341.875,341.95834,84,45,40
342.0,342.125,78,45,40
342.125,342.20834,79,45,40
342.25,342.33334,79,45,40
342.375,342.45834,79,45,40
342.5,342.625,80,45,40
342.625,342.70834,81,45,40
342.75,342.83334,81,45,40
342.875,342.95834,81,45,40
343.0,343.125,82,45,40
343.125,343.20834,83,45,40
343.25,343.33334,83,45,40
343.375,343.45834,83,45,40
343.5,343.625,83,45,40
343.625,343.70834,84,45,40
343.75,343.83334,84,45,40
343.875,343.95834,84,45,40
344.0,344.125,85,45,40
344.125,344.20834,86,45,40
344.25,344.33334,86,45,40
344.375,344.45834,86,45,40
344.5,344.625,87,45,40
344.625,344.70834,88,45,40
344.75,344.83334,88,45,40
344.875,344.95834,88,45,40
345.0,345.125,89,60,40
345.125,345.20834,77,60,40
345.25,345.33334,89,60,40
345.375,345.45834,86,60,40
345.5,345.625,83,30,40
345.625,345.70834,84,30,40
345.75,345.83334,84,30,40
345.875,345.95834,84,30,40
346.0,346.125,78,30,40
346.125,346.20834,79,30,40
346.25,346.33334,79,30,40
346.375,346.45834,79,30,40
346.5,346.625,80,30,40
346.625,346.70834,81,30,40
346.75,346.83334,81,30,40
346.875,346.95834,81,30,40
347.0,347.125,83,30,40
347.125,347.20834,83,30,40
347.25,347.33334,83,30,40
347.375,347.45834,83,30,40
347.5,347.625,83,30,40
347.625,347.70834,84,30,40
347.75,347.83334,84,30,40
347.875,347.95834,84,30,40
348.0,348.125,85,30,40
348.125,348.20834,86,30,40
348.25,348.33334,86,30,40
348.375,348.45834,86,30,40
348.5,348.625,87,30,40
348.625,348.70834,88,30,40
348.75,348.83334,88,30,40
348.875,348.95834,88,30,40
349.0,349.125,89,60,40
349.125,349.20834,77,60,40
349.25,349.33334,89,60,40
349.375,349.45834,86,60,40
349.5,349.58334,83,45,40
349.625,349.70834,84,45,40
349.75,349.83334,84,45,40
349.875,349.95834,84,45,40
350.0,350.08334,89,60,40
350.125,350.20834,77,60,40
350.25,350.33334,89,60,40
350.375,350.45834,86,60,40
350.5,350.58334,83,45,40
350.625,350.70834,84,45,40
350.75,350.83334,84,45,40
350.875,350.95834,84,45,40
351.0,351.08334,89,60,40
351.125,351.20834,77,60,40
351.25,351.33334,89,60,40
351.375,351.45834,86,60,40
351.5,351.58334,83,45,40
351.625,351.70834,84,45,40
351.75,351.83334,86,46,40
351.875,351.95834,84,47,40
352.0,352.08334,81,48,40
352.125,352.20834,82,49,40
352.25,352.33334,84,50,40
352.375,352.45834,82,51,40
352.5,352.58334,80,52,40
352.625,352.70834,81,53,40
352.75,352.83334,82,54,40
352.875,352.95834,81,55,40
353.0,353.08334,78,56,40
353.125,353.20834,79,57,40
353.25,353.33334,76,58,40
353.375,353.45834,77,60,40
353.5,353.625,77,45,40
353.625,353.70834,76,45,40
353.75,353.83334,76,45,40
353.875,353.95834,76,45,40
354.0,354.125,75,45,40
354.125,354.20834,76,45,40
354.25,354.33334,76,45,40
354.375,354.45834,76,45,40
354.5,354.625,75,45,40
354.625,354.70834,76,45,40
354.75,354.83334,76,45,40
354.875,354.95834,76,45,40
355.0,355.125,77,45,40
355.125,355.20834,74,45,40
355.25,355.33334,74,45,40
355.375,355.45834,74,45,40
355.5,355.625,74,45,40
355.625,355.70834,72,45,40
355.75,355.83334,72,45,40
355.875,355.95834,72,45,40
356.0,356.125,71,45,40
356.125,356.20834,72,45,40
356.25,356.33334,72,45,40
356.375,356.45834,72,45,40
356.5,356.625,71,45,40
356.625,356.70834,72,45,40
356.75,356.83334,72,45,40
356.875,356.95834,72,45,40
357.0,357.125,73,45,40
357.125,357.20834,74,45,40
357.25,357.33334,74,45,40
357.375,357.45834,74,45,40
357.5,357.625,75,45,40
357.625,357.70834,76,45,40
357.75,357.83334,76,45,40
357.875,357.95834,76,45,40
358.0,358.125,73,45,40
358.125,358.20834,74,45,40
358.25,358.33334,74,45,40
358.375,358.45834,74,45,40
358.5,358.625,75,45,40
358.625,358.70834,76,45,40
358.75,358.83334,76,45,40
358.875,358.95834,76,45,40
359.0,359.125,76,45,40
359.125,359.20834,77,45,40
359.25,359.33334,77,45,40
359.375,359.45834,77,45,40
359.5,359.625,78,45,40
359.625,359.70834,79,45,40
359.75,359.83334,79,45,40
359.875,359.95834,79,45,40
360.0,360.125,78,45,40
360.125,360.20834,79,45,40
360.25,360.33334,79,45,40
360.375,360.45834,79,45,40
360.5,360.625,78,45,40
360.625,360.70834,79,45,40
360.75,360.83334,79,45,40
360.875,360.95834,79,45,40
361.0,361.125,79,45,40
361.125,361.20834,80,45,40
361.25,361.33334,80,45,40
361.375,361.45834,80,45,40
361.5,361.625,80,45,40
361.625,361.70834,81,47,40
361.75,361.83334,81,49,40
361.875,361.95834,81,51,40
362.0,362.08334,81,53,40
362.125,362.20834,81,55,40
362.25,362.33334,81,57,40
362.375,362.45834,81,60,40
362.5,362.58334,81,63,40
362.625,362.70834,81,66,40
362.75,362.83334,81,69,40
362.875,362.95834,79,72,40
363.0,363.125,79,75,40
363.125,363.20834,77,45,40
363.25,363.33334,77,45,40
363.375,363.45834,76,45,40
363.5,363.625,76,45,40
363.625,363.70834,74,47,40
363.75,363.83334,82,49,40
363.875,363.95834,82,51,40
364.0,364.08334,82,53,40
364.125,364.20834,82,55,40
364.25,364.33334,82,57,40
364.375,364.45834,82,60,40
364.5,364.58334,82,63,40
364.625,364.70834,82,66,40
364.75,364.83334,82,69,40
364.875,364.95834,81,72,40
365.0,365.125,81,75,40
365.125,365.20834,79,45,40
365.25,365.33334,79,45,40
365.375,365.45834,77,45,40
365.5,365.625,77,45,40
365.625,365.70834,76,45,40
365.75,365.83334,77,45,40
365.875,365.95834,79,45,40
366.0,366.08334,81,45,40
366.125,366.20834,82,45,40
366.25,366.33334,84,45,40
366.375,366.45834,86,45,40
366.5,366.58334,88,45,40
366.625,366.70834,89,45,40
366.75,366.83334,91,45,40
366.875,366.95834,93,45,40
367.0,367.08334,94,45,40
367.125,367.20834,96,45,40
367.25,367.33334,98,45,40
367.375,367.45834,100,45,40
367.5,367.58334,100,45,40
367.625,367.70834,100,45,40
367.75,367.83334,100,45,40
367.875,367.95834,100,45,40
368.0,368.08334,100,45,40
368.125,368.20834,100,45,40
368.25,368.33334,100,45,40
368.375,368.45834,100,45,40
368.5,368.9896,101,45,40
372.375,372.73438,73,45,40
372.75,373.125,72,45,40
373.125,373.5,71,45,40
373.5,373.875,72,45,40
373.875,374.25,71,45,40
374.25,374.625,72,45,40
374.625,375.0,71,45,40
375.0,375.375,72,45,40
375.375,375.73438,74,45,40
375.75,376.125,76,45,40
376.125,376.5,74,46,40
376.5,376.875,72,48,40
376.875,377.25,74,50,40
377.25,377.625,76,52,40
377.625,378.0,77,54,40
378.0,378.375,79,56,40
378.375,378.73438,80,58,40
378.75,380.25,81,60,40
380.25,381.0,82,60,40
381.0,381.73438,83,53,40
381.75,382.48438,84,45,40
382.5,384.0,72,75,40
384.0,384.73438,68,45,40
385.5,387.0,73,45,40
387.0,387.73438,70,60,40
388.5,389.60938,76,45,40
389.625,390.0,85,45,40
390.0,390.375,84,45,40
390.375,390.73438,76,45,40
390.75,392.25,79,45,40
392.25,392.98438,77,45,40
396.375,396.73438,73,45,40
396.75,397.125,72,45,40
397.125,397.5,71,45,40
397.5,397.875,72,45,40
397.875,398.25,71,45,40
398.25,398.625,72,45,40
398.625,399.0,71,45,40
399.0,399.375,72,45,40
399.375,399.73438,74,45,40
399.75,400.125,76,45,40
400.125,400.5,74,46,40
400.5,400.875,72,48,40
400.875,401.25,74,50,40
401.25,401.625,76,52,40
401.625,402.0,77,54,40
402.0,402.375,79,56,40
402.375,402.73438,80,58,40
402.75,404.25,81,60,40
404.25,405.0,82,60,40
405.0,405.73438,83,53,40
405.75,406.48438,84,45,40
406.5,408.0,72,75,40
408.0,408.73438,68,45,40
409.5,411.0,73,45,40
411.0,411.73438,70,60,40
412.5,413.60938,76,45,40
413.625,414.0,85,45,40
414.0,414.375,84,45,40
414.375,414.73438,76,45,40
414.75,416.25,79,45,40
416.25,416.98438,77,45,40
419.625,419.98438,77,45,40
420.0,420.35938,79,45,40
420.375,420.73438,80,45,40
420.75,421.48438,79,45,40
422.625,423.0,89,45,40
423.0,423.375,86,45,40
423.375,423.73438,84,45,40
423.75,424.10938,83,45,40
424.125,424.5,71,45,40
424.5,424.875,72,46,40
424.875,425.25,71,47,40
425.25,425.625,72,48,40
425.625,426.0,73,49,40
426.0,426.375,74,51,40
426.375,426.73438,71,53,40
426.75,427.125,67,55,40
427.125,427.5,74,57,40
427.5,427.875,72,59,40
427.875,428.25,65,61,40
428.25,428.625,63,63,40
428.625,429.0,65,65,40
429.0,429.35938,63,67,40
429.375,429.75,68,69,40
429.375,430.48438,60,69,40
429.75,430.48438,67,71,40
430.5,431.60938,72,75,40
431.625,432.0,72,75,40
432.0,432.375,71,65,40
432.375,432.73438,67,55,40
432.75,433.10938,67,45,40
433.125,433.5,67,45,40
433.5,433.875,68,48,40
433.875,434.25,67,51,40
434.25,434.625,68,54,40
434.625,435.0,69,57,40
435.0,435.375,70,60,40
435.375,435.73438,71,63,40
435.75,436.5,72,67,40
436.5,437.60938,84,75,40
437.625,438.0,86,75,40
438.0,438.375,84,65,40
438.375,438.73438,83,55,40
438.75,439.10938,84,45,40
439.125,439.5,76,45,40
439.5,439.875,77,45,40
439.875,440.25,76,45,40
440.25,440.625,77,45,40
440.625,441.0,75,50,40
441.0,441.375,74,55,40
441.375,441.73438,79,60,40
441.75,442.125,75,65,40
442.125,442.5,79,70,40
442.5,443.60938,84,75,40
443.625,444.0,86,68,40
444.0,444.375,84,61,40
444.375,444.73438,83,53,40
444.75,445.125,84,45,40
445.125,445.5,86,63,40
445.5,445.875,84,45,40
445.875,446.23438,83,45,40
446.25,446.625,84,45,40
446.625,447.0,86,63,40
447.0,447.375,84,45,40
447.375,447.73438,83,45,40
447.75,448.5,84,45,40
448.5,448.875,85,48,40
448.875,449.25,84,50,40
449.25,449.625,82,52,40
449.625,450.0,80,54,40
450.0,450.375,79,56,40
450.375,450.73438,77,58,40
450.75,451.125,76,45,40
451.125,451.5,77,45,40
451.5,451.875,79,45,40
451.875,452.25,77,45,40
452.25,452.625,76,45,40
452.625,453.0,77,45,40
453.0,453.375,75,45,40
453.375,453.73438,73,45,40
453.75,454.125,72,45,40
454.125,454.5,71,45,40
454.5,454.875,72,45,40
454.875,455.25,71,45,40
455.25,455.625,72,45,40
455.625,456.0,71,45,40
456.0,456.375,72,45,40
456.375,456.73438,74,45,40
456.75,457.125,76,45,40
457.125,457.5,74,48,40
457.5,457.875,72,51,40
457.875,458.25,74,55,40
458.25,458.625,76,59,40
458.625,459.0,77,63,40
459.0,459.375,79,67,40
459.375,459.73438,80,71,40
459.75,461.25,81,75,40
461.25,462.0,82,75,40
462.0,462.73438,83,60,40
462.75,463.48438,84,45,40
463.5,465.0,72,60,40
465.0,465.73438,68,45,40
466.5,468.0,73,45,40
468.0,468.73438,70,60,40
469.5,470.60938,76,45,40
470.625,471.0,85,45,40
471.0,471.375,84,45,40
471.375,471.73438,76,45,40
471.75,473.25,79,45,40
473.25,473.98438,77,45,40
476.625,476.98438,77,45,40
477.0,477.35938,79,45,40
477.375,477.73438,80,45,40
477.75,478.48438,79,45,40
479.625,480.0,89,45,40
480.0,480.375,86,45,40
480.375,480.73438,84,45,40
480.75,481.10938,83,45,40
481.125,481.5,71,45,40
481.5,481.875,72,46,40
481.875,482.25,71,47,40
482.25,482.625,72,48,40
482.625,483.0,73,49,40
483.0,483.375,74,51,40
483.375,483.73438,71,53,40
483.75,484.125,67,55,40
484.125,484.5,74,57,40
484.5,484.875,72,59,40
484.875,485.25,65,61,40
485.25,485.625,63,63,40
485.625,486.0,65,65,40
486.0,486.35938,63,67,40
486.375,486.75,68,69,40
486.375,487.48438,60,69,40
486.75,487.48438,67,71,40
487.5,488.60938,72,75,40
488.625,489.0,72,75,40
489.0,489.375,71,65,40
489.375,489.73438,67,55,40
489.75,490.10938,67,45,40
490.125,490.5,67,45,40
490.5,490.875,68,48,40
490.875,491.25,67,51,40
491.25,491.625,68,54,40
491.625,492.0,69,57,40
492.0,492.375,70,60,40
492.375,492.73438,71,63,40
492.75,493.5,72,67,40
493.5,494.60938,84,75,40
494.625,495.0,86,75,40
495.0,495.375,84,65,40
495.375,495.73438,83,55,40
495.75,496.10938,84,45,40
496.125,496.5,76,45,40
496.5,496.875,77,45,40
496.875,497.25,76,45,40
497.25,497.625,77,45,40
497.625,498.0,75,50,40
498.0,498.375,74,55,40
498.375,498.73438,79,60,40
498.75,499.125,75,65,40
499.125,499.5,79,70,40
499.5,500.60938,84,75,40
500.625,501.0,86,68,40
501.0,501.375,84,61,40
501.375,501.73438,83,53,40
501.75,502.125,84,45,40
502.125,502.5,86,63,40
502.5,502.875,84,45,40
502.875,503.23438,83,45,40
503.25,503.625,84,45,40
503.625,504.0,86,63,40
504.0,504.375,84,45,40
504.375,504.73438,83,45,40
504.75,505.5,84,45,40
505.5,505.875,85,48,40
505.875,506.25,84,50,40
506.25,506.625,82,52,40
506.625,507.0,80,54,40
507.0,507.375,79,56,40
507.375,507.73438,77,58,40
507.75,508.125,76,45,40
508.125,508.5,77,45,40
508.5,508.875,79,45,40
508.875,509.25,77,45,40
509.25,509.625,76,45,40
509.625,510.0,77,45,40
510.0,510.375,75,45,40
510.375,510.73438,73,45,40
510.75,511.125,72,45,40
511.125,511.5,71,45,40
511.5,511.875,72,45,40
511.875,512.25,71,45,40
512.25,512.625,72,45,40
512.625,513.0,71,45,40
513.0,513.375,72,45,40
513.375,513.7344,74,45,40
513.75,514.125,76,45,40
514.125,514.5,74,48,40
514.5,514.875,72,51,40
514.875,515.25,74,55,40
515.25,515.625,76,59,40
515.625,516.0,77,63,40
516.0,516.375,79,67,40
516.375,516.7344,80,71,40
516.75,518.25,81,75,40
518.25,519.0,82,75,40
519.0,519.7344,83,60,40
519.75,520.4844,84,45,40
520.5,522.0,72,60,40
522.0,522.7344,68,45,40
523.5,525.0,73,45,40
525.0,525.7344,70,60,40
526.5,527.6094,76,45,40
527.625,528.0,85,45,40
528.0,528.375,84,45,40
528.375,528.7344,76,45,40
528.75,530.25,79,45,40
530.25,530.9844,77,45,40
552.3333,552.81946,72,45,40
552.8333,552.9861,77,45,40
553.0,553.3333,77,45,40
553.3333,553.6528,76,45,40
553.6667,554.6528,76,45,40
554.6667,554.7361,77,45,40
554.75,554.81946,76,45,40
554.8333,554.9028,74,45,40
554.9167,554.9861,76,45,40
555.0,555.5,77,45,40
555.5,555.6528,74,45,40
555.6667,555.75,74,45,40
555.75,555.8333,76,45,40
555.8333,556.0,74,45,40
556.0,556.31946,72,45,40
556.3333,557.44446,72,45,40
557.6667,557.76385,74,45,40
557.7778,557.875,76,45,40
557.88885,557.9861,74,45,40
558.0,558.0972,73,45,40
558.1111,558.2083,74,45,40
558.2222,558.31946,84,45,40
558.3333,558.43054,76,45,40
558.44446,558.5417,77,45,40
558.55554,558.6528,76,45,40
558.6667,558.76385,75,45,40
558.7778,558.875,76,45,40
558.88885,558.9861,84,45,40
559.0,559.0972,74,45,40
559.1111,559.2083,76,45,40
559.2222,559.31946,74,45,40
559.3333,559.43054,73,45,40
559.44446,559.5417,74,45,40
559.55554,559.6528,84,45,40
559.6667,559.76385,76,45,40
559.7778,559.875,77,45,40
559.88885,559.9861,76,45,40
560.0,560.0972,75,45,40
560.1111,560.2083,76,45,40
560.2222,560.31946,84,45,40
560.3333,560.43054,77,45,40
560.44446,560.5417,79,45,40
560.55554,560.6528,77,45,40
560.6667,560.76385,76,45,40
560.7778,560.875,77,45,40
560.88885,560.9861,84,45,40
561.0,561.0972,78,45,40
561.1111,561.2083,79,45,40
561.2222,561.31946,78,45,40
561.3333,561.43054,79,45,40
561.44446,561.5417,78,45,40
561.55554,561.6528,79,45,40
561.6667,561.7361,79,45,40
561.75,561.81946,81,45,40
561.8333,561.9028,79,45,40
561.9167,561.9861,81,45,40
562.0,562.06946,79,45,40
562.0833,562.1528,81,45,40
562.1667,562.2361,79,45,40
562.25,562.31946,81,45,40
562.3333,562.4028,79,45,40
562.4167,562.4861,81,45,40
562.5,562.56946,79,45,40
562.5833,562.6528,81,45,40
562.6667,562.7361,79,45,40
562.75,562.81946,81,45,40
562.8333,562.9028,79,45,40
562.9167,562.9861,81,45,40
563.0,563.06946,80,45,40
563.0833,563.1528,81,45,40
563.1667,563.2361,80,45,40
563.25,563.31946,81,45,40
563.3333,563.4028,80,45,40
563.4167,563.4861,81,45,40
563.5,563.56946,80,45,40
563.5833,563.6528,81,45,40
563.6667,563.7361,81,45,40
563.75,563.81946,82,45,40
563.8333,563.9028,81,45,40
563.9167,563.9861,82,45,40
564.0,564.06946,81,45,40
564.0833,564.1528,82,45,40
564.1667,564.2361,81,45,40
564.25,564.31946,82,45,40
564.3333,564.4028,84,45,40
564.4167,564.4861,86,45,40
564.5,564.56946,84,45,40
564.5833,564.6528,86,45,40
564.6667,564.7361,84,45,40
564.75,564.81946,86,45,40
564.8333,564.9028,84,45,40
564.9167,564.9861,86,45,40
565.0,565.06946,84,45,40
565.0833,565.1528,86,45,40
565.1667,565.2361,84,45,40
565.25,565.31946,86,45,40
565.3333,565.4028,84,45,40
565.4167,565.4861,86,45,40
565.5,565.56946,84,45,40
565.5833,565.6528,86,45,40
565.6667,565.7361,84,45,40
565.75,565.81946,86,45,40
565.8333,565.9028,84,45,40
565.9167,565.9861,82,45,40
566.0,566.06946,81,45,40
566.0833,566.1528,79,45,40
566.1667,566.2361,77,45,40
566.25,566.31946,76,45,40
566.3333,566.4028,74,45,40
566.4167,566.4861,76,45,40
566.5,566.56946,74,45,40
566.5833,566.6528,76,45,40
566.6667,566.7361,74,45,40
566.75,566.81946,76,45,40
566.8333,566.9028,74,45,40
566.9167,566.9861,76,45,40
567.0,567.06946,86,45,40
567.0833,567.1528,88,45,40
567.1667,567.2361,86,45,40
567.25,567.31946,88,45,40
567.3333,567.4028,86,45,40
567.4167,567.4861,88,45,40
567.5,567.56946,86,45,40
567.5833,567.6528,88,45,40
567.6667,567.7361,86,45,40
567.75,567.81946,88,45,40
567.8333,567.9028,86,45,40
567.9167,567.9861,88,45,40
568.0,568.06946,86,45,40
568.0833,568.1528,88,45,40
568.1667,568.2361,86,45,40
568.25,568.31946,88,45,40
568.3333,568.43054,86,45,40
568.44446,568.5417,86,45,40
568.55554,568.6528,84,45,40
568.6667,568.76385,82,45,40
568.7778,568.875,81,45,40
568.88885,568.9861,79,45,40
569.0,569.0972,77,45,40
569.1111,569.2083,76,45,40
569.2222,569.31946,79,45,40
569.3333,569.43054,77,45,40
569.44446,569.5417,81,47,40
569.55554,569.6528,79,49,40
569.6667,569.76385,82,51,40
569.7778,569.875,81,53,40
569.88885,569.9861,84,55,40
570.0,570.0972,82,57,40
570.1111,570.2083,86,59,40
570.2222,570.31946,84,61,40
570.3333,570.4028,88,63,40
570.4167,570.4861,86,64,40
570.5,570.56946,89,65,40
570.5833,570.6528,88,66,40
570.6667,570.7361,91,67,40
570.75,570.81946,89,69,40
570.8333,570.9028,93,71,40
570.9167,570.9861,91,73,40
571.0,571.31946,94,75,40
571.5,571.6528,88,75,40
571.6667,573.0,91,75,40
573.0,573.6528,89,60,40
575.0,575.1666,84,45,40
575.1666,575.3333,83,45,40
575.3333,575.5,84,45,40
575.5,575.6528,79,45,40
575.6666,576.31946,81,45,40
577.6666,577.7778,84,45,40
577.7778,577.88885,86,45,40
577.88885,578.0,84,45,40
578.0,578.1111,83,45,40
578.1111,578.2222,84,45,40
578.2222,578.3333,79,45,40
578.3333,578.9861,81,45,40
579.0,579.1111,81,45,40
579.1111,579.2222,89,45,40
579.2222,579.3333,88,45,40
579.3333,579.44446,89,45,40
579.44446,579.55554,88,45,40
579.55554,579.6528,89,45,40
579.6666,580.31946,83,45,40
608.3333,610.0,84,45,40
610.0,610.1666,82,45,40
610.1666,610.3333,81,45,40
610.3333,611.0,79,45,40
611.0,611.6528,77,45,40
611.6666,612.3333,75,45,40
612.3333,612.6528,76,45,40
613.3333,614.0,67,45,40
614.0,614.3194,68,45,40
614.3333,614.6528,69,45,40
624.3333,624.5,81,45,40
624.5,624.6666,80,45,40
624.6666,624.8333,81,45,40
624.8333,624.9861,77,45,40
625.0,625.6528,79,45,40
627.0,627.09717,81,45,40
627.1111,627.2083,82,45,40
627.22217,627.3194,81,45,40
627.3333,627.43054,80,45,40
627.4444,627.5416,81,45,40
627.55554,627.6528,77,45,40
627.6666,628.3194,79,45,40
631.0,632.4444,91,45,40
632.4444,632.55554,89,45,40
632.55554,632.6666,91,45,40
632.6666,632.7778,93,45,40
632.7778,632.88885,91,45,40
632.88885,632.9861,89,45,40
633.0,633.09717,89,45,40
633.1111,633.2083,88,45,40
633.22217,633.3194,89,45,40
633.3333,633.43054,91,45,40
633.4444,633.5416,89,45,40
633.55554,633.6528,88,45,40
633.6666,633.76385,88,45,40
633.7778,633.875,86,45,40
633.88885,633.9861,88,45,40
634.0,634.09717,89,45,40
634.1111,634.2083,88,45,40
634.22217,634.3194,86,45,40
634.3333,634.43054,86,45,40
634.4444,634.5416,84,45,40
634.55554,634.6528,86,45,40
634.6666,634.76385,88,45,40
634.7778,634.875,86,45,40
634.88885,634.9861,84,45,40
635.1111,635.2083,86,45,40
635.22217,635.3194,85,45,40
635.3333,635.43054,86,45,40
635.4444,635.5416,85,45,40
635.55554,635.6528,86,45,40
635.6666,635.7361,88,45,40
635.75,635.8194,89,45,40
635.8333,635.9028,88,45,40
635.9166,635.9861,89,45,40
636.0,636.0694,88,45,40
636.0833,636.1528,89,45,40
636.1666,636.2361,88,45,40
636.25,636.3194,89,45,40
636.3333,636.4028,88,45,40
636.4166,636.4861,89,45,40
636.5,636.5694,88,45,40
636.5833,636.6528,89,45,40
636.6666,636.7361,88,45,40
636.75,636.8194,89,45,40
636.8333,636.9028,88,45,40
636.9166,636.9861,89,45,40
637.0,637.0694,89,45,40
637.0833,637.1528,91,45,40
637.1666,637.2361,89,45,40
637.25,637.3194,91,45,40
637.3333,637.4028,89,45,40
637.4166,637.4861,91,45,40
637.5,637.5694,89,45,40
637.5833,637.6528,91,45,40
637.6666,637.7361,86,45,40
637.75,637.8194,88,45,40
637.8333,637.9028,86,45,40
637.9166,637.9861,88,45,40
638.0,638.0694,86,45,40
638.0833,638.1528,88,45,40
638.1666,638.2361,86,45,40
638.25,638.3194,88,45,40
638.3333,638.6528,84,45,40
638.6666,638.88885,79,45,40
638.6666,638.88885,88,45,40
639.3333,639.55554,79,45,40
639.3333,639.55554,88,45,40
640.0,640.22217,77,45,40
640.0,640.22217,88,45,40
640.6666,640.88885,77,45,40
640.6666,640.88885,86,45,40
641.3333,641.6528,76,45,40
641.3333,641.6528,84,45,40
642.0,642.1528,77,45,40
642.1666,642.3194,83,45,40
642.6666,642.8194,79,45,40
642.8333,642.9861,84,45,40
643.0,643.22217,81,63,40
643.3333,643.55554,83,45,40
643.6666,643.88885,84,45,40
644.0,644.1666,76,45,40
644.1666,644.3194,91,45,40
644.6666,644.8333,76,45,40
644.8333,644.9861,91,45,40
645.3333,645.5,76,45,40
645.5,645.6528,89,45,40
646.0,646.1666,74,45,40
646.1666,646.3194,89,45,40
646.6666,646.8333,72,45,40
646.8333,646.9861,88,45,40
647.3333,647.5,77,45,40
647.5,647.6528,86,45,40
648.0,648.1666,79,45,40
648.1666,648.3194,84,45,40
648.3333,648.55554,81,63,40
648.6666,648.88885,83,45,40
649.3333,649.5,79,45,40
649.5,649.6528,84,45,40
649.6666,649.88885,81,63,40
650.0,650.22217,83,45,40
650.6666,650.8333,79,45,40
650.8333,650.9861,84,45,40
651.0,651.22217,81,63,40
651.3333,651.55554,83,45,40
651.6666,651.7361,84,45,40
651.75,651.8194,86,45,40
651.8333,651.9028,84,45,40
651.9166,651.9861,86,45,40
652.0,652.0694,84,45,40
652.0833,652.1528,86,45,40
652.1666,652.2361,84,45,40
652.25,652.3194,86,45,40
652.3333,652.4028,84,45,40
652.4166,652.4861,86,45,40
652.5,652.5694,84,45,40
652.5833,652.6528,86,45,40
652.6666,652.7361,84,45,40
652.75,652.8194,86,45,40
652.8333,652.9028,84,45,40
652.9166,652.9861,86,45,40
653.0,653.0694,84,45,40
653.0833,653.1528,86,45,40
653.1666,653.2361,84,45,40
653.24994,653.3194,86,45,40
653.3333,653.4028,84,45,40
653.4166,653.4861,86,45,40
653.49994,653.5694,84,45,40
653.5833,653.6528,86,45,40
653.6666,653.7361,84,45,40
653.74994,653.8194,86,45,40
653.8333,653.9028,84,45,40
653.9166,653.9861,86,46,40
653.99994,654.0833,83,46,40
654.0833,654.1666,84,47,40
654.1666,654.3194,89,48,40
654.3333,654.6666,89,50,40
654.6666,654.9861,88,54,40
654.99994,655.99994,88,58,40
655.99994,656.0833,89,70,40
656.0833,656.1666,88,71,40
656.1666,656.24994,86,72,40
656.24994,656.3333,88,73,40
656.3333,656.6666,89,75,40
656.6666,656.9861,86,75,40
656.99994,657.3194,86,45,40
657.3333,657.6528,84,45,40
657.6666,658.7778,84,45,40
658.99994,659.0694,86,45,40
659.0833,659.1528,88,45,40
659.1666,659.2361,86,45,40
659.24994,659.3194,88,45,40
659.3333,659.4028,86,45,40
659.4166,659.4861,88,45,40
659.49994,659.5694,86,45,40
659.5833,659.6528,88,45,40
659.6666,659.7361,88,45,40
659.74994,659.8194,89,45,40
659.8333,659.9028,88,45,40
659.9166,659.9861,89,45,40
659.99994,660.0694,88,45,40
660.0833,660.1528,89,45,40
660.1666,660.2361,88,45,40
660.24994,660.3194,89,45,40
660.3333,660.4028,86,45,40
660.4166,660.4861,88,45,40
660.49994,660.5694,86,45,40
660.5833,660.6528,88,45,40
660.6666,660.7361,86,45,40
660.74994,660.8194,88,45,40
660.8333,660.9028,86,45,40
660.9166,660.9861,88,45,40
660.99994,661.0694,88,45,40
661.0833,661.1528,89,45,40
661.1666,661.2361,88,45,40
661.24994,661.3194,89,45,40
661.3333,661.4028,88,45,40
661.4166,661.4861,89,45,40
661.49994,661.5694,88,45,40
661.5833,661.6528,89,45,40
661.6666,661.7361,89,45,40
661.74994,661.8194,91,45,40
661.8333,661.9028,89,45,40
661.9166,661.9861,91,45,40
661.99994,662.0694,89,45,40
662.0833,662.1528,91,45,40
662.1666,662.2361,89,45,40
662.24994,662.3194,91,45,40
662.3333,662.4028,90,45,40
662.4166,662.4861,91,45,40
662.49994,662.5694,90,45,40
662.5833,662.6528,91,45,40
662.6666,662.7361,90,45,40
662.74994,662.8194,91,45,40
662.8333,662.9028,90,45,40
662.9166,662.9861,91,45,40
662.99994,663.0694,91,45,40
663.0833,663.1528,93,45,40
663.1666,663.2361,91,45,40
663.24994,663.3194,93,45,40
663.3333,663.4028,91,45,40
663.4166,663.4861,93,45,40
663.49994,663.5694,91,45,40
663.5833,663.6528,93,45,40
663.6666,663.7361,91,45,40
663.74994,663.8194,93,45,40
663.8333,663.9028,91,45,40
663.9166,663.9861,93,45,40
663.99994,664.0694,91,45,40
664.0833,664.1528,93,45,40
664.1666,664.2361,91,45,40
664.24994,664.3194,93,45,40
664.3333,664.4028,92,45,40
664.4166,664.4861,93,45,40
664.49994,664.5694,92,45,40
664.5833,664.6528,93,45,40
664.6666,664.7361,92,45,40
664.74994,664.8194,93,45,40
664.8333,664.9028,92,45,40
664.9166,664.9861,93,45,40
664.99994,666.7778,93,45,40
666.99994,667.4861,91,45,40
667.49994,667.6528,89,45,40
667.6666,668.1666,88,45,40
668.1666,668.3194,86,45,40
668.3333,669.4444,94,45,40
669.6666,670.1666,93,45,40
670.1666,670.3194,91,45,40
670.3333,670.6666,89,45,40
670.6666,670.9861,88,45,40
670.99994,671.9861,88,45,40
671.99994,672.0694,89,45,40
672.0833,672.1528,88,45,40
672.1666,672.2361,86,45,40
672.24994,672.3194,88,45,40
672.3333,672.8194,96,45,40
672.8333,672.9861,88,45,40
672.99994,674.3333,91,45,40
674.3333,674.9861,89,45,40
692.49994,693.49994,62,60,40
693.49994,695.49994,70,60,40
695.49994,697.49994,69,60,40
697.49994,700.49994,67,60,40
700.49994,701.49994,67,60,40
701.49994,703.49994,79,75,40
703.49994,703.5694,77,75,40
703.5833,703.6527,79,75,40
703.6666,703.7361,77,75,40
703.74994,703.8194,79,75,40
703.8333,703.9027,77,75,40
703.9166,703.9861,79,75,40
703.99994,704.0694,77,75,40
704.0833,704.1527,79,75,40
704.1666,704.2361,77,75,40
704.24994,704.3194,79,75,40
704.3333,704.4027,77,75,40
704.4166,704.4861,79,75,40
704.49994,704.5694,77,75,40
704.5833,704.6527,79,75,40
704.6666,704.7361,77,75,40
704.74994,704.8194,79,75,40
704.8333,704.9027,77,75,40
704.9166,704.9861,79,75,40
704.99994,705.0694,77,75,40
705.0833,705.1527,79,75,40
705.1666,705.2361,77,75,40
705.24994,705.3194,79,75,40
705.3333,705.4027,77,75,40
705.4166,705.4861,79,75,40
705.49994,705.5694,77,75,40
705.5833,705.6527,79,75,40
705.6666,705.7361,77,75,40
705.74994,705.8194,79,75,40
705.8333,705.9861,77,75,40
705.99994,706.1527,81,75,40
706.1666,706.26385,79,75,40
706.2777,706.37494,77,75,40
706.38885,706.4861,76,75,40
706.49994,706.59717,74,75,40
706.6111,706.7083,72,75,40
706.72217,706.8194,71,75,40
706.8333,707.1527,77,75,40
707.3333,707.4861,71,75,40
707.49994,707.57806,72,45,40
707.5937,707.6718,74,45,40
707.68744,707.76556,72,45,40
707.7812,707.8593,74,45,40
707.87494,707.95306,72,45,40
707.9687,708.0468,74,45,40
708.06244,708.14056,72,45,40
708.1562,708.2343,74,45,40
708.24994,708.32806,72,45,40
708.3437,708.4218,74,45,40
708.43744,708.51556,72,45,40
708.5312,708.6093,74,45,40
708.62494,708.70306,72,45,40
708.7187,708.7968,74,45,40
708.81244,708.89056,72,45,40
708.9062,708.9843,74,45,40
708.99994,709.07806,72,45,40
709.0937,709.1718,74,45,40
709.18744,709.26556,72,45,40
709.2812,709.3593,74,45,40
709.37494,709.45306,72,45,40
709.4687,709.5468,74,45,40
709.56244,709.64056,72,45,40
709.6562,709.7343,74,45,40
709.74994,709.82806,72,45,40
709.8437,709.9218,74,45,40
709.93744,710.01556,72,45,40
710.0312,710.1093,74,45,40
710.12494,710.20306,72,45,40
710.2187,710.2968,74,45,40
710.31244,710.39056,72,45,40
710.4062,710.4843,74,45,40
710.49994,710.57806,72,45,40
710.5937,710.6718,74,45,40
710.68744,710.76556,72,45,40
710.7812,710.8593,74,45,40
710.87494,710.95306,72,45,40
710.9687,711.0468,74,45,40
711.06244,711.14056,72,45,40
711.1562,711.2343,74,45,40
711.24994,711.32806,72,45,40
711.3437,711.4218,74,45,40
711.43744,711.51556,72,45,40
711.5312,711.6093,74,45,40
711.62494,711.70306,72,45,40
711.7187,711.7968,74,45,40
711.81244,711.89056,72,45,40
711.9062,711.9843,74,45,40
711.99994,712.07806,72,45,40
712.0937,712.1718,74,45,40
712.18744,712.26556,72,45,40
712.2812,712.3593,74,45,40
712.37494,712.45306,72,45,40
712.4687,712.5468,74,45,40
712.56244,712.64056,72,45,40
712.6562,712.7343,74,45,40
712.74994,712.82806,72,45,40
712.8437,712.9218,74,45,40
712.93744,713.01556,72,45,40
713.0312,713.1093,74,45,40
713.12494,713.20306,72,45,40
713.2187,713.2968,74,45,40
713.31244,713.39056,72,45,40
713.4062,713.4843,74,45,40
713.49994,713.57806,72,45,40
713.5937,713.6718,74,45,40
713.68744,713.76556,72,45,40
713.7812,713.8593,74,45,40
713.87494,713.95306,72,45,40
713.9687,714.0468,74,45,40
714.06244,714.14056,72,45,40
714.1562,714.2343,74,45,40
714.24994,714.32806,72,45,40
714.3437,714.4218,74,45,40
714.43744,714.51556,72,45,40
714.5312,714.6093,74,45,40
714.62494,714.70306,72,45,40
714.7187,714.7968,74,45,40
714.81244,714.89056,72,45,40
714.9062,714.9843,74,45,40
714.99994,715.07806,72,45,40
715.0937,715.1718,74,45,40
715.18744,715.26556,72,45,40
715.2812,715.3593,74,45,40
715.37494,715.45306,72,45,40
715.4687,715.5468,74,45,40
715.56244,715.64056,72,45,40
715.6562,715.7343,74,45,40
715.74994,715.82806,72,45,40
715.8437,715.9218,74,45,40
715.93744,716.01556,72,45,40
716.0312,716.1093,74,45,40
716.12494,716.20306,72,45,40
716.2187,716.2968,74,45,40
716.31244,716.39056,72,45,40
716.4062,716.4843,74,45,40
716.49994,716.57806,72,45,40
716.5937,716.6718,74,45,40
716.68744,716.76556,72,45,40
716.7812,716.8593,74,45,40
716.87494,716.95306,72,45,40
716.9687,717.0468,74,45,40
717.06244,717.14056,72,45,40
717.1562,717.2343,74,45,40
717.24994,717.32806,72,45,40
717.3437,717.4218,74,45,40
717.43744,717.51556,72,45,40
717.5312,717.6093,74,45,40
717.62494,717.70306,72,45,40
717.7187,717.7968,74,45,40
717.81244,717.89056,72,45,40
717.9062,717.9843,74,45,40
717.99994,718.07806,84,45,40
718.0937,718.1718,86,45,40
718.18744,718.26556,84,45,40
718.2812,718.3593,86,45,40
718.37494,718.45306,84,45,40
718.4687,718.5468,86,45,40
718.56244,718.64056,84,45,40
718.6562,718.7343,86,45,40
718.74994,718.82806,84,45,40
718.8437,718.9218,86,45,40
718.93744,719.01556,84,45,40
719.0312,719.1093,86,46,40
719.12494,719.20306,84,46,40
719.2187,719.2968,86,47,40
719.31244,719.39056,84,48,40
719.4062,719.4843,86,49,40
719.49994,719.57806,84,50,40
719.5937,719.6718,86,51,40
719.68744,719.76556,84,52,40
719.7812,719.8593,86,53,40
719.87494,719.95306,84,54,40
719.9687,720.0468,86,55,40
720.06244,720.14056,84,56,40
720.1562,720.2343,86,57,40
720.24994,720.32806,84,58,40
720.3437,720.4218,86,59,40
720.43744,720.51556,84,60,40
720.5312,720.6093,86,61,40
720.62494,720.81244,82,62,40
720.81244,720.99994,81,64,40
720.99994,721.74994,79,66,40
721.74994,722.4843,80,75,40
722.49994,724.74994,81,45,40
724.74994,725.4843,77,45,40
725.49994,725.7343,74,45,40
725.74994,725.9843,62,45,40
725.99994,726.2343,62,45,40
726.24994,726.4843,58,75,40
726.49994,726.7343,70,75,40
726.74994,726.9843,70,72,40
726.99994,727.2343,58,69,40
727.24994,727.4843,70,65,40
727.49994,727.7343,70,61,40
727.74994,727.9843,70,57,40
727.99994,728.2343,72,53,40
728.24994,728.4843,74,49,40
728.49994,728.8593,67,45,40
729.24994,730.3593,76,60,40
730.37494,730.45306,77,60,40
730.4687,730.5468,76,60,40
730.56244,730.64056,74,60,40
730.6562,730.7343,76,60,40
730.74994,731.2968,84,60,40
731.31244,731.4843,76,60,40
731.49994,732.2343,77,45,40
739.74994,740.49994,82,45,40
740.49994,741.24994,79,45,40
741.24994,741.99994,76,45,40
741.99994,742.74994,72,45,40
742.74994,743.4843,70,45,40
743.49994,743.7343,69,45,40
743.74994,743.9843,57,45,40
743.99994,744.2343,60,45,40
744.49994,744.7343,60,45,40
744.74994,744.9843,65,45,40
745.24994,745.4843,65,45,40
745.49994,745.7343,69,45,40
751.99994,752.2343,82,45,40
752.24994,752.4843,79,45,40
752.74994,752.9843,79,45,40
752.99994,753.2343,76,45,40
753.49994,753.7343,76,45,40
753.74994,753.9843,72,45,40
754.24994,754.4843,72,45,40
754.49994,754.7343,70,45,40
754.99994,755.2343,70,45,40
755.24994,755.4843,67,45,40
755.49994,758.49994,69,45,40
758.49994,761.49994,71,60,40
761.49994,764.49994,74,60,40
764.49994,767.12494,77,60,40
767.49994,768.2343,77,45,40
768.24994,769.49994,72,45,40
769.74994,770.2968,74,45,40
770.31244,770.4843,70,45,40
770.49994,771.43744,69,45,40
771.43744,771.5312,70,57,40
771.5312,771.6093,67,58,40
771.62494,771.7187,69,59,40
771.7187,771.81244,67,60,40
771.81244,771.9062,69,61,40
771.9062,771.99994,67,62,40
771.99994,772.0937,69,63,40
772.0937,772.18744,67,64,40
772.18744,772.2812,69,65,40
772.2812,772.37494,67,66,40
772.37494,772.4687,69,67,40
772.4687,772.56244,67,69,40
772.56244,772.6562,69,71,40
772.6562,772.74994,67,73,40
772.74994,773.12494,72,75,40
773.12494,773.4843,67,75,40
773.49994,773.7343,69,45,40
773.74994,773.9843,60,45,40
773.99994,774.2343,65,45,40
774.24994,774.4843,69,45,40
774.49994,774.7343,65,45,40
774.74994,774.9843,60,45,40
774.99994,775.2343,57,45,40
775.24994,775.4843,60,45,40
775.49994,775.7343,65,45,40
775.74994,775.9843,69,45,40
775.99994,776.2343,65,45,40
776.24994,776.4843,60,45,40
776.49994,776.7343,56,30,40
776.74994,776.9843,59,30,40
776.99994,777.2343,65,30,40
777.24994,777.4843,68,30,40
777.49994,777.7343,65,30,40
777.74994,777.9843,59,30,40
777.99994,778.2343,56,30,40
778.24994,778.4843,59,30,40
778.49994,778.7343,65,30,40
778.74994,778.9843,68,30,40
778.99994,779.2343,65,30,40
779.24994,779.4843,59,30,40
779.49994,779.7343,56,30,40
779.74994,779.9843,62,33,40
779.99994,780.2343,65,36,40
780.24994,780.4843,68,39,40
780.49994,780.7343,65,43,40
780.74994,780.9843,62,47,40
780.99994,781.2343,56,51,40
781.24994,781.4843,62,55,40
781.49994,781.7343,65,59,40
781.74994,781.9843,68,63,40
781.99994,782.2343,65,67,40
782.24994,782.4843,62,71,40
782.49994,782.7343,59,75,40
782.74994,782.9843,62,75,40
782.99994,783.2343,65,73,40
783.24994,783.4843,71,71,40
783.49994,783.7343,65,69,40
783.74994,783.9843,62,66,40
783.99994,784.2343,59,63,40
784.24994,784.4843,62,60,40
784.49994,784.7343,65,57,40
784.74994,784.9843,71,54,40
784.99994,785.2343,65,51,40
785.24994,785.4843,62,48,40
785.49994,785.7343,60,45,40
785.74994,785.9843,65,45,40
785.99994,786.2343,72,45,40
786.24994,786.4843,60,45,40
786.49994,786.7343,65,45,40
786.74994,786.9843,69,45,40
786.99994,787.2343,58,45,40
787.24994,787.4843,62,45,40
787.49994,787.7343,69,45,40
787.74994,787.9843,58,45,40
787.99994,788.2343,62,45,40
788.24994,788.4843,67,45,40
788.49994,790.3593,65,45,40
790.37494,790.7343,66,55,40
790.74994,791.2968,67,57,40
791.31244,791.4843,64,60,40
791.49994,791.57806,64,45,40
791.5937,791.6718,65,45,40
791.68744,791.76556,64,45,40
791.7812,791.8593,65,45,40
791.87494,791.95306,64,45,40
791.9687,792.0468,65,45,40
792.06244,792.14056,64,45,40
792.1562,792.2343,65,45,40
792.24994,792.32806,64,45,40
792.3437,792.4218,65,45,40
792.43744,792.51556,64,45,40
792.5312,792.6093,65,45,40
792.62494,792.70306,64,45,40
792.7187,792.7968,65,45,40
792.81244,792.89056,64,45,40
792.9062,792.9843,65,45,40
792.99994,793.07806,64,45,40
793.0937,793.1718,65,45,40
793.18744,793.26556,64,45,40
793.2812,793.3593,65,45,40
793.37494,793.45306,64,45,40
793.4687,793.5468,65,45,40
793.56244,793.64056,64,45,40
793.6562,793.7343,65,45,40
793.74994,793.82806,64,45,40
793.8437,793.9218,65,45,40
793.93744,794.01556,64,45,40
794.0312,794.1093,65,45,40
794.12494,794.20306,64,45,40
794.2187,794.2968,65,45,40
794.31244,794.39056,64,45,40
794.4062,794.4843,65,45,40
794.49994,794.57806,76,45,40
794.5937,794.6718,77,45,40
794.68744,794.76556,76,45,40
794.7812,794.8593,77,45,40
794.87494,794.95306,76,45,40
794.9687,795.0468,77,45,40
795.06244,795.14056,76,45,40
795.1562,795.2343,77,45,40
795.24994,795.32806,76,45,40
795.3437,795.4218,77,45,40
795.43744,795.51556,76,45,40
795.5312,795.6093,77,45,40
795.62494,795.70306,76,45,40
795.7187,795.7968,77,45,40
795.81244,795.89056,76,45,40
795.9062,795.9843,77,45,40
795.99994,796.07806,76,45,40
796.0937,796.1718,77,45,40
796.18744,796.26556,76,45,40
796.2812,796.3593,77,45,40
796.37494,796.45306,76,45,40
796.4687,796.5468,77,45,40
796.56244,796.64056,76,45,40
796.6562,796.7343,77,45,40
796.74994,796.82806,76,45,40
796.8437,796.9218,77,45,40
796.93744,797.01556,76,45,40
797.0312,797.1093,77,45,40
797.12494,797.20306,76,45,40
797.2187,797.2968,77,45,40
797.31244,797.39056,76,45,40
797.4062,797.4843,77,45,40
797.49994,797.57806,76,45,40
797.5937,797.6718,77,45,40
797.68744,797.76556,76,45,40
797.7812,797.8593,77,46,40
797.87494,797.95306,76,46,40
797.9687,798.0468,77,47,40
798.06244,798.14056,76,48,40
798.1562,798.2343,77,49,40
798.24994,798.32806,76,50,40
798.3437,798.4218,77,51,40
798.43744,798.51556,76,52,40
798.5312,798.6093,77,53,40
798.62494,798.70306,76,54,40
798.7187,798.7968,77,55,40
798.81244,798.89056,76,56,40
798.9062,798.9843,77,57,40
798.99994,799.07806,76,58,40
799.0937,799.1718,77,59,40
799.18744,799.26556,76,60,40
799.2812,799.3593,77,61,40
799.37494,799.45306,76,62,40
799.4687,799.5468,77,63,40
799.56244,799.64056,76,64,40
799.6562,799.7343,77,65,40
799.74994,799.82806,76,66,40
799.8437,799.9218,77,67,40
799.93744,800.01556,76,68,40
800.0312,800.1093,77,69,40
800.12494,800.20306,76,70,40
800.2187,800.2968,77,71,40
800.31244,800.39056,76,72,40
800.4062,800.4843,77,73,40
800.49994,801.2343,77,45,40
801.24994,802.49994,57,60,40
802.74994,803.2968,58,45,40
803.31244,803.4843,60,45,40
803.49994,804.2343,62,45,40
804.24994,805.74994,82,60,40
805.74994,806.31244,81,45,40
806.31244,806.4843,79,45,40
806.49994,806.87494,77,45,40
806.87494,807.2343,76,45,40
810.24994,811.3593,64,60,40
811.37494,811.4687,65,45,40
811.4687,811.56244,64,45,40
811.56244,811.6562,62,45,40
811.6562,811.7343,64,45,40
811.74994,812.31244,72,45,40
812.31244,812.4843,64,45,40
812.49994,813.2343,65,45,40
814.74994,815.31244,72,45,40
815.31244,815.4843,64,45,40
815.49994,816.26556,65,45,40
817.428,817.6854,71,45,40
817.6854,817.9533,72,47,40
817.9533,818.23834,71,49,40
818.23834,818.5318,72,51,40
818.5318,818.8443,71,53,40
818.8443,819.17456,72,55,40
819.17456,819.48706,64,57,40
819.51544,819.89044,65,45,40
819.89044,820.2342,60,45,40
820.26544,820.51544,57,47,40
820.64044,820.89044,60,49,40
821.01544,821.26544,65,51,40
821.39044,821.64044,69,53,40
821.76544,822.01544,72,55,40
822.14044,822.39044,77,57,40
822.51544,823.01544,81,60,40
824.01544,824.51544,84,45,40
825.51544,829.51544,89,30,40
543.0,543.31946,69,45,45
543.3333,543.6528,81,45,45
543.6667,543.9861,70,45,45
544.0,544.31946,82,45,45
544.3333,544.6528,72,45,45
544.6667,544.9861,84,45,45
545.0,545.31946,74,45,45
545.3333,545.6528,86,45,45
545.6667,545.9861,70,45,45
546.0,546.31946,82,45,45
546.3333,546.6528,72,45,45
546.6667,546.9861,84,45,45
547.0,547.31946,74,45,45
547.3333,547.6528,86,45,45
548.0,548.31946,82,45,45
548.6667,548.9861,67,49,45
548.6667,548.9861,70,49,45
549.3333,549.6528,67,53,45
549.3333,549.6528,70,53,45
550.0,550.31946,67,57,45
550.0,550.31946,70,57,45
550.6667,550.9861,67,60,45
550.6667,550.9861,70,60,45
550.6667,550.9861,76,60,45
551.3333,551.6528,67,53,45
551.3333,551.6528,70,53,45
551.3333,551.6528,76,53,45
551.6667,551.9861,69,45,45
551.6667,551.9861,77,45,45
582.6666,582.9861,79,45,45
583.3333,583.6528,79,45,45
584.0,584.31946,84,45,45
584.3333,584.6528,84,45,45
584.6666,584.9861,84,45,45
585.0,585.31946,84,45,45
585.3333,585.6528,79,45,45
586.0,586.31946,79,45,45
586.6666,586.9861,79,45,45
587.0,587.31946,79,45,45
587.3333,587.6528,79,45,45
587.6666,587.9861,79,45,45
588.0,588.31946,72,45,45
588.6666,588.9861,67,45,45
589.3333,589.6528,69,45,45
590.0,590.31946,71,45,45
590.6666,590.9861,72,45,45
591.3333,591.6528,74,45,45
592.0,592.31946,76,45,45
592.3333,592.6528,77,63,45
592.6666,592.9861,74,45,45
593.0,593.31946,72,45,45
593.3333,593.6528,67,45,45
594.0,594.31946,67,45,45
594.6666,594.9861,69,45,45
595.3333,595.6528,71,45,45
596.0,596.31946,72,45,45
596.6666,596.9861,74,45,45
597.3333,597.6528,76,45,45
597.6666,597.9861,77,63,45
598.0,598.31946,74,45,45
598.6666,598.9861,72,45,45
599.0,599.3194,77,63,45
599.3333,599.6528,74,45,45
600.0,600.3194,72,45,45
600.3333,600.6528,77,63,45
600.6666,600.9861,74,45,45
601.3333,601.6528,72,45,45
602.0,602.3194,84,53,45
602.6666,602.9861,84,61,45
603.0,603.3194,84,65,45
603.3333,603.6528,84,70,45
603.6666,604.3194,84,45,45
615.0,615.3194,69,45,45
615.3333,615.6528,81,45,45
615.6666,615.9861,70,45,45
616.0,616.3194,82,45,45
616.3333,616.6528,72,45,45
616.6666,616.9861,84,45,45
617.0,617.3194,74,45,45
617.3333,617.6528,86,45,45
617.6666,617.9861,70,45,45
618.0,618.3194,82,45,45
618.3333,618.6528,72,45,45
618.6666,618.9861,84,45,45
619.0,619.3194,74,45,45
619.3333,619.6528,86,45,45
619.6666,619.9861,70,45,45
620.0,620.3194,82,45,45
620.6666,620.9861,67,45,45
620.6666,620.9861,70,45,45
621.3333,621.6528,67,51,45
621.3333,621.6528,70,51,45
622.0,622.3194,67,57,45
622.0,622.3194,70,57,45
622.6666,622.9861,67,63,45
622.6666,622.9861,70,63,45
622.6666,622.9861,76,63,45
623.3333,623.6528,67,71,45
623.3333,623.6528,70,71,45
623.3333,623.6528,76,71,45
623.6666,623.9861,69,75,45
623.6666,623.9861,77,75,45
