start_time,end_time,note_value,velocity,instrument_program_number
0.0,0.06666667,77,70,40
0.06666667,0.13333334,76,70,40
0.13333334,0.2,77,70,40
0.2,0.26666668,79,70,40
0.26666668,0.33333334,77,70,40
0.33333334,0.4,76,70,40
0.4,0.46666667,74,70,40
0.46666667,0.53333336,72,70,40
0.53333336,0.6,70,70,40
0.6,0.6666667,69,70,40
0.6666667,0.73333335,67,70,40
0.73333335,0.79583335,65,70,40
0.8,0.9458333,64,70,40
1.0,1.1458334,64,70,40
1.2,1.3458333,67,70,40
1.6,1.6666666,79,70,40
1.6666666,1.7333333,78,70,40
1.7333333,1.8,79,70,40
1.8,1.8666667,81,70,40
1.8666667,1.9333333,79,70,40
1.9333333,2.0,77,70,40
2.0,2.0666666,76,70,40
2.0666666,2.1333334,74,70,40
2.1333334,2.2,72,70,40
2.2,2.2666667,70,70,40
2.2666667,2.3333333,69,70,40
2.3333333,2.3958333,67,70,40
2.4,2.5458333,65,70,40
2.6,2.7458334,65,70,40
2.8,2.9458334,69,70,40
3.2,3.2666667,72,70,40
3.2666667,3.3333333,71,70,40
3.3333333,3.4,72,70,40
3.4,3.4666667,74,70,40
3.4666667,3.5333333,72,70,40
3.5333333,3.6,70,70,40
3.6,3.8,69,70,40
3.8,3.8958333,77,70,40
4.0,4.0666666,72,70,40
4.0666666,4.133333,71,70,40
4.133333,4.2,72,70,40
4.2,4.266667,74,70,40
4.266667,4.3333335,72,70,40
4.3333335,4.4,70,70,40
4.4,4.6,69,70,40
4.6,4.695833,77,70,40
4.8,4.866667,72,70,40
4.866667,4.9333334,71,70,40
4.9333334,5.0,72,70,40
5.0,5.0666666,74,70,40
5.0666666,5.133333,72,70,40
5.133333,5.2,70,70,40
5.2,5.4,69,70,40
5.4,5.4998264,84,70,40
5.608333,5.8243256,72,70,40
5.828921,5.9346194,76,70,40
5.939215,6.0449133,74,70,40
6.049509,6.2655015,72,70,40
7.690685,7.8365183,82,70,40
7.890685,8.036518,82,70,40
8.090685,8.286518,76,70,40
9.290685,9.436519,84,70,40
9.490685,9.6365185,84,70,40
9.690685,9.757352,72,70,40
9.757352,9.8240185,71,70,40
9.8240185,9.890685,72,70,40
9.890685,9.957352,74,70,40
9.957352,10.024018,72,70,40
10.024018,10.090685,70,70,40
10.090685,10.290685,69,70,40
10.290685,10.3865185,77,70,40
10.490685,10.557352,72,70,40
10.557352,10.624019,71,70,40
10.624019,10.690685,72,70,40
10.690685,10.757352,74,70,40
10.757352,10.8240185,72,70,40
10.8240185,10.890685,70,70,40
10.890685,11.090685,69,70,40
11.090685,11.186519,77,70,40
11.290685,11.357351,72,70,40
11.357351,11.424018,71,71,40
11.424018,11.490685,72,72,40
11.490685,11.557352,74,74,40
11.557352,11.624019,72,75,40
11.624019,11.690685,70,77,40
11.690685,11.890685,69,78,40
11.890685,11.990511,87,83,40
12.099018,12.250928,86,87,40
12.307351,12.459261,88,92,40
12.515684,12.667594,89,96,40
12.724017,12.882531,67,100,40
12.941408,13.176915,69,110,40
13.37619,13.638871,55,110,40
13.37619,13.6434,64,110,40
13.810972,14.241225,57,110,40
13.810972,14.241225,65,110,40
14.680536,14.780536,57,70,40
14.780536,14.880536,60,70,40
14.880536,14.980536,67,70,40
14.980536,15.080536,65,70,40
15.080536,15.180536,60,70,40
15.180536,15.280536,65,70,40
15.280536,15.380536,70,70,40
15.380536,15.476369,69,70,40
15.480536,15.876369,67,70,40
16.280537,16.380535,60,70,40
16.380535,16.480536,64,70,40
16.480536,16.580536,69,70,40
16.580536,16.680536,67,70,40
16.680536,16.780537,64,70,40
16.780537,16.880535,67,70,40
16.880535,16.980536,72,70,40
16.980536,17.07637,70,70,40
17.080536,17.47637,69,70,40
17.880535,17.980536,60,70,40
17.980536,18.080536,65,70,40
18.080536,18.180536,70,70,40
18.180536,18.280537,69,70,40
18.280537,18.380535,65,70,40
18.380535,18.480536,69,70,40
18.480536,18.580536,74,70,40
18.580536,18.680536,72,70,40
18.680536,18.780537,69,70,40
18.780537,18.880535,72,70,40
18.880535,18.980536,79,70,40
18.980536,19.080536,77,70,40
19.080536,19.180536,72,70,40
19.180536,19.280537,77,70,40
19.280537,19.380535,82,70,40
19.380535,19.480536,81,70,40
19.480536,19.580536,79,70,40
19.580536,19.680536,77,70,40
19.680536,19.780537,76,70,40
19.780537,19.880535,74,70,40
19.880535,19.980536,72,70,40
19.980536,20.080536,73,70,40
20.080536,20.184702,74,70,40
20.184702,20.28887,67,70,40
20.28887,20.725449,70,70,40
20.730045,20.89089,69,70,40
20.950632,21.111479,69,110,40
21.17122,21.82839,57,110,40
21.832985,21.906515,57,110,40
21.906515,21.980043,59,110,40
21.980043,22.048977,61,110,40
22.053574,22.203402,62,110,40
22.259052,22.40888,64,110,40
22.46453,22.614359,65,110,40
22.67001,22.819838,67,110,40
22.875488,23.025318,69,110,40
23.080969,23.230797,71,110,40
23.286448,23.436275,72,110,40
23.491926,23.641754,73,110,40
23.697405,23.847233,74,110,40
23.902884,24.052711,76,110,40
24.056993,24.108362,74,110,40
24.108362,24.159733,76,110,40
24.159733,24.716238,77,110,40
24.7248,24.925999,76,110,40
24.930279,24.998772,74,110,40
24.998772,25.067265,76,110,40
25.067265,25.135757,74,110,40
25.135757,25.336956,72,110,40
25.341236,25.40973,70,110,40
25.40973,25.478224,72,110,40
25.478224,25.546717,70,110,40
25.546717,25.747913,69,110,40
25.752195,25.820688,67,110,40
25.820688,25.889181,69,110,40
25.889181,25.957674,67,110,40
25.957674,26.167496,65,110,40
26.171959,26.243387,64,110,40
26.243387,26.314817,65,110,40
26.314817,26.386246,64,110,40
26.386246,26.608782,62,110,40
26.613518,26.779238,69,110,40
26.84079,27.02308,57,110,40
27.09079,27.21579,62,70,40
27.21579,27.31579,65,70,40
27.31579,27.41579,69,70,40
27.41579,27.51579,67,70,40
27.51579,27.61579,65,70,40
27.61579,27.71579,69,70,40
27.71579,27.81579,77,70,40
27.81579,27.91579,74,70,40
27.91579,28.111624,73,70,40
28.71579,28.81579,69,70,40
28.81579,28.91579,73,70,40
28.91579,29.01579,76,70,40
29.01579,29.11579,74,70,40
29.11579,29.21579,73,70,40
29.21579,29.31579,76,70,40
29.31579,29.41579,81,70,40
29.41579,29.51579,79,70,40
29.51579,29.711624,77,70,40
31.11579,31.21579,87,70,40
31.21579,31.31579,88,70,40
31.31579,31.41579,87,70,40
31.41579,31.51579,88,70,40
31.51579,31.61579,87,70,40
31.61579,31.71579,88,70,40
31.71579,31.81579,83,70,40
31.81579,31.91579,80,70,40
31.91579,32.11162,76,70,40
33.11579,33.922466,81,100,40
33.926746,34.366993,78,96,40
34.371803,34.998405,79,70,40
35.00257,35.05257,81,70,40
35.05257,35.102573,79,70,40
35.102573,35.152573,78,70,40
35.152573,35.20257,76,70,40
35.20257,35.348404,74,70,40
35.402573,35.548405,74,70,40
35.602573,35.748405,74,70,40
35.80257,35.948406,74,70,40
36.00257,36.398403,74,70,40
37.00257,37.148403,74,70,40
37.20257,37.348404,74,70,40
37.402573,37.548405,74,70,40
37.602573,37.70257,81,70,40
37.70257,37.80257,79,70,40
37.80257,37.902573,78,70,40
37.902573,38.00257,79,70,40
38.00257,38.102573,81,70,40
38.102573,38.20257,79,70,40
38.20257,38.30257,78,70,40
38.30257,38.402573,76,70,40
38.402573,38.548405,74,70,40
38.602573,38.748405,74,70,40
38.80257,38.948406,74,70,40
39.00257,39.148403,74,70,40
39.20257,39.398403,74,70,40
40.20257,40.3524,79,95,40
40.40805,40.5643,79,100,40
40.622337,40.790604,79,85,40
40.853104,41.448936,84,70,40
41.453106,41.503105,86,70,40
41.503105,41.553104,84,70,40
41.553104,41.603104,83,70,40
41.603104,41.653107,81,70,40
41.653107,41.79894,79,70,40
41.853104,41.99894,79,70,40
42.053104,42.198936,79,70,40
42.253105,42.398937,79,70,40
42.453106,42.848938,79,70,40
43.453106,43.598938,79,70,40
43.653107,43.79894,79,70,40
43.853104,43.99894,79,70,40
44.053104,44.153107,86,70,40
44.153107,44.253105,84,70,40
44.253105,44.353104,83,70,40
44.353104,44.453106,84,70,40
44.453106,44.553104,86,70,40
44.553104,44.653107,84,70,40
44.653107,44.753105,83,70,40
44.753105,44.853104,81,70,40
44.853104,44.99894,79,70,40
45.053104,45.198936,79,70,40
45.253105,45.398937,79,70,40
45.453106,45.598938,79,70,40
45.653107,46.04894,79,70,40
46.653107,46.802933,79,95,40
46.858585,47.014835,79,100,40
47.07287,47.24114,79,85,40
47.30364,47.41902,81,70,40
47.41902,47.519024,79,70,40
47.519024,47.619022,78,70,40
47.619022,47.719025,79,70,40
47.719025,47.819023,81,70,40
47.819023,47.91902,79,70,40
47.91902,48.019024,77,70,40
48.019024,48.114857,76,70,40
48.119022,48.219025,77,70,40
48.219025,48.319023,76,70,40
48.319023,48.41902,75,70,40
48.41902,48.519024,76,70,40
48.519024,48.619022,77,70,40
48.619022,48.719025,76,70,40
48.719025,48.819023,74,70,40
48.819023,48.914856,71,70,40
48.91902,49.019024,74,70,40
49.019024,49.119022,72,70,40
49.119022,49.219025,71,70,40
49.219025,49.319023,72,70,40
49.319023,49.41902,74,70,40
49.41902,49.519024,72,70,40
49.519024,49.619022,70,70,40
49.619022,49.714855,67,70,40
49.719025,49.819023,68,70,40
49.819023,49.91902,69,70,40
49.91902,50.019024,70,70,40
50.019024,50.119022,71,70,40
50.119022,50.219025,72,70,40
50.219025,50.319023,73,70,40
50.319023,50.41902,74,70,40
50.41902,50.514854,75,70,40
50.519024,50.619022,76,70,40
50.619022,50.719025,77,70,40
50.719025,50.819023,78,70,40
50.819023,50.91902,79,70,40
50.91902,51.019024,80,70,40
51.019024,51.119022,81,70,40
51.119022,51.219025,77,70,40
51.219025,51.314857,74,70,40
51.319023,51.41902,74,70,40
51.41902,51.489857,72,70,40
51.519024,51.589855,72,70,40
51.619022,51.689857,72,70,40
51.719025,51.819023,72,70,40
51.819023,51.889854,71,70,40
51.91902,51.989857,71,70,40
52.019024,52.089855,71,70,40
52.719025,53.114857,79,70,40
53.119022,53.314857,84,70,40
53.519024,53.714855,76,70,40
53.719025,53.819023,86,70,40
53.819023,53.91902,84,70,40
53.91902,54.019024,83,70,40
54.019024,54.119022,84,70,40
54.119022,54.219025,86,70,40
54.219025,54.319023,84,70,40
54.319023,54.41902,82,70,40
54.41902,54.519024,79,70,40
54.519024,54.619022,82,70,40
54.619022,54.719025,81,70,40
54.719025,54.819023,80,70,40
54.819023,54.91902,81,70,40
54.91902,55.019024,82,70,40
55.019024,55.119022,81,70,40
55.119022,55.219025,79,70,40
55.219025,55.319023,76,70,40
55.319023,55.41902,79,70,40
55.41902,55.519024,77,73,40
55.519024,55.619022,81,76,40
55.619022,55.719025,79,80,40
55.719025,55.819023,77,83,40
55.819023,55.91902,76,87,40
55.91902,56.019024,74,90,40
56.019024,56.119022,72,93,40
56.119022,56.219025,71,97,40
56.219025,56.319023,72,100,40
56.319023,56.421764,74,104,40
56.421764,56.5245,76,107,40
56.5245,56.627243,77,110,40
56.627243,56.72998,79,100,40
56.72998,56.837124,81,90,40
56.837124,56.944267,83,80,40
56.944267,57.02016,84,70,40
57.05141,57.15141,79,70,40
57.15141,57.251408,88,70,40
57.251408,57.347244,84,70,40
57.35141,57.45141,84,70,40
57.45141,57.55141,83,70,40
57.55141,57.65141,81,70,40
57.65141,57.751408,83,70,40
57.751408,57.822243,84,70,40
57.85141,57.95141,79,70,40
57.95141,58.05141,88,70,40
58.05141,58.147243,84,70,40
58.15141,58.251408,84,70,40
58.251408,58.35141,83,70,40
58.35141,58.45141,81,70,40
58.45141,58.55141,83,70,40
58.55141,58.65141,84,70,40
58.65141,58.751408,88,70,40
58.751408,58.85141,79,70,40
58.85141,58.95141,84,70,40
58.95141,59.05141,81,70,40
59.05141,59.15141,84,70,40
59.15141,59.251408,77,70,40
59.251408,59.35141,81,70,40
59.35141,59.45141,76,70,40
59.45141,59.55141,79,70,40
59.55141,59.65141,72,70,40
59.65141,59.751408,76,70,40
59.751408,59.85141,74,70,40
59.85141,59.95141,77,70,40
59.95141,60.05141,71,70,40
60.05141,60.15141,74,70,40
60.15141,60.347244,72,70,40
60.35141,61.147243,79,100,40
61.15141,61.847244,79,110,40
61.85141,61.95141,84,94,40
61.95141,62.05141,75,95,40
62.05141,62.15141,79,96,40
62.15141,62.251408,77,98,40
62.251408,62.35141,80,99,40
62.35141,62.45141,74,101,40
62.45141,62.55141,77,102,40
62.55141,62.65141,75,103,40
62.65141,62.751408,79,105,40
62.751408,62.85141,72,106,40
62.85141,62.95141,75,108,40
62.95141,63.05415,74,109,40
63.05415,63.156887,77,110,40
63.156887,63.26403,71,100,40
63.26403,63.371174,74,80,40
63.371174,63.97506,72,70,40
63.979282,64.17776,75,70,40
64.181984,64.785866,77,70,40
64.79009,64.98857,74,70,40
64.99279,65.59668,75,70,40
65.6009,65.79938,72,70,40
65.803604,66.10343,74,70,40
66.10766,66.20479,71,70,40
66.20901,66.27657,71,70,40
66.27657,66.34415,72,70,40
66.34415,66.41171,71,70,40
66.41171,66.51306,69,70,40
66.51306,66.61019,71,70,40
66.61441,66.681984,79,70,40
66.681984,66.74955,78,70,40
66.74955,66.817116,79,70,40
66.817116,66.88468,81,70,40
66.88468,66.95225,79,70,40
66.95225,67.01982,78,70,40
67.01982,67.49279,79,70,40
67.49279,67.560356,78,70,40
67.560356,67.62793,79,70,40
67.62793,67.695496,81,70,40
67.695496,67.76306,79,70,40
67.76306,67.83063,78,70,40
67.83063,68.303604,79,70,40
68.303604,68.37117,78,70,40
68.37117,68.438736,79,70,40
68.438736,68.5063,81,70,40
68.5063,68.57387,79,70,40
68.57387,68.64144,78,70,40
68.64144,68.789246,79,70,40
68.84414,68.99194,79,70,40
69.046844,69.19465,79,70,40
69.24955,69.39735,79,70,40
69.45225,69.60005,79,70,40
69.65495,69.80276,79,70,40
69.85765,70.05614,72,70,40
70.46576,70.529106,77,80,40
70.533325,70.59667,79,81,40
70.6009,70.66424,77,82,40
70.668465,70.86694,76,84,40
71.27657,71.33991,76,94,40
71.34414,71.407486,74,95,40
71.411705,71.47505,76,96,40
71.47927,71.67775,77,98,40
72.08738,72.15073,81,108,40
72.154945,72.21829,79,109,40
72.22252,72.28586,81,110,40
72.290085,72.89669,82,110,40
72.90097,73.11079,76,105,40
73.11525,73.18668,77,70,40
73.18668,73.25811,76,70,40
73.25811,73.32954,77,70,40
73.32954,73.3962,79,70,40
73.3962,73.462875,77,70,40
73.462875,73.52954,76,70,40
73.52954,73.59621,74,70,40
73.59621,73.66287,72,70,40
73.66287,73.72954,70,70,40
73.72954,73.7962,69,70,40
73.7962,73.86287,67,70,40
73.86287,73.92537,65,70,40
73.92954,74.07537,64,70,40
74.12954,74.275375,64,70,40
74.32954,74.47537,67,70,40
74.72954,74.7962,79,70,40
74.7962,74.86287,78,70,40
74.86287,74.92954,79,70,40
74.92954,74.99621,81,70,40
74.99621,75.062874,79,70,40
75.062874,75.12954,77,70,40
75.12954,75.196205,76,70,40
75.196205,75.26287,74,70,40
75.26287,75.32954,72,70,40
75.32954,75.3962,70,70,40
75.3962,75.462875,69,70,40
75.462875,75.525375,67,70,40
75.52954,75.67537,65,70,40
75.72954,75.879364,65,70,40
75.93502,76.09127,69,70,40
76.36359,76.43502,72,70,40
76.43502,76.50407,71,70,40
76.50407,76.57073,72,70,40
76.57073,76.6374,74,70,40
76.6374,76.70406,72,70,40
76.70406,76.77073,70,70,40
76.77073,76.97073,69,70,40
76.97073,77.06657,77,70,40
77.17073,77.2374,72,70,40
77.2374,77.30406,71,70,40
77.30406,77.370735,72,70,40
77.370735,77.4374,74,70,40
77.4374,77.50407,72,70,40
77.50407,77.57073,70,70,40
77.57073,77.77073,69,70,40
77.77073,77.86656,77,70,40
77.97073,78.0374,72,70,40
78.0374,78.104065,71,70,40
78.104065,78.17073,72,70,40
78.17073,78.2374,74,70,40
78.2374,78.30406,72,70,40
78.30406,78.370735,70,70,40
78.370735,78.57073,69,70,40
78.57073,78.666565,84,70,40
78.77073,78.97193,72,70,40
78.97621,79.07889,76,70,40
79.08335,79.186035,74,70,40
79.1905,79.400314,72,70,40
80.82621,80.972046,82,70,40
81.02621,81.17204,82,70,40
81.22621,81.42204,76,70,40
82.42621,82.572044,87,70,40
82.62621,82.77204,87,70,40
82.82621,83.02204,78,70,40
83.22621,83.37204,87,74,40
83.42621,83.572044,87,76,40
83.62621,83.822044,86,78,40
84.02621,84.17204,84,82,40
84.22621,84.37204,84,84,40
84.42621,84.62204,82,86,40
84.82621,84.972046,82,90,40
85.02621,85.17204,82,92,40
85.22621,85.42204,81,94,40
85.62621,85.77204,79,98,40
85.82621,85.972046,79,100,40
86.02621,86.222046,77,110,40
86.42621,86.572044,74,110,40
86.62621,86.77204,74,110,40
86.82621,87.02204,77,110,40
87.22621,87.37604,68,110,40
87.43169,87.58794,68,110,40
87.64597,87.8558,69,110,40
88.06574,88.12995,82,110,40
88.13423,88.19844,81,110,40
88.20273,88.26694,82,110,40
88.27122,88.33543,84,110,40
88.339714,88.40392,82,110,40
88.4082,88.47242,81,110,40
88.4767,88.54091,79,110,40
88.54519,88.609406,78,110,40
88.613686,88.677895,79,110,40
88.682175,88.74639,81,110,40
88.75067,88.81488,79,110,40
88.81916,88.88338,77,110,40
88.88766,89.03748,76,110,40
89.09313,89.242966,74,110,40
89.298615,89.49981,73,110,40
89.70957,89.77378,82,110,40
89.77806,89.84228,81,110,40
89.84656,89.91077,82,110,40
89.91505,89.97926,84,110,40
89.98354,90.04775,82,110,40
90.05203,90.11625,81,110,40
90.12053,90.18474,79,110,40
90.18902,90.253235,78,110,40
90.257515,90.321724,79,110,40
90.326004,90.39022,81,110,40
90.3945,90.45871,79,110,40
90.463,90.52721,77,110,40
90.53149,90.68131,76,110,40
90.73697,90.886795,74,110,40
90.942444,91.14365,73,110,40
91.3534,91.41762,82,80,40
91.4219,91.48611,81,80,40
91.49039,91.5546,82,81,40
91.55888,91.62309,84,82,40
91.62737,91.69159,82,83,40
91.69587,91.76008,81,83,40
91.76436,91.828575,79,84,40
91.832855,91.897064,78,85,40
91.901344,91.96556,79,86,40
91.96984,92.03405,81,86,40
92.03833,92.10255,79,87,40
92.10683,92.171036,77,88,40
92.175316,92.24381,76,89,40
92.24381,92.3123,75,90,40
92.3123,92.3808,76,90,40
92.3808,92.44929,77,91,40
92.44929,92.517784,76,92,40
92.517784,92.58199,74,93,40
92.58627,92.65477,73,93,40
92.65477,92.72326,72,94,40
92.72326,92.791756,73,95,40
92.791756,92.86025,74,96,40
92.86025,92.92874,73,97,40
92.92874,92.99295,71,97,40
92.99724,93.147064,69,98,40
93.20271,93.35254,69,100,40
93.408195,93.55802,69,110,40
93.61367,93.7635,69,110,40
93.81915,93.96898,69,110,40
94.02463,94.123085,71,110,40
94.12737,94.22583,73,110,40
94.23011,95.25322,74,110,40
95.25751,95.308876,76,110,40
95.308876,95.360245,77,110,40
95.360245,95.41161,79,110,40
95.41161,95.46298,81,110,40
95.46298,95.61281,82,110,40
95.668465,95.81829,82,110,40
95.87394,96.28062,82,110,40
96.2849,96.43473,81,70,40
96.49038,96.640205,79,70,40
96.695854,96.84569,77,70,40
96.90134,97.05116,76,70,40
97.10681,97.256645,74,70,40
97.312294,97.46212,72,70,40
97.51778,97.71897,70,70,40
99.98352,100.86965,79,104,40
100.87393,100.93814,78,70,40
100.94242,101.00664,79,70,40
101.01092,101.07513,80,70,40
101.07941,101.14362,79,70,40
101.1479,101.21211,77,70,40
101.21639,101.28061,75,70,40
101.28489,101.3491,74,70,40
101.35338,101.417595,75,70,40
101.421875,101.486084,77,70,40
101.490364,101.55458,75,70,40
101.55886,101.62307,74,70,40
101.62735,101.77718,72,70,40
101.83283,101.98266,72,70,40
102.03831,102.18814,72,70,40
102.24379,102.393616,72,70,40
102.44927,102.5991,71,70,40
102.65475,102.80457,67,70,40
102.86023,103.010056,69,70,40
103.065704,103.21553,71,70,40
103.27119,103.42101,72,70,40
103.47666,103.626495,74,70,40
103.682144,103.83197,75,70,40
103.88762,104.03745,76,70,40
104.0931,105.11622,77,105,40
105.1205,105.17187,79,70,40
105.17187,105.223236,80,70,40
105.223236,105.274605,82,70,40
105.274605,105.32597,84,70,40
105.32597,105.4758,85,70,40
105.531456,105.68128,85,70,40
105.73693,106.14361,85,80,40
106.14789,106.29772,84,90,40
106.35337,106.50962,85,95,40
106.56766,106.72391,87,100,40
106.781944,106.94279,89,105,40
107.002525,107.1708,90,110,40
107.2333,107.41559,87,115,40
107.4833,107.72809,92,120,40
110.533295,110.72913,77,60,40
110.7333,111.32913,78,60,40
111.3333,111.52913,75,60,40
111.533295,112.12913,72,60,40
112.1333,112.32913,75,60,40
112.3333,112.92913,73,60,40
112.9333,113.12913,77,60,40
113.1333,113.72913,80,60,40
113.7333,113.92913,77,60,40
113.9333,114.52913,78,60,40
114.533295,114.72913,75,60,40
114.7333,115.32913,72,60,40
115.3333,115.52913,75,60,40
115.533295,115.72913,73,60,40
115.7333,115.92913,73,80,40
115.9333,116.12913,73,60,40
116.1333,116.32913,73,60,40
116.3333,116.52913,73,60,40
116.533295,116.72913,73,80,40
116.7333,116.92913,73,60,40
116.9333,117.12913,73,60,40
117.1333,117.32913,73,60,40
117.3333,117.52913,73,80,40
117.533295,117.72913,73,60,40
117.7333,117.92913,73,60,40
117.9333,118.12913,73,60,40
118.1333,118.32913,75,80,40
118.3333,118.52913,75,60,40
118.533295,118.72913,75,60,40
118.7333,118.92913,75,60,40
118.9333,119.12913,75,80,40
119.1333,119.32913,75,60,40
119.3333,119.52913,75,60,40
119.533295,119.72913,75,60,40
119.7333,119.92913,76,80,40
119.9333,120.12913,76,60,40
120.1333,120.334496,76,60,40
120.338776,120.53998,76,60,40
120.54426,120.754074,77,80,40
120.758545,120.97453,77,60,40
120.979126,121.20509,77,60,40
121.2099,121.43586,77,60,40
123.49546,123.696655,76,70,40
123.700935,124.30482,77,70,40
124.309044,124.50752,74,70,40
124.51175,125.11563,71,70,40
125.11985,125.31834,74,70,40
125.322556,125.92644,72,70,40
125.930664,126.12914,76,70,40
126.13337,126.73725,79,70,40
126.74147,127.142654,79,70,40
127.14688,127.34536,78,70,40
127.34958,127.95347,79,70,40
127.95769,128.15617,78,70,40
128.16039,128.63336,79,70,40
128.63336,128.70093,78,70,40
128.70093,128.7685,79,70,40
128.7685,128.83606,80,70,40
128.83606,128.90364,79,70,40
128.90364,128.9712,77,70,40
128.9712,129.03877,75,70,40
129.03877,129.10634,74,70,40
129.10634,129.1739,75,70,40
129.1739,129.24147,77,70,40
129.24147,129.30904,75,70,40
129.30904,129.37239,74,70,40
129.3766,129.52441,72,70,40
129.57932,129.72711,72,70,40
129.78201,129.92981,72,70,40
129.98471,130.13252,72,70,40
130.18742,130.33522,71,70,40
130.39012,130.53792,67,70,40
130.59282,130.74063,69,70,40
130.79552,130.94333,71,70,40
130.99823,131.14603,72,70,40
131.20093,131.34874,74,70,40
131.40363,131.55144,75,70,40
131.60634,131.75414,76,70,40
131.80904,132.00752,77,70,40
134.24147,135.25076,77,112,40
135.25497,135.30565,79,70,40
135.30565,135.35632,81,70,40
135.35632,135.40701,82,70,40
135.40701,135.45769,84,70,40
135.45769,135.60548,85,70,40
135.66039,135.80818,85,70,40
135.86308,136.26427,85,70,40
136.2685,136.41629,84,70,40
136.47119,136.619,85,70,40
136.67389,136.87238,87,70,40
136.8766,136.92728,80,70,40
136.92728,136.97795,82,70,40
136.97795,137.02863,84,70,40
137.02863,137.0793,85,70,40
137.0793,137.22711,87,70,40
137.282,137.42981,87,70,40
137.48471,137.8859,87,110,40
137.8901,138.03792,85,70,40
138.09282,138.24062,87,70,40
138.29552,138.494,89,70,40
139.30904,139.34703,77,70,40
139.34703,139.38504,79,70,40
139.38504,139.42305,80,70,40
139.42305,139.46106,82,70,40
139.46106,139.5075,84,70,40
139.51173,139.65953,85,70,40
139.71443,139.86224,85,70,40
139.91713,140.11562,84,70,40
140.93065,140.96866,76,70,40
140.96866,141.00667,77,70,40
141.00667,141.04466,79,70,40
141.04466,141.08267,80,70,40
141.08267,141.12914,82,70,40
141.13335,141.23048,84,70,40
141.33606,141.4055,84,70,40
141.4055,141.47495,86,70,40
141.47495,141.54004,88,70,40
141.54439,141.74838,89,110,40
141.75272,142.16504,89,110,40
142.16939,142.58171,89,110,40
142.58604,142.99838,89,110,40
143.00272,143.21254,89,110,40
143.21701,143.42682,88,100,40
144.86964,144.93385,79,100,40
144.93814,145.00662,78,100,40
145.00662,145.07512,79,100,40
145.07512,145.14362,80,100,40
145.14362,145.21211,79,100,40
145.21211,145.2806,77,100,40
145.2806,145.34909,76,100,40
145.34909,145.41759,75,100,40
145.41759,145.48608,76,100,40
145.48608,145.55457,77,100,40
145.55457,145.62306,76,100,40
145.62306,145.68727,74,100,40
145.69156,145.89276,72,100,40
145.89703,146.04686,83,100,40
146.10251,146.25235,83,100,40
146.308,146.45782,83,100,40
146.51347,146.71468,84,100,40
148.1573,148.22151,79,100,40
148.2258,148.2943,78,100,40
148.2943,148.36278,79,100,40
148.36278,148.43127,80,100,40
148.43127,148.49977,79,100,40
148.49977,148.56827,77,100,40
148.56827,148.63675,76,100,40
148.63675,148.70525,75,100,40
148.70525,148.77374,76,100,40
148.77374,148.84224,77,100,40
148.84224,148.91074,76,100,40
148.91074,148.97495,74,100,40
148.97922,149.18042,72,100,40
149.18471,149.33453,83,120,40
149.39018,149.54001,83,120,40
149.59566,149.74548,83,120,40
149.80113,150.00233,84,120,40
156.17099,156.3722,78,60,40
156.37646,156.98862,79,60,40
156.9929,157.1941,76,60,40
157.19838,157.81053,73,60,40
157.81482,158.01602,76,60,40
158.0203,158.63246,74,60,40
158.63673,158.83794,78,60,40
158.84221,159.45438,81,60,40
159.45865,159.65985,78,60,40
159.66412,160.27629,79,60,40
160.28056,160.48177,76,60,40
160.48604,161.11253,73,60,40
161.117,161.333,76,60,40
161.33759,161.55357,74,60,40
161.55817,161.75665,74,80,40
161.76088,161.95935,74,60,40
161.96358,162.16206,74,60,40
162.16628,162.36476,74,60,40
162.36899,162.56746,74,80,40
162.57169,162.77017,74,60,40
162.77438,162.97287,74,60,40
162.9771,163.17557,74,60,40
163.1798,163.37827,74,80,40
163.38249,163.58098,74,60,40
163.5852,163.78368,74,60,40
163.7879,163.98637,74,60,40
163.9906,164.1946,80,80,40
164.19893,164.40875,80,60,40
164.41322,164.63919,80,60,40
164.644,164.86995,80,60,40
166.09097,166.28946,79,70,40
166.29367,166.89757,80,70,40
166.90178,167.10027,77,70,40
167.10449,167.70837,74,70,40
167.7126,167.91107,77,70,40
167.9153,168.51918,75,70,40
168.5234,168.72188,79,70,40
168.7261,169.32999,82,70,40
169.33421,169.5327,79,70,40
169.53691,170.74892,80,70,40
170.75313,170.95161,79,70,40
170.95584,171.15431,77,70,40
171.15854,171.55972,76,70,40
171.56395,172.37053,82,70,40
172.37476,172.57323,81,70,40
172.57745,172.77594,79,70,40
172.78015,173.18134,78,70,40
173.18556,173.99214,87,70,40
173.99637,174.19485,86,70,40
174.19908,174.39755,84,70,40
174.40178,175.00566,82,70,40
175.00989,175.20836,81,83,40
175.21259,175.41107,79,87,40
175.41528,175.61377,81,92,40
175.618,175.81647,82,96,40
175.8207,176.01918,84,100,40
176.02339,176.42458,82,100,40
176.4288,176.62729,81,100,40
176.6315,176.82999,79,100,40
176.83421,177.03268,77,100,40
177.03691,177.23538,79,93,40
177.23961,177.4381,81,85,40
177.44232,177.6408,83,77,40
177.64502,177.84349,84,70,40
179.26663,179.32999,79,70,40
179.3342,179.40178,78,70,40
179.40178,179.46935,79,70,40
179.46935,179.53691,80,70,40
179.53691,179.60448,79,70,40
179.60448,179.67204,77,70,40
179.67204,179.73961,76,70,40
179.73961,179.80717,75,70,40
179.80717,179.87474,76,70,40
179.87474,179.9423,77,70,40
179.9423,180.00987,76,70,40
180.00987,180.07323,74,70,40
180.07745,180.22525,71,70,40
180.28015,180.42795,71,70,40
180.48285,180.63066,71,70,40
180.68556,180.83336,71,70,40
180.88826,181.28944,72,70,40
182.50987,182.57744,82,70,40
182.57744,182.64502,81,70,40
182.64502,182.71259,82,70,40
182.71259,182.78015,84,70,40
182.78015,182.84772,82,70,40
182.84772,182.91528,81,70,40
182.91528,182.98285,79,70,40
182.98285,183.05042,78,70,40
183.05042,183.11798,79,70,40
183.11798,183.18555,81,70,40
183.18555,183.25311,79,70,40
183.25311,183.31647,77,70,40
183.3207,183.46849,76,70,40
183.52339,183.67119,76,70,40
183.72609,183.8739,76,70,40
183.92879,184.0766,76,70,40
184.1315,184.19484,86,70,40
184.19907,184.2624,85,70,40
184.26663,184.32997,86,70,40
184.3342,184.39754,88,70,40
184.40176,184.46512,86,70,40
184.46933,184.53268,84,70,40
184.5369,184.60025,82,70,40
184.60448,184.66782,81,70,40
184.67204,184.73538,82,70,40
184.73961,184.80295,84,70,40
184.80717,184.87051,82,70,40
184.87474,184.93808,81,70,40
184.9423,185.09012,82,70,40
185.145,185.29282,82,70,40
185.34772,185.49551,82,70,40
185.55042,185.70024,82,70,40
185.75589,185.82439,82,70,40
185.82439,185.89288,81,70,40
185.89288,185.96138,82,70,40
185.96138,186.02986,84,70,40
186.02986,186.09836,82,70,40
186.09836,186.16685,81,70,40
186.16685,186.6463,82,70,40
186.6463,186.7148,81,70,40
186.7148,186.7833,82,70,40
186.7833,186.85178,84,70,40
186.85178,186.92027,82,70,40
186.92027,186.98877,81,70,40
186.98877,187.46822,82,70,40
187.46822,187.53671,81,72,40
187.53671,187.60521,82,74,40
187.60521,187.67369,81,76,40
187.67369,187.74219,82,78,40
187.74219,187.81068,81,80,40
187.81068,187.87918,82,82,40
187.87918,187.94766,81,84,40
187.94766,188.01616,82,86,40
188.01616,188.08466,81,89,40
188.08466,188.15315,82,91,40
188.15315,188.22165,81,93,40
188.22165,188.29013,82,95,40
188.29013,188.35863,81,97,40
188.35863,188.42712,82,99,40
188.42712,188.49562,81,101,40
188.49562,188.5641,82,103,40
188.5641,188.6326,81,106,40
188.6326,188.70302,82,108,40
188.70302,188.77344,81,110,40
188.77344,188.84387,82,112,40
188.84387,188.91634,81,114,40
188.91634,188.9888,82,116,40
188.9888,189.06126,81,118,40
189.06126,189.13373,82,120,40
189.13373,189.20619,84,120,40
189.20619,189.27866,82,120,40
189.27866,189.35112,81,120,40
189.35112,189.42358,82,120,40
189.42358,189.49603,81,120,40
189.49603,189.5685,79,120,40
189.5685,189.64096,81,120,40
189.64096,189.71342,79,120,40
189.71342,189.78589,77,120,40
189.78589,189.85835,79,120,40
189.85835,189.9263,77,120,40
189.93082,190.00328,76,120,40
190.00328,190.07574,77,120,40
190.07574,190.14821,76,120,40
190.14821,190.22067,74,120,40
190.22067,190.29314,76,120,40
190.29314,190.3656,74,120,40
190.3656,190.44252,72,120,40
190.44252,190.51945,74,120,40
190.51945,190.59637,72,120,40
190.59637,190.6797,70,110,40
190.6797,190.76305,72,97,40
190.76305,190.84117,70,84,40
190.84637,191.0562,69,70,40
192.07417,192.22197,82,70,40
192.27687,192.42468,82,70,40
192.47958,192.67805,76,70,40
193.69579,193.8436,84,70,40
193.8985,194.0463,84,70,40
194.1012,194.16876,72,70,40
194.16876,194.23633,71,70,40
194.23633,194.3039,72,70,40
194.3039,194.37146,74,70,40
194.37146,194.43904,72,70,40
194.43904,194.5066,70,70,40
194.5066,194.7093,69,70,40
194.7093,194.80643,77,70,40
194.912,194.97957,72,70,40
194.97957,195.04713,71,70,40
195.04713,195.11472,72,70,40
195.11472,195.18228,74,70,40
195.18228,195.24985,72,70,40
195.24985,195.31741,70,70,40
195.31741,195.52011,69,70,40
195.52011,195.61725,77,70,40
195.72281,195.79039,72,70,40
195.79039,195.85796,71,70,40
195.85796,195.92552,72,70,40
195.92552,195.99309,74,70,40
195.99309,196.06065,72,70,40
196.06065,196.12822,70,70,40
196.12822,196.33092,69,70,40
196.33092,196.43076,84,70,40
196.53926,196.74326,72,70,40
196.74759,196.85027,76,70,40
196.85474,196.95741,74,70,40
196.96187,197.17169,72,70,40
197.39044,197.46187,77,110,40
197.46187,197.53331,76,110,40
197.53331,197.60474,77,110,40
197.60474,197.67322,79,110,40
197.67322,197.74171,77,110,40
197.74171,197.81021,76,110,40
197.81021,197.87871,74,110,40
197.87871,197.94719,72,110,40
197.94719,198.01569,70,110,40
198.01569,198.08418,69,110,40
198.08418,198.15268,67,110,40
198.15268,198.21689,65,110,40
198.22118,198.371,64,110,40
198.42665,198.57648,64,110,40
198.63213,198.78195,67,110,40
199.04309,199.11157,79,110,40
199.11157,199.18007,78,110,40
199.18007,199.24857,79,110,40
199.24857,199.31706,81,110,40
199.31706,199.38554,79,110,40
199.38554,199.45404,77,110,40
199.45404,199.52254,76,110,40
199.52254,199.59103,74,110,40
199.59103,199.65952,72,110,40
199.65952,199.72801,70,110,40
199.72801,199.79651,69,110,40
199.79651,199.86072,67,110,40
199.865,200.01483,65,110,40
200.07048,200.2203,65,110,40
200.27596,200.42578,69,110,40
200.68692,200.75542,72,70,40
200.75542,200.8239,71,70,40
200.8239,200.8924,72,70,40
200.8924,200.95906,74,70,40
200.95906,201.02573,72,70,40
201.02573,201.09239,70,70,40
201.09239,201.29239,69,70,40
201.29239,201.38823,77,70,40
201.4924,201.55907,72,70,40
201.55907,201.62573,71,70,40
201.62573,201.6924,72,70,40
201.6924,201.75906,74,70,40
201.75906,201.82573,72,70,40
201.82573,201.8924,70,70,40
201.8924,202.09239,69,70,40
202.09239,202.18823,77,70,40
202.29239,202.35907,72,70,40
202.35907,202.42574,71,71,40
202.42574,202.4924,72,72,40
202.4924,202.55907,74,74,40
202.55907,202.62573,72,75,40
202.62573,202.6924,70,77,40
202.6924,202.8924,69,78,40
202.8924,202.99086,87,83,40
203.09787,203.2477,86,87,40
203.30336,203.45319,88,92,40
203.50883,203.66508,89,96,40
203.72311,203.88396,67,100,40
203.94371,204.18268,69,110,40
204.38489,204.65143,55,110,40
204.38489,204.65602,64,110,40
204.82607,205.26263,57,110,40
204.82607,205.26263,65,110,40
205.7084,205.81555,57,70,40
205.81555,205.9227,60,70,40
205.9227,206.02269,67,70,40
206.02269,206.1227,65,70,40
206.1227,206.2227,60,70,40
206.2227,206.3227,65,70,40
206.3227,206.4227,70,70,40
206.4227,206.51852,69,70,40
206.52269,206.91853,67,70,40
207.3227,207.4227,60,70,40
207.4227,207.52269,64,70,40
207.52269,207.6227,69,70,40
207.6227,207.7227,67,70,40
207.7227,207.8227,64,70,40
207.8227,207.9227,67,70,40
207.9227,208.02269,72,70,40
208.02269,208.11853,70,70,40
208.1227,208.51852,69,70,40
208.9227,209.02269,60,70,40
209.02269,209.1227,65,70,40
209.1227,209.2227,70,70,40
209.2227,209.3227,69,70,40
209.3227,209.4227,65,70,40
209.4227,209.52269,69,70,40
209.52269,209.6227,74,70,40
209.6227,209.7227,72,70,40
209.7227,209.8227,69,70,40
209.8227,209.9227,72,70,40
209.9227,210.02269,79,70,40
210.02269,210.1227,77,70,40
210.1227,210.2227,72,70,40
210.2227,210.3227,77,70,40
210.3227,210.42543,82,70,40
210.42543,210.52817,81,70,40
210.52817,210.63092,79,70,40
210.63092,210.73366,77,70,40
210.73366,210.8364,76,70,40
210.8364,210.93913,74,70,40
210.93913,211.04628,72,70,40
211.04628,211.15341,73,70,40
211.15341,211.26372,74,70,40
211.26372,211.37401,67,70,40
211.37401,211.83073,70,70,40
211.83554,212.00381,69,70,40
212.06631,212.23459,69,110,40
212.29709,212.98459,57,110,40
212.9894,213.06631,57,110,40
213.06631,213.14323,59,110,40
213.14323,213.21535,61,110,40
213.22015,213.366,62,110,40
213.42015,213.566,64,110,40
213.62016,213.76599,65,110,40
213.82016,213.96599,67,110,40
214.02016,214.16599,69,110,40
214.22015,214.366,71,110,40
214.42015,214.566,72,110,40
214.62016,214.76599,73,110,40
214.82016,214.96599,74,110,40
215.02016,215.16599,76,110,40
215.17015,215.22015,74,110,40
215.22015,215.27016,76,110,40
215.27016,215.81183,77,110,40
215.82016,216.01599,76,110,40
216.02016,216.08682,74,110,40
216.08682,216.15349,76,110,40
216.15349,216.22015,74,110,40
216.22015,216.41599,72,110,40
216.42015,216.48683,70,110,40
216.48683,216.5535,72,110,40
216.5535,216.62016,70,110,40
216.62016,216.82135,69,110,40
216.82564,216.89413,67,110,40
216.89413,216.96262,69,110,40
216.96262,217.03111,67,110,40
217.03111,217.24094,65,110,40
217.2454,217.40625,64,110,40
217.46599,217.62683,65,110,40
217.68658,217.85484,63,110,40
217.91734,218.09964,60,110,40
218.16734,218.27449,58,70,40
218.27449,218.38164,62,70,40
218.38164,218.48299,65,70,40
218.48299,218.58434,63,70,40
218.58434,218.68568,62,70,40
218.68568,218.78703,65,70,40
218.78703,218.88838,74,70,40
218.88838,218.98975,70,70,40
218.98975,219.39091,69,70,40
222.23299,222.33434,85,70,40
222.33434,222.43568,86,70,40
222.43568,222.53703,85,70,40
222.53703,222.63838,86,70,40
222.63838,222.73973,85,70,40
222.73973,222.84108,86,70,40
222.84108,222.94244,81,70,40
222.94244,223.0438,78,70,40
223.0438,223.44498,74,70,40
225.88162,226.68822,84,76,40
226.69243,227.09361,83,104,40
227.09784,227.70172,84,70,40
227.70595,227.75662,86,70,40
227.75662,227.8073,84,70,40
227.8073,227.85797,83,70,40
227.85797,227.90865,81,70,40
227.90865,228.05646,79,70,40
228.11136,228.25916,79,70,40
228.31406,228.46185,79,70,40
228.51675,228.66457,79,70,40
228.71947,229.12064,79,70,40
229.73297,229.88078,79,70,40
229.93567,230.08348,79,70,40
230.13838,230.28618,79,70,40
230.34108,230.44243,86,70,40
230.44243,230.54378,84,70,40
230.54378,230.64513,83,70,40
230.64513,230.74649,84,70,40
230.74649,230.84784,86,70,40
230.84784,230.94919,84,70,40
230.94919,231.05054,83,70,40
231.05054,231.15189,81,70,40
231.15189,231.2997,79,70,40
231.3546,231.5024,79,70,40
231.5573,231.7051,79,70,40
231.76,231.9078,79,70,40
231.96269,232.36388,79,70,40
232.98747,233.14372,72,95,40
233.20175,233.36261,72,110,40
233.42235,233.59062,72,100,40
233.65312,234.29056,77,70,40
234.29485,234.3462,79,70,40
234.3462,234.39758,77,70,40
234.39758,234.44896,76,70,40
234.44896,234.50032,74,70,40
234.50032,234.65015,72,70,40
234.7058,234.85564,72,70,40
234.91129,235.06111,72,70,40
235.11676,235.26659,72,70,40
235.32224,235.72891,72,70,40
236.34964,236.49947,72,70,40
236.55511,236.70494,72,70,40
236.76059,236.91042,72,70,40
236.96606,237.0688,79,70,40
237.0688,237.17155,77,70,40
237.17155,237.27429,76,70,40
237.27429,237.37703,77,70,40
237.37703,237.47977,79,70,40
237.47977,237.5825,77,70,40
237.5825,237.68524,76,70,40
237.68524,237.78798,74,70,40
237.78798,237.93782,72,70,40
237.99347,238.1433,72,70,40
238.19894,238.34877,72,70,40
238.40442,238.55424,72,70,40
238.60991,239.01659,72,70,40
239.6373,239.78712,84,104,40
239.84277,239.9926,84,110,40
240.04825,240.19809,84,85,40
240.25374,240.35648,86,70,40
240.35648,240.45921,84,70,40
240.45921,240.56195,83,70,40
240.56195,240.66469,84,70,40
240.66469,240.76743,86,70,40
240.76743,240.87018,84,70,40
240.87018,240.97292,82,70,40
240.97292,241.07565,79,70,40
241.07565,241.17839,82,70,40
241.17839,241.28113,81,70,40
241.28113,241.38387,80,70,40
241.38387,241.4866,81,70,40
241.4866,241.58934,82,70,40
241.58934,241.6921,81,70,40
241.6921,241.79483,79,70,40
241.79483,241.89757,76,70,40
241.89757,242.0003,79,70,40
242.0003,242.10304,77,70,40
242.10304,242.20578,76,70,40
242.20578,242.30852,77,70,40
242.30852,242.41127,79,70,40
242.41127,242.514,77,70,40
242.514,242.61674,75,70,40
242.61674,242.71948,72,70,40
242.71948,242.82222,73,70,40
242.82222,242.92496,74,70,40
242.92496,243.0277,75,70,40
243.0277,243.13043,76,70,40
243.13043,243.23318,77,70,40
243.23318,243.33592,78,70,40
243.33592,243.43866,79,70,40
243.43866,243.5414,80,70,40
243.5414,243.64413,81,70,40
243.64413,243.74687,82,70,40
243.74687,243.84961,83,70,40
243.84961,243.95236,84,70,40
243.95236,244.0551,85,70,40
244.0551,244.15784,86,70,40
244.15784,244.26057,82,70,40
244.26057,244.36331,79,70,40
244.36331,244.46605,79,70,40
244.46605,244.53883,77,70,40
244.56879,244.64157,77,70,40
244.67154,244.74431,77,70,40
244.77428,244.87701,77,70,40
244.87701,244.94978,76,70,40
244.97975,245.05252,76,70,40
245.08249,245.15526,76,70,40
245.80167,246.20834,84,70,40
246.21263,246.41382,89,70,40
246.62358,246.82478,81,70,40
246.82906,246.93181,91,70,40
246.93181,247.03455,89,70,40
247.03455,247.13728,88,70,40
247.13728,247.24002,89,70,40
247.24002,247.34276,91,70,40
247.34276,247.4455,89,70,40
247.4455,247.54823,87,70,40
247.54823,247.65097,84,70,40
247.65097,247.75372,87,70,40
247.75372,247.85646,86,70,40
247.85646,247.9592,85,70,40
247.9592,248.06194,86,70,40
248.06194,248.16467,87,70,40
248.16467,248.26741,86,70,40
248.26741,248.37015,84,70,40
248.37015,248.4729,81,70,40
248.4729,248.57564,84,70,40
248.57564,248.67838,82,73,40
248.67838,248.78111,86,76,40
248.78111,248.88385,84,80,40
248.88385,248.98659,82,83,40
248.98659,249.08932,81,87,40
249.08932,249.19208,79,90,40
249.19208,249.29482,77,93,40
249.29482,249.39755,76,97,40
249.39755,249.50029,77,100,40
249.50029,249.60744,79,104,40
249.60744,249.71457,81,107,40
249.71457,249.82487,82,110,40
249.82487,249.93517,84,100,40
249.93517,250.05055,86,90,40
250.05055,250.16592,88,80,40
250.16592,250.24767,89,70,40
250.28131,250.38266,84,70,40
250.38266,250.48402,93,70,40
250.48402,250.58115,89,70,40
250.58537,250.68672,89,70,40
250.68672,250.78807,88,70,40
250.78807,250.88942,86,70,40
250.88942,250.99077,88,70,40
250.99077,251.06256,89,70,40
251.09213,251.19348,84,70,40
251.19348,251.29483,93,70,40
251.29483,251.39195,89,70,40
251.39618,251.49753,89,70,40
251.49753,251.59888,88,70,40
251.59888,251.70023,86,70,40
251.70023,251.80159,88,70,40
251.80159,251.90294,89,70,40
251.90294,252.00429,93,70,40
252.00429,252.10564,84,70,40
252.10564,252.20699,89,70,40
252.20699,252.30833,86,70,40
252.30833,252.4097,89,70,40
252.4097,252.51105,82,70,40
252.51105,252.6124,86,70,40
252.6124,252.71375,81,70,40
252.71375,252.8151,84,70,40
252.8151,252.91644,77,70,40
252.91644,253.0178,81,70,40
253.0178,253.11916,79,70,40
253.11916,253.2205,82,70,40
253.2205,253.32185,76,70,40
253.32185,253.4232,79,70,40
253.4232,253.62169,79,70,40
253.6259,254.4325,84,76,40
254.43672,255.14195,84,101,40
255.14618,255.24753,89,70,40
255.24753,255.34888,80,70,40
255.34888,255.45023,84,70,40
255.45023,255.55157,82,70,40
255.55157,255.65294,85,70,40
255.65294,255.75429,79,70,40
255.75429,255.85564,82,70,40
255.85564,255.95699,80,70,40
255.95699,256.05835,84,70,40
256.05835,256.1597,77,70,40
256.1597,256.26105,80,70,40
256.26105,256.3624,79,70,40
256.3624,256.46375,82,70,40
256.46375,256.5679,76,70,40
256.5679,256.6721,79,70,40
256.6721,257.29272,77,70,40
257.2971,257.50107,80,70,40
257.5054,258.12607,82,70,40
258.1304,258.3344,79,70,40
258.33875,258.9594,80,70,40
258.96375,259.16772,77,70,40
259.17206,259.48456,79,70,40
259.48456,259.58875,76,70,40
259.58875,259.65817,76,70,40
259.65817,259.72763,77,70,40
259.72763,259.79706,76,70,40
259.79706,259.90125,74,70,40
259.90125,260.00107,76,70,40
260.0054,260.07486,77,70,40
260.07486,260.1443,83,70,40
260.1443,260.21375,84,70,40
260.21375,260.28317,86,70,40
260.28317,260.35263,84,70,40
260.35263,260.42206,83,70,40
260.42206,260.90817,84,70,40
260.90817,260.97763,83,70,40
260.97763,261.04706,84,70,40
261.04706,261.11652,86,70,40
261.11652,261.18594,84,70,40
261.18594,261.2554,83,70,40
261.2554,261.74152,84,70,40
261.74152,261.81094,83,70,40
261.81094,261.8804,84,70,40
261.8804,261.94983,86,70,40
261.94983,262.0193,84,70,40
262.0193,262.08875,83,70,40
262.08875,262.70938,84,70,40
262.71375,262.86563,84,70,40
262.92206,263.07397,84,70,40
263.1304,263.28232,84,70,40
263.33875,263.54272,77,70,40
263.96375,264.03317,82,80,40
264.03317,264.10263,84,81,40
264.10263,264.17206,82,82,40
264.17206,264.37607,81,83,40
264.79706,264.86652,81,93,40
264.86652,264.93594,79,95,40
264.93594,265.0054,81,96,40
265.0054,265.20938,82,97,40
265.6304,265.69983,86,107,40
265.69983,265.7693,84,108,40
265.7693,265.8387,86,109,40
265.8387,266.45938,87,110,40
266.4637,266.66772,81,100,40
266.67206,266.74152,82,70,40
266.74152,266.81094,81,70,40
266.81094,266.8804,82,70,40
266.8804,266.94983,84,70,40
266.94983,267.0193,82,70,40
267.0193,267.0887,81,70,40
267.0887,267.15817,79,70,40
267.15817,267.2276,77,70,40
267.2276,267.29706,75,70,40
267.29706,267.36652,74,70,40
267.36652,267.43594,72,70,40
267.43594,267.50104,70,70,40
267.5054,267.6573,69,70,40
267.7137,267.86563,69,70,40
267.92206,268.07397,72,70,40
268.3387,268.40817,84,70,40
268.40817,268.4776,83,70,40
268.4776,268.54706,84,70,40
268.54706,268.6165,86,70,40
268.6165,268.68594,84,70,40
268.68594,268.7554,82,70,40
268.7554,268.82483,81,70,40
268.82483,268.8943,79,70,40
268.8943,268.9637,77,70,40
268.9637,269.03317,75,70,40
269.03317,269.1026,74,70,40
269.1026,269.16772,72,70,40
269.17206,269.32397,71,70,40
269.3804,269.53665,71,70,40
269.59467,269.75092,74,70,40
272.1952,272.37747,79,70,40
272.4452,272.64404,79,70,40
272.71793,272.9002,82,55,40
272.96793,273.13617,82,55,40
273.19867,273.35492,79,55,40
273.61844,273.76428,76,55,40
273.81845,273.9643,76,55,40
274.01846,274.16428,73,55,40
274.41846,274.56427,81,55,40
274.61844,274.76428,81,55,40
274.81845,274.9643,78,55,40
275.21844,275.3643,75,55,40
275.41846,275.56427,75,55,40
275.61844,275.76428,72,55,40
276.01846,276.16428,80,55,40
276.21844,276.3643,80,55,40
276.41846,276.56427,77,55,40
276.81845,276.9643,74,55,40
277.01846,277.16428,74,55,40
277.21844,277.3643,71,55,40
277.61844,277.76428,74,55,40
277.81845,277.9643,74,55,40
278.01846,278.16428,71,55,40
278.41846,278.56427,74,55,40
278.61844,278.76428,74,55,40
278.81845,278.9643,71,55,40
279.21844,279.3643,73,55,40
279.41846,279.56427,73,55,40
279.61844,279.76428,70,55,40
280.01846,280.16428,73,55,40
280.21844,280.3643,73,55,40
280.41846,280.56427,70,55,40
280.81845,280.9643,73,50,40
281.01846,281.16428,73,56,40
281.21844,281.3643,70,63,40
281.41846,281.56827,70,70,40
281.62393,281.77374,70,77,40
281.8294,281.98566,70,84,40
282.0437,282.20453,76,90,40
282.26428,282.43256,76,80,40
282.49506,282.70486,77,70,40
285.74988,285.81744,77,70,40
285.81744,285.885,76,70,40
285.885,285.95258,77,70,40
285.95258,286.02014,79,70,40
286.02014,286.0877,77,70,40
286.0877,286.15527,76,70,40
286.15527,286.22284,74,70,40
286.22284,286.2904,72,70,40
286.2904,286.35797,70,70,40
286.35797,286.42554,69,70,40
286.42554,286.4931,67,70,40
286.4931,286.55646,65,70,40
286.56067,286.7085,64,70,40
286.7634,286.9112,64,70,40
286.9661,287.1139,67,70,40
287.3715,287.43906,79,70,40
287.43906,287.50662,78,70,40
287.50662,287.5742,79,70,40
287.5742,287.64175,81,70,40
287.64175,287.70932,79,70,40
287.70932,287.7769,77,70,40
287.7769,287.84445,76,70,40
287.84445,287.91202,74,70,40
287.91202,287.9796,72,70,40
287.9796,288.04718,70,70,40
288.04718,288.11475,69,70,40
288.11475,288.17807,67,70,40
288.1823,288.3301,65,70,40
288.385,288.5328,65,70,40
288.5877,288.7355,69,70,40
288.9931,289.7997,81,70,40
289.80392,290.4078,82,80,40
290.41202,290.6105,79,87,40
290.61475,290.76254,76,90,40
290.81744,290.96524,72,93,40
291.02014,291.62402,84,95,40
291.62823,291.77606,81,103,40
291.83093,291.97876,84,105,40
292.03366,292.18146,81,108,40
292.23636,292.30392,87,110,40
292.30392,292.3715,86,110,40
292.3715,292.43906,87,110,40
292.43906,292.50662,89,110,40
292.50662,292.5742,87,110,40
292.5742,292.64175,86,110,40
292.64175,292.70932,84,110,40
292.70932,292.7769,82,110,40
292.7769,292.84445,81,110,40
292.84445,292.91202,79,110,40
292.91202,292.97958,77,110,40
292.97958,293.04294,75,110,40
293.04715,293.19498,74,110,40
293.24988,293.39767,74,110,40
293.45258,293.60037,86,110,40
293.85797,294.00577,76,110,40
294.06067,294.20847,76,110,40
294.26337,294.4112,88,110,40
294.6688,294.8166,77,110,40
294.8715,295.0193,77,110,40
295.0742,295.222,89,110,40
295.47958,296.2862,81,110,40
296.2904,297.097,82,110,40
297.10123,297.1688,79,110,40
297.1688,297.23636,81,110,40
297.23636,297.30392,79,110,40
297.30392,297.37335,81,110,40
297.37335,297.4428,79,110,40
297.4428,297.51224,81,110,40
297.51224,297.58368,79,110,40
297.58368,297.6551,81,110,40
297.6551,297.72653,79,110,40
297.72653,297.83682,77,110,40
297.83682,297.94254,79,110,40
297.9471,298.14832,77,110,40
298.3581,298.42474,72,70,40
298.42474,298.49142,71,70,40
298.49142,298.55807,72,70,40
298.55807,298.62476,74,70,40
298.62476,298.6914,72,70,40
298.6914,298.7539,70,70,40
298.7581,298.95392,69,70,40
298.95807,299.05392,77,70,40
299.15808,299.22473,72,70,40
299.22473,299.2914,71,70,40
299.2914,299.3581,72,70,40
299.3581,299.42474,74,70,40
299.42474,299.49142,72,70,40
299.49142,299.55392,70,70,40
299.55807,299.7539,69,70,40
299.7581,299.8539,81,70,40
299.95807,300.02475,72,70,40
300.02475,300.0914,71,70,40
300.0914,300.15808,72,70,40
300.15808,300.22473,74,70,40
300.22473,300.2914,72,70,40
300.2914,300.3539,70,70,40
300.3581,300.55392,69,70,40
300.55807,300.6539,77,71,40
300.7581,300.95392,70,72,40
300.95807,301.05392,79,73,40
301.15808,301.3539,72,74,40
301.3581,301.45392,81,75,40
301.55807,301.7539,74,76,40
301.7581,301.8539,82,77,40
301.95807,302.1539,77,79,40
302.15808,302.2539,84,80,40
302.3581,302.55392,77,81,40
302.55807,302.6539,86,82,40
302.7581,302.95392,79,83,40
302.95807,303.05392,88,84,40
303.15808,303.3539,81,85,40
303.3581,303.45392,89,87,40
303.55807,303.7539,79,88,40
303.7581,303.8539,89,89,40
303.95807,304.1539,79,90,40
304.15808,304.25653,89,91,40
304.36356,304.56476,81,92,40
304.56903,304.67172,89,93,40
304.78333,304.99933,79,95,40
305.0039,305.1145,88,96,40
305.23468,305.4445,81,97,40
305.44897,305.5488,89,98,40
305.6573,305.8613,82,99,40
305.86563,305.96545,91,100,40
306.07397,306.27795,81,101,40
306.2823,306.38077,89,103,40
306.48776,306.68896,79,104,40
306.69327,306.79172,88,105,40
306.89874,307.09995,81,106,40
307.10422,307.20135,89,107,40
307.30692,307.5054,82,108,40
307.5096,307.60675,91,109,40
307.7123,307.9108,81,110,40
307.915,308.01215,89,110,40
308.11774,308.3162,79,110,40
308.32043,308.41754,88,110,40
308.52313,308.72162,81,110,40
308.72583,308.82297,89,110,40
308.92853,309.127,79,110,40
309.13123,309.23392,88,110,40
309.34552,309.56152,81,110,40
309.5661,309.6718,89,110,40
309.7867,310.01266,79,110,40
310.01746,310.13156,88,110,40
310.25555,310.62537,89,110,40
310.75555,311.15897,67,120,40
310.75555,311.15897,70,120,40
310.75555,311.15897,76,120,40
311.30103,311.8408,65,120,40
311.30103,311.8408,69,120,40
311.30103,311.8408,77,120,40
314.7101,314.8408,65,1,40
0.0,0.19583334,65,1,40
0.8,0.9458333,58,70,40
1.0,1.1458334,58,70,40
1.2,1.3458333,58,70,40
2.4,2.5458333,60,70,40
2.6,2.7458334,60,70,40
2.8,2.9458334,57,70,40
3.4,3.5958333,67,70,40
3.6,3.7958333,60,70,40
3.8,3.9958334,69,70,40
4.2,4.3958335,67,70,40
4.4,4.5958333,60,70,40
4.6,4.795833,69,70,40
5.0,5.195833,67,70,40
5.2,5.3958335,60,70,40
5.4,5.603993,69,70,40
5.608333,5.8243256,67,70,40
5.828921,6.0449133,71,70,40
6.049509,6.2655015,67,70,40
7.290685,7.436518,60,70,40
7.490685,7.6365185,60,70,40
7.690685,7.8365183,70,70,40
8.890685,9.036518,60,70,40
9.090685,9.236518,60,70,40
9.290685,9.436519,72,70,40
9.890685,10.086518,67,70,40
10.090685,10.286518,60,70,40
10.290685,10.486518,69,70,40
10.690685,10.8865185,67,70,40
10.890685,11.086518,60,70,40
11.090685,11.286518,69,70,40
11.490685,11.686519,67,74,40
11.690685,11.8865185,60,78,40
11.890685,12.042595,72,83,40
12.099018,12.250928,70,87,40
12.307351,12.459261,70,92,40
12.515684,12.667594,69,96,40
12.724017,12.882531,65,100,40
12.941408,13.262965,65,110,40
13.37619,13.697747,58,110,40
13.810972,14.241225,57,110,40
15.080536,15.180536,57,70,40
15.180536,15.280536,60,70,40
15.280536,15.380536,67,70,40
15.380536,15.476369,65,70,40
15.480536,15.876369,64,70,40
16.680536,16.780537,60,70,40
16.780537,16.880535,64,70,40
16.880535,16.980536,69,70,40
16.980536,17.07637,67,70,40
17.080536,17.47637,65,70,40
19.480536,19.62637,67,70,40
19.680536,19.82637,64,70,40
19.880535,20.02637,67,70,40
20.080536,20.232445,64,70,40
20.28887,20.725449,67,70,40
20.730045,20.89089,65,70,40
20.950632,21.111479,69,110,40
21.17122,21.82839,57,110,40
21.832985,21.906515,57,110,40
21.906515,21.980043,59,110,40
21.980043,22.048977,61,110,40
22.053574,22.203402,62,110,40
22.259052,22.40888,64,110,40
22.46453,22.614359,65,110,40
22.67001,22.819838,67,110,40
22.875488,23.025318,69,110,40
23.080969,23.230797,71,110,40
23.286448,23.436275,72,110,40
23.491926,23.641754,73,110,40
23.697405,23.847233,74,110,40
23.902884,24.052711,76,110,40
24.056993,24.108362,74,110,40
24.108362,24.159733,76,110,40
24.159733,24.716238,77,110,40
24.7248,24.925999,76,110,40
24.930279,24.998772,74,110,40
24.998772,25.067265,76,110,40
25.067265,25.135757,74,110,40
25.135757,25.336956,72,110,40
25.341236,25.40973,70,110,40
25.40973,25.478224,72,110,40
25.478224,25.546717,70,110,40
25.546717,25.747913,69,110,40
25.752195,25.820688,67,110,40
25.820688,25.889181,69,110,40
25.889181,25.957674,67,110,40
25.957674,26.167496,65,110,40
26.171959,26.243387,64,110,40
26.243387,26.314817,65,110,40
26.314817,26.386246,64,110,40
26.386246,26.608782,62,110,40
26.613518,26.779238,69,110,40
26.84079,27.02308,57,110,40
27.09079,27.311623,62,100,40
27.51579,27.61579,62,70,40
27.61579,27.71579,65,70,40
27.71579,27.81579,69,70,40
27.81579,27.91579,65,70,40
27.91579,28.111624,64,70,40
29.11579,29.21579,69,70,40
29.21579,29.31579,73,70,40
29.31579,29.41579,77,70,40
29.41579,29.51579,76,70,40
29.51579,29.711624,74,70,40
30.31579,30.41579,57,70,40
30.41579,30.51579,62,70,40
30.51579,30.61579,65,70,40
30.61579,30.71579,64,70,40
30.71579,30.81579,62,70,40
30.81579,30.91579,65,70,40
30.91579,31.01579,70,70,40
31.01579,31.11579,69,70,40
31.11579,31.311623,68,70,40
31.91579,32.01579,64,70,40
32.01579,32.11579,68,70,40
32.11579,32.21579,71,70,40
32.21579,32.31579,69,70,40
32.31579,32.41579,68,70,40
32.41579,32.51579,71,70,40
32.51579,32.61579,76,70,40
32.61579,32.71579,74,70,40
32.81579,32.91579,64,72,40
32.91579,33.01579,74,74,40
33.01579,33.11579,72,76,40
33.21579,33.31579,69,81,40
33.31579,33.41579,74,83,40
33.41579,33.51579,73,85,40
33.61853,33.721268,69,89,40
33.721268,33.82401,76,92,40
33.82401,33.926746,74,94,40
34.03389,34.141033,69,98,40
34.141033,34.256416,74,100,40
34.256416,34.371803,72,85,40
34.371803,34.597763,71,70,40
35.402573,35.548405,62,70,40
35.602573,35.748405,62,70,40
35.80257,35.948406,62,70,40
36.00257,36.598404,67,70,40
36.602573,36.652573,69,70,40
36.652573,36.70257,67,70,40
36.70257,36.75257,66,70,40
36.75257,36.80257,64,70,40
36.80257,36.948406,62,70,40
37.00257,37.148403,62,70,40
37.20257,37.348404,62,70,40
37.402573,37.548405,62,70,40
37.602573,37.998405,62,70,40
38.602573,38.748405,62,70,40
38.80257,38.948406,62,70,40
39.00257,39.148403,62,70,40
39.20257,39.30257,69,70,40
39.30257,39.402573,67,72,40
39.402573,39.50257,66,75,40
39.50257,39.602573,67,77,40
39.602573,39.70257,69,80,40
39.70257,39.80257,67,82,40
39.80257,39.902573,65,85,40
39.902573,40.00257,64,88,40
40.00257,40.148403,65,90,40
40.20257,40.3524,65,95,40
40.40805,40.5643,65,100,40
40.622337,40.790604,65,85,40
40.853104,41.24894,64,70,40
41.853104,41.99894,67,70,40
42.053104,42.198936,67,70,40
42.253105,42.398937,67,70,40
42.453106,43.04894,72,70,40
43.053104,43.103104,74,70,40
43.103104,43.153107,72,70,40
43.153107,43.203106,71,70,40
43.203106,43.253105,69,70,40
43.253105,43.398937,67,70,40
43.453106,43.598938,67,70,40
43.653107,43.79894,67,70,40
43.853104,43.99894,67,70,40
44.053104,44.448936,67,70,40
45.053104,45.198936,67,70,40
45.253105,45.398937,67,70,40
45.453106,45.598938,67,70,40
45.653107,45.753105,74,70,40
45.753105,45.853104,72,72,40
45.853104,45.953106,71,75,40
45.953106,46.053104,72,77,40
46.053104,46.153107,74,80,40
46.153107,46.253105,72,82,40
46.253105,46.353104,71,85,40
46.353104,46.453106,69,88,40
46.453106,46.598938,67,90,40
46.653107,46.802933,67,95,40
46.858585,47.014835,67,100,40
47.07287,47.24114,67,85,40
47.30364,47.514854,67,70,40
47.91902,48.314857,67,70,40
48.319023,48.514854,72,70,40
48.719025,49.114857,64,70,40
49.119022,49.314857,69,70,40
49.519024,49.914856,60,70,40
50.719025,50.914856,69,70,40
51.119022,51.314857,69,70,40
51.519024,51.714855,67,70,40
51.91902,52.114857,65,70,40
52.119022,52.219025,69,70,40
52.219025,52.319023,67,70,40
52.319023,52.41902,66,70,40
52.41902,52.519024,67,70,40
52.519024,52.619022,69,70,40
52.619022,52.719025,67,70,40
52.719025,52.819023,65,70,40
52.819023,52.91902,62,70,40
52.91902,53.019024,65,70,40
53.019024,53.119022,64,70,40
53.119022,53.219025,63,70,40
53.219025,53.319023,64,70,40
53.319023,53.41902,65,70,40
53.41902,53.519024,64,70,40
53.519024,53.619022,62,70,40
53.619022,53.719025,59,70,40
53.719025,53.914856,60,70,40
54.319023,54.714855,72,70,40
54.719025,54.914856,77,70,40
55.119022,55.514854,69,70,40
55.519024,55.664856,81,76,40
55.719025,55.864857,81,83,40
55.91902,56.064857,81,90,40
56.119022,56.52022,81,97,40
56.5245,56.7257,79,110,40
56.72998,56.939804,77,90,40
56.944267,57.097244,76,70,40
57.15141,57.347244,76,70,40
57.35141,57.54724,77,70,40
57.55141,57.747242,74,70,40
57.751408,57.897243,79,70,40
57.95141,58.147243,76,70,40
58.15141,58.347244,77,70,40
58.35141,58.54724,74,70,40
58.55141,58.747242,79,70,40
58.751408,58.947243,76,70,40
58.95141,59.147243,72,70,40
59.15141,59.347244,69,70,40
59.35141,59.54724,67,70,40
59.55141,59.747242,64,70,40
59.751408,59.947243,65,70,40
59.95141,60.147243,62,70,40
60.15141,60.251408,63,70,40
60.251408,60.35141,67,71,40
60.35141,60.45141,75,72,40
60.45141,60.54724,72,74,40
60.55141,60.65141,72,75,40
60.65141,60.751408,71,77,40
60.751408,60.85141,69,78,40
60.85141,60.95141,71,79,40
60.95141,61.05141,72,81,40
61.05141,61.15141,67,82,40
61.15141,61.251408,75,84,40
61.251408,61.347244,72,85,40
61.35141,61.45141,72,86,40
61.45141,61.55141,71,88,40
61.55141,61.65141,69,89,40
61.65141,61.751408,71,91,40
61.751408,61.947243,72,92,40
61.95141,62.05141,63,95,40
62.05141,62.15141,60,96,40
62.15141,62.251408,65,98,40
62.251408,62.35141,62,99,40
62.55141,62.65141,63,103,40
62.65141,62.751408,60,105,40
62.95141,63.05415,62,109,40
63.05415,63.156887,59,110,40
63.371174,63.43874,67,70,40
63.43874,63.50631,66,70,40
63.50631,63.573875,67,70,40
63.573875,63.641445,68,70,40
63.641445,63.70901,67,70,40
63.70901,63.776577,66,70,40
63.776577,64.24955,67,70,40
64.24955,64.317116,66,70,40
64.317116,64.38469,67,70,40
64.38469,64.452255,68,70,40
64.452255,64.51982,67,70,40
64.51982,64.58739,66,70,40
64.58739,65.06036,67,70,40
65.06036,65.12793,66,70,40
65.12793,65.195496,67,70,40
65.195496,65.26306,68,70,40
65.26306,65.33063,67,70,40
65.33063,65.3982,66,70,40
65.3982,65.95141,67,70,40
66.00631,66.15411,67,70,40
66.20901,66.35681,67,70,40
66.41171,66.55952,67,70,40
66.61441,67.2183,72,70,40
67.22252,67.421,76,70,40
67.425224,68.029106,77,70,40
68.03333,68.23181,74,70,40
68.23603,68.83992,76,70,40
68.84414,69.04262,72,70,40
69.046844,69.34667,74,70,40
69.3509,69.44803,71,70,40
69.45225,69.51981,71,70,40
69.51981,69.58739,72,70,40
69.58739,69.65495,71,70,40
69.65495,69.7563,69,70,40
69.7563,69.85343,71,70,40
69.85765,69.925224,72,70,40
69.925224,69.99279,71,71,40
69.99279,70.060356,72,72,40
70.060356,70.12792,74,73,40
70.12792,70.19549,72,74,40
70.19549,70.26306,71,75,40
70.26306,70.73603,72,77,40
70.73603,70.8036,71,85,40
70.8036,70.87117,72,86,40
70.87117,70.938736,74,87,40
70.938736,71.0063,72,88,40
71.0063,71.07387,71,89,40
71.07387,71.546844,72,91,40
71.546844,71.61441,69,99,40
71.61441,71.68198,70,100,40
71.68198,71.74954,72,101,40
71.74954,71.81711,74,102,40
71.81711,71.88468,76,103,40
71.88468,71.95225,77,105,40
71.95225,72.01981,76,106,40
72.01981,72.08738,74,107,40
72.08738,72.154945,72,108,40
72.154945,72.22252,70,109,40
72.22252,72.28586,69,110,40
72.290085,72.35765,70,110,40
72.35765,72.42522,72,110,40
72.42522,72.49278,74,110,40
72.49278,72.560356,72,110,40
72.560356,72.62792,70,110,40
72.62792,72.69549,69,110,40
72.69549,72.763985,67,110,40
72.763985,72.83247,65,110,40
72.83247,72.90097,64,110,40
72.90097,72.9724,62,105,40
72.9724,73.04382,60,94,40
73.04382,73.11079,58,82,40
73.11525,73.32507,57,70,40
73.92954,74.07537,58,70,40
74.12954,74.275375,58,70,40
74.32954,74.47537,58,70,40
75.52954,75.67537,60,70,40
75.72954,75.879364,60,70,40
75.93502,76.09127,57,70,40
76.57073,76.76656,67,70,40
76.77073,76.96657,60,70,40
76.97073,77.166565,69,70,40
77.370735,77.56657,67,70,40
77.57073,77.76656,60,70,40
77.77073,77.96657,69,70,40
78.17073,78.36656,67,70,40
78.370735,78.56657,60,70,40
78.57073,78.76656,69,70,40
78.77073,78.97193,67,70,40
78.97621,79.186035,71,70,40
79.1905,79.400314,67,70,40
80.42621,80.572044,60,70,40
80.62621,80.77204,60,70,40
80.82621,80.972046,70,70,40
81.02621,81.17204,70,70,40
81.22621,81.42204,64,70,40
82.42621,82.572044,75,70,40
82.62621,82.77204,75,70,40
82.82621,83.02204,66,70,40
83.22621,83.37204,75,74,40
83.42621,83.572044,75,76,40
83.62621,83.822044,74,78,40
84.02621,84.17204,72,82,40
84.22621,84.37204,72,84,40
84.42621,84.62204,70,86,40
84.82621,84.972046,70,90,40
85.02621,85.17204,70,92,40
85.22621,85.42204,69,94,40
85.62621,85.77204,67,98,40
85.82621,85.972046,67,100,40
86.02621,86.222046,65,110,40
86.42621,86.572044,62,110,40
86.62621,86.77204,62,110,40
86.82621,87.02204,65,110,40
87.22621,87.37604,56,110,40
87.43169,87.58794,56,110,40
87.64597,87.8558,57,110,40
88.4767,88.54519,70,110,40
88.54519,88.613686,69,110,40
88.613686,88.682175,70,110,40
88.682175,88.75067,72,110,40
88.75067,88.81916,70,110,40
88.81916,88.88766,69,110,40
88.88766,88.95615,67,110,40
88.95615,89.02464,66,110,40
89.02464,89.09313,67,110,40
89.09313,89.16163,69,110,40
89.16163,89.23012,67,110,40
89.23012,89.294334,65,110,40
89.298615,89.44844,64,110,40
89.50409,89.65392,62,110,40
89.70957,89.8594,61,110,40
90.12053,90.18902,70,110,40
90.18902,90.257515,69,110,40
90.257515,90.326004,70,110,40
90.326004,90.3945,72,110,40
90.3945,90.463,70,110,40
90.463,90.53149,69,110,40
90.53149,90.59998,67,110,40
90.59998,90.66847,66,110,40
90.66847,90.73697,67,110,40
90.73697,90.80546,69,110,40
90.80546,90.873955,67,110,40
90.873955,90.93816,65,110,40
90.942444,91.09227,64,110,40
91.14793,91.29775,62,100,40
91.3534,91.503235,61,91,40
91.76436,91.832855,70,84,40
91.832855,91.901344,69,85,40
91.901344,91.96984,70,86,40
91.96984,92.03833,72,86,40
92.03833,92.10683,70,87,40
92.10683,92.175316,69,88,40
92.175316,92.24381,67,89,40
92.24381,92.3123,66,90,40
92.3123,92.3808,67,90,40
92.3808,92.44929,69,91,40
92.44929,92.517784,67,92,40
92.517784,92.58199,65,93,40
92.58627,92.65477,64,93,40
92.65477,92.72326,63,94,40
92.72326,92.791756,64,95,40
92.791756,92.86025,65,96,40
92.86025,92.92874,64,97,40
92.92874,92.99295,62,97,40
92.99724,93.147064,61,98,40
93.20271,93.35254,62,100,40
93.408195,93.55802,61,110,40
93.61367,93.7635,61,110,40
93.81915,93.96898,62,110,40
94.02463,94.17446,64,110,40
94.23011,94.431305,65,110,40
97.51778,97.581985,74,70,40
97.586266,97.650475,73,70,40
97.65476,97.71897,74,70,40
97.72325,97.78746,75,70,40
97.79175,97.85596,74,70,40
97.86024,97.92445,72,70,40
97.928734,97.99294,70,70,40
97.99722,98.06144,69,70,40
98.06572,98.12993,70,70,40
98.13421,98.198425,72,70,40
98.202705,98.266914,70,70,40
98.271194,98.33541,69,70,40
98.33969,98.48952,67,70,40
98.545166,98.695,67,70,40
98.75065,98.900475,67,70,40
98.95612,99.10596,67,70,40
99.161606,99.31143,66,70,40
99.36708,99.516914,62,70,40
99.57256,99.72239,64,70,40
99.77804,99.92787,66,70,40
99.98352,100.13335,67,70,40
100.189,100.33883,69,70,40
100.39448,100.544304,70,70,40
100.59996,100.74979,71,70,40
100.805435,101.00664,72,70,40
104.50406,105.527176,65,70,40
105.531456,105.5657,68,70,40
105.5657,105.599945,70,70,40
105.599945,105.63419,72,70,40
105.63419,105.66844,73,70,40
105.66844,105.70268,75,70,40
105.70268,105.73265,77,70,40
105.73693,106.34909,78,80,40
106.35337,106.50962,77,95,40
106.56766,106.72391,75,100,40
106.781944,106.94279,73,105,40
107.002525,107.1708,72,110,40
107.2333,107.41559,72,115,40
107.4833,107.66559,73,120,40
107.7333,107.87913,68,60,40
107.9333,108.07913,68,60,40
108.1333,108.27913,68,60,40
108.3333,108.47913,68,60,40
108.533295,108.67913,68,60,40
108.7333,108.87913,68,60,40
108.9333,109.07913,68,60,40
109.1333,109.27913,68,60,40
109.3333,109.47913,68,60,40
109.533295,109.67913,68,60,40
109.7333,109.87913,68,60,40
109.9333,110.07913,68,60,40
110.1333,110.27913,68,60,40
110.3333,110.47913,68,60,40
110.533295,110.67913,68,60,40
110.7333,110.92913,68,60,40
110.9333,111.12913,67,60,40
111.1333,111.72913,68,60,40
111.7333,111.92913,67,60,40
111.9333,112.52913,68,60,40
112.533295,112.72913,67,60,40
112.7333,113.32913,68,60,40
113.3333,113.52913,67,60,40
113.533295,114.12913,68,60,40
114.1333,114.32913,67,60,40
114.3333,114.92913,68,60,40
114.9333,115.12913,67,60,40
115.1333,115.72913,68,60,40
115.7333,115.92913,65,80,40
115.9333,116.12913,65,60,40
116.1333,116.32913,65,60,40
116.3333,116.52913,65,60,40
116.533295,116.72913,65,80,40
116.7333,116.92913,65,60,40
116.9333,117.12913,65,60,40
117.1333,117.32913,65,60,40
117.3333,117.52913,66,80,40
117.533295,117.72913,66,60,40
117.7333,117.92913,66,60,40
117.9333,118.12913,66,60,40
118.1333,118.32913,66,80,40
118.3333,118.52913,66,60,40
118.533295,118.72913,66,60,40
118.7333,118.92913,66,60,40
118.9333,119.12913,66,80,40
119.1333,119.32913,66,60,40
119.3333,119.52913,66,60,40
119.533295,119.72913,66,60,40
119.7333,119.92913,67,80,40
119.9333,120.12913,67,60,40
120.1333,120.334496,67,60,40
120.338776,120.53998,67,60,40
120.54426,120.754074,67,80,40
120.758545,120.97453,67,60,40
120.979126,121.20509,67,60,40
121.2099,121.43586,67,60,40
123.49546,123.696655,64,70,40
123.700935,124.30482,65,70,40
124.309044,124.50752,62,70,40
124.51175,125.11563,59,70,40
125.11985,125.31834,62,70,40
125.322556,125.92644,60,70,40
125.930664,126.12914,64,70,40
126.13337,126.73725,67,70,40
126.74147,127.142654,67,70,40
127.14688,127.34536,66,70,40
127.34958,127.95347,67,70,40
127.95769,128.15617,66,70,40
128.16039,128.76428,67,70,40
131.80904,132.81833,65,112,40
132.82256,132.87323,67,70,40
132.87323,132.9239,69,70,40
132.9239,132.97458,70,70,40
132.97458,133.02525,72,70,40
133.02525,133.17305,73,70,40
133.22795,133.37576,73,70,40
133.43065,133.83183,73,70,40
133.83606,133.98387,72,70,40
134.03876,134.18657,70,70,40
134.24147,134.38927,68,70,40
134.44417,134.59198,67,70,40
134.64687,134.79468,65,70,40
134.84958,134.99738,63,70,40
135.05228,135.20007,61,70,40
135.25497,135.40279,73,70,40
135.45769,135.60548,70,70,40
135.66039,135.80818,68,70,40
135.86308,136.0109,66,70,40
136.0658,136.2136,65,70,40
136.2685,136.41629,63,70,40
136.47119,136.619,61,70,40
136.67389,136.8217,60,70,40
136.8766,137.0244,75,70,40
137.0793,137.22711,72,70,40
137.282,137.42981,70,70,40
137.48471,137.6325,68,70,40
137.68741,137.8352,66,70,40
137.8901,138.03792,65,70,40
138.09282,138.24062,63,70,40
138.29552,138.44331,61,70,40
138.49821,138.53622,68,70,40
138.53622,138.57423,70,70,40
138.57,138.60802,72,70,40
138.60802,138.64603,73,70,40
138.65024,138.6967,75,70,40
138.70093,138.84872,77,70,40
138.90363,139.05142,77,70,40
139.10632,139.5075,77,110,40
139.51173,139.65953,76,70,40
139.71443,139.86224,77,70,40
139.91713,140.06494,79,70,40
140.11984,140.17052,72,70,40
140.17052,140.22119,74,70,40
140.22119,140.27187,76,70,40
140.27187,140.32254,77,70,40
140.32254,140.47035,79,70,40
140.52524,140.67305,79,70,40
140.72795,141.12914,79,110,40
141.13335,141.28116,77,70,40
141.33606,141.48796,79,70,40
141.54439,141.74838,80,110,40
141.75272,142.16504,80,110,40
142.16939,142.58171,80,110,40
142.58604,142.99838,80,110,40
143.00272,143.21254,80,110,40
143.21701,143.28397,79,100,40
143.28844,143.35986,78,100,40
143.35986,143.43129,79,100,40
143.43129,143.49979,80,100,40
143.49979,143.56827,79,100,40
143.56827,143.63676,77,100,40
143.63676,143.70526,76,100,40
143.70526,143.77376,75,100,40
143.77376,143.84224,76,100,40
143.84224,143.91074,77,100,40
143.91074,143.97923,76,100,40
143.97923,144.04344,74,100,40
144.04773,144.24892,72,100,40
144.2532,144.40303,65,100,40
144.2532,144.40303,71,100,40
144.45868,144.6085,65,100,40
144.45868,144.6085,71,100,40
144.66417,144.814,65,100,40
144.66417,144.814,71,100,40
144.86964,145.07085,64,100,40
144.86964,145.07085,72,100,40
146.51347,146.57768,79,100,40
146.58197,146.65047,78,100,40
146.65047,146.71895,79,100,40
146.71895,146.78745,80,100,40
146.78745,146.85594,79,100,40
146.85594,146.92444,77,100,40
146.92444,146.99292,76,100,40
146.99292,147.06142,75,100,40
147.06142,147.12991,76,100,40
147.12991,147.19841,77,100,40
147.19841,147.26689,76,100,40
147.26689,147.33112,74,100,40
147.33539,147.48521,72,100,40
147.54086,147.6907,65,100,40
147.54086,147.6907,71,100,40
147.74635,147.89618,65,100,40
147.74635,147.89618,71,100,40
147.95183,148.10165,65,100,40
147.95183,148.10165,71,100,40
148.1573,148.3585,64,100,40
148.1573,148.3585,72,100,40
149.18471,149.33453,68,120,40
149.39018,149.54001,68,120,40
149.59566,149.74548,68,120,40
149.80113,150.00233,67,120,40
150.00662,150.20781,67,60,40
150.2121,150.4133,67,60,40
150.41757,150.61877,67,60,40
150.62305,150.82425,67,60,40
150.82854,151.02972,67,60,40
151.03401,151.23521,67,60,40
151.23949,151.44069,67,60,40
151.44498,151.64616,68,60,40
151.65045,151.85165,68,60,40
151.85593,152.05713,68,60,40
152.0614,152.2626,68,60,40
152.26689,152.46808,68,60,40
152.47237,152.67357,68,60,40
152.67784,152.87904,68,60,40
152.88332,153.08452,68,60,40
153.0888,153.29,69,60,40
153.29428,153.49548,69,60,40
153.49976,153.70096,69,60,40
153.70525,153.90643,69,60,40
153.91072,154.11192,69,60,40
154.1162,154.3174,69,60,40
154.32167,154.52287,69,60,40
154.52716,154.72835,69,60,40
154.73264,154.93384,69,60,40
154.93811,155.13931,69,60,40
155.14359,155.34479,69,60,40
155.34908,155.55026,69,60,40
155.55455,155.75575,69,60,40
155.76003,155.96123,69,60,40
155.96552,156.1667,69,60,40
156.17099,156.3722,69,60,40
156.37646,156.57767,69,60,40
156.58194,156.78314,68,60,40
156.78743,157.39958,69,60,40
157.40385,157.60506,68,60,40
157.60934,158.2215,69,60,40
158.22578,158.42697,68,60,40
158.43126,159.04341,69,60,40
159.0477,159.24889,68,60,40
159.25317,159.86533,69,60,40
159.86961,160.0708,68,60,40
160.07509,160.69003,69,60,40
160.69438,160.89838,68,60,40
160.90271,161.55357,69,60,40
161.55817,161.75665,66,80,40
161.76088,161.95935,66,60,40
161.96358,162.16206,66,60,40
162.16628,162.36476,66,60,40
162.36899,162.56746,65,80,40
162.57169,162.77017,65,60,40
162.77438,162.97287,65,60,40
162.9771,163.17557,65,60,40
163.1798,163.37827,65,80,40
163.38249,163.58098,65,60,40
163.5852,163.78368,65,60,40
163.7879,163.98637,65,60,40
163.9906,164.1946,65,80,40
164.19893,164.40875,65,60,40
164.41322,164.63919,65,60,40
164.644,164.86995,65,60,40
166.09097,166.28946,67,70,40
166.29367,166.89757,68,70,40
166.90178,167.10027,65,70,40
167.10449,167.70837,62,70,40
167.7126,167.91107,65,70,40
167.9153,168.51918,63,70,40
168.5234,168.72188,67,70,40
168.7261,169.32999,70,70,40
169.33421,169.5327,67,70,40
169.53691,170.74892,68,70,40
170.75313,170.95161,67,70,40
170.95584,171.15431,65,70,40
171.15854,171.55972,64,70,40
171.56395,172.37053,70,70,40
172.37476,172.57323,81,70,40
172.57745,172.77594,79,70,40
172.78015,173.18134,78,70,40
173.18556,173.99214,75,70,40
173.99637,174.19485,74,70,40
174.19908,174.39755,72,70,40
174.40178,175.00566,70,70,40
175.00989,175.20836,69,83,40
175.21259,175.41107,67,87,40
175.41528,175.61377,69,92,40
175.618,175.81647,70,96,40
175.8207,176.01918,72,100,40
176.02339,176.42458,70,100,40
176.4288,176.62729,69,100,40
176.6315,176.82999,67,100,40
176.83421,177.03268,65,100,40
177.03691,177.23538,67,93,40
177.23961,177.4381,69,85,40
177.44232,177.6408,65,77,40
177.64502,177.70836,67,70,40
177.71259,177.78015,66,70,40
177.78015,177.84772,67,70,40
177.84772,177.91528,68,70,40
177.91528,177.98285,67,70,40
177.98285,178.05042,65,70,40
178.05042,178.118,64,70,40
178.118,178.18556,63,70,40
178.18556,178.25313,64,70,40
178.25313,178.3207,65,70,40
178.3207,178.38826,64,70,40
178.38826,178.4516,62,70,40
178.45583,178.60364,60,70,40
178.65852,178.80634,60,70,40
178.86124,179.00903,60,70,40
179.06393,179.21175,60,70,40
179.26663,179.46512,59,70,40
179.67204,180.27592,55,70,40
179.67204,180.27592,65,70,40
180.28015,180.42795,55,70,40
180.28015,180.42795,65,70,40
180.48285,180.63066,55,70,40
180.48285,180.63066,65,70,40
180.68556,180.83336,55,70,40
180.68556,180.83336,65,70,40
180.88826,180.9516,67,70,40
180.95583,181.02339,66,70,40
181.02339,181.09096,67,70,40
181.09096,181.15852,68,70,40
181.15852,181.22609,67,70,40
181.22609,181.29366,65,70,40
181.29366,181.36124,64,70,40
181.36124,181.4288,63,70,40
181.4288,181.49637,64,70,40
181.49637,181.56393,65,70,40
181.56393,181.6315,64,70,40
181.6315,181.69484,62,70,40
181.69907,181.84688,60,70,40
181.90176,182.04958,60,70,40
182.10448,182.25227,60,70,40
182.30717,182.45497,60,70,40
182.50987,182.57323,79,70,40
182.57744,182.64502,78,70,40
182.64502,182.71259,79,70,40
182.71259,182.78015,80,70,40
182.78015,182.84772,79,70,40
182.84772,182.91528,77,70,40
182.91528,182.98285,76,70,40
182.98285,183.05042,75,70,40
183.05042,183.11798,76,70,40
183.11798,183.18555,77,70,40
183.18555,183.25311,76,70,40
183.25311,183.31647,74,70,40
183.3207,183.46849,72,70,40
183.52339,183.67119,72,70,40
183.72609,183.8739,72,70,40
183.92879,184.0766,72,70,40
184.1315,184.19907,82,70,40
184.19907,184.26663,81,70,40
184.26663,184.3342,82,70,40
184.3342,184.40176,84,70,40
184.40176,184.46933,82,70,40
184.46933,184.5369,81,70,40
184.5369,184.60448,79,70,40
184.60448,184.67204,78,70,40
184.67204,184.73961,79,70,40
184.73961,184.80717,81,70,40
184.80717,184.87474,79,70,40
184.87474,184.93808,77,70,40
184.9423,185.09012,79,70,40
185.145,185.29282,79,70,40
185.34772,185.49551,79,70,40
185.55042,185.70024,79,70,40
185.75589,185.8201,79,70,40
185.82439,185.89288,78,70,40
185.89288,185.96138,79,70,40
185.96138,186.02986,80,70,40
186.02986,186.09836,79,70,40
186.09836,186.16685,77,70,40
186.16685,186.6463,79,70,40
186.6463,186.7148,78,70,40
186.7148,186.7833,79,70,40
186.7833,186.85178,80,70,40
186.85178,186.92027,79,70,40
186.92027,186.98877,77,70,40
186.98877,187.46822,79,70,40
187.46822,187.53671,78,72,40
187.53671,187.60521,79,74,40
187.60521,187.67369,78,76,40
187.67369,187.74219,79,78,40
187.74219,187.81068,78,80,40
187.81068,187.87918,79,82,40
187.87918,187.94766,78,84,40
187.94766,188.01616,79,86,40
188.01616,188.08466,78,89,40
188.08466,188.15315,79,91,40
188.15315,188.22165,78,93,40
188.22165,188.29013,79,95,40
188.29013,188.35863,78,97,40
188.35863,188.42712,79,99,40
188.42712,188.49562,78,101,40
188.49562,188.5641,79,103,40
188.5641,188.6326,78,106,40
188.6326,188.70302,79,108,40
188.70302,188.77344,78,110,40
188.77344,188.84387,79,112,40
188.84387,188.91634,78,114,40
188.91634,188.9888,79,116,40
188.9888,189.06126,78,118,40
189.06126,189.13373,79,120,40
189.13373,189.20619,81,120,40
189.20619,189.27866,79,120,40
189.27866,189.35112,77,120,40
189.35112,189.42358,79,120,40
189.42358,189.49603,77,120,40
189.49603,189.5685,76,120,40
189.5685,189.64096,77,120,40
189.64096,189.71342,76,120,40
189.71342,189.78589,74,120,40
189.78589,189.85835,76,120,40
189.85835,189.9263,74,120,40
189.93082,190.00328,72,120,40
190.00328,190.07574,74,120,40
190.07574,190.14821,72,120,40
190.14821,190.22067,70,120,40
190.22067,190.29314,72,120,40
190.29314,190.3656,70,120,40
190.3656,190.44252,69,120,40
190.44252,190.51945,70,120,40
190.51945,190.59637,69,120,40
190.59637,190.6797,67,110,40
190.6797,190.76305,69,97,40
190.76305,190.84117,67,84,40
190.84637,191.0562,65,70,40
191.66876,191.81657,60,70,40
191.87148,192.01927,60,70,40
192.07417,192.22197,70,70,40
193.29039,193.43819,60,70,40
193.49309,193.6409,60,70,40
193.69579,193.8436,72,70,40
194.3039,194.50238,67,70,40
194.5066,194.70508,60,70,40
194.7093,194.90778,69,70,40
195.11472,195.31319,67,70,40
195.31741,195.51588,60,70,40
195.52011,195.7186,69,70,40
195.92552,196.124,67,70,40
196.12822,196.3267,60,70,40
196.33092,196.53491,69,70,40
196.53926,196.74326,67,70,40
196.74759,196.95741,71,70,40
196.96187,197.17169,67,70,40
197.39044,197.46187,69,110,40
197.46187,197.53331,67,110,40
197.53331,197.60474,69,110,40
197.60474,197.67322,70,110,40
197.67322,197.74171,69,110,40
197.74171,197.81021,67,110,40
197.81021,197.87871,65,110,40
197.87871,197.94719,64,110,40
197.94719,198.01569,62,110,40
198.01569,198.08418,60,110,40
198.08418,198.15268,58,110,40
198.15268,198.21689,57,110,40
198.22118,198.371,55,110,40
198.42665,198.57648,55,110,40
198.63213,198.78195,58,110,40
199.04309,199.11157,70,110,40
199.11157,199.18007,69,110,40
199.18007,199.24857,70,110,40
199.24857,199.31706,72,110,40
199.31706,199.38554,70,110,40
199.38554,199.45404,69,110,40
199.45404,199.52254,67,110,40
199.52254,199.59103,65,110,40
199.59103,199.65952,64,110,40
199.65952,199.72801,62,110,40
199.72801,199.79651,60,110,40
199.79651,199.86072,58,110,40
199.865,200.01483,57,110,40
200.07048,200.2203,57,110,40
200.27596,200.42578,60,110,40
200.8924,201.08823,67,70,40
201.09239,201.28822,60,70,40
201.29239,201.48824,69,70,40
201.6924,201.88823,67,70,40
201.8924,202.08823,60,70,40
202.09239,202.28822,69,70,40
202.4924,202.68823,67,74,40
202.6924,202.88823,60,78,40
202.8924,203.04222,72,83,40
203.09787,203.2477,70,87,40
203.30336,203.45319,70,92,40
203.50883,203.66508,69,96,40
203.72311,203.88396,65,100,40
203.94371,204.26999,65,110,40
204.38489,204.71117,58,110,40
204.82607,205.26263,57,110,40
206.1227,206.2227,57,70,40
206.2227,206.3227,60,70,40
206.3227,206.4227,67,70,40
206.4227,206.51852,65,70,40
206.52269,206.91853,64,70,40
207.7227,207.8227,60,70,40
207.8227,207.9227,64,70,40
207.9227,208.02269,69,70,40
208.02269,208.11853,67,70,40
208.1227,208.51852,65,70,40
210.52817,210.67801,67,70,40
210.73366,210.88348,64,70,40
210.93913,211.09538,67,70,40
211.15341,211.31427,64,70,40
211.37401,211.83073,67,70,40
211.83554,212.00381,65,70,40
212.06631,212.23459,69,110,40
212.29709,212.98459,57,110,40
212.9894,213.06631,57,110,40
213.06631,213.14323,59,110,40
213.14323,213.21535,61,110,40
213.22015,213.366,62,110,40
213.42015,213.566,64,110,40
213.62016,213.76599,65,110,40
213.82016,213.96599,67,110,40
214.02016,214.16599,69,110,40
214.22015,214.366,71,110,40
214.42015,214.566,72,110,40
214.62016,214.76599,73,110,40
214.82016,214.96599,74,110,40
215.02016,215.16599,76,110,40
215.17015,215.22015,74,110,40
215.22015,215.27016,76,110,40
215.27016,215.81183,77,110,40
215.82016,216.01599,76,110,40
216.02016,216.08682,74,110,40
216.08682,216.15349,76,110,40
216.15349,216.22015,74,110,40
216.22015,216.41599,72,110,40
216.42015,216.48683,70,110,40
216.48683,216.5535,72,110,40
216.5535,216.62016,70,110,40
216.62016,216.82135,69,110,40
216.82564,216.89413,67,110,40
216.89413,216.96262,69,110,40
216.96262,217.03111,67,110,40
217.03111,217.24094,65,110,40
217.2454,217.40625,64,110,40
217.46599,217.62683,65,110,40
217.68658,217.85484,63,110,40
217.91734,218.09964,60,110,40
218.16734,218.37717,58,70,40
218.58434,218.68568,58,70,40
218.68568,218.78703,62,70,40
218.78703,218.88838,65,70,40
218.88838,218.98975,62,70,40
218.98975,219.39091,60,70,40
220.30731,220.40866,57,70,40
220.40866,220.51001,62,70,40
220.51001,220.61136,60,70,40
220.61136,221.01254,58,70,40
221.42216,221.52351,55,70,40
221.52351,221.62488,58,70,40
221.62488,221.72623,62,70,40
221.72623,221.82758,60,70,40
221.82758,221.92892,58,70,40
221.92892,222.03027,62,70,40
222.03027,222.13162,70,70,40
222.13162,222.23299,67,70,40
222.23299,222.63416,66,70,40
223.0438,223.14514,62,70,40
223.14514,223.24649,66,70,40
223.24649,223.34784,69,70,40
223.34784,223.44919,67,70,40
223.44919,223.55055,66,70,40
223.55055,223.6519,69,70,40
223.6519,223.75325,74,70,40
223.75325,223.8546,72,70,40
223.95595,224.0573,62,70,40
224.0573,224.15866,72,70,40
224.15866,224.26001,70,70,40
224.36136,224.4627,62,70,40
224.4627,224.56406,72,70,40
224.56406,224.6654,71,70,40
224.76675,224.86812,67,70,40
224.86812,224.96947,74,70,40
224.96947,225.07082,72,70,40
225.17216,225.27351,64,70,40
225.27351,225.37486,72,70,40
225.37486,225.47623,70,70,40
225.57758,225.67892,69,70,40
225.67892,225.78027,74,70,40
225.78027,225.88162,72,73,40
225.98297,226.08432,67,80,40
226.08432,226.18568,74,83,40
226.18568,226.28703,72,87,40
226.38838,226.48973,69,93,40
226.48973,226.59108,79,97,40
226.59108,226.69243,77,100,40
226.7938,226.89514,65,107,40
226.89514,226.99649,76,110,40
226.99649,227.09784,74,80,40
227.09784,227.29633,64,70,40
227.09784,227.29633,72,70,40
228.11136,228.25916,67,70,40
228.31406,228.46185,67,70,40
228.51675,228.66457,67,70,40
228.71947,229.32335,72,70,40
229.32756,229.37825,74,70,40
229.37825,229.42892,72,70,40
229.42892,229.4796,71,70,40
229.4796,229.53027,69,70,40
229.53027,229.67807,67,70,40
229.73297,229.88078,67,70,40
229.93567,230.08348,67,70,40
230.13838,230.28618,67,70,40
230.34108,230.53957,67,70,40
231.3546,231.5024,67,70,40
231.5573,231.7051,67,70,40
231.76,231.9078,67,70,40
231.96269,232.06406,74,70,40
232.06406,232.1654,72,70,40
232.1654,232.26675,71,70,40
232.26675,232.3681,72,70,40
232.3681,232.46945,74,70,40
232.46945,232.5708,72,70,40
232.5708,232.67497,70,70,40
232.67497,232.77914,69,70,40
232.77914,232.98314,70,80,40
232.98747,233.14372,58,95,40
233.20175,233.36261,58,110,40
233.42235,233.59062,58,100,40
233.65312,234.08508,57,70,40
234.7058,234.85564,60,70,40
234.91129,235.06111,60,70,40
235.11676,235.26659,60,70,40
235.32224,235.93439,65,70,40
235.93867,235.99005,67,70,40
235.99005,236.04141,65,70,40
236.04141,236.09279,64,70,40
236.09279,236.14415,62,70,40
236.14415,236.29398,60,70,40
236.34964,236.49947,60,70,40
236.55511,236.70494,60,70,40
236.76059,236.91042,60,70,40
236.96606,237.37274,60,70,40
237.99347,238.1433,60,70,40
238.19894,238.34877,60,70,40
238.40442,238.55424,60,70,40
238.60991,238.71265,67,70,40
238.71265,238.81538,65,73,40
238.81538,238.91812,64,76,40
238.91812,239.02086,65,80,40
239.02086,239.1236,67,83,40
239.1236,239.22633,65,87,40
239.22633,239.32907,64,90,40
239.32907,239.43182,62,93,40
239.43182,239.63301,60,97,40
239.6373,239.78712,70,104,40
239.84277,239.9926,70,110,40
240.04825,240.19809,70,85,40
240.25374,240.45493,69,70,40
240.87018,241.27686,72,70,40
241.6921,242.09877,69,70,40
242.514,242.92068,65,70,40
243.74687,243.94807,74,70,40
244.15784,244.35904,74,70,40
244.56879,244.76999,72,70,40
244.97975,245.18095,70,70,40
245.18523,245.28796,74,70,40
245.28796,245.3907,72,70,40
245.3907,245.49345,71,70,40
245.49345,245.59619,72,70,40
245.59619,245.69893,74,70,40
245.69893,245.80167,72,70,40
245.80167,245.9044,70,70,40
245.9044,246.00714,67,70,40
246.00714,246.10988,70,70,40
246.10988,246.21263,69,70,40
246.21263,246.31537,68,70,40
246.31537,246.4181,69,70,40
246.4181,246.52084,70,70,40
246.52084,246.62358,69,70,40
246.62358,246.72632,67,70,40
246.72632,246.82906,64,70,40
246.82906,247.23573,65,70,40
247.4455,247.85217,65,70,40
248.26741,248.67409,62,70,40
248.67838,248.8282,74,76,40
248.88385,249.03368,74,83,40
249.08932,249.23917,74,90,40
249.29482,249.71011,74,97,40
249.71457,249.93057,72,110,40
249.93517,250.16112,70,90,40
250.16592,250.37845,69,70,40
250.38266,251.18925,72,70,40
251.19348,252.00006,72,70,40
252.00429,252.20277,72,70,40
252.20699,252.40547,74,70,40
252.4097,252.60817,70,70,40
252.6124,252.81087,69,70,40
252.8151,253.01358,65,70,40
253.0178,253.21628,67,70,40
253.2205,253.41898,64,70,40
253.4232,253.495,65,70,40
253.52455,253.6259,72,73,40
253.6259,253.72726,80,76,40
253.72726,253.82861,77,79,40
253.82861,253.92996,77,82,40
253.92996,254.03131,76,85,40
254.03131,254.13266,74,88,40
254.13266,254.23401,76,92,40
254.23401,254.3058,77,95,40
254.33537,254.43672,72,98,40
254.43672,254.53807,80,101,40
254.53807,254.63942,77,104,40
254.63942,254.74077,77,107,40
254.74077,254.84212,76,110,40
254.84212,254.94347,74,105,40
254.94347,255.04483,76,88,40
255.04483,255.2433,77,70,40
255.24753,255.34888,68,70,40
255.34888,255.45023,65,70,40
255.45023,255.55157,70,70,40
255.55157,255.65294,67,70,40
255.85564,255.95699,68,70,40
255.95699,256.05835,65,70,40
256.26105,256.3624,67,70,40
256.3624,256.46375,64,70,40
256.6721,256.74152,72,70,40
256.74152,256.81097,71,70,40
256.81097,256.8804,72,70,40
256.8804,256.94986,73,70,40
256.94986,257.0193,72,70,40
257.0193,257.08875,71,70,40
257.08875,257.57486,72,70,40
257.57486,257.6443,71,70,40
257.6443,257.71375,72,70,40
257.71375,257.78317,73,70,40
257.78317,257.85263,72,70,40
257.85263,257.92206,71,70,40
257.92206,258.40817,72,70,40
258.40817,258.47763,71,70,40
258.47763,258.54706,72,70,40
258.54706,258.61652,73,70,40
258.61652,258.68597,72,70,40
258.68597,258.7554,71,70,40
258.7554,259.37607,72,70,40
259.3804,259.5844,72,70,40
259.58875,259.79272,72,70,40
259.79706,260.00107,72,70,40
260.0054,260.62607,77,70,40
260.6304,260.83438,81,70,40
260.83875,261.45938,82,70,40
261.46375,261.66772,79,70,40
261.67206,262.29272,81,70,40
262.29706,262.50107,77,70,40
262.5054,262.8179,79,70,40
262.8179,262.92206,76,70,40
262.92206,262.99152,76,70,40
262.99152,263.06094,77,70,40
263.06094,263.1304,76,70,40
263.1304,263.23456,74,70,40
263.23456,263.33438,76,70,40
263.33875,263.40817,77,70,40
263.40817,263.47763,76,71,40
263.47763,263.54706,77,72,40
263.54706,263.61652,79,73,40
263.61652,263.68594,77,74,40
263.68594,263.7554,76,75,40
263.7554,264.24152,77,76,40
264.24152,264.31094,76,84,40
264.31094,264.3804,77,85,40
264.3804,264.44983,79,87,40
264.44983,264.5193,77,88,40
264.5193,264.5887,76,89,40
264.5887,265.07483,77,90,40
265.07483,265.1443,74,98,40
265.1443,265.2137,75,99,40
265.2137,265.28317,77,100,40
265.28317,265.34827,79,101,40
265.35263,265.41772,81,102,40
265.42206,265.48715,82,104,40
265.49152,265.5566,81,105,40
265.56094,265.62607,79,106,40
265.6304,265.6955,77,107,40
265.69983,265.76495,75,108,40
265.7693,265.83438,74,109,40
265.8387,265.90384,75,110,40
265.90817,265.97327,77,110,40
265.97763,266.04272,79,110,40
266.04706,266.11215,77,110,40
266.11652,266.1816,75,110,40
266.18594,266.25104,74,110,40
266.2554,266.3205,72,110,40
266.32483,266.38995,70,110,40
266.3943,266.45938,69,110,40
266.4637,266.52884,67,100,40
266.53317,266.59827,65,90,40
266.6026,266.66772,64,80,40
266.67206,266.87604,62,70,40
267.5054,267.6573,63,70,40
267.7137,267.86563,63,70,40
267.92206,268.07397,63,70,40
269.17206,269.32397,68,70,40
269.3804,269.53665,68,70,40
269.59467,269.75092,68,70,40
271.74384,271.90466,73,70,40
271.96442,272.1327,73,70,40
272.1952,272.37747,76,70,40
272.71793,272.9002,72,55,40
272.96793,273.13617,72,55,40
273.19867,273.35492,72,55,40
273.41296,273.5628,72,55,40
273.61844,273.76428,70,55,40
273.81845,273.9643,70,55,40
274.01846,274.16428,70,55,40
274.21844,274.3643,70,55,40
274.41846,274.56427,69,55,40
274.61844,274.76428,69,55,40
274.81845,274.9643,69,55,40
275.01846,275.16428,69,55,40
275.21844,275.3643,69,55,40
275.41846,275.56427,69,55,40
275.61844,275.76428,69,55,40
275.81845,275.9643,69,55,40
276.01846,276.16428,68,55,40
276.21844,276.3643,68,55,40
276.41846,276.56427,68,55,40
276.61844,276.76428,68,55,40
276.81845,276.9643,68,55,40
277.01846,277.16428,68,55,40
277.21844,277.3643,68,55,40
277.41846,277.56427,68,55,40
277.61844,277.76428,68,55,40
277.81845,277.9643,68,55,40
278.01846,278.16428,68,55,40
278.21844,278.3643,68,55,40
278.41846,278.56427,68,55,40
278.61844,278.76428,68,55,40
278.81845,278.9643,68,55,40
279.01846,279.16428,68,55,40
279.21844,279.3643,67,55,40
279.41846,279.56427,67,55,40
279.61844,279.76428,67,55,40
279.81845,279.9643,67,55,40
280.01846,280.16428,67,55,40
280.21844,280.3643,67,55,40
280.41846,280.56427,67,55,40
280.61844,280.76428,67,55,40
280.81845,280.9643,67,50,40
281.01846,281.16428,67,56,40
281.21844,281.3643,67,63,40
281.41846,281.56827,67,70,40
281.62393,281.82513,67,77,40
281.8294,282.0392,67,84,40
282.0437,282.25967,58,90,40
282.26428,282.49023,67,80,40
282.49506,282.70486,60,70,40
288.9931,289.7997,69,70,40
289.80392,290.4078,70,80,40
290.41202,290.6105,67,87,40
290.61475,290.76254,64,90,40
290.81744,290.96524,60,93,40
291.02014,291.62402,72,95,40
291.62823,291.77606,69,103,40
291.83093,291.97876,72,105,40
292.03366,292.18146,69,108,40
292.23636,293.04294,63,110,40
292.23636,293.04294,69,110,40
293.04715,293.85376,62,110,40
293.04715,293.85376,70,110,40
293.85797,293.92554,82,110,40
293.92554,293.9931,81,110,40
293.9931,294.06067,82,110,40
294.06067,294.12823,84,110,40
294.12823,294.1958,82,110,40
294.1958,294.26337,81,110,40
294.26337,294.33093,79,110,40
294.33093,294.3985,77,110,40
294.3985,294.46606,76,110,40
294.46606,294.53366,74,110,40
294.53366,294.60123,72,110,40
294.60123,294.66455,70,110,40
294.6688,294.8166,69,110,40
294.8715,295.0193,65,110,40
295.0742,295.222,69,110,40
295.2769,295.42468,72,110,40
295.47958,295.54715,75,110,40
295.54715,295.61472,74,110,40
295.61472,295.68228,75,110,40
295.68228,295.74985,77,110,40
295.74985,295.81744,75,110,40
295.81744,295.885,74,110,40
295.885,295.95258,72,110,40
295.95258,296.02014,70,110,40
296.02014,296.0877,69,110,40
296.0877,296.15527,67,110,40
296.15527,296.22284,65,110,40
296.22284,296.2862,63,110,40
296.2904,296.4382,62,110,40
296.4931,296.6409,62,110,40
296.6958,296.8436,74,110,40
297.10123,297.24902,64,110,40
297.30392,297.4558,64,110,40
297.51224,297.6685,70,110,40
297.72653,297.8874,70,110,40
297.9471,298.14832,69,110,40
298.55807,298.7539,67,70,40
298.7581,298.95392,60,70,40
298.95807,299.1539,69,70,40
299.3581,299.55392,67,70,40
299.55807,299.7539,60,70,40
299.7581,299.95392,72,70,40
300.15808,300.3539,67,70,40
300.3581,300.45807,60,70,40
300.45807,300.5289,57,70,40
300.55807,300.6289,60,71,40
300.65808,300.7289,60,71,40
300.7581,300.8581,60,72,40
300.8581,300.92892,58,72,40
300.95807,301.0289,60,73,40
301.05807,301.1289,60,73,40
301.15808,301.2581,60,74,40
301.2581,301.32892,57,75,40
301.3581,301.42892,65,75,40
301.45807,301.5289,65,76,40
301.55807,301.65808,65,76,40
301.65808,301.7289,62,77,40
301.7581,301.82892,65,77,40
301.8581,301.92892,65,78,40
301.95807,302.05807,65,79,40
302.05807,302.1289,63,79,40
302.15808,302.2289,65,80,40
302.2581,302.32892,65,80,40
302.3581,302.45807,65,81,40
302.45807,302.5289,62,81,40
302.55807,302.6289,65,82,40
302.65808,302.7289,65,83,40
302.7581,302.8581,67,83,40
302.8581,302.92892,64,84,40
302.95807,303.0289,67,84,40
303.05807,303.1289,67,85,40
303.15808,303.2581,69,85,40
303.2581,303.32892,65,86,40
303.3581,303.42892,69,87,40
303.45807,303.5289,69,87,40
303.55807,303.65808,67,88,40
303.65808,303.7289,65,88,40
303.7581,303.82892,67,89,40
303.8581,303.92892,67,89,40
303.95807,304.05807,67,90,40
304.05807,304.1289,65,91,40
304.15808,304.23087,67,91,40
304.26083,304.3336,67,92,40
304.36356,304.4663,69,92,40
304.4663,304.53906,65,93,40
304.56903,304.64493,69,93,40
304.67618,304.75208,69,94,40
304.78333,304.89362,70,95,40
304.89362,304.97174,67,95,40
305.0039,305.08563,70,96,40
305.1193,305.20102,70,96,40
305.23468,305.28824,69,97,40
305.30612,305.37753,81,97,40
305.37753,305.44897,79,98,40
305.44897,305.5184,77,98,40
305.5184,305.58786,76,98,40
305.58786,305.6573,74,99,40
305.6573,305.72675,72,99,40
305.72675,305.79617,70,99,40
305.79617,305.86563,69,100,40
305.86563,305.9351,67,100,40
305.9351,306.00452,65,101,40
306.00452,306.0696,64,101,40
306.07397,306.27795,65,101,40
306.89874,306.9501,69,106,40
306.96722,307.0357,81,106,40
307.0357,307.10422,79,107,40
307.10422,307.17178,77,107,40
307.17178,307.23935,76,107,40
307.23935,307.30692,74,108,40
307.30692,307.37448,72,108,40
307.37448,307.44205,70,109,40
307.44205,307.5096,69,109,40
307.5096,307.57718,67,109,40
307.57718,307.64474,65,110,40
307.64474,307.7081,64,110,40
307.7123,307.9108,65,110,40
308.52313,308.5738,65,110,40
308.5907,308.65826,77,110,40
308.65826,308.72583,76,110,40
308.72583,308.7934,74,110,40
308.7934,308.86096,72,110,40
308.86096,308.92853,71,110,40
308.92853,308.9961,72,110,40
308.9961,309.06366,74,110,40
309.06366,309.13123,72,110,40
309.13123,309.20267,70,110,40
309.20267,309.2741,69,110,40
309.2741,309.34106,67,110,40
309.34552,309.40067,65,110,40
309.41907,309.49258,77,110,40
309.49258,309.5661,76,110,40
309.5661,309.63965,74,110,40
309.63965,309.71317,72,110,40
309.71317,309.7867,71,110,40
309.7867,309.86362,72,110,40
309.86362,309.94055,74,110,40
309.94055,310.01746,72,110,40
310.01746,310.09683,70,110,40
310.09683,310.1762,69,110,40
310.1762,310.2506,67,110,40
310.25555,310.62537,65,110,40
310.75555,311.15897,55,120,40
310.75555,311.15897,64,120,40
310.75555,311.15897,72,120,40
311.30103,311.8408,57,120,40
311.30103,311.8408,65,120,40
311.30103,311.8408,72,120,40
0.0,0.19583334,53,1,41
0.8,0.9458333,48,70,41
1.0,1.1458334,48,70,41
1.2,1.3458333,48,70,41
2.4,2.5458333,48,70,41
2.6,2.7458334,48,70,41
2.8,2.9458334,48,70,41
3.4,3.7958333,60,70,41
3.8,3.9958334,60,70,41
4.2,4.5958333,60,70,41
4.6,4.795833,60,70,41
5.0,5.3958335,60,70,41
5.4,5.603993,62,70,41
5.608333,5.8243256,64,70,41
5.828921,6.0449133,65,70,41
6.049509,6.2655015,64,70,41
6.490685,6.5573516,65,70,41
6.5573516,6.624018,64,70,41
6.624018,6.690685,65,70,41
6.690685,6.757352,67,70,41
6.757352,6.8240185,65,70,41
6.8240185,6.890685,64,70,41
6.890685,6.9573517,62,70,41
6.9573517,7.0240183,60,70,41
7.0240183,7.090685,58,70,41
7.090685,7.1573515,57,70,41
7.1573515,7.224018,55,70,41
7.224018,7.286518,53,70,41
7.290685,7.436518,52,70,41
7.490685,7.6365185,52,70,41
7.690685,7.8365183,55,70,41
8.090685,8.1573515,67,70,41
8.1573515,8.224018,66,70,41
8.224018,8.290685,67,70,41
8.290685,8.357351,69,70,41
8.357351,8.424018,67,70,41
8.424018,8.490685,65,70,41
8.490685,8.557352,64,70,41
8.557352,8.624019,62,70,41
8.624019,8.690685,60,70,41
8.690685,8.757352,58,70,41
8.757352,8.8240185,57,70,41
8.8240185,8.8865185,55,70,41
8.890685,9.036518,53,70,41
9.090685,9.236518,53,70,41
9.290685,9.436519,57,70,41
9.890685,10.286518,60,70,41
10.290685,10.486518,60,70,41
10.690685,11.086518,60,70,41
11.090685,11.286518,60,70,41
11.490685,11.8865185,60,74,41
11.890685,12.042595,57,83,41
12.099018,12.250928,58,87,41
12.307351,12.459261,55,92,41
12.515684,12.667594,53,96,41
12.724017,12.882531,62,100,41
12.941408,13.262965,60,110,41
13.37619,13.697747,48,110,41
13.810972,14.241225,53,110,41
15.480536,15.580536,59,70,41
15.580536,15.680536,60,70,41
15.680536,15.780536,59,70,41
15.780536,15.880536,60,70,41
15.880536,15.980536,59,70,41
15.980536,16.080536,60,70,41
16.080536,16.180536,55,70,41
16.180536,16.27637,52,70,41
16.280537,16.676369,48,70,41
19.280537,19.622202,60,70,41
19.680536,19.82637,60,70,41
19.880535,20.02637,60,70,41
20.080536,20.232445,60,70,41
20.28887,20.946037,60,70,41
20.950632,21.111479,69,110,41
21.17122,21.82839,57,110,41
21.832985,21.906515,57,110,41
21.906515,21.980043,59,110,41
21.980043,22.048977,61,110,41
22.053574,22.203402,62,110,41
22.259052,22.40888,52,110,41
22.46453,22.614359,53,110,41
22.67001,22.819838,55,110,41
22.875488,23.025318,57,110,41
23.080969,23.230797,59,110,41
23.286448,23.436275,60,110,41
23.491926,23.641754,61,110,41
23.697405,23.847233,62,110,41
23.902884,24.052711,64,110,41
24.056993,24.108362,62,110,41
24.108362,24.159733,64,110,41
24.159733,24.716238,65,110,41
24.7248,24.925999,64,110,41
24.930279,24.998772,62,110,41
24.998772,25.067265,64,110,41
25.067265,25.135757,62,110,41
25.135757,25.336956,60,110,41
25.341236,25.40973,58,110,41
25.40973,25.478224,60,110,41
25.478224,25.546717,58,110,41
25.546717,25.747913,57,110,41
25.752195,25.820688,55,110,41
25.820688,25.889181,57,110,41
25.889181,25.957674,55,110,41
25.957674,26.167496,53,110,41
26.171959,26.243387,52,110,41
26.243387,26.314817,53,110,41
26.314817,26.386246,52,110,41
26.386246,26.608782,50,110,41
26.613518,26.779238,57,110,41
26.84079,27.02308,57,110,41
27.09079,27.511623,50,70,41
27.91579,28.01579,68,70,41
28.01579,28.11579,69,70,41
28.11579,28.21579,68,70,41
28.21579,28.31579,69,70,41
28.31579,28.41579,68,70,41
28.41579,28.51579,69,70,41
28.51579,28.61579,64,70,41
28.61579,28.71579,61,70,41
28.71579,28.911623,57,70,41
31.11579,31.311623,59,70,41
31.11579,31.311623,62,70,41
31.91579,32.11162,59,70,41
32.31579,32.511623,59,70,41
32.71579,32.911625,60,70,41
32.91579,33.11162,64,74,41
33.31579,33.511623,64,83,41
33.721268,33.922466,69,92,41
34.141033,34.366993,62,100,41
34.371803,35.198406,59,70,41
35.20257,35.998405,60,70,41
34.371803,36.198406,50,70,41
36.00257,36.198406,62,70,41
36.20257,36.398403,50,70,41
36.402573,36.598404,54,70,41
36.602573,36.798405,55,70,41
36.80257,36.998405,57,70,41
37.00257,37.198406,50,70,41
37.20257,37.398403,55,70,41
37.402573,37.598404,57,70,41
37.602573,37.798405,58,70,41
37.80257,37.998405,50,70,41
38.00257,38.198406,57,70,41
38.20257,38.398403,58,70,41
38.402573,38.598404,60,70,41
38.602573,38.798405,50,70,41
38.80257,38.998405,59,70,41
39.00257,39.198406,60,70,41
39.20257,39.398403,62,70,41
39.402573,39.798405,59,75,41
39.80257,40.198406,59,85,41
40.20257,40.40377,59,95,41
40.40805,40.61787,60,100,41
40.622337,40.848297,62,85,41
40.853104,41.648937,64,70,41
41.653107,42.448936,65,70,41
40.853104,42.648937,55,70,41
42.453106,42.648937,67,70,41
42.653107,42.848938,55,70,41
42.853104,43.04894,59,70,41
43.053104,43.24894,60,70,41
43.253105,43.448936,62,70,41
43.453106,43.648937,55,70,41
43.653107,43.848938,60,70,41
43.853104,44.04894,62,70,41
44.053104,44.24894,64,70,41
44.253105,44.448936,55,70,41
44.453106,44.648937,62,70,41
44.653107,44.848938,64,70,41
44.853104,45.04894,65,70,41
45.053104,45.24894,55,70,41
45.253105,45.448936,64,70,41
45.453106,45.648937,65,70,41
45.653107,45.848938,67,70,41
45.853104,46.04894,55,75,41
46.053104,46.24894,59,80,41
46.253105,46.448936,60,85,41
46.453106,46.648937,62,90,41
46.653107,46.8543,55,95,41
46.858585,47.068405,60,100,41
47.07287,47.298832,62,85,41
47.30364,47.514854,64,70,41
47.91902,48.114857,59,70,41
48.119022,48.314857,60,70,41
48.719025,48.914856,56,70,41
48.91902,49.114857,57,70,41
49.519024,49.714855,52,70,41
49.719025,49.914856,53,70,41
50.719025,50.914856,60,70,41
51.119022,51.314857,65,70,41
51.519024,51.714855,64,70,41
51.91902,52.114857,62,70,41
53.119022,53.314857,55,70,41
53.319023,53.514854,60,70,41
53.91902,54.114857,52,70,41
54.119022,54.314857,57,70,41
54.719025,54.914856,60,70,41
54.91902,55.114857,65,70,41
55.119022,55.514854,57,70,41
55.519024,55.664856,65,76,41
55.719025,55.864857,65,83,41
55.91902,56.064857,65,90,41
56.119022,56.52022,65,97,41
56.5245,56.7257,64,110,41
56.72998,56.939804,62,90,41
56.944267,57.097244,60,70,41
57.15141,57.54724,67,70,41
57.55141,57.947243,67,70,41
57.95141,58.347244,67,70,41
58.35141,58.747242,67,70,41
58.751408,58.947243,67,70,41
58.95141,59.147243,69,70,41
59.15141,59.347244,65,70,41
59.35141,59.54724,64,70,41
59.55141,59.747242,60,70,41
59.751408,59.947243,62,70,41
59.95141,60.147243,59,70,41
60.15141,60.251408,63,70,41
60.251408,60.35141,55,71,41
60.35141,60.45141,63,72,41
60.45141,60.54724,60,74,41
60.55141,60.65141,60,75,41
60.65141,60.751408,59,77,41
60.751408,60.85141,57,78,41
60.85141,60.95141,59,79,41
60.95141,61.05141,60,81,41
61.05141,61.15141,55,82,41
61.15141,61.251408,63,84,41
61.251408,61.347244,60,85,41
61.35141,61.45141,60,86,41
61.45141,61.55141,59,88,41
61.55141,61.65141,57,89,41
61.65141,61.751408,59,91,41
61.751408,61.947243,60,92,41
61.95141,62.05141,55,95,41
62.05141,62.15141,51,96,41
62.15141,62.251408,56,98,41
62.251408,62.35141,53,99,41
62.55141,62.65141,55,103,41
62.65141,62.751408,51,105,41
62.95141,63.05415,53,109,41
63.05415,63.156887,50,110,41
63.371174,63.442963,51,70,41
63.472527,63.544315,55,70,41
63.573875,63.645668,60,70,41
63.67523,63.747017,55,70,41
63.776577,63.84837,60,70,41
63.87793,63.949722,55,70,41
63.979282,64.05107,60,70,41
64.080635,64.15242,55,70,41
64.181984,64.25378,59,70,41
64.28333,64.355125,55,70,41
64.38469,64.456474,59,70,41
64.48604,64.55783,55,70,41
64.58739,64.65918,59,70,41
64.68874,64.76053,55,70,41
64.79009,64.861885,59,70,41
64.89144,64.963234,55,70,41
64.99279,65.06458,60,70,41
65.09415,65.16593,55,70,41
65.195496,65.26729,60,70,41
65.296844,65.36864,55,70,41
65.3982,65.469986,60,70,41
65.49955,65.57134,55,70,41
65.6009,65.67269,51,70,41
65.702255,65.77404,55,70,41
65.803604,65.8754,53,70,41
65.90495,65.976746,55,70,41
66.00631,66.078094,50,70,41
66.10766,66.17945,55,70,41
66.20901,66.2808,53,70,41
66.31036,66.38215,55,70,41
66.41171,66.483505,50,70,41
66.51306,66.584854,55,70,41
66.61441,67.2183,60,70,41
67.22252,67.421,64,70,41
67.425224,68.029106,65,70,41
68.03333,68.23181,62,70,41
68.23603,68.83992,64,70,41
68.84414,69.04262,60,70,41
69.046844,69.34667,62,70,41
69.3509,69.44803,59,70,41
69.45225,69.51981,59,70,41
69.51981,69.58739,60,70,41
69.58739,69.65495,59,70,41
69.65495,69.7563,57,70,41
69.7563,69.85343,59,70,41
69.85765,70.46154,48,70,41
69.85765,70.46154,60,70,41
70.46576,70.66424,48,80,41
70.46576,70.66424,60,80,41
70.668465,71.27235,48,84,41
70.668465,71.27235,60,84,41
71.27657,71.47505,48,94,41
71.27657,71.47505,60,94,41
71.47927,72.08316,48,98,41
71.47927,72.08316,60,98,41
72.08738,72.28586,48,108,41
72.08738,72.28586,60,108,41
72.290085,72.89669,48,110,41
72.290085,72.89669,60,110,41
72.90097,73.11079,55,105,41
72.90097,73.11079,48,105,41
73.11525,73.32507,48,70,41
73.92954,74.07537,48,70,41
74.12954,74.275375,48,70,41
74.32954,74.47537,48,70,41
75.52954,75.67537,48,70,41
75.72954,75.879364,48,70,41
75.93502,76.09127,48,70,41
76.57073,76.96657,60,70,41
76.97073,77.166565,60,70,41
77.370735,77.76656,60,70,41
77.77073,77.96657,60,70,41
78.17073,78.56657,60,70,41
78.57073,78.76656,62,70,41
78.77073,78.97193,64,70,41
78.97621,79.186035,65,70,41
79.1905,79.400314,64,70,41
79.619064,79.6905,65,70,41
79.6905,79.759544,64,70,41
79.759544,79.82621,65,70,41
79.82621,79.892876,67,70,41
79.892876,79.95954,65,70,41
79.95954,80.02621,64,70,41
80.02621,80.09287,62,70,41
80.09287,80.159546,60,70,41
80.159546,80.22621,58,70,41
80.22621,80.29288,57,70,41
80.29288,80.35954,55,70,41
80.35954,80.42204,53,70,41
80.42621,80.572044,52,70,41
80.62621,80.77204,52,70,41
80.82621,80.972046,55,70,41
82.02621,82.17204,57,70,41
82.22621,82.37204,57,70,41
82.42621,82.572044,60,70,41
82.82621,82.972046,57,70,41
83.02621,83.17204,57,72,41
83.22621,83.37204,60,74,41
83.62621,83.77204,54,78,41
83.82621,83.972046,54,80,41
84.02621,84.17204,62,82,41
84.42621,84.572044,55,86,41
84.62621,84.77204,55,88,41
84.82621,84.972046,67,90,41
85.22621,85.37204,61,94,41
85.42621,85.572044,61,96,41
85.62621,85.77204,64,98,41
86.02621,86.17204,62,110,41
86.22621,86.37204,62,110,41
86.42621,86.572044,65,110,41
86.82621,86.972046,58,110,41
87.02621,87.17204,58,110,41
87.22621,87.37604,62,110,41
87.64597,87.8558,61,110,41
88.88766,88.95615,70,110,41
88.95615,89.02464,69,110,41
89.02464,89.09313,70,110,41
89.09313,89.16163,72,110,41
89.16163,89.23012,70,110,41
89.23012,89.294334,69,110,41
89.298615,89.44844,67,110,41
89.50409,89.65392,65,110,41
89.70957,89.8594,64,110,41
90.53149,90.59998,70,110,41
90.59998,90.66847,69,110,41
90.66847,90.73697,70,110,41
90.73697,90.80546,72,110,41
90.80546,90.873955,70,110,41
90.873955,90.93816,69,110,41
90.942444,91.09227,67,110,41
91.14793,91.29775,65,100,41
91.3534,91.503235,64,91,41
92.175316,92.24381,70,89,41
92.24381,92.3123,69,90,41
92.3123,92.3808,70,90,41
92.3808,92.44929,72,91,41
92.44929,92.517784,70,92,41
92.517784,92.58199,69,93,41
92.58627,92.65477,67,93,41
92.65477,92.72326,66,94,41
92.72326,92.791756,67,95,41
92.791756,92.86025,69,96,41
92.86025,92.92874,67,97,41
92.92874,92.99295,65,97,41
92.99724,93.147064,64,98,41
93.20271,93.35254,50,100,41
93.408195,93.55802,52,110,41
93.61367,93.7635,64,110,41
93.81915,93.96898,65,110,41
94.02463,94.17446,67,110,41
94.23011,94.2986,69,110,41
94.2986,94.367096,68,110,41
94.367096,94.435585,69,110,41
94.435585,94.50408,70,110,41
94.50408,94.57257,69,110,41
94.57257,94.64107,67,110,41
94.64107,94.70956,65,110,41
94.70956,94.77805,64,110,41
94.77805,94.84654,65,110,41
94.84654,94.91504,67,110,41
94.91504,94.98353,65,110,41
94.98353,95.047745,64,110,41
95.052025,95.20185,62,110,41
95.25751,95.40733,62,110,41
95.46298,95.61281,62,110,41
95.668465,95.81829,62,110,41
95.87394,96.023766,61,110,41
96.07942,96.22925,57,100,41
96.2849,96.43473,59,70,41
96.49038,96.640205,61,70,41
96.695854,96.84569,62,70,41
96.90134,97.05116,64,70,41
97.10681,97.256645,65,70,41
97.312294,97.46212,66,70,41
97.51778,97.71897,67,70,41
100.805435,101.82855,60,101,41
101.83283,101.8842,62,70,41
101.8842,101.93557,63,70,41
101.93557,101.98694,65,70,41
101.98694,102.03831,67,70,41
102.03831,102.18814,68,70,41
102.24379,102.393616,68,70,41
102.44927,102.85595,68,70,41
102.86023,103.010056,67,70,41
103.065704,103.21553,65,70,41
103.27119,103.42101,63,70,41
103.47666,103.626495,62,70,41
103.682144,103.83197,60,70,41
103.88762,104.03745,58,70,41
104.0931,104.2943,56,70,41
104.50406,104.56827,60,70,41
104.572556,104.636765,59,70,41
104.641045,104.70525,60,70,41
104.70954,104.77375,61,70,41
104.77803,104.84224,60,70,41
104.84653,104.910736,58,70,41
104.915016,105.73265,56,70,41
105.73693,105.886765,56,80,41
105.94241,106.34909,56,85,41
106.35337,106.50962,56,95,41
106.56766,106.72391,56,100,41
106.781944,106.94279,56,105,41
107.002525,107.1708,56,110,41
107.2333,107.41559,56,115,41
107.4833,107.66559,56,120,41
107.7333,107.87913,65,60,41
107.9333,108.07913,65,60,41
108.1333,108.27913,65,60,41
108.3333,108.47913,65,60,41
108.533295,108.67913,65,60,41
108.7333,108.87913,65,60,41
108.9333,109.07913,65,60,41
109.1333,109.27913,65,60,41
109.3333,109.47913,65,60,41
109.533295,109.67913,65,60,41
109.7333,109.87913,65,60,41
109.9333,110.07913,65,60,41
110.1333,110.27913,65,60,41
110.3333,110.47913,65,60,41
110.533295,110.67913,65,60,41
110.7333,111.32913,63,60,41
111.3333,111.52913,60,60,41
111.533295,112.12913,56,60,41
112.1333,112.32913,66,60,41
112.3333,112.92913,65,60,41
112.9333,113.12913,68,60,41
113.1333,113.72913,65,60,41
113.7333,113.92913,61,60,41
113.9333,114.52913,63,60,41
114.533295,114.72913,60,60,41
114.7333,115.32913,56,60,41
115.3333,115.52913,66,60,41
115.533295,115.72913,65,60,41
115.7333,115.92913,56,80,41
115.9333,116.12913,56,60,41
116.1333,116.32913,56,60,41
116.3333,116.52913,56,60,41
116.533295,116.72913,58,80,41
116.7333,116.92913,58,60,41
116.9333,117.12913,58,60,41
117.1333,117.32913,58,60,41
117.3333,117.52913,58,80,41
117.533295,117.72913,58,60,41
117.7333,117.92913,58,60,41
117.9333,118.12913,58,60,41
118.1333,118.32913,58,80,41
118.3333,118.52913,58,60,41
118.533295,118.72913,58,60,41
118.7333,118.92913,58,60,41
118.9333,119.12913,59,80,41
119.1333,119.32913,59,60,41
119.3333,119.52913,59,60,41
119.533295,119.72913,59,60,41
119.7333,119.92913,59,80,41
119.9333,120.12913,59,60,41
120.1333,120.334496,59,60,41
120.338776,120.53998,59,60,41
120.54426,120.754074,59,80,41
120.54426,120.754074,62,80,41
120.758545,120.97453,59,60,41
120.758545,120.97453,62,60,41
120.979126,121.20509,59,60,41
120.979126,121.20509,62,60,41
121.2099,121.43586,59,60,41
121.2099,121.43586,62,60,41
121.44067,121.64187,55,70,41
121.64615,121.84734,55,70,41
121.85162,122.052826,55,70,41
122.057106,122.2583,55,70,41
122.26258,122.46378,55,70,41
122.46806,122.66926,55,70,41
122.67354,122.87474,55,70,41
122.87902,123.080215,55,70,41
123.084496,123.2857,55,70,41
123.28998,123.49117,55,70,41
123.49546,123.696655,55,70,41
123.700935,123.899414,55,70,41
123.90364,124.10212,54,70,41
124.10634,124.71023,55,70,41
124.71445,124.912926,54,70,41
124.91715,125.521034,55,70,41
125.52526,125.72374,54,70,41
125.72796,126.33185,55,70,41
126.33607,126.534546,54,70,41
126.53877,126.73725,55,70,41
126.74147,126.93996,64,70,41
126.944176,127.54806,65,70,41
127.552284,127.75076,62,70,41
127.75499,128.35887,59,70,41
128.3631,128.56157,65,70,41
128.5658,129.57509,60,105,41
129.57932,129.62999,62,70,41
129.62999,129.68066,63,70,41
129.68066,129.73134,65,70,41
129.73134,129.78201,67,70,41
129.78201,129.92981,68,70,41
129.98471,130.13252,68,70,41
130.18742,130.5886,68,70,41
130.59282,130.74063,67,70,41
130.79552,130.94333,65,70,41
130.99823,131.14603,63,70,41
131.20093,131.34874,62,70,41
131.40363,131.55144,60,70,41
131.60634,131.75414,58,70,41
131.80904,132.00752,56,70,41
138.09282,138.29129,60,70,41
138.29552,138.44331,65,70,41
138.49821,138.64603,65,70,41
138.70093,138.84872,65,70,41
138.90363,139.05142,63,70,41
139.10632,139.25414,61,70,41
139.30904,139.45683,60,70,41
139.51173,139.65953,58,70,41
139.71443,139.86224,56,70,41
139.91713,140.06494,55,70,41
140.11984,140.26764,67,70,41
140.32254,140.47035,67,70,41
140.52524,140.67305,65,70,41
140.72795,140.87575,64,70,41
140.93065,141.07845,61,70,41
141.13335,141.28116,60,70,41
141.33606,141.48796,58,70,41
141.54439,141.69629,56,110,41
141.75272,141.90463,68,110,41
141.96106,142.11296,67,110,41
142.16939,142.32129,65,110,41
142.37772,142.52963,63,110,41
142.58604,142.73796,61,110,41
142.79439,142.94629,60,110,41
143.00272,143.15897,59,110,41
143.21701,143.42682,60,100,41
143.63676,144.24892,48,125,41
144.2532,144.30458,50,100,41
144.30458,144.35594,52,100,41
144.35594,144.40732,53,100,41
144.40732,144.45868,55,100,41
144.45868,144.6085,56,100,41
144.66417,144.814,56,100,41
144.86964,145.01947,55,100,41
145.07512,145.22495,48,100,41
145.2806,145.89276,60,100,41
145.89703,146.04686,60,100,41
145.89703,146.04686,65,100,41
146.10251,146.25235,60,100,41
146.10251,146.25235,65,100,41
146.308,146.45782,60,100,41
146.308,146.45782,65,100,41
146.51347,146.71468,64,100,41
146.51347,146.71468,60,100,41
146.92444,147.53659,48,125,41
147.54086,147.57939,48,100,41
147.57939,147.61792,50,100,41
147.61792,147.65645,52,100,41
147.65645,147.69498,53,100,41
147.69498,147.74207,55,100,41
147.74635,147.89618,56,100,41
147.95183,148.10165,56,100,41
148.1573,148.30713,55,100,41
148.36278,148.51262,48,100,41
148.56827,149.18042,60,100,41
149.18471,149.33453,60,120,41
149.18471,149.33453,65,120,41
149.39018,149.54001,60,120,41
149.39018,149.54001,65,120,41
149.59566,149.74548,60,120,41
149.59566,149.74548,65,120,41
149.80113,150.00233,60,120,41
149.80113,150.00233,64,120,41
150.00662,150.20781,64,60,41
150.2121,150.4133,64,60,41
150.41757,150.61877,64,60,41
150.62305,150.82425,64,60,41
150.82854,151.02972,64,60,41
151.03401,151.23521,64,60,41
151.23949,151.44069,64,60,41
151.44498,151.64616,65,60,41
151.65045,151.85165,65,60,41
151.85593,152.05713,65,60,41
152.0614,152.2626,65,60,41
152.26689,152.46808,65,60,41
152.47237,152.67357,65,60,41
152.67784,152.87904,65,60,41
152.88332,153.08452,65,60,41
153.0888,153.29,66,60,41
153.29428,153.49548,66,60,41
153.49976,153.70096,66,60,41
153.70525,153.90643,66,60,41
153.91072,154.11192,66,60,41
154.1162,154.3174,66,60,41
154.32167,154.52287,66,60,41
154.52716,154.72835,66,60,41
154.73264,154.93384,66,60,41
156.17099,156.3722,62,60,41
156.37646,156.98862,64,60,41
156.9929,157.1941,61,60,41
157.19838,157.81053,57,60,41
157.81482,158.01602,55,60,41
158.0203,158.63246,54,60,41
158.63673,158.83794,62,60,41
158.84221,159.45438,66,60,41
159.45865,159.65985,62,60,41
159.66412,160.27629,61,60,41
160.28056,160.48177,64,60,41
160.48604,161.11253,67,60,41
161.117,161.333,61,60,41
161.33759,161.55357,62,60,41
161.55817,161.75665,57,80,41
161.76088,161.95935,57,60,41
161.96358,162.16206,57,60,41
162.16628,162.36476,57,60,41
162.36899,162.56746,57,80,41
162.57169,162.77017,57,60,41
162.77438,162.97287,57,60,41
162.9771,163.17557,57,60,41
163.1798,163.37827,58,80,41
163.38249,163.58098,58,60,41
163.5852,163.78368,58,60,41
163.7879,163.98637,58,60,41
163.9906,164.1946,62,80,41
164.19893,164.40875,62,60,41
164.41322,164.63919,62,60,41
164.644,164.86995,62,60,41
166.09097,166.28946,51,70,41
166.29367,166.89757,50,70,41
166.90178,167.10027,53,70,41
167.10449,167.70837,58,70,41
167.7126,167.91107,56,70,41
167.9153,168.51918,55,70,41
168.5234,168.72188,58,70,41
168.7261,169.32999,55,70,41
169.33421,169.5327,51,70,41
169.53691,170.5462,53,70,41
170.55043,170.69823,59,70,41
170.75313,170.90094,59,70,41
170.95584,171.10364,59,70,41
171.15854,171.55972,60,70,41
171.56395,172.16783,55,70,41
172.17204,172.31985,61,70,41
172.37476,172.52255,61,70,41
172.57745,172.72527,61,70,41
172.78015,173.18134,62,70,41
173.18556,173.38405,54,70,41
173.38826,173.58675,55,70,41
173.59097,173.78944,57,70,41
173.79367,173.99214,62,70,41
173.99637,174.19485,57,70,41
174.19908,174.39755,62,70,41
174.40178,174.60025,58,70,41
174.60448,174.80296,62,74,41
174.80717,175.00566,58,78,41
175.00989,175.20836,62,83,41
175.21259,175.41107,58,87,41
175.41528,175.61377,60,92,41
175.618,175.81647,55,96,41
175.8207,176.01918,60,100,41
176.02339,176.22188,57,100,41
176.2261,176.3739,60,100,41
176.4288,176.5766,60,100,41
176.6315,176.77931,60,100,41
176.83421,177.03268,60,100,41
177.03691,177.18471,53,93,41
177.23961,177.38742,53,85,41
177.44232,177.59012,53,77,41
177.64502,177.84349,52,70,41
177.84772,178.2489,52,70,41
177.84772,178.2489,55,70,41
178.25313,178.65431,52,70,41
178.25313,178.65431,55,70,41
178.65852,178.80634,52,70,41
178.65852,178.80634,55,70,41
178.86124,179.00903,52,70,41
178.86124,179.00903,55,70,41
179.06393,179.21175,52,70,41
179.06393,179.21175,55,70,41
179.26663,179.41444,55,70,41
179.46935,179.61714,67,70,41
179.67204,179.81984,59,70,41
179.87474,180.02255,71,70,41
180.07745,180.22525,62,70,41
180.28015,180.42795,74,70,41
180.48285,180.63066,55,70,41
180.68556,180.83336,67,70,41
180.88826,181.89755,52,70,41
180.88826,181.89755,55,70,41
181.90176,182.04958,52,70,41
181.90176,182.04958,55,70,41
182.10448,182.25227,52,70,41
182.10448,182.25227,55,70,41
182.30717,182.45497,52,70,41
182.30717,182.45497,55,70,41
182.50987,182.65768,48,70,41
182.71259,182.86038,60,70,41
182.91528,183.06308,52,70,41
183.11798,183.2658,64,70,41
183.3207,183.46849,55,70,41
183.52339,183.67119,67,70,41
183.72609,183.8739,60,70,41
183.92879,184.0766,72,70,41
184.1315,184.2793,48,70,41
184.3342,184.48201,60,70,41
184.5369,184.68471,52,70,41
184.73961,184.8874,64,70,41
184.9423,185.09012,55,70,41
185.145,185.29282,67,70,41
185.34772,185.49551,60,70,41
185.55042,185.70024,72,70,41
185.75589,186.36806,73,70,41
186.37233,186.57353,72,70,41
186.5778,187.18997,73,70,41
187.19424,187.39545,72,70,41
187.60521,187.8064,72,76,41
188.01616,188.21736,72,89,41
188.42712,188.62833,72,101,41
188.84387,189.05673,72,114,41
189.49603,189.9263,48,120,41
189.93082,190.59157,60,120,41
189.93082,190.59157,48,120,41
190.59637,190.71617,62,110,41
190.72137,190.84117,64,90,41
190.84637,190.9178,65,70,41
190.9178,190.98923,64,70,41
190.98923,191.06065,65,70,41
191.06065,191.12822,67,70,41
191.12822,191.1958,65,70,41
191.1958,191.26337,64,70,41
191.26337,191.33093,62,70,41
191.33093,191.3985,60,70,41
191.3985,191.46606,58,70,41
191.46606,191.53363,57,70,41
191.53363,191.6012,55,70,41
191.6012,191.66455,53,70,41
191.66876,191.81657,52,70,41
191.87148,192.01927,52,70,41
192.07417,192.22197,55,70,41
192.47958,192.54715,67,70,41
192.54715,192.61472,66,70,41
192.61472,192.68228,67,70,41
192.68228,192.74985,69,70,41
192.74985,192.81741,67,70,41
192.81741,192.88498,65,70,41
192.88498,192.95255,64,70,41
192.95255,193.02011,62,70,41
193.02011,193.08768,60,70,41
193.08768,193.15526,58,70,41
193.15526,193.22282,57,70,41
193.22282,193.28616,55,70,41
193.29039,193.43819,53,70,41
193.49309,193.6409,53,70,41
193.69579,193.8436,57,70,41
194.3039,194.70508,60,70,41
194.7093,194.90778,60,70,41
195.11472,195.51588,60,70,41
195.52011,195.7186,60,70,41
195.92552,196.3267,60,70,41
196.33092,196.53491,62,70,41
196.53926,196.74326,64,70,41
196.74759,196.95741,65,70,41
196.96187,197.17169,64,70,41
197.81021,197.87871,69,110,41
197.87871,197.94719,67,110,41
197.94719,198.01569,65,110,41
198.01569,198.08418,64,110,41
198.08418,198.15268,62,110,41
198.15268,198.21689,60,110,41
198.22118,198.371,58,110,41
198.42665,198.57648,58,110,41
198.63213,198.78195,64,110,41
199.45404,199.52254,70,110,41
199.52254,199.59103,69,110,41
199.59103,199.65952,67,110,41
199.65952,199.72801,65,110,41
199.72801,199.79651,64,110,41
199.79651,199.86072,62,110,41
199.865,200.01483,60,110,41
200.07048,200.2203,60,110,41
200.27596,200.42578,65,110,41
200.8924,201.28822,60,70,41
201.29239,201.48824,60,70,41
201.6924,202.08823,60,70,41
202.09239,202.28822,60,70,41
202.4924,202.88823,60,74,41
202.8924,203.04222,57,83,41
203.09787,203.2477,58,87,41
203.30336,203.45319,55,92,41
203.50883,203.66508,53,96,41
203.72311,203.88396,62,100,41
203.94371,204.26999,60,110,41
204.38489,204.71117,48,110,41
204.82607,205.26263,53,110,41
206.52269,206.6227,59,70,41
206.6227,206.7227,60,70,41
206.7227,206.8227,59,70,41
206.8227,206.9227,60,70,41
206.9227,207.02269,59,70,41
207.02269,207.1227,60,70,41
207.1227,207.2227,55,70,41
207.2227,207.31853,52,70,41
207.3227,207.71854,48,70,41
210.3227,210.67372,60,70,41
210.73366,210.88348,60,70,41
210.93913,211.09538,60,70,41
211.15341,211.31427,60,70,41
211.37401,212.06151,60,70,41
212.06631,212.23459,69,110,41
212.29709,212.98459,57,110,41
212.9894,213.06631,57,110,41
213.06631,213.14323,59,110,41
213.14323,213.21535,61,110,41
213.22015,213.366,62,110,41
213.42015,213.566,52,110,41
213.62016,213.76599,53,110,41
213.82016,213.96599,55,110,41
214.02016,214.16599,57,110,41
214.22015,214.366,59,110,41
214.42015,214.566,60,110,41
214.62016,214.76599,61,110,41
214.82016,214.96599,62,110,41
215.02016,215.16599,64,110,41
215.17015,215.22015,62,110,41
215.22015,215.27016,64,110,41
215.27016,215.81183,65,110,41
215.82016,216.01599,64,110,41
216.02016,216.08682,62,110,41
216.08682,216.15349,64,110,41
216.15349,216.22015,62,110,41
216.22015,216.41599,60,110,41
216.42015,216.48683,58,110,41
216.48683,216.5535,60,110,41
216.5535,216.62016,58,110,41
216.62016,216.82135,57,110,41
216.82564,216.89413,55,110,41
216.89413,216.96262,57,110,41
216.96262,217.03111,55,110,41
217.03111,217.24094,53,110,41
217.2454,217.40625,52,110,41
217.46599,217.62683,53,110,41
217.68658,217.85484,51,110,41
217.91734,218.09964,48,110,41
218.16734,218.37717,46,70,41
219.80055,219.9019,53,70,41
219.9019,220.00325,57,70,41
220.00325,220.1046,60,70,41
220.1046,220.20595,58,70,41
220.20595,220.30731,57,70,41
220.30731,220.40866,60,70,41
220.40866,220.51001,65,70,41
220.51001,220.61136,63,70,41
220.61136,221.01254,62,70,41
221.82758,221.92892,55,70,41
221.92892,222.03027,58,70,41
222.03027,222.13162,62,70,41
222.13162,222.23299,58,70,41
222.23299,222.63416,57,70,41
223.44919,223.55055,50,70,41
223.55055,223.6519,54,70,41
223.6519,223.75325,58,70,41
223.75325,223.8546,57,70,41
223.8546,224.05309,55,70,41
224.0573,224.25578,62,70,41
224.4627,224.6612,62,70,41
224.86812,225.06659,55,70,41
225.27351,225.472,67,70,41
225.47623,225.6747,60,70,41
225.88162,226.2828,55,76,41
226.28703,226.68822,57,90,41
226.69243,227.09361,55,104,41
227.09784,227.90443,52,70,41
227.90865,228.71524,53,70,41
227.09784,228.91794,55,70,41
228.92216,229.12064,55,70,41
229.12486,229.32335,59,70,41
229.32756,229.52605,60,70,41
229.53027,229.72874,62,70,41
229.73297,229.93146,55,70,41
229.93567,230.13416,60,70,41
230.13838,230.33685,62,70,41
230.34108,230.53957,64,70,41
230.54378,230.74226,55,70,41
230.74649,230.94496,62,70,41
230.94919,231.14766,64,70,41
231.15189,231.35037,65,70,41
231.3546,231.55307,55,70,41
231.5573,231.75577,64,70,41
231.76,231.95848,65,70,41
231.96269,232.16118,67,70,41
232.1654,232.56659,64,70,41
232.5708,232.98314,64,70,41
232.98747,233.1973,52,95,41
233.20175,233.41776,53,110,41
233.42235,233.64832,55,100,41
233.65312,234.49605,57,70,41
234.50032,235.31796,58,70,41
233.65312,235.52344,48,70,41
235.32224,235.52344,60,70,41
235.52771,235.72891,48,70,41
235.7332,235.93439,52,70,41
235.93867,236.13988,53,70,41
236.14415,236.34535,55,70,41
236.34964,236.55083,48,70,41
236.55511,236.75632,53,70,41
236.76059,236.96179,55,70,41
236.96606,237.16727,57,70,41
237.17155,237.37274,48,70,41
237.37703,237.57823,55,70,41
237.5825,237.7837,57,70,41
237.78798,237.98918,58,70,41
237.99347,238.19466,48,70,41
238.19894,238.40015,57,70,41
238.40442,238.60562,58,70,41
238.60991,238.8111,60,70,41
238.81538,239.01659,48,76,41
239.02086,239.22206,52,83,41
239.22633,239.42754,53,90,41
239.43182,239.63301,55,97,41
239.6373,239.8385,52,104,41
239.84277,240.04398,53,110,41
240.04825,240.24945,55,85,41
240.25374,240.45493,57,70,41
240.87018,241.07137,64,70,41
241.07565,241.27686,65,70,41
241.6921,241.89328,60,70,41
241.89757,242.09877,62,70,41
242.514,242.7152,57,70,41
242.71948,242.92068,58,70,41
243.74687,243.94807,65,70,41
244.15784,244.35904,70,70,41
244.56879,244.76999,69,70,41
244.97975,245.18095,67,70,41
246.21263,246.41382,60,70,41
246.4181,246.61931,65,70,41
247.03455,247.23573,57,70,41
247.24002,247.44122,62,70,41
247.85646,248.05765,53,70,41
248.06194,248.26314,58,70,41
248.26741,248.67409,50,70,41
248.67838,248.8282,58,76,41
248.88385,249.03368,58,83,41
249.08932,249.23917,58,90,41
249.29482,249.71011,58,97,41
249.71457,249.93057,57,110,41
249.93517,250.16112,55,90,41
250.16592,250.37845,53,70,41
250.38266,250.58115,65,70,41
250.58537,250.78384,67,70,41
250.78807,250.98656,70,70,41
250.99077,251.18925,69,70,41
251.19348,251.39195,65,70,41
251.39618,251.59467,67,70,41
251.59888,251.79736,70,70,41
251.80159,252.00006,69,70,41
252.00429,252.20277,69,70,41
252.20699,252.40547,70,70,41
252.4097,252.60817,67,70,41
252.6124,252.81087,60,70,41
252.8151,253.01358,57,70,41
253.0178,253.21628,58,70,41
253.2205,253.41898,55,70,41
253.4232,253.495,56,70,41
253.52455,253.6259,60,73,41
253.6259,253.72726,68,76,41
253.72726,253.82861,65,79,41
253.82861,253.92996,65,82,41
253.92996,254.03131,64,85,41
254.03131,254.13266,62,88,41
254.13266,254.23401,64,92,41
254.23401,254.3058,65,95,41
254.33537,254.43672,60,98,41
254.43672,254.53807,68,101,41
254.53807,254.63942,65,104,41
254.63942,254.74077,65,107,41
254.74077,254.84212,64,110,41
254.84212,254.94347,62,105,41
254.94347,255.04483,64,88,41
255.04483,255.2433,65,70,41
255.24753,255.34888,60,70,41
255.34888,255.45023,56,70,41
255.45023,255.55157,61,70,41
255.55157,255.65294,58,70,41
255.85564,255.95699,60,70,41
255.95699,256.05835,56,70,41
256.26105,256.3624,58,70,41
256.3624,256.46375,55,70,41
256.6721,256.77625,56,70,41
256.77625,256.85004,60,70,41
256.8804,256.9542,65,70,41
256.9846,257.05835,60,70,41
257.08875,257.16254,65,70,41
257.1929,257.2667,60,70,41
257.2971,257.37085,65,70,41
257.40125,257.47504,60,70,41
257.5054,257.5792,64,70,41
257.6096,257.68335,60,70,41
257.71375,257.78754,64,70,41
257.8179,257.8917,60,70,41
257.92206,257.99585,64,70,41
258.02625,258.10004,60,70,41
258.1304,258.2042,64,70,41
258.23456,258.30835,60,70,41
258.33875,258.41254,65,70,41
258.4429,258.5167,60,70,41
258.54706,258.62085,65,70,41
258.65125,258.72504,60,70,41
258.7554,258.8292,65,70,41
258.85956,258.93335,60,70,41
258.96375,259.03754,56,70,41
259.0679,259.1417,60,70,41
259.17206,259.24585,58,70,41
259.27625,259.35004,60,70,41
259.3804,259.4542,55,70,41
259.48456,259.55835,60,70,41
259.58875,259.66254,58,70,41
259.6929,259.7667,60,70,41
259.79706,259.87085,55,70,41
259.90125,259.975,60,70,41
260.0054,260.62607,65,70,41
260.6304,260.83438,69,70,41
260.83875,261.45938,70,70,41
261.46375,261.66772,67,70,41
261.67206,262.29272,69,70,41
262.29706,262.50107,65,70,41
262.5054,262.8179,67,70,41
262.8179,262.92206,64,70,41
262.92206,262.99152,64,70,41
262.99152,263.06094,65,70,41
263.06094,263.1304,64,70,41
263.1304,263.23456,62,70,41
263.23456,263.33438,64,70,41
263.33875,263.95938,53,70,41
263.96375,264.16772,53,80,41
264.17206,264.79272,53,83,41
264.79706,265.00107,53,93,41
265.0054,265.62607,53,97,41
265.6304,265.83438,53,107,41
265.8387,266.45938,53,110,41
266.4637,266.66772,53,100,41
266.67206,266.87604,53,70,41
267.5054,267.6573,65,70,41
267.7137,267.86563,65,70,41
267.92206,268.07397,65,70,41
269.17206,269.32397,65,70,41
269.3804,269.53665,65,70,41
269.59467,269.75092,65,70,41
271.30896,271.4652,67,70,41
271.52325,271.68408,67,70,41
271.74384,271.90466,70,70,41
272.71793,272.9002,67,55,41
272.96793,273.13617,67,55,41
273.19867,273.35492,67,55,41
273.41296,273.5628,67,55,41
273.61844,273.76428,67,55,41
273.81845,273.9643,67,55,41
274.01846,274.16428,67,55,41
274.21844,274.3643,67,55,41
274.41846,274.56427,66,55,41
274.61844,274.76428,66,55,41
274.81845,274.9643,66,55,41
275.01846,275.16428,66,55,41
275.21844,275.3643,66,55,41
275.41846,275.56427,66,55,41
275.61844,275.76428,66,55,41
275.81845,275.9643,66,55,41
276.01846,276.16428,65,55,41
276.21844,276.3643,65,55,41
276.41846,276.56427,65,55,41
276.61844,276.76428,65,55,41
276.81845,276.9643,65,55,41
277.01846,277.16428,65,55,41
277.21844,277.3643,65,55,41
277.41846,277.56427,65,55,41
277.61844,277.76428,65,55,41
277.81845,277.9643,65,55,41
278.01846,278.16428,65,55,41
278.21844,278.3643,65,55,41
278.41846,278.56427,65,55,41
278.61844,278.76428,65,55,41
278.81845,278.9643,65,55,41
279.01846,279.16428,65,55,41
279.21844,279.3643,64,55,41
279.41846,279.56427,64,55,41
279.61844,279.76428,64,55,41
279.81845,279.9643,64,55,41
280.01846,280.16428,64,55,41
280.21844,280.3643,64,55,41
280.41846,280.56427,64,55,41
280.61844,280.76428,64,55,41
280.81845,280.9643,64,50,41
281.01846,281.16428,64,56,41
281.21844,281.3643,64,63,41
281.41846,281.56827,64,70,41
281.62393,281.82513,64,77,41
281.8294,282.0392,64,84,41
282.0437,282.25967,67,90,41
282.26428,282.49023,60,80,41
282.49506,282.56647,65,70,41
282.56647,282.6379,64,70,41
282.6379,282.70932,65,70,41
282.70932,282.77692,67,70,41
282.77692,282.84448,65,70,41
282.84448,282.91205,64,70,41
282.91205,282.9796,62,70,41
282.9796,283.04718,60,70,41
283.04718,283.11475,58,70,41
283.11475,283.1823,57,70,41
283.1823,283.24988,55,70,41
283.24988,283.31323,53,70,41
283.31744,283.46524,52,70,41
283.52014,283.66794,52,70,41
283.72284,283.87064,55,70,41
284.12827,284.19583,67,70,41
284.19583,284.2634,66,70,41
284.2634,284.33096,67,70,41
284.33096,284.39853,69,70,41
284.39853,284.4661,67,70,41
284.4661,284.53366,65,70,41
284.53366,284.60123,64,70,41
284.60123,284.6688,62,70,41
284.6688,284.73636,60,70,41
284.73636,284.80392,58,70,41
284.80392,284.8715,57,70,41
284.8715,284.93484,55,70,41
284.93906,285.08685,53,70,41
285.14175,285.28958,53,70,41
285.34445,285.49228,57,70,41
285.74988,286.55646,69,70,41
286.56067,287.16458,70,70,41
287.1688,287.36728,67,70,41
287.3715,287.5193,64,70,41
287.5742,287.722,60,70,41
287.7769,288.3259,72,100,41
288.385,288.5328,69,70,41
288.5877,288.7355,72,70,41
288.7904,288.9382,69,70,41
288.9931,289.1916,65,70,41
289.1958,289.34363,48,72,41
289.1958,289.34363,60,72,41
289.39853,289.54633,48,75,41
289.39853,289.54633,60,75,41
289.60123,289.74902,48,77,41
289.60123,289.74902,60,77,41
289.80392,289.95172,48,80,41
289.80392,289.95172,60,80,41
290.00662,290.15442,48,82,41
290.00662,290.15442,60,82,41
290.20932,290.35712,48,85,41
290.20932,290.35712,60,85,41
290.41202,290.55984,48,87,41
290.41202,290.55984,60,87,41
290.61475,290.76254,48,90,41
290.61475,290.76254,60,90,41
290.81744,290.96524,48,93,41
290.81744,290.96524,60,93,41
291.02014,291.16794,48,95,41
291.02014,291.16794,60,95,41
291.22284,291.37064,48,98,41
291.22284,291.37064,60,98,41
291.42554,291.57333,48,100,41
291.42554,291.57333,60,100,41
291.62823,291.77606,53,103,41
291.83093,291.97876,57,105,41
292.03366,292.18146,60,108,41
292.23636,293.04294,60,110,41
293.04715,293.85376,58,110,41
293.85797,293.92554,67,110,41
293.92554,293.9931,66,110,41
293.9931,294.06067,67,110,41
294.06067,294.12823,69,110,41
294.12823,294.1958,67,110,41
294.1958,294.26337,65,110,41
294.26337,294.33093,64,110,41
294.33093,294.3985,62,110,41
294.3985,294.46606,60,110,41
294.46606,294.53366,58,110,41
294.53366,294.60123,57,110,41
294.60123,294.66455,55,110,41
294.6688,294.8166,53,110,41
294.8715,295.0193,53,110,41
295.0742,295.222,57,110,41
295.2769,295.42468,60,110,41
295.47958,295.54715,63,110,41
295.54715,295.61472,62,110,41
295.61472,295.68228,63,110,41
295.68228,295.74985,65,110,41
295.74985,295.81744,63,110,41
295.81744,295.885,62,110,41
295.885,295.95258,60,110,41
295.95258,296.02014,58,110,41
296.02014,296.0877,57,110,41
296.0877,296.15527,55,110,41
296.15527,296.22284,53,110,41
296.22284,296.2862,51,110,41
296.2904,296.4382,50,110,41
296.4931,296.6409,50,110,41
296.6958,296.8436,62,110,41
297.10123,297.24902,58,110,41
297.30392,297.4558,58,110,41
297.51224,297.6685,64,110,41
297.72653,297.8874,64,110,41
297.9471,298.14832,65,110,41
298.55807,298.95392,60,70,41
298.95807,299.1539,60,70,41
299.3581,299.7539,60,70,41
299.7581,299.95392,65,70,41
300.15808,300.3539,60,70,41
300.3581,300.45807,57,70,41
300.45807,300.5289,53,70,41
300.55807,300.6289,57,71,41
300.65808,300.7289,57,71,41
300.7581,300.8581,58,72,41
300.8581,300.92892,55,72,41
300.95807,301.0289,58,73,41
301.05807,301.1289,58,73,41
301.15808,301.2581,57,74,41
301.2581,301.32892,53,75,41
301.3581,301.42892,60,75,41
301.45807,301.5289,60,76,41
301.55807,301.65808,62,76,41
301.65808,301.7289,58,77,41
301.7581,301.82892,62,77,41
301.8581,301.92892,62,78,41
301.95807,302.05807,63,79,41
302.05807,302.1289,60,79,41
302.15808,302.2289,63,80,41
302.2581,302.32892,63,80,41
302.3581,302.45807,62,81,41
302.45807,302.5289,58,81,41
302.55807,302.6289,62,82,41
302.65808,302.7289,62,83,41
302.7581,302.8581,64,83,41
302.8581,302.92892,58,84,41
302.95807,303.0289,64,84,41
303.05807,303.1289,64,85,41
303.15808,303.2581,65,85,41
303.2581,303.32892,60,86,41
303.3581,303.42892,65,87,41
303.45807,303.5289,65,87,41
303.55807,303.65808,65,88,41
303.65808,303.7289,62,88,41
303.7581,303.82892,65,89,41
303.8581,303.92892,65,89,41
303.95807,304.05807,65,90,41
304.05807,304.1289,62,91,41
304.15808,304.23087,65,91,41
304.26083,304.3336,65,92,41
304.36356,304.4663,65,92,41
304.4663,304.53906,60,93,41
304.56903,304.64493,65,93,41
304.67618,304.75208,65,94,41
304.78333,304.89362,67,95,41
304.89362,304.97174,60,95,41
305.0039,305.08563,67,96,41
305.1193,305.20102,67,96,41
305.23468,305.4445,65,97,41
306.07397,306.12604,53,101,41
306.1434,306.21286,65,102,41
306.21286,306.2823,64,102,41
306.2823,306.3508,62,103,41
306.3508,306.41928,60,103,41
306.41928,306.48776,59,103,41
306.48776,306.55627,60,104,41
306.55627,306.62476,62,104,41
306.62476,306.69327,60,104,41
306.69327,306.76175,58,105,41
306.76175,306.83023,57,105,41
306.83023,306.89444,55,106,41
306.89874,307.09995,53,106,41
307.7123,307.763,53,110,41
307.77988,307.84744,65,110,41
307.84744,307.915,64,110,41
307.915,307.9826,62,110,41
307.9826,308.05017,60,110,41
308.05017,308.11774,59,110,41
308.11774,308.1853,60,110,41
308.1853,308.25287,62,110,41
308.25287,308.32043,60,110,41
308.32043,308.388,58,110,41
308.388,308.45557,57,110,41
308.45557,308.51892,55,110,41
308.52313,308.5738,53,110,41
308.5907,308.65826,65,110,41
308.65826,308.72583,64,110,41
308.72583,308.7934,62,110,41
308.7934,308.86096,60,110,41
308.86096,308.92853,59,110,41
308.92853,308.9961,60,110,41
308.9961,309.06366,62,110,41
309.06366,309.13123,60,110,41
309.13123,309.20267,58,110,41
309.20267,309.2741,57,110,41
309.2741,309.34106,55,110,41
309.34552,309.40067,53,110,41
309.41907,309.49258,65,110,41
309.49258,309.5661,64,110,41
309.5661,309.63965,62,110,41
309.63965,309.71317,60,110,41
309.71317,309.7867,59,110,41
309.7867,309.86362,60,110,41
309.86362,309.94055,62,110,41
309.94055,310.01746,60,110,41
310.01746,310.09683,58,110,41
310.09683,310.1762,57,110,41
310.1762,310.2506,55,110,41
310.25555,310.62537,57,110,41
310.75555,311.15897,48,120,41
311.30103,311.8408,53,120,41
0.0,0.19583334,53,1,42
0.8,0.9458333,43,70,42
1.0,1.1458334,43,70,42
1.2,1.3458333,40,70,42
2.4,2.5458333,45,70,42
2.6,2.7458334,45,70,42
2.8,2.9458334,41,70,42
3.4,3.5958333,52,70,42
3.6,3.7458334,53,70,42
3.8,3.9458334,41,70,42
4.2,4.3958335,52,70,42
4.4,4.545833,53,70,42
4.6,4.7458334,41,70,42
5.0,5.195833,52,70,42
5.2,5.3458333,53,70,42
5.4,5.5519094,54,70,42
5.608333,5.7691784,55,70,42
5.828921,5.9897666,43,70,42
6.049509,6.2103543,48,70,42
7.290685,7.436518,43,70,42
7.490685,7.6365185,43,70,42
7.690685,7.8365183,40,70,42
8.890685,9.036518,45,70,42
9.090685,9.236518,45,70,42
9.290685,9.436519,41,70,42
9.890685,10.086518,52,70,42
10.090685,10.236518,53,70,42
10.290685,10.436519,41,70,42
10.690685,10.8865185,52,70,42
10.890685,11.036518,53,70,42
11.090685,11.236518,41,70,42
11.490685,11.686519,52,74,42
11.690685,11.836518,53,78,42
11.890685,12.042595,54,83,42
12.099018,12.250928,55,87,42
12.307351,12.459261,49,92,42
12.515684,12.667594,50,96,42
12.724017,12.882531,47,100,42
12.941408,13.262965,48,110,42
13.37619,13.697747,36,110,42
13.810972,14.241225,41,110,42
17.080536,17.180536,52,70,42
17.180536,17.280537,53,70,42
17.280537,17.380535,52,70,42
17.380535,17.480536,53,70,42
17.480536,17.580536,52,70,42
17.580536,17.680536,53,70,42
17.680536,17.780537,48,70,42
17.780537,17.87637,45,70,42
17.880535,18.27637,41,70,42
19.480536,19.62637,52,70,42
19.680536,19.82637,48,70,42
19.880535,20.02637,52,70,42
20.080536,20.232445,48,70,42
20.28887,20.449715,53,70,42
20.509457,20.670303,41,70,42
20.730045,20.89089,53,70,42
20.950632,21.111479,57,110,42
21.17122,21.82839,45,110,42
21.832985,21.906515,45,110,42
21.906515,21.980043,47,110,42
21.980043,22.048977,49,110,42
22.053574,22.203402,50,110,42
22.259052,22.40888,52,110,42
22.46453,22.614359,53,110,42
22.67001,22.819838,55,110,42
22.875488,23.025318,57,110,42
23.080969,23.230797,59,110,42
23.286448,23.436275,60,110,42
23.491926,23.641754,61,110,42
23.697405,23.847233,62,110,42
23.902884,24.052711,64,110,42
24.056993,24.108362,62,110,42
24.108362,24.159733,64,110,42
24.159733,24.716238,65,110,42
24.7248,24.925999,64,110,42
24.930279,24.998772,62,110,42
24.998772,25.067265,64,110,42
25.067265,25.135757,62,110,42
25.135757,25.336956,60,110,42
25.341236,25.40973,58,110,42
25.40973,25.478224,60,110,42
25.478224,25.546717,58,110,42
25.546717,25.747913,57,110,42
25.752195,25.820688,55,110,42
25.820688,25.889181,57,110,42
25.889181,25.957674,55,110,42
25.957674,26.167496,53,110,42
26.171959,26.243387,52,110,42
26.243387,26.314817,53,110,42
26.314817,26.386246,52,110,42
26.386246,26.608782,50,110,42
26.613518,26.779238,57,110,42
26.84079,27.02308,45,110,42
27.09079,27.511623,50,70,42
29.51579,29.61579,61,70,42
29.61579,29.71579,62,70,42
29.71579,29.81579,61,70,42
29.81579,29.91579,62,70,42
29.91579,30.01579,61,70,42
30.01579,30.11579,62,70,42
30.11579,30.21579,57,70,42
30.21579,30.31579,53,70,42
30.31579,30.511623,50,70,42
31.11579,31.311623,47,70,42
31.91579,32.11162,56,70,42
32.31579,32.511623,52,70,42
32.71579,32.911625,45,70,42
32.91579,33.11162,57,74,42
33.11579,33.311623,43,78,42
33.31579,33.511623,55,83,42
33.51579,33.716988,42,87,42
33.721268,33.922466,54,92,42
33.926746,34.13657,38,96,42
34.141033,34.366993,50,100,42
34.371803,34.597763,43,70,42
34.602573,34.798405,38,70,42
34.80257,34.998405,42,70,42
35.00257,35.198406,43,70,42
35.20257,35.398403,45,70,42
35.402573,35.598404,38,70,42
35.602573,35.798405,44,70,42
35.80257,35.998405,45,70,42
36.00257,36.198406,46,70,42
36.20257,36.398403,38,70,42
36.402573,36.598404,46,70,42
36.602573,36.798405,46,70,42
36.80257,36.998405,47,70,42
37.00257,37.198406,38,70,42
37.20257,37.398403,40,70,42
37.402573,37.598404,42,70,42
37.602573,37.798405,43,70,42
37.80257,37.998405,38,70,42
38.00257,38.198406,41,70,42
38.20257,38.398403,43,70,42
38.402573,38.598404,45,70,42
38.602573,38.798405,38,70,42
38.80257,38.998405,44,70,42
39.00257,39.198406,45,70,42
39.20257,39.398403,47,70,42
39.402573,39.598404,43,75,42
39.602573,39.798405,47,80,42
39.80257,39.998405,50,85,42
40.00257,40.198406,55,90,42
40.20257,40.40377,43,95,42
40.40805,40.61787,45,100,42
40.622337,40.848297,47,85,42
40.853104,41.04894,48,70,42
41.053104,41.24894,43,70,42
41.253105,41.448936,47,70,42
41.453106,41.648937,48,70,42
41.653107,41.848938,50,70,42
41.853104,42.04894,43,70,42
42.053104,42.24894,48,70,42
42.253105,42.448936,50,70,42
42.453106,42.648937,52,70,42
42.653107,42.848938,43,70,42
42.853104,43.04894,50,70,42
43.053104,43.24894,52,70,42
43.253105,43.448936,53,70,42
43.453106,43.648937,43,70,42
43.653107,43.848938,45,70,42
43.853104,44.04894,47,70,42
44.053104,44.24894,48,70,42
44.253105,44.448936,43,70,42
44.453106,44.648937,47,70,42
44.653107,44.848938,48,70,42
44.853104,45.04894,50,70,42
45.053104,45.24894,43,70,42
45.253105,45.448936,49,70,42
45.453106,45.648937,50,70,42
45.653107,45.848938,52,70,42
45.853104,46.04894,43,75,42
46.053104,46.24894,50,80,42
46.253105,46.448936,52,85,42
46.453106,46.648937,53,90,42
46.653107,46.8543,43,95,42
46.858585,47.068405,45,100,42
47.07287,47.298832,47,85,42
47.30364,47.514854,48,70,42
50.519024,50.714855,53,70,42
50.91902,51.114857,53,70,42
51.319023,51.514854,55,70,42
51.719025,51.914856,43,70,42
52.719025,52.914856,47,70,42
52.91902,53.114857,48,70,42
53.519024,53.714855,44,70,42
53.719025,53.914856,45,70,42
54.319023,54.514854,52,70,42
54.519024,54.714855,53,70,42
55.119022,55.314857,49,70,42
55.319023,55.514854,50,70,42
56.119022,56.314857,43,97,42
56.319023,56.52022,55,104,42
56.5245,56.7257,55,110,42
56.72998,56.939804,55,90,42
56.944267,57.147243,48,70,42
57.15141,57.347244,60,70,42
57.35141,57.54724,62,70,42
57.55141,57.747242,65,70,42
57.751408,57.947243,64,70,42
57.95141,58.147243,60,70,42
58.15141,58.347244,62,70,42
58.35141,58.54724,65,70,42
58.55141,58.697243,64,70,42
58.751408,58.897243,60,70,42
59.15141,59.347244,53,70,42
59.55141,59.747242,55,70,42
59.95141,60.147243,43,70,42
60.35141,60.54724,48,72,42
60.55141,60.747242,50,75,42
60.751408,60.947243,43,78,42
60.95141,61.097244,52,81,42
61.15141,61.347244,48,84,42
61.35141,61.54724,50,86,42
61.55141,61.747242,43,89,42
61.751408,61.897243,52,92,42
61.95141,62.147243,48,95,42
62.35141,62.54724,41,101,42
62.751408,62.947243,43,106,42
63.156887,63.36671,43,100,42
63.371174,63.772354,48,70,42
64.181984,64.58317,43,70,42
64.99279,65.393974,36,70,42
65.803604,66.20479,43,70,42
66.20901,66.61019,43,70,42
66.61441,66.6862,36,70,42
66.71577,66.78755,43,70,42
66.817116,66.88891,48,70,42
66.918465,66.99026,43,70,42
67.01982,67.091606,48,70,42
67.12117,67.19296,43,70,42
67.22252,67.29431,48,70,42
67.323875,67.39566,43,70,42
67.425224,67.49702,47,70,42
67.52657,67.598366,43,70,42
67.62793,67.699715,47,70,42
67.72928,67.80107,43,70,42
67.83063,67.90242,47,70,42
67.93198,68.00377,43,70,42
68.03333,68.105125,47,70,42
68.13468,68.206474,43,70,42
68.23603,68.30782,48,70,42
68.33739,68.40917,43,70,42
68.438736,68.51053,48,70,42
68.540085,68.61188,43,70,42
68.64144,68.71323,48,70,42
68.74279,68.81458,43,70,42
68.84414,68.91593,40,70,42
68.945496,69.01728,43,70,42
69.046844,69.11864,41,70,42
69.14819,69.219986,43,70,42
69.24955,69.321335,38,70,42
69.3509,69.42269,43,70,42
69.45225,69.52404,41,70,42
69.5536,69.62539,43,70,42
69.65495,69.72674,38,70,42
69.7563,69.828094,43,70,42
69.85765,70.46154,36,70,42
70.46576,70.66424,45,80,42
70.668465,71.27235,46,84,42
71.27657,71.47505,43,94,42
71.47927,72.08316,45,98,42
72.08738,72.28586,41,108,42
72.290085,72.89669,43,110,42
72.90097,73.11079,36,105,42
73.11525,73.32507,41,70,42
73.92954,74.07537,43,70,42
74.12954,74.275375,43,70,42
74.32954,74.47537,40,70,42
75.52954,75.67537,45,70,42
75.72954,75.879364,45,70,42
75.93502,76.09127,41,70,42
76.57073,76.76656,52,70,42
76.77073,76.916565,53,70,42
76.97073,77.11656,41,70,42
77.370735,77.56657,52,70,42
77.57073,77.71657,53,70,42
77.77073,77.916565,41,70,42
78.17073,78.36656,52,70,42
78.370735,78.51656,53,70,42
78.57073,78.71657,54,70,42
78.77073,78.92056,55,70,42
78.97621,79.13246,43,70,42
79.1905,79.34675,48,70,42
80.82621,80.972046,48,70,42
81.02621,81.17204,48,70,42
81.22621,81.29288,58,70,42
81.29288,81.35954,57,70,42
81.35954,81.42621,58,70,42
81.42621,81.492874,60,70,42
81.492874,81.56371,58,70,42
81.55954,81.62621,57,70,42
81.62621,81.69288,55,70,42
81.69288,81.759544,53,70,42
81.759544,81.82621,52,70,42
81.82621,81.892876,50,70,42
81.892876,81.95954,48,70,42
81.95954,82.02204,46,70,42
82.02621,82.17204,45,70,42
82.22621,82.37204,45,70,42
82.42621,82.572044,48,70,42
82.82621,82.972046,45,70,42
83.02621,83.17204,45,72,42
83.22621,83.37204,48,74,42
83.62621,83.77204,42,78,42
83.82621,83.972046,42,80,42
84.02621,84.17204,50,82,42
84.42621,84.572044,43,86,42
84.62621,84.77204,43,88,42
84.82621,84.972046,55,90,42
85.22621,85.37204,49,94,42
85.42621,85.572044,49,96,42
85.62621,85.77204,52,98,42
86.02621,86.17204,50,110,42
86.22621,86.37204,50,110,42
86.42621,86.572044,53,110,42
86.82621,86.972046,46,110,42
87.02621,87.17204,46,110,42
87.22621,87.37604,50,110,42
87.64597,87.8558,45,110,42
87.86026,88.677895,57,100,42
88.682175,88.832,57,110,42
88.88766,89.03748,57,110,42
89.09313,89.242966,57,110,42
90.326004,90.47584,57,110,42
90.53149,90.68131,57,110,42
90.73697,90.886795,57,110,42
90.942444,91.14365,45,100,42
91.14793,93.19843,57,100,42
93.20271,93.35254,46,100,42
93.408195,93.55802,45,110,42
93.61367,93.7635,43,110,42
93.81915,93.96898,41,110,42
94.02463,94.17446,40,110,42
94.23011,94.431305,38,110,42
97.51778,98.540886,55,101,42
98.545166,98.596535,57,70,42
98.596535,98.6479,58,70,42
98.6479,98.69928,60,70,42
98.69928,98.75065,62,70,42
98.75065,98.900475,63,70,42
98.95612,99.10596,63,70,42
99.161606,99.56828,63,70,42
99.57256,99.72239,62,70,42
99.77804,99.92787,60,70,42
99.98352,100.13335,58,70,42
100.189,100.33883,57,70,42
100.39448,100.544304,55,70,42
100.59996,100.74979,53,70,42
100.805435,100.95527,51,70,42
101.01092,101.16074,50,70,42
101.21639,101.36623,48,70,42
101.421875,101.5717,46,70,42
101.62735,101.82855,44,70,42
101.83283,102.03403,43,70,42
102.03831,102.23951,41,70,42
102.24379,102.444984,53,70,42
102.44927,102.65047,43,70,42
102.65475,102.85595,55,70,42
103.065704,103.26691,55,70,42
103.27119,103.47238,48,70,42
103.47666,103.677864,60,70,42
103.88762,104.08882,48,70,42
104.0931,104.15731,48,70,42
104.16159,104.22581,47,70,42
104.23009,104.2943,48,70,42
104.29858,104.36279,49,70,42
104.36707,104.43128,48,70,42
104.43556,104.49978,46,70,42
104.50406,104.56827,44,70,42
104.572556,104.636765,43,70,42
104.641045,104.70525,44,70,42
104.70954,104.77375,46,70,42
104.77803,104.84224,44,70,42
104.84653,104.910736,43,70,42
104.915016,105.11622,41,70,42
105.1205,105.32169,41,70,42
105.32597,105.527176,41,70,42
105.531456,105.73265,41,70,42
105.73693,105.886765,39,80,42
105.94241,106.34909,51,85,42
106.35337,106.50962,49,95,42
106.56766,106.72391,48,100,42
106.781944,106.94279,46,105,42
107.002525,107.1708,44,110,42
107.2333,107.41559,42,115,42
107.4833,107.72809,41,120,42
107.7333,107.87913,61,60,42
107.9333,108.07913,61,60,42
108.1333,108.27913,61,60,42
108.3333,108.47913,61,60,42
108.533295,108.67913,61,60,42
108.7333,108.87913,61,60,42
108.9333,109.07913,61,60,42
109.1333,109.27913,61,60,42
109.3333,109.47913,61,60,42
109.533295,109.67913,61,60,42
109.7333,109.87913,61,60,42
109.9333,110.07913,61,60,42
110.1333,110.27913,61,60,42
110.3333,110.47913,61,60,42
110.533295,110.67913,61,60,42
110.7333,110.92913,60,60,42
115.7333,115.92913,49,80,42
115.9333,116.12913,49,60,42
116.1333,116.32913,49,60,42
116.3333,116.52913,49,60,42
116.533295,116.72913,46,80,42
116.7333,116.92913,46,60,42
116.9333,117.12913,46,60,42
117.1333,117.32913,46,60,42
117.3333,117.52913,54,80,42
117.533295,117.72913,54,60,42
117.7333,117.92913,54,60,42
117.9333,118.12913,54,60,42
118.1333,118.32913,51,80,42
118.3333,118.52913,51,60,42
118.533295,118.72913,51,60,42
118.7333,118.92913,51,60,42
120.54426,120.754074,43,100,42
120.758545,120.97453,43,60,42
120.979126,121.20509,43,60,42
121.2099,121.43586,43,60,42
123.49546,123.696655,48,70,42
123.700935,124.30482,50,70,42
124.309044,124.50752,47,70,42
124.51175,125.11563,43,70,42
125.11985,125.31834,53,70,42
125.322556,125.92644,52,70,42
125.930664,126.12914,55,70,42
126.13337,126.73725,52,70,42
126.74147,126.93996,48,70,42
126.944176,127.54806,50,70,42
127.552284,127.75076,46,70,42
127.75499,128.35887,43,70,42
128.3631,128.56157,53,70,42
128.5658,128.76428,51,70,42
131.80904,131.87238,60,70,42
131.8766,131.93994,59,70,42
131.94417,132.00752,60,70,42
132.01173,132.07509,61,70,42
132.0793,132.14265,60,70,42
132.14688,132.21022,58,70,42
132.21445,132.27779,56,70,42
132.28201,132.34535,55,70,42
132.34958,132.41292,56,70,42
132.41714,132.48048,58,70,42
132.48471,132.54805,56,70,42
132.55228,132.61562,55,70,42
132.61984,132.76765,53,70,42
132.82256,132.97035,53,70,42
133.02525,133.17305,53,70,42
133.22795,133.37576,53,70,42
133.43065,133.57846,52,70,42
133.63336,133.78116,48,70,42
133.83606,133.98387,50,70,42
134.03876,134.18657,52,70,42
134.24147,134.38927,53,70,42
134.44417,134.59198,55,70,42
134.64687,134.79468,56,70,42
134.84958,134.99738,57,70,42
135.05228,135.25076,58,70,42
138.09282,138.29129,44,70,42
138.29552,138.44331,49,70,42
138.49821,138.64603,61,70,42
138.70093,138.84872,61,70,42
138.90363,139.05142,60,70,42
139.10632,139.25414,58,70,42
139.30904,139.45683,56,70,42
139.51173,139.65953,55,70,42
139.71443,139.86224,53,70,42
139.91713,140.06494,52,70,42
140.11984,140.26764,64,70,42
140.32254,140.47035,64,70,42
140.52524,140.67305,62,70,42
140.72795,140.87575,60,70,42
140.93065,141.07845,58,70,42
141.13335,141.28116,56,70,42
141.33606,141.48796,55,70,42
141.54439,141.69629,53,110,42
141.75272,141.90463,56,110,42
141.96106,142.11296,55,110,42
142.16939,142.32129,53,110,42
142.37772,142.52963,51,110,42
142.58604,142.73796,49,110,42
142.79439,142.94629,48,110,42
143.00272,143.15897,47,110,42
143.21701,143.42682,48,100,42
144.86964,145.89276,48,125,42
145.89703,145.94841,50,100,42
145.94841,145.99977,52,100,42
145.99977,146.05115,53,100,42
146.05115,146.10251,55,100,42
146.10251,146.25235,56,100,42
146.308,146.45782,56,100,42
146.51347,146.6633,55,100,42
146.71895,146.86877,48,100,42
148.1573,149.18042,36,125,42
149.18471,149.22322,36,120,42
149.22322,149.26175,38,120,42
149.26175,149.30028,40,120,42
149.30028,149.3388,41,120,42
149.3388,149.3859,43,120,42
149.39018,149.54001,44,120,42
149.59566,149.74548,41,120,42
149.80113,150.00233,36,120,42
150.00662,150.20781,60,60,42
150.2121,150.4133,60,60,42
150.41757,150.61877,60,60,42
150.62305,150.82425,60,60,42
150.82854,151.02972,60,60,42
151.03401,151.23521,60,60,42
151.23949,151.44069,60,60,42
151.44498,151.64616,60,60,42
151.65045,151.85165,60,60,42
151.85593,152.05713,60,60,42
152.0614,152.2626,60,60,42
152.26689,152.46808,61,60,42
152.47237,152.67357,61,60,42
152.67784,152.87904,61,60,42
152.88332,153.08452,61,60,42
153.0888,153.29,61,60,42
153.29428,153.49548,61,60,42
153.49976,153.70096,61,60,42
153.70525,153.90643,61,60,42
153.91072,154.11192,61,60,42
154.1162,154.3174,61,60,42
154.32167,154.52287,61,60,42
154.52716,154.72835,61,60,42
154.73264,154.93384,62,60,42
159.45865,159.65985,50,60,42
159.66412,160.27629,52,60,42
160.28056,160.48177,49,60,42
160.48604,161.11253,45,60,42
161.117,161.333,55,60,42
161.33759,161.55357,54,60,42
161.55817,161.75665,50,80,42
161.76088,161.95935,50,60,42
161.96358,162.16206,50,60,42
162.16628,162.36476,50,60,42
162.36899,162.56746,50,80,42
162.57169,162.77017,50,60,42
162.77438,162.97287,50,60,42
162.9771,163.17557,50,60,42
163.1798,163.37827,46,80,42
163.38249,163.58098,46,60,42
163.5852,163.78368,46,60,42
163.7879,163.98637,46,60,42
163.9906,164.1946,46,80,42
164.19893,164.40875,46,60,42
164.41322,164.63919,46,60,42
164.644,164.86995,46,60,42
164.87476,165.07324,46,60,42
165.07747,165.27594,46,60,42
165.28017,165.47864,46,60,42
165.48286,165.68135,46,60,42
165.68556,165.88405,46,60,42
165.88828,166.08675,46,60,42
166.09097,166.28946,46,70,42
166.29367,166.49216,46,70,42
166.49638,166.69485,45,70,42
166.69908,167.30296,46,70,42
167.30719,167.50568,45,70,42
167.50989,168.11377,46,70,42
168.118,168.31648,45,70,42
168.32071,168.92459,46,70,42
168.9288,169.12729,45,70,42
169.13152,169.7354,46,70,42
169.73962,169.9381,45,70,42
169.94232,170.14081,46,70,42
170.14502,170.3435,48,70,42
170.34773,171.15431,49,70,42
171.15854,171.35701,48,70,42
171.36124,171.55972,47,70,42
171.56395,171.76242,48,70,42
171.76665,171.96512,50,70,42
171.96935,172.77594,52,70,42
172.78015,172.97864,50,70,42
172.98286,173.18134,49,70,42
173.18556,173.38405,50,70,42
173.38826,173.58675,52,70,42
173.59097,174.39755,54,70,42
174.40178,175.20836,55,70,42
175.21259,176.01918,52,87,42
176.02339,176.62729,53,100,42
176.6315,176.82999,52,100,42
176.83421,177.6408,50,100,42
177.64502,177.79282,36,70,42
177.84772,177.99553,48,70,42
178.05042,178.19823,40,70,42
178.25313,178.40092,52,70,42
178.45583,178.60364,43,70,42
178.65852,178.80634,55,70,42
178.86124,179.00903,48,70,42
179.06393,179.21175,60,70,42
179.26663,179.46512,43,70,42
180.88826,181.03606,36,70,42
181.09096,181.23877,48,70,42
181.29366,181.44147,40,70,42
181.49637,181.64417,52,70,42
181.69907,181.84688,43,70,42
181.90176,182.04958,55,70,42
182.10448,182.25227,48,70,42
182.30717,182.45497,60,70,42
184.1315,184.2793,36,70,42
184.3342,184.48201,48,70,42
184.5369,184.68471,40,70,42
184.73961,184.8874,52,70,42
184.9423,185.09012,43,70,42
185.145,185.29282,55,70,42
185.34772,185.49551,48,70,42
185.55042,185.70024,60,70,42
185.75589,186.36806,61,70,42
186.37233,186.57353,60,70,42
186.5778,187.18997,61,70,42
187.19424,187.39545,60,70,42
187.39972,187.60092,48,70,42
187.60521,187.8064,60,76,42
187.81068,188.01189,48,82,42
188.01616,188.21736,60,89,42
188.22165,188.42284,48,95,42
188.42712,188.62833,60,101,42
188.6326,188.83946,48,108,42
188.84387,189.05673,60,114,42
189.06126,189.49152,36,120,42
189.49603,189.9263,48,120,42
189.93082,190.59157,60,120,42
190.59637,190.84117,48,110,42
190.84637,191.0562,53,70,42
191.66876,191.81657,43,70,42
191.87148,192.01927,43,70,42
192.07417,192.22197,40,70,42
193.29039,193.43819,45,70,42
193.49309,193.6409,45,70,42
193.69579,193.8436,41,70,42
194.3039,194.50238,52,70,42
194.5066,194.6544,53,70,42
194.7093,194.8571,41,70,42
195.11472,195.31319,52,70,42
195.31741,195.46521,53,70,42
195.52011,195.66792,41,70,42
195.92552,196.124,52,70,42
196.12822,196.27603,53,70,42
196.33092,196.48283,54,70,42
196.53926,196.69116,55,70,42
196.74759,196.90384,43,70,42
196.96187,197.11812,48,70,42
198.63213,198.78195,48,110,42
198.8376,198.98743,48,110,42
199.04309,199.19292,36,110,42
200.27596,200.42578,53,110,42
200.48145,200.63127,53,110,42
200.68692,200.83675,41,76,42
200.8924,201.08823,52,70,42
201.09239,201.23824,53,70,42
201.29239,201.43823,41,70,42
201.6924,201.88823,52,70,42
201.8924,202.03822,53,70,42
202.09239,202.23824,41,70,42
202.4924,202.68823,52,74,42
202.6924,202.83823,53,78,42
202.8924,203.04222,54,83,42
203.09787,203.2477,55,87,42
203.30336,203.45319,49,92,42
203.50883,203.66508,50,96,42
203.72311,203.88396,47,100,42
203.94371,204.26999,48,110,42
204.38489,204.71117,36,110,42
204.82607,205.26263,41,110,42
208.1227,208.2227,52,70,42
208.2227,208.3227,53,70,42
208.3227,208.4227,52,70,42
208.4227,208.52269,53,70,42
208.52269,208.6227,52,70,42
208.6227,208.7227,53,70,42
208.7227,208.8227,48,70,42
208.8227,208.91853,45,70,42
208.9227,209.31853,41,70,42
210.52817,210.67801,52,70,42
210.73366,210.88348,48,70,42
210.93913,211.09538,52,70,42
211.15341,211.31427,48,70,42
211.37401,211.54228,53,70,42
211.60478,211.77304,41,70,42
211.83554,212.00381,53,70,42
212.06631,212.23459,57,110,42
212.29709,212.98459,45,110,42
212.9894,213.06631,45,110,42
213.06631,213.14323,47,110,42
213.14323,213.21535,49,110,42
213.22015,213.366,50,110,42
213.42015,213.566,52,110,42
213.62016,213.76599,53,110,42
213.82016,213.96599,55,110,42
214.02016,214.16599,57,110,42
214.22015,214.366,59,110,42
214.42015,214.566,60,110,42
214.62016,214.76599,61,110,42
214.82016,214.96599,62,110,42
215.02016,215.16599,64,110,42
215.17015,215.22015,62,110,42
215.22015,215.27016,64,110,42
215.27016,215.81183,65,110,42
215.82016,216.01599,64,110,42
216.02016,216.08682,62,110,42
216.08682,216.15349,64,110,42
216.15349,216.22015,62,110,42
216.22015,216.41599,60,110,42
216.42015,216.48683,58,110,42
216.48683,216.5535,60,110,42
216.5535,216.62016,58,110,42
216.62016,216.82135,57,110,42
216.82564,216.89413,55,110,42
216.89413,216.96262,57,110,42
216.96262,217.03111,55,110,42
217.03111,217.24094,53,110,42
217.2454,217.40625,52,110,42
217.46599,217.62683,53,110,42
217.68658,217.85484,51,110,42
217.91734,218.09964,48,110,42
218.16734,218.37717,46,70,42
218.98975,219.0911,52,70,42
219.0911,219.19244,53,70,42
219.19244,219.2938,52,70,42
219.2938,219.39514,53,70,42
219.39514,219.49649,52,70,42
219.49649,219.59785,53,70,42
219.59785,219.6992,48,70,42
219.6992,219.80055,45,70,42
219.80055,220.20174,41,70,42
220.61136,220.7127,57,70,42
220.7127,220.81406,58,70,42
220.81406,220.91542,57,70,42
220.91542,221.01677,58,70,42
221.01677,221.11812,57,70,42
221.11812,221.21947,58,70,42
221.21947,221.32082,53,70,42
221.32082,221.42216,50,70,42
221.42216,221.82335,46,70,42
223.8546,224.00241,43,70,42
224.0573,224.20511,55,70,42
224.26001,224.4078,41,70,42
224.4627,224.6105,53,70,42
224.6654,224.81322,40,70,42
224.86812,225.01591,52,70,42
225.07082,225.21861,36,70,42
225.27351,225.42133,48,70,42
225.47623,225.62402,41,70,42
225.67892,225.82672,53,70,42
225.88162,226.02943,40,76,42
226.08432,226.23213,52,83,42
226.28703,226.43483,38,90,42
226.48973,226.63754,50,97,42
226.69243,226.84024,43,104,42
226.89514,227.04294,55,110,42
227.09784,227.29633,48,70,42
227.30054,227.49902,43,70,42
227.50325,227.70172,47,70,42
227.70595,227.90443,48,70,42
227.90865,228.10713,50,70,42
228.11136,228.30983,43,70,42
228.31406,228.51253,49,70,42
228.51675,228.71524,50,70,42
228.71947,228.91794,52,70,42
228.92216,229.12064,43,70,42
229.12486,229.32335,50,70,42
229.32756,229.52605,52,70,42
229.53027,229.72874,53,70,42
229.73297,229.93146,43,70,42
229.93567,230.13416,45,70,42
230.13838,230.33685,47,70,42
230.34108,230.53957,48,70,42
230.54378,230.74226,43,70,42
230.74649,230.94496,47,70,42
230.94919,231.14766,48,70,42
231.15189,231.35037,50,70,42
231.3546,231.55307,43,70,42
231.5573,231.75577,48,70,42
231.76,231.95848,50,70,42
231.96269,232.16118,52,70,42
232.1654,232.36388,48,70,42
232.3681,232.56659,52,70,42
232.5708,232.7748,55,70,42
232.77914,232.98314,60,80,42
232.98747,233.1973,36,95,42
233.20175,233.41776,38,110,42
233.42235,233.64832,40,100,42
233.65312,233.87907,41,70,42
233.88388,234.08508,36,70,42
234.08937,234.29056,40,70,42
234.29485,234.49605,41,70,42
234.50032,234.70152,43,70,42
234.7058,234.907,36,70,42
234.91129,235.11247,42,70,42
235.11676,235.31796,43,70,42
235.32224,235.52344,45,70,42
235.52771,235.72891,36,70,42
235.7332,235.93439,43,70,42
235.93867,236.13988,45,70,42
236.14415,236.34535,46,70,42
236.34964,236.55083,36,70,42
236.55511,236.75632,38,70,42
236.76059,236.96179,40,70,42
236.96606,237.16727,41,70,42
237.17155,237.37274,36,70,42
237.37703,237.57823,40,70,42
237.5825,237.7837,41,70,42
237.78798,237.98918,43,70,42
237.99347,238.19466,36,70,42
238.19894,238.40015,41,70,42
238.40442,238.60562,43,70,42
238.60991,238.8111,45,70,42
238.81538,239.01659,36,76,42
239.02086,239.22206,43,83,42
239.22633,239.42754,45,90,42
239.43182,239.63301,46,97,42
239.6373,239.8385,36,104,42
239.84277,240.04398,38,110,42
240.04825,240.24945,40,85,42
240.25374,240.45493,41,70,42
243.5414,243.7426,58,70,42
243.95236,244.15355,58,70,42
244.36331,244.56451,60,70,42
244.77428,244.97546,48,70,42
245.80167,246.00287,52,70,42
246.00714,246.20834,53,70,42
246.62358,246.82478,49,70,42
246.82906,247.03026,50,70,42
247.4455,247.6467,45,70,42
247.65097,247.85217,46,70,42
248.26741,248.46861,42,70,42
248.4729,248.67409,43,70,42
249.29482,249.496,36,97,42
249.50029,249.71011,48,104,42
249.71457,249.93057,48,110,42
249.93517,250.16112,48,90,42
250.16592,250.37845,41,70,42
250.78807,250.98656,60,70,42
250.99077,251.18925,65,70,42
251.59888,251.79736,60,70,42
251.80159,252.00006,65,70,42
252.00429,252.20277,65,70,42
252.4097,252.60817,58,70,42
252.8151,253.01358,60,70,42
253.2205,253.41898,48,70,42
253.6259,253.82439,53,76,42
253.82861,254.02708,55,82,42
254.03131,254.2298,48,88,42
254.23401,254.4325,56,95,42
254.43672,254.6352,53,101,42
254.63942,254.8379,55,107,42
254.84212,255.0406,48,105,42
255.04483,255.2433,56,70,42
255.24753,255.446,53,70,42
255.65294,255.85141,46,70,42
256.05835,256.2568,48,70,42
256.46375,256.66772,36,70,42
256.6721,257.0844,41,70,42
257.5054,257.91772,48,70,42
258.33875,258.75107,53,70,42
259.17206,259.5844,48,70,42
259.58875,260.00107,48,70,42
260.0054,260.10956,41,70,42
260.10956,260.18335,48,70,42
260.21375,260.2875,53,70,42
260.3179,260.3917,48,70,42
260.42206,260.49585,53,70,42
260.52625,260.6,48,70,42
260.6304,260.7042,53,70,42
260.73456,260.80835,48,70,42
260.83875,260.9125,52,70,42
260.9429,261.0167,48,70,42
261.04706,261.12085,52,70,42
261.15125,261.225,48,70,42
261.2554,261.3292,52,70,42
261.35956,261.43335,48,70,42
261.46375,261.5375,52,70,42
261.5679,261.6417,48,70,42
261.67206,261.74585,53,70,42
261.77625,261.85,48,70,42
261.8804,261.9542,53,70,42
261.98456,262.05835,48,70,42
262.08875,262.1625,53,70,42
262.1929,262.2667,48,70,42
262.29706,262.37085,45,70,42
262.40125,262.475,48,70,42
262.5054,262.5792,46,70,42
262.60956,262.68335,48,70,42
262.71375,262.7875,43,70,42
262.8179,262.8917,48,70,42
262.92206,262.99585,46,70,42
263.02625,263.1,48,70,42
263.1304,263.2042,43,70,42
263.23456,263.30835,48,70,42
263.33875,263.95938,41,70,42
263.96375,264.16772,50,80,42
264.17206,264.79272,51,83,42
264.79706,265.00107,48,93,42
265.0054,265.62607,50,97,42
265.6304,265.83438,46,107,42
265.8387,266.45938,48,110,42
266.4637,266.66772,41,100,42
266.67206,266.87604,46,70,42
267.5054,267.6573,60,70,42
267.7137,267.86563,60,70,42
267.92206,268.07397,57,70,42
269.17206,269.32397,62,70,42
269.3804,269.53665,62,70,42
269.59467,269.75092,59,70,42
270.02325,270.09467,62,70,42
270.09467,270.1661,61,70,42
270.1661,270.23752,62,70,42
270.23752,270.30896,64,70,42
270.30896,270.3804,62,70,42
270.3804,270.4518,60,70,42
270.4518,270.52325,58,70,42
270.52325,270.59467,57,70,42
270.59467,270.6661,55,70,42
270.6661,270.73752,53,70,42
270.73752,270.80896,52,70,42
270.80896,270.87592,50,70,42
270.8804,271.03662,49,70,42
271.09467,271.25092,49,70,42
271.30896,271.4652,52,70,42
272.71793,272.9002,49,55,42
272.96793,273.13617,49,55,42
273.19867,273.35492,52,55,42
273.61844,273.76428,55,55,42
273.81845,273.9643,55,55,42
274.01846,274.16428,58,55,42
274.41846,274.56427,48,55,42
274.61844,274.76428,48,55,42
274.81845,274.9643,51,55,42
275.21844,275.3643,54,55,42
275.41846,275.56427,54,55,42
275.61844,275.76428,57,55,42
276.01846,276.16428,47,55,42
276.21844,276.3643,47,55,42
276.41846,276.56427,50,55,42
276.81845,276.9643,53,55,42
277.01846,277.16428,53,55,42
277.21844,277.3643,56,55,42
277.61844,277.76428,53,55,42
277.81845,277.9643,53,55,42
278.01846,278.16428,56,55,42
278.41846,278.56427,53,55,42
278.61844,278.76428,53,55,42
278.81845,278.9643,56,55,42
280.81845,281.2143,58,50,42
281.21844,281.82513,61,63,42
281.8294,282.0392,61,84,42
282.0437,282.20453,60,90,42
282.26428,282.43256,48,80,42
282.49506,283.31323,57,70,42
283.31744,283.92133,58,70,42
283.92554,284.12402,55,70,42
284.12827,284.27606,52,70,42
284.33096,284.47876,48,70,42
284.53366,285.08264,60,100,42
285.14175,285.28958,57,70,42
285.34445,285.49228,60,70,42
285.54718,285.69498,57,70,42
285.74988,286.35376,53,70,42
286.35797,286.55646,48,70,42
286.56067,287.16458,55,70,42
287.1688,287.36728,48,70,42
287.3715,287.97537,58,70,42
287.9796,288.17807,48,70,42
288.1823,288.38077,57,70,42
288.9931,289.06067,53,70,42
289.06067,289.12823,52,70,42
289.12823,289.1958,53,71,42
289.1958,289.2634,55,72,42
289.2634,289.33096,53,73,42
289.33096,289.39853,52,74,42
289.39853,289.4661,50,75,42
289.4661,289.53366,48,75,42
289.53366,289.60123,46,76,42
289.60123,289.6688,45,77,42
289.6688,289.73636,43,78,42
289.73636,289.7997,41,79,42
289.80392,289.95172,40,80,42
290.00662,290.15442,40,82,42
290.20932,290.35712,43,85,42
290.61475,290.6823,58,90,42
290.6823,290.74988,57,91,42
290.74988,290.81744,58,92,42
290.81744,290.885,60,93,42
290.885,290.95258,58,93,42
290.95258,291.02014,57,94,42
291.02014,291.0877,55,95,42
291.0877,291.15527,53,96,42
291.15527,291.22284,52,97,42
291.22284,291.2904,50,98,42
291.2904,291.35797,48,99,42
291.35797,291.42133,46,99,42
291.42554,291.57333,45,100,42
291.62823,291.77606,41,103,42
291.83093,291.97876,45,105,42
292.03366,292.18146,48,108,42
292.23636,292.43484,53,110,42
292.43906,292.63754,53,110,42
292.84445,293.04294,41,110,42
293.04715,293.24564,46,110,42
293.24988,293.44833,46,110,42
293.65527,293.85376,58,110,42
293.85797,294.05646,48,110,42
294.06067,294.25916,48,110,42
294.46606,294.66455,36,110,42
294.6688,294.8166,41,110,42
294.8715,295.0193,53,110,42
295.0742,295.222,48,110,42
295.2769,295.42468,45,110,42
295.47958,295.67807,41,110,42
295.68228,295.88077,41,110,42
296.0877,296.2862,53,110,42
296.2904,296.4889,46,110,42
296.4931,296.6916,46,110,42
296.8985,297.097,58,110,42
297.10123,297.29968,36,110,42
297.30392,297.5079,36,110,42
297.72653,297.94254,48,110,42
297.9471,298.14832,41,110,42
298.1526,298.3538,53,100,42
298.55807,298.7539,52,70,42
298.7581,298.95392,53,70,42
298.95807,299.1539,41,70,42
299.3581,299.55392,52,70,42
299.55807,299.7539,53,70,42
299.7581,299.95392,41,70,42
300.15808,300.3539,52,70,42
300.3581,300.5039,53,70,42
300.55807,300.70392,41,71,42
300.7581,300.9039,53,72,42
300.95807,301.1039,52,73,42
301.15808,301.30392,53,74,42
301.3581,301.5039,51,75,42
301.55807,301.70392,50,76,42
301.7581,301.9039,46,77,42
301.95807,302.1039,45,79,42
302.15808,302.30392,41,80,42
302.3581,302.5039,46,81,42
302.55807,302.70392,45,82,42
302.7581,302.9039,43,83,42
302.95807,303.1039,48,84,42
303.15808,303.30392,45,85,42
303.3581,303.5039,41,87,42
303.55807,303.70392,46,88,42
303.7581,303.9039,45,89,42
303.95807,304.1039,46,90,42
304.15808,304.30792,47,91,42
304.36356,304.5134,48,92,42
304.56903,304.72528,47,93,42
304.78333,304.94415,48,95,42
305.0039,305.17218,36,96,42
305.23468,305.4445,41,97,42
305.44897,305.65295,45,98,42
305.6573,305.8613,48,99,42
305.86563,306.0696,36,100,42
306.07397,306.27795,41,101,42
306.2823,306.4835,45,103,42
306.48776,306.68896,48,104,42
306.69327,306.89444,36,105,42
306.89874,307.09995,41,106,42
307.10422,307.3027,45,107,42
307.30692,307.5054,48,108,42
307.5096,307.7081,36,109,42
307.7123,307.9108,41,110,42
307.915,308.1135,45,110,42
308.11774,308.3162,48,110,42
308.32043,308.51892,36,110,42
308.52313,308.72162,41,110,42
308.72583,308.92432,45,110,42
308.92853,309.127,48,110,42
309.13123,309.34106,36,110,42
309.34552,309.56152,41,110,42
309.5661,309.7821,45,110,42
309.7867,310.01266,48,110,42
310.01746,310.2506,36,110,42
310.25555,310.62537,41,110,42
310.75555,311.15897,36,120,42
311.30103,311.8408,41,120,42
