start_time,end_time,note_value,velocity,instrument_program_number
0.0,1.4895834,72,80,0
0.0,1.4895834,68,80,0
1.5,1.9895834,68,80,0
1.5,1.9895834,63,80,0
2.0,2.7395833,68,80,0
2.0,2.7395833,63,80,0
2.75,2.9895833,68,80,0
2.75,2.9895833,63,80,0
3.0,3.9895833,73,80,0
3.0,3.9895833,68,80,0
4.0,5.9895835,70,80,0
4.0,5.9895835,67,80,0
6.0,7.4895835,75,80,0
6.0,7.4895835,68,80,0
7.5,7.9895835,73,80,0
7.5,7.9895835,68,80,0
8.0,8.524553,75,80,0
8.0,8.524553,68,80,0
8.535714,9.100617,77,80,0
8.535714,9.100617,68,80,0
9.112637,9.919456,75,80,0
9.112637,10.192183,67,80,0
9.930819,10.192183,74,80,0
10.203546,10.46491,73,80,0
10.33991,10.601274,75,80,0
10.203546,10.737637,67,80,0
10.476274,10.737637,73,80,0
10.612637,10.869193,75,80,0
10.749001,11.025443,73,80,0
10.893231,11.169674,72,80,0
11.037462,11.313904,73,80,0
11.181693,11.469152,75,80,0
11.325924,11.625402,73,80,0
11.482174,11.781652,75,80,0
11.638424,11.937902,77,80,0
11.950924,12.270368,75,80,0
12.284257,12.603701,73,80,0
12.61759,14.105397,72,80,0
14.115013,15.028474,75,80,0
15.038089,15.490011,80,80,0
15.499627,16.413088,80,80,0
16.422703,18.25924,79,80,0
18.268854,19.643854,82,80,0
19.65347,20.566929,79,80,0
20.576546,21.028467,75,80,0
21.038082,21.951544,75,80,0
21.961159,23.797695,80,80,0
23.80731,25.18231,80,80,0
25.191925,26.105385,84,87,0
26.115002,26.566923,87,93,0
26.576538,27.951538,87,95,0
27.961153,28.413076,85,103,0
28.422691,28.874613,87,106,0
28.88423,29.336151,89,108,0
29.345766,29.79769,89,110,0
29.807304,30.720766,87,107,0
30.730381,30.969965,85,100,0
30.980381,31.219965,84,98,0
31.230381,31.469965,87,96,0
31.480381,31.719965,85,94,0
31.730381,32.297718,79,92,0
32.310738,32.42532,80,80,0
32.435738,32.55032,87,80,0
32.560738,32.67532,84,80,0
32.685738,32.80032,87,80,0
32.810738,32.90895,92,80,0
32.91788,33.016094,87,80,0
33.025024,33.123238,84,80,0
33.132168,33.23038,87,80,0
33.239307,33.337524,80,80,0
33.34645,33.444668,75,80,0
33.453594,33.551807,72,80,0
33.560738,33.65895,75,80,0
33.66788,33.766094,68,80,0
33.775024,33.873238,63,80,0
33.882164,33.98038,60,80,0
33.989307,34.08752,63,80,0
34.09645,34.194664,56,80,0
34.203594,34.301807,51,80,0
34.310738,34.40895,48,80,0
34.41788,34.516094,51,80,0
34.52502,34.623238,44,80,0
34.632164,34.730377,51,80,0
34.739307,34.83752,48,80,0
34.84645,34.944664,51,80,0
34.953594,35.051807,43,80,0
35.060738,35.15895,51,80,0
35.167877,35.266094,49,80,0
35.27502,35.373234,51,80,0
35.382164,35.480377,55,80,0
35.489307,35.58752,51,80,0
35.59645,35.694664,49,80,0
35.70359,35.801807,51,80,0
35.810734,35.90895,55,80,0
35.917877,36.01609,63,80,0
36.02502,36.123234,61,80,0
36.132164,36.230377,63,80,0
36.239307,36.33752,67,80,0
36.346447,36.444664,63,80,0
36.45359,36.551807,61,80,0
36.560734,36.658947,63,80,0
36.667877,36.76609,67,80,0
36.77502,36.873234,75,80,0
36.882164,36.980377,73,80,0
36.989304,37.08752,75,80,0
37.096447,37.194664,79,80,0
37.20359,37.301804,75,80,0
37.310734,37.408947,73,80,0
37.417877,37.51609,75,80,0
37.52502,37.623234,80,80,0
37.63216,37.730377,87,80,0
37.739304,37.837517,84,80,0
37.846447,37.94466,87,80,0
37.95359,38.051804,92,80,0
38.060734,38.158947,87,80,0
38.167877,38.26609,84,80,0
38.275017,38.373234,87,80,0
38.38216,38.480373,80,80,0
38.489304,38.587517,75,80,0
38.596447,38.69466,72,80,0
38.70359,38.801804,75,80,0
38.810734,38.908947,68,80,0
38.917873,39.01609,63,80,0
39.025017,39.12323,60,80,0
39.13216,39.230373,63,80,0
39.239304,39.337517,56,80,0
39.346447,39.44466,51,80,0
39.45359,39.551804,48,80,0
39.56073,39.658947,51,80,0
39.667873,39.766087,44,80,0
39.775017,39.87323,51,80,0
39.88216,39.980373,48,80,0
39.989304,40.087517,51,80,0
40.096443,40.19466,46,80,0
40.203587,40.301804,51,80,0
40.31073,40.408943,49,80,0
40.417873,40.516087,51,80,0
40.525017,40.62323,55,81,0
40.63216,40.730373,51,81,0
40.7393,40.837517,49,81,0
40.846443,40.94466,51,82,0
40.953587,41.0518,58,82,0
41.06073,41.158943,63,82,0
41.167873,41.266087,61,83,0
41.275017,41.37323,63,83,0
41.382156,41.480373,67,83,0
41.4893,41.587517,63,84,0
41.596443,41.694656,61,84,0
41.703587,41.8018,63,84,0
41.81073,41.908943,70,85,0
41.917873,42.016087,75,85,0
42.025013,42.12323,73,85,0
42.132156,42.23037,75,86,0
42.2393,42.337513,79,86,0
42.346443,42.444656,75,86,0
42.453587,42.5518,73,87,0
42.56073,42.658943,75,87,0
42.66787,42.766087,72,87,0
42.775013,42.873226,80,88,0
42.882156,42.98037,75,88,0
42.9893,43.087513,80,88,0
43.096443,43.194656,84,89,0
43.203587,43.3018,80,89,0
43.310726,43.408943,75,89,0
43.41787,43.516083,80,90,0
43.525013,43.623226,72,90,0
43.632156,43.73037,68,90,0
43.7393,43.837513,63,91,0
43.84644,43.944656,68,91,0
43.953583,44.0518,60,91,0
44.060726,44.15894,56,92,0
44.16787,44.266083,51,92,0
44.275013,44.373226,56,92,0
44.382156,44.48037,48,93,0
44.489296,44.587513,56,93,0
44.59644,44.694656,51,93,0
44.703583,44.801796,56,94,0
44.810726,44.90894,60,94,0
44.91787,45.016083,56,94,0
45.025013,45.123226,51,94,0
45.132153,45.23037,56,95,0
45.239296,45.337513,50,95,0
45.34644,45.444653,58,95,0
45.453583,45.551796,56,96,0
45.560726,45.65894,58,96,0
45.66787,45.766083,62,96,0
45.77501,45.873226,58,97,0
45.882153,45.98037,56,97,0
45.989296,46.08751,58,97,0
46.09644,46.194653,62,98,0
46.203583,46.301796,70,98,0
46.310726,46.40894,68,98,0
46.417866,46.516083,70,99,0
46.52501,46.623222,74,99,0
46.632153,46.730366,70,99,0
46.739296,46.83751,68,100,0
46.84644,46.944653,70,100,0
46.953583,47.051796,75,100,0
47.060722,47.15894,82,101,0
47.167866,47.26608,79,101,0
47.27501,47.373222,82,101,0
47.382153,47.480366,87,102,0
47.489296,47.58751,82,102,0
47.59644,47.694653,79,102,0
47.70358,47.801796,82,103,0
47.810722,47.908936,77,103,0
47.917866,48.01608,82,103,0
48.02501,48.123222,80,104,0
48.132153,48.230366,82,104,0
48.239292,48.33751,89,104,0
48.346436,48.444653,82,105,0
48.45358,48.551792,80,105,0
48.560722,48.658936,82,105,0
48.667866,48.76608,77,106,0
48.77501,48.873222,82,106,0
48.88215,48.980366,80,106,0
48.989292,49.08751,82,107,0
49.096436,49.19465,89,107,0
49.20358,49.301792,82,107,0
49.310722,49.408936,80,108,0
49.417866,49.51608,82,108,0
49.525005,49.623222,79,108,0
49.63215,49.730366,87,109,0
49.739292,49.837505,82,109,0
49.846436,49.94465,87,109,0
49.95358,50.051792,91,109,0
50.060722,50.158936,87,110,0
50.167862,50.26608,82,110,0
50.275005,50.37322,87,110,0
50.38215,50.480362,80,110,0
50.489292,50.587505,92,110,0
50.596436,50.69465,87,110,0
50.70358,50.801792,92,110,0
50.81072,50.908936,81,110,0
50.917862,51.016075,93,110,0
51.025005,51.12322,87,110,0
51.13215,51.230362,93,110,0
51.239292,51.343456,81,110,0
51.35293,51.457092,93,110,0
51.466564,51.57073,87,110,0
51.5802,51.68437,93,110,0
51.693836,51.80472,82,110,0
51.814804,51.92569,94,110,0
51.935772,52.046658,87,110,0
52.05674,52.167625,94,110,0
52.177708,52.300476,82,110,0
52.311634,52.434402,94,110,0
52.445564,52.568333,87,110,0
52.57949,52.70226,94,110,0
52.71342,52.85665,83,110,0
52.86967,53.0129,95,110,0
53.02592,53.240765,87,110,0
53.260296,53.47514,95,110,0
53.49467,54.28711,96,80,0
54.297886,54.54573,84,80,0
54.556507,55.321594,94,80,0
55.332367,55.58021,82,80,0
55.59099,56.356075,92,80,0
56.36685,56.614697,93,80,0
56.62547,57.390556,94,80,0
57.401333,57.649178,82,80,0
57.659954,58.425037,92,80,0
58.435814,58.68366,80,80,0
58.694435,58.94228,91,80,0
58.953056,59.2009,79,80,0
59.211678,59.459522,80,80,0
59.470295,59.71814,82,80,0
59.728916,59.97676,86,80,0
59.987537,60.494003,84,80,0
60.50478,60.752625,72,80,0
60.763397,61.011242,84,80,0
61.02202,61.528484,82,80,0
61.53926,61.787106,70,80,0
61.797882,62.029736,82,80,0
62.039818,62.513607,80,80,0
62.523685,62.755543,81,80,0
62.76562,63.005203,84,80,0
63.01562,63.505203,82,80,0
63.51562,63.755203,70,80,0
63.76562,64.017815,82,80,0
64.02878,64.57944,80,80,0
64.591934,64.87944,68,80,0
64.89194,65.13152,79,80,0
64.89194,65.38152,70,80,0
65.14194,65.38152,77,82,0
65.39194,65.61309,79,84,0
65.39194,65.84386,70,84,0
65.6227,65.84386,77,86,0
65.85348,66.76694,79,88,0
65.85348,66.76694,70,88,0
66.77655,67.69001,77,96,0
66.77655,67.69001,70,96,0
67.69963,67.920784,82,104,0
67.69963,67.920784,70,104,0
67.9304,68.15155,81,106,0
67.9304,68.15155,75,106,0
68.16116,68.40075,82,108,0
68.16116,68.40075,70,108,0
68.41116,68.71065,81,110,0
68.41116,68.71065,75,110,0
68.72366,69.96065,82,110,0
68.72366,69.96065,75,110,0
68.72366,69.96065,70,110,0
69.97366,70.081085,68,80,0
70.09085,70.19827,75,80,0
70.20804,71.37015,84,80,0
71.37991,71.487335,68,85,0
71.4971,71.60452,77,86,0
71.61429,71.8389,84,86,0
72.31741,72.424835,70,89,0
72.4346,72.54202,77,90,0
72.55179,72.7764,86,90,0
73.25491,73.362335,72,93,0
73.3721,73.47952,77,94,0
73.48929,73.7139,87,94,0
74.19241,74.299835,73,97,0
74.3096,74.41702,77,97,0
74.42679,75.12015,89,98,0
75.12991,75.5889,91,111,0
75.59866,76.05765,92,113,0
76.06741,76.5264,93,115,0
76.53616,77.93265,94,117,0
77.94241,78.4014,70,110,0
79.11429,79.3389,67,110,0
79.34866,79.57327,68,110,0
79.58304,79.80765,70,110,0
79.81741,80.04202,72,110,0
80.05179,80.2764,74,110,0
80.28616,80.74515,75,110,0
80.75491,81.2139,70,110,0
81.92679,82.1514,74,110,0
82.16116,82.38577,75,110,0
82.39554,82.62015,77,110,0
82.62991,82.85452,79,110,0
82.86429,83.0889,80,110,0
83.09866,83.55765,82,110,0
83.56741,84.0264,75,110,0
84.73929,84.9639,87,120,0
84.97366,85.20184,89,120,0
85.21176,85.47797,91,120,0
85.48954,85.80204,92,120,0
85.81563,86.26485,94,120,0
86.28438,87.27396,96,120,0
88.03438,88.27396,65,80,0
88.28438,88.77396,70,80,0
88.28438,88.77396,65,80,0
89.03438,89.27396,70,80,0
89.03438,89.27396,65,80,0
89.28438,90.27396,69,80,0
89.28438,90.27396,65,80,0
90.28438,91.27396,68,80,0
90.28438,91.27396,65,80,0
91.28438,91.54107,67,80,0
91.55223,91.80893,87,80,0
91.82009,92.10759,86,80,0
92.12009,92.47946,85,80,0
92.49509,92.60967,84,80,0
92.62009,92.73467,82,80,0
92.74509,92.85967,80,80,0
92.87009,92.98467,79,80,0
92.99509,93.10967,78,80,0
93.12009,93.23467,77,80,0
93.24509,93.35967,76,80,0
93.37009,93.48467,75,80,0
93.49509,93.60967,74,80,0
93.62009,93.73467,73,80,0
93.74509,93.85967,72,80,0
93.87009,93.98467,71,80,0
93.99509,94.10967,70,80,0
94.12009,94.23467,68,80,0
94.24509,94.35967,67,80,0
94.37009,94.48467,65,80,0
94.49509,95.019646,70,80,0
94.49509,95.019646,62,80,0
95.29866,95.658035,70,80,0
95.29866,95.658035,62,80,0
95.67366,96.163246,70,80,0
96.17366,96.413246,72,80,0
96.42366,96.663246,70,80,0
96.67366,96.913246,68,80,0
96.92366,97.163246,67,80,0
97.17366,97.413246,65,80,0
97.42366,97.663246,67,80,0
95.67366,97.913246,63,80,0
97.92366,98.163246,60,80,0
98.17366,98.413246,63,80,0
97.67366,98.663246,68,80,0
98.42366,98.663246,62,80,0
98.67366,98.913246,67,80,0
98.67366,98.913246,63,80,0
98.92366,99.163246,58,80,0
99.17366,99.413246,60,80,0
99.42366,99.663246,58,80,0
99.67366,99.913246,56,80,0
99.92366,100.163246,55,80,0
100.17366,100.413246,53,80,0
100.42366,100.663246,55,80,0
100.67366,100.913246,63,80,0
100.92366,101.163246,60,80,0
101.17366,101.413246,63,80,0
100.67366,101.663246,56,80,0
101.42366,101.663246,62,80,0
101.67366,101.913246,65,80,0
101.92366,102.163246,62,80,0
102.17366,102.413246,65,80,0
101.67366,102.663246,55,80,0
102.42366,102.663246,63,80,0
102.67366,102.913246,68,80,0
102.92366,103.163246,65,80,0
103.17366,103.413246,68,80,0
103.42366,103.663246,67,80,0
103.67366,103.913246,72,80,0
103.92366,104.163246,69,80,0
104.17366,104.413246,72,80,0
104.42366,104.663246,70,80,0
104.67366,104.913246,77,80,0
104.92366,105.163246,74,80,0
105.17366,105.413246,77,80,0
105.42366,105.663246,75,80,0
105.67366,105.913246,80,80,0
105.92366,106.163246,77,80,0
106.17366,106.413246,80,80,0
106.42366,106.663246,79,80,0
106.67366,106.93502,84,80,0
106.94639,107.20775,81,80,0
107.21912,107.51859,84,80,0
107.53162,107.89099,82,80,0
107.90662,110.896194,87,80,0
109.90662,110.896194,75,80,0
110.90662,114.21502,85,80,0
112.97804,114.21502,73,80,0
114.22804,115.6296,84,80,0
114.22804,115.6296,72,80,0
115.63921,116.09113,80,83,0
116.10075,116.78344,80,85,0
116.79306,117.01421,80,87,0
117.02383,117.93729,85,87,0
117.02383,117.93729,82,87,0
117.02383,117.93729,79,87,0
117.02383,117.93729,76,87,0
117.94691,119.78344,82,90,0
117.94691,119.78344,79,90,0
117.94691,119.78344,76,90,0
119.79305,121.16805,82,95,0
119.79305,121.16805,79,95,0
119.79305,121.16805,76,95,0
121.177666,121.62959,79,99,0
121.639206,122.3219,79,101,0
122.33151,122.552666,79,103,0
122.56229,123.475746,84,103,0
122.56229,123.475746,80,103,0
122.56229,123.475746,77,103,0
122.56229,123.475746,72,103,0
123.48536,125.493095,80,106,0
123.48536,125.493095,77,106,0
123.48536,125.493095,72,106,0
125.5056,126.92632,80,80,0
125.5056,126.92632,77,80,0
126.93609,127.39507,77,80,0
127.40484,128.0982,77,80,0
125.5056,128.33258,72,80,0
128.10797,128.33258,77,80,0
128.34235,129.27008,82,80,0
128.34235,129.27008,79,80,0
128.34235,129.27008,76,80,0
128.34235,129.27008,72,80,0
129.27985,131.14508,79,80,0
129.27985,131.14508,76,80,0
129.27985,131.14508,72,80,0
131.15485,132.55133,80,80,0
131.15485,132.55133,77,80,0
132.5611,133.02008,77,80,0
133.02985,133.7232,77,80,0
131.15485,133.95758,72,80,0
133.02985,133.95758,72,80,0
133.02985,133.95758,68,80,0
133.73297,133.95758,77,80,0
133.96735,134.89508,78,80,0
133.96735,134.89508,73,80,0
133.96735,134.89508,66,80,0
134.90485,135.84738,66,80,0
135.85747,136.34705,68,80,0
134.90485,136.9248,75,80,0
134.90485,136.9248,72,80,0
136.35747,136.9248,66,80,0
136.93782,138.36778,77,80,0
136.93782,138.36778,73,80,0
136.93782,138.83653,65,80,0
138.37755,138.83653,73,80,0
138.8463,139.53966,73,80,0
138.8463,139.77403,65,80,0
138.8463,139.77403,68,80,0
139.54942,139.77403,73,80,0
139.7838,140.71153,78,80,0
139.7838,140.71153,75,80,0
139.7838,140.71153,72,80,0
139.7838,140.71153,66,80,0
140.7213,142.58653,75,80,0
140.7213,142.58653,72,80,0
140.7213,142.58653,66,80,0
142.5963,143.52403,72,80,0
142.5963,143.52403,65,80,0
142.5963,143.99278,77,80,0
144.00255,144.46153,73,80,0
144.4713,145.16466,73,80,0
143.5338,145.39903,70,80,0
143.5338,145.39903,65,80,0
145.17442,145.39903,73,80,0
145.4088,146.33653,75,80,0
145.4088,147.28883,70,80,0
145.4088,147.7885,65,80,0
147.29892,147.7885,69,80,0
146.3463,148.35428,72,80,0
147.79892,148.84138,65,80,0
148.36678,149.77888,73,80,0
149.78865,150.24763,70,80,0
150.2574,150.95076,70,80,0
148.85115,151.18513,65,80,0
150.96053,151.18513,70,80,0
151.1949,152.12263,75,80,0
151.1949,153.06013,70,80,0
151.1949,153.06013,65,80,0
152.1324,153.99763,72,80,0
153.0699,153.99763,69,80,0
153.0699,153.99763,65,80,0
154.0074,155.40388,73,80,0
154.0074,155.40388,70,80,0
155.41365,155.88745,70,80,0
155.89752,156.65422,70,80,0
154.0074,156.95288,65,80,0
156.66537,156.95288,70,80,0
156.96538,157.90874,73,80,0
156.96538,157.90874,70,80,0
156.96538,157.90874,63,80,0
157.9185,158.06499,70,80,0
157.99663,158.14311,72,80,0
158.07475,158.22124,70,80,0
158.15288,158.29936,72,81,0
158.231,158.37749,70,81,0
158.30913,158.45561,72,82,0
158.38725,158.53374,70,82,0
158.46538,158.61186,72,83,0
158.5435,158.68999,70,83,0
158.62163,158.76811,72,83,0
158.69975,158.84624,70,84,0
158.77788,158.92892,72,84,0
158.856,159.01225,70,85,0
158.93935,159.0956,72,85,0
159.02267,159.17892,70,86,0
159.106,159.26225,72,86,0
159.18935,159.3456,70,86,0
159.27267,159.43413,72,87,0
159.356,159.52342,71,87,0
159.4453,159.6127,72,88,0
159.53458,159.71136,71,88,0
159.62387,159.81137,72,89,0
159.72386,159.91136,71,89,0
159.82387,159.91136,72,89,0
159.92386,161.33597,72,80,0
159.92386,161.33597,63,80,0
159.92386,161.33597,60,80,0
161.34573,161.80472,68,80,0
161.34573,161.80472,63,80,0
161.34573,161.80472,60,80,0
161.81448,162.27347,63,80,0
161.81448,162.27347,58,80,0
161.81448,162.50784,68,80,0
162.51761,162.74222,68,80,0
162.75198,163.67972,73,80,0
162.75198,163.67972,67,80,0
162.75198,163.67972,63,80,0
163.68948,165.55472,70,80,0
163.68948,165.55472,67,80,0
163.68948,165.55472,63,80,0
165.56448,166.96097,75,80,0
165.56448,166.96097,68,80,0
165.56448,166.96097,63,80,0
166.97073,167.42972,74,80,0
166.97073,167.42972,68,80,0
166.97073,167.42972,62,80,0
167.43948,167.89847,75,80,0
167.43948,167.89847,68,80,0
167.43948,167.89847,63,80,0
167.90823,168.36722,77,80,0
167.90823,168.36722,68,80,0
167.90823,168.36722,65,80,0
168.37698,168.83597,75,80,0
168.84573,169.30472,74,80,0
169.31448,169.4219,73,80,0
169.37308,169.4805,75,80,0
169.43167,169.5391,73,80,0
169.49026,169.59769,75,80,0
169.54886,169.65628,73,80,0
169.60745,169.71487,75,80,0
169.66605,169.77347,73,80,0
169.72464,169.83533,75,80,0
169.78323,169.89783,73,80,0
169.84573,169.96033,75,80,0
169.90823,170.02283,73,80,0
169.97073,170.08533,75,80,0
170.03323,170.14783,73,80,0
170.09573,170.21033,75,80,0
170.15823,170.27283,73,80,0
170.22073,170.33904,75,80,0
170.28323,170.406,73,80,0
170.3502,170.47298,75,80,0
170.41716,170.53993,73,80,0
170.48413,170.6069,75,80,0
170.5511,170.67386,73,80,0
170.61806,170.74083,75,80,0
170.68503,170.80779,73,80,0
170.75198,170.88145,75,80,0
170.81895,171.10645,72,80,0
171.11896,171.47833,70,80,0
171.49396,171.60854,68,80,0
171.61896,171.73354,75,80,0
171.74396,171.86671,72,81,0
171.87788,172.00066,75,81,0
172.01181,172.12834,80,82,0
172.13893,172.25545,87,83,0
172.26605,172.38257,84,83,0
172.39316,172.50969,87,84,0
172.52028,172.63681,92,85,0
172.6474,172.76393,80,85,0
172.77452,172.89105,92,86,0
172.90164,173.01816,80,87,0
173.02876,173.14528,92,87,0
173.15588,173.2724,80,88,0
173.28299,173.39952,92,89,0
173.41011,173.52664,80,89,0
173.53723,173.65376,92,90,0
173.66435,173.78088,80,91,0
173.79147,173.90799,92,91,0
173.9186,174.03511,80,92,0
174.0457,174.16223,92,93,0
174.17282,174.28935,80,93,0
174.29994,174.41647,92,94,0
174.42706,174.5436,80,95,0
174.55418,174.6707,92,95,0
174.6813,174.79782,80,96,0
174.80843,174.92494,92,97,0
174.93553,175.05206,80,97,0
175.06265,175.17918,92,98,0
175.18977,175.3063,80,99,0
175.3169,175.43343,92,99,0
175.44402,175.56053,80,100,0
175.57114,175.68765,92,101,0
175.69824,175.81477,80,101,0
175.82536,175.9419,92,102,0
175.95248,176.06902,80,103,0
176.0796,176.19614,92,103,0
176.20673,176.32324,80,104,0
176.33385,176.45036,92,105,0
176.46097,176.57748,80,105,0
176.58807,176.69896,92,106,0
176.70905,176.81993,80,106,0
176.83002,176.9409,92,107,0
176.95099,177.06187,80,108,0
177.07195,177.18654,92,108,0
177.19695,177.31154,80,109,0
177.32195,177.45946,92,110,0
177.47195,177.60945,80,110,0
177.62195,178.28957,92,110,0
178.30377,178.59126,90,107,0
178.60378,179.19127,89,105,0
179.20377,179.34126,87,102,0
179.35378,179.49127,86,101,0
179.50377,179.64127,87,100,0
179.65376,179.79128,89,99,0
179.80377,179.94127,90,98,0
179.95377,180.09126,89,98,0
180.10378,180.22878,87,97,0
180.24013,180.36513,89,96,0
180.3765,180.5015,87,95,0
180.51286,180.63786,85,94,0
180.64922,180.78673,84,93,0
180.79922,180.93672,82,92,0
180.94922,181.08672,80,91,0
181.09923,181.23672,78,91,0
181.24922,182.68541,77,80,0
182.69502,183.60849,80,80,0
183.6181,184.07002,85,80,0
184.07964,184.9931,85,80,0
185.00272,186.83925,84,80,0
186.84886,188.22386,87,80,0
188.23347,189.14694,84,80,0
189.15656,189.60847,80,82,0
189.6181,190.53156,80,85,0
190.54117,191.93803,85,91,0
191.94812,192.52538,85,99,0
192.53839,193.59337,85,100,0
193.60313,194.99962,85,96,0
195.00938,195.46837,85,89,0
195.47813,196.40587,85,87,0
196.41563,197.81212,83,83,0
197.82188,198.28087,83,76,0
198.29063,198.74962,83,74,0
198.75938,199.33556,81,72,0
199.34532,199.56993,83,70,0
199.46251,199.67735,81,70,0
199.5797,199.79454,80,70,0
199.69688,199.9215,81,70,0
199.93126,200.15587,83,70,0
200.16563,200.39479,81,70,0
200.29063,200.53021,83,70,0
200.41563,200.65521,85,70,0
200.66563,200.94208,83,70,0
200.95409,201.31346,81,70,0
201.32909,201.61555,80,80,0
201.48534,201.73088,88,80,0
201.64159,201.8648,83,80,0
201.77551,201.97676,88,80,0
201.90945,202.10176,92,80,0
202.02483,202.24599,88,80,0
202.14021,202.35176,83,80,0
202.2556,202.46027,88,80,0
202.79956,202.99599,68,80,0
202.9067,203.0942,64,80,0
203.01384,203.19241,59,80,0
203.12099,203.30849,64,80,0
203.6567,203.86206,32,80,0
203.76384,203.95134,40,80,0
203.87099,204.05849,35,80,0
203.97812,204.17456,40,80,0
204.08527,204.25491,39,80,0
204.19241,204.37991,47,80,0
204.29956,204.48706,45,80,0
204.4067,204.60312,47,80,0
204.51384,204.7192,51,80,0
204.62099,204.82634,47,80,0
204.72812,204.9067,45,80,0
204.83527,205.02277,47,80,0
204.94241,205.12991,51,80,0
205.04956,205.23706,59,80,0
205.1567,205.35312,57,80,0
205.26384,205.46027,59,80,0
205.37099,205.55849,63,80,0
205.47812,205.68349,59,80,0
205.58527,205.79062,57,80,0
205.69241,205.89777,59,80,0
205.79955,205.98705,63,80,0
205.9067,206.0942,71,80,0
206.01384,206.20134,69,80,0
206.12099,206.30849,71,80,0
206.22812,206.43349,75,80,0
206.33527,206.54062,71,80,0
206.44241,206.64777,69,80,0
206.54955,206.72812,71,80,0
206.6567,206.75491,76,80,0
206.76384,206.86205,83,80,0
206.87099,206.9692,80,80,0
206.97812,207.07634,83,80,0
207.08527,207.18349,88,80,0
207.19241,207.29062,83,80,0
207.29955,207.39777,80,80,0
207.4067,207.50491,83,80,0
207.51384,207.61205,76,80,0
207.62099,207.7192,71,80,0
207.72812,207.82634,68,80,0
207.83527,207.93347,71,80,0
207.94241,208.04062,64,80,0
208.04955,208.14777,59,80,0
208.1567,208.25491,56,80,0
208.26384,208.36205,59,80,0
208.37097,208.4692,52,80,0
208.47812,208.57634,59,80,0
208.58527,208.68347,56,80,0
208.69241,208.79062,59,80,0
208.79955,208.89777,64,80,0
208.9067,209.00491,59,80,0
209.01384,209.11205,56,80,0
209.12097,209.2192,59,80,0
209.22812,209.32634,54,80,0
209.33527,209.43347,59,80,0
209.44241,209.54062,57,80,0
209.54955,209.64777,59,80,0
209.6567,209.75491,66,80,0
209.76384,209.86205,59,80,0
209.87097,209.9692,57,80,0
209.97812,210.07634,59,80,0
210.08527,210.18347,66,80,0
210.1924,210.29062,71,80,0
210.29955,210.39777,69,80,0
210.4067,210.5049,71,80,0
210.51384,210.61205,78,80,0
210.62097,210.7192,71,80,0
210.72812,210.82634,69,80,0
210.83527,210.93347,71,80,0
210.9424,211.04062,78,80,0
211.04955,211.14777,83,80,0
211.1567,211.2549,81,80,0
211.26384,211.36205,83,80,0
211.37097,211.4692,90,80,0
211.47812,211.57634,83,80,0
211.58527,211.68347,81,80,0
211.6924,211.79062,83,80,0
211.79955,211.89777,80,80,0
211.9067,212.0049,92,80,0
212.01384,212.11205,83,80,0
212.12097,212.2192,92,80,0
212.22812,212.32632,80,80,0
212.33527,212.43347,92,80,0
212.4424,212.54062,83,80,0
212.54955,212.64777,92,80,0
212.60312,212.70132,80,80,0
212.71027,212.80847,92,80,0
212.8174,212.91562,83,80,0
212.92455,213.02277,92,80,0
213.08527,213.18347,81,80,0
213.1924,213.29062,93,80,0
213.29955,213.39777,88,80,0
213.4067,213.5049,93,80,0
213.51382,213.61205,81,80,0
213.62097,213.7192,93,80,0
213.72812,213.82632,88,80,0
213.83527,213.93347,93,80,0
213.9424,214.04062,82,80,0
214.04955,214.14777,94,80,0
214.1567,214.2549,88,80,0
214.26382,214.36205,94,80,0
214.37097,214.4801,82,80,0
214.49002,214.59915,94,80,0
214.60907,214.7182,88,80,0
214.72812,214.83723,94,80,0
214.84717,214.95628,83,80,0
214.96622,215.07533,95,80,0
215.08525,215.19438,88,80,0
215.2043,215.31343,95,80,0
215.32335,215.43248,83,80,0
215.4424,215.55153,95,80,0
215.56145,215.67058,88,80,0
215.6805,215.78963,95,80,0
215.79955,215.90868,84,80,0
215.9186,216.02771,96,80,0
216.03764,216.14676,88,80,0
216.1567,216.26581,96,80,0
216.27573,216.39032,72,80,0
216.40073,216.51532,84,80,0
216.52573,216.64032,76,80,0
216.65073,216.76532,84,80,0
216.77573,216.91324,73,80,0
216.92574,217.06323,85,80,0
217.07573,217.25282,76,80,0
217.27365,217.50282,85,80,0
217.52365,218.34846,85,80,0
218.35887,218.59846,73,80,0
218.60887,219.34846,83,80,0
219.35887,219.59846,71,80,0
219.67137,220.41096,81,80,0
220.35887,220.59846,82,80,0
220.60887,221.34846,83,80,0
221.35887,221.59846,71,80,0
221.60887,222.34644,81,80,0
222.35779,222.6453,69,80,0
222.65779,223.14738,80,80,0
222.65779,223.14738,68,80,0
223.15779,223.89217,79,80,0
223.15779,223.89217,67,80,0
223.90779,225.50377,79,80,0
223.90779,225.50377,67,80,0
225.51494,226.03949,80,80,0
225.51494,226.03949,68,80,0
226.05064,226.30734,82,80,0
226.05064,226.30734,70,80,0
226.31851,226.57521,84,80,0
226.31851,226.57521,72,80,0
226.58636,226.86281,85,80,0
226.58636,226.86281,73,80,0
226.87483,227.2342,87,80,0
226.87483,227.2342,75,80,0
227.24983,227.99727,89,80,0
228.00703,228.23164,77,80,0
228.24141,228.93477,87,80,0
228.94453,229.16914,75,80,0
229.17891,229.87227,85,80,0
229.88203,230.10664,86,80,0
230.11641,230.80977,87,80,0
230.81953,231.04414,75,80,0
231.05391,231.74727,85,80,0
231.75703,231.98164,73,80,0
231.99141,232.21602,84,80,0
232.22578,232.4504,72,80,0
232.46016,232.68477,73,80,0
232.69453,232.91914,75,80,0
232.92891,233.15352,79,80,0
233.16328,233.3879,76,80,0
233.39766,233.62227,77,80,0
233.63203,233.85664,65,80,0
233.86641,234.09102,77,80,0
234.10078,234.3254,74,80,0
234.33516,234.55977,75,80,0
234.56953,234.79414,63,80,0
234.80391,235.02852,75,80,0
235.03828,235.2629,72,80,0
235.27266,235.49727,73,80,0
235.50703,235.73164,61,80,0
235.74141,235.96602,77,80,0
235.97578,236.2004,74,80,0
236.21016,236.43477,75,80,0
236.44453,236.66914,63,80,0
236.67891,236.9185,75,80,0
236.92891,237.1685,72,80,0
237.17891,237.45535,73,80,0
237.46738,237.79408,61,80,0
237.80829,238.08473,72,80,0
237.80829,238.37318,63,80,0
238.09674,238.37318,70,81,0
238.38521,238.66165,72,83,0
238.38521,238.9501,63,83,0
238.67366,238.9501,70,85,0
238.96213,240.10396,72,87,0
238.96213,240.10396,63,87,0
240.11597,241.2578,70,95,0
240.11597,241.2578,63,95,0
241.26982,241.54626,75,103,0
241.26982,241.54626,63,103,0
241.55829,241.83472,74,105,0
241.55829,241.83472,68,105,0
241.84674,242.14622,75,107,0
241.84674,242.14622,63,107,0
242.15924,242.51862,74,108,0
242.15924,242.51862,68,108,0
242.53424,243.7554,75,110,0
242.53424,243.7554,68,110,0
242.53424,243.7554,63,110,0
243.76501,243.87079,62,80,0
243.8804,243.98616,68,80,0
243.99579,245.14001,77,80,0
245.14963,245.2554,63,85,0
245.26501,245.37077,70,86,0
245.3804,246.06308,77,86,0
246.07271,246.17847,63,89,0
246.18808,246.29385,70,90,0
246.30347,246.98616,79,90,0
246.99577,247.10155,65,93,0
247.11116,247.21693,70,94,0
247.22655,247.90924,80,94,0
247.91885,248.02463,67,97,0
248.03424,248.14001,70,98,0
248.14963,248.83232,82,98,0
248.84193,249.29385,84,101,0
249.30347,249.75539,85,103,0
249.765,250.21693,86,105,0
250.22655,251.60155,87,107,0
251.61116,252.06308,60,110,0
252.765,252.98616,60,110,0
252.99577,253.21692,61,110,0
253.22655,253.4477,63,110,0
253.4573,253.67847,65,110,0
253.68808,253.90923,67,110,0
253.91885,254.37077,68,110,0
254.38039,254.8323,63,110,0
255.53423,255.75539,67,110,0
255.765,255.98616,68,110,0
255.99577,256.21692,70,110,0
256.22653,256.4477,72,110,0
256.4573,256.67847,73,110,0
256.68808,257.13998,75,110,0
257.14963,257.60153,68,110,0
258.30347,258.52463,80,120,0
258.53424,258.76608,82,120,0
258.77615,259.03287,84,120,0
259.044,259.3315,85,120,0
259.34402,259.7034,87,120,0
259.71902,260.86084,89,120,0
261.73825,262.01468,70,80,0
261.73825,262.01468,65,80,0
262.0267,262.5916,75,80,0
262.0267,262.5916,67,80,0
262.8921,263.16855,75,80,0
262.8921,263.16855,67,80,0
263.18057,264.3224,74,80,0
263.18057,264.3224,71,80,0
264.3344,265.47623,73,80,0
264.3344,265.47623,64,80,0
265.48825,265.76468,72,80,0
265.48825,265.76468,63,80,0
265.7767,266.05316,92,80,0
266.0652,266.3416,91,80,0
266.35364,266.63007,90,80,0
266.6421,266.77432,89,80,0
266.78632,266.91855,87,80,0
266.93057,267.04514,85,80,0
267.05557,267.17014,84,80,0
267.18057,267.29514,83,80,0
267.30557,267.42014,82,80,0
267.43057,267.54514,81,80,0
267.55557,267.67014,80,80,0
267.68057,267.79514,79,80,0
267.80557,267.92014,78,80,0
267.93057,268.04514,77,80,0
268.05557,268.17014,76,80,0
268.18057,268.29514,75,80,0
268.30557,268.42014,73,80,0
268.43057,268.54514,72,80,0
268.55557,268.67014,70,80,0
268.68057,269.24545,70,80,0
268.68057,269.24545,75,80,0
269.54593,269.8224,75,80,0
269.54593,269.8224,67,80,0
269.8344,270.39932,75,80,0
270.41132,270.6509,77,80,0
270.66132,270.9009,75,80,0
270.91132,271.1509,73,80,0
271.16132,271.4009,72,80,0
271.41132,271.6509,70,80,0
271.66132,271.9009,72,80,0
269.8344,272.1509,68,80,0
272.16132,272.4009,65,80,0
272.41132,272.6509,68,80,0
271.91132,272.9009,73,80,0
272.66132,272.9009,67,80,0
272.91132,273.1509,72,80,0
272.91132,273.1509,68,80,0
273.16132,273.4009,63,80,0
273.41132,273.6509,65,80,0
273.66132,273.9009,63,80,0
273.91132,274.1509,61,80,0
274.16132,274.4009,60,80,0
274.41132,274.6509,58,80,0
274.66132,274.9009,60,80,0
274.91132,275.1509,68,80,0
275.16132,275.4009,65,80,0
275.41132,275.6509,68,80,0
274.91132,275.9009,61,80,0
275.66132,275.9009,67,80,0
275.91132,276.1509,70,80,0
276.16132,276.4009,67,80,0
276.41132,276.6509,70,80,0
276.66132,276.9009,68,80,0
276.91132,277.1509,73,80,0
277.16132,277.4009,71,80,0
277.41132,277.6509,73,80,0
277.66132,277.9009,72,80,0
277.91132,278.1509,77,80,0
278.16132,278.4009,74,80,0
278.41132,278.6509,77,80,0
278.66132,278.9009,75,80,0
278.91132,279.1509,82,80,0
279.16132,279.4009,79,80,0
279.41132,279.6509,82,80,0
279.66132,279.9009,80,80,0
279.91132,280.1509,85,80,0
280.16132,280.4009,83,80,0
280.41132,280.6509,85,80,0
280.66132,280.9009,84,80,0
280.91132,281.1509,89,80,0
281.16132,281.4009,86,80,0
281.41132,281.6509,89,80,0
281.66132,281.9009,87,80,0
281.91132,282.1509,87,80,0
282.16132,282.4009,84,80,0
282.41132,282.6509,87,81,0
282.66132,282.9009,86,82,0
282.91132,283.1509,96,83,0
283.16132,283.4009,93,84,0
283.41132,283.6509,96,85,0
283.66132,283.9009,94,86,0
283.91132,284.1509,87,87,0
284.16132,284.4009,84,87,0
284.41132,284.6509,87,88,0
284.66132,284.9009,86,89,0
284.91132,285.1509,89,90,0
285.16132,285.4009,86,91,0
285.41132,285.6509,89,92,0
285.66132,285.9009,87,93,0
285.91132,286.1509,96,94,0
286.16132,286.4009,93,95,0
286.41132,286.6509,96,95,0
286.66132,286.9009,94,96,0
286.91132,287.1509,89,97,0
287.16132,287.4009,86,98,0
287.41132,287.6509,89,99,0
287.66132,287.9009,87,100,0
287.91132,288.1509,87,101,0
288.16132,288.4009,84,102,0
288.41132,288.6509,87,103,0
288.66132,288.9009,86,103,0
288.91132,289.1509,96,104,0
289.16132,289.4009,93,105,0
289.41132,289.6509,96,106,0
289.66132,289.9009,94,107,0
289.91132,290.1635,87,108,0
290.1745,290.42667,84,109,0
290.43765,290.68985,87,110,0
290.7008,290.953,86,110,0
290.96396,291.2253,89,100,0
291.2367,291.49805,86,97,0
291.5094,291.8089,89,94,0
291.8219,292.27112,87,91,0
292.29065,295.05685,79,80,0
292.29065,295.05685,89,80,0
295.06845,295.61243,75,80,0
295.06845,295.61243,68,80,0
295.624,298.3902,68,80,0
295.624,298.3902,75,80,0
298.40176,298.94574,73,75,0
298.40176,298.94574,70,75,0
298.95734,301.76706,70,75,0
298.95734,301.76706,73,75,0
301.77954,302.36707,72,70,0
301.77954,302.36707,68,70,0
302.37955,305.44717,68,70,0
302.37955,305.44717,72,70,0
305.46136,306.12897,75,70,0
305.46136,306.12897,67,70,0
306.1432,308.85626,67,70,0
306.1432,308.85626,75,70,0
308.87045,309.0267,68,80,0
309.04092,309.19717,75,80,0
309.21136,309.34888,72,80,0
309.36136,309.49887,75,80,0
309.51135,309.63867,80,80,0
309.65027,309.77756,75,80,0
309.78915,309.91647,72,80,0
309.92804,310.05536,75,80,0
310.06693,310.1727,68,80,0
310.1823,310.2881,63,80,0
310.2977,310.40347,60,80,0
310.4131,310.51886,63,80,0
310.52847,310.62668,56,80,0
310.6356,310.73383,51,80,0
310.74274,310.84097,48,80,0
310.84988,310.9481,51,80,0
310.95703,311.05524,44,80,0
311.06418,311.16238,39,80,0
311.17133,311.26953,36,80,0
311.27847,311.37668,39,80,0
311.81418,311.91238,43,80,0
311.92133,312.01953,51,80,0
312.02847,312.12668,49,80,0
312.1356,312.23383,51,80,0
312.24274,312.34097,55,80,0
312.34988,312.4481,51,80,0
312.45703,312.55524,49,80,0
312.56418,312.66238,51,80,0
312.67133,312.76953,55,80,0
312.77847,312.87668,63,80,0
312.8856,312.98383,61,80,0
312.99274,313.09097,63,80,0
313.09988,313.1981,67,80,0
313.20703,313.30524,63,80,0
313.31418,313.41238,61,80,0
313.42133,313.51953,63,80,0
313.52847,313.62668,67,80,0
313.6356,313.73383,75,80,0
313.74274,313.84097,73,80,0
313.84988,313.9481,75,80,0
313.95703,314.05524,79,80,0
314.06418,314.16238,75,80,0
314.17133,314.26953,73,80,0
314.27844,314.37668,75,80,0
314.3856,314.48383,80,80,0
314.49274,314.59094,87,80,0
314.59988,314.6981,84,80,0
314.70703,314.80524,87,80,0
314.81418,314.91238,92,80,0
314.92133,315.01953,87,80,0
315.02844,315.12668,84,80,0
315.1356,315.23383,87,80,0
315.24274,315.34094,80,80,0
315.34988,315.4481,75,80,0
315.45703,315.55524,72,80,0
315.56418,315.66238,75,80,0
315.67133,315.76953,68,80,0
315.77844,315.87668,63,80,0
315.8856,315.98383,60,80,0
315.99274,316.09094,63,80,0
316.04633,316.14453,56,80,0
316.15344,316.25168,51,80,0
316.2606,316.35883,48,80,0
316.36774,316.46594,51,80,0
316.52844,316.62668,44,80,0
316.6356,316.73383,51,80,0
316.74274,316.84094,48,80,0
316.84988,316.9481,51,80,0
316.95703,317.05524,46,80,0
317.06418,317.16238,51,80,0
317.17133,317.26953,49,80,0
317.27844,317.37668,51,80,0
317.3856,317.48383,58,80,0
317.49274,317.59094,51,80,0
317.59988,317.6981,49,80,0
317.70703,317.80524,51,80,0
317.81418,317.91238,58,80,0
317.92133,318.01953,63,80,0
318.02844,318.12668,61,80,0
318.1356,318.23383,63,80,0
318.24274,318.34094,70,80,0
318.34988,318.4481,63,80,0
318.45703,318.55524,61,80,0
318.56418,318.66238,63,80,0
318.6713,318.76953,70,80,0
318.77844,318.87668,75,80,0
318.8856,318.9838,73,80,0
318.99274,319.09094,75,80,0
319.09988,319.1981,82,80,0
319.20703,319.30524,75,80,0
319.31418,319.41238,73,80,0
319.4213,319.51953,75,80,0
319.52844,319.62668,72,80,0
319.6356,319.7338,75,80,0
319.74274,319.84094,72,81,0
319.84988,319.9481,75,81,0
319.95703,320.05524,84,82,0
320.06418,320.16238,75,83,0
320.1713,320.26953,72,83,0
320.27844,320.37668,75,84,0
320.3856,320.4838,73,85,0
320.49274,320.59094,80,85,0
320.59988,320.6981,73,86,0
320.70703,320.80524,80,87,0
320.81418,320.91238,85,87,0
320.9213,321.01953,80,88,0
321.02844,321.12668,77,89,0
321.1356,321.2338,80,89,0
321.24274,321.34094,75,90,0
321.34988,321.4481,87,91,0
321.45703,321.55524,80,91,0
321.56418,321.66238,87,92,0
321.6713,321.76953,76,93,0
321.77844,321.87668,88,93,0
321.8856,321.9838,80,94,0
321.99274,322.09094,88,95,0
322.09988,322.1981,77,95,0
322.20703,322.30524,89,96,0
322.31418,322.41238,77,97,0
322.4213,322.51953,80,97,0
322.52844,322.62668,89,98,0
322.6356,322.7338,85,99,0
322.74274,322.84094,80,99,0
322.84988,322.9481,85,100,0
322.95703,323.06277,79,101,0
323.07242,323.17816,87,101,0
323.18777,323.29355,85,102,0
323.30316,323.40894,87,103,0
323.41855,323.52432,91,103,0
323.53394,323.6397,87,104,0
323.64932,323.7551,85,105,0
323.7647,323.87048,87,105,0
323.8801,323.9947,79,106,0
324.0051,324.1197,91,106,0
324.1301,324.2447,87,107,0
324.2551,324.3697,91,108,0
324.3801,324.5176,80,108,0
324.5301,324.6676,92,109,0
324.68008,324.85196,87,110,0
324.86758,325.08243,92,110,0
325.10196,326.60556,77,80,0
326.61713,326.88333,70,80,0
326.8949,327.1611,72,80,0
327.17267,327.43887,73,80,0
327.45047,327.99445,67,80,0
328.006,328.82776,75,80,0
328.83936,329.10556,73,82,0
329.11713,329.38333,72,85,0
329.3949,329.6611,84,88,0
329.67267,329.93887,82,91,0
329.95047,330.21664,79,94,0
330.22824,330.49445,82,96,0
330.506,330.77222,80,99,0
330.78378,331.05,84,102,0
331.06155,331.32776,80,105,0
331.33936,331.60556,75,108,0
331.61713,331.88333,76,110,0
331.8949,333.34164,77,80,0
333.28378,333.55,70,80,0
333.56155,333.82776,72,80,0
333.83936,334.10556,73,80,0
334.11713,334.74213,67,80,0
334.75543,335.4898,75,80,0
335.50543,336.69293,72,80,0
335.50543,336.69293,68,80,0
335.50543,336.69293,63,80,0
336.7054,337.2494,68,90,0
337.261,337.80496,65,95,0
336.7054,338.40402,73,90,0
337.81653,338.40402,70,100,0
338.41653,339.1509,73,105,0
338.41653,339.1509,67,105,0
338.41653,339.1509,64,105,0
339.16653,340.6509,64,110,0
339.16653,342.1509,73,110,0
339.16653,342.1509,67,110,0
340.66653,342.1509,63,103,0
342.16653,343.3905,72,80,0
342.16653,343.3905,68,80,0
342.16653,343.3905,63,80,0
344.66653,348.3905,72,80,0
344.66653,348.3905,68,80,0
344.66653,348.3905,63,80,0
358.41653,359.6405,68,1,0
0.0,1.4895834,44,80,0
0.0,1.4895834,51,80,0
1.5,1.9895834,51,80,0
1.5,1.9895834,48,80,0
2.0,2.7395833,51,80,0
2.0,2.7395833,48,80,0
2.75,2.9895833,51,80,0
2.75,2.9895833,48,80,0
3.0,3.9895833,51,80,0
3.0,3.9895833,46,80,0
4.0,5.9895835,51,80,0
4.0,5.9895835,49,80,0
6.0,6.4895835,51,80,0
6.5,6.9895835,56,80,0
6.0,7.4895835,48,80,0
7.0,7.4895835,60,80,0
7.5,7.9895835,58,80,0
7.5,7.9895835,53,80,0
8.0,8.524553,60,80,0
8.0,8.524553,51,80,0
8.535714,9.100617,61,80,0
8.535714,9.100617,49,80,0
9.112637,10.192183,58,80,0
9.112637,10.192183,51,80,0
10.203546,10.737637,58,80,0
10.203546,10.737637,51,80,0
12.61759,12.878954,56,80,0
12.890317,13.14251,60,80,0
12.890317,13.14251,63,80,0
13.153475,13.393059,60,80,0
13.153475,13.393059,63,80,0
13.403475,13.643059,60,80,0
13.403475,13.643059,63,80,0
13.653475,13.874629,56,80,0
13.884244,14.105397,60,80,0
13.884244,14.105397,63,80,0
14.115013,14.336166,60,80,0
14.115013,14.336166,63,80,0
14.345782,14.566936,60,80,0
14.345782,14.566936,63,80,0
14.576551,14.797705,56,80,0
14.80732,15.028474,60,80,0
14.80732,15.028474,63,80,0
15.038089,15.259243,60,80,0
15.038089,15.259243,63,80,0
15.268858,15.490011,60,80,0
15.268858,15.490011,63,80,0
15.499627,15.72078,58,80,0
15.730396,15.95155,61,80,0
15.730396,15.95155,63,80,0
15.961165,16.182318,61,80,0
15.961165,16.182318,63,80,0
16.191935,16.413088,61,80,0
16.191935,16.413088,63,80,0
16.422703,16.643856,58,80,0
16.653473,16.874626,61,80,0
16.653473,16.874626,63,80,0
16.884241,17.105394,61,80,0
16.884241,17.105394,63,80,0
17.11501,17.336164,61,80,0
17.11501,17.336164,63,80,0
17.34578,17.566933,58,80,0
17.576548,17.7977,61,80,0
17.576548,17.7977,63,80,0
17.807318,18.028471,61,80,0
17.807318,18.028471,63,80,0
18.038086,18.25924,61,80,0
18.038086,18.25924,63,80,0
18.268854,18.49001,61,80,0
18.499624,18.720778,63,80,0
18.499624,18.720778,67,80,0
18.499624,18.720778,70,80,0
18.730392,18.951546,63,80,0
18.730392,18.951546,67,80,0
18.730392,18.951546,70,80,0
18.961163,19.182316,63,80,0
18.961163,19.182316,67,80,0
18.961163,19.182316,70,80,0
19.19193,19.413084,61,80,0
19.4227,19.643854,63,80,0
19.4227,19.643854,67,80,0
19.4227,19.643854,70,80,0
19.65347,19.874622,63,80,0
19.65347,19.874622,67,80,0
19.65347,19.874622,70,80,0
19.884237,20.105392,63,80,0
19.884237,20.105392,67,80,0
19.884237,20.105392,70,80,0
20.115007,20.33616,61,80,0
20.345776,20.566929,63,80,0
20.345776,20.566929,67,80,0
20.345776,20.566929,70,80,0
20.576546,20.797699,63,80,0
20.576546,20.797699,67,80,0
20.576546,20.797699,70,80,0
20.807314,21.028467,63,80,0
20.807314,21.028467,67,80,0
20.807314,21.028467,70,80,0
21.038082,21.259237,60,80,0
21.268852,21.490005,63,80,0
21.268852,21.490005,68,80,0
21.49962,21.720774,63,80,0
21.49962,21.720774,68,80,0
21.73039,21.951544,63,80,0
21.73039,21.951544,68,80,0
21.961159,22.182312,60,80,0
22.191929,22.413082,63,80,0
22.191929,22.413082,68,80,0
22.422697,22.64385,63,80,0
22.422697,22.64385,68,80,0
22.653465,22.87462,63,80,0
22.653465,22.87462,68,80,0
22.884235,23.105389,60,80,0
23.115004,23.336157,63,80,0
23.115004,23.336157,68,80,0
23.345774,23.566927,63,80,0
23.345774,23.566927,68,80,0
23.576542,23.797695,63,80,0
23.576542,23.797695,68,80,0
23.80731,24.028465,66,80,0
24.03808,24.259233,68,81,0
24.03808,24.259233,72,81,0
24.03808,24.259233,75,81,0
24.268848,24.490002,68,82,0
24.268848,24.490002,75,82,0
24.268848,24.490002,72,82,0
24.499619,24.720772,68,83,0
24.499619,24.720772,72,83,0
24.499619,24.720772,75,83,0
24.730387,24.95154,66,85,0
24.961157,25.18231,68,86,0
24.961157,25.18231,72,86,0
24.961157,25.18231,75,86,0
25.191925,25.413078,68,87,0
25.191925,25.413078,75,87,0
25.191925,25.413078,72,87,0
25.422693,25.643848,68,89,0
25.422693,25.643848,72,89,0
25.422693,25.643848,75,89,0
25.653463,25.874617,66,90,0
25.884232,26.105385,68,91,0
25.884232,26.105385,72,91,0
25.884232,26.105385,75,91,0
26.115002,26.336155,68,93,0
26.115002,26.336155,75,93,0
26.115002,26.336155,72,93,0
26.34577,26.566923,68,94,0
26.34577,26.566923,72,94,0
26.34577,26.566923,75,94,0
26.576538,26.797693,65,95,0
26.807308,27.028461,68,96,0
26.807308,27.028461,73,96,0
27.038076,27.259232,68,98,0
27.038076,27.259232,73,98,0
27.268847,27.49,68,99,0
27.268847,27.49,73,99,0
27.499615,27.720768,65,100,0
27.730385,27.951538,68,102,0
27.730385,27.951538,73,102,0
27.961153,28.182306,68,103,0
27.961153,28.182306,73,103,0
28.191921,28.413076,68,104,0
28.191921,28.413076,73,104,0
28.422691,28.643845,63,106,0
28.65346,28.874613,68,107,0
28.65346,28.874613,72,107,0
28.88423,29.105383,61,108,0
29.114998,29.336151,68,109,0
29.114998,29.336151,70,109,0
29.345766,29.566921,63,110,0
29.576536,29.79769,68,109,0
29.576536,29.79769,72,109,0
29.807304,30.02846,68,107,0
29.807304,30.02846,72,107,0
30.038074,30.259228,68,105,0
30.038074,30.259228,72,105,0
30.268843,30.489996,63,103,0
30.499613,30.720766,68,101,0
30.499613,30.720766,72,101,0
30.730381,30.969965,68,100,0
30.730381,30.969965,72,100,0
30.980381,31.219965,68,98,0
30.980381,31.219965,72,98,0
31.230381,31.469965,63,96,0
31.480381,31.719965,70,94,0
31.480381,31.719965,73,94,0
31.730381,31.987078,70,92,0
31.730381,31.987078,73,92,0
31.998238,32.297718,70,91,0
31.998238,32.297718,73,91,0
32.310738,32.80032,68,80,0
32.310738,32.80032,72,80,0
34.953594,35.373234,46,80,0
34.953594,35.373234,39,80,0
34.953594,35.373234,34,80,0
35.810734,36.230377,46,80,0
35.810734,36.230377,39,80,0
35.810734,36.230377,34,80,0
36.667877,37.08752,46,80,0
36.667877,37.08752,39,80,0
36.667877,37.08752,34,80,0
37.52502,37.94466,48,80,0
37.52502,37.94466,39,80,0
37.52502,37.94466,36,80,0
40.096443,40.516087,43,80,0
40.096443,40.516087,31,80,0
40.096443,40.516087,39,80,0
40.953587,41.37323,43,82,0
40.953587,41.37323,31,82,0
40.953587,41.37323,39,82,0
41.81073,42.23037,43,85,0
41.81073,42.23037,31,85,0
41.81073,42.23037,39,85,0
42.66787,43.087513,44,87,0
42.66787,43.087513,39,87,0
42.66787,43.087513,32,87,0
45.239296,45.65894,41,95,0
45.239296,45.65894,29,95,0
46.09644,46.516083,53,98,0
46.09644,46.516083,46,98,0
46.09644,46.516083,41,98,0
46.953583,47.373222,51,100,0
46.953583,47.373222,46,100,0
46.953583,47.373222,39,100,0
47.810722,48.230366,50,103,0
47.810722,48.230366,46,103,0
47.810722,48.230366,38,103,0
48.667866,49.08751,62,106,0
48.667866,49.08751,58,106,0
48.667866,49.08751,50,106,0
49.525005,49.94465,61,108,0
49.525005,49.94465,51,108,0
49.525005,49.94465,49,108,0
50.38215,50.801792,60,110,0
50.38215,50.801792,51,110,0
50.38215,50.801792,48,110,0
50.81072,51.230362,59,110,0
50.81072,51.230362,51,110,0
50.81072,51.230362,47,110,0
51.239292,51.68437,71,110,0
51.239292,51.68437,63,110,0
51.239292,51.68437,59,110,0
51.693836,52.167625,70,110,0
51.693836,52.167625,63,110,0
51.693836,52.167625,58,110,0
52.177708,52.70226,68,110,0
52.177708,52.70226,63,110,0
52.177708,52.70226,56,110,0
52.71342,53.47514,67,110,0
52.71342,53.47514,63,110,0
52.71342,53.47514,55,110,0
53.780643,54.02849,80,80,0
54.039265,54.80435,68,80,0
54.81513,55.062973,79,80,0
55.07375,55.838833,67,80,0
55.84961,56.097454,77,80,0
56.10823,56.873314,65,80,0
56.88409,57.131935,79,80,0
57.14271,57.9078,67,80,0
57.91857,58.166416,77,80,0
58.177193,58.68366,65,80,0
58.694435,58.94228,75,80,0
58.953056,59.2009,63,80,0
59.211678,59.459522,65,80,0
59.470295,59.71814,67,80,0
59.987537,60.235382,70,80,0
60.24616,60.494003,68,80,0
60.50478,60.752625,56,80,0
61.02202,61.269863,68,80,0
61.28064,61.528484,67,80,0
61.53926,61.787106,55,80,0
62.039818,62.27167,67,80,0
62.28175,62.513607,65,80,0
62.523685,62.755543,66,80,0
63.01562,63.255203,68,80,0
63.26562,63.505203,67,80,0
63.51562,63.755203,55,80,0
64.02878,64.280975,67,80,0
64.29194,64.57944,65,80,0
64.591934,64.87944,53,80,0
64.89194,65.13152,63,80,0
64.89194,65.13152,55,80,0
65.14194,65.38152,62,82,0
65.14194,65.38152,56,82,0
65.39194,65.61309,63,84,0
65.39194,65.61309,55,84,0
65.6227,65.84386,62,86,0
65.6227,65.84386,56,86,0
65.85348,66.76694,63,88,0
65.85348,66.76694,55,88,0
66.77655,67.69001,62,96,0
66.77655,67.69001,56,96,0
67.69963,67.920784,63,104,0
67.69963,67.920784,55,104,0
67.9304,68.15155,60,106,0
67.9304,68.15155,53,106,0
68.16116,68.40075,63,108,0
68.16116,68.40075,55,108,0
68.41116,68.71065,60,110,0
68.41116,68.71065,53,110,0
68.72366,69.96065,63,110,0
68.72366,69.96065,58,110,0
68.72366,69.96065,55,110,0
69.97366,70.19827,53,80,0
70.09085,70.31546,55,80,0
70.20804,70.43265,53,80,0
70.325226,70.549835,55,81,0
70.44241,70.66702,53,81,0
70.5596,70.78421,55,82,0
70.67679,70.9014,53,82,0
70.793976,71.018585,55,83,0
70.91116,71.13577,51,83,0
71.02835,71.25296,53,84,0
71.14554,71.37015,51,84,0
71.262726,71.487335,53,85,0
71.37991,71.60452,51,85,0
71.4971,71.72171,53,86,0
71.61429,71.8389,51,86,0
71.731476,71.8389,53,87,0
71.84866,71.99515,50,87,0
71.92679,72.07327,51,88,0
72.00491,72.1514,50,88,0
72.08304,72.22952,51,88,0
72.16116,72.30765,50,89,0
72.23929,72.38577,51,89,0
72.31741,72.4639,50,89,0
72.39554,72.54202,51,89,0
72.47366,72.62015,50,90,0
72.55179,72.69827,51,90,0
72.62991,72.7764,50,90,0
72.70804,72.85452,51,91,0
72.78616,72.93265,48,91,0
72.86429,73.01077,50,91,0
72.94241,73.0889,48,92,0
73.02054,73.16702,50,92,0
73.09866,73.24515,48,92,0
73.17679,73.32327,50,93,0
73.25491,73.4014,48,93,0
73.33304,73.47952,50,93,0
73.41116,73.55765,48,94,0
73.48929,73.63577,50,94,0
73.56741,73.7139,48,94,0
73.64554,73.79202,50,95,0
73.72366,73.87015,46,95,0
73.80179,73.94827,48,95,0
73.87991,74.0264,46,96,0
73.95804,74.10452,48,96,0
74.03616,74.18265,46,96,0
74.11429,74.26077,48,97,0
74.19241,74.3389,46,97,0
74.27054,74.41702,48,97,0
74.34866,74.49515,46,98,0
74.42679,74.57327,48,98,0
74.50491,74.6514,46,98,0
74.58304,74.72952,48,99,0
74.66116,74.80765,44,99,0
74.73929,74.88577,46,99,0
74.81741,74.9639,44,99,0
74.89554,75.04202,46,100,0
74.97366,75.12015,44,100,0
75.05179,75.19827,46,100,0
75.12991,75.2764,44,101,0
75.20804,75.35452,46,101,0
75.28616,75.43265,44,101,0
75.36429,75.51077,46,102,0
75.44241,75.5889,44,102,0
75.52054,75.66702,46,102,0
75.59866,75.74515,44,103,0
75.67679,75.82327,46,103,0
75.75491,75.9014,44,103,0
75.83304,75.97952,46,104,0
75.91116,76.05765,44,104,0
75.98929,76.13577,46,104,0
76.06741,76.2139,44,105,0
76.14554,76.29202,46,105,0
76.22366,76.37015,44,105,0
76.30179,76.44827,46,106,0
76.37991,76.5264,44,106,0
76.45804,76.60452,46,106,0
76.53616,76.68265,44,107,0
76.61429,76.76077,46,107,0
76.69241,76.8389,44,107,0
76.77054,76.87796,43,108,0
76.887726,76.99515,44,108,0
77.00491,77.112335,46,109,0
77.1221,77.22952,44,109,0
77.23929,77.34671,43,109,0
77.356476,77.4639,41,110,0
77.47366,77.69827,39,100,0
77.70804,77.93265,55,100,0
77.70804,77.93265,51,100,0
77.94241,78.16702,55,100,0
77.94241,78.16702,51,100,0
78.17679,78.4014,55,100,0
78.17679,78.4014,51,100,0
78.17679,78.4014,50,100,0
78.41116,78.63577,55,100,0
78.41116,78.63577,51,100,0
78.41116,78.63577,50,100,0
78.64554,78.87015,55,100,0
78.64554,78.87015,51,100,0
78.64554,78.87015,48,100,0
78.87991,79.10452,55,100,0
78.87991,79.10452,51,100,0
78.87991,79.10452,48,100,0
79.11429,79.3389,55,100,0
79.11429,79.3389,51,100,0
79.11429,79.3389,46,100,0
79.34866,79.57327,55,100,0
79.34866,79.57327,51,100,0
79.34866,79.57327,46,100,0
79.58304,79.80765,55,100,0
79.58304,79.80765,51,100,0
79.58304,79.80765,44,100,0
79.81741,80.04202,55,100,0
79.81741,80.04202,51,100,0
79.81741,80.04202,43,100,0
80.05179,80.2764,55,100,0
80.05179,80.2764,51,100,0
80.05179,80.2764,43,100,0
80.28616,80.51077,43,100,0
80.52054,80.74515,55,100,0
80.52054,80.74515,51,100,0
80.75491,80.97952,55,100,0
80.75491,80.97952,51,100,0
80.98929,81.2139,55,100,0
80.98929,81.2139,51,100,0
80.98929,81.2139,50,100,0
81.22366,81.44827,55,100,0
81.22366,81.44827,51,100,0
81.22366,81.44827,50,100,0
81.45804,81.68265,55,100,0
81.45804,81.68265,51,100,0
81.45804,81.68265,48,100,0
81.69241,81.91702,55,100,0
81.69241,81.91702,51,100,0
81.69241,81.91702,48,100,0
81.92679,82.1514,55,100,0
81.92679,82.1514,51,100,0
81.92679,82.1514,46,100,0
82.16116,82.38577,55,100,0
82.16116,82.38577,51,100,0
82.16116,82.38577,46,100,0
82.39554,82.62015,55,100,0
82.39554,82.62015,51,100,0
82.39554,82.62015,44,100,0
82.62991,82.85452,55,100,0
82.62991,82.85452,51,100,0
82.62991,82.85452,43,100,0
82.86429,83.0889,55,100,0
82.86429,83.0889,51,100,0
82.86429,83.0889,43,100,0
83.09866,83.32327,43,100,0
83.33304,83.55765,55,100,0
83.33304,83.55765,51,100,0
83.56741,83.79202,55,100,0
83.56741,83.79202,51,100,0
83.80179,84.0264,55,100,0
83.80179,84.0264,51,100,0
83.80179,84.0264,50,100,0
84.03616,84.26077,55,100,0
84.03616,84.26077,51,100,0
84.03616,84.26077,50,100,0
84.27054,84.49515,55,100,0
84.27054,84.49515,51,100,0
84.27054,84.49515,48,100,0
84.50491,84.72952,55,100,0
84.50491,84.72952,51,100,0
84.50491,84.72952,48,100,0
84.73929,84.9639,55,100,0
84.73929,84.9639,51,100,0
84.73929,84.9639,46,100,0
84.97366,85.20184,55,100,0
84.97366,85.20184,51,100,0
84.97366,85.20184,46,100,0
85.21176,85.47797,55,100,0
85.21176,85.47797,51,100,0
85.21176,85.47797,46,100,0
85.48954,85.80204,55,100,0
85.48954,85.80204,51,100,0
85.48954,85.80204,43,100,0
85.81563,86.26485,55,100,0
85.81563,86.26485,51,100,0
85.81563,86.26485,43,100,0
86.28438,87.27396,53,100,0
86.28438,87.27396,51,100,0
86.28438,87.27396,44,100,0
88.03438,88.27396,53,80,0
88.03438,88.27396,51,80,0
88.03438,88.27396,45,80,0
88.28438,88.77396,53,80,0
88.28438,88.77396,50,80,0
88.28438,88.77396,46,80,0
89.03438,89.27396,50,80,0
89.03438,89.27396,46,80,0
89.28438,90.27396,48,80,0
89.28438,90.27396,51,80,0
90.28438,91.27396,50,80,0
90.28438,91.27396,59,80,0
91.28438,91.54107,58,80,0
91.28438,91.54107,51,80,0
91.55223,91.80893,63,80,0
91.55223,91.80893,67,80,0
91.82009,92.10759,65,80,0
91.82009,92.10759,68,80,0
92.12009,92.47946,67,80,0
92.12009,92.47946,70,80,0
92.49509,92.98467,72,80,0
92.49509,92.98467,68,80,0
94.24509,94.48467,53,80,0
94.24509,94.48467,51,80,0
94.24509,94.48467,45,80,0
94.49509,95.019646,53,80,0
94.49509,95.019646,46,80,0
95.29866,95.658035,56,80,0
95.29866,95.658035,46,80,0
95.67366,96.163246,55,80,0
96.17366,96.413246,56,80,0
96.42366,96.663246,55,80,0
95.67366,96.913246,51,80,0
96.67366,96.913246,53,80,0
96.92366,97.163246,51,80,0
97.17366,97.413246,50,80,0
97.42366,97.663246,51,80,0
97.67366,98.663246,53,80,0
97.67366,98.663246,46,80,0
98.67366,98.913246,51,80,0
98.92366,99.163246,43,80,0
99.17366,99.413246,44,80,0
99.42366,99.663246,43,80,0
98.67366,99.913246,39,80,0
99.67366,99.913246,41,80,0
99.92366,100.163246,39,80,0
100.17366,100.413246,38,80,0
100.42366,100.663246,39,80,0
100.67366,101.663246,41,80,0
100.67366,101.663246,34,80,0
101.67366,102.663246,43,80,0
101.67366,102.663246,39,80,0
102.67366,105.663246,39,80,0
102.67366,105.663246,43,80,0
102.67366,105.663246,46,80,0
102.67366,105.663246,51,80,0
105.67366,106.663246,63,80,0
105.67366,106.663246,58,80,0
105.67366,106.663246,55,80,0
105.67366,106.663246,51,80,0
106.67366,107.89099,63,80,0
106.67366,107.89099,58,80,0
106.67366,107.89099,55,80,0
106.67366,107.89099,51,80,0
107.90662,108.896194,63,80,0
107.90662,108.896194,58,80,0
107.90662,108.896194,55,80,0
107.90662,108.896194,51,80,0
108.90662,110.896194,39,80,0
109.90662,110.896194,51,80,0
110.90662,114.21502,37,80,0
111.90662,114.21502,49,80,0
114.22804,114.46763,48,80,0
114.22804,114.46763,36,80,0
114.47804,114.706215,53,80,0
114.47804,114.706215,56,80,0
114.71614,114.937294,53,81,0
114.71614,114.937294,56,81,0
114.94691,115.16806,53,81,0
114.94691,115.16806,56,81,0
115.17767,115.39883,48,82,0
115.40845,115.6296,53,83,0
115.40845,115.6296,56,83,0
115.63921,115.86037,53,83,0
115.63921,115.86037,56,83,0
115.86998,116.09113,53,84,0
115.86998,116.09113,56,84,0
116.10075,116.32191,48,85,0
116.33152,116.55267,53,85,0
116.33152,116.55267,56,85,0
116.56229,116.78344,53,86,0
116.56229,116.78344,56,86,0
116.79306,117.01421,53,87,0
116.79306,117.01421,56,87,0
117.02383,117.24498,48,87,0
117.25459,117.475746,55,88,0
117.25459,117.475746,58,88,0
117.48537,117.70652,55,89,0
117.48537,117.70652,58,89,0
117.71613,117.93729,55,89,0
117.71613,117.93729,58,89,0
117.94691,118.16806,48,90,0
118.17767,118.39883,55,91,0
118.17767,118.39883,58,91,0
118.40844,118.62959,55,91,0
118.40844,118.62959,58,91,0
118.63921,118.86037,55,92,0
118.63921,118.86037,58,92,0
118.86998,119.09113,48,93,0
119.100746,119.3219,55,93,0
119.100746,119.3219,58,93,0
119.33152,119.55267,55,94,0
119.33152,119.55267,58,94,0
119.56229,119.78344,55,95,0
119.56229,119.78344,58,95,0
119.79305,120.014206,48,95,0
120.02383,120.24498,52,96,0
120.02383,120.24498,55,96,0
120.25459,120.475746,55,97,0
120.25459,120.475746,52,97,0
120.48536,120.70651,55,97,0
120.48536,120.70651,52,97,0
120.71613,120.93729,48,98,0
120.9469,121.16805,52,99,0
120.9469,121.16805,55,99,0
121.177666,121.39883,55,99,0
121.177666,121.39883,52,99,0
121.40844,121.62959,55,100,0
121.40844,121.62959,52,100,0
121.639206,121.86036,48,101,0
121.86998,122.09113,52,101,0
121.86998,122.09113,55,101,0
122.100746,122.3219,55,102,0
122.100746,122.3219,52,102,0
122.33151,122.552666,55,103,0
122.33151,122.552666,52,103,0
122.56229,122.78344,48,103,0
122.79305,123.014206,53,104,0
122.79305,123.014206,56,104,0
123.02382,123.24497,53,105,0
123.02382,123.24497,56,105,0
123.25459,123.475746,53,105,0
123.25459,123.475746,56,105,0
123.48536,123.71353,48,106,0
123.72346,123.95163,53,107,0
123.72346,123.95163,56,107,0
123.96155,124.18972,53,107,0
123.96155,124.18972,56,107,0
124.199646,124.42782,53,108,0
124.199646,124.42782,56,108,0
124.43774,124.67732,48,108,0
124.68774,124.92732,53,109,0
124.68774,124.92732,56,109,0
124.93774,125.194435,53,110,0
124.93774,125.194435,56,110,0
125.2056,125.493095,53,110,0
125.2056,125.493095,56,110,0
125.5056,125.75344,41,80,0
125.76421,125.98882,48,80,0
125.99859,126.2232,50,80,0
126.23296,126.45757,52,80,0
126.46734,126.69195,53,80,0
126.70171,126.92632,55,80,0
126.93609,127.1607,56,80,0
127.17046,127.39507,58,80,0
127.40484,127.62945,60,80,0
127.63921,127.86382,56,80,0
127.87359,128.0982,55,80,0
128.10797,128.33258,53,80,0
128.34235,128.56696,48,80,0
128.57672,128.80133,35,80,0
128.8111,129.0357,36,80,0
129.04547,129.27008,35,80,0
129.27985,129.50446,36,80,0
129.51422,129.73883,40,80,0
129.7486,129.9732,43,80,0
129.98297,130.20758,47,80,0
130.21735,130.44196,48,80,0
130.45172,130.67633,46,80,0
130.6861,130.9107,44,80,0
130.92047,131.14508,43,80,0
131.15485,131.37946,41,80,0
131.38922,131.61383,48,80,0
131.6236,131.8482,50,80,0
131.85797,132.08258,52,80,0
132.09235,132.31696,53,80,0
132.32672,132.55133,55,80,0
132.5611,132.7857,56,80,0
132.79547,133.02008,58,80,0
133.02985,133.25446,60,80,0
133.26422,133.48883,56,80,0
133.4986,133.7232,55,80,0
133.73297,133.95758,53,80,0
133.96735,134.19196,51,80,0
134.20172,134.42633,39,80,0
134.4361,134.6607,41,80,0
134.67047,134.89508,42,80,0
134.90485,135.12946,44,80,0
135.13922,135.36383,45,80,0
135.3736,135.60545,46,80,0
135.61552,135.84738,44,80,0
135.85747,136.09705,42,80,0
136.10747,136.34705,41,80,0
136.35747,136.61415,39,80,0
136.62532,136.9248,44,80,0
136.93782,137.19452,37,80,0
137.20567,137.43028,49,80,0
137.44005,137.66466,51,80,0
137.67442,137.89903,53,80,0
137.9088,138.1334,54,80,0
138.14317,138.36778,56,80,0
138.37755,138.60216,58,80,0
138.61192,138.83653,56,80,0
138.8463,139.0709,54,80,0
139.08067,139.30528,53,80,0
139.31505,139.53966,51,80,0
139.54942,139.77403,49,80,0
139.7838,140.0084,44,80,0
140.01817,140.24278,31,80,0
140.25255,140.47716,32,80,0
140.48692,140.71153,31,80,0
140.7213,140.9459,32,80,0
140.95567,141.18028,34,80,0
141.19005,141.41466,36,80,0
141.42442,141.64903,37,80,0
141.6588,141.8834,39,80,0
141.89317,142.11778,41,80,0
142.12755,142.35216,42,80,0
142.36192,142.58653,44,80,0
142.5963,142.8209,37,80,0
142.83067,143.05528,45,80,0
143.06505,143.28966,46,80,0
143.29942,143.52403,45,80,0
143.5338,143.7584,46,80,0
143.76817,143.99278,48,80,0
144.00255,144.22716,49,80,0
144.23692,144.46153,51,80,0
144.4713,144.6959,53,80,0
144.70567,144.93028,49,80,0
144.94005,145.16466,48,80,0
145.17442,145.39903,46,80,0
145.4088,145.6334,48,80,0
145.64317,145.86778,36,80,0
145.87755,146.10216,37,80,0
146.11192,146.33653,39,80,0
146.3463,146.5709,41,80,0
146.58067,146.80528,42,80,0
146.81505,147.0469,41,80,0
147.05699,147.28883,40,80,0
147.29892,147.5385,41,80,0
147.54892,147.7885,29,80,0
147.79892,148.05562,31,80,0
148.06677,148.35428,33,80,0
148.36678,148.60637,34,80,0
148.61678,148.84138,41,80,0
148.85115,149.07576,43,80,0
149.08553,149.31013,45,80,0
149.3199,149.54451,46,80,0
149.55428,149.77888,48,80,0
149.78865,150.01326,49,80,0
150.02303,150.24763,51,80,0
150.2574,150.48201,53,80,0
150.49178,150.71638,49,80,0
150.72615,150.95076,48,80,0
150.96053,151.18513,46,80,0
151.1949,151.41951,44,80,0
151.42928,151.65388,29,80,0
151.66365,151.88826,31,80,0
151.89803,152.12263,33,80,0
152.1324,152.35701,34,80,0
152.36678,152.59138,36,80,0
152.60115,152.82576,37,80,0
152.83553,153.06013,39,80,0
153.0699,153.29451,41,80,0
153.30428,153.52888,39,80,0
153.53865,153.76326,37,80,0
153.77303,153.99763,36,80,0
154.0074,154.23201,34,80,0
154.24178,154.46638,45,80,0
154.47615,154.70076,46,80,0
154.71053,154.93513,48,80,0
154.9449,155.16951,49,80,0
155.17928,155.40388,51,80,0
155.41365,155.64551,53,80,0
155.6556,155.88745,51,80,0
155.89752,156.1371,49,80,0
156.14752,156.3871,48,80,0
156.39752,156.65422,46,80,0
156.66537,156.95288,44,80,0
156.96538,157.20497,43,80,0
157.21538,157.43999,38,80,0
157.44975,157.67436,39,80,0
157.68413,157.90874,41,80,0
157.9185,158.14311,43,80,0
158.15288,158.37749,44,81,0
158.38725,158.61186,46,82,0
158.62163,158.84624,44,83,0
158.856,159.0956,43,85,0
159.106,159.3456,41,86,0
159.356,159.47878,39,87,0
159.48993,159.6127,37,88,0
159.62387,159.76137,36,89,0
159.77386,159.91136,34,89,0
159.92386,160.03845,32,80,0
160.04886,160.16345,39,80,0
160.11136,160.22269,36,80,0
160.29105,160.39847,39,80,0
160.40823,160.51566,44,80,0
160.52542,160.63284,51,80,0
160.64261,160.75003,48,80,0
160.7598,160.86722,51,80,0
160.87698,160.9844,44,80,0
160.99417,161.1016,51,80,0
161.11136,161.21878,48,80,0
161.22855,161.33597,51,80,0
161.34573,161.45316,56,80,0
161.46292,161.57034,51,80,0
161.58011,161.68753,48,80,0
161.6973,161.80472,51,80,0
161.81448,161.9219,48,80,0
161.93167,162.0391,56,80,0
162.04886,162.15628,51,80,0
162.16605,162.27347,56,80,0
162.28323,162.39066,60,80,0
162.40042,162.50784,56,80,0
162.51761,162.62503,51,80,0
162.6348,162.74222,56,80,0
162.75198,162.8594,46,80,0
162.86917,162.9766,55,80,0
162.98636,163.09378,51,80,0
163.10355,163.21097,55,80,0
163.22073,163.32816,58,80,0
163.33792,163.44534,55,80,0
163.45511,163.56253,51,80,0
163.5723,163.67972,55,80,0
163.68948,163.7969,49,80,0
163.80667,163.9141,55,80,0
163.92386,164.03128,51,80,0
164.04105,164.14847,55,80,0
164.15823,164.26566,58,80,0
164.27542,164.38284,55,80,0
164.39261,164.50003,51,80,0
164.5098,164.61722,55,80,0
164.62698,164.7344,49,80,0
164.74417,164.8516,55,80,0
164.86136,164.96878,51,80,0
164.97855,165.08597,55,80,0
165.09573,165.20316,58,80,0
165.21292,165.32034,55,80,0
165.33011,165.43753,51,80,0
165.4473,165.55472,55,80,0
165.56448,165.6719,48,80,0
165.68167,165.7891,56,80,0
165.79886,165.90628,51,80,0
165.91605,166.02347,56,80,0
166.03323,166.14066,60,80,0
166.15042,166.25784,56,80,0
166.26761,166.37503,51,80,0
166.3848,166.49222,56,80,0
166.50198,166.6094,48,80,0
166.61917,166.7266,60,80,0
166.73636,166.84378,56,80,0
166.85355,166.96097,60,80,0
166.97073,167.07816,47,80,0
167.08792,167.19534,59,80,0
167.20511,167.31253,56,80,0
167.3223,167.42972,59,80,0
167.43948,167.5469,48,80,0
167.55667,167.6641,60,80,0
167.67386,167.78128,56,80,0
167.79105,167.89847,60,80,0
167.90823,168.01566,49,80,0
168.02542,168.13284,61,80,0
168.14261,168.25003,56,80,0
168.2598,168.36722,61,80,0
168.37698,168.4844,51,80,0
168.49417,168.6016,63,80,0
168.61136,168.71878,55,80,0
168.72855,168.83597,63,80,0
168.84573,168.95316,53,80,0
168.96292,169.07034,65,80,0
169.08011,169.18753,56,80,0
169.1973,169.30472,65,80,0
169.31448,169.4219,55,80,0
169.43167,169.5391,67,80,0
169.54886,169.65628,58,80,0
169.66605,169.77347,67,80,0
169.78323,169.89783,51,80,0
169.90823,170.02283,63,80,0
170.03323,170.14783,55,80,0
170.15823,170.27283,63,80,0
170.28323,170.406,53,80,0
170.41716,170.53993,65,80,0
170.5511,170.67386,56,80,0
170.68503,170.80779,65,80,0
170.81895,170.95645,55,80,0
170.96895,171.10645,67,80,0
171.11896,171.29083,58,80,0
171.30646,171.47833,67,80,0
171.49396,173.01816,63,80,0
171.49396,173.01816,60,80,0
173.02876,173.52664,60,87,0
173.02876,173.52664,56,87,0
173.53723,174.28935,56,90,0
173.53723,174.28935,60,90,0
174.29994,174.5436,60,94,0
174.29994,174.5436,56,94,0
174.55418,175.56053,65,95,0
174.55418,175.56053,61,95,0
175.57114,177.60945,61,101,0
175.57114,177.60945,58,101,0
177.62195,178.89127,66,110,0
177.62195,178.89127,63,110,0
178.90376,180.09126,63,104,0
178.90376,181.23672,60,104,0
180.10378,181.23672,63,97,0
180.10378,181.23672,68,97,0
181.24922,181.51059,61,80,0
181.52196,181.76154,65,80,0
181.52196,181.76154,68,80,0
181.77196,181.9931,65,80,0
181.77196,181.9931,68,80,0
182.00272,182.22388,65,80,0
182.00272,182.22388,68,80,0
182.23349,182.45464,61,80,0
182.46426,182.68541,65,80,0
182.46426,182.68541,68,80,0
182.69502,182.91618,65,80,0
182.69502,182.91618,68,80,0
182.9258,183.14694,65,80,0
182.9258,183.14694,68,80,0
183.15657,183.37772,61,80,0
183.38733,183.60849,65,80,0
183.38733,183.60849,68,80,0
183.6181,183.83925,65,80,0
183.6181,183.83925,68,80,0
183.84888,184.07002,65,80,0
183.84888,184.07002,68,80,0
184.07964,184.3008,63,80,0
184.31041,184.53156,66,80,0
184.31041,184.53156,68,80,0
184.54118,184.76233,66,80,0
184.54118,184.76233,68,80,0
184.77194,184.9931,66,80,0
184.77194,184.9931,68,80,0
185.00272,185.22388,63,80,0
185.23349,185.45464,66,80,0
185.23349,185.45464,68,80,0
185.46425,185.68541,66,80,0
185.46425,185.68541,68,80,0
185.69502,185.91618,66,80,0
185.69502,185.91618,68,80,0
185.9258,186.14694,63,80,0
186.15656,186.37772,66,80,0
186.15656,186.37772,68,80,0
186.38733,186.60849,66,80,0
186.38733,186.60849,68,80,0
186.6181,186.83925,66,80,0
186.6181,186.83925,68,80,0
186.84886,187.07002,66,80,0
187.07964,187.3008,68,80,0
187.07964,187.3008,72,80,0
187.07964,187.3008,75,80,0
187.31041,187.53156,68,80,0
187.31041,187.53156,72,80,0
187.31041,187.53156,75,80,0
187.54117,187.76233,68,80,0
187.54117,187.76233,72,80,0
187.54117,187.76233,75,80,0
187.77194,187.9931,66,80,0
188.00272,188.22386,68,80,0
188.00272,188.22386,72,80,0
188.00272,188.22386,75,80,0
188.23347,188.45464,68,80,0
188.23347,188.45464,72,80,0
188.23347,188.45464,75,80,0
188.46425,188.68541,68,80,0
188.46425,188.68541,72,80,0
188.46425,188.68541,75,80,0
188.69502,188.91617,66,80,0
188.9258,189.14694,68,81,0
188.9258,189.14694,72,81,0
188.9258,189.14694,75,81,0
189.15656,189.37772,68,82,0
189.15656,189.37772,72,82,0
189.15656,189.37772,75,82,0
189.38733,189.60847,68,84,0
189.38733,189.60847,72,84,0
189.38733,189.60847,75,84,0
189.6181,189.83925,65,85,0
189.84886,190.07002,68,86,0
189.84886,190.07002,73,86,0
190.07964,190.30078,68,88,0
190.07964,190.30078,73,88,0
190.31041,190.53156,68,89,0
190.31041,190.53156,73,89,0
190.54117,190.76233,65,91,0
190.77194,190.99309,68,92,0
190.77194,190.99309,73,92,0
191.00272,191.22386,68,93,0
191.00272,191.22386,73,93,0
191.23347,191.45464,68,95,0
191.23347,191.45464,73,95,0
191.46425,191.6961,65,96,0
191.70618,191.93803,68,98,0
191.70618,191.93803,73,98,0
191.94812,192.21432,68,99,0
191.94812,192.21432,73,99,0
192.22589,192.52538,68,100,0
192.22589,192.52538,73,100,0
192.53839,192.83788,64,100,0
192.85089,193.10759,68,99,0
192.85089,193.10759,73,99,0
193.11876,193.35834,68,98,0
193.11876,193.35834,73,98,0
193.36876,193.59337,68,97,0
193.36876,193.59337,73,97,0
193.60313,193.82774,64,96,0
193.83751,194.06212,68,95,0
193.83751,194.06212,73,95,0
194.07188,194.2965,68,94,0
194.07188,194.2965,73,94,0
194.30626,194.53087,68,93,0
194.30626,194.53087,73,93,0
194.54063,194.76524,64,92,0
194.77501,194.99962,68,91,0
194.77501,194.99962,73,91,0
195.00938,195.234,68,89,0
195.00938,195.234,73,89,0
195.24376,195.46837,68,88,0
195.24376,195.46837,73,88,0
195.47813,195.70274,63,87,0
195.71251,195.93712,66,86,0
195.71251,195.93712,71,86,0
195.94688,196.1715,66,85,0
195.94688,196.1715,71,85,0
196.18126,196.40587,66,84,0
196.18126,196.40587,71,84,0
196.41563,196.64024,63,83,0
196.65001,196.87462,66,82,0
196.65001,196.87462,71,82,0
196.88438,197.109,66,81,0
196.88438,197.109,71,81,0
197.11876,197.34337,66,79,0
197.11876,197.34337,71,79,0
197.35313,197.57774,63,78,0
197.58751,197.81212,66,77,0
197.58751,197.81212,71,77,0
197.82188,198.0465,66,76,0
197.82188,198.0465,71,76,0
198.05626,198.28087,66,75,0
198.05626,198.28087,71,75,0
198.29063,198.51524,63,74,0
198.52501,198.74962,66,73,0
198.52501,198.74962,71,73,0
198.75938,198.984,66,72,0
198.75938,198.984,71,72,0
198.99376,199.21837,66,71,0
198.99376,199.21837,71,71,0
199.22813,199.45274,63,70,0
199.46251,199.68712,66,70,0
199.46251,199.68712,71,70,0
199.69688,199.9215,66,70,0
199.69688,199.9215,71,70,0
199.93126,200.15587,66,70,0
199.93126,200.15587,71,70,0
200.16563,200.40521,63,70,0
200.41563,200.65521,66,70,0
200.41563,200.65521,71,70,0
200.66563,200.94208,66,70,0
200.66563,200.94208,71,70,0
200.95409,201.31346,66,70,0
200.95409,201.31346,71,70,0
201.32909,201.73088,71,80,0
201.32909,201.73088,68,80,0
201.32909,201.73088,64,80,0
202.37099,202.55849,80,80,0
202.47813,202.67456,76,80,0
202.58527,202.79063,71,80,0
202.69241,202.85313,76,80,0
203.22813,203.43349,56,80,0
203.33527,203.52277,52,80,0
203.44241,203.62991,47,80,0
203.54956,203.74599,52,80,0
203.71027,203.99599,40,80,0
204.08527,204.50491,42,80,0
204.08527,204.50491,35,80,0
204.08527,204.50491,30,80,0
204.94241,205.36206,42,80,0
204.94241,205.36206,35,80,0
204.94241,205.36206,30,80,0
205.79955,206.2192,42,80,0
205.79955,206.2192,35,80,0
205.79955,206.2192,30,80,0
206.6567,207.07634,44,80,0
206.6567,207.07634,35,80,0
206.6567,207.07634,32,80,0
209.22812,209.64777,51,80,0
209.22812,209.64777,47,80,0
209.22812,209.64777,39,80,0
210.08527,210.5049,51,80,0
210.08527,210.5049,47,80,0
210.08527,210.5049,39,80,0
210.9424,211.36205,51,80,0
210.9424,211.36205,47,80,0
210.9424,211.36205,39,80,0
211.79955,212.2192,52,80,0
211.79955,212.2192,47,80,0
211.79955,212.2192,40,80,0
212.22812,212.64777,64,80,0
212.22812,212.64777,52,80,0
212.6567,213.07632,64,80,0
212.6567,213.07632,52,80,0
213.08527,213.5049,61,80,0
213.08527,213.5049,52,80,0
213.08527,213.5049,49,80,0
213.51382,213.93347,61,80,0
213.51382,213.93347,52,80,0
213.51382,213.93347,49,80,0
213.9424,214.36205,60,80,0
213.9424,214.36205,52,80,0
213.9424,214.36205,48,80,0
214.37097,214.83723,60,80,0
214.37097,214.83723,52,80,0
214.37097,214.83723,48,80,0
214.84717,215.31343,59,80,0
214.84717,215.31343,52,80,0
214.84717,215.31343,47,80,0
215.32335,215.78963,57,80,0
215.32335,215.78963,52,80,0
215.32335,215.78963,45,80,0
215.79955,216.26581,56,80,0
215.79955,216.26581,52,80,0
215.79955,216.26581,44,80,0
216.27573,216.76532,68,80,0
216.27573,216.76532,64,80,0
216.27573,216.76532,56,80,0
216.77573,217.50282,69,80,0
216.77573,217.50282,64,80,0
216.77573,217.50282,57,80,0
217.83615,218.09752,69,80,0
218.10887,218.84846,57,80,0
218.85887,219.09846,68,80,0
219.10887,219.84846,56,80,0
219.85887,220.09846,66,80,0
220.10887,220.84846,54,80,0
220.85887,221.09846,68,80,0
221.10887,221.83705,56,80,0
221.84697,222.07515,66,80,0
222.08507,222.6453,54,80,0
222.65779,223.14738,65,80,0
222.65779,223.14738,53,80,0
223.15779,223.89217,64,80,0
223.15779,223.89217,52,80,0
223.90779,225.50377,63,80,0
223.90779,225.50377,51,80,0
225.51494,226.03949,65,80,0
225.51494,226.03949,53,80,0
226.05064,226.30734,67,80,0
226.05064,226.30734,55,80,0
226.31851,226.57521,68,80,0
226.31851,226.57521,56,80,0
226.58636,226.86281,70,80,0
226.58636,226.86281,58,80,0
226.87483,227.2342,72,80,0
226.87483,227.2342,60,80,0
227.53828,227.7629,73,80,0
227.77266,228.46602,61,80,0
228.47578,228.7004,72,80,0
228.71016,229.40352,60,80,0
229.41328,229.6379,70,80,0
229.64766,230.34102,58,80,0
230.35078,230.5754,72,80,0
230.58516,231.27852,60,80,0
231.28828,231.5129,70,80,0
231.52266,231.98164,58,80,0
231.99141,232.21602,68,80,0
232.22578,232.4504,56,80,0
232.46016,232.68477,58,80,0
232.69453,232.91914,60,80,0
232.92891,233.15352,63,80,0
233.16328,233.3879,60,80,0
233.39766,233.62227,61,80,0
233.63203,233.85664,49,80,0
233.86641,234.09102,61,80,0
234.10078,234.3254,59,80,0
234.33516,234.55977,60,80,0
234.56953,234.79414,48,80,0
234.80391,235.02852,60,80,0
235.03828,235.2629,57,80,0
235.27266,235.49727,58,80,0
235.50703,235.73164,46,80,0
235.74141,235.96602,61,80,0
235.97578,236.2004,59,80,0
236.21016,236.43477,60,80,0
236.44453,236.66914,48,80,0
236.67891,236.9185,60,80,0
236.92891,237.1685,57,80,0
237.17891,237.45535,58,80,0
237.46738,237.79408,46,80,0
237.80829,238.08473,56,80,0
237.80829,238.08473,48,80,0
238.09674,238.37318,55,81,0
238.09674,238.37318,49,81,0
238.38521,238.66165,56,83,0
238.38521,238.66165,48,83,0
238.67366,238.9501,55,85,0
238.67366,238.9501,49,85,0
238.96213,240.10396,56,87,0
238.96213,240.10396,48,87,0
240.11597,241.2578,55,95,0
240.11597,241.2578,49,95,0
241.26982,241.54626,56,103,0
241.26982,241.54626,48,103,0
241.55829,241.83472,53,105,0
241.55829,241.83472,46,105,0
241.84674,242.14622,56,107,0
241.84674,242.14622,48,107,0
242.15924,242.51862,53,108,0
242.15924,242.51862,46,108,0
242.53424,243.7554,56,110,0
242.53424,243.7554,51,110,0
242.53424,243.7554,48,110,0
243.76501,243.90924,46,70,0
243.84193,243.98616,48,70,0
243.91885,244.0631,46,70,0
243.99579,244.14001,48,70,0
244.07271,244.21693,46,71,0
244.14963,244.29385,48,71,0
244.22655,244.37079,46,71,0
244.30347,244.44771,48,72,0
244.3804,244.52463,46,72,0
244.45732,244.60155,48,72,0
244.53424,244.67847,46,73,0
244.61116,244.7554,48,73,0
244.6881,244.83232,44,73,0
244.76501,244.90924,46,74,0
244.84193,244.98616,44,74,0
244.91885,245.0631,46,74,0
244.99577,245.14001,44,75,0
245.07271,245.21693,46,75,0
245.14963,245.29385,44,75,0
245.22655,245.37077,46,76,0
245.30347,245.44771,44,76,0
245.3804,245.52463,46,76,0
245.45732,245.60155,44,77,0
245.53424,245.67847,46,77,0
245.61116,245.7554,43,77,0
245.68808,245.83232,44,78,0
245.76501,245.90924,43,78,0
245.84193,245.98616,44,78,0
245.91885,246.06308,43,79,0
245.99577,246.14001,44,79,0
246.07271,246.21693,43,79,0
246.14963,246.29385,44,80,0
246.22655,246.37077,43,80,0
246.30347,246.44771,44,80,0
246.3804,246.52463,43,81,0
246.45732,246.60155,44,81,0
246.53424,246.67847,41,81,0
246.61116,246.7554,43,82,0
246.68808,246.83232,41,82,0
246.76501,246.90924,43,82,0
246.84193,246.98616,41,83,0
246.91885,247.06308,43,83,0
246.99577,247.14001,41,83,0
247.07271,247.21693,43,84,0
247.14963,247.29385,41,84,0
247.22655,247.37077,43,84,0
247.30347,247.44771,41,85,0
247.38039,247.52463,43,85,0
247.45732,247.60155,39,85,0
247.53424,247.67847,41,86,0
247.61116,247.75539,39,86,0
247.68808,247.83232,41,86,0
247.76501,247.90924,39,87,0
247.84193,247.98616,41,87,0
247.91885,248.06308,39,87,0
247.99577,248.14001,41,88,0
248.0727,248.21693,39,88,0
248.14963,248.29385,41,88,0
248.22655,248.37077,39,89,0
248.30347,248.4477,41,89,0
248.38039,248.52463,37,89,0
248.45732,248.60155,39,89,0
248.53424,248.67847,37,90,0
248.61116,248.75539,39,90,0
248.68808,248.83232,37,90,0
248.76501,248.90924,39,91,0
248.84193,248.98616,37,91,0
248.91885,249.06308,39,91,0
248.99577,249.14001,37,92,0
249.0727,249.21693,39,92,0
249.14963,249.29385,37,92,0
249.22655,249.37077,39,93,0
249.30347,249.4477,37,93,0
249.38039,249.52463,39,93,0
249.45732,249.60155,37,94,0
249.53424,249.67847,39,94,0
249.61116,249.75539,37,94,0
249.68808,249.83232,39,95,0
249.765,249.90924,37,95,0
249.84193,249.98616,39,95,0
249.91885,250.06308,37,96,0
249.99577,250.14,39,96,0
250.0727,250.21693,37,96,0
250.14963,250.29385,39,97,0
250.22655,250.37077,37,97,0
250.30347,250.4477,39,97,0
250.38039,250.52463,37,98,0
250.4573,250.56308,36,98,0
250.5727,250.67847,37,98,0
250.68808,250.79385,39,99,0
250.80347,250.90924,37,99,0
250.91885,251.02463,36,100,0
251.03424,251.14,34,100,0
251.14963,251.37077,32,114,0
251.38039,251.60155,48,100,0
251.38039,251.60155,44,100,0
251.61116,251.8323,48,100,0
251.61116,251.8323,44,100,0
251.84193,252.06308,48,100,0
251.84193,252.06308,44,100,0
251.84193,252.06308,43,100,0
252.0727,252.29385,48,100,0
252.0727,252.29385,44,100,0
252.0727,252.29385,43,100,0
252.30347,252.52461,48,100,0
252.30347,252.52461,44,100,0
252.30347,252.52461,41,100,0
252.53424,252.75539,48,100,0
252.53424,252.75539,44,100,0
252.53424,252.75539,41,100,0
252.765,252.98616,48,100,0
252.765,252.98616,44,100,0
252.765,252.98616,39,100,0
252.99577,253.21692,48,100,0
252.99577,253.21692,44,100,0
252.99577,253.21692,39,100,0
253.22655,253.4477,48,100,0
253.22655,253.4477,44,100,0
253.22655,253.4477,37,100,0
253.4573,253.67847,48,100,0
253.4573,253.67847,44,100,0
253.4573,253.67847,36,100,0
253.68808,253.90923,48,100,0
253.68808,253.90923,44,100,0
253.68808,253.90923,36,100,0
253.91885,254.14,36,100,0
254.14961,254.37077,48,100,0
254.14961,254.37077,44,100,0
254.38039,254.60155,48,100,0
254.38039,254.60155,44,100,0
254.61116,254.8323,48,100,0
254.61116,254.8323,44,100,0
254.61116,254.8323,43,100,0
254.84192,255.06308,48,100,0
254.84192,255.06308,44,100,0
254.84192,255.06308,43,100,0
255.0727,255.29385,48,100,0
255.0727,255.29385,44,100,0
255.0727,255.29385,41,100,0
255.30347,255.52461,48,100,0
255.30347,255.52461,44,100,0
255.30347,255.52461,41,100,0
255.53423,255.75539,48,100,0
255.53423,255.75539,44,100,0
255.53423,255.75539,39,100,0
255.765,255.98616,48,100,0
255.765,255.98616,44,100,0
255.765,255.98616,39,100,0
255.99577,256.21692,48,100,0
255.99577,256.21692,44,100,0
255.99577,256.21692,37,100,0
256.22653,256.4477,48,100,0
256.22653,256.4477,44,100,0
256.22653,256.4477,36,100,0
256.4573,256.67847,48,100,0
256.4573,256.67847,44,100,0
256.4573,256.67847,36,100,0
256.68808,256.90924,36,100,0
256.91885,257.13998,48,100,0
256.91885,257.13998,44,100,0
257.14963,257.37076,48,100,0
257.14963,257.37076,44,100,0
257.38037,257.60153,48,100,0
257.38037,257.60153,44,100,0
257.38037,257.60153,43,100,0
257.61115,257.8323,48,100,0
257.61115,257.8323,44,100,0
257.61115,257.8323,43,100,0
257.84192,258.06308,48,100,0
257.84192,258.06308,44,100,0
257.84192,258.06308,41,100,0
258.0727,258.29385,48,100,0
258.0727,258.29385,44,100,0
258.0727,258.29385,41,100,0
258.30347,258.52463,48,100,0
258.30347,258.52463,44,100,0
258.30347,258.52463,39,100,0
258.53424,258.76608,48,100,0
258.53424,258.76608,44,100,0
258.53424,258.76608,39,100,0
258.77615,259.03287,48,100,0
258.77615,259.03287,44,100,0
258.77615,259.03287,37,100,0
259.044,259.3315,48,100,0
259.044,259.3315,44,100,0
259.044,259.3315,36,100,0
259.34402,259.7034,48,100,0
259.34402,259.7034,44,100,0
259.34402,259.7034,36,100,0
259.71902,260.86084,37,100,0
259.71902,260.86084,44,100,0
259.71902,260.86084,46,100,0
261.73825,262.01468,56,80,0
261.73825,262.01468,50,80,0
262.0267,262.5916,55,80,0
262.0267,262.5916,51,80,0
262.8921,263.16855,58,80,0
262.8921,263.16855,51,80,0
263.18057,264.3224,56,80,0
263.18057,264.3224,53,80,0
264.3344,265.47623,58,80,0
264.3344,265.47623,55,80,0
265.48825,265.76468,60,80,0
265.48825,265.76468,56,80,0
265.7767,266.05316,60,80,0
265.7767,266.05316,56,80,0
266.0652,266.3416,61,80,0
266.0652,266.3416,58,80,0
266.35364,266.63007,63,80,0
266.35364,266.63007,60,80,0
266.6421,267.17014,65,80,0
266.6421,267.17014,61,80,0
268.18057,268.42014,56,80,0
268.18057,268.42014,53,80,0
268.18057,268.42014,49,80,0
268.43057,268.67014,56,80,0
268.43057,268.67014,53,80,0
268.43057,268.67014,50,80,0
268.68057,269.24545,55,80,0
268.68057,269.24545,51,80,0
269.54593,269.8224,58,80,0
269.54593,269.8224,51,80,0
269.8344,270.39932,60,80,0
270.41132,270.6509,61,80,0
270.66132,270.9009,60,80,0
269.8344,271.1509,56,80,0
270.91132,271.1509,58,80,0
271.16132,271.4009,56,80,0
271.41132,271.6509,55,80,0
271.66132,271.9009,56,80,0
271.91132,272.9009,58,80,0
271.91132,272.9009,51,80,0
272.91132,273.1509,56,80,0
273.16132,273.4009,48,80,0
273.41132,273.6509,49,80,0
273.66132,273.9009,48,80,0
272.91132,274.1509,44,80,0
273.91132,274.1509,46,80,0
274.16132,274.4009,44,80,0
274.41132,274.6509,43,80,0
274.66132,274.9009,44,80,0
274.91132,275.9009,46,80,0
274.91132,275.9009,39,80,0
275.91132,276.9009,44,80,0
275.91132,276.9009,32,80,0
276.91132,279.9009,32,80,0
276.91132,279.9009,36,80,0
276.91132,279.9009,39,80,0
276.91132,279.9009,44,80,0
279.91132,280.9009,56,80,0
279.91132,280.9009,51,80,0
279.91132,280.9009,48,80,0
279.91132,280.9009,44,80,0
280.91132,281.9009,63,80,0
280.91132,281.9009,60,80,0
280.91132,281.9009,56,80,0
281.91132,282.9009,62,80,0
281.91132,282.9009,58,80,0
281.91132,282.9009,56,80,0
281.91132,282.9009,53,80,0
282.91132,284.9009,62,83,0
282.91132,284.9009,58,83,0
282.91132,284.9009,56,83,0
282.91132,284.9009,53,83,0
284.91132,285.9009,63,90,0
284.91132,285.9009,58,90,0
284.91132,285.9009,55,90,0
284.91132,285.9009,51,90,0
285.91132,286.9009,63,94,0
285.91132,286.9009,58,94,0
285.91132,286.9009,55,94,0
285.91132,286.9009,51,94,0
286.91132,287.9009,63,97,0
286.91132,287.9009,58,97,0
286.91132,287.9009,55,97,0
286.91132,287.9009,51,97,0
287.91132,288.9009,62,101,0
287.91132,288.9009,58,101,0
287.91132,288.9009,56,101,0
287.91132,288.9009,53,101,0
288.91132,290.953,62,104,0
288.91132,290.953,58,104,0
288.91132,290.953,56,104,0
288.91132,290.953,53,104,0
290.96396,292.27112,63,100,0
290.96396,292.27112,58,100,0
290.96396,292.27112,55,100,0
290.96396,292.27112,51,100,0
292.29065,295.05685,49,80,0
292.29065,295.05685,58,80,0
295.06845,295.61243,60,80,0
295.06845,295.61243,48,80,0
295.624,298.3902,48,80,0
295.624,298.3902,60,80,0
298.40176,298.94574,55,75,0
298.40176,298.94574,52,75,0
298.95734,301.76706,52,75,0
298.95734,301.76706,55,75,0
301.77954,302.36707,56,70,0
301.77954,302.36707,53,70,0
302.37955,305.44717,53,70,0
302.37955,305.44717,56,70,0
305.46136,306.12897,58,70,0
305.46136,306.12897,51,70,0
306.1432,308.85626,58,70,0
306.1432,308.85626,51,70,0
308.87045,309.49887,60,80,0
308.87045,309.49887,56,80,0
311.3856,311.48383,32,80,0
311.49274,311.59097,36,80,0
311.59988,311.6981,39,80,0
311.70703,311.80524,44,80,0
311.81418,312.23383,46,80,0
311.81418,312.23383,39,80,0
311.81418,312.23383,34,80,0
312.67133,313.09097,46,80,0
312.67133,313.09097,39,80,0
312.67133,313.09097,34,80,0
313.52847,313.9481,46,80,0
313.52847,313.9481,39,80,0
313.52847,313.9481,34,80,0
314.3856,314.80524,48,80,0
314.3856,314.80524,39,80,0
314.3856,314.80524,36,80,0
316.95703,317.37668,43,80,0
316.95703,317.37668,39,80,0
316.95703,317.37668,31,80,0
317.81418,318.23383,55,80,0
317.81418,318.23383,51,80,0
317.81418,318.23383,43,80,0
318.6713,319.09094,55,80,0
318.6713,319.09094,51,80,0
318.6713,319.09094,43,80,0
319.52844,319.9481,56,80,0
319.52844,319.9481,51,80,0
319.52844,319.9481,44,80,0
320.3856,320.80524,65,85,0
320.3856,320.80524,56,85,0
320.3856,320.80524,53,85,0
321.24274,321.66238,60,90,0
321.24274,321.66238,56,90,0
321.24274,321.66238,48,90,0
321.6713,322.09094,60,93,0
321.6713,322.09094,56,93,0
321.6713,322.09094,48,93,0
322.09988,322.51953,61,95,0
322.09988,322.51953,56,95,0
322.09988,322.51953,49,95,0
322.95703,323.40894,58,101,0
322.95703,323.40894,51,101,0
322.95703,323.40894,46,101,0
323.8801,324.3697,60,106,0
323.8801,324.3697,51,106,0
323.8801,324.3697,48,106,0
324.3801,325.08243,60,108,0
324.3801,325.08243,51,108,0
324.3801,325.08243,48,108,0
325.10196,325.7696,56,80,0
325.78378,326.32776,57,80,0
326.33936,326.88333,58,80,0
326.8949,327.1611,60,80,0
325.10196,327.43887,49,80,0
327.17267,327.43887,61,80,0
327.45047,328.55,58,80,0
327.45047,328.55,55,80,0
327.45047,328.55,51,80,0
328.56155,330.21664,63,80,0
328.56155,330.21664,60,80,0
330.22824,330.77222,60,96,0
330.22824,330.77222,56,96,0
330.78378,331.60556,60,102,0
330.78378,331.60556,56,102,0
331.61713,332.1611,56,110,0
331.61713,332.1611,60,110,0
332.17267,332.43887,56,80,0
332.45047,332.71664,58,80,0
332.72824,332.99445,60,80,0
331.8949,333.27222,49,80,0
333.006,333.27222,61,80,0
333.28378,333.55,49,80,0
333.56155,333.82776,51,80,0
333.83936,334.10556,53,80,0
334.11713,334.42297,51,80,0
334.43628,334.74213,39,80,0
334.75543,335.1148,41,80,0
335.13043,335.4898,43,80,0
335.50543,336.69293,44,80,0
336.7054,337.2494,41,90,0
337.261,337.80496,37,95,0
335.50543,338.40402,32,80,0
337.81653,338.40402,43,100,0
338.41653,339.1509,46,105,0
338.41653,339.1509,32,105,0
339.16653,342.1509,46,110,0
339.16653,342.1509,32,110,0
342.16653,343.3905,44,80,0
342.16653,343.3905,32,80,0
344.66653,348.3905,44,80,0
344.66653,348.3905,32,80,0
