start_time,end_time,note_value,velocity,instrument_program_number
0.0,1.484375,77,80,0
1.3125,1.484375,77,80,0
0.0,1.484375,73,80,0
1.3125,1.484375,73,80,0
1.5,2.234375,78,80,0
1.5,2.234375,75,80,0
2.25,2.953125,60,80,0
2.25,2.984375,63,80,0
2.25,2.984375,66,80,0
2.25,2.984375,69,80,0
3.0,3.7730262,65,80,0
3.0,3.7730262,61,80,0
3.0,3.7730262,70,80,0
3.7894735,4.5624995,77,80,0
3.7894735,4.5624995,74,80,0
4.578947,5.4429173,80,80,0
4.578947,6.5104065,75,80,0
5.4612994,6.5104065,78,80,0
6.532728,8.095227,75,80,0
6.532728,8.095227,78,80,0
8.111675,9.674174,71,80,0
8.111675,9.674174,80,80,0
9.690622,11.339927,59,80,0
9.690622,11.339927,61,80,0
11.357288,13.006593,58,80,0
11.357288,13.006593,61,80,0
11.357288,13.006593,64,80,0
13.023954,13.79698,58,80,0
13.023954,13.79698,61,80,0
13.023954,14.586453,63,80,0
13.813428,14.586453,59,80,0
14.602901,15.375927,56,80,0
14.602901,15.375927,58,80,0
14.602901,15.375927,64,80,0
15.392374,16.165401,76,80,0
17.01518,17.831152,56,80,0
17.01518,17.831152,58,80,0
18.848515,20.072472,55,80,0
18.848515,20.072472,58,80,0
18.848515,20.072472,63,80,0
21.973515,24.42664,70,80,0
21.348515,25.08289,55,80,0
21.473515,25.08289,58,80,0
21.598515,25.08289,61,80,0
21.723515,25.08289,63,80,0
21.848515,25.08289,67,80,0
22.098515,26.58289,73,80,0
24.723515,26.58289,70,80,0
25.848515,26.95789,67,80,0
25.098515,26.95789,68,80,0
26.973515,27.33289,70,80,0
27.161015,27.529434,73,80,0
27.348515,27.736855,76,80,0
27.545883,27.945189,75,80,0
27.96255,28.385344,70,80,0
28.183138,28.60593,73,80,0
28.624313,29.488283,71,80,0
29.947842,30.72087,56,80,0
29.947842,30.72087,59,80,0
30.737316,31.601286,52,80,0
30.737316,31.601286,57,80,0
31.619667,33.740204,54,80,0
31.619667,33.740204,51,80,0
31.619667,33.740204,57,80,0
33.762524,34.140816,69,80,0
34.35463,35.848873,81,82,0
35.2395,35.848873,81,86,0
35.677,35.848873,81,74,0
36.052,36.411373,81,89,0
36.427,36.786373,81,78,0
36.802,37.161373,81,93,0
37.177,37.536373,81,81,0
37.552,37.911373,81,96,0
37.927,38.286373,81,85,0
38.302,38.661373,81,99,0
38.677,39.036373,81,89,0
39.052,39.411373,81,102,0
39.427,39.786373,81,92,0
39.802,40.161373,81,106,0
40.177,40.536373,81,92,0
40.552,40.911373,81,109,0
40.927,41.286373,81,95,0
41.302,41.661373,81,110,0
41.677,42.036373,81,106,0
42.052,42.411373,81,104,0
42.427,42.786373,81,93,0
42.802,43.180286,81,98,0
43.196735,43.575024,81,81,0
43.591473,43.990776,81,92,0
44.008137,44.407444,81,77,0
44.424805,44.874023,81,86,0
44.893555,45.481354,81,75,0
45.507393,46.731354,81,80,0
46.757393,47.73656,78,80,0
47.757393,48.73656,75,80,0
48.757393,49.73656,69,80,0
49.757393,50.369373,73,80,0
50.382393,51.050007,71,80,0
51.064213,51.76362,69,80,0
51.7785,52.512875,68,80,0
52.5285,54.012875,76,80,0
54.0285,54.762875,67,80,0
54.7785,56.262875,71,80,0
56.2785,57.012875,70,80,0
57.0285,57.762875,68,80,0
57.7785,58.887875,67,80,0
58.9035,59.262875,68,80,0
59.2785,60.66522,68,80,0
60.68475,62.07147,63,80,0
62.091,62.54022,63,80,0
62.55975,63.00897,63,80,0
63.0285,63.47772,63,80,0
63.49725,63.94647,63,80,0
63.966,64.415215,63,80,0
64.434746,64.883965,63,80,0
64.903496,65.352715,59,80,0
64.903496,65.352715,63,80,0
65.372246,65.821465,59,83,0
65.372246,65.821465,63,83,0
65.840996,66.290215,59,87,0
65.840996,66.290215,63,87,0
66.309746,66.758965,59,91,0
66.309746,66.758965,63,91,0
66.778496,67.227715,59,95,0
66.778496,67.227715,63,95,0
67.247246,67.696465,59,99,0
67.247246,67.696465,63,99,0
67.715996,68.19517,56,100,0
67.715996,68.19517,59,100,0
67.715996,68.19517,63,100,0
68.215996,68.711685,56,97,0
68.215996,68.711685,59,97,0
68.215996,68.711685,63,97,0
68.73324,69.26565,56,93,0
68.73324,69.26565,59,93,0
68.73324,69.26565,63,93,0
69.288795,69.821205,56,89,0
69.288795,69.821205,59,89,0
69.288795,69.821205,63,89,0
69.84435,70.39723,56,85,0
69.84435,70.39723,59,85,0
69.84435,70.39723,63,85,0
70.42127,70.99627,56,81,0
70.42127,70.99627,59,81,0
70.42127,70.99627,63,81,0
71.02127,73.55599,75,80,0
73.57683,75.05599,73,80,0
75.07683,75.55599,71,80,0
75.57683,76.05599,70,80,0
76.07683,76.55599,71,80,0
76.57683,77.05599,68,80,0
77.07683,78.55599,68,80,0
78.57683,81.05599,67,80,0
81.07683,82.55599,76,80,0
82.57683,83.05599,75,80,0
83.07683,84.05599,75,80,0
84.07683,85.55599,80,80,0
85.57683,87.05599,78,80,0
87.07683,87.55599,76,80,0
87.57683,88.55599,75,80,0
88.57683,89.05599,73,80,0
89.07683,91.05599,71,80,0
91.07683,91.55599,73,80,0
91.57683,91.80599,75,80,0
91.82683,91.93099,73,80,0
91.95183,92.05599,71,80,0
92.07683,94.05599,70,80,0
94.07683,94.55599,71,80,0
94.57683,95.05599,73,80,0
95.07683,98.05599,71,80,0
98.07683,101.05599,73,86,0
101.07683,104.05599,75,92,0
104.07683,105.55599,76,99,0
105.57683,107.05599,80,102,0
107.07683,108.05599,78,105,0
108.07683,108.55599,83,107,0
108.57683,109.52441,80,108,0
109.54457,111.00828,92,110,0
111.02844,111.96153,90,110,0
111.981064,112.46023,87,110,0
112.481064,112.75606,88,97,0
112.78106,113.05606,82,91,0
113.08106,116.08025,85,80,0
116.10042,117.445114,83,80,0
117.46405,120.25702,75,80,0
120.27655,121.66327,69,80,0
121.6828,123.06952,68,80,0
123.08905,124.052086,78,80,0
124.07292,124.60533,75,80,0
124.62848,126.04645,78,80,0
126.53473,126.98395,68,80,0
127.00348,127.4527,68,80,0
127.47223,127.92145,68,80,0
127.94098,128.42015,68,80,0
126.06598,128.92827,76,80,0
128.44098,128.92827,68,80,0
128.94945,129.43674,68,80,0
129.45793,129.94522,68,80,0
129.9664,130.45369,68,80,0
130.47487,130.96216,68,80,0
128.94945,131.47064,75,80,0
130.98335,131.47064,68,80,0
131.49182,131.97911,68,80,0
132.0003,132.48758,68,80,0
131.49182,132.99606,73,80,0
132.50877,132.99606,68,80,0
133.01724,133.50453,68,80,0
133.01724,134.52148,71,80,0
134.54268,135.53844,70,80,0
135.55962,136.03879,71,80,0
136.05962,136.53879,68,80,0
136.55962,139.49107,68,80,0
139.51123,140.89795,67,80,0
140.91748,142.37251,63,80,0
142.90218,143.3514,62,80,0
143.37093,143.82014,62,80,0
143.83968,144.2889,62,80,0
144.30843,144.75764,63,80,0
142.39369,145.2264,68,80,0
144.77718,145.2264,63,80,0
145.24593,146.63264,64,80,0
145.24593,148.14365,67,80,0
146.65218,148.6156,63,80,0
148.63513,149.08435,62,80,0
149.10388,149.5531,62,80,0
149.57263,150.02185,62,80,0
150.04138,150.4906,63,80,0
148.16638,150.95935,71,80,0
150.51013,150.95935,63,80,0
150.97888,151.89685,64,80,0
150.97888,152.3656,70,80,0
151.91638,152.3656,63,80,0
152.38513,153.3031,68,80,0
152.38513,153.77185,72,80,0
153.32263,153.77185,63,80,0
153.79138,154.2406,68,80,0
154.26013,154.70935,68,80,0
154.72888,155.1781,68,80,0
153.79138,155.64685,73,80,0
155.19763,155.64685,68,80,0
155.66638,156.1156,75,80,0
155.66638,156.1156,68,80,0
156.13513,156.58435,76,80,0
156.13513,156.58435,68,80,0
156.60388,157.52185,76,80,0
157.54138,159.00632,75,80,0
159.02824,159.56065,67,80,0
161.11952,161.59868,63,80,0
161.61952,162.1724,63,80,0
159.5838,162.91519,70,80,0
162.19644,162.91519,63,80,0
162.94644,165.16519,68,80,0
162.94644,165.16519,63,80,0
165.19644,167.27144,59,80,0
167.29643,169.07144,58,75,0
169.09644,170.73996,63,71,0
170.7631,172.46983,56,70,0
172.49388,174.55783,56,70,0
174.5869,176.82127,56,70,0
185.0869,185.8317,63,80,0
185.8369,186.5817,68,80,0
186.5869,187.3317,65,80,0
187.3369,188.0817,70,80,0
188.0869,188.8317,67,80,0
188.8369,189.5817,72,80,0
189.5869,190.0817,70,80,0
190.0869,190.3317,68,80,0
190.3369,191.0817,67,80,0
191.0869,192.5817,70,80,0
192.5869,193.0817,68,80,0
193.0869,193.3317,66,80,0
193.3369,194.3317,65,80,0
194.3369,194.5817,62,80,0
194.0869,194.8317,68,80,0
194.5869,194.8317,63,80,0
194.8369,195.0817,65,80,0
195.0869,195.3317,70,80,0
194.8369,195.5817,73,80,0
195.3369,195.86295,68,80,0
195.8369,196.0817,65,80,0
195.5869,196.3317,70,80,0
196.0869,196.5817,67,80,0
196.5869,196.8317,72,80,0
196.3369,197.0817,75,80,0
196.8369,197.3317,70,80,0
197.3369,197.5817,67,80,0
197.0869,197.8317,72,80,0
197.5869,198.0817,69,80,0
198.0869,198.3317,70,80,0
197.8369,198.5817,77,80,0
198.3369,198.5817,68,80,0
198.5869,198.8317,67,80,0
198.5869,199.0817,75,80,0
198.8369,199.0817,68,80,0
199.0869,199.3317,73,80,0
199.0869,199.3317,70,80,0
199.3369,200.0817,72,80,0
199.3369,200.0817,63,80,0
200.0869,200.3317,72,80,0
200.3369,200.5817,73,80,0
200.5869,200.8317,70,80,0
200.8369,201.0817,68,80,0
201.0869,201.3317,72,80,0
200.0869,201.5817,75,80,0
201.3369,201.5817,70,80,0
201.5869,201.8317,68,80,0
201.5869,202.0817,73,80,0
201.8369,202.0817,67,80,0
202.0869,202.3317,68,80,0
202.0869,202.3317,72,80,0
202.3369,202.5817,64,80,0
202.5869,202.8317,67,80,0
202.3369,203.0817,70,80,0
202.8369,203.0817,65,80,0
203.0869,203.3317,70,80,0
203.3369,203.5817,72,80,0
203.5869,203.8317,68,80,0
203.8369,204.0817,67,80,0
204.0869,204.3317,70,80,0
203.0869,204.5817,73,80,0
204.3369,204.5817,68,80,0
204.5869,204.8317,67,80,0
204.5869,205.0817,72,80,0
204.8369,205.0817,65,80,0
205.0869,205.3317,70,80,0
205.0869,205.5817,67,80,0
205.3369,205.8317,68,80,0
205.5869,205.8317,60,83,0
205.8369,206.0817,70,86,0
205.8369,206.3317,65,86,0
206.0869,206.5817,67,90,0
206.3369,206.5817,63,93,0
206.5869,206.8317,65,97,0
206.5869,206.8317,68,97,0
206.8369,206.95929,67,100,0
206.8994,207.02179,65,101,0
206.8369,207.0817,63,100,0
206.9619,207.08429,67,102,0
207.0244,207.14679,65,103,0
207.0869,207.20929,67,104,0
207.1494,207.27179,65,104,0
207.0869,207.3317,62,104,0
207.2119,207.33429,67,105,0
207.2744,207.33429,65,106,0
207.3369,207.4567,63,107,0
207.3369,207.5817,56,107,0
207.4619,207.8317,65,109,0
207.8369,208.0817,63,110,0
207.5869,208.3317,55,110,0
208.0869,208.3317,61,110,0
208.3369,208.5817,60,110,0
208.3369,208.5817,60,110,0
208.5869,208.83429,61,110,0
208.5869,208.83429,70,110,0
208.8369,209.08429,58,110,0
208.8369,209.08429,68,110,0
209.0869,209.33429,56,110,0
209.3369,209.58429,58,110,0
209.0869,209.83429,72,110,0
209.5869,209.83429,60,110,0
209.8369,210.08429,61,110,0
209.8369,210.33429,67,110,0
210.0869,210.33429,63,110,0
210.3369,210.58429,60,110,0
210.5869,210.83429,58,110,0
210.8369,211.08429,60,110,0
210.5869,211.33429,70,110,0
211.0869,211.33429,61,110,0
211.3369,211.58429,70,110,0
211.3369,211.58429,63,110,0
211.5869,211.83429,67,110,0
211.5869,212.08429,63,110,0
211.8369,212.33429,68,110,0
212.3369,212.58429,70,110,0
212.0869,212.83429,62,110,0
212.5869,213.08429,72,110,0
213.0869,213.33429,68,110,0
212.8369,213.58429,63,110,0
213.3369,213.58429,70,110,0
213.5869,213.83429,63,110,0
213.8369,214.08429,65,109,0
214.0869,214.33429,67,108,0
214.3369,214.58429,68,107,0
214.5869,214.83429,65,105,0
213.5869,215.08429,61,110,0
214.8369,215.33429,67,104,0
215.3369,215.58429,68,101,0
215.0869,215.83429,60,103,0
215.5869,216.08429,70,100,0
216.0869,216.33429,67,97,0
215.8369,216.58429,61,99,0
216.3369,216.83429,68,96,0
216.8369,217.08429,70,94,0
216.5869,217.33429,61,95,0
217.0869,217.58429,68,92,0
217.5869,217.83429,65,90,0
217.3369,218.08429,63,91,0
217.8369,218.33429,66,88,0
218.0869,218.58429,58,87,0
218.3369,218.58429,68,86,0
218.5869,218.83429,60,84,0
218.5869,219.08429,66,84,0
218.8369,219.08429,61,83,0
219.0869,219.33429,64,82,0
219.3369,219.83429,65,81,0
219.8369,220.08429,62,80,0
219.5869,220.33429,56,80,0
220.0869,220.33429,63,80,0
220.3369,220.58429,67,80,0
220.5869,220.83429,68,80,0
220.3369,221.08429,61,80,0
220.8369,221.08429,67,80,0
221.0869,221.33429,63,80,0
221.3369,221.58429,65,80,0
221.0869,221.83429,58,80,0
221.5869,221.83429,67,80,0
221.8369,222.08429,68,80,0
222.0869,222.33429,70,80,0
221.8369,222.58429,63,80,0
222.3369,222.58429,66,80,0
222.5869,222.83429,65,80,0
222.8369,223.08429,67,80,0
222.5869,223.33429,60,80,0
223.0869,223.33429,69,80,0
223.3369,223.83429,70,80,0
223.3369,224.08429,65,80,0
223.8369,224.08429,68,80,0
224.0869,224.33429,67,80,0
224.0869,224.58429,63,80,0
224.3369,224.58429,68,80,0
224.5869,224.83429,61,80,0
224.5869,225.58429,70,80,0
224.8369,225.58429,60,80,0
225.5869,226.08429,61,80,0
226.0869,226.33429,60,80,0
225.5869,227.08429,68,80,0
226.3369,227.08429,58,80,0
227.0869,227.58429,60,80,0
227.5869,227.83429,58,80,0
227.0869,228.08429,67,80,0
228.0869,228.33429,68,80,0
227.8369,228.58429,56,80,0
228.3369,228.58429,67,80,0
228.5869,228.83429,65,80,0
228.5869,229.08429,58,80,0
228.8369,229.08429,64,80,0
229.0869,229.33429,65,80,0
229.0869,229.33429,56,80,0
229.3369,229.58429,67,80,0
229.5869,229.83429,68,80,0
229.3369,230.08429,55,80,0
229.8369,230.33429,65,80,0
230.0869,230.58429,56,80,0
230.3369,230.58429,62,80,0
230.5869,230.83429,55,80,0
230.5869,230.83429,64,80,0
230.8369,231.08429,65,80,0
231.0869,231.33429,66,80,0
230.8369,231.58429,60,80,0
231.3369,231.58429,63,80,0
231.5869,231.85678,61,80,0
231.85962,232.14786,60,80,0
231.5869,232.45383,53,80,0
232.15088,232.74246,61,80,0
232.45702,233.00362,51,80,0
232.74547,233.00362,60,80,0
233.00633,233.25374,63,80,0
233.00633,233.25374,58,80,0
233.25633,233.50374,56,80,0
233.50633,233.75374,55,80,0
233.25633,234.00374,63,80,0
233.75633,234.00374,58,80,0
234.00633,234.25374,63,80,0
234.25633,234.50374,65,80,0
234.00633,234.75374,68,80,0
234.50633,234.75374,61,80,0
234.75633,235.00374,60,80,0
235.00633,235.25374,61,80,0
234.75633,235.50374,65,80,0
235.25633,235.50374,63,80,0
235.50633,235.75113,65,80,0
235.75633,236.00113,67,80,0
235.50633,236.25113,70,80,0
236.00633,236.25113,63,80,0
236.25633,236.50113,61,80,0
236.50633,236.75113,63,80,0
236.25633,237.00113,67,80,0
236.75633,237.00113,65,80,0
237.00633,237.25113,63,80,0
237.00633,237.75113,72,80,0
237.25633,238.00113,68,80,0
237.75633,238.25113,70,80,0
238.00633,238.25113,61,80,0
238.25633,238.50113,68,80,0
238.25633,238.50113,65,80,0
238.50633,239.25113,67,80,0
238.50633,239.25113,58,80,0
239.25633,240.00113,70,83,0
240.00633,240.25113,67,87,0
240.25633,240.50113,70,88,0
239.25633,240.75113,73,83,0
240.50633,240.75113,68,89,0
240.75633,241.00113,67,90,0
240.75633,241.25113,72,90,0
241.00633,241.25113,65,91,0
241.25633,241.50113,70,93,0
241.25633,241.50113,67,93,0
241.50633,241.75113,60,94,0
241.75633,242.00113,72,95,0
241.50633,242.25113,69,94,0
242.00633,242.25113,70,96,0
242.25633,242.50113,69,97,0
242.50633,242.75113,70,99,0
242.75633,243.00113,72,100,0
243.00633,243.25113,69,101,0
243.25633,243.50113,72,102,0
242.25633,243.75113,75,97,0
243.50633,243.75113,70,103,0
243.75633,244.00113,69,105,0
243.75633,244.25113,74,105,0
244.00633,244.25113,70,106,0
244.25633,244.50113,72,107,0
244.25633,244.50113,66,107,0
244.50633,244.75113,62,108,0
244.75633,245.00113,77,109,0
244.50633,245.25113,71,108,0
245.00633,245.25113,75,110,0
245.25633,245.50113,74,110,0
245.50633,245.75113,75,110,0
245.75633,246.00113,77,110,0
246.00633,246.25113,71,110,0
246.25633,246.50113,72,100,0
245.25633,246.75113,80,110,0
246.50633,246.75113,74,98,0
246.75633,247.00113,75,96,0
246.75633,247.25113,79,96,0
247.00633,247.25113,77,93,0
247.25633,247.50113,77,91,0
247.25633,247.50113,74,91,0
247.50633,247.75113,67,80,0
247.75633,248.00113,72,80,0
247.50633,248.25113,75,80,0
248.00633,248.25113,70,80,0
248.25633,248.52339,68,80,0
248.25633,248.79611,77,80,0
248.52907,248.79611,67,80,0
248.80179,249.09555,74,80,0
248.80179,249.09555,65,80,0
249.10179,249.33679,67,110,0
249.3418,249.5768,71,110,0
249.10179,249.81679,75,110,0
249.58179,250.0568,72,110,0
250.0618,250.2968,69,110,0
250.30179,250.53679,71,110,0
249.8218,250.7768,74,110,0
250.7818,251.0168,75,110,0
250.5418,251.25679,63,110,0
251.02179,251.4968,72,110,0
251.5018,251.7368,74,110,0
251.2618,251.97679,65,110,0
251.74179,252.2168,75,110,0
252.22179,252.45679,77,110,0
251.9818,252.6968,65,110,0
252.46179,252.6968,75,110,0
252.7018,252.9368,74,110,0
252.94179,253.17679,75,110,0
253.1818,253.4168,77,110,0
252.7018,253.6568,67,110,0
253.4218,253.89679,79,110,0
253.66179,253.89679,68,110,0
253.9018,254.1368,65,110,0
254.1418,254.3768,63,110,0
254.38179,254.61679,65,110,0
254.6218,255.09679,67,110,0
255.10179,255.33679,68,110,0
255.3418,255.5768,67,110,0
255.58179,255.81679,65,110,0
255.8218,256.0568,67,110,0
256.0618,256.29678,68,110,0
256.3018,256.5368,80,110,0
256.54178,256.7768,82,110,0
256.3018,257.01678,70,110,0
256.7818,257.2568,79,110,0
257.26178,257.4968,81,110,0
257.5018,257.9768,82,110,0
257.98178,258.2168,84,110,0
257.0218,258.4568,72,110,0
258.2218,258.4568,82,110,0
258.4618,258.6968,81,110,0
258.70178,258.9368,82,110,0
258.9418,259.1768,84,110,0
258.4618,259.41678,75,110,0
259.1818,259.6568,85,110,0
259.42178,259.6568,73,110,0
259.6618,260.13678,70,110,0
260.14178,260.3768,69,110,0
260.3818,260.85678,72,110,0
260.8618,261.0968,70,110,0
259.9018,261.3368,77,110,0
261.1018,261.3368,73,110,0
261.3418,261.83658,69,80,0
261.8418,262.08658,72,80,0
262.0918,262.58658,70,80,0
262.5918,262.83658,73,80,0
262.8418,263.33658,72,80,0
263.3418,263.58658,75,80,0
263.5918,264.08658,73,80,0
261.3418,264.33658,65,80,0
264.0918,264.33658,77,80,0
264.3418,264.58658,70,110,0
264.5918,264.83658,72,110,0
264.8418,265.08658,73,110,0
265.0918,265.58658,72,110,0
265.5918,265.83658,68,110,0
265.8418,266.33658,67,110,0
266.3418,266.58658,70,110,0
266.5918,267.08658,68,110,0
264.3418,267.33658,75,110,0
267.0918,267.33658,72,110,0
267.3418,267.83658,67,80,0
267.8418,268.08658,70,80,0
268.0918,268.58658,68,80,0
268.5918,268.83658,72,80,0
268.8418,269.33658,70,80,0
269.3418,269.58658,73,80,0
267.3418,269.84723,63,80,0
269.5918,269.84723,72,80,0
269.85266,270.1081,73,80,0
269.85266,270.1081,70,80,0
270.11353,270.38058,75,80,0
270.11353,270.38058,72,80,0
270.38626,270.96573,77,80,0
270.38626,271.29837,61,80,0
271.3053,272.1001,66,80,0
271.85532,272.3501,58,80,0
272.35532,272.6001,56,80,0
272.10532,272.8501,63,80,0
272.60532,273.1001,60,80,0
273.10532,273.3501,61,80,0
272.85532,273.6001,68,80,0
273.35532,273.8501,63,80,0
273.85532,274.1001,61,80,0
273.60532,274.3501,65,80,0
274.10532,274.3501,62,80,0
274.35532,274.6001,63,80,0
274.60532,274.8501,66,80,0
274.35532,275.1001,70,80,0
274.85532,275.1001,65,80,0
275.10532,275.3501,63,80,0
275.10532,275.6001,68,80,0
275.35532,275.6001,65,80,0
275.60532,275.8501,66,80,0
275.60532,275.8501,60,80,0
275.85532,276.1001,65,80,0
275.85532,276.3501,61,80,0
276.10532,276.3501,66,80,0
276.35532,276.6001,56,80,0
276.35532,276.8501,65,80,0
276.85532,277.1001,62,80,0
276.60532,277.3501,68,80,0
277.10532,277.3501,63,80,0
277.35532,278.1001,73,80,0
277.35532,278.1001,65,80,0
278.10532,278.8501,70,80,0
278.10532,278.8501,67,80,0
278.85532,279.1001,68,80,0
279.10532,279.3501,72,80,0
278.85532,279.6001,75,80,0
279.35532,279.8501,70,80,0
279.85532,280.1001,68,80,0
279.60532,280.3501,72,80,0
280.10532,280.3501,66,80,0
280.35532,280.6001,65,80,0
280.60532,280.8501,70,80,0
280.35532,281.1001,77,80,0
280.85532,281.1001,68,80,0
281.10532,281.3501,67,80,0
281.10532,281.6001,75,80,0
281.35532,281.6001,68,80,0
281.60532,281.8501,73,80,0
281.60532,282.1001,70,80,0
281.85532,282.3501,72,80,0
282.10532,282.3501,68,80,0
282.35532,282.6001,75,80,0
282.35532,282.6001,67,80,0
282.60532,282.8501,65,80,0
282.60532,283.1001,73,80,0
282.85532,283.1001,67,80,0
283.10532,283.3501,72,80,0
283.10532,283.6001,68,80,0
283.35532,283.8501,70,80,0
283.60532,283.8501,67,80,0
283.85532,284.1001,73,80,0
283.85532,284.1001,65,80,0
284.10532,284.3501,64,80,0
284.10532,284.6001,72,80,0
284.35532,284.6001,65,80,0
284.60532,284.8501,70,80,0
284.60532,285.1001,67,80,0
284.85532,285.3501,68,80,0
285.10532,285.3501,65,80,0
285.35532,285.61075,72,80,0
285.35532,285.61075,63,80,0
285.61618,285.8832,62,80,0
285.61618,286.16867,70,80,0
285.88892,286.16867,63,80,0
286.17462,286.46835,68,80,0
286.17462,286.46835,65,80,0
286.4746,286.71942,67,80,0
286.4746,286.71942,58,80,0
286.7246,286.96942,72,81,0
286.7246,286.96942,63,81,0
286.9746,287.21942,70,83,0
286.9746,287.21942,67,83,0
287.2246,287.46942,68,84,0
287.2246,287.71942,65,84,0
287.4746,287.71942,70,86,0
287.7246,287.96942,63,87,0
287.7246,288.21942,72,87,0
287.9746,288.46942,62,89,0
288.2246,288.46942,70,90,0
288.4746,288.71942,68,92,0
288.4746,288.71942,65,92,0
288.7246,288.96942,67,93,0
288.7246,289.21942,63,93,0
288.9746,289.21942,68,95,0
289.2246,289.46942,61,97,0
289.2246,289.71942,70,97,0
289.4746,289.96942,60,98,0
289.7246,289.96942,68,100,0
289.9746,290.23004,58,101,0
289.9746,290.78796,66,101,0
290.23547,290.78796,66,103,0
290.23547,291.12033,57,103,0
290.7939,291.67206,66,106,0
291.12726,291.92206,61,107,0
291.67725,292.17206,65,110,0
292.17725,292.42206,63,110,0
291.92725,292.67206,55,110,0
292.42725,292.92206,61,110,0
292.92725,293.17206,58,110,0
292.67725,293.42206,51,110,0
293.17725,293.67206,60,110,0
293.42725,293.67206,57,110,0
293.67725,293.92206,61,110,0
293.67725,293.92206,58,110,0
293.92725,294.42206,60,110,0
293.92725,294.42206,63,110,0
294.42725,294.67206,60,110,0
294.42725,294.67206,57,110,0
294.67725,294.92206,58,110,0
294.67725,295.17206,61,110,0
295.17725,295.42206,58,110,0
294.92725,295.67206,51,110,0
295.42725,295.92206,63,110,0
295.92725,296.17206,62,110,0
295.67725,296.42206,56,110,0
296.17725,296.42206,60,110,0
296.42725,296.67206,62,110,0
296.67725,296.92206,63,110,0
296.42725,297.17206,53,110,0
296.92725,297.42206,65,110,0
297.17725,297.67206,58,121,0
297.42725,297.92206,63,80,0
297.67725,298.17206,61,80,0
298.17725,298.42206,60,80,0
297.92725,298.67206,68,80,0
298.42725,298.67206,63,80,0
298.67725,298.92206,61,80,0
298.92725,299.17206,70,80,0
298.67725,299.42206,73,80,0
299.17725,299.42206,68,80,0
299.42725,299.67206,67,80,0
299.67725,299.92206,65,80,0
299.42725,300.17206,70,80,0
299.92725,300.42206,67,80,0
300.17725,300.67206,75,80,0
300.42725,300.67206,70,80,0
300.67725,300.92206,72,80,0
300.67725,300.92206,68,80,0
300.92725,301.17206,67,80,0
300.92725,301.42206,77,80,0
301.17725,301.42206,65,86,0
301.42725,301.67206,73,92,0
301.42725,301.67206,70,92,0
301.67725,301.92206,68,98,0
301.67725,302.17206,79,98,0
301.92725,302.17206,67,104,0
302.17725,302.42206,75,110,0
302.17725,302.67206,72,110,0
302.42725,302.67206,80,110,0
302.67725,302.92206,79,110,0
302.67725,302.92206,75,110,0
302.92725,303.4283,73,110,0
302.92725,303.4283,77,110,0
303.4337,303.68475,75,110,0
303.4337,303.68475,72,110,0
303.6901,303.94553,73,110,0
303.6901,303.94553,70,110,0
303.6901,303.94553,67,110,0
303.95096,304.21323,72,110,0
303.95096,304.21323,68,110,0
304.2188,304.48584,73,110,0
304.2188,304.48584,68,110,0
304.2188,304.48584,65,110,0
304.49155,304.78528,70,110,0
304.49155,304.78528,68,110,0
304.49155,304.78528,65,110,0
304.79153,304.93842,72,110,0
304.86655,305.0134,70,110,0
304.94153,305.0884,72,110,0
305.01654,305.16342,70,110,0
305.09152,305.2384,72,110,0
305.16653,305.31342,70,110,0
305.24155,305.3884,72,110,0
305.31653,305.4634,70,110,0
305.39154,305.53842,72,110,0
305.54153,305.6103,68,110,0
305.46652,305.6134,70,110,0
304.79153,305.68527,67,110,0
305.61655,305.68527,70,120,0
305.69153,305.94696,70,120,0
305.69153,305.94696,67,120,0
305.9524,306.72958,70,118,0
305.69153,306.72958,73,120,0
306.2133,306.99045,67,115,0
306.73502,308.03394,58,111,0
306.47415,308.03937,61,113,0
306.99588,308.03937,55,108,0
309.64014,310.6826,61,85,0
309.92587,310.6826,67,83,0
310.26294,310.6826,70,81,0
310.6915,314.68225,61,80,0
310.6915,314.68225,67,80,0
310.6915,314.68225,70,80,0
310.6915,314.68225,73,80,0
314.6915,315.09644,74,80,0
314.6915,315.09644,70,80,0
314.6915,315.09644,67,80,0
314.6915,315.09644,62,80,0
315.9591,316.36404,62,80,0
315.11404,317.2091,70,80,0
315.5366,317.63165,67,80,0
316.38165,318.4767,58,80,0
316.80417,318.89926,55,80,0
318.91687,319.32178,62,80,0
318.91687,319.32178,55,80,0
318.91687,319.32178,50,80,0
319.3394,319.74432,62,80,0
319.3394,319.74432,55,80,0
319.3394,319.74432,50,80,0
319.76193,320.15045,62,80,0
319.76193,320.15045,55,80,0
319.76193,320.15045,50,80,0
320.16733,320.55585,62,80,0
320.16733,320.55585,55,80,0
320.16733,320.55585,50,80,0
320.57275,320.96124,62,80,0
320.57275,320.96124,55,80,0
320.57275,320.96124,50,80,0
320.97815,321.42044,62,80,0
320.97815,321.42044,55,80,0
320.97815,321.42044,50,80,0
321.4397,321.91885,62,80,0
321.4397,321.91885,55,80,0
321.4397,321.91885,50,80,0
321.9397,322.47208,62,80,0
321.9397,322.47208,55,80,0
321.9397,322.47208,50,80,0
322.49524,322.7244,62,80,0
322.74524,324.59998,74,80,0
324.61685,325.41077,72,80,0
325.42767,325.8162,70,80,0
326.03577,326.2216,69,80,0
326.2385,326.6492,69,80,0
326.66705,327.1462,70,80,0
327.42838,327.6679,67,80,0
327.6897,328.56915,67,80,0
328.587,330.28345,66,82,0
329.87274,330.28345,75,85,0
330.7299,331.1406,75,88,0
331.15845,331.3549,77,89,0
331.37274,331.56915,75,89,0
332.0156,332.4263,74,80,0
332.44415,332.6406,75,80,0
332.65845,332.8549,74,80,0
332.87274,333.712,74,80,0
333.7299,334.56915,79,82,0
334.587,334.99774,79,85,0
335.0156,335.4263,77,86,0
335.87274,336.28345,77,89,0
336.3013,336.712,75,91,0
337.15845,337.56915,74,93,0
337.587,337.99774,72,95,0
338.0156,338.4263,72,96,0
338.44415,338.85486,70,98,0
338.87274,339.06915,72,99,0
339.087,339.28345,74,100,0
339.72986,340.1406,74,100,0
340.15845,340.35486,72,91,0
340.37274,340.56915,70,86,0
340.587,341.86826,70,81,0
341.87274,343.15356,69,80,0
343.17252,344.8004,70,80,0
344.8173,345.2058,69,80,0
345.22272,345.4085,70,80,0
345.6281,347.23285,72,80,0
347.24973,347.63824,71,80,0
347.65512,347.84094,72,80,0
348.06055,349.66528,74,80,0
349.68216,350.07068,73,87,0
350.08755,350.27338,74,89,0
350.89838,351.2869,74,92,0
351.30377,351.6923,75,94,0
352.1146,352.5031,78,98,0
352.52,352.9085,79,100,0
353.3308,353.51663,79,103,0
353.5335,353.71933,77,104,0
353.7362,354.55234,82,105,0
354.5702,354.79935,81,109,0
354.8202,355.04935,79,110,0
355.0702,355.97455,91,110,0
355.9935,356.42908,89,110,0
356.44803,356.88364,74,110,0
357.5276,357.71854,77,82,0
357.7359,357.92172,75,76,0
357.9386,358.12442,69,71,0
358.14133,358.32712,69,70,0
358.34402,360.55685,72,70,0
360.57376,361.77307,70,70,0
361.78995,363.8001,74,77,0
363.00616,363.8001,74,70,0
363.817,364.2055,74,71,0
365.0332,366.2325,68,74,0
366.24942,366.63794,67,77,0
366.65482,367.44873,77,78,0
367.46564,367.85416,74,79,0
367.87103,368.05685,74,80,0
368.07373,368.86768,77,80,0
368.68185,369.07037,75,80,0
369.08725,370.692,75,80,0
370.7089,371.09738,75,80,0
371.1143,371.5028,75,80,0
371.92508,372.3136,74,80,0
372.3305,372.71902,74,80,0
373.1413,373.52982,72,80,0
373.54672,373.93524,72,70,0
374.3575,374.74603,70,80,0
374.76294,375.15146,70,70,0
375.5969,376.00763,68,80,0
376.02548,376.4362,68,70,0
376.9086,377.3442,67,80,0
377.36313,377.81235,67,70,0
377.83188,378.68378,67,80,0
378.70163,379.49554,70,83,0
379.51245,379.90097,69,90,0
379.91785,381.1172,67,90,0
381.13406,381.52258,66,86,0
382.4368,382.91595,62,81,0
382.9368,385.01923,67,80,0
385.03613,385.42465,67,80,0
385.44153,385.83005,66,80,0
386.25235,386.64087,66,80,0
387.46857,387.8571,62,80,0
387.87396,389.8841,70,80,0
389.901,390.2895,70,80,0
390.3064,390.69492,69,80,0
391.11722,391.5057,69,80,0
392.33344,392.72192,71,80,0
393.54965,393.73544,71,80,0
393.75235,393.93814,72,80,0
394.76584,394.95166,77,80,0
394.96857,395.15436,75,80,0
395.98206,396.16788,75,80,0
396.18478,396.37057,74,80,0
397.19827,397.3841,67,80,0
397.401,397.5868,66,80,0
398.437,398.84775,66,80,0
399.33435,399.83875,62,80,0
399.86066,400.2044,63,80,0
398.8656,400.5794,69,80,0
400.23566,400.5794,62,80,0
400.61066,402.0794,67,80,0
400.61066,402.0794,62,80,0
404.36066,404.93567,58,70,0
406.16068,406.73566,57,70,0
407.96066,408.53568,62,70,0
409.76065,411.53568,55,70,0
409.76065,411.53568,59,70,0
411.56067,413.33566,50,70,0
411.56067,413.33566,55,70,0
411.56067,413.33566,59,70,0
413.36066,415.13565,59,70,0
413.36066,415.13565,55,70,0
413.36066,415.13565,50,70,0
415.16068,416.93567,59,74,0
415.16068,416.93567,55,74,0
415.16068,416.93567,50,74,0
416.96066,418.73566,59,80,0
416.96066,418.73566,55,80,0
416.96066,418.73566,50,80,0
418.76065,420.53568,50,90,0
418.76065,420.53568,55,90,0
418.76065,420.53568,59,90,0
420.56067,422.33566,59,100,0
420.56067,422.33566,55,100,0
420.56067,422.33566,50,100,0
420.56067,422.33566,62,100,0
422.36066,424.13565,62,110,0
422.36066,424.13565,59,110,0
422.36066,424.13565,55,110,0
422.36066,424.13565,50,110,0
424.16068,425.93567,62,120,0
424.16068,425.93567,59,120,0
424.16068,425.93567,55,120,0
424.16068,425.93567,50,120,0
425.96066,433.73566,50,125,0
425.96066,433.73566,55,125,0
425.96066,433.73566,59,125,0
425.96066,433.73566,62,125,0
433.76065,437.33566,59,91,0
434.96066,437.33566,62,87,0
435.56067,437.33566,67,85,0
436.76065,437.33566,71,81,0
437.36066,438.10544,74,80,0
438.11066,438.85544,69,80,0
438.86066,439.60544,72,80,0
439.61066,440.35544,67,80,0
440.36066,441.10544,71,80,0
441.11066,441.85544,66,80,0
441.86066,442.35544,67,80,0
442.36066,442.60544,69,80,0
442.61066,443.60544,71,80,0
443.61066,443.85544,72,80,0
443.36066,444.10544,79,80,0
443.86066,444.35544,71,80,0
444.36066,444.60544,69,80,0
444.11066,444.85544,74,80,0
444.61066,444.85544,68,80,0
444.86066,445.10544,69,80,0
445.11066,445.35544,71,80,0
444.86066,445.60544,78,80,0
445.36066,445.85544,69,80,0
445.86066,446.10544,67,80,0
445.61066,446.35544,73,80,0
446.11066,446.35544,66,80,0
446.36066,446.60544,67,80,0
446.61066,446.85544,69,80,0
446.36066,447.10544,76,80,0
446.86066,447.35544,67,80,0
447.36066,447.60544,64,80,0
447.11066,447.85544,69,80,0
447.61066,447.85544,66,80,0
447.86066,448.10544,67,80,0
447.86066,448.35544,71,80,0
448.11066,448.35544,66,80,0
448.36066,448.60544,73,80,0
448.36066,448.60544,64,80,0
448.61066,448.85544,74,80,0
448.61066,448.85544,66,80,0
448.86066,449.10544,72,80,0
448.86066,449.10544,69,80,0
449.11066,449.35544,71,80,0
449.11066,449.60544,67,80,0
449.36066,449.85544,69,80,0
449.61066,450.10544,65,80,0
449.86066,450.10544,71,80,0
450.11066,450.35544,72,80,0
450.36066,450.60544,71,80,0
450.11066,450.85544,64,80,0
450.61066,451.10544,69,80,0
450.86066,451.35544,63,80,0
451.11066,451.35544,67,80,0
451.36066,451.60544,69,80,0
451.36066,451.60544,66,80,0
451.61066,451.85544,71,80,0
451.86066,452.10544,69,80,0
451.61066,452.60544,62,80,0
452.61066,452.85544,61,80,0
452.11066,453.10544,67,80,0
452.86066,453.10544,62,80,0
453.11066,453.35544,69,80,0
453.36066,453.60544,71,80,0
453.61066,453.85544,69,80,0
453.11066,454.10544,62,80,0
453.86066,454.35544,71,80,0
454.11066,454.60544,67,80,0
454.36066,454.85544,72,80,0
454.61066,455.10544,65,80,0
454.86066,455.10544,71,80,0
455.11066,455.35544,74,80,0
455.11066,455.35544,62,80,0
455.61066,455.85544,75,80,0
455.36066,456.10544,79,80,0
455.86066,456.10544,72,80,0
456.11066,456.85544,74,80,0
456.11066,456.85544,71,80,0
456.86066,457.60544,77,80,0
456.86066,457.60544,71,80,0
457.61066,458.10544,72,80,0
457.61066,458.10544,69,80,0
458.11066,458.35544,74,80,0
458.11066,458.35544,71,80,0
458.36066,459.10544,75,80,0
458.36066,459.10544,67,80,0
459.11066,459.60544,69,80,0
459.11066,459.60544,65,80,0
459.61066,460.35544,74,80,0
459.61066,460.35544,65,80,0
460.36066,460.60544,72,80,0
460.36066,460.60544,63,80,0
460.61066,461.10544,71,80,0
460.61066,461.10544,62,80,0
462.11066,462.35544,59,80,0
462.36066,462.60544,62,80,0
461.86066,462.85544,67,80,0
462.61066,462.85544,60,80,0
462.86066,463.10544,63,80,0
463.11066,463.35544,62,80,0
463.36066,463.60544,65,80,0
463.61066,463.73044,63,80,0
463.73566,463.85544,62,80,0
463.86066,464.10544,60,80,0
462.86066,464.35544,72,80,0
465.11066,465.35544,62,80,0
465.36066,465.60544,67,80,0
464.36066,465.85544,69,80,0
465.61066,465.85544,66,80,0
465.86066,466.10544,69,80,0
466.11066,466.35544,67,80,0
466.36066,466.60544,72,80,0
466.61066,466.73044,70,80,0
466.73566,466.85544,69,80,0
466.86066,467.10544,67,80,0
465.86066,467.35544,74,80,0
468.36066,468.60544,62,80,0
467.36066,468.85544,70,80,0
468.61066,468.98044,67,80,0
468.98566,469.10544,65,80,0
469.11066,469.35544,63,80,0
469.86066,470.10544,66,80,0
468.86066,470.35544,75,80,0
470.11066,470.48044,72,80,0
470.48566,470.60544,70,80,0
470.61066,470.85544,69,80,0
470.86066,471.10544,72,80,0
471.11066,471.23044,71,80,0
471.23566,471.35544,69,80,0
471.36066,471.60544,67,80,0
470.36066,471.85544,74,80,0
471.61066,472.10544,67,80,0
472.11066,472.23044,67,80,0
472.23566,472.35544,65,80,0
472.36066,472.74133,63,80,0
472.8834,473.16315,60,80,0
471.86066,473.46286,72,80,0
472.747,473.46286,62,80,0
473.1691,473.46286,62,80,0
473.1691,473.46286,71,80,0
473.46912,473.76285,72,80,0
473.46912,473.76285,63,80,0
473.7691,474.0139,77,81,0
473.7691,474.0139,68,81,0
474.0191,474.2639,74,82,0
474.0191,474.2639,65,82,0
474.2691,474.5139,79,83,0
474.2691,474.5139,70,83,0
474.5191,474.7639,76,84,0
474.5191,474.7639,65,84,0
474.7691,475.1389,80,85,0
474.7691,475.1389,72,85,0
475.1441,475.2639,79,86,0
475.1441,475.2639,70,86,0
475.2691,475.5139,77,87,0
475.2691,475.7639,68,87,0
475.5191,475.7639,68,88,0
475.5191,476.0139,72,88,0
476.0191,476.2639,68,90,0
476.0191,476.2639,65,90,0
476.2691,476.6389,72,91,0
476.2691,476.6389,69,91,0
476.6441,476.7639,70,93,0
476.6441,476.7639,67,93,0
476.7691,477.0139,69,93,0
476.7691,477.0139,66,93,0
477.0191,477.5139,72,94,0
477.0191,477.5139,81,94,0
477.5191,477.7639,78,97,0
477.5191,477.7639,69,97,0
477.7691,478.1389,82,98,0
477.7691,478.1389,74,98,0
478.1441,478.2639,81,99,0
478.1441,478.2639,72,99,0
478.2691,478.5139,79,100,0
478.2691,478.5139,70,100,0
478.5191,479.0139,62,101,0
479.0191,479.2639,59,103,0
479.2691,479.6389,67,104,0
479.6441,479.7639,65,106,0
479.7691,480.0139,63,106,0
480.0191,480.5139,67,107,0
480.0191,480.5139,70,107,0
480.5191,480.7639,67,109,0
480.5191,480.7639,63,109,0
480.7691,481.1389,75,110,0
480.7691,481.1389,72,110,0
481.1441,481.2639,73,110,0
481.1441,481.2639,70,110,0
481.2691,481.5139,72,110,0
481.2691,481.5139,68,110,0
481.5191,482.0139,65,110,0
482.0191,482.2639,60,110,0
482.2691,482.7639,70,110,0
482.7691,483.0139,75,105,0
483.0191,483.5139,63,102,0
483.5191,483.7639,58,97,0
483.7691,484.2639,68,94,0
484.2691,484.5139,74,89,0
484.5191,485.0139,62,86,0
485.0191,485.26175,56,81,0
485.26688,485.3847,63,80,0
485.38983,485.5073,68,80,0
485.5123,485.6273,67,80,0
485.6323,485.74728,72,80,0
485.7523,485.86935,70,80,0
485.8123,485.9284,68,80,0
485.87183,485.98502,67,80,0
485.98993,486.10312,58,80,0
486.10803,486.22043,63,80,0
486.22525,486.33582,62,80,0
486.22525,486.4512,68,80,0
486.34064,486.4512,67,80,0
486.45602,486.56592,65,80,0
486.5137,486.62512,63,80,0
486.57068,486.67957,62,80,0
486.9103,487.01678,63,80,0
487.02142,487.1279,72,80,0
487.13254,487.24042,70,80,0
487.18796,487.29517,68,80,0
487.2427,487.34763,67,80,0
487.35217,487.45712,75,80,0
487.46167,487.56512,80,80,0
487.5696,487.67227,79,80,0
487.5696,487.67227,63,80,0
487.67676,487.77942,84,80,0
487.67676,487.77942,68,80,0
487.78387,487.833,82,80,0
487.78387,487.88657,67,80,0
487.83746,487.88657,80,80,0
487.89102,487.9937,79,80,0
487.89102,487.9937,72,80,0
487.99817,488.04727,70,80,0
488.05176,488.10086,68,80,0
488.10532,488.208,67,80,0
488.21246,488.31512,78,80,0
488.3196,488.42227,87,80,0
488.42676,488.52942,84,80,0
488.53387,488.63657,89,80,0
488.64102,488.69012,87,80,0
488.6946,488.7437,85,80,0
488.21246,488.85086,75,80,0
488.74817,488.85086,84,80,0
488.85532,489.4937,69,80,0
489.49817,489.60086,77,80,0
489.60532,489.70798,84,80,0
489.71246,489.81512,82,80,0
489.8196,489.8687,87,80,0
489.92673,489.97586,85,80,0
489.98032,490.08298,84,80,0
489.49817,490.13657,73,80,0
490.03387,490.13657,82,80,0
490.14102,490.77942,67,80,0
490.78387,490.88657,75,80,0
490.89102,490.9937,82,81,0
490.99817,491.10086,80,82,0
491.10532,491.20798,85,84,0
491.21246,491.26157,84,85,0
491.26602,491.31512,82,86,0
490.78387,491.42227,72,80,0
491.3196,491.42227,80,86,0
491.42673,492.06512,65,88,0
492.0696,492.4937,67,96,0
492.49817,492.70798,68,101,0
492.71246,492.81894,79,104,0
492.82358,492.93005,74,105,0
492.93466,493.04526,77,106,0
493.05005,493.16064,73,108,0
493.16544,493.22275,77,109,0
493.22794,493.28525,75,110,0
492.71246,493.4211,70,104,0
493.29044,493.4211,73,110,0
493.42682,493.68878,63,110,0
493.42682,493.6966,72,110,0
493.5768,493.80133,70,110,0
493.7018,493.91476,67,110,0
493.81293,494.02124,68,110,0
493.92404,494.14395,60,110,0
494.03513,494.25275,66,110,0
494.14624,494.35922,56,110,0
494.25735,494.47263,66,110,0
494.36847,494.58374,56,110,0
494.47958,494.69717,64,110,0
494.5907,494.8106,56,110,0
494.7018,494.91708,65,110,0
494.81293,495.03284,61,110,0
494.92404,495.14392,65,110,0
495.03513,495.2481,61,110,0
495.14624,495.36615,72,110,0
495.25735,495.47726,61,110,0
495.36847,495.58142,70,110,0
495.47958,495.69717,58,110,0
495.5907,495.80133,68,110,0
495.7018,495.91476,58,110,0
495.81293,496.0282,66,110,0
495.92404,496.1393,58,110,0
496.03513,496.2481,67,110,0
496.14624,496.36154,63,110,0
496.25735,496.47263,67,110,0
496.36847,496.58606,63,110,0
496.47958,496.69717,70,110,0
496.5907,496.80597,63,110,0
496.7018,496.92172,68,110,0
496.81293,497.0282,62,110,0
496.92404,497.14392,68,110,0
497.03513,497.25043,67,110,0
497.14624,497.36615,70,110,0
497.25735,497.47726,61,110,0
497.36847,497.58374,68,110,0
497.47958,497.69485,60,110,0
497.5907,497.8106,68,110,0
497.7018,497.91708,58,110,0
497.81293,498.0282,68,110,0
497.924,498.13467,65,110,0
498.03513,498.25504,67,110,0
498.14624,498.36383,63,110,0
498.25735,498.4657,68,110,0
498.36847,498.58374,63,110,0
498.47958,498.69485,70,110,0
498.5907,498.80133,63,110,0
498.7018,498.9194,72,110,0
498.81293,499.0328,70,110,0
498.924,499.14163,75,110,0
499.03513,499.25504,70,110,0
499.14624,499.3615,73,110,0
498.81293,499.47495,63,110,0
499.36847,499.47495,73,110,0
499.25735,499.47726,72,110,0
499.47958,499.58606,70,110,0
499.5907,499.69717,73,110,0
499.7018,499.8083,71,110,0
499.81293,499.9194,73,110,0
499.924,500.03052,71,110,0
500.03513,500.1416,72,110,0
500.14624,500.25272,72,110,0
500.25735,500.36383,80,110,0
500.36847,500.47495,72,110,0
500.47958,500.58606,82,110,0
500.5907,500.69717,72,110,0
500.7018,500.8083,80,110,0
500.8129,500.9194,74,110,0
500.924,501.03052,79,110,0
501.03513,501.1416,74,110,0
501.14624,501.25272,76,110,0
501.25735,501.36383,74,110,0
501.36847,501.47495,77,110,0
501.47958,501.58606,75,110,0
501.5907,501.69717,82,110,0
501.7018,501.8083,75,110,0
501.8129,501.9194,84,110,0
501.924,502.03052,75,110,0
502.03513,502.1416,82,110,0
502.14624,502.25272,75,110,0
502.25735,502.36383,82,110,0
502.36847,502.47495,75,110,0
502.47958,502.58606,79,110,0
502.5907,502.69717,75,110,0
502.7018,502.8083,80,110,0
502.8129,502.9194,74,110,0
502.924,503.0305,80,110,0
503.03513,503.1416,74,110,0
503.14624,503.25272,82,110,0
503.25735,503.36383,74,110,0
503.36847,503.47495,80,110,0
503.47958,503.58606,75,110,0
503.5907,503.69717,84,110,0
503.7018,503.8083,75,110,0
503.8129,503.9194,81,110,0
503.924,504.0305,73,110,0
504.03513,504.1416,82,110,0
504.14624,504.25272,73,110,0
504.25735,504.36383,80,110,0
504.3407,504.44717,73,110,0
504.47958,504.58606,77,110,0
504.5907,504.69717,73,110,0
504.70178,504.8083,79,110,0
504.8129,504.9194,73,110,0
504.924,505.0305,79,110,0
505.03513,505.1416,73,110,0
505.14624,505.25272,75,110,0
505.25735,505.36383,73,110,0
505.36847,505.47495,77,110,0
505.47958,505.58606,73,110,0
505.5907,505.69717,79,110,0
505.70178,505.8083,72,110,0
505.8129,505.9194,80,110,0
505.924,506.0346,72,110,0
506.0394,506.15,82,110,0
506.1548,506.27457,73,110,0
506.2798,506.39957,82,110,0
506.4048,506.5298,80,110,0
506.53522,506.66022,85,110,0
506.66565,506.79633,82,110,0
506.80203,506.9327,87,110,0
506.9384,507.636,80,110,0
506.9384,507.636,75,110,0
506.9384,507.636,68,110,0
507.6406,508.30264,85,110,0
507.6406,508.30264,79,110,0
507.6406,508.30264,73,110,0
508.30728,508.9693,82,110,0
508.30728,508.9693,79,110,0
508.30728,508.9693,70,110,0
508.97394,509.636,87,110,0
508.97394,509.636,80,110,0
508.97394,509.636,75,110,0
509.6406,510.0804,78,110,0
509.6406,510.30264,84,110,0
509.6406,510.30264,72,110,0
510.08505,510.30264,75,110,0
510.30728,510.74707,77,110,0
510.30728,510.9693,89,110,0
510.7517,510.9693,82,110,0
510.7517,510.9693,77,110,0
510.97394,511.41376,87,110,0
510.97394,511.41376,82,110,0
510.97394,511.41376,75,110,0
511.41837,511.636,85,110,0
511.41837,511.636,79,110,0
511.41837,511.636,73,110,0
511.6406,512.3026,84,110,0
511.6406,512.3026,80,110,0
511.6406,512.3026,72,110,0
512.30725,513.636,77,110,0
512.30725,513.636,80,110,0
513.6406,514.0804,79,110,0
513.6406,514.0804,75,110,0
514.085,514.3026,77,110,0
514.085,514.3026,73,110,0
514.30725,514.9693,75,110,0
514.30725,514.9693,72,110,0
514.97394,515.636,75,110,0
514.97394,516.3026,72,110,0
514.97394,516.3026,84,110,0
515.6406,516.7471,77,110,0
516.30725,516.7471,82,110,0
516.30725,516.7471,70,110,0
516.7517,516.9693,80,110,0
516.7517,516.9693,77,110,0
516.7517,516.9693,68,110,0
516.97394,517.636,79,110,0
516.97394,517.636,75,110,0
516.97394,517.636,67,110,0
517.6406,518.9693,77,110,0
517.6406,518.9693,85,110,0
517.6406,518.9693,89,110,0
518.97394,519.41376,87,110,0
518.97394,519.41376,84,110,0
518.97394,519.41376,75,110,0
519.4184,519.636,85,110,0
519.4184,519.636,82,110,0
519.4184,519.636,73,110,0
519.64056,520.3026,84,110,0
519.64056,520.3026,80,110,0
519.64056,520.3026,72,110,0
520.30725,521.636,80,110,0
520.30725,521.636,86,110,0
520.30725,521.636,92,110,0
521.64056,522.0804,91,110,0
521.64056,522.0804,85,110,0
521.64056,522.0804,80,110,0
522.085,522.3026,89,110,0
522.085,522.3026,85,110,0
522.085,522.3026,80,110,0
522.30725,522.9693,87,110,0
522.30725,522.9693,84,110,0
522.30725,522.9693,80,110,0
522.97394,523.41376,89,110,0
522.97394,523.41376,82,110,0
522.97394,523.41376,80,110,0
523.4184,523.636,82,110,0
523.4184,523.636,80,110,0
523.4184,523.636,77,110,0
523.64056,524.3026,84,110,0
523.64056,524.3026,80,110,0
523.64056,524.3026,75,110,0
524.30725,524.5332,75,110,0
524.30725,524.78284,82,110,0
524.538,524.78284,79,110,0
524.788,525.05505,79,110,0
524.788,525.05505,75,110,0
524.788,525.05505,82,110,0
524.788,525.05505,87,110,0
525.0607,525.7367,86,110,0
525.0607,525.7367,80,110,0
525.0607,525.7367,74,110,0
525.74133,526.4033,85,110,0
525.74133,526.4033,82,110,0
525.74133,526.4033,73,110,0
526.40796,526.8478,75,110,0
526.40796,527.07,84,110,0
526.40796,527.07,72,110,0
526.8524,527.07,80,110,0
527.07465,527.50806,85,110,0
527.07465,527.50806,80,110,0
527.07465,527.50806,77,110,0
527.5126,527.727,82,110,0
527.5126,527.727,80,110,0
527.5126,527.727,77,110,0
527.73157,527.9577,84,110,0
527.73157,527.9577,80,110,0
527.73157,527.9577,75,110,0
527.9627,528.2127,80,110,0
527.9627,528.2127,77,110,0
527.9627,528.48517,82,110,0
528.21814,528.48517,79,110,0
528.21814,528.48517,73,110,0
528.49084,529.1414,72,110,0
528.49084,529.1414,75,110,0
528.49084,529.1414,80,110,0
529.14594,529.7843,85,120,0
529.14594,529.7843,80,120,0
529.14594,529.7843,77,120,0
529.78876,530.4272,82,110,0
529.78876,530.4272,79,110,0
529.78876,530.4272,73,110,0
530.43164,531.07,87,120,0
530.43164,531.07,84,120,0
530.43164,531.07,80,120,0
530.43164,531.07,75,120,0
531.07446,531.7129,84,110,0
531.07446,531.7129,78,110,0
531.07446,531.7129,75,110,0
531.71735,532.3557,89,120,0
531.71735,532.3557,85,120,0
531.71735,532.3557,77,120,0
532.36017,532.9986,86,110,0
532.36017,532.9986,83,110,0
532.36017,532.9986,77,110,0
533.00305,533.6414,90,120,0
533.64594,534.07,89,110,0
533.00305,534.2843,84,120,0
533.00305,534.2843,78,120,0
534.07446,534.2843,87,110,0
534.28876,534.9272,85,120,0
534.28876,534.9272,77,120,0
534.28876,535.57,89,120,0
534.93164,535.57,86,110,0
534.93164,535.57,77,110,0
535.57446,536.2129,92,120,0
536.21735,536.6576,90,110,0
535.57446,536.8974,86,120,0
535.57446,536.8974,83,120,0
536.6624,536.8974,89,110,0
536.9024,538.3374,91,120,0
536.9024,538.3374,88,120,0
536.9024,538.3374,85,120,0
536.9024,538.3374,82,120,0
538.3424,539.0574,91,120,0
538.3424,539.0574,94,120,0
539.0624,539.5678,92,120,0
538.3424,539.8465,88,120,0
538.3424,539.8465,85,120,0
539.57324,539.8465,91,120,0
539.8525,540.25146,96,120,0
539.8525,540.25146,92,120,0
539.99536,540.25146,92,120,0
539.8525,540.25146,87,120,0
540.1317,540.25146,87,120,0
539.8525,540.25146,84,120,0
540.2567,540.36725,92,120,0
540.3721,540.4786,87,120,0
540.59033,540.693,87,120,0
540.4832,540.8002,84,120,0
540.69745,540.8002,84,120,0
540.91174,541.01447,84,120,0
540.8046,541.1216,80,120,0
541.0189,541.1216,80,120,0
541.12604,541.443,75,120,0
541.2332,541.5502,72,120,0
541.34033,541.6573,68,120,0
541.5546,541.6573,68,120,0
541.44745,541.76447,63,120,0
541.66174,541.76447,63,120,0
541.7689,542.0859,60,120,0
543.4832,543.8002,56,120,0
543.59033,543.9073,60,120,0
543.69745,544.01447,63,120,0
544.12604,544.443,68,120,0
544.2332,544.5502,72,120,0
544.34033,544.6573,75,120,0
544.44745,544.76825,68,120,0
544.5546,544.8834,72,120,0
544.66174,545.00323,75,120,0
544.7729,545.06506,80,120,0
544.88824,545.13043,84,120,0
545.00824,545.1389,87,120,0
545.1446,546.50256,92,120,0
545.1446,546.50256,87,120,0
545.1446,546.50256,84,120,0
545.1446,546.50256,80,120,0
551.1446,551.6844,68,1,0
0.0,1.484375,34,80,0
1.3125,1.484375,34,80,0
0.0,1.484375,46,80,0
1.3125,1.484375,46,80,0
1.5,2.234375,34,80,0
1.5,2.234375,46,80,0
2.25,2.984375,34,80,0
2.25,2.984375,46,80,0
3.0,6.5104065,34,80,0
3.0,6.5104065,46,80,0
6.532728,8.095227,35,80,0
6.532728,8.095227,47,80,0
8.111675,9.674174,40,80,0
8.111675,9.674174,52,80,0
9.690622,13.006593,42,80,0
9.690622,13.006593,54,80,0
13.023954,13.79698,43,80,0
13.023954,13.79698,55,80,0
13.813428,14.586453,44,80,0
13.813428,14.586453,56,80,0
14.602901,16.165401,37,80,0
14.602901,16.165401,49,80,0
16.181849,17.831152,39,80,0
16.181849,17.831152,51,80,0
17.848515,20.072472,39,80,0
20.098515,22.45789,39,80,0
20.411015,22.45789,43,80,0
20.723515,22.45789,46,80,0
20.931847,22.45789,49,80,0
21.14018,22.45789,51,80,0
28.183138,29.047108,59,80,0
28.183138,29.047108,56,80,0
29.947842,30.72087,40,80,0
29.947842,30.72087,52,80,0
30.737316,31.601286,37,80,0
30.737316,31.601286,49,80,0
31.619667,33.740204,35,80,0
31.619667,33.740204,47,80,0
33.762524,39.786373,47,80,0
33.762524,39.786373,51,80,0
33.762524,39.786373,54,80,0
33.762524,39.786373,57,80,0
41.302,53.262875,47,80,0
41.302,53.262875,51,80,0
41.302,53.262875,54,80,0
41.302,53.262875,59,80,0
51.7785,53.262875,59,80,0
51.7785,53.262875,52,80,0
51.7785,53.262875,56,80,0
53.2785,54.762875,49,80,0
53.2785,54.762875,52,80,0
53.2785,54.762875,55,80,0
53.2785,54.762875,58,80,0
54.7785,56.262875,50,80,0
54.7785,56.262875,53,80,0
54.7785,56.262875,56,80,0
54.7785,56.262875,59,80,0
62.091,62.54022,51,80,0
62.55975,63.00897,51,80,0
63.0285,63.47772,51,80,0
63.49725,63.94647,51,80,0
63.966,64.415215,51,80,0
64.434746,64.883965,51,80,0
64.903496,65.352715,47,80,0
64.903496,65.352715,51,80,0
65.372246,65.821465,47,83,0
65.372246,65.821465,51,83,0
65.840996,66.290215,47,87,0
65.840996,66.290215,51,87,0
66.309746,66.758965,47,91,0
66.309746,66.758965,51,91,0
66.778496,67.227715,47,95,0
66.778496,67.227715,51,95,0
67.247246,67.696465,47,99,0
67.247246,67.696465,51,99,0
67.715996,68.19517,44,100,0
67.715996,68.19517,47,100,0
67.715996,68.19517,51,100,0
68.215996,68.711685,44,97,0
68.215996,68.711685,47,97,0
68.215996,68.711685,51,97,0
68.73324,69.26565,44,93,0
68.73324,69.26565,47,93,0
68.73324,69.26565,51,93,0
69.288795,69.821205,44,89,0
69.288795,69.821205,47,89,0
69.288795,69.821205,51,89,0
69.84435,70.39723,44,85,0
69.84435,70.39723,47,85,0
69.84435,70.39723,51,85,0
70.42127,70.99627,44,81,0
70.42127,70.99627,47,81,0
70.42127,70.99627,51,81,0
71.02127,71.55368,44,70,0
71.02127,71.55368,47,70,0
71.02127,71.55368,51,70,0
71.57683,72.05599,44,70,0
71.57683,72.05599,47,70,0
71.57683,72.05599,51,70,0
72.07683,72.55599,44,70,0
72.07683,72.55599,47,70,0
72.07683,72.55599,51,70,0
72.57683,73.05599,44,70,0
72.57683,73.05599,47,70,0
72.57683,73.05599,51,70,0
73.07683,73.55599,44,70,0
73.07683,73.55599,47,70,0
73.07683,73.55599,51,70,0
73.57683,74.05599,44,70,0
73.57683,74.05599,47,70,0
73.57683,74.05599,51,70,0
74.07683,74.55599,44,70,0
74.07683,74.55599,47,70,0
74.07683,74.55599,51,70,0
74.57683,75.05599,44,70,0
74.57683,75.05599,47,70,0
74.57683,75.05599,51,70,0
75.07683,75.55599,44,70,0
75.07683,75.55599,47,70,0
75.07683,75.55599,51,70,0
75.57683,76.05599,44,70,0
75.57683,76.05599,47,70,0
75.57683,76.05599,51,70,0
76.07683,76.55599,44,70,0
76.07683,76.55599,47,70,0
76.07683,76.55599,51,70,0
76.57683,77.05599,44,70,0
76.57683,77.05599,47,70,0
76.57683,77.05599,51,70,0
77.07683,77.55599,46,70,0
77.07683,77.55599,49,70,0
77.07683,77.55599,51,70,0
77.57683,78.05599,46,70,0
77.57683,78.05599,49,70,0
77.57683,78.05599,51,70,0
78.07683,78.55599,46,70,0
78.07683,78.55599,49,70,0
78.07683,78.55599,51,70,0
78.57683,79.05599,46,70,0
78.57683,79.05599,49,70,0
78.57683,79.05599,51,70,0
79.07683,79.55599,46,70,0
79.07683,79.55599,49,70,0
79.07683,79.55599,51,70,0
79.57683,80.05599,46,70,0
79.57683,80.05599,49,70,0
79.57683,80.05599,51,70,0
80.07683,80.55599,46,70,0
80.07683,80.55599,49,70,0
80.07683,80.55599,51,70,0
80.57683,81.05599,46,70,0
80.57683,81.05599,49,70,0
80.57683,81.05599,51,70,0
81.07683,81.55599,46,70,0
81.07683,81.55599,49,70,0
81.07683,81.55599,51,70,0
81.57683,82.05599,46,70,0
81.57683,82.05599,49,70,0
81.57683,82.05599,51,70,0
82.07683,82.55599,46,70,0
82.07683,82.55599,49,70,0
82.07683,82.55599,51,70,0
82.57683,83.05599,51,70,0
82.57683,83.05599,46,70,0
82.57683,83.05599,49,70,0
82.57683,83.05599,55,70,0
83.07683,83.55599,47,70,0
83.07683,83.55599,51,70,0
83.07683,83.55599,56,70,0
83.57683,84.05599,47,70,0
83.57683,84.05599,51,70,0
83.57683,84.05599,56,70,0
84.07683,84.55599,47,70,0
84.07683,84.55599,51,70,0
84.07683,84.55599,56,70,0
84.57683,85.05599,48,70,0
84.57683,85.05599,51,70,0
84.57683,85.05599,56,70,0
85.07683,85.55599,48,70,0
85.07683,85.55599,51,70,0
85.07683,85.55599,56,70,0
85.57683,86.05599,48,70,0
85.57683,86.05599,51,70,0
85.57683,86.05599,56,70,0
86.07683,86.55599,49,70,0
86.07683,86.55599,52,70,0
86.07683,86.55599,56,70,0
86.57683,87.05599,49,70,0
86.57683,87.05599,52,70,0
86.57683,87.05599,56,70,0
87.07683,87.55599,49,70,0
87.07683,87.55599,52,70,0
87.07683,87.55599,56,70,0
87.57683,88.05599,52,70,0
87.57683,88.05599,56,70,0
87.57683,88.05599,61,70,0
88.07683,88.55599,52,70,0
88.07683,88.55599,56,70,0
88.07683,88.55599,61,70,0
88.57683,89.05599,52,70,0
88.57683,89.05599,56,70,0
88.57683,89.05599,61,70,0
89.07683,89.55599,51,70,0
89.07683,89.55599,56,70,0
89.07683,89.55599,59,70,0
89.57683,90.05599,51,70,0
89.57683,90.05599,56,70,0
89.57683,90.05599,59,70,0
90.07683,90.55599,51,70,0
90.07683,90.55599,56,70,0
90.07683,90.55599,59,70,0
90.57683,91.05599,51,70,0
90.57683,91.05599,56,70,0
90.57683,91.05599,59,70,0
91.07683,91.55599,51,70,0
91.07683,91.55599,56,70,0
91.07683,91.55599,59,70,0
91.57683,92.05599,51,70,0
91.57683,92.05599,56,70,0
91.57683,92.05599,59,70,0
92.07683,92.55599,51,70,0
92.07683,92.55599,55,70,0
92.07683,92.55599,58,70,0
92.57683,93.05599,51,70,0
92.57683,93.05599,55,70,0
92.57683,93.05599,58,70,0
93.07683,93.55599,51,70,0
93.07683,93.55599,55,70,0
93.07683,93.55599,58,70,0
93.57683,94.05599,49,70,0
93.57683,94.05599,51,70,0
93.57683,94.05599,55,70,0
93.57683,94.05599,58,70,0
94.07683,94.55599,47,70,0
94.07683,94.55599,51,70,0
94.07683,94.55599,56,70,0
94.57683,95.05599,46,70,0
94.57683,95.05599,51,70,0
94.57683,95.05599,55,70,0
95.07683,95.55599,44,70,0
95.07683,95.55599,51,70,0
95.07683,95.55599,56,70,0
95.57683,96.05599,44,71,0
95.57683,96.05599,47,71,0
95.57683,96.05599,51,71,0
96.07683,96.55599,44,72,0
96.07683,96.55599,47,72,0
96.07683,96.55599,51,72,0
96.57683,97.05599,44,73,0
96.57683,97.05599,47,73,0
96.57683,97.05599,51,73,0
97.07683,97.55599,44,74,0
97.07683,97.55599,47,74,0
97.07683,97.55599,51,74,0
97.57683,98.05599,44,75,0
97.57683,98.05599,47,75,0
97.57683,98.05599,51,75,0
98.07683,98.55599,42,76,0
98.07683,98.55599,47,76,0
98.07683,98.55599,52,76,0
98.57683,99.05599,42,77,0
98.57683,99.05599,47,77,0
98.57683,99.05599,52,77,0
99.07683,99.55599,42,78,0
99.07683,99.55599,47,78,0
99.07683,99.55599,52,78,0
99.57683,100.05599,42,79,0
99.57683,100.05599,47,79,0
99.57683,100.05599,52,79,0
100.07683,100.55599,42,80,0
100.07683,100.55599,47,80,0
100.07683,100.55599,52,80,0
100.57683,101.05599,42,81,0
100.57683,101.05599,47,81,0
100.57683,101.05599,52,81,0
101.07683,101.55599,42,82,0
101.07683,101.55599,47,82,0
101.07683,101.55599,51,82,0
101.57683,102.05599,42,83,0
101.57683,102.05599,47,83,0
101.57683,102.05599,51,83,0
102.07683,102.55599,42,84,0
102.07683,102.55599,47,84,0
102.07683,102.55599,51,84,0
102.57683,103.05599,47,86,0
102.57683,103.05599,54,86,0
102.57683,103.05599,59,86,0
103.07683,103.55599,47,87,0
103.07683,103.55599,54,87,0
103.07683,103.55599,59,87,0
103.57683,104.05599,47,88,0
103.57683,104.05599,54,88,0
103.57683,104.05599,59,88,0
104.07683,104.55599,49,89,0
104.07683,104.55599,52,89,0
104.07683,104.55599,59,89,0
104.57683,105.05599,49,90,0
104.57683,105.05599,52,90,0
104.57683,105.05599,59,90,0
105.07683,105.55599,49,91,0
105.07683,105.55599,52,91,0
105.07683,105.55599,59,91,0
105.57683,106.05599,49,92,0
105.57683,106.05599,52,92,0
105.57683,106.05599,58,92,0
106.07683,106.55599,49,93,0
106.07683,106.55599,52,93,0
106.07683,106.55599,58,93,0
106.57683,107.05599,49,94,0
106.57683,107.05599,52,94,0
106.57683,107.05599,58,94,0
107.07683,107.55599,51,95,0
107.07683,107.55599,54,95,0
107.07683,107.55599,59,95,0
107.57683,108.05599,51,96,0
107.57683,108.05599,54,96,0
107.57683,108.05599,59,96,0
108.07683,108.55599,51,97,0
108.07683,108.55599,54,97,0
108.07683,108.55599,59,97,0
108.57683,109.040535,52,98,0
108.57683,109.040535,59,98,0
108.57683,109.040535,64,98,0
109.0607,109.52441,52,99,0
109.0607,109.52441,59,99,0
109.0607,109.52441,64,99,0
109.54457,110.023735,52,100,0
109.54457,110.023735,59,100,0
109.54457,110.023735,64,100,0
110.04457,110.523735,54,100,0
110.04457,110.523735,59,100,0
110.04457,110.523735,63,100,0
110.54457,111.00828,54,100,0
110.54457,111.00828,59,100,0
110.54457,111.00828,63,100,0
111.02844,111.49215,54,100,0
111.02844,111.49215,59,100,0
111.02844,111.49215,63,100,0
111.512314,111.96153,54,100,0
111.512314,111.96153,58,100,0
111.512314,111.96153,61,100,0
111.512314,111.96153,64,100,0
111.981064,112.46023,54,100,0
111.981064,112.46023,58,100,0
111.981064,112.46023,61,100,0
111.981064,112.46023,64,100,0
112.481064,113.05606,54,87,0
112.481064,113.05606,58,87,0
112.481064,113.05606,61,87,0
112.481064,113.05606,64,87,0
113.08106,113.65606,55,70,0
113.08106,113.65606,58,70,0
113.08106,113.65606,61,70,0
113.08106,113.65606,64,70,0
113.68106,114.14477,55,70,0
113.68106,114.14477,58,70,0
113.68106,114.14477,61,70,0
113.68106,114.14477,64,70,0
114.16493,114.62864,55,70,0
114.16493,114.62864,58,70,0
114.16493,114.62864,61,70,0
114.16493,114.62864,64,70,0
114.6488,115.11251,54,70,0
114.6488,115.11251,58,70,0
114.6488,115.11251,61,70,0
114.6488,115.11251,64,70,0
115.132675,115.59638,54,70,0
115.132675,115.59638,58,70,0
115.132675,115.59638,61,70,0
115.132675,115.59638,64,70,0
115.61655,116.08025,66,70,0
115.61655,116.08025,54,70,0
115.61655,116.08025,58,70,0
115.61655,116.08025,61,70,0
116.10042,116.53602,59,70,0
116.10042,116.53602,63,70,0
116.10042,116.53602,66,70,0
116.55496,116.99057,59,70,0
116.55496,116.99057,63,70,0
116.55496,116.99057,66,70,0
117.00951,117.445114,59,70,0
117.00951,117.445114,63,70,0
117.00951,117.445114,66,70,0
117.46405,117.91327,59,70,0
117.46405,117.91327,63,70,0
117.46405,117.91327,66,70,0
117.9328,118.38202,59,70,0
117.9328,118.38202,63,70,0
117.9328,118.38202,66,70,0
118.40155,118.85077,59,70,0
118.40155,118.85077,63,70,0
118.40155,118.85077,66,70,0
118.8703,119.31952,60,70,0
118.8703,119.31952,63,70,0
118.8703,119.31952,66,70,0
119.33905,119.78827,60,70,0
119.33905,119.78827,63,70,0
119.33905,119.78827,66,70,0
119.8078,120.25702,60,70,0
119.8078,120.25702,63,70,0
119.8078,120.25702,66,70,0
120.27655,120.72577,60,70,0
120.27655,120.72577,63,70,0
120.27655,120.72577,66,70,0
120.7453,121.19452,60,70,0
120.7453,121.19452,63,70,0
120.7453,121.19452,66,70,0
121.21405,121.66327,60,70,0
121.21405,121.66327,63,70,0
121.21405,121.66327,66,70,0
121.6828,122.13202,60,70,0
121.6828,122.13202,63,70,0
121.6828,122.13202,66,70,0
122.15155,122.60077,60,70,0
122.15155,122.60077,63,70,0
122.15155,122.60077,66,70,0
122.6203,123.06952,60,70,0
122.6203,123.06952,63,70,0
122.6203,123.06952,66,70,0
123.08905,123.55276,68,70,0
123.08905,123.55276,60,70,0
123.08905,123.55276,63,70,0
123.08905,123.55276,66,70,0
123.57292,124.052086,68,70,0
123.57292,124.052086,60,70,0
123.57292,124.052086,63,70,0
123.57292,124.052086,66,70,0
124.07292,124.60533,68,70,0
124.07292,124.60533,60,70,0
124.07292,124.60533,63,70,0
124.07292,124.60533,66,70,0
124.62848,125.10764,68,70,0
124.62848,125.10764,64,70,0
124.62848,125.10764,61,70,0
125.12848,125.5777,68,70,0
125.12848,125.5777,64,70,0
125.12848,125.5777,61,70,0
125.59723,126.04645,68,70,0
125.59723,126.04645,64,70,0
125.59723,126.04645,61,70,0
126.06598,126.5152,68,70,0
126.06598,126.5152,64,70,0
126.06598,126.5152,61,70,0
126.53473,126.98395,61,70,0
126.53473,126.98395,56,70,0
126.53473,126.98395,49,70,0
127.00348,127.4527,61,70,0
127.00348,127.4527,56,70,0
127.00348,127.4527,49,70,0
127.47223,127.92145,61,70,0
127.47223,127.92145,56,70,0
127.47223,127.92145,49,70,0
127.94098,128.42015,61,70,0
127.94098,128.42015,56,70,0
127.94098,128.42015,49,70,0
128.44098,128.92827,61,70,0
128.44098,128.92827,56,70,0
128.44098,128.92827,49,70,0
128.94945,129.43674,59,70,0
128.94945,129.43674,56,70,0
128.94945,129.43674,51,70,0
129.45793,129.94522,59,70,0
129.45793,129.94522,56,70,0
129.45793,129.94522,51,70,0
129.9664,130.45369,59,70,0
129.9664,130.45369,56,70,0
129.9664,130.45369,51,70,0
130.47487,130.96216,52,70,0
130.47487,130.96216,56,70,0
130.47487,130.96216,61,70,0
130.98335,131.47064,52,70,0
130.98335,131.47064,56,70,0
130.98335,131.47064,61,70,0
131.49182,131.97911,52,70,0
131.49182,131.97911,56,70,0
131.49182,131.97911,61,70,0
132.0003,132.48758,51,70,0
132.0003,132.48758,56,70,0
132.0003,132.48758,59,70,0
132.50877,132.99606,51,70,0
132.50877,132.99606,56,70,0
132.50877,132.99606,59,70,0
133.01724,133.50453,51,70,0
133.01724,133.50453,56,70,0
133.01724,133.50453,59,70,0
133.52573,134.01302,49,70,0
133.52573,134.01302,52,70,0
133.52573,134.01302,58,70,0
134.0342,134.52148,49,70,0
134.0342,134.52148,52,70,0
134.0342,134.52148,58,70,0
134.54268,135.02995,49,70,0
134.54268,135.02995,52,70,0
134.54268,135.02995,58,70,0
135.05115,135.53844,58,70,0
135.05115,135.53844,53,70,0
135.05115,135.53844,50,70,0
135.55962,136.03879,61,70,0
135.55962,136.03879,58,70,0
135.55962,136.03879,53,70,0
135.55962,136.03879,50,70,0
136.05962,136.53879,61,70,0
136.05962,136.53879,58,70,0
136.05962,136.53879,53,70,0
136.05962,136.53879,50,70,0
136.55962,137.03879,51,70,0
136.55962,137.03879,56,70,0
136.55962,137.03879,59,70,0
137.05962,137.53879,51,70,0
137.05962,137.53879,56,70,0
137.05962,137.53879,59,70,0
137.55962,138.03879,51,70,0
137.55962,138.03879,56,70,0
137.55962,138.03879,59,70,0
138.05962,138.52333,51,70,0
138.05962,138.52333,59,70,0
138.05962,138.52333,62,70,0
138.54349,139.0072,51,70,0
138.54349,139.0072,59,70,0
138.54349,139.0072,62,70,0
139.02736,139.49107,51,70,0
139.02736,139.49107,59,70,0
139.02736,139.49107,62,70,0
139.51123,139.96045,51,70,0
139.51123,139.96045,58,70,0
139.51123,139.96045,63,70,0
139.97998,140.4292,51,70,0
140.44873,140.89795,51,70,0
140.91748,141.3812,51,70,0
141.40135,141.86507,51,70,0
141.88522,142.37251,49,70,0
141.88522,142.37251,51,70,0
142.39369,142.88098,47,70,0
142.39369,142.88098,51,70,0
142.90218,143.3514,47,70,0
142.90218,143.3514,51,70,0
143.37093,143.82014,47,70,0
143.37093,143.82014,51,70,0
143.83968,144.2889,47,70,0
143.83968,144.2889,51,70,0
144.30843,144.75764,47,70,0
144.30843,144.75764,51,70,0
144.77718,145.2264,47,70,0
144.77718,145.2264,51,70,0
145.24593,145.69514,46,70,0
145.24593,145.69514,51,70,0
145.71468,146.1639,46,70,0
145.71468,146.1639,51,70,0
146.18343,146.63264,46,70,0
146.18343,146.63264,51,70,0
146.65218,147.1014,46,70,0
146.65218,147.1014,51,70,0
147.12093,147.60008,46,70,0
147.12093,147.60008,51,70,0
147.62093,148.14365,46,70,0
147.62093,148.14365,51,70,0
148.16638,148.6156,44,70,0
148.16638,148.6156,51,70,0
148.63513,149.08435,44,70,0
148.63513,149.08435,51,70,0
149.10388,149.5531,44,70,0
149.10388,149.5531,51,70,0
149.57263,150.02185,44,70,0
149.57263,150.02185,51,70,0
150.04138,150.4906,44,70,0
150.04138,150.4906,51,70,0
150.51013,150.95935,44,70,0
150.51013,150.95935,51,70,0
150.97888,151.4281,43,70,0
150.97888,151.4281,51,70,0
151.44763,151.89685,43,70,0
151.44763,151.89685,51,70,0
151.91638,152.3656,43,70,0
151.91638,152.3656,51,70,0
152.38513,152.83435,42,70,0
152.38513,152.83435,51,70,0
152.85388,153.3031,42,70,0
152.85388,153.3031,51,70,0
153.32263,153.77185,56,70,0
153.32263,153.77185,54,70,0
153.79138,154.2406,52,70,0
153.79138,154.2406,56,70,0
154.26013,154.70935,52,70,0
154.26013,154.70935,56,70,0
154.26013,154.70935,61,70,0
154.72888,155.1781,52,70,0
154.72888,155.1781,56,70,0
154.72888,155.1781,61,70,0
155.19763,155.64685,52,70,0
155.19763,155.64685,56,70,0
155.19763,155.64685,61,70,0
155.66638,156.1156,51,70,0
155.66638,156.1156,56,70,0
155.66638,156.1156,60,70,0
156.13513,156.58435,49,70,0
156.13513,156.58435,56,70,0
156.13513,156.58435,61,70,0
156.60388,157.0531,51,70,0
156.60388,157.0531,56,70,0
156.60388,157.0531,59,70,0
157.07263,157.52185,51,70,0
157.07263,157.52185,56,70,0
157.07263,157.52185,59,70,0
157.54138,157.9906,51,70,0
157.54138,157.9906,56,70,0
157.54138,157.9906,59,70,0
158.01013,158.48145,51,70,0
158.01013,158.48145,55,70,0
158.01013,158.48145,58,70,0
158.01013,158.48145,61,70,0
158.50194,159.00632,51,70,0
158.50194,159.00632,55,70,0
158.50194,159.00632,58,70,0
158.50194,159.00632,61,70,0
159.02824,159.56065,51,70,0
159.02824,159.56065,55,70,0
159.02824,159.56065,58,70,0
159.02824,159.56065,61,70,0
159.5838,160.0972,52,70,0
159.5838,160.0972,55,70,0
159.5838,160.0972,58,70,0
159.5838,160.0972,61,70,0
160.11952,160.59868,52,70,0
160.11952,160.59868,55,70,0
160.11952,160.59868,58,70,0
160.11952,160.59868,61,70,0
160.61952,161.09868,52,70,0
160.61952,161.09868,55,70,0
160.61952,161.09868,58,70,0
160.61952,161.09868,61,70,0
161.11952,161.59868,51,70,0
161.11952,161.59868,55,70,0
161.11952,161.59868,58,70,0
161.11952,161.59868,61,70,0
161.61952,162.1724,51,70,0
161.61952,162.1724,55,70,0
161.61952,162.1724,58,70,0
161.61952,162.1724,61,70,0
162.19644,162.91519,51,70,0
162.19644,162.91519,55,70,0
162.19644,162.91519,58,70,0
162.19644,162.91519,61,70,0
162.94644,165.16519,59,80,0
162.94644,165.16519,56,80,0
165.19644,167.27144,35,80,0
165.19644,167.27144,47,80,0
167.29643,169.07144,34,75,0
167.29643,169.07144,46,75,0
169.09644,170.73996,39,71,0
169.09644,170.73996,51,71,0
170.7631,172.46983,32,70,0
170.7631,172.46983,44,70,0
172.49388,174.55783,32,70,0
172.49388,174.55783,44,70,0
174.5869,176.82127,32,70,0
174.5869,176.82127,44,70,0
179.0869,179.83429,56,80,0
179.8369,180.5817,61,80,0
180.5869,181.3317,58,80,0
181.3369,182.0817,63,80,0
182.0869,182.8317,60,80,0
182.8369,183.5817,65,80,0
183.5869,184.17545,63,80,0
184.0869,184.3317,61,80,0
184.3369,185.3317,60,80,0
185.3369,185.5817,56,80,0
185.5869,185.8317,55,80,0
185.8369,186.0817,53,80,0
186.0869,186.3317,55,80,0
186.3369,186.5817,51,80,0
186.5869,186.8317,50,80,0
186.8369,187.0817,51,80,0
187.0869,187.3317,53,80,0
187.3369,187.5817,55,80,0
187.5869,187.8317,56,80,0
187.8369,188.0817,53,80,0
188.0869,188.3317,52,80,0
188.3369,188.5817,53,80,0
188.5869,188.8317,55,80,0
188.8369,189.0817,56,80,0
189.0869,189.3317,55,80,0
189.3369,189.5817,56,80,0
189.5869,189.8317,58,80,0
189.8369,190.0817,60,80,0
190.0869,190.3317,61,80,0
190.3369,190.5817,63,80,0
190.5869,190.8317,65,80,0
190.8369,191.0817,62,80,0
191.0869,191.3317,63,80,0
191.3369,191.5817,65,80,0
191.5869,191.8317,61,80,0
191.8369,192.0817,60,80,0
192.0869,192.3317,63,80,0
192.3369,192.5817,61,80,0
192.5869,192.8317,60,80,0
192.8369,193.0817,61,80,0
193.0869,193.5817,63,80,0
193.5869,193.8317,60,80,0
193.8369,194.3317,61,80,0
194.3369,194.5817,59,80,0
194.5869,195.0817,60,80,0
195.0869,195.3317,58,80,0
195.3369,195.5817,61,80,0
195.5869,196.0817,63,80,0
196.0869,196.3317,61,80,0
196.3369,196.8317,60,80,0
196.8369,197.2067,48,80,0
197.0869,197.5817,53,80,0
197.5869,197.8317,51,80,0
197.8369,198.3317,49,80,0
198.3369,198.5817,49,80,0
198.5869,198.8317,51,80,0
198.8369,199.0817,53,80,0
199.0869,199.3317,55,80,0
199.3369,199.5817,56,80,0
199.5869,199.8317,60,80,0
199.8369,200.0817,58,80,0
200.0869,200.3317,56,80,0
200.3369,200.5817,58,80,0
200.5869,200.8317,55,80,0
200.8369,201.0817,53,80,0
201.0869,201.3317,56,80,0
201.3369,201.5817,55,80,0
201.5869,201.8317,53,80,0
201.8369,202.0817,52,80,0
202.0869,202.3317,53,80,0
202.3369,202.5817,55,80,0
202.5869,202.8317,58,80,0
202.8369,203.0817,56,80,0
203.0869,203.3317,55,80,0
203.3369,203.5817,56,80,0
203.5869,203.8317,53,80,0
203.8369,204.0817,52,80,0
204.0869,204.3317,55,80,0
204.3369,204.5817,53,80,0
204.5869,204.8317,52,80,0
204.8369,205.0817,50,80,0
205.0869,205.3317,52,80,0
205.3369,205.5817,53,80,0
205.5869,205.8317,51,83,0
205.8369,206.0817,50,86,0
206.0869,206.3317,51,90,0
206.3369,206.5817,48,93,0
206.5869,206.8317,44,97,0
206.8369,207.0817,44,100,0
207.0869,207.5817,46,104,0
207.5869,208.3317,48,110,0
207.5869,208.3317,36,110,0
208.3369,209.08429,56,110,0
208.3369,209.08429,44,110,0
209.0869,209.83429,41,110,0
209.0869,209.83429,53,110,0
209.8369,210.58429,46,110,0
209.8369,210.58429,58,110,0
210.5869,211.33429,43,110,0
210.5869,211.33429,55,110,0
211.3369,212.08429,48,110,0
211.3369,212.08429,60,110,0
212.0869,212.58429,58,110,0
212.0869,212.58429,46,110,0
212.5869,212.83429,56,110,0
212.5869,212.83429,44,110,0
212.8369,213.58429,43,110,0
212.8369,213.58429,55,110,0
213.5869,215.08429,46,110,0
213.5869,215.08429,58,110,0
215.0869,215.58429,56,103,0
215.0869,215.58429,44,103,0
215.5869,215.83429,54,100,0
215.5869,215.83429,42,100,0
215.8369,216.83429,53,99,0
215.8369,216.83429,41,99,0
216.8369,217.08429,54,94,0
217.0869,217.58429,53,92,0
217.5869,217.83429,49,90,0
217.8369,218.33429,51,88,0
218.3369,218.58429,53,86,0
218.5869,219.08429,51,84,0
219.0869,219.33429,48,82,0
219.3369,219.83429,49,81,0
219.8369,220.08429,47,80,0
220.0869,220.33429,48,80,0
220.3369,220.58429,46,80,0
220.5869,220.83429,48,80,0
220.8369,221.08429,44,80,0
221.0869,221.33429,43,80,0
221.3369,221.58429,44,80,0
221.5869,221.83429,46,80,0
221.8369,222.08429,48,80,0
222.0869,222.33429,49,80,0
222.3369,222.58429,46,80,0
222.5869,222.83429,45,80,0
222.8369,223.08429,46,80,0
223.0869,223.33429,48,80,0
223.3369,223.58429,49,80,0
223.5869,223.83429,48,80,0
223.8369,224.08429,50,80,0
224.0869,224.33429,51,80,0
224.3369,224.58429,53,80,0
224.5869,224.83429,55,80,0
224.8369,225.08429,56,80,0
225.0869,225.33429,58,80,0
225.3369,225.58429,55,80,0
225.5869,225.83429,53,80,0
225.8369,226.08429,52,80,0
226.0869,226.33429,53,80,0
226.3369,226.58429,55,80,0
226.5869,226.83429,56,80,0
226.8369,227.08429,53,80,0
227.0869,227.33429,52,80,0
227.3369,227.58429,50,80,0
227.5869,227.83429,52,80,0
227.8369,228.33429,53,80,0
228.3369,228.58429,51,80,0
228.5869,229.08429,49,80,0
229.0869,229.33429,48,80,0
229.3369,229.83429,46,80,0
229.8369,230.08429,47,80,0
230.0869,230.58429,48,80,0
230.5869,230.83429,46,80,0
230.8369,231.33429,44,80,0
231.3369,231.58429,45,80,0
231.5869,232.14786,46,80,0
232.15088,232.45383,44,80,0
232.45702,232.74246,43,80,0
232.74547,233.00362,44,80,0
233.00633,233.25374,43,80,0
233.25633,233.50374,41,80,0
233.50633,233.75374,39,80,0
233.75633,234.00374,37,80,0
234.00633,234.25374,36,80,0
234.25633,234.50374,37,80,0
234.50633,234.75374,34,80,0
234.75633,235.00374,33,80,0
235.00633,235.25374,34,80,0
235.25633,235.50374,36,80,0
235.50633,235.75113,37,80,0
235.75633,236.00113,39,80,0
236.00633,236.25113,36,80,0
236.25633,236.50113,34,80,0
236.50633,236.75113,36,80,0
236.75633,237.25113,37,80,0
237.25633,237.50113,36,80,0
237.50633,237.75113,39,80,0
237.75633,238.00113,37,80,0
238.00633,238.25113,41,80,0
238.25633,238.50113,37,80,0
238.50633,238.75113,39,80,0
238.75633,239.00113,43,81,0
239.00633,239.25113,41,82,0
239.25633,239.50113,39,83,0
239.50633,239.75113,38,84,0
239.75633,240.00113,39,85,0
240.00633,240.25113,40,87,0
240.25633,240.50113,43,88,0
240.50633,240.75113,41,89,0
240.75633,241.00113,40,90,0
241.00633,241.25113,38,91,0
241.25633,241.50113,40,93,0
241.50633,241.75113,41,94,0
241.75633,242.00113,45,95,0
242.00633,242.25113,43,96,0
242.25633,242.50113,41,97,0
242.50633,242.75113,43,99,0
242.75633,243.00113,45,100,0
243.00633,243.25113,42,101,0
243.25633,243.50113,45,102,0
243.50633,243.75113,43,103,0
243.75633,244.00113,42,105,0
244.00633,244.25113,43,106,0
244.25633,244.50113,45,107,0
244.50633,244.75113,43,108,0
244.75633,245.00113,50,109,0
245.00633,245.25113,48,110,0
245.25633,245.50113,47,110,0
245.50633,245.75113,48,110,0
245.75633,246.00113,50,110,0
246.00633,246.25113,50,110,0
246.25633,246.50113,51,100,0
246.50633,246.75113,53,98,0
249.10179,250.53679,43,120,0
249.10179,250.53679,31,120,0
250.5418,251.25679,48,120,0
250.5418,251.25679,36,120,0
251.2618,251.97679,45,120,0
251.2618,251.97679,33,120,0
251.9818,252.6968,38,120,0
251.9818,252.6968,50,120,0
252.7018,253.4168,47,120,0
252.7018,253.4168,35,120,0
253.4218,254.1368,51,120,0
253.4218,254.1368,39,120,0
254.1418,254.8568,48,120,0
254.1418,254.8568,36,120,0
254.8618,255.5768,53,120,0
254.8618,255.5768,41,120,0
255.58179,256.29678,50,120,0
255.58179,256.29678,38,120,0
256.3018,257.01678,55,120,0
256.3018,257.01678,43,120,0
257.0218,257.7368,52,120,0
257.0218,257.7368,40,120,0
257.7418,258.2168,57,120,0
257.7418,258.2168,45,120,0
258.2218,258.4568,55,120,0
258.2218,258.4568,43,120,0
258.4618,258.6968,53,120,0
258.4618,258.6968,41,120,0
258.70178,258.9368,55,120,0
258.70178,258.9368,43,120,0
258.9418,259.1768,57,120,0
258.9418,259.1768,45,120,0
259.1818,259.8968,58,120,0
259.1818,259.8968,46,120,0
259.9018,260.6168,60,120,0
259.9018,260.6168,48,120,0
260.6218,261.3368,61,120,0
260.6218,261.3368,49,120,0
261.3418,261.58658,60,80,0
261.5918,261.83658,61,80,0
261.8418,262.33658,63,80,0
262.3418,262.58658,61,80,0
262.5918,263.08658,58,80,0
263.0918,263.33658,57,80,0
263.3418,263.83658,60,80,0
263.8418,264.08658,58,80,0
264.0918,264.33658,61,80,0
264.3418,264.58658,55,110,0
264.5918,264.83658,56,110,0
264.8418,265.33658,58,110,0
265.3418,265.58658,56,110,0
265.5918,266.08658,60,110,0
266.0918,266.33658,58,110,0
266.3418,266.83658,61,110,0
266.8418,267.08658,60,110,0
267.0918,267.33658,63,110,0
267.3418,267.58658,58,80,0
267.5918,267.83658,60,80,0
267.8418,268.33658,61,80,0
268.3418,268.58658,60,80,0
268.5918,269.08658,56,80,0
269.0918,269.33658,55,80,0
269.3418,269.84723,58,80,0
269.85266,270.1081,56,80,0
270.11353,270.38058,54,80,0
270.38626,270.66602,53,80,0
270.67197,270.96573,52,80,0
270.972,271.29837,53,80,0
271.3053,271.59906,51,80,0
271.60532,271.8501,53,80,0
271.85532,272.3501,49,80,0
272.35532,272.6001,48,80,0
272.60532,273.1001,54,80,0
273.10532,273.3501,53,80,0
273.35532,273.6001,51,80,0
273.60532,273.8501,49,80,0
273.85532,274.1001,58,80,0
274.10532,274.3501,56,80,0
274.35532,274.6001,55,80,0
274.60532,274.8501,51,80,0
274.85532,275.1001,49,80,0
275.10532,275.3501,48,80,0
275.35532,275.6001,49,80,0
275.60532,275.8501,51,80,0
275.85532,276.1001,49,80,0
276.10532,276.3501,51,80,0
276.35532,276.8501,49,80,0
276.85532,277.1001,47,80,0
277.10532,277.6001,48,80,0
277.60532,277.8501,46,80,0
277.85532,278.1001,49,80,0
278.10532,278.3501,51,80,0
278.35532,278.6001,53,80,0
278.60532,278.8501,49,80,0
278.85532,279.1001,48,80,0
279.10532,279.3501,44,80,0
279.60532,280.3501,56,80,0
280.35532,281.1001,61,80,0
281.10532,281.8501,58,80,0
281.85532,282.3501,63,80,0
282.35532,282.8501,60,80,0
282.85532,283.1001,58,80,0
283.10532,283.3501,56,80,0
283.35532,283.6001,55,80,0
283.60532,283.8501,56,80,0
283.85532,284.1001,58,80,0
284.10532,284.3501,60,80,0
284.35532,284.6001,50,80,0
284.60532,284.8501,52,80,0
284.85532,285.1001,53,80,0
285.10532,285.3501,55,80,0
285.35532,285.61075,56,80,0
285.61618,285.8832,58,80,0
285.88892,286.16867,48,80,0
286.17462,286.46835,50,80,0
286.4746,286.96942,51,80,0
286.4746,286.96942,39,80,0
286.9746,288.46942,39,83,0
286.9746,289.43817,51,83,0
288.4746,289.43817,51,92,0
288.4746,289.96942,39,92,0
289.9746,290.50253,51,101,0
289.9746,290.50253,39,101,0
290.5082,290.78796,49,104,0
290.5082,290.78796,37,104,0
290.7939,291.12033,48,106,0
290.7939,291.12033,36,106,0
291.12726,291.42102,46,107,0
291.12726,291.42102,34,107,0
291.42725,291.67206,48,109,0
291.42725,291.67206,36,109,0
291.67725,291.92206,49,110,0
291.67725,291.92206,37,110,0
291.92725,292.67206,39,110,0
291.92725,292.67206,27,110,0
292.67725,293.42206,44,110,0
292.67725,293.42206,32,110,0
293.42725,294.17206,41,110,0
293.42725,294.17206,29,110,0
294.17725,294.92206,46,110,0
294.17725,294.92206,34,110,0
294.92725,295.67206,43,110,0
294.92725,295.67206,31,110,0
295.67725,296.42206,48,110,0
295.67725,296.42206,36,110,0
296.42725,296.92206,46,110,0
296.42725,296.92206,34,110,0
296.92725,297.17206,44,110,0
296.92725,297.17206,32,110,0
297.17725,297.92206,43,110,0
297.17725,297.92206,31,110,0
297.92725,298.67206,42,80,0
297.92725,298.67206,30,80,0
298.67725,299.17206,41,80,0
298.67725,299.17206,29,80,0
299.17725,299.42206,41,80,0
299.17725,299.42206,29,80,0
299.42725,299.92206,39,80,0
299.42725,299.92206,27,80,0
299.92725,300.17206,37,80,0
299.92725,300.17206,25,80,0
300.17725,300.67206,36,80,0
300.17725,300.67206,24,80,0
300.67725,300.92206,56,80,0
300.67725,300.92206,44,80,0
300.92725,301.42206,61,80,0
300.92725,301.42206,49,80,0
301.42725,301.67206,58,92,0
301.42725,301.67206,46,92,0
301.67725,302.17206,63,98,0
301.67725,302.17206,51,98,0
302.17725,302.42206,60,110,0
302.17725,302.42206,48,110,0
302.42725,302.92206,65,110,0
302.42725,302.92206,53,110,0
302.92725,303.17206,67,110,0
302.92725,303.17206,55,110,0
303.17725,303.68475,68,110,0
303.17725,303.68475,56,110,0
303.6901,303.94553,64,110,0
303.6901,303.94553,52,110,0
303.95096,304.21323,65,110,0
303.95096,304.21323,53,110,0
304.2188,304.48584,61,110,0
304.2188,304.48584,49,110,0
304.49155,304.78528,62,110,0
304.49155,304.78528,50,110,0
304.79153,305.68527,63,110,0
304.79153,305.68527,51,110,0
305.69153,306.20782,39,120,0
305.69153,306.20782,51,120,0
307.7785,308.2948,43,101,0
307.5176,308.2948,46,104,0
307.25674,308.2948,49,106,0
308.03937,310.6826,39,99,0
308.30023,310.6826,43,97,0
308.5611,310.6826,46,94,0
308.82196,310.6826,49,92,0
309.0947,310.6826,55,90,0
309.36743,310.6826,58,87,0
310.6915,314.68225,39,80,0
310.6915,314.68225,51,80,0
314.6915,315.9415,50,80,0
314.6915,315.9415,38,80,0
317.2267,317.63165,50,80,0
317.64926,318.89926,46,80,0
318.07178,318.89926,43,80,0
318.49432,318.89926,38,80,0
318.91687,319.32178,46,80,0
318.91687,319.32178,38,80,0
318.91687,319.32178,34,80,0
319.3394,319.74432,46,80,0
319.3394,319.74432,38,80,0
319.3394,319.74432,34,80,0
319.76193,320.15045,46,80,0
319.76193,320.15045,38,80,0
319.76193,320.15045,34,80,0
320.16733,320.55585,43,80,0
320.16733,320.55585,38,80,0
320.16733,320.55585,31,80,0
320.57275,320.96124,46,80,0
320.57275,320.96124,43,80,0
320.97815,321.42044,46,80,0
320.97815,321.42044,43,80,0
321.4397,321.91885,46,80,0
321.4397,321.91885,43,80,0
321.9397,322.47208,46,80,0
321.9397,322.47208,43,80,0
322.49524,322.9744,50,70,0
322.49524,322.9744,46,70,0
322.49524,322.9744,43,70,0
322.99524,323.38376,50,70,0
322.99524,323.38376,46,70,0
322.99524,323.38376,43,70,0
323.40063,323.78915,50,70,0
323.40063,323.78915,46,70,0
323.40063,323.78915,43,70,0
323.80606,324.19455,50,70,0
323.80606,324.19455,46,70,0
323.80606,324.19455,43,70,0
324.21146,324.59998,50,70,0
324.21146,324.59998,46,70,0
324.21146,324.59998,43,70,0
324.61685,325.00537,50,70,0
324.61685,325.00537,46,70,0
324.61685,325.00537,43,70,0
325.02228,325.41077,50,70,0
325.02228,325.41077,46,70,0
325.02228,325.41077,43,70,0
325.42767,325.8162,50,70,0
325.42767,325.8162,46,70,0
325.42767,325.8162,43,70,0
325.83307,326.2216,50,70,0
325.83307,326.2216,46,70,0
325.83307,326.2216,43,70,0
326.2385,326.6492,50,70,0
326.2385,326.6492,46,70,0
326.2385,326.6492,43,70,0
326.66705,327.1462,50,70,0
326.66705,327.1462,46,70,0
326.66705,327.1462,43,70,0
327.16705,327.6679,50,70,0
327.16705,327.6679,46,70,0
327.16705,327.6679,43,70,0
327.6897,328.13892,45,70,0
327.6897,328.13892,48,70,0
327.6897,328.13892,50,70,0
328.15845,328.56915,45,71,0
328.15845,328.56915,48,71,0
328.15845,328.56915,50,71,0
328.15845,328.56915,54,71,0
328.587,328.99774,45,72,0
328.587,328.99774,48,72,0
328.587,328.99774,50,72,0
328.587,328.99774,54,72,0
329.0156,329.4263,45,73,0
329.0156,329.4263,48,73,0
329.0156,329.4263,50,73,0
329.0156,329.4263,54,73,0
329.44415,329.8549,45,74,0
329.44415,329.8549,48,74,0
329.44415,329.8549,50,74,0
329.44415,329.8549,54,74,0
329.87274,330.28345,45,75,0
329.87274,330.28345,48,75,0
329.87274,330.28345,50,75,0
329.87274,330.28345,54,75,0
330.3013,330.712,45,77,0
330.3013,330.712,48,77,0
330.3013,330.712,50,77,0
330.3013,330.712,54,77,0
330.7299,331.1406,45,78,0
330.7299,331.1406,48,78,0
330.7299,331.1406,50,78,0
330.7299,331.1406,54,78,0
331.15845,331.56915,45,79,0
331.15845,331.56915,48,79,0
331.15845,331.56915,50,79,0
331.15845,331.56915,54,79,0
331.587,331.99774,45,70,0
331.587,331.99774,48,70,0
331.587,331.99774,50,70,0
331.587,331.99774,54,70,0
332.0156,332.4263,45,70,0
332.0156,332.4263,48,70,0
332.0156,332.4263,50,70,0
332.0156,332.4263,54,70,0
332.44415,332.8549,45,70,0
332.44415,332.8549,48,70,0
332.44415,332.8549,50,70,0
332.44415,332.8549,54,70,0
332.87274,333.28345,55,70,0
332.87274,333.28345,50,70,0
332.87274,333.28345,46,70,0
333.3013,333.712,55,71,0
333.3013,333.712,50,71,0
333.3013,333.712,46,71,0
333.7299,334.1406,55,72,0
333.7299,334.1406,50,72,0
333.7299,334.1406,46,72,0
334.15845,334.56915,55,74,0
334.15845,334.56915,50,74,0
334.15845,334.56915,47,74,0
334.587,334.99774,55,75,0
334.587,334.99774,50,75,0
334.587,334.99774,47,75,0
335.0156,335.4263,55,76,0
335.0156,335.4263,50,76,0
335.0156,335.4263,47,76,0
335.44415,335.8549,55,78,0
335.44415,335.8549,51,78,0
335.44415,335.8549,48,78,0
335.87274,336.28345,55,79,0
335.87274,336.28345,51,79,0
335.87274,336.28345,48,79,0
336.3013,336.712,55,81,0
336.3013,336.712,51,81,0
336.3013,336.712,48,81,0
336.7299,337.1406,60,82,0
336.7299,337.1406,55,82,0
336.7299,337.1406,51,82,0
337.15845,337.56915,60,83,0
337.15845,337.56915,55,83,0
337.15845,337.56915,51,83,0
337.587,337.99774,60,85,0
337.587,337.99774,55,85,0
337.587,337.99774,51,85,0
338.0156,338.4263,58,86,0
338.0156,338.4263,55,86,0
338.0156,338.4263,50,86,0
338.44415,338.85486,58,88,0
338.44415,338.85486,55,88,0
338.44415,338.85486,50,88,0
338.87274,339.28345,58,89,0
338.87274,339.28345,55,89,0
338.87274,339.28345,50,89,0
339.3013,339.712,58,90,0
339.3013,339.712,55,90,0
339.3013,339.712,50,90,0
339.72986,340.1406,58,90,0
339.72986,340.1406,55,90,0
339.72986,340.1406,50,90,0
340.15845,340.56915,58,81,0
340.15845,340.56915,55,81,0
340.15845,340.56915,50,81,0
340.587,340.99774,58,71,0
340.587,340.99774,55,71,0
340.587,340.99774,50,71,0
341.0156,341.4263,58,70,0
341.0156,341.4263,55,70,0
341.0156,341.4263,50,70,0
341.44415,341.85486,58,70,0
341.44415,341.85486,55,70,0
341.44415,341.85486,50,70,0
341.87274,342.27203,57,70,0
341.87274,342.27203,54,70,0
341.87274,342.27203,50,70,0
342.2894,342.7001,57,70,0
342.2894,342.7001,54,70,0
342.2894,342.7001,50,70,0
342.71796,343.15356,57,70,0
342.71796,343.15356,54,70,0
342.71796,343.15356,50,70,0
343.17252,343.58322,55,70,0
343.17252,343.58322,50,70,0
343.17252,343.58322,46,70,0
343.17252,343.58322,43,70,0
343.60107,343.9896,55,70,0
343.60107,343.9896,50,70,0
343.60107,343.9896,46,70,0
343.60107,343.9896,43,70,0
344.0065,344.395,55,70,0
344.0065,344.395,50,70,0
344.0065,344.395,46,70,0
344.0065,344.395,43,70,0
344.4119,344.8004,51,70,0
344.4119,344.8004,46,70,0
344.4119,344.8004,43,70,0
344.8173,345.2058,51,70,0
344.8173,345.2058,46,70,0
344.8173,345.2058,43,70,0
345.22272,345.6112,51,70,0
345.22272,345.6112,46,70,0
345.22272,345.6112,43,70,0
345.6281,346.01663,51,70,0
345.6281,346.01663,46,70,0
345.6281,346.01663,41,70,0
346.0335,346.42203,51,70,0
346.0335,346.42203,46,70,0
346.0335,346.42203,41,70,0
346.43893,346.82742,51,70,0
346.43893,346.82742,46,70,0
346.43893,346.82742,41,70,0
346.84433,347.23285,51,70,0
346.84433,347.23285,45,70,0
346.84433,347.23285,41,70,0
347.24973,347.63824,51,70,0
347.24973,347.63824,45,70,0
347.24973,347.63824,41,70,0
347.65512,348.04364,51,70,0
347.65512,348.04364,45,70,0
347.65512,348.04364,41,70,0
348.06055,348.44907,50,70,0
348.06055,348.44907,46,70,0
348.06055,348.44907,41,70,0
348.46594,348.85446,50,71,0
348.46594,348.85446,46,71,0
348.46594,348.85446,41,71,0
348.87134,349.25986,50,73,0
348.87134,349.25986,46,73,0
348.87134,349.25986,41,73,0
349.27676,349.66528,50,75,0
349.27676,349.66528,46,75,0
349.27676,349.66528,44,75,0
349.27676,349.66528,41,75,0
349.68216,350.07068,50,77,0
349.68216,350.07068,46,77,0
349.68216,350.07068,44,77,0
349.68216,350.07068,41,77,0
350.08755,350.47607,50,79,0
350.08755,350.47607,46,79,0
350.08755,350.47607,44,79,0
350.08755,350.47607,41,79,0
350.49298,350.8815,51,80,0
350.49298,350.8815,46,80,0
350.49298,350.8815,43,80,0
350.89838,351.2869,51,82,0
350.89838,351.2869,46,82,0
350.89838,351.2869,43,82,0
351.30377,351.6923,51,84,0
351.30377,351.6923,46,84,0
351.30377,351.6923,43,84,0
351.7092,352.0977,51,86,0
351.7092,352.0977,46,86,0
351.7092,352.0977,39,86,0
352.1146,352.5031,51,88,0
352.1146,352.5031,46,88,0
352.1146,352.5031,39,88,0
352.52,352.9085,51,90,0
352.52,352.9085,46,90,0
352.52,352.9085,39,90,0
352.9254,353.3139,50,91,0
352.9254,353.3139,46,91,0
352.9254,353.3139,38,91,0
353.3308,353.71933,50,93,0
353.3308,353.71933,46,93,0
353.3308,353.71933,38,93,0
353.7362,354.12473,50,95,0
353.7362,354.12473,46,95,0
353.7362,354.12473,38,95,0
354.14163,354.55234,46,97,0
354.14163,354.55234,51,97,0
354.14163,354.55234,39,97,0
354.5702,355.04935,46,99,0
354.5702,355.04935,51,99,0
354.5702,355.04935,39,99,0
355.0702,355.5194,46,100,0
355.0702,355.5194,51,100,0
355.0702,355.5194,39,100,0
355.53894,355.97455,50,100,0
355.53894,355.97455,46,100,0
355.53894,355.97455,41,100,0
355.9935,356.42908,50,100,0
355.9935,356.42908,46,100,0
355.9935,356.42908,41,100,0
356.44803,356.88364,50,100,0
356.44803,356.88364,46,100,0
356.44803,356.88364,41,100,0
356.9026,357.30188,51,89,0
356.9026,357.30188,48,89,0
356.9026,357.30188,42,89,0
357.31924,357.71854,51,78,0
357.31924,357.71854,48,78,0
357.31924,357.71854,42,78,0
357.7359,358.12442,51,66,0
357.7359,358.12442,48,66,0
357.7359,358.12442,42,66,0
357.7359,358.12442,54,66,0
358.14133,358.52982,54,60,0
358.14133,358.52982,51,60,0
358.14133,358.52982,48,60,0
358.14133,358.52982,42,60,0
358.54672,358.93524,54,60,0
358.54672,358.93524,51,60,0
358.54672,358.93524,48,60,0
358.54672,358.93524,42,60,0
358.95212,359.34064,51,60,0
358.95212,359.34064,53,60,0
358.95212,359.34064,48,60,0
358.95212,359.34064,41,60,0
359.35754,359.74603,53,60,0
359.35754,359.74603,51,60,0
359.35754,359.74603,48,60,0
359.35754,359.74603,41,60,0
359.76294,360.15146,51,60,0
359.76294,360.15146,48,60,0
359.76294,360.15146,45,60,0
359.76294,360.15146,41,60,0
360.16833,360.55685,51,60,0
360.16833,360.55685,45,60,0
360.16833,360.55685,41,60,0
360.16833,360.55685,48,60,0
360.57376,360.96225,50,60,0
360.57376,360.96225,46,60,0
360.57376,360.96225,41,60,0
360.97916,361.36768,53,60,0
360.97916,361.36768,50,60,0
360.97916,361.36768,46,60,0
361.38455,361.77307,53,60,0
361.38455,361.77307,50,60,0
361.38455,361.77307,46,60,0
361.78995,362.17847,53,60,0
361.78995,362.17847,50,60,0
361.78995,362.17847,46,60,0
362.19537,362.5839,53,60,0
362.19537,362.5839,50,60,0
362.19537,362.5839,46,60,0
362.60077,362.9893,53,60,0
362.60077,362.9893,50,60,0
362.60077,362.9893,46,60,0
363.00616,363.39468,53,60,0
363.00616,363.39468,50,60,0
363.00616,363.39468,47,60,0
363.00616,363.39468,44,60,0
363.4116,363.8001,53,60,0
363.4116,363.8001,50,60,0
363.4116,363.8001,47,60,0
363.4116,363.8001,44,60,0
363.817,364.2055,53,61,0
363.817,364.2055,50,61,0
363.817,364.2055,47,61,0
363.817,364.2055,44,61,0
364.22238,364.6109,53,62,0
364.22238,364.6109,50,62,0
364.22238,364.6109,47,62,0
364.22238,364.6109,43,62,0
364.6278,365.01633,53,63,0
364.6278,365.01633,50,63,0
364.6278,365.01633,47,63,0
364.6278,365.01633,43,63,0
365.0332,365.42172,56,64,0
365.0332,365.42172,53,64,0
365.0332,365.42172,50,64,0
365.0332,365.42172,48,64,0
365.4386,365.82712,55,65,0
365.4386,365.82712,53,65,0
365.4386,365.82712,50,65,0
365.4386,365.82712,47,65,0
365.84402,366.2325,55,66,0
365.84402,366.2325,53,66,0
365.84402,366.2325,50,66,0
365.84402,366.2325,47,66,0
366.24942,366.63794,55,67,0
366.24942,366.63794,53,67,0
366.24942,366.63794,50,67,0
366.24942,366.63794,47,67,0
366.65482,367.04333,55,68,0
366.65482,367.04333,53,68,0
366.65482,367.04333,50,68,0
366.65482,367.04333,47,68,0
367.06024,367.44873,55,69,0
367.06024,367.44873,53,69,0
367.06024,367.44873,50,69,0
367.06024,367.44873,47,69,0
367.46564,367.85416,55,69,0
367.46564,367.85416,53,69,0
367.46564,367.85416,50,69,0
367.46564,367.85416,47,69,0
367.87103,368.25955,55,70,0
367.87103,368.25955,51,70,0
367.87103,368.25955,48,70,0
368.27646,368.66495,55,70,0
368.27646,368.66495,51,70,0
368.27646,368.66495,48,70,0
368.68185,369.07037,55,70,0
368.68185,369.07037,51,70,0
368.68185,369.07037,48,70,0
369.08725,369.47577,55,70,0
369.08725,369.47577,51,70,0
369.08725,369.47577,48,70,0
369.49268,369.88116,57,70,0
369.49268,369.88116,54,70,0
369.49268,369.88116,48,70,0
369.89807,370.2866,57,70,0
369.89807,370.2866,54,70,0
369.89807,370.2866,48,70,0
370.30347,370.692,57,70,0
370.30347,370.692,54,70,0
370.30347,370.692,48,70,0
370.7089,371.09738,57,70,0
370.7089,371.09738,54,70,0
370.7089,371.09738,48,70,0
371.1143,371.5028,57,70,0
371.1143,371.5028,54,70,0
371.1143,371.5028,48,70,0
371.51968,371.9082,58,70,0
371.51968,371.9082,55,70,0
371.51968,371.9082,46,70,0
371.92508,372.3136,58,70,0
371.92508,372.3136,55,70,0
371.92508,372.3136,46,70,0
372.3305,372.71902,58,70,0
372.3305,372.71902,55,70,0
372.3305,372.71902,46,70,0
372.7359,373.12442,57,70,0
372.7359,373.12442,54,70,0
372.7359,373.12442,45,70,0
373.1413,373.52982,57,70,0
373.1413,373.52982,54,70,0
373.1413,373.52982,45,70,0
373.54672,373.93524,57,70,0
373.54672,373.93524,54,70,0
373.54672,373.93524,45,70,0
373.95212,374.34064,55,70,0
373.95212,374.34064,50,70,0
373.95212,374.34064,43,70,0
374.3575,374.74603,55,70,0
374.3575,374.74603,50,70,0
374.3575,374.74603,43,70,0
374.76294,375.15146,55,70,0
374.76294,375.15146,50,70,0
374.76294,375.15146,43,70,0
375.16833,375.57904,56,70,0
375.16833,375.57904,51,70,0
375.16833,375.57904,48,70,0
375.5969,376.00763,56,70,0
375.5969,376.00763,51,70,0
375.5969,376.00763,48,70,0
376.02548,376.4362,56,70,0
376.02548,376.4362,51,70,0
376.02548,376.4362,48,70,0
376.45404,376.88965,58,70,0
376.45404,376.88965,55,70,0
376.45404,376.88965,52,70,0
376.45404,376.88965,49,70,0
376.9086,377.3442,58,70,0
376.9086,377.3442,55,70,0
376.9086,377.3442,52,70,0
376.9086,377.3442,49,70,0
377.36313,377.81235,58,70,0
377.36313,377.81235,55,70,0
377.36313,377.81235,52,70,0
377.36313,377.81235,49,70,0
377.83188,378.25467,58,70,0
377.83188,378.25467,55,70,0
377.83188,378.25467,50,70,0
378.27307,378.68378,58,71,0
378.27307,378.68378,55,71,0
378.27307,378.68378,50,71,0
378.70163,379.09015,58,73,0
378.70163,379.09015,55,73,0
378.70163,379.09015,50,73,0
379.10706,379.49554,61,75,0
379.10706,379.49554,55,75,0
379.10706,379.49554,52,75,0
379.10706,379.49554,50,75,0
379.51245,379.90097,61,83,0
379.51245,379.90097,55,83,0
379.51245,379.90097,52,82,0
379.51245,379.90097,50,81,0
379.91785,380.30637,61,80,0
379.91785,380.30637,55,80,0
379.91785,380.30637,52,80,0
379.91785,380.30637,50,80,0
380.32327,380.71176,58,79,0
380.32327,380.71176,52,79,0
380.32327,380.71176,50,79,0
380.32327,380.71176,61,79,0
380.72867,381.1172,58,77,0
380.72867,381.1172,52,77,0
380.72867,381.1172,50,77,0
380.72867,381.1172,61,77,0
381.13406,381.52258,62,76,0
381.13406,381.52258,57,76,0
381.13406,381.52258,54,76,0
381.13406,381.52258,50,76,0
381.53946,381.9502,62,74,0
381.53946,381.9502,57,74,0
381.53946,381.9502,54,74,0
381.53946,381.9502,50,74,0
381.96805,382.41727,50,72,0
382.4368,382.91595,50,71,0
382.4368,382.91595,48,71,0
382.9368,383.3724,50,70,0
382.9368,383.3724,46,70,0
383.39133,383.80206,51,70,0
383.39133,383.80206,46,70,0
383.81992,384.20844,51,70,0
383.81992,384.20844,46,70,0
384.2253,384.61383,51,70,0
384.2253,384.61383,46,70,0
384.63074,385.01923,50,70,0
384.63074,385.01923,46,70,0
385.03613,385.42465,50,70,0
385.03613,385.42465,46,70,0
385.44153,385.83005,50,70,0
385.44153,385.83005,45,70,0
385.84692,386.23544,50,70,0
385.84692,386.23544,45,70,0
386.25235,386.64087,50,70,0
386.25235,386.64087,45,70,0
386.65775,387.04626,50,70,0
386.65775,387.04626,45,70,0
387.06314,387.45166,50,70,0
387.06314,387.45166,45,70,0
387.46857,387.8571,50,70,0
387.46857,387.8571,45,70,0
387.87396,388.26248,50,70,0
387.87396,388.26248,43,70,0
388.27936,388.66788,43,70,0
388.27936,388.66788,51,70,0
388.68478,389.0733,43,70,0
388.68478,389.0733,51,70,0
389.09018,389.4787,43,70,0
389.09018,389.4787,51,70,0
389.49557,389.8841,50,70,0
389.49557,389.8841,43,70,0
389.901,390.2895,50,70,0
389.901,390.2895,43,70,0
390.3064,390.69492,50,70,0
390.3064,390.69492,43,70,0
390.7118,391.1003,50,70,0
390.7118,391.1003,42,70,0
391.11722,391.5057,50,70,0
391.11722,391.5057,42,70,0
391.5226,391.91113,50,70,0
391.5226,391.91113,42,70,0
391.928,392.31653,50,70,0
391.928,392.31653,41,70,0
391.928,392.31653,43,70,0
392.33344,392.72192,50,70,0
392.33344,392.72192,41,70,0
392.33344,392.72192,43,70,0
392.73883,393.12735,50,70,0
392.73883,393.12735,43,70,0
392.73883,393.12735,41,70,0
393.14423,393.53275,48,70,0
393.14423,393.53275,43,70,0
393.14423,393.53275,39,70,0
393.54965,393.93814,48,70,0
393.54965,393.93814,43,70,0
393.54965,393.93814,39,70,0
393.95505,394.34357,48,70,0
393.95505,394.34357,43,70,0
393.95505,394.34357,39,70,0
394.36044,394.74896,60,70,0
394.36044,394.74896,55,70,0
394.36044,394.74896,48,70,0
394.76584,395.15436,60,70,0
394.76584,395.15436,55,70,0
394.76584,395.15436,48,70,0
395.17126,395.55978,60,70,0
395.17126,395.55978,55,70,0
395.17126,395.55978,48,70,0
395.57666,395.96518,58,70,0
395.57666,395.96518,55,70,0
395.57666,395.96518,50,70,0
395.98206,396.37057,58,70,0
395.98206,396.37057,55,70,0
395.98206,396.37057,50,70,0
396.38748,396.776,58,70,0
396.38748,396.776,55,70,0
396.38748,396.776,50,70,0
396.79288,397.1814,60,70,0
396.79288,397.1814,57,70,0
396.79288,397.1814,50,70,0
397.19827,397.5868,60,70,0
397.19827,397.5868,57,70,0
397.19827,397.5868,51,70,0
397.6037,398.003,60,70,0
397.6037,398.003,57,70,0
397.6037,398.003,51,70,0
398.02036,398.41965,60,70,0
398.02036,398.41965,57,70,0
398.02036,398.41965,51,70,0
398.437,398.84775,60,70,0
398.437,398.84775,57,70,0
398.437,398.84775,51,70,0
398.8656,399.31482,60,70,0
398.8656,399.31482,54,70,0
398.8656,399.31482,50,70,0
399.33435,399.83875,60,70,0
399.33435,399.83875,54,70,0
399.33435,399.83875,50,70,0
399.86066,400.5794,60,70,0
399.86066,400.5794,54,70,0
399.86066,400.5794,50,70,0
400.61066,402.0794,58,70,0
400.61066,402.0794,55,70,0
404.36066,404.93567,46,70,0
404.36066,404.93567,34,70,0
406.16068,406.73566,45,70,0
406.16068,406.73566,33,70,0
407.96066,408.53568,50,70,0
407.96066,408.53568,38,70,0
409.76065,411.53568,50,70,0
409.76065,411.53568,43,70,0
411.56067,413.33566,31,70,0
411.56067,413.33566,38,70,0
411.56067,413.33566,43,70,0
413.36066,415.13565,43,70,0
413.36066,415.13565,38,70,0
413.36066,415.13565,31,70,0
415.16068,416.93567,43,74,0
415.16068,416.93567,38,74,0
415.16068,416.93567,31,74,0
416.96066,418.73566,43,80,0
416.96066,418.73566,38,80,0
416.96066,418.73566,31,80,0
418.76065,420.53568,31,90,0
418.76065,420.53568,38,90,0
418.76065,420.53568,43,90,0
420.56067,422.33566,43,100,0
420.56067,422.33566,38,100,0
420.56067,422.33566,35,100,0
420.56067,422.33566,31,100,0
422.36066,424.13565,43,110,0
422.36066,424.13565,38,110,0
422.36066,424.13565,35,110,0
422.36066,424.13565,31,110,0
424.16068,425.93567,43,120,0
424.16068,425.93567,38,120,0
424.16068,425.93567,35,120,0
424.16068,425.93567,31,120,0
425.96066,427.73566,31,125,0
425.96066,428.33566,35,125,0
425.96066,429.53568,38,125,0
425.96066,430.13565,43,125,0
431.36066,433.13565,47,99,0
431.96066,433.73566,50,97,0
427.76065,434.93567,31,110,0
428.36066,434.93567,35,109,0
429.56067,434.93567,38,105,0
430.16068,434.93567,43,103,0
433.16068,434.93567,55,93,0
449.36066,450.10544,62,80,0
450.11066,450.85544,57,80,0
450.86066,451.60544,60,80,0
451.61066,452.35544,55,80,0
452.36066,453.10544,59,80,0
453.11066,453.85544,54,80,0
453.86066,454.10544,55,80,0
454.11066,454.35544,53,80,0
454.36066,454.85544,51,80,0
454.86066,455.10544,50,80,0
455.11066,455.60544,47,80,0
455.61066,455.85544,48,80,0
455.86066,456.10544,51,80,0
456.11066,456.35544,55,80,0
456.36066,456.60544,53,80,0
456.61066,456.85544,51,80,0
456.86066,457.10544,50,80,0
457.11066,457.35544,48,80,0
457.36066,457.60544,50,80,0
457.61066,457.85544,53,80,0
457.86066,458.10544,51,80,0
458.11066,458.35544,50,80,0
458.36066,458.60544,48,80,0
458.61066,458.85544,47,80,0
458.86066,459.10544,48,80,0
459.11066,459.35544,51,80,0
459.36066,459.60544,50,80,0
459.61066,459.85544,48,80,0
459.86066,460.10544,47,80,0
460.11066,460.35544,48,80,0
460.36066,460.60544,42,80,0
460.61066,460.85544,43,80,0
460.86066,461.10544,48,80,0
461.11066,461.35544,45,80,0
461.36066,461.60544,50,80,0
461.61066,461.85544,47,80,0
461.86066,462.10544,51,80,0
462.11066,462.23044,50,80,0
462.23566,462.35544,48,80,0
462.36066,462.60544,47,80,0
463.61066,463.85544,48,80,0
463.86066,464.10544,53,80,0
464.11066,464.35544,51,80,0
464.36066,464.60544,55,80,0
464.61066,464.85544,54,80,0
464.86066,465.23044,60,80,0
465.23566,465.35544,58,80,0
465.36066,465.60544,57,80,0
465.86066,466.10544,54,80,0
466.11066,466.35544,58,80,0
466.36066,466.60544,57,80,0
466.61066,466.85544,55,80,0
466.86066,467.10544,60,80,0
467.11066,467.35544,57,80,0
467.36066,467.60544,62,80,0
467.61066,467.85544,58,80,0
467.86066,468.10544,63,80,0
468.11066,468.23044,62,80,0
468.23566,468.35544,60,80,0
468.36066,468.60544,58,80,0
469.11066,469.35544,55,80,0
469.36066,469.73044,60,80,0
469.73566,469.85544,58,80,0
469.86066,470.23044,57,80,0
470.23566,470.35544,55,80,0
470.36066,470.60544,54,80,0
470.61066,470.85544,60,80,0
470.86066,471.10544,57,80,0
471.11066,471.35544,62,80,0
471.36066,471.60544,59,80,0
471.61066,471.85544,65,80,0
471.86066,471.98044,63,80,0
471.98566,472.10544,62,80,0
472.11066,472.48044,60,80,0
472.48566,472.60544,58,80,0
472.61066,473.0203,56,80,0
473.02625,473.16315,55,80,0
473.1691,473.31287,53,80,0
473.3191,473.46286,55,80,0
473.46912,475.0139,36,80,0
473.46912,475.0139,48,80,0
475.0191,476.5139,41,86,0
475.0191,476.5139,53,86,0
476.5191,478.0139,38,92,0
476.5191,478.0139,50,92,0
478.0191,479.5139,43,99,0
478.0191,479.5139,55,99,0
479.5191,481.0139,39,105,0
479.5191,481.0139,51,105,0
481.0191,482.5139,44,110,0
481.0191,482.5139,56,110,0
482.5191,484.0139,43,108,0
482.5191,484.0139,55,108,0
484.0191,485.5073,41,91,0
484.0191,485.5073,53,91,0
485.5123,485.98502,51,80,0
485.5123,485.98502,39,80,0
486.6843,486.7932,46,80,0
486.79794,486.90567,53,80,0
486.9103,487.01678,51,80,0
487.02142,487.1279,56,80,0
487.13254,487.18338,55,80,0
487.18796,487.23813,53,80,0
487.2427,487.34763,51,80,0
488.85532,488.95798,60,80,0
488.96246,489.06512,53,80,0
489.0696,489.17227,58,80,0
489.17673,489.27942,53,80,0
489.28387,489.33298,57,80,0
489.33746,489.38657,55,80,0
489.39102,489.4937,53,80,0
490.14102,490.2437,58,80,0
490.24817,490.35086,51,80,0
490.35532,490.45798,56,80,0
490.46246,490.56512,51,80,0
490.5696,490.6187,55,80,0
490.62317,490.67227,53,80,0
490.67673,490.77942,51,80,0
491.42673,491.52942,56,88,0
491.53387,491.63657,49,89,0
491.64102,491.7437,54,90,0
491.74817,491.85086,49,92,0
491.85532,491.90442,53,93,0
491.90887,491.95798,51,94,0
491.96246,492.06512,49,94,0
492.0696,492.17227,63,96,0
492.17673,492.27942,58,97,0
492.28387,492.38657,61,98,0
492.39102,492.4937,58,100,0
492.49817,492.54727,60,101,0
492.55173,492.60086,58,102,0
492.60532,492.70798,56,102,0
493.42682,494.14163,44,110,0
493.42682,494.14163,32,110,0
494.14624,494.8083,49,110,0
494.14624,494.8083,37,110,0
494.81293,495.47495,46,110,0
494.81293,495.47495,34,110,0
495.47958,496.14163,51,110,0
495.47958,496.14163,39,110,0
496.14624,496.8083,48,110,0
496.14624,496.8083,36,110,0
496.81293,497.47495,53,110,0
496.81293,497.47495,41,110,0
497.47958,497.9194,51,110,0
497.47958,497.9194,39,110,0
497.924,498.14163,49,110,0
497.924,498.14163,37,110,0
498.14624,498.36383,48,110,0
498.14624,498.36383,36,110,0
498.36847,498.58606,46,110,0
498.36847,498.58606,34,110,0
498.5907,498.8083,44,110,0
498.5907,498.8083,32,110,0
498.81293,499.25272,43,110,0
498.81293,499.25272,31,110,0
499.47958,500.1416,68,110,0
500.14624,500.8083,65,110,0
500.8129,501.47495,70,110,0
501.47958,502.1416,67,110,0
502.14624,502.8083,72,110,0
502.8129,503.25272,70,110,0
503.25735,503.47495,68,110,0
503.47958,504.1416,67,110,0
504.14624,505.69717,70,110,0
505.70178,505.9194,68,110,0
505.924,506.15,66,110,0
506.1548,506.66022,65,110,0
506.66565,506.9327,67,110,0
506.9384,507.17587,48,110,0
507.05838,507.2934,53,110,0
507.17838,507.4134,51,110,0
507.29837,507.52487,56,110,0
507.4184,507.62903,55,110,0
507.52948,507.7471,56,110,0
507.6406,507.8582,46,110,0
507.7517,507.9647,55,110,0
507.86282,508.0735,51,110,0
507.97394,508.1892,55,110,0
508.08505,508.30032,51,110,0
508.19617,508.41608,55,110,0
508.30728,508.52487,49,110,0
508.4184,508.63135,58,110,0
508.52948,508.74707,51,110,0
508.6406,508.8559,58,110,0
508.7517,508.96698,51,110,0
508.86282,509.0735,58,110,0
508.97394,509.19153,48,110,0
509.08505,509.30496,53,110,0
509.19617,509.41608,51,110,0
509.30728,509.52487,56,110,0
509.4184,509.636,55,110,0
509.52948,509.74246,56,110,0
509.6406,509.8605,51,110,0
509.7517,509.9693,56,110,0
509.86282,510.08273,54,110,0
509.97394,510.19385,56,110,0
510.08505,510.2957,55,110,0
510.19617,510.41376,56,110,0
510.30728,510.52487,49,110,0
510.41837,510.63828,56,110,0
510.52948,510.74246,55,110,0
510.6406,510.85358,56,110,0
510.7517,510.9693,50,110,0
510.86282,511.07578,56,110,0
510.97394,511.19385,51,110,0
511.08505,511.30032,55,110,0
511.19617,511.41376,51,110,0
511.30728,511.52716,55,110,0
511.41837,511.63828,52,110,0
511.52948,511.74478,58,110,0
511.6406,511.8582,53,110,0
511.7517,511.97162,60,110,0
511.86282,512.0781,56,110,0
511.97394,512.1869,60,110,0
512.085,512.29803,59,110,0
512.19617,512.4091,60,110,0
512.30725,512.5202,53,110,0
512.4184,512.6383,61,110,0
512.5295,512.74243,56,110,0
512.6406,512.8582,61,110,0
512.7517,512.967,60,110,0
512.8628,513.0827,61,110,0
512.97394,513.19385,49,110,0
513.085,513.3003,61,110,0
513.19617,513.4068,56,110,0
513.30725,513.51794,61,110,0
513.4184,513.63367,60,110,0
513.5295,513.74243,61,110,0
513.6406,513.8582,53,110,0
513.7517,513.967,61,110,0
513.8628,514.0758,56,110,0
513.97394,514.1869,61,110,0
514.085,514.29803,56,110,0
514.19617,514.41376,61,110,0
514.30725,514.52716,56,110,0
514.4184,514.629,63,110,0
514.5295,514.74243,60,110,0
514.6406,514.8559,63,110,0
514.7517,514.96234,62,110,0
514.8628,515.0827,63,110,0
514.97394,515.19385,56,110,0
515.085,515.3026,60,110,0
515.19617,515.4161,59,110,0
515.30725,515.5202,60,110,0
515.4184,515.636,56,110,0
515.5295,515.7401,60,110,0
515.6406,515.86053,49,110,0
515.7517,515.96466,58,110,0
515.8628,516.0804,53,110,0
515.97394,516.1892,58,110,0
516.085,516.3003,57,110,0
516.19617,516.4091,58,110,0
516.30725,516.5202,49,110,0
516.4184,516.63367,58,110,0
516.5295,516.7471,53,110,0
516.6406,516.8559,58,110,0
516.7517,516.9716,49,110,0
516.8628,517.0804,58,110,0
516.97394,517.1915,51,110,0
517.085,517.3026,58,110,0
517.19617,517.4161,55,110,0
517.30725,517.5202,58,110,0
517.4184,517.63135,57,110,0
517.5295,517.7401,58,110,0
517.6406,517.85126,51,110,0
517.7517,517.96466,58,110,0
517.8628,518.0827,55,110,0
517.97394,518.1869,58,110,0
518.085,518.3003,51,110,0
518.19617,518.4091,55,110,0
518.30725,518.52484,51,110,0
518.4184,518.629,55,110,0
518.5295,518.7471,53,110,0
518.64056,518.8536,56,110,0
518.7517,518.967,55,110,0
518.8628,519.0758,58,110,0
518.97394,519.19385,55,110,0
519.085,519.298,58,110,0
519.19617,519.41144,56,110,0
519.30725,519.52716,60,110,0
519.4184,519.6383,58,110,0
519.5295,519.74243,61,110,0
519.64056,519.84894,60,110,0
519.7517,519.9693,63,110,0
519.8628,520.0827,61,110,0
519.97394,520.1892,65,110,0
520.085,520.2957,60,110,0
520.19617,520.4068,63,110,0
520.30725,520.5179,59,110,0
520.4184,520.629,65,110,0
520.5295,520.7401,62,110,0
520.64056,520.8559,65,110,0
520.7517,520.96466,64,110,0
520.8628,521.0758,65,110,0
520.97394,521.18225,59,110,0
521.085,521.3026,65,110,0
521.19617,521.4091,62,110,0
521.30725,521.5202,65,110,0
521.4184,521.636,63,110,0
521.5295,521.7401,65,110,0
521.64056,521.8559,59,110,0
521.7517,521.9693,68,110,0
521.8628,522.0827,62,110,0
521.97394,522.1892,68,110,0
522.085,522.3026,59,110,0
522.19617,522.4068,68,110,0
522.30725,522.52716,60,110,0
522.4184,522.629,68,110,0
522.5295,522.74243,63,110,0
522.64056,522.85815,68,110,0
522.7517,522.967,67,110,0
522.8628,523.07806,68,110,0
522.97394,523.1915,61,110,0
523.085,523.3003,68,110,0
523.19617,523.41144,65,110,0
523.30725,523.5225,68,110,0
523.4184,523.63135,62,110,0
523.5295,523.7494,65,110,0
523.64056,523.7494,65,110,0
523.7517,523.9716,63,110,0
523.8628,524.07574,61,110,0
523.97394,524.1869,60,110,0
524.085,524.298,58,110,0
524.19617,524.4202,56,110,0
524.42267,524.6604,55,110,0
524.538,524.7854,53,110,0
524.663,524.913,51,110,0
524.788,525.0494,50,110,0
524.9244,525.1727,51,110,0
525.0607,525.2899,41,110,0
525.1857,525.40564,53,110,0
525.2969,525.51215,46,110,0
525.40796,525.6232,53,110,0
525.5191,525.739,46,110,0
525.6302,525.84546,53,110,0
525.74133,525.9566,43,110,0
525.8524,526.0723,55,110,0
525.9635,526.1834,51,110,0
526.07465,526.29224,55,110,0
526.1857,526.4033,51,110,0
526.2969,526.51447,55,110,0
526.40796,526.6232,44,110,0
526.5191,526.739,46,110,0
526.6302,526.8501,44,110,0
526.74133,526.96124,42,110,0
526.8524,527.0677,41,110,0
526.9635,527.175,39,110,0
527.07465,527.2845,37,110,0
527.18414,527.3917,44,110,0
527.29364,527.5035,41,110,0
527.4031,527.61523,44,110,0
527.5126,527.72473,38,110,0
527.6221,527.83575,44,110,0
527.73157,527.9602,39,110,0
527.8427,528.0851,51,110,0
527.9627,528.2045,37,110,0
528.0877,528.3488,49,110,0
528.21814,528.4823,39,110,0
528.3545,528.5966,51,110,0
528.49084,528.7104,32,110,0
528.6062,528.81555,44,110,0
528.71735,528.92267,36,110,0
528.82446,529.0343,44,110,0
528.93164,529.1437,39,110,0
529.03876,529.2508,44,110,0
529.14594,529.358,32,110,0
529.25305,529.4562,44,110,0
529.36017,529.5678,37,110,0
529.46735,529.6749,44,110,0
529.57446,529.78656,41,110,0
529.68164,529.8914,44,110,0
529.78876,529.99414,32,110,0
529.89594,530.1057,44,110,0
530.00305,530.20844,37,110,0
530.11017,530.31555,44,110,0
530.21735,530.4249,40,110,0
530.32446,530.53656,44,110,0
530.43164,530.63696,32,110,0
530.53876,530.7508,44,110,0
530.64594,530.858,36,110,0
530.75305,530.95844,44,110,0
530.86017,531.07227,39,110,0
530.96735,531.1682,44,110,0
531.07446,531.28204,32,110,0
531.18164,531.3825,44,110,0
531.28876,531.49634,39,110,0
531.39594,531.6057,44,110,0
531.50305,531.71063,42,110,0
531.61017,531.8111,44,110,0
531.71735,531.9249,32,110,0
531.82446,532.0254,44,110,0
531.93164,532.13696,37,110,0
532.03876,532.2486,44,110,0
532.14594,532.3535,41,110,0
532.25305,532.46063,44,110,0
532.36017,532.5678,32,110,0
532.46735,532.6749,44,110,0
532.57446,532.78656,37,110,0
532.68164,532.8937,44,110,0
532.78876,532.9919,40,110,0
532.89594,533.0968,44,110,0
533.00305,533.21063,32,110,0
533.11017,533.31555,44,110,0
533.21735,533.4272,39,110,0
533.32446,533.5343,44,110,0
533.43164,533.63477,42,110,0
533.53876,533.7419,44,110,0
533.64594,533.8557,32,110,0
533.75305,533.9651,44,110,0
533.86017,534.06555,39,110,0
533.96735,534.1749,44,110,0
534.07446,534.28204,42,110,0
534.18164,534.38696,44,110,0
534.28876,534.4986,32,110,0
534.39594,534.59906,44,110,0
534.50305,534.7129,37,110,0
534.61017,534.8133,44,110,0
534.71735,534.9205,41,110,0
534.82446,535.0343,44,110,0
534.93164,535.1392,32,110,0
535.03876,535.24414,44,110,0
535.14594,535.3557,38,110,0
535.25305,535.4651,44,110,0
535.36017,535.57227,41,110,0
535.46735,535.6794,44,110,0
535.57446,535.7776,32,110,0
535.68164,535.8914,44,110,0
535.78876,535.9919,38,110,0
535.89594,536.1057,44,110,0
536.00305,536.2151,41,110,0
536.11017,536.3133,44,110,0
536.21735,536.4249,32,110,0
536.32446,536.5446,44,110,0
536.43164,536.65515,38,110,0
536.547,536.7799,44,110,0
536.6624,536.8974,41,110,0
536.7824,536.8974,44,110,0
536.9024,537.0174,32,120,0
537.0224,537.1374,43,120,0
537.1424,537.2574,34,120,0
537.2624,537.3774,43,120,0
537.3824,537.4974,37,120,0
537.5024,537.6174,43,120,0
537.6224,537.73737,40,120,0
537.7424,537.85736,43,120,0
537.86237,537.9774,37,120,0
537.98236,538.0974,43,120,0
538.0724,538.1874,34,120,0
538.2224,538.3374,43,120,0
538.3424,538.4574,32,120,0
538.4624,538.5774,43,120,0
538.5824,538.6974,34,120,0
538.7024,538.8174,43,120,0
538.8224,538.9374,37,120,0
538.9424,539.0574,43,120,0
539.0624,539.1822,40,120,0
539.1874,539.3072,43,120,0
539.3124,539.4374,37,120,0
539.4428,539.5678,43,120,0
539.54065,539.66986,34,120,0
539.7096,539.8465,43,120,0
539.8525,540.36725,44,120,0
539.8525,540.36725,39,120,0
539.8525,540.36725,36,120,0
539.8525,540.36725,32,120,0
541.87604,542.193,56,120,0
541.9832,542.3002,51,120,0
542.19745,542.3002,51,120,0
542.09033,542.4073,48,120,0
542.3046,542.4073,48,120,0
542.41174,542.7287,44,120,0
542.5189,542.8359,32,120,0
542.62604,542.943,36,120,0
542.7332,543.0502,39,120,0
542.84033,543.1573,44,120,0
542.94745,543.26447,48,120,0
543.0546,543.3716,51,120,0
543.16174,543.4787,44,120,0
543.2689,543.5859,48,120,0
543.37604,543.693,51,120,0
543.8046,544.1216,56,120,0
543.91174,544.2287,60,120,0
544.0189,544.3359,63,120,0
545.1446,546.50256,44,120,0
545.1446,546.50256,39,120,0
545.1446,546.50256,36,120,0
545.1446,546.50256,32,120,0
