start_time,end_time,note_value,velocity,instrument_program_number
0.0,0.2844827,75,127,71
0.413793,0.64655155,75,127,71
0.7241377,0.77586186,75,127,71
0.827586,0.87931013,75,127,71
0.87931013,1.0603446,74,127,71
1.1379308,1.1896548,72,127,71
1.241379,1.4741375,74,127,71
1.5517237,1.6034479,70,127,71
1.655172,1.9396547,75,127,71
2.068965,2.3017235,75,127,71
2.3793097,2.4310338,75,127,71
2.482758,3.2068958,77,127,71
3.310344,3.5948267,79,127,71
3.724137,3.9568956,79,127,71
4.0344815,4.086206,79,127,71
4.13793,4.3706884,80,127,71
4.4482746,4.499999,80,127,71
4.551723,4.7844815,82,127,71
4.8620677,4.9137917,82,127,71
4.965516,5.1724124,84,127,71
5.1724124,5.379309,79,127,71
5.379309,5.5862055,80,127,71
5.5862055,5.76724,77,127,71
5.793102,5.9999986,75,127,71
5.9999986,6.181033,74,127,71
6.206895,6.4137917,72,127,71
6.4137917,6.568964,70,127,71
6.620688,6.905171,75,127,71
7.034481,7.2672396,75,127,71
7.3448257,7.3965497,75,127,71
7.448274,7.499998,75,127,71
7.499998,7.6810327,74,127,71
7.758619,7.810343,72,127,71
7.862067,8.094826,74,127,71
8.172412,8.224135,70,127,71
8.27586,8.560343,75,127,71
8.689653,8.922412,75,127,71
8.999998,9.051722,75,127,71
9.103446,9.827583,77,127,71
9.931032,10.215515,79,127,71
10.344825,10.577583,80,127,71
10.6551695,10.706894,80,127,71
10.758618,10.991377,82,127,71
11.068963,11.120687,82,127,71
11.172411,11.4051695,84,127,71
11.482756,11.53448,84,127,71
11.586204,11.844825,82,127,71
11.896549,11.948273,79,127,71
11.999997,12.232756,80,127,71
12.310342,12.362066,77,127,71
12.41379,12.749997,75,127,71
13.241376,13.525859,80,127,71
13.655169,13.887928,80,127,71
13.965514,14.017238,80,127,71
14.068962,14.275859,80,127,71
14.275859,14.482755,79,127,71
14.482755,14.6896515,77,127,71
14.6896515,14.844824,75,127,71
14.896548,15.18103,74,127,71
15.310341,15.543099,74,127,71
15.620686,15.67241,74,127,71
15.724134,16.44827,75,127,71
16.55172,16.836203,80,127,71
16.965513,17.19827,80,127,71
17.275858,17.327581,80,127,71
17.379307,17.586203,80,127,71
17.586203,17.793098,79,127,71
17.793098,17.999996,77,127,71
17.999996,18.155169,75,127,71
18.206892,18.413788,74,127,71
18.413788,18.620686,72,127,71
18.620686,18.827581,70,127,71
18.827581,19.008615,69,127,71
19.034477,19.241375,70,127,71
19.241375,19.44827,72,127,71
19.44827,19.655167,73,127,71
19.655167,19.810339,74,127,71
19.862064,20.146547,75,127,71
20.275858,20.508615,75,127,71
20.586203,20.637926,75,127,71
20.68965,20.741375,75,127,71
20.741375,20.92241,74,127,71
20.999994,21.05172,72,127,71
21.103443,21.3362,74,127,71
21.413788,21.465511,70,127,71
21.517237,21.801718,75,127,71
21.931028,22.163788,75,127,71
22.241373,22.293098,75,127,71
22.344822,23.06896,77,127,71
23.172407,23.45689,79,127,71
23.5862,23.81896,80,127,71
23.896545,23.94827,80,127,71
23.999994,24.232752,82,127,71
24.310339,24.362062,82,127,71
24.413788,24.646545,84,127,71
24.724133,24.775856,84,127,71
24.82758,25.0862,82,127,71
25.137924,25.18965,79,127,71
25.241373,25.47413,80,127,71
25.551718,25.603441,77,127,71
25.655167,25.991373,75,127,71
26.482752,26.689648,79,127,71
26.741373,26.793097,81,127,71
26.793097,26.84482,79,127,71
26.84482,26.896545,77,127,71
26.896545,27.103441,79,127,71
27.103441,27.310337,81,127,71
27.310337,27.517235,82,127,71
27.517235,27.620684,77,127,71
27.72413,27.82758,77,127,71
27.931028,28.034475,77,127,71
28.137924,28.34482,77,127,71
28.34482,28.551718,78,127,71
28.551718,28.758614,79,127,71
28.758614,28.95258,75,127,71
28.96551,29.379303,73,127,71
29.379303,29.534475,74,127,71
29.793097,29.896544,67,127,71
29.896544,29.999992,70,127,71
29.999992,30.103441,72,127,71
30.103441,30.181026,74,127,71
30.206888,30.310337,75,127,71
30.310337,30.413786,77,127,71
30.413786,30.517233,79,127,71
30.517233,30.59482,81,127,71
30.620682,30.72413,84,127,71
30.72413,30.775854,82,127,71
30.827578,30.931026,82,127,71
30.931026,31.008614,81,127,71
31.034475,31.137924,82,127,71
31.137924,31.241371,81,127,71
31.241371,31.34482,79,127,71
31.34482,31.396544,77,127,71
31.448269,31.655165,77,127,71
31.655165,31.836199,78,127,71
31.86206,32.06896,79,127,71
32.06896,32.262924,75,127,71
32.275852,32.689648,73,127,71
32.689648,32.84482,74,127,71
34.76723,34.87068,69,127,71
34.89654,34.999992,72,127,71
35.034473,35.13792,77,127,71
35.189648,35.293095,69,127,71
35.310337,35.413784,72,127,71
35.44827,35.551716,77,127,71
35.586197,35.689648,70,127,71
35.72413,35.86206,77,127,71
35.86206,35.965508,75,127,71
35.999992,36.10344,74,127,71
36.13792,36.24137,72,127,71
36.275852,36.379303,70,127,71
36.413784,36.72413,75,127,71
36.827576,37.24137,75,127,71
37.24137,37.551716,74,127,71
38.077576,38.181026,69,127,71
38.206886,38.310337,72,127,71
38.34482,38.448265,77,127,71
38.49999,38.60344,69,127,71
38.62068,38.72413,72,127,71
38.75861,38.86206,77,127,71
38.89654,38.99999,70,127,71
39.034473,39.172405,77,127,71
39.172405,39.275852,75,127,71
39.310333,39.413784,74,127,71
39.448265,39.551716,72,127,71
39.586197,39.689644,70,127,71
39.72413,39.905163,79,127,71
39.931023,40.00861,80,127,71
40.00861,40.060333,79,127,71
40.060333,40.13792,77,127,71
40.13792,40.34482,79,127,71
40.34482,40.49999,81,127,71
40.551716,40.75861,82,127,71
40.75861,40.913784,79,127,71
40.965508,41.120678,79,127,71
41.172405,41.327576,79,127,71
41.3793,41.534473,75,127,71
41.560333,41.63792,77,127,71
41.612057,41.689644,75,127,71
41.689644,41.793095,74,127,71
41.793095,41.99999,75,127,71
41.99999,42.155163,77,127,71
42.206886,42.413784,79,127,71
42.413784,42.568954,75,127,71
42.620678,42.775852,75,127,71
42.827576,42.982746,75,127,71
43.034473,43.655163,72,127,71
43.655163,43.836197,74,127,71
43.862057,44.068954,75,127,71
44.068954,44.24999,77,127,71
44.275852,44.482746,79,127,71
44.482746,44.66378,81,127,71
44.689644,44.818954,82,127,71
44.827576,44.905163,77,127,71
44.965508,45.068954,77,127,71
45.103436,45.232746,77,127,71
45.241367,45.318954,75,127,71
45.3793,45.482746,75,127,71
45.51723,45.64654,75,127,71
45.655163,45.732746,74,127,71
45.79309,45.89654,74,127,71
45.931023,46.060333,74,127,71
46.068954,46.14654,72,127,71
46.206886,46.310333,72,127,71
46.344814,46.681023,70,127,71
47.1724,47.27585,72,127,71
47.310333,47.448265,79,127,71
47.448265,47.551712,77,127,71
47.586197,47.689644,75,127,71
47.724125,47.827576,74,127,71
47.862057,47.965504,72,127,71
47.99999,48.344814,70,127,71
48.827576,48.931023,72,127,71
48.965504,49.103436,79,127,71
49.103436,49.206882,77,127,71
49.241367,49.344814,75,127,71
49.3793,49.482746,74,127,71
49.517227,49.620678,72,127,71
49.65516,49.862057,70,127,71
50.068954,50.27585,72,127,71
50.482746,50.689644,70,127,71
50.896538,51.103436,72,127,71
51.310333,51.931023,70,127,71
51.931023,52.112057,69,127,71
52.137917,52.758606,70,127,71
52.758606,52.91378,69,127,71
52.965504,53.224125,70,127,71
53.27585,53.353436,72,127,71
53.379295,53.637917,74,127,71
53.68964,53.767227,75,127,71
53.79309,54.051712,77,127,71
54.103436,54.181023,79,127,71
54.206882,54.465504,80,127,71
54.517227,54.56895,77,127,71
54.620674,54.90516,75,127,71
55.03447,55.267227,75,127,71
55.344814,55.396538,75,127,71
55.44826,55.499985,75,127,71
55.499985,55.68102,74,127,71
55.758606,55.81033,72,127,71
55.862057,56.094814,74,127,71
56.1724,56.224125,70,127,71
56.27585,56.56033,75,127,71
56.68964,56.9224,75,127,71
56.999985,57.05171,75,127,71
57.103436,57.82757,77,127,71
57.93102,58.215504,79,127,71
58.344814,58.57757,79,127,71
58.65516,58.706882,79,127,71
58.758606,58.991364,80,127,71
59.06895,59.120674,80,127,71
59.172398,59.40516,82,127,71
59.482742,59.53447,82,127,71
59.586193,59.793087,84,127,71
59.793087,59.999985,79,127,71
59.999985,60.206882,80,127,71
60.206882,60.387917,77,127,71
60.413776,60.620674,75,127,71
60.620674,60.80171,74,127,71
60.82757,61.034466,72,127,71
61.034466,61.18964,70,127,71
61.241364,61.52585,75,127,71
61.655155,61.887917,75,127,71
61.9655,62.017227,75,127,71
62.06895,62.120674,75,127,71
62.120674,62.30171,74,127,71
62.379295,62.43102,72,127,71
62.482742,62.7155,74,127,71
62.793087,62.84481,70,127,71
62.896538,63.18102,75,127,71
63.31033,63.543087,75,127,71
63.620674,63.672398,75,127,71
63.72412,64.44826,77,127,71
64.551704,64.83619,79,127,71
64.9655,65.19826,80,127,71
65.27585,65.32757,80,127,71
65.379295,65.61205,82,127,71
65.68964,65.74136,82,127,71
65.79308,66.02585,84,127,71
66.10343,66.15516,84,127,71
66.20688,66.4655,82,127,71
66.51723,66.56895,79,127,71
66.620674,66.85343,80,127,71
66.931015,66.98274,77,127,71
67.03447,67.370674,75,127,71
67.44826,67.52585,72,127,71
67.58619,67.66377,72,127,71
67.72412,67.801704,72,127,71
67.86205,68.20688,75,127,71
68.27585,68.35343,72,127,71
68.41377,68.49136,72,127,71
68.551704,68.629295,72,127,71
68.68964,69.03446,75,127,71
69.10343,69.181015,72,127,71
69.24136,69.31895,72,127,71
69.379295,69.45688,72,127,71
69.51723,70.29308,78,127,71
70.34481,70.91377,79,127,71
70.9655,71.120674,77,127,71
71.17239,71.32757,75,127,71
71.58619,71.74136,74,127,71
71.999985,72.15515,72,127,71
72.41377,72.56895,75,127,71
72.82757,72.98274,74,127,71
73.24136,73.39653,71,127,71
73.65515,73.99136,72,127,71
74.06895,74.14653,72,127,71
74.20688,74.28446,72,127,71
74.34481,74.42239,72,127,71
74.48274,74.82757,75,127,71
74.89653,74.97412,72,127,71
75.03446,75.11205,72,127,71
75.17239,75.249985,72,127,71
75.310326,75.65515,75,127,71
75.72412,75.801704,72,127,71
75.86205,75.93964,72,127,71
75.999985,76.07757,72,127,71
76.13791,76.91377,78,127,71
76.9655,77.53446,79,127,71
77.58619,77.74136,79,127,71
77.79308,77.94826,79,127,71
78.20688,78.36205,79,127,71
78.62067,78.77584,79,127,71
79.03446,79.18964,79,127,71
79.44826,79.60343,79,127,71
79.862045,80.01722,78,127,71
80.27584,80.63791,79,127,71
83.17239,83.58619,78,127,71
83.58619,83.92239,79,127,71
84.41377,84.51722,77,127,71
84.551704,84.65515,80,127,71
84.68964,84.79308,79,127,71
84.82757,84.931015,77,127,71
84.96549,85.06895,75,127,71
85.103424,85.20688,74,127,71
85.241356,85.3448,75,127,71
85.37929,85.482735,79,127,71
85.51722,85.62067,77,127,71
85.65515,85.7586,75,127,71
85.79308,85.89653,74,127,71
85.931015,86.03446,72,127,71
86.06895,86.17239,77,127,71
86.20688,86.310326,80,127,71
86.3448,86.44826,79,127,71
86.482735,86.58618,77,127,71
86.62067,86.72411,75,127,71
86.7586,86.862045,74,127,71
86.89653,86.99998,75,127,71
87.03446,87.13791,79,127,71
87.17239,87.27584,77,127,71
87.310326,87.41377,75,127,71
87.44826,87.551704,74,127,71
87.58618,87.68964,72,127,71
88.13791,88.551704,76,127,71
88.551704,88.88791,77,127,71
89.79308,90.20687,76,127,71
90.20687,90.551704,77,127,71
90.62067,90.69825,77,127,71
90.7586,90.83618,77,127,71
90.89653,90.97411,77,127,71
91.03446,91.39653,80,127,71
91.44825,91.52584,77,127,71
91.58618,91.66377,77,127,71
91.72411,91.801704,77,127,71
91.862045,92.22411,80,127,71
92.27584,92.353424,77,127,71
92.41377,92.491356,77,127,71
92.551704,92.62929,77,127,71
92.68963,93.362045,80,127,71
93.41377,93.491356,79,127,71
93.51722,93.77584,77,127,71
93.82756,93.90515,75,127,71
93.93101,94.18963,74,127,71
94.241356,94.31894,72,127,71
94.3448,94.68101,79,127,71
95.58618,95.8448,79,127,71
95.89653,95.97411,79,127,71
95.99998,96.33618,79,127,71
97.241356,97.49998,79,127,71
97.5517,97.62929,79,127,71
97.65515,97.991356,79,127,71
98.06894,98.32756,79,127,71
98.37929,98.45687,79,127,71
98.482735,98.81894,79,127,71
98.89653,99.15515,79,127,71
99.20687,99.284454,79,127,71
99.31032,99.93101,79,127,71
99.93101,100.112045,78,127,71
100.13791,100.7586,79,127,71
100.7586,100.93963,78,127,71
100.96549,101.12067,79,127,71
101.172386,101.58618,80,127,71
101.58618,101.76722,77,127,71
101.793076,101.99998,75,127,71
101.99998,102.18101,74,127,71
102.20687,102.413765,72,127,71
102.413765,102.5948,70,127,71
102.62067,102.90514,75,127,71
103.034454,103.26721,75,127,71
103.3448,103.39652,75,127,71
103.44825,103.49998,75,127,71
103.49998,103.68101,74,127,71
103.7586,103.81032,72,127,71
103.862045,104.0948,74,127,71
104.172386,104.22411,70,127,71
104.27583,104.56032,75,127,71
104.68963,104.922386,75,127,71
104.99998,105.0517,75,127,71
105.103424,105.82756,77,127,71
105.93101,106.21549,79,127,71
106.3448,106.57756,79,127,71
106.65514,106.70687,79,127,71
106.75859,106.991356,80,127,71
107.06894,107.12067,80,127,71
107.172386,107.40514,82,127,71
107.482735,107.534454,82,127,71
107.58618,107.793076,84,127,71
107.793076,107.99997,79,127,71
107.99997,108.20687,80,127,71
108.20687,108.3879,77,127,71
108.413765,108.62066,75,127,71
108.62066,108.8017,74,127,71
108.82756,109.034454,72,127,71
109.034454,109.18963,70,127,71
109.24135,109.52583,75,127,71
109.65514,109.8879,75,127,71
109.96549,110.01721,75,127,71
110.06894,110.12066,75,127,71
110.12066,110.3017,74,127,71
110.37928,110.43101,72,127,71
110.482735,110.71549,74,127,71
110.793076,110.8448,70,127,71
110.89652,111.18101,75,127,71
111.31032,111.543076,75,127,71
111.62066,111.672386,75,127,71
111.72411,112.44825,77,127,71
112.5517,112.83618,79,127,71
112.96549,113.19825,80,127,71
113.27583,113.32756,80,127,71
113.37928,113.61204,82,127,71
113.68963,113.74135,82,127,71
113.793076,114.02583,84,127,71
114.10342,114.15514,84,127,71
114.20687,114.46549,82,127,71
114.51721,114.56894,79,127,71
114.62066,114.85342,80,127,71
114.93101,114.98273,77,127,71
115.034454,115.37066,75,127,71
115.86204,116.14652,80,127,71
116.27583,116.50859,80,127,71
116.586174,116.6379,80,127,71
116.68963,116.89652,80,127,71
116.89652,117.10342,79,127,71
117.10342,117.31032,77,127,71
117.31032,117.465485,75,127,71
117.51721,117.8017,74,127,71
117.93101,118.163765,74,127,71
118.24135,118.293076,74,127,71
118.344795,119.06894,75,127,71
119.172386,119.45686,80,127,71
119.586174,119.81894,80,127,71
119.89652,119.94824,80,127,71
119.99997,120.20686,80,127,71
120.20686,120.413765,79,127,71
120.413765,120.62066,77,127,71
120.62066,120.77583,75,127,71
120.82755,121.034454,74,127,71
121.034454,121.24135,72,127,71
121.24135,121.44824,70,127,71
121.44824,121.62928,69,127,71
121.65514,121.86204,70,127,71
121.86204,122.06893,72,127,71
122.06893,122.27583,73,127,71
122.27583,122.43101,74,127,71
122.48273,122.76721,75,127,71
122.89652,123.12928,75,127,71
123.20686,123.25859,75,127,71
123.31031,123.36204,75,127,71
123.36204,123.543076,74,127,71
123.62066,123.672386,72,127,71
123.724106,123.95686,74,127,71
124.034454,124.086174,70,127,71
124.1379,124.422386,75,127,71
124.5517,124.784454,75,127,71
124.86204,124.913765,75,127,71
124.965485,125.68962,77,127,71
125.793076,126.07755,79,127,71
126.20686,126.43962,80,127,71
126.51721,126.56893,80,127,71
126.62066,126.85342,82,127,71
126.931,126.98273,82,127,71
127.034454,127.26721,84,127,71
127.344795,127.39652,84,127,71
127.44824,127.70686,82,127,71
127.75859,127.81031,79,127,71
127.86204,128.0948,80,127,71
128.17238,128.2241,77,127,71
128.27583,128.61203,75,127,71
129.32053,129.48125,75,127,71
129.53482,129.69553,75,127,71
129.7491,129.90982,75,127,71
130.17767,130.39195,75,127,71
130.39195,130.60625,77,127,71
130.60625,130.76695,75,127,71
131.0348,131.19553,75,127,71
131.2491,131.4098,75,127,71
131.46338,131.6241,75,127,71
131.89195,132.10625,75,127,71
132.10625,132.32053,77,127,71
132.32053,132.48125,75,127,71
132.7491,132.9098,75,127,71
132.96338,133.1241,75,127,71
133.17767,133.33838,75,127,71
133.60623,133.82053,75,127,71
133.82053,134.0348,77,127,71
134.0348,134.19553,75,127,71
134.39195,134.4991,75,127,71
134.5348,134.66873,74,127,71
134.67767,134.7848,75,127,71
134.82053,134.92767,77,127,71
134.96338,135.0973,79,127,71
135.10623,135.45445,80,127,71
135.96338,136.79373,72,127,71
136.82053,137.65088,73,127,71
137.67766,138.50803,72,127,71
138.5348,139.36516,70,127,71
139.39195,140.2223,72,127,71
140.24908,141.07945,73,127,71
141.10623,141.93658,70,127,71
141.96338,142.31158,72,127,71
143.0348,143.19551,77,127,71
143.24908,143.4098,77,127,71
143.46338,143.62408,77,127,71
143.89194,144.10623,77,127,71
144.10623,144.32051,78,127,71
144.32051,144.48123,77,127,71
144.74908,144.9098,77,127,71
144.96336,145.12408,77,127,71
145.17766,145.33836,77,127,71
145.60623,145.82051,77,127,71
145.82051,146.03479,78,127,71
146.03479,146.19551,77,127,71
146.46336,146.62408,75,127,71
146.67766,146.83836,75,127,71
146.89194,147.05266,75,127,71
147.32051,147.53479,75,127,71
147.53479,147.74908,77,127,71
147.74908,147.90979,75,127,71
148.10623,148.21336,75,127,71
148.24908,148.38301,74,127,71
148.39194,148.49908,75,127,71
148.53479,148.64194,77,127,71
148.67766,148.81158,79,127,71
148.82051,149.16872,80,127,71
149.67766,150.50801,75,127,71
150.53479,151.36514,73,127,71
151.39194,152.22229,72,127,71
152.24908,153.07944,73,127,71
153.10622,153.93657,70,127,71
153.96336,154.79372,72,127,71
154.8205,155.65086,73,127,71
155.67764,156.02586,72,127,71
156.74907,156.90979,80,127,71
156.96336,157.12407,80,127,71
157.17764,157.33836,80,127,71
157.60622,157.8205,80,127,71
157.8205,158.03479,82,127,71
158.03479,158.1955,80,127,71
158.46336,158.62407,80,127,71
158.67764,158.83836,80,127,71
158.89192,159.05264,80,127,71
159.3205,159.53479,80,127,71
159.53479,159.74907,82,127,71
159.74907,159.90979,80,127,71
159.96335,160.28479,80,127,71
161.03479,161.1955,80,127,71
161.24907,161.40977,80,127,71
161.46335,161.62407,80,127,71
161.67764,161.99907,80,127,71
162.74907,162.90977,80,127,71
162.96335,163.12407,80,127,71
163.17764,163.33835,80,127,71
163.39192,164.03477,80,127,71
164.03477,164.22227,79,127,71
164.24907,164.89192,80,127,71
164.89192,165.07942,79,127,71
165.10606,165.31586,80,127,71
165.31586,165.49942,79,127,71
165.52565,165.73544,80,127,71
165.73544,165.919,81,127,71
165.94522,166.1288,82,127,71
166.15501,166.33858,79,127,71
166.3648,166.54837,80,127,71
166.5746,166.7839,77,127,71
166.7839,167.06839,75,127,71
167.1977,167.43045,75,127,71
167.50804,167.55977,75,127,71
167.6115,167.66321,75,127,71
167.66321,167.84425,74,127,71
167.92183,167.97356,72,127,71
168.02528,168.25804,74,127,71
168.33563,168.38736,70,127,71
168.43907,168.72356,75,127,71
168.85287,169.08563,75,127,71
169.16321,169.21494,75,127,71
169.26666,169.9908,77,127,71
170.09425,170.37874,79,127,71
170.50804,170.7408,79,127,71
170.81839,170.87012,79,127,71
170.92183,171.15459,80,127,71
171.23218,171.2839,80,127,71
171.33563,171.56839,82,127,71
171.64597,171.6977,82,127,71
171.74942,171.95631,84,127,71
171.95631,172.16321,79,127,71
172.16321,172.37012,80,127,71
172.37012,172.55115,77,127,71
172.57701,172.7839,75,127,71
172.7839,172.96494,74,127,71
172.9908,173.1977,72,127,71
173.1977,173.35287,70,127,71
173.40459,173.68907,75,127,71
173.81839,174.05115,75,127,71
174.12872,174.18045,75,127,71
174.23218,174.2839,75,127,71
174.2839,174.46494,74,127,71
174.54253,174.59425,72,127,71
174.64597,174.87872,74,127,71
174.95631,175.00804,70,127,71
175.05977,175.34425,75,127,71
175.47356,175.70631,75,127,71
175.7839,175.83563,75,127,71
175.88734,176.61148,77,127,71
176.71494,176.99942,79,127,71
177.12872,177.36148,80,127,71
177.43907,177.4908,80,127,71
177.54253,177.77528,82,127,71
177.85286,177.90459,82,127,71
177.95631,178.18907,84,127,71
178.26666,178.31839,84,127,71
178.3701,178.62872,82,127,71
178.68045,178.73218,79,127,71
178.7839,179.01666,80,127,71
179.09425,179.14597,77,127,71
179.1977,179.5339,75,127,71
180.02528,180.30977,80,127,71
180.43907,180.67183,80,127,71
180.74942,180.80115,80,127,71
180.85286,181.05977,80,127,71
181.05977,181.26666,79,127,71
181.26666,181.47356,77,127,71
181.47356,181.62872,75,127,71
181.68045,181.96494,74,127,71
182.09424,182.32701,74,127,71
182.40459,182.45631,74,127,71
182.50804,183.23218,75,127,71
183.33562,183.6201,80,127,71
183.74942,183.98218,80,127,71
184.05977,184.11148,80,127,71
184.16321,184.3701,80,127,71
184.3701,184.577,79,127,71
184.577,184.7839,77,127,71
184.7839,184.93907,75,127,71
184.9908,185.1977,74,127,71
185.1977,185.40459,72,127,71
185.40459,185.61148,70,127,71
185.61148,185.79253,69,127,71
185.81839,186.02528,70,127,71
186.02528,186.23218,72,127,71
186.23218,186.43907,73,127,71
186.43907,186.59424,74,127,71
186.64597,186.93045,75,127,71
187.05977,187.29253,75,127,71
187.3701,187.42183,75,127,71
187.47356,187.52528,75,127,71
187.52528,187.70631,74,127,71
187.7839,187.83562,72,127,71
187.88734,188.1201,74,127,71
188.1977,188.24942,70,127,71
188.30115,188.58562,75,127,71
188.71494,188.9477,75,127,71
189.02528,189.077,75,127,71
189.12872,189.85286,77,127,71
189.95631,190.2408,79,127,71
190.3701,190.60286,80,127,71
190.68045,190.73218,80,127,71
190.7839,191.01666,82,127,71
191.09424,191.14597,82,127,71
191.1977,191.43045,84,127,71
191.50804,191.55975,84,127,71
191.61148,191.8701,82,127,71
191.92183,191.97356,79,127,71
192.02528,192.25804,80,127,71
192.33562,192.38734,77,127,71
192.43907,192.77528,75,127,71
194.09424,194.43045,79,127,71
194.50804,194.7408,79,127,71
194.81837,194.8701,79,127,71
194.92183,195.25804,79,127,71
195.74942,196.08562,79,127,71
196.16321,196.39597,79,127,71
196.47356,196.52528,79,127,71
196.577,196.91321,79,127,71
196.9908,197.22356,79,127,71
197.30113,197.37872,79,127,71
197.40459,197.66321,77,127,71
197.71494,197.79251,79,127,71
197.81837,197.92183,80,127,71
197.95631,198.05975,82,127,71
198.09424,198.1977,84,127,71
198.23218,198.6201,75,127,71
198.64597,198.85286,79,127,71
198.85286,199.03389,77,127,71
199.05975,199.39597,75,127,71
200.02527,200.12872,79,127,71
200.16321,200.26665,77,127,71
200.30113,200.40459,75,127,71
200.43907,200.54251,74,127,71
200.577,200.68045,72,127,71
200.71494,200.81837,74,127,71
200.85286,200.95631,80,127,71
200.9908,201.09424,79,127,71
201.12872,201.23218,77,127,71
201.26665,201.3701,75,127,71
201.40459,201.50803,74,127,71
201.54251,201.64597,75,127,71
201.68045,201.78389,79,127,71
201.81837,201.92183,77,127,71
201.95631,202.05975,75,127,71
202.09424,202.1977,74,127,71
202.23218,202.33562,72,127,71
202.3701,202.47356,71,127,71
202.50803,202.61148,74,127,71
202.64597,202.74942,72,127,71
202.78389,202.88734,71,127,71
202.92183,203.02527,68,127,71
203.05975,203.16321,67,127,71
203.1977,203.30113,72,127,71
203.33562,203.43907,79,127,71
203.47356,203.577,77,127,71
203.61148,203.71494,75,127,71
203.7494,203.85286,74,127,71
203.88734,203.9908,72,127,71
204.02527,204.12872,77,127,71
204.16321,204.26665,84,127,71
204.30113,204.40459,82,127,71
204.43907,204.54251,80,127,71
204.577,204.68045,79,127,71
204.71494,204.81837,77,127,71
204.85286,204.95631,75,127,71
204.9908,205.09424,82,127,71
205.12872,205.23218,80,127,71
205.26665,205.3701,79,127,71
205.40459,205.50803,77,127,71
205.54251,205.64597,75,127,71
205.68045,205.78389,74,127,71
205.81837,205.92183,72,127,71
205.95631,206.05975,70,127,71
206.09424,206.1977,68,127,71
206.23218,206.33562,67,127,71
206.3701,206.47356,65,127,71
206.50803,206.79251,63,127,71
206.92183,207.15459,75,127,71
207.23216,207.28389,75,127,71
207.33562,207.38734,75,127,71
207.38734,207.56837,74,127,71
207.64597,207.6977,72,127,71
207.7494,207.98216,74,127,71
208.05975,208.11148,70,127,71
208.16321,208.42183,75,127,71
208.47356,208.55113,79,127,71
208.577,209.09424,82,127,71
209.12872,209.23216,84,127,71
209.26665,209.3701,82,127,71
209.40459,209.50803,80,127,71
209.54251,209.64597,79,127,71
209.68045,209.78389,77,127,71
209.81837,210.15459,75,127,71
210.23216,210.46494,75,127,71
210.54251,210.59424,75,127,71
210.64597,210.6977,75,127,71
210.6977,210.87872,74,127,71
210.95631,211.00803,72,127,71
211.05975,211.29251,74,127,71
211.3701,211.42183,70,127,71
211.47354,211.73216,75,127,71
211.78389,211.86148,79,127,71
211.88734,212.40459,82,127,71
212.43907,212.54251,84,127,71
212.577,212.68045,82,127,71
212.71492,212.81837,80,127,71
212.85286,212.95631,79,127,71
212.99078,213.09424,77,127,71
213.12872,213.38734,75,127,71
213.43907,213.51665,79,127,71
213.54251,214.05975,82,127,71
214.09424,214.1977,84,127,71
214.23216,214.33562,82,127,71
214.3701,214.47354,80,127,71
214.50803,214.61148,79,127,71
214.64597,214.7494,77,127,71
214.78389,214.88734,75,127,71
214.92183,215.02527,77,127,71
215.05975,215.16321,78,127,71
215.1977,215.30113,79,127,71
215.33562,215.43907,80,127,71
215.47354,215.577,81,127,71
215.61148,215.71492,82,127,71
215.7494,215.85286,84,127,71
215.88734,215.99078,82,127,71
216.02527,216.12872,80,127,71
216.16321,216.26665,79,127,71
216.30113,216.40459,77,127,71
216.43907,216.77527,75,127,71
216.85286,216.90459,77,127,71
216.90459,216.9563,79,127,71
216.9563,217.00803,77,127,71
217.00803,217.05975,79,127,71
217.05975,217.11148,77,127,71
217.16321,217.21492,75,127,71
217.21492,217.26665,77,127,71
217.26665,217.60286,75,127,71
217.68045,217.73216,77,127,71
217.73216,217.78389,79,127,71
217.78389,217.83562,77,127,71
217.83562,217.88734,79,127,71
217.88734,217.93906,77,127,71
217.99078,218.04251,75,127,71
218.04251,218.09424,77,127,71
218.09424,218.43045,75,127,71
223.88734,224.22354,70,127,71
224.30113,224.53389,70,127,71
224.61148,224.6632,70,127,71
224.71492,225.05113,75,127,71
227.19902,227.57864,77,127,71
227.66653,227.9302,77,127,71
228.0181,228.07669,77,127,71
228.13832,228.65244,75,127,71
0.0,0.2844827,67,127,71
0.413793,0.64655155,67,127,71
0.7241377,0.77586186,67,127,71
0.827586,1.0603446,65,127,71
1.1379308,1.1896548,63,127,71
1.241379,1.4741375,65,127,71
1.5517237,1.6034479,62,127,71
1.655172,1.9396547,58,127,71
2.068965,2.3017235,67,127,71
2.3793097,2.4310338,67,127,71
2.482758,3.1034474,70,127,71
3.1034474,3.2586198,68,127,71
3.310344,3.5948267,67,127,71
3.724137,3.9568956,70,127,71
4.0344815,4.086206,70,127,71
4.13793,4.3706884,75,127,71
4.4482746,4.499999,75,127,71
4.551723,4.7844815,75,127,71
4.8620677,4.9137917,75,127,71
4.965516,5.3275847,75,127,71
5.379309,5.5862055,68,127,71
5.5862055,5.741378,72,127,71
5.793102,6.5172396,68,127,71
6.620688,6.905171,67,127,71
7.034481,7.2672396,67,127,71
7.3448257,7.3965497,67,127,71
7.448274,7.6810327,65,127,71
7.758619,7.810343,63,127,71
7.862067,8.094826,65,127,71
8.172412,8.224135,62,127,71
8.27586,8.560343,58,127,71
8.689653,8.922412,67,127,71
8.999998,9.051722,67,127,71
9.103446,9.724135,70,127,71
9.724135,9.879308,68,127,71
9.931032,10.215515,67,127,71
10.344825,10.577583,75,127,71
10.6551695,10.706894,75,127,71
10.758618,10.991377,75,127,71
11.068963,11.120687,75,127,71
11.172411,11.4051695,75,127,71
11.482756,11.53448,75,127,71
11.586204,11.818962,79,127,71
11.896549,11.948273,75,127,71
11.999997,12.232756,77,127,71
12.310342,12.362066,74,127,71
12.41379,12.698273,67,127,71
13.241376,13.525859,62,127,71
13.655169,13.887928,62,127,71
13.965514,14.017238,62,127,71
14.068962,14.6896515,63,127,71
14.6896515,14.793099,65,127,71
14.793099,14.844824,67,127,71
14.896548,15.18103,68,127,71
15.310341,15.543099,68,127,71
15.620686,15.67241,68,127,71
15.724134,15.93103,68,127,71
15.93103,16.137926,67,127,71
16.137926,16.344824,65,127,71
16.344824,16.499996,63,127,71
16.55172,16.836203,62,127,71
16.965513,17.19827,65,127,71
17.275858,17.327581,65,127,71
17.379307,18.129305,67,127,71
18.206892,19.034477,63,127,71
19.034477,19.344822,62,127,71
19.862064,19.965511,58,127,71
19.999994,20.103443,63,127,71
20.137926,20.241375,67,127,71
20.275858,20.379305,58,127,71
20.413788,20.517237,63,127,71
20.55172,20.655167,67,127,71
20.68965,20.793098,58,127,71
20.827581,20.931028,62,127,71
20.965511,21.06896,65,127,71
21.103443,21.206892,58,127,71
21.241373,21.344822,62,127,71
21.379305,21.482754,65,127,71
21.517237,21.620684,58,127,71
21.655167,21.758615,63,127,71
21.793098,21.896545,67,127,71
21.931028,22.034477,58,127,71
22.06896,22.17241,63,127,71
22.20689,22.310339,67,127,71
22.344822,22.44827,58,127,71
22.482754,22.5862,62,127,71
22.620684,22.724133,65,127,71
22.758615,22.862062,70,127,71
22.896545,22.999994,65,127,71
23.034477,23.137926,68,127,71
23.172407,23.275856,63,127,71
23.301718,23.379305,75,127,71
23.44827,23.551718,75,127,71
23.5862,23.68965,63,127,71
23.724133,23.801718,75,127,71
23.862062,23.965511,75,127,71
23.999994,24.103443,63,127,71
24.137924,24.215511,75,127,71
24.275856,24.379305,75,127,71
24.413788,24.517235,63,127,71
24.551718,24.629305,75,127,71
24.68965,24.793097,75,127,71
24.82758,25.060339,79,127,71
25.137924,25.18965,75,127,71
25.241373,25.47413,77,127,71
25.551718,25.603441,74,127,71
25.655167,25.93965,67,127,71
26.482752,26.5862,58,127,71
26.620684,26.72413,63,127,71
26.758614,26.862062,67,127,71
26.896545,26.999992,70,127,71
27.034475,27.137924,67,127,71
27.172407,27.275856,63,127,71
27.310337,27.413786,58,127,71
27.448269,27.551718,62,127,71
27.5862,27.689648,65,127,71
27.72413,27.82758,70,127,71
27.862062,27.96551,65,127,71
27.999992,28.103441,62,127,71
28.137924,28.241373,60,127,71
28.275854,28.379303,63,127,71
28.413786,28.517235,65,127,71
28.551718,28.655165,60,127,71
28.689648,28.793097,63,127,71
28.82758,28.931026,65,127,71
28.96551,29.068958,58,127,71
29.103441,29.20689,62,127,71
29.241371,29.34482,65,127,71
29.379303,29.482752,58,127,71
29.517235,29.620682,62,127,71
29.655165,29.758614,65,127,71
29.793097,29.896544,58,127,71
29.931026,30.034475,63,127,71
30.068958,30.172407,67,127,71
30.206888,30.310337,70,127,71
30.34482,30.448269,67,127,71
30.482752,30.586199,63,127,71
30.620682,30.72413,58,127,71
30.758614,30.86206,62,127,71
30.896544,30.999992,65,127,71
31.034475,31.137924,70,127,71
31.172405,31.275854,65,127,71
31.310337,31.413786,62,127,71
31.448269,31.551716,60,127,71
31.586199,31.689648,63,127,71
31.72413,31.827578,65,127,71
31.86206,31.96551,60,127,71
31.999992,32.10344,63,127,71
32.137924,32.24137,65,127,71
32.275852,32.379303,58,127,71
32.413784,32.517235,62,127,71
32.551716,32.655163,65,127,71
32.689648,32.793095,58,127,71
32.82758,32.931026,62,127,71
32.965508,33.06896,65,127,71
40.551716,40.655163,51,127,71
40.689644,40.793095,55,127,71
40.827576,40.931023,58,127,71
40.965508,41.068954,63,127,71
41.10344,41.206886,67,127,71
41.241367,41.34482,70,127,71
41.3793,41.72413,67,127,71
42.206886,42.310333,55,127,71
42.34482,42.448265,60,127,71
42.482746,42.586197,63,127,71
42.620678,42.698265,67,127,71
42.75861,42.836197,67,127,71
42.89654,42.99999,67,127,71
43.034473,43.3793,65,127,71
47.1724,47.27585,69,127,71
47.310333,47.448265,75,127,71
47.448265,47.551712,74,127,71
47.586197,47.689644,72,127,71
47.724125,47.827576,70,127,71
47.862057,47.965504,69,127,71
47.99999,48.344814,70,127,71
48.827576,48.931023,69,127,71
48.965504,49.103436,75,127,71
49.103436,49.206882,74,127,71
49.241367,49.344814,72,127,71
49.3793,49.482746,70,127,71
49.517227,49.620678,69,127,71
49.65516,49.862057,70,127,71
50.068954,50.27585,69,127,71
50.482746,50.689644,70,127,71
50.896538,51.103436,69,127,71
51.310333,51.65516,70,127,71
54.620674,54.90516,67,127,71
55.03447,55.267227,67,127,71
55.344814,55.396538,67,127,71
55.44826,55.68102,65,127,71
55.758606,55.81033,63,127,71
55.862057,56.094814,65,127,71
56.1724,56.224125,62,127,71
56.27585,56.56033,58,127,71
56.68964,56.9224,67,127,71
56.999985,57.05171,67,127,71
57.103436,57.724125,70,127,71
57.724125,57.879295,68,127,71
57.93102,58.215504,67,127,71
58.344814,58.57757,70,127,71
58.65516,58.706882,70,127,71
58.758606,58.991364,75,127,71
59.06895,59.120674,75,127,71
59.172398,59.40516,75,127,71
59.482742,59.53447,75,127,71
59.586193,59.94826,75,127,71
59.999985,60.206882,68,127,71
60.206882,60.362053,72,127,71
60.413776,61.137917,68,127,71
61.241364,61.52585,67,127,71
61.655155,61.887917,67,127,71
61.9655,62.017227,67,127,71
62.06895,62.30171,65,127,71
62.379295,62.43102,63,127,71
62.482742,62.7155,65,127,71
62.793087,62.84481,62,127,71
62.896538,63.18102,58,127,71
63.31033,63.543087,67,127,71
63.620674,63.672398,67,127,71
63.72412,64.34481,70,127,71
64.34481,64.499985,68,127,71
64.551704,64.83619,67,127,71
64.9655,65.19826,75,127,71
65.27585,65.32757,75,127,71
65.379295,65.61205,75,127,71
65.68964,65.74136,75,127,71
65.79308,66.02585,75,127,71
66.10343,66.15516,75,127,71
66.20688,66.43964,79,127,71
66.51723,66.56895,75,127,71
66.620674,66.85343,77,127,71
66.931015,66.98274,74,127,71
67.03447,67.370674,67,127,71
67.86205,68.19826,63,127,71
68.27585,68.35343,63,127,71
68.41377,68.49136,63,127,71
68.551704,68.629295,63,127,71
68.68964,69.03446,63,127,71
69.10343,69.181015,63,127,71
69.24136,69.31895,63,127,71
69.379295,69.45688,63,127,71
69.51723,70.29308,69,127,71
70.34481,70.91377,67,127,71
70.9655,71.120674,67,127,71
71.17239,71.32757,67,127,71
71.58619,71.74136,71,127,71
71.999985,72.15515,67,127,71
72.41377,72.56895,67,127,71
72.82757,72.98274,68,127,71
73.24136,73.39653,65,127,71
73.65515,73.99136,63,127,71
74.06895,74.14653,63,127,71
74.20688,74.28446,63,127,71
74.34481,74.42239,63,127,71
74.48274,74.81895,63,127,71
74.89653,74.97412,63,127,71
75.03446,75.11205,63,127,71
75.17239,75.249985,63,127,71
75.310326,75.65515,63,127,71
75.72412,75.801704,63,127,71
75.86205,75.93964,63,127,71
75.999985,76.07757,63,127,71
76.13791,76.91377,69,127,71
76.9655,77.53446,70,127,71
77.58619,77.74136,70,127,71
77.79308,77.94826,70,127,71
78.20688,78.36205,70,127,71
78.62067,78.77584,70,127,71
79.03446,79.18964,70,127,71
79.44826,79.60343,70,127,71
79.862045,80.01722,69,127,71
80.27584,80.37929,67,127,71
80.41377,80.51722,58,127,71
80.551704,80.65515,62,127,71
80.68964,80.79308,67,127,71
80.82757,80.931015,70,127,71
80.9655,81.06895,74,127,71
81.10343,81.20688,72,127,71
81.241356,81.34481,75,127,71
81.37929,81.482735,74,127,71
81.51722,81.62067,72,127,71
81.65515,81.7586,70,127,71
81.79308,81.89653,69,127,71
81.931015,82.03446,70,127,71
82.06895,82.17239,74,127,71
82.20688,82.310326,72,127,71
82.34481,82.44826,70,127,71
82.482735,82.58619,69,127,71
82.62067,82.72411,67,127,71
82.7586,82.862045,72,127,71
82.89653,82.99998,75,127,71
83.03446,83.13791,74,127,71
83.17239,83.27584,72,127,71
83.310326,83.41377,70,127,71
83.44826,83.551704,69,127,71
83.58619,83.68964,70,127,71
83.72411,83.82757,74,127,71
83.862045,83.9655,72,127,71
83.99998,84.103424,70,127,71
84.13791,84.241356,69,127,71
84.27584,84.37929,67,127,71
86.482735,86.89653,71,127,71
86.89653,87.232735,72,127,71
88.13791,88.551704,67,127,71
88.551704,88.89653,68,127,71
89.79308,90.20687,67,127,71
90.20687,90.551704,68,127,71
91.03446,91.39653,68,127,71
91.44825,91.52584,68,127,71
91.58618,91.66377,68,127,71
91.72411,91.801704,68,127,71
91.862045,92.22411,68,127,71
92.27584,92.353424,68,127,71
92.41377,92.491356,68,127,71
92.551704,92.62929,68,127,71
92.68963,93.362045,68,127,71
93.41377,93.491356,67,127,71
93.51722,93.77584,65,127,71
93.82756,93.90515,63,127,71
93.93101,94.18963,62,127,71
94.241356,94.31894,60,127,71
94.3448,94.68101,59,127,71
95.58618,95.8448,60,127,71
95.89653,95.97411,60,127,71
95.99998,96.33618,59,127,71
97.241356,97.49998,60,127,71
97.5517,97.62929,60,127,71
97.65515,97.991356,59,127,71
98.06894,98.32756,60,127,71
98.37929,98.45687,60,127,71
98.482735,98.8448,59,127,71
98.89653,99.15515,60,127,71
99.20687,99.284454,60,127,71
99.31032,99.64653,59,127,71
102.62067,102.90514,67,127,71
103.034454,103.26721,67,127,71
103.3448,103.39652,67,127,71
103.44825,103.68101,65,127,71
103.7586,103.81032,63,127,71
103.862045,104.0948,65,127,71
104.172386,104.22411,62,127,71
104.27583,104.56032,58,127,71
104.68963,104.922386,67,127,71
104.99998,105.0517,67,127,71
105.103424,105.72411,70,127,71
105.72411,105.87928,68,127,71
105.93101,106.21549,67,127,71
106.3448,106.57756,70,127,71
106.65514,106.70687,70,127,71
106.75859,106.991356,75,127,71
107.06894,107.12067,75,127,71
107.172386,107.40514,75,127,71
107.482735,107.534454,75,127,71
107.58618,107.94825,75,127,71
107.99997,108.20687,68,127,71
108.20687,108.362045,72,127,71
108.413765,109.1379,68,127,71
109.24135,109.52583,67,127,71
109.65514,109.8879,67,127,71
109.96549,110.01721,67,127,71
110.06894,110.3017,65,127,71
110.37928,110.43101,63,127,71
110.482735,110.71549,65,127,71
110.793076,110.8448,62,127,71
110.89652,111.18101,58,127,71
111.31032,111.543076,67,127,71
111.62066,111.672386,67,127,71
111.72411,112.3448,70,127,71
112.3448,112.49997,68,127,71
112.5517,112.83618,67,127,71
112.96549,113.19825,75,127,71
113.27583,113.32756,75,127,71
113.37928,113.61204,75,127,71
113.68963,113.74135,75,127,71
113.793076,114.02583,75,127,71
114.10342,114.15514,75,127,71
114.20687,114.43963,79,127,71
114.51721,114.56894,75,127,71
114.62066,114.85342,77,127,71
114.93101,114.98273,74,127,71
115.034454,115.31894,67,127,71
115.86204,116.14652,62,127,71
116.27583,116.50859,62,127,71
116.586174,116.6379,62,127,71
116.68963,117.31032,63,127,71
117.31032,117.413765,65,127,71
117.413765,117.465485,67,127,71
117.51721,117.8017,68,127,71
117.93101,118.163765,68,127,71
118.24135,118.293076,68,127,71
118.344795,118.5517,68,127,71
118.5517,118.75859,67,127,71
118.75859,118.965485,65,127,71
118.965485,119.12066,63,127,71
119.172386,119.45686,62,127,71
119.586174,119.81894,65,127,71
119.89652,119.94824,65,127,71
119.99997,120.74997,67,127,71
120.82755,121.65514,63,127,71
121.65514,121.965485,62,127,71
122.48273,122.586174,58,127,71
122.62066,122.724106,63,127,71
122.75859,122.86204,67,127,71
122.89652,122.99997,58,127,71
123.034454,123.1379,63,127,71
123.172386,123.27583,67,127,71
123.31031,123.413765,58,127,71
123.44824,123.5517,62,127,71
123.586174,123.68962,65,127,71
123.724106,123.82755,58,127,71
123.86204,123.965485,62,127,71
123.99997,124.10342,65,127,71
124.1379,124.24135,58,127,71
124.27583,124.37928,63,127,71
124.413765,124.51721,67,127,71
124.5517,124.65514,58,127,71
124.68962,124.793076,63,127,71
124.82755,124.931,67,127,71
124.965485,125.06893,58,127,71
125.10342,125.20686,62,127,71
125.24135,125.344795,65,127,71
125.37928,125.48273,70,127,71
125.51721,125.62066,65,127,71
125.65514,125.75859,68,127,71
125.793076,125.89652,63,127,71
125.92238,125.99997,75,127,71
126.06893,126.17238,75,127,71
126.20686,126.31031,63,127,71
126.344795,126.42238,75,127,71
126.48273,126.586174,75,127,71
126.62066,126.724106,63,127,71
126.75859,126.836174,75,127,71
126.89652,126.99997,75,127,71
127.034454,127.1379,63,127,71
127.17238,127.24997,75,127,71
127.31031,127.413765,75,127,71
127.44824,127.681,79,127,71
127.75859,127.81031,75,127,71
127.86204,128.0948,77,127,71
128.17238,128.2241,74,127,71
128.27583,128.56032,67,127,71
129.10565,129.9366,68,127,71
129.96338,130.79375,70,127,71
130.82053,131.65088,68,127,71
131.67767,132.50803,67,127,71
132.5348,133.36517,68,127,71
133.39195,134.2223,70,127,71
134.2491,135.07945,67,127,71
135.10623,135.45445,68,127,71
141.10623,141.93658,67,127,71
141.96338,142.31158,68,127,71
142.82051,143.65088,72,127,71
143.67766,144.50801,70,127,71
144.5348,145.36516,69,127,71
145.39194,146.22229,70,127,71
146.24908,147.07944,67,127,71
147.10623,147.93658,68,127,71
147.96336,148.79372,70,127,71
148.82051,149.16872,68,127,71
156.74907,156.90979,68,127,71
156.96336,157.12407,68,127,71
157.17764,157.33836,68,127,71
157.60622,157.8205,68,127,71
157.8205,158.03479,70,127,71
158.03479,158.1955,68,127,71
158.46336,158.62407,68,127,71
158.67764,158.83836,68,127,71
158.89192,159.05264,68,127,71
159.3205,159.53479,68,127,71
159.53479,159.74907,70,127,71
159.74907,159.90979,68,127,71
159.96335,160.12407,68,127,71
160.17764,160.33835,74,127,71
160.39192,160.55264,74,127,71
160.60622,160.76692,74,127,71
160.8205,161.14192,74,127,71
161.89192,162.05264,74,127,71
162.10622,162.26692,74,127,71
162.3205,162.48122,74,127,71
162.53477,162.85622,74,127,71
166.7839,167.06839,67,127,71
167.1977,167.43045,67,127,71
167.50804,167.55977,67,127,71
167.6115,167.84425,65,127,71
167.92183,167.97356,63,127,71
168.02528,168.25804,65,127,71
168.33563,168.38736,62,127,71
168.43907,168.72356,58,127,71
168.85287,169.08563,67,127,71
169.16321,169.21494,67,127,71
169.26666,169.88734,70,127,71
169.88734,170.04253,68,127,71
170.09425,170.37874,67,127,71
170.50804,170.7408,70,127,71
170.81839,170.87012,70,127,71
170.92183,171.15459,75,127,71
171.23218,171.2839,75,127,71
171.33563,171.56839,75,127,71
171.64597,171.6977,75,127,71
171.74942,172.1115,75,127,71
172.16321,172.37012,68,127,71
172.37012,172.52528,72,127,71
172.57701,173.30115,68,127,71
173.40459,173.68907,67,127,71
173.81839,174.05115,67,127,71
174.12872,174.18045,67,127,71
174.23218,174.46494,65,127,71
174.54253,174.59425,63,127,71
174.64597,174.87872,65,127,71
174.95631,175.00804,62,127,71
175.05977,175.34425,58,127,71
175.47356,175.70631,67,127,71
175.7839,175.83563,67,127,71
175.88734,176.50804,70,127,71
176.50804,176.66321,68,127,71
176.71494,176.99942,67,127,71
177.12872,177.36148,75,127,71
177.43907,177.4908,75,127,71
177.54253,177.77528,75,127,71
177.85286,177.90459,75,127,71
177.95631,178.18907,75,127,71
178.26666,178.31839,75,127,71
178.3701,178.60286,79,127,71
178.68045,178.73218,75,127,71
178.7839,179.01666,77,127,71
179.09425,179.14597,74,127,71
179.1977,179.48218,67,127,71
180.02528,180.30977,62,127,71
180.43907,180.67183,62,127,71
180.74942,180.80115,62,127,71
180.85286,181.47356,63,127,71
181.47356,181.57701,65,127,71
181.57701,181.62872,67,127,71
181.68045,181.96494,68,127,71
182.09424,182.32701,68,127,71
182.40459,182.45631,68,127,71
182.50804,182.71494,68,127,71
182.71494,182.92183,67,127,71
182.92183,183.12872,65,127,71
183.12872,183.2839,63,127,71
183.33562,183.6201,62,127,71
183.74942,183.98218,65,127,71
184.05977,184.11148,65,127,71
184.16321,184.91321,67,127,71
184.9908,185.81839,63,127,71
185.81839,186.12872,62,127,71
186.64597,186.74942,58,127,71
186.7839,186.88734,63,127,71
186.92183,187.02528,67,127,71
187.05977,187.16321,58,127,71
187.1977,187.30115,63,127,71
187.33562,187.43907,67,127,71
187.47356,187.577,58,127,71
187.61148,187.71494,62,127,71
187.74942,187.85286,65,127,71
187.88734,187.9908,58,127,71
188.02528,188.12872,62,127,71
188.16321,188.26666,65,127,71
188.30115,188.40459,58,127,71
188.43907,188.54253,63,127,71
188.577,188.68045,67,127,71
188.71494,188.81837,58,127,71
188.85286,188.95631,63,127,71
188.9908,189.09424,67,127,71
189.12872,189.23218,58,127,71
189.26666,189.3701,62,127,71
189.40459,189.50804,65,127,71
189.54253,189.64597,70,127,71
189.68045,189.7839,65,127,71
189.81837,189.92183,68,127,71
189.95631,190.05975,63,127,71
190.08562,190.16321,75,127,71
190.23218,190.33562,75,127,71
190.3701,190.47356,63,127,71
190.50804,190.58562,75,127,71
190.64597,190.74942,75,127,71
190.7839,190.88734,63,127,71
190.92183,190.99942,75,127,71
191.05975,191.16321,75,127,71
191.1977,191.30113,63,127,71
191.33562,191.41321,75,127,71
191.47356,191.577,75,127,71
191.61148,191.84424,79,127,71
191.92183,191.97356,75,127,71
192.02528,192.25804,77,127,71
192.33562,192.38734,74,127,71
192.43907,192.72356,67,127,71
193.26666,193.60286,63,127,71
193.68045,193.91321,63,127,71
193.9908,194.04251,63,127,71
194.09424,194.43045,65,127,71
194.92183,195.25804,63,127,71
195.33562,195.56837,63,127,71
195.64597,195.72356,63,127,71
195.74942,196.08562,62,127,71
196.577,196.91321,63,127,71
196.9908,197.22356,63,127,71
197.30113,197.37872,63,127,71
197.40459,197.50804,56,127,71
197.54251,197.64597,60,127,71
197.68045,197.78389,65,127,71
197.81837,197.92183,56,127,71
197.95631,198.05975,60,127,71
198.09424,198.1977,65,127,71
198.23218,198.33562,55,127,71
198.3701,198.47356,58,127,71
198.50804,198.61148,63,127,71
198.64597,198.74942,56,127,71
198.78389,198.88734,58,127,71
198.92183,199.02527,62,127,71
199.05975,199.16321,55,127,71
199.1977,199.30113,58,127,71
199.33562,199.43907,63,127,71
199.47356,199.577,67,127,71
199.61148,199.71494,65,127,71
199.74942,199.85286,62,127,71
199.88734,200.22356,63,127,71
200.30113,200.53389,63,127,71
200.61148,200.66321,63,127,71
200.71494,201.05113,65,127,71
201.54251,201.87872,63,127,71
201.95631,202.18907,63,127,71
202.26665,202.34424,63,127,71
202.3701,202.70631,62,127,71
203.1977,203.53389,63,127,71
203.61148,203.84424,63,127,71
203.92183,203.9994,63,127,71
204.02527,204.36148,72,127,71
204.43907,204.67183,72,127,71
204.7494,204.80113,72,127,71
204.85286,205.65459,67,127,71
205.68045,206.48218,62,127,71
206.50803,206.61148,55,127,71
206.64597,206.7494,58,127,71
206.78389,206.88734,63,127,71
206.92183,207.02527,55,127,71
207.05975,207.16321,58,127,71
207.1977,207.30113,63,127,71
207.33562,207.43907,56,127,71
207.47356,207.577,58,127,71
207.61148,207.71494,62,127,71
207.7494,207.85286,56,127,71
207.88734,207.99078,58,127,71
208.02527,208.12872,62,127,71
208.16321,208.26665,55,127,71
208.30113,208.40459,58,127,71
208.43907,208.54251,63,127,71
208.577,208.68045,55,127,71
208.71494,208.81837,58,127,71
208.85286,208.95631,63,127,71
208.99078,209.09424,56,127,71
209.12872,209.23216,58,127,71
209.26665,209.3701,65,127,71
209.40459,209.50803,56,127,71
209.54251,209.64597,58,127,71
209.68045,209.78389,65,127,71
209.81837,209.92183,55,127,71
209.95631,210.05975,58,127,71
210.09424,210.1977,63,127,71
210.23216,210.33562,55,127,71
210.3701,210.47354,58,127,71
210.50803,210.61148,63,127,71
210.64597,210.7494,56,127,71
210.78389,210.88734,58,127,71
210.92183,211.02527,62,127,71
211.05975,211.16321,56,127,71
211.1977,211.30113,58,127,71
211.33562,211.43907,62,127,71
211.47354,211.577,55,127,71
211.61148,211.71492,58,127,71
211.7494,211.85286,63,127,71
211.88734,211.99078,55,127,71
212.02527,212.12872,58,127,71
212.16321,212.26665,63,127,71
212.30113,212.40459,56,127,71
212.43907,212.54251,58,127,71
212.577,212.68045,65,127,71
212.71492,212.81837,56,127,71
212.85286,212.95631,58,127,71
212.99078,213.09424,65,127,71
213.12872,213.23216,55,127,71
213.26665,213.3701,58,127,71
213.40459,213.50803,63,127,71
213.54251,213.64597,55,127,71
213.68045,213.78389,58,127,71
213.81837,213.92183,63,127,71
213.9563,214.05975,56,127,71
214.09424,214.1977,58,127,71
214.23216,214.33562,65,127,71
214.3701,214.47354,56,127,71
214.50803,214.61148,58,127,71
214.64597,214.7494,62,127,71
214.78389,214.88734,55,127,71
214.92183,215.02527,58,127,71
215.05975,215.16321,63,127,71
215.1977,215.30113,55,127,71
215.33562,215.43907,58,127,71
215.47354,215.577,63,127,71
215.61148,215.71492,56,127,71
215.7494,215.85286,58,127,71
215.88734,215.99078,65,127,71
216.02527,216.12872,56,127,71
216.16321,216.26665,58,127,71
216.30113,216.40459,62,127,71
216.43907,216.54251,55,127,71
216.577,216.68045,58,127,71
216.71492,216.81837,63,127,71
216.85286,216.9563,56,127,71
216.99078,217.09424,58,127,71
217.12872,217.23216,62,127,71
217.26665,217.3701,55,127,71
217.40459,217.50803,58,127,71
217.54251,217.64597,63,127,71
217.68045,217.78389,56,127,71
217.81837,217.92183,58,127,71
217.9563,218.05975,62,127,71
218.09424,218.43045,55,127,71
218.92183,219.25803,67,127,71
219.33562,219.56837,67,127,71
219.64597,219.69768,67,127,71
219.7494,220.08562,68,127,71
220.577,220.91321,72,127,71
220.99078,221.22354,72,127,71
221.30113,221.35286,72,127,71
221.40459,221.74078,70,127,71
227.19902,227.57864,68,127,71
227.66653,227.9302,68,127,71
228.0181,228.07669,68,127,71
228.13832,228.65244,67,127,71
0.0,0.2844827,58,127,70
0.413793,0.64655155,58,127,70
0.7241377,0.77586186,58,127,70
0.827586,1.0603446,58,127,70
1.1379308,1.1896548,58,127,70
1.241379,1.4741375,58,127,70
1.5517237,1.6034479,58,127,70
1.655172,1.9396547,58,127,70
2.068965,2.3017235,58,127,70
2.3793097,2.4310338,58,127,70
2.482758,3.1034474,58,127,70
3.1034474,3.2586198,62,127,70
3.310344,3.5948267,63,127,70
3.724137,3.9568956,63,127,70
4.0344815,4.086206,63,127,70
4.13793,4.3706884,60,127,70
4.4482746,4.499999,60,127,70
4.551723,4.7844815,55,127,70
4.8620677,4.9137917,55,127,70
4.965516,5.094826,56,127,70
5.1724124,5.5862055,60,127,70
5.5862055,5.741378,56,127,70
5.793102,6.0775847,53,127,70
6.4137917,6.620688,62,127,70
6.620688,6.905171,63,127,70
7.034481,7.2672396,58,127,70
7.3448257,7.3965497,58,127,70
7.448274,7.6810327,58,127,70
7.758619,7.810343,58,127,70
7.862067,8.094826,58,127,70
8.172412,8.224135,58,127,70
8.27586,8.560343,58,127,70
8.689653,8.922412,58,127,70
8.999998,9.051722,58,127,70
9.103446,9.724135,58,127,70
9.724135,9.879308,62,127,70
9.931032,10.215515,63,127,70
10.344825,10.577583,60,127,70
10.6551695,10.706894,60,127,70
10.758618,10.991377,55,127,70
11.068963,11.120687,55,127,70
11.172411,11.4051695,56,127,70
11.482756,11.53448,56,127,70
11.586204,11.818962,58,127,70
11.896549,11.948273,58,127,70
11.999997,12.232756,58,127,70
12.310342,12.362066,58,127,70
12.41379,12.749997,63,127,70
13.241376,13.525859,62,127,70
13.655169,13.887928,62,127,70
13.965514,14.017238,62,127,70
14.068962,14.818962,63,127,70
14.896548,15.18103,56,127,70
15.310341,15.543099,56,127,70
15.620686,15.67241,56,127,70
15.724134,15.93103,56,127,70
15.93103,16.137926,55,127,70
16.137926,16.344824,53,127,70
16.344824,16.499996,51,127,70
16.55172,16.836203,50,127,70
16.965513,17.19827,62,127,70
17.275858,17.327581,62,127,70
17.379307,18.129305,63,127,70
18.206892,19.034477,60,127,70
19.034477,19.344822,58,127,70
19.862064,20.146547,63,127,70
20.275858,20.508615,63,127,70
20.586203,20.637926,63,127,70
20.68965,20.741375,63,127,70
20.741375,20.92241,62,127,70
20.999994,21.077581,60,127,70
21.103443,21.3362,62,127,70
21.413788,21.465511,58,127,70
21.517237,21.801718,63,127,70
21.931028,22.163788,63,127,70
22.241373,22.293098,63,127,70
22.344822,22.965511,65,127,70
22.965511,23.120684,62,127,70
23.172407,23.45689,63,127,70
23.5862,23.81896,60,127,70
23.896545,23.94827,60,127,70
23.999994,24.232752,55,127,70
24.310339,24.362062,55,127,70
24.413788,24.646545,56,127,70
24.724133,24.775856,56,127,70
24.82758,25.060339,58,127,70
25.137924,25.18965,58,127,70
25.241373,25.47413,58,127,70
25.551718,25.603441,58,127,70
25.655167,25.93965,51,127,70
33.10344,33.20689,57,127,70
33.24137,33.34482,60,127,70
33.379303,33.48275,65,127,70
33.517235,33.62068,57,127,70
33.655163,33.758614,60,127,70
33.793095,33.89654,65,127,70
33.931026,34.034473,58,127,70
34.06896,34.206886,65,127,70
34.206886,34.310337,63,127,70
34.34482,34.44827,62,127,70
34.48275,34.586197,60,127,70
34.62068,34.72413,58,127,70
34.758614,35.10344,63,127,70
35.172405,35.586197,63,127,70
35.586197,35.931026,62,127,70
36.413784,36.51723,57,127,70
36.551716,36.655163,60,127,70
36.689648,36.793095,65,127,70
36.827576,36.931026,57,127,70
36.965508,37.068954,60,127,70
37.10344,37.206886,65,127,70
37.24137,37.34482,58,127,70
37.3793,37.51723,65,127,70
37.51723,37.62068,63,127,70
37.655163,37.75861,62,127,70
37.793095,37.89654,60,127,70
37.931026,38.034473,58,127,70
38.068954,38.413784,63,127,70
38.48275,38.89654,63,127,70
38.89654,39.24137,62,127,70
39.72413,39.8793,63,127,70
39.905163,39.98275,65,127,70
39.98275,40.060333,63,127,70
40.060333,40.13792,62,127,70
40.13792,40.318954,63,127,70
40.318954,40.49999,65,127,70
40.551716,40.75861,67,127,70
40.75861,40.913784,63,127,70
40.965508,41.120678,63,127,70
41.172405,41.327576,63,127,70
41.3793,41.534473,60,127,70
41.560333,41.63792,62,127,70
41.612057,41.689644,60,127,70
41.715508,41.793095,59,127,70
41.793095,41.99999,60,127,70
41.99999,42.155163,62,127,70
42.206886,42.413784,63,127,70
42.413784,42.568954,60,127,70
42.620678,42.775852,60,127,70
42.827576,42.982746,60,127,70
43.034473,43.655163,57,127,70
43.655163,43.836197,58,127,70
43.862057,44.068954,60,127,70
44.068954,44.24999,62,127,70
44.275852,44.482746,63,127,70
44.482746,44.63792,60,127,70
44.689644,44.76723,62,127,70
44.827576,44.905163,62,127,70
44.965508,45.068954,62,127,70
45.103436,45.232746,62,127,70
45.241367,45.318954,60,127,70
45.3793,45.482746,60,127,70
45.51723,45.64654,60,127,70
45.655163,45.732746,58,127,70
45.79309,45.89654,58,127,70
45.931023,46.060333,58,127,70
46.068954,46.14654,57,127,70
46.206886,46.310333,57,127,70
46.344814,46.448265,58,127,70
46.482746,46.620678,65,127,70
46.620678,46.724125,63,127,70
46.75861,46.862057,62,127,70
46.89654,46.99999,60,127,70
47.03447,47.13792,58,127,70
47.1724,47.51723,63,127,70
47.79309,47.948265,63,127,70
47.99999,48.103436,62,127,70
48.13792,48.27585,65,127,70
48.27585,48.3793,63,127,70
48.41378,48.51723,62,127,70
48.551712,48.65516,60,127,70
48.689644,48.79309,58,127,70
48.827576,49.1724,63,127,70
49.448265,49.603436,63,127,70
49.65516,49.862057,62,127,70
50.068954,50.27585,63,127,70
50.482746,50.689644,62,127,70
50.896538,51.103436,63,127,70
51.310333,51.65516,62,127,70
54.620674,54.90516,58,127,70
55.03447,55.267227,58,127,70
55.344814,55.396538,58,127,70
55.44826,55.68102,58,127,70
55.758606,55.81033,58,127,70
55.862057,56.094814,58,127,70
56.1724,56.224125,58,127,70
56.27585,56.56033,58,127,70
56.68964,56.9224,58,127,70
56.999985,57.05171,58,127,70
57.103436,57.724125,58,127,70
57.724125,57.879295,62,127,70
57.93102,58.215504,63,127,70
58.344814,58.57757,63,127,70
58.65516,58.706882,63,127,70
58.758606,58.991364,60,127,70
59.06895,59.120674,60,127,70
59.172398,59.40516,55,127,70
59.482742,59.53447,55,127,70
59.586193,59.715504,56,127,70
59.793087,60.206882,60,127,70
60.206882,60.362053,56,127,70
60.413776,60.69826,53,127,70
61.034466,61.241364,62,127,70
61.241364,61.52585,63,127,70
61.655155,61.887917,58,127,70
61.9655,62.017227,58,127,70
62.06895,62.30171,58,127,70
62.379295,62.43102,58,127,70
62.482742,62.7155,58,127,70
62.793087,62.84481,58,127,70
62.896538,63.18102,58,127,70
63.31033,63.543087,58,127,70
63.620674,63.672398,58,127,70
63.72412,64.34481,58,127,70
64.34481,64.499985,62,127,70
64.551704,64.83619,63,127,70
64.9655,65.19826,60,127,70
65.27585,65.32757,60,127,70
65.379295,65.61205,55,127,70
65.68964,65.74136,55,127,70
65.79308,66.02585,56,127,70
66.10343,66.15516,56,127,70
66.20688,66.43964,58,127,70
66.51723,66.56895,58,127,70
66.620674,66.85343,58,127,70
66.931015,66.98274,58,127,70
67.03447,67.370674,63,127,70
67.86205,68.22412,60,127,70
68.27585,68.35343,60,127,70
68.41377,68.49136,60,127,70
68.551704,68.629295,60,127,70
68.68964,69.051704,60,127,70
69.10343,69.181015,60,127,70
69.24136,69.31895,60,127,70
69.379295,69.45688,60,127,70
69.51723,70.29308,60,127,70
70.34481,70.91377,59,127,70
70.9655,71.120674,62,127,70
71.17239,71.32757,60,127,70
71.58619,71.74136,65,127,70
71.999985,72.15515,67,127,70
72.41377,72.56895,63,127,70
72.82757,72.98274,65,127,70
73.24136,73.39653,62,127,70
73.65515,73.99136,60,127,70
74.06895,74.14653,60,127,70
74.20688,74.28446,60,127,70
74.34481,74.42239,60,127,70
74.48274,74.84481,60,127,70
74.89653,74.97412,60,127,70
75.03446,75.11205,60,127,70
75.17239,75.249985,60,127,70
75.310326,75.67239,60,127,70
75.72412,75.801704,60,127,70
75.86205,75.93964,60,127,70
75.999985,76.07757,60,127,70
76.13791,76.91377,63,127,70
76.9655,77.53446,64,127,70
77.58619,77.74136,64,127,70
77.79308,77.94826,62,127,70
78.20688,78.36205,61,127,70
78.62067,78.77584,62,127,70
79.03446,79.18964,64,127,70
79.44826,79.60343,62,127,70
79.862045,80.01722,60,127,70
80.27584,80.612045,58,127,70
81.51722,81.931015,66,127,70
81.931015,82.26722,67,127,70
83.17239,83.58619,62,127,70
83.58619,83.92239,67,127,70
84.82757,85.241356,59,127,70
85.241356,85.57757,60,127,70
86.482735,86.89653,62,127,70
86.89653,87.232735,63,127,70
87.72411,87.82757,58,127,70
87.862045,87.96549,61,127,70
87.99998,88.103424,60,127,70
88.13791,88.241356,58,127,70
88.27584,88.37929,56,127,70
88.41377,88.51722,55,127,70
88.551704,88.65515,56,127,70
88.68964,88.79308,60,127,70
88.82756,88.931015,58,127,70
88.96549,89.06895,56,127,70
89.103424,89.20687,55,127,70
89.241356,89.3448,53,127,70
89.37929,89.482735,58,127,70
89.51722,89.62067,61,127,70
89.65515,89.7586,60,127,70
89.79308,89.89653,58,127,70
89.931015,90.03446,56,127,70
90.06894,90.17239,55,127,70
90.20687,90.310326,56,127,70
90.3448,90.44825,60,127,70
90.482735,90.58618,58,127,70
90.62067,90.72411,56,127,70
90.7586,90.862045,55,127,70
90.89653,90.99998,53,127,70
91.03446,91.37067,60,127,70
91.44825,91.52584,60,127,70
91.58618,91.66377,60,127,70
91.72411,91.801704,60,127,70
91.862045,92.22411,60,127,70
92.27584,92.353424,60,127,70
92.41377,92.491356,60,127,70
92.551704,92.62929,60,127,70
92.68963,93.051704,60,127,70
93.103424,93.362045,56,127,70
93.41377,93.491356,58,127,70
93.51722,93.77584,60,127,70
93.82756,93.90515,58,127,70
93.93101,94.18963,56,127,70
94.241356,94.31894,57,127,70
94.3448,94.68101,55,127,70
94.7586,95.01722,62,127,70
95.06894,95.14653,62,127,70
95.17239,95.5086,63,127,70
95.58618,95.8448,63,127,70
95.89653,95.97411,63,127,70
95.99998,96.33618,62,127,70
96.41377,96.672386,62,127,70
96.72411,96.8017,62,127,70
96.82756,97.16377,63,127,70
97.241356,97.49998,63,127,70
97.5517,97.62929,63,127,70
97.65515,97.991356,62,127,70
98.06894,98.32756,63,127,70
98.37929,98.45687,63,127,70
98.482735,98.81894,62,127,70
98.89653,99.15515,63,127,70
99.20687,99.284454,63,127,70
99.31032,99.64653,62,127,70
102.62067,102.90514,58,127,70
103.034454,103.26721,58,127,70
103.3448,103.39652,58,127,70
103.44825,103.68101,58,127,70
103.7586,103.81032,58,127,70
103.862045,104.0948,58,127,70
104.172386,104.22411,58,127,70
104.27583,104.56032,58,127,70
104.68963,104.922386,58,127,70
104.99998,105.0517,58,127,70
105.103424,105.72411,58,127,70
105.72411,105.87928,62,127,70
105.93101,106.21549,63,127,70
106.3448,106.57756,63,127,70
106.65514,106.70687,63,127,70
106.75859,106.991356,60,127,70
107.06894,107.12067,60,127,70
107.172386,107.40514,55,127,70
107.482735,107.534454,55,127,70
107.58618,107.71549,56,127,70
107.793076,108.20687,60,127,70
108.20687,108.362045,56,127,70
108.413765,108.69825,53,127,70
109.034454,109.24135,62,127,70
109.24135,109.52583,63,127,70
109.65514,109.8879,58,127,70
109.96549,110.01721,58,127,70
110.06894,110.3017,58,127,70
110.37928,110.43101,58,127,70
110.482735,110.71549,58,127,70
110.793076,110.8448,58,127,70
110.89652,111.18101,58,127,70
111.31032,111.543076,58,127,70
111.62066,111.672386,58,127,70
111.72411,112.3448,58,127,70
112.3448,112.49997,62,127,70
112.5517,112.83618,63,127,70
112.96549,113.19825,60,127,70
113.27583,113.32756,60,127,70
113.37928,113.61204,55,127,70
113.68963,113.74135,55,127,70
113.793076,114.02583,56,127,70
114.10342,114.15514,56,127,70
114.20687,114.43963,58,127,70
114.51721,114.56894,58,127,70
114.62066,114.85342,58,127,70
114.93101,114.98273,58,127,70
115.034454,115.37066,63,127,70
115.86204,116.14652,62,127,70
116.27583,116.50859,62,127,70
116.586174,116.6379,62,127,70
116.68963,117.43963,63,127,70
117.51721,117.8017,56,127,70
117.93101,118.163765,56,127,70
118.24135,118.293076,56,127,70
118.344795,118.5517,56,127,70
118.5517,118.75859,55,127,70
118.75859,118.965485,53,127,70
118.965485,119.12066,51,127,70
119.172386,119.45686,50,127,70
119.586174,119.81894,62,127,70
119.89652,119.94824,62,127,70
119.99997,120.74997,63,127,70
120.82755,121.65514,60,127,70
121.65514,121.965485,58,127,70
122.48273,122.76721,63,127,70
122.89652,123.12928,63,127,70
123.20686,123.25859,63,127,70
123.31031,123.36204,63,127,70
123.36204,123.543076,62,127,70
123.62066,123.69824,60,127,70
123.724106,123.95686,62,127,70
124.034454,124.086174,58,127,70
124.1379,124.422386,63,127,70
124.5517,124.784454,63,127,70
124.86204,124.913765,63,127,70
124.965485,125.586174,65,127,70
125.586174,125.74135,62,127,70
125.793076,126.07755,63,127,70
126.20686,126.43962,60,127,70
126.51721,126.56893,60,127,70
126.62066,126.85342,55,127,70
126.931,126.98273,55,127,70
127.034454,127.26721,56,127,70
127.344795,127.39652,56,127,70
127.44824,127.681,58,127,70
127.75859,127.81031,58,127,70
127.86204,128.0948,58,127,70
128.17238,128.2241,58,127,70
128.27583,128.56032,51,127,70
136.17766,136.33838,63,127,70
136.39195,136.55266,63,127,70
136.60623,136.76695,63,127,70
137.0348,137.24908,63,127,70
137.24908,137.46338,65,127,70
137.46338,137.62408,63,127,70
137.89195,138.05266,63,127,70
138.10623,138.26695,63,127,70
138.32053,138.48123,63,127,70
138.74908,138.96338,63,127,70
138.96338,139.17766,65,127,70
139.17766,139.33838,63,127,70
139.60623,139.76695,63,127,70
139.82051,139.98123,63,127,70
140.0348,140.19551,63,127,70
140.46338,140.67766,63,127,70
140.67766,140.89195,65,127,70
140.89195,141.05266,63,127,70
141.24908,141.35623,63,127,70
141.39195,141.52588,62,127,70
141.5348,141.64194,61,127,70
141.67766,141.7848,60,127,70
141.82051,141.95444,58,127,70
141.96338,142.31158,56,127,70
149.89194,150.05266,65,127,70
150.10622,150.26694,65,127,70
150.32051,150.48122,65,127,70
150.74908,150.96336,65,127,70
150.96336,151.17764,66,127,70
151.17764,151.33836,65,127,70
151.60622,151.76694,65,127,70
151.82051,151.98122,65,127,70
152.03479,152.19551,65,127,70
152.46336,152.67764,65,127,70
152.67764,152.89194,66,127,70
152.89194,153.05264,65,127,70
153.32051,153.48122,63,127,70
153.53479,153.69551,63,127,70
153.74907,153.90979,63,127,70
154.17764,154.39194,63,127,70
154.39194,154.60622,65,127,70
154.60622,154.76694,63,127,70
155.03479,155.1955,63,127,70
155.24907,155.40979,63,127,70
155.46336,155.62407,63,127,70
155.89194,156.10622,63,127,70
156.10622,156.3205,65,127,70
156.3205,156.48122,63,127,70
156.53479,157.36514,62,127,70
157.39192,158.22229,60,127,70
158.24907,159.07942,65,127,70
159.10622,159.93657,63,127,70
159.96335,160.12407,62,127,70
160.17764,160.33835,68,127,70
160.39192,160.55264,68,127,70
160.60622,160.76692,68,127,70
160.8205,161.14192,68,127,70
161.89192,162.05264,68,127,70
162.10622,162.26692,68,127,70
162.3205,162.48122,68,127,70
162.53477,162.85622,68,127,70
166.7839,167.06839,58,127,70
167.1977,167.43045,58,127,70
167.50804,167.55977,58,127,70
167.6115,167.84425,58,127,70
167.92183,167.97356,58,127,70
168.02528,168.25804,58,127,70
168.33563,168.38736,58,127,70
168.43907,168.72356,58,127,70
168.85287,169.08563,58,127,70
169.16321,169.21494,58,127,70
169.26666,169.88734,58,127,70
169.88734,170.04253,62,127,70
170.09425,170.37874,63,127,70
170.50804,170.7408,63,127,70
170.81839,170.87012,63,127,70
170.92183,171.15459,60,127,70
171.23218,171.2839,60,127,70
171.33563,171.56839,55,127,70
171.64597,171.6977,55,127,70
171.74942,171.87872,56,127,70
171.95631,172.37012,60,127,70
172.37012,172.52528,56,127,70
172.57701,172.8615,53,127,70
173.1977,173.40459,62,127,70
173.40459,173.68907,63,127,70
173.81839,174.05115,58,127,70
174.12872,174.18045,58,127,70
174.23218,174.46494,58,127,70
174.54253,174.59425,58,127,70
174.64597,174.87872,58,127,70
174.95631,175.00804,58,127,70
175.05977,175.34425,58,127,70
175.47356,175.70631,58,127,70
175.7839,175.83563,58,127,70
175.88734,176.50804,58,127,70
176.50804,176.66321,62,127,70
176.71494,176.99942,63,127,70
177.12872,177.36148,60,127,70
177.43907,177.4908,60,127,70
177.54253,177.77528,55,127,70
177.85286,177.90459,55,127,70
177.95631,178.18907,56,127,70
178.26666,178.31839,56,127,70
178.3701,178.60286,58,127,70
178.68045,178.73218,58,127,70
178.7839,179.01666,58,127,70
179.09425,179.14597,58,127,70
179.1977,179.5339,63,127,70
180.02528,180.30977,62,127,70
180.43907,180.67183,62,127,70
180.74942,180.80115,62,127,70
180.85286,181.60286,63,127,70
181.68045,181.96494,56,127,70
182.09424,182.32701,56,127,70
182.40459,182.45631,56,127,70
182.50804,182.71494,56,127,70
182.71494,182.92183,55,127,70
182.92183,183.12872,53,127,70
183.12872,183.2839,51,127,70
183.33562,183.6201,50,127,70
183.74942,183.98218,62,127,70
184.05977,184.11148,62,127,70
184.16321,184.91321,63,127,70
184.9908,185.81839,60,127,70
185.81839,186.12872,58,127,70
186.64597,186.93045,63,127,70
187.05977,187.29253,63,127,70
187.3701,187.42183,63,127,70
187.47356,187.52528,63,127,70
187.52528,187.70631,62,127,70
187.7839,187.86148,60,127,70
187.88734,188.1201,62,127,70
188.1977,188.24942,58,127,70
188.30115,188.58562,63,127,70
188.71494,188.9477,63,127,70
189.02528,189.077,63,127,70
189.12872,189.74942,65,127,70
189.74942,189.90459,62,127,70
189.95631,190.2408,63,127,70
190.3701,190.60286,60,127,70
190.68045,190.73218,60,127,70
190.7839,191.01666,55,127,70
191.09424,191.14597,55,127,70
191.1977,191.43045,56,127,70
191.50804,191.55975,56,127,70
191.61148,191.84424,58,127,70
191.92183,191.97356,58,127,70
192.02528,192.25804,58,127,70
192.33562,192.38734,58,127,70
192.43907,192.72356,51,127,70
193.26666,193.60286,60,127,70
193.68045,193.91321,60,127,70
193.9908,194.06837,60,127,70
194.09424,194.43045,62,127,70
194.92183,195.25804,60,127,70
195.33562,195.56837,60,127,70
195.64597,195.72356,60,127,70
195.74942,196.08562,59,127,70
196.577,196.91321,60,127,70
196.9908,197.22356,60,127,70
197.30113,197.37872,60,127,70
197.40459,197.7408,56,127,70
197.81837,198.15459,53,127,70
198.23218,198.6201,58,127,70
198.64597,199.05975,62,127,70
199.05975,199.39597,63,127,70
199.88734,200.22356,60,127,70
200.30113,200.53389,60,127,70
200.61148,200.68907,60,127,70
200.71494,201.05113,62,127,70
201.54251,201.87872,60,127,70
201.95631,202.18907,60,127,70
202.26665,202.34424,60,127,70
202.3701,202.70631,59,127,70
203.1977,203.53389,60,127,70
203.61148,203.84424,60,127,70
203.92183,203.9994,60,127,70
204.02527,204.36148,56,127,70
204.43907,204.67183,56,127,70
204.7494,204.80113,56,127,70
204.85286,205.65459,58,127,70
205.68045,206.45631,56,127,70
206.50803,206.84424,55,127,70
208.16321,208.4994,51,127,70
208.577,208.80975,51,127,70
208.88734,208.93907,51,127,70
208.99078,209.06837,51,127,70
209.06837,209.22356,50,127,70
209.30113,209.35286,48,127,70
209.40459,209.63734,50,127,70
209.71494,209.76665,46,127,70
209.81837,210.05113,51,127,70
210.12872,210.18045,55,127,70
210.23216,210.72354,58,127,70
210.78389,210.88734,60,127,70
210.92183,211.02527,58,127,70
211.05975,211.16321,56,127,70
211.1977,211.30113,55,127,70
211.33562,211.43907,53,127,70
211.47354,211.80975,51,127,70
211.88734,212.1201,51,127,70
212.1977,212.2494,51,127,70
212.30113,212.37872,51,127,70
212.37872,212.53389,50,127,70
212.61148,212.66321,48,127,70
212.71492,212.9477,50,127,70
213.02527,213.077,46,127,70
213.12872,213.46492,51,127,70
213.54251,213.9563,55,127,70
213.9563,214.29251,56,127,70
214.3701,214.60286,53,127,70
214.68045,214.73216,53,127,70
214.78389,215.1201,55,127,70
215.1977,215.61148,55,127,70
215.61148,215.94768,56,127,70
216.02527,216.28389,53,127,70
216.33562,216.38734,53,127,70
216.43907,216.77527,55,127,70
216.85286,217.08562,46,127,70
217.16321,217.21492,46,127,70
217.26665,217.60286,51,127,70
217.68045,217.91321,46,127,70
217.99078,218.04251,46,127,70
218.09424,218.43045,51,127,70
218.92183,219.25803,58,127,70
219.33562,219.56837,58,127,70
219.64597,219.69768,58,127,70
219.7494,220.08562,60,127,70
220.577,220.91321,56,127,70
220.99078,221.22354,56,127,70
221.30113,221.35286,56,127,70
221.40459,221.74078,55,127,70
222.23216,222.56837,63,127,70
222.64597,222.87872,63,127,70
222.9563,223.00803,63,127,70
223.05975,223.39597,58,127,70
227.19902,227.57864,62,127,70
227.66653,227.9302,62,127,70
228.0181,228.07669,62,127,70
228.13832,228.65244,63,127,70
0.0,0.2844827,51,127,70
0.413793,0.64655155,55,127,70
0.7241377,0.77586186,55,127,70
0.827586,1.0603446,58,127,70
1.1379308,1.1896548,58,127,70
1.241379,1.4741375,56,127,70
1.5517237,1.6034479,56,127,70
1.655172,1.9396547,55,127,70
2.068965,2.3017235,51,127,70
2.3793097,2.4310338,51,127,70
2.482758,2.896551,50,127,70
2.896551,3.2327578,46,127,70
3.310344,3.5948267,51,127,70
3.724137,3.9568956,51,127,70
4.0344815,4.086206,51,127,70
4.13793,4.3706884,48,127,70
4.4482746,4.499999,48,127,70
4.551723,4.7844815,43,127,70
4.8620677,4.9137917,43,127,70
4.965516,5.2499986,44,127,70
5.379309,5.6637917,44,127,70
5.793102,6.5172396,46,127,70
6.620688,6.905171,51,127,70
7.034481,7.2672396,55,127,70
7.3448257,7.3965497,55,127,70
7.448274,7.6810327,58,127,70
7.758619,7.810343,58,127,70
7.862067,8.094826,56,127,70
8.172412,8.224135,56,127,70
8.27586,8.560343,55,127,70
8.689653,8.922412,51,127,70
8.999998,9.051722,51,127,70
9.103446,9.517239,50,127,70
9.517239,9.853446,46,127,70
9.931032,10.215515,51,127,70
10.344825,10.577583,48,127,70
10.6551695,10.706894,48,127,70
10.758618,10.991377,43,127,70
11.068963,11.120687,43,127,70
11.172411,11.4051695,44,127,70
11.482756,11.53448,44,127,70
11.586204,11.818962,46,127,70
11.896549,11.948273,46,127,70
11.999997,12.232756,46,127,70
12.310342,12.362066,46,127,70
12.41379,12.749997,51,127,70
13.241376,17.30172,46,127,70
17.379307,18.129305,51,127,70
18.206892,18.491375,53,127,70
18.620686,18.905169,53,127,70
19.034477,19.31896,46,127,70
19.862064,20.094822,51,127,70
20.275858,20.508615,55,127,70
20.68965,20.92241,58,127,70
21.103443,21.3362,56,127,70
21.517237,21.749994,55,127,70
21.931028,22.163788,51,127,70
22.344822,22.577581,50,127,70
22.758615,22.991373,46,127,70
23.172407,23.45689,51,127,70
23.5862,23.81896,48,127,70
23.896545,23.94827,48,127,70
23.999994,24.232752,43,127,70
24.310339,24.362062,43,127,70
24.413788,24.646545,44,127,70
24.724133,24.775856,44,127,70
24.82758,25.060339,46,127,70
25.137924,25.18965,46,127,70
25.241373,25.47413,46,127,70
25.551718,25.603441,46,127,70
25.655167,25.93965,51,127,70
26.482752,26.793097,51,127,70
27.310337,27.620684,50,127,70
28.137924,28.448269,45,127,70
28.96551,29.275854,46,127,70
29.793097,30.103441,51,127,70
30.620682,30.931026,50,127,70
31.448269,31.758614,57,127,70
31.86206,32.172405,57,127,70
32.275852,32.586197,58,127,70
33.517235,33.931026,51,127,70
33.931026,34.24137,50,127,70
35.172405,35.586197,41,127,70
35.586197,35.89654,46,127,70
36.827576,37.24137,53,127,70
37.24137,37.551716,46,127,70
38.48275,38.89654,41,127,70
38.89654,39.206886,46,127,70
39.72413,40.060333,51,127,70
41.3793,41.715508,51,127,70
43.241367,43.4224,53,127,70
43.448265,43.655163,48,127,70
43.655163,43.836197,46,127,70
43.862057,44.22413,45,127,70
44.275852,44.63792,41,127,70
44.689644,45.051712,46,127,70
45.103436,45.465508,51,127,70
45.51723,45.8793,53,127,70
45.931023,46.29309,41,127,70
46.344814,46.681023,46,127,70
47.1724,47.50861,41,127,70
47.99999,48.336193,46,127,70
48.827576,49.16378,41,127,70
49.65516,49.862057,46,127,70
50.068954,50.27585,53,127,70
50.482746,50.689644,58,127,70
50.896538,51.103436,53,127,70
51.310333,51.65516,46,127,70
54.620674,54.90516,51,127,70
55.03447,55.267227,55,127,70
55.344814,55.396538,55,127,70
55.44826,55.68102,58,127,70
55.758606,55.81033,58,127,70
55.862057,56.094814,56,127,70
56.1724,56.224125,56,127,70
56.27585,56.56033,55,127,70
56.68964,56.9224,51,127,70
56.999985,57.05171,51,127,70
57.103436,57.517227,50,127,70
57.517227,57.853436,46,127,70
57.93102,58.215504,51,127,70
58.344814,58.57757,51,127,70
58.65516,58.706882,51,127,70
58.758606,58.991364,48,127,70
59.06895,59.120674,48,127,70
59.172398,59.40516,43,127,70
59.482742,59.53447,43,127,70
59.586193,59.870674,44,127,70
59.999985,60.284466,44,127,70
60.413776,61.137917,46,127,70
61.241364,61.52585,51,127,70
61.655155,61.887917,55,127,70
61.9655,62.017227,55,127,70
62.06895,62.30171,58,127,70
62.379295,62.43102,58,127,70
62.482742,62.7155,56,127,70
62.793087,62.84481,56,127,70
62.896538,63.18102,55,127,70
63.31033,63.543087,51,127,70
63.620674,63.672398,51,127,70
63.72412,64.13792,50,127,70
64.13792,64.47412,46,127,70
64.551704,64.83619,51,127,70
64.9655,65.19826,48,127,70
65.27585,65.32757,48,127,70
65.379295,65.61205,43,127,70
65.68964,65.74136,43,127,70
65.79308,66.02585,44,127,70
66.10343,66.15516,44,127,70
66.20688,66.43964,46,127,70
66.51723,66.56895,46,127,70
66.620674,66.85343,46,127,70
66.931015,66.98274,46,127,70
67.03447,67.370674,51,127,70
67.86205,68.22412,48,127,70
68.27585,68.35343,48,127,70
68.41377,68.49136,48,127,70
68.551704,68.629295,48,127,70
68.68964,69.051704,48,127,70
69.10343,69.181015,48,127,70
69.24136,69.31895,48,127,70
69.379295,69.45688,48,127,70
69.51723,70.29308,48,127,70
70.34481,70.91377,47,127,70
70.9655,71.120674,47,127,70
71.17239,71.32757,48,127,70
71.58619,71.74136,50,127,70
71.999985,72.15515,51,127,70
72.41377,72.56895,48,127,70
72.82757,72.98274,53,127,70
73.24136,73.39653,55,127,70
73.65515,73.99136,48,127,70
74.06895,74.14653,48,127,70
74.20688,74.28446,48,127,70
74.34481,74.42239,48,127,70
74.48274,74.84481,48,127,70
74.89653,74.97412,48,127,70
75.03446,75.11205,48,127,70
75.17239,75.249985,48,127,70
75.310326,75.67239,48,127,70
75.72412,75.801704,48,127,70
75.86205,75.93964,48,127,70
75.999985,76.07757,48,127,70
76.13791,76.91377,48,127,70
76.9655,77.53446,49,127,70
77.58619,77.74136,49,127,70
77.79308,77.94826,50,127,70
78.20688,78.36205,51,127,70
78.62067,78.77584,50,127,70
79.03446,79.18964,49,127,70
79.44826,79.60343,50,127,70
79.862045,80.01722,50,127,70
80.27584,80.612045,43,127,70
81.51722,81.931015,50,127,70
81.931015,82.26722,55,127,70
84.82757,85.241356,43,127,70
85.241356,85.57757,48,127,70
86.482735,86.89653,55,127,70
86.89653,87.232735,60,127,70
88.13791,88.551704,48,127,70
88.551704,88.88791,41,127,70
89.79308,90.20687,48,127,70
90.20687,90.54308,41,127,70
91.03446,91.39653,41,127,70
91.44825,91.52584,41,127,70
91.58618,91.66377,41,127,70
91.72411,91.801704,41,127,70
91.862045,92.22411,41,127,70
92.27584,92.353424,41,127,70
92.41377,92.491356,41,127,70
92.551704,92.62929,41,127,70
92.70687,93.04308,41,127,70
93.12067,93.37929,53,127,70
93.41377,93.491356,55,127,70
93.51722,93.77584,56,127,70
93.82756,93.90515,55,127,70
93.93101,94.18963,53,127,70
94.241356,94.31894,54,127,70
94.3448,94.68101,55,127,70
94.7586,95.01722,59,127,70
95.06894,95.14653,59,127,70
95.17239,95.5086,60,127,70
95.58618,95.8448,48,127,70
95.89653,95.97411,48,127,70
95.99998,96.33618,43,127,70
96.41377,96.672386,59,127,70
96.72411,96.8017,59,127,70
96.82756,97.16377,60,127,70
97.241356,97.49998,48,127,70
97.5517,97.62929,48,127,70
97.65515,97.991356,43,127,70
98.06894,98.32756,48,127,70
98.37929,98.482735,48,127,70
98.482735,98.81894,43,127,70
98.89653,99.15515,48,127,70
99.20687,99.31032,48,127,70
99.31032,99.64653,43,127,70
102.62067,102.90514,51,127,70
103.034454,103.26721,55,127,70
103.3448,103.39652,55,127,70
103.44825,103.68101,58,127,70
103.7586,103.81032,58,127,70
103.862045,104.0948,56,127,70
104.172386,104.22411,56,127,70
104.27583,104.56032,55,127,70
104.68963,104.922386,51,127,70
104.99998,105.0517,51,127,70
105.103424,105.51721,50,127,70
105.51721,105.853424,46,127,70
105.93101,106.21549,51,127,70
106.3448,106.57756,51,127,70
106.65514,106.70687,51,127,70
106.75859,106.991356,48,127,70
107.06894,107.12067,48,127,70
107.172386,107.40514,43,127,70
107.482735,107.534454,43,127,70
107.58618,107.87066,44,127,70
107.99997,108.284454,44,127,70
108.413765,109.1379,46,127,70
109.24135,109.52583,51,127,70
109.65514,109.8879,55,127,70
109.96549,110.01721,55,127,70
110.06894,110.3017,58,127,70
110.37928,110.43101,58,127,70
110.482735,110.71549,56,127,70
110.793076,110.8448,56,127,70
110.89652,111.18101,55,127,70
111.31032,111.543076,51,127,70
111.62066,111.672386,51,127,70
111.72411,112.1379,50,127,70
112.1379,112.47411,46,127,70
112.5517,112.83618,51,127,70
112.96549,113.19825,48,127,70
113.27583,113.32756,48,127,70
113.37928,113.61204,43,127,70
113.68963,113.74135,43,127,70
113.793076,114.02583,44,127,70
114.10342,114.15514,44,127,70
114.20687,114.43963,46,127,70
114.51721,114.56894,46,127,70
114.62066,114.85342,46,127,70
114.93101,114.98273,46,127,70
115.034454,115.37066,51,127,70
115.86204,119.922386,46,127,70
119.99997,120.74997,51,127,70
120.82755,121.11204,53,127,70
121.24135,121.52583,53,127,70
121.65514,121.93962,46,127,70
122.48273,122.715485,51,127,70
122.89652,123.12928,55,127,70
123.31031,123.543076,58,127,70
123.724106,123.95686,56,127,70
124.1379,124.37066,55,127,70
124.5517,124.784454,51,127,70
124.965485,125.19824,50,127,70
125.37928,125.61204,46,127,70
125.793076,126.07755,51,127,70
126.20686,126.43962,48,127,70
126.51721,126.56893,48,127,70
126.62066,126.85342,43,127,70
126.931,126.98273,43,127,70
127.034454,127.26721,44,127,70
127.344795,127.39652,44,127,70
127.44824,127.681,46,127,70
127.75859,127.81031,46,127,70
127.86204,128.0948,46,127,70
128.17238,128.2241,46,127,70
128.27583,128.56032,51,127,70
134.67767,135.02588,51,127,70
135.10623,135.45445,56,127,70
135.96338,136.79373,56,127,70
136.82053,137.65088,58,127,70
137.67766,138.50803,56,127,70
138.5348,139.36516,55,127,70
139.39195,140.2223,56,127,70
140.24908,141.07945,58,127,70
141.10623,141.93658,51,127,70
141.96338,142.31158,44,127,70
144.96336,145.39194,53,127,70
145.39194,145.74016,58,127,70
148.39194,148.74016,51,127,70
148.82051,149.16872,44,127,70
149.67766,150.50801,60,127,70
150.53479,151.36514,58,127,70
151.39194,152.22229,57,127,70
152.24908,153.07944,58,127,70
153.10622,153.93657,55,127,70
153.96336,154.79372,56,127,70
154.8205,155.65086,58,127,70
155.67764,156.02586,56,127,70
156.53479,157.36514,53,127,70
157.39192,158.22229,51,127,70
158.24907,159.07942,50,127,70
159.10622,159.93657,48,127,70
159.96335,160.28479,46,127,70
161.67764,161.99907,46,127,70
166.7839,167.06839,51,127,70
167.1977,167.43045,55,127,70
167.50804,167.55977,55,127,70
167.6115,167.84425,58,127,70
167.92183,167.97356,58,127,70
168.02528,168.25804,56,127,70
168.33563,168.38736,56,127,70
168.43907,168.72356,55,127,70
168.85287,169.08563,51,127,70
169.16321,169.21494,51,127,70
169.26666,169.68045,50,127,70
169.68045,170.01666,46,127,70
170.09425,170.37874,51,127,70
170.50804,170.7408,51,127,70
170.81839,170.87012,51,127,70
170.92183,171.15459,48,127,70
171.23218,171.2839,48,127,70
171.33563,171.56839,43,127,70
171.64597,171.6977,43,127,70
171.74942,172.0339,44,127,70
172.16321,172.4477,44,127,70
172.57701,173.30115,46,127,70
173.40459,173.68907,51,127,70
173.81839,174.05115,55,127,70
174.12872,174.18045,55,127,70
174.23218,174.46494,58,127,70
174.54253,174.59425,58,127,70
174.64597,174.87872,56,127,70
174.95631,175.00804,56,127,70
175.05977,175.34425,55,127,70
175.47356,175.70631,51,127,70
175.7839,175.83563,51,127,70
175.88734,176.30115,50,127,70
176.30115,176.63734,46,127,70
176.71494,176.99942,51,127,70
177.12872,177.36148,48,127,70
177.43907,177.4908,48,127,70
177.54253,177.77528,43,127,70
177.85286,177.90459,43,127,70
177.95631,178.18907,44,127,70
178.26666,178.31839,44,127,70
178.3701,178.60286,46,127,70
178.68045,178.73218,46,127,70
178.7839,179.01666,46,127,70
179.09425,179.14597,46,127,70
179.1977,179.5339,51,127,70
180.02528,184.08562,46,127,70
184.16321,184.91321,51,127,70
184.9908,185.27528,53,127,70
185.40459,185.68907,53,127,70
185.81839,186.10286,46,127,70
186.64597,186.87872,51,127,70
187.05977,187.29253,55,127,70
187.47356,187.70631,58,127,70
187.88734,188.1201,56,127,70
188.30115,188.5339,55,127,70
188.71494,188.9477,51,127,70
189.12872,189.36148,50,127,70
189.54253,189.77528,46,127,70
189.95631,190.2408,51,127,70
190.3701,190.60286,48,127,70
190.68045,190.73218,48,127,70
190.7839,191.01666,43,127,70
191.09424,191.14597,43,127,70
191.1977,191.43045,44,127,70
191.50804,191.55975,44,127,70
191.61148,191.84424,46,127,70
191.92183,191.97356,46,127,70
192.02528,192.25804,46,127,70
192.33562,192.38734,46,127,70
192.43907,192.72356,51,127,70
193.26666,193.60286,48,127,70
193.68045,193.91321,48,127,70
193.9908,194.06837,48,127,70
194.09424,194.43045,47,127,70
194.92183,195.25804,48,127,70
195.33562,195.56837,48,127,70
195.64597,195.72356,48,127,70
195.74942,196.08562,43,127,70
196.577,196.91321,48,127,70
196.9908,197.22356,48,127,70
197.30113,197.37872,48,127,70
197.40459,198.18045,44,127,70
198.23218,198.56837,46,127,70
198.64597,198.98218,46,127,70
199.05975,199.39597,51,127,70
199.88734,200.22356,48,127,70
200.30113,200.53389,48,127,70
200.61148,200.68907,48,127,70
200.71494,201.05113,47,127,70
201.54251,201.87872,48,127,70
201.95631,202.18907,48,127,70
202.26665,202.34424,48,127,70
202.3701,202.70631,43,127,70
203.1977,203.53389,48,127,70
203.61148,203.84424,48,127,70
203.92183,203.9994,48,127,70
204.02527,204.36148,44,127,70
204.43907,204.67183,44,127,70
204.7494,204.80113,44,127,70
204.85286,206.45631,46,127,70
206.50803,206.84424,51,127,70
207.33562,207.67183,46,127,70
208.16321,208.4994,39,127,70
208.99078,209.327,34,127,70
209.81837,210.15459,39,127,70
210.64597,210.98216,46,127,70
211.47354,211.80975,39,127,70
212.30113,212.63734,34,127,70
213.12872,213.46492,39,127,70
213.54251,213.9563,51,127,70
213.9563,214.29251,50,127,70
214.3701,214.60286,46,127,70
214.68045,214.73216,46,127,70
214.78389,215.1201,51,127,70
215.1977,215.61148,51,127,70
215.61148,215.94768,50,127,70
216.02527,216.25803,46,127,70
216.33562,216.38734,46,127,70
216.43907,216.77527,51,127,70
216.85286,217.08562,46,127,70
217.16321,217.21492,46,127,70
217.26665,217.60286,51,127,70
217.68045,217.91321,46,127,70
217.99078,218.04251,46,127,70
218.09424,218.43045,51,127,70
218.92183,219.25803,51,127,70
219.33562,219.56837,51,127,70
219.64597,219.69768,51,127,70
219.7494,220.08562,48,127,70
220.577,220.91321,44,127,70
220.99078,221.22354,44,127,70
221.30113,221.35286,44,127,70
221.40459,221.74078,43,127,70
227.19902,227.57864,46,127,70
227.66653,227.9302,46,127,70
228.0181,228.07669,46,127,70
228.13832,228.65244,51,127,70
0.0,0.2844827,63,127,60
0.413793,0.64655155,63,127,60
0.7241377,0.77586186,63,127,60
0.827586,1.0603446,65,127,60
1.1379308,1.1896548,65,127,60
1.241379,1.4741375,65,127,60
1.5517237,1.6034479,65,127,60
1.655172,1.9396547,63,127,60
2.068965,2.3017235,63,127,60
2.3793097,2.4310338,63,127,60
2.482758,3.2068958,65,127,60
3.310344,3.5948267,67,127,60
3.724137,3.9568956,63,127,60
4.0344815,4.086206,63,127,60
4.13793,4.3706884,63,127,60
4.4482746,4.499999,63,127,60
4.551723,4.7844815,63,127,60
4.8620677,4.9137917,63,127,60
4.965516,5.2499986,63,127,60
5.379309,5.6637917,68,127,60
5.793102,6.5172396,65,127,60
6.620688,6.905171,63,127,60
7.034481,7.2672396,63,127,60
7.3448257,7.3965497,63,127,60
7.448274,7.6810327,65,127,60
7.758619,7.810343,65,127,60
7.862067,8.094826,65,127,60
8.172412,8.224135,65,127,60
8.27586,8.560343,63,127,60
8.689653,8.922412,63,127,60
8.999998,9.051722,63,127,60
9.103446,9.827583,65,127,60
9.931032,10.215515,67,127,60
10.344825,10.577583,63,127,60
10.6551695,10.706894,63,127,60
10.758618,10.991377,63,127,60
11.068963,11.120687,63,127,60
11.172411,11.4051695,63,127,60
11.482756,11.53448,63,127,60
11.586204,11.818962,70,127,60
11.896549,11.948273,67,127,60
11.999997,12.232756,68,127,60
12.310342,12.362066,65,127,60
12.41379,12.646548,63,127,60
12.724134,12.775859,70,127,60
12.827583,13.060342,67,127,60
13.137928,13.1896515,63,127,60
13.241376,16.862064,58,127,60
17.793098,18.077581,67,127,60
18.206892,18.491375,65,127,60
18.620686,18.905169,65,127,60
19.034477,19.31896,65,127,60
19.862064,20.146547,63,127,60
20.275858,20.508615,63,127,60
20.586203,20.637926,63,127,60
20.68965,20.92241,65,127,60
20.999994,21.05172,65,127,60
21.103443,21.3362,65,127,60
21.413788,21.465511,65,127,60
21.517237,21.801718,63,127,60
21.931028,22.163788,63,127,60
22.241373,22.293098,63,127,60
22.344822,23.06896,65,127,60
23.172407,23.45689,67,127,60
23.5862,23.81896,63,127,60
23.896545,23.94827,63,127,60
23.999994,24.232752,63,127,60
24.310339,24.362062,63,127,60
24.413788,24.646545,63,127,60
24.724133,24.775856,63,127,60
24.82758,25.060339,70,127,60
25.137924,25.18965,67,127,60
25.241373,25.47413,68,127,60
25.551718,25.603441,65,127,60
25.655167,25.93965,63,127,60
54.620674,54.90516,63,127,60
55.03447,55.267227,63,127,60
55.344814,55.396538,63,127,60
55.44826,55.68102,65,127,60
55.758606,55.81033,65,127,60
55.862057,56.094814,65,127,60
56.1724,56.224125,65,127,60
56.27585,56.56033,63,127,60
56.68964,56.9224,63,127,60
56.999985,57.05171,63,127,60
57.103436,57.82757,65,127,60
57.93102,58.215504,67,127,60
58.344814,58.57757,63,127,60
58.65516,58.706882,63,127,60
58.758606,58.991364,63,127,60
59.06895,59.120674,63,127,60
59.172398,59.40516,63,127,60
59.482742,59.53447,63,127,60
59.586193,59.870674,63,127,60
59.999985,60.284466,68,127,60
60.413776,61.137917,65,127,60
61.241364,61.52585,63,127,60
61.655155,61.887917,63,127,60
61.9655,62.017227,63,127,60
62.06895,62.30171,65,127,60
62.379295,62.43102,65,127,60
62.482742,62.7155,65,127,60
62.793087,62.84481,65,127,60
62.896538,63.18102,63,127,60
63.31033,63.543087,63,127,60
63.620674,63.672398,63,127,60
63.72412,64.44826,65,127,60
64.551704,64.83619,67,127,60
64.9655,65.19826,63,127,60
65.27585,65.32757,63,127,60
65.379295,65.61205,63,127,60
65.68964,65.74136,63,127,60
65.79308,66.02585,63,127,60
66.10343,66.15516,63,127,60
66.20688,66.43964,70,127,60
66.51723,66.56895,67,127,60
66.620674,66.85343,68,127,60
66.931015,66.98274,65,127,60
67.03447,67.370674,63,127,60
67.86205,68.22412,67,127,60
68.27585,68.35343,67,127,60
68.41377,68.49136,67,127,60
68.551704,68.629295,67,127,60
68.68964,69.051704,67,127,60
69.10343,69.181015,67,127,60
69.24136,69.31895,67,127,60
69.379295,69.45688,67,127,60
69.51723,70.29308,63,127,60
70.34481,70.91377,62,127,60
70.9655,71.120674,67,127,60
71.17239,71.32757,67,127,60
71.58619,71.74136,67,127,60
71.999985,72.15515,67,127,60
72.41377,72.56895,67,127,60
72.82757,72.98274,65,127,60
73.24136,73.39653,67,127,60
73.65515,73.99136,67,127,60
74.06895,74.14653,67,127,60
74.20688,74.28446,67,127,60
74.34481,74.42239,67,127,60
74.48274,74.84481,67,127,60
74.89653,74.97412,67,127,60
75.03446,75.11205,67,127,60
75.17239,75.249985,67,127,60
75.310326,75.67239,67,127,60
75.72412,75.801704,67,127,60
75.86205,75.93964,67,127,60
75.999985,76.07757,67,127,60
76.9655,77.53446,67,127,60
77.58619,77.74136,67,127,60
77.79308,77.94826,67,127,60
78.20688,78.36205,67,127,60
78.62067,78.77584,67,127,60
79.03446,79.18964,67,127,60
79.44826,79.60343,67,127,60
95.58618,95.8448,67,127,60
95.89653,95.97411,67,127,60
95.99998,96.33618,67,127,60
97.241356,97.49998,67,127,60
97.5517,97.62929,67,127,60
97.65515,97.991356,67,127,60
98.06894,98.32756,67,127,60
98.37929,98.482735,67,127,60
98.482735,98.8448,67,127,60
98.89653,99.15515,67,127,60
99.20687,99.31032,67,127,60
99.31032,99.64653,67,127,60
102.62067,102.90514,63,127,60
103.034454,103.26721,63,127,60
103.3448,103.39652,63,127,60
103.44825,103.68101,65,127,60
103.7586,103.81032,65,127,60
103.862045,104.0948,65,127,60
104.172386,104.22411,65,127,60
104.27583,104.56032,63,127,60
104.68963,104.922386,63,127,60
104.99998,105.0517,63,127,60
105.103424,105.82756,65,127,60
105.93101,106.21549,67,127,60
106.3448,106.57756,63,127,60
106.65514,106.70687,63,127,60
106.75859,106.991356,63,127,60
107.06894,107.12067,63,127,60
107.172386,107.40514,63,127,60
107.482735,107.534454,63,127,60
107.58618,107.87066,63,127,60
107.99997,108.284454,68,127,60
108.413765,109.1379,65,127,60
109.24135,109.52583,63,127,60
109.65514,109.8879,63,127,60
109.96549,110.01721,63,127,60
110.06894,110.3017,65,127,60
110.37928,110.43101,65,127,60
110.482735,110.71549,65,127,60
110.793076,110.8448,65,127,60
110.89652,111.18101,63,127,60
111.31032,111.543076,63,127,60
111.62066,111.672386,63,127,60
111.72411,112.44825,65,127,60
112.5517,112.83618,67,127,60
112.96549,113.19825,63,127,60
113.27583,113.32756,63,127,60
113.37928,113.61204,63,127,60
113.68963,113.74135,63,127,60
113.793076,114.02583,63,127,60
114.10342,114.15514,63,127,60
114.20687,114.43963,70,127,60
114.51721,114.56894,67,127,60
114.62066,114.85342,68,127,60
114.93101,114.98273,65,127,60
115.034454,115.26721,63,127,60
115.344795,115.39652,70,127,60
115.44825,115.68101,67,127,60
115.75859,115.81032,63,127,60
115.86204,119.48273,58,127,60
120.413765,120.69824,67,127,60
120.82755,121.11204,65,127,60
121.24135,121.52583,65,127,60
121.65514,121.93962,65,127,60
122.48273,122.76721,63,127,60
122.89652,123.12928,63,127,60
123.20686,123.25859,63,127,60
123.31031,123.543076,65,127,60
123.62066,123.672386,65,127,60
123.724106,123.95686,65,127,60
124.034454,124.086174,65,127,60
124.1379,124.422386,63,127,60
124.5517,124.784454,63,127,60
124.86204,124.913765,63,127,60
124.965485,125.68962,65,127,60
125.793076,126.07755,67,127,60
126.20686,126.43962,63,127,60
126.51721,126.56893,63,127,60
126.62066,126.85342,63,127,60
126.931,126.98273,63,127,60
127.034454,127.26721,63,127,60
127.344795,127.39652,63,127,60
127.44824,127.681,70,127,60
127.75859,127.81031,67,127,60
127.86204,128.0948,68,127,60
128.17238,128.2241,65,127,60
128.27583,128.56032,63,127,60
129.10565,129.9366,63,127,60
129.96338,130.79375,63,127,60
130.82053,131.65088,63,127,60
131.67767,132.50803,63,127,60
132.5348,133.36517,63,127,60
133.39195,134.2223,63,127,60
134.2491,135.07945,63,127,60
135.10623,135.45445,63,127,60
142.82051,143.65088,65,127,60
143.67766,144.50801,65,127,60
144.5348,145.36516,65,127,60
145.39194,146.22229,65,127,60
146.24908,147.07944,63,127,60
147.10623,147.93658,63,127,60
147.96336,148.79372,63,127,60
148.82051,149.16872,63,127,60
160.17764,160.33835,65,127,60
160.39192,160.55264,65,127,60
160.60622,160.76692,65,127,60
160.8205,161.14192,65,127,60
161.89192,162.05264,65,127,60
162.10622,162.26692,65,127,60
162.3205,162.48122,65,127,60
162.53477,162.85622,65,127,60
166.7839,167.06839,63,127,60
167.1977,167.43045,63,127,60
167.50804,167.55977,63,127,60
167.6115,167.84425,65,127,60
167.92183,167.97356,65,127,60
168.02528,168.25804,65,127,60
168.33563,168.38736,65,127,60
168.43907,168.72356,63,127,60
168.85287,169.08563,63,127,60
169.16321,169.21494,63,127,60
169.26666,169.9908,65,127,60
170.09425,170.37874,67,127,60
170.50804,170.7408,63,127,60
170.81839,170.87012,63,127,60
170.92183,171.15459,63,127,60
171.23218,171.2839,63,127,60
171.33563,171.56839,63,127,60
171.64597,171.6977,63,127,60
171.74942,172.0339,63,127,60
172.16321,172.4477,68,127,60
172.57701,173.30115,65,127,60
173.40459,173.68907,63,127,60
173.81839,174.05115,63,127,60
174.12872,174.18045,63,127,60
174.23218,174.46494,65,127,60
174.54253,174.59425,65,127,60
174.64597,174.87872,65,127,60
174.95631,175.00804,65,127,60
175.05977,175.34425,63,127,60
175.47356,175.70631,63,127,60
175.7839,175.83563,63,127,60
175.88734,176.61148,65,127,60
176.71494,176.99942,67,127,60
177.12872,177.36148,63,127,60
177.43907,177.4908,63,127,60
177.54253,177.77528,63,127,60
177.85286,177.90459,63,127,60
177.95631,178.18907,63,127,60
178.26666,178.31839,63,127,60
178.3701,178.60286,70,127,60
178.68045,178.73218,67,127,60
178.7839,179.01666,68,127,60
179.09425,179.14597,65,127,60
179.1977,179.43045,63,127,60
179.50804,179.55977,70,127,60
179.61148,179.84424,67,127,60
179.92183,179.97356,63,127,60
180.02528,183.64597,58,127,60
184.577,184.86148,67,127,60
184.9908,185.27528,65,127,60
185.40459,185.68907,65,127,60
185.81839,186.10286,65,127,60
186.64597,186.93045,63,127,60
187.05977,187.29253,63,127,60
187.3701,187.42183,63,127,60
187.47356,187.70631,65,127,60
187.7839,187.83562,65,127,60
187.88734,188.1201,65,127,60
188.1977,188.24942,65,127,60
188.30115,188.58562,63,127,60
188.71494,188.9477,63,127,60
189.02528,189.077,63,127,60
189.12872,189.85286,65,127,60
189.95631,190.2408,67,127,60
190.3701,190.60286,63,127,60
190.68045,190.73218,63,127,60
190.7839,191.01666,63,127,60
191.09424,191.14597,63,127,60
191.1977,191.43045,63,127,60
191.50804,191.55975,63,127,60
191.61148,191.84424,70,127,60
191.92183,191.97356,67,127,60
192.02528,192.25804,68,127,60
192.33562,192.38734,65,127,60
192.43907,192.72356,63,127,60
193.26666,193.60286,67,127,60
193.68045,193.91321,67,127,60
193.9908,194.04251,67,127,60
194.09424,194.43045,67,127,60
194.92183,195.25804,67,127,60
195.33562,195.56837,67,127,60
195.64597,195.6977,67,127,60
195.74942,196.08562,67,127,60
198.23218,198.6201,63,100,60
198.64597,199.05975,65,127,60
199.05975,199.39597,63,127,60
199.88734,200.22356,67,127,60
200.30113,200.53389,67,127,60
200.61148,200.66321,67,127,60
200.71494,201.05113,67,127,60
201.54251,201.87872,67,127,60
201.95631,202.18907,67,127,60
202.26665,202.31837,67,127,60
202.3701,202.70631,67,127,60
203.1977,203.53389,67,127,60
203.61148,203.84424,67,127,60
203.92183,203.97356,67,127,60
204.02527,204.36148,68,127,60
204.43907,204.67183,68,127,60
204.7494,204.80113,68,127,60
204.85286,205.65459,67,127,60
205.68045,206.45631,65,127,60
206.50803,206.84424,63,127,60
206.92183,206.9994,58,127,60
207.05975,207.12872,58,127,60
207.1977,207.26665,58,127,60
207.33562,207.67183,58,127,60
207.7494,207.827,58,127,60
207.88734,207.95631,58,127,60
208.02527,208.09424,58,127,60
208.16321,208.4994,58,127,60
210.23216,210.30975,58,127,60
210.3701,210.43907,58,127,60
210.50803,210.577,58,127,60
210.64597,210.98216,58,127,60
211.05975,211.13734,58,127,60
211.1977,211.26665,58,127,60
211.33562,211.40459,58,127,60
211.47354,211.80975,58,127,60
211.88734,211.99078,70,127,60
212.02527,212.12872,67,127,60
212.16321,212.26665,63,127,60
212.30113,212.63734,58,127,60
212.71492,213.05113,58,127,60
213.12872,213.46492,63,127,60
213.54251,213.77527,63,127,60
213.85286,213.93045,63,127,60
213.9563,214.29251,65,127,60
215.1977,215.43045,63,127,60
215.50803,215.58562,63,127,60
215.61148,215.94768,65,127,60
216.02527,216.25803,65,127,60
216.33562,216.38734,65,127,60
216.43907,216.77527,63,127,60
216.85286,217.08562,65,127,60
217.16321,217.24078,65,127,60
217.26665,217.60286,63,127,60
217.68045,217.91321,65,127,60
217.99078,218.04251,65,127,60
218.09424,218.43045,63,127,60
218.92183,219.25803,63,127,60
219.33562,219.56837,63,127,60
219.64597,219.69768,63,127,60
219.7494,220.08562,63,127,60
220.577,220.91321,63,127,60
220.99078,221.22354,63,127,60
221.30113,221.35286,63,127,60
221.40459,221.74078,63,127,60
225.54251,225.87872,63,127,60
225.9563,226.18906,63,127,60
226.26665,226.31837,63,127,60
226.3701,226.7063,58,127,60
227.19902,227.57864,65,127,60
227.66653,227.9302,65,127,60
228.0181,228.07669,65,127,60
228.13832,228.65244,63,127,60
0.0,0.2844827,55,127,60
0.413793,0.64655155,55,127,60
0.7241377,0.77586186,55,127,60
0.827586,1.0603446,58,127,60
1.1379308,1.1896548,58,127,60
1.241379,1.4741375,58,127,60
1.5517237,1.6034479,58,127,60
1.655172,1.9396547,55,127,60
2.068965,2.3017235,55,127,60
2.3793097,2.4310338,55,127,60
2.482758,3.2068958,58,127,60
3.310344,3.5948267,63,127,60
3.724137,3.9568956,51,127,60
4.0344815,4.086206,51,127,60
4.13793,4.3706884,51,127,60
4.4482746,4.499999,51,127,60
4.551723,4.7844815,51,127,60
4.8620677,4.9137917,51,127,60
4.965516,5.2499986,51,127,60
5.379309,5.6637917,65,127,60
5.793102,6.5172396,58,127,60
6.620688,6.905171,55,127,60
7.034481,7.2672396,55,127,60
7.3448257,7.3965497,55,127,60
7.448274,7.6810327,58,127,60
7.758619,7.810343,58,127,60
7.862067,8.094826,58,127,60
8.172412,8.224135,58,127,60
8.27586,8.560343,55,127,60
8.689653,8.922412,55,127,60
8.999998,9.051722,55,127,60
9.103446,9.827583,58,127,60
9.931032,10.215515,63,127,60
10.344825,10.577583,51,127,60
10.6551695,10.706894,51,127,60
10.758618,10.991377,51,127,60
11.068963,11.120687,51,127,60
11.172411,11.4051695,51,127,60
11.482756,11.53448,51,127,60
11.586204,11.818962,67,127,60
11.896549,11.948273,63,127,60
11.999997,12.232756,65,127,60
12.310342,12.362066,58,127,60
12.41379,12.646548,55,127,60
12.724134,12.775859,58,127,60
12.827583,13.060342,55,127,60
13.137928,13.1896515,51,127,60
13.241376,16.862064,46,127,60
17.793098,18.077581,63,127,60
18.206892,18.491375,63,127,60
18.620686,18.905169,63,127,60
19.034477,19.31896,58,127,60
19.862064,20.146547,55,127,60
20.275858,20.508615,55,127,60
20.586203,20.637926,55,127,60
20.68965,20.92241,58,127,60
20.999994,21.05172,58,127,60
21.103443,21.3362,58,127,60
21.413788,21.465511,58,127,60
21.517237,21.801718,55,127,60
21.931028,22.163788,55,127,60
22.241373,22.293098,55,127,60
22.344822,23.06896,58,127,60
23.172407,23.45689,63,127,60
23.5862,23.81896,51,127,60
23.896545,23.94827,51,127,60
23.999994,24.232752,51,127,60
24.310339,24.362062,51,127,60
24.413788,24.646545,51,127,60
24.724133,24.775856,51,127,60
24.82758,25.060339,55,127,60
25.137924,25.18965,51,127,60
25.241373,25.47413,53,127,60
25.551718,25.603441,46,127,60
25.655167,25.93965,43,127,60
54.620674,54.90516,55,127,60
55.03447,55.267227,55,127,60
55.344814,55.396538,55,127,60
55.44826,55.68102,58,127,60
55.758606,55.81033,58,127,60
55.862057,56.094814,58,127,60
56.1724,56.224125,58,127,60
56.27585,56.56033,55,127,60
56.68964,56.9224,55,127,60
56.999985,57.05171,55,127,60
57.103436,57.82757,58,127,60
57.93102,58.215504,63,127,60
58.344814,58.57757,51,127,60
58.65516,58.706882,51,127,60
58.758606,58.991364,51,127,60
59.06895,59.120674,51,127,60
59.172398,59.40516,51,127,60
59.482742,59.53447,51,127,60
59.586193,59.870674,51,127,60
59.999985,60.284466,65,127,60
60.413776,61.137917,58,127,60
61.241364,61.52585,55,127,60
61.655155,61.887917,55,127,60
61.9655,62.017227,55,127,60
62.06895,62.30171,58,127,60
62.379295,62.43102,58,127,60
62.482742,62.7155,58,127,60
62.793087,62.84481,58,127,60
62.896538,63.18102,55,127,60
63.31033,63.543087,55,127,60
63.620674,63.672398,55,127,60
63.72412,64.44826,58,127,60
64.551704,64.83619,63,127,60
64.9655,65.19826,51,127,60
65.27585,65.32757,51,127,60
65.379295,65.61205,51,127,60
65.68964,65.74136,51,127,60
65.79308,66.02585,51,127,60
66.10343,66.15516,51,127,60
66.20688,66.43964,67,127,60
66.51723,66.56895,63,127,60
66.620674,66.85343,65,127,60
66.931015,66.98274,58,127,60
67.03447,67.370674,55,127,60
67.86205,68.22412,55,127,60
68.27585,68.35343,55,127,60
68.41377,68.49136,55,127,60
68.551704,68.629295,55,127,60
68.68964,69.051704,55,127,60
69.10343,69.181015,55,127,60
69.24136,69.31895,55,127,60
69.379295,69.45688,55,127,60
69.51723,70.29308,51,127,60
70.34481,70.91377,55,127,60
70.9655,71.120674,55,127,60
71.17239,71.32757,55,127,60
71.58619,71.74136,55,127,60
71.999985,72.15515,55,127,60
72.41377,72.56895,63,127,60
72.82757,72.98274,65,127,60
73.24136,73.39653,55,127,60
73.65515,73.99136,55,127,60
74.06895,74.14653,55,127,60
74.20688,74.28446,55,127,60
74.34481,74.42239,55,127,60
74.48274,74.84481,55,127,60
74.89653,74.97412,55,127,60
75.03446,75.11205,55,127,60
75.17239,75.249985,55,127,60
75.310326,75.67239,55,127,60
75.72412,75.801704,55,127,60
75.86205,75.93964,55,127,60
75.999985,76.07757,55,127,60
76.9655,77.53446,55,127,60
77.58619,77.74136,55,127,60
77.79308,77.94826,55,127,60
78.20688,78.36205,55,127,60
78.62067,78.77584,55,127,60
79.03446,79.18964,55,127,60
79.44826,79.60343,55,127,60
95.58618,95.8448,55,127,60
95.89653,95.97411,55,127,60
95.99998,96.362045,55,127,60
97.241356,97.49998,55,127,60
97.5517,97.62929,55,127,60
97.65515,97.991356,55,127,60
98.06894,98.32756,55,127,60
98.37929,98.482735,55,127,60
98.482735,98.81894,55,127,60
98.89653,99.15515,55,127,60
99.20687,99.31032,55,127,60
99.31032,99.64653,55,127,60
102.62067,102.90514,55,127,60
103.034454,103.26721,55,127,60
103.3448,103.39652,55,127,60
103.44825,103.68101,58,127,60
103.7586,103.81032,58,127,60
103.862045,104.0948,58,127,60
104.172386,104.22411,58,127,60
104.27583,104.56032,55,127,60
104.68963,104.922386,55,127,60
104.99998,105.0517,55,127,60
105.103424,105.82756,58,127,60
105.93101,106.21549,63,127,60
106.3448,106.57756,51,127,60
106.65514,106.70687,51,127,60
106.75859,106.991356,51,127,60
107.06894,107.12067,51,127,60
107.172386,107.40514,51,127,60
107.482735,107.534454,51,127,60
107.58618,107.87066,51,127,60
107.99997,108.284454,65,127,60
108.413765,109.1379,58,127,60
109.24135,109.52583,55,127,60
109.65514,109.8879,55,127,60
109.96549,110.01721,55,127,60
110.06894,110.3017,58,127,60
110.37928,110.43101,58,127,60
110.482735,110.71549,58,127,60
110.793076,110.8448,58,127,60
110.89652,111.18101,55,127,60
111.31032,111.543076,55,127,60
111.62066,111.672386,55,127,60
111.72411,112.44825,58,127,60
112.5517,112.83618,63,127,60
112.96549,113.19825,51,127,60
113.27583,113.32756,51,127,60
113.37928,113.61204,51,127,60
113.68963,113.74135,51,127,60
113.793076,114.02583,51,127,60
114.10342,114.15514,51,127,60
114.20687,114.43963,67,127,60
114.51721,114.56894,63,127,60
114.62066,114.85342,65,127,60
114.93101,114.98273,58,127,60
115.034454,115.26721,55,127,60
115.344795,115.39652,58,127,60
115.44825,115.68101,55,127,60
115.75859,115.81032,51,127,60
115.86204,119.48273,46,127,60
120.413765,120.69824,63,127,60
120.82755,121.11204,63,127,60
121.24135,121.52583,63,127,60
121.65514,121.93962,58,127,60
122.48273,122.76721,55,127,60
122.89652,123.12928,55,127,60
123.20686,123.25859,55,127,60
123.31031,123.543076,58,127,60
123.62066,123.672386,58,127,60
123.724106,123.95686,58,127,60
124.034454,124.086174,58,127,60
124.1379,124.422386,55,127,60
124.5517,124.784454,55,127,60
124.86204,124.913765,55,127,60
124.965485,125.68962,58,127,60
125.793076,126.07755,63,127,60
126.20686,126.43962,51,127,60
126.51721,126.56893,51,127,60
126.62066,126.85342,51,127,60
126.931,126.98273,51,127,60
127.034454,127.26721,51,127,60
127.344795,127.39652,51,127,60
127.44824,127.681,55,127,60
127.75859,127.81031,51,127,60
127.86204,128.0948,53,127,60
128.17238,128.2241,46,127,60
128.27583,128.56032,43,127,60
129.10565,129.9366,60,127,60
129.96338,130.79375,61,127,60
130.82053,131.65088,60,127,60
131.67767,132.50803,58,127,60
132.5348,133.36517,60,127,60
133.39195,134.2223,61,127,60
134.2491,135.07945,58,127,60
135.10623,135.45445,60,127,60
142.82051,143.65088,63,127,60
143.67766,144.50801,61,127,60
144.5348,145.36516,60,127,60
145.39194,146.22229,61,127,60
146.24908,147.07944,58,127,60
147.10623,147.93658,60,127,60
147.96336,148.79372,61,127,60
148.82051,149.16872,60,127,60
160.17764,160.33835,58,127,60
160.39192,160.55264,58,127,60
160.60622,160.76692,58,127,60
160.8205,161.14192,58,127,60
161.89192,162.05264,58,127,60
162.10622,162.26692,58,127,60
162.3205,162.48122,58,127,60
162.53477,162.85622,58,127,60
166.7839,167.06839,55,127,60
167.1977,167.43045,55,127,60
167.50804,167.55977,55,127,60
167.6115,167.84425,58,127,60
167.92183,167.97356,58,127,60
168.02528,168.25804,58,127,60
168.33563,168.38736,58,127,60
168.43907,168.72356,55,127,60
168.85287,169.08563,55,127,60
169.16321,169.21494,55,127,60
169.26666,169.9908,58,127,60
170.09425,170.37874,63,127,60
170.50804,170.7408,51,127,60
170.81839,170.87012,51,127,60
170.92183,171.15459,51,127,60
171.23218,171.2839,51,127,60
171.33563,171.56839,51,127,60
171.64597,171.6977,51,127,60
171.74942,172.0339,51,127,60
172.16321,172.4477,65,127,60
172.57701,173.30115,58,127,60
173.40459,173.68907,55,127,60
173.81839,174.05115,55,127,60
174.12872,174.18045,55,127,60
174.23218,174.46494,58,127,60
174.54253,174.59425,58,127,60
174.64597,174.87872,58,127,60
174.95631,175.00804,58,127,60
175.05977,175.34425,55,127,60
175.47356,175.70631,55,127,60
175.7839,175.83563,55,127,60
175.88734,176.61148,58,127,60
176.71494,176.99942,63,127,60
177.12872,177.36148,51,127,60
177.43907,177.4908,51,127,60
177.54253,177.77528,51,127,60
177.85286,177.90459,51,127,60
177.95631,178.18907,51,127,60
178.26666,178.31839,51,127,60
178.3701,178.60286,67,127,60
178.68045,178.73218,63,127,60
178.7839,179.01666,65,127,60
179.09425,179.14597,58,127,60
179.1977,179.43045,55,127,60
179.50804,179.55977,58,127,60
179.61148,179.84424,55,127,60
179.92183,179.97356,51,127,60
180.02528,183.64597,46,127,60
184.577,184.86148,63,127,60
184.9908,185.27528,63,127,60
185.40459,185.68907,63,127,60
185.81839,186.10286,58,127,60
186.64597,186.93045,55,127,60
187.05977,187.29253,55,127,60
187.3701,187.42183,55,127,60
187.47356,187.70631,58,127,60
187.7839,187.83562,58,127,60
187.88734,188.1201,58,127,60
188.1977,188.24942,58,127,60
188.30115,188.58562,55,127,60
188.71494,188.9477,55,127,60
189.02528,189.077,55,127,60
189.12872,189.85286,58,127,60
189.95631,190.2408,63,127,60
190.3701,190.60286,51,127,60
190.68045,190.73218,51,127,60
190.7839,191.01666,51,127,60
191.09424,191.14597,51,127,60
191.1977,191.43045,51,127,60
191.50804,191.55975,51,127,60
191.61148,191.84424,55,127,60
191.92183,191.97356,51,127,60
192.02528,192.25804,53,127,60
192.33562,192.38734,46,127,60
192.43907,192.72356,43,127,60
193.26666,193.60286,55,127,60
193.68045,193.91321,55,127,60
193.9908,194.04251,55,127,60
194.09424,194.43045,55,127,60
194.92183,195.25804,55,127,60
195.33562,195.56837,55,127,60
195.64597,195.6977,55,127,60
195.74942,196.08562,55,127,60
198.23218,198.6201,55,127,60
198.64597,199.05975,58,127,60
199.05975,199.39597,55,127,60
199.88734,200.22356,55,127,60
200.30113,200.53389,55,127,60
200.61148,200.66321,55,127,60
200.71494,201.05113,55,127,60
201.54251,201.87872,55,127,60
201.95631,202.18907,55,127,60
202.26665,202.31837,55,127,60
202.3701,202.70631,55,127,60
203.1977,203.53389,63,127,60
203.61148,203.84424,63,127,60
203.92183,203.9994,63,127,60
204.02527,204.36148,65,127,60
204.43907,204.67183,65,127,60
204.7494,204.80113,65,127,60
204.85286,205.65459,63,127,60
205.68045,206.48218,58,127,60
206.50803,206.8701,55,127,60
206.92183,206.9994,58,127,60
207.05975,207.13734,58,127,60
207.1977,207.27527,58,127,60
207.33562,207.67183,58,127,60
207.7494,207.827,58,127,60
207.88734,207.95631,58,127,60
208.02527,208.09424,58,127,60
208.16321,208.24078,63,127,60
208.30113,208.40459,67,127,60
208.43907,208.54251,63,127,60
208.577,208.68045,58,127,60
208.71494,208.81837,55,127,60
208.85286,208.95631,51,127,60
208.99078,209.327,46,127,60
209.40459,209.74078,46,127,60
209.81837,210.15459,51,127,60
211.47354,211.55113,63,127,60
211.61148,211.71492,67,127,60
211.7494,211.85286,63,127,60
211.88734,211.99078,58,127,60
212.02527,212.12872,55,127,60
212.16321,212.26665,51,127,60
212.30113,212.63734,46,127,60
212.71492,213.05113,46,127,60
213.12872,213.46492,51,127,60
213.54251,213.77527,55,127,60
213.85286,213.93045,55,127,60
213.9563,214.29251,58,127,60
215.1977,215.43045,55,127,60
215.50803,215.58562,55,127,60
215.61148,215.94768,58,127,60
216.02527,216.25803,58,127,60
216.33562,216.38734,58,127,60
216.43907,216.77527,55,127,60
216.85286,217.08562,58,127,60
217.16321,217.24078,58,127,60
217.26665,217.60286,55,127,60
217.68045,217.91321,58,127,60
217.99078,218.06837,58,127,60
218.09424,218.43045,55,127,60
218.92183,219.25803,51,127,60
219.33562,219.56837,51,127,60
219.64597,219.69768,51,127,60
219.7494,220.08562,51,127,60
220.577,220.91321,51,127,60
220.99078,221.22354,51,127,60
221.30113,221.35286,51,127,60
221.40459,221.74078,51,127,60
225.54251,225.87872,51,127,60
225.9563,226.18906,51,127,60
226.26665,226.31837,51,127,60
226.3701,226.7063,46,127,60
227.19902,227.57864,58,127,60
227.66653,227.9302,58,127,60
228.0181,228.07669,58,127,60
228.13832,228.65244,55,127,60
