start_time,end_time,note_value,velocity,instrument_program_number
7.5598207,8.154722,69,60,40
8.154722,8.231645,74,60,40
8.231645,8.353039,78,60,40
8.539337,9.154721,78,60,40
9.154721,9.276114,76,60,40
9.462413,10.079119,74,60,40
10.079119,10.233902,73,60,40
10.392455,10.550115,74,60,40
10.712111,10.864756,76,60,40
11.635187,12.250571,76,60,40
12.250571,12.558263,77,71,40
12.558263,12.679657,78,76,40
13.481339,14.110902,69,60,40
14.110902,14.275223,73,60,40
14.275223,14.409044,71,60,40
14.443523,14.61414,69,60,40
15.515806,16.43888,73,60,40
16.43888,17.054266,78,60,40
17.054266,17.361958,76,60,40
17.361958,17.984308,74,60,40
17.984308,18.303965,73,60,40
18.303965,18.425358,71,60,40
19.22704,19.379684,66,60,40
19.534733,20.457808,78,79,40
20.457808,20.610453,78,60,40
20.765501,21.383545,79,79,40
21.383545,21.636976,78,60,40
21.702755,21.865774,76,60,40
22.035378,22.205992,74,60,40
22.736937,23.338428,81,83,40
23.338428,23.41535,86,83,40
23.41535,23.536745,90,83,40
23.723043,24.338427,90,83,40
24.338427,24.459822,88,83,40
24.646118,25.26198,86,83,40
25.26198,25.383986,85,83,40
25.571836,25.726301,86,83,40
25.883678,26.039232,88,83,40
26.837465,27.45285,88,83,40
27.45285,27.760542,89,96,40
27.760542,27.881937,90,102,40
28.683619,29.31318,81,60,40
29.31318,29.4775,85,60,40
29.4775,29.611322,83,60,40
29.645803,29.815891,81,60,40
31.905142,32.058987,71,60,40
32.058987,32.181583,74,60,40
32.212833,32.36548,76,79,40
32.828217,32.982063,69,60,40
32.982063,33.10466,73,60,40
33.13591,33.288555,76,79,40
33.752617,33.908623,68,60,40
33.908623,34.033867,71,60,40
34.065952,34.22361,76,79,40
34.38561,34.48777,64,97,40
34.48777,34.589935,69,97,40
34.589935,34.6933,73,97,40
34.6933,34.795464,76,97,40
34.795464,34.89763,81,97,40
34.89763,35.00099,85,97,40
35.00099,35.122387,88,97,40
35.308685,35.616375,88,97,40
35.616375,35.86157,86,97,40
35.92407,36.076714,83,116,40
36.231762,36.53945,84,97,40
36.53945,36.784645,85,97,40
36.847145,36.999786,81,116,40
37.154835,37.465187,82,97,40
37.465187,37.71862,83,97,40
37.784397,37.94742,76,116,40
41.828255,41.93042,59,97,40
41.93042,42.03258,64,97,40
42.03258,42.13595,68,97,40
42.13595,42.23811,71,97,40
42.23811,42.340275,76,97,40
42.340275,42.443638,80,97,40
42.443638,42.565033,83,97,40
42.75133,43.059025,83,97,40
43.059025,43.304214,81,97,40
43.366714,43.51936,78,116,40
43.674408,43.982098,79,97,40
43.982098,44.22729,80,97,40
44.28979,44.442436,76,116,40
44.597485,44.907837,77,97,40
44.907837,45.161266,78,97,40
45.227047,45.390064,71,116,40
47.42475,47.73244,78,60,40
47.73244,47.977634,79,60,40
48.040134,48.19278,76,60,40
48.347828,48.65696,77,60,40
48.65696,48.90687,78,60,40
48.97124,49.129486,71,60,40
49.291737,49.62085,78,50,40
49.62085,49.891006,79,50,40
49.961052,50.13459,79,50,40
50.314194,51.23727,79,50,40
51.23727,52.160347,81,50,40
52.160347,53.04496,74,50,40
53.04496,53.083424,81,50,40
53.083424,53.329384,79,50,40
53.392437,53.641674,78,55,40
53.705772,53.86343,79,59,40
54.02543,54.948505,81,63,40
54.948505,55.87158,86,76,40
55.87158,55.992973,83,50,40
56.794655,57.105007,63,50,40
57.105007,57.35844,64,50,40
57.424217,57.58724,64,50,40
57.75684,58.679916,64,50,40
58.679916,59.602993,66,50,40
59.602993,60.487606,59,50,40
60.487606,60.52607,66,50,40
60.52607,60.77203,64,60,40
60.835083,61.08432,63,60,40
61.14842,61.30608,64,60,40
61.468075,62.39115,66,59,40
62.39115,63.314228,71,66,40
63.314228,64.237305,76,72,40
64.237305,64.545,75,78,40
64.545,64.790184,76,80,40
64.852684,65.00533,73,83,40
65.16038,65.469025,70,85,40
65.469025,65.71735,71,87,40
65.78108,65.937416,68,89,40
66.09719,66.41883,68,91,40
66.41883,66.680115,69,93,40
66.747444,66.913414,63,95,40
67.08401,67.3917,64,97,40
68.00708,68.109245,61,97,40
68.109245,68.21141,64,97,40
68.21141,68.31477,68,97,40
68.31477,68.41694,73,97,40
68.41694,68.519104,76,97,40
68.519104,68.62247,80,97,40
68.62247,68.74386,85,97,40
68.93016,69.54554,85,116,40
69.54554,69.66694,81,97,40
69.85323,70.18581,81,97,40
70.18581,70.457504,80,97,40
70.528046,70.70292,69,97,40
70.88495,71.22733,68,97,40
71.92967,72.03183,61,97,40
72.03183,72.133995,64,97,40
72.133995,72.23736,68,97,40
72.23736,72.33952,73,97,40
72.33952,72.44169,76,97,40
72.44169,72.54505,80,97,40
72.54505,72.66645,85,97,40
72.852745,73.47249,85,116,40
73.47249,73.59737,81,97,40
74.76684,75.443695,73,60,40
75.443695,75.58035,69,60,40
76.86315,77.6087,61,50,40
77.6087,77.7596,57,50,40
86.39036,86.98526,69,60,40
86.98526,87.06219,74,60,40
87.06219,87.18358,78,60,40
87.36988,87.98526,78,60,40
87.98526,88.10666,76,60,40
88.29295,88.90966,74,60,40
88.90966,89.064445,73,60,40
89.223,89.38065,74,60,40
89.54265,89.6953,76,60,40
90.46573,91.081116,76,60,40
91.081116,91.3888,77,71,40
91.3888,91.5102,78,76,40
92.31188,92.941444,69,60,40
92.941444,93.10577,73,60,40
93.10577,93.239586,71,60,40
93.27406,93.444565,69,60,40
94.336136,95.25922,73,60,40
95.25922,95.874596,78,60,40
95.874596,96.18229,76,60,40
96.18229,96.80464,74,60,40
96.80464,97.1243,73,60,40
97.1243,97.24569,71,60,40
98.04737,98.20002,66,60,40
98.355064,99.278145,78,79,40
99.278145,99.430786,78,60,40
99.58583,100.20388,79,79,40
100.20388,100.457306,78,60,40
100.52309,100.686104,76,60,40
100.85571,101.02633,74,60,40
101.55727,102.15876,81,83,40
102.15876,102.23569,86,83,40
102.23569,102.35708,90,83,40
102.54337,103.15876,90,83,40
103.15876,103.28015,88,83,40
103.46645,104.08231,86,83,40
104.08231,104.204315,85,83,40
104.392166,104.54664,86,83,40
104.70401,104.859566,88,83,40
105.6578,106.273186,88,83,40
106.273186,106.58088,89,96,40
106.58088,106.70227,90,102,40
107.50395,108.133514,81,60,40
108.133514,108.29784,85,60,40
108.29784,108.431656,83,60,40
108.46613,108.63622,81,60,40
109.494705,110.18637,73,60,40
110.18637,110.36222,76,60,40
110.36222,110.53843,74,60,40
110.53843,110.677475,73,60,40
111.62216,112.370865,76,50,40
112.370865,112.561226,79,50,40
112.561226,112.751595,78,50,40
112.751595,112.903786,76,50,40
113.9339,115.164665,78,60,40
115.164665,115.317314,79,60,40
115.47236,115.625,81,60,40
115.78005,116.087746,81,60,40
116.087746,116.94832,73,60,40
117.01082,117.16346,73,60,40
117.31851,117.47115,74,60,40
117.626205,118.85697,76,60,40
118.85697,119.00961,76,60,40
119.164665,119.31731,78,60,40
119.47235,119.780525,76,60,40
119.780525,120.65256,74,60,40
120.71673,120.873955,76,60,40
121.03454,121.19356,78,60,40
121.35601,121.66307,78,60,40
121.66307,121.90649,76,63,40
122.272194,122.574715,78,67,40
122.574715,122.814926,76,69,40
123.17655,123.47655,81,73,40
123.47655,123.715614,80,75,40
124.076546,124.37655,83,80,40
124.37655,124.61561,81,82,40
124.97655,125.277,85,60,40
125.277,125.579056,82,60,40
125.579056,125.883,83,60,40
125.883,126.189476,85,60,40
126.189476,126.499084,86,60,40
126.499084,126.74833,80,60,40
126.81217,127.771065,83,60,40
127.771065,128.03151,81,60,40
128.77142,129.6945,57,50,40
128.77142,130.0022,69,50,40
130.0022,130.15604,67,50,40
130.15604,130.30989,66,50,40
130.30989,130.46373,64,50,40
130.46373,130.58633,62,50,40
130.61758,131.84834,57,50,40
131.84834,132.0022,58,50,40
132.0022,132.15604,57,50,40
132.15604,132.30989,58,50,40
132.30989,132.43248,57,50,40
132.46373,133.6945,61,50,40
133.6945,133.84834,58,50,40
133.84834,134.0022,57,50,40
134.0022,134.15604,61,50,40
134.15604,134.27864,57,50,40
134.30989,135.55426,57,50,40
134.30989,135.55426,62,50,40
135.55426,135.71272,62,50,40
135.71272,135.87207,66,50,40
135.87207,136.03235,69,50,40
136.03235,136.16075,74,50,40
136.5006,136.80588,73,50,40
136.80588,137.04807,74,50,40
137.41225,137.7136,72,50,40
137.7136,137.9531,73,53,40
138.31407,138.61407,73,60,40
138.61407,138.85313,74,63,40
139.21408,139.51408,75,69,40
139.51408,139.75314,76,73,40
139.81407,139.96414,78,50,40
139.96414,140.11453,74,50,40
140.11453,140.26534,71,50,40
140.26534,140.4166,66,50,40
140.4166,140.6587,62,50,40
140.72054,140.87332,71,50,40
140.87332,141.02701,68,50,40
141.02701,141.1814,64,50,40
141.1814,141.33661,62,50,40
141.33661,141.49272,61,50,40
141.49272,141.61778,62,50,40
141.6497,141.80789,61,50,40
141.80789,141.96742,62,50,40
141.96742,142.12875,64,50,40
142.12875,142.29205,62,50,40
142.29205,142.45758,61,50,40
142.45758,142.59111,62,50,40
142.62515,142.79416,61,50,40
142.97015,143.14691,81,50,40
143.33076,143.5165,81,50,40
143.71002,144.01772,81,60,40
144.01772,144.8783,75,60,40
144.9408,145.09343,76,69,40
145.24849,145.40112,78,77,40
145.55617,145.86386,78,86,40
145.86386,146.72444,76,61,40
146.78694,146.93959,78,60,40
147.09464,147.24728,79,60,40
147.40233,147.71002,79,60,40
147.71002,148.57059,73,60,40
148.63309,148.78574,74,60,40
148.94078,149.09343,76,60,40
149.24847,149.55664,76,60,40
149.55664,150.42868,74,60,40
150.49286,150.65007,76,60,40
150.81065,150.96968,78,60,40
151.13214,151.4392,81,60,40
151.4392,151.6826,79,63,40
152.04832,152.35083,79,67,40
152.35083,152.59105,78,69,40
152.95267,153.25267,82,73,40
153.25267,153.49173,83,75,40
153.85268,154.15268,85,80,40
154.15268,154.39174,86,82,40
154.75267,155.05313,82,60,40
155.05313,155.29367,83,60,40
155.35518,155.50574,76,60,40
155.65912,155.9656,78,60,40
155.9656,156.21207,79,60,40
156.2752,156.4301,73,60,40
156.58829,157.5472,76,60,40
157.5472,157.80763,74,60,40
158.54755,159.47063,66,50,40
159.47063,160.3937,72,75,40
160.3937,161.43938,71,50,40
161.47063,161.62447,69,50,40
161.62447,161.77832,67,50,40
161.77832,161.93216,66,50,40
161.93216,162.08601,64,50,40
162.08601,162.2086,62,50,40
162.23985,163.16293,61,50,40
163.16293,164.08601,70,75,40
164.08601,165.33038,69,50,40
165.33038,165.48885,67,50,40
165.48885,165.6482,66,50,40
165.6482,165.80847,64,50,40
165.80847,165.93687,62,50,40
165.96967,166.12221,62,50,40
166.27672,166.582,73,50,40
166.582,166.82419,74,53,40
167.18837,167.48972,73,57,40
167.48972,167.72922,74,60,40
168.09021,168.3902,73,64,40
168.3902,168.62927,74,66,40
168.9902,169.2902,73,71,40
169.2902,169.52927,74,73,40
169.89066,170.04146,70,60,40
170.04146,170.19272,71,60,40
170.19272,170.34447,73,60,40
170.34447,170.46574,71,60,40
170.49666,170.64944,69,60,40
170.64944,170.80313,67,60,40
170.80313,170.95752,66,60,40
170.95752,171.11273,64,60,40
171.11273,171.26884,69,60,40
171.26884,171.3939,67,60,40
171.42583,171.58394,66,60,40
171.58394,171.74307,67,60,40
171.74307,171.90358,69,60,40
171.90358,172.06558,67,60,40
172.06558,172.22923,66,60,40
172.22923,172.36086,67,60,40
172.3944,172.73198,66,60,40
173.08086,173.67363,69,60,40
173.67363,173.75055,74,60,40
173.75055,173.87195,77,60,40
174.05824,174.67363,77,63,40
174.67363,174.82628,76,69,40
174.98132,175.59802,74,72,40
175.59802,175.7528,73,77,40
175.91136,176.06903,74,80,40
176.23102,176.38367,76,83,40
182.80563,183.40622,72,60,40
183.40622,183.48315,77,59,40
183.48315,183.60454,81,58,40
183.79085,184.40622,81,55,40
184.40622,184.52762,79,50,40
184.71391,185.33063,77,48,40
185.33063,185.4536,76,43,40
185.64397,185.80162,77,40,40
185.96361,186.11626,79,38,40
194.61781,195.2332,73,113,40
195.2332,195.38704,76,113,40
195.38704,195.50964,75,113,40
195.5409,196.15627,73,127,40
196.15627,196.31012,76,113,40
196.31012,196.43271,75,113,40
196.46396,197.07935,73,127,40
197.07935,197.2332,76,113,40
197.2332,197.35579,75,113,40
197.38704,197.69473,73,127,40
197.69473,197.93993,76,113,40
198.00243,198.15506,76,113,40
198.31012,198.61781,76,127,40
198.61781,198.86299,73,113,40
198.92549,199.07814,73,113,40
199.23318,199.54088,71,127,40
199.54088,199.78607,74,113,40
199.84857,200.00122,74,113,40
200.15627,200.46396,74,127,40
200.46396,200.70915,71,113,40
200.77165,200.9243,71,113,40
201.07935,201.38704,69,127,40
201.38704,201.63223,72,113,40
201.69473,201.84737,72,113,40
202.00243,202.3101,72,127,40
202.3101,202.5553,69,113,40
202.6178,202.77045,69,113,40
202.92549,203.23903,71,127,40
203.23903,203.49944,69,113,40
203.56743,203.7363,69,113,40
203.91212,204.21982,68,113,40
207.62337,207.72552,83,60,40
207.72552,207.82768,80,60,40
207.82768,207.93105,76,60,40
207.93105,208.03322,74,60,40
208.03322,208.13538,71,60,40
208.13538,208.23874,68,60,40
208.23874,208.36014,62,60,40
208.54643,208.69908,62,60,40
208.85413,209.00677,62,60,40
209.16182,209.31447,62,60,40
209.46951,209.62216,62,60,40
211.3346,211.43675,83,60,40
211.43675,211.53893,80,60,40
211.53893,211.64229,76,60,40
211.64229,211.74445,74,60,40
211.74445,211.84662,71,60,40
211.84662,211.94998,68,60,40
211.94998,212.07138,62,60,40
212.25768,212.41031,62,60,40
212.56537,212.718,62,60,40
212.87306,213.0257,62,60,40
213.18074,213.33339,62,60,40
215.04582,215.148,83,50,40
215.148,215.25015,80,50,40
215.25015,215.35352,76,50,40
215.35352,215.45569,74,50,40
215.45569,215.55785,71,50,40
215.55785,215.66121,68,50,40
215.66121,215.78261,62,50,40
215.9689,216.12286,62,49,40
216.28409,216.44933,62,65,40
216.62589,216.81097,62,81,40
217.014,217.32169,61,97,40
224.2315,224.82642,69,60,40
224.82642,224.90334,74,60,40
224.90334,225.02473,78,60,40
225.21103,225.82642,78,60,40
225.82642,225.94781,76,60,40
226.13411,226.75081,74,60,40
226.75081,226.8738,73,60,40
227.06415,227.2218,74,60,40
227.3838,227.53645,76,60,40
228.30688,228.92227,76,60,40
228.92227,229.22995,77,77,40
229.22995,229.35135,78,86,40
230.15303,230.7826,69,60,40
230.7826,230.94691,73,60,40
230.94691,231.08073,71,60,40
231.11522,231.28583,69,60,40
232.1875,233.11058,73,60,40
233.11058,233.72595,78,60,40
233.72595,234.03365,76,60,40
234.03365,234.656,74,60,40
234.656,234.97566,73,60,40
234.97566,235.09705,71,60,40
235.89873,236.05138,66,60,40
236.20642,237.1295,78,79,40
237.1295,237.28215,78,60,40
237.4372,238.05524,79,79,40
238.05524,238.30867,78,60,40
238.37445,238.53746,76,60,40
238.70708,238.87769,74,60,40
239.40863,240.01012,81,83,40
240.01012,240.08705,86,83,40
240.08705,240.20844,90,83,40
240.39473,241.01012,90,83,40
241.01012,241.13152,88,83,40
241.31781,241.93367,86,83,40
241.93367,242.05568,85,83,40
242.24353,242.398,86,83,40
242.55537,242.71092,88,83,40
243.50916,244.12454,88,83,40
244.12454,244.43224,89,100,40
244.43224,244.55363,90,109,40
245.35532,245.98488,81,60,40
245.98488,246.1492,85,60,40
246.1492,246.31749,83,60,40
246.31749,246.45276,81,60,40
248.57683,248.73068,71,60,40
248.73068,248.85327,74,60,40
248.88452,249.03717,76,79,40
249.49991,249.65376,69,60,40
249.65376,249.77635,73,60,40
249.8076,249.96025,76,79,40
250.4243,250.58032,68,60,40
250.58032,250.70557,71,60,40
250.73764,250.89531,76,79,40
251.0573,251.15947,64,97,40
251.15947,251.26163,69,97,40
251.26163,251.36499,73,97,40
251.36499,251.46716,76,97,40
251.46716,251.56932,81,97,40
251.56932,251.67268,85,97,40
251.67268,251.79408,88,97,40
251.98038,252.28807,88,97,40
252.28807,252.53326,86,97,40
252.59576,252.7484,83,116,40
252.90346,253.21115,84,97,40
253.21115,253.45634,85,97,40
253.51884,253.67148,81,116,40
253.82652,254.13689,82,97,40
254.13689,254.39032,83,97,40
254.45609,254.61911,76,116,40
258.49994,258.6021,64,97,40
258.6021,258.70428,69,97,40
258.70428,258.80765,72,97,40
258.80765,258.9098,76,97,40
258.9098,259.01196,81,97,40
259.01196,259.11533,84,97,40
259.11533,259.23672,88,97,40
259.42303,259.7307,88,97,40
259.7307,259.97592,86,97,40
260.03842,260.19104,83,116,40
260.3461,260.65378,83,97,40
260.65378,260.899,84,97,40
260.9615,261.11414,81,116,40
261.26917,261.57953,82,97,40
261.57953,261.83295,83,97,40
261.89874,262.06177,76,116,40
264.09644,264.40414,83,60,40
264.40414,264.64932,84,60,40
264.71182,264.86447,81,60,40
265.01953,265.32864,82,60,40
265.32864,265.57855,83,60,40
265.64294,265.80118,76,60,40
265.96344,266.29254,83,50,40
266.29254,266.5627,84,50,40
266.63275,266.80627,84,50,40
266.9859,267.90897,84,50,40
267.90897,268.83203,86,50,40
268.83203,269.66257,79,50,40
269.71664,269.75513,86,50,40
269.75513,270.00107,84,50,40
270.06412,270.31335,83,50,40
270.37747,270.53513,84,55,40
270.6971,271.6202,86,60,40
271.6202,272.54327,91,76,40
272.54327,272.66467,88,50,40
273.46634,273.7767,68,50,40
273.7767,274.03012,69,50,40
274.09592,274.25894,69,50,40
274.42853,275.35162,69,50,40
275.35162,276.2747,71,50,40
276.2747,277.10522,64,50,40
277.1593,277.19775,71,50,40
277.19775,277.44373,69,60,40
277.50677,277.756,68,60,40
277.8201,277.97778,69,60,40
278.13977,279.06284,71,59,40
279.06284,279.98593,76,66,40
279.98593,280.60132,81,72,40
280.60132,280.8465,79,76,40
280.909,281.52438,78,78,40
281.52438,281.64578,74,83,40
281.83206,282.14072,72,85,40
282.14072,282.38904,73,87,40
282.45276,282.6091,73,89,40
282.7689,283.0905,70,91,40
283.0905,283.3518,71,93,40
283.41913,283.5851,68,95,40
284.67877,284.78094,66,97,40
284.78094,284.88312,69,97,40
284.88312,284.98648,74,97,40
284.98648,285.08862,78,97,40
285.08862,285.1908,81,97,40
285.1908,285.29416,86,97,40
285.29416,285.41556,90,97,40
285.60184,286.21722,90,116,40
286.21722,286.33862,86,97,40
286.52493,286.8353,86,97,40
286.8353,287.0884,85,97,40
287.15387,287.315,80,97,40
287.4805,287.6456,81,97,40
288.51874,288.62088,66,97,40
288.62088,288.72305,69,97,40
288.72305,288.82642,73,97,40
288.82642,288.9286,78,97,40
288.9286,289.03073,81,97,40
289.03073,289.13412,85,97,40
289.13412,289.2555,90,97,40
289.4418,290.06155,90,116,40
290.06155,290.18643,86,97,40
291.3559,292.03275,78,60,40
292.03275,292.1694,74,60,40
293.4522,294.19775,66,50,40
294.19775,294.34866,62,50,40
299.52304,303.16388,69,43,40
299.52304,303.16388,81,43,40
303.16388,303.76144,82,49,40
303.76144,304.05942,83,57,40
304.05942,304.65393,84,61,40
304.65393,304.9505,85,69,40
304.9505,305.5424,86,73,40
305.5424,305.77777,87,81,40
305.83777,306.4275,88,85,40
306.4275,306.7222,89,93,40
306.7222,306.95657,90,97,40
310.0379,310.61206,64,60,40
310.61206,310.689,69,60,40
310.689,310.8104,73,60,40
310.99667,311.61206,73,60,40
311.61206,311.85727,71,60,40
311.91977,312.07242,69,60,40
312.22745,313.7729,68,60,40
313.7729,314.3233,64,60,40
314.3233,314.40024,69,60,40
314.40024,314.5216,73,60,40
314.70792,315.3233,73,60,40
315.3233,315.56848,71,60,40
315.63098,315.78363,69,60,40
315.9387,317.4841,68,60,40
317.4841,318.03455,76,60,40
318.03455,318.11145,81,60,40
318.11145,318.23285,85,60,40
318.41916,319.03455,85,60,40
319.03455,319.27972,83,60,40
319.34222,319.49487,81,60,40
319.64993,321.52695,71,60,40
319.64993,321.52695,80,60,40
321.52695,321.8343,73,60,40
321.52695,321.8343,81,60,40
323.34924,323.49796,76,60,40
323.64847,323.7963,88,59,40
323.94626,324.09372,73,63,40
324.24353,324.39056,85,66,40
324.53964,324.68622,69,70,40
324.8349,324.98114,81,73,40
325.12955,325.27567,64,77,40
325.42505,325.57333,76,80,40
325.72537,325.87656,61,84,40
326.0316,326.18604,73,87,40
326.3459,326.50558,57,90,40
326.6707,326.83627,69,94,40
327.00763,327.3166,66,97,40
327.9516,328.28146,59,97,40
327.9516,328.28146,68,97,40
328.97464,329.34085,61,97,40
328.97464,329.34085,69,97,40
0.0,0.5730765,64,60,0
0.5730765,0.6499995,69,60,0
0.6499995,0.7713936,73,60,0
0.3423075,1.2653835,57,50,0
0.3423075,1.2653835,61,50,0
0.9576915,1.5730755,73,60,0
1.5730755,1.6944696,71,60,0
1.2653835,1.8807675,62,50,0
1.2653835,1.8807675,66,50,0
1.8807675,2.1884594,61,50,0
1.8807675,2.1884594,64,50,0
1.8807675,2.497473,69,60,0
2.497473,2.6204562,68,60,0
2.1884594,2.81081,59,50,0
2.1884594,2.81081,62,50,0
2.81081,2.968469,69,60,0
2.81081,3.130466,57,50,0
2.81081,3.130466,61,50,0
3.130466,3.25186,52,50,0
3.130466,3.25186,56,50,0
3.130466,3.25186,59,50,0
3.130466,3.28311,71,60,0
4.0535417,4.668926,66,60,0
4.0535417,4.668926,71,60,0
4.0535417,4.668926,62,60,0
4.668926,4.976618,64,69,0
4.668926,4.976618,70,69,0
4.668926,4.976618,73,69,0
4.668926,4.976618,61,69,0
4.976618,5.592002,66,73,0
4.976618,5.592002,71,73,0
4.976618,5.592002,74,73,0
4.976618,5.592002,59,73,0
5.592002,5.899694,67,82,0
5.592002,5.899694,73,82,0
5.592002,5.899694,76,82,0
5.592002,5.899694,52,82,0
5.899694,6.529257,66,86,0
5.899694,6.529257,71,86,0
5.899694,6.529257,74,86,0
5.899694,6.529257,54,86,0
6.529257,6.8618784,64,69,0
6.529257,6.8618784,70,69,0
6.529257,6.8618784,73,69,0
6.529257,6.8618784,42,69,0
6.8618784,6.9973726,62,60,0
6.8618784,6.9973726,66,60,0
6.8618784,6.9973726,71,60,0
6.8618784,6.9973726,47,60,0
7.923953,8.847029,57,60,0
7.923953,8.847029,62,60,0
7.923953,8.847029,66,60,0
7.923953,8.847029,50,60,0
7.923953,8.847029,54,60,0
8.847029,9.462413,59,60,0
8.847029,9.462413,64,60,0
8.847029,9.462413,55,60,0
9.462413,9.770104,57,60,0
9.462413,9.770104,62,60,0
9.462413,9.770104,54,60,0
9.770104,10.392455,57,60,0
9.770104,10.392455,61,60,0
9.770104,10.392455,52,60,0
9.770104,10.392455,55,60,0
10.392455,10.712111,57,60,0
10.392455,10.712111,62,60,0
10.392455,10.712111,50,60,0
10.392455,10.712111,54,60,0
10.712111,10.833506,57,60,0
10.712111,10.833506,64,60,0
10.712111,10.833506,49,60,0
10.712111,10.833506,52,60,0
11.635187,12.250571,64,60,0
11.635187,12.558263,57,76,0
12.250571,12.558263,65,71,0
11.635187,12.558263,49,60,0
12.558263,12.679657,66,76,0
12.558263,12.679657,57,91,0
12.558263,13.173647,50,76,0
13.173647,13.481339,51,60,0
13.481339,14.110902,57,60,0
13.481339,14.110902,61,60,0
13.481339,14.110902,52,60,0
14.110902,14.443523,56,60,0
14.110902,14.443523,62,60,0
14.110902,14.443523,40,60,0
14.443523,14.5790825,57,60,0
14.443523,14.5790825,61,60,0
14.443523,14.5790825,45,60,0
15.145083,15.746574,76,60,0
15.746574,15.823498,81,60,0
15.823498,15.944892,85,60,0
15.515806,16.43888,69,60,0
16.13119,16.746574,85,60,0
16.746574,16.867968,83,60,0
16.43888,17.054266,74,60,0
17.054266,17.361958,73,60,0
17.054266,17.67097,81,60,0
17.67097,17.793955,80,60,0
17.361958,17.984308,71,60,0
17.984308,18.141968,81,60,0
17.984308,18.303965,69,60,0
18.303965,18.425358,64,60,0
18.303965,18.425358,68,60,0
18.303965,18.456608,83,60,0
19.22704,19.842424,83,60,0
19.22704,19.842424,62,60,0
19.22704,19.842424,71,60,0
19.842424,20.150116,85,71,0
19.842424,20.150116,61,71,0
19.842424,20.150116,70,71,0
20.150116,20.765501,86,76,0
20.150116,20.765501,59,76,0
20.150116,20.765501,71,76,0
20.765501,21.073193,88,105,0
20.765501,21.073193,64,105,0
20.765501,21.073193,71,105,0
21.073193,21.702755,86,86,0
21.073193,21.702755,66,86,0
21.073193,21.702755,71,86,0
21.702755,21.784445,86,73,0
21.784445,21.867075,85,72,0
21.867075,21.950722,83,70,0
21.950722,22.035378,85,68,0
21.702755,22.035378,66,73,0
21.702755,22.035378,70,73,0
22.035378,22.170937,83,67,0
22.035378,22.170937,59,67,0
22.035378,22.170937,71,67,0
23.261505,23.41535,57,83,0
23.41535,23.569197,62,83,0
23.569197,23.723043,66,83,0
23.723043,23.876888,69,83,0
23.876888,23.999485,74,83,0
23.107658,24.030735,50,83,0
23.107658,24.030735,54,83,0
24.030735,24.18458,71,83,0
24.18458,24.338427,70,83,0
24.338427,24.492273,73,83,0
24.492273,24.646118,71,83,0
24.030735,24.646118,55,83,0
24.030735,24.646118,59,83,0
24.646118,24.799965,69,83,0
24.799965,24.922562,71,83,0
24.646118,24.953812,54,83,0
24.646118,24.953812,57,83,0
24.953812,25.107729,67,83,0
25.107729,25.26198,66,83,0
25.26198,25.416672,69,83,0
25.416672,25.571836,67,83,0
24.953812,25.571836,52,83,0
24.953812,25.571836,55,83,0
25.571836,25.727522,66,83,0
25.727522,25.85196,67,83,0
25.571836,25.883678,50,83,0
25.571836,25.883678,54,83,0
25.883678,26.007324,49,83,0
25.883678,26.007324,52,83,0
25.883678,26.040459,64,83,0
26.040459,26.198185,69,83,0
26.198185,26.35665,68,83,0
26.35665,26.515991,69,83,0
26.515991,26.676271,64,83,0
26.676271,26.804682,61,83,0
26.837465,26.991312,57,83,0
26.991312,27.145159,59,85,0
27.145159,27.299004,57,88,0
27.299004,27.45285,69,90,0
27.45285,27.606697,68,92,0
27.606697,27.729292,69,94,0
26.837465,27.760542,37,83,0
26.837465,27.760542,49,83,0
27.760542,27.914389,69,96,0
27.914389,28.068233,71,98,0
28.068233,28.22208,69,100,0
28.22208,28.375927,81,102,0
27.760542,28.375927,38,96,0
27.760542,28.375927,50,96,0
28.375927,28.529772,80,104,0
28.529772,28.652369,81,107,0
28.375927,28.683619,39,104,0
28.375927,28.683619,51,104,0
28.683619,28.837942,73,60,0
28.837942,28.99397,69,60,0
28.99397,29.152203,64,60,0
28.683619,29.219738,40,60,0
28.683619,29.219738,52,60,0
29.152203,29.31318,61,60,0
29.31318,29.4775,62,60,0
29.4775,29.645803,68,60,0
29.31318,29.645803,40,60,0
29.645803,29.78107,61,60,0
29.645803,29.78107,69,60,0
29.645803,29.815891,33,60,0
29.645803,29.815891,45,60,0
30.674374,30.776537,64,97,0
30.776537,30.8787,69,97,0
30.8787,30.982065,73,97,0
30.982065,31.084229,76,97,0
31.084229,31.186392,81,97,0
31.186392,31.289759,85,97,0
31.289759,31.411152,88,97,0
31.59745,31.905142,88,97,0
31.905142,32.150333,86,97,0
32.212833,32.36548,83,116,0
32.212833,32.36548,56,79,0
32.212833,32.36548,59,79,0
32.212833,32.36548,62,79,0
32.212833,32.36548,64,79,0
32.520527,32.828217,84,97,0
32.828217,33.07341,85,97,0
33.13591,33.288555,81,116,0
33.13591,33.288555,57,79,0
33.13591,33.288555,61,79,0
33.13591,33.288555,64,79,0
33.443604,33.752617,82,97,0
33.752617,34.001854,83,97,0
34.065952,34.22361,76,116,0
34.065952,34.22361,52,79,0
34.065952,34.22361,56,79,0
34.065952,34.22361,59,79,0
34.065952,34.22361,64,79,0
35.308685,35.616375,32,60,0
35.308685,35.616375,44,60,0
35.616375,35.71854,52,60,0
35.71854,35.8207,59,60,0
35.8207,35.92407,62,60,0
35.92407,36.045464,64,79,0
36.231762,36.53945,33,60,0
36.231762,36.53945,45,60,0
36.53945,36.641617,52,60,0
36.641617,36.74378,57,60,0
36.74378,36.847145,61,60,0
36.847145,36.968536,64,79,0
37.154835,37.465187,40,60,0
37.465187,37.56999,52,60,0
37.56999,37.67591,56,60,0
37.67591,37.784397,59,60,0
37.784397,37.913757,64,79,0
38.11702,38.219185,59,97,0
38.11702,38.219185,47,97,0
38.219185,38.321346,64,97,0
38.219185,38.321346,52,97,0
38.321346,38.424713,68,97,0
38.321346,38.424713,56,97,0
38.424713,38.526875,71,97,0
38.424713,38.526875,59,97,0
38.526875,38.62904,76,97,0
38.526875,38.62904,64,97,0
38.62904,38.732407,80,97,0
38.62904,38.732407,68,97,0
38.732407,38.853798,83,97,0
38.732407,38.853798,71,97,0
39.040096,39.34779,83,97,0
39.040096,39.34779,71,97,0
39.34779,39.59298,81,97,0
39.34779,39.59298,69,97,0
39.65548,39.808125,78,116,0
39.65548,39.808125,66,116,0
39.963173,40.270866,79,97,0
39.963173,40.270866,67,97,0
40.270866,40.516056,80,97,0
40.270866,40.516056,68,97,0
40.578556,40.7312,76,116,0
40.578556,40.7312,64,116,0
40.88625,41.195263,77,97,0
40.88625,41.195263,65,97,0
41.195263,41.444504,78,97,0
41.195263,41.444504,66,97,0
41.5086,41.66626,71,116,0
41.5086,41.66626,59,116,0
42.75133,43.059025,39,60,0
42.75133,43.059025,51,60,0
43.059025,43.161186,59,60,0
43.161186,43.26335,66,60,0
43.26335,43.366714,69,60,0
43.366714,43.48811,71,79,0
43.674408,43.982098,40,60,0
43.674408,43.982098,52,60,0
43.982098,44.084263,59,60,0
44.084263,44.186424,64,60,0
44.186424,44.28979,68,60,0
44.28979,44.411186,71,79,0
44.597485,44.907837,35,60,0
44.597485,44.907837,47,60,0
44.907837,45.012634,59,60,0
45.012634,45.118557,63,60,0
45.118557,45.227047,66,60,0
45.227047,45.356403,71,79,0
45.55967,45.86736,66,60,0
45.55967,45.86736,54,60,0
45.86736,46.112553,67,60,0
45.86736,46.112553,55,60,0
46.175053,46.327698,64,60,0
46.175053,46.327698,52,60,0
46.482742,46.791756,65,60,0
46.482742,46.791756,53,60,0
46.791756,47.040997,66,60,0
46.791756,47.040997,54,60,0
47.105095,47.262753,59,60,0
47.105095,47.262753,47,60,0
47.42475,47.73244,40,50,0
47.42475,47.73244,52,50,0
47.73244,47.834606,59,50,0
47.834606,47.936768,64,50,0
47.936768,48.040134,67,50,0
48.040134,48.16153,71,50,0
48.347828,48.65696,35,50,0
48.347828,48.65696,47,50,0
48.65696,48.760666,59,50,0
48.760666,48.864994,63,50,0
48.864994,48.97124,66,50,0
48.97124,49.096962,71,50,0
49.291737,49.62085,66,50,0
49.62085,49.891006,67,50,0
49.961052,50.13459,67,50,0
50.314194,50.46804,52,43,0
50.46804,50.621887,55,43,0
50.621887,50.77573,59,43,0
50.77573,50.929577,55,43,0
50.929577,51.083424,52,43,0
50.314194,51.23727,67,50,0
51.083424,51.23727,55,43,0
51.23727,51.391117,48,43,0
51.391117,51.54496,52,43,0
51.54496,51.698807,57,43,0
51.698807,51.852654,52,43,0
51.852654,52.0065,48,43,0
51.23727,52.160347,69,50,0
52.0065,52.160347,52,43,0
52.160347,52.31419,50,43,0
52.31419,52.468037,54,43,0
52.468037,52.621883,57,43,0
52.621883,52.77573,54,43,0
52.77573,52.929577,50,43,0
52.160347,53.04496,62,50,0
53.04496,53.083424,69,50,0
52.929577,53.083424,54,43,0
53.083424,53.237507,47,43,0
53.083424,53.329384,67,50,0
53.237507,53.392437,50,45,0
53.392437,53.548443,55,47,0
53.392437,53.641674,66,55,0
53.548443,53.705772,50,49,0
53.705772,53.86343,67,59,0
53.705772,53.86468,47,51,0
53.86468,54.02543,50,53,0
54.02543,54.179276,48,55,0
54.179276,54.33312,52,57,0
54.33312,54.486965,57,60,0
54.486965,54.640812,52,62,0
54.640812,54.79466,48,64,0
54.02543,54.948505,69,63,0
54.79466,54.948505,52,66,0
54.948505,55.10235,50,68,0
55.10235,55.256195,54,64,0
55.256195,55.41004,60,60,0
55.41004,55.56389,54,55,0
55.56389,55.717735,50,51,0
54.948505,55.87158,74,76,0
55.717735,55.87158,54,47,0
55.87158,55.992973,71,50,0
55.87158,56.025425,43,43,0
56.025425,56.17927,55,43,0
56.17927,56.33312,54,43,0
56.33312,56.486965,55,43,0
56.486965,56.640812,54,43,0
56.640812,56.794655,55,43,0
56.794655,56.948982,54,43,0
56.794655,57.105007,75,50,0
56.948982,57.105007,55,43,0
57.105007,57.26324,54,43,0
57.105007,57.35844,76,50,0
57.26324,57.424217,55,43,0
57.424217,57.58724,76,50,0
57.424217,57.58854,54,43,0
57.58854,57.75684,55,43,0
57.75684,57.910686,48,43,0
57.910686,58.064533,52,43,0
58.064533,58.21838,55,43,0
58.21838,58.372223,52,43,0
58.372223,58.52607,48,43,0
57.75684,58.679916,76,50,0
58.52607,58.679916,52,43,0
58.679916,58.833763,45,43,0
58.833763,58.98761,48,43,0
58.98761,59.141457,54,43,0
59.141457,59.2953,48,43,0
59.2953,59.449146,45,43,0
58.679916,59.602993,78,50,0
59.449146,59.602993,48,43,0
59.602993,59.75684,47,43,0
59.75684,59.910686,51,43,0
59.910686,60.06453,54,43,0
60.06453,60.218376,51,43,0
60.218376,60.372223,47,43,0
59.602993,60.487606,71,50,0
60.487606,60.52607,78,50,0
60.372223,60.52607,51,43,0
60.52607,60.680153,44,43,0
60.52607,60.77203,76,60,0
60.680153,60.835083,47,43,0
60.835083,60.99109,52,43,0
60.835083,61.08432,75,60,0
60.99109,61.14842,47,43,0
61.14842,61.30608,76,60,0
61.14842,61.307327,44,43,0
61.307327,61.468075,47,43,0
61.468075,61.62192,45,43,0
61.62192,61.77577,49,43,0
61.77577,61.92961,54,44,0
61.92961,62.083458,49,45,0
62.083458,62.237305,45,46,0
61.468075,62.39115,78,59,0
62.237305,62.39115,49,47,0
62.39115,62.545,45,47,0
62.545,62.698845,51,48,0
62.698845,62.852688,54,49,0
62.852688,63.006535,51,50,0
63.006535,63.16038,45,50,0
62.39115,63.314228,83,66,0
63.16038,63.314228,51,51,0
63.314228,63.468075,44,52,0
63.468075,63.621918,52,53,0
63.621918,63.775764,47,54,0
63.775764,63.92961,52,54,0
63.92961,64.08346,44,55,0
63.314228,64.237305,88,72,0
64.08346,64.237305,52,56,0
64.237305,64.39115,45,57,0
64.237305,64.545,87,78,0
64.39115,64.545,52,57,0
64.545,64.698845,49,58,0
64.545,64.790184,88,80,0
64.698845,64.852684,52,59,0
64.852684,65.00533,85,83,0
64.852684,65.00653,45,60,0
65.00653,65.16038,52,61,0
65.16038,65.31437,47,61,0
65.16038,65.469025,82,85,0
65.31437,65.469025,56,62,0
65.469025,65.62457,52,63,0
65.469025,65.71735,83,87,0
65.62457,65.78108,56,64,0
65.78108,65.937416,80,89,0
65.78108,65.93865,47,64,0
65.93865,66.09719,56,65,0
66.09719,66.25702,47,66,0
66.09719,66.41883,80,91,0
66.25702,66.41883,57,67,0
66.41883,66.5822,54,68,0
66.41883,66.680115,81,93,0
66.5822,66.747444,57,68,0
66.747444,66.913414,75,95,0
66.747444,66.91473,47,69,0
66.91473,67.08401,57,70,0
67.08401,67.18617,64,97,0
67.18617,67.28833,68,97,0
67.28833,67.3917,71,97,0
67.08401,67.3917,52,71,0
67.08401,67.3917,56,71,0
67.3917,67.49386,76,97,0
67.49386,67.59602,80,97,0
67.59602,67.699394,83,97,0
67.699394,67.820786,88,97,0
68.00708,68.62247,88,97,0
68.62247,68.77511,88,97,0
68.93016,69.032326,33,97,0
69.032326,69.13448,37,97,0
69.13448,69.237854,40,97,0
69.237854,69.34001,45,97,0
69.34001,69.44218,49,97,0
68.93016,69.54554,88,116,0
69.44218,69.54554,52,97,0
69.54554,69.66694,85,97,0
69.54554,69.66694,57,97,0
69.85323,70.18581,85,97,0
69.85323,70.18581,59,97,0
70.18581,70.457504,83,97,0
70.528046,70.70292,75,97,0
70.528046,70.70292,47,97,0
70.88495,71.00159,64,97,0
71.00159,71.113266,68,97,0
71.113266,71.22733,71,97,0
70.88495,71.22733,40,97,0
70.88495,71.22733,52,97,0
71.22733,71.34114,76,97,0
71.34114,71.45603,80,97,0
71.45603,71.57341,83,97,0
71.57341,71.7128,88,97,0
71.92967,72.54505,88,97,0
72.54505,72.6977,88,97,0
72.852745,72.95491,33,97,0
72.95491,73.05707,37,97,0
73.05707,73.16044,40,97,0
73.16044,73.264046,45,97,0
73.264046,73.36766,49,97,0
72.852745,73.47249,88,116,0
73.36766,73.47249,52,97,0
73.47249,73.59737,85,97,0
73.47249,73.59737,57,97,0
74.76684,75.443695,76,60,0
75.443695,75.58035,73,60,0
76.86315,77.6087,64,50,0
77.6087,77.7596,61,50,0
78.77658,79.40362,64,60,0
79.40362,79.48054,69,60,0
79.48054,79.60194,73,60,0
79.17285,80.095924,57,50,0
79.17285,80.095924,61,50,0
79.78823,80.40362,73,60,0
80.40362,80.52501,71,60,0
80.095924,80.71131,62,50,0
80.095924,80.71131,66,50,0
80.71131,81.019,61,50,0
80.71131,81.019,64,50,0
80.71131,81.32801,69,60,0
81.32801,81.451,68,60,0
81.019,81.64135,59,50,0
81.019,81.64135,62,50,0
81.64135,81.79901,69,60,0
81.64135,81.961006,57,50,0
81.64135,81.961006,61,50,0
81.961006,82.0824,52,50,0
81.961006,82.0824,56,50,0
81.961006,82.0824,59,50,0
81.961006,82.11365,71,60,0
82.88408,83.499466,66,60,0
82.88408,83.499466,71,60,0
82.88408,83.499466,62,60,0
83.499466,83.80716,64,69,0
83.499466,83.80716,70,69,0
83.499466,83.80716,73,69,0
83.499466,83.80716,61,69,0
83.80716,84.42255,66,73,0
83.80716,84.42255,71,73,0
83.80716,84.42255,74,73,0
83.80716,84.42255,59,73,0
84.42255,84.73023,67,82,0
84.42255,84.73023,73,82,0
84.42255,84.73023,76,82,0
84.42255,84.73023,52,82,0
84.73023,85.359795,66,86,0
84.73023,85.359795,71,86,0
84.73023,85.359795,74,86,0
84.73023,85.359795,54,86,0
85.359795,85.69242,64,69,0
85.359795,85.69242,70,69,0
85.359795,85.69242,73,69,0
85.359795,85.69242,42,69,0
85.69242,85.82791,62,60,0
85.69242,85.82791,66,60,0
85.69242,85.82791,71,60,0
85.69242,85.82791,47,60,0
86.75449,87.67757,57,60,0
86.75449,87.67757,62,60,0
86.75449,87.67757,66,60,0
86.75449,87.67757,50,60,0
86.75449,87.67757,54,60,0
87.67757,88.29295,59,60,0
87.67757,88.29295,64,60,0
87.67757,88.29295,55,60,0
88.29295,88.60065,57,60,0
88.29295,88.60065,62,60,0
88.29295,88.60065,54,60,0
88.60065,89.223,57,60,0
88.60065,89.223,61,60,0
88.60065,89.223,52,60,0
88.60065,89.223,55,60,0
89.223,89.54265,57,60,0
89.223,89.54265,62,60,0
89.223,89.54265,50,60,0
89.223,89.54265,54,60,0
89.54265,89.66405,57,60,0
89.54265,89.66405,64,60,0
89.54265,89.66405,49,60,0
89.54265,89.66405,52,60,0
90.46573,91.081116,64,60,0
90.46573,91.3888,57,97,0
91.081116,91.3888,65,71,0
90.46573,91.3888,49,60,0
91.3888,91.5102,66,76,0
91.3888,91.5102,57,113,0
91.3888,92.00419,50,76,0
92.00419,92.31188,51,60,0
92.31188,92.941444,57,60,0
92.31188,92.941444,61,60,0
92.31188,92.941444,52,60,0
92.941444,93.27406,56,60,0
92.941444,93.27406,62,60,0
92.941444,93.27406,40,60,0
93.27406,93.40956,57,60,0
93.27406,93.40956,61,60,0
93.27406,93.40956,45,60,0
93.97201,94.56691,76,60,0
94.56691,94.64383,81,60,0
94.64383,94.76523,85,60,0
94.336136,95.25922,69,60,0
94.95152,95.56691,85,60,0
95.56691,95.6883,83,60,0
95.25922,95.874596,74,60,0
95.874596,96.18229,73,60,0
95.874596,96.4913,81,60,0
96.4913,96.61429,80,60,0
96.18229,96.80464,71,60,0
96.80464,96.9623,81,60,0
96.80464,97.1243,69,60,0
97.1243,97.24569,64,60,0
97.1243,97.24569,68,60,0
97.1243,97.27694,83,60,0
98.04737,98.66276,83,60,0
98.04737,98.66276,62,60,0
98.04737,98.66276,71,60,0
98.66276,98.97045,85,71,0
98.66276,98.97045,61,71,0
98.66276,98.97045,70,71,0
98.97045,99.58583,86,76,0
98.97045,99.58583,59,76,0
98.97045,99.58583,71,76,0
99.58583,99.893524,88,105,0
99.58583,99.893524,64,105,0
99.58583,99.893524,71,105,0
99.893524,100.52309,86,86,0
99.893524,100.52309,66,86,0
99.893524,100.52309,71,86,0
100.52309,100.60478,86,73,0
100.60478,100.68741,85,72,0
100.68741,100.77106,83,70,0
100.77106,100.85571,85,68,0
100.52309,100.85571,66,73,0
100.52309,100.85571,70,73,0
100.85571,100.99127,83,67,0
100.85571,100.99127,59,67,0
100.85571,100.99127,71,67,0
102.08184,102.23569,57,83,0
102.23569,102.38953,62,83,0
102.38953,102.54337,66,83,0
102.54337,102.69722,69,83,0
102.69722,102.81982,74,83,0
101.92799,102.85107,50,83,0
101.92799,102.85107,54,83,0
102.85107,103.00491,71,83,0
103.00491,103.15876,70,83,0
103.15876,103.31261,73,83,0
103.31261,103.46645,71,83,0
102.85107,103.46645,55,83,0
102.85107,103.46645,59,83,0
103.46645,103.6203,69,83,0
103.6203,103.7429,71,83,0
103.46645,103.77415,54,83,0
103.46645,103.77415,57,83,0
103.77415,103.92806,67,83,0
103.92806,104.08231,66,83,0
104.08231,104.23701,69,83,0
104.23701,104.392166,67,83,0
103.77415,104.392166,52,83,0
103.77415,104.392166,55,83,0
104.392166,104.54785,66,83,0
104.54785,104.672295,67,83,0
104.392166,104.70401,50,83,0
104.392166,104.70401,54,83,0
104.70401,104.82766,49,83,0
104.70401,104.82766,52,83,0
104.70401,104.860794,64,83,0
104.860794,105.01852,69,83,0
105.01852,105.17698,68,83,0
105.17698,105.33633,69,83,0
105.33633,105.496605,64,83,0
105.496605,105.625015,61,83,0
105.6578,105.811646,57,83,0
105.811646,105.96549,59,85,0
105.96549,106.11934,57,88,0
106.11934,106.273186,69,90,0
106.273186,106.42703,68,92,0
106.42703,106.54963,69,94,0
105.6578,106.58088,37,83,0
105.6578,106.58088,49,83,0
106.58088,106.73472,69,96,0
106.73472,106.888565,71,98,0
106.888565,107.04241,69,100,0
107.04241,107.19626,81,102,0
106.58088,107.19626,38,96,0
106.58088,107.19626,50,96,0
107.19626,107.350105,80,104,0
107.350105,107.4727,81,107,0
107.19626,107.50395,39,104,0
107.19626,107.50395,51,104,0
107.50395,107.65828,73,60,0
107.65828,107.8143,69,60,0
107.8143,107.972534,64,60,0
107.50395,108.04007,40,60,0
107.50395,108.04007,52,60,0
107.972534,108.133514,61,60,0
108.133514,108.29784,62,60,0
108.29784,108.46613,68,60,0
108.133514,108.46613,40,60,0
108.46613,108.6014,61,60,0
108.46613,108.6014,69,60,0
108.46613,108.63622,33,60,0
108.46613,108.63622,45,60,0
109.494705,110.18637,69,60,0
110.18637,110.36222,73,60,0
110.36222,110.53843,71,60,0
110.53843,110.677475,69,60,0
111.62216,112.370865,73,50,0
112.370865,112.561226,76,50,0
112.561226,112.751595,74,50,0
112.751595,112.903786,73,50,0
113.9339,114.087746,57,60,0
114.087746,114.24159,62,60,0
114.24159,114.39544,66,60,0
114.39544,114.549286,62,60,0
113.9339,114.549286,38,79,0
114.549286,114.703125,57,60,0
114.549286,114.703125,42,60,0
114.703125,114.85697,62,60,0
114.703125,114.85697,40,60,0
114.85697,114.97837,38,60,0
114.85697,115.01082,57,60,0
115.01082,115.164665,62,60,0
115.164665,115.31851,66,60,0
115.31851,115.47236,62,60,0
115.47236,115.626205,57,60,0
115.626205,115.78005,62,60,0
115.78005,115.9339,57,60,0
115.9339,116.087746,61,60,0
116.087746,116.24159,67,60,0
116.24159,116.39543,61,60,0
115.78005,116.39543,40,79,0
116.39543,116.54928,57,60,0
116.39543,116.54928,43,60,0
116.54928,116.703125,61,60,0
116.54928,116.703125,42,60,0
116.703125,116.824524,40,60,0
116.703125,116.85697,57,60,0
116.85697,117.01082,61,60,0
117.01082,117.164665,67,60,0
117.164665,117.31851,61,60,0
117.31851,117.47236,57,60,0
117.47236,117.626205,61,60,0
117.626205,117.78005,58,60,0
117.78005,117.93389,61,60,0
117.93389,118.08774,64,60,0
118.08774,118.241585,61,60,0
117.626205,118.241585,43,79,0
118.241585,118.39543,58,60,0
118.241585,118.39543,46,60,0
118.39543,118.54928,61,60,0
118.39543,118.54928,45,60,0
118.54928,118.67067,43,60,0
118.54928,118.703125,58,60,0
118.703125,118.85697,61,60,0
118.85697,119.01082,64,60,0
119.01082,119.164665,61,60,0
119.164665,119.31851,58,60,0
119.31851,119.47235,61,60,0
119.47235,119.626274,57,60,0
119.626274,119.780525,62,60,0
119.780525,119.93521,66,60,0
119.93521,120.09038,62,60,0
119.47235,120.09038,42,79,0
120.09038,120.24606,57,60,0
120.09038,120.24606,45,60,0
120.24606,120.40222,62,60,0
120.24606,120.40222,43,60,0
120.40222,120.52587,42,60,0
120.40222,120.559006,57,60,0
120.559006,120.71673,62,60,0
120.71673,120.87519,66,60,0
120.87519,121.03454,69,60,0
121.03454,121.19482,62,60,0
121.19482,121.35601,74,60,0
121.35601,121.50976,62,60,0
121.50976,121.66307,64,62,0
121.66307,121.81592,71,63,0
121.81592,121.96835,74,64,0
121.96835,122.12042,62,65,0
122.12042,122.272194,74,66,0
121.96835,122.272194,32,65,0
121.96835,122.272194,44,65,0
122.272194,122.42366,61,67,0
122.42366,122.574715,64,68,0
122.574715,122.72552,69,69,0
122.72552,122.87607,73,70,0
122.87607,123.0264,61,71,0
123.0264,123.17655,73,72,0
122.87607,123.17655,33,71,0
122.87607,123.17655,45,71,0
123.17655,123.326546,62,73,0
123.326546,123.47655,68,74,0
123.47655,123.62655,71,75,0
123.62655,123.77655,74,76,0
123.77655,123.92655,62,77,0
123.92655,124.076546,74,78,0
123.77655,124.076546,35,77,0
123.77655,124.076546,47,77,0
124.076546,124.22655,64,80,0
124.22655,124.37655,69,81,0
124.37655,124.52655,73,82,0
124.52655,124.67655,76,83,0
124.67655,124.826546,64,84,0
124.826546,124.97655,76,85,0
124.67655,124.97655,37,84,0
124.67655,124.97655,49,84,0
124.97655,125.12662,66,60,0
125.12662,125.277,78,60,0
125.277,125.4278,74,60,0
125.4278,125.579056,71,60,0
125.579056,125.730804,66,60,0
125.730804,125.883,78,60,0
125.579056,125.883,38,60,0
125.579056,125.883,50,60,0
125.883,126.03579,68,60,0
126.03579,126.189476,74,60,0
126.189476,126.343864,71,60,0
126.343864,126.499084,68,60,0
126.499084,126.6552,62,60,0
126.6552,126.81217,74,60,0
126.499084,126.81217,40,60,0
126.499084,126.81217,52,60,0
126.81217,126.970184,73,60,0
126.970184,127.12877,74,60,0
126.81217,127.12877,45,60,0
127.12877,127.28684,57,60,0
127.12877,127.288086,76,60,0
127.288086,127.44822,74,60,0
127.44822,127.60797,57,60,0
127.44822,127.60924,73,60,0
127.60924,127.7382,74,60,0
127.771065,127.93397,73,60,0
127.93397,128.09851,69,60,0
127.771065,128.09851,57,60,0
128.09851,128.26434,73,60,0
128.26434,128.43172,76,60,0
128.43172,128.60075,81,60,0
128.60075,128.7367,79,60,0
128.77142,129.38681,38,79,0
129.38681,129.54066,42,60,0
129.54066,129.6945,40,60,0
129.6945,129.8159,38,60,0
128.77142,130.0022,66,60,0
128.77142,130.0022,78,60,0
130.0022,130.15485,67,60,0
130.0022,130.15485,79,60,0
130.30989,130.46254,69,60,0
130.30989,130.46254,81,60,0
130.61758,130.77022,69,60,0
130.61758,130.77022,81,60,0
130.61758,131.23297,40,79,0
131.23297,131.38681,43,60,0
131.38681,131.54065,42,60,0
131.54065,131.66205,40,60,0
130.92528,131.84834,61,79,0
130.92528,131.84834,73,79,0
131.84834,132.00099,61,60,0
131.84834,132.00099,73,60,0
132.15604,132.30869,62,60,0
132.15604,132.30869,74,60,0
132.46373,133.07912,43,79,0
133.07912,133.23296,46,60,0
133.23296,133.38681,45,60,0
133.38681,133.50821,43,60,0
132.46373,133.6945,64,60,0
132.46373,133.6945,76,60,0
133.6945,133.84714,64,60,0
133.6945,133.84714,76,60,0
134.0022,134.15483,66,60,0
134.0022,134.15483,78,60,0
134.30989,134.4626,64,60,0
134.30989,134.4626,76,60,0
134.30989,134.92792,42,79,0
134.92792,135.0836,45,60,0
135.0836,135.23975,43,60,0
135.23975,135.3634,42,60,0
134.61806,135.55426,62,79,0
134.61806,135.55426,74,79,0
135.55426,135.71149,64,60,0
135.55426,135.71149,76,60,0
135.87207,136.0311,66,60,0
135.87207,136.0311,78,60,0
136.19354,136.5006,66,60,0
136.19354,136.5006,78,60,0
136.5006,136.74402,64,63,0
136.5006,136.74402,76,63,0
136.80588,137.10973,32,65,0
136.80588,137.10973,44,65,0
137.10973,137.41225,66,67,0
137.10973,137.41225,78,67,0
137.41225,137.65245,64,69,0
137.41225,137.65245,76,69,0
137.7136,138.01408,33,71,0
137.7136,138.01408,45,71,0
138.01408,138.31407,69,73,0
138.01408,138.31407,81,73,0
138.31407,138.55315,68,75,0
138.31407,138.55315,80,75,0
138.61407,138.91408,35,77,0
138.61407,138.91408,47,77,0
138.91408,139.21408,71,80,0
138.91408,139.21408,83,80,0
139.21408,139.45314,69,82,0
139.21408,139.45314,81,82,0
139.51408,139.81407,37,84,0
139.51408,139.81407,49,84,0
139.81407,140.11453,70,60,0
139.81407,140.11453,82,60,0
140.11453,140.35507,71,60,0
140.11453,140.35507,83,60,0
140.4166,140.72054,38,60,0
140.4166,140.72054,50,60,0
140.72054,141.02701,73,60,0
140.72054,141.02701,85,60,0
141.02701,141.27347,74,60,0
141.02701,141.27347,86,60,0
141.33661,141.4915,68,60,0
141.33661,141.4915,80,60,0
141.33661,141.6497,40,60,0
141.33661,141.6497,52,60,0
141.6497,141.96742,45,60,0
141.96742,142.12747,57,60,0
142.29205,142.45628,57,60,0
141.6497,142.62515,71,60,0
141.6497,142.62515,83,60,0
142.62515,142.75928,69,60,0
142.62515,142.75928,81,60,0
142.62515,142.79416,57,60,0
143.71002,143.86386,60,60,0
143.86386,144.01772,63,60,0
144.01772,144.17155,66,60,0
144.17155,144.32541,63,60,0
143.71002,144.32541,57,79,0
144.32541,144.47925,66,60,0
144.32541,144.47925,60,60,0
144.47925,144.6331,63,60,0
144.47925,144.6331,59,60,0
144.6331,144.75449,57,60,0
144.6331,144.78694,60,60,0
144.78694,144.9408,63,60,0
144.9408,145.09464,66,60,0
145.09464,145.24849,63,60,0
145.24849,145.40233,66,60,0
145.40233,145.55617,63,60,0
145.55617,145.71002,59,60,0
145.71002,145.86386,64,60,0
145.86386,146.01772,67,60,0
146.01772,146.17155,64,60,0
145.55617,146.17155,43,79,0
146.17155,146.32541,67,60,0
146.17155,146.32541,47,60,0
146.32541,146.47925,64,60,0
146.32541,146.47925,45,60,0
146.47925,146.60065,43,60,0
146.47925,146.6331,59,60,0
146.6331,146.78694,64,60,0
146.78694,146.94078,67,60,0
146.94078,147.09464,64,60,0
147.09464,147.24847,59,60,0
147.24847,147.40233,64,60,0
147.40233,147.55617,58,60,0
147.55617,147.71002,61,60,0
147.71002,147.86386,64,60,0
147.86386,148.01772,61,60,0
147.40233,148.01772,55,79,0
148.01772,148.17155,64,60,0
148.01772,148.17155,58,60,0
148.17155,148.32541,61,60,0
148.17155,148.32541,57,60,0
148.32541,148.4468,55,60,0
148.32541,148.47925,58,60,0
148.47925,148.63309,61,60,0
148.63309,148.78694,64,60,0
148.78694,148.94078,61,60,0
148.94078,149.09464,64,60,0
149.09464,149.24847,61,60,0
149.24847,149.40239,57,60,0
149.40239,149.55664,62,60,0
149.55664,149.71133,66,60,0
149.71133,149.8665,62,60,0
149.24847,149.8665,42,79,0
149.8665,150.02219,57,60,0
149.8665,150.02219,45,60,0
150.02219,150.17834,62,60,0
150.02219,150.17834,43,60,0
150.17834,150.30199,42,60,0
150.17834,150.33513,57,60,0
150.33513,150.49286,62,60,0
150.49286,150.65132,66,60,0
150.65132,150.81065,69,60,0
150.81065,150.97093,62,60,0
150.97093,151.13214,74,60,0
151.13214,151.28587,62,60,0
151.28587,151.4392,67,62,0
151.4392,151.59204,71,63,0
151.59204,151.74448,74,64,0
151.74448,151.89655,73,65,0
151.89655,152.04832,74,66,0
151.74448,152.04832,35,65,0
151.74448,152.04832,47,65,0
152.04832,152.19978,62,67,0
152.19978,152.35083,74,68,0
152.35083,152.50163,73,69,0
152.50163,152.65219,74,70,0
152.65219,152.80252,73,71,0
152.80252,152.95267,74,72,0
152.65219,152.95267,33,71,0
152.65219,152.95267,45,71,0
152.95267,153.10268,62,73,0
153.10268,153.25267,67,74,0
153.25267,153.40268,71,75,0
153.40268,153.55267,74,76,0
153.55267,153.70267,73,77,0
153.70267,153.85268,74,78,0
153.55267,153.85268,31,77,0
153.55267,153.85268,43,77,0
153.85268,154.00267,69,80,0
154.00267,154.15268,74,81,0
154.15268,154.30267,69,82,0
154.30267,154.45267,66,83,0
154.45267,154.60268,62,84,0
154.60268,154.75267,60,85,0
154.45267,154.75267,30,84,0
154.45267,154.75267,42,84,0
154.75267,154.90274,59,60,0
154.90274,155.05313,71,60,0
155.05313,155.20393,67,60,0
155.20393,155.35518,64,60,0
155.35518,155.50693,59,60,0
155.50693,155.65912,71,60,0
155.35518,155.65912,31,60,0
155.35518,155.65912,43,60,0
155.65912,155.81192,55,60,0
155.81192,155.9656,67,60,0
155.9656,156.11998,64,60,0
156.11998,156.2752,61,60,0
156.2752,156.43132,55,60,0
156.43132,156.58829,67,60,0
156.2752,156.58829,33,60,0
156.2752,156.58829,45,60,0
156.58829,156.7463,66,60,0
156.7463,156.90489,67,60,0
156.58829,156.90489,38,60,0
156.90489,157.06296,50,60,0
156.90489,157.06421,69,60,0
157.06421,157.22435,67,60,0
157.22435,157.3841,50,60,0
157.22435,157.38536,66,60,0
157.38536,157.5472,67,60,0
157.5472,157.70882,66,60,0
157.5472,157.70882,50,60,0
157.87463,158.03917,69,60,0
157.87463,158.03917,81,60,0
158.20784,158.37555,69,60,0
158.20784,158.37555,81,60,0
158.54755,158.7002,69,60,0
158.54755,158.7002,81,60,0
158.54755,159.16293,57,79,0
159.16293,159.31679,60,60,0
159.31679,159.47063,59,60,0
159.47063,159.59203,57,60,0
158.85524,159.77832,63,79,0
158.85524,159.77832,75,79,0
159.77832,159.93097,64,60,0
159.77832,159.93097,76,60,0
160.08601,160.23866,66,60,0
160.08601,160.23866,78,60,0
160.3937,160.54634,66,60,0
160.3937,160.54634,78,60,0
160.3937,161.0091,43,79,0
161.0091,161.16293,47,60,0
161.16293,161.31679,45,60,0
161.31679,161.43817,43,60,0
160.7014,161.62447,64,79,0
160.7014,161.62447,76,79,0
161.62447,161.77711,66,60,0
161.62447,161.77711,78,60,0
161.93216,162.08481,67,60,0
161.93216,162.08481,79,60,0
162.23985,162.3925,67,60,0
162.23985,162.3925,79,60,0
162.23985,162.85524,55,79,0
162.85524,163.00908,59,60,0
163.00908,163.16293,57,60,0
163.16293,163.28433,55,60,0
162.54755,163.47063,61,79,0
162.54755,163.47063,73,79,0
163.47063,163.62328,62,60,0
163.47063,163.62328,74,60,0
163.77832,163.93095,64,60,0
163.77832,163.93095,76,60,0
164.08601,164.23872,64,60,0
164.08601,164.23872,76,60,0
164.08601,164.70404,42,79,0
164.70404,164.85973,45,60,0
164.85973,165.01587,43,60,0
165.01587,165.13953,42,60,0
164.39418,165.33038,62,79,0
164.39418,165.33038,74,79,0
165.33038,165.48761,64,60,0
165.33038,165.48761,76,60,0
165.6482,165.80722,66,60,0
165.6482,165.80722,78,60,0
165.96967,166.27672,69,60,0
165.96967,166.27672,81,60,0
166.27672,166.52014,67,60,0
166.27672,166.52014,79,60,0
166.582,166.88585,47,63,0
166.582,166.88585,59,63,0
166.88585,167.18837,67,65,0
166.88585,167.18837,79,65,0
167.18837,167.42859,66,67,0
167.18837,167.42859,78,67,0
167.48972,167.7902,45,70,0
167.48972,167.7902,57,70,0
167.7902,168.09021,70,72,0
167.7902,168.09021,82,72,0
168.09021,168.32927,71,74,0
168.09021,168.32927,83,74,0
168.3902,168.6902,43,77,0
168.3902,168.6902,55,77,0
168.6902,168.9902,73,79,0
168.6902,168.9902,85,79,0
168.9902,169.22926,74,81,0
168.9902,169.22926,86,81,0
169.2902,169.59021,42,84,0
169.2902,169.59021,54,84,0
169.59021,169.89066,75,60,0
169.59021,169.89066,87,60,0
169.89066,170.1312,76,60,0
169.89066,170.1312,88,60,0
170.19272,170.49666,43,60,0
170.19272,170.49666,55,60,0
170.49666,170.80313,74,60,0
170.49666,170.80313,86,60,0
170.80313,171.04959,73,60,0
170.80313,171.04959,85,60,0
171.11273,171.42583,45,60,0
171.11273,171.42583,57,60,0
171.42583,171.74307,38,60,0
171.74307,171.90233,50,60,0
172.06558,172.22794,50,60,0
171.42583,172.3944,76,60,0
171.42583,172.3944,88,60,0
172.3944,172.66246,74,60,0
172.3944,172.66246,86,60,0
172.3944,172.73198,50,60,0
173.44287,174.36594,62,60,0
173.44287,174.36594,65,60,0
173.44287,174.36594,50,60,0
173.44287,174.36594,53,60,0
174.36594,174.98132,67,60,0
174.36594,174.98132,70,60,0
174.36594,174.98132,55,60,0
174.36594,174.98132,58,60,0
174.98132,175.28902,65,68,0
174.98132,175.28902,69,68,0
174.98132,175.28902,53,68,0
174.98132,175.28902,57,68,0
175.28902,175.91136,64,71,0
175.28902,175.91136,67,71,0
175.28902,175.91136,52,71,0
175.28902,175.91136,55,71,0
175.91136,176.23102,62,79,0
175.91136,176.23102,65,79,0
175.91136,176.23102,50,79,0
175.91136,176.23102,53,79,0
176.23102,176.35242,57,82,0
176.23102,176.35242,61,82,0
176.23102,176.35242,64,82,0
176.23102,176.35242,45,82,0
176.23102,176.35242,49,82,0
176.23102,176.35242,52,82,0
177.1541,177.77129,81,85,0
177.77129,177.92705,85,80,0
177.92705,178.0828,83,78,0
178.0828,178.20659,81,77,0
179.03177,179.67892,81,68,0
179.67892,179.84329,84,62,0
179.84329,180.00766,83,61,0
180.00766,180.13889,81,59,0
181.01822,181.71568,81,50,0
181.71568,181.8942,84,50,0
181.8942,182.07271,82,50,0
182.07271,182.21599,81,50,0
183.17546,184.09853,65,60,0
183.17546,184.09853,69,60,0
183.17546,184.09853,53,60,0
183.17546,184.09853,57,60,0
184.09853,184.71391,70,53,0
184.09853,184.71391,74,53,0
184.09853,184.71391,58,53,0
184.09853,184.71391,62,53,0
184.71391,185.0216,69,48,0
184.71391,185.0216,72,48,0
184.71391,185.0216,57,48,0
184.71391,185.0216,60,48,0
185.0216,185.64397,67,45,0
185.0216,185.64397,70,45,0
185.0216,185.64397,55,45,0
185.0216,185.64397,58,45,0
185.64397,185.96361,65,40,0
185.64397,185.96361,69,40,0
185.64397,185.96361,53,40,0
185.64397,185.96361,57,40,0
185.96361,186.085,61,38,0
185.96361,186.085,64,38,0
185.96361,186.085,67,38,0
185.96361,186.085,49,38,0
185.96361,186.085,52,38,0
185.96361,186.085,55,38,0
186.88669,187.50656,79,60,0
187.50656,187.66367,82,60,0
187.66367,187.821,81,60,0
187.821,187.94623,79,60,0
188.79582,189.47917,79,50,0
189.47917,189.65573,82,50,0
189.65573,189.8346,80,50,0
189.8346,189.97806,79,50,0
190.9255,191.5409,79,49,0
191.5409,191.69473,82,60,0
191.69473,191.81734,80,63,0
191.84859,192.46397,79,65,0
192.46397,192.61781,82,76,0
192.61781,192.7404,80,78,0
192.77165,193.38704,79,81,0
193.38704,193.5409,82,92,0
193.5409,193.66348,80,94,0
193.69473,194.31012,79,97,0
194.31012,194.46396,82,107,0
194.46396,194.58656,80,110,0
194.61781,195.2332,64,113,0
195.2332,195.38704,61,113,0
195.38704,195.50964,63,113,0
194.61781,195.5409,70,113,0
194.61781,195.5409,79,113,0
195.5409,196.15627,64,127,0
196.15627,196.31012,61,113,0
196.31012,196.43271,63,113,0
195.5409,196.46396,70,127,0
195.5409,196.46396,79,127,0
196.46396,197.07935,64,127,0
197.07935,197.2332,61,113,0
197.2332,197.35579,63,113,0
196.46396,197.38704,70,127,0
196.46396,197.38704,79,127,0
197.38704,197.69473,64,127,0
197.69473,197.93993,61,113,0
198.00243,198.15506,61,113,0
197.38704,198.31012,70,127,0
197.38704,198.31012,79,127,0
198.31012,198.61781,58,127,0
198.61781,198.86299,64,113,0
198.92549,199.07814,64,113,0
198.31012,199.23318,66,127,0
198.31012,199.23318,78,127,0
199.23318,199.54088,62,127,0
199.54088,199.78607,59,113,0
199.84857,200.00122,59,113,0
199.23318,200.15627,66,127,0
199.23318,200.15627,78,127,0
200.15627,200.46396,56,127,0
200.46396,200.70915,62,113,0
200.77165,200.9243,62,113,0
200.15627,201.07935,64,127,0
200.15627,201.07935,76,127,0
201.07935,201.38704,60,127,0
201.38704,201.63223,57,113,0
201.69473,201.84737,57,113,0
201.07935,202.00243,64,127,0
201.07935,202.00243,76,127,0
202.00243,202.3101,53,127,0
202.3101,202.5553,57,113,0
202.6178,202.77045,57,113,0
202.00243,202.92549,62,127,0
202.00243,202.92549,74,127,0
202.92549,203.23903,53,127,0
203.23903,203.49944,57,113,0
203.56743,203.7363,57,113,0
202.92549,203.91212,63,127,0
202.92549,203.91212,75,127,0
203.91212,204.21982,62,113,0
203.91212,204.21982,74,113,0
203.91212,204.21982,40,113,0
204.21982,204.37247,52,50,0
204.52751,204.68016,52,50,0
204.8352,204.98785,52,50,0
205.1429,205.29553,52,50,0
205.45059,205.60323,52,50,0
205.75829,205.86044,64,60,0
205.75829,205.91092,52,50,0
205.86044,205.9626,68,60,0
205.9626,206.06596,71,60,0
206.06596,206.16814,76,60,0
206.06596,206.21861,52,50,0
206.16814,206.2703,80,60,0
206.2703,206.37366,83,60,0
206.37366,206.49506,88,60,0
206.37366,206.5263,52,50,0
205.75829,206.68135,50,50,0
206.68135,206.83423,88,60,0
206.68135,206.83423,52,50,0
206.99037,207.14516,88,60,0
206.99037,207.14516,52,50,0
207.30371,207.46136,88,60,0
207.30371,207.46136,52,50,0
206.68135,207.62337,47,50,0
207.62337,207.776,88,60,0
207.62337,207.776,52,50,0
207.62337,207.776,44,50,0
207.93105,208.0837,52,50,0
208.23874,208.39139,52,50,0
208.54643,208.69908,52,50,0
208.85413,209.00677,52,50,0
209.16182,209.31447,52,50,0
209.46951,209.57167,64,60,0
209.46951,209.62216,52,50,0
209.57167,209.67384,68,60,0
209.67384,209.7772,71,60,0
209.7772,209.87936,76,60,0
209.7772,209.92986,52,50,0
209.87936,209.98154,80,60,0
209.98154,210.0849,83,60,0
210.0849,210.20628,88,60,0
210.0849,210.23753,52,50,0
209.46951,210.3926,50,50,0
210.3926,210.54547,88,60,0
210.3926,210.54547,52,50,0
210.7016,210.85638,88,60,0
210.7016,210.85638,52,50,0
211.01494,211.17259,88,60,0
211.01494,211.17259,52,50,0
210.3926,211.3346,47,50,0
211.3346,211.48724,88,60,0
211.3346,211.48724,52,50,0
211.3346,211.48724,44,50,0
211.64229,211.79494,52,50,0
211.94998,212.10263,52,50,0
212.25768,212.41031,52,50,0
212.56537,212.718,52,50,0
212.87306,213.0257,52,50,0
213.18074,213.28291,64,50,0
213.18074,213.33339,52,43,0
213.28291,213.38507,68,50,0
213.38507,213.48843,71,50,0
213.48843,213.5906,76,50,0
213.48843,213.64108,52,43,0
213.5906,213.69276,80,50,0
213.69276,213.79613,83,50,0
213.79613,213.91753,88,50,0
213.79613,213.94878,52,43,0
213.18074,214.10382,50,50,0
214.10382,214.2567,88,50,0
214.10382,214.2567,52,43,0
214.41284,214.56763,88,50,0
214.41284,214.56763,52,43,0
214.72618,214.88383,88,50,0
214.72618,214.88383,52,43,0
214.10382,215.04582,47,50,0
215.04582,215.19847,88,50,0
215.04582,215.19847,52,43,0
215.04582,215.19847,44,50,0
215.66121,215.81506,64,49,0
215.81506,215.9689,63,55,0
215.9689,216.12408,64,61,0
216.12408,216.28409,63,67,0
216.28409,216.45065,64,73,0
216.45065,216.62589,63,79,0
216.62589,216.8125,64,85,0
216.8125,216.97191,63,91,0
217.014,217.24477,64,116,0
217.24477,217.32169,69,97,0
217.32169,217.44308,73,97,0
217.014,217.93707,45,69,0
217.014,217.93707,49,69,0
217.014,217.93707,52,69,0
217.014,217.93707,57,69,0
217.62938,218.24477,73,60,0
218.24477,218.36617,71,60,0
217.93707,218.55246,62,60,0
217.93707,218.55246,66,60,0
218.55246,218.86015,61,60,0
218.55246,218.86015,64,60,0
218.55246,219.16916,69,60,0
219.16916,219.29214,68,60,0
218.86015,219.4825,59,60,0
218.86015,219.4825,62,60,0
219.4825,219.64017,69,60,0
219.4825,219.80215,57,60,0
219.4825,219.80215,61,60,0
219.80215,219.92355,52,60,0
219.80215,219.92355,56,60,0
219.80215,219.92355,59,60,0
219.80215,219.9548,71,60,0
220.72523,221.34062,66,60,0
220.72523,221.34062,71,60,0
220.72523,221.34062,62,60,0
221.34062,221.64832,64,69,0
221.34062,221.64832,70,69,0
221.34062,221.64832,73,69,0
221.34062,221.64832,61,69,0
221.64832,222.2637,66,73,0
221.64832,222.2637,71,73,0
221.64832,222.2637,74,73,0
221.64832,222.2637,59,73,0
222.2637,222.57138,67,82,0
222.2637,222.57138,73,82,0
222.2637,222.57138,76,82,0
222.2637,222.57138,52,82,0
222.57138,223.20094,66,86,0
222.57138,223.20094,71,86,0
222.57138,223.20094,74,86,0
222.57138,223.20094,54,86,0
223.20094,223.53357,64,69,0
223.20094,223.53357,70,69,0
223.20094,223.53357,73,69,0
223.20094,223.53357,42,69,0
223.53357,223.66907,62,60,0
223.53357,223.66907,66,60,0
223.53357,223.66907,71,60,0
223.53357,223.66907,47,60,0
224.59564,225.51872,57,60,0
224.59564,225.51872,62,60,0
224.59564,225.51872,66,60,0
224.59564,225.51872,50,60,0
224.59564,225.51872,54,60,0
225.51872,226.13411,59,60,0
225.51872,226.13411,64,60,0
225.51872,226.13411,55,60,0
226.13411,226.4418,57,60,0
226.13411,226.4418,62,60,0
226.13411,226.4418,54,60,0
226.4418,227.06415,57,60,0
226.4418,227.06415,61,60,0
226.4418,227.06415,52,60,0
226.4418,227.06415,55,60,0
227.06415,227.3838,57,60,0
227.06415,227.3838,62,60,0
227.06415,227.3838,50,60,0
227.06415,227.3838,54,60,0
227.3838,227.5052,57,60,0
227.3838,227.5052,64,60,0
227.3838,227.5052,49,60,0
227.3838,227.5052,52,60,0
228.30688,228.92227,64,60,0
228.30688,229.22995,57,97,0
228.92227,229.22995,65,77,0
228.30688,229.22995,49,60,0
229.22995,229.35135,66,86,0
229.22995,229.35135,57,123,0
229.22995,229.84534,50,86,0
229.84534,230.15303,51,60,0
230.15303,230.7826,57,60,0
230.15303,230.7826,61,60,0
230.15303,230.7826,52,60,0
230.7826,231.11522,56,60,0
230.7826,231.11522,62,60,0
230.7826,231.11522,40,60,0
231.11522,231.25078,57,60,0
231.11522,231.25078,61,60,0
231.11522,231.25078,45,60,0
231.81677,232.41827,76,60,0
232.41827,232.4952,81,60,0
232.4952,232.6166,85,60,0
232.1875,233.11058,69,60,0
232.80289,233.41827,85,60,0
233.41827,233.53966,83,60,0
233.11058,233.72595,74,60,0
233.72595,234.03365,73,60,0
233.72595,234.34267,81,60,0
234.34267,234.46565,80,60,0
234.03365,234.656,71,60,0
234.656,234.81366,81,60,0
234.656,234.97566,69,60,0
234.97566,235.09705,64,60,0
234.97566,235.09705,68,60,0
234.97566,235.1283,83,60,0
235.89873,236.51411,83,60,0
235.89873,236.51411,62,60,0
235.89873,236.51411,71,60,0
236.51411,236.82181,85,71,0
236.51411,236.82181,61,71,0
236.51411,236.82181,70,71,0
236.82181,237.4372,86,76,0
236.82181,237.4372,59,76,0
236.82181,237.4372,71,76,0
237.4372,237.74489,88,105,0
237.4372,237.74489,64,105,0
237.4372,237.74489,71,105,0
237.74489,238.37445,86,86,0
237.74489,238.37445,66,86,0
237.74489,238.37445,71,86,0
238.37445,238.45613,86,69,0
238.45613,238.53877,85,67,0
238.53877,238.62242,83,65,0
238.62242,238.70708,85,63,0
238.37445,238.70708,66,69,0
238.37445,238.70708,70,69,0
238.70708,238.84264,83,60,0
238.70708,238.84264,59,60,0
238.70708,238.84264,71,60,0
239.9332,240.08705,57,83,0
240.08705,240.24089,62,83,0
240.24089,240.39473,66,83,0
240.39473,240.54858,69,83,0
240.54858,240.67117,74,83,0
239.77936,240.70242,50,83,0
239.77936,240.70242,54,83,0
240.70242,240.85628,71,83,0
240.85628,241.01012,70,83,0
241.01012,241.16397,73,83,0
241.16397,241.31781,71,83,0
240.70242,241.31781,55,83,0
240.70242,241.31781,59,83,0
241.31781,241.47166,69,83,0
241.47166,241.59425,71,83,0
241.31781,241.6255,54,83,0
241.31781,241.6255,57,83,0
241.6255,241.77942,67,83,0
241.77942,241.93367,66,83,0
241.93367,242.08836,69,83,0
242.08836,242.24353,67,83,0
241.6255,242.24353,52,83,0
241.6255,242.24353,55,83,0
242.24353,242.39922,66,83,0
242.39922,242.52365,67,83,0
242.24353,242.55537,50,83,0
242.24353,242.55537,54,83,0
242.55537,242.67902,49,83,0
242.55537,242.67902,52,83,0
242.55537,242.71216,64,83,0
242.71216,242.86987,69,83,0
242.86987,243.02834,68,83,0
243.02834,243.18768,69,83,0
243.18768,243.34796,64,83,0
243.34796,243.47638,61,83,0
243.50916,243.66301,57,83,0
243.66301,243.81685,59,85,0
243.81685,243.9707,57,88,0
243.9707,244.12454,69,90,0
244.12454,244.2784,68,92,0
244.2784,244.40099,69,94,0
243.50916,244.43224,37,83,0
243.50916,244.43224,49,83,0
244.43224,244.58607,69,96,0
244.58607,244.73993,71,98,0
244.73993,244.89377,69,100,0
244.89377,245.04762,81,102,0
244.43224,245.04762,38,96,0
244.43224,245.04762,50,96,0
245.04762,245.20146,80,104,0
245.20146,245.32407,81,107,0
245.04762,245.35532,39,104,0
245.04762,245.35532,51,104,0
245.35532,245.50964,73,60,0
245.50964,245.66566,69,60,0
245.66566,245.8239,64,60,0
245.35532,245.89143,40,60,0
245.35532,245.89143,52,60,0
245.8239,245.98488,61,60,0
245.98488,246.1492,62,60,0
246.1492,246.31749,68,60,0
245.98488,246.31749,40,60,0
246.31749,246.45276,61,60,0
246.31749,246.45276,69,60,0
246.31749,246.48758,33,60,0
246.31749,246.48758,45,60,0
247.34607,247.44823,64,97,0
247.44823,247.5504,69,97,0
247.5504,247.65376,73,97,0
247.65376,247.75592,76,97,0
247.75592,247.85808,81,97,0
247.85808,247.96146,85,97,0
247.96146,248.08284,88,97,0
248.26915,248.57683,88,97,0
248.57683,248.82202,86,97,0
248.88452,249.03717,83,116,0
248.88452,249.03717,56,79,0
248.88452,249.03717,59,79,0
248.88452,249.03717,62,79,0
248.88452,249.03717,64,79,0
249.19221,249.49991,84,97,0
249.49991,249.7451,85,97,0
249.8076,249.96025,81,116,0
249.8076,249.96025,57,79,0
249.8076,249.96025,61,79,0
249.8076,249.96025,64,79,0
250.1153,250.4243,82,97,0
250.4243,250.67355,83,97,0
250.73764,250.89531,76,116,0
250.73764,250.89531,52,79,0
250.73764,250.89531,56,79,0
250.73764,250.89531,59,79,0
250.73764,250.89531,64,79,0
251.98038,252.28807,32,60,0
251.98038,252.28807,44,60,0
252.28807,252.39023,52,60,0
252.39023,252.4924,59,60,0
252.4924,252.59576,62,60,0
252.59576,252.71715,64,79,0
252.90346,253.21115,33,60,0
252.90346,253.21115,45,60,0
253.21115,253.31331,52,60,0
253.31331,253.41547,57,60,0
253.41547,253.51884,61,60,0
253.51884,253.64023,64,79,0
253.82652,254.13689,40,60,0
254.13689,254.24168,52,60,0
254.24168,254.34761,56,60,0
254.34761,254.45609,59,60,0
254.45609,254.58545,64,79,0
254.78871,254.89088,64,97,0
254.78871,254.89088,52,97,0
254.89088,254.99304,69,97,0
254.89088,254.99304,57,97,0
254.99304,255.0964,72,97,0
254.99304,255.0964,60,97,0
255.0964,255.19856,76,97,0
255.0964,255.19856,64,97,0
255.19856,255.30074,81,97,0
255.19856,255.30074,69,97,0
255.30074,255.4041,84,97,0
255.30074,255.4041,72,97,0
255.4041,255.5255,88,97,0
255.4041,255.5255,76,97,0
255.71179,256.01947,88,97,0
255.71179,256.01947,76,97,0
256.01947,256.26468,86,97,0
256.01947,256.26468,74,97,0
256.32718,256.47983,83,116,0
256.32718,256.47983,71,116,0
256.63486,256.94257,83,97,0
256.63486,256.94257,71,97,0
256.94257,257.18774,84,97,0
256.94257,257.18774,72,97,0
257.25024,257.4029,81,116,0
257.25024,257.4029,69,116,0
257.55795,257.86694,82,97,0
257.55795,257.86694,70,97,0
257.86694,258.11618,83,97,0
257.86694,258.11618,71,97,0
258.1803,258.33795,76,116,0
258.1803,258.33795,64,116,0
259.42303,259.7307,32,60,0
259.42303,259.7307,44,60,0
259.7307,259.8329,52,60,0
259.8329,259.93503,59,60,0
259.93503,260.03842,62,60,0
260.03842,260.1598,64,79,0
260.3461,260.65378,33,60,0
260.3461,260.65378,45,60,0
260.65378,260.75595,52,60,0
260.75595,260.85812,57,60,0
260.85812,260.9615,60,60,0
260.9615,261.0829,64,79,0
261.26917,261.57953,40,60,0
261.57953,261.68433,52,60,0
261.68433,261.79025,56,60,0
261.79025,261.89874,59,60,0
261.89874,262.0281,64,79,0
262.23135,262.53906,71,60,0
262.23135,262.53906,59,60,0
262.53906,262.78424,72,60,0
262.53906,262.78424,60,60,0
262.84674,262.9994,69,60,0
262.84674,262.9994,57,60,0
263.15445,263.46344,70,60,0
263.15445,263.46344,58,60,0
263.46344,263.71268,71,60,0
263.46344,263.71268,59,60,0
263.7768,263.93445,64,60,0
263.7768,263.93445,52,60,0
264.09644,264.40414,45,50,0
264.09644,264.40414,57,50,0
264.40414,264.5063,64,50,0
264.5063,264.60846,69,50,0
264.60846,264.71182,72,50,0
264.71182,264.83322,76,50,0
265.01953,265.32864,40,50,0
265.01953,265.32864,52,50,0
265.32864,265.43234,64,50,0
265.43234,265.53668,68,50,0
265.53668,265.64294,71,50,0
265.64294,265.76865,76,50,0
265.96344,266.29254,71,50,0
266.29254,266.5627,72,50,0
266.63275,266.80627,72,50,0
266.9859,267.13974,57,43,0
267.13974,267.29358,60,43,0
267.29358,267.44742,64,43,0
267.44742,267.60126,60,43,0
267.60126,267.75513,57,43,0
266.9859,267.90897,72,50,0
267.75513,267.90897,60,43,0
267.90897,268.0628,53,43,0
268.0628,268.21664,57,43,0
268.21664,268.3705,62,43,0
268.3705,268.52435,57,43,0
268.52435,268.6782,53,43,0
267.90897,268.83203,74,50,0
268.6782,268.83203,57,43,0
268.83203,268.98587,55,43,0
268.98587,269.13974,59,43,0
269.13974,269.29358,62,43,0
269.29358,269.44742,59,43,0
269.44742,269.60126,55,43,0
268.83203,269.66257,67,50,0
269.71664,269.75513,74,50,0
269.60126,269.75513,59,43,0
269.75513,269.9092,52,43,0
269.75513,270.06412,72,50,0
269.9092,270.06412,55,43,0
270.06412,270.22012,60,43,0
270.06412,270.31335,71,50,0
270.22012,270.37747,55,45,0
270.37747,270.53513,72,55,0
270.37747,270.53638,52,48,0
270.53638,270.6971,55,50,0
270.6971,270.85095,53,53,0
270.85095,271.00482,57,55,0
271.00482,271.15866,62,58,0
271.15866,271.3125,57,60,0
271.3125,271.46634,53,63,0
270.6971,271.6202,74,60,0
271.46634,271.6202,57,66,0
271.6202,271.77405,55,68,0
271.77405,271.9279,59,64,0
271.9279,272.08173,65,60,0
272.08173,272.2356,59,55,0
272.2356,272.38943,55,51,0
271.6202,272.54327,79,76,0
272.38943,272.54327,59,47,0
272.54327,272.66467,76,50,0
272.54327,272.6971,48,43,0
272.6971,272.85095,60,43,0
272.85095,273.00482,59,43,0
273.00482,273.15866,60,43,0
273.15866,273.3125,59,43,0
273.3125,273.46634,60,43,0
273.46634,273.62067,59,43,0
273.46634,273.7767,80,50,0
273.62067,273.7767,60,43,0
273.7767,273.93494,59,43,0
273.7767,274.03012,81,50,0
273.93494,274.09592,60,43,0
274.09592,274.25894,81,50,0
274.09592,274.26022,59,43,0
274.26022,274.42853,60,43,0
274.42853,274.58237,53,43,0
274.58237,274.73624,57,43,0
274.73624,274.89008,60,43,0
274.89008,275.0439,57,43,0
275.0439,275.19775,53,43,0
274.42853,275.35162,81,50,0
275.19775,275.35162,57,43,0
275.35162,275.50546,50,43,0
275.50546,275.6593,53,43,0
275.6593,275.81314,59,43,0
275.81314,275.96698,53,43,0
275.96698,276.12085,50,43,0
275.35162,276.2747,83,50,0
276.12085,276.2747,53,43,0
276.2747,276.42853,52,43,0
276.42853,276.58237,56,43,0
276.58237,276.73624,59,43,0
276.73624,276.89008,56,43,0
276.89008,277.0439,52,43,0
276.2747,277.10522,76,50,0
277.1593,277.19775,83,50,0
277.0439,277.19775,56,43,0
277.19775,277.35184,49,43,0
277.19775,277.44373,81,60,0
277.35184,277.50677,52,43,0
277.50677,277.66278,57,43,0
277.50677,277.756,80,60,0
277.66278,277.8201,52,43,0
277.8201,277.97778,81,60,0
277.8201,277.97903,49,43,0
277.97903,278.13977,52,43,0
278.13977,278.2936,50,42,0
278.2936,278.44745,54,43,0
278.44745,278.60132,59,44,0
278.60132,278.75516,54,45,0
278.75516,278.909,50,46,0
278.13977,279.06284,83,59,0
278.909,279.06284,54,46,0
279.06284,279.2167,50,47,0
279.2167,279.37054,56,48,0
279.37054,279.52438,59,49,0
279.52438,279.67822,56,50,0
279.67822,279.83206,50,50,0
279.83206,279.98593,56,51,0
279.98593,280.13977,49,52,0
279.06284,280.2936,88,66,0
280.13977,280.2936,57,53,0
280.2936,280.44626,88,74,0
280.2936,280.44745,56,53,0
280.44745,280.60132,57,54,0
280.60132,280.75516,49,55,0
280.75516,280.909,58,56,0
280.909,281.06284,50,57,0
280.60132,281.21667,88,76,0
281.06284,281.21667,59,57,0
281.21667,281.37054,58,58,0
281.21667,281.46188,86,80,0
281.37054,281.52438,59,59,0
281.52438,281.67703,83,83,0
281.52438,281.67822,50,60,0
281.67822,281.83206,59,60,0
281.83206,281.98605,52,61,0
281.83206,282.14072,80,85,0
281.98605,282.14072,61,62,0
282.14072,282.29626,57,63,0
282.14072,282.38904,81,87,0
282.29626,282.45276,61,64,0
282.45276,282.6091,76,89,0
282.45276,282.61035,52,64,0
282.61035,282.7689,61,65,0
282.7689,282.9287,52,66,0
282.7689,283.0905,73,91,0
282.9287,283.0905,62,67,0
283.0905,283.2539,56,67,0
283.0905,283.3518,74,93,0
283.2539,283.41913,62,68,0
283.41913,283.5851,71,95,0
283.41913,283.58643,52,69,0
283.58643,283.7557,62,70,0
283.7557,283.85785,57,97,0
283.85785,283.96002,61,97,0
283.96002,284.0634,64,97,0
283.7557,284.0634,45,97,0
284.0634,284.16556,69,97,0
284.16556,284.26773,73,97,0
284.26773,284.3711,76,97,0
284.3711,284.4925,81,97,0
284.67877,285.29416,81,97,0
285.29416,285.4468,81,97,0
285.60184,285.704,38,116,0
285.704,285.80618,42,97,0
285.80618,285.90955,45,97,0
285.90955,286.01172,50,97,0
286.01172,286.11386,54,97,0
285.60184,286.21722,81,116,0
286.11386,286.21722,57,97,0
286.21722,286.33862,78,97,0
286.21722,286.33862,62,97,0
286.52493,286.67798,64,97,0
286.52493,286.8353,78,97,0
286.8353,287.0884,76,97,0
287.15387,287.315,62,97,0
287.15387,287.315,68,97,0
287.15387,287.315,52,97,0
287.4805,287.59064,57,97,0
287.4805,287.6456,45,97,0
287.59064,287.70233,61,97,0
287.70233,287.81638,64,97,0
287.81638,287.9302,69,97,0
287.9302,288.0451,73,97,0
288.0451,288.16248,76,97,0
288.16248,288.30185,81,97,0
288.51874,289.13412,81,97,0
289.13412,289.28674,81,97,0
289.4418,289.54398,38,116,0
289.54398,289.64612,42,97,0
289.64612,289.74948,45,97,0
289.74948,289.85312,50,97,0
289.85312,289.95673,54,97,0
289.4418,290.06155,81,116,0
289.95673,290.06155,57,97,0
290.06155,290.18643,78,97,0
290.06155,290.18643,62,97,0
291.3559,292.03275,81,60,0
292.03275,292.1694,78,60,0
293.4522,294.19775,69,50,0
294.19775,294.34866,66,50,0
295.36563,295.99268,69,60,0
295.99268,296.0696,74,60,0
296.0696,296.19098,78,60,0
295.7619,296.68497,62,60,0
295.7619,296.68497,66,60,0
296.3773,296.99268,78,60,0
296.99268,297.11407,76,60,0
296.68497,297.30035,67,60,0
296.68497,297.30035,71,60,0
297.30035,297.60806,66,60,0
297.30035,297.60806,69,60,0
297.30035,297.854,74,60,0
297.91708,298.07187,73,60,0
297.60806,298.2304,64,60,0
297.60806,298.2304,67,60,0
298.2304,298.38806,74,60,0
298.2304,298.55008,62,60,0
298.2304,298.55008,66,60,0
298.55008,298.678,61,60,0
298.55008,298.678,64,60,0
298.55008,298.71097,69,60,0
298.55008,298.71097,76,60,0
299.52304,300.13754,64,50,0
299.52304,300.13754,76,50,0
300.13754,300.4435,65,50,0
300.13754,300.4435,77,50,0
299.52304,300.4435,49,71,0
300.4435,300.5639,66,50,0
300.4435,300.5639,78,50,0
300.4435,301.05304,50,71,0
299.52304,301.25702,57,50,0
301.05304,301.29498,51,71,0
301.35666,301.9617,67,50,0
301.35666,301.9617,79,50,0
301.9617,302.26318,68,50,0
301.9617,302.26318,80,50,0
301.35666,302.26318,52,71,0
302.26318,302.3819,69,50,0
302.26318,302.3819,81,50,0
302.26318,302.86426,53,71,0
301.35666,303.0644,57,50,0
302.86426,303.10303,54,71,0
303.31342,303.46292,58,51,0
303.46292,303.61218,64,53,0
303.61218,303.76144,70,55,0
303.16388,303.76144,43,70,0
303.16388,303.76144,55,70,0
303.76144,303.91043,59,57,0
303.91043,304.02914,71,59,0
303.76144,304.05942,44,75,0
303.76144,304.05942,56,75,0
304.20816,304.3569,60,63,0
304.3569,304.5054,64,65,0
304.5054,304.65393,72,67,0
304.05942,304.65393,45,77,0
304.05942,304.65393,57,77,0
304.65393,304.80222,61,69,0
304.80222,304.92038,73,71,0
303.16388,304.9505,52,49,0
304.65393,304.9505,46,82,0
304.65393,304.9505,58,82,0
305.09857,305.24664,62,75,0
305.24664,305.39453,69,77,0
305.39453,305.5424,74,79,0
304.9505,305.5424,47,84,0
304.9505,305.5424,59,84,0
305.5424,305.6901,63,81,0
305.5424,305.77777,48,88,0
305.5424,305.77777,60,88,0
305.6901,305.80777,75,83,0
305.9853,306.13278,64,87,0
306.13278,306.28015,69,89,0
306.28015,306.4275,76,91,0
306.4275,306.57483,65,93,0
306.57483,306.69226,77,95,0
305.83777,306.7222,49,85,0
305.83777,306.7222,61,85,0
307.0163,307.16336,66,97,0
307.16336,307.28055,78,97,0
307.31042,307.4575,68,97,0
307.4575,307.57468,80,97,0
306.7222,307.60455,50,97,0
305.83777,307.60455,57,85,0
306.7222,307.60455,62,97,0
307.60455,307.7516,69,97,0
307.7516,307.86877,81,97,0
307.89865,308.04572,71,97,0
308.04572,308.1629,83,97,0
308.19278,308.33984,72,97,0
308.33984,308.45703,84,97,0
307.60455,308.48688,51,97,0
307.60455,308.48688,54,97,0
307.60455,308.48688,57,97,0
307.60455,308.48688,60,97,0
308.48688,308.6342,73,97,0
308.6342,308.75235,85,97,0
308.78253,308.93234,74,97,0
308.93234,309.05283,86,97,0
308.48688,309.39154,52,97,0
308.48688,309.39154,57,97,0
308.48688,309.39154,61,97,0
309.0837,309.70868,75,116,0
309.0837,309.70868,87,116,0
309.70868,309.97,76,97,0
309.70868,309.97,88,97,0
310.0379,310.20642,68,97,0
310.0379,310.20642,80,97,0
309.39154,310.3813,52,97,0
309.39154,310.3813,59,97,0
309.39154,310.3813,62,97,0
310.3813,310.53394,69,97,0
310.3813,310.53394,81,97,0
310.3813,310.53394,45,97,0
310.689,310.84164,57,97,0
310.99667,311.14932,57,97,0
311.30438,311.45703,57,60,0
311.61206,311.7647,57,60,0
311.30438,311.91977,62,60,0
311.30438,311.91977,66,60,0
311.91977,312.04117,61,60,0
311.91977,312.04117,64,60,0
311.91977,312.07242,57,60,0
312.22745,312.32962,64,97,0
312.32962,312.4318,68,60,0
312.4318,312.53516,71,60,0
312.53516,312.6373,76,60,0
312.6373,312.73947,80,60,0
312.73947,312.84283,83,60,0
312.84283,312.96423,88,60,0
313.15054,313.3034,88,60,0
313.45953,313.61432,88,60,0
313.7729,313.93054,88,60,0
312.22745,314.09253,45,83,0
312.22745,314.09253,47,83,0
312.22745,314.09253,50,83,0
312.22745,314.09253,56,83,0
314.09253,314.24518,88,60,0
314.09253,314.24518,45,60,0
314.09253,314.24518,49,60,0
314.09253,314.24518,52,60,0
314.09253,314.24518,57,60,0
314.40024,314.55286,57,60,0
314.70792,314.86057,57,60,0
315.01562,315.16824,57,60,0
315.3233,315.47595,57,60,0
315.01562,315.63098,62,60,0
315.01562,315.63098,66,60,0
315.63098,315.75238,61,60,0
315.63098,315.75238,64,60,0
315.63098,315.78363,57,60,0
315.9387,316.04086,64,97,0
316.04086,316.143,68,60,0
316.143,316.24637,71,60,0
316.24637,316.34854,76,60,0
316.34854,316.4507,80,60,0
316.4507,316.55408,83,60,0
316.55408,316.67548,88,60,0
316.86176,317.01465,88,60,0
317.17078,317.32556,88,60,0
317.4841,317.64178,88,60,0
315.9387,317.80377,45,83,0
315.9387,317.80377,47,83,0
315.9387,317.80377,50,83,0
315.9387,317.80377,56,83,0
317.80377,317.95642,88,60,0
317.80377,317.95642,45,60,0
317.80377,317.95642,49,60,0
317.80377,317.95642,52,60,0
317.80377,317.95642,57,60,0
318.11145,318.2641,57,60,0
318.41916,318.5718,57,60,0
318.72684,318.8795,57,60,0
319.03455,319.1872,57,60,0
318.72684,319.34222,74,60,0
318.72684,319.34222,78,60,0
319.34222,319.46362,73,60,0
319.34222,319.46362,76,60,0
319.34222,319.49487,57,60,0
319.64993,319.75208,64,97,0
319.75208,319.85425,68,60,0
319.85425,319.9576,71,60,0
319.9576,320.05978,76,60,0
320.05978,320.16193,80,60,0
320.16193,320.26532,83,60,0
320.26532,320.3867,88,60,0
320.573,320.726,88,60,0
320.8828,321.0389,88,60,0
321.19965,321.36047,88,60,0
319.64993,321.52695,45,83,0
319.64993,321.52695,47,83,0
319.64993,321.52695,50,83,0
319.64993,321.52695,56,83,0
321.52695,321.62912,76,60,0
321.52695,321.6796,45,60,0
321.52695,321.6796,49,60,0
321.52695,321.6796,52,60,0
321.52695,321.6796,57,60,0
321.62912,321.7313,81,60,0
321.7313,321.8343,85,60,0
321.8343,321.9552,88,60,0
322.14005,322.24118,73,60,0
322.24118,322.3422,76,60,0
322.3422,322.44437,81,60,0
322.44437,322.5644,85,60,0
322.7476,322.8478,69,60,0
322.8478,322.9478,73,60,0
322.9478,323.04892,76,60,0
323.04892,323.16742,81,60,0
323.34924,323.44894,64,59,0
323.34924,323.44894,52,59,0
323.44894,323.54813,69,61,0
323.44894,323.54813,57,61,0
323.54813,323.64847,73,62,0
323.54813,323.64847,61,62,0
323.64847,323.76605,76,63,0
323.64847,323.76605,64,63,0
323.94626,324.04495,61,66,0
323.94626,324.04495,49,66,0
324.04495,324.14365,64,67,0
324.04495,324.14365,52,67,0
324.14365,324.24353,69,68,0
324.14365,324.24353,57,68,0
324.24353,324.36047,73,69,0
324.24353,324.36047,61,69,0
324.53964,324.63776,57,72,0
324.53964,324.63776,45,72,0
324.63776,324.7358,61,73,0
324.63776,324.7358,49,73,0
324.7358,324.8349,64,74,0
324.7358,324.8349,52,74,0
324.8349,324.95123,69,75,0
324.8349,324.95123,57,75,0
325.12955,325.2272,52,78,0
325.12955,325.2272,40,78,0
325.2272,325.32532,57,79,0
325.2272,325.32532,45,79,0
325.32532,325.42505,61,80,0
325.32532,325.42505,49,80,0
325.42505,325.54282,64,82,0
325.42505,325.54282,52,82,0
325.72537,325.82642,49,85,0
325.72537,325.82642,37,85,0
325.82642,325.92822,52,86,0
325.82642,325.92822,40,86,0
325.92822,326.0316,57,87,0
325.92822,326.0316,45,87,0
326.0316,326.15424,61,88,0
326.0316,326.15424,49,88,0
326.3459,326.4525,45,91,0
326.3459,326.4525,33,91,0
326.4525,326.5603,49,92,0
326.4525,326.5603,37,92,0
326.5603,326.6707,52,93,0
326.5603,326.6707,40,93,0
326.6707,326.80212,57,94,0
326.6707,326.80212,45,94,0
327.00763,327.3166,38,97,0
327.00763,327.3166,42,97,0
327.00763,327.3166,47,97,0
327.00763,327.3166,50,97,0
327.3166,327.4205,54,97,0
327.4205,327.52484,59,97,0
327.52484,327.63132,62,97,0
327.63132,327.75742,66,97,0
327.9516,328.28146,40,97,0
327.9516,328.28146,47,97,0
327.9516,328.28146,50,97,0
327.9516,328.28146,52,97,0
328.28146,328.3933,68,97,0
328.3933,328.50644,71,97,0
328.50644,328.6225,74,97,0
328.6225,328.76028,80,97,0
328.97464,329.34085,33,97,0
328.97464,329.34085,37,97,0
328.97464,329.34085,40,97,0
328.97464,329.34085,45,97,0
329.34085,329.46683,76,97,0
329.46683,329.59573,81,97,0
329.59573,329.7277,85,97,0
329.7277,329.88593,88,97,0
330.13596,330.5645,81,97,0
331.3145,331.42166,81,97,0
