start_time,end_time,note_value,velocity,instrument_program_number
2.6388886,2.708333,67,60,40
2.708333,2.7777774,69,60,40
2.7777774,3.321759,70,60,40
7.0833325,7.152777,76,60,40
7.152777,7.2222214,77,60,40
7.2222214,7.834201,79,60,40
10.073784,10.190971,70,60,40
10.190971,10.425346,60,60,40
10.425346,10.649956,67,60,40
10.659721,11.011284,69,60,40
11.011284,11.128471,70,60,40
11.128471,12.056206,72,60,40
12.769096,13.003471,74,60,40
13.003471,13.237846,70,60,40
13.237846,13.472221,67,60,40
13.472221,13.931206,65,60,40
14.878471,15.230034,69,60,40
15.230034,15.347221,70,60,40
15.347221,15.581596,72,60,40
15.698784,15.815971,77,60,40
15.815971,16.050346,76,60,40
16.050346,16.274956,74,60,40
16.284721,16.519096,72,60,40
16.636284,16.753471,86,67,40
16.753471,16.987846,82,70,40
16.987846,17.222221,79,75,40
17.222221,17.456596,77,80,40
17.573784,17.690971,79,88,40
17.690971,17.940971,76,90,40
17.940971,18.197668,72,75,40
18.208828,18.698412,77,60,40
19.208828,20.198412,72,90,40
20.208828,21.198412,62,90,40
21.208828,22.198412,69,90,40
22.208828,23.198412,67,90,40
23.208828,24.198412,74,90,40
24.208828,25.198412,64,90,40
25.208828,26.198412,70,90,40
26.208828,27.198412,69,90,40
27.208828,28.269096,81,60,40
28.280256,29.446922,77,80,40
29.446922,29.608381,76,72,40
29.608381,29.764631,74,74,40
29.764631,29.920881,72,76,40
29.920881,30.077131,71,77,40
30.077131,30.233381,74,79,40
30.233381,30.389631,67,81,40
30.389631,30.545881,66,83,40
30.545881,30.702131,67,84,40
30.702131,30.858381,69,86,40
30.858381,31.014631,71,88,40
31.014631,31.170881,72,90,40
31.170881,31.327131,74,92,40
31.327131,31.483381,76,93,40
31.483381,31.639631,77,95,40
31.639631,31.806297,79,97,40
31.806297,31.982224,81,99,40
31.982224,32.155834,83,100,40
32.167408,32.656994,84,110,40
32.667408,33.042408,83,60,40
33.042408,33.156994,86,60,40
33.167408,33.531994,84,60,40
33.667408,34.031994,84,60,40
34.167408,36.542408,84,60,40
36.542408,36.656994,78,60,40
36.667408,37.031994,82,60,40
37.167408,37.531994,82,60,40
37.667408,38.031994,82,60,40
38.167408,40.656994,82,60,40
40.667408,41.042408,79,60,40
41.042408,41.156994,82,60,40
41.167408,41.531994,81,60,40
41.667408,42.031994,81,60,40
42.167408,42.656994,81,60,40
42.667408,43.042408,64,60,40
43.042408,43.156994,67,60,40
43.167408,43.531994,65,60,40
43.667408,44.031994,65,60,40
47.203125,48.418633,79,60,40
48.43222,49.609955,72,60,40
49.61972,49.854095,77,60,40
49.854095,50.08847,76,60,40
50.08847,50.322845,77,60,40
50.322845,50.48886,72,60,40
50.55722,50.791595,74,60,40
50.791595,51.02597,69,60,40
51.02597,51.260345,70,60,40
51.260345,51.437428,69,60,40
51.510345,51.760345,82,60,40
51.760345,52.028202,77,60,40
52.028202,52.3282,79,60,40
52.3282,52.80281,81,60,40
56.224182,57.410538,74,60,40
57.420303,57.65468,79,60,40
57.65468,57.889053,78,60,40
57.889053,58.12343,79,60,40
58.12343,58.289444,78,60,40
58.357803,58.59218,79,60,40
58.59218,58.826553,74,60,40
58.826553,59.06093,76,60,40
59.06093,59.226944,74,60,40
59.295303,59.52968,76,60,40
59.52968,59.764053,71,60,40
59.764053,59.99843,72,60,40
59.99843,60.232803,74,60,40
60.232803,60.46718,71,60,40
60.46718,60.633194,74,60,40
60.701553,60.86757,74,60,40
60.93593,61.170303,74,60,40
61.170303,61.40468,71,60,40
61.40468,61.629288,79,60,40
61.75624,61.863663,79,60,40
61.87343,62.801163,79,60,40
62.81093,63.738663,78,60,40
63.74843,63.982803,62,60,40
63.982803,64.21718,55,60,40
64.21718,64.383194,62,60,40
64.45155,64.61757,62,60,40
64.68593,64.9203,62,60,40
64.9203,65.15468,59,60,40
65.15468,65.37929,65,60,40
65.50624,65.61366,65,60,40
65.62343,66.55116,65,60,40
66.56093,67.72304,64,60,40
67.7328,67.96718,64,60,40
67.96718,68.133194,76,66,40
68.20155,68.36757,76,69,40
68.43593,68.6703,76,72,40
68.6703,68.90468,64,75,40
68.90468,69.12929,76,78,40
69.25624,69.36366,76,83,40
69.37343,70.07655,76,85,40
70.07655,70.30116,73,94,40
70.31093,70.5453,76,97,40
70.5453,70.77968,74,100,40
70.77968,71.02968,83,90,40
71.02968,71.22644,81,80,40
71.30746,71.55746,74,60,40
71.55746,71.78207,72,60,40
71.79183,72.02621,81,60,40
72.02621,72.25082,79,60,40
72.26058,72.49496,72,60,40
72.49496,72.71957,71,60,40
72.72933,72.97933,81,60,40
72.97933,73.23603,79,60,40
73.24719,77.00305,79,110,40
77.01282,77.354614,79,60,40
77.48157,77.823364,83,68,40
77.95032,78.292114,86,76,40
78.41907,78.760864,89,85,40
78.88782,79.229614,88,93,40
79.35657,79.698364,91,102,40
79.82532,80.75305,96,110,40
82.16907,82.31555,88,110,40
82.32532,82.4718,86,110,40
82.48157,82.62805,84,110,40
82.63782,82.7843,89,110,40
82.79407,82.94055,86,110,40
82.95032,83.0968,83,110,40
83.10657,83.25305,77,110,40
83.26282,83.4093,74,110,40
83.41907,83.56555,71,110,40
83.57532,83.726524,67,110,40
83.7366,83.88782,71,100,40
83.897896,84.0491,74,90,40
84.05918,84.21543,79,80,40
84.22585,84.390205,83,70,40
84.40178,84.575386,86,60,40
84.58696,84.748604,89,50,40
84.75938,84.91394,86,50,40
84.923706,85.07019,83,50,40
85.079956,85.22644,79,50,40
85.236206,85.38269,84,50,40
85.392456,85.53894,88,50,40
85.548706,85.69519,88,50,40
85.704956,85.85144,84,50,40
85.861206,86.00769,81,50,40
86.017456,86.16394,77,50,40
86.173706,86.32019,82,50,40
86.329956,86.47644,86,50,40
86.486206,86.63269,86,50,40
86.642456,86.78894,83,50,40
86.798706,86.94519,80,50,40
86.954956,87.10144,76,50,40
87.111206,87.25769,81,50,40
87.267456,87.41394,84,50,40
87.423706,87.57492,84,50,40
87.585,87.736206,81,50,40
87.746284,87.8975,78,50,40
87.90758,88.069214,83,50,40
88.079994,88.247215,79,50,40
88.25879,88.4324,74,50,40
88.44398,88.93356,84,60,40
88.94398,89.40296,79,70,40
89.41273,89.754524,84,80,40
89.88148,90.223274,81,70,40
90.35023,91.74671,79,60,40
91.75648,91.99085,81,60,40
91.99085,92.21546,83,60,40
92.22523,92.68421,84,65,40
92.69398,93.15296,86,69,40
93.16273,93.504524,88,73,40
93.63148,93.973274,88,77,40
94.10023,94.55921,88,82,40
94.56898,95.02796,86,86,40
95.03773,95.51151,84,90,40
95.5216,96.04615,81,80,40
96.05731,96.30731,81,50,40
96.30731,96.47333,80,50,40
96.54169,96.7077,80,50,40
96.77606,96.94208,81,50,40
97.01044,97.24481,81,50,40
97.24481,97.41083,79,50,40
97.47919,97.6452,79,50,40
97.71356,97.87958,79,50,40
97.94794,98.18231,79,50,40
98.18231,98.34833,76,50,40
98.41669,98.5827,76,50,40
98.65106,98.81708,77,50,40
98.88544,99.05681,77,50,40
99.12737,99.298744,78,50,40
99.36931,99.54639,78,50,40
99.61931,99.80904,79,50,40
99.88716,100.065735,81,50,40
100.065735,100.22338,80,50,40
100.23315,100.37963,80,50,40
100.3894,100.54565,80,50,40
100.54565,100.69213,81,50,40
100.7019,100.84838,81,50,40
100.85815,101.0144,81,50,40
101.0144,101.16088,80,50,40
101.17065,101.31713,80,50,40
101.3269,101.48315,80,50,40
101.48315,101.62963,79,50,40
101.6394,101.78588,79,50,40
101.79565,101.9519,79,55,40
101.9519,102.09838,76,61,40
102.10815,102.25463,77,67,40
102.2644,102.42065,77,74,40
102.42065,102.56713,78,80,40
102.5769,102.72338,79,70,40
102.73315,102.89443,79,60,40
102.89443,103.055725,81,60,40
103.055725,103.21702,79,60,40
103.21702,103.38368,77,60,40
103.38368,103.556305,76,60,40
103.556305,103.73487,74,60,40
103.73487,104.692535,72,60,40
104.702614,104.86391,71,76,40
104.86391,105.02519,81,79,40
105.02519,105.186485,79,82,40
105.186485,105.34778,77,85,40
105.34778,105.50906,76,88,40
105.50906,105.67036,74,90,40
105.67036,106.02318,72,60,40
106.15423,106.50705,74,60,40
106.6381,106.99092,67,60,40
107.76713,107.92842,79,62,40
107.92842,108.08971,77,64,40
108.08971,108.251,76,66,40
108.251,108.412285,74,68,40
108.412285,108.57358,72,71,40
108.57358,108.73487,71,73,40
108.73487,108.89616,81,75,40
108.89616,109.05745,79,77,40
109.05745,109.21874,77,79,40
109.21874,109.38003,76,82,40
109.38003,109.54132,74,84,40
109.54132,109.89414,72,86,40
110.02519,110.37801,86,93,40
110.50906,110.861885,79,100,40
110.99293,111.398285,83,110,40
111.56079,112.019775,85,110,40
112.84985,112.96704,76,60,40
112.96704,113.201416,69,60,40
113.201416,113.43579,73,60,40
113.43579,113.894775,74,60,40
114.84204,115.301025,65,60,40
115.31079,115.769775,64,60,40
116.59985,116.71704,88,60,40
116.71704,116.951416,81,60,40
116.951416,117.18579,85,60,40
117.18579,117.644775,86,60,40
118.62329,119.77864,59,60,40
128.74115,129.73073,79,60,40
129.74115,130.73073,69,60,40
130.74115,131.73073,76,60,40
131.74115,132.73073,74,60,40
132.74115,133.73073,81,60,40
133.74115,134.73073,71,60,40
134.74115,135.73073,77,60,40
135.74115,136.73073,75,60,40
139.74115,139.8974,67,60,40
139.9078,140.06406,70,60,40
140.07448,140.23073,73,60,40
140.24115,140.3974,79,60,40
140.4078,140.56406,82,60,40
140.57448,140.73073,85,60,40
140.74115,141.23073,85,60,40
141.61615,141.67865,84,60,40
141.67865,141.74115,85,60,40
141.74115,142.73073,87,60,40
142.74115,143.61615,82,60,40
143.61615,143.73073,84,60,40
143.74115,144.73073,80,60,40
147.74115,147.8974,70,60,40
147.9078,148.06406,73,60,40
148.07448,148.23073,77,60,40
148.24115,148.3974,82,60,40
148.4078,148.56406,85,60,40
148.57448,148.73073,89,60,40
148.74115,149.23073,89,60,40
149.74115,150.73073,75,60,40
150.74115,151.60573,82,60,40
151.61615,151.67865,84,60,40
151.67865,151.74115,85,60,40
151.74115,152.73073,87,60,40
152.74115,153.49115,82,72,40
153.49115,153.61615,84,82,40
153.61615,153.67865,81,83,40
153.67865,153.74115,82,84,40
153.74115,154.66888,84,85,40
154.67865,155.49896,70,98,40
154.67865,155.49896,79,98,40
155.49896,155.60638,72,109,40
155.49896,155.60638,81,109,40
155.61615,155.85052,72,110,40
155.61615,155.85052,81,110,40
155.96771,156.0849,84,110,40
156.0849,156.3349,77,110,40
156.3349,156.61267,81,110,40
156.61267,157.15665,84,110,40
160.88785,161.00504,75,60,40
161.00504,161.23941,65,60,40
161.23941,161.47379,72,60,40
161.47379,161.82535,74,70,40
161.82535,161.94254,75,81,40
161.94254,162.76285,77,110,40
162.76285,162.88004,79,110,40
162.88004,163.11441,72,110,40
163.11441,163.34879,76,110,40
163.34879,163.80777,79,110,40
164.63785,164.75504,67,60,40
164.75504,164.98941,60,60,40
164.98941,165.22379,64,60,40
165.22379,165.45816,65,60,40
165.57535,165.69254,69,60,40
165.69254,165.92691,60,60,40
165.92691,166.16129,65,60,40
166.16129,166.39566,67,60,40
166.51285,166.63004,70,60,40
166.63004,166.86441,60,60,40
166.86441,167.09879,67,60,40
167.09879,167.45035,69,60,40
167.45035,167.56754,70,60,40
167.56754,168.55711,72,60,40
169.06754,169.44254,69,60,40
169.44254,169.56754,70,60,40
169.56754,170.75504,72,60,40
171.36754,171.81754,69,60,40
171.81754,171.96753,71,60,40
171.96753,172.50162,72,60,40
172.51299,172.88799,72,60,40
172.88799,173.01299,74,60,40
173.01299,173.50256,76,60,40
173.51299,173.66924,72,60,40
173.67966,173.83134,74,60,40
173.84111,173.9876,76,60,40
173.99736,174.14384,76,60,40
174.15361,174.3001,76,60,40
174.30986,174.45634,76,60,40
174.46611,174.6126,74,60,40
174.62236,174.76884,72,60,40
174.77861,174.9251,71,60,40
174.93486,175.08134,71,60,40
175.09111,175.2376,71,60,40
175.24736,175.39384,71,60,40
175.40361,175.5501,72,60,40
175.55986,175.70634,71,60,40
175.71611,175.8626,69,60,40
175.87236,176.01884,71,60,40
176.02861,176.1751,69,60,40
176.18486,176.33134,68,60,40
176.34111,176.4876,69,60,40
176.49736,176.64384,73,60,40
176.65361,176.8001,74,60,40
176.80986,176.95634,76,60,40
176.96611,177.1126,77,60,40
177.12236,177.26884,79,60,40
177.27861,177.6204,77,60,40
177.74736,178.08916,86,60,40
178.21611,178.5579,81,60,40
178.68486,179.02666,85,60,40
179.15361,179.4954,86,60,40
179.62236,179.96416,81,60,40
180.09111,180.4329,86,60,40
181.38017,181.43877,83,60,40
181.43877,181.49736,84,60,40
181.49736,181.95634,86,60,40
182.31767,182.37627,81,60,40
182.37627,182.43486,84,60,40
182.43486,182.89384,86,60,40
183.25517,183.31377,74,60,40
183.31377,183.37236,84,60,40
183.37236,183.83134,86,60,40
184.19267,184.25127,74,60,40
184.25127,184.30986,83,60,40
184.30986,184.76884,86,60,40
184.77861,184.9251,83,60,40
184.93486,185.08134,81,60,40
185.09111,185.2376,79,60,40
185.24736,185.39384,78,60,40
185.40361,185.5501,79,60,40
185.55986,185.70634,81,60,40
185.71611,185.8626,79,60,40
185.87236,186.01884,81,60,40
186.02861,186.1751,83,60,40
186.18486,186.33134,83,60,40
186.34111,186.4876,81,60,40
186.49736,186.64384,79,60,40
186.65361,186.8001,86,60,40
186.80986,186.95634,84,60,40
186.96611,187.1126,83,60,40
187.12236,187.26884,81,60,40
187.27861,187.4251,83,60,40
187.43486,187.58134,84,60,40
187.59111,187.7376,83,60,40
187.74736,187.89384,84,60,40
187.90361,188.0501,86,60,40
188.05986,188.20634,86,60,40
188.21611,188.3626,84,60,40
188.37236,188.51884,83,60,40
188.52861,188.6751,67,60,40
188.68486,188.83134,62,60,40
188.84111,188.9876,64,60,40
188.99736,189.14384,65,60,40
189.15361,189.3001,64,60,40
189.30986,189.45634,62,60,40
189.46611,189.6126,64,60,40
189.62236,189.76884,62,60,40
189.77861,189.9251,60,60,40
189.93486,190.08134,60,60,40
190.09111,190.2376,62,60,40
190.24736,190.39384,64,60,40
190.40361,190.5501,79,60,40
190.55986,190.70634,77,60,40
190.71611,190.8626,76,60,40
190.87236,191.01884,74,60,40
191.02861,191.1751,76,60,40
191.18486,191.33134,77,60,40
191.34111,191.4876,76,60,40
191.49736,191.64384,77,60,40
191.65361,191.8001,79,60,40
191.80986,191.95634,79,60,40
191.96611,192.1126,77,60,40
192.12236,192.26884,76,60,40
192.27861,192.4251,88,60,40
192.43486,192.58134,86,62,40
192.59111,192.7376,84,64,40
192.74736,192.89384,83,66,40
192.90361,193.0501,84,68,40
193.05986,193.20634,86,70,40
193.21611,193.3626,84,72,40
193.37236,193.51884,86,74,40
193.52861,193.6751,88,76,40
193.68486,193.83134,88,79,40
193.84111,193.9876,86,81,40
193.99736,194.14384,84,83,40
194.15361,194.3001,91,85,40
194.30986,194.45634,89,87,40
194.46611,194.6126,88,89,40
194.62236,194.76884,86,91,40
194.77861,194.9251,88,93,40
194.93486,195.08134,89,96,40
195.09111,195.2376,88,98,40
195.24736,195.39384,89,100,40
195.40361,195.5501,91,102,40
195.55986,195.71611,91,104,40
195.72653,195.89737,93,106,40
195.90987,196.09737,94,108,40
196.10986,196.60233,94,110,40
197.08084,198.47733,82,125,40
198.48709,198.83865,77,110,40
198.83865,198.95584,79,110,40
198.95584,199.41483,76,110,40
201.1824,201.29959,67,60,40
201.29959,201.53397,60,60,40
201.53397,201.76834,64,60,40
201.76834,202.00272,65,60,40
202.1199,202.23709,69,60,40
202.23709,202.47147,60,60,40
202.47147,202.70584,65,60,40
202.70584,202.94022,67,60,40
203.0574,203.17459,70,60,40
203.17459,203.40897,60,60,40
203.40897,203.64334,67,60,40
203.64334,203.9949,69,60,40
203.9949,204.11209,70,60,40
204.11209,204.80545,72,60,40
204.81522,205.04959,77,60,40
205.04959,205.28397,76,60,40
205.28397,205.51834,74,60,40
205.51834,205.68436,72,60,40
205.75272,205.98709,74,60,40
205.98709,206.22147,70,60,40
206.22147,206.45584,67,60,40
206.45584,206.62186,65,60,40
206.69022,206.92459,67,60,40
206.92459,207.15897,64,60,40
207.15897,207.39334,60,60,40
207.39334,207.7449,69,70,40
207.7449,207.86209,70,92,40
207.86209,208.78983,72,100,40
209.6199,209.73709,86,60,40
209.73709,209.97147,82,60,40
209.97147,210.20584,79,60,40
210.20584,210.44778,77,60,40
210.56874,210.68971,79,60,40
210.68971,210.94833,76,60,40
210.94833,211.24834,72,60,40
211.24834,211.83583,77,60,40
212.44833,212.90732,71,60,40
212.91708,213.37607,72,60,40
213.38583,213.84482,61,60,40
213.85458,214.31357,62,60,40
214.32333,214.78232,69,60,40
214.79208,215.25107,70,60,40
215.26083,215.71982,69,60,40
215.72958,216.18857,67,60,40
216.19833,216.65732,73,60,40
216.66708,217.12607,74,60,40
217.13583,217.59482,63,60,40
217.60458,218.06357,64,60,40
218.07333,218.53232,72,60,40
218.54208,219.01587,70,60,40
219.02596,219.51553,70,60,40
219.52596,220.0505,69,60,40
223.87418,224.33316,78,60,40
224.34293,224.80191,79,60,40
224.81168,225.27066,68,60,40
225.28043,225.73941,69,60,40
225.74918,226.20816,77,60,40
226.21793,226.67691,75,60,40
226.68668,227.14566,75,60,40
227.15543,227.61441,74,60,40
227.62418,228.08316,77,63,40
228.09293,228.55191,75,66,40
228.56168,229.02066,75,70,40
229.03043,229.48941,74,73,40
229.49918,229.95816,84,76,40
229.96793,230.42691,82,80,40
230.43668,230.89566,81,83,40
230.90543,231.53043,79,87,40
231.53043,231.68668,77,91,40
231.68668,231.84293,75,92,40
231.84293,231.99918,74,93,40
231.99918,232.15543,72,95,40
232.15543,232.30191,75,96,40
232.31168,232.46793,70,97,40
232.46793,232.62418,69,98,40
232.62418,232.78043,72,99,40
232.78043,232.93668,65,100,40
232.93668,233.09293,69,101,40
233.09293,233.24918,70,103,40
233.24918,233.41046,72,104,40
233.41046,233.57175,74,105,40
233.57175,233.73305,75,106,40
233.73305,233.90546,77,107,40
233.90546,234.08781,79,108,40
234.08781,234.2681,81,109,40
234.28012,234.6447,82,110,40
234.78012,235.15512,81,60,40
235.15512,235.28012,84,60,40
235.28012,235.6447,82,60,40
235.78012,236.1447,82,60,40
236.28012,238.7697,82,60,40
238.78012,239.15512,79,60,40
239.15512,239.28012,82,60,40
239.28012,239.6447,81,60,40
239.78012,240.17075,80,60,40
240.31584,241.30542,74,60,40
241.31584,242.30542,79,60,40
242.31584,243.49358,72,60,40
243.50334,243.73772,77,60,40
243.73772,243.97209,76,60,40
243.97209,244.20647,77,60,40
244.20647,244.37248,72,60,40
244.44084,244.67522,74,60,40
244.67522,244.90959,69,60,40
244.90959,245.14397,70,60,40
245.14397,245.30998,69,60,40
245.37834,245.61272,70,60,40
245.61272,245.84709,65,60,40
245.84709,246.08147,67,60,40
246.08147,246.24748,69,60,40
246.31584,246.48186,69,60,40
246.55022,246.71623,69,60,40
246.78459,246.9506,69,60,40
247.01897,247.47795,69,60,40
249.12834,249.36272,69,60,40
249.36272,249.59709,65,60,40
249.59709,249.8217,67,60,40
249.83147,250.06584,67,60,40
250.06584,250.30022,64,60,40
250.30022,250.46623,67,60,40
250.53459,250.7006,67,60,40
250.76897,251.00334,67,60,40
251.00334,251.23772,64,60,40
251.23772,251.47209,72,60,40
251.58928,251.6967,72,60,40
251.70647,252.6342,72,60,40
252.64397,253.5717,71,60,40
253.81584,254.05022,60,60,40
254.05022,254.21623,67,60,40
254.28459,254.4506,67,60,40
254.51897,254.75334,67,60,40
254.75334,254.98772,60,60,40
254.98772,255.22209,70,60,40
255.33928,255.4467,70,60,40
255.45647,256.3842,70,60,40
256.39395,257.55606,69,60,40
257.56583,257.8002,60,64,40
257.8002,257.96622,69,68,40
258.03458,258.2006,69,72,40
258.26895,258.43497,69,76,40
258.50333,258.7377,69,81,40
258.7377,258.97208,81,85,40
259.08926,259.1967,81,91,40
259.20645,260.37833,81,93,40
260.37833,260.6127,79,98,40
260.6127,260.84708,88,85,40
260.84708,261.08145,86,73,40
261.08145,261.31583,79,60,40
261.31583,261.5502,77,60,40
261.5502,261.78458,86,60,40
261.78458,262.01895,84,60,40
262.01895,262.2609,77,60,40
262.2609,262.50284,76,60,40
262.50284,262.76144,86,60,40
262.76144,263.02765,84,60,40
263.03925,265.38885,84,100,40
265.39862,265.74042,88,96,40
265.86737,266.20917,91,103,40
266.33612,266.7134,94,110,40
266.8639,267.2213,72,61,40
267.34827,267.69006,76,68,40
267.81702,268.1588,79,76,40
268.28577,268.62756,82,85,40
268.75452,269.0963,81,93,40
269.22327,269.56506,84,102,40
269.69202,272.09073,89,125,40
272.1005,272.24698,86,110,40
272.25674,272.40323,84,110,40
272.413,272.55948,82,110,40
272.56924,272.71573,87,110,40
272.7255,272.87198,84,110,40
272.88174,273.02823,81,110,40
273.038,273.18448,75,110,40
273.19424,273.34073,72,110,40
273.3505,273.49698,69,110,40
273.50674,273.96573,65,110,40
274.44424,274.78604,77,110,40
274.913,275.2548,81,110,40
275.38174,275.72354,84,110,40
275.8505,276.1923,87,110,40
276.31924,276.66104,86,110,40
276.788,277.1298,89,110,40
277.25674,278.34073,94,110,40
278.3505,278.49698,79,110,40
278.50674,278.65323,76,110,40
278.663,278.80948,70,110,40
278.81924,278.96573,67,110,40
278.9755,279.12198,64,110,40
279.13174,279.28296,58,110,40
279.29303,279.44424,64,100,40
279.4543,279.60553,67,90,40
279.6156,279.77185,70,80,40
279.7823,279.94373,76,70,40
279.9549,280.1223,79,60,40
280.13345,280.2897,82,50,40
280.30014,280.4518,79,50,40
280.46158,280.60806,76,50,40
280.61783,280.7643,72,50,40
280.77408,280.92056,77,50,40
280.93033,281.0768,81,50,40
281.08658,281.23306,81,50,40
281.24283,281.3893,77,50,40
281.39908,281.54556,74,50,40
281.55533,281.7018,70,50,40
281.71158,281.85806,75,50,40
281.86783,282.0143,79,50,40
282.02408,282.17056,79,50,40
282.18033,282.3268,76,50,40
282.33658,282.48306,73,50,40
282.49283,282.6393,69,50,40
282.64908,282.79556,74,50,40
282.80533,282.9518,77,50,40
282.96158,283.10806,77,50,40
283.11783,283.2643,74,50,40
283.27408,283.42056,71,50,40
283.43033,283.58658,76,50,40
283.59702,283.76135,72,50,40
283.77295,283.94653,67,50,40
283.95813,284.43192,77,60,40
284.442,284.91577,72,80,40
284.92587,285.2787,77,70,40
285.40973,285.76254,74,60,40
285.89362,287.33514,72,50,40
287.3452,287.58716,74,50,40
287.58716,287.819,76,50,40
287.82907,288.3029,77,55,40
288.31296,288.78674,79,60,40
288.7968,289.14966,81,66,40
289.2807,289.6335,81,72,40
289.76456,290.23834,81,78,40
290.24844,290.72223,79,84,40
290.7323,291.2219,77,90,40
291.2323,291.77628,74,70,40
291.78787,292.03787,74,50,40
292.03787,292.2039,73,50,40
292.27225,292.43826,73,50,40
292.50662,292.67264,74,50,40
292.741,292.97537,74,50,40
292.97537,293.1414,72,50,40
293.20975,293.37576,72,50,40
293.44412,293.61014,72,50,40
293.6785,293.91287,72,50,40
293.91287,294.0789,69,50,40
294.14725,294.31326,69,50,40
294.38162,294.54764,70,50,40
294.616,294.782,70,50,40
294.85037,295.0164,71,50,40
295.08475,295.2618,71,50,40
295.33475,295.5315,72,50,40
295.61252,295.78613,72,50,40
295.7977,295.95865,73,50,40
295.9684,296.1149,73,50,40
296.12466,296.27115,73,50,40
296.2809,296.4274,74,50,40
296.43716,296.58365,86,50,40
296.5934,296.7399,86,50,40
296.74966,296.89615,85,50,40
296.9059,297.0524,85,50,40
297.06216,297.20865,85,50,40
297.2184,297.3649,84,50,40
297.37466,297.52115,84,55,40
297.5309,297.6774,84,60,40
297.68716,297.83365,81,67,40
297.8434,297.9899,82,75,40
297.99966,298.14615,82,82,40
298.1559,298.3024,83,90,40
298.31216,298.45865,84,80,40
298.4684,298.6297,84,60,40
298.6297,298.791,86,60,40
298.791,298.9523,84,60,40
298.9523,299.11896,82,60,40
299.11896,299.2949,81,60,40
299.2949,299.4685,79,60,40
299.48007,300.4377,77,60,40
300.4478,300.6091,76,76,40
300.6091,300.7704,86,79,40
300.7704,300.93167,84,82,40
300.93167,301.09296,82,85,40
301.09296,301.25427,81,90,40
301.25427,301.40546,79,80,40
301.41556,301.76837,77,60,40
301.8994,302.25223,79,60,40
302.3833,302.7361,72,60,40
303.51233,303.6736,84,62,40
303.6736,303.8349,82,64,40
303.8349,303.9962,81,67,40
303.9962,304.15747,79,69,40
304.15747,304.3188,77,72,40
304.3188,304.48007,76,74,40
304.48007,304.64136,86,76,40
304.64136,304.80264,84,79,40
304.80264,304.96393,82,81,40
304.96393,305.1252,81,84,40
305.1252,305.27643,79,86,40
305.2865,305.63934,77,89,40
305.7704,306.1232,79,96,40
306.25424,306.61884,72,103,40
306.75424,307.1596,88,110,40
306.75424,307.1596,76,110,40
307.3221,307.9096,90,110,40
307.3221,307.9096,78,110,40
308.89713,309.02213,81,60,40
309.02213,309.27213,74,60,40
309.27213,309.52213,78,60,40
309.52213,310.0117,79,60,40
312.89713,313.02213,81,60,40
313.02213,313.27213,74,60,40
313.27213,313.52213,78,60,40
313.52213,314.0117,79,60,40
317.53998,317.60248,74,60,40
317.60248,317.66498,76,60,40
317.66498,318.65454,77,60,40
318.66498,319.53998,72,60,40
319.53998,319.66498,74,60,40
319.66498,320.15454,71,60,40
324.66498,325.15454,78,60,40
325.16498,325.65454,79,60,40
325.66498,326.15454,68,60,40
326.16498,326.65454,69,60,40
326.66498,327.15454,76,60,40
327.16498,327.65454,77,60,40
327.66498,328.15454,76,60,40
328.16498,328.65454,74,60,40
329.53998,329.60248,79,60,40
329.60248,329.66498,81,60,40
329.66498,330.65454,82,60,40
330.66498,331.41498,77,60,40
331.41498,331.53998,79,60,40
331.53998,331.60248,77,60,40
331.60248,331.66498,79,60,40
331.66498,332.65454,81,60,40
332.66498,333.41498,76,60,40
333.41498,333.53998,77,60,40
333.53998,333.60248,79,60,40
333.60248,333.66498,81,60,40
333.66498,334.65454,82,60,40
334.66498,335.41498,77,66,40
335.41498,335.53998,79,71,40
335.53998,335.60248,77,72,40
335.60248,335.66498,79,73,40
335.66498,336.65454,81,73,40
336.66498,337.53998,76,80,40
337.53998,337.65454,77,86,40
337.66498,338.15454,75,87,40
338.16498,338.65454,76,90,40
338.66498,339.15454,84,93,40
339.16498,339.65454,82,97,40
339.66498,340.15454,76,100,40
340.16498,340.65454,77,104,40
340.66498,341.15454,84,107,40
341.16498,341.53998,81,110,40
341.53998,341.60248,79,110,40
341.60248,341.66498,81,110,40
341.66498,341.8896,82,110,40
342.01654,342.07513,76,110,40
342.07513,342.13373,77,110,40
342.13373,342.35834,79,110,40
342.4853,342.54388,72,110,40
342.54388,342.60248,74,110,40
342.60248,342.8271,76,110,40
342.95404,343.01263,67,110,40
343.01263,343.07123,69,110,40
343.07123,343.29584,70,110,40
343.4228,343.48138,64,110,40
343.48138,343.53998,65,110,40
343.53998,343.7646,67,110,40
343.89154,343.95013,60,110,40
343.95013,344.00873,62,110,40
344.00873,344.23334,64,110,40
344.3603,344.41888,55,110,40
344.41888,344.47748,57,110,40
344.47748,344.7021,58,110,40
348.50583,348.6523,86,60,40
348.66208,348.80856,84,60,40
348.81833,348.9648,82,60,40
348.97458,349.12106,81,60,40
349.13083,349.2773,79,60,40
349.28708,349.43356,77,60,40
349.44333,349.5898,72,62,40
349.59958,349.74606,76,64,40
349.75583,349.9023,77,66,40
349.91208,350.05856,79,69,40
350.06833,350.2148,81,71,40
350.22458,350.37106,76,73,40
350.38083,350.5273,86,75,40
350.53708,350.68356,84,78,40
350.69333,350.8398,82,80,40
350.84958,350.99606,81,82,40
351.00583,351.1523,79,84,40
351.16208,351.50388,77,87,40
351.63083,351.97263,79,94,40
352.09958,352.46414,72,100,40
352.59958,353.00467,84,110,40
353.01624,353.0857,81,60,40
353.0857,353.15512,82,60,40
353.15512,354.25467,84,100,40
354.26624,355.23846,79,100,40
355.23846,355.36578,81,100,40
355.37735,355.78244,78,91,40
357.4607,357.53012,84,110,40
357.53012,357.59958,86,110,40
357.59958,358.6991,87,110,40
358.7107,359.6829,82,110,40
359.6829,359.8102,84,110,40
359.8218,360.2269,81,110,40
360.23846,360.3079,84,110,40
360.3079,360.37735,86,110,40
360.37735,360.92133,87,110,40
363.36972,363.4907,75,60,40
363.4907,363.7326,65,60,40
363.7326,363.97455,72,60,40
363.97455,364.33746,74,60,40
364.33746,364.45844,75,60,40
364.45844,365.17416,77,60,40
365.3052,365.42618,79,60,40
365.42618,365.6681,72,60,40
365.6681,365.91003,76,60,40
365.91003,366.26285,77,60,40
368.32938,368.6923,81,66,40
368.6923,368.81326,82,60,40
368.81326,369.16608,84,60,40
369.29712,369.64996,86,60,40
370.9907,371.2326,79,60,40
371.2326,371.4826,76,60,40
371.4826,371.75046,72,60,40
371.75046,372.20047,81,70,40
372.20047,372.35046,82,100,40
372.35046,375.33798,84,110,40
375.72546,375.85046,89,60,40
375.85046,376.10046,88,60,40
376.10046,376.35046,86,60,40
376.35046,376.59006,84,60,40
376.72546,376.85046,86,60,40
376.85046,377.11832,82,60,40
377.11832,377.38617,79,60,40
377.38617,377.66263,77,60,40
377.81888,377.9631,79,60,40
377.9631,378.28918,76,60,40
378.28918,378.92776,72,60,40
378.94138,379.90604,69,60,40
378.94138,379.90604,77,60,40
383.9957,384.14517,65,1,40
0.0,0.54398143,65,1,40
5.555555,6.655092,58,100,40
6.666666,7.0717587,55,60,40
6.666666,7.0717587,64,60,40
7.0833325,7.152777,67,60,40
7.152777,7.2222214,69,60,40
7.2222214,7.834201,70,60,40
9.136284,9.253471,69,60,40
9.253471,9.487846,60,60,40
9.487846,9.722221,65,60,40
9.722221,10.181206,67,60,40
11.128471,11.480034,57,60,40
11.480034,11.597221,58,60,40
11.597221,12.056206,60,60,40
14.878471,15.230034,65,60,40
15.230034,15.347221,67,60,40
15.347221,15.806206,65,60,40
16.636284,16.753471,74,67,40
16.753471,16.987846,70,70,40
16.987846,17.222221,67,75,40
17.222221,17.44683,65,80,40
17.573784,17.690971,67,88,40
17.690971,17.940971,64,90,40
17.940971,18.197668,60,75,40
18.208828,18.698412,65,60,40
21.208828,22.198412,57,90,40
22.208828,23.198412,55,90,40
25.208828,26.198412,58,90,40
26.208828,27.198412,57,90,40
27.208828,28.269096,57,60,40
28.280256,30.692366,59,60,40
30.702131,31.043928,59,86,40
30.702131,31.043928,65,86,40
31.170881,31.512678,59,92,40
31.170881,31.512678,65,92,40
31.639631,32.016945,59,97,40
31.639631,32.016945,65,97,40
32.167408,32.656994,55,110,40
32.167408,32.656994,64,110,40
33.667408,34.042408,59,60,40
34.042408,34.156994,62,60,40
34.167408,34.531994,60,60,40
34.667408,35.042408,67,60,40
35.042408,35.156994,70,60,40
35.167408,35.531994,69,60,40
35.667408,36.656994,63,60,40
36.667408,37.156994,62,60,40
37.167408,37.531994,62,60,40
37.667408,38.031994,67,60,40
39.667408,40.042408,67,60,40
40.042408,40.156994,70,60,40
40.167408,40.531994,60,60,40
40.667408,41.031994,60,60,40
41.167408,41.531994,69,60,40
41.667408,42.031994,69,60,40
43.167408,44.156994,77,60,40
44.167408,44.656994,71,60,40
44.667408,45.042408,73,60,40
45.042408,45.156994,76,60,40
45.167408,45.531994,74,60,40
45.667408,46.031994,74,60,40
46.167408,46.656994,74,60,40
46.667408,47.069195,74,60,40
47.069195,47.191963,77,60,40
47.203125,47.623795,76,60,40
47.780045,48.25559,76,60,40
48.43222,48.609303,69,60,40
48.68222,48.848236,65,60,40
48.68222,48.848236,69,60,40
48.916595,49.08261,65,60,40
48.916595,49.08261,69,60,40
49.15097,49.316986,65,60,40
49.15097,49.316986,69,60,40
49.385345,49.84433,65,60,40
49.385345,49.84433,69,60,40
52.3282,53.505936,69,60,40
53.5157,53.750076,74,60,40
53.750076,53.98445,73,60,40
53.98445,54.218826,74,60,40
54.218826,54.384842,69,60,40
54.4532,54.687576,70,60,40
54.687576,54.92195,65,60,40
54.92195,55.156326,67,60,40
55.156326,55.33341,65,60,40
55.406326,55.656326,67,60,40
55.656326,55.924183,64,60,40
55.924183,56.224182,65,60,40
56.224182,56.40737,67,60,40
56.482803,56.64882,59,60,40
56.71718,56.883194,59,60,40
56.951553,57.11757,59,60,40
57.18593,57.644913,59,60,40
59.295303,59.52968,64,60,40
59.52968,59.764053,59,60,40
59.764053,59.99843,60,60,40
59.99843,60.457413,62,60,40
60.93593,61.170303,71,60,40
61.170303,61.40468,67,60,40
61.40468,61.570694,71,60,40
61.639053,61.80507,71,60,40
61.87343,62.107803,69,60,40
62.107803,62.34218,62,60,40
62.34218,62.508194,69,60,40
62.576553,62.74257,69,60,40
62.81093,63.045303,69,60,40
63.045303,63.27968,66,60,40
63.27968,63.504288,72,60,40
63.63124,63.738663,72,60,40
63.74843,64.67616,72,60,40
64.68593,65.61366,71,60,40
67.7328,67.96718,60,63,40
67.96718,68.133194,72,66,40
68.20155,68.36757,72,69,40
68.43593,68.6703,72,72,40
68.6703,68.90468,60,75,40
68.90468,69.12929,72,78,40
69.25624,69.36366,72,83,40
69.37343,70.5453,73,85,40
70.5453,70.77968,64,100,40
70.77968,70.956764,74,90,40
71.02968,71.22644,74,80,40
71.55746,71.79183,67,60,40
71.79183,71.95785,72,60,40
72.02621,72.19222,72,60,40
72.49496,72.72933,62,60,40
72.72933,72.90642,71,60,40
72.97933,73.16907,71,60,40
73.24719,73.604614,60,60,40
73.73157,74.073364,64,65,40
74.20032,74.542114,67,71,40
74.66907,75.010864,72,77,40
75.13782,75.479614,71,83,40
75.60657,75.948364,74,90,40
76.07532,77.00305,77,100,40
77.01282,77.16907,77,60,40
77.16907,77.32532,74,62,40
77.32532,77.48157,76,65,40
77.48157,77.63782,74,68,40
77.63782,77.79407,71,71,40
77.79407,77.95032,72,74,40
77.95032,78.10657,71,76,40
78.10657,78.26282,67,79,40
78.26282,78.41907,69,82,40
78.41907,78.87805,67,85,40
79.82532,79.9718,64,110,40
79.98157,80.12805,67,110,40
80.13782,80.2843,72,110,40
80.29407,80.44055,76,110,40
80.45032,80.5968,79,110,40
80.60657,80.75305,83,110,40
80.76282,80.9093,84,110,40
80.91907,81.06555,79,110,40
81.07532,81.2218,81,110,40
81.23157,81.37805,79,110,40
81.38782,81.5343,76,110,40
81.54407,81.69055,77,110,40
81.70032,81.8468,76,110,40
81.85657,82.00305,72,110,40
82.01282,82.1593,74,110,40
82.16907,82.62805,72,110,40
83.57532,83.726524,77,110,40
83.7366,83.88782,74,100,40
83.897896,84.0491,71,90,40
84.05918,84.21543,74,80,40
84.22585,84.390205,71,70,40
84.40178,84.575386,67,60,40
84.58696,84.748604,71,50,40
84.75938,84.91394,72,50,40
84.923706,85.07019,74,50,40
85.079956,85.22644,76,50,40
85.236206,85.38269,77,50,40
85.392456,85.53894,76,50,40
86.486206,86.63269,68,50,40
86.642456,86.78894,69,50,40
86.798706,86.94519,71,50,40
86.954956,87.10144,72,50,40
87.111206,87.25769,74,50,40
87.267456,87.41394,72,50,40
87.423706,87.57492,69,50,40
87.585,87.736206,69,50,40
87.746284,87.8975,69,50,40
87.90758,88.069214,67,50,40
88.079994,88.247215,67,50,40
88.25879,88.4324,67,50,40
88.44398,88.93356,72,60,40
88.94398,89.40296,67,70,40
89.41273,89.754524,72,80,40
89.88148,90.223274,69,70,40
90.35023,91.74671,67,60,40
91.75648,91.99085,69,60,40
91.99085,92.21546,71,60,40
92.22523,92.68421,72,65,40
92.69398,93.15296,74,69,40
93.16273,93.504524,76,73,40
93.63148,93.973274,76,77,40
94.10023,94.55921,76,82,40
94.56898,95.02796,74,86,40
95.03773,95.51151,72,90,40
95.5216,96.04615,69,80,40
96.05731,96.2969,62,50,40
96.05731,96.2969,71,50,40
96.30731,96.53192,74,50,40
96.54169,96.7663,74,50,40
96.77606,97.00067,74,50,40
97.01044,97.23505,74,50,40
97.24481,97.46942,74,50,40
97.47919,97.7038,74,50,40
97.71356,97.93817,74,50,40
97.94794,98.17255,72,50,40
98.18231,98.40692,72,50,40
98.41669,98.6413,72,50,40
98.65106,98.87567,72,50,40
98.88544,99.117294,72,50,40
99.12737,99.35922,72,50,40
99.36931,99.60889,76,50,40
99.61931,99.876,76,50,40
99.88716,100.05457,76,50,40
100.065735,100.22338,76,50,40
100.23315,100.37963,74,50,40
100.3894,100.53588,74,50,40
100.54565,100.69213,74,50,40
100.7019,100.84838,74,50,40
100.85815,101.00463,74,50,40
101.0144,101.16088,74,50,40
101.17065,101.31713,74,50,40
101.3269,101.47338,74,50,40
101.48315,101.62963,74,50,40
101.6394,101.78588,74,50,40
101.79565,101.94213,72,55,40
101.9519,102.09838,72,61,40
102.10815,102.25463,72,67,40
102.2644,102.41088,74,74,40
102.42065,102.56713,74,80,40
102.5769,102.72338,74,70,40
102.73315,102.88435,69,60,40
102.89443,103.04565,69,60,40
103.055725,103.20693,69,60,40
103.21702,103.37327,71,60,40
103.38368,103.54514,71,60,40
103.556305,103.72371,71,60,40
103.73487,104.692535,64,60,40
104.702614,105.66027,65,76,40
105.67036,106.02318,67,60,40
106.15423,106.50705,57,60,40
106.15423,106.50705,62,60,40
106.6381,106.799385,59,60,40
106.6381,106.799385,62,60,40
106.799385,106.96068,69,60,40
106.96068,107.12196,67,60,40
107.12196,107.28326,65,60,40
107.28326,107.44455,64,60,40
107.44455,107.605835,62,60,40
107.605835,108.5635,64,60,40
108.57358,109.69253,67,73,40
109.70261,109.8639,69,88,40
109.8639,110.02519,67,90,40
110.02519,110.18648,65,93,40
110.18648,110.34777,64,95,40
110.34777,110.50906,62,97,40
110.50906,110.861885,64,99,40
110.99293,111.398285,74,110,40
111.56079,112.019775,67,110,40
111.56079,112.019775,69,110,40
112.96704,113.894775,69,60,40
114.72485,114.84204,62,60,40
114.84204,115.076416,55,60,40
115.076416,115.31079,59,60,40
115.31079,115.769775,60,60,40
116.71704,117.176025,76,60,40
117.18579,117.644775,74,60,40
118.49829,118.62329,62,60,40
118.62329,118.89114,55,60,40
118.89114,119.19115,59,60,40
119.19115,119.77864,62,60,40
129.61615,129.67865,62,60,40
129.67865,129.74115,64,60,40
129.74115,130.73073,65,60,40
130.74115,131.61615,60,60,40
131.61615,131.73073,62,60,40
131.74115,132.73073,59,60,40
135.74115,135.8974,60,60,40
135.9078,136.06406,63,60,40
136.07448,136.23073,67,60,40
136.24115,136.3974,72,60,40
136.4078,136.56406,75,60,40
136.57448,136.73073,79,60,40
136.74115,137.23073,84,60,40
137.61615,137.67865,70,60,40
137.67865,137.74115,72,60,40
137.74115,138.73073,73,60,40
138.74115,139.61615,69,60,40
139.61615,139.73073,70,60,40
139.74115,140.73073,67,60,40
140.74115,141.73073,73,60,40
141.74115,142.73073,63,60,40
142.74115,143.73073,70,60,40
143.74115,144.73073,68,60,40
144.74115,145.73073,75,60,40
145.74115,146.73073,65,60,40
146.74115,147.73073,72,60,40
147.74115,148.73073,70,60,40
148.74115,149.73073,77,60,40
149.74115,150.73073,67,60,40
150.74115,151.73073,73,60,40
150.74115,151.73073,63,60,40
151.74115,151.8974,72,60,40
151.9078,152.06406,63,62,40
152.07448,152.23073,68,64,40
152.24115,152.3974,72,66,40
152.4078,152.56406,75,68,40
152.57448,152.73073,80,70,40
152.74115,153.23073,75,72,40
153.61615,153.67865,72,83,40
153.67865,153.74115,73,84,40
153.74115,154.66888,75,85,40
154.67865,155.49896,76,98,40
155.49896,155.60638,77,109,40
155.61615,155.85052,69,110,40
155.61615,155.85052,77,110,40
155.96771,156.0849,72,110,40
156.0849,156.3349,65,110,40
156.3349,156.61267,69,110,40
156.61267,157.15665,72,110,40
159.95035,160.06754,74,60,40
160.06754,160.30191,65,60,40
160.30191,160.53629,70,60,40
160.53629,160.99527,72,60,40
161.94254,162.2941,62,84,40
162.2941,162.41129,63,95,40
162.41129,162.76285,65,99,40
162.76285,162.88004,67,110,40
162.88004,163.11441,60,110,40
163.11441,163.34879,64,110,40
163.34879,163.80777,67,110,40
165.69254,166.03433,60,60,40
166.16129,166.50308,60,60,40
166.63004,166.97183,55,60,40
167.56754,169.05711,69,60,40
169.56754,170.01753,81,60,40
170.01753,170.16753,82,60,40
170.16753,171.35503,84,60,40
172.51299,172.88799,81,60,40
172.88799,173.01299,83,60,40
173.01299,173.38799,72,60,40
173.38799,173.51299,74,60,40
173.51299,173.9876,69,60,40
173.51299,173.9876,76,60,40
174.46611,174.9251,56,60,40
176.22392,176.28252,61,60,40
176.28252,176.34111,62,60,40
176.34111,176.8001,64,60,40
177.27861,177.4251,65,60,40
177.43486,177.58134,67,60,40
177.59111,177.7376,69,60,40
177.74736,177.89384,69,60,40
177.90361,178.0501,69,60,40
178.05986,178.20634,69,60,40
178.21611,178.3626,67,60,40
178.37236,178.51884,65,60,40
178.52861,178.6751,64,60,40
178.68486,178.83134,64,60,40
178.84111,178.9876,64,60,40
178.99736,179.14384,64,60,40
179.15361,179.3001,65,60,40
179.30986,179.45634,64,60,40
179.46611,179.6126,62,60,40
179.62236,179.76884,64,60,40
179.77861,179.9251,62,60,40
179.93486,180.08134,61,60,40
180.09111,180.2376,62,60,40
180.24736,180.39384,64,60,40
180.40361,180.5501,66,60,40
180.55986,180.70634,66,60,40
180.71611,180.8626,64,60,40
180.87236,181.01884,62,60,40
181.02861,181.3704,62,60,40
181.49736,181.83916,59,60,40
181.96611,182.3079,66,60,40
182.43486,182.77666,57,60,40
182.43486,182.77666,62,60,40
182.90361,183.2454,59,60,40
182.90361,183.2454,62,60,40
183.37236,183.71416,60,60,40
183.37236,183.71416,62,60,40
183.84111,183.9876,71,60,40
183.99736,184.14384,69,60,40
184.15361,184.3001,67,60,40
184.30986,184.45634,67,60,40
184.46611,184.6126,69,60,40
184.62236,184.76884,71,60,40
184.77861,184.9251,74,60,40
184.93486,185.08134,72,60,40
185.09111,185.2376,71,60,40
185.24736,185.39384,69,60,40
185.40361,185.5501,71,60,40
185.55986,185.70634,72,60,40
185.71611,185.8626,71,60,40
185.87236,186.01884,69,60,40
186.02861,186.1751,67,60,40
186.18486,186.33134,67,60,40
186.34111,186.4876,66,60,40
186.49736,186.64384,67,60,40
186.65361,186.8001,71,60,40
186.80986,186.95634,72,60,40
186.96611,187.1126,74,60,40
187.12236,187.26884,76,60,40
187.27861,187.4251,74,60,40
187.43486,187.58134,78,60,40
187.59111,187.7376,79,60,40
187.74736,187.89384,69,60,40
187.90361,188.0501,71,60,40
188.05986,188.20634,71,60,40
188.21611,188.3626,69,60,40
188.37236,188.51884,67,60,40
188.52861,188.6751,76,60,40
188.68486,188.83134,74,60,40
188.84111,188.9876,72,60,40
188.99736,189.14384,71,60,40
189.15361,189.3001,72,60,40
189.30986,189.45634,74,60,40
189.46611,189.6126,72,60,40
189.62236,189.76884,74,60,40
189.77861,189.9251,76,60,40
189.93486,190.08134,76,60,40
190.09111,190.2376,74,60,40
190.24736,190.39384,72,60,40
190.40361,190.5501,64,60,40
190.55986,190.70634,62,60,40
190.71611,190.8626,60,60,40
190.87236,191.01884,59,60,40
191.02861,191.1751,60,60,40
191.18486,191.33134,62,60,40
191.34111,191.4876,60,60,40
191.49736,191.64384,62,60,40
191.65361,191.8001,64,60,40
191.80986,191.95634,64,60,40
191.96611,192.1126,62,60,40
192.12236,192.26884,60,60,40
192.27861,192.4251,72,60,40
192.43486,192.58134,74,62,40
192.59111,192.7376,76,64,40
192.74736,192.89384,77,66,40
192.90361,193.0501,76,68,40
193.05986,193.20634,74,70,40
193.21611,193.3626,76,72,40
193.37236,193.51884,74,74,40
193.52861,193.6751,72,76,40
193.68486,193.83134,72,79,40
193.84111,193.9876,74,81,40
193.99736,194.14384,76,83,40
194.15361,194.3001,64,85,40
194.30986,194.45634,62,87,40
194.46611,194.6126,60,89,40
194.62236,194.76884,68,91,40
194.77861,194.9251,67,93,40
194.93486,195.08134,65,96,40
195.09111,195.2376,67,98,40
195.24736,195.39384,65,100,40
195.40361,195.5501,64,102,40
195.55986,195.71611,76,104,40
195.72653,195.89737,77,106,40
195.90987,196.09737,79,108,40
196.10986,196.27727,79,110,40
196.28844,196.44608,81,110,40
196.45584,196.60233,82,110,40
196.61209,196.75858,82,110,40
196.76834,196.91483,82,110,40
196.92459,197.07108,82,110,40
197.08084,198.47733,70,127,40
198.48709,198.83865,65,110,40
198.83865,198.95584,67,110,40
198.95584,199.18045,64,110,40
199.3074,199.42459,70,110,40
199.42459,199.65897,65,110,40
199.65897,199.89334,67,110,40
199.89334,200.35233,64,110,40
202.1199,202.23709,81,60,40
202.23709,202.47147,72,60,40
202.47147,202.70584,77,60,40
202.70584,203.16483,79,60,40
204.11209,204.46365,81,60,40
204.46365,204.58084,82,60,40
204.58084,205.03983,84,60,40
207.86209,208.21365,69,70,40
208.21365,208.33084,70,92,40
208.33084,208.55545,72,100,40
208.79959,209.03397,76,60,40
209.03397,209.26834,74,60,40
209.26834,209.50272,72,60,40
209.6199,209.73709,74,60,40
209.73709,209.97147,70,60,40
209.97147,210.20584,67,60,40
210.20584,210.44778,65,60,40
210.56874,210.68971,70,60,40
210.68971,210.94833,67,60,40
210.94833,211.24834,58,60,40
211.24834,211.83583,57,60,40
212.44833,212.90732,59,60,40
212.91708,213.37607,60,60,40
213.38583,213.84482,61,60,40
213.85458,214.31357,62,60,40
214.32333,214.78232,57,60,40
214.79208,215.25107,58,60,40
215.26083,215.71982,57,60,40
215.72958,216.18857,55,60,40
216.19833,216.65732,61,60,40
216.66708,217.12607,62,60,40
217.13583,217.59482,63,60,40
217.60458,218.06357,64,60,40
218.07333,218.53232,72,60,40
218.54208,219.01587,70,60,40
219.02596,219.51553,70,60,40
219.52596,220.0505,69,60,40
220.93668,220.99918,72,60,40
220.99918,221.06168,74,60,40
221.06168,221.98941,75,60,40
221.99918,222.81949,70,60,40
222.81949,222.92691,72,60,40
222.93668,223.39566,69,60,40
223.87418,224.33316,66,60,40
224.34293,224.80191,67,60,40
224.81168,225.27066,56,60,40
225.28043,225.73941,57,60,40
225.74918,226.20816,65,60,40
226.21793,226.67691,63,60,40
226.68668,227.14566,63,60,40
227.15543,227.61441,62,60,40
227.62418,228.08316,65,63,40
228.09293,228.55191,63,66,40
228.56168,229.02066,63,70,40
229.03043,229.48941,62,73,40
229.49918,229.95816,72,76,40
229.96793,230.42691,70,80,40
230.43668,230.89566,69,83,40
230.90543,231.36441,67,87,40
231.37418,231.83316,58,90,40
231.84293,232.30191,57,93,40
232.31168,232.65347,63,97,40
232.78043,233.12222,63,100,40
233.24918,233.60199,63,104,40
233.73305,234.12387,63,107,40
234.28012,234.7697,55,110,40
234.28012,234.7697,64,110,40
235.78012,236.7697,55,60,40
236.78012,237.15512,66,60,40
237.15512,237.28012,69,60,40
237.28012,237.6447,67,60,40
237.78012,238.1447,67,60,40
238.28012,238.7697,67,60,40
238.78012,239.15512,64,60,40
239.15512,239.28012,67,60,40
239.28012,239.6447,65,60,40
239.78012,240.17075,60,60,40
240.31584,241.30542,59,60,40
241.31584,242.30542,58,60,40
242.31584,242.49292,57,60,40
242.56584,242.73186,69,60,40
242.80022,242.96623,69,60,40
243.03459,243.2006,69,60,40
243.26897,243.72795,69,60,40
245.37834,245.61272,82,60,40
245.61272,245.84709,77,60,40
245.84709,246.08147,79,60,40
246.08147,247.24358,81,60,40
247.25334,247.48772,86,60,40
247.48772,247.72209,85,60,40
247.72209,247.95647,86,60,40
247.95647,248.12248,81,60,40
248.19084,248.42522,82,60,40
248.42522,248.65959,77,60,40
248.65959,248.89397,79,60,40
248.89397,249.05998,81,60,40
249.12834,249.36272,77,60,40
249.36272,249.59709,79,60,40
249.59709,249.83147,77,60,40
249.83147,250.99358,76,60,40
251.00334,251.23772,55,60,40
251.23772,251.47209,64,60,40
251.58928,251.6967,64,60,40
251.70647,251.94084,62,60,40
251.94084,252.17522,67,60,40
252.17522,252.34123,74,60,40
252.40959,252.5756,74,60,40
252.64397,252.87834,74,60,40
252.87834,253.11272,67,60,40
253.11272,253.34709,77,60,40
253.46428,253.5717,77,60,40
253.58147,254.5092,77,60,40
254.51897,255.4467,76,60,40
256.62833,256.8627,57,60,40
256.8627,257.09708,65,60,40
257.21426,257.3217,65,60,40
257.33145,258.49356,65,60,40
258.50333,258.7377,65,81,40
258.7377,258.97208,77,85,40
259.08926,259.1967,77,91,40
259.20645,259.66544,78,93,40
259.6752,260.1342,66,102,40
260.14395,260.60294,67,110,40
260.6127,261.0717,64,85,40
261.31583,261.48184,60,60,40
261.5502,261.71622,65,60,40
261.78458,261.9506,65,60,40
262.2609,262.43228,55,60,40
262.50284,262.68604,64,60,40
262.76144,262.95822,64,60,40
263.03925,263.1955,77,60,40
263.2059,263.3576,72,62,40
263.36737,263.51385,74,64,40
263.52362,263.6701,72,67,40
263.67987,263.82635,69,69,40
263.83612,263.9826,70,72,40
263.99237,264.13885,69,74,40
264.14862,264.2951,65,76,40
264.30487,264.45135,67,79,40
264.46112,264.9201,57,81,40
264.46112,264.9201,65,81,40
265.39862,265.8576,55,96,40
265.39862,265.8576,64,96,40
265.86737,266.01385,60,103,40
266.02362,266.1701,64,106,40
266.17987,266.32635,67,108,40
266.33612,266.49237,72,110,40
266.50278,266.6671,76,94,40
266.6787,266.8523,79,77,40
266.8639,267.02014,82,61,40
267.03055,267.18225,79,62,40
267.19202,267.3385,81,65,40
267.34827,267.49475,79,68,40
267.50452,267.651,76,71,40
267.66077,267.80725,77,74,40
267.81702,267.9635,76,76,40
267.97327,268.11975,72,79,40
268.12952,268.276,74,82,40
268.28577,268.43225,67,85,40
268.28577,268.43225,72,85,40
268.44202,268.5885,65,88,40
268.59827,268.74475,64,91,40
269.69202,269.8385,69,110,40
269.84827,269.99475,72,110,40
270.00452,270.151,75,110,40
270.16077,270.31702,81,110,40
270.32742,270.4889,84,110,40
270.50003,270.66745,87,110,40
270.67862,271.03604,86,110,40
271.163,271.5048,74,110,40
271.63174,271.97354,77,110,40
272.1005,272.4423,82,110,40
272.56924,272.91104,81,110,40
273.038,273.3798,84,110,40
273.50674,274.43448,87,125,40
275.8505,275.99698,81,110,40
276.00674,276.15323,79,110,40
276.163,276.30948,77,110,40
276.31924,276.46573,82,110,40
276.4755,276.62198,77,110,40
276.63174,276.77823,74,110,40
276.788,276.93448,70,110,40
276.94424,277.09073,65,110,40
277.1005,277.24698,62,110,40
277.25674,277.71573,58,110,40
279.13174,279.48456,64,110,40
279.6156,279.98837,67,80,40
280.13345,280.2897,64,50,40
280.30014,280.4518,65,50,40
280.46158,280.60806,67,50,40
280.61783,280.7643,69,50,40
280.77408,280.92056,70,50,40
280.93033,281.0768,69,50,40
281.08658,281.23306,70,50,40
281.24283,281.3893,72,50,40
281.39908,281.54556,74,50,40
281.55533,281.7018,75,50,40
281.71158,281.85806,70,50,40
281.86783,282.0143,70,50,40
282.02408,282.17056,69,50,40
282.18033,282.3268,71,50,40
282.33658,282.48306,73,50,40
282.49283,282.6393,69,50,40
282.64908,282.79556,69,50,40
282.80533,282.9518,69,50,40
282.96158,283.10806,71,50,40
283.11783,283.2643,72,50,40
283.27408,283.42056,74,50,40
283.43033,283.58658,67,50,40
283.59702,283.76135,67,50,40
283.77295,283.94653,67,50,40
283.95813,284.43192,65,60,40
284.442,284.91577,60,80,40
284.92587,285.2787,65,70,40
285.40973,285.76254,62,60,40
285.89362,286.85126,60,50,40
286.86136,287.10327,67,50,40
287.10327,287.3452,60,50,40
287.3452,287.58716,62,50,40
287.58716,287.819,64,50,40
287.82907,288.3029,65,55,40
288.31296,288.78674,61,60,40
288.7968,289.14966,73,66,40
289.2807,289.6335,77,72,40
289.76456,290.23834,76,78,40
290.24844,290.72223,73,84,40
290.7323,291.2219,69,90,40
291.2323,291.77628,71,70,40
291.78787,291.96494,69,50,40
292.03787,292.2039,69,50,40
292.27225,292.43826,67,50,40
292.50662,292.67264,67,50,40
292.741,292.907,67,50,40
292.97537,293.1414,67,50,40
293.20975,293.37576,67,50,40
293.44412,293.61014,67,50,40
293.6785,293.8445,65,50,40
293.91287,294.0789,65,50,40
294.14725,294.31326,65,50,40
294.38162,294.54764,65,50,40
294.616,294.782,65,50,40
294.85037,295.0164,65,50,40
295.08475,295.2618,65,50,40
295.33475,295.5315,69,50,40
295.61252,295.78613,77,50,40
295.7977,295.95865,77,50,40
295.9684,296.1149,77,50,40
296.12466,296.27115,77,50,40
296.2809,296.4274,77,50,40
296.43716,296.58365,77,50,40
296.5934,296.7399,70,50,40
296.5934,296.7399,77,50,40
296.74966,296.89615,70,50,40
296.74966,296.89615,77,50,40
296.9059,297.0524,70,50,40
296.9059,297.0524,77,50,40
297.06216,297.20865,70,50,40
297.06216,297.20865,77,50,40
297.2184,297.3649,70,50,40
297.2184,297.3649,77,50,40
297.37466,297.52115,70,55,40
297.37466,297.52115,77,55,40
297.5309,297.6774,69,60,40
297.5309,297.6774,77,60,40
297.68716,297.83365,69,67,40
297.68716,297.83365,77,67,40
297.8434,297.9899,69,75,40
297.8434,297.9899,77,75,40
297.99966,298.14615,69,82,40
297.99966,298.14615,77,82,40
298.1559,298.3024,69,90,40
298.1559,298.3024,77,90,40
298.31216,298.45865,69,80,40
298.31216,298.45865,77,80,40
298.4684,298.61963,70,60,40
298.4684,298.61963,77,60,40
298.6297,298.7809,70,60,40
298.6297,298.7809,77,60,40
298.791,298.9422,70,60,40
298.791,298.9422,77,60,40
298.9523,299.10855,72,60,40
299.11896,299.2833,72,60,40
299.2949,299.4685,72,60,40
299.48007,301.88934,72,110,40
301.8994,302.25223,67,60,40
302.3833,302.5446,55,60,40
302.5446,302.70587,65,60,40
302.70587,302.86716,64,60,40
302.86716,303.02844,62,60,40
303.02844,303.18973,60,60,40
303.18973,303.34094,58,60,40
303.35104,304.3087,57,60,40
304.3188,305.27643,58,74,40
305.2865,305.63934,60,89,40
305.7704,306.1232,62,96,40
306.25424,306.42093,55,103,40
306.42093,306.5876,74,106,40
306.5876,306.75424,72,108,40
306.75424,306.93283,70,110,40
306.93283,307.1221,69,110,40
307.1221,307.3096,67,110,40
307.3221,307.9096,72,110,40
309.02213,309.5117,60,60,40
309.02213,310.0117,62,60,40
309.52213,310.0117,58,60,40
310.89713,311.02213,67,60,40
311.02213,311.27213,60,60,40
311.27213,311.52213,64,60,40
311.52213,312.0117,65,60,40
313.02213,314.0117,74,60,40
314.9239,315.05783,67,60,40
315.05783,315.32568,60,60,40
315.32568,315.59354,64,60,40
315.59354,316.1181,67,60,40
316.66498,317.15454,66,60,40
317.16498,317.65454,67,60,40
317.66498,318.15454,56,60,40
318.16498,318.65454,57,60,40
318.66498,319.15454,64,60,40
319.16498,319.65454,65,60,40
319.66498,320.15454,64,60,40
320.16498,320.65454,62,60,40
325.53998,325.60248,62,60,40
325.60248,325.66498,64,60,40
325.66498,326.65454,65,60,40
326.66498,327.53998,60,60,40
327.53998,327.66498,62,60,40
327.66498,328.53998,59,60,40
328.53998,328.60248,74,60,40
328.60248,328.66498,76,60,40
328.66498,329.15454,77,60,40
330.66498,330.82123,64,60,40
330.83163,330.98788,67,60,40
330.9983,331.15454,72,60,40
331.16498,331.32123,76,60,40
331.33163,331.48788,79,60,40
331.4983,331.65454,84,60,40
331.66498,332.15454,84,71,40
332.66498,332.82123,65,60,40
332.83163,332.98788,69,60,40
332.9983,333.15454,72,60,40
333.16498,333.32123,77,60,40
333.33163,333.48788,81,60,40
333.4983,333.65454,84,60,40
333.66498,334.15454,63,60,40
334.16498,334.65454,64,63,40
334.66498,335.15454,72,66,40
335.16498,335.65454,70,70,40
335.66498,336.15454,64,73,40
336.16498,336.65454,65,76,40
336.66498,337.15454,72,80,40
337.16498,337.53998,69,83,40
337.53998,337.60248,67,86,40
337.60248,337.66498,69,86,40
337.66498,338.65454,70,87,40
338.66498,339.41498,65,93,40
339.41498,339.53998,67,99,40
339.53998,339.60248,65,99,40
339.60248,339.66498,67,100,40
339.66498,340.65454,69,100,40
340.66498,341.41498,64,107,40
341.53998,341.60248,67,110,40
341.60248,341.66498,69,110,40
341.66498,341.8896,70,110,40
342.01654,342.07513,64,110,40
342.07513,342.13373,65,110,40
342.13373,342.35834,67,110,40
342.4853,342.54388,60,110,40
342.54388,342.60248,62,110,40
342.60248,342.8271,64,110,40
342.95404,343.01263,67,110,40
343.01263,343.07123,69,110,40
343.07123,343.29584,70,110,40
343.4228,343.48138,64,110,40
343.48138,343.53998,65,110,40
343.53998,343.7646,67,110,40
343.89154,343.95013,60,110,40
343.95013,344.00873,62,110,40
344.00873,344.23334,64,110,40
344.3603,344.41888,55,110,40
344.41888,344.47748,57,110,40
344.47748,344.7021,58,110,40
345.67886,345.8398,72,60,40
345.84958,345.99606,70,60,40
346.00583,346.1523,69,60,40
346.16208,346.30856,67,60,40
346.31833,346.4648,65,60,40
346.47458,346.62106,64,60,40
346.63083,346.7773,74,60,40
346.78708,346.93356,72,60,40
346.94333,347.0898,70,60,40
347.09958,347.24606,69,60,40
347.25583,347.4023,67,60,40
347.41208,347.75388,65,60,40
347.88083,348.22263,67,60,40
348.34958,348.49606,60,60,40
348.50583,348.6523,74,60,40
348.66208,348.80856,72,60,40
348.81833,348.9648,70,60,40
348.97458,349.12106,69,60,40
349.13083,349.2773,67,60,40
349.28708,350.2148,57,60,40
350.22458,351.1523,58,73,40
351.16208,351.50388,60,87,40
351.63083,351.97263,62,94,40
352.09958,352.46414,60,100,40
352.59958,353.00467,63,110,40
353.15512,354.8102,63,100,40
354.8218,355.36578,60,100,40
355.37735,355.78244,69,91,40
356.34958,356.419,81,60,40
356.419,356.48846,82,60,40
356.48846,357.03244,84,60,40
357.4607,357.53012,72,110,40
357.53012,357.59958,74,110,40
357.59958,358.6991,75,110,40
358.7107,359.6829,70,110,40
359.6829,359.8102,72,110,40
359.8218,360.2269,69,110,40
362.39365,362.52295,74,60,40
362.52295,362.7649,65,60,40
362.7649,363.0068,70,60,40
363.0068,363.35965,72,60,40
363.4907,363.8435,57,60,40
364.45844,364.82132,62,60,40
364.82132,364.9423,63,60,40
364.9423,365.2951,65,60,40
365.42618,365.779,60,60,40
365.42618,365.779,64,60,40
366.27295,366.39392,69,60,40
366.39392,366.63583,60,60,40
366.63583,366.87778,65,60,40
366.87778,367.2306,67,60,40
367.36163,367.71448,64,60,40
370.02295,370.26486,74,60,40
370.26486,370.5068,70,60,40
370.5068,370.74875,67,60,40
370.74875,370.9201,65,60,40
370.9907,371.2326,67,60,40
371.2326,371.4826,60,60,40
371.4826,371.75046,67,60,40
371.75046,372.20047,69,70,40
372.20047,372.35046,70,100,40
372.35046,375.33798,65,110,40
372.35046,375.33798,72,110,40
375.72546,375.85046,77,60,40
375.85046,376.10046,76,60,40
376.10046,376.35046,74,60,40
376.35046,376.59006,72,60,40
376.72546,376.85046,74,60,40
376.85046,377.11832,70,60,40
377.11832,377.38617,67,60,40
377.38617,377.66263,65,60,40
377.81888,377.9631,67,60,40
377.9631,378.28918,64,60,40
378.28918,378.92776,60,60,40
378.94138,379.90604,57,60,40
378.94138,379.90604,65,60,40
0.0,0.06944444,55,60,41
0.06944444,0.13888888,57,60,41
0.13888888,1.0995369,58,60,41
1.111111,2.071759,53,90,41
2.083333,2.222222,55,90,41
2.222222,2.7662034,52,90,41
4.3055553,4.3749995,55,60,41
4.3749995,4.444444,57,60,41
4.444444,5.543981,58,60,41
5.555555,6.516203,53,100,41
6.527777,6.655092,55,100,41
6.666666,7.2106476,52,60,41
8.198784,8.315971,55,60,41
8.315971,8.550346,48,60,41
8.550346,8.774956,52,60,41
8.784721,9.243706,53,60,41
11.128471,11.480034,53,60,41
11.480034,11.597221,55,60,41
11.597221,11.763237,57,60,41
11.831596,12.065971,65,60,41
12.065971,12.300346,64,60,41
12.300346,12.524956,62,60,41
12.534721,12.993706,60,60,41
13.706596,13.940971,55,60,41
13.940971,14.175346,52,60,41
14.175346,14.399956,48,60,41
14.409721,14.761284,57,60,41
14.761284,14.878471,58,60,41
14.878471,15.581596,60,60,41
15.698784,15.815971,65,60,41
15.815971,16.050346,64,60,41
16.050346,16.274956,62,60,41
16.284721,16.519096,60,60,41
16.636284,16.753471,62,67,41
16.753471,16.987846,58,70,41
16.987846,17.222221,55,75,41
17.222221,17.456596,53,80,41
17.573784,17.690971,55,88,41
17.690971,17.940971,52,90,41
17.940971,18.197668,48,75,41
18.208828,18.698412,53,60,41
19.208828,20.198412,60,90,41
20.208828,21.198412,50,90,41
21.208828,22.198412,57,90,41
22.208828,23.198412,55,90,41
23.208828,24.198412,62,90,41
24.208828,25.198412,52,90,41
25.208828,26.198412,58,90,41
26.208828,27.198412,57,90,41
27.208828,28.269096,53,60,41
28.280256,30.692366,50,60,41
30.702131,31.043928,55,86,41
30.702131,31.043928,62,86,41
31.170881,31.512678,55,92,41
31.170881,31.512678,62,92,41
31.639631,32.016945,55,97,41
31.639631,32.016945,62,97,41
32.167408,32.656994,48,110,41
32.167408,32.656994,60,110,41
33.667408,34.042408,50,60,41
34.042408,34.156994,53,60,41
34.167408,34.531994,52,60,41
34.667408,35.031994,52,60,41
35.167408,36.656994,51,60,41
36.667408,37.042408,54,60,41
37.042408,37.156994,58,60,41
37.167408,37.531994,50,60,41
37.667408,38.031994,50,60,41
38.167408,38.656994,50,60,41
38.667408,39.042408,50,60,41
39.042408,39.156994,53,60,41
39.167408,39.531994,52,60,41
39.667408,40.031994,52,60,41
40.167408,40.542408,52,60,41
40.542408,40.656994,55,60,41
40.667408,41.156994,53,60,41
41.167408,42.156994,72,60,41
42.167408,43.156994,65,60,41
43.167408,44.156994,69,60,41
44.167408,44.656994,62,60,41
44.667408,45.042408,64,60,41
45.042408,45.156994,67,60,41
45.167408,45.531994,65,60,41
45.667408,46.031994,65,60,41
46.167408,46.656994,65,60,41
46.667408,47.069195,62,60,41
47.069195,47.191963,59,60,41
47.203125,47.623795,58,60,41
47.780045,48.25559,58,60,41
48.43222,48.609303,57,60,41
48.68222,48.848236,57,60,41
48.916595,49.08261,57,60,41
49.15097,49.316986,57,60,41
49.385345,49.84433,57,60,41
52.3282,52.505283,53,60,41
52.3282,52.505283,57,60,41
52.5782,52.744217,65,60,41
52.812576,52.978592,65,60,41
53.04695,53.212967,65,60,41
53.281326,53.74031,65,60,41
56.224182,56.40737,62,60,41
56.482803,56.64882,71,60,41
56.71718,56.883194,71,60,41
56.951553,57.11757,71,60,41
57.18593,57.644913,71,60,41
58.357803,58.59218,67,60,41
58.59218,58.826553,62,60,41
58.826553,59.06093,64,60,41
59.06093,59.226944,62,60,41
59.295303,59.52968,59,60,41
59.52968,59.764053,55,60,41
59.764053,59.99843,57,60,41
59.99843,60.457413,59,60,41
63.74843,65.61366,55,60,41
65.62343,66.7953,48,60,41
66.7953,67.02968,48,60,41
67.02968,67.25429,52,60,41
67.38124,67.48866,52,60,41
67.49843,69.59804,52,60,41
69.6078,69.84218,52,88,41
69.84218,70.008194,58,91,41
70.07655,70.24257,58,94,41
70.31093,70.476944,57,97,41
70.5453,70.71132,57,100,41
70.77968,70.956764,62,90,41
71.02968,71.22644,62,80,41
71.55746,71.79183,55,60,41
71.79183,71.95785,67,60,41
72.02621,72.19222,67,60,41
72.49496,72.72933,55,60,41
72.72933,72.90642,62,60,41
72.97933,73.16907,62,60,41
73.24719,73.41386,60,60,41
73.41386,73.57532,55,61,41
73.57532,73.73157,57,63,41
73.73157,73.88782,55,65,41
73.88782,74.04407,52,67,41
74.04407,74.20032,53,69,41
74.20032,74.35657,52,71,41
74.35657,74.51282,48,73,41
74.51282,74.66907,50,75,41
74.66907,75.12805,48,77,41
76.07532,76.23157,55,95,41
76.23157,76.38782,59,96,41
76.38782,76.54407,62,98,41
76.54407,76.70032,67,100,41
76.70032,76.85657,71,90,41
76.85657,77.01282,74,80,41
77.01282,77.4718,71,60,41
78.41907,78.57532,71,85,41
78.57532,78.73157,69,88,41
78.73157,78.88782,67,91,41
78.88782,79.0343,72,93,41
79.04407,79.19055,67,96,41
79.20032,79.3468,64,99,41
79.35657,79.50305,60,102,41
79.51282,79.6593,55,105,41
79.66907,79.81555,52,108,41
79.82532,80.2843,48,110,41
81.70032,82.042114,48,110,41
82.16907,82.510864,52,110,41
82.63782,82.979614,55,110,41
83.10657,83.448364,59,110,41
83.57532,83.92814,62,110,41
84.05918,84.4365,65,80,41
84.58696,84.748604,67,50,41
84.75938,84.91394,69,50,41
84.923706,85.07019,71,50,41
85.079956,85.22644,72,50,41
85.236206,85.38269,74,50,41
85.392456,85.53894,72,50,41
85.548706,85.69519,57,50,41
85.704956,85.85144,58,50,41
85.861206,86.00769,60,50,41
86.017456,86.16394,62,50,41
86.173706,86.32019,64,50,41
86.329956,86.47644,62,50,41
86.486206,86.63269,64,50,41
86.642456,86.78894,64,50,41
86.798706,86.94519,64,50,41
86.954956,87.10144,64,50,41
87.111206,87.25769,64,50,41
87.267456,87.41394,64,50,41
87.423706,87.57492,66,50,41
87.585,87.736206,64,50,41
87.746284,87.8975,62,50,41
87.90758,88.069214,62,50,41
88.079994,88.247215,62,50,41
88.25879,88.4324,62,50,41
88.44398,88.93356,60,60,41
88.94398,89.40296,55,70,41
89.41273,89.754524,60,80,41
89.88148,90.223274,57,70,41
90.35023,91.74671,55,60,41
91.75648,91.99085,57,60,41
91.99085,92.21546,59,60,41
92.22523,92.68421,60,65,41
92.69398,93.15296,62,69,41
93.16273,93.504524,64,73,41
93.63148,93.973274,60,77,41
94.10023,94.55921,59,82,41
94.56898,95.02796,56,86,41
95.03773,95.51151,57,90,41
95.5216,96.04615,50,80,41
96.05731,96.2969,50,50,41
96.30731,96.53192,59,50,41
96.54169,96.7663,59,50,41
96.77606,97.00067,71,50,41
97.01044,97.23505,71,50,41
97.24481,97.46942,71,50,41
97.47919,97.7038,71,50,41
97.71356,97.93817,71,50,41
97.94794,98.17255,64,50,41
98.18231,98.40692,64,50,41
98.41669,98.6413,64,50,41
98.65106,98.87567,64,50,41
98.88544,99.117294,64,50,41
99.12737,99.35922,60,50,41
99.36931,99.60889,60,50,41
99.61931,99.876,72,50,41
99.88716,100.05457,72,50,41
100.065735,100.22338,71,50,41
100.23315,100.37963,71,50,41
100.3894,100.53588,71,50,41
100.54565,100.69213,71,50,41
100.7019,100.84838,71,50,41
100.85815,101.00463,71,50,41
101.0144,101.16088,71,50,41
101.17065,101.31713,71,50,41
101.3269,101.47338,71,50,41
101.48315,101.62963,71,50,41
101.6394,101.78588,71,50,41
101.79565,101.94213,64,55,41
101.9519,102.09838,64,61,41
102.10815,102.25463,64,67,41
102.2644,102.41088,59,74,41
102.42065,102.56713,59,80,41
102.5769,102.72338,59,70,41
102.73315,102.88435,60,60,41
102.89443,103.04565,60,60,41
103.055725,103.20693,60,60,41
103.21702,103.37327,62,60,41
103.38368,103.54514,62,60,41
103.556305,103.72371,62,60,41
103.73487,104.692535,48,60,41
104.702614,105.66027,50,76,41
105.67036,106.02318,52,60,41
106.15423,106.50705,53,60,41
106.6381,106.99092,55,60,41
107.605835,108.5635,52,60,41
107.605835,109.531235,55,60,41
108.57358,109.531235,53,73,41
109.54132,109.89414,55,86,41
110.02519,110.37801,57,93,41
110.50906,110.67035,55,99,41
110.67035,110.83164,57,102,41
110.83164,110.99293,55,104,41
110.99293,111.1715,53,106,41
111.1715,111.36079,52,108,41
111.36079,111.54829,50,110,41
111.56079,112.019775,52,110,41
112.96704,113.426025,67,60,41
113.43579,113.894775,65,60,41
114.84204,115.301025,50,60,41
115.31079,115.769775,48,60,41
116.71704,117.176025,67,60,41
117.18579,117.644775,65,60,41
118.62329,119.77864,50,60,41
118.62329,119.77864,55,60,41
125.61614,125.67864,59,60,41
125.67864,125.74114,60,60,41
125.74114,126.73073,62,60,41
126.74114,127.61614,57,60,41
127.61614,127.74114,59,60,41
127.74114,128.23073,55,60,41
136.74115,137.73073,63,60,41
137.74115,138.73073,53,60,41
138.74115,139.73073,60,60,41
139.74115,140.73073,58,60,41
140.74115,141.73073,65,60,41
141.74115,142.73073,55,60,41
142.74115,143.73073,61,60,41
143.74115,143.8974,48,60,41
143.9078,144.06406,51,60,41
144.07448,144.23073,56,60,41
144.24115,144.3974,60,60,41
144.4078,144.56406,63,60,41
144.57448,144.73073,68,60,41
144.74115,145.49115,67,60,41
145.49115,145.61615,69,60,41
145.61615,145.67865,49,60,41
145.67865,145.74115,51,60,41
145.74115,146.73073,53,60,41
146.74115,147.61615,48,60,41
147.61615,147.73073,49,60,41
147.74115,148.23073,49,60,41
148.24115,148.73073,61,60,41
148.74115,149.49115,60,60,41
149.49115,149.61615,61,60,41
149.61615,149.67865,58,60,41
149.67865,149.74115,60,60,41
149.74115,150.73073,61,60,41
150.74115,151.49115,56,60,41
151.49115,151.61615,58,60,41
151.61615,151.67865,56,60,41
151.67865,151.74115,58,60,41
151.74115,152.73073,60,60,41
152.74115,153.61615,61,72,41
153.61615,153.73073,63,83,41
153.74115,154.66888,63,85,41
154.67865,154.82513,53,98,41
154.8349,154.98138,57,100,41
154.99115,155.13763,60,102,41
155.1474,155.29388,65,104,41
155.30365,155.45013,69,106,41
155.4599,155.60638,72,108,41
155.61615,155.85052,72,110,41
155.96771,156.0849,60,110,41
156.0849,156.3349,53,110,41
156.3349,156.61267,57,110,41
156.61267,157.15665,60,110,41
159.01285,159.13004,60,60,41
159.13004,159.36441,53,60,41
159.36441,159.59879,57,60,41
159.59879,160.05777,58,60,41
161.94254,162.2941,58,84,41
162.2941,162.41129,60,95,41
162.41129,162.76285,62,99,41
162.76285,162.88004,55,110,41
162.88004,163.11441,48,110,41
163.11441,163.34879,52,110,41
163.34879,163.80777,55,110,41
165.69254,166.03433,57,60,41
166.16129,166.50308,55,60,41
166.63004,166.97183,52,60,41
167.56754,167.94254,57,60,41
167.94254,168.06754,58,60,41
168.06754,169.05711,60,60,41
169.56754,171.35503,69,60,41
171.96753,172.37662,57,60,41
172.37662,172.51299,59,60,41
172.51299,173.50256,60,60,41
173.51299,173.8704,52,60,41
173.99736,174.33916,57,60,41
174.46611,174.8079,52,60,41
174.93486,175.27666,56,60,41
175.40361,175.7454,52,60,41
175.87236,176.21416,56,60,41
176.34111,176.6829,52,60,41
176.80986,177.15166,61,60,41
177.27861,177.6204,62,60,41
177.98174,178.32353,65,60,41
178.45049,178.79228,64,60,41
178.91924,179.26103,69,60,41
179.15361,179.26103,69,60,41
179.30986,179.45634,67,60,41
179.46611,179.6126,65,60,41
179.62236,179.76884,67,60,41
179.77861,179.9251,65,60,41
179.93486,180.08134,64,60,41
180.09111,180.2376,66,60,41
180.24736,180.39384,67,60,41
180.40361,180.5501,69,60,41
180.55986,180.70634,69,60,41
180.71611,180.8626,67,60,41
180.87236,181.01884,66,60,41
181.02861,181.1751,71,60,41
181.18486,181.33134,72,60,41
181.34111,181.4876,74,60,41
181.49736,181.64384,74,60,41
181.65361,181.8001,74,60,41
181.80986,181.95634,74,60,41
181.96611,182.1126,72,60,41
182.12236,182.26884,71,60,41
182.27861,182.4251,69,60,41
182.43486,182.58134,69,60,41
182.59111,182.7376,69,60,41
182.74736,182.89384,69,60,41
182.90361,183.0501,71,60,41
183.05986,183.20634,69,60,41
183.21611,183.3626,67,60,41
183.37236,183.51884,69,60,41
183.52861,183.6751,67,60,41
183.68486,183.83134,66,60,41
183.84111,184.3001,67,60,41
184.77861,184.9251,55,60,41
184.93486,185.08134,57,60,41
185.09111,185.2376,59,60,41
185.09111,185.2376,57,60,41
185.24736,185.39384,57,60,41
185.40361,185.5501,59,60,41
185.55986,185.70634,60,60,41
185.71611,185.8626,59,60,41
185.87236,186.01884,60,60,41
186.02861,186.1751,62,60,41
186.18486,186.33134,59,60,41
186.34111,186.4876,60,60,41
186.49736,186.64384,59,60,41
186.65361,186.8001,67,60,41
186.80986,186.95634,69,60,41
186.96611,187.1126,71,60,41
187.12236,187.26884,72,60,41
187.27861,187.4251,71,60,41
187.43486,187.58134,69,60,41
187.59111,187.7376,67,60,41
187.74736,187.89384,63,60,41
187.90361,188.0501,62,60,41
188.05986,188.20634,59,60,41
188.21611,188.3626,60,60,41
188.37236,188.51884,62,60,41
188.52861,188.6751,52,60,41
188.68486,188.83134,54,60,41
188.84111,188.9876,55,60,41
188.99736,189.14384,57,60,41
189.15361,189.3001,55,60,41
189.30986,189.45634,54,60,41
189.46611,189.6126,55,60,41
189.62236,189.76884,54,60,41
189.77861,189.9251,52,60,41
189.93486,190.08134,52,60,41
190.09111,190.2376,54,60,41
190.24736,190.39384,55,60,41
190.40361,190.7454,60,60,41
190.87236,191.21416,57,60,41
191.34111,191.6829,60,60,41
191.69267,191.75127,60,60,41
191.75127,191.80986,62,60,41
191.80986,192.15166,64,60,41
192.27861,192.4251,64,60,41
192.43486,192.58134,65,62,41
192.59111,192.7376,67,64,41
192.74736,192.89384,68,66,41
192.90361,193.0501,67,68,41
193.05986,193.20634,65,70,41
193.21611,193.3626,67,72,41
193.37236,193.51884,65,74,41
193.52861,193.6751,64,76,41
193.68486,193.83134,64,79,41
193.84111,193.9876,65,81,41
193.99736,194.14384,67,83,41
194.15361,194.3001,55,85,41
194.30986,194.45634,55,87,41
194.46611,194.6126,55,89,41
194.62236,194.76884,53,91,41
194.77861,194.9251,52,93,41
194.93486,195.08134,50,96,41
195.09111,195.2376,52,98,41
195.24736,195.39384,50,100,41
195.40361,195.5501,48,102,41
195.55986,195.71611,58,104,41
195.72653,195.88486,58,106,41
195.88486,195.95987,58,108,41
195.95987,196.03487,55,100,41
196.03487,196.10986,57,100,41
196.10986,197.07108,58,110,41
197.08084,197.90115,53,110,41
197.90115,198.01834,55,110,41
198.01834,198.47733,52,110,41
199.3074,199.42459,58,110,41
199.42459,199.65897,53,110,41
199.65897,199.89334,55,110,41
199.89334,200.35233,52,110,41
201.1824,201.29959,55,60,41
201.29959,201.53397,48,60,41
201.53397,201.76834,52,60,41
201.76834,202.00272,53,60,41
202.1199,202.23709,57,60,41
202.23709,202.47147,48,60,41
202.47147,202.70584,53,60,41
202.70584,202.94022,55,60,41
203.0574,203.17459,58,60,41
203.17459,203.40897,48,60,41
203.40897,203.64334,55,60,41
203.64334,203.9949,57,60,41
203.9949,204.11209,58,60,41
204.11209,204.80545,60,60,41
204.81522,205.04959,65,60,41
205.04959,205.28397,64,60,41
205.28397,205.51834,62,60,41
205.51834,205.68436,60,60,41
205.75272,205.98709,62,60,41
205.98709,206.22147,58,60,41
206.22147,206.45584,55,60,41
206.45584,206.62186,53,60,41
206.69022,206.92459,55,60,41
206.92459,207.15897,52,60,41
207.15897,207.39334,48,60,41
207.39334,207.7449,69,60,41
207.7449,207.86209,70,60,41
207.86209,208.55545,60,60,41
208.6824,208.79959,65,60,41
208.79959,209.03397,64,60,41
209.03397,209.26834,62,60,41
209.26834,209.50272,60,60,41
209.6199,209.73709,50,60,41
209.73709,209.97147,58,60,41
209.97147,210.20584,62,60,41
210.20584,210.44778,57,60,41
210.56874,210.68971,52,60,41
210.68971,210.94833,55,60,41
210.94833,211.24834,64,60,41
211.24834,211.83583,57,60,41
211.24834,211.83583,65,60,41
212.44833,212.90732,59,60,41
212.91708,213.37607,60,60,41
213.38583,213.84482,49,60,41
213.85458,214.31357,50,60,41
214.32333,214.78232,57,60,41
214.79208,215.25107,58,60,41
215.26083,215.71982,57,60,41
215.72958,216.18857,55,60,41
216.19833,216.65732,61,60,41
216.66708,217.12607,62,60,41
217.13583,217.59482,51,60,41
217.60458,218.06357,52,60,41
218.07333,218.53232,60,60,41
218.54208,219.01587,58,60,41
219.02596,219.51553,58,60,41
219.52596,220.0505,57,60,41
220.06168,220.55125,64,60,41
220.56168,221.05125,65,60,41
221.06168,221.52066,54,60,41
221.53043,221.98941,55,60,41
221.99918,222.45816,62,60,41
222.46793,222.92691,63,60,41
222.93668,223.39566,62,60,41
223.40543,223.86441,60,60,41
227.62418,228.08316,53,63,41
228.09293,228.55191,51,66,41
228.56168,229.02066,51,70,41
229.03043,229.48941,50,73,41
229.49918,229.95816,60,76,41
229.96793,230.42691,58,80,41
230.43668,230.89566,54,83,41
230.90543,231.36441,55,87,41
231.37418,231.83316,55,90,41
231.84293,232.30191,51,93,41
232.31168,232.65347,48,97,41
232.78043,233.12222,60,100,41
233.24918,233.60199,60,104,41
233.73305,234.12387,60,107,41
234.28012,234.7697,58,110,41
235.28012,236.7697,52,60,41
236.78012,237.15512,51,60,41
237.15512,237.28012,53,60,41
237.28012,237.6447,52,60,41
237.78012,238.1447,52,60,41
238.28012,238.7697,52,60,41
238.78012,239.15512,55,60,41
239.15512,239.28012,52,60,41
239.28012,239.6447,53,60,41
239.78012,240.17075,53,60,41
240.31584,241.30542,53,60,41
240.31584,242.30542,55,60,41
241.31584,242.30542,52,60,41
242.31584,242.49292,53,60,41
242.56584,242.73186,60,60,41
242.80022,242.96623,60,60,41
243.03459,243.2006,60,60,41
243.26897,243.72795,65,60,41
246.08147,246.24748,53,60,41
246.31584,246.48186,65,60,41
246.55022,246.71623,65,60,41
246.78459,246.9506,65,60,41
247.01897,247.47795,65,60,41
249.12834,249.29436,57,60,41
249.36272,249.52873,59,60,41
249.59709,249.7631,59,60,41
249.83147,251.6967,60,60,41
251.70647,253.5717,55,60,41
254.75334,254.98772,48,60,41
254.98772,255.22209,55,60,41
255.33928,255.4467,55,60,41
255.45647,255.69084,55,60,41
255.69084,255.92522,48,60,41
255.92522,256.09122,53,60,41
256.15958,256.3256,53,60,41
256.39395,256.62833,53,60,41
256.62833,256.8627,48,60,41
256.8627,257.09708,57,60,41
257.21426,257.3217,57,60,41
257.33145,259.1967,53,60,41
257.33145,259.1967,57,60,41
259.20645,260.1342,51,93,41
260.14395,260.60294,50,110,41
260.6127,261.0717,55,85,41
261.31583,261.48184,53,60,41
261.5502,261.71622,48,60,41
261.78458,261.9506,48,60,41
262.2609,262.43228,48,60,41
262.50284,262.68604,55,60,41
262.76144,262.95822,55,60,41
263.03925,264.45135,57,60,41
264.46112,264.6076,69,81,41
264.61737,264.76385,67,84,41
264.77362,264.9201,65,86,41
264.92987,265.07635,70,89,41
265.08612,265.2326,67,91,41
265.24237,265.38885,64,93,41
265.39862,265.5451,58,96,41
265.55487,265.70135,55,98,41
265.71112,265.8576,52,101,41
265.86737,266.32635,48,103,41
266.8639,267.02014,67,61,41
267.03055,267.18225,64,62,41
267.19202,267.3385,65,65,41
267.34827,267.49475,58,68,41
267.50452,267.651,55,71,41
267.66077,267.80725,57,74,41
267.81702,267.9635,55,76,41
267.97327,268.11975,52,79,41
268.12952,268.276,53,82,41
268.28577,268.74475,52,85,41
269.69202,270.0338,65,110,41
270.16077,270.53354,72,110,41
270.67862,270.83487,70,110,41
270.84528,270.99698,65,110,41
271.00674,271.15323,67,110,41
271.163,271.30948,65,110,41
271.31924,271.46573,62,110,41
271.4755,271.62198,63,110,41
271.63174,271.77823,62,110,41
271.788,271.93448,58,110,41
271.94424,272.09073,60,110,41
272.1005,272.55948,58,110,41
273.50674,273.65323,53,110,41
273.663,273.80948,57,110,41
273.81924,273.96573,60,110,41
273.9755,274.12198,65,110,41
274.13174,274.27823,69,110,41
274.288,274.43448,72,110,41
274.44424,274.59073,63,110,41
274.6005,274.74698,60,110,41
274.75674,274.90323,62,110,41
274.913,275.05948,60,110,41
275.06924,275.21573,57,110,41
275.2255,275.37198,58,110,41
275.38174,275.52823,57,110,41
275.538,275.68448,53,110,41
275.69424,275.84073,55,110,41
275.8505,276.30948,53,110,41
277.25674,277.40323,70,110,41
277.413,277.55948,65,110,41
277.56924,277.71573,62,110,41
277.7255,277.87198,58,110,41
277.88174,278.02823,53,110,41
278.038,278.18448,50,110,41
278.19424,278.53604,52,110,41
278.663,279.0048,55,110,41
279.13174,280.1223,52,110,41
279.13174,280.1223,55,110,41
280.13345,280.2897,67,50,41
280.30014,280.4518,62,50,41
280.46158,280.60806,64,50,41
280.61783,280.7643,65,50,41
280.77408,280.92056,67,50,41
280.93033,281.0768,65,50,41
281.08658,281.23306,65,50,41
281.24283,281.3893,70,50,41
281.39908,281.54556,70,50,41
281.55533,281.7018,70,50,41
281.71158,281.85806,67,50,41
281.86783,282.0143,67,50,41
282.02408,282.17056,67,50,41
282.18033,282.3268,67,50,41
282.33658,282.48306,67,50,41
282.49283,282.6393,67,50,41
282.64908,282.79556,65,50,41
282.80533,282.9518,65,50,41
282.96158,283.10806,62,50,41
282.96158,283.10806,65,50,41
283.11783,283.2643,62,50,41
283.11783,283.2643,65,50,41
283.27408,283.42056,62,50,41
283.27408,283.42056,65,50,41
283.43033,283.58658,64,50,41
283.59702,283.76135,65,50,41
283.77295,283.94653,64,50,41
283.95813,286.3674,56,60,41
286.37747,286.85126,57,50,41
286.86136,287.21417,58,50,41
287.3452,287.69803,55,50,41
287.82907,288.3029,53,55,41
288.31296,288.78674,64,60,41
288.7968,289.14966,67,66,41
289.2807,289.6335,62,72,41
289.76456,290.23834,61,78,41
290.24844,290.72223,64,84,41
290.7323,291.0969,65,90,41
291.2323,291.6374,65,70,41
291.78787,291.96494,65,50,41
292.03787,292.2039,64,50,41
292.27225,292.43826,64,50,41
292.50662,292.67264,64,50,41
292.741,292.907,64,50,41
292.97537,293.1414,64,50,41
293.20975,293.37576,64,50,41
293.44412,293.61014,64,50,41
293.6785,293.8445,57,50,41
293.91287,294.0789,53,50,41
294.14725,294.31326,53,50,41
294.38162,294.54764,53,50,41
294.616,294.782,53,50,41
294.85037,295.0164,53,50,41
295.08475,295.2618,53,50,41
295.33475,295.5315,65,50,41
295.61252,295.78613,69,50,41
295.7977,295.95865,69,50,41
295.9684,296.1149,69,50,41
296.12466,296.27115,65,50,41
296.2809,296.4274,65,50,41
296.43716,296.58365,65,50,41
296.5934,296.7399,65,50,41
296.74966,296.89615,65,50,41
296.9059,297.0524,65,50,41
297.06216,297.20865,65,50,41
297.2184,297.3649,65,50,41
297.37466,297.52115,65,55,41
297.5309,297.6774,65,60,41
297.68716,297.83365,65,67,41
297.8434,297.9899,65,75,41
297.99966,298.14615,65,82,41
298.1559,298.3024,65,90,41
298.31216,298.45865,65,80,41
298.4684,298.61963,65,60,41
298.6297,298.7809,65,60,41
298.791,298.9422,65,60,41
298.9523,299.10855,70,60,41
298.9523,299.10855,67,60,41
299.11896,299.2833,70,60,41
299.11896,299.2833,67,60,41
299.2949,299.4685,70,60,41
299.2949,299.4685,67,60,41
299.48007,300.4377,57,60,41
300.4478,301.40546,58,76,41
301.41556,301.76837,60,60,41
301.8994,302.25223,62,60,41
302.3833,302.7361,64,60,41
302.86716,304.4599,60,60,41
304.48007,304.64136,62,76,41
304.64136,304.80264,60,79,41
304.80264,304.96393,58,81,41
304.96393,305.1252,57,84,41
305.1252,305.27643,55,86,41
305.2865,305.4478,65,89,41
305.4478,305.6091,69,91,41
305.6091,305.7704,67,93,41
305.7704,305.93167,65,96,41
305.93167,306.09296,64,98,41
306.09296,306.25424,62,101,41
306.25424,306.42093,60,103,41
306.42093,306.5876,62,106,41
306.5876,306.75424,60,108,41
306.75424,306.93283,58,110,41
306.93283,307.1221,57,110,41
307.1221,307.3096,55,110,41
307.3221,307.9096,48,110,41
307.3221,307.9096,60,110,41
309.02213,309.5117,69,60,41
309.52213,310.0117,67,60,41
310.89713,311.02213,58,60,41
311.02213,311.27213,52,60,41
311.27213,311.52213,55,60,41
311.52213,312.0117,48,60,41
311.52213,312.0117,57,60,41
313.02213,313.5117,72,60,41
313.52213,314.0117,70,60,41
314.9239,315.05783,58,60,41
315.05783,315.32568,52,60,41
315.32568,315.58237,55,60,41
315.59354,316.1181,52,60,41
315.59354,316.1181,55,60,41
320.66498,321.15454,61,60,41
321.16498,321.65454,62,60,41
321.66498,322.15454,51,60,41
322.16498,322.65454,52,60,41
322.66498,323.15454,60,60,41
323.16498,323.65454,58,60,41
323.66498,324.15454,58,60,41
324.16498,324.65454,57,60,41
327.53998,327.60248,64,60,41
327.60248,327.66498,65,60,41
327.66498,328.15454,67,60,41
333.66498,333.82123,48,60,41
333.83163,333.98788,52,61,41
333.9983,334.15454,55,62,41
334.16498,334.32123,60,63,41
334.33163,334.48788,64,64,41
334.4983,334.65454,67,65,41
334.66498,335.15454,70,66,41
336.53998,336.60248,65,79,41
336.60248,336.66498,67,79,41
336.66498,337.15454,69,80,41
337.53998,337.60248,55,86,41
337.60248,337.66498,57,86,41
337.66498,338.65454,58,87,41
338.66498,339.41498,53,93,41
339.41498,339.53998,55,99,41
339.53998,339.60248,53,99,41
339.60248,339.66498,55,100,41
339.66498,340.65454,57,100,41
340.66498,341.41498,52,107,41
341.53998,341.60248,55,110,41
341.60248,341.66498,57,110,41
341.66498,341.8896,58,110,41
342.01654,342.07513,64,110,41
342.07513,342.13373,65,110,41
342.13373,342.35834,67,110,41
342.4853,342.54388,60,110,41
342.54388,342.60248,62,110,41
342.60248,342.8271,64,110,41
342.95404,343.01263,55,110,41
343.01263,343.07123,57,110,41
343.07123,343.29584,58,110,41
343.4228,343.48138,52,110,41
343.48138,343.53998,53,110,41
343.53998,343.7646,55,110,41
343.89154,343.95013,48,110,41
343.95013,344.00873,50,110,41
344.00873,344.23334,52,110,41
344.3603,344.41888,55,110,41
344.41888,344.47748,57,110,41
344.47748,344.63373,58,60,41
344.63373,344.78998,62,60,41
344.78998,344.94623,60,60,41
344.94623,345.1233,58,60,41
345.1233,345.30847,57,60,41
345.30847,345.4821,55,60,41
345.49368,346.4648,53,60,41
346.47458,346.62106,52,60,41
346.63083,346.7773,62,60,41
346.78708,346.93356,60,60,41
346.94333,347.0898,58,60,41
347.09958,347.24606,57,60,41
347.25583,347.4023,55,60,41
347.41208,347.75388,53,60,41
347.88083,348.22263,55,60,41
348.34958,348.69138,48,60,41
348.81833,349.0527,53,60,41
349.0527,349.2773,55,60,41
349.44333,349.5898,72,62,41
349.59958,349.74606,70,64,41
349.75583,349.9023,69,66,41
349.91208,350.05856,67,69,41
350.06833,350.2148,65,71,41
350.22458,351.1523,64,73,41
351.16208,351.50388,65,87,41
351.63083,351.97263,74,94,41
352.09958,352.46414,72,100,41
352.59958,353.00467,51,110,41
353.15512,355.36578,51,100,41
355.37735,355.78244,51,91,41
356.34958,356.419,69,60,41
356.419,356.48846,70,60,41
356.48846,357.03244,72,60,41
357.4607,357.53012,60,110,41
357.53012,357.59958,62,110,41
357.59958,358.6991,63,110,41
358.7107,359.6829,58,110,41
359.6829,359.8102,60,110,41
359.8218,360.2269,57,110,41
360.23846,360.3079,72,110,41
360.3079,360.37735,74,110,41
360.37735,360.92133,75,110,41
361.34958,361.48846,60,60,41
361.48846,361.74707,53,60,41
361.74707,362.0057,57,60,41
362.0057,362.51218,58,60,41
365.42618,365.779,55,60,41
367.2407,367.36163,58,60,41
367.36163,367.60358,48,60,41
367.60358,367.84552,55,60,41
367.84552,368.20844,57,60,41
368.20844,368.32938,58,60,41
368.32938,369.0451,60,60,41
369.0552,369.29712,65,60,41
369.29712,369.53906,64,60,41
369.53906,369.781,62,60,41
369.781,369.95236,60,60,41
370.02295,370.26486,58,60,41
370.26486,370.5068,52,60,41
370.5068,370.74875,58,60,41
370.74875,370.9201,57,60,41
370.9907,371.2326,58,60,41
371.2326,371.4826,55,60,41
371.4826,371.75046,64,60,41
371.75046,372.20047,65,70,41
372.20047,372.35046,67,80,41
372.35046,372.93796,57,83,41
372.95047,373.53796,58,97,41
373.55048,375.33798,53,110,41
373.55048,375.33798,60,110,41
375.72546,375.85046,65,60,41
375.85046,376.10046,64,60,41
376.10046,376.35046,62,60,41
376.35046,376.59006,60,60,41
376.72546,376.85046,62,60,41
376.85046,377.11832,58,60,41
377.11832,377.38617,55,60,41
377.38617,377.66263,53,60,41
377.81888,377.9631,55,60,41
377.9631,378.28918,52,60,41
378.28918,378.92776,48,60,41
378.94138,379.90604,53,60,41
1.111111,2.2106478,37,90,42
2.222222,2.7662034,36,90,42
5.555555,6.655092,37,100,42
6.666666,7.2106476,36,60,42
19.208828,20.198412,48,90,42
20.208828,21.198412,38,90,42
21.208828,22.198412,45,90,42
22.208828,23.198412,43,90,42
23.208828,24.198412,50,90,42
24.208828,25.198412,40,90,42
25.208828,26.198412,46,90,42
26.208828,27.198412,45,90,42
27.208828,28.269096,38,60,42
28.280256,30.692366,43,60,42
30.702131,31.043928,43,86,42
31.170881,31.512678,43,92,42
31.639631,32.016945,43,97,42
32.167408,32.656994,36,110,42
34.667408,35.042408,40,60,42
35.042408,35.156994,43,60,42
35.167408,35.531994,42,60,42
35.667408,36.031994,42,60,42
36.167408,37.156994,42,60,42
37.167408,38.521576,46,60,42
38.542408,38.656994,38,60,42
38.667408,39.031994,43,60,42
39.167408,39.531994,43,60,42
39.667408,40.031994,43,60,42
40.167408,40.656994,43,60,42
40.667408,41.031994,41,60,42
41.167408,41.531994,41,60,42
41.667408,42.031994,41,60,42
42.667408,43.042408,60,60,42
43.042408,43.156994,64,60,42
43.167408,43.531994,62,60,42
43.667408,44.031994,62,60,42
45.167408,46.156994,56,60,42
46.167408,46.656994,47,60,42
46.667408,47.069195,47,60,42
47.069195,47.191963,50,60,42
47.203125,47.623795,48,60,42
47.780045,48.25559,48,60,42
48.43222,48.609303,53,60,42
48.68222,48.848236,53,60,42
48.916595,49.08261,53,60,42
49.15097,49.316986,53,60,42
49.385345,49.84433,53,60,42
52.3282,52.505283,50,60,42
52.5782,52.744217,62,60,42
52.812576,52.978592,62,60,42
53.04695,53.212967,62,60,42
53.281326,53.74031,62,60,42
56.224182,56.40737,59,60,42
56.482803,56.64882,55,60,42
56.71718,56.883194,55,60,42
56.951553,57.11757,55,60,42
57.18593,57.644913,55,60,42
59.99843,61.863663,67,60,42
61.87343,63.738663,62,60,42
65.62343,65.8578,43,60,42
65.8578,66.09218,36,60,42
66.09218,66.258194,43,60,42
66.32655,66.49257,43,60,42
66.56093,66.7953,43,60,42
66.7953,67.02968,36,60,42
67.02968,67.25429,48,60,42
67.38124,67.48866,48,60,42
67.49843,68.42616,48,60,42
68.43593,69.36366,44,72,42
69.37343,70.30116,43,85,42
70.31093,70.76991,42,97,42
70.77968,71.78207,41,90,42
71.79183,72.13363,40,60,42
72.26058,72.60238,41,60,42
72.72933,73.1021,43,60,42
74.66907,74.82532,64,77,42
74.82532,74.98157,62,79,42
74.98157,75.13782,60,81,42
75.13782,75.29407,65,83,42
75.29407,75.45032,62,85,42
75.45032,75.60657,59,87,42
75.60657,75.76282,55,89,42
75.76282,75.91907,50,91,42
75.91907,76.07532,47,93,42
79.82532,79.9718,60,110,42
79.98157,80.12805,55,110,42
80.13782,80.2843,52,110,42
80.29407,80.44055,48,110,42
80.45032,80.5968,43,110,42
80.60657,80.75305,40,110,42
80.76282,81.104614,36,110,42
81.23157,81.573364,40,110,42
81.70032,82.042114,43,110,42
82.16907,82.510864,48,110,42
82.63782,82.979614,47,110,42
83.10657,83.448364,50,110,42
83.57532,83.74668,53,110,42
83.817245,83.98862,55,95,42
84.05918,84.23627,59,80,42
84.30918,84.50594,62,65,42
85.079956,85.53894,60,50,42
85.548706,85.69519,53,50,42
85.704956,85.85144,55,50,42
85.861206,86.00769,57,50,42
86.017456,86.16394,58,50,42
86.173706,86.32019,60,50,42
86.329956,86.47644,58,50,42
86.486206,86.94519,59,50,42
86.954956,87.41394,57,50,42
87.423706,87.57492,50,50,42
87.585,87.736206,52,50,42
87.746284,87.8975,54,50,42
87.90758,88.069214,55,50,42
88.079994,88.247215,57,50,42
88.25879,88.4324,55,50,42
88.44398,90.80921,51,60,42
90.81898,91.27796,52,60,42
91.28773,91.629524,53,60,42
91.75648,92.098274,50,60,42
92.22523,92.68421,48,65,42
92.69398,93.15296,47,69,42
93.16273,93.504524,48,73,42
93.63148,93.973274,45,77,42
94.10023,94.55921,44,82,42
94.56898,95.02796,40,86,42
95.03773,96.04615,41,90,42
96.05731,96.53192,40,50,42
96.54169,96.883484,64,50,42
97.01044,97.352234,65,50,42
97.47919,97.820984,64,50,42
97.94794,98.289734,67,50,42
98.41669,98.758484,67,50,42
98.88544,99.23826,69,50,42
99.36931,99.74207,69,50,42
99.88716,100.05457,64,50,42
100.065735,100.22338,64,50,42
100.23315,100.37963,64,50,42
100.3894,100.53588,64,50,42
100.54565,100.69213,64,50,42
100.7019,100.84838,64,50,42
100.85815,101.00463,65,50,42
101.0144,101.16088,65,50,42
101.17065,101.31713,65,50,42
101.3269,101.47338,65,50,42
101.48315,101.62963,65,50,42
101.6394,101.78588,65,50,42
101.79565,101.94213,67,55,42
101.9519,102.09838,67,61,42
102.10815,102.25463,67,67,42
102.2644,102.41088,67,74,42
102.42065,102.56713,67,80,42
102.5769,102.72338,67,70,42
102.73315,102.88435,67,60,42
102.89443,103.04565,67,60,42
103.055725,103.20693,67,60,42
103.21702,103.37327,67,60,42
103.38368,103.54514,67,60,42
103.556305,103.72371,67,60,42
103.73487,106.78931,67,60,42
106.799385,106.95059,41,60,42
106.96068,107.111885,43,60,42
107.12196,107.27318,43,60,42
107.28326,107.43446,45,60,42
107.44455,107.59576,47,60,42
107.605835,108.5635,48,60,42
108.57358,109.531235,50,73,42
109.54132,109.89414,52,86,42
110.02519,110.37801,53,93,42
110.50906,110.861885,55,100,42
110.99293,111.398285,43,111,42
111.56079,112.019775,40,110,42
114.84204,115.301025,43,60,42
115.31079,115.769775,36,60,42
116.71704,117.644775,69,60,42
118.62329,119.77864,43,60,42
120.39114,121.57864,50,90,42
121.59114,122.73073,40,90,42
122.74114,123.73073,47,90,42
123.74114,124.73073,45,90,42
124.74114,125.73073,52,90,42
125.74114,126.73073,42,90,42
126.74114,127.73073,48,90,42
127.74114,128.73073,47,90,42
131.74115,131.8974,43,60,42
131.9078,132.06406,47,60,42
132.07448,132.23073,50,60,42
132.24115,132.3974,55,60,42
132.4078,132.56406,59,60,42
132.57448,132.73073,62,60,42
132.74115,133.23073,65,60,42
133.61615,133.67865,40,60,42
133.67865,133.74115,41,60,42
133.74115,134.73073,43,60,42
134.74115,135.61615,38,60,42
135.61615,135.73073,39,60,42
135.74115,136.73073,36,60,42
140.74115,143.60573,39,60,42
143.61615,143.67865,48,60,42
143.67865,143.74115,49,60,42
143.74115,144.73073,51,60,42
144.74115,145.49115,46,60,42
145.49115,145.61615,48,60,42
145.61615,145.67865,46,60,42
145.67865,145.74115,48,60,42
145.74115,146.73073,49,60,42
146.74115,147.73073,44,60,42
147.74115,148.73073,43,60,42
148.74115,149.61615,45,60,42
149.61615,149.73073,46,60,42
149.74115,150.73073,46,60,42
150.74115,151.61615,41,60,42
151.61615,151.73073,43,60,42
151.74115,152.73073,44,60,42
152.74115,153.73073,42,72,42
153.74115,153.88763,41,85,42
153.8974,154.04388,45,87,42
154.05365,154.20013,48,89,42
154.2099,154.35638,53,91,42
154.36615,154.51263,57,93,42
154.5224,154.66888,60,96,42
155.61615,155.85052,65,110,42
155.96771,156.0849,48,110,42
156.0849,156.3349,41,110,42
156.3349,156.61267,45,110,42
156.61267,157.15665,48,110,42
162.76285,162.88004,43,110,42
162.88004,163.11441,36,110,42
163.11441,163.34879,40,110,42
163.34879,163.80777,43,110,42
167.56754,169.05711,53,60,42
169.56754,171.35503,65,60,42
171.96753,173.00256,53,60,42
173.01299,173.50256,52,60,42
174.34892,174.40752,36,60,42
174.40752,174.46611,38,60,42
174.46611,174.9251,40,60,42
175.40361,175.7454,45,60,42
175.87236,176.21416,40,60,42
176.34111,176.6829,45,60,42
179.97392,180.03252,38,60,42
180.03252,180.09111,40,60,42
180.09111,180.5501,42,60,42
181.02861,181.3704,38,60,42
181.49736,181.83916,43,60,42
181.96611,182.3079,38,60,42
182.43486,182.77666,42,60,42
182.90361,183.2454,43,60,42
183.37236,183.71416,38,60,42
183.84111,184.1829,43,60,42
184.77861,185.1204,43,60,42
185.24736,185.58916,38,60,42
185.71611,186.0579,43,60,42
186.06767,186.12627,64,60,42
186.12627,186.18486,66,60,42
186.18486,186.52666,67,60,42
186.65361,186.9954,43,60,42
187.12236,187.46416,38,60,42
187.59111,187.9329,43,60,42
187.94267,188.00127,64,60,42
188.00127,188.05986,66,60,42
188.05986,188.40166,67,60,42
188.52861,188.8704,48,60,42
188.99736,189.33916,43,60,42
189.46611,189.8079,48,60,42
189.81767,189.87627,57,60,42
189.87627,189.93486,59,60,42
189.93486,190.27666,60,60,42
190.40361,190.5501,60,60,42
190.55986,190.70634,60,60,42
190.71611,190.8626,60,60,42
190.87236,191.01884,60,60,42
191.02861,191.1751,60,60,42
191.18486,191.33134,60,60,42
191.34111,191.4876,60,60,42
191.49736,191.64384,60,60,42
191.65361,191.8001,60,60,42
191.80986,191.95634,60,60,42
191.96611,192.1126,60,60,42
192.12236,192.26884,60,60,42
192.27861,192.6204,60,60,42
192.74736,193.08916,55,70,42
193.21611,193.5579,60,80,42
193.56767,193.62627,45,88,42
193.62627,193.68486,47,89,42
193.68486,194.02666,48,90,42
194.15361,194.3001,48,85,42
194.30986,194.45634,48,87,42
194.46611,194.6126,48,89,42
194.62236,194.76884,43,91,42
194.77861,194.9251,43,93,42
194.93486,195.08134,43,96,42
195.09111,195.2376,48,98,42
195.24736,195.39384,36,100,42
195.40361,195.5501,36,102,42
195.55986,195.71611,37,104,42
195.72653,195.89737,37,106,42
195.90987,196.09737,37,108,42
196.10986,196.27727,37,110,42
196.28844,196.44608,37,110,42
196.45584,196.60233,37,110,42
196.61209,196.75858,37,110,42
196.76834,196.91483,37,110,42
196.92459,197.07108,37,110,42
197.08084,197.22733,37,110,42
197.23709,197.38358,37,110,42
197.39334,197.53983,37,110,42
197.54959,197.69608,37,110,42
197.70584,197.85233,37,110,42
197.86209,198.00858,37,110,42
198.01834,198.16483,37,110,42
198.17459,198.32108,37,110,42
198.33084,198.47733,37,110,42
198.48709,198.63358,37,110,42
198.64334,198.78983,37,110,42
198.79959,198.94608,37,110,42
198.95584,199.18045,36,110,42
199.3074,199.42459,46,110,42
199.42459,199.65897,41,110,42
199.65897,199.89334,43,110,42
199.89334,200.35233,40,110,42
204.11209,204.46365,53,70,42
204.46365,204.58084,55,92,42
204.58084,205.03983,57,100,42
207.86209,208.21365,65,60,42
208.21365,208.33084,67,60,42
208.33084,208.78983,69,60,42
209.6199,209.72733,43,60,42
209.73709,209.97147,43,60,42
209.97147,210.20584,46,60,42
210.20584,210.44778,48,60,42
210.56874,210.68971,36,60,42
210.68971,210.94833,40,60,42
210.94833,211.24834,43,60,42
211.24834,211.83583,41,60,42
212.44833,212.90732,47,60,42
212.91708,213.37607,48,60,42
213.38583,213.84482,37,60,42
213.85458,214.31357,38,60,42
214.32333,214.78232,45,60,42
214.79208,215.25107,46,60,42
215.26083,215.71982,45,60,42
215.72958,216.18857,43,60,42
216.19833,216.65732,49,60,42
216.66708,217.12607,50,60,42
217.13583,217.59482,39,60,42
217.60458,218.06357,40,60,42
218.07333,218.53232,48,60,42
218.54208,219.01587,46,60,42
219.02596,219.51553,46,60,42
219.52596,220.0505,45,60,42
224.69449,224.75308,50,60,42
224.75308,224.81168,51,60,42
224.81168,225.73941,53,60,42
225.74918,226.56949,48,60,42
226.56949,226.67691,50,60,42
226.68668,227.61441,46,60,42
227.62418,228.08316,41,63,42
228.09293,228.55191,39,66,42
228.56168,229.02066,39,70,42
229.03043,229.48941,38,73,42
229.49918,229.95816,48,76,42
229.96793,230.42691,46,80,42
230.43668,230.89566,38,83,42
230.90543,231.36441,39,87,42
231.37418,231.83316,39,90,42
231.84293,232.30191,41,93,42
232.31168,232.65347,41,97,42
232.78043,233.12222,41,100,42
233.24918,233.60199,41,104,42
233.73305,234.12387,41,107,42
234.28012,234.7697,43,110,42
235.28012,240.80542,36,60,42
240.81584,241.19084,47,60,42
241.19084,241.31584,50,60,42
241.31584,241.68042,48,60,42
241.81584,242.18042,48,60,42
242.31584,242.49292,53,60,42
242.56584,242.73186,53,60,42
242.80022,242.96623,53,60,42
243.03459,243.2006,53,60,42
243.26897,243.72795,53,60,42
246.08147,246.24748,50,60,42
246.31584,246.48186,62,60,42
246.55022,246.71623,62,60,42
246.78459,246.9506,62,60,42
247.01897,247.47795,62,60,42
249.12834,249.29436,50,60,42
249.36272,249.52873,50,60,42
249.59709,249.7631,50,60,42
249.83147,250.29045,48,60,42
253.58147,255.4467,48,60,42
255.45647,257.3217,41,60,42
257.33145,258.2592,41,60,42
258.26895,259.1967,37,76,42
259.20645,259.66544,36,93,42
259.6752,260.1342,48,102,42
260.14395,260.60294,47,110,42
260.6127,261.54044,46,85,42
261.5502,261.892,45,60,42
262.01895,262.3718,46,60,42
262.50284,262.88876,48,60,42
263.03925,263.39667,53,60,42
263.52362,263.86542,57,67,42
263.99237,264.33417,60,74,42
264.46112,264.80292,65,81,42
264.92987,265.27167,64,89,42
265.39862,265.74042,67,96,42
265.86737,266.8523,70,103,42
268.28577,268.43225,64,85,42
268.44202,268.5885,62,88,42
268.59827,268.74475,60,91,42
268.75452,268.901,65,93,42
268.91077,269.05725,60,96,42
269.06702,269.2135,57,99,42
269.22327,269.36975,53,102,42
269.37952,269.526,48,105,42
269.53577,269.68225,45,108,42
269.69202,270.151,41,110,42
272.56924,272.91104,41,110,42
273.038,273.3798,45,110,42
273.50674,273.84854,48,110,42
273.9755,274.3173,53,110,42
274.44424,274.78604,57,110,42
274.913,275.2548,60,110,42
275.38174,276.30948,63,125,42
276.31924,276.66104,53,110,42
276.788,277.1298,58,110,42
277.25674,278.18448,62,125,42
278.19424,278.53604,36,110,42
278.663,279.0048,40,110,42
279.13174,279.48456,43,110,42
279.6156,279.98837,48,80,42
280.13345,280.2897,60,50,42
280.30014,280.4518,60,50,42
280.46158,280.60806,60,50,42
280.61783,280.7643,65,50,42
280.77408,280.92056,65,50,42
280.93033,281.0768,65,50,42
281.08658,281.23306,65,50,42
281.24283,281.3893,65,50,42
281.39908,281.54556,65,50,42
281.55533,281.7018,65,50,42
281.71158,281.85806,63,50,42
281.86783,282.0143,63,50,42
282.02408,282.17056,64,50,42
282.18033,282.3268,64,50,42
282.33658,282.48306,64,50,42
282.49283,282.6393,64,50,42
282.64908,282.79556,62,50,42
282.80533,282.9518,62,50,42
282.96158,283.10806,55,50,42
283.11783,283.2643,57,50,42
283.27408,283.42056,59,50,42
283.43033,283.58658,60,50,42
283.59702,283.76135,62,50,42
283.77295,283.94653,60,50,42
283.95813,286.3674,44,60,42
286.37747,286.85126,45,50,42
286.86136,287.21417,46,50,42
287.3452,287.69803,43,50,42
287.82907,288.3029,41,55,42
288.31296,288.78674,52,60,42
288.7968,289.14966,55,66,42
289.2807,289.6335,50,72,42
289.76456,290.23834,49,78,42
290.24844,290.72223,57,84,42
290.7323,291.0969,62,90,42
291.2323,291.6374,56,70,42
291.78787,292.1453,57,50,42
292.27225,292.61404,57,50,42
292.741,293.0828,58,50,42
293.20975,293.55154,58,50,42
293.6785,294.0203,60,50,42
294.14725,294.48904,60,50,42
294.616,294.9578,62,50,42
295.08475,295.46207,62,50,42
296.12466,296.27115,69,50,42
296.2809,296.4274,69,50,42
296.43716,296.58365,69,50,42
297.06216,297.20865,58,50,42
297.2184,297.3649,58,50,42
297.37466,297.52115,58,55,42
297.99966,298.14615,60,82,42
298.1559,298.3024,60,90,42
298.31216,298.45865,60,80,42
298.4684,298.61963,62,60,42
298.6297,298.7809,62,60,42
298.791,298.9422,62,60,42
298.9523,299.10855,64,60,42
299.11896,299.2833,64,60,42
299.2949,299.4685,64,60,42
299.48007,300.4377,53,60,42
300.4478,301.40546,55,76,42
301.41556,301.76837,57,60,42
301.8994,302.25223,58,60,42
302.3833,302.5345,60,60,42
302.5446,302.6958,50,60,42
302.70587,302.8571,48,60,42
302.86716,303.01837,46,60,42
303.02844,303.17966,45,60,42
303.18973,303.34094,43,60,42
303.35104,304.3087,41,60,42
304.3188,305.27643,43,74,42
305.2865,305.63934,45,89,42
305.7704,306.1232,46,96,42
306.25424,306.61884,48,103,42
306.75424,307.1596,60,110,42
307.3221,307.9096,45,110,42
311.02213,311.5117,48,60,42
311.52213,312.0117,41,60,42
315.05783,315.58237,48,60,42
315.59354,316.1181,36,60,42
319.53998,319.60248,40,60,42
319.60248,319.66498,42,60,42
319.66498,320.15454,43,60,42
321.53998,321.60248,45,60,42
321.60248,321.66498,46,60,42
321.66498,322.65454,48,60,42
322.66498,323.53998,43,60,42
323.53998,323.66498,45,60,42
323.66498,324.15454,41,60,42
324.53998,324.60248,36,60,42
324.60248,324.66498,38,60,42
324.66498,325.15454,40,60,42
328.66498,329.15454,61,60,42
329.16498,329.65454,62,60,42
329.66498,330.15454,51,60,42
330.16498,330.65454,52,60,42
330.66498,331.15454,60,60,42
331.16498,331.65454,58,60,42
331.66498,332.15454,52,60,42
332.16498,332.65454,53,60,42
332.66498,333.15454,60,60,42
333.16498,333.65454,57,60,42
334.53998,334.60248,60,60,42
334.60248,334.66498,62,60,42
334.66498,335.15454,64,60,42
335.66498,335.82123,36,73,42
335.83163,335.98788,41,74,42
335.9983,336.15454,45,75,42
336.16498,336.32123,48,76,42
336.33163,336.48788,53,78,42
336.4983,336.65454,57,79,42
336.66498,337.15454,57,80,42
337.66498,337.82123,36,87,42
337.83163,337.98788,40,88,42
337.9983,338.15454,43,89,42
338.16498,338.32123,48,90,42
338.33163,338.48788,52,91,42
338.47748,338.52954,55,92,42
338.53998,338.60248,55,93,42
338.60248,338.66498,57,93,42
338.66498,339.15454,58,93,42
339.66498,339.82123,36,100,42
339.83163,339.98788,41,101,42
339.9983,340.15454,45,103,42
340.16498,340.32123,48,104,42
340.33163,340.48788,53,105,42
340.48788,340.55038,57,106,42
340.53998,340.60248,53,106,42
340.60248,340.66498,55,107,42
340.66498,341.15454,57,107,42
341.53998,341.60248,55,110,42
341.60248,341.66498,57,110,42
341.66498,341.8896,58,110,42
342.01654,342.07513,64,110,42
342.07513,342.13373,65,110,42
342.13373,342.35834,67,110,42
342.4853,342.54388,60,110,42
342.54388,342.60248,62,110,42
342.60248,342.8271,64,110,42
342.95404,343.01263,55,110,42
343.01263,343.07123,57,110,42
343.07123,343.29584,58,110,42
343.4228,343.48138,52,110,42
343.48138,343.53998,53,110,42
343.53998,343.7646,55,110,42
343.89154,343.95013,48,110,42
343.95013,344.00873,50,110,42
344.00873,344.23334,52,110,42
344.3603,344.41888,43,110,42
344.41888,344.47748,45,110,42
344.47748,344.63373,46,60,42
344.63373,344.78998,50,60,42
344.78998,344.94623,48,60,42
344.94623,345.1233,46,60,42
345.1233,345.30847,45,60,42
345.30847,345.4821,43,60,42
345.49368,346.4648,41,60,42
346.47458,347.4023,43,60,42
347.41208,347.75388,45,60,42
347.88083,348.22263,46,60,42
348.34958,348.69138,48,60,42
348.81833,349.0527,50,60,42
349.0527,349.2773,52,60,42
349.28708,350.2148,53,60,42
350.22458,351.1523,55,73,42
351.16208,351.50388,57,87,42
351.63083,351.97263,58,94,42
352.09958,352.46414,60,100,42
352.59958,353.00467,39,110,42
353.15512,355.36578,39,100,42
355.37735,355.78244,39,90,42
357.4607,357.53012,48,110,42
357.53012,357.59958,50,110,42
357.59958,358.6991,51,110,42
358.7107,359.6829,46,110,42
359.6829,359.8102,48,110,42
359.8218,360.2269,45,110,42
360.794,360.86346,48,110,42
360.86346,360.9329,50,110,42
360.9329,361.4769,51,110,42
364.45844,364.82132,58,60,42
364.82132,364.9423,60,60,42
364.9423,365.41608,62,60,42
368.32938,368.6923,53,60,42
368.6923,368.81326,55,60,42
368.81326,369.28705,57,60,42
370.26486,370.5068,43,60,42
370.5068,370.74875,46,60,42
370.74875,371.10156,48,60,42
371.2326,371.60538,46,60,42
371.75046,372.33798,45,70,42
372.35046,372.93796,41,83,42
372.95047,373.53796,43,97,42
373.55048,375.33798,45,110,42
377.81888,377.9631,43,60,42
377.9631,378.28918,40,60,42
378.28918,378.92776,36,60,42
378.94138,379.90604,41,60,42
8.315971,8.774956,46,60,45
8.784721,9.243706,45,60,45
9.253471,9.712456,41,60,45
9.722221,10.181206,40,60,45
10.190971,10.649956,36,60,45
11.128471,11.587456,41,60,45
13.003471,13.462456,46,60,45
13.472221,13.931206,48,60,45
13.940971,14.399956,48,60,45
15.347221,15.806206,45,60,45
15.815971,16.274956,46,60,45
16.753471,17.212456,46,70,45
17.222221,17.681206,48,80,45
17.690971,18.197668,36,90,45
18.208828,18.698412,41,60,45
160.06754,160.52652,46,60,45
160.53629,160.99527,45,60,45
161.00504,161.46402,41,60,45
161.94254,162.40152,46,84,45
164.75504,165.21402,58,60,45
165.22379,165.68277,57,60,45
165.69254,166.15152,53,60,45
166.16129,166.62027,52,60,45
166.63004,167.08902,48,60,45
201.29959,201.75858,46,60,45
201.76834,202.22733,45,60,45
202.23709,202.69608,41,60,45
202.70584,203.16483,40,60,45
203.17459,203.63358,36,60,45
205.04959,205.50858,46,60,45
205.98709,206.44608,46,60,45
206.45584,206.91483,48,60,45
206.92459,207.38358,36,60,45
208.79959,209.25858,52,60,45
362.0057,362.51218,50,60,45
362.52295,362.99673,50,60,45
363.0068,363.4806,45,60,45
363.4907,363.96448,41,60,45
365.42618,365.89996,58,60,45
366.39392,366.8677,57,60,45
366.87778,367.35156,52,60,45
367.36163,367.83545,48,60,45
369.29712,369.77094,58,60,45
375.85046,376.34006,46,60,45
376.85046,377.37503,46,60,45
377.38617,377.95108,48,60,45
