start_time,end_time,note_value,velocity,instrument_program_number
0.0,0.09791667,65,1,40
0.8,1.3979167,69,70,40
1.4,1.9979167,67,70,40
2.0,2.5979166,65,70,40
2.6,3.1979167,67,70,40
3.2,3.7979167,69,70,40
3.8,4.4120526,67,70,40
4.414285,4.572767,65,70,40
4.62857,4.7870517,67,70,40
4.842855,5.0013366,65,70,40
5.271425,5.8836265,84,50,40
5.88571,6.483627,84,50,40
6.48571,7.0836267,84,50,40
7.08571,7.6836267,84,50,40
7.68571,8.283627,84,50,40
8.28571,8.883627,84,50,40
8.88571,9.297763,84,50,40
9.299995,9.458477,86,50,40
9.51428,9.672762,88,50,40
9.728565,9.887047,89,50,40
9.94285,10.369188,63,90,40
11.937351,12.396485,63,82,40
12.398889,12.858023,63,76,40
12.860427,13.088792,63,70,40
13.321965,13.781099,63,70,40
14.014272,14.473406,63,70,40
14.706579,15.165713,64,70,40
15.398886,15.85802,64,70,40
16.060425,16.65834,69,71,40
16.660423,17.25834,67,77,40
17.260424,17.858341,65,83,40
17.860424,18.458342,67,88,40
18.460424,19.05834,69,94,40
19.060425,19.65834,67,99,40
19.660423,19.80834,65,105,40
19.860424,20.00834,67,107,40
20.060425,20.25834,65,109,40
20.660423,20.80834,77,110,40
21.060425,21.208342,81,110,40
21.260424,21.40834,82,110,40
21.660423,21.80834,84,110,40
21.860424,22.00834,86,110,40
22.260424,22.40834,84,110,40
22.460424,22.608341,82,110,40
22.860424,23.00834,79,110,40
23.060425,23.208342,77,110,40
23.460424,23.608341,81,105,40
23.660423,23.80834,82,96,40
24.060425,24.208342,84,78,40
24.260424,24.40834,86,68,40
24.660423,24.80834,84,50,40
24.860424,25.00834,84,50,40
25.060425,25.208342,84,50,40
25.260424,25.40834,87,50,40
25.460424,25.608341,86,50,40
26.260424,26.40834,88,50,40
26.460424,26.608341,89,50,40
26.660423,26.80834,84,50,40
27.460424,27.608341,86,50,40
27.660423,27.80834,84,50,40
27.860424,28.00834,84,50,40
28.060425,28.208342,82,50,40
28.260424,28.40834,81,50,40
28.460424,28.65834,81,50,40
28.660423,28.80834,82,50,40
28.860424,29.00834,79,50,40
29.060425,29.208342,81,50,40
29.260424,29.40834,77,50,40
29.460424,29.608341,79,50,40
29.660423,29.858341,77,50,40
30.460424,30.608341,77,50,40
30.660423,30.80834,79,50,40
30.860424,31.05834,77,50,40
31.660423,31.80834,77,50,40
31.860424,32.00834,79,50,40
32.060425,32.20834,77,50,40
32.260426,32.40834,78,50,40
32.460423,32.60834,79,50,40
32.660423,32.808342,79,50,40
32.860424,33.00834,79,50,40
33.060425,33.20834,84,50,40
33.260426,33.40834,84,50,40
33.460423,33.60834,84,50,40
33.660423,33.808342,84,50,40
33.860424,34.00834,84,50,40
34.060425,34.20834,82,50,40
34.260426,34.40834,81,50,40
34.460423,34.65834,81,55,40
34.660423,34.808342,82,60,40
34.860424,35.00834,79,66,40
35.060425,35.25834,79,72,40
35.260426,35.40834,81,77,40
35.460423,35.60834,77,83,40
35.660423,35.85834,76,89,40
35.860424,36.00834,77,95,40
36.060425,36.20834,79,100,40
36.260426,36.45834,76,100,40
36.460423,36.60834,77,97,40
36.660423,36.808342,79,93,40
36.860424,37.00834,72,89,40
37.060425,37.20834,72,85,40
37.260426,37.40834,72,81,40
37.460423,37.65834,76,77,40
37.660423,37.808342,77,73,40
37.860424,38.00834,79,70,40
38.060425,38.20834,72,70,40
38.260426,38.40834,72,70,40
38.460423,38.60834,72,70,40
38.660423,38.85834,76,60,40
38.860424,39.00834,77,60,40
39.060425,39.20834,79,60,40
39.260426,39.41344,72,60,40
39.46732,39.62034,72,60,40
39.674217,39.827232,72,60,40
39.88111,40.093166,76,50,40
40.095398,40.25388,77,50,40
40.30968,40.474033,79,50,40
40.531902,40.751812,72,50,40
40.754128,41.21326,63,90,40
42.831047,43.29018,63,82,40
43.292583,43.75172,63,76,40
43.754124,43.982487,63,70,40
44.21566,44.674797,63,70,40
44.907967,45.367104,63,70,40
45.600273,46.05941,64,70,40
46.292583,46.751717,64,50,40
46.95412,47.552036,69,57,40
47.55412,48.152035,67,65,40
48.15412,48.752037,65,74,40
48.75412,49.352036,67,82,40
49.35412,49.952038,69,90,40
49.95412,50.552036,67,98,40
50.55412,50.702038,65,106,40
50.75412,50.902035,67,109,40
50.95412,51.152035,65,109,40
51.55412,51.702038,77,110,40
51.95412,52.102036,81,110,40
52.15412,52.302036,82,110,40
52.55412,52.702038,84,110,40
52.75412,52.902035,86,110,40
53.15412,53.302036,84,110,40
53.35412,53.502037,82,110,40
53.75412,53.902035,79,110,40
53.95412,54.102036,77,110,40
54.35412,54.502037,81,105,40
54.55412,54.702038,82,96,40
54.95412,55.102036,84,78,40
55.15412,55.302036,86,68,40
55.55412,55.702038,84,50,40
55.75412,55.902035,84,50,40
55.95412,56.102036,84,50,40
56.15412,56.302036,87,50,40
56.35412,56.502037,86,50,40
57.15412,57.302036,88,50,40
57.35412,57.502037,89,50,40
57.55412,57.702038,84,50,40
58.35412,58.502037,86,50,40
58.55412,58.702038,84,50,40
58.75412,58.902035,84,50,40
58.95412,59.102036,82,50,40
59.15412,59.302036,81,50,40
59.35412,59.552036,81,50,40
59.55412,59.702038,82,50,40
59.75412,59.902035,79,50,40
59.95412,60.102036,81,50,40
60.15412,60.302036,77,50,40
60.35412,60.502037,79,50,40
60.55412,60.752037,77,50,40
61.35412,61.502037,77,50,40
61.55412,61.702038,79,50,40
61.75412,61.952038,77,50,40
62.55412,62.702038,77,50,40
62.75412,62.902035,79,50,40
62.95412,63.102036,77,50,40
63.15412,63.302036,78,50,40
63.35412,63.502037,79,50,40
63.55412,63.702038,79,50,40
63.75412,63.902035,79,50,40
63.95412,64.102036,84,50,40
64.15412,64.30204,84,50,40
64.35412,64.50204,84,50,40
64.55412,64.702034,84,50,40
64.75412,64.90204,84,50,40
64.95412,65.102036,82,50,40
65.15412,65.30204,81,50,40
65.35412,65.55204,81,55,40
65.55412,65.702034,82,60,40
65.75412,65.90204,79,66,40
65.95412,66.15204,79,72,40
66.15412,66.30204,81,77,40
66.35412,66.50204,77,83,40
66.55412,66.75204,76,89,40
66.75412,66.90204,77,95,40
66.95412,67.102036,79,100,40
67.15412,67.352036,76,100,40
67.35412,67.50204,77,97,40
67.55412,67.702034,79,93,40
67.75412,67.90204,72,89,40
67.95412,68.102036,72,85,40
68.15412,68.30204,72,81,40
68.35412,68.55204,76,77,40
68.55412,68.702034,77,73,40
68.75412,68.90204,79,70,40
68.95412,69.10714,72,70,40
69.16102,69.31403,72,70,40
69.36791,69.52093,72,70,40
69.57481,69.78686,76,60,40
69.78909,69.94757,77,60,40
70.00338,70.16186,79,60,40
70.21767,70.38201,72,60,40
70.43989,70.60424,72,60,40
70.66211,70.82646,72,60,40
70.88433,71.11269,76,50,40
71.1151,71.285774,77,50,40
71.34586,71.51654,79,50,40
71.57664,71.77455,72,110,40
71.776634,71.87455,65,110,40
71.87663,71.974556,64,110,40
71.97664,72.074554,65,110,40
72.07664,72.17455,67,110,40
72.176636,72.324554,69,110,40
72.37663,72.52455,72,70,40
72.57664,72.724556,72,70,40
72.776634,72.92455,72,70,40
72.97664,73.12455,72,70,40
73.176636,73.324554,72,70,40
73.37663,73.52455,72,70,40
73.57664,73.724556,72,70,40
73.776634,73.92455,72,70,40
73.97664,74.12455,72,70,40
74.176636,74.324554,72,70,40
74.37663,74.52455,72,70,40
74.57664,74.724556,72,70,40
74.776634,74.92455,74,70,40
74.97664,75.12455,76,70,40
75.176636,75.324554,77,70,40
75.37663,75.52455,79,70,40
75.57664,75.724556,81,70,40
75.776634,75.92455,82,70,40
75.97664,76.12455,55,70,40
76.176636,76.324554,81,70,40
76.37663,76.52455,82,70,40
76.57664,76.724556,70,70,40
76.776634,76.92455,84,70,40
76.97664,77.12455,81,100,40
77.176636,77.27455,65,70,40
77.276634,77.37455,64,70,40
77.37663,77.474556,65,70,40
77.47664,77.574554,67,70,40
77.57664,77.724556,69,70,40
77.776634,77.92455,70,70,40
77.97664,78.12455,72,70,40
78.176636,78.324554,74,70,40
78.37663,78.52455,76,70,40
78.57664,78.724556,77,70,40
78.776634,78.92455,79,70,40
78.97664,79.12455,81,70,40
79.176636,79.324554,82,70,40
79.37663,79.52455,84,70,40
79.57664,79.724556,86,70,40
79.776634,79.92455,88,70,40
79.97664,80.12455,89,70,40
80.176636,80.324554,91,70,40
80.37663,80.52455,93,70,40
80.57664,80.724556,94,70,40
80.776634,80.92455,72,70,40
80.97664,81.12455,81,70,40
81.176636,81.324554,82,70,40
81.37663,81.52455,72,70,40
81.57664,81.724556,84,70,40
81.776634,81.92455,81,70,40
82.57664,82.67455,76,70,40
82.676636,82.77455,74,70,40
82.776634,82.87455,76,70,40
82.87663,82.974556,77,70,40
82.97664,83.17455,79,70,40
83.776634,83.87455,79,70,40
83.87663,83.974556,77,70,40
83.97664,84.074554,79,70,40
84.07664,84.17455,81,70,40
84.176636,84.37455,82,70,40
84.97664,85.074554,79,70,40
85.07664,85.17455,77,70,40
85.176636,85.27793,79,70,40
85.28008,85.38138,81,70,40
85.38353,85.58827,82,70,40
85.797325,85.95034,81,70,40
86.00422,86.415855,81,70,40
86.418015,86.57103,80,70,40
86.62491,86.82965,81,70,40
87.45249,87.55379,79,94,40
87.55594,87.657234,77,97,40
87.659386,87.76068,79,100,40
87.76283,87.86413,81,85,40
87.86629,88.07834,82,70,40
88.29485,88.45334,81,70,40
88.50914,88.93548,81,70,40
88.937706,89.09619,80,70,40
89.15199,89.3719,81,70,40
89.596436,89.76079,79,70,40
89.81866,90.277794,79,70,40
90.2802,90.50856,78,70,40
90.51096,90.66945,79,110,40
90.51096,90.66945,71,110,40
90.72525,90.823166,67,70,40
90.82525,90.92317,66,70,40
90.925255,91.02317,67,70,40
91.02525,91.12317,69,70,40
91.12525,91.27317,71,70,40
91.32525,91.47317,72,70,40
91.52525,91.67317,74,70,40
91.72525,91.87317,76,70,40
91.925255,92.073166,78,70,40
92.12525,92.27317,79,70,40
92.32525,92.47317,81,70,40
92.52525,92.67317,83,70,40
92.72525,92.87317,84,70,40
92.925255,93.073166,86,70,40
93.12525,93.27317,88,70,40
93.32525,93.47317,90,70,40
93.52525,93.67317,91,70,40
93.72525,93.87317,93,70,40
93.925255,94.073166,95,70,40
94.12525,94.27317,96,70,40
94.32525,94.47317,62,70,40
94.52525,94.67317,71,70,40
94.72525,94.87317,72,70,40
94.925255,95.073166,62,70,40
95.12525,95.27317,74,70,40
95.32525,95.47317,71,100,40
95.52525,95.62317,67,70,40
95.62525,95.72317,66,70,40
95.72525,95.823166,67,70,40
95.82525,95.92317,69,70,40
95.925255,96.073166,71,70,40
96.12525,96.27317,72,70,40
96.32525,96.47317,74,70,40
96.52525,96.67317,76,70,40
96.72525,96.87317,78,70,40
96.925255,97.073166,79,70,40
97.12525,97.27317,81,70,40
97.32525,97.47317,83,70,40
97.52525,97.67317,84,70,40
97.72525,97.87317,86,70,40
97.925255,98.073166,88,70,40
98.12525,98.27317,90,70,40
98.32525,98.47317,91,70,40
98.52525,98.67317,93,70,40
98.72525,98.87317,95,70,40
98.925255,99.073166,95,70,40
99.12525,99.27317,64,70,40
99.32525,99.47317,75,69,40
99.52525,99.67317,76,67,40
99.72525,99.87317,64,66,40
99.925255,100.073166,74,64,40
100.12525,100.27317,72,63,40
100.32525,100.47317,64,61,40
100.52525,100.67317,71,59,40
100.72525,100.87317,72,58,40
100.925255,101.073166,64,56,40
101.12525,101.27317,71,55,40
101.32525,101.47317,71,50,40
101.52525,101.67317,64,50,40
101.72525,101.87317,72,50,40
101.925255,102.073166,72,50,40
102.12525,102.27317,64,50,40
102.32525,102.47317,71,50,40
102.52525,102.67317,71,50,40
102.72525,102.87317,64,50,40
102.925255,103.073166,72,50,40
103.12525,103.27317,72,50,40
103.32525,103.47317,64,50,40
103.52525,103.67317,71,50,40
103.72525,103.87317,71,50,40
103.925255,104.073166,83,55,40
104.12525,104.27317,83,60,40
104.32525,104.47317,83,65,40
104.52525,104.67317,83,70,40
104.72525,104.87317,83,75,40
104.925255,105.07827,83,80,40
105.13215,105.285164,83,85,40
105.33904,105.49206,83,90,40
105.54594,105.70442,83,95,40
105.76022,105.924576,88,100,40
105.982445,106.15312,86,105,40
106.21322,106.3717,85,110,40
106.4275,106.52542,57,70,40
106.527504,106.62542,56,70,40
106.6275,106.72542,57,70,40
106.7275,106.82542,59,70,40
106.8275,106.97542,61,70,40
107.027504,107.175415,62,70,40
107.2275,107.37542,64,70,40
107.4275,107.57542,66,70,40
107.6275,107.77542,68,70,40
107.8275,107.97542,69,70,40
108.027504,108.175415,71,70,40
108.2275,108.37542,73,70,40
108.4275,108.57542,74,70,40
108.6275,108.77542,76,70,40
108.8275,108.97542,78,70,40
109.027504,109.175415,80,70,40
109.2275,109.37542,81,70,40
109.4275,109.57542,83,70,40
109.6275,109.77542,85,70,40
109.8275,109.97542,86,70,40
110.027504,110.175415,76,70,40
110.2275,110.37542,85,70,40
110.4275,110.57542,86,70,40
110.6275,110.77542,76,70,40
110.8275,110.97542,88,70,40
111.027504,111.175415,85,100,40
111.2275,111.37542,88,70,40
111.2275,111.37542,76,70,40
111.4275,111.57542,88,70,40
111.4275,111.57542,76,70,40
111.6275,111.77542,88,70,40
111.6275,111.77542,76,70,40
111.8275,111.97542,76,70,40
111.8275,111.97542,88,70,40
112.027504,112.175415,76,70,40
112.027504,112.175415,88,70,40
112.2275,112.37542,76,70,40
112.2275,112.37542,88,70,40
112.4275,112.57542,76,70,40
112.4275,112.57542,88,70,40
112.6275,112.77542,76,70,40
112.6275,112.77542,88,70,40
112.8275,112.97542,76,70,40
112.8275,112.97542,88,70,40
113.027504,113.175415,76,70,40
113.027504,113.175415,88,70,40
113.2275,113.37542,76,70,40
113.2275,113.37542,88,70,40
113.4275,113.57542,76,70,40
113.4275,113.57542,88,70,40
113.6275,113.77542,78,70,40
113.8275,113.97542,80,70,40
114.027504,114.175415,81,70,40
114.2275,114.37542,83,70,40
114.4275,114.57542,85,70,40
114.6275,114.77542,86,70,40
114.8275,114.97542,76,70,40
115.027504,115.175415,85,70,40
115.2275,115.37542,86,70,40
115.4275,115.57542,76,70,40
115.6275,115.77542,88,70,40
115.8275,115.97542,86,70,40
116.027504,116.12542,86,73,40
116.1275,116.22542,88,75,40
116.2275,116.32542,86,77,40
116.3275,116.425415,85,78,40
116.4275,116.57542,83,80,40
116.6275,116.72542,71,84,40
116.7275,116.82542,73,86,40
116.8275,116.925415,71,87,40
116.9275,117.02542,69,89,40
117.027504,117.18052,68,91,40
117.2344,117.33569,71,94,40
117.337845,117.43914,69,96,40
117.44129,117.54259,71,98,40
117.54474,117.646034,73,100,40
117.648186,117.80667,74,102,40
117.86247,117.967384,86,105,40
117.96962,118.074524,85,107,40
118.07676,118.18167,86,109,40
118.1839,118.28881,83,110,40
118.291046,118.449524,81,127,40
118.505325,118.653244,69,110,40
118.70533,118.85325,85,110,40
118.90533,119.053246,69,125,40
119.10533,119.25324,88,110,40
119.30533,119.45325,69,110,40
119.505325,119.653244,88,125,40
119.70533,119.85325,69,110,40
119.90533,120.053246,93,110,40
120.10533,120.903244,88,125,40
120.90533,121.053246,69,110,40
121.10533,121.25324,86,110,40
121.30533,121.45325,85,125,40
121.505325,121.653244,69,110,40
121.70533,121.85325,86,110,40
121.90533,122.053246,85,110,40
122.10533,122.25324,69,110,40
122.30533,122.45325,86,110,40
122.505325,122.653244,85,110,40
122.70533,122.85325,69,110,40
122.90533,123.053246,83,110,40
123.10533,123.25324,81,110,40
123.30533,123.45325,69,110,40
123.505325,123.653244,85,110,40
123.70533,123.85325,69,110,40
123.90533,124.053246,88,110,40
124.10533,124.25324,69,110,40
124.30533,124.45325,88,110,40
124.505325,124.653244,69,110,40
124.70533,124.85325,93,110,40
124.90533,125.70325,88,125,40
125.70533,125.85325,69,110,40
125.90533,126.053246,86,110,40
126.10533,126.25324,85,125,40
126.30533,126.45325,69,110,40
126.505325,126.653244,86,110,40
126.70533,126.85325,85,110,40
126.90533,127.053246,69,110,40
127.10533,127.25324,86,110,40
127.30533,127.45325,85,110,40
127.505325,127.653244,69,110,40
127.70533,127.85325,86,110,40
127.90533,128.05325,86,110,40
128.10533,128.30325,71,110,40
128.30533,128.45325,85,110,40
128.45532,128.50533,85,110,40
128.50533,128.65324,86,110,40
128.70532,128.85324,71,110,40
128.90533,129.05325,88,110,40
129.10533,129.25325,85,110,40
129.30533,129.45325,69,110,40
129.50533,129.65324,86,110,40
129.70532,129.85324,85,110,40
129.90533,130.05325,88,110,40
130.10533,130.25325,93,110,40
130.30533,130.45325,86,110,40
130.50533,130.70325,71,110,40
130.70532,130.85324,85,110,40
130.85533,130.90533,85,110,40
130.90533,131.05325,86,110,40
131.10533,131.25325,71,110,40
131.30533,131.45325,88,110,40
131.50533,131.65324,85,110,40
131.70532,131.85324,69,110,40
131.90533,132.00325,88,110,40
132.05533,132.10533,88,110,40
132.10533,132.30325,93,110,40
132.30533,132.60324,69,110,40
132.60533,132.70325,88,110,40
132.70532,132.85324,86,110,40
132.90533,133.10324,71,110,40
133.10533,133.20325,85,110,40
133.25533,133.30533,85,110,40
133.30533,133.45325,86,110,40
133.50533,133.65324,71,110,40
133.70532,133.85324,88,110,40
133.90533,134.05325,85,110,40
134.10533,134.25325,69,110,40
134.30533,134.45325,86,110,40
134.50533,134.65324,85,110,40
134.70532,134.85324,88,110,40
134.90533,135.05325,93,110,40
135.10533,135.25325,86,110,40
135.30533,135.50325,71,110,40
135.50533,135.60324,85,110,40
135.65533,135.70532,85,110,40
135.70532,135.85324,86,110,40
135.90533,136.05325,71,110,40
136.10533,136.25325,88,110,40
136.30533,136.45325,85,100,40
136.50533,136.65324,69,110,40
136.70532,136.80325,88,110,40
136.85533,136.90533,88,110,40
136.90533,137.10324,93,110,40
137.10533,137.40324,69,110,40
137.40533,137.50325,85,110,40
137.50533,137.65324,86,110,40
137.70532,137.85324,71,107,40
137.90533,138.05325,88,104,40
138.10533,138.25325,85,100,40
138.30533,138.45325,69,97,40
138.50533,138.65324,88,93,40
138.70532,138.85324,85,90,40
138.90533,139.05325,69,86,40
139.10533,139.20325,88,83,40
139.25533,139.30533,88,80,40
139.30533,139.50592,93,79,40
139.50803,139.80997,69,76,40
139.81209,139.91132,85,71,40
139.91344,140.06335,86,70,40
140.11613,140.26605,71,70,40
140.31883,140.46875,88,70,40
140.52155,140.67146,85,70,40
140.72424,140.87416,69,70,40
140.92694,141.07686,88,70,40
141.12965,141.27956,85,60,40
141.33235,141.48227,69,60,40
141.53505,141.6343,88,60,40
141.68707,141.73775,88,60,40
141.73775,141.94249,93,60,40
141.94466,142.3563,69,60,40
142.35844,142.51146,73,60,40
142.56534,142.71835,57,60,40
142.77223,142.87352,76,60,40
142.9274,142.97913,76,60,40
142.97913,143.08183,81,60,40
143.08403,143.60631,69,60,40
143.18892,143.60631,57,60,40
143.6085,143.76366,85,60,40
143.81828,143.97345,69,60,40
144.02808,144.13078,88,60,40
144.18542,144.23787,88,60,40
144.23787,144.44992,93,50,40
144.45215,144.77135,69,50,40
144.82715,144.88072,64,50,40
144.88072,145.09277,69,50,40
145.09502,145.4142,57,50,40
145.47,145.52357,64,50,40
145.52357,145.73563,69,50,40
145.73787,146.38156,57,50,40
146.38382,146.49025,66,40,40
146.49252,146.59895,64,40,40
146.60121,146.70764,66,40,40
146.70992,146.81635,68,40,40
146.8186,146.98296,69,40,40
147.04083,147.14963,66,40,40
147.15195,147.26074,64,40,40
147.26305,147.37184,66,40,40
147.37416,147.48296,67,40,40
147.48528,147.65594,69,40,40
147.71605,147.82903,66,40,40
147.83142,147.94441,64,40,40
147.94681,148.0598,65,40,40
148.0622,148.17517,67,40,40
148.17758,148.34825,69,40,40
148.40836,148.52133,65,40,40
148.52373,148.63672,64,40,40
148.63911,148.7521,65,40,40
148.7545,149.06781,67,40,40
149.06989,149.6678,81,40,40
149.66989,150.2678,79,41,40
150.26988,150.8678,77,43,40
150.86989,151.4678,79,44,40
151.4699,152.07463,79,46,40
152.07678,152.70262,91,47,40
152.70486,153.35333,79,49,40
153.35565,153.99802,67,70,40
154.00009,154.598,69,70,40
154.6001,155.19801,67,70,40
155.20009,155.79802,65,70,40
155.8001,156.39801,67,70,40
156.4001,156.99802,69,70,40
157.00009,157.598,67,70,40
157.6001,157.74802,65,70,40
157.8001,157.94801,67,70,40
158.00009,158.14801,65,70,40
158.4001,158.99802,84,50,40
159.00009,159.598,84,50,40
159.6001,160.19801,84,50,40
160.20009,160.79802,84,50,40
160.8001,161.39801,84,50,40
161.4001,161.99802,84,50,40
162.00009,162.41216,84,50,40
162.41438,162.57286,86,50,40
162.62866,162.78716,88,50,40
162.84296,163.00143,89,50,40
163.05724,163.48357,63,90,40
165.01877,165.4779,63,82,40
165.4803,165.93944,63,76,40
165.94185,166.17021,63,70,40
166.40338,166.86252,63,70,40
167.09569,167.55482,63,70,40
167.788,168.24713,64,70,40
168.4803,168.93944,64,70,40
169.15613,169.78261,69,71,40
169.7847,170.38261,67,77,40
170.3847,170.98262,65,83,40
170.9847,171.58261,67,88,40
171.5847,172.18262,69,94,40
172.1847,172.78261,67,99,40
172.7847,172.93262,65,105,40
172.9847,173.13261,67,107,40
173.1847,173.38261,65,109,40
173.7847,173.93262,77,110,40
174.1847,174.33261,81,110,40
174.3847,174.53261,82,110,40
174.7847,174.93262,84,110,40
174.9847,175.13261,86,110,40
175.3847,175.53261,84,110,40
175.5847,175.73262,82,110,40
175.9847,176.13261,79,110,40
176.1847,176.33261,77,110,40
176.5847,176.73262,81,105,40
176.7847,176.93262,82,96,40
177.1847,177.33261,84,78,40
177.3847,177.53261,86,68,40
177.7847,177.93262,84,50,40
177.9847,178.13261,84,50,40
178.1847,178.33261,84,50,40
178.3847,178.53261,87,50,40
178.5847,178.73262,86,50,40
179.3847,179.53261,88,50,40
179.5847,179.73262,89,50,40
179.7847,179.93262,84,50,40
180.5847,180.73262,86,50,40
180.7847,180.93262,84,50,40
180.9847,181.13261,84,50,40
181.1847,181.33261,82,50,40
181.3847,181.53261,81,50,40
181.5847,181.78261,81,50,40
181.7847,181.93262,82,50,40
181.9847,182.13261,79,50,40
182.1847,182.33261,81,50,40
182.3847,182.53261,77,50,40
182.5847,182.73262,79,50,40
182.7847,182.98262,77,50,40
183.5847,183.73262,77,50,40
183.7847,183.93262,79,50,40
183.9847,184.18262,77,50,40
184.7847,184.93262,77,50,40
184.9847,185.13261,79,50,40
185.1847,185.33261,77,50,40
185.3847,185.53261,78,50,40
185.5847,185.73262,79,50,40
185.7847,185.93262,79,50,40
185.9847,186.13261,79,50,40
186.1847,186.33261,84,50,40
186.3847,186.53261,84,50,40
186.5847,186.73262,84,50,40
186.7847,186.93262,84,50,40
186.9847,187.13261,84,50,40
187.1847,187.33261,82,50,40
187.3847,187.53261,81,50,40
187.5847,187.78261,81,55,40
187.7847,187.93262,82,60,40
187.9847,188.13261,79,66,40
188.1847,188.38261,79,72,40
188.3847,188.53261,81,77,40
188.5847,188.73262,77,83,40
188.7847,188.98262,76,89,40
188.9847,189.13261,77,95,40
189.1847,189.33261,79,100,40
189.3847,189.58261,76,100,40
189.5847,189.73262,77,97,40
189.7847,189.93262,79,93,40
189.9847,190.13261,72,89,40
190.1847,190.33261,72,85,40
190.3847,190.53261,72,81,40
190.5847,190.7853,76,77,40
190.7874,190.93732,77,73,40
190.9901,191.14001,79,70,40
191.19281,191.34271,72,70,40
191.39551,191.54543,72,70,40
191.5982,191.74812,72,70,40
191.8009,192.00565,76,60,40
192.00781,192.16083,77,60,40
192.2147,192.36772,79,60,40
192.4216,192.57675,72,60,40
192.6314,192.78654,72,60,40
192.84117,192.99634,72,60,40
193.05096,193.26302,76,50,40
193.26526,193.42374,77,50,40
193.47954,193.63802,79,50,40
193.69382,193.90587,72,110,40
193.90811,194.33444,63,90,40
195.86964,196.32878,63,82,40
196.33118,196.79031,63,76,40
196.79271,197.02109,63,70,40
197.25426,197.7134,63,70,40
197.94656,198.4057,63,70,40
198.63887,199.098,64,70,40
199.33118,199.79031,64,50,40
200.007,200.63348,69,57,40
200.63557,201.23349,67,65,40
201.23557,201.83348,65,74,40
201.83557,202.43349,67,82,40
202.43556,203.03348,69,90,40
203.03557,203.63348,67,98,40
203.63557,203.78348,65,106,40
203.83557,203.98349,67,109,40
204.03557,204.23349,65,109,40
204.63557,204.78348,77,110,40
205.03557,205.18349,81,110,40
205.23557,205.38348,82,110,40
205.63557,205.78348,84,110,40
205.83557,205.98349,86,110,40
206.23557,206.38348,84,110,40
206.43556,206.58348,82,110,40
206.83557,206.98349,79,110,40
207.03557,207.18349,77,110,40
207.43556,207.58348,81,105,40
207.63557,207.78348,82,96,40
208.03557,208.18349,84,78,40
208.23557,208.38348,86,68,40
208.63557,208.78348,84,50,40
208.83557,208.98349,84,50,40
209.03557,209.18349,84,50,40
209.23557,209.38348,87,50,40
209.43556,209.58348,86,50,40
210.23557,210.38348,88,50,40
210.43556,210.58348,89,50,40
210.63557,210.78348,84,50,40
211.43556,211.58348,86,50,40
211.63557,211.78348,84,50,40
211.83557,211.98349,84,50,40
212.03557,212.18349,82,50,40
212.23557,212.38348,81,50,40
212.43556,212.63348,81,50,40
212.63557,212.78348,82,50,40
212.83557,212.98349,79,50,40
213.03557,213.18349,81,50,40
213.23557,213.38348,77,50,40
213.43556,213.58348,79,50,40
213.63557,213.83348,77,50,40
214.43556,214.58348,77,50,40
214.63557,214.78348,79,50,40
214.83557,215.03348,77,50,40
215.63557,215.78348,77,50,40
215.83557,215.98349,79,50,40
216.03557,216.18349,77,50,40
216.23557,216.38348,78,50,40
216.43556,216.58348,79,50,40
216.63557,216.78348,79,50,40
216.83557,216.98349,79,50,40
217.03557,217.18349,84,50,40
217.23557,217.38348,84,50,40
217.43556,217.58348,84,50,40
217.63557,217.78348,84,50,40
217.83557,217.98349,84,50,40
218.03557,218.18349,82,50,40
218.23557,218.38348,81,50,40
218.43556,218.63348,81,55,40
218.63557,218.78348,82,60,40
218.83557,218.98349,79,66,40
219.03557,219.23349,79,72,40
219.23557,219.38348,81,77,40
219.43556,219.58348,77,83,40
219.63557,219.83348,76,89,40
219.83557,219.98349,77,95,40
220.03557,220.18349,79,100,40
220.23557,220.43349,76,100,40
220.43556,220.58348,77,97,40
220.63557,220.78348,79,93,40
220.83557,220.98349,72,89,40
221.03557,221.18349,72,85,40
221.23557,221.38548,72,81,40
221.43826,221.63885,76,77,40
221.64098,221.7909,77,73,40
221.84367,221.99359,79,70,40
222.04637,222.19629,72,70,40
222.24908,222.39899,72,70,40
222.45178,222.6048,72,70,40
222.65868,222.86342,76,60,40
222.86557,223.01859,77,60,40
223.07246,223.22548,79,60,40
223.27936,223.43239,72,60,40
223.48627,223.63928,72,60,40
223.69316,223.84831,72,60,40
223.90294,224.115,76,50,40
224.11723,224.27571,77,50,40
224.33151,224.48999,79,50,40
224.5458,224.75786,72,70,40
226.74672,227.22423,84,70,40
227.22673,227.72412,84,60,40
227.72673,228.0236,84,50,40
228.40172,229.14781,84,50,40
229.15172,229.52281,84,120,40
232.71422,232.89781,65,1,40
0.0,0.09791667,65,1,40
0.4,0.99791664,60,70,40
1.0,1.5979167,60,70,40
1.6,2.1979167,60,70,40
2.2,2.7979167,60,70,40
2.8,3.3979166,60,70,40
3.4,3.9979167,60,70,40
4.0,4.1979165,60,70,40
4.2,4.3584814,57,70,40
4.414285,4.572767,57,70,40
4.62857,4.7870517,64,70,40
4.842855,5.0013366,57,70,40
5.05714,5.2156215,77,50,40
5.271425,5.429907,79,50,40
5.48571,5.6336265,77,50,40
5.68571,6.2836266,81,50,40
6.28571,6.8836265,79,50,40
6.88571,7.483627,77,50,40
7.48571,8.083627,79,50,40
8.08571,8.683627,81,50,40
8.68571,9.297763,79,50,40
9.299995,9.458477,77,50,40
9.51428,9.672762,79,50,40
9.728565,9.887047,77,50,40
9.94285,10.369188,63,90,40
11.937351,12.396485,63,82,40
12.398889,12.858023,63,76,40
12.860427,13.088792,63,70,40
13.321965,13.781099,63,70,40
14.014272,14.473406,63,70,40
14.706579,15.165713,64,70,40
15.398886,15.85802,64,70,40
16.260424,16.858341,65,73,40
16.860424,17.05834,64,79,40
17.060425,17.458342,57,81,40
17.460424,17.65834,56,84,40
17.660423,18.05834,62,86,40
18.060425,18.458342,64,90,40
18.460424,18.65834,57,94,40
18.660423,19.05834,65,96,40
19.060425,19.25834,65,99,40
19.260424,19.458342,64,101,40
19.460424,19.65834,56,103,40
19.660423,19.858341,62,105,40
19.860424,20.05834,55,107,40
19.860424,20.05834,64,107,40
20.060425,20.25834,57,109,40
20.660423,20.80834,65,110,40
21.060425,21.208342,69,110,40
21.260424,21.40834,70,110,40
21.660423,21.80834,72,110,40
21.860424,22.00834,74,110,40
22.260424,22.40834,72,110,40
22.460424,22.608341,70,110,40
22.860424,23.00834,67,110,40
23.060425,23.208342,65,110,40
23.460424,23.608341,69,105,40
23.660423,23.80834,70,96,40
24.060425,24.208342,72,78,40
24.260424,24.40834,74,68,40
24.660423,24.80834,64,50,40
24.660423,24.80834,72,50,40
24.860424,25.00834,69,50,40
24.860424,25.00834,72,50,40
25.060425,25.208342,72,50,40
25.260424,25.40834,69,50,40
25.460424,25.608341,65,50,40
26.260424,26.40834,65,50,40
26.260424,26.40834,74,50,40
26.460424,26.608341,65,50,40
26.460424,26.608341,74,50,40
26.660423,26.80834,69,50,40
26.860424,27.00834,77,50,40
27.060425,27.208342,79,50,40
27.260424,27.40834,78,50,40
27.460424,27.608341,82,50,40
27.660423,27.80834,81,50,40
27.860424,28.00834,81,50,40
28.060425,28.208342,79,50,40
28.260424,28.40834,77,50,40
28.460424,28.65834,77,50,40
28.660423,28.80834,74,50,40
28.860424,29.00834,70,50,40
28.860424,29.00834,76,50,40
29.060425,29.208342,69,50,40
29.260424,29.40834,65,50,40
29.460424,29.608341,67,50,40
29.660423,29.858341,65,50,40
30.460424,30.608341,65,50,40
30.660423,30.80834,67,50,40
30.860424,31.05834,65,50,40
31.660423,31.80834,65,50,40
31.860424,32.00834,67,50,40
32.060425,32.20834,65,50,40
32.260426,32.40834,66,50,40
32.460423,32.60834,67,50,40
32.660423,32.808342,67,50,40
32.860424,33.00834,67,50,40
33.060425,33.20834,72,50,40
33.260426,33.40834,72,50,40
33.460423,33.60834,72,50,40
33.660423,33.808342,72,50,40
33.860424,34.00834,72,50,40
34.060425,34.20834,60,50,40
34.260426,34.40834,72,50,40
34.460423,34.65834,72,55,40
34.660423,34.808342,67,60,40
34.660423,34.808342,74,60,40
34.860424,35.00834,64,66,40
35.060425,35.25834,70,72,40
35.260426,35.40834,69,77,40
35.460423,35.60834,65,83,40
35.660423,35.85834,67,89,40
35.860424,36.00834,65,95,40
36.060425,36.20834,64,100,40
36.260426,36.40834,70,100,40
36.460423,36.60834,58,97,40
36.660423,36.808342,70,93,40
36.860424,37.00834,69,89,40
37.060425,37.20834,67,85,40
37.260426,37.40834,65,81,40
37.460423,37.60834,58,77,40
37.660423,37.808342,70,73,40
37.860424,38.00834,70,70,40
38.060425,38.20834,69,70,40
38.260426,38.40834,67,70,40
38.460423,38.60834,65,70,40
38.660423,38.808342,58,60,40
38.860424,39.00834,70,60,40
39.060425,39.20834,70,60,40
39.260426,39.41344,69,60,40
39.46732,39.62034,67,60,40
39.674217,39.827232,65,60,40
39.88111,40.039593,58,50,40
40.095398,40.25388,70,50,40
40.30968,40.474033,70,50,40
40.531902,40.751812,69,50,40
40.754128,41.21326,63,90,40
42.831047,43.29018,63,82,40
43.292583,43.75172,63,76,40
43.754124,43.982487,63,70,40
44.21566,44.674797,63,70,40
44.907967,45.367104,63,70,40
45.600273,46.05941,64,70,40
46.292583,46.751717,64,50,40
47.15412,47.752037,65,60,40
47.75412,47.952038,64,68,40
47.95412,48.352036,57,71,40
48.35412,48.552036,56,76,40
48.55412,48.952038,62,79,40
48.95412,49.352036,64,85,40
49.35412,49.552036,57,90,40
49.55412,49.952038,65,93,40
49.95412,50.152035,65,98,40
50.15412,50.352036,64,101,40
50.35412,50.552036,56,104,40
50.55412,50.752037,62,106,40
50.75412,50.952038,55,109,40
50.75412,50.952038,64,109,40
50.95412,51.152035,57,109,40
51.55412,51.702038,65,110,40
51.95412,52.102036,69,110,40
52.15412,52.302036,70,110,40
52.55412,52.702038,72,110,40
52.75412,52.902035,74,110,40
53.15412,53.302036,72,110,40
53.35412,53.502037,70,110,40
53.75412,53.902035,67,110,40
53.95412,54.102036,65,110,40
54.35412,54.502037,69,105,40
54.55412,54.702038,70,96,40
54.95412,55.102036,72,78,40
55.15412,55.302036,74,68,40
55.55412,55.702038,64,50,40
55.55412,55.702038,72,50,40
55.75412,55.902035,69,50,40
55.75412,55.902035,72,50,40
55.95412,56.102036,72,50,40
56.15412,56.302036,69,50,40
56.35412,56.502037,65,50,40
57.15412,57.302036,65,50,40
57.15412,57.302036,74,50,40
57.35412,57.502037,65,50,40
57.35412,57.502037,74,50,40
57.55412,57.702038,69,50,40
57.75412,57.902035,77,50,40
57.95412,58.102036,79,50,40
58.15412,58.302036,78,50,40
58.35412,58.502037,82,50,40
58.55412,58.702038,81,50,40
58.75412,58.902035,81,50,40
58.95412,59.102036,79,50,40
59.15412,59.302036,77,50,40
59.35412,59.552036,77,50,40
59.55412,59.702038,74,50,40
59.75412,59.902035,70,50,40
59.75412,59.902035,76,50,40
59.95412,60.102036,69,50,40
60.15412,60.302036,65,50,40
60.35412,60.502037,67,50,40
60.55412,60.752037,65,50,40
61.35412,61.502037,65,50,40
61.55412,61.702038,67,50,40
61.75412,61.952038,65,50,40
62.55412,62.702038,65,50,40
62.75412,62.902035,67,50,40
62.95412,63.102036,65,50,40
63.15412,63.302036,66,50,40
63.35412,63.502037,67,50,40
63.55412,63.702038,67,50,40
63.75412,63.902035,67,50,40
63.95412,64.102036,72,50,40
64.15412,64.30204,72,50,40
64.35412,64.50204,72,50,40
64.55412,64.702034,72,50,40
64.75412,64.90204,72,50,40
64.95412,65.102036,60,50,40
65.15412,65.30204,72,50,40
65.35412,65.55204,72,55,40
65.55412,65.702034,67,60,40
65.55412,65.702034,74,60,40
65.75412,65.90204,64,66,40
65.95412,66.15204,70,72,40
66.15412,66.30204,69,77,40
66.35412,66.50204,65,83,40
66.55412,66.75204,67,89,40
66.75412,66.90204,65,95,40
66.95412,67.102036,64,100,40
67.15412,67.30204,70,100,40
67.35412,67.50204,58,97,40
67.55412,67.702034,70,93,40
67.75412,67.90204,69,89,40
67.95412,68.102036,67,85,40
68.15412,68.30204,65,81,40
68.35412,68.50204,58,77,40
68.55412,68.702034,70,73,40
68.75412,68.90204,70,70,40
68.95412,69.10714,69,70,40
69.16102,69.31403,67,70,40
69.36791,69.52093,65,70,40
69.57481,69.73329,58,60,40
69.78909,69.94757,70,60,40
70.00338,70.16186,70,60,40
70.21767,70.38201,69,60,40
70.43989,70.60424,67,60,40
70.66211,70.82646,65,60,40
70.88433,71.055,58,50,40
71.1151,71.285774,70,50,40
71.34586,71.51654,70,50,40
71.57664,71.77455,69,110,40
72.176636,72.324554,60,110,40
72.37663,72.52455,65,70,40
72.37663,72.52455,69,70,40
72.57664,72.724556,65,70,40
72.57664,72.724556,69,70,40
72.776634,72.92455,65,70,40
72.776634,72.92455,69,70,40
72.97664,73.12455,65,70,40
72.97664,73.12455,69,70,40
73.176636,73.324554,65,70,40
73.176636,73.324554,69,70,40
73.37663,73.52455,65,70,40
73.37663,73.52455,69,70,40
73.57664,73.724556,65,70,40
73.57664,73.724556,69,70,40
73.776634,73.92455,65,70,40
73.776634,73.92455,69,70,40
73.97664,74.12455,65,70,40
73.97664,74.12455,69,70,40
74.176636,74.324554,65,70,40
74.176636,74.324554,69,70,40
74.37663,74.52455,65,70,40
74.37663,74.52455,69,70,40
74.57664,74.724556,65,70,40
74.776634,74.92455,65,70,40
74.97664,75.12455,65,70,40
75.176636,75.324554,65,70,40
75.37663,75.52455,65,70,40
75.57664,75.724556,65,70,40
75.776634,75.92455,64,70,40
75.97664,76.12455,64,70,40
76.176636,76.324554,64,70,40
76.37663,76.52455,64,70,40
76.57664,76.724556,64,70,40
76.776634,76.92455,64,70,40
76.97664,77.12455,69,110,40
76.97664,77.12455,65,110,40
77.176636,77.324554,69,70,40
77.176636,77.324554,77,70,40
77.37663,77.52455,69,70,40
77.37663,77.52455,77,70,40
77.57664,77.724556,69,70,40
77.57664,77.724556,77,70,40
77.776634,77.92455,69,70,40
77.776634,77.92455,77,70,40
77.97664,78.12455,69,70,40
77.97664,78.12455,77,70,40
78.176636,78.324554,69,70,40
78.176636,78.324554,77,70,40
78.37663,78.52455,69,70,40
78.37663,78.52455,77,70,40
78.57664,78.724556,69,70,40
78.57664,78.724556,77,70,40
78.776634,78.92455,69,70,40
78.776634,78.92455,77,70,40
78.97664,79.12455,69,70,40
78.97664,79.12455,77,70,40
79.176636,79.324554,69,70,40
79.176636,79.324554,77,70,40
79.37663,79.52455,67,70,40
79.37663,79.52455,76,70,40
79.57664,79.724556,67,70,40
79.57664,79.724556,76,70,40
79.776634,79.92455,67,70,40
79.776634,79.92455,76,70,40
79.97664,80.12455,67,70,40
79.97664,80.12455,76,70,40
80.176636,80.324554,67,70,40
80.176636,80.324554,76,70,40
80.37663,80.52455,67,70,40
80.37663,80.52455,76,70,40
80.57664,80.724556,76,70,40
80.57664,80.724556,67,70,40
80.776634,80.92455,76,70,40
80.776634,80.92455,67,70,40
80.97664,81.12455,76,70,40
80.97664,81.12455,67,70,40
81.176636,81.324554,67,70,40
81.176636,81.324554,76,70,40
81.37663,81.52455,67,70,40
81.37663,81.52455,76,70,40
81.57664,81.724556,67,70,40
81.57664,81.724556,76,70,40
81.776634,81.92455,69,70,40
81.776634,81.92455,77,70,40
82.57664,82.67455,64,70,40
82.676636,82.77455,62,70,40
82.776634,82.87455,64,70,40
82.87663,82.974556,65,70,40
82.97664,83.17455,67,70,40
83.776634,83.87455,67,70,40
83.87663,83.974556,65,70,40
83.97664,84.074554,67,70,40
84.07664,84.17455,69,70,40
84.176636,84.37455,70,70,40
84.97664,85.074554,67,70,40
85.07664,85.17455,65,70,40
85.176636,85.27793,67,70,40
85.28008,85.38138,69,70,40
85.38353,85.58827,70,70,40
85.797325,85.95034,77,70,40
86.00422,86.62275,76,70,40
86.62491,86.77792,65,70,40
86.8318,86.9331,81,76,40
86.93525,87.036545,80,79,40
87.0387,87.13999,81,82,40
87.14215,87.24344,83,85,40
87.2456,87.39861,84,88,40
87.45249,87.55379,67,94,40
87.55594,87.657234,65,97,40
87.659386,87.76068,67,100,40
87.76283,87.86413,69,85,40
87.86629,88.07834,70,70,40
88.29485,88.45334,77,70,40
88.50914,89.149765,76,70,40
89.15199,89.3719,76,70,40
89.596436,89.816345,76,70,40
89.81866,90.50856,74,70,40
90.51096,90.66945,74,110,40
90.72525,90.87317,74,70,40
90.72525,90.87317,83,70,40
90.925255,91.073166,74,70,40
90.925255,91.073166,83,70,40
91.12525,91.27317,74,70,40
91.12525,91.27317,83,70,40
91.32525,91.47317,74,70,40
91.32525,91.47317,83,70,40
91.52525,91.67317,74,70,40
91.52525,91.67317,83,70,40
91.72525,91.87317,74,70,40
91.72525,91.87317,83,70,40
91.925255,92.073166,74,70,40
91.925255,92.073166,83,70,40
92.12525,92.27317,74,70,40
92.12525,92.27317,83,70,40
92.32525,92.47317,74,70,40
92.32525,92.47317,84,70,40
92.52525,92.67317,74,70,40
92.52525,92.67317,84,70,40
92.72525,92.87317,74,70,40
92.72525,92.87317,84,70,40
92.925255,93.073166,74,70,40
92.925255,93.073166,84,70,40
93.12525,93.27317,74,70,40
93.12525,93.27317,84,70,40
93.32525,93.47317,74,70,40
93.32525,93.47317,84,70,40
93.52525,93.67317,74,70,40
93.52525,93.67317,84,70,40
93.72525,93.87317,74,70,40
93.72525,93.87317,84,70,40
93.925255,94.073166,74,70,40
93.925255,94.073166,84,70,40
94.12525,94.27317,74,70,40
94.12525,94.27317,84,70,40
94.32525,94.47317,74,70,40
94.32525,94.47317,84,70,40
94.52525,94.67317,74,70,40
94.52525,94.67317,84,70,40
94.72525,94.87317,74,70,40
94.72525,94.87317,84,70,40
94.925255,95.073166,74,70,40
94.925255,95.073166,84,70,40
95.12525,95.27317,74,70,40
95.12525,95.27317,84,70,40
95.32525,95.47317,74,100,40
95.32525,95.47317,83,100,40
95.52525,95.67317,74,70,40
95.52525,95.67317,83,70,40
95.72525,95.87317,74,70,40
95.72525,95.87317,83,70,40
95.925255,96.073166,83,70,40
95.925255,96.073166,74,70,40
96.12525,96.27317,83,70,40
96.12525,96.27317,74,70,40
96.32525,96.47317,83,70,40
96.32525,96.47317,74,70,40
96.52525,96.67317,74,70,40
96.52525,96.67317,83,70,40
96.72525,96.87317,74,70,40
96.72525,96.87317,83,70,40
96.925255,97.073166,74,70,40
96.925255,97.073166,83,70,40
97.12525,97.27317,74,70,40
97.12525,97.27317,83,70,40
97.32525,97.47317,74,70,40
97.32525,97.47317,83,70,40
97.52525,97.67317,74,70,40
97.52525,97.67317,83,70,40
97.72525,97.87317,74,70,40
97.72525,97.87317,83,70,40
97.925255,98.073166,74,70,40
97.925255,98.073166,83,70,40
98.12525,98.27317,74,70,40
98.12525,98.27317,83,70,40
98.32525,98.47317,74,70,40
98.32525,98.47317,83,70,40
98.52525,98.67317,74,70,40
98.52525,98.67317,83,70,40
98.72525,98.87317,74,70,40
98.72525,98.87317,83,70,40
98.925255,99.073166,76,70,40
98.925255,99.073166,83,70,40
99.12525,99.27317,76,70,40
99.12525,99.27317,83,70,40
99.32525,99.47317,76,69,40
99.32525,99.47317,83,69,40
99.52525,99.67317,76,67,40
99.52525,99.67317,83,67,40
99.72525,99.87317,76,66,40
99.72525,99.87317,83,66,40
99.925255,100.073166,76,64,40
99.925255,100.073166,83,64,40
100.12525,100.27317,84,63,40
100.12525,100.27317,76,63,40
100.32525,100.47317,84,61,40
100.32525,100.47317,76,61,40
100.52525,100.67317,84,59,40
100.52525,100.67317,76,59,40
100.72525,100.87317,76,58,40
100.72525,100.87317,84,58,40
100.925255,101.073166,76,56,40
100.925255,101.073166,84,56,40
101.12525,101.27317,83,55,40
101.12525,101.27317,76,55,40
101.32525,101.47317,76,50,40
101.32525,101.47317,83,50,40
101.52525,101.67317,76,50,40
101.52525,101.67317,83,50,40
101.72525,101.87317,76,50,40
101.72525,101.87317,83,50,40
101.925255,102.073166,76,50,40
101.925255,102.073166,83,50,40
102.12525,102.27317,76,50,40
102.12525,102.27317,83,50,40
102.32525,102.47317,76,50,40
102.32525,102.47317,83,50,40
102.52525,102.67317,76,50,40
102.52525,102.67317,83,50,40
102.72525,102.87317,76,50,40
102.72525,102.87317,83,50,40
102.925255,103.073166,76,50,40
102.925255,103.073166,83,50,40
103.12525,103.27317,76,50,40
103.12525,103.27317,83,50,40
103.32525,103.47317,76,50,40
103.32525,103.47317,83,50,40
103.52525,103.67317,76,50,40
103.52525,103.67317,83,50,40
103.72525,103.87317,83,50,40
103.72525,103.87317,76,50,40
103.925255,104.073166,76,55,40
103.925255,104.073166,80,55,40
104.12525,104.27317,76,60,40
104.12525,104.27317,80,60,40
104.32525,104.47317,76,65,40
104.32525,104.47317,80,65,40
104.52525,104.67317,76,70,40
104.52525,104.67317,80,70,40
104.72525,104.87317,76,75,40
104.72525,104.87317,80,75,40
104.925255,105.07827,76,80,40
104.925255,105.07827,80,80,40
105.13215,105.285164,76,85,40
105.13215,105.285164,80,85,40
105.33904,105.49206,76,90,40
105.33904,105.49206,80,90,40
105.54594,105.70442,76,95,40
105.54594,105.70442,80,95,40
105.76022,105.86902,66,100,40
105.87134,105.98013,64,103,40
105.982445,106.09543,66,105,40
106.09783,106.210815,68,108,40
106.21322,106.3717,69,110,40
106.4275,106.57542,85,70,40
106.6275,106.77542,85,70,40
106.8275,106.97542,76,70,40
106.8275,106.97542,85,70,40
107.027504,107.175415,76,70,40
107.027504,107.175415,85,70,40
107.2275,107.37542,76,70,40
107.2275,107.37542,85,70,40
107.4275,107.57542,76,70,40
107.4275,107.57542,85,70,40
107.6275,107.77542,76,70,40
107.6275,107.77542,85,70,40
107.8275,107.97542,76,70,40
107.8275,107.97542,85,70,40
108.027504,108.175415,76,70,40
108.027504,108.175415,86,70,40
108.2275,108.37542,76,70,40
108.2275,108.37542,86,70,40
108.4275,108.57542,76,70,40
108.4275,108.57542,86,70,40
108.6275,108.77542,76,70,40
108.6275,108.77542,86,70,40
108.8275,108.97542,76,70,40
108.8275,108.97542,86,70,40
109.027504,109.175415,76,70,40
109.027504,109.175415,86,70,40
109.2275,109.37542,76,70,40
109.2275,109.37542,86,70,40
109.4275,109.57542,76,70,40
109.4275,109.57542,86,70,40
109.6275,109.77542,76,70,40
109.6275,109.77542,86,70,40
109.8275,109.97542,76,70,40
109.8275,109.97542,83,70,40
110.027504,110.12542,71,70,40
110.1275,110.22542,69,70,40
110.2275,110.32542,71,70,40
110.3275,110.425415,73,70,40
110.4275,110.57542,74,70,40
110.6275,110.72542,71,70,40
110.7275,110.82542,69,70,40
110.8275,110.925415,71,70,40
110.9275,111.02542,73,70,40
111.027504,111.175415,73,100,40
111.2275,111.37542,73,70,40
111.2275,111.37542,81,70,40
111.4275,111.57542,73,70,40
111.4275,111.57542,81,70,40
111.6275,111.77542,73,70,40
111.6275,111.77542,81,70,40
111.8275,111.97542,73,70,40
111.8275,111.97542,81,70,40
112.027504,112.175415,73,70,40
112.027504,112.175415,81,70,40
112.2275,112.37542,73,70,40
112.2275,112.37542,81,70,40
112.4275,112.52542,68,70,40
112.527504,112.62542,66,70,40
112.6275,112.72542,68,70,40
112.7275,112.82542,69,70,40
112.8275,112.97542,71,70,40
113.027504,113.175415,73,70,40
113.2275,113.37542,74,70,40
113.4275,113.57542,71,70,40
113.6275,113.77542,69,70,40
113.8275,113.97542,74,70,40
114.027504,114.175415,74,70,40
114.2275,114.37542,74,70,40
114.4275,114.57542,74,70,40
114.6275,114.77542,74,70,40
114.8275,114.97542,74,70,40
114.8275,114.97542,83,70,40
115.027504,115.175415,74,70,40
115.027504,115.175415,83,70,40
115.2275,115.37542,74,70,40
115.2275,115.37542,83,70,40
115.4275,115.57542,74,70,40
115.4275,115.57542,83,70,40
115.6275,115.77542,74,70,40
115.6275,115.77542,83,70,40
115.8275,115.97542,74,70,40
115.8275,115.97542,83,70,40
116.027504,116.175415,74,73,40
116.027504,116.175415,83,73,40
116.2275,116.37542,74,77,40
116.2275,116.37542,83,77,40
116.4275,116.57542,74,80,40
116.6275,116.72542,59,84,40
116.7275,116.82542,57,86,40
116.8275,116.925415,59,87,40
116.9275,117.02542,61,89,40
117.027504,117.18052,62,91,40
117.2344,117.33569,68,94,40
117.337845,117.43914,66,96,40
117.44129,117.54259,68,98,40
117.54474,117.646034,69,100,40
117.648186,117.80667,68,102,40
117.86247,117.967384,66,105,40
117.96962,118.074524,64,107,40
118.07676,118.18167,66,109,40
118.1839,118.28881,68,110,40
118.291046,118.449524,69,110,40
118.505325,118.60325,66,110,40
118.60533,118.70325,64,110,40
118.70533,118.803246,66,110,40
118.80533,118.903244,68,110,40
118.90533,119.053246,69,110,40
119.10533,119.20325,66,110,40
119.20533,119.303246,64,110,40
119.30533,119.403244,66,110,40
119.40533,119.50324,68,110,40
119.505325,119.653244,69,110,40
119.70533,119.803246,66,110,40
119.80533,119.903244,64,110,40
119.90533,120.00324,66,110,40
120.005325,120.10325,68,110,40
120.10533,120.25324,69,110,40
120.30533,120.403244,66,110,40
120.40533,120.50324,64,110,40
120.505325,120.60325,66,110,40
120.60533,120.70325,68,110,40
120.70533,120.85325,69,110,40
120.90533,121.00324,66,110,40
121.005325,121.10325,64,110,40
121.10533,121.20325,66,110,40
121.20533,121.303246,68,110,40
121.30533,121.45325,69,110,40
121.505325,121.60325,66,110,40
121.60533,121.70325,64,110,40
121.70533,121.803246,66,110,40
121.80533,121.903244,68,110,40
121.90533,122.053246,69,110,40
122.10533,122.20325,66,110,40
122.20533,122.303246,64,110,40
122.30533,122.403244,66,110,40
122.40533,122.50324,68,110,40
122.505325,122.653244,69,110,40
122.70533,122.803246,66,110,40
122.80533,122.903244,64,110,40
122.90533,123.00324,66,110,40
123.005325,123.10325,68,110,40
123.10533,123.25324,69,110,40
123.30533,123.403244,66,110,40
123.40533,123.50324,64,110,40
123.505325,123.60325,66,110,40
123.60533,123.70325,68,110,40
123.70533,123.85325,69,110,40
123.90533,124.00324,66,110,40
124.005325,124.10325,64,110,40
124.10533,124.20325,66,110,40
124.20533,124.303246,68,110,40
124.30533,124.45325,69,110,40
124.505325,124.60325,66,110,40
124.60533,124.70325,64,110,40
124.70533,124.803246,66,110,40
124.80533,124.903244,68,110,40
124.90533,125.053246,69,110,40
125.10533,125.20325,66,110,40
125.20533,125.303246,64,110,40
125.30533,125.403244,66,110,40
125.40533,125.50324,68,110,40
125.505325,125.653244,69,110,40
125.70533,125.803246,66,110,40
125.80533,125.903244,64,110,40
125.90533,126.00324,66,110,40
126.005325,126.10325,68,110,40
126.10533,126.25324,69,110,40
126.30533,126.403244,66,110,40
126.40533,126.50324,64,110,40
126.505325,126.60325,66,110,40
126.60533,126.70325,68,110,40
126.70533,126.85325,69,110,40
126.90533,127.00324,66,110,40
127.005325,127.10325,64,110,40
127.10533,127.20325,66,110,40
127.20533,127.303246,68,110,40
127.30533,127.45325,69,110,40
127.505325,127.60325,66,110,40
127.60533,127.70325,64,110,40
127.70533,127.803246,66,110,40
127.80533,127.903244,68,110,40
127.90533,128.05325,69,110,40
128.10533,128.20325,66,110,40
128.20532,128.30325,64,110,40
128.30533,128.40324,66,110,40
128.40533,128.50325,68,110,40
128.50533,128.65324,69,110,40
128.70532,128.80325,66,110,40
128.80533,128.90324,64,110,40
128.90533,129.00325,66,110,40
129.00533,129.10324,68,110,40
129.10533,129.25325,69,110,40
129.30533,129.40324,66,110,40
129.40533,129.50325,64,110,40
129.50533,129.60324,66,110,40
129.60533,129.70325,68,110,40
129.70532,129.85324,69,110,40
129.90533,130.00325,66,110,40
130.00533,130.10324,64,110,40
130.10533,130.20325,66,110,40
130.20532,130.30325,68,110,40
130.30533,130.45325,69,110,40
130.50533,130.60324,66,110,40
130.60533,130.70325,64,110,40
130.70532,130.80325,66,110,40
130.80533,130.90324,68,110,40
130.90533,131.05325,69,110,40
131.10533,131.20325,66,110,40
131.20532,131.30325,64,110,40
131.30533,131.40324,66,110,40
131.40533,131.50325,68,110,40
131.50533,131.65324,69,110,40
131.70532,131.80325,66,110,40
131.80533,131.90324,64,110,40
131.90533,132.00325,66,110,40
132.00533,132.10324,68,110,40
132.10533,132.25325,69,110,40
132.30533,132.40324,66,110,40
132.40533,132.50325,64,110,40
132.50533,132.60324,66,110,40
132.60533,132.70325,68,110,40
132.70532,132.85324,69,110,40
132.90533,133.00325,66,110,40
133.00533,133.10324,64,110,40
133.10533,133.20325,66,110,40
133.20532,133.30325,68,110,40
133.30533,133.45325,69,110,40
133.50533,133.60324,66,110,40
133.60533,133.70325,64,110,40
133.70532,133.80325,66,110,40
133.80533,133.90324,68,110,40
133.90533,134.05325,69,110,40
134.10533,134.20325,66,110,40
134.20532,134.30325,64,110,40
134.30533,134.40324,66,110,40
134.40533,134.50325,68,110,40
134.50533,134.65324,69,110,40
134.70532,134.80325,66,110,40
134.80533,134.90324,64,110,40
134.90533,135.00325,66,110,40
135.00533,135.10324,68,110,40
135.10533,135.25325,69,110,40
135.30533,135.40324,66,110,40
135.40533,135.50325,64,110,40
135.50533,135.60324,66,110,40
135.60533,135.70325,68,110,40
135.70532,135.85324,69,110,40
135.90533,136.00325,66,110,40
136.00533,136.10324,64,110,40
136.10533,136.20325,66,110,40
136.20532,136.30325,68,110,40
136.30533,136.45325,69,110,40
136.50533,136.60324,66,110,40
136.60533,136.70325,64,110,40
136.70532,136.80325,66,110,40
136.80533,136.90324,68,110,40
136.90533,137.05325,69,110,40
137.10533,137.20325,66,110,40
137.20532,137.30325,64,110,40
137.30533,137.40324,66,110,40
137.40533,137.50325,68,110,40
137.50533,137.65324,69,110,40
137.70532,137.80325,66,107,40
137.80533,137.90324,64,105,40
137.90533,138.00325,66,104,40
138.00533,138.10324,68,102,40
138.10533,138.25325,69,100,40
138.30533,138.40324,66,97,40
138.40533,138.50325,64,95,40
138.50533,138.60324,66,93,40
138.60533,138.70325,68,91,40
138.70532,138.85324,69,90,40
138.90533,139.00325,66,86,40
139.00533,139.10324,64,84,40
139.10533,139.20325,66,83,40
139.20532,139.30325,68,81,40
139.30533,139.45525,69,79,40
139.50803,139.60727,66,76,40
139.60938,139.70862,64,74,40
139.71074,139.80997,66,72,40
139.81209,139.91132,68,71,40
139.91344,140.06335,69,70,40
140.11613,140.21538,66,70,40
140.21748,140.31673,64,70,40
140.31883,140.41808,66,70,40
140.4202,140.51942,68,70,40
140.52155,140.67146,69,70,40
140.72424,140.82349,66,70,40
140.82559,140.92484,64,70,40
140.92694,141.02618,66,70,40
141.02829,141.12753,68,70,40
141.12965,141.27956,69,60,40
141.33235,141.4316,66,60,40
141.4337,141.53294,64,60,40
141.53505,141.6343,66,60,40
141.6364,141.73564,68,60,40
141.73775,141.89076,69,60,40
141.94466,142.04594,66,60,40
142.0481,142.14938,64,60,40
142.15155,142.25284,66,60,40
142.25499,142.3563,68,60,40
142.35844,142.51146,69,60,40
142.56534,142.66663,66,60,40
142.66878,142.77008,64,60,40
142.77223,142.87352,66,60,40
142.87569,142.97697,68,60,40
142.97913,143.1343,69,60,40
143.18892,143.29163,66,60,40
143.29381,143.39653,64,60,40
143.39871,143.50142,66,60,40
143.5036,143.60631,68,60,40
143.6085,143.76366,69,60,40
143.81828,143.921,66,60,40
143.92319,144.0259,64,60,40
144.02808,144.13078,66,60,40
144.13298,144.23569,68,60,40
144.23787,144.39635,69,50,40
144.45215,144.55707,66,50,40
144.5593,144.6642,64,50,40
144.66644,144.77135,66,50,40
144.77357,144.8785,68,50,40
144.88072,145.0392,69,50,40
145.09502,145.19992,66,50,40
145.20215,145.30707,64,50,40
145.3093,145.4142,66,50,40
145.41644,145.52135,68,50,40
145.52357,145.68207,69,50,40
145.73787,145.84277,66,50,40
145.845,145.94992,64,50,40
145.95215,146.05705,66,50,40
146.0593,146.1642,68,50,40
146.16643,146.32721,69,50,40
146.38382,146.49025,66,40,40
146.49252,146.59895,64,40,40
146.60121,146.70764,66,40,40
146.70992,146.81635,68,40,40
146.8186,146.98296,69,40,40
147.04083,147.14963,66,40,40
147.15195,147.26074,64,40,40
147.26305,147.37184,66,40,40
147.37416,147.48296,67,40,40
147.48528,147.65594,69,40,40
147.71605,147.82903,66,40,40
147.83142,147.94441,64,40,40
147.94681,148.0598,65,40,40
148.0622,148.17517,67,40,40
148.17758,148.34825,69,40,40
148.40836,148.52133,65,40,40
148.52373,148.63672,64,40,40
148.63911,148.7521,65,40,40
148.7545,149.06781,67,40,40
149.06989,149.6678,69,40,40
149.66989,150.2678,67,41,40
150.26988,150.8678,65,43,40
150.86989,151.4678,67,44,40
151.4699,152.07463,67,46,40
152.07678,152.70262,79,47,40
152.70486,153.35333,67,49,40
153.35565,153.57556,55,50,40
153.57788,154.19801,60,70,40
154.20009,154.79802,60,70,40
154.8001,155.39801,60,70,40
155.4001,155.99802,60,70,40
156.00009,156.598,60,70,40
156.6001,157.19801,60,70,40
157.20009,157.39801,60,70,40
157.4001,157.54802,57,70,40
157.6001,157.74802,57,70,40
157.8001,157.94801,64,70,40
158.00009,158.14801,57,70,40
158.20009,158.348,77,50,40
158.4001,158.54802,79,50,40
158.6001,158.74802,77,50,40
158.8001,159.39801,81,50,40
159.4001,159.99802,79,50,40
160.00009,160.598,77,50,40
160.6001,161.19801,79,50,40
161.20009,161.79802,81,50,40
161.8001,162.41216,79,50,40
162.41438,162.57286,77,50,40
162.62866,162.78716,79,50,40
162.84296,163.00143,77,50,40
163.05724,163.48357,63,90,40
165.01877,165.4779,63,82,40
165.4803,165.93944,63,76,40
165.94185,166.17021,63,70,40
166.40338,166.86252,63,70,40
167.09569,167.55482,63,70,40
167.788,168.24713,64,70,40
168.4803,168.93944,64,70,40
169.3704,169.98262,65,73,40
169.9847,170.18262,64,79,40
170.1847,170.58261,57,81,40
170.5847,170.78261,56,84,40
170.7847,171.18262,62,86,40
171.1847,171.58261,64,90,40
171.5847,171.78261,57,94,40
171.7847,172.18262,65,96,40
172.1847,172.38261,65,99,40
172.3847,172.58261,64,101,40
172.5847,172.78261,56,103,40
172.7847,172.98262,62,105,40
172.9847,173.18262,55,107,40
172.9847,173.18262,64,107,40
173.1847,173.38261,57,109,40
173.7847,173.93262,65,110,40
174.1847,174.33261,69,110,40
174.3847,174.53261,70,110,40
174.7847,174.93262,72,110,40
174.9847,175.13261,74,110,40
175.3847,175.53261,72,110,40
175.5847,175.73262,70,110,40
175.9847,176.13261,67,110,40
176.1847,176.33261,65,110,40
176.5847,176.73262,69,105,40
176.7847,176.93262,70,96,40
177.1847,177.33261,72,78,40
177.3847,177.53261,74,68,40
177.7847,177.93262,64,50,40
177.7847,177.93262,72,50,40
177.9847,178.13261,69,50,40
177.9847,178.13261,72,50,40
178.1847,178.33261,72,50,40
178.3847,178.53261,69,50,40
178.5847,178.73262,65,50,40
179.3847,179.53261,65,50,40
179.3847,179.53261,74,50,40
179.5847,179.73262,65,50,40
179.5847,179.73262,74,50,40
179.7847,179.93262,69,50,40
179.9847,180.13261,77,50,40
180.1847,180.33261,79,50,40
180.3847,180.53261,78,50,40
180.5847,180.73262,82,50,40
180.7847,180.93262,81,50,40
180.9847,181.13261,81,50,40
181.1847,181.33261,79,50,40
181.3847,181.53261,77,50,40
181.5847,181.78261,77,50,40
181.7847,181.93262,74,50,40
181.9847,182.13261,70,50,40
181.9847,182.13261,76,50,40
182.1847,182.33261,69,50,40
182.3847,182.53261,65,50,40
182.5847,182.73262,67,50,40
182.7847,182.98262,65,50,40
183.5847,183.73262,65,50,40
183.7847,183.93262,67,50,40
183.9847,184.18262,65,50,40
184.7847,184.93262,65,50,40
184.9847,185.13261,67,50,40
185.1847,185.33261,65,50,40
185.3847,185.53261,66,50,40
185.5847,185.73262,67,50,40
185.7847,185.93262,67,50,40
185.9847,186.13261,67,50,40
186.1847,186.33261,72,50,40
186.3847,186.53261,72,50,40
186.5847,186.73262,72,50,40
186.7847,186.93262,72,50,40
186.9847,187.13261,72,50,40
187.1847,187.33261,60,50,40
187.3847,187.53261,72,50,40
187.5847,187.78261,72,55,40
187.7847,187.93262,67,60,40
187.7847,187.93262,74,60,40
187.9847,188.13261,64,66,40
188.1847,188.38261,70,72,40
188.3847,188.53261,69,77,40
188.5847,188.73262,65,83,40
188.7847,188.98262,67,89,40
188.9847,189.13261,65,95,40
189.1847,189.33261,64,100,40
189.3847,189.53261,70,100,40
189.5847,189.73262,58,97,40
189.7847,189.93262,70,93,40
189.9847,190.13261,69,89,40
190.1847,190.33261,67,85,40
190.3847,190.53261,65,81,40
190.5847,190.73462,58,77,40
190.7874,190.93732,70,73,40
190.9901,191.14001,70,70,40
191.19281,191.34271,69,70,40
191.39551,191.54543,67,70,40
191.5982,191.74812,65,70,40
191.8009,191.95392,58,60,40
192.00781,192.16083,70,60,40
192.2147,192.36772,70,60,40
192.4216,192.57675,69,60,40
192.6314,192.78654,67,60,40
192.84117,192.99634,65,60,40
193.05096,193.20944,58,50,40
193.26526,193.42374,70,50,40
193.47954,193.63802,70,50,40
193.69382,193.90587,69,110,40
193.90811,194.33444,63,90,40
195.86964,196.32878,63,82,40
196.33118,196.79031,63,76,40
196.79271,197.02109,63,70,40
197.25426,197.7134,63,70,40
197.94656,198.4057,63,70,40
198.63887,199.098,64,70,40
199.33118,199.79031,64,50,40
200.22128,200.83348,65,60,40
200.83557,201.03348,64,68,40
201.03557,201.43349,57,71,40
201.43556,201.63348,56,76,40
201.63557,202.03348,62,79,40
202.03557,202.43349,64,85,40
202.43556,202.63348,57,90,40
202.63557,203.03348,65,93,40
203.03557,203.23349,65,98,40
203.23557,203.43349,64,101,40
203.43556,203.63348,56,104,40
203.63557,203.83348,62,106,40
203.83557,204.03348,55,109,40
203.83557,204.03348,64,109,40
204.03557,204.23349,57,109,40
204.63557,204.78348,65,110,40
205.03557,205.18349,69,110,40
205.23557,205.38348,70,110,40
205.63557,205.78348,72,110,40
205.83557,205.98349,74,110,40
206.23557,206.38348,72,110,40
206.43556,206.58348,70,110,40
206.83557,206.98349,67,110,40
207.03557,207.18349,65,110,40
207.43556,207.58348,69,105,40
207.63557,207.78348,70,96,40
208.03557,208.18349,72,78,40
208.23557,208.38348,74,68,40
208.63557,208.78348,64,50,40
208.63557,208.78348,72,50,40
208.83557,208.98349,69,50,40
208.83557,208.98349,72,50,40
209.03557,209.18349,72,50,40
209.23557,209.38348,69,50,40
209.43556,209.58348,65,50,40
210.23557,210.38348,65,50,40
210.23557,210.38348,74,50,40
210.43556,210.58348,65,50,40
210.43556,210.58348,74,50,40
210.63557,210.78348,69,50,40
210.83557,210.98349,77,50,40
211.03557,211.18349,79,50,40
211.23557,211.38348,78,50,40
211.43556,211.58348,82,50,40
211.63557,211.78348,81,50,40
211.83557,211.98349,81,50,40
212.03557,212.18349,79,50,40
212.23557,212.38348,77,50,40
212.43556,212.63348,77,50,40
212.63557,212.78348,74,50,40
212.83557,212.98349,70,50,40
212.83557,212.98349,76,50,40
213.03557,213.18349,69,50,40
213.23557,213.38348,65,50,40
213.43556,213.58348,67,50,40
213.63557,213.83348,65,50,40
214.43556,214.58348,65,50,40
214.63557,214.78348,67,50,40
214.83557,215.03348,65,50,40
215.63557,215.78348,65,50,40
215.83557,215.98349,67,50,40
216.03557,216.18349,65,50,40
216.23557,216.38348,66,50,40
216.43556,216.58348,67,50,40
216.63557,216.78348,67,50,40
216.83557,216.98349,67,50,40
217.03557,217.18349,72,50,40
217.23557,217.38348,72,50,40
217.43556,217.58348,72,50,40
217.63557,217.78348,72,50,40
217.83557,217.98349,72,50,40
218.03557,218.18349,60,50,40
218.23557,218.38348,72,50,40
218.43556,218.63348,72,55,40
218.63557,218.78348,67,60,40
218.63557,218.78348,74,60,40
218.83557,218.98349,64,66,40
219.03557,219.23349,70,72,40
219.23557,219.38348,69,77,40
219.43556,219.58348,65,83,40
219.63557,219.83348,67,89,40
219.83557,219.98349,65,95,40
220.03557,220.18349,64,100,40
220.23557,220.38348,70,100,40
220.43556,220.58348,58,97,40
220.63557,220.78348,70,93,40
220.83557,220.98349,69,89,40
221.03557,221.18349,67,85,40
221.23557,221.38548,65,81,40
221.43826,221.58818,58,77,40
221.64098,221.7909,70,73,40
221.84367,221.99359,70,70,40
222.04637,222.19629,69,70,40
222.24908,222.39899,67,70,40
222.45178,222.6048,65,70,40
222.65868,222.81169,58,60,40
222.86557,223.01859,70,60,40
223.07246,223.22548,70,60,40
223.27936,223.43239,69,60,40
223.48627,223.63928,67,60,40
223.69316,223.84831,65,60,40
223.90294,224.06143,58,50,40
224.11723,224.27571,70,50,40
224.33151,224.48999,70,50,40
224.5458,224.75786,69,70,40
224.76009,225.18642,57,100,40
225.40294,225.82928,57,90,40
225.83151,226.27364,57,80,40
226.27596,226.50432,57,70,40
226.74672,227.22423,72,70,40
226.74672,227.22423,81,70,40
227.22673,227.72412,72,60,40
227.22673,227.72412,81,60,40
227.72673,228.0236,72,50,40
227.72673,228.0236,81,50,40
228.40172,229.14781,72,50,40
228.40172,229.14781,81,50,40
229.15172,229.52281,72,120,40
229.15172,229.52281,81,120,40
0.0,0.09791667,53,1,41
0.6,1.1979166,53,70,41
1.2,1.7979167,52,70,41
1.8,2.3979166,53,70,41
2.4,2.9979167,52,70,41
3.0,3.5979166,53,70,41
3.6,4.1979165,52,70,41
4.2,4.3584814,53,70,41
4.414285,4.572767,53,70,41
4.62857,4.7870517,52,70,41
4.842855,5.0013366,53,70,41
5.05714,5.2156215,69,50,41
5.271425,5.429907,76,50,41
5.48571,5.6336265,69,50,41
5.68571,5.8336267,53,50,41
5.88571,6.2836266,65,50,41
6.28571,6.483627,64,50,41
6.48571,6.6836267,70,50,41
6.68571,6.8836265,69,50,41
6.88571,7.0836267,57,50,41
7.08571,7.2836266,69,50,41
7.28571,7.483627,62,50,41
7.48571,7.6836267,70,50,41
7.68571,7.8836265,64,50,41
7.88571,8.083627,69,50,41
8.08571,8.283627,60,50,41
8.28571,8.683627,65,50,41
8.68571,8.883627,52,50,41
8.88571,9.083627,64,50,41
9.08571,9.297763,57,50,41
9.299995,9.512048,69,50,41
9.51428,9.726333,60,50,41
9.728565,9.940618,53,50,41
9.94285,10.369188,51,90,41
10.585705,11.012043,51,100,41
11.014275,11.473409,51,94,41
11.475813,11.704178,51,88,41
11.937351,12.396485,51,82,41
12.398889,12.858023,51,76,41
12.860427,13.088792,51,70,41
13.321965,13.781099,51,70,41
14.014272,14.473406,51,70,41
14.706579,15.165713,52,70,41
15.398886,15.85802,52,70,41
15.860424,16.05834,53,70,41
16.060425,16.25834,48,71,41
16.260424,16.458342,57,73,41
16.460424,16.65834,59,75,41
16.660423,16.858341,48,77,41
16.860424,17.05834,60,79,41
17.060425,17.25834,62,81,41
17.260424,17.458342,48,83,41
17.460424,17.65834,60,84,41
17.660423,17.858341,59,86,41
17.860424,18.05834,48,88,41
18.060425,18.25834,58,90,41
18.060425,18.25834,49,90,41
18.260424,18.458342,48,92,41
18.260424,18.458342,57,92,41
18.460424,18.65834,48,94,41
18.660423,18.858341,57,96,41
18.860424,19.05834,59,97,41
19.060425,19.25834,48,99,41
19.260424,19.458342,60,101,41
19.460424,19.65834,59,103,41
19.660423,19.858341,48,105,41
19.860424,20.05834,58,107,41
20.060425,20.25834,57,109,41
20.260424,20.40834,53,110,41
20.460424,20.858341,55,110,41
20.860424,21.458342,57,110,41
21.460424,22.05834,55,110,41
22.060425,22.65834,53,110,41
22.660423,23.25834,55,110,41
23.260424,23.858341,57,110,41
23.860424,24.458342,55,87,41
24.460424,24.608341,53,59,41
24.660423,24.80834,55,50,41
24.860424,25.00834,53,50,41
25.060425,25.208342,57,50,41
25.260424,25.40834,53,50,41
25.460424,25.608341,58,50,41
26.260424,26.40834,58,50,41
26.460424,26.608341,58,50,41
26.660423,26.80834,65,50,41
26.860424,27.00834,65,50,41
27.060425,27.208342,67,50,41
27.260424,27.40834,66,50,41
27.460424,27.608341,67,50,41
27.660423,27.80834,69,50,41
27.860424,28.00834,62,50,41
28.060425,28.208342,64,50,41
28.260424,28.40834,60,50,41
28.460424,28.65834,62,50,41
28.660423,28.80834,55,50,41
28.860424,29.00834,60,50,41
29.060425,29.25834,60,50,41
29.860424,30.00834,57,50,41
30.060425,30.208342,60,50,41
30.260424,30.458342,58,50,41
31.060425,31.208342,58,50,41
31.260424,31.40834,58,50,41
31.460424,31.65834,57,50,41
32.260426,32.40834,60,50,41
32.460423,32.60834,58,50,41
32.660423,32.808342,58,50,41
32.860424,33.00834,57,50,41
33.060425,33.20834,55,50,41
33.260426,33.45834,53,50,41
33.460423,33.60834,55,50,41
33.660423,33.808342,52,50,41
33.860424,34.00834,53,50,41
34.060425,34.20834,64,50,41
34.260426,34.40834,65,50,41
34.460423,34.65834,62,55,41
34.660423,34.808342,50,60,41
34.860424,35.00834,52,66,41
35.060425,35.25834,52,72,41
35.260426,35.40834,53,77,41
35.460423,35.60834,57,83,41
35.660423,35.85834,58,89,41
35.860424,36.00834,57,95,41
36.060425,36.20834,55,100,41
36.260426,36.45834,55,100,41
36.460423,36.60834,53,97,41
36.660423,36.808342,52,93,41
36.860424,37.00834,57,89,41
37.060425,37.20834,58,85,41
37.260426,37.40834,60,81,41
37.460423,37.65834,55,77,41
37.660423,37.808342,53,73,41
37.860424,38.00834,52,70,41
38.060425,38.20834,57,70,41
38.260426,38.40834,58,70,41
38.460423,38.60834,60,70,41
38.660423,38.85834,55,60,41
38.860424,39.00834,53,60,41
39.060425,39.20834,52,60,41
39.260426,39.41344,57,60,41
39.46732,39.62034,58,60,41
39.674217,39.827232,60,60,41
39.88111,40.093166,55,50,41
40.095398,40.25388,53,50,41
40.30968,40.474033,52,50,41
40.531902,40.751812,53,50,41
40.754128,41.21326,51,90,41
41.446434,41.905567,51,100,41
41.90797,42.367104,51,94,41
42.36951,42.597874,51,88,41
42.831047,43.29018,51,82,41
43.292583,43.75172,51,76,41
43.754124,43.982487,51,70,41
44.21566,44.674797,51,70,41
44.907967,45.367104,51,70,41
45.600273,46.05941,52,70,41
46.292583,46.751717,52,50,41
46.75412,46.952038,53,55,41
46.95412,47.152035,48,57,41
47.15412,47.352036,57,60,41
47.35412,47.552036,59,63,41
47.55412,47.752037,48,65,41
47.75412,47.952038,60,68,41
47.95412,48.152035,62,71,41
48.15412,48.352036,48,74,41
48.35412,48.552036,60,76,41
48.55412,48.752037,59,79,41
48.75412,48.952038,48,82,41
48.95412,49.152035,58,85,41
48.95412,49.152035,49,85,41
49.15412,49.352036,48,87,41
49.15412,49.352036,57,87,41
49.35412,49.552036,48,90,41
49.55412,49.752037,57,93,41
49.75412,49.952038,59,95,41
49.95412,50.152035,48,98,41
50.15412,50.352036,60,101,41
50.35412,50.552036,59,104,41
50.55412,50.752037,48,106,41
50.75412,50.952038,58,109,41
50.95412,51.152035,57,109,41
51.15412,51.302036,53,110,41
51.35412,51.752037,55,110,41
51.75412,52.352036,57,110,41
52.35412,52.952038,55,110,41
52.95412,53.552036,53,110,41
53.55412,54.152035,55,110,41
54.15412,54.752037,57,110,41
54.75412,55.352036,55,87,41
55.35412,55.502037,53,59,41
55.55412,55.702038,55,50,41
55.75412,55.902035,53,50,41
55.95412,56.102036,57,50,41
56.15412,56.302036,53,50,41
56.35412,56.502037,58,50,41
57.15412,57.302036,58,50,41
57.35412,57.502037,58,50,41
57.55412,57.702038,65,50,41
57.75412,57.902035,65,50,41
57.95412,58.102036,67,50,41
58.15412,58.302036,66,50,41
58.35412,58.502037,67,50,41
58.55412,58.702038,69,50,41
58.75412,58.902035,62,50,41
58.95412,59.102036,64,50,41
59.15412,59.302036,60,50,41
59.35412,59.552036,62,50,41
59.55412,59.702038,55,50,41
59.75412,59.902035,60,50,41
59.95412,60.152035,60,50,41
60.75412,60.902035,57,50,41
60.95412,61.102036,60,50,41
61.15412,61.352036,58,50,41
61.95412,62.102036,58,50,41
62.15412,62.302036,58,50,41
62.35412,62.552036,57,50,41
63.15412,63.302036,60,50,41
63.35412,63.502037,58,50,41
63.55412,63.702038,58,50,41
63.75412,63.902035,57,50,41
63.95412,64.102036,55,50,41
64.15412,64.352036,53,50,41
64.35412,64.50204,55,50,41
64.55412,64.702034,52,50,41
64.75412,64.90204,53,50,41
64.95412,65.102036,64,50,41
65.15412,65.30204,65,50,41
65.35412,65.55204,62,55,41
65.55412,65.702034,50,60,41
65.75412,65.90204,52,66,41
65.95412,66.15204,52,72,41
66.15412,66.30204,53,77,41
66.35412,66.50204,57,83,41
66.55412,66.75204,58,89,41
66.75412,66.90204,57,95,41
66.95412,67.102036,55,100,41
67.15412,67.352036,55,100,41
67.35412,67.50204,53,97,41
67.55412,67.702034,52,93,41
67.75412,67.90204,57,89,41
67.95412,68.102036,58,85,41
68.15412,68.30204,60,81,41
68.35412,68.55204,55,77,41
68.55412,68.702034,53,73,41
68.75412,68.90204,52,70,41
68.95412,69.10714,57,70,41
69.16102,69.31403,58,70,41
69.36791,69.52093,60,70,41
69.57481,69.78686,55,60,41
69.78909,69.94757,53,60,41
70.00338,70.16186,52,60,41
70.21767,70.38201,57,60,41
70.43989,70.60424,58,60,41
70.66211,70.82646,60,60,41
70.88433,71.11269,55,50,41
71.1151,71.285774,53,50,41
71.34586,71.51654,52,50,41
71.57664,71.77455,53,110,41
72.176636,72.324554,53,110,41
72.37663,72.474556,53,70,41
72.47664,72.574554,52,70,41
72.57664,72.67455,53,70,41
72.676636,72.77455,55,70,41
72.776634,72.92455,57,70,41
72.97664,73.12455,58,70,41
73.176636,73.324554,60,70,41
73.37663,73.52455,62,70,41
73.57664,73.724556,64,70,41
73.776634,73.92455,65,70,41
73.97664,74.12455,67,70,41
74.176636,74.324554,69,70,41
74.37663,74.52455,70,70,41
74.57664,74.724556,72,70,41
74.776634,74.92455,69,70,41
74.97664,75.12455,69,70,41
75.176636,75.324554,69,70,41
75.37663,75.52455,69,70,41
75.57664,75.724556,69,70,41
75.776634,75.92455,67,70,41
75.97664,76.12455,67,70,41
76.176636,76.324554,67,70,41
76.37663,76.52455,67,70,41
76.57664,76.724556,67,70,41
76.776634,76.92455,67,70,41
76.97664,77.12455,72,110,41
77.176636,77.324554,72,70,41
77.37663,77.52455,72,70,41
77.57664,77.724556,72,70,41
77.776634,77.92455,72,70,41
77.97664,78.12455,72,70,41
78.176636,78.324554,72,70,41
78.37663,78.52455,72,70,41
78.57664,78.724556,72,70,41
78.776634,78.92455,72,70,41
78.97664,79.12455,72,70,41
79.176636,79.324554,72,70,41
79.37663,79.52455,72,70,41
79.57664,79.724556,72,70,41
79.776634,79.92455,72,70,41
79.97664,80.12455,72,70,41
80.176636,80.324554,72,70,41
80.37663,80.52455,72,70,41
80.57664,80.724556,72,70,41
80.776634,80.92455,72,70,41
80.97664,81.12455,72,70,41
81.176636,81.324554,72,70,41
81.37663,81.52455,72,70,41
81.57664,81.724556,72,70,41
81.776634,81.92455,72,70,41
81.97664,82.074554,50,70,41
82.07664,82.17455,48,70,41
82.176636,82.27455,50,70,41
82.276634,82.37455,52,70,41
82.37663,82.574554,55,70,41
83.176636,83.27455,53,70,41
83.276634,83.37455,52,70,41
83.37663,83.474556,53,70,41
83.47664,83.574554,55,70,41
83.57664,83.77455,57,70,41
84.37663,84.474556,57,70,41
84.47664,84.574554,55,70,41
84.57664,84.67455,57,70,41
84.676636,84.77455,58,70,41
84.776634,84.974556,60,70,41
85.38353,85.58827,65,70,41
85.797325,85.95034,72,70,41
86.00422,86.415855,72,70,41
86.418015,86.57103,71,70,41
86.62491,86.77792,69,70,41
86.8318,86.9331,69,76,41
86.93525,87.036545,68,79,41
87.0387,87.13999,69,82,41
87.14215,87.24344,71,85,41
87.2456,87.39861,72,88,41
87.86629,88.07834,65,70,41
88.29485,88.45334,65,70,41
88.50914,88.93548,72,70,41
88.937706,89.09619,71,70,41
89.15199,89.3719,72,70,41
89.596436,89.816345,72,70,41
89.81866,90.277794,71,70,41
90.2802,90.50856,69,70,41
90.51096,90.66945,67,110,41
90.72525,90.87317,67,70,41
90.72525,90.87317,71,70,41
90.925255,91.073166,67,70,41
90.925255,91.073166,71,70,41
91.12525,91.27317,67,70,41
91.12525,91.27317,71,70,41
91.32525,91.47317,67,70,41
91.32525,91.47317,71,70,41
91.52525,91.67317,67,70,41
91.52525,91.67317,71,70,41
91.72525,91.87317,67,70,41
91.72525,91.87317,71,70,41
91.925255,92.073166,67,70,41
91.925255,92.073166,71,70,41
92.12525,92.27317,67,70,41
92.12525,92.27317,71,70,41
92.32525,92.47317,66,70,41
92.32525,92.47317,69,70,41
92.52525,92.67317,66,70,41
92.52525,92.67317,69,70,41
92.72525,92.87317,66,70,41
92.72525,92.87317,69,70,41
92.925255,93.073166,66,70,41
92.925255,93.073166,69,70,41
93.12525,93.27317,66,70,41
93.12525,93.27317,69,70,41
93.32525,93.47317,66,70,41
93.32525,93.47317,69,70,41
93.52525,93.67317,66,70,41
93.52525,93.67317,69,70,41
93.72525,93.87317,66,70,41
93.72525,93.87317,69,70,41
93.925255,94.073166,66,70,41
93.925255,94.073166,69,70,41
94.12525,94.27317,66,70,41
94.12525,94.27317,69,70,41
94.32525,94.47317,66,70,41
94.32525,94.47317,69,70,41
94.52525,94.67317,66,70,41
94.52525,94.67317,69,70,41
94.72525,94.87317,66,70,41
94.72525,94.87317,69,70,41
94.925255,95.073166,66,70,41
94.925255,95.073166,69,70,41
95.12525,95.27317,66,70,41
95.12525,95.27317,69,70,41
95.32525,95.47317,67,100,41
95.32525,95.47317,71,100,41
95.52525,95.67317,67,70,41
95.52525,95.67317,71,70,41
95.72525,95.87317,67,70,41
95.72525,95.87317,71,70,41
95.925255,96.073166,67,70,41
95.925255,96.073166,71,70,41
96.12525,96.27317,67,70,41
96.12525,96.27317,71,70,41
96.32525,96.47317,67,70,41
96.32525,96.47317,71,70,41
96.52525,96.67317,67,70,41
96.52525,96.67317,71,70,41
96.72525,96.87317,67,70,41
96.72525,96.87317,71,70,41
96.925255,97.073166,67,70,41
96.925255,97.073166,71,70,41
97.12525,97.27317,67,70,41
97.12525,97.27317,71,70,41
97.32525,97.47317,67,70,41
97.32525,97.47317,71,70,41
97.52525,97.67317,67,70,41
97.52525,97.67317,71,70,41
97.72525,97.87317,67,70,41
97.72525,97.87317,71,70,41
97.925255,98.073166,67,70,41
97.925255,98.073166,71,70,41
98.12525,98.27317,67,70,41
98.12525,98.27317,71,70,41
98.32525,98.47317,67,70,41
98.32525,98.47317,71,70,41
98.52525,98.67317,67,70,41
98.52525,98.67317,71,70,41
98.72525,98.87317,67,70,41
98.72525,98.87317,71,70,41
98.925255,99.073166,68,70,41
98.925255,99.073166,71,70,41
99.12525,99.27317,68,70,41
99.12525,99.27317,71,70,41
99.32525,99.47317,68,69,41
99.32525,99.47317,71,69,41
99.52525,99.67317,68,67,41
99.52525,99.67317,71,67,41
99.72525,99.87317,68,66,41
99.72525,99.87317,71,66,41
99.925255,100.073166,68,64,41
99.925255,100.073166,71,64,41
100.12525,100.27317,72,63,41
100.12525,100.27317,69,63,41
100.32525,100.47317,72,61,41
100.32525,100.47317,69,61,41
100.52525,100.67317,72,59,41
100.52525,100.67317,69,59,41
100.72525,100.87317,72,58,41
100.72525,100.87317,69,58,41
100.925255,101.073166,69,56,41
101.12525,101.27317,66,55,41
101.32525,101.47317,71,50,41
101.32525,101.47317,68,50,41
101.52525,101.67317,71,50,41
101.52525,101.67317,68,50,41
101.72525,101.87317,71,50,41
101.72525,101.87317,68,50,41
101.925255,102.073166,68,50,41
101.925255,102.073166,71,50,41
102.12525,102.27317,68,50,41
102.12525,102.27317,71,50,41
102.32525,102.47317,68,50,41
102.32525,102.47317,71,50,41
102.52525,102.67317,68,50,41
102.52525,102.67317,71,50,41
102.72525,102.87317,68,50,41
102.72525,102.87317,71,50,41
102.925255,103.073166,68,50,41
102.925255,103.073166,71,50,41
103.12525,103.27317,68,50,41
103.12525,103.27317,71,50,41
103.32525,103.47317,68,50,41
103.32525,103.47317,71,50,41
103.52525,103.67317,68,50,41
103.52525,103.67317,71,50,41
103.72525,103.87317,71,50,41
103.72525,103.87317,68,50,41
103.925255,104.02317,56,55,41
104.02525,104.12317,54,57,41
104.12525,104.22317,56,60,41
104.22525,104.323166,57,62,41
104.32525,104.47317,59,65,41
104.52525,104.62317,61,70,41
104.62525,104.72317,59,72,41
104.72525,104.823166,61,75,41
104.82525,104.92317,62,77,41
104.925255,105.07827,64,80,41
105.13215,105.233444,68,85,41
105.235596,105.33689,66,88,41
105.33904,105.44034,68,90,41
105.44249,105.543785,69,93,41
105.54594,105.70442,71,95,41
105.76022,105.86902,69,100,41
105.87134,105.98013,68,103,41
105.982445,106.09543,69,105,41
106.09783,106.210815,71,108,41
106.21322,106.3717,64,110,41
106.21322,106.3717,69,110,41
106.4275,106.57542,69,70,41
106.4275,106.57542,73,70,41
106.6275,106.77542,69,70,41
106.6275,106.77542,73,70,41
106.8275,106.97542,69,70,41
106.8275,106.97542,73,70,41
107.027504,107.175415,69,70,41
107.027504,107.175415,73,70,41
107.2275,107.37542,69,70,41
107.2275,107.37542,73,70,41
107.4275,107.57542,69,70,41
107.4275,107.57542,73,70,41
107.6275,107.77542,69,70,41
107.6275,107.77542,73,70,41
107.8275,107.97542,69,70,41
107.8275,107.97542,73,70,41
108.027504,108.175415,68,70,41
108.027504,108.175415,71,70,41
108.2275,108.37542,68,70,41
108.2275,108.37542,71,70,41
108.4275,108.57542,68,70,41
108.4275,108.57542,71,70,41
108.6275,108.77542,68,70,41
108.6275,108.77542,71,70,41
108.8275,108.97542,68,70,41
108.8275,108.97542,71,70,41
109.027504,109.175415,68,70,41
109.027504,109.175415,71,70,41
109.2275,109.37542,68,70,41
109.2275,109.37542,71,70,41
109.4275,109.57542,68,70,41
109.4275,109.57542,71,70,41
109.6275,109.77542,68,70,41
109.6275,109.77542,71,70,41
109.8275,109.97542,71,70,41
109.8275,109.97542,68,70,41
110.027504,110.12542,68,70,41
110.1275,110.22542,66,70,41
110.2275,110.32542,68,70,41
110.3275,110.425415,69,70,41
110.4275,110.57542,71,70,41
110.6275,110.72542,68,70,41
110.7275,110.82542,66,70,41
110.8275,110.925415,68,70,41
110.9275,111.02542,69,70,41
111.027504,111.175415,69,100,41
111.8275,111.925415,50,70,41
111.9275,112.02542,49,70,41
112.027504,112.12542,50,70,41
112.1275,112.22542,52,70,41
112.2275,112.37542,54,70,41
112.4275,112.52542,56,70,41
112.527504,112.62542,54,70,41
112.6275,112.72542,56,70,41
112.7275,112.82542,57,70,41
112.8275,112.97542,56,70,41
112.8275,112.97542,59,70,41
113.027504,113.175415,57,70,41
113.2275,113.37542,59,70,41
113.4275,113.57542,68,70,41
113.6275,113.77542,73,70,41
113.8275,113.97542,71,70,41
114.027504,114.175415,66,70,41
114.2275,114.37542,68,70,41
114.4275,114.57542,69,70,41
114.6275,114.77542,68,70,41
114.6275,114.77542,71,70,41
114.8275,114.97542,68,70,41
114.8275,114.97542,71,70,41
115.027504,115.175415,68,70,41
115.027504,115.175415,71,70,41
115.2275,115.37542,68,70,41
115.2275,115.37542,71,70,41
115.4275,115.57542,68,70,41
115.4275,115.57542,71,70,41
115.6275,115.77542,68,70,41
115.6275,115.77542,71,70,41
115.8275,115.97542,71,70,41
115.8275,115.97542,68,70,41
116.027504,116.175415,76,73,41
116.027504,116.175415,68,73,41
116.2275,116.37542,76,77,41
116.2275,116.37542,68,77,41
116.4275,116.57542,68,80,41
116.4275,116.57542,76,80,41
116.6275,116.72542,56,84,41
116.7275,116.82542,54,86,41
116.8275,116.925415,56,87,41
116.9275,117.02542,57,89,41
117.027504,117.18052,59,91,41
117.2344,117.33569,62,94,41
117.337845,117.43914,64,96,41
117.44129,117.54259,62,98,41
117.54474,117.646034,61,100,41
117.648186,117.80667,59,102,41
117.86247,117.967384,54,105,41
117.96962,118.074524,52,107,41
118.07676,118.18167,54,109,41
118.1839,118.28881,56,110,41
118.291046,118.449524,57,110,41
118.505325,118.60325,54,110,41
118.60533,118.70325,52,110,41
118.70533,118.803246,54,110,41
118.80533,118.903244,56,110,41
118.90533,119.053246,57,110,41
119.10533,119.20325,54,110,41
119.20533,119.303246,52,110,41
119.30533,119.403244,54,110,41
119.40533,119.50324,56,110,41
119.505325,119.653244,57,110,41
119.70533,119.803246,54,110,41
119.80533,119.903244,52,110,41
119.90533,120.00324,54,110,41
120.005325,120.10325,56,110,41
120.10533,120.25324,57,110,41
120.30533,120.403244,54,110,41
120.40533,120.50324,52,110,41
120.505325,120.60325,54,110,41
120.60533,120.70325,56,110,41
120.70533,120.85325,57,110,41
120.90533,121.00324,54,110,41
121.005325,121.10325,52,110,41
121.10533,121.20325,54,110,41
121.20533,121.303246,56,110,41
121.30533,121.45325,57,110,41
121.505325,121.60325,54,110,41
121.60533,121.70325,52,110,41
121.70533,121.803246,54,110,41
121.80533,121.903244,56,110,41
121.90533,122.053246,57,110,41
122.10533,122.20325,54,110,41
122.20533,122.303246,52,110,41
122.30533,122.403244,54,110,41
122.40533,122.50324,56,110,41
122.505325,122.653244,57,110,41
122.70533,122.803246,54,110,41
122.80533,122.903244,52,110,41
122.90533,123.00324,54,110,41
123.005325,123.10325,56,110,41
123.10533,123.25324,57,110,41
123.30533,123.403244,54,110,41
123.40533,123.50324,52,110,41
123.505325,123.60325,54,110,41
123.60533,123.70325,56,110,41
123.70533,123.85325,57,110,41
123.90533,124.00324,54,110,41
124.005325,124.10325,52,110,41
124.10533,124.20325,54,110,41
124.20533,124.303246,56,110,41
124.30533,124.45325,57,110,41
124.505325,124.60325,54,110,41
124.60533,124.70325,52,110,41
124.70533,124.803246,54,110,41
124.80533,124.903244,56,110,41
124.90533,125.053246,57,110,41
125.10533,125.20325,54,110,41
125.20533,125.303246,52,110,41
125.30533,125.403244,54,110,41
125.40533,125.50324,56,110,41
125.505325,125.653244,57,110,41
125.70533,125.803246,54,110,41
125.80533,125.903244,52,110,41
125.90533,126.00324,54,110,41
126.005325,126.10325,56,110,41
126.10533,126.25324,57,110,41
126.30533,126.403244,54,110,41
126.40533,126.50324,52,110,41
126.505325,126.60325,54,110,41
126.60533,126.70325,56,110,41
126.70533,126.85325,57,110,41
126.90533,127.00324,54,110,41
127.005325,127.10325,52,110,41
127.10533,127.20325,54,110,41
127.20533,127.303246,56,110,41
127.30533,127.45325,57,110,41
127.505325,127.60325,54,110,41
127.60533,127.70325,52,110,41
127.70533,127.803246,54,110,41
127.80533,127.903244,56,110,41
127.90533,128.05325,57,110,41
128.10533,128.20325,54,110,41
128.20532,128.30325,52,110,41
128.30533,128.40324,54,110,41
128.40533,128.50325,56,110,41
128.50533,128.65324,57,110,41
128.70532,128.80325,54,110,41
128.80533,128.90324,52,110,41
128.90533,129.00325,54,110,41
129.00533,129.10324,56,110,41
129.10533,129.25325,57,110,41
129.30533,129.40324,54,110,41
129.40533,129.50325,52,110,41
129.50533,129.60324,54,110,41
129.60533,129.70325,56,110,41
129.70532,129.85324,57,110,41
129.90533,130.00325,54,110,41
130.00533,130.10324,52,110,41
130.10533,130.20325,54,110,41
130.20532,130.30325,56,110,41
130.30533,130.45325,57,110,41
130.50533,130.60324,54,110,41
130.60533,130.70325,52,110,41
130.70532,130.80325,54,110,41
130.80533,130.90324,56,110,41
130.90533,131.05325,57,110,41
131.10533,131.20325,54,110,41
131.20532,131.30325,52,110,41
131.30533,131.40324,54,110,41
131.40533,131.50325,56,110,41
131.50533,131.65324,57,110,41
131.70532,131.80325,54,110,41
131.80533,131.90324,52,110,41
131.90533,132.00325,54,110,41
132.00533,132.10324,56,110,41
132.10533,132.25325,57,110,41
132.30533,132.40324,54,110,41
132.40533,132.50325,52,110,41
132.50533,132.60324,54,110,41
132.60533,132.70325,56,110,41
132.70532,132.85324,57,110,41
132.90533,133.00325,54,110,41
133.00533,133.10324,52,110,41
133.10533,133.20325,54,110,41
133.20532,133.30325,56,110,41
133.30533,133.45325,57,110,41
133.50533,133.60324,54,110,41
133.60533,133.70325,52,110,41
133.70532,133.80325,54,110,41
133.80533,133.90324,56,110,41
133.90533,134.05325,57,110,41
134.10533,134.20325,54,110,41
134.20532,134.30325,52,110,41
134.30533,134.40324,54,110,41
134.40533,134.50325,56,110,41
134.50533,134.65324,57,110,41
134.70532,134.80325,54,110,41
134.80533,134.90324,52,110,41
134.90533,135.00325,54,110,41
135.00533,135.10324,56,110,41
135.10533,135.25325,57,110,41
135.30533,135.40324,54,110,41
135.40533,135.50325,52,110,41
135.50533,135.60324,54,110,41
135.60533,135.70325,56,110,41
135.70532,135.85324,57,110,41
135.90533,136.00325,54,110,41
136.00533,136.10324,52,110,41
136.10533,136.20325,54,110,41
136.20532,136.30325,56,110,41
136.30533,136.45325,57,110,41
136.50533,136.60324,54,110,41
136.60533,136.70325,52,110,41
136.70532,136.80325,54,110,41
136.80533,136.90324,56,110,41
136.90533,137.05325,57,110,41
137.10533,137.20325,54,110,41
137.20532,137.30325,52,110,41
137.30533,137.40324,54,110,41
137.40533,137.50325,56,110,41
137.50533,137.65324,57,110,41
137.70532,137.80325,54,107,41
137.80533,137.90324,52,105,41
137.90533,138.00325,54,104,41
138.00533,138.10324,56,102,41
138.10533,138.25325,57,100,41
138.30533,138.40324,54,97,41
138.40533,138.50325,52,95,41
138.50533,138.60324,54,93,41
138.60533,138.70325,56,91,41
138.70532,138.85324,57,90,41
138.90533,139.00325,54,86,41
139.00533,139.10324,52,84,41
139.10533,139.20325,54,83,41
139.20532,139.30325,56,81,41
139.30533,139.45525,57,79,41
139.50803,139.60727,54,76,41
139.60938,139.70862,52,74,41
139.71074,139.80997,54,72,41
139.81209,139.91132,56,71,41
139.91344,140.06335,57,70,41
140.11613,140.21538,54,70,41
140.21748,140.31673,52,70,41
140.31883,140.41808,54,70,41
140.4202,140.51942,56,70,41
140.52155,140.67146,57,70,41
140.72424,140.82349,54,70,41
140.82559,140.92484,52,70,41
140.92694,141.02618,54,70,41
141.02829,141.12753,56,70,41
141.12965,141.27956,57,60,41
141.33235,141.4316,54,60,41
141.4337,141.53294,52,60,41
141.53505,141.6343,54,60,41
141.6364,141.73564,56,60,41
141.73775,141.89076,57,60,41
141.94466,142.04594,54,60,41
142.0481,142.14938,52,60,41
142.15155,142.25284,54,60,41
142.25499,142.3563,56,60,41
142.35844,142.51146,57,60,41
142.56534,142.66663,54,60,41
142.66878,142.77008,52,60,41
142.77223,142.87352,54,60,41
142.87569,142.97697,56,60,41
142.97913,143.1343,57,60,41
143.18892,143.29163,54,60,41
143.29381,143.39653,52,60,41
143.39871,143.50142,54,60,41
143.5036,143.60631,56,60,41
143.6085,143.76366,57,60,41
143.81828,143.921,54,60,41
143.92319,144.0259,52,60,41
144.02808,144.13078,54,60,41
144.13298,144.23569,56,60,41
144.23787,144.39635,57,50,41
144.45215,144.55707,54,50,41
144.5593,144.6642,52,50,41
144.66644,144.77135,54,50,41
144.77357,144.8785,56,50,41
144.88072,145.0392,57,50,41
145.09502,145.19992,54,50,41
145.20215,145.30707,52,50,41
145.3093,145.4142,54,50,41
145.41644,145.52135,56,50,41
145.52357,145.68207,57,50,41
145.73787,145.84277,54,50,41
145.845,145.94992,52,50,41
145.95215,146.05705,54,50,41
146.0593,146.1642,56,50,41
146.16643,146.32721,57,50,41
146.38382,146.49025,54,40,41
146.49252,146.59895,52,40,41
146.60121,146.70764,54,40,41
146.70992,146.81635,56,40,41
146.8186,146.98296,57,40,41
147.04083,147.14963,54,40,41
147.15195,147.26074,52,40,41
147.26305,147.37184,54,40,41
147.37416,147.48296,55,40,41
147.48528,147.65594,57,40,41
147.71605,147.82903,54,40,41
147.83142,147.94441,52,40,41
147.94681,148.0598,53,40,41
148.0622,148.17517,55,40,41
148.17758,148.34825,57,40,41
148.40836,148.52133,53,40,41
148.52373,148.63672,52,40,41
148.63911,148.7521,53,40,41
148.7545,149.06781,55,40,41
149.06989,149.6678,57,40,41
149.66989,150.2678,55,41,41
150.26988,150.8678,53,43,41
150.86989,151.4678,55,44,41
151.4699,152.07463,55,46,41
152.07678,152.70262,67,47,41
152.70486,153.35333,55,49,41
153.35565,153.79778,55,50,41
153.8001,154.39801,53,70,41
154.4001,154.99802,52,70,41
155.00009,155.598,53,70,41
155.6001,156.19801,52,70,41
156.20009,156.79802,53,70,41
156.8001,157.39801,52,70,41
157.4001,157.54802,53,70,41
157.6001,157.74802,53,70,41
157.8001,157.94801,52,70,41
158.00009,158.14801,53,70,41
158.20009,158.348,69,50,41
158.4001,158.54802,76,50,41
158.6001,158.74802,69,50,41
158.8001,158.94801,53,50,41
159.00009,159.39801,65,50,41
159.4001,159.598,64,50,41
159.6001,159.79802,70,50,41
159.8001,159.99802,69,50,41
160.00009,160.19801,57,50,41
160.20009,160.39801,69,50,41
160.4001,160.598,62,50,41
160.6001,160.79802,70,50,41
160.8001,160.99802,64,50,41
161.00009,161.19801,69,50,41
161.20009,161.39801,60,50,41
161.4001,161.79802,65,50,41
161.8001,161.99802,52,50,41
162.00009,162.19801,64,50,41
162.20009,162.41216,57,50,41
162.41438,162.62643,69,50,41
162.62866,162.84071,60,50,41
162.84296,163.05501,53,50,41
163.05724,163.48357,51,90,41
163.70009,164.12643,51,100,41
164.12866,164.555,51,94,41
164.55724,164.7856,51,88,41
165.01877,165.4779,51,82,41
165.4803,165.93944,51,76,41
165.94185,166.17021,51,70,41
166.40338,166.86252,51,70,41
167.09569,167.55482,51,70,41
167.788,168.24713,52,70,41
168.4803,168.93944,52,70,41
168.94185,169.1539,53,70,41
169.15613,169.36818,48,71,41
169.3704,169.58246,57,73,41
169.5847,169.78261,59,75,41
169.7847,169.98262,48,77,41
169.9847,170.18262,60,79,41
170.1847,170.38261,62,81,41
170.3847,170.58261,48,83,41
170.5847,170.78261,60,84,41
170.7847,170.98262,59,86,41
170.9847,171.18262,48,88,41
171.1847,171.38261,58,90,41
171.1847,171.38261,49,90,41
171.3847,171.58261,48,92,41
171.3847,171.58261,57,92,41
171.5847,171.78261,48,94,41
171.7847,171.98262,57,96,41
171.9847,172.18262,59,97,41
172.1847,172.38261,48,99,41
172.3847,172.58261,60,101,41
172.5847,172.78261,59,103,41
172.7847,172.98262,48,105,41
172.9847,173.18262,58,107,41
173.1847,173.38261,57,109,41
173.3847,173.53261,53,110,41
173.5847,173.98262,55,110,41
173.9847,174.58261,57,110,41
174.5847,175.18262,55,110,41
175.1847,175.78261,53,110,41
175.7847,176.38261,55,110,41
176.3847,176.98262,57,110,41
176.9847,177.58261,55,87,41
177.5847,177.73262,53,59,41
177.7847,177.93262,55,50,41
177.9847,178.13261,53,50,41
178.1847,178.33261,57,50,41
178.3847,178.53261,53,50,41
178.5847,178.73262,58,50,41
179.3847,179.53261,58,50,41
179.5847,179.73262,58,50,41
179.7847,179.93262,65,50,41
179.9847,180.13261,65,50,41
180.1847,180.33261,67,50,41
180.3847,180.53261,66,50,41
180.5847,180.73262,67,50,41
180.7847,180.93262,69,50,41
180.9847,181.13261,62,50,41
181.1847,181.33261,64,50,41
181.3847,181.53261,60,50,41
181.5847,181.78261,62,50,41
181.7847,181.93262,55,50,41
181.9847,182.13261,60,50,41
182.1847,182.38261,60,50,41
182.9847,183.13261,57,50,41
183.1847,183.33261,60,50,41
183.3847,183.58261,58,50,41
184.1847,184.33261,58,50,41
184.3847,184.53261,58,50,41
184.5847,184.78261,57,50,41
185.3847,185.53261,60,50,41
185.5847,185.73262,58,50,41
185.7847,185.93262,58,50,41
185.9847,186.13261,57,50,41
186.1847,186.33261,55,50,41
186.3847,186.58261,53,50,41
186.5847,186.73262,55,50,41
186.7847,186.93262,52,50,41
186.9847,187.13261,53,50,41
187.1847,187.33261,64,50,41
187.3847,187.53261,65,50,41
187.5847,187.78261,62,55,41
187.7847,187.93262,50,60,41
187.9847,188.13261,52,66,41
188.1847,188.38261,52,72,41
188.3847,188.53261,53,77,41
188.5847,188.73262,57,83,41
188.7847,188.98262,58,89,41
188.9847,189.13261,57,95,41
189.1847,189.33261,55,100,41
189.3847,189.58261,55,100,41
189.5847,189.73262,53,97,41
189.7847,189.93262,52,93,41
189.9847,190.13261,57,89,41
190.1847,190.33261,58,85,41
190.3847,190.53261,60,81,41
190.5847,190.7853,55,77,41
190.7874,190.93732,53,73,41
190.9901,191.14001,52,70,41
191.19281,191.34271,57,70,41
191.39551,191.54543,58,70,41
191.5982,191.74812,60,70,41
191.8009,192.00565,55,60,41
192.00781,192.16083,53,60,41
192.2147,192.36772,52,60,41
192.4216,192.57675,57,60,41
192.6314,192.78654,58,60,41
192.84117,192.99634,60,60,41
193.05096,193.26302,55,50,41
193.26526,193.42374,53,50,41
193.47954,193.63802,52,50,41
193.69382,193.90587,53,110,41
193.90811,194.33444,51,90,41
194.55096,194.9773,51,100,41
194.97954,195.40587,51,94,41
195.4081,195.63647,51,88,41
195.86964,196.32878,51,82,41
196.33118,196.79031,51,76,41
196.79271,197.02109,51,70,41
197.25426,197.7134,51,70,41
197.94656,198.4057,51,70,41
198.63887,199.098,52,70,41
199.33118,199.79031,52,50,41
199.79271,200.00476,53,55,41
200.007,200.21906,48,57,41
200.22128,200.43333,57,60,41
200.43556,200.63348,59,63,41
200.63557,200.83348,48,65,41
200.83557,201.03348,60,68,41
201.03557,201.23349,62,71,41
201.23557,201.43349,48,74,41
201.43556,201.63348,60,76,41
201.63557,201.83348,59,79,41
201.83557,202.03348,48,82,41
202.03557,202.23349,58,85,41
202.03557,202.23349,49,85,41
202.23557,202.43349,48,87,41
202.23557,202.43349,57,87,41
202.43556,202.63348,48,90,41
202.63557,202.83348,57,93,41
202.83557,203.03348,59,95,41
203.03557,203.23349,48,98,41
203.23557,203.43349,60,101,41
203.43556,203.63348,59,104,41
203.63557,203.83348,48,106,41
203.83557,204.03348,58,109,41
204.03557,204.23349,57,109,41
204.23557,204.38348,53,110,41
204.43556,204.83348,55,110,41
204.83557,205.43349,57,110,41
205.43556,206.03348,55,110,41
206.03557,206.63348,53,110,41
206.63557,207.23349,55,110,41
207.23557,207.83348,57,110,41
207.83557,208.43349,55,87,41
208.43556,208.58348,53,59,41
208.63557,208.78348,55,50,41
208.83557,208.98349,53,50,41
209.03557,209.18349,57,50,41
209.23557,209.38348,53,50,41
209.43556,209.58348,58,50,41
210.23557,210.38348,58,50,41
210.43556,210.58348,58,50,41
210.63557,210.78348,65,50,41
210.83557,210.98349,65,50,41
211.03557,211.18349,67,50,41
211.23557,211.38348,66,50,41
211.43556,211.58348,67,50,41
211.63557,211.78348,69,50,41
211.83557,211.98349,62,50,41
212.03557,212.18349,64,50,41
212.23557,212.38348,60,50,41
212.43556,212.63348,62,50,41
212.63557,212.78348,55,50,41
212.83557,212.98349,60,50,41
213.03557,213.23349,60,50,41
213.83557,213.98349,57,50,41
214.03557,214.18349,60,50,41
214.23557,214.43349,58,50,41
215.03557,215.18349,58,50,41
215.23557,215.38348,58,50,41
215.43556,215.63348,57,50,41
216.23557,216.38348,60,50,41
216.43556,216.58348,58,50,41
216.63557,216.78348,58,50,41
216.83557,216.98349,57,50,41
217.03557,217.18349,55,50,41
217.23557,217.43349,53,50,41
217.43556,217.58348,55,50,41
217.63557,217.78348,52,50,41
217.83557,217.98349,53,50,41
218.03557,218.18349,64,50,41
218.23557,218.38348,65,50,41
218.43556,218.63348,62,55,41
218.63557,218.78348,50,60,41
218.83557,218.98349,52,66,41
219.03557,219.23349,52,72,41
219.23557,219.38348,53,77,41
219.43556,219.58348,57,83,41
219.63557,219.83348,58,89,41
219.83557,219.98349,57,95,41
220.03557,220.18349,55,100,41
220.23557,220.43349,55,100,41
220.43556,220.58348,53,97,41
220.63557,220.78348,52,93,41
220.83557,220.98349,57,89,41
221.03557,221.18349,58,85,41
221.23557,221.38548,60,81,41
221.43826,221.63885,55,77,41
221.64098,221.7909,53,73,41
221.84367,221.99359,52,70,41
222.04637,222.19629,57,70,41
222.24908,222.39899,58,70,41
222.45178,222.6048,60,70,41
222.65868,222.86342,55,60,41
222.86557,223.01859,53,60,41
223.07246,223.22548,52,60,41
223.27936,223.43239,57,60,41
223.48627,223.63928,58,60,41
223.69316,223.84831,60,60,41
223.90294,224.115,55,50,41
224.11723,224.27571,53,50,41
224.33151,224.48999,52,50,41
224.5458,224.75786,53,70,41
224.76009,225.18642,48,100,41
224.76009,225.18642,60,100,41
225.40294,225.82928,48,90,41
225.40294,225.82928,60,90,41
225.83151,226.27364,48,80,41
225.83151,226.27364,60,80,41
226.27596,226.50432,48,70,41
226.27596,226.50432,60,70,41
226.74672,227.22423,69,70,41
227.22673,227.72412,69,60,41
227.72673,228.0236,69,50,41
228.40172,229.14781,69,50,41
229.15172,229.52281,65,120,41
229.15172,229.52281,69,120,41
0.0,0.09791667,53,1,42
0.6,0.74791664,41,70,42
1.0,1.1479167,45,70,42
1.2,1.3479167,46,70,42
1.6,1.7479167,48,70,42
1.8,1.9479166,50,70,42
2.2,2.3479166,48,70,42
2.4,2.5479167,46,70,42
2.8,2.9479167,43,70,42
3.0,3.1479166,41,70,42
3.4,3.5479167,45,70,42
3.6,3.7479167,46,70,42
4.0,4.147917,48,70,42
4.2,4.3584814,50,70,42
4.414285,4.572767,38,70,42
4.62857,4.7870517,36,70,42
4.842855,5.0013366,41,70,42
5.05714,5.2156215,62,50,42
5.271425,5.429907,60,50,42
5.48571,5.6336265,65,50,42
5.88571,6.0336266,57,50,42
6.08571,6.233627,58,50,42
6.48571,6.6336265,60,50,42
6.68571,6.8336267,62,50,42
7.08571,7.233627,60,50,42
7.28571,7.4336267,58,50,42
7.68571,7.8336267,55,50,42
7.88571,8.033627,53,50,42
8.28571,8.433627,57,50,42
8.48571,8.633627,58,50,42
8.88571,9.033627,60,50,42
9.08571,9.244191,62,50,42
9.299995,9.458477,50,50,42
9.51428,9.672762,48,50,42
9.728565,9.887047,53,50,42
9.94285,10.369188,39,90,42
10.585705,11.012043,39,100,42
11.014275,11.473409,39,94,42
11.475813,11.704178,39,88,42
11.937351,12.396485,39,82,42
12.398889,12.858023,39,76,42
12.860427,13.088792,39,70,42
13.321965,13.781099,39,70,42
14.014272,14.473406,39,70,42
14.706579,15.165713,40,70,42
15.398886,16.25834,36,70,42
16.260424,16.858341,36,73,42
16.860424,17.458342,36,79,42
17.460424,18.05834,36,84,42
18.060425,18.65834,36,90,42
18.660423,19.25834,36,96,42
19.260424,19.858341,36,101,42
19.860424,20.25834,36,107,42
20.260424,20.40834,41,110,42
20.460424,20.858341,43,110,42
20.860424,21.458342,45,110,42
21.460424,22.05834,43,110,42
22.060425,22.65834,41,110,42
22.660423,23.25834,43,110,42
23.260424,23.858341,45,110,42
23.860424,24.458342,43,87,42
24.460424,24.608341,41,59,42
24.660423,24.80834,43,50,42
24.860424,25.00834,41,50,42
25.660423,25.80834,41,50,42
25.860424,26.00834,43,50,42
26.060425,26.208342,41,50,42
26.860424,27.00834,41,50,42
27.060425,27.208342,39,50,42
27.260424,27.40834,38,50,42
27.460424,27.608341,40,50,42
27.660423,27.80834,42,50,42
27.860424,28.00834,43,50,42
28.060425,28.208342,43,50,42
28.260424,28.40834,45,50,42
28.460424,28.608341,46,50,42
28.660423,28.80834,46,50,42
28.860424,29.00834,48,50,42
29.060425,29.25834,41,50,42
29.860424,30.00834,60,50,42
30.060425,30.208342,63,50,42
30.260424,30.458342,62,50,42
31.060425,31.208342,64,50,42
31.260424,31.40834,65,50,42
31.460424,31.65834,60,50,42
32.260426,32.40834,63,50,42
32.460423,32.60834,62,50,42
32.660423,32.808342,62,50,42
32.860424,33.00834,60,50,42
33.060425,33.20834,58,50,42
33.260426,33.45834,57,50,42
33.460423,33.60834,58,50,42
33.660423,33.808342,55,50,42
33.860424,34.00834,57,50,42
34.060425,34.20834,55,50,42
34.260426,34.40834,57,50,42
34.460423,34.65834,58,55,42
34.660423,34.808342,46,60,42
34.860424,35.00834,48,66,42
35.060425,35.20834,48,72,42
35.260426,35.40834,36,77,42
35.460423,35.60834,36,83,42
35.660423,35.808342,36,89,42
35.860424,36.00834,36,95,42
36.060425,36.20834,36,100,42
36.260426,36.45834,36,100,42
36.460423,36.60834,38,97,42
36.660423,36.808342,40,93,42
36.860424,37.00834,41,89,42
37.060425,37.20834,43,85,42
37.260426,37.40834,45,81,42
37.460423,37.65834,36,77,42
37.660423,37.808342,38,73,42
37.860424,38.00834,40,70,42
38.060425,38.20834,41,70,42
38.260426,38.40834,43,70,42
38.460423,38.60834,45,70,42
38.660423,38.85834,36,60,42
38.860424,39.00834,38,60,42
39.060425,39.20834,40,60,42
39.260426,39.41344,41,60,42
39.46732,39.62034,43,60,42
39.674217,39.827232,45,60,42
39.88111,40.093166,36,50,42
40.095398,40.25388,38,50,42
40.30968,40.474033,40,50,42
40.531902,40.751812,41,50,42
40.754128,41.21326,39,90,42
41.446434,41.905567,39,100,42
41.90797,42.367104,39,94,42
42.36951,42.597874,39,88,42
42.831047,43.29018,39,82,42
43.292583,43.75172,39,76,42
43.754124,43.982487,39,70,42
44.21566,44.674797,39,70,42
44.907967,45.367104,39,70,42
45.600273,46.05941,40,70,42
46.292583,47.152035,36,50,42
47.15412,47.752037,36,60,42
47.75412,48.352036,36,68,42
48.35412,48.952038,36,76,42
48.95412,49.552036,36,85,42
49.55412,50.152035,36,93,42
50.15412,50.752037,36,101,42
50.75412,51.152035,36,109,42
51.15412,51.302036,41,110,42
51.35412,51.752037,43,110,42
51.75412,52.352036,45,110,42
52.35412,52.952038,43,110,42
52.95412,53.552036,41,110,42
53.55412,54.152035,43,110,42
54.15412,54.752037,45,110,42
54.75412,55.352036,43,87,42
55.35412,55.502037,41,59,42
55.55412,55.702038,43,50,42
55.75412,55.902035,41,50,42
56.55412,56.702038,41,50,42
56.75412,56.902035,43,50,42
56.95412,57.102036,41,50,42
57.75412,57.902035,41,50,42
57.95412,58.102036,39,50,42
58.15412,58.302036,38,50,42
58.35412,58.502037,40,50,42
58.55412,58.702038,42,50,42
58.75412,58.902035,43,50,42
58.95412,59.102036,43,50,42
59.15412,59.302036,45,50,42
59.35412,59.502037,46,50,42
59.55412,59.702038,46,50,42
59.75412,59.902035,48,50,42
59.95412,60.152035,41,50,42
60.75412,60.902035,60,50,42
60.95412,61.102036,63,50,42
61.15412,61.352036,62,50,42
61.95412,62.102036,64,50,42
62.15412,62.302036,65,50,42
62.35412,62.552036,60,50,42
63.15412,63.302036,63,50,42
63.35412,63.502037,62,50,42
63.55412,63.702038,62,50,42
63.75412,63.902035,60,50,42
63.95412,64.102036,58,50,42
64.15412,64.352036,57,50,42
64.35412,64.50204,58,50,42
64.55412,64.702034,55,50,42
64.75412,64.90204,57,50,42
64.95412,65.102036,55,50,42
65.15412,65.30204,57,50,42
65.35412,65.55204,58,55,42
65.55412,65.702034,46,60,42
65.75412,65.90204,48,66,42
65.95412,66.102036,48,72,42
66.15412,66.30204,36,77,42
66.35412,66.50204,36,83,42
66.55412,66.702034,36,89,42
66.75412,66.90204,36,95,42
66.95412,67.102036,36,100,42
67.15412,67.352036,36,100,42
67.35412,67.50204,38,97,42
67.55412,67.702034,40,93,42
67.75412,67.90204,41,89,42
67.95412,68.102036,43,85,42
68.15412,68.30204,45,81,42
68.35412,68.55204,36,77,42
68.55412,68.702034,38,73,42
68.75412,68.90204,40,70,42
68.95412,69.10714,41,70,42
69.16102,69.31403,43,70,42
69.36791,69.52093,45,70,42
69.57481,69.78686,36,60,42
69.78909,69.94757,38,60,42
70.00338,70.16186,40,60,42
70.21767,70.38201,41,60,42
70.43989,70.60424,43,60,42
70.66211,70.82646,45,60,42
70.88433,71.11269,36,50,42
71.1151,71.285774,38,50,42
71.34586,71.51654,40,50,42
71.57664,71.77455,41,110,42
72.176636,72.324554,41,110,42
72.37663,72.474556,41,70,42
72.47664,72.574554,40,70,42
72.57664,72.67455,41,70,42
72.676636,72.77455,43,70,42
72.776634,72.92455,45,70,42
72.97664,73.12455,46,70,42
73.176636,73.324554,48,70,42
73.37663,73.52455,50,70,42
73.57664,73.724556,52,70,42
73.776634,73.92455,53,70,42
73.97664,74.12455,55,70,42
74.176636,74.324554,57,70,42
74.37663,74.52455,58,70,42
74.57664,74.724556,60,70,42
74.776634,74.92455,60,70,42
74.97664,75.12455,60,70,42
75.176636,75.324554,60,70,42
75.37663,75.52455,60,70,42
75.57664,75.724556,60,70,42
75.776634,75.92455,60,70,42
75.97664,76.12455,60,70,42
76.176636,76.324554,60,70,42
76.37663,76.52455,60,70,42
76.57664,76.724556,60,70,42
76.776634,76.92455,60,70,42
76.97664,77.12455,53,110,42
77.176636,77.324554,60,70,42
77.37663,77.52455,60,70,42
77.57664,77.724556,60,70,42
77.776634,77.92455,60,70,42
77.97664,78.12455,60,70,42
78.176636,78.324554,60,70,42
78.37663,78.52455,60,70,42
78.57664,78.724556,60,70,42
78.776634,78.92455,60,70,42
78.97664,79.12455,60,70,42
79.176636,79.324554,60,70,42
79.37663,79.52455,60,70,42
79.57664,79.724556,60,70,42
79.776634,79.92455,60,70,42
79.97664,80.12455,60,70,42
80.176636,80.324554,60,70,42
80.37663,80.52455,60,70,42
80.57664,80.724556,60,70,42
80.776634,80.92455,60,70,42
80.97664,81.12455,60,70,42
81.176636,81.324554,60,70,42
81.37663,81.52455,60,70,42
81.57664,81.724556,60,70,42
81.776634,81.92455,60,70,42
81.97664,82.074554,38,70,42
82.07664,82.17455,36,70,42
82.176636,82.27455,38,70,42
82.276634,82.37455,40,70,42
82.37663,82.574554,43,70,42
83.176636,83.27455,41,70,42
83.276634,83.37455,40,70,42
83.37663,83.474556,41,70,42
83.47664,83.574554,43,70,42
83.57664,83.77455,45,70,42
84.37663,84.474556,45,70,42
84.47664,84.574554,43,70,42
84.57664,84.67455,45,70,42
84.676636,84.77455,46,70,42
84.776634,84.974556,48,70,42
85.38353,85.58827,62,70,42
85.797325,85.95034,62,70,42
86.00422,86.62275,64,70,42
86.62491,87.86413,41,110,42
87.86629,88.07834,38,101,42
88.29485,88.45334,62,70,42
88.50914,89.149765,64,70,42
89.15199,89.3719,60,70,42
89.596436,89.816345,60,70,42
89.81866,90.50856,62,70,42
90.51096,90.66945,55,110,42
90.72525,90.87317,62,70,42
90.925255,91.073166,62,70,42
91.12525,91.27317,62,70,42
91.32525,91.47317,62,70,42
91.52525,91.67317,62,70,42
91.72525,91.87317,62,70,42
91.925255,92.073166,62,70,42
92.12525,92.27317,62,70,42
92.32525,92.47317,62,70,42
92.52525,92.67317,62,70,42
92.72525,92.87317,62,70,42
92.925255,93.073166,62,70,42
93.12525,93.27317,62,70,42
93.32525,93.47317,62,70,42
93.52525,93.67317,62,70,42
93.72525,93.87317,62,70,42
93.925255,94.073166,62,70,42
94.12525,94.27317,62,70,42
94.32525,94.47317,62,70,42
94.52525,94.67317,62,70,42
94.72525,94.87317,62,70,42
94.925255,95.073166,62,70,42
95.12525,95.27317,62,70,42
95.32525,95.47317,55,100,42
95.52525,95.67317,62,70,42
95.72525,95.87317,62,70,42
95.925255,96.073166,62,70,42
96.12525,96.27317,62,70,42
96.32525,96.47317,62,70,42
96.52525,96.67317,62,70,42
96.72525,96.87317,62,70,42
96.925255,97.073166,62,70,42
97.12525,97.27317,62,70,42
97.32525,97.47317,67,70,42
97.52525,97.67317,67,70,42
97.72525,97.87317,67,70,42
97.925255,98.073166,67,70,42
98.12525,98.27317,67,70,42
98.32525,98.47317,65,70,42
98.52525,98.67317,65,70,42
98.72525,98.87317,65,70,42
98.925255,99.073166,64,70,42
99.12525,99.27317,64,70,42
99.32525,99.47317,64,69,42
99.52525,99.67317,64,67,42
99.72525,99.87317,64,66,42
99.925255,100.073166,64,64,42
100.12525,100.27317,64,63,42
100.32525,100.47317,64,61,42
100.52525,100.67317,64,59,42
100.72525,100.87317,64,58,42
100.925255,101.073166,64,56,42
101.12525,101.27317,64,55,42
101.32525,101.47317,64,50,42
101.52525,101.67317,64,50,42
101.72525,101.87317,64,50,42
101.925255,102.073166,64,50,42
102.12525,102.27317,64,50,42
102.32525,102.47317,64,50,42
102.52525,102.67317,64,50,42
102.72525,102.87317,64,50,42
102.925255,103.073166,64,50,42
103.12525,103.27317,64,50,42
103.32525,103.47317,64,50,42
103.52525,103.67317,64,50,42
103.72525,103.87317,64,50,42
103.925255,104.02317,52,55,42
104.02525,104.12317,51,57,42
104.12525,104.22317,52,60,42
104.22525,104.323166,54,62,42
104.32525,104.47317,56,65,42
105.13215,105.285164,64,85,42
105.33904,105.49206,64,90,42
105.54594,105.70442,64,95,42
105.76022,105.924576,64,100,42
105.982445,106.15312,64,105,42
106.21322,106.3717,57,110,42
106.4275,106.57542,64,70,42
106.6275,106.77542,64,70,42
106.8275,106.97542,64,70,42
107.027504,107.175415,64,70,42
107.2275,107.37542,64,70,42
107.4275,107.57542,64,70,42
107.6275,107.77542,64,70,42
107.8275,107.97542,64,70,42
108.027504,108.175415,64,70,42
108.2275,108.37542,64,70,42
108.4275,108.57542,64,70,42
108.6275,108.77542,64,70,42
108.8275,108.97542,64,70,42
109.027504,109.175415,64,70,42
109.2275,109.37542,64,70,42
109.4275,109.57542,64,70,42
109.6275,109.77542,64,70,42
109.8275,109.97542,64,70,42
110.027504,110.175415,64,70,42
110.2275,110.37542,64,70,42
110.4275,110.57542,64,70,42
110.6275,110.77542,64,70,42
110.8275,110.97542,64,70,42
111.027504,111.175415,57,100,42
111.2275,111.32542,45,70,42
111.3275,111.425415,44,70,42
111.4275,111.52542,45,70,42
111.527504,111.62542,47,70,42
111.6275,111.77542,49,70,42
112.8275,112.97542,64,70,42
113.027504,113.175415,64,70,42
113.2275,113.37542,64,70,42
113.4275,113.57542,64,70,42
113.6275,113.77542,64,70,42
113.8275,113.97542,64,70,42
114.027504,114.175415,64,70,42
114.2275,114.37542,64,70,42
114.4275,114.57542,64,70,42
114.6275,114.77542,64,70,42
114.8275,114.97542,64,70,42
115.027504,115.175415,64,70,42
115.2275,115.37542,64,70,42
115.4275,115.57542,64,70,42
115.6275,115.77542,64,70,42
115.8275,115.97542,64,70,42
116.027504,116.12542,44,73,42
116.1275,116.22542,42,75,42
116.2275,116.32542,44,77,42
116.3275,116.425415,45,78,42
116.4275,116.57542,47,80,42
116.6275,116.77542,64,84,42
116.8275,116.97542,64,87,42
117.027504,117.18052,64,91,42
117.2344,117.38741,64,94,42
117.44129,117.59431,64,98,42
117.648186,117.80667,64,102,42
117.86247,117.967384,42,105,42
117.96962,118.074524,40,107,42
118.07676,118.18167,42,109,42
118.1839,118.28881,44,110,42
118.291046,118.449524,45,110,42
118.505325,118.60325,42,110,42
118.60533,118.70325,40,110,42
118.70533,118.803246,42,110,42
118.80533,118.903244,44,110,42
118.90533,119.053246,45,110,42
119.10533,119.20325,42,110,42
119.20533,119.303246,40,110,42
119.30533,119.403244,42,110,42
119.40533,119.50324,44,110,42
119.505325,119.653244,45,110,42
119.70533,119.803246,42,110,42
119.80533,119.903244,40,110,42
119.90533,120.00324,42,110,42
120.005325,120.10325,44,110,42
120.10533,120.25324,45,110,42
120.30533,120.403244,42,110,42
120.40533,120.50324,40,110,42
120.505325,120.60325,42,110,42
120.60533,120.70325,44,110,42
120.70533,120.85325,45,110,42
120.90533,121.00324,42,110,42
121.005325,121.10325,40,110,42
121.10533,121.20325,42,110,42
121.20533,121.303246,44,110,42
121.30533,121.45325,45,110,42
121.505325,121.60325,42,110,42
121.60533,121.70325,40,110,42
121.70533,121.803246,42,110,42
121.80533,121.903244,44,110,42
121.90533,122.053246,45,110,42
122.10533,122.20325,42,110,42
122.20533,122.303246,40,110,42
122.30533,122.403244,42,110,42
122.40533,122.50324,44,110,42
122.505325,122.653244,45,110,42
122.70533,122.803246,42,110,42
122.80533,122.903244,40,110,42
122.90533,123.00324,42,110,42
123.005325,123.10325,44,110,42
123.10533,123.25324,45,110,42
123.30533,123.403244,42,110,42
123.40533,123.50324,40,110,42
123.505325,123.60325,42,110,42
123.60533,123.70325,44,110,42
123.70533,123.85325,45,110,42
123.90533,124.00324,42,110,42
124.005325,124.10325,40,110,42
124.10533,124.20325,42,110,42
124.20533,124.303246,44,110,42
124.30533,124.45325,45,110,42
124.505325,124.60325,42,110,42
124.60533,124.70325,40,110,42
124.70533,124.803246,42,110,42
124.80533,124.903244,44,110,42
124.90533,125.053246,45,110,42
125.10533,125.20325,42,110,42
125.20533,125.303246,40,110,42
125.30533,125.403244,42,110,42
125.40533,125.50324,44,110,42
125.505325,125.653244,45,110,42
125.70533,125.803246,42,110,42
125.80533,125.903244,40,110,42
125.90533,126.00324,42,110,42
126.005325,126.10325,44,110,42
126.10533,126.25324,45,110,42
126.30533,126.403244,42,110,42
126.40533,126.50324,40,110,42
126.505325,126.60325,42,110,42
126.60533,126.70325,44,110,42
126.70533,126.85325,45,110,42
126.90533,127.00324,42,110,42
127.005325,127.10325,40,110,42
127.10533,127.20325,42,110,42
127.20533,127.303246,44,110,42
127.30533,127.45325,45,110,42
127.505325,127.60325,42,110,42
127.60533,127.70325,40,110,42
127.70533,127.803246,42,110,42
127.80533,127.903244,44,110,42
127.90533,128.05325,45,110,42
128.10533,128.20325,42,110,42
128.20532,128.30325,40,110,42
128.30533,128.40324,42,110,42
128.40533,128.50325,44,110,42
128.50533,128.65324,45,110,42
128.70532,128.80325,42,110,42
128.80533,128.90324,40,110,42
128.90533,129.00325,42,110,42
129.00533,129.10324,44,110,42
129.10533,129.25325,45,110,42
129.30533,129.40324,42,110,42
129.40533,129.50325,40,110,42
129.50533,129.60324,42,110,42
129.60533,129.70325,44,110,42
129.70532,129.85324,45,110,42
129.90533,130.00325,42,110,42
130.00533,130.10324,40,110,42
130.10533,130.20325,42,110,42
130.20532,130.30325,44,110,42
130.30533,130.45325,45,110,42
130.50533,130.60324,42,110,42
130.60533,130.70325,40,110,42
130.70532,130.80325,42,110,42
130.80533,130.90324,44,110,42
130.90533,131.05325,45,110,42
131.10533,131.20325,42,110,42
131.20532,131.30325,40,110,42
131.30533,131.40324,42,110,42
131.40533,131.50325,44,110,42
131.50533,131.65324,45,110,42
131.70532,131.80325,42,110,42
131.80533,131.90324,40,110,42
131.90533,132.00325,42,110,42
132.00533,132.10324,44,110,42
132.10533,132.25325,45,110,42
132.30533,132.40324,42,110,42
132.40533,132.50325,40,110,42
132.50533,132.60324,42,110,42
132.60533,132.70325,44,110,42
132.70532,132.85324,45,110,42
132.90533,133.00325,42,110,42
133.00533,133.10324,40,110,42
133.10533,133.20325,42,110,42
133.20532,133.30325,44,110,42
133.30533,133.45325,45,110,42
133.50533,133.60324,42,110,42
133.60533,133.70325,40,110,42
133.70532,133.80325,42,110,42
133.80533,133.90324,44,110,42
133.90533,134.05325,45,110,42
134.10533,134.20325,42,110,42
134.20532,134.30325,40,110,42
134.30533,134.40324,42,110,42
134.40533,134.50325,44,110,42
134.50533,134.65324,45,110,42
134.70532,134.80325,42,110,42
134.80533,134.90324,40,110,42
134.90533,135.00325,42,110,42
135.00533,135.10324,44,110,42
135.10533,135.25325,45,110,42
135.30533,135.40324,42,110,42
135.40533,135.50325,40,110,42
135.50533,135.60324,42,110,42
135.60533,135.70325,44,110,42
135.70532,135.85324,45,110,42
135.90533,136.00325,42,110,42
136.00533,136.10324,40,110,42
136.10533,136.20325,42,110,42
136.20532,136.30325,44,110,42
136.30533,136.45325,45,110,42
136.50533,136.60324,42,110,42
136.60533,136.70325,40,110,42
136.70532,136.80325,42,110,42
136.80533,136.90324,44,110,42
136.90533,137.05325,45,110,42
137.10533,137.20325,42,110,42
137.20532,137.30325,40,110,42
137.30533,137.40324,42,110,42
137.40533,137.50325,44,110,42
137.50533,137.65324,45,110,42
137.70532,137.80325,42,107,42
137.80533,137.90324,40,105,42
137.90533,138.00325,42,104,42
138.00533,138.10324,44,102,42
138.10533,138.25325,45,100,42
138.30533,138.40324,42,97,42
138.40533,138.50325,40,95,42
138.50533,138.60324,42,93,42
138.60533,138.70325,44,91,42
138.70532,138.85324,45,90,42
138.90533,139.00325,42,86,42
139.00533,139.10324,40,84,42
139.10533,139.20325,42,83,42
139.20532,139.30325,44,81,42
139.30533,139.45525,45,79,42
139.50803,139.60727,42,76,42
139.60938,139.70862,40,74,42
139.71074,139.80997,42,72,42
139.81209,139.91132,44,71,42
139.91344,140.06335,45,70,42
140.11613,140.21538,42,70,42
140.21748,140.31673,40,70,42
140.31883,140.41808,42,70,42
140.4202,140.51942,44,70,42
140.52155,140.67146,45,70,42
140.72424,140.82349,42,70,42
140.82559,140.92484,40,70,42
140.92694,141.02618,42,70,42
141.02829,141.12753,44,70,42
141.12965,141.27956,45,60,42
141.33235,141.4316,42,60,42
141.4337,141.53294,40,60,42
141.53505,141.6343,42,60,42
141.6364,141.73564,44,60,42
141.73775,141.89076,45,60,42
141.94466,142.04594,42,60,42
142.0481,142.14938,40,60,42
142.15155,142.25284,42,60,42
142.25499,142.3563,44,60,42
142.35844,142.51146,45,60,42
142.56534,142.66663,42,60,42
142.66878,142.77008,40,60,42
142.77223,142.87352,42,60,42
142.87569,142.97697,44,60,42
142.97913,143.1343,45,60,42
143.18892,143.29163,42,60,42
143.29381,143.39653,40,60,42
143.39871,143.50142,42,60,42
143.5036,143.60631,44,60,42
143.6085,143.76366,45,60,42
143.81828,143.921,42,60,42
143.92319,144.0259,40,60,42
144.02808,144.13078,42,60,42
144.13298,144.23569,44,60,42
144.23787,144.39635,45,50,42
144.45215,144.55707,42,50,42
144.5593,144.6642,40,50,42
144.66644,144.77135,42,50,42
144.77357,144.8785,44,50,42
144.88072,145.0392,45,50,42
145.09502,145.19992,42,50,42
145.20215,145.30707,40,50,42
145.3093,145.4142,42,50,42
145.41644,145.52135,44,50,42
145.52357,145.68207,45,50,42
145.73787,145.84277,42,50,42
145.845,145.94992,40,50,42
145.95215,146.05705,42,50,42
146.0593,146.1642,44,50,42
146.16643,146.32721,45,50,42
146.38382,146.49025,42,40,42
146.49252,146.59895,40,40,42
146.60121,146.70764,42,40,42
146.70992,146.81635,44,40,42
146.8186,146.98296,45,40,42
147.04083,147.14963,42,40,42
147.15195,147.26074,40,40,42
147.26305,147.37184,42,40,42
147.37416,147.48296,43,40,42
147.48528,147.65594,45,40,42
147.71605,147.82903,42,40,42
147.83142,147.94441,40,40,42
147.94681,148.0598,41,40,42
148.0622,148.17517,43,40,42
148.17758,148.34825,45,40,42
148.40836,148.52133,41,40,42
148.52373,148.63672,40,40,42
148.63911,148.7521,41,40,42
148.7545,149.06781,43,40,42
149.06989,149.6678,45,40,42
149.66989,150.2678,43,41,42
150.26988,150.8678,41,43,42
150.86989,151.4678,43,44,42
151.4699,152.07463,55,46,42
152.07678,152.70262,67,47,42
152.70486,153.35333,55,49,42
153.35565,153.79778,43,50,42
153.8001,153.94801,41,70,42
154.20009,154.348,45,70,42
154.4001,154.54802,46,70,42
154.8001,154.94801,48,70,42
155.00009,155.14801,50,70,42
155.4001,155.54802,48,70,42
155.6001,155.74802,46,70,42
156.00009,156.14801,43,70,42
156.20009,156.348,41,70,42
156.6001,156.74802,45,70,42
156.8001,156.94801,46,70,42
157.20009,157.348,48,70,42
157.4001,157.54802,50,70,42
157.6001,157.74802,38,70,42
157.8001,157.94801,36,70,42
158.00009,158.14801,41,70,42
158.20009,158.348,62,50,42
158.4001,158.54802,60,50,42
158.6001,158.74802,65,50,42
159.00009,159.14801,57,50,42
159.20009,159.348,58,50,42
159.6001,159.74802,60,50,42
159.8001,159.94801,62,50,42
160.20009,160.348,60,50,42
160.4001,160.54802,58,50,42
160.8001,160.94801,55,50,42
161.00009,161.14801,53,50,42
161.4001,161.54802,57,50,42
161.6001,161.74802,58,50,42
162.00009,162.14801,60,50,42
162.20009,162.35858,62,50,42
162.41438,162.57286,50,50,42
162.62866,162.78716,48,50,42
162.84296,163.00143,53,50,42
163.05724,163.48357,39,90,42
163.70009,164.12643,39,100,42
164.12866,164.555,39,94,42
164.55724,164.7856,39,88,42
165.01877,165.4779,39,82,42
165.4803,165.93944,39,76,42
165.94185,166.17021,39,70,42
166.40338,166.86252,39,70,42
167.09569,167.55482,39,70,42
167.788,168.24713,40,70,42
168.4803,169.36818,36,70,42
169.3704,169.98262,36,73,42
169.9847,170.58261,36,79,42
170.5847,171.18262,36,84,42
171.1847,171.78261,36,90,42
171.7847,172.38261,36,96,42
172.3847,172.98262,36,101,42
172.9847,173.38261,36,107,42
173.3847,173.53261,41,110,42
173.5847,173.98262,43,110,42
173.9847,174.58261,45,110,42
174.5847,175.18262,43,110,42
175.1847,175.78261,41,110,42
175.7847,176.38261,43,110,42
176.3847,176.98262,45,110,42
176.9847,177.58261,43,87,42
177.5847,177.73262,41,59,42
177.7847,177.93262,43,50,42
177.9847,178.13261,41,50,42
178.7847,178.93262,41,50,42
178.9847,179.13261,43,50,42
179.1847,179.33261,41,50,42
179.9847,180.13261,41,50,42
180.1847,180.33261,39,50,42
180.3847,180.53261,38,50,42
180.5847,180.73262,40,50,42
180.7847,180.93262,42,50,42
180.9847,181.13261,43,50,42
181.1847,181.33261,43,50,42
181.3847,181.53261,45,50,42
181.5847,181.73262,46,50,42
181.7847,181.93262,46,50,42
181.9847,182.13261,48,50,42
182.1847,182.38261,41,50,42
182.9847,183.13261,60,50,42
183.1847,183.33261,63,50,42
183.3847,183.58261,62,50,42
184.1847,184.33261,64,50,42
184.3847,184.53261,65,50,42
184.5847,184.78261,60,50,42
185.3847,185.53261,63,50,42
185.5847,185.73262,62,50,42
185.7847,185.93262,62,50,42
185.9847,186.13261,60,50,42
186.1847,186.33261,58,50,42
186.3847,186.58261,57,50,42
186.5847,186.73262,58,50,42
186.7847,186.93262,55,50,42
186.9847,187.13261,57,50,42
187.1847,187.33261,55,50,42
187.3847,187.53261,57,50,42
187.5847,187.78261,58,55,42
187.7847,187.93262,46,60,42
187.9847,188.13261,48,66,42
188.1847,188.33261,48,72,42
188.3847,188.53261,36,77,42
188.5847,188.73262,36,83,42
188.7847,188.93262,36,89,42
188.9847,189.13261,36,95,42
189.1847,189.33261,36,100,42
189.3847,189.58261,36,100,42
189.5847,189.73262,38,97,42
189.7847,189.93262,40,93,42
189.9847,190.13261,41,89,42
190.1847,190.33261,43,85,42
190.3847,190.53261,45,81,42
190.5847,190.7853,36,77,42
190.7874,190.93732,38,73,42
190.9901,191.14001,40,70,42
191.19281,191.34271,41,70,42
191.39551,191.54543,43,70,42
191.5982,191.74812,45,70,42
191.8009,192.00565,36,60,42
192.00781,192.16083,38,60,42
192.2147,192.36772,40,60,42
192.4216,192.57675,41,60,42
192.6314,192.78654,43,60,42
192.84117,192.99634,45,60,42
193.05096,193.26302,36,50,42
193.26526,193.42374,38,50,42
193.47954,193.63802,40,50,42
193.69382,193.90587,41,110,42
193.90811,194.33444,39,90,42
194.55096,194.9773,39,100,42
194.97954,195.40587,39,94,42
195.4081,195.63647,39,88,42
195.86964,196.32878,39,82,42
196.33118,196.79031,39,76,42
196.79271,197.02109,39,70,42
197.25426,197.7134,39,70,42
197.94656,198.4057,39,70,42
198.63887,199.098,40,70,42
199.33118,200.21906,36,50,42
200.22128,200.83348,36,60,42
200.83557,201.43349,36,68,42
201.43556,202.03348,36,76,42
202.03557,202.63348,36,85,42
202.63557,203.23349,36,93,42
203.23557,203.83348,36,101,42
203.83557,204.23349,36,109,42
204.23557,204.38348,41,110,42
204.43556,204.83348,43,110,42
204.83557,205.43349,45,110,42
205.43556,206.03348,43,110,42
206.03557,206.63348,41,110,42
206.63557,207.23349,43,110,42
207.23557,207.83348,45,110,42
207.83557,208.43349,43,87,42
208.43556,208.58348,41,59,42
208.63557,208.78348,43,50,42
208.83557,208.98349,41,50,42
209.63557,209.78348,41,50,42
209.83557,209.98349,43,50,42
210.03557,210.18349,41,50,42
210.83557,210.98349,41,50,42
211.03557,211.18349,39,50,42
211.23557,211.38348,38,50,42
211.43556,211.58348,40,50,42
211.63557,211.78348,42,50,42
211.83557,211.98349,43,50,42
212.03557,212.18349,43,50,42
212.23557,212.38348,45,50,42
212.43556,212.58348,46,50,42
212.63557,212.78348,46,50,42
212.83557,212.98349,48,50,42
213.03557,213.23349,41,50,42
213.83557,213.98349,60,50,42
214.03557,214.18349,63,50,42
214.23557,214.43349,62,50,42
215.03557,215.18349,64,50,42
215.23557,215.38348,65,50,42
215.43556,215.63348,60,50,42
216.23557,216.38348,63,50,42
216.43556,216.58348,62,50,42
216.63557,216.78348,62,50,42
216.83557,216.98349,60,50,42
217.03557,217.18349,58,50,42
217.23557,217.43349,57,50,42
217.43556,217.58348,58,50,42
217.63557,217.78348,55,50,42
217.83557,217.98349,57,50,42
218.03557,218.18349,55,50,42
218.23557,218.38348,57,50,42
218.43556,218.63348,58,55,42
218.63557,218.78348,46,60,42
218.83557,218.98349,48,66,42
219.03557,219.18349,48,72,42
219.23557,219.38348,36,77,42
219.43556,219.58348,36,83,42
219.63557,219.78348,36,89,42
219.83557,219.98349,36,95,42
220.03557,220.18349,36,100,42
220.23557,220.43349,36,100,42
220.43556,220.58348,38,97,42
220.63557,220.78348,40,93,42
220.83557,220.98349,41,89,42
221.03557,221.18349,43,85,42
221.23557,221.38548,45,81,42
221.43826,221.63885,36,77,42
221.64098,221.7909,38,73,42
221.84367,221.99359,40,70,42
222.04637,222.19629,41,70,42
222.24908,222.39899,43,70,42
222.45178,222.6048,45,70,42
222.65868,222.86342,36,60,42
222.86557,223.01859,38,60,42
223.07246,223.22548,40,60,42
223.27936,223.43239,41,60,42
223.48627,223.63928,43,60,42
223.69316,223.84831,45,60,42
223.90294,224.115,36,50,42
224.11723,224.27571,38,50,42
224.33151,224.48999,40,50,42
224.5458,224.75786,41,70,42
224.76009,225.18642,41,100,42
224.76009,225.18642,45,100,42
225.40294,225.82928,41,90,42
225.40294,225.82928,45,90,42
225.83151,226.27364,41,80,42
225.83151,226.27364,45,80,42
226.27596,226.50432,41,70,42
226.27596,226.50432,45,70,42
226.74672,227.22423,65,70,42
227.22673,227.72412,65,60,42
227.72673,228.0236,65,50,42
228.40172,229.14781,65,50,42
229.15172,229.52281,65,120,42
0.0,0.09791667,53,1,42
16.060425,16.65834,48,71,42
16.660423,17.25834,48,77,42
17.260424,17.858341,48,83,42
18.460424,19.05834,48,94,42
19.060425,19.65834,48,99,42
19.460424,19.858341,56,103,42
19.660423,20.25834,48,105,42
20.260424,20.858341,48,110,42
46.95412,47.552036,48,57,42
47.55412,48.152035,48,65,42
48.15412,48.752037,48,74,42
49.35412,49.952038,48,90,42
49.95412,50.552036,48,98,42
50.35412,50.752037,56,104,42
50.55412,51.152035,48,106,42
51.15412,51.752037,48,110,42
169.15613,169.78261,48,71,42
169.7847,170.38261,48,77,42
170.3847,170.98262,48,83,42
171.5847,172.18262,48,94,42
172.1847,172.78261,48,99,42
172.5847,172.98262,56,103,42
172.7847,173.38261,48,105,42
173.3847,173.98262,48,110,42
200.007,200.63348,48,57,42
200.63557,201.23349,48,65,42
201.23557,201.83348,48,74,42
202.43556,203.03348,48,90,42
203.03557,203.63348,48,98,42
203.43556,203.83348,56,104,42
203.63557,204.23349,48,106,42
204.23557,204.83348,48,110,42
