start_time,end_time,note_value,velocity,instrument_program_number
0.1875,0.37109375,52,80,0
0.1875,0.37109375,48,80,0
0.375,0.55859375,52,80,0
0.375,0.55859375,48,80,0
0.5625,0.74609375,52,80,0
0.5625,0.74609375,48,80,0
0.75,0.93359375,52,80,0
0.75,0.93359375,48,80,0
0.9375,1.1210938,52,80,0
0.9375,1.1210938,48,80,0
1.125,1.3085938,52,80,0
1.125,1.3085938,48,80,0
1.3125,1.4960938,52,80,0
1.3125,1.4960938,48,80,0
1.5,1.6835938,52,80,0
1.5,1.6835938,48,80,0
1.6875,1.8710938,52,80,0
1.6875,1.8710938,48,80,0
1.875,2.0585938,52,80,0
1.875,2.0585938,48,80,0
2.0625,2.2460938,52,80,0
2.0625,2.2460938,48,80,0
2.25,2.4335938,52,80,0
2.25,2.4335938,48,80,0
2.4375,2.6210938,52,80,0
2.4375,2.6210938,48,80,0
2.625,2.8085938,54,80,0
2.625,2.8085938,50,80,0
2.8125,2.9960938,54,80,0
2.8125,2.9960938,50,80,0
3.0,3.5585938,55,80,0
3.0,3.5585938,50,80,0
3.5625,3.6523438,59,80,0
3.65625,3.7460938,57,80,0
3.75,3.9335938,55,80,0
4.5,4.5898438,85,80,0
4.59375,4.9648438,86,80,0
4.96875,5.0585938,84,80,0
5.0625,5.1523438,83,80,0
5.15625,5.2460938,81,80,0
5.25,5.6210938,79,80,0
6.0,6.1835938,50,80,0
6.0,6.1835938,46,80,0
6.1875,6.3710938,50,80,0
6.1875,6.3710938,46,80,0
6.375,6.5585938,50,80,0
6.375,6.5585938,46,80,0
6.5625,6.7460938,50,80,0
6.5625,6.7460938,46,80,0
6.75,6.9335938,50,80,0
6.75,6.9335938,46,80,0
6.9375,7.1210938,50,80,0
6.9375,7.1210938,46,80,0
7.125,7.3085938,50,80,0
7.125,7.3085938,46,80,0
7.3125,7.4960938,50,80,0
7.3125,7.4960938,46,80,0
7.5,7.6835938,50,80,0
7.5,7.6835938,46,80,0
7.6875,7.8710938,50,80,0
7.6875,7.8710938,46,80,0
7.875,8.058594,50,80,0
7.875,8.058594,46,80,0
8.0625,8.246094,50,80,0
8.0625,8.246094,46,80,0
8.25,8.433594,50,80,0
8.25,8.433594,46,80,0
8.4375,8.621094,50,80,0
8.4375,8.621094,46,80,0
8.625,8.808594,52,80,0
8.625,8.808594,48,80,0
8.8125,8.996094,52,80,0
8.8125,8.996094,48,80,0
9.0,9.558594,53,80,0
9.0,9.558594,48,80,0
9.5625,9.652344,57,80,0
9.65625,9.746094,55,80,0
9.75,9.933594,53,80,0
10.5,10.589844,83,80,0
10.59375,10.964844,84,80,0
10.96875,11.058594,82,80,0
11.0625,11.152344,80,80,0
11.15625,11.246094,79,80,0
11.25,11.621094,77,80,0
12.0,12.089844,88,80,0
12.09375,13.121094,89,80,0
13.125,13.214844,89,91,0
13.21875,13.308594,87,92,0
13.3125,13.402344,86,93,0
13.40625,13.496094,84,94,0
13.5,13.589844,83,95,0
13.59375,13.683594,84,96,0
13.6875,13.777344,86,97,0
13.78125,13.871094,87,98,0
13.875,13.964844,89,99,0
13.96875,14.058594,87,100,0
14.0625,14.152344,86,101,0
14.15625,14.246094,84,102,0
14.25,14.339844,83,103,0
14.34375,14.433594,84,104,0
14.4375,14.527344,86,105,0
14.53125,14.621094,87,106,0
14.625,14.714844,89,107,0
14.71875,14.808594,87,108,0
14.8125,14.902344,86,108,0
14.90625,14.996094,84,109,0
15.0,15.089844,83,110,0
15.09375,15.183594,84,110,0
15.1875,15.277344,86,110,0
15.28125,15.371094,87,110,0
15.375,15.464844,89,110,0
15.46875,15.558594,87,110,0
15.5625,15.652344,86,110,0
15.65625,15.746094,84,110,0
15.75,15.839844,83,110,0
15.84375,15.933594,80,110,0
15.9375,16.027344,79,110,0
16.03125,16.121094,77,110,0
16.125,16.214844,75,110,0
16.21875,16.308594,74,110,0
16.3125,16.402344,72,110,0
16.40625,16.496094,71,110,0
16.5,16.683594,72,100,0
16.875,17.058594,67,96,0
17.25,17.494791,63,91,0
17.75,17.994791,60,86,0
18.25,20.244791,55,81,0
20.25,20.414062,64,80,0
20.34375,20.511719,60,80,0
20.4375,20.597656,64,80,0
20.53125,20.695312,60,80,0
20.625,20.777344,64,80,0
20.71875,20.871094,60,80,0
20.8125,20.976562,64,80,0
20.90625,21.074219,60,80,0
21.0,21.175781,64,80,0
21.09375,21.253906,60,80,0
21.1875,21.355469,64,80,0
21.28125,21.441406,60,80,0
21.375,21.523438,64,80,0
21.46875,21.628906,60,80,0
21.5625,21.710938,64,80,0
21.65625,21.8125,60,80,0
21.75,21.902344,64,80,0
21.84375,22.019531,60,80,0
21.9375,22.097656,64,80,0
22.03125,22.191406,60,80,0
22.125,22.289062,64,80,0
22.21875,22.382812,60,80,0
22.3125,22.457031,64,80,0
22.40625,22.550781,60,80,0
22.5,22.664062,64,80,0
22.59375,22.75,60,80,0
22.6875,22.835938,64,80,0
22.78125,22.933594,60,80,0
22.875,23.03125,66,80,0
22.96875,23.121094,62,80,0
23.0625,23.226562,66,80,0
23.15625,23.246094,62,80,0
23.25,23.808594,67,80,0
23.8125,23.902344,71,80,0
23.90625,23.996094,69,80,0
24.0,24.183594,67,80,0
24.75,24.839844,85,80,0
24.84375,25.214844,86,80,0
25.21875,25.308594,84,80,0
25.3125,25.402344,83,80,0
25.40625,25.496094,81,80,0
25.5,25.871094,79,80,0
26.25,26.339844,65,80,0
26.34375,26.433594,62,80,0
26.4375,26.527344,65,80,0
26.53125,26.621094,62,80,0
26.625,26.714844,65,80,0
26.71875,26.808594,62,80,0
26.8125,26.902344,65,80,0
26.90625,26.996094,62,80,0
27.0,27.089844,65,80,0
27.09375,27.183594,62,80,0
27.1875,27.277344,65,80,0
27.28125,27.371094,62,80,0
27.375,27.464844,65,80,0
27.46875,27.558594,62,80,0
27.5625,27.652344,65,80,0
27.65625,27.746094,62,80,0
27.75,27.839844,65,80,0
27.84375,27.933594,62,80,0
27.9375,28.027344,65,80,0
28.03125,28.121094,62,80,0
28.125,28.214844,65,80,0
28.21875,28.308594,62,80,0
28.3125,28.402344,65,80,0
28.40625,28.496094,62,80,0
28.5,28.589844,65,80,0
28.59375,28.683594,62,80,0
28.6875,28.777344,65,80,0
28.78125,28.871094,62,80,0
28.875,28.964844,68,80,0
28.96875,29.058594,64,80,0
29.0625,29.152344,68,80,0
29.15625,29.246094,64,80,0
29.25,29.808594,69,80,0
29.8125,29.902344,72,80,0
29.90625,29.996094,71,80,0
30.0,30.183594,69,80,0
30.75,30.839844,87,80,0
30.84375,31.214844,88,80,0
31.21875,31.308594,86,84,0
31.3125,31.402344,84,85,0
31.40625,31.496094,83,86,0
31.5,31.871094,81,87,0
32.25,32.339844,87,95,0
32.34375,32.714844,88,96,0
32.71875,32.808594,86,100,0
32.8125,32.902344,84,101,0
32.90625,32.996094,83,102,0
33.0,33.371094,82,103,0
33.75,34.214844,83,80,0
34.21875,34.308594,81,80,0
34.3125,34.402344,79,80,0
34.40625,34.496094,78,80,0
34.5,34.589844,79,80,0
34.59375,34.683594,78,80,0
34.6875,34.777344,76,80,0
34.78125,34.871094,75,80,0
34.875,34.964844,76,80,0
34.96875,35.058594,79,80,0
35.0625,35.152344,78,80,0
35.15625,35.246094,76,80,0
35.25,35.339844,75,80,0
35.34375,35.433594,73,80,0
35.4375,35.527344,71,80,0
35.53125,35.621094,70,80,0
35.625,35.714844,71,80,0
35.71875,35.808594,73,80,0
35.8125,35.902344,74,80,0
35.90625,35.996094,75,80,0
36.0,36.089844,76,80,0
36.09375,36.183594,75,80,0
36.1875,36.277344,76,80,0
36.28125,36.371094,78,80,0
36.375,36.464844,79,80,0
36.46875,36.558594,80,80,0
36.5625,36.652344,81,80,0
36.65625,36.746094,82,80,0
36.75,36.839844,83,80,0
36.84375,36.933594,82,80,0
36.9375,37.027344,83,80,0
37.03125,37.121094,82,80,0
37.125,37.214844,83,80,0
37.21875,37.308594,81,80,0
37.3125,37.402344,79,80,0
37.40625,37.496094,78,80,0
37.5,37.589844,79,80,0
37.59375,37.683594,78,80,0
37.6875,37.777344,76,80,0
37.78125,37.871094,75,80,0
37.875,37.964844,76,80,0
37.96875,38.058594,79,80,0
38.0625,38.152344,78,80,0
38.15625,38.246094,76,80,0
38.25,38.339844,75,80,0
38.34375,38.433594,73,80,0
38.4375,38.527344,71,80,0
38.53125,38.621094,70,80,0
38.625,38.714844,71,80,0
38.71875,38.808594,73,80,0
38.8125,38.902344,74,80,0
38.90625,38.996094,75,80,0
39.0,39.089844,76,80,0
39.09375,39.183594,75,80,0
39.1875,39.277344,76,80,0
39.28125,39.371094,78,80,0
39.375,39.464844,79,80,0
39.46875,39.558594,80,80,0
39.5625,39.652344,81,80,0
39.65625,39.746094,82,80,0
39.75,39.839844,83,80,0
39.84375,39.933594,78,82,0
39.9375,40.027344,75,84,0
40.03125,40.121094,71,86,0
40.125,40.214844,70,88,0
40.21875,40.308594,71,90,0
40.3125,40.402344,76,92,0
40.40625,40.496094,79,94,0
40.5,40.589844,83,96,0
40.59375,40.683594,78,98,0
40.6875,40.777344,75,100,0
40.78125,40.871094,71,102,0
40.875,40.964844,70,104,0
40.96875,41.058594,71,106,0
41.0625,41.152344,76,108,0
41.15625,41.246094,79,110,0
41.25,41.339844,83,110,0
41.34375,41.433594,78,110,0
41.4375,41.527344,75,110,0
41.53125,41.621094,71,110,0
41.625,41.714844,83,110,0
41.71875,41.808594,79,110,0
41.8125,41.902344,76,110,0
41.90625,41.996094,71,110,0
42.0,42.089844,83,110,0
42.09375,42.183594,78,110,0
42.1875,42.277344,75,110,0
42.28125,42.371094,71,110,0
42.375,42.464844,83,110,0
42.46875,42.558594,79,110,0
42.5625,42.652344,76,110,0
42.65625,42.746094,71,110,0
42.75,42.839844,83,110,0
42.84375,42.933594,78,110,0
42.9375,43.027344,75,110,0
43.03125,43.121094,71,110,0
43.125,43.214844,78,110,0
43.21875,43.308594,75,110,0
43.3125,43.402344,71,110,0
43.40625,43.496094,66,110,0
43.5,43.589844,75,110,0
43.59375,43.683594,71,110,0
43.6875,43.777344,66,110,0
43.78125,43.871094,63,110,0
43.875,43.964844,71,110,0
43.96875,44.058594,66,110,0
44.0625,44.152344,63,110,0
44.15625,44.246094,59,110,0
44.25,44.339844,66,110,0
44.34375,44.433594,63,110,0
44.4375,44.527344,59,110,0
44.53125,44.621094,54,110,0
44.625,44.714844,63,110,0
44.71875,44.808594,59,110,0
44.8125,44.902344,54,110,0
44.90625,44.996094,51,110,0
45.0,45.089844,59,110,0
45.09375,45.183594,54,110,0
45.1875,45.277344,51,110,0
45.28125,45.371094,47,110,0
46.5,46.683594,71,103,0
46.6875,46.871094,59,101,0
46.875,47.058594,73,99,0
47.0625,47.246094,61,97,0
47.25,47.433594,75,95,0
47.4375,47.621094,63,93,0
48.0,48.183594,75,87,0
48.1875,48.371094,63,85,0
48.375,48.558594,76,83,0
48.5625,48.746094,64,81,0
48.75,48.95982,78,80,0
48.964287,49.174107,66,80,0
49.17857,49.388393,80,80,0
49.392857,49.602676,68,80,0
49.607143,49.816963,81,80,0
49.821426,50.03125,69,80,0
50.035713,50.245533,81,80,0
50.25,50.45982,71,80,0
50.464283,50.674107,81,80,0
50.67857,50.88839,73,80,0
50.892857,51.102676,81,80,0
51.10714,51.316963,75,80,0
51.321426,51.539017,81,80,0
51.543648,51.761242,76,80,0
51.76587,52.010662,81,80,0
52.01587,52.30962,78,80,0
52.31587,53.200127,80,80,0
52.31587,53.200127,76,80,0
52.31587,53.200127,71,80,0
53.204758,53.644573,78,80,0
53.204758,53.644573,75,80,0
53.204758,53.644573,69,80,0
53.6492,54.089016,76,80,0
53.6492,54.089016,73,80,0
53.6492,54.089016,68,80,0
54.093647,54.977905,75,80,0
54.093647,54.977905,72,80,0
54.093647,54.977905,66,80,0
54.982533,55.86679,73,80,0
54.982533,55.86679,64,80,0
55.87142,56.75568,75,80,0
55.87142,56.75568,71,80,0
55.87142,56.75568,69,80,0
56.76031,57.200123,76,99,0
56.76031,57.200123,71,99,0
57.204754,57.64457,78,109,0
57.204754,57.64457,76,109,0
57.204754,57.64457,73,109,0
57.649197,58.6042,80,110,0
57.649197,58.6042,76,110,0
57.649197,59.06593,71,110,0
58.6092,59.527466,78,91,0
58.6092,59.527466,75,91,0
59.070736,59.527466,69,81,0
59.532272,60.41653,68,80,0
59.532272,60.41653,64,80,0
59.532272,60.41653,59,80,0
60.42116,60.860977,66,80,0
60.42116,60.860977,63,80,0
60.42116,60.860977,57,80,0
60.865604,61.30542,64,80,0
60.865604,61.30542,61,80,0
60.865604,61.30542,56,80,0
61.31005,62.19431,63,80,0
61.31005,62.19431,60,80,0
61.31005,62.19431,54,80,0
62.198936,63.083195,61,80,0
62.198936,63.083195,57,80,0
62.198936,63.083195,52,80,0
63.087826,63.52764,56,80,0
63.087826,63.52764,52,80,0
63.087826,63.972084,59,80,0
63.976715,64.41653,61,80,0
63.53227,64.86097,57,80,0
63.53227,64.86097,54,80,0
64.42116,64.86097,63,80,0
64.8656,65.00912,64,80,0
64.8656,65.00912,56,80,0
65.01375,65.157265,66,80,0
65.161896,65.30542,68,80,0
65.31004,65.45357,69,80,0
65.45819,65.601715,71,80,0
65.60634,65.74986,73,80,0
65.75449,65.89801,74,80,0
65.90264,66.04616,75,80,0
66.05079,66.194305,76,80,0
66.19894,66.34245,77,80,0
66.347084,66.4906,78,80,0
66.49523,66.63875,79,80,0
66.64338,66.786896,80,80,0
66.79153,66.93504,79,80,0
66.939674,67.08319,80,80,0
67.08782,67.23134,81,80,0
67.23597,67.379486,78,80,0
66.64338,67.52763,71,80,0
67.38412,67.52763,80,80,0
67.68041,67.82393,80,80,0
67.532265,67.972084,69,80,0
67.82856,67.972084,78,80,0
68.124855,68.26838,78,80,0
67.97671,68.41653,68,80,0
68.273,68.41653,76,80,0
68.569305,68.71282,72,80,0
68.71745,68.86097,75,80,0
68.8656,69.00912,76,80,0
69.01375,69.157265,72,80,0
68.42115,69.30541,66,80,0
69.161896,69.30541,75,80,0
69.45819,69.60171,69,80,0
69.60634,69.749855,73,80,0
69.754486,69.898,75,80,0
69.90263,70.04615,69,80,0
69.31004,70.1943,64,80,0
70.05078,70.1943,73,80,0
70.34708,70.49059,74,82,0
70.495224,70.63875,75,85,0
70.64337,70.786896,76,88,0
70.79152,70.93504,74,91,0
70.19893,71.08319,69,80,0
70.93967,71.08319,75,94,0
71.23597,71.379486,78,99,0
71.087814,71.52763,71,96,0
71.38412,71.52763,76,102,0
71.68041,71.82393,80,108,0
71.532265,71.97208,73,105,0
71.82856,71.97208,78,110,0
71.97671,72.120224,80,110,0
72.124855,72.26837,79,110,0
72.273,72.41652,80,110,0
72.42115,72.56467,83,110,0
72.5693,72.712814,81,110,0
71.97671,72.86096,76,110,0
72.717445,72.86096,80,110,0
72.86559,73.00911,78,110,0
72.86559,73.00911,75,110,0
73.01374,73.15726,76,107,0
73.01374,73.15726,73,107,0
73.16189,73.305405,75,103,0
73.16189,73.305405,71,103,0
73.310036,73.45356,73,99,0
73.310036,73.45356,69,99,0
73.45818,73.60171,71,95,0
73.45818,73.60171,68,95,0
73.60633,73.749855,69,91,0
73.60633,73.749855,66,91,0
73.75448,73.898,68,80,0
73.90263,74.04615,67,80,0
74.05078,74.1943,68,80,0
74.19893,74.342445,69,80,0
74.34708,74.49059,67,80,0
73.75448,74.63874,59,80,0
74.495224,74.63874,68,80,0
74.79152,74.935036,68,80,0
74.64337,75.08318,57,80,0
74.93967,75.08318,66,80,0
75.23596,75.37948,66,80,0
75.087814,75.527626,56,80,0
75.38411,75.527626,64,80,0
75.680405,75.82392,60,80,0
75.82855,75.97207,63,80,0
75.9767,76.120224,64,80,0
76.12485,76.26837,60,80,0
75.53226,76.41652,54,80,0
76.272995,76.41652,63,80,0
76.5693,76.712814,57,80,0
76.717445,76.86096,61,80,0
76.86559,77.00911,63,80,0
77.01374,77.15726,57,80,0
76.42114,77.305405,52,80,0
77.16189,77.305405,61,80,0
77.45818,77.6017,56,82,0
77.310036,77.74985,52,80,0
77.60633,77.74985,59,85,0
77.902626,78.04614,57,91,0
77.75448,78.19429,54,88,0
78.05077,78.19429,59,94,0
78.34178,78.48017,57,99,0
78.19892,78.62303,54,96,0
78.484634,78.62303,61,102,0
78.77035,78.908745,61,108,0
78.627495,79.0516,54,105,0
78.91321,79.0516,63,110,0
79.05606,79.18968,64,110,0
79.05606,79.18968,56,110,0
79.19399,79.327614,59,110,0
79.331924,79.465546,56,110,0
79.46986,79.60348,59,110,0
79.60779,79.74141,64,110,0
79.74572,79.87934,68,110,0
79.88365,80.01727,66,110,0
80.02158,80.155205,63,110,0
80.159515,80.29313,59,110,0
80.29744,80.43106,63,110,0
80.43537,80.56899,66,110,0
80.5733,80.706924,69,110,0
80.711235,80.84486,68,110,0
80.84917,80.98279,64,110,0
80.9871,81.12072,59,110,0
81.12503,81.25865,64,110,0
81.26296,81.39658,68,110,0
81.400894,81.534515,71,110,0
81.53882,81.67244,69,110,0
81.67675,81.81037,66,110,0
81.81468,81.9483,63,110,0
81.952614,82.086235,75,110,0
82.090546,82.22417,71,110,0
82.22848,82.3621,66,110,0
82.36641,82.775894,76,110,0
82.36641,82.775894,68,110,0
82.780205,83.60348,71,110,0
83.60779,84.43106,71,110,0
84.43537,85.25865,71,110,0
85.26296,85.67244,71,110,0
85.67675,85.81037,76,110,0
85.81468,85.9483,71,110,0
85.952614,86.086235,68,110,0
86.090546,86.22417,71,110,0
86.22848,86.3621,76,110,0
86.36641,86.50003,80,110,0
86.50434,86.63796,78,110,0
86.642265,86.77589,75,110,0
86.7802,86.91382,71,110,0
86.91813,87.05175,75,110,0
87.05606,87.18968,78,110,0
87.19399,87.327614,81,110,0
87.331924,87.465546,80,110,0
87.46986,87.60348,76,110,0
87.60779,87.74141,71,110,0
87.74572,87.87934,76,110,0
87.88365,88.017265,80,110,0
88.021576,88.1552,83,110,0
88.15951,88.29313,81,110,0
88.29744,88.43106,78,110,0
88.43537,88.56899,75,110,0
88.5733,88.706924,87,110,0
88.711235,88.84486,83,110,0
88.84917,88.98279,78,110,0
88.9871,89.12072,88,110,0
89.12503,89.258644,83,110,0
89.262955,89.396576,80,110,0
89.40089,89.53451,83,110,0
89.53882,89.67244,80,110,0
89.67675,89.81037,76,109,0
89.81468,89.9483,81,108,0
89.952614,90.086235,78,107,0
90.090546,90.22417,75,106,0
90.22848,90.3621,87,105,0
90.36641,90.50002,83,104,0
90.50433,90.637955,78,103,0
90.642265,90.77589,88,102,0
90.7802,90.91382,83,101,0
90.91813,91.05175,80,100,0
91.05606,91.18968,83,99,0
91.19399,91.327614,80,98,0
91.331924,91.465546,76,97,0
91.46986,91.60348,81,96,0
91.60779,91.74141,78,95,0
91.74571,91.87933,75,94,0
91.883644,92.017265,87,93,0
92.021576,92.1552,83,92,0
92.15951,92.29313,78,91,0
92.29744,92.396576,88,90,0
92.40089,92.50002,83,90,0
92.50433,92.60348,80,91,0
92.60779,92.706924,76,92,0
92.711235,92.81037,81,92,0
92.81468,92.91382,78,93,0
92.91813,93.017265,87,94,0
93.021576,93.12071,83,94,0
93.12502,93.22417,88,95,0
93.22848,93.327614,83,96,0
93.331924,93.43106,80,96,0
93.43537,93.53451,76,97,0
93.53882,93.637955,81,98,0
93.642265,93.7414,78,98,0
93.74571,93.84486,87,99,0
93.84917,93.9483,83,100,0
93.952614,94.04845,88,100,0
94.05261,94.148445,83,101,0
94.15261,94.24844,87,102,0
94.25261,94.34844,83,102,0
94.352615,94.44845,88,103,0
94.452614,94.54845,83,104,0
94.55261,94.648445,87,104,0
94.65261,94.74844,83,105,0
94.75261,94.84844,88,106,0
94.852615,94.94845,83,106,0
94.952614,95.04845,87,107,0
95.05261,95.148445,83,108,0
95.15261,95.24844,88,108,0
95.25261,95.34844,83,109,0
95.352615,95.44845,87,110,0
95.452614,95.54845,83,110,0
95.55261,95.645355,88,110,0
95.64938,95.74213,83,110,0
95.74616,95.838905,86,110,0
95.84293,95.93568,83,110,0
95.939705,96.03245,86,110,0
96.03648,96.12923,83,110,0
96.133255,96.226,86,110,0
96.23003,96.32277,83,110,0
96.326805,96.41665,86,110,0
96.420555,96.5104,83,110,0
96.514305,96.60415,86,110,0
96.608055,96.6979,83,110,0
96.701805,96.79165,86,110,0
96.795555,96.8854,83,110,0
96.889305,96.97915,86,110,0
96.983055,97.0729,83,110,0
97.076805,97.2604,86,110,0
97.264305,97.35415,85,110,0
97.358055,97.4479,83,110,0
97.451805,97.54165,81,110,0
97.545555,97.6354,80,110,0
97.639305,97.72915,78,110,0
97.733055,97.8229,76,110,0
97.826805,97.91665,74,110,0
97.920555,98.0104,73,110,0
98.014305,98.10415,71,110,0
98.108055,98.1979,69,110,0
98.201805,98.29165,68,110,0
98.295555,98.3854,66,110,0
98.389305,98.47915,64,110,0
98.483055,98.5729,62,110,0
98.576805,98.66665,61,120,0
98.670555,98.7604,63,120,0
98.764305,98.85415,64,120,0
98.858055,98.9479,63,120,0
98.951805,99.04165,64,120,0
99.045555,99.1354,68,120,0
99.139305,99.22915,69,120,0
99.233055,99.3229,68,120,0
99.326805,99.41665,69,120,0
99.420555,99.5104,72,120,0
99.514305,99.60415,73,120,0
99.608055,99.6979,72,120,0
99.701805,99.79165,73,120,0
99.795555,99.8854,75,120,0
99.889305,99.97915,76,120,0
99.983055,100.0729,75,120,0
100.076805,100.16665,76,120,0
100.170555,100.2604,80,120,0
100.264305,100.35415,81,120,0
100.358055,100.4479,80,120,0
100.451805,100.54165,81,120,0
100.545555,100.6354,84,120,0
100.639305,100.72915,85,120,0
100.733055,100.8229,84,120,0
100.826805,100.91665,85,120,0
100.920555,101.0104,87,120,0
101.014305,101.10415,88,120,0
101.108055,101.1979,87,120,0
101.201805,101.29165,88,120,0
101.295555,101.3854,87,120,0
101.389305,101.47915,85,120,0
101.483055,101.5729,84,120,0
101.576805,101.66665,85,120,0
101.670555,101.7604,84,120,0
101.764305,101.85415,85,120,0
101.858055,101.9479,87,120,0
101.951805,102.04165,88,120,0
102.045555,102.1354,87,120,0
102.139305,102.22915,85,120,0
102.233055,102.3229,84,120,0
102.326805,102.41665,85,120,0
102.420555,102.5104,84,120,0
102.514305,102.60415,85,120,0
102.608055,102.6979,87,120,0
102.701805,102.79165,88,120,0
102.795555,102.8854,87,120,0
102.889305,102.97915,85,120,0
102.983055,103.0729,84,120,0
103.076805,103.16665,85,120,0
103.170555,103.2604,84,120,0
103.264305,103.35415,85,120,0
103.358055,103.4479,87,120,0
103.451805,103.54165,88,120,0
103.545555,103.6354,87,120,0
103.639305,103.72915,85,120,0
103.733055,103.8229,84,120,0
103.826805,103.91665,85,120,0
103.920555,104.0104,84,120,0
104.014305,104.10415,85,120,0
104.108055,104.1979,87,120,0
104.201805,104.29165,88,120,0
104.295555,104.3854,87,120,0
104.389305,104.47915,88,120,0
104.483055,104.5729,84,120,0
104.576805,104.76632,83,120,0
104.576805,104.76632,71,120,0
104.770355,104.95987,83,120,0
104.770355,104.95987,71,120,0
104.9639,105.15342,80,120,0
104.9639,105.15342,68,120,0
105.15745,105.34696,76,120,0
105.15745,105.34696,64,120,0
105.351,105.54051,88,120,0
105.351,105.54051,76,120,0
105.54454,105.73406,88,120,0
105.54454,105.73406,76,120,0
105.73809,105.927605,83,120,0
105.73809,105.927605,71,120,0
105.93164,106.121155,80,120,0
105.93164,106.121155,68,120,0
106.12519,106.314705,83,120,0
106.12519,106.314705,71,120,0
106.31873,106.508255,83,120,0
106.31873,106.508255,71,120,0
106.51228,106.7018,80,120,0
106.51228,106.7018,68,120,0
106.70583,106.89535,76,120,0
106.70583,106.89535,64,120,0
106.89938,107.0889,88,120,0
106.89938,107.0889,76,120,0
107.092926,107.28244,88,120,0
107.092926,107.28244,76,120,0
107.286476,107.47599,83,120,0
107.286476,107.47599,71,120,0
107.48003,107.66954,80,120,0
107.48003,107.66954,68,120,0
107.77035,107.86309,80,80,0
107.86712,107.95986,83,80,0
107.9639,108.05663,80,80,0
108.06067,108.15341,83,80,0
108.15744,108.25018,80,80,0
108.25422,108.346954,83,80,0
108.35099,108.44373,80,80,0
108.44776,108.540504,83,80,0
108.54454,108.63728,80,80,0
108.64131,108.734055,83,80,0
108.73808,108.830826,80,80,0
108.83486,108.927605,83,80,0
108.93163,109.024376,80,80,0
109.028404,109.12115,83,80,0
109.12518,109.217926,80,80,0
109.221954,109.3147,83,80,0
109.31873,109.41147,80,80,0
109.415504,109.50825,83,80,0
109.512276,109.60502,80,80,0
109.609055,109.7018,83,80,0
109.705826,109.79857,80,80,0
109.8026,109.89534,83,80,0
109.899376,109.99212,80,80,0
109.99615,110.08889,83,80,0
110.09292,110.18566,80,80,0
110.1897,110.28244,83,80,0
110.28647,110.37921,80,80,0
110.38325,110.47598,83,80,0
110.48002,110.57276,80,80,0
110.57679,110.66953,83,80,0
110.67357,110.766304,80,80,0
110.86711,110.959854,81,80,0
110.96389,111.05663,83,79,0
111.06066,111.153404,81,79,0
111.15743,111.250175,84,78,0
111.25421,111.346954,81,77,0
111.35098,111.443726,83,77,0
111.44776,111.5405,81,76,0
111.54453,111.637276,84,75,0
111.641304,111.73405,81,75,0
111.73808,111.83082,83,74,0
111.834854,111.9276,81,73,0
111.931625,112.02437,84,73,0
112.028404,112.12115,81,72,0
112.125175,112.21792,83,71,0
112.22195,112.31469,81,71,0
112.318726,112.41147,84,70,0
112.4155,112.50824,81,70,0
112.512276,112.60501,83,70,0
112.60905,112.70179,81,70,0
112.70582,112.79856,84,70,0
112.8026,112.89533,81,70,0
112.89937,112.99211,83,70,0
112.99614,113.08888,81,70,0
113.09292,113.18566,84,70,0
113.18969,113.28243,81,70,0
113.28646,113.3792,83,70,0
113.38324,113.47598,81,70,0
113.48001,113.572754,84,70,0
113.57678,113.669525,81,70,0
113.67356,113.766304,83,70,0
113.77033,113.863075,81,70,0
113.86711,113.95985,85,70,0
113.96388,114.056625,81,71,0
114.06065,114.1534,83,72,0
114.15743,114.250175,81,73,0
114.2542,114.34695,85,75,0
114.350975,114.44372,81,76,0
114.447754,114.5405,83,77,0
114.544525,114.63727,81,78,0
114.6413,114.73404,85,80,0
114.738075,114.83082,81,81,0
114.83485,114.92759,83,82,0
114.931625,115.02436,81,84,0
115.0284,115.12114,85,85,0
115.12517,115.21791,81,86,0
115.22195,115.31468,83,87,0
115.31872,115.41146,81,89,0
115.41549,115.50823,90,90,0
115.51227,115.60501,83,91,0
115.51227,115.60501,81,91,0
115.60904,115.70178,90,93,0
115.70581,115.79855,83,94,0
115.70581,115.79855,81,94,0
115.80259,115.89533,90,95,0
115.89936,115.9921,83,96,0
115.89936,115.9921,81,96,0
115.99614,116.088875,90,98,0
116.09291,116.18565,83,99,0
116.09291,116.18565,81,99,0
116.18968,116.282425,90,100,0
116.28646,116.379196,83,101,0
116.28646,116.379196,81,101,0
116.38323,116.475975,90,103,0
116.48,116.57275,83,104,0
116.48,116.57275,81,104,0
116.57678,116.672615,90,105,0
116.67678,116.77261,83,107,0
116.67678,116.77261,81,107,0
116.77678,116.87261,90,108,0
116.87678,116.97261,83,109,0
116.87678,116.97261,81,109,0
116.97678,118.172615,88,110,0
116.97678,118.172615,83,110,0
116.97678,118.172615,80,110,0
118.17678,118.27261,88,80,0
118.27678,118.37261,86,80,0
118.37678,118.47261,84,80,0
118.47678,118.57262,83,80,0
118.57678,118.672615,84,80,0
118.67678,118.77261,83,80,0
118.77678,118.87261,81,80,0
118.87678,118.97261,80,80,0
118.97678,119.07262,81,80,0
119.07678,119.172615,83,80,0
119.17678,119.27261,84,80,0
119.27678,119.37261,86,80,0
119.37678,119.47261,88,80,0
119.47678,119.57262,89,80,0
119.57678,119.672615,88,80,0
119.67678,119.77261,87,80,0
119.77678,119.87261,88,80,0
119.87678,119.97261,86,80,0
119.97678,120.07262,84,80,0
120.07678,120.172615,83,80,0
120.17678,120.27261,84,80,0
120.27678,120.37261,86,80,0
120.37678,120.47261,84,80,0
120.47678,120.57262,83,80,0
120.57678,120.672615,81,80,0
120.67678,120.77261,80,80,0
120.77678,120.87261,81,80,0
120.87678,120.97261,83,80,0
120.97678,121.37261,84,80,0
121.37678,121.57262,81,80,0
120.97678,121.77261,72,80,0
121.57678,121.77261,78,80,0
121.77678,122.172615,83,80,0
122.17678,122.37261,79,80,0
121.77678,122.57262,71,80,0
122.37678,122.57262,76,80,0
122.57678,122.97261,81,80,0
122.97678,123.172615,78,80,0
122.57678,123.37261,69,80,0
123.17678,123.37261,75,80,0
123.37678,124.57262,76,100,0
124.57678,124.672615,76,80,0
124.67678,124.77261,74,80,0
124.77678,124.87261,72,80,0
124.87678,124.97261,71,80,0
124.97678,125.07262,72,80,0
125.07678,125.172615,71,80,0
125.17678,125.27261,69,80,0
125.27678,125.37261,68,80,0
125.37678,125.47261,69,80,0
125.47678,125.57262,71,80,0
125.57678,125.672615,72,80,0
125.67678,125.77261,74,80,0
125.77678,125.87261,76,80,0
125.87678,125.97261,77,80,0
125.97678,126.07262,76,80,0
126.07678,126.172615,75,80,0
126.17678,126.27261,76,80,0
126.27678,126.37261,74,80,0
126.37678,126.47261,72,80,0
126.47678,126.57262,71,80,0
126.57678,126.672615,72,80,0
126.67678,126.77261,74,80,0
126.77678,126.87261,72,80,0
126.87678,126.97261,71,80,0
126.97678,127.07262,69,80,0
127.07678,127.172615,68,80,0
127.17678,127.27261,69,80,0
127.27678,127.37261,71,80,0
127.37678,127.77261,72,80,0
127.77678,127.97261,69,80,0
127.37678,128.1726,60,80,0
127.97678,128.1726,66,80,0
128.17677,128.57262,71,80,0
128.57678,128.77261,67,80,0
128.17677,128.97261,59,80,0
128.77678,128.97261,64,80,0
128.97678,129.37262,69,80,0
129.37679,129.57262,66,80,0
128.97678,129.77261,57,80,0
129.57678,129.77261,63,80,0
129.77678,130.1726,64,80,0
130.17677,130.37262,76,80,0
130.37679,130.57262,74,80,0
130.57678,130.97261,72,80,0
130.97678,131.1726,69,80,0
131.17677,131.37262,65,80,0
131.37679,131.77261,71,80,0
131.77678,131.97261,67,80,0
131.97678,132.1726,64,80,0
132.17677,132.57262,69,80,0
132.57678,132.77261,66,80,0
132.77678,132.97261,63,80,0
132.97678,133.37262,64,80,0
133.37679,133.57262,72,80,0
133.57678,133.77261,71,80,0
133.77678,134.1726,69,80,0
134.17677,134.37262,65,80,0
134.37679,134.57262,62,80,0
134.57678,134.97261,67,80,0
134.97678,135.1726,64,80,0
135.17677,135.37262,60,80,0
135.37679,135.77261,65,80,0
135.77678,135.97261,62,80,0
135.97678,136.1726,59,80,0
136.17677,136.3663,52,80,0
136.17677,136.3663,60,80,0
136.37033,136.55984,52,80,0
136.37033,136.55984,48,80,0
136.56387,136.75339,52,80,0
136.56387,136.75339,48,80,0
136.75743,136.94695,52,80,0
136.75743,136.94695,48,80,0
136.95097,137.14049,52,80,0
136.95097,137.14049,48,80,0
137.14452,137.33403,52,80,0
137.14452,137.33403,48,80,0
137.33807,137.52759,52,80,0
137.33807,137.52759,48,80,0
137.53162,137.72113,52,80,0
137.53162,137.72113,48,80,0
137.72516,137.91467,52,80,0
137.72516,137.91467,48,80,0
137.91872,138.10823,52,80,0
137.91872,138.10823,48,80,0
138.11226,138.30177,52,80,0
138.11226,138.30177,48,80,0
138.3058,138.49533,52,80,0
138.3058,138.49533,48,80,0
138.49936,138.68887,52,80,0
138.49936,138.68887,48,80,0
138.6929,138.88242,52,80,0
138.6929,138.88242,48,80,0
138.88646,139.07597,54,80,0
138.88646,139.07597,50,80,0
139.08,139.26952,54,80,0
139.08,139.26952,50,80,0
139.27354,139.85016,55,80,0
139.27354,139.85016,50,80,0
139.85419,139.94693,59,80,0
139.95097,140.0437,57,80,0
140.04774,140.23726,55,80,0
140.82193,140.91467,85,80,0
140.9187,141.30177,86,80,0
141.3058,141.39854,84,80,0
141.40257,141.49532,83,80,0
141.49934,141.59209,81,80,0
141.59613,141.97919,79,80,0
142.37032,142.55983,50,80,0
142.37032,142.55983,46,80,0
142.56386,142.75337,50,80,0
142.56386,142.75337,46,80,0
142.75742,142.94693,50,80,0
142.75742,142.94693,46,80,0
142.95096,143.14047,50,80,0
142.95096,143.14047,46,80,0
143.1445,143.33403,50,80,0
143.1445,143.33403,46,80,0
143.33806,143.52757,50,80,0
143.33806,143.52757,46,80,0
143.5316,143.72112,50,80,0
143.5316,143.72112,46,80,0
143.72516,143.91467,50,80,0
143.72516,143.91467,46,80,0
143.9187,144.10822,50,80,0
143.9187,144.10822,46,80,0
144.11224,144.30176,50,80,0
144.11224,144.30176,46,80,0
144.3058,144.49532,50,80,0
144.3058,144.49532,46,80,0
144.49934,144.68886,50,80,0
144.49934,144.68886,46,80,0
144.69289,144.8824,50,80,0
144.69289,144.8824,46,80,0
144.88644,145.07596,50,80,0
144.88644,145.07596,46,80,0
145.07999,145.2695,52,80,0
145.07999,145.2695,48,80,0
145.27353,145.46306,52,80,0
145.27353,145.46306,48,80,0
145.46709,146.0437,53,80,0
145.46709,146.0437,48,80,0
146.04773,146.14047,57,80,0
146.1445,146.23724,55,80,0
146.24127,146.43079,53,80,0
147.01547,147.10822,83,80,0
147.11224,147.4953,84,80,0
147.49934,147.59209,82,80,0
147.59612,147.68886,80,80,0
147.69289,147.78563,79,80,0
147.78966,148.17273,77,80,0
148.56386,148.6566,88,80,0
148.66063,149.72112,89,80,0
149.72514,149.81789,89,91,0
149.82191,149.91466,87,92,0
149.91869,150.01143,86,93,0
150.01546,150.1082,84,94,0
150.11223,150.20497,83,95,0
150.20901,150.30176,84,96,0
150.30579,150.39853,86,97,0
150.40256,150.4953,87,98,0
150.49933,150.59207,89,99,0
150.5961,150.68884,87,100,0
150.69289,150.78563,86,101,0
150.78966,150.8824,84,102,0
150.88643,150.97917,83,103,0
150.9832,151.07594,84,104,0
151.07997,151.17271,86,105,0
151.17674,151.26949,87,106,0
151.27353,151.36627,89,107,0
151.3703,151.46304,87,108,0
151.46707,151.55981,86,108,0
151.56384,151.65659,84,109,0
151.66061,151.75336,83,110,0
151.7574,151.85013,84,110,0
151.85417,151.94691,86,110,0
151.95094,152.04369,87,110,0
152.04771,152.14046,89,110,0
152.14449,152.23723,87,110,0
152.24126,152.334,86,110,0
152.33804,152.43079,84,110,0
152.43481,152.52756,83,110,0
152.53159,152.62433,80,110,0
152.62836,152.7211,79,110,0
152.72513,152.81787,77,110,0
152.82191,152.91464,75,110,0
152.91869,153.01143,74,110,0
153.01546,153.1082,72,110,0
153.11223,153.20497,71,110,0
153.209,153.39851,72,100,0
153.5961,153.78561,67,96,0
153.9832,154.22798,63,91,0
154.4832,154.72798,60,86,0
154.9832,156.97798,55,81,0
156.9832,157.14726,64,80,0
157.07695,157.24492,60,80,0
157.1707,157.33086,64,80,0
157.26445,157.42851,60,80,0
157.3582,157.51054,64,80,0
157.45195,157.6043,60,80,0
157.5457,157.70976,64,80,0
157.63945,157.80742,60,80,0
157.7332,157.90898,64,80,0
157.82695,157.9871,60,80,0
157.9207,158.08867,64,80,0
158.01445,158.1746,60,80,0
158.1082,158.25664,64,80,0
158.20195,158.3621,60,80,0
158.2957,158.44414,64,80,0
158.38945,158.5457,60,80,0
158.4832,158.63554,64,80,0
158.57695,158.75273,60,80,0
158.6707,158.83086,64,80,0
158.76445,158.9246,60,80,0
158.8582,159.02226,64,80,0
158.95195,159.11601,60,80,0
159.0457,159.19023,64,80,0
159.13945,159.28398,60,80,0
159.2332,159.39726,64,80,0
159.32695,159.4832,60,80,0
159.4207,159.56914,64,80,0
159.51445,159.6668,60,80,0
159.6082,159.76445,66,80,0
159.70195,159.8543,62,80,0
159.7957,159.95976,66,80,0
159.88945,159.9793,62,80,0
159.9832,160.5418,67,80,0
160.5457,160.63554,71,80,0
160.63945,160.7293,69,80,0
160.7332,160.9168,67,80,0
161.4832,161.57304,85,80,0
161.57695,161.94804,86,80,0
161.95195,162.0418,84,80,0
162.0457,162.13554,83,80,0
162.13945,162.2293,81,80,0
162.2332,162.6043,79,80,0
162.9832,163.07304,65,80,0
163.07695,163.1668,62,80,0
163.1707,163.26054,65,80,0
163.26445,163.3543,62,80,0
163.3582,163.44804,65,80,0
163.45195,163.5418,62,80,0
163.5457,163.63554,65,80,0
163.63945,163.7293,62,80,0
163.7332,163.82304,65,80,0
163.82695,163.9168,62,80,0
163.9207,164.01054,65,80,0
164.01445,164.1043,62,80,0
164.1082,164.19804,65,80,0
164.20195,164.2918,62,80,0
164.2957,164.38554,65,80,0
164.38945,164.4793,62,80,0
164.4832,164.57304,65,80,0
164.57695,164.6668,62,80,0
164.6707,164.76054,65,80,0
164.76445,164.8543,62,80,0
164.8582,164.94804,65,80,0
164.95195,165.0418,62,80,0
165.0457,165.13554,65,80,0
165.13945,165.2293,62,80,0
165.2332,165.32304,65,80,0
165.32695,165.4168,62,80,0
165.4207,165.51054,65,80,0
165.51445,165.6043,62,80,0
165.6082,165.69804,68,80,0
165.70195,165.7918,64,80,0
165.7957,165.88554,68,80,0
165.88945,165.9793,64,80,0
165.9832,166.5418,69,80,0
166.5457,166.63554,72,80,0
166.63945,166.7293,71,80,0
166.7332,166.9168,69,80,0
167.4832,167.57304,87,80,0
167.57695,167.94804,88,80,0
167.95195,168.0418,86,84,0
168.0457,168.13554,84,85,0
168.13945,168.2293,83,86,0
168.2332,168.6043,81,87,0
168.9832,169.07304,87,95,0
169.07695,169.44804,88,96,0
169.45195,169.5418,86,100,0
169.5457,169.63554,84,101,0
169.63945,169.7293,83,102,0
169.7332,170.1043,82,103,0
170.4832,170.94804,83,80,0
170.95195,171.0418,81,80,0
171.0457,171.13554,79,80,0
171.13945,171.2293,78,80,0
171.2332,171.32304,79,80,0
171.32695,171.4168,78,80,0
171.4207,171.51054,76,80,0
171.51445,171.6043,75,80,0
171.6082,171.69804,76,80,0
171.70195,171.7918,79,80,0
171.7957,171.88554,78,80,0
171.88945,171.9793,76,80,0
171.9832,172.07304,75,80,0
172.07695,172.1668,73,80,0
172.1707,172.26054,71,80,0
172.26445,172.3543,70,80,0
172.3582,172.44804,71,80,0
172.45195,172.5418,73,80,0
172.5457,172.63554,74,80,0
172.63945,172.7293,75,80,0
172.7332,172.82304,76,80,0
172.82695,172.9168,75,80,0
172.9207,173.01054,76,80,0
173.01445,173.1043,78,80,0
173.1082,173.19804,79,80,0
173.20195,173.2918,80,80,0
173.2957,173.38554,81,80,0
173.38945,173.4793,82,80,0
173.4832,173.57304,83,80,0
173.57695,173.6668,82,80,0
173.6707,173.76054,83,80,0
173.76445,173.8543,82,80,0
173.8582,173.94804,83,80,0
173.95195,174.0418,81,80,0
174.0457,174.13554,79,80,0
174.13945,174.2293,78,80,0
174.2332,174.32304,79,80,0
174.32695,174.4168,78,80,0
174.4207,174.51054,76,80,0
174.51445,174.6043,75,80,0
174.6082,174.69804,76,80,0
174.70195,174.7918,79,80,0
174.7957,174.88554,78,80,0
174.88945,174.9793,76,80,0
174.9832,175.07304,75,80,0
175.07695,175.1668,73,80,0
175.1707,175.26054,71,80,0
175.26445,175.3543,70,80,0
175.3582,175.44804,71,80,0
175.45195,175.5418,73,80,0
175.5457,175.63554,74,80,0
175.63945,175.7293,75,80,0
175.7332,175.82304,76,80,0
175.82695,175.9168,75,80,0
175.9207,176.01054,76,80,0
176.01445,176.1043,78,80,0
176.1082,176.19804,79,80,0
176.20195,176.2918,80,80,0
176.2957,176.38554,81,80,0
176.38945,176.4793,82,80,0
176.4832,176.57304,83,80,0
176.57695,176.6668,78,82,0
176.6707,176.76054,75,84,0
176.76445,176.8543,71,86,0
176.8582,176.94804,70,88,0
176.95195,177.0418,71,90,0
177.0457,177.13554,76,92,0
177.13945,177.2293,79,94,0
177.2332,177.32304,83,96,0
177.32695,177.4168,78,98,0
177.4207,177.51054,75,100,0
177.51445,177.6043,71,102,0
177.6082,177.69804,70,104,0
177.70195,177.7918,71,106,0
177.7957,177.88554,76,108,0
177.88945,177.9793,79,110,0
177.9832,178.07304,83,110,0
178.07695,178.1668,78,110,0
178.1707,178.26054,75,110,0
178.26445,178.3543,71,110,0
178.3582,178.44804,83,110,0
178.45195,178.5418,79,110,0
178.5457,178.63554,76,110,0
178.63945,178.7293,71,110,0
178.7332,178.82304,83,110,0
178.82695,178.9168,78,110,0
178.9207,179.01054,75,110,0
179.01445,179.1043,71,110,0
179.1082,179.19804,83,110,0
179.20195,179.2918,79,110,0
179.2957,179.38554,76,110,0
179.38945,179.4793,71,110,0
179.4832,179.57304,83,110,0
179.57695,179.6668,78,110,0
179.6707,179.76054,75,110,0
179.76445,179.8543,71,110,0
179.8582,179.94804,78,110,0
179.95195,180.0418,75,110,0
180.0457,180.13554,71,110,0
180.13945,180.2293,66,110,0
180.2332,180.32304,75,110,0
180.32695,180.4168,71,110,0
180.4207,180.51054,66,110,0
180.51445,180.6043,63,110,0
180.6082,180.69804,71,110,0
180.70195,180.7918,66,110,0
180.7957,180.88554,63,110,0
180.88945,180.9793,59,110,0
180.9832,181.07304,66,110,0
181.07695,181.1668,63,110,0
181.1707,181.26054,59,110,0
181.26445,181.3543,54,110,0
181.3582,181.44804,63,110,0
181.45195,181.5418,59,110,0
181.5457,181.63554,54,110,0
181.63945,181.7293,51,110,0
181.7332,181.82304,59,110,0
181.82695,181.9168,54,110,0
181.9207,182.01054,51,110,0
182.01445,182.1043,47,110,0
183.2332,183.4168,71,103,0
183.4207,183.6043,59,101,0
183.6082,183.7918,73,99,0
183.7957,183.9793,61,97,0
183.9832,184.1668,75,95,0
184.1707,184.3543,63,93,0
184.7332,184.9168,75,87,0
184.9207,185.1043,63,85,0
185.1082,185.2918,76,83,0
185.2957,185.4793,64,81,0
185.4832,185.69302,78,80,0
185.69748,185.9073,66,80,0
185.91177,186.12158,80,80,0
186.12605,186.33588,68,80,0
186.34033,186.55016,81,80,0
186.55463,186.76445,69,80,0
186.7689,186.97873,81,80,0
186.9832,187.19301,71,80,0
187.19748,187.4073,81,80,0
187.41176,187.62158,73,80,0
187.62605,187.83588,81,80,0
187.84033,188.05016,75,80,0
188.05463,188.27222,81,80,0
188.27684,188.49443,76,80,0
188.49907,188.74385,81,80,0
188.74907,188.99385,78,80,0
188.99907,189.88333,80,80,0
188.99907,189.88333,76,80,0
188.99907,189.88333,71,80,0
189.88795,190.32777,78,80,0
189.88795,190.32777,75,80,0
189.88795,190.32777,69,80,0
190.3324,190.77222,76,80,0
190.3324,190.77222,73,80,0
190.3324,190.77222,68,80,0
190.77684,191.6611,75,80,0
190.77684,191.6611,72,80,0
190.77684,191.6611,66,80,0
191.66573,192.54999,73,80,0
191.66573,192.54999,64,80,0
192.55461,193.43887,75,80,0
192.55461,193.43887,71,80,0
192.55461,193.43887,69,80,0
193.44351,193.88332,76,99,0
193.44351,193.88332,71,99,0
193.88795,194.36295,78,109,0
193.88795,194.36295,76,109,0
193.88795,194.36295,73,109,0
194.36795,195.40599,80,110,0
194.36795,195.40599,76,110,0
194.36795,195.88643,71,110,0
195.41142,196.36642,78,91,0
195.41142,196.36642,75,91,0
195.89143,196.36642,69,81,0
196.37143,197.25569,68,80,0
196.37143,197.25569,64,80,0
196.37143,197.25569,59,80,0
197.26031,197.70013,66,80,0
197.26031,197.70013,63,80,0
197.26031,197.70013,57,80,0
197.70476,198.14458,64,80,0
197.70476,198.14458,61,80,0
197.70476,198.14458,56,80,0
198.1492,199.03346,63,80,0
198.1492,199.03346,60,80,0
198.1492,199.03346,54,80,0
199.03809,199.92235,61,80,0
199.03809,199.92235,57,80,0
199.03809,199.92235,52,80,0
199.92699,200.36679,56,80,0
199.92699,200.36679,52,80,0
199.92699,200.81123,59,80,0
200.81587,201.25568,61,80,0
200.37143,201.70012,57,80,0
200.37143,201.70012,54,80,0
201.26031,201.70012,63,80,0
201.70476,201.84828,64,80,0
201.70476,201.84828,56,80,0
201.8529,201.99643,66,80,0
202.00105,202.14458,68,80,0
202.1492,202.29272,69,80,0
202.29735,202.44087,71,80,0
202.4455,202.58902,73,80,0
202.59364,202.73717,74,80,0
202.74179,202.88531,75,80,0
202.88994,203.03346,76,80,0
203.03809,203.18161,77,80,0
203.18623,203.32976,78,80,0
203.33438,203.4779,79,80,0
203.48253,203.62605,80,80,0
203.63068,203.7742,79,80,0
203.77882,203.92235,80,80,0
203.92697,204.0705,81,80,0
204.07512,204.21864,78,80,0
203.48253,204.36679,71,80,0
204.22327,204.36679,80,80,0
204.51956,204.66309,80,80,0
204.37141,204.81123,69,80,0
204.66771,204.81123,78,80,0
204.964,205.10753,78,80,0
204.81586,205.25568,68,80,0
205.11217,205.25568,76,80,0
205.40846,205.55197,72,80,0
205.55661,205.70012,75,80,0
205.70476,205.84827,76,80,0
205.8529,205.99641,72,80,0
205.26031,206.14456,66,80,0
206.00105,206.14456,75,80,0
206.29735,206.44086,69,80,0
206.4455,206.589,73,80,0
206.59364,206.73715,75,80,0
206.74179,206.8853,69,80,0
206.1492,207.03345,64,80,0
206.88994,207.03345,73,80,0
207.18623,207.32976,74,82,0
207.33438,207.4779,75,85,0
207.48253,207.62605,76,88,0
207.63068,207.7742,74,91,0
207.03809,207.92235,69,80,0
207.77882,207.92235,75,94,0
208.07512,208.21864,78,99,0
207.92697,208.36679,71,96,0
208.22327,208.36679,76,102,0
208.51956,208.66309,80,108,0
208.37141,208.81123,73,105,0
208.66771,208.81123,78,110,0
208.81586,208.95938,80,110,0
208.964,209.10753,79,110,0
209.11215,209.25568,80,110,0
209.2603,209.40382,83,110,0
209.40845,209.55197,81,110,0
208.81586,209.70012,76,110,0
209.5566,209.70012,80,110,0
209.70474,209.84827,78,110,0
209.70474,209.84827,75,110,0
209.85289,209.99641,76,107,0
209.85289,209.99641,73,107,0
210.00104,210.14456,75,103,0
210.00104,210.14456,71,103,0
210.14919,210.29271,73,99,0
210.14919,210.29271,69,99,0
210.29733,210.44086,71,95,0
210.29733,210.44086,68,95,0
210.4455,210.589,69,91,0
210.4455,210.589,66,91,0
210.59364,210.73715,68,80,0
210.74179,210.8853,67,80,0
210.88994,211.03345,68,80,0
211.03809,211.1816,69,80,0
211.18623,211.32974,67,80,0
210.59364,211.47789,59,80,0
211.33438,211.47789,68,80,0
211.63068,211.77419,68,80,0
211.48253,211.92233,57,80,0
211.77882,211.92233,66,80,0
212.07512,212.21863,66,80,0
211.92697,212.36678,56,80,0
212.22327,212.36678,64,80,0
212.51956,212.66309,60,80,0
212.66771,212.81123,63,80,0
212.81586,212.95938,64,80,0
212.964,213.10753,60,80,0
212.37141,213.25568,54,80,0
213.11215,213.25568,63,80,0
213.40845,213.55197,57,80,0
213.5566,213.70012,61,80,0
213.70474,213.84827,63,80,0
213.85289,213.99641,57,80,0
213.2603,214.14456,52,80,0
214.00104,214.14456,61,80,0
214.29733,214.44086,56,82,0
214.14919,214.589,52,80,0
214.44548,214.589,59,85,0
214.74178,214.8853,57,91,0
214.59363,215.03345,54,88,0
214.88992,215.03345,59,94,0
215.18622,215.32974,57,99,0
215.03807,215.47789,54,96,0
215.33437,215.47789,61,102,0
215.63066,215.77419,61,108,0
215.48251,215.92233,54,105,0
215.77881,215.92233,63,110,0
215.92697,216.06058,64,110,0
215.92697,216.06058,56,110,0
216.0649,216.19852,59,110,0
216.20282,216.33644,56,110,0
216.34076,216.47438,59,110,0
216.47868,216.6123,64,110,0
216.61662,216.75024,68,110,0
216.75455,216.88817,66,110,0
216.89249,217.02611,63,110,0
217.03041,217.16403,59,110,0
217.16835,217.30196,63,110,0
217.30627,217.4399,66,110,0
217.4442,217.57782,69,110,0
217.58214,217.71576,68,110,0
217.72006,217.85368,64,110,0
217.858,217.99162,59,110,0
217.99593,218.12955,64,110,0
218.13387,218.26749,68,110,0
218.27179,218.40541,71,110,0
218.40973,218.54335,69,110,0
218.54765,218.68127,66,110,0
218.68558,218.8192,63,110,0
218.82352,218.95714,75,110,0
218.96144,219.09506,71,110,0
219.09938,219.233,66,110,0
219.2373,219.64679,76,110,0
219.2373,219.64679,68,110,0
219.65111,220.47438,71,110,0
220.47868,221.30196,71,110,0
221.30627,222.12955,71,110,0
222.13387,222.54333,71,110,0
222.54765,222.68127,76,110,0
222.68558,222.8192,71,110,0
222.82352,222.95714,68,110,0
222.96144,223.09506,71,110,0
223.09938,223.233,76,110,0
223.2373,223.37093,80,110,0
223.37524,223.50887,78,110,0
223.51317,223.64679,75,110,0
223.6511,223.78471,71,110,0
223.78903,223.92265,75,110,0
223.92696,224.06058,78,110,0
224.0649,224.19852,81,110,0
224.20282,224.33644,80,110,0
224.34076,224.47438,76,110,0
224.47868,224.6123,71,110,0
224.61662,224.75024,76,110,0
224.75455,224.88817,80,110,0
224.89249,225.0261,83,110,0
225.03041,225.16403,81,110,0
225.16833,225.30196,78,110,0
225.30627,225.4399,75,110,0
225.4442,225.57782,87,110,0
225.58214,225.71576,83,110,0
225.72006,225.85368,78,110,0
225.858,225.99162,88,110,0
225.99593,226.12955,83,110,0
226.13387,226.26747,80,110,0
226.27179,226.40541,83,110,0
226.40971,226.54333,80,110,0
226.54765,226.68127,76,109,0
226.68558,226.8192,81,108,0
226.82352,226.95714,78,107,0
226.96144,227.09506,75,106,0
227.09938,227.233,87,105,0
227.2373,227.37093,83,104,0
227.37524,227.50885,78,103,0
227.51317,227.64679,88,102,0
227.6511,227.78471,83,101,0
227.78903,227.92265,80,100,0
227.92696,228.06058,83,99,0
228.0649,228.19852,80,98,0
228.20282,228.33644,76,97,0
228.34076,228.47438,81,96,0
228.47868,228.6123,78,95,0
228.61662,228.75024,75,94,0
228.75455,228.88817,87,93,0
228.89247,229.0261,83,92,0
229.03041,229.16403,78,91,0
229.16833,229.26747,88,90,0
229.27179,229.37093,83,90,0
229.37523,229.47438,80,91,0
229.47868,229.57782,76,92,0
229.58214,229.68127,81,92,0
229.68558,229.78471,78,93,0
229.78903,229.88817,87,94,0
229.89247,229.99162,83,94,0
229.99593,230.09506,88,95,0
230.09938,230.19852,83,96,0
230.20282,230.30196,80,96,0
230.30627,230.40541,76,97,0
230.40971,230.50885,81,98,0
230.51317,230.6123,78,98,0
230.61662,230.71576,87,99,0
230.72006,230.8192,83,100,0
230.82352,230.91934,88,100,0
230.92351,231.01935,83,101,0
231.02351,231.11934,87,102,0
231.1235,231.21935,83,102,0
231.22351,231.31935,88,103,0
231.32352,231.41934,83,104,0
231.42351,231.51935,87,104,0
231.52351,231.61934,83,105,0
231.6235,231.71935,88,106,0
231.72351,231.81935,83,106,0
231.82352,231.91934,87,107,0
231.92351,232.01935,83,108,0
232.02351,232.11934,88,108,0
232.1235,232.21935,83,109,0
232.22351,232.31935,87,110,0
232.32352,232.41934,83,110,0
232.42351,232.51625,88,110,0
232.52028,232.61302,83,110,0
232.61707,232.70981,86,110,0
232.71384,232.80658,83,110,0
232.81061,232.90335,86,110,0
232.90738,233.00012,83,110,0
233.00415,233.0969,86,110,0
233.10094,233.19366,83,110,0
233.19771,233.29045,86,110,0
233.29448,233.38722,83,110,0
233.39125,233.484,86,110,0
233.48802,233.58076,83,110,0
233.5848,233.67754,86,110,0
233.68158,233.77432,83,110,0
233.77835,233.8711,86,110,0
233.87512,233.96786,83,110,0
233.9719,234.15549,86,110,0
234.1594,234.24924,85,110,0
234.25314,234.34299,83,110,0
234.3469,234.43674,81,110,0
234.44064,234.53049,80,110,0
234.5344,234.62424,78,110,0
234.62814,234.71799,76,110,0
234.7219,234.81174,74,110,0
234.81564,234.90549,73,110,0
234.9094,234.99924,71,110,0
235.00314,235.09299,69,110,0
235.0969,235.18674,68,110,0
235.19064,235.28049,66,110,0
235.2844,235.37424,64,110,0
235.37814,235.46799,62,110,0
235.4719,235.56464,61,120,0
235.56866,235.6614,63,120,0
235.66545,235.75818,64,120,0
235.76222,235.85497,63,120,0
235.859,235.95174,64,120,0
235.95576,236.04851,68,120,0
236.05254,236.14528,69,120,0
236.1493,236.24205,68,120,0
236.2461,236.33884,69,120,0
236.34286,236.43561,72,120,0
236.43964,236.53238,73,120,0
236.5364,236.62915,72,120,0
236.63318,236.72592,73,120,0
236.72997,236.8227,75,120,0
236.82674,236.91948,76,120,0
236.92351,237.01625,75,120,0
237.02028,237.11302,76,120,0
237.11705,237.2098,80,120,0
237.21382,237.30656,81,120,0
237.31061,237.40335,80,120,0
237.40738,237.50012,81,120,0
237.50415,237.5969,84,120,0
237.60092,237.69366,85,120,0
237.6977,237.79044,84,120,0
237.79448,237.8872,85,120,0
237.89125,237.984,87,120,0
237.98802,238.08076,88,120,0
238.0848,238.17754,87,120,0
238.18156,238.2743,88,120,0
238.27834,238.37108,87,120,0
238.37512,238.46786,85,120,0
238.4719,238.56464,84,120,0
238.56866,238.6614,85,120,0
238.66544,238.75818,84,120,0
238.7622,238.85495,85,120,0
238.859,238.95172,87,120,0
238.95576,239.04851,88,120,0
239.05254,239.14528,87,120,0
239.1493,239.24205,85,120,0
239.24608,239.33882,84,120,0
239.34285,239.4356,85,120,0
239.43964,239.53238,84,120,0
239.5364,239.62915,85,120,0
239.63318,239.72592,87,120,0
239.72995,239.8227,88,120,0
239.82672,239.91946,87,120,0
239.9235,240.01624,85,120,0
240.02028,240.11302,84,120,0
240.11705,240.2098,85,120,0
240.21382,240.30656,84,120,0
240.3106,240.40334,85,120,0
240.40736,240.5001,87,120,0
240.50415,240.5969,88,120,0
240.60092,240.69366,87,120,0
240.6977,240.79044,85,120,0
240.79446,240.8872,84,120,0
240.89124,240.98398,85,120,0
240.988,241.08075,84,120,0
241.0848,241.17754,85,120,0
241.18156,241.2743,87,120,0
241.27834,241.37418,88,120,0
241.37834,241.47417,87,120,0
241.47833,241.57417,88,120,0
241.57834,241.67416,84,120,0
241.67833,241.87418,83,120,0
241.67833,241.87418,71,120,0
241.87834,242.07417,83,120,0
241.87834,242.07417,71,120,0
242.07834,242.27417,80,120,0
242.07834,242.27417,68,120,0
242.27834,242.47417,76,120,0
242.27834,242.47417,64,120,0
242.47833,242.67416,88,120,0
242.47833,242.67416,76,120,0
242.67833,242.87418,88,120,0
242.67833,242.87418,76,120,0
242.87834,243.07417,83,120,0
242.87834,243.07417,71,120,0
243.07834,243.27417,80,120,0
243.07834,243.27417,68,120,0
243.27834,243.47417,83,120,0
243.27834,243.47417,71,120,0
243.47833,243.67416,83,120,0
243.47833,243.67416,71,120,0
243.67833,243.87418,80,120,0
243.67833,243.87418,68,120,0
243.87834,244.07417,76,120,0
243.87834,244.07417,64,120,0
244.07834,244.27417,88,120,0
244.07834,244.27417,76,120,0
244.27834,244.47417,88,120,0
244.27834,244.47417,76,120,0
244.47833,244.67416,83,120,0
244.47833,244.67416,71,120,0
244.67833,244.87418,80,120,0
244.67833,244.87418,68,120,0
244.97833,245.07417,80,80,0
245.07834,245.17416,83,80,0
245.17833,245.27417,80,80,0
245.27834,245.37418,83,80,0
245.37834,245.47417,80,80,0
245.47833,245.57417,83,80,0
245.57834,245.67416,80,80,0
245.67833,245.77417,83,80,0
245.77834,245.87418,80,80,0
245.87834,245.97417,83,80,0
245.97833,246.07417,80,80,0
246.07834,246.17416,83,80,0
246.17833,246.27417,80,80,0
246.27834,246.37418,83,80,0
246.37834,246.47417,80,80,0
246.47833,246.57417,83,80,0
246.57834,246.67416,80,80,0
246.67833,246.77417,83,80,0
246.77834,246.87418,80,80,0
246.87834,246.97417,83,80,0
246.97833,247.07417,80,80,0
247.07834,247.17416,83,80,0
247.17833,247.27417,80,80,0
247.27834,247.37418,83,80,0
247.37834,247.47417,80,80,0
247.47833,247.57417,83,80,0
247.57834,247.67416,80,80,0
247.67833,247.77417,83,80,0
247.77834,247.87418,80,80,0
247.87834,247.97417,83,80,0
247.97833,248.07417,80,80,0
248.17833,248.27417,81,80,0
248.27834,248.37418,83,79,0
248.37834,248.47417,81,79,0
248.47833,248.57417,84,78,0
248.57834,248.67416,81,77,0
248.67833,248.77417,83,77,0
248.77834,248.87418,81,76,0
248.87834,248.97417,84,75,0
248.97833,249.07417,81,75,0
249.07834,249.17416,83,74,0
249.17833,249.27417,81,73,0
249.27834,249.37418,84,73,0
249.37834,249.47417,81,72,0
249.47833,249.57417,83,71,0
249.57834,249.67416,81,71,0
249.67833,249.77417,84,70,0
249.77834,249.87418,81,70,0
249.87834,249.97417,83,70,0
249.97833,250.07417,81,70,0
250.07834,250.17416,84,70,0
250.17833,250.27417,81,70,0
250.27834,250.37418,83,70,0
250.37834,250.47417,81,70,0
250.47833,250.57417,84,70,0
250.57834,250.67416,81,70,0
250.67833,250.77417,83,70,0
250.77834,250.87418,81,70,0
250.87834,250.97417,84,70,0
250.97833,251.07417,81,70,0
251.07834,251.17416,83,70,0
251.17833,251.27417,81,70,0
251.27834,251.37418,85,70,0
251.37834,251.47417,81,71,0
251.47833,251.57417,83,72,0
251.57834,251.67416,81,73,0
251.67833,251.77417,85,75,0
251.77834,251.87418,81,76,0
251.87834,251.97417,83,77,0
251.97833,252.07417,81,78,0
252.07834,252.17416,85,80,0
252.17833,252.27417,81,81,0
252.27834,252.37418,83,82,0
252.37834,252.47417,81,84,0
252.47833,252.57417,85,85,0
252.57834,252.67416,81,86,0
252.67833,252.77417,83,87,0
252.77834,252.87418,81,89,0
252.87834,252.97417,90,90,0
252.97833,253.07417,83,91,0
252.97833,253.07417,81,91,0
253.07834,253.17416,90,93,0
253.17833,253.27417,83,94,0
253.17833,253.27417,81,94,0
253.27834,253.37418,90,95,0
253.37834,253.47417,83,96,0
253.37834,253.47417,81,96,0
253.47833,253.57417,90,98,0
253.57834,253.67416,83,99,0
253.57834,253.67416,81,99,0
253.67833,253.77417,90,100,0
253.77834,253.87418,83,101,0
253.77834,253.87418,81,101,0
253.87834,253.97417,90,103,0
253.97833,254.07417,83,104,0
253.97833,254.07417,81,104,0
254.07834,254.17416,90,105,0
254.17833,254.27417,83,107,0
254.17833,254.27417,81,107,0
254.27834,254.37418,90,108,0
254.37834,254.47417,83,109,0
254.37834,254.47417,81,109,0
254.47833,255.67416,88,110,0
254.47833,255.67416,83,110,0
254.47833,255.67416,80,110,0
255.67833,255.77417,88,80,0
255.77834,255.87418,86,80,0
255.87834,255.97417,84,80,0
255.97833,256.07416,83,80,0
256.07834,256.17416,84,80,0
256.17834,256.27417,83,80,0
256.27835,256.37418,81,80,0
256.37833,256.47418,80,80,0
256.47833,256.57416,81,80,0
256.57834,256.67416,83,80,0
256.67834,256.77417,84,80,0
256.77835,256.87418,86,80,0
256.87833,256.97418,88,80,0
256.97833,257.07416,89,80,0
257.07834,257.17416,88,80,0
257.17834,257.27417,87,80,0
257.27835,257.37418,88,80,0
257.37833,257.47418,86,80,0
257.47833,257.57416,84,80,0
257.57834,257.67416,83,80,0
257.67834,257.77417,84,80,0
257.77835,257.87418,86,80,0
257.87833,257.97418,84,80,0
257.97833,258.07416,83,80,0
258.07834,258.17416,81,80,0
258.17834,258.27417,80,80,0
258.27835,258.37418,81,80,0
258.37833,258.47418,83,80,0
258.47833,258.87418,84,80,0
258.87833,259.07416,81,80,0
258.47833,259.27417,72,80,0
259.07834,259.27417,78,80,0
259.27835,259.67416,83,80,0
259.67834,259.87418,79,80,0
259.27835,260.07416,71,80,0
259.87833,260.07416,76,80,0
260.07834,260.47418,81,80,0
260.47833,260.67416,78,80,0
260.07834,260.87418,69,80,0
260.67834,260.87418,75,80,0
260.87833,262.07416,76,100,0
262.07834,262.17416,76,80,0
262.17834,262.27417,74,80,0
262.27835,262.37418,72,80,0
262.37833,262.47418,71,80,0
262.47833,262.57416,72,80,0
262.57834,262.67416,71,80,0
262.67834,262.77417,69,80,0
262.77835,262.87418,68,80,0
262.87833,262.97418,69,80,0
262.97833,263.07416,71,80,0
263.07834,263.17416,72,80,0
263.17834,263.27417,74,80,0
263.27835,263.37418,76,80,0
263.37833,263.47418,77,80,0
263.47833,263.57416,76,80,0
263.57834,263.67416,75,80,0
263.67834,263.77417,76,80,0
263.77835,263.87418,74,80,0
263.87833,263.97418,72,80,0
263.97833,264.07416,71,80,0
264.07834,264.17416,72,80,0
264.17834,264.27417,74,80,0
264.27835,264.37418,72,80,0
264.37833,264.47418,71,80,0
264.47833,264.57416,69,80,0
264.57834,264.67416,68,80,0
264.67834,264.77417,69,80,0
264.77835,264.87418,71,80,0
264.87833,265.27417,72,80,0
265.27835,265.47418,69,80,0
264.87833,265.67416,60,80,0
265.47833,265.67416,66,80,0
265.67834,266.07416,71,80,0
266.07834,266.27417,67,80,0
265.67834,266.47418,59,80,0
266.27835,266.47418,64,80,0
266.47833,266.87418,69,80,0
266.87833,267.07416,66,80,0
266.47833,267.27417,57,80,0
267.07834,267.27417,63,80,0
267.27835,267.67416,64,80,0
267.67834,267.87418,76,80,0
267.87833,268.07416,74,80,0
268.07834,268.47418,72,80,0
268.47833,268.67416,69,80,0
268.67834,268.87418,65,80,0
268.87833,269.27417,71,80,0
269.27835,269.47418,67,80,0
269.47833,269.67416,64,80,0
269.67834,270.07416,69,80,0
270.07834,270.27417,66,80,0
270.27835,270.47418,63,80,0
270.47833,270.87418,64,80,0
270.87833,271.07416,72,80,0
271.07834,271.27417,71,80,0
271.27835,271.67416,69,80,0
271.67834,271.87418,65,80,0
271.87833,272.07416,62,80,0
272.07834,272.47418,67,80,0
272.47833,272.67416,64,80,0
272.67834,272.87418,60,80,0
272.87833,273.27417,65,80,0
273.27835,273.47418,62,80,0
273.47833,273.67416,59,80,0
273.67834,274.07416,60,80,0
274.07834,274.27417,77,80,0
274.27835,274.47418,76,80,0
274.47833,274.87418,74,80,0
274.87833,275.07416,70,80,0
275.07834,275.27417,67,80,0
275.27835,275.67416,72,80,0
275.67834,275.87418,69,80,0
275.87833,276.07416,65,80,0
276.07834,276.47418,70,80,0
276.47833,276.67416,67,80,0
276.67834,276.87418,64,80,0
276.87833,277.27417,65,80,0
277.27835,277.47418,65,80,0
277.47833,277.67416,64,80,0
277.67834,278.07416,62,80,0
278.07834,278.27417,58,80,0
278.27835,278.47418,55,80,0
278.47833,278.87418,60,80,0
278.87833,279.07416,57,80,0
279.07834,279.27417,53,80,0
279.27835,279.67416,58,80,0
279.67834,279.87418,55,80,0
279.87833,280.07416,52,80,0
280.07834,280.27417,45,80,0
280.07834,280.27417,53,80,0
280.27835,280.47418,45,80,0
280.27835,280.47418,41,80,0
280.47833,280.67416,45,80,0
280.47833,280.67416,41,80,0
280.67834,280.87418,45,80,0
280.67834,280.87418,41,80,0
280.87833,281.07416,45,80,0
280.87833,281.07416,41,80,0
281.07834,281.27417,45,80,0
281.07834,281.27417,41,80,0
281.27835,281.47418,45,80,0
281.27835,281.47418,41,80,0
281.47833,281.67416,45,80,0
281.47833,281.67416,41,80,0
281.67834,281.87418,45,80,0
281.67834,281.87418,41,80,0
281.87833,282.07416,45,80,0
281.87833,282.07416,41,80,0
282.07834,282.27417,45,80,0
282.07834,282.27417,41,80,0
282.27835,282.47418,45,80,0
282.27835,282.47418,41,80,0
282.47833,282.67416,45,80,0
282.47833,282.67416,41,80,0
282.67834,282.87418,45,80,0
282.67834,282.87418,41,80,0
282.87833,283.07416,47,80,0
282.87833,283.07416,43,80,0
283.07834,283.27417,47,80,0
283.07834,283.27417,43,80,0
283.27835,283.87418,48,80,0
283.87833,283.97418,52,80,0
283.97833,284.07416,50,80,0
284.07834,284.27417,48,80,0
284.87833,284.92416,78,80,0
284.92834,285.37418,79,80,0
285.37833,285.47418,77,80,0
285.47833,285.57416,75,80,0
285.57834,285.67416,74,80,0
285.67834,286.07416,72,80,0
286.47833,287.07416,54,80,0
287.07834,287.17416,57,80,0
287.17834,287.27417,55,80,0
287.27835,287.47418,54,80,0
288.07834,288.12418,86,80,0
288.12833,288.57416,87,80,0
288.57834,288.67416,86,80,0
288.67834,288.77417,84,80,0
288.77835,288.87418,82,80,0
288.87833,289.27417,81,80,0
289.67834,289.87418,58,80,0
289.87833,289.97418,62,80,0
289.97833,290.07416,60,80,0
290.07834,290.47418,58,80,0
290.47833,290.57416,84,80,0
290.57834,290.67416,82,80,0
290.67834,290.77417,81,80,0
290.77835,290.87418,79,80,0
290.87833,291.27417,78,80,0
291.27835,291.47418,67,80,0
291.47833,291.57416,70,80,0
291.57834,291.67416,69,80,0
291.67834,292.07416,67,80,0
292.07834,292.17416,87,80,0
292.17834,292.27417,86,80,0
292.27835,292.37418,84,80,0
292.37833,292.47418,82,80,0
292.47833,292.87418,81,80,0
292.87833,293.07416,58,80,0
293.07834,293.17416,62,82,0
293.17834,293.27417,60,84,0
293.27835,293.67416,58,85,0
293.67834,293.77417,84,90,0
293.77835,293.87418,82,92,0
293.87833,293.97418,81,93,0
293.97833,294.07416,79,94,0
294.07834,294.47418,78,96,0
294.47833,294.57416,74,101,0
294.57834,294.67416,72,102,0
294.67834,294.77417,70,104,0
294.77835,294.87418,69,105,0
294.87833,295.27417,67,106,0
295.27835,295.37418,80,110,0
295.37833,295.47418,79,110,0
295.47833,295.57416,77,110,0
295.57834,295.67416,75,110,0
295.67834,296.07416,74,110,0
296.07834,296.27417,63,80,0
296.27835,296.37418,67,80,0
296.37833,296.47418,65,80,0
296.47833,296.87418,63,80,0
296.87833,296.97418,77,80,0
296.97833,297.07416,75,80,0
297.07834,297.17416,74,80,0
297.17834,297.27417,72,80,0
297.27835,297.67416,71,80,0
297.67834,297.87418,60,80,0
297.87833,297.97418,63,80,0
297.97833,298.07416,62,80,0
298.07834,298.47418,60,80,0
298.47833,298.57416,80,80,0
298.57834,298.67416,79,80,0
298.67834,298.77417,77,80,0
298.77835,298.87418,75,80,0
298.87833,299.27417,74,80,0
299.27835,299.47418,63,80,0
299.47833,299.57416,67,82,0
299.57834,299.67416,65,84,0
299.67834,300.07416,63,85,0
300.07834,300.17416,77,90,0
300.17834,300.27417,75,92,0
300.27835,300.37418,74,93,0
300.37833,300.47418,72,94,0
300.47833,300.87418,71,96,0
300.87833,300.97418,79,101,0
300.97833,301.07416,77,102,0
301.07834,301.17416,75,104,0
301.17834,301.27417,74,105,0
301.27835,301.67416,72,106,0
301.67834,301.77417,85,110,0
301.77835,301.87418,84,110,0
301.87833,301.97418,82,110,0
301.97833,302.07416,80,110,0
302.07834,302.47418,79,110,0
302.47833,302.67416,80,70,0
302.67834,302.77417,84,70,0
302.77835,302.87418,82,70,0
302.87833,303.27417,80,70,0
303.27835,303.47418,85,70,0
303.47833,303.57416,89,70,0
303.57834,303.67416,87,70,0
303.67834,304.07416,85,70,0
304.07834,304.27417,66,70,0
304.27835,304.37418,70,70,0
304.37833,304.47418,68,70,0
304.47833,304.87418,66,70,0
304.87833,305.67416,71,70,0
305.67834,305.87418,77,70,0
305.87833,305.97418,81,70,0
305.97833,306.07416,79,70,0
306.07834,306.47418,77,70,0
306.47833,306.67416,82,70,0
306.67834,306.77417,85,70,0
306.77835,306.87418,84,70,0
306.87833,307.27417,82,70,0
307.27835,307.47418,63,70,0
307.47833,307.57416,67,70,0
307.57834,307.67416,65,70,0
307.67834,308.07416,63,70,0
308.07834,308.87418,68,70,0
308.87833,309.07416,73,70,0
309.07834,309.17416,77,70,0
309.17834,309.27417,75,70,0
309.27835,309.67416,73,70,0
309.67834,309.87418,78,70,0
309.87833,309.97418,82,70,0
309.97833,310.07416,80,70,0
310.07834,310.47418,78,70,0
310.47833,310.67416,60,70,0
310.67834,310.77417,64,70,0
310.77835,310.87418,62,70,0
310.87833,311.27417,60,70,0
311.27835,312.07416,72,70,0
312.07834,312.27417,72,75,0
312.27835,312.37418,76,77,0
312.37833,312.47418,74,78,0
312.47833,312.87418,72,79,0
312.87833,313.67416,84,84,0
313.67834,313.87418,84,93,0
313.87833,313.97418,88,95,0
313.97833,314.07416,86,96,0
314.07834,314.27417,84,97,0
314.27835,314.47418,84,99,0
314.47833,314.69592,84,105,0
314.70056,314.91815,84,109,0
314.9228,315.14038,89,113,0
315.145,315.36258,83,117,0
315.36722,315.76306,84,121,0
315.7672,316.56305,67,110,0
316.56723,316.96304,67,110,0
316.96722,317.0964,72,110,0
317.10056,317.22974,67,110,0
317.2339,317.36307,64,110,0
317.36722,317.4964,67,110,0
317.50055,317.62973,72,110,0
317.63388,317.76306,76,110,0
317.7672,317.8964,74,110,0
317.90054,318.02972,71,110,0
318.0339,318.16306,68,110,0
318.16724,318.2964,71,110,0
318.30057,318.42972,74,110,0
318.4339,318.56305,77,110,0
318.56723,318.69638,76,110,0
318.70056,318.8297,73,110,0
318.8339,318.96304,70,110,0
318.96722,319.0964,73,110,0
319.10056,319.22974,76,110,0
319.2339,319.36307,79,110,0
319.36722,319.4964,82,110,0
319.50055,319.62973,76,110,0
319.63388,319.76306,85,110,0
319.7672,319.8964,76,110,0
319.90054,320.02972,73,110,0
320.0339,320.16306,82,110,0
320.16724,320.2964,73,110,0
320.30057,320.42972,70,110,0
320.4339,320.56305,76,110,0
320.56723,320.69638,70,110,0
320.70056,320.8297,64,110,0
320.8339,320.96304,73,110,0
320.96722,321.0964,70,110,0
321.10056,321.22974,64,110,0
321.2339,321.36307,72,110,0
321.36722,321.4964,70,110,0
321.50055,321.62973,64,110,0
321.63388,321.76306,72,110,0
321.7672,322.16306,72,110,0
321.7672,322.16306,69,110,0
321.7672,322.16306,65,110,0
322.16724,322.96304,72,110,0
322.96722,323.36307,72,110,0
323.36722,323.4964,77,110,0
323.50055,323.62973,72,110,0
323.63388,323.76306,69,110,0
323.7672,323.8964,72,110,0
323.90054,324.02972,77,110,0
324.0339,324.16306,81,110,0
324.16724,324.2964,79,110,0
324.30057,324.42972,76,110,0
324.4339,324.56305,73,110,0
324.56723,324.69638,76,110,0
324.70056,324.8297,79,110,0
324.8339,324.96304,82,110,0
324.96722,325.0964,81,110,0
325.10056,325.22974,78,110,0
325.2339,325.36307,75,110,0
325.36722,325.4964,78,110,0
325.50055,325.62973,81,110,0
325.63388,325.76306,84,110,0
325.7672,325.8964,81,110,0
325.90054,326.02972,78,110,0
326.0339,326.16306,87,110,0
326.16724,326.2964,78,110,0
326.30057,326.42972,75,110,0
326.4339,326.56305,84,110,0
326.56723,326.69638,75,110,0
326.70056,326.8297,72,110,0
326.8339,326.96304,81,110,0
326.96722,327.0964,75,110,0
327.10056,327.22974,69,110,0
327.2339,327.36307,78,110,0
327.36722,327.4964,75,110,0
327.50055,327.62973,69,110,0
327.63388,327.76306,77,110,0
327.7672,327.8964,75,110,0
327.90054,328.02972,69,110,0
328.0339,328.16306,77,110,0
328.16724,328.56305,77,110,0
328.16724,328.56305,74,110,0
328.16724,328.56305,70,110,0
328.56723,329.36307,65,110,0
329.36722,329.76306,65,110,0
329.7672,329.8964,70,110,0
329.90054,330.02972,65,110,0
330.0339,330.16306,62,110,0
330.16724,330.2964,65,110,0
330.30057,330.42972,70,110,0
330.4339,330.56305,74,110,0
330.56723,330.69638,72,110,0
330.70056,330.8297,69,110,0
330.8339,330.96304,66,110,0
330.96722,331.0964,69,110,0
331.10056,331.22974,72,110,0
331.2339,331.36307,75,110,0
331.36722,331.4964,74,110,0
331.50055,331.62973,71,110,0
331.63388,331.76306,68,110,0
331.7672,331.8964,71,110,0
331.90054,332.02972,74,110,0
332.0339,332.16306,77,110,0
332.16724,332.2964,80,110,0
332.30057,332.42972,74,110,0
332.4339,332.56305,83,110,0
332.56723,332.69638,74,110,0
332.70056,332.8297,71,110,0
332.8339,332.96304,80,110,0
332.96722,333.0964,71,110,0
333.10056,333.22974,68,110,0
333.2339,333.36307,77,110,0
333.36722,333.4964,68,110,0
333.50055,333.62973,65,110,0
333.63388,333.76306,74,110,0
333.7672,333.8964,68,110,0
333.90054,334.02972,62,110,0
334.0339,334.16306,71,110,0
334.16724,334.2964,68,110,0
334.30057,334.42972,62,110,0
334.4339,334.56305,70,110,0
334.56723,334.69638,78,110,0
334.70056,334.8297,75,110,0
334.8339,334.96304,70,110,0
334.96722,335.0964,75,110,0
335.10056,335.22974,78,110,0
335.2339,335.36307,82,110,0
335.36722,335.4964,78,110,0
335.50055,335.62973,75,110,0
335.63388,335.76306,87,110,0
335.7672,335.8964,75,110,0
335.90054,336.02972,70,110,0
336.0339,336.16306,82,110,0
336.16724,336.2964,70,110,0
336.30057,336.42972,66,110,0
336.4339,336.56305,78,110,0
336.56723,336.69638,66,110,0
336.70056,336.8297,63,110,0
336.8339,336.96304,75,110,0
336.96722,337.0964,66,110,0
337.10056,337.22974,63,110,0
337.2339,337.36307,75,110,0
337.36722,337.4964,66,110,0
337.50055,337.62973,63,110,0
337.63388,337.76306,75,110,0
337.7672,337.8964,78,110,0
337.90054,338.02972,76,110,0
338.0339,338.16306,73,110,0
338.16724,338.2964,76,110,0
338.30057,338.42972,78,110,0
338.4339,338.56305,85,110,0
338.56723,338.69638,78,110,0
338.70056,338.8297,76,110,0
338.8339,338.96304,88,110,0
338.96722,339.0964,76,110,0
339.10056,339.22974,73,110,0
339.2339,339.36307,85,110,0
339.36722,339.4964,73,110,0
339.50055,339.62973,66,110,0
339.63388,339.76306,78,110,0
339.7672,339.8964,66,110,0
339.90054,340.02972,64,110,0
340.0339,340.16306,76,110,0
340.16724,340.2964,66,110,0
340.30057,340.42972,64,110,0
340.4339,340.56305,76,110,0
340.56723,340.69638,66,110,0
340.70056,340.8297,64,110,0
340.8339,340.96304,76,110,0
340.96722,341.0964,78,110,0
341.10056,341.22974,74,110,0
341.2339,341.36307,71,110,0
341.36722,341.4964,74,110,0
341.50055,341.62973,78,110,0
341.63388,341.76306,83,110,0
341.7672,341.8964,78,110,0
341.90054,342.02972,74,110,0
342.0339,342.16306,86,110,0
342.16724,342.2964,74,110,0
342.30057,342.42972,71,110,0
342.4339,342.56305,83,110,0
342.56723,342.69638,71,110,0
342.70056,342.8297,66,110,0
342.8339,342.96304,78,110,0
342.96722,343.0964,66,110,0
343.10056,343.22974,62,110,0
343.2339,343.36307,74,110,0
343.36722,343.4964,66,110,0
343.50055,343.62973,62,110,0
343.63388,343.76306,74,110,0
343.7672,343.8964,66,110,0
343.90054,344.02972,62,110,0
344.0339,344.16306,74,110,0
344.16724,344.2964,79,110,0
344.30057,344.42972,74,110,0
344.4339,344.56305,71,110,0
344.56723,344.69638,74,110,0
344.70056,344.8297,79,110,0
344.8339,344.96304,83,110,0
344.96722,345.0964,79,110,0
345.10056,345.22974,74,110,0
345.2339,345.36307,86,110,0
345.36722,345.4964,74,110,0
345.50055,345.62973,71,110,0
345.63388,345.76306,83,110,0
345.7672,345.8964,71,110,0
345.90054,346.02972,67,110,0
346.0339,346.16306,79,110,0
346.16724,346.2964,67,110,0
346.30057,346.42972,65,110,0
346.4339,346.56305,77,110,0
346.56723,346.69638,67,110,0
346.70056,346.8297,62,110,0
346.8339,346.96304,74,110,0
346.96722,347.0964,67,110,0
347.10056,347.22974,62,110,0
347.2339,347.36307,74,110,0
347.36722,347.4964,84,110,0
347.50055,347.62973,79,110,0
347.63388,347.76306,75,110,0
347.7672,347.8964,79,110,0
347.90054,348.02972,84,110,0
348.0339,348.16306,87,110,0
348.16724,348.2964,79,110,0
348.30057,348.42972,75,110,0
348.4339,348.56305,87,110,0
348.56723,348.69638,75,110,0
348.70056,348.8297,72,110,0
348.8339,348.96304,84,110,0
348.96722,349.0964,72,110,0
349.10056,349.22974,67,110,0
349.2339,349.36307,79,110,0
349.36722,349.4964,67,110,0
349.50055,349.62973,63,110,0
349.63388,349.76306,75,110,0
349.7672,349.8964,67,110,0
349.90054,350.02972,63,110,0
350.0339,350.16306,75,110,0
350.16724,350.2964,67,110,0
350.30057,350.42972,63,110,0
350.4339,350.56305,75,110,0
350.56723,350.69638,77,110,0
350.70056,350.8297,73,110,0
350.8339,350.96304,68,110,0
350.96722,351.0964,73,110,0
351.10056,351.22974,77,110,0
351.2339,351.36307,80,110,0
351.36722,351.4964,77,110,0
351.50055,351.62973,73,110,0
351.63388,351.76306,68,110,0
351.7672,351.8964,77,110,0
351.90054,352.02972,73,110,0
352.0339,352.16306,68,110,0
352.16724,352.2964,75,110,0
352.30057,352.42972,72,110,0
352.4339,352.56305,69,110,0
352.56723,352.69638,72,110,0
352.70056,352.8297,75,110,0
352.8339,352.96304,81,110,0
352.96722,353.0964,75,110,0
353.10056,353.22974,72,110,0
353.2339,353.36307,69,110,0
353.36722,353.4964,75,110,0
353.50055,353.62973,72,110,0
353.63388,353.76306,69,110,0
354.16724,354.2964,71,110,0
354.30057,354.42972,74,110,0
354.4339,354.56305,79,110,0
354.56723,354.69638,74,110,0
354.70056,354.8297,71,110,0
354.8339,354.96304,67,110,0
354.96722,355.0964,77,80,0
355.10056,355.22974,74,80,0
355.2339,355.36307,67,80,0
355.36722,355.4964,77,80,0
355.50055,355.62973,74,80,0
355.63388,355.76306,67,80,0
355.7672,355.8964,75,80,0
355.90054,356.02972,74,80,0
356.0339,356.16306,67,80,0
356.16724,356.2964,75,80,0
356.30057,356.42972,72,80,0
356.4339,356.56305,67,80,0
356.56723,356.69638,74,80,0
356.70056,356.8297,72,80,0
356.8339,356.96304,69,80,0
357.36722,357.4964,59,110,0
357.50055,357.62973,62,110,0
357.63388,357.76306,67,110,0
357.7672,357.8964,62,110,0
357.90054,358.02972,59,110,0
358.0339,358.16306,55,110,0
358.16724,358.2964,65,80,0
358.30057,358.42972,59,80,0
358.4339,358.56305,55,80,0
358.56723,358.69638,65,80,0
358.70056,358.8297,62,80,0
358.8339,358.96304,55,80,0
358.96722,359.0964,63,80,0
359.10056,359.22974,62,80,0
359.2339,359.36307,55,80,0
359.36722,359.4964,63,80,0
359.50055,359.62973,60,80,0
359.63388,359.76306,55,80,0
359.7672,359.8964,62,80,0
359.90054,360.02972,60,80,0
360.0339,360.16306,57,80,0
360.16724,360.2964,62,80,0
360.30057,360.42972,59,80,0
360.4339,360.56305,55,80,0
360.56723,360.69638,60,80,0
360.70056,360.8297,55,80,0
360.8339,360.96304,51,80,0
360.96722,361.0964,59,79,0
361.10056,361.22974,55,79,0
361.2339,361.36307,50,78,0
361.36722,361.4964,57,78,0
361.50055,361.62973,51,77,0
361.63388,361.76306,48,77,0
361.7672,361.8964,55,76,0
361.90054,362.02972,50,76,0
362.0339,362.16306,47,75,0
362.16724,362.2964,54,75,0
362.30057,362.42972,51,74,0
362.4339,362.56305,45,74,0
362.56723,362.69638,55,73,0
362.70056,362.8297,50,73,0
362.8339,362.96304,47,72,0
362.96722,363.0964,54,72,0
363.10056,363.22974,51,71,0
363.2339,363.36307,45,71,0
363.36722,365.06305,47,70,0
363.36722,365.06305,50,70,0
363.36722,365.06305,55,70,0
365.06723,365.16306,50,70,0
365.16724,365.26306,52,70,0
365.2672,365.36307,54,70,0
365.36722,365.46304,55,70,0
365.46722,365.56305,50,70,0
365.56723,365.66306,52,70,0
365.66724,365.76306,54,70,0
365.7672,365.86307,55,70,0
365.86722,365.96304,50,70,0
365.96722,366.06305,52,70,0
366.06723,366.16306,54,70,0
366.16724,366.26306,55,70,0
366.2672,366.36307,50,70,0
366.36722,366.46304,52,70,0
366.46722,366.56305,54,70,0
366.56723,368.26306,55,70,0
368.2672,368.36307,54,70,0
368.36722,368.46304,55,70,0
368.46722,368.56305,57,70,0
368.56723,368.66306,59,70,0
368.66724,368.76306,54,70,0
368.7672,368.86307,55,70,0
368.86722,368.96304,57,70,0
368.96722,369.06305,59,70,0
369.06723,369.16306,54,70,0
369.16724,369.26306,55,70,0
369.2672,369.36307,57,70,0
369.36722,369.46304,59,70,0
369.46722,369.56305,54,70,0
369.56723,369.66306,55,70,0
369.66724,369.76306,57,70,0
369.7672,369.96304,59,70,0
370.36722,370.46304,59,72,0
370.46722,370.56305,60,73,0
370.56723,370.76306,62,73,0
371.16724,371.22974,62,76,0
371.2339,371.2964,64,76,0
371.30057,371.36307,66,76,0
371.36722,371.56305,67,76,0
371.96722,372.06305,67,79,0
372.06723,372.16306,69,79,0
372.16724,372.36307,71,80,0
372.36722,372.46304,71,81,0
372.46722,372.56305,72,81,0
372.56723,372.76306,74,82,0
372.7672,372.8297,74,82,0
372.8339,372.8964,76,83,0
372.90054,372.96304,78,83,0
372.96722,373.16306,79,83,0
373.56723,373.62973,62,86,0
373.63388,373.69638,64,86,0
373.70056,373.76306,66,86,0
373.7672,373.96304,67,87,0
374.36722,374.46304,67,89,0
374.46722,374.56305,69,90,0
374.56723,374.76306,71,90,0
375.16724,375.26306,71,93,0
375.2672,375.36307,72,93,0
375.36722,375.56305,74,94,0
375.56723,375.62973,74,95,0
375.63388,375.69638,76,95,0
375.70056,375.76306,78,95,0
375.7672,375.96304,79,95,0
375.96722,376.06305,79,96,0
376.06723,376.16306,81,97,0
376.16724,376.36307,83,97,0
376.7672,376.8297,74,100,0
376.8339,376.8964,76,100,0
376.90054,376.96304,78,100,0
376.96722,377.36307,79,101,0
377.56723,377.66306,79,103,0
377.66724,377.76306,81,104,0
377.7672,378.16306,83,104,0
378.36722,378.46304,79,107,0
378.46722,378.56305,81,107,0
378.56723,378.76306,83,107,0
378.7672,378.86307,83,108,0
378.86722,378.96304,84,109,0
378.96722,379.16306,86,109,0
379.16724,379.26306,86,110,0
379.2672,379.36307,88,110,0
379.36722,379.76306,89,110,0
379.96722,380.06305,86,110,0
380.06723,380.16306,88,110,0
380.16724,380.56305,89,110,0
380.7672,380.86307,86,110,0
380.86722,380.96304,88,110,0
380.96722,381.16306,89,110,0
381.16724,381.26306,86,110,0
381.2672,381.36307,88,110,0
381.36722,381.56305,89,110,0
381.56723,381.66306,86,110,0
381.66724,381.76306,88,110,0
381.7672,381.96304,89,110,0
381.96722,382.06305,86,110,0
382.06723,382.16306,88,110,0
382.16724,382.36307,89,110,0
382.36722,382.46304,86,110,0
382.46722,382.56305,88,110,0
382.56723,382.66306,89,122,0
382.66724,382.76306,88,110,0
382.7672,382.86307,86,110,0
382.86722,382.96304,84,110,0
382.96722,383.06305,83,110,0
383.06723,383.16306,84,110,0
383.16724,383.26306,86,110,0
383.2672,383.36307,88,110,0
383.36722,383.46304,89,124,0
383.46722,383.56305,88,110,0
383.56723,383.66306,86,110,0
383.66724,383.76306,84,110,0
383.7672,383.8699,83,110,0
383.87436,383.97705,84,110,0
383.9815,384.0842,86,110,0
384.08865,384.19135,88,110,0
384.1958,384.4056,89,120,0
384.4101,384.50592,88,120,0
384.51007,384.60593,86,120,0
384.61008,384.7059,84,120,0
384.71008,384.8059,83,120,0
384.8101,384.9059,81,120,0
384.9101,385.00592,79,120,0
385.01007,385.10593,77,120,0
385.11008,385.2059,76,120,0
385.21008,385.3059,74,120,0
385.3101,385.4059,72,120,0
385.4101,385.50592,71,120,0
385.51007,385.60593,69,120,0
385.61008,385.7059,67,120,0
385.71008,385.8059,65,120,0
385.8101,386.00592,64,120,0
386.01007,386.2059,52,80,0
386.01007,386.2059,48,80,0
386.21008,386.4059,52,80,0
386.21008,386.4059,48,80,0
386.4101,386.60593,52,80,0
386.4101,386.60593,48,80,0
386.61008,386.8059,52,80,0
386.61008,386.8059,48,80,0
386.8101,387.00592,52,80,0
386.8101,387.00592,48,80,0
387.01007,387.2059,52,80,0
387.01007,387.2059,48,80,0
387.21008,387.4059,52,80,0
387.21008,387.4059,48,80,0
387.4101,387.60593,52,80,0
387.4101,387.60593,48,80,0
387.61008,387.8059,52,80,0
387.61008,387.8059,48,80,0
387.8101,388.00592,52,80,0
387.8101,388.00592,48,80,0
388.01007,388.2059,52,80,0
388.01007,388.2059,48,80,0
388.21008,388.4059,52,80,0
388.21008,388.4059,48,80,0
388.4101,388.60593,52,80,0
388.4101,388.60593,48,80,0
388.61008,388.8059,54,80,0
388.61008,388.8059,50,80,0
388.8101,389.00592,54,80,0
388.8101,389.00592,50,80,0
389.01007,389.60593,55,80,0
389.01007,389.60593,50,80,0
389.61008,389.7059,59,80,0
389.71008,389.8059,57,80,0
389.8101,390.00592,55,80,0
390.61008,390.7059,85,80,0
390.71008,391.10593,86,80,0
391.11008,391.2059,84,80,0
391.21008,391.3059,83,80,0
391.3101,391.4059,81,80,0
391.4101,391.8059,79,80,0
392.21008,392.4059,50,80,0
392.21008,392.4059,46,80,0
392.4101,392.60593,50,80,0
392.4101,392.60593,46,80,0
392.61008,392.8059,50,80,0
392.61008,392.8059,46,80,0
392.8101,393.00592,50,80,0
392.8101,393.00592,46,80,0
393.01007,393.2059,50,80,0
393.01007,393.2059,46,80,0
393.21008,393.4059,50,80,0
393.21008,393.4059,46,80,0
393.4101,393.60593,50,80,0
393.4101,393.60593,46,80,0
393.61008,393.8059,50,80,0
393.61008,393.8059,46,80,0
393.8101,394.00592,50,80,0
393.8101,394.00592,46,80,0
394.01007,394.2059,50,80,0
394.01007,394.2059,46,80,0
394.21008,394.4059,50,80,0
394.21008,394.4059,46,80,0
394.4101,394.60593,50,80,0
394.4101,394.60593,46,80,0
394.61008,394.8059,50,80,0
394.61008,394.8059,46,80,0
394.8101,395.00592,50,80,0
394.8101,395.00592,46,80,0
395.01007,395.2059,52,80,0
395.01007,395.2059,48,80,0
395.21008,395.4059,52,80,0
395.21008,395.4059,48,80,0
395.4101,396.00592,53,80,0
395.4101,396.00592,48,80,0
396.01007,396.10593,57,80,0
396.11008,396.2059,55,80,0
396.21008,396.4059,53,80,0
397.01007,397.10593,83,80,0
397.11008,397.50592,84,80,0
397.51007,397.60593,82,80,0
397.61008,397.7059,80,80,0
397.71008,397.8059,79,80,0
397.8101,398.2059,77,80,0
398.61008,398.7059,88,80,0
398.71008,399.8059,89,80,0
399.8101,399.9059,89,91,0
399.9101,400.00592,87,92,0
400.01007,400.10593,86,93,0
400.11008,400.2059,84,94,0
400.21008,400.3059,83,95,0
400.3101,400.4059,84,96,0
400.4101,400.50592,86,97,0
400.51007,400.60593,87,98,0
400.61008,400.7059,89,99,0
400.71008,400.8059,87,100,0
400.8101,400.9059,86,101,0
400.9101,401.00592,84,102,0
401.01007,401.10593,83,103,0
401.11008,401.2059,84,104,0
401.21008,401.3059,86,105,0
401.3101,401.4059,87,106,0
401.4101,401.50592,89,107,0
401.51007,401.60593,87,108,0
401.61008,401.7059,86,109,0
401.71008,401.8059,84,110,0
401.8101,401.9059,83,110,0
401.9101,402.00592,84,110,0
402.01007,402.10593,86,110,0
402.11008,402.2059,87,110,0
402.21008,402.3059,89,110,0
402.3101,402.4059,87,110,0
402.4101,402.50592,86,110,0
402.51007,402.60593,84,110,0
402.61008,402.7059,83,110,0
402.71008,402.8059,80,110,0
402.8101,402.9059,79,110,0
402.9101,403.00592,77,110,0
403.01007,403.10593,75,110,0
403.11008,403.2059,74,110,0
403.21008,403.3059,72,110,0
403.3101,403.4059,71,110,0
403.4101,403.60593,72,110,0
403.8101,404.00592,67,100,0
404.21008,404.45486,63,94,0
404.71008,405.00385,60,87,0
405.3101,407.70383,56,81,0
407.71008,407.91266,73,80,0
408.12387,408.32645,68,80,0
408.53766,408.78247,65,80,0
409.03766,409.36404,61,80,0
409.70435,412.36404,58,80,0
412.471,412.56683,67,70,0
412.57098,412.66684,70,70,0
412.671,412.7668,75,70,0
412.871,412.96683,67,70,0
412.971,413.06683,70,70,0
413.07098,413.16684,75,70,0
413.271,413.36682,67,70,0
413.371,413.46683,70,70,0
413.471,413.56683,75,70,0
413.671,413.7668,67,70,0
413.771,413.86682,70,70,0
413.871,413.96683,75,70,0
414.07098,414.16684,65,70,0
414.171,414.2668,68,70,0
414.271,414.36682,75,70,0
414.471,414.56683,65,70,0
414.57098,414.66684,71,70,0
414.671,414.7668,74,70,0
414.871,414.96683,63,70,0
414.971,415.06683,66,70,0
415.07098,415.16684,74,70,0
415.271,415.36682,63,70,0
415.371,415.46683,69,70,0
415.471,415.56683,72,70,0
415.671,415.7668,62,70,0
415.771,415.86682,67,70,0
415.871,415.96683,72,70,0
416.07098,416.16684,62,70,0
416.171,416.2668,67,70,0
416.271,416.36682,72,70,0
416.471,416.56683,62,70,0
416.57098,416.66684,67,70,0
416.671,416.7668,71,70,0
416.871,416.96683,62,70,0
416.971,417.06683,65,70,0
417.07098,417.16684,71,70,0
417.171,417.36682,72,100,0
417.171,417.36682,64,100,0
417.371,417.46683,64,80,0
417.471,417.56683,60,80,0
417.57098,417.66684,64,80,0
417.671,417.7668,60,80,0
417.771,417.86682,64,80,0
417.871,417.96683,60,80,0
417.971,418.06683,64,80,0
418.07098,418.16684,60,80,0
418.171,418.2668,64,80,0
418.271,418.36682,60,80,0
418.371,418.46683,64,80,0
418.471,418.56683,60,80,0
418.57098,418.66684,64,80,0
418.671,418.7668,60,80,0
418.771,418.86682,64,80,0
418.871,418.96683,60,80,0
418.971,419.06683,64,80,0
419.07098,419.16684,60,80,0
419.171,419.2668,64,80,0
419.271,419.36682,60,80,0
419.371,419.46683,64,80,0
419.471,419.56683,60,80,0
419.57098,419.66684,64,80,0
419.671,419.7668,60,80,0
419.771,419.86682,64,80,0
419.871,419.96683,60,80,0
419.971,420.06683,66,80,0
420.07098,420.16684,62,80,0
420.171,420.2668,66,80,0
420.271,420.36682,62,80,0
420.371,420.96683,67,80,0
420.971,421.06683,71,80,0
421.07098,421.16684,69,80,0
421.171,421.36682,67,80,0
421.971,422.06683,85,80,0
422.07098,422.46683,86,80,0
422.471,422.56683,84,80,0
422.57098,422.66684,83,80,0
422.671,422.7668,81,80,0
422.771,423.16684,79,80,0
423.57098,423.66684,65,80,0
423.671,423.7668,62,80,0
423.771,423.86682,65,80,0
423.871,423.96683,62,80,0
423.971,424.06683,65,80,0
424.07098,424.16684,62,80,0
424.171,424.2668,65,80,0
424.271,424.36682,62,80,0
424.371,424.46683,65,80,0
424.471,424.56683,62,80,0
424.57098,424.66684,65,80,0
424.671,424.7668,62,80,0
424.771,424.86682,65,80,0
424.871,424.96683,62,80,0
424.971,425.06683,65,80,0
425.07098,425.16684,62,80,0
425.171,425.2668,65,80,0
425.271,425.36682,62,80,0
425.371,425.46683,65,80,0
425.471,425.56683,62,80,0
425.57098,425.66684,65,80,0
425.671,425.7668,62,80,0
425.771,425.86682,65,80,0
425.871,425.96683,62,80,0
425.971,426.06683,65,80,0
426.07098,426.16684,62,80,0
426.171,426.2668,65,80,0
426.271,426.36682,62,80,0
426.371,426.46683,68,80,0
426.471,426.56683,64,80,0
426.57098,426.66684,68,80,0
426.671,426.7668,64,80,0
426.771,427.36682,69,80,0
427.371,427.46683,72,80,0
427.471,427.56683,71,80,0
427.57098,427.7668,69,80,0
428.371,428.46683,87,80,0
428.471,428.86682,88,80,0
428.871,428.96683,86,80,0
428.971,429.06683,84,80,0
429.07098,429.16684,83,80,0
429.171,429.56683,81,80,0
429.971,430.0168,83,80,0
430.021,430.46683,84,80,0
430.471,430.56683,83,84,0
430.57098,430.66684,81,85,0
430.671,430.7668,80,85,0
430.771,431.16684,81,86,0
431.57098,431.61682,83,93,0
431.621,432.06683,84,93,0
432.07098,432.16684,83,97,0
432.171,432.2668,81,98,0
432.271,432.36682,80,99,0
432.371,432.46683,81,100,0
432.471,432.56683,80,100,0
432.57098,432.66684,81,101,0
432.671,432.7668,83,102,0
432.771,432.86682,84,103,0
432.871,432.96683,85,104,0
432.971,433.06683,86,105,0
433.07098,433.16684,87,105,0
433.171,433.66684,88,80,0
433.671,433.7668,86,80,0
433.771,433.86682,84,80,0
433.871,433.96683,83,80,0
433.971,434.06683,84,80,0
434.07098,434.16684,83,80,0
434.171,434.2668,81,80,0
434.271,434.36682,80,80,0
434.371,434.46683,81,80,0
434.471,434.56683,84,80,0
434.57098,434.66684,83,80,0
434.671,434.7668,81,80,0
434.771,434.86682,80,80,0
434.871,434.96683,78,80,0
434.971,435.06683,76,80,0
435.07098,435.16684,75,80,0
435.171,435.2668,76,80,0
435.271,435.36682,78,80,0
435.371,435.46683,79,80,0
435.471,435.56683,80,80,0
435.57098,435.66684,81,80,0
435.671,435.7668,80,80,0
435.771,435.86682,81,80,0
435.871,435.96683,83,80,0
435.971,436.06683,84,80,0
436.07098,436.16684,85,80,0
436.171,436.2668,86,80,0
436.271,436.36682,87,80,0
436.371,436.46683,88,80,0
436.471,436.56683,87,80,0
436.57098,436.66684,88,80,0
436.671,436.7668,87,80,0
436.771,436.86682,88,80,0
436.871,436.96683,86,80,0
436.971,437.06683,84,80,0
437.07098,437.16684,83,80,0
437.171,437.2668,84,80,0
437.271,437.36682,83,80,0
437.371,437.46683,81,80,0
437.471,437.56683,80,80,0
437.57098,437.66684,81,80,0
437.671,437.7668,84,80,0
437.771,437.86682,83,80,0
437.871,437.96683,81,80,0
437.971,438.06683,80,80,0
438.07098,438.16684,78,80,0
438.171,438.2668,76,80,0
438.271,438.36682,75,80,0
438.371,438.46683,76,80,0
438.471,438.56683,78,80,0
438.57098,438.66684,79,80,0
438.671,438.7668,80,80,0
438.771,438.86682,81,80,0
438.871,438.96683,80,80,0
438.971,439.06683,81,80,0
439.07098,439.16684,83,80,0
439.171,439.2668,84,80,0
439.271,439.36682,85,80,0
439.371,439.46683,86,80,0
439.471,439.56683,87,80,0
439.57098,439.66684,88,80,0
439.671,439.7668,83,81,0
439.771,439.86682,80,83,0
439.871,439.96683,76,84,0
439.971,440.06683,75,86,0
440.07098,440.16684,76,88,0
440.171,440.2668,81,89,0
440.271,440.36682,84,91,0
440.371,440.46683,88,93,0
440.471,440.56683,83,94,0
440.57098,440.66684,80,96,0
440.671,440.7668,76,97,0
440.771,440.86682,75,99,0
440.871,440.96683,76,101,0
440.971,441.06683,81,102,0
441.07098,441.16684,84,104,0
441.171,441.2668,88,123,0
441.271,441.36682,83,110,0
441.371,441.46683,80,110,0
441.471,441.56683,76,110,0
441.57098,441.66684,88,121,0
441.671,441.7668,84,110,0
441.771,441.86682,81,110,0
441.871,441.96683,76,110,0
441.971,442.06683,88,121,0
442.07098,442.16684,83,110,0
442.171,442.2668,80,110,0
442.271,442.36682,76,110,0
442.371,442.46683,88,120,0
442.471,442.56683,84,110,0
442.57098,442.66684,81,110,0
442.671,442.7668,76,110,0
442.771,442.86682,88,110,0
442.871,442.96683,83,110,0
442.971,443.06683,80,110,0
443.07098,443.16684,76,110,0
443.171,443.2668,83,110,0
443.271,443.36682,80,110,0
443.371,443.46683,76,110,0
443.471,443.56683,71,110,0
443.57098,443.66684,80,110,0
443.671,443.7668,76,110,0
443.771,443.86682,71,110,0
443.871,443.96683,68,110,0
443.971,444.06683,76,110,0
444.07098,444.16684,71,110,0
444.171,444.2668,68,110,0
444.271,444.36682,64,110,0
444.371,444.46683,71,110,0
444.471,444.56683,68,110,0
444.57098,444.66684,64,110,0
444.671,444.7668,59,110,0
444.771,444.86682,68,110,0
444.871,444.96683,64,110,0
444.971,445.06683,59,110,0
445.07098,445.16684,56,110,0
445.171,445.2668,64,110,0
445.271,445.36682,59,110,0
445.371,445.46683,56,110,0
445.471,445.56683,52,110,0
446.771,446.96683,76,103,0
446.971,447.16684,64,101,0
447.171,447.36682,78,99,0
447.371,447.56683,66,97,0
447.57098,447.7668,80,95,0
447.771,447.96683,68,93,0
448.371,448.56683,80,87,0
448.57098,448.7668,68,85,0
448.771,448.96683,81,83,0
448.971,449.16684,69,81,0
449.171,449.36682,83,80,0
449.371,449.56683,71,80,0
449.57098,449.7668,85,80,0
449.771,449.96683,73,80,0
449.971,450.16684,86,80,0
450.171,450.36682,74,80,0
450.371,450.56683,86,80,0
450.57098,450.7668,76,80,0
450.771,450.9808,86,80,0
450.9853,451.1951,78,80,0
451.19955,451.42554,86,80,0
451.43033,451.6563,80,80,0
451.6611,451.88705,86,80,0
451.89188,452.11783,81,80,0
452.12265,452.38968,86,80,0
452.3954,452.6624,83,80,0
452.6681,453.62833,85,80,0
452.6681,453.62833,81,80,0
452.6681,453.62833,76,80,0
452.6681,453.62833,73,80,0
453.63312,454.08987,83,80,0
453.63312,454.08987,80,80,0
453.63312,454.08987,76,80,0
453.63312,454.08987,71,80,0
454.09467,454.5514,81,80,0
454.09467,454.5514,78,80,0
454.09467,454.5514,73,80,0
454.09467,454.5514,69,80,0
454.5562,455.4745,80,80,0
454.5562,455.4745,77,80,0
454.5562,455.4745,71,80,0
454.5562,455.4745,68,80,0
455.47928,456.39755,78,80,0
455.47928,456.39755,74,80,0
455.47928,456.39755,69,80,0
455.47928,456.39755,66,80,0
456.40237,457.32062,80,80,0
456.40237,457.32062,76,80,0
456.40237,457.32062,74,80,0
456.40237,457.32062,68,80,0
457.32544,457.80045,81,93,0
457.32544,457.80045,76,93,0
457.32544,457.80045,69,93,0
457.80545,458.32175,83,99,0
457.80545,458.32175,71,99,0
457.80545,458.32175,78,99,0
457.80545,458.32175,81,99,0
458.32718,459.34747,85,110,0
458.32718,459.34747,81,110,0
458.32718,459.34747,73,110,0
458.32718,459.8435,76,110,0
459.3528,460.32367,83,91,0
459.3528,460.32367,80,91,0
459.3528,460.32367,71,91,0
459.8487,460.32367,74,81,0
460.32867,461.24695,72,80,0
460.32867,461.24695,69,80,0
460.32867,461.24695,64,80,0
461.25177,461.7085,71,80,0
461.25177,461.7085,64,80,0
461.25177,461.7085,67,80,0
461.7133,462.17,69,80,0
461.7133,462.17,65,80,0
461.7133,462.17,60,80,0
462.17484,463.0931,67,80,0
462.17484,463.0931,64,80,0
462.17484,463.0931,60,80,0
463.0979,464.01617,65,80,0
463.0979,464.01617,62,80,0
463.0979,464.01617,57,80,0
464.021,464.47772,64,80,0
464.021,464.47772,60,80,0
464.021,464.93924,67,80,0
464.94406,465.4008,69,93,0
464.4825,465.86234,65,86,0
464.4825,465.86234,62,86,0
465.4056,465.86234,71,99,0
465.86713,466.01065,72,80,0
465.86713,466.01065,60,80,0
465.86713,466.01065,64,80,0
466.0153,466.1588,74,80,0
466.16342,466.30695,76,80,0
466.31158,466.4551,77,80,0
466.45972,466.60324,79,80,0
466.60788,466.7514,81,80,0
466.756,466.8944,82,80,0
466.8989,467.03726,83,80,0
467.04175,467.18015,84,80,0
467.1846,467.323,85,80,0
467.32745,467.46585,86,80,0
467.4703,467.6087,87,80,0
467.61316,467.75156,88,80,0
467.756,467.8944,87,80,0
467.8989,468.03726,88,80,0
468.04175,468.18015,89,80,0
468.1846,468.323,87,80,0
467.61316,468.46585,84,80,0
468.32745,468.46585,88,80,0
468.61316,468.75156,88,80,0
468.4703,468.8944,83,80,0
468.756,468.8944,86,80,0
469.04175,469.18015,86,80,0
468.8989,469.323,81,80,0
469.1846,469.323,84,80,0
469.4703,469.6087,82,80,0
469.61316,469.75156,83,80,0
469.756,469.8944,84,80,0
469.89886,470.03726,82,80,0
469.32745,470.1801,80,80,0
470.04175,470.1801,83,80,0
470.32745,470.46585,80,80,0
470.4703,470.6087,81,80,0
470.61316,470.75156,83,80,0
470.756,470.8944,80,80,0
470.1846,471.03726,77,80,0
470.89886,471.03726,81,80,0
471.1846,471.323,82,82,0
471.32745,471.46585,83,85,0
471.4703,471.6087,84,88,0
471.61316,471.75156,82,91,0
471.04175,471.8944,77,80,0
471.756,471.8944,83,94,0
472.04175,472.1801,86,99,0
471.89886,472.323,79,96,0
472.1846,472.323,84,102,0
472.4813,472.63034,88,108,0
472.32745,472.78418,81,105,0
472.63513,472.78418,86,110,0
472.789,472.944,88,110,0
472.94897,473.10397,87,110,0
473.10898,473.26398,88,110,0
473.26898,473.4125,91,110,0
473.41714,473.56064,89,110,0
472.789,473.7088,84,110,0
473.56528,473.7088,88,110,0
473.71344,473.85184,86,110,0
473.71344,473.85184,83,110,0
473.8563,473.9947,84,105,0
473.8563,473.9947,81,105,0
473.99915,474.13754,83,99,0
473.99915,474.13754,79,99,0
474.142,474.2804,81,93,0
474.142,474.2804,77,93,0
474.28485,474.42325,79,87,0
474.28485,474.42325,76,87,0
474.4277,474.5661,77,81,0
474.4277,474.5661,74,81,0
474.5706,474.70895,76,80,0
474.71344,474.85184,75,80,0
474.8563,474.9947,76,80,0
474.99915,475.13754,77,80,0
475.142,475.2804,75,80,0
474.5706,475.42325,67,80,0
475.28485,475.42325,76,80,0
475.57056,475.70895,76,80,0
475.4277,475.8518,65,80,0
475.71344,475.8518,74,80,0
475.99915,476.13754,74,80,0
475.8563,476.2804,64,80,0
476.142,476.2804,72,80,0
476.4277,476.5661,70,80,0
476.57056,476.70895,71,80,0
476.71344,476.8518,72,80,0
476.8563,476.9947,70,80,0
476.28485,477.13754,62,80,0
476.99915,477.13754,71,80,0
477.28485,477.42325,68,80,0
477.4277,477.5661,69,80,0
477.57056,477.70895,71,80,0
477.71344,477.8518,68,80,0
477.142,477.9947,60,80,0
477.8563,477.9947,69,80,0
478.142,478.2804,64,82,0
477.99915,478.42325,60,80,0
478.28485,478.42325,67,84,0
478.57056,478.70895,65,89,0
478.4277,478.8518,62,87,0
478.71344,478.8518,67,91,0
478.99915,479.13754,65,96,0
478.8563,479.2804,62,94,0
479.142,479.2804,69,98,0
479.4277,479.5661,65,103,0
479.28485,479.70895,62,101,0
479.57056,479.70895,71,105,0
479.7134,479.84705,72,110,0
479.7134,479.84705,64,110,0
479.85135,479.985,55,110,0
479.9893,480.1229,52,110,0
480.12723,480.26083,55,110,0
480.26514,480.39877,60,110,0
480.40308,480.5367,64,110,0
480.54102,480.67017,62,110,0
480.67435,480.8035,59,110,0
480.80768,480.93683,55,110,0
480.941,481.0702,59,110,0
481.07434,481.20352,62,110,0
481.20767,481.33685,65,110,0
481.341,481.47018,64,110,0
481.47433,481.60352,60,110,0
481.60767,481.73685,55,110,0
481.741,481.87018,60,110,0
481.87433,482.0035,64,110,0
482.0077,482.13684,67,110,0
482.14102,482.27017,65,110,0
482.27435,482.4035,62,110,0
482.40768,482.53683,59,110,0
482.54102,482.67017,71,110,0
482.67435,482.8035,65,110,0
482.80768,482.93683,62,110,0
482.941,483.33685,72,110,0
482.941,483.33685,64,110,0
483.341,484.13684,67,110,0
484.14102,484.93683,67,110,0
484.941,485.73685,67,110,0
485.741,486.13684,67,110,0
486.14102,486.27017,72,110,0
486.27435,486.4035,67,110,0
486.40768,486.53683,64,110,0
486.54102,486.67017,67,110,0
486.67435,486.8035,72,110,0
486.80768,486.93683,76,110,0
486.941,487.0702,74,110,0
487.07434,487.20352,71,110,0
487.20767,487.33685,67,110,0
487.341,487.47018,71,110,0
487.47433,487.60352,74,110,0
487.60767,487.73685,77,110,0
487.741,487.87018,76,110,0
487.87433,488.0035,72,110,0
488.0077,488.13684,67,110,0
488.14102,488.27017,72,110,0
488.27435,488.4035,76,110,0
488.40768,488.53683,79,110,0
488.54102,488.67017,77,110,0
488.67435,488.8035,74,110,0
488.80768,488.93683,71,110,0
488.941,489.0702,83,110,0
489.07434,489.20352,77,110,0
489.20767,489.33685,74,110,0
489.341,489.47018,84,100,0
489.47433,489.60352,79,100,0
489.60767,489.73685,76,100,0
489.741,489.87018,79,99,0
489.87433,490.0035,76,99,0
490.0077,490.13684,72,98,0
490.14102,490.27017,77,98,0
490.27435,490.4035,74,97,0
490.40768,490.53683,71,97,0
490.54102,490.67017,83,97,0
490.67435,490.8035,79,96,0
490.80768,490.93683,74,96,0
490.941,491.0702,84,95,0
491.07434,491.20352,79,95,0
491.20767,491.33685,76,94,0
491.341,491.47018,79,94,0
491.47433,491.60352,76,94,0
491.60767,491.73685,72,93,0
491.741,491.87018,77,93,0
491.87433,492.0035,74,92,0
492.0077,492.13684,71,92,0
492.14102,492.27017,83,91,0
492.27435,492.4035,79,91,0
492.40768,492.53683,74,91,0
492.54102,492.63376,84,90,0
492.6378,492.73053,79,90,0
492.73456,492.8273,76,91,0
492.83133,492.92407,72,92,0
492.9281,493.02084,77,92,0
493.02487,493.1176,74,93,0
493.12164,493.2144,83,94,0
493.2184,493.31116,79,94,0
493.31522,493.40796,84,95,0
493.412,493.50473,79,96,0
493.50876,493.6015,76,96,0
493.60553,493.69827,72,97,0
493.7023,493.79504,77,98,0
493.79907,493.8918,74,98,0
493.89584,493.9886,83,99,0
493.9926,494.08536,79,100,0
494.0894,494.17923,84,100,0
494.18314,494.27298,79,101,0
494.2769,494.36673,83,102,0
494.37064,494.46048,79,102,0
494.4644,494.55423,84,103,0
494.55814,494.64798,79,104,0
494.6519,494.74173,83,104,0
494.74564,494.83548,79,105,0
494.8394,494.92923,84,106,0
494.93314,495.02298,79,106,0
495.0269,495.11673,83,107,0
495.12064,495.21048,79,108,0
495.2144,495.30423,84,108,0
495.30814,495.39798,79,109,0
495.4019,495.49173,83,110,0
495.49564,495.58548,79,110,0
495.5894,495.67923,84,110,0
495.68314,495.77298,79,110,0
495.7769,495.86673,82,110,0
495.87064,495.96048,79,110,0
495.9644,496.05423,82,110,0
496.05814,496.14798,79,110,0
496.1519,496.24173,82,110,0
496.24564,496.33548,79,110,0
496.3394,496.42923,82,110,0
496.43314,496.52298,79,110,0
496.5269,496.61673,82,110,0
496.62064,496.71048,79,110,0
496.7144,496.80423,82,110,0
496.80814,496.89798,79,110,0
496.9019,496.99173,82,110,0
496.99564,497.08548,79,110,0
497.0894,497.27298,82,110,0
497.2769,497.36673,81,110,0
497.37064,497.46048,79,110,0
497.4644,497.55423,77,110,0
497.55814,497.64798,76,110,0
497.6519,497.74173,74,110,0
497.74564,497.83548,72,110,0
497.8394,497.92923,70,110,0
497.93314,498.02298,69,110,0
498.0269,498.11673,67,110,0
498.12064,498.21048,65,110,0
498.2144,498.30423,64,110,0
498.30814,498.39798,62,110,0
498.4019,498.49173,60,110,0
498.49564,498.58548,58,110,0
498.5894,498.67923,57,120,0
498.68314,498.77298,59,120,0
498.7769,498.86673,60,120,0
498.87064,498.96048,59,120,0
498.9644,499.05423,60,120,0
499.05814,499.14798,64,120,0
499.1519,499.24173,65,120,0
499.24564,499.33548,64,120,0
499.3394,499.42923,65,120,0
499.43314,499.52298,68,120,0
499.5269,499.61673,69,120,0
499.62064,499.71048,68,120,0
499.7144,499.80423,69,120,0
499.80814,499.89798,71,120,0
499.9019,499.99173,72,120,0
499.99564,500.08548,71,120,0
500.0894,500.17923,72,120,0
500.18314,500.27298,76,120,0
500.2769,500.36673,77,120,0
500.37064,500.46048,76,120,0
500.4644,500.55423,77,120,0
500.55814,500.64798,80,120,0
500.6519,500.74173,81,120,0
500.74564,500.83548,80,120,0
500.8394,500.92923,81,120,0
500.93314,501.02298,83,120,0
501.0269,501.11673,84,120,0
501.12064,501.21048,83,120,0
501.2144,501.30423,84,120,0
501.30814,501.39798,83,120,0
501.4019,501.49173,81,120,0
501.49564,501.58548,80,120,0
501.5894,501.67923,81,120,0
501.68314,501.77298,80,120,0
501.7769,501.86673,81,120,0
501.87064,501.96048,83,120,0
501.9644,502.05423,84,120,0
502.05814,502.14798,83,120,0
502.1519,502.24173,81,120,0
502.24564,502.33548,80,120,0
502.3394,502.42923,81,120,0
502.43314,502.52298,80,120,0
502.5269,502.61673,81,120,0
502.62064,502.71048,83,120,0
502.7144,502.80423,84,120,0
502.80814,502.89798,83,120,0
502.9019,502.99173,81,120,0
502.99564,503.08548,80,120,0
503.0894,503.17923,81,120,0
503.18314,503.27298,80,120,0
503.2769,503.36673,81,120,0
503.37064,503.46048,83,120,0
503.4644,503.55423,84,120,0
503.55814,503.64798,83,120,0
503.6519,503.74173,81,120,0
503.74564,503.83548,80,120,0
503.8394,503.92923,81,120,0
503.93314,504.02298,80,120,0
504.0269,504.11673,81,120,0
504.12064,504.21048,83,120,0
504.2144,504.30423,84,120,0
504.30814,504.39798,83,120,0
504.4019,504.49173,84,120,0
504.49564,504.58548,81,120,0
504.5894,504.77298,79,120,0
504.5894,504.77298,67,120,0
504.7769,504.96048,79,120,0
504.7769,504.96048,67,120,0
504.9644,505.14798,76,120,0
504.9644,505.14798,64,120,0
505.1519,505.33548,72,120,0
505.1519,505.33548,60,120,0
505.3394,505.52298,84,120,0
505.3394,505.52298,72,120,0
505.5269,505.71048,84,120,0
505.5269,505.71048,72,120,0
505.7144,505.89798,79,120,0
505.7144,505.89798,67,120,0
505.9019,506.08548,76,120,0
505.9019,506.08548,64,120,0
506.0894,506.27298,79,120,0
506.0894,506.27298,67,120,0
506.2769,506.46048,79,120,0
506.2769,506.46048,67,120,0
506.4644,506.64798,76,120,0
506.4644,506.64798,64,120,0
506.6519,506.83548,72,120,0
506.6519,506.83548,60,120,0
506.8394,507.02298,84,120,0
506.8394,507.02298,72,120,0
507.0269,507.21048,84,120,0
507.0269,507.21048,72,120,0
507.2144,507.39798,79,120,0
507.2144,507.39798,67,120,0
507.4019,507.58548,76,120,0
507.4019,507.58548,64,120,0
507.68314,507.77298,84,80,0
507.7769,507.86673,88,80,0
507.87064,507.96048,84,80,0
507.9644,508.05423,91,80,0
508.05814,508.14798,88,80,0
508.1519,508.24173,91,80,0
508.24564,508.33548,88,80,0
508.3394,508.42923,91,80,0
508.43314,508.52298,88,80,0
508.5269,508.61673,91,80,0
508.62064,508.71048,88,80,0
508.7144,508.80423,91,80,0
508.80814,508.89798,88,80,0
508.9019,508.99173,91,80,0
508.99564,509.08548,88,80,0
509.0894,509.17923,91,80,0
509.18314,509.27298,88,80,0
509.2769,509.36673,91,80,0
509.37064,509.46048,88,80,0
509.4644,509.55423,91,80,0
509.55814,509.64798,88,80,0
509.6519,509.74173,91,80,0
509.74564,509.83548,88,80,0
509.8394,509.92923,91,80,0
509.93314,510.02298,88,80,0
510.0269,510.11673,91,80,0
510.12064,510.21048,88,80,0
510.2144,510.30423,91,80,0
510.30814,510.39798,88,80,0
510.4019,510.49173,91,80,0
510.49564,510.58548,88,80,0
510.68314,510.77298,89,80,0
510.7769,510.86673,91,79,0
510.87064,510.96048,89,79,0
510.9644,511.05423,92,78,0
511.05814,511.14798,89,77,0
511.1519,511.24173,91,77,0
511.24564,511.33548,89,76,0
511.3394,511.42923,92,75,0
511.43314,511.52298,89,75,0
511.5269,511.61673,91,74,0
511.62064,511.71048,89,73,0
511.7144,511.80423,92,73,0
511.80814,511.89798,89,72,0
511.9019,511.99173,91,71,0
511.99564,512.0855,89,71,0
512.0894,512.17926,92,70,0
512.18317,512.273,89,70,0
512.2769,512.36676,91,70,0
512.37067,512.4605,89,70,0
512.4644,512.55426,92,70,0
512.55817,512.648,89,70,0
512.6519,512.74176,91,70,0
512.74567,512.8355,89,70,0
512.8394,512.92926,92,70,0
512.93317,513.023,89,70,0
513.0269,513.11676,91,70,0
513.12067,513.2105,89,70,0
513.2144,513.30426,92,70,0
513.30817,513.398,89,70,0
513.4019,513.49176,91,70,0
513.49567,513.5855,89,70,0
513.5894,513.67926,93,70,0
513.68317,513.773,89,71,0
513.7769,513.86676,91,72,0
513.87067,513.9605,89,73,0
513.9644,514.05426,93,75,0
514.05817,514.148,89,76,0
514.1519,514.24176,91,77,0
514.24567,514.3355,89,78,0
514.3394,514.42926,93,80,0
514.43317,514.523,89,81,0
514.5269,514.61676,91,82,0
514.62067,514.7105,89,84,0
514.7144,514.80426,93,85,0
514.80817,514.898,89,86,0
514.9019,514.99176,91,87,0
514.99567,515.0855,89,89,0
515.0894,515.27893,93,90,0
515.28296,515.4725,89,93,0
515.28296,515.4725,91,93,0
515.4765,515.666,89,95,0
515.4765,515.666,91,95,0
515.67004,515.86584,89,98,0
515.67004,515.86584,91,98,0
515.87006,516.06586,89,100,0
515.87006,516.06586,91,100,0
516.07007,516.26587,89,103,0
516.07007,516.26587,91,103,0
516.27,516.47986,89,105,0
516.27,516.47986,91,105,0
516.4843,516.7291,89,108,0
516.4843,516.7291,91,108,0
516.7343,517.92224,84,110,0
517.9264,518.02155,84,80,0
518.0257,518.1209,82,80,0
518.12506,518.2203,80,80,0
518.22437,518.3196,79,80,0
518.3237,518.41895,80,80,0
518.42303,518.51825,79,80,0
518.5224,518.6176,77,80,0
518.62177,518.7169,76,80,0
518.72107,518.8163,77,80,0
518.82043,518.9156,79,80,0
518.91974,519.01495,80,80,0
519.0191,519.11426,82,80,0
519.1184,519.2136,84,80,0
519.2178,519.313,85,80,0
519.3171,519.4123,84,80,0
519.41644,519.51166,83,80,0
519.51575,519.61096,84,80,0
519.6151,519.7103,82,80,0
519.7145,519.80963,80,80,0
519.8138,519.909,79,80,0
519.91315,520.0083,80,80,0
520.01245,520.10767,82,80,0
520.1118,520.207,80,80,0
520.2111,520.30634,79,80,0
520.3105,520.4057,77,80,0
520.4098,520.505,76,80,0
520.50916,520.6044,77,80,0
520.60846,520.7037,79,80,0
520.7078,521.101,80,80,0
521.10516,521.2997,77,80,0
520.7078,521.4984,68,80,0
521.30383,521.4984,73,80,0
521.5025,521.89575,79,80,0
521.8999,522.0944,75,80,0
521.5025,522.2931,67,80,0
522.0986,522.2931,72,80,0
522.29724,522.6904,77,80,0
522.6946,522.8891,74,80,0
522.29724,523.08777,65,80,0
522.89325,523.08777,71,80,0
523.0919,524.27985,72,110,0
524.284,524.37915,72,80,0
524.3833,524.4785,70,80,0
524.48267,524.5778,69,80,0
524.582,524.6772,67,80,0
524.68134,524.77655,69,80,0
524.78064,524.87585,67,80,0
524.88,524.9752,65,80,0
524.9793,525.0745,64,80,0
525.0787,525.1739,65,80,0
525.17804,525.2732,67,80,0
525.27734,525.37256,69,80,0
525.3767,525.47186,70,80,0
525.476,525.5712,72,80,0
525.5754,525.67053,74,80,0
525.6747,525.7699,72,80,0
525.77405,525.86926,71,80,0
525.87335,525.96857,72,80,0
525.9727,526.06793,70,80,0
526.072,526.16724,69,80,0
526.1714,526.2666,67,80,0
526.27075,526.3659,69,80,0
526.37006,526.4653,70,80,0
526.4694,526.5646,69,80,0
526.5687,526.66394,67,80,0
526.6681,526.76324,65,80,0
526.7674,526.8626,64,80,0
526.86676,526.962,65,80,0
526.96606,527.0613,67,80,0
527.0654,527.4586,69,80,0
527.46277,527.6573,65,80,0
527.0654,527.85596,57,80,0
527.66144,527.85596,62,80,0
527.8601,528.25336,67,80,0
528.25745,528.452,64,80,0
528.4562,528.6507,60,80,0
528.65485,529.04803,65,80,0
529.0522,529.2467,62,80,0
527.8601,529.4454,55,80,0
529.25085,529.4454,59,80,0
529.4495,529.8427,60,80,0
529.4495,529.8427,55,80,0
529.84686,530.0414,72,80,0
530.04553,530.2401,71,80,0
530.2442,530.63745,69,80,0
530.6416,530.8361,65,80,0
530.8403,531.0348,62,80,0
531.03894,531.4321,67,80,0
531.4363,531.6308,64,80,0
531.63495,531.82947,60,80,0
531.8336,532.2268,65,80,0
532.23096,532.42554,62,80,0
532.4296,532.6242,59,80,0
532.6283,533.02155,60,80,0
533.0257,533.2202,77,80,0
533.22437,533.4189,76,80,0
533.42303,533.8162,74,80,0
533.8204,534.0149,70,80,0
534.01904,534.21356,67,80,0
534.2177,534.61096,72,80,0
534.61505,534.80963,69,80,0
534.8137,535.0083,65,80,0
535.01245,535.40564,70,80,0
535.4098,535.6043,67,80,0
535.60846,535.803,64,80,0
535.8071,536.2003,65,80,0
536.20447,536.399,77,80,0
536.40314,536.59766,75,80,0
536.6018,536.99506,73,80,0
536.99915,537.1937,70,80,0
537.1979,537.3924,67,80,0
537.39655,537.78973,72,80,0
537.7939,537.9884,68,80,0
537.99255,538.1871,65,80,0
538.1912,538.5979,70,80,0
538.6022,538.812,67,80,0
538.81647,539.0263,64,80,0
539.03076,539.2406,65,80,0
539.24506,539.43097,53,80,0
539.24506,539.43097,49,80,0
539.43494,539.62085,53,80,0
539.43494,539.62085,49,80,0
539.62476,539.8107,53,80,0
539.62476,539.8107,49,80,0
539.81464,540.00055,53,80,0
539.81464,540.00055,49,80,0
540.0045,540.1904,53,80,0
540.0045,540.1904,49,80,0
540.1944,540.3803,53,80,0
540.1944,540.3803,49,80,0
540.3843,540.5702,53,80,0
540.3843,540.5702,49,80,0
540.57416,540.7601,53,80,0
540.57416,540.7601,49,80,0
540.76404,540.94995,53,80,0
540.76404,540.94995,49,80,0
540.9539,541.13983,53,80,0
540.9539,541.13983,49,80,0
541.1438,541.3297,53,80,0
541.1438,541.3297,49,80,0
541.3336,541.51953,53,80,0
541.3336,541.51953,49,80,0
541.5235,541.7094,53,80,0
541.5235,541.7094,49,80,0
541.7134,541.8993,55,80,0
541.7134,541.8993,51,80,0
541.90326,542.0892,55,80,0
541.90326,542.0892,51,80,0
542.09314,542.6588,56,80,0
542.09314,542.6588,51,80,0
542.6628,542.7537,60,80,0
542.7577,542.8487,58,80,0
542.8526,543.0385,56,80,0
543.6121,543.65564,86,110,0
543.6596,544.0828,87,110,0
544.0868,544.1778,85,110,0
544.18176,544.2727,84,110,0
544.2767,544.3677,82,110,0
544.3716,544.7474,81,110,0
545.1311,545.6968,58,80,0
545.70074,545.7917,61,80,0
545.79565,545.88666,60,80,0
545.89056,546.07654,58,80,0
546.6501,546.6936,88,110,0
546.6976,547.1208,89,110,0
547.12476,547.21576,87,110,0
547.2197,547.31067,86,110,0
547.31464,547.40564,84,110,0
547.4096,547.78534,83,110,0
548.16907,548.355,60,110,0
548.35895,548.44995,63,110,0
548.45386,548.54486,62,110,0
548.5488,548.73474,60,110,0
548.9286,549.01953,80,110,0
549.0235,549.1145,79,110,0
549.1184,549.2094,77,110,0
549.2134,549.3044,75,110,0
549.3083,549.6841,74,110,0
549.68805,549.87396,64,110,0
549.8779,549.96893,67,110,0
549.97284,550.06384,65,110,0
550.0678,550.2537,64,110,0
550.4476,550.5385,84,110,0
550.5425,550.6335,82,110,0
550.6374,550.7284,80,110,0
550.73236,550.82336,79,110,0
550.8273,551.20306,77,110,0
551.20703,551.29803,87,120,0
551.302,551.39294,86,120,0
551.3969,551.4879,84,120,0
551.4918,551.5828,83,120,0
551.5868,551.9626,84,120,0
551.96655,552.0575,75,120,0
552.06146,552.15247,74,120,0
552.1564,552.2474,72,120,0
552.25134,552.34235,71,120,0
552.34625,552.72205,72,120,0
552.726,552.817,63,120,0
552.821,552.9119,62,120,0
552.9159,553.0069,60,120,0
553.0108,553.1018,59,120,0
553.1058,553.48157,60,120,0
553.48553,553.5765,75,120,0
553.58044,553.67145,74,120,0
553.6754,553.76636,72,120,0
553.7703,553.8613,71,120,0
553.86523,553.95624,72,120,0
553.9602,554.05115,74,120,0
554.0551,554.1461,75,120,0
554.1501,554.241,78,120,0
554.245,554.4309,79,120,0
554.4349,554.6208,79,80,0
554.4349,554.6208,67,80,0
554.62476,554.81067,79,80,0
554.62476,554.81067,67,80,0
554.81464,555.00055,79,80,0
554.81464,555.00055,67,80,0
555.0045,555.1904,79,80,0
555.0045,555.1904,67,80,0
555.1944,555.3803,79,80,0
555.1944,555.3803,67,80,0
555.3842,555.5702,79,80,0
555.3842,555.5702,67,80,0
555.5741,555.76,79,80,0
555.5741,555.76,67,80,0
555.764,555.9499,79,70,0
555.764,555.9499,73,70,0
555.764,555.9499,70,70,0
555.764,555.9499,67,70,0
555.95386,556.1398,79,75,0
555.95386,556.1398,73,75,0
555.95386,556.1398,70,75,0
555.95386,556.1398,67,75,0
556.14374,556.32965,79,80,0
556.14374,556.32965,73,80,0
556.14374,556.32965,70,80,0
556.14374,556.32965,67,80,0
556.3336,556.51953,79,85,0
556.3336,556.51953,73,85,0
556.3336,556.51953,70,85,0
556.3336,556.51953,67,85,0
556.5235,556.7094,79,90,0
556.5235,556.7094,73,90,0
556.5235,556.7094,70,90,0
556.5235,556.7094,67,90,0
556.7134,556.8993,79,95,0
556.7134,556.8993,73,95,0
556.7134,556.8993,70,95,0
556.7134,556.8993,67,95,0
556.9032,557.0892,79,100,0
556.9032,557.0892,73,100,0
556.9032,557.0892,70,100,0
556.9032,557.0892,67,100,0
557.0931,557.279,79,105,0
557.0931,557.279,73,105,0
557.0931,557.279,70,105,0
557.0931,557.279,67,105,0
557.28296,557.4689,79,70,0
557.28296,557.4689,74,70,0
557.28296,557.4689,71,70,0
557.28296,557.4689,67,70,0
557.47284,557.84863,79,70,0
557.47284,557.84863,91,70,0
557.8526,558.2284,89,70,0
557.8526,558.2284,77,70,0
558.23236,558.60815,88,70,0
558.23236,558.60815,76,70,0
558.61206,558.98785,74,70,0
558.61206,558.98785,86,70,0
558.9918,559.3676,84,70,0
558.9918,559.3676,72,70,0
559.3716,559.7474,83,70,0
559.3716,559.7474,71,70,0
559.75134,560.12714,81,70,0
559.75134,560.12714,69,70,0
560.13104,560.31696,79,70,0
560.13104,560.31696,67,70,0
560.3209,560.4119,77,70,0
560.3209,560.4119,65,70,0
560.4159,560.50684,62,70,0
560.5108,560.6018,64,70,0
560.6058,560.6967,65,70,0
560.7007,560.7917,67,70,0
560.79565,560.8866,69,70,0
560.89056,560.98157,71,70,0
560.9855,561.0765,73,70,0
561.08044,561.1714,74,70,0
561.17535,561.26636,65,70,0
561.2703,561.36127,67,70,0
561.36523,561.45624,69,70,0
561.4602,561.55115,71,70,0
561.5551,561.6461,73,70,0
561.65,561.741,74,70,0
561.745,561.836,76,70,0
561.8399,561.9309,77,70,0
561.9349,562.0258,74,70,0
562.0298,562.1208,76,70,0
562.12476,562.2157,77,70,0
562.21967,562.31067,79,70,0
562.31464,562.4056,81,70,0
562.40955,562.50055,83,70,0
562.50446,562.59546,85,70,0
562.5994,562.69037,86,70,0
562.69434,562.78534,85,70,0
562.7893,562.88025,86,70,0
562.8842,562.9752,88,70,0
562.9792,563.0701,89,70,0
563.0741,563.1651,85,70,0
563.169,563.26,86,70,0
563.264,563.355,88,70,0
563.3589,563.5448,89,70,0
563.54877,563.92456,89,70,0
563.54877,563.92456,77,70,0
563.9285,564.3043,76,70,0
563.9285,564.3043,88,70,0
564.3083,564.6841,74,70,0
564.3083,564.6841,86,70,0
564.68805,565.0638,72,70,0
564.68805,565.0638,84,70,0
565.06775,565.44354,83,70,0
565.06775,565.44354,71,70,0
565.4475,565.8233,81,70,0
565.4475,565.8233,69,70,0
565.8273,566.20306,67,70,0
565.8273,566.20306,79,70,0
566.20703,566.39294,77,70,0
566.20703,566.39294,65,70,0
566.39685,566.48785,76,70,0
566.39685,566.48785,64,70,0
566.4918,566.5828,64,70,0
566.58673,566.67773,65,70,0
566.6817,566.77264,67,70,0
566.7766,566.8676,69,70,0
566.8716,566.9625,71,70,0
566.9665,567.0575,72,70,0
567.06146,567.1524,74,70,0
567.1564,567.2474,76,70,0
567.2513,567.3423,69,70,0
567.34625,567.4372,71,70,0
567.44116,567.53217,72,70,0
567.53613,567.6271,74,70,0
567.63104,567.72205,76,70,0
567.726,567.81696,78,70,0
567.8209,567.9119,80,70,0
567.91583,568.00684,81,70,0
568.0108,568.1018,76,70,0
568.1057,568.1967,78,70,0
568.2007,568.2916,80,70,0
568.2956,568.3866,81,70,0
568.39056,568.4815,83,70,0
568.4855,568.5765,84,70,0
568.58044,568.6714,86,70,0
568.67535,568.76636,88,70,0
568.77026,568.86127,86,70,0
568.86523,568.95624,84,70,0
568.96014,569.05115,83,70,0
569.0551,569.14606,81,70,0
569.15,569.241,83,70,0
569.245,569.33594,84,70,0
569.3399,569.4309,81,70,0
569.5298,569.6208,65,70,0
569.6247,569.7157,67,71,0
569.71967,569.8106,69,72,0
569.8146,569.9056,71,73,0
569.90955,570.0005,72,74,0
570.00446,570.09546,74,75,0
570.0994,570.19037,76,75,0
570.19434,570.28534,77,76,0
570.28925,570.38025,71,77,0
570.3842,570.4752,72,78,0
570.4791,570.5701,74,79,0
570.5741,570.66504,76,80,0
570.669,570.76,77,81,0
570.764,570.8549,79,81,0
570.8589,570.9499,81,82,0
570.95386,571.0448,83,83,0
571.04877,571.1398,77,84,0
571.1437,571.2347,79,85,0
571.23865,571.3296,81,86,0
571.33356,571.42456,83,87,0
571.4285,571.5195,84,87,0
571.52344,571.61444,86,88,0
571.6184,571.70935,88,89,0
571.7133,571.8043,89,90,0
571.8082,571.89923,88,91,0
571.9032,571.9942,86,92,0
571.9981,572.0891,84,93,0
572.0931,572.184,83,93,0
572.188,572.279,84,94,0
572.28296,572.3739,86,95,0
572.37787,572.4689,83,96,0
572.56775,572.65875,79,98,0
572.66266,572.75366,81,99,0
572.7576,572.84863,83,99,0
572.85254,572.94354,84,100,0
572.9475,573.03845,86,101,0
573.0424,573.1334,88,102,0
573.1374,573.22833,89,103,0
573.2323,573.3233,91,104,0
573.3273,573.4182,89,104,0
573.4222,573.5132,88,105,0
573.5171,573.6081,86,106,0
573.61206,573.703,85,107,0
573.707,573.798,86,108,0
573.80194,573.8929,88,109,0
573.89685,573.98785,85,110,0
574.08673,574.17773,73,110,0
574.18164,574.27264,74,110,0
574.2766,574.3676,76,110,0
574.3715,574.4625,77,110,0
574.4665,574.55743,79,110,0
574.5614,574.6524,81,110,0
574.6564,574.8423,77,110,0
574.84625,574.9372,75,110,0
574.94116,575.03217,76,110,0
575.0361,575.1271,77,110,0
575.13104,575.22205,79,110,0
575.22595,575.31696,81,110,0
575.3209,575.41187,83,110,0
575.41583,575.60175,79,110,0
575.6057,575.6967,76,110,0
575.7007,575.7916,77,110,0
575.7956,575.8866,79,110,0
575.8905,575.9815,81,110,0
575.9855,576.0764,83,110,0
576.0804,576.1714,84,110,0
576.17535,576.36127,81,110,0
576.36523,576.4562,78,110,0
576.46014,576.55115,79,110,0
576.55505,576.64606,81,110,0
576.65,576.741,83,110,0
576.74493,576.83594,84,110,0
576.8399,576.93085,86,110,0
576.9348,577.1207,83,110,0
577.1247,577.2157,80,110,0
577.21967,577.3106,81,110,0
577.3146,577.4056,83,110,0
577.4095,577.5005,84,110,0
577.50446,577.59546,86,110,0
577.59937,577.69037,88,110,0
577.69434,577.88025,84,110,0
577.8842,577.97516,82,110,0
577.9791,578.0701,83,110,0
578.0741,578.16504,84,110,0
578.169,578.26,86,110,0
578.2639,578.3549,88,110,0
578.3589,578.4498,89,110,0
578.4538,578.5448,86,110,0
578.73865,578.798,79,110,0
578.80194,578.86127,84,110,0
578.86523,578.92456,91,110,0
579.11835,579.1777,79,110,0
579.18164,579.24097,84,110,0
579.24493,579.30426,91,110,0
579.4981,579.55743,80,110,0
579.5614,579.6207,84,110,0
579.6247,579.684,92,110,0
579.87787,579.9372,80,110,0
579.94116,580.0005,84,110,0
580.00446,580.0638,92,110,0
580.06775,580.1587,81,110,0
580.16266,580.25366,93,110,0
580.2576,580.3486,91,110,0
580.35254,580.44354,89,110,0
580.4475,580.53845,88,110,0
580.5424,580.6334,86,110,0
580.6373,580.72833,84,110,0
580.7323,580.82324,83,110,0
580.8272,580.9182,81,110,0
580.9222,581.0131,79,110,0
581.0171,581.1081,77,110,0
581.11206,581.203,76,110,0
581.207,581.298,74,110,0
581.3019,581.3929,72,110,0
581.39685,581.48785,71,110,0
581.49176,581.58276,69,110,0
581.58673,581.6777,68,110,0
581.68164,581.77264,69,110,0
581.7766,581.86755,67,110,0
581.8715,581.9625,65,110,0
581.9665,582.05743,64,110,0
582.0614,582.1524,62,110,0
582.1563,582.2473,60,110,0
582.2513,582.3422,59,110,0
582.3462,582.4372,57,110,0
582.44116,582.5321,55,110,0
582.5361,582.6271,53,110,0
582.63104,582.722,52,110,0
582.72595,582.81696,50,110,0
582.82086,582.91187,48,110,0
582.91583,583.00684,47,110,0
583.01074,583.10175,45,110,0
583.1057,583.19666,43,110,0
583.2006,583.2916,48,80,0
583.2956,583.38654,47,80,0
583.3905,583.4815,50,80,0
583.4855,583.5764,48,80,0
583.5804,583.6714,52,80,0
583.6753,583.7663,51,80,0
583.77026,583.86127,53,80,0
583.8652,583.9562,52,80,0
583.96014,584.0511,55,80,0
584.05505,584.14606,54,80,0
584.15,584.24097,57,80,0
584.24493,584.33594,55,80,0
584.3399,584.43085,60,80,0
584.4348,584.5258,59,80,0
584.5297,584.6207,62,80,0
584.6247,584.71564,60,80,0
584.7196,584.8106,64,80,0
584.8146,584.9055,63,80,0
584.9095,585.0005,65,80,0
585.00446,585.0954,64,80,0
585.09937,585.19037,67,80,0
585.1943,585.2853,66,80,0
585.28925,585.38025,69,80,0
585.38416,585.47516,67,80,0
585.4791,585.57007,72,80,0
585.57404,585.66504,71,80,0
585.669,585.75995,74,80,0
585.7639,585.8549,72,80,0
585.8589,585.9498,76,80,0
585.9538,586.0448,75,80,0
586.0487,586.1397,77,80,0
586.1437,586.2347,76,80,0
586.2386,586.3296,79,80,0
586.33356,586.4245,78,81,0
586.42847,586.5195,81,81,0
586.52344,586.6144,79,82,0
586.61835,586.70935,84,83,0
586.7133,586.80426,83,83,0
586.8082,586.89923,84,84,0
586.90314,586.99414,79,85,0
586.9981,587.08905,88,85,0
587.093,587.184,87,86,0
587.188,587.27893,88,87,0
587.2829,587.3739,79,87,0
587.37787,587.4688,84,88,0
587.4728,587.5638,83,89,0
587.5677,587.6587,84,89,0
587.66266,587.75366,79,90,0
587.75757,587.8486,88,90,0
587.85254,587.9435,87,91,0
587.94745,588.03845,88,92,0
588.0424,588.13513,79,92,0
588.13916,588.23193,84,93,0
588.23596,588.3287,83,94,0
588.3327,588.4255,84,94,0
588.4295,588.5253,79,95,0
588.5295,588.6253,88,96,0
588.6295,588.72534,87,96,0
588.7295,588.8253,88,97,0
588.82947,588.94006,79,98,0
588.9449,589.0555,84,98,0
589.06024,589.20404,83,99,0
589.21027,589.354,84,99,0
589.3603,591.1728,89,100,0
591.0269,591.1728,89,80,0
591.1103,591.26306,88,80,0
591.1936,591.33246,86,80,0
591.2769,591.4228,84,80,0
589.3603,591.51996,83,100,0
591.3603,591.51996,83,80,0
591.4436,591.5894,81,80,0
591.5269,591.66583,79,80,0
591.6103,591.76306,77,80,0
591.6936,591.8464,76,80,0
591.7769,591.9297,74,80,0
591.8603,592.0061,72,80,0
591.9436,592.01996,71,80,0
592.0269,594.1727,77,100,0
594.0269,594.1727,77,80,0
594.1102,594.24915,76,80,0
594.1936,594.3394,74,80,0
594.2769,594.4495,72,80,0
592.0269,594.5388,71,100,0
594.3602,594.5388,71,80,0
594.4674,594.6638,69,80,0
594.5745,594.762,67,80,0
594.6817,594.7799,65,80,0
594.7888,595.7071,64,80,0
594.7888,595.7071,60,80,0
594.7888,595.7071,55,80,0
595.7119,596.16864,62,80,0
595.7119,596.16864,59,80,0
595.7119,596.16864,53,80,0
596.17346,596.6302,60,80,0
596.17346,596.6302,57,80,0
596.17346,596.6302,52,80,0
596.635,597.5532,59,80,0
596.635,597.5532,56,80,0
596.635,597.5532,50,80,0
597.55804,598.4763,57,80,0
597.55804,598.4763,48,80,0
598.48114,599.3994,71,80,0
598.48114,599.3994,67,80,0
598.48114,599.3994,65,80,0
599.40424,599.86096,72,80,0
599.40424,599.86096,67,80,0
599.8657,600.32245,74,80,0
599.8657,600.32245,72,80,0
599.8657,600.32245,69,80,0
600.3273,601.24554,76,80,0
600.3273,601.24554,72,80,0
600.3273,601.24554,67,80,0
601.25037,601.7071,74,80,0
601.7119,601.93787,79,80,0
601.25037,602.16864,71,80,0
601.25037,602.16864,67,80,0
601.9427,602.16864,77,80,0
602.63495,603.09174,88,80,0
602.63495,603.09174,84,80,0
603.0965,603.5532,86,80,0
603.0965,603.5532,83,80,0
603.0965,603.5532,77,80,0
603.55804,604.0148,84,80,0
603.55804,604.0148,81,80,0
603.55804,604.0148,76,80,0
604.0196,604.93787,83,80,0
604.0196,604.93787,80,80,0
604.0196,604.93787,74,80,0
604.9427,605.86096,81,80,0
604.9427,605.86096,72,80,0
605.8657,606.34076,76,80,0
605.8657,606.34076,72,80,0
605.8657,606.82074,79,80,0
606.82574,607.32056,81,80,0
606.34576,609.30493,77,80,0
606.34576,609.30493,74,80,0
607.32574,609.30493,83,80,0
609.32574,609.7825,64,80,0
609.32574,609.7825,60,80,0
609.32574,611.1671,67,80,0
611.1719,612.4983,68,80,0
609.7873,614.4948,62,80,0
609.7873,614.4948,65,80,0
612.50525,614.4948,71,80,0
614.50525,614.962,52,80,0
614.50525,614.962,48,80,0
614.50525,616.34656,55,80,0
616.3514,617.6778,57,80,0
614.96674,619.6743,50,80,0
614.96674,619.6743,53,80,0
617.6847,619.6743,59,80,0
619.6847,619.8683,60,80,0
619.6847,619.8683,52,80,0
619.8722,620.0558,60,80,0
619.8722,620.0558,64,80,0
620.0597,620.2433,64,80,0
620.0597,620.2433,60,80,0
620.2472,620.4308,60,80,0
620.2472,620.4308,64,80,0
620.4347,620.6183,64,80,0
620.4347,620.6183,60,80,0
620.6222,620.8058,60,80,0
620.6222,620.8058,64,80,0
620.8097,620.9933,64,80,0
620.8097,620.9933,60,80,0
620.9972,621.1808,60,80,0
620.9972,621.1808,64,80,0
621.1847,621.3683,64,80,0
621.1847,621.3683,60,80,0
621.3722,621.5558,60,80,0
621.3722,621.5558,64,80,0
621.5597,621.7433,64,80,0
621.5597,621.7433,60,80,0
621.7472,621.9308,60,80,0
621.7472,621.9308,64,80,0
621.9347,622.1183,64,80,0
621.9347,622.1183,60,80,0
622.1222,622.3058,60,80,0
622.1222,622.3058,64,80,0
622.3097,622.4933,66,80,0
622.3097,622.4933,62,80,0
622.4972,622.6808,66,80,0
622.4972,622.6808,62,80,0
622.6847,622.8683,67,80,0
622.8722,622.96204,71,82,0
622.96594,623.0558,69,83,0
623.0597,623.2433,67,85,0
623.4347,623.6183,72,90,0
623.6222,623.71204,76,93,0
623.71594,623.8058,74,94,0
623.8097,623.9933,72,95,0
624.1847,624.3683,77,101,0
624.3722,624.46204,81,103,0
624.46594,624.5558,79,105,0
624.5597,624.7433,77,106,0
624.9347,625.02454,89,111,0
625.02844,625.1183,88,113,0
625.1222,625.21204,89,114,0
625.21594,625.3058,88,115,0
625.3097,625.39954,89,116,0
625.40344,625.4933,88,118,0
625.4972,625.58704,89,119,0
625.59094,625.6808,88,120,0
625.6847,625.77454,89,120,0
625.77844,625.8683,88,120,0
625.8722,625.96204,86,120,0
625.96594,626.0558,84,120,0
626.0597,626.14954,83,120,0
626.15344,626.2433,81,120,0
626.2472,626.33704,79,120,0
626.34094,626.4308,77,120,0
626.4347,626.52454,76,120,0
626.52844,626.6183,74,120,0
626.6222,626.71204,72,120,0
626.71594,626.8058,71,120,0
626.8097,626.89954,69,120,0
626.90344,626.9933,67,120,0
626.9972,627.08704,65,120,0
627.09094,627.1808,64,120,0
627.1847,627.5558,62,120,0
627.5597,627.9308,79,120,0
627.5597,627.9308,74,120,0
627.5597,627.9308,71,120,0
627.5597,627.9308,67,120,0
628.77124,629.22797,76,120,0
628.77124,629.22797,72,120,0
628.77124,629.22797,67,120,0
628.77124,629.22797,64,120,0
629.69434,630.15106,79,120,0
629.69434,630.15106,74,120,0
629.69434,630.15106,71,120,0
629.69434,630.15106,67,120,0
630.75586,632.5496,84,120,0
630.75586,632.5496,79,120,0
630.75586,632.5496,76,120,0
630.75586,632.5496,72,120,0
634.35583,634.9496,60,1,0
0.0,0.18359375,36,80,0
0.1875,0.37109375,43,80,0
0.1875,0.37109375,36,80,0
0.375,0.55859375,36,80,0
0.375,0.55859375,43,80,0
0.5625,0.74609375,43,80,0
0.5625,0.74609375,36,80,0
0.75,0.93359375,36,80,0
0.75,0.93359375,43,80,0
0.9375,1.1210938,43,80,0
0.9375,1.1210938,36,80,0
1.125,1.3085938,36,80,0
1.125,1.3085938,43,80,0
1.3125,1.4960938,43,80,0
1.3125,1.4960938,36,80,0
1.5,1.6835938,36,80,0
1.5,1.6835938,43,80,0
1.6875,1.8710938,43,80,0
1.6875,1.8710938,36,80,0
1.875,2.0585938,36,80,0
1.875,2.0585938,43,80,0
2.0625,2.2460938,43,80,0
2.0625,2.2460938,36,80,0
2.25,2.4335938,36,80,0
2.25,2.4335938,43,80,0
2.4375,2.6210938,43,80,0
2.4375,2.6210938,36,80,0
2.625,2.8085938,36,80,0
2.625,2.8085938,45,80,0
2.8125,2.9960938,36,80,0
2.8125,2.9960938,45,80,0
3.0,3.1835938,43,80,0
3.0,3.1835938,35,80,0
3.1875,3.3710938,43,80,0
3.1875,3.3710938,35,80,0
3.375,3.5585938,35,80,0
3.375,3.5585938,43,80,0
3.5625,3.7460938,43,80,0
3.5625,3.7460938,35,80,0
3.75,3.9335938,43,80,0
3.75,3.9335938,35,80,0
3.9375,4.1210938,43,80,0
3.9375,4.1210938,35,80,0
4.125,4.3085938,35,80,0
4.125,4.3085938,43,80,0
4.3125,4.4960938,43,80,0
4.3125,4.4960938,35,80,0
4.5,4.6835938,43,80,0
4.5,4.6835938,35,80,0
4.6875,4.8710938,43,80,0
4.6875,4.8710938,35,80,0
4.875,5.0585938,35,80,0
4.875,5.0585938,43,80,0
5.0625,5.2460938,43,80,0
5.0625,5.2460938,35,80,0
5.25,5.4335938,43,80,0
5.25,5.4335938,35,80,0
5.4375,5.6210938,43,80,0
5.4375,5.6210938,35,80,0
5.625,5.8085938,35,80,0
5.625,5.8085938,43,80,0
5.8125,5.9960938,43,80,0
5.8125,5.9960938,35,80,0
6.0,6.1835938,41,80,0
6.0,6.1835938,34,80,0
6.1875,6.3710938,41,80,0
6.1875,6.3710938,34,80,0
6.375,6.5585938,41,80,0
6.375,6.5585938,34,80,0
6.5625,6.7460938,41,80,0
6.5625,6.7460938,34,80,0
6.75,6.9335938,41,80,0
6.75,6.9335938,34,80,0
6.9375,7.1210938,41,80,0
6.9375,7.1210938,34,80,0
7.125,7.3085938,41,80,0
7.125,7.3085938,34,80,0
7.3125,7.4960938,41,80,0
7.3125,7.4960938,34,80,0
7.5,7.6835938,41,80,0
7.5,7.6835938,34,80,0
7.6875,7.8710938,41,80,0
7.6875,7.8710938,34,80,0
7.875,8.058594,41,80,0
7.875,8.058594,34,80,0
8.0625,8.246094,41,80,0
8.0625,8.246094,34,80,0
8.25,8.433594,41,80,0
8.25,8.433594,34,80,0
8.4375,8.621094,41,80,0
8.4375,8.621094,34,80,0
8.625,8.808594,34,80,0
8.625,8.808594,43,80,0
8.8125,8.996094,34,80,0
8.8125,8.996094,43,80,0
9.0,9.183594,41,80,0
9.0,9.183594,33,80,0
9.1875,9.371094,41,80,0
9.1875,9.371094,33,80,0
9.375,9.558594,41,80,0
9.375,9.558594,33,80,0
9.5625,9.746094,33,80,0
9.5625,9.746094,41,80,0
9.75,9.933594,41,80,0
9.75,9.933594,33,80,0
9.9375,10.121094,41,80,0
9.9375,10.121094,33,80,0
10.125,10.308594,41,80,0
10.125,10.308594,33,80,0
10.3125,10.496094,33,80,0
10.3125,10.496094,41,80,0
10.5,10.683594,41,80,0
10.5,10.683594,31,80,0
10.6875,10.871094,41,80,0
10.6875,10.871094,31,80,0
10.875,11.058594,41,80,0
10.875,11.058594,31,80,0
11.0625,11.246094,41,80,0
11.0625,11.246094,31,80,0
11.25,11.433594,41,80,0
11.25,11.433594,31,80,0
11.4375,11.621094,41,80,0
11.4375,11.621094,31,80,0
11.625,11.808594,41,80,0
11.625,11.808594,32,80,0
11.8125,11.996094,41,80,0
11.8125,11.996094,32,80,0
12.0,12.183594,41,80,0
12.0,12.183594,31,80,0
12.1875,12.371094,41,81,0
12.1875,12.371094,31,81,0
12.375,12.558594,41,83,0
12.375,12.558594,31,83,0
12.5625,12.746094,41,85,0
12.5625,12.746094,31,85,0
12.75,12.933594,41,87,0
12.75,12.933594,31,87,0
12.9375,13.121094,41,89,0
12.9375,13.121094,31,89,0
13.125,13.308594,41,91,0
13.125,13.308594,32,91,0
13.3125,13.496094,41,93,0
13.3125,13.496094,32,93,0
13.5,13.683594,41,95,0
13.5,13.683594,31,95,0
13.6875,13.871094,41,97,0
13.6875,13.871094,31,97,0
13.875,14.058594,41,99,0
13.875,14.058594,31,99,0
14.0625,14.246094,41,101,0
14.0625,14.246094,31,101,0
14.25,14.433594,41,103,0
14.25,14.433594,31,103,0
14.4375,14.621094,41,105,0
14.4375,14.621094,31,105,0
14.625,14.808594,41,107,0
14.625,14.808594,32,107,0
14.8125,14.996094,41,108,0
14.8125,14.996094,32,108,0
15.0,15.371094,41,110,0
15.0,15.371094,31,110,0
15.375,16.308594,55,110,0
15.375,16.308594,43,110,0
16.3125,16.402344,57,110,0
16.40625,16.496094,59,110,0
16.5,16.683594,60,100,0
16.875,17.058594,55,96,0
16.875,17.058594,43,96,0
17.25,17.494791,51,91,0
17.25,17.494791,39,91,0
17.75,17.994791,48,86,0
17.75,17.994791,36,86,0
18.25,20.244791,43,81,0
18.25,20.244791,31,81,0
20.25,20.433594,48,80,0
20.25,20.433594,36,80,0
20.4375,20.589844,48,80,0
20.53125,20.710938,55,80,0
20.625,20.792969,48,80,0
20.71875,20.894531,55,80,0
20.8125,20.988281,48,80,0
20.90625,21.066406,55,80,0
21.0,21.183594,48,80,0
21.09375,21.246094,55,80,0
21.1875,21.339844,48,80,0
21.28125,21.429688,55,80,0
21.375,21.535156,48,80,0
21.46875,21.640625,55,80,0
21.5625,21.714844,48,80,0
21.65625,21.816406,55,80,0
21.75,21.910156,48,80,0
21.84375,22.019531,55,80,0
21.9375,22.105469,48,80,0
22.03125,22.207031,55,80,0
22.125,22.28125,48,80,0
22.21875,22.386719,55,80,0
22.3125,22.484375,48,80,0
22.40625,22.589844,55,80,0
22.5,22.683594,48,80,0
22.59375,22.757812,55,80,0
22.6875,22.832031,48,80,0
22.78125,22.9375,55,80,0
22.875,23.039062,48,80,0
22.96875,23.132812,57,80,0
23.0625,23.214844,48,80,0
23.15625,23.246094,57,80,0
23.25,23.339844,50,80,0
23.25,23.339844,47,80,0
23.34375,23.433594,55,80,0
23.4375,23.527344,50,80,0
23.4375,23.527344,47,80,0
23.53125,23.621094,55,80,0
23.625,23.714844,50,80,0
23.625,23.714844,47,80,0
23.71875,23.808594,55,80,0
23.8125,23.902344,50,80,0
23.8125,23.902344,47,80,0
23.90625,23.996094,55,80,0
24.0,24.089844,50,80,0
24.0,24.089844,47,80,0
24.09375,24.183594,55,80,0
24.1875,24.277344,50,80,0
24.1875,24.277344,47,80,0
24.28125,24.371094,55,80,0
24.375,24.464844,50,80,0
24.375,24.464844,47,80,0
24.46875,24.558594,55,80,0
24.5625,24.652344,50,80,0
24.5625,24.652344,47,80,0
24.65625,24.746094,55,80,0
24.75,24.839844,50,80,0
24.75,24.839844,47,80,0
24.84375,24.933594,55,80,0
24.9375,25.027344,50,80,0
24.9375,25.027344,47,80,0
25.03125,25.121094,55,80,0
25.125,25.214844,50,80,0
25.125,25.214844,47,80,0
25.21875,25.308594,55,80,0
25.3125,25.402344,50,80,0
25.3125,25.402344,47,80,0
25.40625,25.496094,55,80,0
25.5,25.589844,50,80,0
25.5,25.589844,47,80,0
25.59375,25.683594,55,80,0
25.6875,25.777344,50,80,0
25.6875,25.777344,47,80,0
25.78125,25.871094,55,80,0
25.875,25.964844,50,80,0
25.875,25.964844,47,80,0
25.96875,26.058594,55,80,0
26.0625,26.152344,50,80,0
26.0625,26.152344,47,80,0
26.15625,26.246094,55,80,0
26.25,26.433594,50,80,0
26.25,26.433594,38,80,0
26.4375,26.527344,50,80,0
26.53125,26.621094,57,80,0
26.625,26.714844,50,80,0
26.71875,26.808594,57,80,0
26.8125,26.902344,50,80,0
26.90625,26.996094,57,80,0
27.0,27.089844,50,80,0
27.09375,27.183594,57,80,0
27.1875,27.277344,50,80,0
27.28125,27.371094,57,80,0
27.375,27.464844,50,80,0
27.46875,27.558594,57,80,0
27.5625,27.652344,50,80,0
27.65625,27.746094,57,80,0
27.75,27.839844,50,80,0
27.84375,27.933594,57,80,0
27.9375,28.027344,50,80,0
28.03125,28.121094,57,80,0
28.125,28.214844,50,80,0
28.21875,28.308594,57,80,0
28.3125,28.402344,50,80,0
28.40625,28.496094,57,80,0
28.5,28.589844,50,80,0
28.59375,28.683594,57,80,0
28.6875,28.777344,50,80,0
28.78125,28.871094,57,80,0
28.875,28.964844,50,80,0
28.96875,29.058594,59,80,0
29.0625,29.152344,50,80,0
29.15625,29.246094,59,80,0
29.25,29.339844,48,80,0
29.25,29.339844,52,80,0
29.34375,29.433594,57,80,0
29.4375,29.527344,48,80,0
29.4375,29.527344,52,80,0
29.53125,29.621094,57,80,0
29.625,29.714844,48,80,0
29.625,29.714844,52,80,0
29.71875,29.808594,57,80,0
29.8125,29.902344,48,80,0
29.8125,29.902344,52,80,0
29.90625,29.996094,57,80,0
30.0,30.089844,48,80,0
30.0,30.089844,52,80,0
30.09375,30.183594,57,80,0
30.1875,30.277344,48,80,0
30.1875,30.277344,52,80,0
30.28125,30.371094,57,80,0
30.375,30.464844,48,80,0
30.375,30.464844,52,80,0
30.46875,30.558594,57,80,0
30.5625,30.652344,48,80,0
30.5625,30.652344,52,80,0
30.65625,30.746094,57,80,0
30.75,30.839844,48,80,0
30.75,30.839844,52,80,0
30.84375,30.933594,57,80,0
30.9375,31.027344,48,81,0
30.9375,31.027344,52,81,0
31.03125,31.121094,57,82,0
31.125,31.214844,48,83,0
31.125,31.214844,52,83,0
31.21875,31.308594,57,84,0
31.3125,31.402344,48,85,0
31.3125,31.402344,52,85,0
31.40625,31.496094,57,86,0
31.5,31.589844,48,87,0
31.5,31.589844,52,87,0
31.59375,31.683594,57,88,0
31.6875,31.777344,48,89,0
31.6875,31.777344,52,89,0
31.78125,31.871094,57,90,0
31.875,31.964844,48,91,0
31.875,31.964844,52,91,0
31.96875,32.058594,57,92,0
32.0625,32.152344,48,93,0
32.0625,32.152344,52,93,0
32.15625,32.246094,57,94,0
32.25,32.339844,48,95,0
32.25,32.339844,52,95,0
32.34375,32.433594,58,96,0
32.4375,32.527344,48,97,0
32.4375,32.527344,52,97,0
32.53125,32.621094,58,98,0
32.625,32.714844,48,99,0
32.625,32.714844,52,99,0
32.71875,32.808594,58,100,0
32.8125,32.902344,48,101,0
32.8125,32.902344,52,101,0
32.90625,32.996094,58,102,0
33.0,33.089844,48,103,0
33.0,33.089844,52,103,0
33.09375,33.183594,58,104,0
33.1875,33.277344,48,105,0
33.1875,33.277344,52,105,0
33.28125,33.371094,58,106,0
33.375,33.464844,48,107,0
33.375,33.464844,52,107,0
33.46875,33.558594,58,108,0
33.5625,33.652344,48,109,0
33.5625,33.652344,52,109,0
33.65625,33.746094,58,110,0
33.75,33.839844,47,80,0
33.84375,33.933594,51,80,0
33.9375,34.027344,54,80,0
34.03125,34.121094,59,80,0
34.125,34.214844,47,80,0
34.21875,34.308594,51,80,0
34.3125,34.402344,54,80,0
34.40625,34.496094,59,80,0
34.5,34.589844,47,80,0
34.59375,34.683594,51,80,0
34.6875,34.777344,55,80,0
34.78125,34.871094,59,80,0
34.875,34.964844,47,80,0
34.96875,35.058594,51,80,0
35.0625,35.152344,55,80,0
35.15625,35.246094,59,80,0
35.25,35.339844,47,80,0
35.34375,35.433594,54,80,0
35.4375,35.527344,57,80,0
35.53125,35.621094,59,80,0
35.625,35.714844,47,80,0
35.71875,35.808594,54,80,0
35.8125,35.902344,57,80,0
35.90625,35.996094,59,80,0
36.0,36.089844,47,80,0
36.09375,36.183594,52,80,0
36.1875,36.277344,55,80,0
36.28125,36.371094,59,80,0
36.375,36.464844,47,80,0
36.46875,36.558594,52,80,0
36.5625,36.652344,55,80,0
36.65625,36.746094,59,80,0
36.75,36.839844,47,80,0
36.84375,36.933594,51,80,0
36.9375,37.027344,54,80,0
37.03125,37.121094,59,80,0
37.125,37.214844,47,80,0
37.21875,37.308594,51,80,0
37.3125,37.402344,54,80,0
37.40625,37.496094,59,80,0
37.5,37.589844,47,80,0
37.59375,37.683594,51,80,0
37.6875,37.777344,55,80,0
37.78125,37.871094,59,80,0
37.875,37.964844,47,80,0
37.96875,38.058594,51,80,0
38.0625,38.152344,55,80,0
38.15625,38.246094,59,80,0
38.25,38.339844,47,80,0
38.34375,38.433594,54,80,0
38.4375,38.527344,57,80,0
38.53125,38.621094,59,80,0
38.625,38.714844,47,80,0
38.71875,38.808594,54,80,0
38.8125,38.902344,57,80,0
38.90625,38.996094,59,80,0
39.0,39.089844,47,80,0
39.09375,39.183594,52,80,0
39.1875,39.277344,55,80,0
39.28125,39.371094,59,80,0
39.375,39.464844,47,80,0
39.46875,39.558594,52,80,0
39.5625,39.652344,55,80,0
39.65625,39.746094,59,80,0
39.75,39.839844,47,80,0
39.84375,39.933594,51,82,0
39.9375,40.027344,54,84,0
40.03125,40.121094,59,86,0
40.125,40.214844,58,88,0
40.21875,40.308594,59,90,0
40.3125,40.402344,55,92,0
40.40625,40.496094,52,94,0
40.5,40.589844,47,96,0
40.59375,40.683594,51,98,0
40.6875,40.777344,54,100,0
40.78125,40.871094,59,102,0
40.875,40.964844,58,104,0
40.96875,41.058594,59,106,0
41.0625,41.152344,55,108,0
41.15625,41.246094,52,110,0
41.25,41.339844,47,110,0
41.34375,41.433594,51,110,0
41.4375,41.527344,54,110,0
41.53125,41.621094,59,110,0
41.625,41.714844,47,110,0
41.71875,41.808594,52,110,0
41.8125,41.902344,55,110,0
41.90625,41.996094,59,110,0
42.0,42.089844,47,110,0
42.09375,42.183594,51,110,0
42.1875,42.277344,54,110,0
42.28125,42.371094,59,110,0
42.375,42.464844,47,110,0
42.46875,42.558594,52,110,0
42.5625,42.652344,55,110,0
42.65625,42.746094,59,110,0
42.75,43.121094,59,110,0
42.75,43.121094,54,110,0
42.75,43.121094,51,110,0
42.75,43.121094,47,110,0
45.375,45.464844,35,110,0
45.46875,45.558594,39,110,0
45.5625,45.652344,42,110,0
45.65625,45.746094,47,110,0
45.75,45.933594,35,110,0
45.9375,46.121094,47,109,0
46.125,46.308594,37,107,0
46.3125,46.496094,49,105,0
46.5,46.683594,39,103,0
46.6875,46.871094,51,101,0
47.25,47.433594,39,95,0
47.4375,47.621094,51,93,0
47.625,47.808594,40,91,0
47.8125,47.996094,52,89,0
48.0,48.183594,42,87,0
48.1875,48.371094,54,85,0
49.607143,49.816963,42,80,0
49.821426,50.03125,54,80,0
50.035713,50.245533,44,80,0
50.25,50.45982,56,80,0
50.464283,50.674107,45,80,0
50.67857,50.88839,57,80,0
50.892857,51.102676,47,80,0
51.10714,51.316963,59,80,0
51.321426,51.539017,49,80,0
51.543648,51.761242,61,80,0
51.76587,52.010662,51,80,0
52.01587,52.30962,63,80,0
52.31587,53.200127,68,80,0
52.31587,53.200127,64,80,0
53.204758,53.644573,66,80,0
53.204758,53.644573,63,80,0
53.204758,53.644573,59,80,0
53.6492,54.089016,64,80,0
53.6492,54.089016,61,80,0
54.093647,54.977905,63,80,0
54.093647,54.977905,60,80,0
54.093647,54.977905,56,80,0
54.982533,55.86679,61,80,0
54.982533,55.86679,57,80,0
55.87142,56.75568,63,80,0
55.87142,56.75568,59,80,0
55.87142,56.75568,57,80,0
55.87142,56.75568,54,80,0
56.76031,57.200123,64,99,0
56.76031,57.200123,59,99,0
56.76031,57.200123,56,99,0
57.204754,57.64457,66,109,0
57.204754,57.64457,61,109,0
57.204754,57.64457,57,109,0
57.649197,58.6042,68,110,0
57.649197,58.6042,64,110,0
57.649197,59.527466,59,110,0
58.6092,59.527466,66,91,0
58.6092,59.527466,63,91,0
59.532272,60.41653,56,80,0
59.532272,60.41653,52,80,0
60.42116,60.860977,54,80,0
60.42116,60.860977,51,80,0
60.42116,60.860977,47,80,0
60.865604,61.30542,52,80,0
60.865604,61.30542,49,80,0
61.31005,62.19431,51,80,0
61.31005,62.19431,48,80,0
61.31005,62.19431,44,80,0
62.198936,63.083195,49,80,0
62.198936,63.083195,45,80,0
63.087826,64.86097,47,80,0
63.087826,64.86097,35,80,0
64.8656,65.30542,52,80,0
64.8656,65.30542,40,80,0
66.64338,67.52763,68,80,0
66.64338,67.52763,64,80,0
67.532265,67.972084,66,80,0
67.532265,67.972084,63,80,0
67.532265,67.972084,59,80,0
67.97671,68.41653,61,80,0
67.97671,68.41653,64,80,0
68.42115,69.30541,66,80,0
68.42115,69.30541,63,80,0
68.42115,69.30541,60,80,0
69.31004,70.1943,61,80,0
69.31004,70.1943,57,80,0
70.19893,71.08319,59,80,0
70.19893,71.08319,63,80,0
70.19893,71.08319,57,80,0
70.19893,71.08319,54,80,0
71.087814,71.52763,64,96,0
71.087814,71.52763,59,96,0
71.087814,71.52763,56,96,0
71.532265,71.97208,66,105,0
71.532265,71.97208,61,105,0
71.532265,71.97208,57,105,0
71.97671,72.86096,68,110,0
71.97671,72.86096,64,110,0
71.97671,73.305405,59,110,0
72.86559,73.305405,66,110,0
72.86559,73.305405,63,110,0
73.310036,73.45356,47,99,0
73.45818,73.60171,49,95,0
73.60633,73.749855,51,91,0
73.75448,74.63874,52,80,0
73.75448,74.63874,56,80,0
74.64337,75.08318,54,80,0
74.64337,75.08318,51,80,0
74.64337,75.08318,47,80,0
75.087814,75.527626,52,80,0
75.087814,75.527626,49,80,0
75.53226,76.41652,51,80,0
75.53226,76.41652,48,80,0
75.53226,76.41652,44,80,0
76.42114,77.305405,49,80,0
76.42114,77.305405,45,80,0
77.310036,79.0516,47,80,0
77.310036,79.0516,35,80,0
79.05606,79.465546,52,110,0
79.05606,79.465546,40,110,0
79.46986,80.29313,47,110,0
80.29744,81.12072,47,110,0
81.12503,81.9483,47,110,0
81.952614,82.3621,47,110,0
82.36641,82.50003,52,110,0
82.50434,82.63796,47,110,0
82.64227,82.775894,44,110,0
82.780205,82.91382,47,110,0
82.91813,83.05175,52,110,0
83.05606,83.18968,56,110,0
83.19399,83.327614,54,110,0
83.331924,83.465546,51,110,0
83.46986,83.60348,47,110,0
83.60779,83.74141,51,110,0
83.74572,83.87934,54,110,0
83.88365,84.01727,57,110,0
84.02158,84.1552,56,110,0
84.15951,84.29313,52,110,0
84.29744,84.43106,47,110,0
84.43537,84.56899,52,110,0
84.5733,84.706924,56,110,0
84.711235,84.84486,59,110,0
84.84917,84.98279,57,110,0
84.9871,85.12072,54,110,0
85.12503,85.25865,51,110,0
85.26296,85.396576,63,110,0
85.40089,85.53451,59,110,0
85.53882,85.67244,54,110,0
85.67675,85.81037,56,110,0
85.81468,85.9483,59,110,0
85.952614,86.086235,64,110,0
86.090546,86.22417,59,110,0
86.22848,86.3621,56,110,0
86.36641,86.50003,52,110,0
86.50434,86.63796,51,110,0
86.642265,86.77589,54,110,0
86.7802,86.91382,57,110,0
86.91813,87.05175,54,110,0
87.05606,87.18968,51,110,0
87.19399,87.327614,47,110,0
87.331924,87.465546,52,110,0
87.46986,87.60348,56,110,0
87.60779,87.74141,59,110,0
87.74572,87.87934,56,110,0
87.88365,88.017265,52,110,0
88.021576,88.1552,47,110,0
88.15951,88.29313,54,110,0
88.29744,88.43106,57,110,0
88.43537,88.56899,59,110,0
88.5733,88.706924,57,110,0
88.711235,88.84486,59,110,0
88.84917,88.98279,66,110,0
88.9871,89.12072,56,110,0
89.12503,89.258644,59,110,0
89.262955,89.396576,64,110,0
89.40089,89.53451,52,110,0
89.53882,89.67244,56,110,0
89.67675,89.81037,59,109,0
89.81468,89.9483,54,108,0
89.952614,90.086235,57,107,0
90.090546,90.22417,59,106,0
90.22848,90.3621,57,105,0
90.36641,90.50002,59,104,0
90.50433,90.637955,66,103,0
90.642265,90.77589,56,102,0
90.7802,90.91382,59,101,0
90.91813,91.05175,64,100,0
91.05606,91.18968,52,99,0
91.19399,91.327614,56,98,0
91.331924,91.465546,59,97,0
91.46986,91.60348,54,96,0
91.60779,91.74141,57,95,0
91.74571,91.87933,59,94,0
91.883644,92.017265,57,93,0
92.021576,92.1552,59,92,0
92.15951,92.29313,66,91,0
92.29744,92.396576,56,90,0
92.40089,92.50002,59,90,0
92.50433,92.60348,52,91,0
92.60779,92.706924,59,92,0
92.711235,92.81037,54,92,0
92.81468,92.91382,59,93,0
92.91813,93.017265,57,94,0
93.021576,93.12071,59,94,0
93.12502,93.22417,56,95,0
93.22848,93.327614,59,96,0
93.331924,93.43106,52,96,0
93.43537,93.53451,59,97,0
93.53882,93.637955,54,98,0
93.642265,93.7414,59,98,0
93.74571,93.84486,57,99,0
93.84917,93.9483,59,100,0
93.952614,94.04845,56,100,0
94.05261,94.148445,59,101,0
94.15261,94.24844,57,102,0
94.25261,94.34844,59,102,0
94.352615,94.44845,56,103,0
94.452614,94.54845,59,104,0
94.55261,94.648445,57,104,0
94.65261,94.74844,59,105,0
94.75261,94.84844,56,106,0
94.852615,94.94845,59,106,0
94.952614,95.04845,57,107,0
95.05261,95.148445,59,108,0
95.15261,95.24844,56,108,0
95.25261,95.34844,59,109,0
95.352615,95.44845,57,110,0
95.452614,95.54845,59,110,0
95.55261,95.645355,56,110,0
95.64938,95.74213,59,110,0
95.74616,95.838905,44,110,0
95.84293,95.93568,52,110,0
95.939705,96.03245,44,110,0
96.03648,96.12923,52,110,0
96.133255,96.226,44,110,0
96.23003,96.32277,52,110,0
96.326805,96.41665,44,110,0
96.420555,96.5104,52,110,0
96.514305,96.60415,44,110,0
96.608055,96.6979,52,110,0
96.701805,96.79165,44,110,0
96.795555,96.8854,52,110,0
96.889305,96.97915,44,110,0
96.983055,97.0729,52,110,0
97.076805,97.16665,44,110,0
97.170555,97.2604,52,110,0
97.264305,97.35415,44,110,0
97.358055,97.4479,52,110,0
97.451805,97.54165,44,110,0
97.545555,97.6354,52,110,0
97.639305,97.72915,44,110,0
97.733055,97.8229,52,110,0
97.826805,97.91665,44,110,0
97.920555,98.0104,52,110,0
98.014305,98.10415,44,110,0
98.108055,98.1979,52,110,0
98.201805,98.29165,44,110,0
98.295555,98.3854,52,110,0
98.389305,98.47915,44,110,0
98.483055,98.5729,52,110,0
98.576805,98.7604,52,120,0
98.576805,98.7604,49,120,0
98.576805,98.7604,45,120,0
98.764305,98.9479,52,120,0
98.764305,98.9479,49,120,0
98.764305,98.9479,45,120,0
99.139305,99.3229,52,120,0
99.139305,99.3229,49,120,0
99.139305,99.3229,45,120,0
99.326805,99.5104,52,120,0
99.326805,99.5104,49,120,0
99.326805,99.5104,45,120,0
99.514305,99.6979,52,120,0
99.514305,99.6979,49,120,0
99.514305,99.6979,45,120,0
99.889305,100.0729,52,120,0
99.889305,100.0729,49,120,0
99.889305,100.0729,45,120,0
100.076805,100.2604,52,120,0
100.076805,100.2604,49,120,0
100.076805,100.2604,45,120,0
100.264305,100.4479,52,120,0
100.264305,100.4479,49,120,0
100.264305,100.4479,45,120,0
100.639305,100.8229,52,120,0
100.639305,100.8229,49,120,0
100.639305,100.8229,45,120,0
100.826805,101.0104,52,120,0
100.826805,101.0104,49,120,0
100.826805,101.0104,45,120,0
101.014305,101.1979,52,120,0
101.014305,101.1979,49,120,0
101.014305,101.1979,45,120,0
101.389305,101.5729,52,120,0
101.389305,101.5729,49,120,0
101.389305,101.5729,45,120,0
101.576805,101.7604,54,120,0
101.576805,101.7604,52,120,0
101.576805,101.7604,46,120,0
101.576805,101.7604,49,120,0
101.764305,101.9479,54,120,0
101.764305,101.9479,52,120,0
101.764305,101.9479,49,120,0
101.764305,101.9479,46,120,0
102.139305,102.3229,54,120,0
102.139305,102.3229,52,120,0
102.139305,102.3229,49,120,0
102.139305,102.3229,46,120,0
102.326805,102.5104,54,120,0
102.326805,102.5104,52,120,0
102.326805,102.5104,46,120,0
102.326805,102.5104,49,120,0
102.514305,102.6979,54,120,0
102.514305,102.6979,52,120,0
102.514305,102.6979,49,120,0
102.514305,102.6979,46,120,0
102.889305,103.0729,54,120,0
102.889305,103.0729,52,120,0
102.889305,103.0729,49,120,0
102.889305,103.0729,46,120,0
103.076805,103.2604,54,120,0
103.076805,103.2604,52,120,0
103.076805,103.2604,46,120,0
103.076805,103.2604,49,120,0
103.264305,103.4479,54,120,0
103.264305,103.4479,52,120,0
103.264305,103.4479,49,120,0
103.264305,103.4479,46,120,0
103.639305,103.8229,54,120,0
103.639305,103.8229,52,120,0
103.639305,103.8229,49,120,0
103.639305,103.8229,46,120,0
103.826805,104.0104,54,120,0
103.826805,104.0104,52,120,0
103.826805,104.0104,46,120,0
103.826805,104.0104,49,120,0
104.014305,104.1979,54,120,0
104.014305,104.1979,52,120,0
104.014305,104.1979,49,120,0
104.014305,104.1979,46,120,0
104.389305,104.5729,54,120,0
104.389305,104.5729,52,120,0
104.389305,104.5729,49,120,0
104.389305,104.5729,46,120,0
104.576805,104.66955,47,120,0
104.67358,104.76632,52,120,0
104.770355,104.86309,56,120,0
104.86713,104.95987,59,120,0
104.9639,105.05664,47,120,0
105.06068,105.15342,52,120,0
105.15745,105.25019,56,120,0
105.25422,105.34696,59,120,0
105.351,105.44374,47,120,0
105.44777,105.54051,52,120,0
105.54454,105.63728,56,120,0
105.64132,105.73406,59,120,0
105.73809,105.83083,47,120,0
105.83487,105.927605,52,120,0
105.93164,106.02438,56,120,0
106.02841,106.121155,59,120,0
106.12519,106.217926,47,120,0
106.22196,106.314705,52,120,0
106.31873,106.411476,56,120,0
106.41551,106.508255,59,120,0
106.51228,106.60503,47,120,0
106.609055,106.7018,52,120,0
106.70583,106.79858,56,120,0
106.802605,106.89535,59,120,0
106.89938,107.0889,56,120,0
107.092926,107.28244,56,120,0
107.286476,107.47599,52,120,0
107.48003,107.66954,47,120,0
107.67357,107.86309,59,120,0
107.86712,108.05663,56,80,0
108.06067,108.25018,64,80,0
108.25422,108.44373,59,80,0
108.44776,108.63728,68,80,0
108.64131,108.830826,64,80,0
108.83486,109.024376,71,80,0
109.028404,109.217926,68,80,0
109.221954,109.41147,76,80,0
109.415504,109.60502,71,80,0
109.609055,109.79857,76,80,0
109.8026,109.99212,71,80,0
109.99615,110.18566,76,80,0
110.1897,110.37921,71,80,0
110.38325,110.57276,76,80,0
110.57679,110.766304,71,80,0
110.77034,110.959854,75,80,0
110.96389,111.153404,71,79,0
111.15743,111.346954,75,78,0
111.35098,111.5405,71,77,0
111.54453,111.73405,75,75,0
111.73808,111.9276,71,74,0
111.931625,112.12115,75,73,0
112.125175,112.31469,71,71,0
112.318726,112.50824,75,70,0
112.512276,112.70179,71,70,0
112.70582,112.89533,75,70,0
112.89937,113.08888,71,70,0
113.09292,113.28243,75,70,0
113.28646,113.47598,71,70,0
113.48001,113.669525,75,70,0
113.67356,113.863075,71,70,0
113.86711,113.947754,75,70,0
113.9155,114.0042,76,70,0
113.96388,114.044525,75,71,0
114.01227,114.09695,76,71,0
114.06065,114.141304,75,72,0
114.10904,114.197754,76,73,0
114.15743,114.238075,75,73,0
114.20582,114.2905,76,74,0
114.2542,114.33485,75,75,0
114.30259,114.391304,76,75,0
114.350975,114.431625,75,76,0
114.39937,114.48404,76,77,0
114.447754,114.5284,75,77,0
114.49614,114.58485,76,78,0
114.544525,114.62517,75,78,0
114.59291,114.67759,76,79,0
114.6413,114.72195,75,80,0
114.68969,114.7784,76,80,0
114.738075,114.81872,75,81,0
114.78646,114.87114,76,82,0
114.83485,114.91549,75,82,0
114.88323,114.97195,76,83,0
114.931625,115.01227,75,84,0
114.98001,115.06469,76,84,0
115.0284,115.10904,75,85,0
115.07678,115.16549,76,85,0
115.12517,115.20582,75,86,0
115.17355,115.25823,76,87,0
115.22195,115.30259,75,87,0
115.27033,115.35904,76,88,0
115.31872,115.39936,75,89,0
115.3671,115.45178,76,89,0
115.41549,115.49614,75,90,0
115.46388,115.55259,76,91,0
115.51227,115.59291,75,91,0
115.56065,115.64533,76,92,0
115.60904,115.68968,75,93,0
115.657425,115.74614,76,93,0
115.70581,115.78646,75,94,0
115.7542,115.838875,76,94,0
115.80259,115.88323,75,95,0
115.850975,115.93968,76,96,0
115.89936,115.98,75,96,0
115.94775,116.032425,76,97,0
115.99614,116.07678,75,98,0
116.044525,116.13323,76,98,0
116.09291,116.17355,75,99,0
116.1413,116.225975,76,100,0
116.18968,116.27033,75,100,0
116.23807,116.32678,76,101,0
116.28646,116.3671,75,101,0
116.33485,116.419525,76,102,0
116.38323,116.463875,75,103,0
116.43162,116.520325,76,103,0
116.48,116.56065,75,104,0
116.5284,116.61428,76,105,0
116.57678,116.66011,75,105,0
116.62678,116.718445,76,106,0
116.67678,116.76012,75,107,0
116.72678,116.81428,76,107,0
116.77678,116.860115,75,108,0
116.82678,116.91845,76,109,0
116.87678,116.96011,73,109,0
116.92678,116.97261,75,110,0
116.97678,117.77261,76,110,0
117.77678,118.57262,74,80,0
117.77678,118.57262,71,80,0
117.77678,118.57262,68,80,0
118.57678,119.37261,69,80,0
118.57678,119.37261,72,80,0
116.97678,120.172615,64,110,0
119.37678,120.172615,74,80,0
119.37678,120.172615,71,80,0
119.37678,120.172615,68,80,0
120.17678,120.57262,72,80,0
120.17678,120.57262,69,80,0
120.97678,121.77261,69,80,0
120.97678,121.77261,66,80,0
120.97678,121.77261,60,80,0
120.97678,121.77261,57,80,0
121.77678,122.57262,67,80,0
121.77678,122.57262,59,80,0
121.77678,122.57262,64,80,0
122.57678,123.37261,66,80,0
122.57678,123.37261,63,80,0
122.57678,123.37261,59,80,0
123.37678,124.172615,64,100,0
124.17678,124.97261,62,80,0
124.17678,124.97261,59,80,0
124.17678,124.97261,56,80,0
124.97678,125.77261,57,80,0
124.97678,125.77261,60,80,0
123.37678,126.57262,52,100,0
125.77678,126.57262,62,80,0
125.77678,126.57262,59,80,0
125.77678,126.57262,56,80,0
126.57678,126.97261,60,80,0
126.57678,126.97261,57,80,0
127.37678,128.1726,57,80,0
127.37678,128.1726,54,80,0
127.37678,128.1726,48,80,0
127.37678,128.1726,45,80,0
128.17677,128.97261,55,80,0
128.17677,128.97261,47,80,0
128.17677,128.97261,52,80,0
128.97678,129.77261,54,80,0
128.97678,129.77261,51,80,0
128.97678,129.77261,47,80,0
129.77678,130.1726,55,80,0
129.77678,130.1726,52,80,0
130.17677,130.57262,43,80,0
130.17677,130.77261,52,80,0
130.77678,130.97261,53,80,0
130.97678,131.1726,55,80,0
130.57678,131.37262,45,80,0
131.17677,131.37262,57,80,0
131.37679,132.1726,59,80,0
131.37679,132.1726,55,80,0
131.37679,132.97261,47,80,0
132.17677,132.97261,57,80,0
132.17677,132.97261,54,80,0
132.97678,133.37262,55,80,0
132.97678,133.37262,52,80,0
132.97678,133.37262,48,80,0
133.37679,133.77261,40,80,0
133.37679,133.97261,48,80,0
133.97678,134.1726,50,80,0
134.17677,134.37262,52,80,0
133.77678,134.57262,41,80,0
134.37679,134.57262,53,80,0
134.57678,135.37262,55,80,0
134.57678,135.37262,52,80,0
134.57678,136.1726,43,80,0
135.37679,136.1726,53,80,0
135.37679,136.1726,50,80,0
136.17677,136.3663,36,80,0
136.17677,136.3663,48,80,0
136.37033,136.55984,43,80,0
136.37033,136.55984,36,80,0
136.56387,136.75339,36,80,0
136.56387,136.75339,43,80,0
136.75743,136.94695,43,80,0
136.75743,136.94695,36,80,0
136.95097,137.14049,36,80,0
136.95097,137.14049,43,80,0
137.14452,137.33403,43,80,0
137.14452,137.33403,36,80,0
137.33807,137.52759,36,80,0
137.33807,137.52759,43,80,0
137.53162,137.72113,43,80,0
137.53162,137.72113,36,80,0
137.72516,137.91467,36,80,0
137.72516,137.91467,43,80,0
137.91872,138.10823,43,80,0
137.91872,138.10823,36,80,0
138.11226,138.30177,36,80,0
138.11226,138.30177,43,80,0
138.3058,138.49533,43,80,0
138.3058,138.49533,36,80,0
138.49936,138.68887,36,80,0
138.49936,138.68887,43,80,0
138.6929,138.88242,43,80,0
138.6929,138.88242,36,80,0
138.88646,139.07597,36,80,0
138.88646,139.07597,45,80,0
139.08,139.26952,36,80,0
139.08,139.26952,45,80,0
139.27354,139.46306,43,80,0
139.27354,139.46306,35,80,0
139.4671,139.65662,43,80,0
139.4671,139.65662,35,80,0
139.66064,139.85016,35,80,0
139.66064,139.85016,43,80,0
139.85419,140.0437,43,80,0
139.85419,140.0437,35,80,0
140.04774,140.23726,43,80,0
140.04774,140.23726,35,80,0
140.24129,140.4308,43,80,0
140.24129,140.4308,35,80,0
140.43483,140.62436,35,80,0
140.43483,140.62436,43,80,0
140.62839,140.8179,43,80,0
140.62839,140.8179,35,80,0
140.82193,141.01144,43,80,0
140.82193,141.01144,35,80,0
141.01547,141.205,43,80,0
141.01547,141.205,35,80,0
141.20903,141.39854,35,80,0
141.20903,141.39854,43,80,0
141.40257,141.59209,43,80,0
141.40257,141.59209,35,80,0
141.59613,141.78564,43,80,0
141.59613,141.78564,35,80,0
141.78967,141.97919,43,80,0
141.78967,141.97919,35,80,0
141.98322,142.17273,35,80,0
141.98322,142.17273,43,80,0
142.17677,142.36629,43,80,0
142.17677,142.36629,35,80,0
142.37032,142.55983,41,80,0
142.37032,142.55983,34,80,0
142.56386,142.75337,41,80,0
142.56386,142.75337,34,80,0
142.75742,142.94693,41,80,0
142.75742,142.94693,34,80,0
142.95096,143.14047,41,80,0
142.95096,143.14047,34,80,0
143.1445,143.33403,41,80,0
143.1445,143.33403,34,80,0
143.33806,143.52757,41,80,0
143.33806,143.52757,34,80,0
143.5316,143.72112,41,80,0
143.5316,143.72112,34,80,0
143.72516,143.91467,41,80,0
143.72516,143.91467,34,80,0
143.9187,144.10822,41,80,0
143.9187,144.10822,34,80,0
144.11224,144.30176,41,80,0
144.11224,144.30176,34,80,0
144.3058,144.49532,41,80,0
144.3058,144.49532,34,80,0
144.49934,144.68886,41,80,0
144.49934,144.68886,34,80,0
144.69289,144.8824,41,80,0
144.69289,144.8824,34,80,0
144.88644,145.07596,41,80,0
144.88644,145.07596,34,80,0
145.07999,145.2695,34,80,0
145.07999,145.2695,43,80,0
145.27353,145.46306,34,80,0
145.27353,145.46306,43,80,0
145.46709,145.6566,41,80,0
145.46709,145.6566,33,80,0
145.66063,145.85014,41,80,0
145.66063,145.85014,33,80,0
145.85419,146.0437,41,80,0
145.85419,146.0437,33,80,0
146.04773,146.23724,33,80,0
146.04773,146.23724,41,80,0
146.24127,146.43079,41,80,0
146.24127,146.43079,33,80,0
146.43483,146.62434,41,80,0
146.43483,146.62434,33,80,0
146.62837,146.81789,41,80,0
146.62837,146.81789,33,80,0
146.82191,147.01143,33,80,0
146.82191,147.01143,41,80,0
147.01547,147.20499,41,80,0
147.01547,147.20499,31,80,0
147.20901,147.39853,41,80,0
147.20901,147.39853,31,80,0
147.40256,147.59209,41,80,0
147.40256,147.59209,31,80,0
147.59612,147.78563,41,80,0
147.59612,147.78563,31,80,0
147.78966,147.97917,41,80,0
147.78966,147.97917,31,80,0
147.98322,148.17273,41,80,0
147.98322,148.17273,31,80,0
148.17676,148.36627,41,80,0
148.17676,148.36627,32,80,0
148.3703,148.55981,41,80,0
148.3703,148.55981,32,80,0
148.56386,148.75337,41,80,0
148.56386,148.75337,31,80,0
148.7574,148.94691,41,81,0
148.7574,148.94691,31,81,0
148.95094,149.14046,41,83,0
148.95094,149.14046,31,83,0
149.1445,149.33401,41,85,0
149.1445,149.33401,31,85,0
149.33804,149.52756,41,87,0
149.33804,149.52756,31,87,0
149.53159,149.72112,41,89,0
149.53159,149.72112,31,89,0
149.72514,149.91466,41,91,0
149.72514,149.91466,32,91,0
149.91869,150.1082,41,93,0
149.91869,150.1082,32,93,0
150.11223,150.30176,41,95,0
150.11223,150.30176,31,95,0
150.30579,150.4953,41,97,0
150.30579,150.4953,31,97,0
150.49933,150.68884,41,99,0
150.49933,150.68884,31,99,0
150.69289,150.8824,41,101,0
150.69289,150.8824,31,101,0
150.88643,151.07594,41,103,0
150.88643,151.07594,31,103,0
151.07997,151.26949,41,105,0
151.07997,151.26949,31,105,0
151.27353,151.46304,41,107,0
151.27353,151.46304,32,107,0
151.46707,151.65659,41,108,0
151.46707,151.65659,32,108,0
151.66061,152.04369,41,110,0
151.66061,152.04369,31,110,0
152.04771,153.01143,55,110,0
152.04771,153.01143,43,110,0
153.01546,153.1082,57,110,0
153.11223,153.20497,59,110,0
153.209,153.39851,60,100,0
153.5961,153.78561,55,96,0
153.5961,153.78561,43,96,0
153.9832,154.22798,51,91,0
153.9832,154.22798,39,91,0
154.4832,154.72798,48,86,0
154.4832,154.72798,36,86,0
154.9832,156.97798,43,81,0
154.9832,156.97798,31,81,0
156.9832,157.1668,48,80,0
156.9832,157.1668,36,80,0
157.1707,157.32304,48,80,0
157.26445,157.44414,55,80,0
157.3582,157.52617,48,80,0
157.45195,157.62773,55,80,0
157.5457,157.72148,48,80,0
157.63945,157.7996,55,80,0
157.7332,157.9168,48,80,0
157.82695,157.9793,55,80,0
157.9207,158.07304,48,80,0
158.01445,158.16289,55,80,0
158.1082,158.26836,48,80,0
158.20195,158.37383,55,80,0
158.2957,158.44804,48,80,0
158.38945,158.5496,55,80,0
158.4832,158.64336,48,80,0
158.57695,158.75273,55,80,0
158.6707,158.83867,48,80,0
158.76445,158.94023,55,80,0
158.8582,159.01445,48,80,0
158.95195,159.11992,55,80,0
159.0457,159.21758,48,80,0
159.13945,159.32304,55,80,0
159.2332,159.4168,48,80,0
159.32695,159.49101,55,80,0
159.4207,159.56523,48,80,0
159.51445,159.6707,55,80,0
159.6082,159.77226,48,80,0
159.70195,159.86601,57,80,0
159.7957,159.94804,48,80,0
159.88945,159.9793,57,80,0
159.9832,160.07304,50,80,0
159.9832,160.07304,47,80,0
160.07695,160.1668,55,80,0
160.1707,160.26054,50,80,0
160.1707,160.26054,47,80,0
160.26445,160.3543,55,80,0
160.3582,160.44804,50,80,0
160.3582,160.44804,47,80,0
160.45195,160.5418,55,80,0
160.5457,160.63554,50,80,0
160.5457,160.63554,47,80,0
160.63945,160.7293,55,80,0
160.7332,160.82304,50,80,0
160.7332,160.82304,47,80,0
160.82695,160.9168,55,80,0
160.9207,161.01054,50,80,0
160.9207,161.01054,47,80,0
161.01445,161.1043,55,80,0
161.1082,161.19804,50,80,0
161.1082,161.19804,47,80,0
161.20195,161.2918,55,80,0
161.2957,161.38554,50,80,0
161.2957,161.38554,47,80,0
161.38945,161.4793,55,80,0
161.4832,161.57304,50,80,0
161.4832,161.57304,47,80,0
161.57695,161.6668,55,80,0
161.6707,161.76054,50,80,0
161.6707,161.76054,47,80,0
161.76445,161.8543,55,80,0
161.8582,161.94804,50,80,0
161.8582,161.94804,47,80,0
161.95195,162.0418,55,80,0
162.0457,162.13554,50,80,0
162.0457,162.13554,47,80,0
162.13945,162.2293,55,80,0
162.2332,162.32304,50,80,0
162.2332,162.32304,47,80,0
162.32695,162.4168,55,80,0
162.4207,162.51054,50,80,0
162.4207,162.51054,47,80,0
162.51445,162.6043,55,80,0
162.6082,162.69804,50,80,0
162.6082,162.69804,47,80,0
162.70195,162.7918,55,80,0
162.7957,162.88554,50,80,0
162.7957,162.88554,47,80,0
162.88945,162.9793,55,80,0
162.9832,163.1668,50,80,0
162.9832,163.1668,38,80,0
163.1707,163.26054,50,80,0
163.26445,163.3543,57,80,0
163.3582,163.44804,50,80,0
163.45195,163.5418,57,80,0
163.5457,163.63554,50,80,0
163.63945,163.7293,57,80,0
163.7332,163.82304,50,80,0
163.82695,163.9168,57,80,0
163.9207,164.01054,50,80,0
164.01445,164.1043,57,80,0
164.1082,164.19804,50,80,0
164.20195,164.2918,57,80,0
164.2957,164.38554,50,80,0
164.38945,164.4793,57,80,0
164.4832,164.57304,50,80,0
164.57695,164.6668,57,80,0
164.6707,164.76054,50,80,0
164.76445,164.8543,57,80,0
164.8582,164.94804,50,80,0
164.95195,165.0418,57,80,0
165.0457,165.13554,50,80,0
165.13945,165.2293,57,80,0
165.2332,165.32304,50,80,0
165.32695,165.4168,57,80,0
165.4207,165.51054,50,80,0
165.51445,165.6043,57,80,0
165.6082,165.69804,50,80,0
165.70195,165.7918,59,80,0
165.7957,165.88554,50,80,0
165.88945,165.9793,59,80,0
165.9832,166.07304,48,80,0
165.9832,166.07304,52,80,0
166.07695,166.1668,57,80,0
166.1707,166.26054,48,80,0
166.1707,166.26054,52,80,0
166.26445,166.3543,57,80,0
166.3582,166.44804,48,80,0
166.3582,166.44804,52,80,0
166.45195,166.5418,57,80,0
166.5457,166.63554,48,80,0
166.5457,166.63554,52,80,0
166.63945,166.7293,57,80,0
166.7332,166.82304,48,80,0
166.7332,166.82304,52,80,0
166.82695,166.9168,57,80,0
166.9207,167.01054,48,80,0
166.9207,167.01054,52,80,0
167.01445,167.1043,57,80,0
167.1082,167.19804,48,80,0
167.1082,167.19804,52,80,0
167.20195,167.2918,57,80,0
167.2957,167.38554,48,80,0
167.2957,167.38554,52,80,0
167.38945,167.4793,57,80,0
167.4832,167.57304,48,80,0
167.4832,167.57304,52,80,0
167.57695,167.6668,57,80,0
167.6707,167.76054,48,81,0
167.6707,167.76054,52,81,0
167.76445,167.8543,57,82,0
167.8582,167.94804,48,83,0
167.8582,167.94804,52,83,0
167.95195,168.0418,57,84,0
168.0457,168.13554,48,85,0
168.0457,168.13554,52,85,0
168.13945,168.2293,57,86,0
168.2332,168.32304,48,87,0
168.2332,168.32304,52,87,0
168.32695,168.4168,57,88,0
168.4207,168.51054,48,89,0
168.4207,168.51054,52,89,0
168.51445,168.6043,57,90,0
168.6082,168.69804,48,91,0
168.6082,168.69804,52,91,0
168.70195,168.7918,57,92,0
168.7957,168.88554,48,93,0
168.7957,168.88554,52,93,0
168.88945,168.9793,57,94,0
168.9832,169.07304,48,95,0
168.9832,169.07304,52,95,0
169.07695,169.1668,58,96,0
169.1707,169.26054,48,97,0
169.1707,169.26054,52,97,0
169.26445,169.3543,58,98,0
169.3582,169.44804,48,99,0
169.3582,169.44804,52,99,0
169.45195,169.5418,58,100,0
169.5457,169.63554,48,101,0
169.5457,169.63554,52,101,0
169.63945,169.7293,58,102,0
169.7332,169.82304,48,103,0
169.7332,169.82304,52,103,0
169.82695,169.9168,58,104,0
169.9207,170.01054,48,105,0
169.9207,170.01054,52,105,0
170.01445,170.1043,58,106,0
170.1082,170.19804,48,107,0
170.1082,170.19804,52,107,0
170.20195,170.2918,58,108,0
170.2957,170.38554,48,109,0
170.2957,170.38554,52,109,0
170.38945,170.4793,58,110,0
170.4832,170.57304,47,80,0
170.57695,170.6668,51,80,0
170.6707,170.76054,54,80,0
170.76445,170.8543,59,80,0
170.8582,170.94804,47,80,0
170.95195,171.0418,51,80,0
171.0457,171.13554,54,80,0
171.13945,171.2293,59,80,0
171.2332,171.32304,47,80,0
171.32695,171.4168,51,80,0
171.4207,171.51054,55,80,0
171.51445,171.6043,59,80,0
171.6082,171.69804,47,80,0
171.70195,171.7918,51,80,0
171.7957,171.88554,55,80,0
171.88945,171.9793,59,80,0
171.9832,172.07304,47,80,0
172.07695,172.1668,54,80,0
172.1707,172.26054,57,80,0
172.26445,172.3543,59,80,0
172.3582,172.44804,47,80,0
172.45195,172.5418,54,80,0
172.5457,172.63554,57,80,0
172.63945,172.7293,59,80,0
172.7332,172.82304,47,80,0
172.82695,172.9168,52,80,0
172.9207,173.01054,55,80,0
173.01445,173.1043,59,80,0
173.1082,173.19804,47,80,0
173.20195,173.2918,52,80,0
173.2957,173.38554,55,80,0
173.38945,173.4793,59,80,0
173.4832,173.57304,47,80,0
173.57695,173.6668,51,80,0
173.6707,173.76054,54,80,0
173.76445,173.8543,59,80,0
173.8582,173.94804,47,80,0
173.95195,174.0418,51,80,0
174.0457,174.13554,54,80,0
174.13945,174.2293,59,80,0
174.2332,174.32304,47,80,0
174.32695,174.4168,51,80,0
174.4207,174.51054,55,80,0
174.51445,174.6043,59,80,0
174.6082,174.69804,47,80,0
174.70195,174.7918,51,80,0
174.7957,174.88554,55,80,0
174.88945,174.9793,59,80,0
174.9832,175.07304,47,80,0
175.07695,175.1668,54,80,0
175.1707,175.26054,57,80,0
175.26445,175.3543,59,80,0
175.3582,175.44804,47,80,0
175.45195,175.5418,54,80,0
175.5457,175.63554,57,80,0
175.63945,175.7293,59,80,0
175.7332,175.82304,47,80,0
175.82695,175.9168,52,80,0
175.9207,176.01054,55,80,0
176.01445,176.1043,59,80,0
176.1082,176.19804,47,80,0
176.20195,176.2918,52,80,0
176.2957,176.38554,55,80,0
176.38945,176.4793,59,80,0
176.4832,176.57304,47,80,0
176.57695,176.6668,51,82,0
176.6707,176.76054,54,84,0
176.76445,176.8543,59,86,0
176.8582,176.94804,58,88,0
176.95195,177.0418,59,90,0
177.0457,177.13554,55,92,0
177.13945,177.2293,52,94,0
177.2332,177.32304,47,96,0
177.32695,177.4168,51,98,0
177.4207,177.51054,54,100,0
177.51445,177.6043,59,102,0
177.6082,177.69804,58,104,0
177.70195,177.7918,59,106,0
177.7957,177.88554,55,108,0
177.88945,177.9793,52,110,0
177.9832,178.07304,47,110,0
178.07695,178.1668,51,110,0
178.1707,178.26054,54,110,0
178.26445,178.3543,59,110,0
178.3582,178.44804,47,110,0
178.45195,178.5418,52,110,0
178.5457,178.63554,55,110,0
178.63945,178.7293,59,110,0
178.7332,178.82304,47,110,0
178.82695,178.9168,51,110,0
178.9207,179.01054,54,110,0
179.01445,179.1043,59,110,0
179.1082,179.19804,47,110,0
179.20195,179.2918,52,110,0
179.2957,179.38554,55,110,0
179.38945,179.4793,59,110,0
179.4832,179.8543,59,110,0
179.4832,179.8543,54,110,0
179.4832,179.8543,51,110,0
179.4832,179.8543,47,110,0
182.1082,182.19804,35,110,0
182.20195,182.2918,39,110,0
182.2957,182.38554,42,110,0
182.38945,182.4793,47,110,0
182.4832,182.6668,35,110,0
182.6707,182.8543,47,109,0
182.8582,183.0418,37,107,0
183.0457,183.2293,49,105,0
183.2332,183.4168,39,103,0
183.4207,183.6043,51,101,0
183.9832,184.1668,39,95,0
184.1707,184.3543,51,93,0
184.3582,184.5418,40,91,0
184.5457,184.7293,52,89,0
184.7332,184.9168,42,87,0
184.9207,185.1043,54,85,0
186.34033,186.55016,42,80,0
186.55463,186.76445,54,80,0
186.7689,186.97873,44,80,0
186.9832,187.19301,56,80,0
187.19748,187.4073,45,80,0
187.41176,187.62158,57,80,0
187.62605,187.83588,47,80,0
187.84033,188.05016,59,80,0
188.05463,188.27222,49,80,0
188.27684,188.49443,61,80,0
188.49907,188.74385,51,80,0
188.74907,188.99385,63,80,0
188.99907,189.88333,68,80,0
188.99907,189.88333,64,80,0
189.88795,190.32777,66,80,0
189.88795,190.32777,63,80,0
189.88795,190.32777,59,80,0
190.3324,190.77222,64,80,0
190.3324,190.77222,61,80,0
190.77684,191.6611,63,80,0
190.77684,191.6611,60,80,0
190.77684,191.6611,56,80,0
191.66573,192.54999,61,80,0
191.66573,192.54999,57,80,0
192.55461,193.43887,63,80,0
192.55461,193.43887,59,80,0
192.55461,193.43887,57,80,0
192.55461,193.43887,54,80,0
193.44351,193.88332,64,99,0
193.44351,193.88332,59,99,0
193.44351,193.88332,56,99,0
193.88795,194.36295,66,109,0
193.88795,194.36295,61,109,0
193.88795,194.36295,57,109,0
194.36795,195.40599,68,110,0
194.36795,195.40599,64,110,0
194.36795,196.36642,59,110,0
195.41142,196.36642,66,91,0
195.41142,196.36642,63,91,0
196.37143,197.25569,56,80,0
196.37143,197.25569,52,80,0
197.26031,197.70013,54,80,0
197.26031,197.70013,51,80,0
197.26031,197.70013,47,80,0
197.70476,198.14458,52,80,0
197.70476,198.14458,49,80,0
198.1492,199.03346,51,80,0
198.1492,199.03346,48,80,0
198.1492,199.03346,44,80,0
199.03809,199.92235,49,80,0
199.03809,199.92235,45,80,0
199.92699,201.70012,47,80,0
199.92699,201.70012,35,80,0
201.70476,202.14458,52,80,0
201.70476,202.14458,40,80,0
203.48253,204.36679,68,80,0
203.48253,204.36679,64,80,0
204.37141,204.81123,66,80,0
204.37141,204.81123,63,80,0
204.37141,204.81123,59,80,0
204.81586,205.25568,61,80,0
204.81586,205.25568,64,80,0
205.26031,206.14456,66,80,0
205.26031,206.14456,63,80,0
205.26031,206.14456,60,80,0
206.1492,207.03345,61,80,0
206.1492,207.03345,57,80,0
207.03809,207.92235,59,80,0
207.03809,207.92235,63,80,0
207.03809,207.92235,57,80,0
207.03809,207.92235,54,80,0
207.92697,208.36679,64,96,0
207.92697,208.36679,59,96,0
207.92697,208.36679,56,96,0
208.37141,208.81123,66,105,0
208.37141,208.81123,61,105,0
208.37141,208.81123,57,105,0
208.81586,209.70012,68,110,0
208.81586,209.70012,64,110,0
208.81586,210.14456,59,110,0
209.70474,210.14456,66,110,0
209.70474,210.14456,63,110,0
210.14919,210.29271,47,99,0
210.29733,210.44086,49,95,0
210.4455,210.589,51,91,0
210.59364,211.47789,52,80,0
210.59364,211.47789,56,80,0
211.48253,211.92233,54,80,0
211.48253,211.92233,51,80,0
211.48253,211.92233,47,80,0
211.92697,212.36678,52,80,0
211.92697,212.36678,49,80,0
212.37141,213.25568,51,80,0
212.37141,213.25568,48,80,0
212.37141,213.25568,44,80,0
213.2603,214.14456,49,80,0
213.2603,214.14456,45,80,0
214.14919,215.92233,47,80,0
214.14919,215.92233,35,80,0
215.92697,216.33644,52,110,0
215.92697,216.33644,40,110,0
216.34076,217.16403,47,110,0
217.16835,217.99162,47,110,0
217.99593,218.8192,47,110,0
218.82352,219.233,47,110,0
219.2373,219.37093,52,110,0
219.37524,219.50887,47,110,0
219.51317,219.64679,44,110,0
219.65111,219.78473,47,110,0
219.78903,219.92265,52,110,0
219.92696,220.06058,56,110,0
220.0649,220.19852,54,110,0
220.20282,220.33644,51,110,0
220.34076,220.47438,47,110,0
220.47868,220.6123,51,110,0
220.61662,220.75024,54,110,0
220.75455,220.88817,57,110,0
220.89249,221.02611,56,110,0
221.03041,221.16403,52,110,0
221.16833,221.30196,47,110,0
221.30627,221.4399,52,110,0
221.4442,221.57782,56,110,0
221.58214,221.71576,59,110,0
221.72006,221.85368,57,110,0
221.858,221.99162,54,110,0
221.99593,222.12955,51,110,0
222.13387,222.26749,63,110,0
222.27179,222.40541,59,110,0
222.40971,222.54333,54,110,0
222.54765,222.68127,56,110,0
222.68558,222.8192,59,110,0
222.82352,222.95714,64,110,0
222.96144,223.09506,59,110,0
223.09938,223.233,56,110,0
223.2373,223.37093,52,110,0
223.37524,223.50887,51,110,0
223.51317,223.64679,54,110,0
223.6511,223.78471,57,110,0
223.78903,223.92265,54,110,0
223.92696,224.06058,51,110,0
224.0649,224.19852,47,110,0
224.20282,224.33644,52,110,0
224.34076,224.47438,56,110,0
224.47868,224.6123,59,110,0
224.61662,224.75024,56,110,0
224.75455,224.88817,52,110,0
224.89249,225.0261,47,110,0
225.03041,225.16403,54,110,0
225.16833,225.30196,57,110,0
225.30627,225.4399,59,110,0
225.4442,225.57782,57,110,0
225.58214,225.71576,59,110,0
225.72006,225.85368,66,110,0
225.858,225.99162,56,110,0
225.99593,226.12955,59,110,0
226.13387,226.26747,64,110,0
226.27179,226.40541,52,110,0
226.40971,226.54333,56,110,0
226.54765,226.68127,59,109,0
226.68558,226.8192,54,108,0
226.82352,226.95714,57,107,0
226.96144,227.09506,59,106,0
227.09938,227.233,57,105,0
227.2373,227.37093,59,104,0
227.37524,227.50885,66,103,0
227.51317,227.64679,56,102,0
227.6511,227.78471,59,101,0
227.78903,227.92265,64,100,0
227.92696,228.06058,52,99,0
228.0649,228.19852,56,98,0
228.20282,228.33644,59,97,0
228.34076,228.47438,54,96,0
228.47868,228.6123,57,95,0
228.61662,228.75024,59,94,0
228.75455,228.88817,57,93,0
228.89247,229.0261,59,92,0
229.03041,229.16403,66,91,0
229.16833,229.26747,56,90,0
229.27179,229.37093,59,90,0
229.37523,229.47438,52,91,0
229.47868,229.57782,59,92,0
229.58214,229.68127,54,92,0
229.68558,229.78471,59,93,0
229.78903,229.88817,57,94,0
229.89247,229.99162,59,94,0
229.99593,230.09506,56,95,0
230.09938,230.19852,59,96,0
230.20282,230.30196,52,96,0
230.30627,230.40541,59,97,0
230.40971,230.50885,54,98,0
230.51317,230.6123,59,98,0
230.61662,230.71576,57,99,0
230.72006,230.8192,59,100,0
230.82352,230.91934,56,100,0
230.92351,231.01935,59,101,0
231.02351,231.11934,57,102,0
231.1235,231.21935,59,102,0
231.22351,231.31935,56,103,0
231.32352,231.41934,59,104,0
231.42351,231.51935,57,104,0
231.52351,231.61934,59,105,0
231.6235,231.71935,56,106,0
231.72351,231.81935,59,106,0
231.82352,231.91934,57,107,0
231.92351,232.01935,59,108,0
232.02351,232.11934,56,108,0
232.1235,232.21935,59,109,0
232.22351,232.31935,57,110,0
232.32352,232.41934,59,110,0
232.42351,232.51625,56,110,0
232.52028,232.61302,59,110,0
232.61707,232.70981,44,110,0
232.71384,232.80658,52,110,0
232.81061,232.90335,44,110,0
232.90738,233.00012,52,110,0
233.00415,233.0969,44,110,0
233.10094,233.19366,52,110,0
233.19771,233.29045,44,110,0
233.29448,233.38722,52,110,0
233.39125,233.484,44,110,0
233.48802,233.58076,52,110,0
233.5848,233.67754,44,110,0
233.68158,233.77432,52,110,0
233.77835,233.8711,44,110,0
233.87512,233.96786,52,110,0
233.9719,234.06174,44,110,0
234.06564,234.15549,52,110,0
234.1594,234.24924,44,110,0
234.25314,234.34299,52,110,0
234.3469,234.43674,44,110,0
234.44064,234.53049,52,110,0
234.5344,234.62424,44,110,0
234.62814,234.71799,52,110,0
234.7219,234.81174,44,110,0
234.81564,234.90549,52,110,0
234.9094,234.99924,44,110,0
235.00314,235.09299,52,110,0
235.0969,235.18674,44,110,0
235.19064,235.28049,52,110,0
235.2844,235.37424,44,110,0
235.37814,235.46799,52,110,0
235.4719,235.6614,52,120,0
235.4719,235.6614,49,120,0
235.4719,235.6614,45,120,0
235.66545,235.85497,52,120,0
235.66545,235.85497,49,120,0
235.66545,235.85497,45,120,0
236.05254,236.24205,52,120,0
236.05254,236.24205,49,120,0
236.05254,236.24205,45,120,0
236.2461,236.43561,52,120,0
236.2461,236.43561,49,120,0
236.2461,236.43561,45,120,0
236.43964,236.62915,52,120,0
236.43964,236.62915,49,120,0
236.43964,236.62915,45,120,0
236.82674,237.01625,52,120,0
236.82674,237.01625,49,120,0
236.82674,237.01625,45,120,0
237.02028,237.2098,52,120,0
237.02028,237.2098,49,120,0
237.02028,237.2098,45,120,0
237.21382,237.40335,52,120,0
237.21382,237.40335,49,120,0
237.21382,237.40335,45,120,0
237.60092,237.79044,52,120,0
237.60092,237.79044,49,120,0
237.60092,237.79044,45,120,0
237.79448,237.984,52,120,0
237.79448,237.984,49,120,0
237.79448,237.984,45,120,0
237.98802,238.17754,52,120,0
237.98802,238.17754,49,120,0
237.98802,238.17754,45,120,0
238.37512,238.56464,52,120,0
238.37512,238.56464,49,120,0
238.37512,238.56464,45,120,0
238.56866,238.75818,54,120,0
238.56866,238.75818,52,120,0
238.56866,238.75818,46,120,0
238.56866,238.75818,49,120,0
238.7622,238.95172,54,120,0
238.7622,238.95172,52,120,0
238.7622,238.95172,49,120,0
238.7622,238.95172,46,120,0
239.1493,239.33882,54,120,0
239.1493,239.33882,52,120,0
239.1493,239.33882,49,120,0
239.1493,239.33882,46,120,0
239.34285,239.53238,54,120,0
239.34285,239.53238,52,120,0
239.34285,239.53238,46,120,0
239.34285,239.53238,49,120,0
239.5364,239.72592,54,120,0
239.5364,239.72592,52,120,0
239.5364,239.72592,49,120,0
239.5364,239.72592,46,120,0
239.9235,240.11302,54,120,0
239.9235,240.11302,52,120,0
239.9235,240.11302,49,120,0
239.9235,240.11302,46,120,0
240.11705,240.30656,54,120,0
240.11705,240.30656,52,120,0
240.11705,240.30656,46,120,0
240.11705,240.30656,49,120,0
240.3106,240.5001,54,120,0
240.3106,240.5001,52,120,0
240.3106,240.5001,49,120,0
240.3106,240.5001,46,120,0
240.6977,240.8872,54,120,0
240.6977,240.8872,52,120,0
240.6977,240.8872,49,120,0
240.6977,240.8872,46,120,0
240.89124,241.08075,54,120,0
240.89124,241.08075,52,120,0
240.89124,241.08075,46,120,0
240.89124,241.08075,49,120,0
241.0848,241.2743,54,120,0
241.0848,241.2743,52,120,0
241.0848,241.2743,49,120,0
241.0848,241.2743,46,120,0
241.47833,241.67416,54,120,0
241.47833,241.67416,52,120,0
241.47833,241.67416,49,120,0
241.47833,241.67416,46,120,0
241.67833,241.77417,47,120,0
241.77834,241.87418,52,120,0
241.87834,241.97417,56,120,0
241.97833,242.07417,59,120,0
242.07834,242.17416,47,120,0
242.17833,242.27417,52,120,0
242.27834,242.37418,56,120,0
242.37834,242.47417,59,120,0
242.47833,242.57417,47,120,0
242.57834,242.67416,52,120,0
242.67833,242.77417,56,120,0
242.77834,242.87418,59,120,0
242.87834,242.97417,47,120,0
242.97833,243.07417,52,120,0
243.07834,243.17416,56,120,0
243.17833,243.27417,59,120,0
243.27834,243.37418,47,120,0
243.37834,243.47417,52,120,0
243.47833,243.57417,56,120,0
243.57834,243.67416,59,120,0
243.67833,243.77417,47,120,0
243.77834,243.87418,52,120,0
243.87834,243.97417,56,120,0
243.97833,244.07417,59,120,0
244.07834,244.27417,56,120,0
244.27834,244.47417,56,120,0
244.47833,244.67416,52,120,0
244.67833,244.87418,47,120,0
244.87834,245.07417,59,120,0
245.07834,245.27417,56,80,0
245.27834,245.47417,64,80,0
245.47833,245.67416,59,80,0
245.67833,245.87418,68,80,0
245.87834,246.07417,64,80,0
246.07834,246.27417,71,80,0
246.27834,246.47417,68,80,0
246.47833,246.67416,76,80,0
246.67833,246.87418,71,80,0
246.87834,247.07417,76,80,0
247.07834,247.27417,71,80,0
247.27834,247.47417,76,80,0
247.47833,247.67416,71,80,0
247.67833,247.87418,76,80,0
247.87834,248.07417,71,80,0
248.07834,248.27417,75,80,0
248.27834,248.47417,71,79,0
248.47833,248.67416,75,78,0
248.67833,248.87418,71,77,0
248.87834,249.07417,75,75,0
249.07834,249.27417,71,74,0
249.27834,249.47417,75,73,0
249.47833,249.67416,71,71,0
249.67833,249.87418,75,70,0
249.87834,250.07417,71,70,0
250.07834,250.27417,75,70,0
250.27834,250.47417,71,70,0
250.47833,250.67416,75,70,0
250.67833,250.87418,71,70,0
250.87834,251.07417,75,70,0
251.07834,251.27417,71,70,0
251.27834,251.36166,75,70,0
251.32834,251.42,76,70,0
251.37834,251.46167,75,71,0
251.42833,251.51584,76,71,0
251.47833,251.56168,75,72,0
251.52834,251.62,76,73,0
251.57834,251.66167,75,73,0
251.62834,251.71584,76,74,0
251.67833,251.76167,75,75,0
251.72833,251.82,76,75,0
251.77834,251.86166,75,76,0
251.82834,251.91583,76,77,0
251.87834,251.96167,75,77,0
251.92833,252.02,76,78,0
251.97833,252.06168,75,78,0
252.02834,252.11583,76,79,0
252.07834,252.16167,75,80,0
252.12834,252.22,76,80,0
252.17833,252.26167,75,81,0
252.22833,252.31584,76,82,0
252.27834,252.36166,75,82,0
252.32834,252.42,76,83,0
252.37834,252.46167,75,84,0
252.42833,252.51584,76,84,0
252.47833,252.56168,75,85,0
252.52834,252.62,76,85,0
252.57834,252.66167,75,86,0
252.62834,252.71584,76,87,0
252.67833,252.76167,75,87,0
252.72833,252.82,76,88,0
252.77834,252.86166,75,89,0
252.82834,252.91583,76,89,0
252.87834,252.96167,75,90,0
252.92833,253.02,76,91,0
252.97833,253.06168,75,91,0
253.02834,253.11583,76,92,0
253.07834,253.16167,75,93,0
253.12834,253.22,76,93,0
253.17833,253.26167,75,94,0
253.22833,253.31584,76,94,0
253.27834,253.36166,75,95,0
253.32834,253.42,76,96,0
253.37834,253.46167,75,96,0
253.42833,253.51584,76,97,0
253.47833,253.56168,75,98,0
253.52834,253.62,76,98,0
253.57834,253.66167,75,99,0
253.62834,253.71584,76,100,0
253.67833,253.76167,75,100,0
253.72833,253.82,76,101,0
253.77834,253.86166,75,101,0
253.82834,253.91583,76,102,0
253.87834,253.96167,75,103,0
253.92833,254.02,76,103,0
253.97833,254.06168,75,104,0
254.02834,254.11583,76,105,0
254.07834,254.16167,75,105,0
254.12834,254.22,76,106,0
254.17833,254.26167,75,107,0
254.22833,254.31584,76,107,0
254.27834,254.36166,75,108,0
254.32834,254.42,76,109,0
254.37834,254.46167,73,109,0
254.42833,254.47417,75,110,0
254.47833,255.27417,76,110,0
255.27834,256.07416,74,80,0
255.27834,256.07416,71,80,0
255.27834,256.07416,68,80,0
256.07834,256.87418,69,80,0
256.07834,256.87418,72,80,0
254.47833,257.67416,64,110,0
256.87833,257.67416,74,80,0
256.87833,257.67416,71,80,0
256.87833,257.67416,68,80,0
257.67834,258.07416,72,80,0
257.67834,258.07416,69,80,0
258.47833,259.27417,69,80,0
258.47833,259.27417,66,80,0
258.47833,259.27417,60,80,0
258.47833,259.27417,57,80,0
259.27835,260.07416,67,80,0
259.27835,260.07416,59,80,0
259.27835,260.07416,64,80,0
260.07834,260.87418,66,80,0
260.07834,260.87418,63,80,0
260.07834,260.87418,59,80,0
260.87833,261.67416,64,100,0
261.67834,262.47418,62,80,0
261.67834,262.47418,59,80,0
261.67834,262.47418,56,80,0
262.47833,263.27417,57,80,0
262.47833,263.27417,60,80,0
260.87833,264.07416,52,100,0
263.27835,264.07416,62,80,0
263.27835,264.07416,59,80,0
263.27835,264.07416,56,80,0
264.07834,264.47418,60,80,0
264.07834,264.47418,57,80,0
264.87833,265.67416,57,80,0
264.87833,265.67416,54,80,0
264.87833,265.67416,48,80,0
264.87833,265.67416,45,80,0
265.67834,266.47418,55,80,0
265.67834,266.47418,47,80,0
265.67834,266.47418,52,80,0
266.47833,267.27417,54,80,0
266.47833,267.27417,51,80,0
266.47833,267.27417,47,80,0
267.27835,267.67416,55,80,0
267.27835,267.67416,52,80,0
267.67834,268.07416,43,80,0
267.67834,268.27417,52,80,0
268.27835,268.47418,53,80,0
268.47833,268.67416,55,80,0
268.07834,268.87418,45,80,0
268.67834,268.87418,57,80,0
268.87833,269.67416,59,80,0
268.87833,269.67416,55,80,0
268.87833,270.47418,47,80,0
269.67834,270.47418,57,80,0
269.67834,270.47418,54,80,0
270.47833,270.87418,55,80,0
270.47833,270.87418,52,80,0
270.47833,270.87418,48,80,0
270.87833,271.27417,40,80,0
270.87833,271.47418,48,80,0
271.47833,271.67416,50,80,0
271.67834,271.87418,52,80,0
271.27835,272.07416,41,80,0
271.87833,272.07416,53,80,0
272.07834,272.87418,55,80,0
272.07834,272.87418,52,80,0
272.07834,273.67416,43,80,0
272.87833,273.67416,53,80,0
272.87833,273.67416,50,80,0
273.67834,274.07416,52,80,0
273.67834,274.07416,48,80,0
274.07834,274.47418,45,80,0
274.07834,274.67416,53,80,0
274.67834,274.87418,55,80,0
274.87833,275.07416,57,80,0
274.47833,275.27417,46,80,0
275.07834,275.27417,58,80,0
275.27835,276.07416,57,80,0
275.27835,276.07416,60,80,0
275.27835,276.87418,48,80,0
276.07834,276.87418,58,80,0
276.07834,276.87418,55,80,0
276.87833,277.27417,57,80,0
276.87833,277.27417,53,80,0
276.87833,277.27417,50,80,0
277.27835,277.67416,33,80,0
277.27835,277.87418,41,80,0
277.87833,278.07416,43,80,0
278.07834,278.27417,45,80,0
277.67834,278.47418,34,80,0
278.27835,278.47418,46,80,0
278.47833,279.27417,45,80,0
278.47833,279.27417,48,80,0
278.47833,280.07416,36,80,0
279.27835,280.07416,43,80,0
279.27835,280.07416,46,80,0
280.07834,280.27417,29,80,0
280.07834,280.27417,41,80,0
280.27835,280.47418,36,80,0
280.27835,280.47418,29,80,0
280.47833,280.67416,36,80,0
280.47833,280.67416,29,80,0
280.67834,280.87418,36,80,0
280.67834,280.87418,29,80,0
280.87833,281.07416,36,80,0
280.87833,281.07416,29,80,0
281.07834,281.27417,36,80,0
281.07834,281.27417,29,80,0
281.27835,281.47418,36,80,0
281.27835,281.47418,29,80,0
281.47833,281.67416,36,80,0
281.47833,281.67416,29,80,0
281.67834,281.87418,36,80,0
281.67834,281.87418,29,80,0
281.87833,282.07416,36,80,0
281.87833,282.07416,29,80,0
282.07834,282.27417,36,80,0
282.07834,282.27417,29,80,0
282.27835,282.47418,36,80,0
282.27835,282.47418,29,80,0
282.47833,282.67416,36,80,0
282.47833,282.67416,29,80,0
282.67834,282.87418,36,80,0
282.67834,282.87418,29,80,0
282.87833,283.07416,29,80,0
282.87833,283.07416,38,80,0
283.07834,283.27417,29,80,0
283.07834,283.27417,38,80,0
283.27835,283.47418,40,80,0
283.27835,283.47418,43,80,0
283.47833,283.67416,43,80,0
283.47833,283.67416,40,80,0
283.67834,283.87418,43,80,0
283.67834,283.87418,40,80,0
283.87833,284.07416,43,80,0
283.87833,284.07416,40,80,0
284.07834,284.27417,40,80,0
284.07834,284.27417,43,80,0
284.27835,284.47418,43,80,0
284.27835,284.47418,40,80,0
284.47833,284.67416,43,80,0
284.47833,284.67416,40,80,0
284.67834,284.87418,43,80,0
284.67834,284.87418,40,80,0
284.87833,285.07416,39,80,0
284.87833,285.07416,43,80,0
285.07834,285.27417,43,80,0
285.07834,285.27417,39,80,0
285.27835,285.47418,43,80,0
285.27835,285.47418,39,80,0
285.47833,285.67416,43,80,0
285.47833,285.67416,39,80,0
285.67834,285.87418,39,80,0
285.67834,285.87418,43,80,0
285.87833,286.07416,43,80,0
285.87833,286.07416,39,80,0
286.07834,286.27417,43,80,0
286.07834,286.27417,39,80,0
286.27835,286.47418,43,80,0
286.27835,286.47418,39,80,0
286.47833,286.67416,38,80,0
286.47833,286.67416,45,80,0
286.67834,286.87418,45,80,0
286.67834,286.87418,38,80,0
286.87833,287.07416,38,80,0
286.87833,287.07416,45,80,0
287.07834,287.27417,45,80,0
287.07834,287.27417,38,80,0
287.27835,287.47418,38,80,0
287.27835,287.47418,45,80,0
287.47833,287.67416,45,80,0
287.47833,287.67416,38,80,0
287.67834,287.87418,38,80,0
287.67834,287.87418,45,80,0
287.87833,288.07416,45,80,0
287.87833,288.07416,38,80,0
288.07834,288.27417,42,80,0
288.07834,288.27417,50,80,0
288.27835,288.47418,50,80,0
288.27835,288.47418,42,80,0
288.47833,288.67416,42,80,0
288.47833,288.67416,50,80,0
288.67834,288.87418,50,80,0
288.67834,288.87418,42,80,0
288.87833,289.07416,42,80,0
288.87833,289.07416,50,80,0
289.07834,289.27417,50,80,0
289.07834,289.27417,42,80,0
289.27835,289.47418,42,80,0
289.27835,289.47418,50,80,0
289.47833,289.67416,50,80,0
289.47833,289.67416,42,80,0
289.67834,289.77417,43,80,0
289.77835,289.87418,50,80,0
289.87833,289.97418,43,80,0
289.97833,290.07416,50,80,0
290.07834,290.17416,43,80,0
290.17834,290.27417,50,80,0
290.27835,290.37418,43,80,0
290.37833,290.47418,50,80,0
290.47833,290.57416,45,80,0
290.57834,290.67416,50,80,0
290.67834,290.77417,45,80,0
290.77835,290.87418,50,80,0
290.87833,290.97418,45,80,0
290.97833,291.07416,50,80,0
291.07834,291.17416,45,80,0
291.17834,291.27417,50,80,0
291.27835,291.37418,46,80,0
291.37833,291.47418,50,80,0
291.47833,291.57416,46,80,0
291.57834,291.67416,50,80,0
291.67834,291.77417,46,80,0
291.77835,291.87418,50,80,0
291.87833,291.97418,46,80,0
291.97833,292.07416,50,80,0
292.07834,292.17416,42,80,0
292.17834,292.27417,50,80,0
292.27835,292.37418,42,80,0
292.37833,292.47418,50,80,0
292.47833,292.57416,42,80,0
292.57834,292.67416,50,80,0
292.67834,292.77417,42,80,0
292.77835,292.87418,50,80,0
292.87833,292.97418,43,80,0
292.97833,293.07416,50,81,0
293.07834,293.17416,43,82,0
293.17834,293.27417,50,84,0
293.27835,293.37418,43,85,0
293.37833,293.47418,50,86,0
293.47833,293.57416,43,88,0
293.57834,293.67416,50,89,0
293.67834,293.77417,45,90,0
293.77835,293.87418,50,92,0
293.87833,293.97418,45,93,0
293.97833,294.07416,50,94,0
294.07834,294.17416,45,96,0
294.17834,294.27417,50,97,0
294.27835,294.37418,45,98,0
294.37833,294.47418,50,100,0
294.47833,294.57416,46,101,0
294.57834,294.67416,50,102,0
294.67834,294.77417,46,104,0
294.77835,294.87418,50,105,0
294.87833,294.97418,46,106,0
294.97833,295.07416,55,108,0
295.07834,295.17416,46,109,0
295.17834,295.27417,55,110,0
295.27835,295.37418,47,110,0
295.37833,295.47418,55,110,0
295.47833,295.57416,47,110,0
295.57834,295.67416,55,110,0
295.67834,295.77417,47,110,0
295.77835,295.87418,55,110,0
295.87833,295.97418,47,110,0
295.97833,296.07416,55,110,0
296.07834,296.17416,48,80,0
296.17834,296.27417,55,80,0
296.27835,296.37418,48,80,0
296.37833,296.47418,55,80,0
296.47833,296.57416,48,80,0
296.57834,296.67416,55,80,0
296.67834,296.77417,48,80,0
296.77835,296.87418,55,80,0
296.87833,296.97418,50,80,0
296.97833,297.07416,55,80,0
297.07834,297.17416,50,80,0
297.17834,297.27417,55,80,0
297.27835,297.37418,50,80,0
297.37833,297.47418,55,80,0
297.47833,297.57416,50,80,0
297.57834,297.67416,55,80,0
297.67834,297.77417,51,80,0
297.77835,297.87418,55,80,0
297.87833,297.97418,51,80,0
297.97833,298.07416,55,80,0
298.07834,298.17416,51,80,0
298.17834,298.27417,55,80,0
298.27835,298.37418,51,80,0
298.37833,298.47418,55,80,0
298.47833,298.57416,47,80,0
298.57834,298.67416,55,80,0
298.67834,298.77417,47,80,0
298.77835,298.87418,55,80,0
298.87833,298.97418,47,80,0
298.97833,299.07416,55,80,0
299.07834,299.17416,47,80,0
299.17834,299.27417,55,80,0
299.27835,299.37418,48,80,0
299.37833,299.47418,55,81,0
299.47833,299.57416,48,82,0
299.57834,299.67416,55,84,0
299.67834,299.77417,48,85,0
299.77835,299.87418,55,86,0
299.87833,299.97418,48,88,0
299.97833,300.07416,55,89,0
300.07834,300.17416,50,90,0
300.17834,300.27417,55,92,0
300.27835,300.37418,50,93,0
300.37833,300.47418,55,94,0
300.47833,300.57416,50,96,0
300.57834,300.67416,55,97,0
300.67834,300.77417,50,98,0
300.77835,300.87418,55,100,0
300.87833,300.97418,51,101,0
300.97833,301.07416,55,102,0
301.07834,301.17416,51,104,0
301.17834,301.27417,55,105,0
301.27835,301.37418,51,106,0
301.37833,301.47418,60,108,0
301.47833,301.57416,51,109,0
301.57834,301.67416,60,110,0
301.67834,301.77417,52,110,0
301.77835,301.87418,60,110,0
301.87833,301.97418,52,110,0
301.97833,302.07416,60,110,0
302.07834,302.17416,52,110,0
302.17834,302.27417,60,110,0
302.27835,302.37418,52,110,0
302.37833,302.47418,60,110,0
302.47833,302.57416,53,70,0
302.57834,302.67416,56,70,0
302.67834,302.77417,60,70,0
302.77835,302.87418,65,70,0
302.87833,302.97418,53,70,0
302.97833,303.07416,56,70,0
303.07834,303.17416,60,70,0
303.17834,303.27417,65,70,0
303.27835,303.37418,53,70,0
303.37833,303.47418,58,70,0
303.47833,303.57416,61,70,0
303.57834,303.67416,65,70,0
303.67834,303.77417,53,70,0
303.77835,303.87418,58,70,0
303.87833,303.97418,61,70,0
303.97833,304.07416,65,70,0
304.07834,304.17416,53,70,0
304.17834,304.27417,54,70,0
304.27835,304.37418,58,70,0
304.37833,304.47418,61,70,0
304.47833,304.57416,53,70,0
304.57834,304.67416,54,70,0
304.67834,304.77417,58,70,0
304.77835,304.87418,61,70,0
304.87833,304.97418,51,70,0
304.97833,305.07416,54,70,0
305.07834,305.17416,59,70,0
305.17834,305.27417,63,70,0
305.27835,305.37418,51,70,0
305.37833,305.47418,54,70,0
305.47833,305.57416,59,70,0
305.57834,305.67416,63,70,0
305.67834,305.77417,51,70,0
305.77835,305.87418,53,70,0
305.87833,305.97418,57,70,0
305.97833,306.07416,60,70,0
306.07834,306.17416,51,70,0
306.17834,306.27417,53,70,0
306.27835,306.37418,57,70,0
306.37833,306.47418,60,70,0
306.47833,306.57416,49,70,0
306.57834,306.67416,53,70,0
306.67834,306.77417,58,70,0
306.77835,306.87418,61,70,0
306.87833,306.97418,49,70,0
306.97833,307.07416,53,70,0
307.07834,307.17416,58,70,0
307.17834,307.27417,61,70,0
307.27835,307.37418,49,70,0
307.37833,307.47418,51,70,0
307.47833,307.57416,55,70,0
307.57834,307.67416,58,70,0
307.67834,307.77417,49,70,0
307.77835,307.87418,51,70,0
307.87833,307.97418,55,70,0
307.97833,308.07416,58,70,0
308.07834,308.17416,48,70,0
308.17834,308.27417,51,70,0
308.27835,308.37418,56,70,0
308.37833,308.47418,60,70,0
308.47833,308.57416,48,70,0
308.57834,308.67416,51,70,0
308.67834,308.77417,56,70,0
308.77835,308.87418,60,70,0
308.87833,308.97418,48,70,0
308.97833,309.07416,49,70,0
309.07834,309.17416,53,70,0
309.17834,309.27417,56,70,0
309.27835,309.37418,48,70,0
309.37833,309.47418,49,70,0
309.47833,309.57416,53,70,0
309.57834,309.67416,56,70,0
309.67834,309.77417,46,70,0
309.77835,309.87418,49,70,0
309.87833,309.97418,54,70,0
309.97833,310.07416,58,70,0
310.07834,310.17416,46,70,0
310.17834,310.27417,49,70,0
310.27835,310.37418,54,70,0
310.37833,310.47418,58,70,0
310.47833,310.57416,46,70,0
310.57834,310.67416,48,70,0
310.67834,310.77417,52,70,0
310.77835,310.87418,55,70,0
310.87833,310.97418,46,70,0
310.97833,311.07416,48,70,0
311.07834,311.17416,52,70,0
311.17834,311.27417,55,70,0
311.27835,311.37418,44,70,0
311.37833,311.47418,48,70,0
311.47833,311.57416,53,70,0
311.57834,311.67416,56,70,0
311.67834,311.77417,44,70,0
311.77835,311.87418,48,70,0
311.87833,311.97418,53,70,0
311.97833,312.07416,56,70,0
312.07834,312.17416,43,75,0
312.17834,312.27417,46,76,0
312.27835,312.37418,52,77,0
312.37833,312.47418,55,78,0
312.47833,312.57416,43,79,0
312.57834,312.67416,46,80,0
312.67834,312.77417,52,81,0
312.77835,312.87418,55,82,0
312.87833,312.97418,41,84,0
312.97833,313.07416,44,85,0
313.07834,313.17416,48,86,0
313.17834,313.27417,53,87,0
313.27835,313.4075,41,88,0
313.41168,313.54083,44,90,0
313.545,313.67416,53,91,0
313.67834,313.8075,40,93,0
313.81168,313.94083,43,94,0
313.945,314.07416,52,96,0
314.07834,314.2075,39,97,0
314.21167,314.34085,43,99,0
314.345,314.47418,51,100,0
314.47833,314.62186,38,102,0
314.6265,314.77,41,103,0
314.77463,314.91815,50,105,0
314.9228,315.06628,37,106,0
315.07092,315.21445,41,108,0
315.2191,315.36258,49,109,0
315.36722,315.4964,48,110,0
315.36722,315.4964,36,110,0
315.50055,315.62973,43,110,0
315.63388,315.76306,40,110,0
315.7672,315.8964,43,110,0
315.90054,316.02972,48,110,0
316.0339,316.16306,52,110,0
316.16724,316.2964,50,110,0
316.30057,316.42972,47,110,0
316.4339,316.56305,43,110,0
316.56723,316.69638,47,110,0
316.70056,316.8297,50,110,0
316.8339,316.96304,53,110,0
316.96722,317.0964,52,110,0
317.10056,317.22974,55,110,0
317.2339,317.36307,60,110,0
317.36722,317.4964,55,110,0
317.50055,317.62973,52,110,0
317.63388,317.76306,48,110,0
317.7672,317.8964,53,110,0
317.90054,318.02972,56,110,0
318.0339,318.16306,60,110,0
318.16724,318.2964,56,110,0
318.30057,318.42972,53,110,0
318.4339,318.56305,48,110,0
318.70056,318.96304,58,110,0
318.56723,319.0964,55,110,0
319.2339,321.76306,48,110,0
319.10056,321.76306,55,110,0
318.96722,321.76306,58,110,0
318.8339,321.76306,60,110,0
321.7672,321.8964,53,110,0
321.7672,321.8964,41,110,0
321.90054,322.02972,48,110,0
322.0339,322.16306,45,110,0
322.16724,322.2964,48,110,0
322.30057,322.42972,53,110,0
322.4339,322.56305,57,110,0
322.56723,322.69638,55,110,0
322.70056,322.8297,52,110,0
322.8339,322.96304,48,110,0
322.96722,323.0964,52,110,0
323.10056,323.22974,55,110,0
323.2339,323.36307,58,110,0
323.36722,323.4964,57,110,0
323.50055,323.62973,60,110,0
323.63388,323.76306,65,110,0
323.7672,323.8964,60,110,0
323.90054,324.02972,57,110,0
324.0339,324.16306,53,110,0
324.16724,324.2964,58,110,0
324.30057,324.42972,61,110,0
324.4339,324.56305,65,110,0
324.56723,324.69638,61,110,0
324.70056,324.8297,58,110,0
324.8339,324.96304,53,110,0
325.10056,325.36307,63,110,0
324.96722,325.4964,60,110,0
325.63388,328.16306,53,110,0
325.50055,328.16306,60,110,0
325.36722,328.16306,63,110,0
325.2339,328.16306,65,110,0
328.16724,328.2964,46,110,0
328.16724,328.2964,34,110,0
328.30057,328.42972,41,110,0
328.4339,328.56305,38,110,0
328.56723,328.69638,41,110,0
328.70056,328.8297,46,110,0
328.8339,328.96304,50,110,0
328.96722,329.0964,48,110,0
329.10056,329.22974,45,110,0
329.2339,329.36307,41,110,0
329.36722,329.4964,45,110,0
329.50055,329.62973,48,110,0
329.63388,329.76306,51,110,0
329.7672,329.8964,50,110,0
329.90054,330.02972,53,110,0
330.0339,330.16306,58,110,0
330.16724,330.2964,53,110,0
330.30057,330.42972,50,110,0
330.4339,330.56305,46,110,0
330.56723,330.69638,51,110,0
330.70056,330.8297,54,110,0
330.8339,330.96304,58,110,0
330.96722,331.0964,54,110,0
331.10056,331.22974,51,110,0
331.2339,331.36307,46,110,0
331.50055,331.76306,56,110,0
331.36722,331.8964,53,110,0
332.0339,334.56305,46,110,0
331.90054,334.56305,53,110,0
331.7672,334.56305,56,110,0
331.63388,334.56305,58,110,0
334.70056,334.96304,54,110,0
334.56723,335.0964,51,110,0
335.2339,337.76306,46,110,0
335.10056,337.76306,51,110,0
334.96722,337.76306,54,110,0
334.8339,337.76306,58,110,0
337.90054,338.16306,54,110,0
337.7672,338.2964,49,110,0
338.4339,340.96304,46,110,0
338.30057,340.96304,49,110,0
338.16724,340.96304,54,110,0
338.0339,340.96304,58,110,0
341.10056,341.36307,54,110,0
340.96722,341.4964,50,110,0
341.63388,344.16306,47,110,0
341.50055,344.16306,50,110,0
341.36722,344.16306,54,110,0
341.2339,344.16306,59,110,0
344.30057,344.56305,55,110,0
344.16724,344.69638,50,110,0
344.8339,347.36307,47,110,0
344.70056,347.36307,50,110,0
344.56723,347.36307,55,110,0
344.4339,347.36307,59,110,0
347.50055,347.76306,55,110,0
347.36722,347.8964,51,110,0
348.0339,350.56305,48,110,0
347.90054,350.56305,51,110,0
347.7672,350.56305,55,110,0
347.63388,350.56305,60,110,0
350.70056,350.96304,61,110,0
350.56723,351.0964,56,110,0
350.8339,352.16306,65,110,0
350.96722,352.16306,61,110,0
351.10056,352.16306,56,110,0
351.2339,352.16306,53,110,0
352.30057,352.56305,63,110,0
352.16724,352.69638,60,110,0
352.4339,353.76306,66,110,0
352.56723,353.76306,63,110,0
352.70056,353.76306,60,110,0
352.8339,353.76306,54,110,0
353.90054,354.16306,62,110,0
353.7672,354.2964,59,110,0
354.0339,354.96304,67,110,0
354.16724,354.96304,62,110,0
354.30057,354.96304,59,110,0
354.96722,355.36307,62,80,0
354.4339,355.76306,55,110,0
356.16724,356.56305,60,80,0
355.7672,356.96304,55,80,0
356.56723,356.96304,66,80,0
357.10056,357.36307,50,110,0
356.96722,357.4964,47,110,0
357.36722,358.16306,50,110,0
357.50055,358.16306,47,110,0
358.16724,358.56305,50,80,0
357.63388,358.96304,43,110,0
359.36722,359.76306,48,80,0
359.7672,360.16306,54,80,0
358.96722,360.36307,43,80,0
357.2339,360.36307,55,110,0
360.56723,360.96304,48,80,0
360.96722,361.36307,43,79,0
361.36722,361.76306,36,78,0
361.7672,362.16306,31,76,0
362.16724,362.56305,36,75,0
362.56723,362.96304,31,73,0
362.96722,363.36307,36,72,0
363.36722,363.46304,31,70,0
363.46722,363.56305,36,70,0
363.56723,363.66306,35,70,0
363.66724,363.76306,33,70,0
363.7672,363.86307,31,70,0
363.86722,363.96304,36,70,0
363.96722,364.06305,35,70,0
364.06723,364.16306,33,70,0
364.16724,364.26306,31,70,0
364.2672,364.36307,36,70,0
364.36722,364.46304,35,70,0
364.46722,364.56305,33,70,0
364.56723,364.66306,31,70,0
364.66724,364.76306,36,70,0
364.7672,364.86307,35,70,0
364.86722,364.96304,33,70,0
364.96722,366.66306,31,70,0
366.66724,366.76306,36,70,0
366.7672,366.86307,35,70,0
366.86722,366.96304,33,70,0
366.96722,367.06305,31,70,0
367.06723,367.16306,36,70,0
367.16724,367.26306,35,70,0
367.2672,367.36307,33,70,0
367.36722,367.46304,31,70,0
367.46722,367.56305,36,70,0
367.56723,367.66306,35,70,0
367.66724,367.76306,33,70,0
367.7672,367.86307,31,70,0
367.86722,367.96304,36,70,0
367.96722,368.06305,35,70,0
368.06723,368.16306,33,70,0
368.16724,369.86307,31,70,0
369.86722,369.96304,36,70,0
369.96722,370.06305,35,70,0
370.06723,370.16306,33,71,0
370.16724,370.26306,31,71,0
370.2672,370.36307,36,72,0
370.36722,370.46304,35,72,0
370.46722,370.56305,33,73,0
370.56723,370.66306,31,73,0
370.66724,370.76306,36,73,0
370.7672,370.86307,35,74,0
370.86722,370.96304,33,74,0
370.96722,371.06305,31,75,0
371.06723,371.16306,36,75,0
371.16724,371.26306,35,76,0
371.2672,371.36307,33,76,0
371.36722,371.46304,31,76,0
371.46722,371.56305,36,77,0
371.56723,371.66306,35,77,0
371.66724,371.76306,33,78,0
371.7672,371.86307,31,78,0
371.86722,371.96304,36,79,0
371.96722,372.06305,35,79,0
372.06723,372.16306,33,79,0
372.16724,372.26306,31,80,0
372.2672,372.36307,36,80,0
372.36722,372.46304,35,81,0
372.46722,372.56305,33,81,0
372.56723,372.66306,31,82,0
372.66724,372.76306,36,82,0
372.7672,372.86307,35,82,0
372.86722,372.96304,33,83,0
372.96722,373.06305,31,83,0
373.06723,373.16306,36,84,0
373.16724,373.26306,35,84,0
373.2672,373.36307,33,85,0
373.36722,373.46304,31,85,0
373.46722,373.56305,36,85,0
373.56723,373.66306,35,86,0
373.66724,373.76306,33,86,0
373.7672,373.86307,31,87,0
373.86722,373.96304,36,87,0
373.96722,374.06305,35,88,0
374.06723,374.16306,33,88,0
374.16724,374.26306,31,88,0
374.2672,374.36307,36,89,0
374.36722,374.46304,35,89,0
374.46722,374.56305,33,90,0
374.56723,374.66306,31,90,0
374.66724,374.76306,36,91,0
374.7672,374.86307,35,91,0
374.86722,374.96304,33,92,0
374.96722,375.06305,31,92,0
375.06723,375.16306,36,92,0
375.16724,375.26306,35,93,0
375.2672,375.36307,33,93,0
375.36722,375.46304,31,94,0
375.46722,375.56305,36,94,0
375.56723,375.66306,35,95,0
375.66724,375.76306,33,95,0
375.7672,375.86307,31,95,0
375.86722,375.96304,36,96,0
375.96722,376.06305,35,96,0
376.06723,376.16306,33,97,0
376.16724,376.26306,31,97,0
376.2672,376.36307,36,98,0
376.36722,376.46304,35,98,0
376.46722,376.56305,33,98,0
376.56723,376.66306,31,99,0
376.66724,376.76306,36,99,0
376.7672,376.86307,35,100,0
376.86722,376.96304,33,100,0
376.96722,377.06305,31,101,0
377.06723,377.16306,36,101,0
377.16724,377.26306,35,101,0
377.2672,377.36307,33,102,0
377.36722,377.46304,31,102,0
377.46722,377.56305,36,103,0
377.56723,377.66306,35,103,0
377.66724,377.76306,33,104,0
377.7672,377.86307,31,104,0
377.86722,377.96304,36,104,0
377.96722,378.06305,35,105,0
378.06723,378.16306,33,105,0
378.16724,378.26306,31,106,0
378.2672,378.36307,36,106,0
378.36722,378.46304,35,107,0
378.46722,378.56305,33,107,0
378.56723,378.66306,31,107,0
378.66724,378.76306,36,108,0
378.7672,378.86307,35,108,0
378.86722,378.96304,33,109,0
378.96722,379.06305,31,109,0
379.06723,379.16306,36,110,0
379.16724,379.26306,35,110,0
379.2672,379.36307,33,110,0
379.36722,379.46304,31,110,0
379.46722,379.56305,37,110,0
379.56723,379.66306,35,110,0
379.66724,379.76306,33,110,0
379.7672,379.86307,31,110,0
379.86722,379.96304,37,110,0
379.96722,380.06305,35,110,0
380.06723,380.16306,33,110,0
380.16724,380.26306,31,110,0
380.2672,380.36307,37,110,0
380.36722,380.46304,35,110,0
380.46722,380.56305,33,110,0
380.56723,380.66306,31,110,0
380.66724,380.76306,37,110,0
380.7672,380.86307,35,110,0
380.86722,380.96304,33,110,0
380.96722,381.06305,31,110,0
381.06723,381.16306,38,110,0
381.16724,381.26306,35,110,0
381.2672,381.36307,33,110,0
381.36722,381.46304,31,110,0
381.46722,381.56305,38,110,0
381.56723,381.66306,35,110,0
381.66724,381.76306,33,110,0
381.7672,381.86307,31,110,0
381.86722,381.96304,38,110,0
381.96722,382.06305,35,110,0
382.06723,382.16306,33,110,0
382.16724,382.26306,31,110,0
382.2672,382.36307,38,110,0
382.36722,382.46304,35,110,0
382.46722,382.56305,33,110,0
382.56723,382.66306,31,120,0
382.66724,382.76306,33,110,0
382.7672,382.86307,35,110,0
382.86722,382.96304,36,110,0
382.96722,383.06305,38,110,0
383.06723,383.16306,36,110,0
383.16724,383.26306,35,110,0
383.2672,383.36307,33,110,0
383.36722,383.46304,31,121,0
383.46722,383.56305,33,110,0
383.56723,383.66306,35,110,0
383.66724,383.76306,36,110,0
383.7672,383.8699,38,110,0
383.87436,383.97705,36,110,0
383.9815,384.0842,35,110,0
384.08865,384.19135,33,110,0
384.1958,384.4056,31,120,0
384.4101,384.50592,33,120,0
384.51007,384.60593,35,120,0
384.61008,384.7059,36,120,0
384.71008,384.8059,38,120,0
384.8101,384.9059,40,120,0
384.9101,385.00592,41,120,0
385.01007,385.10593,43,120,0
385.11008,385.2059,45,120,0
385.21008,385.3059,47,120,0
385.3101,385.4059,48,120,0
385.4101,385.50592,50,120,0
385.51007,385.60593,52,120,0
385.61008,385.7059,53,120,0
385.71008,385.8059,55,120,0
385.8101,386.00592,48,120,0
386.01007,386.2059,43,80,0
386.01007,386.2059,36,80,0
386.21008,386.4059,36,80,0
386.21008,386.4059,43,80,0
386.4101,386.60593,43,80,0
386.4101,386.60593,36,80,0
386.61008,386.8059,36,80,0
386.61008,386.8059,43,80,0
386.8101,387.00592,43,80,0
386.8101,387.00592,36,80,0
387.01007,387.2059,36,80,0
387.01007,387.2059,43,80,0
387.21008,387.4059,43,80,0
387.21008,387.4059,36,80,0
387.4101,387.60593,36,80,0
387.4101,387.60593,43,80,0
387.61008,387.8059,43,80,0
387.61008,387.8059,36,80,0
387.8101,388.00592,36,80,0
387.8101,388.00592,43,80,0
388.01007,388.2059,43,80,0
388.01007,388.2059,36,80,0
388.21008,388.4059,36,80,0
388.21008,388.4059,43,80,0
388.4101,388.60593,43,80,0
388.4101,388.60593,36,80,0
388.61008,388.8059,36,80,0
388.61008,388.8059,45,80,0
388.8101,389.00592,36,80,0
388.8101,389.00592,45,80,0
389.01007,389.2059,43,80,0
389.01007,389.2059,35,80,0
389.21008,389.4059,43,80,0
389.21008,389.4059,35,80,0
389.4101,389.60593,35,80,0
389.4101,389.60593,43,80,0
389.61008,389.8059,43,80,0
389.61008,389.8059,35,80,0
389.8101,390.00592,43,80,0
389.8101,390.00592,35,80,0
390.01007,390.2059,43,80,0
390.01007,390.2059,35,80,0
390.21008,390.4059,35,80,0
390.21008,390.4059,43,80,0
390.4101,390.60593,43,80,0
390.4101,390.60593,35,80,0
390.61008,390.8059,43,80,0
390.61008,390.8059,35,80,0
390.8101,391.00592,43,80,0
390.8101,391.00592,35,80,0
391.01007,391.2059,35,80,0
391.01007,391.2059,43,80,0
391.21008,391.4059,43,80,0
391.21008,391.4059,35,80,0
391.4101,391.60593,43,80,0
391.4101,391.60593,35,80,0
391.61008,391.8059,43,80,0
391.61008,391.8059,35,80,0
391.8101,392.00592,35,80,0
391.8101,392.00592,43,80,0
392.01007,392.2059,43,80,0
392.01007,392.2059,35,80,0
392.21008,392.4059,41,80,0
392.21008,392.4059,34,80,0
392.4101,392.60593,41,80,0
392.4101,392.60593,34,80,0
392.61008,392.8059,41,80,0
392.61008,392.8059,34,80,0
392.8101,393.00592,41,80,0
392.8101,393.00592,34,80,0
393.01007,393.2059,41,80,0
393.01007,393.2059,34,80,0
393.21008,393.4059,41,80,0
393.21008,393.4059,34,80,0
393.4101,393.60593,41,80,0
393.4101,393.60593,34,80,0
393.61008,393.8059,41,80,0
393.61008,393.8059,34,80,0
393.8101,394.00592,41,80,0
393.8101,394.00592,34,80,0
394.01007,394.2059,41,80,0
394.01007,394.2059,34,80,0
394.21008,394.4059,41,80,0
394.21008,394.4059,34,80,0
394.4101,394.60593,41,80,0
394.4101,394.60593,34,80,0
394.61008,394.8059,41,80,0
394.61008,394.8059,34,80,0
394.8101,395.00592,41,80,0
394.8101,395.00592,34,80,0
395.01007,395.2059,34,80,0
395.01007,395.2059,43,80,0
395.21008,395.4059,34,80,0
395.21008,395.4059,43,80,0
395.4101,395.60593,41,80,0
395.4101,395.60593,33,80,0
395.61008,395.8059,41,80,0
395.61008,395.8059,33,80,0
395.8101,396.00592,41,80,0
395.8101,396.00592,33,80,0
396.01007,396.2059,33,80,0
396.01007,396.2059,41,80,0
396.21008,396.4059,41,80,0
396.21008,396.4059,33,80,0
396.4101,396.60593,41,80,0
396.4101,396.60593,33,80,0
396.61008,396.8059,41,80,0
396.61008,396.8059,33,80,0
396.8101,397.00592,33,80,0
396.8101,397.00592,41,80,0
397.01007,397.2059,41,80,0
397.01007,397.2059,31,80,0
397.21008,397.4059,41,80,0
397.21008,397.4059,31,80,0
397.4101,397.60593,41,80,0
397.4101,397.60593,31,80,0
397.61008,397.8059,41,80,0
397.61008,397.8059,31,80,0
397.8101,398.00592,41,80,0
397.8101,398.00592,31,80,0
398.01007,398.2059,41,80,0
398.01007,398.2059,31,80,0
398.21008,398.4059,41,80,0
398.21008,398.4059,32,80,0
398.4101,398.60593,41,80,0
398.4101,398.60593,32,80,0
398.61008,398.8059,41,80,0
398.61008,398.8059,31,80,0
398.8101,399.00592,41,81,0
398.8101,399.00592,31,81,0
399.01007,399.2059,41,83,0
399.01007,399.2059,31,83,0
399.21008,399.4059,41,85,0
399.21008,399.4059,31,85,0
399.4101,399.60593,41,87,0
399.4101,399.60593,31,87,0
399.61008,399.8059,41,89,0
399.61008,399.8059,31,89,0
399.8101,400.00592,41,91,0
399.8101,400.00592,32,91,0
400.01007,400.2059,41,93,0
400.01007,400.2059,32,93,0
400.21008,400.4059,41,95,0
400.21008,400.4059,31,95,0
400.4101,400.60593,41,97,0
400.4101,400.60593,31,97,0
400.61008,400.8059,41,99,0
400.61008,400.8059,31,99,0
400.8101,401.00592,41,101,0
400.8101,401.00592,31,101,0
401.01007,401.2059,41,103,0
401.01007,401.2059,31,103,0
401.21008,401.4059,41,105,0
401.21008,401.4059,31,105,0
401.4101,401.60593,41,107,0
401.4101,401.60593,32,107,0
401.61008,401.8059,41,109,0
401.61008,401.8059,32,109,0
401.8101,402.2059,41,110,0
401.8101,402.2059,31,110,0
402.21008,403.2059,55,110,0
402.21008,403.2059,43,110,0
403.21008,403.3059,57,110,0
403.3101,403.4059,59,110,0
403.4101,403.60593,60,110,0
403.8101,404.00592,55,100,0
403.8101,404.00592,43,100,0
404.21008,404.45486,51,94,0
404.21008,404.45486,39,94,0
404.71008,405.00385,48,87,0
404.71008,405.00385,36,87,0
405.3101,407.70383,44,81,0
405.3101,407.70383,32,81,0
407.71008,407.91266,61,80,0
408.12387,408.32645,56,80,0
408.53766,408.78247,53,80,0
409.03766,409.36404,49,80,0
409.70435,412.36404,46,80,0
409.70435,412.36404,34,80,0
412.371,412.56683,63,70,0
412.771,412.96683,58,70,0
413.171,413.36682,55,70,0
413.57098,413.7668,51,70,0
413.971,414.16684,53,70,0
414.371,414.56683,56,70,0
414.771,414.96683,57,70,0
415.171,415.36682,54,70,0
415.57098,415.7668,55,70,0
415.971,416.16684,54,70,0
416.371,416.56683,55,70,0
416.771,416.96683,43,70,0
417.171,417.36682,48,100,0
417.171,417.36682,36,100,0
417.371,417.46683,48,80,0
417.471,417.56683,55,80,0
417.57098,417.66684,48,80,0
417.671,417.7668,55,80,0
417.771,417.86682,48,80,0
417.871,417.96683,55,80,0
417.971,418.06683,48,80,0
418.07098,418.16684,55,80,0
418.171,418.2668,48,80,0
418.271,418.36682,55,80,0
418.371,418.46683,48,80,0
418.471,418.56683,55,80,0
418.57098,418.66684,48,80,0
418.671,418.7668,55,80,0
418.771,418.86682,48,80,0
418.871,418.96683,55,80,0
418.971,419.06683,48,80,0
419.07098,419.16684,55,80,0
419.171,419.2668,48,80,0
419.271,419.36682,55,80,0
419.371,419.46683,48,80,0
419.471,419.56683,55,80,0
419.57098,419.66684,48,80,0
419.671,419.7668,55,80,0
419.771,419.86682,48,80,0
419.871,419.96683,55,80,0
419.971,420.06683,48,80,0
420.07098,420.16684,57,80,0
420.171,420.2668,48,80,0
420.271,420.36682,57,80,0
420.371,420.46683,50,80,0
420.371,420.46683,47,80,0
420.471,420.56683,55,80,0
420.57098,420.66684,50,80,0
420.57098,420.66684,47,80,0
420.671,420.7668,55,80,0
420.771,420.86682,50,80,0
420.771,420.86682,47,80,0
420.871,420.96683,55,80,0
420.971,421.06683,50,80,0
420.971,421.06683,47,80,0
421.07098,421.16684,55,80,0
421.171,421.2668,50,80,0
421.171,421.2668,47,80,0
421.271,421.36682,55,80,0
421.371,421.46683,50,80,0
421.371,421.46683,47,80,0
421.471,421.56683,55,80,0
421.57098,421.66684,50,80,0
421.57098,421.66684,47,80,0
421.671,421.7668,55,80,0
421.771,421.86682,50,80,0
421.771,421.86682,47,80,0
421.871,421.96683,55,80,0
421.971,422.06683,50,80,0
421.971,422.06683,47,80,0
422.07098,422.16684,55,80,0
422.171,422.2668,50,80,0
422.171,422.2668,47,80,0
422.271,422.36682,55,80,0
422.371,422.46683,50,80,0
422.371,422.46683,47,80,0
422.471,422.56683,55,80,0
422.57098,422.66684,50,80,0
422.57098,422.66684,47,80,0
422.671,422.7668,55,80,0
422.771,422.86682,50,80,0
422.771,422.86682,47,80,0
422.871,422.96683,55,80,0
422.971,423.06683,50,80,0
422.971,423.06683,47,80,0
423.07098,423.16684,55,80,0
423.171,423.2668,50,80,0
423.171,423.2668,47,80,0
423.271,423.36682,55,80,0
423.371,423.46683,50,80,0
423.371,423.46683,47,80,0
423.471,423.56683,55,80,0
423.57098,423.7668,50,80,0
423.57098,423.7668,38,80,0
423.771,423.86682,50,80,0
423.871,423.96683,57,80,0
423.971,424.06683,50,80,0
424.07098,424.16684,57,80,0
424.171,424.2668,50,80,0
424.271,424.36682,57,80,0
424.371,424.46683,50,80,0
424.471,424.56683,57,80,0
424.57098,424.66684,50,80,0
424.671,424.7668,57,80,0
424.771,424.86682,50,80,0
424.871,424.96683,57,80,0
424.971,425.06683,50,80,0
425.07098,425.16684,57,80,0
425.171,425.2668,50,80,0
425.271,425.36682,57,80,0
425.371,425.46683,50,80,0
425.471,425.56683,57,80,0
425.57098,425.66684,50,80,0
425.671,425.7668,57,80,0
425.771,425.86682,50,80,0
425.871,425.96683,57,80,0
425.971,426.06683,50,80,0
426.07098,426.16684,57,80,0
426.171,426.2668,50,80,0
426.271,426.36682,57,80,0
426.371,426.46683,50,80,0
426.471,426.56683,59,80,0
426.57098,426.66684,50,80,0
426.671,426.7668,59,80,0
426.771,426.86682,48,80,0
426.771,426.86682,52,80,0
426.871,426.96683,57,80,0
426.971,427.06683,48,80,0
426.971,427.06683,52,80,0
427.07098,427.16684,57,80,0
427.171,427.2668,48,80,0
427.171,427.2668,52,80,0
427.271,427.36682,57,80,0
427.371,427.46683,48,80,0
427.371,427.46683,52,80,0
427.471,427.56683,57,80,0
427.57098,427.66684,48,80,0
427.57098,427.66684,52,80,0
427.671,427.7668,57,80,0
427.771,427.86682,48,80,0
427.771,427.86682,52,80,0
427.871,427.96683,57,80,0
427.971,428.06683,48,80,0
427.971,428.06683,52,80,0
428.07098,428.16684,57,80,0
428.171,428.2668,48,80,0
428.171,428.2668,52,80,0
428.271,428.36682,57,80,0
428.371,428.46683,48,80,0
428.371,428.46683,52,80,0
428.471,428.56683,57,80,0
428.57098,428.66684,48,80,0
428.57098,428.66684,52,80,0
428.671,428.7668,57,80,0
428.771,428.86682,48,80,0
428.771,428.86682,52,80,0
428.871,428.96683,57,80,0
428.971,429.06683,48,80,0
428.971,429.06683,52,80,0
429.07098,429.16684,57,80,0
429.171,429.2668,48,80,0
429.171,429.2668,52,80,0
429.271,429.36682,57,80,0
429.371,429.46683,48,80,0
429.371,429.46683,52,80,0
429.471,429.56683,57,80,0
429.57098,429.66684,48,80,0
429.57098,429.66684,52,80,0
429.671,429.7668,57,80,0
429.771,429.86682,48,80,0
429.771,429.86682,52,80,0
429.871,429.96683,57,80,0
429.971,430.06683,57,80,0
429.971,430.06683,53,80,0
430.07098,430.16684,60,80,0
430.171,430.2668,57,81,0
430.171,430.2668,53,81,0
430.271,430.36682,60,82,0
430.371,430.46683,57,83,0
430.371,430.46683,53,83,0
430.471,430.56683,60,84,0
430.57098,430.66684,57,85,0
430.57098,430.66684,53,85,0
430.671,430.7668,60,85,0
430.771,430.86682,57,86,0
430.771,430.86682,53,86,0
430.871,430.96683,62,87,0
430.971,431.06683,57,88,0
430.971,431.06683,53,88,0
431.07098,431.16684,62,89,0
431.171,431.2668,57,90,0
431.171,431.2668,53,90,0
431.271,431.36682,62,90,0
431.371,431.46683,57,91,0
431.371,431.46683,53,91,0
431.471,431.56683,62,92,0
431.57098,431.66684,57,93,0
431.57098,431.66684,53,93,0
431.671,431.7668,63,94,0
431.771,431.86682,57,95,0
431.771,431.86682,53,95,0
431.871,431.96683,63,95,0
431.971,432.06683,57,96,0
431.971,432.06683,53,96,0
432.07098,432.16684,63,97,0
432.171,432.2668,57,98,0
432.171,432.2668,53,98,0
432.271,432.36682,63,99,0
432.371,432.46683,57,100,0
432.371,432.46683,53,100,0
432.471,432.56683,60,100,0
432.57098,432.66684,57,101,0
432.57098,432.66684,53,101,0
432.671,432.7668,60,102,0
432.771,432.86682,53,103,0
432.871,432.96683,57,104,0
432.971,433.06683,53,105,0
433.07098,433.16684,57,105,0
433.171,433.2668,52,80,0
433.271,433.36682,56,80,0
433.371,433.46683,59,80,0
433.471,433.56683,64,80,0
433.57098,433.66684,52,80,0
433.671,433.7668,56,80,0
433.771,433.86682,59,80,0
433.871,433.96683,64,80,0
433.971,434.06683,52,80,0
434.07098,434.16684,57,80,0
434.171,434.2668,60,80,0
434.271,434.36682,64,80,0
434.371,434.46683,52,80,0
434.471,434.56683,57,80,0
434.57098,434.66684,60,80,0
434.671,434.7668,64,80,0
434.771,434.86682,52,80,0
434.871,434.96683,59,80,0
434.971,435.06683,62,80,0
435.07098,435.16684,64,80,0
435.171,435.2668,52,80,0
435.271,435.36682,59,80,0
435.371,435.46683,62,80,0
435.471,435.56683,64,80,0
435.57098,435.66684,52,80,0
435.671,435.7668,57,80,0
435.771,435.86682,60,80,0
435.871,435.96683,64,80,0
435.971,436.06683,52,80,0
436.07098,436.16684,57,80,0
436.171,436.2668,60,80,0
436.271,436.36682,64,80,0
436.371,436.46683,52,80,0
436.471,436.56683,56,80,0
436.57098,436.66684,59,80,0
436.671,436.7668,64,80,0
436.771,436.86682,52,80,0
436.871,436.96683,56,80,0
436.971,437.06683,59,80,0
437.07098,437.16684,64,80,0
437.171,437.2668,52,80,0
437.271,437.36682,57,80,0
437.371,437.46683,60,80,0
437.471,437.56683,64,80,0
437.57098,437.66684,52,80,0
437.671,437.7668,57,80,0
437.771,437.86682,60,80,0
437.871,437.96683,64,80,0
437.971,438.06683,52,80,0
438.07098,438.16684,59,80,0
438.171,438.2668,62,80,0
438.271,438.36682,64,80,0
438.371,438.46683,52,80,0
438.471,438.56683,59,80,0
438.57098,438.66684,62,80,0
438.671,438.7668,64,80,0
438.771,438.86682,52,80,0
438.871,438.96683,57,80,0
438.971,439.06683,60,80,0
439.07098,439.16684,64,80,0
439.171,439.2668,52,80,0
439.271,439.36682,57,80,0
439.371,439.46683,60,80,0
439.471,439.56683,64,80,0
439.57098,439.66684,52,80,0
439.671,439.7668,56,81,0
439.771,439.86682,59,83,0
439.871,439.96683,64,84,0
439.971,440.06683,63,86,0
440.07098,440.16684,64,88,0
440.171,440.2668,60,89,0
440.271,440.36682,57,91,0
440.371,440.46683,52,93,0
440.471,440.56683,56,94,0
440.57098,440.66684,59,96,0
440.671,440.7668,64,97,0
440.771,440.86682,63,99,0
440.871,440.96683,64,101,0
440.971,441.06683,60,102,0
441.07098,441.16684,57,104,0
441.171,441.2668,52,110,0
441.271,441.36682,56,110,0
441.371,441.46683,59,110,0
441.471,441.56683,64,110,0
441.57098,441.66684,52,110,0
441.671,441.7668,57,110,0
441.771,441.86682,60,110,0
441.871,441.96683,64,110,0
441.971,442.06683,52,110,0
442.07098,442.16684,56,110,0
442.171,442.2668,59,110,0
442.271,442.36682,64,110,0
442.371,442.46683,52,110,0
442.471,442.56683,57,110,0
442.57098,442.66684,60,110,0
442.671,442.7668,64,110,0
442.771,443.16684,64,110,0
442.771,443.16684,59,110,0
442.771,443.16684,56,110,0
442.771,443.16684,52,110,0
445.57098,445.66684,40,110,0
445.671,445.7668,44,110,0
445.771,445.86682,47,110,0
445.871,445.96683,52,110,0
445.971,446.16684,40,110,0
446.171,446.36682,52,109,0
446.371,446.56683,42,107,0
446.57098,446.7668,54,105,0
446.771,446.96683,44,103,0
446.971,447.16684,56,101,0
447.57098,447.7668,44,95,0
447.771,447.96683,56,93,0
447.971,448.16684,45,91,0
448.171,448.36682,57,89,0
448.371,448.56683,47,87,0
448.57098,448.7668,59,85,0
449.971,450.16684,47,80,0
450.171,450.36682,59,80,0
450.371,450.56683,49,80,0
450.57098,450.7668,61,80,0
450.771,450.9808,50,80,0
450.9853,451.1951,62,80,0
451.19955,451.42554,52,80,0
451.43033,451.6563,64,80,0
451.6611,451.88705,54,80,0
451.89188,452.11783,66,80,0
452.12265,452.38968,56,80,0
452.3954,452.6624,68,80,0
452.6681,453.62833,69,80,0
452.6681,453.62833,64,80,0
452.6681,453.62833,61,80,0
452.6681,453.62833,57,80,0
453.63312,454.08987,64,80,0
453.63312,454.08987,59,80,0
453.63312,454.08987,56,80,0
453.63312,454.08987,52,80,0
454.09467,454.5514,66,80,0
454.09467,454.5514,61,80,0
454.09467,454.5514,57,80,0
454.09467,454.5514,54,80,0
454.5562,455.4745,61,80,0
454.5562,455.4745,56,80,0
454.5562,455.4745,53,80,0
454.5562,455.4745,49,80,0
455.47928,456.39755,62,80,0
455.47928,456.39755,57,80,0
455.47928,456.39755,54,80,0
455.47928,456.39755,50,80,0
456.40237,457.32062,59,80,0
456.40237,457.32062,56,80,0
456.40237,457.32062,52,80,0
456.40237,457.32062,47,80,0
457.32544,457.80045,61,93,0
457.32544,457.80045,57,93,0
457.32544,457.80045,52,93,0
457.32544,457.80045,49,93,0
457.80545,458.32175,62,99,0
457.80545,458.32175,59,99,0
457.80545,458.32175,54,99,0
457.80545,458.32175,50,99,0
458.32718,459.34747,64,110,0
458.32718,459.34747,61,110,0
458.32718,459.34747,57,110,0
458.32718,460.32367,52,110,0
459.3528,460.32367,64,91,0
459.3528,460.32367,59,91,0
459.3528,460.32367,56,91,0
460.32867,461.24695,60,80,0
460.32867,461.24695,57,80,0
461.25177,461.7085,59,80,0
461.25177,461.7085,55,80,0
461.25177,461.7085,52,80,0
461.7133,462.17,57,80,0
461.7133,462.17,53,80,0
462.17484,463.0931,55,80,0
462.17484,463.0931,52,80,0
462.17484,463.0931,48,80,0
463.0979,464.01617,53,80,0
463.0979,464.01617,50,80,0
464.021,464.47772,52,80,0
464.021,464.47772,48,80,0
464.021,465.86234,43,80,0
464.4825,465.86234,53,86,0
464.4825,465.86234,50,86,0
465.86713,466.30695,52,80,0
465.86713,466.30695,48,80,0
467.61316,468.46585,76,80,0
467.61316,468.46585,72,80,0
468.4703,468.8944,77,80,0
468.4703,468.8944,74,80,0
468.4703,468.8944,71,80,0
468.4703,468.8944,68,80,0
468.8989,469.323,76,80,0
468.8989,469.323,72,80,0
468.8989,469.323,69,80,0
469.32745,470.1801,74,80,0
469.32745,470.1801,71,80,0
469.32745,470.1801,68,80,0
469.32745,470.1801,64,80,0
470.1846,471.03726,72,80,0
470.1846,471.03726,69,80,0
470.1846,471.03726,65,80,0
471.04175,471.8944,71,80,0
471.04175,471.8944,67,80,0
471.04175,471.8944,65,80,0
471.04175,471.8944,62,80,0
471.89886,472.323,72,96,0
471.89886,472.323,67,96,0
471.89886,472.323,64,96,0
472.32745,472.78418,74,105,0
472.32745,472.78418,72,105,0
472.32745,472.78418,69,105,0
472.32745,472.78418,65,105,0
472.789,473.7088,76,110,0
472.789,473.7088,72,110,0
472.789,474.13754,67,110,0
473.71344,474.13754,74,110,0
473.71344,474.13754,71,110,0
474.142,474.2804,55,93,0
474.28485,474.42325,57,87,0
474.4277,474.5661,59,81,0
474.5706,475.42325,64,80,0
474.5706,475.42325,60,80,0
475.4277,475.8518,62,80,0
475.4277,475.8518,59,80,0
475.4277,475.8518,56,80,0
475.8563,476.2804,60,80,0
475.8563,476.2804,57,80,0
476.28485,477.13754,59,80,0
476.28485,477.13754,56,80,0
476.28485,477.13754,52,80,0
477.142,477.9947,57,80,0
477.142,477.9947,53,80,0
477.99915,478.42325,52,80,0
477.99915,478.42325,48,80,0
477.99915,479.70895,43,80,0
478.4277,479.70895,53,87,0
478.4277,479.70895,50,87,0
479.7134,480.1229,48,110,0
479.7134,480.1229,36,110,0
480.12723,480.93683,43,110,0
480.941,481.73685,43,110,0
481.741,482.53683,43,110,0
482.54102,482.93683,43,110,0
482.941,483.0702,48,110,0
483.07434,483.20352,43,110,0
483.20767,483.33685,40,110,0
483.341,483.47018,43,110,0
483.47433,483.60352,48,110,0
483.60767,483.73685,52,110,0
483.741,483.87018,50,110,0
483.87433,484.0035,47,110,0
484.0077,484.13684,43,110,0
484.14102,484.27017,47,110,0
484.27435,484.4035,50,110,0
484.40768,484.53683,53,110,0
484.54102,484.67017,52,110,0
484.67435,484.8035,48,110,0
484.80768,484.93683,43,110,0
484.941,485.0702,48,110,0
485.07434,485.20352,52,110,0
485.20767,485.33685,55,110,0
485.341,485.47018,53,110,0
485.47433,485.60352,50,110,0
485.60767,485.73685,47,110,0
485.741,485.87018,59,110,0
485.87433,486.0035,53,110,0
486.0077,486.13684,50,110,0
486.14102,486.27017,52,110,0
486.27435,486.4035,55,110,0
486.40768,486.53683,60,110,0
486.54102,486.67017,55,110,0
486.67435,486.8035,52,110,0
486.80768,486.93683,48,110,0
486.941,487.0702,47,110,0
487.07434,487.20352,50,110,0
487.20767,487.33685,53,110,0
487.341,487.47018,50,110,0
487.47433,487.60352,47,110,0
487.60767,487.73685,43,110,0
487.741,487.87018,48,110,0
487.87433,488.0035,52,110,0
488.0077,488.13684,55,110,0
488.14102,488.27017,52,110,0
488.27435,488.4035,48,110,0
488.40768,488.53683,43,110,0
488.54102,488.67017,50,110,0
488.67435,488.8035,53,110,0
488.80768,488.93683,55,110,0
488.941,489.0702,53,110,0
489.07434,489.20352,55,110,0
489.20767,489.33685,62,110,0
489.341,489.47018,52,100,0
489.47433,489.60352,55,100,0
489.60767,489.73685,60,100,0
489.741,489.87018,48,99,0
489.87433,490.0035,52,99,0
490.0077,490.13684,55,98,0
490.14102,490.27017,50,98,0
490.27435,490.4035,53,97,0
490.40768,490.53683,55,97,0
490.54102,490.67017,53,97,0
490.67435,490.8035,55,96,0
490.80768,490.93683,62,96,0
490.941,491.0702,52,95,0
491.07434,491.20352,55,95,0
491.20767,491.33685,60,94,0
491.341,491.47018,48,94,0
491.47433,491.60352,52,94,0
491.60767,491.73685,55,93,0
491.741,491.87018,50,93,0
491.87433,492.0035,53,92,0
492.0077,492.13684,55,92,0
492.14102,492.27017,53,91,0
492.27435,492.4035,55,91,0
492.40768,492.53683,62,91,0
492.54102,492.63376,52,90,0
492.6378,492.73053,55,90,0
492.73456,492.8273,48,91,0
492.83133,492.92407,55,92,0
492.9281,493.02084,50,92,0
493.02487,493.1176,55,93,0
493.12164,493.2144,53,94,0
493.2184,493.31116,55,94,0
493.31522,493.40796,52,95,0
493.412,493.50473,55,96,0
493.50876,493.6015,48,96,0
493.60553,493.69827,55,97,0
493.7023,493.79504,50,98,0
493.79907,493.8918,55,98,0
493.89584,493.9886,53,99,0
493.9926,494.08536,55,100,0
494.0894,494.17923,52,100,0
494.18314,494.27298,55,101,0
494.2769,494.36673,53,102,0
494.37064,494.46048,55,102,0
494.4644,494.55423,52,103,0
494.55814,494.64798,55,104,0
494.6519,494.74173,53,104,0
494.74564,494.83548,55,105,0
494.8394,494.92923,52,106,0
494.93314,495.02298,55,106,0
495.0269,495.11673,53,107,0
495.12064,495.21048,55,108,0
495.2144,495.30423,52,108,0
495.30814,495.39798,55,109,0
495.4019,495.49173,53,110,0
495.49564,495.58548,55,110,0
495.5894,495.67923,52,110,0
495.68314,495.77298,55,110,0
495.7769,495.86673,40,110,0
495.87064,495.96048,48,110,0
495.9644,496.05423,40,110,0
496.05814,496.14798,48,110,0
496.1519,496.24173,40,110,0
496.24564,496.33548,48,110,0
496.3394,496.42923,40,110,0
496.43314,496.52298,48,110,0
496.5269,496.61673,40,110,0
496.62064,496.71048,48,110,0
496.7144,496.80423,40,110,0
496.80814,496.89798,48,110,0
496.9019,496.99173,40,110,0
496.99564,497.08548,48,110,0
497.0894,497.17923,40,110,0
497.18314,497.27298,48,110,0
497.2769,497.36673,40,110,0
497.37064,497.46048,48,110,0
497.4644,497.55423,40,110,0
497.55814,497.64798,48,110,0
497.6519,497.74173,40,110,0
497.74564,497.83548,48,110,0
497.8394,497.92923,40,110,0
497.93314,498.02298,48,110,0
498.0269,498.11673,40,110,0
498.12064,498.21048,48,110,0
498.2144,498.30423,40,110,0
498.30814,498.39798,48,110,0
498.4019,498.49173,40,110,0
498.49564,498.58548,48,110,0
498.5894,498.77298,48,120,0
498.5894,498.77298,45,120,0
498.5894,498.77298,41,120,0
498.7769,498.96048,48,120,0
498.7769,498.96048,45,120,0
498.7769,498.96048,41,120,0
499.1519,499.33548,48,120,0
499.1519,499.33548,45,120,0
499.1519,499.33548,41,120,0
499.3394,499.52298,48,120,0
499.3394,499.52298,45,120,0
499.3394,499.52298,41,120,0
499.5269,499.71048,48,120,0
499.5269,499.71048,45,120,0
499.5269,499.71048,41,120,0
499.9019,500.08548,48,120,0
499.9019,500.08548,45,120,0
499.9019,500.08548,41,120,0
500.0894,500.27298,48,120,0
500.0894,500.27298,45,120,0
500.0894,500.27298,41,120,0
500.2769,500.46048,48,120,0
500.2769,500.46048,45,120,0
500.2769,500.46048,41,120,0
500.6519,500.83548,48,120,0
500.6519,500.83548,45,120,0
500.6519,500.83548,41,120,0
500.8394,501.02298,48,120,0
500.8394,501.02298,45,120,0
500.8394,501.02298,41,120,0
501.0269,501.21048,48,120,0
501.0269,501.21048,45,120,0
501.0269,501.21048,41,120,0
501.4019,501.58548,48,120,0
501.4019,501.58548,45,120,0
501.4019,501.58548,41,120,0
501.5894,501.77298,50,120,0
501.5894,501.77298,48,120,0
501.5894,501.77298,45,120,0
501.5894,501.77298,42,120,0
501.7769,501.96048,50,120,0
501.7769,501.96048,48,120,0
501.7769,501.96048,45,120,0
501.7769,501.96048,42,120,0
502.1519,502.33548,50,120,0
502.1519,502.33548,48,120,0
502.1519,502.33548,45,120,0
502.1519,502.33548,42,120,0
502.3394,502.52298,50,120,0
502.3394,502.52298,48,120,0
502.3394,502.52298,45,120,0
502.3394,502.52298,42,120,0
502.5269,502.71048,50,120,0
502.5269,502.71048,48,120,0
502.5269,502.71048,45,120,0
502.5269,502.71048,42,120,0
502.9019,503.08548,50,120,0
502.9019,503.08548,48,120,0
502.9019,503.08548,45,120,0
502.9019,503.08548,42,120,0
503.0894,503.27298,50,120,0
503.0894,503.27298,48,120,0
503.0894,503.27298,45,120,0
503.0894,503.27298,42,120,0
503.2769,503.46048,50,120,0
503.2769,503.46048,48,120,0
503.2769,503.46048,45,120,0
503.2769,503.46048,42,120,0
503.6519,503.83548,50,120,0
503.6519,503.83548,48,120,0
503.6519,503.83548,45,120,0
503.6519,503.83548,42,120,0
503.8394,504.02298,50,120,0
503.8394,504.02298,48,120,0
503.8394,504.02298,45,120,0
503.8394,504.02298,42,120,0
504.0269,504.21048,50,120,0
504.0269,504.21048,48,120,0
504.0269,504.21048,45,120,0
504.0269,504.21048,42,120,0
504.4019,504.58548,50,120,0
504.4019,504.58548,48,120,0
504.4019,504.58548,45,120,0
504.4019,504.58548,42,120,0
504.5894,504.67923,43,120,0
504.68314,504.77298,48,120,0
504.7769,504.86673,52,120,0
504.87064,504.96048,55,120,0
504.9644,505.05423,43,120,0
505.05814,505.14798,48,120,0
505.1519,505.24173,52,120,0
505.24564,505.33548,55,120,0
505.3394,505.42923,43,120,0
505.43314,505.52298,48,120,0
505.5269,505.61673,52,120,0
505.62064,505.71048,55,120,0
505.7144,505.80423,43,120,0
505.80814,505.89798,48,120,0
505.9019,505.99173,52,120,0
505.99564,506.08548,55,120,0
506.0894,506.17923,43,120,0
506.18314,506.27298,48,120,0
506.2769,506.36673,52,120,0
506.37064,506.46048,55,120,0
506.4644,506.55423,43,120,0
506.55814,506.64798,48,120,0
506.6519,506.74173,52,120,0
506.74564,506.83548,55,120,0
506.8394,507.02298,52,120,0
507.0269,507.21048,52,120,0
507.2144,507.39798,48,120,0
507.4019,507.58548,43,120,0
507.5894,507.77298,55,120,0
507.7769,507.96048,52,80,0
507.9644,508.14798,60,80,0
508.1519,508.33548,55,80,0
508.3394,508.52298,64,80,0
508.5269,508.71048,60,80,0
508.7144,508.89798,67,80,0
508.9019,509.08548,64,80,0
509.0894,509.27298,72,80,0
509.2769,509.46048,67,80,0
509.4644,509.64798,76,80,0
509.6519,509.83548,72,80,0
509.8394,510.02298,79,80,0
510.0269,510.21048,76,80,0
510.2144,510.39798,84,80,0
510.4019,510.58548,79,80,0
510.5894,510.77298,83,80,0
510.7769,510.96048,79,79,0
510.9644,511.14798,83,78,0
511.1519,511.33548,79,77,0
511.3394,511.52298,83,75,0
511.5269,511.71048,79,74,0
511.7144,511.89798,83,73,0
511.9019,512.0855,79,71,0
512.0894,512.273,83,70,0
512.2769,512.4605,79,70,0
512.4644,512.648,83,70,0
512.6519,512.8355,79,70,0
512.8394,513.023,83,70,0
513.0269,513.2105,79,70,0
513.2144,513.398,83,70,0
513.4019,513.5855,79,70,0
513.5894,513.67145,83,70,0
513.6363,513.7222,84,70,0
513.68317,513.7613,83,71,0
513.73004,513.80817,84,71,0
513.7769,513.85895,83,72,0
513.8238,513.9097,84,73,0
513.87067,513.9488,83,73,0
513.91754,513.99567,84,74,0
513.9644,514.04645,83,75,0
514.0113,514.0972,84,75,0
514.05817,514.1363,83,76,0
514.10504,514.18317,84,77,0
514.1519,514.23395,83,77,0
514.1988,514.2847,84,78,0
514.24567,514.3238,83,78,0
514.29254,514.37067,84,79,0
514.3394,514.42145,83,80,0
514.3863,514.4722,84,80,0
514.43317,514.5113,83,81,0
514.48004,514.55817,84,82,0
514.5269,514.60895,83,82,0
514.5738,514.6597,84,83,0
514.62067,514.6988,83,84,0
514.66754,514.74567,84,84,0
514.7144,514.79645,83,85,0
514.7613,514.8472,84,85,0
514.80817,514.8863,83,86,0
514.85504,514.93317,84,87,0
514.9019,514.98395,83,87,0
514.9488,515.0347,84,88,0
514.99567,515.0738,83,89,0
515.04254,515.12164,84,89,0
515.0894,515.1741,83,90,0
515.13776,515.2265,84,91,0
515.18616,515.2668,83,91,0
515.23456,515.3152,84,92,0
515.28296,515.3676,83,93,0
515.33136,515.42004,84,93,0
515.3797,515.4604,83,94,0
515.4281,515.5087,84,94,0
515.4765,515.56116,83,95,0
515.5249,515.6136,84,96,0
515.57324,515.65393,83,96,0
515.62164,515.70337,84,97,0
515.67004,515.75757,83,98,0
515.72003,515.8117,84,98,0
515.77,515.8534,83,99,0
515.82007,515.9034,84,100,0
515.87006,515.9575,83,100,0
515.92004,516.0117,84,101,0
515.97003,516.05334,83,101,0
516.02,516.1034,84,102,0
516.07007,516.15753,83,103,0
516.12006,516.21173,84,103,0
516.17004,516.25336,83,104,0
516.22003,516.3057,84,105,0
516.27,516.3638,83,105,0
516.3236,516.4218,84,106,0
516.3772,516.4665,83,107,0
516.4307,516.526,84,107,0
516.4843,516.5937,83,108,0
516.5468,516.6614,84,109,0
516.6093,516.7135,81,109,0
516.6718,516.7291,83,110,0
516.7343,517.5249,72,110,0
517.52905,518.3196,70,80,0
517.52905,518.3196,67,80,0
517.52905,518.3196,64,80,0
518.3237,519.11426,68,80,0
518.3237,519.11426,65,80,0
516.7343,519.909,60,110,0
519.1184,519.909,70,80,0
519.1184,519.909,67,80,0
519.1184,519.909,64,80,0
519.91315,520.30634,68,80,0
519.91315,520.30634,65,80,0
520.7078,521.4984,65,80,0
520.7078,521.4984,61,80,0
520.7078,521.4984,56,80,0
520.7078,521.4984,53,80,0
521.5025,522.2931,63,80,0
521.5025,522.2931,60,80,0
521.5025,522.2931,55,80,0
522.29724,523.08777,62,80,0
522.29724,523.08777,59,80,0
522.29724,523.08777,55,80,0
523.0919,523.8825,60,110,0
523.8866,524.6772,58,80,0
523.8866,524.6772,55,80,0
523.8866,524.6772,52,80,0
524.68134,525.47186,57,80,0
524.68134,525.47186,53,80,0
523.0919,526.2666,48,110,0
525.476,526.2666,58,80,0
525.476,526.2666,55,80,0
525.476,526.2666,52,80,0
526.27075,526.66394,57,80,0
526.27075,526.66394,53,80,0
527.0654,527.85596,53,80,0
527.0654,527.85596,50,80,0
527.0654,527.85596,45,80,0
527.0654,527.85596,41,80,0
527.8601,528.6507,52,80,0
527.8601,528.6507,48,80,0
527.8601,529.4454,43,80,0
528.65485,529.4454,50,80,0
528.65485,529.4454,47,80,0
529.4495,529.8427,52,80,0
529.4495,529.8427,48,80,0
529.84686,530.2401,40,80,0
529.84686,530.4388,48,80,0
530.4429,530.63745,50,80,0
530.6416,530.8361,52,80,0
530.2442,531.0348,41,80,0
530.8403,531.0348,53,80,0
531.03894,531.82947,55,80,0
531.03894,531.82947,52,80,0
531.8336,532.6242,53,80,0
531.8336,532.6242,50,80,0
532.6283,533.02155,52,80,0
532.6283,533.02155,48,80,0
533.0257,533.4189,45,80,0
533.0257,533.61755,53,80,0
533.6217,533.8162,55,80,0
533.8204,534.0149,57,80,0
533.42303,534.21356,46,80,0
534.01904,534.21356,58,80,0
534.2177,535.0083,60,80,0
534.2177,535.0083,57,80,0
534.2177,535.803,48,80,0
535.01245,535.803,58,80,0
535.01245,535.803,55,80,0
535.8071,536.2003,56,80,0
535.8071,536.2003,53,80,0
536.20447,536.59766,44,80,0
536.20447,536.7964,53,80,0
536.8005,536.99506,55,80,0
536.99915,537.1937,56,80,0
536.6018,537.3924,46,80,0
537.1979,537.3924,58,80,0
537.39655,538.1871,60,80,0
537.39655,538.1871,56,80,0
537.39655,539.0263,48,80,0
538.1912,539.0263,58,80,0
538.1912,539.0263,55,80,0
539.03076,539.2406,56,80,0
539.03076,539.2406,53,80,0
539.03076,539.2406,49,80,0
539.24506,539.43097,44,80,0
539.24506,539.43097,37,80,0
539.43494,539.62085,44,80,0
539.43494,539.62085,37,80,0
539.62476,539.8107,44,80,0
539.62476,539.8107,37,80,0
539.81464,540.00055,44,80,0
539.81464,540.00055,37,80,0
540.0045,540.1904,44,80,0
540.0045,540.1904,37,80,0
540.1944,540.3803,44,80,0
540.1944,540.3803,37,80,0
540.3843,540.5702,44,80,0
540.3843,540.5702,37,80,0
540.57416,540.7601,44,80,0
540.57416,540.7601,37,80,0
540.76404,540.94995,44,80,0
540.76404,540.94995,37,80,0
540.9539,541.13983,44,80,0
540.9539,541.13983,37,80,0
541.1438,541.3297,44,80,0
541.1438,541.3297,37,80,0
541.3336,541.51953,44,80,0
541.3336,541.51953,37,80,0
541.5235,541.7094,44,80,0
541.5235,541.7094,37,80,0
541.7134,541.8993,37,80,0
541.7134,541.8993,46,80,0
541.90326,542.0892,37,80,0
541.90326,542.0892,46,80,0
542.09314,542.27905,44,80,0
542.09314,542.27905,39,80,0
542.09314,542.27905,36,80,0
542.283,542.46893,44,80,0
542.283,542.46893,39,80,0
542.283,542.46893,36,80,0
542.4729,542.6588,44,80,0
542.4729,542.6588,39,80,0
542.4729,542.6588,36,80,0
542.6628,542.8487,44,80,0
542.6628,542.8487,39,80,0
542.6628,542.8487,36,80,0
542.8526,543.0385,44,80,0
542.8526,543.0385,39,80,0
542.8526,543.0385,36,80,0
543.0425,543.2284,44,80,0
543.0425,543.2284,39,80,0
543.0425,543.2284,36,80,0
543.23236,543.4183,44,80,0
543.23236,543.4183,39,80,0
543.23236,543.4183,36,80,0
543.42224,543.60815,44,80,0
543.42224,543.60815,39,80,0
543.42224,543.60815,36,80,0
543.6121,543.79803,45,110,0
543.6121,543.79803,41,110,0
543.6121,543.79803,39,110,0
543.6121,543.79803,36,110,0
543.802,543.9879,45,110,0
543.802,543.9879,41,110,0
543.802,543.9879,39,110,0
543.802,543.9879,36,110,0
543.9919,544.1778,45,110,0
543.9919,544.1778,41,110,0
543.9919,544.1778,39,110,0
543.9919,544.1778,36,110,0
544.18176,544.3677,45,110,0
544.18176,544.3677,41,110,0
544.18176,544.3677,39,110,0
544.18176,544.3677,36,110,0
544.3716,544.55756,45,110,0
544.3716,544.55756,41,110,0
544.3716,544.55756,39,110,0
544.3716,544.55756,36,110,0
544.56146,544.7474,45,110,0
544.56146,544.7474,41,110,0
544.56146,544.7474,39,110,0
544.56146,544.7474,36,110,0
544.75134,544.93726,45,110,0
544.75134,544.93726,41,110,0
544.75134,544.93726,39,110,0
544.75134,544.93726,36,110,0
544.9412,545.12714,45,110,0
544.9412,545.12714,41,110,0
544.9412,545.12714,39,110,0
544.9412,545.12714,36,110,0
545.1311,545.317,46,80,0
545.1311,545.317,41,80,0
545.1311,545.317,37,80,0
545.321,545.5069,46,80,0
545.321,545.5069,41,80,0
545.321,545.5069,37,80,0
545.51086,545.6968,46,80,0
545.51086,545.6968,41,80,0
545.51086,545.6968,37,80,0
545.70074,545.88666,46,80,0
545.70074,545.88666,41,80,0
545.70074,545.88666,37,80,0
545.89056,546.07654,46,80,0
545.89056,546.07654,41,80,0
545.89056,546.07654,37,80,0
546.08044,546.26636,46,80,0
546.08044,546.26636,41,80,0
546.08044,546.26636,37,80,0
546.2703,546.45624,46,80,0
546.2703,546.45624,41,80,0
546.2703,546.45624,37,80,0
546.4602,546.6461,46,80,0
546.4602,546.6461,41,80,0
546.4602,546.6461,37,80,0
546.6501,546.836,47,110,0
546.6501,546.836,41,110,0
546.6501,546.836,38,110,0
546.83997,547.0259,47,110,0
546.83997,547.0259,41,110,0
546.83997,547.0259,38,110,0
547.02985,547.21576,47,110,0
547.02985,547.21576,41,110,0
547.02985,547.21576,38,110,0
547.2197,547.40564,47,110,0
547.2197,547.40564,41,110,0
547.2197,547.40564,38,110,0
547.4096,547.5955,47,110,0
547.4096,547.5955,41,110,0
547.4096,547.5955,38,110,0
547.5994,547.78534,47,110,0
547.5994,547.78534,41,110,0
547.5994,547.78534,38,110,0
547.7893,547.9752,47,110,0
547.7893,547.9752,41,110,0
547.7893,547.9752,38,110,0
547.9792,548.1651,47,110,0
547.9792,548.1651,41,110,0
547.9792,548.1651,38,110,0
548.16907,548.355,47,110,0
548.16907,548.355,43,110,0
548.16907,548.355,39,110,0
548.35895,548.54486,47,110,0
548.35895,548.54486,43,110,0
548.35895,548.54486,39,110,0
548.5488,548.73474,48,110,0
548.5488,548.73474,43,110,0
548.5488,548.73474,39,110,0
548.7387,548.9246,48,110,0
548.7387,548.9246,43,110,0
548.7387,548.9246,39,110,0
548.9286,549.1145,48,110,0
548.9286,549.1145,44,110,0
548.9286,549.1145,41,110,0
549.1184,549.3044,48,110,0
549.1184,549.3044,44,110,0
549.1184,549.3044,41,110,0
549.3083,549.4942,50,110,0
549.3083,549.4942,44,110,0
549.3083,549.4942,41,110,0
549.49817,549.6841,50,110,0
549.49817,549.6841,44,110,0
549.49817,549.6841,41,110,0
549.68805,549.87396,50,110,0
549.68805,549.87396,46,110,0
549.68805,549.87396,43,110,0
549.8779,550.06384,50,110,0
549.8779,550.06384,46,110,0
549.8779,550.06384,43,110,0
550.0678,550.2537,52,110,0
550.0678,550.2537,46,110,0
550.0678,550.2537,43,110,0
550.2577,550.4436,52,110,0
550.2577,550.4436,46,110,0
550.2577,550.4436,43,110,0
550.4476,550.6335,52,110,0
550.4476,550.6335,48,110,0
550.4476,550.6335,44,110,0
550.6374,550.82336,52,110,0
550.6374,550.82336,48,110,0
550.6374,550.82336,44,110,0
550.8273,551.0132,48,110,0
550.8273,551.0132,44,110,0
550.8273,551.0132,53,110,0
551.01715,551.20306,48,110,0
551.01715,551.20306,44,110,0
551.01715,551.20306,53,110,0
551.20703,551.39294,54,120,0
551.20703,551.39294,48,120,0
551.20703,551.39294,45,120,0
551.3969,551.5828,54,120,0
551.3969,551.5828,48,120,0
551.3969,551.5828,45,120,0
551.5868,551.7727,54,120,0
551.5868,551.7727,48,120,0
551.5868,551.7727,45,120,0
551.7767,551.9626,54,120,0
551.7767,551.9626,48,120,0
551.7767,551.9626,45,120,0
551.96655,552.15247,54,120,0
551.96655,552.15247,48,120,0
551.96655,552.15247,45,120,0
552.1564,552.34235,54,120,0
552.1564,552.34235,48,120,0
552.1564,552.34235,45,120,0
552.34625,552.53217,54,120,0
552.34625,552.53217,48,120,0
552.34625,552.53217,45,120,0
552.53613,552.72205,54,120,0
552.53613,552.72205,48,120,0
552.53613,552.72205,45,120,0
552.726,552.9119,54,120,0
552.726,552.9119,48,120,0
552.726,552.9119,44,120,0
552.9159,553.1018,54,120,0
552.9159,553.1018,48,120,0
552.9159,553.1018,44,120,0
553.1058,553.2917,54,120,0
553.1058,553.2917,48,120,0
553.1058,553.2917,44,120,0
553.29565,553.48157,54,120,0
553.29565,553.48157,48,120,0
553.29565,553.48157,44,120,0
553.48553,553.67145,51,120,0
553.48553,553.67145,48,120,0
553.48553,553.67145,44,120,0
553.6754,553.8613,44,120,0
553.6754,553.8613,48,120,0
553.6754,553.8613,51,120,0
553.86523,554.05115,48,120,0
553.86523,554.05115,44,120,0
554.0551,554.241,48,120,0
554.0551,554.241,44,120,0
554.245,554.4309,47,120,0
554.245,554.4309,43,120,0
557.28296,557.4689,47,70,0
557.28296,557.4689,50,70,0
557.47284,557.65875,47,70,0
557.47284,557.65875,50,70,0
557.6627,557.84863,47,70,0
557.6627,557.84863,50,70,0
557.8526,558.0385,47,70,0
557.8526,558.0385,50,70,0
558.0425,558.2284,47,70,0
558.0425,558.2284,50,70,0
558.23236,558.4183,47,70,0
558.23236,558.4183,50,70,0
558.42224,558.60815,47,70,0
558.42224,558.60815,50,70,0
558.61206,558.798,47,70,0
558.61206,558.798,50,70,0
558.80194,558.98785,47,70,0
558.80194,558.98785,50,70,0
558.9918,559.17773,47,70,0
558.9918,559.17773,50,70,0
559.1817,559.3676,47,70,0
559.1817,559.3676,50,70,0
559.3716,559.5575,47,70,0
559.3716,559.5575,50,70,0
559.56146,559.7474,47,70,0
559.56146,559.7474,50,70,0
559.75134,559.93726,47,70,0
559.75134,559.93726,50,70,0
559.9412,560.12714,52,70,0
559.9412,560.12714,49,70,0
560.13104,560.31696,52,70,0
560.13104,560.31696,49,70,0
560.3209,560.8866,53,70,0
560.89056,560.98157,57,70,0
560.9855,561.0765,55,70,0
560.3209,561.26636,50,70,0
561.08044,561.26636,53,70,0
561.8399,562.31067,69,70,0
562.31464,562.4056,67,70,0
562.40955,562.50055,65,70,0
562.50446,562.59546,64,70,0
562.5994,562.9752,62,70,0
563.3589,563.5448,48,70,0
563.3589,563.5448,45,70,0
563.54877,563.7347,48,70,0
563.54877,563.7347,45,70,0
563.73865,563.92456,48,70,0
563.73865,563.92456,45,70,0
563.9285,564.11444,48,70,0
563.9285,564.11444,45,70,0
564.1184,564.3043,48,70,0
564.1184,564.3043,45,70,0
564.3083,564.4942,48,70,0
564.3083,564.4942,45,70,0
564.49817,564.6841,48,70,0
564.49817,564.6841,45,70,0
564.68805,564.87396,48,70,0
564.68805,564.87396,45,70,0
564.87787,565.0638,48,70,0
564.87787,565.0638,45,70,0
565.06775,565.25366,48,70,0
565.06775,565.25366,45,70,0
565.2576,565.44354,48,70,0
565.2576,565.44354,45,70,0
565.4475,565.6334,48,70,0
565.4475,565.6334,45,70,0
565.6374,565.8233,48,70,0
565.6374,565.8233,45,70,0
565.8273,566.0132,48,70,0
565.8273,566.0132,45,70,0
566.01715,566.20306,50,70,0
566.01715,566.20306,47,70,0
566.20703,566.39294,50,70,0
566.20703,566.39294,47,70,0
566.39685,566.9625,52,70,0
566.9665,567.0575,55,70,0
567.06146,567.1524,53,70,0
566.39685,567.3423,48,70,0
567.1564,567.3423,52,70,0
567.91583,568.0622,48,70,0
567.9633,568.3866,64,70,0
568.39056,568.4815,62,70,0
568.4855,568.5765,60,70,0
568.58044,568.6714,59,70,0
568.67535,568.86127,57,70,0
569.4349,570.0005,53,70,0
570.00446,570.09546,57,75,0
570.0994,570.19037,55,75,0
569.4349,570.38025,50,70,0
570.19434,570.38025,53,76,0
570.95386,571.11206,50,83,0
571.0013,571.42456,65,84,0
571.4285,571.5195,64,87,0
571.52344,571.61444,62,88,0
571.6184,571.70935,60,89,0
571.7133,572.0891,59,90,0
572.47284,572.6548,52,97,0
572.52026,572.94354,67,97,0
572.9475,573.03845,65,101,0
573.0424,573.1334,64,102,0
573.1374,573.22833,62,103,0
573.2323,573.6081,61,104,0
574.03925,574.3676,69,110,0
574.3715,574.4625,67,110,0
574.4665,574.55743,65,110,0
574.5614,574.6524,64,110,0
573.9918,574.67615,53,110,0
574.6564,574.7473,62,110,0
574.80273,575.13104,71,110,0
575.13104,575.22205,69,110,0
575.22595,575.31696,67,110,0
574.7513,575.3288,55,110,0
575.3209,575.41187,65,110,0
575.41583,575.50684,64,110,0
575.5582,575.8866,72,110,0
575.8905,575.9815,71,110,0
575.5108,576.0606,57,110,0
575.9855,576.0764,69,110,0
576.0804,576.1714,67,110,0
576.17535,576.2663,65,110,0
576.31775,576.73706,74,110,0
576.65,576.741,72,110,0
576.27026,576.8082,59,110,0
576.74493,576.83594,71,110,0
576.8399,576.93085,69,110,0
576.9348,577.0258,67,110,0
577.0772,577.4056,76,110,0
577.4095,577.5005,74,110,0
577.0298,577.5717,60,110,0
577.50446,577.59546,72,110,0
577.59937,577.69037,71,110,0
577.69434,577.7853,69,110,0
577.83673,578.16504,77,110,0
578.169,578.26,76,110,0
577.78925,578.33514,62,110,0
578.2639,578.3549,74,110,0
578.3589,578.4498,72,110,0
578.4538,578.5448,71,110,0
578.54877,578.6081,64,110,0
578.61206,578.6714,72,110,0
578.67535,578.7347,76,110,0
578.92847,578.98785,64,110,0
578.99176,579.05115,72,110,0
579.05505,579.11444,76,110,0
579.3082,579.36755,64,110,0
579.3715,579.43085,72,110,0
579.4348,579.49414,76,110,0
579.688,579.7473,64,110,0
579.7513,579.8106,72,110,0
579.8146,579.8739,76,110,0
580.06775,580.44354,77,110,0
580.06775,580.44354,72,110,0
580.06775,580.44354,65,110,0
581.9665,582.4372,29,110,0
582.44116,582.5321,31,110,0
582.5361,582.6271,33,110,0
582.63104,582.722,35,110,0
582.72595,582.81696,36,110,0
582.82086,582.91187,38,110,0
582.91583,583.00684,40,110,0
583.01074,583.10175,41,110,0
583.1057,583.4815,40,110,0
583.1057,583.4815,36,110,0
583.1057,583.4815,31,110,0
586.61835,586.70935,76,83,0
586.7133,586.80426,75,83,0
586.8082,586.89923,76,84,0
586.90314,586.99414,67,85,0
586.9981,587.08905,72,85,0
587.093,587.184,71,86,0
587.188,587.27893,72,87,0
587.2829,587.3739,67,87,0
587.37787,587.4688,76,88,0
587.4728,587.5638,75,89,0
587.5677,587.6587,76,89,0
587.66266,587.75366,67,90,0
587.75757,587.8486,72,90,0
587.85254,587.9435,71,91,0
587.94745,588.03845,72,92,0
588.0424,588.13513,67,92,0
588.13916,588.23193,76,93,0
588.23596,588.3287,75,94,0
588.3327,588.4255,76,94,0
588.4295,588.5253,67,95,0
588.5295,588.6253,72,96,0
588.6295,588.72534,71,96,0
588.7295,588.8253,72,97,0
588.82947,588.94006,67,98,0
588.9449,589.0555,76,98,0
589.06024,589.20404,75,99,0
589.21027,589.354,76,99,0
589.3603,592.01996,77,100,0
589.3603,592.01996,74,100,0
589.3603,592.01996,67,100,0
592.0269,594.7799,65,100,0
592.0269,594.7799,62,100,0
592.0269,594.7799,55,100,0
594.7888,595.7071,48,80,0
594.7888,595.7071,36,80,0
595.7119,596.16864,44,80,0
595.7119,596.16864,32,80,0
596.17346,596.6302,45,80,0
596.17346,596.6302,33,80,0
596.635,597.5532,40,80,0
596.635,597.5532,28,80,0
597.55804,598.4763,41,80,0
597.55804,598.4763,29,80,0
598.48114,599.3994,59,80,0
598.48114,599.3994,55,80,0
598.48114,599.3994,53,80,0
598.48114,599.3994,50,80,0
599.40424,599.86096,60,80,0
599.40424,599.86096,55,80,0
599.40424,599.86096,52,80,0
599.8657,600.32245,60,80,0
599.8657,600.32245,62,80,0
599.8657,600.32245,57,80,0
599.8657,600.32245,53,80,0
600.3273,601.24554,64,80,0
600.3273,601.24554,60,80,0
600.3273,602.16864,55,80,0
601.25037,602.16864,62,80,0
601.25037,602.16864,59,80,0
602.17346,603.09174,76,80,0
602.17346,603.09174,72,80,0
603.0965,603.5532,74,80,0
603.0965,603.5532,71,80,0
603.0965,603.5532,68,80,0
603.55804,604.0148,69,80,0
603.55804,604.0148,72,80,0
604.0196,604.93787,71,80,0
604.0196,604.93787,68,80,0
604.0196,604.93787,64,80,0
604.9427,605.86096,69,80,0
604.9427,605.86096,65,80,0
605.8657,606.34076,64,80,0
605.8657,606.34076,60,80,0
605.8657,609.30493,55,80,0
606.34576,609.30493,65,80,0
606.34576,609.30493,62,80,0
609.32574,609.7825,52,80,0
609.32574,609.7825,48,80,0
609.32574,614.4948,43,80,0
609.7873,614.4948,50,80,0
609.7873,614.4948,53,80,0
614.50525,614.962,40,80,0
614.50525,614.962,36,80,0
614.50525,619.6743,31,80,0
614.96674,619.6743,38,80,0
614.96674,619.6743,41,80,0
619.6847,619.8683,48,80,0
619.6847,619.8683,36,80,0
619.8722,620.0558,55,80,0
619.8722,620.0558,48,80,0
620.0597,620.2433,55,80,0
620.0597,620.2433,48,80,0
620.2472,620.4308,55,80,0
620.2472,620.4308,48,80,0
620.4347,620.6183,55,80,0
620.4347,620.6183,48,80,0
620.6222,620.8058,55,80,0
620.6222,620.8058,48,80,0
620.8097,620.9933,55,80,0
620.8097,620.9933,48,80,0
620.9972,621.1808,55,80,0
620.9972,621.1808,48,80,0
621.1847,621.3683,55,80,0
621.1847,621.3683,48,80,0
621.3722,621.5558,55,80,0
621.3722,621.5558,48,80,0
621.5597,621.7433,55,80,0
621.5597,621.7433,48,80,0
621.7472,621.9308,55,80,0
621.7472,621.9308,48,80,0
621.9347,622.1183,55,80,0
621.9347,622.1183,48,80,0
622.1222,622.3058,55,80,0
622.1222,622.3058,48,80,0
622.3097,622.4933,48,80,0
622.3097,622.4933,57,80,0
622.4972,622.6808,48,80,0
622.4972,622.6808,57,80,0
622.6847,622.8683,55,80,0
622.6847,622.8683,50,80,0
622.6847,622.8683,47,80,0
622.8722,623.0558,55,82,0
622.8722,623.0558,50,82,0
622.8722,623.0558,47,82,0
623.0597,623.2433,55,85,0
623.0597,623.2433,50,85,0
623.0597,623.2433,47,85,0
623.2472,623.4308,55,87,0
623.2472,623.4308,50,87,0
623.2472,623.4308,47,87,0
623.4347,623.6183,55,90,0
623.4347,623.6183,48,90,0
623.4347,623.6183,46,90,0
623.6222,623.8058,55,93,0
623.6222,623.8058,48,93,0
623.6222,623.8058,46,93,0
623.8097,623.9933,55,95,0
623.8097,623.9933,48,95,0
623.8097,623.9933,46,95,0
623.9972,624.1808,55,98,0
623.9972,624.1808,48,98,0
623.9972,624.1808,46,98,0
624.1847,624.3683,53,101,0
624.1847,624.3683,45,101,0
624.1847,624.3683,48,101,0
624.3722,624.5558,53,103,0
624.3722,624.5558,48,103,0
624.3722,624.5558,45,103,0
624.5597,624.7433,53,106,0
624.5597,624.7433,45,106,0
624.5597,624.7433,48,106,0
624.7472,624.9308,53,109,0
624.7472,624.9308,48,109,0
624.7472,624.9308,45,109,0
624.9347,625.1183,53,111,0
624.9347,625.1183,48,111,0
624.9347,625.1183,44,111,0
625.1222,625.3058,44,114,0
625.1222,625.3058,32,114,0
625.3097,625.4933,44,116,0
625.3097,625.4933,32,116,0
625.4972,625.6808,44,119,0
625.4972,625.6808,32,119,0
625.6847,625.77454,43,120,0
625.6847,625.77454,31,120,0
625.77844,625.8683,33,120,0
625.8722,625.96204,35,120,0
625.96594,626.0558,36,120,0
626.0597,626.14954,38,120,0
626.15344,626.2433,40,120,0
626.2472,626.33704,41,120,0
626.34094,626.4308,43,120,0
626.4347,626.52454,45,120,0
626.52844,626.6183,47,120,0
626.6222,626.71204,48,120,0
626.71594,626.8058,50,120,0
626.8097,626.89954,52,120,0
626.90344,626.9933,53,120,0
626.9972,627.08704,55,120,0
627.09094,627.1808,57,120,0
627.1847,627.5558,53,120,0
627.1847,627.5558,41,120,0
627.5597,627.9308,55,120,0
627.5597,627.9308,50,120,0
627.5597,627.9308,47,120,0
627.5597,627.9308,43,120,0
628.77124,629.22797,60,120,0
628.77124,629.22797,55,120,0
628.77124,629.22797,52,120,0
628.77124,629.22797,48,120,0
629.69434,630.15106,55,120,0
629.69434,630.15106,50,120,0
629.69434,630.15106,47,120,0
629.69434,630.15106,43,120,0
630.75586,632.5496,48,120,0
630.75586,632.5496,43,120,0
630.75586,632.5496,40,120,0
630.75586,632.5496,36,120,0
