start_time,end_time,note_value,velocity,instrument_program_number
0.0,0.2698861,70,1,0
1.4999985,1.6335211,86,120,0
1.4999985,1.6335211,82,120,0
1.4999985,1.6335211,77,120,0
1.4999985,1.6335211,74,120,0
1.636362,1.9062481,86,120,0
1.636362,1.9062481,82,120,0
1.636362,1.9062481,77,120,0
1.636362,1.9062481,74,120,0
1.909089,2.0426116,87,120,0
1.909089,2.0426116,82,120,0
1.909089,2.0426116,77,120,0
1.909089,2.0426116,74,120,0
2.0454526,2.178975,86,120,0
2.0454526,2.178975,82,120,0
2.0454526,2.178975,77,120,0
2.0454526,2.178975,74,120,0
2.181816,2.451702,86,120,0
2.181816,2.451702,82,120,0
2.181816,2.451702,77,120,0
2.181816,2.451702,74,120,0
2.454543,2.7244291,82,120,0
2.454543,2.7244291,77,120,0
2.454543,2.7244291,74,120,0
2.454543,2.7244291,70,120,0
3.6818144,3.8153372,89,120,0
3.6818144,3.8153372,86,120,0
3.6818144,3.8153372,82,120,0
3.6818144,3.8153372,77,120,0
3.818178,4.088064,89,120,0
3.818178,4.088064,86,120,0
3.818178,4.088064,82,120,0
3.818178,4.088064,77,120,0
4.090905,4.2244277,91,120,0
4.090905,4.2244277,86,120,0
4.090905,4.2244277,82,120,0
4.090905,4.2244277,77,120,0
4.2272687,4.360791,89,120,0
4.2272687,4.360791,86,120,0
4.2272687,4.360791,82,120,0
4.2272687,4.360791,77,120,0
4.363632,4.633518,89,120,0
4.363632,4.633518,86,120,0
4.363632,4.633518,82,120,0
4.363632,4.633518,77,120,0
4.636359,5.4516993,82,120,0
4.636359,5.4516993,77,120,0
4.636359,5.4516993,74,120,0
4.636359,5.4516993,86,120,0
6.272721,6.406244,70,80,0
6.4090843,6.5426073,72,80,0
6.545448,7.088061,74,80,0
6.818175,7.088061,67,80,0
7.090902,7.360788,69,80,0
7.090902,7.360788,72,80,0
7.363629,7.4971514,72,80,0
7.363629,7.633515,68,80,0
7.4999924,7.633515,74,80,0
7.636356,7.906242,67,80,0
7.636356,8.178969,75,80,0
7.909083,8.178969,69,80,0
8.18181,8.451696,70,80,0
8.18181,8.451696,74,80,0
8.454537,8.588059,74,80,0
8.454537,8.724423,67,80,0
8.5909,8.724423,75,80,0
8.727264,8.99715,69,80,0
8.727264,9.133513,77,80,0
8.999991,9.269877,70,80,0
9.136354,9.269877,79,80,0
9.272718,9.419593,77,80,0
9.272718,9.569593,67,80,0
9.422718,9.719593,75,80,0
9.572718,9.869593,69,80,0
9.722718,9.869593,77,80,0
9.872718,10.0359125,75,80,0
9.872718,10.202579,70,80,0
9.872718,10.202579,65,80,0
10.039385,10.202579,74,80,0
10.206051,10.389645,77,80,0
10.206051,10.619513,72,80,0
10.206051,10.619513,67,80,0
10.393551,10.619513,75,80,0
10.62432,11.542588,72,80,0
10.62432,11.542588,69,80,0
12.365577,12.4991,82,80,0
12.501941,12.635463,84,80,0
12.638304,13.180917,86,80,0
12.911031,13.180917,79,80,0
13.183758,13.453644,81,80,0
13.183758,13.453644,84,80,0
13.456485,13.590008,84,80,0
13.456485,13.726371,80,80,0
13.592849,13.726371,86,80,0
13.729212,13.999098,79,80,0
13.729212,14.271825,87,80,0
14.001939,14.271825,81,80,0
14.274666,14.544552,82,80,0
14.274666,14.544552,86,80,0
14.547393,14.680916,86,80,0
14.547393,14.817279,79,80,0
14.683757,14.817279,87,80,0
14.82012,15.090006,81,80,0
14.82012,15.22637,89,80,0
15.092847,15.362733,82,81,0
15.229211,15.362733,91,82,0
15.365574,15.499097,89,83,0
15.365574,15.63546,79,83,0
15.501938,15.771824,87,83,0
15.638301,15.908187,81,84,0
15.774665,15.908187,89,85,0
15.911028,16.04455,87,86,0
15.911028,16.180914,77,86,0
16.047392,16.317278,86,86,0
16.320118,16.453642,87,88,0
16.456482,16.590004,86,89,0
16.183756,16.726368,82,87,0
16.592846,16.726368,84,89,0
16.72921,16.862732,86,90,0
16.72921,16.999096,81,90,0
16.72921,16.999096,77,90,0
16.865572,16.999096,87,91,0
17.001936,17.135458,91,92,0
17.001936,17.271822,82,92,0
17.001936,17.271822,77,92,0
17.1383,17.271822,89,93,0
17.274664,17.408186,91,93,0
17.274664,17.54455,82,93,0
17.411026,17.54455,89,94,0
17.54739,17.680912,89,95,0
17.54739,17.817276,79,95,0
17.683754,17.817276,87,96,0
17.820118,17.95364,89,96,0
17.820118,18.090004,81,96,0
17.95648,18.090004,87,97,0
18.092844,18.226366,87,98,0
18.092844,18.36273,77,98,0
18.229208,18.36273,86,99,0
18.36557,18.499094,87,99,0
18.501934,18.635458,86,100,0
18.638298,18.77182,86,101,0
18.36557,18.908184,82,99,0
18.774662,18.908184,84,102,0
18.911024,19.044548,86,103,0
18.911024,19.180912,81,103,0
18.911024,19.180912,77,103,0
19.047388,19.180912,87,103,0
19.183752,19.317274,91,104,0
19.183752,19.453638,82,104,0
19.183752,19.453638,77,104,0
19.320116,19.453638,89,105,0
19.456478,19.726366,88,106,0
19.456478,19.726366,82,106,0
19.592842,19.862728,91,106,0
19.729206,19.999092,87,107,0
19.86557,20.135456,92,108,0
20.001932,20.271818,87,109,0
20.001932,20.271818,84,109,0
20.138296,20.271818,93,109,0
20.27466,20.408182,96,110,0
20.27466,20.544546,86,110,0
20.27466,20.544546,82,110,0
20.411024,20.544546,94,110,0
20.547386,20.68091,93,110,0
20.547386,20.817272,87,110,0
20.547386,20.817272,82,110,0
20.68375,20.817272,91,110,0
20.820114,21.09,89,110,0
20.820114,21.09,86,110,0
20.820114,21.09,82,110,0
21.09284,21.362726,93,110,0
21.09284,21.362726,89,110,0
21.09284,21.362726,84,110,0
21.09284,21.362726,81,110,0
21.365568,21.90818,94,110,0
21.365568,21.90818,89,110,0
21.365568,21.90818,86,110,0
21.365568,21.90818,82,110,0
21.911022,22.453634,82,110,0
21.911022,22.453634,74,110,0
21.911022,22.453634,70,110,0
22.456476,22.726362,86,80,0
22.456476,22.726362,77,80,0
22.456476,22.726362,74,80,0
22.729202,22.999088,82,80,0
22.729202,22.999088,74,80,0
22.729202,22.999088,70,80,0
23.00193,23.271816,86,80,0
23.00193,23.271816,77,80,0
23.00193,23.271816,74,80,0
23.274656,23.544542,84,80,0
23.274656,23.544542,75,80,0
23.274656,23.544542,72,80,0
23.547384,24.089996,87,110,0
23.547384,24.089996,79,110,0
23.547384,24.089996,75,110,0
24.092838,24.63545,84,110,0
24.092838,24.63545,75,110,0
24.092838,24.63545,72,110,0
24.638292,24.908178,87,80,0
24.638292,24.908178,79,80,0
24.638292,24.908178,75,80,0
24.911018,25.180904,85,80,0
24.911018,25.180904,76,80,0
24.911018,25.180904,73,80,0
25.183746,25.453632,87,80,0
25.183746,25.453632,78,80,0
25.183746,25.453632,75,80,0
25.456472,25.726358,86,80,0
25.456472,25.726358,77,80,0
25.456472,25.726358,74,80,0
25.7292,26.271812,89,110,0
25.7292,26.271812,80,110,0
25.7292,26.271812,77,110,0
26.274654,26.817266,86,110,0
26.274654,26.817266,77,110,0
26.274654,26.817266,74,110,0
26.820108,27.089994,89,80,0
26.820108,27.089994,80,80,0
26.820108,27.089994,77,80,0
27.092834,27.36272,78,80,0
27.092834,27.36272,74,80,0
27.092834,27.36272,86,80,0
27.365562,27.635448,89,80,0
27.365562,27.635448,80,80,0
27.365562,27.635448,77,80,0
27.638288,27.908175,87,80,0
27.638288,27.908175,79,80,0
27.638288,27.908175,75,80,0
27.911016,28.453629,91,110,0
27.911016,28.453629,82,110,0
27.911016,28.453629,79,110,0
28.45647,28.999083,87,110,0
28.45647,28.999083,82,110,0
28.45647,28.999083,79,110,0
28.45647,28.999083,75,110,0
29.001925,29.27181,91,80,0
29.001925,29.27181,82,80,0
29.001925,29.27181,79,80,0
29.27465,29.544537,88,82,0
29.27465,29.544537,82,82,0
29.27465,29.544537,76,82,0
29.547379,29.817265,90,85,0
29.547379,29.817265,82,85,0
29.547379,29.817265,78,85,0
29.820105,30.08999,89,87,0
29.820105,30.08999,82,87,0
29.820105,30.08999,77,87,0
30.092833,30.362719,92,90,0
30.092833,30.362719,82,90,0
30.092833,30.362719,80,90,0
30.365559,30.635445,90,93,0
30.365559,30.635445,82,93,0
30.365559,30.635445,78,93,0
30.638287,30.908173,92,95,0
30.638287,30.908173,82,95,0
30.638287,30.908173,80,95,0
30.911013,31.180899,91,98,0
30.911013,31.180899,82,98,0
30.911013,31.180899,79,98,0
31.18374,31.453627,94,100,0
31.18374,31.453627,91,100,0
31.18374,31.453627,87,100,0
31.18374,31.453627,82,100,0
31.456467,31.726353,92,103,0
31.456467,31.726353,80,103,0
31.729195,31.99908,94,106,0
31.729195,31.99908,82,106,0
32.001923,32.27181,93,108,0
32.001923,32.27181,81,108,0
32.274647,32.544533,96,110,0
32.274647,32.544533,84,110,0
32.547375,32.81726,94,110,0
32.547375,32.81726,82,110,0
32.820103,33.08999,91,110,0
32.820103,33.08999,79,110,0
33.09283,33.362717,89,110,0
33.09283,33.362717,77,110,0
33.365555,33.63544,87,110,0
33.365555,33.63544,75,110,0
33.638283,33.90817,86,110,0
33.638283,33.90817,74,110,0
33.91101,34.180897,84,110,0
33.91101,34.180897,72,110,0
34.18374,34.453625,82,110,0
34.18374,34.453625,70,110,0
34.456463,34.72635,79,110,0
34.456463,34.72635,67,110,0
34.72919,34.999077,77,110,0
34.72919,34.999077,65,110,0
35.00192,35.271805,75,110,0
35.00192,35.271805,63,110,0
35.274647,35.544533,74,110,0
35.274647,35.544533,62,110,0
35.54737,35.817257,72,110,0
35.54737,35.817257,60,110,0
35.8201,36.089985,70,110,0
35.8201,36.089985,58,110,0
36.092827,36.362713,67,110,0
36.092827,36.362713,55,110,0
36.365555,36.63544,65,110,0
36.365555,36.63544,53,110,0
36.63828,37.180893,69,110,0
36.911007,37.45362,65,108,0
37.183735,37.72635,72,105,0
37.456463,38.011925,65,102,0
37.729187,38.297638,77,99,0
38.0149,38.583355,65,97,0
38.300617,38.86907,81,94,0
38.58633,39.16892,65,91,0
38.872044,39.468918,84,88,0
39.172043,39.801907,65,86,0
39.472046,40.13524,89,83,0
39.805378,40.534542,65,80,0
40.13871,40.934544,89,77,0
40.53871,41.53246,65,75,0
40.93871,42.022305,89,72,0
42.4353,42.568825,86,110,0
42.4353,42.568825,82,110,0
42.4353,42.568825,77,110,0
42.4353,42.568825,74,110,0
42.571663,42.84155,86,110,0
42.571663,42.84155,82,110,0
42.571663,42.84155,77,110,0
42.571663,42.84155,74,110,0
42.84439,42.977913,87,110,0
42.84439,42.977913,82,110,0
42.84439,42.977913,77,110,0
42.84439,42.977913,74,110,0
42.980755,43.114277,86,110,0
42.980755,43.114277,82,110,0
42.980755,43.114277,77,110,0
42.980755,43.114277,74,110,0
43.11712,43.387005,86,110,0
43.11712,43.387005,82,110,0
43.11712,43.387005,77,110,0
43.11712,43.387005,74,110,0
43.389847,43.659733,82,110,0
43.389847,43.659733,77,110,0
43.389847,43.659733,74,110,0
43.389847,43.659733,70,110,0
44.617115,44.75064,86,110,0
44.617115,44.75064,82,110,0
44.617115,44.75064,77,110,0
44.617115,44.75064,74,110,0
44.75348,45.050354,86,110,0
44.75348,45.050354,74,110,0
45.05348,45.200356,86,110,0
45.05348,45.200356,81,110,0
45.05348,45.200356,78,110,0
45.05348,45.200356,74,110,0
45.20348,45.350353,86,110,0
45.20348,45.350353,81,110,0
45.20348,45.350353,78,110,0
45.20348,45.350353,74,110,0
45.35348,45.683342,86,110,0
45.35348,45.683342,81,110,0
45.35348,45.683342,78,110,0
45.35348,45.683342,74,110,0
45.686813,47.350006,74,110,0
45.686813,47.350006,78,110,0
45.686813,47.350006,81,110,0
45.686813,47.350006,86,110,0
48.29287,48.562756,74,80,0
48.29287,48.562756,69,80,0
48.29287,48.562756,66,80,0
48.838326,49.10821,74,80,0
48.838326,49.10821,69,80,0
48.838326,49.10821,66,80,0
49.383778,49.653664,74,80,0
49.383778,49.653664,69,80,0
49.383778,49.653664,66,80,0
49.929234,50.19912,74,80,0
49.929234,50.19912,69,80,0
49.929234,50.19912,66,80,0
50.474686,50.74457,78,82,0
50.474686,50.74457,74,82,0
50.474686,50.74457,72,82,0
50.474686,50.74457,69,82,0
51.02014,51.290028,78,86,0
51.02014,51.290028,74,86,0
51.02014,51.290028,72,86,0
51.02014,51.290028,69,86,0
51.565594,51.83548,81,90,0
51.565594,51.83548,78,90,0
51.565594,51.83548,72,90,0
51.565594,51.83548,69,90,0
52.11105,52.380936,84,94,0
52.11105,52.380936,81,94,0
52.11105,52.380936,78,94,0
52.11105,52.380936,72,94,0
52.6565,52.926388,90,99,0
52.6565,52.926388,84,99,0
52.6565,52.926388,81,99,0
52.6565,52.926388,78,99,0
53.201958,53.471844,93,103,0
53.201958,53.471844,84,103,0
53.201958,53.471844,81,103,0
53.74741,54.017296,96,107,0
53.74741,54.017296,93,107,0
53.74741,54.017296,84,107,0
54.292866,54.56275,96,110,0
54.292866,54.56275,93,110,0
54.292866,54.56275,90,110,0
54.292866,54.56275,84,110,0
54.565594,54.83548,96,110,0
54.565594,54.83548,93,110,0
54.565594,54.83548,90,110,0
54.565594,54.83548,84,110,0
54.838318,54.97184,84,110,0
54.838318,54.97184,81,110,0
54.97468,55.108204,80,108,0
54.97468,55.108204,83,108,0
55.111046,55.38093,84,106,0
55.111046,55.38093,81,106,0
55.383774,55.517296,69,101,0
55.383774,55.517296,66,101,0
55.520138,55.65366,67,99,0
55.520138,55.65366,70,99,0
55.6565,55.926388,69,97,0
55.6565,55.926388,66,97,0
55.929226,56.062748,84,92,0
55.929226,56.062748,81,92,0
56.06559,56.199112,80,90,0
56.06559,56.199112,83,90,0
56.201954,56.47184,84,87,0
56.201954,56.47184,81,87,0
56.47468,56.608204,90,83,0
56.611046,56.744568,93,81,0
56.74741,56.88093,96,80,0
56.88377,57.017296,98,80,0
57.020134,57.153656,96,80,0
57.156498,57.29002,95,80,0
57.292862,57.426384,96,80,0
57.429226,57.562748,98,80,0
57.56559,57.699112,100,80,0
57.701954,57.835476,96,80,0
57.838318,57.97184,93,80,0
57.974678,58.108204,95,80,0
58.111042,58.244564,96,80,0
58.247406,58.380928,93,80,0
58.38377,58.517292,90,80,0
58.520134,58.653656,91,80,0
58.656498,58.79002,93,80,0
58.792862,58.926384,90,80,0
58.929222,59.062748,84,80,0
59.065586,59.199112,86,80,0
59.20195,59.335472,88,80,0
59.338314,59.471836,84,80,0
59.474678,59.6082,81,80,0
59.611042,59.744564,83,80,0
59.747406,59.880928,84,80,0
59.88377,60.017292,81,80,0
60.02013,60.153656,78,80,0
60.156494,60.29002,79,80,0
60.29286,60.42638,81,80,0
60.429222,60.562744,78,80,0
60.565586,60.835472,74,80,0
60.565586,60.835472,72,80,0
60.565586,60.835472,69,80,0
61.11104,61.244564,95,80,0
61.247402,61.380924,96,80,0
61.383766,61.51729,95,80,0
61.52013,61.653652,93,80,0
61.656494,61.790016,95,80,0
61.79286,61.92638,96,80,0
61.929222,62.062744,98,80,0
62.065586,62.19911,95,80,0
62.201946,62.335472,91,80,0
62.33831,62.471832,93,80,0
62.474674,62.608196,95,80,0
62.61104,62.74456,91,80,0
62.747402,62.880924,86,80,0
62.883766,63.01729,90,80,0
63.02013,63.153652,91,80,0
63.156494,63.290016,86,80,0
63.292854,63.42638,83,80,0
63.42922,63.56274,84,80,0
63.565582,63.699104,86,80,0
63.701946,63.83547,83,80,0
63.83831,63.971832,79,80,0
63.974674,64.10819,81,80,0
64.11104,64.24456,83,80,0
64.2474,64.38092,79,80,0
64.383766,64.51729,74,80,0
64.52013,64.65365,78,80,0
64.656494,64.790016,79,80,0
64.792854,64.92638,71,80,0
64.929214,65.062744,67,80,0
65.06558,65.199104,69,80,0
65.20194,65.335464,71,80,0
65.33831,65.47183,67,80,0
65.47467,65.74456,69,80,0
65.47467,65.74456,66,80,0
65.47467,65.74456,62,80,0
65.7474,65.88092,88,80,0
65.883766,66.01729,86,80,0
66.02013,66.15365,88,80,0
66.15649,66.29001,86,80,0
66.292854,66.42638,84,80,0
66.429214,66.56274,88,80,0
66.56558,66.699104,84,80,0
66.70194,66.835464,83,80,0
66.83831,66.97183,81,80,0
66.97467,67.10819,84,80,0
67.11103,67.24456,81,80,0
67.2474,67.38092,79,80,0
67.38376,67.51728,78,80,0
67.52013,67.65365,81,80,0
67.65649,67.79001,76,80,0
67.792854,67.92638,74,80,0
67.929214,68.06274,72,80,0
68.06558,68.199104,76,80,0
68.20194,68.335464,72,80,0
68.3383,68.471825,71,80,0
68.47467,68.60819,69,80,0
68.61103,68.74455,72,80,0
68.7474,68.88092,69,80,0
68.88376,69.01728,67,80,0
69.02013,69.15365,66,80,0
69.15649,69.29001,69,80,0
69.29285,69.42638,72,80,0
69.429214,69.56274,71,80,0
69.565575,69.6991,69,80,0
69.70194,69.835464,72,80,0
69.8383,70.10819,67,80,0
69.8383,70.10819,62,80,0
70.11103,70.24455,98,80,0
70.24739,70.38092,96,80,0
70.38376,70.51728,98,80,0
70.52012,70.65364,96,80,0
70.65649,70.79001,95,80,0
70.79285,70.92637,98,80,0
70.929214,71.06274,95,80,0
71.065575,71.1991,93,80,0
71.20194,71.335464,91,80,0
71.3383,71.471825,95,80,0
71.47466,71.608185,83,80,0
71.61103,71.74455,81,80,0
71.74739,71.88091,79,80,0
71.88376,72.01728,83,80,0
72.02012,72.15364,74,80,0
72.15649,72.29001,72,80,0
72.29285,72.42637,71,80,0
72.42921,72.56274,74,80,0
72.565575,72.6991,83,80,0
72.701935,72.83546,81,80,0
72.8383,72.971825,79,80,0
72.97466,73.108185,83,80,0
73.11103,73.24455,86,80,0
73.24739,73.38091,84,80,0
73.38376,73.51728,83,80,0
73.52012,73.65364,86,80,0
73.65648,73.92637,88,80,0
73.92921,74.1991,90,80,0
73.92921,74.1991,86,80,0
73.92921,74.1991,81,80,0
74.201935,74.471825,91,80,0
74.201935,74.471825,86,80,0
74.201935,74.471825,79,80,0
75.565575,75.83546,69,80,0
75.565575,75.83546,66,80,0
75.838295,75.97182,71,80,0
75.838295,75.97182,67,80,0
76.11102,76.244545,83,80,0
76.11102,76.244545,91,80,0
76.24739,76.38091,81,80,0
76.24739,76.38091,90,80,0
76.38375,76.65364,91,80,0
76.38375,76.65364,83,80,0
76.65648,76.92637,88,80,0
76.65648,76.92637,83,80,0
76.65648,76.92637,79,80,0
76.92921,77.211945,86,80,0
76.92921,77.211945,81,80,0
76.92921,77.211945,78,80,0
77.21492,77.511795,85,80,0
77.21492,77.511795,79,80,0
77.21492,77.511795,76,80,0
77.51492,77.84478,88,80,0
77.51492,77.84478,79,80,0
77.84825,78.219345,86,80,0
77.84825,78.219345,78,80,0
78.22325,78.594345,86,80,0
78.22325,78.594345,78,80,0
78.59825,78.745125,86,80,0
78.59825,78.745125,79,80,0
78.74825,78.89513,84,80,0
78.74825,78.89513,81,80,0
78.898254,79.16814,83,80,0
79.17098,79.440865,91,80,0
79.17098,79.57723,79,80,0
79.44371,79.57723,88,80,0
79.71643,79.84996,96,80,0
79.71643,79.84996,84,80,0
79.8528,79.98632,93,80,0
79.8528,79.98632,88,80,0
79.98916,80.25905,90,80,0
80.26189,80.53178,98,80,0
80.26189,80.66814,86,80,0
80.534615,80.66814,95,80,0
80.80734,80.940865,91,80,0
80.9437,81.077225,90,80,0
81.08007,81.36281,91,80,0
81.36578,81.66266,88,80,0
81.66579,81.99564,84,80,0
81.999115,82.32898,83,80,0
81.999115,82.32898,78,80,0
82.33245,82.629326,78,80,0
82.63245,82.76597,81,80,0
82.768814,82.902336,79,80,0
82.33245,83.175064,83,80,0
82.905174,83.175064,79,80,0
83.1779,83.44779,82,80,0
83.1779,83.44779,88,80,0
83.1779,83.72051,79,80,0
83.72336,83.85688,79,80,0
83.85972,83.99324,77,80,0
83.45063,84.26597,81,80,0
83.996086,84.26597,77,80,0
84.268814,84.5387,86,80,0
84.268814,84.5387,80,80,0
84.268814,84.811424,77,80,0
84.81426,84.947784,77,80,0
84.95063,85.08415,76,80,0
84.541534,85.35688,79,80,0
85.08699,85.35688,76,80,0
85.35972,85.62961,79,80,0
85.35972,85.62961,85,80,0
85.35972,85.90233,76,80,0
85.905174,86.0387,76,80,0
86.041534,86.17506,75,80,0
85.63245,86.447784,78,80,0
86.1779,86.447784,74,80,0
86.45063,86.72051,83,80,0
86.45063,86.72051,77,80,0
86.72335,86.85688,77,80,0
86.45063,86.99324,74,80,0
86.85972,87.1296,76,80,0
86.99608,87.26597,73,80,0
87.13245,87.26597,81,80,0
87.26881,87.40869,75,80,0
87.26881,87.551544,72,80,0
87.41167,87.7014,74,80,0
87.55452,87.851395,71,80,0
87.70452,87.851395,79,80,0
87.85452,88.001396,74,80,0
88.004524,88.1444,86,81,0
88.14738,88.2809,85,82,0
88.283745,88.41727,84,84,0
88.420105,88.55363,81,85,0
88.55647,88.689995,78,86,0
88.69283,88.826355,75,88,0
88.82919,88.96272,74,89,0
88.96556,89.09908,73,90,0
89.10192,89.23544,72,92,0
89.23829,89.37181,69,93,0
89.37465,89.50817,66,94,0
89.51102,89.64454,63,80,0
89.493965,89.763855,67,80,0
89.64738,89.7809,62,80,0
89.783745,89.91727,76,80,0
89.783745,90.05363,67,80,0
89.920105,90.05363,74,80,0
90.056465,90.18999,74,80,0
90.19283,90.326355,86,81,0
90.32919,90.462715,85,82,0
90.46556,90.59908,84,84,0
90.60192,90.73544,81,85,0
90.73829,90.87181,78,86,0
90.87465,91.00817,75,88,0
91.01101,91.14454,74,89,0
91.14738,91.2809,73,90,0
91.28374,91.41726,72,92,0
91.420105,91.55363,69,93,0
91.556465,91.68999,66,94,0
91.69283,91.826355,63,80,0
91.67578,91.94567,67,80,0
91.82919,91.962715,62,80,0
91.96555,92.09908,76,80,0
91.96555,92.23544,67,80,0
92.10192,92.23544,74,80,0
92.23828,92.3718,74,80,0
92.37465,92.50817,79,80,0
92.37465,92.50817,71,80,0
92.51101,92.64453,83,80,0
92.51101,92.64453,74,80,0
92.64738,92.7809,81,80,0
92.64738,92.7809,72,80,0
92.78374,92.91726,71,80,0
92.920105,93.05363,75,80,0
93.056465,93.18999,76,80,0
93.192825,93.32635,71,80,0
93.32919,93.462715,70,80,0
93.46555,93.599075,75,80,0
93.60192,93.73544,76,80,0
92.78374,93.8718,79,80,0
93.73828,93.8718,70,80,0
93.87465,94.00817,69,80,0
93.87465,94.14453,78,80,0
94.01101,94.14453,73,80,0
94.14737,94.41726,74,80,0
94.28374,94.41726,86,80,0
94.4201,94.55362,86,80,0
94.556465,94.68999,98,81,0
94.692825,94.82635,97,82,0
94.82919,94.962715,96,84,0
94.96555,95.099075,93,85,0
95.10192,95.23544,90,86,0
95.23828,95.3718,87,88,0
95.37464,95.50816,86,89,0
95.51101,95.64453,85,90,0
95.64737,95.78089,84,92,0
95.78374,95.91726,81,93,0
95.9201,96.05362,78,94,0
96.056465,96.18999,75,80,0
96.03941,96.3093,79,80,0
96.192825,96.32635,74,80,0
96.329185,96.462715,88,80,0
96.329185,96.599075,79,80,0
96.46555,96.599075,86,80,0
96.60191,96.735435,86,80,0
96.73828,96.8718,98,81,0
96.87464,97.00816,97,82,0
97.01101,97.14453,96,84,0
97.14737,97.28089,93,85,0
97.28374,97.41726,90,86,0
97.4201,97.55362,87,88,0
97.55646,97.68998,86,89,0
97.692825,97.82635,85,90,0
97.829185,97.96271,84,92,0
97.96555,98.099075,81,93,0
98.10191,98.235435,78,94,0
98.23828,98.3718,75,80,0
98.22123,98.49112,79,80,0
98.37464,98.50816,74,80,0
98.511,98.64453,88,80,0
98.511,98.78089,79,80,0
98.64737,98.78089,86,80,0
98.78373,98.91725,86,80,0
98.9201,99.05362,79,80,0
98.9201,99.05362,71,80,0
99.05646,99.18998,83,80,0
99.05646,99.18998,74,80,0
99.192825,99.32635,81,80,0
99.192825,99.32635,72,80,0
99.329185,99.46271,71,80,0
99.46555,99.599075,75,80,0
99.60191,99.735435,76,80,0
99.73827,99.871796,71,80,0
99.87464,100.00816,70,80,0
100.011,100.14452,75,80,0
100.14737,100.28089,76,80,0
99.329185,100.41725,79,80,0
100.28373,100.41725,70,80,0
100.4201,100.55362,69,80,0
100.4201,100.68998,78,80,0
100.55646,100.68998,74,80,0
100.69282,100.82635,67,80,0
100.69282,100.96271,79,80,0
100.829185,100.96271,72,80,0
100.965546,101.09907,79,80,0
101.10191,101.235435,84,80,0
101.10191,101.235435,76,80,0
101.23827,101.371796,88,81,0
101.23827,101.371796,79,81,0
101.37464,101.50816,86,82,0
101.37464,101.50816,77,82,0
101.511,101.64452,76,83,0
101.64736,101.78089,80,84,0
101.78373,101.91725,81,85,0
101.92009,102.05361,76,86,0
102.05646,102.18998,75,87,0
102.19282,102.32634,80,88,0
102.329185,102.46271,81,89,0
101.511,102.59907,84,83,0
102.465546,102.59907,76,90,0
102.60191,102.735435,74,91,0
102.60191,102.871796,83,91,0
102.73827,102.871796,79,92,0
102.87463,103.008156,72,93,0
102.87463,103.14452,84,93,0
103.011,103.14452,77,94,0
103.14736,103.28088,84,94,0
103.28373,103.41725,89,95,0
103.28373,103.41725,81,95,0
103.42009,103.55361,93,96,0
103.42009,103.55361,84,96,0
103.55646,103.68998,91,97,0
103.55646,103.68998,82,97,0
103.69282,103.82634,80,98,0
103.82918,103.96271,77,99,0
103.965546,104.09907,80,100,0
104.101906,104.23543,79,101,0
104.23827,104.371796,80,102,0
104.37463,104.508156,85,103,0
104.511,104.64452,86,104,0
103.69282,104.78088,89,98,0
104.64736,104.78088,80,105,0
104.78373,104.91725,79,106,0
104.92009,105.05361,83,107,0
105.05645,105.18997,84,108,0
105.19282,105.32634,79,109,0
104.78373,105.59907,88,106,0
105.32918,105.59907,84,109,0
105.601906,105.871796,88,120,0
105.601906,105.871796,84,120,0
105.601906,105.871796,79,120,0
105.601906,105.871796,76,120,0
105.87463,106.14452,86,120,0
105.87463,106.14452,83,120,0
106.14736,106.28088,88,120,0
106.14736,106.28088,84,120,0
106.28372,106.417244,89,120,0
106.28372,106.417244,86,120,0
106.42009,106.68997,91,120,0
106.42009,106.68997,88,120,0
106.69282,106.9627,88,120,0
106.69282,106.9627,84,120,0
107.78372,108.05361,88,120,0
107.78372,108.05361,84,120,0
107.78372,108.05361,79,120,0
107.78372,108.05361,76,120,0
108.05645,108.32634,86,120,0
108.05645,108.32634,83,120,0
108.32918,108.4627,88,120,0
108.32918,108.4627,84,120,0
108.46554,108.59906,89,120,0
108.46554,108.59906,86,120,0
108.601906,108.87179,91,120,0
108.601906,108.87179,88,120,0
108.87463,109.144516,91,120,0
108.87463,109.144516,88,120,0
108.87463,109.144516,81,120,0
108.87463,109.144516,79,120,0
109.42008,109.68997,88,120,0
109.42008,109.68997,85,120,0
109.42008,109.68997,79,120,0
109.42008,109.68997,91,120,0
109.96554,110.23543,91,120,0
109.96554,110.23543,86,120,0
109.96554,110.23543,83,120,0
109.96554,110.23543,79,120,0
110.510994,110.780876,91,120,0
110.510994,110.780876,85,120,0
110.510994,110.780876,81,120,0
110.510994,110.780876,79,120,0
110.78372,111.32633,86,120,0
110.78372,111.32633,83,120,0
110.78372,111.32633,79,120,0
110.78372,111.32633,91,120,0
111.32917,112.144516,79,113,0
111.32917,112.144516,83,113,0
111.32917,112.144516,86,113,0
112.147354,112.417244,83,102,0
112.147354,112.417244,79,102,0
112.147354,112.417244,74,102,0
112.42008,112.553604,74,100,0
112.55644,112.689964,78,100,0
112.69281,112.82633,79,101,0
112.82917,112.96269,83,101,0
112.96554,113.09906,85,102,0
113.1019,113.23542,86,103,0
113.238266,113.37179,88,103,0
113.374626,113.50815,86,104,0
113.51099,113.644516,90,104,0
113.647354,113.780876,91,105,0
113.783714,113.91724,93,106,0
113.92008,114.053604,91,106,0
114.05644,114.189964,94,107,0
114.19281,114.32633,95,108,0
114.32917,114.46269,96,108,0
114.46554,114.59906,95,109,0
114.6019,114.87178,98,110,0
114.874626,115.14451,84,80,0
114.874626,115.14451,81,80,0
114.874626,115.14451,74,80,0
115.147354,116.23542,83,80,0
115.147354,116.23542,79,80,0
115.147354,116.23542,74,80,0
116.23826,116.780876,84,80,0
116.23826,116.780876,79,80,0
116.783714,117.326324,87,80,0
116.783714,117.326324,84,80,0
116.783714,117.326324,79,80,0
117.32917,117.87178,86,80,0
117.32917,118.41724,91,80,0
117.32917,118.41724,79,80,0
117.87462,118.41724,83,80,0
118.420074,118.96269,87,80,0
118.420074,118.96269,84,80,0
118.420074,118.96269,79,80,0
118.96553,119.50814,84,80,0
118.96553,119.50814,79,80,0
119.51099,120.0536,82,80,0
119.51099,120.59905,79,80,0
120.056435,120.59905,83,80,0
120.60189,121.14451,86,80,0
120.60189,121.14451,78,80,0
121.14735,121.5536,84,80,0
121.14735,121.5536,81,80,0
121.420074,121.68996,74,80,0
121.556435,121.68996,81,80,0
121.556435,121.68996,78,80,0
121.6928,121.826324,79,80,0
121.76098,121.8945,81,80,0
121.6928,121.962685,74,80,0
121.82916,121.962685,79,80,0
121.89735,122.03087,81,80,0
121.96553,122.09905,79,81,0
122.03371,122.16723,81,81,0
122.10189,122.23541,79,81,0
122.170074,122.3036,81,82,0
122.23825,122.37178,79,82,0
122.306435,122.43996,81,82,0
122.37462,122.50814,79,83,0
122.4428,122.576324,81,83,0
122.51098,122.6445,79,83,0
122.57916,122.712685,81,84,0
121.6928,122.78087,83,80,0
122.64735,122.78087,79,84,0
122.71552,122.84905,81,84,0
122.78371,122.91723,79,84,0
122.85189,122.98541,81,85,0
122.920074,123.0536,79,85,0
122.98825,123.12177,81,85,0
123.056435,123.18996,79,86,0
123.12462,123.25814,81,86,0
122.78371,123.326324,84,84,0
123.192795,123.326324,79,86,0
123.26098,123.3945,81,87,0
123.32916,123.462685,79,87,0
123.39735,123.53087,81,87,0
123.46552,123.599045,79,88,0
123.53371,123.66723,81,88,0
123.60189,123.73541,79,88,0
123.670074,123.8036,81,89,0
123.32916,123.87177,88,87,0
123.73825,123.87177,79,89,0
123.806435,123.93996,81,89,0
123.87462,124.00814,79,89,0
123.942795,124.07632,81,90,0
124.01098,124.1445,79,90,0
124.07916,124.212685,81,90,0
124.14735,124.28087,79,91,0
124.21552,124.349045,81,91,0
124.28371,124.41723,79,91,0
124.35189,124.48541,81,92,0
124.42007,124.55359,79,92,0
124.48825,124.62177,81,92,0
124.556435,124.68996,79,93,0
124.62462,124.75814,81,93,0
124.692795,124.82632,79,93,0
124.76098,124.8945,81,94,0
123.87462,124.962685,91,89,0
124.82916,124.962685,79,94,0
124.89734,125.03087,81,94,0
124.96552,125.099045,79,94,0
125.03371,125.16723,81,95,0
125.10189,125.23541,79,95,0
125.17007,125.30359,81,95,0
125.23825,125.37177,79,96,0
125.306435,125.43996,81,96,0
124.96552,125.50814,88,94,0
125.37461,125.50814,79,96,0
125.442795,125.57632,81,97,0
125.51098,125.6445,79,97,0
125.57916,125.712685,81,97,0
125.64734,125.78086,79,98,0
125.71552,125.849045,81,98,0
125.78371,125.91723,79,98,0
125.85189,125.98541,81,99,0
125.51098,126.05359,84,97,0
125.92007,126.05359,79,99,0
125.98825,126.12177,81,99,0
126.056435,126.18996,79,99,0
126.12461,126.25813,81,100,0
126.056435,126.32632,82,99,0
126.192795,126.32632,79,100,0
126.26098,126.3945,81,100,0
126.32916,126.462685,79,101,0
126.39734,126.53086,81,101,0
126.46552,126.599045,79,101,0
126.53371,126.66723,81,102,0
126.60188,126.735405,79,102,0
126.67007,126.80359,81,102,0
126.32916,126.87177,83,101,0
126.73825,126.87177,79,103,0
126.806435,126.93996,81,103,0
126.87461,127.00813,79,103,0
126.942795,127.07632,81,104,0
126.87461,127.1445,86,103,0
127.01098,127.1445,79,104,0
127.079155,127.14734,81,104,0
127.14734,127.28086,86,104,0
127.21552,127.349045,88,105,0
127.28371,127.41723,86,105,0
127.35188,127.485405,88,105,0
127.42007,127.55359,86,106,0
127.48825,127.62177,88,106,0
127.42007,127.68996,74,106,0
127.55643,127.68996,86,106,0
127.62461,127.75813,88,107,0
127.692795,127.82632,86,107,0
127.76098,127.8945,88,107,0
127.829155,127.96268,86,108,0
127.89734,128.03087,88,108,0
127.96552,128.09904,86,108,0
128.0337,128.16722,88,109,0
128.10188,128.23541,85,109,0
128.17006,128.30359,86,109,0
128.23825,128.30359,86,120,0
128.23825,128.50813,98,120,0
128.23825,128.50813,95,120,0
128.23825,128.50813,89,120,0
128.51097,129.05359,95,120,0
128.51097,129.05359,89,120,0
128.51097,129.05359,86,120,0
128.51097,129.05359,98,120,0
129.05643,129.32631,96,120,0
129.05643,129.32631,89,120,0
129.05643,129.32631,86,120,0
129.05643,129.32631,84,120,0
129.32916,129.59904,95,120,0
129.32916,129.59904,89,120,0
129.32916,129.59904,86,120,0
129.32916,129.59904,83,120,0
129.60188,129.87177,96,120,0
129.60188,129.87177,89,120,0
129.60188,129.87177,86,120,0
129.60188,129.87177,84,120,0
129.8746,130.1445,98,120,0
129.8746,130.1445,89,120,0
129.8746,130.1445,86,120,0
130.14734,130.41722,95,80,0
130.14734,130.41722,88,80,0
130.14734,130.41722,86,80,0
130.14734,130.41722,83,80,0
130.42006,130.68996,96,80,0
130.42006,130.68996,88,80,0
130.42006,130.68996,84,80,0
130.6928,130.96268,95,80,0
130.6928,130.96268,88,80,0
130.6928,130.96268,86,80,0
130.6928,130.96268,83,80,0
130.96552,131.2354,96,80,0
130.96552,131.2354,88,80,0
130.96552,131.2354,84,80,0
131.23825,131.50813,93,80,0
131.23825,131.50813,88,80,0
131.23825,131.50813,84,80,0
131.23825,131.50813,81,80,0
131.51097,131.78085,91,80,0
131.51097,131.78085,88,80,0
131.51097,131.78085,81,80,0
131.78369,132.05359,91,80,0
131.78369,132.05359,85,80,0
131.78369,132.05359,81,80,0
132.05643,132.32631,90,80,0
132.05643,132.32631,84,80,0
132.05643,132.32631,81,80,0
132.32915,132.59904,93,80,0
132.32915,132.59904,84,80,0
132.32915,132.59904,81,80,0
132.60188,132.87177,91,80,0
132.60188,132.87177,83,80,0
132.60188,132.87177,79,80,0
132.8746,133.14449,86,83,0
132.8746,133.14449,83,83,0
132.8746,133.14449,74,83,0
133.14734,133.41722,90,87,0
133.14734,133.41722,84,87,0
133.14734,133.41722,78,87,0
133.42006,133.68994,93,91,0
133.42006,133.68994,90,91,0
133.42006,133.68994,84,91,0
133.42006,133.68994,81,91,0
133.6928,133.96268,91,95,0
133.6928,133.96268,83,95,0
133.6928,133.96268,79,95,0
133.96552,134.2354,86,99,0
133.96552,134.2354,83,99,0
133.96552,134.2354,74,99,0
134.23824,134.50813,90,103,0
134.23824,134.50813,84,103,0
134.23824,134.50813,78,103,0
134.51097,134.78085,93,107,0
134.51097,134.78085,90,107,0
134.51097,134.78085,84,107,0
134.51097,134.78085,81,107,0
134.78369,134.91722,79,110,0
134.92006,135.05359,91,110,0
135.05643,135.18994,74,110,0
135.19278,135.32631,86,110,0
135.32915,135.46268,78,110,0
135.46552,135.59903,90,110,0
135.60188,135.7354,81,110,0
135.73824,135.87177,93,110,0
135.8746,136.00813,79,110,0
136.01097,136.14449,91,110,0
136.14732,136.28085,74,110,0
136.28369,136.41722,86,110,0
136.42006,136.55357,78,110,0
136.55643,136.68994,90,110,0
136.69278,136.82631,81,110,0
136.82915,136.96268,93,110,0
136.96552,137.2354,91,120,0
136.96552,137.2354,79,120,0
137.51097,137.78085,93,120,0
137.51097,137.78085,81,120,0
138.05643,140.2354,82,120,0
138.05643,140.2354,94,120,0
141.19278,141.32631,58,80,0
141.32915,141.7354,70,80,0
141.73824,141.87175,70,80,0
141.8746,143.50812,70,80,0
143.92004,144.05357,86,120,0
143.92004,144.05357,82,120,0
143.92004,144.05357,77,120,0
143.92004,144.05357,74,120,0
144.05641,144.3263,86,120,0
144.05641,144.3263,82,120,0
144.05641,144.3263,77,120,0
144.05641,144.3263,74,120,0
144.32915,144.46266,87,120,0
144.32915,144.46266,82,120,0
144.32915,144.46266,77,120,0
144.32915,144.46266,74,120,0
144.4655,144.59903,86,120,0
144.4655,144.59903,82,120,0
144.4655,144.59903,77,120,0
144.4655,144.59903,74,120,0
144.60187,144.87175,86,120,0
144.60187,144.87175,82,120,0
144.60187,144.87175,77,120,0
144.60187,144.87175,74,120,0
144.87459,145.14449,82,120,0
144.87459,145.14449,77,120,0
144.87459,145.14449,74,120,0
144.87459,145.14449,70,120,0
146.10187,146.23538,89,120,0
146.10187,146.23538,86,120,0
146.10187,146.23538,82,120,0
146.10187,146.23538,77,120,0
146.23824,146.50812,89,120,0
146.23824,146.50812,86,120,0
146.23824,146.50812,82,120,0
146.23824,146.50812,77,120,0
146.51096,146.64449,91,120,0
146.51096,146.64449,86,120,0
146.51096,146.64449,82,120,0
146.51096,146.64449,77,120,0
146.64732,146.78084,89,120,0
146.64732,146.78084,86,120,0
146.64732,146.78084,82,120,0
146.64732,146.78084,77,120,0
146.78369,147.05357,89,120,0
146.78369,147.05357,86,120,0
146.78369,147.05357,82,120,0
146.78369,147.05357,77,120,0
147.05641,147.87175,82,120,0
147.05641,147.87175,77,120,0
147.05641,147.87175,74,120,0
147.05641,147.87175,86,120,0
148.69278,148.8263,70,80,0
148.82913,148.96266,72,80,0
148.9655,149.50812,74,80,0
149.23822,149.50812,67,80,0
149.51096,149.78084,69,80,0
149.51096,149.78084,72,80,0
149.78368,149.9172,72,80,0
149.78368,150.05357,68,80,0
149.92004,150.05357,74,80,0
150.05641,150.3263,67,80,0
150.05641,150.59901,75,80,0
150.32913,150.59901,69,80,0
150.60187,150.87175,70,80,0
150.60187,150.87175,74,80,0
150.87459,151.00812,74,80,0
150.87459,151.14447,67,80,0
151.01096,151.14447,75,80,0
151.14732,151.4172,69,80,0
151.14732,151.55992,77,80,0
151.42004,151.70277,70,80,0
151.5629,151.70277,79,80,0
151.70575,151.85263,77,80,0
151.70575,152.00262,67,80,0
151.85576,152.15263,75,80,0
152.00575,152.30263,69,80,0
152.15576,152.30263,77,80,0
152.30576,152.46895,75,80,0
152.30576,152.63562,70,80,0
152.30576,152.63562,65,80,0
152.47243,152.63562,74,80,0
152.63908,152.82268,77,80,0
152.63908,153.0364,72,80,0
152.63908,153.0364,67,80,0
152.82658,153.0364,75,80,0
153.04088,153.89355,72,80,0
153.04088,153.89355,69,80,0
154.7162,154.84972,82,80,0
154.85257,154.98608,84,80,0
154.98892,155.53154,86,80,0
155.26166,155.53154,79,80,0
155.53438,155.80426,81,80,0
155.53438,155.80426,84,80,0
155.80711,155.94063,84,80,0
155.80711,156.077,80,80,0
155.94347,156.077,86,80,0
156.07983,156.34972,79,80,0
156.07983,156.62245,87,80,0
156.35255,156.62245,81,80,0
156.62529,156.89517,82,80,0
156.62529,156.89517,86,80,0
156.89801,157.03154,86,80,0
156.89801,157.16791,79,80,0
157.03438,157.16791,87,80,0
157.17075,157.44063,81,80,0
157.17075,157.577,89,80,0
157.44347,157.71335,82,81,0
157.57983,157.71335,91,82,0
157.7162,157.84972,89,83,0
157.7162,157.98608,79,83,0
157.85255,158.12245,87,83,0
157.98892,158.2588,81,84,0
158.12529,158.2588,89,85,0
158.26164,158.39517,87,86,0
158.26164,158.53154,77,86,0
158.39801,158.6679,86,86,0
158.67075,158.80426,87,88,0
158.8071,158.94063,86,89,0
158.53438,159.077,82,87,0
158.94347,159.077,84,89,0
159.07983,159.21335,86,90,0
159.07983,159.34972,81,90,0
159.07983,159.34972,77,90,0
159.21619,159.34972,87,91,0
159.35255,159.48608,91,92,0
159.35255,159.62244,82,92,0
159.35255,159.62244,77,92,0
159.48892,159.62244,89,93,0
159.62529,159.7588,91,93,0
159.62529,159.89517,82,93,0
159.76164,159.89517,89,94,0
159.89801,160.03154,89,95,0
159.89801,160.1679,79,95,0
160.03438,160.1679,87,96,0
160.17075,160.30426,89,96,0
160.17075,160.44063,81,96,0
160.3071,160.44063,87,97,0
160.44347,160.57698,87,98,0
160.44347,160.71335,77,98,0
160.57983,160.71335,86,99,0
160.71619,160.84972,87,99,0
160.85255,160.98608,86,100,0
160.98892,161.12244,86,101,0
160.71619,161.2588,82,99,0
161.12529,161.2588,84,102,0
161.26164,161.39517,86,103,0
161.26164,161.53154,81,103,0
161.26164,161.53154,77,103,0
161.39801,161.53154,87,103,0
161.53438,161.6679,91,104,0
161.53438,161.80426,82,104,0
161.53438,161.80426,77,104,0
161.67073,161.80426,89,105,0
161.8071,162.07698,88,106,0
161.8071,162.07698,82,106,0
161.94347,162.21335,91,106,0
162.07983,162.34972,87,107,0
162.21619,162.48608,92,108,0
162.35255,162.62244,87,109,0
162.35255,162.62244,84,109,0
162.48892,162.62244,93,109,0
162.62527,162.7588,96,110,0
162.62527,162.89517,86,110,0
162.62527,162.89517,82,110,0
162.76164,162.89517,94,110,0
162.89801,163.03152,93,110,0
162.89801,163.1679,87,110,0
162.89801,163.1679,82,110,0
163.03438,163.1679,91,110,0
163.17073,163.44063,89,110,0
163.17073,163.44063,86,110,0
163.17073,163.44063,82,110,0
163.44347,163.71335,93,110,0
163.44347,163.71335,89,110,0
163.44347,163.71335,84,110,0
163.44347,163.71335,81,110,0
163.71619,164.2588,94,110,0
163.71619,164.2588,89,110,0
163.71619,164.2588,86,110,0
163.71619,164.2588,82,110,0
164.26164,164.80426,82,110,0
164.26164,164.80426,74,110,0
164.26164,164.80426,70,110,0
164.8071,165.07698,86,80,0
164.8071,165.07698,77,80,0
164.8071,165.07698,74,80,0
165.07982,165.34972,82,80,0
165.07982,165.34972,74,80,0
165.07982,165.34972,70,80,0
165.35255,165.62244,86,80,0
165.35255,165.62244,77,80,0
165.35255,165.62244,74,80,0
165.62527,165.89517,84,80,0
165.62527,165.89517,75,80,0
165.62527,165.89517,72,80,0
165.89801,166.44061,87,110,0
165.89801,166.44061,79,110,0
165.89801,166.44061,75,110,0
166.44347,166.98607,84,110,0
166.44347,166.98607,75,110,0
166.44347,166.98607,72,110,0
166.9889,167.2588,87,80,0
166.9889,167.2588,79,80,0
166.9889,167.2588,75,80,0
167.26164,167.53152,85,80,0
167.26164,167.53152,76,80,0
167.26164,167.53152,73,80,0
167.53436,167.80426,87,80,0
167.53436,167.80426,78,80,0
167.53436,167.80426,75,80,0
167.8071,168.07698,86,80,0
167.8071,168.07698,77,80,0
167.8071,168.07698,74,80,0
168.07982,168.62244,89,110,0
168.07982,168.62244,80,110,0
168.07982,168.62244,77,110,0
168.62527,169.1679,86,110,0
168.62527,169.1679,77,110,0
168.62527,169.1679,74,110,0
169.17073,169.44061,89,80,0
169.17073,169.44061,80,80,0
169.17073,169.44061,77,80,0
169.44345,169.71335,78,80,0
169.44345,169.71335,74,80,0
169.44345,169.71335,86,80,0
169.71619,169.98607,89,80,0
169.71619,169.98607,80,80,0
169.71619,169.98607,77,80,0
169.9889,170.25879,87,80,0
169.9889,170.25879,79,80,0
169.9889,170.25879,75,80,0
170.26164,170.80424,91,110,0
170.26164,170.80424,82,110,0
170.26164,170.80424,79,110,0
170.8071,171.3497,87,110,0
170.8071,171.3497,82,110,0
170.8071,171.3497,79,110,0
170.8071,171.3497,75,110,0
171.35254,171.62244,91,80,0
171.35254,171.62244,82,80,0
171.35254,171.62244,79,80,0
171.62527,171.89516,88,82,0
171.62527,171.89516,82,82,0
171.62527,171.89516,76,82,0
171.898,172.1679,90,85,0
171.898,172.1679,82,85,0
171.898,172.1679,78,85,0
172.17073,172.44061,89,87,0
172.17073,172.44061,82,87,0
172.17073,172.44061,77,87,0
172.44345,172.71333,92,90,0
172.44345,172.71333,82,90,0
172.44345,172.71333,80,90,0
172.71619,172.98607,90,93,0
172.71619,172.98607,82,93,0
172.71619,172.98607,78,93,0
172.9889,173.25879,92,95,0
172.9889,173.25879,82,95,0
172.9889,173.25879,80,95,0
173.26163,173.53152,91,98,0
173.26163,173.53152,82,98,0
173.26163,173.53152,79,98,0
173.53436,173.80424,94,100,0
173.53436,173.80424,91,100,0
173.53436,173.80424,87,100,0
173.53436,173.80424,82,100,0
173.80708,174.07698,92,103,0
173.80708,174.07698,80,103,0
174.07982,174.3497,94,106,0
174.07982,174.3497,82,106,0
174.35254,174.62242,93,108,0
174.35254,174.62242,81,108,0
174.62527,174.89516,96,110,0
174.62527,174.89516,84,110,0
174.898,175.16788,94,110,0
174.898,175.16788,82,110,0
175.17073,175.44061,91,110,0
175.17073,175.44061,79,110,0
175.44345,175.71333,89,110,0
175.44345,175.71333,77,110,0
175.71617,175.98607,87,110,0
175.71617,175.98607,75,110,0
175.9889,176.25879,86,110,0
175.9889,176.25879,74,110,0
176.26163,176.53152,84,110,0
176.26163,176.53152,72,110,0
176.53436,176.80424,82,110,0
176.53436,176.80424,70,110,0
176.80708,177.07697,79,110,0
176.80708,177.07697,67,110,0
177.07982,177.3497,77,110,0
177.07982,177.3497,65,110,0
177.35254,177.62242,75,110,0
177.35254,177.62242,63,110,0
177.62526,177.89516,74,110,0
177.62526,177.89516,62,110,0
177.898,178.16788,72,110,0
177.898,178.16788,60,110,0
178.17072,178.44061,70,110,0
178.17072,178.44061,58,110,0
178.44345,178.71333,67,110,0
178.44345,178.71333,55,110,0
178.71617,178.98605,65,110,0
178.71617,178.98605,53,110,0
178.9889,179.53151,69,110,0
179.26163,179.80424,65,108,0
179.53436,180.07697,72,105,0
179.80708,180.36255,65,102,0
180.0798,180.64825,77,99,0
180.36552,180.93398,65,97,0
180.65125,181.2197,81,94,0
180.93695,181.51955,65,91,0
181.22267,181.81953,84,88,0
181.52266,182.15253,65,86,0
181.82266,182.48586,89,83,0
182.156,182.86043,65,80,0
182.48933,183.23543,89,77,0
182.86433,183.67162,65,75,0
183.23933,184.11043,89,72,0
184.52342,184.65695,86,110,0
184.52342,184.65695,82,110,0
184.52342,184.65695,77,110,0
184.52342,184.65695,74,110,0
184.65979,184.92967,86,110,0
184.65979,184.92967,82,110,0
184.65979,184.92967,77,110,0
184.65979,184.92967,74,110,0
184.93251,185.06604,87,110,0
184.93251,185.06604,82,110,0
184.93251,185.06604,77,110,0
184.93251,185.06604,74,110,0
185.06888,185.2024,86,110,0
185.06888,185.2024,82,110,0
185.06888,185.2024,77,110,0
185.06888,185.2024,74,110,0
185.20525,185.47513,86,110,0
185.20525,185.47513,82,110,0
185.20525,185.47513,77,110,0
185.20525,185.47513,74,110,0
185.47797,185.74785,82,110,0
185.47797,185.74785,77,110,0
185.47797,185.74785,74,110,0
185.47797,185.74785,70,110,0
186.70523,186.83876,86,110,0
186.70523,186.83876,82,110,0
186.70523,186.83876,77,110,0
186.70523,186.83876,74,110,0
186.8416,187.13847,86,110,0
186.8416,187.13847,74,110,0
187.1416,187.3048,86,110,0
187.1416,187.3048,81,110,0
187.1416,187.3048,78,110,0
187.1416,187.3048,74,110,0
187.30827,187.47147,86,110,0
187.30827,187.47147,81,110,0
187.30827,187.47147,78,110,0
187.30827,187.47147,74,110,0
187.47493,187.8048,86,110,0
187.47493,187.8048,81,110,0
187.47493,187.8048,78,110,0
187.47493,187.8048,74,110,0
187.80827,189.47147,74,110,0
187.80827,189.47147,78,110,0
187.80827,189.47147,81,110,0
187.80827,189.47147,86,110,0
190.41432,190.6842,74,80,0
190.41432,190.6842,69,80,0
190.41432,190.6842,66,80,0
190.95978,191.22966,74,80,0
190.95978,191.22966,69,80,0
190.95978,191.22966,66,80,0
191.50523,191.77512,74,80,0
191.50523,191.77512,69,80,0
191.50523,191.77512,66,80,0
192.05069,192.32057,74,80,0
192.05069,192.32057,69,80,0
192.05069,192.32057,66,80,0
192.59615,192.86603,78,82,0
192.59615,192.86603,74,82,0
192.59615,192.86603,72,82,0
192.59615,192.86603,69,82,0
193.1416,193.41148,78,86,0
193.1416,193.41148,74,86,0
193.1416,193.41148,72,86,0
193.1416,193.41148,69,86,0
193.68704,193.95694,81,90,0
193.68704,193.95694,78,90,0
193.68704,193.95694,72,90,0
193.68704,193.95694,69,90,0
194.2325,194.5024,84,94,0
194.2325,194.5024,81,94,0
194.2325,194.5024,78,94,0
194.2325,194.5024,72,94,0
194.77795,195.04784,90,99,0
194.77795,195.04784,84,99,0
194.77795,195.04784,81,99,0
194.77795,195.04784,78,99,0
195.32341,195.59329,93,103,0
195.32341,195.59329,84,103,0
195.32341,195.59329,81,103,0
195.86887,196.13875,96,107,0
195.86887,196.13875,93,107,0
195.86887,196.13875,84,107,0
196.41432,196.6842,96,110,0
196.41432,196.6842,93,110,0
196.41432,196.6842,90,110,0
196.41432,196.6842,84,110,0
196.68704,196.95694,96,110,0
196.68704,196.95694,93,110,0
196.68704,196.95694,90,110,0
196.68704,196.95694,84,110,0
196.95978,197.09329,84,110,0
196.95978,197.09329,81,110,0
197.09613,197.22966,80,108,0
197.09613,197.22966,83,108,0
197.2325,197.50238,84,106,0
197.2325,197.50238,81,106,0
197.50523,197.63875,69,101,0
197.50523,197.63875,66,101,0
197.64159,197.77512,67,99,0
197.64159,197.77512,70,99,0
197.77795,198.04784,69,97,0
197.77795,198.04784,66,97,0
198.05067,198.1842,84,92,0
198.05067,198.1842,81,92,0
198.18704,198.32057,80,90,0
198.18704,198.32057,83,90,0
198.32341,198.59329,84,87,0
198.32341,198.59329,81,87,0
198.59613,198.72966,90,83,0
198.7325,198.86603,93,81,0
198.86887,199.00238,96,80,0
199.00522,199.13875,98,80,0
199.14159,199.27512,96,80,0
199.27795,199.41147,95,80,0
199.41432,199.54784,96,80,0
199.55067,199.6842,98,80,0
199.68704,199.82057,100,80,0
199.82341,199.95692,96,80,0
199.95978,200.09329,93,80,0
200.09613,200.22966,95,80,0
200.2325,200.36601,96,80,0
200.36887,200.50238,93,80,0
200.50522,200.63875,90,80,0
200.64159,200.77512,91,80,0
200.77795,200.91147,93,80,0
200.91432,201.04784,90,80,0
201.05067,201.1842,84,80,0
201.18704,201.32057,86,80,0
201.32341,201.45692,88,80,0
201.45976,201.59329,84,80,0
201.59613,201.72966,81,80,0
201.7325,201.86601,83,80,0
201.86887,202.00238,84,80,0
202.00522,202.13875,81,80,0
202.14159,202.27512,78,80,0
202.27795,202.41147,79,80,0
202.4143,202.54784,81,80,0
202.55067,202.6842,78,80,0
202.68704,202.95692,74,80,0
202.68704,202.95692,72,80,0
202.68704,202.95692,69,80,0
203.2325,203.36601,95,80,0
203.36885,203.50238,96,80,0
203.50522,203.63875,95,80,0
203.64159,203.7751,93,80,0
203.77795,203.91147,95,80,0
203.9143,204.04784,96,80,0
204.05067,204.1842,98,80,0
204.18704,204.32056,95,80,0
204.32341,204.45692,91,80,0
204.45976,204.59329,93,80,0
204.59613,204.72964,95,80,0
204.7325,204.86601,91,80,0
204.86885,205.00238,86,80,0
205.00522,205.13875,90,80,0
205.14159,205.2751,91,80,0
205.27795,205.41147,86,80,0
205.4143,205.54784,83,80,0
205.55067,205.6842,84,80,0
205.68704,205.82056,86,80,0
205.8234,205.95692,83,80,0
205.95976,206.09329,79,80,0
206.09613,206.22964,81,80,0
206.2325,206.36601,83,80,0
206.36885,206.50238,79,80,0
206.50522,206.63875,74,80,0
206.64159,206.7751,78,80,0
206.77794,206.91147,79,80,0
206.9143,207.04784,71,80,0
207.05067,207.18419,67,80,0
207.18704,207.32056,69,80,0
207.3234,207.45692,71,80,0
207.45976,207.59329,67,80,0
207.59613,207.86601,69,80,0
207.59613,207.86601,66,80,0
207.59613,207.86601,62,80,0
207.86885,208.00238,88,80,0
208.00522,208.13873,86,80,0
208.14159,208.2751,88,80,0
208.27794,208.41147,86,80,0
208.4143,208.54784,84,80,0
208.55067,208.68419,88,80,0
208.68703,208.82056,84,80,0
208.8234,208.95692,83,80,0
208.95976,209.09328,81,80,0
209.09613,209.22964,84,80,0
209.23248,209.36601,81,80,0
209.36885,209.50238,79,80,0
209.50522,209.63873,78,80,0
209.64159,209.7751,81,80,0
209.77794,209.91147,76,80,0
209.9143,210.04782,74,80,0
210.05067,210.18419,72,80,0
210.18703,210.32056,76,80,0
210.3234,210.45692,72,80,0
210.45976,210.59328,71,80,0
210.59613,210.72964,69,80,0
210.73248,210.86601,72,80,0
210.86885,211.00238,69,80,0
211.00522,211.13873,67,80,0
211.14157,211.2751,66,80,0
211.27794,211.41147,69,80,0
211.4143,211.54782,72,80,0
211.55067,211.68419,71,80,0
211.68703,211.82056,69,80,0
211.8234,211.95692,72,80,0
211.95976,212.22964,67,80,0
211.95976,212.22964,62,80,0
212.23248,212.36601,98,80,0
212.36885,212.50237,96,80,0
212.50522,212.63873,98,80,0
212.64157,212.7751,96,80,0
212.77794,212.91147,95,80,0
212.9143,213.04782,98,80,0
213.05066,213.18419,95,80,0
213.18703,213.32056,93,80,0
213.3234,213.45691,91,80,0
213.45976,213.59328,95,80,0
213.59612,213.72964,83,80,0
213.73248,213.86601,81,80,0
213.86885,214.00237,79,80,0
214.00522,214.13873,83,80,0
214.14157,214.2751,74,80,0
214.27794,214.41145,72,80,0
214.4143,214.54782,71,80,0
214.55066,214.68419,74,80,0
214.68703,214.82056,83,80,0
214.8234,214.95691,81,80,0
214.95976,215.09328,79,80,0
215.09612,215.22964,83,80,0
215.23248,215.36601,86,80,0
215.36885,215.50237,84,80,0
215.5052,215.63873,83,80,0
215.64157,215.7751,86,80,0
215.77794,216.04782,88,80,0
216.05066,216.32056,90,80,0
216.05066,216.32056,86,80,0
216.05066,216.32056,81,80,0
216.3234,216.59328,91,80,0
216.3234,216.59328,86,80,0
216.3234,216.59328,79,80,0
217.68703,217.96976,69,80,0
217.68703,217.96976,66,80,0
217.97273,218.11263,71,80,0
217.97273,218.11263,67,80,0
218.25845,218.40533,83,80,0
218.25845,218.40533,91,80,0
218.40845,218.55533,81,80,0
218.40845,218.55533,90,80,0
218.55846,218.85533,91,80,0
218.55846,218.85533,83,80,0
218.85846,219.15533,88,80,0
218.85846,219.15533,83,80,0
218.85846,219.15533,79,80,0
219.15845,219.48831,86,80,0
219.15845,219.48831,81,80,0
219.15845,219.48831,78,80,0
219.49179,219.82164,85,80,0
219.49179,219.82164,79,80,0
219.49179,219.82164,76,80,0
219.82512,220.19621,88,80,0
219.82512,220.19621,79,80,0
220.20012,220.57121,86,80,0
220.20012,220.57121,78,80,0
220.57512,220.94621,86,80,0
220.57512,220.94621,78,80,0
220.95012,221.10472,86,80,0
220.95012,221.10472,79,80,0
221.10802,221.26262,84,80,0
221.10802,221.26262,81,80,0
221.26591,221.5358,83,80,0
221.53864,221.80852,91,80,0
221.53864,221.94489,79,80,0
221.81136,221.94489,88,80,0
222.08409,222.2176,96,80,0
222.08409,222.2176,84,80,0
222.22046,222.35397,93,80,0
222.22046,222.35397,88,80,0
222.35681,222.62671,90,80,0
222.62955,222.89943,98,80,0
222.62955,223.0358,86,80,0
222.90227,223.0358,95,80,0
223.175,223.30852,91,80,0
223.31136,223.44489,90,80,0
223.44772,223.7176,91,80,0
223.72046,224.00319,88,80,0
224.00616,224.30304,84,80,0
224.30617,224.63603,83,80,0
224.30617,224.63603,78,80,0
224.6395,224.93637,78,80,0
224.9395,225.07303,81,80,0
225.07587,225.20938,79,80,0
224.6395,225.48212,83,80,0
225.21222,225.48212,79,80,0
225.48495,225.75484,82,80,0
225.48495,225.75484,88,80,0
225.48495,226.02757,79,80,0
226.03041,226.16393,79,80,0
226.16676,226.3003,77,80,0
225.75768,226.57301,81,80,0
226.30313,226.57301,77,80,0
226.57587,226.84575,86,80,0
226.57587,226.84575,80,80,0
226.57587,227.11847,77,80,0
227.1213,227.25484,77,80,0
227.25768,227.3912,76,80,0
226.84859,227.66393,79,80,0
227.39404,227.66393,76,80,0
227.66676,227.93666,79,80,0
227.66676,227.93666,85,80,0
227.66676,228.20938,76,80,0
228.21222,228.34575,76,80,0
228.34859,228.4821,75,80,0
227.9395,228.75484,78,80,0
228.48495,228.75484,74,80,0
228.75768,229.02756,83,80,0
228.75768,229.02756,77,80,0
229.03041,229.16393,77,80,0
228.75768,229.3003,74,80,0
229.16676,229.43665,76,80,0
229.30313,229.57301,73,80,0
229.4395,229.57301,81,80,0
229.57585,229.70938,75,80,0
229.57585,229.84575,72,80,0
229.71222,229.9821,74,80,0
229.84859,230.11847,71,80,0
229.98495,230.11847,79,80,0
230.1213,230.25484,74,80,0
230.25768,230.3912,86,81,0
230.39404,230.52756,85,82,0
230.5304,230.66393,84,84,0
230.66676,230.8003,81,85,0
230.80313,230.93665,78,86,0
230.9395,231.07301,75,88,0
231.07585,231.20938,74,89,0
231.21222,231.34575,73,90,0
231.34859,231.4821,72,92,0
231.48494,231.61847,69,93,0
231.6213,231.75484,66,94,0
231.75768,231.89119,63,80,0
231.74063,232.01051,67,80,0
231.89404,232.02756,62,80,0
232.0304,232.16393,76,80,0
232.0304,232.3003,67,80,0
232.16676,232.3003,74,80,0
232.30313,232.43665,74,80,0
232.43948,232.57301,86,81,0
232.57585,232.70938,85,82,0
232.71222,232.84573,84,84,0
232.84859,232.9821,81,85,0
232.98494,233.11847,78,86,0
233.1213,233.25484,75,88,0
233.25768,233.39119,74,89,0
233.39404,233.52756,73,90,0
233.5304,233.66393,72,92,0
233.66676,233.80028,69,93,0
233.80313,233.93665,66,94,0
233.93948,234.07301,63,80,0
233.92244,234.19234,67,80,0
234.07585,234.20938,62,80,0
234.21222,234.34573,76,80,0
234.21222,234.4821,67,80,0
234.34859,234.4821,74,80,0
234.48494,234.61847,74,80,0
234.6213,234.75484,79,80,0
234.6213,234.75484,71,80,0
234.75768,234.89119,83,80,0
234.75768,234.89119,74,80,0
234.89403,235.02756,81,80,0
234.89403,235.02756,72,80,0
235.0304,235.16393,71,80,0
235.16676,235.30028,75,80,0
235.30313,235.43665,76,80,0
235.43948,235.57301,71,80,0
235.57585,235.70938,70,80,0
235.71222,235.84573,75,80,0
235.84857,235.9821,76,80,0
235.0304,236.11847,79,80,0
235.98494,236.11847,70,80,0
236.1213,236.25482,69,80,0
236.1213,236.39119,78,80,0
236.25768,236.39119,73,80,0
236.39403,236.66393,74,80,0
236.5304,236.66393,86,80,0
236.66676,236.80028,86,80,0
236.80312,236.93665,98,81,0
236.93948,237.07301,97,82,0
237.07585,237.20937,96,84,0
237.21222,237.34573,93,85,0
237.34857,237.4821,90,86,0
237.48494,237.61847,87,88,0
237.6213,237.75482,86,89,0
237.75766,237.89119,85,90,0
237.89403,238.02756,84,92,0
238.0304,238.16391,81,93,0
238.16676,238.30028,78,94,0
238.30312,238.43665,75,80,0
238.28607,238.55597,79,80,0
238.43948,238.57301,74,80,0
238.57585,238.70937,88,80,0
238.57585,238.84573,79,80,0
238.71222,238.84573,86,80,0
238.84857,238.9821,86,80,0
238.98494,239.11845,98,81,0
239.1213,239.25482,97,82,0
239.25766,239.39119,96,84,0
239.39403,239.52756,93,85,0
239.5304,239.66391,90,86,0
239.66676,239.80028,87,88,0
239.80312,239.93665,86,89,0
239.93948,240.07301,85,90,0
240.07585,240.20937,84,92,0
240.2122,240.34573,81,93,0
240.34857,240.4821,78,94,0
240.48494,240.61845,75,80,0
240.4679,240.73778,79,80,0
240.6213,240.75482,74,80,0
240.75766,240.89119,88,80,0
240.75766,241.02756,79,80,0
240.89403,241.02756,86,80,0
241.0304,241.16391,86,80,0
241.16675,241.30028,79,80,0
241.16675,241.30028,71,80,0
241.30312,241.43665,83,80,0
241.30312,241.43665,74,80,0
241.43948,241.573,81,80,0
241.43948,241.573,72,80,0
241.57585,241.70937,71,80,0
241.7122,241.84573,75,80,0
241.84857,241.9821,76,80,0
241.98494,242.11845,71,80,0
242.12129,242.25482,70,80,0
242.25766,242.39119,75,80,0
242.39403,242.52754,76,80,0
241.57585,242.66391,79,80,0
242.5304,242.66391,70,80,0
242.66675,242.80028,69,80,0
242.66675,242.93665,78,80,0
242.80312,242.93665,74,80,0
242.93948,243.073,67,80,0
242.93948,243.20937,79,80,0
243.07585,243.20937,72,80,0
243.2122,243.34573,79,80,0
243.34857,243.48209,84,80,0
243.34857,243.48209,76,80,0
243.48494,243.61845,88,81,0
243.48494,243.61845,79,81,0
243.62129,243.75482,86,82,0
243.62129,243.75482,77,82,0
243.75766,243.89119,76,83,0
243.89403,244.02754,80,84,0
244.0304,244.16391,81,85,0
244.16675,244.30028,76,86,0
244.30312,244.43665,75,87,0
244.43948,244.573,80,88,0
244.57584,244.70937,81,89,0
243.75766,244.84573,84,83,0
244.7122,244.84573,76,90,0
244.84857,244.98209,74,91,0
244.84857,245.11845,83,91,0
244.98494,245.11845,79,92,0
245.12129,245.25482,72,93,0
245.12129,245.39119,84,93,0
245.25766,245.39119,77,94,0
245.39403,245.52754,84,94,0
245.53038,245.66391,89,95,0
245.53038,245.66391,81,95,0
245.66675,245.80028,93,96,0
245.66675,245.80028,84,96,0
245.80312,245.93663,91,97,0
245.80312,245.93663,82,97,0
245.93948,246.073,80,98,0
246.07584,246.20937,77,99,0
246.2122,246.34573,80,100,0
246.34857,246.48209,79,101,0
246.48492,246.61845,80,102,0
246.62129,246.75482,85,103,0
246.75766,246.89117,86,104,0
245.93948,247.02754,89,98,0
246.89403,247.02754,80,105,0
247.03038,247.16391,79,106,0
247.16675,247.30028,83,107,0
247.30312,247.43663,84,108,0
247.43947,247.573,79,109,0
247.03038,247.84572,88,106,0
247.57584,247.84572,84,109,0
247.84857,248.11845,88,120,0
247.84857,248.11845,84,120,0
247.84857,248.11845,79,120,0
247.84857,248.11845,76,120,0
248.12129,248.39117,86,120,0
248.12129,248.39117,83,120,0
248.39403,248.52754,88,120,0
248.39403,248.52754,84,120,0
248.53038,248.66391,89,120,0
248.53038,248.66391,86,120,0
248.66675,248.93663,91,120,0
248.66675,248.93663,88,120,0
248.93947,249.20937,88,120,0
248.93947,249.20937,84,120,0
250.03038,250.30026,88,120,0
250.03038,250.30026,84,120,0
250.03038,250.30026,79,120,0
250.03038,250.30026,76,120,0
250.30312,250.573,86,120,0
250.30312,250.573,83,120,0
250.57584,250.70937,88,120,0
250.57584,250.70937,84,120,0
250.7122,250.84572,89,120,0
250.7122,250.84572,86,120,0
250.84856,251.11845,91,120,0
250.84856,251.11845,88,120,0
251.12129,251.39117,91,120,0
251.12129,251.39117,88,120,0
251.12129,251.39117,81,120,0
251.12129,251.39117,79,120,0
251.66675,251.93663,88,120,0
251.66675,251.93663,85,120,0
251.66675,251.93663,79,120,0
251.66675,251.93663,91,120,0
252.2122,252.48209,91,120,0
252.2122,252.48209,86,120,0
252.2122,252.48209,83,120,0
252.2122,252.48209,79,120,0
252.75766,253.02754,91,120,0
252.75766,253.02754,85,120,0
252.75766,253.02754,81,120,0
252.75766,253.02754,79,120,0
253.03038,253.573,86,120,0
253.03038,253.573,83,120,0
253.03038,253.573,79,120,0
253.03038,253.573,91,120,0
253.57584,254.39117,79,113,0
253.57584,254.39117,83,113,0
253.57584,254.39117,86,113,0
254.39401,254.6639,83,102,0
254.39401,254.6639,79,102,0
254.39401,254.6639,74,102,0
254.66675,254.80026,74,100,0
254.8031,254.93663,78,100,0
254.93947,255.073,79,101,0
255.07584,255.20935,83,101,0
255.21219,255.34572,85,102,0
255.34856,255.48209,86,103,0
255.48492,255.61844,88,103,0
255.62129,255.7548,86,104,0
255.75764,255.89117,90,104,0
255.89401,256.02753,91,105,0
256.03036,256.1639,93,106,0
256.16675,256.30026,91,106,0
256.3031,256.4366,94,107,0
256.43945,256.573,95,108,0
256.57584,256.70935,96,108,0
256.7122,256.8457,95,109,0
256.84857,257.11844,98,110,0
257.12128,257.39117,84,80,0
257.12128,257.39117,81,80,0
257.12128,257.39117,74,80,0
257.394,258.4821,83,80,0
257.394,258.4821,79,80,0
257.394,258.4821,74,80,0
258.48492,259.02753,84,80,0
258.48492,259.02753,79,80,0
259.03036,259.573,87,80,0
259.03036,259.573,84,80,0
259.03036,259.573,79,80,0
259.57584,260.11844,86,80,0
259.57584,260.66388,91,80,0
259.57584,260.66388,79,80,0
260.12128,260.66388,83,80,0
260.66675,261.20935,87,80,0
260.66675,261.20935,84,80,0
260.66675,261.20935,79,80,0
261.2122,261.7548,84,80,0
261.2122,261.7548,79,80,0
261.75763,262.30026,82,80,0
261.75763,262.8457,79,80,0
262.3031,262.8457,83,80,0
262.84854,263.39117,86,80,0
262.84854,263.39117,78,80,0
263.394,263.80026,84,80,0
263.394,263.80026,81,80,0
263.66672,263.9366,74,80,0
263.8031,263.9366,81,80,0
263.8031,263.9366,78,80,0
263.93945,264.07297,79,80,0
264.00763,264.14117,81,80,0
263.93945,264.20935,74,80,0
264.07584,264.20935,79,80,0
264.144,264.27753,81,80,0
264.2122,264.3457,79,81,0
264.28036,264.41388,81,81,0
264.34854,264.4821,79,81,0
264.41672,264.55026,81,82,0
264.48492,264.61844,79,82,0
264.5531,264.6866,81,82,0
264.62128,264.7548,79,83,0
264.68945,264.82297,81,83,0
264.75763,264.89117,79,83,0
264.82584,264.95935,81,84,0
263.93945,265.02753,83,80,0
264.894,265.02753,79,84,0
264.9622,265.0957,81,84,0
265.03036,265.16388,79,84,0
265.09854,265.2321,81,85,0
265.16672,265.30026,79,85,0
265.23492,265.36844,81,85,0
265.3031,265.4366,79,86,0
265.37128,265.5048,81,86,0
265.03036,265.57297,84,84,0
265.43945,265.57297,79,86,0
265.50763,265.64117,81,87,0
265.57584,265.70935,79,87,0
265.644,265.77753,81,87,0
265.7122,265.8457,79,88,0
265.78036,265.91388,81,88,0
265.84854,265.9821,79,88,0
265.91672,266.05026,81,89,0
265.57584,266.11844,88,87,0
265.98492,266.11844,79,89,0
266.0531,266.1866,81,89,0
266.12128,266.2548,79,89,0
266.18945,266.32297,81,90,0
266.25763,266.39117,79,90,0
266.3258,266.45935,81,90,0
266.394,266.52753,79,91,0
266.4622,266.5957,81,91,0
266.53036,266.66388,79,91,0
266.59854,266.73206,81,92,0
266.66672,266.80026,79,92,0
266.73492,266.86844,81,92,0
266.8031,266.9366,79,93,0
266.87128,267.0048,81,93,0
266.93945,267.07297,79,93,0
267.00763,267.14117,81,94,0
266.12128,267.20935,91,89,0
267.0758,267.20935,79,94,0
267.144,267.27753,81,94,0
267.2122,267.3457,79,94,0
267.28036,267.41388,81,95,0
267.34854,267.48206,79,95,0
267.41672,267.55026,81,95,0
267.48492,267.61844,79,96,0
267.5531,267.6866,81,96,0
267.2122,267.7548,88,94,0
267.62128,267.7548,79,96,0
267.68945,267.82297,81,97,0
267.75763,267.89117,79,97,0
267.8258,267.95935,81,97,0
267.894,268.02753,79,98,0
267.9622,268.0957,81,98,0
268.03036,268.16388,79,98,0
268.09854,268.23206,81,99,0
267.75763,268.30026,84,97,0
268.16672,268.30026,79,99,0
268.23492,268.36844,81,99,0
268.3031,268.4366,79,99,0
268.37128,268.5048,81,100,0
268.3031,268.57297,82,99,0
268.43945,268.57297,79,100,0
268.50763,268.64117,81,100,0
268.5758,268.70935,79,101,0
268.644,268.77753,81,101,0
268.7122,268.8457,79,101,0
268.78036,268.91388,81,102,0
268.84854,268.98206,79,102,0
268.91672,269.05026,81,102,0
268.5758,269.11844,83,101,0
268.9849,269.11844,79,103,0
269.0531,269.1866,81,103,0
269.12128,269.2548,79,103,0
269.18945,269.32297,81,104,0
269.12128,269.39114,86,103,0
269.25763,269.39114,79,104,0
269.3258,269.394,81,104,0
269.394,269.52753,86,104,0
269.4622,269.5957,88,105,0
269.53036,269.66388,86,105,0
269.59854,269.73206,88,105,0
269.66672,269.80026,86,106,0
269.7349,269.86844,88,106,0
269.66672,269.9366,74,106,0
269.8031,269.9366,86,106,0
269.87128,270.0048,88,107,0
269.93945,270.07297,86,107,0
270.00763,270.14114,88,107,0
270.0758,270.20935,86,108,0
270.144,270.27753,88,108,0
270.2122,270.3457,86,108,0
270.28036,270.41388,88,109,0
270.34854,270.48206,85,109,0
270.41672,270.55026,86,109,0
270.4849,270.55026,86,120,0
270.4849,270.7548,98,120,0
270.4849,270.7548,95,120,0
270.4849,270.7548,89,120,0
270.75763,271.30026,95,120,0
270.75763,271.30026,89,120,0
270.75763,271.30026,86,120,0
270.75763,271.30026,98,120,0
271.3031,271.57297,96,120,0
271.3031,271.57297,89,120,0
271.3031,271.57297,86,120,0
271.3031,271.57297,84,120,0
271.5758,271.8457,95,120,0
271.5758,271.8457,89,120,0
271.5758,271.8457,86,120,0
271.5758,271.8457,83,120,0
271.84854,272.11844,96,120,0
271.84854,272.11844,89,120,0
271.84854,272.11844,86,120,0
271.84854,272.11844,84,120,0
272.12128,272.39114,98,120,0
272.12128,272.39114,89,120,0
272.12128,272.39114,86,120,0
272.39398,272.66388,95,80,0
272.39398,272.66388,88,80,0
272.39398,272.66388,86,80,0
272.39398,272.66388,83,80,0
272.66672,272.9366,96,80,0
272.66672,272.9366,88,80,0
272.66672,272.9366,84,80,0
272.93945,273.20935,95,80,0
272.93945,273.20935,88,80,0
272.93945,273.20935,86,80,0
272.93945,273.20935,83,80,0
273.2122,273.48206,96,80,0
273.2122,273.48206,88,80,0
273.2122,273.48206,84,80,0
273.4849,273.7548,93,80,0
273.4849,273.7548,88,80,0
273.4849,273.7548,84,80,0
273.4849,273.7548,81,80,0
273.75763,274.02753,91,80,0
273.75763,274.02753,88,80,0
273.75763,274.02753,81,80,0
274.03036,274.30023,91,80,0
274.03036,274.30023,85,80,0
274.03036,274.30023,81,80,0
274.3031,274.57297,90,80,0
274.3031,274.57297,84,80,0
274.3031,274.57297,81,80,0
274.5758,274.8457,93,80,0
274.5758,274.8457,84,80,0
274.5758,274.8457,81,80,0
274.84854,275.11844,91,80,0
274.84854,275.11844,83,80,0
274.84854,275.11844,79,80,0
275.12128,275.39114,86,83,0
275.12128,275.39114,83,83,0
275.12128,275.39114,74,83,0
275.39398,275.66388,90,87,0
275.39398,275.66388,84,87,0
275.39398,275.66388,78,87,0
275.66672,275.9366,93,91,0
275.66672,275.9366,90,91,0
275.66672,275.9366,84,91,0
275.66672,275.9366,81,91,0
275.93945,276.20932,91,95,0
275.93945,276.20932,83,95,0
275.93945,276.20932,79,95,0
276.2122,276.48206,86,99,0
276.2122,276.48206,83,99,0
276.2122,276.48206,74,99,0
276.4849,276.7548,90,103,0
276.4849,276.7548,84,103,0
276.4849,276.7548,78,103,0
276.75763,277.02753,93,107,0
276.75763,277.02753,90,107,0
276.75763,277.02753,84,107,0
276.75763,277.02753,81,107,0
277.03036,277.16388,79,110,0
277.16672,277.30023,91,110,0
277.30307,277.4366,74,110,0
277.43945,277.57297,86,110,0
277.5758,277.70932,78,110,0
277.71216,277.8457,90,110,0
277.84854,277.98206,81,110,0
277.9849,278.1184,93,110,0
278.12128,278.2548,79,110,0
278.25763,278.39114,91,110,0
278.39398,278.52753,74,110,0
278.53036,278.66388,86,110,0
278.66672,278.80023,78,110,0
278.80307,278.9366,90,110,0
278.93945,279.07297,81,110,0
279.0758,279.20932,93,110,0
279.21216,279.48206,91,120,0
279.21216,279.48206,79,120,0
279.75763,280.0275,93,120,0
279.75763,280.0275,81,120,0
280.30307,282.48206,83,120,0
280.30307,282.48206,95,120,0
282.4849,282.76764,95,120,0
282.4849,282.76764,83,120,0
283.05634,283.3532,96,120,0
283.05634,283.3532,84,120,0
283.6563,285.65286,86,120,0
283.6563,285.65286,98,120,0
286.323,286.59286,86,70,0
286.323,286.59286,79,70,0
286.323,286.59286,74,70,0
286.5957,287.13834,86,70,0
286.5957,287.13834,79,70,0
286.5957,287.13834,74,70,0
287.14117,287.41104,84,70,0
287.14117,287.41104,79,70,0
287.14117,287.41104,75,70,0
287.4139,287.68378,83,70,0
287.4139,287.68378,79,70,0
287.4139,287.68378,77,70,0
287.6866,287.9565,84,70,0
287.6866,287.9565,79,70,0
287.6866,287.9565,75,70,0
287.95935,288.22925,86,70,0
287.95935,288.22925,79,70,0
287.95935,288.22925,74,70,0
288.2321,288.50195,83,70,0
288.2321,288.50195,79,70,0
288.2321,288.50195,77,70,0
288.5048,288.7747,87,70,0
288.5048,288.7747,79,70,0
288.5048,288.7747,75,70,0
288.77753,289.32013,87,70,0
288.77753,289.32013,79,70,0
288.77753,289.32013,75,70,0
289.323,289.59286,86,70,0
289.323,289.59286,79,70,0
289.323,289.59286,77,70,0
289.323,289.59286,74,70,0
289.5957,289.8656,84,70,0
289.5957,289.8656,79,70,0
289.5957,289.8656,75,70,0
289.86844,290.13834,86,70,0
289.86844,290.13834,79,70,0
289.86844,290.13834,77,70,0
289.86844,290.13834,74,70,0
290.14117,290.41104,87,70,0
290.14117,290.41104,79,70,0
290.14117,290.41104,75,70,0
290.41388,290.68378,84,70,0
290.41388,290.68378,79,70,0
290.41388,290.68378,75,70,0
290.6866,290.9565,89,70,0
290.6866,290.9565,80,70,0
290.6866,290.9565,77,70,0
290.95935,291.50195,89,75,0
290.95935,291.50195,80,75,0
290.95935,291.50195,77,75,0
291.5048,291.7747,87,86,0
291.5048,291.7747,79,86,0
291.5048,291.7747,75,86,0
291.77753,292.04742,86,91,0
291.77753,292.04742,77,91,0
291.77753,292.04742,74,91,0
292.05026,292.32013,87,97,0
292.05026,292.32013,79,97,0
292.05026,292.32013,75,97,0
292.32297,292.59286,89,102,0
292.32297,292.59286,80,102,0
292.32297,292.59286,77,102,0
292.5957,292.8656,86,108,0
292.5957,292.8656,82,108,0
292.5957,292.8656,77,108,0
292.5957,292.8656,74,108,0
292.86844,293.13834,91,110,0
292.86844,293.13834,87,110,0
292.86844,293.13834,79,110,0
293.42688,293.72375,92,110,0
293.42688,293.72375,89,110,0
293.42688,293.72375,80,110,0
294.04266,295.37253,94,110,0
294.04266,295.37253,91,110,0
294.04266,295.37253,82,110,0
295.97598,296.27286,67,80,0
295.97598,296.27286,63,80,0
296.576,296.87286,68,80,0
296.576,296.87286,65,80,0
297.176,298.37286,67,80,0
297.176,298.37286,70,80,0
301.22598,301.37286,51,120,0
301.376,301.82288,63,120,0
301.826,301.97287,63,120,0
301.97598,303.62286,63,120,0
303.626,303.77286,46,80,0
303.776,304.18225,51,80,0
304.1851,304.3186,51,80,0
304.32144,304.59134,51,80,0
304.59418,304.7277,53,80,0
304.73053,304.86407,51,80,0
304.8669,305.13678,51,80,0
305.13962,305.40952,48,80,0
305.41235,305.955,48,80,0
305.95782,306.2277,56,80,0
306.23053,306.36407,56,80,0
306.3669,306.50043,55,80,0
306.50327,306.77316,53,80,0
306.776,306.90952,53,80,0
306.91235,307.04587,51,80,0
307.04874,307.3186,50,80,0
307.59418,308.13678,50,80,0
308.13962,308.40952,58,80,0
308.41235,308.54587,58,80,0
308.5487,308.68225,56,80,0
308.6851,308.95496,55,80,0
308.95782,309.09134,55,80,0
309.09418,309.2277,53,80,0
309.23053,309.50043,52,80,0
309.776,310.3186,52,80,0
310.32144,310.59134,60,80,0
310.59418,310.7277,60,80,0
310.73053,310.86404,58,80,0
310.8669,311.13678,56,81,0
311.13962,311.27316,56,81,0
311.276,311.40952,55,82,0
311.41235,311.68225,53,82,0
311.6851,311.8186,53,83,0
311.82144,311.95496,55,83,0
311.9578,312.2277,56,83,0
312.23053,312.36404,56,84,0
312.3669,312.50043,58,84,0
312.50327,312.77316,55,85,0
312.776,312.90952,55,85,0
312.91235,313.04587,53,86,0
313.0487,313.3186,51,86,0
313.4578,313.59134,65,87,0
313.59418,314.00043,70,87,0
314.00327,314.13678,70,88,0
314.13962,314.40952,70,89,0
314.41235,314.54587,72,89,0
314.5487,314.68225,70,90,0
314.6851,314.95496,70,90,0
314.6851,315.09134,63,90,0
314.9578,315.2277,67,91,0
315.09418,315.2277,63,91,0
315.23053,315.50043,63,91,0
315.50327,315.63678,65,92,0
315.23053,315.77313,67,91,0
315.63962,315.77313,63,92,0
315.77597,316.04587,75,93,0
315.77597,316.04587,63,93,0
316.0487,316.18222,75,93,0
316.1851,316.3186,74,94,0
316.32144,316.59134,72,94,0
316.59418,316.7277,72,95,0
316.32144,316.86404,60,94,0
316.73053,316.86404,70,95,0
316.86688,317.13678,69,95,0
316.86688,317.13678,65,95,0
317.13962,317.27313,65,96,0
317.27597,317.40952,63,96,0
317.41235,317.68222,62,96,0
317.6851,317.8186,62,97,0
317.41235,317.95496,69,96,0
317.82144,317.95496,60,97,0
317.9578,318.2277,77,98,0
318.23053,318.36404,77,98,0
318.36688,318.50043,75,99,0
318.50327,318.77313,74,99,0
318.77597,318.90952,74,100,0
318.91235,319.04587,72,100,0
319.0487,319.3186,71,100,0
319.0487,319.3186,67,100,0
319.32144,319.45496,67,101,0
319.4578,319.5913,65,101,0
319.59418,319.86404,63,102,0
319.86688,320.00043,63,102,0
319.59418,320.13678,71,102,0
320.00327,320.13678,62,103,0
320.13962,320.40952,79,103,0
320.41235,320.54587,79,104,0
320.5487,320.68222,77,104,0
320.68506,320.95496,75,104,0
320.9578,321.0913,75,105,0
320.9578,321.0913,67,105,0
321.09418,321.2277,74,105,0
321.09418,321.2277,65,105,0
321.23053,321.5004,72,106,0
321.23053,321.5004,63,106,0
321.50327,321.63678,72,106,0
321.50327,321.63678,65,106,0
321.63962,321.77313,70,107,0
321.63962,321.77313,67,107,0
321.77597,322.04587,68,107,0
321.77597,322.04587,60,107,0
322.0487,322.18222,68,108,0
322.0487,322.18222,60,108,0
322.18506,322.3186,67,108,0
322.18506,322.3186,58,108,0
322.32144,322.5913,65,108,0
322.32144,322.5913,60,108,0
322.59415,322.7277,65,109,0
322.59415,322.86404,62,109,0
322.73053,322.86404,67,109,0
322.86688,323.13678,63,110,0
322.86688,323.13678,68,110,0
323.13962,323.27313,62,110,0
323.13962,323.40952,70,110,0
323.27597,323.40952,65,110,0
323.27597,323.40952,62,110,0
323.41235,323.68222,70,110,0
323.41235,323.68222,67,110,0
323.41235,323.8186,63,110,0
323.82144,323.95496,67,110,0
323.9578,324.2277,67,110,0
324.23053,324.36404,68,110,0
324.36688,324.5004,67,110,0
324.36688,324.5004,70,110,0
324.50323,324.77313,67,110,0
324.50323,324.9095,75,110,0
324.77597,325.04587,63,110,0
324.91235,325.04587,75,110,0
325.0487,325.3186,75,110,0
325.32144,325.45496,77,110,0
325.4578,325.5913,75,110,0
325.0487,325.86404,63,110,0
325.59415,325.86404,75,110,0
325.86688,326.13678,72,110,0
326.00323,326.13678,70,110,0
326.13962,326.4095,68,110,0
326.41235,326.54587,68,110,0
326.13962,326.68222,72,110,0
326.5487,326.68222,67,110,0
326.68506,326.95496,80,110,0
326.68506,326.95496,65,110,0
326.9578,327.0913,80,110,0
327.09415,327.2277,79,110,0
327.23053,327.5004,77,110,0
327.50323,327.63678,77,110,0
327.23053,327.77313,65,110,0
327.63962,327.77313,75,110,0
327.77597,328.04587,74,110,0
328.0487,328.18222,74,110,0
328.18506,328.31857,72,110,0
328.32144,328.5913,70,110,0
328.59415,328.7277,70,110,0
328.32144,328.86404,74,110,0
328.73053,328.86404,68,110,0
328.86688,329.13678,82,110,0
328.86688,329.13678,67,110,0
329.13962,329.27313,82,110,0
329.27597,329.4095,80,110,0
329.41232,329.68222,79,110,0
329.68506,329.81857,79,110,0
329.8214,329.95496,77,110,0
329.41232,330.22766,67,110,0
329.9578,330.22766,67,110,0
329.9578,330.22766,76,110,0
330.23053,330.36404,55,110,0
330.23053,330.5004,64,110,0
330.36688,330.5004,61,110,0
330.50323,330.77313,65,110,0
330.77597,330.9095,60,110,0
330.77597,331.04587,67,110,0
330.91232,331.04587,58,110,0
331.0487,331.31857,56,80,0
331.3214,331.45496,65,80,0
331.4578,331.5913,63,80,0
331.0487,331.86404,68,80,0
331.59415,331.86404,62,80,0
331.86688,332.0004,62,80,0
331.86688,332.13678,69,80,0
332.00323,332.13678,60,80,0
332.13962,332.4095,70,80,0
332.13962,332.4095,58,80,0
332.41232,332.54587,79,82,0
332.5487,332.68222,77,84,0
332.68506,332.95496,75,85,0
332.9578,333.0913,75,88,0
333.09415,333.22766,74,89,0
333.50323,333.77313,60,93,0
333.2305,334.04587,72,90,0
333.77597,334.31857,65,96,0
334.0487,334.31857,73,98,0
334.3214,334.5913,74,101,0
334.3214,334.5913,65,101,0
334.59415,334.72766,75,104,0
334.59415,334.72766,67,104,0
334.7305,334.86404,74,105,0
334.7305,334.86404,65,105,0
334.86688,335.13675,72,106,0
334.86688,335.13675,63,106,0
335.1396,335.27313,71,109,0
335.1396,335.4095,62,109,0
335.27597,335.4095,67,110,0
335.41232,335.81857,75,110,0
335.41232,335.81857,72,110,0
335.8214,335.95496,75,110,0
335.8214,335.95496,72,110,0
335.9578,336.22766,75,110,0
335.9578,336.22766,72,110,0
336.2305,336.36404,77,110,0
336.2305,336.36404,74,110,0
336.36688,336.5004,75,110,0
336.36688,336.5004,72,110,0
336.50323,336.77313,75,110,0
336.50323,336.77313,72,110,0
336.77597,337.04584,72,110,0
336.77597,337.04584,68,110,0
337.0487,337.5913,72,110,0
337.0487,337.5913,68,110,0
337.59415,337.86404,80,110,0
337.59415,337.86404,77,110,0
337.86688,338.0004,80,110,0
337.86688,338.0004,77,110,0
338.00323,338.13675,79,110,0
338.00323,338.13675,75,110,0
338.1396,338.4095,77,110,0
338.1396,338.4095,73,110,0
338.41232,338.54584,77,110,0
338.41232,338.54584,73,110,0
338.54868,338.68222,75,110,0
338.54868,338.68222,72,110,0
338.68506,338.95493,73,110,0
338.68506,338.95493,70,110,0
339.2305,339.77313,73,110,0
339.2305,339.77313,70,110,0
339.77597,340.04584,82,110,0
339.77597,340.04584,79,110,0
340.04868,340.18222,82,110,0
340.04868,340.18222,79,110,0
340.18506,340.31857,80,110,0
340.18506,340.31857,77,110,0
340.3214,340.5913,79,110,0
340.3214,340.5913,76,110,0
340.59415,340.72766,79,110,0
340.59415,340.72766,76,110,0
340.7305,340.864,77,110,0
340.7305,340.864,74,110,0
340.86688,341.13675,76,110,0
340.86688,341.13675,72,110,0
341.41232,341.95493,77,110,0
341.41232,341.95493,72,110,0
341.95776,342.22766,84,110,0
341.95776,342.22766,80,110,0
342.2305,342.364,84,110,0
342.2305,342.364,80,110,0
342.36688,342.5004,82,110,0
342.36688,342.5004,79,110,0
342.50323,342.77313,80,110,0
342.50323,342.77313,77,110,0
342.77597,342.9095,82,110,0
342.77597,342.9095,79,110,0
342.91232,343.04584,80,110,0
342.91232,343.04584,77,110,0
343.04868,343.31857,79,110,0
343.04868,343.31857,75,110,0
343.3214,343.45493,89,110,0
343.3214,343.45493,80,110,0
343.45776,343.5913,87,110,0
343.45776,343.5913,79,110,0
343.59415,343.864,86,110,0
343.59415,343.864,77,110,0
343.86685,344.0004,87,110,0
343.86685,344.0004,79,110,0
344.00323,344.13675,86,110,0
344.00323,344.13675,77,110,0
344.1396,344.4095,84,110,0
344.1396,344.4095,75,110,0
344.41232,344.54584,82,110,0
344.41232,344.54584,79,110,0
344.54868,344.68222,84,110,0
344.54868,344.68222,80,110,0
344.68506,344.95493,85,110,0
344.68506,344.95493,82,110,0
344.95776,345.0913,80,110,0
344.95776,345.0913,77,110,0
345.09415,345.22766,82,110,0
345.09415,345.22766,79,110,0
345.2305,345.5004,84,110,0
345.2305,345.5004,80,110,0
345.50323,345.63675,75,110,0
345.50323,345.7731,72,110,0
345.6396,345.7731,77,110,0
345.77597,346.04584,79,110,0
345.77597,346.04584,71,110,0
346.18506,346.31857,74,110,0
346.18506,346.31857,71,110,0
346.3214,347.4095,83,120,0
346.3214,347.4095,79,120,0
347.27594,347.4095,74,120,0
347.27594,347.4095,71,120,0
347.41232,348.22766,83,120,0
347.41232,348.22766,79,120,0
348.2305,348.364,87,80,0
348.2305,348.5004,83,80,0
348.2305,348.5004,79,80,0
348.36685,348.5004,86,80,0
348.50323,348.63675,91,80,0
348.50323,348.7731,86,80,0
348.50323,348.7731,83,80,0
348.6396,348.7731,89,80,0
349.04868,349.1822,79,80,0
349.04868,349.31857,74,80,0
349.04868,349.31857,71,80,0
349.18503,349.31857,77,80,0
349.59415,349.72766,67,80,0
349.59415,349.864,62,80,0
349.59415,349.864,59,80,0
349.7305,349.864,65,80,0
350.1396,350.2731,79,80,0
350.1396,350.4095,74,80,0
350.1396,350.4095,71,80,0
350.27594,350.4095,77,80,0
350.68503,351.63675,87,120,0
350.68503,351.63675,84,120,0
350.68503,351.63675,79,120,0
351.77594,352.59128,87,120,0
351.77594,352.59128,84,120,0
351.6396,352.72766,75,120,0
351.6396,352.72766,79,120,0
352.59412,352.72766,79,80,0
352.59412,352.72766,89,80,0
352.59412,352.864,84,80,0
352.7305,352.864,87,80,0
352.86685,353.00037,92,80,0
352.86685,353.13675,87,80,0
352.86685,353.13675,84,80,0
353.00323,353.13675,91,80,0
353.41232,353.54584,80,80,0
353.41232,353.6822,75,80,0
353.41232,353.6822,72,80,0
353.54868,353.6822,79,80,0
353.95776,354.09128,68,80,0
353.95776,354.22766,63,80,0
353.95776,354.22766,60,80,0
354.09412,354.22766,67,80,0
354.5032,354.63675,80,80,0
354.5032,354.7731,75,80,0
354.5032,354.7731,72,80,0
354.6396,354.7731,79,80,0
355.04868,356.00037,89,120,0
355.04868,356.00037,86,120,0
355.04868,356.00037,77,120,0
356.0032,356.13675,77,120,0
356.0032,356.13675,74,120,0
356.54868,356.6822,77,120,0
356.1396,356.95493,89,120,0
356.1396,356.95493,86,120,0
356.68503,356.95493,82,120,0
356.95776,357.09128,91,80,0
356.95776,357.22766,86,80,0
356.95776,357.22766,82,80,0
357.09412,357.22766,89,80,0
357.2305,357.364,94,80,0
357.2305,357.50037,89,80,0
357.2305,357.50037,86,80,0
357.36685,357.50037,92,80,0
357.77594,357.90945,82,80,0
357.77594,358.04584,77,80,0
357.77594,358.04584,74,80,0
357.9123,358.04584,80,82,0
358.3214,358.45493,70,91,0
358.3214,358.59128,65,91,0
358.3214,358.59128,62,91,0
358.45776,358.59128,68,94,0
358.86685,359.00037,82,102,0
358.86685,359.13675,77,102,0
358.86685,359.13675,74,102,0
359.0032,359.13675,80,105,0
359.4123,360.50037,91,120,0
359.4123,360.50037,87,120,0
360.36685,360.50037,82,120,0
360.36685,360.50037,79,120,0
360.9123,361.04584,79,120,0
360.5032,361.31854,91,120,0
360.5032,361.31854,87,120,0
361.04868,361.31854,84,120,0
361.45776,361.59128,81,120,0
361.45776,361.59128,78,120,0
361.59412,362.6822,93,120,0
361.59412,362.6822,90,120,0
362.54868,362.6822,81,120,0
362.54868,362.6822,78,120,0
363.09412,363.22763,81,120,0
362.68503,363.63672,93,120,0
362.68503,363.63672,90,120,0
363.23047,363.63672,86,120,0
363.6396,363.7731,83,120,0
363.6396,363.7731,80,120,0
363.77594,364.864,95,120,0
363.77594,364.864,92,120,0
363.77594,364.864,89,120,0
363.77594,364.864,86,120,0
363.77594,364.864,83,120,0
364.73047,364.864,83,120,0
364.73047,364.864,80,120,0
364.86685,365.81854,95,120,0
364.86685,365.81854,92,120,0
364.86685,365.81854,89,120,0
364.86685,365.81854,86,120,0
364.86685,365.81854,83,120,0
365.82138,365.95493,85,120,0
365.82138,365.95493,83,120,0
365.82138,365.95493,79,120,0
365.82138,365.95493,76,120,0
365.95776,367.0458,97,120,0
365.95776,367.0458,91,120,0
365.95776,367.0458,88,120,0
365.95776,367.0458,94,120,0
366.9123,367.0458,85,120,0
366.9123,367.0458,82,120,0
366.9123,367.0458,79,120,0
366.9123,367.0458,76,120,0
367.04868,368.00037,91,120,0
367.04868,368.00037,88,120,0
367.04868,368.00037,97,120,0
367.04868,368.00037,94,120,0
368.0032,368.13672,86,120,0
368.0032,368.13672,81,120,0
368.0032,368.13672,78,120,0
368.13956,368.5458,98,120,0
368.13956,368.5458,93,120,0
368.13956,368.5458,90,120,0
368.13956,368.5458,86,120,0
368.54865,368.6822,86,120,0
368.68503,369.09128,98,120,0
369.09412,369.22763,74,120,0
369.23047,369.63672,86,119,0
369.63956,369.7731,74,114,0
369.77594,370.1822,86,112,0
370.18503,370.31854,74,107,0
370.32138,370.72763,86,105,0
370.73047,370.864,74,100,0
370.86685,371.29242,86,99,0
371.2954,371.4353,74,94,0
371.43826,371.89288,86,92,0
371.89615,372.05078,74,87,0
372.05405,372.57098,86,86,0
372.5749,372.75848,75,81,0
372.7624,373.87772,87,80,0
373.3351,373.87772,75,80,0
373.88058,374.4232,88,80,0
373.88058,374.96863,76,80,0
374.42603,374.96863,79,80,0
374.97147,375.5141,78,80,0
374.97147,376.05954,83,80,0
375.51694,376.05954,75,80,0
376.06238,376.605,79,80,0
376.06238,376.605,76,80,0
376.06238,376.605,71,80,0
376.60785,377.15045,76,80,0
376.60785,377.15045,71,80,0
377.1533,377.69592,74,80,0
377.69876,378.24136,75,80,0
378.2442,378.7868,78,80,0
378.78964,379.05954,76,80,0
379.06238,379.33228,73,80,0
379.3351,379.605,75,80,0
379.60785,379.87772,62,80,0
379.88055,380.4232,63,80,0
380.42603,380.96863,66,80,0
380.97147,381.24136,64,80,0
381.2442,381.5141,61,80,0
381.51694,381.65045,75,80,0
381.51694,381.65045,71,80,0
381.6533,381.7868,76,80,0
381.78964,381.9232,75,80,0
381.92603,382.05954,74,80,0
382.06238,382.1959,75,80,0
382.19873,382.33228,76,80,0
382.3351,382.46863,78,80,0
382.47147,382.60498,77,80,0
382.60785,382.74136,80,80,0
382.7442,382.87772,78,80,0
382.88055,383.0141,77,80,0
383.01694,383.15045,78,80,0
383.1533,383.2868,76,80,0
383.28964,383.4232,75,80,0
383.42603,383.55954,76,80,0
383.56238,383.6959,73,80,0
383.69873,383.83228,63,80,0
383.69873,383.96863,75,80,0
383.8351,383.96863,64,80,0
383.97147,384.10498,63,80,0
384.10782,384.24136,62,80,0
384.2442,384.37772,63,80,0
384.38055,384.51407,64,80,0
384.51694,384.65045,66,80,0
384.6533,384.7868,65,80,0
384.78964,384.9232,68,80,0
384.92603,385.05954,66,80,0
385.06238,385.1959,65,80,0
385.19873,385.33228,66,80,0
385.3351,385.46863,64,80,0
385.47147,385.60498,63,80,0
385.60782,385.74136,64,80,0
385.7442,385.87772,66,80,0
385.88055,386.15045,64,80,0
385.88055,386.15045,61,80,0
385.88055,386.15045,54,80,0
386.8351,386.96863,54,110,0
386.97147,387.37772,58,110,0
387.38055,387.51407,58,110,0
387.5169,387.7868,58,110,0
387.78964,387.92316,59,110,0
387.92603,388.05954,58,80,0
387.92603,388.05954,66,80,0
388.06238,388.46863,73,80,0
388.47147,388.60498,73,80,0
388.60782,388.87772,73,80,0
388.88055,389.01407,75,80,0
389.0169,389.15045,73,80,0
389.0169,389.15045,61,80,0
389.1533,389.42316,73,80,0
389.1533,389.55954,64,80,0
389.426,389.6959,70,80,0
389.56238,389.6959,64,80,0
389.69873,389.96863,64,80,0
389.97147,390.10498,66,80,0
390.10782,390.24136,64,80,0
390.2442,390.37772,64,80,0
390.38055,390.51407,61,80,0
391.19873,391.33224,66,80,0
391.3351,391.74133,76,80,0
391.7442,391.87772,76,80,0
391.7442,391.87772,64,80,0
391.88055,392.15045,76,80,0
391.88055,392.2868,73,80,0
392.28964,392.42316,73,80,0
392.426,392.6959,73,80,0
393.38055,393.51407,73,80,0
393.5169,393.92316,82,80,0
393.926,394.05954,82,80,0
394.06238,394.33224,82,80,0
394.47147,394.60498,70,80,0
394.60782,394.87772,70,80,0
395.0169,395.15042,52,80,0
395.1533,396.10498,61,80,0
396.10782,396.24133,55,80,0
396.24417,396.92316,64,80,0
396.926,397.05954,55,80,0
397.06238,397.46863,64,81,0
397.47147,397.60498,79,84,0
397.60782,398.01407,88,85,0
398.0169,398.15042,56,88,0
398.15326,398.5595,64,89,0
398.56238,398.6959,80,92,0
398.69873,399.10498,88,93,0
399.10782,399.24133,57,96,0
399.24417,399.65042,64,97,0
399.65326,399.7868,81,100,0
399.78964,400.1959,88,101,0
400.19873,400.33224,57,104,0
400.33508,400.74133,65,105,0
400.74417,400.87772,81,108,0
400.88055,401.15042,89,109,0
401.15326,401.5595,86,120,0
401.15326,401.5595,82,120,0
401.15326,401.5595,77,120,0
401.15326,401.5595,74,120,0
401.56235,401.6959,86,120,0
401.56235,401.6959,82,120,0
401.56235,401.6959,77,120,0
401.56235,401.6959,74,120,0
401.69873,401.9686,86,120,0
401.69873,401.9686,82,120,0
401.69873,401.9686,77,120,0
401.69873,401.9686,74,120,0
401.97147,402.10498,87,120,0
401.97147,402.10498,82,120,0
401.97147,402.10498,77,120,0
401.97147,402.10498,74,120,0
402.10782,402.24133,86,120,0
402.10782,402.24133,82,120,0
402.10782,402.24133,77,120,0
402.10782,402.24133,74,120,0
402.24417,402.51407,86,120,0
402.24417,402.51407,82,120,0
402.24417,402.51407,77,120,0
402.24417,402.51407,74,120,0
402.5169,402.7868,82,120,0
402.5169,402.7868,77,120,0
402.5169,402.7868,74,120,0
402.5169,402.7868,70,120,0
403.19873,403.33224,77,120,0
403.19873,403.33224,74,120,0
403.33508,403.74133,89,120,0
403.33508,403.74133,82,120,0
403.33508,403.74133,77,120,0
403.74417,403.8777,89,120,0
403.74417,403.8777,86,120,0
403.74417,403.8777,82,120,0
403.74417,403.8777,77,120,0
403.88055,404.15042,89,120,0
403.88055,404.15042,86,120,0
403.88055,404.15042,82,120,0
403.88055,404.15042,77,120,0
404.15326,404.2868,91,120,0
404.15326,404.2868,86,120,0
404.15326,404.2868,82,120,0
404.15326,404.2868,77,120,0
404.28964,404.42316,89,120,0
404.28964,404.42316,86,120,0
404.28964,404.42316,82,120,0
404.28964,404.42316,77,120,0
404.426,404.6959,89,120,0
404.426,404.6959,86,120,0
404.426,404.6959,82,120,0
404.426,404.6959,77,120,0
404.69873,404.9686,86,120,0
404.69873,404.9686,82,120,0
404.69873,404.9686,77,120,0
404.69873,404.9686,74,120,0
405.24417,405.3777,82,80,0
405.24417,405.3777,79,80,0
405.38055,405.51407,84,80,0
405.38055,405.51407,81,80,0
405.5169,406.0595,86,80,0
405.5169,406.0595,82,80,0
405.5169,406.0595,74,80,0
406.06235,406.33224,84,80,0
406.06235,406.33224,81,80,0
406.06235,406.33224,77,80,0
406.33508,406.4686,72,80,0
406.33508,406.4686,69,80,0
406.33508,406.60498,65,80,0
406.47144,406.60498,74,80,0
406.47144,406.60498,71,80,0
406.60782,407.15042,75,80,0
406.60782,407.15042,72,80,0
406.60782,407.15042,67,80,0
407.15326,407.42316,74,80,0
407.15326,407.42316,70,80,0
407.15326,407.42316,67,80,0
407.426,407.5595,74,80,0
407.56235,407.6959,75,80,0
407.426,407.9686,70,80,0
407.69873,408.10498,77,80,0
407.97144,408.24133,70,80,0
407.97144,408.24133,67,80,0
408.10782,408.24133,79,80,0
408.24417,408.38406,77,80,0
408.24417,408.52692,67,80,0
408.38702,408.67676,75,80,0
408.52988,408.82675,69,80,0
408.6799,408.82675,77,80,0
408.8299,408.99307,75,80,0
408.99655,409.15976,74,80,0
409.1632,409.37305,77,80,0
409.1632,409.37305,74,80,0
409.1632,409.37305,68,80,0
409.1632,409.37305,65,80,0
409.3775,409.67126,75,80,0
409.3775,409.67126,72,80,0
409.3775,409.67126,67,80,0
409.3775,409.67126,63,80,0
409.6775,411.77438,60,80,0
409.6775,411.77438,69,80,0
409.6775,411.77438,72,80,0
411.7775,411.92438,74,80,0
411.9275,412.07437,75,80,0
412.21387,412.34738,69,80,0
412.0775,412.48376,77,80,0
412.4866,412.62012,79,80,0
412.35022,412.75647,70,80,0
412.7593,412.89285,66,80,0
412.62296,413.0292,75,80,0
413.03204,413.16556,77,80,0
412.8957,413.30194,69,80,0
413.16843,413.30194,75,80,0
413.30478,413.4383,74,80,0
413.44113,413.57468,77,80,0
413.5775,413.71103,75,80,0
413.71387,413.98376,72,80,0
413.9866,414.12012,75,80,0
413.9866,414.12012,63,80,0
414.12296,414.25647,77,80,0
414.12296,414.25647,65,80,0
414.2593,414.39285,67,80,0
414.3957,414.5292,69,80,0
414.2593,414.66556,79,80,0
414.66843,414.80194,81,80,0
414.53204,414.9383,70,80,0
414.94113,415.07465,69,80,0
414.80478,415.21103,77,80,0
415.21387,415.34738,79,80,0
415.35022,415.48376,77,80,0
415.0775,415.62012,70,80,0
415.4866,415.62012,75,80,0
415.62296,415.75647,79,80,0
415.7593,415.89285,77,80,0
415.62296,416.16556,70,80,0
415.8957,416.16556,74,80,0
416.1684,416.30194,77,80,0
416.30478,416.4383,78,80,0
416.5775,416.71103,69,80,0
416.44113,416.84738,80,80,0
416.85022,416.98376,82,80,0
416.71387,417.25647,70,80,0
416.9866,417.25647,78,80,0
417.2593,417.39285,78,80,0
417.2593,417.39285,66,80,0
417.3957,417.5292,80,80,0
417.3957,417.5292,68,80,0
417.53204,417.66556,70,80,0
417.6684,417.80194,72,80,0
417.53204,417.9383,82,80,0
417.94113,418.07465,83,80,0
417.80478,418.21103,73,80,0
418.07748,418.34738,80,80,0
418.21387,418.34738,77,80,0
418.35022,418.48373,82,80,0
418.35022,418.48373,78,80,0
418.4866,418.62012,83,80,0
418.4866,418.62012,80,80,0
418.62296,418.89285,82,80,0
418.62296,419.0292,85,80,0
419.03204,419.16556,87,81,0
419.1684,419.30194,85,82,0
418.8957,419.4383,78,81,0
419.30478,419.57465,83,82,0
419.57748,419.71103,85,83,0
419.71387,419.84738,83,84,0
419.44113,419.98373,77,83,0
419.85022,420.12012,82,85,0
420.12296,420.25647,83,86,0
419.9866,420.39285,78,85,0
420.2593,420.39285,82,86,0
420.3957,420.5292,77,87,0
420.3957,420.5292,80,87,0
420.53204,420.66556,78,87,0
420.53204,420.66556,82,87,0
420.6684,420.80194,80,88,0
420.6684,420.80194,83,88,0
420.80478,420.9383,87,89,0
420.80478,420.9383,80,89,0
420.94113,421.07465,85,89,0
420.94113,421.07465,77,89,0
421.07748,421.21103,87,90,0
421.21387,421.34738,85,90,0
421.07748,421.48373,78,90,0
421.35022,421.48373,85,91,0
421.48657,421.62012,83,91,0
421.48657,421.62012,76,91,0
421.62296,421.75647,85,92,0
421.7593,421.89282,83,92,0
421.62296,422.0292,77,92,0
421.8957,422.0292,83,93,0
422.03204,422.16556,82,94,0
422.03204,422.16556,73,94,0
422.1684,422.30194,83,94,0
422.30478,422.4383,82,95,0
422.1684,422.57465,78,94,0
422.44113,422.57465,82,95,0
422.57748,422.71103,80,96,0
422.57748,422.71103,77,96,0
422.71387,422.84738,82,96,0
422.71387,422.84738,78,96,0
422.85022,422.98373,83,97,0
422.85022,422.98373,80,97,0
422.98657,423.12012,87,98,0
422.98657,423.12012,77,98,0
423.12296,423.25647,85,98,0
423.12296,423.25647,78,98,0
423.2593,423.39282,73,99,0
423.2593,423.5292,78,99,0
423.39566,423.5292,85,99,0
423.53204,423.66556,85,100,0
423.53204,423.66556,76,100,0
423.6684,423.8019,83,100,0
423.6684,423.8019,77,100,0
423.80478,423.9383,71,101,0
423.80478,424.07465,77,101,0
423.94113,424.07465,83,101,0
424.07748,424.21103,83,102,0
424.07748,424.21103,77,102,0
424.21387,424.34738,82,103,0
424.21387,424.34738,78,103,0
424.35022,424.48373,70,103,0
424.35022,424.62012,78,103,0
424.48657,424.62012,82,104,0
424.62296,424.75647,82,104,0
424.7593,424.89282,80,105,0
424.89566,425.0292,82,105,0
425.03204,425.16556,83,106,0
424.89566,425.3019,73,105,0
425.1684,425.3019,87,107,0
425.30478,425.4383,78,107,0
425.30478,425.57465,85,107,0
425.44113,425.71103,83,108,0
425.44113,425.71103,77,108,0
425.57748,425.84738,86,108,0
425.71387,425.98373,82,109,0
425.71387,425.98373,78,109,0
425.85022,425.98373,87,109,0
425.98657,426.12012,88,110,0
425.98657,426.25647,82,110,0
425.98657,426.25647,77,110,0
426.12296,426.25647,89,110,0
426.2593,426.39282,92,110,0
426.2593,426.5292,82,110,0
426.2593,426.5292,78,110,0
426.39566,426.5292,90,110,0
426.53204,426.66556,89,110,0
426.53204,426.8019,82,110,0
426.53204,426.8019,78,110,0
426.6684,426.8019,87,110,0
426.80475,427.07465,85,110,0
426.80475,427.07465,80,110,0
426.80475,427.07465,77,110,0
427.07748,427.34738,89,110,0
427.07748,427.34738,80,110,0
427.07748,427.34738,77,110,0
427.35022,427.89282,90,110,0
427.35022,427.89282,85,110,0
427.35022,427.89282,82,110,0
427.35022,427.89282,78,110,0
427.89566,428.4383,66,110,0
427.89566,428.4383,61,110,0
427.89566,428.4383,58,110,0
428.44113,428.711,70,80,0
428.44113,428.711,66,80,0
428.44113,428.711,61,80,0
428.71387,428.98373,66,80,0
428.71387,428.98373,61,80,0
428.71387,428.98373,58,80,0
428.98657,429.25647,70,80,0
428.98657,429.25647,66,80,0
428.98657,429.25647,61,80,0
429.2593,429.5292,68,80,0
429.2593,429.5292,65,80,0
429.2593,429.5292,62,80,0
429.2593,429.5292,59,80,0
429.53204,430.07465,92,110,0
429.53204,430.07465,89,110,0
429.53204,430.07465,86,110,0
429.53204,430.07465,83,110,0
429.53204,430.07465,80,110,0
430.07748,430.6201,68,110,0
430.07748,430.6201,65,110,0
430.07748,430.6201,62,110,0
430.07748,430.6201,59,110,0
430.62296,430.89282,71,80,0
430.62296,430.89282,68,80,0
430.62296,430.89282,65,80,0
430.62296,430.89282,62,80,0
430.89566,431.16556,68,80,0
430.89566,431.16556,65,80,0
430.89566,431.16556,62,80,0
430.89566,431.16556,59,80,0
431.1684,431.4383,71,80,0
431.1684,431.4383,68,80,0
431.1684,431.4383,65,80,0
431.1684,431.4383,62,80,0
431.44113,431.711,70,80,0
431.44113,431.711,67,80,0
431.44113,431.711,64,80,0
431.44113,431.711,61,80,0
431.71384,432.25647,94,110,0
431.71384,432.25647,88,110,0
431.71384,432.25647,85,110,0
431.71384,432.25647,82,110,0
432.2593,432.8019,70,110,0
432.2593,432.8019,67,110,0
432.2593,432.8019,64,110,0
432.2593,432.8019,61,110,0
432.80475,433.07465,73,80,0
432.80475,433.07465,70,80,0
432.80475,433.07465,67,80,0
432.80475,433.07465,64,80,0
433.07748,433.34738,70,80,0
433.07748,433.34738,67,80,0
433.07748,433.34738,64,80,0
433.07748,433.34738,61,80,0
433.35022,433.6201,73,80,0
433.35022,433.6201,70,80,0
433.35022,433.6201,67,80,0
433.35022,433.6201,64,80,0
433.62292,433.89282,71,80,0
433.62292,433.89282,66,80,0
433.62292,433.89282,62,80,0
433.89566,434.43826,95,110,0
433.89566,434.43826,90,110,0
433.89566,434.43826,86,110,0
433.89566,434.43826,83,110,0
434.44113,434.98373,71,110,0
434.44113,434.98373,66,110,0
434.44113,434.98373,62,110,0
434.98657,435.25647,74,80,0
434.98657,435.25647,71,80,0
434.98657,435.25647,68,80,0
434.98657,435.25647,65,80,0
435.2593,435.52917,71,80,0
435.2593,435.52917,68,80,0
435.2593,435.52917,65,80,0
435.2593,435.52917,62,80,0
435.532,435.8019,74,80,0
435.532,435.8019,71,80,0
435.532,435.8019,68,80,0
435.532,435.8019,65,80,0
435.80475,436.07465,73,83,0
435.80475,436.07465,70,83,0
435.80475,436.07465,67,83,0
435.80475,436.07465,64,83,0
436.07748,436.34738,76,86,0
436.07748,436.34738,70,86,0
436.07748,436.34738,67,86,0
436.07748,436.34738,73,86,0
436.35022,436.6201,73,89,0
436.35022,436.6201,70,89,0
436.35022,436.6201,67,89,0
436.35022,436.6201,64,89,0
436.62292,436.89282,76,93,0
436.62292,436.89282,73,93,0
436.62292,436.89282,70,93,0
436.62292,436.89282,67,93,0
436.89566,437.16556,74,96,0
436.89566,437.16556,71,96,0
436.89566,437.16556,66,96,0
437.1684,437.43826,78,99,0
437.1684,437.43826,74,99,0
437.1684,437.43826,71,99,0
437.1684,437.43826,66,99,0
437.4411,437.711,74,102,0
437.4411,437.711,71,102,0
437.4411,437.711,66,102,0
437.71384,437.98373,78,106,0
437.71384,437.98373,74,106,0
437.71384,437.98373,71,106,0
437.71384,437.98373,66,106,0
437.98657,438.25647,77,109,0
437.98657,438.25647,73,109,0
437.98657,438.25647,71,109,0
437.98657,438.25647,68,109,0
438.2593,438.52917,92,110,0
438.2593,438.52917,80,110,0
438.532,438.8019,90,110,0
438.532,438.8019,78,110,0
438.80475,439.07465,87,110,0
438.80475,439.07465,75,110,0
439.07748,439.34735,85,110,0
439.07748,439.34735,73,110,0
439.35022,439.6201,83,110,0
439.35022,439.6201,71,110,0
439.62292,439.89282,82,110,0
439.62292,439.89282,70,110,0
439.89566,440.16556,80,110,0
439.89566,440.16556,68,110,0
440.1684,440.43826,78,110,0
440.1684,440.43826,66,110,0
440.4411,440.711,75,110,0
440.4411,440.711,63,110,0
440.71384,440.98373,73,110,0
440.71384,440.98373,61,110,0
440.98657,441.25644,71,110,0
440.98657,441.25644,59,110,0
441.2593,441.52917,70,110,0
441.2593,441.52917,58,110,0
441.532,441.8019,68,110,0
441.532,441.8019,56,110,0
441.80475,442.07465,66,110,0
441.80475,442.07465,54,110,0
442.07748,442.34735,63,110,0
442.07748,442.34735,51,110,0
442.3502,442.6201,61,110,0
442.3502,442.6201,49,110,0
442.62292,443.16553,65,110,0
442.89566,443.43826,61,108,0
443.1684,443.711,68,106,0
443.4411,443.99658,61,103,0
443.71384,444.2823,73,101,0
443.99954,444.568,61,98,0
444.28528,444.85373,77,96,0
444.57098,445.15356,61,93,0
444.8567,445.45358,80,91,0
445.1567,445.78656,61,88,0
445.4567,446.11987,85,86,0
445.79004,446.49445,61,83,0
446.12335,446.86945,85,81,0
446.49835,447.29745,61,78,0
446.87335,448.5832,85,76,0
449.7662,449.9131,86,120,0
449.7662,449.9131,83,120,0
449.7662,449.9131,78,120,0
449.7662,449.9131,74,120,0
449.91623,450.2131,86,120,0
449.91623,450.2131,83,120,0
449.91623,450.2131,78,120,0
449.91623,450.2131,74,120,0
450.21622,450.3631,88,120,0
450.21622,450.3631,78,120,0
450.21622,450.3631,74,120,0
450.21622,450.3631,83,120,0
450.3662,450.5131,86,120,0
450.3662,450.5131,83,120,0
450.3662,450.5131,78,120,0
450.3662,450.5131,74,120,0
450.5162,450.84607,86,120,0
450.5162,450.84607,83,120,0
450.5162,450.84607,78,120,0
450.5162,450.84607,74,120,0
450.84955,452.51273,71,120,0
450.84955,452.51273,74,120,0
450.84955,452.51273,78,120,0
450.84955,452.51273,83,120,0
453.4556,453.7255,86,80,0
453.4556,453.7255,83,80,0
453.4556,453.7255,78,80,0
453.4556,453.7255,74,80,0
454.00107,454.27094,86,80,0
454.00107,454.27094,83,80,0
454.00107,454.27094,78,80,0
454.00107,454.27094,74,80,0
454.5465,454.8164,86,80,0
454.5465,454.8164,83,80,0
454.5465,454.8164,78,80,0
454.5465,454.8164,74,80,0
455.09198,455.36185,86,80,0
455.09198,455.36185,83,80,0
455.09198,455.36185,78,80,0
455.09198,455.36185,74,80,0
455.63742,455.90732,86,80,0
455.63742,455.90732,83,80,0
455.63742,455.90732,78,80,0
455.63742,455.90732,74,80,0
456.18286,456.45276,86,80,0
456.18286,456.45276,83,80,0
456.18286,456.45276,78,80,0
456.18286,456.45276,74,80,0
456.72833,456.99823,87,81,0
456.72833,456.99823,79,81,0
456.72833,456.99823,75,81,0
456.72833,456.99823,84,81,0
457.27377,457.54367,87,85,0
457.27377,457.54367,84,85,0
457.27377,457.54367,79,85,0
457.27377,457.54367,75,85,0
457.81924,458.0891,87,88,0
457.81924,458.0891,84,88,0
457.81924,458.0891,79,88,0
457.81924,458.0891,75,88,0
458.3647,458.63458,87,92,0
458.3647,458.63458,84,92,0
458.3647,458.63458,79,92,0
458.3647,458.63458,75,92,0
458.91016,459.18002,87,95,0
458.91016,459.18002,84,95,0
458.91016,459.18002,79,95,0
458.91016,459.18002,75,95,0
459.4556,459.7255,87,98,0
459.4556,459.7255,84,98,0
459.4556,459.7255,79,98,0
459.4556,459.7255,75,98,0
460.00107,460.27094,87,102,0
460.00107,460.27094,84,102,0
460.00107,460.27094,79,102,0
460.00107,460.27094,75,102,0
460.5465,460.8164,93,105,0
460.5465,460.8164,87,105,0
460.5465,460.8164,84,105,0
460.5465,460.8164,81,105,0
461.09195,461.36185,96,109,0
461.09195,461.36185,93,109,0
461.09195,461.36185,87,109,0
461.09195,461.36185,84,109,0
461.63742,461.9073,99,110,0
461.63742,461.9073,96,110,0
461.63742,461.9073,93,110,0
461.63742,461.9073,87,110,0
461.91016,462.18002,99,110,0
461.91016,462.18002,96,110,0
461.91016,462.18002,93,110,0
461.91016,462.18002,87,110,0
462.18286,462.3164,87,80,0
462.18286,462.3164,84,80,0
462.31924,462.45276,86,80,0
462.31924,462.45276,83,80,0
462.4556,462.7255,87,80,0
462.4556,462.7255,84,80,0
462.71127,462.8448,69,80,0
462.72833,462.86185,72,80,0
462.8647,462.9982,73,80,0
462.8647,462.9982,70,80,0
463.00104,463.27094,72,80,0
463.00104,463.27094,69,80,0
463.27377,463.4073,75,80,0
463.27377,463.4073,72,80,0
463.41013,463.54367,74,80,0
463.41013,463.54367,71,80,0
463.5465,463.81638,75,80,0
463.5465,463.81638,72,80,0
463.81924,463.95276,81,80,0
463.9556,464.0891,84,80,0
464.09195,464.2255,87,80,0
464.22833,464.36185,89,80,0
464.3647,464.4982,87,80,0
464.50104,464.63458,86,80,0
464.63742,464.77094,87,80,0
464.77377,464.9073,89,80,0
464.91013,465.04367,91,80,0
465.0465,465.18002,87,80,0
465.18286,465.31638,84,80,0
465.31924,465.45276,86,80,0
465.4556,465.5891,87,80,0
465.59195,465.72546,84,80,0
465.72833,465.86185,81,80,0
465.8647,465.9982,82,80,0
466.00104,466.13458,84,80,0
466.13742,466.27094,81,80,0
466.27377,466.4073,75,80,0
466.41013,466.54367,77,80,0
466.5465,466.68002,79,80,0
466.68286,466.81638,75,80,0
466.8192,466.95276,72,80,0
466.9556,467.0891,74,80,0
467.09195,467.22546,75,80,0
467.22833,467.36185,72,80,0
467.3647,467.4982,69,80,0
467.50104,467.63458,70,80,0
467.63742,467.77094,72,80,0
467.77377,467.9073,69,80,0
467.91013,468.18002,65,80,0
467.91013,468.18002,63,80,0
467.91013,468.18002,60,80,0
468.4556,468.5891,86,80,0
468.59195,468.72546,87,80,0
468.7283,468.86185,86,80,0
468.8647,468.9982,84,80,0
469.00104,469.13455,86,80,0
469.13742,469.27094,87,80,0
469.27377,469.4073,89,80,0
469.41013,469.54367,86,80,0
469.5465,469.68002,82,80,0
469.68286,469.81638,84,80,0
469.8192,469.95276,86,80,0
469.9556,470.0891,82,80,0
470.09195,470.22546,77,80,0
470.2283,470.36185,81,80,0
470.3647,470.4982,82,80,0
470.50104,470.63455,77,80,0
470.63742,470.77094,74,80,0
470.77377,470.9073,75,80,0
470.91013,471.04367,77,80,0
471.0465,471.18002,74,80,0
471.18286,471.31638,70,80,0
471.3192,471.45276,72,80,0
471.4556,471.5891,74,80,0
471.59195,471.72546,70,80,0
471.7283,471.86185,65,80,0
471.8647,471.9982,69,80,0
472.00104,472.13455,70,80,0
472.1374,472.27094,62,80,0
472.27377,472.4073,70,80,0
472.41013,472.54364,72,80,0
472.5465,472.68002,74,80,0
472.68286,472.81638,70,80,0
472.8192,473.0891,72,80,0
472.8192,473.0891,69,80,0
472.8192,473.0891,65,80,0
473.09195,473.22546,91,80,0
473.2283,473.36185,89,80,0
473.3647,473.4982,91,80,0
473.50104,473.63455,89,80,0
473.6374,473.77094,87,80,0
473.77377,473.9073,91,80,0
473.91013,474.04364,87,80,0
474.04648,474.18002,86,80,0
474.18286,474.31638,84,80,0
474.3192,474.45273,87,80,0
474.4556,474.5891,84,80,0
474.59195,474.72546,82,80,0
474.7283,474.86185,81,80,0
474.8647,474.9982,84,80,0
475.00104,475.13455,78,80,0
475.1374,475.27094,77,80,0
475.27377,475.4073,75,80,0
475.41013,475.54364,78,80,0
475.54648,475.68002,75,80,0
475.68286,475.81638,74,80,0
475.8192,475.95273,72,80,0
475.9556,476.0891,75,80,0
476.09195,476.22546,72,80,0
476.2283,476.36185,70,80,0
476.3647,476.4982,69,80,0
476.50104,476.63455,72,80,0
476.6374,476.77094,63,80,0
476.77377,476.9073,62,80,0
476.91013,477.04364,60,80,0
477.04648,477.18002,63,80,0
477.18286,477.45273,70,80,0
477.18286,477.45273,65,80,0
477.45557,477.5891,89,80,0
477.59195,477.72546,87,80,0
477.7283,477.86182,89,80,0
477.8647,477.9982,87,80,0
478.00104,478.13455,86,80,0
478.1374,478.27094,89,80,0
478.27377,478.4073,86,80,0
478.41013,478.54364,84,80,0
478.54648,478.68002,82,80,0
478.68286,478.81638,86,80,0
478.8192,478.95273,77,80,0
478.95557,479.0891,75,80,0
479.09195,479.22546,74,80,0
479.2283,479.36182,77,80,0
479.3647,479.4982,82,80,0
479.50104,479.63455,79,80,0
479.6374,479.7709,77,80,0
479.77377,479.9073,82,80,0
479.91013,480.04364,77,80,0
480.04648,480.18002,75,80,0
480.18286,480.31638,74,80,0
480.3192,480.45273,77,80,0
480.45557,480.5891,86,80,0
480.59195,480.72546,84,80,0
480.7283,480.86182,82,80,0
480.45557,480.9982,74,80,0
480.86465,480.9982,86,80,0
481.00104,481.1409,87,80,0
481.1439,481.28378,84,80,0
481.28674,481.43362,86,80,0
481.00104,481.58362,78,80,0
481.43674,481.58362,87,80,0
481.58673,481.8836,86,80,0
481.58673,481.8836,74,80,0
482.97766,483.24753,72,80,0
482.97766,483.24753,69,80,0
483.25037,483.52026,74,80,0
483.25037,483.52026,70,80,0
483.5231,483.65662,94,80,0
483.6595,483.793,93,80,0
483.79584,484.06573,94,80,0
484.06857,484.33844,91,80,0
484.06857,484.33844,82,80,0
484.06857,484.33844,79,80,0
484.34128,484.62402,89,80,0
484.34128,484.62402,81,80,0
484.34128,484.62402,77,80,0
484.627,484.90973,88,80,0
484.627,484.90973,79,80,0
484.627,484.90973,76,80,0
484.91272,485.2096,91,80,0
484.91272,485.2096,82,80,0
484.91272,485.2096,79,80,0
485.2127,485.54257,89,80,0
485.2127,485.54257,77,80,0
485.2127,485.54257,81,80,0
485.54605,485.87592,89,80,0
485.54605,485.87592,81,80,0
485.8794,486.02625,77,80,0
485.8794,486.02625,70,80,0
486.0294,486.17627,75,80,0
486.0294,486.17627,72,80,0
486.17938,486.44928,74,80,0
486.45212,486.722,86,80,0
486.45212,486.85837,70,80,0
486.72482,486.85837,79,80,0
486.99756,487.13107,87,80,0
486.99756,487.13107,75,80,0
487.13394,487.26746,84,80,0
487.13394,487.26746,79,80,0
487.2703,487.5402,81,80,0
487.54303,487.8129,89,80,0
487.54303,487.94928,77,80,0
487.81573,487.94928,86,80,0
488.08847,488.222,82,80,0
488.22482,488.35837,81,80,0
488.3612,488.64395,82,80,0
488.6469,488.9438,91,80,0
488.6469,488.9438,79,80,0
488.9469,489.27676,87,80,0
488.9469,489.27676,79,80,0
488.9469,489.27676,75,80,0
489.28024,489.6101,86,80,0
489.28024,489.6101,81,80,0
489.28024,489.6101,74,80,0
489.6136,489.91046,74,80,0
489.91357,490.0471,84,80,0
490.04996,490.18347,82,80,0
489.6136,490.4562,86,80,0
490.1863,490.4562,82,80,0
490.45905,490.7289,91,80,0
490.45905,490.7289,85,80,0
490.45905,491.00165,82,80,0
491.0045,491.138,82,80,0
491.14084,491.27438,80,80,0
490.73175,491.5471,84,80,0
491.27722,491.5471,80,80,0
491.54993,491.81982,83,80,0
491.54993,491.81982,89,80,0
491.54993,492.09256,80,80,0
492.0954,492.2289,80,80,0
492.23175,492.3653,79,80,0
491.82266,492.638,82,80,0
492.36813,492.638,79,80,0
492.64084,492.91074,82,80,0
492.64084,492.91074,88,80,0
492.64084,493.18347,79,80,0
493.1863,493.31982,79,80,0
493.32266,493.45618,77,80,0
492.91357,493.7289,81,80,0
493.459,493.7289,77,80,0
493.73175,494.00165,80,80,0
493.73175,494.00165,86,80,0
494.0045,494.138,80,80,0
493.73175,494.27438,77,80,0
494.14084,494.41074,79,80,0
494.27722,494.5471,75,80,0
494.41357,494.5471,84,80,0
494.54993,494.68982,78,80,0
494.54993,494.83267,75,80,0
494.6928,494.9825,77,80,0
494.83566,495.13254,74,80,0
494.98566,495.13254,82,80,0
495.13565,495.28253,77,80,0
495.28564,495.43253,89,81,0
495.43564,495.56918,88,82,0
495.57202,495.70554,87,84,0
495.70837,495.8419,84,85,0
495.84476,495.97827,81,86,0
495.9811,496.11462,78,88,0
496.11746,496.251,77,89,0
496.25385,496.38736,76,90,0
496.3902,496.5237,75,92,0
496.52655,496.6601,72,93,0
496.66293,496.79645,69,94,0
496.7993,496.9328,66,80,0
496.7993,497.06918,70,80,0
496.93564,497.06918,65,80,0
497.07202,497.20554,79,80,0
497.07202,497.3419,70,80,0
497.20837,497.3419,77,80,0
497.34473,497.47827,77,80,0
497.4811,497.61462,89,81,0
497.61746,497.75098,88,82,0
497.75385,497.88736,87,84,0
497.8902,498.0237,84,85,0
498.02655,498.1601,81,86,0
498.16293,498.29645,78,88,0
498.2993,498.4328,77,89,0
498.43564,498.56918,76,90,0
498.57202,498.70554,75,92,0
498.70837,498.8419,72,93,0
498.84473,498.97827,69,94,0
498.9811,499.11462,66,80,0
498.9811,499.25098,70,80,0
499.11746,499.25098,65,80,0
499.25385,499.38736,79,80,0
499.25385,499.5237,70,80,0
499.3902,499.5237,77,80,0
499.52655,499.66006,77,80,0
499.66293,499.79645,82,80,0
499.66293,499.79645,74,80,0
499.7993,499.9328,86,80,0
499.7993,499.9328,77,80,0
499.93564,500.06918,84,80,0
499.93564,500.06918,75,80,0
500.07202,500.20554,74,80,0
500.20837,500.3419,78,80,0
500.34473,500.47827,79,80,0
500.4811,500.61462,74,80,0
500.61746,500.75098,73,80,0
500.7538,500.88736,78,80,0
500.8902,501.0237,79,80,0
500.07202,501.16006,82,80,0
501.02655,501.16006,74,80,0
501.16293,501.29645,72,80,0
501.16293,501.4328,81,80,0
501.2993,501.4328,76,80,0
501.43564,501.70554,77,80,0
501.57202,501.70554,89,80,0
501.70837,501.8419,89,80,0
501.84473,501.97827,101,81,0
501.9811,502.11462,100,82,0
502.11746,502.25098,99,84,0
502.2538,502.38736,96,85,0
502.3902,502.5237,93,86,0
502.52655,502.66006,90,88,0
502.6629,502.79645,89,89,0
502.7993,502.9328,88,90,0
502.93564,503.06915,87,92,0
503.07202,503.20554,84,93,0
503.20837,503.3419,81,94,0
503.34473,503.47827,78,80,0
503.34473,503.61462,82,80,0
503.4811,503.61462,77,80,0
503.61746,503.75098,91,80,0
503.61746,503.88736,82,80,0
503.7538,503.88736,89,80,0
503.8902,504.0237,77,80,0
504.02655,504.16006,89,81,0
504.1629,504.29645,88,82,0
504.2993,504.4328,87,84,0
504.43564,504.56915,84,85,0
504.57202,504.70554,81,86,0
504.70837,504.8419,78,88,0
504.84473,504.97824,77,89,0
504.9811,505.11462,76,90,0
505.11746,505.25098,75,92,0
505.2538,505.38736,72,93,0
505.3902,505.5237,69,94,0
505.52655,505.66006,66,80,0
505.52655,505.79645,70,80,0
505.6629,505.79645,65,80,0
505.7993,505.9328,79,80,0
505.7993,506.06915,70,80,0
505.93564,506.06915,77,80,0
506.072,506.20554,77,80,0
506.20837,506.3419,82,80,0
506.20837,506.3419,74,80,0
506.34473,506.47824,86,80,0
506.34473,506.47824,77,80,0
506.4811,506.61462,84,80,0
506.4811,506.61462,75,80,0
506.61746,506.75098,74,80,0
506.7538,506.88736,78,80,0
506.8902,507.0237,79,80,0
507.02655,507.16006,74,80,0
507.1629,507.29645,73,80,0
507.2993,507.4328,78,80,0
507.43564,507.56915,79,80,0
506.61746,507.70554,82,80,0
507.572,507.70554,73,80,0
507.70837,507.8419,72,80,0
507.70837,507.97824,81,80,0
507.84473,507.97824,77,80,0
507.98108,508.11462,70,80,0
507.98108,508.25098,82,80,0
508.11746,508.25098,75,80,0
508.2538,508.38733,82,80,0
508.3902,508.5237,87,80,0
508.3902,508.5237,79,80,0
508.52655,508.66006,91,81,0
508.52655,508.66006,82,81,0
508.6629,508.79645,89,82,0
508.6629,508.79645,80,82,0
508.7993,508.9328,79,83,0
508.93564,509.06915,83,84,0
509.072,509.20554,84,85,0
509.20837,509.3419,79,86,0
509.34473,509.47824,78,87,0
509.48108,509.61462,83,88,0
509.61746,509.75098,84,89,0
508.7993,509.88733,87,83,0
509.7538,509.88733,78,90,0
509.8902,510.0237,77,91,0
509.8902,510.16006,86,91,0
510.02655,510.16006,82,92,0
510.1629,510.29645,75,93,0
510.1629,510.4328,87,93,0
510.2993,510.4328,80,94,0
510.43564,510.70554,87,95,0
510.572,510.70554,84,96,0
510.70837,510.8419,87,97,0
510.70837,510.97824,92,97,0
510.84473,510.97824,85,98,0
510.98108,511.11462,85,99,0
511.11746,511.25098,83,100,0
511.2538,511.38733,82,101,0
511.39017,511.5237,83,102,0
511.52655,511.66006,83,103,0
511.6629,511.79642,88,104,0
511.7993,511.9328,89,105,0
510.98108,512.06915,92,99,0
511.93564,512.06915,83,106,0
512.072,512.2055,82,107,0
512.2084,512.34186,86,108,0
512.3447,512.4783,87,109,0
512.4811,512.6146,82,110,0
512.072,512.8873,91,107,0
512.61743,512.8873,79,110,0
512.8902,513.1601,91,120,0
512.8902,513.1601,87,120,0
512.8902,513.1601,82,120,0
512.8902,513.1601,79,120,0
513.1629,513.4328,89,120,0
513.1629,513.4328,86,120,0
513.4356,513.56915,91,120,0
513.4356,513.56915,87,120,0
513.572,513.7055,92,120,0
513.572,513.7055,89,120,0
513.7084,513.9783,94,120,0
513.7084,513.9783,91,120,0
513.9811,514.251,87,120,0
513.9811,514.251,91,120,0
515.072,515.34186,91,120,0
515.072,515.34186,87,120,0
515.072,515.34186,82,120,0
515.072,515.34186,79,120,0
515.3447,515.6146,89,120,0
515.3447,515.6146,86,120,0
515.61743,515.751,91,120,0
515.61743,515.751,87,120,0
515.7538,515.8873,92,120,0
515.7538,515.8873,89,120,0
515.8902,516.16003,94,120,0
515.8902,516.16003,91,120,0
516.1629,516.4328,82,120,0
516.1629,516.4328,79,120,0
516.1629,516.4328,72,120,0
516.1629,516.4328,70,120,0
516.7084,516.9783,82,120,0
516.7084,516.9783,79,120,0
516.7084,516.9783,76,120,0
516.7084,516.9783,70,120,0
517.2538,517.5237,82,120,0
517.2538,517.5237,77,120,0
517.2538,517.5237,74,120,0
517.2538,517.5237,70,120,0
517.79926,518.06915,82,120,0
517.79926,518.06915,76,120,0
517.79926,518.06915,72,120,0
517.79926,518.06915,70,120,0
518.072,518.6146,82,120,0
518.072,518.6146,77,120,0
518.072,518.6146,74,120,0
518.072,518.6146,70,120,0
518.61743,519.4328,74,113,0
518.61743,519.4328,77,113,0
519.4356,519.56915,74,102,0
519.7084,519.84186,77,100,0
519.8447,519.9783,81,100,0
519.9811,520.1146,82,101,0
520.11743,520.251,86,102,0
520.2538,520.3873,88,102,0
520.3902,520.5237,89,103,0
520.52655,520.66003,91,104,0
520.6629,520.79645,89,104,0
520.79926,520.9328,93,105,0
520.9356,521.06915,94,106,0
521.07196,521.2055,96,106,0
521.2084,521.34186,94,107,0
521.3447,521.4782,97,108,0
521.4811,521.6146,98,108,0
521.61743,521.751,99,109,0
521.7538,521.8873,98,110,0
521.8902,522.16003,101,110,0
522.1629,522.4328,75,80,0
522.1629,522.4328,72,80,0
522.4356,523.5237,74,80,0
522.9811,523.5237,86,80,0
523.52655,524.06915,75,80,0
523.52655,524.06915,87,80,0
524.07196,524.6146,78,80,0
524.07196,524.6146,90,80,0
524.61743,525.7055,82,80,0
525.1629,525.7055,77,80,0
525.1629,525.7055,74,80,0
525.7084,525.9782,82,80,0
525.7084,526.251,78,80,0
525.9811,526.251,90,80,0
526.2538,526.7964,75,80,0
526.2538,526.7964,87,80,0
526.79926,527.34186,85,80,0
526.79926,527.34186,73,80,0
527.3447,527.8873,86,80,0
527.3447,527.8873,74,80,0
527.89014,528.4328,89,80,0
527.89014,528.4328,77,80,0
528.4356,528.84186,75,80,0
528.4413,528.84753,87,80,0
528.8447,528.9782,84,80,0
528.8447,528.9782,72,80,0
528.9811,529.1146,82,80,0
529.04926,529.1828,84,80,0
529.11743,529.251,82,80,0
529.1856,529.31915,84,80,0
529.2538,529.3873,82,81,0
529.32196,529.4555,84,81,0
529.39014,529.5237,82,81,0
529.4584,529.59186,84,82,0
529.52655,529.66003,82,82,0
529.5947,529.7282,84,82,0
529.6629,529.7964,82,83,0
529.7311,529.8646,84,83,0
529.79926,529.9328,82,83,0
529.86743,530.001,84,84,0
528.9811,530.06915,74,80,0
528.9811,530.06915,86,80,0
529.9356,530.06915,82,84,0
530.0038,530.1373,84,84,0
530.07196,530.2055,82,85,0
530.14014,530.2737,84,85,0
530.2084,530.34186,82,85,0
530.27655,530.41003,84,86,0
530.3447,530.4782,82,86,0
530.4129,530.5464,84,86,0
530.07196,530.6146,75,85,0
530.07196,530.6146,87,85,0
530.4811,530.6146,82,87,0
530.54926,530.6828,84,87,0
530.61743,530.751,82,87,0
530.6856,530.81915,84,88,0
530.7538,530.8873,82,88,0
530.82196,530.9555,84,88,0
530.89014,531.0237,82,89,0
530.9584,531.09186,84,89,0
530.61743,531.16003,79,87,0
530.61743,531.16003,91,87,0
531.02655,531.16003,82,89,0
531.0947,531.2282,84,90,0
531.1629,531.2964,82,90,0
531.2311,531.36456,84,90,0
531.29926,531.4328,82,91,0
531.36743,531.501,84,91,0
531.4356,531.56915,82,91,0
531.5038,531.6373,84,92,0
531.57196,531.7055,82,92,0
531.64014,531.7737,84,92,0
531.7083,531.84186,82,93,0
531.77655,531.91003,84,93,0
531.8447,531.9782,82,93,0
531.9129,532.0464,84,94,0
531.9811,532.11456,82,94,0
532.04926,532.1828,84,94,0
531.1629,532.251,94,90,0
532.11743,532.251,82,95,0
532.1856,532.31915,84,95,0
532.2538,532.3873,82,95,0
532.32196,532.4555,84,95,0
532.39014,532.5237,82,96,0
532.4583,532.59186,84,96,0
532.52655,532.66003,82,96,0
532.5947,532.7282,84,97,0
532.2538,532.7964,91,95,0
532.2538,532.7964,79,95,0
532.6629,532.7964,82,97,0
532.7311,532.86456,84,97,0
532.79926,532.9328,82,98,0
532.86743,533.001,84,98,0
532.9356,533.06915,82,98,0
533.0038,533.1373,84,99,0
533.07196,533.2055,82,99,0
533.14014,533.2737,84,99,0
532.79926,533.34186,75,98,0
532.79926,533.34186,87,98,0
533.2083,533.34186,82,100,0
533.27655,533.41003,84,100,0
533.3447,533.4782,82,100,0
533.4129,533.5464,84,101,0
533.3447,533.61456,73,100,0
533.3447,533.61456,85,100,0
533.4811,533.61456,82,101,0
533.54926,533.6828,84,101,0
533.61743,533.751,82,102,0
533.6856,533.81915,84,102,0
533.7538,533.8873,82,102,0
533.82196,533.9555,84,103,0
533.89014,534.0237,82,103,0
533.9583,534.09186,84,103,0
533.61743,534.16003,74,102,0
533.61743,534.16003,86,102,0
534.02655,534.16003,82,104,0
534.0947,534.2282,84,104,0
534.1629,534.2964,82,104,0
534.2311,534.36456,84,105,0
534.1629,534.4328,77,104,0
534.1629,534.4328,89,104,0
534.29926,534.4328,82,105,0
534.36743,534.501,84,105,0
534.4356,534.56915,81,106,0
534.5038,534.6373,82,106,0
534.57196,534.7055,81,106,0
534.64014,534.7737,82,107,0
534.7083,534.84186,81,107,0
534.77655,534.91003,82,107,0
534.8447,534.9782,81,108,0
534.9129,535.0464,82,108,0
534.4356,535.11456,89,106,0
534.9811,535.11456,81,108,0
535.04926,535.1828,82,109,0
535.11743,535.251,81,109,0
535.11743,535.251,87,109,0
535.1856,535.31915,82,109,0
535.2538,535.3873,81,110,0
535.2538,535.3873,84,110,0
535.32196,535.4555,82,110,0
535.39014,535.5237,81,110,0
535.39014,535.5237,89,110,0
535.4583,535.5237,82,110,0
535.52655,535.7964,89,120,0
535.52655,535.7964,86,120,0
535.52655,535.7964,80,120,0
535.52655,535.7964,77,120,0
535.79926,536.34186,98,120,0
535.79926,536.34186,92,120,0
535.79926,536.34186,89,120,0
535.79926,536.34186,101,120,0
536.3447,536.61456,99,120,0
536.3447,536.61456,92,120,0
536.3447,536.61456,89,120,0
536.3447,536.61456,87,120,0
536.61743,536.8873,98,120,0
536.61743,536.8873,92,120,0
536.61743,536.8873,89,120,0
536.61743,536.8873,86,120,0
536.89014,537.16003,99,120,0
536.89014,537.16003,92,120,0
536.89014,537.16003,89,120,0
536.89014,537.16003,87,120,0
537.1629,537.43274,101,120,0
537.1629,537.43274,92,120,0
537.1629,537.43274,89,120,0
537.4356,537.7055,98,80,0
537.4356,537.7055,91,80,0
537.4356,537.7055,89,80,0
537.4356,537.7055,86,80,0
537.7083,537.9782,99,80,0
537.7083,537.9782,91,80,0
537.7083,537.9782,87,80,0
537.9811,538.251,98,80,0
537.9811,538.251,91,80,0
537.9811,538.251,89,80,0
537.9811,538.251,86,80,0
538.2538,538.5237,99,80,0
538.2538,538.5237,91,80,0
538.2538,538.5237,87,80,0
538.5265,538.7964,96,80,0
538.5265,538.7964,91,80,0
538.5265,538.7964,84,80,0
538.79926,539.06915,94,80,0
538.79926,539.06915,91,80,0
538.79926,539.06915,84,80,0
539.07196,539.34186,94,80,0
539.07196,539.34186,88,80,0
539.07196,539.34186,84,80,0
539.3447,539.61456,93,80,0
539.3447,539.61456,87,80,0
539.3447,539.61456,84,80,0
539.61743,539.8873,96,80,0
539.61743,539.8873,87,80,0
539.61743,539.8873,84,80,0
539.89014,540.16003,94,80,0
539.89014,540.16003,86,80,0
539.89014,540.16003,82,80,0
540.1629,540.43274,89,84,0
540.1629,540.43274,86,84,0
540.1629,540.43274,77,84,0
540.4356,540.7055,93,88,0
540.4356,540.7055,89,88,0
540.4356,540.7055,87,88,0
540.4356,540.7055,81,88,0
540.7083,540.9782,96,92,0
540.7083,540.9782,89,92,0
540.7083,540.9782,87,92,0
540.7083,540.9782,84,92,0
540.9811,541.251,94,96,0
540.9811,541.251,89,96,0
540.9811,541.251,86,96,0
540.9811,541.251,82,96,0
541.2538,541.5237,89,100,0
541.2538,541.5237,86,100,0
541.2538,541.5237,77,100,0
541.5265,541.7964,93,104,0
541.5265,541.7964,89,104,0
541.5265,541.7964,87,104,0
541.5265,541.7964,81,104,0
541.79926,542.06915,96,108,0
541.79926,542.06915,89,108,0
541.79926,542.06915,87,108,0
541.79926,542.06915,84,108,0
542.07196,542.2055,82,110,0
542.2083,542.34186,94,110,0
542.34467,542.4782,77,110,0
542.4811,542.61456,89,110,0
542.61743,542.7509,81,110,0
542.7538,542.8873,93,110,0
542.89014,543.0237,84,110,0
543.0265,543.16003,96,110,0
543.1629,543.2964,82,110,0
543.29926,543.43274,94,110,0
543.4356,543.56915,77,110,0
543.57196,543.7055,89,110,0
543.7083,543.84186,69,110,0
543.84467,543.9782,81,110,0
543.9811,544.11456,72,110,0
544.11743,544.2509,84,110,0
544.2538,544.3873,70,110,0
544.39014,544.5237,82,110,0
544.5265,544.66003,65,110,0
544.6629,544.7964,77,110,0
544.79926,544.93274,71,110,0
544.9356,545.06915,83,110,0
545.07196,545.2055,74,110,0
545.2083,545.34186,86,110,0
545.34467,545.4782,72,110,0
545.4811,545.61456,84,110,0
545.61743,545.7509,67,110,0
545.7538,545.8873,79,110,0
545.89014,546.0237,71,110,0
546.0265,546.16003,83,110,0
546.1629,546.2964,74,110,0
546.29926,546.43274,86,110,0
546.4356,546.56915,72,110,0
546.57196,546.7055,84,110,0
546.7083,546.84186,67,110,0
546.84467,546.9782,79,110,0
546.9811,547.11456,72,110,0
547.11743,547.2509,84,110,0
547.2538,547.3873,75,110,0
547.39014,547.5237,87,110,0
547.5265,547.66003,74,110,0
547.6629,547.7964,86,110,0
547.79926,547.93274,69,110,0
547.9356,548.0691,81,110,0
548.07196,548.2055,73,110,0
548.2083,548.34186,85,110,0
548.34467,548.4782,76,110,0
548.4811,548.61456,88,110,0
548.61743,548.7509,74,110,0
548.7538,548.8873,86,110,0
548.89014,549.0237,69,110,0
549.0265,549.16003,81,110,0
549.16284,549.2964,74,110,0
549.29926,549.43274,86,110,0
549.4356,549.5691,77,110,0
549.57196,549.7055,89,110,0
549.7083,549.84186,75,110,0
549.84467,549.9782,87,110,0
549.9811,550.11456,70,110,0
550.11743,550.2509,82,110,0
550.2538,550.3873,74,110,0
550.39014,550.5237,86,110,0
550.5265,550.66003,77,110,0
550.66284,550.7964,89,110,0
550.79926,550.93274,75,110,0
550.9356,551.0691,87,110,0
551.07196,551.2055,70,110,0
551.2083,551.34186,82,110,0
551.34467,551.4782,75,110,0
551.4811,551.61456,87,110,0
551.61743,551.7509,78,110,0
551.7538,551.8873,90,110,0
551.89014,552.0237,77,110,0
552.0265,552.16003,89,110,0
552.16284,552.2964,72,110,0
552.29926,552.43274,84,110,0
552.4356,552.5691,75,110,0
552.57196,552.7055,87,110,0
552.7083,552.84186,78,110,0
552.84467,552.9782,90,110,0
552.9811,553.11456,73,110,0
553.11743,553.2509,85,110,0
553.2538,553.3873,69,110,0
553.39014,553.5237,81,110,0
553.5265,553.66003,72,110,0
553.66284,553.7964,84,110,0
553.79926,553.93274,75,110,0
553.9356,554.0691,87,110,0
554.07196,554.2055,66,110,0
554.2083,554.34186,78,110,0
554.34467,554.4782,65,110,0
554.481,554.61456,77,110,0
554.61743,554.75726,69,110,0
554.76025,554.90015,81,110,0
554.90314,555.05,75,110,0
555.0531,555.2163,87,110,0
555.2198,555.35645,71,80,0
555.3593,555.496,70,80,0
555.49884,555.6355,71,80,0
555.63837,555.775,70,80,0
555.77795,555.91455,71,80,0
555.9175,556.0541,70,80,0
556.057,556.1936,71,80,0
555.2198,556.3332,74,80,0
556.19653,556.3332,70,80,0
556.33606,556.4727,71,80,0
556.4756,556.61224,70,80,0
556.6151,556.7518,71,80,0
556.33606,556.8913,75,80,0
556.7547,556.8913,70,80,0
556.8942,557.0308,71,80,0
557.03375,557.17035,70,80,0
557.1733,557.3099,71,80,0
556.8942,557.44946,78,80,0
557.3128,557.44946,70,80,0
557.45233,557.589,71,80,0
557.59186,557.7285,70,80,0
557.7314,557.86804,71,80,0
557.871,558.00757,70,80,0
558.0105,558.1471,71,80,0
558.15,558.2866,70,80,0
558.28955,558.4262,71,80,0
557.45233,558.56573,82,80,0
558.4291,558.56573,70,80,0
558.5686,558.70526,71,80,0
558.7081,558.8448,70,80,0
558.8477,558.9843,71,80,0
558.5686,559.12384,78,80,0
558.98724,559.12384,70,80,0
559.1268,559.26337,71,80,0
559.2663,559.4029,70,80,0
559.4058,559.5425,70,80,0
559.4756,559.61224,72,80,0
559.1268,559.682,75,80,0
559.54535,559.682,70,80,0
559.6151,559.7518,72,80,0
559.6849,559.82153,70,80,0
559.75464,559.8913,72,80,0
559.8244,559.96106,70,80,0
559.8942,560.0308,72,80,0
559.964,560.1006,70,80,0
560.03375,560.17035,72,80,0
560.1035,560.2401,70,80,0
560.1733,560.3099,72,80,0
560.24304,560.37964,70,80,0
560.3128,560.4494,72,80,0
560.38257,560.51917,70,80,0
560.45233,560.589,72,80,0
560.5221,560.65875,70,80,0
560.59186,560.7285,72,80,0
559.6849,560.7983,74,100,0
560.6616,560.7983,70,80,0
560.7314,560.86804,72,80,0
560.80115,560.9378,70,80,0
560.8709,561.00757,72,80,0
560.94073,561.07733,70,80,0
561.0105,561.1471,72,80,0
561.08026,561.21686,70,80,0
561.15,561.2866,72,80,0
561.2198,561.3564,70,80,0
561.28955,561.42615,72,80,0
561.3593,561.4959,70,80,0
561.4291,561.5657,72,80,0
560.80115,561.6355,75,100,0
561.49884,561.6355,70,80,0
561.5686,561.70526,72,80,0
561.63837,561.775,70,80,0
561.7081,561.8448,72,80,0
561.63837,561.91455,79,103,0
561.7779,561.91455,70,80,0
561.84766,561.9843,72,80,0
561.9174,562.0541,70,80,0
561.98724,562.12384,72,80,0
562.057,562.1936,70,80,0
562.1268,562.26337,72,80,0
562.19653,562.3331,70,80,0
562.2663,562.4029,72,80,0
562.33606,562.47266,70,80,0
562.4058,562.5424,72,80,0
562.4756,562.6122,70,80,0
562.54535,562.682,72,80,0
561.9174,562.7518,82,104,0
562.6151,562.7518,70,80,0
562.6849,562.82153,72,80,0
562.75464,562.8913,70,80,0
562.8244,562.96106,72,80,0
562.75464,563.0308,80,100,0
562.89417,563.0308,70,80,0
562.9639,563.1006,72,80,0
563.03375,563.17035,70,80,0
563.1035,563.2401,72,80,0
563.03375,563.3099,79,100,0
563.1733,563.3099,70,80,0
563.24304,563.37964,72,80,0
563.3128,563.4494,70,80,0
563.38257,563.51917,72,80,0
563.3128,563.5889,77,100,0
563.45233,563.5889,70,80,0
563.5221,563.6587,72,80,0
563.59186,563.7285,70,80,0
563.6616,563.7983,72,80,0
563.59186,563.86804,75,100,0
563.7314,563.86804,70,80,0
563.80115,563.9378,72,80,0
563.8709,564.00757,70,80,0
563.9407,564.07733,72,80,0
563.8709,564.1471,74,100,0
564.01044,564.1471,70,80,0
564.08026,564.21686,72,80,0
564.15,564.2866,70,80,0
564.2198,564.3564,72,80,0
564.28955,564.42615,70,80,0
564.3593,564.4959,72,80,0
564.4291,564.5657,70,80,0
564.49884,564.63544,72,80,0
564.5686,564.7052,70,80,0
564.63837,564.775,72,80,0
564.7081,564.8448,70,80,0
564.7779,564.91455,72,80,0
564.15,564.9843,75,101,0
564.84766,564.9843,70,80,0
564.9174,565.0541,72,80,0
564.9872,565.12384,70,80,0
565.05695,565.1936,72,80,0
564.9872,565.26337,74,80,0
565.1268,565.26337,70,80,0
565.19653,565.3331,72,80,0
565.2663,565.4029,70,80,0
565.33606,565.47266,72,80,0
565.2663,565.5424,77,100,0
565.4058,565.5424,70,80,0
565.4756,565.6122,72,80,0
565.54535,565.68195,70,80,0
565.6151,565.7517,72,80,0
565.6849,565.82153,70,80,0
565.75464,565.8913,72,80,0
565.8244,565.96106,70,80,0
565.89417,566.0308,72,80,0
565.54535,566.1006,75,100,0
565.9639,566.1006,70,80,0
566.0337,566.17035,72,80,0
566.10345,566.2401,70,80,0
566.1733,566.3099,72,80,0
566.10345,566.37964,74,100,0
566.24304,566.37964,70,80,0
566.3128,566.37964,72,80,0
566.38257,566.51917,74,80,0
566.45233,566.5889,75,80,0
566.5221,566.6587,74,81,0
566.59186,566.72845,75,82,0
566.6616,566.7982,74,83,0
566.7314,566.86804,75,84,0
566.80115,566.9378,74,85,0
566.8709,567.00757,75,86,0
566.9407,567.07733,74,87,0
567.01044,567.1471,75,88,0
567.0802,567.21686,74,89,0
567.14996,567.2866,75,90,0
567.2198,567.3564,74,91,0
567.28955,567.42615,75,92,0
566.38257,567.4959,70,80,0
567.3593,567.4959,74,93,0
567.4291,567.5657,75,94,0
567.49884,567.63544,74,95,0
567.5686,567.7052,75,95,0
567.63837,567.77496,74,94,0
567.7081,567.8447,75,93,0
567.7779,567.91455,74,92,0
567.84766,567.9843,75,91,0
567.9174,568.0541,74,90,0
567.9872,568.12384,75,89,0
568.05695,568.1936,74,88,0
568.1267,568.26337,75,87,0
568.1965,568.3331,74,86,0
568.2663,568.4029,75,85,0
568.33606,568.47266,74,84,0
568.4058,568.5424,75,83,0
568.4756,568.6122,74,82,0
568.54535,568.6122,72,81,0
568.6151,568.7517,74,80,0
568.75464,568.89124,75,80,0
568.89417,569.0308,74,80,0
569.0337,569.17035,72,80,0
569.1732,569.3099,70,80,0
569.3128,569.4494,69,80,0
569.45233,569.5889,70,80,0
569.59186,569.72845,72,80,0
569.7314,569.868,74,80,0
569.8709,570.00757,75,80,0
570.01044,570.1471,77,80,0
570.14996,570.2866,79,80,0
570.2895,570.42615,81,80,0
570.4291,570.5657,82,80,0
570.5686,570.7052,84,80,0
570.7081,570.8447,86,80,0
570.84766,570.98425,87,80,0
570.9872,571.12384,89,80,0
571.1267,571.26337,87,80,0
571.26624,571.4029,86,80,0
571.4058,571.5424,84,80,0
571.54535,571.68195,82,80,0
571.6849,571.8215,81,80,0
571.8244,571.961,79,80,0
571.9639,572.1006,77,80,0
572.10345,572.2401,75,80,0
572.243,572.37964,74,80,0
572.3825,572.51917,72,80,0
572.5221,572.6587,70,80,0
572.6616,572.7982,69,80,0
572.80115,572.93774,67,80,0
572.9407,573.0773,65,80,0
573.0802,573.48645,74,70,0
573.0802,573.48645,65,70,0
573.4893,573.6228,74,70,0
573.60864,573.6228,74,70,0
573.4893,573.6228,65,70,0
573.6257,573.89557,65,70,0
574.0347,574.1683,67,110,0
574.0347,574.1683,65,110,0
574.0347,574.1683,62,110,0
574.17114,574.5774,75,110,0
574.17114,574.5774,67,110,0
574.17114,574.5774,63,110,0
574.5802,574.71375,75,110,0
574.5802,574.71375,67,110,0
574.5802,574.71375,63,110,0
574.71655,574.98645,75,110,0
574.71655,574.98645,67,110,0
574.71655,574.98645,63,110,0
575.1257,575.25916,67,70,0
575.1257,575.25916,65,70,0
575.262,575.6683,75,70,0
575.262,575.6683,67,70,0
575.67114,575.8046,75,70,0
575.67114,575.8046,67,70,0
575.8075,576.0774,75,70,0
575.8075,576.0774,67,70,0
576.21655,576.3501,69,110,0
576.21655,576.3501,67,110,0
576.21655,576.3501,64,110,0
576.3529,576.75916,77,110,0
576.3529,576.75916,69,110,0
576.3529,576.75916,65,110,0
576.762,576.89557,77,110,0
576.762,576.89557,69,110,0
576.762,576.89557,65,110,0
576.8984,577.1683,77,110,0
576.8984,577.1683,69,110,0
576.8984,577.1683,65,110,0
577.31067,577.44727,67,70,0
577.31067,577.44727,69,70,0
577.4502,577.8659,77,70,0
577.4502,577.8659,69,70,0
577.8688,578.00543,77,70,0
577.8688,578.00543,69,70,0
578.0083,578.2845,77,70,0
578.0083,578.2845,69,70,0
578.43024,578.5701,70,110,0
578.43024,578.5701,68,110,0
578.43024,578.5701,65,110,0
578.5731,579.01996,79,110,0
578.5731,579.01996,70,110,0
578.5731,579.01996,67,110,0
579.02313,579.17,79,110,0
579.02313,579.17,70,110,0
579.02313,579.17,67,110,0
579.1731,579.47,79,110,0
579.1731,579.47,70,110,0
579.1731,579.47,67,110,0
580.831,580.9856,75,120,0
580.831,580.9856,67,120,0
580.9889,581.4593,81,120,0
580.9889,581.4593,75,120,0
580.9889,581.4593,72,120,0
580.9889,581.4593,69,120,0
581.4626,581.6462,81,120,0
581.4626,581.6462,75,120,0
581.4626,581.6462,72,120,0
581.4626,581.6462,69,120,0
581.6501,582.0212,81,120,0
581.6501,582.0212,75,120,0
581.6501,582.0212,72,120,0
581.6501,582.0212,69,120,0
584.24713,584.3807,86,80,0
584.24713,584.3807,82,80,0
584.24713,584.3807,77,80,0
584.24713,584.3807,74,80,0
584.38354,584.6534,86,80,0
584.38354,584.6534,82,80,0
584.38354,584.6534,77,80,0
584.38354,584.6534,74,80,0
584.65625,584.7898,87,80,0
584.65625,584.7898,82,80,0
584.65625,584.7898,77,80,0
584.65625,584.7898,74,80,0
584.7926,584.92615,86,80,0
584.7926,584.92615,82,80,0
584.7926,584.92615,77,80,0
584.7926,584.92615,74,80,0
584.92896,585.19885,86,80,0
584.92896,585.19885,82,80,0
584.92896,585.19885,77,80,0
584.92896,585.19885,74,80,0
585.2017,585.47156,82,80,0
585.2017,585.47156,77,80,0
585.2017,585.47156,74,80,0
585.2017,585.47156,70,80,0
585.4744,585.7443,74,110,0
585.4744,585.7443,70,110,0
585.4744,585.7443,65,110,0
585.4744,585.7443,62,110,0
585.74713,586.017,70,110,0
585.74713,586.017,65,110,0
585.74713,586.017,62,110,0
585.74713,586.017,58,110,0
586.0199,586.42615,89,80,0
586.0199,586.42615,86,80,0
586.0199,586.42615,82,80,0
586.0199,586.42615,77,80,0
586.42896,586.5625,89,80,0
586.42896,586.5625,86,80,0
586.42896,586.5625,82,80,0
586.42896,586.5625,77,80,0
586.5653,586.8352,89,80,0
586.5653,586.8352,86,80,0
586.5653,586.8352,82,80,0
586.5653,586.8352,77,80,0
586.8381,586.97156,91,80,0
586.8381,586.97156,86,80,0
586.8381,586.97156,82,80,0
586.8381,586.97156,77,80,0
586.9744,587.108,89,80,0
586.9744,587.108,86,80,0
586.9744,587.108,82,80,0
586.9744,587.108,77,80,0
587.1108,587.3807,89,80,0
587.1108,587.3807,86,80,0
587.1108,587.3807,82,80,0
587.1108,587.3807,77,80,0
587.3835,587.6534,86,80,0
587.3835,587.6534,82,80,0
587.3835,587.6534,77,80,0
587.3835,587.6534,74,80,0
587.65625,587.92615,77,110,0
587.65625,587.92615,74,110,0
587.65625,587.92615,70,110,0
587.65625,587.92615,65,110,0
587.92896,588.19885,74,110,0
587.92896,588.19885,65,110,0
587.92896,588.19885,62,110,0
587.92896,588.19885,70,110,0
588.2017,588.47156,89,80,0
588.2017,588.47156,86,80,0
588.4744,588.7443,86,80,0
588.4744,588.7443,82,80,0
588.74713,589.017,77,110,0
588.74713,589.017,74,110,0
589.0199,589.28973,74,110,0
589.0199,589.28973,70,110,0
589.2926,589.5625,86,80,0
589.2926,589.5625,82,80,0
589.5653,589.8352,82,80,0
589.5653,589.8352,77,80,0
589.8381,590.108,74,110,0
589.8381,590.108,70,110,0
590.1108,590.3807,70,110,0
590.1108,590.3807,65,110,0
590.3835,590.6534,82,80,0
590.3835,590.6534,77,80,0
590.65625,590.92615,77,80,0
590.65625,590.92615,74,80,0
590.92896,591.19885,70,110,0
590.92896,591.19885,65,110,0
591.2017,591.47156,65,110,0
591.2017,591.47156,62,110,0
591.4744,592.5625,75,80,0
591.4744,592.5625,69,80,0
592.5653,592.8352,77,80,0
592.5653,592.8352,74,80,0
592.8381,593.1079,74,80,0
592.8381,593.1079,70,80,0
593.1108,593.3807,65,110,0
593.1108,593.3807,62,110,0
593.3835,593.6534,62,110,0
593.3835,593.6534,58,110,0
593.65625,593.92615,74,80,0
593.65625,593.92615,70,80,0
593.92896,594.19885,70,80,0
593.92896,594.19885,65,80,0
594.20166,594.47156,62,110,0
594.20166,594.47156,58,110,0
594.4744,594.7443,58,110,0
594.4744,594.7443,53,110,0
594.74713,595.017,70,80,0
594.74713,595.017,65,80,0
595.0199,595.28973,65,80,0
595.0199,595.28973,62,80,0
595.2926,595.5625,58,110,0
595.2926,595.5625,53,110,0
595.5653,595.8352,53,110,0
595.5653,595.8352,50,110,0
595.8381,596.92615,63,80,0
595.8381,596.92615,57,80,0
597.3381,597.47156,66,80,0
597.3381,597.47156,63,80,0
597.3381,597.47156,57,80,0
597.4744,597.7443,66,79,0
597.4744,597.7443,63,79,0
597.4744,597.7443,57,79,0
597.74713,598.017,65,79,0
597.74713,598.017,62,79,0
597.74713,598.017,58,79,0
598.42896,598.5625,63,78,0
598.42896,598.5625,60,78,0
598.42896,598.5625,57,78,0
598.42896,598.5625,54,78,0
598.5653,598.8352,63,77,0
598.5653,598.8352,60,77,0
598.5653,598.8352,57,77,0
598.5653,598.8352,54,77,0
598.8381,599.1079,62,77,0
598.8381,599.1079,58,77,0
598.8381,599.1079,53,77,0
599.53937,599.6792,63,76,0
599.53937,599.6792,60,76,0
599.53937,599.6792,57,76,0
599.53937,599.6792,54,76,0
599.6822,599.96497,63,75,0
599.6822,599.96497,60,75,0
599.6822,599.96497,57,75,0
599.6822,599.96497,54,75,0
599.9679,600.2507,62,75,0
599.9679,600.2507,58,75,0
599.9679,600.2507,53,75,0
600.7036,600.8505,60,74,0
600.7036,600.8505,57,74,0
600.7036,600.8505,54,74,0
600.7036,600.8505,51,74,0
600.85364,601.16614,60,73,0
600.85364,601.16614,57,73,0
600.85364,601.16614,54,73,0
600.85364,601.16614,51,73,0
601.16943,601.48193,58,73,0
601.16943,601.48193,53,73,0
601.16943,601.48193,50,73,0
601.9852,602.1484,62,66,0
601.9852,602.1484,58,66,0
601.9852,602.1484,53,66,0
601.9852,602.1484,50,66,0
602.15186,602.52295,62,65,0
602.15186,602.52295,58,65,0
602.15186,602.52295,53,65,0
602.15186,602.52295,50,65,0
602.52686,602.89795,58,62,0
602.52686,602.89795,53,62,0
602.52686,602.89795,50,62,0
603.27686,605.2546,50,60,0
603.27686,605.2546,53,60,0
603.27686,605.2546,58,60,0
603.27686,605.2546,62,60,0
605.25903,606.1117,82,120,0
605.25903,606.1117,77,120,0
605.25903,606.1117,74,120,0
605.25903,606.1117,70,120,0
606.11615,607.826,70,120,0
606.11615,607.826,58,120,0
611.25903,611.6831,58,1,0
0.0,0.2698861,58,1,0
0.9545445,1.088067,34,120,0
1.090908,1.4971576,62,120,0
1.090908,1.4971576,58,120,0
1.090908,1.4971576,53,120,0
1.4999985,1.6335211,62,120,0
1.4999985,1.6335211,58,120,0
1.4999985,1.6335211,53,120,0
1.636362,1.9062481,62,120,0
1.636362,1.9062481,58,120,0
1.636362,1.9062481,53,120,0
1.909089,2.0426116,62,120,0
1.909089,2.0426116,58,120,0
1.909089,2.0426116,53,120,0
2.0454526,2.178975,62,120,0
2.0454526,2.178975,58,120,0
2.0454526,2.178975,53,120,0
2.181816,2.451702,58,120,0
2.181816,2.451702,53,120,0
2.181816,2.451702,62,120,0
2.454543,2.7244291,58,120,0
2.454543,2.7244291,53,120,0
2.454543,2.7244291,50,120,0
3.1363604,3.2698832,34,120,0
3.272724,3.6789737,65,120,0
3.272724,3.6789737,62,120,0
3.272724,3.6789737,58,120,0
3.272724,3.6789737,53,120,0
3.6818144,3.8153372,65,120,0
3.6818144,3.8153372,62,120,0
3.6818144,3.8153372,58,120,0
3.6818144,3.8153372,53,120,0
3.818178,4.088064,65,120,0
3.818178,4.088064,62,120,0
3.818178,4.088064,58,120,0
3.818178,4.088064,53,120,0
4.090905,4.2244277,65,120,0
4.090905,4.2244277,62,120,0
4.090905,4.2244277,58,120,0
4.090905,4.2244277,53,120,0
4.2272687,4.360791,65,120,0
4.2272687,4.360791,62,120,0
4.2272687,4.360791,58,120,0
4.2272687,4.360791,53,120,0
4.363632,4.633518,65,120,0
4.363632,4.633518,62,120,0
4.363632,4.633518,58,120,0
4.363632,4.633518,53,120,0
4.636359,5.4516993,62,120,0
4.636359,5.4516993,58,120,0
4.636359,5.4516993,53,120,0
6.818175,7.088061,64,80,0
7.090902,7.360788,65,80,0
7.363629,7.633515,59,80,0
7.636356,7.906242,60,80,0
7.909083,8.178969,54,80,0
8.18181,8.451696,55,80,0
8.454537,8.724423,51,80,0
8.727264,8.99715,50,80,0
8.999991,9.269877,49,80,0
9.272718,9.569593,48,80,0
9.572718,9.869593,41,80,0
9.872718,10.202579,46,80,0
10.206051,10.619513,39,80,0
10.62432,11.542588,41,80,0
12.911031,13.180917,76,80,0
13.183758,13.453644,77,80,0
13.456485,13.726371,71,80,0
13.729212,13.999098,72,80,0
14.001939,14.271825,66,80,0
14.274666,14.544552,67,80,0
14.547393,14.817279,63,80,0
14.82012,15.090006,62,80,0
15.092847,15.362733,61,81,0
15.365574,15.63546,60,83,0
15.638301,15.908187,53,84,0
15.911028,16.180914,58,86,0
16.183756,16.453642,54,87,0
16.456482,16.726368,53,89,0
16.72921,16.999096,51,90,0
17.001936,17.271822,50,92,0
17.274664,17.54455,49,93,0
17.54739,17.817276,48,95,0
17.820118,18.090004,41,96,0
18.092844,18.36273,46,98,0
18.36557,18.635458,42,99,0
18.638298,18.908184,41,101,0
18.911024,19.180912,39,103,0
19.183752,19.453638,38,104,0
19.456478,19.726366,37,106,0
19.729206,19.999092,36,107,0
20.001932,20.271818,30,109,0
20.27466,20.544546,31,110,0
20.547386,20.817272,39,110,0
20.820114,21.09,41,110,0
21.09284,21.362726,41,110,0
21.09284,21.362726,29,110,0
21.365568,21.49909,46,110,0
21.365568,21.49909,34,110,0
21.501932,21.635454,62,110,0
21.501932,21.635454,58,110,0
21.501932,21.635454,53,110,0
21.638294,21.771818,62,110,0
21.638294,21.771818,58,110,0
21.638294,21.771818,53,110,0
21.774658,21.90818,62,110,0
21.774658,21.90818,58,110,0
21.774658,21.90818,53,110,0
22.047386,22.180908,58,110,0
22.047386,22.180908,53,110,0
22.047386,22.180908,50,110,0
22.183748,22.317272,58,110,0
22.183748,22.317272,53,110,0
22.183748,22.317272,50,110,0
22.320112,22.453634,58,110,0
22.320112,22.453634,53,110,0
22.320112,22.453634,50,110,0
22.59284,22.726362,62,80,0
22.59284,22.726362,58,80,0
22.59284,22.726362,53,80,0
22.865566,22.999088,58,80,0
22.865566,22.999088,50,80,0
23.138294,23.271816,62,80,0
23.138294,23.271816,58,80,0
23.138294,23.271816,53,80,0
23.41102,23.544542,60,80,0
23.41102,23.544542,58,80,0
23.41102,23.544542,51,80,0
23.547384,23.680906,46,110,0
23.547384,23.680906,34,110,0
23.683748,23.81727,63,110,0
23.683748,23.81727,58,110,0
23.683748,23.81727,55,110,0
23.82011,23.953634,63,110,0
23.82011,23.953634,58,110,0
23.82011,23.953634,55,110,0
23.956474,24.089996,63,110,0
23.956474,24.089996,58,110,0
23.956474,24.089996,55,110,0
24.229202,24.362724,60,110,0
24.229202,24.362724,57,110,0
24.229202,24.362724,51,110,0
24.365564,24.499088,60,110,0
24.365564,24.499088,57,110,0
24.365564,24.499088,51,110,0
24.501928,24.63545,60,110,0
24.501928,24.63545,57,110,0
24.501928,24.63545,51,110,0
24.774656,24.908178,63,80,0
24.774656,24.908178,58,80,0
24.774656,24.908178,55,80,0
25.047382,25.180904,61,80,0
25.047382,25.180904,58,80,0
25.047382,25.180904,52,80,0
25.32011,25.453632,63,80,0
25.32011,25.453632,58,80,0
25.32011,25.453632,54,80,0
25.592836,25.726358,62,80,0
25.592836,25.726358,58,80,0
25.592836,25.726358,53,80,0
25.7292,25.862722,46,110,0
25.7292,25.862722,34,110,0
25.865564,25.999086,65,110,0
25.865564,25.999086,58,110,0
25.865564,25.999086,56,110,0
26.001926,26.13545,65,110,0
26.001926,26.13545,58,110,0
26.001926,26.13545,56,110,0
26.13829,26.271812,65,110,0
26.13829,26.271812,58,110,0
26.13829,26.271812,56,110,0
26.411018,26.54454,62,110,0
26.411018,26.54454,58,110,0
26.411018,26.54454,53,110,0
26.54738,26.680904,62,110,0
26.54738,26.680904,58,110,0
26.54738,26.680904,53,110,0
26.683744,26.817266,62,110,0
26.683744,26.817266,58,110,0
26.683744,26.817266,53,110,0
26.956472,27.089994,65,80,0
26.956472,27.089994,58,80,0
26.956472,27.089994,56,80,0
27.229198,27.36272,62,80,0
27.229198,27.36272,58,80,0
27.229198,27.36272,54,80,0
27.501926,27.635448,65,80,0
27.501926,27.635448,58,80,0
27.501926,27.635448,56,80,0
27.774652,27.908175,63,80,0
27.774652,27.908175,58,80,0
27.774652,27.908175,55,80,0
27.911016,28.044538,46,110,0
27.911016,28.044538,34,110,0
28.04738,28.180902,67,110,0
28.04738,28.180902,63,110,0
28.04738,28.180902,58,110,0
28.183743,28.317266,67,110,0
28.183743,28.317266,63,110,0
28.183743,28.317266,58,110,0
28.320107,28.453629,67,110,0
28.320107,28.453629,63,110,0
28.320107,28.453629,58,110,0
28.592833,28.726357,63,110,0
28.592833,28.726357,58,110,0
28.592833,28.726357,55,110,0
28.729197,28.86272,63,110,0
28.729197,28.86272,58,110,0
28.729197,28.86272,55,110,0
28.86556,28.999083,63,110,0
28.86556,28.999083,58,110,0
28.86556,28.999083,55,110,0
29.138287,29.27181,67,81,0
29.138287,29.27181,63,81,0
29.138287,29.27181,58,81,0
29.411015,29.544537,64,83,0
29.411015,29.544537,61,83,0
29.411015,29.544537,58,83,0
29.68374,29.817265,66,86,0
29.68374,29.817265,63,86,0
29.68374,29.817265,58,86,0
29.956469,30.08999,65,89,0
29.956469,30.08999,62,89,0
29.956469,30.08999,58,89,0
30.229195,30.362719,68,91,0
30.229195,30.362719,65,91,0
30.229195,30.362719,58,91,0
30.501923,30.635445,66,94,0
30.501923,30.635445,62,94,0
30.501923,30.635445,58,94,0
30.774649,30.908173,68,96,0
30.774649,30.908173,65,96,0
30.774649,30.908173,58,96,0
31.047377,31.180899,67,99,0
31.047377,31.180899,63,99,0
31.047377,31.180899,58,99,0
31.320103,31.453627,67,102,0
31.320103,31.453627,63,102,0
31.320103,31.453627,60,102,0
31.320103,31.453627,58,102,0
31.59283,31.726353,68,104,0
31.59283,31.726353,63,104,0
31.59283,31.726353,60,104,0
31.59283,31.726353,58,104,0
31.865557,31.99908,70,107,0
31.865557,31.99908,63,107,0
31.865557,31.99908,60,107,0
31.865557,31.99908,58,107,0
32.138283,32.27181,69,109,0
32.138283,32.27181,63,109,0
32.138283,32.27181,60,109,0
32.138283,32.27181,58,109,0
32.41101,32.544533,72,110,0
32.41101,32.544533,60,110,0
32.68374,32.81726,70,110,0
32.68374,32.81726,58,110,0
32.956467,33.08999,67,110,0
32.956467,33.08999,55,110,0
33.22919,33.362717,65,110,0
33.22919,33.362717,53,110,0
33.50192,33.63544,63,110,0
33.50192,33.63544,51,110,0
33.774647,33.90817,50,110,0
33.774647,33.90817,62,110,0
34.047375,34.180897,60,110,0
34.047375,34.180897,48,110,0
34.3201,34.453625,58,110,0
34.3201,34.453625,46,110,0
34.592827,34.72635,55,110,0
34.592827,34.72635,43,110,0
34.865555,34.999077,53,110,0
34.865555,34.999077,41,110,0
35.138283,35.271805,51,110,0
35.138283,35.271805,39,110,0
35.411007,35.544533,50,110,0
35.411007,35.544533,38,110,0
35.683735,35.817257,48,110,0
35.683735,35.817257,36,110,0
35.956463,36.089985,46,110,0
35.956463,36.089985,34,110,0
36.22919,36.362713,31,110,0
36.22919,36.362713,43,110,0
36.501915,36.63544,41,110,0
36.501915,36.63544,29,110,0
36.774643,37.317257,33,109,0
37.04737,37.589985,29,106,0
37.3201,37.86907,36,104,0
37.592823,38.15478,29,101,0
37.872044,38.4405,41,98,0
38.15776,38.72621,29,95,0
38.443474,39.01892,45,93,0
38.729187,39.31892,29,90,0
39.022045,39.63524,48,87,0
39.322044,39.96857,29,84,0
39.63871,40.334545,53,82,0
39.972042,40.734543,29,79,0
40.33871,41.23246,53,76,0
40.73871,41.83246,29,73,0
41.23871,42.022305,53,71,0
41.83871,42.022305,29,110,0
42.02621,42.43246,62,110,0
42.02621,42.43246,58,110,0
42.02621,42.43246,53,110,0
42.4353,42.568825,62,110,0
42.4353,42.568825,58,110,0
42.4353,42.568825,53,110,0
42.571663,42.84155,62,110,0
42.571663,42.84155,58,110,0
42.571663,42.84155,53,110,0
42.84439,42.977913,62,110,0
42.84439,42.977913,58,110,0
42.84439,42.977913,53,110,0
42.980755,43.114277,62,110,0
42.980755,43.114277,58,110,0
42.980755,43.114277,53,110,0
43.11712,43.387005,62,110,0
43.11712,43.387005,58,110,0
43.11712,43.387005,53,110,0
43.389847,43.659733,58,110,0
43.389847,43.659733,53,110,0
43.389847,43.659733,50,110,0
44.071663,44.205185,34,110,0
44.208027,44.614277,62,110,0
44.208027,44.614277,58,110,0
44.208027,44.614277,53,110,0
44.208027,44.614277,50,110,0
44.617115,44.75064,62,110,0
44.617115,44.75064,58,110,0
44.617115,44.75064,53,110,0
44.617115,44.75064,50,110,0
44.75348,45.050354,62,110,0
44.75348,45.050354,50,110,0
45.05348,45.200356,62,110,0
45.05348,45.200356,57,110,0
45.05348,45.200356,54,110,0
45.05348,45.200356,50,110,0
45.20348,45.350353,62,110,0
45.20348,45.350353,57,110,0
45.20348,45.350353,54,110,0
45.20348,45.350353,50,110,0
45.35348,45.683342,62,110,0
45.35348,45.683342,57,110,0
45.35348,45.683342,54,110,0
45.35348,45.683342,50,110,0
45.686813,47.350006,50,110,0
45.686813,47.350006,54,110,0
45.686813,47.350006,57,110,0
45.686813,47.350006,62,110,0
47.853477,48.01667,50,80,0
48.020145,48.426395,62,80,0
48.429234,48.562756,50,80,0
48.565598,48.971848,62,80,0
48.97469,49.10821,50,80,0
49.111053,49.517303,62,80,0
49.52014,49.653664,50,80,0
49.656506,50.062756,62,80,0
50.065598,50.19912,50,80,0
50.20196,50.608208,60,80,0
50.20196,50.608208,57,80,0
50.61105,50.74457,50,83,0
50.747414,51.153664,60,84,0
50.747414,51.153664,57,84,0
51.156506,51.290028,50,87,0
51.29287,51.699116,57,88,0
51.29287,51.699116,54,88,0
51.701958,51.83548,50,91,0
51.83832,52.24457,45,92,0
52.247414,52.380936,50,96,0
52.383778,52.790024,45,97,0
52.792866,52.926388,50,100,0
52.92923,53.33548,43,101,0
53.33832,53.471844,50,104,0
53.474686,53.88093,41,105,0
53.883774,54.017296,50,108,0
54.020138,54.426388,39,109,0
54.42923,54.56275,50,110,0
54.565594,54.83548,50,110,0
54.565594,54.83548,38,110,0
54.838318,54.97184,75,110,0
54.97468,55.108204,74,108,0
55.111046,55.38093,75,106,0
55.383774,55.517296,74,101,0
55.520138,55.65366,73,99,0
55.6565,55.926388,74,97,0
55.929226,56.062748,63,92,0
56.06559,56.199112,62,90,0
56.201954,56.47184,63,87,0
56.47468,56.608204,62,83,0
56.611046,56.744568,61,81,0
56.74741,57.017296,62,80,0
57.156498,57.29002,50,80,0
57.292862,57.562748,54,80,0
57.701954,57.835476,57,80,0
57.838318,58.108204,60,80,0
58.247406,58.380928,66,80,0
58.38377,58.653656,69,80,0
58.656498,58.79002,72,80,0
58.792862,58.926384,69,80,0
58.929222,59.062748,81,80,0
59.065586,59.199112,83,80,0
59.20195,59.335472,84,80,0
59.338314,59.471836,81,80,0
59.474678,59.6082,72,80,0
59.611042,59.744564,74,80,0
59.747406,59.880928,76,80,0
59.88377,60.017292,72,80,0
60.02013,60.153656,69,80,0
60.156494,60.29002,71,80,0
60.29286,60.42638,72,80,0
60.429222,60.562744,69,80,0
60.565586,60.69911,66,80,0
60.70195,60.835472,67,80,0
60.838314,60.971836,69,80,0
60.974678,61.1082,66,80,0
61.11104,61.380924,71,80,0
61.11104,61.380924,67,80,0
61.11104,61.380924,62,80,0
61.52013,61.653652,50,80,0
61.656494,61.92638,55,80,0
62.065586,62.19911,59,80,0
62.201946,62.471832,62,80,0
62.61104,62.74456,67,80,0
62.747402,63.01729,71,80,0
63.156494,63.290016,74,80,0
63.292854,63.42638,79,80,0
63.42922,63.56274,81,80,0
63.565582,63.699104,83,80,0
63.701946,63.83547,79,80,0
63.83831,63.971832,71,80,0
63.974674,64.10819,72,80,0
64.11104,64.24456,74,80,0
64.2474,64.38092,71,80,0
64.383766,64.51729,67,80,0
64.52013,64.65365,69,80,0
64.656494,64.790016,71,80,0
64.792854,64.92638,67,80,0
64.929214,65.062744,71,80,0
65.06558,65.199104,72,80,0
65.20194,65.335464,74,80,0
65.33831,65.47183,71,80,0
65.47467,65.60819,72,80,0
65.61104,65.74456,74,80,0
65.7474,65.88092,72,80,0
65.883766,66.01729,71,80,0
66.02013,66.15365,72,80,0
66.15649,66.29001,74,80,0
66.292854,66.42638,76,80,0
66.429214,66.56274,72,80,0
66.56558,66.699104,69,80,0
66.70194,66.835464,71,80,0
66.83831,66.97183,72,80,0
66.97467,67.10819,69,80,0
67.11103,67.24456,66,80,0
67.2474,67.38092,67,80,0
67.38376,67.51728,69,80,0
67.52013,67.65365,66,80,0
67.65649,67.79001,60,80,0
67.792854,67.92638,62,80,0
67.929214,68.06274,64,80,0
68.06558,68.199104,60,80,0
68.20194,68.335464,57,80,0
68.3383,68.471825,59,80,0
68.47467,68.60819,60,80,0
68.61103,68.74455,57,80,0
68.7474,68.88092,54,80,0
68.88376,69.01728,55,80,0
69.02013,69.15365,57,80,0
69.15649,69.29001,54,80,0
69.29285,69.42638,69,80,0
69.429214,69.56274,67,80,0
69.565575,69.6991,66,80,0
69.70194,69.835464,69,80,0
69.8383,69.971825,71,80,0
69.97467,70.10819,72,80,0
70.11103,70.24455,71,80,0
70.24739,70.38092,69,80,0
70.38376,70.51728,71,80,0
70.52012,70.65364,72,80,0
70.65649,70.79001,74,80,0
70.79285,70.92637,71,80,0
70.929214,71.06274,67,80,0
71.065575,71.1991,69,80,0
71.20194,71.335464,71,80,0
71.3383,71.471825,67,80,0
71.47466,71.608185,62,80,0
71.61103,71.74455,66,80,0
71.74739,71.88091,67,80,0
71.88376,72.01728,62,80,0
72.02012,72.15364,59,80,0
72.15649,72.29001,60,80,0
72.29285,72.42637,62,80,0
72.42921,72.56274,59,80,0
72.565575,72.6991,55,80,0
72.701935,72.83546,57,80,0
72.8383,72.971825,59,80,0
72.97466,73.108185,55,80,0
73.11103,73.24455,50,80,0
73.24739,73.38091,54,80,0
73.38376,73.51728,55,80,0
73.52012,73.65364,50,80,0
73.65648,73.79,48,80,0
73.79285,73.92637,55,80,0
73.92921,74.06273,50,80,0
74.065575,74.1991,48,80,0
74.201935,74.471825,47,80,0
74.47466,74.74455,55,80,0
74.47466,74.74455,43,80,0
74.74739,74.88091,52,80,0
74.74739,74.88091,48,80,0
75.02012,75.15364,60,80,0
75.15648,75.29,57,80,0
75.29285,75.56273,54,80,0
75.565575,75.83546,62,80,0
75.565575,75.83546,50,80,0
75.838295,75.97182,59,80,0
75.838295,75.97182,55,80,0
76.11102,76.65364,55,80,0
76.11102,76.65364,64,80,0
76.65648,76.92637,64,80,0
76.65648,76.92637,55,80,0
76.92921,77.211945,66,80,0
76.92921,77.211945,57,80,0
77.21492,77.36179,67,80,0
77.21492,77.511795,57,80,0
77.36492,77.511795,69,80,0
77.51492,77.84478,69,80,0
77.84825,78.125595,71,80,0
78.1295,78.219345,73,80,0
77.51492,78.594345,62,80,0
78.22325,78.594345,74,80,0
78.59825,78.745125,76,80,0
78.74825,78.89513,78,80,0
78.898254,79.16814,79,80,0
79.17098,79.440865,74,80,0
79.17098,79.440865,71,80,0
79.44371,79.57723,76,80,0
79.44371,79.57723,72,80,0
79.71643,79.84996,69,80,0
79.8528,79.98632,72,80,0
79.98916,80.25905,74,80,0
80.26189,80.53178,69,80,0
80.26189,80.53178,66,80,0
80.534615,80.66814,71,80,0
80.534615,80.66814,67,80,0
81.08007,81.36281,71,80,0
81.08007,81.36281,67,80,0
81.08007,81.36281,64,80,0
81.36578,81.66266,72,80,0
81.36578,81.66266,67,80,0
81.36578,81.66266,64,80,0
81.66579,81.82898,67,80,0
81.66579,81.99564,72,80,0
81.66579,81.99564,64,80,0
81.83245,81.99564,69,80,0
81.999115,82.32898,71,80,0
81.999115,82.32898,66,80,0
81.999115,82.32898,63,80,0
82.33245,82.629326,71,80,0
82.33245,82.629326,66,80,0
82.33245,82.629326,63,80,0
82.63245,82.902336,63,80,0
82.63245,82.902336,59,80,0
82.905174,83.175064,67,80,0
82.905174,83.175064,64,80,0
83.1779,83.311424,65,80,0
83.1779,83.311424,62,80,0
83.31427,83.44779,64,80,0
83.31427,83.44779,61,80,0
83.45063,83.72051,64,80,0
83.45063,83.72051,61,80,0
83.72336,83.99324,61,80,0
83.72336,83.99324,57,80,0
83.996086,84.26597,65,80,0
83.996086,84.26597,62,80,0
84.268814,84.402336,63,80,0
84.268814,84.402336,60,80,0
84.405174,84.5387,62,80,0
84.405174,84.5387,59,80,0
84.541534,84.811424,62,80,0
84.541534,84.811424,59,80,0
84.81426,85.08415,59,80,0
84.81426,85.08415,55,80,0
85.08699,85.35688,64,80,0
85.08699,85.35688,60,80,0
85.35972,85.49324,62,80,0
85.35972,85.49324,59,80,0
85.496086,85.62961,61,80,0
85.496086,85.62961,58,80,0
85.63245,85.90233,58,80,0
85.63245,85.90233,61,80,0
85.905174,86.17506,58,80,0
85.905174,86.17506,54,80,0
86.1779,86.447784,62,80,0
86.1779,86.447784,59,80,0
86.45063,86.58415,60,80,0
86.45063,86.58415,57,80,0
86.58699,86.99324,56,80,0
86.58699,86.99324,59,80,0
86.99608,87.1296,57,80,0
86.99608,87.26597,64,80,0
87.13245,87.26597,55,80,0
87.26881,87.551544,57,80,0
87.26881,87.551544,54,80,0
87.55452,87.7014,55,80,0
87.55452,87.851395,59,80,0
87.70452,87.851395,47,80,0
87.85452,89.50817,45,80,0
87.85452,89.50817,50,80,0
87.85452,89.50817,60,80,0
89.51102,90.05363,59,80,0
89.51102,90.05363,50,80,0
89.51102,90.05363,47,80,0
90.056465,91.68999,45,80,0
90.056465,91.68999,50,80,0
90.056465,91.68999,60,80,0
91.69283,92.23544,59,80,0
91.69283,92.23544,50,80,0
91.69283,92.23544,47,80,0
92.23828,92.7809,47,80,0
92.23828,92.7809,35,80,0
92.78374,93.32635,52,80,0
92.78374,93.32635,40,80,0
93.32919,93.8718,49,80,0
93.32919,93.8718,37,80,0
93.87465,94.14453,50,80,0
93.87465,94.14453,38,80,0
94.4201,96.05362,57,80,0
94.4201,96.05362,62,80,0
94.4201,96.05362,72,80,0
96.056465,96.599075,71,80,0
96.056465,96.599075,62,80,0
96.056465,96.599075,59,80,0
96.60191,98.235435,45,80,0
96.60191,98.235435,50,80,0
96.60191,98.235435,60,80,0
98.23828,98.50816,59,80,0
98.23828,98.50816,50,80,0
98.23828,98.50816,47,80,0
98.511,98.78089,59,80,0
98.78373,99.32635,59,80,0
99.329185,99.871796,64,80,0
99.87464,100.41725,61,80,0
100.4201,100.68998,62,80,0
100.69282,100.96271,63,80,0
100.965546,101.50816,65,80,0
101.511,102.05361,69,83,0
102.05646,102.59907,66,87,0
102.60191,102.871796,67,91,0
102.87463,103.14452,68,93,0
103.14736,103.68998,69,94,0
103.69282,104.23543,73,98,0
104.23827,104.78088,71,102,0
104.78373,105.59907,60,106,0
104.78373,105.59907,72,106,0
105.601906,105.871796,48,120,0
105.601906,105.871796,36,120,0
106.69282,106.9627,64,120,0
106.69282,106.9627,60,120,0
106.965546,107.23543,62,120,0
106.965546,107.23543,59,120,0
107.238266,107.37179,64,120,0
107.238266,107.37179,60,120,0
107.37463,107.508156,65,120,0
107.37463,107.508156,62,120,0
107.510994,107.78088,67,120,0
107.510994,107.78088,64,120,0
107.78372,108.59906,48,120,0
107.78372,108.59906,36,120,0
108.87463,109.144516,49,120,0
108.87463,109.144516,37,120,0
109.42008,109.68997,45,120,0
109.42008,109.68997,33,120,0
109.96554,110.23543,50,120,0
109.96554,110.23543,38,120,0
110.510994,110.780876,52,120,0
110.510994,110.780876,40,120,0
110.78372,110.917244,38,120,0
110.92008,111.053604,42,119,0
111.05645,111.18997,43,117,0
111.19281,111.32633,47,115,0
111.32917,111.4627,50,113,0
111.46554,111.59906,54,111,0
111.6019,111.73542,55,110,0
111.738266,111.87179,59,108,0
111.874626,112.00815,62,106,0
112.010994,112.144516,66,104,0
112.147354,112.280876,67,102,0
112.28372,112.417244,71,101,0
112.69281,112.82633,67,101,0
112.82917,112.96269,71,101,0
112.96554,113.09906,73,102,0
113.1019,113.23542,74,103,0
113.238266,113.37179,76,103,0
113.374626,113.50815,74,104,0
113.51099,113.644516,78,104,0
113.647354,113.780876,79,105,0
113.783714,113.91724,81,106,0
113.92008,114.053604,79,106,0
114.05644,114.189964,82,107,0
114.19281,114.32633,83,108,0
114.32917,114.46269,84,108,0
114.46554,114.59906,83,109,0
114.6019,114.87178,86,110,0
114.874626,114.96269,62,80,0
114.96553,115.053604,64,80,0
115.05644,115.14451,66,80,0
115.147354,115.32633,55,80,0
115.32917,115.50815,71,80,0
115.51099,115.689964,67,80,0
115.6928,115.87178,66,80,0
115.874626,116.053604,71,80,0
116.05644,116.23542,67,80,0
116.23826,116.41724,63,80,0
116.420074,116.59905,72,80,0
116.6019,116.780876,67,80,0
116.783714,116.96269,60,80,0
116.96553,117.14451,72,80,0
117.14735,117.326324,67,80,0
117.32917,117.50815,59,80,0
117.51099,117.689964,71,80,0
117.6928,117.87178,67,80,0
117.87462,118.0536,55,80,0
118.05644,118.23542,71,80,0
118.23826,118.41724,67,80,0
118.420074,118.59905,60,80,0
118.60189,118.78087,72,80,0
118.783714,118.96269,67,80,0
118.96553,119.14451,63,80,0
119.14735,119.326324,72,80,0
119.32916,119.50814,67,80,0
119.51099,119.689964,62,80,0
119.6928,119.87178,70,80,0
119.87462,120.0536,67,80,0
120.056435,120.23541,62,80,0
120.23826,120.41724,71,80,0
120.420074,120.59905,67,80,0
120.60189,120.78087,62,80,0
120.78371,120.962685,72,80,0
120.96553,121.14451,69,80,0
121.14735,121.326324,50,80,0
121.32916,121.50814,62,80,0
121.51098,121.68996,60,80,0
121.6928,121.826324,43,80,0
121.82916,121.962685,55,80,0
121.96553,122.09905,59,81,0
122.10189,122.23541,55,81,0
122.23825,122.37178,54,82,0
122.37462,122.50814,55,83,0
122.51098,122.6445,67,83,0
122.64735,122.78087,55,84,0
122.78371,122.91723,52,84,0
122.920074,123.0536,55,85,0
123.056435,123.18996,67,86,0
123.192795,123.326324,55,86,0
123.32916,123.462685,48,87,0
123.46552,123.599045,55,88,0
123.60189,123.73541,64,88,0
123.73825,123.87177,55,89,0
123.87462,124.00814,47,89,0
124.01098,124.1445,55,90,0
124.14735,124.28087,62,91,0
124.28371,124.41723,55,91,0
124.42007,124.55359,43,92,0
124.556435,124.68996,55,93,0
124.692795,124.82632,59,93,0
124.82916,124.962685,55,94,0
124.96552,125.099045,48,94,0
125.10189,125.23541,55,95,0
125.23825,125.37177,64,96,0
125.37461,125.50814,55,96,0
125.51098,125.6445,52,97,0
125.64734,125.78086,55,98,0
125.78371,125.91723,67,98,0
125.92007,126.05359,55,99,0
126.056435,126.18996,50,99,0
126.192795,126.32632,52,100,0
126.32916,126.462685,54,101,0
126.46552,126.599045,55,101,0
126.60188,126.735405,57,102,0
126.73825,126.87177,59,103,0
126.87461,127.00813,57,103,0
127.01098,127.1445,55,104,0
127.14734,127.28086,54,104,0
127.28371,127.41723,55,105,0
127.42007,127.55359,54,106,0
127.55643,127.68996,52,106,0
127.692795,127.82632,50,107,0
127.829155,127.96268,48,108,0
127.96552,128.09904,47,108,0
128.10188,128.23541,45,109,0
128.23825,128.37177,31,120,0
128.37462,128.50813,43,120,0
128.51097,128.6445,31,120,0
128.64734,128.78087,43,120,0
128.7837,128.91722,31,120,0
128.92006,129.05359,43,120,0
129.05643,129.18996,31,120,0
129.1928,129.32631,43,120,0
129.32916,129.46268,31,120,0
129.46552,129.59904,43,120,0
129.60188,129.73541,31,120,0
129.73825,129.87177,43,120,0
129.8746,130.00813,31,120,0
130.01097,130.1445,43,120,0
130.14734,130.28085,32,80,0
130.2837,130.41722,44,80,0
130.42006,130.55359,33,80,0
130.55643,130.68996,45,80,0
130.6928,130.82631,32,80,0
130.82915,130.96268,44,80,0
130.96552,131.09904,33,80,0
131.10188,131.2354,45,80,0
131.23825,131.37177,36,80,0
131.3746,131.50813,48,80,0
131.51097,131.6445,37,80,0
131.64734,131.78085,49,80,0
131.78369,131.91722,40,80,0
131.92006,132.05359,52,80,0
132.05643,132.18994,38,80,0
132.1928,132.32631,50,80,0
132.32915,132.46268,38,80,0
132.46552,132.59904,50,80,0
132.60188,132.7354,38,80,0
132.73825,132.87177,50,81,0
132.8746,133.00813,43,83,0
133.01097,133.14449,55,85,0
133.14734,133.28085,38,87,0
133.28369,133.41722,50,89,0
133.42006,133.55359,50,91,0
133.55643,133.68994,62,93,0
133.6928,133.82631,38,95,0
133.82915,133.96268,50,97,0
133.96552,134.09904,43,99,0
134.10188,134.2354,55,101,0
134.23824,134.37177,38,103,0
134.3746,134.50813,50,105,0
134.51097,134.64449,50,107,0
134.64734,134.78085,62,109,0
134.78369,134.91722,43,110,0
134.92006,135.05359,55,110,0
135.05643,135.18994,38,110,0
135.19278,135.32631,50,110,0
135.32915,135.46268,42,110,0
135.46552,135.59903,54,110,0
135.60188,135.7354,45,110,0
135.73824,135.87177,57,110,0
135.8746,136.00813,43,110,0
136.01097,136.14449,55,110,0
136.14732,136.28085,38,110,0
136.28369,136.41722,50,110,0
136.42006,136.55357,30,110,0
136.55643,136.68994,42,110,0
136.69278,136.82631,33,110,0
136.82915,136.96268,45,110,0
136.96552,137.2354,43,120,0
136.96552,137.2354,31,120,0
137.51097,137.78085,45,120,0
137.51097,137.78085,33,120,0
138.05643,139.00812,46,120,0
138.05643,139.00812,34,120,0
139.01097,139.14449,46,80,0
139.14732,139.55357,58,80,0
139.55641,139.68994,58,80,0
139.69278,141.05357,58,80,0
141.19278,141.32631,50,80,0
141.32915,141.7354,62,80,0
141.73824,141.87175,62,80,0
141.8746,143.50812,62,80,0
143.3746,143.50812,34,80,0
143.51096,143.9172,62,120,0
143.51096,143.9172,58,120,0
143.51096,143.9172,53,120,0
143.92004,144.05357,62,120,0
143.92004,144.05357,58,120,0
143.92004,144.05357,53,120,0
144.05641,144.3263,62,120,0
144.05641,144.3263,58,120,0
144.05641,144.3263,53,120,0
144.32915,144.46266,62,120,0
144.32915,144.46266,58,120,0
144.32915,144.46266,53,120,0
144.4655,144.59903,62,120,0
144.4655,144.59903,58,120,0
144.4655,144.59903,53,120,0
144.60187,144.87175,58,120,0
144.60187,144.87175,53,120,0
144.60187,144.87175,62,120,0
144.87459,145.14449,58,120,0
144.87459,145.14449,53,120,0
144.87459,145.14449,50,120,0
145.55641,145.68994,34,120,0
145.69278,146.09903,65,120,0
145.69278,146.09903,62,120,0
145.69278,146.09903,58,120,0
145.69278,146.09903,53,120,0
146.10187,146.23538,65,120,0
146.10187,146.23538,62,120,0
146.10187,146.23538,58,120,0
146.10187,146.23538,53,120,0
146.23824,146.50812,65,120,0
146.23824,146.50812,62,120,0
146.23824,146.50812,58,120,0
146.23824,146.50812,53,120,0
146.51096,146.64449,65,120,0
146.51096,146.64449,62,120,0
146.51096,146.64449,58,120,0
146.51096,146.64449,53,120,0
146.64732,146.78084,65,120,0
146.64732,146.78084,62,120,0
146.64732,146.78084,58,120,0
146.64732,146.78084,53,120,0
146.78369,147.05357,65,120,0
146.78369,147.05357,62,120,0
146.78369,147.05357,58,120,0
146.78369,147.05357,53,120,0
147.05641,147.87175,62,120,0
147.05641,147.87175,58,120,0
147.05641,147.87175,53,120,0
149.23822,149.50812,64,80,0
149.51096,149.78084,65,80,0
149.78368,150.05357,59,80,0
150.05641,150.3263,60,80,0
150.32913,150.59901,54,80,0
150.60187,150.87175,55,80,0
150.87459,151.14447,51,80,0
151.14732,151.4172,50,80,0
151.42004,151.70277,49,80,0
151.70575,152.00262,48,80,0
152.00575,152.30263,41,80,0
152.30576,152.63562,46,80,0
152.63908,153.0364,39,80,0
153.04088,153.89355,41,80,0
155.26166,155.53154,76,80,0
155.53438,155.80426,77,80,0
155.80711,156.077,71,80,0
156.07983,156.34972,72,80,0
156.35255,156.62245,66,80,0
156.62529,156.89517,67,80,0
156.89801,157.16791,63,80,0
157.17075,157.44063,62,80,0
157.44347,157.71335,61,81,0
157.7162,157.98608,60,83,0
157.98892,158.2588,53,84,0
158.26164,158.53154,58,86,0
158.53438,158.80426,54,87,0
158.8071,159.077,53,89,0
159.07983,159.34972,51,90,0
159.35255,159.62244,50,92,0
159.62529,159.89517,49,93,0
159.89801,160.1679,48,95,0
160.17075,160.44063,41,96,0
160.44347,160.71335,46,98,0
160.71619,160.98608,42,99,0
160.98892,161.2588,41,101,0
161.26164,161.53154,39,103,0
161.53438,161.80426,38,104,0
161.8071,162.07698,37,106,0
162.07983,162.34972,36,107,0
162.35255,162.62244,30,109,0
162.62527,162.89517,31,110,0
162.89801,163.1679,39,110,0
163.17073,163.44063,41,110,0
163.44347,163.71335,41,110,0
163.44347,163.71335,29,110,0
163.71619,163.84972,46,110,0
163.71619,163.84972,34,110,0
163.85255,163.98607,62,110,0
163.85255,163.98607,58,110,0
163.85255,163.98607,53,110,0
163.98892,164.12244,62,110,0
163.98892,164.12244,58,110,0
163.98892,164.12244,53,110,0
164.12527,164.2588,62,110,0
164.12527,164.2588,58,110,0
164.12527,164.2588,53,110,0
164.39801,164.53152,58,110,0
164.39801,164.53152,53,110,0
164.39801,164.53152,50,110,0
164.53438,164.6679,58,110,0
164.53438,164.6679,53,110,0
164.53438,164.6679,50,110,0
164.67073,164.80426,58,110,0
164.67073,164.80426,53,110,0
164.67073,164.80426,50,110,0
164.94347,165.07698,62,80,0
164.94347,165.07698,58,80,0
164.94347,165.07698,53,80,0
165.21619,165.34972,58,80,0
165.21619,165.34972,50,80,0
165.48892,165.62244,62,80,0
165.48892,165.62244,58,80,0
165.48892,165.62244,53,80,0
165.76164,165.89517,60,80,0
165.76164,165.89517,58,80,0
165.76164,165.89517,51,80,0
165.89801,166.03152,46,110,0
165.89801,166.03152,34,110,0
166.03436,166.1679,63,110,0
166.03436,166.1679,58,110,0
166.03436,166.1679,55,110,0
166.17073,166.30426,63,110,0
166.17073,166.30426,58,110,0
166.17073,166.30426,55,110,0
166.3071,166.44061,63,110,0
166.3071,166.44061,58,110,0
166.3071,166.44061,55,110,0
166.57982,166.71335,60,110,0
166.57982,166.71335,57,110,0
166.57982,166.71335,51,110,0
166.71619,166.84972,60,110,0
166.71619,166.84972,57,110,0
166.71619,166.84972,51,110,0
166.85255,166.98607,60,110,0
166.85255,166.98607,57,110,0
166.85255,166.98607,51,110,0
167.12527,167.2588,63,80,0
167.12527,167.2588,58,80,0
167.12527,167.2588,55,80,0
167.39801,167.53152,61,80,0
167.39801,167.53152,58,80,0
167.39801,167.53152,52,80,0
167.67073,167.80426,63,80,0
167.67073,167.80426,58,80,0
167.67073,167.80426,54,80,0
167.94345,168.07698,62,80,0
167.94345,168.07698,58,80,0
167.94345,168.07698,53,80,0
168.07982,168.21335,46,110,0
168.07982,168.21335,34,110,0
168.21619,168.3497,65,110,0
168.21619,168.3497,58,110,0
168.21619,168.3497,56,110,0
168.35255,168.48607,65,110,0
168.35255,168.48607,58,110,0
168.35255,168.48607,56,110,0
168.4889,168.62244,65,110,0
168.4889,168.62244,58,110,0
168.4889,168.62244,56,110,0
168.76164,168.89516,62,110,0
168.76164,168.89516,58,110,0
168.76164,168.89516,53,110,0
168.898,169.03152,62,110,0
168.898,169.03152,58,110,0
168.898,169.03152,53,110,0
169.03436,169.1679,62,110,0
169.03436,169.1679,58,110,0
169.03436,169.1679,53,110,0
169.3071,169.44061,65,80,0
169.3071,169.44061,58,80,0
169.3071,169.44061,56,80,0
169.57982,169.71335,62,80,0
169.57982,169.71335,58,80,0
169.57982,169.71335,54,80,0
169.85255,169.98607,65,80,0
169.85255,169.98607,58,80,0
169.85255,169.98607,56,80,0
170.12527,170.25879,63,80,0
170.12527,170.25879,58,80,0
170.12527,170.25879,55,80,0
170.26164,170.39516,46,110,0
170.26164,170.39516,34,110,0
170.398,170.53152,67,110,0
170.398,170.53152,63,110,0
170.398,170.53152,58,110,0
170.53436,170.6679,67,110,0
170.53436,170.6679,63,110,0
170.53436,170.6679,58,110,0
170.67073,170.80424,67,110,0
170.67073,170.80424,63,110,0
170.67073,170.80424,58,110,0
170.94345,171.07698,63,110,0
170.94345,171.07698,58,110,0
170.94345,171.07698,55,110,0
171.07982,171.21335,63,110,0
171.07982,171.21335,58,110,0
171.07982,171.21335,55,110,0
171.21619,171.3497,63,110,0
171.21619,171.3497,58,110,0
171.21619,171.3497,55,110,0
171.4889,171.62244,67,81,0
171.4889,171.62244,63,81,0
171.4889,171.62244,58,81,0
171.76164,171.89516,64,83,0
171.76164,171.89516,61,83,0
171.76164,171.89516,58,83,0
172.03436,172.1679,66,86,0
172.03436,172.1679,63,86,0
172.03436,172.1679,58,86,0
172.30708,172.44061,65,89,0
172.30708,172.44061,62,89,0
172.30708,172.44061,58,89,0
172.57982,172.71333,68,91,0
172.57982,172.71333,65,91,0
172.57982,172.71333,58,91,0
172.85254,172.98607,66,94,0
172.85254,172.98607,62,94,0
172.85254,172.98607,58,94,0
173.12527,173.25879,68,96,0
173.12527,173.25879,65,96,0
173.12527,173.25879,58,96,0
173.398,173.53152,67,99,0
173.398,173.53152,63,99,0
173.398,173.53152,58,99,0
173.67073,173.80424,67,102,0
173.67073,173.80424,63,102,0
173.67073,173.80424,60,102,0
173.67073,173.80424,58,102,0
173.94345,174.07698,68,104,0
173.94345,174.07698,63,104,0
173.94345,174.07698,60,104,0
173.94345,174.07698,58,104,0
174.21619,174.3497,70,107,0
174.21619,174.3497,63,107,0
174.21619,174.3497,60,107,0
174.21619,174.3497,58,107,0
174.4889,174.62242,69,109,0
174.4889,174.62242,63,109,0
174.4889,174.62242,60,109,0
174.4889,174.62242,58,109,0
174.76163,174.89516,72,110,0
174.76163,174.89516,60,110,0
175.03436,175.16788,70,110,0
175.03436,175.16788,58,110,0
175.30708,175.44061,67,110,0
175.30708,175.44061,55,110,0
175.57982,175.71333,65,110,0
175.57982,175.71333,53,110,0
175.85254,175.98607,63,110,0
175.85254,175.98607,51,110,0
176.12527,176.25879,50,110,0
176.12527,176.25879,62,110,0
176.398,176.53152,60,110,0
176.398,176.53152,48,110,0
176.67072,176.80424,58,110,0
176.67072,176.80424,46,110,0
176.94345,177.07697,55,110,0
176.94345,177.07697,43,110,0
177.21617,177.3497,53,110,0
177.21617,177.3497,41,110,0
177.4889,177.62242,51,110,0
177.4889,177.62242,39,110,0
177.76163,177.89516,50,110,0
177.76163,177.89516,38,110,0
178.03436,178.16788,48,110,0
178.03436,178.16788,36,110,0
178.30708,178.44061,46,110,0
178.30708,178.44061,34,110,0
178.5798,178.71333,31,110,0
178.5798,178.71333,43,110,0
178.85254,178.98605,41,110,0
178.85254,178.98605,29,110,0
179.12526,179.66788,33,109,0
179.398,179.9406,29,106,0
179.67072,180.2197,36,104,0
179.94345,180.5054,29,101,0
180.22267,180.79112,41,98,0
180.50838,181.07683,29,95,0
180.7941,181.36954,45,93,0
181.0798,181.66954,29,90,0
181.37267,181.98586,48,87,0
181.67267,182.3192,29,84,0
181.98933,182.67293,53,82,0
182.32266,183.04793,29,79,0
182.67683,183.42293,53,76,0
183.05183,183.92162,29,73,0
183.42683,184.11043,53,71,0
183.92683,184.11043,29,110,0
184.11433,184.52058,62,110,0
184.11433,184.52058,58,110,0
184.11433,184.52058,53,110,0
184.52342,184.65695,62,110,0
184.52342,184.65695,58,110,0
184.52342,184.65695,53,110,0
184.65979,184.92967,62,110,0
184.65979,184.92967,58,110,0
184.65979,184.92967,53,110,0
184.93251,185.06604,62,110,0
184.93251,185.06604,58,110,0
184.93251,185.06604,53,110,0
185.06888,185.2024,62,110,0
185.06888,185.2024,58,110,0
185.06888,185.2024,53,110,0
185.20525,185.47513,62,110,0
185.20525,185.47513,58,110,0
185.20525,185.47513,53,110,0
185.47797,185.74785,58,110,0
185.47797,185.74785,53,110,0
185.47797,185.74785,50,110,0
186.15979,186.2933,34,110,0
186.29614,186.7024,62,110,0
186.29614,186.7024,58,110,0
186.29614,186.7024,53,110,0
186.29614,186.7024,50,110,0
186.70523,186.83876,62,110,0
186.70523,186.83876,58,110,0
186.70523,186.83876,53,110,0
186.70523,186.83876,50,110,0
186.8416,187.13847,62,110,0
186.8416,187.13847,50,110,0
187.1416,187.3048,62,110,0
187.1416,187.3048,57,110,0
187.1416,187.3048,54,110,0
187.1416,187.3048,50,110,0
187.30827,187.47147,62,110,0
187.30827,187.47147,57,110,0
187.30827,187.47147,54,110,0
187.30827,187.47147,50,110,0
187.47493,187.8048,62,110,0
187.47493,187.8048,57,110,0
187.47493,187.8048,54,110,0
187.47493,187.8048,50,110,0
187.80827,189.47147,50,110,0
187.80827,189.47147,54,110,0
187.80827,189.47147,57,110,0
187.80827,189.47147,62,110,0
189.97493,190.13812,50,80,0
190.1416,190.54785,62,80,0
190.55069,190.6842,50,80,0
190.68706,191.0933,62,80,0
191.09615,191.22966,50,80,0
191.23251,191.63876,62,80,0
191.6416,191.77512,50,80,0
191.77795,192.1842,62,80,0
192.18706,192.32057,50,80,0
192.32341,192.72966,60,80,0
192.32341,192.72966,57,80,0
192.7325,192.86603,50,83,0
192.86887,193.27512,60,84,0
192.86887,193.27512,57,84,0
193.27795,193.41148,50,87,0
193.41432,193.82057,57,88,0
193.41432,193.82057,54,88,0
193.82341,193.95694,50,91,0
193.95978,194.36603,45,92,0
194.36887,194.5024,50,96,0
194.50523,194.91148,45,97,0
194.91432,195.04784,50,100,0
195.05069,195.45694,43,101,0
195.45978,195.59329,50,104,0
195.59615,196.0024,41,105,0
196.00523,196.13875,50,108,0
196.14159,196.54784,39,109,0
196.55069,196.6842,50,110,0
196.68704,196.95694,50,110,0
196.68704,196.95694,38,110,0
196.95978,197.09329,75,110,0
197.09613,197.22966,74,108,0
197.2325,197.50238,75,106,0
197.50523,197.63875,74,101,0
197.64159,197.77512,73,99,0
197.77795,198.04784,74,97,0
198.05067,198.1842,63,92,0
198.18704,198.32057,62,90,0
198.32341,198.59329,63,87,0
198.59613,198.72966,62,83,0
198.7325,198.86603,61,81,0
198.86887,199.13875,62,80,0
199.27795,199.41147,50,80,0
199.41432,199.6842,54,80,0
199.82341,199.95692,57,80,0
199.95978,200.22966,60,80,0
200.36887,200.50238,66,80,0
200.50522,200.77512,69,80,0
200.77795,200.91147,72,80,0
200.91432,201.04784,69,80,0
201.05067,201.1842,81,80,0
201.18704,201.32057,83,80,0
201.32341,201.45692,84,80,0
201.45976,201.59329,81,80,0
201.59613,201.72966,72,80,0
201.7325,201.86601,74,80,0
201.86887,202.00238,76,80,0
202.00522,202.13875,72,80,0
202.14159,202.27512,69,80,0
202.27795,202.41147,71,80,0
202.4143,202.54784,72,80,0
202.55067,202.6842,69,80,0
202.68704,202.82056,66,80,0
202.82341,202.95692,67,80,0
202.95976,203.09329,69,80,0
203.09613,203.22966,66,80,0
203.2325,203.50238,71,80,0
203.2325,203.50238,67,80,0
203.2325,203.50238,62,80,0
203.64159,203.7751,50,80,0
203.77795,204.04784,55,80,0
204.18704,204.32056,59,80,0
204.32341,204.59329,62,80,0
204.7325,204.86601,67,80,0
204.86885,205.13875,71,80,0
205.27795,205.41147,74,80,0
205.4143,205.54784,79,80,0
205.55067,205.6842,81,80,0
205.68704,205.82056,83,80,0
205.8234,205.95692,79,80,0
205.95976,206.09329,71,80,0
206.09613,206.22964,72,80,0
206.2325,206.36601,74,80,0
206.36885,206.50238,71,80,0
206.50522,206.63875,67,80,0
206.64159,206.7751,69,80,0
206.77794,206.91147,71,80,0
206.9143,207.04784,67,80,0
207.05067,207.18419,71,80,0
207.18704,207.32056,72,80,0
207.3234,207.45692,74,80,0
207.45976,207.59329,71,80,0
207.59613,207.72964,72,80,0
207.73248,207.86601,74,80,0
207.86885,208.00238,72,80,0
208.00522,208.13873,71,80,0
208.14159,208.2751,72,80,0
208.27794,208.41147,74,80,0
208.4143,208.54784,76,80,0
208.55067,208.68419,72,80,0
208.68703,208.82056,69,80,0
208.8234,208.95692,71,80,0
208.95976,209.09328,72,80,0
209.09613,209.22964,69,80,0
209.23248,209.36601,66,80,0
209.36885,209.50238,67,80,0
209.50522,209.63873,69,80,0
209.64159,209.7751,66,80,0
209.77794,209.91147,60,80,0
209.9143,210.04782,62,80,0
210.05067,210.18419,64,80,0
210.18703,210.32056,60,80,0
210.3234,210.45692,57,80,0
210.45976,210.59328,59,80,0
210.59613,210.72964,60,80,0
210.73248,210.86601,57,80,0
210.86885,211.00238,54,80,0
211.00522,211.13873,55,80,0
211.14157,211.2751,57,80,0
211.27794,211.41147,54,80,0
211.4143,211.54782,69,80,0
211.55067,211.68419,67,80,0
211.68703,211.82056,66,80,0
211.8234,211.95692,69,80,0
211.95976,212.09328,71,80,0
212.09612,212.22964,72,80,0
212.23248,212.36601,71,80,0
212.36885,212.50237,69,80,0
212.50522,212.63873,71,80,0
212.64157,212.7751,72,80,0
212.77794,212.91147,74,80,0
212.9143,213.04782,71,80,0
213.05066,213.18419,67,80,0
213.18703,213.32056,69,80,0
213.3234,213.45691,71,80,0
213.45976,213.59328,67,80,0
213.59612,213.72964,62,80,0
213.73248,213.86601,66,80,0
213.86885,214.00237,67,80,0
214.00522,214.13873,62,80,0
214.14157,214.2751,59,80,0
214.27794,214.41145,60,80,0
214.4143,214.54782,62,80,0
214.55066,214.68419,59,80,0
214.68703,214.82056,55,80,0
214.8234,214.95691,57,80,0
214.95976,215.09328,59,80,0
215.09612,215.22964,55,80,0
215.23248,215.36601,50,80,0
215.36885,215.50237,54,80,0
215.5052,215.63873,55,80,0
215.64157,215.7751,50,80,0
215.77794,215.91145,48,80,0
215.9143,216.04782,55,80,0
216.05066,216.18419,50,80,0
216.18703,216.32056,48,80,0
216.3234,216.59328,47,80,0
216.59612,216.866,55,80,0
216.59612,216.866,43,80,0
216.86885,217.00237,52,80,0
216.86885,217.00237,48,80,0
217.14157,217.2751,60,80,0
217.27794,217.41145,57,80,0
217.41429,217.68419,54,80,0
217.68703,217.96976,62,80,0
217.68703,217.96976,50,80,0
217.97273,218.11263,59,80,0
217.97273,218.11263,55,80,0
218.25845,218.85533,55,80,0
218.25845,218.85533,64,80,0
218.85846,219.15533,64,80,0
218.85846,219.15533,55,80,0
219.15845,219.48831,66,80,0
219.15845,219.48831,57,80,0
219.49179,219.65498,67,80,0
219.49179,219.82164,57,80,0
219.65845,219.82164,69,80,0
219.82512,220.19621,69,80,0
220.20012,220.47746,71,80,0
220.48137,220.57121,73,80,0
219.82512,220.94621,62,80,0
220.57512,220.94621,74,80,0
220.95012,221.10472,76,80,0
221.10802,221.26262,78,80,0
221.26591,221.5358,79,80,0
221.53864,221.80852,74,80,0
221.53864,221.80852,71,80,0
221.81136,221.94489,76,80,0
221.81136,221.94489,72,80,0
222.08409,222.2176,69,80,0
222.22046,222.35397,72,80,0
222.35681,222.62671,74,80,0
222.62955,222.89943,69,80,0
222.62955,222.89943,66,80,0
222.90227,223.0358,71,80,0
222.90227,223.0358,67,80,0
223.44772,223.7176,71,80,0
223.44772,223.7176,67,80,0
223.44772,223.7176,64,80,0
223.72046,224.00319,72,80,0
223.72046,224.00319,67,80,0
223.72046,224.00319,64,80,0
224.00616,224.15305,67,80,0
224.00616,224.30304,72,80,0
224.00616,224.30304,64,80,0
224.15616,224.30304,69,80,0
224.30617,224.63603,71,80,0
224.30617,224.63603,66,80,0
224.30617,224.63603,63,80,0
224.6395,224.93637,71,80,0
224.6395,224.93637,66,80,0
224.6395,224.93637,63,80,0
224.9395,225.20938,63,80,0
224.9395,225.20938,59,80,0
225.21222,225.48212,67,80,0
225.21222,225.48212,64,80,0
225.48495,225.61847,65,80,0
225.48495,225.61847,62,80,0
225.62132,225.75484,64,80,0
225.62132,225.75484,61,80,0
225.75768,226.02757,64,80,0
225.75768,226.02757,61,80,0
226.03041,226.3003,61,80,0
226.03041,226.3003,57,80,0
226.30313,226.57301,65,80,0
226.30313,226.57301,62,80,0
226.57587,226.70938,63,80,0
226.57587,226.70938,60,80,0
226.71222,226.84575,62,80,0
226.71222,226.84575,59,80,0
226.84859,227.11847,62,80,0
226.84859,227.11847,59,80,0
227.1213,227.3912,59,80,0
227.1213,227.3912,55,80,0
227.39404,227.66393,64,80,0
227.39404,227.66393,60,80,0
227.66676,227.8003,62,80,0
227.66676,227.8003,59,80,0
227.80313,227.93666,61,80,0
227.80313,227.93666,58,80,0
227.9395,228.20938,58,80,0
227.9395,228.20938,61,80,0
228.21222,228.4821,58,80,0
228.21222,228.4821,54,80,0
228.48495,228.75484,62,80,0
228.48495,228.75484,59,80,0
228.75768,228.8912,60,80,0
228.75768,228.8912,57,80,0
228.89404,229.3003,56,80,0
228.89404,229.3003,59,80,0
229.30313,229.43665,57,80,0
229.30313,229.57301,64,80,0
229.4395,229.57301,55,80,0
229.57585,229.84575,57,80,0
229.57585,229.84575,54,80,0
229.84859,229.9821,55,80,0
229.84859,230.11847,59,80,0
229.98495,230.11847,47,80,0
230.1213,231.75484,45,80,0
230.1213,231.75484,50,80,0
230.1213,231.75484,60,80,0
231.75768,232.3003,59,80,0
231.75768,232.3003,50,80,0
231.75768,232.3003,47,80,0
232.30313,233.93665,45,80,0
232.30313,233.93665,50,80,0
232.30313,233.93665,60,80,0
233.93948,234.4821,59,80,0
233.93948,234.4821,50,80,0
233.93948,234.4821,47,80,0
234.48494,235.02756,47,80,0
234.48494,235.02756,35,80,0
235.0304,235.57301,52,80,0
235.0304,235.57301,40,80,0
235.57585,236.11847,49,80,0
235.57585,236.11847,37,80,0
236.1213,236.39119,50,80,0
236.1213,236.39119,38,80,0
236.66676,238.30028,57,80,0
236.66676,238.30028,62,80,0
236.66676,238.30028,72,80,0
238.30312,238.84573,71,80,0
238.30312,238.84573,62,80,0
238.30312,238.84573,59,80,0
238.84857,240.4821,45,80,0
238.84857,240.4821,50,80,0
238.84857,240.4821,60,80,0
240.48494,240.75482,59,80,0
240.48494,240.75482,50,80,0
240.48494,240.75482,47,80,0
240.75766,241.02756,59,80,0
241.0304,241.573,59,80,0
241.57585,242.11845,64,80,0
242.12129,242.66391,61,80,0
242.66675,242.93665,62,80,0
242.93948,243.20937,63,80,0
243.2122,243.75482,65,80,0
243.75766,244.30028,69,83,0
244.30312,244.84573,66,87,0
244.84857,245.11845,67,91,0
245.12129,245.39119,68,93,0
245.39403,245.93663,69,94,0
245.93948,246.48209,73,98,0
246.48492,247.02754,71,102,0
247.03038,247.84572,60,106,0
247.03038,247.84572,72,106,0
247.84857,248.11845,48,120,0
247.84857,248.11845,36,120,0
248.93947,249.20937,64,120,0
248.93947,249.20937,60,120,0
249.2122,249.48209,62,120,0
249.2122,249.48209,59,120,0
249.48492,249.61845,64,120,0
249.48492,249.61845,60,120,0
249.62129,249.75482,65,120,0
249.62129,249.75482,62,120,0
249.75766,250.02754,67,120,0
249.75766,250.02754,64,120,0
250.03038,250.84572,48,120,0
250.03038,250.84572,36,120,0
251.12129,251.39117,49,120,0
251.12129,251.39117,37,120,0
251.66675,251.93663,45,120,0
251.66675,251.93663,33,120,0
252.2122,252.48209,50,120,0
252.2122,252.48209,38,120,0
252.75766,253.02754,52,120,0
252.75766,253.02754,40,120,0
253.03038,253.1639,38,120,0
253.16675,253.30026,42,119,0
253.3031,253.43663,43,117,0
253.43947,253.573,47,115,0
253.57584,253.70935,50,113,0
253.7122,253.84572,54,111,0
253.84856,253.98209,55,110,0
253.98492,254.11845,59,108,0
254.12129,254.2548,62,106,0
254.25764,254.39117,66,104,0
254.39401,254.52754,67,102,0
254.53038,254.6639,71,101,0
254.93947,255.073,67,101,0
255.07584,255.20935,71,101,0
255.21219,255.34572,73,102,0
255.34856,255.48209,74,103,0
255.48492,255.61844,76,103,0
255.62129,255.7548,74,104,0
255.75764,255.89117,78,104,0
255.89401,256.02753,79,105,0
256.03036,256.1639,81,106,0
256.16675,256.30026,79,106,0
256.3031,256.4366,82,107,0
256.43945,256.573,83,108,0
256.57584,256.70935,84,108,0
256.7122,256.8457,83,109,0
256.84857,257.11844,86,110,0
257.12128,257.20935,62,80,0
257.2122,257.30026,64,80,0
257.3031,257.39117,66,80,0
257.394,257.573,55,80,0
257.57584,257.75482,71,80,0
257.75766,257.9366,67,80,0
257.93945,258.11844,66,80,0
258.12128,258.30026,71,80,0
258.3031,258.4821,67,80,0
258.48492,258.6639,63,80,0
258.66675,258.8457,72,80,0
258.84854,259.02753,67,80,0
259.03036,259.20935,60,80,0
259.2122,259.39117,72,80,0
259.394,259.573,67,80,0
259.57584,259.7548,59,80,0
259.75766,259.9366,71,80,0
259.93945,260.11844,67,80,0
260.12128,260.30026,55,80,0
260.3031,260.4821,71,80,0
260.48492,260.66388,67,80,0
260.66675,260.8457,60,80,0
260.84854,261.02753,72,80,0
261.03036,261.20935,67,80,0
261.2122,261.39117,63,80,0
261.394,261.573,72,80,0
261.57584,261.7548,67,80,0
261.75763,261.9366,62,80,0
261.93945,262.11844,70,80,0
262.12128,262.30026,67,80,0
262.3031,262.4821,62,80,0
262.48492,262.66388,71,80,0
262.66675,262.8457,67,80,0
262.84854,263.02753,62,80,0
263.03036,263.20935,72,80,0
263.2122,263.39117,69,80,0
263.394,263.57297,50,80,0
263.57584,263.7548,62,80,0
263.75763,263.9366,60,80,0
263.93945,264.07297,43,80,0
264.07584,264.20935,55,80,0
264.2122,264.3457,59,81,0
264.34854,264.4821,55,81,0
264.48492,264.61844,54,82,0
264.62128,264.7548,55,83,0
264.75763,264.89117,67,83,0
264.894,265.02753,55,84,0
265.03036,265.16388,52,84,0
265.16672,265.30026,55,85,0
265.3031,265.4366,67,86,0
265.43945,265.57297,55,86,0
265.57584,265.70935,48,87,0
265.7122,265.8457,55,88,0
265.84854,265.9821,64,88,0
265.98492,266.11844,55,89,0
266.12128,266.2548,47,89,0
266.25763,266.39117,55,90,0
266.394,266.52753,62,91,0
266.53036,266.66388,55,91,0
266.66672,266.80026,43,92,0
266.8031,266.9366,55,93,0
266.93945,267.07297,59,93,0
267.0758,267.20935,55,94,0
267.2122,267.3457,48,94,0
267.34854,267.48206,55,95,0
267.48492,267.61844,64,96,0
267.62128,267.7548,55,96,0
267.75763,267.89117,52,97,0
267.894,268.02753,55,98,0
268.03036,268.16388,67,98,0
268.16672,268.30026,55,99,0
268.3031,268.4366,50,99,0
268.43945,268.57297,52,100,0
268.5758,268.70935,54,101,0
268.7122,268.8457,55,101,0
268.84854,268.98206,57,102,0
268.9849,269.11844,59,103,0
269.12128,269.2548,57,103,0
269.25763,269.39114,55,104,0
269.394,269.52753,54,104,0
269.53036,269.66388,55,105,0
269.66672,269.80026,54,106,0
269.8031,269.9366,52,106,0
269.93945,270.07297,50,107,0
270.0758,270.20935,48,108,0
270.2122,270.3457,47,108,0
270.34854,270.48206,45,109,0
270.4849,270.61844,31,120,0
270.62128,270.7548,43,120,0
270.75763,270.89114,31,120,0
270.894,271.02753,43,120,0
271.03036,271.16388,31,120,0
271.16672,271.30026,43,120,0
271.3031,271.4366,31,120,0
271.43945,271.57297,43,120,0
271.5758,271.70935,31,120,0
271.7122,271.8457,43,120,0
271.84854,271.98206,31,120,0
271.9849,272.11844,43,120,0
272.12128,272.2548,31,120,0
272.25763,272.39114,43,120,0
272.39398,272.52753,32,80,0
272.53036,272.66388,44,80,0
272.66672,272.80023,33,80,0
272.8031,272.9366,45,80,0
272.93945,273.07297,32,80,0
273.0758,273.20935,44,80,0
273.2122,273.3457,33,80,0
273.34854,273.48206,45,80,0
273.4849,273.61844,36,80,0
273.62128,273.7548,48,80,0
273.75763,273.89114,37,80,0
273.89398,274.02753,49,80,0
274.03036,274.16388,40,80,0
274.16672,274.30023,52,80,0
274.3031,274.4366,38,80,0
274.43945,274.57297,50,80,0
274.5758,274.70932,38,80,0
274.7122,274.8457,50,80,0
274.84854,274.98206,38,80,0
274.9849,275.11844,50,81,0
275.12128,275.2548,43,83,0
275.25763,275.39114,55,85,0
275.39398,275.52753,38,87,0
275.53036,275.66388,50,89,0
275.66672,275.80023,50,91,0
275.80307,275.9366,62,93,0
275.93945,276.07297,38,95,0
276.0758,276.20932,50,97,0
276.2122,276.3457,43,99,0
276.34854,276.48206,55,101,0
276.4849,276.61844,38,103,0
276.62128,276.7548,50,105,0
276.75763,276.89114,50,107,0
276.89398,277.02753,62,109,0
277.03036,277.16388,43,110,0
277.16672,277.30023,55,110,0
277.30307,277.4366,38,110,0
277.43945,277.57297,50,110,0
277.5758,277.70932,42,110,0
277.71216,277.8457,54,110,0
277.84854,277.98206,45,110,0
277.9849,278.1184,57,110,0
278.12128,278.2548,43,110,0
278.25763,278.39114,55,110,0
278.39398,278.52753,38,110,0
278.53036,278.66388,50,110,0
278.66672,278.80023,30,110,0
278.80307,278.9366,42,110,0
278.93945,279.07297,33,110,0
279.0758,279.20932,45,110,0
279.21216,279.48206,43,120,0
279.21216,279.48206,31,120,0
279.75763,280.0275,45,120,0
279.75763,280.0275,33,120,0
280.30307,282.48206,35,120,0
280.30307,282.48206,47,120,0
282.4849,282.76764,47,120,0
282.4849,282.76764,35,120,0
283.05634,283.3532,48,120,0
283.05634,283.3532,36,120,0
283.6563,285.65286,38,120,0
283.6563,285.65286,50,120,0
286.323,286.4565,71,70,0
286.45935,286.59286,67,70,0
286.5957,286.72925,71,70,0
286.7321,286.8656,67,70,0
286.86844,287.00195,71,70,0
287.0048,287.13834,67,70,0
287.14117,287.2747,72,70,0
287.27753,287.41104,67,70,0
287.4139,287.54742,74,70,0
287.55026,287.68378,67,70,0
287.6866,287.82016,72,70,0
287.823,287.9565,67,70,0
287.95935,288.09286,71,70,0
288.0957,288.22925,67,70,0
288.2321,288.3656,74,70,0
288.36844,288.50195,67,70,0
288.5048,288.63834,72,70,0
288.64117,288.7747,67,70,0
288.77753,288.91104,72,70,0
288.91388,289.04742,67,70,0
289.05026,289.18378,72,70,0
289.1866,289.32013,67,70,0
289.323,289.4565,71,70,0
289.45935,289.59286,67,70,0
289.5957,289.72925,72,70,0
289.7321,289.8656,67,70,0
289.86844,290.00195,71,70,0
290.0048,290.13834,67,70,0
290.14117,290.2747,72,70,0
290.27753,290.41104,67,70,0
290.41388,290.54742,72,70,0
290.55026,290.68378,60,70,0
290.6866,290.82013,70,70,0
290.823,290.9565,58,72,0
290.95935,291.09286,70,75,0
290.95935,291.09286,62,75,0
291.0957,291.22922,58,78,0
291.2321,291.3656,70,80,0
291.2321,291.3656,62,80,0
291.36844,291.50195,58,83,0
291.5048,291.63834,70,86,0
291.5048,291.63834,63,86,0
291.64117,291.7747,58,89,0
291.77753,291.91104,70,91,0
291.77753,291.91104,65,91,0
291.91388,292.04742,58,94,0
292.05026,292.18378,70,97,0
292.05026,292.18378,63,97,0
292.1866,292.32013,58,100,0
292.32297,292.4565,70,102,0
292.32297,292.4565,62,102,0
292.45935,292.59286,58,105,0
292.5957,292.72922,44,108,0
292.7321,292.8656,56,110,0
292.86844,293.00195,43,110,0
293.0048,293.13834,55,110,0
293.14117,293.28104,55,110,0
293.28403,293.4239,67,110,0
293.42688,293.57376,41,110,0
293.57687,293.72375,53,110,0
293.72687,293.88147,53,110,0
293.88477,294.03937,65,110,0
294.04266,294.20587,39,110,0
294.20932,294.37253,48,110,0
294.376,295.37253,63,110,0
294.376,295.37253,51,110,0
296.276,296.42288,55,80,0
296.426,296.57288,58,80,0
296.876,297.02286,53,80,0
297.026,297.17288,56,80,0
297.47598,298.37286,51,80,0
297.47598,298.37286,55,80,0
298.826,298.97287,51,120,0
298.97598,299.42288,63,120,0
299.426,299.57288,63,120,0
299.576,301.22287,63,120,0
301.22598,301.37286,55,120,0
301.376,301.82288,67,120,0
301.826,301.97287,67,120,0
301.97598,303.62286,67,120,0
304.73053,304.86407,39,80,0
304.8669,305.27316,44,80,0
305.276,305.40952,44,80,0
305.41235,305.68225,44,80,0
305.6851,305.8186,46,80,0
305.82144,305.955,44,80,0
305.95782,306.2277,44,80,0
306.23053,306.50043,41,80,0
306.50327,307.04587,41,80,0
307.04874,307.3186,46,80,0
307.32144,307.45496,46,80,0
307.45782,307.59134,44,80,0
307.59418,307.86407,43,80,0
307.8669,308.00043,43,80,0
308.00327,308.13678,41,80,0
308.13962,308.40952,40,80,0
308.6851,309.2277,39,80,0
309.23053,309.50043,48,80,0
309.50327,309.63678,48,80,0
309.63962,309.77316,46,80,0
309.776,310.04587,44,80,0
310.0487,310.18225,44,80,0
310.1851,310.3186,43,80,0
310.32144,310.59134,41,80,0
310.73053,310.86404,48,80,0
310.8669,311.13678,53,81,0
311.13962,311.27316,53,81,0
311.276,311.40952,51,82,0
311.41235,311.68225,50,82,0
311.6851,311.8186,50,83,0
311.82144,311.95496,48,83,0
311.9578,312.2277,46,83,0
312.23053,312.36404,48,84,0
312.3669,312.50043,50,84,0
312.50327,312.77316,51,85,0
312.776,313.04587,43,85,0
313.0487,313.3186,44,86,0
313.32144,313.45496,53,87,0
313.32144,313.59134,48,87,0
313.4578,313.59134,51,87,0
313.59418,313.86404,50,87,0
313.59418,313.86404,46,87,0
313.86688,314.00043,46,88,0
314.00327,314.13678,48,88,0
314.13962,314.40952,50,89,0
314.41235,314.54587,51,89,0
314.5487,314.68225,53,90,0
314.5487,314.68225,58,90,0
314.6851,314.95496,55,90,0
315.77597,316.04587,48,93,0
316.0487,316.18222,48,93,0
316.0487,316.3186,60,93,0
316.1851,316.3186,50,94,0
316.32144,316.59134,52,94,0
316.59418,316.7277,53,95,0
316.73053,316.86404,55,95,0
316.86688,317.13678,53,95,0
317.41235,317.68222,53,96,0
317.6851,317.8186,53,97,0
317.82144,317.95496,51,97,0
317.9578,318.2277,59,98,0
317.9578,318.2277,50,98,0
318.23053,318.36404,50,98,0
318.36688,318.50043,51,99,0
318.50327,318.77313,53,99,0
318.77597,318.90952,55,100,0
318.50327,319.04587,59,99,0
318.91235,319.04587,56,100,0
319.0487,319.3186,55,100,0
319.59418,319.86404,55,102,0
319.86688,320.00043,55,102,0
320.00327,320.13678,53,103,0
320.13962,320.40952,51,103,0
320.13962,320.40952,60,103,0
320.41235,320.54587,51,104,0
320.5487,320.68222,53,104,0
320.41235,320.95496,60,104,0
320.68506,320.95496,55,104,0
320.9578,321.0913,57,105,0
321.09418,321.2277,59,105,0
321.23053,321.5004,60,106,0
321.50327,321.63678,50,106,0
321.63962,321.77313,52,107,0
321.77597,322.04587,53,107,0
322.0487,322.18222,41,108,0
322.18506,322.3186,43,108,0
322.32144,322.5913,44,108,0
322.59415,322.86404,46,109,0
322.86688,323.13678,47,110,0
323.13962,323.27313,46,110,0
323.27597,323.40952,34,110,0
323.41235,323.8186,39,110,0
323.82144,323.95496,39,110,0
323.9578,324.2277,39,110,0
324.23053,324.36404,41,110,0
324.36688,324.5004,39,110,0
324.50323,324.77313,39,110,0
324.50323,324.9095,48,110,0
324.77597,325.04587,36,110,0
324.91235,325.04587,48,110,0
325.0487,325.3186,48,110,0
325.32144,325.45496,50,110,0
325.0487,325.5913,36,110,0
325.4578,325.5913,48,110,0
325.59415,325.86404,48,110,0
325.59415,325.86404,44,110,0
325.86688,326.13678,44,110,0
326.00323,326.13678,43,110,0
326.13962,326.4095,41,110,0
326.41235,326.54587,41,110,0
326.13962,326.68222,44,110,0
326.5487,326.68222,39,110,0
326.68506,326.95496,53,110,0
326.68506,326.95496,38,110,0
326.9578,327.0913,53,110,0
327.09415,327.2277,51,110,0
327.23053,327.5004,50,110,0
327.50323,327.63678,50,110,0
327.23053,327.77313,38,110,0
327.63962,327.77313,48,110,0
327.77597,328.04587,46,110,0
328.0487,328.18222,46,110,0
328.18506,328.31857,44,110,0
328.32144,328.5913,43,110,0
328.59415,328.7277,43,110,0
328.32144,328.86404,46,110,0
328.73053,328.86404,41,110,0
328.86688,329.13678,55,110,0
328.86688,329.13678,40,110,0
329.13962,329.27313,55,110,0
329.27597,329.4095,53,110,0
329.41232,329.68222,52,110,0
329.68506,329.81857,52,110,0
329.41232,329.95496,40,110,0
329.8214,329.95496,50,110,0
329.9578,330.22766,48,110,0
330.23053,330.36404,48,110,0
330.36688,330.5004,46,110,0
330.50323,330.77313,48,110,0
330.50323,330.77313,44,110,0
330.77597,331.04587,52,110,0
330.77597,331.04587,43,110,0
331.0487,331.31857,53,80,0
331.3214,331.5913,48,80,0
331.0487,331.86404,41,80,0
331.59415,331.86404,53,80,0
331.86688,332.13678,51,80,0
331.86688,332.13678,42,80,0
332.13962,332.4095,50,80,0
332.41232,332.68222,50,82,0
332.13962,332.95496,43,80,0
332.68506,332.95496,55,85,0
332.9578,333.22766,53,88,0
332.9578,333.22766,43,88,0
333.2305,333.5004,51,90,0
333.50323,333.63675,56,93,0
333.63962,333.77313,55,94,0
333.2305,334.04587,44,90,0
333.77597,334.04587,53,96,0
334.0487,334.18222,53,98,0
334.0487,334.31857,45,98,0
334.18506,334.31857,51,100,0
334.3214,334.5913,50,101,0
334.3214,334.5913,46,101,0
334.59415,334.72766,58,104,0
334.59415,334.86404,47,104,0
334.7305,334.86404,56,105,0
334.86688,335.13675,48,106,0
334.86688,335.13675,55,106,0
335.1396,335.4095,50,109,0
335.1396,335.4095,53,109,0
335.41232,335.68222,48,110,0
335.41232,335.68222,44,110,0
336.36688,336.5004,51,110,0
336.36688,336.5004,48,110,0
336.50323,336.9095,56,110,0
336.50323,336.9095,53,110,0
336.91232,337.04584,56,110,0
336.91232,337.04584,53,110,0
337.0487,337.31857,56,110,0
337.0487,337.31857,53,110,0
337.3214,337.45496,58,110,0
337.3214,337.45496,55,110,0
337.4578,337.5913,56,110,0
337.4578,337.5913,53,110,0
337.59415,337.86404,56,110,0
337.59415,337.86404,53,110,0
337.86688,338.13675,53,110,0
337.86688,338.13675,49,110,0
338.1396,338.68222,53,110,0
338.1396,338.68222,49,110,0
338.68506,338.95493,61,110,0
338.68506,338.95493,58,110,0
338.9578,339.0913,61,110,0
338.9578,339.0913,58,110,0
339.09415,339.22766,60,110,0
339.09415,339.22766,56,110,0
339.2305,339.5004,58,110,0
339.2305,339.5004,55,110,0
339.50323,339.63675,58,110,0
339.50323,339.63675,53,110,0
339.6396,339.77313,56,110,0
339.6396,339.77313,53,110,0
339.77597,340.04584,55,110,0
339.77597,340.04584,52,110,0
340.3214,340.864,55,110,0
340.3214,340.864,52,110,0
340.86688,341.13675,64,110,0
340.86688,341.13675,60,110,0
341.1396,341.27313,63,110,0
341.1396,341.27313,60,110,0
341.27597,341.4095,61,110,0
341.27597,341.4095,58,110,0
341.41232,341.68222,60,110,0
341.41232,341.68222,56,110,0
341.68506,341.81857,60,110,0
341.68506,341.81857,56,110,0
341.8214,341.95493,58,110,0
341.8214,341.95493,55,110,0
341.95776,342.22766,56,110,0
341.95776,342.22766,53,110,0
342.2305,342.364,53,110,0
342.2305,342.364,50,110,0
342.36688,342.5004,55,110,0
342.36688,342.5004,51,110,0
342.50323,342.77313,56,110,0
342.50323,342.77313,53,110,0
342.77597,342.9095,51,110,0
342.77597,342.9095,48,110,0
342.91232,343.04584,53,110,0
342.91232,343.04584,50,110,0
343.04868,343.31857,55,110,0
343.04868,343.31857,51,110,0
343.3214,343.45493,50,110,0
343.3214,343.45493,47,110,0
343.45776,343.5913,51,110,0
343.45776,343.5913,48,110,0
343.59415,343.864,53,110,0
343.59415,343.864,50,110,0
343.86685,344.0004,48,110,0
343.86685,344.0004,45,110,0
344.00323,344.13675,50,110,0
344.00323,344.13675,47,110,0
344.1396,344.4095,51,110,0
344.1396,344.4095,48,110,0
344.41232,344.54584,65,110,0
344.41232,344.54584,61,110,0
344.54868,344.68222,63,110,0
344.54868,344.68222,60,110,0
344.68506,344.95493,61,110,0
344.68506,344.95493,58,110,0
344.95776,345.0913,63,110,0
344.95776,345.0913,60,110,0
345.09415,345.22766,61,110,0
345.09415,345.22766,58,110,0
345.2305,345.5004,60,110,0
345.2305,345.5004,56,110,0
345.50323,345.7731,56,110,0
345.50323,345.7731,60,110,0
345.77597,346.04584,62,110,0
345.77597,346.04584,55,110,0
346.7305,346.864,67,120,0
346.7305,346.864,71,120,0
346.86685,347.2731,67,120,0
346.86685,347.2731,71,120,0
347.27594,347.4095,59,120,0
347.27594,347.4095,55,120,0
347.41232,347.81857,59,120,0
347.41232,347.81857,55,120,0
347.8214,347.95493,47,120,0
347.8214,347.95493,43,120,0
347.95776,348.22766,47,120,0
347.95776,348.22766,43,120,0
348.77594,348.9095,87,80,0
348.91232,349.04584,86,80,0
349.3214,349.45493,75,80,0
349.45776,349.59128,74,80,0
349.86685,350.0004,63,80,0
350.00323,350.13675,62,80,0
350.41232,350.54584,75,80,0
350.54868,350.6822,74,80,0
350.68503,351.09128,72,120,0
350.68503,351.09128,60,120,0
351.09415,351.22766,75,120,0
351.09415,351.22766,72,120,0
351.2305,351.7731,75,120,0
351.2305,351.7731,72,120,0
351.6396,351.7731,63,120,0
351.6396,351.7731,60,120,0
351.77594,352.1822,63,120,0
351.77594,352.1822,60,120,0
352.18503,352.31857,51,120,0
352.18503,352.31857,48,120,0
352.3214,352.59128,51,120,0
352.3214,352.59128,48,120,0
353.1396,353.2731,89,80,0
353.27594,353.4095,87,80,0
353.68503,353.81857,77,80,0
353.8214,353.95493,75,80,0
354.2305,354.364,65,80,0
354.36685,354.50037,63,80,0
354.77594,354.90945,77,80,0
354.91232,355.04584,75,80,0
355.04868,355.59128,70,120,0
355.45776,355.59128,70,120,0
355.04868,355.59128,58,120,0
355.45776,355.59128,74,120,0
355.59412,356.13675,74,120,0
355.59412,356.13675,70,120,0
356.0032,356.13675,62,120,0
356.0032,356.13675,58,120,0
356.1396,356.6822,62,120,0
356.1396,356.6822,58,120,0
356.54868,356.6822,50,120,0
356.54868,356.6822,46,120,0
356.68503,356.95493,50,120,0
356.68503,356.95493,46,120,0
357.5032,357.63675,91,80,0
357.6396,357.7731,89,80,0
358.04868,358.1822,79,85,0
358.18503,358.31854,77,88,0
358.59412,358.72766,67,96,0
358.7305,358.864,65,99,0
359.1396,359.2731,79,108,0
359.27594,359.40945,77,110,0
359.4123,359.95493,75,120,0
359.8214,359.95493,75,120,0
359.4123,359.95493,63,120,0
359.8214,359.95493,79,120,0
359.95776,360.50037,79,120,0
359.95776,360.50037,75,120,0
360.36685,360.50037,67,120,0
360.36685,360.50037,63,120,0
360.5032,361.04584,67,120,0
360.5032,361.04584,63,120,0
360.9123,361.04584,63,120,0
360.9123,361.04584,51,120,0
361.04868,361.31854,63,120,0
361.04868,361.31854,51,120,0
362.0032,362.13675,74,120,0
362.0032,362.13675,62,120,0
362.1396,362.6822,74,120,0
362.1396,362.6822,62,120,0
362.54868,362.6822,62,120,0
362.54868,362.6822,50,120,0
362.68503,363.09128,62,120,0
362.68503,363.09128,50,120,0
363.09412,363.22763,38,120,0
363.09412,363.22763,50,120,0
363.23047,363.50037,50,120,0
363.23047,363.50037,38,120,0
364.18503,364.31854,74,120,0
364.18503,364.31854,71,120,0
364.18503,364.31854,68,120,0
364.18503,364.31854,65,120,0
364.18503,364.31854,62,120,0
364.32138,364.864,74,120,0
364.32138,364.864,71,120,0
364.32138,364.864,68,120,0
364.32138,364.864,65,120,0
364.32138,364.864,62,120,0
364.73047,364.864,62,120,0
364.73047,364.864,59,120,0
364.73047,364.864,56,120,0
364.73047,364.864,53,120,0
364.73047,364.864,50,120,0
364.86685,365.40945,62,120,0
364.86685,365.40945,59,120,0
364.86685,365.40945,56,120,0
364.86685,365.40945,53,120,0
364.86685,365.40945,50,120,0
365.27594,365.40945,50,120,0
365.27594,365.40945,47,120,0
365.27594,365.40945,44,120,0
365.27594,365.40945,41,120,0
365.27594,365.40945,38,120,0
365.4123,365.6822,51,120,0
365.4123,365.6822,46,120,0
365.4123,365.6822,44,120,0
365.4123,365.6822,41,120,0
365.4123,365.6822,38,120,0
366.36685,366.50037,76,120,0
366.36685,366.50037,70,120,0
366.36685,366.50037,67,120,0
366.36685,366.50037,62,120,0
366.5032,367.0458,76,120,0
366.5032,367.0458,70,120,0
366.5032,367.0458,67,120,0
366.5032,367.0458,62,120,0
366.9123,367.0458,64,120,0
366.9123,367.0458,58,120,0
366.9123,367.0458,55,120,0
366.9123,367.0458,50,120,0
367.04868,367.45493,64,120,0
367.04868,367.45493,58,120,0
367.04868,367.45493,55,120,0
367.04868,367.45493,50,120,0
367.45776,367.59128,52,120,0
367.45776,367.59128,46,120,0
367.45776,367.59128,43,120,0
367.45776,367.59128,38,120,0
367.59412,367.864,52,120,0
367.59412,367.864,46,120,0
367.59412,367.864,43,120,0
367.59412,367.864,38,120,0
368.54865,368.6822,74,120,0
368.54865,368.6822,69,120,0
368.54865,368.6822,66,120,0
368.54865,368.6822,62,120,0
368.68503,369.09128,74,120,0
368.68503,369.09128,69,120,0
368.68503,369.09128,66,120,0
368.68503,369.09128,62,120,0
369.09412,369.22763,62,120,0
369.09412,369.22763,50,120,0
369.23047,369.63672,62,119,0
369.23047,369.63672,50,119,0
369.63956,369.7731,50,114,0
369.63956,369.7731,38,114,0
369.77594,370.1822,50,112,0
369.77594,370.1822,38,112,0
370.18503,370.31854,50,107,0
370.32138,370.72763,38,105,0
370.73047,370.864,62,100,0
370.86685,371.29242,50,99,0
371.2954,371.4353,62,94,0
371.43826,371.89288,50,92,0
371.89615,372.05078,62,87,0
372.05405,372.57098,50,86,0
372.5749,372.75848,71,81,0
372.7624,372.95926,59,80,0
372.9624,373.15045,71,80,0
373.1533,373.33228,70,80,0
373.3351,373.5141,71,80,0
373.51978,373.69876,66,80,0
373.69876,373.87772,71,80,0
373.88058,374.05954,67,80,0
374.06238,374.24136,71,80,0
374.2442,374.4232,67,80,0
374.42603,374.605,71,80,0
374.60785,374.78683,64,80,0
374.78967,374.96863,71,80,0
374.97147,375.15045,63,80,0
375.1533,375.33228,71,80,0
375.3351,375.5141,63,80,0
375.51694,375.69592,71,80,0
375.69876,375.87772,59,80,0
375.88055,376.05954,71,80,0
376.06238,376.24136,59,80,0
376.2442,376.4232,64,80,0
376.42603,376.605,59,80,0
376.60785,376.7868,67,80,0
376.78967,376.96863,64,80,0
376.97147,377.15045,67,80,0
377.1533,377.33228,66,80,0
377.3351,377.5141,71,80,0
377.51694,377.69592,66,80,0
377.69876,377.87772,71,80,0
377.88055,378.05954,66,80,0
378.06238,378.24136,71,80,0
378.2442,378.4232,66,80,0
378.42603,378.605,70,80,0
378.60785,378.7868,66,80,0
378.78964,378.96863,70,80,0
378.97147,379.15045,66,80,0
379.1533,379.33228,70,80,0
379.3351,379.5141,66,80,0
379.51694,379.6959,71,80,0
379.69876,379.87772,66,80,0
379.88055,380.05954,71,80,0
380.06238,380.24136,66,80,0
380.2442,380.4232,71,80,0
380.42603,380.60498,70,80,0
380.60785,380.7868,73,80,0
380.78964,380.96863,70,80,0
380.97147,381.15045,73,80,0
381.1533,381.33228,70,80,0
381.3351,381.5141,73,80,0
381.51694,381.6959,66,80,0
381.69873,381.87772,71,80,0
381.88055,382.05954,66,80,0
382.06238,382.24136,71,80,0
382.2442,382.4232,66,80,0
382.42603,382.60498,71,80,0
382.60785,382.7868,66,80,0
382.78964,382.96863,70,80,0
382.97147,383.15045,66,80,0
383.1533,383.33228,70,80,0
383.3351,383.51407,66,80,0
383.51694,383.6959,70,80,0
383.69873,383.87772,66,80,0
383.88055,384.05954,71,80,0
384.06238,384.24136,66,80,0
384.2442,384.4232,71,80,0
384.42603,384.60498,66,80,0
384.60782,384.7868,71,80,0
384.78964,384.96863,70,80,0
384.97147,385.15045,73,80,0
385.1533,385.33228,70,80,0
385.3351,385.60498,73,80,0
385.7442,385.87772,30,110,0
385.88055,386.2868,34,110,0
386.28964,386.42316,34,110,0
386.42603,386.6959,34,110,0
386.69873,386.83228,35,110,0
386.8351,386.96863,34,110,0
386.97147,387.24136,34,110,0
387.2442,387.51407,30,110,0
388.06238,388.33228,58,80,0
388.3351,388.60498,54,80,0
390.10782,390.24136,30,110,0
390.2442,390.65045,40,110,0
390.6533,390.7868,42,110,0
390.6533,390.7868,40,110,0
390.78964,391.05954,40,110,0
390.78964,391.1959,52,110,0
391.19873,391.33224,52,80,0
391.3351,391.60498,52,80,0
392.28964,392.42316,37,80,0
392.426,392.83224,46,80,0
392.83508,392.96863,46,80,0
392.83508,392.96863,49,80,0
392.97147,393.24133,46,80,0
392.9942,393.40045,58,80,0
393.38055,393.40045,58,80,0
393.5169,393.7868,58,80,0
393.926,394.05954,61,80,0
394.06238,394.46863,70,80,0
394.47147,394.60498,37,80,0
394.60782,395.55954,49,80,0
395.56238,395.6959,43,80,0
395.69873,396.65042,52,80,0
396.6533,396.7868,43,80,0
396.78964,397.1959,52,80,0
397.19873,397.33224,67,82,0
397.33508,397.74133,76,83,0
397.74417,397.87772,44,86,0
397.88055,398.2868,52,87,0
398.28964,398.42316,68,90,0
398.44873,398.85498,76,91,0
398.83508,398.96863,45,94,0
398.97147,399.37772,52,95,0
399.38055,399.51407,69,98,0
399.5169,399.92316,76,99,0
399.926,400.0595,45,102,0
400.06235,400.4686,53,103,0
400.47147,400.60498,69,106,0
400.60782,401.01407,77,107,0
401.0169,401.15042,46,110,0
401.0169,401.15042,34,110,0
401.15326,401.42316,58,120,0
401.15326,401.42316,46,120,0
401.426,401.5595,60,120,0
401.56235,401.6959,58,120,0
401.69873,401.9686,53,120,0
401.97147,402.10498,55,120,0
402.10782,402.24133,53,120,0
402.24417,402.51407,50,120,0
402.5169,402.65042,51,120,0
402.65326,402.7868,50,120,0
402.78964,403.0595,46,120,0
403.06235,403.1959,48,120,0
403.19873,403.33224,46,120,0
403.33508,403.60498,38,120,0
403.36917,403.60498,50,120,0
403.40326,403.60498,62,120,0
403.60782,403.74133,63,120,0
403.74417,403.8777,62,120,0
403.88055,404.15042,58,120,0
404.15326,404.2868,62,120,0
404.28964,404.42316,58,120,0
404.426,404.6959,53,120,0
404.69873,404.83224,58,120,0
404.83508,404.9686,53,120,0
404.97144,405.10498,50,120,0
405.10782,405.24133,46,120,0
405.24417,405.3777,51,80,0
405.38055,405.51407,48,80,0
405.5169,405.78677,46,80,0
405.78964,405.92316,48,80,0
405.926,406.0595,46,80,0
406.06235,406.33224,53,80,0
406.06235,406.33224,41,80,0
406.33508,406.4686,51,80,0
406.47144,406.60498,50,80,0
406.60782,406.8777,48,80,0
406.88052,407.01407,50,80,0
407.0169,407.15042,48,80,0
407.15326,407.42316,55,80,0
407.15326,407.42316,43,80,0
407.426,407.5595,56,80,0
407.426,407.5595,53,80,0
407.56235,407.6959,55,80,0
407.56235,407.6959,51,80,0
407.69873,407.9686,53,80,0
407.69873,407.9686,50,80,0
407.97144,408.24133,52,80,0
407.97144,408.24133,49,80,0
408.24417,408.52692,51,80,0
408.24417,408.52692,48,80,0
408.52988,408.82675,48,80,0
408.52988,408.82675,41,80,0
408.8299,409.15976,46,80,0
408.8299,409.15976,43,80,0
409.1632,409.37305,47,80,0
409.1632,409.37305,38,80,0
409.3775,409.67126,48,80,0
409.3775,409.67126,39,80,0
409.6775,411.77438,41,80,0
409.6775,411.77438,48,80,0
411.7775,411.92438,58,80,0
411.7775,412.07437,53,80,0
411.9275,412.07437,60,80,0
412.0775,412.48376,62,80,0
412.4866,412.62012,63,80,0
412.62296,413.0292,60,80,0
413.03204,413.16556,62,80,0
413.16843,413.30194,60,80,0
413.30478,413.4383,58,80,0
413.44113,413.57468,62,80,0
413.5775,413.71103,60,80,0
412.0775,413.98376,53,80,0
413.71387,413.98376,57,80,0
413.9866,414.12012,60,80,0
413.9866,414.25647,58,80,0
414.12296,414.25647,62,80,0
414.2593,414.66556,63,80,0
414.66843,414.80194,65,80,0
414.80478,415.21103,62,80,0
415.21387,415.34738,63,80,0
415.35022,415.48376,62,80,0
414.2593,415.62012,58,80,0
415.4866,415.62012,60,80,0
415.62296,415.75647,63,80,0
415.62296,415.89285,58,80,0
415.7593,415.89285,62,80,0
415.8957,416.16556,58,80,0
416.1684,416.30194,62,80,0
416.1684,416.4383,58,80,0
416.30478,416.4383,63,80,0
416.44113,416.84738,65,80,0
416.44113,416.98376,58,80,0
416.85022,416.98376,66,80,0
416.9866,417.25647,63,80,0
417.2593,417.39285,63,80,0
417.2593,417.5292,61,80,0
417.3957,417.5292,65,80,0
417.53204,417.9383,67,80,0
417.94113,418.07465,68,80,0
418.07748,418.21103,65,80,0
418.21387,418.34738,71,80,0
418.35022,418.48373,70,80,0
417.53204,418.62012,61,80,0
418.4866,418.62012,68,80,0
418.62296,418.89285,66,80,0
418.8957,419.4383,70,81,0
418.62296,419.71103,61,80,0
419.44113,419.98373,68,83,0
419.9866,420.25647,66,85,0
420.2593,420.5292,73,86,0
419.71387,420.80194,61,84,0
420.53204,420.80194,71,87,0
420.80478,420.9383,71,89,0
420.94113,421.07465,70,89,0
421.07748,421.21103,71,90,0
421.21387,421.34738,70,90,0
421.35022,421.48373,70,91,0
421.48657,421.62012,68,91,0
421.62296,421.75647,70,92,0
420.80478,421.89282,61,89,0
421.7593,421.89282,68,92,0
421.8957,422.0292,68,93,0
422.03204,422.16556,66,94,0
422.1684,422.30194,75,94,0
422.30478,422.4383,73,95,0
422.44113,422.71103,73,95,0
421.8957,422.98373,61,93,0
422.71387,422.98373,71,96,0
422.98657,423.12012,69,98,0
423.12296,423.25647,70,98,0
423.2593,423.39282,71,99,0
422.98657,423.5292,61,98,0
423.39566,423.5292,70,99,0
423.53204,423.66556,67,100,0
423.6684,423.8019,68,100,0
423.80478,423.9383,70,101,0
423.53204,424.07465,61,100,0
423.94113,424.07465,68,101,0
424.07748,424.21103,65,102,0
424.21387,424.34738,66,103,0
424.35022,424.48373,68,103,0
424.07748,424.62012,61,102,0
424.48657,424.62012,66,104,0
424.62296,424.75647,66,104,0
424.62296,424.89282,61,104,0
424.7593,424.89282,65,105,0
424.89566,425.0292,66,105,0
424.89566,425.16556,60,105,0
425.03204,425.16556,68,106,0
425.1684,425.4383,70,107,0
425.1684,425.4383,58,107,0
425.44113,425.71103,68,108,0
425.44113,425.71103,56,108,0
425.71387,425.98373,63,109,0
425.71387,425.98373,51,109,0
425.98657,426.25647,62,110,0
425.98657,426.25647,50,110,0
426.2593,426.5292,61,110,0
426.2593,426.5292,49,110,0
426.53204,426.9383,49,110,0
426.53204,427.07465,37,110,0
426.94113,427.07465,47,110,0
427.07748,427.211,46,110,0
427.07748,427.34738,37,110,0
427.21387,427.34738,44,110,0
427.35022,427.48373,42,110,0
427.35022,427.48373,30,110,0
427.48657,427.62012,58,110,0
427.48657,427.62012,54,110,0
427.48657,427.62012,49,110,0
427.62296,427.75647,58,110,0
427.62296,427.75647,54,110,0
427.62296,427.75647,49,110,0
427.7593,427.89282,58,110,0
427.7593,427.89282,54,110,0
427.7593,427.89282,49,110,0
428.03204,428.16556,54,110,0
428.03204,428.16556,49,110,0
428.03204,428.16556,46,110,0
428.1684,428.3019,54,110,0
428.1684,428.3019,49,110,0
428.1684,428.3019,46,110,0
428.30475,428.4383,54,110,0
428.30475,428.4383,49,110,0
428.30475,428.4383,46,110,0
428.57748,428.711,58,80,0
428.57748,428.711,54,80,0
428.57748,428.711,49,80,0
428.85022,428.98373,54,80,0
428.85022,428.98373,49,80,0
428.85022,428.98373,46,80,0
429.12296,429.25647,58,80,0
429.12296,429.25647,54,80,0
429.12296,429.25647,49,80,0
429.39566,429.5292,56,80,0
429.39566,429.5292,53,80,0
429.39566,429.5292,50,80,0
429.39566,429.5292,47,80,0
429.53204,429.66556,42,110,0
429.53204,429.66556,30,110,0
429.6684,429.8019,59,110,0
429.6684,429.8019,56,110,0
429.6684,429.8019,53,110,0
429.6684,429.8019,50,110,0
429.80475,429.9383,59,110,0
429.80475,429.9383,56,110,0
429.80475,429.9383,53,110,0
429.80475,429.9383,50,110,0
429.94113,430.07465,59,110,0
429.94113,430.07465,56,110,0
429.94113,430.07465,53,110,0
429.94113,430.07465,50,110,0
430.21384,430.34738,56,110,0
430.21384,430.34738,53,110,0
430.21384,430.34738,50,110,0
430.21384,430.34738,47,110,0
430.35022,430.48373,56,110,0
430.35022,430.48373,53,110,0
430.35022,430.48373,50,110,0
430.35022,430.48373,47,110,0
430.48657,430.6201,56,110,0
430.48657,430.6201,53,110,0
430.48657,430.6201,50,110,0
430.48657,430.6201,47,110,0
430.7593,430.89282,59,80,0
430.7593,430.89282,56,80,0
430.7593,430.89282,53,80,0
430.7593,430.89282,50,80,0
431.03204,431.16556,56,80,0
431.03204,431.16556,53,80,0
431.03204,431.16556,50,80,0
431.03204,431.16556,47,80,0
431.30475,431.4383,59,80,0
431.30475,431.4383,56,80,0
431.30475,431.4383,53,80,0
431.30475,431.4383,50,80,0
431.57748,431.711,58,80,0
431.57748,431.711,55,80,0
431.57748,431.711,52,80,0
431.57748,431.711,49,80,0
431.71384,431.84738,42,110,0
431.71384,431.84738,30,110,0
431.85022,431.98373,61,110,0
431.85022,431.98373,58,110,0
431.85022,431.98373,52,110,0
431.98657,432.1201,61,110,0
431.98657,432.1201,58,110,0
431.98657,432.1201,52,110,0
432.12292,432.25647,61,110,0
432.12292,432.25647,58,110,0
432.12292,432.25647,52,110,0
432.39566,432.52917,58,110,0
432.39566,432.52917,55,110,0
432.39566,432.52917,52,110,0
432.39566,432.52917,49,110,0
432.53204,432.66556,58,110,0
432.53204,432.66556,55,110,0
432.53204,432.66556,52,110,0
432.53204,432.66556,49,110,0
432.6684,432.8019,58,110,0
432.6684,432.8019,55,110,0
432.6684,432.8019,52,110,0
432.6684,432.8019,49,110,0
432.94113,433.07465,61,80,0
432.94113,433.07465,58,80,0
432.94113,433.07465,55,80,0
432.94113,433.07465,52,80,0
433.21384,433.34738,58,80,0
433.21384,433.34738,55,80,0
433.21384,433.34738,52,80,0
433.21384,433.34738,49,80,0
433.48657,433.6201,61,80,0
433.48657,433.6201,58,80,0
433.48657,433.6201,55,80,0
433.48657,433.6201,52,80,0
433.7593,433.89282,59,80,0
433.7593,433.89282,54,80,0
433.7593,433.89282,50,80,0
433.89566,434.02917,42,110,0
433.89566,434.02917,30,110,0
434.03204,434.16556,62,110,0
434.03204,434.16556,59,110,0
434.03204,434.16556,54,110,0
434.1684,434.3019,62,110,0
434.1684,434.3019,59,110,0
434.1684,434.3019,54,110,0
434.30475,434.43826,62,110,0
434.30475,434.43826,59,110,0
434.30475,434.43826,54,110,0
434.57748,434.711,59,110,0
434.57748,434.711,54,110,0
434.57748,434.711,50,110,0
434.71384,434.84738,59,110,0
434.71384,434.84738,54,110,0
434.71384,434.84738,50,110,0
434.85022,434.98373,59,110,0
434.85022,434.98373,54,110,0
434.85022,434.98373,50,110,0
435.12292,435.25647,62,80,0
435.12292,435.25647,59,80,0
435.12292,435.25647,57,80,0
435.12292,435.25647,52,80,0
435.39566,435.52917,59,80,0
435.39566,435.52917,57,80,0
435.39566,435.52917,52,80,0
435.39566,435.52917,50,80,0
435.6684,435.8019,59,81,0
435.6684,435.8019,62,81,0
435.6684,435.8019,57,81,0
435.6684,435.8019,52,81,0
435.94113,436.07465,61,84,0
435.94113,436.07465,58,84,0
435.94113,436.07465,55,84,0
435.94113,436.07465,52,84,0
436.21384,436.34738,64,88,0
436.21384,436.34738,61,88,0
436.21384,436.34738,58,88,0
436.21384,436.34738,55,88,0
436.48657,436.6201,61,91,0
436.48657,436.6201,58,91,0
436.48657,436.6201,55,91,0
436.48657,436.6201,52,91,0
436.7593,436.89282,64,94,0
436.7593,436.89282,61,94,0
436.7593,436.89282,58,94,0
436.7593,436.89282,55,94,0
437.032,437.16556,62,97,0
437.032,437.16556,59,97,0
437.032,437.16556,54,97,0
437.30475,437.43826,62,101,0
437.30475,437.43826,59,101,0
437.30475,437.43826,54,101,0
437.57748,437.711,62,104,0
437.57748,437.711,59,104,0
437.57748,437.711,54,104,0
437.85022,437.98373,62,107,0
437.85022,437.98373,59,107,0
437.85022,437.98373,54,107,0
438.12292,438.25647,65,110,0
438.12292,438.25647,61,110,0
438.12292,438.25647,59,110,0
438.12292,438.25647,56,110,0
438.39566,438.52917,68,110,0
438.39566,438.52917,56,110,0
438.6684,438.8019,66,110,0
438.6684,438.8019,54,110,0
438.9411,439.07465,63,110,0
438.9411,439.07465,51,110,0
439.21384,439.34735,61,110,0
439.21384,439.34735,49,110,0
439.48657,439.6201,59,110,0
439.48657,439.6201,47,110,0
439.7593,439.89282,58,110,0
439.7593,439.89282,46,110,0
440.032,440.16556,44,110,0
440.032,440.16556,56,110,0
440.30475,440.43826,54,110,0
440.30475,440.43826,42,110,0
440.57748,440.711,51,110,0
440.57748,440.711,39,110,0
440.8502,440.98373,49,110,0
440.8502,440.98373,37,110,0
441.12292,441.25644,47,110,0
441.12292,441.25644,35,110,0
441.39566,441.52917,46,110,0
441.39566,441.52917,34,110,0
441.6684,441.8019,44,110,0
441.6684,441.8019,32,110,0
441.9411,442.07465,42,110,0
441.9411,442.07465,30,110,0
442.21384,442.34735,39,110,0
442.48657,442.6201,37,110,0
442.75928,443.3019,41,109,0
443.032,443.57465,37,107,0
443.30475,443.711,44,104,0
443.57748,443.99658,37,102,0
443.8567,444.2823,49,99,0
444.1424,444.568,37,97,0
444.42813,444.85373,53,94,0
444.71384,445.15356,37,92,0
445.00668,445.45358,56,89,0
445.3067,445.78656,37,87,0
445.62335,446.11987,61,84,0
445.9567,446.49445,37,82,0
446.31085,446.86945,61,79,0
446.68585,447.29745,37,77,0
447.30194,449.31308,54,73,0
447.30194,449.31308,61,73,0
449.16623,449.31308,35,120,0
449.31622,449.7631,62,120,0
449.31622,449.7631,59,120,0
449.31622,449.7631,54,120,0
449.7662,449.9131,62,120,0
449.7662,449.9131,59,120,0
449.7662,449.9131,54,120,0
449.91623,450.2131,62,120,0
449.91623,450.2131,59,120,0
449.91623,450.2131,54,120,0
450.21622,450.3631,62,120,0
450.21622,450.3631,59,120,0
450.21622,450.3631,54,120,0
450.3662,450.5131,62,120,0
450.3662,450.5131,59,120,0
450.3662,450.5131,54,120,0
450.5162,450.84607,62,120,0
450.5162,450.84607,59,120,0
450.5162,450.84607,54,120,0
450.84955,452.51273,50,120,0
450.84955,452.51273,54,120,0
450.84955,452.51273,59,120,0
453.0162,453.1794,47,80,0
453.1829,453.58914,62,80,0
453.59198,453.7255,47,80,0
453.72833,454.13458,62,80,0
454.13742,454.27094,47,80,0
454.27377,454.68002,62,80,0
454.68286,454.8164,43,80,0
454.81924,455.2255,59,80,0
455.22833,455.36185,43,80,0
455.3647,455.77094,59,80,0
455.77377,455.90732,43,80,0
455.91016,456.3164,59,80,0
456.31924,456.45276,43,80,0
456.4556,456.86185,59,80,0
456.8647,456.99823,36,82,0
457.00107,457.40732,51,83,0
457.41016,457.54367,36,86,0
457.5465,457.95276,51,86,0
457.9556,458.0891,36,89,0
458.09195,458.4982,51,90,0
458.50107,458.63458,36,92,0
458.63742,459.04367,51,93,0
459.0465,459.18002,29,96,0
459.18286,459.5891,45,97,0
459.59195,459.7255,29,99,0
459.72833,460.13458,45,100,0
460.13742,460.27094,41,103,0
460.27377,460.68002,36,104,0
460.68286,460.8164,41,106,0
460.81924,461.2255,33,107,0
461.22833,461.36185,41,110,0
461.3647,461.77094,30,110,0
461.77377,461.9073,41,110,0
461.91016,462.18002,41,110,0
461.91016,462.18002,29,110,0
462.18286,462.3164,78,80,0
462.31924,462.45276,77,80,0
462.4556,462.7255,78,80,0
462.72833,462.86185,77,80,0
462.8647,462.9982,76,80,0
463.00104,463.27094,77,80,0
463.27377,463.4073,66,80,0
463.41013,463.54367,65,80,0
463.5465,463.81638,66,80,0
463.81924,463.95276,65,80,0
463.9556,464.0891,64,80,0
464.09195,464.36185,63,80,0
464.09195,464.36185,60,80,0
464.09195,464.36185,57,80,0
464.09195,464.36185,53,80,0
464.50104,464.63458,53,80,0
464.63742,464.9073,57,80,0
465.0465,465.18002,60,80,0
465.18286,465.45276,65,80,0
465.59195,465.72546,69,80,0
465.72833,465.9982,72,80,0
466.00104,466.13458,75,80,0
466.13742,466.27094,72,80,0
466.27377,466.4073,67,80,0
466.41013,466.54367,69,80,0
466.5465,466.68002,70,80,0
466.68286,466.81638,67,80,0
466.8192,466.95276,63,80,0
466.9556,467.0891,65,80,0
467.09195,467.22546,67,80,0
467.22833,467.36185,63,80,0
467.3647,467.4982,60,80,0
467.50104,467.63458,62,80,0
467.63742,467.77094,63,80,0
467.77377,467.9073,60,80,0
467.91013,468.04367,57,80,0
468.0465,468.18002,58,80,0
468.18286,468.31638,60,80,0
468.3192,468.45276,57,80,0
468.4556,468.72546,62,80,0
468.4556,468.72546,58,80,0
468.4556,468.72546,53,80,0
468.8647,468.9982,53,80,0
469.00104,469.27094,58,80,0
469.41013,469.54367,62,80,0
469.5465,469.81638,65,80,0
469.9556,470.0891,70,80,0
470.09195,470.36185,74,80,0
470.3647,470.4982,62,80,0
470.50104,470.63455,58,80,0
470.63742,470.77094,70,80,0
470.77377,470.9073,72,80,0
470.91013,471.04367,74,80,0
471.0465,471.18002,70,80,0
471.18286,471.31638,62,80,0
471.3192,471.45276,63,80,0
471.4556,471.5891,65,80,0
471.59195,471.72546,62,80,0
471.7283,471.86185,58,80,0
471.8647,471.9982,60,80,0
472.00104,472.13455,62,80,0
472.1374,472.27094,58,80,0
472.27377,472.4073,74,80,0
472.41013,472.54364,75,80,0
472.5465,472.68002,77,80,0
472.68286,472.81638,74,80,0
472.8192,472.95276,75,80,0
472.9556,473.0891,77,80,0
473.09195,473.22546,75,80,0
473.2283,473.36185,74,80,0
473.3647,473.4982,75,80,0
473.50104,473.63455,77,80,0
473.6374,473.77094,79,80,0
473.77377,473.9073,75,80,0
473.91013,474.04364,72,80,0
474.04648,474.18002,74,80,0
474.18286,474.31638,75,80,0
474.3192,474.45273,72,80,0
474.4556,474.5891,69,80,0
474.59195,474.72546,70,80,0
474.7283,474.86185,72,80,0
474.8647,474.9982,69,80,0
475.00104,475.13455,63,80,0
475.1374,475.27094,65,80,0
475.27377,475.4073,66,80,0
475.41013,475.54364,63,80,0
475.54648,475.68002,60,80,0
475.68286,475.81638,62,80,0
475.8192,475.95273,63,80,0
475.9556,476.0891,60,80,0
476.09195,476.22546,57,80,0
476.2283,476.36185,58,80,0
476.3647,476.4982,60,80,0
476.50104,476.63455,57,80,0
476.6374,476.77094,72,80,0
476.77377,476.9073,74,80,0
476.91013,477.04364,75,80,0
477.04648,477.18002,72,80,0
477.18286,477.31638,74,80,0
477.3192,477.45273,75,80,0
477.45557,477.5891,74,80,0
477.59195,477.72546,72,80,0
477.7283,477.86182,74,80,0
477.8647,477.9982,75,80,0
478.00104,478.13455,77,80,0
478.1374,478.27094,74,80,0
478.27377,478.4073,70,80,0
478.41013,478.54364,72,80,0
478.54648,478.68002,74,80,0
478.68286,478.81638,70,80,0
478.8192,478.95273,65,80,0
478.95557,479.0891,69,80,0
479.09195,479.22546,70,80,0
479.2283,479.36182,65,80,0
479.3647,479.4982,62,80,0
479.50104,479.63455,63,80,0
479.6374,479.7709,65,80,0
479.77377,479.9073,62,80,0
479.91013,480.04364,58,80,0
480.04648,480.18002,60,80,0
480.18286,480.31638,62,80,0
480.3192,480.45273,58,80,0
480.45557,480.5891,53,80,0
480.59195,480.72546,57,80,0
480.7283,480.86182,58,80,0
480.86465,480.9982,53,80,0
481.00104,481.1409,51,80,0
481.1439,481.28378,58,80,0
481.28674,481.43362,53,80,0
481.43674,481.58362,51,80,0
481.58673,481.8836,50,80,0
481.88675,482.15665,58,80,0
481.88675,482.15665,46,80,0
482.1595,482.293,55,80,0
482.1595,482.293,51,80,0
482.4322,482.56573,63,80,0
482.56857,482.7021,60,80,0
482.70493,482.97482,57,80,0
482.97766,483.24753,65,80,0
482.97766,483.24753,53,80,0
483.25037,483.52026,62,80,0
483.25037,483.52026,58,80,0
484.06857,484.33844,67,80,0
484.06857,484.33844,64,80,0
484.06857,484.33844,61,80,0
484.06857,484.33844,58,80,0
484.34128,484.62402,69,80,0
484.34128,484.62402,65,80,0
484.34128,484.62402,60,80,0
484.627,484.76688,70,80,0
484.627,484.90973,67,80,0
484.627,484.90973,60,80,0
484.76987,484.90973,72,80,0
484.91272,485.2096,72,80,0
484.91272,485.2096,65,80,0
485.2127,485.45926,74,80,0
485.2127,485.54257,65,80,0
485.4627,485.54257,76,80,0
485.54605,485.87592,65,80,0
485.54605,485.87592,77,80,0
485.8794,486.02625,67,80,0
486.0294,486.17627,69,80,0
486.17938,486.44928,70,80,0
486.45212,486.722,65,80,0
486.45212,486.722,62,80,0
486.72482,486.85837,67,80,0
486.72482,486.85837,63,80,0
486.99756,487.13107,72,80,0
487.13394,487.26746,75,80,0
487.2703,487.5402,77,80,0
487.54303,487.8129,72,80,0
487.54303,487.8129,69,80,0
487.81573,487.94928,74,80,0
487.81573,487.94928,70,80,0
488.08847,488.222,67,80,0
488.22482,488.35837,66,80,0
488.3612,488.64395,67,80,0
488.6469,488.9438,75,80,0
488.6469,488.9438,70,80,0
488.6469,488.9438,67,80,0
488.9469,489.27676,72,80,0
488.9469,489.27676,67,80,0
489.28024,489.6101,69,80,0
489.28024,489.6101,66,80,0
489.6136,489.91046,69,80,0
489.6136,489.91046,66,80,0
489.91357,490.18347,66,80,0
489.91357,490.18347,62,80,0
490.1863,490.4562,70,80,0
490.1863,490.4562,67,80,0
490.45905,490.59256,68,80,0
490.45905,490.59256,65,80,0
490.5954,490.7289,67,80,0
490.5954,490.7289,64,80,0
490.73175,491.00165,67,80,0
490.73175,491.00165,64,80,0
491.0045,491.27438,64,80,0
491.0045,491.27438,60,80,0
491.27722,491.5471,68,80,0
491.27722,491.5471,65,80,0
491.54993,491.68347,66,80,0
491.54993,491.68347,63,80,0
491.6863,491.81982,65,80,0
491.6863,491.81982,62,80,0
491.82266,492.09256,65,80,0
491.82266,492.09256,62,80,0
492.0954,492.3653,62,80,0
492.0954,492.3653,58,80,0
492.36813,492.638,67,80,0
492.36813,492.638,63,80,0
492.64084,492.77438,65,80,0
492.64084,492.77438,62,80,0
492.77722,492.91074,64,80,0
492.77722,492.91074,61,80,0
492.91357,493.18347,64,80,0
492.91357,493.18347,61,80,0
493.1863,493.45618,61,80,0
493.1863,493.45618,57,80,0
493.459,493.7289,65,80,0
493.459,493.7289,62,80,0
493.73175,493.86526,63,80,0
493.73175,493.86526,60,80,0
493.86813,494.00165,62,80,0
493.86813,494.00165,59,80,0
494.0045,494.27438,62,80,0
494.0045,494.27438,59,80,0
494.27722,494.41074,60,80,0
494.27722,494.5471,63,80,0
494.41357,494.5471,58,80,0
494.54993,494.83267,60,80,0
494.54993,494.83267,57,80,0
494.83566,494.9825,58,80,0
494.83566,495.13254,62,80,0
494.98566,495.13254,50,80,0
495.13565,496.79645,48,80,0
495.13565,496.79645,53,80,0
495.13565,496.79645,63,80,0
496.7993,497.3419,62,80,0
496.7993,497.3419,53,80,0
496.7993,497.3419,50,80,0
497.34473,498.97827,36,80,0
497.34473,498.97827,41,80,0
497.34473,498.97827,51,80,0
498.9811,499.5237,50,80,0
498.9811,499.5237,41,80,0
498.9811,499.5237,38,80,0
499.52655,500.06918,50,80,0
499.52655,500.06918,38,80,0
500.07202,500.61462,55,80,0
500.07202,500.61462,43,80,0
500.61746,501.16006,52,80,0
500.61746,501.16006,40,80,0
501.16293,501.4328,53,80,0
501.16293,501.4328,41,80,0
501.70837,503.3419,60,80,0
501.70837,503.3419,65,80,0
501.70837,503.3419,75,80,0
503.34473,503.88736,74,80,0
503.34473,503.88736,65,80,0
503.34473,503.88736,62,80,0
503.8902,505.5237,48,80,0
503.8902,505.5237,53,80,0
503.8902,505.5237,63,80,0
505.52655,506.06915,62,80,0
505.52655,506.06915,53,80,0
505.52655,506.06915,50,80,0
506.072,506.61462,62,80,0
506.072,506.61462,50,80,0
506.61746,507.16006,67,80,0
506.61746,507.16006,55,80,0
507.1629,507.70554,52,80,0
507.1629,507.70554,64,80,0
507.70837,507.97824,65,80,0
507.70837,507.97824,53,80,0
507.98108,508.25098,66,80,0
507.98108,508.25098,54,80,0
508.2538,508.79645,67,80,0
508.2538,508.79645,55,80,0
508.7993,509.3419,72,83,0
508.7993,509.3419,60,83,0
509.34473,509.88733,69,87,0
509.34473,509.88733,57,87,0
509.8902,510.16006,70,91,0
509.8902,510.16006,58,91,0
510.1629,510.4328,71,93,0
510.1629,510.4328,59,93,0
510.43564,510.97824,72,95,0
510.43564,510.97824,60,95,0
510.98108,511.5237,76,99,0
510.98108,511.5237,64,99,0
511.52655,512.06915,74,103,0
511.52655,512.06915,62,103,0
512.072,512.8873,63,107,0
512.072,512.8873,75,107,0
512.8902,513.1601,51,120,0
512.8902,513.1601,39,120,0
513.9811,514.251,67,120,0
513.9811,514.251,63,120,0
514.25385,514.5237,65,120,0
514.25385,514.5237,62,120,0
514.52655,514.66003,67,120,0
514.52655,514.66003,63,120,0
514.6629,514.79645,68,120,0
514.6629,514.79645,65,120,0
514.79926,515.06915,70,120,0
514.79926,515.06915,67,120,0
515.072,515.34186,51,120,0
515.072,515.34186,39,120,0
516.1629,516.4328,52,120,0
516.1629,516.4328,40,120,0
516.7084,516.9783,48,120,0
516.7084,516.9783,36,120,0
517.2538,517.5237,53,120,0
517.2538,517.5237,41,120,0
517.79926,518.06915,55,120,0
517.79926,518.06915,43,120,0
518.072,518.2055,41,120,0
518.2084,518.34186,45,119,0
518.3447,518.4783,46,117,0
518.4811,518.6146,50,115,0
518.61743,518.751,53,113,0
518.7538,518.8873,57,111,0
518.8902,519.0237,58,110,0
519.02655,519.16003,62,108,0
519.1629,519.29645,65,106,0
519.29926,519.4328,69,104,0
519.4356,519.56915,70,102,0
519.572,519.7055,74,101,0
519.9811,520.1146,70,101,0
520.11743,520.251,74,102,0
520.2538,520.3873,76,102,0
520.3902,520.5237,77,103,0
520.52655,520.66003,79,104,0
520.6629,520.79645,77,104,0
520.79926,520.9328,81,105,0
520.9356,521.06915,82,106,0
521.07196,521.2055,84,106,0
521.2084,521.34186,82,107,0
521.3447,521.4782,85,108,0
521.4811,521.6146,86,108,0
521.61743,521.751,87,109,0
521.7538,521.8873,86,110,0
521.8902,522.16003,89,110,0
522.1629,522.251,65,80,0
522.2538,522.34186,67,80,0
522.3447,522.4328,69,80,0
522.4356,522.6146,58,80,0
522.61743,522.79645,70,80,0
522.79926,522.9782,69,80,0
522.9811,523.16003,70,80,0
523.1629,523.34186,69,80,0
523.3447,523.5237,70,80,0
523.52655,523.7055,66,80,0
523.7084,523.8873,70,80,0
523.8902,524.06915,66,80,0
524.07196,524.251,70,80,0
524.2538,524.4328,63,80,0
524.4356,524.6146,70,80,0
524.61743,524.79645,62,80,0
524.79926,524.9782,70,80,0
524.9811,525.16003,65,80,0
525.1629,525.34186,58,80,0
525.3447,525.5237,70,80,0
525.52655,525.7055,65,80,0
525.7084,525.8873,63,80,0
525.89014,526.06915,70,80,0
526.07196,526.251,63,80,0
526.2538,526.4328,66,80,0
526.4356,526.6146,70,80,0
526.61743,526.7964,66,80,0
526.79926,526.9782,65,80,0
526.9811,527.16003,70,80,0
527.1629,527.34186,65,80,0
527.3447,527.5237,71,80,0
527.52655,527.7055,65,80,0
527.7084,527.8873,71,80,0
527.89014,528.06915,65,80,0
528.07196,528.251,72,80,0
528.2538,528.4328,69,80,0
528.4356,528.6146,53,80,0
528.61743,528.7964,60,80,0
528.79926,528.9782,57,80,0
528.9811,529.1146,46,80,0
529.11743,529.251,58,80,0
529.2538,529.3873,62,81,0
529.39014,529.5237,58,81,0
529.52655,529.66003,53,82,0
529.6629,529.7964,58,83,0
529.79926,529.9328,68,83,0
529.9356,530.06915,58,84,0
530.07196,530.2055,55,85,0
530.2084,530.34186,58,85,0
530.3447,530.4782,70,86,0
530.4811,530.6146,58,87,0
530.61743,530.751,51,87,0
530.7538,530.8873,58,88,0
530.89014,531.0237,67,89,0
531.02655,531.16003,58,89,0
531.1629,531.2964,50,90,0
531.29926,531.4328,58,91,0
531.4356,531.56915,65,91,0
531.57196,531.7055,58,92,0
531.7083,531.84186,50,93,0
531.8447,531.9782,58,93,0
531.9811,532.11456,62,94,0
532.11743,532.251,58,95,0
532.2538,532.3873,51,95,0
532.39014,532.5237,58,96,0
532.52655,532.66003,67,96,0
532.6629,532.7964,58,97,0
532.79926,532.9328,55,98,0
532.9356,533.06915,58,98,0
533.07196,533.2055,70,99,0
533.2083,533.34186,58,100,0
533.3447,533.4782,53,100,0
533.4811,533.61456,58,101,0
533.61743,533.751,57,102,0
533.7538,533.8873,58,102,0
533.89014,534.0237,53,103,0
534.02655,534.16003,50,104,0
534.1629,534.2964,48,104,0
534.29926,534.4328,46,105,0
534.4356,534.56915,41,106,0
534.57196,534.7055,43,106,0
534.7083,534.84186,45,107,0
534.8447,534.9782,46,108,0
534.9811,535.11456,48,108,0
535.11743,535.251,50,109,0
535.2538,535.3873,51,110,0
535.39014,535.5237,53,110,0
535.52655,535.66003,34,120,0
535.6629,535.7964,46,120,0
535.79926,535.9328,34,120,0
535.9356,536.06915,46,120,0
536.07196,536.2055,34,120,0
536.2083,536.34186,46,120,0
536.3447,536.4782,34,120,0
536.4811,536.61456,46,120,0
536.61743,536.751,34,120,0
536.7538,536.8873,46,120,0
536.89014,537.0237,34,120,0
537.0265,537.16003,46,120,0
537.1629,537.2964,34,120,0
537.29926,537.43274,46,120,0
537.4356,537.56915,35,80,0
537.57196,537.7055,47,80,0
537.7083,537.84186,36,80,0
537.8447,537.9782,48,80,0
537.9811,538.11456,35,80,0
538.11743,538.251,47,80,0
538.2538,538.3873,36,80,0
538.39014,538.5237,48,80,0
538.5265,538.66003,39,80,0
538.6629,538.7964,51,80,0
538.79926,538.93274,40,80,0
538.9356,539.06915,52,80,0
539.07196,539.2055,43,80,0
539.2083,539.34186,55,80,0
539.3447,539.4782,41,80,0
539.4811,539.61456,53,80,0
539.61743,539.751,41,80,0
539.7538,539.8873,53,80,0
539.89014,540.0237,41,80,0
540.0265,540.16003,53,82,0
540.1629,540.2964,46,84,0
540.29926,540.43274,58,86,0
540.4356,540.56915,41,88,0
540.57196,540.7055,53,90,0
540.7083,540.84186,53,92,0
540.8447,540.9782,65,94,0
540.9811,541.11456,41,96,0
541.11743,541.251,53,98,0
541.2538,541.3873,46,100,0
541.39014,541.5237,58,102,0
541.5265,541.66003,41,104,0
541.6629,541.7964,53,106,0
541.79926,541.93274,53,108,0
541.9356,542.06915,65,110,0
542.07196,542.2055,46,110,0
542.2083,542.34186,58,110,0
542.34467,542.4782,41,110,0
542.4811,542.61456,53,110,0
542.61743,542.7509,45,110,0
542.7538,542.8873,57,110,0
542.89014,543.0237,48,110,0
543.0265,543.16003,60,110,0
543.1629,543.2964,46,110,0
543.29926,543.43274,58,110,0
543.4356,543.56915,41,110,0
543.57196,543.7055,53,110,0
543.7083,543.84186,33,110,0
543.84467,543.9782,45,110,0
543.9811,544.11456,36,110,0
544.11743,544.2509,48,110,0
544.2538,544.3873,34,110,0
544.39014,544.5237,46,110,0
544.5265,544.66003,29,110,0
544.6629,544.7964,41,110,0
544.79926,544.93274,35,110,0
544.9356,545.06915,47,110,0
545.07196,545.2055,38,110,0
545.2083,545.34186,50,110,0
545.34467,545.4782,36,110,0
545.4811,545.61456,48,110,0
545.61743,545.7509,31,110,0
545.7538,545.8873,43,110,0
545.89014,546.0237,35,110,0
546.0265,546.16003,47,110,0
546.1629,546.2964,38,110,0
546.29926,546.43274,50,110,0
546.4356,546.56915,36,110,0
546.57196,546.7055,48,110,0
546.7083,546.84186,31,110,0
546.84467,546.9782,43,110,0
546.9811,547.11456,36,110,0
547.11743,547.2509,48,110,0
547.2538,547.3873,39,110,0
547.39014,547.5237,51,110,0
547.5265,547.66003,38,110,0
547.6629,547.7964,50,110,0
547.79926,547.93274,33,110,0
547.9356,548.0691,45,110,0
548.07196,548.2055,37,110,0
548.2083,548.34186,49,110,0
548.34467,548.4782,40,110,0
548.4811,548.61456,52,110,0
548.61743,548.7509,38,110,0
548.7538,548.8873,50,110,0
548.89014,549.0237,33,110,0
549.0265,549.16003,45,110,0
549.16284,549.2964,38,110,0
549.29926,549.43274,50,110,0
549.4356,549.5691,41,110,0
549.57196,549.7055,53,110,0
549.7083,549.84186,39,110,0
549.84467,549.9782,51,110,0
549.9811,550.11456,34,110,0
550.11743,550.2509,46,110,0
550.2538,550.3873,38,110,0
550.39014,550.5237,50,110,0
550.5265,550.66003,41,110,0
550.66284,550.7964,53,110,0
550.79926,550.93274,39,110,0
550.9356,551.0691,51,110,0
551.07196,551.2055,34,110,0
551.2083,551.34186,46,110,0
551.34467,551.4782,39,110,0
551.4811,551.61456,51,110,0
551.61743,551.7509,42,110,0
551.7538,551.8873,54,110,0
551.89014,552.0237,41,110,0
552.0265,552.16003,53,110,0
552.16284,552.2964,36,110,0
552.29926,552.43274,48,110,0
552.4356,552.5691,39,110,0
552.57196,552.7055,51,110,0
552.7083,552.84186,42,110,0
552.84467,552.9782,54,110,0
552.9811,553.11456,37,110,0
553.11743,553.2509,49,110,0
553.2538,553.3873,33,110,0
553.39014,553.5237,45,110,0
553.5265,553.66003,36,110,0
553.66284,553.7964,48,110,0
553.79926,553.93274,39,110,0
553.9356,554.0691,51,110,0
554.07196,554.2055,30,110,0
554.2083,554.34186,42,110,0
554.34467,554.4782,29,110,0
554.481,554.61456,41,110,0
554.61743,554.75726,33,110,0
554.76025,554.90015,45,110,0
554.90314,555.05,39,110,0
555.0531,555.2163,51,110,0
555.2198,555.775,34,80,0
555.2198,555.775,46,80,0
555.77795,556.3332,44,80,0
555.77795,556.3332,56,80,0
556.33606,556.8913,42,80,0
556.33606,556.8913,54,80,0
556.8942,557.44946,39,80,0
556.8942,557.44946,51,80,0
557.45233,558.00757,50,80,0
557.45233,558.00757,38,80,0
558.0105,558.56573,46,80,0
558.0105,558.56573,34,80,0
558.5686,559.12384,51,80,0
558.5686,559.12384,39,80,0
559.1268,559.4029,58,80,0
559.1268,559.4029,54,80,0
559.4058,559.5425,58,80,0
559.4756,559.61224,60,80,0
559.4058,559.682,55,80,0
559.54535,559.682,58,80,0
559.6151,559.7518,60,80,0
559.6849,559.82153,58,80,0
559.75464,559.8913,60,80,0
559.6849,559.96106,53,80,0
559.8244,559.96106,58,80,0
559.8942,560.0308,60,80,0
559.964,560.1006,58,80,0
560.03375,560.17035,60,80,0
559.964,560.2401,55,80,0
560.1035,560.2401,58,80,0
560.1733,560.3099,60,80,0
560.24304,560.37964,58,80,0
560.3128,560.4494,60,80,0
560.24304,560.51917,56,80,0
560.38257,560.51917,58,80,0
560.45233,560.589,60,80,0
560.5221,560.65875,58,80,0
560.59186,560.7285,60,80,0
560.5221,560.7983,53,80,0
560.6616,560.7983,58,80,0
560.7314,560.86804,60,80,0
560.80115,560.9378,58,80,0
560.8709,561.00757,60,80,0
560.80115,561.07733,55,80,0
560.94073,561.07733,58,80,0
561.0105,561.1471,60,80,0
561.08026,561.21686,58,80,0
561.15,561.2866,60,80,0
561.08026,561.3564,56,80,0
561.2198,561.3564,58,80,0
561.28955,561.42615,60,80,0
561.3593,561.4959,58,80,0
561.4291,561.5657,60,80,0
561.3593,561.6355,55,80,0
561.49884,561.6355,58,80,0
561.5686,561.70526,60,80,0
561.63837,561.775,58,80,0
561.7081,561.8448,60,80,0
561.63837,561.91455,51,80,0
561.7779,561.91455,58,80,0
561.84766,561.9843,60,80,0
561.9174,562.0541,58,80,0
561.98724,562.12384,60,80,0
561.9174,562.1936,50,80,0
562.057,562.1936,58,80,0
562.1268,562.26337,60,80,0
562.19653,562.3331,58,80,0
562.2663,562.4029,60,80,0
562.19653,562.47266,51,80,0
562.33606,562.47266,58,80,0
562.4058,562.5424,60,80,0
562.4756,562.6122,58,80,0
562.54535,562.682,60,80,0
562.4756,562.7518,53,80,0
562.6151,562.7518,58,80,0
562.6849,562.82153,60,80,0
562.75464,562.8913,58,80,0
562.8244,562.96106,60,80,0
562.75464,563.0308,50,80,0
562.89417,563.0308,58,80,0
562.9639,563.1006,60,80,0
563.03375,563.17035,58,80,0
563.1035,563.2401,60,80,0
563.03375,563.3099,51,80,0
563.1733,563.3099,58,80,0
563.24304,563.37964,60,80,0
563.3128,563.4494,58,80,0
563.38257,563.51917,60,80,0
563.3128,563.5889,53,80,0
563.45233,563.5889,58,80,0
563.5221,563.6587,60,80,0
563.59186,563.7285,58,80,0
563.6616,563.7983,60,80,0
563.59186,563.86804,55,80,0
563.7314,563.86804,58,80,0
563.80115,563.9378,60,80,0
563.8709,564.00757,58,80,0
563.9407,564.07733,60,80,0
563.8709,564.1471,56,80,0
564.01044,564.1471,58,80,0
564.08026,564.21686,60,80,0
564.15,564.2866,58,80,0
564.2198,564.3564,60,80,0
564.28955,564.42615,58,80,0
564.3593,564.4959,60,80,0
564.4291,564.5657,58,80,0
564.49884,564.63544,60,80,0
564.5686,564.7052,58,80,0
564.63837,564.775,60,80,0
564.7081,564.8448,58,80,0
564.7779,564.91455,60,80,0
564.15,564.9843,55,80,0
564.84766,564.9843,58,80,0
564.9174,565.0541,60,80,0
564.9872,565.12384,58,80,0
565.05695,565.1936,60,80,0
565.1268,565.26337,58,80,0
565.19653,565.3331,60,80,0
565.2663,565.4029,58,80,0
565.33606,565.47266,60,80,0
565.4058,565.5424,58,80,0
565.4756,565.6122,60,80,0
565.54535,565.68195,58,80,0
565.6151,565.7517,60,80,0
565.6849,565.82153,58,80,0
565.75464,565.8913,60,80,0
565.8244,565.96106,58,80,0
565.89417,566.0308,60,80,0
565.2663,566.1006,55,80,0
565.9639,566.1006,58,80,0
566.0337,566.17035,60,80,0
566.10345,566.2401,58,80,0
566.1733,566.3099,60,80,0
566.10345,566.37964,53,80,0
566.24304,566.37964,58,80,0
566.3128,566.37964,60,80,0
566.38257,568.6122,53,80,0
566.38257,568.6122,58,80,0
566.38257,568.6122,62,80,0
568.89417,569.0308,70,80,0
569.0337,569.17035,69,80,0
569.1732,569.3099,67,80,0
569.3128,569.4494,65,80,0
569.45233,569.5889,67,80,0
569.59186,569.72845,69,80,0
569.7314,569.868,70,80,0
569.8709,570.00757,72,80,0
570.01044,570.1471,74,80,0
570.14996,570.2866,75,80,0
570.2895,570.42615,77,80,0
570.4291,570.5657,79,80,0
570.5686,570.7052,81,80,0
570.7081,570.8447,82,80,0
570.9872,571.12384,41,80,0
571.1267,571.26337,43,80,0
571.26624,571.4029,45,80,0
571.4058,571.5424,46,80,0
571.54535,571.68195,48,80,0
571.6849,571.8215,50,80,0
571.8244,571.961,51,80,0
571.9639,572.1006,53,80,0
572.10345,572.2401,55,80,0
572.243,572.37964,57,80,0
572.3825,572.51917,58,80,0
572.5221,572.6587,60,80,0
572.6616,572.7982,62,80,0
572.80115,572.93774,63,80,0
572.9407,573.0773,62,80,0
573.0802,573.48645,62,70,0
573.0802,573.48645,58,70,0
573.4893,573.6228,62,70,0
573.4893,573.6228,58,70,0
573.6257,573.89557,62,70,0
573.6257,573.89557,58,70,0
574.0347,574.1683,47,110,0
574.0347,574.1683,35,110,0
574.17114,574.5774,48,110,0
574.17114,574.5774,36,110,0
574.5802,574.71375,48,110,0
574.5802,574.71375,36,110,0
574.71655,574.98645,48,110,0
574.71655,574.98645,36,110,0
575.1257,575.25916,62,70,0
575.1257,575.25916,59,70,0
575.262,575.6683,63,70,0
575.262,575.6683,60,70,0
575.67114,575.8046,63,70,0
575.67114,575.8046,60,70,0
575.8075,576.0774,63,70,0
575.8075,576.0774,60,70,0
576.21655,576.3501,49,110,0
576.21655,576.3501,37,110,0
576.3529,576.75916,50,110,0
576.3529,576.75916,38,110,0
576.762,576.89557,50,110,0
576.762,576.89557,38,110,0
576.8984,577.1683,50,110,0
576.8984,577.1683,38,110,0
577.31067,577.44727,64,70,0
577.31067,577.44727,61,70,0
577.4502,577.8659,65,70,0
577.4502,577.8659,62,70,0
577.8688,578.00543,65,70,0
577.8688,578.00543,62,70,0
578.0083,578.2845,65,70,0
578.0083,578.2845,62,70,0
578.43024,578.5701,50,110,0
578.43024,578.5701,38,110,0
578.5731,579.01996,51,110,0
578.5731,579.01996,39,110,0
579.02313,579.17,51,110,0
579.02313,579.17,39,110,0
579.1731,579.47,51,110,0
579.1731,579.47,39,110,0
580.831,580.9856,51,120,0
580.831,580.9856,39,120,0
580.9889,581.4593,41,120,0
580.9889,581.4593,29,120,0
581.4626,581.6462,41,120,0
581.4626,581.6462,29,120,0
581.6501,582.0212,41,120,0
581.6501,582.0212,29,120,0
583.5251,583.67194,30,80,0
583.67505,583.82196,29,80,0
583.8251,583.96497,30,80,0
583.96796,584.1078,29,80,0
584.1108,584.2443,30,80,0
584.24713,584.3807,29,80,0
584.38354,584.517,33,80,0
584.5199,584.6534,34,80,0
584.65625,584.7898,33,80,0
584.7926,584.92615,34,80,0
584.92896,585.0625,30,80,0
585.0653,585.19885,29,80,0
585.2017,585.3352,30,80,0
585.3381,585.47156,29,80,0
585.4744,585.608,42,110,0
585.6108,585.7443,41,110,0
585.74713,585.8807,42,110,0
585.4744,586.017,34,110,0
585.88354,586.017,41,110,0
586.0199,586.1534,30,80,0
586.15625,586.28973,29,80,0
586.2926,586.42615,30,80,0
586.42896,586.5625,29,80,0
586.5653,586.69885,33,80,0
586.7017,586.8352,34,80,0
586.8381,586.97156,33,80,0
586.9744,587.108,34,80,0
587.1108,587.2443,30,80,0
587.24713,587.3807,29,80,0
587.3835,587.517,30,80,0
587.5199,587.6534,29,80,0
587.65625,587.78973,42,110,0
587.7926,587.92615,41,110,0
587.92896,588.0625,42,110,0
587.65625,588.19885,34,110,0
588.0653,588.19885,41,110,0
588.2017,588.3352,30,80,0
588.3381,588.47156,29,80,0
588.4744,588.608,30,80,0
588.6108,588.7443,29,80,0
588.74713,588.8807,42,110,0
588.8835,589.017,41,110,0
589.0199,589.1534,42,110,0
588.74713,589.28973,34,110,0
589.15625,589.28973,41,110,0
589.2926,589.42615,30,80,0
589.42896,589.5625,29,80,0
589.5653,589.69885,30,80,0
589.7017,589.8352,29,80,0
589.8381,589.97156,42,110,0
589.9744,590.108,41,110,0
590.1108,590.2443,42,110,0
589.8381,590.3807,34,110,0
590.24713,590.3807,41,110,0
590.3835,590.517,30,80,0
590.5199,590.6534,29,80,0
590.65625,590.78973,30,80,0
590.7926,590.92615,29,80,0
590.92896,591.0625,42,110,0
591.0653,591.19885,41,110,0
591.2017,591.3352,42,110,0
590.92896,591.47156,34,110,0
591.3381,591.47156,41,110,0
591.4744,591.6079,54,80,0
591.6108,591.7443,53,80,0
591.74713,591.8807,54,80,0
591.8835,592.017,53,80,0
592.0199,592.1534,54,80,0
592.15625,592.28973,53,80,0
592.2926,592.42615,54,80,0
591.4744,592.5625,46,80,0
592.42896,592.5625,53,80,0
592.8381,592.97156,30,80,0
592.9744,593.1079,29,80,0
593.1108,593.2443,42,110,0
593.24713,593.3807,41,110,0
593.3835,593.517,42,110,0
593.1108,593.6534,34,110,0
593.5199,593.6534,41,110,0
593.65625,593.78973,30,80,0
593.7926,593.92615,29,80,0
593.92896,594.0625,30,80,0
594.0653,594.19885,29,80,0
594.20166,594.3352,42,110,0
594.3381,594.47156,41,110,0
594.4744,594.6079,42,110,0
594.20166,594.7443,34,110,0
594.6108,594.7443,41,110,0
594.74713,594.8807,30,80,0
594.8835,595.017,29,80,0
595.0199,595.1534,30,80,0
595.15625,595.28973,29,80,0
595.2926,595.42615,42,110,0
595.42896,595.5625,41,110,0
595.5653,595.69885,42,110,0
595.2926,595.8352,34,110,0
595.70166,595.8352,41,110,0
595.8381,595.97156,42,80,0
595.9744,596.1079,41,80,0
596.1108,596.2443,42,80,0
596.24713,596.3807,41,80,0
596.3835,596.517,42,80,0
596.5199,596.6534,41,80,0
596.65625,596.78973,42,80,0
595.8381,596.92615,34,80,0
596.7926,596.92615,41,80,0
596.92896,597.0625,45,80,0
597.0653,597.19885,46,80,0
597.20166,597.3352,45,80,0
597.3381,597.47156,46,80,0
597.4744,597.6079,45,79,0
597.6108,597.7443,46,79,0
597.74713,597.8807,45,79,0
597.8835,598.017,46,79,0
598.01984,598.1534,42,78,0
598.15625,598.28973,41,78,0
598.2926,598.4261,42,78,0
598.42896,598.5625,41,78,0
598.5653,598.69885,42,77,0
598.70166,598.8352,41,77,0
598.8381,598.97156,42,77,0
598.01984,599.1079,34,78,0
598.9744,599.1079,41,77,0
599.1108,599.2507,33,76,0
599.2536,599.3935,34,76,0
599.3965,599.5364,33,76,0
599.53937,599.6792,34,76,0
599.6822,599.8221,33,75,0
599.8251,599.96497,34,75,0
599.9679,600.1078,33,75,0
600.1108,600.2507,34,75,0
600.2536,600.4005,30,74,0
600.4036,600.5505,29,74,0
600.55365,600.7005,30,74,0
600.7036,600.8505,29,74,0
600.85364,601.00824,30,73,0
601.01154,601.16614,29,73,0
601.16943,601.32404,34,73,0
601.16943,601.32404,41,73,0
601.32733,601.48193,29,73,0
601.4852,601.6484,41,70,0
601.4852,601.6484,34,70,0
601.65186,601.81506,29,69,0
601.81854,601.98175,41,68,0
601.81854,601.98175,34,68,0
601.9852,602.1484,29,66,0
602.15186,602.33545,41,65,0
602.15186,602.33545,34,65,0
602.33936,602.52295,29,63,0
602.52686,602.71045,41,62,0
602.52686,602.71045,34,62,0
602.71436,602.89795,29,61,0
602.90186,603.08545,41,60,0
603.08936,603.27295,34,60,0
603.27686,603.46045,41,60,0
603.46436,603.64795,34,60,0
603.65186,603.83545,41,60,0
603.83936,604.02295,34,60,0
604.02686,604.21045,41,60,0
604.02686,604.21045,46,60,0
604.21436,604.39795,34,67,0
604.40186,604.6117,41,75,0
604.40186,604.6117,46,75,0
604.61615,604.826,34,83,0
604.83044,605.0403,41,91,0
604.83044,605.0403,46,91,0
605.04474,605.2546,34,99,0
605.25903,606.1117,58,120,0
605.25903,606.1117,53,120,0
605.25903,606.1117,50,120,0
605.25903,606.1117,46,120,0
606.11615,607.826,46,120,0
606.11615,607.826,34,120,0
