start_time,end_time,note_value,velocity,instrument_program_number
0.0,1.9429336,57,80,0
1.9565206,3.9877698,61,80,0
4.0019746,5.2927346,73,80,0
4.0019746,5.2927346,69,80,0
4.0019746,5.944908,66,80,0
4.0019746,5.944908,61,80,0
5.3063216,5.944908,69,80,0
5.958495,6.5970817,69,80,0
5.958495,6.5970817,61,80,0
6.6106687,7.2634463,66,80,0
6.6106687,7.2634463,61,80,0
7.277335,7.9449487,68,80,0
7.277335,7.9449487,65,80,0
7.277335,7.9449487,61,80,0
7.277335,7.9449487,59,80,0
7.959153,9.990402,69,80,0
7.959153,9.990402,66,80,0
7.959153,9.990402,61,80,0
7.959153,9.990402,57,80,0
10.004607,11.295367,59,80,0
10.004607,11.295367,71,80,0
10.004607,11.295367,66,80,0
11.308954,11.94754,74,80,0
11.308954,11.94754,66,80,0
11.308954,11.94754,62,80,0
11.961127,13.251887,74,80,0
11.961127,13.251887,66,80,0
11.961127,13.251887,62,80,0
13.265474,13.904061,73,80,0
13.265474,13.904061,66,80,0
13.265474,13.904061,61,80,0
13.917648,14.556234,73,80,0
13.917648,14.556234,66,80,0
13.917648,14.556234,61,80,0
14.569821,15.237435,77,80,0
14.569821,15.237435,73,80,0
14.569821,15.237435,71,80,0
14.569821,15.237435,65,80,0
15.251639,15.934778,78,80,0
15.251639,15.934778,73,80,0
15.251639,15.934778,69,80,0
15.251639,15.934778,66,80,0
15.949313,18.027802,80,80,0
15.949313,18.027802,73,80,0
15.949313,18.027802,68,80,0
18.042336,20.120823,74,80,0
18.042336,20.120823,71,80,0
18.042336,20.120823,68,80,0
20.135357,22.07829,74,80,0
20.135357,22.07829,71,80,0
20.135357,22.07829,68,80,0
21.439705,22.07829,62,80,0
22.091879,23.382639,73,80,0
22.091879,23.382639,69,80,0
22.091879,23.382639,61,80,0
23.396225,24.034811,71,80,0
23.396225,24.034811,65,80,0
23.396225,24.034811,62,80,0
23.396225,24.034811,59,80,0
24.048399,25.991331,71,80,0
24.048399,25.991331,65,80,0
24.048399,25.991331,62,80,0
24.048399,25.991331,59,80,0
26.00492,26.643505,71,80,0
26.00492,26.643505,65,80,0
26.00492,26.643505,62,80,0
26.00492,26.643505,59,80,0
26.657093,27.29568,69,80,0
26.657093,27.29568,66,80,0
26.657093,27.29568,61,80,0
26.657093,27.29568,57,80,0
27.309265,27.947853,68,80,0
27.309265,27.947853,66,80,0
27.309265,27.947853,62,80,0
27.309265,27.947853,56,80,0
27.96144,29.2522,68,80,0
27.96144,29.2522,66,80,0
27.96144,29.2522,63,80,0
27.96144,29.2522,56,80,0
29.265787,29.904373,68,80,0
29.265787,29.904373,66,80,0
29.265787,29.904373,63,80,0
29.265787,29.904373,56,80,0
29.91796,30.556547,68,80,0
29.91796,30.556547,66,80,0
29.91796,30.556547,63,80,0
29.91796,30.556547,56,80,0
30.570133,31.237747,69,80,0
30.570133,31.237747,66,80,0
30.570133,31.237747,63,80,0
30.570133,31.237747,57,80,0
31.251951,31.935091,66,80,0
31.251951,31.935091,63,80,0
31.251951,31.935091,57,80,0
31.251951,31.935091,54,80,0
31.949625,32.6024,63,80,0
32.61629,33.26907,60,80,0
31.949625,33.921547,66,80,0
31.949625,33.921547,57,80,0
31.949625,33.921547,54,80,0
33.28296,33.921547,61,81,0
33.93513,34.57372,65,82,0
33.93513,34.57372,61,82,0
33.93513,34.57372,56,82,0
33.93513,34.57372,53,82,0
34.587307,35.22589,68,83,0
35.23948,35.878067,71,84,0
35.89165,36.53024,65,85,0
35.89165,37.18241,71,85,0
35.89165,37.18241,62,85,0
36.543827,37.18241,68,85,0
37.196,37.834587,69,86,0
37.196,37.834587,66,86,0
37.196,37.834587,61,86,0
37.84817,38.48676,69,87,0
37.84817,38.48676,66,87,0
37.84817,38.48676,61,87,0
38.500347,39.13893,68,88,0
38.500347,39.13893,65,88,0
38.500347,39.13893,62,88,0
38.500347,39.13893,59,88,0
39.15252,39.46502,57,89,0
39.15252,39.791107,66,89,0
39.15252,39.791107,63,89,0
39.478607,39.791107,60,89,0
39.804695,41.124138,66,90,0
39.804695,41.124138,63,90,0
39.804695,41.124138,60,90,0
39.804695,41.124138,57,90,0
41.138027,41.821167,61,91,0
41.138027,41.821167,56,91,0
41.138027,41.821167,65,91,0
41.8357,42.51884,65,92,0
42.533375,43.193485,68,93,0
43.20753,43.52003,71,94,0
43.53362,43.84612,74,94,0
43.20753,44.49829,65,94,0
43.20753,44.49829,68,94,0
43.859707,45.150467,74,95,0
43.859707,45.150467,71,95,0
44.51188,45.150467,68,91,0
44.51188,45.150467,65,91,0
45.16405,45.80264,73,86,0
45.16405,45.80264,69,86,0
45.16405,45.80264,66,86,0
45.816227,46.45481,73,80,0
45.816227,46.45481,69,80,0
46.14231,46.45481,66,80,0
46.4684,47.106987,71,80,0
46.4684,47.106987,68,80,0
46.4684,47.106987,65,80,0
46.4684,47.106987,62,80,0
47.12057,47.75916,69,80,0
47.12057,47.75916,66,80,0
47.12057,47.75916,63,80,0
47.12057,47.75916,60,80,0
47.772747,49.122177,69,80,0
47.772747,49.122177,66,80,0
48.454563,49.122177,63,80,0
48.454563,49.122177,60,80,0
49.136383,49.803997,68,80,0
49.136383,49.803997,65,80,0
49.136383,49.803997,61,80,0
49.8182,51.199013,65,80,0
49.8182,51.199013,61,80,0
49.8182,51.199013,68,80,0
51.213547,52.007465,67,80,0
51.213547,52.007465,64,80,0
51.213547,52.007465,61,80,0
52.024357,52.503525,67,80,0
52.524357,54.003525,83,80,0
53.024357,54.003525,71,80,0
54.024357,54.723763,69,80,0
54.024357,54.723763,81,80,0
54.738644,56.152332,79,80,0
54.738644,56.86662,67,80,0
56.167213,56.86662,78,90,0
56.8815,58.365875,76,90,0
56.8815,59.115875,67,90,0
58.3815,59.115875,78,80,0
59.1315,60.694,79,80,0
59.1315,60.694,67,80,0
60.71045,61.483475,66,80,0
61.49992,62.1527,66,80,0
62.166588,62.819366,69,80,0
62.166588,62.819366,66,80,0
62.833256,63.48603,73,80,0
62.833256,63.48603,69,80,0
62.833256,63.48603,66,80,0
63.49992,64.81937,65,80,0
63.49992,64.81937,73,80,0
63.49992,64.81937,68,80,0
64.83325,65.48603,73,80,0
64.83325,65.48603,68,80,0
64.83325,65.48603,65,80,0
65.49992,66.81937,73,80,0
65.49992,66.81937,68,80,0
65.49992,66.81937,65,80,0
66.83325,67.50087,69,80,0
66.83325,67.50087,66,80,0
67.51507,68.182686,69,80,0
67.51507,68.182686,66,80,0
68.19689,68.8645,66,80,0
68.19689,68.8645,61,80,0
68.87871,69.21301,68,80,0
68.87871,69.21301,65,80,0
68.87871,69.21301,61,80,0
69.22755,69.578156,69,80,0
69.22755,69.578156,66,80,0
69.5934,70.942825,71,80,0
69.5934,70.942825,68,80,0
70.275215,70.942825,62,80,0
70.95703,71.62465,69,82,0
70.95703,71.62465,66,82,0
70.95703,71.62465,61,82,0
71.638855,72.306465,69,84,0
71.638855,72.98828,65,84,0
71.638855,72.98828,62,84,0
71.638855,72.98828,59,84,0
72.32067,72.98828,68,86,0
73.00249,73.6701,66,88,0
73.00249,73.6701,63,88,0
73.00249,73.6701,57,88,0
73.6843,74.35192,66,80,0
73.6843,74.35192,57,80,0
74.36613,75.03374,64,80,0
74.36613,75.03374,55,80,0
73.6843,75.71555,61,80,0
75.04794,75.71555,65,80,0
75.04794,75.71555,56,80,0
75.72976,76.73828,65,80,0
75.72976,76.73828,61,80,0
75.72976,76.73828,56,80,0
76.75249,77.07919,68,80,0
77.0934,77.4201,71,80,0
77.4343,77.76101,74,80,0
77.775215,78.47462,68,80,0
77.775215,78.47462,65,80,0
77.775215,78.47462,62,80,0
77.775215,79.1889,74,80,0
77.775215,79.1889,71,80,0
78.4895,79.1889,71,80,0
78.4895,79.1889,68,80,0
79.20378,79.90319,73,80,0
79.20378,79.90319,69,80,0
79.91807,80.61748,73,80,0
79.91807,81.348816,68,80,0
79.91807,81.348816,65,80,0
79.91807,81.348816,62,80,0
80.632355,81.348816,71,80,0
81.36406,82.098434,69,80,0
81.36406,82.098434,66,80,0
81.36406,82.098434,63,80,0
82.11406,82.848434,63,80,0
82.11406,82.848434,60,80,0
82.11406,83.598434,69,80,0
82.11406,83.598434,66,80,0
82.86406,83.598434,63,80,0
82.86406,83.598434,60,80,0
83.61406,84.348434,68,80,0
83.61406,84.348434,65,80,0
83.61406,84.348434,61,80,0
84.36406,85.098434,68,80,0
84.36406,85.098434,65,80,0
84.36406,85.098434,61,80,0
85.11406,85.90798,67,80,0
85.11406,85.90798,64,80,0
85.92487,86.90404,62,80,0
86.92487,87.40404,67,80,0
87.42487,88.65122,83,80,0
88.73569,89.5296,81,80,0
89.54649,90.340416,81,80,0
90.35731,91.09168,79,84,0
90.35731,91.09168,91,84,0
91.10731,91.84168,78,89,0
91.10731,91.84168,90,89,0
91.85731,92.59168,90,94,0
91.85731,92.59168,78,94,0
92.60731,93.34168,88,99,0
92.60731,93.34168,76,99,0
93.35731,94.11051,90,100,0
93.35731,94.11051,78,100,0
94.12653,94.920456,90,100,0
94.12653,94.920456,78,100,0
94.93735,96.2052,91,90,0
94.93735,96.2052,79,90,0
96.22306,96.63377,78,80,0
96.22306,96.63377,66,80,0
96.651634,97.38601,78,80,0
96.651634,97.38601,66,80,0
97.401634,98.101036,81,80,0
97.401634,98.101036,69,80,0
98.11591,98.81532,85,80,0
98.11591,98.81532,73,80,0
98.8302,100.24389,85,80,0
98.8302,100.24389,73,80,0
100.25877,100.958176,85,80,0
100.25877,100.958176,73,80,0
100.97306,101.67246,85,80,0
100.97306,101.67246,73,80,0
101.68734,102.38675,86,80,0
101.68734,102.38675,74,80,0
102.40163,103.101036,79,80,0
102.40163,103.101036,67,80,0
103.11591,103.815315,83,80,0
103.11591,103.815315,71,80,0
103.8302,104.54666,73,80,0
103.8302,104.54666,61,80,0
104.561905,105.31511,77,80,0
104.561905,105.31511,65,80,0
105.33114,106.0476,78,80,0
105.33114,106.0476,66,80,0
106.06284,107.145164,85,80,0
106.06284,107.145164,73,80,0
107.16041,107.51102,80,80,0
107.16041,107.51102,68,80,0
107.52626,108.279465,81,80,0
107.52626,108.279465,69,80,0
108.29549,109.585464,81,80,0
108.29549,109.585464,69,80,0
109.6063,110.085464,77,80,0
109.6063,110.085464,65,80,0
114.34954,115.54887,73,80,0
115.56576,116.35967,73,80,0
116.376564,117.17049,73,80,0
116.781975,117.57589,78,80,0
117.18738,117.9813,73,80,0
117.59278,118.3867,78,80,0
117.99819,118.79211,73,80,0
118.403595,119.19751,81,80,0
118.809,119.60292,73,80,0
119.2144,120.00832,85,80,0
119.61981,120.00832,73,80,0
120.43062,121.22454,83,80,0
120.43062,121.22454,77,80,0
120.025215,121.629944,85,80,0
121.646835,122.03535,88,80,0
121.24143,122.44076,83,80,0
121.24143,122.44076,77,80,0
122.05224,122.44076,86,80,0
122.45765,123.251564,86,80,0
122.86305,123.65697,71,80,0
123.268456,124.06238,77,80,0
123.67386,124.46778,71,80,0
124.07927,124.873184,83,80,0
124.48467,125.278595,71,80,0
124.890076,125.684,83,80,0
125.29549,126.0894,65,80,0
125.70089,126.494804,71,80,0
126.10629,126.900215,65,80,0
126.511696,126.900215,73,80,0
126.91711,127.30562,74,80,0
126.91711,127.71102,65,80,0
127.32251,128.11642,74,80,0
127.72791,128.52184,65,80,0
127.72791,128.52184,71,80,0
128.13332,129.33264,73,80,0
128.53873,129.33264,65,80,0
128.53873,129.33264,71,80,0
129.34953,129.73805,65,80,0
129.34953,129.73805,71,80,0
129.75494,130.14345,71,80,0
130.16034,130.95427,69,81,0
130.97116,131.76508,73,85,0
131.78197,132.44075,78,88,0
132.45764,132.71101,81,91,0
132.7279,133.25156,85,92,0
133.26845,133.52184,90,95,0
133.53873,133.7921,92,96,0
133.80899,134.06238,93,97,0
134.07927,134.33264,90,98,0
134.34953,134.6029,85,99,0
134.6198,134.70427,85,100,0
134.72116,134.80562,86,100,0
134.82251,134.90697,85,100,0
134.92386,135.00832,86,100,0
135.0252,135.10966,85,100,0
135.12656,135.21101,86,100,0
135.2279,135.31238,85,100,0
135.32927,135.41373,86,100,0
135.43062,135.51508,85,100,0
135.53197,135.61642,86,100,0
135.63332,135.71777,85,100,0
135.73466,135.81912,86,100,0
135.83601,135.92049,85,100,0
135.93738,136.02184,86,100,0
136.03873,136.12318,84,100,0
136.14008,136.22453,85,100,0
136.24142,136.4948,88,100,0
136.51169,136.76508,85,100,0
136.78197,137.03534,86,100,0
137.05223,137.30562,86,100,0
137.32251,137.57588,76,100,0
137.59277,137.84616,77,96,0
137.86305,138.11642,77,92,0
138.13332,138.38669,86,88,0
138.40358,138.65697,85,83,0
138.67386,138.92723,85,79,0
138.94412,139.19751,82,75,0
139.2144,139.46777,83,71,0
139.48466,139.67047,83,70,0
139.68736,139.87318,65,70,0
139.89008,140.07588,66,70,0
140.09277,140.27858,68,70,0
140.29547,140.4813,69,70,0
140.49818,140.68399,70,70,0
140.70088,140.88669,71,70,0
140.90358,141.0894,72,70,0
141.1063,141.35966,73,70,0
141.37656,141.62994,74,70,0
141.64684,141.9002,75,70,0
141.9171,142.17047,76,70,0
142.18736,142.44075,73,70,0
142.45764,142.71101,74,70,0
142.7279,142.91373,74,70,0
142.93062,143.11642,83,71,0
143.13332,143.31912,80,72,0
143.33601,143.52182,77,74,0
143.53873,143.72453,74,75,0
143.74142,143.92723,72,77,0
143.94412,144.12993,74,78,0
144.14682,144.33264,73,79,0
144.34953,145.14345,73,80,0
144.75493,145.54886,66,80,0
145.16034,146.35966,78,80,0
145.56575,146.35966,66,80,0
146.37656,146.76508,73,100,0
147.18736,147.9813,71,100,0
147.18736,147.9813,65,100,0
146.78197,148.38669,74,100,0
147.99818,148.7921,71,80,0
147.99818,148.7921,65,80,0
148.40358,149.1975,73,80,0
148.80899,149.1975,71,80,0
148.80899,149.1975,65,80,0
149.21439,149.46777,73,80,0
149.48466,149.73804,85,82,0
149.75493,150.00832,80,84,0
150.0252,150.21101,83,87,0
150.2279,150.41371,81,89,0
150.4306,150.61642,77,91,0
150.63332,150.81912,78,93,0
150.83601,151.02182,80,94,0
151.03871,151.22453,78,90,0
151.24142,151.35966,81,89,0
151.37656,151.4948,78,87,0
151.51169,151.62993,73,86,0
151.64682,152.03534,76,85,0
152.05223,152.44075,75,81,0
152.05223,152.84615,71,81,0
152.05223,152.84615,65,81,0
152.45764,152.84615,74,80,0
152.86304,153.65695,71,80,0
152.86304,153.65695,65,80,0
152.86304,153.65695,74,80,0
153.67384,154.06236,71,80,0
153.67384,154.06236,65,80,0
153.67384,155.27858,73,80,0
154.48466,155.27858,66,80,0
155.29547,156.08939,78,82,0
156.10628,157.71101,78,84,0
156.9171,157.71101,66,85,0
157.7279,158.52182,78,87,0
158.53871,160.14345,78,89,0
159.34952,160.14345,71,91,0
160.16034,160.95425,83,92,0
160.97115,162.57588,83,94,0
161.78195,162.57588,71,96,0
162.59277,163.38669,83,97,0
162.59277,163.38669,71,97,0
163.40358,164.1975,71,99,0
163.40358,164.1975,83,99,0
164.21439,165.0083,83,101,0
164.21439,165.0083,71,101,0
165.02519,165.81912,83,103,0
165.02519,165.81912,71,103,0
165.83601,166.22452,71,104,0
165.83601,166.64072,83,104,0
166.65808,167.49754,76,106,0
166.65808,167.49754,83,106,0
166.65808,167.49754,88,106,0
167.51593,168.43626,76,108,0
167.51593,168.43626,83,108,0
167.51593,168.43626,86,108,0
167.51593,168.43626,88,108,0
168.45709,169.0321,81,109,0
168.45709,169.0321,85,109,0
168.45709,169.0321,88,109,0
169.0571,169.53627,88,80,0
168.45709,170.00632,76,109,0
169.5571,170.00632,80,80,0
170.02585,170.43657,83,80,0
170.02585,170.86513,76,80,0
170.45442,170.86513,81,80,0
170.883,171.2937,80,80,0
171.31157,171.72227,81,80,0
170.883,172.15085,78,80,0
171.74013,172.57942,84,80,0
172.1687,172.57942,78,80,0
172.59727,173.008,81,80,0
173.02585,173.43657,79,80,0
173.45442,173.86513,78,80,0
173.883,174.2937,79,80,0
172.59727,174.72227,83,80,0
174.31155,175.15085,77,80,0
174.74013,175.15085,80,80,0
175.1687,175.57942,82,80,0
175.59727,176.008,81,80,0
176.02585,176.43655,80,80,0
176.45442,176.86513,81,80,0
175.1687,177.2937,76,80,0
176.883,177.72227,83,80,0
177.31155,177.72227,76,80,0
177.74013,178.15085,79,80,0
178.1687,178.57942,78,80,0
178.59727,179.008,77,80,0
179.02585,179.43655,78,80,0
177.74013,179.86513,81,80,0
179.45442,180.2937,75,80,0
179.88298,180.2937,78,80,0
180.31155,180.72227,81,80,0
180.31155,181.15085,76,80,0
180.74013,181.15085,79,80,0
181.1687,181.57942,78,80,0
181.59727,182.00798,79,80,0
182.02585,182.43655,79,80,0
181.1687,182.86513,73,80,0
182.45442,182.86513,76,80,0
182.88298,183.2937,79,80,0
182.88298,183.72227,74,80,0
183.31155,183.72227,78,80,0
183.74013,184.15085,76,80,0
184.1687,184.5794,77,80,0
183.74013,185.00798,71,80,0
184.59727,185.43655,77,80,0
185.02585,185.43655,65,80,0
185.4544,185.86513,70,80,0
185.4544,186.2937,76,80,0
185.4544,186.2937,64,80,0
185.88298,186.2937,69,80,0
186.31155,186.72227,68,80,0
186.31155,187.15085,74,80,0
186.31155,187.15085,66,80,0
186.74013,187.15085,69,80,0
187.1687,187.5794,73,80,0
187.1687,188.00798,79,80,0
187.59727,188.00798,76,80,0
188.02585,188.86513,78,80,0
188.02585,188.86513,74,80,0
188.88298,189.72227,83,80,0
188.88298,189.72227,77,80,0
188.88298,189.72227,71,80,0
189.74013,190.5794,83,80,0
189.74013,190.5794,80,80,0
189.74013,190.5794,74,80,0
189.74013,190.5794,71,80,0
190.59727,191.43655,81,80,0
190.59727,191.43655,74,80,0
190.59727,191.43655,69,80,0
191.4544,193.15083,86,80,0
191.4544,193.15083,74,80,0
192.31155,193.15083,79,80,0
193.1687,194.05885,85,80,0
193.1687,194.05885,79,80,0
193.1687,194.05885,76,80,0
193.1687,194.05885,73,80,0
194.07779,196.22833,79,80,0
194.07779,196.22833,85,80,0
194.07779,196.22833,88,80,0
194.07779,196.22833,91,80,0
196.24522,196.64291,67,80,0
196.66077,197.07689,64,80,0
197.09583,197.53174,70,80,0
197.55127,198.00049,68,80,0
198.02002,198.48184,69,80,0
198.502,198.98726,64,80,0
199.0088,199.51297,71,80,0
199.5353,200.05984,69,80,0
200.08388,200.63869,67,80,0
200.66368,201.45163,66,80,0
202.11943,204.06236,38,80,0
204.07596,204.38846,38,80,0
204.40204,204.71454,33,80,0
204.72812,206.67107,33,80,0
206.68465,207.9754,33,80,0
207.989,208.62758,33,80,0
208.64116,209.27975,30,80,0
209.94551,211.88844,86,80,0
209.94551,211.88844,74,80,0
211.90204,212.21454,86,80,0
211.90204,212.21454,74,80,0
212.22812,212.54062,81,80,0
212.22812,212.54062,69,80,0
212.55421,214.49715,81,80,0
212.55421,214.49715,69,80,0
214.51073,215.80148,69,80,0
214.51073,215.80148,81,80,0
215.81508,216.45366,81,80,0
215.81508,216.45366,69,80,0
216.46725,217.10583,78,80,0
216.46725,217.10583,66,80,0
217.77159,219.06236,38,80,0
219.07594,219.71452,38,80,0
219.72812,219.93192,38,80,0
219.94551,220.1493,37,80,0
220.1629,220.3667,38,80,0
220.3803,221.67105,33,80,0
221.68463,222.9754,33,80,0
222.98898,224.43866,33,80,0
224.45651,225.16582,30,80,0
225.83252,227.12329,86,80,0
225.83252,227.12329,74,80,0
227.13687,227.77547,86,80,0
227.13687,227.77547,74,80,0
227.78905,227.99284,86,80,0
227.78905,227.99284,74,80,0
228.00644,228.21024,85,80,0
228.00644,228.21024,73,80,0
228.22383,228.42763,86,80,0
228.22383,228.42763,74,80,0
228.44122,229.73198,81,80,0
228.44122,229.73198,69,80,0
229.74556,231.03633,81,82,0
229.74556,231.03633,69,82,0
231.04991,232.12328,81,84,0
231.04991,232.12328,69,84,0
232.13687,232.34067,79,86,0
232.13687,232.34067,67,86,0
232.35426,232.99284,78,86,0
232.35426,232.99284,66,86,0
233.00644,233.21024,66,87,0
233.22383,233.42763,76,88,0
233.44122,233.64502,74,88,0
233.65862,233.86241,73,88,0
233.87599,234.0798,71,89,0
233.00644,234.2972,78,87,0
234.09338,234.2972,69,89,0
234.31078,234.51459,67,90,0
234.52817,234.73198,70,90,0
234.74556,234.94937,69,90,0
234.96295,235.16676,67,91,0
235.18034,235.38416,69,91,0
235.39774,235.60155,71,91,0
235.61513,235.81894,73,92,0
235.83252,236.03633,74,92,0
234.31078,236.25371,79,90,0
236.04991,236.25371,76,93,0
236.2673,236.90588,81,93,0
236.2673,236.90588,69,93,0
236.91948,237.12328,69,94,0
237.13687,237.34067,79,94,0
237.35426,237.55806,78,95,0
237.57166,237.77545,76,95,0
237.78905,237.99284,74,96,0
236.91948,238.21024,81,94,0
238.00642,238.21024,72,96,0
238.22382,238.42763,71,96,0
238.44121,238.64502,74,97,0
238.6586,238.86241,72,97,0
238.87599,239.0798,71,97,0
239.09338,239.2972,72,98,0
239.31078,239.51459,74,98,0
239.52817,239.73198,76,99,0
239.74556,239.94937,78,99,0
238.22382,240.16676,83,96,0
239.96295,240.38414,79,99,0
240.39774,240.60153,79,100,0
240.61513,240.81892,78,100,0
240.83252,241.03632,76,101,0
241.04991,241.25371,74,101,0
240.18034,241.4711,85,100,0
241.2673,241.4711,73,102,0
241.4847,241.68849,74,102,0
241.70209,241.90588,76,102,0
241.4847,242.12328,86,102,0
241.91948,242.12328,78,103,0
242.13686,242.34067,76,103,0
242.35425,242.55806,82,103,0
242.57164,242.77545,81,104,0
242.78903,242.99284,79,104,0
243.00642,243.21024,78,105,0
242.13686,243.42763,88,103,0
243.22382,243.42763,76,105,0
243.44121,243.64502,78,105,0
243.6586,243.86241,79,106,0
243.44121,244.0798,90,105,0
243.87599,244.0798,81,106,0
244.09338,244.2972,79,110,0
244.31078,244.51457,78,110,0
244.09338,244.73196,91,110,0
244.52817,244.73196,76,110,0
244.74556,244.94936,75,110,0
244.96295,245.16675,74,110,0
244.74556,245.38414,81,110,0
245.18034,245.38414,75,110,0
245.39774,245.60153,74,110,0
245.61513,245.81892,72,110,0
245.39774,246.03632,83,110,0
245.83252,246.03632,71,110,0
246.04991,246.25371,74,105,0
246.26729,246.47913,73,104,0
246.49333,246.71384,71,102,0
246.72873,246.95863,68,100,0
246.97426,247.21439,69,98,0
246.04991,247.47826,77,105,0
247.23083,247.47826,71,96,0
247.49611,247.76396,73,94,0
247.78183,248.06537,70,92,0
247.49611,248.51045,76,94,0
248.08432,248.51045,69,91,0
248.53886,250.77324,81,80,0
248.53886,250.77324,75,80,0
250.78886,252.27324,71,80,0
250.78886,252.27324,83,80,0
250.78886,252.27324,78,80,0
252.28886,253.02324,78,80,0
252.28886,253.02324,75,80,0
252.28886,253.02324,71,80,0
253.03886,253.4857,81,80,0
253.50465,253.94026,78,80,0
253.9592,254.38701,79,80,0
253.9592,254.38701,91,80,0
254.40538,254.82817,83,80,0
254.40538,254.82817,71,80,0
254.84604,255.25674,78,80,0
254.84604,255.25674,90,80,0
255.27461,255.68036,76,80,0
255.27461,255.68036,88,80,0
255.69772,256.09702,74,80,0
256.11438,256.5043,77,80,0
256.5212,256.90704,79,80,0
255.69772,257.3018,86,80,0
256.9235,257.3018,78,80,0
257.31824,257.68976,85,80,0
257.31824,257.68976,81,80,0
257.31824,257.68976,76,80,0
257.31824,257.68976,73,80,0
257.7058,258.07358,72,80,0
257.7058,258.07358,75,80,0
257.7058,258.07358,81,80,0
257.7058,258.07358,84,80,0
258.0892,258.26108,81,80,0
258.2767,258.44858,78,80,0
258.4642,258.63608,75,80,0
258.0892,258.82358,84,80,0
258.6517,258.82358,72,80,0
258.8392,259.01108,69,80,0
259.0267,259.19858,66,80,0
259.2142,259.38608,63,80,0
259.4017,259.57358,60,80,0
259.5892,259.76108,69,80,0
258.8392,259.94858,72,80,0
259.7767,259.94858,63,80,0
259.9642,260.13608,62,80,0
259.9642,260.13608,59,80,0
259.9642,260.32358,71,80,0
260.1517,260.32358,67,80,0
260.3392,262.57358,70,80,0
260.3392,262.57358,67,80,0
260.3392,262.57358,62,80,0
260.3392,262.57358,58,80,0
262.5892,262.88217,66,80,0
262.9017,263.19467,62,79,0
262.5892,263.50717,69,80,0
263.2142,263.50717,61,78,0
263.5267,263.74155,66,77,0
263.76108,263.97592,62,76,0
263.99545,264.2103,57,76,0
264.22983,264.44467,66,75,0
264.4642,264.67905,66,74,0
263.5267,264.91342,69,77,0
264.69858,264.91342,62,73,0
264.93295,265.1478,65,72,0
264.93295,265.38217,68,72,0
265.16733,265.38217,62,71,0
265.4017,266.31967,67,71,0
265.4017,266.31967,64,71,0
265.4017,266.31967,58,71,0
265.4017,266.31967,55,71,0
271.30103,273.28018,66,70,0
271.30103,273.28018,63,70,0
273.30103,274.28018,71,70,0
273.30103,274.28018,66,70,0
273.30103,274.28018,63,70,0
274.30103,276.2486,71,70,0
274.30103,276.2486,66,70,0
274.30103,276.2486,63,70,0
274.30103,276.2486,59,70,0
276.26877,277.21634,71,70,0
276.26877,277.21634,66,70,0
276.26877,277.21634,63,70,0
276.26877,277.21634,59,70,0
277.2365,278.18408,71,70,0
277.2365,278.18408,64,70,0
277.2365,278.18408,59,70,0
278.20425,280.11957,69,70,0
278.20425,280.11957,64,70,0
278.20425,280.11957,61,70,0
278.20425,280.11957,57,70,0
280.1397,282.05505,69,70,0
280.1397,282.05505,66,70,0
280.1397,282.05505,62,70,0
280.1397,282.05505,57,70,0
282.0752,283.0228,66,70,0
283.04294,284.95828,57,70,0
284.97842,285.92603,69,70,0
285.94617,287.86148,66,70,0
287.88165,288.82922,90,70,0
287.88165,288.82922,81,70,0
287.88165,288.82922,78,70,0
288.8494,290.7647,79,70,0
288.8494,290.7647,76,70,0
288.8494,290.7647,88,70,0
290.78488,291.73245,81,70,0
290.78488,291.73245,79,70,0
290.78488,291.73245,76,70,0
290.78488,291.73245,69,70,0
291.75262,293.66794,81,70,0
291.75262,293.66794,78,70,0
291.75262,293.66794,69,70,0
293.6881,294.63568,78,70,0
294.65585,296.57117,69,70,0
296.59134,297.5389,81,70,0
296.59134,297.5389,69,70,0
297.55908,299.4744,78,70,0
297.55908,299.4744,66,70,0
299.49457,300.44214,81,70,0
299.49457,300.44214,69,70,0
300.4623,302.37762,71,70,0
300.4623,302.37762,83,70,0
302.39777,303.34537,85,70,0
302.39777,303.34537,79,70,0
302.39777,303.34537,76,70,0
302.39777,303.34537,73,70,0
303.3655,306.2486,86,70,0
303.3655,306.2486,78,70,0
303.3655,306.2486,74,70,0
306.26874,309.1518,88,70,0
306.26874,309.1518,85,70,0
306.26874,309.1518,76,70,0
309.17197,311.08728,88,70,0
309.17197,311.08728,85,70,0
309.17197,311.08728,76,70,0
311.10745,312.05502,90,73,0
311.10745,312.05502,87,73,0
311.10745,312.05502,78,73,0
312.0752,313.02277,91,75,0
312.0752,313.02277,88,75,0
312.0752,313.02277,79,75,0
313.04294,313.9905,93,77,0
313.04294,313.9905,88,77,0
313.04294,313.9905,81,77,0
314.01068,314.95825,91,78,0
314.01068,314.95825,88,78,0
314.01068,314.95825,81,78,0
314.01068,314.95825,93,78,0
314.97842,315.8964,93,80,0
314.97842,315.8964,81,80,0
315.91592,316.8339,81,80,0
315.91592,316.8339,69,80,0
316.85342,317.7714,78,80,0
316.85342,317.7714,66,80,0
317.79092,318.7089,78,80,0
317.79092,318.7089,66,80,0
318.72842,319.6464,74,80,0
318.72842,319.6464,62,80,0
319.66592,320.5839,76,80,0
319.66592,320.5839,64,80,0
320.60342,323.1431,78,80,0
320.60342,323.1431,66,80,0
323.16046,324.80554,79,80,0
323.16046,324.80554,67,80,0
324.82245,325.61636,83,80,0
324.82245,325.61636,71,80,0
325.63324,327.23798,83,80,0
325.63324,327.23798,79,80,0
325.63324,327.23798,71,80,0
327.25485,328.0488,82,80,0
327.25485,328.0488,79,80,0
327.25485,328.0488,70,80,0
328.06567,328.8596,82,80,0
328.06567,328.8596,70,80,0
328.8765,329.6704,88,80,0
328.8765,329.6704,76,80,0
329.6873,330.0758,89,80,0
329.6873,330.0758,77,80,0
330.0927,330.48123,90,80,0
330.0927,330.48123,78,80,0
330.4981,332.91364,90,80,0
330.4981,332.91364,78,80,0
332.93054,334.12985,75,80,0
333.33594,334.53528,78,80,0
333.74136,334.94067,80,80,0
334.55215,334.94067,90,80,0
334.14676,334.94913,87,80,0
334.95758,335.34607,92,80,0
335.36298,337.7785,77,80,0
335.36298,337.7785,65,80,0
337.7954,338.58932,68,80,0
337.7954,339.40015,80,80,0
338.6062,339.40015,77,80,0
339.41702,340.21094,78,80,0
339.41702,340.21094,80,80,0
340.22784,341.02176,80,80,0
341.03864,341.83255,73,80,0
340.22784,342.64337,85,80,0
341.84946,342.64337,73,80,0
342.66028,343.4542,73,80,0
342.66028,344.26498,81,80,0
343.47107,344.26498,69,80,0
344.2819,345.0758,66,80,0
344.2819,345.0758,73,80,0
344.2819,345.0758,78,80,0
345.0927,345.8271,78,80,0
345.0927,346.5771,90,80,0
345.8427,346.5771,87,80,0
346.5927,347.3271,90,80,0
346.5927,347.3271,87,80,0
346.5927,347.3271,78,80,0
347.3427,348.0771,90,80,0
347.3427,348.0771,87,80,0
347.3427,348.0771,78,80,0
348.0927,348.8271,87,80,0
348.0927,348.8271,80,80,0
348.0927,348.8271,78,80,0
348.8427,349.5771,85,80,0
348.8427,349.5771,80,80,0
348.8427,349.5771,77,80,0
349.5927,351.00638,83,80,0
349.5927,351.00638,80,80,0
349.5927,351.00638,77,80,0
351.37842,351.72067,53,86,0
351.02127,351.72812,56,85,0
351.73557,352.7921,50,88,0
352.09268,353.14923,53,89,0
352.44983,353.50638,58,90,0
352.80698,353.86353,62,92,0
353.52127,353.86353,70,94,0
353.16412,353.87097,65,93,0
353.87842,355.2921,82,96,0
353.87842,355.2921,70,96,0
355.30698,356.00638,79,101,0
355.30698,356.00638,67,101,0
356.02127,356.72067,79,104,0
356.02127,356.72067,67,104,0
356.73557,357.43497,75,106,0
356.73557,357.43497,63,106,0
357.44983,357.7921,65,109,0
357.44983,358.14923,77,109,0
357.44983,358.14923,74,109,0
357.44983,358.14923,70,109,0
357.80698,358.14923,68,110,0
358.16412,359.57782,79,110,0
358.16412,359.57782,75,110,0
358.16412,359.57782,70,110,0
358.16412,359.57782,67,110,0
359.59268,360.2921,83,110,0
359.59268,360.2921,71,110,0
360.30698,361.72067,80,110,0
360.30698,361.72067,68,110,0
361.73557,362.43497,77,110,0
361.73557,362.43497,65,110,0
362.44983,363.86353,85,110,0
362.44983,363.86353,73,110,0
363.87842,364.57782,82,110,0
363.87842,364.57782,70,110,0
364.59268,366.00638,79,110,0
364.59268,366.00638,67,110,0
366.02127,366.72067,75,110,0
366.37842,366.72067,67,110,0
366.37842,366.72067,63,110,0
366.73553,367.43497,68,100,0
366.73553,367.43497,63,100,0
366.73553,368.14923,71,100,0
368.16412,368.86353,68,98,0
368.87842,370.29208,76,97,0
370.30698,371.00638,73,94,0
371.02127,372.43497,70,93,0
372.44983,373.14923,90,110,0
372.44983,373.14923,78,110,0
373.16412,374.57782,87,110,0
373.16412,374.57782,75,110,0
374.59268,375.29208,84,110,0
374.59268,375.29208,72,110,0
375.30698,376.72067,92,110,0
375.30698,376.72067,80,110,0
376.73553,377.43494,88,110,0
376.73553,377.43494,76,110,0
377.44983,378.86353,85,110,0
377.44983,378.86353,73,110,0
378.87842,379.57782,69,100,0
378.87842,379.57782,57,100,0
379.59268,380.29208,57,99,0
380.30698,380.64923,58,97,0
379.59268,381.00638,66,99,0
380.66412,381.00638,63,97,0
381.02127,381.72067,63,96,0
381.73553,383.14923,83,94,0
383.16412,383.86353,80,91,0
383.8784,385.29208,77,90,0
385.30698,386.00638,85,90,0
385.30698,386.00638,73,90,0
386.02127,386.36353,73,90,0
386.3784,387.07782,78,90,0
386.02127,387.43494,81,90,0
387.09268,387.43494,69,90,0
387.44983,388.14923,86,90,0
387.44983,388.14923,74,90,0
388.16412,389.57782,83,90,0
388.16412,389.57782,71,90,0
389.59268,390.29208,80,87,0
389.59268,390.29208,68,87,0
390.30698,391.72067,65,86,0
390.30698,391.72067,77,86,0
391.73553,392.43494,74,82,0
391.73553,392.43494,71,82,0
391.73553,392.43494,68,82,0
391.73553,392.43494,65,82,0
392.44983,393.86353,71,81,0
392.44983,393.86353,68,81,0
392.44983,393.86353,65,81,0
392.44983,393.86353,62,81,0
393.8784,394.5778,68,77,0
393.8784,394.5778,65,77,0
393.8784,394.5778,62,77,0
393.8784,394.5778,59,77,0
394.59268,396.00638,59,76,0
394.59268,396.00638,65,76,0
394.59268,396.00638,62,76,0
394.59268,396.00638,56,76,0
396.02124,396.90668,53,72,0
396.02124,396.90668,56,72,0
396.02124,396.90668,59,72,0
396.02124,396.90668,62,72,0
396.91412,397.62097,59,70,0
397.09268,397.79953,56,70,0
397.27124,397.9781,53,70,0
397.6284,397.9781,47,70,0
397.44983,398.15668,50,70,0
397.80698,398.51382,44,70,0
397.98553,398.69238,47,70,0
398.16412,398.69238,47,70,0
398.16412,398.87097,50,70,0
398.34268,399.04953,53,70,0
398.52124,399.2281,56,70,0
398.69983,399.40668,59,70,0
398.8784,399.40668,59,70,0
399.05698,399.5406,65,70,0
398.8784,399.58524,62,70,0
399.23553,399.58524,68,70,0
399.41412,399.58524,71,70,0
399.59268,399.9275,71,70,0
399.59268,399.9275,74,70,0
399.77124,400.0912,77,70,0
399.94983,400.29953,80,70,0
400.1284,400.4409,83,70,0
400.30698,400.64923,86,70,0
400.48553,400.81293,84,70,0
400.66412,400.9915,86,70,0
400.30698,401.00638,81,70,0
400.84268,401.00638,85,70,0
401.02124,401.36353,86,70,0
401.19983,401.53464,73,70,0
401.3784,401.71323,86,70,0
401.02124,401.7281,81,70,0
401.55698,401.89923,85,70,0
401.73553,402.06293,73,70,0
401.91412,402.2415,85,70,0
401.73553,402.43494,81,70,0
402.09268,402.44238,86,70,0
402.27124,402.60608,85,70,0
402.44983,402.76978,83,70,0
402.6284,402.96323,69,70,0
402.80698,403.13434,83,70,0
402.98553,403.33524,81,70,0
403.16412,403.49893,69,70,0
403.34268,403.69238,81,70,0
403.52124,403.87094,83,70,0
403.69983,404.03464,81,70,0
403.8784,404.2281,80,70,0
404.05698,404.40668,66,70,0
404.23553,404.58524,80,70,0
404.41412,404.75638,78,70,0
404.59268,404.89774,68,70,0
404.77124,405.12094,80,70,0
404.94983,405.29953,81,70,0
405.1284,405.4781,80,70,0
405.30698,405.64923,69,70,0
405.48553,405.8278,81,70,0
405.66412,405.98404,83,70,0
405.84268,406.15518,81,70,0
406.02124,406.34863,83,70,0
406.19983,406.51978,70,70,0
406.3784,406.69833,83,70,0
406.55698,406.89178,82,70,0
406.73553,407.08524,71,70,0
406.91412,407.21173,83,70,0
407.09268,407.41263,85,70,0
407.27124,407.62094,83,70,0
407.44983,407.79953,85,70,0
407.6284,407.9781,83,70,0
407.80698,408.15668,71,70,0
407.98553,408.3278,83,70,0
408.16412,408.50638,71,70,0
408.34268,408.69238,83,70,0
408.52124,408.86353,85,70,0
408.69983,409.03464,83,70,0
408.8784,409.22064,88,70,0
409.05698,409.36203,86,70,0
409.23553,409.57034,74,70,0
409.4141,409.7266,86,70,0
409.59268,409.92007,74,70,0
409.77124,410.09863,86,70,0
409.94983,410.28464,88,71,0
410.1284,410.44833,86,71,0
410.30698,410.65668,88,72,0
410.48553,410.81293,86,72,0
410.6641,411.01382,74,73,0
410.84268,411.19238,86,73,0
411.02124,411.37094,73,74,0
411.19983,411.51233,85,74,0
411.3784,411.70578,86,75,0
411.55698,411.89923,85,75,0
411.73553,412.04803,86,76,0
411.9141,412.24893,85,76,0
412.09268,412.41263,73,77,0
412.27124,412.62094,85,77,0
412.44983,412.78464,77,78,0
412.44983,412.79953,83,78,0
412.6284,412.93344,89,78,0
412.80698,413.14923,90,79,0
412.98553,413.29803,89,79,0
413.1641,413.48404,92,80,0
413.34268,413.6775,90,81,0
413.52124,413.8263,78,81,0
413.52124,413.8412,81,81,0
413.69983,414.03464,90,82,0
413.8784,414.20578,93,82,0
414.05698,414.36948,92,83,0
414.23553,414.54803,80,83,0
414.4141,414.71173,92,84,0
414.77124,415.0763,92,85,0
414.94983,415.2772,80,85,0
415.1284,415.45578,92,86,0
415.48553,415.79803,92,87,0
415.6641,415.98404,80,87,0
415.84268,416.14774,92,88,0
416.19983,416.54953,80,89,0
416.3784,416.72064,88,89,0
416.55698,416.90668,86,90,0
416.73553,417.0778,85,90,0
416.9141,417.2638,86,90,0
417.09268,417.4275,80,90,0
417.27124,417.5912,86,90,0
417.6284,417.95578,86,90,0
417.80698,418.1269,80,90,0
417.98553,418.15668,86,90,0
418.1641,418.5138,74,90,0
418.34268,418.65518,85,90,0
418.52124,418.87094,88,90,0
418.69983,419.04208,86,90,0
418.8784,419.1909,85,90,0
419.05698,419.39178,86,90,0
419.23553,419.57034,74,90,0
419.4141,419.7266,86,90,0
419.59268,419.91263,74,90,0
419.77124,420.10608,86,90,0
419.94983,420.26974,88,90,0
420.1284,420.29953,86,90,0
420.30698,420.63434,86,90,0
420.48553,420.82034,85,90,0
420.6641,420.99893,73,90,0
420.84268,421.18494,85,90,0
421.02124,421.3635,84,90,0
421.19983,421.53464,85,90,0
421.3784,421.7281,73,90,0
421.55698,421.88434,85,89,0
421.73553,422.0778,82,89,0
421.9141,422.24893,83,89,0
422.09268,422.39774,71,89,0
422.27124,422.44238,83,88,0
422.44983,422.79953,71,88,0
422.6284,422.94833,83,88,0
422.80698,423.14923,85,87,0
422.98553,423.30548,83,87,0
423.1641,423.49893,82,87,0
423.34268,423.67004,83,87,0
423.52124,423.85608,71,86,0
423.69983,424.0272,83,86,0
423.8784,424.19833,71,86,0
424.05695,424.36945,83,85,0
424.23553,424.56293,85,85,0
424.4141,424.7638,83,85,0
424.77124,425.09863,85,84,0
424.94983,425.29208,71,84,0
425.1284,425.29953,83,84,0
425.48553,425.83524,83,83,0
425.6641,425.98404,69,83,0
425.84268,426.0138,81,83,0
426.19983,426.5272,81,82,0
426.3784,426.7132,68,82,0
426.55695,426.7281,80,81,0
426.73553,427.08524,68,81,0
426.9141,427.2266,80,81,0
427.09268,427.43494,79,81,0
427.27124,427.6135,80,80,0
427.44983,427.76974,81,80,0
427.6284,427.9632,80,80,0
427.80695,428.11203,68,80,0
427.98553,428.33524,80,79,0
428.1641,428.50638,68,79,0
428.34268,428.6775,80,79,0
428.52124,428.8412,81,78,0
428.69983,429.04953,80,78,0
428.8784,429.20578,81,78,0
429.05695,429.3769,80,78,0
429.23553,429.5778,68,77,0
429.4141,429.7415,80,77,0
429.59268,429.9275,69,77,0
429.77124,430.10608,81,76,0
429.94983,430.26233,83,76,0
430.1284,430.47064,81,76,0
430.30695,430.65665,80,76,0
430.48553,430.79803,78,75,0
430.6641,430.99893,66,75,0
430.84268,431.0138,78,75,0
431.02124,431.33374,77,74,0
431.19983,431.5272,78,74,0
431.3784,431.6909,66,74,0
431.55695,431.90665,78,74,0
431.73553,432.0629,80,73,0
431.9141,432.25638,78,73,0
432.09268,432.40518,66,73,0
432.27124,432.60608,78,72,0
432.44983,432.76974,77,72,0
432.6284,432.9632,78,72,0
432.80695,433.14178,66,72,0
432.98553,433.33524,78,71,0
433.34268,433.69238,78,71,0
433.52124,433.83374,65,71,0
433.69983,434.04953,77,80,0
434.05695,434.39923,81,80,0
434.23553,434.5629,68,80,0
434.4141,434.75635,80,80,0
434.77124,435.09863,85,80,0
434.94983,435.29953,71,80,0
435.1284,435.29953,84,80,0
435.30695,435.64923,85,80,0
435.48553,435.8278,71,80,0
435.6641,435.99893,85,80,0
435.84268,436.19238,83,80,0
436.02124,436.3635,82,80,0
436.19983,436.51233,83,80,0
436.3784,436.69833,71,80,0
436.55695,436.7281,83,80,0
436.73553,437.08524,83,80,0
436.9141,437.24893,81,80,0
437.09268,437.43494,69,80,0
437.27124,437.6135,81,80,0
437.44983,437.78464,83,80,0
437.6284,437.9781,69,80,0
437.80695,438.1269,83,80,0
437.98553,438.15665,81,80,0
438.1641,438.4766,81,80,0
438.34268,438.69238,68,80,0
438.52124,438.84863,81,80,0
438.6998,438.87094,80,80,0
438.8784,439.20578,80,80,0
439.05695,439.39923,66,80,0
439.23553,439.5629,80,80,0
439.4141,439.58524,78,80,0
439.59268,439.92004,77,80,0
439.77124,440.09863,78,80,0
439.9498,440.2772,66,80,0
440.1284,440.4781,78,80,0
440.30695,440.64923,80,80,0
440.48553,440.7906,78,80,0
440.6641,440.9915,66,80,0
440.84268,441.19238,78,80,0
441.02124,441.35605,65,80,0
441.1998,441.54953,77,80,0
441.3784,441.70578,78,80,0
441.55695,441.90665,77,80,0
441.73553,442.0629,78,80,0
441.9141,442.2415,65,80,0
442.09268,442.44238,78,80,0
442.27124,442.62094,77,80,0
442.4498,442.79953,68,80,0
442.6284,442.95575,80,80,0
442.80695,443.1269,81,80,0
442.98553,443.33524,80,80,0
443.1641,443.5138,83,80,0
443.34268,443.67004,71,80,0
443.52124,443.87094,74,80,0
443.6998,443.87094,86,80,0
443.8784,444.20575,85,80,0
444.05695,444.38434,86,80,0
444.23553,444.5629,74,80,0
444.4141,444.7415,86,80,0
444.59268,444.9126,88,80,0
444.77124,445.09863,86,80,0
444.9498,445.29208,74,80,0
445.1284,445.2995,86,80,0
445.30695,445.6269,86,80,0
445.48553,445.82034,73,80,0
445.6641,445.9915,86,80,0
445.84268,446.1775,85,80,0
446.1998,446.5495,86,80,0
446.3784,446.70575,73,80,0
446.55695,446.7281,85,80,0
446.9141,447.2638,85,80,0
447.09268,447.44238,71,80,0
447.27124,447.44238,83,80,0
447.6284,447.9781,83,80,0
447.80695,448.13434,69,80,0
447.98553,448.15665,81,80,0
448.1641,448.50635,83,80,0
448.34268,448.67004,69,80,0
448.52124,448.8635,83,80,0
448.6998,449.0272,81,80,0
448.8784,449.20575,80,80,0
449.05695,449.40665,81,80,0
449.23553,449.58524,69,80,0
449.4141,449.58524,81,80,0
449.59268,449.94238,81,80,0
449.77124,450.08374,68,80,0
449.9498,450.2772,81,80,0
450.1284,450.2995,80,80,0
450.48553,450.80545,80,80,0
450.6641,451.0138,68,80,0
450.84268,451.1853,80,80,0
451.20874,451.5525,92,80,0
451.39624,451.7478,80,80,0
451.58374,451.9357,92,80,0
451.9686,452.3349,91,80,0
452.166,452.56293,79,80,0
452.36868,452.56293,91,80,0
452.77408,453.13828,91,80,0
452.9664,453.32578,79,80,0
453.1539,453.4902,91,80,0
453.51996,453.8622,91,80,0
453.69855,454.03336,83,80,0
453.8771,454.21936,95,80,0
454.23425,454.5542,95,80,0
454.4128,454.71045,81,80,0
454.5914,454.93365,93,80,0
454.94855,455.29825,93,80,0
455.1271,455.4545,79,80,0
455.30566,455.63306,91,80,0
455.6628,455.9753,91,80,0
455.8414,456.1911,79,80,0
456.01996,456.36966,91,80,0
456.3771,456.68216,91,80,0
456.55566,456.86816,79,80,0
456.73425,456.90536,78,80,0
456.73425,456.90536,90,80,0
457.0914,457.41876,90,80,0
457.26996,457.58246,76,80,0
457.44855,457.7759,88,80,0
457.80566,458.11816,88,80,0
457.98425,458.31906,76,80,0
458.1628,458.4902,88,80,0
458.51996,458.86966,88,80,0
458.639,458.97382,76,80,0
458.8771,459.1896,90,80,0
458.8771,459.2268,78,80,0
459.23425,459.5616,90,80,0
459.4128,459.7253,79,80,0
459.5914,459.91876,91,80,0
459.94852,460.29825,91,80,0
460.1271,460.44705,79,80,0
460.30566,460.63306,91,80,0
460.6628,460.98276,91,80,0
460.8414,461.14645,79,80,0
461.01996,461.1911,90,80,0
461.01996,461.1911,78,80,0
461.19852,461.5259,90,80,0
461.3771,461.54825,78,80,0
461.55566,461.88306,78,80,0
461.73425,462.0616,90,80,0
461.9128,462.2402,93,80,0
462.0914,462.2625,81,80,0
462.26996,462.5899,81,80,0
462.44852,462.7908,93,80,0
462.6271,462.9545,97,80,0
462.80566,462.9768,85,80,0
462.98425,463.31906,85,80,0
463.1628,463.4902,97,80,0
463.51996,463.825,97,81,0
463.69852,464.0259,85,82,0
463.8771,464.19705,97,83,0
464.23425,464.54675,85,86,0
464.4128,464.7625,73,87,0
464.5914,464.9039,85,88,0
464.94852,465.28336,97,91,0
465.1271,465.4619,85,92,0
465.30566,465.65536,97,93,0
465.6628,465.9902,85,96,0
465.8414,466.1762,73,97,0
466.01996,466.35477,85,98,0
466.3771,466.70447,97,100,0
466.55566,466.88306,85,100,0
466.73425,467.0616,97,100,0
466.9128,467.2625,93,100,0
467.0914,467.2625,81,98,0
467.26996,467.5899,81,96,0
467.44852,467.61966,93,93,0
467.6271,467.95447,93,91,0
467.80566,467.9768,81,88,0
467.98425,468.29675,81,86,0
468.1628,468.4753,93,83,0
468.3414,468.69788,90,81,0
468.52087,468.69788,78,80,0
468.7057,469.06866,78,80,0
468.8932,469.2494,66,80,0
469.0849,469.4483,77,80,0
469.0849,469.4483,71,80,0
469.0849,469.4652,80,80,0
469.2823,469.67987,68,80,0
469.4821,469.85745,81,80,0
469.4821,469.8753,78,80,0
469.68854,469.89343,69,80,0
469.4821,469.90262,73,80,0
469.90262,470.7666,83,80,0
469.90262,470.7666,80,80,0
469.90262,470.7666,71,80,0
470.78497,471.64896,71,80,0
470.78497,471.64896,68,80,0
470.78497,471.64896,62,80,0
471.66733,472.53128,69,80,0
471.66733,472.53128,66,80,0
471.66733,472.53128,61,80,0
472.54968,473.41364,69,80,0
472.54968,473.41364,65,80,0
472.54968,473.41364,62,80,0
472.54968,473.41364,59,80,0
473.43204,474.296,68,80,0
473.43204,474.296,65,80,0
473.43204,474.296,62,80,0
473.43204,474.296,59,80,0
474.3144,475.17834,63,80,0
474.3144,475.17834,57,80,0
474.3144,475.17834,66,80,0
475.19675,476.0607,63,80,0
476.52026,476.94305,60,80,0
476.96143,477.41064,61,80,0
475.19675,477.90936,66,80,0
475.19675,477.90936,57,80,0
477.43018,477.90936,60,80,0
477.93018,479.2629,65,80,0
477.93018,479.2629,61,80,0
477.93018,479.2629,56,80,0
479.28128,479.70407,68,80,0
479.72247,480.14526,71,80,0
480.16364,480.58643,74,80,0
480.60483,481.46878,74,80,0
480.60483,481.46878,71,80,0
480.60483,481.46878,68,80,0
480.60483,481.46878,65,80,0
480.60483,481.46878,62,80,0
481.48718,482.35114,74,80,0
481.48718,482.35114,71,80,0
481.48718,482.35114,68,80,0
481.48718,482.35114,62,80,0
482.36954,483.2335,73,80,0
482.36954,483.2335,69,80,0
482.36954,483.2335,61,80,0
483.2519,484.11584,73,80,0
483.2519,484.11584,68,80,0
483.2519,484.11584,65,80,0
483.2519,484.11584,62,80,0
484.13422,484.9982,71,80,0
484.13422,484.9982,68,80,0
484.13422,484.9982,65,80,0
484.13422,484.9982,62,80,0
485.01657,485.88055,69,80,0
485.01657,485.88055,66,80,0
485.01657,485.88055,63,80,0
486.78128,487.20407,60,80,0
485.89893,487.64526,69,80,0
485.89893,487.64526,66,80,0
487.22247,487.64526,61,80,0
487.66364,488.08643,60,80,0
487.66364,488.52762,65,80,0
487.66364,488.52762,68,80,0
488.10483,488.52762,61,80,0
488.546,489.43616,68,80,0
488.546,489.43616,65,80,0
488.546,489.43616,61,80,0
488.546,489.43616,56,80,0
489.45508,490.40265,64,80,0
489.45508,490.40265,58,80,0
489.45508,490.40265,55,80,0
489.45508,491.49783,67,80,0
490.42282,491.49783,62,80,0
490.42282,491.49783,59,80,0
490.42282,491.49783,55,80,0
491.52283,491.79782,67,80,0
491.8228,493.77194,83,80,0
492.72284,493.77194,71,80,0
493.79425,494.71222,81,80,0
493.79425,494.71222,69,80,0
494.73175,495.64972,81,80,0
494.73175,495.64972,69,80,0
495.66925,496.58722,79,80,0
495.66925,496.58722,67,80,0
496.60675,497.05597,79,80,0
496.60675,497.05597,71,80,0
496.60675,497.52472,67,80,0
497.0755,497.52472,78,80,0
497.0755,497.52472,74,80,0
497.54425,498.46222,78,80,0
497.54425,498.46222,74,80,0
497.54425,498.46222,67,80,0
498.48175,499.39972,76,80,0
498.48175,499.39972,72,80,0
498.48175,499.39972,67,80,0
499.41925,499.86847,76,80,0
499.41925,499.86847,72,80,0
499.41925,499.86847,67,80,0
499.888,500.33722,78,80,0
499.888,500.33722,75,80,0
499.888,500.33722,72,80,0
499.888,500.33722,69,80,0
500.35675,500.80597,78,80,0
500.35675,500.80597,75,80,0
500.35675,500.80597,72,80,0
500.35675,500.80597,69,80,0
500.8255,501.27472,79,80,0
500.8255,501.27472,74,80,0
500.8255,501.27472,71,80,0
501.29425,502.2179,79,80,0
501.29425,502.2179,74,80,0
501.29425,502.2179,71,80,0
502.23807,502.70175,67,80,0
502.72192,503.18564,66,80,0
502.72192,503.18564,54,80,0
503.2058,504.15338,66,80,0
503.2058,504.15338,54,80,0
504.17352,505.12112,69,80,0
504.17352,505.12112,66,80,0
504.17352,505.12112,61,80,0
504.17352,505.12112,57,80,0
505.14127,506.08887,73,80,0
505.14127,506.08887,69,80,0
505.14127,506.08887,66,80,0
505.14127,506.08887,61,80,0
506.109,508.06937,68,80,0
506.109,508.06937,73,80,0
506.109,508.06937,65,80,0
506.109,508.06937,61,80,0
508.0902,509.06937,73,80,0
508.0902,509.06937,69,80,0
508.0902,509.06937,66,80,0
508.0902,509.06937,61,80,0
509.0902,510.06937,73,80,0
509.0902,510.06937,69,80,0
509.0902,510.06937,61,80,0
510.0902,511.06937,74,80,0
510.0902,511.06937,67,80,0
510.0902,511.06937,62,80,0
511.0902,512.0902,67,80,0
511.0902,512.0902,55,80,0
512.11176,513.1247,71,80,0
512.11176,513.1247,59,80,0
513.14624,514.1592,61,80,0
514.1807,515.19366,65,80,0
514.1807,515.19366,53,80,0
515.2152,516.22815,66,80,0
515.2152,516.22815,54,80,0
516.2497,517.82837,61,80,0
516.2497,517.82837,73,80,0
517.85065,518.3641,68,80,0
517.85065,518.3641,56,80,0
518.3864,519.4355,69,80,0
518.3864,519.4355,57,80,0
519.4578,521.04266,81,80,0
519.4578,521.04266,69,80,0
521.06494,521.681,77,80,0
521.06494,521.681,65,80,0
525.4623,526.57166,78,80,0
526.5873,527.32166,78,80,0
527.3373,528.07166,78,80,0
527.7123,528.44666,81,80,0
528.0873,528.82166,78,80,0
528.4623,529.19666,86,80,0
528.8373,529.57166,78,80,0
529.2123,529.94666,88,80,0
529.5873,530.32166,78,80,0
529.9623,530.69666,90,80,0
530.3373,530.69666,78,80,0
530.7123,530.7904,90,80,0
530.806,530.88416,91,80,0
530.8998,530.9779,90,80,0
530.9935,531.07166,91,80,0
531.0873,531.1654,90,80,0
531.181,531.25916,91,80,0
531.2748,531.3529,88,80,0
531.3685,531.44666,90,80,0
531.4623,532.19666,93,80,0
532.2123,532.94666,91,80,0
531.8373,533.32166,81,80,0
532.9623,534.07166,91,80,0
533.3373,534.07166,81,80,0
534.0873,534.44666,88,80,0
534.4623,534.82166,85,80,0
534.8373,535.19666,86,80,0
535.2123,535.57166,87,80,0
535.5873,536.19666,88,80,0
536.2123,536.44666,79,80,0
536.4623,536.69666,78,80,0
536.7123,536.94666,79,80,0
536.9623,537.19666,81,80,0
537.2123,537.44666,82,80,0
537.4623,537.69666,85,80,0
537.7123,537.94666,83,80,0
537.9623,538.19666,81,80,0
538.2123,538.44666,79,80,0
538.4623,538.69666,78,80,0
538.7123,538.94666,79,80,0
538.9623,539.19666,80,80,0
539.2123,539.44666,81,80,0
539.4623,539.69666,76,80,0
539.7123,540.07166,79,80,0
540.0873,540.82166,78,81,0
540.8373,541.57166,81,85,0
541.5873,542.32166,86,89,0
542.3373,543.07166,86,92,0
543.0873,543.82166,88,96,0
543.8373,544.19666,90,99,0
544.2123,544.2904,90,100,0
544.306,544.38416,91,100,0
544.3998,544.4779,90,100,0
544.4935,544.57166,91,100,0
544.5873,544.6654,90,100,0
544.681,544.75916,91,100,0
544.7748,544.8529,90,100,0
544.8685,544.94666,91,100,0
544.9623,545.0404,90,100,0
545.056,545.13416,91,100,0
545.1498,545.2279,90,100,0
545.2435,545.32166,91,100,0
545.3373,545.4154,90,100,0
545.431,545.50916,91,100,0
545.5248,545.6029,89,100,0
545.6185,545.69666,90,100,0
545.7123,546.07166,93,100,0
546.0873,546.44666,91,94,0
546.4623,547.44666,91,86,0
547.4623,547.69666,87,80,0
547.7123,547.94666,88,80,0
547.9623,548.19666,91,80,0
548.2123,548.44666,90,80,0
548.4623,548.69666,88,80,0
548.7123,549.69666,88,80,0
549.7123,549.94666,84,80,0
549.9623,550.19666,85,80,0
550.2123,550.44666,88,80,0
550.4623,550.69666,86,80,0
550.7123,550.94666,85,80,0
550.9623,551.13416,83,80,0
551.1498,551.32166,82,80,0
551.3373,551.50916,86,80,0
551.5248,551.69666,85,80,0
551.7123,551.88416,84,80,0
551.8998,552.07166,85,80,0
552.0873,552.25916,76,80,0
552.2748,552.44666,79,80,0
552.4623,552.63416,77,80,0
552.6498,552.82166,78,80,0
552.8373,553.00916,73,80,0
553.0248,553.19666,76,80,0
553.2123,553.94666,74,80,0
553.9623,555.07166,83,80,0
555.0873,555.44666,78,80,0
555.8373,556.57166,76,80,0
555.8373,556.57166,70,80,0
555.4623,556.94666,79,80,0
556.5873,557.32166,76,80,0
556.5873,557.32166,70,80,0
556.9623,557.69666,78,80,0
557.3373,557.69666,76,80,0
557.3373,557.69666,70,80,0
557.7123,557.88416,78,80,0
557.8998,558.07166,90,80,0
558.0873,558.25916,85,80,0
557.7123,558.44666,74,80,0
557.7123,558.44666,71,80,0
558.2748,558.44666,86,80,0
558.4623,558.63416,88,80,0
558.6498,558.82166,86,80,0
558.8373,559.00916,82,80,0
559.0248,559.19666,83,80,0
559.2123,559.38416,85,80,0
559.3998,559.57166,83,80,0
559.5873,559.69666,86,80,0
559.7123,559.82166,83,80,0
559.8373,559.94666,78,80,0
559.9623,560.32166,81,80,0
560.3373,561.07166,79,80,0
560.3373,561.07166,76,80,0
560.3373,561.07166,70,80,0
561.0873,561.82166,79,80,0
561.0873,561.82166,76,80,0
561.0873,561.82166,70,80,0
561.8373,562.19666,78,80,0
561.8373,562.19666,76,80,0
561.8373,562.19666,70,80,0
562.2123,562.57166,74,80,0
562.2123,562.57166,71,80,0
562.2123,563.32166,78,80,0
562.5873,563.32166,66,81,0
563.3373,563.69666,74,83,0
563.3373,563.69666,71,83,0
563.3373,564.07166,78,83,0
563.3373,564.07166,66,83,0
563.7123,564.07166,70,84,0
563.7123,564.07166,76,84,0
564.0873,564.44666,78,86,0
564.0873,564.44666,66,86,0
564.0873,564.44666,76,86,0
564.0873,564.44666,70,86,0
564.4623,564.82166,74,87,0
564.4623,564.82166,71,87,0
564.4623,564.82166,66,87,0
564.4623,565.57166,78,87,0
564.8373,565.57166,71,88,0
565.5873,565.94666,78,91,0
565.5873,565.94666,74,91,0
565.5873,566.32166,83,91,0
565.5873,566.32166,71,91,0
565.9623,566.32166,78,92,0
565.9623,566.32166,75,92,0
566.3373,566.69666,83,93,0
566.3373,566.69666,71,93,0
566.3373,566.69666,78,93,0
566.3373,566.69666,75,93,0
566.7123,567.07166,84,94,0
566.7123,567.07166,78,94,0
566.7123,567.07166,75,94,0
566.7123,567.07166,72,94,0
567.0873,567.82166,84,96,0
567.0873,567.82166,78,96,0
567.0873,567.82166,75,96,0
567.0873,567.82166,72,96,0
567.8373,568.19666,78,98,0
567.8373,568.57166,84,98,0
567.8373,568.57166,75,98,0
567.8373,568.57166,72,98,0
568.2123,568.57166,81,99,0
568.5873,568.94666,84,101,0
568.5873,568.94666,81,101,0
568.5873,568.94666,75,101,0
568.5873,568.94666,72,101,0
568.9623,569.32166,85,102,0
568.9623,569.32166,80,102,0
568.9623,569.32166,73,102,0
569.3373,570.0906,85,103,0
569.3373,570.0906,80,103,0
569.3373,570.0906,73,103,0
570.107,570.4853,80,106,0
570.107,570.9125,85,106,0
570.107,570.9125,73,106,0
570.5018,570.9125,78,107,0
570.9303,571.4095,78,108,0
570.9303,571.84106,73,108,0
570.9303,571.84106,85,108,0
571.4303,571.84106,77,109,0
571.8589,572.2474,84,80,0
571.8589,572.2474,72,80,0
572.2643,572.62366,87,80,0
572.2643,572.62366,75,80,0
572.6393,572.99866,85,80,0
572.6393,572.99866,73,80,0
573.0143,573.37366,84,80,0
573.0143,573.37366,72,80,0
573.3893,573.74866,85,80,0
573.3893,573.74866,73,80,0
573.7643,574.49866,88,80,0
573.7643,574.49866,76,80,0
574.5143,576.5154,75,80,0
574.5143,576.5154,87,80,0
576.53186,576.89124,84,80,0
576.53186,576.89124,72,80,0
576.90686,577.26624,87,80,0
576.90686,577.26624,75,80,0
577.28186,577.64124,85,80,0
577.28186,577.64124,73,80,0
577.65686,578.01624,84,80,0
577.65686,578.01624,72,80,0
578.03186,578.39124,85,80,0
578.03186,578.39124,73,80,0
578.40686,579.14124,87,80,0
578.40686,579.14124,75,80,0
579.15686,581.17896,73,80,0
579.15686,581.17896,85,80,0
581.1963,581.5746,82,80,0
581.1963,581.5746,70,80,0
581.59106,581.95044,85,80,0
581.59106,581.95044,73,80,0
581.96606,582.32544,83,80,0
581.96606,582.32544,71,80,0
582.34106,582.70044,82,80,0
582.34106,582.70044,70,80,0
582.71606,583.07544,83,80,0
582.71606,583.07544,71,80,0
583.09106,583.45044,83,80,0
583.09106,583.45044,71,80,0
583.46606,583.82544,80,80,0
583.46606,583.82544,68,80,0
583.84106,584.20044,83,80,0
583.84106,584.20044,71,80,0
584.21606,584.57544,82,80,0
584.21606,584.57544,70,80,0
584.59106,584.95044,80,80,0
584.59106,584.95044,68,80,0
584.96606,585.32544,81,80,0
584.96606,585.32544,69,80,0
585.34106,586.07544,81,80,0
585.34106,586.07544,69,80,0
586.09106,586.82544,80,80,0
586.09106,586.82544,73,80,0
586.09106,586.82544,68,80,0
586.84106,587.57544,78,80,0
586.84106,587.95044,73,80,0
587.59106,588.32544,83,80,0
587.96606,588.32544,73,80,0
588.34106,588.70044,80,80,0
588.34106,589.07544,82,80,0
588.71606,589.07544,78,80,0
589.09106,589.45044,77,80,0
589.46606,589.82544,78,80,0
589.09106,590.57544,87,80,0
589.84106,590.57544,78,80,0
589.84106,590.57544,75,80,0
590.59106,591.32544,85,80,0
590.59106,591.32544,78,80,0
590.59106,591.32544,73,80,0
591.34106,592.82544,90,80,0
591.34106,592.82544,78,80,0
592.84106,593.63495,89,80,0
592.84106,593.63495,77,80,0
593.65186,595.74426,83,80,0
593.65186,595.74426,89,80,0
593.65186,595.74426,92,80,0
593.65186,595.74426,95,80,0
595.76117,596.97656,71,80,0
596.57574,596.97656,74,80,0
596.16656,596.9855,68,80,0
596.9944,597.4051,72,80,0
597.423,597.84576,73,80,0
597.86414,598.2975,68,80,0
598.31647,598.7609,75,80,0
598.78046,599.23663,73,80,0
599.2568,599.7252,71,80,0
599.74603,600.38464,70,80,0
601.05035,602.9933,42,80,0
603.0069,603.3194,42,80,0
603.333,603.6455,37,80,0
603.65906,605.602,37,80,0
605.6156,606.9509,37,80,0
606.96545,607.6907,37,80,0
607.7063,608.4156,34,80,0
609.11194,611.0549,90,80,0
609.11194,611.0549,78,80,0
611.0685,611.381,90,80,0
611.0685,611.381,78,80,0
611.39453,611.70703,85,80,0
611.39453,611.70703,73,80,0
611.72064,613.6636,85,80,0
611.72064,613.6636,73,80,0
613.6772,614.9679,85,80,0
613.6772,614.9679,73,80,0
614.9815,615.6201,85,80,0
614.9815,615.6201,73,80,0
615.63367,616.2723,82,80,0
615.63367,616.2723,70,80,0
616.93805,618.22876,42,80,0
618.2424,618.881,42,80,0
618.89453,619.0983,42,80,0
619.11194,619.31573,41,80,0
619.32935,619.53314,42,80,0
619.5467,620.83746,37,80,0
620.8511,622.14185,37,80,0
622.1554,623.44617,37,80,0
623.4598,624.0983,34,80,0
624.7641,626.0549,78,80,0
624.7641,626.0549,90,80,0
626.0685,626.70703,90,80,0
626.0685,626.70703,78,80,0
626.72064,626.92444,90,80,0
626.72064,626.92444,78,80,0
626.93805,627.14185,89,80,0
626.93805,627.14185,77,80,0
627.1554,627.3592,90,80,0
627.1554,627.3592,78,80,0
627.3728,628.6636,85,80,0
627.3728,628.6636,73,80,0
628.6771,629.9679,85,80,0
628.6771,629.9679,73,80,0
629.9815,631.0549,85,80,0
629.9815,631.0549,73,80,0
631.0685,631.2723,83,80,0
631.0685,631.2723,71,80,0
631.2858,631.92444,82,80,0
631.2858,631.92444,70,80,0
631.938,632.14185,70,80,0
632.1554,632.3592,80,80,0
632.3728,632.5766,78,80,0
632.5902,632.794,77,80,0
632.80756,633.0114,75,80,0
631.938,633.22876,82,80,0
633.02496,633.22876,73,80,0
633.2424,633.44617,71,80,0
633.4598,633.6636,73,80,0
633.6771,633.8809,70,80,0
633.89453,634.0983,71,80,0
634.11194,634.31573,73,80,0
634.32935,634.53314,75,80,0
634.5467,634.7505,77,80,0
634.7641,634.9679,78,80,0
633.2424,635.1853,83,80,0
634.9815,635.1853,80,80,0
635.1989,635.83746,85,80,0
635.1989,635.83746,73,80,0
635.8511,636.0549,82,80,0
636.0684,636.2723,80,80,0
636.2858,636.4896,78,80,0
636.50323,636.70703,76,80,0
636.72064,636.92444,75,80,0
635.8511,637.14185,85,80,0
636.938,637.3592,73,80,0
637.3728,637.5766,75,80,0
637.5902,637.794,77,80,0
637.80756,638.01135,75,80,0
638.02496,638.22876,77,80,0
638.2424,638.44617,78,80,0
638.4598,638.6636,80,80,0
638.6771,638.8809,82,80,0
637.1554,639.0983,87,80,0
638.89453,639.31573,83,80,0
639.32935,639.53314,83,81,0
639.5467,639.7505,82,83,0
639.7641,639.9679,80,84,0
639.9815,640.1853,78,86,0
639.11194,640.4027,89,80,0
640.19885,640.4027,77,88,0
640.41626,640.62006,78,89,0
640.63367,640.83746,80,91,0
640.41626,641.0549,90,89,0
640.8511,641.0549,82,93,0
641.0684,641.2723,80,94,0
641.2858,641.4896,83,96,0
641.50323,641.70703,82,98,0
641.72064,641.92444,80,99,0
641.938,642.1418,82,101,0
641.0684,642.3592,92,94,0
642.1554,642.3592,83,103,0
642.3728,642.5766,82,104,0
642.5902,642.794,83,106,0
642.3728,643.01135,94,104,0
642.80756,643.22876,85,108,0
643.2424,643.44617,82,110,0
643.02496,643.6636,95,110,0
643.4598,643.6636,83,110,0
643.6771,643.8809,79,110,0
643.89453,644.0983,78,110,0
643.6771,644.31573,85,110,0
644.11194,644.31573,76,110,0
644.3293,644.53314,75,110,0
644.5467,644.7505,76,110,0
644.3293,644.9679,87,110,0
644.7641,645.1859,78,110,0
645.19977,645.40967,77,103,0
645.4239,645.6396,75,101,0
645.6542,645.876,72,98,0
645.89087,646.1195,73,96,0
644.9815,646.37115,81,105,0
646.13513,646.37115,75,93,0
646.38715,646.6305,77,91,0
646.647,646.8981,74,88,0
646.38715,647.1745,80,91,0
646.915,647.1745,73,86,0
647.1923,648.6767,76,80,0
647.1923,649.4267,85,80,0
647.1923,649.4267,79,80,0
648.6923,649.4267,75,80,0
649.4423,650.9267,87,80,0
649.4423,650.9267,82,80,0
649.4423,650.9267,75,80,0
650.9423,651.6767,82,80,0
650.9423,651.6767,75,80,0
650.9423,651.6767,73,80,0
651.6923,652.103,85,80,0
651.6923,652.103,73,80,0
652.1209,652.5316,82,80,0
652.1209,652.5316,70,80,0
652.5495,652.9602,83,80,0
652.5495,652.9602,71,80,0
652.978,653.38873,87,80,0
652.978,653.38873,75,80,0
653.4066,653.8173,94,80,0
653.4066,653.8173,82,80,0
653.8352,654.6745,92,80,0
653.8352,654.6745,80,80,0
654.6923,655.5316,90,80,0
654.6923,655.5316,78,80,0
655.5495,655.9602,78,80,0
655.5495,655.9602,70,80,0
655.5495,655.9602,66,80,0
655.978,656.38873,68,80,0
655.978,656.38873,65,80,0
655.978,656.38873,77,80,0
656.4066,656.8173,76,80,0
656.4066,656.8173,67,80,0
656.4066,656.8173,64,80,0
656.4066,656.8173,73,80,0
656.8352,658.5316,73,80,0
656.8352,658.5316,67,80,0
656.8352,658.5316,64,80,0
658.54944,658.7459,73,80,0
656.8352,658.9602,76,80,0
658.76373,658.9602,67,80,0
658.978,659.17444,71,80,0
658.978,659.38873,75,80,0
659.1923,659.38873,66,80,0
659.4066,661.103,71,80,0
659.4066,661.103,66,80,0
659.4066,661.103,62,80,0
659.4066,661.103,74,80,0
661.978,663.67444,70,80,0
661.978,663.67444,66,80,0
661.978,663.67444,61,80,0
663.6923,663.9215,70,80,0
661.978,664.08813,73,80,0
663.9423,664.1715,66,80,0
664.1923,664.4215,69,80,0
664.1923,664.6715,72,80,0
664.4423,664.6715,66,70,0
664.6923,665.6715,71,70,0
664.6923,665.6715,68,70,0
664.6923,665.6715,65,70,0
664.6923,665.6715,62,70,0
670.26373,671.9602,67,70,0
670.26373,671.9602,70,70,0
671.978,672.8173,75,70,0
671.978,672.8173,70,70,0
671.978,672.8173,67,70,0
672.8352,674.5316,75,70,0
672.8352,674.5316,70,70,0
672.8352,674.5316,63,70,0
672.8352,674.5316,67,70,0
674.54944,675.38873,67,70,0
674.54944,675.38873,63,70,0
674.54944,675.38873,75,70,0
675.4066,676.2459,66,70,0
675.4066,676.2459,63,70,0
675.4066,676.2459,75,70,0
676.26373,677.9602,73,70,0
676.26373,677.9602,65,70,0
676.26373,677.9602,61,70,0
677.978,679.67444,73,70,0
677.978,679.67444,70,70,0
677.978,679.67444,66,70,0
677.978,679.67444,61,70,0
679.6923,680.5316,70,70,0
680.54944,682.2459,61,70,0
682.26373,683.103,73,70,0
683.1209,684.8173,70,70,0
684.83514,685.67444,82,70,0
684.83514,685.67444,73,70,0
684.83514,685.67444,70,70,0
685.6923,687.38873,80,70,0
685.6923,687.38873,71,70,0
685.6923,687.38873,68,70,0
687.4066,688.2459,73,70,0
687.4066,688.2459,71,70,0
687.4066,688.2459,68,70,0
687.4066,688.2459,61,70,0
688.26373,689.96014,73,70,0
688.26373,689.96014,70,70,0
688.26373,689.96014,66,70,0
688.26373,689.96014,61,70,0
689.978,690.8173,82,70,0
690.83514,692.5316,73,70,0
692.54944,693.38873,85,70,0
692.54944,693.38873,73,70,0
693.4066,695.103,82,70,0
693.4066,695.103,70,70,0
695.1209,696.8173,85,70,0
695.1209,696.8173,73,70,0
696.83514,697.2459,85,70,0
696.83514,697.67444,87,70,0
696.83514,697.67444,75,70,0
697.26373,697.67444,83,70,0
697.6923,698.103,82,70,0
697.6923,698.5316,89,70,0
697.6923,698.5316,77,70,0
698.1209,698.5316,83,70,0
698.54944,700.2459,82,70,0
698.54944,701.103,90,70,0
698.54944,701.103,78,70,0
701.1209,703.67444,92,70,0
701.1209,703.67444,89,70,0
701.1209,703.67444,80,70,0
702.83514,703.67444,85,70,0
703.6923,705.38873,94,70,0
703.6923,705.38873,90,70,0
703.6923,705.38873,85,70,0
703.6923,705.38873,82,70,0
705.4066,706.24585,82,70,0
705.4066,706.24585,73,70,0
705.4066,706.24585,70,70,0
706.26373,707.5316,85,70,0
706.26373,707.5316,82,70,0
706.26373,707.5316,73,70,0
707.54944,707.96014,86,70,0
707.54944,707.96014,83,70,0
707.54944,707.96014,74,70,0
707.978,708.38873,88,70,0
707.978,708.38873,85,70,0
707.978,708.38873,76,70,0
708.4066,708.8173,90,70,0
708.4066,708.8173,86,70,0
708.4066,708.8173,78,70,0
708.83514,710.3195,90,70,0
708.83514,710.3195,78,70,0
710.33514,711.0695,86,70,0
710.33514,711.0695,74,70,0
711.08514,711.8195,86,70,0
711.08514,711.8195,74,70,0
711.83514,712.5695,83,70,0
711.83514,712.5695,71,70,0
712.58514,713.3195,85,70,0
712.58514,713.3195,73,70,0
713.33514,714.8195,86,70,0
713.33514,714.8195,74,70,0
717.83514,720.0695,83,70,0
717.83514,720.0695,71,70,0
720.08514,722.3195,86,70,0
720.08514,722.3195,74,70,0
722.33514,725.3195,91,70,0
722.33514,725.3195,79,70,0
725.33514,726.1082,74,77,0
725.33514,726.1082,71,77,0
726.12463,726.5239,72,79,0
726.12463,726.5239,66,79,0
726.5413,727.02045,71,79,0
726.5413,727.02045,67,79,0
727.0413,727.8584,71,80,0
727.0413,727.8584,67,80,0
728.6253,730.1097,43,80,0
730.1253,730.8597,43,80,0
730.8753,731.1097,43,80,0
731.1253,731.3597,42,80,0
731.3753,731.6097,43,80,0
731.6253,733.1097,38,80,0
733.1253,734.6097,38,80,0
734.6253,736.3438,38,80,0
736.3647,737.18176,35,80,0
737.9486,739.433,91,80,0
737.9486,739.433,79,80,0
739.4486,740.183,91,80,0
739.4486,740.183,79,80,0
740.1986,740.433,91,80,0
740.1986,740.433,79,80,0
740.4486,740.683,90,80,0
740.4486,740.683,78,80,0
740.6986,740.933,91,80,0
740.6986,740.933,79,80,0
740.9486,742.433,86,80,0
740.9486,742.433,74,80,0
742.4486,743.933,86,80,0
742.4486,743.933,74,80,0
743.9486,745.433,86,80,0
743.9486,745.433,74,80,0
745.4486,746.933,86,80,0
745.4486,746.933,74,80,0
746.9486,748.433,86,80,0
746.9486,748.433,74,80,0
748.4486,749.433,86,81,0
748.4486,749.433,74,81,0
749.4486,749.683,85,84,0
749.4486,749.683,73,84,0
749.6986,749.933,86,85,0
749.6986,749.933,74,85,0
749.9486,751.433,86,85,0
749.9486,751.433,78,85,0
749.9486,751.433,74,85,0
751.4486,752.933,86,90,0
751.4486,752.933,78,90,0
751.4486,752.933,74,90,0
752.9486,753.933,90,94,0
752.9486,753.933,78,94,0
753.9486,754.183,89,97,0
753.9486,754.183,77,97,0
754.1986,754.433,90,98,0
754.1986,754.433,78,98,0
754.4486,755.82947,90,98,0
754.4486,755.82947,78,98,0
755.844,756.876,78,103,0
755.844,756.876,90,103,0
757.2393,758.2713,90,107,0
757.2393,758.2713,78,107,0
758.6347,758.969,90,110,0
758.6347,758.969,78,110,0
758.9835,759.3178,90,110,0
759.33234,759.6667,90,110,0
759.6812,760.0155,90,110,0
760.03,760.3643,90,110,0
760.37885,760.7132,90,110,0
760.7277,761.062,90,110,0
761.07654,761.4108,90,110,0
761.42535,761.7597,90,110,0
761.77423,762.1085,90,110,0
762.12305,762.4824,90,110,0
762.49805,763.06946,90,110,0
763.1007,764.5851,73,80,0
764.6007,765.3001,69,80,0
765.315,766.0144,69,80,0
766.0293,766.7287,66,80,0
766.7436,767.443,68,80,0
766.7436,767.443,65,80,0
766.7436,767.443,61,80,0
767.4579,768.8716,69,80,0
767.4579,768.8716,66,80,0
767.4579,768.8716,61,80,0
767.4579,768.8716,57,80,0
768.8864,769.5859,70,80,0
768.8864,769.5859,66,80,0
768.8864,769.5859,61,80,0
768.8864,769.5859,58,80,0
769.6007,771.0144,71,80,0
769.6007,771.0144,66,80,0
769.6007,771.0144,59,80,0
769.6007,771.0144,62,80,0
771.0293,771.7287,74,80,0
771.0293,771.7287,71,80,0
771.0293,771.7287,66,80,0
771.0293,771.7287,62,80,0
771.7436,773.1573,74,80,0
771.7436,773.1573,71,80,0
771.7436,773.1573,65,80,0
771.7436,773.1573,62,80,0
773.1722,773.8716,73,80,0
773.1722,773.8716,69,80,0
773.1722,773.8716,66,80,0
773.1722,773.8716,61,80,0
773.8864,774.5859,73,80,0
773.8864,774.5859,69,80,0
773.8864,774.5859,66,80,0
773.8864,774.5859,61,80,0
774.6007,775.3001,71,80,0
774.6007,775.3001,68,80,0
774.6007,775.3001,62,80,0
774.6007,775.3001,59,80,0
775.315,776.0144,69,80,0
775.315,776.0144,66,80,0
775.315,776.0144,63,80,0
775.315,776.0144,57,80,0
776.0293,776.71246,63,80,0
776.0293,777.42224,69,80,0
776.0293,777.42224,66,80,0
776.0293,777.42224,57,80,0
776.727,778.13654,61,80,0
777.43713,778.13654,68,80,0
777.43713,778.13654,65,80,0
777.43713,778.13654,56,80,0
778.15137,778.85913,68,80,0
778.15137,778.85913,65,80,0
778.15137,778.85913,61,80,0
778.15137,778.85913,56,80,0
778.8744,779.5908,58,80,0
778.8744,779.5908,55,80,0
778.8744,779.5908,64,80,0
778.8744,780.4454,67,80,0
779.6061,780.4454,62,80,0
779.6061,780.4454,59,80,0
779.6061,780.4454,55,80,0
780.46326,780.5815,71,80,0
780.5984,782.0084,83,80,0
781.27405,782.0084,71,80,0
782.02405,782.77686,81,80,0
782.02405,782.77686,69,80,0
782.79285,783.5461,81,80,0
782.79285,783.5461,69,80,0
783.56213,784.3288,79,80,0
783.56213,784.3288,67,80,0
784.3453,785.1183,78,80,0
784.3453,785.1183,66,80,0
785.1347,785.9158,78,80,0
785.1347,785.9158,66,80,0
785.9326,786.72656,76,80,0
785.9326,786.72656,64,80,0
786.74347,787.53925,78,80,0
786.74347,787.53925,66,80,0
787.55664,788.37256,78,80,0
787.55664,788.37256,66,80,0
788.38995,789.6295,67,80,0
788.38995,789.6295,79,80,0
789.6474,790.0581,66,80,0
789.6474,790.0581,54,80,0
790.076,790.9152,66,80,0
790.076,790.9152,54,80,0
790.9331,791.785,69,80,0
790.9331,791.785,57,80,0
791.80334,792.66736,69,80,0
791.80334,792.66736,66,80,0
791.80334,792.66736,73,80,0
791.80334,792.66736,61,80,0
792.6857,794.46436,65,80,0
792.6857,794.46436,61,80,0
792.6857,794.46436,73,80,0
792.6857,794.46436,68,80,0
794.4833,795.3735,73,80,0
794.4833,795.3735,61,80,0
794.4833,795.3735,69,80,0
794.4833,795.3735,66,80,0
795.3924,796.3086,73,80,0
795.3924,796.3086,69,80,0
795.3924,796.3086,61,80,0
796.3281,797.2461,74,80,0
796.3281,797.2461,67,80,0
796.3281,797.2461,62,80,0
797.2656,798.20245,67,80,0
797.2656,798.20245,55,80,0
798.22266,799.1702,71,80,0
798.22266,799.1702,59,80,0
799.19037,800.14874,61,80,0
799.19037,800.14874,49,80,0
800.16956,800.64874,65,80,0
800.16956,800.64874,53,80,0
800.66956,801.14874,66,80,0
800.66956,801.14874,54,80,0
801.16956,801.80817,66,80,0
801.16956,802.1342,64,80,0
801.16956,802.1342,58,80,0
801.16956,802.1342,54,80,0
802.1478,802.7864,66,80,0
802.4739,803.1125,78,80,0
802.8,803.4386,66,80,0
803.45215,804.09076,66,80,0
803.1261,804.4168,78,80,0
804.1043,804.7429,66,80,0
804.4304,805.06903,73,80,0
804.75653,805.3951,66,80,0
805.0826,805.7212,76,80,0
805.4087,806.04724,66,80,0
805.73474,806.37335,74,80,0
806.06085,806.69946,68,80,0
806.06085,806.69946,65,80,0
806.06085,806.69946,62,80,0
806.38696,807.0255,71,80,0
806.713,807.3516,68,80,0
806.713,807.3516,65,80,0
806.713,807.3516,62,80,0
807.0391,807.6777,71,80,0
807.3652,808.0038,68,80,0
807.3652,808.0038,65,80,0
807.3652,808.0038,62,80,0
807.6913,808.3299,74,80,0
808.0174,808.65594,68,80,0
808.0174,808.65594,65,80,0
808.0174,808.65594,62,80,0
808.34344,808.98206,71,80,0
808.66956,808.98206,68,80,0
808.66956,808.98206,65,80,0
808.66956,808.98206,62,80,0
808.9956,809.19946,70,80,0
809.213,809.4168,78,81,0
808.9956,809.6342,66,80,0
808.9956,809.6342,61,80,0
809.4304,809.6342,73,83,0
809.6478,809.8516,82,85,0
809.8652,810.06903,78,86,0
810.0826,810.2864,85,88,0
810.3,810.5038,78,90,0
810.5174,810.7212,91,92,0
810.73474,810.93854,90,93,0
810.95215,811.15594,89,95,0
811.16956,811.37335,90,97,0
811.38696,811.8081,88,98,0
811.8217,812.0255,85,102,0
812.0391,812.2429,82,104,0
812.25653,812.4603,79,105,0
812.4739,812.6777,78,107,0
812.25653,812.8951,73,105,0
812.6913,813.1125,76,109,0
813.12604,813.3299,73,110,0
813.34344,813.54724,74,110,0
813.56085,813.80756,83,110,0
813.82404,814.07074,78,110,0
814.08716,814.6107,86,110,0
814.6281,814.91284,85,110,0
814.93365,815.24615,83,110,0
815.26697,816.8755,74,110,0
815.26697,816.8755,77,110,0
815.26697,816.8755,83,110,0
815.26697,816.8755,71,110,0
815.26697,816.8755,80,110,0
816.8911,817.6255,83,96,0
816.8911,817.6255,80,96,0
816.8911,817.6255,77,96,0
816.8911,817.6255,74,96,0
816.8911,817.6255,71,96,0
817.6411,821.3755,82,80,0
817.6411,821.3755,78,80,0
817.6411,821.3755,73,80,0
817.6411,821.3755,70,80,0
821.3911,823.6255,70,76,0
821.3911,823.6255,73,76,0
821.3911,823.6255,78,76,0
821.3911,823.6255,82,76,0
823.6411,825.8755,90,74,0
823.6411,825.8755,82,74,0
823.6411,825.8755,78,74,0
825.8911,827.3755,78,71,0
825.8911,827.3755,82,71,0
825.8911,827.3755,90,71,0
827.3911,830.43506,94,70,0
827.3911,830.43506,85,70,0
827.3911,830.43506,82,70,0
830.45197,831.3597,73,70,0
831.38055,833.0718,73,70,0
833.0887,833.88257,69,70,0
833.8995,834.69336,69,70,0
834.71027,835.5042,66,70,0
835.52106,836.315,68,70,0
835.52106,836.315,65,70,0
835.52106,836.315,61,70,0
836.3319,837.93665,69,70,0
836.3319,837.93665,66,70,0
836.3319,837.93665,61,70,0
837.9535,838.74744,70,70,0
837.9535,838.74744,66,70,0
837.9535,838.74744,61,70,0
837.9535,838.74744,58,70,0
838.76434,840.3691,66,70,0
838.76434,840.3691,62,70,0
838.76434,840.3691,59,70,0
838.76434,840.3691,71,70,0
840.3859,841.1799,73,70,0
840.3859,841.1799,70,70,0
840.3859,841.1799,66,70,0
840.3859,841.1799,61,70,0
841.1968,841.99066,74,70,0
841.1968,841.99066,71,70,0
841.1968,841.99066,66,70,0
841.1968,841.99066,62,70,0
842.00757,843.6123,74,70,0
842.00757,843.6123,71,70,0
842.00757,843.6123,68,70,0
842.00757,843.6123,62,70,0
843.6292,845.23395,74,70,0
843.6292,845.23395,71,70,0
843.6292,845.23395,68,70,0
843.6292,845.23395,62,70,0
845.2508,845.63934,74,70,0
845.2508,845.63934,71,70,0
845.2508,845.63934,68,70,0
845.2508,845.63934,62,70,0
845.6562,846.04474,73,70,0
845.6562,846.04474,70,70,0
845.6562,846.04474,61,70,0
846.06165,851.04425,73,70,0
846.06165,851.04425,70,70,0
846.06165,851.04425,61,70,0
851.06165,856.18665,85,70,0
851.06165,856.18665,78,70,0
851.06165,856.18665,70,70,0
856.20447,858.8331,85,70,0
856.20447,858.8331,78,70,0
856.20447,858.8331,70,70,0
858.85156,861.5599,73,70,0
858.85156,861.5599,66,70,0
858.85156,861.5599,58,70,0
862.94244,867.9235,58,60,0
863.397,867.9235,66,60,0
863.85156,867.9235,73,60,0
873.397,874.2871,66,1,0
0.0,1.9429336,45,80,0
0.0,1.9429336,33,80,0
1.9565206,3.9877698,49,80,0
1.9565206,3.9877698,37,80,0
4.0019746,5.944908,54,80,0
4.0019746,5.944908,49,80,0
4.0019746,5.944908,42,80,0
5.958495,6.5970817,54,80,0
5.958495,6.5970817,49,80,0
5.958495,6.5970817,42,80,0
6.6106687,7.2634463,57,80,0
6.6106687,7.2634463,49,80,0
6.6106687,7.2634463,45,80,0
7.277335,7.9449487,56,80,0
7.277335,7.9449487,49,80,0
7.277335,7.9449487,44,80,0
7.959153,9.990402,54,80,0
7.959153,9.990402,49,80,0
7.959153,9.990402,42,80,0
10.004607,11.295367,50,80,0
10.004607,11.295367,38,80,0
11.308954,11.94754,47,80,0
11.308954,11.94754,35,80,0
11.961127,13.251887,47,80,0
11.961127,13.251887,35,80,0
13.265474,13.904061,45,80,0
13.265474,13.904061,33,80,0
13.917648,14.556234,45,80,0
13.917648,14.556234,33,80,0
14.569821,15.237435,44,80,0
14.569821,15.237435,32,80,0
15.251639,15.934778,42,80,0
15.251639,15.934778,30,80,0
15.949313,18.027802,41,80,0
15.949313,18.027802,29,80,0
18.042336,20.120823,62,80,0
18.042336,20.120823,59,80,0
18.042336,20.120823,56,80,0
18.042336,20.120823,53,80,0
20.135357,22.07829,40,80,0
20.135357,22.07829,28,80,0
22.091879,23.382639,42,80,0
22.091879,23.382639,30,80,0
23.396225,24.034811,44,80,0
23.396225,24.034811,32,80,0
24.048399,25.991331,44,80,0
24.048399,25.991331,32,80,0
26.00492,26.643505,44,80,0
26.00492,26.643505,32,80,0
26.657093,27.29568,45,80,0
26.657093,27.29568,33,80,0
27.309265,27.947853,47,80,0
27.309265,27.947853,35,80,0
27.96144,29.2522,48,80,0
27.96144,29.2522,36,80,0
29.265787,29.904373,48,80,0
29.265787,29.904373,36,80,0
29.91796,30.556547,48,80,0
29.91796,30.556547,36,80,0
30.570133,31.237747,48,80,0
30.570133,31.237747,36,80,0
31.251951,31.935091,48,80,0
31.251951,31.935091,36,80,0
31.949625,33.921547,49,80,0
31.949625,33.921547,37,80,0
33.93513,34.57372,49,82,0
33.93513,34.57372,37,82,0
34.587307,35.22589,56,83,0
34.587307,35.22589,53,83,0
34.587307,35.22589,49,83,0
35.23948,35.878067,59,84,0
35.23948,35.878067,56,84,0
35.23948,35.878067,49,84,0
35.89165,37.18241,59,85,0
35.89165,37.18241,49,85,0
37.196,37.834587,57,86,0
37.196,37.834587,49,86,0
37.84817,38.48676,57,87,0
37.84817,38.48676,49,87,0
38.500347,39.13893,56,88,0
38.500347,39.13893,49,88,0
39.15252,39.791107,54,89,0
39.15252,39.791107,49,89,0
39.804695,41.124138,54,90,0
39.804695,41.124138,49,90,0
41.138027,41.821167,53,91,0
41.138027,41.821167,49,91,0
41.8357,42.51884,53,92,0
41.8357,43.193485,49,92,0
42.533375,43.193485,56,93,0
43.20753,43.52003,59,94,0
43.20753,43.84612,56,94,0
43.20753,43.84612,49,94,0
43.53362,43.84612,62,94,0
43.859707,45.150467,62,95,0
43.859707,45.150467,59,95,0
43.859707,45.150467,49,95,0
45.16405,45.80264,61,86,0
45.16405,45.80264,57,86,0
45.16405,45.80264,49,86,0
45.816227,46.45481,61,80,0
45.816227,46.45481,57,80,0
45.816227,46.45481,49,80,0
46.4684,47.106987,59,80,0
46.4684,47.106987,56,80,0
46.4684,47.106987,49,80,0
47.12057,47.75916,57,80,0
47.12057,47.75916,54,80,0
47.12057,47.75916,49,80,0
47.772747,49.122177,57,80,0
47.772747,49.122177,54,80,0
47.772747,49.122177,49,80,0
49.136383,49.803997,56,80,0
49.136383,49.803997,53,80,0
49.136383,49.803997,49,80,0
49.8182,51.199013,56,80,0
49.8182,51.199013,53,80,0
49.8182,51.199013,49,80,0
51.213547,52.007465,58,80,0
51.213547,52.007465,55,80,0
51.213547,52.007465,52,80,0
51.213547,52.007465,49,80,0
52.024357,54.723763,59,80,0
52.024357,54.723763,55,80,0
52.024357,54.723763,50,80,0
54.738644,56.152332,62,80,0
54.738644,56.86662,59,80,0
54.738644,56.86662,55,80,0
56.167213,56.86662,62,90,0
56.8815,59.115875,64,90,0
56.8815,59.115875,60,90,0
59.1315,60.694,62,80,0
59.1315,60.694,59,80,0
60.71045,61.483475,62,80,0
61.49992,62.1527,62,80,0
62.166588,62.819366,61,80,0
62.833256,63.48603,61,80,0
62.833256,63.48603,57,80,0
62.833256,63.48603,54,80,0
62.833256,63.48603,49,80,0
63.49992,64.81937,61,80,0
63.49992,64.81937,56,80,0
63.49992,64.81937,53,80,0
63.49992,64.81937,49,80,0
64.83325,65.48603,61,80,0
64.83325,65.48603,56,80,0
64.83325,65.48603,53,80,0
64.83325,65.48603,49,80,0
65.49992,66.81937,61,80,0
65.49992,66.81937,56,80,0
65.49992,66.81937,53,80,0
65.49992,66.81937,49,80,0
66.83325,67.50087,61,80,0
66.83325,67.50087,57,80,0
66.83325,67.50087,54,80,0
67.51507,68.182686,61,80,0
67.51507,68.182686,57,80,0
67.51507,68.182686,54,80,0
68.19689,68.8645,57,80,0
68.87871,69.21301,59,80,0
68.87871,69.21301,56,80,0
69.22755,69.578156,57,80,0
69.22755,69.578156,54,80,0
70.275215,70.942825,41,80,0
70.95703,71.62465,42,82,0
71.638855,72.64738,44,84,0
72.661575,72.98828,45,87,0
73.00249,73.32919,47,88,0
69.5934,73.6701,37,80,0
73.3434,73.6701,48,89,0
73.6843,76.056465,49,80,0
73.6843,76.056465,37,80,0
76.07067,76.39737,49,80,0
76.411575,76.73828,53,80,0
76.75249,77.07919,56,80,0
77.0934,77.4201,59,80,0
77.4343,77.76101,62,80,0
77.775215,78.47462,49,80,0
77.775215,78.47462,37,80,0
78.4895,79.1889,53,80,0
78.4895,79.1889,49,80,0
78.4895,79.1889,41,80,0
79.20378,79.90319,54,80,0
79.20378,79.90319,49,80,0
79.20378,79.90319,42,80,0
79.91807,80.98296,56,80,0
79.91807,80.98296,49,80,0
79.91807,80.98296,44,80,0
80.99821,81.348816,57,80,0
80.99821,81.348816,45,80,0
81.36406,81.723434,59,80,0
81.36406,81.723434,47,80,0
81.73906,82.098434,60,80,0
81.73906,82.098434,48,80,0
82.11406,83.598434,49,80,0
82.86406,83.598434,57,80,0
82.86406,83.598434,54,80,0
83.61406,84.348434,56,80,0
83.61406,84.348434,53,80,0
83.61406,84.348434,49,80,0
84.36406,85.098434,56,80,0
84.36406,85.098434,53,80,0
84.36406,85.098434,49,80,0
85.11406,85.90798,58,80,0
85.11406,85.90798,55,80,0
85.11406,85.90798,52,80,0
85.11406,85.90798,49,80,0
85.92487,86.90404,59,80,0
85.92487,86.90404,55,80,0
85.92487,86.90404,50,80,0
86.92487,89.5296,59,80,0
86.92487,89.5296,50,80,0
86.92487,89.5296,43,80,0
89.54649,91.84168,62,80,0
89.54649,91.84168,55,80,0
89.54649,91.84168,47,80,0
91.85731,94.11051,64,94,0
91.85731,94.11051,55,94,0
91.85731,94.11051,48,94,0
94.12653,94.920456,62,100,0
94.12653,94.920456,55,100,0
94.12653,95.776634,47,100,0
94.93735,95.776634,55,90,0
95.79449,96.63377,54,80,0
95.79449,96.63377,50,80,0
96.651634,97.38601,54,80,0
96.651634,97.38601,50,80,0
97.401634,98.101036,57,80,0
97.401634,98.101036,54,80,0
97.401634,98.101036,49,80,0
98.11591,98.81532,61,80,0
98.11591,98.81532,57,80,0
98.11591,98.81532,54,80,0
98.11591,98.81532,49,80,0
98.8302,100.24389,56,80,0
98.8302,100.24389,53,80,0
98.8302,100.24389,49,80,0
98.8302,100.24389,61,80,0
100.25877,100.958176,61,80,0
100.25877,100.958176,57,80,0
100.25877,100.958176,54,80,0
100.97306,101.67246,61,80,0
100.97306,101.67246,57,80,0
100.97306,101.67246,54,80,0
101.68734,102.38675,62,80,0
101.68734,103.101036,47,80,0
102.40163,103.101036,55,80,0
103.11591,103.815315,59,80,0
103.8302,104.54666,49,80,0
103.8302,104.54666,37,80,0
104.561905,105.31511,53,80,0
105.33114,106.0476,54,80,0
105.33114,106.0476,49,80,0
105.33114,106.0476,42,80,0
106.06284,107.51102,49,80,0
106.06284,107.51102,41,80,0
106.12382,107.57433,56,80,0
107.52626,108.279465,54,80,0
107.52626,108.279465,49,80,0
107.52626,108.279465,42,80,0
108.29549,109.585464,57,80,0
108.29549,110.085464,49,80,0
109.6063,110.085464,53,80,0
111.1063,111.49481,42,70,0
111.91711,112.305626,49,70,0
111.91711,112.305626,54,70,0
111.91711,112.305626,57,70,0
111.91711,112.305626,61,70,0
112.72792,113.11643,49,70,0
112.72792,113.11643,54,70,0
112.72792,113.11643,57,70,0
112.72792,113.11643,61,70,0
113.538734,113.927246,42,70,0
114.34954,114.73805,49,70,0
114.34954,114.73805,54,70,0
114.34954,114.73805,57,70,0
114.34954,114.73805,61,70,0
115.160355,115.54887,49,70,0
115.160355,115.54887,54,70,0
115.160355,115.54887,57,70,0
115.160355,115.54887,61,70,0
115.97116,116.35967,42,70,0
116.781975,117.17049,49,70,0
116.781975,117.17049,54,70,0
116.781975,117.17049,57,70,0
116.781975,117.17049,61,70,0
117.59278,117.9813,49,70,0
117.59278,117.9813,54,70,0
117.59278,117.9813,57,70,0
117.59278,117.9813,61,70,0
118.403595,118.79211,42,70,0
119.2144,119.60292,49,70,0
119.2144,119.60292,54,70,0
119.2144,119.60292,57,70,0
119.2144,119.60292,61,70,0
120.025215,120.41373,49,70,0
120.025215,120.41373,53,70,0
120.025215,120.41373,56,70,0
120.025215,120.41373,59,70,0
120.025215,120.41373,61,70,0
120.83603,121.22454,44,70,0
121.646835,122.03535,53,70,0
121.646835,122.03535,56,70,0
121.646835,122.03535,59,70,0
121.646835,122.03535,62,70,0
122.45765,122.84616,53,70,0
122.45765,122.84616,56,70,0
122.45765,122.84616,59,70,0
122.45765,122.84616,62,70,0
123.268456,123.65697,44,70,0
124.07927,124.46778,53,70,0
124.07927,124.46778,56,70,0
124.07927,124.46778,59,70,0
124.07927,124.46778,62,70,0
124.890076,125.278595,49,70,0
124.890076,125.278595,53,70,0
124.890076,125.278595,56,70,0
124.890076,125.278595,59,70,0
124.890076,125.278595,62,70,0
125.70089,126.0894,44,70,0
126.511696,126.900215,53,70,0
126.511696,126.900215,56,70,0
126.511696,126.900215,59,70,0
126.511696,126.900215,62,70,0
127.32251,127.71102,53,70,0
127.32251,127.71102,56,70,0
127.32251,127.71102,59,70,0
127.32251,127.71102,62,70,0
128.13332,128.52184,44,70,0
128.94414,129.33264,53,70,0
128.94414,129.33264,56,70,0
128.94414,129.33264,59,70,0
128.94414,129.33264,61,70,0
129.75494,130.14345,61,70,0
129.75494,130.14345,57,70,0
129.75494,130.14345,49,70,0
129.75494,130.14345,54,70,0
130.56575,130.95427,42,73,0
131.37656,131.76508,61,77,0
131.37656,131.76508,57,77,0
131.37656,131.76508,49,77,0
131.37656,131.76508,54,77,0
132.18738,132.57588,61,80,0
132.18738,132.57588,57,80,0
132.18738,132.57588,49,80,0
132.18738,132.57588,54,80,0
132.99818,133.3867,42,84,0
133.80899,134.19751,61,87,0
133.80899,134.19751,57,87,0
133.80899,134.19751,49,87,0
133.80899,134.19751,54,87,0
134.6198,135.00832,61,90,0
134.6198,135.00832,59,90,0
134.6198,135.00832,56,90,0
134.6198,135.00832,53,90,0
134.6198,135.00832,49,90,0
135.43062,135.81912,44,90,0
136.24142,136.62994,53,90,0
136.24142,136.62994,56,90,0
136.24142,136.62994,59,90,0
136.24142,136.62994,62,90,0
137.05223,137.44075,53,90,0
137.05223,137.44075,56,90,0
137.05223,137.44075,59,90,0
137.05223,137.44075,62,90,0
137.86305,138.25156,44,82,0
138.67386,139.06236,53,69,0
138.67386,139.06236,56,69,0
138.67386,139.06236,59,69,0
138.67386,139.06236,62,69,0
139.48466,139.87318,59,70,0
139.48466,139.87318,56,70,0
139.48466,139.87318,53,70,0
139.48466,139.87318,49,70,0
139.48466,139.87318,62,70,0
140.29547,140.68399,44,70,0
141.1063,141.4948,53,70,0
141.1063,141.4948,56,70,0
141.1063,141.4948,59,70,0
141.1063,141.4948,62,70,0
141.9171,142.30562,53,70,0
141.9171,142.30562,56,70,0
141.9171,142.30562,59,70,0
141.9171,142.30562,62,70,0
142.7279,143.11642,44,70,0
143.53873,143.92723,53,70,0
143.53873,143.92723,56,70,0
143.53873,143.92723,59,70,0
143.53873,143.92723,61,70,0
144.34953,144.73804,54,70,0
144.34953,144.73804,57,70,0
144.34953,144.73804,61,70,0
145.16034,145.54886,45,70,0
145.97115,146.35966,54,70,0
145.97115,146.35966,57,70,0
145.97115,146.35966,61,70,0
146.78197,147.17047,53,70,0
146.78197,147.17047,56,70,0
146.78197,147.17047,59,70,0
146.78197,147.17047,62,70,0
147.59277,147.9813,44,70,0
148.40358,148.7921,53,70,0
148.40358,148.7921,56,70,0
148.40358,148.7921,59,70,0
148.40358,148.7921,61,70,0
149.21439,149.6029,61,70,0
149.21439,149.6029,57,70,0
149.21439,149.6029,54,70,0
150.0252,150.41371,45,70,0
150.83601,151.22453,49,70,0
150.83601,151.22453,54,70,0
150.83601,151.22453,57,70,0
150.83601,151.22453,61,70,0
151.64682,152.03534,49,70,0
151.64682,152.03534,53,70,0
151.64682,152.03534,56,70,0
151.64682,152.03534,59,70,0
151.64682,152.03534,61,70,0
152.45764,152.84615,44,70,0
153.26845,153.65695,56,70,0
153.26845,153.65695,59,70,0
153.26845,153.65695,61,70,0
154.07925,154.46777,61,70,0
154.07925,154.46777,57,70,0
154.89006,155.27858,45,72,0
155.70088,156.08939,58,74,0
155.70088,156.08939,61,74,0
156.51169,156.9002,58,76,0
156.51169,156.9002,61,76,0
157.3225,157.71101,46,79,0
158.13332,158.52182,59,81,0
158.13332,158.52182,63,81,0
158.94412,159.33263,59,83,0
158.94412,159.33263,63,83,0
159.75493,160.14345,47,85,0
160.56573,160.95425,61,88,0
160.56573,160.95425,64,88,0
161.37656,161.76506,61,90,0
161.37656,161.76506,64,90,0
162.18736,162.57588,49,92,0
162.99817,163.38669,63,95,0
162.99817,163.38669,66,95,0
163.80898,164.1975,63,97,0
163.80898,164.1975,66,97,0
164.21439,164.6029,51,98,0
164.6198,165.0083,64,99,0
164.6198,165.0083,67,99,0
165.02519,165.41371,52,100,0
165.4306,165.81912,66,101,0
165.4306,165.81912,69,101,0
165.83601,166.22452,54,103,0
166.24141,166.64072,71,104,0
166.24141,166.64072,67,104,0
166.65808,167.05739,55,105,0
167.07475,167.49754,71,106,0
167.07475,167.49754,68,106,0
167.51593,167.93872,56,107,0
167.95709,168.43626,73,108,0
167.95709,168.43626,69,108,0
168.45709,169.0321,57,109,0
169.0571,170.00632,73,80,0
169.0571,170.00632,69,80,0
170.02585,170.86513,61,80,0
170.02585,171.72227,57,80,0
170.883,172.15085,63,80,0
172.1687,172.57942,63,80,0
172.59727,173.008,66,80,0
173.02585,173.43657,64,80,0
173.45442,173.86513,63,80,0
171.74013,174.2937,57,80,0
173.883,174.2937,64,80,0
174.31155,175.15085,62,80,0
174.31155,176.86513,57,80,0
175.1687,177.2937,61,80,0
177.31155,177.72227,61,80,0
177.74013,178.15085,64,80,0
178.1687,178.57942,62,80,0
178.59727,179.008,61,80,0
176.883,179.43655,57,80,0
179.02585,179.43655,62,80,0
179.45442,180.2937,60,80,0
179.52585,180.36513,63,80,0
179.45442,181.15085,57,80,0
180.31155,181.15085,61,80,0
180.31155,181.15085,64,80,0
181.1687,181.57942,63,80,0
181.59727,182.00798,64,80,0
182.02585,182.43655,64,80,0
181.1687,182.86513,58,80,0
182.45442,182.86513,61,80,0
182.88298,183.2937,64,80,0
182.88298,183.72227,59,80,0
183.31155,183.72227,62,80,0
183.74013,184.15085,61,80,0
184.1687,184.5794,62,80,0
183.74013,185.43655,56,80,0
184.59727,185.43655,62,80,0
185.4544,186.2937,55,80,0
185.4544,186.2937,61,80,0
186.31155,187.15085,54,80,0
186.31155,187.15085,57,80,0
186.31155,187.15085,62,80,0
187.1687,187.5794,52,80,0
187.1687,188.00798,45,80,0
187.59727,188.00798,49,80,0
188.02585,188.43655,52,80,0
188.02585,188.86513,47,80,0
188.4544,188.86513,50,80,0
188.88298,189.2937,49,80,0
188.88298,189.72227,44,80,0
189.31155,189.72227,50,80,0
189.74013,190.15083,50,80,0
189.74013,190.5794,41,80,0
190.1687,190.5794,44,80,0
190.59727,191.00798,47,80,0
191.02583,191.43655,45,80,0
190.59727,191.86513,42,80,0
191.4544,191.86513,44,80,0
191.88298,192.2937,41,80,0
191.88298,192.2937,45,80,0
192.31155,192.72227,45,80,0
192.31155,192.72227,40,80,0
192.74013,193.15083,32,80,0
193.1687,193.60431,34,80,0
193.62325,194.05885,33,80,0
194.07779,194.55696,32,80,0
194.57779,195.05696,33,80,0
195.07779,195.43716,33,80,0
195.45279,195.82738,52,80,0
195.84383,196.22833,49,80,0
196.24522,196.64291,55,80,0
196.66077,197.07689,52,80,0
197.09583,197.53174,58,80,0
197.55127,198.00049,56,80,0
198.02002,198.48184,57,80,0
198.502,198.98726,52,80,0
199.0088,199.51297,59,80,0
199.5353,200.05984,57,80,0
200.08388,200.63869,55,80,0
200.66368,201.0744,54,80,0
201.09225,201.45163,59,80,0
201.46725,201.77975,56,80,0
201.79335,202.10585,57,80,0
202.11943,202.43193,54,80,0
202.44551,202.75801,59,80,0
202.7716,203.0841,56,80,0
203.09769,203.41019,57,80,0
203.42378,203.73628,54,80,0
200.66368,204.06236,50,80,0
203.74986,204.06236,59,80,0
204.07596,204.38846,54,80,0
204.07596,204.71454,50,80,0
204.40204,204.71454,57,80,0
204.72812,205.04062,52,80,0
204.72812,205.36671,49,80,0
205.05421,205.36671,57,80,0
205.3803,205.6928,54,80,0
205.3803,206.01889,50,80,0
205.70639,206.01889,57,80,0
206.03247,206.34497,55,80,0
206.03247,206.67107,52,80,0
206.35857,206.67107,57,80,0
206.68465,206.99715,55,80,0
206.68465,207.32323,52,80,0
207.01073,207.32323,57,80,0
207.33682,207.64932,54,80,0
207.33682,207.9754,50,80,0
207.6629,207.9754,57,80,0
207.989,208.3015,52,80,0
207.989,208.62758,49,80,0
208.31508,208.62758,57,80,0
208.64116,208.95366,54,80,0
208.96725,209.27975,59,80,0
209.29333,209.60583,56,80,0
209.61943,209.93193,57,80,0
209.94551,210.25801,54,80,0
210.2716,210.5841,59,80,0
210.59769,210.91019,56,80,0
210.92377,211.23627,57,80,0
211.24986,211.56236,54,80,0
208.64116,211.88844,50,80,0
211.57594,211.88844,59,80,0
211.90204,212.21454,54,80,0
211.90204,212.54062,50,80,0
212.22812,212.54062,57,80,0
212.55421,212.86671,52,80,0
212.55421,213.1928,49,80,0
212.8803,213.1928,57,80,0
213.20638,213.51888,54,80,0
213.20638,213.84497,50,80,0
213.53247,213.84497,57,80,0
213.85855,214.17105,55,80,0
213.85855,214.49715,52,80,0
214.18465,214.49715,57,80,0
214.51073,214.82323,55,80,0
214.51073,215.1493,52,80,0
214.8368,215.1493,57,80,0
215.1629,215.4754,54,80,0
215.1629,215.80148,50,80,0
215.48898,215.80148,57,80,0
215.81508,216.12758,52,80,0
215.81508,216.45366,49,80,0
216.14116,216.45366,57,80,0
216.46725,216.67105,54,80,0
216.68465,216.88844,59,80,0
216.90202,217.10583,57,80,0
217.11942,217.32323,56,80,0
217.3368,217.54062,59,80,0
217.5542,217.75801,57,80,0
217.77159,217.9754,54,80,0
217.98898,218.1928,59,80,0
218.20638,218.41019,57,80,0
218.42377,218.62758,56,80,0
218.64116,218.84497,59,80,0
218.85855,219.06236,57,80,0
219.07594,219.27974,54,80,0
219.29333,219.49713,59,80,0
216.46725,219.71452,50,80,0
219.51073,219.71452,57,80,0
219.72812,219.93192,56,80,0
219.94551,220.1493,58,80,0
219.72812,220.3667,50,80,0
220.1629,220.3667,57,80,0
220.3803,220.58409,52,80,0
220.59769,220.80148,59,80,0
220.3803,221.01888,49,80,0
220.81508,221.01888,57,80,0
221.03247,221.23627,54,80,0
221.24985,221.45366,59,80,0
221.03247,221.67105,50,80,0
221.46724,221.67105,57,80,0
221.68463,221.88844,55,80,0
221.90202,222.10583,59,80,0
221.68463,222.32323,52,80,0
222.11942,222.32323,57,80,0
222.3368,222.54062,55,80,0
222.5542,222.75801,59,80,0
222.3368,222.9754,52,80,0
222.77159,222.9754,57,80,0
222.98898,223.20206,54,80,0
223.21626,223.42932,59,80,0
222.98898,223.6566,50,80,0
223.44353,223.6566,57,80,0
223.6708,223.89401,52,80,0
223.90889,224.15294,59,80,0
223.6708,224.43866,49,80,0
224.1708,224.43866,57,80,0
224.45651,224.69089,54,80,0
224.70651,224.93326,59,80,0
224.9478,225.16582,57,80,0
225.18036,225.38416,56,80,0
225.39775,225.60155,59,80,0
225.61513,225.81894,57,80,0
225.83252,226.03633,54,80,0
226.04991,226.25372,59,80,0
226.2673,226.47112,57,80,0
226.4847,226.6885,56,80,0
226.70209,226.9059,59,80,0
226.91948,227.12329,57,80,0
227.13687,227.34068,54,80,0
227.35426,227.55807,59,80,0
224.45651,227.77547,50,80,0
227.57166,227.77547,57,80,0
227.78905,227.99284,56,80,0
228.00644,228.21024,58,80,0
227.78905,228.42763,50,80,0
228.22383,228.42763,57,80,0
228.44122,228.64502,52,80,0
228.65862,228.86241,59,80,0
228.44122,229.0798,49,80,0
228.876,229.0798,57,80,0
229.0934,229.2972,54,81,0
229.31079,229.51459,59,81,0
229.0934,229.73198,50,81,0
229.52818,229.73198,57,81,0
229.74556,229.94937,55,82,0
229.96295,230.16676,59,82,0
229.74556,230.38416,52,82,0
230.18034,230.38416,57,82,0
230.39774,230.60155,55,83,0
230.61513,230.81894,59,83,0
230.39774,231.03633,52,83,0
230.83252,231.03633,57,84,0
231.04991,231.25372,54,84,0
231.2673,231.47112,59,84,0
231.04991,231.6885,50,84,0
231.4847,231.6885,57,85,0
231.70209,231.9059,52,85,0
231.91948,232.12328,59,85,0
231.70209,232.34067,49,85,0
232.13687,232.34067,57,86,0
232.35426,232.55806,54,86,0
232.57166,232.77545,57,87,0
232.78905,232.99284,55,87,0
233.00644,233.21024,54,87,0
233.22383,233.42763,55,88,0
233.44122,233.64502,57,88,0
233.65862,233.86241,59,88,0
233.87599,234.0798,61,89,0
232.35426,234.2972,50,86,0
234.09338,234.2972,62,89,0
234.31078,235.16676,64,90,0
235.18034,235.38416,62,91,0
235.39774,235.60155,61,91,0
235.61513,235.81894,59,92,0
235.83252,236.03633,57,92,0
234.31078,236.25371,52,90,0
236.04991,236.25371,55,93,0
236.2673,236.4711,61,93,0
236.4847,236.68849,64,93,0
236.70209,236.90588,62,94,0
236.91948,237.12328,57,94,0
237.13687,237.34067,59,94,0
237.35426,237.55806,61,95,0
237.57166,237.77545,62,95,0
237.78905,237.99284,64,96,0
236.2673,238.21024,54,93,0
238.00642,238.21024,66,96,0
238.22382,239.0798,67,96,0
239.09338,239.2972,66,98,0
239.31078,239.51459,64,98,0
239.52817,239.73198,62,99,0
239.74556,239.94937,61,99,0
238.22382,240.16676,55,96,0
239.96295,240.16676,59,99,0
240.18034,240.38414,64,100,0
240.39774,240.60153,61,100,0
240.61513,240.81892,62,100,0
240.83252,241.03632,64,101,0
241.04991,241.25371,66,101,0
240.18034,241.4711,57,100,0
241.2673,241.4711,67,102,0
241.4847,241.68849,66,102,0
241.70209,241.90588,64,102,0
241.4847,242.12328,59,102,0
241.91948,242.12328,62,103,0
242.13686,242.34067,70,103,0
242.35425,242.55806,64,103,0
242.57164,242.77545,66,104,0
242.78903,242.99284,67,104,0
243.00642,243.21024,69,105,0
242.13686,243.42763,61,103,0
243.22382,243.42763,70,105,0
243.44121,243.64502,69,105,0
243.6586,243.86241,67,106,0
243.44121,244.0798,63,105,0
243.87599,244.0798,66,106,0
244.09338,244.2972,67,110,0
244.31078,244.51457,69,110,0
244.09338,244.73196,64,110,0
244.52817,244.73196,70,110,0
244.74556,244.94936,72,110,0
244.96295,245.16675,71,110,0
244.74556,245.38414,66,110,0
245.18034,245.38414,72,110,0
245.39774,245.60153,71,110,0
245.39774,245.81892,67,110,0
245.61513,245.81892,69,110,0
245.83252,246.03632,67,110,0
245.83252,246.03632,55,110,0
246.04991,246.25371,59,105,0
246.26729,246.47913,61,104,0
246.49333,246.71384,62,102,0
246.72873,246.95863,65,100,0
246.97426,247.21439,64,98,0
246.04991,247.47826,56,105,0
247.23083,247.47826,62,96,0
247.49611,247.76396,61,94,0
247.78183,248.06537,63,92,0
247.49611,248.51045,55,94,0
248.08432,248.51045,64,91,0
248.53886,250.77324,69,80,0
248.53886,250.77324,66,80,0
250.78886,252.27324,63,80,0
250.78886,252.27324,66,80,0
252.28886,253.02324,66,80,0
252.28886,253.02324,63,80,0
252.28886,253.02324,59,80,0
253.03886,254.38701,67,80,0
253.03886,254.38701,64,80,0
254.40538,254.82817,59,80,0
254.84604,255.25674,69,80,0
254.40538,255.68036,55,80,0
255.27461,255.68036,67,80,0
255.69772,256.09702,66,80,0
256.11438,256.5043,68,80,0
256.5212,256.90704,71,80,0
256.9235,257.3018,69,80,0
257.31824,257.68976,45,80,0
257.31824,257.68976,33,80,0
257.7058,257.88208,43,80,0
257.7058,257.88208,31,80,0
257.8981,258.07358,42,80,0
257.8981,258.07358,30,80,0
258.0892,258.26108,30,80,0
258.2767,258.44858,33,80,0
258.4642,258.63608,36,80,0
258.6517,258.82358,39,80,0
258.8392,259.01108,42,80,0
259.0267,259.19858,45,80,0
259.2142,259.38608,48,80,0
259.4017,259.57358,51,80,0
259.5892,259.76108,54,80,0
259.7767,259.94858,60,80,0
259.9642,260.13608,55,80,0
260.1517,260.32358,59,80,0
260.3392,262.57358,55,80,0
260.3392,262.57358,43,80,0
262.5892,262.88217,33,80,0
262.9017,263.19467,38,79,0
263.2142,263.50717,42,78,0
263.76108,263.97592,50,76,0
263.99545,264.2103,54,76,0
264.22983,264.44467,57,75,0
264.4642,264.67905,50,74,0
263.5267,264.91342,45,77,0
264.69858,264.91342,54,73,0
264.93295,265.1478,50,72,0
264.93295,265.38217,47,72,0
265.16733,265.38217,53,71,0
265.4017,266.31967,52,71,0
265.4017,266.31967,49,71,0
266.3392,267.72592,49,70,0
266.3392,267.72592,46,70,0
266.3392,267.72592,55,70,0
266.3392,267.72592,52,70,0
267.74545,268.27786,54,70,0
267.74545,268.27786,51,70,0
267.74545,268.27786,47,70,0
268.30103,270.28018,54,70,0
268.30103,270.28018,51,70,0
268.30103,270.28018,47,70,0
270.30103,271.28018,59,70,0
270.30103,271.28018,54,70,0
270.30103,271.28018,51,70,0
270.30103,271.28018,47,70,0
271.30103,273.28018,59,70,0
271.30103,273.28018,54,70,0
271.30103,273.28018,51,70,0
271.30103,273.28018,47,70,0
273.30103,274.28018,59,70,0
273.30103,274.28018,54,70,0
273.30103,274.28018,51,70,0
273.30103,274.28018,47,70,0
274.30103,275.28018,47,70,0
274.30103,275.28018,35,70,0
275.30103,277.21634,42,70,0
275.30103,277.21634,30,70,0
277.2365,278.18408,43,70,0
277.2365,278.18408,31,70,0
278.20425,280.11957,45,70,0
278.20425,280.11957,33,70,0
280.1397,282.05505,38,70,0
280.1397,282.05505,26,70,0
282.0752,283.0228,54,70,0
283.04294,284.95828,45,70,0
284.97842,285.92603,57,70,0
285.94617,287.86148,54,70,0
287.88165,288.82922,45,70,0
287.88165,288.82922,33,70,0
288.8494,290.7647,35,70,0
288.8494,290.7647,47,70,0
288.8494,290.7647,45,70,0
290.78488,291.73245,49,70,0
290.78488,291.73245,45,70,0
290.78488,291.73245,37,70,0
291.75262,293.66794,50,70,0
291.75262,293.66794,38,70,0
291.75262,293.66794,45,70,0
293.6881,294.63568,66,70,0
294.65585,296.57117,57,70,0
296.59134,297.5389,54,70,0
296.59134,297.5389,42,70,0
297.55908,299.4744,57,70,0
297.55908,299.4744,45,70,0
299.49457,301.40988,54,70,0
299.49457,301.40988,42,70,0
299.49457,302.37762,45,70,0
301.43002,302.37762,52,70,0
301.43002,302.37762,40,70,0
302.39777,303.34537,45,70,0
302.39777,303.34537,33,70,0
303.3655,306.2486,45,70,0
303.3655,306.2486,38,70,0
306.26874,309.1518,45,70,0
306.26874,309.1518,33,70,0
309.17197,311.08728,45,70,0
309.17197,311.08728,33,70,0
311.10745,311.57117,43,73,0
311.5913,312.05502,42,74,0
312.0752,312.5389,40,75,0
312.55905,313.02277,38,76,0
313.04294,313.34537,37,77,0
313.3655,313.66794,40,77,0
313.6881,313.9905,45,78,0
314.01068,314.3131,49,78,0
314.33325,314.63568,52,79,0
314.65585,314.95825,57,79,0
314.97842,317.7714,54,80,0
314.97842,317.7714,42,80,0
317.79092,320.5839,57,80,0
317.79092,320.5839,45,80,0
320.60342,323.1431,62,80,0
320.60342,323.1431,50,80,0
323.16046,324.80554,47,80,0
323.16046,324.80554,59,80,0
324.82245,325.61636,55,80,0
324.82245,325.61636,43,80,0
325.63324,327.23798,40,80,0
325.63324,327.23798,52,80,0
327.25485,328.0488,55,80,0
327.25485,328.0488,52,80,0
328.06567,329.6704,52,80,0
328.06567,329.6704,49,80,0
329.6873,330.0758,50,80,0
329.6873,330.0758,47,80,0
330.0927,330.48123,49,80,0
330.0927,330.48123,46,80,0
330.4981,331.69742,46,80,0
330.9035,332.10284,49,80,0
331.30893,332.50824,54,80,0
332.11972,332.50824,61,80,0
331.71432,332.5167,58,80,0
332.52515,332.91364,66,80,0
332.93054,335.34607,68,80,0
332.93054,335.34607,66,80,0
332.93054,335.34607,63,80,0
332.93054,335.34607,60,80,0
335.36298,336.9677,56,80,0
335.36298,336.9677,44,80,0
336.9846,337.7785,53,80,0
336.9846,337.7785,41,80,0
337.7954,338.58932,53,80,0
337.7954,338.58932,41,80,0
338.6062,339.40015,49,80,0
338.6062,339.40015,37,80,0
339.41702,340.21094,51,80,0
339.41702,340.21094,39,80,0
340.22784,341.83255,53,80,0
340.22784,341.83255,41,80,0
341.84946,342.64337,56,80,0
341.84946,342.64337,53,80,0
342.66028,344.26498,54,80,0
342.66028,344.26498,57,80,0
344.2819,345.0758,61,80,0
344.2819,345.0758,57,80,0
345.0927,346.5771,61,80,0
345.0927,346.5771,57,80,0
346.5927,347.3271,60,80,0
346.5927,347.3271,56,80,0
347.3427,348.0771,60,80,0
347.3427,348.0771,56,80,0
348.0927,348.8271,63,80,0
348.0927,348.8271,60,80,0
348.8427,349.5771,65,80,0
348.8427,349.5771,61,80,0
349.5927,350.64923,62,80,0
349.94983,351.00638,65,81,0
350.30698,351.36353,68,82,0
350.66412,351.72067,74,84,0
351.37842,351.72067,80,86,0
351.02127,351.72812,77,85,0
351.73557,353.86353,82,88,0
351.73557,353.86353,80,88,0
351.73557,353.86353,77,88,0
351.73557,353.86353,74,88,0
353.87842,354.22067,43,96,0
354.23557,354.57782,46,97,0
354.59268,354.93497,51,98,0
354.94983,355.2921,55,100,0
355.30698,355.64923,58,101,0
355.66412,356.00638,63,102,0
356.02127,356.36353,46,104,0
356.37842,356.72067,51,105,0
356.73557,357.07782,55,106,0
357.09268,357.43497,58,108,0
357.44983,357.7921,56,109,0
357.80698,358.14923,53,110,0
358.16412,358.50638,51,110,0
358.52127,358.86353,55,110,0
358.87842,359.22067,58,110,0
359.23557,359.57782,63,110,0
359.59268,359.93497,44,110,0
359.94983,360.2921,56,110,0
360.30698,360.64923,47,110,0
360.66412,361.00638,51,110,0
361.02127,361.36353,56,110,0
361.37842,361.72067,59,110,0
361.73557,362.07782,49,110,0
362.09268,362.43497,61,110,0
362.44983,362.79208,46,110,0
362.80698,363.14923,49,110,0
363.16412,363.50638,54,110,0
363.52127,363.86353,58,110,0
363.87842,364.22067,49,110,0
364.23557,364.57782,61,110,0
364.59268,364.93497,51,110,0
364.94983,365.29208,55,110,0
365.30698,365.64923,58,110,0
365.66412,366.00638,61,110,0
366.02127,366.36353,55,110,0
366.37842,366.72067,58,110,0
366.73553,367.07782,56,100,0
367.09268,367.43497,59,100,0
367.44983,367.79208,63,99,0
367.80698,368.14923,68,99,0
368.16412,368.50638,60,98,0
368.52127,368.86353,63,97,0
368.87842,369.22067,61,97,0
369.23553,369.57782,64,96,0
369.59268,369.93497,68,95,0
369.94983,370.29208,73,95,0
370.30698,370.64923,64,94,0
370.66412,371.00638,68,93,0
371.02127,371.36353,54,93,0
371.37842,371.72067,58,92,0
371.73553,372.07782,61,91,0
372.09268,372.43497,66,91,0
372.44983,372.79208,39,110,0
372.80698,373.14923,51,110,0
373.16412,373.50638,42,110,0
373.52127,373.86353,46,110,0
373.87842,374.22067,51,110,0
374.23553,374.57782,54,110,0
374.59268,374.93497,44,110,0
374.94983,375.29208,56,110,0
375.30698,375.64923,40,110,0
375.66412,376.00638,44,110,0
376.02127,376.36353,49,110,0
376.37842,376.72067,52,110,0
376.73553,377.07782,44,110,0
377.09268,377.43494,56,110,0
377.44983,377.79208,45,110,0
377.80698,378.14923,49,110,0
378.16412,378.50638,52,110,0
378.52127,378.86353,57,110,0
378.87842,379.22067,49,100,0
379.23553,379.57782,61,100,0
379.94983,380.64923,54,98,0
379.59268,381.00638,51,99,0
381.02127,381.36353,55,96,0
381.3784,381.72067,58,95,0
381.73553,382.07782,56,94,0
382.09268,382.43494,59,94,0
382.44983,382.79208,63,93,0
382.80698,383.14923,68,92,0
383.16412,383.50638,60,91,0
383.52127,383.86353,63,91,0
383.8784,384.22067,61,90,0
384.23553,384.57782,65,90,0
384.59268,384.93494,68,90,0
384.94983,385.29208,73,90,0
385.30698,385.64923,65,90,0
385.66412,386.00638,68,90,0
386.02127,386.36353,66,90,0
386.3784,386.72067,69,90,0
386.73553,387.07782,73,90,0
387.09268,387.43494,78,90,0
387.44983,387.79208,59,90,0
387.80698,388.14923,71,90,0
387.80698,388.14923,59,90,0
388.52127,389.57782,68,90,0
388.52127,389.57782,56,90,0
389.23553,390.29208,53,88,0
389.23553,390.29208,65,88,0
390.66412,391.72067,61,85,0
390.66412,391.72067,49,85,0
391.3784,391.72067,49,83,0
391.3784,392.43494,37,83,0
392.80698,393.86353,49,80,0
392.80698,393.86353,37,80,0
393.52127,393.86353,37,78,0
394.94983,395.65668,37,75,0
395.66412,396.00638,37,73,0
396.02124,396.72067,37,72,0
396.73553,397.43494,37,70,0
397.44983,398.14923,37,70,0
398.16412,398.86353,37,70,0
398.16412,398.86353,44,70,0
398.8784,399.5778,37,70,0
398.8784,399.5778,44,70,0
399.59268,400.29208,37,70,0
399.59268,400.29208,44,70,0
400.30698,401.00638,42,70,0
400.30698,401.00638,37,70,0
400.30698,401.00638,30,70,0
401.02124,401.72067,42,70,0
401.02124,401.72067,37,70,0
401.02124,401.72067,30,70,0
401.73553,402.43494,49,70,0
401.73553,402.43494,42,70,0
401.73553,402.43494,37,70,0
402.44983,403.14923,49,70,0
402.44983,403.14923,42,70,0
402.44983,403.14923,37,70,0
403.16412,403.86353,49,70,0
403.16412,403.86353,42,70,0
403.16412,403.86353,37,70,0
403.8784,404.5778,49,70,0
403.8784,404.5778,42,70,0
403.8784,404.5778,37,70,0
404.59268,405.29208,49,70,0
404.59268,405.29208,41,70,0
404.59268,405.29208,37,70,0
405.30698,406.00638,49,70,0
405.30698,406.00638,42,70,0
405.30698,406.00638,37,70,0
406.02124,406.72064,49,70,0
406.02124,406.72064,42,70,0
406.02124,406.72064,37,70,0
406.73553,407.43494,50,70,0
406.73553,407.43494,42,70,0
406.73553,407.43494,38,70,0
407.44983,408.14923,50,70,0
407.44983,408.14923,42,70,0
407.44983,408.14923,38,70,0
408.16412,408.86353,50,70,0
408.16412,408.86353,42,70,0
408.16412,408.86353,38,70,0
408.8784,409.5778,47,70,0
408.8784,409.5778,42,70,0
408.8784,409.5778,35,70,0
409.59268,410.29208,47,70,0
409.59268,410.29208,42,70,0
409.59268,410.29208,35,70,0
410.30698,411.00638,59,72,0
410.30698,411.00638,54,72,0
410.30698,411.00638,47,72,0
411.02124,411.72064,57,74,0
411.02124,411.72064,54,74,0
411.02124,411.72064,45,74,0
411.73553,412.43494,57,76,0
411.73553,412.43494,54,76,0
411.73553,412.43494,45,76,0
412.44983,413.14923,56,78,0
412.44983,413.14923,49,78,0
412.44983,413.14923,44,78,0
413.1641,413.86353,54,80,0
413.1641,413.86353,49,80,0
413.1641,413.86353,42,80,0
413.8784,414.5778,56,82,0
413.8784,414.5778,49,82,0
413.8784,414.5778,41,82,0
414.59268,415.29208,56,84,0
414.59268,415.29208,49,84,0
414.59268,415.29208,41,84,0
415.30698,416.00638,61,86,0
415.30698,416.00638,59,86,0
415.30698,416.00638,56,86,0
415.30698,416.00638,53,86,0
416.02124,416.72064,62,88,0
416.02124,416.72064,59,88,0
416.02124,416.72064,56,88,0
416.02124,416.72064,53,88,0
416.73553,417.43494,62,90,0
416.73553,417.43494,59,90,0
416.73553,417.43494,56,90,0
416.73553,417.43494,53,90,0
417.44983,418.14923,62,90,0
417.44983,418.14923,59,90,0
417.44983,418.14923,56,90,0
417.44983,418.14923,53,90,0
418.1641,418.8635,62,90,0
418.1641,418.8635,59,90,0
418.1641,418.8635,56,90,0
418.1641,418.8635,53,90,0
418.8784,419.5778,53,90,0
418.8784,419.5778,44,90,0
418.8784,419.5778,41,90,0
419.59268,420.29208,53,90,0
419.59268,420.29208,44,90,0
419.59268,420.29208,41,90,0
420.30698,421.00638,53,90,0
420.30698,421.00638,44,90,0
420.30698,421.00638,41,90,0
421.02124,421.72064,54,90,0
421.02124,421.72064,45,90,0
421.02124,421.72064,42,90,0
421.73553,422.43494,56,89,0
421.73553,422.43494,47,89,0
421.73553,422.43494,44,89,0
422.44983,423.14923,56,88,0
422.44983,423.14923,47,88,0
422.44983,423.14923,44,88,0
423.1641,423.8635,65,87,0
423.1641,423.8635,62,87,0
423.1641,423.8635,59,87,0
423.1641,423.8635,56,87,0
423.8784,424.5778,65,86,0
423.8784,424.5778,62,86,0
423.8784,424.5778,59,86,0
423.8784,424.5778,56,86,0
424.59268,425.29208,65,85,0
424.59268,425.29208,62,85,0
424.59268,425.29208,59,85,0
424.59268,425.29208,56,85,0
425.30695,426.00638,66,83,0
425.30695,426.00638,61,83,0
425.30695,426.00638,57,83,0
426.02124,426.3635,66,82,0
426.02124,426.3635,62,82,0
426.02124,426.3635,59,82,0
426.3784,426.72064,66,82,0
426.3784,426.72064,63,82,0
426.3784,426.72064,60,82,0
427.09268,427.43494,68,81,0
427.09268,427.43494,66,81,0
427.09268,427.43494,63,81,0
427.09268,427.43494,60,81,0
427.80695,428.14923,66,80,0
427.80695,428.14923,63,80,0
427.80695,428.14923,60,80,0
428.52124,428.8635,68,78,0
428.52124,428.8635,66,78,0
428.52124,428.8635,63,78,0
428.52124,428.8635,60,78,0
429.23553,429.5778,66,77,0
429.23553,429.5778,63,77,0
429.23553,429.5778,60,77,0
429.94983,430.29208,69,76,0
429.94983,430.29208,66,76,0
429.94983,430.29208,63,76,0
429.94983,430.29208,60,76,0
430.6641,431.00638,57,75,0
430.6641,431.00638,54,75,0
430.6641,431.00638,51,75,0
430.6641,431.00638,48,75,0
431.3784,431.72064,57,74,0
431.3784,431.72064,54,74,0
431.3784,431.72064,49,74,0
432.09268,432.43494,60,73,0
432.09268,432.43494,57,73,0
432.09268,432.43494,54,73,0
432.09268,432.43494,49,73,0
432.80695,433.14923,61,72,0
432.80695,433.14923,57,72,0
432.80695,433.14923,54,72,0
432.80695,433.14923,49,72,0
433.1641,433.8635,61,71,0
433.1641,433.8635,56,71,0
433.1641,433.8635,53,71,0
433.1641,433.8635,49,71,0
433.8784,434.5778,56,80,0
433.8784,434.5778,53,80,0
433.8784,434.5778,49,80,0
434.59268,435.29208,59,80,0
434.59268,435.29208,56,80,0
434.59268,435.29208,49,80,0
435.30695,436.00635,59,80,0
435.30695,436.00635,56,80,0
435.30695,436.00635,49,80,0
436.02124,436.72064,59,80,0
436.02124,436.72064,56,80,0
436.02124,436.72064,49,80,0
436.73553,437.43494,57,80,0
436.73553,437.43494,54,80,0
436.73553,437.43494,49,80,0
437.44983,438.14923,57,80,0
437.44983,438.14923,54,80,0
437.44983,438.14923,49,80,0
438.1641,438.8635,56,80,0
438.1641,438.8635,53,80,0
438.1641,438.8635,50,80,0
438.1641,438.8635,47,80,0
438.8784,439.5778,54,80,0
438.8784,439.5778,51,80,0
438.8784,439.5778,48,80,0
438.8784,439.5778,45,80,0
439.59268,440.29208,54,80,0
439.59268,440.29208,51,80,0
439.59268,440.29208,48,80,0
439.59268,440.29208,45,80,0
440.30695,441.00635,54,80,0
440.30695,441.00635,51,80,0
440.30695,441.00635,48,80,0
440.30695,441.00635,45,80,0
441.02124,441.72064,53,80,0
441.02124,441.72064,49,80,0
441.02124,441.72064,44,80,0
441.73553,442.43494,53,80,0
441.73553,442.43494,49,80,0
441.73553,442.43494,44,80,0
442.4498,442.79208,53,80,0
442.4498,443.14923,49,80,0
442.80695,443.14923,53,80,0
442.80695,443.14923,56,80,0
443.1641,443.50635,56,80,0
443.1641,443.50635,59,80,0
443.1641,443.8635,49,80,0
443.52124,443.8635,59,80,0
443.52124,443.8635,62,80,0
443.8784,444.5778,49,80,0
443.8784,444.5778,59,80,0
443.8784,444.5778,62,80,0
444.59268,445.29208,62,80,0
444.59268,445.29208,59,80,0
444.59268,445.29208,49,80,0
445.30695,446.00635,61,80,0
445.30695,446.00635,57,80,0
445.30695,446.00635,49,80,0
446.02124,446.72064,61,80,0
446.02124,446.72064,57,80,0
446.02124,446.72064,49,80,0
446.73553,447.43494,59,80,0
446.73553,447.43494,56,80,0
446.73553,447.43494,49,80,0
447.4498,448.1492,57,80,0
447.4498,448.1492,54,80,0
447.4498,448.1492,49,80,0
448.1641,448.8635,57,80,0
448.1641,448.8635,54,80,0
448.1641,448.8635,49,80,0
448.8784,449.5778,49,80,0
448.8784,449.5778,60,80,0
448.8784,449.5778,57,80,0
448.8784,449.5778,54,80,0
449.59268,450.29208,61,80,0
449.59268,450.29208,56,80,0
449.59268,450.29208,53,80,0
449.59268,450.29208,49,80,0
450.30695,451.00635,61,80,0
450.30695,451.00635,56,80,0
450.30695,451.00635,53,80,0
450.30695,451.00635,49,80,0
451.02124,451.7556,61,80,0
451.02124,451.7556,56,80,0
451.02124,451.7556,53,80,0
451.02124,451.7556,49,80,0
451.77124,452.55447,61,80,0
451.77124,452.55447,55,80,0
451.77124,452.55447,52,80,0
451.77124,452.55447,49,80,0
451.77124,452.55447,58,80,0
452.57138,453.32578,62,80,0
452.57138,453.32578,59,80,0
452.57138,453.32578,55,80,0
452.57138,453.32578,50,80,0
453.3414,454.0408,62,80,0
453.3414,454.0408,59,80,0
453.3414,454.0408,55,80,0
453.3414,454.0408,50,80,0
454.05566,454.75507,62,80,0
454.05566,454.75507,59,80,0
454.05566,454.75507,55,80,0
454.05566,454.75507,50,80,0
454.76996,455.46936,62,80,0
454.76996,455.46936,59,80,0
454.76996,455.46936,55,80,0
454.76996,455.46936,50,80,0
455.48425,456.18365,62,80,0
455.48425,456.18365,59,80,0
455.48425,456.18365,55,80,0
456.19855,456.89795,62,80,0
456.19855,456.89795,59,80,0
456.19855,456.89795,55,80,0
456.9128,457.6122,64,80,0
456.9128,457.6122,61,80,0
456.9128,457.6122,55,80,0
457.6271,458.3265,64,80,0
457.6271,458.3265,61,80,0
457.6271,458.3265,55,80,0
458.3414,459.0408,64,80,0
458.3414,459.0408,61,80,0
458.3414,459.0408,55,80,0
459.05566,459.75507,62,80,0
459.05566,459.75507,59,80,0
459.05566,459.75507,55,80,0
459.76996,460.46936,62,80,0
459.76996,460.46936,59,80,0
459.76996,460.46936,55,80,0
459.76996,460.46936,50,80,0
460.48425,461.18365,62,80,0
460.48425,461.18365,57,80,0
460.48425,461.18365,54,80,0
460.48425,461.18365,50,80,0
461.19852,461.89795,62,80,0
461.19852,461.89795,57,80,0
461.19852,461.89795,54,80,0
461.19852,461.89795,50,80,0
461.9128,462.6122,61,80,0
461.9128,462.6122,57,80,0
461.9128,462.6122,54,80,0
461.9128,462.6122,49,80,0
462.6271,463.3265,61,80,0
462.6271,463.3265,57,80,0
462.6271,463.3265,54,80,0
462.6271,463.3265,49,80,0
463.3414,464.0408,61,80,0
463.3414,464.0408,56,80,0
463.3414,464.0408,53,80,0
463.3414,464.0408,49,80,0
464.05566,464.75507,61,84,0
464.05566,464.75507,56,84,0
464.05566,464.75507,53,84,0
464.05566,464.75507,49,84,0
464.76996,465.46936,61,89,0
464.76996,465.46936,56,89,0
464.76996,465.46936,53,89,0
464.76996,465.46936,49,89,0
465.48425,466.18365,61,94,0
465.48425,466.18365,56,94,0
465.48425,466.18365,53,94,0
465.48425,466.18365,49,94,0
466.19852,466.89795,61,99,0
466.19852,466.89795,56,99,0
466.19852,466.89795,53,99,0
466.19852,466.89795,49,99,0
466.9128,467.6122,61,100,0
466.9128,467.6122,57,100,0
466.9128,467.6122,54,100,0
467.6271,468.3265,61,91,0
467.6271,468.3265,57,91,0
467.6271,468.3265,54,91,0
468.3414,468.69006,61,81,0
468.3414,468.69006,57,81,0
468.7057,469.06866,57,80,0
468.7057,469.06866,49,80,0
468.7057,469.06866,45,80,0
469.0849,469.4652,56,80,0
469.0849,469.4652,49,80,0
469.0849,469.4652,44,80,0
469.4821,469.88425,54,80,0
469.4821,469.88425,49,80,0
469.4821,469.88425,42,80,0
469.90262,470.3254,37,80,0
469.90262,470.3254,49,80,0
470.34378,471.20776,37,80,0
470.34378,471.20776,25,80,0
471.22614,472.09012,41,80,0
471.22614,472.09012,29,80,0
472.1085,472.97247,42,80,0
472.1085,472.97247,30,80,0
472.99084,473.85483,44,80,0
472.99084,473.85483,32,80,0
473.8732,474.296,45,80,0
473.8732,474.296,33,80,0
474.3144,474.73718,47,80,0
474.3144,474.73718,35,80,0
474.75555,475.17834,48,80,0
474.75555,475.17834,36,80,0
475.19675,475.61954,49,80,0
475.19675,475.61954,37,80,0
475.6379,476.0607,48,80,0
475.6379,476.0607,36,80,0
476.0791,476.5019,49,80,0
476.0791,476.5019,37,80,0
476.52026,476.94305,48,80,0
476.52026,476.94305,36,80,0
476.96143,477.41064,49,80,0
476.96143,477.41064,37,80,0
477.43018,477.90936,48,80,0
477.43018,477.90936,36,80,0
477.93018,478.3794,49,80,0
477.93018,478.3794,37,80,0
478.39893,478.82175,53,80,0
478.84012,479.2629,56,80,0
479.28128,479.70407,53,80,0
479.72247,480.14526,56,80,0
480.16364,480.58643,59,80,0
480.60483,481.02762,56,80,0
480.60483,481.02762,53,80,0
480.60483,481.02762,49,80,0
480.60483,481.02762,59,80,0
481.046,481.90997,49,80,0
481.046,481.90997,37,80,0
481.92834,482.79233,53,80,0
481.92834,482.79233,41,80,0
482.8107,483.67468,54,80,0
482.8107,483.67468,42,80,0
483.69305,484.55704,56,80,0
483.69305,484.55704,44,80,0
484.5754,484.9982,57,80,0
484.5754,484.9982,45,80,0
485.01657,485.4394,59,80,0
485.01657,485.4394,47,80,0
485.45776,486.32172,48,80,0
485.45776,486.32172,60,80,0
486.34012,486.7629,61,80,0
486.34012,486.7629,49,80,0
486.78128,487.20407,36,80,0
486.78128,487.20407,48,80,0
487.22247,487.64526,49,80,0
487.22247,487.64526,37,80,0
487.66364,488.08643,48,80,0
487.66364,488.08643,36,80,0
488.10483,488.52762,49,80,0
488.10483,488.52762,37,80,0
488.546,488.9816,48,80,0
488.546,488.9816,36,80,0
489.00055,489.43616,49,80,0
489.00055,489.43616,37,80,0
489.45508,489.9188,37,80,0
489.93896,490.40265,46,80,0
490.42282,490.90198,38,80,0
490.92282,491.49783,47,80,0
491.52283,492.09784,31,80,0
492.12283,492.6978,43,80,0
492.72284,493.2362,50,80,0
493.25854,493.77194,43,80,0
493.79425,494.24347,50,80,0
494.263,494.71222,43,80,0
494.73175,495.18097,35,80,0
495.2005,495.64972,43,80,0
495.66925,496.11847,55,80,0
496.138,496.58722,43,80,0
496.60675,497.05597,55,80,0
497.0755,497.52472,43,80,0
497.54425,497.99347,36,80,0
498.013,498.46222,43,80,0
498.48175,498.93097,55,80,0
498.9505,499.39972,43,80,0
499.41925,499.86847,55,80,0
499.888,500.33722,43,80,0
500.35675,500.80597,31,80,0
500.8255,501.27472,43,80,0
501.29425,501.74347,55,80,0
501.763,502.2179,43,80,0
502.23807,502.45984,55,80,0
502.47998,502.70175,43,80,0
502.72192,503.18564,42,80,0
502.72192,503.18564,38,80,0
503.2058,503.6695,42,80,0
503.2058,503.6695,38,80,0
503.68967,504.15338,45,80,0
504.17352,504.63724,37,80,0
504.17352,504.63724,42,80,0
504.17352,504.63724,45,80,0
504.6574,505.12112,49,80,0
505.14127,505.60498,37,80,0
505.14127,505.60498,42,80,0
505.14127,505.60498,45,80,0
505.62515,506.08887,49,80,0
506.109,506.57272,37,80,0
506.109,506.57272,41,80,0
506.109,506.57272,44,80,0
506.5929,507.06937,49,80,0
507.0902,507.56937,37,80,0
507.0902,507.56937,41,80,0
507.0902,507.56937,44,80,0
507.5902,508.06937,49,80,0
508.0902,508.56937,42,80,0
508.0902,508.56937,45,80,0
508.5902,509.06937,49,80,0
509.0902,509.56937,42,80,0
509.0902,509.56937,45,80,0
509.5902,510.06937,49,80,0
510.0902,510.56937,47,80,0
510.0902,510.56937,35,80,0
510.5902,511.06937,49,80,0
511.0902,511.57297,43,80,0
511.0902,511.57297,35,80,0
511.5945,512.0902,47,80,0
512.11176,512.6074,47,80,0
512.11176,512.6074,35,80,0
512.62897,513.1247,47,80,0
513.14624,513.6419,49,80,0
513.14624,513.6419,37,80,0
513.66345,514.1592,49,80,0
514.1807,514.6764,37,80,0
514.69794,515.19366,41,80,0
515.2152,515.7109,30,80,0
515.7324,516.22815,42,80,0
515.7324,516.22815,37,80,0
516.2497,516.7569,29,80,0
516.77924,517.29266,44,80,0
516.77924,517.29266,37,80,0
517.31494,517.82837,29,80,0
517.85065,518.3641,44,80,0
517.85065,518.3641,37,80,0
518.3864,518.8998,30,80,0
518.9221,519.4355,45,80,0
518.9221,519.4355,37,80,0
519.4578,519.9712,37,80,0
519.9935,520.5069,42,80,0
519.9935,520.5069,49,80,0
520.52924,521.04266,37,80,0
521.06494,521.681,49,80,0
522.4623,522.82166,50,80,0
522.4623,522.82166,38,80,0
523.2123,523.57166,57,80,0
523.2123,523.57166,62,80,0
523.2123,523.57166,66,80,0
523.2123,523.57166,69,80,0
523.9623,524.32166,57,80,0
523.9623,524.32166,62,80,0
523.9623,524.32166,66,80,0
523.9623,524.32166,69,80,0
524.7123,525.07166,50,80,0
524.7123,525.07166,38,80,0
525.4623,525.82166,57,80,0
525.4623,525.82166,62,80,0
525.4623,525.82166,66,80,0
525.4623,525.82166,69,80,0
526.2123,526.57166,57,80,0
526.2123,526.57166,62,80,0
526.2123,526.57166,66,80,0
526.2123,526.57166,69,80,0
526.9623,527.32166,50,80,0
526.9623,527.32166,38,80,0
527.7123,528.07166,57,80,0
527.7123,528.07166,62,80,0
527.7123,528.07166,66,80,0
527.7123,528.07166,69,80,0
528.4623,528.82166,57,80,0
528.4623,528.82166,62,80,0
528.4623,528.82166,66,80,0
528.4623,528.82166,69,80,0
529.2123,529.57166,50,80,0
529.2123,529.57166,38,80,0
529.9623,530.32166,57,80,0
529.9623,530.32166,62,80,0
529.9623,530.32166,66,80,0
529.9623,530.32166,69,80,0
530.7123,531.07166,69,80,0
530.7123,531.07166,64,80,0
530.7123,531.07166,61,80,0
530.7123,531.07166,57,80,0
531.4623,531.82166,49,80,0
531.4623,531.82166,37,80,0
532.2123,532.57166,69,80,0
532.2123,532.57166,64,80,0
532.2123,532.57166,61,80,0
532.2123,532.57166,57,80,0
532.9623,533.32166,69,80,0
532.9623,533.32166,64,80,0
532.9623,533.32166,61,80,0
532.9623,533.32166,57,80,0
533.7123,534.07166,49,80,0
533.7123,534.07166,37,80,0
534.4623,534.82166,69,80,0
534.4623,534.82166,64,80,0
534.4623,534.82166,61,80,0
534.4623,534.82166,57,80,0
535.2123,535.57166,69,80,0
535.2123,535.57166,64,80,0
535.2123,535.57166,61,80,0
535.2123,535.57166,57,80,0
535.9623,536.32166,49,80,0
535.9623,536.32166,37,80,0
536.7123,537.07166,69,80,0
536.7123,537.07166,64,80,0
536.7123,537.07166,61,80,0
536.7123,537.07166,57,80,0
537.4623,537.82166,69,80,0
537.4623,537.82166,64,80,0
537.4623,537.82166,61,80,0
537.4623,537.82166,57,80,0
538.2123,538.57166,49,80,0
538.2123,538.57166,37,80,0
538.9623,539.32166,69,80,0
538.9623,539.32166,64,80,0
538.9623,539.32166,61,80,0
538.9623,539.32166,57,80,0
539.7123,540.07166,66,80,0
539.7123,540.07166,62,80,0
539.7123,540.07166,57,80,0
539.7123,540.07166,69,80,0
540.4623,540.82166,50,83,0
540.4623,540.82166,38,83,0
541.2123,541.57166,66,87,0
541.2123,541.57166,62,87,0
541.2123,541.57166,57,87,0
541.2123,541.57166,54,87,0
541.9623,542.32166,66,90,0
541.9623,542.32166,62,90,0
541.9623,542.32166,59,90,0
541.9623,542.32166,54,90,0
542.7123,543.07166,47,94,0
542.7123,543.07166,35,94,0
543.4623,543.82166,66,98,0
543.4623,543.82166,62,98,0
543.4623,543.82166,59,98,0
543.4623,543.82166,54,98,0
544.2123,544.57166,66,100,0
544.2123,544.57166,64,100,0
544.2123,544.57166,61,100,0
544.2123,544.57166,58,100,0
544.2123,544.57166,54,100,0
544.9623,545.32166,46,100,0
544.9623,545.32166,34,100,0
545.7123,546.07166,67,100,0
545.7123,546.07166,64,100,0
545.7123,546.07166,61,100,0
545.7123,546.07166,58,100,0
545.7123,546.07166,55,100,0
546.4623,546.82166,67,80,0
546.4623,546.82166,64,80,0
546.4623,546.82166,61,80,0
546.4623,546.82166,58,80,0
546.4623,546.82166,55,80,0
547.2123,547.57166,46,80,0
547.2123,547.57166,34,80,0
547.9623,548.32166,67,80,0
547.9623,548.32166,64,80,0
547.9623,548.32166,61,80,0
547.9623,548.32166,58,80,0
547.9623,548.32166,55,80,0
548.7123,549.07166,67,80,0
548.7123,549.07166,64,80,0
548.7123,549.07166,61,80,0
548.7123,549.07166,58,80,0
548.7123,549.07166,55,80,0
549.4623,549.82166,46,80,0
549.4623,549.82166,34,80,0
550.2123,550.57166,67,80,0
550.2123,550.57166,64,80,0
550.2123,550.57166,61,80,0
550.2123,550.57166,58,80,0
550.2123,550.57166,55,80,0
550.9623,551.32166,66,80,0
550.9623,551.32166,64,80,0
550.9623,551.32166,61,80,0
550.9623,551.32166,58,80,0
550.9623,551.32166,54,80,0
551.7123,552.07166,46,80,0
551.7123,552.07166,34,80,0
552.4623,552.82166,66,80,0
552.4623,552.82166,64,80,0
552.4623,552.82166,61,80,0
552.4623,552.82166,58,80,0
552.4623,552.82166,54,80,0
553.2123,553.57166,66,80,0
553.2123,553.57166,62,80,0
553.2123,553.57166,59,80,0
553.2123,553.57166,54,80,0
553.9623,554.32166,47,80,0
553.9623,554.32166,35,80,0
554.7123,555.07166,66,80,0
554.7123,555.07166,62,80,0
554.7123,555.07166,59,80,0
554.7123,555.07166,54,80,0
555.4623,555.82166,66,80,0
555.4623,555.82166,64,80,0
555.4623,555.82166,58,80,0
555.4623,555.82166,54,80,0
556.2123,556.57166,49,80,0
556.2123,556.57166,37,80,0
556.9623,557.32166,66,80,0
556.9623,557.32166,64,80,0
556.9623,557.32166,58,80,0
556.9623,557.32166,54,80,0
557.7123,558.07166,66,80,0
557.7123,558.07166,62,80,0
557.7123,558.07166,59,80,0
557.7123,558.07166,54,80,0
558.4623,558.82166,47,80,0
558.4623,558.82166,35,80,0
559.2123,559.57166,66,80,0
559.2123,559.57166,62,80,0
559.2123,559.57166,59,80,0
559.2123,559.57166,54,80,0
559.9623,560.32166,66,80,0
559.9623,560.32166,64,80,0
559.9623,560.32166,58,80,0
559.9623,560.32166,54,80,0
560.7123,561.07166,49,80,0
560.7123,561.07166,37,80,0
561.4623,561.82166,66,80,0
561.4623,561.82166,64,80,0
561.4623,561.82166,58,80,0
561.4623,561.82166,54,80,0
562.2123,562.57166,66,80,0
562.2123,562.57166,62,80,0
562.2123,562.57166,59,80,0
562.2123,562.57166,54,80,0
562.9623,563.32166,50,82,0
562.9623,563.32166,38,82,0
563.7123,564.07166,61,84,0
563.7123,564.07166,54,84,0
563.7123,564.07166,49,84,0
564.4623,564.82166,59,87,0
564.4623,564.82166,54,87,0
564.4623,564.82166,47,87,0
565.2123,565.57166,47,89,0
565.2123,565.57166,35,89,0
565.9623,566.32166,57,92,0
565.9623,566.32166,45,92,0
566.7123,567.07166,56,94,0
566.7123,567.07166,44,94,0
567.4623,567.82166,44,97,0
567.4623,567.82166,32,97,0
568.2123,568.57166,54,99,0
568.2123,568.57166,42,99,0
568.9623,569.32166,53,102,0
568.9623,569.32166,41,102,0
569.3373,569.69666,65,103,0
569.3373,569.69666,53,103,0
569.7123,570.0906,53,104,0
569.7123,570.0906,41,104,0
570.107,570.4853,65,106,0
570.107,570.4853,53,106,0
570.5018,570.9125,51,107,0
570.5018,570.9125,39,107,0
570.9303,571.4095,63,108,0
570.9303,571.4095,51,108,0
571.4303,572.2474,49,109,0
571.4303,572.2474,37,109,0
572.2643,572.99866,68,80,0
572.2643,572.99866,65,80,0
572.2643,573.74866,61,80,0
573.0143,573.74866,66,80,0
573.0143,574.12366,70,80,0
573.7643,574.12366,67,80,0
574.1393,574.49866,70,80,0
574.1393,574.49866,66,80,0
574.5143,574.8926,73,80,0
574.5143,574.8926,70,80,0
574.90906,575.28735,71,80,0
574.90906,575.28735,68,80,0
575.3038,575.70306,70,80,0
575.3038,575.70306,66,80,0
573.7643,576.11975,61,80,0
575.72046,576.11975,71,80,0
575.72046,576.11975,68,80,0
576.1371,576.5154,70,80,0
576.1371,576.5154,66,80,0
576.53186,576.89124,69,80,0
576.53186,576.89124,66,80,0
576.1371,578.39124,61,80,0
576.90686,578.76624,68,80,0
576.90686,578.76624,65,80,0
578.78186,579.14124,68,80,0
578.78186,579.14124,65,80,0
579.15686,579.53516,71,80,0
579.15686,579.53516,68,80,0
579.5516,579.9299,70,80,0
579.5516,579.9299,66,80,0
579.9463,580.34564,68,80,0
579.9463,580.34564,65,80,0
578.40686,580.76227,61,80,0
580.363,580.76227,70,80,0
580.363,580.76227,66,80,0
580.77966,581.5746,67,80,0
580.77966,581.5746,64,80,0
581.59106,582.32544,68,80,0
581.59106,582.32544,65,80,0
580.77966,583.07544,61,80,0
582.34106,583.07544,68,80,0
582.34106,583.07544,65,80,0
582.34106,583.07544,62,80,0
583.09106,583.45044,68,80,0
583.09106,583.82544,62,80,0
583.46606,583.82544,65,80,0
583.84106,584.20044,68,80,0
583.84106,584.57544,63,80,0
584.21606,584.57544,66,80,0
584.59106,584.95044,65,80,0
584.59106,585.32544,60,80,0
584.96606,585.32544,66,80,0
585.34106,585.70044,66,80,0
585.34106,586.07544,60,80,0
585.71606,586.07544,63,80,0
586.09106,586.45044,66,80,0
586.09106,586.82544,59,80,0
586.46606,586.82544,65,80,0
586.84106,587.20044,66,80,0
586.84106,587.57544,58,80,0
587.21606,587.57544,61,80,0
587.59106,587.95044,66,80,0
587.59106,588.32544,61,80,0
587.59106,588.32544,56,80,0
587.96606,588.32544,65,80,0
588.34106,589.07544,61,80,0
588.34106,589.07544,54,80,0
588.34106,589.07544,66,80,0
589.09106,589.82544,59,80,0
589.84106,590.20044,59,80,0
589.09106,590.57544,47,80,0
590.21606,590.57544,53,80,0
590.59106,590.95044,56,80,0
590.59106,591.32544,46,80,0
590.96606,591.32544,54,80,0
591.34106,591.70044,51,80,0
591.34106,592.07544,45,80,0
591.71606,592.07544,49,80,0
592.09106,592.45044,48,80,0
592.09106,592.82544,44,80,0
592.46606,592.82544,49,80,0
592.84106,593.22955,39,80,0
593.24646,593.63495,37,80,0
593.65186,594.06256,36,80,0
594.08044,594.5596,37,80,0
594.58044,595.74426,37,80,0
594.98584,596.14966,56,80,0
595.3659,596.55835,53,80,0
595.76117,596.97656,59,80,0
596.57574,596.97656,62,80,0
596.16656,596.9855,56,80,0
596.9944,597.4051,60,80,0
597.423,597.84576,61,80,0
597.86414,598.2975,56,80,0
598.31647,598.7609,63,80,0
598.78046,599.23663,61,80,0
599.2568,599.7252,59,80,0
599.74603,600.05853,58,80,0
600.07214,600.38464,63,80,0
600.3982,600.7107,60,80,0
600.7243,601.0368,61,80,0
601.05035,601.36285,58,80,0
601.37646,601.68896,63,80,0
601.7026,602.0151,60,80,0
602.0286,602.3411,61,80,0
602.35474,602.66724,58,80,0
599.74603,602.9933,54,80,0
602.6808,602.9933,63,80,0
603.0069,603.3194,58,80,0
603.0069,603.6455,54,80,0
603.333,603.6455,61,80,0
603.65906,603.97156,56,80,0
603.65906,604.29767,53,80,0
603.98517,604.29767,61,80,0
604.3112,604.6237,58,80,0
604.3112,604.9498,54,80,0
604.6373,604.9498,61,80,0
604.96344,605.27594,59,80,0
604.96344,605.602,56,80,0
605.2895,605.602,61,80,0
605.6156,605.9281,59,80,0
605.6156,606.25415,56,80,0
605.94165,606.25415,61,80,0
606.26776,606.60205,58,80,0
606.26776,606.9509,54,80,0
606.6166,606.9509,61,80,0
606.96545,607.31604,56,80,0
606.96545,607.6907,53,80,0
607.3313,607.6907,61,80,0
607.7063,608.0657,58,80,0
608.0813,608.4156,63,80,0
608.4301,608.75684,60,80,0
608.77106,609.0977,61,80,0
609.11194,609.42444,58,80,0
609.43805,609.75055,63,80,0
609.7641,610.0766,60,80,0
610.0902,610.4027,61,80,0
610.4163,610.7288,58,80,0
607.7063,611.0549,54,80,0
610.7424,611.0549,63,80,0
611.0685,611.381,58,80,0
611.0685,611.70703,54,80,0
611.39453,611.70703,61,80,0
611.72064,612.03314,56,80,0
611.72064,612.35925,53,80,0
612.04675,612.35925,61,80,0
612.3728,612.6853,58,80,0
612.3728,613.0114,54,80,0
612.6989,613.0114,61,80,0
613.02496,613.33746,59,80,0
613.02496,613.6636,56,80,0
613.3511,613.6636,61,80,0
613.6772,613.9897,59,80,0
613.6772,614.31573,56,80,0
614.00323,614.31573,61,80,0
614.32935,614.64185,58,80,0
614.32935,614.9679,54,80,0
614.6554,614.9679,61,80,0
614.9815,615.294,56,80,0
614.9815,615.6201,53,80,0
615.3076,615.6201,61,80,0
615.63367,615.83746,58,80,0
615.8511,616.0549,63,80,0
616.0685,616.2723,61,80,0
616.2858,616.4897,60,80,0
616.50323,616.70703,63,80,0
616.72064,616.92444,61,80,0
616.93805,617.14185,58,80,0
617.1554,617.3592,63,80,0
617.3728,617.5766,61,80,0
617.5902,617.794,60,80,0
617.8076,618.0114,63,80,0
618.02496,618.22876,61,80,0
618.2424,618.44617,58,80,0
618.4598,618.6636,63,80,0
615.63367,618.881,54,80,0
618.6772,618.881,61,80,0
618.89453,619.0983,58,80,0
619.11194,619.31573,62,80,0
618.89453,619.53314,54,80,0
619.32935,619.53314,61,80,0
619.5467,619.75055,56,80,0
619.7641,619.9679,63,80,0
619.5467,620.1853,53,80,0
619.9815,620.1853,61,80,0
620.1989,620.4027,58,80,0
620.41626,620.6201,63,80,0
620.1989,620.83746,54,80,0
620.63367,620.83746,61,80,0
620.8511,621.0549,59,80,0
621.0685,621.2723,63,80,0
620.8511,621.4896,56,80,0
621.2858,621.4896,61,80,0
621.50323,621.70703,59,80,0
621.72064,621.92444,63,80,0
621.50323,622.14185,56,80,0
621.93805,622.14185,61,80,0
622.1554,622.3592,58,80,0
622.3728,622.5766,63,80,0
622.1554,622.794,54,80,0
622.5902,622.794,61,80,0
622.8076,623.0114,56,80,0
623.02496,623.22876,63,80,0
622.8076,623.44617,53,80,0
623.2424,623.44617,61,80,0
623.4598,623.6636,58,80,0
623.6771,623.881,63,80,0
623.89453,624.0983,61,80,0
624.11194,624.31573,60,80,0
624.32935,624.53314,63,80,0
624.5467,624.75055,61,80,0
624.7641,624.9679,58,80,0
624.9815,625.1853,63,80,0
625.1989,625.4027,61,80,0
625.41626,625.62006,60,80,0
625.63367,625.83746,63,80,0
625.8511,626.0549,61,80,0
626.0685,626.2723,58,80,0
626.2858,626.4896,63,80,0
623.4598,626.70703,54,80,0
626.50323,626.70703,61,80,0
626.72064,626.92444,58,80,0
626.93805,627.14185,62,80,0
626.72064,627.3592,54,80,0
627.1554,627.3592,61,80,0
627.3728,627.5766,56,80,0
627.5902,627.794,63,80,0
627.3728,628.0114,53,80,0
627.80756,628.0114,61,80,0
628.02496,628.22876,58,80,0
628.2424,628.44617,63,80,0
628.02496,628.6636,54,80,0
628.4598,628.6636,61,80,0
628.6771,628.881,59,80,0
628.89453,629.0983,63,80,0
628.6771,629.31573,56,80,0
629.11194,629.31573,61,80,0
629.32935,629.53314,59,80,0
629.5467,629.7505,63,80,0
629.32935,629.9679,56,80,0
629.7641,629.9679,61,80,0
629.9815,630.1853,58,80,0
630.1989,630.4027,63,80,0
629.9815,630.62006,54,80,0
630.41626,630.62006,61,80,0
630.63367,630.83746,56,80,0
630.8511,631.0549,63,80,0
630.63367,631.2723,53,80,0
631.0685,631.2723,61,80,0
631.2858,631.4896,58,80,0
631.50323,631.70703,63,80,0
631.72064,631.92444,61,80,0
631.938,632.14185,58,80,0
632.1554,632.3592,59,80,0
632.3728,632.5766,61,80,0
632.5902,632.794,63,80,0
632.80756,633.0114,65,80,0
631.2858,633.22876,54,80,0
633.02496,633.22876,66,80,0
633.2424,634.0983,68,80,0
634.11194,634.31573,66,80,0
634.32935,634.53314,65,80,0
634.5467,634.7505,63,80,0
634.7641,634.9679,61,80,0
633.2424,635.1853,56,80,0
634.9815,635.1853,59,80,0
635.1989,635.4027,65,80,0
635.41626,635.62006,68,80,0
635.63367,635.83746,66,80,0
635.8511,636.0549,61,80,0
636.0684,636.2723,63,80,0
636.2858,636.4896,64,80,0
636.50323,636.70703,66,80,0
636.72064,636.92444,68,80,0
635.1989,637.14185,58,80,0
636.938,637.14185,70,80,0
637.1554,638.01135,71,80,0
638.02496,638.22876,70,80,0
638.2424,638.44617,68,80,0
638.4598,638.6636,66,80,0
638.6771,638.8809,65,80,0
637.1554,639.0983,59,80,0
638.89453,639.0983,63,80,0
639.32935,639.53314,65,81,0
639.5467,639.7505,66,83,0
639.7641,639.9679,68,84,0
639.9815,640.1853,70,86,0
639.11194,640.4027,61,80,0
640.19885,640.4027,71,88,0
640.41626,640.62006,70,89,0
640.63367,640.83746,68,91,0
640.41626,641.0549,63,89,0
640.8511,641.0549,66,93,0
641.2858,641.4896,68,96,0
641.50323,641.70703,70,98,0
641.72064,641.92444,71,99,0
641.938,642.1418,73,101,0
641.0684,642.3592,65,94,0
642.1554,642.3592,75,103,0
642.3728,642.5766,73,104,0
642.5902,642.794,71,106,0
642.3728,643.01135,66,104,0
642.80756,643.01135,70,108,0
643.02496,643.22876,76,110,0
643.2424,643.44617,73,110,0
643.02496,643.6636,68,110,0
643.4598,643.6636,75,110,0
643.6771,643.8809,76,110,0
643.6771,643.8809,70,110,0
643.89453,644.0983,66,110,0
643.89453,644.3021,58,110,0
644.11194,644.31573,67,110,0
644.3293,644.53314,66,110,0
644.5467,644.7505,64,110,0
644.3293,644.9679,59,110,0
644.7641,645.1859,63,110,0
644.9815,645.1859,60,105,0
645.19977,645.40967,65,103,0
645.4239,645.6396,66,101,0
645.6542,645.876,69,98,0
645.89087,646.1195,68,96,0
646.13513,646.37115,66,93,0
646.38715,646.6305,60,91,0
646.38715,646.6305,60,91,0
646.647,646.8981,65,88,0
646.915,647.1745,68,86,0
647.1923,649.4267,73,80,0
647.1923,649.4267,70,80,0
649.4423,650.9267,67,80,0
649.4423,650.9267,70,80,0
650.9423,651.6767,67,80,0
650.9423,651.6767,63,80,0
651.6923,652.103,70,80,0
652.1209,652.5316,67,80,0
652.5495,652.9602,68,80,0
652.5495,653.38873,56,80,0
652.978,653.38873,63,80,0
653.4066,653.8173,61,80,0
653.4066,654.2459,47,80,0
653.8352,654.2459,59,80,0
654.26373,655.103,58,80,0
654.26373,655.103,49,80,0
655.1209,655.5316,46,80,0
655.1209,655.5316,37,80,0
655.5495,656.1745,49,80,0
655.5495,656.1745,37,80,0
656.1923,656.38873,47,80,0
656.1923,656.38873,35,80,0
656.4066,656.603,46,80,0
656.4066,656.603,34,80,0
656.6209,656.8173,47,80,0
656.6209,656.8173,35,80,0
656.8352,657.6834,34,80,0
657.04944,657.8977,37,80,0
657.26373,658.11194,40,80,0
657.478,658.32623,43,80,0
657.6923,658.5405,46,80,0
658.1209,658.70123,52,80,0
658.54944,658.7459,61,80,0
658.54944,658.7459,58,80,0
657.9066,658.7548,49,80,0
658.3352,658.7548,55,80,0
658.76373,658.9602,64,80,0
658.978,659.17444,59,80,0
659.1923,659.38873,63,80,0
659.4066,661.103,47,80,0
659.4066,661.103,59,80,0
661.978,663.103,37,80,0
662.26373,663.38873,42,80,0
662.54944,663.67444,46,80,0
663.4066,663.67444,58,80,0
662.8352,663.6834,49,80,0
663.1209,663.6834,54,80,0
663.6923,663.9215,54,80,0
663.6923,664.1715,49,80,0
663.9423,664.1715,58,80,0
664.1923,664.4215,54,80,0
664.1923,664.6715,51,80,0
664.4423,664.6715,57,70,0
664.6923,665.6715,59,70,0
664.6923,665.6715,56,70,0
664.6923,665.6715,53,70,0
664.6923,665.6715,50,70,0
665.6923,667.1715,56,70,0
665.6923,667.1715,53,70,0
665.6923,667.1715,50,70,0
665.6923,667.1715,59,70,0
667.1923,667.6715,58,70,0
667.1923,667.6715,55,70,0
667.1923,667.6715,51,70,0
667.6923,669.38873,58,70,0
667.6923,669.38873,55,70,0
667.6923,669.38873,51,70,0
669.4066,670.2459,63,70,0
669.4066,670.2459,58,70,0
669.4066,670.2459,55,70,0
669.4066,670.2459,51,70,0
670.26373,671.9602,58,70,0
670.26373,671.9602,63,70,0
670.26373,671.9602,55,70,0
670.26373,671.9602,51,70,0
671.978,672.8173,63,70,0
671.978,672.8173,58,70,0
671.978,672.8173,55,70,0
671.978,672.8173,51,70,0
672.8352,673.67444,51,70,0
672.8352,673.67444,39,70,0
673.6923,675.38873,34,70,0
673.6923,675.38873,46,70,0
675.4066,676.2459,47,70,0
675.4066,676.2459,35,70,0
676.26373,677.9602,49,70,0
676.26373,677.9602,37,70,0
677.978,679.67444,42,70,0
677.978,679.67444,30,70,0
679.6923,680.5316,58,70,0
680.54944,682.2459,49,70,0
682.26373,683.103,61,70,0
683.1209,684.8173,58,70,0
684.83514,686.5316,49,70,0
684.83514,686.5316,37,70,0
686.54944,686.96014,51,70,0
686.54944,686.96014,39,70,0
686.978,687.38873,49,70,0
686.978,687.38873,37,70,0
687.4066,687.8173,51,70,0
687.4066,687.8173,49,70,0
687.4066,687.8173,39,70,0
687.83514,688.2459,53,70,0
687.83514,688.2459,49,70,0
687.83514,688.2459,41,70,0
688.26373,689.96014,54,70,0
688.26373,689.96014,49,70,0
688.26373,689.96014,42,70,0
689.978,690.8173,70,70,0
690.83514,692.5316,61,70,0
692.54944,693.38873,30,70,0
692.54944,693.38873,42,70,0
693.4066,694.2459,49,70,0
693.4066,694.2459,37,70,0
694.26373,695.103,61,70,0
694.26373,695.103,49,70,0
695.1209,695.96014,58,70,0
695.1209,695.96014,49,70,0
695.1209,695.96014,46,70,0
695.978,697.67444,49,70,0
695.978,697.67444,44,70,0
695.978,697.67444,56,70,0
697.6923,698.5316,49,70,0
697.6923,698.5316,37,70,0
698.54944,701.103,54,70,0
698.54944,701.103,49,70,0
698.54944,701.103,42,70,0
701.1209,703.67444,49,70,0
701.1209,703.67444,37,70,0
703.6923,705.38873,42,70,0
703.6923,705.38873,30,70,0
705.4066,706.24585,54,70,0
705.4066,706.24585,42,70,0
706.26373,707.96014,54,70,0
706.26373,707.96014,42,70,0
707.978,708.603,42,70,0
707.978,708.603,54,70,0
708.62085,708.8173,52,70,0
708.62085,708.8173,40,70,0
708.83514,711.0695,50,70,0
708.83514,711.0695,38,70,0
711.08514,713.3195,54,70,0
711.08514,713.3195,42,70,0
713.33514,714.8195,59,70,0
713.33514,714.8195,47,70,0
716.33514,717.0695,59,70,0
716.33514,717.0695,47,70,0
717.08514,717.4445,55,70,0
717.08514,717.4445,43,70,0
717.46014,717.8195,50,70,0
717.46014,717.8195,38,70,0
717.83514,719.3195,50,70,0
717.83514,719.3195,38,70,0
719.33514,720.0695,47,70,0
719.33514,720.0695,35,70,0
720.08514,720.8195,47,70,0
720.08514,720.8195,35,70,0
720.83514,721.5695,43,70,0
720.83514,721.5695,31,70,0
721.58514,722.3195,45,70,0
721.58514,722.3195,33,70,0
722.33514,723.0695,47,70,0
722.33514,723.0695,35,70,0
723.08514,723.8195,55,71,0
723.08514,723.8195,47,71,0
723.83514,724.5695,57,73,0
723.83514,724.5695,48,73,0
724.58514,725.3195,59,75,0
724.58514,725.3195,50,75,0
725.33514,726.1082,59,77,0
725.33514,726.1082,62,77,0
726.12463,726.5239,60,79,0
726.12463,726.5239,57,79,0
726.12463,726.5239,50,79,0
726.5413,727.02045,59,79,0
726.5413,727.02045,55,79,0
727.0413,727.30914,59,80,0
727.327,727.58813,64,80,0
727.605,727.8584,62,80,0
727.8753,728.1097,61,80,0
728.1253,728.3597,64,80,0
728.3753,728.6097,62,80,0
728.6253,728.8597,59,80,0
728.8753,729.1097,64,80,0
729.1253,729.3597,62,80,0
729.3753,729.6097,61,80,0
729.6253,729.8597,64,80,0
729.8753,730.1097,62,80,0
730.1253,730.3597,59,80,0
730.3753,730.6097,64,80,0
727.0413,730.8597,55,80,0
730.6253,730.8597,62,80,0
730.8753,731.1097,59,80,0
731.1253,731.3597,63,80,0
730.8753,731.6097,55,80,0
731.3753,731.6097,62,80,0
731.6253,731.8597,57,80,0
731.8753,732.1097,64,80,0
731.6253,732.3597,54,80,0
732.1253,732.3597,62,80,0
732.3753,732.6097,59,80,0
732.6253,732.8597,64,80,0
732.3753,733.1097,55,80,0
732.8753,733.1097,62,80,0
733.1253,733.3597,60,80,0
733.3753,733.6097,64,80,0
733.1253,733.8597,57,80,0
733.6253,733.8597,62,80,0
733.8753,734.1097,60,80,0
734.1253,734.3597,64,80,0
733.8753,734.6097,57,80,0
734.3753,734.6097,62,80,0
734.6253,734.87866,59,80,0
734.89557,735.1489,64,80,0
734.6253,735.4192,55,80,0
735.16583,735.4192,62,80,0
735.4361,735.7039,58,80,0
735.7218,736.0105,64,80,0
735.4361,736.3438,54,80,0
736.0313,736.3438,62,80,0
736.3647,736.6325,59,80,0
736.6504,736.9115,64,80,0
736.92834,737.18176,62,80,0
737.1986,737.433,61,80,0
737.4486,737.683,64,80,0
737.6986,737.933,62,80,0
737.9486,738.183,59,80,0
738.1986,738.433,64,80,0
738.4486,738.683,62,80,0
738.6986,738.933,61,80,0
738.9486,739.183,64,80,0
739.1986,739.433,62,80,0
739.4486,739.683,59,80,0
739.6986,739.933,64,80,0
736.3647,740.183,55,80,0
739.9486,740.183,62,80,0
740.1986,740.433,59,80,0
740.4486,740.683,63,80,0
740.1986,740.933,55,80,0
740.6986,740.933,62,80,0
740.9486,741.183,57,80,0
741.1986,741.433,64,80,0
740.9486,741.683,54,80,0
741.4486,741.683,62,80,0
741.6986,741.933,59,80,0
741.9486,742.183,64,80,0
741.6986,742.433,55,80,0
742.1986,742.433,62,80,0
742.4486,742.683,60,80,0
742.6986,742.933,64,80,0
742.4486,743.183,57,80,0
742.9486,743.183,62,80,0
743.1986,743.433,60,80,0
743.4486,743.683,64,80,0
743.1986,743.933,57,80,0
743.6986,743.933,62,80,0
743.9486,744.183,59,80,0
744.1986,744.433,64,80,0
743.9486,744.683,55,80,0
744.4486,744.683,62,80,0
744.6986,744.933,58,80,0
744.9486,745.183,64,80,0
744.6986,745.433,54,80,0
745.1986,745.433,62,80,0
745.4486,745.683,58,80,0
745.6986,745.933,64,80,0
745.4486,746.183,54,80,0
745.9486,746.183,62,80,0
746.1986,746.433,59,80,0
746.4486,746.683,64,80,0
746.1986,746.933,55,80,0
746.6986,746.933,62,80,0
746.9486,747.183,59,80,0
747.1986,747.433,64,80,0
746.9486,747.683,56,80,0
747.4486,747.683,62,80,0
747.6986,747.933,59,80,0
747.9486,748.183,64,80,0
747.6986,748.433,56,80,0
748.1986,748.433,62,80,0
748.4486,748.683,59,81,0
748.6986,748.933,65,82,0
748.4486,749.183,56,81,0
748.9486,749.183,62,82,0
749.1986,749.433,59,83,0
749.4486,749.683,65,84,0
749.1986,749.933,56,83,0
749.6986,749.933,62,85,0
749.9486,750.183,62,85,0
750.1986,750.433,66,86,0
749.9486,750.683,57,85,0
750.4486,750.683,64,87,0
750.6986,750.933,62,87,0
750.9486,751.183,66,88,0
750.6986,751.433,58,87,0
751.1986,751.433,64,89,0
751.4486,751.683,62,90,0
751.6986,751.933,66,90,0
751.4486,752.183,59,90,0
751.9486,752.183,64,91,0
752.1986,752.433,62,92,0
752.4486,752.683,66,92,0
752.1986,752.933,59,92,0
752.6986,752.933,64,93,0
752.9486,753.183,62,94,0
753.1986,753.433,66,95,0
752.9486,753.683,59,94,0
753.4486,753.683,64,95,0
753.6986,753.933,62,96,0
753.9486,754.183,65,97,0
753.6986,754.433,59,96,0
754.1986,754.433,66,98,0
754.4486,754.6667,62,98,0
754.6812,754.89923,67,99,0
754.4486,755.1318,59,98,0
754.91376,755.1318,66,100,0
755.1463,755.3643,63,100,0
755.37885,755.59686,67,101,0
755.1463,755.82947,60,100,0
755.61145,755.82947,66,102,0
755.844,756.062,63,103,0
756.07654,756.29456,69,103,0
755.844,756.5271,60,103,0
756.3091,756.5271,66,104,0
756.5417,756.7597,51,105,0
756.77423,756.99225,57,105,0
756.5417,757.2248,48,105,0
757.0068,757.2248,54,106,0
757.2393,757.45734,63,107,0
757.47186,757.68994,69,108,0
757.2393,757.9225,60,107,0
757.70447,757.9225,66,108,0
757.937,758.155,51,109,0
758.16956,758.3876,57,110,0
757.937,758.6201,48,109,0
758.4021,758.6201,54,110,0
758.6347,758.969,60,110,0
758.8091,759.14343,69,110,0
758.9835,759.3178,66,110,0
758.9835,759.3178,63,110,0
759.15796,759.49225,69,110,0
759.33234,759.6667,48,110,0
759.5068,759.84106,57,110,0
759.6812,760.0155,54,110,0
759.6812,760.0155,51,110,0
759.8556,760.18994,57,110,0
760.03,760.3643,60,110,0
760.20447,760.53876,69,110,0
760.37885,760.7132,66,110,0
760.37885,760.7132,63,110,0
760.5533,760.8876,69,110,0
760.7277,760.94574,48,110,0
760.844,761.062,57,110,0
760.96027,761.1783,54,110,0
760.96027,761.1783,51,110,0
761.07654,761.29456,57,110,0
761.1928,761.4108,54,110,0
761.1928,761.4108,51,110,0
761.3091,761.5271,57,110,0
761.42535,761.6434,60,110,0
761.5417,761.7597,69,110,0
761.65796,761.876,66,110,0
761.65796,761.876,63,110,0
761.77423,761.99225,69,110,0
761.8905,762.1085,66,110,0
761.8905,762.1085,63,110,0
762.0068,762.2324,69,110,0
762.12305,762.3574,48,110,0
762.24805,762.4824,57,110,0
762.37305,762.62305,54,110,0
762.37305,762.62305,51,110,0
762.49805,762.81946,57,110,0
762.6409,763.06946,54,110,0
762.6409,763.06946,51,110,0
762.8507,763.2101,57,80,0
763.1007,764.5851,61,80,0
764.6007,765.3001,57,80,0
765.315,766.0144,57,80,0
766.0293,766.7287,54,80,0
766.7436,767.443,56,80,0
766.7436,767.443,49,80,0
767.4579,768.8716,54,80,0
767.4579,768.8716,42,80,0
768.8864,769.5859,54,80,0
768.8864,769.5859,42,80,0
769.6007,771.0144,47,80,0
769.6007,771.0144,35,80,0
771.0293,771.7287,47,80,0
771.0293,771.7287,35,80,0
771.7436,773.1573,44,80,0
771.7436,773.1573,32,80,0
773.1722,773.8716,45,80,0
773.1722,773.8716,33,80,0
773.8864,774.5859,45,80,0
773.8864,774.5859,33,80,0
774.6007,775.3001,47,80,0
774.6007,775.3001,35,80,0
775.315,776.0144,48,80,0
775.315,776.0144,36,80,0
776.0293,776.71246,48,80,0
776.0293,776.71246,36,80,0
776.727,777.77936,49,80,0
776.727,777.77936,37,80,0
777.79425,778.13654,48,80,0
777.79425,778.13654,36,80,0
778.15137,778.85913,49,80,0
778.15137,778.85913,37,80,0
778.8744,779.5908,49,80,0
778.8744,779.5908,37,80,0
779.6061,780.4454,50,80,0
779.6061,780.4454,38,80,0
780.46326,782.77686,47,80,0
780.46326,782.77686,38,80,0
780.46326,782.77686,31,80,0
782.79285,785.1183,50,80,0
782.79285,785.1183,43,80,0
782.79285,785.1183,35,80,0
785.1347,787.53925,52,80,0
785.1347,787.53925,43,80,0
785.1347,787.53925,36,80,0
787.55664,788.37256,50,80,0
787.55664,788.37256,43,80,0
787.55664,788.37256,35,80,0
788.38995,789.6295,43,80,0
789.22327,790.0581,38,80,0
789.6474,790.0581,42,80,0
790.076,790.9152,42,80,0
790.076,790.9152,38,80,0
790.9331,791.785,45,80,0
790.9331,791.785,37,80,0
791.80334,792.66736,49,80,0
791.80334,792.66736,37,80,0
792.6857,794.46436,49,80,0
792.6857,794.46436,37,80,0
794.4833,795.3735,49,80,0
794.4833,795.3735,42,80,0
795.3924,796.3086,49,80,0
795.3924,796.3086,42,80,0
796.3281,797.2461,50,80,0
796.3281,797.2461,35,80,0
797.2656,798.20245,43,80,0
798.22266,799.1702,47,80,0
798.22266,799.1702,35,80,0
799.19037,800.14874,37,80,0
800.16956,800.64874,41,80,0
800.16956,801.14874,37,80,0
800.66956,801.14874,42,80,0
801.16956,801.80817,42,80,0
801.16956,801.80817,37,80,0
801.8217,802.4603,42,80,0
801.8217,802.4603,30,80,0
802.4739,803.1125,46,80,0
802.4739,803.1125,34,80,0
803.1261,803.76465,49,80,0
803.1261,803.76465,37,80,0
803.77826,804.4168,42,80,0
803.77826,804.4168,30,80,0
804.4304,805.06903,46,80,0
804.4304,805.06903,34,80,0
805.0826,805.7212,47,80,0
805.0826,805.7212,35,80,0
805.73474,806.37335,42,80,0
805.73474,806.37335,30,80,0
806.38696,807.0255,47,80,0
806.38696,807.0255,35,80,0
807.0391,807.6777,50,80,0
807.0391,807.6777,38,80,0
807.6913,808.3299,42,80,0
807.6913,808.3299,30,80,0
808.34344,808.98206,47,80,0
808.34344,808.98206,35,80,0
808.9956,809.6342,49,80,0
808.9956,809.6342,37,80,0
809.6478,810.2864,42,85,0
809.6478,810.2864,30,85,0
810.3,810.93854,45,90,0
810.3,810.93854,33,90,0
810.95215,811.59076,49,95,0
810.95215,811.59076,37,95,0
811.6043,812.2429,42,100,0
811.6043,812.2429,30,100,0
812.25653,812.8951,45,105,0
812.25653,812.8951,33,105,0
812.9087,813.54724,47,110,0
812.9087,813.54724,35,110,0
813.56085,814.33386,42,110,0
813.56085,814.33386,30,110,0
814.35034,815.24615,47,110,0
814.35034,815.24615,35,110,0
815.26697,815.8371,50,110,0
815.26697,815.854,38,110,0
815.57947,816.12427,30,108,0
815.87085,816.3677,35,106,0
816.1411,816.6333,38,103,0
816.3911,816.8833,42,101,0
816.6411,817.1333,47,98,0
816.8911,817.3755,50,96,0
817.1411,817.6333,42,93,0
817.3911,817.8833,50,91,0
817.6411,818.1177,42,80,0
817.8911,818.3755,49,80,0
818.1411,818.6255,42,80,0
818.3911,818.8755,54,80,0
818.6411,819.1255,49,79,0
818.8911,819.3755,54,79,0
819.1411,819.6255,42,79,0
819.3911,819.85986,49,79,0
819.6411,820.1333,42,78,0
819.8911,820.3833,54,78,0
820.1411,820.60986,49,78,0
820.3911,820.8677,54,77,0
820.6411,821.1177,49,77,0
820.8911,821.3677,42,77,0
821.1411,821.6333,49,77,0
821.3911,821.8833,54,76,0
821.6411,822.1333,49,76,0
821.8911,822.35986,54,76,0
822.1411,822.6177,37,75,0
822.3911,822.85986,42,75,0
822.6411,823.1177,37,75,0
822.8911,823.3833,49,75,0
823.1411,823.6255,42,74,0
823.3911,823.85986,49,74,0
823.6411,824.1177,37,74,0
823.8911,824.3755,42,73,0
824.1411,824.6177,37,73,0
824.3911,824.8755,49,73,0
824.6411,825.10986,42,73,0
824.8911,825.3677,49,72,0
825.1411,825.6255,37,72,0
825.3911,825.8755,42,72,0
825.6411,826.1177,37,71,0
825.8911,826.35986,49,71,0
826.1411,826.60986,42,71,0
826.3911,826.8677,49,71,0
826.6411,827.1177,42,70,0
826.8911,827.3677,37,70,0
827.1411,827.6177,42,70,0
827.3911,827.8755,30,70,0
827.6411,828.1177,37,70,0
827.8911,828.3677,30,70,0
828.1411,828.6333,42,70,0
828.3911,828.8833,37,70,0
828.6411,829.10986,42,70,0
828.8911,829.35986,30,70,0
829.1411,829.6177,37,70,0
829.3911,829.88605,30,70,0
829.6411,830.1732,42,70,0
829.91144,830.43506,37,70,0
830.1817,830.7198,42,70,0
830.45197,831.02637,37,70,0
830.7377,831.3701,42,70,0
831.0472,831.3701,37,70,0
831.38055,832.26,49,70,0
832.27783,833.0718,61,70,0
833.0887,833.88257,57,70,0
833.8995,834.69336,57,70,0
834.71027,835.5042,54,70,0
835.52106,836.315,56,70,0
835.52106,836.315,53,70,0
835.52106,836.315,49,70,0
836.3319,837.1258,57,70,0
836.3319,837.1258,54,70,0
837.1427,839.5582,54,70,0
837.1427,839.5582,42,70,0
839.57513,840.3691,47,70,0
839.57513,840.3691,35,70,0
840.3859,841.1799,42,70,0
840.3859,841.1799,30,70,0
841.1968,841.99066,35,70,0
842.00757,843.6123,41,70,0
842.00757,843.6123,29,70,0
843.6292,845.23395,41,70,0
843.6292,845.23395,29,70,0
845.2508,845.63934,41,70,0
845.2508,845.63934,29,70,0
845.6562,846.04474,42,70,0
845.6562,846.04474,30,70,0
846.06165,848.54425,42,70,0
846.06165,848.54425,30,70,0
848.56165,853.6152,42,70,0
848.56165,853.6152,49,70,0
848.56165,853.6152,58,70,0
853.63306,858.8331,30,70,0
853.63306,858.8331,37,70,0
853.63306,858.8331,46,70,0
858.85156,861.5599,46,70,0
858.85156,861.5599,37,70,0
858.85156,861.5599,30,70,0
861.5788,867.9235,30,60,0
862.0333,867.9235,37,60,0
862.4879,867.9235,46,60,0
