start_time,end_time,note_value,velocity,instrument_program_number
0.6162586,0.76209193,65,80,0
0.7829253,0.9287586,65,80,0
0.94959193,1.0954252,77,80,0
1.1162586,1.262092,77,80,0
1.2829252,2.5954254,89,80,0
2.8662586,3.8454254,89,80,0
2.8662586,3.8454254,77,80,0
5.907925,6.887092,85,80,0
5.907925,6.887092,80,80,0
5.907925,6.887092,89,80,0
5.907925,6.887092,77,80,0
9.157926,10.137092,85,80,0
9.157926,10.137092,89,80,0
9.157926,10.137092,77,80,0
9.157926,10.137092,82,80,0
12.116259,14.095426,90,80,0
12.116259,14.095426,85,80,0
12.116259,14.095426,82,80,0
12.116259,14.095426,78,80,0
15.366259,15.595426,73,80,0
15.616259,15.845426,78,80,0
15.866259,16.095425,73,80,0
16.116259,16.345425,78,80,0
16.366259,16.595425,73,80,0
16.616259,16.845425,78,80,0
16.866259,17.095425,70,80,0
17.366259,17.595425,66,80,0
17.616259,17.845425,71,80,0
17.866259,18.095425,66,80,0
18.116259,18.345425,71,80,0
18.366259,18.595425,66,80,0
18.616259,18.845425,71,80,0
17.116259,19.095425,75,80,0
18.866259,19.095425,63,80,0
19.116259,19.345425,65,80,0
19.116259,19.595425,75,80,0
19.366259,19.595425,68,80,0
19.616259,19.845425,65,80,0
19.866259,20.095425,68,80,0
20.116259,20.345425,65,80,0
19.616259,20.595425,73,80,0
20.366259,20.595425,68,80,0
20.616259,20.845425,65,80,0
20.616259,21.095425,71,80,0
20.866259,21.095425,68,80,0
21.116259,21.595425,70,80,0
21.116259,21.595425,66,80,0
21.616259,22.095425,75,80,0
21.616259,22.095425,69,80,0
21.616259,22.095425,66,80,0
22.116259,23.095425,65,80,0
22.116259,23.845425,68,80,0
23.866259,24.095425,70,80,0
23.866259,24.095425,66,80,0
24.116259,24.669144,82,80,0
24.116259,24.669144,78,80,0
24.116259,24.669144,73,80,0
24.116259,24.669144,70,80,0
25.847027,26.976835,82,80,0
25.847027,26.976835,78,80,0
25.847027,26.976835,73,80,0
25.847027,26.976835,70,80,0
27.577797,28.913023,87,80,0
27.577797,28.913023,78,80,0
27.577797,28.913023,75,80,0
30.783531,30.921032,66,80,0
30.93353,31.071032,68,80,0
31.083532,31.221031,70,80,0
31.233532,31.37103,71,80,0
31.383532,31.521032,73,80,0
31.533531,31.671032,75,80,0
31.68353,31.821032,76,80,0
31.833532,31.971031,75,80,0
31.983532,32.121033,71,80,0
32.133533,32.27103,78,80,0
32.28353,32.421032,76,80,0
32.433533,32.571033,75,80,0
32.58353,32.72103,73,80,0
32.733532,32.871033,71,80,0
32.883533,33.02103,70,80,0
33.03353,33.171032,71,80,0
33.183533,33.321033,78,80,0
33.33353,33.47103,80,80,0
33.483532,33.621033,82,80,0
33.633533,33.77103,83,80,0
33.78353,33.921032,85,80,0
33.933533,34.071033,87,80,0
34.08353,34.22103,88,80,0
34.233532,34.371033,87,80,0
34.383533,34.52103,85,80,0
34.53353,34.671032,83,80,0
34.683533,34.821033,82,80,0
34.83353,34.97103,80,80,0
34.983532,35.121033,78,80,0
35.133533,35.27103,76,80,0
35.28353,35.421032,75,80,0
35.433533,35.579807,73,80,0
35.593105,35.739384,71,80,0
35.75268,35.898956,70,80,0
35.912254,36.058533,68,80,0
36.07183,36.224606,66,80,0
36.238495,36.391273,76,80,0
36.405163,36.55794,75,80,0
36.57183,36.724606,80,80,0
36.738495,36.91037,78,80,0
36.925995,37.09787,83,80,0
37.113495,37.309925,82,80,0
37.32778,37.602783,88,80,0
37.62778,38.60695,88,80,0
37.62778,38.60695,82,80,0
37.62778,38.60695,76,80,0
38.37778,38.85695,87,80,0
38.37778,38.85695,83,80,0
38.37778,38.85695,78,80,0
38.37778,38.85695,75,80,0
40.12778,40.60695,75,80,0
40.12778,40.60695,83,80,0
40.12778,40.60695,87,80,0
40.62778,40.823616,87,110,0
40.727783,40.823616,75,80,0
40.82778,40.923615,68,80,0
40.92778,41.023613,75,80,0
41.027782,41.123615,76,80,0
41.12778,41.223614,75,80,0
41.227783,41.323616,68,80,0
41.32778,41.423615,75,80,0
41.42778,42.323616,76,80,0
42.32778,42.423615,70,80,0
42.42778,42.523613,75,80,0
42.527782,42.623615,74,80,0
42.62778,42.723614,75,80,0
42.727783,42.823616,70,80,0
42.82778,42.923615,75,80,0
42.92778,43.023613,73,80,0
43.027782,43.123615,72,80,0
43.12778,43.223614,75,80,0
43.227783,43.323616,72,80,0
43.32778,43.423615,80,80,0
43.42778,43.523613,73,80,0
43.527782,43.623615,80,80,0
43.62778,43.723614,75,80,0
43.727783,43.823616,80,80,0
43.82778,44.223614,76,80,0
44.227783,44.723614,64,80,0
44.727783,44.823616,61,80,0
44.82778,44.923615,66,80,0
44.92778,45.023613,65,80,0
45.027782,45.123615,66,80,0
45.12778,45.223614,61,80,0
45.227783,45.323616,66,80,0
45.32778,45.423615,64,80,0
45.42778,45.623615,63,80,0
45.62778,46.023613,75,80,0
46.027782,46.223614,73,80,0
46.227783,46.323616,71,80,0
46.32778,46.423615,75,81,0
46.42778,46.523613,71,83,0
46.527782,46.623615,75,84,0
46.62778,46.723614,76,86,0
46.727783,46.823616,75,87,0
46.82778,46.923615,71,89,0
46.92778,47.023613,75,91,0
46.62778,47.123615,83,86,0
47.12778,47.223614,80,94,0
47.227783,47.323616,81,95,0
47.027782,47.423615,76,92,0
47.32778,47.423615,85,97,0
47.42778,47.523613,76,98,0
47.42778,47.623615,69,98,0
47.527782,47.623615,81,100,0
47.62778,47.723614,75,102,0
47.62778,47.823616,71,102,0
47.727783,47.823616,80,103,0
47.82778,47.930458,75,105,0
47.82778,48.0376,71,105,0
47.934925,48.0376,80,106,0
48.04207,48.144745,75,108,0
48.04207,48.25189,73,108,0
48.149208,48.25189,79,109,0
48.25635,48.36693,75,110,0
48.25635,48.482315,71,110,0
48.37174,48.482315,80,110,0
48.48712,48.6178,75,110,0
48.48712,48.910984,70,110,0
48.623486,48.910984,82,110,0
49.423485,51.402653,71,81,0
49.423485,51.402653,83,81,0
49.423485,51.402653,80,81,0
49.423485,51.402653,75,81,0
51.423485,53.402653,71,86,0
51.423485,53.402653,83,86,0
51.423485,53.402653,80,86,0
51.423485,53.402653,76,86,0
53.423485,55.402653,73,91,0
53.423485,55.402653,76,91,0
53.423485,55.402653,80,91,0
53.423485,55.402653,85,91,0
55.423485,57.402653,73,96,0
55.423485,57.402653,76,96,0
55.423485,57.402653,81,96,0
55.423485,57.402653,85,96,0
57.923485,58.069317,69,91,0
58.090153,58.235985,69,93,0
58.256817,58.402653,81,95,0
58.423485,58.902653,81,97,0
58.923485,60.902653,93,103,0
58.923485,60.902653,81,103,0
60.923485,61.902653,80,110,0
60.923485,61.902653,92,110,0
61.923485,62.902653,88,110,0
61.923485,62.902653,76,110,0
62.923485,63.569317,75,110,0
62.923485,63.569317,87,110,0
63.590153,64.235985,74,110,0
63.590153,64.235985,86,110,0
64.25682,64.90265,71,110,0
64.25682,64.90265,83,110,0
64.923485,65.84015,80,110,0
65.25682,66.173485,76,110,0
65.59015,66.50682,75,109,0
65.923485,66.84015,74,108,0
66.25682,67.173485,71,107,0
66.59015,67.50682,68,106,0
66.923485,67.84015,64,105,0
67.25682,68.173485,63,105,0
67.59015,68.50682,62,104,0
67.923485,68.548485,59,103,0
68.173485,68.798485,56,102,0
68.423485,69.048485,52,102,0
68.923485,69.15265,50,100,0
69.048485,69.27765,52,100,0
68.673485,69.298485,51,101,0
69.173485,69.40265,50,100,0
69.298485,69.52765,52,99,0
69.423485,69.65265,50,99,0
69.548485,69.77765,52,99,0
69.673485,69.90265,50,99,0
69.798485,70.02765,52,98,0
69.923485,70.15265,50,98,0
70.048485,70.27765,52,98,0
70.173485,70.40265,50,97,0
70.298485,70.52765,52,97,0
70.423485,70.65265,50,97,0
70.548485,70.77765,52,96,0
70.673485,70.90265,50,96,0
70.798485,71.02765,52,96,0
70.923485,71.15265,51,95,0
71.048485,71.27765,52,95,0
71.173485,71.40265,51,95,0
71.298485,71.52765,52,94,0
71.423485,71.65265,51,94,0
71.548485,71.77765,52,94,0
71.673485,71.90265,51,93,0
71.798485,72.02765,52,93,0
71.923485,72.15265,51,93,0
72.048485,72.27765,52,93,0
72.173485,72.40265,51,92,0
72.298485,72.52765,52,92,0
72.423485,72.65265,51,92,0
72.548485,72.77765,52,91,0
72.673485,72.90265,51,91,0
72.798485,73.02765,52,91,0
72.923485,73.02765,52,90,0
73.048485,73.27765,54,90,0
73.173485,73.40265,52,90,0
73.298485,73.52765,54,89,0
73.423485,73.65265,52,89,0
73.548485,73.77765,54,89,0
73.673485,73.90265,52,88,0
73.798485,74.02765,54,88,0
73.923485,74.15265,52,88,0
74.048485,74.27765,54,87,0
74.173485,74.40265,52,87,0
74.298485,74.52765,54,87,0
74.423485,74.65265,52,87,0
74.548485,74.77765,54,86,0
74.673485,74.90265,52,86,0
74.798485,75.02765,54,86,0
74.923485,75.15265,52,85,0
75.048485,75.27765,54,85,0
75.173485,75.40265,52,85,0
75.298485,75.52765,54,84,0
75.423485,75.65265,52,84,0
75.548485,75.77765,54,84,0
75.673485,75.90265,52,83,0
75.798485,76.02765,54,83,0
75.923485,76.15265,52,83,0
76.048485,76.27765,54,82,0
76.173485,76.40265,52,82,0
76.298485,76.52765,54,82,0
76.423485,76.65265,52,81,0
76.548485,76.77765,54,81,0
76.673485,76.90265,51,81,0
76.798485,76.90265,52,81,0
76.923485,77.90265,52,80,0
76.923485,77.90265,49,80,0
77.923485,78.40265,52,80,0
77.923485,78.40265,49,80,0
78.423485,78.90265,52,80,0
78.423485,78.90265,49,80,0
78.923485,79.90265,52,80,0
78.923485,79.90265,49,80,0
79.923485,80.40265,57,80,0
79.923485,80.40265,49,80,0
80.423485,80.90265,57,80,0
80.423485,80.90265,49,80,0
80.423485,80.90265,54,80,0
80.923485,81.90265,57,80,0
80.923485,81.90265,54,80,0
81.923485,82.40265,57,80,0
81.923485,82.40265,54,80,0
82.423485,82.90265,57,80,0
82.423485,82.90265,54,80,0
82.923485,83.90265,57,80,0
82.923485,83.90265,54,80,0
83.923485,84.40265,62,80,0
83.923485,84.40265,54,80,0
84.423485,84.90265,62,80,0
84.423485,84.90265,54,80,0
84.923485,85.90265,62,80,0
84.923485,85.90265,59,80,0
85.923485,86.40265,62,83,0
85.923485,86.40265,59,83,0
86.423485,86.90265,62,85,0
86.423485,86.90265,59,85,0
86.923485,87.90265,62,87,0
86.923485,87.90265,59,87,0
87.923485,88.40265,67,90,0
87.923485,88.40265,59,90,0
88.423485,88.90265,67,92,0
88.423485,88.90265,59,92,0
88.923485,89.85206,67,94,0
88.923485,89.85206,64,94,0
89.86991,90.25607,67,97,0
89.86991,90.25607,64,97,0
90.2717,90.62239,67,99,0
90.2717,90.62239,64,99,0
90.636284,91.25712,72,101,0
90.636284,91.25712,64,101,0
91.269615,91.537796,72,104,0
91.269615,91.537796,64,104,0
91.549164,91.80011,72,106,0
91.549164,91.80011,64,106,0
91.810524,92.27687,72,108,0
91.810524,92.27687,69,108,0
92.28648,92.491844,72,112,0
92.28648,92.491844,69,112,0
92.50077,92.69601,72,113,0
92.50077,92.69601,69,113,0
92.704346,93.075485,77,115,0
92.704346,93.075485,69,115,0
93.08283,93.25195,77,119,0
93.08283,93.25195,69,119,0
93.08283,93.25195,74,119,0
93.25931,93.41903,77,120,0
93.25931,93.41903,74,120,0
93.25931,93.41903,69,120,0
93.42597,93.75236,81,120,0
93.42597,93.75236,76,120,0
93.42597,93.75236,73,120,0
93.42597,93.75236,69,120,0
93.75931,93.91903,81,120,0
93.75931,93.91903,76,120,0
93.75931,93.91903,73,120,0
93.75931,93.91903,69,120,0
93.92597,94.08569,81,120,0
93.92597,94.08569,76,120,0
93.92597,94.08569,73,120,0
93.92597,94.08569,69,120,0
94.092636,94.41903,81,120,0
94.092636,94.41903,76,120,0
94.092636,94.41903,73,120,0
94.092636,94.41903,69,120,0
94.42597,94.58569,81,120,0
94.42597,94.58569,76,120,0
94.42597,94.58569,73,120,0
94.42597,94.58569,69,120,0
94.592636,94.75236,81,120,0
94.592636,94.75236,76,120,0
94.592636,94.75236,73,120,0
94.592636,94.75236,69,120,0
94.75931,95.08569,81,120,0
94.75931,95.08569,76,120,0
94.75931,95.08569,73,120,0
94.75931,95.08569,69,120,0
95.092636,95.258896,81,120,0
95.092636,95.258896,69,120,0
95.26625,95.43536,81,120,0
95.26625,95.43536,69,120,0
95.44272,95.803474,81,120,0
95.44272,95.803474,69,120,0
95.81129,95.99201,81,113,0
95.81129,95.99201,69,113,0
96.00035,96.19202,81,110,0
96.00035,96.19202,69,110,0
96.20035,96.603325,81,106,0
96.20035,96.603325,69,106,0
96.61225,96.81761,81,99,0
96.61225,96.81761,69,99,0
96.82654,97.04014,81,95,0
96.82654,97.04014,69,95,0
97.04975,97.505684,81,92,0
97.04975,97.505684,69,92,0
97.5161,97.755684,81,84,0
97.5161,97.755684,69,84,0
97.7661,98.005684,81,81,0
97.7661,98.005684,69,81,0
98.0161,98.11193,81,70,0
98.0661,98.161934,82,70,0
98.1161,98.21193,81,70,0
98.1661,98.26193,82,70,0
98.216095,98.31193,81,70,0
98.2661,98.36193,82,70,0
98.3161,98.411934,81,70,0
98.3661,98.46193,82,70,0
98.4161,98.51193,81,70,0
98.466095,98.54943,82,70,0
98.5161,98.599434,81,70,0
98.5661,98.64943,82,70,0
98.6161,98.69943,81,70,0
98.6661,98.74943,82,70,0
98.716095,98.79943,81,70,0
98.7661,98.849434,82,70,0
98.8161,98.89943,81,70,0
98.8661,98.94943,82,70,0
98.9161,98.99943,81,70,0
98.966095,99.04943,82,70,0
99.0161,99.099434,81,70,0
99.0661,99.14943,82,70,0
99.1161,99.19943,81,70,0
99.1661,99.24943,82,70,0
99.216095,99.29943,81,70,0
99.2661,99.349434,82,70,0
99.3161,99.39943,81,70,0
99.3661,99.44943,82,70,0
99.4161,99.49943,81,70,0
99.466095,99.54943,82,70,0
99.5161,99.599434,81,70,0
99.5661,99.64943,82,70,0
99.6161,99.69943,84,70,0
99.6661,99.74943,86,70,0
99.716095,99.79943,84,70,0
99.7661,99.849434,86,70,0
99.8161,99.89943,84,70,0
99.8661,99.94943,86,70,0
99.9161,99.99943,84,70,0
99.966095,100.04943,86,70,0
100.0161,100.099434,84,70,0
100.0661,100.14943,86,70,0
100.1161,100.19943,84,70,0
100.1661,100.24943,86,70,0
100.216095,100.29943,84,70,0
100.2661,100.349434,86,70,0
100.3161,100.39943,84,70,0
100.3661,100.44943,86,70,0
100.4161,100.49943,84,71,0
100.466095,100.54943,86,73,0
100.5161,100.599434,84,75,0
100.5661,100.64943,86,77,0
100.6161,100.69943,84,78,0
100.6661,100.74943,86,80,0
100.716095,100.79943,84,82,0
100.7661,100.849434,86,84,0
100.8161,100.89943,89,85,0
100.8661,100.94943,91,87,0
100.9161,100.99943,89,89,0
100.966095,101.04943,91,91,0
101.0161,101.099434,89,93,0
101.0661,101.14943,91,94,0
101.1161,101.19943,89,96,0
101.1661,101.24943,91,98,0
101.216095,101.29943,89,100,0
101.2661,101.349434,91,101,0
101.3161,101.39943,89,103,0
101.3661,101.44943,91,105,0
101.4161,101.49943,89,107,0
101.466095,101.54943,91,109,0
101.5161,101.599434,89,110,0
101.5661,101.64943,91,110,0
101.6161,101.71193,89,110,0
101.716095,101.81193,87,110,0
101.8161,101.911934,86,110,0
101.9161,102.01193,84,110,0
102.0161,102.11193,82,120,0
102.1161,102.21193,81,120,0
102.216095,102.31193,79,120,0
102.3161,102.411934,77,120,0
102.4161,102.51193,75,120,0
102.5161,102.61193,74,120,0
102.6161,102.71193,72,120,0
102.716095,102.81193,77,120,0
102.8161,103.01193,70,120,0
102.8161,103.01193,65,120,0
102.8161,103.01193,62,120,0
102.8161,103.01193,58,120,0
103.4161,103.51193,67,80,0
103.5161,103.61193,65,80,0
103.6161,103.71193,63,80,0
103.716095,103.81193,62,80,0
103.8161,103.911934,60,80,0
103.9161,104.01193,58,80,0
104.0161,104.11193,57,80,0
104.1161,104.21193,58,80,0
104.216095,104.31193,57,80,0
104.3161,104.411934,55,80,0
104.4161,104.51193,53,80,0
104.5161,104.61193,55,80,0
104.6161,104.71193,53,80,0
104.716095,104.81193,51,80,0
104.8161,104.911934,50,80,0
104.9161,105.01193,51,80,0
105.0161,105.11193,50,80,0
105.1161,105.21193,48,80,0
105.216095,105.61193,46,80,0
116.0161,116.21193,58,109,0
116.4161,116.51193,76,110,0
116.466095,116.56193,77,110,0
116.5161,116.61193,76,110,0
116.5661,116.661934,77,110,0
116.6161,116.71193,76,110,0
116.6661,116.76193,77,110,0
116.716095,116.81193,76,110,0
116.7661,116.86193,77,110,0
116.8161,116.911934,76,110,0
116.8661,116.96193,77,110,0
116.9161,117.01193,76,110,0
116.966095,117.06193,77,110,0
117.0161,117.11193,76,110,0
117.0661,117.161934,77,110,0
117.1161,117.21193,74,110,0
117.1661,117.21193,76,110,0
117.216095,117.61193,77,110,0
117.8161,117.911934,77,80,0
117.9161,118.01193,76,80,0
118.0161,118.11193,74,80,0
118.1161,118.21193,72,80,0
118.216095,118.31193,70,80,0
118.3161,118.411934,69,80,0
118.4161,118.81193,74,80,0
119.0161,119.11193,74,80,0
119.1161,119.21193,72,80,0
119.216095,119.31193,70,80,0
119.3161,119.411934,69,80,0
119.4161,119.51193,67,80,0
119.5161,119.61193,65,80,0
119.6161,120.01193,70,80,0
120.216095,120.31193,70,80,0
120.3161,120.411934,69,80,0
120.4161,120.51193,67,80,0
120.5161,120.61193,69,80,0
120.6161,120.71193,67,80,0
120.716095,120.81193,65,80,0
120.8161,120.911934,64,80,0
120.9161,121.01193,65,80,0
121.0161,121.11193,64,80,0
121.1161,121.21193,62,80,0
121.216095,121.31193,60,80,0
121.3161,121.411934,62,80,0
121.4161,121.51193,64,80,0
121.5161,121.61193,65,80,0
121.6161,121.71193,66,80,0
121.716095,121.81193,67,80,0
121.8161,121.911934,69,80,0
121.9161,122.01193,67,80,0
122.0161,122.11193,65,80,0
122.1161,122.21193,67,80,0
122.216095,122.31193,69,80,0
122.3161,122.411934,70,80,0
122.4161,122.51193,71,80,0
122.5161,122.61193,72,80,0
122.6161,122.71193,74,80,0
122.716095,122.81193,72,80,0
122.8161,122.911934,70,80,0
122.9161,123.01193,69,80,0
123.0161,123.11193,67,80,0
123.1161,123.21193,65,80,0
123.216095,123.31193,64,80,0
123.3161,123.411934,65,80,0
123.4161,123.51193,64,81,0
123.5161,123.61193,62,82,0
123.6161,123.71193,60,83,0
123.716095,123.81193,62,84,0
123.8161,123.911934,64,85,0
123.9161,124.01193,65,86,0
124.0161,124.11193,66,87,0
124.1161,124.21193,67,87,0
124.216095,124.31193,69,88,0
124.3161,124.411934,65,89,0
124.4161,124.51193,64,90,0
124.5161,124.61193,65,91,0
124.6161,124.71193,72,92,0
124.716095,124.81193,70,93,0
124.8161,124.911934,69,94,0
124.9161,125.01193,70,95,0
125.0161,125.11193,72,95,0
125.1161,125.21193,70,96,0
125.216095,125.31193,68,97,0
125.3161,125.411934,69,98,0
125.4161,125.51193,70,99,0
125.5161,125.61193,69,100,0
125.6161,125.71193,67,101,0
125.716095,125.81193,68,102,0
125.8161,125.911934,75,103,0
125.9161,126.01193,74,103,0
126.0161,126.11193,72,104,0
126.1161,126.21193,73,105,0
126.216095,126.31193,74,106,0
126.3161,126.411934,73,107,0
126.4161,126.51193,71,108,0
126.5161,126.61193,72,109,0
126.6161,126.71193,74,110,0
126.716095,126.81193,72,110,0
126.8161,126.911934,68,110,0
126.9161,127.01193,69,110,0
127.0161,127.11193,70,110,0
127.1161,127.21193,69,110,0
127.216095,127.31193,64,110,0
127.3161,127.411934,65,110,0
127.4161,127.51193,67,110,0
126.8161,127.61193,63,110,0
127.5161,127.61193,65,110,0
127.6161,127.71193,71,110,0
127.716095,127.81193,72,110,0
127.8161,127.911934,74,110,0
127.9161,128.01193,72,110,0
127.6161,128.21193,65,110,0
128.2161,128.41193,62,101,0
128.6161,128.81194,69,80,0
128.41609,129.01193,74,100,0
128.8161,129.21193,70,80,0
129.41609,129.61192,58,80,0
129.8161,130.01193,66,80,0
129.6161,130.21193,70,101,0
130.0161,130.41193,67,80,0
130.6161,130.81194,67,80,0
130.8161,131.01193,79,80,0
131.0161,131.21193,77,80,0
131.0161,131.21193,70,80,0
131.2161,131.41193,75,80,0
131.2161,131.41193,72,80,0
131.41609,131.61192,67,80,0
131.41609,131.61192,76,80,0
131.6161,131.81194,77,80,0
131.6161,131.81194,72,80,0
131.8161,132.01193,65,80,0
132.0161,132.21193,72,80,0
132.2161,132.41193,67,80,0
132.0161,132.61192,75,100,0
132.6161,132.81194,75,80,0
132.41609,133.01193,65,80,0
132.8161,133.01193,75,80,0
133.0161,133.21193,74,80,0
133.0161,133.21193,65,80,0
133.2161,133.41193,72,80,0
133.2161,133.41193,63,80,0
133.41609,133.61192,70,80,0
133.41609,133.61192,62,80,0
133.6161,133.81194,69,80,0
133.6161,133.81194,60,80,0
133.8161,134.01193,70,80,0
133.8161,134.01193,62,80,0
134.0161,134.21193,65,80,0
134.2161,134.41193,70,80,0
134.41609,134.61192,72,80,0
134.6161,134.81194,66,80,0
134.41609,135.01193,63,101,0
134.8161,135.21193,65,80,0
135.0161,135.21193,62,80,0
135.2161,135.41193,80,80,0
135.41609,135.61192,70,80,0
135.6161,135.81194,76,80,0
135.6161,136.21193,79,100,0
135.8161,136.41193,70,80,0
136.2161,136.41193,77,80,0
136.41609,136.61192,72,80,0
136.6161,136.81194,76,80,0
136.8161,137.01193,79,80,0
137.0161,137.21193,73,80,0
136.8161,137.41193,70,100,0
137.2161,137.61192,72,80,0
137.41609,137.61192,69,80,0
137.6161,137.81194,89,80,0
137.8161,138.01193,81,80,0
138.0161,138.21193,84,80,0
138.2161,138.41193,78,80,0
138.0161,138.61192,87,100,0
138.41609,138.81194,77,80,0
138.6161,138.81194,86,80,0
138.8161,139.01193,92,80,0
139.0161,139.21193,82,80,0
139.2161,139.41193,88,80,0
139.2161,139.81194,91,100,0
139.41609,139.81194,82,80,0
139.8161,140.01193,86,80,0
139.8161,140.21193,89,80,0
140.0161,140.21193,83,80,0
140.2161,140.41193,79,80,0
140.2161,140.61192,89,80,0
140.41609,140.61192,84,80,0
140.6161,140.81194,79,80,0
140.6161,140.81194,88,80,0
140.8161,141.01193,84,80,0
141.0161,141.41193,77,80,0
140.8161,141.41193,87,80,0
141.41609,141.61192,86,80,0
141.6161,141.81194,85,80,0
141.8161,141.91193,70,80,0
141.8161,142.11192,74,80,0
142.1161,142.21193,79,80,0
142.2161,142.31194,82,80,0
142.3161,142.41193,86,80,0
142.41609,142.61192,86,80,0
142.6161,142.71193,84,80,0
142.7161,142.81194,82,80,0
142.8161,142.91193,81,80,0
142.91609,143.01193,82,80,0
143.0161,143.11192,84,80,0
143.1161,143.21193,82,80,0
143.2161,143.31194,81,80,0
143.3161,143.41193,79,80,0
143.41609,143.51193,81,80,0
143.5161,143.61192,82,80,0
143.6161,143.71193,84,80,0
143.7161,143.81194,82,80,0
143.8161,143.91193,81,80,0
143.91609,144.01193,79,80,0
144.0161,144.11192,77,80,0
144.1161,144.21193,79,80,0
144.2161,144.31194,77,80,0
144.3161,144.41193,75,80,0
144.41609,144.51193,74,80,0
144.5161,144.61192,85,80,0
144.6161,144.71193,86,80,0
144.7161,144.81194,85,80,0
144.8161,145.01193,87,80,0
145.0161,145.11192,86,80,0
145.1161,145.21193,84,80,0
145.2161,145.31194,83,80,0
145.3161,145.41193,84,80,0
145.41609,145.51193,86,80,0
145.5161,145.61192,84,80,0
145.6161,145.71193,83,80,0
145.7161,145.81194,81,80,0
145.8161,145.91193,83,80,0
145.91609,146.01193,84,80,0
146.0161,146.11192,86,80,0
146.1161,146.21193,84,80,0
146.2161,146.31194,83,80,0
146.3161,146.41193,80,80,0
146.41609,146.51193,79,80,0
146.5161,146.61192,80,80,0
146.6161,146.71193,79,80,0
146.7161,146.81194,77,80,0
146.8161,146.91193,67,80,0
146.91609,147.01193,71,80,0
147.0161,147.11192,72,80,0
146.8161,147.21193,75,80,0
147.1161,147.21193,73,80,0
147.2161,147.31194,75,80,0
147.3161,147.41193,73,80,0
147.41609,147.51193,72,80,0
147.5161,147.61192,70,80,0
147.6161,147.71193,68,80,0
147.7161,147.81194,70,80,0
147.8161,147.91193,68,80,0
147.91609,148.01193,66,80,0
147.6161,148.21193,75,100,0
148.2161,148.31194,73,80,0
148.0161,148.41193,65,80,0
148.3161,148.41193,75,80,0
148.41609,148.51193,77,80,0
148.5161,148.61192,78,80,0
148.6161,148.71193,77,80,0
148.7161,148.81194,75,80,0
148.8161,148.91193,73,80,0
148.91609,149.01193,72,80,0
149.0161,149.11192,70,80,0
149.1161,149.21193,68,80,0
149.2161,149.31194,61,80,0
149.3161,149.41193,63,80,0
149.41609,149.51193,64,80,0
149.5161,149.61192,65,80,0
149.2161,149.71193,73,80,0
149.7161,149.81194,75,80,0
149.8161,149.91193,73,80,0
149.6161,150.01193,66,80,0
149.91609,150.01193,72,80,0
150.0161,150.11192,70,80,0
150.1161,150.21193,68,80,0
150.2161,150.31194,67,80,0
150.3161,150.41193,65,80,0
150.41609,150.51193,58,80,0
150.5161,150.61192,60,80,0
150.6161,150.71193,61,80,0
150.41609,150.81194,70,80,0
150.7161,150.81194,62,80,0
150.8161,150.91193,63,80,0
150.91609,151.01193,62,80,0
151.0161,151.11192,63,80,0
151.1161,151.21193,65,80,0
150.8161,151.41193,70,80,0
151.2161,151.41193,66,80,0
151.41609,151.61192,67,80,0
151.41609,151.61192,70,80,0
151.6161,151.81194,68,80,0
151.6161,151.81194,72,80,0
151.8161,152.01193,73,80,0
152.0161,152.61192,75,100,0
152.0161,152.61192,66,101,0
152.6161,152.81194,75,80,0
152.6161,152.81194,66,80,0
152.8161,153.01193,75,80,0
152.8161,153.01193,66,80,0
153.0161,153.21193,73,80,0
153.0161,153.21193,65,80,0
153.2161,153.41193,72,80,0
153.2161,153.41193,63,80,0
153.41609,153.61192,73,80,0
153.41609,153.61192,61,80,0
153.6161,153.81194,63,80,0
153.6161,153.81194,60,80,0
153.8161,153.91193,65,80,0
153.8161,154.01193,61,80,0
153.91609,154.01193,66,80,0
154.0161,154.11192,68,80,0
154.0161,154.21193,60,80,0
154.1161,154.21193,70,80,0
154.2161,154.31194,72,80,0
154.2161,154.41193,63,80,0
154.3161,154.41193,73,80,0
154.41609,154.51193,74,80,0
154.5161,154.61192,75,80,0
154.6161,154.71193,77,80,0
154.7161,154.81194,75,80,0
154.8161,154.91193,73,80,0
154.91609,155.01193,72,80,0
155.0161,155.11192,70,80,0
155.1161,155.21193,68,80,0
155.2161,155.31194,73,80,0
155.3161,155.41193,75,80,0
155.41609,155.51193,77,80,0
155.5161,155.61192,78,80,0
155.6161,155.71193,79,80,0
155.7161,155.81194,80,80,0
155.8161,155.91193,82,80,0
155.91609,156.01193,80,80,0
156.0161,156.11192,78,80,0
156.1161,156.21193,77,80,0
156.2161,156.31194,75,80,0
156.3161,156.41193,73,80,0
156.41609,156.61192,68,80,0
156.8161,156.91193,56,80,0
156.91609,157.01193,58,80,0
157.0161,157.11192,60,80,0
157.1161,157.21193,61,80,0
157.2161,157.31194,62,80,0
156.8161,157.41193,66,80,0
157.3161,157.41193,63,80,0
157.41609,157.51193,60,80,0
157.41609,157.61192,65,80,0
157.5161,157.61192,61,80,0
157.6161,157.71193,64,80,0
157.7161,157.81194,65,80,0
157.8161,157.91193,66,80,0
157.6161,158.01193,70,80,0
157.91609,158.01193,65,80,0
158.0161,158.11192,62,80,0
158.1161,158.21193,63,80,0
158.2161,158.31194,67,80,0
158.3161,158.41193,68,80,0
158.41609,158.51193,66,80,0
158.5161,158.61192,67,80,0
158.6161,158.71193,68,80,0
158.7161,158.81194,67,80,0
158.8161,158.91193,69,80,0
158.8161,159.01193,73,100,0
158.91609,159.01193,70,80,0
159.0161,159.11192,72,80,0
159.1161,159.21193,70,80,0
159.2161,159.31194,67,80,0
159.3161,159.41193,68,80,0
159.41609,159.51193,70,80,0
159.5161,159.61192,68,80,0
159.6161,159.71193,66,80,0
159.2161,159.81194,72,103,0
159.7161,159.81194,67,80,0
159.8161,159.91193,68,80,0
159.8161,160.01193,70,80,0
159.91609,160.01193,67,80,0
160.0161,160.11192,69,80,0
160.1161,160.21193,70,80,0
160.2161,160.31194,72,80,0
160.0161,160.41193,75,80,0
160.3161,160.41193,70,80,0
160.41609,160.51193,68,80,0
160.5161,160.61192,70,80,0
160.6161,160.71193,72,80,0
160.7161,160.81194,73,80,0
160.8161,160.91193,72,80,0
160.91609,161.01193,73,80,0
161.0161,161.11192,71,80,0
161.1161,161.21193,72,80,0
161.2161,161.31194,71,80,0
161.2161,161.41193,77,102,0
161.3161,161.41193,72,80,0
161.41609,161.51193,73,80,0
161.5161,161.61192,72,80,0
161.6161,161.71193,69,80,0
161.6161,161.81194,77,101,0
161.7161,161.81194,70,80,0
161.8161,161.91193,72,80,0
161.8161,162.01193,75,80,0
161.91609,162.01193,70,80,0
162.0161,162.11192,62,80,0
162.1161,162.21193,63,80,0
162.2161,162.31194,65,80,0
162.3161,162.41193,63,80,0
162.41609,162.51193,67,80,0
162.41609,162.61192,73,80,0
162.5161,162.61192,68,80,0
162.6161,162.71193,70,80,0
162.7161,162.81194,68,80,0
162.8161,162.91193,67,80,0
162.8161,163.01193,73,80,0
162.91609,163.01193,68,80,0
163.0161,163.11192,70,80,0
163.0161,163.21193,72,80,0
163.1161,163.21193,68,80,0
163.2161,163.31194,67,80,0
163.3161,163.41193,68,80,0
163.41609,163.51193,70,80,0
163.41609,163.61192,73,80,0
163.5161,163.61192,71,80,0
163.6161,163.71193,91,100,0
163.66609,163.76193,92,100,0
163.7161,163.81194,91,100,0
163.7661,163.86192,92,100,0
163.8161,163.91193,91,100,0
163.8661,163.96193,92,100,0
163.91609,164.01193,91,100,0
163.9661,164.06194,92,100,0
164.0161,164.11192,91,100,0
164.0661,164.16193,92,100,0
164.1161,164.21193,91,100,0
164.16609,164.26193,92,100,0
164.2161,164.31194,91,100,0
164.2661,164.36192,92,100,0
164.3161,164.41193,89,100,0
164.3661,164.41193,91,100,0
164.41609,164.81194,92,100,0
165.0161,165.11192,92,80,0
165.1161,165.21193,91,80,0
165.2161,165.31194,89,80,0
165.3161,165.41193,87,80,0
165.41609,165.51193,85,80,0
165.5161,165.61192,84,80,0
165.6161,166.01193,89,80,0
166.2161,166.31194,89,80,0
166.3161,166.41193,87,80,0
166.41609,166.51193,85,80,0
166.5161,166.61192,84,80,0
166.6161,166.71193,82,80,0
166.7161,166.81194,80,80,0
166.8161,167.21193,85,80,0
167.41609,167.51193,85,80,0
167.41609,167.61192,75,80,0
167.5161,167.61192,84,80,0
167.6161,167.71193,82,80,0
167.6161,167.81194,73,80,0
167.7161,167.81194,84,80,0
167.8161,167.91193,82,80,0
167.8161,168.01193,70,80,0
167.91609,168.01193,80,80,0
168.0161,168.11192,79,80,0
168.0161,168.21193,70,80,0
168.1161,168.21193,80,80,0
168.2161,168.31194,79,80,0
168.3161,168.41193,77,80,0
168.41609,168.51193,75,80,0
168.5161,168.61192,77,80,0
168.6161,168.71193,79,80,0
168.7161,168.81194,80,80,0
168.8161,168.91193,81,80,0
168.91609,169.01193,82,80,0
169.0161,169.11192,84,80,0
169.1161,169.21193,82,80,0
169.2161,169.31194,80,80,0
169.3161,169.41193,82,80,0
169.41609,169.51193,84,80,0
169.5161,169.61192,85,80,0
169.6161,169.71193,85,80,0
169.7161,169.81194,87,80,0
169.8161,169.91193,89,80,0
169.91609,170.01193,87,80,0
170.0161,170.11192,85,80,0
170.1161,170.21193,84,80,0
170.2161,170.31194,82,80,0
170.3161,170.41193,80,80,0
170.41609,170.61192,82,80,0
170.41609,170.61192,73,80,0
170.8161,171.41193,70,94,0
170.8161,171.41193,73,92,0
171.41609,171.61192,73,80,0
171.41609,171.61192,65,80,0
171.6161,171.81194,65,80,0
171.6161,171.81194,73,80,0
171.8161,172.01193,72,80,0
171.8161,172.01193,63,80,0
172.0161,172.21193,70,80,0
172.0161,172.21193,61,80,0
172.2161,172.41193,68,80,0
172.2161,172.41193,60,80,0
172.41609,172.61192,67,80,0
172.41609,172.61192,58,80,0
172.6161,172.81194,68,80,0
172.6161,172.81194,60,80,0
172.8161,172.91193,68,80,0
172.91609,173.01193,70,80,0
173.0161,173.11192,72,80,0
173.1161,173.21193,73,80,0
173.2161,173.31194,75,80,0
173.3161,173.41193,77,80,0
173.41609,173.51193,78,80,0
173.5161,173.61192,77,80,0
173.6161,173.71193,75,80,0
173.7161,173.81194,73,80,0
173.8161,173.91193,72,80,0
173.91609,174.01193,70,80,0
174.0161,174.21193,75,90,0
174.0161,174.21193,66,92,0
174.2161,174.41193,73,80,0
174.2161,174.41193,65,80,0
174.41609,174.61192,72,80,0
174.41609,174.61192,63,80,0
174.6161,174.81194,70,80,0
174.6161,174.81194,61,80,0
174.8161,175.01193,69,80,0
174.8161,175.01193,60,80,0
175.0161,175.21193,70,80,0
175.0161,175.21193,61,80,0
177.6161,177.81194,75,100,0
177.6161,177.81194,71,100,0
177.8161,178.01193,73,90,0
177.8161,178.01193,70,90,0
178.0161,178.21193,71,80,0
178.0161,178.21193,68,80,0
178.2161,178.41193,70,80,0
178.2161,178.41193,66,80,0
178.41609,178.61192,68,80,0
178.41609,178.61192,65,80,0
178.6161,178.81194,70,80,0
178.6161,178.81194,66,80,0
178.8161,179.01193,85,110,0
178.8161,179.01193,76,110,0
179.0161,179.21193,83,90,0
179.0161,179.21193,75,90,0
179.2161,179.41193,82,80,0
179.2161,179.41193,73,80,0
179.41609,179.61192,80,80,0
179.41609,179.61192,71,80,0
179.6161,179.81194,79,80,0
179.6161,179.81194,70,80,0
179.8161,180.21193,71,83,0
179.8161,180.21193,80,83,0
180.2161,180.61192,83,91,0
180.2161,180.61192,80,91,0
180.6161,180.81194,82,99,0
180.6161,180.81194,79,99,0
180.8161,181.41193,76,110,0
180.8161,181.41193,73,110,0
181.41609,181.81194,76,110,0
181.41609,181.81194,73,110,0
181.8161,182.01193,75,110,0
181.8161,182.01193,71,110,0
182.0161,182.21193,73,110,0
182.0161,182.21193,70,110,0
182.2161,182.41193,71,110,0
182.2161,182.41193,68,110,0
182.41609,182.61192,70,110,0
182.41609,182.61192,67,110,0
182.6161,182.81194,71,110,0
182.6161,182.81194,68,110,0
182.8161,183.01193,73,110,0
182.8161,183.01193,70,110,0
183.0161,183.41193,71,110,0
183.0161,183.41193,75,110,0
183.41609,183.61192,75,110,0
183.41609,183.61192,71,110,0
183.6161,184.21193,75,110,0
183.6161,184.21193,71,110,0
184.2161,184.61192,70,110,0
184.2161,184.61192,73,110,0
184.6161,184.81194,71,110,0
184.6161,184.81194,68,110,0
184.8161,185.01193,70,110,0
184.8161,185.01193,66,110,0
185.0161,185.21193,68,110,0
185.0161,185.21193,65,110,0
185.2161,185.41193,70,110,0
185.2161,185.41193,66,110,0
185.41609,185.61192,71,110,0
185.41609,185.61192,68,110,0
185.6161,185.81194,73,110,0
185.6161,185.81194,66,110,0
185.8161,186.01193,66,105,0
185.8161,186.21193,75,105,0
186.0161,186.21193,65,100,0
186.2161,186.41193,66,94,0
186.41609,186.51877,68,89,0
186.2161,186.62592,73,94,0
186.52324,186.62592,66,86,0
186.63039,186.74097,65,83,0
186.63039,186.85634,73,83,0
186.74577,186.85634,68,81,0
186.86115,186.97173,73,80,0
186.86115,187.08711,70,80,0
186.97653,187.08711,58,80,0
187.09192,187.1946,61,80,0
187.19907,187.30174,63,80,0
187.30621,187.50204,70,80,0
187.4062,187.50204,66,80,0
187.50621,187.60204,65,80,0
187.50621,187.70204,71,80,0
187.6062,187.70204,63,80,0
187.7062,187.90204,65,80,0
187.9062,188.00204,66,80,0
187.7062,188.10204,73,80,0
188.00621,188.10204,68,80,0
188.1062,188.50204,70,80,0
188.6062,188.70204,78,80,0
188.7062,188.80203,77,80,0
188.80621,188.90204,75,80,0
188.9062,189.10204,77,80,0
189.1062,189.20204,78,80,0
189.30621,189.40204,77,80,0
189.4062,189.50204,65,80,0
189.50621,189.60204,68,81,0
189.6062,189.70204,73,82,0
189.2062,189.80203,80,80,0
189.7062,189.90204,77,84,0
189.80621,189.90204,89,85,0
189.9062,190.00204,87,86,0
189.9062,190.10204,78,86,0
190.00621,190.10204,85,88,0
190.1062,190.30203,84,89,0
190.30621,190.40204,85,92,0
190.1062,190.50204,80,89,0
190.4062,190.50204,87,93,0
190.50621,190.90204,80,94,0
190.50621,191.00204,77,94,0
191.00621,191.10204,77,101,0
191.1062,191.20204,75,102,0
191.2062,191.30203,73,104,0
191.30621,191.40204,72,105,0
191.4062,191.50204,70,106,0
191.50621,191.60204,68,108,0
191.6062,191.70204,66,109,0
191.7062,191.90204,65,110,0
191.7062,191.90204,77,110,0
191.9062,192.10204,78,110,0
192.2062,192.30203,68,110,0
192.30621,192.40204,70,110,0
192.4062,192.50204,72,110,0
192.1062,192.60204,80,127,0
192.50621,192.70204,74,110,0
192.6062,192.70204,77,110,0
192.7062,192.80203,75,110,0
192.80621,192.90204,74,110,0
192.7062,193.00204,70,110,0
193.00621,193.10204,54,110,0
193.1062,193.20204,58,110,0
192.9062,193.30203,75,110,0
193.2062,193.30203,63,110,0
193.30621,193.50204,66,110,0
193.4062,193.50204,90,110,0
193.50621,193.60204,89,110,0
193.50621,193.70204,68,110,0
193.6062,193.70204,87,110,0
193.7062,193.80203,86,110,0
193.80621,193.90204,83,110,0
193.9062,194.00204,82,110,0
194.00621,194.10204,80,110,0
193.7062,194.30203,70,127,0
194.1062,194.50204,78,110,0
194.30621,194.70204,66,110,0
194.6062,194.70204,78,110,0
194.7062,194.80203,77,110,0
194.80621,194.90204,75,110,0
194.9062,195.00204,74,110,0
195.00621,195.10204,71,110,0
195.1062,195.20204,70,110,0
195.2062,195.30203,68,110,0
195.30621,195.50204,78,110,0
195.50621,195.70204,80,110,0
195.7062,196.20204,82,127,0
196.2062,196.30203,79,110,0
196.30621,196.40204,77,110,0
196.4062,196.50204,75,110,0
196.50621,196.60204,87,110,0
196.6062,196.70204,83,110,0
196.7062,196.80203,82,110,0
196.80621,196.90204,80,110,0
196.9062,197.00204,92,110,0
197.00621,197.10204,89,110,0
197.1062,197.20204,87,110,0
197.2062,197.30203,86,110,0
197.30621,197.80203,92,110,0
197.80621,197.90204,80,110,0
197.9062,198.00204,78,110,0
198.00621,198.10204,77,110,0
198.1062,198.20204,80,110,0
198.2062,198.30203,77,110,0
198.30621,198.40204,75,110,0
198.4062,198.50204,74,110,0
198.50621,198.60204,77,110,0
198.6062,198.70204,70,110,0
198.7062,198.80203,69,110,0
198.80621,198.90204,70,110,0
198.9062,199.00204,82,110,0
199.00621,199.10204,77,110,0
199.1062,199.20204,76,110,0
199.2062,199.30203,77,110,0
199.30621,199.40204,89,110,0
199.4062,199.50204,82,110,0
199.50621,199.60204,81,110,0
199.6062,199.70204,82,110,0
199.7062,199.80203,94,110,0
199.80621,199.90204,92,110,0
199.9062,200.00204,90,110,0
200.00621,200.10204,89,110,0
200.1062,200.50204,90,110,0
200.50621,200.90204,47,110,0
200.9062,201.70204,59,127,0
201.7062,201.90204,86,110,0
202.1062,202.90204,87,110,0
202.9062,203.30203,44,110,0
203.30621,204.10204,56,126,0
204.1062,204.30203,82,110,0
204.50621,205.30203,83,110,0
205.30621,205.70204,41,110,0
205.7062,206.50204,53,124,0
206.50621,206.90204,82,110,0
206.9062,207.70204,83,110,0
207.7062,208.10204,82,110,0
208.1062,209.30203,80,110,0
209.30621,209.90204,92,126,0
210.1062,210.30203,90,110,0
210.50621,210.70204,89,110,0
210.9062,211.10204,87,110,0
211.30621,211.50204,86,110,0
211.7062,211.90204,68,110,0
211.7062,211.90204,65,110,0
211.9062,212.10204,66,110,0
211.9062,212.10204,63,110,0
212.1062,212.30203,65,110,0
212.1062,212.30203,56,110,0
212.30621,212.50204,66,110,0
212.30621,212.50204,58,110,0
212.50621,212.70204,65,110,0
212.50621,212.70204,56,110,0
212.7062,212.90204,63,110,0
212.7062,212.90204,54,110,0
212.9062,213.10204,62,110,0
212.9062,213.10204,53,110,0
213.1062,213.30203,63,110,0
213.1062,213.30203,54,110,0
213.30621,213.50204,65,110,0
213.30621,213.50204,62,110,0
213.50621,213.70204,66,110,0
213.50621,213.70204,63,110,0
213.7062,213.90204,68,110,0
213.7062,213.90204,65,110,0
213.9062,214.10204,70,110,0
213.9062,214.10204,66,110,0
214.1062,214.30203,72,110,0
214.1062,214.30203,63,110,0
214.30621,214.50204,74,110,0
214.30621,214.50204,65,110,0
214.50621,214.70204,75,110,0
214.50621,214.70204,66,110,0
214.7062,214.90204,77,110,0
214.7062,214.90204,68,110,0
214.9062,215.10204,78,110,0
214.9062,215.10204,70,110,0
215.1062,215.30203,79,110,0
215.1062,215.30203,71,110,0
215.30621,215.50204,80,110,0
215.30621,215.50204,77,110,0
215.50621,215.70204,82,110,0
215.50621,215.70204,78,110,0
215.7062,215.90204,83,110,0
215.7062,215.90204,80,110,0
215.9062,216.10204,82,110,0
215.9062,216.10204,78,110,0
216.1062,216.30203,80,110,0
216.1062,216.30203,71,110,0
216.30621,216.50204,78,110,0
216.30621,216.50204,70,110,0
216.50621,216.70204,75,110,0
216.50621,216.70204,68,110,0
216.7062,216.90204,66,110,0
216.9062,217.10204,73,110,0
216.9062,217.10204,65,110,0
217.1062,217.30203,63,110,0
217.30621,217.50204,72,110,0
217.30621,217.50204,61,110,0
217.50621,217.70204,60,110,0
217.7062,217.90204,58,110,0
217.9062,218.10204,57,110,0
218.1062,218.30203,54,110,0
218.30621,218.50204,53,110,0
218.50621,218.70204,51,110,0
217.7062,218.90204,63,110,0
218.7062,218.90204,49,110,0
218.9062,219.00204,81,110,0
218.9562,219.05203,82,110,0
218.9062,219.10204,73,110,0
219.00621,219.10204,81,110,0
219.05621,219.15204,82,110,0
219.1062,219.20204,81,110,0
219.1562,219.25204,82,110,0
219.1062,219.30203,72,110,0
219.2062,219.30203,81,110,0
219.25621,219.35204,82,110,0
219.30621,219.38954,81,110,0
219.3562,219.45204,82,110,0
219.30621,219.50204,77,110,0
219.4062,219.50204,81,110,0
219.4562,219.55203,82,110,0
219.50621,219.60204,81,110,0
219.55621,219.65204,82,110,0
219.50621,219.70204,75,110,0
219.6062,219.70204,81,110,0
219.6562,219.75204,82,110,0
219.7062,219.80203,81,110,0
219.75621,219.85204,82,110,0
219.7062,219.90204,73,110,0
219.80621,219.90204,81,110,0
219.8562,219.95204,82,110,0
219.9062,220.00204,81,110,0
219.9562,220.05203,82,110,0
218.9062,220.10204,51,110,0
219.9062,220.10204,72,110,0
220.00621,220.10204,81,110,0
220.05621,220.15204,82,110,0
220.1062,220.20204,81,110,0
220.1562,220.25204,82,110,0
220.1062,220.30203,78,110,0
220.2062,220.30203,81,110,0
220.25621,220.35204,82,110,0
220.30621,220.40204,81,110,0
220.3562,220.45204,82,110,0
220.30621,220.50204,72,110,0
220.4062,220.50204,79,110,0
220.4562,220.55203,81,110,0
220.50621,220.60204,75,110,0
220.55621,220.65204,77,110,0
220.6062,220.70204,75,110,0
220.6562,220.75204,77,110,0
220.7062,220.80203,75,110,0
220.75621,220.85204,77,110,0
220.80621,220.90204,75,110,0
220.8562,220.95204,77,110,0
220.9062,221.00204,75,110,0
220.9562,221.05203,77,110,0
221.00621,221.10204,75,110,0
221.05621,221.15204,77,110,0
221.1062,221.20204,75,110,0
221.1562,221.25204,77,110,0
221.2062,221.30203,75,110,0
221.25621,221.35204,77,110,0
221.30621,221.40204,75,110,0
221.3562,221.45204,77,110,0
221.4062,221.50204,75,110,0
221.4562,221.55203,77,110,0
221.50621,221.60204,75,110,0
221.55621,221.65204,77,110,0
220.50621,221.70204,82,110,0
221.6062,221.70204,73,110,0
221.6562,221.73953,75,110,0
221.7062,221.90204,82,110,0
221.7062,221.90204,73,110,0
221.9062,222.10204,80,110,0
221.9062,222.10204,72,110,0
222.1062,222.30203,78,110,0
222.1062,222.30203,70,110,0
222.30621,222.50204,77,110,0
222.30621,222.50204,68,110,0
222.50621,222.70204,75,110,0
222.50621,222.70204,66,110,0
222.7062,222.90204,73,110,0
222.7062,222.90204,65,110,0
222.9062,223.10204,75,110,0
223.1062,223.30203,63,110,0
223.30621,223.50204,65,110,0
222.9062,223.70204,78,110,0
223.50621,223.70204,66,110,0
223.7062,223.90204,68,110,0
223.9062,224.30203,70,110,0
224.1062,224.30203,78,110,0
224.30621,224.50204,77,110,0
224.30621,224.50204,68,110,0
224.50621,224.70204,75,110,0
224.50621,224.70204,66,110,0
224.7062,224.90204,73,110,0
224.7062,224.90204,65,110,0
224.9062,225.00204,79,110,0
225.00621,225.10204,85,110,0
225.1062,225.20204,82,110,0
224.9062,225.30203,76,110,0
225.2062,225.30203,79,110,0
225.30621,225.40204,76,110,0
225.4062,225.50204,82,110,0
225.50621,225.60204,79,110,0
225.6062,225.70204,76,110,0
225.7062,225.80203,73,110,0
225.80621,225.90204,79,110,0
225.9062,226.00204,76,110,0
226.00621,226.10204,73,110,0
226.1062,226.20204,72,110,0
226.2062,226.30203,79,110,0
226.30621,226.40204,76,110,0
226.4062,226.50204,72,110,0
226.50621,226.60204,73,110,0
226.6062,226.70204,82,110,0
226.7062,226.80203,79,110,0
226.80621,226.90204,76,110,0
226.1062,227.30203,70,110,0
226.9062,227.30203,72,110,0
227.7062,228.50204,82,126,0
228.50621,228.58954,67,110,0
228.55621,228.63954,68,110,0
228.6062,228.68954,67,110,0
228.6562,228.73953,68,110,0
228.7062,228.78954,67,110,0
228.75621,228.83954,68,110,0
228.80621,228.88954,67,110,0
228.8562,228.93954,68,110,0
228.9062,228.98953,67,110,0
228.9562,229.03954,68,110,0
229.00621,229.08954,67,110,0
229.05621,229.13954,68,110,0
229.1062,229.18954,67,110,0
229.1562,229.23953,68,110,0
229.2062,229.28954,67,110,0
229.25621,229.33954,68,110,0
229.30621,229.38954,67,110,0
229.3562,229.43954,68,110,0
229.4062,229.48953,67,110,0
229.4562,229.53954,68,110,0
229.50621,229.58954,67,110,0
229.55621,229.63954,68,110,0
229.6062,229.68954,67,110,0
228.50621,229.70204,58,110,0
229.6562,229.73953,68,110,0
229.68121,229.87704,60,110,0
229.7062,230.10204,65,110,0
229.9062,230.90204,75,126,0
231.30621,232.10204,87,127,0
232.1062,232.18954,72,110,0
232.1562,232.23953,73,110,0
232.2062,232.28954,72,110,0
232.25621,232.33954,73,110,0
232.30621,232.38954,72,110,0
232.3562,232.43954,73,110,0
232.4062,232.48953,72,110,0
232.4562,232.53954,73,110,0
232.50621,232.58954,72,110,0
232.55621,232.63954,73,110,0
232.6062,232.68954,72,110,0
232.6562,232.73953,73,110,0
232.7062,232.78954,72,110,0
232.75621,232.83954,73,110,0
232.80621,232.88954,72,110,0
232.1062,232.90204,63,110,0
232.8562,232.93954,73,110,0
232.9062,232.98953,72,110,0
232.9562,233.03954,73,110,0
233.00621,233.08954,72,110,0
233.05621,233.13954,73,110,0
233.1062,233.18954,72,110,0
233.1562,233.23953,73,110,0
233.2062,233.28954,72,110,0
232.9062,233.30203,64,110,0
233.25621,233.33954,73,110,0
233.30621,233.50204,65,110,0
233.30621,233.70204,70,110,0
233.50621,234.50204,73,110,0
234.50621,235.70204,85,127,0
235.7062,235.78954,70,110,0
235.75621,235.83954,72,110,0
235.80621,235.88954,70,110,0
235.8562,235.93954,72,110,0
235.9062,235.98953,70,110,0
235.9562,236.03954,72,110,0
236.00621,236.08954,70,110,0
236.05621,236.13954,72,110,0
236.1062,236.18954,70,110,0
236.1562,236.23953,72,110,0
236.2062,236.28954,70,110,0
236.25621,236.33954,72,109,0
236.30621,236.38954,70,109,0
236.3562,236.43954,72,109,0
236.4062,236.48953,70,108,0
236.4562,236.53954,72,108,0
236.50621,236.58954,70,108,0
236.55621,236.63954,72,107,0
236.6062,236.68954,70,107,0
236.6562,236.73953,72,107,0
236.7062,236.78954,70,106,0
236.75621,236.83954,72,106,0
236.80621,236.88954,70,106,0
235.7062,236.90204,61,110,0
236.8562,236.93954,72,105,0
236.9062,236.98953,70,105,0
236.9562,237.03954,72,105,0
237.00621,237.08954,70,104,0
237.05621,237.13954,72,104,0
237.1062,237.18954,70,104,0
237.1562,237.23953,72,103,0
237.2062,237.28954,70,103,0
237.25621,237.33954,72,103,0
237.30621,237.38954,70,102,0
237.3562,237.43954,72,102,0
237.4062,237.48953,70,102,0
236.9062,237.50204,67,105,0
237.4562,237.53954,72,101,0
237.50621,237.58954,70,101,0
237.55621,237.63954,72,101,0
237.6062,237.68954,70,101,0
237.50621,237.70204,65,101,0
237.6562,237.73953,72,100,0
237.7062,237.78954,70,100,0
237.75621,237.83954,72,100,0
237.80621,237.88954,70,99,0
237.7062,237.90204,63,100,0
237.8562,237.93954,72,99,0
237.9062,237.98953,70,99,0
237.9562,238.03954,72,98,0
238.00621,238.08954,69,98,0
237.9062,238.10204,61,99,0
238.05621,238.13954,70,98,0
238.1062,238.30203,60,97,0
238.30621,238.50204,61,96,0
238.1062,238.70204,77,97,0
238.50621,238.70204,58,95,0
238.7062,238.90204,75,93,0
238.7062,238.90204,60,93,0
238.9062,239.10204,73,92,0
238.9062,239.10204,58,92,0
239.1062,239.30203,72,91,0
239.1062,239.30203,56,91,0
239.30621,239.50204,71,90,0
239.30621,239.50204,67,90,0
239.50621,239.70204,72,88,0
239.50621,239.70204,68,88,0
239.7062,239.90204,75,87,0
239.7062,239.90204,68,87,0
239.9062,240.10204,73,86,0
239.9062,240.10204,70,86,0
240.1062,240.30203,72,84,0
240.1062,240.30203,63,84,0
240.30621,240.50204,70,83,0
240.30621,240.70204,61,83,0
240.50621,240.70204,68,82,0
240.7062,240.90204,70,81,0
240.7062,241.10204,61,81,0
241.1062,241.30203,60,80,0
241.4062,241.50204,80,80,0
241.50621,241.60204,79,80,0
241.6062,241.70204,77,80,0
241.7062,241.90204,75,80,0
241.80621,241.90204,70,80,0
241.9062,242.00204,72,80,0
241.9062,242.10204,79,80,0
242.00621,242.10204,73,80,0
242.1062,242.20204,72,80,0
242.1062,242.30203,80,80,0
242.2062,242.30203,60,80,0
242.30621,242.40204,63,81,0
242.4062,242.50204,68,82,0
242.50621,242.70204,72,83,0
242.6062,242.70204,84,84,0
242.7062,242.80203,82,85,0
242.7062,242.90204,73,85,0
242.80621,242.90204,80,86,0
242.9062,243.30203,79,86,0
243.30621,243.40204,80,90,0
242.9062,243.50204,75,86,0
243.4062,243.50204,72,91,0
243.50621,243.60204,75,92,0
243.6062,243.70204,80,93,0
243.7062,243.90204,84,93,0
243.9062,244.10204,85,95,0
244.1062,244.50204,87,97,0
244.6062,244.70204,72,100,0
244.7062,244.80203,70,100,0
244.80621,244.90204,68,100,0
244.9062,245.30203,67,100,0
245.30621,245.70204,68,100,0
245.80621,245.90204,68,100,0
245.9062,246.00204,72,100,0
246.00621,246.10204,77,100,0
246.1062,246.30203,80,100,0
246.2062,246.30203,77,100,0
246.30621,246.40204,75,100,0
246.30621,246.50204,82,100,0
246.4062,246.50204,73,100,0
246.50621,247.00204,72,100,0
247.00621,247.10204,68,100,0
247.1062,247.20204,67,100,0
246.50621,247.30203,84,100,0
247.2062,247.30203,65,100,0
247.4062,247.50204,80,100,0
247.50621,247.60204,79,100,0
247.6062,247.70204,77,100,0
247.30621,247.80203,68,100,0
247.7062,247.90204,76,100,0
247.80621,247.90204,72,100,0
247.9062,248.00204,70,100,0
247.9062,248.10204,77,100,0
248.00621,248.10204,68,100,0
248.1062,248.30203,80,100,0
248.30621,248.50204,82,100,0
248.6062,248.70204,72,100,0
248.7062,248.80203,74,100,0
248.80621,248.90204,76,100,0
248.50621,249.00204,84,100,0
249.00621,249.10204,80,100,0
249.1062,249.20204,79,100,0
248.9062,249.30203,77,100,0
249.2062,249.30203,77,100,0
249.30621,249.50204,81,100,0
249.50621,249.70204,82,100,0
249.80621,249.90204,72,100,0
249.9062,250.00204,74,100,0
250.00621,250.10204,76,100,0
249.7062,250.20204,84,100,0
250.2062,250.30203,81,100,0
250.30621,250.40204,79,100,0
250.1062,250.50204,77,100,0
250.4062,250.50204,77,100,0
250.50621,250.70204,82,100,0
250.7062,250.90204,84,100,0
251.00621,251.10204,77,100,0
251.1062,251.20204,79,100,0
251.2062,251.30203,81,100,0
250.9062,251.40204,85,100,0
251.30621,251.50204,82,100,0
251.4062,251.50204,82,100,0
251.50621,251.60204,78,100,0
251.6062,251.70204,77,100,0
251.7062,251.90204,75,100,0
251.7062,252.10204,81,100,0
251.9062,252.10204,77,100,0
252.2062,252.30203,81,100,0
252.30621,252.40204,84,100,0
252.4062,252.50204,85,100,0
252.1062,252.60204,78,100,0
252.6062,252.70204,75,100,0
252.7062,252.80203,73,100,0
252.50621,252.90204,87,100,0
252.80621,252.90204,72,100,0
252.9062,253.00204,77,100,0
253.00621,253.10204,82,100,0
253.1062,253.20204,81,100,0
253.2062,253.30203,79,100,0
253.30621,253.40204,77,100,0
253.4062,253.50204,75,100,0
253.50621,253.60204,74,100,0
253.6062,253.70204,72,100,0
253.7062,253.80203,74,100,0
253.80621,253.90204,77,100,0
253.9062,254.00204,78,100,0
254.00621,254.10204,80,100,0
254.1062,254.20204,79,100,0
253.7062,254.30203,70,100,0
254.2062,254.30203,82,100,0
254.30621,254.40204,80,100,0
254.4062,254.50204,79,100,0
254.50621,254.60204,77,100,0
254.6062,254.70204,75,100,0
254.7062,254.80203,74,100,0
254.80621,254.90204,72,100,0
254.7062,255.00204,63,100,0
255.00621,255.10204,67,100,0
255.1062,255.20204,68,100,0
254.9062,255.30203,70,100,0
255.2062,255.30203,70,100,0
255.30621,255.40204,63,100,0
255.4062,255.50204,75,100,0
255.50621,255.60204,73,100,0
255.6062,255.70204,72,100,0
255.7062,255.80203,70,100,0
255.80621,255.90204,68,100,0
255.9062,256.00204,67,100,0
256.0062,256.10205,65,100,0
256.1062,256.20203,67,100,0
256.2062,256.30203,70,100,0
256.3062,256.40204,72,100,0
256.40622,256.50204,73,100,0
256.5062,256.60205,72,100,0
256.1062,256.70203,63,100,0
256.6062,256.70203,84,100,0
256.7062,256.80203,82,100,0
256.8062,256.90204,80,100,0
256.90622,257.00204,79,100,0
257.0062,257.10205,77,100,0
257.1062,257.20203,75,100,0
257.2062,257.30203,73,100,0
257.3062,257.50204,63,100,0
257.5062,257.70203,67,100,0
257.3062,257.90204,72,100,0
257.7062,257.90204,68,100,0
257.90622,258.10205,79,100,0
257.90622,258.10205,70,100,0
258.1062,258.30203,72,100,0
258.3062,258.50204,73,100,0
258.1062,258.70203,80,100,0
258.5062,258.90204,75,100,0
258.7062,258.90204,84,100,0
258.90622,259.00204,73,100,0
259.0062,259.10205,77,100,0
259.1062,259.20203,75,100,0
258.90622,259.30203,85,100,0
259.2062,259.30203,73,100,0
259.3062,259.40204,72,100,0
259.40622,259.50204,70,100,0
259.5062,259.60205,68,100,0
259.6062,259.70203,66,100,0
259.7062,259.90204,68,100,0
259.90622,260.10205,72,100,0
259.7062,260.30203,65,100,0
260.3062,260.50204,66,100,0
260.1062,260.70203,73,100,0
260.7062,260.90204,76,100,0
260.5062,261.10205,68,121,0
260.90622,261.10205,77,100,0
261.1062,261.40204,78,100,0
261.40622,261.50204,82,100,0
261.5062,261.60205,80,100,0
261.1062,261.70203,70,100,0
261.6062,261.70203,78,100,0
261.7062,261.80203,77,100,0
261.8062,261.90204,75,100,0
261.90622,262.00204,73,100,0
262.0062,262.10205,71,100,0
262.1062,262.30203,61,100,0
262.3062,262.50204,65,100,0
262.1062,262.70203,70,100,0
262.7062,262.90204,71,100,0
262.5062,263.10205,66,100,0
263.1062,263.30203,68,100,0
262.90622,263.50204,73,121,0
263.3062,263.50204,70,100,0
263.5062,263.80203,78,100,0
263.5062,263.90204,82,100,0
263.8062,263.90204,74,100,0
263.90622,264.00204,73,100,0
264.0062,264.10205,71,100,0
264.1062,264.20203,70,100,0
264.2062,264.30203,67,100,0
264.3062,264.40204,66,100,0
264.40622,264.50204,64,100,0
264.5062,264.70203,66,100,0
264.7062,264.90204,70,100,0
264.5062,265.10205,62,100,0
265.1062,265.30203,64,100,0
264.90622,265.50204,71,100,0
265.5062,265.70203,73,100,0
265.3062,265.90204,66,121,0
265.7062,265.90204,74,100,0
265.90622,266.10205,76,100,0
265.90622,266.10205,73,100,0
266.1062,266.30203,78,100,0
266.1062,266.30203,74,100,0
266.3062,266.40204,73,100,0
266.3062,266.50204,82,100,0
266.40622,266.50204,71,100,0
266.5062,266.60205,74,100,0
266.6062,266.70203,71,100,0
266.5062,267.10205,83,122,0
267.1062,267.30203,85,100,0
267.3062,267.50204,86,100,0
267.5062,267.70203,88,100,0
267.7062,267.90204,90,119,0
268.1062,268.30203,78,80,0
269.3062,269.70203,78,80,0
269.7062,270.50204,76,80,0
270.5062,270.91568,73,80,0
270.92,271.77267,74,80,0
271.77713,272.62982,73,80,0
272.63428,273.05838,71,80,0
273.06287,273.91553,71,80,0
273.91998,274.34412,66,80,0
274.34857,274.77267,74,80,0
274.77713,275.20123,73,80,0
275.20572,275.41553,66,80,0
275.63428,275.72357,82,80,0
275.68787,275.77713,83,80,0
275.74142,275.83072,82,80,0
275.79498,275.88428,83,80,0
275.84857,275.93787,82,80,0
275.90213,275.99142,83,80,0
275.95572,276.04498,82,80,0
276.00928,276.09857,83,80,0
276.06287,276.15213,82,80,0
276.11642,276.20572,83,80,0
276.16998,276.25928,82,80,0
276.22357,276.31287,83,80,0
276.27713,276.36642,82,80,0
276.33072,276.41998,83,80,0
276.38428,276.47357,80,80,0
276.43787,276.52713,82,80,0
276.49142,276.91553,83,80,0
277.13428,277.23697,83,80,0
277.24142,277.3441,81,80,0
277.34857,277.45123,79,80,0
277.45572,277.55838,78,80,0
277.56284,277.66553,76,80,0
277.66998,277.77267,78,80,0
277.77713,277.87982,79,80,0
277.88428,277.98697,81,80,0
277.99142,278.0941,79,80,0
278.09857,278.20123,78,80,0
278.20572,278.30838,76,80,0
278.31284,278.41553,74,80,0
278.41998,278.52267,73,80,0
278.20572,278.62982,67,80,0
278.52713,278.62982,74,80,0
278.63428,278.73697,76,80,0
278.74142,278.8441,74,80,0
278.84857,278.95123,73,80,0
278.95572,279.05838,71,80,0
279.06284,279.16553,69,80,0
279.16998,279.27267,68,80,0
279.27713,279.37982,69,80,0
279.38428,279.48697,67,80,0
279.49142,279.5941,66,80,0
279.59857,279.70123,69,80,0
279.70572,279.80838,71,80,0
279.70572,279.91553,69,80,0
279.81284,279.91553,73,80,0
279.91998,280.02267,74,80,0
280.02713,280.12982,76,80,0
280.13428,280.23697,78,80,0
280.24142,280.3441,79,80,0
280.34857,280.45123,81,80,0
280.45572,280.55838,83,80,0
280.56284,280.66553,81,80,0
280.66998,280.77267,80,80,0
280.77713,280.87982,79,80,0
280.88428,280.98694,78,80,0
280.99142,281.0941,76,80,0
281.09857,281.20123,75,80,0
281.2057,281.30838,76,80,0
281.31284,281.41553,78,80,0
281.41998,281.52267,76,80,0
281.52713,281.62982,74,80,0
281.63428,281.73694,74,80,0
281.74142,281.8441,73,80,0
281.84857,281.95123,71,80,0
281.9557,282.05838,69,80,0
282.06284,282.16553,71,80,0
282.16998,282.27267,73,80,0
282.27713,282.37982,74,80,0
282.38428,282.48694,73,80,0
282.49142,282.5941,74,80,0
282.59857,282.70123,76,80,0
282.7057,282.80838,78,80,0
282.81284,282.91553,76,80,0
282.91998,283.02267,78,80,0
283.02713,283.12982,79,80,0
283.34857,283.77267,79,80,0
283.77713,283.87982,74,80,0
283.88428,283.98694,76,80,0
283.99142,284.0941,78,80,0
284.09857,284.20123,79,80,0
284.2057,284.30838,81,80,0
284.31284,284.41553,83,80,0
284.63428,285.05838,83,80,0
285.06284,285.16553,78,80,0
285.16998,285.27267,79,80,0
285.27713,285.3798,81,80,0
285.38428,285.48694,83,80,0
285.49142,285.5941,85,80,0
285.59854,285.70123,86,80,0
285.91998,286.3441,86,80,0
286.34854,286.43784,85,80,0
286.40213,286.49142,86,80,0
286.4557,286.54498,85,80,0
286.50928,286.59854,86,80,0
286.56284,286.65213,85,80,0
286.61642,286.7057,86,80,0
286.66998,286.75928,85,80,0
286.72354,286.81284,86,80,0
286.77713,286.86642,85,80,0
286.8307,286.91998,86,80,0
286.88428,286.97354,85,80,0
286.93784,287.02713,86,80,0
286.99142,287.0807,85,80,0
287.04498,287.13428,86,80,0
287.09854,287.18784,83,80,0
287.15213,287.24142,85,80,0
287.2057,287.41553,70,80,0
287.63428,287.72354,70,80,0
287.68784,287.77713,71,80,0
287.74142,287.8307,70,80,0
287.79498,287.88428,71,80,0
287.84854,287.93784,70,80,0
287.90213,287.99142,71,80,0
287.9557,288.04498,70,80,0
287.63428,288.05838,78,80,0
288.00928,288.09854,71,80,0
288.06284,288.15213,70,80,0
288.11642,288.2057,71,80,0
288.16998,288.25928,70,80,0
288.22354,288.31284,71,80,0
288.27713,288.36642,70,80,0
288.3307,288.41998,71,80,0
288.38428,288.47354,70,80,0
288.06284,288.48694,76,80,0
288.43784,288.52713,71,80,0
288.49142,288.5807,70,80,0
288.54498,288.63428,71,80,0
288.59854,288.68784,70,80,0
288.65213,288.74142,71,80,0
288.7057,288.79498,70,80,0
288.75928,288.84854,71,80,0
288.81284,288.90213,68,80,0
288.49142,288.91553,73,80,0
288.86642,288.9557,69,80,0
288.91998,289.3441,76,80,0
288.91998,289.77264,71,80,0
289.77713,290.20123,66,80,0
289.34854,290.6298,74,80,0
290.2057,291.05838,64,80,0
291.06284,291.48694,61,80,0
290.63428,291.91553,73,80,0
291.4914,291.91553,64,80,0
291.91998,292.3441,62,80,0
292.34854,293.20123,61,80,0
291.91998,293.6298,71,80,0
293.2057,293.6298,59,80,0
293.63428,293.8441,64,80,0
293.63428,294.05838,59,80,0
293.84854,294.05838,62,80,0
294.06284,294.27264,61,80,0
294.06284,294.48694,59,80,0
294.27713,294.48694,62,80,0
294.4914,294.70123,61,80,0
294.4914,294.9155,54,80,0
294.7057,294.9155,62,80,0
294.91998,295.1298,64,80,0
294.91998,295.3441,62,80,0
295.13425,295.3441,65,80,0
295.34854,295.77264,61,80,0
295.34854,296.20123,66,80,0
295.77713,296.20123,54,80,0
296.2057,296.6298,78,80,0
296.63425,296.72354,74,80,0
296.68784,296.77713,76,80,0
296.7414,296.8307,74,80,0
296.79498,296.88425,76,80,0
296.84854,296.93784,74,80,0
296.90213,296.9914,76,80,0
296.9557,297.04498,74,80,0
297.00925,297.09854,76,80,0
297.06284,297.15213,74,80,0
297.1164,297.2057,76,80,0
297.16998,297.25925,74,80,0
297.22354,297.31284,76,80,0
297.27713,297.3664,74,80,0
297.3307,297.41998,76,80,0
297.38425,297.47354,74,80,0
297.43784,297.52713,76,80,0
297.4914,297.70123,71,80,0
297.4914,297.9155,62,80,0
297.7057,297.9155,65,80,0
297.91998,298.3441,61,80,0
297.91998,298.77264,66,80,0
298.34854,298.77264,54,80,0
298.7771,298.98694,66,80,0
298.9914,299.0941,68,80,0
299.09854,299.20123,70,80,0
299.2057,299.30835,71,80,0
299.31284,299.4155,73,80,0
299.41998,299.52264,74,80,0
299.5271,299.6298,76,80,0
299.63425,299.73694,78,80,0
299.7414,299.8441,79,80,0
300.06284,300.48694,79,80,0
300.4914,300.5807,78,80,0
300.54498,300.63425,79,80,0
300.59854,300.68784,78,80,0
300.6789,300.68784,78,80,0
300.6521,300.7414,79,80,0
300.73248,300.7414,79,80,0
300.78604,300.87534,78,80,0
300.8396,300.9289,79,80,0
300.91998,301.00925,78,80,0
300.97354,301.06284,79,80,0
301.0271,301.1164,78,80,0
301.0807,301.16998,79,80,0
301.13425,301.22354,78,80,0
301.18784,301.2771,79,80,0
301.2414,301.3307,78,80,0
301.29498,301.38425,79,80,0
301.34854,301.77264,74,80,0
301.7771,301.86453,62,80,0
301.82956,301.91696,64,80,0
301.88202,301.96942,62,80,0
301.93445,302.02188,64,80,0
301.9869,302.0743,62,80,0
302.03934,302.12677,64,80,0
302.0918,302.1792,62,80,0
302.14426,302.23166,64,80,0
302.1967,302.28412,62,80,0
302.24915,302.33655,64,80,0
302.30157,302.389,62,80,0
302.35403,302.44144,64,80,0
302.4065,302.4939,62,80,0
302.45892,302.54636,64,80,0
302.51138,302.5988,62,80,0
301.7771,302.6119,71,80,0
302.5638,302.65125,64,80,0
302.61627,303.0315,67,80,0
302.61627,303.0315,61,80,0
303.03586,303.13638,64,80,0
303.14075,303.24127,66,80,0
303.24564,303.34616,67,81,0
303.35052,303.45105,69,82,0
303.45544,303.55597,71,83,0
303.56033,303.66086,73,84,0
303.66522,303.76575,61,85,0
303.7701,303.87064,62,86,0
303.875,303.97552,64,86,0
303.97992,304.08044,66,87,0
304.0848,304.18533,67,88,0
303.875,304.29022,73,86,0
304.1897,304.29022,69,89,0
304.2946,304.3951,67,90,0
304.39948,304.5,69,91,0
304.5044,304.60492,71,92,0
304.60928,304.7098,73,93,0
304.71417,304.8147,74,93,0
304.81906,304.9196,76,94,0
304.92395,305.02448,64,95,0
305.02887,305.1294,66,96,0
305.13376,305.23428,67,97,0
305.23865,305.33917,69,98,0
305.34354,305.44406,71,99,0
305.13376,305.54895,76,97,0
305.44843,305.54895,73,99,0
305.55334,305.6518,79,100,0
305.65607,305.75452,78,100,0
305.75882,305.85727,76,100,0
305.86154,305.96002,74,100,0
305.9643,306.06274,73,100,0
306.06702,306.1655,71,100,0
306.16977,306.26822,67,100,0
306.27252,306.37097,66,100,0
306.37524,306.4737,64,100,0
306.478,306.57645,62,100,0
306.58072,306.6792,61,100,0
306.37524,306.78192,71,100,0
306.68347,306.78192,59,100,0
306.7862,306.88467,76,100,0
306.88895,306.9874,74,100,0
306.9917,307.09015,73,100,0
307.09442,307.19287,71,100,0
307.19717,307.29562,69,100,0
307.2999,307.39838,67,100,0
307.40265,307.5011,64,100,0
307.50537,307.60385,62,100,0
307.60812,307.70657,61,100,0
307.71085,307.80933,59,100,0
307.8136,307.91205,57,100,0
307.60812,308.0148,67,100,0
307.91635,308.0148,55,100,0
308.01907,308.1149,62,110,0
308.11908,308.2149,61,110,0
308.2191,308.3149,59,110,0
308.01907,308.41492,66,123,0
308.3191,308.41492,57,110,0
308.41907,308.51492,55,110,0
308.51907,308.6149,54,110,0
308.61908,308.7149,66,110,0
308.7191,308.8149,67,110,0
308.8191,308.91492,69,110,0
308.91907,309.01492,71,110,0
309.01907,309.1149,73,110,0
309.11908,309.2149,74,110,0
309.2191,309.3149,66,110,0
309.3191,309.41492,64,110,0
309.41907,309.51492,62,110,0
309.2191,309.6149,69,125,0
309.51907,309.6149,61,110,0
309.61908,309.7149,59,110,0
309.7191,309.8149,57,110,0
309.8191,309.91492,69,110,0
309.91907,310.01492,71,110,0
310.01907,310.1149,73,110,0
310.11908,310.2149,74,110,0
310.2191,310.3149,76,110,0
310.3191,310.41492,78,110,0
310.41907,310.51492,67,110,0
310.51907,310.6149,66,110,0
310.61908,310.7149,64,110,0
310.41907,310.8149,71,126,0
310.7191,310.8149,62,110,0
310.8191,310.91492,61,110,0
310.91907,311.01492,59,110,0
311.01907,311.1149,71,110,0
311.11908,311.2149,73,110,0
311.2191,311.3149,74,110,0
311.3191,311.41492,76,110,0
311.41907,311.51492,78,110,0
311.2191,311.6149,67,110,0
311.51907,311.6149,79,110,0
311.61908,311.7149,76,110,0
311.7191,311.8149,74,110,0
311.8191,311.91492,73,110,0
311.61908,312.01492,79,127,0
311.91907,312.01492,71,110,0
312.01907,312.1149,69,110,0
312.11908,312.2149,67,110,0
312.2191,312.3149,79,110,0
312.3191,312.41492,81,110,0
312.41907,312.51492,83,110,0
312.51907,312.6149,85,110,0
312.61908,312.7149,86,110,0
312.41907,312.8149,79,110,0
312.7191,312.8149,88,110,0
312.8191,312.91492,90,110,0
312.91907,313.01492,88,110,0
313.01907,313.1149,86,110,0
312.8191,313.2149,78,110,0
313.11908,313.2149,85,110,0
313.2191,313.3149,83,110,0
313.3191,313.41492,81,110,0
313.61908,314.01492,81,110,0
314.01907,314.1149,86,110,0
314.11908,314.2149,85,110,0
314.2191,314.3149,83,110,0
314.01907,314.41492,74,110,0
314.3191,314.41492,81,110,0
314.41907,314.51492,79,110,0
314.51907,314.6149,78,110,0
314.8191,315.2149,78,110,0
315.8191,315.91492,74,110,0
315.91907,316.01492,76,110,0
316.01907,316.1149,78,110,0
316.11908,316.2149,79,110,0
316.2191,316.3149,81,110,0
316.3191,316.41492,82,110,0
316.41907,316.51492,83,125,0
316.51907,316.6149,81,111,0
316.61908,316.7149,79,110,0
316.7191,316.8149,78,110,0
316.8191,316.91492,76,125,0
316.91907,317.01492,74,110,0
317.01907,317.1149,79,110,0
317.11908,317.2149,78,110,0
317.2191,317.3149,76,125,0
317.3191,317.41492,74,110,0
317.41907,317.51492,72,110,0
317.51907,317.6149,71,110,0
317.61908,317.7149,76,122,0
317.7191,317.8149,74,110,0
317.8191,317.91492,73,110,0
317.91907,318.01492,71,110,0
318.01907,318.1149,69,125,0
318.11908,318.2149,68,110,0
318.2191,318.3149,64,110,0
318.3191,318.41492,62,110,0
318.41907,318.51492,61,110,0
318.51907,318.6149,59,110,0
318.61908,318.7149,57,110,0
318.7191,318.8149,56,110,0
318.8191,318.91492,64,110,0
318.91907,319.01492,62,110,0
319.01907,319.1149,61,110,0
318.2191,319.2149,67,110,0
319.11908,319.2149,62,110,0
319.2191,319.7149,64,122,0
319.7191,319.8149,61,110,0
319.8191,319.91492,62,110,0
319.2191,320.01492,66,122,0
319.91907,320.01492,64,110,0
320.01907,320.41492,66,110,0
320.01907,320.8149,62,110,0
320.91907,321.01492,62,110,0
321.01907,321.1149,59,110,0
321.11908,321.2149,65,110,0
320.41907,321.41492,71,127,0
321.2191,321.6149,66,110,0
321.61908,321.7149,62,110,0
321.41907,321.8149,69,110,0
321.7191,321.8149,66,110,0
321.8191,321.91492,65,110,0
321.8191,322.01492,68,110,0
321.91907,322.01492,62,110,0
322.01907,322.1149,58,110,0
322.01907,322.2149,67,110,0
322.11908,322.2149,64,110,0
322.2191,322.3149,62,110,0
322.3191,322.41492,57,110,0
322.2191,322.6149,66,110,0
322.41907,322.8149,58,110,0
322.61908,322.8149,64,110,0
323.01907,323.2149,55,110,0
322.8191,323.41492,58,110,0
323.2191,323.6149,52,110,0
323.41907,323.7149,58,110,0
323.7191,323.8149,56,110,0
323.61908,323.91492,54,110,0
323.91907,324.01492,53,110,0
323.8191,324.1149,57,110,0
324.11908,324.2149,61,110,0
324.01907,324.3149,54,110,0
324.3191,324.41492,55,110,0
324.2191,324.51492,62,110,0
324.51907,324.6149,61,110,0
324.39407,324.6899,57,110,0
324.7191,324.8149,58,110,0
324.61908,324.91492,62,110,0
324.91907,325.01492,53,110,0
324.8191,325.1149,59,110,0
325.11908,325.2149,49,110,0
325.01907,325.3149,54,110,0
325.3191,325.41492,54,110,0
325.2191,325.51492,50,110,0
325.51907,325.6149,51,110,0
325.41907,325.7149,55,110,0
325.7191,325.8149,57,110,0
325.61908,325.91492,49,110,0
325.91907,326.01492,54,110,0
325.8191,326.1149,59,110,0
326.11908,326.2149,58,110,0
326.01907,326.3149,55,110,0
326.3191,326.41492,54,110,0
326.2191,326.51492,59,110,0
326.51907,326.6149,63,110,0
326.41907,326.7149,55,110,0
326.7191,326.8149,57,110,0
326.61908,326.91492,64,110,0
326.91907,327.01492,66,110,0
326.8191,327.1149,59,110,0
327.11908,327.2149,58,110,0
327.01907,327.41492,67,110,0
327.2191,327.6149,57,110,0
327.41907,327.6149,68,110,0
327.8191,328.01492,64,110,0
327.61908,328.2149,69,127,0
328.01907,328.2149,61,110,0
328.2191,328.41492,67,110,0
328.2191,328.6149,57,110,0
328.41907,328.8149,66,110,0
328.61908,328.8149,58,110,0
329.01907,329.2149,66,110,0
328.8191,329.41492,59,127,0
329.2191,329.41492,63,110,0
329.41907,329.6149,57,110,0
329.41907,329.8149,59,110,0
329.61908,329.8149,55,110,0
329.8191,330.01492,71,110,0
330.2191,330.41492,67,110,0
330.01907,330.6149,72,125,0
330.41907,330.6149,64,110,0
330.61908,330.8149,71,110,0
330.61908,331.01492,60,110,0
330.8191,331.2149,69,110,0
331.01907,331.2149,61,110,0
331.41907,331.6149,69,110,0
331.2191,331.78992,62,126,0
331.61908,331.8149,66,110,0
331.8191,332.01492,60,110,0
331.8191,332.2149,62,110,0
332.2191,332.3149,74,110,0
332.3191,332.41492,73,110,0
332.41907,333.01492,71,100,0
333.01907,333.41492,76,102,0
333.41907,333.51492,76,104,0
333.51907,333.6149,74,105,0
333.61908,334.01492,72,105,0
334.01907,334.2149,73,107,0
334.2191,334.6149,78,108,0
334.61908,334.7149,78,110,0
334.7191,334.8149,76,110,0
334.8191,335.41492,74,111,0
335.41907,335.51492,71,113,0
335.51907,335.8149,79,114,0
335.8191,335.91492,79,115,0
335.91907,336.01492,77,116,0
336.01907,336.2149,76,116,0
336.2191,336.41492,79,117,0
336.41907,336.6149,78,118,0
336.61908,336.8149,79,119,0
336.8191,337.01492,84,120,0
337.2191,337.3024,69,120,0
337.26907,337.35242,71,120,0
337.3191,337.4024,69,120,0
337.36908,337.45242,71,120,0
337.41907,337.5024,69,120,0
337.4691,337.5524,71,120,0
337.51907,337.60242,69,120,0
337.5691,337.6524,71,120,0
337.61908,337.70242,69,120,0
337.66907,337.7524,71,120,0
337.7191,337.8024,69,120,0
337.76907,337.85242,71,120,0
337.8191,337.9024,69,120,0
337.86908,337.95242,71,120,0
337.91907,338.0024,67,120,0
337.61908,338.01492,66,120,0
337.9691,338.0524,69,120,0
338.01907,338.41492,67,120,0
338.61908,338.7149,67,110,0
338.7191,338.8149,69,110,0
338.8191,338.91492,71,110,0
338.91907,339.01492,72,110,0
339.01907,339.1149,74,110,0
339.11908,339.2149,76,110,0
339.2191,339.6149,71,124,0
339.79407,339.88992,71,110,0
339.91907,340.01492,72,110,0
340.01907,340.1149,74,110,0
340.11908,340.2149,76,110,0
340.2191,340.3149,78,110,0
340.3191,340.41492,79,110,0
340.41907,340.8149,74,125,0
341.01907,341.1149,74,110,0
341.11908,341.2149,76,110,0
341.2191,341.3149,78,110,0
341.3191,341.41492,76,110,0
341.41907,341.51492,78,110,0
341.51907,341.6149,79,110,0
341.61908,341.7149,81,110,0
341.7191,341.8149,80,110,0
341.8191,341.91492,81,110,0
341.91907,342.01492,83,110,0
342.01907,342.1149,84,110,0
342.11908,342.2149,83,110,0
342.2191,342.3149,81,110,0
342.3191,342.41492,79,110,0
342.41907,342.51492,78,110,0
342.51907,342.6149,75,110,0
342.61908,342.7149,74,110,0
342.7191,342.8149,76,110,0
342.8191,342.91492,78,110,0
342.91907,343.01492,76,110,0
343.01907,343.1149,74,110,0
343.11908,343.2149,72,110,0
343.2191,343.3149,71,110,0
343.3191,343.41492,69,110,0
343.41907,343.51492,67,110,0
343.51907,343.6149,69,110,0
343.61908,343.7149,71,110,0
343.7191,343.8149,72,110,0
343.8191,343.91492,74,110,0
343.91907,344.01492,75,110,0
344.01907,344.1149,76,110,0
344.11908,344.2149,79,110,0
344.2191,344.3149,78,110,0
344.3191,344.41492,76,110,0
344.41907,344.51492,74,110,0
344.51907,344.6149,79,110,0
344.61908,344.7149,78,110,0
344.7191,344.8149,79,110,0
344.91907,345.01492,67,110,0
345.01907,345.1149,66,110,0
344.8191,345.2149,73,110,0
345.11908,345.2149,67,110,0
345.2191,345.41492,69,110,0
345.41907,345.6149,63,110,0
345.61908,345.8149,66,110,0
345.2191,346.01492,72,110,0
345.8191,346.2149,69,110,0
346.01907,346.41492,71,110,0
346.2191,346.41492,67,110,0
346.41907,346.6149,73,110,0
346.61908,346.8149,74,110,0
346.8191,347.01492,76,110,0
346.8191,347.01492,67,110,0
347.01907,347.2149,78,110,0
347.2191,347.8149,79,110,0
347.8191,348.01492,78,110,0
348.01907,348.2149,76,110,0
348.2191,348.3149,79,110,0
348.3191,348.41492,78,110,0
348.41907,348.8149,66,110,0
349.41907,349.51492,76,110,0
349.51907,349.6149,74,110,0
349.61908,350.01492,62,110,0
350.61908,350.7149,83,110,0
350.7191,350.8149,81,110,0
350.8191,350.91492,78,110,0
350.91907,351.01492,74,110,0
351.01907,351.1149,73,110,0
351.11908,351.2149,71,110,0
351.2191,351.3149,61,110,0
351.3191,351.41492,60,110,0
351.41907,351.51492,61,110,0
351.2191,351.6149,70,110,0
351.51907,351.6149,63,110,0
351.61908,351.7149,64,110,0
351.7191,351.8149,63,110,0
351.8191,351.91492,64,110,0
351.91907,352.01492,66,110,0
352.01907,352.1149,67,110,0
351.61908,352.2149,69,110,0
352.11908,352.2149,66,110,0
352.2191,352.3149,64,110,0
352.2191,352.41492,71,110,0
352.3191,352.41492,62,110,0
352.41907,352.51492,73,110,0
352.51907,352.6149,72,110,0
352.61908,352.7149,73,110,0
352.7191,352.8149,74,110,0
352.8191,352.91492,76,110,0
352.91907,353.01492,75,110,0
353.01907,353.1149,76,110,0
353.11908,353.2149,78,110,0
353.2191,353.3149,79,110,0
353.3191,353.41492,78,110,0
353.41907,353.51492,76,110,0
353.51907,353.6149,74,110,0
353.61908,353.7149,73,110,0
353.7191,353.8149,70,110,0
353.8191,353.91492,69,110,0
353.91907,354.01492,71,110,0
354.01907,354.1149,72,110,0
354.11908,354.2149,71,110,0
354.2191,354.3149,69,110,0
354.3191,354.41492,67,110,0
354.41907,354.51492,66,110,0
354.51907,354.6149,67,110,0
354.61908,354.7149,69,110,0
354.7191,354.8149,71,110,0
354.8191,354.9024,72,110,0
354.86908,354.95242,74,110,0
354.91907,355.0024,72,110,0
354.9691,355.0524,74,110,0
355.01907,355.10242,72,110,0
355.0691,355.1524,74,110,0
355.11908,355.20242,72,110,0
355.16907,355.2524,74,110,0
355.2191,355.3024,72,110,0
355.26907,355.35242,74,110,0
355.3191,355.4024,72,110,0
355.36908,355.45242,74,110,0
355.41907,355.5024,72,110,0
355.4691,355.5524,74,110,0
355.51907,355.60242,72,110,0
355.5691,355.6524,74,110,0
355.61908,356.01492,71,110,0
356.01907,356.10242,69,110,0
356.0691,356.1524,71,110,0
356.11908,356.20242,69,110,0
356.16907,356.2524,71,110,0
356.2191,356.3024,69,110,0
356.26907,356.35242,71,110,0
356.3191,356.4024,69,110,0
356.36908,356.45242,71,110,0
356.41907,356.5024,69,110,0
356.4691,356.5524,71,110,0
356.51907,356.60242,69,110,0
356.5691,356.6524,71,110,0
356.61908,356.70242,69,110,0
356.66907,356.7524,71,110,0
356.7191,356.8024,69,110,0
356.76907,356.85242,71,110,0
356.8191,356.91492,68,110,0
356.91907,357.01492,71,110,0
357.01907,357.1149,68,110,0
357.11908,357.2149,64,110,0
357.2191,357.3024,67,110,0
357.26907,357.35242,69,110,0
357.3191,357.4024,67,110,0
357.36908,357.45242,69,110,0
357.41907,357.5024,67,110,0
357.4691,357.5524,69,110,0
357.51907,357.60242,67,110,0
357.5691,357.6524,69,110,0
357.61908,357.70242,67,110,0
357.66907,357.7524,69,110,0
357.7191,357.8024,67,110,0
357.76907,357.85242,69,110,0
357.8191,357.9024,67,110,0
357.86908,357.95242,69,110,0
357.91907,358.0024,67,110,0
357.9691,358.0524,69,110,0
358.01907,358.1149,66,110,0
358.11908,358.2149,69,110,0
358.2191,358.3149,66,110,0
358.3191,358.41492,62,110,0
358.41907,358.51492,66,110,0
358.51907,358.6149,64,110,0
358.61908,358.7149,66,110,0
358.7191,358.8149,67,110,0
358.8191,358.91492,69,110,0
358.91907,359.01492,71,110,0
359.01907,359.1149,73,110,0
359.01907,359.2149,83,110,0
359.11908,359.2149,75,110,0
359.2191,359.41492,76,110,0
359.41907,359.6149,88,110,0
359.61908,359.7149,64,110,0
359.7191,359.8149,62,110,0
359.8191,359.91492,64,110,0
359.91907,360.01492,66,110,0
360.01907,360.1149,67,110,0
360.11908,360.2149,69,110,0
360.2191,360.3149,71,110,0
360.2191,360.41492,81,110,0
360.3191,360.41492,73,110,0
360.41907,360.6149,74,110,0
360.61908,360.8149,86,110,0
360.8191,360.91492,62,110,0
360.91907,361.01492,60,110,0
361.01907,361.1149,62,110,0
361.11908,361.2149,63,110,0
361.2191,361.3149,65,110,0
361.3191,361.41492,67,110,0
361.41907,361.51492,69,110,0
361.41907,361.6149,79,110,0
361.51907,361.6149,71,110,0
361.61908,361.8149,72,110,0
361.8191,362.1149,84,110,0
362.11908,362.2149,76,120,0
362.2191,362.3149,77,120,0
362.3191,362.41492,79,120,0
362.41907,362.6149,80,120,0
362.51907,362.6149,64,120,0
362.61908,362.7149,65,120,0
362.7191,362.8149,67,120,0
362.91907,363.01492,70,120,0
363.01907,363.1149,72,120,0
363.11908,363.2149,74,120,0
362.8191,363.3149,68,120,0
363.3191,363.41492,67,110,0
363.41907,363.51492,70,110,0
363.2191,363.6149,75,120,0
363.51907,363.6149,68,110,0
363.61908,363.7149,67,110,0
363.7191,363.8149,65,110,0
363.8191,363.91492,63,110,0
363.91907,364.01492,62,110,0
364.01907,364.1149,75,110,0
364.11908,364.2149,74,110,0
364.2191,364.3149,72,110,0
364.3191,364.41492,70,110,0
364.41907,364.51492,75,110,0
364.51907,364.6149,70,110,0
364.61908,364.7149,75,110,0
364.01907,364.8149,63,126,0
364.7191,364.8149,74,110,0
364.8191,364.91492,72,110,0
364.91907,365.01492,70,110,0
365.01907,365.1149,68,110,0
365.11908,365.2149,67,110,0
365.2191,365.3149,75,110,0
365.3191,365.41492,74,110,0
365.41907,365.51492,72,110,0
365.51907,365.6149,70,110,0
365.2191,365.7149,79,126,0
365.7191,365.8149,77,110,0
365.8191,365.91492,80,110,0
365.61908,366.01492,74,110,0
365.91907,366.01492,79,110,0
366.01907,366.1149,77,110,0
366.11908,366.2149,75,110,0
366.2191,366.3149,74,110,0
366.3191,366.41492,72,110,0
366.41907,366.51492,65,110,0
366.51907,366.6149,67,110,0
366.61908,366.7149,65,110,0
366.7191,366.8149,63,110,0
366.8191,366.91492,62,110,0
366.91907,367.01492,60,110,0
367.01907,367.1149,62,110,0
367.11908,367.2149,63,110,0
366.41907,367.3149,70,110,0
367.3191,367.41492,72,110,0
367.41907,367.51492,74,110,0
367.51907,367.6149,75,110,0
367.2191,367.7149,65,110,0
367.7191,367.8149,67,110,0
367.8191,367.91492,68,110,0
367.91907,368.01492,69,110,0
367.61908,368.1149,77,110,0
368.11908,368.2149,79,110,0
368.2191,368.3149,80,110,0
368.3191,368.41492,81,110,0
368.01907,368.51492,70,110,0
368.51907,368.6149,72,110,0
368.61908,368.7149,74,110,0
368.41907,368.8149,82,110,0
368.7191,368.8149,75,110,0
368.8191,368.91492,77,110,0
368.8191,368.91492,80,110,0
368.91907,369.01492,75,110,0
368.91907,369.01492,79,110,0
369.01907,369.1149,74,110,0
369.01907,369.1149,77,110,0
369.11908,369.2149,75,110,0
369.11908,369.2149,75,110,0
369.2191,369.41492,84,120,0
369.61908,369.70242,68,120,0
369.66907,369.7524,70,120,0
369.7191,369.8024,68,120,0
369.76907,369.85242,70,120,0
369.8191,369.9024,68,120,0
369.86908,369.95242,70,120,0
369.91907,370.0024,68,120,0
369.9691,370.0524,70,120,0
370.01907,370.10242,68,120,0
370.0691,370.1524,70,120,0
370.11908,370.20242,68,120,0
370.16907,370.2524,70,120,0
370.2191,370.3024,68,120,0
370.26907,370.35242,70,120,0
370.3191,370.4024,68,120,0
370.36908,370.45242,70,120,0
370.41907,370.51492,77,120,0
370.51907,370.6149,79,120,0
370.61908,370.7149,80,120,0
370.7191,370.8149,82,120,0
370.8191,370.91492,84,120,0
370.91907,371.01492,86,120,0
371.01907,371.1149,87,120,0
371.11908,371.2149,88,120,0
371.2191,371.3149,89,120,0
371.3191,371.41492,91,120,0
371.41907,371.6149,92,120,0
371.61908,371.8149,94,120,0
372.01907,372.10242,79,120,0
372.0691,372.1524,80,120,0
372.11908,372.20242,79,120,0
372.16907,372.2524,80,120,0
372.2191,372.3024,79,120,0
372.26907,372.35242,80,120,0
372.3191,372.4024,79,120,0
372.36908,372.45242,80,120,0
372.41907,372.5024,79,120,0
372.4691,372.5524,80,120,0
372.51907,372.60242,79,120,0
372.5691,372.6524,80,120,0
372.61908,372.70242,79,120,0
372.66907,372.7524,80,120,0
372.7191,372.8024,79,120,0
372.76907,372.85242,80,120,0
372.8191,372.91492,75,120,0
372.91907,373.01492,77,120,0
373.01907,373.1149,79,120,0
373.11908,373.2149,80,120,0
373.2191,373.3149,82,120,0
373.3191,373.41492,84,120,0
373.41907,373.51492,85,120,0
373.51907,373.6149,86,120,0
373.61908,373.7149,87,120,0
373.7191,373.8149,89,120,0
373.8191,373.91492,90,120,0
373.91907,374.01492,91,120,0
374.01907,374.1149,82,120,0
374.01907,374.2149,92,120,0
374.11908,374.2149,80,120,0
374.2191,374.3149,79,120,0
374.3191,374.41492,77,120,0
374.41907,374.51492,75,120,0
374.51907,374.6149,74,120,0
374.61908,374.7149,72,120,0
374.7191,374.8149,70,120,0
374.8191,374.91492,69,120,0
374.91907,375.01492,70,120,0
375.01907,375.1149,65,120,0
374.41907,375.2149,77,120,0
375.11908,375.2149,68,120,0
375.2191,375.41492,67,120,0
375.3191,375.41492,82,120,0
375.41907,375.51492,84,120,0
375.51907,375.6149,86,120,0
375.61908,375.7149,87,120,0
375.7191,375.8149,86,120,0
375.8191,375.91492,87,120,0
375.91907,376.01492,89,120,0
376.01907,376.1149,91,120,0
376.11908,376.2149,89,120,0
376.2191,376.3149,91,120,0
375.61908,376.41492,70,120,0
376.3191,376.41492,92,120,0
376.41907,376.6149,94,120,0
376.61908,376.7149,80,120,0
376.7191,376.8149,79,120,0
376.8191,376.91492,77,120,0
376.91907,377.01492,76,120,0
377.01907,377.1149,73,120,0
377.11908,377.2149,72,120,0
377.2191,377.3149,71,120,0
377.3191,377.41492,72,120,0
377.41907,377.51492,67,120,0
376.8191,377.6149,79,120,0
377.51907,377.6149,70,120,0
377.61908,377.8149,68,120,0
377.8191,377.91492,84,120,0
377.91907,378.01492,88,120,0
378.01907,378.1149,89,120,0
378.11908,378.2149,91,120,0
378.2191,378.3149,92,120,0
378.3191,378.41492,91,120,0
378.41907,378.51492,89,120,0
378.01907,378.6149,72,120,0
378.51907,378.6149,87,120,0
378.61908,378.7149,86,120,0
378.61908,378.8149,66,120,0
378.7191,378.8149,84,120,0
378.8191,379.01492,83,120,0
378.8191,379.01492,67,120,0
379.01907,379.2149,74,120,0
379.2191,379.3024,59,120,0
379.26907,379.35242,60,120,0
379.3191,379.4024,59,120,0
379.36908,379.45242,60,120,0
379.41907,379.6149,55,120,0
379.61908,379.70242,71,120,0
379.66907,379.7524,72,120,0
379.7191,379.8024,71,120,0
379.76907,379.85242,72,120,0
379.8191,380.01492,79,120,0
380.01907,380.10242,63,120,0
380.0691,380.1524,65,120,0
380.11908,380.20242,63,120,0
380.16907,380.2524,65,120,0
380.2191,380.41492,60,120,0
380.41907,380.5024,75,120,0
380.4691,380.5524,77,120,0
380.51907,380.60242,75,120,0
380.5691,380.6524,77,120,0
380.61908,380.8149,84,120,0
380.8191,380.9024,69,120,0
380.86908,380.95242,70,120,0
380.91907,381.0024,69,120,0
380.9691,381.0524,70,120,0
381.01907,381.2149,62,120,0
381.2191,381.3024,78,120,0
381.26907,381.35242,79,120,0
381.3191,381.4024,78,120,0
381.36908,381.45242,79,120,0
381.41907,381.6149,86,120,0
381.61908,381.70242,70,120,0
381.66907,381.7524,72,120,0
381.7191,381.8024,70,120,0
381.76907,381.85242,72,120,0
381.8191,382.01492,67,120,0
382.01907,382.1053,82,120,0
382.0708,382.157,84,120,0
382.12253,382.20874,82,120,0
382.17426,382.26047,84,120,0
382.22598,382.42856,91,120,0
382.43286,382.52216,76,120,0
382.48645,382.5757,77,120,0
382.54,382.6293,76,120,0
382.5936,382.68286,77,120,0
382.64716,382.85696,73,120,0
382.86145,382.9507,88,120,0
382.915,383.0043,89,120,0
382.9686,383.05786,88,120,0
383.02216,383.11145,89,120,0
383.0757,383.28555,93,120,0
383.0757,383.28555,81,120,0
383.29,383.49985,89,120,0
383.29,383.49985,77,120,0
383.5043,383.7141,86,120,0
383.5043,383.7141,74,120,0
383.7186,383.9284,81,120,0
383.7186,383.9284,69,120,0
383.93286,384.1427,77,120,0
383.93286,384.1427,65,120,0
384.14716,384.35696,74,120,0
384.14716,384.35696,62,120,0
384.36145,384.57126,69,120,0
384.36145,384.57126,57,120,0
384.5757,384.79333,68,120,0
384.5757,384.79333,62,120,0
384.5757,384.79333,56,120,0
384.79794,385.01553,80,120,0
384.79794,385.01553,74,120,0
384.79794,385.01553,68,120,0
385.02017,385.26495,81,120,0
385.02017,385.26495,73,120,0
385.02017,385.26495,69,120,0
385.52017,385.76495,93,120,0
385.52017,385.76495,88,120,0
385.52017,385.76495,85,120,0
385.52017,385.76495,81,120,0
388.17535,388.58484,69,80,0
388.58914,388.99863,67,80,0
389.00293,389.4124,66,80,0
389.41672,389.8262,67,80,0
389.8305,390.24,69,80,0
390.2443,390.65378,62,80,0
390.6581,391.0676,64,80,0
390.6581,391.0676,62,80,0
391.0719,391.48138,66,80,0
391.0719,391.48138,60,80,0
391.4857,391.89517,59,80,0
391.4857,392.30896,67,80,0
391.89948,392.30896,61,80,0
392.31326,392.72275,66,80,0
392.31326,393.13654,62,80,0
392.72708,393.55035,64,80,0
393.14087,393.96414,61,80,0
393.96844,394.37793,63,80,0
394.38223,394.79172,64,80,0
393.55466,395.2055,69,80,0
394.79602,395.6193,66,80,0
395.20984,395.6193,71,80,0
395.62363,396.0331,73,80,0
395.62363,396.0331,64,80,0
396.0374,396.4469,74,80,0
396.0374,396.8607,62,80,0
396.4512,396.8607,69,80,0
396.865,397.27448,67,80,0
396.865,397.27448,64,80,0
397.27878,397.68826,57,80,0
397.27878,398.10205,66,80,0
397.6926,398.10205,58,80,0
398.10638,398.51587,59,80,0
398.52017,398.92966,61,80,0
398.10638,399.34344,64,80,0
398.93396,399.34344,62,80,0
399.34775,399.75723,76,80,0
399.34775,399.75723,69,80,0
399.76154,400.17102,74,80,0
399.76154,400.5848,71,80,0
400.17535,400.5848,73,80,0
400.58914,400.99863,74,80,0
400.58914,400.99863,69,80,0
401.00293,401.4124,76,80,0
401.00293,401.4124,67,80,0
401.41672,401.8262,69,80,0
401.41672,401.8262,66,80,0
401.8305,402.24,71,80,0
401.8305,402.24,67,80,0
402.2443,402.65378,72,80,0
402.2443,402.65378,69,80,0
402.6581,403.06757,62,80,0
402.6581,403.48138,74,80,0
403.0719,403.48138,64,80,0
403.4857,403.89517,66,80,0
403.4857,404.30896,72,80,0
403.89948,404.72275,67,80,0
404.31326,404.72275,71,80,0
404.72705,405.55035,66,80,0
404.72705,405.55035,69,80,0
405.55466,405.96414,67,80,0
405.55466,405.96414,64,80,0
405.96844,406.37793,66,80,0
405.96844,406.79172,62,80,0
406.38223,407.2055,64,80,0
406.79602,407.6193,61,80,0
407.2098,408.0331,69,80,0
408.0374,408.4469,66,80,0
407.62363,408.8607,63,80,0
408.4512,409.27448,71,80,0
408.865,409.27448,64,80,0
409.27878,409.68826,76,80,0
409.69257,410.10205,74,80,0
410.10638,410.51587,73,80,0
410.52017,410.92966,78,80,0
410.93396,411.34344,76,80,0
411.34775,411.75723,74,80,0
411.76154,412.17102,81,80,0
412.17532,412.5848,79,80,0
412.58914,412.99863,78,80,0
413.00293,413.4124,75,80,0
413.00293,413.4124,71,80,0
413.41672,413.8262,78,80,0
413.41672,413.8262,69,80,0
413.8305,414.24,71,80,0
413.8305,414.24,67,80,0
414.2443,414.65378,69,80,0
414.2443,414.65378,66,80,0
414.65808,415.06757,71,80,0
414.65808,415.06757,68,80,0
415.0719,415.48138,73,80,0
415.0719,415.48138,69,80,0
415.4857,415.89517,74,80,0
415.4857,415.89517,71,80,0
415.89948,416.30896,73,80,0
415.89948,416.72275,76,80,0
416.31326,416.72275,69,80,0
416.72705,417.13654,74,80,0
416.72705,417.13654,65,80,0
417.14084,417.55032,73,80,0
417.14084,417.55032,64,80,0
417.55466,419.2055,62,80,0
417.55466,419.2055,71,80,0
419.2098,419.6193,69,80,0
419.2098,419.6193,61,80,0
419.6236,420.4469,63,80,0
419.6236,420.4469,72,80,0
420.4512,420.86853,71,80,0
420.4512,420.86853,64,80,0
420.873,421.77896,67,80,0
420.873,421.77896,73,80,0
421.78397,422.27127,66,80,0
421.78397,422.27127,74,80,0
422.27646,422.79422,67,80,0
422.27646,423.35077,75,80,0
423.35672,423.94214,74,80,0
423.94836,424.58112,73,80,0
424.58807,424.7839,72,70,0
424.98807,425.0714,69,70,0
425.03806,425.1214,70,70,0
425.08807,425.1714,69,70,0
425.13806,425.2214,70,70,0
425.18808,425.2714,69,70,0
425.23807,425.3214,70,70,0
425.28806,425.3714,69,70,0
424.98807,425.3839,77,70,0
425.33807,425.4214,70,70,0
425.38806,425.4714,69,70,0
425.43808,425.5214,70,70,0
425.48807,425.5714,69,70,0
425.53806,425.6214,70,70,0
425.58807,425.6714,69,70,0
425.63806,425.7214,70,70,0
425.68808,425.7714,67,70,0
425.38806,425.7839,75,70,0
425.73807,425.8214,69,70,0
425.78806,426.1839,70,70,0
425.78806,426.1839,74,70,0
426.38806,426.4839,70,70,0
426.18808,426.5839,75,70,0
426.48807,426.5839,69,70,0
426.58807,426.6839,67,70,0
426.68808,426.7839,65,70,0
426.78806,426.8839,63,70,0
426.58807,426.9839,77,70,0
426.88806,426.9839,62,70,0
426.98807,427.3839,71,70,0
426.98807,427.3839,67,70,0
427.58807,427.6839,67,70,0
427.38806,427.7839,72,70,0
427.68808,427.7839,65,70,0
427.78806,427.8839,63,70,0
427.88806,427.9839,62,70,0
427.98807,428.0839,60,70,0
427.78806,428.1839,74,70,0
428.08807,428.1839,59,70,0
428.18808,428.3839,71,70,0
428.18808,428.5839,62,70,0
428.58807,428.9839,67,70,0
428.98807,429.3839,65,70,0
429.38806,429.7839,64,70,0
429.78806,430.1839,65,74,0
430.18808,430.5839,67,78,0
430.58807,430.9839,60,82,0
430.98807,431.3839,72,86,0
430.98807,431.3839,62,86,0
431.38806,431.7839,70,90,0
431.38806,431.7839,64,90,0
431.78806,432.1839,69,94,0
431.78806,432.1839,65,94,0
432.18808,432.5839,70,98,0
432.18808,432.5839,67,98,0
432.58807,432.9839,72,102,0
432.58807,432.9839,69,102,0
432.98807,433.1839,63,106,0
432.98807,433.1839,65,106,0
433.38806,433.4714,81,110,0
433.43808,433.5214,82,110,0
433.48807,433.5714,81,110,0
433.18808,433.5839,72,108,0
433.53806,433.6214,82,110,0
433.58807,433.6714,81,110,0
433.63806,433.7214,82,110,0
433.68808,433.7714,81,110,0
433.73807,433.8214,82,110,0
433.78806,433.8714,81,110,0
433.83807,433.9214,82,110,0
433.88806,433.9714,81,110,0
433.58807,433.9839,77,110,0
433.93808,434.0214,82,110,0
433.98807,434.0714,81,110,0
434.03806,434.1214,82,110,0
434.08807,434.1714,81,110,0
433.98807,434.1839,78,110,0
434.13806,434.2214,82,110,0
434.38806,434.4839,82,110,0
434.48807,434.5839,81,110,0
434.58807,434.6839,79,110,0
434.68808,434.7839,77,110,0
434.78806,434.8839,75,110,0
434.88806,434.9839,74,110,0
435.98807,436.0839,79,110,0
436.08807,436.1839,77,110,0
436.18808,436.2839,75,110,0
436.28806,436.3839,74,110,0
436.38806,436.4839,72,110,0
436.48807,436.5839,70,110,0
437.58807,437.6839,77,110,0
437.68808,437.7839,76,110,0
437.78806,437.8839,73,110,0
437.88806,437.9839,72,110,0
437.98807,438.0839,70,110,0
438.08807,438.1839,69,110,0
439.18808,439.2839,86,110,0
439.28806,439.3839,84,110,0
439.38806,439.4839,82,110,0
439.48807,439.5839,81,110,0
439.58807,439.6839,79,110,0
439.68808,439.7839,78,110,0
439.98807,440.0839,62,110,0
440.08807,440.1839,61,110,0
440.18808,440.2839,60,110,0
440.28806,440.3839,58,110,0
440.38806,440.4839,57,110,0
440.48807,440.5839,55,110,0
440.78806,440.8839,75,110,0
440.88806,440.9839,74,110,0
440.98807,441.0839,72,110,0
441.08807,441.1839,70,110,0
441.18808,441.2839,69,110,0
441.28806,441.3839,67,110,0
441.38806,441.4839,65,110,0
441.48807,441.5839,64,110,0
441.58807,441.6839,62,110,0
441.58807,441.7839,70,110,0
441.68808,441.7839,60,110,0
441.78806,441.8839,58,110,0
441.88806,441.9839,57,110,0
441.98807,442.0839,55,110,0
442.08807,442.1839,53,110,0
442.18808,442.2839,52,110,0
442.28806,442.3839,50,110,0
442.38806,442.4839,60,110,0
442.48807,442.5839,58,110,0
442.58807,442.6839,57,110,0
442.68808,442.7839,55,110,0
442.78806,442.8839,53,110,0
442.88806,442.9839,52,110,0
442.98807,443.0839,50,110,0
443.08807,443.1839,48,110,0
443.18808,443.2839,52,110,0
443.28806,443.3839,55,110,0
443.38806,443.5839,46,110,0
443.78806,443.8714,64,110,0
443.83807,443.9214,65,110,0
443.88806,443.9714,64,110,0
443.93808,444.0214,65,110,0
443.98807,444.0714,64,110,0
444.03806,444.1214,65,110,0
444.08807,444.1714,64,110,0
444.13806,444.2214,65,110,0
444.18808,444.2714,64,110,0
444.23807,444.3214,65,110,0
444.28806,444.3714,64,110,0
444.33807,444.4214,65,110,0
444.38806,444.4714,64,110,0
444.43808,444.5214,65,110,0
444.48807,444.5714,62,110,0
444.53806,444.6214,64,110,0
444.58807,444.9839,65,110,0
445.18808,445.2839,65,110,0
445.28806,445.3839,64,110,0
445.38806,445.4839,62,110,0
445.48807,445.5839,60,110,0
445.58807,445.6839,58,110,0
445.68808,445.7839,57,110,0
445.78806,446.1839,62,110,0
446.36307,446.4589,62,110,0
446.48807,446.5839,60,110,0
446.58807,446.6839,58,110,0
446.68808,446.7839,57,110,0
446.78806,446.8839,55,110,0
446.88806,446.9839,53,110,0
446.98807,447.3839,58,110,0
447.58807,447.6839,70,110,0
447.68808,447.7839,69,110,0
447.78806,447.8839,67,110,0
447.88806,447.9839,69,110,0
447.98807,448.0839,67,110,0
448.08807,448.1839,65,110,0
448.18808,448.2839,64,110,0
448.28806,448.3839,65,110,0
448.38806,448.4839,64,110,0
448.48807,448.5839,62,110,0
448.58807,448.6839,60,110,0
448.68808,448.7839,62,110,0
448.78806,448.8839,64,110,0
448.88806,448.9839,65,110,0
448.98807,449.0839,66,110,0
449.08807,449.1839,67,110,0
449.18808,449.2839,69,110,0
449.28806,449.3839,67,110,0
449.38806,449.4839,65,110,0
449.48807,449.5839,67,110,0
449.58807,449.6839,69,110,0
449.68808,449.7839,70,110,0
449.78806,449.8839,71,110,0
449.88806,449.9839,72,110,0
449.98807,450.0839,74,110,0
450.08807,450.1839,72,110,0
450.18808,450.2839,74,110,0
450.18808,450.3839,75,110,0
450.28806,450.3839,72,110,0
450.38806,450.4839,70,110,0
450.48807,450.5839,69,110,0
450.58807,450.6714,60,110,0
450.63806,450.7214,62,110,0
450.68808,450.7714,60,110,0
450.73807,450.8214,62,110,0
450.78806,450.8714,60,110,0
450.83807,450.9214,62,110,0
450.88806,450.9714,60,110,0
450.93808,451.0214,62,110,0
450.98807,451.0714,60,110,0
451.03806,451.1214,62,110,0
451.08807,451.1714,60,110,0
451.13806,451.2214,62,110,0
451.18808,451.2714,60,110,0
451.23807,451.3214,62,110,0
451.28806,451.3714,60,110,0
451.33807,451.4214,62,110,0
451.38806,451.7839,58,110,0
451.98807,452.0839,58,110,0
452.08807,452.1839,60,110,0
452.18808,452.2839,62,110,0
452.28806,452.3839,63,110,0
452.38806,452.4839,65,110,0
452.38806,452.4839,62,110,0
452.48807,452.5839,67,110,0
452.48807,452.5839,60,110,0
452.58807,452.6839,58,110,0
452.68808,452.7839,57,110,0
452.78806,452.8839,55,110,0
452.58807,452.9839,63,110,0
452.88806,452.9839,53,110,0
453.18808,453.2839,62,110,0
452.98807,453.3839,58,110,0
453.28806,453.3839,63,110,0
453.38806,453.4839,65,110,0
453.48807,453.5839,67,110,0
453.58807,453.6839,69,110,0
453.68808,453.7839,70,110,0
453.58807,453.8839,58,110,0
453.88806,453.9839,59,110,0
453.98807,454.0839,60,110,0
453.78806,454.1839,67,110,0
454.08807,454.1839,62,110,0
454.38806,454.4839,65,110,0
454.18808,454.5839,63,110,0
454.48807,454.5839,67,110,0
454.58807,454.6839,69,110,0
454.68808,454.7839,67,110,0
454.78806,454.8839,69,110,0
454.88806,454.9839,70,110,0
454.98807,455.0839,72,110,0
454.78806,455.1839,63,110,0
455.08807,455.1839,70,110,0
455.18808,455.2839,72,110,0
455.28806,455.3839,74,110,0
455.38806,455.4839,75,110,0
455.18808,455.5839,64,110,0
455.48807,455.5839,74,110,0
455.58807,455.6839,72,110,0
455.68808,455.7839,74,110,0
455.78806,455.8839,75,110,0
455.88806,455.9839,74,110,0
455.98807,456.0839,73,110,0
456.08807,456.1839,72,110,0
456.18808,456.2839,70,110,0
455.58807,456.3839,65,110,0
456.28806,456.3839,69,110,0
456.38806,456.4839,67,110,0
456.38806,456.5839,63,110,0
456.48807,456.5839,69,110,0
456.58807,456.6839,70,110,0
456.68808,456.7839,69,110,0
456.78806,456.8839,67,110,0
456.58807,456.9839,62,110,0
456.88806,457.0839,65,110,0
456.98807,457.1839,60,110,0
457.08807,457.1839,78,110,0
457.18808,457.2839,79,110,0
457.28806,457.3839,77,110,0
457.38806,457.4839,75,110,0
457.48807,457.5839,74,110,0
457.58807,457.6839,72,110,0
457.68808,457.7839,70,110,0
457.78806,457.8839,69,110,0
457.88806,457.9839,70,110,0
457.98807,458.0839,69,110,0
458.08807,458.1839,67,110,0
458.18808,458.2839,65,110,0
458.28806,458.3839,67,110,0
458.38806,458.4839,69,110,0
458.48807,458.5839,70,110,0
458.58807,458.6839,72,110,0
458.68808,458.7839,73,110,0
458.78806,458.8839,74,110,0
458.88806,458.9839,72,110,0
458.98807,459.0839,74,110,0
458.98807,459.1839,70,110,0
459.08807,459.1839,76,110,0
459.21307,459.3089,77,110,0
459.28806,459.4839,79,110,0
459.48807,459.5839,72,110,0
459.58807,459.6839,74,110,0
459.68808,459.7839,76,110,0
459.78806,459.8839,77,110,0
459.88806,459.9839,79,110,0
459.98807,460.0839,81,110,0
460.08807,460.1839,82,110,0
460.18808,460.2839,84,110,0
460.28806,460.3839,81,110,0
460.38806,460.4839,79,110,0
460.48807,460.5839,77,110,0
460.58807,460.6839,75,110,0
460.68808,460.7839,74,110,0
460.78806,460.8839,76,110,0
460.88806,460.9839,78,110,0
460.98807,461.0839,79,110,0
461.08807,461.1839,81,110,0
461.18808,461.2839,82,110,0
461.28806,461.3839,84,110,0
461.38806,461.4839,86,110,0
461.48807,461.5839,82,110,0
461.58807,461.6839,81,110,0
461.68808,461.7839,79,110,0
461.78806,461.8839,77,110,0
461.88806,461.9839,75,110,0
461.98807,462.0839,77,110,0
462.08807,462.1839,79,110,0
462.18808,462.2839,81,110,0
462.28806,462.3839,82,110,0
462.38806,462.4839,84,110,0
462.48807,462.5839,86,110,0
462.58807,462.7839,87,110,0
462.98807,463.0714,72,110,0
463.03806,463.1214,74,110,0
463.08807,463.1714,72,110,0
463.13806,463.2214,74,110,0
463.18808,463.2714,72,110,0
463.23807,463.3214,74,110,0
463.28806,463.3714,72,110,0
462.98807,463.3839,69,110,0
463.33807,463.4214,74,110,0
463.38806,463.4714,72,110,0
463.43808,463.5214,74,110,0
463.48807,463.5714,72,110,0
463.53806,463.6214,74,110,0
463.58807,463.6714,72,110,0
463.63806,463.7214,74,110,0
463.68808,463.7714,72,110,0
463.38806,463.7839,63,110,0
463.73807,463.8214,74,110,0
463.78806,463.9839,62,110,0
463.78806,464.1839,70,110,0
463.98807,464.1839,61,110,0
464.18808,464.2714,70,110,0
464.23807,464.3214,72,110,0
464.28806,464.3714,70,110,0
464.33807,464.4214,72,110,0
464.38806,464.4714,70,110,0
464.43808,464.5214,72,110,0
464.48807,464.5714,70,110,0
464.18808,464.5839,67,110,0
464.53806,464.6214,72,110,0
464.58807,464.6714,70,110,0
464.63806,464.7214,72,110,0
464.68808,464.7714,70,110,0
464.73807,464.8214,72,110,0
464.78806,464.8714,70,110,0
464.83807,464.9214,72,110,0
464.88806,464.9714,70,110,0
464.58807,464.9839,61,110,0
464.93808,465.0214,72,110,0
464.98807,465.1839,69,110,0
464.98807,465.1839,60,110,0
465.18808,465.3839,68,110,0
465.18808,465.3839,59,110,0
465.38806,465.4714,68,110,0
465.43808,465.5214,70,110,0
465.48807,465.5714,68,110,0
465.53806,465.6214,70,110,0
465.58807,465.6714,68,110,0
465.63806,465.7214,70,110,0
465.68808,465.7714,68,110,0
465.38806,465.7839,65,110,0
465.73807,465.8214,70,110,0
465.78806,465.8714,68,110,0
465.83807,465.9214,70,110,0
465.88806,465.9714,68,110,0
465.93808,466.0214,70,110,0
465.98807,466.0714,68,110,0
466.03806,466.1214,70,110,0
466.08807,466.1714,68,110,0
465.78806,466.1839,59,110,0
466.13806,466.2214,70,110,0
466.18808,466.3839,58,110,0
466.18808,466.5839,67,110,0
466.38806,466.5839,64,110,0
466.58807,466.6839,49,110,0
466.68808,466.7839,48,110,0
466.78806,466.8839,50,110,0
466.88806,466.9839,52,110,0
466.98807,467.0839,53,110,0
467.08807,467.1839,55,110,0
467.18808,467.2839,57,110,0
467.18808,467.3839,67,110,0
467.28806,467.3839,58,110,0
467.38806,467.4839,60,110,0
467.38806,467.5839,64,110,0
467.48807,467.5839,57,110,0
467.58807,467.6839,55,110,0
467.58807,467.7839,65,110,0
467.68808,467.7839,53,110,0
467.78806,467.8839,51,110,0
467.88806,467.9839,50,110,0
467.98807,468.0839,52,110,0
468.08807,468.1839,54,110,0
468.18808,468.2839,55,110,0
468.28806,468.3839,57,110,0
468.38806,468.4839,58,110,0
468.38806,468.5839,69,110,0
468.48807,468.5839,60,110,0
468.58807,468.6839,62,110,0
468.58807,468.7839,66,110,0
468.68808,468.7839,58,110,0
468.78806,468.8839,57,110,0
468.78806,468.9839,67,110,0
468.88806,468.9839,55,110,0
468.98807,469.0839,53,110,0
469.08807,469.1839,51,110,0
469.18808,469.2839,53,110,0
469.28806,469.3839,55,110,0
469.38806,469.4839,57,110,0
469.48807,469.5839,58,110,0
469.58807,469.6839,60,110,0
469.58807,469.7839,70,110,0
469.68808,469.7839,62,110,0
469.78806,469.8839,63,110,0
469.78806,469.9839,67,110,0
469.88806,469.9839,60,110,0
469.98807,470.0839,58,110,0
469.98807,470.1839,69,110,0
470.08807,470.1839,57,110,0
470.18808,470.2839,69,110,0
470.18808,470.3839,72,110,0
470.28806,470.3839,65,110,0
470.38806,470.4839,67,110,0
470.48807,470.5839,69,110,0
470.58807,470.6839,70,110,0
470.38806,470.7839,77,110,0
470.68808,470.7839,69,110,0
470.78806,470.8839,70,110,0
470.78806,470.9839,74,110,0
470.88806,470.9839,65,110,0
470.98807,471.0839,67,110,0
470.98807,471.1839,72,110,0
471.08807,471.1839,65,110,0
471.18808,471.2839,67,110,0
471.18808,471.3839,70,110,0
471.28806,471.4839,60,110,0
471.38806,471.5839,69,110,0
471.58807,471.7839,68,110,0
471.78806,471.8839,67,110,0
471.88806,471.9839,69,110,0
471.98807,472.0839,71,110,0
472.08807,472.1839,72,110,0
472.18808,472.2839,73,110,0
471.78806,472.3839,79,127,0
472.28806,472.3839,74,110,0
472.38806,472.4839,75,110,0
472.38806,472.5839,77,110,0
472.48807,472.5839,74,110,0
472.58807,472.7839,77,110,0
472.78806,472.9839,75,110,0
472.98807,473.1839,74,110,0
473.18808,473.3839,72,110,0
473.38806,473.5839,71,110,0
473.58807,473.7839,72,110,0
473.78806,473.8839,69,110,0
473.78806,473.9839,77,110,0
473.88806,473.9839,70,110,0
473.98807,474.0839,69,110,0
474.08807,474.1839,67,110,0
474.18808,474.2839,65,110,0
474.28806,474.3839,67,110,0
474.38806,474.4839,69,110,0
474.48807,474.5839,70,110,0
474.58807,474.6839,71,110,0
474.18808,474.7839,75,127,0
474.68808,474.7839,72,110,0
474.78806,474.8839,74,110,0
474.78806,474.9839,75,110,0
474.88806,474.9839,72,110,0
474.98807,475.1839,75,110,0
475.18808,475.3839,74,110,0
475.38806,475.5839,72,110,0
475.58807,475.7839,70,110,0
475.78806,475.9839,69,110,0
475.98807,476.1839,70,110,0
476.18808,476.2839,59,110,0
476.28806,476.3839,60,110,0
476.38806,476.4839,59,110,0
476.48807,476.5839,57,110,0
476.58807,476.6839,55,110,0
476.68808,476.7839,57,110,0
476.78806,476.8839,59,110,0
476.88806,476.9839,60,110,0
476.98807,477.0839,61,110,0
477.08807,477.1839,62,110,0
477.18808,477.2839,63,110,0
477.28806,477.3839,62,110,0
477.38806,477.4839,60,110,0
477.38806,477.5839,72,110,0
477.48807,477.5839,62,110,0
477.58807,477.6839,64,110,0
477.68808,477.7839,65,110,0
477.78806,477.8839,66,110,0
477.88806,477.9839,67,110,0
477.98807,478.0839,68,110,0
478.08807,478.1839,67,110,0
478.18808,478.2839,65,110,0
477.78806,478.3839,70,127,0
478.28806,478.3839,63,110,0
478.38806,478.4839,61,110,0
478.38806,478.5839,70,110,0
478.48807,478.5839,60,110,0
478.58807,478.6839,69,110,0
478.68808,478.7839,70,110,0
478.78806,478.8839,69,110,0
478.88806,478.9839,67,110,0
478.98807,479.0839,65,110,0
479.08807,479.1839,67,110,0
479.18808,479.2839,69,110,0
479.28806,479.3839,70,110,0
479.38806,479.4839,71,110,0
479.48807,479.5839,72,110,0
479.58807,479.6839,74,110,0
479.68808,479.7839,72,110,0
479.78806,479.8839,70,110,0
479.88806,479.9839,72,110,0
479.98807,480.0839,74,110,0
480.08807,480.1839,75,110,0
480.18808,480.2839,76,110,0
480.28806,480.3839,77,110,0
480.38806,480.4839,79,110,0
480.48807,480.5839,77,110,0
480.58807,480.6839,71,110,0
480.68808,480.7839,74,110,0
480.78806,480.8839,75,110,0
480.88806,480.9839,77,110,0
480.98807,481.0839,71,110,0
481.08807,481.1839,72,110,0
481.18808,481.2839,74,110,0
481.28806,481.3839,72,110,0
481.38806,481.4839,74,110,0
481.48807,481.5839,75,110,0
481.58807,481.6839,77,110,0
481.68808,481.7839,75,110,0
481.78806,481.8839,69,110,0
481.88806,481.9839,72,110,0
481.98807,482.0839,74,110,0
482.08807,482.1839,75,110,0
482.18808,482.2839,76,110,0
482.28806,482.3839,77,110,0
482.38806,482.4839,79,110,0
482.48807,482.5839,77,110,0
482.58807,482.6839,81,110,0
482.68808,482.7839,82,110,0
482.78806,482.8839,84,110,0
482.88806,482.9839,82,110,0
482.98807,483.0839,78,110,0
483.08807,483.1839,79,110,0
483.18808,483.2839,81,110,0
483.28806,483.3839,79,110,0
483.38806,483.4839,80,110,0
483.48807,483.5839,81,110,0
483.58807,483.6839,82,110,0
483.68808,483.7839,81,110,0
483.78806,483.8839,83,110,0
483.88806,483.9839,84,110,0
483.98807,484.0839,86,110,0
484.08807,484.1839,84,110,0
484.18808,484.2839,76,110,0
484.28806,484.3839,78,110,0
484.38806,484.4839,79,110,0
484.48807,484.5839,78,110,0
484.58807,484.6839,79,110,0
484.68808,484.7839,80,110,0
484.78806,484.8839,81,110,0
484.88806,484.9839,79,110,0
484.98807,485.0839,82,110,0
485.08807,485.1839,83,110,0
485.18808,485.2839,84,110,0
485.28806,485.3839,82,110,0
485.38806,485.4839,80,110,0
485.48807,485.5839,81,110,0
485.58807,485.6839,82,110,0
485.68808,485.7839,81,110,0
485.78806,485.8839,85,110,0
485.88806,485.9839,86,110,0
485.98807,486.0839,87,110,0
486.08807,486.1839,86,110,0
486.18808,486.2839,83,110,0
486.28806,486.3839,84,110,0
486.38806,486.4839,86,110,0
486.48807,486.5839,82,110,0
486.58807,486.6839,73,110,0
486.68808,486.7839,74,110,0
486.78806,486.8839,72,110,0
486.88806,486.9839,70,110,0
486.98807,487.0839,69,110,0
486.98807,487.1839,71,110,0
487.08807,487.1839,62,110,0
487.18808,487.2839,67,110,0
487.18808,487.3839,72,110,0
487.28806,487.3839,64,111,0
487.38806,487.4839,62,111,0
487.38806,487.5839,70,111,0
487.48807,487.5839,63,112,0
487.58807,487.6839,61,112,0
487.58807,487.7839,69,112,0
487.68808,487.7839,62,113,0
487.78806,487.8872,70,113,0
487.78806,487.99066,73,113,0
487.8915,487.99066,63,113,0
487.99496,488.09412,69,114,0
487.99496,488.19754,74,114,0
488.09842,488.19754,66,114,0
488.20187,488.301,63,115,0
488.20187,488.40445,72,115,0
488.3053,488.40445,66,115,0
488.40875,488.5079,62,116,0
488.40875,488.61133,70,116,0
488.5122,488.61133,67,116,0
488.61566,488.71832,70,116,0
488.61566,488.82547,75,116,0
488.7228,488.82547,69,117,0
488.82993,488.93262,70,117,0
488.82993,489.03976,76,117,0
488.93707,489.03976,67,118,0
489.04422,489.15482,73,118,0
489.04422,489.27017,78,118,0
489.1596,489.27017,72,119,0
489.275,489.38556,73,119,0
489.275,489.50095,79,119,0
489.39038,489.50095,70,119,0
489.50577,489.73172,70,125,0
489.50577,489.73172,67,125,0
489.50577,489.73172,64,125,0
489.9673,490.05658,88,110,0
490.02087,490.11017,89,110,0
490.07443,490.16373,88,110,0
490.12802,490.2173,89,110,0
490.18158,490.27087,88,110,0
490.23517,490.32443,89,110,0
490.28873,490.37802,88,110,0
490.3423,490.43158,89,110,0
490.39587,490.48517,88,110,0
490.44943,490.53873,89,110,0
490.50302,490.5923,88,110,0
490.55658,490.64587,89,110,0
490.61017,490.69943,88,110,0
490.66373,490.75302,89,110,0
490.7173,490.80658,86,110,0
489.9673,490.81998,85,110,0
489.9673,490.81998,82,110,0
490.77087,490.85892,88,110,0
490.82443,491.23392,91,110,0
491.03134,491.23392,58,90,0
491.23822,491.32156,76,90,0
491.28824,491.37158,77,90,0
491.33823,491.42157,76,90,0
491.38824,491.47156,77,90,0
491.43823,491.52158,76,90,0
491.48822,491.57156,77,90,0
491.53824,491.62158,76,90,0
491.58823,491.67157,77,90,0
491.63824,491.72156,76,90,0
491.68823,491.77158,77,90,0
491.73822,491.82156,76,90,0
491.78824,491.87158,77,90,0
491.83823,491.92157,76,90,0
491.88824,491.97156,77,90,0
491.93823,492.02158,74,90,0
491.98822,492.07156,76,90,0
492.03824,492.43408,77,90,0
492.23822,492.43408,81,90,0
492.43823,492.63406,93,90,0
492.63824,492.83408,64,90,0
492.83823,493.03406,65,90,0
493.23822,493.63406,74,90,0
493.43823,493.63406,77,90,0
493.63824,493.83408,89,90,0
493.83823,494.03406,61,90,0
494.03824,494.23407,62,90,0
494.43823,494.83408,70,90,0
494.63824,494.83408,74,90,0
494.83823,495.03406,86,90,0
495.03824,495.23407,84,90,0
495.23822,495.43408,82,90,0
495.43823,495.63406,83,90,0
495.63824,495.83408,84,90,0
496.03824,496.63406,82,90,0
496.63824,496.83408,82,90,0
496.83823,496.93408,77,90,0
496.93823,497.03406,79,90,0
497.03824,497.13406,81,90,0
497.13824,497.23407,82,90,0
497.23822,497.33408,83,90,0
497.33823,497.43408,84,90,0
497.43823,497.53406,86,90,0
497.53824,497.63406,84,90,0
497.63824,497.73407,82,90,0
497.73822,497.83408,81,90,0
497.83823,497.93408,79,90,0
497.93823,498.03406,77,90,0
498.03824,498.23407,86,90,0
498.43823,499.03406,84,90,0
499.03824,499.23407,84,90,0
499.23822,499.33408,79,90,0
499.33823,499.43408,81,90,0
499.43823,499.53406,82,90,0
499.53824,499.63406,84,90,0
499.63824,499.73407,85,90,0
499.73822,499.83408,86,90,0
499.83823,499.93408,87,90,0
499.93823,500.03406,86,90,0
500.03824,500.13406,84,90,0
500.13824,500.23407,82,90,0
500.23822,500.33408,81,90,0
500.33823,500.43408,79,90,0
500.43823,500.63406,89,90,0
500.83823,501.43408,87,90,0
501.43823,501.63406,87,90,0
501.63824,501.73407,82,90,0
501.73822,501.83408,84,90,0
501.83823,501.93408,86,91,0
501.93823,502.03406,87,92,0
502.03824,502.13406,88,93,0
502.13824,502.23407,89,94,0
502.23822,502.33408,91,95,0
502.33823,502.43408,89,96,0
502.43823,502.53406,88,96,0
502.53824,502.63406,89,97,0
502.63824,502.73407,90,98,0
502.73822,502.83408,89,99,0
502.83823,502.93408,86,100,0
502.93823,503.03406,87,101,0
503.03824,503.13406,89,102,0
503.13824,503.23407,87,103,0
503.23822,503.33408,84,103,0
503.33823,503.43408,85,104,0
503.43823,503.53406,87,105,0
503.53824,503.63406,85,106,0
503.63824,503.73407,83,107,0
503.73822,503.83408,84,108,0
503.83823,503.93408,85,109,0
503.93823,504.03406,84,109,0
504.03824,504.23407,75,110,0
504.23822,504.43408,90,110,0
504.43823,504.53406,77,110,0
504.53824,504.63406,75,110,0
504.63824,504.73407,77,110,0
504.73822,504.83408,75,110,0
504.83823,504.93408,77,110,0
504.93823,505.03406,75,110,0
505.03824,505.13406,74,110,0
504.43823,505.23407,72,110,0
505.13824,505.23407,75,110,0
504.43823,505.43408,66,110,0
505.23822,505.63406,70,110,0
505.23822,505.63406,74,110,0
505.43823,505.63406,65,110,0
505.43823,505.63406,58,110,0
505.63824,505.83408,70,110,0
505.83823,505.93408,74,110,0
505.93823,506.03406,75,110,0
506.03824,506.13406,77,110,0
506.13824,506.23407,79,110,0
506.23822,506.33408,81,110,0
506.33823,506.43408,82,110,0
506.43823,506.83408,77,110,0
506.63824,506.83408,62,110,0
506.83823,507.03406,74,110,0
507.03824,507.13406,77,110,0
507.13824,507.23407,79,110,0
507.23822,507.33408,81,110,0
507.33823,507.43408,82,110,0
507.43823,507.53406,84,110,0
507.53824,507.63406,86,110,0
507.63824,508.03406,79,110,0
507.83823,508.03406,63,110,0
508.03824,508.23407,75,110,0
508.23822,508.33408,79,110,0
508.33823,508.43408,81,110,0
508.43823,508.53406,82,110,0
508.53824,508.63406,83,110,0
508.63824,508.73407,84,110,0
508.73822,508.83408,86,110,0
508.83823,509.03406,87,110,0
509.03824,509.33408,88,110,0
509.33823,509.43408,89,110,0
509.43823,509.53406,87,110,0
509.53824,509.63406,86,110,0
509.63824,509.72156,69,110,0
509.63824,509.73407,84,110,0
509.68823,509.77158,70,110,0
509.73822,509.82156,69,110,0
509.73822,509.83408,82,110,0
509.78824,509.87158,70,110,0
509.83823,509.92157,69,110,0
509.83823,509.93408,81,110,0
509.88824,509.97156,70,110,0
509.93823,510.02158,69,110,0
509.93823,510.03406,79,110,0
509.98822,510.07156,70,110,0
510.03824,510.12158,69,110,0
510.03824,510.13406,77,110,0
510.08823,510.17157,70,110,0
510.13824,510.22156,69,110,0
510.13824,510.23407,79,110,0
510.18823,510.27158,70,110,0
510.23822,510.32156,69,110,0
510.23822,510.33408,77,110,0
510.28824,510.37158,70,110,0
510.33823,510.42157,67,110,0
510.33823,510.43408,75,110,0
510.38824,510.47156,69,110,0
510.43823,510.53406,74,110,0
510.53824,510.63406,75,110,0
510.63824,510.73407,77,110,0
510.43823,510.83408,70,110,0
510.73822,510.83408,76,110,0
510.83823,511.03406,77,110,0
511.03824,511.13406,70,110,0
511.13824,511.23407,69,110,0
511.23822,511.33408,67,110,0
511.33823,511.43408,65,110,0
511.43823,511.53406,63,110,0
511.53824,511.63406,62,110,0
511.63824,511.83408,59,110,0
511.63824,512.03406,67,110,0
512.0382,512.1216,75,110,0
512.08826,512.1716,77,110,0
512.13824,512.22156,75,110,0
512.18823,512.27155,77,110,0
512.2382,512.3216,75,110,0
512.2382,512.33405,67,110,0
512.2882,512.3716,77,110,0
512.33826,512.4216,75,110,0
512.33826,512.4341,65,110,0
512.38824,512.47156,77,110,0
512.43823,512.52155,75,110,0
512.43823,512.53406,63,110,0
512.4882,512.5716,77,110,0
512.5382,512.6216,75,110,0
512.5382,512.6341,62,110,0
512.58826,512.6716,77,110,0
512.63824,512.72156,75,110,0
512.63824,512.7341,60,110,0
512.68823,512.77155,77,110,0
512.7382,512.8216,74,110,0
512.7382,512.83405,58,110,0
512.7882,512.8716,75,110,0
512.83826,513.2341,79,110,0
512.83826,513.2341,63,110,0
513.43823,513.53406,79,110,0
513.43823,513.53406,63,110,0
513.5382,513.6341,77,110,0
513.5382,513.6341,62,110,0
513.63824,513.7341,75,110,0
513.63824,513.7341,60,110,0
513.7382,513.83405,74,110,0
513.7382,513.83405,59,110,0
513.83826,513.9341,72,110,0
513.83826,513.9341,57,110,0
513.93823,514.03406,71,110,0
513.93823,514.03406,55,110,0
514.0382,514.4341,72,110,0
514.0382,514.4341,63,110,0
514.63824,514.7341,72,110,0
514.43823,514.83405,67,110,0
514.7382,514.83405,70,110,0
514.83826,514.9341,69,110,0
514.93823,515.03406,67,110,0
515.0382,515.1341,65,110,0
514.83826,515.2341,60,110,0
515.13824,515.2341,64,110,0
515.2382,515.33405,62,110,0
515.33826,515.4341,60,110,0
515.43823,515.53406,58,110,0
515.5382,515.6341,57,110,0
515.63824,515.83405,69,110,0
515.83826,515.9341,62,110,0
515.93823,516.03406,60,110,0
516.0382,516.1341,58,110,0
516.13824,516.2341,57,110,0
516.2382,516.33405,55,110,0
516.33826,516.4341,53,110,0
516.43823,516.53406,52,110,0
516.5382,516.6341,50,110,0
516.63824,516.7341,48,110,0
516.7382,516.83405,46,110,0
516.83826,517.03406,58,110,0
517.0382,517.1341,75,110,0
517.13824,517.2341,74,110,0
517.2382,517.33405,72,110,0
517.33826,517.4341,70,110,0
517.43823,517.53406,69,110,0
517.5382,517.6341,67,110,0
517.63824,517.7341,65,110,0
517.7382,517.83405,63,110,0
517.83826,517.9341,62,110,0
517.93823,518.03406,60,110,0
518.0382,518.2341,72,110,0
518.2382,518.33405,60,110,0
518.33826,518.4341,58,110,0
519.2382,519.33405,74,110,0
519.2382,519.4341,62,110,0
519.33826,519.4341,72,110,0
519.43823,519.53406,77,110,0
519.5382,519.6341,75,110,0
519.63824,519.7341,74,110,0
519.7382,519.83405,72,110,0
519.83826,519.9341,70,110,0
519.93823,520.03406,69,110,0
520.0382,520.1341,79,110,0
520.13824,520.2341,77,110,0
520.2382,520.33405,75,110,0
520.33826,520.4341,74,110,0
520.43823,520.53406,82,110,0
520.5382,520.6341,81,110,0
520.63824,520.7341,79,110,0
520.43823,520.83405,74,110,0
520.7382,520.83405,77,110,0
520.83826,521.03406,75,110,0
520.83826,521.03406,67,110,0
521.0382,521.2341,72,110,0
521.2382,521.3216,93,120,0
521.2882,521.3716,94,120,0
521.33826,521.4216,93,120,0
521.38824,521.47156,94,120,0
521.43823,521.52155,93,120,0
521.4882,521.5716,94,120,0
521.5382,521.6216,93,120,0
521.43823,521.6341,72,108,0
521.58826,521.6716,94,120,0
521.63824,521.72156,93,120,0
521.68823,521.77155,94,120,0
521.7382,521.8216,93,120,0
521.7882,521.8716,94,120,0
521.83826,521.9216,93,120,0
521.88824,521.97156,94,120,0
521.93823,522.02155,91,120,0
521.83826,522.03406,77,108,0
521.9882,522.0716,93,120,0
522.0382,522.4341,94,120,0
522.2382,522.4341,74,110,0
522.63824,522.7341,94,110,0
522.7382,522.83405,93,110,0
522.83826,522.9341,91,110,0
522.93823,523.03406,89,110,0
523.0382,523.1341,87,110,0
523.13824,523.2341,86,110,0
523.2382,523.4341,91,110,0
523.43823,523.6341,67,110,0
523.63824,523.72156,67,110,0
523.68823,523.77155,69,110,0
523.7382,523.8216,67,110,0
523.7882,523.8716,69,110,0
523.83826,523.9216,67,110,0
523.83826,523.9341,91,110,0
523.88824,523.97156,69,110,0
523.93823,524.02155,67,110,0
523.93823,524.03406,89,110,0
523.9882,524.0716,69,110,0
524.0382,524.1216,67,110,0
524.0382,524.1341,87,110,0
524.08826,524.1716,69,110,0
524.13824,524.22156,67,110,0
524.21326,524.22156,67,110,0
524.13824,524.2341,86,110,0
524.18823,524.27155,69,110,0
524.26324,524.27155,69,110,0
524.2382,524.33405,84,110,0
524.31323,524.39655,67,110,0
524.33826,524.4341,82,110,0
524.3632,524.4466,69,110,0
524.43823,524.6341,67,110,0
524.43823,524.83405,87,110,0
524.63824,524.83405,68,110,0
524.83826,525.03406,69,110,0
525.0382,525.1341,87,110,0
525.13824,525.2341,86,110,0
525.2382,525.33405,84,110,0
525.33826,525.4341,86,110,0
525.43823,525.53406,84,110,0
525.5382,525.6341,82,110,0
525.63824,525.7341,81,110,0
525.7382,525.83405,82,110,0
525.83826,525.9341,81,110,0
525.93823,526.03406,79,110,0
526.0382,526.1341,77,110,0
526.13824,526.2341,79,110,0
526.2382,526.33405,81,110,0
526.33826,526.4341,82,110,0
526.43823,526.53406,83,110,0
526.5382,526.6341,84,110,0
526.63824,526.7341,86,110,0
526.7382,526.83405,84,110,0
526.83826,526.9341,82,110,0
526.93823,527.03406,84,110,0
527.0382,527.1341,86,110,0
527.13824,527.2341,87,110,0
527.2382,527.33405,89,110,0
527.33826,527.4341,80,110,0
527.43823,527.53406,81,110,0
527.5382,527.6341,82,110,0
527.63824,527.83405,84,110,0
527.83826,528.03406,82,110,0
528.0382,528.2341,82,110,0
528.0382,528.2341,79,110,0
528.2382,528.4341,80,110,0
528.2382,528.4341,77,110,0
528.43823,528.6408,79,110,0
528.43823,528.6408,70,110,0
528.64514,528.8477,77,110,0
528.64514,528.8477,68,110,0
528.85205,529.0546,92,125,0
528.85205,529.0546,89,125,0
529.0589,529.26154,91,125,0
529.0589,529.26154,87,125,0
529.2658,529.4802,91,125,0
529.2658,529.4802,86,125,0
529.4848,529.6992,87,125,0
529.4848,529.6992,84,125,0
529.7038,529.9182,86,125,0
529.7038,529.9182,82,125,0
529.9227,530.13715,89,125,0
529.9227,530.13715,86,125,0
530.1417,530.3677,81,125,0
530.1417,530.3677,75,125,0
530.1417,530.3677,72,125,0
530.3725,530.59845,82,125,0
530.3725,530.59845,74,125,0
530.3725,530.59845,70,125,0
531.0171,531.21967,80,80,0
531.43085,531.5171,66,80,0
531.4826,531.5688,67,80,0
531.5343,531.6205,66,81,0
531.58606,531.67224,67,82,0
531.63776,531.72394,66,82,0
531.68945,531.7757,67,83,0
531.7412,531.8274,66,84,0
531.7929,531.87915,67,85,0
531.84467,531.93085,66,85,0
531.89636,531.9826,67,86,0
531.9481,532.0343,66,87,0
531.9998,532.08606,67,88,0
532.0516,532.13776,66,88,0
532.1033,532.18945,67,89,0
532.15497,532.2412,66,90,0
532.2067,532.2929,67,91,0
532.2584,532.46106,78,91,0
532.67224,532.7584,63,97,0
532.72394,532.8102,65,98,0
532.7757,532.8619,63,99,0
532.8274,532.91364,65,100,0
532.87915,532.96533,63,100,0
532.93085,533.0171,65,101,0
532.9826,533.0688,63,102,0
533.0343,533.1205,65,103,0
533.08606,533.17224,63,103,0
533.13776,533.22394,65,104,0
533.18945,533.2757,63,105,0
533.2412,533.3274,65,106,0
533.2929,533.37915,63,106,0
533.34467,533.43085,65,107,0
533.39636,533.4826,62,108,0
533.4481,533.4955,63,120,0
533.4998,533.59894,66,120,0
533.6033,533.7024,45,120,0
533.7067,533.80585,48,120,0
533.8102,533.9093,51,120,0
533.91364,534.01276,54,120,0
534.0171,534.1162,57,120,0
534.1205,534.21967,60,120,0
534.22394,534.3231,63,120,0
534.3274,534.4266,66,120,0
534.43085,534.52997,57,120,0
534.5343,534.6334,60,120,0
534.63776,534.7369,63,120,0
534.7412,534.84033,66,120,0
534.84467,534.9438,69,120,0
534.9481,535.04724,72,120,0
535.0516,535.1507,75,120,0
535.15497,535.25415,78,120,0
535.2584,535.3576,69,120,0
535.3619,535.461,72,120,0
535.46533,535.56445,75,120,0
535.5688,535.6679,78,120,0
535.67224,535.77136,81,120,0
535.7757,535.8748,84,120,0
535.87915,535.9783,87,120,0
535.9826,536.0817,90,120,0
536.086,536.1852,69,120,0
536.18945,536.28864,72,120,0
536.2929,536.3921,75,120,0
536.39636,536.4955,78,120,0
536.4998,536.59894,57,120,0
536.6033,536.7024,60,120,0
536.7067,536.80585,63,120,0
536.8102,536.9093,66,120,0
536.91364,537.01276,45,120,0
537.0171,537.1162,48,120,0
537.1205,537.21967,51,120,0
537.22394,537.6334,54,120,0
537.63776,538.25415,42,120,0
537.63776,538.25415,45,120,0
537.63776,538.25415,51,120,0
538.2584,538.461,50,99,0
538.2584,538.461,44,99,0
538.2584,538.461,41,99,0
538.46533,538.56445,70,92,0
538.5688,538.6679,68,88,0
538.67224,538.77136,70,84,0
538.7757,538.8748,68,81,0
538.87915,538.9783,70,80,0
538.9826,539.0817,68,80,0
539.086,539.1852,67,80,0
539.18945,539.28864,68,80,0
539.2929,539.7024,71,80,0
539.4998,539.7024,56,80,0
539.7067,539.9093,68,80,0
539.91364,540.01276,71,80,0
539.91364,540.1162,79,80,0
540.0171,540.1162,70,80,0
540.1205,540.21967,68,80,0
540.1205,540.3231,80,80,0
540.22394,540.3231,67,80,0
540.3274,540.4266,65,80,0
540.43085,540.52997,63,80,0
540.5343,540.9438,68,80,0
540.7412,540.9438,53,80,0
540.9481,541.1507,65,80,0
541.15497,541.25415,68,80,0
541.15497,541.3576,76,80,0
541.2584,541.3576,66,80,0
541.3619,541.461,65,80,0
541.3619,541.56445,77,80,0
541.46533,541.56445,63,80,0
541.5688,541.6679,62,80,0
541.67224,541.77136,59,80,0
541.7757,542.1852,66,80,0
541.9826,542.1852,51,80,0
542.18945,542.3921,63,80,0
542.39636,542.4955,66,80,0
542.39636,542.59894,74,80,0
542.4998,542.59894,65,80,0
542.6033,542.7024,63,80,0
542.6033,542.80585,75,80,0
542.7067,542.80585,61,80,0
542.8102,542.9093,59,80,0
542.91364,543.01276,58,80,0
542.8102,543.1162,63,80,0
543.0171,543.21967,57,80,0
543.1205,543.21967,65,80,0
543.22394,543.3231,63,80,0
543.3274,543.4265,62,80,0
543.43085,543.52997,63,80,0
543.5343,543.6334,61,80,0
543.63776,543.7369,60,80,0
543.7412,543.84033,59,80,0
543.84467,543.9438,60,80,0
543.43085,544.04724,54,80,0
543.9481,544.04724,59,80,0
544.0515,544.1507,60,80,0
544.0515,544.25415,54,80,0
544.15497,544.25415,61,80,0
544.2584,544.4543,63,80,0
544.2584,544.4543,54,80,0
544.45844,544.66077,53,80,0
544.66504,544.87427,53,80,0
544.8787,545.09534,51,80,0
544.66504,545.32446,60,80,0
545.1,545.32446,50,80,0
545.3293,545.5624,60,80,0
545.3293,545.5624,51,80,0
545.5674,545.8097,60,80,0
545.5674,545.8097,51,80,0
545.8149,546.06714,58,80,0
545.8149,546.06714,50,80,0
546.0726,546.33563,57,80,0
546.0726,546.33563,51,80,0
546.3414,546.6162,58,80,0
546.3414,546.6162,50,80,0
546.6222,546.91,54,80,0
546.6222,546.91,51,80,0
546.6222,546.91,45,80,0
546.91626,547.2182,53,80,0
546.91626,547.2182,50,80,0
546.91626,547.2182,46,80,0
547.2248,547.5424,63,80,0
547.2248,547.5424,57,80,0
547.2248,547.5424,54,80,0
547.5494,547.88434,62,80,0
547.5494,547.88434,58,80,0
547.5494,547.88434,53,80,0
547.89166,548.246,66,80,0
547.89166,548.246,69,80,0
547.89166,548.246,63,80,0
548.2538,548.6298,70,80,0
548.2538,548.6298,65,80,0
548.2538,548.6298,62,80,0
548.6382,549.03876,78,80,0
548.6382,549.03876,75,80,0
548.6382,549.03876,69,80,0
549.0477,549.47626,77,80,0
549.0477,549.47626,74,80,0
549.0477,549.47626,70,80,0
549.4859,549.6782,81,80,0
549.60126,549.7936,82,80,0
549.7167,549.90894,81,80,0
549.83203,550.02435,82,80,0
549.94745,550.1397,81,80,0
550.0628,550.2551,82,80,0
550.1782,550.3705,81,80,0
550.2936,550.4859,82,80,0
550.40894,550.60126,81,80,0
550.52435,550.7167,82,80,0
550.6397,550.83203,81,80,0
550.7551,550.94745,82,80,0
550.8705,551.0628,81,80,0
550.9859,551.1782,82,80,0
551.10126,551.2936,79,80,0
549.4859,551.32245,75,80,0
549.4859,551.32245,72,80,0
551.2167,551.40894,81,80,0
551.33203,552.2455,82,80,0
551.33203,552.2455,73,80,0
551.33203,552.2455,70,80,0
552.2551,552.44745,64,80,0
552.3705,552.5628,65,80,0
552.4859,552.67816,64,80,0
552.60126,552.7936,65,80,0
552.7167,552.90894,64,80,0
552.83203,553.02435,65,80,0
552.94745,553.1397,64,80,0
553.0628,553.2551,65,80,0
553.17816,553.3705,64,80,0
553.2936,553.4859,65,80,0
553.40894,553.60126,64,80,0
553.52435,553.7167,65,80,0
553.6397,553.83203,64,80,0
553.7551,553.94745,65,80,0
553.8705,554.0628,62,80,0
553.17816,554.0917,73,80,0
553.17816,554.0917,70,80,0
553.9859,554.17816,64,80,0
554.10126,555.0147,65,80,0
554.10126,555.0147,72,80,0
555.02435,555.2167,69,80,0
555.1397,555.33203,70,80,0
555.2551,555.44745,69,81,0
555.3705,555.5628,70,81,0
555.4859,555.67816,69,82,0
555.60126,555.7936,70,83,0
555.7167,555.90894,69,83,0
555.83203,556.03076,70,84,0
555.94745,556.15576,69,85,0
556.07245,556.28076,70,85,0
556.19745,556.40576,69,86,0
556.32245,556.53076,70,87,0
556.44745,556.65576,69,87,0
556.57245,556.78076,70,88,0
556.69745,556.90576,67,89,0
555.94745,556.937,75,85,0
556.82245,557.0474,69,89,0
556.94745,558.13495,75,70,0
556.94745,558.13495,72,70,0
556.94745,558.13495,65,70,0
558.1474,559.93494,75,70,0
558.1474,559.93494,72,70,0
558.1474,559.93494,67,70,0
559.94745,560.0501,79,70,0
560.05457,560.1572,77,70,0
560.1617,560.2644,75,70,0
560.26886,560.3715,74,70,0
560.376,560.47864,72,70,0
560.48315,560.5858,70,70,0
560.5903,561.0144,75,70,0
561.23315,561.329,67,70,0
561.3331,561.42896,65,70,0
561.4331,561.529,63,70,0
561.53314,561.62897,62,70,0
561.6331,561.72894,60,70,0
561.73315,561.829,59,70,0
561.8331,562.22894,63,70,0
562.4331,562.529,79,70,0
562.53314,562.62897,77,70,0
562.6331,562.72894,75,70,0
562.73315,562.829,74,70,0
562.8331,562.92896,72,70,0
562.9331,563.029,71,70,0
563.03314,563.12897,79,70,0
563.1331,563.22894,77,72,0
563.23315,563.329,75,74,0
563.3331,563.42896,74,76,0
563.4331,563.529,72,78,0
563.53314,563.62897,70,81,0
563.6331,563.72894,69,83,0
563.73315,563.829,67,85,0
563.8331,563.92896,65,87,0
563.9331,564.029,63,89,0
564.03314,564.12897,62,92,0
564.1331,564.22894,60,94,0
564.23315,564.329,58,96,0
564.3331,564.42896,57,98,0
564.4331,564.529,55,100,0
564.53314,564.62897,53,103,0
564.6331,564.72894,51,105,0
564.73315,564.829,50,107,0
564.8331,564.92896,48,109,0
564.9331,565.029,46,112,0
565.03314,565.12897,45,114,0
565.1331,565.22894,43,116,0
565.23315,565.329,41,118,0
565.3331,565.42896,40,120,0
565.4331,565.62897,53,110,0
565.4331,565.62897,41,110,0
565.8331,565.91644,81,110,0
565.8831,565.9665,82,110,0
565.9331,566.0165,81,110,0
565.98315,566.06647,82,110,0
566.03314,566.11646,81,110,0
566.0831,566.16644,82,110,0
566.1331,566.2165,81,110,0
566.1831,566.2665,82,110,0
566.23315,566.31647,81,110,0
566.28314,566.36646,82,110,0
566.3331,566.41644,81,110,0
566.3831,566.4665,82,110,0
566.4331,566.5165,81,110,0
566.48315,566.56647,82,110,0
566.53314,566.61646,79,110,0
565.8331,566.62897,69,110,0
566.5831,566.66644,81,110,0
566.6331,566.829,82,110,0
566.6331,566.829,70,110,0
567.03314,567.22894,67,110,0
567.03314,567.22894,55,110,0
567.4331,567.5165,83,110,0
567.48315,567.56647,84,110,0
567.53314,567.61646,83,110,0
567.5831,567.66644,84,110,0
567.6331,567.7165,83,110,0
567.6831,567.7665,84,110,0
567.73315,567.81647,83,110,0
567.78314,567.86646,84,110,0
567.8331,567.91644,83,110,0
567.8831,567.9665,84,110,0
567.9331,568.0165,83,110,0
567.98315,568.06647,84,110,0
568.03314,568.11646,83,110,0
568.0831,568.16644,84,110,0
568.1331,568.2165,81,110,0
567.4331,568.22894,71,110,0
568.1831,568.2665,83,110,0
568.23315,568.42896,84,110,0
568.23315,568.42896,72,110,0
568.6331,568.829,69,110,0
568.6331,568.829,57,110,0
569.03314,569.11646,85,110,0
569.0831,569.16644,86,110,0
569.1331,569.2165,85,110,0
569.1831,569.2665,86,110,0
569.23315,569.31647,85,110,0
569.28314,569.36646,86,110,0
569.3331,569.41644,85,110,0
569.3831,569.4665,86,110,0
569.4331,569.5165,85,110,0
569.48315,569.56647,86,110,0
569.53314,569.61646,85,110,0
569.5831,569.66644,86,110,0
569.6331,569.7165,85,110,0
569.6831,569.7665,86,110,0
569.73315,569.81647,83,110,0
569.03314,569.829,73,110,0
569.78314,569.86646,85,110,0
569.8331,570.029,86,110,0
569.8331,570.029,74,110,0
570.23315,570.42896,70,110,0
570.23315,570.42896,58,110,0
570.6331,570.7165,86,110,0
570.6831,570.7665,87,110,0
570.73315,570.81647,86,110,0
570.78314,570.86646,87,110,0
570.8331,570.91644,86,110,0
570.8831,570.9665,87,110,0
570.9331,571.0165,86,110,0
570.98315,571.06647,87,110,0
571.03314,571.11646,86,110,0
571.0831,571.16644,87,110,0
571.1331,571.2165,86,110,0
571.1831,571.2665,87,110,0
571.23315,571.31647,86,110,0
571.28314,571.36646,87,110,0
571.3331,571.41644,84,110,0
570.6331,571.42896,74,110,0
571.3831,571.4665,86,110,0
571.4331,571.62897,87,110,0
571.4331,571.62897,75,110,0
571.8331,572.029,72,110,0
571.8331,572.029,60,110,0
572.23315,572.31647,88,110,0
572.28314,572.36646,89,110,0
572.3331,572.41644,88,110,0
572.3831,572.4665,89,110,0
572.4331,572.5165,88,110,0
572.48315,572.56647,89,110,0
572.53314,572.61646,88,110,0
572.5831,572.66644,89,110,0
572.6331,572.7165,88,110,0
572.6831,572.7665,89,110,0
572.73315,572.81647,88,110,0
572.78314,572.86646,89,110,0
572.8331,572.91644,88,110,0
572.8831,572.9665,89,110,0
572.9331,573.0165,86,110,0
572.23315,573.029,76,110,0
572.98315,573.06647,88,110,0
573.03314,573.22894,89,110,0
573.03314,573.22894,77,110,0
573.4331,573.62897,74,110,0
573.4331,573.62897,62,110,0
573.8331,573.9193,90,110,0
573.8848,573.97107,91,110,0
573.9366,574.02277,90,110,0
573.9883,574.0745,91,110,0
574.04004,574.1262,90,110,0
574.09174,574.178,91,110,0
574.1435,574.2297,90,110,0
574.1952,574.28143,91,110,0
574.24695,574.3331,90,110,0
574.29865,574.3848,91,110,0
574.3504,574.4366,90,110,0
574.4021,574.4883,91,110,0
574.4538,574.54004,90,110,0
574.50555,574.59174,91,110,0
574.55725,574.6435,88,110,0
573.8331,574.65643,78,110,0
574.609,574.6964,90,110,0
574.6607,574.87054,79,110,0
574.6607,574.87054,91,110,0
575.0893,575.31525,75,110,0
575.0893,575.31525,63,110,0
575.55084,576.2956,93,120,0
575.55084,576.2956,89,120,0
575.55084,576.2956,87,120,0
575.55084,576.2956,84,120,0
575.55084,576.2956,81,120,0
576.55084,577.2956,94,120,0
576.55084,577.2956,89,120,0
576.55084,577.2956,86,120,0
576.55084,577.2956,82,120,0
577.55084,578.36334,69,120,0
577.55084,578.36334,72,120,0
577.55084,578.36334,75,120,0
577.55084,578.36334,77,120,0
577.55084,578.36334,81,120,0
579.0054,581.8012,70,120,0
579.0054,581.8012,74,120,0
579.0054,581.8012,77,120,0
579.0054,581.8012,82,120,0
583.80536,584.0012,70,1,0
0.0,0.19886358,41,80,0
0.22727266,0.3999125,53,80,0
0.42395097,0.5922202,53,80,0
1.449592,3.0954254,41,80,0
1.449592,3.0954254,29,80,0
3.8662586,4.845425,41,80,0
3.8662586,4.845425,53,80,0
7.6162586,8.595426,37,80,0
7.6162586,8.595426,49,80,0
10.699592,11.678759,34,80,0
10.699592,11.678759,46,80,0
14.116259,15.095426,42,80,0
14.116259,15.095426,30,80,0
19.366259,19.595425,53,80,0
19.616259,19.845425,56,80,0
19.866259,20.095425,53,80,0
20.116259,20.345425,56,80,0
20.366259,20.595425,53,80,0
20.616259,20.845425,56,80,0
20.866259,21.095425,49,80,0
21.116259,21.595425,54,80,0
21.616259,22.095425,48,80,0
22.116259,22.595425,49,80,0
22.616259,23.095425,42,80,0
24.693182,25.246067,54,80,0
24.693182,25.246067,42,80,0
26.42395,26.976835,51,80,0
26.42395,26.976835,39,80,0
28.259615,28.913023,47,80,0
28.259615,28.913023,35,80,0
29.282341,29.47877,54,80,0
29.496628,29.693056,56,80,0
29.710913,29.907341,58,80,0
29.925198,30.097073,59,80,0
30.112698,30.284573,61,80,0
30.300198,30.452976,63,80,0
30.466866,30.619642,64,80,0
30.633532,30.771032,63,80,0
30.783531,30.921032,59,80,0
30.93353,31.071032,66,80,0
31.083532,31.221031,64,80,0
31.233532,31.37103,63,80,0
31.383532,31.521032,61,80,0
31.533531,31.671032,59,80,0
31.68353,31.821032,58,80,0
31.833532,31.971031,59,80,0
31.983532,32.121033,54,80,0
32.133533,32.27103,56,80,0
32.28353,32.421032,58,80,0
32.433533,32.571033,59,80,0
32.58353,32.72103,61,80,0
32.733532,32.871033,63,80,0
32.883533,33.02103,64,80,0
33.03353,33.171032,63,80,0
33.183533,33.321033,75,80,0
33.33353,33.47103,78,80,0
33.483532,33.621033,76,80,0
33.633533,33.77103,75,80,0
33.78353,33.921032,73,80,0
33.933533,34.071033,71,80,0
34.08353,34.22103,70,80,0
34.233532,34.371033,71,80,0
34.383533,34.52103,70,80,0
34.53353,34.671032,75,80,0
34.683533,34.821033,73,80,0
34.83353,34.97103,71,80,0
34.983532,35.121033,70,80,0
35.133533,35.27103,68,80,0
35.28353,35.421032,66,80,0
35.433533,35.579807,64,80,0
35.593105,35.739384,63,80,0
35.75268,35.898956,61,80,0
35.912254,36.058533,59,80,0
36.07183,36.224606,58,80,0
36.238495,36.391273,61,80,0
36.405163,36.55794,59,80,0
36.57183,36.724606,64,80,0
36.738495,36.91037,63,80,0
36.925995,37.09787,63,80,0
37.113495,37.309925,61,80,0
37.32778,37.602783,54,80,0
37.62778,38.60695,66,80,0
37.62778,38.60695,61,80,0
37.62778,38.60695,54,80,0
39.25278,40.23195,35,80,0
39.25278,40.23195,47,80,0
40.62778,40.823616,44,110,0
40.62778,40.823616,32,110,0
41.527782,41.623615,68,80,0
41.62778,41.723614,61,80,0
41.727783,41.823616,68,80,0
41.82778,41.923615,70,80,0
41.92778,42.023613,68,80,0
42.027782,42.123615,61,80,0
42.12778,42.223614,68,80,0
42.227783,42.823616,67,80,0
42.82778,43.223614,66,80,0
43.227783,43.423615,66,80,0
43.42778,43.623615,64,80,0
43.62778,43.823616,63,80,0
43.82778,43.923615,61,80,0
43.92778,44.023613,56,80,0
44.027782,44.123615,51,80,0
44.12778,44.223614,56,80,0
44.227783,44.323616,57,80,0
44.32778,44.423615,56,80,0
44.42778,44.523613,49,80,0
44.527782,44.623615,56,80,0
44.62778,45.223614,57,80,0
45.227783,45.423615,56,80,0
45.42778,45.523613,58,80,0
45.527782,45.623615,61,80,0
45.62778,45.723614,58,80,0
45.727783,45.823616,63,80,0
45.82778,45.923615,64,80,0
45.92778,46.023613,63,80,0
46.027782,46.123615,58,80,0
45.42778,46.223614,55,80,0
46.12778,46.223614,63,80,0
46.227783,46.323616,56,80,0
46.32778,46.423615,59,81,0
46.42778,46.523613,56,83,0
46.527782,46.623615,59,84,0
46.62778,46.723614,61,86,0
46.727783,46.823616,59,87,0
46.82778,46.923615,56,89,0
46.82778,47.023613,47,89,0
46.92778,47.023613,59,91,0
47.027782,47.223614,52,92,0
47.027782,47.623615,49,92,0
47.227783,47.623615,61,95,0
47.62778,47.823616,59,102,0
47.62778,47.823616,51,102,0
47.82778,48.0376,59,105,0
48.04207,48.25189,58,108,0
47.82778,48.482315,51,105,0
48.25635,48.482315,56,110,0
48.48712,48.910984,55,110,0
48.48712,48.910984,51,110,0
49.923485,51.402653,56,82,0
49.923485,51.402653,44,82,0
51.923485,53.402653,52,87,0
51.923485,53.402653,40,87,0
53.923485,55.402653,49,92,0
53.923485,55.402653,37,92,0
57.090153,57.277653,33,81,0
57.298485,57.402653,45,84,0
57.423485,57.569317,45,85,0
57.590153,57.735985,57,87,0
57.756817,57.902653,57,89,0
59.423485,59.902653,45,109,0
59.423485,59.902653,33,109,0
59.923485,72.90265,33,110,0
59.923485,72.90265,38,110,0
59.923485,72.90265,40,110,0
59.923485,72.90265,47,110,0
77.423485,77.90265,45,80,0
77.423485,77.90265,33,80,0
78.25682,78.485985,45,80,0
78.25682,78.485985,33,80,0
79.423485,79.90265,45,80,0
79.423485,79.90265,33,80,0
80.25682,80.485985,42,80,0
80.25682,80.485985,30,80,0
81.423485,81.90265,50,80,0
81.423485,81.90265,38,80,0
82.25682,82.485985,50,80,0
82.25682,82.485985,38,80,0
83.423485,83.90265,50,80,0
83.423485,83.90265,38,80,0
84.25682,84.485985,47,80,0
84.25682,84.485985,35,80,0
85.423485,85.90265,55,81,0
85.423485,85.90265,43,81,0
86.25682,86.485985,55,84,0
86.25682,86.485985,43,84,0
87.423485,87.90265,55,88,0
87.423485,87.90265,43,88,0
88.25682,88.485985,52,91,0
88.25682,88.485985,40,91,0
89.423485,89.85206,60,96,0
89.423485,89.85206,48,96,0
90.1467,90.31857,60,98,0
90.1467,90.31857,48,98,0
90.96961,91.25712,57,103,0
90.96961,91.25712,45,103,0
91.45825,91.58325,57,106,0
91.45825,91.58325,43,106,0
92.05572,92.27687,53,110,0
92.05572,92.27687,41,110,0
92.429344,92.52756,53,113,0
92.429344,92.52756,41,113,0
92.898094,93.075485,50,117,0
92.898094,93.075485,38,117,0
93.200485,93.280136,50,120,0
93.200485,93.280136,38,120,0
93.592636,93.75236,45,120,0
93.592636,93.75236,40,120,0
93.592636,93.75236,37,120,0
93.592636,93.75236,33,120,0
93.870415,93.94681,45,120,0
93.870415,93.94681,40,120,0
93.870415,93.94681,37,120,0
93.870415,93.94681,33,120,0
94.25931,94.41903,45,120,0
94.25931,94.41903,40,120,0
94.25931,94.41903,37,120,0
94.25931,94.41903,33,120,0
94.53708,94.61347,45,120,0
94.53708,94.61347,40,120,0
94.53708,94.61347,37,120,0
94.53708,94.61347,33,120,0
94.92597,95.08569,45,120,0
94.92597,95.08569,40,120,0
94.92597,95.08569,36,120,0
94.92597,95.08569,33,120,0
95.20743,95.28831,45,120,0
95.20743,95.28831,33,120,0
95.62379,95.803474,33,117,0
95.62379,95.803474,45,117,0
95.93629,96.025345,45,111,0
95.93629,96.025345,33,111,0
96.400345,96.603325,33,102,0
96.400345,96.603325,45,102,0
96.75511,96.853325,45,96,0
96.75511,96.853325,33,96,0
97.28052,97.505684,29,88,0
97.28052,97.505684,41,88,0
97.68276,97.79735,41,82,0
97.68276,97.79735,29,82,0
98.0161,98.21193,41,70,0
98.0161,98.21193,29,70,0
98.4161,98.61193,57,70,0
98.4161,98.61193,53,70,0
99.216095,99.411934,41,70,0
99.216095,99.411934,29,70,0
99.6161,99.81193,57,70,0
99.6161,99.81193,60,70,0
100.4161,100.61193,41,71,0
100.4161,100.61193,29,71,0
100.8161,101.01193,65,85,0
100.8161,101.01193,60,85,0
100.8161,101.01193,57,85,0
100.8161,101.01193,53,85,0
101.216095,101.411934,41,100,0
101.216095,101.411934,29,100,0
101.6161,101.81193,65,110,0
101.6161,101.81193,60,110,0
101.6161,101.81193,57,110,0
101.6161,101.81193,53,110,0
102.0161,102.61193,29,120,0
102.0161,102.61193,41,120,0
102.6161,102.71193,43,120,0
102.716095,102.81193,45,120,0
102.8161,103.01193,46,120,0
102.8161,103.01193,41,120,0
102.8161,103.01193,38,120,0
102.8161,103.01193,34,120,0
104.0161,104.21193,53,80,0
104.4161,104.51193,69,80,0
104.466095,104.56193,70,80,0
104.5161,104.61193,69,80,0
104.5661,104.661934,70,80,0
104.6161,104.71193,69,80,0
104.6661,104.76193,70,80,0
104.716095,104.81193,69,80,0
104.7661,104.86193,70,80,0
104.8161,104.911934,69,80,0
104.8661,104.96193,70,80,0
104.9161,105.01193,69,80,0
104.966095,105.06193,70,80,0
105.0161,105.11193,69,80,0
105.0661,105.161934,70,80,0
105.1161,105.21193,67,80,0
105.1661,105.21193,69,80,0
105.216095,105.61193,70,80,0
105.8161,105.911934,70,80,0
105.9161,106.01193,69,80,0
106.0161,106.11193,67,80,0
106.1161,106.21193,65,80,0
106.216095,106.31193,63,80,0
106.3161,106.411934,62,80,0
106.4161,106.81193,67,80,0
107.0161,107.11193,67,80,0
107.1161,107.21193,65,80,0
107.216095,107.31193,63,80,0
107.3161,107.411934,62,80,0
107.4161,107.51193,60,80,0
107.5161,107.61193,58,80,0
107.6161,108.01193,63,80,0
108.216095,108.31193,63,80,0
108.3161,108.411934,62,80,0
108.4161,108.51193,60,80,0
108.5161,108.61193,62,80,0
108.6161,108.71193,60,80,0
108.716095,108.81193,58,80,0
108.8161,108.911934,57,80,0
108.9161,109.01193,58,80,0
109.0161,109.11193,57,80,0
109.1161,109.21193,55,80,0
109.216095,109.31193,53,80,0
109.3161,109.411934,55,80,0
109.4161,109.51193,57,80,0
109.5161,109.61193,58,80,0
109.6161,109.71193,59,80,0
109.716095,109.81193,60,80,0
109.8161,109.911934,62,80,0
109.9161,110.01193,60,80,0
110.0161,110.11193,58,80,0
110.1161,110.21193,60,80,0
110.216095,110.31193,62,80,0
110.3161,110.411934,63,80,0
110.4161,110.51193,64,80,0
110.5161,110.61193,65,80,0
110.6161,110.71193,67,80,0
110.716095,110.81193,65,80,0
110.8161,110.911934,63,80,0
110.9161,111.01193,62,80,0
111.0161,111.11193,60,80,0
111.1161,111.21193,58,80,0
111.216095,111.31193,57,80,0
111.3161,111.411934,58,80,0
111.4161,111.51193,57,81,0
111.5161,111.61193,55,81,0
111.6161,111.71193,53,82,0
111.716095,111.81193,55,83,0
111.8161,111.911934,57,83,0
111.9161,112.01193,58,84,0
112.0161,112.11193,59,84,0
112.1161,112.21193,60,85,0
112.216095,112.31193,62,86,0
112.3161,112.411934,60,86,0
112.4161,112.51193,58,87,0
112.5161,112.61193,60,87,0
112.6161,112.71193,62,88,0
112.716095,112.81193,63,89,0
112.8161,112.911934,64,89,0
112.9161,113.01193,65,90,0
113.0161,113.11193,67,90,0
113.1161,113.21193,65,91,0
113.216095,113.31193,58,92,0
113.3161,113.411934,66,92,0
113.4161,113.51193,67,93,0
113.5161,113.61193,66,93,0
113.6161,113.71193,58,94,0
113.716095,113.81193,67,95,0
113.8161,113.911934,69,95,0
113.9161,114.01193,67,96,0
114.0161,114.11193,66,97,0
114.1161,114.21193,67,97,0
114.216095,114.31193,69,98,0
114.3161,114.411934,67,98,0
114.4161,114.51193,64,99,0
114.5161,114.61193,65,100,0
114.6161,114.71193,67,100,0
114.716095,114.81193,65,101,0
114.8161,114.911934,64,101,0
114.9161,115.01193,65,102,0
115.0161,115.11193,67,103,0
115.1161,115.21193,65,103,0
115.216095,115.31193,62,104,0
115.3161,115.411934,63,104,0
115.4161,115.51193,65,105,0
115.5161,115.61193,63,106,0
115.6161,115.71193,61,106,0
115.716095,115.81193,62,107,0
115.8161,115.911934,63,107,0
115.9161,116.01193,62,108,0
116.0161,116.11193,61,109,0
116.1161,116.21193,62,109,0
116.216095,116.31193,63,110,0
116.3161,116.411934,62,110,0
116.4161,116.51193,59,110,0
116.5161,116.61193,60,110,0
116.6161,116.71193,62,110,0
116.716095,116.81193,60,110,0
116.8161,116.911934,57,110,0
116.9161,117.01193,58,110,0
117.0161,117.11193,60,110,0
117.1161,117.21193,58,110,0
117.4161,117.61193,57,80,0
117.6161,118.01193,69,100,0
118.6161,118.81193,53,80,0
118.8161,119.411934,65,100,0
119.8161,120.01193,50,80,0
120.0161,120.21193,62,80,0
120.216095,120.411934,60,80,0
120.4161,120.61193,58,80,0
120.6161,120.81193,59,80,0
120.8161,121.01193,60,80,0
121.216095,121.81193,58,80,0
121.8161,122.01193,58,80,0
122.0161,122.21193,58,80,0
122.216095,122.411934,57,80,0
122.4161,122.61193,55,80,0
122.6161,122.81193,53,80,0
122.8161,123.01193,52,80,0
123.0161,123.21193,53,80,0
123.216095,123.411934,60,80,0
123.6161,124.21193,58,83,0
124.216095,124.411934,57,88,0
124.4161,124.61193,62,90,0
124.8161,125.411934,61,94,0
125.4161,125.61193,60,99,0
125.6161,125.81193,65,101,0
126.0161,126.61193,64,104,0
126.6161,126.81193,63,110,0
126.8161,127.01193,41,110,0
127.216095,127.31193,57,110,0
127.2661,127.36193,58,110,0
127.3161,127.411934,57,110,0
127.3661,127.46193,58,110,0
127.4161,127.51193,57,110,0
127.466095,127.56193,58,110,0
127.5161,127.61193,57,110,0
127.5661,127.661934,58,110,0
127.6161,127.71193,57,110,0
127.6661,127.76193,58,110,0
127.716095,127.81193,57,110,0
127.7661,127.86193,58,110,0
127.8161,127.911934,57,110,0
127.8661,127.96193,58,110,0
127.9161,128.01193,55,110,0
127.966095,128.01193,57,110,0
128.0161,128.41193,58,110,0
128.6161,128.71193,58,80,0
128.7161,128.81194,57,80,0
128.8161,128.91193,55,80,0
128.91609,129.01193,53,80,0
129.0161,129.11192,51,80,0
129.1161,129.21193,50,80,0
129.2161,129.61192,55,80,0
129.8161,129.91193,55,80,0
129.91609,130.01193,53,80,0
130.0161,130.11192,51,80,0
130.1161,130.21193,50,80,0
130.2161,130.31194,48,80,0
130.3161,130.41193,46,80,0
130.41609,130.81194,51,80,0
131.0161,131.11192,51,80,0
131.1161,131.21193,50,80,0
131.2161,131.31194,48,80,0
131.3161,131.41193,50,80,0
131.41609,131.51193,48,80,0
131.5161,131.61192,46,80,0
131.6161,131.71193,45,80,0
131.7161,131.81194,46,80,0
131.8161,131.91193,45,80,0
131.91609,132.01193,43,80,0
132.0161,132.11192,41,80,0
132.1161,132.21193,43,80,0
132.2161,132.31194,45,80,0
132.3161,132.41193,46,80,0
132.41609,132.51193,47,80,0
132.5161,132.61192,48,80,0
132.6161,132.71193,50,80,0
132.7161,132.81194,48,80,0
132.8161,132.91193,46,80,0
132.91609,133.01193,48,80,0
133.0161,133.11192,50,80,0
133.1161,133.21193,51,80,0
133.2161,133.31194,52,80,0
133.3161,133.41193,53,80,0
133.41609,133.51193,55,80,0
133.5161,133.61192,53,80,0
133.6161,133.71193,51,80,0
133.7161,133.81194,50,80,0
133.8161,133.91193,48,80,0
133.91609,134.01193,46,80,0
134.0161,134.11192,45,80,0
134.1161,134.21193,46,80,0
134.2161,134.31194,45,80,0
134.3161,134.41193,43,80,0
134.41609,134.51193,41,80,0
134.5161,134.61192,43,80,0
134.6161,134.71193,45,80,0
134.7161,134.81194,46,80,0
134.8161,134.91193,45,80,0
134.91609,135.01193,46,80,0
135.0161,135.11192,48,80,0
135.1161,135.21193,50,80,0
135.2161,135.31194,51,80,0
135.3161,135.41193,53,80,0
135.41609,135.51193,55,80,0
135.5161,135.61192,51,80,0
135.6161,135.71193,49,80,0
135.7161,135.81194,50,80,0
135.8161,135.91193,52,80,0
135.91609,136.01193,49,80,0
136.0161,136.11192,50,80,0
136.1161,136.21193,53,80,0
136.2161,136.31194,58,80,0
136.3161,136.41193,62,80,0
136.41609,136.51193,54,80,0
136.5161,136.61192,55,80,0
136.6161,136.71193,57,80,0
136.7161,136.81194,55,80,0
136.8161,136.91193,51,80,0
136.91609,137.01193,51,80,0
137.0161,137.11192,53,80,0
137.1161,137.21193,51,80,0
137.2161,137.31194,53,80,0
137.3161,137.41193,57,80,0
137.41609,137.51193,60,80,0
137.5161,137.61192,65,80,0
137.6161,137.71193,59,80,0
137.7161,137.81194,60,80,0
137.8161,137.91193,62,80,0
137.91609,138.01193,60,80,0
138.0161,138.11192,56,80,0
138.1161,138.21193,57,80,0
138.2161,138.31194,58,80,0
138.3161,138.41193,57,80,0
138.41609,138.51193,58,80,0
138.5161,138.61192,57,80,0
138.6161,138.71193,55,80,0
138.7161,138.81194,53,80,0
138.8161,138.91193,51,80,0
138.91609,139.01193,53,80,0
139.0161,139.11192,55,80,0
139.1161,139.21193,51,80,0
139.2161,139.31194,50,80,0
139.3161,139.41193,49,80,0
139.41609,139.51193,48,80,0
139.5161,139.61192,49,80,0
139.6161,139.71193,50,80,0
139.7161,139.81194,52,80,0
139.8161,139.91193,53,80,0
139.91609,140.01193,54,80,0
140.0161,140.11192,55,80,0
140.1161,140.21193,57,80,0
140.2161,140.31194,58,80,0
140.3161,140.41193,59,80,0
140.41609,140.51193,48,80,0
140.5161,140.61192,52,80,0
140.6161,140.71193,55,80,0
140.7161,140.81194,60,80,0
140.8161,140.91193,53,80,0
140.91609,141.01193,55,80,0
141.0161,141.11192,56,80,0
141.1161,141.21193,57,80,0
141.2161,141.31194,46,80,0
141.3161,141.41193,50,80,0
141.41609,141.51193,53,80,0
141.5161,141.61192,58,80,0
141.6161,141.71193,51,80,0
141.7161,141.81194,55,80,0
141.8161,141.91193,58,80,0
141.91609,142.01193,60,80,0
142.0161,142.11192,55,80,0
142.0161,142.21193,58,80,0
142.1161,142.21193,51,80,0
142.2161,142.31194,55,80,0
142.3161,142.41193,51,80,0
142.41609,142.51193,76,100,0
142.4661,142.56194,77,100,0
142.5161,142.61192,76,99,0
142.5661,142.66193,77,99,0
142.6161,142.71193,76,98,0
142.66609,142.76193,77,97,0
142.7161,142.81194,76,97,0
142.7661,142.86192,77,96,0
142.8161,142.91193,76,96,0
142.8661,142.96193,77,95,0
142.91609,143.01193,76,94,0
142.9661,143.06194,77,94,0
143.0161,143.11192,76,93,0
143.0661,143.16193,77,92,0
143.1161,143.21193,74,92,0
143.16609,143.21193,76,91,0
143.2161,143.41193,41,91,0
143.2161,143.61192,77,91,0
143.6161,143.71193,57,100,0
143.66609,143.76193,58,100,0
143.7161,143.81194,57,100,0
143.7661,143.86192,58,100,0
143.8161,143.91193,57,100,0
143.8661,143.96193,58,100,0
143.91609,144.01193,57,100,0
143.9661,144.06194,58,100,0
144.0161,144.11192,57,100,0
144.0661,144.16193,58,100,0
144.1161,144.21193,57,100,0
144.16609,144.26193,58,100,0
144.2161,144.31194,57,100,0
144.2661,144.36192,58,100,0
144.3161,144.41193,55,100,0
144.3661,144.41193,57,100,0
144.41609,144.61192,62,100,0
144.41609,144.81194,58,100,0
144.8161,144.91193,78,100,0
144.8661,144.96193,79,100,0
144.91609,145.01193,78,100,0
144.9661,145.06194,79,100,0
145.0161,145.11192,78,100,0
145.0661,145.16193,79,100,0
145.1161,145.21193,78,100,0
145.16609,145.26193,79,100,0
145.2161,145.31194,78,100,0
145.2661,145.36192,79,100,0
145.3161,145.41193,78,100,0
145.3661,145.45776,79,100,0
145.41609,145.51193,78,100,0
145.4661,145.56194,79,100,0
145.5161,145.61192,76,100,0
145.5661,145.61192,78,100,0
145.6161,145.81194,43,100,0
145.6161,146.01193,79,100,0
146.0161,146.11192,59,100,0
146.0661,146.16193,60,100,0
146.1161,146.21193,59,100,0
146.16609,146.26193,60,100,0
146.2161,146.31194,59,100,0
146.2661,146.36192,60,100,0
146.3161,146.41193,59,100,0
146.3661,146.46193,60,100,0
146.41609,146.51193,59,100,0
146.4661,146.56194,60,100,0
146.5161,146.61192,59,100,0
146.5661,146.66193,60,100,0
146.6161,146.71193,59,100,0
146.66609,146.76193,60,100,0
146.7161,146.81194,57,100,0
146.7661,146.81194,59,100,0
146.8161,147.01193,60,100,0
147.0161,147.21193,44,100,0
147.2161,147.31194,60,100,0
147.2661,147.36192,61,100,0
147.3161,147.41193,60,100,0
147.3661,147.46193,61,100,0
147.41609,147.51193,60,100,0
147.4661,147.56194,61,100,0
147.5161,147.61192,60,100,0
147.5661,147.66193,61,100,0
147.6161,147.71193,60,100,0
147.66609,147.76193,61,100,0
147.7161,147.81194,60,100,0
147.7661,147.86192,61,100,0
147.8161,147.91193,60,100,0
147.8661,147.96193,61,100,0
147.9411,147.98692,60,100,0
147.91609,148.01193,58,100,0
148.0161,148.41193,61,100,0
148.6161,148.71193,61,80,0
148.7161,148.81194,60,80,0
148.8161,148.91193,58,80,0
148.91609,149.01193,56,80,0
149.0161,149.11192,54,80,0
149.1161,149.21193,53,80,0
149.2161,149.61192,58,80,0
149.8161,149.91193,58,80,0
149.91609,150.01193,56,80,0
150.0161,150.11192,54,80,0
150.1161,150.21193,53,80,0
150.2161,150.31194,51,80,0
150.3161,150.41193,49,80,0
150.41609,150.81194,54,80,0
151.0161,151.11192,54,80,0
151.1161,151.21193,53,80,0
151.2161,151.31194,51,80,0
151.3161,151.41193,53,80,0
151.41609,151.51193,51,80,0
151.5161,151.61192,49,80,0
151.6161,151.71193,48,80,0
151.7161,151.81194,49,80,0
151.8161,151.91193,48,80,0
151.91609,152.01193,46,80,0
152.0161,152.11192,44,80,0
152.1161,152.21193,46,80,0
152.2161,152.31194,48,80,0
152.3161,152.41193,49,80,0
152.41609,152.51193,50,80,0
152.5161,152.61192,51,80,0
152.6161,152.71193,53,80,0
152.7161,152.81194,51,80,0
152.8161,152.91193,49,80,0
152.91609,153.01193,51,80,0
153.0161,153.11192,53,80,0
153.1161,153.21193,54,80,0
153.2161,153.31194,55,80,0
153.3161,153.41193,56,80,0
153.41609,153.51193,58,80,0
153.5161,153.61192,56,80,0
153.6161,153.71193,54,80,0
153.7161,153.81194,53,80,0
153.8161,153.91193,51,80,0
153.91609,154.01193,49,80,0
154.0161,154.21193,44,80,0
154.41609,155.01193,51,101,0
154.41609,155.01193,42,101,0
155.0161,155.21193,51,80,0
155.0161,155.21193,42,80,0
155.2161,155.41193,51,80,0
155.2161,155.41193,42,80,0
155.41609,155.61192,49,80,0
155.41609,155.61192,41,80,0
155.6161,155.81194,48,80,0
155.6161,155.81194,39,80,0
155.8161,156.01193,49,80,0
155.8161,156.01193,37,80,0
156.0161,156.21193,51,80,0
156.0161,156.21193,48,80,0
156.2161,156.41193,53,80,0
156.2161,156.41193,49,80,0
156.41609,156.51193,60,80,0
156.5161,156.61192,61,80,0
156.6161,156.71193,60,80,0
156.7161,156.81194,58,80,0
157.6161,157.81194,49,80,0
157.6161,157.81194,37,80,0
158.0161,158.61192,48,100,0
158.0161,158.61192,36,102,0
158.6161,158.81194,46,80,0
158.6161,158.81194,34,80,0
158.8161,159.21193,51,80,0
158.8161,159.21193,39,80,0
160.0161,160.21193,43,80,0
160.0161,160.21193,55,80,0
160.41609,161.01193,53,100,0
160.41609,161.01193,41,102,0
161.0161,161.21193,51,80,0
161.0161,161.21193,39,80,0
161.2161,161.61192,56,80,0
161.2161,161.61192,44,80,0
162.0161,162.21193,55,80,0
162.0161,162.21193,43,80,0
162.41609,162.61192,43,80,0
162.41609,162.61192,55,80,0
162.6161,162.81194,53,80,0
162.6161,162.81194,41,80,0
163.2161,163.41193,63,80,0
163.2161,163.41193,51,80,0
163.6161,163.71193,72,80,0
163.6161,163.81194,63,80,0
163.7161,163.81194,70,80,0
163.8161,163.91193,69,80,0
163.8161,164.01193,61,80,0
163.91609,164.01193,70,80,0
164.0161,164.11192,70,80,0
164.0161,164.21193,61,80,0
164.1161,164.21193,68,80,0
164.2161,164.31194,67,80,0
164.2161,164.41193,60,80,0
164.3161,164.41193,68,80,0
164.6161,164.81194,48,80,0
164.8161,165.21193,60,100,0
165.0161,165.21193,67,80,0
165.2161,165.61192,68,80,0
165.8161,166.01193,44,80,0
166.0161,166.41193,56,100,0
166.2161,166.41193,64,80,0
166.41609,166.81194,65,80,0
167.0161,167.21193,41,80,0
167.2161,167.41193,53,80,0
167.41609,167.61192,57,80,0
167.6161,167.81194,58,80,0
167.8161,168.01193,62,80,0
168.0161,168.21193,63,80,0
168.41609,169.01193,58,101,0
168.41609,169.01193,61,100,0
169.0161,169.21193,61,80,0
169.0161,169.21193,58,80,0
169.2161,169.41193,61,80,0
169.2161,169.41193,58,80,0
169.41609,169.61192,60,80,0
169.41609,169.61192,56,80,0
169.6161,169.81194,58,80,0
169.6161,169.81194,49,80,0
169.8161,170.01193,56,80,0
169.8161,170.01193,48,80,0
170.0161,170.21193,55,80,0
170.0161,170.21193,46,80,0
170.2161,170.41193,56,80,0
170.2161,170.41193,48,80,0
170.41609,170.51193,43,80,0
170.5161,170.61192,44,80,0
170.6161,170.71193,43,80,0
170.7161,170.81194,41,80,0
170.8161,170.91193,39,80,0
170.91609,171.01193,41,80,0
171.0161,171.11192,43,80,0
171.1161,171.21193,44,80,0
171.2161,171.31194,45,80,0
171.3161,171.41193,46,80,0
171.41609,171.51193,48,80,0
171.5161,171.61192,46,80,0
171.6161,171.71193,43,80,0
171.7161,171.81194,44,80,0
171.8161,171.91193,46,80,0
171.91609,172.01193,48,80,0
172.0161,172.11192,49,80,0
172.1161,172.21193,51,80,0
172.2161,172.31194,53,80,0
172.3161,172.41193,51,80,0
172.41609,172.51193,49,80,0
172.5161,172.61192,48,80,0
172.6161,172.71193,46,80,0
172.7161,172.81194,44,80,0
172.8161,173.01193,63,101,0
172.8161,173.01193,54,100,0
173.0161,173.21193,61,80,0
173.0161,173.21193,53,80,0
173.2161,173.41193,60,80,0
173.2161,173.41193,51,80,0
173.41609,173.61192,58,80,0
173.41609,173.61192,49,80,0
173.6161,173.81194,56,80,0
173.6161,173.81194,48,80,0
173.8161,174.01193,58,80,0
173.8161,174.01193,49,80,0
174.0161,174.11192,45,80,0
174.1161,174.21193,46,80,0
174.2161,174.31194,48,80,0
174.3161,174.41193,49,80,0
174.41609,174.51193,51,80,0
174.5161,174.61192,53,80,0
174.6161,174.71193,54,80,0
174.7161,174.81194,53,80,0
174.8161,174.91193,51,80,0
174.91609,175.01193,49,80,0
175.0161,175.11192,48,80,0
175.1161,175.21193,46,80,0
175.2161,175.31194,50,80,0
175.2161,175.41193,44,100,0
175.3161,175.41193,51,80,0
175.41609,175.51193,53,80,0
175.41609,175.61192,43,80,0
175.5161,175.61192,55,80,0
175.6161,175.71193,56,80,0
175.6161,175.81194,41,80,0
175.7161,175.81194,58,80,0
175.8161,175.91193,59,80,0
175.8161,176.01193,39,80,0
175.91609,176.01193,58,80,0
176.0161,176.11192,56,80,0
176.0161,176.21193,37,80,0
176.1161,176.21193,55,80,0
176.2161,176.31194,53,80,0
176.2161,176.41193,39,80,0
176.3161,176.41193,51,80,0
176.41609,176.51193,52,80,0
176.41609,176.61192,46,100,0
176.5161,176.61192,53,80,0
176.6161,176.71193,55,80,0
176.6161,176.81194,44,80,0
176.7161,176.81194,56,80,0
176.8161,176.91193,58,80,0
176.8161,177.01193,43,80,0
176.91609,177.01193,60,80,0
177.0161,177.11192,61,80,0
177.0161,177.21193,41,80,0
177.1161,177.21193,60,80,0
177.2161,177.31194,58,80,0
177.2161,177.41193,39,80,0
177.3161,177.41193,56,80,0
177.41609,177.51193,55,80,0
177.41609,177.61192,41,80,0
177.5161,177.61192,53,80,0
177.6161,177.71193,53,80,0
177.7161,177.81194,54,80,0
177.8161,177.91193,56,80,0
177.91609,178.01193,58,80,0
178.0161,178.11192,59,80,0
178.1161,178.21193,61,80,0
178.2161,178.31194,63,80,0
178.3161,178.41193,61,80,0
178.41609,178.51193,59,80,0
178.5161,178.61192,58,80,0
178.6161,178.71193,56,80,0
178.7161,178.81194,54,80,0
178.8161,178.91193,43,80,0
178.91609,179.01193,44,80,0
179.0161,179.11192,46,80,0
179.1161,179.21193,47,80,0
179.2161,179.31194,49,80,0
179.3161,179.41193,51,80,0
179.41609,179.51193,52,80,0
179.5161,179.61192,51,80,0
179.6161,179.71193,49,80,0
179.7161,179.81194,47,81,0
179.8161,179.91193,46,83,0
179.91609,180.01193,44,85,0
180.0161,180.11192,42,87,0
180.1161,180.21193,40,89,0
180.2161,180.31194,39,91,0
180.3161,180.41193,38,93,0
180.41609,180.51193,39,95,0
180.5161,180.61192,43,97,0
180.6161,180.71193,46,99,0
180.7161,180.81194,51,100,0
180.8161,180.91193,55,110,0
180.8661,180.96193,56,110,0
180.91609,181.01193,55,110,0
180.9661,181.06194,56,110,0
181.0161,181.11192,55,110,0
181.0661,181.16193,56,110,0
181.1161,181.21193,55,110,0
181.16609,181.26193,56,110,0
181.2161,181.31194,55,110,0
181.2661,181.36192,56,110,0
181.3161,181.41193,55,110,0
181.3661,181.46193,56,110,0
181.41609,181.51193,55,110,0
181.4661,181.56194,56,110,0
180.8161,181.61192,43,110,0
181.5161,181.61192,53,110,0
181.5661,181.61192,55,110,0
181.6161,182.41193,44,110,0
181.6161,182.41193,56,110,0
182.41609,182.81194,51,110,0
182.41609,182.81194,39,110,0
182.8161,183.21193,49,110,0
182.8161,183.21193,37,110,0
183.2161,183.31194,53,110,0
183.2661,183.36192,54,110,0
183.3161,183.41193,53,110,0
183.3661,183.46193,54,110,0
183.41609,183.51193,53,110,0
183.4661,183.56194,54,110,0
183.5161,183.61192,53,110,0
183.5661,183.66193,54,110,0
183.6161,183.71193,53,110,0
183.66609,183.76193,54,110,0
183.7161,183.81194,53,110,0
183.7661,183.86192,54,110,0
183.8161,183.91193,53,110,0
183.8661,183.96193,54,110,0
183.2161,184.01193,41,110,0
183.91609,184.01193,51,110,0
183.9661,184.01193,53,110,0
184.0161,184.41193,54,110,0
184.0161,184.41193,42,110,0
184.41609,184.81194,49,110,0
184.41609,184.81194,37,110,0
184.8161,185.21193,51,110,0
184.8161,185.21193,39,110,0
185.2161,185.81194,35,110,0
185.2161,185.81194,47,110,0
185.8161,186.01193,46,105,0
185.8161,186.01193,34,105,0
186.0161,186.21193,44,100,0
186.0161,186.21193,32,100,0
186.2161,186.41193,46,94,0
186.2161,186.41193,34,94,0
186.41609,186.62592,47,89,0
186.41609,186.62592,35,89,0
186.63039,186.85634,49,83,0
186.63039,186.85634,37,83,0
186.86115,187.30174,42,80,0
186.86115,187.30174,30,80,0
187.80621,187.90204,49,80,0
187.9062,188.00204,51,80,0
188.00621,188.10204,53,80,0
188.1062,188.20204,54,80,0
188.2062,188.30203,46,80,0
188.30621,188.40204,49,80,0
188.4062,188.50204,54,80,0
188.50621,188.70204,58,80,0
188.7062,188.90204,59,80,0
188.9062,189.30203,61,80,0
190.2062,190.30203,56,90,0
190.30621,190.40204,58,92,0
190.4062,190.50204,60,93,0
190.50621,190.60204,61,94,0
190.6062,190.70204,53,96,0
190.7062,190.80203,56,97,0
190.80621,190.90204,61,98,0
190.9062,191.10204,53,100,0
191.1062,191.30203,54,102,0
191.30621,191.80203,56,105,0
191.80621,191.90204,65,110,0
191.9062,192.00204,63,110,0
192.00621,192.10204,61,110,0
192.1062,192.20204,60,110,0
192.2062,192.30203,58,110,0
192.30621,192.40204,56,110,0
192.4062,192.50204,54,110,0
192.50621,192.70204,53,110,0
192.7062,192.90204,56,110,0
192.9062,193.00204,54,110,0
193.80621,193.90204,61,110,0
193.9062,194.00204,63,110,0
194.00621,194.10204,65,110,0
194.1062,194.20204,63,110,0
194.2062,194.30203,54,110,0
194.30621,194.40204,58,110,0
194.4062,194.50204,51,110,0
194.50621,194.70204,54,110,0
194.7062,194.90204,56,110,0
194.9062,195.40204,58,127,0
195.4062,195.50204,54,110,0
195.50621,195.60204,53,110,0
195.6062,195.70204,51,110,0
195.7062,195.80203,50,110,0
195.80621,195.90204,47,110,0
195.9062,196.00204,46,110,0
196.00621,196.10204,44,110,0
196.1062,196.30203,43,110,0
196.30621,196.50204,44,110,0
196.50621,196.70204,46,110,0
196.7062,196.90204,47,110,0
196.9062,197.40204,59,126,0
197.4062,197.50204,56,110,0
197.50621,197.60204,54,110,0
197.6062,197.70204,53,110,0
197.7062,198.10204,51,110,0
197.7062,198.50204,58,110,0
198.1062,198.50204,50,110,0
198.50621,198.59787,74,110,0
198.55621,198.65204,75,110,0
198.6062,198.70204,74,110,0
198.6562,198.75204,75,110,0
198.7062,198.80203,74,110,0
198.75621,198.85204,75,110,0
198.80621,198.90204,74,110,0
198.8562,198.95204,75,110,0
198.9062,199.00204,74,110,0
198.9562,199.05203,75,110,0
199.00621,199.10204,74,110,0
199.05621,199.15204,75,110,0
199.1062,199.20204,74,110,0
199.1562,199.25204,75,110,0
199.2062,199.30203,74,110,0
199.25621,199.35204,75,110,0
199.30621,199.40204,74,110,0
199.3562,199.45204,75,110,0
199.4062,199.50204,74,110,0
199.4562,199.55203,75,110,0
199.50621,199.60204,74,110,0
199.55621,199.65204,75,110,0
199.6062,199.70204,74,110,0
199.6562,199.75204,75,110,0
199.7062,199.80203,74,110,0
199.75621,199.85204,75,110,0
199.80621,199.90204,74,110,0
199.8562,199.95204,75,110,0
199.9062,200.00204,74,110,0
199.9562,200.05203,75,110,0
200.00621,200.10204,72,110,0
200.05621,200.10204,74,110,0
200.1062,200.90204,75,110,0
201.30621,201.50204,75,110,0
201.50621,201.70204,73,110,0
201.50621,201.70204,65,110,0
201.7062,201.90204,71,110,0
201.7062,201.90204,63,110,0
201.9062,202.10204,70,110,0
201.9062,202.10204,61,110,0
202.1062,202.30203,68,110,0
202.1062,202.30203,59,110,0
202.30621,202.50204,66,110,0
202.30621,202.50204,58,110,0
202.50621,203.30203,71,110,0
202.50621,203.30203,63,110,0
203.7062,203.90204,71,110,0
203.7062,203.90204,63,110,0
203.9062,204.10204,70,110,0
203.9062,204.10204,61,110,0
204.1062,204.30203,68,110,0
204.1062,204.30203,59,110,0
204.30621,204.50204,66,110,0
204.30621,204.50204,58,110,0
204.50621,204.70204,65,110,0
204.50621,204.70204,56,110,0
204.7062,204.90204,63,110,0
204.7062,204.90204,54,110,0
204.9062,205.70204,68,110,0
204.9062,205.70204,59,110,0
206.1062,206.30203,68,110,0
206.1062,206.30203,59,110,0
206.30621,206.50204,66,110,0
206.30621,206.50204,58,110,0
206.50621,206.70204,65,110,0
206.50621,206.70204,56,110,0
206.7062,206.90204,66,110,0
206.7062,206.90204,58,110,0
206.9062,207.10204,65,110,0
206.9062,207.10204,56,110,0
207.1062,207.30203,63,110,0
207.1062,207.30203,54,110,0
207.30621,207.50204,62,110,0
207.30621,207.50204,53,110,0
207.50621,207.70204,63,110,0
207.50621,207.70204,54,110,0
207.7062,207.90204,62,110,0
207.7062,207.90204,53,110,0
207.9062,208.10204,60,110,0
207.9062,208.10204,51,110,0
208.1062,208.30203,58,110,0
208.1062,208.30203,50,110,0
208.30621,208.50204,60,110,0
208.30621,208.50204,51,110,0
208.50621,208.70204,62,110,0
208.50621,208.70204,53,110,0
208.7062,208.90204,63,110,0
208.7062,208.90204,54,110,0
208.9062,209.10204,64,110,0
208.9062,209.10204,55,110,0
209.1062,209.30203,65,110,0
209.1062,209.30203,56,110,0
209.30621,209.50204,66,110,0
209.30621,209.50204,58,110,0
209.50621,209.70204,65,110,0
209.50621,209.70204,56,110,0
209.7062,209.90204,63,110,0
209.7062,209.90204,54,110,0
209.9062,210.10204,65,110,0
209.9062,210.10204,56,110,0
210.1062,210.30203,66,110,0
210.1062,210.30203,58,110,0
210.30621,210.50204,68,110,0
210.30621,210.50204,59,110,0
210.50621,210.70204,69,110,0
210.50621,210.70204,65,110,0
210.7062,210.90204,70,110,0
210.7062,210.90204,66,110,0
210.9062,211.10204,71,110,0
210.9062,211.10204,68,110,0
211.1062,211.30203,70,110,0
211.1062,211.30203,66,110,0
211.30621,211.50204,68,110,0
211.30621,211.50204,59,110,0
211.50621,211.70204,66,110,0
211.50621,211.70204,58,110,0
211.7062,212.90204,34,110,0
211.7062,212.90204,46,110,0
212.9062,214.10204,32,110,0
212.9062,214.10204,44,110,0
214.1062,214.70204,32,110,0
214.1062,214.70204,44,110,0
214.9062,215.10204,42,110,0
214.9062,215.10204,30,110,0
215.30621,215.50204,41,110,0
215.30621,215.50204,29,110,0
215.7062,215.90204,39,110,0
215.7062,215.90204,27,110,0
216.1062,216.30203,38,110,0
216.1062,216.30203,26,110,0
216.50621,216.70204,39,110,0
216.50621,216.70204,27,110,0
216.7062,216.90204,58,110,0
216.9062,217.10204,56,110,0
217.1062,217.30203,54,110,0
217.30621,217.50204,53,110,0
217.50621,217.70204,51,110,0
217.7062,217.90204,49,110,0
217.9062,218.10204,48,110,0
218.1062,218.30203,46,110,0
218.30621,218.50204,44,110,0
218.50621,218.70204,42,110,0
218.7062,218.90204,41,110,0
218.9062,220.10204,39,110,0
220.1062,220.18954,36,110,0
220.1562,220.23953,37,110,0
220.2062,220.28954,36,110,0
220.25621,220.33954,37,110,0
220.30621,220.38954,36,110,0
220.3562,220.43954,37,110,0
220.4062,220.48953,36,110,0
220.4562,220.53954,37,110,0
220.50621,220.58954,36,110,0
220.55621,220.63954,37,110,0
220.6062,220.68954,36,110,0
220.6562,220.73953,37,110,0
220.7062,220.78954,36,110,0
220.75621,220.83954,37,110,0
220.80621,220.88954,36,110,0
220.8562,220.93954,37,110,0
220.9062,220.98953,36,110,0
220.9562,221.03954,37,110,0
221.00621,221.08954,36,110,0
221.05621,221.13954,37,110,0
221.1062,221.18954,36,110,0
221.1562,221.23953,37,110,0
221.2062,221.28954,36,110,0
221.25621,221.33954,37,110,0
221.30621,221.38954,36,110,0
221.3562,221.43954,37,110,0
221.4062,221.48953,36,110,0
221.4562,221.53954,37,110,0
221.50621,221.58954,36,110,0
221.55621,221.63954,37,110,0
221.6062,221.68954,34,110,0
220.1062,221.70204,24,110,0
221.6562,221.73953,36,110,0
221.7062,222.50204,34,110,0
222.9062,223.10204,34,110,0
223.1062,223.30203,36,110,0
223.1062,223.30203,24,110,0
223.30621,223.50204,37,110,0
223.30621,223.50204,25,110,0
223.50621,223.70204,39,110,0
223.50621,223.70204,27,110,0
223.7062,223.90204,41,110,0
223.7062,223.90204,29,110,0
223.9062,224.10204,42,110,0
223.9062,224.10204,30,110,0
224.1062,224.90204,37,110,0
224.1062,224.90204,25,110,0
224.9062,226.10204,24,110,0
224.9062,226.10204,36,110,0
226.1062,226.18954,52,110,0
226.1562,226.23953,53,110,0
226.2062,226.28954,52,110,0
226.25621,226.33954,53,110,0
226.30621,226.38954,52,110,0
226.3562,226.43954,53,110,0
226.4062,226.48953,52,110,0
226.4562,226.53954,53,110,0
226.50621,226.58954,52,110,0
226.55621,226.63954,53,110,0
226.6062,226.68954,52,110,0
226.6562,226.73953,53,110,0
226.7062,226.78954,52,110,0
226.75621,226.83954,53,110,0
226.80621,226.88954,52,110,0
226.8562,226.93954,53,110,0
226.9062,226.98953,52,110,0
226.9562,227.03954,53,110,0
227.00621,227.08954,52,110,0
227.05621,227.13954,53,110,0
227.1062,227.18954,52,110,0
227.1562,227.23953,53,110,0
227.2062,227.28954,52,110,0
226.1062,227.30203,40,110,0
227.25621,227.33954,53,110,0
227.30621,227.38954,55,110,0
227.3562,227.43954,56,110,0
227.4062,227.48953,55,110,0
227.4562,227.53954,56,110,0
227.50621,227.58954,55,110,0
227.55621,227.63954,56,110,0
227.6062,227.68954,55,110,0
227.6562,227.73953,56,110,0
227.7062,227.78954,55,110,0
227.75621,227.83954,56,110,0
227.80621,227.88954,55,110,0
227.8562,227.93954,56,110,0
227.9062,227.98953,55,110,0
227.9562,228.03954,56,110,0
228.00621,228.08954,55,110,0
228.05621,228.13954,56,110,0
228.1062,228.18954,55,110,0
228.1562,228.23953,56,110,0
228.2062,228.28954,55,110,0
228.25621,228.33954,56,110,0
228.30621,228.38954,55,110,0
228.3562,228.43954,56,110,0
228.4062,228.48953,55,110,0
228.4562,228.53954,56,110,0
228.50621,229.70204,29,110,0
229.7062,229.78954,45,110,0
229.75621,229.83954,46,110,0
229.80621,229.88954,45,110,0
229.8562,229.93954,46,110,0
229.9062,229.98953,45,110,0
229.9562,230.03954,46,110,0
230.00621,230.08954,45,110,0
230.05621,230.13954,46,110,0
230.1062,230.18954,45,110,0
230.1562,230.23953,46,110,0
230.2062,230.28954,45,110,0
230.25621,230.33954,46,110,0
230.30621,230.38954,45,110,0
230.3562,230.43954,46,110,0
230.4062,230.48953,45,110,0
230.4562,230.53954,46,110,0
230.50621,230.58954,45,110,0
230.55621,230.63954,46,110,0
230.6062,230.68954,45,110,0
230.6562,230.73953,46,110,0
230.7062,230.78954,45,110,0
230.75621,230.83954,46,110,0
230.80621,230.88954,45,110,0
230.8562,230.93954,46,110,0
230.9062,230.98953,60,110,0
230.9562,231.03954,61,110,0
231.00621,231.08954,60,110,0
231.05621,231.13954,61,110,0
231.1062,231.18954,60,110,0
231.1562,231.23953,61,110,0
231.2062,231.28954,60,110,0
231.25621,231.33954,61,110,0
231.30621,231.38954,60,110,0
231.3562,231.43954,61,110,0
231.4062,231.48953,60,110,0
231.4562,231.53954,61,110,0
231.50621,231.58954,60,110,0
231.55621,231.63954,61,110,0
231.6062,231.68954,60,110,0
231.6562,231.73953,61,110,0
231.7062,231.78954,60,110,0
231.75621,231.83954,61,110,0
231.80621,231.88954,60,110,0
231.8562,231.93954,61,110,0
231.9062,231.98953,60,110,0
231.9562,232.03954,61,110,0
232.00621,232.08954,60,110,0
232.05621,232.13954,61,110,0
232.1062,233.30203,34,110,0
233.30621,233.38954,49,110,0
233.3562,233.43954,51,110,0
233.4062,233.48953,49,110,0
233.4562,233.53954,51,110,0
233.50621,233.58954,49,110,0
233.55621,233.63954,51,110,0
233.6062,233.68954,49,110,0
233.6562,233.73953,51,110,0
233.7062,233.78954,49,110,0
233.75621,233.83954,51,110,0
233.80621,233.88954,49,110,0
233.8562,233.93954,51,110,0
233.9062,233.98953,49,110,0
233.9562,234.03954,51,110,0
234.00621,234.08954,49,110,0
234.05621,234.13954,51,110,0
234.1062,234.18954,49,110,0
234.1562,234.23953,51,110,0
234.2062,234.28954,49,110,0
234.25621,234.33954,51,110,0
234.30621,234.38954,49,110,0
234.3562,234.43954,51,110,0
234.4062,234.48953,48,110,0
234.4562,234.53954,49,110,0
234.50621,234.58954,58,110,0
234.55621,234.63954,60,110,0
234.6062,234.68954,58,110,0
234.6562,234.73953,60,110,0
234.7062,234.78954,58,110,0
234.75621,234.83954,60,110,0
234.80621,234.88954,58,110,0
234.8562,234.93954,60,110,0
234.9062,234.98953,58,110,0
234.9562,235.03954,60,110,0
235.00621,235.08954,58,110,0
235.05621,235.13954,60,110,0
235.1062,235.18954,58,110,0
235.1562,235.23953,60,110,0
235.2062,235.28954,58,110,0
235.25621,235.33954,60,110,0
235.30621,235.38954,58,110,0
235.3562,235.43954,60,110,0
235.4062,235.48953,58,110,0
235.4562,235.53954,60,110,0
235.50621,235.58954,58,110,0
235.55621,235.63954,60,110,0
235.6062,235.68954,57,110,0
234.50621,235.70204,48,110,0
235.6562,235.73953,58,110,0
235.7062,236.30203,56,110,0
236.30621,236.50204,55,109,0
236.50621,236.70204,53,108,0
236.7062,236.90204,51,106,0
236.9062,237.10204,50,105,0
237.1062,237.30203,51,104,0
237.30621,238.50204,51,102,0
238.50621,239.30203,51,95,0
239.30621,239.38954,51,90,0
239.3562,239.43954,53,89,0
239.4062,239.48953,51,89,0
239.4562,239.53954,53,89,0
239.50621,239.58954,51,88,0
239.55621,239.63954,53,88,0
239.6062,239.68954,51,88,0
239.6562,239.73953,53,87,0
239.7062,239.78954,51,87,0
239.75621,239.83954,53,87,0
239.80621,239.88954,51,86,0
239.8562,239.93954,53,86,0
239.9062,239.98953,51,86,0
239.9562,240.03954,53,85,0
240.00621,240.08954,51,85,0
240.05621,240.13954,53,85,0
240.1062,240.18954,51,84,0
240.1562,240.23953,53,84,0
240.2062,240.28954,51,84,0
240.25621,240.33954,53,83,0
240.30621,240.38954,51,83,0
240.3562,240.43954,53,83,0
240.4062,240.48953,50,82,0
240.4562,240.53954,51,82,0
240.50621,240.70204,53,82,0
240.7062,240.90204,55,81,0
240.9062,241.00204,56,80,0
241.00621,241.10204,48,80,0
241.1062,241.20204,51,80,0
241.2062,241.30203,56,80,0
241.30621,241.50204,60,80,0
241.50621,241.70204,61,80,0
241.7062,242.10204,63,80,0
243.00621,243.10204,58,87,0
243.1062,243.20204,60,88,0
243.2062,243.30203,61,89,0
243.30621,243.70204,60,90,0
243.80621,243.90204,56,94,0
243.9062,244.00204,55,95,0
244.00621,244.10204,53,96,0
244.2062,244.30203,55,98,0
244.30621,244.40204,56,99,0
244.1062,244.50204,51,97,0
244.4062,244.50204,58,99,0
244.50621,244.70204,60,100,0
244.7062,244.90204,61,100,0
245.00621,245.10204,53,100,0
245.1062,245.20204,51,100,0
245.2062,245.30203,49,100,0
244.9062,245.40204,63,100,0
245.4062,245.50204,60,100,0
245.50621,245.60204,58,100,0
245.50621,245.60204,50,100,0
245.30621,245.70204,48,100,0
245.6062,245.70204,56,100,0
245.6062,245.70204,52,100,0
245.7062,245.90204,60,100,0
245.7062,246.10204,53,100,0
246.6062,246.70204,52,100,0
246.7062,246.80203,53,100,0
246.80621,246.90204,55,100,0
246.9062,247.10204,56,100,0
247.1062,247.30203,58,100,0
247.30621,247.80203,60,100,0
247.80621,247.90204,56,100,0
247.9062,248.00204,55,100,0
248.00621,248.10204,53,100,0
248.1062,248.20204,60,100,0
248.2062,248.30203,65,100,0
248.30621,248.40204,64,100,0
248.4062,248.50204,62,100,0
248.50621,248.60204,60,100,0
248.6062,248.70204,58,100,0
248.7062,248.80203,56,100,0
248.80621,248.90204,55,100,0
248.9062,249.10204,53,100,0
249.30621,249.40204,60,100,0
249.4062,249.50204,63,100,0
249.50621,249.60204,61,100,0
249.6062,249.70204,60,100,0
249.7062,249.80203,58,100,0
249.80621,249.90204,57,100,0
249.9062,250.00204,55,100,0
250.00621,250.10204,53,100,0
250.1062,250.50204,51,100,0
250.50621,250.60204,49,100,0
250.6062,250.70204,61,100,0
250.7062,250.80203,60,100,0
250.80621,250.90204,58,100,0
250.9062,251.00204,57,100,0
251.00621,251.10204,55,100,0
251.1062,251.20204,53,100,0
251.2062,251.30203,51,100,0
251.30621,251.70204,49,100,0
251.7062,251.80203,48,100,0
251.80621,251.90204,60,100,0
251.9062,252.00204,58,100,0
252.00621,252.10204,57,100,0
252.1062,252.20204,54,100,0
252.2062,252.30203,53,100,0
252.30621,252.40204,51,100,0
252.4062,252.50204,49,100,0
252.50621,252.90204,48,100,0
252.9062,253.10204,50,100,0
252.9062,253.10204,38,100,0
253.1062,253.30203,51,100,0
253.1062,253.30203,39,100,0
253.30621,253.80203,53,115,0
253.30621,253.80203,41,115,0
253.80621,253.90204,49,100,0
253.9062,254.00204,48,100,0
254.00621,254.10204,46,100,0
254.1062,254.30203,51,100,0
254.1062,254.30203,39,100,0
254.30621,254.50204,53,100,0
254.30621,254.50204,41,100,0
254.50621,255.00204,55,123,0
254.50621,255.00204,43,120,0
255.00621,255.10204,51,100,0
255.1062,255.20204,47,100,0
255.2062,255.30203,46,100,0
255.30621,255.50204,55,100,0
255.30621,255.50204,43,100,0
255.50621,255.70204,56,100,0
255.50621,255.70204,44,100,0
255.7062,256.20203,58,120,0
255.7062,256.20203,46,121,0
256.2062,256.30203,55,100,0
256.3062,256.40204,53,100,0
256.40622,256.50204,51,100,0
256.5062,256.70203,56,100,0
256.5062,256.70203,44,100,0
256.7062,256.90204,58,100,0
256.7062,256.90204,46,100,0
256.90622,257.40204,60,123,0
256.90622,257.40204,48,121,0
257.40622,257.50204,56,100,0
257.5062,257.60205,51,100,0
257.6062,257.70203,48,100,0
257.7062,257.80203,56,100,0
257.8062,257.90204,51,100,0
257.90622,258.00204,48,100,0
258.0062,258.10205,44,100,0
258.1062,258.20203,51,100,0
258.2062,258.30203,48,100,0
258.3062,258.40204,44,100,0
258.40622,258.50204,39,100,0
258.5062,258.60205,42,100,0
258.6062,258.70203,51,100,0
258.7062,258.80203,48,100,0
258.8062,258.90204,42,100,0
258.90622,259.10205,53,100,0
258.90622,259.10205,41,100,0
259.1062,259.30203,54,100,0
259.1062,259.30203,42,100,0
259.3062,259.80203,56,120,0
259.3062,259.80203,44,120,0
259.8062,259.90204,53,100,0
259.90622,260.00204,49,100,0
260.0062,260.10205,44,100,0
260.1062,260.20203,53,100,0
260.2062,260.30203,49,100,0
260.3062,260.40204,44,100,0
260.40622,260.50204,41,100,0
260.5062,260.60205,49,100,0
260.6062,260.70203,44,100,0
260.7062,260.80203,41,100,0
260.8062,260.90204,37,100,0
260.90622,261.00204,44,100,0
261.0062,261.10205,41,100,0
261.1062,261.20203,39,100,0
261.2062,261.30203,37,100,0
261.3062,261.50204,58,100,0
261.3062,261.50204,46,100,0
261.5062,261.70203,59,100,0
261.5062,261.70203,47,100,0
261.7062,262.20203,61,121,0
261.7062,262.20203,49,122,0
262.2062,262.30203,58,100,0
262.3062,262.40204,54,100,0
262.40622,262.50204,49,100,0
262.5062,262.60205,58,100,0
262.6062,262.70203,54,100,0
262.7062,262.80203,49,100,0
262.8062,262.90204,46,100,0
262.90622,263.00204,54,100,0
263.0062,263.10205,49,100,0
263.1062,263.20203,46,100,0
263.2062,263.30203,42,100,0
263.3062,263.40204,49,100,0
263.40622,263.50204,46,100,0
263.5062,263.60205,44,100,0
263.6062,263.70203,42,100,0
263.7062,263.90204,38,100,0
263.7062,263.90204,50,100,0
263.90622,264.10205,52,100,0
263.90622,264.10205,40,100,0
264.1062,264.60205,54,120,0
264.1062,264.60205,42,123,0
264.6062,264.70203,50,100,0
264.7062,264.80203,47,100,0
264.8062,264.90204,41,100,0
264.90622,265.00204,50,100,0
265.0062,265.10205,47,100,0
265.1062,265.20203,42,100,0
265.2062,265.30203,38,100,0
265.3062,265.40204,47,100,0
265.40622,265.50204,42,100,0
265.5062,265.60205,38,100,0
265.6062,265.70203,35,100,0
265.7062,265.80203,42,100,0
265.8062,265.90204,38,100,0
265.90622,266.00204,37,100,0
266.0062,266.10205,35,100,0
266.1062,266.30203,30,100,0
266.7312,266.82703,67,100,0
266.8062,266.90204,66,100,0
266.90622,267.00204,71,100,0
267.0062,267.10205,66,100,0
267.1062,267.20203,64,100,0
267.2062,267.30203,62,100,0
267.3062,267.40204,66,100,0
267.40622,267.50204,62,100,0
267.5062,267.60205,61,100,0
267.6062,267.70203,59,100,0
267.7062,267.80203,62,80,0
267.8062,267.90204,59,100,0
267.90622,268.00204,55,97,0
268.0062,268.10205,54,94,0
268.1062,268.20203,55,91,0
268.2062,268.30203,54,87,0
268.3062,268.40204,56,84,0
268.40622,268.50204,58,81,0
268.5062,268.60205,59,80,0
268.6062,268.70203,61,80,0
268.7062,268.80203,62,80,0
268.8062,268.90204,64,80,0
268.90622,269.00204,66,80,0
269.0062,269.10205,67,80,0
269.1062,269.20203,66,80,0
269.2062,269.30203,65,80,0
269.3062,269.40204,64,80,0
269.40622,269.50204,62,80,0
269.5062,269.60205,61,80,0
269.6062,269.70203,59,80,0
269.7062,269.80203,61,80,0
269.8062,269.90204,62,80,0
269.90622,270.00204,61,80,0
270.0062,270.10205,60,80,0
270.1062,270.20203,59,80,0
270.2062,270.30203,58,80,0
270.3062,270.40204,56,80,0
270.40622,270.50204,54,80,0
270.5062,270.60535,56,80,0
270.60965,270.7088,58,80,0
270.7131,270.81226,59,80,0
270.81656,270.91568,58,80,0
270.92,271.02267,59,80,0
271.02713,271.12982,61,80,0
271.13428,271.23697,62,80,0
271.24142,271.34412,61,80,0
271.34857,271.45126,62,80,0
271.45572,271.55838,64,80,0
271.77713,272.20123,64,80,0
272.20572,272.30838,59,80,0
272.31287,272.41553,61,80,0
272.41998,272.52267,62,80,0
272.52713,272.62982,64,80,0
272.63428,272.73697,66,80,0
272.74142,272.84412,67,80,0
273.06287,273.48697,67,80,0
273.49142,273.59412,62,80,0
273.59857,273.70123,64,80,0
273.70572,273.80838,66,80,0
273.81287,273.91553,68,80,0
273.91998,274.02267,70,80,0
274.02713,274.12982,71,80,0
274.34857,274.77267,71,80,0
274.77713,274.86642,70,80,0
274.83072,274.91998,71,80,0
274.88428,274.97357,70,80,0
274.93787,275.02713,71,80,0
274.99142,275.08072,70,80,0
275.04498,275.13428,71,80,0
275.09857,275.18787,70,80,0
275.15213,275.24142,71,80,0
275.20572,275.29498,70,80,0
275.25928,275.34857,71,80,0
275.31287,275.40213,70,80,0
275.36642,275.45572,71,80,0
275.41998,275.50928,70,80,0
275.47357,275.56287,71,80,0
275.52713,275.61642,68,80,0
275.58072,275.66998,70,80,0
275.63428,275.84412,54,80,0
276.49142,276.70123,59,80,0
276.91998,277.00928,74,80,0
276.97357,277.06284,76,80,0
277.02713,277.11642,74,80,0
277.08072,277.16998,76,80,0
277.13428,277.22357,74,80,0
277.18784,277.27713,76,80,0
277.24142,277.33072,74,80,0
277.29498,277.38428,76,80,0
277.34857,277.43784,74,80,0
277.40213,277.49142,76,80,0
277.45572,277.54498,74,80,0
277.50928,277.59857,76,80,0
277.56284,277.65213,74,80,0
277.61642,277.70572,76,80,0
277.66998,277.75928,73,80,0
277.72357,277.81284,74,80,0
277.77713,278.20123,76,80,0
278.20572,278.41553,45,80,0
278.63428,278.72357,61,80,0
278.68784,278.77713,62,80,0
278.74142,278.83072,61,80,0
278.79498,278.88428,62,80,0
278.84857,278.93784,61,80,0
278.90213,278.99142,62,80,0
278.95572,279.04498,61,80,0
279.00928,279.09857,62,80,0
279.06284,279.15213,61,80,0
279.11642,279.20572,62,80,0
279.16998,279.25928,61,80,0
279.22357,279.31284,62,80,0
279.27713,279.36642,61,80,0
279.33072,279.41998,62,80,0
279.38428,279.47357,59,80,0
279.43784,279.52713,61,80,0
279.49142,279.91553,62,80,0
279.91998,280.12982,71,80,0
280.13428,280.3441,67,80,0
280.34857,280.55838,66,80,0
280.56284,280.77267,65,80,0
280.77713,281.20123,57,80,0
280.77713,281.62982,66,80,0
281.63428,282.05838,64,80,0
282.06284,282.48694,55,80,0
282.06284,282.48694,52,80,0
282.49142,282.91553,59,80,0
282.49142,283.3441,54,80,0
282.91998,283.3441,57,80,0
283.34857,284.20123,52,80,0
283.34857,284.20123,55,80,0
284.2057,284.62982,54,80,0
284.2057,284.62982,50,80,0
284.63428,285.27267,55,80,0
284.63428,285.48694,50,80,0
285.27713,285.48694,54,80,0
285.49142,285.70123,52,80,0
285.49142,285.91553,45,80,0
285.7057,285.91553,54,80,0
285.91998,286.1298,56,80,0
285.91998,286.3441,54,80,0
286.13428,286.3441,57,80,0
286.34854,286.77267,52,80,0
286.34854,287.20123,55,80,0
286.77713,287.20123,45,80,0
287.2057,287.41553,54,80,0
288.49142,288.5941,54,80,0
288.59854,288.70123,52,80,0
288.7057,288.80838,50,80,0
288.81284,288.91553,49,80,0
288.91998,289.02267,47,80,0
289.02713,289.1298,49,80,0
289.13428,289.23694,50,80,0
289.24142,289.3441,52,80,0
289.34854,289.45123,54,80,0
289.4557,289.55838,55,80,0
289.56284,289.66553,54,80,0
289.66998,289.77264,53,80,0
289.77713,289.8798,52,80,0
289.88428,289.98694,50,80,0
289.9914,290.0941,49,80,0
290.09854,290.20123,47,80,0
290.2057,290.30838,49,80,0
290.31284,290.41553,50,80,0
290.41998,290.52264,49,80,0
290.52713,290.6298,48,80,0
290.63428,290.73694,47,80,0
290.7414,290.8441,46,80,0
290.84854,290.95123,44,80,0
290.9557,291.05838,42,80,0
291.06284,291.16553,44,80,0
291.16998,291.27264,46,80,0
291.27713,291.3798,47,80,0
291.38428,291.48694,46,80,0
291.4914,291.5941,47,80,0
291.59854,291.70123,49,80,0
291.7057,291.80838,50,80,0
291.81284,291.91553,49,80,0
291.91998,292.02264,50,80,0
292.02713,292.1298,52,80,0
292.34854,292.77264,52,80,0
292.77713,292.8798,47,80,0
292.88428,292.98694,49,80,0
292.9914,293.0941,50,80,0
293.09854,293.20123,52,80,0
293.2057,293.30838,54,80,0
293.31284,293.41553,55,80,0
293.63428,294.05838,55,80,0
294.06284,294.1655,50,80,0
294.16998,294.27264,52,80,0
294.27713,294.3798,54,80,0
294.38425,294.48694,56,80,0
294.4914,294.5941,58,80,0
294.59854,294.70123,59,80,0
294.91998,295.3441,59,80,0
295.34854,295.43784,58,80,0
295.40213,295.4914,59,80,0
295.4557,295.54498,58,80,0
295.50925,295.59854,59,80,0
295.56284,295.65213,58,80,0
295.6164,295.7057,59,80,0
295.66998,295.75925,58,80,0
295.72354,295.81284,59,80,0
295.77713,295.8664,58,80,0
295.8307,295.91998,59,80,0
295.88425,295.97354,58,80,0
295.93784,296.02713,59,80,0
295.9914,296.0807,58,80,0
296.04498,296.13425,59,80,0
296.09854,296.18784,58,80,0
296.15213,296.2414,59,80,0
296.2057,296.4155,42,80,0
296.41998,296.52264,44,80,0
296.52713,296.6298,46,80,0
296.63425,296.73694,47,80,0
296.7414,296.8441,49,80,0
296.84854,296.95123,50,80,0
296.9557,297.05838,52,80,0
297.06284,297.27264,54,80,0
297.4914,297.9155,59,80,0
297.91998,298.00925,58,80,0
297.97354,298.06284,59,80,0
298.02713,298.1164,58,80,0
298.0807,298.16998,59,80,0
298.13425,298.22354,58,80,0
298.18784,298.2771,59,80,0
298.2414,298.3307,58,80,0
298.29498,298.38425,59,80,0
298.34854,298.43784,58,80,0
298.4021,298.4914,59,80,0
298.4557,298.54498,58,80,0
298.50925,298.59854,59,80,0
298.56284,298.6521,58,80,0
298.6164,298.7057,59,80,0
298.66998,298.75925,58,80,0
298.72354,298.81284,59,80,0
298.7771,299.20123,54,80,0
298.7771,299.20123,42,80,0
299.2057,299.29498,50,80,0
299.25925,299.34854,52,80,0
299.31284,299.4021,50,80,0
299.3664,299.4557,52,80,0
299.41998,299.50925,50,80,0
299.47354,299.56284,52,80,0
299.5271,299.6164,50,80,0
299.5807,299.66998,52,80,0
299.63425,299.72354,50,80,0
299.68784,299.7771,52,80,0
299.7414,299.8307,50,80,0
299.79498,299.88425,52,80,0
299.84854,299.93784,50,80,0
299.9021,299.9914,52,80,0
299.9557,300.04498,50,80,0
300.00925,300.09854,52,80,0
300.06284,300.27264,47,80,0
300.2771,300.48694,46,80,0
300.2771,300.48694,37,80,0
300.4914,300.5941,38,80,0
300.59854,300.70123,40,80,0
300.7057,300.80835,42,80,0
300.4914,300.9155,45,80,0
300.81284,300.9155,43,80,0
300.91998,301.02264,45,80,0
301.0271,301.1298,47,80,0
301.34854,301.77264,47,80,0
301.34854,301.77264,54,80,0
301.7771,301.87762,43,80,0
301.88202,301.98254,45,80,0
301.9869,302.08743,47,80,0
302.0918,302.19232,49,80,0
302.1967,302.2972,50,80,0
302.30157,302.4021,52,80,0
302.61627,303.0315,52,80,0
303.03586,303.13638,49,80,0
303.14075,303.24127,50,80,0
303.24564,303.34616,52,81,0
303.35052,303.45105,54,82,0
303.45544,303.55597,55,83,0
303.56033,303.66086,57,84,0
303.875,304.29022,57,86,0
304.2946,304.3951,52,90,0
304.39948,304.5,54,91,0
304.5044,304.60492,55,92,0
304.60928,304.7098,57,93,0
304.71417,304.8147,59,93,0
304.81906,304.9196,61,94,0
305.13376,305.54895,61,97,0
305.55334,305.6518,64,100,0
305.65607,305.75452,62,100,0
305.75882,305.85727,61,100,0
305.86154,305.96002,59,100,0
305.9643,306.06274,57,100,0
306.06702,306.1655,55,100,0
306.37524,306.78192,55,100,0
306.7862,306.88467,61,100,0
306.88895,306.9874,59,100,0
306.9917,307.09015,57,100,0
307.09442,307.19287,55,100,0
307.19717,307.29562,54,100,0
307.2999,307.39838,52,100,0
307.60812,308.0148,52,100,0
308.01907,308.1149,38,110,0
308.11908,308.2149,40,110,0
308.2191,308.3149,42,110,0
308.3191,308.41492,43,110,0
308.41907,308.51492,44,110,0
308.51907,308.6149,45,110,0
308.8191,309.2149,54,110,0
308.8191,309.2149,45,110,0
309.2191,309.3149,42,110,0
309.3191,309.41492,43,110,0
309.41907,309.51492,45,110,0
309.51907,309.6149,47,110,0
309.61908,309.7149,49,110,0
309.7191,309.8149,50,110,0
310.01907,310.41492,57,110,0
310.01907,310.41492,50,110,0
310.41907,310.51492,43,110,0
310.51907,310.6149,45,110,0
310.61908,310.7149,47,110,0
310.7191,310.8149,49,110,0
310.8191,310.91492,50,110,0
310.91907,311.01492,52,110,0
311.2191,311.6149,52,110,0
311.61908,311.7149,49,110,0
311.7191,311.8149,50,110,0
311.8191,311.91492,52,110,0
311.91907,312.01492,54,110,0
312.01907,312.1149,55,110,0
312.11908,312.2149,57,110,0
312.41907,312.8149,57,110,0
312.8191,312.91492,50,110,0
312.91907,313.01492,49,110,0
313.01907,313.1149,47,110,0
313.11908,313.2149,45,110,0
313.2191,313.3149,43,110,0
313.3191,313.41492,42,110,0
313.41907,313.51492,54,110,0
313.51907,313.6149,55,110,0
313.61908,313.7149,57,110,0
313.7191,313.8149,59,110,0
313.8191,313.91492,61,110,0
313.91907,314.01492,62,110,0
314.01907,314.1149,47,110,0
314.11908,314.2149,45,110,0
314.2191,314.3149,43,110,0
314.3191,314.41492,42,110,0
314.41907,314.51492,40,110,0
314.51907,314.6149,38,110,0
314.61908,314.7149,50,110,0
314.7191,314.8149,52,110,0
314.8191,314.91492,54,110,0
314.91907,315.01492,55,110,0
315.01907,315.1149,57,110,0
315.11908,315.2149,59,110,0
315.2191,315.3149,59,110,0
315.2191,315.3149,55,110,0
315.3191,315.41492,57,110,0
315.3191,315.41492,54,110,0
315.41907,315.51492,55,110,0
315.41907,315.51492,52,110,0
315.51907,315.6149,54,110,0
315.51907,315.6149,50,110,0
315.61908,315.7149,52,110,0
315.61908,315.7149,49,110,0
315.7191,315.8149,50,110,0
315.7191,315.8149,47,110,0
316.01907,316.41492,50,110,0
316.01907,316.41492,47,110,0
316.41907,316.51492,43,110,0
316.51907,316.6149,45,110,0
316.61908,316.7149,47,110,0
316.7191,316.8149,48,110,0
316.8191,316.91492,50,110,0
316.91907,317.01492,52,110,0
317.01907,317.1149,47,110,0
317.11908,317.2149,49,110,0
317.2191,317.3149,50,110,0
317.3191,317.41492,52,110,0
317.41907,317.51492,54,110,0
317.51907,317.6149,55,110,0
317.61908,317.7149,45,110,0
317.7191,317.8149,47,110,0
317.8191,317.91492,49,110,0
317.91907,318.01492,50,110,0
318.01907,318.1149,52,110,0
318.11908,318.2149,53,110,0
318.2191,318.3149,45,110,0
318.3191,318.41492,47,110,0
318.41907,318.51492,49,110,0
318.51907,318.6149,50,110,0
318.61908,318.7149,49,110,0
318.7191,318.8149,47,110,0
318.8191,319.3149,46,110,0
319.3191,319.41492,44,110,0
319.41907,319.51492,42,110,0
319.51907,319.6149,44,110,0
319.61908,320.01492,46,110,0
320.01907,320.1149,47,110,0
320.11908,320.2149,49,110,0
320.2191,320.3149,47,110,0
320.3191,320.41492,45,110,0
320.41907,320.51492,44,110,0
320.51907,320.6149,50,110,0
320.61908,320.7149,47,110,0
320.7191,320.8149,53,110,0
320.8191,320.91492,56,110,0
321.2191,321.3149,45,110,0
321.3191,321.41492,54,110,0
321.41907,321.51492,50,110,0
321.51907,321.6149,57,110,0
321.61908,321.7149,54,110,0
321.7191,321.8149,62,110,0
321.8191,322.01492,47,110,0
322.01907,322.2149,49,110,0
322.2191,322.41492,50,110,0
322.41907,322.6149,31,110,0
322.8191,322.9024,49,110,0
322.86908,322.95242,50,110,0
322.91907,323.0024,49,110,0
322.9691,323.0524,50,110,0
323.01907,323.10242,49,110,0
323.0691,323.1524,50,110,0
323.11908,323.20242,49,110,0
323.16907,323.2524,50,110,0
323.2191,323.3024,49,110,0
323.26907,323.35242,50,110,0
323.3191,323.4024,49,110,0
323.36908,323.45242,50,110,0
323.41907,323.5024,49,110,0
323.4691,323.5524,50,110,0
323.51907,323.60242,47,110,0
323.5691,323.6524,49,110,0
323.61908,324.01492,50,110,0
324.2191,324.3149,50,110,0
324.3191,324.41492,49,110,0
324.41907,324.51492,47,110,0
324.51907,324.6149,45,110,0
324.61908,324.7149,43,110,0
324.7191,324.8149,42,110,0
324.8191,325.2149,47,110,0
325.41907,325.51492,47,110,0
325.51907,325.6149,45,110,0
325.61908,325.7149,43,110,0
325.7191,325.8149,42,110,0
325.8191,325.91492,40,110,0
325.91907,326.01492,38,110,0
326.01907,326.41492,43,110,0
326.61908,326.7149,43,110,0
326.7191,326.8149,42,110,0
326.8191,326.91492,40,110,0
326.91907,327.01492,39,110,0
327.01907,327.1149,40,110,0
327.11908,327.2149,38,110,0
327.2191,327.3149,37,110,0
327.3191,327.41492,38,110,0
327.41907,327.51492,37,110,0
327.51907,327.6149,35,110,0
327.61908,327.7149,33,110,0
327.7191,327.8149,35,110,0
327.8191,327.91492,37,110,0
327.91907,328.01492,38,110,0
328.01907,328.1149,39,110,0
328.11908,328.2149,40,110,0
328.2191,328.3149,42,110,0
328.3191,328.41492,40,110,0
328.41907,328.51492,38,110,0
328.51907,328.6149,40,110,0
328.61908,328.7149,38,110,0
328.7191,328.8149,37,110,0
328.8191,328.91492,35,110,0
328.91907,329.01492,37,110,0
329.01907,329.1149,38,110,0
329.11908,329.2149,40,110,0
329.2191,329.3149,41,110,0
329.3191,329.41492,42,110,0
329.41907,329.51492,43,110,0
329.51907,329.6149,42,110,0
329.61908,329.7149,40,110,0
329.7191,329.8149,41,110,0
329.8191,329.91492,40,110,0
329.91907,330.01492,38,110,0
330.01907,330.1149,36,110,0
330.11908,330.2149,38,110,0
330.2191,330.3149,40,110,0
330.3191,330.41492,41,110,0
330.41907,330.51492,42,110,0
330.51907,330.6149,43,110,0
330.61908,330.7149,45,110,0
330.7191,330.8149,43,110,0
330.8191,330.91492,42,110,0
330.91907,331.01492,43,110,0
331.01907,331.1149,42,110,0
331.11908,331.2149,40,110,0
331.2191,331.3149,38,110,0
331.3191,331.41492,40,110,0
331.41907,331.51492,42,110,0
331.51907,331.6149,43,110,0
331.61908,331.7149,44,110,0
331.7191,331.8149,45,110,0
331.8191,331.91492,47,110,0
331.91907,332.01492,45,110,0
332.01907,332.1149,59,110,0
332.01907,332.2149,43,110,0
332.11908,332.2149,60,110,0
332.2191,332.3149,59,110,0
332.3191,332.41492,57,110,0
332.41907,332.6149,55,100,0
332.51907,332.6149,57,100,0
332.61908,332.7149,59,100,0
332.61908,332.8149,53,100,0
332.7191,332.8149,60,101,0
332.8191,332.91492,61,101,0
332.8191,333.01492,52,101,0
332.91907,333.01492,62,102,0
333.01907,333.1149,56,102,0
333.11908,333.2149,62,103,0
333.2191,333.3149,60,103,0
333.3191,333.41492,62,104,0
333.41907,333.51492,60,104,0
333.2191,333.6149,56,103,0
333.51907,333.6149,59,105,0
333.61908,333.7149,57,105,0
333.61908,333.7149,57,105,0
333.7191,333.8149,59,106,0
333.8191,333.91492,60,106,0
333.8191,334.01492,55,106,0
333.91907,334.01492,62,106,0
334.01907,334.1149,63,107,0
334.01907,334.2149,54,107,0
334.11908,334.2149,64,107,0
334.2191,334.3149,58,108,0
334.3191,334.41492,64,108,0
334.41907,334.51492,62,109,0
334.51907,334.6149,64,109,0
334.61908,334.7149,62,110,0
334.41907,334.8149,58,109,0
334.7191,334.8149,61,110,0
334.8191,334.91492,59,111,0
334.8191,334.91492,59,111,0
334.91907,335.01492,61,111,0
335.01907,335.1149,62,112,0
335.01907,335.2149,57,112,0
335.11908,335.2149,64,112,0
335.2191,335.3149,65,113,0
335.2191,335.41492,55,113,0
335.3191,335.41492,66,113,0
335.41907,335.51492,67,113,0
335.51907,335.6149,65,114,0
335.61908,335.7149,64,114,0
335.7191,335.8149,65,115,0
335.8191,335.91492,64,115,0
335.61908,336.01492,59,114,0
335.91907,336.01492,62,116,0
336.01907,336.1149,60,116,0
336.01907,336.1149,60,116,0
336.11908,336.2149,62,117,0
336.2191,336.3149,64,117,0
336.2191,336.41492,59,117,0
336.3191,336.41492,62,118,0
336.41907,336.51492,60,118,0
336.41907,336.6149,57,118,0
336.51907,336.6149,62,119,0
336.61908,336.7149,60,119,0
336.61908,336.8149,55,119,0
336.7191,336.8149,59,119,0
336.8191,336.91492,57,120,0
336.8191,337.01492,54,120,0
336.91907,337.01492,59,120,0
337.01907,337.1149,57,120,0
337.01907,337.2149,52,120,0
337.11908,337.2149,55,120,0
337.2191,337.3149,51,120,0
337.3191,337.41492,50,120,0
337.41907,337.51492,48,120,0
337.2191,337.6149,54,120,0
337.51907,337.6149,50,120,0
337.61908,337.7149,51,120,0
337.7191,337.8149,50,120,0
337.8191,337.91492,51,120,0
337.91907,338.01492,48,120,0
338.2191,338.41492,59,110,0
338.61908,338.8149,57,110,0
338.41907,339.01492,47,125,0
338.8191,339.2149,55,110,0
339.41907,339.6149,55,110,0
339.8191,340.01492,54,110,0
339.61908,340.2149,43,125,0
340.01907,340.2149,52,110,0
340.2191,340.41492,50,110,0
340.2191,340.41492,47,110,0
340.41907,340.6149,48,110,0
340.41907,340.6149,45,110,0
340.61908,340.8149,60,110,0
340.8191,341.01492,52,110,0
340.8191,341.01492,48,110,0
341.01907,341.2149,50,110,0
341.01907,341.2149,47,110,0
341.2191,341.41492,48,110,0
341.2191,341.41492,45,110,0
341.41907,341.6149,47,110,0
341.41907,341.6149,43,110,0
341.61908,341.8149,42,110,0
341.61908,342.01492,45,110,0
341.8191,342.01492,51,110,0
342.2191,342.41492,52,110,0
342.41907,342.6149,54,110,0
342.61908,342.8149,55,110,0
342.8191,343.01492,57,110,0
343.01907,343.2149,59,110,0
342.01907,343.41492,50,127,0
343.2191,343.41492,60,110,0
343.41907,343.6149,59,110,0
343.41907,343.6149,50,110,0
343.61908,343.8149,57,110,0
343.61908,343.8149,48,110,0
343.8191,344.01492,47,110,0
343.8191,344.2149,55,110,0
344.01907,344.41492,47,110,0
344.2191,344.6149,60,110,0
344.41907,344.8149,50,110,0
344.61908,344.8149,59,110,0
344.8191,344.91492,58,110,0
344.8191,345.2149,52,110,0
345.2191,345.3149,54,110,0
345.3191,345.41492,57,110,0
345.41907,345.51492,55,110,0
345.51907,345.6149,54,110,0
345.61908,345.7149,52,110,0
345.7191,345.8149,50,110,0
345.8191,345.91492,52,110,0
345.91907,346.01492,54,110,0
346.01907,346.1149,55,110,0
346.11908,346.2149,50,110,0
346.2191,346.3149,55,110,0
346.3191,346.41492,54,110,0
346.41907,346.51492,52,110,0
346.51907,346.6149,54,110,0
346.61908,346.7149,52,110,0
346.7191,346.8149,50,110,0
346.8191,346.91492,49,110,0
346.91907,347.01492,50,110,0
347.01907,347.1149,49,110,0
347.11908,347.2149,47,110,0
347.2191,347.3024,50,110,0
347.26907,347.35242,52,110,0
347.3191,347.4024,50,110,0
347.2191,347.41492,45,110,0
347.36908,347.45242,52,110,0
347.41907,347.5024,50,110,0
347.4691,347.5524,52,110,0
347.51907,347.60242,50,110,0
347.41907,347.6149,44,110,0
347.5691,347.6524,52,110,0
347.61908,347.70242,50,110,0
347.66907,347.7524,52,110,0
347.7191,347.8024,50,110,0
347.76907,347.85242,52,110,0
347.8191,347.9024,50,110,0
347.86908,347.95242,52,110,0
347.91907,348.0024,49,110,0
347.9691,348.0524,50,110,0
347.61908,348.41492,45,110,0
348.01907,348.41492,49,110,0
348.61908,348.7149,50,110,0
348.61908,348.8149,47,110,0
348.7191,348.8149,52,110,0
348.8191,348.91492,54,110,0
348.91907,349.01492,55,110,0
349.01907,349.1149,57,110,0
348.8191,349.2149,45,110,0
349.11908,349.2149,59,110,0
349.2191,349.6149,54,110,0
349.8191,349.91492,54,110,0
349.8191,350.01492,43,110,0
349.91907,350.01492,55,110,0
350.01907,350.1149,57,110,0
350.11908,350.2149,59,110,0
350.2191,350.3149,61,110,0
350.01907,350.41492,54,110,0
350.3191,350.41492,62,110,0
350.41907,350.8149,57,110,0
351.01907,351.1149,57,110,0
351.01907,351.2149,50,110,0
351.11908,351.2149,59,110,0
351.2191,351.3149,52,110,0
351.3191,351.41492,51,110,0
351.41907,351.51492,52,110,0
351.51907,351.6149,54,110,0
351.61908,351.7149,55,110,0
351.7191,351.8149,54,110,0
351.8191,351.91492,55,110,0
351.91907,352.01492,57,110,0
352.01907,352.1149,59,110,0
352.11908,352.2149,57,110,0
352.2191,352.3149,55,110,0
352.3191,352.41492,56,110,0
352.41907,352.51492,57,110,0
352.41907,352.6149,45,110,0
352.51907,352.6149,56,110,0
352.61908,352.7149,57,110,0
352.7191,352.8149,59,110,0
352.8191,353.01492,61,110,0
353.01907,353.1149,49,110,0
353.11908,353.2149,50,110,0
353.01907,353.41492,45,110,0
353.41907,353.6149,47,110,0
353.2191,353.8149,52,110,0
353.61908,353.8149,49,110,0
353.8191,353.91492,54,110,0
353.91907,354.01492,55,110,0
354.01907,354.1149,57,110,0
354.11908,354.2149,55,110,0
354.2191,354.3149,54,110,0
353.8191,354.41492,50,110,0
354.3191,354.41492,52,110,0
354.41907,354.51492,50,110,0
354.51907,354.6149,52,110,0
354.61908,354.7149,54,110,0
354.7191,354.8149,55,110,0
354.8191,354.91492,57,110,0
354.91907,355.01492,59,110,0
355.01907,355.1149,60,110,0
355.11908,355.2149,62,110,0
355.2191,355.3149,64,110,0
355.3191,355.41492,62,110,0
355.41907,355.51492,64,110,0
355.41907,355.6149,50,110,0
355.51907,355.6149,66,110,0
355.61908,355.7149,55,110,0
355.7191,355.8149,59,110,0
355.8191,355.91492,55,110,0
355.61908,356.01492,67,110,0
355.91907,356.01492,52,110,0
356.01907,356.1149,54,110,0
356.11908,356.2149,52,110,0
356.2191,356.3149,54,110,0
356.3191,356.41492,55,110,0
356.41907,356.51492,57,110,0
356.51907,356.6149,59,110,0
356.61908,356.7149,61,110,0
356.61908,356.8149,47,110,0
356.7191,356.8149,63,110,0
356.8191,357.2149,64,110,0
356.8191,357.2149,52,110,0
357.2191,357.3149,52,110,0
357.3191,357.41492,50,110,0
357.41907,357.51492,52,110,0
357.51907,357.6149,54,110,0
357.61908,357.7149,55,110,0
357.7191,357.8149,57,110,0
357.8191,357.91492,59,110,0
357.8191,358.01492,45,110,0
357.91907,358.01492,61,110,0
358.01907,358.41492,62,110,0
358.01907,358.41492,50,110,0
358.41907,358.5024,57,110,0
358.4691,358.5524,59,110,0
358.51907,358.60242,57,110,0
358.5691,358.6524,59,110,0
358.61908,358.70242,57,110,0
358.66907,358.7524,59,110,0
358.7191,358.8024,57,110,0
358.76907,358.85242,59,110,0
358.8191,358.9024,57,110,0
358.86908,358.95242,59,110,0
358.91907,359.0024,57,110,0
358.9691,359.0524,59,110,0
359.01907,359.10242,57,110,0
359.0691,359.1524,59,110,0
359.11908,359.20242,57,110,0
359.16907,359.2524,59,110,0
359.2191,359.3149,56,110,0
359.3191,359.41492,59,110,0
359.41907,359.51492,56,110,0
359.51907,359.6149,52,110,0
359.61908,359.70242,55,110,0
359.66907,359.7524,57,110,0
359.7191,359.8024,55,110,0
359.76907,359.85242,57,110,0
359.8191,359.9024,55,110,0
359.86908,359.95242,57,110,0
359.91907,360.0024,55,110,0
359.9691,360.0524,57,110,0
360.01907,360.10242,55,110,0
360.0691,360.1524,57,110,0
360.11908,360.20242,55,110,0
360.16907,360.2524,57,110,0
360.2191,360.3024,55,110,0
360.26907,360.35242,57,110,0
360.3191,360.4024,55,110,0
360.36908,360.45242,57,110,0
360.41907,360.51492,54,110,0
360.51907,360.6149,57,110,0
360.61908,360.7149,54,110,0
360.7191,360.8149,50,110,0
360.8191,360.9024,53,110,0
360.86908,360.95242,55,110,0
360.91907,361.0024,53,110,0
360.9691,361.0524,55,110,0
361.01907,361.10242,53,110,0
361.0691,361.1524,55,110,0
361.11908,361.20242,53,110,0
361.16907,361.2524,55,110,0
361.2191,361.3024,53,110,0
361.26907,361.35242,55,110,0
361.3191,361.4024,53,110,0
361.36908,361.45242,55,110,0
361.41907,361.5024,53,110,0
361.4691,361.5524,55,110,0
361.51907,361.60242,53,110,0
361.5691,361.6524,55,110,0
361.61908,361.7149,51,110,0
361.7191,361.8149,55,110,0
361.8191,361.91492,51,110,0
361.91907,362.01492,48,110,0
362.01907,362.2149,56,120,0
362.41907,362.5024,41,120,0
362.4691,362.5524,43,120,0
362.51907,362.60242,41,120,0
362.5691,362.6524,43,120,0
362.61908,362.70242,41,120,0
362.66907,362.7524,43,120,0
362.7191,362.8024,41,120,0
362.76907,362.85242,43,120,0
362.8191,362.9024,41,120,0
362.86908,362.95242,43,120,0
362.91907,363.0024,41,120,0
362.9691,363.0524,43,120,0
363.01907,363.10242,41,120,0
363.0691,363.1524,43,120,0
363.11908,363.20242,41,120,0
363.16907,363.2524,43,120,0
363.2191,363.6149,39,120,0
363.8191,363.91492,39,110,0
363.91907,364.01492,41,110,0
364.01907,364.1149,43,110,0
364.11908,364.2149,44,110,0
364.2191,364.3149,46,110,0
364.3191,364.41492,48,110,0
364.41907,364.8149,43,110,0
365.01907,365.1149,43,110,0
365.11908,365.2149,44,110,0
365.2191,365.3149,46,110,0
365.3191,365.41492,48,110,0
365.41907,365.51492,50,110,0
365.51907,365.6149,51,110,0
365.61908,366.01492,46,110,0
366.2191,366.3149,46,110,0
366.3191,366.41492,48,110,0
366.41907,366.51492,50,110,0
366.51907,366.6149,48,110,0
366.61908,366.7149,50,110,0
366.7191,366.8149,51,110,0
366.8191,366.91492,53,110,0
366.91907,367.01492,52,110,0
367.01907,367.1149,53,110,0
367.11908,367.2149,55,110,0
367.2191,367.3149,56,110,0
367.3191,367.41492,55,110,0
367.41907,367.51492,53,110,0
367.51907,367.6149,51,110,0
367.61908,367.7149,50,110,0
367.7191,367.8149,51,110,0
367.8191,367.91492,50,110,0
367.91907,368.01492,48,110,0
368.01907,368.1149,46,110,0
368.11908,368.2149,48,110,0
368.2191,368.3149,46,110,0
368.3191,368.41492,44,110,0
368.41907,368.51492,43,110,0
368.51907,368.6149,44,110,0
368.61908,368.7149,46,110,0
368.7191,368.8149,48,110,0
368.8191,368.91492,50,110,0
368.91907,369.01492,51,110,0
369.01907,369.1149,53,110,0
369.11908,369.2149,55,110,0
369.2191,369.3149,44,120,0
369.3191,369.41492,46,120,0
369.41907,369.51492,48,120,0
369.51907,369.6149,49,120,0
369.61908,369.7149,51,120,0
369.7191,369.8149,53,120,0
369.8191,369.91492,55,120,0
369.91907,370.01492,56,120,0
370.01907,370.1149,58,120,0
370.11908,370.2149,59,120,0
370.2191,370.41492,60,120,0
370.41907,370.6149,80,120,0
370.8191,370.9024,65,120,0
370.86908,370.95242,67,120,0
370.91907,371.0024,65,120,0
370.9691,371.0524,67,120,0
371.01907,371.10242,65,120,0
371.0691,371.1524,67,120,0
371.11908,371.20242,65,120,0
371.16907,371.2524,67,120,0
371.2191,371.3024,65,120,0
371.26907,371.35242,67,120,0
371.3191,371.4024,65,120,0
371.36908,371.45242,67,120,0
371.41907,371.5024,65,120,0
371.4691,371.5524,67,120,0
371.51907,371.60242,65,120,0
371.5691,371.6524,67,120,0
371.61908,371.7149,55,120,0
371.7191,371.8149,56,120,0
371.8191,371.91492,58,120,0
371.91907,372.01492,60,120,0
372.01907,372.1149,62,120,0
372.11908,372.2149,63,120,0
372.2191,372.3149,65,120,0
372.3191,372.41492,67,120,0
372.41907,372.51492,68,120,0
372.51907,372.6149,69,120,0
372.61908,372.8149,70,120,0
372.8191,373.01492,55,120,0
373.2191,373.3024,39,120,0
373.26907,373.35242,41,120,0
373.3191,373.4024,39,120,0
373.36908,373.45242,41,120,0
373.41907,373.5024,39,120,0
373.4691,373.5524,41,120,0
373.51907,373.60242,39,120,0
373.5691,373.6524,41,120,0
373.61908,373.70242,39,120,0
373.66907,373.7524,41,120,0
373.7191,373.8024,39,120,0
373.76907,373.85242,41,120,0
373.8191,373.9024,39,120,0
373.86908,373.95242,41,120,0
373.91907,374.0024,39,120,0
373.9691,374.0524,41,120,0
374.01907,374.2149,34,120,0
374.41907,374.5024,50,120,0
374.4691,374.5524,51,120,0
374.54407,374.5524,51,120,0
374.51907,374.60242,50,120,0
374.61908,374.70242,50,120,0
374.66907,374.7524,51,120,0
374.74408,374.7524,51,120,0
374.7191,374.8024,50,120,0
374.8191,374.9024,50,120,0
374.86908,374.95242,51,120,0
374.9441,374.95242,51,120,0
374.91907,375.0024,50,120,0
375.01907,375.10242,50,120,0
375.0691,375.1524,51,120,0
375.14407,375.1524,51,120,0
375.11908,375.20242,50,120,0
375.2191,375.41492,39,120,0
375.61908,375.70242,55,120,0
375.66907,375.7524,56,120,0
375.7191,375.8024,55,120,0
375.76907,375.85242,56,120,0
375.8191,375.9024,55,120,0
375.86908,375.95242,56,120,0
375.91907,376.0024,55,120,0
375.9691,376.0524,56,120,0
376.01907,376.10242,55,120,0
376.0691,376.1524,56,120,0
376.11908,376.20242,55,120,0
376.16907,376.2524,56,120,0
376.2191,376.3024,55,120,0
376.26907,376.35242,56,120,0
376.3191,376.4024,55,120,0
376.36908,376.45242,56,120,0
376.41907,376.6149,36,120,0
376.8191,376.9024,52,120,0
376.86908,376.95242,53,120,0
376.91907,377.0024,52,120,0
376.9691,377.0524,53,120,0
377.01907,377.10242,52,120,0
377.0691,377.1524,53,120,0
377.11908,377.20242,52,120,0
377.16907,377.2524,53,120,0
377.2191,377.3024,52,120,0
377.26907,377.35242,53,120,0
377.3191,377.4024,52,120,0
377.36908,377.45242,53,120,0
377.41907,377.5024,52,120,0
377.4691,377.5524,53,120,0
377.51907,377.60242,52,120,0
377.5691,377.6524,53,120,0
377.61908,377.8149,41,123,0
378.01907,378.10242,56,120,0
378.0691,378.1524,58,120,0
378.11908,378.20242,56,120,0
378.16907,378.2524,58,120,0
378.2191,378.3024,56,120,0
378.26907,378.35242,58,120,0
378.3191,378.4024,56,120,0
378.36908,378.45242,58,120,0
378.41907,378.5024,56,120,0
378.4691,378.5524,58,120,0
378.51907,378.60242,56,120,0
378.5691,378.6524,58,120,0
378.61908,378.70242,56,120,0
378.66907,378.7524,58,120,0
378.7191,378.8024,56,120,0
378.76907,378.85242,58,120,0
378.8191,379.01492,55,120,0
379.01907,379.2149,59,120,0
379.2191,379.3024,43,120,0
379.26907,379.35242,44,120,0
379.3191,379.4024,43,120,0
379.36908,379.45242,44,120,0
379.8191,380.01492,63,120,0
380.01907,380.10242,48,120,0
380.0691,380.1524,50,120,0
380.11908,380.20242,48,120,0
380.16907,380.2524,50,120,0
380.61908,380.8149,56,120,0
380.8191,380.9024,42,120,0
380.86908,380.95242,43,120,0
380.91907,381.0024,42,120,0
380.9691,381.0524,43,120,0
381.41907,381.6149,58,120,0
381.61908,381.70242,43,120,0
381.66907,381.7524,45,120,0
381.7191,381.8024,43,120,0
381.76907,381.85242,45,120,0
382.22598,382.42856,64,120,0
382.43286,382.52216,49,120,0
382.48645,382.5757,50,120,0
382.54,382.6293,49,120,0
382.5936,382.68286,50,120,0
383.0757,383.28555,57,120,0
383.29,383.49985,53,120,0
383.5043,383.7141,50,120,0
383.7186,383.9284,45,120,0
383.93286,384.1427,41,120,0
384.14716,384.35696,38,120,0
384.36145,384.57126,45,120,0
384.36145,384.57126,33,120,0
384.5757,384.79333,46,120,0
384.5757,384.79333,34,120,0
384.79794,385.01553,46,120,0
384.79794,385.01553,34,120,0
385.02017,385.26495,45,120,0
385.02017,385.26495,40,120,0
385.02017,385.26495,37,120,0
385.02017,385.26495,33,120,0
385.52017,385.76495,45,120,0
385.52017,385.76495,40,120,0
385.52017,385.76495,37,120,0
385.52017,385.76495,33,120,0
393.14087,393.55035,57,80,0
393.55466,393.96414,55,80,0
393.96844,394.37793,54,80,0
394.38223,394.79172,55,80,0
394.79602,395.6193,57,80,0
395.62363,396.0331,55,80,0
396.0374,396.4469,54,80,0
396.4512,396.8607,59,80,0
396.865,397.27448,49,80,0
397.27878,397.68826,50,80,0
397.6926,398.10205,43,80,0
398.10638,398.51587,44,80,0
398.52017,398.92966,45,80,0
398.93396,399.34344,47,80,0
399.34775,399.75723,42,80,0
399.76154,400.17102,44,80,0
400.17535,400.5848,43,80,0
400.58914,400.99863,47,80,0
401.00293,401.4124,49,80,0
401.41672,401.8262,50,80,0
401.8305,402.24,62,80,0
402.2443,402.65378,60,80,0
402.6581,403.06757,59,80,0
403.0719,403.48138,60,80,0
403.4857,403.89517,62,80,0
403.89948,404.30896,55,80,0
404.31326,404.72275,57,80,0
404.72705,405.13654,59,80,0
405.14087,405.55035,52,80,0
405.55466,405.96414,54,80,0
405.96844,406.37793,55,80,0
406.38223,406.79172,56,80,0
406.79602,407.2055,57,80,0
407.2098,407.6193,55,80,0
407.62363,408.0331,54,80,0
408.0374,408.4469,59,80,0
408.4512,408.8607,57,80,0
408.865,409.68826,55,80,0
409.27878,409.68826,61,80,0
409.69257,410.10205,59,80,0
409.69257,410.10205,53,80,0
410.10638,410.51587,58,80,0
410.10638,410.92966,54,80,0
410.52017,410.92966,62,80,0
410.93396,411.13654,56,80,0
410.93396,411.34344,61,80,0
411.14087,411.34344,58,80,0
411.34775,411.75723,62,80,0
411.34775,411.75723,59,80,0
411.76154,412.17102,61,80,0
411.76154,412.17102,57,80,0
412.17532,412.5848,64,80,0
412.17532,412.5848,61,80,0
412.58914,412.99863,62,80,0
412.58914,412.99863,66,80,0
413.00293,413.4124,54,80,0
413.41672,413.8262,51,80,0
413.8305,414.24,52,80,0
414.2443,414.65378,64,80,0
414.65808,415.06757,62,80,0
415.0719,415.48138,61,80,0
415.4857,415.89517,45,80,0
415.89948,416.30896,43,80,0
416.31326,416.72275,42,80,0
416.72705,417.13654,44,80,0
417.14084,417.96414,45,80,0
417.96844,418.37793,44,80,0
418.38223,418.79172,40,80,0
418.79602,419.2055,45,80,0
419.2098,419.6193,57,80,0
419.6236,420.03308,54,80,0
420.0374,420.86853,55,80,0
420.873,421.31107,52,80,0
421.3159,421.77896,51,80,0
421.78397,422.27127,50,80,0
422.27646,422.79422,48,80,0
422.7999,423.35077,57,80,0
422.7999,423.35077,53,80,0
423.35672,423.94214,58,80,0
423.35672,423.94214,46,80,0
423.94836,424.58112,52,80,0
423.94836,424.58112,46,80,0
424.58807,424.9839,53,70,0
424.58807,424.9839,45,70,0
424.98807,425.3839,48,70,0
425.38806,425.7839,41,70,0
425.78806,426.1839,46,70,0
428.18808,428.5839,43,70,0
428.58807,428.6714,59,70,0
428.63806,428.7214,60,70,0
428.68808,428.7714,59,70,0
428.73807,428.8214,60,70,0
428.78806,428.8714,59,70,0
428.83807,428.9214,60,70,0
428.88806,428.9714,59,70,0
428.93808,429.0214,60,70,0
428.98807,429.0714,59,70,0
429.03806,429.1214,60,70,0
429.08807,429.1714,59,70,0
429.13806,429.2214,60,70,0
429.18808,429.2714,59,70,0
429.23807,429.3214,60,70,0
429.28806,429.3714,57,70,0
429.33807,429.4214,59,70,0
429.38806,429.7839,60,70,0
429.98807,430.0839,60,76,0
430.08807,430.1839,58,77,0
430.18808,430.2839,57,78,0
430.28806,430.3839,55,79,0
430.38806,430.4839,53,80,0
430.48807,430.5839,52,81,0
430.58807,430.9839,57,82,0
431.18808,431.2839,57,88,0
431.28806,431.3839,55,89,0
431.38806,431.4839,53,90,0
431.48807,431.5839,52,91,0
431.58807,431.6839,50,92,0
431.68808,431.7839,48,93,0
431.78806,432.1839,53,94,0
432.38806,432.4839,53,100,0
432.48807,432.5839,52,101,0
432.58807,432.6839,50,102,0
432.68808,432.7839,48,103,0
432.78806,432.8839,46,104,0
432.88806,432.9839,45,105,0
432.98807,433.0839,48,106,0
433.08807,433.1839,46,107,0
433.18808,433.2839,45,108,0
433.28806,433.3839,43,109,0
433.38806,433.7839,41,110,0
433.38806,433.7839,29,110,0
433.78806,434.1839,39,110,0
433.78806,434.1839,27,110,0
434.18808,434.5839,38,110,0
434.18808,434.5839,26,110,0
434.58807,434.9839,39,110,0
434.58807,434.9839,27,110,0
435.18808,435.2839,58,110,0
434.98807,435.3839,41,110,0
434.98807,435.3839,29,110,0
435.28806,435.3839,56,110,0
435.38806,435.4839,55,110,0
435.48807,435.5839,53,110,0
435.58807,435.6839,51,110,0
435.38806,435.7839,39,110,0
435.38806,435.7839,27,110,0
435.68808,435.7839,50,110,0
435.78806,436.1839,41,110,0
435.78806,436.1839,29,110,0
436.18808,436.5839,43,110,0
436.18808,436.5839,31,110,0
436.78806,436.8839,60,110,0
436.58807,436.9839,40,110,0
436.58807,436.9839,28,110,0
436.88806,436.9839,58,110,0
436.98807,437.0839,56,110,0
437.08807,437.1839,55,110,0
437.18808,437.2839,53,110,0
436.98807,437.3839,41,110,0
436.98807,437.3839,29,110,0
437.28806,437.3839,52,110,0
437.38806,437.7839,43,110,0
437.38806,437.7839,31,110,0
437.78806,438.1839,41,110,0
437.78806,438.1839,29,110,0
438.38806,438.4839,57,110,0
438.18808,438.5839,43,110,0
438.18808,438.5839,31,110,0
438.48807,438.5839,55,110,0
438.58807,438.6839,54,110,0
438.68808,438.7839,51,110,0
438.78806,438.8839,50,110,0
438.58807,438.9839,45,110,0
438.58807,438.9839,33,110,0
438.88806,438.9839,48,110,0
438.98807,439.3839,42,110,0
438.98807,439.3839,30,110,0
439.38806,439.7839,43,110,0
439.38806,439.7839,31,110,0
439.78806,440.1839,45,110,0
439.78806,440.1839,33,110,0
440.18808,440.5839,43,110,0
440.18808,440.5839,31,110,0
440.58807,440.9839,45,110,0
440.58807,440.9839,33,110,0
440.98807,441.0839,34,110,0
441.08807,441.1839,46,110,0
441.18808,441.2839,48,110,0
441.28806,441.3839,46,110,0
441.38806,441.4839,45,110,0
441.48807,441.5839,43,110,0
441.58807,441.6839,41,110,0
441.68808,441.7839,40,110,0
441.78806,441.8839,43,110,0
441.88806,441.9839,41,110,0
441.98807,442.0839,52,110,0
442.08807,442.1839,50,110,0
442.18808,442.2839,48,110,0
442.28806,442.3839,46,110,0
442.38806,442.4839,45,110,0
442.48807,442.5839,43,110,0
442.58807,442.6839,41,110,0
442.68808,442.7839,40,110,0
442.78806,442.8839,38,110,0
442.88806,442.9839,36,110,0
442.98807,443.1839,58,110,0
443.38806,443.4714,43,110,0
443.43808,443.5214,45,110,0
443.48807,443.5714,43,110,0
443.53806,443.6214,45,110,0
443.58807,443.6714,43,110,0
443.63806,443.7214,45,110,0
443.68808,443.7714,43,110,0
443.73807,443.8214,45,110,0
443.78806,443.8714,43,110,0
443.83807,443.9214,45,110,0
443.88806,443.9714,43,110,0
443.93808,444.0214,45,110,0
443.98807,444.0714,43,110,0
444.03806,444.1214,45,110,0
444.08807,444.1714,43,110,0
444.13806,444.2214,45,110,0
444.18808,444.5839,41,110,0
444.78806,444.8839,41,110,0
444.88806,444.9839,43,110,0
444.98807,445.0839,45,110,0
445.08807,445.1839,46,110,0
445.18808,445.2839,48,110,0
445.28806,445.3839,50,110,0
445.38806,445.7839,45,110,0
445.98807,446.0839,45,110,0
446.08807,446.1839,46,110,0
446.18808,446.2839,48,110,0
446.28806,446.3839,50,110,0
446.38806,446.4839,52,110,0
446.48807,446.5839,53,110,0
446.58807,446.9839,48,110,0
447.18808,447.2839,48,110,0
447.28806,447.3839,50,110,0
447.38806,447.4839,52,110,0
447.48807,447.5839,50,110,0
447.58807,447.6839,52,110,0
447.68808,447.7839,53,110,0
447.78806,447.8839,55,110,0
447.88806,447.9839,53,110,0
447.98807,448.0839,55,110,0
448.08807,448.1839,57,110,0
448.18808,448.2839,58,110,0
448.28806,448.3839,57,110,0
448.38806,448.4839,55,110,0
448.48807,448.5839,57,110,0
448.58807,448.6839,58,110,0
448.68808,448.7839,57,110,0
448.78806,448.8839,55,110,0
448.88806,448.9839,53,110,0
448.98807,449.0839,52,110,0
449.08807,449.1839,50,110,0
449.18808,449.2839,48,110,0
449.28806,449.3839,50,110,0
449.38806,449.4839,51,110,0
449.48807,449.5839,50,110,0
449.58807,449.6839,48,110,0
449.68808,449.7839,46,110,0
449.78806,449.8839,50,110,0
449.88806,449.9839,48,110,0
449.98807,450.0839,46,110,0
450.08807,450.1839,45,110,0
450.18808,450.2839,46,110,0
450.28806,450.3839,45,110,0
450.38806,450.4839,43,110,0
450.48807,450.5839,41,110,0
450.78806,450.9839,29,110,0
450.98807,451.0714,45,110,0
451.03806,451.1214,46,110,0
451.08807,451.1714,45,110,0
451.13806,451.2214,46,110,0
451.18808,451.2714,45,110,0
451.23807,451.3214,46,110,0
451.28806,451.3714,45,110,0
450.58807,451.3839,51,110,0
451.33807,451.4214,46,110,0
451.38806,451.4714,45,110,0
451.43808,451.5214,46,110,0
451.48807,451.5714,45,110,0
451.53806,451.6214,46,110,0
451.58807,451.6714,45,110,0
451.63806,451.7214,46,110,0
451.68808,451.7714,43,110,0
451.73807,451.8214,45,110,0
451.78806,452.1839,46,110,0
452.38806,452.4839,46,110,0
452.48807,452.5839,45,110,0
452.58807,452.6839,43,110,0
452.68808,452.7839,41,110,0
452.78806,452.8839,39,110,0
452.88806,452.9839,38,110,0
452.98807,453.3839,43,110,0
453.58807,453.6839,43,110,0
453.68808,453.7839,41,110,0
453.78806,453.8839,39,110,0
453.88806,453.9839,38,110,0
453.98807,454.0839,36,110,0
454.08807,454.1839,35,110,0
454.18808,454.5839,36,110,0
454.78806,454.8839,51,110,0
454.88806,454.9839,50,110,0
454.98807,455.0839,48,110,0
455.08807,455.1839,50,110,0
455.18808,455.2839,48,110,0
455.28806,455.3839,46,110,0
455.38806,455.4839,45,110,0
455.48807,455.5839,46,110,0
455.58807,455.6839,45,110,0
455.68808,455.7839,43,110,0
455.78806,455.8839,41,110,0
455.88806,455.9839,43,110,0
455.98807,456.0839,45,110,0
456.08807,456.1839,46,110,0
456.18808,456.2839,48,110,0
456.28806,456.3839,49,110,0
456.38806,456.4839,50,110,0
456.48807,456.5839,48,110,0
456.58807,456.6839,46,110,0
456.68808,456.7839,48,110,0
456.78806,456.8839,50,110,0
456.88806,456.9839,51,110,0
456.98807,457.0839,52,110,0
457.08807,457.1839,51,110,0
457.18808,457.2839,50,110,0
457.28806,457.3839,51,110,0
457.38806,457.4839,53,110,0
457.48807,457.5839,55,110,0
457.58807,457.6839,57,110,0
457.68808,457.7839,58,110,0
457.78806,457.8839,60,110,0
457.88806,457.9839,58,110,0
457.98807,458.0839,60,110,0
458.08807,458.1839,62,110,0
458.18808,458.2839,63,110,0
458.28806,458.3839,62,110,0
458.38806,458.4839,61,110,0
458.48807,458.5839,60,110,0
458.58807,458.6839,58,110,0
458.68808,458.7839,57,110,0
458.78806,458.8839,55,110,0
458.88806,458.9839,57,110,0
458.98807,459.0839,58,110,0
459.08807,459.1839,57,110,0
459.18808,459.2839,55,110,0
459.28806,459.3839,53,110,0
459.38806,459.4714,55,110,0
459.43808,459.5214,57,110,0
459.48807,459.5714,55,110,0
459.53806,459.6214,57,110,0
459.58807,459.6714,55,110,0
459.63806,459.7214,57,110,0
459.68808,459.7714,55,110,0
459.38806,459.7839,52,110,0
459.73807,459.8214,57,110,0
459.78806,459.8714,55,110,0
459.83807,459.9214,57,110,0
459.88806,459.9714,55,110,0
459.93808,460.0214,57,110,0
459.98807,460.0714,55,110,0
460.03806,460.1214,57,110,0
460.08807,460.1714,55,110,0
459.78806,460.1839,46,110,0
460.13806,460.2214,57,110,0
460.18808,460.5839,53,110,0
460.18808,460.5839,45,110,0
460.58807,460.6714,57,110,0
460.63806,460.7214,58,110,0
460.68808,460.7714,57,110,0
460.73807,460.8214,58,110,0
460.78806,460.8714,57,110,0
460.83807,460.9214,58,110,0
460.88806,460.9714,57,110,0
460.96307,460.9714,57,110,0
460.58807,460.9839,54,110,0
460.93808,461.0214,58,110,0
461.01306,461.0214,58,110,0
461.06308,461.1464,57,110,0
461.11307,461.1964,58,110,0
461.18808,461.2714,57,110,0
461.23807,461.3214,58,110,0
461.28806,461.3714,57,110,0
460.98807,461.3839,48,110,0
461.33807,461.4214,58,110,0
461.38806,461.7839,55,110,0
461.38806,461.7839,46,110,0
461.78806,461.8714,58,110,0
461.83807,461.9214,60,110,0
461.88806,461.9714,58,110,0
461.93808,462.0214,60,110,0
461.98807,462.0714,58,110,0
462.03806,462.1214,60,110,0
462.08807,462.1714,58,110,0
461.78806,462.1839,55,110,0
462.13806,462.2214,60,110,0
462.18808,462.2714,58,110,0
462.23807,462.3214,60,110,0
462.28806,462.3714,58,110,0
462.33807,462.4214,60,110,0
462.38806,462.4714,58,110,0
462.43808,462.5214,60,110,0
462.48807,462.5714,58,110,0
462.18808,462.5839,50,110,0
462.53806,462.6214,60,110,0
462.58807,462.7839,48,110,0
462.58807,462.9839,57,110,0
462.78806,463.0839,42,110,0
463.08807,463.1839,43,110,0
463.18808,463.2839,45,110,0
463.28806,463.3839,46,110,0
463.38806,463.4839,48,110,0
463.48807,463.5839,50,110,0
463.58807,463.6839,52,110,0
463.68808,463.7839,54,110,0
463.78806,463.8839,43,110,0
463.88806,463.9839,55,110,0
463.98807,464.0839,41,110,0
464.08807,464.1839,53,110,0
464.18808,464.2839,40,110,0
464.28806,464.3839,41,110,0
464.38806,464.4839,43,110,0
464.48807,464.5839,45,110,0
464.58807,464.6839,46,110,0
464.68808,464.7839,48,110,0
464.78806,464.8839,50,110,0
464.88806,464.9839,52,110,0
464.98807,465.0839,41,110,0
465.08807,465.1839,53,110,0
465.18808,465.2839,39,110,0
465.28806,465.3839,51,110,0
465.38806,465.4839,38,110,0
465.48807,465.5839,39,110,0
465.58807,465.6839,41,110,0
465.68808,465.7839,43,110,0
465.78806,465.8839,44,110,0
465.88806,465.9839,46,110,0
465.98807,466.0839,48,110,0
466.08807,466.1839,50,110,0
466.18808,466.2839,39,110,0
466.28806,466.3839,51,110,0
466.38806,466.5839,49,110,0
466.38806,466.5839,37,110,0
466.58807,466.6714,34,110,0
466.63806,466.7214,36,110,0
466.68808,466.7714,34,110,0
466.73807,466.8214,36,110,0
466.78806,466.8714,34,110,0
466.83807,466.9214,36,110,0
466.88806,466.9714,34,110,0
466.93808,467.0214,36,110,0
466.98807,467.0714,34,110,0
467.03806,467.1214,36,110,0
467.08807,467.1714,34,110,0
467.13806,467.2214,36,110,0
467.18808,467.2714,34,110,0
467.23807,467.3214,36,110,0
467.28806,467.3714,34,110,0
467.33807,467.4214,36,110,0
467.38806,467.7839,33,110,0
467.78806,467.8714,36,110,0
467.83807,467.9214,38,110,0
467.88806,467.9714,36,110,0
467.93808,468.0214,38,110,0
467.98807,468.0714,36,110,0
468.03806,468.1214,38,110,0
468.08807,468.1714,36,110,0
468.13806,468.2214,38,110,0
468.18808,468.2714,36,110,0
468.23807,468.3214,38,110,0
468.28806,468.3714,36,110,0
468.33807,468.4214,38,110,0
468.38806,468.4714,36,110,0
468.43808,468.5214,38,110,0
468.48807,468.5714,36,110,0
468.53806,468.6214,38,110,0
468.58807,468.9839,34,110,0
468.98807,469.0714,38,110,0
469.03806,469.1214,39,110,0
469.08807,469.1714,38,110,0
469.13806,469.2214,39,110,0
469.18808,469.2714,38,110,0
469.23807,469.3214,39,110,0
469.28806,469.3714,38,110,0
469.33807,469.4214,39,110,0
469.38806,469.4714,38,110,0
469.43808,469.5214,39,110,0
469.48807,469.5714,38,110,0
469.53806,469.6214,39,110,0
469.58807,469.6714,38,110,0
469.63806,469.7214,39,110,0
469.68808,469.7714,38,110,0
469.73807,469.8214,39,110,0
469.78806,470.1839,36,110,0
470.18808,470.2714,39,110,0
470.23807,470.3214,41,110,0
470.28806,470.3714,39,110,0
470.33807,470.4214,41,110,0
470.38806,470.4714,39,110,0
470.43808,470.5214,41,110,0
470.48807,470.5714,39,110,0
470.53806,470.6214,41,110,0
470.58807,470.9839,38,110,0
470.98807,471.1839,40,110,0
471.18808,471.3839,52,110,0
471.48807,471.5839,63,110,0
471.58807,471.6839,62,110,0
471.68808,471.7839,60,110,0
471.78806,471.8839,59,110,0
471.88806,471.9839,60,110,0
471.98807,472.0839,62,110,0
472.08807,472.1839,63,110,0
472.18808,472.2839,64,110,0
472.28806,472.3839,65,110,0
472.38806,472.4839,67,110,0
471.38806,472.5839,53,110,0
472.48807,472.5839,65,110,0
472.58807,472.6839,60,110,0
472.68808,472.7839,62,110,0
472.78806,472.8839,63,110,0
472.88806,472.9839,65,110,0
472.98807,473.0839,66,110,0
473.08807,473.1839,67,110,0
473.18808,473.2839,68,110,0
473.28806,473.3839,67,110,0
473.38806,473.4839,65,110,0
473.48807,473.5839,63,110,0
473.58807,473.6839,62,110,0
472.58807,473.7839,53,110,0
473.68808,473.7839,63,110,0
473.78806,473.8839,60,110,0
473.88806,473.9839,62,110,0
473.98807,474.0839,60,110,0
474.08807,474.1839,58,110,0
474.18808,474.2839,57,110,0
474.28806,474.3839,58,110,0
474.38806,474.4839,60,110,0
474.48807,474.5839,62,110,0
474.58807,474.6839,63,110,0
474.68808,474.7839,64,110,0
474.78806,474.8839,65,110,0
473.78806,474.9839,53,110,0
474.88806,474.9839,63,110,0
474.98807,475.0839,58,110,0
475.08807,475.1839,60,110,0
475.18808,475.2839,62,110,0
475.28806,475.3839,63,110,0
475.38806,475.4839,64,110,0
475.48807,475.5839,65,110,0
475.58807,475.6839,67,110,0
475.68808,475.7839,65,110,0
475.78806,475.8839,63,110,0
474.98807,475.9839,53,110,0
475.88806,475.9839,62,110,0
475.98807,476.0839,60,110,0
475.98807,476.1839,54,110,0
476.08807,476.1839,58,110,0
476.18808,476.3839,55,110,0
476.18808,476.3839,43,110,0
476.58807,477.1839,53,125,0
476.58807,477.1839,41,127,0
477.18808,477.3839,41,110,0
477.18808,477.3839,53,110,0
477.38806,477.5839,53,110,0
477.38806,477.5839,41,110,0
477.58807,477.7839,52,110,0
477.58807,477.7839,40,110,0
477.78806,477.9839,49,110,0
477.78806,477.9839,37,110,0
477.98807,478.1839,48,110,0
477.98807,478.1839,36,110,0
478.18808,478.3839,47,110,0
478.18808,478.3839,35,110,0
478.38806,478.5839,48,110,0
478.38806,478.5839,36,110,0
478.58807,478.7839,53,110,0
478.58807,478.7839,41,110,0
478.98807,479.5839,51,124,0
478.98807,479.5839,39,125,0
479.58807,479.7839,51,110,0
479.58807,479.7839,39,110,0
479.78806,479.9839,51,110,0
479.78806,479.9839,39,110,0
479.98807,480.1839,50,110,0
479.98807,480.1839,38,110,0
480.18808,480.3839,48,110,0
480.18808,480.3839,36,110,0
480.38806,480.5839,46,110,0
480.38806,480.5839,34,110,0
480.58807,480.7839,67,110,0
480.78806,480.9839,65,110,0
480.98807,481.1839,65,110,0
481.18808,481.3839,63,110,0
481.38806,481.5839,62,110,0
481.58807,481.7839,60,110,0
481.78806,481.9839,53,110,0
481.78806,481.9839,41,110,0
481.98807,482.1839,39,110,0
481.98807,482.1839,51,110,0
482.18808,482.3839,51,110,0
482.18808,482.3839,39,110,0
482.38806,482.5839,50,110,0
482.38806,482.5839,38,110,0
482.58807,482.7839,48,110,0
482.58807,482.7839,36,110,0
482.78806,482.9839,46,110,0
482.78806,482.9839,34,110,0
482.98807,483.1839,75,110,0
483.18808,483.3839,74,110,0
483.38806,483.5839,74,110,0
483.58807,483.7839,72,110,0
483.78806,483.9839,70,110,0
483.98807,484.1839,69,110,0
484.18808,484.3839,74,110,0
484.38806,484.5839,72,110,0
484.58807,484.7839,72,110,0
484.78806,484.9839,70,110,0
484.98807,485.1839,74,110,0
485.18808,485.3839,75,110,0
485.38806,485.5839,74,110,0
485.58807,485.7839,72,110,0
485.78806,485.9839,76,110,0
485.98807,486.1839,77,110,0
486.18808,486.3839,75,110,0
486.38806,486.5839,74,110,0
486.58807,486.7839,54,110,0
486.58807,486.7839,42,110,0
486.78806,486.9839,55,110,0
486.78806,486.9839,43,110,0
486.98807,487.1839,53,110,0
486.98807,487.1839,41,110,0
487.18808,487.3839,52,110,0
487.18808,487.3839,40,110,0
487.38806,487.5839,55,111,0
487.38806,487.5839,43,111,0
487.58807,487.7839,57,112,0
487.58807,487.7839,45,112,0
487.78806,487.99066,55,113,0
487.78806,487.99066,43,113,0
487.99496,488.19754,54,114,0
487.99496,488.19754,42,114,0
488.20187,488.40445,57,115,0
488.20187,488.40445,45,115,0
488.40875,488.61133,58,116,0
488.40875,488.61133,46,116,0
488.61566,488.82547,54,116,0
488.61566,488.82547,42,116,0
488.82993,489.03976,55,117,0
488.82993,489.03976,43,117,0
489.04422,489.27017,51,118,0
489.04422,489.27017,39,118,0
489.275,489.50095,52,119,0
489.275,489.50095,40,119,0
489.50577,489.73172,61,125,0
489.50577,489.73172,58,125,0
489.9673,490.06998,43,110,0
490.02087,490.12354,45,110,0
490.07443,490.17712,43,110,0
490.12802,490.23068,45,110,0
490.18158,490.28427,43,110,0
490.23517,490.33783,45,110,0
490.28873,490.39142,43,110,0
490.3423,490.44498,45,110,0
490.39587,490.49854,43,110,0
490.44943,490.55212,45,110,0
490.50302,490.60568,43,110,0
490.55658,490.65927,45,110,0
490.61017,490.71283,43,110,0
490.66373,490.76642,45,110,0
489.9673,490.81998,46,110,0
490.7173,490.81998,41,110,0
490.77087,490.81998,43,110,0
491.43823,491.53406,91,90,0
491.53824,491.63406,89,90,0
491.63824,491.73407,88,90,0
491.73822,491.83408,85,90,0
491.83823,491.93408,84,90,0
491.93823,492.03406,82,90,0
492.63824,492.73407,77,90,0
492.73822,492.83408,76,90,0
492.83823,492.93408,74,90,0
492.93823,493.03406,72,90,0
493.03824,493.13406,70,90,0
493.13824,493.23407,69,90,0
493.83823,493.93408,74,90,0
493.93823,494.03406,72,90,0
494.03824,494.13406,70,90,0
494.13824,494.23407,69,90,0
494.23822,494.33408,67,90,0
494.33823,494.43408,65,90,0
495.03824,495.13406,70,90,0
495.13824,495.23407,69,90,0
495.23822,495.33408,67,90,0
495.33823,495.43408,69,90,0
495.43823,495.53406,67,90,0
495.53824,495.63406,65,90,0
495.63824,495.73407,64,90,0
495.73822,495.83408,65,90,0
495.83823,495.93408,64,90,0
495.93823,496.03406,62,90,0
496.03824,496.13406,60,90,0
496.13824,496.23407,62,90,0
496.23822,496.33408,64,90,0
496.33823,496.43408,65,90,0
496.43823,496.53406,66,90,0
496.53824,496.63406,67,90,0
496.63824,496.73407,69,90,0
496.73822,496.83408,67,90,0
496.83823,497.03406,70,90,0
497.23822,497.83408,69,90,0
497.83823,498.03406,69,90,0
498.03824,498.13406,66,90,0
498.13824,498.23407,67,90,0
498.23822,498.33408,66,90,0
498.33823,498.43408,64,90,0
498.43823,498.53406,62,90,0
498.53824,498.63406,64,90,0
498.63824,498.73407,66,90,0
498.73822,498.83408,67,90,0
498.83823,498.93408,68,90,0
498.93823,499.03406,69,90,0
499.03824,499.13406,70,90,0
499.13824,499.23407,69,90,0
499.23822,499.43408,72,90,0
499.63824,500.23407,70,90,0
500.23822,500.43408,70,90,0
500.43823,500.53406,69,90,0
500.53824,500.63406,70,90,0
500.63824,500.73407,69,90,0
500.73822,500.83408,67,90,0
500.83823,500.93408,65,90,0
500.93823,501.03406,67,90,0
501.03824,501.13406,69,90,0
501.13824,501.23407,70,90,0
501.23822,501.33408,71,90,0
501.33823,501.43408,72,90,0
501.43823,501.53406,74,90,0
501.53824,501.63406,72,90,0
501.63824,501.83408,75,90,0
502.03824,502.63406,74,93,0
502.63824,502.73407,75,98,0
502.73822,502.83408,73,99,0
502.83823,502.93408,71,100,0
502.93823,503.03406,72,101,0
503.03824,503.13406,73,102,0
503.13824,503.23407,72,103,0
503.23822,503.33408,69,103,0
503.33823,503.43408,70,104,0
503.43823,503.53406,72,105,0
503.53824,503.63406,70,106,0
503.63824,503.73407,68,107,0
503.73822,503.83408,69,108,0
503.83823,503.93408,70,109,0
503.93823,504.03406,69,109,0
504.03824,504.23407,29,110,0
504.43823,504.52158,45,110,0
504.48822,504.57156,46,110,0
504.53824,504.62158,45,110,0
504.58823,504.67157,46,110,0
504.63824,504.72156,45,110,0
504.68823,504.77158,46,110,0
504.73822,504.82156,45,110,0
504.78824,504.87158,46,110,0
504.83823,504.92157,45,110,0
504.88824,504.97156,46,110,0
504.93823,505.02158,45,110,0
504.98822,505.07156,46,110,0
505.03824,505.12158,45,110,0
505.08823,505.17157,46,110,0
505.13824,505.22156,43,110,0
505.18823,505.27158,45,110,0
505.23822,505.63406,46,110,0
505.83823,505.93408,46,110,0
505.93823,506.03406,45,110,0
506.03824,506.13406,43,110,0
506.13824,506.23407,41,110,0
506.23822,506.33408,39,110,0
506.33823,506.43408,38,110,0
506.43823,506.83408,41,110,0
507.03824,507.13406,43,110,0
507.13824,507.23407,41,110,0
507.23822,507.33408,39,110,0
507.33823,507.43408,38,110,0
507.43823,507.53406,36,110,0
507.53824,507.63406,34,110,0
507.63824,508.03406,39,110,0
508.23822,508.33408,39,110,0
508.33823,508.43408,38,110,0
508.43823,508.53406,36,110,0
508.53824,508.63406,38,110,0
508.63824,508.73407,36,110,0
508.73822,508.83408,34,110,0
508.83823,509.03406,33,110,0
509.03824,509.13406,45,110,0
509.13824,509.23407,43,110,0
509.23822,509.43408,41,110,0
509.23822,509.43408,53,110,0
510.63824,510.83408,46,110,0
510.83823,510.92157,62,110,0
510.88824,510.97156,63,110,0
510.93823,511.02158,62,110,0
510.98822,511.07156,63,110,0
513.0382,513.2341,51,110,0
513.2382,513.3216,60,110,0
513.2882,513.3716,62,110,0
513.33826,513.4216,60,110,0
513.38824,513.47156,62,110,0
514.0382,514.2341,36,110,0
514.43823,514.52155,52,110,0
514.4882,514.5716,53,110,0
514.5382,514.6216,52,110,0
514.58826,514.6716,53,110,0
514.63824,514.72156,52,110,0
514.68823,514.77155,53,110,0
514.7382,514.8216,52,110,0
514.7882,514.8716,53,110,0
514.83826,514.9216,52,110,0
514.88824,514.97156,53,110,0
514.93823,515.02155,52,110,0
514.9882,515.0716,53,110,0
515.0382,515.1216,52,110,0
515.08826,515.1716,53,110,0
515.13824,515.22156,50,110,0
515.18823,515.27155,52,110,0
515.2382,515.6341,53,110,0
515.83826,515.9341,53,110,0
515.93823,516.03406,52,110,0
516.0382,516.1341,50,110,0
516.13824,516.2341,48,110,0
516.2382,516.33405,46,110,0
516.33826,516.4341,45,110,0
516.43823,516.83405,55,110,0
517.0382,517.1341,55,110,0
517.13824,517.2341,53,110,0
517.2382,517.33405,51,110,0
517.33826,517.4341,50,110,0
517.43823,517.53406,48,110,0
517.5382,517.6341,46,110,0
517.63824,518.03406,57,110,0
518.2382,518.33405,57,110,0
518.33826,518.4341,55,110,0
518.43823,518.53406,53,110,0
518.43823,518.53406,57,110,0
518.5382,518.6341,51,110,0
518.5382,518.6341,55,110,0
518.63824,518.7341,50,110,0
518.63824,518.7341,53,110,0
518.7382,518.83405,48,110,0
518.7382,518.83405,51,110,0
518.83826,518.9341,50,110,0
518.83826,518.9341,46,110,0
518.93823,519.03406,57,110,0
518.93823,519.03406,60,110,0
519.0382,519.1341,55,110,0
519.0382,519.1341,58,110,0
519.13824,519.2341,53,110,0
519.13824,519.2341,57,110,0
519.2382,519.33405,58,110,0
519.33826,519.4341,57,110,0
519.43823,519.53406,62,110,0
519.5382,519.6341,60,110,0
519.63824,519.7341,58,110,0
519.7382,519.83405,57,110,0
519.83826,519.9341,55,110,0
519.93823,520.03406,53,110,0
520.0382,520.1341,51,110,0
520.13824,520.2341,50,110,0
520.2382,520.33405,48,110,0
520.33826,520.4341,46,110,0
520.43823,520.53406,43,110,0
520.5382,520.6341,45,110,0
520.63824,520.7341,46,110,0
520.7382,520.83405,47,110,0
520.83826,520.9341,48,110,0
520.93823,521.03406,50,110,0
521.0382,521.1341,51,110,0
521.13824,521.2341,50,110,0
521.2382,521.33405,48,110,0
521.33826,521.4341,46,110,0
521.43823,521.53406,45,110,0
521.5382,521.6341,43,110,0
521.63824,521.7341,41,110,0
521.7382,521.83405,39,110,0
521.83826,521.9341,38,110,0
521.93823,522.03406,36,110,0
522.0382,522.2341,34,110,0
522.43823,522.52155,50,110,0
522.4882,522.5716,51,110,0
522.5382,522.6216,50,110,0
522.58826,522.6716,51,110,0
522.63824,522.72156,50,110,0
522.68823,522.77155,51,110,0
522.7382,522.8216,50,110,0
522.7882,522.8716,51,110,0
522.83826,522.9216,50,110,0
522.88824,522.97156,51,110,0
522.93823,523.02155,50,110,0
522.9882,523.0716,51,110,0
523.0382,523.1216,50,110,0
523.08826,523.1716,51,110,0
523.13824,523.22156,48,110,0
523.18823,523.27155,50,110,0
523.2382,523.4341,51,110,0
523.2382,523.4341,63,110,0
525.0382,525.2341,52,110,0
525.2382,525.6341,53,110,0
525.43823,525.6341,64,110,0
525.63824,525.83405,65,110,0
525.83826,526.03406,53,110,0
526.0382,526.6341,63,110,0
526.0382,526.6341,66,110,0
526.63824,526.83405,63,110,0
526.63824,526.83405,66,110,0
526.83826,527.03406,63,110,0
526.83826,527.03406,66,110,0
527.0382,527.2341,62,110,0
527.0382,527.2341,65,110,0
527.2382,527.4341,60,110,0
527.2382,527.4341,63,110,0
527.43823,527.6341,58,110,0
527.43823,527.6341,62,110,0
527.63824,527.7341,50,110,0
527.7382,527.83405,51,110,0
527.83826,527.9341,50,110,0
527.93823,528.03406,48,110,0
528.0382,528.1341,46,110,0
528.13824,528.2341,48,110,0
528.2382,528.33405,50,110,0
528.33826,528.4341,51,110,0
528.43823,528.53735,52,110,0
528.5417,528.6408,53,110,0
528.64514,528.74426,55,110,0
528.7486,528.8477,53,110,0
528.85205,528.9512,50,125,0
528.9555,529.0546,51,125,0
529.0589,529.1581,53,125,0
529.16235,529.26154,51,125,0
529.2658,529.3707,47,125,0
529.3753,529.4802,48,125,0
529.4848,529.5897,50,125,0
529.5943,529.6992,51,125,0
529.7038,529.8087,52,125,0
529.8133,529.9182,53,125,0
529.9227,530.0277,55,125,0
530.0322,530.13715,53,125,0
530.1417,530.3677,53,125,0
530.1417,530.3677,41,125,0
530.3725,530.59845,46,125,0
530.3725,530.59845,34,125,0
531.43085,531.6334,34,80,0
531.84467,531.93085,50,85,0
531.89636,531.9826,51,86,0
531.9481,532.0343,50,87,0
531.9998,532.08606,51,88,0
532.0516,532.13776,50,88,0
532.1033,532.18945,51,89,0
532.15497,532.2412,48,90,0
532.2067,532.2929,50,91,0
532.2584,532.46106,51,91,0
532.2584,532.46106,63,91,0
532.67224,532.7584,78,97,0
532.72394,532.8102,80,98,0
532.7757,532.8619,78,99,0
532.8274,532.91364,80,100,0
532.87915,532.96533,78,100,0
532.93085,533.0171,80,101,0
532.9826,533.0688,78,102,0
533.0343,533.1205,80,103,0
533.08606,533.28864,54,103,0
533.08606,533.28864,42,103,0
533.4998,533.58606,27,120,0
533.5516,533.63776,29,120,0
533.6033,533.68945,27,120,0
533.65497,533.7412,29,120,0
533.7067,533.7929,27,120,0
533.7584,533.84467,29,120,0
533.8102,533.89636,27,120,0
533.8619,533.9481,29,120,0
533.91364,533.9998,27,120,0
533.96533,534.0516,29,120,0
534.0171,534.1033,27,120,0
534.0688,534.15497,29,120,0
534.1205,534.2067,27,120,0
534.17224,534.2584,29,120,0
534.22394,534.3102,27,120,0
534.2757,534.3619,29,120,0
534.3274,534.41364,27,120,0
534.37915,534.46533,29,120,0
534.43085,534.5171,27,120,0
534.4826,534.5688,29,120,0
534.5343,534.6205,27,120,0
534.586,534.67224,29,120,0
534.63776,534.72394,27,120,0
534.68945,534.7757,29,120,0
534.7412,534.8274,27,120,0
534.7929,534.87915,29,120,0
534.84467,534.93085,27,120,0
534.89636,534.9826,29,120,0
534.9481,535.0343,27,120,0
534.9998,535.086,29,120,0
535.0516,535.13776,27,120,0
535.1033,535.18945,29,120,0
535.15497,535.2412,27,120,0
535.2067,535.2929,29,120,0
535.2584,535.34467,27,120,0
535.3102,535.39636,29,120,0
535.3619,535.4481,27,120,0
535.41364,535.4998,29,120,0
535.46533,535.5516,27,120,0
535.5171,535.6033,29,120,0
535.5688,535.65497,27,120,0
535.6205,535.7067,29,120,0
535.67224,535.7584,27,120,0
535.72394,535.8102,29,120,0
535.7757,535.8619,27,120,0
535.8274,535.91364,29,120,0
535.87915,535.96533,27,120,0
535.93085,536.0171,29,120,0
535.9826,536.0688,27,120,0
536.0343,536.1205,29,120,0
536.086,536.17224,27,120,0
536.13776,536.22394,29,120,0
536.18945,536.2757,27,120,0
536.2412,536.3274,29,120,0
536.2929,536.37915,27,120,0
536.34467,536.43085,29,120,0
536.39636,536.4826,27,120,0
536.4481,536.5343,29,120,0
536.4998,536.586,27,120,0
536.5516,536.63776,29,120,0
536.6033,536.7024,27,120,0
536.65497,536.75415,29,120,0
536.7067,536.80585,27,120,0
536.7584,536.8576,29,120,0
536.8102,536.89636,27,120,0
536.8619,536.9481,29,120,0
536.91364,536.9998,27,120,0
536.96533,537.0516,29,120,0
537.0171,537.1033,27,120,0
537.0688,537.15497,29,120,0
537.1205,537.2067,27,120,0
537.17224,537.2584,29,120,0
537.22394,537.3102,27,120,0
537.2757,537.3619,29,120,0
537.3274,537.41364,27,120,0
537.37915,537.46533,29,120,0
537.43085,537.5171,27,120,0
537.4826,537.5688,29,120,0
537.5343,537.6205,27,120,0
537.586,537.67224,29,120,0
537.63776,537.67224,29,120,0
537.63776,537.72394,34,120,0
537.68945,537.7757,36,119,0
537.7412,537.8274,34,117,0
537.7929,537.87915,36,115,0
537.84467,537.93085,34,113,0
537.89636,537.9826,36,111,0
537.9481,538.0343,34,110,0
537.9998,538.086,36,108,0
538.0516,538.13776,34,106,0
538.1033,538.18945,36,104,0
538.15497,538.2412,34,102,0
538.2067,538.2929,36,101,0
538.2584,538.34467,34,99,0
538.3102,538.39636,36,97,0
538.3619,538.4481,34,95,0
538.41364,538.4998,36,93,0
538.46533,538.5516,34,92,0
538.5171,538.6033,36,90,0
538.5688,538.65497,34,88,0
538.6205,538.7067,36,86,0
538.67224,538.7584,34,84,0
538.72394,538.8102,36,82,0
538.7757,538.8619,34,81,0
538.8274,538.91364,36,80,0
538.87915,538.96533,34,80,0
538.93085,539.0171,36,80,0
538.9826,539.0688,34,80,0
539.0343,539.1205,36,80,0
539.086,539.17224,34,80,0
539.13776,539.22394,36,80,0
539.18945,539.2757,34,80,0
539.2412,539.3274,36,80,0
539.2929,539.37915,34,80,0
539.34467,539.43085,36,80,0
539.39636,539.4826,34,80,0
539.4481,539.5343,36,80,0
539.4998,539.586,34,80,0
539.5516,539.63776,36,80,0
539.6033,539.68945,34,80,0
539.65497,539.7412,36,80,0
539.7067,539.7929,34,80,0
539.7584,539.84467,36,80,0
539.8102,539.89636,34,80,0
539.8619,539.9481,36,80,0
539.91364,539.9998,34,80,0
539.96533,540.0516,36,80,0
540.0171,540.1033,34,80,0
540.0688,540.15497,36,80,0
540.1205,540.2067,34,80,0
540.17224,540.2584,36,80,0
540.22394,540.3102,34,80,0
540.2757,540.3619,36,80,0
540.3274,540.41364,34,80,0
540.37915,540.46533,36,80,0
540.43085,540.5171,34,80,0
540.4826,540.5688,36,80,0
540.5343,540.6205,34,80,0
540.586,540.67224,36,80,0
540.63776,540.72394,34,80,0
540.68945,540.7757,36,80,0
540.7412,540.8274,34,80,0
540.7929,540.87915,36,80,0
540.84467,540.93085,34,80,0
540.89636,540.9826,36,80,0
540.9481,541.0343,34,80,0
540.9998,541.086,36,80,0
541.0516,541.13776,34,80,0
541.1033,541.18945,36,80,0
541.15497,541.2412,34,80,0
541.2067,541.2929,36,80,0
541.2584,541.34467,34,80,0
541.3102,541.39636,36,80,0
541.3619,541.4481,34,80,0
541.41364,541.4998,36,80,0
541.46533,541.5516,34,80,0
541.5171,541.6033,36,80,0
541.5688,541.65497,34,80,0
541.6205,541.7067,36,80,0
541.67224,541.7584,34,80,0
541.72394,541.8102,36,80,0
541.7757,541.8619,34,80,0
541.8274,541.91364,36,80,0
541.87915,541.96533,34,80,0
541.93085,542.0171,36,80,0
541.9826,542.0688,34,80,0
542.0343,542.1205,36,80,0
542.086,542.17224,34,80,0
542.13776,542.22394,36,80,0
542.18945,542.2757,34,80,0
542.2412,542.3274,36,80,0
542.2929,542.37915,34,80,0
542.34467,542.43085,36,80,0
542.39636,542.4826,34,80,0
542.4481,542.5343,36,80,0
542.4998,542.586,34,80,0
542.5515,542.63776,36,80,0
542.6033,542.68945,34,80,0
542.65497,542.7412,36,80,0
542.7067,542.7929,34,80,0
542.7584,542.84467,36,80,0
542.8102,542.89636,34,80,0
542.8619,542.9481,36,80,0
542.91364,542.9998,34,80,0
542.96533,543.0515,36,80,0
543.0171,543.1033,34,80,0
543.0688,543.15497,36,80,0
543.1205,543.2067,34,80,0
543.17224,543.2584,36,80,0
543.22394,543.3102,34,80,0
543.2757,543.3619,36,80,0
543.3274,543.41364,34,80,0
543.37915,543.46533,36,80,0
543.43085,543.5171,34,80,0
543.4826,543.5688,36,80,0
543.5343,543.6205,34,80,0
543.586,543.67224,36,80,0
543.63776,543.72394,34,80,0
543.68945,543.7757,36,80,0
543.7412,543.8274,34,80,0
543.7929,543.87915,36,80,0
543.84467,543.93085,34,80,0
543.89636,543.9826,36,80,0
543.9481,544.0343,34,80,0
543.9998,544.086,36,80,0
544.0515,544.13776,34,80,0
544.1033,544.18945,36,80,0
544.15497,544.2412,34,80,0
544.2067,544.29175,36,80,0
544.2584,544.3418,34,80,0
544.3084,544.3918,36,80,0
544.35846,544.4418,34,80,0
544.40845,544.4926,36,80,0
544.45844,544.5444,34,80,0
544.5099,544.59607,36,80,0
544.5616,544.6478,34,80,0
544.61334,544.70013,36,80,0
544.66504,544.7537,34,80,0
544.718,544.8073,36,80,0
544.7716,544.86084,34,80,0
544.82513,544.91473,36,80,0
544.8787,544.97034,34,80,0
544.9333,545.0259,36,80,0
544.98883,545.0814,34,80,0
545.0444,545.13696,36,80,0
545.1,545.1947,34,80,0
545.1562,545.2524,36,80,0
545.2139,545.31006,34,80,0
545.2716,545.36774,36,80,0
545.3293,545.42737,34,80,0
545.3874,545.48737,36,80,0
545.4474,545.54736,34,80,0
545.5074,545.60736,36,80,0
545.5674,545.66907,34,80,0
545.6274,545.73157,36,80,0
545.6899,545.79407,34,80,0
545.7524,545.85657,36,80,0
545.8149,545.9204,34,80,0
545.8774,545.9856,36,80,0
545.94214,546.05084,34,80,0
546.04,546.05084,34,80,0
545.5674,546.06714,29,80,0
546.0073,546.116,36,80,0
546.10516,546.116,36,80,0
546.1709,546.28455,34,80,0
546.2391,546.3527,36,80,0
546.3414,546.4555,34,80,0
546.40955,546.527,36,80,0
546.4793,546.5984,34,80,0
546.0726,546.6162,29,80,0
546.5508,546.6698,36,80,0
546.6222,546.7412,34,80,0
546.6936,546.8162,36,80,0
546.76624,546.89124,34,80,0
546.84125,546.96625,36,80,0
546.91626,547.04126,34,80,0
546.9912,547.1195,36,80,0
547.0669,547.1985,34,80,0
546.6222,547.2182,29,80,0
547.1458,547.2774,36,80,0
547.2248,547.3564,34,80,0
547.3037,547.43823,36,80,0
547.3827,547.52155,34,80,0
547.466,547.6049,36,80,0
547.5494,547.68823,34,80,0
547.6327,547.77405,36,80,0
547.716,547.86224,34,80,0
547.84753,547.86224,34,80,0
547.2248,547.88434,29,80,0
547.8034,547.9505,36,80,0
547.9358,547.9505,36,80,0
548.02405,548.17566,34,80,0
548.11316,548.2694,36,80,0
548.2538,548.41003,34,80,0
548.34753,548.5048,36,80,0
548.4413,548.60486,34,80,0
547.89166,548.6298,29,80,0
548.53815,548.70483,36,80,0
548.6382,548.8049,34,80,0
548.73816,548.90485,36,80,0
548.8382,549.01196,34,80,0
548.94055,549.11914,36,80,0
549.0477,549.22626,34,80,0
549.15485,549.33344,36,80,0
549.26196,549.44745,33,80,0
548.6382,549.47626,29,80,0
549.3705,549.5628,34,80,0
549.4859,549.5628,34,80,0
549.4859,550.39935,42,80,0
549.4859,550.39935,30,80,0
550.40894,552.2455,43,80,0
550.40894,552.2455,31,80,0
552.2551,552.44745,55,80,0
552.3705,552.5628,57,80,0
552.4859,552.67816,55,80,0
552.60126,552.7936,57,80,0
552.7167,552.90894,55,80,0
552.83203,553.02435,57,80,0
552.94745,553.1397,55,80,0
553.0628,553.2551,57,80,0
553.17816,553.3705,55,80,0
553.2936,553.4859,57,80,0
553.40894,553.60126,55,80,0
553.52435,553.7167,57,80,0
553.6397,553.83203,55,80,0
553.7551,553.94745,57,80,0
553.8705,554.0628,53,80,0
553.9859,554.17816,55,80,0
554.10126,555.0147,57,80,0
555.02435,555.2167,60,80,0
555.1397,555.33203,62,80,0
555.2551,555.44745,60,81,0
555.3705,555.5628,62,81,0
555.4859,555.67816,60,82,0
555.60126,555.7936,62,83,0
555.7167,555.90894,60,83,0
555.83203,556.03076,62,84,0
555.94745,556.15576,60,85,0
556.07245,556.28076,62,85,0
556.19745,556.40576,60,86,0
556.32245,556.53076,62,87,0
556.44745,556.65576,60,87,0
556.57245,556.78076,62,88,0
556.69745,556.90576,58,89,0
555.94745,556.937,53,85,0
556.82245,557.0474,60,89,0
556.94745,557.0474,60,70,0
556.94745,558.13495,57,70,0
556.94745,558.13495,53,70,0
558.1474,559.93494,60,70,0
558.1474,559.93494,57,70,0
558.1474,559.93494,53,70,0
561.23315,561.329,55,70,0
561.3331,561.42896,53,70,0
561.4331,561.529,51,70,0
561.53314,561.62897,50,70,0
561.6331,561.72894,48,70,0
561.73315,561.829,47,70,0
561.8331,562.22894,51,70,0
562.4331,562.529,67,70,0
562.53314,562.62897,65,70,0
562.6331,562.72894,63,70,0
562.73315,562.829,62,70,0
562.8331,562.92896,60,70,0
562.9331,563.029,59,70,0
563.03314,563.12897,67,70,0
563.1331,563.22894,65,72,0
563.23315,563.329,63,74,0
563.3331,563.42896,62,76,0
563.4331,563.529,60,78,0
563.53314,563.62897,58,81,0
563.6331,563.72894,57,83,0
563.73315,563.829,55,85,0
563.8331,563.92896,53,87,0
563.9331,564.029,51,89,0
564.03314,564.12897,50,92,0
564.1331,564.22894,48,94,0
564.23315,564.329,46,96,0
564.3331,564.42896,45,98,0
564.4331,564.529,43,100,0
564.53314,564.62897,41,103,0
564.6331,564.72894,39,105,0
564.73315,564.829,38,107,0
564.8331,564.92896,36,109,0
564.9331,565.029,34,112,0
565.03314,565.12897,33,114,0
565.1331,565.22894,31,116,0
565.23315,565.329,29,118,0
565.3331,565.42896,28,120,0
565.4331,565.62897,29,110,0
565.8331,565.91644,45,110,0
565.8831,565.9665,46,110,0
565.9331,566.0165,45,110,0
565.98315,566.06647,46,110,0
566.03314,566.11646,45,110,0
566.0831,566.16644,46,110,0
566.1331,566.2165,45,110,0
566.1831,566.2665,46,110,0
566.23315,566.31647,45,110,0
566.28314,566.36646,46,110,0
566.3331,566.41644,45,110,0
566.3831,566.4665,46,110,0
566.4331,566.5165,45,110,0
566.48315,566.56647,46,110,0
566.53314,566.61646,43,110,0
566.5831,566.66644,45,110,0
566.6331,566.829,46,110,0
567.03314,567.22894,31,110,0
567.4331,567.5165,47,110,0
567.48315,567.56647,48,110,0
567.53314,567.61646,47,110,0
567.5831,567.66644,48,110,0
567.6331,567.7165,47,110,0
567.6831,567.7665,48,110,0
567.73315,567.81647,47,110,0
567.78314,567.86646,48,110,0
567.8331,567.91644,47,110,0
567.8831,567.9665,48,110,0
567.9331,568.0165,47,110,0
567.98315,568.06647,48,110,0
568.03314,568.11646,47,110,0
568.0831,568.16644,48,110,0
568.1331,568.2165,45,110,0
568.1831,568.2665,47,110,0
568.23315,568.42896,48,110,0
568.6331,568.829,33,110,0
569.03314,569.11646,49,110,0
569.0831,569.16644,50,110,0
569.1331,569.2165,49,110,0
569.1831,569.2665,50,110,0
569.23315,569.31647,49,110,0
569.28314,569.36646,50,110,0
569.3331,569.41644,49,110,0
569.3831,569.4665,50,110,0
569.4331,569.5165,49,110,0
569.48315,569.56647,50,110,0
569.53314,569.61646,49,110,0
569.5831,569.66644,50,110,0
569.6331,569.7165,49,110,0
569.6831,569.7665,50,110,0
569.73315,569.81647,47,110,0
569.78314,569.86646,49,110,0
569.8331,570.029,50,110,0
570.23315,570.42896,34,110,0
570.6331,570.7165,50,110,0
570.6831,570.7665,51,110,0
570.73315,570.81647,50,110,0
570.78314,570.86646,51,110,0
570.8331,570.91644,50,110,0
570.8831,570.9665,51,110,0
570.9331,571.0165,50,110,0
570.98315,571.06647,51,110,0
571.03314,571.11646,50,110,0
571.0831,571.16644,51,110,0
571.1331,571.2165,50,110,0
571.1831,571.2665,51,110,0
571.23315,571.31647,50,110,0
571.28314,571.36646,51,110,0
571.3331,571.41644,48,110,0
571.3831,571.4665,50,110,0
571.4331,571.62897,51,110,0
571.8331,572.029,48,110,0
572.23315,572.31647,52,110,0
572.28314,572.36646,53,110,0
572.3331,572.41644,52,110,0
572.3831,572.4665,53,110,0
572.4331,572.5165,52,110,0
572.48315,572.56647,53,110,0
572.53314,572.61646,52,110,0
572.5831,572.66644,53,110,0
572.6331,572.7165,52,110,0
572.6831,572.7665,53,110,0
572.73315,572.81647,52,110,0
572.78314,572.86646,53,110,0
572.8331,572.91644,52,110,0
572.8831,572.9665,53,110,0
572.9331,573.0165,50,110,0
572.98315,573.06647,52,110,0
573.03314,573.22894,53,110,0
573.4331,573.62897,38,110,0
573.8331,573.9193,54,110,0
573.8848,573.97107,55,110,0
573.9366,574.02277,54,110,0
573.9883,574.0745,55,110,0
574.04004,574.1262,54,110,0
574.09174,574.178,55,110,0
574.1435,574.2297,54,110,0
574.1952,574.28143,55,110,0
574.24695,574.3331,54,110,0
574.29865,574.3848,55,110,0
574.3504,574.4366,54,110,0
574.4021,574.4883,55,110,0
574.4538,574.54004,54,110,0
574.50555,574.59174,55,110,0
574.55725,574.6435,52,110,0
574.609,574.6964,54,110,0
574.6607,574.87054,55,110,0
575.0893,575.31525,39,110,0
575.0893,575.31525,51,110,0
575.55084,576.2956,60,120,0
575.55084,576.2956,63,120,0
575.55084,576.2956,65,120,0
575.55084,576.2956,53,120,0
576.55084,577.2956,58,120,0
576.55084,577.2956,53,120,0
576.55084,577.2956,50,120,0
576.55084,577.2956,46,120,0
577.55084,578.36334,41,120,0
577.55084,578.36334,48,120,0
577.55084,578.36334,51,120,0
577.55084,578.36334,53,120,0
579.0054,581.8012,34,120,0
579.0054,581.8012,38,120,0
579.0054,581.8012,41,120,0
579.0054,581.8012,46,120,0
