start_time,end_time,note_value,velocity,instrument_program_number
0.0,0.79861104,75,70,40
0.83333325,1.5520833,79,70,40
1.5833333,2.3020833,79,70,40
2.3333333,3.0520833,79,70,40
3.0833333,3.8020833,79,70,40
3.8333333,4.552083,82,70,40
4.583333,5.302083,82,70,40
5.333333,6.052083,82,70,40
6.083333,6.802083,82,70,40
6.833333,7.552083,80,70,40
7.583333,8.302083,80,70,40
8.333333,9.052083,77,70,40
9.083333,9.802083,77,70,40
9.833333,10.552083,74,70,40
10.583333,11.381945,74,70,40
11.416666,12.315104,70,70,40
12.354166,13.152778,70,70,40
13.1875,13.90625,75,70,40
13.9375,14.46875,75,70,40
14.6875,14.875,74,70,40
14.875,15.0625,75,70,40
15.0625,15.25,77,70,40
15.25,15.4375,75,70,40
15.4375,16.15625,70,70,40
16.1875,16.90625,77,70,40
16.9375,17.46875,77,70,40
17.6875,17.875,76,70,40
17.875,18.0625,77,70,40
18.0625,18.25,79,70,40
18.25,18.4375,77,70,40
18.4375,18.96875,70,70,40
19.1875,19.375,78,70,40
19.375,19.5625,79,70,40
19.5625,19.75,80,70,40
19.75,19.9375,79,70,40
19.9375,20.527777,72,70,40
20.770832,21.239582,80,70,40
21.239582,21.434895,82,70,40
21.473957,21.66927,84,70,40
21.708332,23.444445,77,70,40
28.504463,30.379463,82,70,40
30.379463,30.754463,79,70,40
30.754463,31.129463,77,70,40
31.129463,31.504463,75,70,40
31.504463,32.223213,75,70,40
32.254463,33.348213,74,70,40
33.379463,33.754463,75,70,40
33.754463,34.129463,77,70,40
34.129463,34.504463,79,70,40
34.504463,36.379463,80,70,40
36.379463,36.629463,77,70,40
36.754463,37.004463,82,70,40
37.129463,37.379463,82,70,40
37.504463,38.598213,82,70,40
38.629463,39.004463,79,70,40
39.004463,39.723213,75,70,40
40.504463,41.598213,84,70,40
41.629463,42.004463,80,70,40
42.004463,42.723213,77,70,40
44.337795,45.13641,75,70,40
46.10863,47.135414,74,70,40
47.180058,48.812004,75,70,40
49.680058,50.47867,70,70,40
50.513393,51.607143,77,70,40
51.638393,52.013393,75,70,40
52.013393,52.732143,74,70,40
52.763393,53.482143,72,70,40
53.513393,55.732143,70,70,40
55.763393,56.482143,70,70,40
56.513393,57.232143,70,70,40
57.263393,57.982143,70,70,40
58.013393,58.812004,70,70,40
58.846725,59.745163,72,70,40
59.784225,61.065475,65,70,40
61.096725,61.284225,67,70,40
61.284225,61.471725,68,70,40
61.471725,61.659225,70,70,40
61.721725,61.909225,72,70,40
61.971725,62.159225,74,70,40
62.221725,62.409225,75,70,40
62.471725,62.659225,77,70,40
62.721725,62.909225,79,70,40
62.971725,64.065475,80,70,40
64.096725,64.471725,79,70,40
64.471725,65.190475,77,70,40
65.221725,65.940475,75,70,40
65.971725,68.190475,74,70,40
68.221725,68.940475,74,70,40
68.971725,69.346725,75,70,40
69.346725,69.471725,77,70,40
69.471725,69.596725,75,70,40
69.596725,69.721725,74,70,40
69.721725,70.096725,75,70,40
70.096725,70.471725,77,70,40
70.471725,70.846725,79,70,40
70.846725,70.971725,81,70,40
70.971725,71.096725,79,70,40
71.096725,71.221725,77,70,40
71.221725,71.596725,79,70,40
71.596725,71.971725,81,70,40
71.971725,73.096725,84,70,40
73.096725,73.471725,82,70,40
73.471725,73.88839,81,70,40
73.88839,74.30506,80,70,40
74.30506,74.77381,79,70,40
74.77381,75.35073,77,70,40
75.35073,76.19632,75,70,40
76.233086,76.951836,79,70,40
76.983086,77.514336,79,70,40
77.733086,77.920586,67,70,40
77.920586,78.108086,70,70,40
78.108086,78.295586,75,70,40
78.295586,78.483086,79,70,40
78.483086,79.201836,79,70,40
79.233086,79.951836,82,70,40
79.983086,80.514336,82,70,40
80.733086,80.920586,70,70,40
80.920586,81.108086,75,70,40
81.108086,81.295586,79,70,40
81.295586,81.483086,82,70,40
81.483086,82.201836,82,70,40
82.233086,82.576836,80,70,40
82.795586,82.951836,80,70,40
82.983086,83.701836,80,70,40
83.733086,84.076836,77,70,40
84.295586,84.451836,77,70,40
84.483086,85.201836,77,70,40
85.233086,85.576836,74,70,40
85.795586,85.951836,74,70,40
85.983086,86.701836,74,70,40
86.733086,87.076836,70,70,40
87.295586,87.451836,70,70,40
87.483086,88.201836,70,70,40
88.233086,88.951836,75,70,40
88.983086,89.514336,75,70,40
89.733086,89.889336,74,70,40
89.920586,90.076836,75,70,40
90.108086,90.264336,77,70,40
90.295586,90.451836,75,70,40
90.483086,91.201836,72,70,40
91.233086,91.951836,80,70,40
91.983086,92.514336,80,70,40
92.733086,92.920586,79,70,40
92.920586,93.108086,80,70,40
93.108086,93.295586,82,70,40
93.295586,93.46746,80,70,40
93.483086,94.014336,79,70,40
94.233086,94.420586,81,70,40
94.420586,94.608086,82,70,40
94.608086,94.795586,84,70,40
94.795586,94.983086,82,70,40
94.983086,95.573364,77,70,40
95.816414,96.05079,81,70,40
96.05079,96.285164,82,70,40
96.285164,96.57363,84,70,40
96.57363,96.86209,82,70,40
96.86209,98.49403,75,70,40
99.36209,100.1607,58,50,40
100.19543,101.66418,70,50,40
101.69543,102.41418,66,50,40
102.44543,103.16418,62,50,40
103.19543,104.66418,63,50,40
104.69543,105.41418,58,50,40
105.44543,106.16418,62,50,40
106.19543,106.91418,63,50,40
106.94543,107.66418,65,50,40
107.69543,108.41418,66,50,40
108.44543,109.16418,69,50,40
109.19543,109.91418,70,50,40
109.94543,110.66418,72,50,40
110.69543,111.49403,73,50,40
111.528755,112.42719,76,50,40
112.466255,114.80178,77,50,40
114.83468,115.591255,75,70,40
115.62415,116.38073,73,77,40
116.41363,117.170204,72,84,40
117.203094,117.95968,70,90,40
117.99257,118.74915,66,70,40
118.78204,119.53862,65,50,40
120.36099,121.11757,65,50,40
121.93994,123.48599,58,50,40
125.09783,125.49257,75,50,40
125.49257,125.88731,77,50,40
125.88731,126.26231,78,50,40
126.26231,126.63731,80,50,40
126.63731,127.01231,82,50,40
127.01231,127.38731,83,50,40
127.38731,127.76231,82,50,40
127.76231,128.12167,80,50,40
128.1373,128.5123,80,50,40
128.5123,128.8873,78,50,40
128.8873,129.2623,77,50,40
129.2623,129.6373,75,50,40
129.6373,130.0123,74,50,40
130.0123,130.3873,71,50,40
130.3873,130.7623,70,50,40
130.7623,131.1373,68,50,40
131.1373,131.5123,66,50,40
131.5123,131.8873,74,50,40
131.8873,132.2623,75,50,40
132.2623,132.6373,74,50,40
132.6373,133.0123,75,50,40
133.0123,133.3873,78,50,40
133.3873,133.7623,77,50,40
133.7623,134.1373,75,50,40
134.1373,134.5123,73,50,40
134.5123,134.8873,81,50,40
134.8873,135.2623,82,50,40
135.2623,135.6373,81,50,40
135.6373,136.0123,82,50,40
136.0123,136.3873,85,50,40
136.3873,136.7623,84,50,40
136.7623,137.1373,82,50,40
137.1373,137.5123,81,50,40
137.5123,137.8873,88,51,40
137.8873,138.2623,89,52,40
138.2623,138.6373,88,53,40
138.6373,139.0123,89,55,40
139.0123,139.3873,90,56,40
139.3873,139.7623,89,57,40
139.7623,140.1373,87,59,40
140.1373,140.5123,85,60,40
140.5123,140.8873,84,61,40
140.8873,141.2623,82,63,40
141.2623,141.6373,81,64,40
141.6373,142.0123,84,65,40
142.0123,142.3873,82,67,40
142.3873,142.7623,80,68,40
142.7623,143.12167,78,69,40
143.1373,143.5123,78,70,40
143.5123,143.8873,77,70,40
143.8873,144.2623,75,70,40
144.2623,144.62167,73,70,40
144.6373,145.05397,73,70,40
145.05397,145.47064,72,70,40
145.47064,145.93939,75,70,40
145.93939,146.51631,69,70,40
146.51631,148.35225,70,70,40
152.34964,153.09964,80,70,40
153.09964,153.84964,82,100,40
153.84964,154.19339,80,70,40
154.59964,155.34964,82,100,40
155.34964,155.69339,80,70,40
158.34964,159.09964,77,70,40
159.09964,159.84964,78,100,40
159.84964,160.19339,77,70,40
160.59964,161.34964,78,83,40
161.72464,162.06839,87,103,40
162.09964,163.56839,87,110,40
163.59964,164.34964,83,75,40
164.34964,165.09964,79,70,40
165.09964,165.84964,80,65,40
165.84964,166.59964,77,60,40
166.59964,167.34964,78,55,40
167.34964,168.09964,75,50,40
168.09964,168.84964,76,50,40
169.59964,170.34964,74,50,40
171.09964,172.56839,75,50,40
176.34964,176.69339,80,70,40
176.72464,177.06839,80,70,40
177.09964,177.47464,83,100,40
177.47464,177.72464,82,70,40
177.84964,178.09964,80,70,40
178.22464,178.47464,80,70,40
178.59964,179.01631,83,100,40
179.01631,179.29408,82,70,40
179.43298,179.74548,80,70,40
179.90173,180.28635,80,70,40
182.72865,183.0724,77,70,40
183.10365,183.4474,77,70,40
183.47865,183.85365,80,100,40
183.85365,184.10365,78,70,40
184.22865,184.47865,77,70,40
184.60365,184.85365,77,70,40
184.97865,185.3224,80,100,40
185.35365,185.60365,78,70,40
185.72865,185.97865,87,70,40
186.10365,186.35365,87,70,40
186.47865,186.85365,87,100,40
186.85365,187.22865,86,70,40
187.22865,187.60365,87,70,40
187.60365,187.97865,88,70,40
187.97865,188.35365,87,70,40
188.35365,188.72865,85,70,40
188.72865,189.10365,83,70,40
189.10365,189.47865,82,70,40
189.47865,189.85365,85,70,40
189.85365,190.22865,83,70,40
190.22865,190.60365,82,70,40
190.60365,190.96303,80,70,40
190.97865,191.35365,80,70,40
191.35365,191.72865,78,65,40
191.72865,192.10365,77,60,40
192.10365,192.47865,75,55,40
192.47865,193.1974,76,50,40
193.97865,194.6974,74,50,40
195.47865,196.9474,75,50,40
198.85365,199.22865,86,50,40
199.22865,199.60365,87,50,40
199.60365,199.97865,88,50,40
199.97865,200.35365,87,50,40
200.35365,200.72865,85,50,40
200.72865,201.10365,83,50,40
201.10365,201.47865,82,50,40
201.47865,201.85365,85,50,40
201.85365,202.22865,83,50,40
202.22865,202.60365,82,50,40
202.60365,202.96303,80,50,40
202.97865,203.35365,80,50,40
203.35365,203.72865,78,50,40
203.72865,204.10365,77,50,40
204.10365,204.47865,75,50,40
204.47865,205.9474,76,50,40
207.47865,208.1974,66,50,40
207.47865,208.1974,75,50,40
208.97865,209.6974,66,50,40
208.97865,209.6974,75,50,40
210.47865,211.9474,65,50,40
210.47865,211.9474,74,50,40
213.47865,214.1974,66,50,40
214.22865,214.9474,75,50,40
214.97865,215.6974,75,50,40
215.72865,215.91615,74,50,40
215.91615,216.10365,75,50,40
216.10365,216.29115,77,50,40
216.29115,216.47865,75,50,40
216.47865,217.1974,74,50,40
219.47865,220.1974,70,50,40
220.22865,220.9474,78,50,40
220.97865,221.6974,78,50,40
221.72865,221.91615,77,50,40
221.91615,222.10365,78,50,40
222.10365,222.29115,80,50,40
222.29115,222.47865,78,50,40
222.47865,223.1974,77,50,40
223.22865,223.9474,82,50,40
224.72865,225.4474,80,50,40
226.31198,227.1106,79,50,40
228.08282,228.98126,77,50,40
229.02032,229.40227,75,50,40
229.85365,230.1974,74,50,40
230.60365,230.9474,72,50,40
231.35365,231.6974,70,50,40
232.10365,232.4474,68,50,40
232.85365,233.1974,67,50,40
233.60365,233.9474,65,50,40
234.35365,234.6974,63,50,40
235.10365,236.5724,62,50,40
236.60365,238.0724,64,50,40
238.10365,239.5724,65,50,40
239.60365,240.3224,63,50,40
240.35365,241.0724,63,50,40
241.10365,242.5724,62,50,40
242.60365,244.0724,64,50,40
244.10365,245.5724,65,50,40
245.60365,246.40227,63,50,40
246.43698,247.33542,63,50,40
247.37448,249.83977,62,50,40
249.87448,250.08282,64,50,40
250.08282,250.29115,65,50,40
250.29115,250.49948,67,50,40
250.49948,250.70782,65,50,40
250.70782,253.1731,62,50,40
253.20782,253.41615,67,50,40
253.41615,253.62448,68,50,40
253.62448,253.83282,70,50,40
253.83282,254.04115,68,50,40
254.04115,256.50644,62,50,40
256.54114,256.74948,71,50,40
256.74948,256.95782,72,50,40
256.95782,257.16614,74,50,40
257.16614,257.37448,72,50,40
257.37448,257.96475,62,50,40
258.20782,258.41614,71,50,40
258.41614,258.62448,72,50,40
258.62448,258.83282,74,50,40
258.83282,259.04114,72,50,40
259.04114,259.63144,62,50,40
259.87448,260.08282,71,50,40
260.08282,260.29114,72,50,40
260.29114,260.49948,74,50,40
260.49948,260.70782,72,50,40
260.70782,260.9856,62,50,40
260.9856,261.26337,63,50,40
261.26337,261.54114,64,50,40
261.54114,261.81894,65,50,40
261.81894,262.0967,66,50,40
262.0967,262.37448,67,50,40
262.37448,262.65225,68,50,40
262.65225,262.93005,69,50,40
262.93005,263.20782,70,50,40
263.20782,263.4856,71,50,40
263.4856,263.76337,72,50,40
263.76337,264.04114,73,50,40
264.04114,264.31894,74,50,40
264.31894,264.5967,75,50,40
264.5967,264.87448,76,50,40
264.87448,265.15225,77,50,40
265.15225,265.43002,78,50,40
265.43002,265.70782,79,50,40
265.70782,265.9856,80,50,40
265.9856,266.26337,81,50,40
266.26337,266.54114,82,50,40
266.54114,266.83527,83,50,40
266.83527,267.13858,86,50,40
267.13858,267.43155,84,50,40
267.45108,267.91983,82,50,40
267.91983,268.3365,80,52,40
268.3365,268.75317,79,55,40
268.75317,269.16983,77,58,40
269.16983,269.5865,76,61,40
269.5865,270.00317,77,64,40
270.00317,270.41983,80,67,40
270.41983,270.8365,77,70,40
270.8365,271.25317,75,73,40
271.25317,271.66983,74,76,40
271.66983,272.0865,72,79,40
272.0865,272.50317,70,82,40
272.50317,272.91983,69,85,40
272.91983,273.3365,70,87,40
273.3365,273.80524,72,90,40
273.80524,274.38217,74,80,40
274.38217,275.22775,75,70,40
275.26453,275.79578,79,70,40
276.01453,276.54578,79,70,40
276.76453,277.29578,79,70,40
277.51453,278.23328,79,70,40
278.26453,278.79578,82,70,40
279.01453,279.54578,82,70,40
279.76453,280.29578,82,70,40
280.51453,281.26453,82,70,40
281.26453,281.98328,80,70,40
282.01453,282.76453,80,70,40
282.76453,283.48328,77,70,40
283.51453,284.26453,77,70,40
284.26453,284.98328,74,70,40
285.01453,285.84784,74,70,40
285.84784,286.74628,70,70,40
286.78534,287.61868,70,70,40
287.61868,288.33743,75,70,40
288.36868,288.89993,75,70,40
289.11868,289.30618,74,70,40
289.30618,289.49368,75,70,40
289.49368,289.68118,77,70,40
289.68118,289.86868,75,70,40
289.86868,290.61868,70,70,40
290.61868,291.33743,77,70,40
291.36868,291.89993,77,70,40
292.11868,292.30618,76,70,40
292.30618,292.49368,77,70,40
292.49368,292.68118,79,70,40
292.68118,292.86868,77,70,40
292.86868,293.39993,70,70,40
293.61868,293.80618,78,70,40
293.80618,293.99368,79,70,40
293.99368,294.18118,80,70,40
294.18118,294.36868,79,70,40
294.36868,294.95895,72,70,40
295.20203,295.6432,80,70,40
295.6432,295.87756,82,70,40
295.87756,296.11194,84,70,40
296.11194,297.84805,77,70,40
300.10968,300.38745,82,70,40
300.90134,301.15134,79,70,40
301.65134,301.90134,75,70,40
302.02634,302.27634,70,70,40
302.40134,302.65134,67,70,40
302.77634,303.02634,63,70,40
303.15134,303.40134,82,70,40
303.90134,304.15134,79,70,40
304.65134,304.90134,75,70,40
305.02634,305.21384,70,70,40
305.27634,305.46384,67,70,40
305.52634,305.71384,63,70,40
305.77634,306.02634,62,70,40
306.15134,306.40134,70,70,40
306.90134,307.15134,74,70,40
307.65134,307.90134,77,70,40
308.02634,308.27634,82,70,40
308.40134,308.65134,86,70,40
308.77634,309.02634,62,70,40
309.15134,309.40134,77,70,40
309.90134,310.15134,82,70,40
310.65134,310.90134,86,70,40
311.02634,311.27634,89,70,40
311.40134,311.65134,94,70,40
312.15134,312.40134,94,70,40
312.90134,313.15134,91,70,40
313.65134,313.90134,87,70,40
314.02634,314.27634,82,70,40
314.40134,314.65134,79,70,40
315.15134,315.40134,96,70,40
315.90134,316.15134,92,70,40
316.65134,316.90134,89,70,40
317.02634,317.27634,84,70,40
317.40134,317.65134,80,70,40
318.15134,318.40134,79,70,40
318.90134,319.15134,82,70,40
319.693,319.97076,77,70,40
320.57843,320.89093,82,70,40
321.04718,322.6791,75,70,40
323.54718,324.34576,70,70,40
324.3805,325.47424,77,70,40
325.5055,325.8805,75,70,40
325.8805,326.59924,74,70,40
326.6305,327.34924,72,70,40
327.3805,329.59924,70,70,40
329.6305,330.34924,70,70,40
330.3805,331.09924,70,70,40
331.1305,331.84924,70,70,40
331.8805,332.6791,70,70,40
332.71384,333.61227,72,70,40
333.65134,334.9326,65,70,40
334.96384,335.15134,67,70,40
335.15134,335.33884,68,70,40
335.33884,335.52634,70,70,40
335.58884,335.77634,72,70,40
335.83884,336.02634,74,70,40
336.08884,336.27634,75,70,40
336.33884,336.52634,77,70,40
336.58884,336.77634,79,70,40
336.83884,337.9326,80,70,40
337.96384,338.33884,79,70,40
338.33884,339.0576,77,70,40
339.08884,339.8076,75,70,40
339.83884,342.0576,74,70,40
342.08884,342.8076,74,70,40
342.83884,343.21384,75,70,40
343.21384,343.33884,77,70,40
343.33884,343.46384,75,70,40
343.46384,343.58884,74,70,40
343.58884,343.96384,75,70,40
343.96384,344.33884,77,70,40
344.33884,344.71384,79,70,40
344.71384,344.83884,81,70,40
344.83884,344.96384,79,70,40
344.96384,345.08884,77,70,40
345.08884,345.5055,79,70,40
345.5055,345.9467,81,70,40
345.9467,347.2702,84,70,40
347.2702,347.7114,82,70,40
347.7114,348.15256,81,70,40
348.15256,348.59375,80,70,40
348.59375,349.0625,79,70,40
349.0625,349.6394,77,70,40
349.6394,350.43802,75,70,40
350.47275,351.1915,79,70,40
351.22275,351.754,79,70,40
351.97275,352.09775,55,70,40
352.09775,352.22275,58,70,40
352.22275,352.34775,63,70,40
352.34775,352.47275,67,70,40
352.47275,352.59775,70,70,40
352.59775,352.72275,75,70,40
352.72275,353.4415,79,70,40
353.47275,354.1915,82,70,40
354.22275,354.754,82,70,40
354.97275,355.09775,63,100,40
355.09775,355.22275,67,100,40
355.22275,355.34775,70,100,40
355.34775,355.47275,75,100,40
355.47275,355.59775,79,100,40
355.59775,355.72275,82,100,40
355.72275,356.4415,82,70,40
356.47275,356.8165,80,70,40
357.03525,357.1915,80,70,40
357.22275,357.9415,80,70,40
357.97275,358.3165,77,70,40
358.53525,358.6915,77,70,40
358.72275,359.4415,77,70,40
359.47275,359.8165,74,70,40
360.03525,360.1915,74,70,40
360.22275,360.9415,74,70,40
360.97275,361.3165,70,70,40
361.53525,361.6915,70,70,40
361.72275,362.4415,70,70,40
362.47275,363.1915,75,70,40
363.22275,363.754,75,70,40
363.97275,364.129,74,70,40
364.16025,364.3165,75,70,40
364.34775,364.504,77,70,40
364.53525,364.6915,75,70,40
364.72275,365.4415,72,70,40
365.47275,366.1915,80,70,40
366.22275,366.754,80,70,40
366.97275,367.16025,79,70,40
367.16025,367.34775,80,70,40
367.34775,367.53525,82,70,40
367.53525,367.70712,80,70,40
367.72275,368.254,79,70,40
368.47275,368.66025,81,70,40
368.66025,368.84775,82,70,40
368.84775,369.03525,84,70,40
369.03525,369.22275,82,70,40
369.22275,369.754,77,70,40
369.97275,370.16025,81,70,40
370.16025,370.34775,82,70,40
370.34775,370.55606,84,70,40
370.55606,370.79044,82,70,40
370.79044,372.4224,75,70,40
385.89462,386.69324,70,70,40
386.72794,387.85294,80,70,40
387.85294,388.22794,79,81,40
388.22794,388.9467,77,85,40
388.97794,389.6967,75,93,40
389.72794,391.9467,74,100,40
391.97794,392.6967,75,115,40
392.72794,393.47794,74,90,40
393.47794,394.22794,75,115,40
394.22794,394.97794,74,90,40
394.97794,395.72794,75,115,40
395.72794,397.1967,74,90,40
398.72794,400.1967,75,70,40
401.72794,402.0873,56,120,40
401.72794,403.1967,63,120,40
401.72794,403.1967,72,120,40
404.72794,405.4467,63,70,40
406.22794,406.9467,65,70,40
407.72794,408.4467,63,70,40
421.97794,422.72794,67,50,40
422.72794,424.1967,79,50,40
424.22794,424.97794,76,50,40
424.97794,425.72794,71,80,40
425.72794,427.1967,72,50,40
427.22794,427.97794,67,50,40
427.97794,428.72794,71,80,40
428.72794,430.1967,72,50,40
430.22794,430.97794,67,50,40
430.97794,431.72794,71,80,40
431.72794,435.4467,72,70,40
435.47794,435.85294,74,75,40
435.85294,436.22794,76,77,40
436.22794,436.9467,77,80,40
436.97794,438.4467,77,85,40
438.47794,438.85294,79,95,40
438.85294,439.22794,81,98,40
439.22794,439.62268,82,100,40
439.62268,440.01743,84,92,40
440.01743,440.4586,85,83,40
440.4586,440.92734,86,75,40
440.92734,442.76328,87,70,40
444.67734,445.10703,68,120,40
444.67734,446.51328,75,120,40
444.67734,446.51328,84,120,40
448.42734,449.1461,63,50,40
449.92734,450.6461,65,50,40
451.42734,452.1461,63,50,40
459.67734,459.86484,81,50,40
459.86484,460.05234,82,50,40
460.05234,460.23984,84,50,40
460.23984,460.42734,82,50,40
460.42734,460.9586,74,50,40
461.17734,461.36484,81,50,40
461.36484,461.55234,82,50,40
461.55234,461.73984,84,50,40
461.73984,461.92734,82,50,40
461.92734,462.4586,74,50,40
462.67734,462.88568,81,50,40
462.88568,463.09402,82,50,40
463.09402,463.3284,84,50,40
463.3284,463.56277,82,50,40
463.56277,465.1947,75,50,40
471.554,471.7415,81,50,40
471.7415,471.929,82,50,40
471.929,472.1165,81,50,40
472.1165,472.304,82,50,40
472.304,472.4915,81,50,40
472.4915,472.679,82,50,40
472.679,472.8665,84,50,40
472.8665,473.054,82,50,40
473.054,473.58524,74,50,40
473.804,473.929,81,50,40
473.929,474.054,82,50,40
474.054,474.179,84,50,40
474.179,474.31058,82,50,40
474.31058,474.44214,81,50,40
474.44214,474.57373,82,50,40
474.57373,475.164,74,50,40
475.40707,475.5541,81,50,40
475.5541,475.70117,82,50,40
475.70117,475.84824,84,50,40
475.84824,476.0045,82,50,40
476.0045,476.17877,81,50,40
476.17877,476.37106,82,50,40
476.37106,478.63068,75,50,40
479.51212,480.3107,79,50,40
480.34543,481.9774,70,50,40
482.84543,483.67877,75,50,40
483.67877,485.3107,67,50,40
486.17877,487.11627,70,50,40
487.11627,489.21448,63,50,40
496.75912,497.78592,63,1,40
0.0,1.5520833,63,70,40
0.0,1.5520833,55,70,40
3.0833333,4.552083,58,70,40
3.0833333,4.552083,67,70,40
6.083333,7.552083,58,70,40
6.083333,7.552083,68,70,40
9.083333,10.552083,58,70,40
9.083333,10.552083,65,70,40
12.354166,13.90625,63,70,40
15.4375,16.90625,65,70,40
18.4375,19.15625,58,70,40
18.4375,19.15625,67,70,40
19.9375,20.73611,60,70,40
19.9375,20.73611,68,70,40
21.708332,22.60677,58,70,40
21.708332,22.60677,65,70,40
22.645832,23.027777,70,70,40
23.0625,23.479166,70,70,40
23.479166,23.895832,69,70,40
23.895832,24.3125,68,70,40
24.3125,24.78125,67,70,40
24.78125,25.316963,65,70,40
25.316963,26.2154,63,70,40
26.254463,26.973213,67,70,40
27.004463,27.723213,67,70,40
27.754463,28.473213,67,70,40
28.504463,29.223213,67,70,40
29.254463,29.973213,70,70,40
30.004463,30.723213,70,70,40
30.754463,31.473213,70,70,40
31.504463,32.223213,70,70,40
32.254463,32.973213,68,70,40
33.004463,33.723213,68,70,40
33.754463,34.473213,65,70,40
34.504463,35.223213,65,70,40
35.254463,35.973213,62,70,40
36.004463,36.723213,62,70,40
36.754463,37.473213,58,70,40
37.504463,38.223213,58,70,40
38.254463,38.973213,63,70,40
39.004463,39.535713,63,70,40
39.754463,39.941963,62,70,40
39.941963,40.129463,63,70,40
40.129463,40.316963,65,70,40
40.316963,40.504463,63,70,40
40.504463,41.223213,60,70,40
41.254463,41.973213,68,70,40
42.004463,42.535713,68,70,40
42.754463,42.941963,67,70,40
42.941963,43.129463,68,70,40
43.129463,43.316963,70,70,40
43.316963,43.48884,68,70,40
43.504463,44.09474,67,70,40
44.337795,44.54613,69,70,40
44.54613,44.754463,70,70,40
44.754463,44.962795,72,70,40
44.962795,45.15377,70,70,40
45.17113,45.835194,65,70,40
46.10863,46.376488,69,70,40
46.376488,46.644344,70,70,40
46.644344,46.9122,72,70,40
46.9122,47.180058,70,70,40
47.180058,48.812004,63,70,40
50.513393,51.607143,68,70,40
51.638393,52.013393,67,70,40
52.013393,52.732143,65,70,40
52.763393,53.482143,63,70,40
53.513393,55.732143,62,70,40
55.763393,56.482143,64,70,40
56.513393,57.232143,65,70,40
57.263393,57.982143,62,70,40
58.013393,58.812004,63,70,40
58.846725,59.745163,63,70,40
59.784225,61.065475,62,70,40
61.096725,61.284225,63,70,40
61.284225,61.471725,65,70,40
61.471725,61.659225,67,70,40
61.721725,61.909225,69,70,40
61.971725,62.159225,70,70,40
62.221725,62.409225,72,70,40
62.471725,62.659225,74,70,40
62.721725,62.909225,75,70,40
62.971725,64.065475,77,70,40
64.096725,64.471725,75,70,40
64.471725,65.190475,74,70,40
65.221725,65.940475,72,70,40
65.971725,66.690475,70,70,40
66.721725,67.440475,71,70,40
67.471725,68.190475,70,70,40
68.221725,68.940475,70,70,40
68.971725,70.440475,70,70,40
70.471725,71.940475,75,70,40
71.971725,73.440475,74,70,40
75.35073,81.451836,55,70,40
75.35073,81.451836,63,70,40
81.483086,84.451836,65,70,40
81.483086,87.451836,58,70,40
84.483086,87.451836,62,70,40
87.483086,89.514336,58,70,40
89.545586,89.701836,55,70,40
89.733086,90.264336,56,70,40
90.295586,90.451836,58,70,40
87.483086,91.951836,63,70,40
90.483086,92.514336,60,70,40
92.545586,92.701836,56,70,40
92.733086,93.264336,60,70,40
91.983086,93.451836,65,70,40
93.295586,93.451836,56,70,40
93.483086,94.201836,63,70,40
94.983086,95.78169,62,70,40
96.86209,98.49403,63,70,40
112.466255,114.01231,65,50,40
114.045204,114.80178,70,63,40
114.83468,115.591255,72,70,40
115.62415,116.38073,70,77,40
116.41363,117.170204,63,84,40
117.203094,117.95968,61,90,40
117.99257,118.74915,58,70,40
118.78204,119.53862,58,50,40
120.36099,121.11757,57,50,40
121.93994,123.48599,58,50,40
124.30836,125.06494,58,50,40
125.09783,126.60606,70,50,40
126.63731,127.35606,66,50,40
127.38731,128.10605,62,50,40
128.1373,129.60605,63,50,40
129.6373,130.35605,58,50,40
130.3873,131.10605,62,50,40
131.1373,131.85605,63,50,40
131.8873,132.60605,65,50,40
132.6373,133.35605,66,50,40
133.3873,134.10605,69,50,40
134.1373,134.5123,70,50,40
134.5123,134.8873,69,50,40
134.8873,135.2623,70,50,40
135.2623,135.6373,69,50,40
135.6373,136.0123,70,50,40
136.0123,136.3873,73,50,40
136.3873,136.7623,72,50,40
136.7623,137.1373,70,50,40
137.1373,137.5123,69,50,40
137.5123,137.8873,76,51,40
137.8873,138.2623,77,52,40
138.2623,138.6373,76,53,40
138.6373,139.0123,77,55,40
139.0123,139.3873,78,56,40
139.3873,139.7623,77,57,40
139.7623,140.1373,75,59,40
140.1373,140.5123,73,60,40
140.5123,140.8873,72,61,40
140.8873,141.2623,70,63,40
141.2623,141.6373,69,64,40
141.6373,142.0123,72,65,40
142.0123,142.3873,70,67,40
142.3873,142.7623,68,68,40
142.7623,143.12167,66,69,40
143.1373,143.5123,66,70,40
143.5123,143.8873,65,70,40
143.8873,144.2623,63,70,40
144.2623,144.62167,61,70,40
144.6373,145.05397,61,70,40
145.05397,145.47064,60,70,40
145.47064,145.93939,63,70,40
145.93939,146.51631,57,70,40
146.51631,148.35225,58,70,40
151.59964,153.06839,73,110,40
153.09964,154.19339,73,100,40
154.59964,155.69339,73,100,40
157.59964,159.06839,70,113,40
159.09964,160.19339,70,100,40
160.59964,161.34964,70,83,40
161.34964,161.69339,67,97,40
162.09964,162.84964,68,110,40
162.84964,163.59964,73,80,40
163.59964,164.34964,71,75,40
164.34964,165.09964,70,70,40
165.09964,165.83401,68,65,40
165.84964,166.59964,68,60,40
166.59964,167.34964,66,55,40
167.34964,168.09964,70,50,40
168.09964,168.84964,71,50,40
169.59964,170.34964,68,50,40
171.09964,172.56839,66,50,40
174.47464,174.84964,72,70,40
174.84964,175.22464,73,70,40
175.22464,175.59964,72,70,40
175.59964,175.97464,73,70,40
175.97464,176.34964,75,70,40
176.34964,176.72464,73,70,40
176.72464,177.08401,71,70,40
177.09964,177.47464,71,100,40
177.47464,177.72464,70,70,40
177.84964,178.09964,68,70,40
177.84964,178.09964,68,70,40
178.22464,178.47464,68,70,40
178.59964,179.01631,71,100,40
179.01631,179.29408,70,70,40
179.43298,179.74548,68,70,40
179.90173,180.28635,68,70,40
180.85365,181.22865,69,70,40
181.22865,181.60365,70,70,40
181.60365,181.97865,69,70,40
181.97865,182.35365,70,70,40
182.35365,182.72865,71,70,40
182.72865,183.10365,70,70,40
183.10365,183.46303,68,70,40
183.47865,183.85365,68,100,40
183.85365,184.10365,66,70,40
184.22865,184.47865,65,70,40
184.60365,184.85365,65,70,40
184.97865,185.35365,68,100,40
185.35365,185.60365,66,70,40
185.72865,185.97865,67,70,40
186.10365,186.35365,67,70,40
186.47865,186.85365,68,100,40
186.85365,187.22865,74,70,40
187.22865,187.60365,75,70,40
187.60365,187.97865,76,70,40
187.97865,188.35365,75,70,40
188.35365,188.72865,73,70,40
188.72865,189.10365,71,70,40
189.10365,189.47865,70,70,40
189.47865,189.85365,73,70,40
189.85365,190.22865,71,70,40
190.22865,190.60365,70,70,40
190.60365,190.96303,68,70,40
190.97865,191.35365,68,70,40
191.35365,191.72865,66,65,40
191.72865,192.10365,65,60,40
192.10365,192.47865,63,55,40
192.47865,193.1974,64,50,40
193.97865,194.6974,62,50,40
195.47865,196.9474,63,50,40
197.72865,198.4474,63,50,40
198.47865,199.1974,75,50,40
199.22865,199.9474,70,50,40
199.97865,200.6974,71,50,40
200.72865,201.4474,67,50,40
201.47865,202.1974,68,50,40
202.22865,202.9474,65,50,40
202.97865,203.6974,66,50,40
203.72865,204.4474,58,50,40
204.47865,205.9474,59,50,40
207.47865,208.1974,60,50,40
208.97865,209.6974,60,50,40
210.47865,211.9474,62,50,40
213.47865,214.1974,58,50,40
214.22865,214.9474,66,50,40
214.97865,215.6974,66,50,40
215.72865,215.91615,65,50,40
215.91615,216.10365,66,50,40
216.10365,216.29115,68,50,40
216.29115,216.47865,66,50,40
216.47865,217.1974,65,50,40
219.47865,220.1974,58,50,40
220.22865,220.9474,63,50,40
220.97865,221.6974,63,50,40
221.72865,221.91615,62,50,40
221.91615,222.10365,63,50,40
222.10365,222.29115,65,50,40
222.29115,222.47865,63,50,40
222.47865,223.1974,62,50,40
223.22865,223.9474,77,50,40
224.72865,225.4474,75,50,40
226.31198,227.1106,74,50,40
228.08282,228.98126,72,50,40
229.02032,229.40227,70,50,40
229.85365,230.1974,68,50,40
230.60365,230.9474,67,50,40
231.35365,231.6974,65,50,40
232.10365,232.4474,63,50,40
232.85365,233.1974,62,50,40
233.60365,233.9474,60,50,40
234.35365,234.6974,58,50,40
235.10365,236.5724,56,50,40
236.60365,238.0724,58,50,40
238.10365,239.5724,60,50,40
239.60365,240.3224,58,50,40
240.35365,241.0724,57,50,40
241.10365,242.5724,56,50,40
242.60365,244.0724,58,50,40
244.10365,245.5724,60,50,40
245.60365,246.40227,58,50,40
246.43698,247.33542,57,50,40
247.37448,248.1731,56,50,40
248.20782,249.00642,56,50,40
251.54115,252.33977,68,50,40
254.87448,255.6731,68,50,40
257.37448,258.1731,68,50,40
259.04114,259.83975,68,50,40
260.70782,261.50644,56,50,40
271.66983,272.46844,68,79,40
272.50317,273.30176,68,85,40
273.3365,274.33408,68,90,40
274.38217,275.98328,58,70,40
274.38217,275.98328,67,70,40
276.76453,276.95203,69,70,40
276.95203,277.13953,70,70,40
277.13953,277.32703,72,70,40
277.32703,277.51453,70,70,40
277.51453,278.98328,63,70,40
282.76453,282.95203,57,70,40
282.95203,283.13953,58,70,40
283.13953,283.32703,60,70,40
283.32703,283.51453,58,70,40
283.51453,284.98328,68,70,40
288.36868,289.83743,55,70,40
288.36868,289.83743,63,70,40
291.36868,292.83743,65,70,40
292.86868,293.58743,58,70,40
292.86868,293.58743,67,70,40
294.36868,295.1673,68,70,40
294.36868,295.1673,60,70,40
296.11194,297.01038,58,70,40
296.11194,297.01038,65,70,40
297.04944,297.4314,70,70,40
297.46613,297.84805,70,70,40
297.88278,298.29944,69,70,40
298.29944,298.71613,68,70,40
298.71613,299.1573,67,70,40
299.1573,299.693,65,70,40
299.693,300.4916,63,70,40
300.52634,301.2451,67,70,40
301.27634,301.9951,67,70,40
302.02634,302.7451,67,70,40
302.77634,303.4951,67,70,40
303.52634,304.2451,70,70,40
304.27634,304.9951,70,70,40
305.02634,305.7451,70,70,40
305.77634,306.4951,70,70,40
306.52634,307.2451,68,70,40
307.27634,307.9951,68,70,40
308.02634,308.7451,65,70,40
308.77634,309.4951,65,70,40
309.52634,310.2451,62,70,40
310.27634,310.9951,62,70,40
311.02634,311.7451,58,70,40
311.77634,312.4951,58,70,40
312.52634,313.2451,63,70,40
313.27634,313.8076,63,70,40
314.02634,314.21384,62,70,40
314.21384,314.40134,63,70,40
314.40134,314.58884,65,70,40
314.58884,314.77634,63,70,40
314.77634,315.4951,60,70,40
315.52634,316.2451,68,70,40
316.27634,316.8076,68,70,40
317.02634,317.21384,67,70,40
317.21384,317.40134,68,70,40
317.40134,317.58884,70,70,40
317.58884,317.7607,68,70,40
317.77634,318.3076,67,70,40
318.52634,318.71384,69,70,40
318.71384,318.90134,70,70,40
318.90134,319.08884,72,70,40
319.08884,319.2607,70,70,40
319.27634,319.8666,65,70,40
320.10968,320.34406,69,70,40
320.34406,320.57843,70,70,40
320.57843,320.8128,72,70,40
320.8128,321.04718,70,70,40
321.04718,322.6791,63,70,40
324.3805,325.47424,68,70,40
325.5055,325.8805,67,70,40
325.8805,326.59924,65,70,40
326.6305,327.34924,63,70,40
327.3805,329.59924,62,70,40
329.6305,330.34924,64,70,40
330.3805,331.09924,65,70,40
331.1305,331.84924,62,70,40
331.8805,332.6791,63,70,40
332.71384,333.61227,63,70,40
333.65134,334.9326,62,70,40
334.96384,335.15134,63,70,40
335.15134,335.33884,65,70,40
335.33884,335.52634,67,70,40
335.58884,335.77634,69,70,40
335.83884,336.02634,70,70,40
336.08884,336.27634,72,70,40
336.33884,336.52634,74,70,40
336.58884,336.77634,75,70,40
336.83884,337.9326,77,70,40
337.96384,338.33884,75,70,40
338.33884,339.0576,74,70,40
339.08884,339.8076,72,70,40
339.83884,340.5576,70,70,40
340.58884,341.3076,71,70,40
341.33884,342.0576,70,70,40
342.08884,342.8076,70,70,40
342.83884,344.3076,70,70,40
344.33884,345.9099,75,70,40
345.9467,347.67462,74,70,40
349.6394,355.6915,55,70,40
349.6394,355.6915,63,70,40
355.72275,360.1915,65,70,40
355.72275,361.6915,58,70,40
360.22275,361.6915,62,70,40
361.72275,363.1915,58,70,40
363.22275,364.6915,55,70,40
361.72275,366.1915,63,70,40
364.72275,367.6915,60,70,40
366.22275,367.6915,65,70,40
368.47275,369.1915,58,70,40
368.47275,369.1915,67,70,40
369.97275,370.75137,58,70,40
369.97275,370.75137,68,70,40
370.79044,372.4224,58,71,40
370.79044,372.4224,67,69,40
373.29044,374.08905,70,70,40
374.12378,375.24878,77,70,40
375.24878,375.62378,75,70,40
375.62378,376.34253,74,70,40
376.37378,377.09253,72,70,40
377.12378,379.34253,70,70,40
379.37378,380.09253,68,70,40
380.12378,380.87378,67,70,40
380.87378,381.62378,68,70,40
381.62378,382.45712,67,70,40
382.45712,383.39462,72,70,40
383.39462,385.02655,65,70,40
386.72794,387.85294,75,70,40
387.85294,388.22794,74,81,40
388.22794,388.9467,72,85,40
388.97794,389.6967,70,93,40
389.72794,391.9467,68,100,40
391.97794,392.6967,68,115,40
392.72794,393.4467,68,90,40
393.47794,394.1967,68,115,40
394.22794,394.9467,68,90,40
394.97794,395.6967,68,115,40
395.72794,397.1967,68,90,40
398.72794,400.1967,67,70,40
401.72794,403.1967,60,120,40
401.72794,403.1967,63,120,40
404.72794,405.4467,55,70,40
406.22794,406.9467,56,70,40
407.72794,408.4467,55,70,40
409.97794,410.6967,55,50,40
410.72794,412.1967,67,50,40
412.22794,412.97794,63,50,40
412.97794,413.72794,59,50,40
413.72794,415.1967,60,50,40
415.22794,415.97794,55,50,40
415.97794,416.72794,59,50,40
416.72794,417.47794,60,50,40
417.47794,418.22794,62,50,40
418.22794,418.97794,63,50,40
418.97794,419.72794,66,50,40
419.72794,421.1967,67,50,40
422.72794,424.9467,55,50,40
422.72794,424.9467,64,50,40
424.97794,425.6967,55,80,40
424.97794,425.6967,65,80,40
425.72794,427.9467,55,50,40
425.72794,427.9467,64,50,40
427.97794,428.6967,55,80,40
427.97794,428.6967,65,80,40
428.72794,430.9467,55,50,40
428.72794,430.9467,64,50,40
430.97794,431.6967,55,80,40
430.97794,431.6967,65,80,40
431.72794,432.47794,55,70,40
431.72794,432.47794,64,70,40
432.47794,433.22794,65,70,40
433.22794,433.97794,66,70,40
433.97794,434.72794,67,70,40
434.72794,435.47794,68,70,40
435.47794,436.22794,70,75,40
436.22794,436.97794,68,80,40
436.97794,437.72794,69,85,40
437.72794,438.47794,70,90,40
438.47794,439.22794,75,95,40
439.22794,440.01743,74,100,40
440.01743,440.92734,77,83,40
440.92734,442.76328,63,70,40
440.92734,442.76328,70,70,40
444.67734,446.51328,56,120,40
444.67734,446.51328,63,120,40
444.67734,446.51328,72,120,40
448.42734,449.1461,55,50,40
449.92734,450.6461,56,50,40
451.42734,452.1461,55,50,40
456.67734,456.86484,68,50,40
456.86484,457.05234,70,50,40
457.05234,457.23984,72,50,40
457.23984,457.42734,70,50,40
457.42734,458.8961,63,50,40
460.42734,461.1461,58,50,40
460.42734,461.1461,68,50,40
461.92734,462.6461,58,50,40
461.92734,462.6461,68,50,40
463.56277,464.3614,58,50,40
463.56277,464.3614,67,50,40
468.47504,468.67242,69,50,40
468.67242,468.86978,70,50,40
468.86978,469.06714,69,50,40
469.06714,469.26453,70,50,40
469.26453,469.46188,69,50,40
469.46188,469.65924,70,50,40
469.65924,469.85663,72,50,40
469.85663,470.054,70,50,40
470.054,471.52274,63,50,40
473.054,473.77274,56,50,40
473.054,473.77274,62,50,40
474.57373,475.37234,56,50,40
474.57373,475.37234,62,50,40
476.37106,477.47684,55,50,40
476.37106,477.47684,63,50,40
482.84543,483.67877,63,50,40
483.67877,485.3107,55,50,40
0.0,1.5520833,58,70,41
3.0833333,4.552083,63,70,41
6.083333,7.552083,65,70,41
9.083333,10.552083,62,70,41
12.354166,13.90625,58,70,41
15.4375,16.90625,58,70,41
18.4375,19.15625,63,70,41
19.9375,20.73611,65,70,41
21.708332,22.60677,62,70,41
25.316963,26.2154,55,70,41
26.254463,26.973213,58,70,41
27.004463,27.723213,58,70,41
27.754463,28.473213,58,70,41
28.504463,29.223213,58,70,41
29.254463,29.973213,58,70,41
30.004463,30.723213,58,70,41
30.754463,31.473213,58,70,41
31.504463,33.723213,58,70,41
33.754463,34.473213,58,70,41
34.504463,35.223213,58,70,41
35.254463,35.973213,53,70,41
36.004463,36.723213,53,70,41
36.754463,37.473213,50,70,41
37.504463,40.473213,58,70,41
37.504463,43.473213,51,70,41
40.504463,43.473213,60,70,41
43.504463,44.303074,58,70,41
45.17113,46.06957,56,70,41
47.180058,48.812004,55,70,41
50.513393,51.607143,50,70,41
51.638393,52.013393,51,70,41
52.013393,52.732143,53,70,41
52.763393,53.482143,55,70,41
53.513393,55.732143,56,70,41
55.763393,56.482143,55,70,41
56.513393,57.232143,56,70,41
57.263393,57.982143,53,70,41
58.013393,58.812004,55,70,41
58.846725,59.745163,57,70,41
59.784225,61.440475,58,70,41
62.971725,64.065475,62,70,41
64.096725,64.471725,63,70,41
64.471725,65.190475,65,70,41
65.221725,65.940475,67,70,41
65.971725,68.190475,68,70,41
68.221725,68.940475,68,70,41
68.971725,70.440475,67,70,41
70.471725,71.940475,63,70,41
71.971725,73.440475,65,70,41
77.545586,77.701836,63,70,41
77.733086,78.264336,58,70,41
78.295586,78.451836,55,70,41
78.483086,79.951836,51,70,41
83.545586,83.701836,65,70,41
83.733086,84.264336,62,70,41
84.295586,84.451836,58,70,41
84.483086,85.951836,56,70,41
89.545586,89.701836,51,70,41
89.733086,90.264336,53,70,41
90.295586,90.451836,55,70,41
90.483086,91.951836,56,70,41
93.483086,94.201836,58,70,41
94.983086,95.78169,56,70,41
96.86209,98.49403,55,70,41
105.44543,106.16418,50,50,41
106.19543,106.91418,51,50,41
106.94543,107.66418,53,50,41
107.69543,108.41418,54,50,41
108.44543,109.16418,57,50,41
109.19543,109.91418,58,50,41
109.94543,110.66418,60,50,41
110.69543,111.49403,61,50,41
111.528755,112.42719,64,50,41
112.466255,114.80178,65,50,41
114.83468,116.38073,65,70,41
116.41363,117.170204,57,84,41
117.203094,117.95968,58,90,41
117.99257,118.74915,63,70,41
118.78204,119.53862,61,50,41
120.36099,121.11757,60,50,41
121.93994,123.48599,58,50,41
134.1373,134.85605,58,50,41
134.8873,135.60605,60,50,41
135.6373,136.35605,61,50,41
136.3873,137.10605,64,50,41
137.1373,138.60605,65,50,41
138.6373,139.35605,61,55,41
139.3873,140.10605,57,57,41
140.1373,140.85605,58,60,41
140.8873,141.60605,53,63,41
141.6373,142.35605,54,65,41
142.3873,143.10605,51,68,41
143.1373,143.85605,53,70,41
144.6373,145.43591,53,70,41
146.51631,148.35225,58,70,41
152.34964,153.06839,61,70,41
153.09964,153.84964,61,100,41
153.84964,154.19339,65,70,41
154.59964,155.34964,66,100,41
155.34964,155.69339,65,70,41
158.34964,159.06839,58,70,41
159.09964,159.84964,58,100,41
159.84964,160.19339,62,70,41
160.59964,161.34964,63,83,41
161.34964,161.69339,61,97,41
162.09964,164.31839,63,110,41
164.34964,165.09964,61,70,41
165.09964,165.84964,59,65,41
165.84964,166.59964,58,60,41
166.59964,167.34964,58,55,41
167.34964,168.09964,54,50,41
168.09964,168.84964,56,50,41
169.59964,170.34964,53,50,41
171.09964,172.56839,51,50,41
174.09964,176.31839,61,110,41
176.34964,176.69339,61,70,41
176.72464,177.06839,61,70,41
177.09964,177.47464,68,100,41
177.47464,177.72464,66,70,41
177.84964,178.09964,65,70,41
178.22464,178.47464,65,70,41
178.59964,179.01631,68,100,41
179.01631,179.29408,66,70,41
179.43298,179.74548,65,70,41
179.90173,180.28635,65,70,41
180.47865,182.6974,58,110,41
182.72865,183.0724,58,70,41
183.10365,183.4474,58,70,41
183.47865,183.85365,65,100,41
183.85365,184.10365,63,70,41
184.22865,184.47865,62,70,41
184.60365,184.85365,62,70,41
184.97865,185.35365,65,100,41
185.35365,185.60365,63,70,41
185.72865,185.97865,61,70,41
186.10365,186.35365,61,70,41
186.47865,187.9474,63,100,41
187.97865,188.72865,59,70,41
188.72865,189.47865,55,70,41
189.47865,190.22865,56,70,41
190.22865,190.97865,53,70,41
190.97865,191.72865,54,70,41
191.72865,192.47865,58,60,41
192.47865,193.1974,59,50,41
193.97865,194.6974,56,50,41
195.47865,196.9474,54,50,41
198.47865,199.1974,71,50,41
199.22865,199.9474,67,50,41
199.97865,200.6974,68,50,41
200.72865,201.4474,63,50,41
201.47865,202.1974,64,50,41
202.22865,202.9474,62,50,41
202.97865,203.6974,63,50,41
203.72865,204.4474,54,50,41
204.47865,205.9474,56,50,41
207.47865,208.1974,57,50,41
208.97865,209.6974,57,50,41
210.47865,211.1974,58,50,41
211.22865,211.9474,70,50,41
211.97865,212.6974,70,50,41
212.72865,212.91615,69,50,41
212.91615,213.10365,70,50,41
213.10365,213.29115,71,50,41
213.29115,213.47865,70,50,41
213.47865,216.4474,70,50,41
216.47865,217.1974,58,50,41
217.22865,217.9474,70,50,41
217.97865,218.6974,70,50,41
218.72865,218.91615,69,50,41
218.91615,219.10365,70,50,41
219.10365,219.29115,71,50,41
219.29115,219.47865,70,50,41
219.47865,223.1974,70,50,41
223.22865,223.9474,74,50,41
224.72865,225.4474,72,50,41
226.31198,227.1106,70,50,41
228.08282,228.98126,68,50,41
229.02032,229.40227,67,50,41
229.85365,230.1974,65,50,41
230.60365,230.9474,63,50,41
231.35365,231.6974,62,50,41
232.10365,232.4474,60,50,41
232.85365,233.1974,58,50,41
233.60365,233.9474,56,50,41
234.35365,234.6974,55,50,41
235.10365,236.5724,53,50,41
236.60365,238.0724,55,50,41
238.10365,239.5724,56,50,41
239.60365,240.3224,55,50,41
240.35365,241.0724,54,50,41
241.10365,242.5724,53,50,41
242.60365,244.0724,55,50,41
244.10365,245.5724,56,50,41
245.60365,246.40227,55,50,41
246.43698,247.33542,54,50,41
247.37448,248.1731,53,50,41
248.20782,249.00642,53,50,41
251.54115,252.33977,65,50,41
254.87448,255.6731,65,50,41
257.37448,258.1731,65,50,41
259.04114,259.83975,65,50,41
260.70782,261.50644,53,50,41
271.66983,272.46844,65,79,41
272.50317,273.30176,65,85,41
273.3365,274.33408,65,90,41
274.38217,275.98328,63,70,41
279.76453,279.95203,50,70,41
279.95203,280.13953,51,70,41
280.13953,280.32703,53,70,41
280.32703,280.51453,51,70,41
280.51453,281.98328,50,70,41
288.36868,289.83743,58,70,41
291.36868,292.83743,58,70,41
292.86868,293.58743,63,70,41
294.36868,295.1673,65,70,41
296.11194,297.01038,62,70,41
299.693,300.4916,55,70,41
300.52634,301.2451,58,70,41
301.27634,301.9951,58,70,41
302.02634,302.7451,58,70,41
302.77634,303.4951,58,70,41
303.52634,304.2451,58,70,41
304.27634,304.9951,58,70,41
305.02634,305.7451,58,70,41
305.77634,306.4951,58,70,41
306.52634,307.2451,58,70,41
307.27634,307.9951,58,70,41
308.02634,308.7451,58,70,41
308.77634,309.4951,58,70,41
309.52634,310.2451,53,70,41
310.27634,310.9951,53,70,41
311.02634,311.7451,50,70,41
311.77634,314.7451,58,70,41
311.77634,317.7451,51,70,41
314.77634,317.7451,60,70,41
317.77634,318.4951,51,70,41
317.77634,318.4951,58,70,41
319.27634,320.07495,62,70,41
319.27634,320.07495,56,70,41
321.04718,322.6791,55,70,41
324.3805,325.47424,50,70,41
325.5055,325.8805,51,70,41
325.8805,326.59924,53,70,41
326.6305,327.34924,55,70,41
327.3805,329.59924,56,70,41
329.6305,330.34924,55,70,41
330.3805,331.09924,56,70,41
331.1305,331.84924,53,70,41
331.8805,332.6791,55,70,41
332.71384,333.61227,57,70,41
333.65134,335.3076,58,70,41
336.83884,337.9326,62,70,41
337.96384,338.33884,63,70,41
338.33884,339.0576,65,70,41
339.08884,339.8076,67,70,41
339.83884,342.0576,68,70,41
342.08884,342.8076,68,70,41
342.83884,344.3076,67,70,41
344.33884,345.9099,63,70,41
345.9467,347.67462,65,70,41
352.72275,352.97275,51,70,41
353.09775,353.34775,70,70,41
353.84775,354.09775,67,70,41
354.59775,354.84775,58,70,41
354.97275,355.22275,55,70,41
355.34775,355.59775,51,70,41
355.72275,357.1915,50,70,41
358.72275,358.97275,50,70,41
359.09775,359.34775,68,70,41
359.84775,360.09775,65,70,41
360.59775,360.84775,65,70,41
360.97275,361.22275,62,70,41
361.34775,361.59775,56,70,41
361.72275,363.1915,55,70,41
364.72275,364.97275,56,70,41
365.09775,365.34775,72,70,41
365.84775,366.09775,68,70,41
366.59775,366.84775,65,70,41
366.97275,367.22275,60,70,41
367.34775,367.59775,56,70,41
367.72275,368.4415,58,70,41
368.47275,369.1915,63,70,41
369.97275,370.75137,62,70,41
370.79044,372.4224,63,70,41
374.12378,375.24878,68,70,41
375.24878,375.62378,67,70,41
375.62378,376.34253,65,70,41
376.37378,377.09253,63,70,41
377.12378,379.34253,62,70,41
379.37378,380.09253,62,70,41
380.12378,380.87378,63,70,41
380.87378,381.62378,62,70,41
381.62378,382.4224,63,70,41
382.45712,383.39462,63,70,41
383.39462,385.02655,62,70,41
386.72794,387.85294,72,70,41
387.85294,388.22794,70,81,41
388.22794,388.9467,68,85,41
388.97794,389.6967,67,93,41
389.72794,391.9467,65,100,41
391.97794,392.6967,65,115,41
392.72794,393.4467,65,90,41
393.47794,394.1967,65,115,41
394.22794,394.9467,65,90,41
394.97794,395.6967,65,115,41
395.72794,397.1967,65,90,41
398.72794,400.1967,63,70,41
401.72794,403.1967,56,120,41
404.72794,405.4467,58,70,41
406.22794,406.9467,62,70,41
407.72794,408.4467,58,70,41
409.97794,410.6967,55,50,41
410.72794,412.1967,67,50,41
412.22794,412.97794,63,50,41
412.97794,413.72794,59,50,41
413.72794,415.1967,60,50,41
415.22794,415.97794,55,50,41
415.97794,416.72794,59,50,41
416.72794,417.47794,60,50,41
417.47794,418.22794,62,50,41
418.22794,418.97794,63,50,41
418.97794,419.72794,66,50,41
419.72794,421.1967,67,50,41
422.72794,424.9467,48,50,41
422.72794,424.9467,60,50,41
424.97794,425.6967,48,80,41
424.97794,425.6967,62,80,41
425.72794,427.9467,48,50,41
425.72794,427.9467,60,50,41
427.97794,428.6967,48,80,41
427.97794,428.6967,62,80,41
428.72794,430.9467,48,50,41
428.72794,430.9467,60,50,41
430.97794,431.6967,48,80,41
430.97794,431.6967,62,80,41
431.72794,432.47794,60,70,41
432.47794,433.22794,62,70,41
433.22794,433.97794,63,70,41
433.97794,434.72794,64,70,41
434.72794,435.47794,65,70,41
435.47794,436.1967,60,75,41
436.22794,436.9467,60,80,41
436.97794,437.72794,60,85,41
437.72794,438.47794,65,90,41
438.47794,439.1967,53,95,41
439.22794,440.01743,53,100,41
440.01743,440.88828,58,83,41
440.92734,442.76328,58,70,41
444.67734,446.51328,56,120,41
448.42734,449.1461,58,50,41
449.92734,450.6461,62,50,41
451.42734,452.1461,58,50,41
453.67734,453.86484,57,50,41
453.86484,454.05234,58,50,41
454.05234,454.23984,60,50,41
454.23984,454.42734,58,50,41
454.42734,455.8961,50,50,41
460.42734,461.1461,65,50,41
461.92734,462.6461,65,50,41
463.56277,464.3614,63,50,41
465.22943,465.43777,57,50,41
465.43777,465.6461,58,50,41
465.6461,465.85443,57,50,41
465.85443,466.06277,58,50,41
466.06277,466.2711,57,50,41
466.2711,466.47943,58,50,41
466.47943,466.68777,60,50,41
466.68777,466.8961,58,50,41
466.8961,468.44214,50,50,41
473.054,473.77274,53,50,41
474.57373,475.37234,53,50,41
476.37106,477.47684,51,50,41
486.17877,487.11627,58,50,41
487.11627,489.21448,51,50,41
0.0,1.5520833,51,70,42
3.0833333,4.552083,51,70,42
6.083333,7.552083,50,70,42
9.083333,10.552083,56,70,42
12.354166,13.90625,55,70,42
15.4375,16.90625,50,70,42
18.4375,19.15625,51,70,42
19.9375,20.73611,44,70,42
21.708332,22.60677,46,70,42
25.316963,26.973213,39,70,42
28.504463,29.254463,51,70,42
29.254463,29.973213,55,70,42
30.004463,30.723213,55,70,42
30.754463,31.473213,55,70,42
31.504463,32.254463,55,70,42
32.254463,32.973213,53,70,42
33.004463,33.754463,53,70,42
33.754463,34.473213,50,70,42
34.504463,35.254463,50,70,42
35.254463,35.973213,46,70,42
36.004463,36.754463,46,70,42
36.754463,37.473213,44,70,42
37.504463,40.473213,43,70,42
40.504463,43.473213,44,70,42
43.504463,44.303074,46,70,42
45.17113,46.06957,46,70,42
47.180058,48.812004,51,70,42
50.513393,51.607143,46,70,42
51.638393,52.013393,46,70,42
52.013393,52.732143,46,70,42
52.763393,53.482143,46,70,42
53.513393,55.732143,46,70,42
55.763393,56.482143,46,70,42
56.513393,57.232143,46,70,42
57.263393,57.982143,46,70,42
58.013393,58.812004,46,70,42
58.846725,59.745163,46,70,42
59.784225,61.440475,46,70,42
62.971725,64.065475,58,70,42
64.096725,64.471725,60,70,42
64.471725,65.190475,62,70,42
65.221725,65.940475,63,70,42
65.971725,68.190475,65,70,42
68.221725,68.940475,65,70,42
68.971725,70.440475,63,70,42
70.471725,71.940475,60,70,42
71.971725,73.440475,58,70,42
80.545586,80.701836,46,70,42
80.733086,81.264336,43,70,42
81.295586,81.451836,39,70,42
81.483086,82.951836,38,70,42
86.545586,86.701836,44,70,42
86.733086,87.264336,46,70,42
87.295586,87.451836,41,70,42
87.483086,88.951836,43,70,42
92.545586,92.701836,41,70,42
92.733086,93.264336,44,70,42
93.295586,93.451836,41,70,42
93.483086,94.201836,46,70,42
94.983086,95.78169,46,70,42
96.86209,98.49403,51,70,42
99.36209,100.1607,46,50,42
100.19543,101.66418,58,50,42
101.69543,102.41418,54,50,42
102.44543,103.16418,50,50,42
103.19543,104.66418,51,50,42
104.69543,105.41418,46,50,42
105.44543,106.16418,50,50,42
106.19543,106.91418,51,50,42
106.94543,107.66418,53,50,42
107.69543,108.41418,54,50,42
108.44543,109.16418,57,50,42
109.19543,109.91418,58,50,42
109.94543,110.66418,60,50,42
110.69543,111.49403,61,50,42
111.528755,112.42719,64,50,42
112.466255,114.01231,65,50,42
114.045204,114.80178,61,63,42
114.83468,115.591255,57,70,42
115.62415,116.38073,58,77,42
116.41363,117.170204,53,84,42
117.203094,117.95968,54,90,42
117.99257,118.74915,51,70,42
118.78204,119.53862,53,50,42
120.36099,121.11757,41,50,42
121.93994,123.48599,46,50,42
134.1373,134.85605,46,50,42
134.8873,135.60605,48,50,42
135.6373,136.35605,49,50,42
136.3873,137.10605,52,50,42
137.1373,138.60605,53,50,42
138.6373,139.35605,49,55,42
139.3873,140.10605,45,57,42
140.1373,140.85605,46,60,42
140.8873,141.60605,41,63,42
141.6373,142.35605,42,65,42
142.3873,143.10605,39,68,42
143.1373,143.85605,41,70,42
144.6373,145.43591,41,70,42
146.51631,148.35225,46,70,42
149.22464,150.02325,49,70,42
150.05798,151.56839,61,111,42
151.59964,152.34964,58,70,42
152.34964,153.09964,53,70,42
153.09964,153.84964,54,100,42
153.84964,154.19339,49,70,42
154.59964,155.34964,54,100,42
155.34964,155.69339,49,70,42
156.09964,157.56839,58,110,42
157.59964,158.34964,54,70,42
158.34964,159.09964,50,70,42
159.09964,159.84964,51,100,42
159.84964,160.19339,46,70,42
160.59964,161.34964,51,83,42
161.34964,162.06839,46,97,42
162.09964,162.84964,47,110,42
162.84964,163.59964,43,80,42
163.59964,164.34964,44,75,42
164.34964,165.09964,39,70,42
165.09964,165.84964,40,65,42
165.84964,166.59964,38,60,42
166.59964,167.34964,39,55,42
167.34964,168.09964,42,50,42
168.09964,168.84964,44,50,42
169.59964,170.34964,46,50,42
171.09964,172.56839,39,50,42
173.34964,174.09964,49,50,42
174.09964,175.56839,61,110,42
175.59964,176.34964,58,70,42
176.34964,177.09964,53,70,42
177.09964,177.81839,54,100,42
177.84964,178.19339,49,70,42
178.59964,179.39825,54,100,42
179.43298,179.86267,49,70,42
180.47865,181.9474,58,110,42
181.97865,182.6974,54,70,42
182.72865,183.4474,50,70,42
183.47865,184.1974,50,100,42
184.22865,184.5724,46,70,42
184.97865,185.6974,51,100,42
185.72865,186.4474,46,70,42
186.47865,187.22865,47,100,42
187.22865,187.97865,43,70,42
187.97865,188.72865,44,70,42
188.72865,189.47865,39,70,42
189.47865,190.22865,40,70,42
190.22865,190.97865,38,70,42
190.97865,191.72865,39,70,42
191.72865,192.47865,42,60,42
192.47865,193.1974,44,50,42
193.97865,194.6974,46,50,42
195.47865,196.9474,47,50,42
207.47865,208.1974,45,50,42
208.97865,209.6974,45,50,42
210.47865,211.9474,46,50,42
213.47865,214.9474,58,50,42
216.47865,217.9474,46,50,42
219.47865,220.9474,58,50,42
222.47865,223.1974,58,50,42
223.97865,224.6974,70,50,42
225.47865,226.27727,70,50,42
227.14532,228.04376,70,50,42
229.43698,229.81892,58,50,42
230.22865,230.5724,58,50,42
230.97865,231.3224,58,50,42
231.72865,232.0724,58,50,42
232.47865,232.8224,46,50,42
233.22865,233.5724,46,50,42
233.97865,234.3224,46,50,42
234.72865,235.0724,46,50,42
235.85365,236.5724,46,50,42
237.35365,238.0724,46,50,42
238.85365,239.5724,46,50,42
239.60365,240.3224,46,50,42
240.35365,241.0724,46,50,42
241.85365,242.5724,46,50,42
243.35365,244.0724,46,50,42
244.85365,245.5724,46,50,42
245.60365,246.40227,46,50,42
246.43698,247.33542,46,50,42
248.20782,249.00642,46,50,42
251.54115,252.33977,58,50,42
254.87448,255.6731,58,50,42
257.37448,258.1731,58,50,42
259.04114,259.83975,58,50,42
260.70782,261.50644,46,50,42
271.66983,272.46844,58,79,42
272.50317,273.30176,58,85,42
273.3365,274.33408,58,90,42
274.38217,275.98328,51,70,42
285.84784,286.0822,55,70,42
286.0822,286.3166,56,70,42
286.3166,286.55096,58,70,42
286.55096,286.78534,56,70,42
286.78534,288.33743,55,70,42
289.86868,291.33743,50,70,42
292.86868,293.58743,51,70,42
294.36868,295.1673,44,70,42
296.11194,297.01038,46,70,42
299.693,301.2451,39,70,42
302.77634,303.52634,51,70,42
303.52634,304.2451,55,70,42
304.27634,304.9951,55,70,42
305.02634,305.7451,55,70,42
305.77634,306.52634,56,70,42
306.52634,307.2451,53,70,42
307.27634,308.02634,53,70,42
308.02634,308.7451,50,70,42
308.77634,309.52634,50,70,42
309.52634,310.2451,46,70,42
310.27634,311.02634,46,70,42
311.02634,311.7451,44,70,42
311.77634,314.7451,43,70,42
314.77634,317.7451,44,70,42
317.77634,318.4951,46,70,42
319.27634,320.07495,46,70,42
321.04718,322.6791,51,70,42
324.3805,325.47424,46,70,42
325.5055,325.8805,46,70,42
325.8805,326.59924,46,70,42
326.6305,327.34924,46,70,42
327.3805,329.59924,46,70,42
329.6305,330.34924,46,70,42
330.3805,331.09924,46,70,42
331.1305,331.84924,46,70,42
331.8805,332.6791,46,70,42
332.71384,333.61227,46,70,42
333.65134,335.3076,46,70,42
336.83884,337.9326,58,70,42
337.96384,338.33884,60,70,42
338.33884,339.0576,62,70,42
339.08884,339.8076,63,70,42
339.83884,342.0576,65,70,42
342.08884,342.8076,65,70,42
342.83884,344.3076,63,70,42
344.33884,345.9099,60,70,42
345.9467,347.67462,58,70,42
349.6394,349.91718,39,70,42
350.05606,350.33386,58,70,42
350.84775,351.09775,55,70,42
351.59775,351.84775,51,70,42
351.97275,352.22275,46,70,42
352.34775,352.59775,43,70,42
352.72275,354.1915,39,70,42
355.72275,355.97275,38,70,42
356.09775,356.34775,58,70,42
356.84775,357.09775,53,70,42
357.59775,357.84775,53,70,42
357.97275,358.22275,50,70,42
358.34775,358.59775,46,70,42
358.72275,360.1915,44,70,42
361.72275,361.97275,43,70,42
362.09775,362.34775,58,70,42
362.84775,363.09775,55,70,42
363.59775,363.84775,51,70,42
363.97275,364.22275,46,70,42
364.34775,364.59775,43,70,42
364.72275,366.1915,44,70,42
366.59775,366.84775,53,70,42
366.97275,367.22275,48,70,42
367.34775,367.59775,44,70,42
367.72275,368.4415,46,70,42
369.22275,369.9415,46,70,42
370.79044,372.4224,51,70,42
374.12378,375.21753,58,70,42
375.24878,375.59253,58,70,42
375.62378,376.34253,58,70,42
376.37378,377.09253,58,70,42
377.12378,379.34253,58,70,42
379.37378,380.09253,59,70,42
380.12378,380.84253,60,70,42
380.87378,381.59253,59,70,42
381.62378,382.4224,60,70,42
382.45712,383.35556,56,70,42
383.39462,385.02655,58,70,42
386.72794,387.8217,58,70,42
387.85294,388.1967,58,81,42
388.22794,388.9467,58,85,42
388.97794,389.6967,58,93,42
389.72794,391.9467,58,100,42
391.97794,392.6967,59,115,42
392.72794,393.47794,58,90,42
393.47794,394.22794,59,115,42
394.22794,394.97794,58,90,42
394.97794,395.72794,59,115,42
395.72794,397.1967,58,90,42
398.72794,400.1967,60,70,42
401.72794,403.1967,44,120,42
404.72794,405.4467,46,70,42
406.22794,406.9467,46,70,42
407.72794,408.4467,39,70,42
409.97794,410.6967,43,50,42
410.72794,412.1967,55,50,42
412.22794,412.97794,51,50,42
412.97794,413.72794,47,50,42
413.72794,415.1967,48,50,42
415.22794,415.97794,43,50,42
415.97794,416.72794,47,50,42
416.72794,417.47794,48,50,42
417.47794,418.22794,50,50,42
418.22794,418.97794,51,50,42
418.97794,419.72794,54,50,42
419.72794,421.1967,55,50,42
422.72794,424.9467,36,50,42
422.72794,424.9467,48,50,42
424.97794,425.6967,36,80,42
424.97794,425.6967,48,80,42
425.72794,427.9467,36,50,42
425.72794,427.9467,48,50,42
427.97794,428.6967,36,80,42
427.97794,428.6967,48,80,42
428.72794,430.9467,36,50,42
428.72794,430.9467,48,50,42
430.97794,431.6967,48,80,42
430.97794,431.6967,36,80,42
431.72794,432.4467,36,70,42
431.72794,432.4467,48,70,42
432.47794,433.9467,60,70,42
433.97794,434.6967,58,70,42
434.72794,435.47794,56,70,42
435.47794,436.22794,55,75,42
436.22794,436.97794,53,80,42
436.97794,437.72794,51,85,42
437.72794,438.47794,50,90,42
438.47794,439.22794,48,95,42
439.22794,440.01743,46,100,42
440.01743,440.92734,44,83,42
440.92734,442.76328,43,70,42
444.67734,446.51328,44,120,42
448.42734,449.1461,46,50,42
449.92734,450.6461,46,50,42
451.42734,452.1461,39,50,42
454.42734,457.3961,56,50,42
454.42734,460.3961,46,50,42
457.42734,460.3961,55,50,42
460.42734,461.1461,46,50,42
461.92734,462.6461,46,50,42
463.56277,464.3614,51,50,42
466.8961,470.0211,56,50,42
466.8961,473.02274,46,50,42
470.054,473.02274,55,50,42
473.054,473.77274,46,50,42
474.57373,475.37234,46,50,42
476.37106,477.47684,51,50,42
489.25912,491.35733,65,70,45
489.25912,491.35733,58,70,45
491.40198,493.50018,55,70,45
491.40198,493.50018,63,70,45
489.25912,491.35733,65,70,45
489.25912,491.35733,74,70,45
491.40198,493.50018,63,70,45
491.40198,493.50018,75,70,45
489.25912,491.35733,56,70,45
491.40198,493.50018,55,70,45
489.25912,491.35733,46,70,45
491.40198,493.50018,51,70,45
