start_time,end_time,note_value,velocity,instrument_program_number
10.921376,11.254709,73,60,40
11.254709,11.384918,74,60,40
12.254708,12.588041,76,60,40
12.588041,12.71825,78,60,40
13.58804,13.921373,76,60,40
13.921373,14.051671,74,60,40
14.593499,14.761373,73,60,40
15.28444,15.458154,71,60,40
16.343264,16.676596,73,60,40
16.676596,16.806805,74,60,40
17.676596,18.009928,76,60,40
18.009928,18.140137,78,60,40
19.009928,19.34326,81,60,40
19.34326,19.473629,80,60,40
20.019854,20.190907,75,60,40
20.731644,20.913935,76,60,40
22.509392,22.842237,75,60,40
22.842237,23.107172,76,60,40
23.838427,24.169441,78,60,40
24.169441,24.432907,76,60,40
25.160166,25.489372,77,59,40
25.489372,25.751375,78,62,40
26.474691,26.802107,79,69,40
26.802107,27.062666,78,71,40
27.781687,28.107773,80,78,40
28.107773,28.367624,81,81,40
29.086033,29.412119,83,88,40
29.412119,29.67197,81,90,40
30.39318,30.731422,76,97,40
31.083141,31.453466,76,60,40
31.838081,32.222694,69,60,40
32.60731,32.940643,76,60,40
32.940643,33.20627,74,60,40
33.939182,34.271217,73,60,40
34.271217,34.535713,71,60,40
35.26456,35.594883,78,60,40
35.594883,35.8578,76,60,40
36.582684,36.91131,74,60,40
36.91131,37.17267,73,60,40
37.893635,38.220158,83,60,40
38.220158,38.480007,81,60,40
39.198418,39.524506,79,60,40
39.524506,39.784355,78,60,40
40.50276,40.82885,81,60,40
40.82885,41.407665,73,79,40
41.49598,42.03015,74,60,40
42.03015,42.17953,71,60,40
42.21802,42.60264,69,60,40
48.73439,49.0829,59,60,40
49.0829,49.749565,71,60,40
49.749565,49.832977,71,60,40
49.832977,49.916733,69,60,40
49.916733,50.00091,71,60,40
50.00091,50.085594,69,60,40
50.085594,50.17086,71,60,40
50.17086,50.2568,69,60,40
50.2568,50.343506,68,60,40
50.343506,50.411736,69,60,40
50.43087,50.930866,68,60,40
50.930866,51.014202,71,60,40
51.014202,51.079304,68,60,40
51.097534,51.261597,64,60,40
51.430866,51.59493,64,60,40
51.7642,52.2642,66,60,40
52.2642,52.347534,69,60,40
52.347534,52.412636,66,60,40
52.430866,52.59493,63,60,40
52.7642,52.92826,63,60,40
53.09753,53.17826,64,60,40
53.2642,53.34493,68,60,40
53.430866,53.511593,71,60,40
53.59753,53.67826,69,60,40
53.7642,53.844997,68,60,40
53.931362,54.01291,71,60,40
54.100224,54.182823,68,60,40
54.271435,54.355423,64,60,40
54.4455,54.52623,69,60,40
54.612167,54.692898,61,60,40
54.77883,54.859562,62,60,40
54.9455,55.02623,64,60,40
55.112167,55.192894,66,60,40
55.27883,55.359562,64,60,40
55.4455,55.52623,62,60,40
55.612167,55.692894,61,60,40
55.77883,55.85957,62,60,40
55.94581,56.02712,59,60,40
56.114037,56.196056,61,60,40
56.28381,56.366684,62,60,40
56.455425,56.53931,64,60,40
56.62921,56.714275,62,60,40
56.80551,56.89193,61,60,40
56.9847,57.072666,59,60,40
57.167213,57.50055,61,60,40
58.169907,58.515182,64,60,40
58.515182,59.18185,76,59,40
59.18185,59.26526,76,69,40
59.26526,59.349014,74,70,40
59.349014,59.433193,76,71,40
59.433193,59.517876,74,72,40
59.517876,59.603146,76,74,40
59.603146,59.689087,74,75,40
59.689087,59.775787,73,76,40
59.775787,59.84402,74,77,40
59.86315,60.196484,73,78,40
60.196484,60.52982,71,83,40
60.52982,60.86315,69,88,40
60.86315,61.029816,71,93,40
61.029816,61.16263,73,95,40
61.196484,61.529816,66,97,40
61.529816,61.696484,71,97,40
61.696484,61.863148,73,97,40
61.863148,62.029816,75,97,40
62.029816,62.196484,71,97,40
62.196484,62.363148,73,97,40
62.363148,62.49596,75,97,40
62.529816,62.696484,76,60,40
62.696484,62.863148,78,60,40
62.863148,63.029816,80,60,40
63.029816,63.16263,78,60,40
63.19648,63.363148,81,60,40
63.363148,63.49596,80,60,40
63.529816,63.610542,78,60,40
63.69648,63.77721,76,60,40
63.863148,64.029816,75,97,40
64.029816,64.19648,73,97,40
64.19648,64.363144,71,97,40
64.363144,64.529816,73,97,40
64.529816,64.69648,75,97,40
64.69648,64.863144,71,97,40
64.863144,65.029816,73,97,40
65.029816,65.16263,75,97,40
65.19648,65.363144,76,60,40
65.363144,65.529816,78,60,40
65.529816,65.69648,80,60,40
65.69648,65.82929,78,60,40
65.863144,66.029816,81,60,40
66.029816,66.16263,80,60,40
66.19648,66.27721,78,60,40
66.363144,66.44387,76,60,40
66.52981,66.61055,75,97,40
66.696785,66.7781,59,97,40
66.86502,66.94704,63,97,40
67.03479,67.11767,66,97,40
67.206406,67.29029,71,97,40
67.38019,67.465256,71,97,40
67.55649,67.64291,75,97,40
67.73568,67.82365,78,97,40
67.9182,68.28857,83,97,40
74.451195,74.53452,59,60,40
74.53452,74.61786,58,60,40
74.61786,74.701195,59,60,40
74.701195,74.7663,58,60,40
74.78452,74.948586,59,60,40
75.11786,75.28192,59,60,40
75.78452,75.86786,59,60,40
75.86786,75.95119,58,60,40
75.95119,76.03452,59,60,40
76.03452,76.099625,58,60,40
76.11786,76.28192,59,60,40
76.45119,76.61525,59,60,40
77.11786,77.36785,59,60,40
77.36785,77.45119,61,60,40
77.45119,77.7017,63,60,40
77.7017,77.78556,64,60,40
77.78556,78.03849,66,60,40
78.03849,78.123314,68,60,40
78.123314,78.37962,69,60,40
78.37962,78.465744,66,60,40
78.465744,78.72646,71,60,40
78.72646,78.79504,69,60,40
78.814255,79.1672,68,60,40
79.1672,79.44845,71,60,40
80.85347,81.10347,69,79,40
81.10347,81.1868,66,60,40
81.1868,81.4368,71,60,40
81.4368,81.50191,69,60,40
81.520134,81.85347,68,60,40
81.85347,82.119095,71,60,40
83.52559,83.781906,69,79,40
83.781906,83.86802,66,60,40
83.86802,84.128746,71,60,40
84.128746,84.19732,69,60,40
84.21653,84.46653,68,60,40
84.46653,84.549866,64,60,40
84.549866,84.799866,71,79,40
84.799866,84.86497,69,60,40
84.8832,85.1332,68,60,40
85.1332,85.21653,64,60,40
85.21653,85.46653,71,79,40
85.46653,85.53164,69,60,40
85.549866,85.799866,68,60,40
85.799866,85.8832,64,60,40
85.8832,86.1332,76,79,40
86.1332,86.21653,75,60,40
86.21653,86.46653,73,60,40
86.46653,86.549866,71,60,40
86.549866,86.799866,69,60,40
86.799866,86.86497,68,60,40
86.883194,87.047424,66,60,40
87.21757,87.3833,66,60,40
87.89775,88.068436,63,60,40
88.24626,88.49626,80,96,40
88.49626,88.5796,78,90,40
88.5796,88.8296,76,87,40
88.8296,88.91293,75,81,40
88.91293,89.16293,73,78,40
89.16293,89.24626,71,72,40
89.24626,89.49626,69,69,40
89.49626,89.56136,68,63,40
89.5796,89.74395,69,60,40
89.9148,90.0819,81,60,40
90.60628,90.782646,78,60,40
90.96798,91.33835,76,60,40
91.70872,91.87278,68,60,40
92.20872,92.289444,66,60,40
92.37538,92.539444,69,60,40
92.87538,92.956116,68,60,40
93.04205,93.206116,73,60,40
93.54205,93.62278,71,60,40
93.70872,94.73232,75,79,40
94.73232,95.01694,76,60,40
95.425,95.590744,69,60,40
96.105194,96.27587,66,60,40
96.80664,96.980354,68,60,40
97.159584,97.24031,71,60,40
97.32625,97.40698,71,63,40
97.659584,97.74031,71,67,40
97.82625,97.90698,64,69,40
97.82625,97.90698,76,69,40
97.99292,98.07365,64,71,40
97.99292,98.07365,76,71,40
98.32625,98.406975,64,75,40
98.32625,98.406975,76,75,40
98.49291,98.57365,64,77,40
98.49291,98.57365,76,77,40
98.659584,98.74031,64,80,40
98.659584,98.74031,76,80,40
98.99291,99.07365,64,84,40
98.99291,99.07365,76,84,40
99.159584,99.49479,69,86,40
99.49479,100.186264,72,105,40
100.186264,100.47344,71,86,40
100.884224,101.05307,78,60,40
101.59044,101.77449,75,60,40
101.97014,102.303474,76,60,40
103.303474,103.97014,71,60,40
103.97014,104.1342,71,60,40
104.30347,104.43368,71,60,40
104.6368,105.30347,76,60,40
105.30347,105.56909,71,60,40
105.97014,106.301476,71,60,40
106.64006,106.80639,71,60,40
106.97879,107.112045,71,60,40
107.32107,107.654396,68,60,40
108.654396,109.32106,83,60,40
109.32106,109.48512,83,60,40
109.654396,109.78461,83,60,40
109.98773,110.654396,88,60,40
110.654396,110.92002,83,60,40
111.32106,111.99319,83,60,40
111.99319,112.161064,83,60,40
112.33562,112.47098,83,60,40
112.68413,113.01863,80,60,40
113.314705,113.35737,82,59,40
113.35737,113.63031,83,58,40
114.04746,114.39912,80,56,40
114.71111,114.755936,70,54,40
114.755936,115.043816,71,54,40
115.48419,115.86004,68,52,40
116.254616,116.458534,59,50,40
116.254616,116.458534,68,50,40
116.677605,116.900215,59,50,40
116.677605,116.900215,68,50,40
117.14283,117.64283,59,50,40
117.14283,117.64283,68,50,40
129.56421,129.89754,73,60,40
129.89754,130.02776,74,60,40
130.89754,131.23087,76,60,40
131.23087,131.36108,78,60,40
132.23087,132.56421,76,60,40
132.56421,132.6945,74,60,40
133.23633,133.4042,73,60,40
133.92728,134.10098,71,60,40
134.9861,135.31943,73,60,40
135.31943,135.44963,74,60,40
136.31943,136.65276,76,60,40
136.65276,136.78297,78,60,40
137.65276,137.98608,81,60,40
137.98608,138.11646,80,60,40
138.66269,138.83374,75,60,40
139.37448,139.55676,76,60,40
141.15222,141.48506,75,60,40
141.48506,141.75,76,60,40
142.48126,142.81227,78,60,40
142.81227,143.07574,76,60,40
143.803,144.1322,77,59,40
144.1322,144.39421,78,62,40
145.11752,145.44493,79,69,40
145.44493,145.70549,78,71,40
146.42451,146.75061,80,78,40
146.75061,147.01045,81,81,40
147.72887,148.05495,83,88,40
148.05495,148.3148,81,90,40
149.03601,149.37425,76,97,40
149.72597,150.0963,76,60,40
150.48091,150.86552,69,60,40
151.25014,151.58348,76,60,40
151.58348,151.8491,74,60,40
152.58202,152.91405,73,60,40
152.91405,153.17854,71,60,40
153.9074,154.23772,78,60,40
154.23772,154.50063,76,60,40
155.22551,155.55414,74,60,40
155.55414,155.8155,73,60,40
156.53647,156.86299,83,60,40
156.86299,157.12283,81,60,40
157.84125,158.16733,79,60,40
158.16733,158.42719,78,60,40
159.1456,159.47168,81,60,40
159.47168,160.05049,73,79,40
160.13881,160.67299,74,60,40
160.67299,160.82236,71,60,40
160.86086,161.24547,69,60,40
167.37723,167.72574,59,60,40
167.72574,168.3924,71,60,40
168.3924,168.4758,71,60,40
168.4758,168.55956,69,60,40
168.55956,168.64374,71,60,40
168.64374,168.72842,69,60,40
168.72842,168.81369,71,60,40
168.81369,168.89963,69,60,40
168.89963,168.98634,68,60,40
168.98634,169.05457,69,60,40
169.0737,169.5737,68,60,40
169.5737,169.65703,71,60,40
169.65703,169.72214,68,60,40
169.74037,169.90443,64,60,40
170.0737,170.23776,64,60,40
170.40703,170.90703,66,60,40
170.90703,170.99036,69,60,40
170.99036,171.05547,66,60,40
171.0737,171.23776,63,60,40
171.40703,171.57109,63,60,40
171.74036,171.82109,64,60,40
171.90703,171.98776,68,60,40
172.0737,172.15442,71,60,40
172.24036,172.32109,69,60,40
172.40703,172.48782,68,60,40
172.57419,172.65575,71,60,40
172.74306,172.82565,68,60,40
172.91426,172.99826,64,60,40
173.08833,173.16907,69,60,40
173.255,173.33572,61,60,40
173.42166,173.5024,62,60,40
173.58833,173.66907,64,60,40
173.75499,173.83572,66,60,40
173.92166,174.0024,64,60,40
174.08833,174.16905,62,60,40
174.25499,174.33572,61,60,40
174.42166,174.5024,62,60,40
174.58864,174.66995,59,60,40
174.75687,174.83888,61,60,40
174.92664,175.00952,62,60,40
175.09825,175.18214,64,60,40
175.27205,175.3571,62,60,40
175.44835,175.53476,61,60,40
175.62753,175.7155,59,60,40
175.81004,176.14337,61,60,40
176.81274,177.15802,64,60,40
177.15802,177.82468,76,59,40
177.82468,177.9081,76,69,40
177.9081,177.99185,74,70,40
177.99185,178.07602,76,71,40
178.07602,178.1607,74,72,40
178.1607,178.24597,76,74,40
178.24597,178.33191,74,75,40
178.33191,178.41862,73,76,40
178.41862,178.48685,74,77,40
178.50598,178.83931,73,78,40
178.83931,179.17265,71,83,40
179.17265,179.50598,69,88,40
179.50598,179.67265,71,93,40
179.67265,179.80547,73,95,40
179.83931,180.17265,66,97,40
180.17265,180.33931,71,97,40
180.33931,180.50598,73,97,40
180.50598,180.67265,75,97,40
180.67265,180.83931,71,97,40
180.83931,181.00598,73,97,40
181.00598,181.1388,75,97,40
181.17265,181.33931,76,60,40
181.33931,181.50598,78,60,40
181.50598,181.67265,80,60,40
181.67265,181.80547,78,60,40
181.83931,182.00598,81,60,40
182.00598,182.1388,80,60,40
182.17264,182.25337,78,60,40
182.33931,182.42004,76,60,40
182.50598,182.67264,75,97,40
182.67264,182.83931,73,97,40
182.83931,183.00598,71,97,40
183.00598,183.17264,73,97,40
183.17264,183.33931,75,97,40
183.33931,183.50598,71,97,40
183.50598,183.67264,73,97,40
183.67264,183.80545,75,97,40
183.83931,184.00598,76,60,40
184.00598,184.17264,78,60,40
184.17264,184.33931,80,60,40
184.33931,184.47212,78,60,40
184.50598,184.67264,81,60,40
184.67264,184.80545,80,60,40
184.83931,184.92004,78,60,40
185.00598,185.0867,76,60,40
185.17264,185.25337,75,97,40
185.33961,185.42093,59,97,40
185.50784,185.58987,63,97,40
185.67761,185.7605,66,97,40
185.84923,185.93312,71,97,40
186.02303,186.10808,71,97,40
186.19933,186.28574,75,97,40
186.37851,186.46648,78,97,40
186.56102,186.9314,83,97,40
193.09402,193.17735,59,60,40
193.17735,193.26068,58,60,40
193.26068,193.34402,59,60,40
193.34402,193.40912,58,60,40
193.42735,193.59142,59,60,40
193.76068,193.92474,59,60,40
194.42735,194.51068,59,60,40
194.51068,194.59402,58,60,40
194.59402,194.67735,59,60,40
194.67735,194.74246,58,60,40
194.76068,194.92474,59,60,40
195.09402,195.25809,59,60,40
195.76068,196.01068,59,60,40
196.01068,196.09402,61,60,40
196.09402,196.34453,63,60,40
196.34453,196.42839,64,60,40
196.42839,196.68132,66,60,40
196.68132,196.76614,68,60,40
196.76614,197.02246,69,60,40
197.02246,197.10858,66,60,40
197.10858,197.3693,71,60,40
197.3693,197.43787,69,60,40
197.45709,197.81003,68,60,40
197.81003,198.09128,71,60,40
199.49629,199.74629,69,79,40
199.74629,199.82964,66,60,40
199.82964,200.07964,71,60,40
200.07964,200.14473,69,60,40
200.16296,200.49629,68,60,40
200.49629,200.76192,71,60,40
202.16843,202.42473,69,79,40
202.42473,202.51085,66,60,40
202.51085,202.77158,71,60,40
202.77158,202.84015,69,60,40
202.85936,203.10936,68,60,40
203.10936,203.1927,64,60,40
203.1927,203.4427,71,79,40
203.4427,203.5078,69,60,40
203.52603,203.77603,68,60,40
203.77603,203.85936,64,60,40
203.85936,204.10936,71,79,40
204.10936,204.17447,69,60,40
204.1927,204.4427,68,60,40
204.4427,204.52603,64,60,40
204.52603,204.77603,76,79,40
204.77603,204.85936,75,60,40
204.85936,205.10936,73,60,40
205.10936,205.19269,71,60,40
205.19269,205.44269,69,60,40
205.44269,205.5078,68,60,40
205.52603,205.69025,66,60,40
205.8604,206.02614,66,60,40
206.54059,206.71126,63,60,40
206.8891,207.1391,80,96,40
207.1391,207.22243,78,90,40
207.22243,207.47243,76,87,40
207.47243,207.55576,75,81,40
207.55576,207.80576,73,78,40
207.80576,207.8891,71,72,40
207.8891,208.1391,69,69,40
208.1391,208.2042,68,63,40
208.22243,208.38678,69,60,40
208.55763,208.72473,81,60,40
209.2491,209.42548,78,60,40
209.61081,209.98119,76,60,40
210.35155,210.51561,68,60,40
210.85155,210.93228,66,60,40
211.01822,211.18228,69,60,40
211.51822,211.59894,68,60,40
211.68488,211.84894,73,60,40
212.18488,212.26561,71,60,40
212.35155,213.37515,75,79,40
213.37515,213.65977,76,60,40
214.06784,214.23357,69,60,40
214.74802,214.9187,66,60,40
215.44948,215.62318,68,60,40
215.80241,215.88315,71,60,40
215.96909,216.0498,71,63,40
216.30241,216.38315,71,67,40
216.46909,216.5498,64,69,40
216.46909,216.5498,76,69,40
216.63574,216.71648,64,71,40
216.63574,216.71648,76,71,40
216.96909,217.0498,64,75,40
216.96909,217.0498,76,75,40
217.13574,217.21648,64,77,40
217.13574,217.21648,76,77,40
217.30241,217.38315,64,80,40
217.30241,217.38315,76,80,40
217.63574,217.71648,64,84,40
217.63574,217.71648,76,84,40
217.80241,218.13762,69,86,40
218.13762,218.82909,72,105,40
218.82909,219.11627,71,86,40
219.52705,219.6959,78,60,40
220.23328,220.41733,75,60,40
220.61298,220.9463,76,60,40
221.9463,222.61296,71,60,40
222.61296,222.77702,71,60,40
222.9463,223.0765,71,60,40
223.27963,223.9463,76,60,40
223.9463,224.21193,71,60,40
224.61296,224.9443,71,60,40
225.2829,225.44922,71,60,40
225.62163,225.75487,71,60,40
225.9639,226.29723,68,60,40
227.29723,227.9639,83,60,40
227.9639,228.12796,83,60,40
228.29723,228.42743,83,60,40
228.63055,229.29723,88,60,40
229.29723,229.56285,83,60,40
229.9639,230.63602,83,60,40
230.63602,230.8039,83,60,40
230.97845,231.1138,83,60,40
231.32697,231.66147,80,60,40
231.95753,232.0002,82,59,40
232.0002,232.27315,83,58,40
232.69029,233.04195,80,56,40
233.35394,233.39877,70,54,40
233.39877,233.68665,71,54,40
234.12703,234.50287,68,52,40
234.89745,235.10136,59,50,40
234.89745,235.10136,68,50,40
235.32043,235.54305,59,50,40
235.32043,235.54305,68,50,40
235.78566,236.28566,59,50,40
235.78566,236.28566,68,50,40
237.28566,237.61899,73,50,40
237.61899,237.88461,73,50,40
238.61899,238.95233,73,50,40
238.95233,239.21796,73,50,40
239.95233,240.28566,73,50,40
240.28566,240.55164,73,50,40
240.95558,241.12192,73,50,40
241.6366,241.8063,73,50,40
245.36656,245.71184,61,97,40
245.71184,246.89995,73,121,40
246.89995,247.32428,78,69,40
247.41562,249.41562,77,60,40
251.75163,252.09691,62,97,40
252.09691,252.76358,74,97,40
252.76358,252.84698,74,97,40
252.84698,252.93074,72,97,40
252.93074,253.01492,74,97,40
253.01492,253.09961,72,97,40
253.09961,253.18488,74,97,40
253.18488,253.27081,72,97,40
253.27081,253.35751,71,97,40
253.35751,253.42575,72,97,40
253.44489,253.77821,71,97,40
253.77821,254.11154,69,97,40
254.11154,254.44489,71,97,40
254.44489,254.71051,73,116,40
254.77821,255.77821,74,97,40
255.77821,256.11154,74,116,40
256.11154,256.4449,72,97,40
256.4449,256.7782,71,97,40
256.7782,257.11154,72,97,40
257.11154,257.37717,75,116,40
257.4449,258.4449,76,97,40
258.4449,258.7782,76,116,40
258.7782,259.1134,74,97,40
259.1134,259.4548,73,97,40
259.4548,259.8049,74,97,40
259.8049,260.09207,77,116,40
260.1666,260.83325,78,60,40
260.83325,260.91666,78,60,40
260.91666,261.00043,76,60,40
261.00043,261.0846,78,60,40
261.0846,261.16928,76,60,40
261.16928,261.25455,78,60,40
261.25455,261.34048,76,60,40
261.34048,261.4272,74,60,40
261.4272,261.49542,76,60,40
261.51456,262.1812,74,60,40
262.1812,262.26465,74,60,40
262.26465,262.3484,73,60,40
262.3484,262.4326,74,60,40
262.4326,262.51724,73,60,40
262.51724,262.6025,74,60,40
262.6025,262.68848,73,60,40
262.68848,262.77518,71,60,40
262.77518,262.84338,73,60,40
262.86252,263.19586,71,60,40
265.55847,266.22513,76,60,40
266.22513,266.30853,76,60,40
266.30853,266.3923,74,60,40
266.3923,266.47647,76,60,40
266.47647,266.56116,74,60,40
266.56116,266.64642,76,60,40
266.64642,266.73236,74,60,40
266.73236,266.81906,72,60,40
266.81906,266.8873,74,60,40
266.90643,267.5731,72,60,40
267.5731,267.65652,72,60,40
267.65652,267.74026,71,60,40
267.74026,267.82443,72,60,40
267.82443,267.90912,71,60,40
267.90912,267.9944,72,60,40
267.9944,268.08032,71,60,40
268.08032,268.16705,69,60,40
268.16705,268.23526,71,60,40
268.2544,268.58774,69,60,40
269.25708,269.60236,70,60,40
269.60236,269.86908,69,60,40
269.9376,270.27896,61,60,40
270.27896,270.55707,62,60,40
270.62906,270.99075,57,60,40
270.99075,271.25638,56,60,40
271.99564,272.33203,77,60,40
272.33203,272.46454,76,60,40
273.36325,273.7092,78,60,40
273.7092,273.84433,76,60,40
274.76813,275.12418,77,60,40
275.12418,275.26324,76,60,40
276.21234,276.5791,78,60,40
276.5791,276.72238,76,60,40
277.69818,278.07632,78,60,40
278.07632,278.22403,80,60,40
279.2281,279.61838,85,60,40
279.61838,279.77258,86,60,40
280.7823,281.16098,81,60,40
281.16098,281.30893,80,60,40
282.25873,282.6178,74,60,40
282.6178,282.75604,73,60,40
283.6555,283.9948,68,60,40
283.9948,284.12735,66,60,40
284.9936,285.32196,64,60,40
285.32196,285.45023,62,60,40
286.28793,286.6058,64,60,40
286.6058,286.72916,62,60,40
287.5883,287.93845,64,60,40
287.93845,288.0789,62,60,40
289.12042,291.91168,69,43,40
289.12042,291.91168,81,43,40
291.91168,291.9924,88,60,40
292.07834,292.1591,88,60,40
292.24503,292.41174,88,60,40
292.41174,292.54483,87,60,40
292.5788,292.65985,88,60,40
292.74628,292.82755,88,60,40
292.91415,293.0826,88,60,40
293.0826,293.21722,87,60,40
293.25162,293.33365,88,60,40
293.42123,293.5035,88,60,40
293.5911,293.6738,88,60,40
293.762,293.84515,83,60,40
293.9338,294.01727,80,60,40
294.10645,294.19034,76,60,40
294.27994,294.36432,71,60,40
294.45435,294.53928,64,60,40
294.62973,297.316,69,43,40
294.62973,297.316,81,43,40
297.316,297.39673,81,60,40
297.48267,297.5634,81,60,40
297.64932,297.8161,80,60,40
297.8161,297.9494,83,60,40
297.9835,298.06476,80,60,40
298.15158,298.2333,76,60,40
298.3205,298.4027,75,60,40
298.4904,298.57303,71,60,40
298.66132,298.74442,69,60,40
298.83334,298.9169,66,60,40
299.00586,299.09018,64,60,40
299.18033,299.2655,68,60,40
299.35648,299.4423,71,60,40
299.53418,299.6208,76,60,40
299.71356,300.07776,64,60,40
300.07776,300.44812,73,60,40
300.44812,300.57834,74,64,40
301.44812,301.78146,76,73,40
301.78146,301.91165,78,76,40
302.78146,303.11478,76,60,40
303.11478,303.245,74,60,40
303.78394,303.94974,73,60,40
304.46085,304.6291,71,60,40
305.49948,305.85245,73,60,40
305.85245,305.98264,74,64,40
306.85245,307.18576,76,73,40
307.18576,307.31598,78,76,40
308.18576,308.5191,81,60,40
308.5191,308.64932,80,60,40
309.19025,309.35748,75,60,40
309.87564,310.04733,76,60,40
311.48456,311.56528,75,60,40
311.6512,311.7318,76,60,40
311.81766,311.8983,75,60,40
311.98404,312.14767,76,60,40
312.81448,312.89487,78,60,40
312.98022,313.06046,76,60,40
313.1458,313.22598,78,60,40
313.31125,313.47403,76,60,40
314.13724,314.21704,77,59,40
314.30197,314.38177,78,61,40
314.46664,314.54636,77,62,40
314.63116,314.79306,78,63,40
315.4526,315.53198,79,69,40
315.6165,315.69583,78,70,40
315.78024,315.85953,79,72,40
315.9439,316.10486,78,73,40
316.76044,316.83942,80,79,40
316.9235,317.00247,81,80,40
317.08655,317.16553,80,81,40
317.24957,317.41006,81,83,40
318.0648,318.14377,83,89,40
318.22784,318.30682,81,90,40
318.3909,318.46985,83,91,40
318.55392,318.6329,81,92,40
318.71698,318.79596,83,94,40
318.88,318.95898,81,95,40
319.04306,319.12204,83,96,40
319.20612,319.28506,81,96,40
319.3693,319.44864,88,92,40
319.53342,319.61322,85,87,40
319.6986,319.77905,81,83,40
319.865,319.9462,80,78,40
320.03287,320.11478,76,74,40
320.20236,320.2849,74,69,40
320.37354,320.45682,71,65,40
320.54544,320.6299,69,60,40
320.7204,320.80618,64,60,40
320.898,320.98477,61,60,40
321.0781,321.16614,64,60,40
321.2608,321.4435,57,60,40
321.6352,322.0198,76,60,40
322.0198,322.15002,74,60,40
323.01834,323.35037,73,60,40
323.35037,323.48007,71,60,40
324.34372,324.67404,78,59,40
324.67404,324.80307,76,62,40
325.66183,325.99048,74,68,40
325.99048,326.11865,73,71,40
326.9728,327.29932,83,77,40
327.29932,327.4267,81,80,40
328.2776,328.60367,79,86,40
328.60367,328.73105,78,88,40
329.5819,329.90802,81,95,40
329.90802,330.48682,73,96,40
330.57513,331.1093,74,78,40
331.1093,331.2587,71,65,40
331.29718,331.37793,69,60,40
331.46402,331.54507,64,60,40
331.63156,331.71298,66,60,40
331.79993,331.88184,68,60,40
331.9693,332.05176,69,60,40
332.13986,332.22293,71,60,40
332.31174,332.39554,73,60,40
332.48514,332.56973,74,60,40
332.66025,333.3269,76,60,40
333.3269,333.41034,76,60,40
333.41034,333.49408,74,60,40
333.49408,333.57825,76,60,40
333.57825,333.66293,74,60,40
333.66293,333.7482,76,60,40
333.7482,333.83417,74,60,40
333.83417,333.92087,73,60,40
333.92087,333.98907,74,60,40
334.0082,334.5082,73,60,40
334.5082,334.59155,76,60,40
334.59155,334.65665,73,60,40
334.6749,334.83896,69,60,40
335.0082,335.17227,69,60,40
335.34155,335.84155,71,60,40
335.84155,335.9249,74,60,40
335.9249,335.99,71,60,40
336.0082,336.17227,68,60,40
336.34155,336.5056,68,60,40
336.6749,336.7556,69,60,40
336.84174,336.92276,73,60,40
337.00925,337.0907,76,60,40
337.17764,337.25952,74,60,40
337.34702,337.42947,73,60,40
337.51755,337.60065,71,60,40
337.68945,337.77322,69,60,40
337.86282,337.94742,67,60,40
338.03796,338.11868,66,60,40
338.20462,338.28534,69,60,40
338.37128,338.45203,66,60,40
338.53796,338.61868,62,60,40
338.70462,338.78543,61,60,40
338.8718,338.95334,64,60,40
339.04065,339.12323,61,60,40
339.21185,339.29584,57,60,40
339.38593,339.46664,62,60,40
339.55258,339.6333,66,60,40
339.71924,339.8,67,60,40
339.88593,339.96664,69,60,40
340.05258,340.1333,71,60,40
340.21924,340.3,69,60,40
340.38593,340.46664,67,60,40
340.55258,340.6333,66,60,40
340.71924,340.8,67,60,40
340.88593,340.96664,64,60,40
341.05258,341.1333,66,60,40
341.21924,341.3,67,60,40
341.38593,341.46664,69,60,40
341.55258,341.6333,67,60,40
341.71924,341.8,66,60,40
341.88593,341.96664,64,60,40
342.05258,342.1333,66,59,40
342.21924,342.3,69,61,40
342.38593,342.46664,67,63,40
342.55258,342.6333,66,64,40
342.71924,342.80005,64,66,40
342.8864,342.96796,61,67,40
343.05527,343.13788,62,69,40
343.22647,343.3105,64,71,40
343.40054,343.4813,66,72,40
343.56723,343.64795,78,74,40
343.7339,343.8146,76,75,40
343.90054,343.9813,74,77,40
344.06723,344.148,73,78,40
344.23438,344.31592,70,80,40
344.40323,344.48584,71,82,40
344.57446,344.65845,73,83,40
344.7485,344.82925,74,85,40
344.9152,344.9959,76,86,40
345.08185,345.16257,78,88,40
345.2485,345.32925,76,89,40
345.4152,345.4959,74,91,40
345.58185,345.66257,76,93,40
345.7485,345.82925,74,94,40
345.9152,345.9959,73,96,40
346.08185,346.2485,71,97,40
346.2485,346.4152,69,97,40
346.4152,346.58185,68,97,40
346.58185,346.7485,69,97,40
346.7485,346.9152,71,97,40
346.9152,347.08185,68,97,40
347.08185,347.2485,69,97,40
347.2485,347.38132,71,97,40
347.4152,347.58185,73,60,40
347.58185,347.7485,74,60,40
347.7485,347.9152,76,60,40
347.9152,348.048,74,60,40
348.08185,348.2485,78,60,40
348.2485,348.38132,76,60,40
348.4152,348.4959,74,60,40
348.58185,348.66257,73,60,40
348.7485,348.9152,71,97,40
348.9152,349.08185,69,97,40
349.08185,349.2485,68,97,40
349.2485,349.4152,69,97,40
349.4152,349.58185,71,97,40
349.58185,349.7485,68,97,40
349.7485,349.9152,69,97,40
349.9152,350.048,71,97,40
350.08185,350.2485,73,60,40
350.2485,350.4152,74,60,40
350.4152,350.58185,76,60,40
350.58185,350.71466,74,60,40
350.7485,350.9152,78,60,40
350.9152,351.048,76,60,40
351.08185,351.16257,74,60,40
351.2485,351.32925,73,60,40
351.4152,351.4959,71,97,40
351.58215,351.66345,64,97,40
351.7504,351.8324,68,97,40
351.92017,352.00302,71,97,40
352.09177,352.17566,76,97,40
352.26556,352.35062,76,97,40
352.44186,352.52826,80,97,40
352.62103,352.709,83,97,40
352.80356,353.17392,88,97,40
359.33655,359.4199,64,60,40
359.4199,359.50323,63,60,40
359.50323,359.58655,64,60,40
359.58655,359.65167,63,60,40
359.6699,359.83395,64,60,40
360.00323,360.1673,64,60,40
360.6699,360.75323,64,60,40
360.75323,360.83655,63,60,40
360.83655,360.9199,64,60,40
360.9199,360.985,63,60,40
361.00323,361.1673,64,60,40
361.33655,361.5006,64,60,40
362.00323,362.25323,64,60,40
362.25323,362.33655,66,60,40
362.33655,362.58707,68,60,40
362.58707,362.67093,69,60,40
362.67093,362.92386,71,60,40
362.92386,363.00867,73,60,40
363.00867,363.26498,74,60,40
363.26498,363.3511,71,60,40
363.3511,363.61185,76,60,40
363.61185,363.68042,74,60,40
363.69962,364.05255,73,60,40
364.05255,364.3338,76,60,40
364.40552,364.65552,76,60,40
364.65552,364.73883,73,60,40
364.73883,364.98883,78,60,40
364.98883,365.05396,76,60,40
365.07217,365.4055,74,60,40
365.4055,365.6711,71,60,40
367.07217,367.32217,76,60,40
367.32217,367.4055,73,60,40
367.4055,367.6555,78,60,40
367.6555,367.7206,76,60,40
367.73883,368.0732,74,60,40
368.0732,368.342,71,60,40
368.41095,369.1019,71,79,40
369.1019,369.2347,73,60,40
369.43524,369.76855,71,79,40
369.76855,369.90137,73,60,40
370.1019,370.43524,71,79,40
370.43524,370.63315,73,60,40
370.68524,370.76855,69,60,40
370.76855,371.01855,81,79,40
371.01855,371.1019,80,60,40
371.1019,371.3519,78,60,40
371.3519,371.43524,76,60,40
371.43524,371.68524,74,60,40
371.68524,371.75034,73,60,40
371.76855,371.9328,71,60,40
372.10294,372.26868,71,60,40
372.7831,372.9538,68,60,40
373.13162,373.38162,85,96,40
373.38162,373.46497,83,90,40
373.46497,373.71497,81,87,40
373.71497,373.7983,80,81,40
373.7983,374.0483,78,78,40
374.0483,374.13162,76,72,40
374.13162,374.38162,74,69,40
374.38162,374.44675,73,63,40
374.46497,374.6293,71,60,40
374.80017,374.9673,86,60,40
375.49164,375.66803,83,60,40
375.85333,376.22372,81,60,40
376.5941,376.75815,73,60,40
377.0941,377.1748,71,60,40
377.26074,377.4248,74,60,40
377.76074,377.8415,73,60,40
377.92743,378.0915,78,60,40
378.42743,378.50815,76,60,40
378.5941,379.61768,80,79,40
379.61768,379.9023,81,60,40
380.31036,380.4761,74,60,40
380.99057,381.16122,71,60,40
381.69202,381.86572,73,60,40
382.04495,382.12567,76,60,40
382.2116,382.29236,76,63,40
382.54495,382.62567,76,67,40
382.7116,382.79236,81,69,40
382.8783,382.959,81,71,40
383.2116,383.29236,81,75,40
383.3783,383.459,81,77,40
383.54495,383.62567,81,80,40
383.8783,383.959,81,84,40
384.04495,385.07162,86,105,40
385.07162,385.35883,85,86,40
385.7696,385.93845,83,60,40
386.4758,386.65985,80,60,40
386.8555,387.18884,81,60,40
388.18884,388.8555,76,60,40
388.8555,389.01956,76,60,40
389.18884,389.31903,76,60,40
389.52216,390.18884,81,60,40
390.18884,390.45447,76,60,40
390.8555,391.52542,76,60,40
391.52542,391.69174,76,60,40
391.86417,391.9974,76,60,40
392.20642,392.53976,73,60,40
393.53976,394.20642,64,60,40
394.20642,394.37048,64,60,40
394.53976,394.66998,64,60,40
394.8731,395.53976,69,60,40
395.53976,395.8054,64,60,40
396.20642,396.87854,64,60,40
396.87854,397.04642,64,60,40
397.22098,397.35635,64,60,40
397.5695,397.904,61,60,40
398.20007,398.24274,63,59,40
398.24274,398.5157,64,58,40
398.93283,399.2845,61,56,40
399.59647,399.6413,75,54,40
399.6413,399.92917,76,54,40
400.36957,400.7509,73,52,40
401.17194,401.40192,61,50,40
401.17194,401.40192,64,50,40
401.66193,401.94418,61,50,40
401.66193,401.94418,64,50,40
402.27982,403.02982,61,50,40
402.27982,403.02982,64,50,40
404.52982,405.27982,57,50,40
0.0,0.333333,61,60,0
0.0,0.333333,45,60,0
0.333333,0.4635412,47,60,0
0.0,0.49739534,57,60,0
0.333333,0.49739534,62,60,0
1.333332,1.666665,64,60,0
1.333332,1.666665,49,60,0
1.666665,1.7968732,50,60,0
1.333332,1.8307273,57,60,0
1.666665,1.8307273,66,60,0
2.666664,2.999997,57,60,0
2.666664,2.999997,64,60,0
2.666664,2.999997,49,60,0
2.999997,3.1302946,56,60,0
2.999997,3.1302946,62,60,0
2.999997,3.1302946,47,60,0
3.6721227,3.8399963,57,60,0
3.6721227,3.8399963,61,60,0
3.6721227,3.8399963,45,60,0
3.6721227,3.8399963,52,60,0
4.363064,4.5367765,56,60,0
4.363064,4.5367765,59,60,0
4.363064,4.5367765,40,60,0
4.363064,4.5367765,52,60,0
5.4218864,5.7552195,61,60,0
5.4218864,5.7552195,45,60,0
5.7552195,5.885428,47,60,0
5.4218864,5.919282,57,60,0
5.7552195,5.919282,62,60,0
6.7552185,7.0885515,64,60,0
6.7552185,7.0885515,49,60,0
7.0885515,7.21876,50,60,0
6.7552185,7.252614,57,60,0
7.0885515,7.252614,66,60,0
8.088551,8.421884,60,60,0
8.088551,8.421884,66,60,0
8.088551,8.421884,69,60,0
8.088551,8.421884,51,60,0
8.421884,8.552253,59,60,0
8.421884,8.552253,64,60,0
8.421884,8.552253,68,60,0
8.421884,8.552253,52,60,0
9.098476,9.26953,57,60,0
9.098476,9.26953,63,60,0
9.098476,9.26953,47,60,0
9.8102665,9.9925585,56,60,0
9.8102665,9.9925585,64,60,0
9.8102665,9.9925585,40,60,0
10.921376,11.254709,57,60,0
10.921376,11.254709,61,60,0
11.254709,11.384918,59,60,0
11.254709,11.384918,62,60,0
11.588042,11.921375,68,60,0
11.921375,12.187,69,60,0
12.254708,12.588041,61,60,0
12.254708,12.588041,64,60,0
12.588041,12.71825,62,60,0
12.588041,12.71825,66,60,0
12.921374,13.254707,80,60,0
13.254707,13.520332,81,60,0
13.58804,13.921373,61,60,0
13.58804,13.921373,64,60,0
13.921373,14.051671,59,60,0
13.921373,14.051671,62,60,0
14.255743,14.42148,76,60,0
14.593499,14.761373,57,60,0
14.593499,14.761373,61,60,0
14.935929,15.10661,76,60,0
15.28444,15.458154,52,60,0
15.28444,15.458154,56,60,0
15.28444,15.458154,59,60,0
15.637382,15.811094,76,60,0
16.343264,16.676596,57,60,0
16.343264,16.676596,61,60,0
16.676596,16.806805,59,60,0
16.676596,16.806805,62,60,0
17.00993,17.343262,68,60,0
17.343262,17.608887,69,60,0
17.676596,18.009928,61,60,0
17.676596,18.009928,64,60,0
18.009928,18.140137,62,60,0
18.009928,18.140137,66,60,0
18.343262,18.676594,80,60,0
18.676594,18.942219,81,60,0
19.009928,19.34326,63,60,0
19.009928,19.34326,72,60,0
19.34326,19.473629,64,60,0
19.34326,19.473629,71,60,0
19.678467,19.84557,80,60,0
20.019854,20.190907,59,60,0
20.019854,20.190907,69,60,0
20.369938,20.546314,75,60,0
20.731644,20.913935,64,60,0
20.731644,20.913935,68,60,0
21.102013,21.284306,76,60,0
21.842752,22.176086,57,60,0
21.842752,22.176086,64,60,0
21.842752,22.176086,49,60,0
22.176086,22.441711,56,60,0
22.176086,22.441711,62,60,0
22.176086,22.441711,47,60,0
21.842752,22.441711,52,60,0
23.174623,23.506659,57,60,0
23.174623,23.506659,61,60,0
23.174623,23.506659,45,60,0
23.506659,23.771156,56,60,0
23.506659,23.771156,59,60,0
23.506659,23.771156,40,60,0
23.174623,23.771156,52,60,0
24.500002,24.830324,59,60,0
24.500002,24.830324,66,60,0
24.500002,24.830324,50,60,0
24.830324,25.093243,58,59,0
24.830324,25.093243,64,59,0
24.830324,25.093243,49,59,0
24.500002,25.093243,54,60,0
25.818127,26.146751,59,67,0
25.818127,26.146751,62,67,0
25.818127,26.146751,47,67,0
26.146751,26.40811,58,69,0
26.146751,26.40811,61,69,0
26.146751,26.40811,42,69,0
25.818127,26.40811,54,67,0
27.129076,27.4556,61,76,0
27.129076,27.4556,71,76,0
27.129076,27.4556,55,76,0
27.4556,27.71545,62,78,0
27.4556,27.71545,69,78,0
27.4556,27.71545,54,78,0
27.129076,27.71545,57,76,0
28.43386,28.759947,64,85,0
28.43386,28.759947,67,85,0
28.43386,28.759947,49,85,0
28.759947,29.019796,62,88,0
28.759947,29.019796,66,88,0
28.759947,29.019796,50,88,0
28.43386,29.019796,57,85,0
29.738205,30.064293,59,95,0
29.738205,30.064293,69,95,0
29.738205,30.064293,51,95,0
29.738205,30.064293,54,95,0
30.064293,30.731422,57,97,0
30.064293,30.731422,61,97,0
30.064293,30.731422,52,97,0
30.731422,31.265593,62,60,0
30.731422,31.265593,47,60,0
30.731422,31.355867,56,60,0
30.731422,31.355867,40,60,0
31.265593,31.414972,59,60,0
31.265593,31.414972,50,60,0
31.453466,31.838081,57,60,0
31.453466,31.838081,45,60,0
31.453466,31.838081,49,60,0
32.60731,32.940643,61,60,0
32.60731,32.940643,64,60,0
32.940643,33.20627,59,60,0
32.940643,33.20627,62,60,0
33.27395,33.606796,75,60,0
33.606796,33.87173,76,60,0
33.939182,34.271217,57,60,0
33.939182,34.271217,61,60,0
34.271217,34.535713,52,60,0
34.271217,34.535713,56,60,0
34.271217,34.535713,59,60,0
34.602985,34.934,78,60,0
34.934,35.197464,76,60,0
35.26456,35.594883,62,60,0
35.26456,35.594883,66,60,0
35.594883,35.8578,61,60,0
35.594883,35.8578,64,60,0
35.924725,36.25393,77,60,0
36.25393,36.515934,78,60,0
36.582684,36.91131,59,60,0
36.582684,36.91131,62,60,0
36.91131,37.17267,54,60,0
36.91131,37.17267,58,60,0
36.91131,37.17267,61,60,0
37.23925,37.56666,79,60,0
37.56666,37.827225,78,60,0
37.893635,38.220158,67,60,0
37.893635,38.220158,71,60,0
38.220158,38.480007,66,60,0
38.220158,38.480007,69,60,0
38.546246,38.87233,80,60,0
38.87233,39.13218,81,60,0
39.198418,39.524506,61,60,0
39.198418,39.524506,64,60,0
39.524506,39.784355,62,60,0
39.524506,39.784355,66,60,0
39.198418,39.784355,69,60,0
39.85059,40.176678,83,60,0
40.176678,40.436527,81,60,0
40.50276,40.82885,63,60,0
40.50276,40.82885,66,60,0
40.50276,40.82885,71,60,0
41.157738,41.49598,88,79,0
40.82885,41.49598,64,79,0
40.82885,41.49598,69,79,0
41.49598,42.03015,71,60,0
41.49598,42.120426,64,60,0
42.03015,42.17953,68,60,0
41.8477,42.21802,88,60,0
42.21802,42.60264,57,60,0
42.21802,42.60264,69,60,0
42.60264,42.987255,81,60,0
43.37187,43.7052,52,60,0
43.7052,44.37187,64,60,0
44.37187,44.455276,64,60,0
44.455276,44.539032,62,60,0
44.539032,44.62321,64,60,0
44.62321,44.707893,62,60,0
44.707893,44.793163,64,60,0
44.793163,44.879105,62,60,0
44.879105,44.965805,61,60,0
44.965805,45.03404,62,60,0
45.05317,45.55317,61,60,0
45.55317,45.6365,64,60,0
45.6365,45.701607,61,60,0
45.719837,45.883896,57,60,0
46.05317,46.21723,57,60,0
46.3865,46.8865,59,60,0
46.8865,46.969833,62,60,0
46.969833,47.05317,59,60,0
47.05317,47.183376,56,60,0
47.3865,47.529728,56,60,0
47.678165,47.719833,59,60,0
47.719833,47.782333,57,60,0
47.886673,47.967724,56,60,0
48.054203,48.135643,57,60,0
48.22258,48.304485,61,60,0
48.39196,48.47441,59,60,0
48.562508,48.645588,57,60,0
48.73439,48.818184,56,60,0
48.907787,48.992382,54,60,0
49.0829,49.163628,56,60,0
49.249565,49.330296,59,60,0
49.416233,49.496964,56,60,0
49.5829,49.663628,52,60,0
49.749565,49.830368,51,60,0
49.916733,49.998276,54,60,0
50.085594,50.16819,51,60,0
50.2568,50.34079,47,60,0
50.43087,50.511597,52,60,0
50.597534,50.678265,56,60,0
50.764202,50.84493,57,60,0
50.930866,51.011597,59,60,0
51.097534,51.178265,61,60,0
51.264202,51.34493,59,60,0
51.430866,51.511597,57,60,0
51.597534,51.678265,56,60,0
51.7642,51.84493,57,60,0
51.930866,52.011597,54,60,0
52.097534,52.17826,56,60,0
52.2642,52.34493,57,60,0
52.430866,52.511597,59,60,0
52.597534,52.67826,57,60,0
52.7642,52.84493,56,60,0
52.930866,53.011593,54,60,0
52.7642,53.09753,71,60,0
53.09753,53.430866,56,60,0
53.09753,53.7642,76,60,0
53.430866,53.7642,52,60,0
53.7642,53.847607,76,60,0
53.847607,53.931362,74,60,0
53.931362,54.01554,76,60,0
54.01554,54.100224,74,60,0
54.100224,54.185493,76,60,0
54.185493,54.271435,74,60,0
54.271435,54.35814,73,60,0
54.35814,54.42637,74,60,0
54.4455,54.9455,73,60,0
54.9455,55.02883,76,60,0
55.02883,55.093937,73,60,0
55.112167,55.27623,69,60,0
55.4455,55.609562,69,60,0
55.4455,55.609562,54,60,0
55.77883,56.28381,71,60,0
56.28381,56.369366,74,60,0
56.369366,56.436546,71,60,0
55.77883,56.455425,47,60,0
56.455425,56.62648,68,60,0
56.80551,56.981884,68,60,0
56.80551,57.167213,40,60,0
57.167213,57.247944,69,60,0
57.33388,57.41461,76,60,0
57.50055,57.581276,73,60,0
57.667213,57.747944,69,60,0
57.167213,57.83388,52,60,0
57.83388,57.914684,68,60,0
57.83388,57.91729,52,60,0
57.91729,58.001045,50,60,0
58.001045,58.082592,71,60,0
58.001045,58.085224,52,60,0
58.085224,58.169907,50,60,0
58.169907,58.252506,68,60,0
58.169907,58.255177,52,60,0
58.255177,58.341118,50,60,0
58.341118,58.425106,64,60,0
58.341118,58.427822,49,60,0
58.427822,58.49605,50,60,0
58.515182,58.595913,69,59,0
58.68185,58.76258,73,62,0
58.84852,58.929245,76,64,0
59.015182,59.095913,81,67,0
58.515182,59.18185,49,59,0
59.18185,59.26265,80,69,0
59.18185,59.26526,49,69,0
59.26526,59.349014,47,70,0
59.349014,59.43056,83,71,0
59.349014,59.433193,49,71,0
59.433193,59.517876,47,72,0
59.517876,59.600475,80,74,0
59.517876,59.603146,49,74,0
59.603146,59.689087,47,75,0
59.689087,59.773075,76,76,0
59.689087,59.775787,45,76,0
59.775787,59.84402,47,77,0
59.86315,59.943882,81,78,0
60.02982,60.110546,83,81,0
59.86315,60.196484,45,78,0
60.196484,60.277214,85,83,0
60.36315,60.443882,83,85,0
60.196484,60.52982,44,83,0
60.52982,60.610546,81,88,0
60.696484,60.777214,80,90,0
60.52982,60.86315,42,88,0
60.86315,60.94388,78,93,0
60.86315,61.029816,44,93,0
61.029816,61.110546,76,95,0
61.029816,61.16263,46,95,0
61.196484,61.36315,75,97,0
61.36315,61.529816,73,97,0
61.529816,61.696484,75,97,0
61.696484,61.863148,76,97,0
61.863148,62.029816,78,97,0
62.029816,62.196484,75,97,0
62.196484,62.363148,76,97,0
62.363148,62.49596,78,97,0
62.196484,62.529816,45,97,0
62.529816,62.696484,80,60,0
62.696484,62.863148,81,60,0
62.529816,62.863148,44,60,0
62.863148,63.029816,83,60,0
63.029816,63.16263,81,60,0
62.863148,63.19648,42,60,0
63.19648,63.363148,85,60,0
63.363148,63.49596,83,60,0
63.19648,63.529816,40,60,0
63.529816,63.610542,81,60,0
63.529816,63.69648,44,60,0
61.196484,63.76419,47,122,0
63.69648,63.77721,80,60,0
63.69648,63.829292,46,60,0
63.863148,64.029816,78,97,0
64.029816,64.19648,76,97,0
64.19648,64.363144,75,97,0
64.363144,64.529816,76,97,0
64.529816,64.69648,78,97,0
64.69648,64.863144,75,97,0
64.863144,65.029816,76,97,0
65.029816,65.16263,78,97,0
64.863144,65.19648,45,60,0
65.19648,65.363144,80,60,0
65.363144,65.529816,81,60,0
65.19648,65.529816,44,60,0
65.529816,65.69648,83,60,0
65.69648,65.82929,81,60,0
65.529816,65.863144,42,60,0
65.863144,66.029816,85,60,0
66.029816,66.16263,83,60,0
65.863144,66.19648,40,60,0
66.19648,66.27721,81,60,0
66.19648,66.363144,44,60,0
66.363144,66.44387,80,60,0
63.863148,66.52981,47,122,0
66.363144,66.52981,46,60,0
66.52981,66.61055,78,97,0
66.696785,66.7781,83,97,0
66.52981,66.79652,47,97,0
66.86502,66.94704,78,97,0
67.03479,67.11767,75,97,0
67.206406,67.29029,71,97,0
67.206406,67.29029,47,97,0
67.38019,67.465256,71,97,0
67.38019,67.465256,59,97,0
67.55649,67.64291,66,97,0
67.55649,67.64291,54,97,0
67.73568,67.82365,63,97,0
67.73568,67.82365,51,97,0
67.9182,68.28857,59,97,0
67.9182,68.28857,47,97,0
69.029305,69.11264,71,60,0
69.11264,69.19597,70,60,0
69.19597,69.279305,71,60,0
69.279305,69.344406,70,60,0
69.36264,69.5267,71,60,0
69.36264,69.5267,64,60,0
69.36264,69.5267,68,60,0
69.69597,69.86003,71,60,0
69.69597,69.86003,64,60,0
69.69597,69.86003,68,60,0
70.36264,70.44597,71,60,0
70.44597,70.529305,70,60,0
70.529305,70.61263,71,60,0
70.61263,70.67774,70,60,0
70.69597,70.86003,71,60,0
70.69597,70.86003,63,60,0
70.69597,70.86003,66,60,0
70.69597,70.86003,69,60,0
71.029305,71.19337,71,60,0
71.029305,71.19337,63,60,0
71.029305,71.19337,66,60,0
71.029305,71.19337,69,60,0
71.69597,71.94597,71,60,0
71.94597,72.029305,73,60,0
72.029305,72.19353,59,60,0
72.029305,72.19353,63,60,0
72.029305,72.19353,66,60,0
72.029305,72.27981,75,60,0
72.27981,72.36367,76,60,0
72.36367,72.52941,59,60,0
72.36367,72.52941,63,60,0
72.36367,72.52941,66,60,0
72.36367,72.6166,78,60,0
72.6166,72.70142,80,60,0
72.70142,72.8693,59,60,0
72.70142,72.8693,63,60,0
72.70142,72.8693,66,60,0
72.70142,72.95774,81,60,0
72.95774,73.04386,78,60,0
73.04386,73.21454,59,60,0
73.04386,73.21454,63,60,0
73.04386,73.21454,66,60,0
73.04386,73.30458,83,60,0
73.30458,73.37315,81,60,0
73.392365,73.74531,80,60,0
73.392365,73.74531,64,60,0
73.392365,73.74531,68,60,0
73.74531,74.02656,83,60,0
74.78452,74.948586,52,60,0
74.78452,74.948586,56,60,0
75.11786,75.20119,71,60,0
75.11786,75.28192,52,60,0
75.11786,75.28192,56,60,0
75.20119,75.28452,70,60,0
75.28452,75.36786,71,60,0
75.36786,75.43296,70,60,0
75.45119,75.78452,71,60,0
76.11786,76.28192,51,60,0
76.11786,76.28192,54,60,0
76.11786,76.28192,57,60,0
76.45119,76.53452,71,60,0
76.45119,76.61525,51,60,0
76.45119,76.61525,54,60,0
76.45119,76.61525,57,60,0
76.53452,76.61786,70,60,0
76.61786,76.70119,71,60,0
76.70119,76.7663,70,60,0
76.78452,77.11786,71,60,0
77.45119,77.61541,47,60,0
77.45119,77.61541,51,60,0
77.45119,77.61541,54,60,0
77.78556,77.951294,47,60,0
77.78556,77.951294,51,60,0
77.78556,77.951294,54,60,0
78.123314,78.29119,47,60,0
78.123314,78.29119,51,60,0
78.123314,78.29119,54,60,0
78.465744,78.63642,47,60,0
78.465744,78.63642,51,60,0
78.465744,78.63642,54,60,0
78.814255,79.1672,52,60,0
78.814255,79.1672,56,60,0
79.520134,79.770134,83,60,0
79.770134,79.85347,80,60,0
79.85347,80.10347,85,60,0
80.10347,80.16857,83,60,0
79.520134,80.186806,61,60,0
79.520134,80.186806,65,60,0
79.520134,80.186806,68,60,0
80.186806,80.45243,66,60,0
80.186806,80.45243,69,60,0
80.186806,80.520134,81,60,0
80.520134,80.78576,78,60,0
81.1868,81.520134,75,79,0
80.85347,81.520134,47,79,0
80.85347,81.520134,54,79,0
80.85347,81.520134,57,79,0
81.520134,81.78576,52,60,0
81.520134,81.78576,56,60,0
81.520134,81.85347,76,60,0
81.85347,82.119095,80,60,0
82.1868,82.4368,83,60,0
82.4368,82.520134,80,60,0
82.520134,82.770134,85,60,0
82.770134,82.835236,83,60,0
82.1868,82.85347,61,60,0
82.1868,82.85347,65,60,0
82.1868,82.85347,68,60,0
82.85347,83.11969,66,60,0
82.85347,83.11969,69,60,0
82.85347,83.187836,81,60,0
83.187836,83.45665,78,60,0
83.86802,84.21653,75,79,0
83.52559,84.21653,47,60,0
83.52559,84.21653,54,60,0
83.52559,84.21653,57,60,0
84.21653,84.34934,76,60,0
84.21653,84.34934,52,60,0
84.21653,84.34934,56,60,0
84.549866,84.8832,75,79,0
84.549866,84.8832,47,79,0
84.549866,84.8832,54,79,0
84.549866,84.8832,57,79,0
84.8832,85.016014,76,60,0
84.8832,85.016014,52,60,0
84.8832,85.016014,56,60,0
85.21653,85.549866,75,79,0
85.21653,85.549866,47,79,0
85.21653,85.549866,54,79,0
85.21653,85.549866,57,79,0
85.549866,85.68268,76,60,0
85.549866,85.68268,52,60,0
85.549866,85.68268,56,60,0
85.8832,86.1332,80,79,0
86.1332,86.21653,78,60,0
86.21653,86.46653,76,60,0
86.46653,86.549866,75,60,0
85.8832,86.549866,52,79,0
85.8832,86.549866,56,79,0
86.549866,86.799866,73,60,0
86.549866,86.799866,54,60,0
86.549866,86.799866,57,60,0
86.799866,86.86497,71,60,0
86.799866,86.86497,56,60,0
86.799866,86.86497,59,60,0
86.883194,87.047424,69,60,0
86.883194,87.047424,57,60,0
86.883194,87.047424,61,60,0
87.21757,87.3833,69,60,0
87.55532,87.7232,47,60,0
87.55532,87.7232,59,60,0
87.89775,88.068436,66,60,0
88.24626,88.49626,83,96,0
88.49626,88.5796,81,90,0
88.5796,88.8296,80,87,0
88.8296,88.91293,78,81,0
88.91293,89.16293,76,78,0
89.16293,89.24626,75,72,0
88.24626,89.24626,40,96,0
88.24626,89.24626,52,96,0
89.24626,89.49626,73,69,0
89.24626,89.49626,42,69,0
89.24626,89.49626,54,69,0
89.49626,89.56136,71,63,0
89.49626,89.56136,44,63,0
89.49626,89.56136,56,63,0
89.5796,89.74395,69,60,0
89.5796,89.74395,45,60,0
89.5796,89.74395,57,60,0
89.9148,90.0819,61,60,0
89.9148,90.0819,66,60,0
89.9148,90.0819,69,60,0
90.25619,90.427246,35,60,0
90.25619,90.427246,47,60,0
90.60628,90.782646,57,60,0
90.60628,90.782646,63,60,0
90.60628,90.782646,66,60,0
90.96798,91.33835,56,60,0
90.96798,91.33835,64,60,0
90.96798,91.33835,40,60,0
90.96798,91.33835,52,60,0
91.70872,91.87278,64,60,0
92.20872,92.289444,63,60,0
92.37538,92.539444,64,60,0
92.37538,92.539444,61,60,0
92.87538,92.956116,64,60,0
92.87538,92.956116,59,60,0
93.04205,93.206116,64,60,0
93.04205,93.206116,57,60,0
93.54205,93.62278,64,60,0
93.54205,93.62278,56,60,0
94.04372,94.73232,59,79,0
94.04372,94.73232,69,79,0
93.70872,94.73232,54,79,0
94.73232,95.01694,59,60,0
94.73232,95.01694,68,60,0
94.73232,95.01694,52,60,0
95.09064,95.25486,45,60,0
95.425,95.590744,61,60,0
95.425,95.590744,66,60,0
95.762764,95.93063,47,60,0
96.105194,96.27587,59,60,0
96.105194,96.27587,63,60,0
96.453705,96.62742,40,60,0
96.453705,96.62742,52,60,0
96.80664,96.980354,59,60,0
96.80664,96.980354,64,60,0
97.159584,97.24031,68,60,0
97.159584,97.24031,80,60,0
97.159584,97.24031,52,60,0
97.159584,97.24031,64,60,0
97.32625,97.40698,68,63,0
97.32625,97.40698,80,63,0
97.32625,97.40698,52,63,0
97.32625,97.40698,64,63,0
97.659584,97.74031,66,67,0
97.659584,97.74031,78,67,0
97.659584,97.74031,51,67,0
97.659584,97.74031,63,67,0
97.82625,97.90698,69,69,0
97.82625,97.90698,81,69,0
97.82625,97.90698,49,69,0
97.82625,97.90698,61,69,0
97.99292,98.07365,69,71,0
97.99292,98.07365,81,71,0
97.99292,98.07365,49,71,0
97.99292,98.07365,61,71,0
98.32625,98.406975,68,75,0
98.32625,98.406975,80,75,0
98.32625,98.406975,47,75,0
98.32625,98.406975,59,75,0
98.49291,98.57365,73,77,0
98.49291,98.57365,85,77,0
98.49291,98.57365,45,77,0
98.49291,98.57365,57,77,0
98.659584,98.74031,73,80,0
98.659584,98.74031,85,80,0
98.659584,98.74031,45,80,0
98.659584,98.74031,57,80,0
98.99291,99.07365,71,84,0
98.99291,99.07365,83,84,0
98.99291,99.07365,44,84,0
98.99291,99.07365,56,84,0
99.159584,99.49479,42,86,0
99.159584,99.49479,54,86,0
99.159584,100.186264,75,105,0
99.159584,100.186264,87,105,0
99.49479,100.186264,66,105,0
99.49479,100.186264,69,105,0
100.186264,100.47344,76,86,0
100.186264,100.47344,88,86,0
100.186264,100.47344,68,86,0
100.547966,100.71249,45,60,0
100.547966,100.71249,57,60,0
100.884224,101.05307,69,60,0
100.884224,101.05307,81,60,0
101.23027,101.40548,47,60,0
101.23027,101.40548,59,60,0
101.59044,101.77449,66,60,0
101.59044,101.77449,78,60,0
101.97014,102.1368,64,60,0
102.1368,102.303474,68,60,0
102.303474,102.47014,71,60,0
102.47014,102.6368,76,60,0
102.6368,102.803474,80,60,0
102.803474,102.97014,83,60,0
102.97014,103.1368,80,60,0
103.1368,103.269615,76,60,0
101.97014,103.303474,52,60,0
101.97014,103.303474,56,60,0
101.97014,103.303474,59,60,0
103.303474,103.47014,81,60,0
103.47014,103.6368,78,60,0
103.6368,103.80347,75,60,0
103.80347,103.97014,71,60,0
103.97014,104.1368,69,60,0
104.1368,104.30347,71,60,0
104.30347,104.47014,69,60,0
104.47014,104.60295,66,60,0
103.303474,104.6368,52,60,0
103.303474,104.6368,54,60,0
103.303474,104.6368,57,60,0
103.303474,104.6368,59,60,0
104.6368,104.80347,64,60,0
104.80347,104.97014,68,60,0
104.97014,105.1368,71,60,0
105.1368,105.30347,76,60,0
105.30347,105.47014,80,60,0
105.47014,105.6368,83,60,0
105.6368,105.80347,80,60,0
105.80347,105.93628,76,60,0
104.6368,105.97014,52,60,0
104.6368,105.97014,56,60,0
104.6368,105.97014,59,60,0
105.97014,106.1369,81,60,0
106.1369,106.30409,78,60,0
106.30409,106.47178,75,60,0
106.47178,106.64006,71,60,0
106.64006,106.80904,69,60,0
106.80904,106.97879,71,60,0
106.97879,107.14943,69,60,0
107.14943,107.28614,66,60,0
105.97014,107.32107,52,60,0
105.97014,107.32107,54,60,0
105.97014,107.32107,57,60,0
105.97014,107.32107,59,60,0
107.32107,107.401794,40,60,0
107.48773,107.56846,44,60,0
107.32107,107.654396,64,60,0
107.654396,107.73513,47,60,0
107.82107,107.901794,52,60,0
107.98773,108.06846,56,60,0
108.154396,108.23513,59,60,0
108.32107,108.401794,56,60,0
108.48773,108.56846,52,60,0
108.654396,108.73513,57,60,0
108.82107,108.901794,54,60,0
108.98773,109.06846,51,60,0
109.154396,109.23512,47,60,0
108.654396,109.32106,71,60,0
109.32106,109.401794,45,60,0
109.32106,109.48512,71,60,0
109.48773,109.56846,47,60,0
109.654396,109.73512,45,60,0
109.654396,109.78461,71,60,0
109.82106,109.901794,42,60,0
109.98773,110.06846,40,60,0
110.154396,110.23512,44,60,0
110.32106,110.401794,47,60,0
110.48773,110.56846,52,60,0
109.98773,110.654396,76,60,0
110.654396,110.73512,56,60,0
110.82106,110.901794,59,60,0
110.654396,110.92002,71,60,0
110.98773,111.06846,56,60,0
111.154396,111.23512,52,60,0
111.32106,111.401794,57,60,0
111.4879,111.56895,54,60,0
111.65543,111.73687,51,60,0
111.82381,111.905716,47,60,0
111.32106,111.99319,71,60,0
111.99319,112.07564,45,60,0
111.99319,112.161064,71,60,0
112.163734,112.24681,47,60,0
112.33562,112.41941,45,60,0
112.33562,112.47098,71,60,0
112.50902,112.59361,42,60,0
112.68413,112.764854,40,60,0
112.85085,112.93206,47,60,0
112.68413,113.01863,68,60,0
113.01863,113.10032,44,59,0
113.18746,113.26964,40,59,0
113.314705,113.35737,70,59,0
113.35737,113.44004,39,58,0
113.528366,113.611534,42,58,0
113.35737,113.63031,71,58,0
113.700455,113.78413,35,57,0
113.873665,113.95785,39,57,0
114.04746,114.13175,40,56,0
114.22248,114.30782,47,56,0
114.04746,114.39912,68,56,0
114.39912,114.48507,44,55,0
114.576935,114.66349,40,55,0
114.71111,114.755936,82,54,0
114.755936,114.84312,39,54,0
114.93614,115.02395,42,54,0
114.755936,115.043816,83,54,0
115.11758,115.206024,35,53,0
115.30025,115.389336,39,53,0
115.48419,115.57391,40,52,0
115.67028,115.761665,52,52,0
115.48419,115.86004,80,52,0
115.86004,115.95355,56,51,0
116.05445,116.15061,52,51,0
116.254616,116.35402,47,50,0
116.254616,116.458534,80,50,0
116.254616,116.458534,88,50,0
116.46182,116.565186,52,50,0
116.677605,116.78577,44,50,0
116.677605,116.900215,80,50,0
116.677605,116.900215,88,50,0
116.9038,117.01782,47,50,0
117.14283,117.64283,80,50,0
117.14283,117.64283,88,50,0
117.14283,117.64283,40,50,0
118.64283,118.976166,61,60,0
118.64283,118.976166,45,60,0
118.976166,119.10637,47,60,0
118.64283,119.14023,57,60,0
118.976166,119.14023,62,60,0
119.976166,120.309494,64,60,0
119.976166,120.309494,49,60,0
120.309494,120.439705,50,60,0
119.976166,120.47356,57,60,0
120.309494,120.47356,66,60,0
121.309494,121.64283,57,60,0
121.309494,121.64283,64,60,0
121.309494,121.64283,49,60,0
121.64283,121.773125,56,60,0
121.64283,121.773125,62,60,0
121.64283,121.773125,47,60,0
122.31496,122.48283,57,60,0
122.31496,122.48283,61,60,0
122.31496,122.48283,45,60,0
122.31496,122.48283,52,60,0
123.0059,123.17961,56,60,0
123.0059,123.17961,59,60,0
123.0059,123.17961,40,60,0
123.0059,123.17961,52,60,0
124.06472,124.39805,61,60,0
124.06472,124.39805,45,60,0
124.39805,124.52826,47,60,0
124.06472,124.56211,57,60,0
124.39805,124.56211,62,60,0
125.39805,125.731384,64,60,0
125.39805,125.731384,49,60,0
125.731384,125.86159,50,60,0
125.39805,125.89545,57,60,0
125.731384,125.89545,66,60,0
126.731384,127.06471,60,60,0
126.731384,127.06471,66,60,0
126.731384,127.06471,69,60,0
126.731384,127.06471,51,60,0
127.06471,127.19508,59,60,0
127.06471,127.19508,64,60,0
127.06471,127.19508,68,60,0
127.06471,127.19508,52,60,0
127.74131,127.91236,57,60,0
127.74131,127.91236,63,60,0
127.74131,127.91236,47,60,0
128.4531,128.63539,56,60,0
128.4531,128.63539,64,60,0
128.4531,128.63539,40,60,0
129.56421,129.89754,57,60,0
129.56421,129.89754,61,60,0
129.89754,130.02776,59,60,0
129.89754,130.02776,62,60,0
130.23088,130.56421,68,60,0
130.56421,130.82983,69,60,0
130.89754,131.23087,61,60,0
130.89754,131.23087,64,60,0
131.23087,131.36108,62,60,0
131.23087,131.36108,66,60,0
131.56421,131.89754,80,60,0
131.89754,132.16316,81,60,0
132.23087,132.56421,61,60,0
132.23087,132.56421,64,60,0
132.56421,132.6945,59,60,0
132.56421,132.6945,62,60,0
132.89857,133.06432,76,60,0
133.23633,133.4042,57,60,0
133.23633,133.4042,61,60,0
133.57877,133.74944,76,60,0
133.92728,134.10098,52,60,0
133.92728,134.10098,56,60,0
133.92728,134.10098,59,60,0
134.28021,134.45392,76,60,0
134.9861,135.31943,57,60,0
134.9861,135.31943,61,60,0
135.31943,135.44963,59,60,0
135.31943,135.44963,62,60,0
135.65276,135.9861,68,60,0
135.9861,136.25172,69,60,0
136.31943,136.65276,61,60,0
136.31943,136.65276,64,60,0
136.65276,136.78297,62,60,0
136.65276,136.78297,66,60,0
136.9861,137.31943,80,60,0
137.31943,137.58505,81,60,0
137.65276,137.98608,63,60,0
137.65276,137.98608,72,60,0
137.98608,138.11646,64,60,0
137.98608,138.11646,71,60,0
138.3213,138.4884,80,60,0
138.66269,138.83374,59,60,0
138.66269,138.83374,69,60,0
139.01277,139.18915,75,60,0
139.37448,139.55676,64,60,0
139.37448,139.55676,68,60,0
139.74484,139.92714,76,60,0
140.48558,140.81892,57,60,0
140.48558,140.81892,64,60,0
140.48558,140.81892,49,60,0
140.81892,141.08455,56,60,0
140.81892,141.08455,62,60,0
140.81892,141.08455,47,60,0
140.48558,141.08455,52,60,0
141.81746,142.14949,57,60,0
141.81746,142.14949,61,60,0
141.81746,142.14949,45,60,0
142.14949,142.41399,56,60,0
142.14949,142.41399,59,60,0
142.14949,142.41399,40,60,0
141.81746,142.41399,52,60,0
143.14284,143.47316,59,60,0
143.14284,143.47316,66,60,0
143.14284,143.47316,50,60,0
143.47316,143.73607,58,59,0
143.47316,143.73607,64,59,0
143.47316,143.73607,49,59,0
143.14284,143.73607,54,60,0
144.46095,144.78958,59,67,0
144.46095,144.78958,62,67,0
144.46095,144.78958,47,67,0
144.78958,145.05093,58,69,0
144.78958,145.05093,61,69,0
144.78958,145.05093,42,69,0
144.46095,145.05093,54,67,0
145.77191,146.09843,61,76,0
145.77191,146.09843,71,76,0
145.77191,146.09843,55,76,0
146.09843,146.35828,62,78,0
146.09843,146.35828,69,78,0
146.09843,146.35828,54,78,0
145.77191,146.35828,57,76,0
147.07669,147.40277,64,85,0
147.07669,147.40277,67,85,0
147.07669,147.40277,49,85,0
147.40277,147.66263,62,88,0
147.40277,147.66263,66,88,0
147.40277,147.66263,50,88,0
147.07669,147.66263,57,85,0
148.38104,148.70712,59,95,0
148.38104,148.70712,69,95,0
148.38104,148.70712,51,95,0
148.38104,148.70712,54,95,0
148.70712,149.37425,57,97,0
148.70712,149.37425,61,97,0
148.70712,149.37425,52,97,0
149.37425,149.90842,62,60,0
149.37425,149.90842,47,60,0
149.37425,149.9987,56,60,0
149.37425,149.9987,40,60,0
149.90842,150.0578,59,60,0
149.90842,150.0578,50,60,0
150.0963,150.48091,57,60,0
150.0963,150.48091,45,60,0
150.0963,150.48091,49,60,0
151.25014,151.58348,61,60,0
151.25014,151.58348,64,60,0
151.58348,151.8491,59,60,0
151.58348,151.8491,62,60,0
151.91678,152.24962,75,60,0
152.24962,152.51456,76,60,0
152.58202,152.91405,57,60,0
152.58202,152.91405,61,60,0
152.91405,153.17854,52,60,0
152.91405,153.17854,56,60,0
152.91405,153.17854,59,60,0
153.24582,153.57683,78,60,0
153.57683,153.8403,76,60,0
153.9074,154.23772,62,60,0
153.9074,154.23772,66,60,0
154.23772,154.50063,61,60,0
154.23772,154.50063,64,60,0
154.56755,154.89676,77,60,0
154.89676,155.15877,78,60,0
155.22551,155.55414,59,60,0
155.22551,155.55414,62,60,0
155.55414,155.8155,54,60,0
155.55414,155.8155,58,60,0
155.55414,155.8155,61,60,0
155.88208,156.20949,79,60,0
156.20949,156.47006,78,60,0
156.53647,156.86299,67,60,0
156.53647,156.86299,71,60,0
156.86299,157.12283,66,60,0
156.86299,157.12283,69,60,0
157.18907,157.51517,80,60,0
157.51517,157.77501,81,60,0
157.84125,158.16733,61,60,0
157.84125,158.16733,64,60,0
158.16733,158.42719,62,60,0
158.16733,158.42719,66,60,0
157.84125,158.42719,69,60,0
158.49342,158.8195,83,60,0
158.8195,159.07936,81,60,0
159.1456,159.47168,63,60,0
159.1456,159.47168,66,60,0
159.1456,159.47168,71,60,0
159.80057,160.13881,88,79,0
159.47168,160.13881,64,79,0
159.47168,160.13881,69,79,0
160.13881,160.67299,71,60,0
160.13881,160.76326,64,60,0
160.67299,160.82236,68,60,0
160.49052,160.86086,88,60,0
160.86086,161.24547,57,60,0
160.86086,161.24547,69,60,0
161.24547,161.63008,81,60,0
162.0147,162.34804,52,60,0
162.34804,163.0147,64,60,0
163.0147,163.09811,64,60,0
163.09811,163.18187,62,60,0
163.18187,163.26604,64,60,0
163.26604,163.35072,62,60,0
163.35072,163.43599,64,60,0
163.43599,163.52193,62,60,0
163.52193,163.60864,61,60,0
163.60864,163.67686,62,60,0
163.696,164.196,61,60,0
164.196,164.27933,64,60,0
164.27933,164.34444,61,60,0
164.36267,164.52673,57,60,0
164.696,164.86006,57,60,0
165.02933,165.52933,59,60,0
165.52933,165.61267,62,60,0
165.61267,165.696,59,60,0
165.696,165.8262,56,60,0
166.02933,166.17256,56,60,0
166.321,166.36267,59,60,0
166.36267,166.42517,57,60,0
166.5295,166.61055,56,60,0
166.69704,166.77847,57,60,0
166.86542,166.94731,61,60,0
167.03479,167.11725,59,60,0
167.20534,167.28842,57,60,0
167.37723,167.46101,56,60,0
167.55061,167.63521,54,60,0
167.72574,167.80646,56,60,0
167.8924,167.97313,59,60,0
168.05907,168.13979,56,60,0
168.22572,168.30646,52,60,0
168.3924,168.4732,51,60,0
168.55956,168.64111,54,60,0
168.72842,168.81102,51,60,0
168.89963,168.98363,47,60,0
169.0737,169.15443,52,60,0
169.24037,169.32109,56,60,0
169.40703,169.48776,57,60,0
169.5737,169.65443,59,60,0
169.74037,169.82109,61,60,0
169.90703,169.98776,59,60,0
170.0737,170.15443,57,60,0
170.24037,170.32109,56,60,0
170.40703,170.48776,57,60,0
170.5737,170.65443,54,60,0
170.74036,170.82109,56,60,0
170.90703,170.98776,57,60,0
171.0737,171.15442,59,60,0
171.24036,171.32109,57,60,0
171.40703,171.48776,56,60,0
171.5737,171.65442,54,60,0
171.40703,171.74036,71,60,0
171.74036,172.0737,56,60,0
171.74036,172.40703,76,60,0
172.0737,172.40703,52,60,0
172.40703,172.49043,76,60,0
172.49043,172.57419,74,60,0
172.57419,172.65837,76,60,0
172.65837,172.74306,74,60,0
172.74306,172.82832,76,60,0
172.82832,172.91426,74,60,0
172.91426,173.00096,73,60,0
173.00096,173.0692,74,60,0
173.08833,173.58833,73,60,0
173.58833,173.67166,76,60,0
173.67166,173.73677,73,60,0
173.75499,173.91905,69,60,0
174.08833,174.2524,69,60,0
174.08833,174.2524,54,60,0
174.42166,174.92664,71,60,0
174.92664,175.01219,74,60,0
175.01219,175.07938,71,60,0
174.42166,175.09825,47,60,0
175.09825,175.26932,68,60,0
175.44835,175.62471,68,60,0
175.44835,175.81004,40,60,0
175.81004,175.89078,69,60,0
175.97672,176.05745,76,60,0
176.14337,176.2241,73,60,0
176.31004,176.39078,69,60,0
175.81004,176.47672,52,60,0
176.47672,176.55751,68,60,0
176.47672,176.56012,52,60,0
176.56012,176.64388,50,60,0
176.64388,176.72542,71,60,0
176.64388,176.72806,52,60,0
176.72806,176.81274,50,60,0
176.81274,176.89534,68,60,0
176.81274,176.89801,52,60,0
176.89801,176.98395,50,60,0
176.98395,177.06793,64,60,0
176.98395,177.07065,49,60,0
177.07065,177.13889,50,60,0
177.15802,177.23874,69,59,0
177.32468,177.40541,73,62,0
177.49135,177.57208,76,64,0
177.65802,177.73874,81,67,0
177.15802,177.82468,49,59,0
177.82468,177.90549,80,69,0
177.82468,177.9081,49,69,0
177.9081,177.99185,47,70,0
177.99185,178.0734,83,71,0
177.99185,178.07602,49,71,0
178.07602,178.1607,47,72,0
178.1607,178.2433,80,74,0
178.1607,178.24597,49,74,0
178.24597,178.33191,47,75,0
178.33191,178.41591,76,76,0
178.33191,178.41862,45,76,0
178.41862,178.48685,47,77,0
178.50598,178.58672,81,78,0
178.67265,178.75337,83,81,0
178.50598,178.83931,45,78,0
178.83931,178.92004,85,83,0
179.00598,179.08672,83,85,0
178.83931,179.17265,44,83,0
179.17265,179.25337,81,88,0
179.33931,179.42004,80,90,0
179.17265,179.50598,42,88,0
179.50598,179.58672,78,93,0
179.50598,179.67265,44,93,0
179.67265,179.75337,76,95,0
179.67265,179.80547,46,95,0
179.83931,180.00598,75,97,0
180.00598,180.17265,73,97,0
180.17265,180.33931,75,97,0
180.33931,180.50598,76,97,0
180.50598,180.67265,78,97,0
180.67265,180.83931,75,97,0
180.83931,181.00598,76,97,0
181.00598,181.1388,78,97,0
180.83931,181.17265,45,97,0
181.17265,181.33931,80,60,0
181.33931,181.50598,81,60,0
181.17265,181.50598,44,60,0
181.50598,181.67265,83,60,0
181.67265,181.80547,81,60,0
181.50598,181.83931,42,60,0
181.83931,182.00598,85,60,0
182.00598,182.1388,83,60,0
181.83931,182.17264,40,60,0
182.17264,182.25337,81,60,0
182.17264,182.33931,44,60,0
179.83931,182.40701,47,122,0
182.33931,182.42004,80,60,0
182.33931,182.47212,46,60,0
182.50598,182.67264,78,97,0
182.67264,182.83931,76,97,0
182.83931,183.00598,75,97,0
183.00598,183.17264,76,97,0
183.17264,183.33931,78,97,0
183.33931,183.50598,75,97,0
183.50598,183.67264,76,97,0
183.67264,183.80545,78,97,0
183.50598,183.83931,45,60,0
183.83931,184.00598,80,60,0
184.00598,184.17264,81,60,0
183.83931,184.17264,44,60,0
184.17264,184.33931,83,60,0
184.33931,184.47212,81,60,0
184.17264,184.50598,42,60,0
184.50598,184.67264,85,60,0
184.67264,184.80545,83,60,0
184.50598,184.83931,40,60,0
184.83931,184.92004,81,60,0
184.83931,185.00598,44,60,0
185.00598,185.0867,80,60,0
182.50598,185.17264,47,122,0
185.00598,185.17264,46,60,0
185.17264,185.25337,78,97,0
185.33961,185.42093,83,97,0
185.17264,185.43935,47,97,0
185.50784,185.58987,78,97,0
185.67761,185.7605,75,97,0
185.84923,185.93312,71,97,0
185.84923,185.93312,47,97,0
186.02303,186.10808,71,97,0
186.02303,186.10808,59,97,0
186.19933,186.28574,66,97,0
186.19933,186.28574,54,97,0
186.37851,186.46648,63,97,0
186.37851,186.46648,51,97,0
186.56102,186.9314,59,97,0
186.56102,186.9314,47,97,0
187.67213,187.75546,71,60,0
187.75546,187.8388,70,60,0
187.8388,187.92213,71,60,0
187.92213,187.98724,70,60,0
188.00546,188.16953,71,60,0
188.00546,188.16953,64,60,0
188.00546,188.16953,68,60,0
188.3388,188.50287,71,60,0
188.3388,188.50287,64,60,0
188.3388,188.50287,68,60,0
189.00546,189.0888,71,60,0
189.0888,189.17213,70,60,0
189.17213,189.25546,71,60,0
189.25546,189.32057,70,60,0
189.3388,189.50287,71,60,0
189.3388,189.50287,63,60,0
189.3388,189.50287,66,60,0
189.3388,189.50287,69,60,0
189.67213,189.8362,71,60,0
189.67213,189.8362,63,60,0
189.67213,189.8362,66,60,0
189.67213,189.8362,69,60,0
190.3388,190.5888,71,60,0
190.5888,190.67213,73,60,0
190.67213,190.83636,59,60,0
190.67213,190.83636,63,60,0
190.67213,190.83636,66,60,0
190.67213,190.92264,75,60,0
190.92264,191.0065,76,60,0
191.0065,191.17224,59,60,0
191.0065,191.17224,63,60,0
191.0065,191.17224,66,60,0
191.0065,191.25943,78,60,0
191.25943,191.34425,80,60,0
191.34425,191.51213,59,60,0
191.34425,191.51213,63,60,0
191.34425,191.51213,66,60,0
191.34425,191.60057,81,60,0
191.60057,191.68669,78,60,0
191.68669,191.85738,59,60,0
191.68669,191.85738,63,60,0
191.68669,191.85738,66,60,0
191.68669,191.94742,83,60,0
191.94742,192.01599,81,60,0
192.0352,192.38814,80,60,0
192.0352,192.38814,64,60,0
192.0352,192.38814,68,60,0
192.38814,192.66939,83,60,0
193.42735,193.59142,52,60,0
193.42735,193.59142,56,60,0
193.76068,193.84402,71,60,0
193.76068,193.92474,52,60,0
193.76068,193.92474,56,60,0
193.84402,193.92735,70,60,0
193.92735,194.01068,71,60,0
194.01068,194.07579,70,60,0
194.09402,194.42735,71,60,0
194.76068,194.92474,51,60,0
194.76068,194.92474,54,60,0
194.76068,194.92474,57,60,0
195.09402,195.17735,71,60,0
195.09402,195.25809,51,60,0
195.09402,195.25809,54,60,0
195.09402,195.25809,57,60,0
195.17735,195.26068,70,60,0
195.26068,195.34402,71,60,0
195.34402,195.40912,70,60,0
195.42735,195.76068,71,60,0
196.09402,196.25824,47,60,0
196.09402,196.25824,51,60,0
196.09402,196.25824,54,60,0
196.42839,196.59413,47,60,0
196.42839,196.59413,51,60,0
196.42839,196.59413,54,60,0
196.76614,196.93402,47,60,0
196.76614,196.93402,51,60,0
196.76614,196.93402,54,60,0
197.10858,197.27925,47,60,0
197.10858,197.27925,51,60,0
197.10858,197.27925,54,60,0
197.45709,197.81003,52,60,0
197.45709,197.81003,56,60,0
198.16296,198.41296,83,60,0
198.41296,198.4963,80,60,0
198.4963,198.7463,85,60,0
198.7463,198.8114,83,60,0
198.16296,198.82964,61,60,0
198.16296,198.82964,65,60,0
198.16296,198.82964,68,60,0
198.82964,199.09526,66,60,0
198.82964,199.09526,69,60,0
198.82964,199.16296,81,60,0
199.16296,199.42859,78,60,0
199.82964,200.16296,75,79,0
199.49629,200.16296,47,79,0
199.49629,200.16296,54,79,0
199.49629,200.16296,57,79,0
200.16296,200.42859,52,60,0
200.16296,200.42859,56,60,0
200.16296,200.49629,76,60,0
200.49629,200.76192,80,60,0
200.82964,201.07964,83,60,0
201.07964,201.16296,80,60,0
201.16296,201.41296,85,60,0
201.41296,201.47807,83,60,0
200.82964,201.49629,61,60,0
200.82964,201.49629,65,60,0
200.82964,201.49629,68,60,0
201.49629,201.76253,66,60,0
201.49629,201.76253,69,60,0
201.49629,201.83067,81,60,0
201.83067,202.09947,78,60,0
202.51085,202.85936,75,79,0
202.16843,202.85936,47,60,0
202.16843,202.85936,54,60,0
202.16843,202.85936,57,60,0
202.85936,202.99217,76,60,0
202.85936,202.99217,52,60,0
202.85936,202.99217,56,60,0
203.1927,203.52603,75,79,0
203.1927,203.52603,47,79,0
203.1927,203.52603,54,79,0
203.1927,203.52603,57,79,0
203.52603,203.65884,76,60,0
203.52603,203.65884,52,60,0
203.52603,203.65884,56,60,0
203.85936,204.1927,75,79,0
203.85936,204.1927,47,79,0
203.85936,204.1927,54,79,0
203.85936,204.1927,57,79,0
204.1927,204.32552,76,60,0
204.1927,204.32552,52,60,0
204.1927,204.32552,56,60,0
204.52603,204.77603,80,79,0
204.77603,204.85936,78,60,0
204.85936,205.10936,76,60,0
205.10936,205.19269,75,60,0
204.52603,205.19269,52,79,0
204.52603,205.19269,56,79,0
205.19269,205.44269,73,60,0
205.19269,205.44269,54,60,0
205.19269,205.44269,57,60,0
205.44269,205.5078,71,60,0
205.44269,205.5078,56,60,0
205.44269,205.5078,59,60,0
205.52603,205.69025,69,60,0
205.52603,205.69025,57,60,0
205.52603,205.69025,61,60,0
205.8604,206.02614,69,60,0
206.19815,206.36603,47,60,0
206.19815,206.36603,59,60,0
206.54059,206.71126,66,60,0
206.8891,207.1391,83,96,0
207.1391,207.22243,81,90,0
207.22243,207.47243,80,87,0
207.47243,207.55576,78,81,0
207.55576,207.80576,76,78,0
207.80576,207.8891,75,72,0
206.8891,207.8891,40,96,0
206.8891,207.8891,52,96,0
207.8891,208.1391,73,69,0
207.8891,208.1391,42,69,0
207.8891,208.1391,54,69,0
208.1391,208.2042,71,63,0
208.1391,208.2042,44,63,0
208.1391,208.2042,56,63,0
208.22243,208.38678,69,60,0
208.22243,208.38678,45,60,0
208.22243,208.38678,57,60,0
208.55763,208.72473,61,60,0
208.55763,208.72473,66,60,0
208.55763,208.72473,69,60,0
208.89902,209.07007,35,60,0
208.89902,209.07007,47,60,0
209.2491,209.42548,57,60,0
209.2491,209.42548,63,60,0
209.2491,209.42548,66,60,0
209.61081,209.98119,56,60,0
209.61081,209.98119,64,60,0
209.61081,209.98119,40,60,0
209.61081,209.98119,52,60,0
210.35155,210.51561,64,60,0
210.85155,210.93228,63,60,0
211.01822,211.18228,64,60,0
211.01822,211.18228,61,60,0
211.51822,211.59894,64,60,0
211.51822,211.59894,59,60,0
211.68488,211.84894,64,60,0
211.68488,211.84894,57,60,0
212.18488,212.26561,64,60,0
212.18488,212.26561,56,60,0
212.68654,213.37515,59,79,0
212.68654,213.37515,69,79,0
212.35155,213.37515,54,79,0
213.37515,213.65977,59,60,0
213.37515,213.65977,68,60,0
213.37515,213.65977,52,60,0
213.73346,213.89769,45,60,0
214.06784,214.23357,61,60,0
214.06784,214.23357,66,60,0
214.4056,214.57347,47,60,0
214.74802,214.9187,59,60,0
214.74802,214.9187,63,60,0
215.09653,215.27025,40,60,0
215.09653,215.27025,52,60,0
215.44948,215.62318,59,60,0
215.44948,215.62318,64,60,0
215.80241,215.88315,68,60,0
215.80241,215.88315,80,60,0
215.80241,215.88315,52,60,0
215.80241,215.88315,64,60,0
215.96909,216.0498,68,63,0
215.96909,216.0498,80,63,0
215.96909,216.0498,52,63,0
215.96909,216.0498,64,63,0
216.30241,216.38315,66,67,0
216.30241,216.38315,78,67,0
216.30241,216.38315,51,67,0
216.30241,216.38315,63,67,0
216.46909,216.5498,69,69,0
216.46909,216.5498,81,69,0
216.46909,216.5498,49,69,0
216.46909,216.5498,61,69,0
216.63574,216.71648,69,71,0
216.63574,216.71648,81,71,0
216.63574,216.71648,49,71,0
216.63574,216.71648,61,71,0
216.96909,217.0498,68,75,0
216.96909,217.0498,80,75,0
216.96909,217.0498,47,75,0
216.96909,217.0498,59,75,0
217.13574,217.21648,73,77,0
217.13574,217.21648,85,77,0
217.13574,217.21648,45,77,0
217.13574,217.21648,57,77,0
217.30241,217.38315,73,80,0
217.30241,217.38315,85,80,0
217.30241,217.38315,45,80,0
217.30241,217.38315,57,80,0
217.63574,217.71648,71,84,0
217.63574,217.71648,83,84,0
217.63574,217.71648,44,84,0
217.63574,217.71648,56,84,0
217.80241,218.13762,42,86,0
217.80241,218.13762,54,86,0
217.80241,218.82909,75,105,0
217.80241,218.82909,87,105,0
218.13762,218.82909,66,105,0
218.13762,218.82909,69,105,0
218.82909,219.11627,76,86,0
218.82909,219.11627,88,86,0
218.82909,219.11627,68,86,0
219.1908,219.35532,45,60,0
219.1908,219.35532,57,60,0
219.52705,219.6959,69,60,0
219.52705,219.6959,81,60,0
219.87311,220.04831,47,60,0
219.87311,220.04831,59,60,0
220.23328,220.41733,66,60,0
220.23328,220.41733,78,60,0
220.61298,220.77963,64,60,0
220.77963,220.9463,68,60,0
220.9463,221.11298,71,60,0
221.11298,221.27963,76,60,0
221.27963,221.4463,80,60,0
221.4463,221.61298,83,60,0
221.61298,221.77963,80,60,0
221.77963,221.91245,76,60,0
220.61298,221.9463,52,60,0
220.61298,221.9463,56,60,0
220.61298,221.9463,59,60,0
221.9463,222.11296,81,60,0
222.11296,222.27963,78,60,0
222.27963,222.4463,75,60,0
222.4463,222.61296,71,60,0
222.61296,222.77963,69,60,0
222.77963,222.9463,71,60,0
222.9463,223.11296,69,60,0
223.11296,223.24577,66,60,0
221.9463,223.27963,52,60,0
221.9463,223.27963,54,60,0
221.9463,223.27963,57,60,0
221.9463,223.27963,59,60,0
223.27963,223.4463,64,60,0
223.4463,223.61296,68,60,0
223.61296,223.77963,71,60,0
223.77963,223.9463,76,60,0
223.9463,224.11296,80,60,0
224.11296,224.27963,83,60,0
224.27963,224.4463,80,60,0
224.4463,224.57912,76,60,0
223.27963,224.61296,52,60,0
223.27963,224.61296,56,60,0
223.27963,224.61296,59,60,0
224.61296,224.77974,81,60,0
224.77974,224.94691,78,60,0
224.94691,225.11461,75,60,0
225.11461,225.2829,71,60,0
225.2829,225.45186,69,60,0
225.45186,225.62163,71,60,0
225.62163,225.79227,69,60,0
225.79227,225.92897,66,60,0
224.61296,225.9639,52,60,0
224.61296,225.9639,54,60,0
224.61296,225.9639,57,60,0
224.61296,225.9639,59,60,0
225.9639,226.04463,40,60,0
226.13057,226.21129,44,60,0
225.9639,226.29723,64,60,0
226.29723,226.37796,47,60,0
226.4639,226.54463,52,60,0
226.63057,226.71129,56,60,0
226.79723,226.87796,59,60,0
226.9639,227.04463,56,60,0
227.13057,227.21129,52,60,0
227.29723,227.37796,57,60,0
227.4639,227.54462,54,60,0
227.63055,227.71129,51,60,0
227.79723,227.87796,47,60,0
227.29723,227.9639,71,60,0
227.9639,228.04462,45,60,0
227.9639,228.12796,71,60,0
228.13055,228.21129,47,60,0
228.29723,228.37796,45,60,0
228.29723,228.42743,71,60,0
228.4639,228.54462,42,60,0
228.63055,228.71129,40,60,0
228.79723,228.87796,44,60,0
228.9639,229.04462,47,60,0
229.13055,229.21129,52,60,0
228.63055,229.29723,76,60,0
229.29723,229.37796,56,60,0
229.4639,229.54462,59,60,0
229.29723,229.56285,71,60,0
229.63055,229.71129,56,60,0
229.79723,229.87796,52,60,0
229.9639,230.04463,57,60,0
230.13074,230.21178,54,60,0
230.29826,230.3797,51,60,0
230.46664,230.54855,47,60,0
229.9639,230.63602,71,60,0
230.63602,230.71848,45,60,0
230.63602,230.8039,71,60,0
230.80656,230.88965,47,60,0
230.97845,231.06224,45,60,0
230.97845,231.1138,71,60,0
231.15184,231.23643,42,60,0
231.32697,231.40768,40,60,0
231.49368,231.57489,47,60,0
231.32697,231.66147,68,60,0
231.66147,231.74315,44,59,0
231.83029,231.91248,40,59,0
231.95753,232.0002,70,59,0
232.0002,232.08287,39,58,0
232.17119,232.25436,42,58,0
232.0002,232.27315,71,58,0
232.34329,232.42696,35,57,0
232.5165,232.60068,39,57,0
232.69029,232.77458,40,56,0
232.86531,232.95065,47,56,0
232.69029,233.04195,68,56,0
233.04195,233.1279,44,55,0
233.21976,233.30632,40,55,0
233.35394,233.39877,82,54,0
233.39877,233.48595,39,54,0
233.57898,233.66678,42,54,0
233.39877,233.68665,83,54,0
233.7604,233.84885,35,53,0
233.94308,234.03217,39,53,0
234.12703,234.21675,40,52,0
234.31311,234.4045,52,52,0
234.12703,234.50287,80,52,0
234.50287,234.59639,56,51,0
234.69728,234.79344,52,51,0
234.89745,234.99686,47,50,0
234.89745,235.10136,80,50,0
234.89745,235.10136,88,50,0
235.10466,235.20801,52,50,0
235.32043,235.4286,44,50,0
235.32043,235.54305,80,50,0
235.32043,235.54305,88,50,0
235.54663,235.66064,47,50,0
235.78566,236.28566,80,50,0
235.78566,236.28566,88,50,0
235.78566,236.28566,40,50,0
237.28566,237.61899,53,50,0
237.28566,237.61899,37,50,0
237.61899,237.88461,54,50,0
237.28566,237.88461,61,50,0
237.61899,237.88461,39,50,0
237.28566,237.88461,49,50,0
238.61899,238.95233,56,50,0
238.61899,238.95233,41,50,0
238.95233,239.21796,57,50,0
238.61899,239.21796,61,50,0
238.95233,239.21796,42,50,0
238.61899,239.21796,49,50,0
239.95233,240.28566,59,50,0
239.95233,240.28566,61,50,0
239.95233,240.28566,44,50,0
240.28566,240.55164,61,50,0
240.28566,240.55164,45,50,0
239.95233,240.55164,49,50,0
240.95558,241.12192,57,50,0
240.95558,241.12192,61,50,0
240.95558,241.12192,66,50,0
240.95558,241.12192,42,50,0
240.95558,241.12192,49,50,0
241.6366,241.8063,56,50,0
241.6366,241.8063,61,50,0
241.6366,241.8063,65,50,0
241.6366,241.8063,37,50,0
241.6366,241.8063,49,50,0
242.67107,243.0159,49,97,0
243.0159,243.68257,61,97,0
243.68257,243.76598,61,97,0
243.76598,243.84973,59,97,0
243.84973,243.93391,61,97,0
243.93391,244.01859,59,97,0
244.10387,244.1898,59,97,0
244.1898,244.2765,57,97,0
244.2765,244.34474,59,97,0
244.01859,244.36386,61,122,0
244.36386,245.03053,73,97,0
244.36386,245.03053,57,97,0
245.03053,245.11394,73,97,0
245.03053,245.11394,57,97,0
245.11394,245.1977,71,97,0
245.11394,245.1977,56,97,0
245.1977,245.28188,73,97,0
245.1977,245.28188,57,97,0
245.28188,245.36656,71,97,0
245.28188,245.36656,56,97,0
245.36656,245.45183,73,97,0
245.36656,245.45183,57,97,0
245.45183,245.53777,71,97,0
245.45183,245.53777,56,97,0
245.53777,245.62447,69,97,0
245.53777,245.62447,54,97,0
245.62447,245.6927,71,97,0
245.62447,245.6927,56,97,0
245.71184,246.07294,69,121,0
245.71184,246.07294,54,121,0
246.07294,246.46289,68,87,0
246.07294,246.46289,53,87,0
246.46289,246.89995,69,78,0
246.46289,246.89995,54,78,0
246.89995,247.32428,66,69,0
246.89995,247.32428,71,69,0
246.89995,247.32428,50,69,0
247.41562,249.41562,68,60,0
247.41562,249.41562,73,60,0
247.41562,249.41562,49,60,0
250.41562,250.74895,38,97,0
250.74895,251.41562,50,97,0
251.41562,251.49902,50,97,0
251.49902,251.58278,48,97,0
251.58278,251.66696,50,97,0
251.66696,251.75163,48,97,0
251.75163,251.83691,50,97,0
251.83691,251.92285,48,97,0
251.92285,252.00955,47,97,0
252.00955,252.07777,48,97,0
252.09691,252.76358,47,97,0
252.76358,252.84698,47,97,0
252.84698,252.93074,45,97,0
252.93074,253.01492,47,97,0
253.01492,253.09961,45,97,0
253.09961,253.18488,47,97,0
253.18488,253.27081,45,97,0
253.27081,253.35751,43,97,0
253.35751,253.42575,45,97,0
253.09961,253.44489,62,97,0
253.44489,253.77821,43,97,0
253.77821,254.11154,42,97,0
253.44489,254.44489,74,97,0
254.11154,254.44489,43,97,0
254.44489,254.71051,79,116,0
254.44489,254.71051,39,116,0
254.77821,255.11154,78,97,0
255.11154,255.44489,76,97,0
255.44489,255.77821,78,97,0
254.77821,255.77821,38,97,0
255.77821,256.04382,80,116,0
255.77821,256.11154,35,116,0
255.77821,256.11154,47,116,0
256.11154,256.4449,33,97,0
256.11154,256.4449,45,97,0
256.4449,256.7782,44,97,0
256.11154,257.11154,81,97,0
256.7782,257.11154,45,97,0
257.11154,257.37717,41,116,0
257.11154,257.4449,81,116,0
257.4449,257.7782,80,97,0
257.7782,258.11154,78,97,0
258.11154,258.4449,80,97,0
257.4449,258.4449,40,97,0
258.4449,258.7105,82,116,0
258.4449,258.7782,37,116,0
258.4449,258.7782,49,116,0
258.7782,259.1134,35,97,0
258.7782,259.1134,47,97,0
259.1134,259.4548,46,97,0
258.7782,259.8049,83,97,0
259.4548,259.8049,47,97,0
259.8049,260.09207,43,116,0
259.8049,260.1666,83,116,0
260.1666,260.49994,82,97,0
260.1666,260.49994,42,97,0
260.49994,260.83325,56,60,0
260.49994,260.83325,59,60,0
260.83325,260.96375,58,60,0
260.83325,260.96375,61,60,0
261.16928,261.51456,46,60,0
261.16928,261.51456,49,60,0
261.51456,261.64478,47,60,0
261.51456,261.64478,50,60,0
261.8479,262.1812,59,60,0
261.8479,262.1812,62,60,0
262.1812,262.3117,61,60,0
262.1812,262.3117,64,60,0
262.51724,262.86252,49,60,0
262.51724,262.86252,52,60,0
262.86252,262.99274,50,60,0
262.86252,262.99274,54,60,0
262.86252,263.5292,83,60,0
263.19586,263.5292,61,60,0
263.19586,263.5292,64,60,0
263.5292,263.6126,83,60,0
263.5292,263.65967,63,60,0
263.5292,263.65967,66,60,0
263.6126,263.69635,81,60,0
263.69635,263.78055,83,60,0
263.78055,263.86523,81,60,0
263.86523,263.9505,83,60,0
263.9505,264.03644,81,60,0
264.03644,264.12314,79,60,0
264.12314,264.19138,81,60,0
263.86523,264.2105,51,60,0
263.86523,264.2105,54,60,0
264.2105,264.3407,52,60,0
264.2105,264.3407,55,60,0
264.2105,264.87717,79,60,0
264.54382,264.87717,64,60,0
264.54382,264.87717,67,60,0
264.87717,264.96057,79,60,0
264.87717,265.00763,66,60,0
264.87717,265.00763,69,60,0
264.96057,265.04434,78,60,0
265.04434,265.1285,79,60,0
265.1285,265.2132,78,60,0
265.2132,265.29846,79,60,0
265.29846,265.3844,78,60,0
265.3844,265.4711,76,60,0
265.4711,265.53934,78,60,0
265.2132,265.55847,54,60,0
265.2132,265.55847,57,60,0
265.55847,265.68866,55,60,0
265.55847,265.68866,59,60,0
265.55847,265.89178,76,60,0
265.89178,266.22513,54,60,0
265.89178,266.22513,57,60,0
266.22513,266.35562,56,60,0
266.22513,266.35562,59,60,0
266.56116,266.90643,44,60,0
266.56116,266.90643,47,60,0
266.90643,267.03665,45,60,0
266.90643,267.03665,48,60,0
267.23978,267.5731,57,60,0
267.23978,267.5731,60,60,0
267.5731,267.70358,59,60,0
267.5731,267.70358,62,60,0
267.90912,268.2544,47,60,0
267.90912,268.2544,50,60,0
268.2544,268.3846,48,60,0
268.2544,268.3846,52,60,0
268.2544,268.92108,81,60,0
268.58774,268.92108,59,60,0
268.58774,268.92108,62,60,0
268.92108,269.0045,81,60,0
268.92108,269.05154,61,60,0
268.92108,269.05154,64,60,0
269.0045,269.08823,79,60,0
269.08823,269.17242,81,60,0
269.17242,269.25708,79,60,0
269.25708,269.34238,81,60,0
269.34238,269.4283,79,60,0
269.4283,269.515,77,60,0
269.515,269.58325,79,60,0
269.25708,269.60236,49,60,0
269.25708,269.60236,52,60,0
269.60236,269.73273,50,60,0
269.60236,269.73273,53,60,0
269.60236,269.9376,77,60,0
269.9376,270.02225,77,60,0
270.02225,270.10736,76,60,0
270.10736,270.1929,74,60,0
270.1929,270.26007,76,60,0
269.9376,270.27896,52,60,0
269.9376,270.27896,55,60,0
270.27896,270.41452,53,60,0
270.27896,270.41452,57,60,0
270.27896,270.62906,74,60,0
270.62906,270.71826,74,60,0
270.71826,270.80823,72,60,0
270.80823,270.89905,71,60,0
270.89905,270.97067,72,60,0
270.62906,270.99075,51,60,0
270.62906,270.99075,54,60,0
270.99075,271.12097,56,60,0
270.99075,271.3241,71,60,0
271.3241,271.65924,75,60,0
271.65924,271.79065,76,60,0
271.99564,272.33203,68,60,0
271.99564,272.33203,71,60,0
271.99564,272.33203,62,60,0
272.33203,272.46454,69,60,0
272.33203,272.46454,72,60,0
272.33203,272.46454,60,60,0
272.67337,273.0173,75,60,0
273.0173,273.15244,76,60,0
270.99075,273.61188,52,60,0
273.36325,273.7092,69,60,0
273.36325,273.7092,72,60,0
273.36325,273.7092,63,60,0
273.7092,273.84433,68,60,0
273.7092,273.84433,71,60,0
273.7092,273.84433,64,60,0
274.0589,274.41205,75,60,0
274.41205,274.55115,76,60,0
274.76813,275.12418,68,60,0
274.76813,275.12418,71,60,0
274.76813,275.12418,62,60,0
275.12418,275.26324,69,60,0
275.12418,275.26324,72,60,0
275.12418,275.26324,60,60,0
275.48267,275.8458,75,60,0
275.8458,275.98883,76,60,0
276.21234,276.5791,69,60,0
276.21234,276.5791,72,60,0
276.21234,276.5791,63,60,0
276.5791,276.72238,68,60,0
276.5791,276.72238,71,60,0
276.5791,276.72238,64,60,0
273.7092,276.72238,52,60,0
276.9468,277.3211,75,60,0
277.3211,277.46774,76,60,0
278.45447,278.83987,82,60,0
278.83987,278.99072,83,60,0
280.01312,280.40094,85,60,0
280.40094,280.5515,83,60,0
281.53543,281.89966,78,60,0
281.89966,282.03992,76,60,0
282.96835,283.31378,71,60,0
283.31378,283.44803,69,60,0
284.3333,284.665,64,60,0
284.665,284.7935,63,60,0
285.64688,285.9684,64,60,0
285.9684,286.09344,63,60,0
286.9237,287.25037,64,60,0
287.25037,287.3807,62,60,0
288.30676,288.69934,64,60,0
288.69934,288.8604,62,60,0
289.12042,289.57837,61,60,0
289.12042,289.57837,45,60,0
289.12042,289.70856,57,60,0
289.57837,289.70856,62,60,0
289.57837,289.70856,47,60,0
290.57837,290.91168,64,60,0
290.57837,290.91168,49,60,0
290.57837,291.0419,57,60,0
290.91168,291.0419,66,60,0
290.91168,291.0419,50,60,0
291.91168,292.24503,57,60,0
291.91168,292.24503,64,60,0
291.91168,292.24503,49,60,0
292.24503,292.3752,56,60,0
292.24503,292.3752,62,60,0
292.24503,292.3752,47,60,0
291.91168,292.3752,52,60,0
292.91415,293.07996,57,60,0
292.91415,293.07996,61,60,0
292.91415,293.07996,45,60,0
292.91415,293.07996,52,60,0
293.5911,293.7593,56,60,0
293.5911,293.7593,59,60,0
293.5911,293.7593,40,60,0
293.5911,293.7593,52,60,0
294.62973,294.98267,61,60,0
294.62973,294.98267,45,60,0
294.62973,295.11288,57,60,0
294.98267,295.11288,62,60,0
294.98267,295.11288,47,60,0
295.98267,296.316,64,60,0
295.98267,296.316,49,60,0
295.98267,296.4462,57,60,0
296.316,296.4462,66,60,0
296.316,296.4462,50,60,0
297.316,297.64932,60,60,0
297.316,297.64932,66,60,0
297.316,297.64932,69,60,0
297.316,297.64932,51,60,0
297.64932,297.77954,59,60,0
297.64932,297.77954,64,60,0
297.64932,297.77954,68,60,0
297.64932,297.77954,52,60,0
298.3205,298.4877,57,60,0
298.3205,298.4877,63,60,0
298.3205,298.4877,47,60,0
299.00586,299.17758,56,60,0
299.00586,299.17758,64,60,0
299.00586,299.17758,40,60,0
300.07776,300.17035,83,60,0
300.17035,300.26294,81,61,0
300.26294,300.35553,83,62,0
300.35553,300.44812,81,63,0
300.07776,300.44812,57,60,0
300.07776,300.44812,61,60,0
300.44812,300.53146,83,64,0
300.44812,300.57834,59,64,0
300.44812,300.57834,62,64,0
300.53146,300.61478,81,64,0
300.61478,300.69812,83,65,0
300.69812,300.78146,81,66,0
300.78146,300.86478,83,67,0
300.86478,300.94812,81,68,0
300.94812,301.03146,83,68,0
301.03146,301.11478,81,69,0
300.78146,301.11478,47,67,0
300.78146,301.11478,50,67,0
301.11478,301.19812,83,70,0
301.11478,301.245,49,70,0
301.11478,301.245,52,70,0
301.19812,301.28146,81,71,0
301.28146,301.36478,83,72,0
301.36478,301.44812,81,72,0
301.44812,301.53146,83,73,0
301.53146,301.61478,81,74,0
301.61478,301.69812,83,75,0
301.69812,301.78146,81,76,0
301.44812,301.78146,61,73,0
301.44812,301.78146,64,73,0
301.78146,301.86478,83,76,0
301.78146,301.91165,62,76,0
301.78146,301.91165,66,76,0
301.86478,301.94812,81,77,0
301.94812,302.03146,83,78,0
302.03146,302.11478,81,79,0
302.11478,302.19812,83,80,0
302.19812,302.28146,81,80,0
302.28146,302.36478,83,81,0
302.36478,302.44812,81,82,0
302.11478,302.44812,50,80,0
302.11478,302.44812,54,80,0
302.44812,302.53146,83,83,0
302.44812,302.57834,49,83,0
302.44812,302.57834,52,83,0
302.53146,302.61478,81,83,0
302.61478,302.69812,80,84,0
302.69812,302.7632,81,85,0
302.78146,302.86218,88,60,0
302.94812,303.02884,88,60,0
302.78146,303.11478,61,60,0
303.11478,303.245,59,60,0
302.78146,303.245,64,60,0
303.11478,303.2815,88,60,0
303.2815,303.4146,87,60,0
303.44858,303.5296,88,60,0
303.44858,303.6134,47,60,0
303.61603,303.69733,88,60,0
303.78394,303.94974,57,60,0
303.78394,303.94974,64,60,0
303.78394,303.9524,88,60,0
303.9524,304.087,87,60,0
304.1214,304.20343,88,60,0
304.1214,304.28833,45,60,0
304.291,304.37326,88,60,0
304.46085,304.54355,88,60,0
304.46085,304.6291,56,60,0
304.46085,304.6291,59,60,0
304.46085,304.6291,64,60,0
304.63177,304.7149,83,60,0
304.8036,304.88705,80,60,0
304.8036,304.9735,40,60,0
304.9762,305.0601,76,60,0
305.1497,305.2341,71,60,0
305.3241,305.40906,64,60,0
305.49948,305.58774,83,60,0
305.58774,305.67596,81,61,0
305.67596,305.7642,83,62,0
305.7642,305.85245,81,63,0
305.49948,305.85245,57,60,0
305.49948,305.85245,61,60,0
305.85245,305.93576,83,64,0
305.85245,305.98264,59,64,0
305.85245,305.98264,62,64,0
305.93576,306.0191,81,64,0
306.0191,306.10245,83,65,0
306.10245,306.18576,81,66,0
306.18576,306.2691,83,67,0
306.2691,306.35245,81,68,0
306.35245,306.43576,83,68,0
306.43576,306.5191,81,69,0
306.18576,306.5191,47,67,0
306.18576,306.5191,50,67,0
306.5191,306.60245,83,70,0
306.5191,306.64932,49,70,0
306.5191,306.64932,52,70,0
306.60245,306.68576,81,71,0
306.68576,306.7691,83,72,0
306.7691,306.85245,81,72,0
306.85245,306.93576,83,73,0
306.93576,307.0191,81,74,0
307.0191,307.10245,83,75,0
307.10245,307.18576,81,76,0
306.85245,307.18576,61,73,0
306.85245,307.18576,64,73,0
307.18576,307.2691,83,76,0
307.18576,307.31598,62,76,0
307.18576,307.31598,66,76,0
307.2691,307.35245,81,77,0
307.35245,307.43576,83,78,0
307.43576,307.5191,81,79,0
307.5191,307.60245,83,80,0
307.60245,307.68576,81,80,0
307.68576,307.7691,83,81,0
307.7691,307.85245,81,82,0
307.5191,307.85245,50,80,0
307.5191,307.85245,54,80,0
307.85245,307.93576,83,83,0
307.85245,307.98264,49,83,0
307.85245,307.98264,52,83,0
307.93576,308.0191,81,83,0
308.0191,308.10245,80,84,0
308.10245,308.16754,81,85,0
308.18576,308.2665,84,60,0
308.35245,308.43317,84,60,0
308.18576,308.5191,63,60,0
308.18576,308.5191,66,60,0
308.5191,308.64932,64,60,0
308.5191,308.64932,68,60,0
308.5191,308.68585,83,60,0
308.68585,308.81918,88,60,0
308.85324,308.93454,83,60,0
308.85324,309.01874,52,60,0
309.02136,309.1031,80,60,0
309.19025,309.27246,81,60,0
309.19025,309.35748,59,60,0
309.19025,309.35748,66,60,0
309.36014,309.4428,78,60,0
309.53107,309.61417,75,60,0
309.53107,309.7004,47,60,0
309.70312,309.78668,69,60,0
309.87564,309.95996,68,60,0
309.87564,310.04733,56,60,0
309.87564,310.04733,59,60,0
309.87564,310.04733,64,60,0
310.05008,310.13528,76,60,0
310.22626,310.31204,71,60,0
310.22626,310.40118,40,60,0
310.40396,310.49057,68,60,0
310.5833,310.76163,64,60,0
310.9475,311.3179,57,60,0
310.9475,311.3179,64,60,0
310.9475,311.3179,49,60,0
311.3179,311.4481,56,60,0
311.3179,311.4481,62,60,0
311.3179,311.4481,47,60,0
310.9475,311.4481,52,60,0
312.31644,312.64847,57,60,0
312.31644,312.64847,61,60,0
312.31644,312.64847,45,60,0
312.64847,312.77817,56,60,0
312.64847,312.77817,59,60,0
312.64847,312.77817,40,60,0
312.31644,312.77817,52,60,0
313.6418,313.97214,59,59,0
313.6418,313.97214,66,59,0
313.6418,313.97214,50,59,0
313.97214,314.10117,58,62,0
313.97214,314.10117,64,62,0
313.97214,314.10117,49,62,0
313.6418,314.10117,54,59,0
314.95993,315.28857,59,68,0
314.95993,315.28857,62,68,0
314.95993,315.28857,47,68,0
315.28857,315.41675,58,71,0
315.28857,315.41675,61,71,0
315.28857,315.41675,42,71,0
314.95993,315.41675,54,68,0
316.27087,316.5974,61,77,0
316.27087,316.5974,71,77,0
316.27087,316.5974,55,77,0
316.5974,316.7248,62,80,0
316.5974,316.7248,69,80,0
316.5974,316.7248,54,80,0
316.27087,316.7248,57,77,0
317.57565,317.90176,64,86,0
317.57565,317.90176,67,86,0
317.57565,317.90176,49,86,0
317.90176,318.02914,62,88,0
317.90176,318.02914,66,88,0
317.90176,318.02914,50,88,0
317.57565,318.02914,57,86,0
318.88,319.20612,59,95,0
318.88,319.20612,69,95,0
318.88,319.20612,51,95,0
318.88,319.20612,54,95,0
319.20612,319.865,57,96,0
319.20612,319.865,61,96,0
319.20612,319.865,52,96,0
319.865,320.37354,62,78,0
319.865,320.37354,47,78,0
319.865,320.44608,56,78,0
319.865,320.44608,40,78,0
320.37354,320.51053,59,65,0
320.37354,320.51053,50,65,0
320.54544,320.898,57,60,0
320.54544,320.898,45,60,0
320.54544,320.898,49,60,0
321.6352,322.0198,61,60,0
321.6352,322.0198,64,60,0
322.0198,322.15002,59,60,0
322.0198,322.15002,62,60,0
322.18646,322.2672,39,60,0
322.35312,322.43375,40,60,0
322.51956,322.6002,39,60,0
322.68594,322.84958,40,60,0
323.01834,323.35037,57,60,0
323.01834,323.35037,61,60,0
323.35037,323.48007,56,60,0
323.35037,323.48007,59,60,0
323.5164,323.59677,78,60,0
323.68216,323.76236,76,60,0
323.84772,323.9279,78,60,0
324.01315,324.17596,76,60,0
324.34372,324.67404,62,59,0
324.34372,324.67404,66,59,0
324.67404,324.80307,61,62,0
324.67404,324.80307,64,62,0
324.83914,324.91895,41,63,0
325.00388,325.08368,42,64,0
325.16858,325.24826,41,65,0
325.3331,325.49496,42,66,0
325.66183,325.99048,59,68,0
325.66183,325.99048,62,68,0
325.99048,326.11865,58,71,0
325.99048,326.11865,61,71,0
326.1545,326.23392,79,72,0
326.31842,326.39774,78,73,0
326.48215,326.56143,79,74,0
326.6458,326.80676,78,75,0
326.9728,327.29932,67,77,0
326.9728,327.29932,71,77,0
327.29932,327.4267,66,80,0
327.29932,327.4267,69,80,0
327.46237,327.54135,44,81,0
327.6254,327.70438,45,82,0
327.78845,327.86743,44,83,0
327.95148,328.03046,45,84,0
328.11453,328.1935,46,85,0
328.2776,328.35657,47,86,0
328.4406,328.5196,46,87,0
328.2776,328.60367,64,86,0
328.2776,328.60367,67,86,0
328.60367,328.68265,47,88,0
328.60367,328.73105,62,88,0
328.60367,328.73105,66,88,0
328.7667,328.84567,49,90,0
328.92975,329.00873,50,91,0
329.0928,329.17178,49,92,0
329.25583,329.3348,50,93,0
329.41888,329.49786,51,94,0
329.5819,329.6609,52,95,0
329.74496,329.82394,51,96,0
329.5819,329.90802,61,95,0
329.5819,329.90802,69,95,0
329.90802,329.96915,57,96,0
329.90802,329.96915,61,96,0
329.90802,330.06894,52,96,0
330.0715,330.15137,87,92,0
330.2369,330.3178,88,87,0
330.4046,330.48682,87,83,0
330.57513,330.6589,88,78,0
330.57513,330.74628,52,78,0
330.57513,330.74628,56,78,0
330.57513,330.74628,59,78,0
330.57513,330.74628,62,78,0
330.74902,330.83463,87,74,0
330.92685,331.01462,88,69,0
331.1093,331.1996,88,65,0
331.29718,331.63156,81,60,0
331.29718,331.63156,45,60,0
331.29718,331.63156,49,60,0
331.29718,331.63156,52,60,0
331.29718,331.63156,57,60,0
337.68945,338.03796,69,60,0
338.03796,338.70462,81,60,0
338.70462,338.78802,81,60,0
338.78802,338.8718,79,60,0
338.8718,338.95596,81,60,0
338.95596,339.04065,79,60,0
339.04065,339.12592,81,60,0
339.12592,339.21185,79,60,0
339.21185,339.29855,78,60,0
339.29855,339.3668,79,60,0
339.38593,339.88593,78,60,0
339.88593,339.96924,81,60,0
339.96924,340.03436,78,60,0
340.05258,340.21664,74,60,0
340.38593,340.55,74,60,0
340.38593,340.55,59,60,0
340.71924,341.21924,76,60,0
341.21924,341.30258,79,60,0
341.30258,341.36768,76,60,0
340.71924,341.38593,52,60,0
341.38593,341.55,73,60,0
341.71924,341.8833,73,60,0
341.71924,342.05258,45,60,0
342.05258,342.1333,74,59,0
342.21924,342.3,78,61,0
342.38593,342.46664,76,63,0
342.55258,342.6333,74,64,0
342.05258,342.71924,57,59,0
342.71924,342.80005,73,66,0
342.71924,342.80264,57,66,0
342.80264,342.8864,55,67,0
342.8864,342.96796,69,67,0
342.8864,342.97058,57,67,0
342.97058,343.05527,55,68,0
343.05527,343.13788,71,69,0
343.05527,343.14053,57,69,0
343.14053,343.22647,55,70,0
343.22647,343.3105,73,71,0
343.22647,343.3132,54,71,0
343.3132,343.3814,55,71,0
343.40054,343.4813,74,72,0
343.56723,343.64795,86,74,0
343.7339,343.8146,85,75,0
343.90054,343.9813,83,77,0
343.40054,344.06723,54,72,0
344.06723,344.148,82,78,0
344.06723,344.15063,54,78,0
344.15063,344.23438,52,79,0
344.23438,344.31592,78,80,0
344.23438,344.31857,54,80,0
344.31857,344.40323,52,81,0
344.40323,344.48584,80,82,0
344.40323,344.48853,54,82,0
344.48853,344.57446,52,82,0
344.57446,344.65845,82,83,0
344.57446,344.66116,50,83,0
344.66116,344.7294,52,84,0
344.7485,344.82925,83,85,0
344.9152,344.9959,85,86,0
344.7485,345.08185,50,85,0
345.08185,345.16257,86,88,0
345.2485,345.32925,85,89,0
345.08185,345.4152,49,88,0
345.4152,345.4959,83,91,0
345.58185,345.66257,85,93,0
345.4152,345.7485,47,91,0
345.7485,345.82925,83,94,0
345.7485,345.9152,49,94,0
345.9152,345.9959,81,96,0
345.9152,346.048,51,96,0
346.08185,346.2485,80,97,0
346.2485,346.4152,78,97,0
346.4152,346.58185,76,97,0
346.58185,346.7485,78,97,0
346.7485,346.9152,80,97,0
346.9152,347.08185,76,97,0
347.08185,347.2485,78,97,0
347.2485,347.38132,80,97,0
347.08185,347.4152,50,97,0
347.4152,347.58185,81,60,0
347.58185,347.7485,83,60,0
347.4152,347.7485,49,60,0
347.7485,347.9152,85,60,0
347.9152,348.048,83,60,0
347.7485,348.08185,47,60,0
348.08185,348.2485,86,60,0
348.2485,348.38132,85,60,0
348.08185,348.4152,45,60,0
348.4152,348.4959,83,60,0
348.4152,348.58185,49,60,0
346.08185,348.64957,52,97,0
348.58185,348.66257,81,60,0
348.58185,348.71466,51,60,0
348.7485,348.9152,80,97,0
348.9152,349.08185,78,97,0
349.08185,349.2485,76,97,0
349.2485,349.4152,78,97,0
349.4152,349.58185,80,97,0
349.58185,349.7485,76,97,0
349.7485,349.9152,78,97,0
349.9152,350.048,80,97,0
349.7485,350.08185,50,97,0
350.08185,350.2485,81,60,0
350.2485,350.4152,83,60,0
350.08185,350.4152,49,60,0
350.4152,350.58185,85,60,0
350.58185,350.71466,83,60,0
350.4152,350.7485,47,60,0
350.7485,350.9152,86,60,0
350.9152,351.048,85,60,0
350.7485,351.08185,45,60,0
351.08185,351.16257,83,60,0
351.08185,351.2485,49,60,0
348.7485,351.31622,52,97,0
351.2485,351.32925,81,60,0
351.2485,351.38132,51,60,0
351.4152,351.4959,80,97,0
351.58215,351.66345,88,97,0
351.4152,351.7504,52,97,0
351.7504,351.8324,83,97,0
351.92017,352.00302,80,97,0
352.09177,352.17566,76,97,0
352.09177,352.17566,40,97,0
352.26556,352.35062,76,97,0
352.26556,352.35062,52,97,0
352.44186,352.52826,71,97,0
352.44186,352.52826,47,97,0
352.62103,352.709,68,97,0
352.62103,352.709,44,97,0
352.80356,353.17392,64,97,0
352.80356,353.17392,40,97,0
353.91467,353.99802,76,60,0
353.99802,354.08133,75,60,0
354.08133,354.16467,76,60,0
354.16467,354.22977,75,60,0
354.24802,354.41208,76,60,0
354.24802,354.41208,69,50,0
354.24802,354.41208,73,50,0
354.58133,354.7454,76,60,0
354.58133,354.7454,69,50,0
354.58133,354.7454,73,50,0
355.24802,355.33133,76,60,0
355.33133,355.41467,75,60,0
355.41467,355.49802,76,60,0
355.49802,355.5631,75,60,0
355.58133,355.7454,76,60,0
355.58133,355.7454,68,50,0
355.58133,355.7454,71,50,0
355.58133,355.7454,74,50,0
355.91467,356.07874,76,60,0
355.91467,356.07874,68,50,0
355.91467,356.07874,71,50,0
355.91467,356.07874,74,50,0
356.58133,356.83133,76,60,0
356.83133,356.91467,78,60,0
356.91467,357.0789,64,50,0
356.91467,357.0789,68,50,0
356.91467,357.0789,71,50,0
356.91467,357.16516,80,60,0
357.16516,357.24902,81,60,0
357.24902,357.41476,64,50,0
357.24902,357.41476,68,50,0
357.24902,357.41476,71,50,0
357.24902,357.50195,83,60,0
357.50195,357.5868,85,60,0
357.5868,357.75467,64,50,0
357.5868,357.75467,68,50,0
357.5868,357.75467,71,50,0
357.5868,357.8431,86,60,0
357.8431,357.92923,83,60,0
357.92923,358.0999,64,50,0
357.92923,358.0999,68,50,0
357.92923,358.0999,71,50,0
357.92923,358.18994,88,60,0
358.18994,358.2585,86,60,0
358.27774,358.63068,85,60,0
358.63068,358.91193,88,60,0
358.27774,358.9836,69,50,0
358.27774,358.9836,73,50,0
359.6699,359.83395,57,50,0
359.6699,359.83395,61,50,0
360.00323,360.08655,76,60,0
360.00323,360.1673,57,50,0
360.00323,360.1673,61,50,0
360.08655,360.1699,75,60,0
360.1699,360.25323,76,60,0
360.25323,360.31833,75,60,0
360.33655,360.6699,76,60,0
361.00323,361.1673,56,50,0
361.00323,361.1673,59,50,0
361.00323,361.1673,62,50,0
361.33655,361.4199,76,60,0
361.33655,361.5006,56,50,0
361.33655,361.5006,59,50,0
361.33655,361.5006,62,50,0
361.4199,361.50323,75,60,0
361.50323,361.58655,76,60,0
361.58655,361.65167,75,60,0
361.6699,362.00323,76,60,0
362.33655,362.5008,52,50,0
362.33655,362.5008,56,50,0
362.33655,362.5008,59,50,0
362.67093,362.83667,52,50,0
362.67093,362.83667,56,50,0
362.67093,362.83667,59,50,0
363.00867,363.17654,52,50,0
363.00867,363.17654,56,50,0
363.00867,363.17654,59,50,0
363.3511,363.5218,52,50,0
363.3511,363.5218,56,50,0
363.3511,363.5218,59,50,0
363.69962,364.40552,57,50,0
363.69962,364.40552,61,50,0
364.73883,365.07217,82,60,0
364.40552,365.07217,54,50,0
364.40552,365.07217,61,50,0
365.07217,365.3378,59,50,0
365.07217,365.3378,62,50,0
364.40552,365.3378,66,50,0
365.07217,365.4055,83,60,0
365.4055,365.6711,86,60,0
365.73883,365.98883,86,79,0
365.98883,366.07217,83,60,0
366.07217,366.32217,88,60,0
366.32217,366.38727,86,60,0
365.73883,366.4055,64,69,0
365.73883,366.4055,68,69,0
365.73883,366.4055,71,69,0
366.4055,366.6711,69,50,0
366.4055,366.6711,73,50,0
366.4055,366.73883,85,60,0
366.73883,367.00446,88,60,0
367.4055,367.73883,82,60,0
367.07217,367.73883,54,69,0
367.07217,367.73883,61,69,0
367.73883,368.00507,59,50,0
367.73883,368.00507,62,50,0
367.07217,368.00507,66,69,0
367.73883,368.0732,83,60,0
368.0732,368.342,86,60,0
368.41095,368.66727,86,79,0
368.66727,368.7534,83,60,0
368.7534,369.0141,88,60,0
369.0141,369.08267,86,60,0
368.41095,369.1019,64,88,0
368.41095,369.1019,68,88,0
369.1019,369.2347,69,50,0
369.1019,369.3519,85,60,0
369.3519,369.43524,81,60,0
369.43524,369.68524,88,79,0
369.68524,369.75034,86,60,0
369.43524,369.76855,64,69,0
369.43524,369.76855,68,69,0
369.76855,369.90137,69,50,0
369.76855,370.01855,85,60,0
370.01855,370.1019,81,60,0
370.1019,370.3519,88,79,0
370.3519,370.417,86,60,0
370.1019,370.43524,64,69,0
370.1019,370.43524,68,69,0
370.43524,370.70087,69,50,0
370.43524,371.01855,85,79,0
371.01855,371.1019,83,60,0
371.1019,371.3519,81,60,0
371.3519,371.43524,80,60,0
370.76855,371.43524,57,69,0
370.76855,371.43524,61,69,0
371.43524,371.68524,78,60,0
371.43524,371.68524,59,50,0
371.43524,371.68524,62,50,0
371.68524,371.75034,76,60,0
371.68524,371.75034,61,50,0
371.68524,371.75034,64,50,0
371.76855,371.9328,74,60,0
371.76855,371.9328,62,60,0
371.76855,371.9328,66,60,0
372.10294,372.26868,74,60,0
372.4407,372.60855,52,60,0
372.4407,372.60855,62,60,0
372.7831,372.9538,71,60,0
373.13162,373.38162,88,96,0
373.38162,373.46497,86,90,0
373.46497,373.71497,85,87,0
373.71497,373.7983,83,81,0
373.7983,374.0483,81,78,0
374.0483,374.13162,80,72,0
373.13162,374.13162,33,96,0
373.13162,374.13162,45,96,0
374.13162,374.38162,78,69,0
374.13162,374.38162,35,69,0
374.13162,374.38162,47,69,0
374.38162,374.44675,37,63,0
374.38162,374.44675,49,63,0
374.38162,374.46497,76,63,0
374.46497,374.6293,74,60,0
374.46497,374.6293,38,60,0
374.46497,374.6293,50,60,0
374.80017,374.9673,66,60,0
374.80017,374.9673,71,60,0
374.80017,374.9673,74,60,0
375.14154,375.31262,40,60,0
375.14154,375.31262,52,60,0
375.49164,375.66803,62,60,0
375.49164,375.66803,68,60,0
375.49164,375.66803,71,60,0
375.85333,376.22372,61,60,0
375.85333,376.22372,69,60,0
375.85333,376.22372,33,60,0
375.85333,376.22372,45,60,0
376.5941,376.75815,69,60,0
377.0941,377.1748,68,60,0
377.26074,377.4248,69,60,0
377.26074,377.4248,66,60,0
377.76074,377.8415,69,60,0
377.76074,377.8415,64,60,0
377.92743,378.0915,69,60,0
377.92743,378.0915,62,60,0
378.42743,378.50815,69,60,0
378.42743,378.50815,61,60,0
378.92908,379.61768,64,79,0
378.92908,379.61768,74,79,0
378.5941,379.61768,59,79,0
379.61768,379.9023,64,60,0
379.61768,379.9023,73,60,0
379.61768,379.9023,57,60,0
379.976,380.14023,50,60,0
380.31036,380.4761,66,60,0
380.31036,380.4761,71,60,0
380.64813,380.816,52,60,0
380.99057,381.16122,64,60,0
380.99057,381.16122,68,60,0
381.33908,381.5128,45,60,0
381.69202,381.86572,64,60,0
381.69202,381.86572,69,60,0
382.04495,382.12567,61,60,0
382.04495,382.12567,73,60,0
382.04495,382.12567,45,60,0
382.04495,382.12567,57,60,0
382.2116,382.29236,61,63,0
382.2116,382.29236,73,63,0
382.2116,382.29236,45,63,0
382.2116,382.29236,57,63,0
382.54495,382.62567,59,67,0
382.54495,382.62567,71,67,0
382.54495,382.62567,44,67,0
382.54495,382.62567,56,67,0
382.7116,382.79236,62,69,0
382.7116,382.79236,74,69,0
382.7116,382.79236,42,69,0
382.7116,382.79236,54,69,0
382.8783,382.959,62,71,0
382.8783,382.959,74,71,0
382.8783,382.959,42,71,0
382.8783,382.959,54,71,0
383.2116,383.29236,61,75,0
383.2116,383.29236,73,75,0
383.2116,383.29236,40,75,0
383.2116,383.29236,52,75,0
383.3783,383.459,66,77,0
383.3783,383.459,78,77,0
383.3783,383.459,38,77,0
383.3783,383.459,50,77,0
383.54495,383.62567,66,80,0
383.54495,383.62567,78,80,0
383.54495,383.62567,38,80,0
383.54495,383.62567,50,80,0
383.8783,383.959,64,84,0
383.8783,383.959,76,84,0
383.8783,383.959,37,84,0
383.8783,383.959,49,84,0
384.04495,384.38016,35,86,0
384.04495,384.38016,47,86,0
384.38016,384.72153,65,105,0
384.38016,384.97763,59,105,0
384.72153,384.99963,64,86,0
384.04495,385.07162,68,105,0
384.04495,385.07162,80,105,0
385.07162,385.35883,69,86,0
385.07162,385.35883,81,86,0
385.07162,385.43332,61,86,0
385.07162,385.43332,64,86,0
385.43332,385.59784,50,60,0
385.43332,385.59784,62,60,0
385.7696,385.93845,74,60,0
385.7696,385.93845,78,60,0
386.11563,386.29083,52,60,0
386.11563,386.29083,64,60,0
386.4758,386.65985,71,60,0
386.4758,386.65985,74,60,0
386.8555,387.0222,69,60,0
387.0222,387.18884,73,60,0
387.18884,387.3555,76,60,0
387.3555,387.5222,81,60,0
387.5222,387.68884,85,60,0
387.68884,387.8555,88,60,0
387.8555,388.02216,85,60,0
388.02216,388.15497,81,60,0
386.8555,388.18884,45,60,0
386.8555,388.18884,49,60,0
386.8555,388.18884,52,60,0
386.8555,388.18884,57,60,0
388.18884,388.3555,86,60,0
388.3555,388.52216,83,60,0
388.52216,388.68884,80,60,0
388.68884,388.8555,76,60,0
388.8555,389.02216,74,60,0
389.02216,389.18884,76,60,0
389.18884,389.3555,74,60,0
389.3555,389.4883,71,60,0
388.18884,389.52216,45,60,0
388.18884,389.52216,50,60,0
388.18884,389.52216,52,60,0
388.18884,389.52216,56,60,0
389.52216,389.68884,69,60,0
389.68884,389.8555,73,60,0
389.8555,390.02216,76,60,0
390.02216,390.18884,81,60,0
390.18884,390.3555,85,60,0
390.3555,390.52216,88,60,0
390.52216,390.68884,85,60,0
390.68884,390.82166,81,60,0
389.52216,390.8555,45,60,0
389.52216,390.8555,49,60,0
389.52216,390.8555,52,60,0
389.52216,390.8555,57,60,0
390.8555,391.02228,86,60,0
391.02228,391.18945,83,60,0
391.18945,391.35715,80,60,0
391.35715,391.52542,76,60,0
391.52542,391.6944,74,60,0
391.6944,391.86417,76,60,0
391.86417,392.0348,74,60,0
392.0348,392.1715,71,60,0
390.8555,392.20642,45,60,0
390.8555,392.20642,50,60,0
390.8555,392.20642,52,60,0
390.8555,392.20642,56,60,0
392.20642,392.28717,45,60,0
392.3731,392.45383,49,60,0
392.20642,392.53976,69,60,0
392.53976,392.62048,52,60,0
392.70642,392.78717,57,60,0
392.8731,392.95383,61,60,0
393.03976,393.12048,64,60,0
393.20642,393.28717,61,60,0
393.3731,393.45383,57,60,0
393.53976,393.62048,62,60,0
393.70642,393.78717,59,60,0
393.8731,393.95383,56,60,0
394.03976,394.12048,52,60,0
393.53976,394.20642,76,60,0
394.20642,394.28717,50,60,0
394.20642,394.37048,76,60,0
394.3731,394.45383,52,60,0
394.53976,394.62048,50,60,0
394.53976,394.66998,76,60,0
394.70642,394.78717,47,60,0
394.8731,394.95383,45,60,0
395.03976,395.12048,49,60,0
395.20642,395.28717,52,60,0
395.3731,395.45383,57,60,0
394.8731,395.53976,81,60,0
395.53976,395.62048,61,60,0
395.70642,395.78717,64,60,0
395.53976,395.8054,76,60,0
395.8731,395.95383,61,60,0
396.03976,396.12048,57,60,0
396.20642,396.28717,62,60,0
396.37326,396.4543,59,60,0
396.5408,396.62225,56,60,0
396.70917,396.79108,52,60,0
396.20642,396.87854,76,60,0
396.87854,396.961,50,60,0
396.87854,397.04642,76,60,0
397.0491,397.13217,52,60,0
397.22098,397.30478,50,60,0
397.22098,397.35635,76,60,0
397.39438,397.47897,47,60,0
397.5695,397.65024,45,60,0
397.73624,397.8174,52,60,0
397.5695,397.904,73,60,0
397.904,397.9857,49,59,0
398.0728,398.155,45,59,0
398.20007,398.24274,75,59,0
398.24274,398.3254,44,58,0
398.41373,398.4969,47,58,0
398.24274,398.5157,76,58,0
398.58582,398.6695,40,57,0
398.75903,398.8432,44,57,0
398.93283,399.01712,45,56,0
399.10785,399.1932,52,56,0
398.93283,399.2845,73,56,0
399.2845,399.37042,49,55,0
399.4623,399.54886,45,55,0
399.59647,399.6413,87,54,0
399.6413,399.7285,44,54,0
399.8215,399.90933,47,54,0
399.6413,399.92917,88,54,0
400.00293,400.0914,40,53,0
400.1856,400.27472,44,53,0
400.36957,400.45932,45,52,0
400.55652,400.64957,52,52,0
400.36957,400.7509,85,52,0
400.7509,400.84836,49,51,0
400.955,401.05826,45,51,0
401.17194,401.28278,40,50,0
401.17194,401.40192,73,50,0
401.17194,401.40192,81,50,0
401.4057,401.52664,45,50,0
401.66193,401.7965,37,50,0
401.66193,401.94418,73,50,0
401.66193,401.94418,81,50,0
401.94885,402.10257,40,50,0
402.27982,403.02982,73,50,0
402.27982,403.02982,81,50,0
402.27982,403.02982,33,50,0
