start_time,end_time,note_value,velocity,instrument_program_number
0.25,1.2453612,64,50,40
1.2453612,2.229203,64,50,40
2.229203,3.2011342,64,50,40
3.2011342,4.160763,64,50,40
4.160763,4.399438,64,60,40
4.399438,4.8831673,69,66,40
4.8831673,5.378642,69,76,40
5.378642,5.876566,69,86,40
5.876566,6.2490697,69,69,40
6.375213,6.5000467,69,60,40
6.6275153,6.753668,66,60,40
6.882489,7.009989,66,60,40
7.139865,7.400069,59,60,40
7.9296556,8.198886,64,60,40
8.198886,8.44884,72,60,40
8.44884,8.698019,71,60,40
8.698019,8.946426,69,60,40
8.946426,9.194247,68,60,40
9.194247,9.441621,69,60,40
9.441621,9.687744,71,60,40
9.687744,9.933115,72,60,40
9.933115,10.128329,69,60,40
10.178089,10.4222765,74,60,40
10.4222765,10.665419,72,60,40
10.665419,10.907827,71,60,40
10.907827,11.150021,70,60,40
11.150021,11.391102,71,60,40
11.391102,11.631333,72,60,40
11.631333,11.870849,74,60,40
11.870849,12.061145,71,60,40
12.109649,12.348324,72,60,40
12.348324,12.588891,73,67,40
12.588891,12.832053,74,73,40
12.832053,13.0282,76,80,40
13.078567,13.825452,77,86,40
13.825452,13.949933,76,67,40
13.949933,14.0491295,74,64,40
14.074414,14.197945,72,60,40
14.323846,14.448213,72,60,40
14.574968,14.700183,71,60,40
14.827805,14.953878,71,60,40
15.082171,15.209937,74,60,40
15.209937,15.3383255,72,60,40
15.3383255,15.467161,71,60,40
15.467161,15.570164,72,60,40
15.596446,15.725169,69,60,40
15.856377,16.118149,71,60,40
16.118149,16.216833,72,59,40
16.368729,16.621204,73,69,40
16.621204,16.721485,74,78,40
16.87628,17.004013,76,88,40
17.134703,17.884703,77,97,40
17.884703,18.009703,76,97,40
18.009703,18.109312,74,97,40
18.134703,18.259895,72,97,40
18.259895,18.38587,74,97,40
18.38587,18.5128,72,97,40
18.5128,18.614735,74,97,40
18.640875,18.770285,71,97,40
18.770285,18.90124,72,97,40
18.90124,19.033958,71,97,40
19.033958,19.141203,72,97,40
19.168684,19.44141,69,97,40
20.71327,20.961678,60,60,40
21.702995,21.948366,64,66,40
22.68067,22.923079,67,78,40
23.646585,23.8861,72,91,40
24.6249,24.8749,76,97,40
24.8749,25.1249,70,60,40
25.1249,25.3749,73,60,40
25.3749,25.6249,76,60,40
25.6249,25.8749,79,60,40
25.8749,26.1249,82,60,40
26.1249,26.324331,85,60,40
26.375278,26.880411,88,60,40
26.880411,27.654531,88,60,40
27.654531,27.864235,86,60,40
28.930845,29.180845,68,60,40
29.180845,29.430845,71,60,40
29.430845,29.680845,74,60,40
29.680845,29.930845,77,60,40
29.930845,30.180845,80,60,40
30.180845,30.380276,83,60,40
30.431223,30.936356,86,60,40
30.936356,31.710478,86,60,40
31.710478,31.92018,84,60,40
32.98679,33.23679,63,60,40
33.23679,33.48679,66,60,40
33.48679,33.73679,69,60,40
33.73679,33.98679,72,60,40
33.98679,34.23679,75,60,40
34.23679,34.436222,78,60,40
34.487167,34.992302,81,60,40
34.992302,35.766422,81,60,40
35.766422,35.976124,79,60,40
36.02958,36.77958,84,60,40
36.77958,36.978798,83,60,40
37.02958,37.529957,81,60,40
37.529957,37.93587,79,60,40
38.03509,38.80921,78,60,40
38.80921,39.018913,79,60,40
39.07237,39.32237,72,60,40
39.32237,39.521587,71,60,40
40.07237,40.32237,75,60,40
40.32237,40.521587,76,60,40
41.07237,41.57377,72,60,40
41.57377,42.09235,71,60,40
42.09235,42.363583,69,60,40
42.363583,42.64136,67,60,40
42.64136,42.76636,64,60,40
42.76636,42.86597,67,60,40
42.89136,43.015385,71,60,40
43.64136,43.76636,64,60,40
43.76636,43.86597,69,60,40
43.89136,44.015385,72,60,40
44.64136,44.76636,64,60,40
44.76636,44.86597,67,60,40
44.89136,45.015385,71,60,40
45.64136,45.76636,64,60,40
45.76636,45.86597,69,60,40
45.89136,46.015385,72,60,40
46.64136,46.76636,64,60,40
46.76636,46.86597,68,60,40
46.89136,47.015385,71,60,40
47.650703,47.792118,68,60,40
47.792118,47.912678,71,60,40
47.945133,48.112667,74,60,40
48.305416,48.53002,71,60,40
48.53002,48.747887,74,60,40
48.808113,52.80811,77,60,40
52.80811,53.486164,76,60,40
53.486164,54.116604,74,60,40
54.203445,54.30868,73,60,40
54.30868,54.41815,74,60,40
54.41815,54.526443,73,60,40
54.526443,54.63925,74,60,40
54.63925,54.750587,73,60,40
54.750587,54.86673,74,60,40
54.86673,54.984585,76,60,40
54.984585,56.21896,74,60,40
64.41106,65.40642,64,50,40
65.40642,66.39026,64,50,40
66.39026,67.36219,64,50,40
67.36219,68.32182,64,50,40
68.32182,68.56049,64,60,40
68.56049,69.04423,69,66,40
69.04423,69.539696,69,76,40
69.539696,70.03762,69,86,40
70.03762,70.410126,69,69,40
70.53627,70.6611,69,60,40
70.788574,70.91473,66,60,40
71.04355,71.17104,66,60,40
71.30092,71.56113,59,60,40
72.09071,72.35994,64,60,40
72.35994,72.6099,72,60,40
72.6099,72.85908,71,60,40
72.85908,73.10748,69,60,40
73.10748,73.3553,68,60,40
73.3553,73.60268,69,60,40
73.60268,73.8488,71,60,40
73.8488,74.09417,72,60,40
74.09417,74.28938,69,60,40
74.33915,74.583336,74,60,40
74.583336,74.82648,72,60,40
74.82648,75.068886,71,60,40
75.068886,75.31108,70,60,40
75.31108,75.55216,71,60,40
75.55216,75.79239,72,60,40
75.79239,76.031906,74,60,40
76.031906,76.2222,71,60,40
76.270706,76.509384,72,60,40
76.509384,76.74995,73,67,40
76.74995,76.99311,74,73,40
76.99311,77.189255,76,80,40
77.239624,77.98651,77,86,40
77.98651,78.11099,76,67,40
78.11099,78.21019,74,64,40
78.23547,78.359,72,60,40
78.4849,78.60927,72,60,40
78.73602,78.86124,71,60,40
78.98886,79.11494,71,60,40
79.243225,79.370995,74,60,40
79.370995,79.49938,72,60,40
79.49938,79.62822,71,60,40
79.62822,79.731224,72,60,40
79.7575,79.88623,69,60,40
80.01743,80.279205,71,60,40
80.279205,80.37789,72,59,40
80.529785,80.782265,73,69,40
80.782265,80.88254,74,78,40
81.03734,81.16507,76,88,40
81.29576,82.04576,77,97,40
82.04576,82.17076,76,97,40
82.17076,82.27037,74,97,40
82.29576,82.42123,72,97,40
82.42123,82.54859,74,97,40
82.54859,82.67833,72,97,40
82.67833,82.783714,74,97,40
82.81098,82.94712,71,97,40
82.94712,83.08745,72,97,40
83.08745,83.232735,71,97,40
83.232735,83.35288,72,97,40
83.38394,83.69644,69,97,40
85.2536,85.40421,73,60,40
85.556404,85.7049,73,60,40
86.44223,86.58473,71,60,40
86.727806,86.868416,71,60,40
87.56442,87.69901,74,60,40
87.834625,87.96813,74,60,40
88.6272,88.754486,73,60,40
88.88358,89.00917,73,60,40
89.64295,89.77133,73,60,40
89.90414,90.03488,73,63,40
90.72883,90.87375,73,71,40
91.02519,91.174934,73,73,40
91.98996,92.166916,73,81,40
92.35317,92.53975,73,83,40
93.59405,95.09405,78,60,40
96.18892,96.33351,74,60,40
96.479614,96.62217,74,60,40
97.33001,97.466805,73,60,40
97.60416,97.73914,73,60,40
98.40732,98.536514,76,60,40
98.6667,98.794876,76,60,40
99.427574,99.549774,74,60,40
99.673706,99.79427,74,60,40
100.40393,100.528046,74,60,40
100.65694,100.78383,74,65,40
101.465004,101.60898,74,77,40
101.7605,101.91046,74,82,40
102.743996,105.40339,79,60,40
106.21285,106.34352,77,60,40
106.48003,106.61441,77,59,40
107.34892,107.50717,77,55,40
107.675674,107.84273,77,54,40
108.806244,111.65821,76,50,40
112.40821,113.40357,64,50,40
113.40357,114.38741,64,50,40
114.38741,115.359344,64,50,40
115.359344,116.31898,64,50,40
116.31898,116.55765,64,60,40
116.55765,117.04138,69,66,40
117.04138,117.53686,69,76,40
117.53686,118.03478,69,86,40
118.03478,118.40728,69,69,40
118.533424,118.658264,69,60,40
118.78573,118.91188,66,60,40
119.0407,119.168205,66,60,40
119.29808,119.55828,59,60,40
120.08787,120.3571,64,60,40
120.3571,120.607056,72,60,40
120.607056,120.85623,71,60,40
120.85623,121.10464,69,60,40
121.10464,121.35246,68,60,40
121.35246,121.59983,69,60,40
121.59983,121.845955,71,60,40
121.845955,122.09133,72,60,40
122.09133,122.286545,69,60,40
122.3363,122.58049,74,60,40
122.58049,122.82363,72,60,40
122.82363,123.06604,71,60,40
123.06604,123.308235,70,60,40
123.308235,123.54932,71,60,40
123.54932,123.78955,72,60,40
123.78955,124.02906,74,60,40
124.02906,124.21936,71,60,40
124.26786,124.50654,72,60,40
124.50654,124.7471,73,67,40
124.7471,124.990265,74,73,40
124.990265,125.18642,76,80,40
125.23678,125.983665,77,86,40
125.983665,126.10815,76,67,40
126.10815,126.207344,74,64,40
126.23263,126.356155,72,60,40
126.482056,126.60642,72,60,40
126.733185,126.8584,71,60,40
126.986015,127.11209,71,60,40
127.24039,127.36815,74,60,40
127.36815,127.49654,72,60,40
127.49654,127.625374,71,60,40
127.625374,127.72838,72,60,40
127.75466,127.883385,69,60,40
128.01459,128.27637,71,60,40
128.27637,128.37505,72,59,40
128.52695,128.77942,73,69,40
128.77942,128.8797,74,78,40
129.0345,129.16223,76,88,40
129.29292,130.04292,77,97,40
130.04292,130.16792,76,97,40
130.16792,130.26753,74,97,40
130.29292,130.41838,72,97,40
130.41838,130.54575,74,97,40
130.54575,130.67549,72,97,40
130.67549,130.78087,74,97,40
130.80814,130.94427,71,97,40
130.94427,131.0846,72,97,40
131.0846,131.22989,71,97,40
131.22989,131.35004,72,97,40
131.3811,131.6936,69,97,40
132.1936,132.4436,72,60,40
132.4436,133.4436,77,60,40
133.4436,134.4436,76,60,40
134.4436,135.44836,82,60,40
135.44836,136.46971,81,60,40
136.46971,137.46971,79,60,40
137.46971,138.3701,78,69,40
138.46971,138.55272,81,77,40
138.55272,138.63618,79,78,40
138.63618,138.7211,81,79,40
138.7211,138.80551,79,80,40
138.80551,138.89041,81,80,40
138.89041,138.97678,79,81,40
138.97678,139.23688,81,82,40
139.23688,139.50134,82,84,40
139.50134,140.0447,81,86,40
140.0447,140.26605,79,69,40
140.85025,140.97427,71,60,40
141.10025,141.35025,71,60,40
141.35025,141.54947,72,60,40
141.85025,141.97427,71,60,40
142.10025,142.35025,71,60,40
142.35025,142.54947,72,60,40
142.8504,142.97472,71,60,40
143.10118,143.3527,71,60,40
143.3527,143.55374,72,60,40
143.85835,143.98453,71,60,40
144.11299,144.36893,71,60,40
144.36893,144.57399,72,60,40
144.87636,145.00038,73,60,40
145.12636,145.37636,73,63,40
145.37636,145.57558,74,65,40
145.62636,145.87636,78,67,40
145.87636,146.12636,74,70,40
146.12636,146.37636,79,72,40
146.37636,146.57558,74,74,40
146.62636,146.87846,77,77,40
146.87846,147.13763,72,79,40
147.13763,147.40695,76,81,40
147.40695,147.63142,70,84,40
147.69025,147.98438,69,60,40
148.5726,148.86671,72,60,40
148.86671,149.86671,84,60,40
149.86671,150.86671,81,60,40
150.86671,151.87148,86,60,40
151.87148,152.89282,82,60,40
152.89282,153.89282,79,60,40
153.89282,154.89282,81,69,40
154.89282,155.39693,77,77,40
155.39693,155.91147,82,82,40
155.91147,156.01407,79,60,40
156.1728,156.4373,74,60,40
156.4373,156.70474,72,60,40
156.70474,156.92009,70,60,40
156.97519,157.09921,69,60,40
157.22519,157.34921,71,60,40
157.47519,157.72519,72,60,40
157.72519,157.92441,74,60,40
158.22519,158.34921,72,60,40
158.47519,158.72519,72,60,40
158.72519,158.92441,73,60,40
159.22534,159.34967,73,60,40
159.47612,159.72765,73,60,40
159.72765,159.92868,74,60,40
160.2333,160.35947,73,60,40
160.48793,160.74388,73,60,40
160.74388,160.94893,74,60,40
161.2513,161.37532,71,60,40
161.5013,161.7513,71,63,40
161.7513,161.95052,72,65,40
162.0013,162.2513,72,67,40
162.2513,162.5013,77,70,40
162.5013,162.7513,74,72,40
162.7513,163.0013,79,74,40
163.0013,163.25342,77,77,40
163.25342,163.51257,72,79,40
163.51257,163.7819,76,81,40
163.7819,164.00638,70,84,40
164.0652,164.31636,69,60,40
164.83173,165.09918,72,60,40
165.09918,166.09918,77,60,40
166.09918,167.09918,76,60,40
167.09918,168.10394,82,60,40
168.10394,169.12529,81,60,40
169.12529,170.12529,79,60,40
170.12529,171.02568,78,69,40
171.12529,171.2084,81,77,40
171.2084,171.29205,79,78,40
171.29205,171.3774,81,79,40
171.3774,171.46252,79,80,40
171.46252,171.5485,78,80,40
171.5485,171.63657,79,81,40
171.63657,171.90588,81,82,40
171.90588,172.18918,82,84,40
172.18918,172.69536,81,60,40
172.69536,172.9023,79,60,40
173.22316,173.38918,69,60,40
173.38918,173.55617,72,60,40
173.55617,173.72316,77,60,40
173.72316,173.88918,81,60,40
173.88918,174.05617,79,60,40
174.05617,174.18898,77,60,40
174.22316,174.38918,82,60,40
174.38918,174.55617,79,60,40
174.55617,174.72316,76,60,40
174.72316,174.88918,70,60,40
174.88918,175.05617,67,60,40
175.05617,175.18898,65,60,40
175.22316,175.38922,64,60,40
175.38922,175.5565,67,60,40
175.5565,175.72409,70,60,40
175.72409,175.89102,76,60,40
175.89102,176.05931,77,60,40
176.05931,176.1934,79,60,40
176.22792,176.39598,81,60,40
176.39598,176.56569,77,60,40
176.56569,176.7359,72,60,40
176.7359,176.90572,77,60,40
176.90572,177.07718,72,60,40
177.07718,177.21402,69,60,40
177.24927,177.41528,74,60,40
177.41528,177.58228,70,62,40
177.58228,177.74927,67,63,40
177.74927,177.91528,70,65,40
177.91528,178.08228,67,66,40
178.08228,178.21509,62,68,40
178.24927,178.41528,60,69,40
178.41528,178.58228,62,70,40
178.58228,178.74927,66,72,40
178.74927,178.91528,58,73,40
178.91528,179.08228,62,75,40
179.08228,179.21509,67,76,40
179.24927,179.41605,65,77,40
179.41605,179.58652,69,79,40
179.58652,179.76056,65,80,40
179.76056,179.93806,64,82,40
179.93806,180.12221,60,83,40
180.12221,180.27357,58,84,40
180.31317,180.4796,57,86,40
180.4796,180.6485,65,60,40
180.6485,180.81934,69,60,40
180.81934,180.99155,72,60,40
180.99155,181.16765,77,60,40
181.16765,181.31015,81,60,40
181.34715,182.34715,84,60,40
182.34715,183.34715,81,60,40
183.34715,184.35191,86,60,40
184.35191,185.37326,82,60,40
185.37326,186.37326,79,60,40
186.37326,187.37326,81,69,40
187.37326,187.88454,77,77,40
187.88454,188.33913,82,82,40
188.43715,188.56137,79,60,40
189.47113,189.63715,57,60,40
189.63715,189.80414,60,60,40
189.80414,189.97113,65,60,40
189.97113,190.13715,69,60,40
190.13715,190.30414,70,60,40
190.30414,190.43695,69,60,40
190.47113,190.63715,67,60,40
190.63715,190.80414,66,60,40
190.80414,190.97113,67,60,40
190.97113,191.13715,70,60,40
191.13715,191.30414,69,60,40
191.30414,191.43695,67,60,40
191.47113,191.6372,66,60,40
191.6372,191.80447,69,60,40
191.80447,191.97206,67,60,40
191.97206,192.139,66,60,40
192.139,192.30728,67,60,40
192.30728,192.44139,69,60,40
192.47589,192.64395,70,60,40
192.64395,192.81366,74,60,40
192.81366,192.98387,72,60,40
192.98387,193.15369,70,60,40
193.15369,193.32515,72,60,40
193.32515,193.46199,69,60,40
193.49724,193.66325,67,60,40
193.66325,193.83025,65,62,40
193.83025,193.99724,64,63,40
193.99724,194.16325,62,65,40
194.16325,194.33025,60,66,40
194.33025,194.46306,58,68,40
194.49724,194.66325,57,69,40
194.66325,194.83025,60,70,40
194.83025,195.16325,65,72,40
195.16325,195.33025,62,75,40
195.33025,195.46306,67,76,40
195.49724,195.66426,65,77,40
195.66426,195.83594,60,79,40
195.83594,196.01247,65,80,40
196.01247,196.19417,64,82,40
196.19417,196.38484,60,83,40
196.38484,196.54362,58,84,40
196.58543,196.83682,57,60,40
199.77829,199.94276,72,50,40
199.94276,200.10696,71,50,40
200.10696,200.27003,72,50,40
200.27003,200.43394,74,50,40
200.43394,200.56432,76,50,40
200.59785,201.08679,79,50,40
201.08679,201.28105,77,50,40
203.72908,203.90048,76,50,40
203.90048,204.0729,75,50,40
204.0729,204.24496,76,50,40
204.24496,204.41855,78,50,40
204.41855,204.55661,80,50,40
204.59215,205.11943,83,50,40
205.11943,205.3318,81,50,40
205.92383,206.19046,69,50,40
206.19046,206.40102,72,50,40
206.45433,206.58421,72,50,40
206.97453,207.23041,69,50,40
207.23041,207.43242,72,50,40
207.48372,207.60846,72,50,40
207.98349,208.23245,69,50,40
208.23245,208.43083,72,54,40
208.48141,208.98079,72,58,40
208.98079,209.49792,72,65,40
209.49792,209.63107,72,72,40
209.7689,210.7689,72,95,40
210.7689,211.27383,71,60,40
211.27383,211.7914,69,60,40
211.7914,212.8689,69,79,40
212.8689,213.06876,68,60,40
213.3755,213.46118,76,60,40
213.46118,213.54755,75,60,40
213.54755,213.63535,76,60,40
213.63535,213.72255,75,60,40
213.72255,213.81036,73,60,40
213.81036,213.8992,75,60,40
213.8992,215.00542,78,79,40
215.00542,215.20537,76,60,40
215.51286,215.5989,80,60,40
215.5989,215.6857,78,60,40
215.6857,215.774,80,60,40
215.774,215.86176,78,60,40
215.86176,215.95021,76,60,40
215.95021,216.0397,78,60,40
216.0397,217.16089,81,79,40
217.16089,217.25952,80,60,40
217.66089,217.78491,82,60,40
218.16089,218.28491,83,60,40
219.2027,219.33904,84,58,40
220.36574,220.51701,85,55,40
221.68198,221.82289,86,53,40
223.11055,227.82617,80,50,40
228.57617,229.57153,64,50,40
229.57153,230.55537,64,50,40
230.55537,231.52731,64,50,40
231.52731,232.48694,64,50,40
232.48694,232.72562,64,60,40
232.72562,233.20935,69,66,40
233.20935,233.70482,69,76,40
233.70482,234.20274,69,86,40
234.20274,234.57524,69,69,40
234.70139,234.82623,69,60,40
234.95369,235.07985,66,60,40
235.20866,235.33617,66,60,40
235.46605,235.72624,59,60,40
236.25583,236.52507,64,60,40
236.52507,236.77502,72,60,40
236.77502,237.0242,71,60,40
237.0242,237.2726,69,60,40
237.2726,237.52043,68,60,40
237.52043,237.7678,69,60,40
237.7678,238.01392,71,60,40
238.01392,238.2593,72,60,40
238.2593,238.45451,69,60,40
238.50427,238.74846,74,60,40
238.74846,238.9916,72,60,40
238.9916,239.23401,71,60,40
239.23401,239.4762,70,60,40
239.4762,239.71729,71,60,40
239.71729,239.95752,72,60,40
239.95752,240.19702,74,60,40
240.19702,240.38733,71,60,40
240.43582,240.6745,72,60,40
240.6745,240.91507,73,67,40
240.91507,241.15823,74,73,40
241.15823,241.35439,76,80,40
241.40474,242.15163,77,86,40
242.15163,242.27611,76,67,40
242.27611,242.3753,74,64,40
242.40059,242.52412,72,60,40
242.65002,242.77438,72,60,40
242.90115,243.02637,71,60,40
243.15398,243.28006,71,60,40
243.40836,243.53612,74,60,40
243.53612,243.6645,72,60,40
243.6645,243.79333,71,60,40
243.79333,243.89635,72,60,40
243.92262,244.05135,69,60,40
244.18256,244.44432,71,60,40
244.44432,244.54301,72,59,40
244.6949,244.94739,73,69,40
244.94739,245.04767,74,78,40
245.20245,245.33018,76,88,40
245.46088,246.21088,77,97,40
246.21088,246.33588,76,97,40
246.33588,246.43549,74,97,40
246.46088,246.58607,72,97,40
246.58607,246.71205,74,97,40
246.71205,246.83897,72,97,40
246.83897,246.94092,74,97,40
246.96706,247.09647,71,97,40
247.09647,247.22742,72,97,40
247.22742,247.36014,71,97,40
247.36014,247.46738,72,97,40
247.49486,247.74486,69,97,40
247.93236,247.99486,57,97,40
247.93236,248.19408,64,97,40
247.99486,248.19408,72,97,40
248.93236,248.99486,57,97,40
248.93236,249.19408,64,97,40
248.99486,249.19408,72,97,40
249.93236,249.99486,59,97,40
249.93236,250.19408,67,97,40
249.99486,250.19408,74,97,40
250.93236,250.99486,59,97,40
250.93236,251.19408,67,97,40
250.99486,251.19408,74,97,40
251.93236,251.99486,60,97,40
251.93236,252.19408,67,97,40
251.99486,252.19408,76,97,40
252.93236,252.99486,61,97,40
252.93236,252.99486,64,97,40
252.99486,253.19408,69,97,40
252.99486,253.19408,76,97,40
253.93236,253.99486,62,97,40
253.93236,254.19408,69,97,40
253.99486,254.19408,77,97,40
254.68304,254.74626,64,97,40
254.68304,254.8466,72,97,40
254.74626,254.8466,81,97,40
255.19849,255.26485,64,97,40
255.19849,255.34435,71,97,40
255.26485,255.34435,80,97,40
255.46732,255.53607,64,97,40
255.46732,255.6347,72,97,40
255.53607,255.6347,81,97,40
255.78607,255.8476,64,113,40
255.91107,255.9726,69,113,40
256.03607,256.0976,72,113,40
256.16107,256.2226,69,113,40
256.28607,256.3476,72,113,40
256.41107,256.4726,69,113,40
256.53607,256.5976,72,113,40
256.66107,256.7226,69,113,40
256.78607,256.8476,64,113,40
256.91107,256.9726,69,113,40
257.03607,257.0976,72,113,40
257.16107,257.2226,69,113,40
257.28607,257.3476,72,113,40
257.41107,257.4726,69,113,40
257.53607,257.5976,74,113,40
257.66107,257.7226,71,113,40
257.78607,257.8476,67,113,40
257.91107,257.9726,71,113,40
258.03607,258.0976,74,113,40
258.16107,258.2226,71,113,40
258.28607,258.3476,74,113,40
258.41107,258.4726,71,113,40
258.53607,258.5976,74,113,40
258.66107,258.7226,71,113,40
258.78607,258.8476,67,113,40
258.91107,258.9726,71,113,40
259.03607,259.0976,74,113,40
259.16107,259.2226,71,113,40
259.28607,259.3476,74,113,40
259.41107,259.4726,71,113,40
259.53607,259.5976,76,113,40
259.66107,259.7226,72,113,40
259.78607,259.8476,67,113,40
259.91107,259.9726,72,113,40
260.03607,260.0976,76,127,40
260.16107,260.2226,72,113,40
260.28607,260.3476,76,113,40
260.41107,260.4726,72,113,40
260.53607,260.5976,76,113,40
260.66107,260.7226,73,113,40
260.78607,260.8476,69,113,40
260.91107,260.9726,73,113,40
261.03607,261.0976,76,127,40
261.16107,261.2226,73,113,40
261.28607,261.3476,76,113,40
261.41107,261.4726,73,113,40
261.53607,261.5976,77,113,40
261.66107,261.7226,74,113,40
261.78607,261.8476,69,113,40
261.91107,261.9726,74,113,40
262.03607,262.0976,77,127,40
262.16107,262.2226,74,113,40
262.28607,262.3476,77,113,40
262.41107,262.4726,74,113,40
262.53607,262.59763,72,113,40
262.66132,262.72327,76,113,40
262.78748,262.84998,72,113,40
262.9148,262.97797,69,113,40
263.04352,263.10745,68,113,40
263.17386,263.23868,76,113,40
263.30606,263.37192,71,113,40
263.44043,263.50748,68,113,40
263.5773,263.63882,76,113,40
263.7023,263.76382,72,113,40
263.8273,263.88882,69,113,40
263.9523,264.01382,72,113,40
264.0773,264.13882,76,127,40
264.2023,264.26382,72,113,40
264.3273,264.38882,76,113,40
264.4523,264.51382,72,113,40
264.5773,264.63882,76,113,40
264.7023,264.76382,73,113,40
264.8273,264.88882,69,113,40
264.9523,265.01382,73,113,40
265.0773,265.13882,76,127,40
265.2023,265.26382,73,113,40
265.3273,265.38882,76,113,40
265.4523,265.51382,73,113,40
265.5773,265.63882,77,113,40
265.7023,265.76382,74,113,40
265.8273,265.88882,69,113,40
265.9523,266.01382,74,113,40
266.0773,266.13882,77,127,40
266.2023,266.26382,74,113,40
266.3273,266.38882,77,113,40
266.4523,266.51382,74,113,40
266.5773,266.63882,72,113,40
266.7025,266.7645,76,113,40
266.8287,266.8912,72,113,40
266.95602,267.0192,69,113,40
267.08472,267.14865,68,113,40
267.21506,267.27988,76,113,40
267.3473,267.41312,71,113,40
267.48166,267.54868,68,113,40
267.6185,267.68002,76,113,40
267.7435,267.80502,72,113,40
267.8685,267.93002,69,113,40
267.9935,268.05502,72,113,40
268.1185,268.18002,76,127,40
268.2435,268.30502,72,113,40
268.3685,268.43002,76,113,40
268.4935,268.55502,72,113,40
268.6185,268.68002,76,113,40
268.7435,268.80502,73,113,40
268.8685,268.93002,69,113,40
268.9935,269.05502,73,113,40
269.1185,269.18002,76,127,40
269.2435,269.30502,73,113,40
269.3685,269.43002,76,113,40
269.4935,269.55502,73,113,40
269.6185,269.68002,77,113,40
269.7435,269.80502,74,113,40
269.8685,269.93002,69,113,40
269.9935,270.05502,74,113,40
270.1185,270.18002,77,127,40
270.2435,270.30502,74,113,40
270.3685,270.43002,77,113,40
270.4935,270.55502,74,113,40
270.6185,270.68008,77,113,40
270.74518,270.80997,74,113,40
270.8789,270.9481,69,113,40
271.0223,271.0975,65,113,40
271.17905,271.26263,62,113,40
271.3545,271.45016,69,113,40
271.55725,271.6714,65,113,40
271.8026,271.9475,62,113,40
272.12234,277.539,60,127,40
278.95566,279.20566,63,60,40
279.20566,279.45566,66,60,40
279.45566,279.70566,69,60,40
279.70566,279.95566,72,60,40
279.95566,280.20566,75,60,40
280.20566,280.4051,78,60,40
280.45605,280.96118,81,60,40
280.96118,281.7353,81,60,40
281.7353,281.945,80,60,40
282.99844,283.24844,68,60,40
283.24844,283.49844,71,60,40
283.49844,283.74844,74,60,40
283.74844,283.99844,77,60,40
283.99844,284.24844,80,60,40
284.24844,284.44788,83,60,40
284.49884,285.00397,86,60,40
285.00397,285.77808,86,60,40
285.77808,285.9878,84,60,40
287.04123,287.29123,75,60,40
287.29123,287.54123,76,60,40
287.54123,287.79123,79,60,40
287.79123,288.04123,82,60,40
288.04123,288.29123,85,60,40
288.29123,288.49066,88,60,40
288.54163,289.04675,91,60,40
289.04675,289.82086,91,60,40
289.82086,290.03058,89,60,40
290.08405,290.83405,89,60,40
290.83405,291.03326,88,60,40
291.08405,291.5844,86,60,40
291.5844,291.99033,84,60,40
292.08954,292.86368,83,60,40
292.86368,293.07336,84,60,40
293.12683,293.87683,79,60,40
293.87683,294.07605,77,60,40
294.12683,294.87683,77,60,40
294.87683,295.07605,76,60,40
295.12683,295.62964,74,60,40
295.62964,296.16852,72,60,40
296.16852,296.465,71,60,40
298.33154,298.4805,73,50,40
298.63058,298.777,73,50,40
299.4965,299.63464,71,50,40
299.77377,299.9091,71,50,40
300.57764,300.70627,74,50,40
300.83554,300.96188,74,50,40
301.58942,301.71344,73,50,40
301.83942,301.96344,73,50,40
302.6012,302.7347,76,50,40
302.873,303.01202,76,55,40
303.77887,303.9495,77,67,40
304.12982,304.31924,77,71,40
305.4414,309.3029,77,50,40
309.8029,310.0529,65,60,40
310.0529,311.0529,70,60,40
311.0529,312.0529,69,60,40
312.0529,313.05765,75,60,40
313.05765,314.07898,74,60,40
314.07898,315.07898,72,60,40
315.07898,316.07898,71,69,40
316.07898,316.16214,74,77,40
316.16214,316.246,72,78,40
316.246,316.33182,74,79,40
316.33182,316.41766,72,80,40
316.41766,316.5047,71,80,40
316.5047,316.5942,72,81,40
316.5942,316.87067,74,82,40
316.87067,317.10507,75,84,40
317.16718,317.6824,74,60,40
317.6824,317.90125,72,60,40
318.50534,318.75513,70,50,40
318.75513,319.00467,74,50,40
319.00467,319.20334,77,50,40
320.4972,320.74515,69,50,40
320.74515,320.9929,72,50,40
320.9929,321.19012,77,50,40
322.47467,322.72086,71,50,40
322.72086,322.9668,74,50,40
322.9668,323.16263,77,50,40
324.438,324.6824,68,50,40
324.6824,324.9266,71,50,40
324.9266,325.12106,76,50,40
326.38757,326.63077,69,50,40
326.63077,326.87424,72,50,40
326.87424,327.06845,81,50,40
328.34235,328.58878,72,50,40
328.58878,328.8358,76,50,40
328.8358,329.0327,81,50,40
330.33075,330.58276,74,50,40
330.58276,330.8359,80,49,40
330.8359,331.03857,83,48,40
332.3839,332.6479,80,40,40
332.6479,332.91394,83,38,40
332.91394,333.1277,86,37,40
334.56168,334.84644,83,29,40
334.84644,335.13458,86,28,40
335.13458,335.3642,89,26,40
338.4031,338.71378,76,60,40
338.71378,338.96375,81,60,40
338.96375,339.21292,83,60,40
339.21292,339.46133,84,59,40
339.46133,339.70914,86,61,40
339.70914,339.9565,84,62,40
339.9565,340.20264,83,63,40
340.20264,340.448,81,65,40
340.448,340.64322,84,66,40
340.693,340.93716,83,67,40
340.93716,341.18033,84,68,40
341.18033,341.42273,86,70,40
341.42273,341.66492,88,71,40
341.66492,341.906,86,72,40
341.906,342.14624,84,73,40
342.14624,342.38574,83,75,40
342.38574,342.57605,80,76,40
342.62454,342.86322,81,77,40
342.86322,343.1038,79,78,40
343.1038,343.34695,77,80,40
343.34695,343.59348,76,81,40
343.59348,343.84244,74,82,40
343.84244,344.09137,73,83,40
344.09137,344.34033,74,85,40
344.34033,344.53873,76,86,40
344.5893,344.71286,77,87,40
344.839,344.96384,77,88,40
345.0913,345.21744,78,90,40
345.34628,345.47375,78,91,40
345.60364,345.86386,71,92,40
346.66266,346.72418,69,97,40
346.78766,346.84918,76,97,40
346.91263,346.97397,71,97,40
347.03726,347.0986,76,97,40
347.1618,347.22296,72,97,40
347.28607,347.34723,76,97,40
347.41022,347.4712,74,97,40
347.53412,347.5951,76,97,40
347.65802,347.71902,72,97,40
347.78195,347.84283,76,97,40
347.9054,347.96603,71,97,40
348.0286,348.08914,76,97,40
348.15152,348.21198,69,97,40
348.27435,348.3347,76,97,40
348.39688,348.45718,72,97,40
348.51938,348.57968,76,97,40
348.64188,348.70215,71,97,40
348.76428,348.82422,76,97,40
348.88605,348.946,69,97,40
349.00775,349.06754,76,97,40
349.1292,349.18896,68,97,40
349.25052,349.31012,76,97,40
349.3716,349.4312,66,97,40
349.4927,349.5523,76,97,40
349.6138,349.6733,68,97,40
349.73447,349.79373,76,97,40
349.8549,349.91406,69,97,40
349.97504,350.03415,76,97,40
350.09512,350.15408,71,97,40
350.2149,350.27383,76,97,40
350.33463,350.3934,68,97,40
350.45404,350.5128,76,97,40
350.57343,350.63202,69,116,40
350.69257,350.75134,68,97,40
350.8121,350.8711,69,97,40
350.9321,350.99136,68,97,40
351.05267,351.11224,69,97,40
351.1739,351.2338,67,97,40
351.29584,351.35617,65,97,40
351.4186,351.4794,64,97,40
351.54236,351.6036,62,116,40
351.66684,351.7281,61,97,40
351.79132,351.85257,62,97,40
351.9158,351.97705,64,97,40
352.04028,352.10153,65,97,40
352.16476,352.226,62,97,40
352.28925,352.3505,60,97,40
352.41373,352.47498,59,97,40
352.5382,352.59946,57,97,40
352.6627,352.72415,60,97,40
352.78763,352.84927,64,97,40
352.91296,352.97482,69,97,40
353.03876,353.1008,56,97,40
353.16495,353.2272,59,97,40
353.2916,353.35403,64,97,40
353.41864,353.48132,68,97,40
353.54596,353.60864,57,97,40
353.6737,353.73682,60,97,40
353.8021,353.86545,62,97,40
353.93094,353.9945,64,97,40
354.06024,354.12405,66,97,40
354.18997,354.25403,68,97,40
354.32016,354.38446,69,97,40
354.4508,354.51535,68,97,40
354.58194,354.64346,69,116,40
354.70703,354.76874,68,97,40
354.83252,354.89444,69,97,40
354.95847,355.02066,68,97,40
355.085,355.1475,69,97,40
355.21216,355.275,67,97,40
355.34006,355.40332,65,97,40
355.4688,355.5325,64,97,40
355.59848,355.66,62,116,40
355.72348,355.785,61,97,40
355.84848,355.91,62,97,40
355.97348,356.035,64,97,40
356.09848,356.16,65,97,40
356.22348,356.285,62,97,40
356.34848,356.41,60,97,40
356.47348,356.535,59,97,40
356.59848,356.66003,57,97,40
356.72394,356.78638,60,97,40
356.85132,356.91486,64,97,40
356.98105,357.04593,69,97,40
357.1137,357.18024,56,97,40
357.24985,357.31836,59,97,40
357.39017,357.461,64,97,40
357.53546,357.60907,68,97,40
357.68668,357.7482,57,97,40
357.81168,357.8732,64,60,40
357.93668,357.9982,69,60,40
358.06168,358.1232,72,60,40
358.18668,358.3107,76,60,40
358.81168,358.8732,64,59,40
358.93668,358.99866,71,59,40
359.06262,359.1246,74,59,40
359.18857,359.44235,76,58,40
359.827,359.8904,64,56,40
359.95584,360.01978,69,56,40
360.08572,360.14963,72,56,40
360.21558,360.4774,76,55,40
360.8742,360.93967,64,53,40
361.0072,361.07315,71,53,40
361.14124,361.2072,74,53,40
361.2753,361.54556,76,52,40
361.9554,362.023,76,50,40
362.09277,362.16095,81,50,40
362.2313,362.29947,84,50,40
362.36978,362.64914,88,50,40
363.07288,363.1428,76,50,40
363.21494,363.28543,83,50,40
363.3582,363.4287,86,50,40
363.50146,363.64484,88,50,40
363.7905,364.33188,88,50,40
364.33188,364.5941,84,57,40
364.5941,364.86926,81,63,40
364.86926,365.159,76,69,40
365.159,365.4713,72,76,40
365.4713,365.8153,69,69,40
365.8153,366.19962,64,63,40
366.19962,366.5495,60,57,40
366.64093,370.14093,57,50,40
370.57843,370.64093,57,50,40
0.0,0.25,64,60,0
0.25,0.4999543,72,60,0
0.25,0.4999543,57,60,0
0.4999543,0.7491326,71,60,0
0.4999543,0.7491326,59,60,0
0.7491326,0.9975402,69,60,0
0.7491326,0.9975402,60,60,0
0.9975402,1.2453612,68,60,0
0.9975402,1.2453612,62,60,0
1.2453612,1.4927347,69,60,0
1.2453612,1.4927347,60,60,0
1.4927347,1.7388579,71,60,0
1.4927347,1.7388579,59,60,0
1.7388579,1.984229,72,60,0
1.7388579,1.984229,57,60,0
1.984229,2.1794426,69,60,0
1.984229,2.1794426,60,60,0
2.229203,2.4733906,74,60,0
2.229203,2.4733906,59,60,0
2.4733906,2.7165327,72,60,0
2.4733906,2.7165327,57,60,0
2.7165327,2.9589412,71,60,0
2.7165327,2.9589412,56,60,0
2.9589412,3.2011342,70,60,0
2.9589412,3.2011342,54,60,0
3.2011342,3.4422157,71,60,0
3.2011342,3.4422157,56,60,0
3.4422157,3.6824474,72,60,0
3.4422157,3.6824474,57,60,0
3.6824474,3.9219625,74,60,0
3.6824474,3.9219625,59,60,0
3.9219625,4.1122584,71,60,0
3.9219625,4.1122584,56,60,0
4.160763,4.399438,72,60,0
4.160763,4.399438,57,60,0
4.399438,4.6400046,73,67,0
4.399438,4.6400046,55,67,0
4.6400046,4.8831673,74,73,0
4.6400046,4.8831673,53,73,0
4.8831673,5.079314,76,80,0
4.8831673,5.12968,52,80,0
5.12968,5.378642,50,105,0
5.378642,5.627604,49,86,0
5.12968,5.752085,77,105,0
5.752085,5.876566,76,80,0
5.627604,5.876566,50,86,0
5.876566,6.001047,74,73,0
5.876566,6.074958,52,73,0
6.001047,6.1002426,72,67,0
6.125528,6.2490697,53,60,0
6.125528,6.250047,71,60,0
6.250047,6.375213,72,60,0
6.375213,6.5000467,53,60,0
6.375213,6.501034,71,60,0
6.501034,6.6275153,72,60,0
6.6275153,6.753668,51,60,0
6.6275153,6.754665,69,60,0
6.754665,6.882489,71,60,0
6.882489,7.009989,51,60,0
6.882489,7.0109954,69,60,0
7.0109954,7.1136885,71,60,0
7.139865,7.269472,68,60,0
7.269472,7.400069,69,60,0
7.139865,7.400069,52,60,0
7.400069,7.531378,71,60,0
7.531378,7.636554,68,60,0
7.6634064,7.795125,64,60,0
8.198886,8.323886,57,60,0
8.323886,8.44884,64,60,0
8.198886,8.44884,45,60,0
8.44884,8.573475,59,60,0
8.573475,8.698019,64,60,0
8.698019,8.82229,60,60,0
8.82229,8.946426,64,60,0
8.946426,9.070337,62,60,0
9.070337,9.194247,64,60,0
9.194247,9.318158,60,60,0
9.318158,9.441621,64,60,0
9.194247,9.441621,45,60,0
9.441621,9.5648155,59,60,0
9.5648155,9.687744,64,60,0
9.687744,9.810584,57,60,0
9.810584,9.933115,64,60,0
9.933115,10.055602,60,60,0
10.055602,10.178089,64,60,0
10.178089,10.300488,59,60,0
10.300488,10.4222765,64,60,0
10.178089,10.4222765,40,60,0
10.4222765,10.543978,57,60,0
10.543978,10.665419,64,60,0
10.665419,10.786731,56,60,0
10.786731,10.907827,64,60,0
10.907827,11.028924,54,60,0
11.028924,11.150021,64,60,0
11.150021,11.270689,56,60,0
11.270689,11.391102,64,60,0
11.150021,11.391102,40,60,0
11.391102,11.51126,57,60,0
11.51126,11.631333,64,60,0
11.631333,11.751112,59,60,0
11.751112,11.870849,64,60,0
11.870849,11.990251,56,60,0
11.990251,12.109649,64,60,0
12.109649,12.228793,57,60,0
12.228793,12.348324,69,64,0
12.109649,12.348324,45,60,0
12.348324,12.4683275,57,67,0
12.4683275,12.588891,69,70,0
12.348324,12.588891,43,67,0
12.588891,12.710102,57,73,0
12.710102,12.832053,69,76,0
12.588891,12.832053,41,73,0
12.832053,12.954841,57,80,0
12.954841,13.078567,69,83,0
12.832053,13.078567,40,80,0
13.078567,13.203047,57,86,0
13.203047,13.327528,69,83,0
13.078567,13.327528,38,86,0
13.327528,13.452009,57,80,0
13.452009,13.57649,69,76,0
13.327528,13.57649,37,80,0
13.57649,13.700972,57,73,0
13.700972,13.825452,69,70,0
13.57649,13.825452,38,73,0
13.825452,13.949933,57,67,0
13.825452,14.023844,41,67,0
13.949933,14.074414,69,64,0
14.074414,14.197945,40,60,0
14.074414,14.197945,52,60,0
14.074414,14.19892,57,60,0
14.19892,14.323846,60,60,0
14.323846,14.448213,40,60,0
14.323846,14.448213,52,60,0
14.323846,14.449194,64,60,0
14.449194,14.574968,69,60,0
14.574968,14.700183,40,60,0
14.574968,14.700183,52,60,0
14.574968,14.701171,56,60,0
14.701171,14.827805,59,60,0
14.827805,14.953878,40,60,0
14.827805,14.953878,52,60,0
14.827805,14.954873,64,60,0
14.954873,15.082171,68,60,0
15.209937,15.3383255,57,62,0
15.082171,15.3383255,33,60,0
15.082171,15.3383255,45,60,0
15.3383255,15.467161,60,64,0
15.467161,15.596446,64,65,0
15.596446,15.726184,69,67,0
15.726184,15.856377,72,68,0
15.856377,15.98703,76,70,0
15.98703,16.118149,72,72,0
15.856377,16.118149,44,70,0
15.856377,16.118149,56,70,0
16.118149,16.243244,69,73,0
16.243244,16.368729,81,75,0
16.118149,16.368729,45,73,0
16.118149,16.368729,57,73,0
16.368729,16.494688,69,76,0
16.494688,16.621204,81,78,0
16.368729,16.621204,43,76,0
16.368729,16.621204,55,76,0
16.621204,16.748371,69,80,0
16.748371,16.87628,81,81,0
16.621204,16.87628,41,80,0
16.621204,16.87628,53,80,0
16.87628,17.005022,69,83,0
17.005022,17.134703,81,84,0
16.87628,17.134703,40,83,0
16.87628,17.134703,52,83,0
17.134703,17.259703,69,97,0
17.259703,17.384703,81,97,0
17.134703,17.384703,38,97,0
17.134703,17.384703,50,97,0
17.384703,17.509703,69,97,0
17.509703,17.634703,81,97,0
17.384703,17.634703,37,97,0
17.384703,17.634703,49,97,0
17.634703,17.759703,69,97,0
17.759703,17.884703,81,97,0
17.634703,17.884703,38,97,0
17.634703,17.884703,50,97,0
17.884703,18.009703,69,97,0
17.884703,18.083921,41,97,0
17.884703,18.083921,53,97,0
18.009703,18.134703,81,97,0
18.134703,18.258913,40,97,0
18.134703,18.258913,52,97,0
18.134703,18.259895,69,97,0
18.259895,18.38587,72,97,0
18.38587,18.511805,40,97,0
18.38587,18.511805,52,97,0
18.38587,18.5128,76,97,0
18.5128,18.640875,81,97,0
18.640875,18.76927,40,97,0
18.640875,18.76927,52,97,0
18.640875,18.770285,68,97,0
18.770285,18.90124,80,97,0
18.90124,19.032917,40,97,0
18.90124,19.032917,52,97,0
18.90124,19.033958,68,97,0
19.033958,19.168684,80,97,0
19.168684,19.44141,69,97,0
19.168684,19.44141,81,97,0
19.168684,19.44141,33,97,0
19.168684,19.44141,45,97,0
19.839138,19.964138,55,60,0
19.839138,19.964138,43,60,0
19.964138,20.089138,57,60,0
19.964138,20.089138,45,60,0
20.089138,20.214138,59,60,0
20.089138,20.214138,47,60,0
20.214138,20.339138,60,60,0
20.214138,20.339138,48,60,0
20.339138,20.464092,59,60,0
20.339138,20.464092,47,60,0
20.464092,20.588726,60,60,0
20.464092,20.588726,48,60,0
20.588726,20.71327,55,60,0
20.588726,20.71327,43,60,0
20.71327,20.837542,57,60,0
20.71327,20.837542,45,60,0
20.837542,20.961678,59,60,0
20.837542,20.961678,47,60,0
20.961678,21.085588,60,60,0
20.961678,21.085588,48,60,0
21.085588,21.2095,62,60,0
21.085588,21.2095,50,60,0
21.2095,21.33341,64,59,0
21.2095,21.33341,52,59,0
21.33341,21.456873,63,61,0
21.33341,21.456873,51,61,0
21.456873,21.580067,64,63,0
21.456873,21.580067,52,63,0
21.580067,21.702995,59,64,0
21.580067,21.702995,47,64,0
21.702995,21.825836,60,66,0
21.702995,21.825836,48,66,0
21.825836,21.948366,62,67,0
21.825836,21.948366,50,67,0
21.948366,22.070854,64,69,0
21.948366,22.070854,52,69,0
22.070854,22.19334,65,71,0
22.070854,22.19334,53,71,0
22.19334,22.31574,67,72,0
22.19334,22.31574,55,72,0
22.31574,22.437529,66,74,0
22.31574,22.437529,54,74,0
22.437529,22.559229,67,75,0
22.437529,22.559229,55,75,0
22.559229,22.68067,64,77,0
22.559229,22.68067,52,77,0
22.68067,22.801983,65,78,0
22.68067,22.801983,53,78,0
22.801983,22.923079,67,80,0
22.801983,22.923079,55,80,0
22.923079,23.044176,69,82,0
22.923079,23.044176,57,82,0
23.044176,23.165272,71,83,0
23.044176,23.165272,59,83,0
23.165272,23.28594,72,85,0
23.165272,23.28594,60,85,0
23.28594,23.406353,71,86,0
23.28594,23.406353,59,86,0
23.406353,23.526512,72,88,0
23.406353,23.526512,60,88,0
23.526512,23.646585,67,89,0
23.526512,23.646585,55,89,0
23.646585,23.766363,69,91,0
23.646585,23.766363,57,91,0
23.766363,23.8861,71,93,0
23.766363,23.8861,59,93,0
23.8861,24.005503,72,94,0
23.8861,24.005503,60,94,0
24.005503,24.1249,74,96,0
24.005503,24.1249,62,96,0
24.1249,24.8749,76,97,0
24.1249,24.8749,64,97,0
24.8749,25.1249,73,60,0
24.8749,25.1249,61,60,0
25.1249,25.3749,70,60,0
25.1249,25.3749,58,60,0
25.3749,25.6249,67,60,0
25.3749,25.6249,55,60,0
25.6249,25.8749,64,60,0
25.6249,25.8749,52,60,0
25.8749,26.1249,61,60,0
25.8749,26.1249,49,60,0
26.1249,26.375278,58,60,0
26.1249,26.375278,46,60,0
26.375278,26.626991,55,60,0
26.375278,26.626991,43,60,0
26.626991,26.828753,54,60,0
26.626991,26.880411,42,60,0
26.880411,27.08382,46,60,0
26.880411,27.654531,61,60,0
27.135809,27.654531,47,60,0
26.880411,27.864235,54,60,0
27.654531,27.864235,59,60,0
27.654531,27.864235,35,60,0
28.180845,28.930845,74,97,0
28.180845,28.930845,62,97,0
28.930845,29.180845,71,60,0
28.930845,29.180845,59,60,0
29.180845,29.430845,68,60,0
29.180845,29.430845,56,60,0
29.430845,29.680845,65,60,0
29.430845,29.680845,53,60,0
29.680845,29.930845,62,60,0
29.680845,29.930845,50,60,0
29.930845,30.180845,59,60,0
29.930845,30.180845,47,60,0
30.180845,30.431223,56,60,0
30.180845,30.431223,44,60,0
30.431223,30.682938,53,60,0
30.431223,30.682938,41,60,0
30.682938,30.884699,52,60,0
30.682938,30.936356,40,60,0
30.936356,31.139765,44,60,0
30.936356,31.710478,59,60,0
31.191753,31.710478,45,60,0
30.936356,31.92018,52,60,0
31.710478,31.92018,57,60,0
31.710478,31.92018,33,60,0
32.23679,32.98679,81,97,0
32.23679,32.98679,69,97,0
32.98679,33.23679,78,60,0
32.98679,33.23679,66,60,0
33.23679,33.48679,75,60,0
33.23679,33.48679,63,60,0
33.48679,33.73679,72,60,0
33.48679,33.73679,60,60,0
33.73679,33.98679,69,60,0
33.73679,33.98679,57,60,0
33.98679,34.23679,66,60,0
33.98679,34.23679,54,60,0
34.23679,34.487167,63,60,0
34.23679,34.487167,51,60,0
34.487167,34.738884,60,60,0
34.487167,34.738884,48,60,0
34.738884,34.940643,59,60,0
34.738884,34.992302,47,60,0
34.992302,35.19571,51,60,0
34.992302,35.766422,66,60,0
35.2477,35.766422,52,60,0
34.992302,35.976124,59,60,0
35.766422,35.976124,64,60,0
35.766422,35.976124,40,60,0
36.02958,36.27958,63,60,0
36.02958,36.27958,54,60,0
36.27958,36.67997,64,60,0
36.02958,36.67997,69,60,0
36.27958,36.77958,55,60,0
36.77958,36.978798,67,60,0
36.77958,36.978798,43,60,0
37.02958,37.27958,60,60,0
37.02958,37.27958,57,60,0
37.27958,37.47901,59,60,0
37.02958,37.529957,66,60,0
37.529957,37.93587,64,60,0
37.78167,38.03509,47,60,0
38.290485,38.548306,52,60,0
38.03509,38.80921,63,60,0
38.80921,39.018913,64,60,0
39.07237,39.32237,63,60,0
39.07237,39.32237,66,60,0
39.32237,39.521587,64,60,0
39.32237,39.521587,67,60,0
39.07237,39.82237,81,60,0
39.82237,40.021587,79,60,0
40.07237,40.32237,66,60,0
40.07237,40.32237,69,60,0
40.32237,40.521587,67,60,0
40.32237,40.521587,71,60,0
40.07237,40.82237,84,60,0
40.82237,41.021587,83,60,0
41.07237,41.32237,69,60,0
41.32237,41.522396,71,60,0
41.07237,41.57377,78,60,0
41.07237,41.57377,81,60,0
41.57377,42.09235,76,60,0
41.57377,42.09235,79,60,0
41.829803,42.09235,59,60,0
42.09235,42.363583,75,60,0
42.09235,42.363583,78,60,0
42.363583,42.64136,76,60,0
42.363583,42.64136,64,60,0
43.01636,43.14136,83,60,0
43.14136,43.26636,79,60,0
43.26636,43.39136,76,60,0
43.14136,43.39136,67,60,0
43.14136,43.39136,71,60,0
43.39136,43.489994,75,60,0
43.14136,43.489994,64,60,0
43.39136,43.489994,69,60,0
43.39136,43.489994,72,60,0
44.01636,44.14136,84,60,0
44.14136,44.26636,81,60,0
44.26636,44.39136,75,60,0
44.14136,44.39136,69,60,0
44.14136,44.39136,72,60,0
44.39136,44.489994,76,60,0
44.14136,44.489994,64,60,0
44.39136,44.489994,67,60,0
44.39136,44.489994,71,60,0
45.01636,45.14136,83,60,0
45.14136,45.26636,79,60,0
45.26636,45.39136,76,60,0
45.14136,45.39136,67,60,0
45.14136,45.39136,71,60,0
45.39136,45.489994,75,60,0
45.14136,45.489994,64,60,0
45.39136,45.489994,69,60,0
45.39136,45.489994,72,60,0
46.01636,46.14136,84,60,0
46.14136,46.26636,81,60,0
46.26636,46.39136,75,60,0
46.14136,46.39136,69,60,0
46.14136,46.39136,72,60,0
46.39136,46.489994,76,60,0
46.14136,46.489994,64,60,0
46.39136,46.489994,68,60,0
46.39136,46.489994,71,60,0
47.01636,47.14136,77,60,0
47.14136,47.26636,74,60,0
47.26636,47.39136,71,60,0
47.39136,47.49079,68,60,0
47.39136,47.516846,52,60,0
48.114048,48.305416,65,60,0
48.305416,48.53002,62,60,0
48.53002,48.747887,59,60,0
48.808113,49.47478,40,79,0
48.808113,51.474777,56,79,0
54.984585,58.98458,77,60,0
58.98458,59.662636,76,60,0
59.662636,60.379917,74,60,0
60.379917,60.485153,73,60,0
60.485153,60.594624,74,60,0
60.594624,60.702915,73,60,0
60.702915,60.815723,74,60,0
60.815723,60.92706,73,60,0
60.92706,61.0432,74,60,0
61.0432,61.161057,76,60,0
61.161057,63.559494,74,60,0
64.16106,64.41106,64,60,0
64.41106,64.66101,72,60,0
64.41106,64.66101,57,60,0
64.66101,64.91019,71,60,0
64.66101,64.91019,59,60,0
64.91019,65.1586,69,60,0
64.91019,65.1586,60,60,0
65.1586,65.40642,68,60,0
65.1586,65.40642,62,60,0
65.40642,65.65379,69,60,0
65.40642,65.65379,60,60,0
65.65379,65.89992,71,60,0
65.65379,65.89992,59,60,0
65.89992,66.14529,72,60,0
65.89992,66.14529,57,60,0
66.14529,66.3405,69,60,0
66.14529,66.3405,60,60,0
66.39026,66.634445,74,60,0
66.39026,66.634445,59,60,0
66.634445,66.87759,72,60,0
66.634445,66.87759,57,60,0
66.87759,67.119995,71,60,0
66.87759,67.119995,56,60,0
67.119995,67.36219,70,60,0
67.119995,67.36219,54,60,0
67.36219,67.60327,71,60,0
67.36219,67.60327,56,60,0
67.60327,67.843506,72,60,0
67.60327,67.843506,57,60,0
67.843506,68.08302,74,60,0
67.843506,68.08302,59,60,0
68.08302,68.273315,71,60,0
68.08302,68.273315,56,60,0
68.32182,68.56049,72,60,0
68.32182,68.56049,57,60,0
68.56049,68.80106,73,67,0
68.56049,68.80106,55,67,0
68.80106,69.04423,74,73,0
68.80106,69.04423,53,73,0
69.04423,69.24037,76,80,0
69.04423,69.29074,52,80,0
69.29074,69.539696,50,105,0
69.539696,69.78866,49,86,0
69.29074,69.91314,77,105,0
69.91314,70.03762,76,80,0
69.78866,70.03762,50,86,0
70.03762,70.1621,74,73,0
70.03762,70.236015,52,73,0
70.1621,70.2613,72,67,0
70.28658,70.410126,53,60,0
70.28658,70.4111,71,60,0
70.4111,70.53627,72,60,0
70.53627,70.6611,53,60,0
70.53627,70.662094,71,60,0
70.662094,70.788574,72,60,0
70.788574,70.91473,51,60,0
70.788574,70.91572,69,60,0
70.91572,71.04355,71,60,0
71.04355,71.17104,51,60,0
71.04355,71.17205,69,60,0
71.17205,71.27474,71,60,0
71.30092,71.43053,68,60,0
71.43053,71.56113,69,60,0
71.30092,71.56113,52,60,0
71.56113,71.69244,71,60,0
71.69244,71.79761,68,60,0
71.82446,71.956184,64,60,0
72.35994,72.48494,57,60,0
72.48494,72.6099,64,60,0
72.35994,72.6099,45,60,0
72.6099,72.734535,59,60,0
72.734535,72.85908,64,60,0
72.85908,72.983345,60,60,0
72.983345,73.10748,64,60,0
73.10748,73.23139,62,60,0
73.23139,73.3553,64,60,0
73.3553,73.47922,60,60,0
73.47922,73.60268,64,60,0
73.3553,73.60268,45,60,0
73.60268,73.725876,59,60,0
73.725876,73.8488,64,60,0
73.8488,73.97164,57,60,0
73.97164,74.09417,64,60,0
74.09417,74.21666,60,60,0
74.21666,74.33915,64,60,0
74.33915,74.46155,59,60,0
74.46155,74.583336,64,60,0
74.33915,74.583336,40,60,0
74.583336,74.70503,57,60,0
74.70503,74.82648,64,60,0
74.82648,74.947784,56,60,0
74.947784,75.068886,64,60,0
75.068886,75.18998,54,60,0
75.18998,75.31108,64,60,0
75.31108,75.43175,56,60,0
75.43175,75.55216,64,60,0
75.31108,75.55216,40,60,0
75.55216,75.67232,57,60,0
75.67232,75.79239,64,60,0
75.79239,75.91217,59,60,0
75.91217,76.031906,64,60,0
76.031906,76.151306,56,60,0
76.151306,76.270706,64,60,0
76.270706,76.38985,57,60,0
76.38985,76.509384,69,64,0
76.270706,76.509384,45,60,0
76.509384,76.62939,57,67,0
76.62939,76.74995,69,70,0
76.509384,76.74995,43,67,0
76.74995,76.87116,57,73,0
76.87116,76.99311,69,76,0
76.74995,76.99311,41,73,0
76.99311,77.1159,57,80,0
77.1159,77.239624,69,83,0
76.99311,77.239624,40,80,0
77.239624,77.364105,57,86,0
77.364105,77.48859,69,83,0
77.239624,77.48859,38,86,0
77.48859,77.61307,57,80,0
77.61307,77.73755,69,76,0
77.48859,77.73755,37,80,0
77.73755,77.86203,57,73,0
77.86203,77.98651,69,70,0
77.73755,77.98651,38,73,0
77.98651,78.11099,57,67,0
77.98651,78.1849,41,67,0
78.11099,78.23547,69,64,0
78.23547,78.359,40,60,0
78.23547,78.359,52,60,0
78.23547,78.35998,57,60,0
78.35998,78.4849,60,60,0
78.4849,78.60927,40,60,0
78.4849,78.60927,52,60,0
78.4849,78.61025,64,60,0
78.61025,78.73602,69,60,0
78.73602,78.86124,40,60,0
78.73602,78.86124,52,60,0
78.73602,78.86223,56,60,0
78.86223,78.98886,59,60,0
78.98886,79.11494,40,60,0
78.98886,79.11494,52,60,0
78.98886,79.11593,64,60,0
79.11593,79.243225,68,60,0
79.370995,79.49938,57,62,0
79.243225,79.49938,33,60,0
79.243225,79.49938,45,60,0
79.49938,79.62822,60,64,0
79.62822,79.7575,64,65,0
79.7575,79.88724,69,67,0
79.88724,80.01743,72,68,0
80.01743,80.14809,76,70,0
80.14809,80.279205,72,72,0
80.01743,80.279205,44,70,0
80.01743,80.279205,56,70,0
80.279205,80.404305,69,73,0
80.404305,80.529785,81,75,0
80.279205,80.529785,45,73,0
80.279205,80.529785,57,73,0
80.529785,80.65575,69,76,0
80.65575,80.782265,81,78,0
80.529785,80.782265,43,76,0
80.529785,80.782265,55,76,0
80.782265,80.90943,69,80,0
80.90943,81.03734,81,81,0
80.782265,81.03734,41,80,0
80.782265,81.03734,53,80,0
81.03734,81.16608,69,83,0
81.16608,81.29576,81,84,0
81.03734,81.29576,40,83,0
81.03734,81.29576,52,83,0
81.29576,81.42076,69,97,0
81.42076,81.54576,81,97,0
81.29576,81.54576,38,97,0
81.29576,81.54576,50,97,0
81.54576,81.67076,69,97,0
81.67076,81.79576,81,97,0
81.54576,81.79576,37,97,0
81.54576,81.79576,49,97,0
81.79576,81.92076,69,97,0
81.92076,82.04576,81,97,0
81.79576,82.04576,38,97,0
81.79576,82.04576,50,97,0
82.04576,82.17076,69,97,0
82.04576,82.24498,41,97,0
82.04576,82.24498,53,97,0
82.17076,82.29576,81,97,0
82.29576,82.420235,40,97,0
82.29576,82.420235,52,97,0
82.29576,82.42123,69,97,0
82.42123,82.54859,72,97,0
82.54859,82.67731,40,97,0
82.54859,82.67731,52,97,0
82.54859,82.67833,76,97,0
82.67833,82.81098,81,97,0
82.81098,82.946045,40,97,0
82.81098,82.946045,52,97,0
82.81098,82.94712,68,97,0
82.94712,83.08745,80,97,0
83.08745,83.23158,40,97,0
83.08745,83.23158,52,97,0
83.08745,83.232735,68,97,0
83.232735,83.38394,80,97,0
83.38394,83.69644,69,97,0
83.38394,83.69644,81,97,0
83.38394,83.69644,33,97,0
83.38394,83.69644,45,97,0
84.63394,84.78897,52,60,0
84.63394,84.78897,57,60,0
84.63394,84.78897,61,60,0
84.63394,84.78897,45,60,0
84.94616,85.098946,52,60,0
84.94616,85.098946,57,60,0
84.94616,85.098946,61,60,0
84.94616,85.098946,45,60,0
85.85574,86.00425,54,60,0
85.85574,86.00425,57,60,0
85.85574,86.00425,59,60,0
85.85574,86.00425,38,60,0
85.85574,86.00425,50,60,0
86.152534,86.29698,54,60,0
86.152534,86.29698,57,60,0
86.152534,86.29698,59,60,0
86.152534,86.29698,38,60,0
86.152534,86.29698,50,60,0
87.01124,87.15141,56,60,0
87.01124,87.15141,59,60,0
87.01124,87.15141,62,60,0
87.01124,87.15141,40,60,0
87.01124,87.15141,52,60,0
87.290535,87.42708,56,60,0
87.290535,87.42708,59,60,0
87.290535,87.42708,62,60,0
87.290535,87.42708,40,60,0
87.290535,87.42708,52,60,0
88.103745,88.235214,57,60,0
88.103745,88.235214,61,60,0
88.103745,88.235214,45,60,0
88.103745,88.235214,52,60,0
88.36749,88.49653,57,60,0
88.36749,88.49653,61,60,0
88.36749,88.49653,45,60,0
88.36749,88.49653,52,60,0
89.13673,89.26075,57,60,0
89.13673,89.26075,61,60,0
89.13673,89.26075,42,60,0
89.13673,89.26075,54,60,0
89.38743,89.51339,57,63,0
89.38743,89.51339,61,63,0
89.38743,89.51339,42,63,0
89.38743,89.51339,54,63,0
90.16769,90.30336,56,71,0
90.16769,90.30336,59,71,0
90.16769,90.30336,61,71,0
90.16769,90.30336,41,71,0
90.16769,90.30336,53,71,0
90.44305,90.583725,56,73,0
90.44305,90.583725,59,73,0
90.44305,90.583725,61,73,0
90.44305,90.583725,41,73,0
90.44305,90.583725,53,73,0
91.32703,91.483696,54,81,0
91.32703,91.483696,58,81,0
91.32703,91.483696,61,81,0
91.32703,91.483696,40,81,0
91.32703,91.483696,52,81,0
91.64771,91.81603,54,83,0
91.64771,91.81603,58,83,0
91.64771,91.81603,61,83,0
91.64771,91.81603,40,83,0
91.64771,91.81603,52,83,0
92.72926,95.09405,54,60,0
92.72926,95.09405,59,60,0
92.72926,95.09405,66,60,0
92.72926,95.09405,38,60,0
92.72926,95.09405,50,60,0
95.59405,95.742874,54,60,0
95.59405,95.742874,59,60,0
95.59405,95.742874,62,60,0
95.59405,95.742874,47,60,0
95.893776,96.04046,54,60,0
95.893776,96.04046,59,60,0
95.893776,96.04046,62,60,0
95.893776,96.04046,47,60,0
96.76698,96.90954,55,60,0
96.76698,96.90954,59,60,0
96.76698,96.90954,61,60,0
96.76698,96.90954,40,60,0
96.76698,96.90954,52,60,0
97.051895,97.19057,55,60,0
97.051895,97.19057,59,60,0
97.051895,97.19057,61,60,0
97.051895,97.19057,40,60,0
97.051895,97.19057,52,60,0
97.87625,98.010826,58,60,0
97.87625,98.010826,61,60,0
97.87625,98.010826,64,60,0
97.87625,98.010826,42,60,0
97.87625,98.010826,54,60,0
98.14439,98.27546,58,60,0
98.14439,98.27546,61,60,0
98.14439,98.27546,64,60,0
98.14439,98.27546,42,60,0
98.14439,98.27546,54,60,0
98.925064,99.05127,59,60,0
98.925064,99.05127,62,60,0
98.925064,99.05127,47,60,0
98.925064,99.05127,54,60,0
99.17825,99.30213,59,60,0
99.17825,99.30213,62,60,0
99.17825,99.30213,47,60,0
99.17825,99.30213,54,60,0
99.91672,100.03578,59,60,0
99.91672,100.03578,62,60,0
99.91672,100.03578,43,60,0
99.91672,100.03578,55,60,0
100.15753,100.27884,59,65,0
100.15753,100.27884,62,65,0
100.15753,100.27884,43,65,0
100.15753,100.27884,55,65,0
100.91272,101.04547,57,77,0
100.91272,101.04547,62,77,0
100.91272,101.04547,42,77,0
100.91272,101.04547,54,77,0
101.182556,101.321335,57,82,0
101.182556,101.321335,62,82,0
101.182556,101.321335,42,82,0
101.182556,101.321335,54,82,0
102.06279,105.40339,57,60,0
102.06279,105.40339,61,60,0
102.06279,105.40339,67,60,0
102.06279,105.40339,40,60,0
102.06279,105.40339,52,60,0
105.70339,105.827415,57,60,0
105.70339,105.827415,62,60,0
105.70339,105.827415,65,60,0
105.70339,105.827415,50,60,0
105.95445,106.081406,57,59,0
105.95445,106.081406,62,59,0
105.95445,106.081406,65,59,0
105.95445,106.081406,50,59,0
106.750916,106.89332,58,55,0
106.750916,106.89332,62,55,0
106.750916,106.89332,65,55,0
106.750916,106.89332,46,55,0
107.04106,107.19187,58,54,0
107.04106,107.19187,62,54,0
107.04106,107.19187,65,54,0
107.04106,107.19187,46,54,0
108.012405,111.65821,59,50,0
108.012405,111.65821,62,50,0
108.012405,111.65821,64,50,0
108.012405,111.65821,44,50,0
108.012405,111.65821,56,50,0
112.15821,112.40821,64,50,0
112.40821,112.658165,72,50,0
112.40821,112.658165,57,60,0
112.658165,112.90735,71,50,0
112.658165,112.90735,59,60,0
112.90735,113.155754,69,50,0
112.90735,113.155754,60,60,0
113.155754,113.40357,68,50,0
113.155754,113.40357,62,60,0
113.40357,113.65095,69,50,0
113.40357,113.65095,60,60,0
113.65095,113.89707,71,50,0
113.65095,113.89707,59,60,0
113.89707,114.14244,72,50,0
113.89707,114.14244,57,60,0
114.14244,114.337654,69,50,0
114.14244,114.337654,60,60,0
114.38741,114.63161,74,50,0
114.38741,114.63161,59,60,0
114.63161,114.87475,72,50,0
114.63161,114.87475,57,60,0
114.87475,115.11716,71,50,0
114.87475,115.11716,56,60,0
115.11716,115.359344,70,50,0
115.11716,115.359344,54,60,0
115.359344,115.600426,71,50,0
115.359344,115.600426,56,60,0
115.600426,115.84066,72,50,0
115.600426,115.84066,57,60,0
115.84066,116.08018,74,50,0
115.84066,116.08018,59,60,0
116.08018,116.27047,71,50,0
116.08018,116.27047,56,60,0
116.31898,116.55765,72,50,0
116.31898,116.55765,57,60,0
116.55765,116.79822,73,57,0
116.55765,116.79822,55,67,0
116.79822,117.04138,74,63,0
116.79822,117.04138,53,73,0
117.04138,117.237526,76,69,0
117.04138,117.287895,52,80,0
117.287895,117.53686,50,105,0
117.53686,117.78582,49,86,0
117.287895,117.9103,77,95,0
117.9103,118.03478,76,69,0
117.78582,118.03478,50,86,0
118.03478,118.15926,74,63,0
118.03478,118.23317,52,73,0
118.15926,118.25845,72,57,0
118.283745,118.40728,53,60,0
118.283745,118.408264,71,60,0
118.408264,118.533424,72,60,0
118.533424,118.658264,53,60,0
118.533424,118.65925,71,60,0
118.65925,118.78573,72,60,0
118.78573,118.91188,51,60,0
118.78573,118.91288,69,60,0
118.91288,119.0407,71,60,0
119.0407,119.168205,51,60,0
119.0407,119.16921,69,60,0
119.16921,119.271904,71,60,0
119.29808,119.42769,68,60,0
119.42769,119.55828,69,60,0
119.29808,119.55828,52,60,0
119.55828,119.68959,71,60,0
119.68959,119.79477,68,60,0
119.82162,119.95334,64,60,0
120.3571,120.4821,57,60,0
120.4821,120.607056,64,60,0
120.3571,120.607056,45,60,0
120.607056,120.73169,59,60,0
120.73169,120.85623,64,60,0
120.85623,120.98051,60,60,0
120.98051,121.10464,64,60,0
121.10464,121.22855,62,60,0
121.22855,121.35246,64,60,0
121.35246,121.47637,60,60,0
121.47637,121.59983,64,60,0
121.35246,121.59983,45,60,0
121.59983,121.72303,59,60,0
121.72303,121.845955,64,60,0
121.845955,121.968796,57,60,0
121.968796,122.09133,64,60,0
122.09133,122.21381,60,60,0
122.21381,122.3363,64,60,0
122.3363,122.4587,59,60,0
122.4587,122.58049,64,60,0
122.3363,122.58049,40,60,0
122.58049,122.702194,57,60,0
122.702194,122.82363,64,60,0
122.82363,122.94495,56,60,0
122.94495,123.06604,64,60,0
123.06604,123.18713,54,60,0
123.18713,123.308235,64,60,0
123.308235,123.4289,56,60,0
123.4289,123.54932,64,60,0
123.308235,123.54932,40,60,0
123.54932,123.66947,57,60,0
123.66947,123.78955,64,60,0
123.78955,123.909325,59,60,0
123.909325,124.02906,64,60,0
124.02906,124.14846,56,60,0
124.14846,124.26786,64,60,0
124.26786,124.38701,57,60,0
124.38701,124.50654,69,64,0
124.26786,124.50654,45,60,0
124.50654,124.62654,57,67,0
124.62654,124.7471,69,70,0
124.50654,124.7471,43,67,0
124.7471,124.86832,57,73,0
124.86832,124.990265,69,76,0
124.7471,124.990265,41,73,0
124.990265,125.11305,57,80,0
125.11305,125.23678,69,83,0
124.990265,125.23678,40,80,0
125.23678,125.36126,57,86,0
125.36126,125.48574,69,83,0
125.23678,125.48574,38,86,0
125.48574,125.61022,57,80,0
125.61022,125.7347,69,76,0
125.48574,125.7347,37,80,0
125.7347,125.859184,57,73,0
125.859184,125.983665,69,70,0
125.7347,125.983665,38,73,0
125.983665,126.10815,57,67,0
125.983665,126.18206,41,67,0
126.10815,126.23263,69,64,0
126.23263,126.356155,40,60,0
126.23263,126.356155,52,60,0
126.23263,126.35713,57,60,0
126.35713,126.482056,60,60,0
126.482056,126.60642,40,60,0
126.482056,126.60642,52,60,0
126.482056,126.60741,64,60,0
126.60741,126.733185,69,60,0
126.733185,126.8584,40,60,0
126.733185,126.8584,52,60,0
126.733185,126.85938,56,60,0
126.85938,126.986015,59,60,0
126.986015,127.11209,40,60,0
126.986015,127.11209,52,60,0
126.986015,127.11308,64,60,0
127.11308,127.24039,68,60,0
127.36815,127.49654,57,62,0
127.24039,127.49654,33,60,0
127.24039,127.49654,45,60,0
127.49654,127.625374,60,64,0
127.625374,127.75466,64,65,0
127.75466,127.8844,69,67,0
127.8844,128.01459,72,68,0
128.01459,128.14525,76,70,0
128.14525,128.27637,72,72,0
128.01459,128.27637,44,70,0
128.01459,128.27637,56,70,0
128.27637,128.40146,69,73,0
128.40146,128.52695,81,75,0
128.27637,128.52695,45,73,0
128.27637,128.52695,57,73,0
128.52695,128.6529,69,76,0
128.6529,128.77942,81,78,0
128.52695,128.77942,43,76,0
128.52695,128.77942,55,76,0
128.77942,128.90659,69,80,0
128.90659,129.0345,81,81,0
128.77942,129.0345,41,80,0
128.77942,129.0345,53,80,0
129.0345,129.16324,69,83,0
129.16324,129.29292,81,84,0
129.0345,129.29292,40,83,0
129.0345,129.29292,52,83,0
129.29292,129.41792,69,97,0
129.41792,129.54292,81,97,0
129.29292,129.54292,38,97,0
129.29292,129.54292,50,97,0
129.54292,129.66792,69,97,0
129.66792,129.79292,81,97,0
129.54292,129.79292,37,97,0
129.54292,129.79292,49,97,0
129.79292,129.91792,69,97,0
129.91792,130.04292,81,97,0
129.79292,130.04292,38,97,0
129.79292,130.04292,50,97,0
130.04292,130.16792,69,97,0
130.04292,130.24214,41,97,0
130.04292,130.24214,53,97,0
130.16792,130.29292,81,97,0
130.29292,130.41739,40,97,0
130.29292,130.41739,52,97,0
130.29292,130.41838,69,97,0
130.41838,130.54575,72,97,0
130.54575,130.67447,40,97,0
130.54575,130.67447,52,97,0
130.54575,130.67549,76,97,0
130.67549,130.80814,81,97,0
130.80814,130.9432,40,97,0
130.80814,130.9432,52,97,0
130.80814,130.94427,68,97,0
130.94427,131.0846,80,97,0
131.0846,131.22874,40,97,0
131.0846,131.22874,52,97,0
131.0846,131.22989,68,97,0
131.22989,131.3811,80,97,0
131.3811,131.6936,69,97,0
131.3811,131.6936,81,97,0
131.3811,131.6936,33,97,0
131.3811,131.6936,45,97,0
132.4436,133.4436,72,60,0
132.4436,133.4436,65,60,0
132.4436,133.4436,69,60,0
133.4436,134.4436,72,60,0
133.4436,134.4436,67,60,0
133.4436,134.4436,70,60,0
134.4436,135.44836,72,60,0
134.4436,135.44836,64,60,0
134.4436,135.44836,67,60,0
135.44836,136.37102,72,60,0
135.44836,136.37102,65,60,0
135.44836,136.37102,69,60,0
136.46971,137.46971,70,60,0
136.46971,137.46971,58,60,0
136.46971,137.46971,62,60,0
137.46971,138.46971,69,69,0
137.46971,138.46971,60,69,0
137.46971,138.46971,63,69,0
138.46971,138.97678,70,77,0
138.46971,138.97678,58,77,0
138.46971,138.97678,62,77,0
138.97678,139.23688,72,82,0
138.97678,139.23688,57,82,0
138.97678,139.23688,60,82,0
139.23688,139.44739,74,84,0
139.23688,139.50134,55,84,0
139.23688,139.50134,58,84,0
139.50134,140.0447,65,86,0
139.50134,140.0447,67,86,0
139.50134,140.0447,60,86,0
140.0447,140.26605,64,69,0
140.0447,140.26605,48,69,0
140.32246,140.60025,72,60,0
140.60025,141.60025,77,60,0
140.60025,141.60025,65,60,0
140.60025,141.60025,69,60,0
141.60025,142.60025,76,60,0
141.60025,142.60025,67,60,0
141.60025,142.60025,70,60,0
142.60025,143.60501,82,60,0
142.60025,143.60501,64,60,0
142.60025,143.60501,67,60,0
143.60501,144.52766,81,60,0
143.60501,144.52766,65,60,0
143.60501,144.52766,69,60,0
144.62636,145.62636,79,60,0
144.62636,145.62636,58,60,0
144.62636,145.62636,62,60,0
145.62636,146.12636,81,69,0
145.62636,146.12636,57,69,0
145.62636,146.12636,60,69,0
146.12636,146.62636,82,73,0
146.12636,146.62636,55,73,0
146.12636,146.62636,58,73,0
146.62636,147.13763,81,77,0
146.62636,147.13763,60,77,0
147.13763,147.22571,81,82,0
147.22571,147.31514,79,82,0
147.31514,147.40695,81,83,0
147.40695,147.49928,79,84,0
147.49928,147.59334,81,84,0
147.59334,147.66988,79,85,0
147.13763,147.69025,48,82,0
147.69025,147.98438,77,60,0
147.69025,147.98438,53,60,0
148.86671,149.86671,72,60,0
148.86671,149.86671,65,60,0
148.86671,149.86671,69,60,0
149.86671,150.86671,73,60,0
149.86671,150.86671,63,60,0
149.86671,150.86671,67,60,0
150.86671,151.7719,74,60,0
150.86671,151.87148,62,60,0
150.86671,151.87148,66,60,0
151.87148,152.89282,74,60,0
151.87148,152.89282,67,60,0
151.87148,152.89282,70,60,0
152.89282,153.79321,72,60,0
152.89282,153.89282,64,60,0
152.89282,153.89282,70,60,0
153.89282,154.89282,72,69,0
153.89282,154.89282,65,69,0
153.89282,154.89282,69,69,0
154.89282,155.39693,74,77,0
154.89282,155.39693,62,77,0
154.89282,155.39693,65,77,0
155.39693,155.91147,79,82,0
155.39693,155.91147,58,82,0
155.39693,155.91147,62,82,0
155.91147,156.01407,76,60,0
155.91147,156.01407,60,60,0
155.91147,156.01407,64,60,0
156.70474,156.97519,72,60,0
156.97519,157.97519,84,60,0
156.97519,157.97519,65,60,0
156.97519,157.97519,69,60,0
157.97519,158.97519,81,60,0
157.97519,158.97519,63,60,0
157.97519,158.97519,67,60,0
158.97519,159.97995,86,60,0
158.97519,159.97995,62,60,0
158.97519,159.97995,66,60,0
159.97995,161.0013,82,60,0
159.97995,161.0013,67,60,0
159.97995,161.0013,70,60,0
161.0013,161.5013,64,60,0
161.0013,161.5013,67,60,0
161.0013,162.0013,79,60,0
161.5013,162.0013,60,65,0
161.5013,162.0013,64,65,0
162.0013,162.5013,81,69,0
162.0013,162.5013,65,69,0
162.0013,162.5013,69,69,0
162.5013,163.0013,82,73,0
162.5013,163.0013,58,73,0
163.0013,163.51257,81,77,0
163.0013,163.51257,60,77,0
163.51257,163.60065,81,82,0
163.60065,163.6901,79,82,0
163.6901,163.7819,81,83,0
163.7819,163.87422,79,84,0
163.87422,163.96828,77,84,0
163.96828,164.04482,79,85,0
163.51257,164.0652,48,82,0
164.0652,164.14728,77,60,0
164.0652,164.26509,53,60,0
164.23163,164.40053,65,60,0
164.40053,164.57137,64,60,0
164.57137,164.74358,62,60,0
164.74358,164.91966,60,60,0
164.91966,165.06218,58,60,0
165.09918,165.2652,57,60,0
165.2652,165.43219,60,60,0
165.43219,165.59918,65,60,0
165.59918,165.7652,69,60,0
165.7652,165.93219,67,60,0
165.93219,166.065,65,60,0
165.09918,166.09918,41,60,0
165.09918,166.09918,48,60,0
166.09918,166.2652,70,60,0
166.2652,166.43219,67,60,0
166.43219,166.59918,64,60,0
166.59918,166.7652,58,60,0
166.7652,166.93219,55,60,0
166.93219,167.065,53,60,0
166.09918,167.09918,43,60,0
166.09918,167.09918,48,60,0
167.09918,167.26524,52,60,0
167.26524,167.43251,55,60,0
167.43251,167.6001,59,60,0
167.6001,167.76704,60,60,0
167.76704,167.93532,62,60,0
167.93532,168.06943,64,60,0
167.09918,168.10394,36,60,0
167.09918,168.10394,48,60,0
168.10394,168.272,65,60,0
168.272,168.4417,67,60,0
168.4417,168.61191,69,60,0
168.61191,168.78174,70,60,0
168.78174,168.9532,72,60,0
168.9532,169.09004,73,60,0
168.10394,169.12529,38,60,0
168.10394,169.12529,50,60,0
169.12529,169.2913,62,60,0
169.2913,169.4583,74,62,0
169.4583,169.62529,73,63,0
169.62529,169.7913,74,65,0
169.7913,169.9583,73,66,0
169.9583,170.09111,74,68,0
169.12529,170.12529,34,60,0
169.12529,170.12529,46,60,0
170.12529,170.2913,63,69,0
170.2913,170.4583,75,70,0
170.4583,170.62529,74,72,0
170.62529,170.7913,75,73,0
170.7913,170.9583,74,75,0
170.9583,171.09111,75,76,0
170.12529,171.12529,33,69,0
170.12529,171.12529,45,69,0
171.12529,171.29205,62,77,0
171.29205,171.46252,74,79,0
171.46252,171.63657,72,80,0
171.12529,171.63657,34,77,0
171.12529,171.63657,46,77,0
171.63657,171.81407,70,82,0
171.81407,171.99821,69,83,0
171.99821,172.14958,67,84,0
171.63657,172.18918,31,82,0
171.63657,172.18918,43,82,0
172.18918,172.3556,36,60,0
172.3556,172.52452,48,60,0
172.18918,172.69536,65,60,0
172.52452,172.69536,47,60,0
172.69536,172.86755,48,60,0
172.69536,172.9023,64,60,0
172.86755,173.04366,46,60,0
173.04366,173.18617,43,60,0
172.95572,173.22316,72,60,0
173.22316,173.38918,41,60,0
173.38918,173.55617,45,60,0
173.55617,173.72316,48,60,0
173.72316,173.88918,53,60,0
173.88918,174.05617,55,60,0
174.05617,174.18898,57,60,0
173.22316,174.22316,65,60,0
173.22316,174.22316,77,60,0
174.22316,174.38918,55,60,0
174.38918,174.55617,52,60,0
174.55617,174.72316,48,60,0
174.72316,174.88918,43,60,0
174.88918,175.05617,40,60,0
175.05617,175.18898,38,60,0
174.22316,175.22316,64,60,0
174.22316,175.22316,76,60,0
175.22316,175.38922,36,60,0
175.38922,175.5565,40,60,0
175.5565,175.72409,43,60,0
175.72409,175.89102,48,60,0
175.89102,176.05931,50,60,0
176.05931,176.1934,52,60,0
175.22316,176.22792,70,60,0
175.22316,176.22792,82,60,0
176.22792,176.39598,53,60,0
176.39598,176.56569,48,60,0
176.56569,176.7359,45,60,0
176.7359,176.90572,48,60,0
176.90572,177.07718,45,60,0
176.22792,177.15057,69,60,0
176.22792,177.15057,81,60,0
177.07718,177.21402,41,60,0
177.24927,177.41528,46,60,0
177.41528,177.58228,50,62,0
177.58228,177.74927,55,63,0
177.74927,177.91528,46,65,0
177.91528,178.08228,50,66,0
178.08228,178.21509,55,68,0
177.24927,178.24927,67,60,0
177.24927,178.24927,79,60,0
178.24927,178.41528,45,69,0
178.41528,178.58228,48,70,0
178.24927,178.74927,69,69,0
178.24927,178.74927,81,69,0
178.58228,178.74927,50,72,0
178.74927,178.91528,43,73,0
178.91528,179.08228,46,75,0
179.08228,179.21509,50,76,0
178.74927,179.24927,70,73,0
178.74927,179.24927,82,73,0
179.24927,179.41605,36,77,0
179.41605,179.58652,48,79,0
179.24927,179.76056,69,77,0
179.24927,179.76056,81,77,0
179.58652,179.76056,47,80,0
179.76056,179.84862,81,82,0
179.84862,179.93806,79,82,0
179.76056,179.93806,48,82,0
179.93806,180.02988,81,83,0
180.02988,180.12221,79,84,0
179.93806,180.12221,50,83,0
180.12221,180.21625,77,84,0
180.12221,180.27357,52,84,0
180.21625,180.31317,79,85,0
180.31317,180.51306,77,60,0
180.31317,180.56433,53,60,0
181.34715,181.51317,57,60,0
181.51317,181.68016,60,60,0
181.68016,181.84715,65,60,0
181.84715,182.01317,69,60,0
182.01317,182.18016,70,60,0
182.18016,182.31297,69,60,0
181.34715,182.34715,41,60,0
181.34715,182.34715,53,60,0
182.34715,182.51317,67,60,0
182.51317,182.68016,66,60,0
182.68016,182.84715,67,60,0
182.84715,183.01317,70,60,0
183.01317,183.18016,69,60,0
183.18016,183.31297,67,60,0
182.34715,183.34715,39,60,0
182.34715,183.34715,51,60,0
183.34715,183.51321,66,60,0
183.51321,183.6805,67,60,0
183.6805,183.84808,69,60,0
183.84808,184.01501,62,60,0
184.01501,184.1833,64,60,0
184.1833,184.3174,66,60,0
183.34715,184.35191,38,60,0
183.34715,184.35191,50,60,0
184.35191,184.51997,67,60,0
184.51997,184.68967,66,60,0
184.68967,184.8599,67,60,0
184.35191,184.8599,43,60,0
184.35191,184.8599,55,60,0
184.8599,185.02971,69,60,0
185.02971,185.20117,70,60,0
185.20117,185.33801,71,60,0
184.8599,185.37326,41,60,0
184.8599,185.37326,53,60,0
185.37326,185.53928,72,60,0
185.53928,185.70627,71,62,0
185.70627,185.87326,74,63,0
185.37326,185.87326,40,60,0
185.37326,185.87326,52,60,0
185.87326,186.03928,72,65,0
186.03928,186.20627,64,66,0
186.20627,186.33908,70,68,0
185.87326,186.37326,36,65,0
185.87326,186.37326,48,65,0
186.37326,186.53928,69,69,0
186.53928,186.70627,70,70,0
186.70627,186.87326,67,72,0
186.37326,186.87326,41,69,0
186.37326,186.87326,53,69,0
186.87326,187.03928,65,73,0
187.03928,187.20627,67,75,0
187.20627,187.33908,64,76,0
187.37326,187.54002,62,77,0
187.54002,187.7105,65,79,0
187.7105,187.88454,69,80,0
186.87326,187.88454,38,73,0
186.87326,187.88454,50,73,0
187.88454,188.06204,62,82,0
188.06204,188.24619,67,83,0
187.88454,188.33913,34,82,0
187.88454,188.33913,46,82,0
188.24619,188.39755,70,84,0
188.43715,188.51924,67,86,0
188.43715,188.56137,36,86,0
188.43715,188.56137,48,86,0
188.60359,188.77249,76,60,0
188.77249,188.94333,77,60,0
188.94333,189.11552,79,60,0
189.11552,189.29163,81,60,0
189.29163,189.43414,82,60,0
189.47113,189.63715,41,86,0
189.63715,189.80414,45,86,0
189.80414,189.97113,48,86,0
189.97113,190.13715,53,86,0
190.13715,190.30414,55,86,0
190.30414,190.43695,53,86,0
189.47113,190.47113,72,60,0
189.47113,190.47113,84,60,0
190.47113,190.63715,51,86,0
190.63715,190.80414,50,86,0
190.80414,190.97113,51,86,0
190.97113,191.13715,55,86,0
191.13715,191.30414,53,86,0
191.30414,191.43695,51,86,0
190.47113,191.47113,69,60,0
190.47113,191.47113,81,60,0
191.47113,191.6372,50,86,0
191.6372,191.80447,54,86,0
191.80447,191.97206,52,86,0
191.97206,192.139,50,86,0
192.139,192.30728,52,86,0
192.30728,192.44139,54,86,0
191.47113,192.47589,74,60,0
191.47113,192.47589,86,60,0
192.47589,192.64395,55,86,0
192.64395,192.81366,58,86,0
192.81366,192.98387,57,86,0
192.98387,193.15369,55,86,0
193.15369,193.32515,57,86,0
192.47589,193.39854,70,60,0
192.47589,193.39854,82,60,0
193.32515,193.46199,53,86,0
193.49724,193.66325,52,86,0
193.66325,193.83025,50,87,0
193.83025,193.99724,48,89,0
193.99724,194.16325,46,90,0
194.16325,194.33025,45,91,0
194.33025,194.46306,43,93,0
193.49724,194.49724,67,60,0
193.49724,194.49724,79,60,0
194.49724,194.66325,41,94,0
194.66325,194.83025,40,96,0
194.49724,194.99724,69,69,0
194.49724,194.99724,81,69,0
194.83025,194.99724,39,97,0
194.99724,195.16325,38,99,0
195.16325,195.33025,36,100,0
194.99724,195.39763,70,73,0
194.99724,195.39763,82,73,0
195.33025,195.46306,34,101,0
195.49724,195.66426,36,103,0
195.66426,195.83594,48,104,0
195.49724,196.01247,69,77,0
195.49724,196.01247,81,77,0
195.83594,196.01247,47,106,0
196.01247,196.10236,81,82,0
196.10236,196.19417,79,82,0
196.01247,196.19417,48,107,0
196.19417,196.28893,81,83,0
196.28893,196.38484,79,84,0
196.19417,196.38484,50,108,0
196.38484,196.48326,77,84,0
196.38484,196.54362,52,110,0
196.48326,196.56392,79,85,0
196.58543,196.75194,53,60,0
196.58543,196.83682,65,60,0
196.58543,196.83682,77,60,0
196.75194,196.92123,50,60,0
196.92123,197.09286,48,60,0
197.09286,197.26636,46,60,0
197.26636,197.4444,45,60,0
197.4444,197.58904,43,60,0
197.79266,197.95949,57,50,0
197.95949,198.12613,56,50,0
198.12613,198.29158,57,50,0
198.29158,198.4578,58,50,0
198.4578,198.58992,59,50,0
197.62665,198.62393,41,50,0
198.62393,199.12012,62,50,0
199.12012,199.31721,60,50,0
198.62393,199.61444,40,50,0
199.61444,200.59785,46,50,0
200.59785,201.47409,45,50,0
201.73521,201.89804,60,50,0
201.89804,202.06146,59,50,0
202.06146,202.2247,60,50,0
202.2247,202.38968,62,50,0
202.38968,202.52107,63,50,0
201.5739,202.55489,33,50,0
201.5739,202.55489,45,50,0
202.55489,203.05406,65,50,0
203.05406,203.25514,64,50,0
202.55489,203.56006,32,50,0
202.55489,203.56006,44,50,0
203.56006,204.59215,38,50,0
203.56006,204.59215,50,50,0
204.59215,205.5558,36,50,0
204.59215,205.5558,48,50,0
205.92383,206.19046,72,50,0
206.19046,206.40102,81,50,0
206.45433,206.58421,81,50,0
205.65436,206.71577,41,50,0
205.65436,206.71577,53,50,0
206.97453,207.23041,72,50,0
207.23041,207.43242,81,50,0
207.48372,207.60846,81,50,0
206.71577,207.63484,40,50,0
206.71577,207.63484,52,50,0
207.98349,208.23245,72,50,0
208.23245,208.43083,81,54,0
208.48141,208.98079,81,58,0
208.98079,209.49792,81,65,0
209.49792,209.63107,81,72,0
207.73453,209.7689,39,50,0
207.73453,209.7689,51,50,0
209.7689,210.7689,81,95,0
210.7689,211.17622,80,60,0
211.27383,211.35883,76,60,0
211.35883,211.44432,75,60,0
211.44432,211.53114,76,60,0
211.53114,211.61725,75,60,0
211.61725,211.70381,73,60,0
211.70381,211.77306,75,60,0
209.7689,211.7914,40,95,0
209.7689,211.7914,52,95,0
211.7914,212.8689,78,79,0
212.8689,213.06876,76,60,0
213.3755,213.46118,80,60,0
213.46118,213.54755,78,60,0
213.54755,213.63535,80,60,0
213.63535,213.72255,78,60,0
213.72255,213.81036,76,60,0
213.81036,213.8806,78,60,0
213.8992,215.00542,81,79,0
215.00542,215.20537,80,60,0
215.51286,215.5989,83,60,0
215.5989,215.6857,81,60,0
215.6857,215.774,83,60,0
215.774,215.86176,81,60,0
215.86176,215.95021,80,60,0
215.95021,216.02097,81,60,0
216.0397,217.16089,84,79,0
217.16089,217.25952,83,60,0
217.66089,217.78491,85,60,0
218.16089,218.28491,86,60,0
219.2027,219.33904,87,54,0
220.36574,220.51701,88,48,0
221.68198,221.82289,89,41,0
223.11055,227.82617,83,50,0
228.32617,228.57617,64,60,0
228.57617,228.82613,72,60,0
228.57617,228.82613,57,60,0
228.82613,229.07532,71,60,0
228.82613,229.07532,59,60,0
229.07532,229.32372,69,60,0
229.07532,229.32372,60,60,0
229.32372,229.57153,68,60,0
229.32372,229.57153,62,60,0
229.57153,229.81891,69,60,0
229.57153,229.81891,60,60,0
229.81891,230.06503,71,60,0
229.81891,230.06503,59,60,0
230.06503,230.31041,72,60,0
230.06503,230.31041,57,60,0
230.31041,230.50562,69,60,0
230.31041,230.50562,60,60,0
230.55537,230.79958,74,60,0
230.55537,230.79958,59,60,0
230.79958,231.04271,72,60,0
230.79958,231.04271,57,60,0
231.04271,231.28513,71,60,0
231.04271,231.28513,56,60,0
231.28513,231.52731,70,60,0
231.28513,231.52731,54,60,0
231.52731,231.76839,71,60,0
231.52731,231.76839,56,60,0
231.76839,232.00862,72,60,0
231.76839,232.00862,57,60,0
232.00862,232.24814,74,60,0
232.00862,232.24814,59,60,0
232.24814,232.43843,71,60,0
232.24814,232.43843,56,60,0
232.48694,232.72562,72,60,0
232.48694,232.72562,57,60,0
232.72562,232.96619,73,67,0
232.72562,232.96619,55,67,0
232.96619,233.20935,74,73,0
232.96619,233.20935,53,73,0
233.20935,233.40549,76,80,0
233.20935,233.45586,52,80,0
233.45586,233.70482,50,105,0
233.70482,233.95378,49,86,0
233.45586,234.07826,77,105,0
234.07826,234.20274,76,80,0
233.95378,234.20274,50,86,0
234.20274,234.32722,74,73,0
234.20274,234.40114,52,73,0
234.32722,234.42642,72,67,0
234.4517,234.57524,53,60,0
234.4517,234.57623,71,60,0
234.57623,234.70139,72,60,0
234.70139,234.82623,53,60,0
234.70139,234.82721,71,60,0
234.82721,234.95369,72,60,0
234.95369,235.07985,51,60,0
234.95369,235.08084,69,60,0
235.08084,235.20866,71,60,0
235.20866,235.33617,51,60,0
235.20866,235.33717,69,60,0
235.33717,235.43987,71,60,0
235.46605,235.59566,68,60,0
235.59566,235.72624,69,60,0
235.46605,235.72624,52,60,0
235.72624,235.85756,71,60,0
235.85756,235.96274,68,60,0
235.98958,236.1213,64,60,0
236.52507,236.65007,57,60,0
236.65007,236.77502,64,60,0
236.52507,236.77502,45,60,0
236.77502,236.89966,59,60,0
236.89966,237.0242,64,60,0
237.0242,237.14847,60,60,0
237.14847,237.2726,64,60,0
237.2726,237.39651,62,60,0
237.39651,237.52043,64,60,0
237.52043,237.64433,60,60,0
237.64433,237.7678,64,60,0
237.52043,237.7678,45,60,0
237.7678,237.89099,59,60,0
237.89099,238.01392,64,60,0
238.01392,238.13676,57,60,0
238.13676,238.2593,64,60,0
238.2593,238.38177,60,60,0
238.38177,238.50427,64,60,0
238.50427,238.62666,59,60,0
238.62666,238.74846,64,60,0
238.50427,238.74846,40,60,0
238.74846,238.87016,57,60,0
238.87016,238.9916,64,60,0
238.9916,239.11292,56,60,0
239.11292,239.23401,64,60,0
239.23401,239.3551,54,60,0
239.3551,239.4762,64,60,0
239.4762,239.59686,56,60,0
239.59686,239.71729,64,60,0
239.4762,239.71729,40,60,0
239.71729,239.83743,57,60,0
239.83743,239.95752,64,60,0
239.95752,240.07729,59,60,0
240.07729,240.19702,64,60,0
240.19702,240.31642,56,60,0
240.31642,240.43582,64,60,0
240.43582,240.55498,57,60,0
240.55498,240.6745,69,64,0
240.43582,240.6745,45,60,0
240.6745,240.79451,57,67,0
240.79451,240.91507,69,70,0
240.6745,240.91507,43,67,0
240.91507,241.03629,57,73,0
241.03629,241.15823,69,76,0
240.91507,241.15823,41,73,0
241.15823,241.28102,57,80,0
241.28102,241.40474,69,83,0
241.15823,241.40474,40,80,0
241.40474,241.52922,57,86,0
241.52922,241.6537,69,83,0
241.40474,241.6537,38,86,0
241.6537,241.77818,57,80,0
241.77818,241.90266,69,76,0
241.6537,241.90266,37,80,0
241.90266,242.02715,57,73,0
242.02715,242.15163,69,70,0
241.90266,242.15163,38,73,0
242.15163,242.27611,57,67,0
242.15163,242.35002,41,67,0
242.27611,242.40059,69,64,0
242.40059,242.52412,40,60,0
242.40059,242.52412,52,60,0
242.40059,242.5251,57,60,0
242.5251,242.65002,60,60,0
242.65002,242.77438,40,60,0
242.65002,242.77438,52,60,0
242.65002,242.77538,64,60,0
242.77538,242.90115,69,60,0
242.90115,243.02637,40,60,0
242.90115,243.02637,52,60,0
242.90115,243.02734,56,60,0
243.02734,243.15398,59,60,0
243.15398,243.28006,40,60,0
243.15398,243.28006,52,60,0
243.15398,243.28105,64,60,0
243.28105,243.40836,68,60,0
243.53612,243.6645,57,62,0
243.40836,243.6645,33,60,0
243.40836,243.6645,45,60,0
243.6645,243.79333,60,64,0
243.79333,243.92262,64,65,0
243.92262,244.05237,69,67,0
244.05237,244.18256,72,68,0
244.18256,244.3132,76,70,0
244.3132,244.44432,72,72,0
244.18256,244.44432,44,70,0
244.18256,244.44432,56,70,0
244.44432,244.56943,69,73,0
244.56943,244.6949,81,75,0
244.44432,244.6949,45,73,0
244.44432,244.6949,57,73,0
244.6949,244.82086,69,76,0
244.82086,244.94739,81,78,0
244.6949,244.94739,43,76,0
244.6949,244.94739,55,76,0
244.94739,245.07455,69,80,0
245.07455,245.20245,81,81,0
244.94739,245.20245,41,80,0
244.94739,245.20245,53,80,0
245.20245,245.3312,69,83,0
245.3312,245.46088,81,84,0
245.20245,245.46088,40,83,0
245.20245,245.46088,52,83,0
245.46088,245.58588,69,97,0
245.58588,245.71088,81,97,0
245.46088,245.71088,38,97,0
245.46088,245.71088,50,97,0
245.71088,245.83588,69,97,0
245.83588,245.96088,81,97,0
245.71088,245.96088,37,97,0
245.71088,245.96088,49,97,0
245.96088,246.08588,69,97,0
246.08588,246.21088,81,97,0
245.96088,246.21088,38,97,0
245.96088,246.21088,50,97,0
246.21088,246.33588,69,97,0
246.21088,246.4101,41,97,0
246.21088,246.4101,53,97,0
246.33588,246.46088,81,97,0
246.46088,246.5851,40,97,0
246.46088,246.5851,52,97,0
246.46088,246.58607,69,97,0
246.58607,246.71205,72,97,0
246.71205,246.83798,40,97,0
246.71205,246.83798,52,97,0
246.71205,246.83897,76,97,0
246.83897,246.96706,81,97,0
246.96706,247.09544,40,97,0
246.96706,247.09544,52,97,0
246.96706,247.09647,68,97,0
247.09647,247.22742,80,97,0
247.22742,247.3591,40,97,0
247.22742,247.3591,52,97,0
247.22742,247.36014,68,97,0
247.36014,247.49486,80,97,0
247.49486,247.74486,69,97,0
247.49486,247.74486,81,97,0
247.49486,247.74486,33,97,0
247.49486,247.74486,45,97,0
247.74486,247.86986,72,97,0
247.86986,247.99486,69,97,0
247.99486,248.11986,64,97,0
248.11986,248.24486,69,97,0
248.24486,248.36986,72,97,0
248.36986,248.49486,69,97,0
248.49486,248.61986,72,97,0
248.61986,248.74486,69,97,0
248.49486,248.74486,45,97,0
248.49486,248.74486,48,97,0
248.49486,248.74486,52,97,0
248.74486,248.86986,64,97,0
248.86986,248.99486,69,97,0
248.99486,249.11986,72,97,0
249.11986,249.24486,69,97,0
249.24486,249.36986,72,97,0
249.36986,249.49486,69,97,0
249.49486,249.61986,74,97,0
249.61986,249.74486,71,97,0
249.49486,249.74486,43,97,0
249.49486,249.74486,47,97,0
249.49486,249.74486,50,97,0
249.49486,249.74486,55,97,0
249.74486,249.86986,67,97,0
249.86986,249.99486,71,97,0
249.99486,250.11986,74,97,0
250.11986,250.24486,71,97,0
250.24486,250.36986,74,97,0
250.36986,250.49486,71,97,0
250.49486,250.61986,74,97,0
250.61986,250.74486,71,97,0
250.49486,250.74486,43,97,0
250.49486,250.74486,47,97,0
250.49486,250.74486,50,97,0
250.49486,250.74486,55,97,0
250.74486,250.86986,67,97,0
250.86986,250.99486,71,97,0
250.99486,251.11986,74,97,0
251.11986,251.24486,71,97,0
251.24486,251.36986,74,97,0
251.36986,251.49486,71,97,0
251.49486,251.61986,76,97,0
251.61986,251.74486,72,97,0
251.49486,251.74486,48,97,0
251.49486,251.74486,52,97,0
251.49486,251.74486,55,97,0
251.49486,251.74486,60,97,0
251.74486,251.86986,67,97,0
251.86986,251.99486,72,97,0
251.99486,252.11986,76,97,0
252.11986,252.24486,72,97,0
252.24486,252.36986,76,97,0
252.36986,252.49486,72,97,0
252.49486,252.61986,76,97,0
252.61986,252.74486,73,97,0
252.49486,252.74486,45,97,0
252.49486,252.74486,49,97,0
252.49486,252.74486,52,97,0
252.49486,252.74486,57,97,0
252.74486,252.86986,69,97,0
252.86986,252.99486,73,97,0
252.99486,253.11986,76,97,0
253.11986,253.24486,73,97,0
253.24486,253.36986,76,97,0
253.36986,253.49486,73,97,0
253.49486,253.61986,77,97,0
253.61986,253.74486,74,97,0
253.49486,253.74486,50,97,0
253.49486,253.74486,53,97,0
253.49486,253.74486,57,97,0
253.49486,253.74486,62,97,0
253.74486,253.86986,69,97,0
253.86986,253.99486,74,97,0
253.99486,254.11986,77,97,0
254.11986,254.24486,74,97,0
254.24486,254.36986,77,97,0
254.36986,254.49486,74,97,0
254.49486,254.6201,72,97,0
254.6201,254.74626,76,97,0
254.49486,254.74626,52,97,0
254.49486,254.74626,57,97,0
254.49486,254.74626,60,97,0
254.49486,254.74626,64,97,0
254.74626,254.8736,72,97,0
254.8736,255.0023,69,97,0
255.0023,255.13263,68,97,0
255.13263,255.26485,76,97,0
255.0023,255.26485,52,97,0
255.0023,255.26485,56,97,0
255.0023,255.26485,59,97,0
255.0023,255.26485,64,97,0
255.26485,255.39922,71,97,0
255.39922,255.53607,68,97,0
255.53607,255.66107,45,97,0
255.53607,255.78607,69,97,0
255.66107,255.78607,48,97,0
255.78607,255.91107,52,97,0
255.91107,256.03607,48,97,0
256.03607,256.1601,72,113,0
256.03607,256.1601,76,113,0
256.03607,256.1601,81,113,0
256.03607,256.1601,84,113,0
256.03607,256.16107,52,113,0
256.16107,256.28607,48,113,0
256.28607,256.4101,72,113,0
256.28607,256.4101,76,113,0
256.28607,256.4101,81,113,0
256.28607,256.4101,84,113,0
256.28607,256.41107,52,113,0
256.41107,256.53607,48,113,0
256.53607,256.66107,45,113,0
256.66107,256.78607,48,113,0
256.78607,256.91107,52,113,0
256.91107,257.03607,48,113,0
257.03607,257.1601,72,113,0
257.03607,257.1601,76,113,0
257.03607,257.1601,81,113,0
257.03607,257.1601,84,113,0
257.03607,257.16107,52,113,0
257.16107,257.28607,48,113,0
257.28607,257.4101,72,113,0
257.28607,257.4101,76,113,0
257.28607,257.4101,81,113,0
257.28607,257.4101,84,113,0
257.28607,257.41107,52,113,0
257.41107,257.53607,48,113,0
257.53607,257.66107,43,113,0
257.66107,257.78607,47,113,0
257.78607,257.91107,50,113,0
257.91107,258.03607,55,113,0
258.03607,258.1601,74,113,0
258.03607,258.1601,79,113,0
258.03607,258.1601,83,113,0
258.03607,258.1601,86,113,0
258.03607,258.16107,54,113,0
258.16107,258.28607,55,113,0
258.28607,258.4101,74,113,0
258.28607,258.4101,79,113,0
258.28607,258.4101,83,113,0
258.28607,258.4101,86,113,0
258.28607,258.41107,54,113,0
258.41107,258.53607,55,113,0
258.53607,258.66107,43,113,0
258.66107,258.78607,47,113,0
258.78607,258.91107,50,113,0
258.91107,259.03607,55,113,0
259.03607,259.1601,74,113,0
259.03607,259.1601,79,113,0
259.03607,259.1601,83,113,0
259.03607,259.1601,86,113,0
259.03607,259.16107,54,113,0
259.16107,259.28607,55,113,0
259.28607,259.4101,74,113,0
259.28607,259.4101,79,113,0
259.28607,259.4101,83,113,0
259.28607,259.4101,86,113,0
259.28607,259.41107,54,113,0
259.41107,259.53607,55,113,0
259.53607,259.66107,48,113,0
259.66107,259.78607,52,113,0
259.78607,259.91107,55,113,0
259.91107,260.03607,60,113,0
260.03607,260.1601,76,127,0
260.03607,260.1601,79,127,0
260.03607,260.1601,84,127,0
260.03607,260.1601,88,127,0
260.03607,260.16107,59,127,0
260.16107,260.28607,60,113,0
260.28607,260.4101,76,113,0
260.28607,260.4101,79,113,0
260.28607,260.4101,84,113,0
260.28607,260.4101,88,113,0
260.28607,260.41107,59,113,0
260.41107,260.53607,60,113,0
260.53607,260.66107,45,113,0
260.66107,260.78607,49,113,0
260.78607,260.91107,52,113,0
260.91107,261.03607,57,113,0
261.03607,261.1601,76,127,0
261.03607,261.1601,81,127,0
261.03607,261.1601,85,127,0
261.03607,261.1601,88,127,0
261.03607,261.16107,56,127,0
261.16107,261.28607,57,113,0
261.28607,261.4101,76,113,0
261.28607,261.4101,81,113,0
261.28607,261.4101,85,113,0
261.28607,261.4101,88,113,0
261.28607,261.41107,56,113,0
261.41107,261.53607,57,113,0
261.53607,261.66107,50,113,0
261.66107,261.78607,53,113,0
261.78607,261.91107,57,113,0
261.91107,262.03607,62,113,0
262.03607,262.1601,77,127,0
262.03607,262.1601,81,127,0
262.03607,262.1601,86,127,0
262.03607,262.1601,89,127,0
262.03607,262.16107,61,127,0
262.16107,262.28607,62,113,0
262.28607,262.4101,77,113,0
262.28607,262.4101,81,113,0
262.28607,262.4101,86,113,0
262.28607,262.4101,89,113,0
262.28607,262.41107,61,113,0
262.41107,262.53607,62,113,0
262.53607,262.66132,52,113,0
262.66132,262.78748,57,113,0
262.78748,262.91382,76,113,0
262.78748,262.91382,81,113,0
262.78748,262.91382,84,113,0
262.78748,262.91382,88,113,0
262.78748,262.9148,60,113,0
262.9148,263.04352,64,113,0
263.04352,263.17386,52,113,0
263.17386,263.30606,56,113,0
263.30606,263.4394,76,113,0
263.30606,263.4394,80,113,0
263.30606,263.4394,83,113,0
263.30606,263.4394,88,113,0
263.30606,263.44043,59,113,0
263.44043,263.5773,64,113,0
263.5773,263.7023,45,113,0
263.7023,263.8273,48,113,0
263.8273,263.9523,52,113,0
263.9523,264.0773,57,113,0
264.0773,264.20132,76,127,0
264.0773,264.20132,81,127,0
264.0773,264.20132,84,127,0
264.0773,264.20132,88,127,0
264.0773,264.2023,56,127,0
264.2023,264.3273,57,113,0
264.3273,264.45132,76,113,0
264.3273,264.45132,81,113,0
264.3273,264.45132,84,113,0
264.3273,264.45132,88,113,0
264.3273,264.4523,56,113,0
264.4523,264.5773,57,113,0
264.5773,264.7023,45,113,0
264.7023,264.8273,49,113,0
264.8273,264.9523,52,113,0
264.9523,265.0773,57,113,0
265.0773,265.20132,76,127,0
265.0773,265.20132,81,127,0
265.0773,265.20132,85,127,0
265.0773,265.20132,88,127,0
265.0773,265.2023,56,127,0
265.2023,265.3273,57,113,0
265.3273,265.45132,76,113,0
265.3273,265.45132,81,113,0
265.3273,265.45132,85,113,0
265.3273,265.45132,88,113,0
265.3273,265.4523,56,113,0
265.4523,265.5773,57,113,0
265.5773,265.7023,50,113,0
265.7023,265.8273,53,113,0
265.8273,265.9523,57,113,0
265.9523,266.0773,62,113,0
266.0773,266.20132,77,127,0
266.0773,266.20132,81,127,0
266.0773,266.20132,86,127,0
266.0773,266.20132,89,127,0
266.0773,266.2023,61,127,0
266.2023,266.3273,62,113,0
266.3273,266.45132,77,113,0
266.3273,266.45132,81,113,0
266.3273,266.45132,86,113,0
266.3273,266.45132,89,113,0
266.3273,266.4523,61,113,0
266.4523,266.5773,62,113,0
266.5773,266.7025,52,113,0
266.7025,266.8287,57,113,0
266.8287,266.95502,76,113,0
266.8287,266.95502,81,113,0
266.8287,266.95502,84,113,0
266.8287,266.95502,88,113,0
266.8287,266.95602,60,113,0
266.95602,267.08472,64,113,0
267.08472,267.21506,52,113,0
267.21506,267.3473,56,113,0
267.3473,267.4806,76,113,0
267.3473,267.4806,80,113,0
267.3473,267.4806,83,113,0
267.3473,267.4806,88,113,0
267.3473,267.48166,59,113,0
267.48166,267.6185,64,113,0
267.6185,267.7435,45,113,0
267.7435,267.8685,48,113,0
267.8685,267.9935,52,113,0
267.9935,268.1185,57,113,0
268.1185,268.24252,76,127,0
268.1185,268.24252,81,127,0
268.1185,268.24252,84,127,0
268.1185,268.24252,88,127,0
268.1185,268.2435,56,127,0
268.2435,268.3685,57,113,0
268.3685,268.49252,76,113,0
268.3685,268.49252,81,113,0
268.3685,268.49252,84,113,0
268.3685,268.49252,88,113,0
268.3685,268.4935,56,113,0
268.4935,268.6185,57,113,0
268.6185,268.7435,45,113,0
268.7435,268.8685,49,113,0
268.8685,268.9935,52,113,0
268.9935,269.1185,57,113,0
269.1185,269.24252,76,127,0
269.1185,269.24252,81,127,0
269.1185,269.24252,85,127,0
269.1185,269.24252,88,127,0
269.1185,269.2435,56,127,0
269.2435,269.3685,57,113,0
269.3685,269.49252,76,113,0
269.3685,269.49252,81,113,0
269.3685,269.49252,85,113,0
269.3685,269.49252,88,113,0
269.3685,269.4935,56,113,0
269.4935,269.6185,57,113,0
269.6185,269.7435,38,113,0
269.7435,269.8685,41,113,0
269.8685,269.9935,45,113,0
269.9935,270.1185,50,113,0
270.1185,270.24252,77,127,0
270.1185,270.24252,81,127,0
270.1185,270.24252,86,127,0
270.1185,270.24252,89,127,0
270.1185,270.2435,49,127,0
270.2435,270.3685,50,113,0
270.3685,270.49252,77,113,0
270.3685,270.49252,81,113,0
270.3685,270.49252,86,113,0
270.3685,270.49252,89,113,0
270.3685,270.4935,49,113,0
270.4935,270.6185,50,113,0
270.6185,270.74518,38,113,0
270.74518,270.8789,41,113,0
270.8789,271.02115,69,113,0
270.8789,271.02115,74,113,0
270.8789,271.02115,77,113,0
270.8789,271.02115,81,113,0
270.8789,271.0223,45,113,0
271.0223,271.17905,50,113,0
271.17905,271.3545,38,113,0
271.3545,271.55725,41,113,0
271.55725,271.80057,69,113,0
271.55725,271.80057,74,113,0
271.55725,271.80057,77,113,0
271.55725,271.80057,81,113,0
271.55725,271.8026,45,113,0
271.8026,272.12234,50,113,0
272.12234,277.539,69,127,0
272.12234,277.539,72,127,0
272.12234,277.539,78,127,0
272.12234,277.539,81,127,0
272.12234,277.539,39,113,0
272.12234,277.539,51,113,0
277.95566,278.20566,66,113,0
277.95566,278.20566,54,113,0
278.20566,278.95566,69,113,0
278.20566,278.95566,57,113,0
278.95566,279.20566,66,60,0
278.95566,279.20566,54,60,0
279.20566,279.45566,63,60,0
279.20566,279.45566,51,60,0
279.45566,279.70566,60,60,0
279.45566,279.70566,48,60,0
279.70566,279.95566,57,60,0
279.70566,279.95566,45,60,0
279.95566,280.20566,54,60,0
279.95566,280.20566,42,60,0
280.20566,280.45605,51,60,0
280.20566,280.45605,39,60,0
280.45605,280.70776,48,60,0
280.45605,280.70776,36,60,0
280.70776,280.90952,47,60,0
280.70776,280.96118,35,60,0
280.96118,281.16458,39,60,0
280.96118,281.7353,54,60,0
281.21658,281.7353,40,60,0
280.96118,281.945,47,60,0
281.7353,281.945,52,60,0
281.7353,281.945,28,60,0
281.99844,282.24844,71,60,0
281.99844,282.24844,59,60,0
282.24844,282.99844,74,97,0
282.24844,282.99844,62,97,0
282.99844,283.24844,71,60,0
282.99844,283.24844,59,60,0
283.24844,283.49844,68,60,0
283.24844,283.49844,56,60,0
283.49844,283.74844,65,60,0
283.49844,283.74844,53,60,0
283.74844,283.99844,62,60,0
283.74844,283.99844,50,60,0
283.99844,284.24844,59,60,0
283.99844,284.24844,47,60,0
284.24844,284.49884,56,60,0
284.24844,284.49884,44,60,0
284.49884,284.75055,53,60,0
284.49884,284.75055,41,60,0
284.75055,284.9523,52,60,0
284.75055,285.00397,40,60,0
285.00397,285.20737,44,60,0
285.00397,285.77808,59,60,0
285.25937,285.77808,45,60,0
285.00397,285.9878,52,60,0
285.77808,285.9878,57,60,0
285.77808,285.9878,33,60,0
286.04123,286.29123,76,60,0
286.04123,286.29123,64,60,0
286.29123,287.04123,79,97,0
286.29123,287.04123,67,97,0
287.04123,287.29123,76,60,0
287.04123,287.29123,64,60,0
287.29123,287.54123,73,60,0
287.29123,287.54123,61,60,0
287.54123,287.79123,70,60,0
287.54123,287.79123,58,60,0
287.79123,288.04123,67,60,0
287.79123,288.04123,55,60,0
288.04123,288.29123,64,60,0
288.04123,288.29123,52,60,0
288.29123,288.54163,61,60,0
288.29123,288.54163,49,60,0
288.54163,288.79333,58,60,0
288.54163,288.79333,46,60,0
288.79333,288.9951,57,60,0
288.79333,289.04675,45,60,0
289.04675,289.25015,49,60,0
289.04675,289.82086,64,60,0
289.30215,289.82086,50,60,0
289.04675,290.03058,57,60,0
289.82086,290.03058,62,60,0
289.82086,290.03058,38,60,0
290.08405,290.33405,56,60,0
290.08405,290.83405,71,60,0
290.08405,290.83405,74,60,0
290.33405,290.83405,57,60,0
290.83405,291.03326,72,60,0
290.83405,291.03326,45,60,0
291.08405,291.33405,62,60,0
291.08405,291.33405,65,60,0
291.33405,291.53348,64,60,0
291.08405,291.5844,71,60,0
291.5844,291.99033,69,60,0
291.83612,292.08954,52,60,0
292.34494,292.60275,57,60,0
292.08954,292.86368,68,60,0
292.86368,293.07336,69,60,0
293.12683,293.37683,61,60,0
293.12683,293.37683,70,60,0
293.37683,293.57605,62,60,0
293.37683,293.57605,69,60,0
293.12683,293.87683,88,60,0
293.87683,294.07605,86,60,0
294.12683,294.37683,68,60,0
294.12683,294.37683,71,60,0
294.37683,294.57605,69,60,0
294.37683,294.57605,72,60,0
294.12683,294.87683,86,60,0
294.87683,295.07605,84,60,0
295.12683,295.37683,62,60,0
295.12683,295.37683,65,60,0
295.37683,295.57767,64,60,0
295.12683,295.62964,83,60,0
295.62964,296.16852,81,60,0
295.89203,296.16852,52,60,0
296.16852,296.465,80,60,0
297.715,297.87003,52,50,0
297.715,297.87003,57,50,0
297.715,297.87003,61,50,0
297.715,297.87003,45,50,0
298.02615,298.17856,52,50,0
298.02615,298.17856,57,50,0
298.02615,298.17856,61,50,0
298.02615,298.17856,45,50,0
298.92578,299.07,54,50,0
298.92578,299.07,57,50,0
298.92578,299.07,59,50,0
298.92578,299.07,38,50,0
298.92578,299.07,50,50,0
299.21445,299.35507,54,50,0
299.21445,299.35507,57,50,0
299.21445,299.35507,59,50,0
299.21445,299.35507,38,50,0
299.21445,299.35507,50,50,0
300.04645,300.18127,56,50,0
300.04645,300.18127,59,50,0
300.04645,300.18127,62,50,0
300.04645,300.18127,40,50,0
300.04645,300.18127,52,50,0
300.3152,300.44586,56,50,0
300.3152,300.44586,59,50,0
300.3152,300.44586,62,50,0
300.3152,300.44586,40,50,0
300.3152,300.44586,52,50,0
301.08942,301.21344,57,50,0
301.08942,301.21344,61,50,0
301.08942,301.21344,45,50,0
301.08942,301.21344,52,50,0
301.33942,301.46344,57,50,0
301.33942,301.46344,61,50,0
301.33942,301.46344,45,50,0
301.33942,301.46344,52,50,0
302.08942,302.21344,57,50,0
302.08942,302.21344,61,50,0
302.08942,302.21344,64,50,0
302.08942,302.21344,45,50,0
302.3412,302.46875,57,55,0
302.3412,302.46875,61,55,0
302.3412,302.46875,64,55,0
302.3412,302.46875,45,55,0
303.15326,303.29886,57,67,0
303.15326,303.29886,62,67,0
303.15326,303.29886,65,67,0
303.15326,303.29886,45,67,0
303.45322,303.61148,57,71,0
303.45322,303.61148,62,71,0
303.45322,303.61148,65,71,0
303.45322,303.61148,45,71,0
304.51245,309.3029,60,50,0
304.51245,309.3029,63,50,0
304.51245,309.3029,65,50,0
304.51245,309.3029,45,50,0
304.51245,309.3029,57,50,0
310.0529,311.0529,65,60,0
310.0529,311.0529,58,60,0
310.0529,311.0529,62,60,0
311.0529,312.0529,65,60,0
311.0529,312.0529,60,60,0
311.0529,312.0529,63,60,0
312.0529,313.05765,65,60,0
312.0529,313.05765,57,60,0
312.0529,313.05765,60,60,0
313.05765,313.9803,65,60,0
313.05765,313.9803,58,60,0
313.05765,313.9803,62,60,0
314.07898,315.07898,63,60,0
314.07898,315.07898,51,60,0
314.07898,315.07898,55,60,0
315.07898,316.07898,62,69,0
315.07898,316.07898,53,69,0
315.07898,316.07898,56,69,0
316.07898,316.5942,63,77,0
316.07898,316.5942,51,77,0
316.07898,316.5942,55,77,0
316.5942,316.87067,65,82,0
316.5942,316.87067,50,82,0
316.5942,316.87067,53,82,0
316.87067,317.10507,67,84,0
316.87067,317.10507,48,84,0
316.87067,317.10507,51,84,0
317.16718,317.6824,58,60,0
317.6824,317.90125,57,60,0
317.16718,317.95886,53,60,0
317.95886,318.25534,41,60,0
318.25534,319.254,34,50,0
318.25534,319.254,46,50,0
319.50308,319.75195,65,50,0
319.75195,320.00058,63,50,0
320.00058,320.19855,60,50,0
319.254,320.249,33,50,0
319.254,320.249,45,50,0
320.249,321.24042,39,50,0
320.249,321.24042,51,50,0
321.4877,321.73477,65,50,0
321.73477,321.98163,62,50,0
321.24042,322.12903,38,50,0
321.24042,322.12903,50,50,0
321.98163,322.17816,58,50,0
322.22827,323.21255,33,50,0
322.22827,323.21255,45,50,0
323.45807,323.70337,64,50,0
323.70337,323.94846,62,50,0
323.94846,324.1436,59,50,0
323.21255,324.19333,32,50,0
323.21255,324.19333,44,50,0
324.19333,325.17062,38,50,0
324.19333,325.17062,50,50,0
325.4144,325.65796,64,50,0
325.65796,325.9013,60,50,0
325.17062,326.04483,36,50,0
325.17062,326.04483,48,50,0
325.9013,326.0952,57,50,0
326.14462,327.11798,41,50,0
326.14462,327.11798,53,50,0
327.3619,327.60645,69,50,0
327.60645,327.85144,66,50,0
327.85144,328.04684,60,50,0
327.11798,328.09665,39,50,0
327.11798,328.09665,51,50,0
328.09665,328.9835,40,50,0
328.09665,328.9835,52,50,0
329.33102,329.57986,68,50,0
329.57986,329.8294,62,50,0
329.8294,330.02884,59,50,0
329.08292,330.07968,40,50,0
331.3459,331.60297,71,49,0
331.60297,331.86157,68,47,0
331.86157,332.06897,62,46,0
331.09024,332.12183,40,50,0
330.07968,332.12183,52,50,0
333.45273,333.72583,74,36,0
333.72583,334.00156,71,34,0
334.00156,334.2235,68,33,0
333.18216,334.28012,40,38,0
332.12183,334.28012,52,44,0
335.71643,336.00345,77,27,0
336.00345,336.28412,74,30,0
336.28412,336.5594,71,33,0
335.42276,336.5594,40,24,0
334.28012,336.5594,52,31,0
336.5594,336.82877,68,36,0
336.82877,337.09195,65,39,0
337.09195,337.34976,64,42,0
336.5594,337.34976,40,36,0
336.5594,337.34976,52,36,0
337.34976,337.60242,63,45,0
337.34976,337.60242,51,45,0
337.60242,337.85498,62,48,0
337.60242,337.85498,50,48,0
337.85498,338.11978,60,51,0
337.85498,338.11978,48,51,0
338.11978,338.4031,59,54,0
338.11978,338.4031,47,54,0
338.4031,338.64804,64,57,0
338.4031,338.64804,52,57,0
338.71378,338.83878,64,60,0
338.83878,338.96375,76,60,0
338.71378,338.96375,48,60,0
338.96375,339.08838,64,60,0
339.08838,339.21292,76,60,0
338.96375,339.21292,47,60,0
339.21292,339.3372,64,59,0
339.3372,339.46133,76,60,0
339.21292,339.46133,45,59,0
339.46133,339.58524,64,61,0
339.58524,339.70914,76,61,0
339.46133,339.70914,44,61,0
339.70914,339.83304,64,62,0
339.83304,339.9565,76,63,0
339.70914,339.9565,45,62,0
339.9565,340.0797,64,63,0
340.0797,340.20264,76,64,0
339.9565,340.20264,47,63,0
340.20264,340.32547,64,65,0
340.32547,340.448,76,65,0
340.20264,340.448,48,65,0
340.448,340.5705,64,66,0
340.448,340.64322,45,66,0
340.5705,340.693,76,66,0
340.693,340.81537,64,67,0
340.81537,340.93716,76,68,0
340.693,340.93716,50,67,0
340.93716,341.05887,64,68,0
341.05887,341.18033,76,69,0
340.93716,341.18033,48,68,0
341.18033,341.30164,64,70,0
341.30164,341.42273,76,70,0
341.18033,341.42273,47,70,0
341.42273,341.54382,64,71,0
341.54382,341.66492,76,71,0
341.42273,341.66492,46,71,0
341.66492,341.78558,64,72,0
341.78558,341.906,76,73,0
341.66492,341.906,47,72,0
341.906,342.02615,64,73,0
342.02615,342.14624,76,74,0
341.906,342.14624,48,73,0
342.14624,342.26602,64,75,0
342.26602,342.38574,76,75,0
342.14624,342.38574,50,75,0
342.38574,342.50516,64,76,0
342.38574,342.57605,47,76,0
342.50516,342.62454,76,77,0
342.62454,342.74368,64,77,0
342.74368,342.86322,76,78,0
342.62454,342.86322,48,77,0
342.86322,342.98322,69,78,0
342.98322,343.1038,81,79,0
342.86322,343.1038,49,78,0
343.1038,343.225,69,80,0
343.225,343.34695,81,80,0
343.1038,343.34695,50,80,0
343.34695,343.46973,69,81,0
343.34695,343.5431,52,81,0
343.46973,343.59348,81,82,0
343.59348,343.71796,69,82,0
343.71796,343.84244,81,83,0
343.84244,343.9669,69,83,0
343.9669,344.09137,81,84,0
344.09137,344.21585,69,85,0
343.59348,344.21585,53,82,0
344.21585,344.34033,81,85,0
344.21585,344.34033,52,85,0
344.34033,344.4648,69,86,0
344.34033,344.4648,50,86,0
344.4648,344.56403,48,87,0
344.4648,344.5893,81,87,0
344.5893,344.71384,74,87,0
344.5893,344.71384,47,87,0
344.71384,344.839,86,88,0
344.71384,344.839,48,88,0
344.839,344.9648,74,88,0
344.839,344.9648,47,88,0
344.9648,345.0913,86,89,0
344.9648,345.0913,48,89,0
345.0913,345.21844,75,90,0
345.0913,345.21844,45,90,0
345.21844,345.34628,87,90,0
345.21844,345.34628,47,90,0
345.34628,345.47476,75,91,0
345.34628,345.47476,45,91,0
345.47476,345.57745,47,92,0
345.47476,345.60364,87,92,0
345.60364,345.73325,44,92,0
345.60364,345.86386,76,92,0
345.60364,345.86386,88,92,0
345.73325,345.86386,45,93,0
345.86386,345.99515,47,94,0
345.99515,346.10034,44,94,0
346.1272,346.2589,40,95,0
346.39343,346.66266,64,96,0
346.39343,346.66266,76,96,0
346.66266,346.91263,72,97,0
346.66266,346.91263,84,97,0
346.66266,346.91263,33,97,0
346.66266,346.91263,45,97,0
346.91263,347.1618,71,97,0
346.91263,347.1618,83,97,0
347.1618,347.41022,69,97,0
347.1618,347.41022,81,97,0
347.41022,347.65802,68,97,0
347.41022,347.65802,80,97,0
347.65802,347.9054,69,97,0
347.65802,347.9054,81,97,0
347.65802,347.9054,45,97,0
347.65802,347.9054,57,97,0
347.9054,348.15152,71,97,0
347.9054,348.15152,83,97,0
348.15152,348.39688,72,97,0
348.15152,348.39688,84,97,0
348.39688,348.5921,69,97,0
348.39688,348.5921,81,97,0
348.64188,348.88605,74,97,0
348.64188,348.88605,86,97,0
348.64188,348.88605,45,97,0
348.64188,348.88605,57,97,0
348.88605,349.1292,72,97,0
348.88605,349.1292,84,97,0
349.1292,349.3716,71,97,0
349.1292,349.3716,83,97,0
349.3716,349.6138,70,97,0
349.3716,349.6138,82,97,0
349.6138,349.8549,71,97,0
349.6138,349.8549,83,97,0
349.6138,349.8549,52,97,0
349.6138,349.8549,64,97,0
349.8549,350.09512,72,97,0
349.8549,350.09512,84,97,0
350.09512,350.33463,74,97,0
350.09512,350.33463,86,97,0
350.33463,350.52493,71,97,0
350.33463,350.52493,83,97,0
350.57343,350.8121,72,116,0
350.57343,350.8121,84,116,0
350.57343,350.8121,45,116,0
350.57343,350.8121,57,116,0
350.8121,351.05267,73,97,0
350.8121,351.05267,85,97,0
351.05267,351.29584,74,97,0
351.05267,351.29584,86,97,0
351.29584,351.49197,76,97,0
351.29584,351.49197,88,97,0
351.54236,351.79132,38,116,0
351.54236,351.79132,50,116,0
351.54236,352.28925,77,116,0
351.54236,352.28925,89,116,0
352.28925,352.41373,76,97,0
352.28925,352.41373,88,97,0
352.41373,352.5129,74,97,0
352.41373,352.5129,86,97,0
352.5382,352.6617,72,97,0
352.5382,352.6617,84,97,0
352.5382,352.6617,40,97,0
352.5382,352.6617,52,97,0
352.78763,352.912,72,97,0
352.78763,352.912,84,97,0
352.78763,352.912,52,97,0
352.78763,352.912,64,97,0
353.03876,353.16397,71,97,0
353.03876,353.16397,83,97,0
353.03876,353.16397,52,97,0
353.03876,353.16397,64,97,0
353.2916,353.41766,71,97,0
353.2916,353.41766,83,97,0
353.2916,353.41766,52,97,0
353.2916,353.41766,64,97,0
353.54596,353.6737,86,97,0
353.6737,353.8021,84,97,0
353.54596,353.8021,45,97,0
353.54596,353.8021,57,97,0
353.8021,353.93094,83,97,0
353.93094,354.03394,84,97,0
354.06024,354.18896,69,97,0
354.06024,354.18896,81,97,0
354.32016,354.4498,71,97,0
354.32016,354.4498,83,97,0
354.58194,354.83252,72,116,0
354.58194,354.83252,84,116,0
354.58194,354.83252,45,97,0
354.58194,354.83252,57,97,0
354.83252,355.085,73,97,0
354.83252,355.085,85,97,0
355.085,355.34006,74,97,0
355.085,355.34006,86,97,0
355.34006,355.5457,76,97,0
355.34006,355.5457,88,97,0
355.59848,355.84848,38,97,0
355.59848,355.84848,50,97,0
355.59848,356.34848,77,116,0
355.59848,356.34848,89,116,0
356.34848,356.47348,76,97,0
356.34848,356.47348,88,97,0
356.47348,356.5731,74,97,0
356.47348,356.5731,86,97,0
356.59848,356.72296,72,97,0
356.59848,356.72296,84,97,0
356.59848,356.72296,40,97,0
356.59848,356.72296,52,97,0
356.85132,356.98004,72,97,0
356.85132,356.98004,84,97,0
356.85132,356.98004,52,97,0
356.85132,356.98004,64,97,0
357.1137,357.24878,71,97,0
357.1137,357.24878,83,97,0
357.1137,357.24878,52,97,0
357.1137,357.24878,64,97,0
357.39017,357.5343,71,97,0
357.39017,357.5343,83,97,0
357.39017,357.5343,52,97,0
357.39017,357.5343,64,97,0
357.68668,357.93668,69,97,0
357.68668,357.93668,81,97,0
357.68668,357.93668,45,97,0
357.68668,357.93668,57,97,0
358.31168,358.43668,88,60,0
358.43668,358.56168,84,60,0
358.56168,358.68668,81,60,0
358.68668,358.7853,80,60,0
358.68668,358.8107,64,60,0
358.68668,358.8107,71,60,0
358.68668,358.8107,74,60,0
359.31546,359.44235,88,59,0
359.44235,359.57025,83,59,0
359.57025,359.69812,80,59,0
359.69812,359.7998,81,58,0
359.69812,359.826,69,58,0
359.69812,359.826,72,58,0
360.3465,360.4774,76,56,0
360.4774,360.6093,72,56,0
360.6093,360.74124,69,56,0
360.74124,360.84616,68,55,0
360.74124,360.87317,52,55,0
360.74124,360.87317,59,55,0
360.74124,360.87317,62,55,0
361.41043,361.54556,76,53,0
361.54556,361.6818,71,53,0
361.6818,361.81805,68,53,0
361.81805,361.92642,69,52,0
361.81805,361.95435,57,52,0
361.81805,361.95435,60,52,0
362.50946,362.64914,64,50,0
362.64914,362.78998,60,50,0
362.78998,362.93082,57,50,0
362.93082,363.0429,56,50,0
362.93082,363.07175,40,50,0
362.93082,363.07175,47,50,0
362.93082,363.07175,50,50,0
363.64597,363.7905,64,50,0
363.7905,363.935,59,50,0
363.935,364.07953,56,50,0
364.07953,364.17816,57,50,0
364.07953,364.20367,45,50,0
364.07953,364.20367,48,50,0
364.72983,364.86926,69,50,0
364.72983,364.86926,57,50,0
364.86926,365.01294,64,59,0
364.86926,365.01294,52,59,0
365.01294,365.159,60,67,0
365.01294,365.159,48,67,0
365.159,365.40646,57,76,0
365.159,365.40646,45,76,0
366.0016,366.19962,57,76,0
366.0016,366.19962,45,76,0
366.19962,366.41168,52,67,0
366.19962,366.41168,40,67,0
366.41168,366.59424,48,59,0
366.41168,366.59424,36,59,0
366.64093,370.14093,45,50,0
366.64093,370.14093,33,50,0
