start_time,end_time,note_value,velocity,instrument_program_number
0.1153845,0.22836515,79,80,0
0.230769,0.34374964,78,80,0
0.3461535,0.45913416,79,80,0
0.461538,0.68990314,81,80,0
0.692307,0.9206722,79,80,0
0.923076,1.1514411,77,80,0
1.153845,1.3822101,76,80,0
1.384614,1.6129792,74,80,0
1.615383,1.8437482,72,80,0
1.846152,2.536055,71,80,0
2.538459,2.7668242,64,80,0
2.769228,2.9975932,62,80,0
2.538459,3.228362,72,80,0
2.999997,3.228362,60,80,0
3.230766,3.920669,74,80,0
3.230766,3.920669,71,80,0
3.230766,3.920669,67,80,0
3.923073,4.612976,76,80,0
3.923073,4.612976,72,80,0
3.923073,4.612976,67,80,0
4.61538,4.843745,79,80,0
4.61538,4.843745,74,80,0
4.61538,4.843745,67,80,0
4.846149,5.0745144,77,80,0
4.846149,5.0745144,71,80,0
4.846149,5.0745144,67,80,0
5.076918,5.305283,76,80,0
5.076918,5.305283,72,80,0
5.076918,5.305283,67,80,0
5.307687,5.536052,74,80,0
5.307687,5.536052,71,80,0
5.307687,5.536052,67,80,0
6.3461475,6.4591284,78,80,0
6.461532,6.5745125,76,80,0
6.5769167,6.689897,78,80,0
6.692301,6.920666,79,80,0
7.0384545,7.1514354,79,80,0
7.153839,7.2668195,78,80,0
7.2692237,7.382204,79,80,0
7.384608,7.612973,81,80,0
7.7307615,7.8437424,81,80,0
7.846146,7.9591265,79,80,0
7.9615307,8.074512,81,80,0
8.076915,8.30528,82,80,0
8.423068,8.536049,82,91,0
8.538453,8.651434,81,95,0
8.653837,8.766818,82,99,0
8.769222,8.997587,85,110,0
9.1153755,9.228356,85,110,0
9.23076,9.34374,84,110,0
9.346145,9.4591255,85,110,0
9.461529,9.689894,86,110,0
9.807682,9.920663,86,110,0
9.923067,10.036048,85,110,0
10.038451,10.151432,86,110,0
10.153836,10.382201,83,110,0
10.153836,10.382201,79,110,0
10.153836,10.382201,74,110,0
10.384605,10.61297,84,110,0
10.384605,10.61297,81,110,0
10.384605,10.61297,76,110,0
10.615374,10.8437395,81,110,0
10.615374,10.8437395,78,110,0
10.615374,10.8437395,72,110,0
10.846143,11.074508,79,110,0
10.846143,11.074508,74,110,0
10.846143,11.074508,71,110,0
11.192296,11.305277,79,80,0
11.307681,11.420662,78,80,0
11.423065,11.536046,79,80,0
11.53845,11.766815,81,80,0
11.769219,11.997584,79,80,0
11.999988,12.2283535,77,80,0
12.230757,12.459122,76,80,0
12.461526,12.689891,74,80,0
12.692295,12.92066,72,80,0
12.923064,13.6129675,71,80,0
13.615371,13.843736,64,80,0
13.84614,14.074505,62,80,0
13.615371,14.305274,72,80,0
14.076909,14.305274,60,80,0
14.307678,14.9975815,74,80,0
14.307678,14.9975815,71,80,0
14.307678,14.9975815,67,80,0
14.999985,15.689888,76,80,0
14.999985,15.689888,72,80,0
14.999985,15.689888,67,80,0
15.692292,15.920657,79,80,0
15.692292,15.920657,74,80,0
15.692292,15.920657,67,80,0
15.923061,16.151426,77,80,0
15.923061,16.151426,71,80,0
15.923061,16.151426,67,80,0
16.15383,16.382195,76,80,0
16.15383,16.382195,72,80,0
16.15383,16.382195,67,80,0
16.3846,16.612965,74,80,0
16.3846,16.612965,71,80,0
16.3846,16.612965,67,80,0
17.42306,17.53604,78,82,0
17.538445,17.651424,76,83,0
17.653828,17.76681,78,84,0
17.769213,17.997578,79,85,0
18.115366,18.228348,79,87,0
18.230751,18.34373,78,88,0
18.346136,18.459116,79,89,0
18.46152,18.689886,81,90,0
18.807674,18.920654,81,93,0
18.923058,19.03604,79,93,0
19.038443,19.151423,81,94,0
19.153828,19.382193,82,95,0
19.49998,19.61296,82,98,0
19.615364,19.728346,81,99,0
19.73075,19.84373,82,99,0
19.846134,20.0745,85,110,0
20.192287,20.305267,85,110,0
20.307673,20.420652,84,110,0
20.423056,20.536037,85,110,0
20.53844,20.766806,86,110,0
20.884594,20.997576,86,110,0
20.999979,21.112959,85,110,0
21.115364,21.228344,86,110,0
21.230747,21.459114,83,110,0
21.230747,21.459114,79,110,0
21.230747,21.459114,74,110,0
21.461517,21.689882,84,110,0
21.461517,21.689882,81,110,0
21.461517,21.689882,76,110,0
21.692286,21.92065,81,110,0
21.692286,21.92065,78,110,0
21.692286,21.92065,72,110,0
21.923056,22.15142,79,110,0
21.923056,22.15142,74,110,0
21.923056,22.15142,71,110,0
22.961515,23.074495,71,80,0
23.0769,23.18988,69,80,0
23.192284,23.305265,71,80,0
23.307669,23.536034,72,80,0
23.653822,23.766804,72,80,0
23.769207,23.882187,71,80,0
23.884592,23.997572,72,80,0
23.999975,24.228342,69,80,0
24.34613,24.45911,69,80,0
24.461514,24.574495,67,80,0
24.576899,24.689878,69,80,0
24.692284,24.920649,70,80,0
25.038437,25.151417,70,80,0
25.153822,25.266802,69,80,0
25.269205,25.382187,70,80,0
25.38459,25.612955,78,80,0
25.615358,25.843723,77,80,0
25.846128,26.074493,75,80,0
26.076897,26.305262,73,80,0
26.307667,26.536032,72,80,0
26.538435,26.7668,70,80,0
26.769203,26.99757,77,80,0
26.769203,26.99757,89,80,0
26.999973,27.228338,75,80,0
26.999973,27.228338,87,80,0
27.230742,27.459106,73,80,0
27.230742,27.459106,85,80,0
27.461512,27.689877,72,80,0
27.461512,27.689877,84,80,0
27.69228,27.920645,70,80,0
27.69228,27.920645,82,80,0
27.92305,28.151415,68,80,0
27.92305,28.151415,80,80,0
28.153818,28.382183,87,80,0
28.153818,28.382183,75,80,0
28.384586,28.612951,86,80,0
28.384586,28.612951,74,80,0
28.615356,28.843721,84,80,0
28.615356,28.843721,72,80,0
28.846125,29.07449,83,80,0
28.846125,29.07449,71,80,0
29.076895,29.30526,81,80,0
29.076895,29.30526,69,80,0
29.307663,29.536028,79,80,0
29.307663,29.536028,67,80,0
29.538431,29.766798,75,110,0
29.538431,29.766798,63,110,0
29.769201,29.997566,74,110,0
29.769201,29.997566,62,110,0
29.99997,30.228334,72,110,0
29.99997,30.228334,60,110,0
30.23074,30.478134,67,110,0
30.23074,30.478134,55,110,0
30.60574,30.728134,55,100,0
30.73074,30.853134,54,100,0
30.85574,30.978134,55,100,0
30.98074,31.228134,56,100,0
31.23074,31.353134,55,100,0
31.48074,31.750626,79,110,0
31.48074,31.750626,74,110,0
31.48074,31.750626,71,110,0
31.753466,32.023354,78,100,0
31.753466,32.023354,75,100,0
31.753466,32.023354,72,100,0
31.753466,32.023354,69,100,0
32.02619,32.159714,79,100,0
32.02619,32.159714,74,100,0
32.02619,32.159714,71,100,0
32.162556,32.284954,55,100,0
32.287556,32.409954,54,100,0
32.412556,32.534954,55,100,0
32.537556,32.784954,56,100,0
32.787556,32.909954,55,100,0
33.037556,33.284954,79,110,0
33.037556,33.284954,74,110,0
33.037556,33.284954,71,110,0
33.287556,33.534954,81,100,0
33.287556,33.534954,78,100,0
33.287556,33.534954,75,100,0
33.287556,33.534954,72,100,0
33.537556,33.659954,79,100,0
33.537556,33.659954,74,100,0
33.537556,33.659954,71,100,0
33.662556,33.784954,55,100,0
33.787556,33.909954,54,100,0
33.912556,34.034954,55,100,0
34.037556,34.284954,56,100,0
34.287556,34.409954,55,100,0
34.537556,34.784954,79,110,0
34.537556,34.784954,74,110,0
34.537556,34.784954,71,110,0
34.787556,35.034954,80,100,0
34.787556,35.034954,75,100,0
34.787556,35.034954,72,100,0
35.037556,35.159954,79,100,0
35.037556,35.159954,74,100,0
35.037556,35.159954,71,100,0
35.287556,35.534954,79,110,0
35.287556,35.534954,74,110,0
35.287556,35.534954,71,110,0
35.537556,35.784954,80,100,0
35.537556,35.784954,75,100,0
35.537556,35.784954,72,100,0
35.787556,35.909954,79,100,0
35.787556,35.909954,74,100,0
35.787556,35.909954,71,100,0
36.037556,36.284954,79,110,0
36.037556,36.284954,74,110,0
36.037556,36.284954,71,110,0
36.287556,36.534954,80,100,0
36.287556,36.534954,75,100,0
36.287556,36.534954,72,100,0
36.537556,36.659954,79,100,0
36.537556,36.659954,74,100,0
36.537556,36.659954,71,100,0
36.662556,36.784954,79,100,0
36.787556,36.909954,78,98,0
36.912556,37.034954,79,95,0
37.037556,37.290215,80,92,0
37.292877,37.417877,79,87,0
37.420536,37.545536,79,84,0
37.548195,37.673195,78,81,0
37.675854,37.800854,79,79,0
37.803513,38.061665,80,76,0
38.06438,38.1921,79,71,0
38.194817,38.322533,79,70,0
38.325253,38.45297,78,70,0
38.455685,38.583405,79,70,0
38.58612,38.833515,80,70,0
38.83612,38.958515,79,70,0
38.96112,39.083515,79,80,0
39.08612,39.208515,78,80,0
39.21112,39.333515,79,80,0
39.33612,39.564487,81,80,0
39.56689,39.795254,79,80,0
39.797657,40.026024,77,80,0
40.028427,40.256794,76,80,0
40.259197,40.48756,74,80,0
40.489967,40.71833,72,80,0
40.720734,41.410637,71,80,0
41.41304,42.102943,72,80,0
42.105347,42.79525,74,80,0
42.105347,42.79525,71,80,0
42.105347,42.79525,67,80,0
42.797657,43.48756,72,80,0
42.797657,43.48756,67,80,0
42.797657,43.718327,76,80,0
43.489964,43.718327,73,80,0
43.489964,43.949097,69,80,0
43.72073,43.949097,74,80,0
43.72073,43.949097,77,80,0
43.9515,44.179867,74,80,0
43.9515,44.179867,71,80,0
43.9515,44.179867,65,80,0
44.18227,44.410633,72,80,0
44.18227,44.410633,64,80,0
45.22073,45.33371,76,80,0
45.336113,45.449097,74,80,0
45.4515,45.56448,76,80,0
45.566883,45.79525,77,80,0
45.913036,46.026016,77,80,0
46.028423,46.141403,76,80,0
46.143806,46.256786,77,80,0
46.25919,46.487556,83,80,0
46.605343,46.718323,83,80,0
46.72073,46.83371,81,80,0
46.836113,46.949093,83,80,0
46.951496,47.179863,84,80,0
47.29765,47.410633,84,80,0
47.413036,47.526016,83,80,0
47.52842,47.6414,84,80,0
47.643803,47.87217,78,80,0
47.98996,48.10294,78,80,0
48.105343,48.218323,77,80,0
48.220726,48.333706,78,80,0
48.336113,48.564476,79,80,0
48.682266,48.795246,79,80,0
48.79765,48.91063,78,80,0
48.913033,49.026016,79,80,0
49.02842,49.256783,76,80,0
49.02842,49.256783,72,80,0
49.02842,49.256783,67,80,0
49.259186,49.487553,69,80,0
49.259186,49.487553,74,80,0
49.259186,49.487553,77,80,0
49.489956,49.718323,74,80,0
49.489956,49.718323,71,80,0
49.489956,49.718323,65,80,0
49.720726,49.94909,72,80,0
49.720726,49.94909,64,80,0
50.06688,50.17986,60,80,0
50.182262,50.295242,59,80,0
50.29765,50.41063,60,80,0
50.413033,50.6414,61,105,0
50.643803,50.756783,60,80,0
50.87457,51.102936,76,110,0
50.87457,51.102936,72,110,0
51.10534,51.333706,77,110,0
51.10534,51.333706,74,110,0
51.10534,51.333706,71,110,0
51.33611,51.44909,76,110,0
51.33611,51.44909,72,110,0
51.451492,51.564472,60,80,0
51.56688,51.67986,59,80,0
51.682262,51.795242,60,80,0
51.797646,52.026012,61,80,0
52.028416,52.141396,60,80,0
52.259186,52.48755,76,100,0
52.259186,52.48755,79,100,0
52.259186,52.48755,84,100,0
52.489952,52.71832,77,100,0
52.489952,52.71832,80,100,0
52.489952,52.71832,83,100,0
52.720722,52.833702,76,100,0
52.720722,52.833702,79,100,0
52.720722,52.833702,84,100,0
52.836105,52.94909,60,80,0
52.951492,53.064472,59,80,0
53.066875,53.179855,60,80,0
53.18226,53.410625,61,104,0
53.41303,53.52601,60,80,0
53.6438,53.87216,84,100,0
53.6438,53.87216,88,100,0
53.87457,54.102932,89,100,0
53.87457,54.102932,86,100,0
53.87457,54.102932,83,100,0
54.105335,54.333702,84,100,0
54.105335,54.333702,88,100,0
54.336105,54.564472,84,100,0
54.336105,54.564472,88,100,0
54.566875,54.79524,89,100,0
54.566875,54.79524,86,100,0
54.566875,54.79524,83,100,0
54.79764,55.02601,84,100,0
54.79764,55.02601,88,100,0
55.02841,55.25678,84,100,0
55.02841,55.25678,88,100,0
55.259182,55.487545,89,100,0
55.259182,55.487545,86,100,0
55.259182,55.487545,83,100,0
55.489952,55.718315,84,100,0
55.489952,55.718315,88,100,0
55.72072,55.949085,72,120,0
55.72072,55.949085,84,120,0
55.95149,56.179855,72,120,0
55.95149,56.179855,60,120,0
56.98995,57.10293,71,80,0
57.105335,57.218315,69,80,0
57.22072,57.3337,71,80,0
57.3361,57.56447,72,80,0
57.682255,57.79524,72,80,0
57.79764,57.91062,71,80,0
57.913025,58.026005,72,80,0
58.028408,58.256775,69,80,0
58.37456,58.487545,69,80,0
58.48995,58.60293,67,80,0
58.60533,58.71831,69,80,0
58.72072,58.94908,70,80,0
59.06687,59.17985,70,80,0
59.182255,59.295235,69,80,0
59.297638,59.410618,70,80,0
59.413025,59.641388,78,80,0
59.64379,59.872158,77,80,0
59.87456,60.10293,75,80,0
60.10533,60.333694,73,80,0
60.336098,60.564465,72,80,0
60.566868,60.795235,70,80,0
60.797638,61.026,77,80,0
60.797638,61.026,89,80,0
61.028408,61.25677,75,80,0
61.028408,61.25677,87,80,0
61.259174,61.48754,73,80,0
61.259174,61.48754,85,80,0
61.489944,61.71831,72,80,0
61.489944,61.71831,84,80,0
61.720715,61.949078,70,80,0
61.720715,61.949078,82,80,0
61.95148,62.179848,68,80,0
61.95148,62.179848,80,80,0
62.18225,62.410618,87,80,0
62.18225,62.410618,75,80,0
62.41302,62.641384,86,80,0
62.41302,62.641384,74,80,0
62.64379,62.872154,84,80,0
62.64379,62.872154,72,80,0
62.874557,63.102924,83,80,0
62.874557,63.102924,71,80,0
63.105328,63.333694,81,80,0
63.105328,63.333694,69,80,0
63.336098,63.56446,79,80,0
63.336098,63.56446,67,80,0
63.566864,63.79523,75,110,0
63.566864,63.79523,63,110,0
63.797634,64.026,74,110,0
63.797634,64.026,62,110,0
64.028404,64.25677,72,110,0
64.028404,64.25677,60,110,0
64.25917,64.50657,67,110,0
64.25917,64.50657,55,110,0
64.63417,64.75657,55,80,0
64.75917,64.88157,54,80,0
64.88417,65.00657,55,80,0
65.00917,65.25657,56,80,0
65.25917,65.38157,55,80,0
65.50917,65.75657,79,110,0
65.50917,65.75657,74,110,0
65.50917,65.75657,71,110,0
65.75917,66.00657,78,100,0
65.75917,66.00657,75,100,0
65.75917,66.00657,72,100,0
65.75917,66.00657,69,100,0
66.00917,66.13157,79,100,0
66.00917,66.13157,74,100,0
66.00917,66.13157,71,100,0
66.13417,66.25657,55,80,0
66.25917,66.38157,54,80,0
66.38417,66.50657,55,80,0
66.50917,66.75657,56,80,0
66.75917,66.88157,55,80,0
67.00917,67.25657,79,110,0
67.00917,67.25657,74,110,0
67.00917,67.25657,71,110,0
67.25917,67.50657,81,100,0
67.25917,67.50657,78,100,0
67.25917,67.50657,75,100,0
67.25917,67.50657,72,100,0
67.50917,67.63157,79,100,0
67.50917,67.63157,74,100,0
67.50917,67.63157,71,100,0
67.63417,67.75657,55,80,0
67.75917,67.88157,54,80,0
67.88417,68.00657,55,80,0
68.00917,68.25657,56,80,0
68.25917,68.38157,55,80,0
68.50917,68.75657,79,110,0
68.50917,68.75657,74,110,0
68.50917,68.75657,71,110,0
68.75917,69.00657,80,100,0
68.75917,69.00657,75,100,0
68.75917,69.00657,72,100,0
69.00917,69.13157,79,100,0
69.00917,69.13157,74,100,0
69.00917,69.13157,71,100,0
69.25917,69.50657,79,110,0
69.25917,69.50657,74,110,0
69.25917,69.50657,71,110,0
69.50917,69.75657,80,100,0
69.50917,69.75657,75,100,0
69.50917,69.75657,72,100,0
69.75917,69.88157,79,100,0
69.75917,69.88157,74,100,0
69.75917,69.88157,71,100,0
70.00917,70.25657,79,110,0
70.00917,70.25657,74,110,0
70.00917,70.25657,71,110,0
70.25917,70.50657,80,100,0
70.25917,70.50657,75,100,0
70.25917,70.50657,72,100,0
70.50917,70.63157,79,100,0
70.50917,70.63157,74,100,0
70.50917,70.63157,71,100,0
70.63417,70.75657,79,90,0
70.75917,70.88157,78,89,0
70.88417,71.00657,79,87,0
71.00917,71.26183,80,85,0
71.26449,71.38949,79,81,0
71.39215,71.51715,79,80,0
71.51981,71.64481,78,78,0
71.64747,71.77247,79,76,0
71.77513,72.03328,80,74,0
72.035995,72.16372,79,71,0
72.166435,72.29415,79,70,0
72.29687,72.42458,78,70,0
72.4273,72.555016,79,70,0
72.55774,72.80008,80,70,0
72.802635,72.92253,79,70,0
72.92508,73.04498,79,80,0
73.04753,73.16743,78,80,0
73.169975,73.28988,79,80,0
73.29243,73.52079,81,80,0
73.52319,73.751564,79,80,0
73.75397,73.98233,77,80,0
73.98473,74.2131,76,80,0
74.2155,74.44387,74,80,0
74.44627,74.67464,72,80,0
74.67704,75.36694,71,80,0
75.36935,76.05925,72,80,0
76.06165,76.75156,74,80,0
76.06165,76.75156,71,80,0
76.06165,76.75156,67,80,0
76.75396,77.44386,72,80,0
76.75396,77.44386,67,80,0
76.75396,77.67464,76,80,0
77.446266,77.67464,73,80,0
77.446266,77.9054,69,80,0
77.67704,77.9054,74,80,0
77.67704,77.9054,77,80,0
77.90781,78.13617,74,80,0
77.90781,78.13617,71,80,0
77.90781,78.13617,65,80,0
78.13857,78.36694,72,80,0
78.13857,78.36694,64,80,0
79.17704,79.290016,76,80,0
79.29242,79.4054,74,80,0
79.40781,79.52079,76,80,0
79.52319,79.75156,77,80,0
79.86935,79.98232,77,80,0
79.984726,80.09771,76,80,0
80.10011,80.2131,77,80,0
80.2155,80.44386,83,80,0
80.56165,80.67463,83,80,0
80.67703,80.790016,81,80,0
80.79242,80.9054,83,80,0
80.90781,81.13617,84,80,0
81.25396,81.366936,84,80,0
81.36934,81.48232,83,80,0
81.484726,81.59771,84,80,0
81.60011,81.828476,78,80,0
81.946266,82.05924,78,80,0
82.06165,82.17463,77,80,0
82.17703,82.290016,78,80,0
82.29242,82.52078,79,80,0
82.63857,82.75156,79,80,0
82.75396,82.866936,78,80,0
82.86934,82.98232,79,80,0
82.984726,83.21309,76,80,0
82.984726,83.21309,72,80,0
82.984726,83.21309,67,80,0
83.21549,83.44386,69,80,0
83.21549,83.44386,74,80,0
83.21549,83.44386,77,80,0
83.446266,83.67463,74,80,0
83.446266,83.67463,71,80,0
83.446266,83.67463,65,80,0
83.67703,83.905396,72,80,0
83.67703,83.905396,64,80,0
84.023186,84.13617,60,80,0
84.13857,84.25155,59,80,0
84.25395,84.366936,60,80,0
84.36934,84.5977,61,103,0
84.600105,84.71309,60,80,0
84.83088,85.05924,76,100,0
84.83088,85.05924,72,100,0
85.061646,85.29001,77,100,0
85.061646,85.29001,74,100,0
85.061646,85.29001,71,100,0
85.29241,85.405396,76,100,0
85.29241,85.405396,72,100,0
85.4078,85.52078,60,80,0
85.523186,85.63616,59,80,0
85.63857,85.75155,60,80,0
85.75395,85.982315,61,101,0
85.984726,86.0977,60,80,0
86.21549,86.443855,76,100,0
86.21549,86.443855,79,100,0
86.21549,86.443855,84,100,0
86.44626,86.67463,77,100,0
86.44626,86.67463,80,100,0
86.44626,86.67463,83,100,0
86.67703,86.79001,76,100,0
86.67703,86.79001,79,100,0
86.67703,86.79001,84,100,0
86.79241,86.905396,60,80,0
86.9078,87.02078,59,80,0
87.023186,87.13616,60,80,0
87.138565,87.366936,61,102,0
87.36934,87.482315,60,80,0
87.600105,87.8475,84,100,0
87.600105,87.8475,88,100,0
87.850105,88.0975,89,100,0
87.850105,88.0975,86,100,0
87.850105,88.0975,83,100,0
88.100105,88.3475,84,100,0
88.100105,88.3475,88,100,0
88.350105,88.5975,84,100,0
88.350105,88.5975,88,100,0
88.600105,88.8475,89,100,0
88.600105,88.8475,86,100,0
88.600105,88.8475,83,100,0
88.850105,89.0975,84,100,0
88.850105,89.0975,88,100,0
89.100105,89.3475,84,100,0
89.100105,89.3475,88,100,0
89.350105,89.5975,89,100,0
89.350105,89.5975,86,100,0
89.350105,89.5975,83,100,0
89.600105,89.8475,84,100,0
89.600105,89.8475,88,100,0
89.850105,90.0975,72,110,0
89.850105,90.0975,84,110,0
90.100105,90.3475,72,110,0
90.100105,90.3475,60,110,0
90.850105,91.00761,52,100,0
90.93011,91.08761,57,100,0
91.01011,91.1676,60,100,0
91.0901,91.247604,64,100,0
91.170105,91.32761,69,100,0
91.25011,91.40761,72,100,0
91.33011,91.4876,76,100,0
91.4101,91.567604,72,100,0
91.490105,91.647606,69,100,0
91.57011,91.72761,76,100,0
91.65011,91.8076,71,100,0
91.7301,91.8876,68,100,0
91.810104,91.967606,64,100,0
91.89011,92.04761,59,100,0
91.97011,92.12761,56,100,0
92.0501,92.2076,52,100,0
92.130104,92.287605,56,100,0
92.210106,92.287605,59,100,0
92.29011,92.44761,52,100,0
92.3701,92.5276,57,100,0
92.4501,92.607605,60,100,0
92.530106,92.68761,64,100,0
92.61011,92.76761,69,100,0
92.69011,92.8476,72,100,0
92.7701,92.927605,76,100,0
92.850105,93.00761,72,100,0
92.93011,93.08761,69,100,0
93.01011,93.1676,76,100,0
93.0901,93.247604,71,100,0
93.170105,93.32761,68,100,0
93.25011,93.40761,64,100,0
93.33011,93.4876,59,100,0
93.4101,93.567604,56,100,0
93.490105,93.647606,52,100,0
93.57011,93.72761,56,100,0
93.65011,93.72761,59,100,0
93.7301,93.8876,52,100,0
93.810104,93.967606,57,100,0
93.89011,94.04761,60,100,0
93.97011,94.12761,64,100,0
94.0501,94.2076,69,100,0
94.130104,94.287605,72,100,0
94.210106,94.36761,76,100,0
94.29011,94.44761,72,100,0
94.3701,94.5276,69,100,0
94.4501,94.607605,76,100,0
94.530106,94.68761,72,100,0
94.61011,94.76761,67,100,0
94.69011,94.8476,64,100,0
94.7701,94.927605,60,100,0
94.850105,95.00761,55,100,0
94.93011,95.08761,52,100,0
95.01011,95.1676,55,100,0
95.0901,95.1676,59,100,0
95.170105,95.32761,64,100,0
95.25011,95.40761,61,98,0
95.33011,95.4876,55,96,0
95.4101,95.567604,64,93,0
95.490105,95.647606,59,91,0
95.57011,95.72761,55,88,0
95.65011,95.8076,63,86,0
95.7301,95.8876,59,83,0
95.810104,95.8876,54,81,0
95.89011,96.12761,64,80,0
95.89011,96.12761,59,80,0
95.89011,96.12761,55,80,0
96.61011,96.76761,52,100,0
96.69011,96.8476,57,100,0
96.7701,96.927605,60,100,0
96.850105,97.00761,64,100,0
96.93011,97.08761,69,100,0
97.01011,97.1676,72,100,0
97.0901,97.247604,76,100,0
97.170105,97.32761,72,100,0
97.25011,97.40761,69,100,0
97.33011,97.4876,76,100,0
97.4101,97.567604,71,100,0
97.490105,97.647606,68,100,0
97.57011,97.72761,64,100,0
97.65011,97.8076,59,100,0
97.7301,97.8876,56,100,0
97.810104,97.967606,52,100,0
97.89011,98.04761,56,100,0
97.97011,98.04761,59,100,0
98.0501,98.2076,52,100,0
98.130104,98.287605,57,100,0
98.210106,98.36761,60,100,0
98.29011,98.44761,64,100,0
98.3701,98.5276,69,100,0
98.4501,98.607605,72,100,0
98.530106,98.68761,76,100,0
98.61011,98.76761,72,100,0
98.69011,98.8476,69,100,0
98.7701,98.927605,76,100,0
98.850105,99.00761,71,100,0
98.93011,99.08761,68,100,0
99.01011,99.1676,64,100,0
99.0901,99.247604,59,100,0
99.170105,99.32761,56,100,0
99.25011,99.40761,52,100,0
99.33011,99.4876,56,100,0
99.4101,99.4876,59,100,0
99.490105,99.647606,52,100,0
99.57011,99.72761,57,100,0
99.65011,99.8076,60,100,0
99.7301,99.8876,64,100,0
99.810104,99.967606,69,100,0
99.89011,100.04761,72,100,0
99.97011,100.12761,76,100,0
100.0501,100.2076,72,100,0
100.130104,100.287605,69,100,0
100.210106,100.36761,76,100,0
100.29011,100.44761,72,100,0
100.3701,100.5276,67,100,0
100.4501,100.607605,64,100,0
100.530106,100.68761,60,100,0
100.61011,100.76761,55,100,0
100.69011,100.8476,52,100,0
100.7701,100.927605,55,100,0
100.850105,100.927605,59,100,0
100.93011,101.08761,64,100,0
101.01011,101.1676,61,98,0
101.0901,101.247604,55,96,0
101.170105,101.32761,64,93,0
101.25011,101.40761,59,91,0
101.33011,101.4876,55,88,0
101.4101,101.567604,63,86,0
101.490105,101.647606,59,83,0
101.57011,101.647606,54,81,0
101.65011,101.8876,64,80,0
101.65011,101.8876,59,80,0
101.65011,101.8876,55,80,0
102.130104,102.36761,55,100,0
102.3701,102.5276,55,100,0
102.4501,102.607605,60,100,0
102.530106,102.68761,64,100,0
102.61011,102.76761,67,100,0
102.69011,102.8476,72,100,0
102.7701,102.927605,76,100,0
102.850105,103.00761,79,100,0
102.93011,103.08761,76,100,0
103.01011,103.1676,72,100,0
103.0901,103.247604,79,100,0
103.170105,103.32761,74,100,0
103.25011,103.40761,71,100,0
103.33011,103.4876,67,100,0
103.4101,103.567604,62,100,0
103.490105,103.647606,59,100,0
103.57011,103.72761,55,100,0
103.65011,103.8076,59,100,0
103.7301,103.8076,62,100,0
103.810104,103.967606,67,100,0
103.89011,104.04761,61,100,0
103.97011,104.12761,58,100,0
104.0501,104.2076,67,100,0
104.130104,104.287605,62,100,0
104.210106,104.36761,58,100,0
104.29011,104.44761,67,100,0
104.3701,104.5276,64,100,0
104.4501,104.607605,57,100,0
104.530106,104.68761,67,100,0
104.61011,104.76761,64,100,0
104.69011,104.8476,57,100,0
104.7701,104.927605,65,100,0
104.850105,105.00761,62,100,0
104.93011,105.08761,57,100,0
105.01011,105.1676,65,100,0
105.0901,105.247604,62,100,0
105.170105,105.247604,57,100,0
105.25011,105.40761,55,100,0
105.33011,105.4876,62,100,0
105.4101,105.567604,65,100,0
105.490105,105.647606,69,100,0
105.57011,105.72761,74,100,0
105.65011,105.8076,77,100,0
105.7301,105.8876,81,100,0
105.810104,105.967606,77,100,0
105.89011,106.04761,74,100,0
105.97011,106.12761,81,100,0
106.0501,106.2076,76,100,0
106.130104,106.287605,72,100,0
106.210106,106.36761,69,100,0
106.29011,106.44761,64,100,0
106.3701,106.5276,60,100,0
106.4501,106.607605,57,100,0
106.530106,106.68761,60,100,0
106.61011,106.76761,64,100,0
106.69011,106.8476,69,100,0
106.7701,106.927605,63,100,0
106.850105,107.00761,59,100,0
106.93011,107.08761,69,100,0
107.01011,107.1676,64,100,0
107.0901,107.247604,59,100,0
107.170105,107.32761,69,100,0
107.25011,107.40761,66,100,0
107.33011,107.4876,59,100,0
107.4101,107.567604,69,100,0
107.490105,107.647606,64,100,0
107.57011,107.72761,59,100,0
107.65011,107.8076,68,100,0
107.7301,107.8876,64,100,0
107.810104,107.967606,59,100,0
107.89011,108.04761,68,100,0
107.97011,108.12761,64,100,0
108.0501,108.12761,59,100,0
108.130104,108.287605,64,100,0
108.210106,108.36761,69,100,0
108.29011,108.44761,72,100,0
108.3701,108.5276,76,100,0
108.4501,108.607605,81,100,0
108.530106,108.68761,84,100,0
108.61011,108.76761,88,100,0
108.69011,108.8476,84,100,0
108.7701,108.927605,81,100,0
108.850105,109.00761,88,100,0
108.93011,109.08761,83,100,0
109.01011,109.1676,80,100,0
109.0901,109.247604,76,100,0
109.170105,109.32761,71,100,0
109.25011,109.40761,68,100,0
109.33011,109.4876,64,100,0
109.4101,109.567604,68,100,0
109.490105,109.647606,71,100,0
109.57011,109.72761,64,100,0
109.65011,109.8076,69,100,0
109.7301,109.8876,72,100,0
109.810104,109.967606,76,100,0
109.89011,110.04761,81,100,0
109.97011,110.12761,84,100,0
110.0501,110.2076,88,100,0
110.130104,110.287605,84,100,0
110.210106,110.36761,81,100,0
110.29011,110.44761,88,100,0
110.3701,110.5276,83,100,0
110.4501,110.607605,80,100,0
110.530106,110.68761,76,100,0
110.61011,110.76761,71,100,0
110.69011,110.8476,68,100,0
110.7701,110.927605,64,100,0
110.850105,111.00761,68,100,0
110.93011,111.08761,71,100,0
111.01011,111.1676,64,100,0
111.0901,111.247604,69,100,0
111.170105,111.32761,72,100,0
111.25011,111.40761,76,100,0
111.33011,111.4876,81,100,0
111.4101,111.567604,84,100,0
111.490105,111.647606,88,100,0
111.57011,111.72761,84,100,0
111.65011,111.8076,81,100,0
111.7301,111.8876,88,100,0
111.810104,111.967606,84,100,0
111.89011,112.04761,77,100,0
111.97011,112.12761,86,100,0
112.0501,112.2076,83,100,0
112.130104,112.287605,77,100,0
112.210106,112.36761,86,100,0
112.29011,112.44761,83,100,0
112.3701,112.5276,77,100,0
112.4501,112.607605,86,98,0
112.530106,112.68761,83,96,0
112.61011,112.76761,76,94,0
112.69011,112.8476,84,92,0
112.7701,112.927605,81,89,0
112.850105,113.00761,76,87,0
112.93011,113.08761,83,85,0
113.01011,113.1676,80,83,0
113.0901,113.1676,74,81,0
113.170105,113.40761,81,80,0
113.170105,113.40761,72,80,0
113.65011,113.8876,55,100,0
113.89011,114.04761,55,100,0
113.97011,114.12761,60,100,0
114.0501,114.2076,64,100,0
114.130104,114.287605,67,100,0
114.210106,114.36761,72,100,0
114.29011,114.44761,76,100,0
114.3701,114.5276,79,100,0
114.4501,114.607605,76,100,0
114.530106,114.68761,72,100,0
114.61011,114.76761,79,100,0
114.69011,114.8476,74,100,0
114.7701,114.927605,71,100,0
114.850105,115.00761,67,100,0
114.93011,115.08761,62,100,0
115.01011,115.1676,59,100,0
115.0901,115.247604,55,100,0
115.170105,115.32761,59,100,0
115.25011,115.32761,62,100,0
115.33011,115.4876,67,100,0
115.4101,115.567604,61,100,0
115.490105,115.647606,58,100,0
115.57011,115.72761,67,100,0
115.65011,115.8076,62,100,0
115.7301,115.8876,58,100,0
115.810104,115.967606,67,100,0
115.89011,116.04761,64,100,0
115.97011,116.12761,57,100,0
116.0501,116.2076,67,100,0
116.130104,116.287605,64,100,0
116.210106,116.36761,57,100,0
116.29011,116.44761,65,100,0
116.3701,116.5276,62,100,0
116.4501,116.607605,57,100,0
116.530106,116.68761,65,100,0
116.61011,116.76761,62,100,0
116.69011,116.76761,57,100,0
116.7701,116.927605,55,100,0
116.850105,117.00761,62,100,0
116.93011,117.08761,65,100,0
117.01011,117.1676,69,100,0
117.0901,117.247604,74,100,0
117.170105,117.32761,77,100,0
117.25011,117.40761,81,100,0
117.33011,117.4876,77,100,0
117.4101,117.567604,74,100,0
117.490105,117.647606,81,100,0
117.57011,117.72761,76,100,0
117.65011,117.8076,72,100,0
117.7301,117.8876,69,100,0
117.810104,117.967606,64,100,0
117.89011,118.04761,60,100,0
117.97011,118.12761,57,100,0
118.0501,118.2076,60,100,0
118.130104,118.287605,64,100,0
118.210106,118.36761,69,100,0
118.29011,118.44761,63,100,0
118.3701,118.5276,59,100,0
118.4501,118.607605,69,100,0
118.530106,118.68761,64,100,0
118.61011,118.76761,59,100,0
118.69011,118.8476,69,100,0
118.7701,118.927605,66,100,0
118.850105,119.00761,59,100,0
118.93011,119.08761,69,100,0
119.01011,119.1676,64,100,0
119.0901,119.247604,59,100,0
119.170105,119.32761,68,100,0
119.25011,119.40761,64,100,0
119.33011,119.4876,59,100,0
119.4101,119.567604,68,100,0
119.490105,119.647606,64,100,0
119.57011,119.647606,59,100,0
119.65011,119.8076,64,100,0
119.7301,119.8876,69,100,0
119.810104,119.967606,72,100,0
119.89011,120.04761,76,100,0
119.97011,120.12761,81,100,0
120.0501,120.2076,84,100,0
120.130104,120.287605,88,100,0
120.210106,120.36761,84,100,0
120.29011,120.44761,81,100,0
120.3701,120.5276,88,100,0
120.4501,120.607605,83,100,0
120.530106,120.68761,80,100,0
120.61011,120.76761,76,100,0
120.69011,120.8476,71,100,0
120.7701,120.927605,68,100,0
120.850105,121.00761,64,100,0
120.93011,121.08761,68,100,0
121.01011,121.1676,71,100,0
121.0901,121.247604,64,100,0
121.170105,121.32761,69,100,0
121.25011,121.40761,72,100,0
121.33011,121.4876,76,100,0
121.4101,121.567604,81,100,0
121.490105,121.647606,84,100,0
121.57011,121.72761,88,100,0
121.65011,121.8076,84,100,0
121.7301,121.8876,81,100,0
121.810104,121.967606,89,100,0
121.89011,122.04761,86,101,0
121.97011,122.12761,81,102,0
122.0501,122.2076,77,103,0
122.130104,122.287605,74,104,0
122.210106,122.36761,69,105,0
122.29011,122.44761,65,106,0
122.3701,122.5276,69,107,0
122.4501,122.607605,74,108,0
122.530106,122.68761,65,109,0
122.61011,122.76761,68,111,0
122.69011,122.8476,74,112,0
122.7701,122.927605,77,113,0
122.850105,123.00761,80,114,0
122.93011,123.08761,86,115,0
123.01011,123.1676,89,116,0
123.0901,123.247604,86,117,0
123.170105,123.32761,80,118,0
123.25011,123.40761,89,120,0
123.33011,123.4876,86,120,0
123.4101,123.567604,83,120,0
123.490105,123.647606,79,120,0
123.57011,123.72761,77,120,0
123.65011,123.8076,74,120,0
123.7301,123.8876,71,120,0
123.810104,123.967606,67,120,0
123.89011,124.04761,65,120,0
123.97011,124.12761,62,120,0
124.0501,124.2076,59,120,0
124.130104,124.287605,55,120,0
124.210106,124.36761,53,120,0
124.29011,124.44761,50,120,0
124.3701,124.5276,47,120,0
124.4501,124.607605,43,120,0
125.756256,125.86924,79,80,0
125.87164,125.98463,78,80,0
125.98703,126.100006,79,80,0
126.10241,126.33078,81,80,0
126.33318,126.56155,79,80,0
126.56395,126.79231,77,80,0
126.794716,127.02309,76,80,0
127.02549,127.25385,74,80,0
127.256256,127.48462,72,80,0
127.48703,128.17693,71,80,0
128.17934,128.4077,64,80,0
128.4101,128.63847,62,80,0
128.17934,128.86923,72,80,0
128.64087,128.86923,60,80,0
128.87164,129.56154,74,80,0
128.87164,129.56154,71,80,0
128.87164,129.56154,67,80,0
129.56395,130.25385,76,80,0
129.56395,130.25385,72,80,0
129.56395,130.25385,67,80,0
130.25626,130.48462,79,80,0
130.25626,130.48462,74,80,0
130.25626,130.48462,67,80,0
130.48703,130.7154,77,80,0
130.48703,130.7154,71,80,0
130.48703,130.7154,67,80,0
130.71779,130.94615,76,80,0
130.71779,130.94615,72,80,0
130.71779,130.94615,67,80,0
130.94856,131.17693,74,80,0
130.94856,131.17693,71,80,0
130.94856,131.17693,67,80,0
131.98701,132.1,78,80,0
132.1024,132.2154,76,80,0
132.21779,132.33076,78,80,0
132.33318,132.56154,79,80,0
132.67934,132.79231,79,80,0
132.79471,132.9077,78,80,0
132.9101,133.02307,79,80,0
133.02548,133.25385,81,80,0
133.37164,133.48462,81,80,0
133.48701,133.6,79,80,0
133.6024,133.7154,81,80,0
133.71779,133.94615,82,100,0
134.06395,134.17693,82,100,0
134.17932,134.29231,81,100,0
134.29471,134.4077,82,100,0
134.4101,134.63846,85,110,0
134.75626,134.86923,85,110,0
134.87163,134.98462,84,110,0
134.98701,135.1,85,110,0
135.1024,135.33076,86,110,0
135.44856,135.56154,86,110,0
135.56393,135.67693,85,110,0
135.67932,135.79231,86,110,0
135.79471,136.02307,83,110,0
135.79471,136.02307,79,110,0
135.79471,136.02307,74,110,0
136.02548,136.25385,84,110,0
136.02548,136.25385,81,110,0
136.02548,136.25385,76,110,0
136.25626,136.48462,81,110,0
136.25626,136.48462,78,110,0
136.25626,136.48462,72,110,0
136.48701,136.71538,79,110,0
136.48701,136.71538,74,110,0
136.48701,136.71538,71,110,0
137.52548,137.63846,71,80,0
137.64087,137.75385,69,80,0
137.75624,137.86923,71,80,0
137.87163,138.09999,72,80,0
138.21779,138.33076,72,80,0
138.33318,138.44615,71,80,0
138.44855,138.56154,72,80,0
138.56393,138.7923,69,80,0
138.9101,139.02307,69,80,0
139.02548,139.13846,67,80,0
139.14085,139.25385,69,80,0
139.25624,139.4846,70,80,0
139.6024,139.71538,70,80,0
139.71779,139.83076,69,80,0
139.83316,139.94615,70,80,0
139.94855,140.17691,78,80,0
140.17932,140.40768,77,80,0
140.4101,140.63846,75,80,0
140.64085,140.86923,73,80,0
140.87163,141.09999,72,80,0
141.1024,141.33076,70,80,0
141.33316,141.56154,77,80,0
141.33316,141.56154,89,80,0
141.56393,141.7923,75,80,0
141.56393,141.7923,87,80,0
141.79471,142.02307,73,80,0
141.79471,142.02307,85,80,0
142.02547,142.25385,72,80,0
142.02547,142.25385,84,80,0
142.25624,142.4846,70,80,0
142.25624,142.4846,82,80,0
142.48701,142.71538,68,80,0
142.48701,142.71538,80,80,0
142.71777,142.94615,87,80,0
142.71777,142.94615,75,80,0
142.94855,143.17691,86,80,0
142.94855,143.17691,74,80,0
143.17932,143.40768,84,80,0
143.17932,143.40768,72,80,0
143.41008,143.63846,83,80,0
143.41008,143.63846,71,80,0
143.64085,143.86922,81,80,0
143.64085,143.86922,69,80,0
143.87163,144.09999,79,80,0
143.87163,144.09999,67,80,0
144.1024,144.33076,75,110,0
144.1024,144.33076,63,110,0
144.33316,144.56152,74,110,0
144.33316,144.56152,62,110,0
144.56393,144.7923,72,110,0
144.56393,144.7923,60,110,0
144.79471,145.0421,67,110,0
144.79471,145.0421,55,110,0
145.16971,145.2921,55,80,0
145.29471,145.4171,54,80,0
145.41971,145.5421,55,80,0
145.54471,145.7921,56,80,0
145.79471,145.9171,55,80,0
146.04471,146.2921,79,110,0
146.04471,146.2921,74,110,0
146.04471,146.2921,71,110,0
146.29471,146.5421,78,100,0
146.29471,146.5421,75,100,0
146.29471,146.5421,72,100,0
146.29471,146.5421,69,100,0
146.54471,146.6671,79,100,0
146.54471,146.6671,74,100,0
146.54471,146.6671,71,100,0
146.66971,146.7921,55,80,0
146.79471,146.9171,54,80,0
146.91971,147.0421,55,80,0
147.04471,147.2921,56,80,0
147.29471,147.4171,55,80,0
147.54471,147.7921,79,110,0
147.54471,147.7921,74,110,0
147.54471,147.7921,71,110,0
147.79471,148.0421,81,100,0
147.79471,148.0421,78,100,0
147.79471,148.0421,75,100,0
147.79471,148.0421,72,100,0
148.04471,148.1671,79,100,0
148.04471,148.1671,74,100,0
148.04471,148.1671,71,100,0
148.16971,148.2921,55,80,0
148.29471,148.4171,54,80,0
148.41971,148.5421,55,80,0
148.54471,148.7921,56,80,0
148.79471,148.9171,55,80,0
149.04471,149.2921,79,110,0
149.04471,149.2921,74,110,0
149.04471,149.2921,71,110,0
149.29471,149.5421,80,100,0
149.29471,149.5421,75,100,0
149.29471,149.5421,72,100,0
149.54471,149.6671,79,100,0
149.54471,149.6671,74,100,0
149.54471,149.6671,71,100,0
149.79471,150.0421,79,110,0
149.79471,150.0421,74,110,0
149.79471,150.0421,71,110,0
150.04471,150.2921,80,100,0
150.04471,150.2921,75,100,0
150.04471,150.2921,72,100,0
150.29471,150.4171,79,100,0
150.29471,150.4171,74,100,0
150.29471,150.4171,71,100,0
150.54471,150.7921,79,110,0
150.54471,150.7921,74,110,0
150.54471,150.7921,71,110,0
150.79471,151.0421,80,100,0
150.79471,151.0421,75,100,0
150.79471,151.0421,72,100,0
151.04471,151.1671,79,100,0
151.04471,151.1671,74,100,0
151.04471,151.1671,71,100,0
151.16971,151.2921,79,100,0
151.29471,151.4171,78,99,0
151.41971,151.5421,79,97,0
151.54471,151.79736,80,95,0
151.80002,151.92502,79,91,0
151.92767,152.05267,79,90,0
152.05534,152.18034,78,88,0
152.183,152.308,79,86,0
152.31065,152.56882,80,84,0
152.57153,152.69925,79,81,0
152.70197,152.82968,79,70,0
152.8324,152.96011,78,70,0
152.96283,153.09055,79,70,0
153.09326,153.33562,80,70,0
153.33817,153.45805,79,70,0
153.46062,153.5805,79,80,0
153.58305,153.70296,78,80,0
153.7055,153.82541,79,80,0
153.82796,154.05632,81,80,0
154.05873,154.2871,79,80,0
154.28949,154.51785,77,80,0
154.52026,154.74863,76,80,0
154.75104,154.9794,74,80,0
154.9818,155.21016,72,80,0
155.21257,155.90248,71,80,0
155.90488,156.59479,72,80,0
156.59718,157.2871,74,80,0
156.59718,157.2871,71,80,0
156.59718,157.2871,67,80,0
157.28949,157.9794,72,80,0
157.28949,157.9794,67,80,0
157.28949,158.21016,76,80,0
157.9818,158.21016,73,80,0
157.9818,158.44093,69,80,0
158.21257,158.44093,74,80,0
158.21257,158.44093,77,80,0
158.44334,158.6717,74,80,0
158.44334,158.6717,71,80,0
158.44334,158.6717,65,80,0
158.6741,158.90247,72,80,0
158.6741,158.90247,64,80,0
159.71257,159.82555,76,80,0
159.82796,159.94093,74,80,0
159.94333,160.05632,76,80,0
160.05872,160.28708,77,80,0
160.40488,160.51785,77,80,0
160.52026,160.63324,76,80,0
160.63564,160.74863,77,80,0
160.75102,160.97939,83,80,0
161.09718,161.21016,83,80,0
161.21257,161.32555,81,80,0
161.32794,161.44093,83,80,0
161.44333,161.67169,84,80,0
161.78949,161.90247,84,80,0
161.90488,162.01785,83,80,0
162.02025,162.13324,84,80,0
162.13564,162.364,78,80,0
162.4818,162.59477,78,80,0
162.59718,162.71016,77,80,0
162.71257,162.82555,78,80,0
162.82794,163.05632,79,80,0
163.1741,163.28708,79,80,0
163.28949,163.40247,78,80,0
163.40488,163.51785,79,80,0
163.52025,163.74863,76,80,0
163.52025,163.74863,72,80,0
163.52025,163.74863,67,80,0
163.75102,163.97939,69,80,0
163.75102,163.97939,74,80,0
163.75102,163.97939,77,80,0
163.9818,164.21016,74,80,0
163.9818,164.21016,71,80,0
163.9818,164.21016,65,80,0
164.21255,164.44093,72,80,0
164.21255,164.44093,64,80,0
164.55872,164.67169,60,80,0
164.6741,164.78708,59,80,0
164.78949,164.90247,60,80,0
164.90486,165.13324,61,101,0
165.13564,165.24861,60,80,0
165.36641,165.59477,76,100,0
165.36641,165.59477,72,100,0
165.59717,165.82555,77,100,0
165.59717,165.82555,74,100,0
165.59717,165.82555,71,100,0
165.82794,165.94092,76,100,0
165.82794,165.94092,72,100,0
165.94333,166.0563,60,80,0
166.05872,166.17169,59,80,0
166.1741,166.28708,60,80,0
166.28949,166.51785,61,101,0
166.52025,166.63324,60,80,0
166.75102,166.97939,76,110,0
166.75102,166.97939,79,110,0
166.75102,166.97939,84,110,0
166.9818,167.21016,77,110,0
166.9818,167.21016,80,110,0
166.9818,167.21016,83,110,0
167.21255,167.32555,76,110,0
167.21255,167.32555,79,110,0
167.21255,167.32555,84,110,0
167.32794,167.44092,60,80,0
167.44333,167.5563,59,80,0
167.55872,167.67169,60,80,0
167.6741,167.90247,61,103,0
167.90486,168.02727,60,80,0
168.15486,168.40227,84,110,0
168.15486,168.40227,88,110,0
168.40486,168.65227,89,110,0
168.40486,168.65227,86,110,0
168.40486,168.65227,83,110,0
168.65486,168.90227,84,110,0
168.65486,168.90227,88,110,0
168.90486,169.15227,84,110,0
168.90486,169.15227,88,110,0
169.15486,169.40227,89,110,0
169.15486,169.40227,86,110,0
169.15486,169.40227,83,110,0
169.40486,169.65227,84,110,0
169.40486,169.65227,88,110,0
169.65486,169.90227,84,110,0
169.65486,169.90227,88,110,0
169.90486,170.15227,89,110,0
169.90486,170.15227,86,110,0
169.90486,170.15227,83,110,0
170.15486,170.40227,84,110,0
170.15486,170.40227,88,110,0
170.40486,170.65227,72,120,0
170.40486,170.65227,84,120,0
170.65486,170.90227,72,120,0
170.65486,170.90227,60,120,0
171.90486,172.15227,69,120,0
171.90486,172.15227,81,120,0
172.15486,172.40227,69,120,0
172.15486,172.40227,57,120,0
173.40486,173.65227,78,120,0
173.40486,173.65227,66,120,0
173.65486,173.90227,66,120,0
173.65486,173.90227,54,120,0
174.15486,174.40227,66,120,0
174.15486,174.40227,54,120,0
174.40486,174.65227,67,120,0
174.40486,174.65227,55,120,0
175.13487,175.82477,71,80,0
175.13487,175.82477,65,80,0
175.13487,175.82477,62,80,0
175.82718,176.51707,64,80,0
175.82718,176.51707,60,80,0
175.82718,176.51707,72,80,0
176.51949,177.20938,66,80,0
176.51949,177.20938,63,80,0
176.51949,177.20938,60,80,0
177.21179,177.90169,67,80,0
177.21179,177.90169,62,80,0
177.21179,177.90169,59,80,0
177.9041,178.594,64,80,0
177.9041,178.594,60,80,0
177.9041,179.2863,55,80,0
178.5964,179.2863,65,80,0
178.5964,179.2863,62,80,0
179.28871,179.9786,62,80,0
179.28871,179.9786,59,80,0
179.28871,179.9786,53,80,0
179.98102,180.67091,60,80,0
179.98102,180.67091,55,80,0
179.98102,180.67091,52,80,0
180.67332,181.36322,65,70,0
180.67332,181.36322,59,70,0
181.36563,182.05553,64,70,0
181.36563,182.05553,60,70,0
182.05794,182.74783,71,70,0
182.05794,182.74783,65,70,0
182.75024,183.44014,72,70,0
182.75024,183.44014,64,70,0
183.44255,184.13245,77,70,0
183.44255,184.13245,71,70,0
184.13486,184.82475,76,70,0
184.13486,184.82475,72,70,0
184.82716,185.51706,77,70,0
184.82716,185.51706,83,70,0
185.51947,185.76686,76,70,0
185.51947,185.76686,84,70,0
186.01947,186.26686,47,70,0
186.26947,186.53935,48,70,0
186.8422,187.23804,47,70,0
187.2422,188.43803,48,70,0
189.2422,189.63803,48,1,0
1.4999985,1.6129792,64,80,0
1.615383,1.7283636,62,80,0
1.7307675,1.8437482,64,80,0
1.846152,2.0745173,65,80,0
2.076921,2.3052862,62,80,0
2.30769,2.536055,67,80,0
2.8846126,2.9975932,55,80,0
2.999997,3.1129777,54,80,0
3.1153815,3.228362,55,80,0
3.230766,3.4591312,57,80,0
3.461535,3.6899002,55,80,0
3.692304,3.920669,53,80,0
3.923073,4.151438,52,80,0
4.153842,4.3822074,50,80,0
4.384611,4.612976,48,80,0
4.61538,4.843745,47,80,0
4.846149,5.0745144,43,80,0
5.076918,5.305283,48,80,0
5.307687,5.536052,43,80,0
5.6538405,5.7668214,74,80,0
5.769225,5.8822055,73,80,0
5.8846097,5.99759,74,80,0
5.999994,6.228359,75,80,0
6.230763,6.4591284,74,80,0
6.461532,6.689897,72,80,0
6.692301,6.920666,70,80,0
6.92307,7.1514354,69,80,0
7.153839,7.382204,67,80,0
7.384608,7.612973,66,80,0
7.384608,7.612973,63,80,0
7.615377,7.8437424,62,80,0
7.846146,8.074512,60,80,0
8.076915,8.30528,58,80,0
8.307684,8.536049,57,87,0
8.538453,8.766818,55,95,0
8.769222,8.997587,58,110,0
8.769222,8.997587,46,110,0
8.999991,9.228356,57,110,0
8.999991,9.228356,45,110,0
9.23076,9.4591255,55,110,0
9.23076,9.4591255,43,110,0
9.461529,9.689894,54,110,0
9.461529,9.689894,42,110,0
9.692298,9.920663,52,110,0
9.692298,9.920663,40,110,0
9.923067,10.151432,50,110,0
9.923067,10.151432,38,110,0
10.153836,10.382201,55,110,0
10.153836,10.382201,43,110,0
10.384605,10.61297,48,110,0
10.384605,10.61297,36,110,0
10.615374,10.8437395,38,110,0
10.615374,10.8437395,50,110,0
10.846143,11.074508,43,110,0
10.846143,11.074508,31,110,0
12.576911,12.689891,64,80,0
12.692295,12.805276,62,80,0
12.807679,12.92066,64,80,0
12.923064,13.151429,65,80,0
13.153833,13.382198,62,80,0
13.384602,13.6129675,67,80,0
13.961525,14.074505,55,80,0
14.076909,14.18989,54,80,0
14.192293,14.305274,55,80,0
14.307678,14.536043,57,80,0
14.538447,14.766812,55,80,0
14.769216,14.9975815,53,80,0
14.999985,15.22835,52,80,0
15.230754,15.459119,50,80,0
15.461523,15.689888,48,80,0
15.692292,15.920657,47,80,0
15.923061,16.151426,43,80,0
16.15383,16.382195,48,80,0
16.3846,16.612965,43,80,0
16.730753,16.843733,74,80,0
16.846136,16.959118,73,80,0
16.961521,17.074503,74,80,0
17.076906,17.305271,75,80,0
17.307674,17.53604,74,81,0
17.538445,17.76681,72,83,0
17.769213,17.997578,70,85,0
17.999983,18.228348,69,86,0
18.230751,18.459116,67,88,0
18.46152,18.689886,66,90,0
18.46152,18.689886,63,90,0
18.69229,18.920654,62,92,0
18.923058,19.151423,60,93,0
19.153828,19.382193,58,95,0
19.384596,19.61296,57,97,0
19.615364,19.84373,55,99,0
19.846134,20.0745,58,110,0
19.846134,20.0745,46,110,0
20.076902,20.305267,57,110,0
20.076902,20.305267,45,110,0
20.307673,20.536037,55,110,0
20.307673,20.536037,43,110,0
20.53844,20.766806,54,110,0
20.53844,20.766806,42,110,0
20.76921,20.997576,52,110,0
20.76921,20.997576,40,110,0
20.999979,21.228344,50,110,0
20.999979,21.228344,38,110,0
21.230747,21.459114,55,110,0
21.230747,21.459114,43,110,0
21.461517,21.689882,48,110,0
21.461517,21.689882,36,110,0
21.692286,21.92065,38,110,0
21.692286,21.92065,50,110,0
21.923056,22.15142,43,110,0
21.923056,22.15142,31,110,0
22.269209,22.382189,67,80,0
22.384592,22.497574,66,80,0
22.499977,22.612959,67,80,0
22.615362,22.843727,68,80,0
22.84613,23.074495,67,80,0
23.0769,23.305265,65,80,0
23.307669,23.536034,63,80,0
23.538439,23.766804,62,80,0
23.769207,23.997572,60,80,0
23.999975,24.228342,66,80,0
24.230745,24.45911,65,80,0
24.461514,24.689878,63,80,0
24.692284,24.920649,61,80,0
24.923052,25.151417,60,80,0
25.153822,25.382187,58,80,0
25.38459,25.612955,57,80,0
25.730743,25.843723,57,80,0
25.846128,25.959108,55,80,0
25.961512,26.074493,57,80,0
26.076897,26.305262,58,80,0
26.42305,26.536032,61,80,0
26.538435,26.651415,60,80,0
26.65382,26.7668,61,80,0
26.769203,26.99757,55,80,0
27.115358,27.228338,55,80,0
27.230742,27.343723,53,80,0
27.346127,27.459106,55,80,0
27.461512,27.689877,56,80,0
27.807665,27.920645,60,80,0
27.92305,28.03603,59,80,0
28.038433,28.151415,60,80,0
28.153818,28.382183,54,80,0
28.499971,28.612951,54,80,0
28.615356,28.728336,52,80,0
28.73074,28.843721,54,80,0
28.846125,29.07449,55,80,0
29.192278,29.30526,55,80,0
29.307663,29.420643,54,80,0
29.423048,29.536028,55,80,0
29.538431,29.766798,51,110,0
29.769201,29.997566,50,110,0
29.99997,30.228334,48,110,0
30.23074,30.478134,43,110,0
30.60574,30.728134,43,100,0
30.73074,30.853134,42,100,0
30.85574,30.978134,43,100,0
30.98074,31.228134,44,100,0
31.23074,31.353134,43,100,0
31.48074,31.750626,62,110,0
31.48074,31.750626,59,110,0
31.48074,31.750626,55,110,0
31.753466,32.023354,60,100,0
31.753466,32.023354,63,100,0
31.753466,32.159714,55,100,0
32.02619,32.159714,62,100,0
32.02619,32.159714,59,100,0
32.162556,32.284954,43,100,0
32.287556,32.409954,42,100,0
32.412556,32.534954,43,100,0
32.537556,32.784954,44,100,0
32.787556,32.909954,43,100,0
33.037556,33.284954,62,110,0
33.037556,33.284954,59,110,0
33.037556,33.284954,55,110,0
33.287556,33.534954,63,100,0
33.287556,33.534954,60,100,0
33.287556,33.659954,55,100,0
33.537556,33.659954,62,100,0
33.537556,33.659954,59,100,0
33.662556,33.784954,43,100,0
33.787556,33.909954,42,100,0
33.912556,34.034954,43,100,0
34.037556,34.284954,44,100,0
34.287556,34.409954,43,100,0
34.537556,34.784954,62,110,0
34.537556,34.784954,59,110,0
34.537556,34.784954,55,110,0
34.787556,35.034954,63,100,0
34.787556,35.034954,60,100,0
34.787556,35.159954,55,100,0
35.037556,35.159954,59,100,0
35.037556,35.159954,62,100,0
35.287556,35.534954,62,110,0
35.287556,35.534954,59,110,0
35.287556,35.534954,55,110,0
35.537556,35.784954,63,100,0
35.537556,35.784954,60,100,0
35.537556,35.909954,55,100,0
35.787556,35.909954,59,100,0
35.787556,35.909954,62,100,0
36.037556,36.284954,62,110,0
36.037556,36.284954,59,110,0
36.037556,36.284954,55,110,0
36.287556,36.534954,63,100,0
36.287556,36.534954,60,100,0
36.287556,36.659954,55,100,0
36.537556,36.659954,59,100,0
36.537556,36.659954,62,100,0
40.37458,40.48756,64,80,0
40.489967,40.602947,62,80,0
40.60535,40.71833,64,80,0
40.720734,40.9491,65,80,0
40.951504,41.179867,62,80,0
41.182274,41.410637,67,80,0
41.41304,41.641407,64,80,0
41.64381,41.872177,62,80,0
41.759193,41.872177,52,80,0
41.87458,41.98756,50,80,0
41.87458,42.102943,60,80,0
41.989964,42.102943,52,80,0
42.105347,42.333714,53,80,0
42.336117,42.564484,50,80,0
42.566887,42.79525,55,80,0
42.797657,43.02602,52,80,0
43.028423,43.25679,50,80,0
43.259193,43.48756,48,80,0
43.489964,43.718327,41,80,0
43.9515,44.179867,43,80,0
44.18227,44.410633,48,80,0
44.18227,44.410633,36,80,0
44.528423,44.641403,72,80,0
44.643806,44.756786,71,80,0
44.759193,44.872173,72,80,0
44.874577,45.102943,73,80,0
45.105347,45.33371,72,80,0
45.336113,45.56448,70,80,0
45.566883,45.79525,68,80,0
45.797653,46.026016,67,80,0
46.028423,46.256786,65,80,0
46.25919,46.487556,68,80,0
46.48996,46.718323,67,80,0
46.72073,46.949093,65,80,0
46.951496,47.179863,63,80,0
47.182266,47.410633,62,80,0
47.413036,47.6414,60,80,0
47.643803,47.87217,63,80,0
47.874573,48.10294,62,80,0
48.105343,48.333706,60,80,0
48.336113,48.564476,59,80,0
48.56688,48.795246,57,80,0
48.79765,49.026016,55,80,0
49.02842,49.256783,60,80,0
49.259186,49.487553,53,80,0
49.489956,49.718323,55,80,0
49.720726,49.94909,48,80,0
50.06688,50.17986,48,80,0
50.182262,50.295242,47,80,0
50.29765,50.41063,48,80,0
50.413033,50.6414,49,104,0
50.643803,50.756783,48,80,0
50.87457,51.102936,67,110,0
50.87457,51.102936,64,110,0
50.87457,51.102936,60,110,0
51.10534,51.333706,65,110,0
51.10534,51.333706,68,110,0
51.10534,51.44909,60,110,0
51.33611,51.44909,64,110,0
51.33611,51.44909,67,110,0
51.451492,51.564472,48,80,0
51.56688,51.67986,47,80,0
51.682262,51.795242,48,80,0
51.797646,52.026012,49,80,0
52.028416,52.141396,48,80,0
52.259186,52.48755,67,100,0
52.259186,52.48755,64,100,0
52.259186,52.48755,60,100,0
52.489952,52.71832,65,100,0
52.489952,52.71832,68,100,0
52.489952,52.833702,60,100,0
52.720722,52.833702,64,100,0
52.720722,52.833702,67,100,0
52.836105,52.94909,48,80,0
52.951492,53.064472,47,80,0
53.066875,53.179855,48,80,0
53.18226,53.410625,49,105,0
53.41303,53.52601,48,80,0
53.6438,53.87216,67,100,0
53.6438,53.87216,64,100,0
53.6438,53.87216,60,100,0
53.87457,54.102932,65,100,0
53.87457,54.102932,68,100,0
53.87457,54.333702,60,100,0
54.105335,54.333702,64,100,0
54.105335,54.333702,67,100,0
54.336105,54.564472,67,100,0
54.336105,54.564472,64,100,0
54.336105,54.564472,60,100,0
54.566875,54.79524,65,100,0
54.566875,54.79524,68,100,0
54.566875,55.02601,60,100,0
54.79764,55.02601,64,100,0
54.79764,55.02601,67,100,0
55.02841,55.25678,67,100,0
55.02841,55.25678,64,100,0
55.02841,55.25678,60,100,0
55.259182,55.487545,65,100,0
55.259182,55.487545,68,100,0
55.259182,55.718315,60,100,0
55.489952,55.718315,64,100,0
55.489952,55.718315,67,100,0
55.72072,55.949085,60,120,0
55.72072,55.949085,48,120,0
55.95149,56.179855,48,120,0
55.95149,56.179855,36,120,0
56.29764,56.41062,67,80,0
56.413025,56.52601,66,80,0
56.52841,56.64139,67,80,0
56.643795,56.87216,68,80,0
56.874565,57.10293,67,80,0
57.105335,57.3337,65,80,0
57.3361,57.56447,63,80,0
57.56687,57.79524,62,80,0
57.79764,58.026005,60,80,0
58.028408,58.256775,66,80,0
58.25918,58.487545,65,80,0
58.48995,58.71831,63,80,0
58.72072,58.94908,61,80,0
58.951485,59.17985,60,80,0
59.182255,59.410618,58,80,0
59.413025,59.641388,57,80,0
59.75918,59.872158,57,80,0
59.87456,59.98754,55,80,0
59.989944,60.10293,57,80,0
60.10533,60.333694,58,80,0
60.451485,60.564465,61,80,0
60.566868,60.679848,60,80,0
60.682255,60.795235,61,80,0
60.797638,61.026,55,80,0
61.14379,61.25677,55,80,0
61.259174,61.372158,53,80,0
61.37456,61.48754,55,80,0
61.489944,61.71831,56,80,0
61.836098,61.949078,60,80,0
61.95148,62.064465,59,80,0
62.066868,62.179848,60,80,0
62.18225,62.410618,54,80,0
62.528404,62.641384,54,80,0
62.64379,62.75677,52,80,0
62.759174,62.872154,54,80,0
62.874557,63.102924,55,80,0
63.22071,63.333694,55,80,0
63.336098,63.449078,54,80,0
63.45148,63.56446,55,100,0
63.566864,63.79523,51,110,0
63.797634,64.026,50,110,0
64.028404,64.25677,48,110,0
64.25917,64.50657,43,110,0
64.63417,64.75657,43,80,0
64.75917,64.88157,42,80,0
64.88417,65.00657,43,80,0
65.00917,65.25657,44,80,0
65.25917,65.38157,43,80,0
65.50917,65.75657,62,110,0
65.50917,65.75657,59,110,0
65.50917,65.75657,55,110,0
65.75917,66.00657,60,100,0
65.75917,66.00657,63,100,0
65.75917,66.13157,55,100,0
66.00917,66.13157,62,100,0
66.00917,66.13157,59,100,0
66.13417,66.25657,43,80,0
66.25917,66.38157,42,80,0
66.38417,66.50657,43,80,0
66.50917,66.75657,44,80,0
66.75917,66.88157,43,80,0
67.00917,67.25657,62,110,0
67.00917,67.25657,59,110,0
67.00917,67.25657,55,110,0
67.25917,67.50657,63,100,0
67.25917,67.50657,60,100,0
67.25917,67.63157,55,100,0
67.50917,67.63157,62,100,0
67.50917,67.63157,59,100,0
67.63417,67.75657,43,80,0
67.75917,67.88157,42,80,0
67.88417,68.00657,43,80,0
68.00917,68.25657,44,80,0
68.25917,68.38157,43,80,0
68.50917,68.75657,62,110,0
68.50917,68.75657,59,110,0
68.50917,68.75657,55,110,0
68.75917,69.00657,63,100,0
68.75917,69.00657,60,100,0
68.75917,69.13157,55,100,0
69.00917,69.13157,59,100,0
69.00917,69.13157,62,100,0
69.25917,69.50657,62,110,0
69.25917,69.50657,59,110,0
69.25917,69.50657,55,110,0
69.50917,69.75657,63,100,0
69.50917,69.75657,60,100,0
69.50917,69.88157,55,100,0
69.75917,69.88157,59,100,0
69.75917,69.88157,62,100,0
70.00917,70.25657,62,110,0
70.00917,70.25657,59,110,0
70.00917,70.25657,55,110,0
70.25917,70.50657,63,100,0
70.25917,70.50657,60,100,0
70.25917,70.63157,55,100,0
70.50917,70.63157,59,100,0
70.50917,70.63157,62,100,0
74.33089,74.44387,64,80,0
74.44627,74.55925,62,80,0
74.56166,74.67464,64,80,0
74.67704,74.9054,65,80,0
74.907814,75.13618,62,80,0
75.13858,75.36694,67,80,0
75.36935,75.59772,64,80,0
75.60012,75.82848,62,80,0
75.7155,75.82848,52,80,0
75.83089,75.94387,50,80,0
75.83089,76.05925,60,80,0
75.94627,76.05925,52,80,0
76.06165,76.29002,53,80,0
76.29243,76.52079,50,80,0
76.52319,76.75156,55,80,0
76.75396,76.98233,52,80,0
76.98473,77.2131,50,80,0
77.2155,77.44386,48,80,0
77.446266,77.67464,41,80,0
77.90781,78.13617,43,80,0
78.13857,78.36694,48,80,0
78.13857,78.36694,36,80,0
78.48473,78.59771,72,80,0
78.60011,78.7131,71,80,0
78.7155,78.828476,72,80,0
78.83089,79.05925,73,80,0
79.06165,79.290016,72,80,0
79.29242,79.52079,70,80,0
79.52319,79.75156,68,80,0
79.75396,79.98232,67,80,0
79.984726,80.2131,65,80,0
80.2155,80.44386,68,80,0
80.446266,80.67463,67,80,0
80.67703,80.9054,65,80,0
80.90781,81.13617,63,80,0
81.13857,81.366936,62,80,0
81.36934,81.59771,60,80,0
81.60011,81.828476,63,80,0
81.83088,82.05924,62,80,0
82.06165,82.290016,60,80,0
82.29242,82.52078,59,80,0
82.523186,82.75156,57,80,0
82.75396,82.98232,55,80,0
82.984726,83.21309,60,80,0
83.21549,83.44386,53,80,0
83.446266,83.67463,55,80,0
83.67703,83.905396,48,80,0
84.023186,84.13617,48,80,0
84.13857,84.25155,47,80,0
84.25395,84.366936,48,80,0
84.36934,84.5977,49,103,0
84.600105,84.71309,48,80,0
84.83088,85.05924,67,100,0
84.83088,85.05924,64,100,0
84.83088,85.05924,60,100,0
85.061646,85.29001,65,100,0
85.061646,85.29001,68,100,0
85.061646,85.405396,60,100,0
85.29241,85.405396,64,100,0
85.29241,85.405396,67,100,0
85.4078,85.52078,48,80,0
85.523186,85.63616,47,80,0
85.63857,85.75155,48,80,0
85.75395,85.982315,49,103,0
85.984726,86.0977,48,80,0
86.21549,86.443855,67,100,0
86.21549,86.443855,64,100,0
86.21549,86.443855,60,100,0
86.44626,86.67463,65,100,0
86.44626,86.67463,68,100,0
86.44626,86.79001,60,100,0
86.67703,86.79001,64,100,0
86.67703,86.79001,67,100,0
86.79241,86.905396,48,80,0
86.9078,87.02078,47,80,0
87.023186,87.13616,48,80,0
87.138565,87.366936,49,104,0
87.36934,87.482315,48,80,0
87.600105,87.8475,67,100,0
87.600105,87.8475,64,100,0
87.600105,87.8475,60,100,0
87.850105,88.0975,65,100,0
87.850105,88.0975,68,100,0
87.850105,88.3475,60,100,0
88.100105,88.3475,64,100,0
88.100105,88.3475,67,100,0
88.350105,88.5975,67,100,0
88.350105,88.5975,64,100,0
88.350105,88.5975,60,100,0
88.600105,88.8475,65,100,0
88.600105,88.8475,68,100,0
88.600105,89.0975,60,100,0
88.850105,89.0975,64,100,0
88.850105,89.0975,67,100,0
89.100105,89.3475,67,100,0
89.100105,89.3475,64,100,0
89.100105,89.3475,60,100,0
89.350105,89.5975,65,100,0
89.350105,89.5975,68,100,0
89.350105,89.8475,60,100,0
89.600105,89.8475,64,100,0
89.600105,89.8475,67,100,0
89.850105,90.0975,60,110,0
89.850105,90.0975,48,110,0
90.100105,90.3475,48,110,0
90.100105,90.3475,36,110,0
90.850105,91.567604,45,100,0
90.850105,91.567604,33,100,0
91.57011,92.287605,47,100,0
91.57011,92.287605,35,100,0
92.29011,93.00761,48,100,0
92.29011,93.00761,36,100,0
93.01011,93.72761,50,100,0
93.01011,93.72761,38,100,0
93.7301,94.44761,48,100,0
93.7301,94.44761,36,100,0
94.4501,95.1676,47,100,0
94.4501,95.1676,35,100,0
95.170105,95.40761,45,100,0
95.170105,95.40761,33,100,0
95.4101,95.647606,47,93,0
95.4101,95.647606,35,93,0
95.65011,95.8876,47,86,0
95.65011,95.8876,35,86,0
95.89011,96.12761,40,80,0
96.130104,96.36761,52,80,0
96.3701,96.607605,52,80,0
96.61011,97.32761,45,100,0
96.61011,97.32761,33,100,0
97.33011,98.04761,47,100,0
97.33011,98.04761,35,100,0
98.0501,98.76761,48,100,0
98.0501,98.76761,36,100,0
98.7701,99.4876,50,100,0
98.7701,99.4876,38,100,0
99.490105,100.2076,48,100,0
99.490105,100.2076,36,100,0
100.210106,100.927605,47,100,0
100.210106,100.927605,35,100,0
100.93011,101.1676,45,100,0
100.93011,101.1676,33,100,0
101.170105,101.40761,47,93,0
101.170105,101.40761,35,93,0
101.4101,101.647606,47,86,0
101.4101,101.647606,35,86,0
101.65011,101.8876,40,80,0
101.89011,102.12761,52,80,0
102.3701,103.08761,48,100,0
102.3701,103.08761,36,100,0
103.0901,103.8076,50,100,0
103.0901,103.8076,38,100,0
103.810104,104.04761,52,100,0
103.810104,104.04761,40,100,0
104.0501,104.287605,50,100,0
104.0501,104.287605,38,100,0
104.29011,104.5276,37,100,0
104.29011,104.5276,49,100,0
104.530106,104.76761,50,100,0
104.530106,104.76761,38,100,0
105.25011,105.967606,50,100,0
105.25011,105.967606,38,100,0
105.97011,106.68761,52,100,0
105.97011,106.68761,40,100,0
106.69011,106.927605,54,100,0
106.69011,106.927605,42,100,0
106.93011,107.1676,52,100,0
106.93011,107.1676,40,100,0
107.170105,107.40761,39,100,0
107.170105,107.40761,51,100,0
107.4101,107.647606,52,100,0
107.4101,107.647606,40,100,0
108.130104,108.8476,57,100,0
108.130104,108.8476,45,100,0
108.850105,109.567604,59,100,0
108.850105,109.567604,47,100,0
109.57011,110.287605,60,100,0
109.57011,110.287605,48,100,0
110.29011,111.00761,62,100,0
110.29011,111.00761,50,100,0
111.01011,111.72761,60,100,0
111.01011,111.72761,48,100,0
111.7301,112.44761,50,100,0
111.7301,112.44761,62,100,0
112.4501,112.68761,52,98,0
112.4501,112.68761,64,98,0
112.93011,113.1676,52,85,0
112.93011,113.1676,40,85,0
113.170105,113.40761,45,80,0
113.4101,113.647606,57,80,0
113.89011,114.607605,48,100,0
113.89011,114.607605,36,100,0
114.61011,115.32761,50,100,0
114.61011,115.32761,38,100,0
115.33011,115.567604,52,100,0
115.33011,115.567604,40,100,0
115.57011,115.8076,50,100,0
115.57011,115.8076,38,100,0
115.810104,116.04761,37,100,0
115.810104,116.04761,49,100,0
116.0501,116.287605,50,100,0
116.0501,116.287605,38,100,0
116.7701,117.4876,50,100,0
116.7701,117.4876,38,100,0
117.490105,118.2076,52,100,0
117.490105,118.2076,40,100,0
118.210106,118.44761,54,100,0
118.210106,118.44761,42,100,0
118.4501,118.68761,52,100,0
118.4501,118.68761,40,100,0
118.69011,118.927605,39,100,0
118.69011,118.927605,51,100,0
118.93011,119.1676,52,100,0
118.93011,119.1676,40,100,0
119.65011,120.36761,57,100,0
119.65011,120.36761,45,100,0
120.3701,121.08761,59,100,0
120.3701,121.08761,47,100,0
121.0901,121.8076,60,100,0
121.0901,121.8076,48,100,0
121.810104,122.5276,62,100,0
121.810104,122.5276,50,100,0
121.810104,122.5276,57,100,0
121.810104,122.5276,53,100,0
122.530106,123.247604,60,109,0
122.530106,123.247604,56,109,0
122.530106,123.247604,53,109,0
122.530106,123.247604,48,109,0
123.25011,123.4876,59,120,0
123.25011,123.4876,55,120,0
123.25011,123.4876,53,120,0
123.25011,123.4876,50,120,0
123.25011,123.4876,47,120,0
124.530106,124.68761,38,120,0
124.61011,124.68761,35,120,0
124.69011,125.40761,31,120,0
127.14088,127.25385,64,80,0
127.256256,127.36924,62,80,0
127.37164,127.48462,64,80,0
127.48703,127.71539,65,80,0
127.7178,127.94616,62,80,0
127.94856,128.17693,67,80,0
128.52548,128.63847,55,80,0
128.64087,128.75385,54,80,0
128.75626,128.86923,55,80,0
128.87164,129.1,57,80,0
129.10242,129.33078,55,80,0
129.33318,129.56154,53,80,0
129.56395,129.79231,52,80,0
129.79472,130.02309,50,80,0
130.02548,130.25385,48,80,0
130.25626,130.48462,47,80,0
130.48703,130.7154,43,80,0
130.71779,130.94615,48,80,0
130.94856,131.17693,43,80,0
131.29471,131.4077,74,80,0
131.4101,131.52309,73,80,0
131.52548,131.63846,74,80,0
131.64087,131.86923,75,80,0
131.87164,132.1,74,80,0
132.1024,132.33076,72,80,0
132.33318,132.56154,70,80,0
132.56395,132.79231,69,80,0
132.79471,133.02307,67,80,0
133.02548,133.25385,66,80,0
133.02548,133.25385,63,80,0
133.25626,133.48462,62,80,0
133.48701,133.7154,60,80,0
133.71779,133.94615,58,100,0
133.94856,134.17693,57,100,0
134.17932,134.4077,55,100,0
134.4101,134.63846,58,110,0
134.4101,134.63846,46,110,0
134.64087,134.86923,57,110,0
134.64087,134.86923,45,110,0
134.87163,135.1,55,110,0
134.87163,135.1,43,110,0
135.1024,135.33076,54,110,0
135.1024,135.33076,42,110,0
135.33318,135.56154,52,110,0
135.33318,135.56154,40,110,0
135.56393,135.79231,50,110,0
135.56393,135.79231,38,110,0
135.79471,136.02307,55,110,0
135.79471,136.02307,43,110,0
136.02548,136.25385,48,110,0
136.02548,136.25385,36,110,0
136.25626,136.48462,38,110,0
136.25626,136.48462,50,110,0
136.48701,136.71538,43,110,0
136.48701,136.71538,31,110,0
136.83318,136.94615,67,80,0
136.94856,137.06154,66,80,0
137.06393,137.17693,67,80,0
137.17932,137.40768,68,80,0
137.4101,137.63846,67,80,0
137.64087,137.86923,65,80,0
137.87163,138.09999,63,80,0
138.1024,138.33076,62,80,0
138.33318,138.56154,60,80,0
138.56393,138.7923,66,80,0
138.79471,139.02307,65,80,0
139.02548,139.25385,63,80,0
139.25624,139.4846,61,80,0
139.48701,139.71538,60,80,0
139.71779,139.94615,58,80,0
139.94855,140.17691,57,80,0
140.29471,140.40768,57,80,0
140.4101,140.52307,55,80,0
140.52548,140.63846,57,80,0
140.64085,140.86923,58,80,0
140.98701,141.09999,61,80,0
141.1024,141.21538,60,80,0
141.21779,141.33076,61,80,0
141.33316,141.56154,55,80,0
141.67932,141.7923,55,80,0
141.79471,141.90768,53,80,0
141.9101,142.02307,55,80,0
142.02547,142.25385,56,80,0
142.37163,142.4846,60,80,0
142.48701,142.59999,59,80,0
142.6024,142.71538,60,80,0
142.71777,142.94615,54,80,0
143.06393,143.17691,54,80,0
143.17932,143.2923,52,80,0
143.29471,143.40768,54,80,0
143.41008,143.63846,55,80,0
143.75624,143.86922,55,80,0
143.87163,143.9846,54,80,0
143.98701,144.09999,55,80,0
144.1024,144.33076,51,110,0
144.33316,144.56152,50,110,0
144.56393,144.7923,48,110,0
144.79471,145.0421,43,110,0
145.16971,145.2921,43,80,0
145.29471,145.4171,42,80,0
145.41971,145.5421,43,80,0
145.54471,145.7921,44,80,0
145.79471,145.9171,43,80,0
146.04471,146.2921,62,110,0
146.04471,146.2921,59,110,0
146.04471,146.2921,55,110,0
146.29471,146.5421,60,100,0
146.29471,146.5421,63,100,0
146.29471,146.6671,55,100,0
146.54471,146.6671,62,100,0
146.54471,146.6671,59,100,0
146.66971,146.7921,43,80,0
146.79471,146.9171,42,80,0
146.91971,147.0421,43,80,0
147.04471,147.2921,44,80,0
147.29471,147.4171,43,80,0
147.54471,147.7921,62,110,0
147.54471,147.7921,59,110,0
147.54471,147.7921,55,110,0
147.79471,148.0421,63,100,0
147.79471,148.0421,60,100,0
147.79471,148.1671,55,100,0
148.04471,148.1671,62,100,0
148.04471,148.1671,59,100,0
148.16971,148.2921,43,80,0
148.29471,148.4171,42,80,0
148.41971,148.5421,43,80,0
148.54471,148.7921,44,80,0
148.79471,148.9171,43,80,0
149.04471,149.2921,62,110,0
149.04471,149.2921,59,110,0
149.04471,149.2921,55,110,0
149.29471,149.5421,63,100,0
149.29471,149.5421,60,100,0
149.29471,149.6671,55,100,0
149.54471,149.6671,59,100,0
149.54471,149.6671,62,100,0
149.79471,150.0421,62,110,0
149.79471,150.0421,59,110,0
149.79471,150.0421,55,110,0
150.04471,150.2921,63,100,0
150.04471,150.2921,60,100,0
150.04471,150.4171,55,100,0
150.29471,150.4171,59,100,0
150.29471,150.4171,62,100,0
150.54471,150.7921,62,110,0
150.54471,150.7921,59,110,0
150.54471,150.7921,55,110,0
150.79471,151.0421,63,100,0
150.79471,151.0421,60,100,0
150.79471,151.1671,55,100,0
151.04471,151.1671,59,100,0
151.04471,151.1671,62,100,0
154.86642,154.9794,64,80,0
154.9818,155.09479,62,80,0
155.09718,155.21016,64,80,0
155.21257,155.44093,65,80,0
155.44334,155.6717,62,80,0
155.6741,155.90248,67,80,0
155.90488,156.13324,64,80,0
156.13565,156.36401,62,80,0
156.25104,156.36401,52,80,0
156.36641,156.4794,50,80,0
156.36641,156.59479,60,80,0
156.4818,156.59479,52,80,0
156.59718,156.82555,53,80,0
156.82796,157.05632,50,80,0
157.05872,157.2871,55,80,0
157.28949,157.51785,52,80,0
157.52026,157.74863,50,80,0
157.75102,157.9794,48,80,0
157.9818,158.21016,41,80,0
158.44334,158.6717,43,80,0
158.6741,158.90247,48,80,0
158.6741,158.90247,36,80,0
159.02026,159.13324,72,80,0
159.13565,159.24863,71,80,0
159.25102,159.36401,72,80,0
159.36641,159.59477,73,80,0
159.59718,159.82555,72,80,0
159.82796,160.05632,70,80,0
160.05872,160.28708,68,80,0
160.28949,160.51785,67,80,0
160.52026,160.74863,65,80,0
160.75102,160.97939,68,80,0
160.9818,161.21016,67,80,0
161.21257,161.44093,65,80,0
161.44333,161.67169,63,80,0
161.6741,161.90247,62,80,0
161.90488,162.13324,60,80,0
162.13564,162.364,63,80,0
162.36641,162.59477,62,80,0
162.59718,162.82555,60,80,0
162.82794,163.05632,59,80,0
163.05872,163.28708,57,80,0
163.28949,163.51785,55,80,0
163.52025,163.74863,60,80,0
163.75102,163.97939,53,80,0
163.9818,164.21016,55,80,0
164.21255,164.44093,48,80,0
164.55872,164.67169,48,80,0
164.6741,164.78708,47,80,0
164.78949,164.90247,48,80,0
164.90486,165.13324,49,102,0
165.13564,165.24861,48,80,0
165.36641,165.59477,67,100,0
165.36641,165.59477,64,100,0
165.36641,165.59477,60,100,0
165.59717,165.82555,65,100,0
165.59717,165.82555,68,100,0
165.59717,165.94092,60,100,0
165.82794,165.94092,64,100,0
165.82794,165.94092,67,100,0
165.94333,166.0563,48,80,0
166.05872,166.17169,47,80,0
166.1741,166.28708,48,80,0
166.28949,166.51785,49,104,0
166.52025,166.63324,48,80,0
166.75102,166.97939,67,110,0
166.75102,166.97939,64,110,0
166.75102,166.97939,60,110,0
166.9818,167.21016,65,110,0
166.9818,167.21016,68,110,0
166.9818,167.32555,60,110,0
167.21255,167.32555,64,110,0
167.21255,167.32555,67,110,0
167.32794,167.44092,48,80,0
167.44333,167.5563,47,80,0
167.55872,167.67169,48,80,0
167.6741,167.90247,49,103,0
167.90486,168.02727,48,80,0
168.15486,168.40227,67,110,0
168.15486,168.40227,64,110,0
168.15486,168.40227,60,110,0
168.40486,168.65227,65,110,0
168.40486,168.65227,68,110,0
168.40486,168.90227,60,110,0
168.65486,168.90227,64,110,0
168.65486,168.90227,67,110,0
168.90486,169.15227,67,110,0
168.90486,169.15227,64,110,0
168.90486,169.15227,60,110,0
169.15486,169.40227,65,110,0
169.15486,169.40227,68,110,0
169.15486,169.65227,60,110,0
169.40486,169.65227,64,110,0
169.40486,169.65227,67,110,0
169.65486,169.90227,67,110,0
169.65486,169.90227,64,110,0
169.65486,169.90227,60,110,0
169.90486,170.15227,65,110,0
169.90486,170.15227,68,110,0
169.90486,170.40227,60,110,0
170.15486,170.40227,64,110,0
170.15486,170.40227,67,110,0
170.40486,170.65227,60,120,0
170.40486,170.65227,48,120,0
170.65486,170.90227,48,120,0
170.65486,170.90227,36,120,0
171.90486,172.15227,57,120,0
171.90486,172.15227,45,120,0
172.15486,172.40227,45,120,0
172.15486,172.40227,33,120,0
173.40486,173.65227,54,120,0
173.40486,173.65227,42,120,0
173.65486,173.90227,42,120,0
173.65486,173.90227,30,120,0
174.15486,174.40227,42,120,0
174.15486,174.40227,30,120,0
174.40486,174.65227,43,120,0
174.40486,174.65227,31,120,0
174.77487,174.89236,43,80,0
174.89487,175.01236,42,80,0
175.01486,175.13237,43,80,0
175.13487,175.36324,44,80,0
175.36563,175.594,43,80,0
175.5964,175.82477,43,80,0
175.82718,176.05554,44,80,0
176.05794,176.2863,43,80,0
176.28871,176.51707,43,80,0
176.51949,176.74785,44,80,0
176.75024,176.9786,43,80,0
176.98102,177.20938,43,80,0
177.21179,177.44016,44,80,0
177.44255,177.67091,43,80,0
177.67332,177.90169,43,80,0
177.9041,178.13246,44,80,0
178.13486,178.36322,43,80,0
178.36563,178.594,43,80,0
178.5964,178.82477,44,80,0
178.82716,179.05554,43,80,0
179.05794,179.2863,43,80,0
179.28871,179.51707,44,80,0
179.51947,179.74785,43,80,0
179.75024,179.9786,43,80,0
179.98102,180.20938,36,80,0
180.32716,180.44016,36,70,0
180.44255,180.55553,35,70,0
180.55794,180.67091,36,70,0
180.67332,180.90169,37,70,0
180.90408,181.13246,36,70,0
181.13486,181.36322,36,70,0
181.36563,181.594,37,70,0
181.5964,181.82477,36,70,0
181.82716,182.05553,36,70,0
182.05794,182.2863,37,70,0
182.28871,182.51707,36,70,0
182.51947,182.74783,36,70,0
182.75024,182.9786,37,70,0
182.98102,183.20938,36,70,0
183.21178,183.44014,36,70,0
183.44255,183.67091,37,70,0
183.67332,183.90169,36,70,0
183.90408,184.13245,36,70,0
184.13486,184.36322,37,70,0
184.36563,184.594,36,70,0
184.59639,184.82475,36,70,0
184.82716,185.05553,37,70,0
185.05794,185.2863,36,70,0
185.2887,185.51706,36,70,0
185.51947,185.76686,36,70,0
186.01947,186.26686,35,70,0
186.26947,186.53935,36,70,0
186.8422,187.23804,35,70,0
187.2422,188.43803,36,70,0
